<?xml version="1.0" standalone="no"?>
<!DOCTYPE svg PUBLIC "-//W3C//DTD SVG 20010904//EN"
 "http://www.w3.org/TR/2001/REC-SVG-20010904/DTD/svg10.dtd">
<svg version="1.0" xmlns="http://www.w3.org/2000/svg"
 width="480.000000pt" height="360.000000pt" viewBox="0 0 480.000000 360.000000"
 preserveAspectRatio="xMidYMid meet">
<metadata>
Created by potrace 1.16, written by Peter Selinger 2001-2019
</metadata>
<rect width="1" height="360" fill="#000000"/>
<rect x="479" width="1" height="360" fill="#000000"/>
<rect width="480" height="1" fill="#000000"/>
<rect y="359" width="480" height="1" fill="#000000"/>
<g transform="translate(0.000000,360.000000) scale(0.100000,-0.100000)"
fill="#000000" stroke="none">
<path d="M0 1800 l0 -1800 706 0 706 0 -7 22 c-4 13 -10 145 -15 293 -6 207
-5 298 6 390 12 110 43 227 74 286 27 49 113 149 207 240 54 52 114 115 133
140 31 38 35 48 28 79 -4 19 -16 105 -27 190 -68 517 -94 651 -176 930 -27 91
-156 434 -210 555 -48 108 -95 315 -95 416 l0 59 -665 0 -665 0 0 -1800z"/>
<path d="M2075 3583 c40 -97 64 -214 95 -478 59 -507 74 -702 90 -1180 6 -181
13 -336 16 -343 3 -11 23 -12 97 -7 108 8 288 -8 384 -35 46 -12 66 -14 68 -6
2 6 8 54 14 106 42 363 73 527 125 674 95 266 281 450 621 616 325 158 665
230 878 186 195 -40 321 -152 273 -243 -48 -94 -297 -272 -498 -355 -77 -33
-231 -75 -508 -139 -182 -42 -303 -102 -358 -178 -45 -62 -77 -176 -122 -430
-23 -129 -50 -277 -60 -330 -11 -53 -20 -104 -20 -114 0 -30 105 -163 164
-207 30 -23 80 -76 112 -118 99 -131 118 -231 134 -677 5 -154 13 -290 16
-302 l6 -23 599 0 599 0 0 1800 0 1800 -1366 0 c-1297 0 -1366 -1 -1359 -17z"/>
</g>
</svg>
