<?xml version="1.0" standalone="no"?>
<!DOCTYPE svg PUBLIC "-//W3C//DTD SVG 20010904//EN"
 "http://www.w3.org/TR/2001/REC-SVG-20010904/DTD/svg10.dtd">
<svg version="1.0" xmlns="http://www.w3.org/2000/svg"
 width="480.000000pt" height="360.000000pt" viewBox="0 0 480.000000 360.000000"
 preserveAspectRatio="xMidYMid meet">
<metadata>
Created by potrace 1.16, written by Peter Selinger 2001-2019
</metadata>
<rect width="1" height="360" fill="#000000"/>
<rect x="479" width="1" height="360" fill="#000000"/>
<rect width="480" height="1" fill="#000000"/>
<rect y="359" width="480" height="1" fill="#000000"/>
<g transform="translate(0.000000,360.000000) scale(0.100000,-0.100000)"
fill="#000000" stroke="none">
<path d="M0 1800 l0 -1800 2400 0 2400 0 0 693 c0 679 0 693 -19 693 -15 0
-17 -3 -9 -13 18 -22 2 -26 -31 -9 -40 21 -62 21 -54 0 5 -13 2 -15 -15 -10
-17 6 -21 4 -16 -8 8 -21 -5 -20 -29 2 -20 17 -20 17 -3 -10 35 -54 9 -49 -32
6 -27 36 -50 56 -63 56 -11 0 -30 5 -42 11 -30 16 -10 -3 38 -35 58 -38 16
-33 -53 7 -98 57 -123 65 -300 96 -152 26 -182 35 -245 69 -78 42 -123 57
-131 43 -3 -5 1 -30 8 -57 27 -91 24 -145 -9 -179 -29 -28 -76 -33 -94 -11 -7
8 -18 58 -26 111 -13 94 -19 114 -31 102 -11 -11 -24 -82 -24 -134 0 -43 -3
-53 -21 -58 -28 -9 -57 19 -65 64 -4 20 -13 50 -20 67 -7 17 -10 41 -7 54 5
20 4 22 -13 15 -10 -5 -46 -10 -79 -11 -33 -2 -97 -6 -142 -10 -74 -6 -83 -5
-89 11 -4 10 -2 31 4 47 9 24 8 30 -10 39 -27 14 -250 29 -262 18 -6 -5 -6 -9
-2 -9 5 0 3 -7 -4 -16 -11 -13 -8 -20 23 -45 37 -30 46 -52 27 -64 -5 -3 -35
14 -67 38 -73 54 -165 97 -171 79 -5 -17 -27 -15 -42 3 -19 23 -31 18 -24 -10
4 -18 2 -25 -9 -25 -20 0 -42 28 -42 54 0 16 -7 22 -30 24 -53 5 -83 22 -94
55 -8 20 -8 34 -1 41 12 12 104 10 316 -9 93 -8 211 -15 262 -15 l93 0 42 39
c23 22 53 61 67 88 14 26 40 72 57 103 18 30 33 62 33 70 0 8 -14 31 -30 50
-27 31 -31 33 -41 17 -12 -21 -52 -22 -69 -2 -10 12 -10 28 -1 73 15 76 6 119
-28 135 -22 10 -26 20 -29 58 -3 42 0 49 34 79 30 26 35 36 27 49 -6 9 -18 15
-28 15 -10 -1 -23 12 -33 33 l-16 34 -71 -1 c-113 -2 -113 -2 -130 30 -15 29
-15 31 7 39 13 6 44 13 71 16 26 3 47 10 47 14 0 4 -18 16 -40 26 -48 22 -62
37 -54 59 9 24 30 20 55 -11 19 -25 21 -26 15 -5 -9 29 12 29 49 1 26 -21 28
-21 61 -5 19 9 43 16 52 16 10 0 26 16 37 36 43 80 134 143 208 144 52 0 98
-21 174 -81 59 -47 63 -53 49 -68 -15 -14 -20 -14 -64 3 -90 34 -85 36 -77
-30 10 -91 9 -90 81 -109 108 -29 198 -61 201 -72 2 -6 -4 -19 -14 -29 -10 -9
-17 -20 -15 -23 2 -3 -5 -7 -15 -9 -73 -12 -80 -23 -32 -48 61 -31 102 -86
132 -173 17 -47 14 -49 -28 -21 -32 21 -60 27 -50 10 3 -6 3 -19 0 -30 l-6
-20 -26 20 c-31 24 -65 27 -57 5 9 -23 -6 -18 -28 10 -24 31 -43 33 -28 4 11
-19 10 -20 -12 -8 -13 6 -31 18 -40 26 -28 25 -38 11 -19 -27 9 -19 25 -56 34
-82 10 -25 25 -49 32 -52 8 -3 41 13 72 35 57 39 162 79 210 79 25 0 26 -1 20
-54 -3 -30 -13 -68 -22 -86 -24 -47 -14 -60 47 -61 29 -1 66 -4 83 -8 l29 -6
-29 -20 c-17 -11 -54 -22 -84 -25 l-53 -5 64 -34 65 -35 74 23 c239 76 275 82
442 83 100 0 162 -4 171 -11 7 -6 27 -8 45 -5 l31 6 0 784 0 784 -2400 0
-2400 0 0 -1800z"/>
<path d="M3718 2013 c76 -58 147 -93 188 -93 23 0 49 -3 58 -6 9 -3 16 -2 16
3 0 16 -106 67 -124 60 -10 -4 -38 4 -64 17 -26 13 -58 27 -72 30 l-25 7 23
-18z"/>
<path d="M4757 1997 c-16 -11 -15 -14 13 -30 l30 -18 0 30 c0 33 -15 39 -43
18z"/>
</g>
</svg>
