<?xml version="1.0" standalone="no"?>
<!DOCTYPE svg PUBLIC "-//W3C//DTD SVG 20010904//EN"
 "http://www.w3.org/TR/2001/REC-SVG-20010904/DTD/svg10.dtd">
<svg version="1.0" xmlns="http://www.w3.org/2000/svg"
 width="480.000000pt" height="360.000000pt" viewBox="0 0 480.000000 360.000000"
 preserveAspectRatio="xMidYMid meet">
<metadata>
Created by potrace 1.16, written by Peter Selinger 2001-2019
</metadata>
<rect width="1" height="360" fill="#000000"/>
<rect x="479" width="1" height="360" fill="#000000"/>
<rect width="480" height="1" fill="#000000"/>
<rect y="359" width="480" height="1" fill="#000000"/>
<g transform="translate(0.000000,360.000000) scale(0.100000,-0.100000)"
fill="#000000" stroke="none">
<path d="M0 1800 l0 -1800 950 0 950 0 0 72 c0 60 -4 76 -25 104 -14 18 -38
35 -55 39 -34 8 -50 35 -50 89 0 20 -9 42 -22 56 -34 36 -60 100 -59 142 1 53
58 192 163 402 109 218 112 224 90 222 -9 -1 -21 13 -30 37 -15 37 -14 38 17
77 17 21 31 44 31 50 0 6 13 37 30 70 35 70 37 80 10 80 -33 0 -57 34 -70 97
-6 32 -16 75 -21 97 -7 27 -7 42 0 49 15 15 14 48 -5 93 -13 31 -15 57 -9 129
8 104 27 165 102 325 30 63 75 174 100 245 25 72 57 153 72 180 14 28 27 53
29 57 2 3 -15 16 -38 29 -54 30 -46 45 21 41 53 -3 56 -2 112 47 35 31 68 51
82 51 13 0 26 6 29 13 3 9 8 7 19 -5 7 -10 35 -27 62 -38 l48 -20 46 25 46 26
-34 -30 -33 -29 41 -26 c32 -20 41 -32 41 -54 0 -15 7 -40 15 -56 8 -15 15
-41 15 -57 0 -17 5 -29 13 -29 6 0 26 -11 42 -24 38 -31 25 -48 -28 -37 -33 8
-37 7 -37 -10 0 -10 -4 -19 -9 -19 -5 0 -11 -9 -14 -20 -4 -14 -17 -21 -47
-26 -41 -7 -42 -7 -35 -40 5 -29 3 -34 -13 -34 -22 0 -57 -35 -66 -67 -6 -18
0 -25 36 -41 24 -10 52 -29 62 -41 11 -11 25 -21 32 -21 26 0 84 -66 84 -96 0
-16 7 -38 15 -48 8 -11 15 -27 15 -36 0 -9 13 -41 30 -71 42 -76 39 -110 -15
-198 -25 -40 -45 -82 -45 -94 0 -11 -14 -45 -31 -75 -36 -64 -35 -96 6 -183
14 -30 45 -119 70 -199 51 -161 59 -187 70 -213 5 -13 3 -16 -8 -12 -8 4 -17
-1 -21 -10 -3 -9 0 -18 9 -20 8 -3 21 -7 29 -9 8 -3 20 -22 25 -43 9 -30 8
-40 -3 -48 -12 -9 -12 -15 0 -37 7 -14 34 -82 60 -150 25 -67 59 -152 76 -187
29 -61 30 -65 12 -78 -10 -7 -22 -13 -27 -13 -9 0 -5 -29 9 -65 5 -13 2 -16
-15 -13 -15 2 -25 -5 -34 -22 -14 -27 -38 -30 -122 -15 -35 6 -46 3 -82 -24
l-43 -31 0 -89 c0 -50 4 -93 10 -96 5 -3 10 -15 10 -26 0 -19 17 -19 1055 -19
l1055 0 0 1800 0 1800 -2400 0 -2400 0 0 -1800z"/>
<path d="M2550 1868 c0 -57 -3 -113 -6 -125 -4 -14 -2 -23 5 -23 9 0 91 158
91 175 0 1 -20 19 -45 39 l-45 37 0 -103z"/>
<path d="M2445 198 c-11 -6 -44 -26 -72 -46 -52 -35 -53 -35 -135 -29 -117 9
-141 -1 -160 -70 l-15 -53 213 0 214 0 0 24 c0 13 5 26 11 28 15 5 -9 158 -25
158 -6 0 -20 -6 -31 -12z"/>
</g>
</svg>
