<?xml version="1.0" standalone="no"?>
<!DOCTYPE svg PUBLIC "-//W3C//DTD SVG 20010904//EN"
 "http://www.w3.org/TR/2001/REC-SVG-20010904/DTD/svg10.dtd">
<svg version="1.0" xmlns="http://www.w3.org/2000/svg"
 width="480.000000pt" height="360.000000pt" viewBox="0 0 480.000000 360.000000"
 preserveAspectRatio="xMidYMid meet">
<metadata>
Created by potrace 1.16, written by Peter Selinger 2001-2019
</metadata>
<rect width="1" height="360" fill="#000000"/>
<rect x="479" width="1" height="360" fill="#000000"/>
<rect width="480" height="1" fill="#000000"/>
<rect y="359" width="480" height="1" fill="#000000"/>
<g transform="translate(0.000000,360.000000) scale(0.100000,-0.100000)"
fill="#000000" stroke="none">
<path d="M0 1800 l0 -1800 2400 0 2400 0 0 1800 0 1800 -2400 0 -2400 0 0
-1800z m2255 990 c4 -6 15 -5 30 2 13 6 36 8 50 4 27 -7 28 -14 10 -58 -11
-28 75 -25 101 3 36 40 73 52 142 46 71 -7 84 -14 191 -102 67 -55 70 -60 46
-63 -14 -2 -46 8 -72 22 -45 26 -93 34 -93 17 0 -5 -3 -22 -6 -38 -6 -28 -3
-31 49 -52 30 -12 71 -39 91 -60 33 -33 36 -42 27 -60 -10 -17 -7 -23 16 -38
16 -9 36 -25 45 -34 10 -10 26 -23 35 -28 14 -8 15 -13 5 -19 -8 -5 -10 -16
-6 -27 6 -15 4 -17 -10 -12 -34 13 -49 -18 -42 -86 3 -33 12 -64 19 -69 6 -4
65 -20 130 -35 95 -22 117 -31 117 -45 0 -22 -5 -21 100 -3 145 26 330 14 330
-21 0 -8 7 -14 15 -14 8 0 14 -3 14 -7 -6 -35 40 -84 70 -76 17 4 20 2 14 -13
-5 -14 -3 -16 11 -11 9 4 15 3 12 -2 -3 -5 4 -12 17 -16 19 -6 19 -8 5 -12
-20 -5 -24 -28 -8 -38 6 -3 10 -15 10 -27 0 -15 -5 -19 -17 -14 -15 5 -15 4 1
-9 12 -9 15 -15 7 -15 -11 0 -11 -3 -1 -15 10 -12 9 -15 -4 -15 -10 0 -15 -4
-12 -9 9 -14 -35 -21 -56 -10 -15 8 -23 6 -36 -9 -9 -10 -27 -22 -39 -26 -26
-8 -28 -16 -10 -35 10 -11 8 -11 -11 -2 -12 7 -26 9 -31 6 -5 -3 -27 5 -48 17
l-38 22 29 -32 c17 -18 25 -32 18 -32 -6 0 -15 6 -19 13 -4 7 -24 25 -43 39
-35 26 -106 44 -269 68 -41 6 -95 20 -120 31 -42 18 -47 18 -86 4 -23 -9 -45
-15 -51 -14 -35 6 -42 -1 -37 -39 4 -28 0 -43 -12 -55 -22 -23 -30 -21 -54 9
l-21 26 -10 -26 c-11 -31 -36 -44 -53 -27 -7 7 -13 37 -14 67 0 31 -4 58 -7
62 -16 15 -70 17 -192 7 -99 -8 -106 -5 -108 44 -1 25 -4 26 -91 37 -49 6
-160 14 -245 17 l-155 6 58 -20 c40 -15 57 -26 57 -38 0 -11 15 -25 40 -36 43
-19 47 -26 27 -43 -10 -8 -28 -2 -72 24 -84 51 -164 90 -209 103 -35 9 -42 8
-58 -9 -11 -11 -22 -20 -25 -20 -12 0 -43 33 -43 46 0 13 -18 18 -102 29 -37
5 -52 13 -68 36 -12 16 -18 33 -15 39 8 13 110 13 200 -1 110 -16 482 -49 550
-49 76 0 94 16 157 145 41 82 44 92 32 115 -8 14 -20 51 -29 82 -12 46 -20 59
-39 64 -35 8 -69 48 -62 72 4 10 22 27 41 38 33 18 35 18 55 -1 13 -12 20 -29
19 -45 -2 -14 8 -45 21 -70 20 -38 25 -42 29 -25 3 11 14 32 24 47 15 22 16
29 5 47 -7 12 -22 21 -33 21 -20 0 -63 56 -51 67 3 3 -27 27 -67 54 -40 26
-87 63 -105 81 -37 38 -40 73 -4 72 21 -1 21 1 6 17 -9 10 -14 25 -11 34 7 17
33 20 42 5z"/>
<path d="M2707 2276 c-8 -20 3 -56 18 -56 6 0 17 10 22 23 9 19 8 26 -8 35
-24 15 -26 15 -32 -2z"/>
<path d="M2480 2169 c-12 -24 -38 -69 -56 -100 -31 -52 -44 -99 -27 -99 30 0
163 115 163 140 0 6 -13 31 -29 57 l-29 46 -22 -44z"/>
<path d="M2846 2069 c8 -14 104 -59 124 -59 8 0 -13 16 -48 35 -64 36 -88 43
-76 24z"/>
<path d="M3000 2051 c36 -19 57 -24 100 -22 39 2 11 17 -54 30 -79 15 -87 13
-46 -8z"/>
</g>
</svg>
