<?xml version="1.0" standalone="no"?>
<!DOCTYPE svg PUBLIC "-//W3C//DTD SVG 20010904//EN"
 "http://www.w3.org/TR/2001/REC-SVG-20010904/DTD/svg10.dtd">
<svg version="1.0" xmlns="http://www.w3.org/2000/svg"
 width="480.000000pt" height="360.000000pt" viewBox="0 0 480.000000 360.000000"
 preserveAspectRatio="xMidYMid meet">
<metadata>
Created by potrace 1.16, written by Peter Selinger 2001-2019
</metadata>
<rect width="1" height="360" fill="#000000"/>
<rect x="479" width="1" height="360" fill="#000000"/>
<rect width="480" height="1" fill="#000000"/>
<rect y="359" width="480" height="1" fill="#000000"/>
<g transform="translate(0.000000,360.000000) scale(0.100000,-0.100000)"
fill="#000000" stroke="none">
<path d="M0 1800 l0 -1800 2190 0 2190 0 -4 22 c-3 13 -7 50 -11 83 -9 97 -13
104 -57 116 -57 15 -142 57 -216 107 -64 44 -92 87 -92 141 0 37 41 118 89
175 29 34 41 57 41 80 0 59 79 292 154 455 26 57 53 136 66 196 12 55 33 147
47 204 l26 104 -29 24 c-16 12 -32 23 -36 23 -4 0 -5 13 -2 29 8 39 -31 81
-75 81 -16 0 -36 2 -44 6 -12 4 -13 -13 -9 -113 4 -100 1 -130 -17 -196 -27
-98 -81 -205 -168 -331 -67 -98 -93 -123 -93 -92 0 9 -8 16 -20 16 -11 0 -20
3 -20 8 0 7 62 88 94 122 26 28 106 159 127 207 40 92 49 136 49 250 0 128
-14 209 -38 222 -27 14 -188 40 -312 51 -172 15 -170 15 -170 -18 0 -55 -15
-63 -140 -69 -80 -4 -120 -10 -132 -20 -12 -11 -26 -13 -50 -8 -60 14 -216 18
-678 19 -509 1 -480 -3 -570 75 l-45 39 23 25 c13 14 52 39 87 56 56 28 72 31
156 31 52 0 258 -14 458 -31 350 -31 365 -31 375 -14 30 50 52 65 111 76 33 6
71 16 84 22 17 9 144 12 447 11 233 -1 422 1 421 5 -21 46 -37 70 -60 90 -16
13 -25 27 -20 31 11 10 119 30 163 30 l37 0 -1 58 c-1 44 5 69 27 110 15 30
27 56 27 58 0 2 -11 4 -25 4 -14 0 -25 4 -25 10 0 18 63 42 130 51 90 11 114
23 129 67 19 54 92 146 102 130 5 -7 9 -646 9 -1420 l0 -1408 50 0 50 0 0
1455 c0 803 -4 1455 -8 1455 -5 0 -28 -14 -50 -30 l-42 -30 0 375 0 375 -2350
0 -2350 0 0 -1800z"/>
<path d="M4448 2534 c-58 -31 -76 -129 -38 -204 20 -39 38 -56 26 -24 -7 17
18 61 48 86 l21 17 -24 25 -23 25 25 24 c18 16 24 30 20 45 -6 26 -18 27 -55
6z"/>
<path d="M4399 1810 c30 -25 41 -25 41 0 0 16 -7 20 -32 20 l-33 -1 24 -19z"/>
</g>
</svg>
