<?xml version="1.0" standalone="no"?>
<!DOCTYPE svg PUBLIC "-//W3C//DTD SVG 20010904//EN"
 "http://www.w3.org/TR/2001/REC-SVG-20010904/DTD/svg10.dtd">
<svg version="1.0" xmlns="http://www.w3.org/2000/svg"
 width="480.000000pt" height="360.000000pt" viewBox="0 0 480.000000 360.000000"
 preserveAspectRatio="xMidYMid meet">
<metadata>
Created by potrace 1.16, written by Peter Selinger 2001-2019
</metadata>
<rect width="1" height="360" fill="#000000"/>
<rect x="479" width="1" height="360" fill="#000000"/>
<rect width="480" height="1" fill="#000000"/>
<rect y="359" width="480" height="1" fill="#000000"/>
<g transform="translate(0.000000,360.000000) scale(0.100000,-0.100000)"
fill="#000000" stroke="none">
<path d="M501 3458 c-16 -178 -30 -453 -31 -579 0 -80 3 -99 18 -112 10 -10
22 -17 25 -17 10 0 47 -33 47 -43 0 -5 7 -15 15 -23 11 -11 15 -39 16 -97 1
-45 4 -120 8 -167 6 -74 8 -81 15 -50 5 19 16 50 26 70 12 22 20 69 24 132 3
60 11 107 20 120 11 18 17 91 25 326 12 341 14 543 5 566 -5 13 -24 16 -103
16 l-97 0 -13 -142z"/>
</g>
</svg>
