<?xml version="1.0" standalone="no"?>
<!DOCTYPE svg PUBLIC "-//W3C//DTD SVG 20010904//EN"
 "http://www.w3.org/TR/2001/REC-SVG-20010904/DTD/svg10.dtd">
<svg version="1.0" xmlns="http://www.w3.org/2000/svg"
 width="480.000000pt" height="360.000000pt" viewBox="0 0 480.000000 360.000000"
 preserveAspectRatio="xMidYMid meet">
<metadata>
Created by potrace 1.16, written by Peter Selinger 2001-2019
</metadata>
<rect width="1" height="360" fill="#000000"/>
<rect x="479" width="1" height="360" fill="#000000"/>
<rect width="480" height="1" fill="#000000"/>
<rect y="359" width="480" height="1" fill="#000000"/>
<g transform="translate(0.000000,360.000000) scale(0.100000,-0.100000)"
fill="#000000" stroke="none">
<path d="M0 1800 l0 -1800 2400 0 2400 0 0 1800 0 1800 -2400 0 -2400 0 0
-1800z m2335 73 c23 -66 42 -82 79 -65 18 8 30 26 42 66 19 60 34 73 34 29 0
-37 18 -101 31 -109 26 -16 58 7 85 61 14 31 30 57 33 60 4 2 7 -31 6 -73 0
-75 1 -77 25 -80 21 -2 31 6 59 53 19 30 36 54 38 51 3 -2 0 -21 -6 -43 -15
-54 -14 -116 2 -111 6 3 27 24 45 47 38 50 39 48 12 -19 -24 -62 -26 -77 -5
-60 24 20 18 3 -25 -69 -52 -88 -61 -159 -35 -295 21 -111 14 -139 -44 -185
-64 -50 -143 -72 -276 -78 -148 -7 -252 13 -336 63 -82 49 -87 67 -65 219 18
128 14 179 -22 249 -21 43 -32 86 -22 86 5 0 3 19 -6 42 -16 47 -14 60 6 23
15 -28 47 -33 57 -9 3 9 0 39 -7 66 -6 27 -10 51 -7 54 3 3 16 -14 29 -38 13
-23 31 -44 41 -46 35 -7 47 17 47 91 l0 70 33 -64 c26 -52 37 -65 59 -67 21
-3 30 3 42 27 9 16 16 48 16 71 0 22 3 40 8 40 4 0 16 -25 27 -57z"/>
</g>
</svg>
