<?xml version="1.0" standalone="no"?>
<!DOCTYPE svg PUBLIC "-//W3C//DTD SVG 20010904//EN"
 "http://www.w3.org/TR/2001/REC-SVG-20010904/DTD/svg10.dtd">
<svg version="1.0" xmlns="http://www.w3.org/2000/svg"
 width="480.000000pt" height="360.000000pt" viewBox="0 0 480.000000 360.000000"
 preserveAspectRatio="xMidYMid meet">
<metadata>
Created by potrace 1.16, written by Peter Selinger 2001-2019
</metadata>
<rect width="1" height="360" fill="#000000"/>
<rect x="479" width="1" height="360" fill="#000000"/>
<rect width="480" height="1" fill="#000000"/>
<rect y="359" width="480" height="1" fill="#000000"/>
<g transform="translate(0.000000,360.000000) scale(0.100000,-0.100000)"
fill="#000000" stroke="none">
<path d="M2500 3593 c0 -3 7 -15 17 -25 9 -10 14 -20 12 -21 -2 -2 -25 -20
-51 -41 -26 -21 -69 -43 -95 -51 -26 -7 -65 -20 -87 -30 -36 -15 -39 -15 -57
1 -25 22 -34 13 -57 -57 -16 -49 -20 -55 -55 -63 -35 -9 -38 -12 -32 -35 4
-14 13 -33 21 -42 22 -25 16 -33 -10 -15 -42 27 -40 -1 3 -51 23 -25 41 -50
41 -54 0 -5 20 -31 44 -58 l44 -50 -24 -58 c-33 -81 -47 -158 -41 -220 3 -29
2 -55 -3 -58 -7 -4 -295 -28 -798 -66 -79 -6 -150 -8 -158 -5 -8 3 -14 19 -14
38 0 56 -22 71 -120 87 -54 9 -67 8 -81 -5 -14 -12 -24 -13 -53 -5 -32 8 -38
7 -49 -10 -6 -10 -22 -19 -34 -19 -54 0 -89 -35 -95 -95 -2 -22 -9 -31 -28
-35 -14 -3 -26 -14 -28 -23 -3 -14 5 -17 50 -18 29 -1 58 -2 63 -4 6 -1 16 -3
24 -3 11 -2 12 -13 8 -51 -5 -44 -3 -51 14 -56 10 -4 33 -18 49 -32 24 -20 28
-28 20 -43 -6 -10 -10 -26 -10 -36 0 -9 49 -67 109 -128 104 -105 147 -159
243 -303 57 -87 101 -108 208 -100 78 6 169 31 244 68 22 10 44 19 49 19 6 0
39 14 74 30 56 26 69 29 100 21 42 -12 82 -6 140 20 53 24 49 24 80 -6 l27
-24 -21 -43 c-31 -64 -41 -103 -52 -208 -13 -115 -36 -247 -62 -353 l-18 -79
21 -29 c12 -16 31 -35 43 -43 29 -19 26 -114 -5 -175 -54 -107 -69 -220 -76
-566 -2 -137 -6 -280 -8 -317 l-3 -68 799 0 799 0 -18 31 c-10 17 -65 83 -123
147 -158 176 -250 294 -311 402 -88 154 -161 284 -194 345 -21 39 -65 98 -98
132 -58 61 -60 64 -55 108 3 25 17 62 31 83 41 60 98 302 107 450 7 116 9 125
35 152 15 16 43 31 63 35 23 4 52 21 75 43 34 34 43 37 96 38 32 1 65 5 73 10
9 5 61 53 117 106 60 57 121 106 147 117 25 11 56 29 70 40 27 22 84 95 84
109 0 5 16 26 36 46 28 29 35 42 30 61 -6 24 -4 25 40 25 36 0 54 6 85 31 39
31 39 31 39 104 0 41 5 77 10 80 19 12 9 40 -30 84 l-40 43 -65 -12 c-36 -7
-81 -9 -101 -6 -19 4 -41 3 -47 -2 -19 -16 -107 -19 -107 -5 0 7 -9 17 -19 23
-11 5 -22 18 -25 28 -11 33 -48 46 -92 31 -22 -7 -45 -17 -51 -22 -8 -6 -24
-5 -43 3 -25 10 -34 10 -55 -4 -14 -9 -32 -29 -42 -44 -34 -54 -56 -72 -89
-72 -31 0 -33 2 -39 43 -3 23 -7 87 -9 142 -2 63 -9 115 -20 141 -17 40 -16
41 12 102 17 34 35 69 42 77 7 9 10 31 6 57 -3 24 -5 46 -5 51 -1 4 -7 7 -15
7 -15 0 -46 41 -46 62 -1 21 -45 65 -88 87 -48 25 -104 27 -122 6 -17 -21 -48
-19 -115 7 -38 14 -54 25 -50 35 3 7 8 20 11 28 5 12 -3 15 -38 15 -24 0 -49
-5 -55 -11 -8 -8 -17 -8 -31 0 -22 12 -92 15 -92 4z m-285 -1003 c3 -6 0 -12
-7 -14 -18 -6 -862 -76 -915 -76 -46 0 -67 17 -31 24 13 3 97 10 188 16 148 9
325 23 625 49 55 4 108 9 117 10 9 0 20 -4 23 -9z m50 -97 c13 -21 21 -41 17
-45 -4 -4 -40 -14 -81 -23 -88 -18 -91 -20 -91 -49 0 -21 -6 -24 -56 -29 -30
-3 -61 -10 -67 -15 -7 -6 -30 -13 -52 -17 -22 -4 -49 -12 -60 -18 -28 -14 -75
-59 -75 -72 0 -6 -60 -42 -134 -79 l-135 -68 -33 37 c-69 78 -208 300 -208
332 0 10 108 21 420 44 203 14 394 31 405 34 6 2 36 4 67 4 55 1 58 0 83 -36z"/>
<path d="M16 3275 c-14 -22 -16 -91 -16 -657 0 -694 -4 -657 56 -538 25 50 26
51 45 34 21 -19 24 -13 9 16 -7 13 -6 26 4 44 l13 27 9 -23 c6 -18 8 -10 11
33 3 44 -3 76 -27 144 -31 91 -35 140 -21 229 7 41 16 57 57 95 27 26 60 53
73 62 l25 15 -20 27 c-10 14 -32 31 -49 37 -42 14 -77 62 -115 156 -17 43 -39
94 -48 112 -16 32 -16 34 2 48 25 18 29 46 12 69 -11 15 -11 23 0 44 26 50 10
72 -20 26z"/>
<path d="M1 543 l-1 -543 65 0 c52 0 65 3 65 15 0 9 7 26 15 39 14 21 13 39
-10 192 -14 93 -35 212 -46 264 -11 52 -33 192 -49 310 -15 118 -30 226 -33
240 -2 14 -5 -219 -6 -517z"/>
</g>
</svg>
