<?xml version="1.0" standalone="no"?>
<!DOCTYPE svg PUBLIC "-//W3C//DTD SVG 20010904//EN"
 "http://www.w3.org/TR/2001/REC-SVG-20010904/DTD/svg10.dtd">
<svg version="1.0" xmlns="http://www.w3.org/2000/svg"
 width="480.000000pt" height="360.000000pt" viewBox="0 0 480.000000 360.000000"
 preserveAspectRatio="xMidYMid meet">
<metadata>
Created by potrace 1.16, written by Peter Selinger 2001-2019
</metadata>
<rect width="1" height="360" fill="#000000"/>
<rect x="479" width="1" height="360" fill="#000000"/>
<rect width="480" height="1" fill="#000000"/>
<rect y="359" width="480" height="1" fill="#000000"/>
<g transform="translate(0.000000,360.000000) scale(0.100000,-0.100000)"
fill="#000000" stroke="none">
<path d="M0 1800 l0 -1800 793 0 792 1 -86 33 c-181 69 -338 174 -424 283 -48
62 -85 160 -85 226 1 154 126 313 340 430 75 41 210 97 290 120 104 30 205 55
249 62 24 4 62 15 85 25 37 16 77 18 406 18 256 -1 372 3 387 11 12 6 44 11
71 11 43 0 56 -5 92 -35 23 -19 60 -39 83 -45 216 -56 290 -82 420 -147 169
-84 295 -195 346 -303 19 -41 27 -75 29 -137 4 -71 1 -89 -22 -138 -63 -139
-208 -263 -411 -352 -49 -21 -101 -44 -115 -50 -19 -9 173 -12 768 -12 l792
-1 0 1800 0 1800 -2400 0 -2400 0 0 -1800z m2679 394 c35 -45 24 -92 -29 -119
-40 -20 -53 -19 -84 10 -55 51 -19 135 60 135 23 0 38 -7 53 -26z m-519 -19
c40 -43 25 -112 -30 -135 -87 -36 -147 81 -73 140 35 27 74 25 103 -5z m997
-7 c29 -27 30 -76 2 -112 -45 -57 -139 -19 -139 56 0 66 88 102 137 56z
m-1502 -40 c28 -13 55 -55 55 -86 0 -11 -9 -31 -21 -46 -17 -21 -29 -26 -65
-26 -41 0 -45 2 -65 41 -18 35 -19 45 -8 70 12 31 44 59 66 59 7 0 24 -5 38
-12z m1936 -57 c20 -20 29 -39 29 -61 0 -43 -47 -90 -90 -90 -69 0 -108 91
-62 144 39 43 84 46 123 7z m-2346 -47 c52 -34 53 -113 1 -147 -45 -30 -100
-16 -129 33 -24 41 -21 68 12 101 34 33 78 38 116 13z m2686 -80 c17 -8 37
-30 45 -50 12 -29 12 -39 0 -67 -29 -70 -102 -87 -155 -37 -43 42 -44 99 -2
141 33 33 67 37 112 13z m-3031 -79 c66 -34 80 -106 31 -156 -24 -24 -38 -29
-76 -29 l-47 0 26 -31 c36 -43 35 -91 -3 -129 -39 -40 -73 -46 -122 -24 -41
18 -69 56 -69 94 0 61 65 117 126 107 l33 -6 -20 32 c-10 18 -19 40 -19 50 0
32 28 74 62 90 41 20 42 20 78 2z m3224 -100 c37 -18 66 -61 66 -99 0 -42 -57
-96 -108 -103 l-42 -6 24 -24 c70 -70 13 -183 -91 -183 -38 0 -50 5 -79 34
-38 38 -45 86 -19 135 16 32 86 65 116 56 24 -8 24 0 -1 32 -49 63 4 167 88
172 8 1 28 -6 46 -14z m-3140 -289 c31 -29 36 -40 36 -79 0 -36 -6 -51 -28
-75 -96 -103 -251 4 -187 128 21 41 53 60 102 60 34 0 48 -6 77 -34z m2636
-116 c33 -23 60 -73 60 -109 0 -33 -39 -88 -73 -104 -59 -27 -72 -28 -117 -5
-84 43 -111 140 -55 199 17 17 39 35 50 40 32 14 101 4 135 -21z m-2218 -57
c103 -98 -3 -287 -121 -217 -91 54 -91 177 2 235 40 25 81 19 119 -18z"/>
<path d="M2223 1100 c-39 -4 -76 -11 -82 -14 -6 -4 -14 -25 -17 -47 -21 -127
-172 -155 -218 -39 l-15 38 -42 -9 c-120 -27 -294 -125 -382 -214 -166 -170
-122 -378 113 -530 453 -293 1356 -257 1716 68 83 76 129 173 121 256 -13 139
-111 252 -299 345 -139 69 -173 77 -194 47 -36 -51 -115 -65 -172 -31 -34 21
-72 74 -72 101 0 12 -13 18 -42 23 -77 11 -341 15 -415 6z"/>
</g>
</svg>
