<?xml version="1.0" standalone="no"?>
<!DOCTYPE svg PUBLIC "-//W3C//DTD SVG 20010904//EN"
 "http://www.w3.org/TR/2001/REC-SVG-20010904/DTD/svg10.dtd">
<svg version="1.0" xmlns="http://www.w3.org/2000/svg"
 width="480.000000pt" height="360.000000pt" viewBox="0 0 480.000000 360.000000"
 preserveAspectRatio="xMidYMid meet">
<metadata>
Created by potrace 1.16, written by Peter Selinger 2001-2019
</metadata>
<rect width="1" height="360" fill="#000000"/>
<rect x="479" width="1" height="360" fill="#000000"/>
<rect width="480" height="1" fill="#000000"/>
<rect y="359" width="480" height="1" fill="#000000"/>
<g transform="translate(0.000000,360.000000) scale(0.100000,-0.100000)"
fill="#000000" stroke="none">
<path d="M0 1800 l0 -1800 1073 0 1074 0 16 113 c10 61 14 130 11 152 -20 144
-32 193 -74 314 -66 189 -77 256 -57 355 9 42 27 102 41 133 14 30 26 73 26
94 0 25 13 65 35 109 19 38 35 72 35 74 0 3 -16 6 -36 8 l-36 3 63 53 c68 57
88 88 89 139 0 23 13 48 48 90 47 57 49 60 61 160 14 107 11 133 -12 133 -8 0
-22 18 -32 41 -10 22 -26 46 -34 52 -21 16 -57 67 -65 94 -4 12 -23 33 -42 48
l-35 27 31 34 c16 19 30 37 30 40 0 10 -44 43 -57 44 -7 0 -13 -4 -13 -10 0
-22 -18 -8 -28 23 -10 26 -11 27 -7 5 12 -63 -28 -16 -60 71 l-14 36 -1 -35
-2 -35 -13 40 c-8 22 -14 56 -14 76 -1 49 -12 55 -29 17 -25 -54 -26 -8 -3 80
46 179 126 320 217 382 128 88 330 151 489 153 175 2 267 -40 422 -189 56 -54
89 -95 103 -129 49 -113 89 -258 110 -401 19 -133 21 -185 19 -484 -2 -282 1
-366 19 -531 33 -304 45 -530 39 -699 -8 -228 5 -407 37 -511 14 -46 31 -103
36 -126 l11 -43 664 0 665 0 0 1800 0 1800 -2400 0 -2400 0 0 -1800z"/>
<path d="M2205 2310 c3 -5 8 -10 11 -10 2 0 4 5 4 10 0 6 -5 10 -11 10 -5 0
-7 -4 -4 -10z"/>
</g>
</svg>
