<?xml version="1.0" standalone="no"?>
<!DOCTYPE svg PUBLIC "-//W3C//DTD SVG 20010904//EN"
 "http://www.w3.org/TR/2001/REC-SVG-20010904/DTD/svg10.dtd">
<svg version="1.0" xmlns="http://www.w3.org/2000/svg"
 width="480.000000pt" height="360.000000pt" viewBox="0 0 480.000000 360.000000"
 preserveAspectRatio="xMidYMid meet">
<metadata>
Created by potrace 1.16, written by Peter Selinger 2001-2019
</metadata>
<rect width="1" height="360" fill="#000000"/>
<rect x="479" width="1" height="360" fill="#000000"/>
<rect width="480" height="1" fill="#000000"/>
<rect y="359" width="480" height="1" fill="#000000"/>
<g transform="translate(0.000000,360.000000) scale(0.100000,-0.100000)"
fill="#000000" stroke="none">
<path d="M0 1800 l0 -1800 913 0 912 0 29 78 c89 242 124 351 187 572 64 227
108 350 173 490 33 70 32 81 -4 102 -37 21 -58 72 -61 143 -2 43 -8 62 -26 81
-38 41 -27 105 27 151 28 23 30 28 24 77 -4 36 -1 63 10 90 19 47 15 56 -30
56 -73 0 -223 67 -208 92 4 7 2 8 -5 4 -6 -4 -19 -2 -27 5 -12 10 -12 14 -2
20 10 6 6 15 -13 36 -39 43 -76 103 -100 161 -26 62 -55 71 -109 32 -14 -10
-41 -21 -60 -25 -68 -12 -107 54 -139 235 l-20 114 25 34 c38 49 105 95 234
160 127 65 253 116 324 132 25 5 119 14 208 20 192 11 187 9 270 130 87 128
165 217 211 244 61 36 153 56 251 56 67 0 86 3 86 14 0 16 -21 26 -56 26 -29
0 -31 11 -4 28 11 6 17 18 14 26 -4 10 6 20 29 29 29 13 34 19 30 41 -4 19 3
35 24 59 16 18 34 32 39 30 9 -3 34 37 34 52 0 3 -718 5 -1595 5 l-1595 0 0
-1800z"/>
<path d="M3221 3564 c-7 -24 -7 -43 -1 -55 15 -28 12 -54 -10 -82 l-20 -26 20
-6 c20 -6 25 -20 33 -82 3 -29 1 -31 -22 -27 -86 17 -90 -7 -8 -41 113 -46
194 -120 222 -204 8 -25 24 -120 35 -211 27 -217 27 -216 225 -334 229 -137
349 -269 415 -456 12 -36 26 -70 31 -76 17 -21 59 -145 59 -173 0 -15 -9 -36
-20 -46 -11 -10 -20 -24 -20 -31 0 -6 -15 -28 -32 -47 -18 -19 -51 -56 -72
-82 -22 -26 -55 -54 -73 -62 -31 -12 -42 -11 -114 8 -46 12 -104 37 -138 59
-58 38 -81 60 -62 60 5 0 11 -6 14 -12 2 -7 8 -10 12 -6 12 12 -38 69 -55 62
-8 -4 -31 -10 -50 -14 -19 -4 -84 -28 -145 -52 -139 -56 -215 -73 -303 -65
-76 8 -220 43 -240 60 -42 35 42 -268 133 -478 24 -55 53 -134 64 -175 38
-136 24 -146 -37 -28 -24 46 -40 74 -36 63 30 -94 75 -397 73 -495 -1 -55 -1
-55 -12 -20 -10 31 -12 19 -19 -100 -4 -74 -3 -152 2 -175 7 -34 7 -37 -4 -22
-12 16 -14 14 -20 -20 -4 -21 -10 -47 -13 -57 -5 -19 -6 -19 -19 -1 -8 10 -14
31 -14 47 0 17 -5 28 -14 28 -16 0 -28 -34 -16 -47 4 -4 18 -38 30 -75 l24
-68 888 0 888 0 0 1800 0 1800 -785 0 -784 0 -10 -36z"/>
<path d="M1603 2435 c28 -25 47 -32 47 -17 0 5 -17 16 -37 25 l-38 17 28 -25z"/>
<path d="M1520 2429 c0 -6 7 -39 16 -73 19 -75 59 -146 82 -146 9 0 35 15 56
34 39 32 39 34 30 77 -8 40 -12 44 -44 50 -41 6 -91 31 -109 53 -16 19 -31 21
-31 5z"/>
<path d="M1820 2199 c0 -31 72 -141 127 -196 68 -68 138 -109 202 -119 48 -8
47 -10 29 96 -11 65 -11 71 7 85 11 8 22 14 25 15 17 0 34 -23 40 -56 7 -36 8
-34 9 22 1 51 -2 63 -16 67 -10 3 -38 13 -63 22 -63 24 -181 51 -273 64 -95
13 -87 13 -87 0z"/>
<path d="M2875 1809 c4 -51 9 -98 12 -106 7 -19 85 -57 157 -78 61 -18 54 -18
261 16 105 17 215 58 215 79 0 24 -13 33 -110 70 -196 75 -346 110 -479 110
l-64 0 8 -91z"/>
<path d="M3843 1792 c-47 -17 -127 -65 -138 -82 -8 -13 79 -97 124 -120 31
-15 61 -22 104 -21 58 0 61 1 99 43 55 62 68 89 61 132 -7 47 -24 55 -120 62
-61 4 -90 1 -130 -14z"/>
</g>
</svg>
