<?xml version="1.0" standalone="no"?>
<!DOCTYPE svg PUBLIC "-//W3C//DTD SVG 20010904//EN"
 "http://www.w3.org/TR/2001/REC-SVG-20010904/DTD/svg10.dtd">
<svg version="1.0" xmlns="http://www.w3.org/2000/svg"
 width="480.000000pt" height="360.000000pt" viewBox="0 0 480.000000 360.000000"
 preserveAspectRatio="xMidYMid meet">
<metadata>
Created by potrace 1.16, written by Peter Selinger 2001-2019
</metadata>
<rect width="1" height="360" fill="#000000"/>
<rect x="479" width="1" height="360" fill="#000000"/>
<rect width="480" height="1" fill="#000000"/>
<rect y="359" width="480" height="1" fill="#000000"/>
<g transform="translate(0.000000,360.000000) scale(0.100000,-0.100000)"
fill="#000000" stroke="none">
<path d="M0 3140 c0 -294 4 -460 10 -460 20 0 146 -130 172 -178 15 -27 32
-76 39 -109 10 -51 10 -67 -3 -106 -18 -55 -33 -39 147 -161 72 -48 153 -106
180 -127 60 -47 236 -166 257 -174 11 -4 19 3 26 24 9 24 7 32 -9 47 -16 14
-18 26 -13 83 6 71 9 77 38 83 35 6 29 27 -12 37 -69 19 -121 104 -105 171 7
27 102 212 114 220 4 3 20 34 37 70 25 55 29 78 29 145 0 105 31 213 78 273
19 25 35 52 35 60 0 20 -55 114 -80 137 -24 21 -26 43 -5 51 34 13 2 20 -51
11 -49 -8 -63 -7 -103 11 -25 12 -62 23 -81 27 -40 6 -71 36 -119 113 -19 29
-42 57 -51 62 -10 6 -26 28 -36 49 -10 23 -35 52 -61 70 l-44 31 -194 0 -195
0 0 -460z"/>
<path d="M3329 3583 c22 -15 32 -15 130 -1 l106 15 -130 2 c-123 1 -128 0
-106 -16z"/>
<path d="M3840 3580 l-65 -16 38 -8 c20 -4 70 -23 110 -42 70 -35 74 -35 167
-30 67 3 85 2 60 -4 -19 -5 -56 -10 -82 -12 -27 -1 -48 -6 -48 -10 0 -4 5 -8
12 -8 6 0 9 -3 6 -6 -4 -3 -16 0 -28 6 -16 9 -43 9 -104 1 -44 -6 -121 -13
-169 -17 -49 -3 -86 -8 -84 -10 2 -3 51 -11 108 -19 155 -21 313 -45 324 -50
6 -2 -66 -2 -160 1 l-170 4 100 -50 c102 -51 217 -135 257 -186 21 -25 14 -23
-74 24 -52 29 -102 52 -109 52 -8 0 11 -12 41 -28 59 -29 214 -141 206 -149
-2 -3 -42 11 -88 30 -46 19 -91 37 -100 41 -34 11 -18 -4 32 -29 28 -14 50
-27 50 -30 0 -2 -30 7 -67 22 -180 68 -283 97 -283 78 0 -3 11 -28 25 -55 14
-28 23 -50 20 -50 -4 0 -24 14 -46 32 -21 17 -42 29 -45 25 -3 -3 15 -34 42
-69 45 -59 37 -58 -25 2 -14 14 -37 34 -50 45 -21 18 -24 18 -18 2 6 -16 4
-16 -30 -2 -20 9 -42 20 -50 26 -9 8 -13 8 -13 1 0 -6 5 -14 11 -18 6 -3 21
-27 33 -53 11 -25 34 -63 49 -83 16 -20 26 -41 23 -46 -3 -5 2 -21 10 -36 7
-16 14 -33 14 -38 0 -9 -28 31 -103 149 -25 40 -136 122 -164 123 -19 0 -158
47 -192 64 -16 9 -40 16 -51 16 -19 0 -21 -4 -15 -32 4 -18 13 -44 20 -58 7
-14 13 -37 13 -52 0 -23 -3 -26 -19 -18 -10 6 -21 15 -24 20 -3 6 -10 10 -15
10 -5 0 5 -26 22 -58 25 -46 41 -63 78 -81 25 -13 57 -31 71 -42 l24 -19 -72
0 -73 0 -1 -42 c-1 -42 -16 -115 -18 -90 0 6 -8 12 -16 12 -8 0 -12 6 -9 14 3
8 -2 31 -11 51 l-18 36 -86 -2 c-62 -2 -95 2 -116 14 -17 8 -60 20 -95 27 -36
6 -76 16 -89 23 -19 9 -25 9 -28 0 -3 -10 -10 -9 -27 2 -12 8 -47 23 -77 34
-29 10 -63 22 -74 26 -12 4 -7 -2 10 -14 34 -24 140 -74 151 -71 4 1 10 -3 13
-8 7 -11 253 -83 351 -102 36 -7 69 -16 73 -20 4 -4 -54 -10 -130 -14 -76 -4
-156 -10 -178 -14 l-39 -7 49 -32 c66 -43 169 -115 223 -155 36 -27 55 -34
110 -38 l67 -5 32 -95 c17 -52 36 -113 42 -136 l11 -42 157 -6 c87 -4 165 -10
173 -15 32 -17 21 -396 -15 -533 l-14 -50 34 -14 c19 -8 36 -14 39 -14 2 0 57
-25 122 -56 158 -74 195 -83 834 -185 69 -10 137 -22 153 -25 l27 -6 0 1156 0
1156 -447 -1 c-385 -1 -457 -4 -513 -19z m-161 -724 c-3 -3 -11 5 -18 17 -13
21 -12 21 5 5 10 -10 16 -20 13 -22z"/>
<path d="M3284 3575 c11 -8 27 -15 35 -15 13 1 12 4 -3 15 -11 8 -27 15 -35
15 -13 -1 -12 -4 3 -15z"/>
<path d="M3711 3498 c24 -24 57 -31 118 -23 47 6 52 9 33 16 -13 5 -56 12 -95
16 -64 6 -70 5 -56 -9z"/>
<path d="M3560 3469 c-11 -7 -1 -8 35 -3 28 4 52 8 54 10 10 9 -76 3 -89 -7z"/>
<path d="M3055 3144 c61 -60 111 -108 113 -108 6 3 -50 103 -64 115 -8 6 -14
17 -14 23 0 9 -88 58 -135 75 -5 2 40 -46 100 -105z"/>
<path d="M2890 3160 c8 -5 20 -10 25 -10 6 0 3 5 -5 10 -8 5 -19 10 -25 10 -5
0 -3 -5 5 -10z"/>
<path d="M2286 2538 c4 -13 25 -61 47 -108 81 -174 100 -218 144 -335 24 -66
50 -126 58 -134 19 -20 45 -6 45 24 0 14 7 42 15 62 8 19 15 42 15 50 0 8 6
29 14 46 36 79 64 165 64 198 0 43 -5 47 -128 84 -47 15 -92 30 -100 35 -8 5
-48 25 -87 44 -40 19 -73 40 -73 46 0 5 -5 10 -11 10 -6 0 -8 -9 -3 -22z"/>
<path d="M0 1271 l0 -589 104 -7 c115 -8 164 -1 173 23 7 19 10 23 80 102 27
30 84 96 126 145 43 50 84 97 91 105 7 8 21 29 30 47 9 18 25 37 35 42 10 6
24 25 30 42 6 17 22 44 36 61 32 37 32 53 -1 75 -30 22 -109 85 -143 116 -14
12 -39 33 -57 47 -96 76 -152 119 -195 150 -113 81 -172 128 -226 178 -31 28
-63 52 -70 52 -11 0 -13 -108 -13 -589z"/>
<path d="M1403 1609 c-6 -8 -24 -42 -41 -76 -37 -75 -111 -184 -162 -238 -56
-59 -191 -241 -238 -320 -35 -60 -44 -85 -57 -172 -8 -57 -15 -105 -15 -108 0
-8 65 -6 76 3 5 5 34 14 66 21 31 7 67 22 80 34 13 12 42 35 64 52 59 45 267
252 327 325 78 97 125 168 126 191 1 9 -6 19 -14 23 -8 3 -15 12 -15 20 0 7
-7 16 -15 19 -8 4 -23 23 -35 44 -11 21 -42 65 -68 99 -26 33 -52 69 -57 79
-9 14 -12 15 -22 4z"/>
<path d="M3481 1242 c-15 -43 -17 -58 -8 -64 24 -16 223 -76 287 -87 36 -6
145 -15 243 -21 218 -12 234 -12 221 -1 -14 13 -645 220 -686 225 -35 4 -36 4
-57 -52z"/>
<path d="M0 136 l0 -136 349 0 349 0 14 22 c14 21 13 25 -28 66 -24 24 -44 50
-44 57 0 7 -23 30 -51 50 l-51 36 -22 -20 c-31 -29 -45 -26 -58 10 -10 28 -13
30 -44 24 -19 -3 -42 -2 -51 3 -10 5 -96 13 -190 17 l-173 7 0 -136z"/>
</g>
</svg>
