<?xml version="1.0" standalone="no"?>
<!DOCTYPE svg PUBLIC "-//W3C//DTD SVG 20010904//EN"
 "http://www.w3.org/TR/2001/REC-SVG-20010904/DTD/svg10.dtd">
<svg version="1.0" xmlns="http://www.w3.org/2000/svg"
 width="480.000000pt" height="360.000000pt" viewBox="0 0 480.000000 360.000000"
 preserveAspectRatio="xMidYMid meet">
<metadata>
Created by potrace 1.16, written by Peter Selinger 2001-2019
</metadata>
<rect width="1" height="360" fill="#000000"/>
<rect x="479" width="1" height="360" fill="#000000"/>
<rect width="480" height="1" fill="#000000"/>
<rect y="359" width="480" height="1" fill="#000000"/>
<g transform="translate(0.000000,360.000000) scale(0.100000,-0.100000)"
fill="#000000" stroke="none">
<path d="M0 1800 l0 -1800 320 0 c176 0 320 2 320 4 0 2 -21 40 -46 83 -190
319 -304 747 -360 1343 -13 138 -14 221 -8 390 4 118 8 242 8 274 l1 59 -45
16 c-24 9 -61 32 -82 52 -33 31 -38 42 -38 81 0 56 28 99 93 144 116 80 189
45 116 -54 -17 -24 -29 -46 -25 -49 3 -4 113 -10 244 -15 372 -15 523 2 667
74 65 33 163 64 250 80 87 16 537 16 610 1 46 -10 50 -10 64 10 8 12 30 38 49
56 56 58 54 104 -4 91 -19 -5 -43 -7 -52 -5 -9 2 -24 4 -33 4 -24 1 -31 29
-14 55 9 13 42 44 75 69 33 26 62 57 64 69 3 13 8 73 11 133 l7 110 52 50 c28
28 79 63 111 79 33 16 69 34 79 39 58 28 166 57 216 57 63 0 74 -6 172 -92
l67 -59 80 21 c199 50 231 -1 72 -115 -38 -27 -70 -53 -70 -57 -1 -4 21 -35
47 -70 57 -75 69 -94 54 -84 -14 9 -27 -13 -24 -44 3 -31 -1 -36 -60 -84 -42
-34 -46 -40 -36 -59 6 -12 20 -29 32 -38 l21 -17 -25 -29 c-32 -35 -48 -82
-56 -158 -7 -79 -26 -120 -64 -140 -18 -9 -30 -18 -28 -20 1 -1 53 -24 114
-49 94 -40 115 -45 138 -36 23 8 37 4 99 -31 40 -22 97 -51 127 -64 44 -18 57
-29 64 -53 7 -20 23 -38 50 -53 23 -12 85 -51 139 -86 98 -63 120 -72 132 -53
11 18 64 11 75 -10 6 -12 21 -20 35 -20 23 0 30 -10 26 -33 -1 -4 12 -13 29
-18 22 -8 30 -17 30 -35 0 -14 7 -27 16 -31 12 -4 14 -14 10 -36 -6 -28 2 -39
97 -136 176 -181 276 -319 441 -611 49 -85 100 -170 114 -189 28 -38 76 -61
125 -61 41 0 61 -20 87 -86 19 -48 19 -32 20 1494 l0 1542 -2400 0 -2400 0 0
-1800z"/>
<path d="M1520 2334 c-14 -2 -59 -9 -100 -15 -99 -15 -168 -41 -265 -102 -100
-63 -154 -84 -258 -100 l-82 -13 -14 -74 c-21 -115 -21 -728 0 -1045 24 -356
91 -656 204 -902 l38 -83 448 0 448 0 30 98 c17 53 46 155 66 227 84 302 110
364 231 547 153 230 155 240 134 523 -6 88 -15 246 -20 350 -5 105 -10 195
-10 200 0 6 -9 -5 -19 -24 -29 -55 -33 -20 -11 94 11 58 20 110 20 116 0 5
-12 9 -27 9 -47 0 -135 48 -193 105 l-55 55 -100 15 c-97 15 -414 28 -465 19z"/>
<path d="M2948 1995 c11 -14 18 -34 15 -44 -2 -10 4 -32 15 -50 15 -25 21 -29
30 -18 18 22 -13 112 -44 126 -36 16 -38 14 -16 -14z"/>
<path d="M3310 1805 c-13 -24 -11 -28 18 -55 18 -16 32 -35 32 -43 0 -24 -53
-89 -119 -147 -35 -30 -59 -56 -53 -58 20 -6 169 38 257 77 66 29 95 48 108
69 l18 30 -78 49 c-43 28 -99 62 -124 76 l-46 27 -13 -25z"/>
<path d="M3761 1455 c-29 -28 -36 -43 -42 -95 -4 -34 -12 -67 -19 -74 -7 -7
-82 -13 -208 -18 -128 -4 -220 -12 -262 -23 -105 -26 -162 -29 -198 -11 -30
16 -31 15 -51 -13 -12 -16 -21 -33 -21 -37 0 -4 -11 -19 -25 -34 l-24 -25 15
-98 c8 -54 19 -118 24 -142 20 -90 41 -238 55 -396 20 -227 44 -462 50 -477 3
-9 187 -12 875 -12 l870 0 0 177 c0 138 -3 174 -12 165 -21 -21 -82 -14 -124
14 -109 73 -187 176 -329 434 -173 315 -237 405 -417 588 -61 61 -114 112
-117 111 -3 0 -21 -15 -40 -34z"/>
</g>
</svg>
