<?xml version="1.0" standalone="no"?>
<!DOCTYPE svg PUBLIC "-//W3C//DTD SVG 20010904//EN"
 "http://www.w3.org/TR/2001/REC-SVG-20010904/DTD/svg10.dtd">
<svg version="1.0" xmlns="http://www.w3.org/2000/svg"
 width="480.000000pt" height="360.000000pt" viewBox="0 0 480.000000 360.000000"
 preserveAspectRatio="xMidYMid meet">
<metadata>
Created by potrace 1.16, written by Peter Selinger 2001-2019
</metadata>
<rect width="1" height="360" fill="#000000"/>
<rect x="479" width="1" height="360" fill="#000000"/>
<rect width="480" height="1" fill="#000000"/>
<rect y="359" width="480" height="1" fill="#000000"/>
<g transform="translate(0.000000,360.000000) scale(0.100000,-0.100000)"
fill="#000000" stroke="none">
<path d="M1990 3519 c-87 -15 -120 -28 -120 -49 0 -9 -7 -24 -16 -31 -16 -13
-16 -19 0 -151 1 -10 5 -20 8 -24 4 -3 4 -21 1 -39 -3 -18 -1 -35 5 -39 6 -3
8 -14 6 -24 -3 -9 3 -35 12 -57 10 -22 17 -45 16 -51 -1 -6 6 -19 17 -28 19
-17 32 -16 124 10 15 5 17 1 11 -23 -4 -15 -23 -52 -42 -81 -52 -83 -64 -116
-50 -146 9 -21 21 -27 60 -32 38 -5 52 -12 58 -28 51 -122 130 -332 130 -342
0 -2 -25 -4 -56 -4 l-56 0 21 -34 c12 -18 21 -37 21 -42 0 -5 -23 -22 -51 -39
-58 -34 -105 -84 -125 -130 -7 -18 -18 -72 -24 -121 -19 -161 -15 -151 -72
-159 -28 -4 -58 -15 -69 -26 -18 -18 -18 -20 13 -83 l31 -64 -33 -119 c-18
-65 -48 -152 -67 -195 -18 -42 -33 -79 -33 -82 0 -3 -38 -82 -85 -176 l-85
-171 25 -71 c14 -39 27 -73 29 -75 2 -2 -2 -28 -10 -56 -18 -68 -18 -94 3
-157 11 -34 24 -56 39 -62 18 -8 26 -24 34 -67 6 -31 17 -83 25 -116 15 -60
15 -60 -23 -195 l-39 -135 745 -3 c410 -1 747 0 749 2 3 3 -37 113 -69 186
-80 190 -145 366 -178 490 -28 106 -56 184 -90 253 -38 75 -48 103 -39 113 7
8 7 19 1 31 -5 10 -7 32 -5 49 3 17 0 87 -6 157 -12 135 -5 190 38 322 13 40
21 104 26 195 6 127 16 176 28 134 3 -11 13 -52 22 -92 17 -70 17 -74 0 -86
-10 -7 -15 -18 -12 -23 4 -6 0 -16 -8 -23 -21 -17 -20 -21 19 -71 l33 -44 7
-275 c6 -267 19 -407 51 -547 48 -210 142 -421 285 -637 l91 -136 86 0 86 0
-5 78 c-3 42 -18 119 -32 170 -22 74 -25 96 -16 107 21 25 7 188 -22 274 l-25
73 33 31 c19 16 34 36 34 43 0 7 -50 138 -110 291 -80 200 -120 318 -145 421
-19 79 -35 151 -35 161 0 11 11 43 25 73 34 72 32 78 -15 78 -40 0 -60 18 -60
54 0 8 -5 27 -11 43 -7 15 -13 38 -15 51 -1 13 -7 29 -12 35 -5 7 -15 37 -22
67 -7 30 -21 69 -31 86 -22 36 -24 81 -8 139 10 34 13 37 20 20 l8 -20 0 20
c1 18 -24 146 -45 230 l-7 30 23 -28 c12 -15 24 -26 26 -24 2 2 -14 51 -36
110 -46 121 -46 121 -24 173 12 29 15 56 10 110 l-5 70 28 -4 c22 -3 35 3 55
24 14 16 26 36 26 46 0 9 4 19 9 22 5 3 16 29 25 58 25 79 66 191 77 210 13
25 10 48 -10 83 -58 100 -531 98 -531 -2 0 -19 -10 -16 -38 9 -32 31 -162 39
-211 14 -25 -13 -31 -14 -31 -3 0 68 -230 124 -390 96z"/>
</g>
</svg>
