<?xml version="1.0" standalone="no"?>
<!DOCTYPE svg PUBLIC "-//W3C//DTD SVG 20010904//EN"
 "http://www.w3.org/TR/2001/REC-SVG-20010904/DTD/svg10.dtd">
<svg version="1.0" xmlns="http://www.w3.org/2000/svg"
 width="480.000000pt" height="360.000000pt" viewBox="0 0 480.000000 360.000000"
 preserveAspectRatio="xMidYMid meet">
<metadata>
Created by potrace 1.16, written by Peter Selinger 2001-2019
</metadata>
<rect width="1" height="360" fill="#000000"/>
<rect x="479" width="1" height="360" fill="#000000"/>
<rect width="480" height="1" fill="#000000"/>
<rect y="359" width="480" height="1" fill="#000000"/>
<g transform="translate(0.000000,360.000000) scale(0.100000,-0.100000)"
fill="#000000" stroke="none">
<path d="M2223 3381 c-26 -21 -70 -62 -98 -90 l-49 -51 12 -57 c7 -32 15 -68
18 -79 5 -18 -7 -32 -63 -77 -91 -72 -131 -119 -165 -194 -52 -114 -76 -274
-44 -286 8 -3 17 -19 21 -36 4 -17 10 -31 14 -31 4 0 15 -25 26 -56 10 -31 25
-58 32 -61 7 -3 15 -14 18 -25 5 -13 14 -18 29 -16 13 1 30 -3 39 -10 8 -7 29
-17 46 -22 29 -8 31 -7 31 18 1 26 1 26 15 8 23 -30 18 -69 -15 -114 l-30 -42
23 -14 c12 -8 33 -17 45 -21 14 -4 30 -21 38 -41 8 -19 18 -34 22 -34 8 0 72
-62 99 -98 11 -14 31 -24 53 -26 19 -2 46 -8 60 -14 21 -8 27 -6 36 11 8 14
13 16 19 7 6 -9 9 -9 15 0 4 6 10 -7 13 -32 5 -37 3 -46 -16 -62 -12 -10 -48
-41 -81 -70 -64 -56 -74 -62 -128 -71 -29 -4 -44 -15 -63 -43 -14 -20 -25 -48
-25 -62 0 -17 -13 -38 -36 -61 -54 -51 -74 -101 -74 -188 0 -64 -5 -84 -36
-148 -19 -40 -46 -90 -60 -110 l-24 -36 -26 59 c-14 33 -39 92 -55 132 -16 40
-41 95 -54 123 -14 27 -32 79 -41 116 -18 82 -41 156 -62 201 -20 44 -16 46
116 61 156 18 285 40 297 52 7 7 -66 10 -235 8 l-245 -2 -45 26 c-25 14 -66
31 -92 37 -42 11 -50 10 -75 -7 -15 -10 -41 -25 -58 -32 -16 -7 -35 -21 -43
-32 -8 -12 -25 -19 -46 -19 -34 0 -38 5 -111 145 -14 27 -76 30 -150 6 -48
-15 -63 -17 -75 -7 -16 13 -63 13 -91 2 -12 -5 -16 -18 -15 -44 2 -36 19 -68
149 -292 41 -70 50 -93 48 -127 -1 -26 10 -78 29 -132 16 -48 30 -97 30 -108
0 -10 9 -36 19 -57 11 -21 23 -51 26 -67 7 -31 32 -52 75 -64 14 -4 61 -31
105 -60 44 -29 119 -78 168 -109 55 -35 87 -62 87 -73 1 -51 47 -114 197 -264
151 -153 155 -158 148 -190 -4 -19 -20 -53 -36 -76 -35 -50 -59 -104 -59 -133
0 -11 7 -37 17 -58 9 -20 15 -43 14 -49 -1 -10 139 -13 674 -13 409 0 675 4
675 9 0 5 -26 37 -58 70 -47 50 -63 61 -90 61 -26 0 -35 5 -43 28 -18 45 -23
384 -8 487 19 131 18 179 -5 204 -23 25 -62 27 -87 5 -15 -14 -17 -34 -12
-212 3 -108 1 -222 -4 -252 l-9 -55 -38 99 c-32 82 -37 106 -32 145 7 52 58
324 61 329 1 1 33 -2 70 -8 37 -6 88 -8 112 -4 37 5 44 10 40 25 -5 17 1 19
50 19 49 0 54 2 48 20 -6 18 0 19 66 22 l72 3 15 53 c15 52 32 70 32 32 0 -11
5 -20 10 -20 6 0 10 -14 10 -32 0 -30 0 -31 20 -13 20 18 20 18 5 -31 -17 -56
-45 -170 -45 -185 0 -6 5 -7 10 -4 6 3 10 -4 10 -16 0 -22 1 -22 30 6 l30 28
-9 -31 c-17 -57 -24 -162 -12 -162 6 0 11 -12 11 -26 0 -20 3 -24 13 -16 10 8
12 -5 9 -65 -5 -85 9 -127 40 -117 20 6 20 6 9 -55 -7 -34 -6 -48 5 -59 12
-12 21 -8 65 24 40 29 50 33 46 18 -25 -85 -28 -107 -16 -141 8 -26 14 -32 20
-22 6 10 9 5 9 -16 l1 -30 33 39 33 38 -5 -32 c-2 -18 0 -35 6 -39 8 -5 7 -23
-2 -64 l-13 -57 548 0 549 0 0 750 0 750 -37 19 c-61 30 -127 50 -292 86 -223
49 -349 88 -461 145 -116 58 -319 282 -433 475 l-28 47 -23 -25 c-12 -13 -28
-37 -35 -53 -6 -17 -23 -37 -37 -45 -14 -8 -46 -47 -72 -86 -26 -39 -118 -147
-203 -240 -151 -162 -219 -221 -219 -190 0 7 -11 24 -25 37 -21 19 -25 33 -24
74 0 28 4 60 9 71 7 18 8 19 15 3 11 -28 22 -21 29 17 4 19 11 35 16 35 6 0
10 9 10 21 0 17 4 19 23 13 12 -4 25 -11 28 -17 4 -5 12 -6 18 -3 6 4 15 -2
19 -14 7 -18 11 -11 26 42 15 55 19 61 30 46 18 -24 26 -22 26 6 0 12 5 37 11
55 10 29 13 31 28 17 29 -26 32 -18 10 25 l-21 41 36 -4 c42 -5 43 0 16 44
-29 48 -27 70 6 62 l26 -7 -25 44 c-14 24 -28 55 -31 69 -6 23 -4 22 24 -10
16 -19 30 -31 30 -27 0 13 -50 119 -69 146 -26 37 -65 140 -101 271 -52 184
-81 236 -212 371 -87 90 -166 141 -244 155 -61 11 -70 19 -88 82 -13 48 -22
62 -44 71 -24 10 -212 51 -232 51 -5 0 -30 -17 -57 -39z m-804 -1856 c8 -17
36 -58 63 -93 34 -45 48 -72 48 -95 0 -18 7 -57 15 -87 8 -30 15 -57 15 -59 0
-3 -11 6 -25 19 -20 18 -22 26 -13 37 9 11 9 20 -2 36 -37 60 -150 261 -150
269 0 21 36 1 49 -27z m1901 -481 c0 -8 -5 -12 -10 -9 -6 4 -8 11 -5 16 9 14
15 11 15 -7z"/>
</g>
</svg>
