<?xml version="1.0" standalone="no"?>
<!DOCTYPE svg PUBLIC "-//W3C//DTD SVG 20010904//EN"
 "http://www.w3.org/TR/2001/REC-SVG-20010904/DTD/svg10.dtd">
<svg version="1.0" xmlns="http://www.w3.org/2000/svg"
 width="480.000000pt" height="360.000000pt" viewBox="0 0 480.000000 360.000000"
 preserveAspectRatio="xMidYMid meet">
<metadata>
Created by potrace 1.16, written by Peter Selinger 2001-2019
</metadata>
<rect width="1" height="360" fill="#000000"/>
<rect x="479" width="1" height="360" fill="#000000"/>
<rect width="480" height="1" fill="#000000"/>
<rect y="359" width="480" height="1" fill="#000000"/>
<g transform="translate(0.000000,360.000000) scale(0.100000,-0.100000)"
fill="#000000" stroke="none">
<path d="M0 1800 l0 -1800 929 0 929 0 18 48 c42 117 99 255 143 347 67 141
88 233 105 475 16 214 10 442 -13 525 -19 69 1 152 48 202 12 12 21 24 21 25
0 2 -27 23 -59 47 -87 63 -116 109 -116 186 0 51 4 67 26 96 l26 34 -24 19
c-22 16 -23 20 -10 33 23 23 97 54 97 41 0 -6 2 -9 5 -6 3 3 -6 52 -20 108
-27 102 -28 181 -4 195 5 4 30 -14 56 -39 l46 -45 39 44 c28 32 56 50 99 66
l59 22 0 588 0 589 -1200 0 -1200 0 0 -1800z"/>
<path d="M2480 2435 c-14 -8 -37 -14 -52 -15 l-28 0 0 -1210 0 -1210 365 0
365 0 0 48 c0 62 -27 111 -102 192 -46 48 -58 68 -58 93 0 18 -12 57 -26 87
-30 63 -54 243 -54 400 0 126 11 142 45 67 14 -32 30 -57 37 -55 6 2 25 23 42
47 l31 43 -42 37 c-38 32 -43 42 -43 77 0 23 -7 63 -15 90 -8 27 -15 52 -15
56 0 11 54 -1 137 -29 84 -28 105 -23 123 31 14 43 25 47 73 28 25 -9 60 -13
105 -10 78 5 67 14 172 -141 108 -160 109 -161 194 -202 44 -22 91 -39 104
-39 32 0 82 52 82 85 0 22 -51 96 -100 145 -7 7 -108 125 -173 202 -45 53 -57
75 -57 101 0 36 -32 87 -54 87 -14 0 -136 115 -136 128 0 17 -52 32 -110 32
-56 0 -60 -2 -75 -30 -20 -39 -19 -57 5 -82 24 -26 25 -47 5 -74 -11 -15 -17
-16 -23 -6 -6 8 -54 17 -138 24 -100 8 -155 19 -244 48 l-115 36 -6 38 c-5 33
-2 42 27 74 38 41 47 38 69 -24 8 -22 14 -31 15 -21 0 21 18 23 26 2 5 -13 8
-13 27 0 12 8 29 15 38 15 22 0 129 70 185 122 51 47 83 106 84 152 0 42 -34
107 -75 145 -29 26 -35 38 -35 72 0 45 5 43 -69 23 -23 -7 -24 -6 -17 32 4 21
9 89 13 149 5 98 4 112 -12 125 -16 13 -22 10 -62 -34 l-44 -49 -27 25 c-54
51 -80 60 -180 69 -53 5 -110 11 -127 14 -18 3 -40 -1 -55 -10z m583 -485 c35
-21 57 -56 57 -90 0 -42 -171 -170 -227 -170 -21 0 -21 0 -6 58 19 65 21 70
31 56 8 -10 58 -44 67 -44 3 0 5 7 5 15 0 8 4 15 9 15 5 0 7 8 4 19 -3 10 0
22 6 25 6 4 11 36 11 72 0 35 2 64 4 64 3 0 20 -9 39 -20z m-203 -1099 c0 -32
3 -74 6 -92 5 -24 4 -31 -4 -24 -16 15 -28 175 -13 175 7 0 11 -21 11 -59z
m-30 -63 c0 -18 3 -51 6 -73 l5 -40 -21 39 c-16 28 -20 48 -15 72 8 43 25 44
25 2z m131 -699 c30 -21 37 -43 18 -55 -13 -8 -44 23 -54 54 -8 27 -1 28 36 1z"/>
<path d="M2045 1850 c-10 -16 22 -65 60 -95 42 -31 52 -26 65 29 7 33 6 37
-20 50 -20 9 -32 10 -39 3 -7 -7 -18 -5 -35 6 -15 10 -27 13 -31 7z"/>
<path d="M2210 1740 c-15 -35 -4 -54 37 -65 43 -10 50 9 18 55 -15 22 -31 40
-35 40 -4 0 -13 -14 -20 -30z"/>
<path d="M2165 1740 c-8 -13 4 -32 16 -25 12 8 12 35 0 35 -6 0 -13 -4 -16
-10z"/>
</g>
</svg>
