<?xml version="1.0" standalone="no"?>
<!DOCTYPE svg PUBLIC "-//W3C//DTD SVG 20010904//EN"
 "http://www.w3.org/TR/2001/REC-SVG-20010904/DTD/svg10.dtd">
<svg version="1.0" xmlns="http://www.w3.org/2000/svg"
 width="480.000000pt" height="360.000000pt" viewBox="0 0 480.000000 360.000000"
 preserveAspectRatio="xMidYMid meet">
<metadata>
Created by potrace 1.16, written by Peter Selinger 2001-2019
</metadata>
<rect width="1" height="360" fill="#000000"/>
<rect x="479" width="1" height="360" fill="#000000"/>
<rect width="480" height="1" fill="#000000"/>
<rect y="359" width="480" height="1" fill="#000000"/>
<g transform="translate(0.000000,360.000000) scale(0.100000,-0.100000)"
fill="#000000" stroke="none">
<path d="M2743 3220 c-58 -12 -127 -44 -171 -78 -20 -16 -43 -27 -50 -25 -18
7 -44 -17 -37 -35 3 -8 -9 -42 -26 -77 -44 -90 -66 -280 -35 -311 10 -10 16
-10 18 -2 2 6 14 -5 27 -25 23 -38 38 -49 27 -22 -8 23 12 18 25 -6 8 -16 13
-18 19 -9 6 9 9 9 15 0 4 -6 13 -9 20 -6 14 5 14 -45 0 -77 -6 -13 -1 -20 23
-28 17 -6 34 -19 37 -30 4 -10 10 -19 14 -19 4 0 26 -16 49 -36 35 -30 47 -34
72 -29 25 5 30 3 30 -12 1 -14 4 -11 16 10 18 34 24 34 24 0 0 -20 -20 -46
-82 -107 -84 -81 -178 -191 -178 -208 0 -4 11 -1 25 8 30 20 31 15 5 -36 -39
-76 -70 -173 -70 -219 0 -25 9 -75 20 -110 11 -36 18 -67 16 -69 -2 -2 -39 14
-82 36 -44 22 -97 45 -119 51 -120 36 -153 53 -165 81 -7 16 -9 33 -6 38 3 5
-1 18 -9 28 -19 25 -19 64 1 92 12 18 13 26 4 37 -10 12 -9 15 4 15 8 0 23 11
32 25 16 25 16 27 -13 68 -16 23 -34 54 -41 70 -12 29 -33 35 -50 14 -6 -7
-23 -14 -37 -15 -40 -3 -92 -31 -110 -59 -12 -18 -19 -64 -26 -167 -5 -77 -15
-163 -21 -191 -24 -96 -8 -369 20 -341 3 4 12 -14 19 -41 12 -46 10 -53 -38
-193 -65 -188 -75 -238 -52 -256 10 -7 29 -14 42 -14 27 0 101 -30 101 -41 0
-19 99 -123 133 -141 56 -28 68 -12 36 49 -13 26 -25 51 -27 54 -4 10 45 19
128 24 49 2 78 9 89 19 22 23 17 129 -20 381 -29 198 -29 210 -13 222 10 7 21
13 26 13 4 0 50 -28 102 -62 l94 -63 7 -60 c13 -97 8 -146 -24 -277 -47 -193
-59 -256 -71 -358 -17 -148 -109 -469 -195 -682 -7 -17 32 -18 735 -18 l742 0
-29 53 c-16 28 -58 101 -92 161 -83 143 -132 248 -232 496 -98 246 -128 306
-230 471 -48 76 -79 136 -79 153 0 15 -7 43 -16 64 -21 47 -31 273 -15 315 6
16 15 25 21 22 12 -7 13 15 1 33 -13 21 9 104 35 135 13 16 24 34 24 40 0 7 5
4 11 -6 10 -17 12 -17 29 -2 11 10 24 14 31 9 36 -22 -48 291 -95 355 -30 40
-27 50 8 27 36 -23 44 -20 52 19 6 33 24 49 24 23 1 -7 9 2 19 21 13 24 20 30
24 20 4 -8 4 3 0 25 -5 36 -4 38 17 31 20 -6 22 -5 16 11 -4 11 -10 33 -13 49
-5 25 -3 28 8 18 26 -25 27 -12 3 42 -29 67 -31 80 -4 40 31 -47 23 -13 -19
82 -21 49 -47 122 -56 163 -10 41 -29 97 -42 124 -32 63 -113 149 -183 194
-48 32 -63 36 -130 38 -41 2 -94 -1 -117 -6z m444 -862 c-3 -8 -6 -5 -6 6 -1
11 2 17 5 13 3 -3 4 -12 1 -19z"/>
</g>
</svg>
