<?xml version="1.0" standalone="no"?>
<!DOCTYPE svg PUBLIC "-//W3C//DTD SVG 20010904//EN"
 "http://www.w3.org/TR/2001/REC-SVG-20010904/DTD/svg10.dtd">
<svg version="1.0" xmlns="http://www.w3.org/2000/svg"
 width="480.000000pt" height="360.000000pt" viewBox="0 0 480.000000 360.000000"
 preserveAspectRatio="xMidYMid meet">
<metadata>
Created by potrace 1.16, written by Peter Selinger 2001-2019
</metadata>
<rect width="1" height="360" fill="#000000"/>
<rect x="479" width="1" height="360" fill="#000000"/>
<rect width="480" height="1" fill="#000000"/>
<rect y="359" width="480" height="1" fill="#000000"/>
<g transform="translate(0.000000,360.000000) scale(0.100000,-0.100000)"
fill="#000000" stroke="none">
<path d="M2850 3552 c0 -64 25 -155 60 -220 19 -35 25 -54 17 -56 -208 -59
-393 -186 -498 -343 -61 -89 -84 -142 -100 -225 -14 -74 -51 -164 -81 -195
-34 -36 -14 -38 26 -2 l37 32 -7 -43 c-6 -34 -4 -41 6 -35 10 6 11 -10 7 -81
-6 -77 -5 -85 6 -61 13 28 27 27 27 -2 1 -9 7 -29 16 -46 l14 -30 -4 45 -4 45
11 -35 c7 -19 20 -48 29 -65 14 -25 17 -27 18 -10 1 19 2 18 12 -3 6 -13 17
-21 23 -18 6 2 26 -11 45 -30 18 -19 35 -33 37 -31 2 2 -4 23 -12 47 -22 61
-18 74 5 16 24 -62 40 -79 41 -46 l0 25 11 -23 c16 -32 -5 -95 -49 -143 -19
-21 -33 -45 -30 -53 3 -7 25 -24 49 -37 29 -17 45 -34 51 -54 15 -51 23 -60
55 -70 26 -7 32 -14 32 -37 0 -15 8 -33 18 -40 11 -7 31 -33 47 -57 23 -38 27
-52 22 -100 -2 -31 -8 -64 -12 -73 -5 -13 -1 -19 19 -24 27 -6 33 -27 16 -54
-6 -10 -5 -20 4 -30 8 -8 17 -42 21 -75 4 -33 13 -88 20 -123 12 -58 11 -67
-13 -145 -20 -66 -33 -91 -68 -127 l-43 -44 -28 20 c-58 43 -95 56 -137 51
-38 -6 -43 -3 -64 26 -12 18 -39 44 -61 57 -22 14 -49 42 -61 62 -12 21 -33
52 -48 70 -25 30 -27 36 -24 124 6 154 -32 277 -100 325 -38 28 -119 35 -219
22 l-67 -9 -7 50 c-6 45 -8 49 -20 33 -8 -11 -11 -33 -8 -56 l5 -38 -76 -26
c-95 -32 -171 -86 -184 -130 -47 -159 -46 -152 -29 -219 9 -35 21 -88 27 -120
13 -65 49 -123 123 -199 43 -45 64 -58 125 -77 39 -13 72 -25 72 -26 0 -2 -20
-46 -44 -97 -65 -137 -106 -321 -106 -474 0 -28 -8 -82 -19 -120 -10 -39 -22
-82 -25 -98 l-6 -27 512 2 513 3 0 82 c0 90 9 115 19 53 3 -22 11 -63 17 -90
l11 -50 700 0 699 0 -6 54 -7 55 73 21 c41 12 94 34 119 49 44 26 45 26 18 31
l-28 5 41 48 41 47 -62 0 c-58 0 -71 -5 -183 -66 -125 -69 -136 -70 -137 -17
0 13 -7 41 -16 62 -9 22 -14 46 -12 53 3 7 -4 45 -15 83 -10 39 -20 84 -23
100 -5 41 -102 414 -119 458 -8 20 19 24 32 5 4 -7 14 -13 21 -13 8 0 19 -16
26 -35 7 -19 24 -51 38 -71 13 -21 31 -51 38 -68 7 -17 16 -31 21 -31 10 0 6
71 -15 255 -21 178 -20 181 23 89 21 -45 44 -85 51 -89 10 -6 11 -4 5 11 -4
10 -11 39 -15 64 -5 25 -15 74 -23 110 -18 76 -41 270 -33 277 3 3 7 0 10 -8
51 -171 75 -238 108 -304 49 -98 89 -167 94 -162 2 2 -12 66 -32 142 -46 184
-42 202 20 100 57 -92 97 -147 103 -142 2 3 -5 56 -16 118 -15 83 -25 217 -36
486 -8 205 -22 423 -31 485 -33 241 -88 454 -160 625 -24 57 -50 133 -59 169
-35 151 -165 340 -262 382 -63 26 -155 36 -223 22 l-55 -11 -30 38 c-16 21
-59 68 -94 106 l-64 67 -249 0 -248 0 0 -48z m236 -1998 c14 -33 14 -37 -3
-50 -26 -20 -36 -17 -29 9 3 12 6 34 6 50 0 37 8 34 26 -9z"/>
</g>
</svg>
