<?xml version="1.0" standalone="no"?>
<!DOCTYPE svg PUBLIC "-//W3C//DTD SVG 20010904//EN"
 "http://www.w3.org/TR/2001/REC-SVG-20010904/DTD/svg10.dtd">
<svg version="1.0" xmlns="http://www.w3.org/2000/svg"
 width="480.000000pt" height="360.000000pt" viewBox="0 0 480.000000 360.000000"
 preserveAspectRatio="xMidYMid meet">
<metadata>
Created by potrace 1.16, written by Peter Selinger 2001-2019
</metadata>
<rect width="1" height="360" fill="#000000"/>
<rect x="479" width="1" height="360" fill="#000000"/>
<rect width="480" height="1" fill="#000000"/>
<rect y="359" width="480" height="1" fill="#000000"/>
<g transform="translate(0.000000,360.000000) scale(0.100000,-0.100000)"
fill="#000000" stroke="none">
<path d="M5 3558 c4 -24 7 -63 6 -88 -1 -25 -4 -409 -7 -854 -4 -807 -4 -808
17 -842 30 -50 66 -46 170 17 46 28 105 66 130 85 26 19 53 34 62 34 8 0 32
-21 52 -46 124 -151 332 -324 390 -324 83 0 120 117 129 414 2 81 8 152 13
156 4 4 87 13 183 20 187 12 215 20 226 66 12 47 -26 168 -121 393 -32 75 -42
109 -35 121 5 9 47 31 94 49 47 18 95 40 107 50 33 27 27 64 -21 126 -50 65
-172 182 -205 197 -13 6 -27 18 -30 26 -3 8 21 63 56 125 52 94 59 114 50 134
-6 12 -21 24 -33 27 -69 12 -280 36 -321 36 -42 0 -49 3 -57 26 -6 14 -10 41
-10 60 l0 34 -193 0 -193 0 -45 -29 c-24 -16 -73 -54 -108 -85 -70 -61 -96
-68 -129 -33 -24 25 -61 104 -62 130 0 14 -10 17 -61 17 l-62 0 8 -42z"/>
<path d="M3602 3538 c28 -90 21 -228 -16 -316 -56 -132 -180 -311 -302 -438
-67 -69 -214 -194 -324 -275 -139 -104 -157 -135 -119 -211 43 -86 176 -232
302 -331 236 -187 465 -276 727 -284 126 -4 138 -3 180 19 69 36 72 47 65 246
-6 172 -6 173 14 162 11 -5 35 -41 54 -78 76 -153 117 -213 160 -233 23 -10
59 -19 79 -19 53 0 184 44 288 96 l90 45 0 613 0 613 -87 7 c-291 24 -598 120
-785 247 -62 43 -105 90 -140 156 l-23 43 -91 0 -92 0 20 -62z"/>
<path d="M813 1388 c-150 -139 -247 -264 -295 -381 -31 -78 -30 -221 4 -349
14 -54 22 -98 18 -98 -4 0 -22 23 -40 50 -94 146 -189 239 -305 297 -65 33
-167 73 -187 73 -4 0 -8 -99 -8 -220 l0 -221 58 -57 c31 -31 91 -87 132 -124
l74 -67 -22 -24 c-25 -26 -102 -52 -189 -63 l-53 -7 0 -77 0 -77 43 8 c60 12
211 11 242 -1 15 -6 29 -19 32 -30 5 -20 15 -20 437 -20 238 0 436 4 442 9 5
5 79 11 164 14 128 4 170 9 243 31 97 29 198 77 297 140 59 39 278 201 290
215 3 3 49 35 103 70 72 48 97 69 97 85 0 35 -12 42 -95 54 -44 7 -123 19
-175 27 -339 55 -422 65 -540 65 -186 0 -324 -30 -487 -105 -42 -19 -78 -33
-80 -31 -2 2 10 30 27 62 64 124 64 232 -4 489 -72 275 -95 335 -132 335 -7 0
-48 -33 -91 -72z"/>
<path d="M3949 1355 c-26 -14 -76 -116 -93 -187 -9 -38 -33 -60 -54 -49 -39
20 -415 81 -500 81 -50 0 -62 -4 -83 -26 -23 -25 -24 -31 -29 -232 l-5 -207
-30 -3 c-65 -6 -314 -54 -380 -73 -203 -59 -265 -98 -265 -166 0 -82 144 -222
398 -388 56 -37 94 -69 98 -82 l6 -23 894 0 894 0 0 385 c0 326 -2 385 -14
385 -12 0 -13 14 -9 73 6 78 6 79 -77 295 -52 138 -62 145 -147 113 -32 -12
-89 -39 -127 -60 l-69 -39 -70 59 c-76 64 -221 144 -277 153 -22 4 -45 0 -61
-9z"/>
</g>
</svg>
