<?xml version="1.0" standalone="no"?>
<!DOCTYPE svg PUBLIC "-//W3C//DTD SVG 20010904//EN"
 "http://www.w3.org/TR/2001/REC-SVG-20010904/DTD/svg10.dtd">
<svg version="1.0" xmlns="http://www.w3.org/2000/svg"
 width="480.000000pt" height="360.000000pt" viewBox="0 0 480.000000 360.000000"
 preserveAspectRatio="xMidYMid meet">
<metadata>
Created by potrace 1.16, written by Peter Selinger 2001-2019
</metadata>
<rect width="1" height="360" fill="#000000"/>
<rect x="479" width="1" height="360" fill="#000000"/>
<rect width="480" height="1" fill="#000000"/>
<rect y="359" width="480" height="1" fill="#000000"/>
<g transform="translate(0.000000,360.000000) scale(0.100000,-0.100000)"
fill="#000000" stroke="none">
<path d="M820 3593 c1 -35 60 -55 141 -46 l57 6 -23 -49 c-25 -51 -31 -112
-27 -267 2 -85 -1 -82 60 -60 15 6 16 -56 1 -111 -8 -27 -8 -41 0 -49 17 -17
13 -41 -16 -93 -26 -46 -34 -91 -31 -169 0 -16 1 -43 2 -60 1 -16 3 -32 6 -35
4 -3 12 -24 18 -47 7 -24 17 -43 21 -43 14 0 61 41 61 53 0 7 10 17 23 22 12
6 21 16 20 22 -1 6 6 9 17 6 14 -4 20 0 20 11 0 9 7 16 15 16 20 0 58 37 78
75 11 20 16 24 17 13 0 -28 20 -21 34 12 7 17 15 27 19 23 4 -3 14 2 22 13 9
12 14 14 15 5 0 -8 6 -11 16 -7 8 3 12 2 9 -4 -3 -6 -11 -10 -16 -10 -6 0 -30
-20 -54 -45 -25 -25 -39 -41 -33 -35 15 13 41 13 33 0 -3 -5 -23 -15 -45 -21
-38 -12 -96 -59 -71 -59 6 0 14 7 17 15 4 8 13 15 21 15 8 0 12 -4 9 -9 -3 -5
4 -12 17 -16 18 -6 15 -8 -20 -14 -42 -7 -70 -21 -42 -21 44 1 143 21 149 30
4 6 6 28 4 48 -2 20 -3 41 -3 45 -1 5 -6 5 -13 1 -7 -4 -8 -3 -4 5 4 6 12 9
17 6 5 -4 9 1 9 9 0 8 4 17 8 20 4 2 7 -27 5 -65 -1 -38 0 -69 3 -69 16 0 73
37 95 62 16 17 30 25 33 19 14 -22 -109 -111 -152 -111 -21 0 -24 -2 -12 -10
8 -5 10 -10 4 -10 -5 0 -15 5 -20 10 -8 8 -19 7 -37 -1 -34 -16 -26 -27 19
-27 19 0 38 -3 41 -6 3 -3 12 -1 20 5 10 9 13 8 13 -3 0 -9 14 -14 47 -16 53
-2 83 5 83 18 0 11 45 60 54 60 4 0 1 -7 -6 -15 -32 -35 -40 -47 -35 -51 2 -2
33 2 68 11 70 16 126 19 72 4 -18 -5 -35 -14 -38 -19 -3 -6 -21 -10 -39 -10
-64 0 -128 -12 -114 -22 8 -6 4 -7 -12 -2 -14 4 -36 8 -50 10 -14 1 -58 7 -99
12 -40 6 -79 8 -86 6 -7 -3 -16 -1 -20 5 -9 16 -51 13 -64 -3 -10 -11 -8 -15
5 -18 10 -2 -12 -14 -49 -27 -51 -17 -67 -28 -67 -42 0 -21 20 -25 38 -7 10
10 19 8 43 -6 29 -17 31 -17 44 1 12 15 14 16 15 2 0 -26 -23 -39 -62 -33 -19
4 -38 2 -42 -4 -3 -6 13 -13 39 -16 24 -4 47 -12 51 -17 4 -6 11 -6 20 2 11 9
12 14 3 20 -9 5 -8 11 4 24 18 17 21 11 18 -27 -1 -9 8 -27 20 -39 16 -16 21
-18 16 -6 -4 10 -2 17 5 17 6 0 3 8 -6 19 -13 14 -14 21 -5 27 9 5 4 14 -17
31 -16 12 -24 24 -19 24 56 9 71 5 88 -17 18 -24 18 -24 -7 -34 -21 -8 -25
-15 -23 -39 2 -17 9 -37 16 -45 11 -13 16 -13 42 6 17 13 29 31 29 44 0 13 4
25 9 28 4 3 6 -5 4 -18 -3 -16 0 -24 9 -23 7 0 27 -1 43 -2 29 -3 29 -3 5 -10
-14 -4 -25 -13 -25 -21 0 -11 11 -14 45 -12 l45 2 -40 -19 c-70 -34 -71 -36
-42 -63 14 -12 34 -31 44 -40 48 -43 74 -79 112 -148 54 -100 75 -192 67 -295
-5 -72 -14 -106 -57 -210 -16 -40 -18 -64 -6 -72 6 -3 7 -1 3 5 -7 11 -3 13
37 16 16 1 30 23 22 36 -3 6 -16 10 -28 10 -17 1 -14 5 17 21 21 11 41 29 43
40 7 25 23 25 23 -1 0 -12 -12 -26 -30 -35 -17 -9 -28 -20 -25 -25 10 -16 63
-11 73 7 6 10 16 14 27 9 14 -5 15 -9 5 -21 -7 -9 -8 -15 -2 -15 10 0 35 34
60 80 12 22 11 26 -7 39 -25 16 -26 31 -5 57 15 18 15 18 10 -4 -3 -15 2 -30
15 -43 24 -24 29 -24 30 4 0 21 1 21 8 2 6 -14 11 3 16 58 12 123 33 93 26
-37 -2 -33 0 -46 8 -42 6 4 11 15 11 25 0 18 18 41 33 41 5 0 7 -9 4 -20 -3
-11 -1 -20 3 -20 18 0 25 60 14 135 -3 22 -1 58 4 80 l9 40 7 -65 c4 -36 9
-78 12 -93 6 -27 7 -28 25 -11 10 9 19 21 19 27 0 5 10 26 23 45 12 20 32 66
44 102 13 36 21 52 18 35 -4 -30 -4 -30 12 5 8 19 19 46 24 59 5 13 12 22 14
19 8 -8 -23 -87 -73 -186 -42 -85 -45 -95 -30 -106 12 -9 14 -16 6 -30 -7 -13
-7 -21 2 -26 9 -6 6 -10 -9 -15 -13 -4 -21 -9 -18 -11 2 -3 15 0 28 5 17 6 28
5 36 -4 10 -11 19 -10 47 3 41 20 46 32 14 32 -19 1 -17 4 12 18 55 27 90 42
90 38 0 -1 -16 -19 -35 -39 -33 -34 -47 -77 -25 -77 5 0 17 11 26 25 23 35 83
71 95 56 5 -6 6 -9 3 -6 -9 6 -64 -24 -64 -35 0 -6 8 -10 17 -10 14 0 15 -2 4
-12 -11 -10 -14 -10 -18 0 -3 6 -9 12 -15 12 -6 0 -8 -7 -4 -15 3 -9 0 -15 -9
-15 -8 0 -15 -4 -15 -8 0 -5 -18 -17 -40 -28 -44 -21 -49 -30 -22 -37 9 -3 4
-5 -13 -6 -38 -2 -99 -30 -147 -67 -21 -16 -49 -38 -64 -48 -25 -18 -26 -20
-8 -26 10 -4 24 -1 32 7 7 7 22 13 31 13 10 0 35 7 56 16 55 22 55 9 0 -15
-26 -11 -63 -34 -83 -50 -21 -16 -57 -35 -82 -42 -35 -10 -40 -14 -22 -17 13
-2 29 2 37 8 8 6 24 9 37 6 13 -3 17 -3 9 0 -7 4 9 14 40 25 63 22 69 22 69 9
0 -5 -6 -10 -14 -10 -8 0 -30 -9 -48 -19 -19 -11 -70 -24 -121 -30 -116 -14
-129 -25 -37 -32 l75 -5 -95 -2 c-52 -1 -134 -9 -182 -19 l-88 -16 -1 -46 c-4
-100 8 -154 56 -254 22 -47 17 -61 -11 -32 -31 31 -37 17 -31 -72 3 -49 2 -99
-2 -113 l-7 -25 -17 32 c-9 18 -17 38 -17 46 0 7 -16 18 -35 24 -20 6 -35 7
-35 2 0 -5 6 -9 14 -9 25 0 29 -21 7 -41 -11 -11 -24 -32 -27 -47 -4 -15 -11
-32 -16 -38 -5 -8 -3 -14 7 -18 8 -3 15 -17 15 -31 0 -23 -4 -25 -40 -25 l-39
0 26 -28 c51 -54 75 -137 88 -307 10 -136 15 -157 33 -150 10 4 22 8 27 9 6 1
15 5 22 9 17 11 25 -9 8 -23 -15 -13 -30 -53 -40 -112 l-6 -38 1636 0 1635 0
0 795 0 796 -32 -17 c-18 -10 -54 -32 -81 -50 -50 -34 -85 -49 -94 -41 -16 17
112 101 172 113 l35 6 0 999 0 999 -1246 0 -1246 0 -30 -25 c-16 -14 -34 -25
-39 -25 -18 0 -9 16 19 32 26 17 -11 17 -705 18 -403 0 -733 -3 -733 -7z
m2877 -175 c30 -34 55 -86 51 -111 -2 -16 -11 -23 -33 -25 -27 -3 -32 2 -52
47 -26 55 -27 65 -13 92 14 25 22 24 47 -3z m-2350 -490 c-3 -7 -5 -2 -5 12 0
14 2 19 5 13 2 -7 2 -19 0 -25z m-10 -70 c-3 -7 -5 -2 -5 12 0 14 2 19 5 13 2
-7 2 -19 0 -25z m256 -165 c-7 -2 -21 -2 -30 0 -10 3 -4 5 12 5 17 0 24 -2 18
-5z m-513 -23 c0 -5 -9 -10 -20 -10 -11 0 -20 5 -20 10 0 6 9 10 20 10 11 0
20 -4 20 -10z m350 -65 c0 -8 -7 -15 -15 -15 -9 0 -12 6 -9 15 4 8 10 15 15
15 5 0 9 -7 9 -15z m310 5 c0 -5 -4 -10 -10 -10 -5 0 -10 5 -10 10 0 6 5 10
10 10 6 0 10 -4 10 -10z m-187 -77 c-7 -2 -19 -2 -25 0 -7 3 -2 5 12 5 14 0
19 -2 13 -5z m167 -3 c0 -5 -4 -10 -10 -10 -5 0 -10 5 -10 10 0 6 5 10 10 10
6 0 10 -4 10 -10z m-182 -117 c-10 -2 -28 -2 -40 0 -13 2 -5 4 17 4 22 1 32
-1 23 -4z m-21 -49 c-3 -3 -12 -4 -19 -1 -8 3 -5 6 6 6 11 1 17 -2 13 -5z
m-42 -54 c17 -11 26 -20 22 -20 -11 0 -67 29 -67 35 0 10 16 4 45 -15z m656
-261 c-5 -13 -10 -19 -10 -12 -1 15 10 45 15 40 3 -2 0 -15 -5 -28z m306 -227
c-10 -10 -17 -26 -17 -36 0 -13 -5 -16 -21 -11 -13 5 -25 2 -30 -6 -4 -7 -11
-10 -15 -7 -9 10 21 38 40 38 8 0 20 9 26 20 6 11 16 20 22 20 6 0 4 -8 -5
-18z m-738 -93 c-13 -26 -23 -18 -14 10 3 12 11 19 16 16 5 -4 5 -14 -2 -26z
m2571 17 c0 -8 -4 -17 -9 -20 -10 -7 -23 19 -14 28 11 11 23 6 23 -8z m-2135
-6 c3 -5 2 -10 -4 -10 -5 0 -13 5 -16 10 -3 6 -2 10 4 10 5 0 13 -4 16 -10z
m262 -56 c-3 -3 -12 -4 -19 -1 -8 3 -5 6 6 6 11 1 17 -2 13 -5z m-657 -14
c-19 -13 -30 -13 -30 0 0 6 10 10 23 10 18 0 19 -2 7 -10z m540 -14 c0 -2 -7
-7 -16 -10 -8 -3 -12 -2 -9 4 6 10 25 14 25 6z m-520 -26 c0 -5 -7 -10 -16
-10 -8 0 -12 5 -9 10 3 6 10 10 16 10 5 0 9 -4 9 -10z m455 -10 c-3 -5 -11
-10 -16 -10 -6 0 -7 5 -4 10 3 6 11 10 16 10 6 0 7 -4 4 -10z m2001 -57 c22
-29 17 -53 -10 -53 -28 0 -76 35 -76 56 0 21 69 19 86 -3z m-2091 -133 c-27
-12 -43 -12 -25 0 8 5 22 9 30 9 10 0 8 -3 -5 -9z m2395 -495 c0 -28 -33 -71
-70 -90 -27 -14 -31 -13 -79 18 -27 17 -50 37 -50 44 -1 7 16 15 36 19 20 4
57 20 82 35 42 27 46 28 63 12 10 -9 18 -26 18 -38z"/>
<path d="M1326 2351 c-4 -7 -5 -15 -2 -18 9 -9 19 4 14 18 -4 11 -6 11 -12 0z"/>
<path d="M1360 2340 c0 -5 9 -10 21 -10 11 0 17 5 14 10 -3 6 -13 10 -21 10
-8 0 -14 -4 -14 -10z"/>
<path d="M2020 1761 c-5 -11 -17 -27 -26 -35 -9 -9 -11 -16 -4 -16 14 0 60 46
60 60 0 17 -19 11 -30 -9z"/>
<path d="M2151 1696 c-19 -10 -31 -11 -48 -3 -26 12 -79 -6 -68 -23 4 -6 10
-8 15 -5 5 3 11 1 14 -4 3 -5 -4 -12 -17 -16 l-22 -8 23 -4 c26 -5 20 -23 -9
-23 -10 0 -19 -7 -19 -15 0 -15 14 -13 57 7 13 7 19 16 15 26 -4 12 -1 14 12
9 13 -5 28 3 52 27 47 47 45 60 -5 32z m-61 -10 c0 -3 -4 -8 -10 -11 -5 -3
-10 -1 -10 4 0 6 5 11 10 11 6 0 10 -2 10 -4z m15 -26 c-3 -5 -12 -10 -18 -10
-7 0 -6 4 3 10 19 12 23 12 15 0z"/>
<path d="M1963 1658 c-21 -10 -38 -36 -29 -45 6 -6 76 40 76 50 0 10 -21 8
-47 -5z"/>
<path d="M1827 1643 c-4 -3 -7 -11 -7 -17 0 -6 5 -5 12 2 6 6 9 14 7 17 -3 3
-9 2 -12 -2z"/>
<path d="M1990 1619 c0 -5 5 -7 10 -4 6 3 10 8 10 11 0 2 -4 4 -10 4 -5 0 -10
-5 -10 -11z"/>
<path d="M1973 1593 c-13 -3 -23 -12 -23 -22 0 -9 -5 -22 -12 -29 -6 -6 -8
-15 -4 -19 4 -4 16 3 27 17 19 25 42 61 37 59 -2 -1 -13 -4 -25 -6z"/>
<path d="M1862 1535 c-15 -17 -17 -25 -9 -25 8 0 19 11 25 25 6 14 10 25 9 25
-2 0 -13 -11 -25 -25z"/>
<path d="M1906 1545 c-9 -26 -7 -32 5 -12 6 10 9 21 6 23 -2 3 -7 -2 -11 -11z"/>
<path d="M1819 1471 c-13 -11 -21 -22 -17 -26 7 -7 98 30 98 39 0 14 -60 4
-81 -13z"/>
<path d="M1688 1473 c6 -2 18 -2 25 0 6 3 1 5 -13 5 -14 0 -19 -2 -12 -5z"/>
<path d="M1901 1439 c-13 -5 -21 -12 -18 -15 3 -3 18 1 34 10 31 17 21 20 -16
5z"/>
<path d="M1550 1415 c0 -14 3 -25 6 -25 16 0 44 23 44 37 0 13 -3 13 -15 3
-10 -9 -15 -9 -15 -1 0 6 -4 11 -10 11 -5 0 -10 -11 -10 -25z"/>
<path d="M1610 1395 c-13 -14 -19 -25 -13 -25 5 0 20 11 33 25 13 14 19 25 13
25 -5 0 -20 -11 -33 -25z"/>
<path d="M1820 1410 c0 -5 -8 -10 -18 -10 -10 0 -27 -7 -38 -16 -18 -15 -18
-15 11 -9 31 6 80 45 57 45 -6 0 -12 -4 -12 -10z"/>
<path d="M1370 720 c0 -5 10 -10 23 -10 18 0 19 2 7 10 -19 13 -30 13 -30 0z"/>
</g>
</svg>
