<?xml version="1.0" standalone="no"?>
<!DOCTYPE svg PUBLIC "-//W3C//DTD SVG 20010904//EN"
 "http://www.w3.org/TR/2001/REC-SVG-20010904/DTD/svg10.dtd">
<svg version="1.0" xmlns="http://www.w3.org/2000/svg"
 width="480.000000pt" height="360.000000pt" viewBox="0 0 480.000000 360.000000"
 preserveAspectRatio="xMidYMid meet">
<metadata>
Created by potrace 1.16, written by Peter Selinger 2001-2019
</metadata>
<rect width="1" height="360" fill="#000000"/>
<rect x="479" width="1" height="360" fill="#000000"/>
<rect width="480" height="1" fill="#000000"/>
<rect y="359" width="480" height="1" fill="#000000"/>
<g transform="translate(0.000000,360.000000) scale(0.100000,-0.100000)"
fill="#000000" stroke="none">
<path d="M0 1800 l0 -1800 2400 0 2400 0 0 1800 0 1800 -1021 0 -1021 0 7 -22
c14 -47 17 -177 5 -245 -21 -130 -74 -216 -248 -405 -78 -85 -91 -105 -107
-159 l-17 -63 -13 37 c-14 42 -8 34 -136 187 -198 238 -236 297 -259 401 -12
55 -9 179 6 242 l6 27 -1001 0 -1001 0 0 -1800z m2329 790 c11 -22 17 -40 14
-40 -4 0 3 -7 15 -16 12 -8 21 -23 20 -32 -2 -12 8 -18 43 -23 71 -11 102 -32
153 -107 l47 -68 92 -12 c143 -18 276 -68 317 -117 24 -29 58 -148 54 -189 -5
-52 -35 -107 -67 -126 -22 -12 -33 -13 -74 -1 -76 21 -84 20 -105 -21 -47 -89
-157 -147 -243 -128 -23 5 -54 14 -68 19 l-27 10 7 -47 c3 -26 10 -56 16 -67
6 -11 11 -43 12 -72 0 -38 7 -61 24 -84 16 -21 24 -47 25 -77 1 -53 16 -62 46
-30 18 19 20 30 15 66 -5 32 -3 42 7 42 41 0 53 -88 18 -133 -46 -58 -113 -51
-136 15 -13 38 -44 87 -55 88 -4 0 4 -29 17 -64 13 -36 30 -122 39 -192 21
-171 47 -286 100 -445 50 -148 52 -159 29 -159 -14 0 -16 -7 -11 -39 l5 -40
-63 -6 c-35 -4 -68 -4 -73 -1 -23 14 -37 -6 -40 -58 -2 -42 2 -56 18 -71 57
-52 -30 -126 -98 -84 -14 9 -25 8 -50 -5 -76 -39 -113 2 -81 93 9 25 8 36 -5
56 -16 24 -18 25 -52 10 -51 -21 -65 -19 -110 15 -21 16 -56 33 -77 36 -26 5
-44 16 -58 36 -11 15 -37 35 -56 43 -33 14 -35 17 -29 51 4 21 3 41 -4 49 -14
17 17 88 79 180 78 115 141 230 141 259 0 23 -4 26 -27 24 -25 -3 -28 1 -31
30 -2 22 1 32 11 32 12 0 13 14 9 73 -2 39 -9 77 -14 82 -7 7 -8 2 -3 -15 5
-19 4 -22 -4 -10 -14 20 -5 74 29 180 45 136 46 152 13 176 -61 45 -73 48 -98
24 -26 -25 -87 -39 -124 -30 -16 3 -29 19 -40 45 -9 23 -24 51 -33 64 -15 22
-16 27 -1 65 9 22 20 46 24 51 4 6 12 28 18 50 22 83 96 153 241 227 67 34 69
37 94 143 17 71 40 106 87 131 31 16 42 50 47 152 1 17 4 32 6 32 2 0 13 -18
25 -40z"/>
<path d="M2996 1992 c-46 -16 -106 -60 -106 -79 0 -5 24 -17 54 -27 42 -14 58
-16 74 -7 32 17 62 134 33 130 -3 0 -28 -8 -55 -17z"/>
<path d="M2623 1835 c-29 -8 -72 -24 -95 -36 l-43 -22 35 -15 c69 -28 135 -37
180 -23 39 12 120 80 120 101 0 15 -136 11 -197 -5z"/>
<path d="M1810 1796 c0 -12 45 -102 54 -108 19 -13 50 -9 85 13 l33 20 -23 26
c-33 35 -72 53 -114 53 -19 0 -35 -2 -35 -4z"/>
<path d="M2078 1743 c-24 -6 -22 -15 8 -36 29 -22 30 -21 39 16 7 28 -2 32
-47 20z"/>
<path d="M2358 439 c-25 -14 -22 -57 5 -80 12 -10 25 -18 29 -19 11 0 19 56
12 84 -7 28 -18 32 -46 15z"/>
</g>
</svg>
