<?xml version="1.0" standalone="no"?>
<!DOCTYPE svg PUBLIC "-//W3C//DTD SVG 20010904//EN"
 "http://www.w3.org/TR/2001/REC-SVG-20010904/DTD/svg10.dtd">
<svg version="1.0" xmlns="http://www.w3.org/2000/svg"
 width="480.000000pt" height="360.000000pt" viewBox="0 0 480.000000 360.000000"
 preserveAspectRatio="xMidYMid meet">
<metadata>
Created by potrace 1.16, written by Peter Selinger 2001-2019
</metadata>
<rect width="1" height="360" fill="#000000"/>
<rect x="479" width="1" height="360" fill="#000000"/>
<rect width="480" height="1" fill="#000000"/>
<rect y="359" width="480" height="1" fill="#000000"/>
<g transform="translate(0.000000,360.000000) scale(0.100000,-0.100000)"
fill="#000000" stroke="none">
<path d="M0 1800 l0 -1801 87 3 86 3 29 94 c25 79 27 97 16 105 -27 22 -47 63
-36 74 8 8 8 18 1 34 -9 20 -5 26 27 49 20 15 44 43 54 63 22 47 33 161 17
180 -7 8 -9 21 -5 27 4 7 8 29 8 48 1 33 4 36 33 39 29 3 34 8 43 45 20 77 62
187 86 223 13 19 24 38 24 41 0 4 8 15 17 25 17 19 16 19 -8 13 -32 -8 -40 7
-30 56 6 31 17 40 111 94 l105 59 -35 7 c-19 4 -42 3 -52 -2 -13 -7 -18 -6
-18 3 0 16 -58 -40 -65 -63 -5 -15 -11 -16 -30 -9 -39 15 -83 -6 -106 -51 -22
-43 -48 -50 -88 -23 -21 15 -23 15 -39 -7 -9 -13 -37 -46 -64 -74 -40 -42 -50
-48 -65 -39 -22 14 -38 72 -29 108 11 44 50 76 91 76 73 0 122 44 185 169 55
110 96 258 125 447 7 47 5 48 -69 59 -25 4 -48 10 -50 14 -3 4 8 26 24 50 35
51 69 138 76 195 5 37 1 50 -35 105 -54 85 -63 115 -68 251 -10 237 59 376
249 507 179 123 237 140 602 170 l89 8 14 65 c14 72 44 160 53 160 12 0 69
-65 132 -150 54 -73 72 -89 132 -120 161 -84 267 -244 307 -463 6 -34 15 -68
21 -74 6 -7 8 -20 4 -28 -4 -10 11 -26 48 -51 57 -38 69 -40 132 -29 l41 7 17
-48 c16 -49 12 -63 -22 -64 -7 0 -12 -6 -10 -13 2 -6 -8 -27 -20 -45 -22 -30
-40 -78 -91 -235 -18 -54 -18 -61 -4 -95 15 -36 15 -37 -4 -19 -11 9 -23 17
-27 17 -10 0 -106 -91 -106 -101 0 -4 14 -22 32 -38 35 -32 33 -50 -2 -31 -12
6 -24 9 -27 7 -2 -3 0 -49 6 -104 29 -274 32 -313 26 -323 -4 -6 -33 12 -73
45 -61 50 -68 54 -79 38 -12 -16 -13 -16 -13 0 0 9 -2 17 -5 17 -6 0 -58 -30
-147 -85 -65 -40 -83 -47 -117 -43 -23 2 -41 0 -41 -3 0 -16 401 -129 456
-129 33 0 90 -36 135 -86 24 -26 27 -39 31 -120 3 -51 8 -97 12 -103 5 -7 19
-3 44 12 62 38 268 121 280 113 4 -2 46 6 93 19 76 20 105 22 270 20 156 -1
201 -6 294 -27 330 -75 664 -287 858 -543 34 -44 76 -98 94 -119 18 -22 33
-44 33 -49 0 -4 19 -40 43 -80 23 -39 61 -116 83 -171 l42 -101 281 -3 281 -2
0 1800 0 1800 -1765 0 c-1758 0 -1765 0 -1765 -20 0 -11 -4 -20 -10 -20 -5 0
-15 9 -22 20 -13 20 -24 20 -625 20 l-613 0 0 -1800z m1377 1684 c-9 -9 -28 6
-21 18 4 6 10 6 17 -1 6 -6 8 -13 4 -17z m2123 -168 c0 -14 -29 -31 -38 -22
-2 3 -2 12 1 21 8 19 37 20 37 1z m-3370 -368 c0 -11 -62 -10 -80 2 -11 7 -1
9 33 8 26 -1 47 -6 47 -10z m3745 -498 c-3 -5 -10 -10 -16 -10 -5 0 -9 5 -9
10 0 6 7 10 16 10 8 0 12 -4 9 -10z m-435 -349 c0 -12 -29 -35 -36 -28 -11 10
5 37 21 37 8 0 15 -4 15 -9z m45 -250 c0 -29 -7 -40 -43 -68 -40 -30 -49 -33
-118 -33 -79 0 -87 7 -64 50 22 41 142 92 205 87 16 -2 20 -9 20 -36z m490
-831 c-3 -5 -10 -10 -16 -10 -5 0 -9 5 -9 10 0 6 7 10 16 10 8 0 12 -4 9 -10z
m105 -560 c0 -11 -7 -20 -15 -20 -8 0 -15 9 -15 20 0 11 7 20 15 20 8 0 15 -9
15 -20z"/>
<path d="M1807 163 c-4 -3 -7 -25 -7 -47 0 -23 -4 -58 -9 -78 l-9 -38 34 0 34
0 0 79 c0 63 -3 80 -16 85 -19 7 -19 7 -27 -1z"/>
</g>
</svg>
