<?xml version="1.0" standalone="no"?>
<!DOCTYPE svg PUBLIC "-//W3C//DTD SVG 20010904//EN"
 "http://www.w3.org/TR/2001/REC-SVG-20010904/DTD/svg10.dtd">
<svg version="1.0" xmlns="http://www.w3.org/2000/svg"
 width="480.000000pt" height="360.000000pt" viewBox="0 0 480.000000 360.000000"
 preserveAspectRatio="xMidYMid meet">
<metadata>
Created by potrace 1.16, written by Peter Selinger 2001-2019
</metadata>
<rect width="1" height="360" fill="#000000"/>
<rect x="479" width="1" height="360" fill="#000000"/>
<rect width="480" height="1" fill="#000000"/>
<rect y="359" width="480" height="1" fill="#000000"/>
<g transform="translate(0.000000,360.000000) scale(0.100000,-0.100000)"
fill="#000000" stroke="none">
<path d="M0 1800 l0 -1800 885 0 885 0 6 28 c4 15 13 39 21 54 11 23 11 50 2
160 -12 136 -5 220 32 359 15 59 6 97 -23 101 -15 2 -26 13 -32 33 -5 17 -13
40 -19 52 -16 36 -2 159 38 314 49 191 74 309 65 309 -4 0 -87 -27 -186 -60
-98 -32 -251 -77 -339 -99 -105 -26 -164 -46 -172 -57 -7 -10 -13 -13 -13 -7
0 7 -28 10 -74 9 -60 -1 -78 3 -95 18 -11 11 -21 24 -21 30 0 6 48 22 108 35
72 16 113 30 125 43 9 11 17 15 17 9 0 -20 60 -4 365 97 185 61 281 98 265
100 -36 5 -42 15 -30 47 13 33 -1 53 -20 30 -15 -18 -46 -20 -56 -3 -5 7 -7
25 -6 40 1 15 -2 28 -8 28 -12 0 -335 155 -368 176 -18 12 -20 18 -12 34 6 11
16 20 22 20 6 0 68 -29 137 -64 69 -35 154 -76 188 -90 l61 -26 30 28 29 27
-43 65 c-50 75 -55 113 -24 184 10 25 22 70 26 99 8 59 22 91 56 127 38 40
140 125 175 145 40 23 41 31 6 67 -26 27 -51 39 -38 18 3 -6 3 -20 -1 -32 -6
-21 -7 -21 -21 -2 -12 15 -16 16 -20 5 -4 -10 -9 -7 -19 10 -7 13 -13 19 -14
12 0 -29 -28 2 -35 40 -28 144 19 304 107 370 83 62 138 71 212 36 l45 -21 67
58 c73 62 161 107 196 102 20 -3 23 -8 20 -44 -2 -28 3 -56 17 -83 12 -22 21
-51 21 -63 0 -36 -59 -201 -80 -222 -18 -18 -19 -18 -48 3 -17 11 -32 21 -34
21 -1 0 -2 -33 0 -74 3 -53 0 -77 -11 -87 -7 -8 -16 -21 -20 -29 -4 -11 -6
-10 -7 5 -1 19 -1 19 -19 -2 -26 -32 -43 -29 -36 5 5 20 4 23 -4 12 -5 -9 -11
-29 -13 -45 -3 -30 -3 -30 42 -26 43 3 57 7 162 47 40 16 50 16 72 5 13 -8 35
-11 47 -8 12 3 30 2 38 -3 20 -10 110 7 234 44 49 14 117 31 151 37 52 10 65
16 79 40 19 35 59 38 97 9 34 -27 40 -25 34 10 -6 27 -4 30 17 30 13 0 30 9
37 20 6 11 32 25 57 31 25 6 48 15 51 20 3 5 15 9 28 9 12 0 33 11 46 25 13
14 35 25 48 25 41 0 133 33 143 51 5 10 31 25 59 34 50 17 93 56 84 78 -6 15
33 40 41 27 3 -6 28 -10 54 -10 44 0 50 3 60 28 13 31 37 38 46 14 4 -11 8
-12 20 -2 12 10 15 10 15 0 0 -8 3 -10 6 -7 4 4 1 14 -7 24 -9 11 -10 14 -1 9
7 -4 12 -2 12 6 1 7 8 0 16 -15 20 -37 48 -32 52 8 5 43 14 48 77 46 53 -1 55
-1 55 25 0 23 3 25 25 20 14 -4 25 -2 25 4 0 5 20 10 44 10 49 0 82 14 128 55
31 28 42 30 175 39 65 4 73 3 73 -13 0 -10 8 -26 19 -35 17 -16 20 -16 35 -1
15 15 16 13 16 -29 0 -25 5 -46 10 -46 6 0 10 92 10 255 l0 255 -647 0 -646 0
19 -22 c11 -13 32 -41 47 -63 26 -39 75 -97 119 -142 19 -20 33 -23 94 -23 39
0 86 -3 103 -6 31 -6 121 -77 121 -95 0 -5 9 -28 19 -52 37 -81 37 -85 -10
-97 -41 -11 -72 -8 -67 7 2 5 -7 22 -20 38 l-23 29 -62 -22 c-139 -50 -237
-17 -392 130 -51 48 -103 103 -116 123 -28 41 -44 44 -53 10 -7 -28 -48 -91
-76 -117 -11 -10 -43 -32 -72 -50 -47 -28 -62 -32 -133 -32 -66 -1 -90 3 -136
25 -64 30 -125 87 -145 135 -22 53 -36 166 -25 197 l11 27 -1286 0 c-1281 0
-1285 0 -1279 -20 4 -11 2 -20 -4 -20 -17 0 -61 23 -61 32 0 4 -18 8 -40 8
l-40 0 0 -1800z m1300 1770 c0 -14 -35 -30 -64 -30 -30 0 -34 14 -8 29 22 13
72 14 72 1z m2834 -132 c10 -37 7 -46 -14 -53 -46 -14 -71 14 -54 59 10 26 60
21 68 -6z m491 -68 c3 -5 1 -10 -4 -10 -6 0 -11 5 -11 10 0 6 2 10 4 10 3 0 8
-4 11 -10z m139 -179 c-5 -5 -33 30 -34 43 0 4 9 -2 19 -15 11 -13 17 -26 15
-28z m-2837 -63 c6 -7 15 -28 21 -45 l11 -33 -30 16 c-33 16 -44 36 -35 59 7
18 20 19 33 3z m2073 -92 c0 -3 -4 -8 -10 -11 -5 -3 -10 -1 -10 4 0 6 5 11 10
11 6 0 10 -2 10 -4z m90 -36 c0 -5 -5 -10 -11 -10 -5 0 -7 5 -4 10 3 6 8 10
11 10 2 0 4 -4 4 -10z m-878 -159 c-3 -43 -5 -45 -36 -37 -26 6 -44 45 -31 66
4 6 21 10 38 8 30 -3 32 -5 29 -37z m-1814 -303 c18 -18 15 -48 -6 -48 -19 0
-46 36 -37 50 8 14 29 12 43 -2z m-637 -264 c17 -8 37 -30 45 -49 7 -18 18
-36 24 -40 15 -9 12 -41 -6 -56 -10 -8 -14 -26 -13 -50 2 -21 0 -41 -4 -45 -4
-4 -4 -46 0 -93 l6 -86 54 -61 c29 -34 53 -68 53 -77 0 -24 -29 -47 -59 -47
-15 0 -35 -6 -44 -12 -16 -12 -14 -23 19 -153 19 -77 49 -173 65 -215 43 -110
38 -132 -20 -89 -66 49 -99 -19 -41 -84 l31 -36 -38 -10 c-21 -5 -65 -13 -98
-16 -33 -4 -76 -11 -95 -15 -195 -49 -574 -86 -610 -60 -24 17 10 36 78 45 31
4 75 16 97 27 29 15 72 23 165 29 195 14 192 13 188 57 -3 32 -7 37 -30 40
-44 5 -49 21 -28 89 10 33 24 106 31 162 l13 101 -32 30 c-32 29 -33 30 -16
61 11 22 14 43 9 68 -11 64 -7 96 19 145 14 27 26 55 26 62 0 8 9 41 21 75 20
58 20 61 3 73 -17 13 -17 15 -1 49 10 19 20 57 23 84 8 62 26 90 67 102 47 14
65 13 98 -5z m497 -870 c24 -7 31 -44 8 -44 -8 0 -21 -3 -29 -6 -16 -6 -33 28
-22 46 7 12 12 12 43 4z"/>
<path d="M630 1158 c1 -24 35 -56 67 -63 35 -7 47 4 47 45 0 23 -3 25 -57 28
-42 2 -57 0 -57 -10z"/>
<path d="M4490 2961 c-274 -93 -371 -126 -780 -267 -102 -35 -227 -78 -277
-95 -92 -31 -93 -32 -90 -63 2 -30 1 -31 -45 -34 -48 -3 -54 -9 -49 -50 3 -18
-29 -27 -50 -14 -10 7 -25 9 -32 6 -10 -3 -17 4 -21 21 -8 31 -25 28 -144 -26
-45 -21 -117 -47 -160 -59 -42 -12 -96 -30 -119 -40 -41 -18 -42 -20 -45 -72
l-3 -53 -11 35 c-13 43 -37 49 -75 21 -21 -16 -43 -21 -87 -21 -33 0 -81 -3
-107 -6 l-47 -7 6 -36 c4 -20 13 -119 21 -221 15 -182 14 -185 -5 -199 -22
-15 -27 -59 -7 -66 6 -3 63 15 126 40 63 24 117 42 120 39 12 -12 38 -94 31
-99 -4 -2 -55 -22 -114 -44 -59 -22 -110 -42 -113 -45 -7 -7 45 -145 61 -163
12 -13 208 -86 426 -158 80 -26 149 -50 153 -52 17 -10 -27 -43 -58 -43 -39 0
-205 46 -343 95 -57 20 -105 35 -108 32 -2 -2 20 -38 51 -80 30 -41 76 -115
101 -164 26 -48 50 -93 55 -98 4 -6 11 -29 14 -50 5 -32 1 -49 -20 -87 -28
-50 -85 -100 -120 -103 -12 -2 -34 -15 -50 -29 -15 -14 -34 -26 -41 -26 -20 0
-18 -10 21 -125 36 -106 54 -227 55 -370 0 -51 6 -82 20 -110 11 -22 20 -47
20 -57 0 -17 49 -18 1075 -18 l1075 0 0 1210 c0 1177 -1 1210 -19 1210 -24 0
-45 25 -37 46 4 11 14 15 31 12 l25 -5 0 293 c0 229 -3 294 -12 293 -7 -1
-141 -45 -298 -98z m30 -149 c0 -14 -11 -21 -26 -15 -21 8 -17 23 6 23 11 0
20 -4 20 -8z m-127 -1769 c-7 -2 -19 -2 -25 0 -7 3 -2 5 12 5 14 0 19 -2 13
-5z"/>
<path d="M2182 2453 c2 -12 14 -19 38 -21 34 -4 34 -4 16 17 -24 26 -59 28
-54 4z"/>
<path d="M1923 2019 c-35 -28 -63 -57 -63 -65 0 -22 86 -243 101 -258 5 -5 12
1 18 16 5 15 15 29 20 33 25 15 11 43 -24 49 -38 7 -43 17 -20 36 23 19 45
106 45 177 0 35 -3 63 -7 63 -5 -1 -36 -23 -70 -51z"/>
<path d="M1830 1705 c0 -8 7 -15 16 -15 14 0 14 3 4 15 -7 8 -14 15 -16 15 -2
0 -4 -7 -4 -15z"/>
<path d="M2247 630 c-12 -15 -24 -18 -54 -13 -21 3 -43 10 -50 15 -7 6 -15 3
-21 -8 -9 -17 -21 -17 -93 1 -24 6 -28 3 -37 -27 -6 -18 -23 -127 -37 -243
-15 -115 -28 -212 -31 -217 -3 -4 -2 -37 2 -73 l7 -65 277 0 277 0 6 48 c4 30
-1 74 -13 122 -11 41 -33 138 -50 215 -17 77 -40 166 -51 197 -21 56 -21 56
-55 51 -19 -3 -40 -1 -47 5 -10 9 -17 6 -30 -8z"/>
</g>
</svg>
