<?xml version="1.0" standalone="no"?>
<!DOCTYPE svg PUBLIC "-//W3C//DTD SVG 20010904//EN"
 "http://www.w3.org/TR/2001/REC-SVG-20010904/DTD/svg10.dtd">
<svg version="1.0" xmlns="http://www.w3.org/2000/svg"
 width="480.000000pt" height="360.000000pt" viewBox="0 0 480.000000 360.000000"
 preserveAspectRatio="xMidYMid meet">
<metadata>
Created by potrace 1.16, written by Peter Selinger 2001-2019
</metadata>
<rect width="1" height="360" fill="#000000"/>
<rect x="479" width="1" height="360" fill="#000000"/>
<rect width="480" height="1" fill="#000000"/>
<rect y="359" width="480" height="1" fill="#000000"/>
<g transform="translate(0.000000,360.000000) scale(0.100000,-0.100000)"
fill="#000000" stroke="none">
<path d="M2736 2409 c-96 -12 -269 -67 -373 -119 -99 -49 -209 -142 -250 -212
-52 -88 -63 -145 -66 -339 -3 -273 13 -304 316 -625 67 -71 129 -108 218 -129
88 -20 122 -19 235 11 242 62 494 257 616 476 126 227 123 397 -10 543 -33 36
-53 69 -62 102 -39 142 -140 235 -300 277 -76 19 -229 26 -324 15z"/>
</g>
</svg>
