<?xml version="1.0" standalone="no"?>
<!DOCTYPE svg PUBLIC "-//W3C//DTD SVG 20010904//EN"
 "http://www.w3.org/TR/2001/REC-SVG-20010904/DTD/svg10.dtd">
<svg version="1.0" xmlns="http://www.w3.org/2000/svg"
 width="480.000000pt" height="360.000000pt" viewBox="0 0 480.000000 360.000000"
 preserveAspectRatio="xMidYMid meet">
<metadata>
Created by potrace 1.16, written by Peter Selinger 2001-2019
</metadata>
<rect width="1" height="360" fill="#000000"/>
<rect x="479" width="1" height="360" fill="#000000"/>
<rect width="480" height="1" fill="#000000"/>
<rect y="359" width="480" height="1" fill="#000000"/>
<g transform="translate(0.000000,360.000000) scale(0.100000,-0.100000)"
fill="#000000" stroke="none">
<path d="M2130 3590 c0 -13 -77 -49 -103 -50 -11 0 -31 -9 -47 -20 -15 -11
-29 -17 -32 -15 -7 7 -179 -32 -190 -43 -5 -5 -4 -28 3 -57 11 -43 10 -49 -6
-61 -16 -12 -17 -18 -6 -56 20 -66 62 -138 81 -138 47 0 77 -81 119 -322 26
-147 27 -140 -5 -128 -43 17 -141 12 -182 -9 -46 -24 -82 -84 -82 -140 0 -22
15 -82 34 -133 19 -51 46 -132 60 -179 21 -70 33 -93 61 -118 20 -17 41 -31
48 -31 7 0 18 -4 26 -9 11 -7 10 -15 -9 -42 -13 -19 -37 -47 -53 -64 -27 -27
-29 -34 -25 -87 4 -49 10 -64 44 -105 22 -26 54 -55 71 -63 35 -17 43 -34 43
-99 0 -25 6 -52 14 -60 7 -9 21 -39 30 -66 16 -50 68 -125 87 -125 16 0 9 33
-12 56 -15 16 -18 27 -11 39 5 9 6 35 2 56 -13 68 6 113 29 72 9 -17 10 -17
16 -1 4 10 2 32 -4 49 -12 36 -5 79 18 95 13 10 13 14 2 28 -12 14 -11 19 1
34 18 20 29 80 16 88 -11 7 -10 44 2 44 19 0 11 86 -10 110 -32 37 -25 68 40
159 33 46 60 91 61 100 0 9 2 68 4 132 2 114 3 118 47 215 25 55 64 149 87
209 64 167 70 179 101 197 16 9 45 41 66 72 30 46 35 61 30 88 -4 22 1 54 14
92 20 54 20 61 6 109 -11 37 -28 64 -58 93 -64 62 -90 74 -170 78 -20 1 -40 5
-44 9 -12 12 -214 8 -214 -3z"/>
</g>
</svg>
