<?xml version="1.0" standalone="no"?>
<!DOCTYPE svg PUBLIC "-//W3C//DTD SVG 20010904//EN"
 "http://www.w3.org/TR/2001/REC-SVG-20010904/DTD/svg10.dtd">
<svg version="1.0" xmlns="http://www.w3.org/2000/svg"
 width="480.000000pt" height="360.000000pt" viewBox="0 0 480.000000 360.000000"
 preserveAspectRatio="xMidYMid meet">
<metadata>
Created by potrace 1.16, written by Peter Selinger 2001-2019
</metadata>
<rect width="1" height="360" fill="#000000"/>
<rect x="479" width="1" height="360" fill="#000000"/>
<rect width="480" height="1" fill="#000000"/>
<rect y="359" width="480" height="1" fill="#000000"/>
<g transform="translate(0.000000,360.000000) scale(0.100000,-0.100000)"
fill="#000000" stroke="none">
<path d="M0 1800 l0 -1800 581 0 580 0 -7 23 c-10 33 -68 147 -149 292 -227
408 -317 759 -332 1290 -10 379 31 689 143 1073 l36 124 -41 42 c-50 51 -53
79 -8 106 63 39 178 19 512 -90 195 -64 274 -97 312 -132 19 -17 378 -119 808
-229 l90 -23 62 48 c60 47 105 103 233 296 35 52 91 124 124 160 34 36 78 87
98 112 29 35 51 51 95 67 32 12 69 28 83 37 95 59 242 104 339 104 47 0 168
-37 195 -59 6 -5 36 -19 66 -31 38 -15 70 -37 106 -75 28 -30 48 -55 45 -55
-4 0 -7 -37 -7 -83 0 -76 -3 -87 -29 -123 -16 -21 -35 -44 -42 -50 -18 -16 -6
-44 24 -55 20 -7 24 -14 18 -32 -4 -12 -6 -31 -5 -42 3 -30 1 -47 -6 -81 -5
-26 0 -38 26 -68 l32 -36 -27 10 c-15 6 -29 9 -30 8 -1 -2 -10 -20 -20 -40
-14 -32 -21 -36 -45 -33 -22 3 -31 -1 -35 -17 -6 -18 -8 -18 -24 -4 -26 24
-30 20 -16 -21 14 -40 38 -63 68 -63 10 0 37 -13 60 -30 33 -23 60 -32 122
-40 44 -6 99 -18 123 -26 49 -18 108 -74 128 -121 8 -17 22 -34 31 -37 10 -3
110 -21 223 -40 113 -20 217 -38 233 -41 l27 -4 0 794 0 795 -2400 0 -2400 0
0 -1800z"/>
<path d="M1406 2371 c-131 -396 -146 -486 -153 -888 -9 -506 18 -634 247
-1173 51 -118 99 -236 107 -262 l16 -48 503 0 503 0 68 51 c168 127 479 422
567 539 27 36 85 111 128 167 44 57 75 107 72 115 -6 13 -52 55 -219 201 -125
109 -215 199 -232 231 -10 20 -14 49 -11 96 3 62 7 72 70 166 36 54 84 119
106 144 30 35 37 50 31 65 -4 11 -8 43 -9 70 -1 44 -3 47 -12 28 -14 -28 -28
-30 -28 -3 0 11 -4 20 -10 20 -5 0 -10 -4 -10 -10 0 -5 -4 -10 -9 -10 -6 0
-11 17 -13 38 l-3 37 -14 -27 c-19 -37 -35 -36 -27 2 4 22 1 32 -9 36 -10 4
-12 15 -8 37 l6 32 -27 -25 -27 -24 14 34 c30 73 31 83 8 75 -18 -5 -21 -3
-19 22 1 15 10 42 20 58 29 48 24 61 -28 74 -45 12 -48 11 -75 -15 -31 -29
-75 -44 -64 -22 4 7 -2 2 -14 -12 -31 -39 -59 -35 -67 9 -3 20 -9 50 -13 66
l-7 30 -245 63 c-134 34 -390 102 -569 151 -273 75 -336 89 -397 89 l-73 -1
-74 -226z"/>
<path d="M3055 2371 c-6 -11 9 -23 19 -14 9 9 7 23 -3 23 -6 0 -12 -4 -16 -9z"/>
<path d="M4285 1960 c-4 -7 7 -26 25 -43 65 -63 83 -113 60 -171 -10 -28 -14
-21 109 -215 36 -56 69 -100 75 -97 6 2 64 21 128 43 l118 38 0 181 0 180
-237 43 c-131 23 -245 45 -255 47 -9 3 -19 0 -23 -6z"/>
<path d="M3330 1459 l-75 -69 70 -71 c63 -64 117 -107 101 -81 -3 5 1 27 10
47 12 29 13 44 5 64 -6 14 -16 60 -23 102 l-13 76 -75 -68z"/>
<path d="M4231 1280 c-9 -5 -7 -16 8 -41 24 -39 28 -114 8 -144 -9 -14 -12
-45 -9 -103 4 -76 6 -84 32 -102 34 -24 90 -106 90 -132 0 -10 -5 -26 -11 -36
-16 -25 78 -211 161 -321 77 -102 160 -238 160 -263 0 -19 -25 -25 -35 -8 -7
12 -45 14 -45 2 0 -4 9 -36 21 -70 l21 -62 84 0 84 0 0 585 c0 322 -1 585 -3
585 -1 0 -30 -9 -62 -21 -161 -57 -320 -21 -453 103 -24 22 -44 33 -51 28z"/>
</g>
</svg>
