<?xml version="1.0" standalone="no"?>
<!DOCTYPE svg PUBLIC "-//W3C//DTD SVG 20010904//EN"
 "http://www.w3.org/TR/2001/REC-SVG-20010904/DTD/svg10.dtd">
<svg version="1.0" xmlns="http://www.w3.org/2000/svg"
 width="480.000000pt" height="360.000000pt" viewBox="0 0 480.000000 360.000000"
 preserveAspectRatio="xMidYMid meet">
<metadata>
Created by potrace 1.16, written by Peter Selinger 2001-2019
</metadata>
<rect width="1" height="360" fill="#000000"/>
<rect x="479" width="1" height="360" fill="#000000"/>
<rect width="480" height="1" fill="#000000"/>
<rect y="359" width="480" height="1" fill="#000000"/>
<g transform="translate(0.000000,360.000000) scale(0.100000,-0.100000)"
fill="#000000" stroke="none">
<path d="M2834 3328 c-5 -7 6 -22 27 -37 56 -43 106 -94 84 -85 -124 46 -132
48 -240 48 -103 1 -114 -1 -170 -29 -44 -22 -73 -46 -109 -92 -47 -59 -50 -61
-78 -51 -49 17 -188 -6 -188 -32 0 -4 16 -23 35 -43 33 -34 38 -36 80 -30 25
3 45 3 45 0 0 -3 -16 -15 -35 -27 -29 -18 -35 -27 -35 -57 0 -19 -9 -48 -21
-64 l-21 -29 22 -34 c11 -19 37 -49 57 -67 76 -66 83 -85 83 -224 l0 -125 -67
0 c-38 -1 -86 -7 -107 -15 l-40 -14 -40 40 c-109 106 -140 127 -167 111 -10
-7 -37 -12 -60 -12 -24 0 -55 -8 -73 -19 -17 -11 -53 -27 -81 -36 -111 -38
-214 -127 -235 -204 -26 -98 58 -203 180 -226 104 -19 250 -4 353 36 72 29 83
26 111 -28 32 -62 57 -89 100 -103 19 -6 38 -20 41 -31 4 -10 18 -33 32 -49
28 -34 26 -48 -5 -31 -26 14 -32 6 -25 -34 4 -26 -6 -54 -51 -142 -31 -60 -72
-128 -92 -152 -30 -34 -34 -45 -23 -52 24 -15 33 -6 69 68 19 40 38 75 43 79
4 4 21 -5 37 -21 35 -33 37 -54 16 -170 -19 -103 -47 -286 -46 -305 1 -25 17
7 41 80 24 74 45 104 35 51 -6 -34 9 -338 20 -401 5 -30 8 -32 14 -15 16 39
10 -62 -15 -257 -31 -246 -52 -402 -61 -455 l-7 -43 553 0 552 0 -6 47 c-4 27
-34 217 -66 423 -33 206 -73 485 -90 620 -32 264 -52 393 -76 508 -13 57 -14
75 -4 87 17 21 26 19 70 -16 69 -56 160 -49 199 15 38 63 37 88 -13 194 -25
54 -46 105 -46 113 0 8 29 58 65 113 36 54 65 104 65 111 0 13 -265 231 -308
254 -12 7 -27 9 -32 6 -5 -3 -19 -1 -30 5 -16 9 -25 8 -36 -1 -22 -18 -24 -9
-16 64 7 57 14 73 41 101 18 19 48 42 68 52 35 19 38 34 18 87 -6 15 -1 17 38
17 25 0 48 4 51 9 11 17 -80 135 -122 159 -23 13 -42 29 -42 36 0 6 -8 28 -18
48 -11 21 -17 48 -14 67 7 53 -52 126 -157 193 -49 31 -66 34 -77 16z"/>
</g>
</svg>
