<?xml version="1.0" standalone="no"?>
<!DOCTYPE svg PUBLIC "-//W3C//DTD SVG 20010904//EN"
 "http://www.w3.org/TR/2001/REC-SVG-20010904/DTD/svg10.dtd">
<svg version="1.0" xmlns="http://www.w3.org/2000/svg"
 width="480.000000pt" height="360.000000pt" viewBox="0 0 480.000000 360.000000"
 preserveAspectRatio="xMidYMid meet">
<metadata>
Created by potrace 1.16, written by Peter Selinger 2001-2019
</metadata>
<rect width="1" height="360" fill="#000000"/>
<rect x="479" width="1" height="360" fill="#000000"/>
<rect width="480" height="1" fill="#000000"/>
<rect y="359" width="480" height="1" fill="#000000"/>
<g transform="translate(0.000000,360.000000) scale(0.100000,-0.100000)"
fill="#000000" stroke="none">
<path d="M1805 3589 c-116 -23 -314 -109 -384 -167 l-33 -28 62 -130 c143
-298 273 -637 364 -944 44 -152 93 -369 147 -655 28 -154 54 -282 55 -284 2
-2 30 8 62 22 98 44 185 60 322 61 133 0 241 -21 336 -66 26 -12 49 -17 53
-12 4 5 20 95 35 199 41 281 87 482 144 623 58 142 111 219 232 342 122 124
193 176 358 260 l103 53 -27 28 c-15 16 -29 27 -31 25 -2 -2 -23 14 -46 36
-127 116 -314 226 -472 277 -155 50 -238 64 -409 67 l-160 4 -40 38 c-118 112
-238 190 -344 227 -87 30 -241 41 -327 24z"/>
<path d="M718 2488 c-79 -120 -101 -453 -44 -671 45 -176 138 -327 200 -327
20 0 44 16 85 55 60 57 81 67 81 38 1 -10 7 -29 14 -42 11 -19 14 -21 19 -7 4
9 16 16 27 16 15 0 22 8 27 30 3 17 9 30 14 30 9 0 49 -49 49 -62 0 -5 7 -25
15 -46 11 -25 18 -33 24 -24 5 9 24 -10 60 -62 61 -89 70 -96 66 -53 -14 125
-28 194 -51 249 -32 76 -171 353 -194 388 -10 14 -44 66 -76 115 -32 50 -80
118 -106 151 -27 34 -48 64 -48 67 0 3 -12 19 -27 36 -32 35 -74 86 -101 120
l-18 23 -16 -24z"/>
<path d="M3542 2056 c-70 -76 -137 -251 -221 -581 -12 -44 -41 -156 -66 -248
-35 -128 -43 -172 -35 -187 6 -10 38 -40 73 -67 34 -26 69 -56 77 -68 8 -11
44 -56 79 -100 87 -108 105 -170 97 -340 -5 -119 -5 -119 33 -230 22 -60 42
-138 46 -172 l7 -63 349 0 c192 0 349 2 349 4 0 3 -5 17 -10 31 -10 28 -7 28
48 8 18 -7 15 8 -7 31 -29 32 -89 150 -96 190 l-7 35 53 -29 c30 -16 58 -30
62 -30 5 0 -9 21 -31 48 -69 82 -122 165 -122 189 0 12 2 23 5 23 3 0 32 -13
65 -30 85 -43 210 -92 245 -95 17 -2 47 -11 68 -19 41 -18 48 -9 16 20 -20 17
-149 208 -178 262 -13 25 -10 26 38 12 19 -5 36 -8 39 -6 2 3 -9 18 -24 36
-88 98 -135 204 -171 386 -15 76 -15 106 -5 267 15 224 0 409 -48 587 -17 63
-31 121 -32 127 -1 8 -5 9 -12 4 -12 -10 -214 2 -331 19 -38 5 -127 11 -197
13 l-127 4 -29 -31z"/>
<path d="M1413 1157 c-23 -18 -53 -40 -67 -50 -14 -10 -26 -26 -26 -37 0 -22
47 -63 110 -95 l46 -23 33 20 c30 19 32 24 26 56 -10 55 -56 162 -69 161 -6 0
-30 -15 -53 -32z"/>
</g>
</svg>
