<?xml version="1.0" standalone="no"?>
<!DOCTYPE svg PUBLIC "-//W3C//DTD SVG 20010904//EN"
 "http://www.w3.org/TR/2001/REC-SVG-20010904/DTD/svg10.dtd">
<svg version="1.0" xmlns="http://www.w3.org/2000/svg"
 width="480.000000pt" height="360.000000pt" viewBox="0 0 480.000000 360.000000"
 preserveAspectRatio="xMidYMid meet">
<metadata>
Created by potrace 1.16, written by Peter Selinger 2001-2019
</metadata>
<rect width="1" height="360" fill="#000000"/>
<rect x="479" width="1" height="360" fill="#000000"/>
<rect width="480" height="1" fill="#000000"/>
<rect y="359" width="480" height="1" fill="#000000"/>
<g transform="translate(0.000000,360.000000) scale(0.100000,-0.100000)"
fill="#000000" stroke="none">
<path d="M0 1800 l0 -1800 896 2 897 3 22 105 c42 199 115 461 154 553 54 126
59 156 64 355 4 132 2 174 -8 180 -7 4 -22 26 -34 50 -23 45 -23 44 32 56 26
6 27 9 27 64 0 65 -10 132 -19 132 -3 0 -33 -53 -65 -117 -43 -85 -75 -134
-116 -175 -53 -55 -59 -58 -103 -58 -29 0 -64 8 -89 21 -78 40 -213 87 -298
104 -84 17 -120 35 -120 61 0 8 -14 21 -31 29 -22 12 -28 21 -24 35 5 16 -3
19 -82 25 -119 9 -254 43 -315 80 -68 40 -79 59 -52 86 l21 20 30 -25 c38 -32
46 -33 38 -5 -7 20 -4 21 21 16 16 -3 58 0 93 7 63 11 63 12 36 26 -39 21 -68
67 -71 114 -4 64 -31 149 -54 166 -13 10 -24 32 -27 58 -5 37 -2 45 27 72 27
25 39 30 62 25 23 -6 28 -3 28 13 0 10 -9 27 -20 37 -26 23 -44 80 -36 116 3
16 24 48 46 72 22 23 44 55 48 71 10 37 30 45 36 14 3 -13 7 -35 11 -50 6 -33
30 -36 46 -7 11 21 11 21 26 -7 8 -16 19 -50 25 -77 12 -59 36 -61 52 -3 15
53 29 55 51 6 11 -25 27 -43 40 -46 26 -6 85 -112 85 -151 0 -13 -12 -52 -26
-86 -16 -37 -28 -84 -29 -118 -2 -45 -9 -65 -34 -99 -18 -24 -37 -63 -43 -87
-9 -36 -16 -44 -40 -51 l-30 -8 49 -27 c50 -27 50 -27 68 -7 19 21 50 26 60
11 3 -5 21 -7 40 -4 28 4 48 -2 112 -40 97 -57 223 -111 233 -100 4 4 23 56
43 114 29 86 35 116 31 155 -6 49 -5 50 64 135 38 47 77 100 87 119 15 30 15
34 1 48 -15 15 -21 14 -71 -11 -76 -37 -95 -27 -95 48 0 29 -3 61 -7 70 -6 18
15 18 147 3 25 -3 25 -2 32 97 24 335 44 466 95 615 15 41 37 89 50 107 12 17
23 34 23 37 0 3 -21 -4 -46 -14 -51 -22 -80 -25 -89 -10 -4 6 -21 8 -41 4 -62
-11 -64 -5 -64 213 l0 195 68 -7 c105 -10 207 -41 332 -101 92 -44 120 -53
139 -46 13 4 48 5 78 1 53 -7 60 -5 152 41 115 57 150 72 259 110 80 28 112
30 112 6 0 -6 7 -58 15 -116 9 -58 16 -132 17 -164 1 -50 -2 -62 -21 -77 -13
-11 -36 -19 -51 -19 -19 0 -33 -8 -44 -25 -20 -30 -40 -31 -102 -5 -26 11 -51
19 -56 18 -4 -2 3 -19 16 -38 13 -19 38 -78 56 -129 27 -80 31 -103 25 -145
-4 -28 -7 -64 -6 -81 0 -44 68 -485 75 -492 3 -4 22 1 41 10 42 20 89 22 102
5 18 -23 24 -133 9 -154 -14 -18 -15 -18 -56 5 -23 13 -44 20 -47 17 -4 -3 10
-41 30 -83 44 -97 57 -143 57 -212 0 -30 7 -92 16 -138 20 -109 15 -149 -10
-68 -22 72 -77 218 -81 213 -1 -2 3 -43 11 -93 15 -101 19 -248 5 -227 -6 10
-10 6 -13 -13 -7 -35 50 -104 202 -246 104 -97 111 -106 107 -136 -4 -23 0
-36 14 -49 11 -10 40 -50 64 -89 43 -68 45 -75 51 -171 5 -91 4 -103 -18 -144
-27 -52 -85 -88 -156 -97 -42 -5 -52 -2 -78 20 l-29 25 30 12 c54 22 60 27 63
54 2 14 -8 55 -22 90 -16 39 -26 84 -26 114 0 70 -6 82 -44 82 -35 0 -61 23
-113 100 -17 25 -43 56 -57 69 l-26 24 0 -31 c0 -51 -17 -37 -24 19 -9 69 -29
51 -37 -34 -5 -47 -8 -56 -14 -39 -11 34 -22 27 -40 -28 l-16 -49 60 -168 c78
-214 199 -591 207 -643 l7 -40 848 0 849 0 0 1800 0 1800 -2400 0 -2400 0 0
-1800z"/>
<path d="M1090 1620 c-11 -7 -7 -10 18 -10 20 0 31 4 27 10 -8 13 -26 13 -45
0z"/>
<path d="M2111 1134 c0 -11 3 -14 6 -6 3 7 2 16 -1 19 -3 4 -6 -2 -5 -13z"/>
</g>
</svg>
