<?xml version="1.0" standalone="no"?>
<!DOCTYPE svg PUBLIC "-//W3C//DTD SVG 20010904//EN"
 "http://www.w3.org/TR/2001/REC-SVG-20010904/DTD/svg10.dtd">
<svg version="1.0" xmlns="http://www.w3.org/2000/svg"
 width="480.000000pt" height="360.000000pt" viewBox="0 0 480.000000 360.000000"
 preserveAspectRatio="xMidYMid meet">
<metadata>
Created by potrace 1.16, written by Peter Selinger 2001-2019
</metadata>
<rect width="1" height="360" fill="#000000"/>
<rect x="479" width="1" height="360" fill="#000000"/>
<rect width="480" height="1" fill="#000000"/>
<rect y="359" width="480" height="1" fill="#000000"/>
<g transform="translate(0.000000,360.000000) scale(0.100000,-0.100000)"
fill="#000000" stroke="none">
<path d="M1974 3464 c-21 -4 -41 -17 -61 -42 -26 -34 -29 -43 -27 -112 1 -41
3 -77 4 -80 1 -3 1 -32 0 -65 -1 -37 5 -72 14 -89 8 -16 13 -33 10 -38 -3 -4
0 -17 6 -29 10 -18 17 -20 58 -14 26 3 58 9 71 12 20 5 12 -9 -48 -87 -39 -50
-71 -99 -71 -108 1 -34 28 -55 79 -60 28 -2 55 -10 60 -16 5 -6 16 -63 24
-126 9 -63 25 -139 36 -168 12 -29 21 -54 21 -57 0 -2 -13 -6 -30 -10 -29 -6
-29 -7 -15 -35 21 -40 20 -44 -20 -63 -55 -26 -122 -94 -139 -140 -9 -23 -20
-76 -26 -117 -20 -148 -19 -145 -77 -148 -73 -4 -80 -17 -48 -92 l26 -62 -47
-141 c-32 -96 -80 -206 -151 -346 l-105 -205 18 -65 c10 -40 18 -110 19 -178
2 -85 6 -118 19 -137 9 -14 21 -60 27 -103 11 -83 34 -165 55 -199 12 -17 8
-41 -31 -179 -25 -87 -44 -160 -42 -162 2 -2 343 -2 758 -1 l755 3 -133 312
c-98 228 -144 351 -174 460 -22 81 -56 184 -76 228 -30 69 -35 90 -34 150 0
39 -4 124 -10 190 -11 116 -10 124 14 215 14 52 31 108 37 125 l11 30 19 -25
c17 -22 19 -45 18 -235 -1 -522 86 -815 345 -1160 49 -66 100 -128 113 -138
20 -15 24 -28 24 -68 0 -31 4 -48 10 -44 6 3 10 25 10 48 l0 42 21 -25 c19
-23 19 -23 9 -2 -9 19 -7 26 17 46 43 37 39 124 -14 283 -36 108 -39 124 -26
135 22 18 11 162 -17 224 -26 59 -25 66 5 113 l26 38 -78 169 -77 169 -3 115
c-3 136 -13 271 -21 284 -3 5 -7 21 -8 35 -10 86 -61 237 -124 367 -26 55 -52
117 -55 137 -9 46 3 117 15 97 19 -31 16 -1 -7 75 -13 44 -22 92 -19 107 4 18
-6 53 -25 99 -27 63 -29 75 -18 100 15 37 32 49 19 13 -15 -39 -4 -41 17 -2
12 23 18 54 17 106 0 69 1 72 24 72 23 0 61 34 62 56 0 6 13 35 29 65 16 30
41 90 56 134 15 44 32 84 36 89 13 15 11 39 -7 74 -17 35 -64 53 -184 73 -112
18 -268 -9 -301 -52 l-16 -22 -22 20 c-13 12 -36 24 -53 27 -47 9 -127 7 -149
-4 -14 -8 -19 -7 -19 3 0 25 -47 58 -116 83 -68 25 -215 39 -290 28z m785
-1628 c-5 -6 -9 7 -8 35 l1 44 8 -35 c5 -20 5 -39 -1 -44z m-4 -45 c3 -5 1
-12 -5 -16 -5 -3 -10 1 -10 9 0 18 6 21 15 7z"/>
</g>
</svg>
