<?xml version="1.0" standalone="no"?>
<!DOCTYPE svg PUBLIC "-//W3C//DTD SVG 20010904//EN"
 "http://www.w3.org/TR/2001/REC-SVG-20010904/DTD/svg10.dtd">
<svg version="1.0" xmlns="http://www.w3.org/2000/svg"
 width="480.000000pt" height="360.000000pt" viewBox="0 0 480.000000 360.000000"
 preserveAspectRatio="xMidYMid meet">
<metadata>
Created by potrace 1.16, written by Peter Selinger 2001-2019
</metadata>
<rect width="1" height="360" fill="#000000"/>
<rect x="479" width="1" height="360" fill="#000000"/>
<rect width="480" height="1" fill="#000000"/>
<rect y="359" width="480" height="1" fill="#000000"/>
<g transform="translate(0.000000,360.000000) scale(0.100000,-0.100000)"
fill="#000000" stroke="none">
<path d="M1614 2443 c-12 -2 -30 -13 -40 -24 -9 -10 -23 -19 -29 -19 -21 0
-38 -28 -31 -52 8 -32 38 -48 120 -63 362 -67 374 -70 281 -79 -143 -13 -202
-24 -280 -55 -89 -34 -159 -89 -149 -116 6 -15 24 -16 179 -10 188 8 368 -1
363 -17 -2 -6 -22 -17 -43 -26 -153 -58 -195 -77 -235 -110 -63 -52 -79 -73
-80 -105 l0 -29 53 7 c28 4 112 28 186 52 85 29 150 45 175 43 23 -1 51 -1 64
-1 12 1 22 -1 22 -3 0 -2 -19 -16 -42 -32 -92 -62 -110 -81 -139 -140 -32 -68
-35 -84 -16 -84 8 0 22 -9 31 -19 24 -26 40 -19 111 49 123 117 144 129 237
142 l84 11 69 -43 c39 -23 82 -51 97 -61 58 -40 131 -60 272 -74 162 -15 193
-24 198 -57 2 -15 11 -24 26 -26 28 -4 28 -13 -3 -45 -27 -26 -27 -45 -3 -109
12 -33 17 -35 148 -43 196 -11 455 -48 635 -90 55 -13 134 -31 175 -40 80 -18
194 -47 275 -70 192 -55 321 -84 393 -90 l82 -6 -2 372 -3 373 -185 42 c-102
24 -266 62 -365 85 -185 42 -501 124 -705 184 -146 42 -201 44 -246 10 l-33
-25 -117 35 c-64 20 -120 37 -123 40 -15 8 -453 138 -576 170 -71 18 -177 48
-235 65 -217 64 -496 103 -596 83z"/>
</g>
</svg>
