<?xml version="1.0" standalone="no"?>
<!DOCTYPE svg PUBLIC "-//W3C//DTD SVG 20010904//EN"
 "http://www.w3.org/TR/2001/REC-SVG-20010904/DTD/svg10.dtd">
<svg version="1.0" xmlns="http://www.w3.org/2000/svg"
 width="480.000000pt" height="360.000000pt" viewBox="0 0 480.000000 360.000000"
 preserveAspectRatio="xMidYMid meet">
<metadata>
Created by potrace 1.16, written by Peter Selinger 2001-2019
</metadata>
<rect width="1" height="360" fill="#000000"/>
<rect x="479" width="1" height="360" fill="#000000"/>
<rect width="480" height="1" fill="#000000"/>
<rect y="359" width="480" height="1" fill="#000000"/>
<g transform="translate(0.000000,360.000000) scale(0.100000,-0.100000)"
fill="#000000" stroke="none">
<path d="M0 1800 l0 -1800 2400 0 2400 0 0 1800 0 1800 -2400 0 -2400 0 0
-1800z m2666 362 c53 -27 122 -108 165 -192 29 -58 33 -74 33 -150 0 -47 -3
-95 -8 -106 -7 -19 -1 -25 54 -53 34 -17 74 -41 90 -52 15 -12 32 -19 38 -15
5 3 17 -3 27 -14 10 -11 43 -25 76 -32 54 -11 80 -28 44 -28 -8 0 -15 -4 -15
-9 0 -10 41 -50 75 -75 25 -18 11 -35 -15 -18 -32 20 -33 14 -3 -12 34 -29 24
-46 -12 -22 l-26 17 16 -25 c18 -28 15 -32 -15 -16 -15 8 -17 7 -12 -13 5 -20
4 -21 -12 -8 -22 19 -30 8 -15 -21 12 -23 12 -23 -9 -5 -11 11 -26 16 -31 12
-6 -3 -23 7 -37 24 -14 17 -35 31 -46 31 -11 0 -22 8 -25 20 -3 11 -12 20 -21
20 -9 0 -25 8 -36 18 -12 10 -57 40 -100 67 l-79 48 -81 -28 c-70 -23 -95 -27
-167 -24 -71 3 -95 9 -150 36 -64 32 -66 32 -119 19 -30 -8 -74 -17 -97 -20
-41 -6 -42 -5 -68 41 -14 26 -24 54 -23 62 3 17 8 18 70 20 l37 1 -22 34 c-12
18 -34 54 -49 80 -42 71 -69 83 -260 116 -37 7 -80 9 -97 5 -20 -4 -31 -3 -31
4 0 14 -37 14 -46 0 -5 -8 -8 -8 -13 0 -7 10 -87 2 -136 -14 -19 -6 -19 -6 -2
8 18 15 17 16 -15 19 l-33 4 30 14 30 13 -35 6 c-34 6 -34 7 -10 14 24 8 24 9
5 17 -22 9 -11 17 35 22 17 2 24 8 22 21 -2 9 2 17 8 17 5 0 10 6 10 13 0 8
11 19 25 25 14 6 25 17 25 23 0 6 13 3 33 -8 32 -19 71 -32 112 -39 55 -8 132
-25 178 -38 29 -8 69 -16 90 -18 38 -3 39 -2 57 46 11 27 34 65 52 83 53 55
97 63 308 60 166 -3 189 -5 226 -25z"/>
</g>
</svg>
