<?xml version="1.0" standalone="no"?>
<!DOCTYPE svg PUBLIC "-//W3C//DTD SVG 20010904//EN"
 "http://www.w3.org/TR/2001/REC-SVG-20010904/DTD/svg10.dtd">
<svg version="1.0" xmlns="http://www.w3.org/2000/svg"
 width="480.000000pt" height="360.000000pt" viewBox="0 0 480.000000 360.000000"
 preserveAspectRatio="xMidYMid meet">
<metadata>
Created by potrace 1.16, written by Peter Selinger 2001-2019
</metadata>
<rect width="1" height="360" fill="#000000"/>
<rect x="479" width="1" height="360" fill="#000000"/>
<rect width="480" height="1" fill="#000000"/>
<rect y="359" width="480" height="1" fill="#000000"/>
<g transform="translate(0.000000,360.000000) scale(0.100000,-0.100000)"
fill="#000000" stroke="none">
<path d="M0 2635 c0 -912 1 -965 18 -965 30 0 140 37 176 60 20 12 53 41 74
66 22 24 44 44 49 44 6 0 27 11 47 25 34 23 45 25 151 24 174 -1 232 33 243
142 3 28 0 60 -5 72 -6 12 -15 33 -21 47 -28 72 -168 200 -218 200 -11 0 -29
8 -40 19 -29 26 -63 43 -74 36 -6 -4 -22 3 -36 14 -15 12 -33 21 -41 21 -18 0
-93 38 -93 48 0 9 80 42 102 42 10 0 55 -11 102 -24 46 -14 136 -32 201 -42
111 -16 123 -20 224 -76 58 -33 130 -78 159 -100 35 -25 61 -38 73 -35 10 3
22 1 25 -5 4 -6 27 -19 51 -30 28 -12 43 -25 40 -33 -3 -7 6 -23 20 -34 23
-21 26 -21 49 -6 29 19 31 65 5 140 -14 42 -23 53 -58 70 -29 13 -43 26 -45
42 -2 19 -19 31 -82 58 -43 19 -118 59 -165 89 -69 43 -110 61 -197 85 -61 16
-144 41 -185 54 -41 14 -101 28 -134 32 -55 6 -64 11 -103 53 -23 25 -45 55
-48 66 -2 12 10 57 29 101 21 52 32 94 31 120 -1 24 6 57 20 85 30 58 40 100
25 100 -7 0 -10 13 -7 35 2 19 0 36 -4 37 -4 2 -4 18 2 37 8 29 7 36 -10 48
-20 14 -19 15 6 66 15 28 37 69 50 89 13 21 24 40 24 43 0 3 -97 5 -215 5
l-215 0 0 -965z"/>
<path d="M2400 1800 l0 -1800 934 0 935 0 15 53 c8 28 33 120 57 202 23 83 44
157 46 165 3 8 -7 2 -21 -15 -14 -16 -28 -26 -33 -22 -4 4 0 49 9 100 9 51 14
94 12 96 -2 2 -17 -11 -34 -29 -17 -18 -32 -31 -34 -29 -2 2 2 21 9 43 l13 38
-31 -7 c-18 -4 -44 -8 -58 -9 -14 -2 -65 -20 -115 -41 -61 -27 -108 -40 -150
-43 -56 -4 -63 -2 -95 26 -20 17 -53 68 -78 121 -41 82 -44 93 -32 115 14 25
49 55 244 205 59 46 116 98 127 115 17 29 24 32 69 33 32 0 55 -5 62 -13 8
-10 8 -14 0 -14 -8 0 -8 -6 -2 -18 5 -9 12 -26 16 -36 5 -18 9 -16 41 15 64
61 107 156 83 185 -6 8 -15 11 -20 8 -5 -3 -22 16 -38 42 -26 39 -30 55 -28
107 l1 61 49 30 c27 17 84 42 126 56 66 22 78 29 90 58 11 24 21 32 39 32 46
0 172 -118 172 -161 0 -14 -9 -19 -41 -21 l-40 -3 46 -60 c26 -33 49 -62 51
-64 2 -2 4 509 4 1137 l0 1142 -1200 0 -1200 0 0 -1800z"/>
<path d="M4736 1188 c4 -51 10 -97 14 -103 4 -5 8 -35 8 -65 1 -30 10 -82 20
-115 l20 -60 1 218 1 217 -35 0 -36 0 7 -92z"/>
</g>
</svg>
