<?xml version="1.0" standalone="no"?>
<!DOCTYPE svg PUBLIC "-//W3C//DTD SVG 20010904//EN"
 "http://www.w3.org/TR/2001/REC-SVG-20010904/DTD/svg10.dtd">
<svg version="1.0" xmlns="http://www.w3.org/2000/svg"
 width="480.000000pt" height="360.000000pt" viewBox="0 0 480.000000 360.000000"
 preserveAspectRatio="xMidYMid meet">
<metadata>
Created by potrace 1.16, written by Peter Selinger 2001-2019
</metadata>
<rect width="1" height="360" fill="#000000"/>
<rect x="479" width="1" height="360" fill="#000000"/>
<rect width="480" height="1" fill="#000000"/>
<rect y="359" width="480" height="1" fill="#000000"/>
<g transform="translate(0.000000,360.000000) scale(0.100000,-0.100000)"
fill="#000000" stroke="none">
<path d="M12 3588 c-9 -9 -12 -423 -12 -1800 l0 -1788 366 0 367 0 -6 38 c-14
85 -27 312 -22 372 13 160 32 264 65 355 10 28 24 68 31 90 25 83 115 249 191
353 70 96 246 264 347 331 164 109 350 189 540 232 119 28 379 37 515 18 151
-21 420 -18 531 5 208 43 440 145 594 261 164 123 224 180 320 305 58 75 161
239 161 256 0 5 11 31 24 59 83 173 139 519 117 719 -6 50 -15 115 -21 145 -5
29 -10 55 -10 57 0 2 -919 4 -2043 4 -1576 0 -2046 -3 -2055 -12z m2656 -42
c115 -58 184 -166 190 -297 6 -112 -23 -184 -103 -266 -54 -53 -71 -64 -134
-84 -209 -63 -399 47 -457 264 -25 94 8 223 77 301 74 85 156 117 284 112 73
-2 100 -8 143 -30z"/>
<path d="M2195 789 c-46 -8 -113 -37 -167 -71 -61 -39 -115 -114 -145 -203
-25 -75 -26 -85 -16 -160 12 -99 41 -161 109 -235 38 -41 73 -66 124 -89 70
-32 73 -33 188 -29 104 3 123 7 170 32 61 31 133 94 161 140 31 50 61 155 61
210 0 158 -101 313 -245 377 -53 24 -179 38 -240 28z"/>
</g>
</svg>
