<?xml version="1.0" standalone="no"?>
<!DOCTYPE svg PUBLIC "-//W3C//DTD SVG 20010904//EN"
 "http://www.w3.org/TR/2001/REC-SVG-20010904/DTD/svg10.dtd">
<svg version="1.0" xmlns="http://www.w3.org/2000/svg"
 width="480.000000pt" height="360.000000pt" viewBox="0 0 480.000000 360.000000"
 preserveAspectRatio="xMidYMid meet">
<metadata>
Created by potrace 1.16, written by Peter Selinger 2001-2019
</metadata>
<rect width="1" height="360" fill="#000000"/>
<rect x="479" width="1" height="360" fill="#000000"/>
<rect width="480" height="1" fill="#000000"/>
<rect y="359" width="480" height="1" fill="#000000"/>
<g transform="translate(0.000000,360.000000) scale(0.100000,-0.100000)"
fill="#000000" stroke="none">
<path d="M2485 3568 c-7 -18 -25 -44 -39 -57 -34 -32 -66 -120 -66 -182 0 -36
10 -71 33 -123 38 -81 41 -64 -33 -221 -26 -55 -57 -130 -69 -166 -16 -49 -28
-69 -46 -77 -33 -15 -46 -9 -85 40 -18 22 -48 46 -66 54 -30 12 -34 19 -34 50
0 88 -79 154 -150 124 -39 -16 -55 -55 -22 -55 12 0 22 -17 36 -59 15 -50 16
-62 5 -83 -12 -23 -11 -27 9 -43 32 -26 45 -67 33 -102 -7 -19 -7 -38 0 -55 8
-23 6 -29 -20 -52 -39 -34 -81 -98 -81 -125 0 -12 -12 -48 -26 -81 -14 -33
-27 -82 -30 -110 -4 -48 -3 -49 11 -25 13 22 14 23 15 5 1 -45 78 -174 94
-158 3 4 6 1 6 -5 0 -21 19 -13 22 10 3 21 5 20 36 -11 39 -39 40 -60 7 -91
-33 -31 -32 -46 5 -58 19 -7 34 -23 43 -44 8 -18 24 -42 37 -53 34 -31 50 -69
66 -161 17 -98 12 -114 -55 -177 -23 -21 -41 -44 -41 -50 0 -6 -11 -27 -25
-47 -16 -23 -28 -57 -32 -91 -3 -30 -16 -74 -28 -99 -13 -25 -33 -79 -45 -119
-20 -64 -22 -87 -17 -175 4 -55 9 -113 13 -127 5 -24 3 -27 -28 -32 -18 -2
-41 0 -51 5 -14 7 -15 12 -5 31 6 12 13 68 16 123 4 93 2 106 -21 158 -15 32
-47 77 -77 105 l-50 48 15 36 c8 20 15 45 15 56 0 26 -46 61 -82 61 -23 0 -33
-8 -54 -42 l-26 -43 -106 0 c-98 0 -112 -2 -167 -29 -72 -35 -162 -123 -195
-192 -20 -40 -25 -67 -26 -142 l-2 -94 -79 -39 c-43 -21 -94 -54 -114 -71
-150 -138 -214 -344 -159 -509 25 -74 42 -101 94 -156 l40 -43 321 1 320 0 48
56 c51 61 99 154 118 228 6 26 9 81 7 128 -5 88 -4 88 36 -16 11 -27 21 -37
33 -35 13 2 19 -5 21 -24 2 -19 -1 -28 -11 -28 -41 0 -97 -166 -66 -197 16
-16 -10 -93 -35 -103 -17 -7 -14 -9 17 -9 35 -1 39 2 57 44 11 25 26 45 33 45
20 0 45 41 68 113 17 53 18 68 8 114 -13 55 -3 83 27 83 8 0 20 16 28 35 17
40 18 41 51 19 23 -15 25 -22 25 -94 0 -57 -4 -81 -15 -90 -8 -7 -15 -25 -15
-40 0 -15 -8 -34 -19 -44 -10 -9 -26 -34 -36 -56 -10 -22 -23 -40 -30 -40 -23
0 -48 -38 -41 -65 l6 -25 599 0 600 0 19 53 c87 232 71 359 -108 837 -29 78
-31 89 -21 140 5 30 17 132 26 225 9 94 23 215 31 270 34 217 29 556 -12 748
-11 53 -12 72 -3 78 8 5 5 16 -10 38 -29 41 -18 39 30 -4 39 -35 68 -38 70 -6
16 171 -14 294 -104 433 -85 132 -149 174 -247 165 -30 -3 -64 -9 -74 -13 -17
-6 -18 -4 -12 20 12 47 25 217 26 317 0 88 3 101 31 154 32 60 29 78 -12 68
-16 -5 -19 0 -19 36 l0 41 -76 0 -75 0 -14 -32z m-355 -793 c7 -9 8 -15 2 -15
-5 0 -12 7 -16 15 -3 8 -4 15 -2 15 2 0 9 -7 16 -15z m-340 -2515 c0 -5 9 -10
21 -10 24 0 23 -15 -7 -85 -14 -33 -17 -37 -26 -22 -6 12 -16 16 -29 12 -24
-8 -24 -9 2 59 19 50 39 73 39 46z m170 -135 c0 -16 -6 -25 -15 -25 -16 0 -19
9 -9 34 9 25 24 19 24 -9z"/>
</g>
</svg>
