<?xml version="1.0" standalone="no"?>
<!DOCTYPE svg PUBLIC "-//W3C//DTD SVG 20010904//EN"
 "http://www.w3.org/TR/2001/REC-SVG-20010904/DTD/svg10.dtd">
<svg version="1.0" xmlns="http://www.w3.org/2000/svg"
 width="480.000000pt" height="360.000000pt" viewBox="0 0 480.000000 360.000000"
 preserveAspectRatio="xMidYMid meet">
<metadata>
Created by potrace 1.16, written by Peter Selinger 2001-2019
</metadata>
<rect width="1" height="360" fill="#000000"/>
<rect x="479" width="1" height="360" fill="#000000"/>
<rect width="480" height="1" fill="#000000"/>
<rect y="359" width="480" height="1" fill="#000000"/>
<g transform="translate(0.000000,360.000000) scale(0.100000,-0.100000)"
fill="#000000" stroke="none">
<path d="M0 1800 l0 -1800 1694 0 c1562 0 1694 1 1700 16 4 9 5 18 4 19 -2 1
-75 39 -163 85 -88 46 -223 119 -300 163 -77 45 -169 96 -205 115 -109 58
-130 89 -94 140 21 31 48 28 108 -12 114 -75 673 -366 704 -366 5 0 15 14 22
30 7 17 26 38 43 46 28 15 30 15 63 -17 28 -27 34 -40 34 -76 l0 -42 81 -39
81 -39 31 39 c18 21 58 59 90 84 31 25 57 53 57 63 0 9 5 22 11 28 7 7 10 35
7 72 -3 48 -10 67 -30 89 -23 25 -24 29 -12 67 20 65 16 138 -17 277 l-32 132
37 72 c26 50 36 82 34 105 -3 32 -6 35 -66 54 -109 35 -187 124 -177 202 5 42
41 110 65 125 27 17 25 54 -2 72 -13 8 -43 20 -68 26 -25 6 -110 42 -190 80
-80 38 -194 82 -253 99 -141 41 -195 69 -251 133 -29 33 -49 49 -55 43 -5 -6
-13 -35 -18 -65 -7 -49 -11 -55 -33 -55 -21 0 -25 7 -35 50 l-10 50 -350 6
c-852 14 -1754 -12 -2270 -67 l-60 -6 35 37 c45 48 86 68 190 94 231 56 931
91 1867 91 l592 0 6 38 c10 56 13 62 34 62 26 0 34 -15 33 -62 -2 -38 5 -47
24 -29 5 6 38 12 74 15 36 2 86 12 112 21 57 19 76 12 107 -39 12 -19 28 -36
36 -39 8 -4 70 -9 139 -13 118 -6 126 -6 132 12 14 39 89 126 148 173 85 67
142 98 254 138 53 19 127 46 163 59 92 33 224 43 268 20 30 -16 32 -21 27 -49
-15 -75 -18 -135 -7 -155 6 -12 40 -35 76 -52 77 -37 89 -61 55 -115 l-22 -36
23 -62 c17 -47 38 -77 85 -124 34 -34 59 -65 56 -68 -3 -3 -16 -5 -29 -5 -25
0 -25 3 10 -68 15 -31 15 -33 -6 -53 -12 -12 -32 -25 -44 -30 -35 -13 -29 -30
24 -67 40 -28 55 -77 56 -187 1 -67 -4 -90 -28 -143 -26 -58 -27 -68 -21 -150
10 -130 60 -362 111 -508 l44 -129 1 1302 0 1302 -53 83 c-76 119 -126 242
-198 491 l-13 47 -2268 0 -2268 0 0 -1800z m3880 1085 c0 -9 -9 -15 -25 -15
-18 0 -23 4 -19 15 4 8 15 15 25 15 10 0 19 -7 19 -15z"/>
<path d="M4776 3573 c19 -75 22 -79 23 -25 1 40 -2 52 -14 52 -12 0 -14 -7 -9
-27z"/>
<path d="M3320 1876 c0 -6 170 -76 186 -76 9 0 14 11 14 34 0 30 -4 34 -31 40
-35 7 -169 8 -169 2z"/>
<path d="M4758 103 c-24 -4 -28 -9 -28 -37 0 -35 25 -66 53 -66 14 0 17 10 17
55 0 30 -3 54 -7 54 -5 -1 -20 -4 -35 -6z"/>
</g>
</svg>
