<?xml version="1.0" standalone="no"?>
<!DOCTYPE svg PUBLIC "-//W3C//DTD SVG 20010904//EN"
 "http://www.w3.org/TR/2001/REC-SVG-20010904/DTD/svg10.dtd">
<svg version="1.0" xmlns="http://www.w3.org/2000/svg"
 width="480.000000pt" height="360.000000pt" viewBox="0 0 480.000000 360.000000"
 preserveAspectRatio="xMidYMid meet">
<metadata>
Created by potrace 1.16, written by Peter Selinger 2001-2019
</metadata>
<rect width="1" height="360" fill="#000000"/>
<rect x="479" width="1" height="360" fill="#000000"/>
<rect width="480" height="1" fill="#000000"/>
<rect y="359" width="480" height="1" fill="#000000"/>
<g transform="translate(0.000000,360.000000) scale(0.100000,-0.100000)"
fill="#000000" stroke="none">
<path d="M1895 3460 c-22 -22 -41 -51 -42 -63 -2 -12 -5 -38 -8 -57 -14 -97
-18 -142 -20 -220 -1 -47 1 -89 4 -95 2 -5 6 -20 7 -34 5 -40 19 -43 128 -25
l40 6 -56 -63 c-63 -72 -108 -136 -108 -153 0 -6 7 -19 14 -29 12 -16 31 -22
99 -31 16 -2 18 -21 21 -208 3 -197 11 -257 26 -212 6 17 9 15 24 -14 10 -19
16 -35 14 -36 -2 -1 -24 -14 -50 -29 -53 -31 -102 -77 -122 -116 -8 -15 -22
-69 -30 -121 -9 -52 -23 -115 -30 -140 l-13 -45 -63 4 c-58 3 -62 2 -55 -15
16 -40 35 -108 35 -127 0 -19 -23 -81 -121 -329 -21 -53 -72 -168 -114 -254
-41 -86 -75 -170 -75 -186 0 -15 7 -70 14 -121 8 -50 20 -166 26 -257 15 -249
29 -308 82 -367 20 -21 20 -60 1 -109 -4 -12 97 -14 732 -14 586 0 736 3 732
13 -3 6 -55 116 -116 242 -99 209 -113 244 -146 380 -35 145 -63 235 -87 279
-7 11 -13 62 -13 111 0 50 -4 140 -9 200 -9 116 -4 157 35 288 33 105 45 83
40 -74 -5 -224 26 -560 70 -731 45 -179 97 -298 229 -528 107 -187 140 -212
200 -152 48 48 49 112 3 304 l-16 66 27 24 c23 20 27 33 32 109 7 85 6 88 -26
144 l-33 58 23 42 c21 38 22 45 9 81 -19 57 -20 64 -20 124 0 30 -5 90 -10
134 -6 43 -10 108 -10 145 0 36 -7 100 -16 141 -8 41 -17 84 -19 95 -35 189
-101 350 -219 539 -82 131 -108 185 -96 200 13 16 -6 248 -21 257 -17 11 -2
105 22 139 27 38 31 38 20 0 -6 -21 -5 -28 2 -24 20 13 38 74 38 130 0 53 3
59 36 88 34 29 90 119 133 213 11 23 32 67 47 98 l28 57 -19 35 c-17 31 -30
39 -95 60 -82 27 -244 41 -324 29 -30 -5 -58 -18 -79 -36 -32 -27 -34 -28 -45
-10 -16 26 -115 54 -166 47 -38 -6 -44 -3 -68 27 -48 60 -205 127 -353 150
-37 5 -43 3 -80 -34z m135 -1115 c0 -19 -4 -35 -10 -35 -5 0 -10 16 -10 35 0
19 5 35 10 35 6 0 10 -16 10 -35z m545 -84 c-10 -9 -25 22 -24 49 0 23 1 22
15 -9 8 -19 12 -37 9 -40z"/>
</g>
</svg>
