<?xml version="1.0" standalone="no"?>
<!DOCTYPE svg PUBLIC "-//W3C//DTD SVG 20010904//EN"
 "http://www.w3.org/TR/2001/REC-SVG-20010904/DTD/svg10.dtd">
<svg version="1.0" xmlns="http://www.w3.org/2000/svg"
 width="480.000000pt" height="360.000000pt" viewBox="0 0 480.000000 360.000000"
 preserveAspectRatio="xMidYMid meet">
<metadata>
Created by potrace 1.16, written by Peter Selinger 2001-2019
</metadata>
<rect width="1" height="360" fill="#000000"/>
<rect x="479" width="1" height="360" fill="#000000"/>
<rect width="480" height="1" fill="#000000"/>
<rect y="359" width="480" height="1" fill="#000000"/>
<g transform="translate(0.000000,360.000000) scale(0.100000,-0.100000)"
fill="#000000" stroke="none">
<path d="M0 1800 l0 -1800 1045 0 1046 0 157 31 c86 17 161 34 165 38 4 5 -4
22 -18 40 -15 17 -24 31 -21 31 3 0 1 11 -4 25 -8 20 -6 29 8 43 15 15 26 18
58 14 24 -4 54 -44 54 -73 0 -24 -6 -33 -33 -44 -17 -8 -27 -15 -22 -16 50 -6
157 15 375 76 194 53 183 47 239 135 28 43 51 83 51 88 0 5 -23 19 -51 31
l-51 22 -15 -20 c-19 -27 -64 -27 -89 0 -12 14 -18 34 -18 61 l1 40 -151 73
c-161 79 -373 190 -393 207 -19 15 -16 52 5 71 17 15 22 14 72 -14 77 -42 471
-236 495 -243 15 -4 23 0 30 17 6 12 23 28 39 36 26 12 30 11 53 -12 16 -15
26 -37 27 -58 1 -31 6 -35 69 -62 l67 -30 49 48 c27 26 56 52 65 57 23 13 46
73 46 119 0 28 -6 42 -22 53 l-21 15 18 55 c18 54 18 59 1 183 l-18 128 26 55
c14 30 26 60 26 65 0 6 -21 21 -47 35 -26 14 -58 40 -70 59 -42 62 -22 155 41
196 24 16 24 18 10 40 -9 13 -25 25 -37 27 -15 2 -22 10 -22 26 0 19 -11 28
-60 48 -80 33 -175 62 -258 80 -101 21 -163 51 -206 100 -21 24 -45 44 -54 44
-16 0 -27 -29 -27 -72 0 -44 -27 -35 -37 12 l-8 40 -220 6 c-643 18 -1716 -11
-1917 -52 -34 -7 -36 5 -6 33 70 64 195 92 493 113 304 21 483 25 1057 25
l598 0 0 22 c0 31 18 75 29 69 4 -3 12 -29 15 -58 7 -47 9 -51 21 -35 8 11 28
19 57 20 24 2 48 6 53 9 6 3 31 9 56 13 45 7 47 6 68 -28 18 -29 28 -35 67
-41 96 -13 109 -9 139 35 69 98 211 197 310 215 22 4 72 20 111 35 86 34 199
48 244 29 32 -13 35 -25 20 -80 -17 -63 -2 -95 60 -127 30 -16 56 -36 58 -44
1 -9 -14 -39 -33 -68 -45 -66 -42 -87 24 -153 36 -36 44 -48 30 -48 -23 0 -24
-10 -2 -55 l17 -36 -29 -24 -30 -24 44 -44 c40 -41 44 -50 48 -108 6 -68 -7
-110 -47 -160 -34 -41 -39 -87 -24 -216 16 -138 43 -272 85 -419 28 -97 29
-107 15 -129 -10 -15 -29 -25 -56 -30 -40 -7 -51 -24 -27 -43 8 -6 47 2 127
29 151 50 592 202 652 225 47 18 48 18 71 -4 13 -12 26 -22 30 -22 4 0 7 429
7 954 l0 953 -197 6 c-214 6 -302 22 -405 72 -122 58 -190 164 -278 430 -24
73 -42 109 -66 133 -32 32 -33 34 -18 58 12 18 25 24 53 24 20 0 41 -4 47 -8
20 -13 47 -76 76 -181 33 -118 46 -146 90 -196 37 -43 71 -61 157 -86 98 -28
342 -25 493 7 25 5 26 7 16 37 -6 18 -17 41 -24 52 -7 11 -18 53 -25 93 -10
58 -9 87 1 145 7 40 18 79 25 87 45 57 55 92 55 181 l0 89 -2400 0 -2400 0 0
-1800z m3645 950 c3 -6 -1 -13 -10 -16 -19 -8 -30 0 -20 15 8 14 22 14 30 1z"/>
<path d="M2955 1933 c18 -19 78 -34 89 -23 14 14 5 19 -50 26 -32 4 -46 3 -39
-3z"/>
<path d="M4630 529 c-85 -28 -195 -63 -245 -79 -170 -53 -410 -132 -413 -135
-2 -2 4 -35 14 -74 13 -49 24 -73 39 -80 29 -14 173 -74 294 -121 l103 -40
189 0 189 0 0 290 c0 160 -3 290 -7 290 -5 0 -78 -23 -163 -51z"/>
</g>
</svg>
