<?xml version="1.0" standalone="no"?>
<!DOCTYPE svg PUBLIC "-//W3C//DTD SVG 20010904//EN"
 "http://www.w3.org/TR/2001/REC-SVG-20010904/DTD/svg10.dtd">
<svg version="1.0" xmlns="http://www.w3.org/2000/svg"
 width="480.000000pt" height="360.000000pt" viewBox="0 0 480.000000 360.000000"
 preserveAspectRatio="xMidYMid meet">
<metadata>
Created by potrace 1.16, written by Peter Selinger 2001-2019
</metadata>
<rect width="1" height="360" fill="#000000"/>
<rect x="479" width="1" height="360" fill="#000000"/>
<rect width="480" height="1" fill="#000000"/>
<rect y="359" width="480" height="1" fill="#000000"/>
<g transform="translate(0.000000,360.000000) scale(0.100000,-0.100000)"
fill="#000000" stroke="none">
<path d="M1126 3578 c-3 -13 -6 -34 -6 -47 0 -21 -3 -23 -30 -17 -43 8 -53
-20 -17 -48 15 -12 27 -27 27 -34 0 -7 7 -12 15 -12 9 0 17 -14 21 -40 4 -22
13 -48 20 -57 12 -16 15 -16 24 -3 6 8 13 27 17 43 4 20 9 25 18 17 6 -5 31
-16 54 -25 38 -13 42 -13 48 2 3 8 2 21 -3 28 -5 7 -18 24 -28 39 l-19 27 30
32 c36 38 56 74 45 81 -12 7 -90 -12 -117 -30 -22 -14 -24 -14 -41 23 -22 45
-49 54 -58 21z"/>
<path d="M2429 2991 c-32 -32 -34 -49 -19 -133 9 -46 4 -114 -30 -409 -22
-195 -43 -361 -45 -370 -3 -9 -24 -24 -46 -34 -48 -22 -62 -44 -54 -88 6 -30
-8 -101 -35 -175 -7 -19 -9 -51 -6 -77 7 -41 20 -58 73 -90 4 -2 -136 -809
-153 -881 -8 -37 -26 -100 -40 -139 -15 -44 -24 -88 -22 -115 3 -40 1 -44 -32
-62 -77 -43 -101 -82 -75 -121 14 -21 14 -28 0 -60 -8 -20 -12 -43 -9 -52 4
-9 -1 -24 -10 -34 -9 -9 -19 -33 -22 -52 -4 -19 -13 -43 -21 -54 -32 -47 -84
-45 1139 -45 l1151 0 -7 127 c-5 110 -56 609 -85 842 -8 62 -6 90 15 187 48
226 93 512 103 649 15 211 -21 500 -72 578 -8 12 -24 60 -36 106 -11 46 -32
102 -45 125 -97 164 -299 280 -541 311 -82 10 -92 14 -98 36 -5 18 -11 20 -32
15 -15 -4 -39 -15 -54 -25 -14 -11 -50 -22 -80 -26 -86 -10 -163 -55 -291
-170 -41 -37 -77 -72 -79 -78 -2 -7 -18 -24 -35 -39 l-31 -28 28 10 c16 6 37
15 48 20 27 15 24 3 -16 -63 -39 -65 -41 -68 -21 -61 12 4 13 -2 5 -33 -5 -21
-8 -58 -8 -83 0 -44 0 -44 14 -20 l14 25 1 -35 c1 -19 5 -44 10 -55 7 -18 8
-18 15 8 4 15 11 27 15 27 13 0 19 -54 8 -68 -6 -6 -24 -16 -41 -20 -46 -12
-54 -33 -33 -81 16 -34 17 -45 6 -70 -7 -17 -9 -39 -5 -48 4 -10 9 -52 12 -93
6 -91 18 -107 87 -115 69 -9 79 -16 70 -49 -7 -29 -6 -29 -74 -11 l-25 6 25
-20 c64 -51 61 -37 29 -136 -25 -81 -32 -92 -64 -110 -53 -28 -88 -73 -80
-103 7 -28 -41 -111 -55 -96 -4 5 -31 60 -59 122 -34 77 -58 149 -75 230 -33
153 -45 185 -99 263 l-46 66 9 124 c23 286 60 551 96 689 24 89 25 96 10 128
-31 64 -127 82 -177 33z m116 -1596 c24 -41 47 -105 59 -161 8 -38 3 -41 -104
-58 l-74 -12 -24 -47 c-33 -64 -39 -183 -18 -346 14 -107 52 -302 71 -368 5
-16 1 -24 -14 -33 -17 -8 -41 -6 -111 11 -52 13 -90 27 -90 34 0 7 7 32 15 55
9 27 15 79 15 139 0 56 11 161 25 247 32 196 114 639 122 660 4 12 16 5 55
-33 27 -26 60 -66 73 -88z"/>
</g>
</svg>
