<?xml version="1.0" standalone="no"?>
<!DOCTYPE svg PUBLIC "-//W3C//DTD SVG 20010904//EN"
 "http://www.w3.org/TR/2001/REC-SVG-20010904/DTD/svg10.dtd">
<svg version="1.0" xmlns="http://www.w3.org/2000/svg"
 width="480.000000pt" height="360.000000pt" viewBox="0 0 480.000000 360.000000"
 preserveAspectRatio="xMidYMid meet">
<metadata>
Created by potrace 1.16, written by Peter Selinger 2001-2019
</metadata>
<rect width="1" height="360" fill="#000000"/>
<rect x="479" width="1" height="360" fill="#000000"/>
<rect width="480" height="1" fill="#000000"/>
<rect y="359" width="480" height="1" fill="#000000"/>
<g transform="translate(0.000000,360.000000) scale(0.100000,-0.100000)"
fill="#000000" stroke="none">
<path d="M0 1800 l0 -1800 1009 0 1008 0 7 123 c4 67 18 188 32 268 20 117 23
154 15 190 -14 59 -14 163 0 210 10 30 9 50 -3 96 -11 39 -16 112 -17 223 -2
194 -5 217 -39 277 l-25 46 -20 -29 c-11 -16 -53 -61 -92 -101 -103 -103 -111
-104 -294 -43 -80 26 -182 53 -226 59 -118 17 -123 19 -139 50 -9 16 -27 32
-41 35 -23 6 -25 10 -19 41 7 38 24 29 -146 72 -36 9 -96 31 -133 50 -72 36
-167 118 -167 146 0 24 19 31 39 13 24 -22 32 -20 27 7 -2 12 1 33 6 47 9 24
10 24 24 6 8 -11 14 -27 14 -36 0 -9 8 -25 19 -34 18 -16 19 -15 25 24 8 53
30 52 48 -2 16 -52 48 -63 66 -23 14 31 32 33 32 2 0 -31 18 -47 55 -47 18 0
54 -14 85 -34 54 -34 55 -34 75 -16 15 14 25 16 35 9 8 -5 31 -7 51 -3 29 4
54 -3 130 -40 110 -53 282 -111 287 -97 2 5 35 63 74 128 58 97 70 125 69 156
-2 41 14 61 142 173 41 35 47 45 47 80 0 36 6 45 80 116 67 63 80 82 80 108 0
27 -2 30 -19 20 -32 -16 -70 -12 -89 11 -9 12 -28 31 -41 43 -13 12 -27 31
-32 44 -5 12 -20 27 -34 32 -29 11 -31 22 -10 40 22 19 17 80 -7 80 -6 0 -5
-7 2 -15 23 -28 0 -29 -28 -2 -16 15 -38 27 -50 27 -27 0 -81 57 -82 86 0 28
-10 36 -28 21 -13 -10 -15 -9 -9 7 4 10 19 59 33 108 37 127 58 170 105 213
l42 37 -17 76 c-13 61 -14 77 -4 84 19 12 123 10 152 -3 43 -20 71 -5 96 53
12 29 39 77 58 107 l36 54 18 -23 18 -22 42 36 c23 20 47 36 54 36 34 0 161
-191 191 -288 15 -47 15 -55 1 -85 -15 -32 -15 -33 24 -77 105 -118 154 -292
214 -760 15 -121 25 -157 92 -340 131 -360 132 -362 131 -420 l0 -55 -23 39
c-28 44 -30 40 -41 -60 -5 -47 -3 -69 9 -93 32 -60 31 -109 -4 -217 -42 -133
-67 -243 -76 -334 -8 -86 -16 -108 -48 -120 -26 -10 -36 -43 -36 -129 0 -31
-5 -75 -10 -97 -9 -39 -13 -147 -11 -301 l1 -63 980 0 980 0 0 1800 0 1800
-2400 0 -2400 0 0 -1800z"/>
<path d="M2087 1158 c8 -88 22 -117 22 -52 1 62 -8 114 -20 114 -5 0 -6 -28
-2 -62z"/>
</g>
</svg>
