<?xml version="1.0" standalone="no"?>
<!DOCTYPE svg PUBLIC "-//W3C//DTD SVG 20010904//EN"
 "http://www.w3.org/TR/2001/REC-SVG-20010904/DTD/svg10.dtd">
<svg version="1.0" xmlns="http://www.w3.org/2000/svg"
 width="480.000000pt" height="360.000000pt" viewBox="0 0 480.000000 360.000000"
 preserveAspectRatio="xMidYMid meet">
<metadata>
Created by potrace 1.16, written by Peter Selinger 2001-2019
</metadata>
<rect width="1" height="360" fill="#000000"/>
<rect x="479" width="1" height="360" fill="#000000"/>
<rect width="480" height="1" fill="#000000"/>
<rect y="359" width="480" height="1" fill="#000000"/>
<g transform="translate(0.000000,360.000000) scale(0.100000,-0.100000)"
fill="#000000" stroke="none">
<path d="M2290 2324 c-311 -36 -439 -74 -800 -236 -529 -238 -677 -283 -1060
-324 -91 -9 -168 -20 -172 -23 -4 -4 59 -15 140 -25 279 -34 287 -36 987 -273
259 -87 502 -166 541 -176 315 -75 681 -87 969 -30 189 37 420 121 745 271
190 88 358 152 450 173 65 15 247 36 378 44 61 4 112 11 112 16 0 5 -12 9 -26
9 -53 0 -311 50 -404 78 -52 16 -198 69 -325 117 -126 48 -333 124 -460 170
-530 191 -586 205 -855 210 -102 2 -201 1 -220 -1z m243 -90 c176 -57 234
-104 314 -253 20 -36 42 -73 50 -82 11 -13 11 -44 2 -174 l-11 -158 -46 -56
c-108 -133 -166 -191 -202 -201 -19 -6 -86 -22 -149 -36 l-114 -25 -72 25
c-40 14 -106 42 -147 61 -68 33 -80 42 -124 107 -90 132 -114 190 -114 271 0
99 25 235 48 261 10 12 28 37 40 56 11 19 49 63 84 96 54 53 74 65 143 88 44
15 107 30 140 35 33 5 64 9 68 10 4 0 45 -11 90 -25z"/>
</g>
</svg>
