<?xml version="1.0" standalone="no"?>
<!DOCTYPE svg PUBLIC "-//W3C//DTD SVG 20010904//EN"
 "http://www.w3.org/TR/2001/REC-SVG-20010904/DTD/svg10.dtd">
<svg version="1.0" xmlns="http://www.w3.org/2000/svg"
 width="480.000000pt" height="360.000000pt" viewBox="0 0 480.000000 360.000000"
 preserveAspectRatio="xMidYMid meet">
<metadata>
Created by potrace 1.16, written by Peter Selinger 2001-2019
</metadata>
<rect width="1" height="360" fill="#000000"/>
<rect x="479" width="1" height="360" fill="#000000"/>
<rect width="480" height="1" fill="#000000"/>
<rect y="359" width="480" height="1" fill="#000000"/>
<g transform="translate(0.000000,360.000000) scale(0.100000,-0.100000)"
fill="#000000" stroke="none">
<path d="M511 3348 c-13 -7 -29 -29 -35 -48 -9 -30 -31 -49 -70 -63 -5 -2 -1
-15 9 -30 15 -24 16 -33 5 -71 -15 -53 -37 -75 -155 -154 -76 -50 -99 -61
-149 -66 -32 -4 -72 -14 -87 -23 l-29 -17 0 -314 0 -313 28 -35 c15 -18 32
-34 38 -34 21 0 47 -53 75 -149 22 -75 35 -101 65 -132 21 -21 40 -36 42 -34
3 3 11 -4 19 -15 18 -26 33 -26 26 0 -6 23 -6 23 36 9 37 -13 39 -22 6 -43
-13 -9 -40 -33 -60 -55 -25 -27 -47 -40 -74 -45 -42 -6 -59 -22 -90 -83 -26
-52 -76 -126 -96 -143 -19 -16 -19 -48 0 -94 10 -24 12 -42 6 -54 -20 -38 -23
-109 -6 -146 17 -36 13 -116 -6 -116 -4 0 -9 -237 -9 -540 l0 -540 660 0 660
0 -11 28 c-6 15 -23 61 -39 102 -77 209 -112 268 -206 341 -37 30 -58 53 -57
65 2 25 -15 54 -32 54 -23 0 -28 20 -9 41 10 11 37 28 61 39 l44 19 -16 37
c-9 23 -15 68 -15 123 0 54 -10 134 -27 218 l-27 132 24 50 c13 28 24 72 26
98 1 27 5 67 9 90 13 75 -54 212 -148 301 -37 35 -46 50 -41 66 9 31 13 32 29
10 14 -19 15 -18 21 4 8 27 12 27 37 5 19 -17 19 -17 12 7 -7 21 -6 23 7 13
11 -10 17 -6 31 20 37 71 58 133 63 186 7 72 -25 217 -72 326 -18 45 -34 87
-34 96 0 24 40 91 81 136 45 49 49 67 15 61 -20 -4 -26 0 -28 16 -3 18 -12 22
-57 26 -56 5 -65 12 -76 63 -4 22 -9 26 -19 18 -10 -9 -32 11 -97 85 -92 105
-98 114 -75 114 19 0 30 20 49 94 14 52 14 61 1 81 -8 13 -33 30 -55 39 -21 9
-39 20 -39 25 0 5 -13 14 -29 19 -24 9 -30 18 -37 59 -10 53 -29 64 -73 41z
m329 -1545 c0 -7 -7 -13 -16 -13 -11 0 -14 5 -10 16 3 9 6 21 6 27 0 16 20
-14 20 -30z"/>
<path d="M4038 2967 c-5 -10 -8 -28 -8 -40 -1 -20 -2 -20 -16 6 -19 36 -35 35
-28 -3 6 -27 3 -31 -39 -51 -41 -20 -44 -24 -34 -43 7 -12 16 -24 21 -27 5 -4
7 -11 5 -17 -9 -22 -215 -232 -229 -232 -8 0 -37 -12 -65 -25 -27 -14 -58 -25
-67 -25 -24 0 -24 -2 22 -62 22 -29 42 -66 45 -83 7 -35 -47 -254 -71 -291 -9
-13 -35 -40 -58 -59 -31 -27 -38 -37 -27 -44 9 -6 10 -11 2 -15 -20 -13 -12
-28 12 -20 50 16 52 16 41 7 -6 -4 -18 -22 -26 -40 -15 -30 -15 -32 11 -57 15
-14 32 -26 38 -26 6 0 18 -14 27 -30 14 -29 14 -31 -12 -44 -15 -7 -43 -17
-62 -21 -72 -15 -78 -43 -20 -100 26 -25 49 -62 66 -107 14 -38 37 -82 51 -98
l25 -30 -11 -120 c-10 -107 -15 -129 -47 -193 -20 -40 -45 -84 -55 -98 -21
-29 -20 -30 65 -64 l40 -16 -25 -16 c-32 -23 -39 -34 -30 -52 6 -9 -5 -39 -30
-85 -43 -79 -57 -134 -94 -376 -15 -91 -37 -204 -51 -252 -13 -48 -24 -94 -24
-102 0 -14 58 -16 551 -16 521 0 551 1 544 18 -4 9 -41 121 -82 247 -113 348
-133 401 -175 468 -73 118 -74 120 -52 169 10 23 37 70 58 103 22 33 55 93 74
133 34 72 36 74 108 109 48 23 82 33 97 29 12 -3 47 -28 77 -56 57 -53 136
-100 167 -100 10 0 26 7 36 14 15 12 17 31 16 154 0 138 -1 140 -24 146 -36 9
-38 33 -4 53 l29 18 -2 185 -3 185 -38 3 c-40 3 -97 -28 -97 -53 0 -27 -19
-25 -85 6 -36 17 -99 37 -140 44 -56 9 -91 23 -144 56 -71 44 -80 53 -61 64 5
3 7 18 4 33 -3 17 1 34 11 47 9 11 14 14 10 8 -11 -22 21 -14 49 12 15 14 33
25 41 25 7 0 17 9 20 20 3 11 10 20 14 20 4 0 16 18 26 39 17 38 17 41 -4 96
l-21 56 32 61 c18 33 45 69 61 80 28 20 35 42 16 54 -6 3 -16 1 -21 -4 -14
-14 -63 10 -72 33 -4 12 -16 16 -44 13 -37 -3 -44 2 -150 104 -76 74 -106 108
-96 112 12 5 12 12 -5 44 -13 25 -16 43 -10 53 15 24 10 33 -9 16 -27 -24 -31
-22 -34 26 -2 30 -5 37 -10 24z m176 -1083 l-7 30 39 -24 c58 -34 59 -37 44
-66 -13 -24 -19 -26 -61 -22 -49 5 -128 50 -98 56 9 2 22 15 28 29 l12 27 25
-30 24 -29 -6 29z m243 -110 c59 -34 64 -39 58 -63 -9 -36 -24 -51 -49 -51
-40 0 -51 15 -37 47 11 25 10 29 -9 45 -12 10 -31 18 -41 18 -31 0 -23 32 9
39 2 1 33 -15 69 -35z"/>
</g>
</svg>
