<?xml version="1.0" standalone="no"?>
<!DOCTYPE svg PUBLIC "-//W3C//DTD SVG 20010904//EN"
 "http://www.w3.org/TR/2001/REC-SVG-20010904/DTD/svg10.dtd">
<svg version="1.0" xmlns="http://www.w3.org/2000/svg"
 width="480.000000pt" height="360.000000pt" viewBox="0 0 480.000000 360.000000"
 preserveAspectRatio="xMidYMid meet">
<metadata>
Created by potrace 1.16, written by Peter Selinger 2001-2019
</metadata>
<rect width="1" height="360" fill="#000000"/>
<rect x="479" width="1" height="360" fill="#000000"/>
<rect width="480" height="1" fill="#000000"/>
<rect y="359" width="480" height="1" fill="#000000"/>
<g transform="translate(0.000000,360.000000) scale(0.100000,-0.100000)"
fill="#000000" stroke="none">
<path d="M1362 2948 c-7 -7 -12 -26 -12 -44 0 -28 -5 -33 -42 -47 -24 -8 -53
-18 -66 -22 -18 -5 -21 -11 -16 -33 16 -66 139 -246 216 -316 46 -42 204 -216
278 -306 25 -30 47 -57 50 -60 17 -15 116 -151 150 -205 11 -16 26 -39 34 -50
15 -20 13 -20 -82 -20 -94 0 -100 -1 -185 -43 -107 -53 -147 -99 -147 -171 0
-45 -1 -47 -71 -101 -86 -67 -110 -97 -174 -220 l-49 -95 -1 -172 c0 -169 0
-172 25 -198 37 -40 59 -48 125 -50 53 -1 97 -12 144 -35 8 -3 28 -30 43 -59
16 -29 62 -101 102 -159 40 -59 102 -150 137 -202 35 -52 66 -97 69 -100 3 -3
27 -34 54 -70 27 -36 72 -89 100 -117 l50 -53 726 0 725 1 -41 37 c-698 642
-646 592 -640 621 19 90 29 194 30 316 1 125 -2 151 -27 239 -16 55 -35 116
-42 135 -7 20 -28 74 -45 121 -99 264 -155 347 -250 370 -42 10 -55 19 -92 68
-23 32 -79 97 -123 146 -44 49 -118 132 -165 186 -47 53 -133 149 -191 213
-59 63 -149 167 -202 229 -143 171 -276 278 -346 278 -20 0 -42 -5 -49 -12z"/>
</g>
</svg>
