<?xml version="1.0" standalone="no"?>
<!DOCTYPE svg PUBLIC "-//W3C//DTD SVG 20010904//EN"
 "http://www.w3.org/TR/2001/REC-SVG-20010904/DTD/svg10.dtd">
<svg version="1.0" xmlns="http://www.w3.org/2000/svg"
 width="480.000000pt" height="360.000000pt" viewBox="0 0 480.000000 360.000000"
 preserveAspectRatio="xMidYMid meet">
<metadata>
Created by potrace 1.16, written by Peter Selinger 2001-2019
</metadata>
<rect width="1" height="360" fill="#000000"/>
<rect x="479" width="1" height="360" fill="#000000"/>
<rect width="480" height="1" fill="#000000"/>
<rect y="359" width="480" height="1" fill="#000000"/>
<g transform="translate(0.000000,360.000000) scale(0.100000,-0.100000)"
fill="#000000" stroke="none">
<path d="M0 2309 c0 -1224 1 -1290 18 -1285 57 17 706 74 937 82 88 3 170 7
182 10 13 2 38 27 60 60 70 104 133 206 133 214 0 5 -29 30 -65 56 -35 26 -66
53 -69 60 -5 12 61 118 111 179 14 17 75 84 137 150 156 166 174 187 253 295
74 101 165 244 256 401 30 53 67 115 81 137 14 23 26 45 26 50 0 4 13 28 28
53 16 24 48 80 72 124 23 44 52 90 62 102 16 17 47 111 48 145 0 3 -27 4 -59
1 -83 -8 -122 2 -169 42 -71 61 -121 176 -146 335 l-12 75 -942 3 -942 2 0
-1291z"/>
<path d="M3122 3533 c-7 -38 -24 -115 -37 -173 -13 -58 -52 -226 -86 -375 -33
-148 -69 -295 -79 -327 -11 -35 -50 -103 -106 -185 -325 -468 -483 -755 -585
-1063 -26 -80 -57 -170 -69 -200 -37 -95 -41 -87 42 -94 40 -3 123 -8 183 -12
61 -3 177 -12 260 -19 82 -8 151 -12 154 -9 2 2 12 25 21 51 40 114 369 599
437 646 44 30 51 54 21 75 -12 9 -43 35 -68 58 l-45 42 22 45 c45 92 112 188
273 393 177 225 250 339 394 616 71 137 205 417 263 548 9 19 18 38 20 43 2 4
-222 7 -499 7 l-503 0 -13 -67z"/>
<path d="M4725 2750 c-164 -299 -241 -471 -315 -710 -23 -74 -52 -164 -65
-200 -13 -36 -26 -78 -30 -95 -8 -38 -94 -215 -134 -277 -30 -47 -32 -48 -80
-48 l-50 0 6 -102 c7 -126 -11 -358 -31 -416 -12 -33 -13 -44 -3 -47 7 -2 100
-27 207 -55 107 -29 211 -58 230 -65 19 -7 96 -32 170 -54 74 -23 143 -46 153
-51 16 -10 17 46 17 1115 0 619 -2 1125 -4 1125 -3 0 -34 -54 -71 -120z"/>
<path d="M3081 1199 c-14 -5 -45 -26 -69 -46 -68 -56 -77 -103 -18 -103 17 -1
61 -7 99 -14 67 -13 67 -13 73 10 7 26 -13 133 -28 152 -12 14 -24 14 -57 1z"/>
<path d="M1971 629 c-5 -14 -18 -68 -29 -121 -27 -129 -39 -152 -81 -156 -54
-5 -71 18 -71 100 0 51 -3 69 -12 66 -13 -5 -52 -131 -64 -208 -5 -29 -17 -54
-35 -72 -24 -25 -30 -27 -58 -17 -17 6 -35 19 -40 28 -17 31 -24 110 -12 140
7 15 11 50 9 77 l-4 49 -17 -38 c-10 -20 -26 -88 -37 -150 -24 -145 -51 -171
-135 -131 -56 26 -70 98 -35 180 14 31 20 64 18 93 l-3 46 -22 -46 c-28 -59
-80 -214 -88 -261 -3 -21 -13 -44 -21 -53 -19 -19 -102 -20 -127 0 -30 22 -33
87 -8 131 20 34 81 285 81 334 0 16 -7 20 -35 20 -48 0 -68 -34 -76 -127 -5
-63 -10 -78 -34 -103 -16 -17 -39 -30 -51 -30 -39 0 -49 26 -54 144 l-5 110
-50 -2 c-113 -5 -480 -34 -610 -47 -77 -8 -168 -17 -202 -21 l-63 -6 0 -279 0
-279 2400 0 2400 0 0 68 0 68 -107 37 c-338 115 -936 277 -1025 277 -22 0 -46
-18 -110 -85 l-83 -85 -66 0 -66 0 -27 -41 c-34 -50 -116 -92 -173 -87 -35 3
-38 6 -41 36 l-3 32 -33 -25 c-47 -36 -87 -42 -110 -16 -28 30 -17 82 44 208
29 59 58 122 66 139 l13 32 -77 11 c-146 21 -467 52 -632 61 -91 5 -215 12
-277 16 l-112 7 -10 -24z"/>
</g>
</svg>
