<?xml version="1.0" standalone="no"?>
<!DOCTYPE svg PUBLIC "-//W3C//DTD SVG 20010904//EN"
 "http://www.w3.org/TR/2001/REC-SVG-20010904/DTD/svg10.dtd">
<svg version="1.0" xmlns="http://www.w3.org/2000/svg"
 width="480.000000pt" height="360.000000pt" viewBox="0 0 480.000000 360.000000"
 preserveAspectRatio="xMidYMid meet">
<metadata>
Created by potrace 1.16, written by Peter Selinger 2001-2019
</metadata>
<rect width="1" height="360" fill="#000000"/>
<rect x="479" width="1" height="360" fill="#000000"/>
<rect width="480" height="1" fill="#000000"/>
<rect y="359" width="480" height="1" fill="#000000"/>
<g transform="translate(0.000000,360.000000) scale(0.100000,-0.100000)"
fill="#000000" stroke="none">
<path d="M2320 2639 c-15 -27 -12 -79 7 -134 11 -32 13 -50 6 -52 -6 -2 -55
-38 -110 -79 -54 -41 -116 -87 -138 -102 -65 -42 -126 -124 -141 -190 -19 -79
-17 -136 6 -226 40 -157 140 -317 281 -450 148 -140 287 -216 403 -224 79 -5
115 8 246 88 36 22 94 54 130 71 103 49 228 128 265 166 19 20 45 61 57 92 20
49 22 74 23 201 0 158 -14 236 -68 390 -35 102 -65 163 -118 241 -81 118 -188
180 -324 187 -95 5 -155 -9 -279 -67 -103 -49 -133 -56 -151 -37 -21 21 -36
65 -37 107 0 32 -3 37 -24 37 -14 0 -29 -9 -34 -19z"/>
</g>
</svg>
