<?xml version="1.0" standalone="no"?>
<!DOCTYPE svg PUBLIC "-//W3C//DTD SVG 20010904//EN"
 "http://www.w3.org/TR/2001/REC-SVG-20010904/DTD/svg10.dtd">
<svg version="1.0" xmlns="http://www.w3.org/2000/svg"
 width="480.000000pt" height="360.000000pt" viewBox="0 0 480.000000 360.000000"
 preserveAspectRatio="xMidYMid meet">
<metadata>
Created by potrace 1.16, written by Peter Selinger 2001-2019
</metadata>
<rect width="1" height="360" fill="#000000"/>
<rect x="479" width="1" height="360" fill="#000000"/>
<rect width="480" height="1" fill="#000000"/>
<rect y="359" width="480" height="1" fill="#000000"/>
<g transform="translate(0.000000,360.000000) scale(0.100000,-0.100000)"
fill="#000000" stroke="none">
<path d="M2885 3457 c-44 -30 -91 -66 -104 -80 -23 -25 -23 -28 -12 -103 6
-42 10 -78 9 -79 -2 -2 -37 -24 -79 -49 -99 -59 -152 -118 -200 -221 -43 -92
-56 -160 -51 -275 3 -69 4 -73 17 -50 13 25 13 25 19 -15 13 -82 21 -110 33
-110 7 0 20 -10 28 -22 9 -13 23 -23 31 -23 8 0 14 -4 14 -10 0 -5 6 -7 14 -4
7 3 25 -9 40 -27 l27 -32 -32 -33 c-35 -37 -33 -45 22 -80 23 -14 39 -32 39
-43 0 -11 18 -39 41 -63 22 -23 49 -60 60 -81 11 -21 31 -42 44 -47 13 -5 28
-17 33 -27 10 -16 12 -15 22 12 8 20 14 25 19 17 6 -10 12 -6 25 12 21 33 34
33 42 1 3 -14 10 -25 14 -25 4 0 10 -16 12 -35 4 -33 -1 -40 -89 -121 -60 -55
-106 -89 -129 -96 -47 -12 -80 -46 -93 -92 -5 -21 -28 -57 -50 -81 -47 -51
-55 -77 -48 -148 4 -46 0 -62 -34 -134 -45 -93 -69 -178 -69 -240 0 -23 -4
-44 -8 -47 -5 -3 -32 28 -62 67 -30 40 -70 90 -91 113 -29 32 -39 54 -49 110
-7 38 -23 98 -36 133 -14 35 -23 66 -21 68 2 2 69 14 148 28 351 61 340 81
-28 54 l-151 -11 -39 31 c-25 20 -60 36 -96 43 -49 11 -58 10 -75 -5 -10 -9
-26 -17 -36 -17 -28 0 -55 -19 -71 -50 -18 -34 -59 -55 -125 -62 l-46 -5 -92
157 c-88 149 -94 157 -124 158 -20 0 -38 9 -47 21 -11 15 -20 18 -31 11 -9 -6
-19 -5 -29 3 -11 9 -16 8 -25 -7 -6 -11 -23 -34 -38 -51 -16 -18 -28 -36 -28
-39 0 -4 47 -85 105 -182 92 -153 103 -178 92 -195 -10 -16 -8 -30 12 -82 13
-34 25 -84 26 -112 3 -48 33 -151 61 -207 10 -19 29 -31 66 -43 29 -10 68 -27
87 -39 19 -11 93 -50 165 -86 125 -62 132 -68 171 -125 33 -49 72 -84 210
-187 94 -70 171 -134 173 -143 2 -9 -12 -33 -31 -55 -51 -55 -57 -110 -23
-186 14 -31 26 -69 26 -85 l0 -29 630 0 630 0 0 33 c0 51 -102 187 -141 187
-20 0 -22 7 -50 190 -14 95 -23 202 -24 313 -3 181 -10 208 -60 227 -17 7 -22
14 -18 29 7 26 11 26 36 3 15 -13 41 -18 119 -20 98 -4 100 -3 93 17 -6 20 -3
21 54 21 62 0 76 11 49 38 -9 9 1 12 47 13 33 1 71 4 85 8 l25 7 -32 19 c-39
23 -42 35 -8 35 18 0 25 -5 25 -20 0 -36 18 -21 35 29 25 75 41 73 50 -7 l7
-67 16 30 17 30 3 -27 c2 -15 -4 -47 -12 -71 -18 -52 -33 -207 -19 -192 5 6
29 36 52 68 24 32 45 56 47 54 2 -2 -3 -34 -11 -72 -8 -38 -17 -112 -20 -165
-6 -95 -6 -95 12 -65 l18 30 3 -105 c1 -58 6 -108 11 -113 5 -5 25 17 45 47
20 31 39 56 42 56 3 0 3 -4 0 -9 -5 -7 -36 -197 -36 -216 0 -11 44 18 85 56
l43 40 -19 -83 c-26 -116 -25 -126 6 -91 l26 28 -6 -55 -6 -55 25 29 24 29 4
-24 c2 -17 10 -5 26 46 19 63 80 178 68 130 -3 -11 -12 -47 -20 -80 -16 -63
-46 -250 -46 -286 0 -18 2 -19 15 -9 10 9 15 9 15 1 0 -8 56 -11 189 -11 l189
0 7 57 c4 32 9 409 11 838 l5 781 -63 33 c-256 136 -476 328 -621 543 -29 43
-55 77 -58 78 -3 0 -11 -17 -17 -38 -6 -21 -26 -56 -45 -77 -18 -22 -44 -58
-59 -81 -77 -120 -331 -384 -370 -384 -10 0 -10 35 -2 79 4 17 10 28 15 25 5
-3 9 4 9 15 0 25 28 28 45 5 9 -13 14 6 25 97 l13 113 23 -30 c14 -17 24 -42
24 -61 0 -18 5 -33 10 -33 6 0 10 7 10 15 0 8 4 15 9 15 5 0 8 6 8 13 -1 6 7
49 18 95 16 72 21 81 37 76 18 -5 18 -4 -2 28 -20 32 -29 67 -10 38 18 -27 10
2 -31 124 -37 109 -42 135 -50 264 -4 79 -11 160 -15 180 -13 71 -72 176 -156
275 -88 103 -123 131 -228 186 -76 40 -80 44 -80 93 0 25 -7 44 -21 56 -39 37
-144 83 -200 88 -52 5 -56 4 -134 -49z m-207 -1052 c-3 -3 -9 2 -12 12 -6 14
-5 15 5 6 7 -7 10 -15 7 -18z m738 -534 c4 8 11 4 20 -12 7 -13 15 -22 19 -19
4 3 13 -6 20 -20 l13 -25 11 35 c9 29 9 22 5 -40 -3 -41 -11 -80 -17 -87 -28
-28 -39 -17 -66 62 -15 44 -31 89 -36 100 -8 17 -7 18 7 7 12 -10 18 -10 24
-1z m-1571 -466 c25 -50 30 -55 60 -55 25 0 37 -7 50 -27 10 -16 35 -48 56
-73 20 -25 55 -86 76 -135 21 -50 51 -108 66 -129 14 -22 25 -41 23 -43 -12
-12 -41 18 -71 72 -25 44 -72 98 -154 177 -76 73 -134 139 -160 182 -23 36
-41 68 -41 70 0 5 28 13 51 15 10 1 26 -20 44 -54z m1569 -747 c18 -141 21
-267 7 -253 -5 6 -24 48 -41 93 l-32 84 11 96 c22 175 32 172 55 -20z"/>
</g>
</svg>
