<?xml version="1.0" standalone="no"?>
<!DOCTYPE svg PUBLIC "-//W3C//DTD SVG 20010904//EN"
 "http://www.w3.org/TR/2001/REC-SVG-20010904/DTD/svg10.dtd">
<svg version="1.0" xmlns="http://www.w3.org/2000/svg"
 width="480.000000pt" height="360.000000pt" viewBox="0 0 480.000000 360.000000"
 preserveAspectRatio="xMidYMid meet">
<metadata>
Created by potrace 1.16, written by Peter Selinger 2001-2019
</metadata>
<rect width="1" height="360" fill="#000000"/>
<rect x="479" width="1" height="360" fill="#000000"/>
<rect width="480" height="1" fill="#000000"/>
<rect y="359" width="480" height="1" fill="#000000"/>
<g transform="translate(0.000000,360.000000) scale(0.100000,-0.100000)"
fill="#000000" stroke="none">
<path d="M0 1800 l0 -1800 888 0 889 0 13 58 c29 131 130 465 165 543 54 123
79 209 55 194 -5 -3 -3 13 5 35 l14 41 -32 -22 c-17 -13 -50 -38 -71 -56 -42
-35 -68 -44 -45 -16 11 12 11 17 2 20 -9 3 -8 11 3 29 21 31 7 31 -38 0 l-36
-24 -6 39 c-3 21 -2 59 4 83 5 25 6 55 2 67 -8 21 -9 21 -31 -10 -29 -41 -36
-35 -16 13 25 60 13 77 -15 23 -14 -26 -28 -47 -31 -47 -11 0 -19 86 -12 137
l5 50 -87 37 c-91 38 -179 65 -280 88 -49 11 -62 18 -73 41 -8 15 -25 32 -38
38 -18 6 -24 15 -22 31 3 22 -1 23 -90 30 -156 12 -292 59 -351 122 -20 21
-21 27 -9 45 16 27 24 26 64 -4 39 -30 48 -31 35 -6 -13 23 -4 33 19 21 11 -6
40 -6 76 0 33 6 79 8 104 4 33 -4 41 -3 30 5 -8 6 -27 11 -42 11 -22 0 -27 6
-35 37 -7 29 -15 39 -42 48 -18 6 -37 19 -43 28 -15 27 -30 147 -23 184 5 29
8 32 34 27 23 -5 32 -2 40 14 12 22 1 64 -19 77 -21 13 -50 89 -50 132 0 37 4
44 30 58 28 15 30 19 30 75 0 62 15 89 26 46 5 -20 45 -46 70 -46 2 0 4 28 4
63 0 34 4 68 9 75 14 23 39 -30 46 -99 4 -35 9 -66 11 -69 12 -12 43 24 79 93
22 42 45 82 52 88 38 38 69 -63 58 -188 -6 -62 -5 -75 6 -71 20 8 67 -22 73
-46 3 -11 2 -40 -1 -64 -4 -32 -12 -46 -28 -54 -23 -10 -35 -48 -35 -114 0
-18 -9 -51 -20 -75 -11 -24 -20 -54 -20 -65 0 -25 -36 -110 -50 -119 -4 -3
-14 -21 -20 -41 -11 -31 -10 -37 7 -49 24 -19 43 -18 65 2 14 12 23 14 41 6
12 -6 36 -8 54 -6 24 4 47 -5 101 -36 56 -34 222 -111 237 -111 7 0 57 164 60
197 4 43 -18 34 -47 -19 l-23 -41 -6 29 c-8 40 11 84 108 255 63 112 83 156
83 184 0 22 6 42 15 49 16 11 32 116 55 351 27 269 100 486 188 555 l27 21
-25 -5 c-163 -38 -216 -5 -184 117 17 66 90 226 122 266 l19 24 54 -19 c30
-10 65 -19 79 -20 49 -3 133 -56 259 -162 22 -19 42 -27 56 -24 12 2 39 -1 59
-6 31 -9 48 -6 119 20 61 23 105 32 175 36 l92 5 0 -29 c0 -39 -56 -269 -76
-316 -16 -36 -16 -40 6 -90 18 -43 22 -65 18 -124 -5 -73 -5 -74 -90 -219
l-29 -50 4 43 c3 23 2 42 -1 42 -4 0 -20 -21 -37 -48 -29 -46 -30 -46 -33 -19
-2 16 -8 27 -15 24 -8 -2 -14 -44 -17 -123 -6 -153 -6 -158 32 -172 26 -10 29
-15 24 -37 -6 -23 2 -36 51 -89 74 -79 190 -284 199 -349 5 -36 3 -53 -12 -74
-15 -23 -18 -45 -16 -128 4 -159 -2 -148 111 -179 84 -22 268 -56 309 -56 7 0
24 -12 38 -27 30 -32 76 -35 142 -9 54 20 245 27 263 9 19 -19 -8 -43 -47 -43
-39 0 -84 -18 -84 -34 0 -34 123 -71 207 -62 58 6 63 5 63 -13 0 -25 -69 -79
-112 -87 -29 -6 -83 -29 -128 -55 -71 -42 -143 -37 -230 14 -73 44 -109 55
-120 37 -13 -21 -59 -14 -131 19 -64 29 -232 77 -352 101 -68 14 -106 48 -140
125 l-22 50 -11 -50 c-20 -85 -17 -119 12 -146 26 -24 26 -26 20 -119 -7 -108
0 -132 102 -356 57 -126 177 -476 187 -546 l7 -48 844 0 844 0 0 1800 0 1800
-2400 0 -2400 0 0 -1800z m896 533 c-11 -11 -19 6 -11 24 8 17 8 17 12 0 3
-10 2 -21 -1 -24z"/>
<path d="M1056 2234 c-9 -25 -7 -52 5 -60 16 -9 27 13 21 42 -6 30 -18 39 -26
18z"/>
<path d="M1897 823 c-4 -3 -7 -11 -7 -17 0 -6 5 -5 12 2 6 6 9 14 7 17 -3 3
-9 2 -12 -2z"/>
</g>
</svg>
