<?xml version="1.0" standalone="no"?>
<!DOCTYPE svg PUBLIC "-//W3C//DTD SVG 20010904//EN"
 "http://www.w3.org/TR/2001/REC-SVG-20010904/DTD/svg10.dtd">
<svg version="1.0" xmlns="http://www.w3.org/2000/svg"
 width="480.000000pt" height="360.000000pt" viewBox="0 0 480.000000 360.000000"
 preserveAspectRatio="xMidYMid meet">
<metadata>
Created by potrace 1.16, written by Peter Selinger 2001-2019
</metadata>
<rect width="1" height="360" fill="#000000"/>
<rect x="479" width="1" height="360" fill="#000000"/>
<rect width="480" height="1" fill="#000000"/>
<rect y="359" width="480" height="1" fill="#000000"/>
<g transform="translate(0.000000,360.000000) scale(0.100000,-0.100000)"
fill="#000000" stroke="none">
<path d="M0 1800 l0 -1800 2400 0 2400 0 0 1800 0 1800 -1128 0 -1129 0 -6
-142 c-7 -151 -9 -165 -33 -262 -24 -96 -30 -118 -48 -166 -29 -76 -46 -143
-47 -185 0 -37 -2 -34 -18 30 -10 39 -30 106 -44 150 -70 222 -91 346 -85 492
l3 83 -1132 0 -1133 0 0 -1800z m2520 852 c0 -8 10 -22 23 -33 12 -10 16 -18
10 -19 -32 0 -9 -18 31 -23 70 -10 92 -25 147 -103 l52 -72 61 -7 c108 -11
180 -26 226 -46 56 -25 213 -183 206 -207 -2 -10 -7 -35 -11 -58 -13 -87 -62
-126 -111 -89 -30 23 -40 18 -60 -27 -26 -58 -59 -95 -105 -118 -49 -26 -92
-25 -184 2 l-75 22 -28 -27 c-33 -31 -33 -73 -1 -119 23 -32 24 -42 3 -34 -13
5 -15 0 -9 -36 4 -24 17 -61 30 -83 27 -48 30 -66 20 -123 -8 -42 -28 -64 -52
-55 -7 3 -15 -10 -19 -33 -9 -49 18 -125 117 -334 90 -188 110 -250 91 -280
-7 -11 -12 -33 -12 -49 0 -26 -4 -30 -39 -36 -29 -5 -47 -16 -66 -41 -14 -19
-35 -34 -45 -34 -11 0 -49 -16 -86 -36 -60 -34 -65 -39 -60 -63 17 -73 18 -92
6 -106 -15 -18 -61 -20 -78 -3 -9 9 -15 9 -24 0 -36 -36 -141 15 -118 58 6 11
19 24 30 30 26 14 25 39 -3 71 -46 55 -70 63 -236 81 -9 1 -11 11 -7 39 5 31
3 38 -14 42 -19 5 -19 6 -1 59 10 29 35 94 56 143 52 125 88 250 89 315 1 30
7 68 14 83 7 16 12 38 12 51 0 12 9 56 20 97 24 90 25 123 4 140 -12 10 -14
23 -9 57 6 38 4 43 -12 40 -28 -5 -31 48 -4 57 25 8 27 28 5 49 -21 22 -31 20
-66 -9 -35 -30 -100 -48 -139 -40 -19 4 -41 23 -65 56 -29 40 -40 48 -57 43
-19 -6 -20 -3 -15 87 3 58 11 106 21 124 33 63 190 192 280 230 19 8 38 23 40
32 3 10 11 43 17 73 18 78 34 105 85 140 31 21 45 38 45 54 0 12 3 26 8 30 7
8 8 13 11 76 l1 35 25 -30 c13 -16 24 -36 25 -43z"/>
<path d="M3237 2133 c-5 -7 -19 -13 -32 -13 -24 0 -75 -50 -75 -74 0 -13 51
-46 73 -46 20 0 49 70 45 111 -2 22 -6 29 -11 22z"/>
<path d="M2980 1978 c-63 -8 -210 -68 -210 -85 0 -11 112 -43 150 -43 52 0
116 45 146 102 23 44 27 42 -86 26z"/>
<path d="M1982 1960 c0 -14 2 -19 5 -12 2 6 2 18 0 25 -3 6 -5 1 -5 -13z"/>
<path d="M2033 1874 c-21 -9 -15 -28 23 -72 27 -32 43 -42 65 -42 30 0 103 32
114 49 10 17 -78 60 -135 65 -30 3 -61 3 -67 0z"/>
<path d="M2476 545 c-8 -22 5 -76 18 -72 14 5 19 32 12 63 -7 27 -21 31 -30 9z"/>
</g>
</svg>
