<?xml version="1.0" standalone="no"?>
<!DOCTYPE svg PUBLIC "-//W3C//DTD SVG 20010904//EN"
 "http://www.w3.org/TR/2001/REC-SVG-20010904/DTD/svg10.dtd">
<svg version="1.0" xmlns="http://www.w3.org/2000/svg"
 width="480.000000pt" height="360.000000pt" viewBox="0 0 480.000000 360.000000"
 preserveAspectRatio="xMidYMid meet">
<metadata>
Created by potrace 1.16, written by Peter Selinger 2001-2019
</metadata>
<rect width="1" height="360" fill="#000000"/>
<rect x="479" width="1" height="360" fill="#000000"/>
<rect width="480" height="1" fill="#000000"/>
<rect y="359" width="480" height="1" fill="#000000"/>
<g transform="translate(0.000000,360.000000) scale(0.100000,-0.100000)"
fill="#000000" stroke="none">
<path d="M0 1800 l0 -1800 1683 0 1682 0 -95 52 c-52 28 -169 94 -260 146 -91
53 -190 109 -220 125 -76 41 -100 65 -100 99 0 31 31 68 57 68 9 0 30 -11 47
-24 84 -63 733 -406 770 -406 7 0 19 15 28 33 10 21 29 39 48 47 32 13 34 13
68 -24 30 -34 34 -43 29 -77 l-5 -39 123 0 123 0 44 36 c76 62 78 67 78 164 0
83 -2 90 -26 109 -24 19 -25 23 -15 52 21 61 13 185 -21 323 l-32 129 37 66
c32 60 35 72 29 115 l-7 49 -55 14 c-69 17 -122 52 -160 105 -24 33 -30 51
-30 95 0 59 27 125 60 145 20 13 25 34 14 62 -4 9 -37 25 -78 38 -39 11 -111
41 -161 66 -107 53 -244 107 -310 122 -25 6 -79 23 -118 38 -59 22 -84 39
-134 90 -34 35 -66 61 -71 58 -5 -3 -12 -31 -14 -61 -5 -64 -20 -85 -46 -69
-17 11 -26 32 -37 87 l-5 27 -353 2 c-902 6 -1269 0 -1782 -28 -277 -14 -575
-39 -621 -50 -37 -9 -29 10 22 55 139 122 564 160 1924 170 l815 6 8 53 c7 45
12 52 31 52 32 0 46 -19 46 -61 l0 -36 43 8 c56 12 106 19 140 19 15 0 38 7
52 16 23 15 27 15 49 1 13 -9 34 -32 45 -51 26 -41 32 -42 203 -51 115 -6 117
-5 123 17 14 45 89 130 168 189 94 71 125 88 238 127 46 17 112 42 147 57 81
34 229 52 289 36 47 -13 59 -34 43 -75 -16 -44 -12 -121 8 -146 9 -12 44 -36
77 -53 67 -36 79 -62 51 -115 -14 -28 -14 -34 5 -79 38 -88 49 -108 79 -143
l29 -35 1 761 0 761 -29 70 c-34 83 -81 226 -81 248 0 13 -236 15 -2345 15
l-2345 0 0 -1800z m3920 1110 c0 -13 -7 -20 -20 -20 -19 0 -27 20 -13 33 13
14 33 6 33 -13z"/>
<path d="M3410 1865 c0 -9 199 -90 206 -83 1 2 5 19 9 39 7 36 6 36 -32 42
-44 8 -183 9 -183 2z"/>
<path d="M4772 1532 c-18 -3 -22 -8 -16 -25 4 -12 14 -27 23 -34 13 -10 17 -8
19 8 6 38 -2 54 -26 51z"/>
</g>
</svg>
