<?xml version="1.0" standalone="no"?>
<!DOCTYPE svg PUBLIC "-//W3C//DTD SVG 20010904//EN"
 "http://www.w3.org/TR/2001/REC-SVG-20010904/DTD/svg10.dtd">
<svg version="1.0" xmlns="http://www.w3.org/2000/svg"
 width="480.000000pt" height="360.000000pt" viewBox="0 0 480.000000 360.000000"
 preserveAspectRatio="xMidYMid meet">
<metadata>
Created by potrace 1.16, written by Peter Selinger 2001-2019
</metadata>
<rect width="1" height="360" fill="#000000"/>
<rect x="479" width="1" height="360" fill="#000000"/>
<rect width="480" height="1" fill="#000000"/>
<rect y="359" width="480" height="1" fill="#000000"/>
<g transform="translate(0.000000,360.000000) scale(0.100000,-0.100000)"
fill="#000000" stroke="none">
<path d="M0 1800 l0 -1800 194 0 195 0 7 56 c9 73 0 176 -21 237 -9 26 -50
123 -92 215 -158 350 -208 564 -220 957 -9 282 18 562 77 798 12 45 46 161 76
257 l56 176 -31 33 c-78 83 -4 133 134 90 95 -29 347 -130 431 -172 38 -19 77
-44 88 -56 10 -11 44 -30 75 -42 286 -107 1013 -350 1022 -340 4 3 10 32 14
63 l6 58 -63 -6 c-49 -4 -60 -3 -48 6 12 9 1 10 -50 6 -59 -5 -63 -4 -46 9 20
15 20 15 0 15 -16 1 -16 3 6 15 20 11 21 14 7 15 -14 0 -5 13 31 48 28 27 93
114 145 193 86 131 135 187 242 279 61 52 117 73 155 57 14 -6 88 -13 166 -16
135 -6 143 -8 210 -41 87 -44 135 -104 199 -248 25 -56 45 -105 45 -108 0 -3
-9 -2 -20 1 -16 5 -20 2 -20 -17 0 -29 -35 -87 -58 -95 -9 -3 -28 -15 -41 -27
-13 -12 -21 -15 -16 -7 6 11 4 13 -9 8 -10 -4 -20 -7 -22 -7 -11 0 -2 -30 17
-55 l22 -27 -27 -24 c-14 -14 -26 -31 -26 -38 0 -7 -12 -23 -26 -37 -14 -13
-32 -36 -40 -50 -14 -27 -61 -45 -78 -29 -9 9 -36 2 -36 -10 0 -12 134 -90
156 -90 36 -1 108 -41 148 -84 l41 -43 250 -62 c423 -106 416 -104 441 -90 19
10 28 9 50 -6 27 -18 28 -18 42 3 18 28 47 28 65 1 9 -13 17 -16 22 -10 9 15
42 14 52 -1 4 -7 17 -13 28 -13 13 0 21 -8 23 -22 4 -27 11 -29 27 -6 16 21
42 11 54 -20 7 -17 22 -27 53 -35 46 -11 510 -102 641 -125 l77 -14 0 1039 0
1038 -2400 0 -2400 0 0 -1800z"/>
<path d="M765 2460 c-23 -46 -142 -374 -169 -465 -66 -230 -104 -684 -76 -915
16 -131 54 -273 147 -549 65 -195 84 -262 80 -290 -2 -20 -23 -81 -44 -136
l-40 -100 536 -3 535 -2 54 52 c29 29 88 96 130 148 42 52 79 97 82 100 3 3
44 52 91 110 88 108 114 144 242 341 74 112 76 117 69 161 -7 43 -12 49 -145
158 -75 62 -147 126 -158 142 -30 42 -36 108 -14 166 10 26 45 88 77 139 57
88 59 93 49 129 -10 37 4 93 27 108 8 5 9 107 2 216 0 2 -7 -6 -16 -18 -12
-17 -19 -20 -29 -12 -10 8 -19 3 -39 -22 -25 -32 -26 -32 -26 -9 0 23 -1 23
-19 7 -19 -17 -20 -17 -27 18 -6 36 -7 37 -27 19 -20 -18 -20 -18 -14 20 6 41
-4 48 -26 16 -23 -33 -27 0 -6 43 35 68 14 80 -41 23 -18 -19 -35 -33 -37 -32
-2 2 6 21 16 43 11 21 19 40 18 40 -1 1 -114 39 -252 84 -137 46 -374 128
-525 183 -207 75 -292 102 -343 106 -66 6 -69 5 -82 -19z"/>
<path d="M2410 2150 c0 -5 5 -10 10 -10 6 0 10 5 10 10 0 6 -4 10 -10 10 -5 0
-10 -4 -10 -10z"/>
<path d="M2970 1778 c0 -18 9 -44 20 -58 11 -14 20 -29 20 -34 0 -5 11 -24 25
-42 45 -58 65 -114 65 -181 0 -61 15 -113 32 -113 5 0 52 13 106 29 53 15 165
45 249 66 84 20 159 42 168 49 14 10 15 22 8 81 l-8 69 -330 83 c-181 45 -336
83 -342 83 -8 0 -13 -13 -13 -32z"/>
<path d="M3993 1517 c-61 -97 -137 -168 -228 -214 -41 -21 -403 -152 -510
-184 -82 -26 -139 -24 -202 6 l-53 24 0 -29 c0 -16 -4 -32 -10 -35 -5 -3 -10
-44 -10 -90 0 -80 1 -84 28 -104 15 -11 37 -35 47 -55 16 -29 17 -39 6 -62
-11 -24 -9 -34 18 -88 17 -34 61 -99 99 -146 69 -84 172 -251 172 -278 0 -11
-13 -13 -55 -10 -32 2 -55 -1 -55 -7 0 -5 12 -63 27 -127 l28 -118 753 0 752
0 0 675 0 674 -42 11 c-24 6 -63 17 -88 25 -40 13 -448 122 -593 159 l-58 14
-26 -41z"/>
<path d="M2304 1359 l-39 -41 55 -50 c45 -40 56 -46 59 -31 4 21 -20 152 -29
158 -4 2 -24 -14 -46 -36z"/>
</g>
</svg>
