<?xml version="1.0" standalone="no"?>
<!DOCTYPE svg PUBLIC "-//W3C//DTD SVG 20010904//EN"
 "http://www.w3.org/TR/2001/REC-SVG-20010904/DTD/svg10.dtd">
<svg version="1.0" xmlns="http://www.w3.org/2000/svg"
 width="480.000000pt" height="360.000000pt" viewBox="0 0 480.000000 360.000000"
 preserveAspectRatio="xMidYMid meet">
<metadata>
Created by potrace 1.16, written by Peter Selinger 2001-2019
</metadata>
<rect width="1" height="360" fill="#000000"/>
<rect x="479" width="1" height="360" fill="#000000"/>
<rect width="480" height="1" fill="#000000"/>
<rect y="359" width="480" height="1" fill="#000000"/>
<g transform="translate(0.000000,360.000000) scale(0.100000,-0.100000)"
fill="#000000" stroke="none">
<path d="M1605 3423 c0 -247 -20 -351 -112 -568 -46 -107 -131 -239 -212 -328
-91 -101 -241 -222 -329 -266 -33 -17 -63 -35 -67 -41 -3 -5 -38 -19 -78 -31
-40 -12 -76 -25 -82 -29 -23 -18 -192 -52 -302 -61 -138 -11 -314 0 -406 27
-16 5 -17 -50 -17 -1060 l0 -1066 1414 0 1414 0 7 133 c9 166 23 250 79 459
24 92 61 267 81 390 20 123 45 263 56 313 20 93 23 183 11 296 -7 60 -11 68
-50 103 -37 33 -42 44 -42 80 0 48 25 106 68 159 17 21 38 64 47 95 9 31 30
76 47 100 27 39 29 47 19 70 -12 24 -3 41 22 42 4 0 7 4 7 9 0 5 -18 7 -40 4
-24 -3 -40 -2 -40 4 0 6 -18 33 -41 61 -39 50 -40 52 -23 76 16 25 15 26 -11
36 -14 5 -32 10 -40 10 -17 0 -45 44 -45 71 0 14 -5 19 -14 16 -18 -7 -5 55
26 118 22 44 22 47 5 73 -10 15 -30 51 -45 80 -29 58 -24 84 18 90 29 5 253
-44 310 -67 25 -10 68 -24 95 -30 121 -29 204 -137 246 -321 15 -64 34 -115
60 -158 28 -48 41 -85 54 -160 15 -79 30 -122 83 -231 58 -119 66 -143 74
-220 15 -148 28 -204 59 -250 55 -84 73 -146 75 -266 2 -60 6 -131 10 -158 6
-40 4 -47 -8 -42 -12 5 -17 -3 -22 -30 -9 -44 -20 -38 -37 20 -7 25 -19 45
-26 45 -6 0 -15 10 -19 23 l-8 22 -7 -25 c-3 -14 -5 -36 -2 -50 l4 -25 -20 23
c-11 13 -29 24 -41 25 -14 1 -25 14 -37 47 -9 25 -28 74 -43 110 -15 36 -31
75 -35 88 -3 12 -10 22 -15 22 -5 0 -12 17 -16 38 -3 20 -28 82 -55 137 -46
96 -96 232 -119 323 -6 23 -15 40 -20 37 -5 -3 -5 -19 1 -37 11 -40 4 -65 -22
-79 -16 -8 -18 -13 -9 -24 9 -11 7 -21 -8 -42 -15 -22 -17 -34 -10 -53 5 -14
11 -59 12 -101 3 -74 5 -78 58 -155 77 -110 92 -143 165 -359 63 -185 151
-382 247 -550 69 -119 129 -240 166 -332 l34 -83 348 0 348 0 0 1800 0 1800
-1598 0 -1598 0 1 -177z"/>
<path d="M3441 1864 c0 -11 3 -14 6 -6 3 7 2 16 -1 19 -3 4 -6 -2 -5 -13z"/>
</g>
</svg>
