<?xml version="1.0" standalone="no"?>
<!DOCTYPE svg PUBLIC "-//W3C//DTD SVG 20010904//EN"
 "http://www.w3.org/TR/2001/REC-SVG-20010904/DTD/svg10.dtd">
<svg version="1.0" xmlns="http://www.w3.org/2000/svg"
 width="480.000000pt" height="360.000000pt" viewBox="0 0 480.000000 360.000000"
 preserveAspectRatio="xMidYMid meet">
<metadata>
Created by potrace 1.16, written by Peter Selinger 2001-2019
</metadata>
<rect width="1" height="360" fill="#000000"/>
<rect x="479" width="1" height="360" fill="#000000"/>
<rect width="480" height="1" fill="#000000"/>
<rect y="359" width="480" height="1" fill="#000000"/>
<g transform="translate(0.000000,360.000000) scale(0.100000,-0.100000)"
fill="#000000" stroke="none">
<path d="M0 1800 l0 -1800 909 0 909 0 30 73 c70 169 75 193 73 319 -2 120 3
142 41 185 16 17 18 25 9 42 -13 23 -19 25 -40 12 -15 -10 -29 -84 -31 -166
-1 -81 -17 -31 -23 73 -2 51 -7 95 -9 98 -3 2 -26 -1 -52 -8 -58 -15 -72 -4
-88 75 -17 78 -6 88 64 59 29 -12 56 -18 60 -14 9 9 -4 377 -13 386 -3 3 -23
-3 -44 -14 -47 -24 -58 -25 -118 -4 -72 24 -99 65 -142 212 -22 77 -59 171
-92 237 -52 102 -55 112 -50 163 3 29 13 64 21 77 9 14 16 26 16 29 0 2 -22
20 -49 40 -52 37 -71 75 -71 143 0 28 -7 35 -54 63 -63 35 -74 56 -52 99 21
39 20 114 0 157 -15 32 -15 35 11 90 26 55 27 59 11 91 -9 19 -16 44 -17 56 0
12 -11 42 -24 67 -58 108 -65 135 -100 368 -16 110 -12 132 25 152 15 8 20 21
20 49 0 37 2 39 46 51 28 8 64 29 88 52 23 21 44 38 48 38 4 0 16 17 27 38 11
22 31 46 45 55 13 9 27 29 31 45 3 16 17 44 31 63 13 18 24 37 24 41 0 4 -331
8 -735 8 l-735 0 0 -1800z"/>
<path d="M1900 3594 c0 -4 9 -21 20 -39 31 -50 60 -212 60 -335 l0 -108 108
-42 c59 -24 128 -53 155 -67 36 -18 52 -21 67 -13 25 14 116 13 139 -2 15 -9
36 -2 125 48 l107 59 -5 53 c-4 28 -3 52 0 52 3 0 23 -13 44 -30 42 -33 60
-38 60 -15 0 8 9 19 20 25 21 11 40 67 40 120 0 22 -20 78 -55 150 -30 63 -55
123 -55 132 0 17 -24 18 -415 18 -228 0 -415 -3 -415 -6z"/>
<path d="M2984 3574 c4 -15 13 -41 20 -58 l13 -31 18 35 c9 19 29 45 44 57
l26 22 -64 1 -63 0 6 -26z"/>
<path d="M3470 3578 c0 -15 21 -41 63 -78 170 -151 194 -193 184 -329 -8 -101
-43 -300 -57 -316 -7 -9 -23 -12 -45 -8 -31 5 -35 2 -54 -35 -11 -22 -30 -43
-41 -47 -21 -7 -36 -45 -27 -69 6 -16 85 -30 112 -20 16 7 17 3 12 -37 -3 -24
-1 -63 5 -87 8 -34 7 -59 -5 -115 -9 -40 -15 -94 -14 -121 2 -43 -1 -51 -25
-69 l-27 -20 21 -27 c29 -39 17 -64 -46 -93 -56 -27 -64 -39 -81 -123 -6 -32
-28 -57 -78 -88 l-28 -17 23 -32 c36 -50 31 -111 -19 -238 -28 -69 -53 -160
-73 -260 -35 -178 -46 -208 -92 -242 -40 -30 -70 -40 -123 -41 -35 -1 -40 -5
-44 -26 -3 -23 -4 -23 -15 9 -12 36 -43 59 -33 25 7 -24 11 -158 8 -249 -3
-81 -18 -56 -20 33 -1 65 -21 70 -21 5 0 -27 -5 -73 -10 -103 -17 -98 -18 -95
10 -92 14 1 46 5 71 8 43 5 47 4 53 -20 6 -25 -8 -104 -26 -138 -12 -25 -43
-22 -86 7 -20 14 -42 25 -48 25 -18 0 -34 -56 -46 -165 -11 -94 -10 -104 12
-170 12 -38 36 -103 53 -142 l30 -73 928 0 929 0 0 1800 0 1800 -665 0 -665 0
0 -22z"/>
<path d="M3032 2120 c-19 -11 -42 -29 -53 -39 -11 -10 -34 -22 -51 -25 l-31
-6 5 -169 c3 -93 9 -174 12 -180 6 -10 36 -2 55 15 12 10 34 191 32 261 -2
106 9 113 62 39 8 -10 19 -16 24 -13 15 9 25 73 18 108 -8 35 -27 37 -73 9z"/>
<path d="M1783 2022 c-6 -4 -17 -35 -23 -70 -12 -58 -11 -67 8 -110 11 -26 24
-65 29 -87 8 -38 10 -40 43 -37 19 1 36 5 39 8 7 7 18 248 13 282 -3 19 -9 22
-50 22 -26 0 -52 -4 -59 -8z"/>
<path d="M1670 1975 c0 -8 5 -15 10 -15 6 0 10 7 10 15 0 8 -4 15 -10 15 -5 0
-10 -7 -10 -15z"/>
<path d="M1923 813 c3 -59 10 -83 22 -71 3 2 -2 34 -10 69 l-14 64 2 -62z"/>
</g>
</svg>
