<?xml version="1.0" standalone="no"?>
<!DOCTYPE svg PUBLIC "-//W3C//DTD SVG 20010904//EN"
 "http://www.w3.org/TR/2001/REC-SVG-20010904/DTD/svg10.dtd">
<svg version="1.0" xmlns="http://www.w3.org/2000/svg"
 width="480.000000pt" height="360.000000pt" viewBox="0 0 480.000000 360.000000"
 preserveAspectRatio="xMidYMid meet">
<metadata>
Created by potrace 1.16, written by Peter Selinger 2001-2019
</metadata>
<rect width="1" height="360" fill="#000000"/>
<rect x="479" width="1" height="360" fill="#000000"/>
<rect width="480" height="1" fill="#000000"/>
<rect y="359" width="480" height="1" fill="#000000"/>
<g transform="translate(0.000000,360.000000) scale(0.100000,-0.100000)"
fill="#000000" stroke="none">
<path d="M1150 3589 c0 -6 12 -56 26 -112 14 -56 28 -131 31 -166 l5 -64 -45
37 -45 37 13 -43 c7 -24 24 -71 39 -105 36 -86 32 -111 -6 -40 -37 68 -55 76
-27 12 23 -53 18 -71 -15 -50 -12 8 -60 24 -107 36 -69 17 -102 20 -189 16
-58 -3 -123 -11 -145 -18 -43 -14 -143 -71 -216 -125 -26 -19 -73 -46 -104
-60 -48 -22 -67 -26 -119 -21 -33 2 -88 14 -121 25 -33 11 -75 23 -93 27 l-32
7 0 -1491 0 -1491 1025 0 1024 0 12 23 c6 12 28 48 48 79 29 47 41 58 63 58
17 0 31 -8 38 -21 11 -19 13 -20 30 -4 50 45 81 -32 41 -101 l-20 -34 1269 0
1270 0 0 1486 0 1485 -22 -7 c-13 -3 -34 -12 -48 -19 -14 -7 -49 -18 -78 -26
-46 -11 -62 -11 -120 3 -119 29 -172 31 -260 9 -44 -12 -100 -21 -124 -21 -58
0 -129 36 -204 103 -76 68 -123 102 -152 111 -50 16 -108 8 -173 -25 -35 -18
-95 -48 -134 -67 -44 -23 -98 -40 -150 -49 -114 -18 -125 -17 -125 10 -1 21
-1 21 -15 3 -8 -11 -17 -18 -19 -15 -9 9 36 156 85 276 28 70 69 176 90 236
33 94 36 107 20 107 -12 0 -34 -34 -74 -117 -71 -147 -112 -213 -134 -213 -14
0 -15 10 -10 90 7 95 2 105 -33 68 l-20 -22 0 76 c0 81 -12 105 -48 94 -23 -8
-34 -28 -71 -136 -72 -214 -83 -230 -126 -190 -33 31 -38 74 -21 176 8 49 18
108 21 132 l7 42 -471 0 -471 0 0 -57 c0 -61 -14 -101 -24 -73 -3 8 -9 40 -14
70 l-7 55 -53 3 -52 3 -1 -93 c-1 -85 -2 -90 -13 -57 -15 50 -34 69 -66 69
-22 0 -30 8 -45 40 l-18 40 -64 0 c-76 0 -72 17 -38 -196 39 -243 32 -244 -25
-4 -41 177 -74 182 -65 10 6 -120 2 -114 -46 68 -17 67 -35 122 -40 122 -12 0
-12 -7 11 -96 39 -155 81 -355 78 -372 -6 -25 -43 51 -67 135 -11 37 -20 61
-21 53 -1 -14 -69 145 -70 162 0 4 -9 32 -21 63 l-20 55 -45 0 c-24 0 -44 -5
-44 -11z m1464 -1202 c-3 -9 -10 -17 -15 -17 -11 0 -12 34 -2 44 11 11 24 -9
17 -27z m-377 -203 c9 -25 -13 -40 -26 -16 -10 19 -6 32 11 32 5 0 11 -7 15
-16z m239 -175 c3 -6 1 -16 -5 -22 -9 -9 -14 -8 -21 3 -9 15 -4 30 10 30 5 0
12 -5 16 -11z m-162 -7 c8 -13 -11 -35 -23 -28 -16 10 -14 36 3 36 8 0 17 -4
20 -8z m306 -26 c0 -16 -18 -31 -27 -22 -8 8 5 36 17 36 5 0 10 -6 10 -14z
m-140 -41 c0 -8 -7 -15 -15 -15 -16 0 -20 12 -8 23 11 12 23 8 23 -8z m-390
-26 c0 -24 -23 -21 -28 4 -2 10 3 17 12 17 10 0 16 -9 16 -21z m336 -27 c-18
-18 -31 -10 -23 12 4 10 13 13 22 9 15 -5 15 -7 1 -21z m-446 -23 c0 -24 -23
-21 -28 4 -2 10 3 17 12 17 10 0 16 -9 16 -21z m80 -18 c0 -18 -18 -21 -30 -6
-10 13 -9 15 9 15 11 0 21 -4 21 -9z m98 -8 c-4 -22 -22 -20 -26 1 -2 10 3 16
13 16 10 0 15 -7 13 -17z m-228 -43 c0 -11 -7 -20 -15 -20 -15 0 -21 21 -8 33
12 13 23 7 23 -13z m218 -33 c2 -10 -3 -17 -11 -17 -16 0 -30 24 -19 34 10 10
27 1 30 -17z m192 -1 c0 -15 -14 -35 -21 -30 -15 9 -10 34 6 34 8 0 15 -2 15
-4z m140 -10 c0 -8 -4 -18 -10 -21 -5 -3 -10 3 -10 14 0 12 5 21 10 21 6 0 10
-6 10 -14z m-100 -21 c0 -8 -4 -15 -9 -15 -13 0 -22 16 -14 24 11 11 23 6 23
-9z m-96 -16 c-3 -5 -10 -7 -15 -3 -5 3 -7 10 -3 15 3 5 10 7 15 3 5 -3 7 -10
3 -15z m-247 -15 c-9 -9 -28 6 -21 18 4 6 10 6 17 -1 6 -6 8 -13 4 -17z m433
-8 c0 -16 -18 -31 -27 -22 -8 8 5 36 17 36 5 0 10 -6 10 -14z m-180 -16 c0
-11 -4 -20 -10 -20 -5 0 -10 9 -10 20 0 11 5 20 10 20 6 0 10 -9 10 -20z
m-190 -11 c0 -24 -23 -21 -28 4 -2 10 3 17 12 17 10 0 16 -9 16 -21z m150 -20
c0 -24 -23 -21 -28 4 -2 10 3 17 12 17 10 0 16 -9 16 -21z m270 6 c0 -8 -7
-15 -15 -15 -8 0 -15 7 -15 15 0 8 7 15 15 15 8 0 15 -7 15 -15z m-44 -26 c8
-14 -18 -31 -30 -19 -9 9 0 30 14 30 5 0 12 -5 16 -11z m-363 -76 c4 -3 2 -12
-4 -20 -9 -10 -15 -10 -25 -2 -8 6 -11 15 -8 20 6 11 28 12 37 2z m494 -17
c-2 -6 -16 -12 -30 -14 -29 -4 -30 -2 -21 21 6 17 57 10 51 -7z m-234 -81 c-3
-8 -9 -15 -14 -15 -10 0 -12 24 -3 33 11 11 24 -3 17 -18z m121 6 c3 -5 0 -14
-8 -20 -10 -9 -15 -8 -19 3 -9 22 15 37 27 17z m-496 -37 c-10 -10 -28 6 -28
24 0 15 1 15 17 -1 9 -9 14 -19 11 -23z m482 -48 c0 -20 -26 -40 -35 -26 -10
16 2 40 20 40 8 0 15 -6 15 -14z m-440 -21 c0 -8 -9 -15 -20 -15 -11 0 -20 7
-20 15 0 8 9 15 20 15 11 0 20 -7 20 -15z m315 -45 c-5 -8 -11 -8 -17 -2 -6 6
-7 16 -3 22 5 8 11 8 17 2 6 -6 7 -16 3 -22z m171 -16 c-3 -9 -6 -22 -6 -30 0
-8 -7 -14 -15 -14 -17 0 -18 4 -9 38 4 12 13 22 21 22 10 0 13 -6 9 -16z m84
-13 c0 -12 -20 -25 -27 -18 -7 7 6 27 18 27 5 0 9 -4 9 -9z m-482 -18 c5 -17
-26 -29 -40 -15 -6 6 -7 15 -3 22 9 14 37 9 43 -7z m314 -15 c-15 -15 -26 -4
-18 18 5 13 9 15 18 6 9 -9 9 -15 0 -24z m-232 -17 c8 12 11 12 22 0 10 -11
10 -14 1 -18 -7 -3 -13 -13 -13 -24 0 -26 -12 -24 -39 5 -25 27 -20 56 6 35
12 -10 16 -10 23 2z m275 -5 c12 -8 16 -19 11 -31 -6 -16 -8 -17 -24 -1 -10 9
-24 16 -30 16 -13 0 -16 13 -5 23 10 11 27 8 48 -7z m-105 -26 c0 -5 -4 -10
-10 -10 -5 0 -10 5 -10 10 0 6 5 10 10 10 6 0 10 -4 10 -10z m-96 -32 c20 -28
20 -38 2 -38 -17 0 -48 39 -40 52 9 14 22 9 38 -14z m50 13 c3 -5 -1 -14 -8
-20 -16 -13 -32 2 -21 19 8 12 22 13 29 1z m-130 -47 c8 -22 8 -24 -8 -24 -18
0 -29 16 -21 30 9 15 22 12 29 -6z m256 -8 c0 -8 -4 -17 -9 -20 -10 -7 -23 19
-14 28 11 11 23 6 23 -8z m-100 -12 c0 -9 -5 -14 -12 -12 -18 6 -21 28 -4 28
9 0 16 -7 16 -16z m-92 -16 c-7 -19 -38 -22 -38 -4 0 10 9 16 21 16 12 0 19
-5 17 -12z m-153 -14 c23 -15 34 -44 17 -44 -16 0 -52 32 -52 46 0 18 5 18 35
-2z m101 -32 c-4 -42 -15 -46 -33 -11 -10 19 -9 27 4 41 22 25 33 14 29 -30z
m229 27 c10 -15 -1 -23 -20 -15 -9 3 -13 10 -10 16 8 13 22 13 30 -1z m55 -14
c0 -8 -7 -15 -15 -15 -16 0 -20 12 -8 23 11 12 23 8 23 -8z m-170 1 c0 -2 -3
-11 -6 -20 -9 -23 -24 -20 -24 4 0 11 7 20 15 20 8 0 15 -2 15 -4z m48 -39
c-5 -34 -28 -33 -28 2 0 23 4 29 16 24 8 -3 14 -15 12 -26z m142 4 c0 -5 -7
-14 -15 -21 -12 -10 -15 -10 -15 2 0 8 3 18 7 21 9 10 23 9 23 -2z m-320 -42
c0 -5 -7 -9 -15 -9 -15 0 -20 12 -9 23 8 8 24 -1 24 -14z m331 -9 c22 0 26
-18 6 -26 -20 -7 -69 14 -62 27 4 6 14 8 22 5 8 -3 23 -6 34 -6z m-157 -38 c2
-4 1 -14 -4 -22 -7 -11 -12 -12 -21 -3 -6 6 -8 16 -5 22 8 13 23 14 30 3z
m127 -37 c-1 -15 -24 -12 -29 3 -3 9 2 13 12 10 10 -1 17 -7 17 -13z m-231
-14 c0 -14 -18 -23 -31 -15 -8 4 -7 9 2 15 18 11 29 11 29 0z m70 -16 c0 -13
-4 -14 -20 -5 -11 6 -20 13 -20 15 0 3 9 5 20 5 11 0 20 -7 20 -15z m63 0 c1
-5 -6 -11 -15 -13 -11 -2 -18 3 -18 13 0 17 30 18 33 0z"/>
<path d="M1342 3360 c0 -14 2 -19 5 -12 2 6 2 18 0 25 -3 6 -5 1 -5 -13z"/>
<path d="M3307 3265 c-3 -11 -26 -69 -51 -129 -25 -61 -44 -111 -42 -113 8 -8
108 235 103 250 -2 6 -6 3 -10 -8z"/>
</g>
</svg>
