<?xml version="1.0" standalone="no"?>
<!DOCTYPE svg PUBLIC "-//W3C//DTD SVG 20010904//EN"
 "http://www.w3.org/TR/2001/REC-SVG-20010904/DTD/svg10.dtd">
<svg version="1.0" xmlns="http://www.w3.org/2000/svg"
 width="480.000000pt" height="360.000000pt" viewBox="0 0 480.000000 360.000000"
 preserveAspectRatio="xMidYMid meet">
<metadata>
Created by potrace 1.16, written by Peter Selinger 2001-2019
</metadata>
<rect width="1" height="360" fill="#000000"/>
<rect x="479" width="1" height="360" fill="#000000"/>
<rect width="480" height="1" fill="#000000"/>
<rect y="359" width="480" height="1" fill="#000000"/>
<g transform="translate(0.000000,360.000000) scale(0.100000,-0.100000)"
fill="#000000" stroke="none">
<path d="M2450 3005 c-532 -39 -1047 -139 -1529 -297 -176 -57 -354 -125 -688
-259 l-233 -94 0 -612 c0 -337 2 -613 5 -613 3 0 67 -11 143 -25 75 -15 171
-32 212 -40 41 -7 197 -36 345 -64 149 -27 302 -54 340 -59 395 -56 506 -70
695 -84 217 -16 703 -16 910 0 808 62 1316 187 1978 486 l172 78 0 599 0 599
-27 11 c-16 6 -82 26 -148 44 -66 18 -163 45 -215 60 -259 74 -348 97 -495
133 -306 75 -482 106 -732 131 -176 18 -534 21 -733 6z m125 -601 c50 -12 133
-25 186 -29 52 -4 100 -10 105 -13 6 -4 29 -32 51 -62 47 -64 123 -137 179
-172 57 -36 61 -44 67 -138 3 -47 18 -138 32 -202 l26 -117 -65 -133 c-125
-252 -116 -239 -223 -304 -52 -32 -132 -71 -177 -88 -75 -28 -91 -30 -216 -31
-126 0 -139 2 -190 27 -30 14 -73 31 -95 37 -76 20 -203 128 -242 206 -14 28
-37 62 -50 77 -47 50 -82 211 -75 344 4 90 9 107 47 189 36 77 76 145 150 253
9 12 23 22 31 22 20 0 205 88 279 133 35 22 66 34 75 31 8 -4 56 -17 105 -30z"/>
<path d="M1990 2060 c-11 -22 -18 -40 -15 -40 2 0 14 18 25 40 11 22 18 40 15
40 -2 0 -14 -18 -25 -40z"/>
<path d="M1910 1740 c-3 -52 0 -77 16 -123 l14 -42 -5 76 c-2 42 -9 87 -14
100 -9 23 -10 22 -11 -11z"/>
<path d="M2043 1374 c23 -45 123 -141 135 -130 7 8 -88 124 -125 152 l-34 26
24 -48z"/>
<path d="M2885 1247 c-60 -24 -140 -70 -127 -74 13 -5 159 63 168 78 7 12 -4
10 -41 -4z"/>
<path d="M2334 1172 c16 -26 209 -62 221 -41 6 8 -98 34 -174 44 -36 5 -51 4
-47 -3z"/>
</g>
</svg>
