<?xml version="1.0" standalone="no"?>
<!DOCTYPE svg PUBLIC "-//W3C//DTD SVG 20010904//EN"
 "http://www.w3.org/TR/2001/REC-SVG-20010904/DTD/svg10.dtd">
<svg version="1.0" xmlns="http://www.w3.org/2000/svg"
 width="480.000000pt" height="360.000000pt" viewBox="0 0 480.000000 360.000000"
 preserveAspectRatio="xMidYMid meet">
<metadata>
Created by potrace 1.16, written by Peter Selinger 2001-2019
</metadata>
<rect width="1" height="360" fill="#000000"/>
<rect x="479" width="1" height="360" fill="#000000"/>
<rect width="480" height="1" fill="#000000"/>
<rect y="359" width="480" height="1" fill="#000000"/>
<g transform="translate(0.000000,360.000000) scale(0.100000,-0.100000)"
fill="#000000" stroke="none">
<path d="M1676 3108 c-36 -55 -47 -249 -22 -370 17 -80 28 -102 119 -241 l70
-109 5 -103 c4 -96 3 -105 -22 -147 -29 -50 -37 -118 -16 -144 20 -24 101 -57
263 -108 280 -88 451 -122 474 -94 7 8 15 45 19 83 6 59 13 76 46 119 21 28
38 54 38 59 0 16 18 6 23 -13 4 -15 11 -19 29 -16 12 3 26 5 30 5 4 1 8 11 10
23 5 37 45 47 204 54 164 7 303 30 378 64 95 43 186 167 186 254 -1 98 -39
180 -100 211 -36 19 -127 19 -160 0 -35 -20 -38 -19 -45 15 -10 44 -76 86
-275 172 -72 32 -284 106 -420 148 -319 98 -551 149 -706 157 -111 6 -112 6
-128 -19z m1729 -604 c30 -32 31 -62 6 -112 -55 -106 -179 -157 -425 -175
l-59 -4 26 21 c14 12 44 35 65 51 22 17 59 56 83 87 l43 57 30 -36 31 -35 24
19 c20 16 22 23 12 41 -33 61 8 112 91 112 40 0 53 -5 73 -26z"/>
</g>
</svg>
