<?xml version="1.0" standalone="no"?>
<!DOCTYPE svg PUBLIC "-//W3C//DTD SVG 20010904//EN"
 "http://www.w3.org/TR/2001/REC-SVG-20010904/DTD/svg10.dtd">
<svg version="1.0" xmlns="http://www.w3.org/2000/svg"
 width="480.000000pt" height="360.000000pt" viewBox="0 0 480.000000 360.000000"
 preserveAspectRatio="xMidYMid meet">
<metadata>
Created by potrace 1.16, written by Peter Selinger 2001-2019
</metadata>
<rect width="1" height="360" fill="#000000"/>
<rect x="479" width="1" height="360" fill="#000000"/>
<rect width="480" height="1" fill="#000000"/>
<rect y="359" width="480" height="1" fill="#000000"/>
<g transform="translate(0.000000,360.000000) scale(0.100000,-0.100000)"
fill="#000000" stroke="none">
<path d="M0 1800 l0 -1800 2400 0 2400 0 0 1800 0 1800 -1666 0 -1667 0 6
-362 c11 -661 81 -1262 203 -1728 79 -303 147 -507 214 -640 22 -44 40 -82 40
-85 0 -3 -9 -5 -19 -5 -11 0 -21 -5 -23 -11 -5 -15 -68 12 -128 55 -26 18 -57
37 -70 41 -13 4 -35 21 -49 39 -14 17 -46 51 -71 76 -26 25 -76 79 -112 120
-69 79 -238 307 -238 320 0 5 -6 15 -14 22 -7 8 -30 45 -51 84 -21 38 -46 81
-56 95 -32 46 -174 350 -238 508 -77 190 -179 494 -231 691 -5 19 -18 67 -29
105 -30 111 -66 274 -107 483 l-37 192 -228 0 -229 0 0 -1800z"/>
</g>
</svg>
