<?xml version="1.0" standalone="no"?>
<!DOCTYPE svg PUBLIC "-//W3C//DTD SVG 20010904//EN"
 "http://www.w3.org/TR/2001/REC-SVG-20010904/DTD/svg10.dtd">
<svg version="1.0" xmlns="http://www.w3.org/2000/svg"
 width="480.000000pt" height="360.000000pt" viewBox="0 0 480.000000 360.000000"
 preserveAspectRatio="xMidYMid meet">
<metadata>
Created by potrace 1.16, written by Peter Selinger 2001-2019
</metadata>
<rect width="1" height="360" fill="#000000"/>
<rect x="479" width="1" height="360" fill="#000000"/>
<rect width="480" height="1" fill="#000000"/>
<rect y="359" width="480" height="1" fill="#000000"/>
<g transform="translate(0.000000,360.000000) scale(0.100000,-0.100000)"
fill="#000000" stroke="none">
<path d="M1536 3291 c-3 -5 14 -21 39 -36 53 -31 50 -45 -8 -45 -23 -1 -77 -7
-120 -15 -113 -20 -165 -64 -182 -157 -6 -34 -9 -36 -52 -41 -48 -5 -96 -34
-101 -59 -2 -9 8 -28 21 -44 21 -24 23 -33 15 -56 -6 -15 -15 -28 -21 -28 -5
0 -3 -8 6 -18 10 -10 17 -26 17 -35 0 -11 25 -30 69 -52 l69 -34 7 -77 c12
-121 0 -226 -30 -278 -28 -48 -34 -75 -40 -184 -2 -40 -10 -88 -16 -107 -11
-28 -11 -43 0 -78 28 -92 28 -91 -70 -257 -50 -85 -98 -166 -105 -180 -18 -32
-18 -70 0 -117 8 -21 20 -57 26 -79 14 -57 51 -91 107 -100 28 -4 49 -2 56 5
6 6 28 11 50 11 32 0 37 -3 33 -17 -3 -10 -10 -39 -16 -65 -5 -27 -32 -114
-59 -195 -140 -419 -209 -684 -236 -900 l-7 -53 566 0 566 0 0 38 c0 20 -11
190 -25 377 -30 430 -43 654 -51 925 -3 118 -12 256 -18 305 -7 50 -11 96 -8
103 2 7 14 0 29 -16 18 -19 23 -22 19 -9 -3 10 -9 36 -12 58 -5 31 -3 39 9 39
36 0 101 109 82 140 -3 5 -17 39 -30 76 l-24 66 74 111 75 112 -23 21 c-25 25
-263 193 -284 201 -8 3 -13 23 -13 57 0 28 -5 70 -10 93 -10 44 -14 170 -6
213 2 14 5 31 5 38 1 6 10 12 21 12 27 0 25 16 -6 43 -34 28 -39 34 -67 77
-12 19 -42 49 -67 67 -53 39 -52 38 -87 82 -42 52 -149 92 -167 62z"/>
</g>
</svg>
