<?xml version="1.0" standalone="no"?>
<!DOCTYPE svg PUBLIC "-//W3C//DTD SVG 20010904//EN"
 "http://www.w3.org/TR/2001/REC-SVG-20010904/DTD/svg10.dtd">
<svg version="1.0" xmlns="http://www.w3.org/2000/svg"
 width="480.000000pt" height="360.000000pt" viewBox="0 0 480.000000 360.000000"
 preserveAspectRatio="xMidYMid meet">
<metadata>
Created by potrace 1.16, written by Peter Selinger 2001-2019
</metadata>
<rect width="1" height="360" fill="#000000"/>
<rect x="479" width="1" height="360" fill="#000000"/>
<rect width="480" height="1" fill="#000000"/>
<rect y="359" width="480" height="1" fill="#000000"/>
<g transform="translate(0.000000,360.000000) scale(0.100000,-0.100000)"
fill="#000000" stroke="none">
<path d="M0 1800 l0 -1800 1025 0 1025 0 0 27 c0 15 -7 81 -17 147 -17 129
-16 168 22 606 16 187 17 190 46 348 10 57 19 146 19 199 0 53 5 113 11 133 9
28 8 52 0 96 -7 33 -16 113 -21 179 -11 146 -16 175 -41 243 -24 67 -24 76 6
212 28 126 69 220 127 285 l38 43 -26 21 c-14 11 -34 23 -45 26 -10 4 -19 11
-19 16 0 5 -6 9 -12 9 -7 0 -20 4 -28 10 -12 7 -12 12 -1 34 21 39 9 57 -36
50 -21 -3 -39 -7 -41 -9 -8 -8 -56 26 -73 52 -10 15 -19 22 -19 15 0 -7 -4
-10 -10 -7 -5 3 -10 45 -10 93 0 99 16 144 73 204 l35 37 -19 38 c-21 40 -21
40 26 68 15 9 15 15 -5 68 -12 32 -20 61 -17 63 3 3 24 -12 48 -33 31 -28 40
-33 36 -18 -26 89 -29 106 -23 112 16 16 157 -86 199 -144 15 -22 35 -34 72
-43 76 -19 119 -44 164 -97 60 -70 83 -120 146 -308 51 -152 101 -263 207
-453 10 -18 33 -76 51 -130 32 -94 33 -102 32 -247 -1 -110 -7 -165 -19 -207
-22 -73 -38 -75 -32 -6 l5 53 -10 -54 c-6 -30 -17 -61 -25 -68 -7 -8 -16 -30
-19 -51 -7 -46 -41 -122 -55 -122 -5 0 -7 8 -4 18 4 9 -15 -5 -40 -32 -43 -45
-46 -51 -36 -80 11 -36 26 -346 40 -821 11 -393 15 -454 37 -522 l17 -53 998
0 998 0 0 1800 0 1800 -2400 0 -2400 0 0 -1800z"/>
<path d="M2133 1755 c1 -55 6 -106 10 -113 32 -50 38 110 7 173 l-20 40 3
-100z"/>
<path d="M2572 1795 c0 -16 2 -22 5 -12 2 9 2 23 0 30 -3 6 -5 -1 -5 -18z"/>
<path d="M2582 1740 c0 -14 2 -19 5 -12 2 6 2 18 0 25 -3 6 -5 1 -5 -13z"/>
<path d="M2720 1613 c-15 -46 -30 -65 -30 -37 -1 16 -3 16 -15 -6 -19 -34 -18
-60 4 -90 l19 -24 11 39 c19 74 33 146 28 151 -3 3 -10 -12 -17 -33z"/>
</g>
</svg>
