<?xml version="1.0" standalone="no"?>
<!DOCTYPE svg PUBLIC "-//W3C//DTD SVG 20010904//EN"
 "http://www.w3.org/TR/2001/REC-SVG-20010904/DTD/svg10.dtd">
<svg version="1.0" xmlns="http://www.w3.org/2000/svg"
 width="480.000000pt" height="360.000000pt" viewBox="0 0 480.000000 360.000000"
 preserveAspectRatio="xMidYMid meet">
<metadata>
Created by potrace 1.16, written by Peter Selinger 2001-2019
</metadata>
<rect width="1" height="360" fill="#000000"/>
<rect x="479" width="1" height="360" fill="#000000"/>
<rect width="480" height="1" fill="#000000"/>
<rect y="359" width="480" height="1" fill="#000000"/>
<g transform="translate(0.000000,360.000000) scale(0.100000,-0.100000)"
fill="#000000" stroke="none">
<path d="M4637 3579 c-15 -17 -28 -20 -77 -18 -66 3 -83 -5 -56 -24 24 -17 12
-42 -29 -61 -19 -9 -37 -21 -40 -26 -7 -11 -97 -6 -116 5 -5 4 -24 -7 -41 -24
-18 -17 -35 -31 -40 -31 -4 0 -20 -18 -34 -40 -15 -22 -32 -40 -39 -40 -7 0
-24 -9 -38 -20 -14 -11 -37 -20 -51 -20 -25 0 -25 -2 -19 -46 5 -39 3 -49 -13
-61 -18 -13 -18 -14 0 -48 11 -20 35 -54 54 -76 l36 -41 2 -122 c2 -66 5 -137
8 -156 15 -96 18 -190 6 -190 -7 0 -10 -7 -6 -15 6 -18 3 -19 -169 -39 -71 -9
-177 -23 -235 -31 -114 -16 -288 -39 -470 -60 -63 -7 -122 -16 -131 -20 -10
-4 -22 2 -32 18 -10 15 -30 27 -51 31 -23 4 -43 17 -57 37 -14 20 -27 28 -38
24 -10 -3 -32 2 -50 11 -42 21 -153 14 -224 -14 -64 -25 -74 -36 -53 -58 9 -9
16 -26 14 -38 -2 -16 -9 -20 -30 -18 -30 3 -39 -15 -13 -24 18 -7 20 -41 3
-47 -21 -8 41 -28 66 -21 19 4 25 0 36 -25 10 -26 18 -31 47 -31 46 0 189
-108 331 -250 120 -120 168 -155 228 -165 66 -10 228 23 400 81 98 34 102 34
139 18 37 -15 50 -15 148 2 27 4 37 3 37 -7 0 -7 10 -23 21 -35 19 -20 20 -27
10 -55 -14 -40 -14 -239 -1 -381 9 -97 15 -116 51 -185 51 -96 49 -119 -20
-204 -61 -75 -83 -120 -166 -334 -26 -66 -57 -142 -70 -170 -13 -27 -26 -61
-30 -75 -5 -14 -18 -41 -30 -60 -12 -19 -25 -46 -30 -60 -4 -14 -18 -45 -30
-70 -26 -50 -90 -187 -111 -237 l-14 -33 590 0 590 0 0 1739 0 1739 -35 6
c-46 9 -50 19 -21 51 13 14 26 34 29 45 5 18 0 20 -57 20 -50 0 -65 -4 -79
-21z m-622 -1159 c-78 -20 -214 -40 -535 -79 -47 -6 -123 -15 -170 -22 -114
-15 -177 -13 -159 6 5 5 173 29 494 70 110 14 229 29 265 34 36 5 90 9 120 9
l55 0 -70 -18z m-199 -87 c-3 -19 -10 -23 -78 -52 -32 -13 -47 -26 -50 -41 -2
-17 -17 -27 -58 -43 -30 -11 -64 -26 -75 -33 -11 -8 -31 -14 -45 -14 -14 0
-49 -14 -79 -30 -53 -30 -54 -30 -80 -11 -51 38 -163 159 -157 170 4 6 24 11
44 11 20 1 134 14 252 29 263 35 329 38 326 14z"/>
<path d="M1531 3240 c-2 -39 -12 -70 -24 -70 -6 0 -23 12 -38 26 -15 14 -30
21 -33 16 -3 -5 1 -15 9 -22 21 -17 19 -30 -5 -30 -10 0 -24 -9 -30 -20 -6
-11 -20 -20 -30 -20 -11 0 -20 -4 -20 -10 0 -5 4 -10 9 -10 5 0 22 -5 37 -10
l28 -11 -31 -27 c-110 -99 -239 -182 -282 -182 -10 0 -26 -9 -36 -20 -10 -11
-25 -20 -33 -20 -12 0 -12 -2 -1 -17 11 -13 11 -17 1 -21 -8 -2 1 -20 26 -50
67 -82 75 -100 62 -131 -10 -26 -12 -44 -9 -126 0 -16 10 -40 21 -52 20 -21
20 -24 5 -41 -10 -10 -17 -26 -17 -34 0 -9 -6 -21 -14 -28 -8 -6 -12 -18 -9
-25 7 -20 -6 -31 -136 -119 -70 -47 -123 -76 -139 -76 -38 0 -53 -12 -69 -56
-24 -62 -26 -96 -10 -156 16 -63 54 -114 126 -173 54 -43 61 -65 32 -94 -11
-11 -21 -40 -25 -72 -7 -53 -6 -55 29 -89 34 -33 37 -34 68 -21 17 7 56 17 86
20 48 7 59 13 102 59 53 56 89 68 89 29 0 -13 4 -27 8 -33 4 -5 18 -36 31 -69
12 -33 27 -68 32 -77 5 -10 9 -28 9 -41 0 -14 13 -49 30 -80 35 -66 33 -76
-31 -156 -45 -56 -66 -89 -100 -156 -11 -22 -31 -60 -44 -84 -14 -24 -25 -49
-25 -55 0 -17 -102 -184 -229 -376 -103 -156 -208 -345 -226 -408 l-6 -22 638
2 638 3 2 130 c1 72 7 171 13 220 6 50 13 169 17 265 7 201 -5 316 -43 421
-17 46 -23 80 -19 99 3 16 2 31 -4 35 -15 9 -14 25 3 25 22 0 66 61 57 79 -5
9 -19 70 -31 137 l-22 121 43 41 c41 38 44 44 42 89 -9 228 -7 282 11 302 27
29 7 54 -59 75 -32 10 -78 29 -103 42 -25 13 -53 24 -63 24 -24 0 -99 30 -99
39 0 4 12 18 26 32 l27 24 -7 -30 -7 -30 20 25 c11 14 27 45 36 70 9 25 21 54
26 65 5 11 9 38 8 60 -1 22 2 74 6 115 6 59 4 84 -10 120 -27 73 -28 84 -6
107 20 22 54 103 46 111 -2 3 -10 -7 -16 -22 -13 -28 -36 -37 -24 -8 11 26 18
62 12 62 -3 0 -17 -5 -30 -11 -20 -9 -28 -8 -43 6 -232 217 -226 210 -213 238
10 21 19 27 45 27 18 0 36 5 39 10 4 6 -10 10 -35 10 -53 0 -62 21 -25 60 16
17 25 33 21 37 -4 5 -21 -7 -37 -25 -35 -39 -49 -41 -50 -4 0 15 -4 36 -9 47
-8 18 -9 18 -9 -5z"/>
</g>
</svg>
