<?xml version="1.0" standalone="no"?>
<!DOCTYPE svg PUBLIC "-//W3C//DTD SVG 20010904//EN"
 "http://www.w3.org/TR/2001/REC-SVG-20010904/DTD/svg10.dtd">
<svg version="1.0" xmlns="http://www.w3.org/2000/svg"
 width="480.000000pt" height="360.000000pt" viewBox="0 0 480.000000 360.000000"
 preserveAspectRatio="xMidYMid meet">
<metadata>
Created by potrace 1.16, written by Peter Selinger 2001-2019
</metadata>
<rect width="1" height="360" fill="#000000"/>
<rect x="479" width="1" height="360" fill="#000000"/>
<rect width="480" height="1" fill="#000000"/>
<rect y="359" width="480" height="1" fill="#000000"/>
<g transform="translate(0.000000,360.000000) scale(0.100000,-0.100000)"
fill="#000000" stroke="none">
<path d="M2567 2836 c5 -15 3 -18 -10 -13 -13 5 -16 1 -14 -16 1 -12 8 -27 15
-32 10 -8 5 -23 -23 -69 -19 -32 -33 -62 -30 -66 3 -5 1 -11 -4 -14 -5 -4 -12
-2 -16 4 -9 15 -25 2 -25 -22 0 -11 10 -28 23 -38 15 -12 29 -42 41 -92 11
-40 23 -78 27 -84 5 -5 5 -23 0 -40 -6 -22 -13 -29 -32 -29 -20 0 -25 -6 -27
-33 -5 -50 40 -140 77 -153 36 -13 57 -57 54 -121 0 -27 3 -48 8 -48 18 0 8
-44 -17 -77 -14 -19 -45 -85 -69 -147 -48 -128 -78 -178 -147 -254 -26 -30
-51 -65 -54 -78 -9 -35 23 -91 61 -105 55 -22 56 -25 25 -92 -19 -39 -32 -88
-36 -132 -4 -38 -13 -82 -21 -97 -7 -15 -13 -40 -12 -55 1 -16 -3 -48 -9 -73
-7 -25 -12 -66 -12 -92 0 -42 4 -49 39 -77 45 -36 81 -51 122 -51 32 0 49 -24
31 -42 -18 -18 7 -65 46 -89 28 -17 58 -23 122 -27 47 -2 96 -10 110 -17 14
-7 43 -15 65 -19 47 -8 96 -23 148 -44 21 -9 57 -15 79 -13 36 2 45 -3 84 -44
44 -45 44 -45 73 -30 42 21 46 34 14 40 -15 4 -39 9 -52 11 -33 7 -75 41 -82
67 -4 15 2 30 19 49 13 14 22 31 18 36 -3 5 -31 17 -63 26 -160 47 -200 79
-153 121 40 36 14 125 -43 145 -17 5 -45 10 -63 10 -45 0 -61 29 -44 81 7 20
10 49 8 63 -3 15 3 57 14 94 14 48 18 85 14 129 -5 62 -5 63 22 69 81 20 97
64 89 244 -5 124 -31 271 -64 362 -14 40 -15 51 -4 72 17 31 11 230 -7 248
-23 23 -11 27 71 22 157 -11 158 -11 179 16 19 25 18 26 -13 89 -31 62 -31 64
-15 92 10 17 15 38 11 49 -8 26 10 26 29 -1 8 -11 24 -28 36 -36 20 -14 23
-13 46 8 33 31 47 87 33 130 -24 71 -64 89 -96 43 -37 -54 -52 -64 -93 -64
-26 0 -42 5 -48 17 -11 20 -51 25 -71 10 -7 -6 -17 -21 -22 -34 -5 -13 -16
-23 -26 -23 -10 0 -27 -7 -37 -15 -42 -32 -79 -11 -52 30 21 32 20 53 -4 100
-17 33 -18 44 -8 71 17 48 6 66 -37 58 -40 -7 -135 22 -135 43 0 7 -4 13 -10
13 -5 0 -10 7 -10 16 0 9 -6 14 -12 11 -7 -2 -19 3 -26 12 -11 14 -11 14 -5
-3z m302 -415 c26 -36 26 -38 2 -51 -33 -17 -51 -2 -51 41 0 48 20 52 49 10z
m81 9 c0 -23 -29 -27 -48 -8 -19 19 -14 28 18 28 23 0 30 -4 30 -20z m-262
-1182 c40 -9 54 -16 57 -32 3 -12 1 -79 -5 -151 -6 -71 -11 -144 -10 -161 1
-57 -16 -84 -52 -84 -18 0 -72 -9 -120 -19 -100 -21 -100 -20 -118 51 -10 39
-9 50 4 70 9 14 15 36 14 50 -1 14 5 43 14 64 9 22 29 73 44 114 15 41 34 85
42 98 16 25 11 25 130 0z m360 -723 c20 -7 14 -22 -19 -46 -30 -21 -32 -21
-60 -5 -16 10 -37 16 -47 15 -38 -3 -62 2 -62 14 0 30 24 38 100 31 41 -3 81
-7 88 -9z"/>
<path d="M1254 2772 c-12 -10 -24 -34 -28 -53 -5 -31 -17 -43 -77 -82 -59 -39
-75 -45 -91 -36 -16 8 -24 7 -35 -4 -13 -13 -13 -18 1 -39 21 -33 22 -65 2
-111 -17 -38 -17 -39 10 -74 15 -20 28 -52 31 -76 6 -55 22 -87 39 -80 17 6
46 -15 38 -28 -3 -5 -16 -9 -28 -9 -48 0 -73 -33 -85 -115 -6 -41 -10 -79 -9
-83 5 -17 -26 -119 -41 -136 -9 -10 -45 -39 -81 -63 -36 -24 -74 -50 -86 -58
-27 -20 -138 -31 -167 -17 -12 6 -64 26 -115 43 -76 26 -96 37 -108 60 -8 16
-25 31 -38 35 -12 3 -103 -8 -200 -25 -98 -17 -180 -31 -182 -31 -2 0 -4 -28
-4 -63 l0 -63 43 -16 c23 -9 89 -37 147 -63 58 -26 166 -73 240 -105 74 -32
202 -88 284 -124 162 -72 165 -73 245 -61 l55 7 -19 -28 c-10 -16 -26 -37 -36
-47 -11 -10 -19 -25 -19 -34 0 -21 49 -73 68 -73 11 0 12 -11 7 -55 -6 -47 -4
-60 16 -92 52 -87 99 -187 99 -213 0 -15 7 -33 15 -40 25 -21 19 -59 -12 -73
-47 -20 -122 -77 -128 -97 -3 -10 -13 -21 -22 -24 -24 -10 3 -36 38 -36 34 0
36 -12 9 -47 -24 -30 -26 -69 -5 -77 23 -9 18 -44 -7 -52 -13 -3 -59 -24 -102
-45 -133 -65 -118 -68 -317 70 -101 70 -184 121 -197 121 -29 0 -348 -106
-380 -127 -20 -12 -21 -16 -9 -33 15 -21 334 -290 345 -290 4 0 161 -1 350 -3
223 -1 342 1 342 8 -1 6 -21 25 -45 43 -59 43 -59 62 -1 62 28 0 55 -8 77 -23
56 -37 93 -48 155 -46 105 4 153 27 230 106 22 24 49 43 59 43 10 0 43 14 74
31 98 55 121 88 84 122 -28 24 -160 85 -201 92 -35 6 -40 10 -62 66 -20 52
-22 64 -11 81 11 18 10 25 -6 47 -11 14 -23 50 -26 80 -6 49 -55 167 -88 212
-10 13 -5 27 26 77 40 66 40 66 182 87 23 4 53 15 65 25 13 10 39 24 58 33 49
20 74 51 66 80 -3 13 -35 64 -72 113 -36 49 -88 133 -115 186 -27 54 -63 110
-79 125 -33 29 -38 50 -15 67 14 10 14 18 -1 81 -12 54 -15 97 -10 183 l5 113
-30 42 c-29 40 -30 42 -10 45 24 4 61 67 61 103 0 13 -7 52 -16 87 l-16 64 28
29 c27 28 27 29 6 29 -13 0 -22 6 -22 15 0 8 -4 15 -9 15 -5 0 -20 19 -34 42
-23 39 -24 45 -11 70 19 37 19 39 -21 78 -19 19 -35 43 -35 53 0 21 -9 21 -36
-1z m-164 -982 c0 -5 -4 -10 -10 -10 -5 0 -10 5 -10 10 0 6 5 10 10 10 6 0 10
-4 10 -10z m31 -133 c0 -7 -32 -98 -36 -105 -2 -1 -23 6 -49 16 l-47 18 58 42
c55 39 75 47 74 29z m43 -621 c-6 -25 -24 -37 -24 -15 0 15 21 52 26 46 3 -3
2 -16 -2 -31z m126 -481 c27 -44 21 -61 -22 -70 -18 -4 -48 -12 -65 -18 -18
-6 -36 -8 -39 -4 -12 12 79 127 102 127 1 0 12 -16 24 -35z m-189 -322 c14
-17 -6 -52 -37 -63 -14 -6 -66 -10 -115 -10 -118 0 -118 15 -1 74 85 43 88 44
115 27 16 -9 33 -21 38 -28z"/>
<path d="M4023 2702 c10 -10 17 -26 17 -35 0 -20 -45 -51 -60 -42 -7 4 -10 1
-8 -8 2 -9 -22 -35 -57 -62 -33 -26 -68 -56 -78 -67 -18 -18 -20 -18 -38 -2
-31 28 -35 -8 -5 -52 19 -28 23 -42 16 -55 -15 -26 -11 -86 8 -159 14 -50 22
-64 35 -62 9 2 17 -3 17 -11 0 -17 -85 -31 -125 -21 -21 5 -27 2 -32 -15 -5
-20 -12 -21 -112 -21 l-106 0 -21 58 c-19 53 -23 57 -50 54 -16 -1 -51 -12
-77 -24 -37 -17 -50 -28 -54 -50 -3 -15 -9 -28 -14 -28 -5 0 -9 -6 -9 -12 0
-16 45 -38 76 -38 27 0 37 -13 60 -77 25 -72 53 -83 143 -59 118 33 106 40
107 -65 1 -61 5 -94 12 -97 17 -5 15 -22 -3 -22 -21 0 -19 -14 6 -36 16 -14
24 -16 37 -7 9 6 16 18 14 27 -5 28 54 21 74 -9 15 -24 15 -25 -13 -49 -16
-14 -54 -70 -83 -125 -50 -94 -75 -128 -171 -243 -78 -92 -56 -139 99 -213 53
-25 108 -52 122 -59 35 -17 36 -53 2 -118 -17 -31 -33 -81 -37 -113 -4 -32
-14 -69 -22 -82 -9 -14 -13 -34 -10 -51 9 -46 -14 -74 -74 -89 -65 -17 -82
-32 -82 -74 0 -42 28 -64 144 -114 79 -34 88 -40 68 -47 -13 -5 -34 -5 -48 1
-47 18 -139 41 -162 41 -16 0 -43 -20 -82 -62 -53 -57 -57 -64 -41 -75 20 -15
94 -18 94 -4 0 5 18 28 39 51 44 48 43 48 153 -4 38 -17 68 -36 68 -42 0 -6
10 -24 22 -39 l22 -28 -37 -29 c-51 -41 -48 -61 16 -100 48 -31 57 -33 120
-30 60 3 69 7 79 27 15 34 33 37 98 19 55 -15 61 -15 112 4 34 13 54 26 57 38
1 11 10 27 18 36 23 26 7 56 -53 94 -57 36 -71 63 -59 111 3 15 17 37 31 50
46 42 22 99 -53 124 -25 8 -38 21 -53 55 -27 58 -35 100 -21 108 6 4 11 22 11
40 0 19 7 50 15 70 11 26 15 63 13 123 l-3 86 41 14 c30 10 45 22 54 44 13 30
10 41 -56 249 -3 8 -12 67 -20 131 -7 64 -20 135 -28 157 -14 38 -13 43 5 67
16 19 19 33 13 58 -4 17 -7 65 -6 105 0 60 3 76 18 87 15 11 19 26 18 79 l0
66 137 0 c137 0 163 6 140 34 -8 10 -47 12 -167 8 l-157 -5 26 34 c35 46 67
118 67 151 0 15 -7 46 -16 68 -17 41 -17 41 12 71 23 24 26 32 15 39 -8 4 -20
6 -26 4 -7 -3 -20 8 -30 23 -10 15 -37 51 -61 78 l-42 50 19 24 c24 30 24 46
-1 71 -25 25 -49 27 -27 2z m52 -592 c3 -5 1 -10 -4 -10 -6 0 -11 5 -11 10 0
6 2 10 4 10 3 0 8 -4 11 -10z m265 -40 c0 -6 -43 -9 -112 -8 l-113 2 80 6
c132 10 145 10 145 0z m-770 -29 c-34 -19 -58 -22 -64 -6 -4 12 3 15 37 15 28
-1 37 -3 27 -9z m398 -1116 c12 -48 12 -75 3 -135 -7 -41 -12 -82 -12 -90 -1
-8 -7 -29 -15 -46 -8 -19 -11 -45 -8 -63 6 -30 5 -31 -27 -31 -119 0 -168 22
-134 60 8 9 15 31 15 48 0 17 24 82 54 145 30 63 57 128 60 144 5 23 12 30 29
29 18 -1 24 -11 35 -61z"/>
</g>
</svg>
