<?xml version="1.0" standalone="no"?>
<!DOCTYPE svg PUBLIC "-//W3C//DTD SVG 20010904//EN"
 "http://www.w3.org/TR/2001/REC-SVG-20010904/DTD/svg10.dtd">
<svg version="1.0" xmlns="http://www.w3.org/2000/svg"
 width="480.000000pt" height="360.000000pt" viewBox="0 0 480.000000 360.000000"
 preserveAspectRatio="xMidYMid meet">
<metadata>
Created by potrace 1.16, written by Peter Selinger 2001-2019
</metadata>
<rect width="1" height="360" fill="#000000"/>
<rect x="479" width="1" height="360" fill="#000000"/>
<rect width="480" height="1" fill="#000000"/>
<rect y="359" width="480" height="1" fill="#000000"/>
<g transform="translate(0.000000,360.000000) scale(0.100000,-0.100000)"
fill="#000000" stroke="none">
<path d="M0 1800 l0 -1800 780 0 780 0 40 25 c99 63 212 99 369 118 l96 12 0
120 c0 73 -9 177 -22 265 -12 80 -25 179 -28 220 -6 69 -21 168 -30 197 -3 8
-15 6 -42 -7 -21 -10 -59 -21 -84 -25 -29 -4 -58 -17 -79 -35 -19 -16 -37 -27
-42 -24 -10 6 -118 -46 -118 -58 0 -4 -7 -8 -15 -8 -9 0 -68 -27 -133 -59
-113 -58 -186 -83 -265 -95 -37 -5 -41 -2 -104 62 -83 86 -124 169 -131 268
l-4 71 33 25 c19 13 63 37 99 52 127 55 171 81 191 112 12 20 40 40 79 58 55
25 61 31 86 87 46 101 118 151 240 164 63 7 272 36 300 41 21 4 21 10 27 246
3 134 13 290 21 348 8 58 14 143 13 190 -1 97 14 151 49 179 46 36 33 55 -62
86 l-87 27 -96 -16 c-123 -20 -131 -20 -131 3 0 20 97 111 215 201 39 30 72
56 75 58 3 2 -4 9 -14 16 -143 84 -229 156 -211 174 4 4 84 8 179 10 l172 3
22 90 c35 150 69 197 99 139 25 -48 80 -175 92 -211 l12 -36 77 -6 c84 -7 357
-60 534 -103 122 -30 165 -53 189 -101 l16 -31 29 18 c18 12 58 66 99 134 38
63 73 112 78 107 4 -4 3 -20 -3 -35 -13 -36 -32 -200 -24 -219 3 -9 20 -22 38
-31 49 -23 60 -43 66 -114 l5 -65 60 -21 c51 -18 60 -25 60 -46 0 -26 -19 -41
-116 -93 l-52 -29 31 -29 c37 -34 35 -30 20 -64 -10 -22 -17 -25 -57 -24 -25
0 -71 4 -101 9 -30 5 -75 12 -100 16 l-46 6 -1 -60 c-2 -67 -25 -156 -56 -217
-19 -39 -20 -47 -8 -320 l12 -280 40 -58 c44 -63 131 -265 148 -346 10 -46 9
-70 -5 -138 -2 -12 -20 -42 -39 -67 -32 -43 -35 -51 -33 -111 1 -39 -3 -70
-10 -77 -16 -16 -15 -231 1 -277 11 -33 15 -36 81 -48 38 -7 73 -16 78 -21 15
-15 -13 -115 -53 -190 -28 -54 -39 -86 -39 -118 l0 -44 755 0 755 0 0 1800 0
1800 -2400 0 -2400 0 0 -1800z"/>
</g>
</svg>
