<?xml version="1.0" standalone="no"?>
<!DOCTYPE svg PUBLIC "-//W3C//DTD SVG 20010904//EN"
 "http://www.w3.org/TR/2001/REC-SVG-20010904/DTD/svg10.dtd">
<svg version="1.0" xmlns="http://www.w3.org/2000/svg"
 width="480.000000pt" height="360.000000pt" viewBox="0 0 480.000000 360.000000"
 preserveAspectRatio="xMidYMid meet">
<metadata>
Created by potrace 1.16, written by Peter Selinger 2001-2019
</metadata>
<rect width="1" height="360" fill="#000000"/>
<rect x="479" width="1" height="360" fill="#000000"/>
<rect width="480" height="1" fill="#000000"/>
<rect y="359" width="480" height="1" fill="#000000"/>
<g transform="translate(0.000000,360.000000) scale(0.100000,-0.100000)"
fill="#000000" stroke="none">
<path d="M0 3397 l0 -203 88 -13 c48 -7 110 -16 137 -21 44 -7 53 -5 75 15 72
64 104 69 152 26 32 -28 32 -30 19 -66 -7 -20 -11 -38 -9 -40 2 -2 28 8 57 22
52 26 55 26 148 15 53 -6 101 -16 106 -21 8 -8 7 -11 -3 -11 -9 0 -7 -7 7 -22
25 -28 46 -89 37 -111 -5 -13 0 -17 20 -17 18 0 26 -5 26 -17 0 -9 12 -41 26
-71 16 -35 23 -60 18 -68 -38 -51 -45 -65 -39 -84 9 -30 61 -75 134 -118 40
-23 74 -52 90 -77 31 -48 47 -62 132 -119 36 -24 73 -56 82 -70 19 -28 22 -78
7 -106 -44 -82 -23 -332 50 -590 79 -280 100 -353 134 -459 20 -62 36 -121 36
-131 0 -10 13 -47 28 -82 54 -121 74 -247 70 -433 l-3 -139 -45 -8 c-37 -6
-53 -16 -87 -55 l-41 -48 -138 0 -138 0 -7 -40 c-4 -22 -9 -84 -11 -138 l-5
-97 553 0 c433 0 553 3 557 13 2 6 -7 29 -20 49 -12 21 -23 47 -23 58 0 12 -5
40 -10 63 -6 23 -14 85 -19 137 -5 52 -14 113 -20 135 -8 29 -8 65 0 132 6 51
9 99 6 106 -3 8 -38 31 -79 51 -108 55 -118 67 -118 141 0 55 -4 67 -31 101
-38 48 -80 131 -104 204 -30 93 -64 146 -110 168 -35 17 -43 27 -55 68 -22 83
-13 232 17 262 7 7 13 23 14 35 0 12 2 31 4 42 1 11 6 62 9 114 4 54 14 107
23 125 12 24 18 78 24 231 7 190 27 332 58 407 6 13 15 48 21 78 6 30 24 83
40 117 17 34 30 67 30 74 0 7 9 23 21 35 25 26 38 76 45 164 2 36 6 76 8 90 3
14 5 30 5 37 1 6 7 18 14 25 49 49 65 129 52 262 l-7 76 -1029 0 -1029 0 0
-203z"/>
<path d="M0 2604 c0 -306 2 -555 4 -553 2 2 23 27 46 54 23 28 89 98 146 157
57 59 112 125 124 148 30 58 37 161 16 232 -10 35 -16 93 -16 157 0 76 -3 101
-13 101 -7 0 -17 -4 -23 -9 -5 -5 -22 -12 -39 -15 -32 -7 -91 22 -101 49 -3 8
10 44 30 80 31 56 34 68 23 85 -6 12 -28 25 -47 30 -104 27 -122 32 -136 37
-12 4 -14 -72 -14 -553z"/>
<path d="M737 2073 c-3 -4 -10 -34 -17 -65 -7 -31 -18 -56 -23 -55 -6 1 -14
-16 -18 -38 -8 -40 -30 -108 -88 -268 -27 -75 -31 -94 -22 -119 12 -34 14 -88
5 -112 -7 -17 -34 -22 -34 -7 0 5 -14 12 -31 16 -39 9 -69 -17 -98 -86 -12
-27 -27 -49 -33 -49 -6 0 -17 -8 -24 -17 -7 -10 -15 -15 -19 -11 -12 11 -25
81 -25 135 0 59 8 70 105 136 l50 34 11 79 c23 161 23 161 7 161 -10 0 -37
-44 -71 -116 -42 -87 -57 -110 -62 -96 -7 19 -7 19 -18 0 -10 -17 -13 -18 -21
-6 -7 11 -12 4 -22 -27 -14 -49 -27 -54 -35 -12 -4 17 -11 27 -17 23 -7 -4 -8
0 -4 11 4 10 10 30 13 44 6 26 6 26 -17 -5 -13 -18 -37 -51 -52 -73 -16 -22
-31 -40 -35 -40 -9 0 -6 97 3 130 l8 25 -30 -28 c-17 -16 -39 -44 -49 -63 -10
-19 -24 -34 -31 -34 -17 0 -16 6 3 35 9 13 14 30 12 37 -3 7 -16 -5 -31 -27
l-27 -40 0 -772 0 -773 364 0 c339 0 365 1 370 18 15 46 34 258 25 267 -6 6
-54 10 -107 10 l-96 0 -16 41 c-26 72 -31 74 -129 69 -47 -3 -98 -8 -112 -11
-24 -5 -27 -3 -31 27 -3 19 0 59 7 91 6 32 8 58 3 58 -14 0 -9 20 17 58 14 20
25 48 25 63 0 14 11 43 25 63 14 20 25 43 25 50 0 7 15 33 32 57 61 83 80 113
84 132 2 10 38 80 80 154 42 74 102 193 132 264 l55 129 -13 56 c-12 50 -12
58 5 87 16 27 18 47 15 132 -5 136 -5 184 0 224 5 32 -11 54 -23 34z"/>
<path d="M897 2026 c-4 -10 -7 -36 -7 -57 0 -22 -5 -71 -11 -110 -6 -38 -9
-74 -7 -80 8 -23 68 109 68 147 -1 51 -33 127 -43 100z"/>
<path d="M949 223 c-11 -3 -25 -35 -43 -102 -14 -54 -26 -103 -26 -109 0 -14
118 -16 139 -3 11 7 13 27 7 100 -4 50 -9 98 -12 106 -6 14 -31 18 -65 8z"/>
</g>
</svg>
