<?xml version="1.0" standalone="no"?>
<!DOCTYPE svg PUBLIC "-//W3C//DTD SVG 20010904//EN"
 "http://www.w3.org/TR/2001/REC-SVG-20010904/DTD/svg10.dtd">
<svg version="1.0" xmlns="http://www.w3.org/2000/svg"
 width="480.000000pt" height="360.000000pt" viewBox="0 0 480.000000 360.000000"
 preserveAspectRatio="xMidYMid meet">
<metadata>
Created by potrace 1.16, written by Peter Selinger 2001-2019
</metadata>
<rect width="1" height="360" fill="#000000"/>
<rect x="479" width="1" height="360" fill="#000000"/>
<rect width="480" height="1" fill="#000000"/>
<rect y="359" width="480" height="1" fill="#000000"/>
<g transform="translate(0.000000,360.000000) scale(0.100000,-0.100000)"
fill="#000000" stroke="none">
<path d="M0 1800 l0 -1800 2400 0 2400 0 0 1800 0 1800 -2400 0 -2400 0 0
-1800z m3228 1195 c60 -25 192 -109 189 -120 -7 -19 -42 -17 -108 5 -73 26
-100 22 -98 -12 3 -66 9 -72 97 -84 45 -7 102 -22 127 -34 40 -19 45 -25 42
-52 -2 -27 2 -32 38 -44 50 -18 73 -40 32 -30 -37 9 -27 -7 18 -28 20 -10 33
-21 30 -25 -2 -5 2 -14 10 -21 8 -7 15 -17 15 -23 0 -5 -8 -3 -18 6 -18 16
-19 15 -17 -18 1 -38 -4 -42 -23 -23 -10 10 -14 10 -21 0 -6 -11 -21 -10 -79
3 -39 9 -103 17 -141 19 l-69 2 28 -56 c15 -30 35 -76 45 -103 l18 -47 23 50
c18 38 32 54 58 65 49 21 65 19 78 -10 6 -14 22 -28 34 -31 24 -6 31 -25 36
-104 l3 -35 65 -6 c36 -4 104 -7 153 -8 48 0 87 -4 87 -8 0 -5 -6 -15 -13 -24
-13 -17 -22 -17 -157 -4 l-55 5 100 -49 100 -50 135 26 c109 20 163 25 280 24
81 -1 146 -5 148 -10 2 -6 10 -7 18 -4 17 6 19 -18 2 -35 -11 -11 -9 -13 8
-11 4 0 12 -10 18 -22 6 -12 19 -23 28 -25 9 -1 27 -10 40 -19 l23 -17 -23 5
c-13 3 -20 1 -16 -5 3 -5 22 -7 43 -3 25 4 42 1 56 -10 11 -9 13 -14 5 -10 -8
4 -6 -1 4 -9 11 -9 29 -17 40 -17 17 -1 18 -2 4 -6 -10 -2 -18 -13 -18 -24 0
-10 -6 -19 -12 -20 -7 0 -3 -5 10 -11 24 -12 31 -58 10 -58 -7 -1 1 -7 17 -16
27 -13 28 -14 5 -10 -14 2 -36 0 -50 -4 -22 -7 -23 -8 -4 -9 12 -1 27 -7 33
-15 10 -12 6 -14 -28 -12 -47 4 -52 0 -15 -14 38 -15 19 -33 -26 -26 -21 3
-45 9 -54 12 -9 3 -16 1 -16 -6 0 -20 -27 -40 -54 -40 -16 0 -26 -6 -26 -15 0
-9 -9 -15 -21 -15 -17 0 -19 -3 -10 -14 22 -26 -29 -27 -81 -1 -58 29 -62 20
-7 -19 57 -40 41 -43 -26 -4 -31 18 -68 39 -83 47 -34 18 -125 37 -267 57
-129 17 -228 45 -305 84 -39 20 -74 30 -123 33 l-69 5 6 -32 c3 -17 9 -63 12
-102 7 -69 6 -72 -17 -79 -13 -4 -32 -14 -42 -23 -15 -13 -21 -13 -43 -1 -34
18 -45 50 -43 117 3 61 -7 73 -57 65 -17 -3 -39 -1 -49 4 -11 6 -42 5 -88 -3
-99 -18 -168 -17 -195 2 -23 16 -29 48 -12 59 14 9 3 24 -18 24 -9 -1 -78 4
-152 10 -74 6 -155 10 -180 9 l-45 0 50 -12 c41 -10 49 -16 47 -32 -2 -10 -6
-21 -8 -23 -2 -2 -39 5 -81 17 -43 11 -127 28 -187 37 -98 15 -110 15 -118 1
-5 -8 -15 -13 -23 -10 -8 4 -15 2 -15 -4 0 -20 -43 1 -58 28 -14 24 -25 29
-77 35 -69 7 -98 23 -120 65 -14 28 -14 31 1 37 10 4 76 1 148 -5 72 -7 203
-19 291 -27 88 -8 225 -18 305 -21 l145 -7 40 46 c37 42 89 124 132 205 l18
34 -28 20 c-25 19 -27 24 -27 99 0 67 -3 80 -17 85 -10 3 -34 13 -53 22 -57
28 -48 85 20 122 l25 14 -35 8 c-19 4 -58 13 -86 18 -64 13 -150 54 -162 77
-14 27 -4 43 26 43 15 0 37 3 50 6 22 6 21 8 -18 41 -22 19 -40 42 -40 51 0
26 41 62 70 62 23 0 29 -6 34 -30 4 -20 14 -34 31 -40 20 -8 25 -15 20 -29 -6
-19 -5 -19 36 -3 30 12 49 29 70 62 55 89 199 135 297 95z"/>
<path d="M3013 2563 c-7 -3 -13 -13 -13 -23 0 -25 27 -33 33 -10 6 22 -4 38
-20 33z"/>
<path d="M3080 2199 c-12 -24 -38 -65 -56 -90 -37 -51 -69 -118 -60 -127 11
-11 45 15 96 73 29 33 59 74 68 92 14 29 14 34 -6 64 l-20 32 -22 -44z"/>
<path d="M3554 2159 c-9 -16 -1 -19 57 -25 46 -4 50 -3 29 7 -47 21 -80 28
-86 18z"/>
</g>
</svg>
