<?xml version="1.0" standalone="no"?>
<!DOCTYPE svg PUBLIC "-//W3C//DTD SVG 20010904//EN"
 "http://www.w3.org/TR/2001/REC-SVG-20010904/DTD/svg10.dtd">
<svg version="1.0" xmlns="http://www.w3.org/2000/svg"
 width="480.000000pt" height="360.000000pt" viewBox="0 0 480.000000 360.000000"
 preserveAspectRatio="xMidYMid meet">
<metadata>
Created by potrace 1.16, written by Peter Selinger 2001-2019
</metadata>
<rect width="1" height="360" fill="#000000"/>
<rect x="479" width="1" height="360" fill="#000000"/>
<rect width="480" height="1" fill="#000000"/>
<rect y="359" width="480" height="1" fill="#000000"/>
<g transform="translate(0.000000,360.000000) scale(0.100000,-0.100000)"
fill="#000000" stroke="none">
<path d="M0 1800 l0 -1800 2400 0 2400 0 0 1800 0 1800 -2400 0 -2400 0 0
-1800z m2335 954 c11 -25 28 -50 37 -55 9 -5 19 -18 23 -28 4 -14 21 -23 56
-30 65 -14 98 -40 156 -121 l47 -67 107 -11 c139 -15 205 -38 287 -105 37 -29
81 -63 99 -76 45 -30 48 -50 19 -131 -31 -92 -50 -112 -95 -108 -32 3 -36 0
-66 -57 -61 -113 -169 -152 -281 -101 -64 30 -83 27 -118 -14 -20 -24 -23 -38
-20 -81 1 -28 10 -62 19 -75 17 -26 20 -54 6 -54 -5 0 -12 8 -15 17 -5 11 -10
13 -17 6 -13 -13 0 -59 37 -138 27 -56 29 -76 12 -93 -6 -6 -12 -23 -14 -37
-4 -37 -20 -53 -61 -61 l-34 -6 6 -57 c14 -127 39 -254 77 -386 21 -77 46
-180 55 -229 16 -84 16 -89 -1 -102 -13 -9 -17 -22 -14 -48 4 -32 2 -35 -18
-30 -32 8 -58 -34 -50 -78 25 -133 18 -154 -47 -144 -63 10 -78 22 -70 54 3
15 15 39 26 54 19 25 19 27 1 67 -20 46 -43 52 -93 26 -50 -25 -54 -65 -11
-105 17 -16 33 -42 36 -58 6 -28 3 -32 -47 -55 -38 -19 -58 -23 -70 -16 -23
12 -32 57 -23 114 13 88 -19 110 -119 83 -56 -15 -82 -7 -141 42 -34 28 -58
40 -80 40 -36 0 -54 12 -79 53 -10 15 -25 27 -35 27 -10 0 -26 6 -36 13 -17
12 -17 16 -3 50 14 33 14 38 1 52 -14 14 -13 19 8 53 12 20 43 60 69 88 71 79
123 152 169 236 39 74 42 83 51 204 5 70 12 132 16 138 4 6 -3 2 -15 -8 l-22
-19 16 54 c9 30 25 72 36 93 11 22 21 49 23 60 1 12 10 38 19 59 17 38 17 39
-4 32 -30 -10 -27 38 4 59 17 11 23 22 19 36 -8 29 -36 25 -83 -15 -45 -37
-82 -48 -150 -43 -41 3 -48 7 -88 61 -35 45 -47 55 -57 47 -22 -19 -61 -8 -57
15 2 11 7 54 11 95 4 41 13 86 21 100 40 78 184 206 290 260 63 32 62 30 84
139 19 91 32 112 101 158 30 19 55 38 55 40 0 2 -5 1 -12 -3 -8 -5 -9 5 -4 37
4 24 10 63 13 87 3 23 8 42 12 42 3 0 15 -21 26 -46z"/>
<path d="M3097 2150 c-43 -38 -49 -60 -25 -90 18 -22 19 -22 33 -4 8 10 19 33
25 49 7 17 16 38 21 47 12 24 11 28 -6 28 -8 0 -30 -14 -48 -30z"/>
<path d="M2884 2005 c-58 -13 -137 -47 -178 -78 -18 -13 -15 -16 39 -41 31
-14 69 -26 82 -26 46 0 127 55 161 110 l31 50 -37 -1 c-20 0 -64 -7 -98 -14z"/>
<path d="M1768 1903 c-4 -64 -2 -75 12 -53 12 19 13 110 1 110 -5 0 -11 -26
-13 -57z"/>
<path d="M2550 1861 c0 -14 18 -23 31 -15 8 4 7 9 -2 15 -18 11 -29 11 -29 0z"/>
<path d="M1848 1853 c-10 -2 -18 -7 -18 -10 0 -16 84 -102 105 -107 50 -13
166 39 149 66 -4 5 -30 21 -58 34 -49 23 -128 30 -178 17z"/>
<path d="M2521 1458 c-1 -69 5 -83 34 -72 13 6 16 15 11 42 -3 20 -10 38 -15
41 -6 4 -14 18 -20 31 -8 20 -10 13 -10 -42z"/>
</g>
</svg>
