<?xml version="1.0" standalone="no"?>
<!DOCTYPE svg PUBLIC "-//W3C//DTD SVG 20010904//EN"
 "http://www.w3.org/TR/2001/REC-SVG-20010904/DTD/svg10.dtd">
<svg version="1.0" xmlns="http://www.w3.org/2000/svg"
 width="480.000000pt" height="360.000000pt" viewBox="0 0 480.000000 360.000000"
 preserveAspectRatio="xMidYMid meet">
<metadata>
Created by potrace 1.16, written by Peter Selinger 2001-2019
</metadata>
<rect width="1" height="360" fill="#000000"/>
<rect x="479" width="1" height="360" fill="#000000"/>
<rect width="480" height="1" fill="#000000"/>
<rect y="359" width="480" height="1" fill="#000000"/>
<g transform="translate(0.000000,360.000000) scale(0.100000,-0.100000)"
fill="#000000" stroke="none">
<path d="M70 3586 c0 -8 20 -76 44 -153 25 -76 59 -185 76 -243 l31 -105 -26
-20 c-22 -18 -25 -28 -25 -82 0 -45 -4 -62 -15 -67 -12 -4 -9 -13 14 -48 50
-75 109 -210 126 -293 9 -44 26 -99 38 -122 11 -24 18 -46 14 -49 -6 -6 -75
-22 -126 -29 -30 -4 -93 -65 -108 -104 -23 -62 54 -122 195 -151 38 -8 62 -18
62 -26 0 -10 -17 -12 -72 -8 -62 4 -70 3 -53 -8 25 -17 79 -72 129 -133 l40
-47 62 5 c80 6 123 32 157 96 23 42 33 50 71 60 25 6 64 11 88 11 24 0 59 8
78 18 44 22 58 57 42 109 -13 45 -84 121 -121 130 -14 3 -34 12 -43 20 -9 8
-22 12 -28 8 -6 -4 -18 -1 -27 6 -22 19 -83 38 -99 32 -24 -9 -15 16 11 33 15
10 63 20 118 26 50 5 107 13 125 19 38 13 53 5 138 -72 39 -35 62 -49 82 -48
15 0 46 -3 68 -7 38 -6 44 -4 59 20 11 16 15 35 11 51 -8 30 -36 34 -36 5 0
-26 -16 -25 -38 1 -9 11 -37 35 -62 52 -25 17 -64 47 -87 67 -42 37 -43 37
-155 43 -77 5 -123 3 -145 -5 -29 -11 -35 -10 -47 7 -11 16 -11 24 1 54 8 20
22 44 30 53 9 10 13 26 10 40 -4 14 3 38 18 65 28 46 31 58 13 47 -8 -5 -9 -2
-4 12 4 10 9 31 11 46 3 21 -1 27 -20 32 -45 11 -49 40 -15 104 49 92 98 150
220 259 132 118 153 147 138 199 -5 19 -8 49 -6 67 l3 32 -482 3 c-411 2 -483
0 -483 -12z"/>
<path d="M2400 1800 l0 -1800 879 0 c829 0 880 1 885 18 3 9 8 55 11 102 8
106 29 224 55 308 29 93 28 102 -15 95 -49 -8 -65 9 -65 68 0 53 -8 60 -30 29
-22 -30 -33 -24 -28 16 l4 36 -28 -33 -27 -34 -1 28 c0 15 7 44 15 63 13 32
13 35 0 30 -19 -7 -19 5 0 49 14 34 13 35 -8 30 -118 -27 -168 -32 -166 -17 4
23 -4 32 -30 32 -16 0 -41 6 -55 14 l-27 14 33 26 33 27 -29 -7 c-21 -5 -27
-4 -22 5 4 6 1 11 -6 11 -7 0 4 11 25 25 20 14 37 31 37 38 0 7 13 34 30 60
30 47 26 66 -10 47 -11 -6 -20 -8 -20 -6 0 3 65 37 144 76 108 52 146 76 152
93 3 12 13 30 22 40 14 16 12 21 -38 67 -53 49 -54 50 -34 71 25 28 49 40 109
55 83 22 153 50 191 77 44 31 69 25 132 -32 55 -50 54 -68 -3 -83 -32 -9 -44
-16 -40 -26 8 -22 35 -155 35 -175 0 -10 -4 -15 -10 -12 -15 9 -12 -2 6 -30 9
-14 14 -32 11 -40 -8 -19 10 -71 42 -119 29 -43 41 -109 46 -245 5 -130 24
-337 36 -391 20 -87 39 -246 39 -322 l0 -78 60 0 60 0 0 1800 0 1800 -1200 0
-1200 0 0 -1800z"/>
</g>
</svg>
