<?xml version="1.0" standalone="no"?>
<!DOCTYPE svg PUBLIC "-//W3C//DTD SVG 20010904//EN"
 "http://www.w3.org/TR/2001/REC-SVG-20010904/DTD/svg10.dtd">
<svg version="1.0" xmlns="http://www.w3.org/2000/svg"
 width="480.000000pt" height="360.000000pt" viewBox="0 0 480.000000 360.000000"
 preserveAspectRatio="xMidYMid meet">
<metadata>
Created by potrace 1.16, written by Peter Selinger 2001-2019
</metadata>
<rect width="1" height="360" fill="#000000"/>
<rect x="479" width="1" height="360" fill="#000000"/>
<rect width="480" height="1" fill="#000000"/>
<rect y="359" width="480" height="1" fill="#000000"/>
<g transform="translate(0.000000,360.000000) scale(0.100000,-0.100000)"
fill="#000000" stroke="none">
<path d="M2930 3578 c-32 -48 -33 -51 -19 -43 8 4 22 15 32 23 21 18 21 14 3
-29 -15 -37 -31 -139 -22 -139 3 0 12 12 21 28 l15 27 -2 -30 c-1 -17 1 -35 5
-42 4 -6 4 -18 1 -27 -4 -11 -1 -16 10 -16 9 0 16 -8 16 -18 0 -10 7 -27 15
-39 13 -18 13 -22 -3 -36 -9 -8 -36 -20 -59 -26 -36 -10 -43 -16 -43 -37 0
-14 7 -39 16 -56 14 -27 14 -37 4 -69 -11 -31 -11 -41 0 -54 7 -8 10 -22 6
-30 -7 -20 14 -177 26 -192 5 -7 7 -16 4 -21 -3 -5 24 -7 60 -6 71 3 76 -2 44
-51 -30 -45 -25 -47 30 -15 28 17 53 30 55 30 3 0 2 -20 -2 -45 -5 -39 -4 -45
11 -39 14 5 16 -2 16 -48 0 -49 -3 -57 -30 -76 -18 -14 -30 -32 -30 -45 0 -26
-92 -121 -180 -186 -54 -40 -195 -196 -232 -256 -20 -34 -24 -58 -5 -35 7 8
24 24 37 35 14 11 19 13 13 5 -7 -8 -13 -25 -13 -39 0 -23 1 -24 13 -7 8 11
19 17 26 15 8 -3 -5 -39 -38 -106 -28 -57 -62 -136 -77 -178 -23 -66 -26 -85
-22 -167 3 -63 15 -127 36 -198 40 -138 51 -198 58 -345 l7 -121 -154 -87
c-85 -47 -203 -110 -264 -139 l-110 -53 -125 2 c-169 3 -180 7 -205 72 -11 29
-35 70 -53 92 -30 35 -31 39 -13 39 28 0 26 11 -4 40 -37 35 -30 96 16 139 22
20 22 21 5 40 -18 19 -17 20 10 27 39 9 53 21 70 62 16 40 7 85 -28 134 -10
15 -22 47 -27 72 -5 25 -14 53 -21 61 -16 20 -59 19 -67 -1 -3 -8 -12 -13 -20
-10 -8 4 -20 3 -26 -1 -7 -4 -39 -8 -72 -8 -47 0 -70 -6 -107 -28 -80 -47
-118 -133 -148 -335 -12 -81 -41 -207 -71 -307 -28 -93 -55 -204 -61 -246 -15
-97 1 -334 27 -397 17 -41 18 -42 66 -42 37 0 49 4 49 15 0 8 5 15 10 15 6 0
10 -7 10 -15 0 -31 28 -14 38 22 6 23 10 30 11 17 1 -12 8 -28 17 -35 15 -12
16 -11 9 11 -14 40 -8 136 9 171 9 18 16 40 16 51 0 20 8 22 30 8 12 -8 11
-13 -8 -33 -28 -30 -28 -62 0 -81 21 -15 21 -16 5 -76 -9 -33 -17 -62 -17 -65
0 -3 135 -5 299 -5 l300 0 -6 35 c-5 33 -4 35 39 54 99 42 509 148 528 136 6
-4 -19 -145 -34 -193 -5 -15 -3 -24 6 -27 7 -3 314 -4 681 -3 l668 3 -64 110
c-34 61 -114 191 -176 289 -71 114 -111 186 -108 198 8 28 -21 137 -49 188
-20 35 -27 68 -36 160 -12 128 -6 305 12 364 11 35 14 38 40 33 15 -4 30 -4
33 -1 2 3 -5 29 -16 60 -18 50 -19 61 -8 124 9 51 18 72 34 83 39 25 79 71 94
105 7 18 18 30 23 27 6 -3 11 0 11 7 1 7 5 -5 8 -26 3 -22 12 -41 20 -44 8 -3
11 0 7 6 -3 6 5 19 19 30 30 24 31 36 4 193 -15 89 -17 124 -9 129 9 5 7 22
-4 60 -9 30 -14 55 -12 58 3 2 -6 33 -20 68 -13 35 -19 64 -14 64 8 0 63 -86
73 -113 5 -15 37 5 37 24 0 34 35 21 90 -33 l53 -52 -5 66 c-5 60 -4 65 13 61
21 -6 25 7 7 25 -7 7 -9 12 -5 12 3 0 22 -25 42 -55 42 -67 62 -72 35 -9 -11
25 -20 48 -20 50 0 8 73 -35 83 -48 6 -9 7 -6 4 10 -3 12 -1 22 5 22 5 0 0 13
-12 29 -24 34 -53 101 -47 107 2 3 28 -14 56 -37 29 -22 54 -39 56 -37 2 1 -5
37 -16 78 -10 41 -17 81 -14 88 3 7 -7 31 -21 53 -37 60 -84 182 -84 221 1 18
17 74 36 123 75 190 86 222 100 294 13 67 12 86 -6 214 -11 78 -26 158 -32
179 l-11 38 -636 0 -636 0 -15 -22z m1128 -1283 c-3 -3 -9 2 -12 12 -6 14 -5
15 5 6 7 -7 10 -15 7 -18z m-2501 -1812 c-3 -10 -5 -4 -5 12 0 17 2 24 5 18 2
-7 2 -21 0 -30z m5 -104 c17 -9 18 -13 7 -20 -23 -15 -39 -10 -39 11 0 23 4
24 32 9z"/>
</g>
</svg>
