<?xml version="1.0" standalone="no"?>
<!DOCTYPE svg PUBLIC "-//W3C//DTD SVG 20010904//EN"
 "http://www.w3.org/TR/2001/REC-SVG-20010904/DTD/svg10.dtd">
<svg version="1.0" xmlns="http://www.w3.org/2000/svg"
 width="480.000000pt" height="360.000000pt" viewBox="0 0 480.000000 360.000000"
 preserveAspectRatio="xMidYMid meet">
<metadata>
Created by potrace 1.16, written by Peter Selinger 2001-2019
</metadata>
<rect width="1" height="360" fill="#000000"/>
<rect x="479" width="1" height="360" fill="#000000"/>
<rect width="480" height="1" fill="#000000"/>
<rect y="359" width="480" height="1" fill="#000000"/>
<g transform="translate(0.000000,360.000000) scale(0.100000,-0.100000)"
fill="#000000" stroke="none">
<path d="M2313 2466 c-39 -7 -54 -15 -62 -33 -14 -30 -14 -90 -1 -98 5 -3 19
-27 32 -53 12 -26 24 -50 26 -54 2 -5 -3 -8 -12 -8 -9 0 -16 -8 -16 -18 0 -10
-18 -43 -40 -72 -44 -59 -50 -94 -20 -110 24 -13 27 -57 7 -103 -8 -18 -20
-49 -26 -71 -7 -21 -22 -47 -32 -57 -19 -19 -25 -54 -11 -63 4 -2 -2 -65 -14
-138 -32 -188 -56 -396 -52 -442 3 -36 8 -42 47 -62 25 -12 63 -25 85 -28 49
-8 66 -21 66 -52 0 -29 -8 -34 -105 -60 -92 -24 -104 -44 -35 -57 25 -5 48
-14 52 -21 11 -16 222 -12 272 6 54 20 56 36 7 44 -40 6 -41 8 -59 68 -21 70
-20 72 56 82 34 4 56 12 60 22 3 8 -2 72 -11 141 -10 69 -22 173 -28 231 -5
58 -21 150 -35 205 -34 135 -36 156 -20 202 21 60 14 282 -11 323 -16 27 -16
32 -3 40 8 6 21 8 27 5 7 -2 19 6 27 18 27 43 28 66 6 111 -49 97 -86 119
-177 102z"/>
<path d="M4789 1346 c-2 -3 -65 -17 -139 -31 -143 -29 -461 -127 -478 -148 -5
-6 -13 -35 -17 -64 -7 -50 -6 -52 24 -68 18 -9 31 -23 31 -34 0 -28 22 -41 61
-35 29 5 38 1 62 -25 15 -17 33 -31 41 -31 7 0 24 25 36 56 37 90 118 134 249
134 26 0 68 7 94 16 l47 16 0 109 c0 104 -1 115 -11 105z"/>
</g>
</svg>
