<?xml version="1.0" standalone="no"?>
<!DOCTYPE svg PUBLIC "-//W3C//DTD SVG 20010904//EN"
 "http://www.w3.org/TR/2001/REC-SVG-20010904/DTD/svg10.dtd">
<svg version="1.0" xmlns="http://www.w3.org/2000/svg"
 width="480.000000pt" height="360.000000pt" viewBox="0 0 480.000000 360.000000"
 preserveAspectRatio="xMidYMid meet">
<metadata>
Created by potrace 1.16, written by Peter Selinger 2001-2019
</metadata>
<rect width="1" height="360" fill="#000000"/>
<rect x="479" width="1" height="360" fill="#000000"/>
<rect width="480" height="1" fill="#000000"/>
<rect y="359" width="480" height="1" fill="#000000"/>
<g transform="translate(0.000000,360.000000) scale(0.100000,-0.100000)"
fill="#000000" stroke="none">
<path d="M1330 3585 c0 -51 -64 -102 -117 -93 -25 4 -19 -32 18 -97 27 -49 37
-85 22 -85 -3 0 -33 26 -66 57 -56 54 -82 60 -58 14 13 -24 14 -68 3 -75 -13
-8 -3 -116 14 -153 8 -18 29 -40 47 -49 53 -27 55 -30 46 -80 -5 -26 -5 -74 1
-112 8 -55 6 -71 -6 -91 -13 -19 -22 -22 -48 -18 l-31 5 0 -62 0 -61 -32 -3
c-17 -2 -36 -9 -41 -15 -5 -7 -17 -57 -26 -112 -20 -117 -33 -167 -97 -365
-56 -175 -58 -186 -39 -228 35 -78 151 -152 213 -137 14 4 57 38 96 76 39 38
80 69 91 69 33 0 85 -124 105 -248 15 -92 8 -155 -30 -267 l-37 -109 23 -19
c13 -10 31 -16 40 -14 11 3 24 -4 33 -18 13 -20 13 -25 1 -35 -9 -7 -15 -29
-15 -51 0 -26 -10 -52 -30 -83 -57 -85 -72 -131 -129 -416 -63 -309 -107 -479
-155 -599 l-44 -111 785 0 c743 0 785 1 780 17 -66 225 -74 246 -180 488 -41
94 -100 238 -132 320 -67 174 -108 261 -165 341 -22 31 -40 67 -40 80 0 12 18
58 40 101 53 103 80 230 87 403 5 128 4 139 -21 210 -38 106 -39 102 24 121
136 42 128 43 309 -18 211 -70 240 -72 341 -16 87 48 175 84 243 101 26 7 68
17 93 24 36 9 51 19 66 45 11 18 25 33 32 32 17 -3 63 18 72 33 5 7 9 34 9 60
0 57 16 78 45 60 11 -6 26 -12 33 -12 8 0 35 -17 62 -37 43 -34 54 -38 107
-38 55 0 62 3 89 33 48 53 40 98 -33 182 -33 38 -41 42 -70 37 -21 -3 -41 0
-53 9 -10 8 -29 14 -42 14 -13 0 -22 3 -21 8 1 4 -1 17 -6 29 -6 18 -11 21
-27 13 -10 -6 -28 -14 -38 -20 -21 -10 -31 4 -31 40 0 10 -10 22 -22 25 -11 4
-32 19 -44 32 -27 29 -55 25 -49 -7 6 -29 -34 -26 -71 5 -20 18 -38 25 -56 22
-21 -3 -28 1 -30 17 -6 37 -27 29 -34 -14 -7 -40 -8 -41 -43 -38 -29 2 -38 -1
-46 -19 -9 -22 -12 -23 -170 -18 -88 2 -191 9 -230 15 -62 9 -257 27 -325 31
-21 1 -19 3 10 10 40 11 543 99 732 129 178 28 172 24 137 91 -18 37 -23 40
-47 34 -83 -22 -231 -46 -412 -69 -193 -25 -252 -32 -467 -56 -49 -5 -99 -12
-112 -15 -22 -6 -23 -4 -16 32 3 21 11 42 16 47 14 15 11 127 -6 182 -8 27
-30 73 -49 103 -35 57 -37 76 -6 86 10 3 22 19 25 35 4 17 11 32 16 35 12 8
12 45 -1 45 -5 0 -7 26 -4 63 5 60 4 63 -30 99 l-35 37 -371 1 c-330 0 -370
-1 -370 -15z m1783 -691 c-3 -8 -8 -14 -12 -14 -20 0 -435 -62 -442 -66 -19
-11 -391 -74 -441 -74 -20 0 -40 5 -43 10 -3 6 -2 10 3 10 7 0 69 10 217 34
17 2 68 12 115 20 47 9 173 32 280 51 107 20 220 41 250 49 57 13 83 6 73 -20z
m-848 -224 c3 -5 -1 -10 -9 -10 -8 0 -18 5 -21 10 -3 6 1 10 9 10 8 0 18 -4
21 -10z m-5 -30 c0 -5 -2 -10 -4 -10 -3 0 -8 5 -11 10 -3 6 -1 10 4 10 6 0 11
-4 11 -10z m704 -155 c-4 -8 -13 -15 -21 -15 -13 0 -13 3 -3 15 7 8 16 15 21
15 5 0 6 -7 3 -15z m-159 -85 l20 -8 -20 -6 c-11 -4 -36 -15 -55 -24 -34 -17
-36 -16 -88 8 -29 14 -50 29 -46 33 10 10 164 8 189 -3z"/>
</g>
</svg>
