<?xml version="1.0" standalone="no"?>
<!DOCTYPE svg PUBLIC "-//W3C//DTD SVG 20010904//EN"
 "http://www.w3.org/TR/2001/REC-SVG-20010904/DTD/svg10.dtd">
<svg version="1.0" xmlns="http://www.w3.org/2000/svg"
 width="480.000000pt" height="360.000000pt" viewBox="0 0 480.000000 360.000000"
 preserveAspectRatio="xMidYMid meet">
<metadata>
Created by potrace 1.16, written by Peter Selinger 2001-2019
</metadata>
<rect width="1" height="360" fill="#000000"/>
<rect x="479" width="1" height="360" fill="#000000"/>
<rect width="480" height="1" fill="#000000"/>
<rect y="359" width="480" height="1" fill="#000000"/>
<g transform="translate(0.000000,360.000000) scale(0.100000,-0.100000)"
fill="#000000" stroke="none">
<path d="M0 3547 c0 -30 9 -80 20 -113 28 -80 70 -229 70 -248 0 -9 -13 -22
-30 -31 -36 -19 -47 -55 -32 -109 10 -40 7 -49 -22 -59 -6 -2 2 -19 16 -38 52
-67 120 -216 154 -333 19 -65 42 -131 51 -146 13 -23 14 -32 4 -44 -7 -8 -20
-15 -29 -14 -9 0 -28 -3 -42 -6 -14 -3 -41 -9 -60 -12 -22 -4 -47 -19 -67 -41
-31 -32 -33 -39 -33 -102 0 -68 0 -69 38 -94 20 -15 81 -39 134 -54 65 -18 98
-32 98 -41 0 -9 -6 -12 -15 -8 -9 3 -45 11 -80 18 -66 12 -95 5 -61 -16 42
-25 77 -60 119 -119 55 -76 80 -91 144 -85 78 8 137 40 179 98 20 28 48 57 63
64 14 7 67 16 116 20 102 7 134 23 149 74 19 69 -72 200 -155 222 -20 6 -43
17 -50 26 -7 8 -21 13 -30 11 -10 -3 -23 1 -30 9 -6 8 -20 14 -30 14 -10 0
-21 4 -24 10 -3 5 -19 7 -35 3 -46 -9 -38 19 13 43 37 18 60 20 184 17 l143
-2 52 -34 c29 -19 71 -50 92 -68 22 -19 49 -34 60 -34 12 -1 37 -9 56 -19 49
-24 85 -10 99 40 14 51 -1 77 -38 69 -18 -4 -35 0 -52 12 -13 10 -41 28 -62
38 -21 11 -64 39 -95 63 -31 23 -66 45 -77 48 -59 14 -251 31 -275 24 -62 -18
-104 94 -65 171 8 15 15 37 15 49 0 11 10 41 22 66 16 36 18 48 8 54 -7 4 -9
13 -5 20 5 9 4 11 -3 6 -9 -5 -12 10 -12 52 0 111 83 230 280 402 133 116 160
145 160 169 0 8 -157 11 -515 11 l-515 0 0 -53z"/>
<path d="M2400 1800 l0 -1800 884 0 c974 0 896 -5 896 61 0 41 36 203 72 329
24 83 29 117 25 164 -7 74 -21 90 -37 42 -8 -25 -16 -33 -27 -29 -8 3 -19 0
-25 -8 -6 -10 -11 -10 -14 -3 -4 8 -20 6 -55 -7 -38 -15 -55 -17 -70 -9 -25
14 -19 38 26 100 18 25 45 70 60 100 15 30 36 66 46 79 11 13 18 26 16 28 -2
2 -42 -14 -88 -36 -106 -49 -150 -56 -178 -30 -11 10 -34 19 -50 19 -22 0 -29
4 -25 14 4 11 0 13 -15 9 -27 -7 -27 1 2 28 l22 22 -22 -6 c-13 -3 -25 -2 -27
2 -3 4 23 38 56 76 53 61 104 106 174 153 11 7 1 4 -21 -7 -22 -10 -61 -38
-87 -61 -53 -46 -59 -45 -26 8 l22 35 -30 -7 c-48 -12 -18 7 121 78 187 96
218 144 143 222 -17 18 -28 40 -26 50 4 25 73 62 128 70 25 3 55 12 67 20 12
8 29 14 37 14 9 0 31 13 49 30 19 16 41 30 49 30 19 0 83 -42 126 -83 30 -29
31 -33 15 -44 -9 -7 -34 -13 -55 -13 -21 0 -38 -5 -38 -11 0 -6 13 -41 29 -77
42 -97 45 -112 26 -112 -11 0 -14 -7 -11 -22 3 -13 8 -54 12 -93 3 -38 12 -81
19 -95 7 -14 19 -55 25 -90 6 -36 19 -73 27 -82 12 -13 14 -30 10 -66 -5 -39
-1 -60 19 -102 17 -38 21 -56 14 -65 -11 -14 1 -84 61 -353 17 -74 34 -159 38
-190 5 -32 9 737 10 1731 l1 1787 -1200 0 -1200 0 0 -1800z"/>
</g>
</svg>
