<?xml version="1.0" standalone="no"?>
<!DOCTYPE svg PUBLIC "-//W3C//DTD SVG 20010904//EN"
 "http://www.w3.org/TR/2001/REC-SVG-20010904/DTD/svg10.dtd">
<svg version="1.0" xmlns="http://www.w3.org/2000/svg"
 width="480.000000pt" height="360.000000pt" viewBox="0 0 480.000000 360.000000"
 preserveAspectRatio="xMidYMid meet">
<metadata>
Created by potrace 1.16, written by Peter Selinger 2001-2019
</metadata>
<rect width="1" height="360" fill="#000000"/>
<rect x="479" width="1" height="360" fill="#000000"/>
<rect width="480" height="1" fill="#000000"/>
<rect y="359" width="480" height="1" fill="#000000"/>
<g transform="translate(0.000000,360.000000) scale(0.100000,-0.100000)"
fill="#000000" stroke="none">
<path d="M0 1800 l0 -1800 2400 0 2400 0 0 1800 0 1800 -2400 0 -2400 0 0
-1800z m2208 897 c3 -22 8 -27 32 -27 34 0 50 -19 27 -32 -9 -5 -21 -17 -27
-27 -9 -17 -6 -19 26 -18 28 1 41 8 60 33 35 45 71 57 158 52 66 -3 80 -7 118
-36 24 -18 64 -47 90 -65 26 -18 48 -35 48 -39 0 -16 -44 -7 -101 18 -32 15
-65 24 -72 21 -15 -6 -31 -77 -19 -88 4 -4 33 -14 64 -23 62 -18 130 -69 122
-91 -4 -8 7 -17 30 -25 20 -6 36 -15 36 -20 0 -5 17 -19 38 -32 29 -18 33 -23
19 -26 -14 -3 -17 -10 -12 -29 3 -15 2 -22 -4 -19 -5 4 -21 1 -35 -5 -20 -9
-29 -9 -42 2 -14 11 -18 11 -28 -2 -11 -16 -100 -20 -124 -5 -18 11 -22 -27
-8 -69 17 -47 38 -56 54 -21 15 34 55 58 89 54 27 -3 28 -6 34 -70 3 -38 8
-71 12 -74 7 -7 181 -34 225 -34 26 0 32 -4 32 -21 0 -19 -4 -20 -57 -15 l-58
6 43 -16 c23 -9 42 -22 42 -30 0 -9 4 -13 8 -10 5 3 66 15 136 27 127 21 159
21 296 -5 8 -2 14 -11 12 -20 -2 -9 4 -16 13 -16 8 0 14 -3 14 -7 -4 -22 3
-35 26 -45 13 -6 22 -15 19 -19 -3 -5 4 -9 16 -9 23 0 53 -24 43 -34 -4 -3 1
-6 11 -6 12 0 15 -6 10 -24 -3 -13 -1 -27 5 -30 17 -11 13 -36 -6 -37 -12 0
-13 -2 -5 -6 10 -4 10 -8 1 -19 -8 -10 -8 -14 0 -14 6 0 11 -5 11 -11 0 -7
-10 -9 -27 -4 -26 6 -27 5 -9 -8 17 -13 17 -14 2 -20 -10 -4 -29 -1 -44 7 -24
13 -27 12 -37 -7 -6 -12 -24 -26 -40 -31 -40 -13 -42 -16 -25 -26 32 -21 -29
-10 -64 11 -41 24 -46 17 -13 -20 13 -14 0 -8 -30 15 -45 36 -63 42 -150 58
-183 31 -246 46 -287 65 -49 23 -174 23 -167 -1 2 -7 6 -36 9 -64 4 -47 2 -53
-19 -59 -17 -6 -28 -2 -44 17 l-22 25 -10 -28 c-12 -30 -36 -38 -50 -16 -4 6
-10 39 -13 71 -5 57 -6 59 -35 62 -16 2 -34 4 -40 5 -5 1 -49 -2 -97 -6 -113
-10 -138 -4 -138 35 0 27 -29 58 -42 44 -3 -2 -36 0 -74 5 -38 5 -111 11 -163
12 -109 4 -129 -10 -53 -35 41 -14 49 -20 45 -36 -3 -11 -6 -20 -7 -20 -1 0
-42 14 -91 30 -49 17 -122 39 -163 51 -73 20 -75 20 -109 2 l-34 -18 -27 33
c-21 25 -35 32 -62 32 -75 0 -129 30 -130 73 0 23 46 23 276 -3 98 -10 244
-24 324 -30 80 -6 160 -12 177 -14 27 -3 39 3 71 38 21 22 44 57 52 76 7 19
24 52 38 73 21 35 22 41 9 55 -8 10 -23 45 -32 79 -18 65 -27 78 -59 84 -10 2
-28 16 -39 31 l-21 28 29 30 c16 16 39 30 52 30 25 0 59 -42 48 -60 -7 -11 34
-100 46 -100 4 0 10 8 13 18 4 9 14 30 23 46 18 33 9 59 -23 64 -29 6 -64 43
-64 69 0 16 -6 23 -20 23 -10 0 -23 6 -27 14 -4 8 -29 25 -55 39 -131 69 -161
144 -46 112 l27 -7 -20 38 c-26 51 -25 82 4 94 35 14 52 7 55 -23z"/>
<path d="M2385 2050 c-10 -22 -35 -68 -56 -102 -48 -78 -51 -108 -11 -108 22
0 39 12 72 50 24 28 51 64 61 79 17 29 17 30 -11 75 -16 25 -31 46 -33 46 -2
0 -12 -18 -22 -40z"/>
<path d="M2766 1971 c-10 -15 26 -30 120 -50 102 -22 98 -13 -11 24 -44 14
-85 29 -92 31 -6 3 -14 1 -17 -5z"/>
</g>
</svg>
