<?xml version="1.0" standalone="no"?>
<!DOCTYPE svg PUBLIC "-//W3C//DTD SVG 20010904//EN"
 "http://www.w3.org/TR/2001/REC-SVG-20010904/DTD/svg10.dtd">
<svg version="1.0" xmlns="http://www.w3.org/2000/svg"
 width="480.000000pt" height="360.000000pt" viewBox="0 0 480.000000 360.000000"
 preserveAspectRatio="xMidYMid meet">
<metadata>
Created by potrace 1.16, written by Peter Selinger 2001-2019
</metadata>
<rect width="1" height="360" fill="#000000"/>
<rect x="479" width="1" height="360" fill="#000000"/>
<rect width="480" height="1" fill="#000000"/>
<rect y="359" width="480" height="1" fill="#000000"/>
<g transform="translate(0.000000,360.000000) scale(0.100000,-0.100000)"
fill="#000000" stroke="none">
<path d="M336 3578 c-16 -79 -14 -196 4 -291 11 -56 25 -147 30 -202 6 -55 15
-138 21 -186 10 -77 9 -94 -11 -175 -12 -49 -29 -96 -36 -105 -8 -9 -17 -27
-19 -39 -3 -13 -9 -28 -15 -34 -19 -19 -11 -62 18 -89 35 -34 42 -34 67 3 11
16 23 30 26 30 8 0 28 -120 25 -149 -2 -20 -12 -28 -47 -38 -24 -8 -57 -20
-74 -27 -16 -8 -38 -17 -47 -20 -26 -8 -61 -69 -45 -77 6 -4 51 -10 99 -14 85
-7 87 -7 90 -33 3 -25 6 -27 48 -25 42 2 47 -1 78 -42 55 -72 82 -95 114 -95
57 0 65 11 72 110 6 75 11 92 29 105 19 14 20 16 4 33 -23 26 -22 29 21 51 21
11 62 39 92 62 l53 42 -27 24 c-16 13 -35 22 -44 19 -10 -2 -34 -7 -54 -11
-32 -5 -38 -3 -38 12 0 35 22 98 46 128 26 34 31 51 12 39 -13 -8 -3 11 21 40
15 18 15 19 -1 13 -23 -8 -23 -12 13 78 32 81 34 112 7 107 -14 -2 -15 2 -8
28 8 26 6 30 -11 30 -11 0 -17 5 -14 10 8 13 -1 13 -25 0 -12 -6 -21 -7 -25 0
-3 5 -13 6 -22 3 -10 -4 -14 -2 -10 4 4 6 -2 13 -13 16 -15 4 -20 0 -20 -13 0
-15 -18 -30 -37 -30 -3 0 -3 17 -1 38 9 63 86 178 203 302 128 134 150 167
159 234 7 59 -4 76 -49 76 -18 0 -46 7 -61 15 -16 8 -44 15 -63 15 -21 0 -47
10 -67 25 -33 25 -34 25 -248 25 -216 0 -216 0 -220 -22z"/>
<path d="M2400 1800 l0 -1800 834 0 833 0 16 42 c38 98 48 150 57 283 5 77 14
156 20 175 15 52 12 85 -8 103 -17 16 -22 14 -77 -28 -96 -75 -114 -57 -119
118 -2 53 -6 100 -9 104 -4 3 -21 -1 -39 -10 -18 -8 -53 -15 -77 -15 -39 -1
-44 2 -54 29 -6 16 -17 29 -24 29 -18 0 -16 9 10 44 13 17 32 52 41 78 22 56
33 68 131 138 52 37 81 66 91 89 19 46 18 61 -7 61 -19 0 -19 2 7 35 23 31 25
38 15 66 -24 69 -17 85 54 118 36 17 82 35 103 40 22 4 56 20 78 35 52 35 68
33 89 -11 15 -31 16 -42 6 -70 -11 -29 -10 -37 8 -62 26 -36 27 -83 2 -105
-11 -10 -22 -30 -26 -44 -3 -15 -16 -37 -27 -49 l-21 -23 76 -74 77 -74 1 -58
c1 -79 8 -94 38 -83 15 6 21 14 17 25 -3 9 -6 18 -6 20 0 2 -7 4 -15 4 -27 0
-17 39 12 46 33 9 56 -5 67 -42 4 -16 15 -44 22 -62 18 -42 18 -125 0 -160
-15 -29 -118 -131 -151 -149 -29 -17 -21 -71 36 -245 38 -115 52 -173 56 -235
l6 -83 128 0 129 0 0 1800 0 1800 -1200 0 -1200 0 0 -1800z"/>
</g>
</svg>
