<?xml version="1.0" standalone="no"?>
<!DOCTYPE svg PUBLIC "-//W3C//DTD SVG 20010904//EN"
 "http://www.w3.org/TR/2001/REC-SVG-20010904/DTD/svg10.dtd">
<svg version="1.0" xmlns="http://www.w3.org/2000/svg"
 width="480.000000pt" height="360.000000pt" viewBox="0 0 480.000000 360.000000"
 preserveAspectRatio="xMidYMid meet">
<metadata>
Created by potrace 1.16, written by Peter Selinger 2001-2019
</metadata>
<rect width="1" height="360" fill="#000000"/>
<rect x="479" width="1" height="360" fill="#000000"/>
<rect width="480" height="1" fill="#000000"/>
<rect y="359" width="480" height="1" fill="#000000"/>
<g transform="translate(0.000000,360.000000) scale(0.100000,-0.100000)"
fill="#000000" stroke="none">
<path d="M2580 3593 c32 -3 56 -14 86 -39 45 -36 63 -41 82 -22 6 6 50 14 97
16 133 7 220 -29 272 -112 14 -22 48 -64 74 -93 27 -28 49 -58 49 -67 0 -8 24
-35 54 -60 29 -26 66 -64 80 -85 25 -36 32 -40 87 -46 52 -6 64 -4 103 19 24
14 65 48 92 76 26 27 54 50 60 50 7 0 30 -20 51 -45 43 -52 56 -57 47 -17 -7
24 -6 26 9 14 14 -12 18 -9 32 24 19 46 15 60 -26 82 -44 23 -87 61 -71 62 19
0 52 -19 81 -47 14 -13 34 -29 45 -35 18 -10 18 -9 2 13 -15 22 -84 73 -109
82 -7 2 -4 14 10 33 29 41 73 148 73 179 l0 25 -662 -2 c-365 -1 -643 -3 -618
-5z m1235 -334 c12 -18 -3 -22 -20 -5 -14 14 -14 16 -1 16 8 0 18 -5 21 -11z
m-30 -40 c20 -22 20 -22 0 -11 -11 5 -29 20 -40 33 -20 22 -20 22 0 11 11 -5
29 -20 40 -33z m60 1 c3 -5 1 -10 -4 -10 -6 0 -11 5 -11 10 0 6 2 10 4 10 3 0
8 -4 11 -10z"/>
</g>
</svg>
