<?xml version="1.0" standalone="no"?>
<!DOCTYPE svg PUBLIC "-//W3C//DTD SVG 20010904//EN"
 "http://www.w3.org/TR/2001/REC-SVG-20010904/DTD/svg10.dtd">
<svg version="1.0" xmlns="http://www.w3.org/2000/svg"
 width="480.000000pt" height="360.000000pt" viewBox="0 0 480.000000 360.000000"
 preserveAspectRatio="xMidYMid meet">
<metadata>
Created by potrace 1.16, written by Peter Selinger 2001-2019
</metadata>
<rect width="1" height="360" fill="#000000"/>
<rect x="479" width="1" height="360" fill="#000000"/>
<rect width="480" height="1" fill="#000000"/>
<rect y="359" width="480" height="1" fill="#000000"/>
<g transform="translate(0.000000,360.000000) scale(0.100000,-0.100000)"
fill="#000000" stroke="none">
<path d="M0 1800 l0 -1800 2400 0 2400 0 0 1800 0 1800 -2400 0 -2400 0 0
-1800z m2187 558 c0 -18 4 -60 8 -93 9 -70 -13 -169 -46 -217 -12 -16 -19 -32
-15 -35 3 -3 52 11 108 32 196 71 388 135 525 174 160 46 383 101 410 101 19
0 269 -138 353 -195 67 -46 65 -64 -18 -166 -76 -91 -142 -152 -240 -218 -68
-47 -430 -238 -527 -278 -252 -105 -338 -133 -405 -133 -73 0 -338 -75 -439
-124 -106 -52 -165 -64 -224 -46 -32 9 -45 9 -64 -1 -20 -11 -31 -9 -86 16
-34 16 -92 48 -128 71 -80 51 -327 287 -336 321 -7 28 9 43 38 36 11 -3 27 5
41 20 17 19 79 44 238 97 118 40 220 77 226 82 7 5 17 29 23 55 7 26 23 65 36
87 22 38 22 44 10 74 -13 29 -16 31 -39 21 -19 -9 -37 -7 -86 9 l-62 20 -99
-40 c-57 -23 -106 -37 -116 -34 -27 11 -6 22 112 61 61 20 115 40 120 45 6 4
26 11 45 15 19 4 61 19 93 33 45 19 56 29 51 41 -15 38 -14 50 11 87 15 21 32
42 39 46 6 4 42 -11 79 -32 l68 -39 77 38 c42 21 102 52 132 70 72 40 86 40
87 -1z"/>
<path d="M1961 2264 c-52 -25 -71 -38 -67 -49 3 -8 0 -17 -5 -21 -6 -3 -9 -17
-6 -30 3 -17 -1 -25 -14 -29 -11 -4 -19 -11 -19 -16 0 -15 19 -48 41 -70 26
-26 24 -54 -7 -95 -37 -48 -14 -53 72 -16 65 27 69 31 102 94 29 55 34 77 34
129 0 68 -23 140 -44 138 -7 0 -46 -16 -87 -35z"/>
<path d="M1603 2110 c-56 -21 -60 -27 -23 -35 25 -6 37 -3 52 13 31 30 18 40
-29 22z"/>
<path d="M1820 1990 c0 -48 13 -52 30 -9 11 26 11 32 -1 40 -24 15 -29 10 -29
-31z"/>
</g>
</svg>
