<?xml version="1.0" standalone="no"?>
<!DOCTYPE svg PUBLIC "-//W3C//DTD SVG 20010904//EN"
 "http://www.w3.org/TR/2001/REC-SVG-20010904/DTD/svg10.dtd">
<svg version="1.0" xmlns="http://www.w3.org/2000/svg"
 width="480.000000pt" height="360.000000pt" viewBox="0 0 480.000000 360.000000"
 preserveAspectRatio="xMidYMid meet">
<metadata>
Created by potrace 1.16, written by Peter Selinger 2001-2019
</metadata>
<rect width="1" height="360" fill="#000000"/>
<rect x="479" width="1" height="360" fill="#000000"/>
<rect width="480" height="1" fill="#000000"/>
<rect y="359" width="480" height="1" fill="#000000"/>
<g transform="translate(0.000000,360.000000) scale(0.100000,-0.100000)"
fill="#000000" stroke="none">
<path d="M0 1800 l0 -1800 998 0 998 0 18 33 c11 17 31 43 45 56 38 34 158 88
216 96 28 4 57 14 66 22 15 12 17 11 22 -8 4 -14 11 -20 21 -16 14 6 16 -7 16
-88 l0 -95 188 0 187 1 -60 55 c-68 63 -108 84 -160 84 -48 0 -70 13 -85 49
-14 35 -34 31 -27 -5 5 -30 -7 -31 -27 -2 -14 20 -16 200 -16 1720 l0 1698
-1200 0 -1200 0 0 -1800z"/>
</g>
</svg>
