<?xml version="1.0" standalone="no"?>
<!DOCTYPE svg PUBLIC "-//W3C//DTD SVG 20010904//EN"
 "http://www.w3.org/TR/2001/REC-SVG-20010904/DTD/svg10.dtd">
<svg version="1.0" xmlns="http://www.w3.org/2000/svg"
 width="480.000000pt" height="360.000000pt" viewBox="0 0 480.000000 360.000000"
 preserveAspectRatio="xMidYMid meet">
<metadata>
Created by potrace 1.16, written by Peter Selinger 2001-2019
</metadata>
<rect width="1" height="360" fill="#000000"/>
<rect x="479" width="1" height="360" fill="#000000"/>
<rect width="480" height="1" fill="#000000"/>
<rect y="359" width="480" height="1" fill="#000000"/>
<g transform="translate(0.000000,360.000000) scale(0.100000,-0.100000)"
fill="#000000" stroke="none">
<path d="M2840 3146 c-25 -7 -92 -39 -149 -72 -82 -46 -107 -66 -117 -91 -18
-42 -18 -115 0 -158 8 -19 13 -35 10 -35 -10 0 48 -94 63 -103 26 -16 12 -41
-70 -126 -138 -144 -193 -264 -227 -496 -12 -82 -30 -172 -41 -200 -22 -58
-24 -74 -7 -57 17 17 45 15 52 -4 3 -9 6 -35 6 -59 0 -36 5 -47 26 -62 38 -26
84 -75 94 -99 10 -25 78 -43 90 -24 4 7 28 -5 66 -34 129 -98 130 -100 89
-160 -32 -47 -32 -56 5 -86 l30 -25 -17 -43 c-12 -33 -23 -45 -44 -49 -22 -4
-28 -12 -32 -42 -2 -20 -16 -61 -30 -91 -13 -30 -45 -104 -71 -165 -46 -110
-60 -139 -87 -184 -10 -16 -11 -25 -3 -28 6 -2 19 -9 29 -16 16 -12 15 -21
-18 -143 -55 -203 -87 -348 -78 -357 12 -12 105 130 231 350 39 69 43 73 77
73 34 0 35 1 29 30 -3 17 -1 42 5 58 10 25 12 26 19 7 4 -11 5 -58 2 -105 -3
-56 -1 -82 5 -75 9 9 41 96 120 333 18 53 29 73 41 71 35 -3 40 2 44 52 6 62
20 79 46 56 29 -27 67 -20 163 28 49 24 95 42 103 39 23 -9 84 -153 110 -259
13 -55 31 -120 40 -144 23 -63 20 -78 -20 -113 -42 -37 -61 -73 -102 -193 -26
-76 -29 -97 -22 -135 7 -36 4 -52 -11 -83 -11 -20 -23 -58 -28 -82 l-8 -45
773 0 774 0 0 224 0 224 -88 93 c-63 67 -101 118 -132 177 -23 45 -67 112 -96
148 -65 79 -64 55 -32 478 19 268 21 319 10 505 -15 281 -57 471 -138 616 -28
52 -33 69 -32 125 2 79 -25 156 -84 243 -79 117 -198 218 -306 260 -77 31
-260 16 -308 -24 -14 -11 -35 -10 -172 7 -31 4 -77 1 -112 -6 l-59 -12 -96 48
c-90 45 -102 48 -183 51 -50 1 -106 -3 -132 -11z"/>
</g>
</svg>
