<?xml version="1.0" standalone="no"?>
<!DOCTYPE svg PUBLIC "-//W3C//DTD SVG 20010904//EN"
 "http://www.w3.org/TR/2001/REC-SVG-20010904/DTD/svg10.dtd">
<svg version="1.0" xmlns="http://www.w3.org/2000/svg"
 width="480.000000pt" height="360.000000pt" viewBox="0 0 480.000000 360.000000"
 preserveAspectRatio="xMidYMid meet">
<metadata>
Created by potrace 1.16, written by Peter Selinger 2001-2019
</metadata>
<rect width="1" height="360" fill="#000000"/>
<rect x="479" width="1" height="360" fill="#000000"/>
<rect width="480" height="1" fill="#000000"/>
<rect y="359" width="480" height="1" fill="#000000"/>
<g transform="translate(0.000000,360.000000) scale(0.100000,-0.100000)"
fill="#000000" stroke="none">
<path d="M0 2180 l0 -1420 124 0 c87 0 126 4 133 13 6 6 13 78 17 160 6 126 5
148 -8 153 -13 5 -9 19 21 77 40 80 46 87 85 87 40 0 96 30 102 54 10 36 7
111 -5 123 -18 18 -5 37 37 52 66 23 79 47 52 91 -9 15 -10 23 -2 28 6 4 13
15 17 25 3 9 11 17 17 17 6 0 14 -8 17 -17 4 -10 11 -21 17 -25 7 -4 5 -13 -6
-25 -8 -10 -14 -22 -13 -28 2 -5 6 -23 9 -38 5 -21 18 -33 51 -47 44 -19 55
-33 35 -45 -6 -3 -10 -37 -10 -74 l0 -68 38 -16 c20 -9 52 -20 71 -25 30 -7
36 -15 61 -77 20 -50 25 -74 18 -83 -6 -7 -13 -78 -16 -158 l-5 -145 74 3 74
3 5 110 5 110 54 88 c30 48 58 90 62 92 4 3 31 -36 61 -87 50 -88 53 -98 58
-178 l5 -85 80 -7 c44 -5 194 -14 333 -22 l254 -15 73 -70 c40 -39 79 -71 86
-71 9 0 11 43 5 206 l-7 207 52 78 c28 44 55 79 59 79 5 0 31 -36 58 -80 l50
-81 -6 -524 -5 -525 1257 0 1256 0 0 1800 0 1800 -2400 0 -2400 0 0 -1420z
m3074 550 c13 -12 22 -40 27 -78 3 -32 13 -72 20 -88 14 -29 34 -36 187 -70
38 -8 38 -33 2 -64 -19 -16 -36 -27 -39 -26 -3 2 -17 0 -30 -5 -23 -9 -23 -10
-6 -29 10 -11 15 -23 12 -26 -3 -4 5 -22 20 -40 26 -34 19 -43 -18 -23 -17 8
-23 7 -35 -8 -7 -10 -11 -24 -8 -32 4 -11 2 -12 -11 -1 -26 22 -45 -5 -45 -64
0 -29 -5 -57 -12 -64 -19 -19 -5 -14 64 22 58 30 143 55 153 44 9 -9 -18 -96
-41 -130 l-24 -38 127 -2 c71 0 134 -1 141 -1 20 1 14 -15 -10 -28 -22 -12
-21 -14 32 -37 30 -14 49 -27 43 -29 -26 -9 -12 -21 37 -33 56 -13 66 -30 19
-30 -26 0 -29 -3 -20 -14 7 -8 22 -17 34 -20 12 -3 28 -15 35 -27 13 -21 13
-21 -40 -14 -58 8 -58 10 -3 -54 17 -21 18 -23 2 -18 -15 6 -16 3 -7 -13 15
-28 13 -32 -12 -24 -23 7 -23 6 -5 -14 11 -11 16 -25 13 -30 -3 -5 13 -15 35
-22 46 -15 67 -37 26 -26 -21 5 -25 3 -21 -9 5 -13 -2 -12 -41 5 -58 25 -57
25 -44 -3 6 -14 26 -28 47 -35 37 -11 37 -11 -15 -8 -45 3 -52 0 -57 -18 -3
-11 0 -26 6 -33 14 -17 0 -16 -32 2 -42 24 -53 19 -35 -15 23 -45 18 -46 -20
-7 -20 21 -45 37 -57 37 -17 0 -20 -5 -16 -35 2 -19 1 -35 -3 -35 -4 0 -12
-12 -17 -27 l-10 -28 -1 28 c-1 16 -5 26 -11 22 -5 -3 -10 3 -10 15 0 15 -13
27 -47 42 -27 12 -51 24 -55 26 -5 2 -8 -12 -8 -31 0 -39 -32 -87 -59 -87 -39
0 -58 27 -70 104 -11 67 -16 77 -46 100 -54 41 -61 36 -91 -61 -31 -104 -42
-120 -73 -103 -26 13 -41 49 -41 95 0 27 -5 34 -25 39 -14 4 -26 14 -26 24 -1
16 -2 16 -6 -1 -2 -9 -9 -14 -15 -10 -8 4 -9 0 -3 -13 4 -10 10 -35 12 -54 4
-31 1 -28 -25 27 -32 64 -61 90 -80 71 -17 -17 -34 1 -27 29 4 19 1 29 -15 40
-19 14 -29 71 -12 74 4 1 17 3 30 4 13 1 37 17 53 34 16 18 49 41 74 52 38 17
45 25 51 57 4 20 11 45 16 55 13 26 -7 87 -38 112 -19 15 -28 32 -29 56 -1 19
-6 51 -10 72 -6 31 -3 43 19 77 29 45 31 51 14 48 -8 -2 -12 7 -10 24 2 15 -4
43 -13 63 -19 38 -28 40 -105 26 -40 -8 -47 -7 -66 14 l-22 24 66 34 c61 32
64 35 44 46 -31 17 -27 33 4 19 43 -20 89 13 124 88 40 83 81 118 129 109 20
-3 45 -15 55 -25z"/>
<path d="M2830 1750 c-8 -5 -11 -12 -7 -16 4 -4 13 -2 19 4 15 15 7 24 -12 12z"/>
<path d="M3550 1520 c41 -23 60 -26 40 -6 -8 7 -28 16 -45 20 l-30 6 35 -20z"/>
</g>
</svg>
