<?xml version="1.0" standalone="no"?>
<!DOCTYPE svg PUBLIC "-//W3C//DTD SVG 20010904//EN"
 "http://www.w3.org/TR/2001/REC-SVG-20010904/DTD/svg10.dtd">
<svg version="1.0" xmlns="http://www.w3.org/2000/svg"
 width="480.000000pt" height="360.000000pt" viewBox="0 0 480.000000 360.000000"
 preserveAspectRatio="xMidYMid meet">
<metadata>
Created by potrace 1.16, written by Peter Selinger 2001-2019
</metadata>
<rect width="1" height="360" fill="#000000"/>
<rect x="479" width="1" height="360" fill="#000000"/>
<rect width="480" height="1" fill="#000000"/>
<rect y="359" width="480" height="1" fill="#000000"/>
<g transform="translate(0.000000,360.000000) scale(0.100000,-0.100000)"
fill="#000000" stroke="none">
<path d="M0 2431 c0 -1111 1 -1170 18 -1175 19 -6 75 -86 66 -95 -2 -3 -22 15
-44 39 l-39 45 -1 -271 c0 -257 1 -272 20 -289 21 -19 17 -40 -6 -31 -12 5
-14 -46 -14 -324 l0 -330 572 0 571 0 -39 35 c-56 50 -81 62 -149 69 -106 12
-138 24 -163 61 -12 20 -44 46 -71 60 -27 13 -52 29 -56 35 -9 15 19 61 64
105 30 28 41 47 41 69 0 51 76 114 200 165 194 80 362 185 471 295 39 39 116
132 172 206 55 74 115 152 134 173 18 20 33 42 33 48 0 6 -23 52 -51 101 l-52
89 6 77 c3 43 16 131 28 197 21 117 32 345 17 360 -4 4 -21 2 -39 -4 -39 -13
-58 -4 -30 16 32 22 25 31 -24 27 -49 -4 -55 1 -27 22 16 13 16 13 -3 14 -11
0 -40 -20 -64 -45 -33 -34 -58 -49 -100 -61 -67 -19 -79 -32 -87 -95 -12 -88
-64 -142 -152 -155 -23 -3 -50 -13 -57 -21 -17 -17 -20 -59 -5 -68 16 -10 11
-45 -7 -52 -10 -4 -29 -15 -43 -24 -14 -10 -47 -19 -75 -20 -75 -4 -77 -5 -69
-54 5 -37 3 -45 -15 -55 -21 -11 -63 -3 -111 20 -13 6 -61 82 -73 115 -2 6
-11 4 -21 -4 -15 -13 -19 -13 -27 0 -12 19 -12 20 9 52 17 25 18 34 6 95 -36
187 -23 381 36 567 51 158 135 328 212 427 l29 37 -101 97 c-55 53 -98 99 -96
101 5 6 113 -66 172 -114 23 -18 44 -33 48 -33 4 0 50 39 102 87 304 281 587
394 950 381 130 -5 154 -11 204 -51 24 -19 24 -19 3 -13 -29 9 -29 -3 -3 -54
34 -66 23 -90 -42 -99 l-43 -6 3 -68 c5 -94 -18 -129 -96 -154 -51 -16 -57
-21 -60 -48 -2 -25 3 -33 30 -48 65 -36 107 -83 144 -161 l36 -77 -16 -43
c-18 -46 -68 -102 -84 -92 -14 9 -23 -20 -29 -97 -5 -55 -8 -65 -19 -56 -11 9
-14 8 -14 -4 0 -9 -14 -31 -31 -49 l-30 -33 10 28 c21 55 12 62 -24 21 -27
-30 -35 -35 -35 -20 0 12 -5 16 -16 12 -9 -3 -18 -6 -20 -6 -2 0 -4 -6 -4 -14
0 -14 28 -29 46 -25 22 4 32 -3 44 -28 6 -16 50 -62 97 -103 129 -115 152
-140 163 -181 8 -29 27 -51 86 -98 45 -36 86 -61 100 -61 13 0 41 -15 61 -34
21 -18 53 -41 71 -50 19 -10 32 -24 32 -36 0 -11 11 -27 24 -35 49 -32 114 24
102 89 -6 33 -31 60 -85 96 -15 10 -20 21 -16 33 17 42 111 3 148 -60 40 -70
13 -179 -53 -215 -43 -22 -79 -23 -124 -2 -34 17 -34 17 -76 -17 -23 -19 -55
-46 -71 -62 -16 -15 -36 -27 -44 -27 -8 0 -15 -4 -15 -8 0 -15 -49 -32 -89
-32 -64 0 -65 -6 -41 -212 35 -297 58 -614 77 -1060 l6 -138 33 0 c18 0 34 5
36 11 2 6 28 14 57 17 43 4 55 2 63 -12 8 -15 101 -16 1123 -16 l1115 0 0
1800 0 1800 -1015 0 c-898 0 -1014 -2 -1009 -15 8 -19 -13 -19 -50 0 -25 13
-200 15 -1377 15 l-1349 0 0 -1169z m685 959 c-3 -5 -13 -10 -21 -10 -8 0 -12
5 -9 10 3 6 13 10 21 10 8 0 12 -4 9 -10z m314 -113 c-1 -18 -5 -45 -8 -62
l-8 -30 -13 27 c-11 23 -11 36 -1 68 14 46 32 44 30 -3z m2818 -99 c-3 -18
-11 -46 -18 -63 -18 -44 -25 -6 -9 51 15 51 35 60 27 12z m378 -499 c13 -57
-32 -121 -55 -79 -13 25 -13 56 3 83 25 45 42 44 52 -4z m170 6 c0 -12 -59
-19 -92 -10 -13 3 -21 10 -18 16 9 13 110 7 110 -6z m-469 -164 c13 -26 7 -71
-11 -71 -17 0 -25 23 -25 67 0 39 18 41 36 4z m-616 -242 c10 -23 10 -33 1
-42 -16 -15 -41 16 -41 50 0 33 25 28 40 -8z m511 9 c48 -14 50 -25 4 -34 -37
-7 -86 8 -106 32 -9 12 -5 14 26 14 21 0 55 -5 76 -12z m-1151 -8 c0 -5 -15
-9 -32 -9 l-33 1 30 8 c17 4 31 8 33 9 1 0 2 -3 2 -9z m-331 -231 c14 -14 21
-30 19 -47 -4 -34 -20 -38 -53 -10 -21 19 -25 29 -20 51 9 32 23 34 54 6z
m235 -25 c3 -9 6 -34 6 -57 -1 -39 -2 -41 -15 -23 -8 11 -15 37 -15 58 0 39
13 51 24 22z m590 -40 c10 -25 7 -84 -4 -84 -5 0 -12 11 -15 25 -3 14 -7 36
-10 50 -6 28 19 36 29 9z m1320 -146 c19 -26 21 -68 4 -68 -22 0 -48 33 -48
62 0 34 22 37 44 6z m-3097 -183 c-38 -29 -87 -47 -87 -31 0 18 40 52 75 63
40 13 46 -4 12 -32z m-797 15 c20 -20 27 -60 11 -60 -5 0 -19 12 -30 26 -37
47 -21 74 19 34z m3246 -92 c9 -15 -27 -41 -39 -29 -13 13 -1 41 17 41 8 0 18
-5 22 -12z m-373 -139 c44 -12 49 -29 8 -29 -40 0 -84 18 -76 30 8 13 21 13
68 -1z m-358 -65 c9 -14 14 -29 10 -32 -6 -7 -44 36 -45 51 0 16 19 6 35 -19z
m-1880 -606 c31 -14 31 -21 0 -42 -31 -20 -64 -20 -93 0 -34 24 -11 45 55 53
7 0 24 -4 38 -11z m3156 -48 c28 -16 23 -30 -12 -30 -34 0 -69 15 -69 30 0 13
56 13 81 0z m419 -56 c0 -9 -17 -34 -39 -55 -36 -36 -43 -39 -94 -39 -31 0
-59 5 -63 11 -10 17 65 77 111 87 63 15 85 14 85 -4z m-2324 -51 c32 -27 45
-65 26 -77 -5 -3 -23 6 -40 21 -22 18 -32 35 -32 54 0 36 3 36 46 2z m-1898
-17 c7 -17 8 -35 1 -60 -11 -41 -19 -44 -37 -16 -10 16 -10 28 0 60 15 46 21
49 36 16z m2746 -125 c11 -12 16 -21 12 -21 -13 0 -66 41 -66 51 0 13 30 -4
54 -30z"/>
<path d="M2284 1783 c-3 -16 -14 -54 -24 -85 -10 -32 -16 -60 -12 -62 12 -7
127 17 134 28 10 14 10 86 1 86 -5 0 -23 14 -42 30 -42 37 -49 37 -57 3z"/>
</g>
</svg>
