<?xml version="1.0" standalone="no"?>
<!DOCTYPE svg PUBLIC "-//W3C//DTD SVG 20010904//EN"
 "http://www.w3.org/TR/2001/REC-SVG-20010904/DTD/svg10.dtd">
<svg version="1.0" xmlns="http://www.w3.org/2000/svg"
 width="480.000000pt" height="360.000000pt" viewBox="0 0 480.000000 360.000000"
 preserveAspectRatio="xMidYMid meet">
<metadata>
Created by potrace 1.16, written by Peter Selinger 2001-2019
</metadata>
<rect width="1" height="360" fill="#000000"/>
<rect x="479" width="1" height="360" fill="#000000"/>
<rect width="480" height="1" fill="#000000"/>
<rect y="359" width="480" height="1" fill="#000000"/>
<g transform="translate(0.000000,360.000000) scale(0.100000,-0.100000)"
fill="#000000" stroke="none">
<path d="M2833 3512 c-54 -57 -76 -88 -67 -90 8 -2 26 4 39 12 34 22 31 13
-10 -41 -37 -48 -40 -69 -5 -38 21 19 27 7 11 -23 -5 -9 -12 -46 -15 -82 -6
-63 -6 -64 9 -37 20 35 29 34 22 -3 -4 -17 -2 -30 3 -30 6 0 10 -12 10 -27 0
-22 2 -25 10 -13 7 11 10 12 10 2 0 -8 7 -29 16 -48 21 -43 9 -60 -52 -75 -23
-6 -45 -17 -48 -24 -2 -7 4 -31 15 -52 15 -28 18 -49 13 -81 -4 -27 -2 -47 6
-57 6 -8 9 -18 6 -23 -11 -18 16 -176 32 -189 8 -7 41 -15 74 -19 l58 -7 -20
-34 c-25 -43 -25 -46 0 -33 14 8 20 8 20 0 0 -6 13 -2 29 9 l28 20 6 -49 c7
-55 -1 -120 -14 -120 -18 0 -49 -41 -49 -63 0 -25 -83 -111 -165 -169 -27 -20
-70 -60 -95 -89 -126 -146 -149 -175 -154 -192 -4 -18 -4 -18 16 0 20 18 20
18 13 -14 -7 -36 9 -47 18 -13 3 11 13 20 22 20 10 0 15 -5 12 -12 -3 -7 -32
-71 -65 -143 -97 -212 -99 -259 -27 -540 24 -93 34 -158 37 -229 l3 -99 -105
-23 c-202 -46 -322 -59 -440 -46 -58 6 -128 18 -156 27 -50 14 -52 17 -71 72
-11 32 -23 65 -27 74 -4 10 -1 23 9 33 18 17 13 47 -10 66 -27 22 -19 84 15
120 35 37 35 38 13 62 -15 17 -15 18 8 18 33 0 69 27 69 50 0 10 5 22 10 25
17 10 11 39 -19 101 -16 32 -31 76 -34 97 -3 22 -11 45 -18 53 -15 18 -53 18
-68 0 -8 -9 -38 -14 -91 -15 -90 -2 -99 -4 -153 -39 -61 -40 -100 -136 -131
-323 -15 -85 -41 -201 -60 -259 -71 -223 -78 -266 -74 -444 4 -151 6 -166 36
-244 18 -46 38 -95 47 -110 12 -23 14 -24 15 -7 1 19 2 18 12 -3 7 -13 17 -21
25 -18 15 6 16 -7 4 -52 l-10 -32 338 0 337 0 -23 117 c-13 65 -22 122 -20
127 6 18 93 36 172 36 85 0 374 -26 382 -34 6 -6 -24 -187 -37 -221 l-10 -25
625 0 c344 0 625 2 625 5 0 5 -84 143 -179 295 -97 154 -94 147 -102 216 -3
34 -20 92 -37 130 -52 117 -67 367 -30 509 l13 50 48 -3 c52 -4 53 -3 33 36
-19 36 -39 149 -32 176 3 12 25 37 49 55 56 42 90 100 81 138 -5 23 -4 26 7
15 7 -6 16 -33 19 -59 6 -53 30 -73 30 -25 0 28 26 63 39 52 11 -9 -1 85 -20
169 -11 47 -17 91 -15 98 5 13 -14 114 -34 179 -14 47 -35 112 -45 139 -4 11
12 -9 36 -45 31 -46 45 -60 47 -47 2 10 -1 31 -7 47 -18 52 3 32 39 -38 22
-42 36 -60 38 -49 2 9 10 17 18 17 8 0 14 9 14 19 0 18 2 19 30 5 16 -9 33
-21 37 -27 5 -7 23 -25 40 -41 l32 -29 -5 39 c-3 21 -7 51 -9 65 -4 24 -1 26
26 25 21 -1 35 -10 48 -33 23 -36 48 -56 38 -29 -4 10 -10 30 -14 44 l-6 26
36 -21 c27 -17 37 -18 41 -8 2 7 -1 21 -9 31 -7 10 -11 23 -9 29 3 6 -7 26
-21 45 -52 70 -19 74 48 5 33 -34 54 -38 38 -6 -4 9 -13 39 -20 66 -7 28 -14
59 -18 70 -4 16 -3 18 8 8 7 -7 18 -13 24 -13 7 0 7 3 0 8 -21 15 -114 188
-121 227 -11 55 -10 59 51 240 68 201 73 242 47 415 -27 176 -60 259 -132 336
l-41 44 -502 0 -502 -1 -82 -87z m-1408 -3354 c-12 -54 -25 -39 -25 29 l1 68
15 -34 c8 -20 12 -47 9 -63z"/>
</g>
</svg>
