<?xml version="1.0" standalone="no"?>
<!DOCTYPE svg PUBLIC "-//W3C//DTD SVG 20010904//EN"
 "http://www.w3.org/TR/2001/REC-SVG-20010904/DTD/svg10.dtd">
<svg version="1.0" xmlns="http://www.w3.org/2000/svg"
 width="480.000000pt" height="360.000000pt" viewBox="0 0 480.000000 360.000000"
 preserveAspectRatio="xMidYMid meet">
<metadata>
Created by potrace 1.16, written by Peter Selinger 2001-2019
</metadata>
<rect width="1" height="360" fill="#000000"/>
<rect x="479" width="1" height="360" fill="#000000"/>
<rect width="480" height="1" fill="#000000"/>
<rect y="359" width="480" height="1" fill="#000000"/>
<g transform="translate(0.000000,360.000000) scale(0.100000,-0.100000)"
fill="#000000" stroke="none">
<path d="M4330 3509 l-23 -90 -251 -253 c-185 -187 -263 -259 -297 -274 -25
-11 -126 -48 -224 -81 -105 -36 -189 -70 -203 -83 -28 -26 -102 -132 -102
-146 0 -18 33 -22 54 -8 12 9 35 25 51 37 17 11 -26 -35 -95 -102 -153 -151
-209 -228 -190 -259 6 -10 19 -7 61 14 l52 28 -22 -34 c-36 -54 -65 -117 -58
-124 13 -13 58 20 181 129 66 59 129 113 139 118 37 21 -1 -27 -65 -84 -77
-68 -150 -167 -138 -188 8 -11 26 -6 98 31 l89 45 -16 -38 c-15 -39 -12 -48
23 -60 5 -2 4 -12 -2 -23 -6 -11 -7 -26 -3 -33 14 -21 48 8 136 116 92 112
236 265 243 258 8 -7 -59 -103 -113 -163 -58 -65 -135 -180 -135 -203 0 -58
60 -21 167 103 102 119 209 222 179 173 -10 -16 -35 -52 -56 -80 -71 -95 -110
-160 -110 -182 0 -43 34 -25 110 58 41 45 134 143 205 218 146 152 204 228
264 348 35 70 76 121 88 109 15 -15 -86 -338 -299 -951 -42 -120 -159 -420
-168 -429 -9 -9 -18 -4 -83 47 -42 33 -169 73 -372 118 -160 34 -322 75 -359
89 -14 5 -64 16 -111 24 -47 8 -95 22 -107 30 -11 8 -38 51 -59 96 -42 90 -40
93 43 65 55 -19 97 -8 99 27 2 41 -2 53 -26 74 -17 16 -20 25 -12 33 12 12
-126 9 -196 -4 -36 -7 -42 -4 -80 32 -23 22 -78 69 -122 105 -44 37 -95 82
-114 101 -32 34 -33 37 -23 81 8 39 7 48 -9 62 -26 23 -24 32 6 26 19 -3 27 1
34 19 7 20 4 30 -19 54 -15 17 -41 61 -58 98 -29 63 -81 127 -103 127 -16 0
-43 -52 -49 -93 -7 -57 -26 -65 -91 -38 -30 13 -63 32 -75 42 -52 48 -50 4 2
-75 l33 -50 -39 -23 c-74 -45 -115 -153 -108 -288 4 -68 10 -95 41 -158 20
-43 48 -92 62 -110 14 -19 25 -37 25 -40 0 -4 22 -37 49 -74 27 -38 75 -115
106 -173 31 -58 69 -121 84 -140 15 -19 45 -64 66 -98 39 -65 95 -132 109
-132 4 0 22 -11 39 -24 18 -14 35 -25 40 -25 32 -3 56 -37 165 -226 42 -73
139 -279 164 -350 14 -38 33 -92 43 -118 9 -26 28 -55 40 -63 13 -9 29 -31 35
-50 13 -39 19 -40 62 -18 22 11 43 14 78 9 35 -5 58 -2 83 10 32 15 38 15 66
1 44 -23 67 -20 92 15 19 28 21 36 11 62 -12 32 -4 46 25 47 7 0 16 6 20 13 4
7 20 20 36 30 41 26 36 9 -42 -154 -104 -219 -126 -289 -102 -327 6 -10 18 -2
46 32 21 26 39 45 42 43 2 -2 -8 -30 -22 -62 -14 -32 -25 -67 -23 -79 l3 -21
728 -3 727 -2 0 1800 0 1800 -224 0 -224 0 -22 -91z m-1036 -1100 c-29 -33
-94 -82 -94 -72 0 9 98 93 108 93 3 0 -3 -9 -14 -21z"/>
</g>
</svg>
