<?xml version="1.0" standalone="no"?>
<!DOCTYPE svg PUBLIC "-//W3C//DTD SVG 20010904//EN"
 "http://www.w3.org/TR/2001/REC-SVG-20010904/DTD/svg10.dtd">
<svg version="1.0" xmlns="http://www.w3.org/2000/svg"
 width="480.000000pt" height="360.000000pt" viewBox="0 0 480.000000 360.000000"
 preserveAspectRatio="xMidYMid meet">
<metadata>
Created by potrace 1.16, written by Peter Selinger 2001-2019
</metadata>
<rect width="1" height="360" fill="#000000"/>
<rect x="479" width="1" height="360" fill="#000000"/>
<rect width="480" height="1" fill="#000000"/>
<rect y="359" width="480" height="1" fill="#000000"/>
<g transform="translate(0.000000,360.000000) scale(0.100000,-0.100000)"
fill="#000000" stroke="none">
<path d="M0 1800 l0 -1800 879 0 879 0 7 45 c10 73 119 454 150 525 92 217
107 292 85 410 -13 71 -56 145 -75 130 -9 -8 -15 -8 -20 0 -8 13 -52 13 -60
-1 -4 -5 -14 -9 -23 -7 -12 2 -34 -22 -71 -77 -29 -44 -60 -87 -68 -95 -12
-13 -13 -12 -4 12 6 15 20 46 31 68 11 22 25 52 31 67 9 23 8 25 -12 20 -12
-3 -30 -2 -40 4 -15 8 -17 14 -9 35 6 14 10 31 10 38 0 17 -184 83 -293 106
-87 17 -117 34 -117 65 0 6 -13 16 -29 22 -23 8 -28 16 -25 30 5 17 -1 21 -42
27 -26 3 -65 6 -86 6 -97 0 -274 65 -323 120 -17 19 -17 21 0 40 23 26 27 25
63 -5 37 -31 40 -31 34 0 -4 24 7 33 22 18 9 -10 192 -4 220 6 17 7 12 11 -27
26 -46 17 -50 23 -59 78 -5 32 -23 13 -20 -20 3 -31 1 -33 -27 -33 -40 0 -61
32 -61 93 0 28 -10 71 -24 105 -13 31 -26 75 -27 97 -4 37 -2 41 29 54 l33 15
-5 110 c-3 61 -2 98 2 81 4 -16 13 -39 19 -50 11 -17 14 -18 23 -5 6 8 7 26 3
40 -11 39 -5 112 11 128 26 27 46 7 46 -46 0 -50 26 -142 40 -142 17 0 19 35
13 168 -4 102 -3 144 7 161 16 31 30 11 28 -41 -1 -36 15 -68 33 -68 5 0 8 40
7 88 -1 49 2 95 7 102 15 25 35 -21 35 -81 0 -60 7 -73 34 -63 12 4 16 19 16
53 0 50 19 89 39 77 6 -4 21 -26 32 -48 29 -56 23 -142 -10 -168 -27 -19 -41
-101 -22 -123 6 -8 20 -45 32 -83 12 -38 24 -73 27 -79 4 -5 5 -32 4 -60 -3
-38 3 -62 22 -100 14 -27 26 -59 26 -71 0 -25 -32 -55 -83 -79 -21 -10 -42
-26 -47 -36 -6 -10 -30 -27 -54 -37 -24 -11 -46 -25 -50 -31 -4 -6 18 -23 58
-43 64 -31 66 -31 86 -13 16 14 25 16 43 8 12 -5 38 -8 59 -5 28 3 49 -3 95
-30 71 -42 170 -88 189 -88 7 0 16 10 18 23 19 98 41 172 72 241 80 178 86
197 74 211 -7 8 -9 19 -5 25 3 5 12 41 19 78 10 56 16 68 34 70 23 4 26 18 37
172 22 307 98 569 201 688 l37 43 -39 -7 c-134 -26 -172 23 -125 159 24 70 95
207 121 235 l20 22 53 -20 c28 -11 61 -19 72 -18 34 3 111 -42 198 -117 84
-73 104 -81 202 -86 6 0 41 11 80 26 74 28 175 42 220 31 26 -7 27 -9 21 -56
-4 -26 -22 -106 -42 -176 l-35 -129 26 -56 c43 -97 29 -195 -45 -303 -22 -32
-40 -65 -40 -72 0 -7 -5 -16 -11 -20 -8 -5 -9 6 -4 37 7 39 6 42 -9 30 -8 -7
-26 -29 -37 -48 -22 -35 -22 -35 -34 -14 -11 22 -12 21 -28 -16 -23 -51 -29
-250 -8 -245 8 2 27 0 42 -3 26 -6 29 -11 29 -44 0 -31 8 -44 56 -91 70 -69
199 -261 215 -320 10 -39 10 -51 -5 -82 -16 -33 -17 -50 -8 -149 6 -61 14
-115 19 -119 12 -13 152 -30 300 -37 111 -5 135 -9 149 -25 10 -10 27 -18 39
-18 11 0 26 -5 32 -11 7 -7 21 -3 48 15 35 24 63 32 130 38 30 3 31 4 18 51
-8 27 20 20 52 -13 16 -16 32 -30 37 -30 13 0 9 28 -8 61 -18 36 -11 48 16 31
11 -6 25 -9 33 -6 7 2 22 -5 33 -17 30 -33 24 -120 -12 -162 -60 -72 -186
-127 -290 -127 -60 0 -64 -2 -70 -26 -5 -21 -11 -24 -34 -19 -18 4 -31 1 -40
-10 -16 -19 -75 -19 -130 0 -53 19 -191 42 -295 51 -44 3 -97 10 -119 16 -21
5 -40 7 -42 5 -3 -3 13 -42 36 -87 22 -46 38 -85 36 -88 -5 -5 -101 140 -129
194 -24 46 -62 53 -98 18 -36 -34 -36 -50 -3 -85 26 -27 26 -29 17 -115 -11
-100 -5 -121 88 -330 58 -131 171 -442 198 -547 l18 -72 852 -3 851 -2 0 1800
0 1800 -2400 0 -2400 0 0 -1800z"/>
<path d="M2638 2254 c-14 -13 -8 -41 12 -59 20 -18 20 -17 20 9 0 15 -4 25 -9
21 -5 -3 -11 4 -13 16 -2 11 -6 17 -10 13z"/>
<path d="M2778 1324 c-3 -5 -8 -21 -12 -37 -5 -20 -2 -29 9 -34 29 -11 40 13
24 49 -9 17 -18 27 -21 22z"/>
<path d="M1990 1129 c0 -3 5 -20 11 -38 11 -31 29 -43 29 -18 0 12 -39 67 -40
56z"/>
</g>
</svg>
