<?xml version="1.0" standalone="no"?>
<!DOCTYPE svg PUBLIC "-//W3C//DTD SVG 20010904//EN"
 "http://www.w3.org/TR/2001/REC-SVG-20010904/DTD/svg10.dtd">
<svg version="1.0" xmlns="http://www.w3.org/2000/svg"
 width="480.000000pt" height="360.000000pt" viewBox="0 0 480.000000 360.000000"
 preserveAspectRatio="xMidYMid meet">
<metadata>
Created by potrace 1.16, written by Peter Selinger 2001-2019
</metadata>
<rect width="1" height="360" fill="#000000"/>
<rect x="479" width="1" height="360" fill="#000000"/>
<rect width="480" height="1" fill="#000000"/>
<rect y="359" width="480" height="1" fill="#000000"/>
<g transform="translate(0.000000,360.000000) scale(0.100000,-0.100000)"
fill="#000000" stroke="none">
<path d="M0 2981 l0 -620 22 -4 23 -4 -22 -2 -23 -1 0 -1175 0 -1175 1070 0
c589 0 1070 4 1070 8 0 12 -52 84 -71 98 -17 13 -102 46 -179 69 -34 11 -71
32 -97 56 -33 30 -51 39 -77 39 -20 0 -50 10 -70 24 -34 23 -34 24 -18 47 15
22 47 52 76 71 7 4 4 14 -7 26 -9 10 -17 26 -17 35 0 25 71 79 270 207 102 66
215 144 252 175 66 56 150 156 227 270 39 57 53 105 31 105 -5 0 -10 -4 -10
-10 0 -5 -4 -10 -10 -10 -5 0 -9 3 -8 8 3 10 -11 100 -23 143 -5 20 -17 46
-28 57 -10 12 -21 45 -24 73 -4 29 -14 82 -23 119 -15 65 -15 68 4 106 20 38
108 157 187 250 l40 47 0 133 c0 74 -1 129 -3 124 -5 -12 -32 -13 -32 -1 0 14
-33 23 -40 10 -11 -16 -44 8 -57 40 -5 15 -6 37 -2 49 5 12 4 24 -1 27 -6 4
-3 19 7 38 14 26 17 60 18 187 0 178 2 183 88 271 53 54 119 89 169 89 22 0
42 42 53 107 5 32 17 53 47 80 l40 38 -7 71 c-9 97 1 143 32 155 16 6 23 15
19 24 -4 11 2 15 19 15 13 0 27 5 31 11 3 6 17 9 30 6 14 -2 27 0 30 4 3 5 13
9 22 9 11 0 25 19 39 50 l22 50 -1545 0 -1544 0 0 -619z m448 482 c2 -8 -6
-13 -22 -13 -25 0 -33 10 -19 24 10 10 36 3 41 -11z m112 -128 c0 -8 -7 -15
-15 -15 -16 0 -20 12 -8 23 11 12 23 8 23 -8z m80 -240 c0 -8 -7 -15 -15 -15
-8 0 -15 7 -15 15 0 8 7 15 15 15 8 0 15 -7 15 -15z m-323 -418 c-5 -14 -55
-32 -63 -24 -9 9 8 35 29 45 25 11 42 0 34 -21z m26 -274 c-18 -27 -18 -27
-21 -5 -2 13 5 35 15 50 17 26 18 26 21 5 2 -12 -5 -34 -15 -50z m1875 -532
c11 -7 10 -10 -3 -15 -37 -14 -111 -3 -99 15 7 11 85 12 102 0z m-944 -497 c9
-3 16 -14 16 -24 0 -22 -46 -36 -66 -19 -19 16 -18 37 4 42 27 7 29 7 46 1z
m-666 -257 c-3 -34 -22 -47 -31 -22 -4 8 -4 29 0 45 4 25 8 28 20 19 8 -7 13
-25 11 -42z m262 -84 c0 -5 -9 -23 -20 -40 -23 -39 -55 -46 -45 -10 10 33 65
76 65 50z m422 -615 c-6 -7 -24 -21 -41 -31 -39 -23 -33 1 7 26 32 20 49 22
34 5z m-982 -213 c-23 -25 -50 -33 -50 -16 0 11 41 40 59 40 10 1 7 -7 -9 -24z"/>
<path d="M3121 3570 c-6 -16 -16 -44 -23 -61 -9 -24 -8 -33 1 -39 10 -6 10
-12 2 -29 -10 -17 -9 -21 3 -21 23 0 31 -22 12 -35 -14 -11 -15 -14 -1 -25 20
-17 19 -27 -5 -35 -16 -5 -18 -10 -10 -25 15 -28 12 -33 -15 -28 -22 5 -24 3
-18 -20 5 -23 4 -24 -20 -18 -20 5 -27 2 -32 -14 -7 -23 -16 -25 -32 -9 -8 8
-16 4 -29 -16 -16 -25 -16 -28 -1 -55 22 -37 22 -48 -8 -136 l-25 -75 45 -60
c48 -63 51 -72 59 -179 4 -45 3 -60 -4 -50 -15 22 -32 -7 -19 -32 6 -10 7 -23
4 -29 -4 -5 -1 -16 5 -24 7 -8 9 -24 5 -36 -6 -17 -9 -19 -16 -8 -8 12 -11 12
-19 -1 -6 -10 -10 -11 -10 -2 0 6 -5 12 -11 12 -8 0 -10 -14 -6 -40 5 -39 -5
-61 -18 -39 -12 18 -55 -66 -61 -118 -6 -48 -5 -49 68 -135 140 -167 152 -189
145 -267 -2 -31 -19 -91 -37 -134 l-33 -78 12 -80 c8 -55 19 -87 32 -100 16
-16 18 -24 9 -34 -8 -10 -3 -53 19 -172 17 -87 47 -243 66 -348 46 -243 98
-439 180 -688 36 -109 65 -204 65 -212 0 -7 -7 -18 -15 -25 -8 -7 -15 -21 -15
-31 0 -18 22 -19 715 -19 l715 0 0 1800 0 1800 -834 0 -834 0 -11 -30z m1305
-1704 c-9 -21 -20 -35 -26 -31 -14 9 -13 30 6 73 15 34 17 36 26 16 7 -15 5
-31 -6 -58z"/>
<path d="M2515 1716 c-20 -26 -24 -39 -17 -52 8 -14 12 -13 29 12 47 67 36
102 -12 40z"/>
<path d="M2516 1622 c-3 -5 4 -32 14 -60 18 -46 18 -56 7 -90 -10 -30 -11 -55
-4 -105 6 -37 13 -67 16 -67 5 1 36 41 120 156 16 23 24 50 28 97 l5 64 -32 7
c-47 9 -148 7 -154 -2z"/>
</g>
</svg>
