<?xml version="1.0" standalone="no"?>
<!DOCTYPE svg PUBLIC "-//W3C//DTD SVG 20010904//EN"
 "http://www.w3.org/TR/2001/REC-SVG-20010904/DTD/svg10.dtd">
<svg version="1.0" xmlns="http://www.w3.org/2000/svg"
 width="480.000000pt" height="360.000000pt" viewBox="0 0 480.000000 360.000000"
 preserveAspectRatio="xMidYMid meet">
<metadata>
Created by potrace 1.16, written by Peter Selinger 2001-2019
</metadata>
<rect width="1" height="360" fill="#000000"/>
<rect x="479" width="1" height="360" fill="#000000"/>
<rect width="480" height="1" fill="#000000"/>
<rect y="359" width="480" height="1" fill="#000000"/>
<g transform="translate(0.000000,360.000000) scale(0.100000,-0.100000)"
fill="#000000" stroke="none">
<path d="M0 1800 l0 -1800 780 0 780 0 -14 32 c-63 146 -148 334 -225 496
-111 234 -121 274 -92 342 25 57 27 88 6 96 -22 9 -19 19 9 32 23 10 24 14 13
41 -20 53 20 271 50 271 7 0 30 -11 51 -24 46 -31 77 -38 121 -28 31 7 36 13
47 54 17 67 43 108 94 145 25 19 69 53 98 78 29 25 65 48 80 51 15 3 32 7 38
9 17 5 29 531 13 551 -16 19 -27 18 -34 -6 -4 -11 -15 -20 -27 -20 -25 0 -198
99 -205 117 -3 8 2 22 11 32 11 13 16 32 14 62 -3 44 -3 44 32 47 25 2 47 15
78 45 l42 41 -54 56 c-70 72 -90 111 -83 168 7 60 46 99 131 127 l66 22 40 80
c67 135 163 214 298 248 31 8 113 19 181 25 149 14 235 3 329 -42 71 -33 173
-123 223 -198 30 -43 40 -50 84 -60 172 -36 197 -159 63 -305 l-49 -54 25 -49
c14 -28 43 -71 66 -97 33 -38 40 -53 40 -89 0 -23 -6 -51 -14 -62 -14 -18 -16
-18 -43 -2 l-29 17 -28 -47 c-28 -45 -28 -49 -17 -107 14 -72 26 -197 41 -400
20 -285 16 -266 66 -331 81 -108 130 -257 118 -359 -5 -40 -2 -65 15 -109 11
-31 21 -70 21 -87 0 -34 -23 -85 -42 -91 -9 -4 -4 -25 20 -79 19 -41 36 -81
39 -91 5 -18 -40 -54 -56 -44 -6 4 -18 43 -27 87 -17 76 -18 79 -31 56 -11
-21 -9 -33 11 -83 42 -104 42 -106 9 -102 -26 3 -28 0 -26 -27 1 -16 4 -75 6
-130 2 -55 7 -146 12 -203 l8 -102 814 0 813 0 0 1800 0 1800 -2400 0 -2400 0
0 -1800z"/>
<path d="M2965 2813 c4 -10 15 -49 25 -87 l16 -69 32 48 c40 61 40 80 0 105
-43 26 -83 27 -73 3z"/>
<path d="M1745 2754 c-90 -33 -94 -69 -18 -155 l48 -53 6 75 c3 41 9 91 14
112 8 41 7 42 -50 21z"/>
<path d="M1757 963 c-4 -3 -7 -15 -7 -26 0 -11 -5 -37 -12 -59 -12 -41 -9 -40
-72 -21 -17 5 -18 2 -11 -43 6 -49 6 -50 -30 -67 -19 -9 -47 -17 -61 -17 -20
0 -25 -4 -20 -17 4 -9 18 -57 32 -107 14 -50 47 -162 75 -248 l50 -157 36 -10
c21 -6 41 -7 45 -3 4 4 11 82 14 173 6 145 5 171 -11 212 -14 36 -17 67 -13
139 3 79 9 104 37 165 18 39 30 76 27 82 -8 12 -69 15 -79 4z"/>
</g>
</svg>
