<?xml version="1.0" standalone="no"?>
<!DOCTYPE svg PUBLIC "-//W3C//DTD SVG 20010904//EN"
 "http://www.w3.org/TR/2001/REC-SVG-20010904/DTD/svg10.dtd">
<svg version="1.0" xmlns="http://www.w3.org/2000/svg"
 width="480.000000pt" height="360.000000pt" viewBox="0 0 480.000000 360.000000"
 preserveAspectRatio="xMidYMid meet">
<metadata>
Created by potrace 1.16, written by Peter Selinger 2001-2019
</metadata>
<rect width="1" height="360" fill="#000000"/>
<rect x="479" width="1" height="360" fill="#000000"/>
<rect width="480" height="1" fill="#000000"/>
<rect y="359" width="480" height="1" fill="#000000"/>
<g transform="translate(0.000000,360.000000) scale(0.100000,-0.100000)"
fill="#000000" stroke="none">
<path d="M1490 2880 c-52 -18 -57 -19 -87 -3 -31 17 -33 17 -58 -7 -21 -19
-24 -30 -19 -56 4 -21 0 -50 -11 -78 -20 -51 -15 -98 15 -151 10 -18 17 -35
15 -37 -2 -2 7 -5 21 -6 15 -1 23 2 19 8 -3 6 1 10 9 10 22 0 20 -33 -4 -55
-19 -18 -19 -18 20 -65 22 -26 40 -53 40 -58 0 -6 10 -18 22 -26 22 -16 18
-21 -25 -28 -10 -2 -26 -15 -35 -30 -15 -25 -15 -28 2 -47 20 -22 15 -51 -7
-51 -19 0 -93 -84 -139 -157 -55 -86 -48 -158 18 -183 36 -14 44 -47 33 -131
-9 -74 -49 -171 -79 -196 -12 -9 -13 -16 -4 -30 17 -27 -37 -170 -75 -200 -19
-15 -35 -43 -47 -78 -19 -61 -12 -82 16 -47 22 27 35 29 18 3 -10 -16 -9 -23
6 -40 11 -12 16 -27 12 -37 -3 -9 -18 -109 -32 -223 -13 -113 -31 -253 -39
-309 -8 -57 -22 -190 -30 -295 -8 -106 -18 -211 -21 -235 l-6 -42 489 0 c269
0 492 2 495 5 3 3 -6 63 -18 133 -13 70 -35 208 -49 307 -40 281 -55 360 -96
511 -33 120 -88 287 -113 346 -6 13 -3 15 15 11 17 -5 10 8 -34 61 -32 36 -57
69 -57 71 0 3 21 37 47 75 l46 70 -6 140 c-6 136 -6 140 15 151 l21 11 -21 17
c-18 14 -20 21 -13 51 5 19 13 47 19 61 12 30 7 59 -32 176 -27 79 -27 108 -3
100 7 -2 18 3 26 10 10 10 17 11 24 4 19 -19 27 -12 27 24 0 19 4 35 10 35 5
0 13 12 16 26 6 22 8 24 16 10 15 -26 25 -19 38 30 9 33 17 44 28 39 22 -8 8
46 -32 128 -19 37 -32 76 -29 87 3 13 -8 33 -35 62 -22 24 -56 61 -76 84 -57
66 -157 82 -266 44z"/>
<path d="M3180 2139 c-82 -28 -152 -60 -177 -83 -35 -30 -31 -84 7 -118 22
-19 30 -35 30 -60 -1 -29 -7 -37 -61 -73 -59 -39 -98 -77 -130 -124 l-15 -24
-70 45 c-38 25 -88 60 -111 77 l-42 32 -17 -28 c-10 -15 -19 -30 -20 -32 -2
-1 -13 4 -26 13 -30 21 -36 20 -40 -6 -3 -22 -7 -23 -85 -23 -51 1 -83 -3 -83
-10 0 -21 85 -63 143 -70 63 -7 73 -17 58 -58 -6 -14 -6 -29 -2 -32 5 -3 44
-12 86 -20 42 -8 121 -31 174 -51 120 -44 368 -168 400 -199 21 -20 22 -27 14
-61 -8 -33 -6 -44 12 -69 12 -16 36 -63 54 -104 l34 -73 -19 -61 c-13 -43 -15
-62 -7 -64 7 -3 1 -25 -18 -64 -16 -32 -45 -117 -65 -187 -19 -70 -57 -196
-84 -280 -55 -168 -55 -180 2 -201 18 -7 40 -16 49 -21 9 -5 49 -12 88 -16
l72 -7 11 -43 12 -44 133 0 133 0 11 45 c6 26 18 46 28 49 9 3 42 10 74 17 78
17 84 27 59 91 -28 70 -38 115 -52 223 -20 160 -41 289 -55 345 -8 31 -12 65
-9 78 4 12 -3 57 -14 99 -11 43 -23 105 -26 138 -8 75 -40 201 -56 220 -19 23
4 43 105 90 125 58 278 104 402 120 82 11 108 18 119 33 7 11 33 25 58 32 115
32 104 117 -13 103 -41 -5 -52 -3 -57 11 -3 9 -1 23 6 31 20 24 4 30 -26 11
-25 -17 -27 -17 -48 3 -30 28 -39 27 -110 -17 -34 -22 -129 -73 -213 -115 -83
-42 -170 -87 -192 -101 -22 -14 -44 -26 -47 -26 -4 0 -4 18 -1 40 3 22 1 43
-4 46 -5 3 -9 18 -9 34 0 23 8 33 44 54 60 35 134 109 152 152 13 31 13 38 -1
68 -27 56 -65 84 -139 103 -57 14 -79 15 -139 5 l-72 -12 -27 32 c-23 27 -26
37 -21 73 5 37 2 44 -22 63 -33 26 -70 26 -145 1z"/>
</g>
</svg>
