<?xml version="1.0" standalone="no"?>
<!DOCTYPE svg PUBLIC "-//W3C//DTD SVG 20010904//EN"
 "http://www.w3.org/TR/2001/REC-SVG-20010904/DTD/svg10.dtd">
<svg version="1.0" xmlns="http://www.w3.org/2000/svg"
 width="480.000000pt" height="360.000000pt" viewBox="0 0 480.000000 360.000000"
 preserveAspectRatio="xMidYMid meet">
<metadata>
Created by potrace 1.16, written by Peter Selinger 2001-2019
</metadata>
<rect width="1" height="360" fill="#000000"/>
<rect x="479" width="1" height="360" fill="#000000"/>
<rect width="480" height="1" fill="#000000"/>
<rect y="359" width="480" height="1" fill="#000000"/>
<g transform="translate(0.000000,360.000000) scale(0.100000,-0.100000)"
fill="#000000" stroke="none">
<path d="M320 3563 c0 -23 -12 -59 -29 -91 -17 -29 -37 -76 -47 -105 -9 -29
-32 -71 -51 -94 -38 -47 -34 -51 27 -27 70 28 86 -13 54 -141 -8 -33 -17 -114
-19 -180 -2 -66 -9 -160 -14 -210 -6 -49 -14 -125 -17 -167 -3 -43 -10 -78
-14 -78 -14 0 -60 -155 -77 -260 -18 -112 -28 -302 -18 -327 5 -10 8 -21 7
-25 -10 -46 -32 -279 -32 -333 0 -49 -5 -78 -16 -94 -9 -13 -28 -64 -42 -115
l-25 -91 -4 -612 -4 -613 24 0 c22 0 26 6 31 44 l7 45 57 11 c31 6 67 13 78
15 25 5 34 -15 34 -77 l0 -38 74 0 c58 0 75 3 80 16 9 23 7 182 -3 232 -5 24
-16 49 -26 56 -14 10 -15 18 -6 53 6 22 17 122 25 222 11 157 16 185 33 204
47 52 99 393 84 561 -5 62 -13 101 -21 106 -11 7 -11 26 -2 105 7 52 15 144
18 203 5 86 10 111 26 128 11 12 27 47 37 79 l18 57 17 -49 c134 -373 258
-572 680 -1096 89 -110 170 -212 181 -226 11 -15 48 -61 82 -102 84 -100 232
-277 322 -385 41 -49 90 -106 110 -126 l35 -38 1403 0 1403 0 0 1330 0 1330
-32 20 c-18 11 -51 25 -73 31 -22 6 -82 26 -134 45 -83 30 -104 34 -196 34
-74 0 -133 7 -207 24 -98 23 -229 46 -262 46 -9 0 -16 -6 -16 -14 0 -8 -6 -16
-12 -19 -17 -6 14 -32 70 -58 23 -11 42 -22 42 -24 0 -11 -269 -134 -299 -137
-37 -3 -54 -24 -24 -30 12 -2 -14 -25 -82 -72 -105 -72 -151 -112 -135 -118 6
-2 -17 -32 -50 -68 -43 -46 -56 -66 -45 -68 11 -3 5 -15 -25 -49 -22 -25 -38
-48 -36 -51 3 -2 21 6 41 18 60 37 50 16 -24 -51 -39 -34 -69 -65 -66 -67 2
-3 22 3 45 12 22 9 47 16 56 16 14 0 14 -2 0 -22 -9 -12 -16 -31 -16 -41 0
-13 15 -3 51 37 28 31 55 56 60 56 4 0 -14 -37 -40 -82 -48 -83 -48 -83 -86
-81 -69 5 -157 55 -232 132 -38 39 -77 71 -87 71 -39 0 -73 -53 -92 -141 -25
-113 -41 -128 -167 -154 -52 -10 -73 -46 -91 -157 -4 -21 -22 -53 -45 -79 -34
-39 -43 -43 -77 -41 -130 8 -117 11 -129 -30 -6 -23 -33 -61 -66 -95 -79 -83
-89 -97 -104 -140 -12 -34 -11 -44 10 -98 12 -33 41 -97 63 -141 23 -45 51
-110 62 -145 23 -66 53 -209 46 -216 -2 -2 -34 38 -72 89 -102 139 -319 409
-419 523 -49 55 -189 201 -311 325 -121 124 -227 236 -234 249 -7 13 -16 83
-20 155 -15 222 -62 512 -179 1086 -19 94 -26 149 -20 156 7 9 22 8 59 -4 46
-15 51 -15 70 3 11 10 20 23 20 29 0 6 -22 33 -49 61 -28 27 -70 86 -94 130
l-44 80 -392 3 -391 2 0 -37z m110 -518 c0 -14 -4 -25 -10 -25 -5 0 -10 11
-10 25 0 14 5 25 10 25 6 0 10 -11 10 -25z m38 -295 c1 -19 -4 -75 -11 -125
l-13 -90 -38 -3 c-37 -3 -37 -3 -32 30 3 18 10 73 16 123 12 92 20 107 55 103
15 -2 21 -12 23 -38z m-98 -435 c14 -8 37 -14 52 -15 15 0 30 -5 33 -10 7 -11
-19 -187 -36 -253 -8 -31 -14 -37 -27 -31 -9 4 -38 14 -64 23 -25 9 -50 19
-54 23 -7 7 5 98 28 221 12 62 22 68 68 42z m3124 -227 c-5 -7 -9 -19 -10 -26
-2 -13 -82 -112 -91 -112 -11 0 9 35 54 96 26 35 49 62 51 60 2 -3 0 -11 -4
-18z m-3144 -305 c0 -67 -29 -276 -39 -286 -5 -5 -19 -7 -32 -5 -23 3 -24 6
-22 83 6 214 17 255 69 255 22 0 24 -4 24 -47z m-3 -558 c-4 -27 -11 -93 -17
-145 -14 -122 -26 -162 -48 -156 -10 3 -43 8 -76 12 l-59 7 7 101 c6 89 12
129 31 212 4 20 11 22 86 20 l81 -1 -5 -50z m-117 -580 c0 -86 -19 -254 -31
-277 -6 -11 -21 -18 -39 -18 -29 0 -30 2 -30 43 0 23 7 96 15 162 8 66 15 128
15 138 0 13 8 17 35 17 l35 0 0 -65z"/>
<path d="M1456 3528 c55 -154 141 -294 253 -412 106 -111 233 -185 434 -255
138 -48 172 -64 191 -94 8 -12 24 -71 36 -132 26 -136 35 -164 57 -181 13 -9
18 -26 18 -65 0 -38 4 -55 18 -63 30 -19 52 4 52 57 0 25 3 48 7 52 3 4 41 11
84 16 42 6 85 14 95 20 27 14 39 72 39 197 0 154 4 160 155 238 295 153 438
299 550 561 19 43 37 90 40 106 l7 27 -1031 0 -1031 0 26 -72z"/>
</g>
</svg>
