<?xml version="1.0" standalone="no"?>
<!DOCTYPE svg PUBLIC "-//W3C//DTD SVG 20010904//EN"
 "http://www.w3.org/TR/2001/REC-SVG-20010904/DTD/svg10.dtd">
<svg version="1.0" xmlns="http://www.w3.org/2000/svg"
 width="480.000000pt" height="360.000000pt" viewBox="0 0 480.000000 360.000000"
 preserveAspectRatio="xMidYMid meet">
<metadata>
Created by potrace 1.16, written by Peter Selinger 2001-2019
</metadata>
<rect width="1" height="360" fill="#000000"/>
<rect x="479" width="1" height="360" fill="#000000"/>
<rect width="480" height="1" fill="#000000"/>
<rect y="359" width="480" height="1" fill="#000000"/>
<g transform="translate(0.000000,360.000000) scale(0.100000,-0.100000)"
fill="#000000" stroke="none">
<path d="M1875 3373 c-11 -3 -24 -9 -29 -14 -6 -5 -23 -9 -38 -9 -15 0 -28 -4
-28 -9 0 -4 -23 -39 -50 -77 -47 -64 -106 -176 -159 -299 -12 -27 -28 -61 -35
-75 -8 -14 -17 -46 -21 -71 -7 -48 1 -63 40 -71 38 -7 27 -36 -42 -108 -75
-79 -88 -102 -73 -130 15 -28 66 -61 105 -67 34 -5 62 -34 51 -51 -2 -4 -14
-73 -26 -154 -21 -141 -21 -147 -4 -179 13 -24 18 -56 19 -106 0 -44 5 -77 13
-84 6 -7 12 -28 12 -45 0 -50 16 -49 37 1 16 41 20 45 46 39 19 -4 29 -1 33
10 3 9 12 16 20 16 11 0 14 -18 14 -76 0 -67 2 -75 15 -64 8 7 15 19 15 26 0
8 6 14 14 14 22 0 29 -52 15 -119 -11 -58 -10 -97 7 -253 5 -47 3 -65 -15 -98
-16 -30 -18 -42 -9 -45 18 -7 18 -691 0 -750 -39 -133 -64 -403 -46 -494 l7
-31 714 0 715 0 -7 138 c-12 236 -34 421 -66 547 -29 115 -93 272 -134 329
-19 27 -33 51 -31 53 2 2 32 8 67 14 123 19 169 39 210 91 20 26 41 62 44 80
4 18 11 39 15 48 5 8 14 41 21 72 10 46 10 69 0 114 -13 55 -60 124 -86 124
-7 0 -25 10 -39 21 -21 16 -24 24 -15 30 10 6 9 10 -5 15 -10 4 -21 3 -25 -2
-3 -5 -44 -9 -91 -9 -47 0 -97 -3 -112 -8 -87 -24 -130 -178 -93 -329 5 -20 4
-28 -6 -28 -15 0 -101 168 -105 204 -3 22 13 216 22 274 3 20 11 32 21 32 11
0 14 6 9 24 -12 49 -37 251 -33 267 3 11 -2 19 -14 22 -18 5 -26 42 -20 101 1
20 37 51 58 51 22 0 75 97 94 175 20 77 20 81 -7 235 -4 24 1 38 29 71 107
124 195 364 158 432 -18 34 -102 45 -301 40 -195 -6 -264 -23 -306 -75 l-22
-28 -9 35 c-14 53 -79 83 -188 85 -81 2 -84 3 -113 36 -55 62 -174 109 -237
92z m731 -1423 c12 -99 23 -152 34 -167 10 -12 20 -50 24 -83 4 -34 10 -68 13
-76 11 -30 -16 -12 -42 29 -16 23 -55 72 -88 109 l-59 67 15 68 c9 37 19 86
22 108 7 43 58 131 61 105 1 -8 10 -80 20 -160z m-688 -871 c27 -51 27 -59 -1
-138 -35 -101 -47 -92 -47 37 0 153 10 173 48 101z"/>
</g>
</svg>
