<?xml version="1.0" standalone="no"?>
<!DOCTYPE svg PUBLIC "-//W3C//DTD SVG 20010904//EN"
 "http://www.w3.org/TR/2001/REC-SVG-20010904/DTD/svg10.dtd">
<svg version="1.0" xmlns="http://www.w3.org/2000/svg"
 width="480.000000pt" height="360.000000pt" viewBox="0 0 480.000000 360.000000"
 preserveAspectRatio="xMidYMid meet">
<metadata>
Created by potrace 1.16, written by Peter Selinger 2001-2019
</metadata>
<rect width="1" height="360" fill="#000000"/>
<rect x="479" width="1" height="360" fill="#000000"/>
<rect width="480" height="1" fill="#000000"/>
<rect y="359" width="480" height="1" fill="#000000"/>
<g transform="translate(0.000000,360.000000) scale(0.100000,-0.100000)"
fill="#000000" stroke="none">
<path d="M0 1800 l0 -1800 875 0 875 0 5 23 c2 12 11 52 20 89 27 123 113 414
140 474 43 95 85 225 85 263 0 28 -12 53 -56 111 -31 41 -60 76 -64 78 -7 3
-120 -238 -120 -257 0 -5 -5 -13 -11 -17 -9 -5 -10 1 -4 22 4 16 9 50 12 76 2
26 13 73 23 104 26 73 26 73 -10 72 -45 -1 -53 11 -40 67 8 38 8 51 -2 61 -23
23 -217 93 -316 114 -111 24 -108 23 -127 59 -8 16 -26 32 -40 35 -21 5 -24
11 -19 31 l6 25 -78 0 c-135 1 -311 56 -371 117 l-25 24 20 20 c26 23 36 24
52 3 8 -8 22 -20 32 -25 16 -9 18 -7 12 15 -5 20 -2 26 9 26 9 0 18 -4 22 -9
3 -6 18 -6 38 0 17 5 68 10 112 11 44 1 63 3 42 5 -28 3 -40 10 -47 27 -9 25
-67 66 -93 66 -24 0 -47 40 -47 81 0 20 -9 71 -20 115 -12 43 -22 104 -23 134
-2 53 -1 55 25 58 20 2 31 -4 44 -22 24 -38 38 -32 52 21 17 61 29 75 52 63
29 -15 61 56 67 150 2 41 7 82 10 90 7 24 33 -18 33 -55 0 -45 51 -87 62 -53
3 9 15 8 46 -6 46 -21 52 -33 73 -151 18 -104 33 -132 94 -183 30 -25 12 -106
-27 -121 -28 -11 -60 -46 -82 -88 -21 -42 -55 -73 -80 -74 -12 0 -31 -13 -44
-29 l-23 -29 59 -30 59 -30 20 21 c17 17 24 18 42 8 12 -6 35 -8 51 -5 24 5
49 -4 124 -44 51 -28 97 -51 102 -51 5 0 18 30 28 68 22 74 66 163 152 304 66
108 94 169 94 204 0 14 4 34 10 44 5 10 17 72 25 137 54 417 116 624 215 723
l39 39 -64 -6 c-107 -10 -134 24 -104 132 16 57 97 218 129 257 l28 33 55 -23
c31 -13 61 -21 67 -17 18 11 131 -58 204 -125 68 -64 74 -67 132 -73 52 -5 75
-2 135 19 89 31 206 42 232 22 16 -12 15 -22 -23 -172 -22 -87 -42 -162 -45
-166 -3 -4 7 -34 21 -65 23 -49 26 -67 22 -129 -5 -75 -22 -120 -83 -216 l-35
-54 0 37 c0 20 -3 37 -7 37 -10 0 -53 -66 -53 -80 0 -5 -4 -10 -10 -10 -5 0
-10 5 -10 10 0 21 -20 9 -35 -21 -20 -38 -34 -249 -17 -249 6 0 12 5 14 10 2
6 17 8 36 4 29 -6 32 -10 32 -43 0 -32 8 -45 60 -96 74 -73 195 -255 212 -319
11 -41 10 -50 -7 -82 -12 -23 -18 -50 -16 -73 2 -20 6 -72 10 -116 l6 -80 70
-12 c39 -7 137 -16 219 -21 115 -7 152 -13 160 -24 7 -9 29 -21 49 -26 31 -9
43 -7 67 6 17 9 30 22 30 28 0 19 29 25 81 18 56 -8 61 1 29 53 -11 18 -15 35
-10 38 18 11 68 -24 81 -57 l13 -33 3 33 c3 22 -2 41 -17 59 -14 18 -17 30
-10 37 7 7 14 6 22 -2 7 -7 22 -12 34 -12 31 0 64 -49 64 -94 0 -90 -66 -163
-179 -197 -41 -12 -99 -25 -130 -28 -48 -5 -56 -9 -61 -31 -5 -20 -13 -26 -40
-28 -19 -2 -43 -11 -53 -20 -16 -14 -27 -13 -145 16 -70 18 -186 39 -259 46
-73 8 -142 20 -153 26 -48 26 -94 119 -137 280 l-10 35 -11 -50 c-7 -31 -7
-54 -1 -59 17 -18 9 -63 -16 -101 -22 -32 -25 -44 -19 -84 3 -25 16 -56 27
-68 18 -21 19 -31 14 -118 -7 -108 -5 -115 92 -339 60 -137 160 -413 193 -533
l23 -83 853 0 852 0 0 1800 0 1800 -2400 0 -2400 0 0 -1800z m1030 530 c0 -5
-4 -10 -10 -10 -5 0 -10 5 -10 10 0 6 5 10 10 10 6 0 10 -4 10 -10z"/>
<path d="M2651 2204 c0 -11 3 -14 6 -6 3 7 2 16 -1 19 -3 4 -6 -2 -5 -13z"/>
<path d="M1732 1509 c-21 -48 -21 -69 -3 -69 8 0 34 110 27 117 -2 2 -13 -20
-24 -48z"/>
<path d="M1682 1485 c-6 -14 -8 -25 -3 -25 8 0 23 41 17 47 -1 2 -8 -8 -14
-22z"/>
</g>
</svg>
