<?xml version="1.0" standalone="no"?>
<!DOCTYPE svg PUBLIC "-//W3C//DTD SVG 20010904//EN"
 "http://www.w3.org/TR/2001/REC-SVG-20010904/DTD/svg10.dtd">
<svg version="1.0" xmlns="http://www.w3.org/2000/svg"
 width="480.000000pt" height="360.000000pt" viewBox="0 0 480.000000 360.000000"
 preserveAspectRatio="xMidYMid meet">
<metadata>
Created by potrace 1.16, written by Peter Selinger 2001-2019
</metadata>
<rect width="1" height="360" fill="#000000"/>
<rect x="479" width="1" height="360" fill="#000000"/>
<rect width="480" height="1" fill="#000000"/>
<rect y="359" width="480" height="1" fill="#000000"/>
<g transform="translate(0.000000,360.000000) scale(0.100000,-0.100000)"
fill="#000000" stroke="none">
<path d="M2775 3219 c-71 -9 -123 -30 -185 -73 -25 -17 -51 -32 -57 -32 -29
-2 -33 -5 -33 -28 0 -13 -14 -53 -30 -88 -51 -108 -61 -295 -17 -292 9 1 17
-3 17 -10 0 -6 10 -22 21 -36 13 -15 19 -18 15 -8 -3 12 -1 15 10 11 7 -3 14
-9 14 -14 0 -5 8 -9 18 -9 9 0 26 -7 37 -15 17 -14 18 -19 7 -47 -12 -33 -9
-48 11 -48 7 0 24 -12 38 -27 14 -16 45 -43 68 -62 37 -29 46 -32 66 -23 21
10 24 8 28 -11 3 -20 4 -20 16 8 13 29 13 30 23 8 9 -20 0 -33 -90 -125 -117
-120 -162 -175 -162 -196 0 -13 3 -12 14 4 26 35 30 5 7 -44 -64 -130 -74
-204 -42 -310 11 -35 16 -62 13 -60 -4 2 -38 19 -77 39 -38 19 -110 48 -158
64 -89 29 -107 44 -113 90 -1 11 -8 35 -16 53 -11 28 -10 37 7 68 16 30 17 37
4 45 -12 7 -11 9 3 9 10 0 25 11 34 25 16 25 16 27 -13 68 -16 23 -34 54 -41
70 -13 29 -33 35 -51 13 -6 -7 -29 -16 -51 -20 -23 -3 -54 -18 -72 -35 -31
-28 -31 -28 -40 -162 -4 -74 -15 -172 -23 -219 -24 -135 -15 -301 17 -324 8
-6 18 -27 22 -48 5 -30 -4 -66 -52 -200 -33 -89 -60 -175 -60 -190 -2 -30 21
-48 62 -48 25 0 88 -29 95 -43 13 -31 107 -129 137 -143 50 -24 58 -9 27 54
-14 29 -23 56 -19 60 6 6 66 11 161 13 11 0 27 7 37 16 31 28 23 153 -31 518
-15 105 12 110 137 26 87 -58 88 -60 84 -95 -2 -19 1 -50 7 -67 13 -37 3 -109
-34 -254 -32 -122 -62 -276 -70 -355 -10 -101 -58 -278 -130 -485 -37 -105
-69 -200 -72 -212 l-5 -23 746 0 c410 0 746 2 746 5 0 12 -55 115 -122 227
-90 152 -158 297 -253 538 -83 213 -126 299 -228 462 -39 61 -67 117 -67 132
0 15 -7 43 -15 64 -16 37 -37 205 -30 239 2 10 7 35 10 56 3 20 11 37 18 37 8
0 12 22 12 69 0 60 3 73 24 95 14 14 33 26 43 26 10 0 18 4 18 9 0 5 10 11 23
13 19 3 22 8 19 41 -4 57 -60 236 -89 285 -13 24 -23 46 -20 48 6 7 37 -7 37
-17 0 -4 7 -6 15 -3 8 3 17 21 21 40 6 30 8 33 19 18 11 -15 13 -14 19 10 5
19 11 26 22 22 12 -5 14 1 8 29 -5 28 -3 35 10 35 19 0 19 4 7 48 -10 33 -4
41 17 20 17 -17 15 -7 -8 47 -25 59 -25 68 0 30 31 -47 24 -12 -15 71 -19 42
-46 118 -59 170 -33 124 -57 167 -130 240 -83 82 -129 110 -190 113 -28 1 -52
3 -55 5 -3 1 -33 -1 -66 -5z"/>
</g>
</svg>
