<?xml version="1.0" standalone="no"?>
<!DOCTYPE svg PUBLIC "-//W3C//DTD SVG 20010904//EN"
 "http://www.w3.org/TR/2001/REC-SVG-20010904/DTD/svg10.dtd">
<svg version="1.0" xmlns="http://www.w3.org/2000/svg"
 width="480.000000pt" height="360.000000pt" viewBox="0 0 480.000000 360.000000"
 preserveAspectRatio="xMidYMid meet">
<metadata>
Created by potrace 1.16, written by Peter Selinger 2001-2019
</metadata>
<rect width="1" height="360" fill="#000000"/>
<rect x="479" width="1" height="360" fill="#000000"/>
<rect width="480" height="1" fill="#000000"/>
<rect y="359" width="480" height="1" fill="#000000"/>
<g transform="translate(0.000000,360.000000) scale(0.100000,-0.100000)"
fill="#000000" stroke="none">
<path d="M2780 3219 c0 -7 18 -31 40 -55 48 -53 51 -70 7 -44 -77 45 -288 66
-362 36 -18 -8 -54 -33 -78 -56 l-45 -41 -57 9 c-63 10 -95 6 -95 -12 1 -28
47 -91 69 -94 23 -4 22 -4 -8 -23 -39 -23 -39 -33 -1 -56 35 -20 37 -29 11
-43 -50 -26 -52 -35 -20 -108 17 -37 33 -73 37 -80 4 -8 2 -138 -4 -290 l-12
-277 -46 -179 c-45 -176 -58 -252 -35 -213 21 35 25 6 12 -75 -7 -46 -12 -114
-12 -153 1 -38 -5 -108 -14 -155 -8 -47 -21 -175 -27 -285 -6 -110 -22 -366
-35 -570 -14 -203 -25 -389 -25 -412 l0 -43 565 0 c505 0 565 2 565 16 0 47
-106 426 -216 774 -71 223 -131 480 -149 637 -8 72 4 103 40 103 13 0 35 4 48
9 23 9 26 6 42 -35 18 -47 53 -80 68 -65 6 6 1 20 -12 37 -28 36 -27 44 8 44
34 0 72 39 111 113 20 38 29 47 46 43 67 -17 152 56 161 138 4 36 1 47 -18 65
-12 11 -29 21 -38 21 -32 0 -121 34 -127 49 -3 9 -14 45 -23 81 l-16 64 63 96
63 95 -43 39 c-102 91 -232 181 -277 191 -44 10 -46 11 -43 44 3 39 28 85 66
120 24 23 27 23 44 8 27 -25 34 -21 27 13 -6 26 -3 31 29 44 40 17 42 22 20
54 -8 12 -13 26 -10 31 7 11 -21 36 -75 64 l-44 24 0 64 c0 77 -25 132 -93
202 -44 44 -82 61 -82 36z"/>
</g>
</svg>
