<?xml version="1.0" standalone="no"?>
<!DOCTYPE svg PUBLIC "-//W3C//DTD SVG 20010904//EN"
 "http://www.w3.org/TR/2001/REC-SVG-20010904/DTD/svg10.dtd">
<svg version="1.0" xmlns="http://www.w3.org/2000/svg"
 width="480.000000pt" height="360.000000pt" viewBox="0 0 480.000000 360.000000"
 preserveAspectRatio="xMidYMid meet">
<metadata>
Created by potrace 1.16, written by Peter Selinger 2001-2019
</metadata>
<rect width="1" height="360" fill="#000000"/>
<rect x="479" width="1" height="360" fill="#000000"/>
<rect width="480" height="1" fill="#000000"/>
<rect y="359" width="480" height="1" fill="#000000"/>
<g transform="translate(0.000000,360.000000) scale(0.100000,-0.100000)"
fill="#000000" stroke="none">
<path d="M11 3596 c2 -2 40 -16 84 -30 74 -24 80 -25 89 -8 9 15 11 14 16 -7
4 -16 17 -29 40 -37 l35 -13 -36 5 -37 6 -7 -50 c-6 -45 -4 -54 24 -92 38 -53
43 -84 8 -52 -33 31 -44 27 -51 -18 -3 -22 -9 -58 -12 -80 -4 -31 -2 -40 9
-40 31 0 192 84 216 113 14 17 37 43 49 57 35 37 21 1 -30 -75 -40 -61 -44
-65 -139 -106 -55 -23 -99 -45 -99 -49 0 -23 53 -39 134 -41 47 -1 84 -5 81
-9 -2 -4 19 -1 48 7 84 22 112 18 140 -19 69 -92 145 -311 182 -518 40 -231
38 -227 82 -235 61 -11 180 -76 252 -136 80 -68 166 -177 215 -276 42 -84 27
-83 173 -9 117 58 210 88 265 84 l43 -3 10 -66 c11 -66 31 -104 79 -148 l25
-24 203 41 c586 119 746 143 985 149 167 5 208 3 315 -16 139 -25 176 -33 232
-54 34 -13 46 -13 100 1 85 21 199 25 192 6 -3 -9 4 -16 22 -20 112 -25 125
-36 55 -48 -21 -4 -47 -10 -57 -13 -19 -5 -19 -6 -1 -19 17 -13 17 -14 -6 -23
l-24 -10 25 0 c15 -1 31 -6 37 -12 8 -8 17 -8 31 0 34 18 47 13 26 -10 l-19
-22 30 8 c17 4 67 9 113 10 98 4 105 -10 19 -40 -72 -26 -76 -31 -27 -39 49
-8 51 -21 4 -36 -32 -11 -34 -13 -20 -29 8 -9 22 -33 30 -53 14 -32 20 -36 62
-41 48 -5 92 -36 80 -56 -4 -6 -29 -13 -56 -17 -27 -4 -48 -10 -45 -14 9 -15
110 -21 141 -9 16 6 52 13 79 14 28 2 68 7 90 10 56 10 39 -5 -70 -59 l-90
-46 75 -1 c87 -2 81 -2 143 10 62 11 58 -5 -8 -31 -60 -23 -78 -38 -47 -38 12
0 22 -4 22 -10 0 -5 12 -10 28 -10 30 0 123 -23 143 -36 9 -5 8 -10 -7 -16
-12 -5 -3 -6 24 -2 27 4 42 2 42 -5 0 -6 7 -11 15 -11 13 0 15 144 15 1235 l0
1235 -2397 0 c-1318 0 -2394 -2 -2392 -4z"/>
<path d="M8 3539 c-8 -5 5 -15 36 -28 26 -12 51 -21 55 -21 5 0 20 -9 34 -20
l26 -21 9 33 c5 18 8 34 7 36 -6 8 -157 27 -167 21z"/>
<path d="M278 3050 c-15 -4 -29 -5 -32 -2 -3 3 -6 -2 -6 -11 0 -25 12 -26 65
-1 38 17 44 23 25 23 -14 -1 -37 -4 -52 -9z"/>
<path d="M0 2883 l0 -158 49 75 c26 41 65 92 85 114 19 21 33 43 30 48 -6 9
-147 78 -160 78 -2 0 -4 -71 -4 -157z"/>
<path d="M110 3032 c0 -4 16 -22 35 -41 l35 -32 30 21 c16 12 30 24 30 26 0 3
-16 12 -35 20 -37 15 -95 19 -95 6z"/>
<path d="M370 2140 l-85 -5 105 -56 c434 -232 531 -274 664 -285 l71 -5 -45
41 c-118 107 -292 207 -470 270 -130 46 -136 47 -240 40z"/>
<path d="M1060 1725 c0 -10 170 -88 177 -82 14 15 -28 55 -69 65 -69 18 -108
24 -108 17z"/>
<path d="M1392 1664 c4 -25 63 -34 161 -24 72 7 97 14 86 24 -2 2 -60 7 -127
11 -117 6 -124 6 -120 -11z"/>
<path d="M4567 1133 c18 -2 50 -2 70 0 21 2 7 4 -32 4 -38 0 -55 -2 -38 -4z"/>
<path d="M4720 1088 c-30 -6 -59 -17 -65 -25 -7 -9 -36 -17 -73 -20 -76 -7
-69 -19 13 -25 33 -3 74 -11 90 -18 l30 -13 -47 -15 c-27 -9 -48 -19 -48 -23
0 -4 15 -10 34 -13 19 -4 45 -15 59 -26 14 -11 29 -20 34 -20 5 0 9 -9 9 -19
0 -15 -6 -19 -26 -16 -100 15 -112 16 -98 2 7 -7 35 -24 61 -37 52 -26 56 -30
62 -60 4 -19 0 -20 -53 -14 -31 3 -77 12 -102 19 -50 14 -212 9 -188 -6 7 -5
28 -9 45 -9 47 0 253 -94 253 -116 0 -21 -12 -21 -92 2 -94 28 -88 27 -88 15
0 -4 27 -18 61 -31 75 -27 131 -59 123 -71 -3 -5 -24 -9 -47 -9 l-42 0 49 -28
c27 -15 53 -37 57 -48 7 -19 -9 -15 -148 37 -85 33 -160 59 -167 59 -20 0 48
-39 123 -71 89 -37 151 -76 151 -95 0 -19 -6 -18 -80 11 -75 29 -84 30 -76 9
5 -13 -1 -15 -38 -11 -23 3 -53 10 -65 16 -23 13 -45 6 -35 -10 6 -10 -17 -6
-93 16 -34 11 -44 10 -53 0 -8 -10 -20 -11 -43 -4 -59 17 -53 9 27 -36 44 -24
81 -51 82 -60 2 -10 -3 -14 -14 -11 -32 9 -177 41 -187 41 -5 0 -10 -9 -10
-20 0 -23 -17 -22 -55 5 -33 24 -114 44 -137 35 -14 -5 -7 -11 31 -26 27 -10
66 -34 85 -53 20 -18 46 -39 59 -45 23 -12 31 -41 11 -41 -6 0 -38 7 -71 16
-33 8 -72 14 -87 12 -24 -3 -23 -5 24 -32 28 -16 55 -35 60 -42 6 -7 42 -31
80 -52 39 -22 69 -43 68 -48 -1 -5 3 -14 8 -21 7 -8 -4 -7 -36 2 -25 8 -50 17
-55 20 -6 3 -10 -5 -10 -19 0 -14 -2 -26 -3 -26 -2 0 -30 9 -63 20 -32 11 -64
18 -71 16 -7 -3 -34 2 -60 10 -27 9 -58 17 -69 19 -12 2 -32 10 -45 18 -31 20
-136 50 -152 44 -6 -3 15 -17 48 -32 33 -14 105 -46 160 -71 l100 -44 438 0
437 0 0 550 c0 434 -3 550 -12 549 -7 -1 -38 -6 -68 -11z"/>
<path d="M1330 693 c0 -23 -58 -173 -74 -193 -7 -8 -17 -27 -24 -42 -6 -16
-18 -28 -27 -28 -18 0 -20 -21 -4 -37 9 -9 8 -21 -5 -47 -13 -27 -24 -37 -52
-42 -32 -6 -34 -8 -20 -23 29 -32 2 -41 -96 -34 -75 5 -88 4 -88 -9 0 -20 -88
-29 -193 -20 -43 4 -80 6 -82 4 -2 -3 8 -27 22 -56 39 -77 45 -104 27 -137
l-15 -29 1533 0 c1499 1 1532 1 1498 20 -34 18 -56 18 -45 -1 12 -19 -8 -8
-48 27 -25 21 -99 60 -180 95 -117 51 -161 64 -280 85 -78 14 -180 36 -227 50
-47 14 -147 33 -222 44 -602 85 -935 171 -1257 326 -73 35 -135 64 -137 64 -2
0 -4 -8 -4 -17z"/>
<path d="M0 155 l0 -155 273 0 272 0 -54 48 c-30 26 -74 74 -99 107 -58 79
-96 99 -212 115 -52 7 -107 19 -122 26 -58 30 -58 28 -58 -141z"/>
<path d="M3330 270 c14 -4 34 -8 45 -9 16 -1 17 1 5 9 -8 5 -28 9 -45 9 -29
-1 -29 -1 -5 -9z"/>
</g>
</svg>
