<?xml version="1.0" standalone="no"?>
<!DOCTYPE svg PUBLIC "-//W3C//DTD SVG 20010904//EN"
 "http://www.w3.org/TR/2001/REC-SVG-20010904/DTD/svg10.dtd">
<svg version="1.0" xmlns="http://www.w3.org/2000/svg"
 width="480.000000pt" height="360.000000pt" viewBox="0 0 480.000000 360.000000"
 preserveAspectRatio="xMidYMid meet">
<metadata>
Created by potrace 1.16, written by Peter Selinger 2001-2019
</metadata>
<rect width="1" height="360" fill="#000000"/>
<rect x="479" width="1" height="360" fill="#000000"/>
<rect width="480" height="1" fill="#000000"/>
<rect y="359" width="480" height="1" fill="#000000"/>
<g transform="translate(0.000000,360.000000) scale(0.100000,-0.100000)"
fill="#000000" stroke="none">
<path d="M0 1800 l0 -1800 1069 0 1068 0 7 86 c8 95 3 109 -45 119 -37 8 -45
26 -28 66 11 29 10 33 -11 49 l-23 17 51 90 c41 72 58 115 83 219 l32 129 -12
175 c-8 133 -18 204 -41 294 -36 145 -37 177 -5 272 14 41 25 81 25 89 0 9 14
43 31 77 17 33 27 64 22 67 -4 3 -8 19 -9 35 0 22 8 35 36 55 54 38 67 60 75
129 l7 63 -46 45 c-25 24 -46 48 -46 54 0 6 -11 15 -25 20 -26 10 -32 24 -15
35 6 3 10 15 10 27 0 17 -4 19 -26 14 -21 -6 -32 0 -60 29 -19 20 -33 30 -31
23 2 -7 -3 2 -11 20 -8 17 -21 32 -28 32 -34 0 0 183 47 254 80 121 302 216
436 188 53 -11 133 -53 181 -96 28 -25 87 -127 113 -197 25 -65 55 -248 69
-414 6 -71 26 -222 45 -335 19 -113 37 -259 40 -325 3 -66 13 -183 21 -260 18
-181 21 -390 10 -807 l-9 -338 897 0 896 0 0 1734 c0 954 -4 1737 -9 1740 -4
3 -18 33 -30 66 l-22 60 -2370 0 -2369 0 0 -1800z"/>
</g>
</svg>
