<?xml version="1.0" standalone="no"?>
<!DOCTYPE svg PUBLIC "-//W3C//DTD SVG 20010904//EN"
 "http://www.w3.org/TR/2001/REC-SVG-20010904/DTD/svg10.dtd">
<svg version="1.0" xmlns="http://www.w3.org/2000/svg"
 width="480.000000pt" height="360.000000pt" viewBox="0 0 480.000000 360.000000"
 preserveAspectRatio="xMidYMid meet">
<metadata>
Created by potrace 1.16, written by Peter Selinger 2001-2019
</metadata>
<rect width="1" height="360" fill="#000000"/>
<rect x="479" width="1" height="360" fill="#000000"/>
<rect width="480" height="1" fill="#000000"/>
<rect y="359" width="480" height="1" fill="#000000"/>
<g transform="translate(0.000000,360.000000) scale(0.100000,-0.100000)"
fill="#000000" stroke="none">
<path d="M0 2558 l0 -1041 158 6 c188 8 350 29 412 54 25 10 79 37 120 61 295
168 869 200 1470 81 200 -39 548 -132 737 -195 67 -22 78 -24 91 -11 8 8 27
69 43 134 24 104 29 149 35 336 l7 217 -27 21 c-39 30 -56 71 -56 132 0 49 27
149 60 218 11 24 9 31 -18 67 -35 49 -47 108 -32 162 10 36 74 111 149 173 18
15 21 25 16 65 -8 61 14 138 38 134 15 -2 17 6 16 60 0 71 -12 195 -20 202 -2
3 -48 9 -100 15 -105 10 -169 31 -169 55 0 25 38 53 96 71 30 9 54 19 54 21 0
2 -693 4 -1540 4 l-1540 0 0 -1042z"/>
<path d="M4425 3581 c-22 -10 -65 -24 -95 -31 -30 -6 -71 -17 -91 -24 l-35
-11 15 -35 15 -35 4 28 c4 34 13 34 55 -3 19 -16 46 -30 59 -30 19 0 29 -9 43
-40 l18 -40 -37 -118 c-20 -64 -43 -131 -51 -149 -16 -37 -45 -56 -65 -43 -16
10 -50 -14 -50 -34 0 -6 20 -19 44 -29 51 -21 119 -86 147 -140 15 -28 19 -55
18 -95 -3 -62 17 -111 87 -217 35 -52 74 -146 74 -176 0 -10 -16 -41 -35 -70
-31 -45 -35 -56 -26 -78 20 -50 80 -277 100 -376 21 -104 21 -190 1 -250 -9
-28 -35 -54 -113 -114 -56 -44 -115 -92 -130 -109 -32 -33 -36 -15 44 -192
103 -229 338 -628 372 -630 4 0 7 689 7 1530 l0 1530 -167 -1 c-138 0 -175 -4
-208 -18z"/>
<path d="M3367 2113 c-4 -15 -16 -131 -28 -258 -11 -126 -29 -269 -39 -317 -9
-49 -14 -88 -10 -88 14 0 111 231 126 300 11 55 12 85 4 142 -12 82 -41 241
-45 246 -1 2 -5 -10 -8 -25z"/>
<path d="M4137 2123 c-11 -18 -29 -230 -24 -289 2 -36 15 -86 31 -119 l26 -57
27 20 c51 37 95 92 90 110 -16 50 -129 328 -136 335 -5 5 -11 5 -14 0z"/>
<path d="M1190 1586 c-63 -8 -126 -16 -140 -19 -185 -42 -268 -77 -360 -152
-75 -62 -152 -100 -240 -120 -41 -9 -81 -19 -89 -21 -45 -14 74 -750 195
-1211 l17 -63 1218 0 1219 0 0 33 c0 102 50 369 165 874 33 146 33 145 -6 131
-39 -14 -115 -5 -138 16 -10 9 -24 16 -31 16 -19 0 -99 69 -121 104 -22 35
-24 74 -7 111 6 14 9 27 7 30 -10 10 -311 98 -479 140 -476 120 -908 166
-1210 131z"/>
<path d="M0 78 l0 -78 31 0 c34 0 35 -1 -6 97 l-24 58 -1 -77z"/>
</g>
</svg>
