<?xml version="1.0" standalone="no"?>
<!DOCTYPE svg PUBLIC "-//W3C//DTD SVG 20010904//EN"
 "http://www.w3.org/TR/2001/REC-SVG-20010904/DTD/svg10.dtd">
<svg version="1.0" xmlns="http://www.w3.org/2000/svg"
 width="480.000000pt" height="360.000000pt" viewBox="0 0 480.000000 360.000000"
 preserveAspectRatio="xMidYMid meet">
<metadata>
Created by potrace 1.16, written by Peter Selinger 2001-2019
</metadata>
<rect width="1" height="360" fill="#000000"/>
<rect x="479" width="1" height="360" fill="#000000"/>
<rect width="480" height="1" fill="#000000"/>
<rect y="359" width="480" height="1" fill="#000000"/>
<g transform="translate(0.000000,360.000000) scale(0.100000,-0.100000)"
fill="#000000" stroke="none">
<path d="M2735 3260 c-70 -15 -126 -39 -175 -74 -30 -21 -55 -33 -67 -30 -23
6 -48 -20 -39 -41 3 -8 -12 -47 -33 -87 -41 -76 -55 -132 -66 -255 -5 -62 -4
-73 9 -73 9 0 16 -6 16 -12 0 -10 2 -10 9 0 6 10 11 5 20 -17 7 -16 22 -38 32
-47 19 -17 20 -17 14 2 -6 16 -3 15 14 -5 12 -13 21 -18 21 -11 0 9 7 8 25 -4
28 -18 39 -21 30 -6 -3 6 -2 10 3 10 15 0 11 -52 -5 -77 -12 -19 -13 -26 -3
-38 7 -8 18 -15 26 -15 7 0 19 -10 25 -22 7 -13 22 -30 33 -38 12 -8 38 -30
58 -48 24 -22 43 -32 55 -28 25 8 38 3 35 -11 -6 -26 16 -12 28 17 7 16 16 27
21 24 13 -7 11 -64 -1 -64 -6 0 -15 -11 -20 -24 -5 -13 -39 -49 -77 -79 -66
-53 -140 -132 -179 -192 -10 -16 -13 -26 -6 -22 8 5 12 2 12 -8 0 -15 1 -15
16 0 29 29 25 10 -18 -81 -54 -114 -62 -207 -29 -329 12 -43 20 -79 18 -82 -3
-2 -53 19 -113 46 -60 27 -131 55 -159 62 -113 27 -166 51 -181 81 -9 17 -13
37 -10 45 3 8 -3 26 -14 40 -26 33 -25 57 1 94 15 22 18 33 10 43 -13 15 -5
26 19 26 12 0 20 11 24 32 5 24 0 41 -23 77 -16 25 -32 56 -35 68 -8 27 -37
39 -51 20 -5 -8 -30 -17 -55 -21 -59 -9 -105 -37 -126 -78 -11 -21 -20 -75
-26 -153 -5 -66 -19 -167 -31 -225 -34 -168 -22 -400 21 -400 5 0 12 -17 15
-37 4 -22 15 -43 26 -50 18 -11 17 -19 -36 -200 -65 -224 -70 -266 -38 -287
12 -8 32 -12 43 -9 31 8 104 -40 152 -101 42 -53 123 -107 148 -99 19 7 14 29
-18 80 l-30 47 42 13 c24 8 62 12 85 10 28 -3 46 0 54 9 6 8 23 14 37 14 48 0
63 33 59 129 -3 67 -54 362 -92 529 -4 17 1 25 19 33 21 10 31 7 68 -18 23
-17 82 -56 131 -87 75 -49 87 -61 87 -85 0 -15 5 -42 11 -59 12 -34 3 -83 -65
-382 -20 -85 -43 -209 -51 -275 -9 -66 -33 -186 -55 -267 -22 -81 -40 -149
-40 -152 0 -3 299 -6 665 -6 366 0 665 2 665 4 0 1 -22 48 -49 102 -27 54 -92
209 -146 344 -104 265 -147 350 -263 534 -59 93 -77 131 -84 174 -5 30 -16 68
-25 86 -24 46 -25 312 -1 330 10 8 13 17 8 27 -11 20 22 140 50 177 12 16 22
35 23 43 4 27 22 24 25 -4 4 -33 22 -31 39 4 7 13 13 18 13 12 0 -7 5 -13 10
-13 16 0 12 38 -15 140 -34 124 -71 226 -95 260 -11 16 -20 31 -20 34 0 12 21
5 39 -13 20 -20 20 -20 26 0 4 10 10 17 15 14 4 -2 11 10 15 28 5 22 9 26 12
15 7 -27 17 -22 30 13 11 27 15 30 28 19 18 -15 19 -11 5 24 -13 36 -3 61 18
44 13 -11 14 -8 8 25 -4 21 -10 45 -13 53 -6 16 12 19 22 4 3 -5 10 -10 15
-10 5 0 -2 25 -16 55 -29 68 -31 90 -3 50 l21 -30 -7 30 c-3 17 -20 59 -36 95
-17 36 -41 114 -55 174 -35 157 -60 205 -154 297 -44 42 -99 86 -123 98 -49
24 -188 35 -252 21z"/>
</g>
</svg>
