<?xml version="1.0" standalone="no"?>
<!DOCTYPE svg PUBLIC "-//W3C//DTD SVG 20010904//EN"
 "http://www.w3.org/TR/2001/REC-SVG-20010904/DTD/svg10.dtd">
<svg version="1.0" xmlns="http://www.w3.org/2000/svg"
 width="480.000000pt" height="360.000000pt" viewBox="0 0 480.000000 360.000000"
 preserveAspectRatio="xMidYMid meet">
<metadata>
Created by potrace 1.16, written by Peter Selinger 2001-2019
</metadata>
<rect width="1" height="360" fill="#000000"/>
<rect x="479" width="1" height="360" fill="#000000"/>
<rect width="480" height="1" fill="#000000"/>
<rect y="359" width="480" height="1" fill="#000000"/>
<g transform="translate(0.000000,360.000000) scale(0.100000,-0.100000)"
fill="#000000" stroke="none">
<path d="M1604 3418 c0 -244 -20 -348 -108 -553 -25 -60 -95 -183 -139 -245
-30 -43 -181 -200 -222 -230 -11 -8 -41 -32 -66 -53 -112 -91 -366 -198 -539
-227 -137 -23 -408 -15 -513 16 -16 5 -17 -50 -17 -1060 l0 -1066 1344 0 1344
0 10 63 c6 34 16 100 22 147 14 114 26 166 67 294 57 182 92 331 124 528 16
103 38 231 48 285 18 88 18 110 8 213 -11 106 -14 115 -32 112 -69 -9 -93 -18
-116 -43 -36 -38 -79 -47 -249 -55 l-146 -7 -42 -36 c-41 -35 -42 -38 -31 -69
6 -18 9 -36 5 -39 -15 -15 -71 -2 -105 25 -75 60 -45 136 80 199 49 25 99 38
214 58 83 14 158 28 168 31 20 6 22 26 5 55 -11 17 -10 22 5 34 13 9 17 20 12
34 -10 32 19 73 79 115 72 49 106 90 106 126 0 31 44 76 93 93 16 5 26 14 24
21 -19 46 -19 47 2 53 35 9 18 28 -21 25 -37 -3 -33 -7 -90 83 -7 11 -19 24
-26 28 -11 7 -9 14 8 32 26 28 21 41 -19 50 -33 7 -61 43 -61 76 0 14 -5 19
-15 16 -22 -9 -9 47 27 111 l29 53 -36 71 c-59 119 -44 148 66 122 99 -23 201
-55 239 -75 19 -10 60 -25 91 -33 70 -19 149 -87 185 -157 13 -26 33 -99 45
-161 14 -75 33 -137 55 -183 35 -71 54 -154 54 -234 0 -26 14 -78 35 -130 71
-178 80 -252 78 -621 -1 -85 -1 -224 0 -308 2 -129 0 -152 -13 -150 -8 2 -17
14 -21 28 -5 21 -8 22 -13 8 -4 -9 -3 -33 3 -53 8 -28 7 -37 -4 -41 -20 -8 3
-63 141 -339 63 -126 132 -279 153 -340 l39 -110 416 -3 416 -2 0 1800 0 1800
-1598 0 -1598 0 0 -182z"/>
<path d="M3336 1568 c-10 -92 -2 -164 19 -188 l20 -22 5 24 c4 12 0 55 -6 93
-7 39 -13 84 -13 102 -1 53 -19 47 -25 -9z"/>
<path d="M3581 910 c0 -8 4 -22 9 -30 12 -18 12 -2 0 25 -6 13 -9 15 -9 5z"/>
</g>
</svg>
