<?xml version="1.0" standalone="no"?>
<!DOCTYPE svg PUBLIC "-//W3C//DTD SVG 20010904//EN"
 "http://www.w3.org/TR/2001/REC-SVG-20010904/DTD/svg10.dtd">
<svg version="1.0" xmlns="http://www.w3.org/2000/svg"
 width="480.000000pt" height="360.000000pt" viewBox="0 0 480.000000 360.000000"
 preserveAspectRatio="xMidYMid meet">
<metadata>
Created by potrace 1.16, written by Peter Selinger 2001-2019
</metadata>
<rect width="1" height="360" fill="#000000"/>
<rect x="479" width="1" height="360" fill="#000000"/>
<rect width="480" height="1" fill="#000000"/>
<rect y="359" width="480" height="1" fill="#000000"/>
<g transform="translate(0.000000,360.000000) scale(0.100000,-0.100000)"
fill="#000000" stroke="none">
<path d="M0 1800 l0 -1800 874 0 875 0 7 23 c3 12 41 96 84 187 112 239 210
510 210 584 0 17 4 48 9 68 6 27 5 42 -6 58 -13 19 -13 26 1 60 l16 40 -36 15
c-20 8 -48 15 -61 15 -40 0 -91 29 -101 58 -19 50 -52 81 -81 76 -48 -10 -60
17 -54 129 6 96 6 98 44 141 70 80 292 217 369 227 20 3 30 17 52 72 38 96 60
122 128 154 32 15 57 33 55 39 -2 6 3 23 10 38 8 14 17 46 21 71 3 25 9 45 13
45 4 0 13 -21 20 -47 25 -88 47 -120 84 -127 50 -9 109 -66 150 -144 35 -66
39 -70 79 -76 77 -12 177 -47 212 -74 96 -73 196 -160 215 -188 19 -28 21 -39
15 -100 -7 -71 -26 -134 -42 -134 -4 0 -21 13 -37 30 l-28 29 -30 -57 c-16
-31 -41 -70 -56 -86 -33 -37 -96 -66 -141 -65 -19 0 -29 3 -22 6 7 3 -19 20
-57 38 -68 33 -71 33 -103 18 -18 -9 -48 -31 -67 -49 -18 -18 -51 -40 -71 -49
-35 -16 -38 -20 -30 -41 6 -15 6 -24 0 -24 -17 0 -11 -73 10 -133 23 -66 25
-100 6 -116 -7 -6 -16 -29 -20 -50 -3 -20 -15 -46 -25 -55 -11 -10 -23 -32
-26 -50 -3 -17 -11 -41 -17 -54 -25 -49 32 -247 115 -404 l51 -98 1093 0 1093
0 0 1800 0 1800 -599 0 -599 0 -7 -36 c-10 -56 -98 -256 -157 -358 -149 -258
-285 -398 -577 -593 -229 -152 -263 -178 -311 -231 -33 -37 -53 -71 -65 -113
-10 -33 -22 -62 -26 -64 -4 -3 -10 15 -13 39 -8 52 -62 168 -115 245 -21 31
-59 88 -83 126 -25 39 -62 97 -83 130 -285 447 -347 577 -384 810 l-6 40 -887
3 -888 2 0 -1800z"/>
<path d="M3143 1360 c-17 -10 -37 -29 -43 -40 -10 -19 -8 -26 22 -51 39 -33
44 -34 52 -13 11 29 19 124 10 124 -5 0 -23 -9 -41 -20z"/>
<path d="M1758 1288 c-4 -57 4 -88 21 -88 3 0 7 29 8 64 2 45 -1 67 -11 75
-12 10 -15 2 -18 -51z"/>
<path d="M1847 1214 c-6 -7 67 -111 92 -131 9 -7 27 -13 40 -13 35 0 91 22 91
36 0 7 2 18 5 26 7 17 -73 65 -122 73 -89 14 -100 15 -106 9z"/>
<path d="M2850 1206 c-25 -7 -61 -21 -80 -31 l-35 -18 75 -34 c58 -27 83 -33
109 -28 58 11 97 46 115 103 7 21 6 22 -66 21 -40 0 -93 -6 -118 -13z"/>
<path d="M2500 1093 c0 -66 12 -72 69 -33 28 19 51 38 51 42 0 9 -59 28 -91
28 -27 0 -29 -3 -29 -37z"/>
</g>
</svg>
