<?xml version="1.0" standalone="no"?>
<!DOCTYPE svg PUBLIC "-//W3C//DTD SVG 20010904//EN"
 "http://www.w3.org/TR/2001/REC-SVG-20010904/DTD/svg10.dtd">
<svg version="1.0" xmlns="http://www.w3.org/2000/svg"
 width="480.000000pt" height="360.000000pt" viewBox="0 0 480.000000 360.000000"
 preserveAspectRatio="xMidYMid meet">
<metadata>
Created by potrace 1.16, written by Peter Selinger 2001-2019
</metadata>
<rect width="1" height="360" fill="#000000"/>
<rect x="479" width="1" height="360" fill="#000000"/>
<rect width="480" height="1" fill="#000000"/>
<rect y="359" width="480" height="1" fill="#000000"/>
<g transform="translate(0.000000,360.000000) scale(0.100000,-0.100000)"
fill="#000000" stroke="none">
<path d="M0 1800 l0 -1800 2400 0 2400 0 0 1800 0 1800 -2400 0 -2400 0 0
-1800z m2235 931 c0 -8 15 -19 33 -23 28 -8 31 -11 22 -28 -6 -10 -15 -22 -20
-25 -24 -15 -9 -33 25 -32 28 1 41 8 60 33 61 79 177 79 295 0 36 -25 78 -50
93 -57 72 -33 -14 -40 -95 -8 -50 19 -53 20 -65 3 -7 -10 -13 -32 -13 -50 0
-31 3 -33 65 -54 35 -12 79 -35 96 -51 18 -17 45 -33 61 -36 15 -3 28 -9 28
-14 0 -5 11 -9 25 -9 14 0 25 -4 25 -10 0 -5 7 -10 15 -10 8 0 15 -4 15 -10 0
-5 -8 -10 -17 -10 -17 -1 -17 -1 0 -11 9 -5 17 -15 17 -20 0 -6 -5 -7 -11 -4
-6 4 -19 -2 -29 -13 -15 -16 -27 -19 -60 -15 -36 5 -40 4 -40 -16 0 -16 -5
-21 -17 -19 -10 1 -23 -1 -29 -4 -6 -4 -26 -3 -43 2 -37 10 -64 3 -57 -16 3
-7 10 -31 16 -53 6 -23 16 -41 23 -41 7 0 24 16 40 35 26 32 89 61 109 49 4
-3 8 -30 8 -60 0 -87 4 -91 117 -99 131 -8 143 -11 143 -36 0 -15 -5 -19 -17
-16 -88 24 -119 13 -36 -13 28 -8 40 -17 36 -26 -6 -17 6 -17 80 -4 223 42
370 26 385 -41 6 -26 59 -70 76 -63 9 3 16 1 16 -5 0 -6 7 -11 15 -11 8 0 15
-4 15 -10 0 -5 8 -10 18 -10 14 0 13 -4 -6 -19 -23 -16 -23 -19 -7 -34 13 -14
15 -23 7 -46 -7 -20 -7 -32 1 -40 8 -8 6 -11 -7 -11 -9 0 -15 -4 -11 -9 9 -15
-32 -23 -54 -12 -26 14 -42 14 -39 -1 2 -6 -14 -21 -34 -33 -29 -16 -35 -24
-26 -33 18 -18 -46 -7 -74 12 -39 27 -45 17 -8 -14 49 -42 23 -37 -33 6 -51
40 -69 45 -242 74 -139 22 -191 39 -255 80 -46 29 -120 42 -120 21 0 -6 7 -39
15 -76 11 -48 13 -71 5 -85 -14 -26 -46 -26 -62 0 -16 25 -24 25 -31 0 -6 -23
-34 -37 -47 -24 -5 5 -11 36 -13 69 -5 58 -6 60 -38 67 -19 4 -84 5 -144 1
-120 -6 -138 0 -133 48 3 22 -2 24 -47 30 -27 4 -129 12 -225 18 -96 6 -192
13 -213 15 -53 6 -36 -12 21 -20 26 -3 61 -12 77 -19 17 -7 47 -19 68 -25 39
-12 48 -27 22 -36 -18 -7 -149 27 -258 67 l-78 29 -28 -21 c-32 -24 -59 -17
-67 17 -6 25 -15 29 -96 39 -48 6 -88 39 -88 71 0 20 74 18 283 -6 95 -11 254
-26 352 -33 l178 -13 27 23 c15 12 48 64 73 114 41 81 45 93 33 113 -7 11 -21
50 -31 85 -11 36 -25 65 -34 68 -69 21 -88 59 -50 99 44 47 110 19 95 -41 -3
-13 -1 -27 5 -31 6 -3 17 -22 25 -41 14 -33 34 -37 34 -6 0 9 6 24 14 32 30
33 18 81 -19 81 -23 0 -60 42 -60 69 0 8 -7 15 -17 17 -9 1 -25 11 -37 23 -11
11 -37 29 -58 40 -76 39 -122 98 -97 124 3 3 24 -1 46 -9 l39 -14 -25 31 c-30
35 -34 73 -8 88 24 15 77 9 77 -8z"/>
<path d="M2687 2249 c7 -7 15 -10 18 -7 3 3 -2 9 -12 12 -14 6 -15 5 -6 -5z"/>
<path d="M2423 2108 c-4 -7 -20 -35 -34 -63 -15 -27 -39 -73 -54 -102 -31 -60
-26 -83 13 -57 51 32 118 92 131 116 11 22 9 30 -17 72 -22 34 -33 43 -39 34z"/>
<path d="M2790 2001 c0 -11 47 -30 80 -32 68 -4 72 3 10 22 -72 21 -90 23 -90
10z"/>
</g>
</svg>
