<?xml version="1.0" standalone="no"?>
<!DOCTYPE svg PUBLIC "-//W3C//DTD SVG 20010904//EN"
 "http://www.w3.org/TR/2001/REC-SVG-20010904/DTD/svg10.dtd">
<svg version="1.0" xmlns="http://www.w3.org/2000/svg"
 width="480.000000pt" height="360.000000pt" viewBox="0 0 480.000000 360.000000"
 preserveAspectRatio="xMidYMid meet">
<metadata>
Created by potrace 1.16, written by Peter Selinger 2001-2019
</metadata>
<rect width="1" height="360" fill="#000000"/>
<rect x="479" width="1" height="360" fill="#000000"/>
<rect width="480" height="1" fill="#000000"/>
<rect y="359" width="480" height="1" fill="#000000"/>
<g transform="translate(0.000000,360.000000) scale(0.100000,-0.100000)"
fill="#000000" stroke="none">
<path d="M0 2140 l0 -1460 23 0 c42 0 667 51 977 80 337 32 1131 123 1165 134
6 2 -10 9 -35 16 -25 8 -52 19 -60 26 -23 19 -69 28 -83 15 -10 -8 -38 -7
-103 4 -127 22 -132 23 -138 43 -5 14 -17 17 -66 15 -34 -1 -67 -6 -75 -13 -9
-7 -34 -9 -72 -4 l-59 6 -13 -56 c-8 -36 -18 -56 -27 -56 -8 0 -14 8 -14 19 0
10 -7 24 -15 31 -8 7 -12 16 -9 21 3 5 0 9 -5 9 -15 0 -14 36 1 63 6 12 11 35
10 50 -1 15 5 38 13 50 9 12 20 40 26 62 6 22 20 52 30 67 24 32 120 249 116
261 -1 4 -18 -4 -37 -18 -18 -14 -42 -25 -51 -25 -10 0 -23 -15 -32 -37 -20
-49 -22 -29 -2 27 17 49 19 74 5 65 -16 -10 -12 9 20 83 35 83 57 123 117 214
47 71 106 133 376 398 125 122 186 191 238 267 38 56 69 106 69 111 0 5 -46
47 -103 94 -106 87 -137 129 -137 185 0 54 28 124 85 214 50 78 56 93 47 117
-10 32 -2 70 26 109 14 21 21 52 25 123 4 52 9 106 13 120 3 16 -7 6 -28 -27
-18 -29 -36 -53 -40 -53 -5 0 -8 17 -8 37 l0 36 -23 -21 c-24 -22 -38 -28 -36
-14 4 22 -4 22 -35 -2 -46 -35 -50 -33 -26 14 25 49 25 53 0 45 -12 -4 -20 -2
-20 4 0 8 -176 10 -597 9 l-598 -3 -16 -73 c-27 -112 -58 -347 -65 -479 -9
-168 9 -270 106 -585 28 -89 50 -181 50 -205 0 -32 -15 -77 -55 -164 -65 -143
-80 -211 -72 -322 12 -161 60 -257 162 -325 24 -16 41 -32 38 -36 -4 -3 12
-14 35 -24 23 -9 42 -21 42 -26 0 -5 -34 -6 -77 -2 -196 18 -333 175 -386 441
-19 97 -20 114 -8 188 26 166 25 204 -7 292 -16 44 -55 140 -86 213 -68 156
-100 277 -115 426 -13 134 -14 350 -1 471 5 50 13 118 16 153 l7 62 -202 0
-201 0 0 -1460z"/>
<path d="M2780 3579 c0 -13 12 -42 25 -64 15 -23 25 -55 25 -77 0 -29 11 -52
52 -105 28 -37 52 -69 53 -71 1 -1 22 6 46 17 24 11 116 40 204 65 88 25 175
53 194 61 29 14 32 19 26 43 -4 15 -7 28 -8 28 -2 2 -552 115 -589 122 -24 4
-28 1 -28 -19z"/>
<path d="M3600 3590 c0 -5 8 -10 19 -10 10 0 24 -6 30 -14 7 -8 21 -12 32 -9
11 3 27 -1 37 -9 16 -14 132 -35 392 -73 119 -17 663 -85 679 -85 7 0 11 37
11 105 l0 105 -600 0 c-393 0 -600 -3 -600 -10z"/>
<path d="M3646 3369 c-21 -28 -55 -62 -76 -75 -46 -30 -228 -112 -419 -189
-135 -54 -146 -57 -217 -54 l-74 4 -42 -42 c-38 -38 -40 -43 -25 -58 13 -13
16 -36 14 -125 l-2 -109 31 -33 c38 -39 52 -77 33 -88 -21 -14 33 -124 116
-235 81 -108 135 -207 116 -213 -6 -2 -11 -10 -11 -19 0 -12 -9 -14 -51 -8
l-52 7 6 -33 c20 -106 28 -281 21 -449 -3 -102 -10 -194 -14 -205 -4 -12 -23
-37 -41 -56 -19 -20 -42 -48 -52 -62 -20 -30 -43 -34 -74 -12 -27 19 -27 22
-49 -163 -13 -109 -14 -146 -5 -151 13 -9 72 5 491 111 637 162 793 205 1245
342 66 21 157 48 203 62 l82 25 0 812 0 813 -407 97 c-355 85 -683 158 -702
157 -3 -1 -23 -23 -45 -51z"/>
<path d="M2274 2967 c-46 -52 -46 -51 -6 -90 l37 -36 -2 70 c-1 39 -3 73 -6
75 -2 2 -12 -6 -23 -19z"/>
</g>
</svg>
