<?xml version="1.0" standalone="no"?>
<!DOCTYPE svg PUBLIC "-//W3C//DTD SVG 20010904//EN"
 "http://www.w3.org/TR/2001/REC-SVG-20010904/DTD/svg10.dtd">
<svg version="1.0" xmlns="http://www.w3.org/2000/svg"
 width="480.000000pt" height="360.000000pt" viewBox="0 0 480.000000 360.000000"
 preserveAspectRatio="xMidYMid meet">
<metadata>
Created by potrace 1.16, written by Peter Selinger 2001-2019
</metadata>
<rect width="1" height="360" fill="#000000"/>
<rect x="479" width="1" height="360" fill="#000000"/>
<rect width="480" height="1" fill="#000000"/>
<rect y="359" width="480" height="1" fill="#000000"/>
<g transform="translate(0.000000,360.000000) scale(0.100000,-0.100000)"
fill="#000000" stroke="none">
<path d="M0 1800 l0 -1800 303 0 304 0 95 128 c63 83 97 138 100 160 4 27 2
31 -13 27 -14 -5 -20 3 -29 37 -6 24 -14 51 -16 61 -3 9 2 38 12 62 14 38 15
56 6 113 -5 37 -13 76 -16 87 -5 15 -1 23 16 30 21 9 23 16 23 81 0 53 4 77
17 90 15 17 15 23 2 52 -13 31 -34 36 -34 9 0 -18 -39 -88 -63 -114 -27 -30
-48 -29 -87 3 -34 29 -60 82 -60 124 0 23 8 33 42 52 47 26 68 59 75 122 3 22
11 55 19 71 24 52 124 544 124 613 0 9 -7 8 -25 -4 -21 -14 -30 -14 -55 -4
-34 14 -35 17 -17 39 17 20 57 168 57 209 0 22 -12 42 -47 79 -118 119 -179
363 -139 550 26 122 103 215 285 346 200 144 283 184 446 216 33 7 83 20 110
29 28 8 79 21 115 27 36 6 64 16 63 22 -1 6 -5 49 -9 95 l-7 83 38 -35 c20
-19 64 -68 97 -108 33 -40 84 -88 116 -108 127 -82 228 -209 274 -345 31 -92
64 -138 117 -161 64 -27 147 -33 200 -14 47 17 55 15 89 -26 13 -15 32 -28 43
-28 10 0 19 -4 19 -9 0 -27 -63 -188 -80 -205 -19 -20 -19 -20 -57 7 -31 22
-40 25 -51 13 -11 -10 -11 -22 -1 -60 6 -25 15 -49 20 -52 15 -9 10 -24 -6
-18 -11 5 -15 -2 -15 -27 0 -19 -7 -45 -15 -59 -8 -14 -17 -32 -21 -40 -4 -8
-13 -19 -21 -23 -7 -4 -13 -24 -13 -44 0 -27 -3 -34 -15 -29 -9 3 -15 0 -15
-9 0 -25 -17 -17 -24 10 -8 33 -18 26 -56 -39 -27 -49 -30 -60 -24 -113 3 -32
10 -68 16 -80 8 -16 8 -30 1 -46 -9 -20 -6 -33 18 -77 16 -29 29 -55 29 -58 0
-2 -16 10 -35 27 -20 17 -40 31 -45 31 -4 0 -16 -24 -26 -52 -26 -83 -72 -166
-99 -184 -20 -13 -45 -16 -130 -12 l-105 4 0 -43 c0 -53 5 -55 144 -78 55 -9
138 -30 185 -46 47 -17 115 -41 150 -53 83 -30 136 -88 71 -78 -16 2 -37 1
-46 -2 -13 -5 -12 -11 11 -38 14 -17 40 -58 56 -90 26 -52 33 -59 52 -54 12 4
58 13 102 21 44 8 104 19 134 24 101 20 298 12 471 -18 148 -27 387 -113 485
-176 28 -17 72 -44 98 -58 26 -15 92 -63 145 -106 162 -131 300 -297 408 -492
56 -102 64 -123 53 -134 -8 -7 -61 -34 -119 -59 l-105 -45 343 -1 342 0 0
1800 0 1800 -2400 0 -2400 0 0 -1800z m4238 1021 c3 -8 -1 -12 -9 -9 -7 2 -15
10 -17 17 -3 8 1 12 9 9 7 -2 15 -10 17 -17z m-4118 -476 c0 -8 -4 -15 -10
-15 -5 0 -7 7 -4 15 4 8 8 15 10 15 2 0 4 -7 4 -15z m3081 -96 c10 -21 19 -53
19 -71 l-1 -33 -27 31 c-15 17 -47 44 -72 60 -65 42 -78 64 -37 64 12 0 28 4
36 9 21 13 58 -15 82 -60z m-3090 -208 c-9 -72 -29 -111 -58 -111 -28 0 -9 90
33 153 14 21 27 37 30 35 2 -3 0 -37 -5 -77z m4309 -221 c0 -5 -4 -10 -10 -10
-5 0 -10 5 -10 10 0 6 5 10 10 10 6 0 10 -4 10 -10z"/>
<path d="M1390 1454 c-15 -39 -12 -44 20 -33 32 12 38 27 18 47 -18 18 -27 15
-38 -14z"/>
<path d="M888 1263 c0 -4 -2 -20 -2 -34 -2 -25 -1 -26 21 -12 13 9 23 19 23
24 0 11 -40 32 -42 22z"/>
</g>
</svg>
