<?xml version="1.0" standalone="no"?>
<!DOCTYPE svg PUBLIC "-//W3C//DTD SVG 20010904//EN"
 "http://www.w3.org/TR/2001/REC-SVG-20010904/DTD/svg10.dtd">
<svg version="1.0" xmlns="http://www.w3.org/2000/svg"
 width="480.000000pt" height="360.000000pt" viewBox="0 0 480.000000 360.000000"
 preserveAspectRatio="xMidYMid meet">
<metadata>
Created by potrace 1.16, written by Peter Selinger 2001-2019
</metadata>
<rect width="1" height="360" fill="#000000"/>
<rect x="479" width="1" height="360" fill="#000000"/>
<rect width="480" height="1" fill="#000000"/>
<rect y="359" width="480" height="1" fill="#000000"/>
<g transform="translate(0.000000,360.000000) scale(0.100000,-0.100000)"
fill="#000000" stroke="none">
<path d="M0 1800 l0 -1800 680 0 680 0 0 23 c0 12 13 56 29 97 16 41 57 163
92 270 72 227 131 384 183 491 39 81 80 247 77 312 -1 20 6 61 14 91 16 53 16
54 -10 91 -14 21 -25 50 -25 64 0 54 124 280 199 363 l44 49 -17 167 c-26 256
-20 236 -83 290 l-55 47 4 82 c2 70 1 82 -12 78 -25 -8 -189 -10 -196 -2 -14
13 19 36 81 57 61 20 65 23 71 58 10 53 38 114 63 136 26 24 27 38 0 62 -29
26 -159 222 -159 240 0 7 2 14 5 14 2 0 57 -36 122 -79 70 -48 122 -76 128
-71 21 17 250 59 536 97 56 8 57 9 146 108 86 97 130 132 145 117 10 -10 -37
-298 -56 -342 -5 -13 4 -15 68 -12 62 3 246 -18 295 -34 24 -8 -4 -27 -99 -69
-78 -34 -88 -41 -74 -52 14 -10 15 -15 4 -28 -7 -8 -17 -15 -22 -15 -6 0 -41
-9 -79 -21 l-68 -21 24 -48 c44 -87 65 -153 120 -371 54 -212 113 -396 156
-481 22 -44 58 -91 125 -163 42 -46 130 -163 163 -218 24 -39 22 -59 -3 -38
-8 7 -26 11 -40 9 l-26 -3 65 -127 c36 -69 65 -131 65 -138 0 -6 16 -39 35
-72 25 -43 31 -59 19 -54 -14 5 -15 1 -10 -26 3 -18 8 -87 11 -153 5 -118 5
-119 -12 -88 -23 44 -33 41 -33 -9 l0 -42 -29 34 -28 35 -8 -34 c-5 -25 -10
-30 -16 -20 -6 9 -9 -6 -9 -43 0 -31 -4 -60 -10 -63 -6 -3 -10 4 -10 18 0 14
-7 30 -15 37 -13 10 -15 9 -15 -8 0 -12 -4 -24 -10 -27 -5 -3 -10 -1 -10 4 0
6 -5 11 -10 11 -7 0 -8 -14 -4 -37 6 -34 5 -37 -9 -25 -19 16 -22 11 -38 -68
-7 -36 -18 -78 -25 -95 -11 -26 -9 -33 9 -60 l21 -30 -26 23 -25 22 -18 -20
c-34 -38 -89 -24 -157 38 -15 14 -30 23 -32 21 -3 -3 19 -53 49 -112 29 -59
64 -137 77 -172 l23 -65 877 0 878 0 0 1800 0 1800 -2400 0 -2400 0 0 -1800z"/>
<path d="M2101 1990 c-1 -61 8 -80 40 -80 26 0 29 4 29 31 0 34 -16 69 -31 69
-6 0 -7 -5 -4 -10 4 -6 4 -19 0 -28 -6 -13 -10 -10 -20 18 l-13 35 -1 -35z"/>
<path d="M1921 932 c-19 -59 -36 -115 -38 -124 -5 -15 2 -18 38 -18 70 0 74 7
61 89 -7 38 -12 85 -12 103 0 72 -17 56 -49 -50z"/>
<path d="M1696 436 c-31 -57 -56 -110 -56 -119 0 -9 16 -24 36 -33 36 -17 37
-17 56 7 25 32 98 139 98 145 0 6 -71 104 -75 104 -2 0 -29 -47 -59 -104z"/>
</g>
</svg>
