<?xml version="1.0" standalone="no"?>
<!DOCTYPE svg PUBLIC "-//W3C//DTD SVG 20010904//EN"
 "http://www.w3.org/TR/2001/REC-SVG-20010904/DTD/svg10.dtd">
<svg version="1.0" xmlns="http://www.w3.org/2000/svg"
 width="480.000000pt" height="360.000000pt" viewBox="0 0 480.000000 360.000000"
 preserveAspectRatio="xMidYMid meet">
<metadata>
Created by potrace 1.16, written by Peter Selinger 2001-2019
</metadata>
<rect width="1" height="360" fill="#000000"/>
<rect x="479" width="1" height="360" fill="#000000"/>
<rect width="480" height="1" fill="#000000"/>
<rect y="359" width="480" height="1" fill="#000000"/>
<g transform="translate(0.000000,360.000000) scale(0.100000,-0.100000)"
fill="#000000" stroke="none">
<path d="M0 1800 l0 -1800 1003 0 1004 0 11 134 c7 74 21 183 33 242 17 94 18
118 8 173 -7 40 -10 106 -6 175 5 84 2 124 -9 163 -9 32 -12 59 -7 70 12 26 0
370 -13 383 -8 8 -25 -7 -60 -54 -54 -71 -114 -116 -154 -116 -14 0 -86 13
-160 29 -74 16 -180 32 -235 36 -94 6 -102 8 -127 36 -15 16 -33 29 -41 29 -8
0 -17 7 -20 15 -5 12 -12 12 -38 3 -24 -8 -61 -8 -143 1 -61 7 -158 15 -215
19 -108 7 -138 22 -86 42 22 8 24 13 15 29 -14 28 3 35 39 16 45 -23 63 -20
55 10 -8 32 6 32 56 -1 41 -27 60 -25 60 7 0 13 -7 19 -21 19 -28 0 -59 18
-59 35 0 19 55 32 165 39 80 5 96 3 145 -19 l55 -24 20 25 c18 23 23 24 49 14
20 -7 32 -8 40 0 16 16 40 12 123 -21 91 -36 283 -83 293 -72 4 4 29 55 55
113 26 57 54 114 62 126 8 13 11 32 7 48 -11 46 5 77 84 152 l77 73 -2 56 c-3
55 -2 56 50 109 28 29 64 61 80 72 19 13 29 31 34 58 l6 38 -31 -16 c-17 -9
-40 -16 -52 -16 -22 0 -120 89 -120 108 0 7 -13 18 -30 27 -35 18 -37 28 -10
63 21 25 21 26 2 45 -11 11 -39 21 -64 24 -36 4 -48 11 -62 34 -10 16 -22 27
-27 24 -5 -4 -9 6 -9 22 0 15 -4 34 -9 42 -7 11 -11 10 -20 -5 -9 -17 -10 -17
-11 -2 0 25 77 258 95 285 8 12 42 41 76 63 45 31 59 46 54 58 -4 10 -9 38
-12 65 -4 36 -3 47 8 48 8 0 34 2 59 4 25 2 51 -1 57 -7 23 -18 39 -1 51 53 7
30 24 79 38 109 l26 55 21 -27 20 -27 44 46 43 47 31 -30 c37 -35 122 -167
149 -230 11 -25 20 -66 20 -91 0 -41 4 -50 39 -79 111 -96 177 -308 225 -731
14 -117 23 -151 82 -315 75 -208 119 -372 129 -488 6 -70 5 -80 -9 -80 -11 0
-16 -9 -16 -30 0 -17 -7 -46 -15 -66 -10 -25 -12 -42 -5 -60 15 -39 12 -89
-10 -144 -11 -28 -20 -60 -20 -71 0 -11 -18 -68 -39 -127 -22 -59 -47 -149
-55 -201 -10 -60 -23 -102 -34 -115 -16 -17 -21 -51 -31 -191 -12 -186 -14
-298 -5 -332 l6 -23 994 0 994 0 0 1800 0 1800 -2400 0 -2400 0 0 -1800z"/>
<path d="M996 1445 c4 -9 11 -14 16 -13 15 5 11 23 -6 26 -11 2 -14 -2 -10
-13z"/>
<path d="M2083 1135 c0 -27 2 -38 4 -22 2 15 2 37 0 50 -2 12 -4 0 -4 -28z"/>
</g>
</svg>
