<?xml version="1.0" standalone="no"?>
<!DOCTYPE svg PUBLIC "-//W3C//DTD SVG 20010904//EN"
 "http://www.w3.org/TR/2001/REC-SVG-20010904/DTD/svg10.dtd">
<svg version="1.0" xmlns="http://www.w3.org/2000/svg"
 width="480.000000pt" height="360.000000pt" viewBox="0 0 480.000000 360.000000"
 preserveAspectRatio="xMidYMid meet">
<metadata>
Created by potrace 1.16, written by Peter Selinger 2001-2019
</metadata>
<rect width="1" height="360" fill="#000000"/>
<rect x="479" width="1" height="360" fill="#000000"/>
<rect width="480" height="1" fill="#000000"/>
<rect y="359" width="480" height="1" fill="#000000"/>
<g transform="translate(0.000000,360.000000) scale(0.100000,-0.100000)"
fill="#000000" stroke="none">
<path d="M0 1800 l0 -1800 873 0 872 0 37 148 c63 247 98 363 134 447 74 167
96 251 74 285 -13 20 -15 15 -38 -75 l-20 -80 -2 75 c-1 54 -4 68 -10 50 -7
-22 -8 -20 -9 16 -1 22 -8 49 -16 60 -13 18 -14 16 -15 -24 0 -39 -1 -41 -19
-30 -11 7 -27 30 -37 53 -9 22 -27 63 -39 90 -13 28 -26 71 -30 98 -5 42 -11
49 -43 66 -67 34 -226 89 -307 106 -87 19 -125 37 -125 61 0 8 -13 20 -30 25
-24 9 -29 15 -24 33 5 22 3 23 -88 29 -117 8 -219 35 -299 79 -79 43 -89 58
-60 87 l22 22 34 -25 c41 -31 45 -32 38 -5 -5 19 -3 21 23 15 16 -3 54 -2 84
2 76 10 76 27 0 99 -34 32 -66 66 -72 77 -26 49 -56 341 -39 374 16 30 26 28
51 -13 12 -19 27 -35 34 -35 17 0 36 43 37 83 2 57 13 82 35 79 13 -2 34 13
62 43 22 25 45 45 50 45 5 0 17 -9 27 -20 23 -26 45 -26 45 1 0 16 5 20 27 17
23 -3 29 -10 41 -53 29 -105 45 -151 62 -170 25 -28 50 -93 44 -110 -7 -18 0
-19 25 -3 68 42 65 -81 -3 -125 -13 -9 -31 -29 -38 -44 -8 -15 -20 -37 -26
-48 -6 -11 -18 -37 -26 -57 -12 -29 -21 -38 -39 -38 -43 0 -98 -76 -78 -108 3
-5 24 -19 47 -30 l41 -21 20 21 c16 16 25 18 40 9 11 -5 36 -8 56 -4 30 4 48
-2 106 -35 99 -57 109 -59 117 -25 17 72 65 169 140 284 98 151 139 230 147
284 61 443 91 591 141 714 32 78 80 155 114 182 l26 20 -51 -7 c-66 -8 -99 0
-119 31 -14 22 -14 29 0 85 19 74 106 247 141 280 24 22 24 22 67 5 24 -10 59
-19 79 -20 46 -3 98 -37 191 -123 72 -66 76 -69 137 -75 53 -6 75 -3 131 17
59 22 142 32 219 27 22 -1 23 -4 18 -48 -3 -27 -22 -105 -41 -175 l-35 -127
24 -56 c45 -101 30 -208 -44 -311 -22 -31 -41 -63 -41 -70 0 -7 -4 -15 -8 -18
-4 -2 -6 10 -4 29 6 51 -13 50 -44 -2 -23 -39 -28 -44 -34 -28 -5 16 -10 13
-29 -18 -18 -30 -23 -57 -28 -149 -6 -103 -5 -112 10 -100 10 9 27 11 47 7 27
-6 30 -11 30 -42 0 -30 9 -46 58 -97 101 -107 222 -296 222 -349 0 -12 -9 -36
-19 -53 -17 -28 -18 -41 -10 -100 4 -38 8 -90 9 -116 0 -26 4 -50 10 -53 21
-13 183 -35 303 -42 101 -5 131 -10 140 -22 7 -9 30 -22 51 -28 35 -11 44 -10
73 8 18 11 33 27 33 34 0 19 35 28 59 16 28 -15 61 -14 67 3 3 8 -2 29 -11 46
-9 18 -14 34 -11 38 12 12 53 -18 69 -49 l16 -33 6 26 c5 18 1 35 -9 50 -22
31 -21 52 2 43 9 -4 26 -8 37 -10 11 -1 30 -16 43 -35 24 -36 28 -82 11 -127
-14 -38 -77 -101 -118 -119 -49 -21 -156 -44 -202 -44 -36 0 -41 -3 -55 -35
-12 -31 -18 -34 -40 -29 -17 4 -31 1 -44 -11 -12 -11 -28 -15 -42 -12 -13 3
-75 19 -138 35 -63 16 -162 35 -220 42 -144 16 -145 16 -184 50 -38 34 -64 89
-100 211 -19 65 -25 78 -29 59 -3 -14 -18 -77 -32 -140 -28 -125 -25 -160 18
-203 17 -17 18 -28 12 -116 -7 -107 -1 -126 95 -340 48 -106 167 -439 195
-543 l18 -68 853 0 854 0 0 1800 0 1800 -2400 0 -2400 0 0 -1800z"/>
<path d="M2651 2204 c0 -11 3 -14 6 -6 3 7 2 16 -1 19 -3 4 -6 -2 -5 -13z"/>
<path d="M1746 1518 c-15 -38 -25 -72 -22 -75 9 -9 26 8 26 26 0 10 7 39 16
65 25 74 11 63 -20 -16z"/>
<path d="M1706 1536 c-28 -47 -51 -70 -39 -39 6 16 5 16 -10 4 -22 -17 -21
-27 1 -34 9 -2 24 -8 33 -11 12 -5 19 6 33 55 9 34 15 63 13 66 -3 2 -16 -16
-31 -41z"/>
</g>
</svg>
