<?xml version="1.0" standalone="no"?>
<!DOCTYPE svg PUBLIC "-//W3C//DTD SVG 20010904//EN"
 "http://www.w3.org/TR/2001/REC-SVG-20010904/DTD/svg10.dtd">
<svg version="1.0" xmlns="http://www.w3.org/2000/svg"
 width="480.000000pt" height="360.000000pt" viewBox="0 0 480.000000 360.000000"
 preserveAspectRatio="xMidYMid meet">
<metadata>
Created by potrace 1.16, written by Peter Selinger 2001-2019
</metadata>
<rect width="1" height="360" fill="#000000"/>
<rect x="479" width="1" height="360" fill="#000000"/>
<rect width="480" height="1" fill="#000000"/>
<rect y="359" width="480" height="1" fill="#000000"/>
<g transform="translate(0.000000,360.000000) scale(0.100000,-0.100000)"
fill="#000000" stroke="none">
<path d="M0 1800 l0 -1800 969 0 969 0 7 32 c4 18 29 102 56 185 37 112 47
157 40 170 -17 33 -24 109 -11 133 9 17 9 25 -4 39 -14 15 -12 26 15 111 29
93 83 290 99 360 4 19 11 70 15 113 6 67 10 80 31 94 24 15 36 62 12 47 -8 -5
-9 0 -4 17 9 28 9 19 -4 127 -9 75 -8 87 10 120 11 20 20 40 20 45 0 12 -32
-8 -73 -47 -31 -29 -42 -34 -57 -26 -20 11 -43 67 -34 82 12 19 75 39 152 48
64 8 80 14 98 36 17 21 32 27 81 31 51 5 63 3 79 -14 22 -24 64 -38 153 -52
35 -6 74 -17 86 -25 21 -14 22 -19 13 -56 -11 -44 -29 -51 -60 -23 -17 15 -20
15 -34 1 -12 -11 -13 -21 -7 -34 6 -11 15 -51 22 -90 10 -57 18 -77 42 -100
34 -33 40 -61 10 -44 -29 15 -30 13 -16 -27 9 -25 11 -69 8 -133 -6 -104 2
-135 100 -433 41 -125 41 -129 23 -143 -16 -11 -19 -25 -17 -83 2 -47 -3 -79
-13 -99 -15 -28 -13 -36 23 -143 21 -63 44 -138 50 -166 l13 -53 969 0 969 0
0 1800 0 1800 -2400 0 -2400 0 0 -1800z"/>
</g>
</svg>
