<?xml version="1.0" standalone="no"?>
<!DOCTYPE svg PUBLIC "-//W3C//DTD SVG 20010904//EN"
 "http://www.w3.org/TR/2001/REC-SVG-20010904/DTD/svg10.dtd">
<svg version="1.0" xmlns="http://www.w3.org/2000/svg"
 width="480.000000pt" height="360.000000pt" viewBox="0 0 480.000000 360.000000"
 preserveAspectRatio="xMidYMid meet">
<metadata>
Created by potrace 1.16, written by Peter Selinger 2001-2019
</metadata>
<rect width="1" height="360" fill="#000000"/>
<rect x="479" width="1" height="360" fill="#000000"/>
<rect width="480" height="1" fill="#000000"/>
<rect y="359" width="480" height="1" fill="#000000"/>
<g transform="translate(0.000000,360.000000) scale(0.100000,-0.100000)"
fill="#000000" stroke="none">
<path d="M0 2740 c0 -526 4 -860 9 -860 5 0 72 11 148 25 297 55 517 126 804
261 87 41 165 74 174 74 15 0 73 -51 342 -303 51 -48 144 -142 206 -210 223
-242 286 -296 396 -338 69 -26 198 -49 271 -49 l55 0 24 63 c13 34 46 107 74
161 69 136 132 199 269 266 57 27 108 50 114 50 23 0 47 39 40 65 -8 32 -17
32 -39 -2 l-18 -28 5 48 c3 26 4 47 3 47 -15 0 -87 -43 -87 -52 0 -12 -15 -2
-15 10 -2 28 -18 62 -29 62 -7 0 -20 -10 -29 -22 -20 -30 -31 -18 -16 16 10
22 10 29 -3 42 -13 13 -19 10 -52 -27 -20 -23 -39 -40 -41 -37 -3 3 6 31 20
62 30 68 24 87 -34 105 -23 6 -41 14 -41 17 0 3 11 24 25 48 22 38 23 44 10
63 -12 18 -67 53 -82 53 -2 0 5 -12 14 -27 20 -31 7 -26 -36 11 l-23 21 6 -22
c6 -19 4 -22 -11 -16 -10 3 -26 15 -35 27 -11 13 -18 16 -18 7 0 -7 -13 1 -30
19 -21 22 -31 46 -36 81 -4 27 -10 49 -13 49 -4 0 -15 -16 -25 -36 -20 -43
-29 -41 -17 4 12 39 2 41 -47 7 -57 -39 -98 -33 -163 25 -40 36 -41 61 -3 71
33 9 264 213 264 232 -1 7 -7 39 -15 72 -30 123 -16 184 42 185 15 0 30 16 54
58 66 118 223 235 396 294 85 30 92 30 218 25 82 -3 158 -13 207 -26 43 -11
91 -18 110 -15 31 5 39 -1 153 -118 151 -155 186 -218 193 -342 3 -62 -1 -103
-17 -166 l-21 -84 20 -41 c31 -64 112 -158 155 -181 45 -23 56 -55 29 -85 -22
-24 -38 -24 -55 0 -10 13 -32 21 -72 26 -57 6 -58 6 -48 -14 6 -11 16 -23 21
-26 18 -11 10 -26 -10 -20 -25 8 -25 4 0 -45 28 -56 25 -65 -14 -41 -18 12
-44 21 -56 21 l-23 0 23 -25 c21 -22 22 -29 12 -46 -7 -11 -10 -24 -7 -29 12
-19 -14 -10 -43 15 l-30 25 -6 -23 c-3 -12 -1 -46 6 -75 6 -28 8 -55 4 -59 -3
-4 -23 10 -44 30 -34 33 -40 36 -56 24 -14 -10 -17 -21 -12 -40 5 -21 3 -25
-8 -21 -13 5 -14 0 -6 -28 14 -47 13 -47 -20 -8 -25 30 -28 32 -23 11 5 -21 4
-22 -14 -12 -11 6 -34 27 -51 48 l-30 38 5 -47 c4 -31 0 -61 -11 -87 -19 -48
-20 -47 101 -86 125 -39 163 -69 206 -159 20 -42 41 -94 47 -114 6 -20 23 -59
38 -87 l27 -50 120 1 c72 1 154 8 205 19 57 12 138 18 245 20 223 2 300 29
455 159 l70 59 0 933 0 934 -2400 0 -2400 0 0 -860z"/>
<path d="M3254 2077 c7 -55 14 -73 27 -60 5 5 0 30 -12 58 l-20 50 5 -48z"/>
<path d="M1075 2063 c-16 -8 -60 -33 -98 -55 -65 -38 -67 -40 -52 -61 8 -12
15 -32 15 -44 0 -13 6 -23 15 -23 8 0 42 -37 77 -82 l63 -83 -3 -324 c-1 -178
-6 -330 -10 -337 -12 -21 -40 14 -94 116 -25 47 -89 166 -143 265 l-97 180 12
100 c10 82 17 105 36 126 24 25 24 26 6 42 -18 16 -22 16 -83 -12 -85 -38
-196 -75 -291 -96 -81 -18 -97 -33 -54 -53 13 -6 50 -43 83 -83 l58 -72 11
-186 c15 -273 13 -426 -6 -426 -8 0 -90 109 -183 245 l-167 245 4 102 c3 79 8
108 23 130 15 22 17 33 9 50 -13 28 -36 32 -129 20 l-77 -9 0 -869 0 -869
1163 0 1163 0 19 118 c10 64 22 130 26 145 6 20 4 36 -6 50 -12 20 -120 305
-205 546 l-34 94 24 95 c15 57 33 106 47 123 20 23 22 31 12 52 -13 30 -35 39
-143 67 -81 20 -116 25 -116 14 0 -3 17 -38 37 -76 l36 -70 -27 -296 c-27
-287 -37 -367 -50 -380 -13 -12 -34 25 -74 128 -22 58 -75 192 -116 298 -42
106 -76 202 -76 215 0 51 38 179 61 203 16 17 23 38 25 72 2 44 -3 53 -66 137
-63 82 -170 198 -170 183 0 -4 16 -34 37 -68 l36 -61 -17 -312 c-18 -326 -22
-367 -37 -367 -14 0 -33 35 -114 215 -43 94 -99 217 -126 274 -27 57 -49 115
-49 130 1 64 31 196 50 216 11 12 20 35 20 52 0 17 5 33 11 35 8 3 -175 196
-225 238 -7 5 -23 2 -41 -7z"/>
<path d="M4782 1568 c-11 -14 -5 -65 9 -74 5 -3 9 15 9 40 0 49 -2 53 -18 34z"/>
<path d="M4565 1459 c-133 -22 -195 -41 -206 -61 -11 -20 0 -37 31 -50 4 -2
26 -40 49 -84 l42 -82 -45 -287 c-24 -158 -49 -292 -56 -299 -17 -17 -25 1
-132 301 l-97 272 29 86 c15 48 37 93 47 100 31 23 9 27 -91 16 -52 -6 -136
-11 -185 -11 -82 0 -90 -2 -84 -17 3 -10 14 -27 23 -38 35 -40 90 -164 90
-202 0 -57 -68 -540 -78 -559 -8 -15 -11 -14 -25 7 -9 13 -55 132 -103 264
-85 235 -113 297 -101 225 3 -19 11 -107 17 -195 6 -88 18 -212 27 -275 13
-92 15 -157 9 -327 -3 -116 -9 -219 -12 -227 -6 -14 49 -16 540 -16 l546 0 0
350 c0 288 -3 355 -14 373 -8 12 -58 144 -111 294 l-97 272 30 90 c17 54 25
91 18 90 -6 -1 -33 -5 -61 -10z"/>
<path d="M3691 1340 c-21 -18 -22 -23 -11 -50 7 -17 14 -30 17 -30 15 0 49 56
45 77 -5 28 -19 29 -51 3z"/>
<path d="M2373 1167 l40 -40 29 32 c38 42 36 51 -11 40 -21 -5 -51 -5 -69 0
l-30 9 41 -41z"/>
<path d="M2432 1067 c13 -23 28 -55 34 -72 10 -29 11 -28 18 29 3 33 3 63 -1
66 -4 4 -23 10 -41 13 l-32 7 22 -43z"/>
<path d="M2432 625 c-7 -71 -15 -148 -18 -170 -4 -34 -3 -36 6 -17 12 27 33
246 28 288 -2 16 -9 -29 -16 -101z"/>
</g>
</svg>
