<?xml version="1.0" standalone="no"?>
<!DOCTYPE svg PUBLIC "-//W3C//DTD SVG 20010904//EN"
 "http://www.w3.org/TR/2001/REC-SVG-20010904/DTD/svg10.dtd">
<svg version="1.0" xmlns="http://www.w3.org/2000/svg"
 width="480.000000pt" height="360.000000pt" viewBox="0 0 480.000000 360.000000"
 preserveAspectRatio="xMidYMid meet">
<metadata>
Created by potrace 1.16, written by Peter Selinger 2001-2019
</metadata>
<rect width="1" height="360" fill="#000000"/>
<rect x="479" width="1" height="360" fill="#000000"/>
<rect width="480" height="1" fill="#000000"/>
<rect y="359" width="480" height="1" fill="#000000"/>
<g transform="translate(0.000000,360.000000) scale(0.100000,-0.100000)"
fill="#000000" stroke="none">
<path d="M2002 3041 c-29 -10 -62 -27 -74 -37 -25 -23 -48 -74 -48 -108 0 -15
-8 -30 -21 -36 -35 -19 -51 -74 -43 -149 9 -90 17 -106 82 -176 66 -70 87 -82
102 -57 8 14 11 15 19 3 6 -10 3 -23 -11 -42 -24 -33 -48 -126 -48 -193 0 -42
4 -52 34 -80 18 -17 39 -47 46 -67 11 -32 10 -44 -15 -120 -16 -46 -36 -102
-45 -125 -11 -24 -14 -46 -10 -55 5 -8 4 -37 -1 -66 -8 -42 -7 -59 6 -83 19
-36 58 -55 84 -40 41 21 36 74 -6 64 -23 -6 -25 -5 -17 17 4 13 8 33 8 44 1
11 10 22 20 25 12 4 23 19 29 40 23 93 28 110 36 110 18 0 20 -33 4 -68 -11
-27 -19 -97 -28 -257 -13 -231 -24 -283 -65 -312 -25 -18 -90 -144 -90 -174 0
-13 8 -31 17 -41 11 -13 16 -32 14 -58 -3 -47 23 -142 43 -159 11 -9 24 -9 58
0 44 13 54 16 75 18 6 0 14 14 18 30 8 38 21 48 80 61 98 22 112 9 181 -172
29 -77 35 -105 37 -189 3 -88 6 -102 27 -124 55 -59 160 -4 160 84 0 35 -29
147 -70 273 -17 54 -29 102 -25 108 3 5 26 10 50 10 58 0 81 -28 89 -113 4
-34 14 -93 22 -132 8 -38 17 -80 20 -92 2 -12 16 -35 30 -52 29 -35 66 -40
102 -15 29 20 28 57 -4 141 -24 65 -54 193 -54 234 0 10 5 19 11 19 6 0 25 6
42 14 41 18 205 56 241 56 16 0 44 13 67 32 48 39 50 67 9 122 -24 32 -29 46
-24 72 6 32 0 39 -112 154 -109 110 -122 120 -156 120 -33 0 -43 7 -104 77
-37 43 -100 128 -140 189 -39 61 -86 127 -103 147 l-32 36 38 20 c76 39 123
112 123 194 0 24 -5 48 -12 55 -9 9 -7 17 10 35 22 23 28 60 16 92 -4 9 -28
27 -54 40 -31 16 -50 32 -54 48 -6 26 -58 57 -94 57 -11 0 -41 25 -72 61 l-53
61 11 44 c17 64 15 169 -4 207 -24 47 -73 95 -105 102 -16 4 -38 20 -50 37
-42 58 -119 72 -217 39z"/>
</g>
</svg>
