<?xml version="1.0" standalone="no"?>
<!DOCTYPE svg PUBLIC "-//W3C//DTD SVG 20010904//EN"
 "http://www.w3.org/TR/2001/REC-SVG-20010904/DTD/svg10.dtd">
<svg version="1.0" xmlns="http://www.w3.org/2000/svg"
 width="480.000000pt" height="360.000000pt" viewBox="0 0 480.000000 360.000000"
 preserveAspectRatio="xMidYMid meet">
<metadata>
Created by potrace 1.16, written by Peter Selinger 2001-2019
</metadata>
<rect width="1" height="360" fill="#000000"/>
<rect x="479" width="1" height="360" fill="#000000"/>
<rect width="480" height="1" fill="#000000"/>
<rect y="359" width="480" height="1" fill="#000000"/>
<g transform="translate(0.000000,360.000000) scale(0.100000,-0.100000)"
fill="#000000" stroke="none">
<path d="M0 2235 c0 -751 2 -1365 5 -1365 3 0 18 9 33 20 22 16 54 22 167 30
77 5 164 13 193 16 52 5 52 6 52 40 0 30 -4 35 -30 41 -48 9 -53 32 -26 105
31 83 48 211 44 323 l-3 90 -32 3 c-49 5 -86 71 -48 86 8 3 15 15 15 26 0 12
5 31 12 43 6 12 20 60 30 107 10 47 21 97 24 111 5 22 2 28 -15 34 -25 8 -26
20 -6 68 8 20 15 53 15 73 0 60 25 99 78 121 42 18 51 18 86 6 40 -13 57 -31
88 -93 22 -43 22 -46 -1 -77 -16 -20 -18 -30 -10 -51 7 -19 7 -33 -2 -49 -10
-19 -9 -33 4 -77 9 -29 17 -59 17 -67 0 -14 52 -62 118 -108 30 -21 31 -24 17
-44 -8 -12 -15 -36 -15 -54 0 -35 -9 -40 -40 -21 -15 10 -23 9 -39 -6 -25 -23
-26 -37 -6 -141 8 -44 26 -143 40 -220 13 -77 27 -150 31 -162 10 -35 -20 -40
-57 -9 -32 27 -79 35 -79 14 0 -7 -3 -22 -6 -33 -4 -17 5 -28 45 -54 48 -31
58 -51 25 -51 -8 0 -32 -9 -54 -20 -22 -11 -48 -20 -60 -20 -11 0 -21 -6 -21
-12 -5 -43 -2 -65 9 -77 11 -11 16 -10 33 5 14 12 22 15 27 7 12 -19 287 106
786 358 239 122 224 105 252 269 8 47 16 97 19 112 4 24 -3 33 -63 75 -37 26
-125 91 -197 145 -71 53 -139 104 -150 111 -17 12 -18 19 -10 43 16 45 40 41
116 -23 104 -86 306 -230 313 -222 2 2 11 38 20 79 13 61 28 93 74 160 57 86
73 118 96 201 7 25 22 58 33 73 25 31 186 162 224 182 15 7 29 22 32 33 3 13
19 24 48 31 70 19 84 38 53 76 -13 16 -15 16 -10 2 3 -10 3 -25 0 -33 -5 -12
-9 -11 -24 7 l-18 22 0 -27 c0 -31 -12 -49 -19 -29 -3 6 -9 10 -14 6 -5 -3 -9
0 -9 5 0 6 -7 11 -15 11 -8 0 -18 14 -23 33 -8 31 -9 32 -21 10 -17 -33 -30
-28 -29 10 0 17 -3 61 -7 97 -6 59 -3 73 28 152 l34 86 -25 26 c-29 28 -23 49
6 23 27 -25 35 -22 70 28 55 78 164 144 237 145 54 0 120 -26 181 -72 28 -21
54 -38 58 -38 5 0 5 27 1 61 -9 75 6 112 40 103 24 -6 27 0 64 143 20 75 31
60 30 -39 -1 -51 4 -113 10 -137 17 -59 9 -81 -44 -125 -49 -41 -58 -74 -30
-112 8 -12 24 -47 35 -77 18 -49 20 -64 11 -113 -6 -32 -11 -59 -11 -60 0 -1
-20 -16 -44 -33 -29 -19 -46 -25 -49 -18 -4 11 -47 -74 -47 -94 0 -15 13 -11
75 23 93 50 123 58 164 43 20 -7 45 -9 56 -5 11 5 39 6 62 3 48 -6 179 21 236
49 21 11 106 41 188 68 82 27 175 61 207 76 46 22 72 28 134 28 65 1 81 -3
107 -22 l32 -23 52 38 c74 54 97 74 131 111 16 17 35 32 41 32 13 0 128 87
133 101 2 5 8 9 13 9 6 0 27 16 49 36 21 19 51 45 67 57 33 25 93 83 93 90 0
3 -37 -6 -82 -20 -99 -30 -206 -34 -290 -9 -70 20 -134 78 -210 187 -29 42
-86 120 -125 173 l-73 96 -1865 0 -1865 0 0 -1365z m456 910 c-8 -31 -51 -54
-68 -37 -24 24 41 94 66 72 5 -5 6 -20 2 -35z m588 -381 c9 -3 16 -10 16 -15
0 -15 -47 -10 -60 6 -10 12 -9 15 8 15 11 0 27 -3 36 -6z"/>
<path d="M4730 3526 c0 -60 -5 -84 -24 -120 -31 -59 -62 -104 -99 -143 -17
-18 -28 -36 -24 -39 4 -4 39 -9 79 -11 40 -3 87 -11 105 -18 l33 -14 0 210 0
209 -35 0 -35 0 0 -74z"/>
<path d="M4635 3091 c-17 -3 -46 -18 -66 -33 -20 -16 -40 -28 -46 -28 -5 0
-18 -10 -29 -21 -10 -12 -35 -32 -54 -44 -19 -12 -72 -51 -116 -86 -45 -35
-112 -88 -150 -117 -185 -142 -172 -129 -167 -173 5 -31 2 -39 -10 -39 -9 0
-21 -9 -27 -20 -6 -11 -16 -20 -22 -20 -7 0 -28 -16 -48 -35 l-36 -36 -26 21
c-49 38 -60 22 -32 -45 28 -68 1 -85 -52 -34 l-32 31 -66 -48 c-36 -27 -115
-83 -176 -124 -61 -41 -140 -96 -176 -122 -36 -27 -67 -48 -69 -48 -3 0 -13
-7 -22 -15 -41 -34 -140 -103 -348 -241 -258 -173 -265 -178 -265 -216 0 -23
-6 -31 -30 -39 -16 -6 -32 -18 -34 -27 -7 -23 6 -98 37 -207 14 -49 33 -124
44 -165 l18 -75 80 -53 c86 -57 415 -249 556 -325 106 -57 116 -68 89 -92 -19
-17 -27 -18 -78 -7 -70 15 -212 84 -411 201 -85 50 -156 91 -157 91 -2 0 17
-39 42 -86 44 -80 109 -229 156 -355 24 -64 20 -96 -17 -130 -13 -13 -25 -28
-25 -33 0 -37 -134 -157 -158 -142 -4 2 -13 1 -20 -3 -9 -5 -4 -26 18 -77 l29
-69 1030 -3 1031 -2 0 960 c0 809 -2 960 -14 960 -20 0 -39 27 -32 47 5 12 9
14 18 5 7 -7 16 -12 20 -12 4 0 8 254 8 564 l0 563 -52 7 c-58 6 -69 6 -113
-3z m-235 -405 c0 -2 -7 -6 -15 -10 -8 -3 -15 -1 -15 4 0 6 7 10 15 10 8 0 15
-2 15 -4z m-1025 -2096 c-3 -5 -11 -10 -16 -10 -6 0 -7 5 -4 10 3 6 11 10 16
10 6 0 7 -4 4 -10z"/>
<path d="M3480 2471 c-80 -38 -181 -78 -225 -89 -44 -11 -98 -25 -120 -31 -31
-8 -43 -17 -51 -40 -9 -21 -20 -31 -45 -36 -19 -4 -49 -18 -67 -32 -28 -21
-49 -26 -160 -34 -75 -7 -132 -16 -140 -24 -21 -19 -31 -82 -32 -190 -1 -55
-5 -120 -10 -145 -4 -25 -7 -46 -5 -48 6 -6 279 182 649 448 103 74 211 152
239 173 29 21 71 50 94 65 47 29 62 52 35 52 -9 0 -82 -31 -162 -69z"/>
<path d="M2620 2459 c-9 -20 -18 -28 -28 -24 -15 6 -52 -21 -52 -37 0 -10 29
-3 78 19 23 11 32 22 32 39 0 35 -16 37 -30 3z"/>
<path d="M2115 1930 c-11 -4 -31 -20 -44 -34 -14 -14 -32 -26 -41 -26 -9 0
-37 -23 -61 -52 -42 -51 -61 -101 -83 -219 -6 -34 -4 -37 41 -66 27 -16 54
-33 61 -38 17 -9 68 38 76 71 4 13 11 24 16 24 5 0 14 9 20 20 9 18 6 23 -25
41 -19 12 -35 25 -35 31 0 5 18 39 40 76 22 36 45 85 51 107 6 22 12 48 15 58
6 19 0 20 -31 7z"/>
<path d="M1815 1405 c-10 -30 -16 -58 -13 -61 6 -5 82 29 105 48 10 8 3 18
-27 39 -22 16 -41 29 -43 29 -2 0 -11 -25 -22 -55z"/>
<path d="M1523 1028 c-270 -139 -521 -254 -728 -333 -82 -32 -154 -62 -160
-67 -6 -5 -3 -26 8 -57 19 -56 21 -64 8 -56 -5 3 -17 28 -26 55 -15 45 -19 50
-38 44 -61 -19 -125 -34 -152 -34 -40 0 -97 35 -93 57 4 22 28 34 156 80 56
20 101 42 99 48 -2 5 -28 10 -58 10 -52 0 -54 1 -59 30 l-5 30 -115 -1 c-72
-1 -141 -8 -183 -19 -37 -9 -92 -18 -122 -18 l-55 -2 0 -397 0 -398 893 0 893
0 17 67 c21 83 21 103 2 103 -8 0 -23 8 -33 17 -10 10 -36 27 -58 38 -21 11
-43 30 -49 43 -5 12 -15 22 -22 22 -28 0 -40 31 -47 115 -8 107 5 157 106 394
83 195 128 311 128 327 0 7 -18 14 -40 16 -34 3 -68 -12 -267 -114z m-394
-423 c15 -67 7 -113 -22 -124 -26 -10 -35 6 -36 59 -1 36 26 120 39 120 4 0
12 -25 19 -55z m351 -226 c0 -14 -65 -79 -79 -79 -25 0 -9 41 26 65 41 27 53
31 53 14z"/>
<path d="M530 1002 c0 -13 39 -56 45 -50 10 10 -15 58 -30 58 -8 0 -15 -4 -15
-8z"/>
<path d="M2029 96 c-8 -11 -17 -38 -20 -58 l-5 -38 257 0 257 0 -10 33 c-8 27
-18 36 -52 46 -35 10 -47 10 -71 -3 -42 -22 -94 -20 -134 5 -34 20 -35 20 -48
3 -14 -19 -49 -21 -67 -4 -5 5 -15 6 -23 3 -8 -3 -27 3 -42 15 l-27 20 -15
-22z"/>
</g>
</svg>
