<?xml version="1.0" standalone="no"?>
<!DOCTYPE svg PUBLIC "-//W3C//DTD SVG 20010904//EN"
 "http://www.w3.org/TR/2001/REC-SVG-20010904/DTD/svg10.dtd">
<svg version="1.0" xmlns="http://www.w3.org/2000/svg"
 width="480.000000pt" height="360.000000pt" viewBox="0 0 480.000000 360.000000"
 preserveAspectRatio="xMidYMid meet">
<metadata>
Created by potrace 1.16, written by Peter Selinger 2001-2019
</metadata>
<rect width="1" height="360" fill="#000000"/>
<rect x="479" width="1" height="360" fill="#000000"/>
<rect width="480" height="1" fill="#000000"/>
<rect y="359" width="480" height="1" fill="#000000"/>
<g transform="translate(0.000000,360.000000) scale(0.100000,-0.100000)"
fill="#000000" stroke="none">
<path d="M0 1800 l0 -1800 1053 0 1053 0 12 93 c7 50 15 110 18 133 l6 40 -82
18 -82 17 -26 -23 c-15 -13 -31 -28 -37 -34 -30 -32 -85 -64 -112 -64 -43 0
-83 40 -83 83 0 36 33 106 80 170 l28 38 -53 89 c-82 136 -92 190 -47 249 16
20 39 58 52 84 l23 48 -29 39 c-16 21 -90 118 -164 215 -291 382 -380 500
-380 510 0 6 22 28 50 49 35 27 55 36 70 31 13 -4 33 2 55 15 24 15 44 20 61
16 13 -4 34 -1 47 6 44 24 287 26 422 4 117 -19 209 -42 245 -61 16 -8 39 -15
50 -15 12 0 41 -11 65 -25 24 -14 57 -30 74 -35 l31 -9 0 155 c0 96 -4 154
-10 154 -6 0 -9 3 -8 8 1 4 -1 23 -5 42 -3 19 -9 56 -12 83 -4 26 -10 45 -16
42 -5 -4 -9 -1 -9 5 0 21 -64 51 -97 45 -32 -6 -34 -4 -56 47 -26 59 -47 80
-74 78 -31 -4 -34 -1 -18 24 20 29 10 58 -19 54 -19 -3 -21 2 -24 55 -2 41 2
66 12 83 9 13 16 26 16 30 0 8 -47 -22 -74 -48 -22 -21 -32 -22 -41 -8 -11 18
44 99 114 170 72 73 116 94 226 108 l60 7 -3 40 c-4 48 -32 96 -66 115 -21 11
-29 11 -50 -3 -13 -9 -27 -26 -31 -37 -8 -25 -43 -34 -102 -26 -103 14 -214
118 -278 259 -33 74 -44 88 -70 97 -46 15 -114 86 -143 148 -14 30 -30 86 -36
124 l-10 68 -788 0 -788 0 0 -1800z"/>
<path d="M1665 3579 c21 -65 47 -110 62 -105 8 3 16 6 19 6 10 0 34 63 34 90
l0 30 -61 0 c-57 0 -60 -1 -54 -21z"/>
<path d="M3277 3588 c15 -7 33 -7 60 0 38 10 37 10 -22 10 -49 1 -56 -1 -38
-10z"/>
<path d="M4696 3568 c46 -50 54 -63 80 -125 l24 -58 0 108 0 107 -67 0 -67 0
30 -32z"/>
<path d="M1804 3393 c2 -10 7 -27 10 -39 7 -23 111 -88 169 -106 41 -12 64 -2
54 25 -5 12 -217 137 -233 137 -3 0 -3 -8 0 -17z"/>
<path d="M2079 3201 c-29 -51 -61 -48 -206 16 -22 9 -15 -17 22 -82 66 -119
152 -185 239 -185 37 0 48 4 57 23 16 30 39 46 67 47 12 0 22 4 22 8 0 30
-151 202 -177 202 -4 0 -15 -13 -24 -29z"/>
<path d="M2386 2875 c4 -8 8 -15 10 -15 2 0 4 7 4 15 0 8 -4 15 -10 15 -5 0
-7 -7 -4 -15z"/>
<path d="M4757 2745 c-20 -83 -37 -159 -37 -171 0 -20 65 -92 75 -82 3 3 4 94
3 204 l-3 198 -38 -149z"/>
<path d="M2241 2750 c-40 -11 -81 -25 -90 -32 -30 -22 -81 -72 -81 -78 0 -4
24 5 54 20 30 15 95 42 145 60 135 49 117 68 -28 30z"/>
<path d="M2320 2710 c-8 -5 -60 -30 -115 -55 -98 -45 -100 -47 -75 -60 36 -20
54 -18 113 11 82 42 107 63 107 90 0 26 -6 28 -30 14z"/>
<path d="M3416 2135 c9 -22 16 -77 18 -138 1 -57 6 -108 10 -115 17 -27 136
-38 351 -33 16 1 13 8 -20 42 -66 69 -218 191 -294 237 -39 23 -73 42 -76 42
-2 0 3 -16 11 -35z"/>
<path d="M2506 1813 c2 -140 0 -131 25 -107 13 14 22 39 26 76 5 48 2 60 -18
87 -12 17 -26 31 -29 31 -3 0 -5 -39 -4 -87z"/>
<path d="M3454 1717 c3 -62 8 -195 11 -297 19 -643 31 -768 104 -1016 16 -54
45 -160 66 -234 20 -74 39 -143 41 -152 5 -17 41 -18 565 -18 l559 0 0 508 c0
483 -1 510 -20 560 -11 29 -20 61 -20 71 0 16 -11 19 -92 24 -116 7 -303 54
-394 98 -50 24 -93 57 -155 119 -91 91 -135 165 -160 270 -14 59 -63 124 -108
141 -14 6 -89 10 -168 10 -94 0 -159 5 -189 14 l-47 14 7 -112z"/>
<path d="M3993 1660 c15 -70 78 -180 140 -244 53 -54 127 -107 127 -92 0 3
-19 28 -42 55 -74 87 -88 108 -134 206 -25 52 -49 95 -54 95 -5 0 -16 3 -26 7
-15 5 -16 2 -11 -27z"/>
<path d="M4140 1633 c0 -21 101 -174 145 -218 99 -102 233 -165 349 -165 l50
0 -30 31 c-55 59 -237 212 -305 256 -56 36 -189 103 -205 103 -2 0 -4 -3 -4
-7z"/>
<path d="M3550 37 c0 -26 4 -37 14 -37 12 0 13 6 4 33 -15 45 -18 46 -18 4z"/>
</g>
</svg>
