<?xml version="1.0" standalone="no"?>
<!DOCTYPE svg PUBLIC "-//W3C//DTD SVG 20010904//EN"
 "http://www.w3.org/TR/2001/REC-SVG-20010904/DTD/svg10.dtd">
<svg version="1.0" xmlns="http://www.w3.org/2000/svg"
 width="480.000000pt" height="360.000000pt" viewBox="0 0 480.000000 360.000000"
 preserveAspectRatio="xMidYMid meet">
<metadata>
Created by potrace 1.16, written by Peter Selinger 2001-2019
</metadata>
<rect width="1" height="360" fill="#000000"/>
<rect x="479" width="1" height="360" fill="#000000"/>
<rect width="480" height="1" fill="#000000"/>
<rect y="359" width="480" height="1" fill="#000000"/>
<g transform="translate(0.000000,360.000000) scale(0.100000,-0.100000)"
fill="#000000" stroke="none">
<path d="M0 2716 l0 -884 98 -8 c53 -5 201 -9 327 -9 249 0 286 5 409 57 100
43 203 67 360 83 175 19 274 19 456 0 233 -25 379 -52 600 -110 161 -43 451
-140 609 -205 69 -27 130 -50 136 -50 7 0 20 50 33 123 38 212 38 197 3 252
-22 34 -31 61 -31 90 0 57 44 185 97 283 l45 82 -12 68 c-10 61 -9 72 10 116
11 27 32 62 45 78 18 21 25 41 25 71 0 33 6 47 33 72 50 50 52 55 53 150 1 70
7 105 27 158 17 47 21 70 14 72 -7 2 -43 9 -82 16 -92 15 -127 33 -123 62 4
27 49 43 168 61 84 12 85 12 88 41 2 17 6 37 9 45 3 8 16 42 28 75 12 33 25
68 29 78 8 16 -78 17 -1723 17 l-1731 0 0 -884z"/>
<path d="M4718 3423 c-25 -6 -23 -12 17 -53 29 -29 36 -46 38 -79 2 -36 -2
-46 -23 -62 -14 -10 -38 -18 -55 -18 -16 0 -46 1 -65 1 -54 1 -264 -24 -274
-33 -5 -4 -9 -27 -9 -50 0 -35 6 -47 36 -74 20 -18 39 -46 43 -62 4 -15 12
-31 18 -35 8 -5 7 -13 -2 -25 -17 -25 -102 -199 -102 -210 0 -5 16 -15 36 -22
50 -18 120 -90 133 -137 23 -84 9 -152 -48 -223 l-19 -25 56 -59 c111 -115
133 -178 93 -267 l-19 -43 55 -131 c119 -284 146 -424 98 -515 -20 -40 -42
-55 -150 -102 -55 -24 -126 -58 -158 -76 -33 -18 -61 -33 -63 -33 -3 0 -30
-18 -60 -41 l-56 -41 31 -32 c36 -37 38 -64 11 -124 l-19 -42 77 -78 c157
-156 291 -337 394 -529 33 -62 62 -113 64 -113 2 0 4 751 4 1670 l0 1670 -32
-1 c-18 -1 -41 -3 -50 -6z"/>
<path d="M4086 1843 c-2 -10 -10 -45 -16 -78 -12 -59 -39 -121 -79 -180 -24
-34 -28 -104 -11 -182 18 -80 17 -80 107 -48 74 26 264 116 290 137 10 8 3 29
-31 92 -23 44 -58 109 -76 143 -29 56 -37 64 -81 78 -26 9 -59 25 -73 36 -23
18 -25 18 -30 2z"/>
<path d="M1175 1749 c-116 -14 -231 -45 -295 -79 -173 -95 -234 -119 -336
-131 -54 -7 -104 -17 -111 -23 -11 -11 -36 -255 -28 -279 2 -7 9 -91 15 -187
30 -485 71 -827 119 -1008 l12 -42 1093 0 1093 0 21 68 c11 37 32 99 47 137
48 124 180 516 219 648 l37 128 -32 37 c-17 20 -41 56 -51 79 -21 47 -19 58
26 180 9 23 13 49 10 57 -7 18 -99 59 -315 139 -495 184 -898 273 -1274 282
-93 2 -206 -1 -250 -6z"/>
<path d="M3287 1568 c-15 -39 -16 -48 -6 -48 13 0 22 24 16 47 -4 17 -4 17
-10 1z"/>
<path d="M0 68 c0 -66 1 -68 25 -68 31 0 31 3 0 76 l-24 59 -1 -67z"/>
</g>
</svg>
