<?xml version="1.0" standalone="no"?>
<!DOCTYPE svg PUBLIC "-//W3C//DTD SVG 20010904//EN"
 "http://www.w3.org/TR/2001/REC-SVG-20010904/DTD/svg10.dtd">
<svg version="1.0" xmlns="http://www.w3.org/2000/svg"
 width="480.000000pt" height="360.000000pt" viewBox="0 0 480.000000 360.000000"
 preserveAspectRatio="xMidYMid meet">
<metadata>
Created by potrace 1.16, written by Peter Selinger 2001-2019
</metadata>
<rect width="1" height="360" fill="#000000"/>
<rect x="479" width="1" height="360" fill="#000000"/>
<rect width="480" height="1" fill="#000000"/>
<rect y="359" width="480" height="1" fill="#000000"/>
<g transform="translate(0.000000,360.000000) scale(0.100000,-0.100000)"
fill="#000000" stroke="none">
<path d="M2444 3418 c1 -156 -2 -199 -22 -292 -41 -192 -147 -413 -270 -559
-306 -363 -750 -526 -1222 -448 -154 25 -377 110 -445 170 -11 10 -40 29 -65
44 -97 56 -311 293 -376 417 -21 38 -39 70 -41 70 -1 0 -3 -634 -3 -1410 l0
-1410 2322 0 2321 0 -18 21 c-19 20 -18 21 12 82 18 34 41 87 53 117 12 30 41
92 66 137 l44 83 0 1580 0 1580 -1179 0 -1179 0 2 -182z"/>
</g>
</svg>
