<?xml version="1.0" standalone="no"?>
<!DOCTYPE svg PUBLIC "-//W3C//DTD SVG 20010904//EN"
 "http://www.w3.org/TR/2001/REC-SVG-20010904/DTD/svg10.dtd">
<svg version="1.0" xmlns="http://www.w3.org/2000/svg"
 width="480.000000pt" height="360.000000pt" viewBox="0 0 480.000000 360.000000"
 preserveAspectRatio="xMidYMid meet">
<metadata>
Created by potrace 1.16, written by Peter Selinger 2001-2019
</metadata>
<rect width="1" height="360" fill="#000000"/>
<rect x="479" width="1" height="360" fill="#000000"/>
<rect width="480" height="1" fill="#000000"/>
<rect y="359" width="480" height="1" fill="#000000"/>
<g transform="translate(0.000000,360.000000) scale(0.100000,-0.100000)"
fill="#000000" stroke="none">
<path d="M2565 3325 c-65 -14 -117 -32 -125 -43 -3 -4 -17 -15 -33 -25 -40
-26 -77 -88 -85 -143 l-7 -48 -65 -12 c-86 -16 -120 -30 -120 -49 0 -26 26
-68 65 -105 36 -34 36 -36 30 -95 -6 -54 -3 -67 24 -122 17 -35 34 -63 38 -63
5 0 21 -11 38 -24 l30 -24 -20 -22 -20 -22 28 -20 c15 -11 27 -26 27 -33 0 -8
12 -35 26 -61 23 -41 25 -51 16 -86 l-10 -40 21 20 c30 27 68 14 60 -20 -4
-22 -3 -22 19 5 29 33 34 33 42 5 7 -22 8 -21 19 9 19 51 24 48 46 -24 l21
-68 -26 -61 c-20 -47 -34 -66 -62 -82 -45 -25 -81 -63 -115 -122 -14 -25 -46
-72 -71 -105 -28 -37 -46 -70 -46 -87 0 -15 -11 -52 -25 -82 -14 -30 -29 -66
-35 -80 -16 -43 -25 -39 -198 106 -51 43 -102 78 -113 78 -11 0 -45 18 -75 41
-79 58 -160 94 -214 94 -56 0 -109 -21 -121 -49 -6 -12 -19 -37 -29 -56 -33
-62 -18 -134 33 -157 29 -14 43 -6 52 29 7 27 7 27 38 11 17 -8 58 -23 92 -32
56 -15 60 -18 60 -46 1 -27 12 -37 106 -100 110 -73 146 -100 263 -197 77 -65
103 -71 164 -39 51 26 110 90 175 189 30 46 58 79 61 74 3 -5 10 -39 15 -76 5
-36 12 -70 16 -76 11 -17 23 -2 18 23 -3 13 7 4 25 -24 25 -38 33 -64 41 -140
6 -52 17 -114 25 -139 7 -26 12 -82 11 -131 -1 -81 -4 -89 -48 -171 -26 -48
-63 -128 -83 -180 -79 -205 -175 -346 -278 -411 -55 -35 -208 -107 -227 -107
-6 0 -23 -6 -37 -14 -15 -8 -53 -25 -84 -38 -32 -12 -68 -31 -80 -40 -22 -17
41 -18 1232 -18 l1255 0 -35 22 c-19 11 -62 38 -96 59 -33 22 -80 43 -105 47
-47 10 -132 53 -185 96 -18 14 -55 59 -82 99 -44 65 -49 80 -56 146 -4 47 -20
109 -45 174 -34 89 -37 105 -25 123 11 19 9 34 -16 115 -15 52 -31 102 -35
111 -8 21 -6 21 95 37 333 51 506 252 431 499 -29 96 -83 172 -228 320 -68 70
-184 201 -258 292 -73 91 -157 186 -187 212 -55 47 -134 92 -181 104 -53 13
-37 23 30 19 l68 -5 -48 14 c-26 8 -63 21 -81 30 -19 9 -39 16 -45 16 -6 0
-11 4 -11 8 0 4 -15 14 -32 21 -52 21 -9 25 64 6 57 -15 250 -32 221 -19 -7 3
-13 10 -13 16 0 7 20 9 57 5 l57 -6 -29 24 c-20 16 -25 25 -15 25 8 0 2 8 -15
18 -28 16 -29 17 -7 20 29 5 28 13 -9 48 -17 16 -50 54 -72 84 -48 65 -46 63
-133 151 -49 50 -90 80 -152 111 -68 34 -88 50 -103 80 -26 51 -129 132 -209
164 -58 23 -193 55 -223 53 -7 0 -39 -7 -72 -14z m926 -632 c13 -16 12 -17 -3
-4 -10 7 -18 15 -18 17 0 8 8 3 21 -13z m-159 -1596 c26 -22 47 -67 31 -67
-18 0 -86 67 -79 78 10 17 17 15 48 -11z"/>
</g>
</svg>
