<?xml version="1.0" standalone="no"?>
<!DOCTYPE svg PUBLIC "-//W3C//DTD SVG 20010904//EN"
 "http://www.w3.org/TR/2001/REC-SVG-20010904/DTD/svg10.dtd">
<svg version="1.0" xmlns="http://www.w3.org/2000/svg"
 width="480.000000pt" height="360.000000pt" viewBox="0 0 480.000000 360.000000"
 preserveAspectRatio="xMidYMid meet">
<metadata>
Created by potrace 1.16, written by Peter Selinger 2001-2019
</metadata>
<rect width="1" height="360" fill="#000000"/>
<rect x="479" width="1" height="360" fill="#000000"/>
<rect width="480" height="1" fill="#000000"/>
<rect y="359" width="480" height="1" fill="#000000"/>
<g transform="translate(0.000000,360.000000) scale(0.100000,-0.100000)"
fill="#000000" stroke="none">
<path d="M0 1800 l0 -1800 28 0 c23 0 43 20 132 130 171 213 181 223 219 251
20 15 66 43 103 64 57 31 82 38 154 45 47 4 89 11 94 16 5 5 17 48 26 94 8 47
29 126 45 176 l29 92 -35 122 c-42 145 -51 215 -33 249 7 13 42 41 78 63 55
33 71 38 102 33 30 -5 37 -3 42 12 18 62 39 227 51 413 18 273 26 311 72 349
19 16 50 37 69 47 32 17 34 17 52 0 46 -41 64 -208 46 -401 -8 -77 -11 -162
-7 -189 5 -45 7 -48 20 -30 8 10 44 76 79 146 108 215 175 304 269 358 122 70
131 16 32 -197 -84 -180 -212 -511 -202 -521 2 -3 19 13 37 34 170 201 376
364 458 364 77 0 35 -85 -130 -265 -78 -86 -206 -272 -195 -284 2 -2 41 13 87
32 137 58 224 81 315 81 65 1 86 -3 100 -16 16 -17 16 -19 -10 -46 -42 -44
-129 -91 -243 -133 -106 -38 -212 -98 -251 -142 -11 -13 -25 -51 -32 -92 -36
-197 -87 -322 -181 -445 -27 -36 -49 -67 -50 -70 0 -3 44 -50 98 -105 54 -55
117 -130 142 -167 l44 -68 1573 0 1573 0 0 725 0 725 -32 0 c-18 0 -58 7 -88
15 -30 8 -69 15 -87 15 -18 0 -36 6 -40 14 -4 7 -28 18 -53 24 -58 13 -132 35
-195 57 -72 25 -85 32 -130 60 -22 14 -47 28 -55 31 -8 3 -24 9 -35 14 -11 4
-37 15 -58 24 -21 9 -46 16 -55 16 -10 0 -27 7 -38 15 -10 8 -25 15 -33 15 -8
0 -31 17 -50 38 -20 21 -49 44 -66 51 -44 18 -133 81 -139 98 -3 8 -11 11 -16
8 -6 -4 -27 10 -46 32 -41 45 -38 42 -93 93 -24 22 -47 40 -51 40 -4 0 -33 25
-65 55 -31 30 -54 55 -51 55 3 0 -6 11 -19 25 -14 13 -25 28 -25 34 0 9 -11
14 -45 23 -10 3 -45 66 -45 81 0 6 -17 29 -37 52 -47 52 -68 78 -71 87 -1 5
-7 28 -14 52 -6 25 -15 43 -20 40 -4 -3 -8 0 -8 5 0 6 -11 21 -25 33 -15 13
-25 32 -25 48 0 15 -13 44 -30 65 -16 21 -30 43 -30 50 0 7 -7 18 -15 25 -8 7
-15 21 -15 32 0 10 -18 54 -40 96 -22 42 -47 106 -56 142 -9 36 -20 70 -24 75
-4 6 -13 42 -20 80 -7 39 -16 75 -20 80 -8 11 -18 54 -27 120 -3 22 -9 44 -14
50 -5 5 -9 26 -9 47 l0 38 -1345 0 -1345 0 0 -1800z"/>
</g>
</svg>
