<?xml version="1.0" standalone="no"?>
<!DOCTYPE svg PUBLIC "-//W3C//DTD SVG 20010904//EN"
 "http://www.w3.org/TR/2001/REC-SVG-20010904/DTD/svg10.dtd">
<svg version="1.0" xmlns="http://www.w3.org/2000/svg"
 width="480.000000pt" height="360.000000pt" viewBox="0 0 480.000000 360.000000"
 preserveAspectRatio="xMidYMid meet">
<metadata>
Created by potrace 1.16, written by Peter Selinger 2001-2019
</metadata>
<rect width="1" height="360" fill="#000000"/>
<rect x="479" width="1" height="360" fill="#000000"/>
<rect width="480" height="1" fill="#000000"/>
<rect y="359" width="480" height="1" fill="#000000"/>
<g transform="translate(0.000000,360.000000) scale(0.100000,-0.100000)"
fill="#000000" stroke="none">
<path d="M0 1800 l0 -1800 985 0 c881 0 985 2 985 15 0 53 35 319 56 423 19
97 24 149 22 245 -1 67 1 147 6 178 5 35 5 59 -1 62 -5 3 -31 -23 -58 -59 -51
-70 -86 -99 -109 -91 -21 8 -43 -22 -51 -68 -4 -22 -19 -68 -32 -102 -30 -75
-28 -115 6 -123 23 -5 22 -7 -20 -43 -24 -20 -51 -37 -60 -37 -9 0 -22 -6 -28
-14 -16 -19 -58 -8 -83 23 -18 22 -20 23 -16 5 3 -11 -1 -29 -9 -40 -14 -18
-15 -18 -40 11 -24 27 -25 34 -20 106 4 42 7 83 9 90 2 8 -4 13 -14 11 -41 -7
-34 49 14 103 48 55 138 197 132 207 -3 5 6 20 20 33 14 13 26 33 26 44 0 19
30 46 115 104 22 15 74 58 115 96 l75 69 -3 64 c-2 46 -11 78 -32 118 -42 82
-63 165 -56 214 4 22 20 84 36 136 16 52 43 145 62 205 31 105 35 113 93 171
33 33 71 67 85 76 14 9 22 19 18 23 -4 4 -17 0 -30 -9 -12 -9 -28 -16 -34 -16
-11 0 -56 31 -120 84 -18 14 -41 26 -53 26 -25 0 -26 11 -5 52 15 28 14 31 -6
53 -19 20 -25 21 -69 12 -44 -8 -52 -7 -81 14 -17 13 -34 36 -37 51 -6 33 -11
34 -30 11 -12 -16 -13 -7 -8 62 8 104 25 215 37 238 5 10 26 37 46 59 l36 39
-32 65 c-18 35 -32 70 -32 77 0 33 131 62 158 35 23 -23 25 3 8 83 -10 45 -15
83 -13 86 3 2 20 -9 40 -26 19 -17 37 -28 41 -24 3 3 6 28 6 53 0 73 19 81 83
37 85 -59 152 -123 192 -182 25 -38 49 -61 73 -72 77 -33 87 -39 120 -72 114
-113 202 -320 267 -621 29 -136 29 -138 134 -380 78 -178 127 -342 137 -458 6
-62 5 -72 -8 -67 -12 5 -17 -5 -21 -40 -4 -25 -13 -58 -21 -73 -12 -23 -13
-42 -4 -103 l10 -74 -57 -144 c-31 -79 -68 -190 -81 -245 -13 -56 -31 -122
-39 -147 -17 -52 -20 -228 -8 -487 l6 -152 984 0 983 0 0 1800 0 1800 -2400 0
-2400 0 0 -1800z"/>
</g>
</svg>
