<?xml version="1.0" standalone="no"?>
<!DOCTYPE svg PUBLIC "-//W3C//DTD SVG 20010904//EN"
 "http://www.w3.org/TR/2001/REC-SVG-20010904/DTD/svg10.dtd">
<svg version="1.0" xmlns="http://www.w3.org/2000/svg"
 width="480.000000pt" height="360.000000pt" viewBox="0 0 480.000000 360.000000"
 preserveAspectRatio="xMidYMid meet">
<metadata>
Created by potrace 1.16, written by Peter Selinger 2001-2019
</metadata>
<rect width="1" height="360" fill="#000000"/>
<rect x="479" width="1" height="360" fill="#000000"/>
<rect width="480" height="1" fill="#000000"/>
<rect y="359" width="480" height="1" fill="#000000"/>
<g transform="translate(0.000000,360.000000) scale(0.100000,-0.100000)"
fill="#000000" stroke="none">
<path d="M0 2821 l0 -780 128 -3 c231 -6 339 13 487 82 100 47 228 83 360 102
129 19 471 16 622 -5 67 -9 124 -17 127 -17 3 0 6 11 6 25 0 51 40 115 93 149
22 15 27 26 27 58 0 34 -3 39 -17 33 -10 -4 -41 -9 -68 -12 -39 -4 -54 -2 -64
10 -21 26 -4 53 74 123 84 77 85 79 86 242 1 100 3 115 26 149 34 53 110 107
228 163 149 71 198 85 282 82 29 -2 85 -40 217 -145 21 -17 25 -17 110 7 98
29 177 34 195 12 16 -20 -37 -86 -119 -149 -36 -27 -66 -53 -68 -56 -1 -4 29
-46 67 -94 39 -47 65 -89 60 -93 -5 -3 -16 0 -24 6 -13 11 -14 4 -9 -51 5 -59
4 -63 -10 -45 -15 19 -16 18 -22 -12 -4 -18 -12 -32 -19 -32 -17 0 -55 -43
-55 -63 0 -9 14 -26 30 -39 36 -27 37 -32 5 -60 -14 -12 -25 -30 -25 -40 0
-10 -14 -42 -30 -72 -17 -30 -35 -81 -41 -115 -13 -70 -57 -144 -100 -167 -25
-12 -27 -17 -17 -33 16 -25 35 -36 166 -92 100 -43 119 -48 142 -39 26 11 71
-6 180 -65 14 -8 52 -26 85 -41 65 -29 75 -38 75 -69 0 -15 18 -32 63 -57 34
-21 114 -71 177 -112 74 -49 118 -72 124 -66 16 16 52 11 70 -9 9 -10 30 -21
46 -25 21 -4 31 -13 36 -31 4 -15 17 -30 31 -36 13 -5 26 -17 29 -26 4 -10 12
-32 20 -50 8 -17 14 -33 14 -36 0 -3 51 -56 113 -119 198 -200 325 -371 532
-718 138 -233 167 -264 251 -274 38 -5 67 -15 82 -29 l22 -20 0 1766 0 1767
-2400 0 -2400 0 0 -779z"/>
<path d="M970 2035 c-161 -24 -208 -41 -361 -131 -111 -66 -226 -106 -342
-119 -68 -8 -69 -9 -85 -130 -30 -211 -34 -340 -29 -855 5 -467 11 -606 32
-757 l6 -43 792 0 792 0 34 104 c45 140 98 243 215 419 54 81 107 170 117 198
29 76 25 201 -21 614 -11 99 -23 216 -28 260 -6 59 -11 75 -17 60 -5 -11 -15
-26 -23 -34 -12 -13 -13 2 -8 105 4 65 9 131 12 147 5 25 3 27 -29 27 -19 0
-65 15 -105 35 -178 89 -674 141 -952 100z"/>
<path d="M3115 1436 l-18 -32 37 -48 c20 -26 36 -51 36 -56 0 -4 -30 -36 -66
-69 l-67 -61 73 0 c69 0 244 33 265 50 6 5 18 22 27 38 l18 29 -57 38 c-31 21
-96 61 -144 91 l-87 52 -17 -32z"/>
<path d="M3628 1033 c-38 -40 -47 -58 -58 -111 -24 -115 -59 -132 -190 -92
-129 40 -198 50 -358 50 -150 0 -159 1 -202 26 l-45 26 -29 -33 c-28 -32 -29
-34 -23 -123 3 -50 22 -183 41 -296 27 -162 56 -403 56 -471 0 -5 315 -9 829
-9 l829 0 -38 57 c-21 32 -79 132 -130 223 -106 190 -209 348 -306 470 -71 89
-306 330 -321 330 -5 0 -29 -21 -55 -47z"/>
</g>
</svg>
