<?xml version="1.0" standalone="no"?>
<!DOCTYPE svg PUBLIC "-//W3C//DTD SVG 20010904//EN"
 "http://www.w3.org/TR/2001/REC-SVG-20010904/DTD/svg10.dtd">
<svg version="1.0" xmlns="http://www.w3.org/2000/svg"
 width="480.000000pt" height="360.000000pt" viewBox="0 0 480.000000 360.000000"
 preserveAspectRatio="xMidYMid meet">
<metadata>
Created by potrace 1.16, written by Peter Selinger 2001-2019
</metadata>
<rect width="1" height="360" fill="#000000"/>
<rect x="479" width="1" height="360" fill="#000000"/>
<rect width="480" height="1" fill="#000000"/>
<rect y="359" width="480" height="1" fill="#000000"/>
<g transform="translate(0.000000,360.000000) scale(0.100000,-0.100000)"
fill="#000000" stroke="none">
<path d="M1081 3553 c-36 -164 -82 -458 -105 -673 -55 -516 -50 -1115 13
-1605 61 -464 126 -769 233 -1092 l61 -183 1758 0 1759 0 0 1800 0 1800 -1854
0 -1854 0 -11 -47z"/>
<path d="M1 1068 l-1 -1068 458 0 c251 0 452 4 447 8 -6 4 -23 25 -39 47 -16
22 -35 45 -42 50 -7 6 -53 72 -102 147 -56 84 -99 137 -112 141 -17 4 -20 10
-14 31 4 19 -7 48 -50 123 -187 330 -374 851 -490 1363 -26 113 -49 210 -51
215 -2 6 -4 -470 -4 -1057z"/>
</g>
</svg>
