<?xml version="1.0" standalone="no"?>
<!DOCTYPE svg PUBLIC "-//W3C//DTD SVG 20010904//EN"
 "http://www.w3.org/TR/2001/REC-SVG-20010904/DTD/svg10.dtd">
<svg version="1.0" xmlns="http://www.w3.org/2000/svg"
 width="480.000000pt" height="360.000000pt" viewBox="0 0 480.000000 360.000000"
 preserveAspectRatio="xMidYMid meet">
<metadata>
Created by potrace 1.16, written by Peter Selinger 2001-2019
</metadata>
<rect width="1" height="360" fill="#000000"/>
<rect x="479" width="1" height="360" fill="#000000"/>
<rect width="480" height="1" fill="#000000"/>
<rect y="359" width="480" height="1" fill="#000000"/>
<g transform="translate(0.000000,360.000000) scale(0.100000,-0.100000)"
fill="#000000" stroke="none">
<path d="M0 1800 l0 -1800 1035 0 1035 0 5 23 c2 12 13 60 24 107 46 199 51
233 51 342 0 178 -17 340 -51 482 -17 72 -33 156 -36 186 -6 62 16 158 51 229
13 25 26 62 29 81 3 19 22 63 42 97 20 34 35 68 32 75 -2 7 0 21 5 31 7 14 5
24 -8 38 -16 18 -15 20 15 46 18 16 51 44 74 64 23 20 52 41 63 47 17 9 23 24
28 69 4 32 10 73 13 91 5 29 3 32 -21 32 -19 0 -30 9 -42 33 -9 17 -29 48 -44
67 -15 19 -31 46 -35 60 -4 13 -19 33 -32 43 l-24 20 26 27 c29 30 28 57 -1
81 -13 11 -15 10 -12 -6 4 -24 -20 -27 -44 -7 -10 8 -22 29 -28 48 -7 21 -16
31 -25 28 -9 -4 -15 9 -20 47 -7 50 -8 51 -20 29 -11 -21 -12 -19 -10 26 4 84
74 224 146 293 114 112 391 181 544 136 84 -24 122 -46 191 -112 83 -79 107
-120 146 -248 l33 -110 0 -370 c1 -309 4 -408 24 -605 25 -261 36 -633 35
-1178 l0 -342 803 0 803 0 0 1800 0 1800 -2400 0 -2400 0 0 -1800z"/>
</g>
</svg>
