<?xml version="1.0" standalone="no"?>
<!DOCTYPE svg PUBLIC "-//W3C//DTD SVG 20010904//EN"
 "http://www.w3.org/TR/2001/REC-SVG-20010904/DTD/svg10.dtd">
<svg version="1.0" xmlns="http://www.w3.org/2000/svg"
 width="480.000000pt" height="360.000000pt" viewBox="0 0 480.000000 360.000000"
 preserveAspectRatio="xMidYMid meet">
<metadata>
Created by potrace 1.16, written by Peter Selinger 2001-2019
</metadata>
<rect width="1" height="360" fill="#000000"/>
<rect x="479" width="1" height="360" fill="#000000"/>
<rect width="480" height="1" fill="#000000"/>
<rect y="359" width="480" height="1" fill="#000000"/>
<g transform="translate(0.000000,360.000000) scale(0.100000,-0.100000)"
fill="#000000" stroke="none">
<path d="M3008 3510 c-10 -6 -15 -21 -14 -40 2 -30 2 -30 -51 -30 -52 0 -53
-1 -91 -52 -54 -75 -55 -76 -68 -145 -11 -58 -10 -66 12 -113 20 -42 27 -50
51 -50 45 0 56 -12 43 -46 -6 -16 -25 -103 -41 -194 -49 -274 -69 -338 -129
-406 -69 -79 -73 -120 -26 -266 32 -101 42 -118 68 -118 11 0 38 -5 59 -12 22
-6 42 -8 45 -5 4 3 -4 46 -17 95 -26 100 -21 136 26 206 29 43 56 108 80 194
10 34 23 62 28 62 11 0 117 -101 117 -111 0 -4 -16 -27 -36 -51 -50 -59 -74
-119 -74 -184 0 -46 -3 -56 -25 -70 -32 -21 -32 -41 1 -75 l26 -27 -20 -38
c-11 -22 -38 -59 -60 -84 -48 -55 -201 -288 -234 -355 -16 -34 -31 -51 -51
-58 -36 -12 -57 -3 -57 25 0 12 -19 87 -41 166 -40 140 -41 145 -25 179 19 41
22 181 4 247 -11 43 -11 45 20 80 18 20 32 44 32 54 -1 53 -78 152 -118 152
-35 -1 -107 -22 -114 -33 -15 -24 -7 -79 17 -123 14 -25 25 -54 25 -65 0 -11
-17 -50 -37 -88 l-37 -68 19 -42 c18 -41 18 -43 -3 -109 -23 -73 -27 -98 -47
-279 -7 -68 -19 -138 -26 -157 -9 -25 -10 -47 -3 -78 5 -24 6 -77 2 -118 -7
-85 4 -110 51 -110 38 0 73 -27 69 -53 -2 -15 -19 -29 -50 -45 -38 -18 -48
-28 -48 -47 0 -41 32 -50 166 -49 66 0 129 6 139 12 18 9 16 12 -21 27 -45 18
-61 43 -71 111 -7 50 -7 50 93 45 62 -3 65 4 50 103 -8 58 -8 70 5 74 8 3 39
30 69 61 30 32 70 66 88 77 40 22 247 279 306 377 42 70 73 90 101 67 8 -6 49
-17 92 -24 73 -11 78 -13 81 -38 5 -45 -36 -108 -143 -218 -97 -99 -195 -219
-195 -239 0 -5 7 -11 15 -15 12 -4 -2 -38 -64 -163 -92 -185 -108 -219 -114
-253 -3 -14 -20 -81 -40 -150 -43 -155 -60 -232 -87 -385 -11 -66 -28 -159
-37 -206 l-15 -87 31 -59 c19 -35 29 -66 25 -76 -6 -16 48 -17 808 -17 l814 0
18 62 c26 89 19 106 -129 302 -73 98 -106 158 -160 296 -69 175 -113 326 -164
555 -12 50 -30 119 -41 155 -16 53 -18 70 -8 96 9 27 7 35 -17 72 -32 49 -92
282 -72 282 11 0 122 -41 131 -49 29 -23 125 -49 171 -46 74 4 77 4 71 14 -3
5 3 20 14 34 16 20 17 27 7 36 -8 6 -103 42 -213 81 -109 39 -204 76 -211 82
-8 6 -13 35 -13 74 0 75 15 90 71 74 19 -6 57 -10 86 -10 81 0 90 21 93 215 2
165 -44 304 -149 443 -59 78 -223 234 -313 299 -34 25 -58 53 -78 93 -26 52
-72 102 -117 129 -17 10 -17 12 6 29 23 18 23 19 6 53 -40 78 -61 84 -132 40
-26 -16 -50 -28 -53 -26 -3 2 -7 25 -9 52 -1 26 -8 54 -15 61 -16 17 -106 25
-128 12z m710 -819 c63 -92 106 -220 88 -266 -9 -24 -43 -2 -63 40 -9 20 -28
38 -43 44 -24 8 -28 15 -33 67 -3 33 -15 85 -26 118 -12 32 -18 62 -16 67 11
17 56 -16 93 -70z m-240 -27 c33 -21 28 -38 -10 -30 -37 7 -78 32 -78 47 0 13
57 2 88 -17z m-152 -595 c20 -39 9 -51 -42 -47 -35 3 -39 6 -36 28 4 41 10 50
36 50 18 0 30 -9 42 -31z"/>
</g>
</svg>
