<?xml version="1.0" standalone="no"?>
<!DOCTYPE svg PUBLIC "-//W3C//DTD SVG 20010904//EN"
 "http://www.w3.org/TR/2001/REC-SVG-20010904/DTD/svg10.dtd">
<svg version="1.0" xmlns="http://www.w3.org/2000/svg"
 width="480.000000pt" height="360.000000pt" viewBox="0 0 480.000000 360.000000"
 preserveAspectRatio="xMidYMid meet">
<metadata>
Created by potrace 1.16, written by Peter Selinger 2001-2019
</metadata>
<rect width="1" height="360" fill="#000000"/>
<rect x="479" width="1" height="360" fill="#000000"/>
<rect width="480" height="1" fill="#000000"/>
<rect y="359" width="480" height="1" fill="#000000"/>
<g transform="translate(0.000000,360.000000) scale(0.100000,-0.100000)"
fill="#000000" stroke="none">
<path d="M3803 3481 c-83 -54 -182 -138 -288 -246 -80 -82 -219 -214 -301
-286 -16 -14 -63 -48 -104 -76 -91 -62 -140 -100 -202 -159 -36 -34 -53 -44
-68 -39 -16 5 -18 10 -10 25 18 33 11 77 -16 110 -22 26 -33 31 -63 28 -35 -3
-36 -4 -33 -38 2 -25 -4 -43 -18 -58 -18 -20 -30 -22 -113 -21 -99 2 -115 -3
-267 -75 -64 -30 -70 -35 -45 -36 l30 -1 -30 -22 c-16 -12 -41 -32 -55 -45
-24 -23 -24 -23 -2 -17 27 8 27 9 2 -40 -13 -26 -20 -58 -19 -95 0 -62 11
-101 23 -82 14 23 26 12 26 -23 0 -37 -1 -37 -64 -38 -26 -1 -31 5 -51 61 -25
70 -59 113 -130 167 -79 59 -107 68 -210 63 -52 -2 -99 -10 -111 -18 -42 -26
-83 -3 -136 78 -99 148 -258 232 -443 232 -144 0 -253 -45 -349 -143 -105
-108 -166 -271 -166 -447 0 -215 72 -341 248 -433 72 -38 183 -67 255 -67 23
0 70 6 105 14 34 7 62 10 62 6 0 -4 -18 -28 -41 -54 -30 -34 -40 -52 -35 -69
3 -15 -5 -37 -24 -66 -23 -34 -27 -47 -19 -62 14 -27 23 -24 68 23 l40 43 26
-25 c25 -23 25 -24 7 -43 -18 -18 -18 -19 9 -48 15 -16 32 -29 38 -29 13 0 16
-13 36 -183 9 -75 23 -156 31 -178 7 -23 14 -58 14 -77 0 -22 8 -44 20 -57 18
-19 19 -28 12 -62 -5 -21 -20 -50 -34 -64 -42 -42 -58 -175 -26 -216 18 -22
-3 -83 -37 -109 -47 -36 -83 -148 -65 -203 10 -32 10 -43 -4 -69 -9 -18 -24
-32 -35 -32 -29 0 -65 -52 -96 -141 l-14 -39 54 0 c43 0 55 3 55 16 0 10 -7
14 -22 12 -25 -3 -26 6 -7 53 8 21 16 25 44 25 38 -1 39 -9 9 -68 -18 -36 -18
-38 10 -38 19 0 27 10 45 51 25 61 26 77 7 98 -24 26 9 90 53 105 37 12 53 43
71 138 7 38 6 53 -6 75 -23 39 -4 110 31 119 29 7 44 46 52 136 5 62 4 69 -17
86 -20 16 -22 24 -16 65 6 38 13 49 42 66 19 12 44 21 56 21 21 0 181 51 232
75 50 22 108 45 116 45 4 0 2 -17 -6 -38 -21 -60 -17 -211 11 -362 34 -178 44
-402 21 -445 -9 -16 -16 -40 -16 -51 0 -12 -7 -25 -15 -28 -9 -3 -23 -22 -31
-42 -8 -19 -30 -49 -49 -66 -19 -16 -35 -34 -35 -39 0 -4 217 -9 482 -9 l481
0 -18 20 c-28 30 -10 36 20 6 l26 -26 207 0 207 0 44 78 c24 42 73 133 109
202 l64 125 -4 85 c-6 142 -44 203 -320 505 l-128 140 6 50 c7 57 55 236 155
574 68 229 79 261 79 229 0 -9 4 -18 8 -20 4 -1 18 -18 31 -35 12 -18 29 -33
38 -33 17 0 52 38 53 58 0 6 6 12 13 12 14 0 14 1 73 121 60 122 74 157 74
185 0 14 5 34 10 44 14 26 14 161 1 203 -16 47 -75 79 -160 85 -73 5 -117 -11
-179 -63 -29 -24 -82 -35 -82 -16 0 7 137 157 270 294 l27 29 41 -21 c59 -30
92 -27 153 15 30 20 74 43 99 51 69 23 76 34 45 71 -14 17 -44 42 -66 54 l-40
22 46 24 c57 28 56 47 -2 77 l-42 21 65 94 c36 51 92 129 125 171 32 43 59 80
59 83 0 15 -32 3 -87 -33z m-1623 -1317 c0 -13 -4 -24 -10 -24 -5 0 -10 14
-10 31 0 17 4 28 10 24 6 -3 10 -17 10 -31z m-18 -224 c2 -25 11 -40 34 -55
l30 -21 -37 -119 c-20 -66 -49 -158 -64 -205 -32 -104 -41 -111 -200 -174 -66
-27 -156 -66 -199 -87 -44 -21 -80 -39 -81 -39 -2 0 -13 55 -26 121 l-23 122
28 24 28 24 -25 20 c-34 26 -60 116 -51 175 3 24 9 44 13 44 4 0 33 -9 66 -21
70 -25 154 -20 245 13 97 36 154 87 224 202 21 33 33 25 38 -24z m-678 -1223
c-7 -65 -11 -72 -44 -73 -27 -1 -30 2 -30 32 0 55 14 79 48 81 30 2 31 2 26
-40z m1541 -91 c35 -30 74 -60 87 -67 13 -6 25 -13 27 -15 2 -2 -35 -81 -81
-176 -47 -95 -88 -183 -92 -195 -6 -18 -15 -23 -42 -23 -25 0 -34 -5 -36 -17
0 -10 -2 -22 -3 -28 -2 -5 -3 -15 -4 -21 0 -7 -18 4 -38 23 -21 19 -50 41 -65
49 -31 16 -32 21 -18 79 5 22 18 98 30 170 11 72 27 162 34 200 12 62 14 65
16 30 1 -30 3 -35 9 -21 12 31 23 2 22 -59 0 -30 4 -57 9 -60 9 -5 60 140 60
171 0 24 19 16 85 -40z m-1615 -217 c0 -7 -5 -29 -12 -51 -8 -26 -17 -38 -27
-36 -9 1 -21 -1 -28 -5 -19 -12 -22 5 -10 56 10 44 12 47 44 47 18 0 33 -5 33
-11z m1380 -300 c0 -18 -35 -5 -38 14 -3 16 -1 17 17 7 12 -6 21 -15 21 -21z
m-849 -32 c-17 -17 -24 -1 -10 25 12 21 14 21 17 4 2 -10 -1 -23 -7 -29z m889
-27 c0 -5 -2 -10 -4 -10 -3 0 -8 5 -11 10 -3 6 -1 10 4 10 6 0 11 -4 11 -10z"/>
</g>
</svg>
