<?xml version="1.0" standalone="no"?>
<!DOCTYPE svg PUBLIC "-//W3C//DTD SVG 20010904//EN"
 "http://www.w3.org/TR/2001/REC-SVG-20010904/DTD/svg10.dtd">
<svg version="1.0" xmlns="http://www.w3.org/2000/svg"
 width="480.000000pt" height="360.000000pt" viewBox="0 0 480.000000 360.000000"
 preserveAspectRatio="xMidYMid meet">
<metadata>
Created by potrace 1.16, written by Peter Selinger 2001-2019
</metadata>
<rect width="1" height="360" fill="#000000"/>
<rect x="479" width="1" height="360" fill="#000000"/>
<rect width="480" height="1" fill="#000000"/>
<rect y="359" width="480" height="1" fill="#000000"/>
<g transform="translate(0.000000,360.000000) scale(0.100000,-0.100000)"
fill="#000000" stroke="none">
<path d="M0 1800 l0 -1800 1124 0 1125 0 6 21 c8 24 12 21 -50 40 -36 11 -58
13 -78 6 -36 -12 -41 -6 -39 43 3 35 0 40 -18 40 -21 0 -21 3 -15 78 4 42 25
147 45 232 21 85 50 222 64 303 17 94 37 176 57 222 24 59 28 78 20 94 -6 11
-10 35 -9 53 2 26 -1 32 -14 30 -27 -4 -34 38 -9 57 18 14 19 19 8 41 -18 36
-41 36 -86 -1 -29 -23 -54 -33 -88 -36 -46 -4 -50 -3 -92 40 -24 25 -49 43
-57 40 -13 -5 -18 15 -28 118 -5 50 -3 60 30 111 38 61 139 145 231 192 61 31
67 40 87 136 18 86 33 112 86 145 29 18 40 32 40 50 0 13 3 26 8 29 4 2 7 27
6 55 0 28 2 51 5 51 6 0 44 -60 45 -72 1 -4 10 -14 21 -21 16 -13 17 -17 6
-31 -12 -14 -9 -16 25 -16 68 -1 115 -30 172 -109 57 -77 56 -77 178 -85 118
-8 177 -33 278 -122 l86 -76 0 -64 c0 -36 -5 -75 -11 -86 -10 -18 -17 -20 -84
-13 l-73 6 -10 -29 c-14 -40 -66 -97 -107 -116 -42 -20 -118 -22 -203 -6 -56
11 -64 11 -82 -5 -15 -13 -17 -22 -9 -42 5 -13 9 -35 9 -47 0 -13 9 -31 20
-41 12 -11 20 -28 18 -40 -1 -12 14 -53 35 -93 34 -65 45 -101 63 -207 11 -67
14 -74 28 -69 16 6 21 0 30 -37 5 -22 2 -28 -15 -32 -17 -5 -20 -11 -15 -29
18 -67 18 -73 9 -63 -5 6 -15 29 -22 52 -6 24 -16 43 -21 43 -13 0 -12 -14 1
-84 9 -43 9 -60 0 -69 -8 -8 -11 -8 -11 1 0 7 -5 12 -11 12 -8 0 -9 -13 -5
-41 4 -27 3 -38 -4 -34 -6 3 -13 -1 -16 -9 -6 -17 10 -41 101 -156 71 -88 82
-110 61 -122 -14 -8 -15 -12 -1 -38 22 -42 19 -48 -21 -56 -24 -4 -39 -14 -46
-30 -6 -13 -19 -25 -30 -25 -10 -1 -22 -3 -28 -4 -5 -1 -16 -3 -23 -4 -7 0
-31 -16 -53 -35 -22 -19 -51 -36 -64 -39 -14 -2 480 -5 1098 -6 l1122 -1 0
1800 0 1800 -1070 0 c-588 0 -1070 -3 -1070 -6 0 -3 14 -45 31 -92 42 -120 59
-215 59 -337 0 -225 -55 -360 -231 -566 -80 -93 -117 -155 -124 -207 -11 -77
-15 -80 -39 -22 -19 48 -149 239 -269 395 -53 70 -113 198 -128 273 -15 79 -7
275 16 356 13 49 39 120 72 194 4 9 -204 12 -1021 12 l-1026 0 0 -1800z"/>
<path d="M3083 1611 c-35 -22 -70 -68 -59 -78 3 -4 33 -9 66 -11 57 -4 59 -3
65 21 8 32 -7 81 -26 85 -8 1 -28 -7 -46 -17z"/>
<path d="M2880 1483 c-72 -12 -220 -75 -220 -94 0 -13 61 -22 138 -21 57 1 81
6 109 23 31 20 73 71 73 92 0 7 -56 8 -100 0z"/>
<path d="M1927 1341 c-16 -6 -13 -12 26 -54 32 -35 51 -47 72 -47 38 0 115 38
115 56 0 37 -153 69 -213 45z"/>
<path d="M2350 20 c0 -18 6 -20 61 -20 44 0 60 3 57 12 -3 8 -18 12 -41 10
-19 -2 -45 2 -56 8 -18 9 -21 8 -21 -10z"/>
</g>
</svg>
