<?xml version="1.0" standalone="no"?>
<!DOCTYPE svg PUBLIC "-//W3C//DTD SVG 20010904//EN"
 "http://www.w3.org/TR/2001/REC-SVG-20010904/DTD/svg10.dtd">
<svg version="1.0" xmlns="http://www.w3.org/2000/svg"
 width="480.000000pt" height="360.000000pt" viewBox="0 0 480.000000 360.000000"
 preserveAspectRatio="xMidYMid meet">
<metadata>
Created by potrace 1.16, written by Peter Selinger 2001-2019
</metadata>
<rect width="1" height="360" fill="#000000"/>
<rect x="479" width="1" height="360" fill="#000000"/>
<rect width="480" height="1" fill="#000000"/>
<rect y="359" width="480" height="1" fill="#000000"/>
<g transform="translate(0.000000,360.000000) scale(0.100000,-0.100000)"
fill="#000000" stroke="none">
<path d="M2463 3580 c-4 -16 -10 -19 -27 -13 -11 4 -50 7 -86 7 -63 -1 -103
-14 -161 -51 -26 -16 -27 -16 -50 10 -18 21 -41 31 -94 42 -129 27 -277 18
-428 -26 -60 -18 -69 -24 -87 -60 l-20 -39 21 -53 c58 -141 84 -199 96 -209 7
-6 13 -19 13 -30 0 -11 8 -32 19 -46 10 -15 25 -43 34 -63 8 -19 32 -51 54
-70 36 -31 41 -40 45 -90 3 -37 17 -83 41 -134 30 -62 37 -89 37 -136 0 -41
-4 -59 -13 -59 -15 0 -50 -279 -36 -295 9 -12 -4 -80 -23 -116 -7 -13 -34 -53
-60 -89 -25 -36 -57 -86 -71 -112 -14 -26 -35 -59 -46 -74 -12 -15 -21 -35
-21 -45 0 -10 -5 -21 -11 -25 -13 -8 -85 -160 -95 -200 -4 -16 -11 -34 -16
-41 -5 -6 -8 -17 -7 -25 2 -7 -2 -23 -9 -35 -6 -12 -23 -90 -37 -175 -22 -135
-25 -180 -23 -388 1 -132 6 -238 11 -241 5 -4 5 -15 -2 -27 -6 -11 -8 -28 -5
-37 7 -17 10 -40 13 -83 0 -12 7 -21 13 -20 7 2 14 -7 16 -19 5 -31 13 -29 40
12 12 19 26 35 30 35 9 -1 62 -87 62 -101 0 -6 -11 -29 -25 -53 -48 -83 -57
-122 -45 -210 6 -45 16 -91 22 -103 6 -12 8 -37 4 -57 l-7 -36 159 0 159 0 43
92 c24 50 45 87 47 81 3 -9 -25 -93 -52 -155 -7 -17 34 -18 771 -18 669 1 782
3 798 15 11 8 28 15 38 15 10 0 27 9 38 20 17 17 20 33 20 108 0 48 -5 106
-10 128 -8 35 -5 54 15 115 49 143 48 152 -43 344 -139 297 -302 711 -302 768
0 15 11 56 25 93 14 36 22 71 19 76 -4 7 -33 8 -74 5 l-68 -6 -15 57 c-9 31
-25 110 -36 174 -27 167 -60 216 -206 307 -28 17 -42 31 -32 31 9 0 17 2 17 5
0 3 14 74 31 158 25 125 30 172 28 267 l-3 114 39 8 c22 5 45 6 52 4 7 -3 15
-1 18 5 4 5 10 7 15 4 17 -10 43 43 35 72 -7 30 -60 105 -137 194 -26 30 -48
58 -48 62 0 4 12 2 26 -3 14 -6 57 -11 96 -13 75 -2 73 -4 82 53 1 9 5 20 9
27 4 6 4 18 1 27 -3 9 -2 22 4 29 11 13 9 149 -3 183 -4 12 -2 25 3 28 7 4 7
19 0 44 -6 20 -11 47 -10 60 l2 22 -306 0 c-299 0 -306 0 -311 -20z m-313
-1259 c-6 -24 -17 -41 -25 -41 -21 0 -19 16 7 69 26 52 36 36 18 -28z m657 37
c-3 -8 -6 -5 -6 6 -1 11 2 17 5 13 3 -3 4 -12 1 -19z m-1017 -627 c0 -64 -1
-65 -41 -75 -26 -6 -26 -5 -15 27 6 17 17 42 24 54 7 12 12 29 12 37 0 9 5 16
10 16 6 0 10 -26 10 -59z m-65 -237 c39 -52 38 -49 26 -229 -7 -100 -13 -124
-65 -265 -32 -85 -61 -159 -66 -163 -10 -11 -22 59 -24 145 -1 37 -5 71 -9 74
-4 4 -2 13 4 21 9 9 8 17 -1 28 -6 8 -8 19 -4 26 4 6 8 28 10 48 8 93 12 119
23 159 7 23 10 46 7 51 -3 5 1 22 10 39 8 17 16 42 18 54 3 31 16 58 27 58 4
0 24 -21 44 -46z m375 -779 c0 -35 -26 -112 -35 -104 -7 7 18 139 27 139 4 0
8 -16 8 -35z"/>
</g>
</svg>
