<?xml version="1.0" standalone="no"?>
<!DOCTYPE svg PUBLIC "-//W3C//DTD SVG 20010904//EN"
 "http://www.w3.org/TR/2001/REC-SVG-20010904/DTD/svg10.dtd">
<svg version="1.0" xmlns="http://www.w3.org/2000/svg"
 width="480.000000pt" height="360.000000pt" viewBox="0 0 480.000000 360.000000"
 preserveAspectRatio="xMidYMid meet">
<metadata>
Created by potrace 1.16, written by Peter Selinger 2001-2019
</metadata>
<rect width="1" height="360" fill="#000000"/>
<rect x="479" width="1" height="360" fill="#000000"/>
<rect width="480" height="1" fill="#000000"/>
<rect y="359" width="480" height="1" fill="#000000"/>
<g transform="translate(0.000000,360.000000) scale(0.100000,-0.100000)"
fill="#000000" stroke="none">
<path d="M0 1800 l0 -1800 2400 0 2400 0 0 1800 0 1800 -1486 0 -1485 0 5 -42
c3 -24 8 -79 11 -123 10 -133 54 -522 76 -660 67 -439 219 -996 334 -1225 26
-51 41 -92 35 -95 -6 -3 -10 -3 -10 1 0 4 -6 0 -12 -9 -7 -9 -25 -19 -40 -22
-23 -6 -29 -3 -37 18 -5 13 -38 45 -73 70 -342 244 -703 786 -955 1437 -45
116 -169 486 -198 593 l-16 57 -475 0 -474 0 0 -1800z"/>
</g>
</svg>
