<?xml version="1.0" standalone="no"?>
<!DOCTYPE svg PUBLIC "-//W3C//DTD SVG 20010904//EN"
 "http://www.w3.org/TR/2001/REC-SVG-20010904/DTD/svg10.dtd">
<svg version="1.0" xmlns="http://www.w3.org/2000/svg"
 width="480.000000pt" height="360.000000pt" viewBox="0 0 480.000000 360.000000"
 preserveAspectRatio="xMidYMid meet">
<metadata>
Created by potrace 1.16, written by Peter Selinger 2001-2019
</metadata>
<rect width="1" height="360" fill="#000000"/>
<rect x="479" width="1" height="360" fill="#000000"/>
<rect width="480" height="1" fill="#000000"/>
<rect y="359" width="480" height="1" fill="#000000"/>
<g transform="translate(0.000000,360.000000) scale(0.100000,-0.100000)"
fill="#000000" stroke="none">
<path d="M0 1800 l0 -1800 1032 2 c842 3 1032 5 1036 16 2 7 -5 16 -17 19 -12
3 -21 9 -21 13 0 5 19 53 41 107 75 178 131 353 136 422 2 36 8 75 13 86 14
30 60 233 60 261 0 13 -8 32 -18 42 -13 13 -16 25 -11 38 13 33 10 64 -5 58
-25 -10 -31 37 -8 55 13 10 22 31 24 56 3 35 0 40 -20 43 -14 2 -30 -4 -40
-16 -28 -32 -78 -52 -132 -52 -54 0 -71 11 -103 70 -14 25 -21 30 -29 22 -7
-7 -21 -12 -31 -12 -17 0 -19 5 -13 37 4 21 10 63 15 93 14 109 101 200 278
289 68 34 64 28 102 176 12 47 47 83 109 114 44 23 56 37 22 28 -15 -4 -20 0
-20 14 0 11 6 22 14 25 8 3 13 11 10 18 -2 6 -1 30 4 51 l9 40 11 -27 c6 -14
15 -29 21 -32 6 -4 8 -13 4 -21 -3 -9 1 -15 11 -15 8 0 22 -13 31 -30 11 -22
23 -30 42 -30 43 0 91 -39 143 -115 55 -81 41 -75 195 -90 71 -8 153 -43 205
-88 20 -17 59 -50 85 -71 l47 -40 -5 -69 c-4 -58 -9 -73 -31 -96 l-27 -26 -39
23 c-21 12 -43 22 -48 22 -5 0 -22 -25 -37 -56 -52 -106 -144 -137 -268 -90
-37 14 -72 26 -77 26 -5 0 -25 -14 -44 -31 -33 -29 -35 -33 -29 -77 3 -26 14
-62 25 -79 11 -18 16 -38 12 -44 -5 -8 -9 -7 -15 2 -22 37 8 -84 34 -134 27
-52 29 -62 19 -90 -6 -18 -9 -48 -6 -68 11 -63 -30 -103 -62 -61 -12 16 -13
16 -14 -4 0 -44 44 -163 120 -324 84 -178 112 -269 92 -301 -7 -10 -12 -32
-12 -49 l0 -30 990 0 990 0 0 1800 0 1800 -990 0 c-545 0 -990 -1 -990 -2 0
-2 7 -38 15 -81 22 -113 20 -322 -4 -445 -36 -186 -108 -321 -282 -530 -105
-125 -146 -200 -155 -283 -8 -67 -19 -76 -29 -22 -9 51 -37 104 -105 198 -99
138 -286 421 -309 467 -83 172 -104 422 -55 666 l7 32 -952 0 -951 0 0 -1800z"/>
<path d="M3194 1503 c-9 -15 -14 -16 -27 -5 -12 10 -21 11 -36 2 -19 -10 -47
-49 -39 -54 44 -32 69 -46 82 -46 21 0 38 44 34 87 -3 29 -5 31 -14 16z"/>
<path d="M2906 1379 c-67 -10 -174 -55 -160 -68 5 -5 38 -18 74 -30 75 -26
115 -22 160 16 27 22 60 71 60 88 0 7 -62 4 -134 -6z"/>
<path d="M1988 1273 c-23 -6 -22 -11 10 -58 38 -55 76 -64 136 -34 57 28 56
44 -3 76 -42 22 -98 28 -143 16z"/>
<path d="M1905 1260 c-3 -5 -1 -10 4 -10 6 0 11 5 11 10 0 6 -2 10 -4 10 -3 0
-8 -4 -11 -10z"/>
<path d="M2605 1260 c3 -5 11 -10 16 -10 6 0 7 5 4 10 -3 6 -11 10 -16 10 -6
0 -7 -4 -4 -10z"/>
</g>
</svg>
