<?xml version="1.0" standalone="no"?>
<!DOCTYPE svg PUBLIC "-//W3C//DTD SVG 20010904//EN"
 "http://www.w3.org/TR/2001/REC-SVG-20010904/DTD/svg10.dtd">
<svg version="1.0" xmlns="http://www.w3.org/2000/svg"
 width="480.000000pt" height="360.000000pt" viewBox="0 0 480.000000 360.000000"
 preserveAspectRatio="xMidYMid meet">
<metadata>
Created by potrace 1.16, written by Peter Selinger 2001-2019
</metadata>
<rect width="1" height="360" fill="#000000"/>
<rect x="479" width="1" height="360" fill="#000000"/>
<rect width="480" height="1" fill="#000000"/>
<rect y="359" width="480" height="1" fill="#000000"/>
<g transform="translate(0.000000,360.000000) scale(0.100000,-0.100000)"
fill="#000000" stroke="none">
<path d="M4416 3543 l-99 -56 -81 10 c-242 29 -583 -81 -769 -247 -90 -81
-177 -214 -177 -271 0 -11 -18 -39 -41 -64 -32 -34 -63 -53 -151 -90 -108 -46
-111 -47 -187 -40 -68 6 -79 4 -102 -14 -29 -23 -77 -137 -63 -151 5 -4 18
-10 29 -12 14 -2 25 -22 41 -68 33 -93 49 -104 151 -96 76 6 82 5 88 -14 4
-11 5 -33 4 -48 -2 -15 -1 -32 2 -37 4 -6 10 -23 14 -40 l9 -30 6 35 6 35 17
-50 c15 -46 55 -105 70 -105 4 0 4 15 1 33 -5 30 -4 31 10 12 8 -11 22 -29 31
-40 16 -19 16 -19 9 5 -4 14 -7 32 -7 40 0 8 -4 21 -10 28 -5 7 -8 15 -5 18 3
3 17 -15 32 -40 14 -24 32 -51 39 -58 8 -7 19 -23 25 -35 11 -20 7 -26 -42
-69 -30 -25 -52 -52 -50 -59 3 -7 21 -21 41 -31 36 -19 53 -48 53 -88 0 -13 9
-31 20 -41 11 -10 17 -21 15 -25 -3 -4 4 -18 14 -31 10 -13 28 -43 39 -66 20
-38 21 -44 7 -82 -16 -45 -11 -50 19 -22 13 12 39 21 66 22 l44 4 -3 -48 c-1
-26 0 -47 3 -47 3 0 20 25 38 55 18 30 36 55 39 55 4 0 12 -20 18 -44 18 -74
34 -76 78 -7 21 33 42 59 48 57 5 -1 18 -25 28 -52 25 -65 17 -134 -18 -176
-19 -22 -24 -38 -20 -57 5 -24 0 -29 -57 -60 -35 -19 -70 -40 -78 -47 -12 -10
-27 -10 -80 1 -36 7 -93 16 -127 20 -53 6 -62 4 -71 -11 -8 -15 -13 -16 -26
-5 -21 18 -55 5 -62 -25 -3 -13 -3 -49 1 -79 l6 -55 -54 0 c-29 0 -76 7 -102
15 -27 8 -51 12 -54 9 -3 -2 1 -25 7 -51 7 -25 9 -49 5 -53 -4 -4 -57 -22
-118 -39 -60 -18 -148 -50 -193 -72 -46 -22 -85 -39 -86 -37 -133 204 -525
705 -583 744 -18 12 -63 29 -100 38 -38 9 -117 35 -178 58 -257 94 -242 91
-377 96 -113 4 -131 2 -170 -16 -29 -14 -74 -22 -138 -27 -52 -3 -112 -8 -134
-12 l-39 -5 6 -53 c7 -73 37 -125 105 -184 69 -60 105 -136 89 -184 -13 -40 5
-57 64 -57 39 0 53 -5 72 -26 35 -38 144 -63 281 -65 70 -1 120 3 134 10 12 7
27 9 32 6 18 -11 146 -189 270 -376 233 -349 309 -429 477 -506 51 -23 64 -25
142 -20 47 3 127 13 176 23 50 9 141 27 203 38 77 15 115 19 120 12 9 -14 8
-342 -1 -378 l-7 -28 498 0 499 0 33 119 c18 66 36 124 39 130 10 16 290 -15
355 -40 74 -27 162 -86 224 -149 l52 -53 0 212 c0 200 -1 211 -20 223 -11 7
-20 20 -20 28 0 9 9 33 20 55 20 39 20 59 20 1557 l0 1518 -142 -1 -143 0 -99
-56z m369 -1962 c10 -17 -12 -21 -25 -6 -10 12 -10 15 3 15 9 0 18 -4 22 -9z
m-53 -101 c5 0 6 9 3 20 -3 11 -2 20 4 20 5 0 17 3 27 7 11 4 15 3 10 -5 -3
-6 -11 -57 -16 -115 -12 -127 -101 -534 -130 -590 -11 -23 -37 -61 -58 -83
l-38 -42 -63 42 -64 41 2 82 c3 110 -11 181 -71 361 -50 151 -55 193 -16 139
28 -38 42 -35 34 9 -6 30 -5 34 8 27 9 -5 27 -24 42 -43 l26 -35 -8 104 c-8
123 -7 123 83 17 32 -38 64 -71 71 -74 9 -3 12 17 12 77 0 74 2 81 20 81 14 0
20 7 20 21 0 18 6 16 46 -20 26 -23 51 -41 56 -41z"/>
</g>
</svg>
