<?xml version="1.0" standalone="no"?>
<!DOCTYPE svg PUBLIC "-//W3C//DTD SVG 20010904//EN"
 "http://www.w3.org/TR/2001/REC-SVG-20010904/DTD/svg10.dtd">
<svg version="1.0" xmlns="http://www.w3.org/2000/svg"
 width="480.000000pt" height="360.000000pt" viewBox="0 0 480.000000 360.000000"
 preserveAspectRatio="xMidYMid meet">
<metadata>
Created by potrace 1.16, written by Peter Selinger 2001-2019
</metadata>
<rect width="1" height="360" fill="#000000"/>
<rect x="479" width="1" height="360" fill="#000000"/>
<rect width="480" height="1" fill="#000000"/>
<rect y="359" width="480" height="1" fill="#000000"/>
<g transform="translate(0.000000,360.000000) scale(0.100000,-0.100000)"
fill="#000000" stroke="none">
<path d="M690 3560 c-54 -38 -55 -40 -66 -105 -11 -65 -10 -67 13 -76 12 -4
23 -12 23 -16 0 -5 -25 -21 -55 -37 -114 -59 -181 -140 -164 -199 12 -41 50
-95 71 -100 14 -4 17 -12 11 -39 -4 -23 -35 -63 -106 -138 -73 -78 -109 -125
-138 -182 -46 -92 -48 -114 -13 -130 24 -11 29 -10 48 14 11 14 35 49 51 78
41 70 113 158 133 162 37 8 51 -4 58 -48 3 -24 14 -54 23 -67 31 -39 59 -120
81 -227 12 -58 24 -114 26 -125 3 -11 8 -45 11 -76 9 -86 -28 -157 -166 -319
-91 -107 -113 -140 -115 -173 -1 -18 -17 -57 -37 -87 -20 -30 -62 -95 -93
-145 -77 -121 -153 -232 -197 -286 -20 -24 -44 -59 -55 -77 -10 -17 -22 -32
-26 -32 -4 0 -8 -163 -8 -362 l1 -363 86 -40 86 -40 166 -6 c91 -4 219 -10
283 -14 110 -8 117 -9 122 -31 12 -45 27 -228 21 -251 l-5 -23 119 0 119 0
-16 33 c-23 43 -31 308 -10 324 7 6 58 20 112 32 108 22 115 21 116 -29 1 -48
40 -203 56 -221 9 -10 65 -45 126 -79 l109 -60 214 0 213 0 30 38 c16 20 62
87 102 147 l72 110 -6 -66 c-4 -37 -13 -89 -21 -115 -8 -27 -15 -64 -15 -81
l0 -33 104 0 c123 0 123 1 104 116 -9 57 -8 112 4 280 l16 209 81 77 c119 113
181 119 148 15 -19 -61 -22 -134 -7 -188 6 -20 35 -70 65 -110 32 -45 58 -92
65 -119 10 -43 29 -211 30 -257 l0 -23 705 0 704 0 7 36 c6 34 -12 410 -21
444 -3 8 -23 142 -45 297 -44 313 -49 427 -25 588 50 323 57 402 56 585 -1
142 -6 209 -22 290 -23 121 -68 253 -103 307 -14 21 -33 58 -42 83 -27 68 -56
109 -121 171 -123 117 -232 149 -516 153 -179 2 -199 0 -214 -16 -9 -10 -22
-18 -30 -18 -8 0 -38 -11 -68 -25 -56 -27 -165 -134 -220 -215 -16 -25 -54
-78 -83 -119 -54 -74 -54 -77 6 -33 38 29 39 24 12 -53 -13 -39 -17 -61 -10
-65 9 -5 29 -96 30 -135 0 -5 6 -2 14 7 11 15 14 13 25 -18 13 -36 37 -49 26
-14 -9 27 6 25 28 -6 24 -32 15 -56 -33 -88 -39 -26 -40 -27 -26 -54 8 -16 22
-35 31 -42 12 -10 15 -23 11 -44 -5 -29 7 -77 30 -121 6 -11 14 -35 18 -54 9
-48 23 -61 68 -61 22 0 41 -5 43 -12 7 -18 -10 -73 -21 -71 -5 1 -23 4 -39 8
l-30 6 24 -21 c13 -11 31 -24 39 -29 12 -7 12 -19 -4 -91 -18 -85 -23 -94 -88
-143 -20 -15 -36 -35 -36 -43 0 -35 -33 -75 -81 -99 l-50 -26 -56 51 c-32 27
-61 50 -66 50 -19 0 -77 -54 -109 -100 -18 -27 -35 -50 -38 -50 -9 0 19 200
35 256 11 39 12 59 4 85 -29 91 -17 830 16 984 18 84 19 106 4 139 -15 33 -86
61 -132 52 -68 -13 -85 -58 -61 -162 17 -70 17 -101 5 -490 -7 -229 -17 -443
-23 -477 -5 -34 -12 -145 -14 -247 -2 -102 -7 -211 -12 -243 -6 -54 -10 -60
-45 -80 -38 -21 -39 -21 -49 -3 -10 18 -370 499 -389 520 -6 6 -23 -3 -44 -24
-40 -39 -52 -36 -122 24 -45 39 -173 199 -173 217 0 20 -44 96 -95 164 -39 52
-54 82 -59 116 l-7 46 46 5 c25 3 49 8 52 12 11 11 -40 56 -63 56 l-23 0 25
38 c26 37 26 37 4 40 -12 2 -33 -4 -46 -13 -14 -9 -27 -15 -28 -13 -15 26 -26
86 -21 118 6 33 12 41 46 54 32 13 39 20 35 38 -2 13 -10 57 -16 98 -7 41 -19
98 -27 125 -13 47 -13 57 7 132 24 93 28 219 12 384 -9 101 -19 132 -58 186
-15 21 -14 23 19 37 35 14 35 14 26 58 -12 56 -34 86 -93 126 l-48 32 -157 -1
-156 0 -55 -39z"/>
</g>
</svg>
