<?xml version="1.0" standalone="no"?>
<!DOCTYPE svg PUBLIC "-//W3C//DTD SVG 20010904//EN"
 "http://www.w3.org/TR/2001/REC-SVG-20010904/DTD/svg10.dtd">
<svg version="1.0" xmlns="http://www.w3.org/2000/svg"
 width="480.000000pt" height="360.000000pt" viewBox="0 0 480.000000 360.000000"
 preserveAspectRatio="xMidYMid meet">
<metadata>
Created by potrace 1.16, written by Peter Selinger 2001-2019
</metadata>
<rect width="1" height="360" fill="#000000"/>
<rect x="479" width="1" height="360" fill="#000000"/>
<rect width="480" height="1" fill="#000000"/>
<rect y="359" width="480" height="1" fill="#000000"/>
<g transform="translate(0.000000,360.000000) scale(0.100000,-0.100000)"
fill="#000000" stroke="none">
<path d="M0 3022 l0 -578 107 -11 c60 -7 125 -17 147 -23 52 -16 122 -83 157
-152 33 -66 35 -84 13 -109 -13 -14 -13 -24 -4 -58 16 -59 3 -110 -36 -146
-27 -25 -35 -42 -43 -93 -12 -74 -38 -115 -91 -142 -37 -19 -80 -63 -80 -82 0
-5 10 -19 23 -31 12 -12 19 -19 14 -15 -14 10 -44 -23 -51 -58 -8 -37 18 -100
45 -107 16 -4 79 26 79 38 0 3 -9 15 -20 27 -23 24 -26 38 -8 38 6 0 4 8 -7
20 -17 19 -16 19 29 17 51 -3 79 -24 110 -82 l20 -36 -26 -46 c-22 -42 -32
-50 -104 -80 -43 -18 -86 -33 -96 -33 -21 0 -32 -16 -18 -25 8 -5 8 -11 0 -20
-9 -10 -8 -20 4 -37 36 -56 50 -174 53 -448 1 -146 5 -297 9 -336 6 -71 6 -72
-21 -85 -24 -13 -28 -21 -31 -74 -3 -33 -11 -85 -18 -115 -8 -30 -17 -74 -21
-97 l-7 -43 481 0 481 0 0 33 c0 43 10 77 22 77 9 0 5 -47 -8 -92 -5 -17 36
-18 774 -18 771 0 780 0 785 20 3 11 11 22 19 24 7 2 29 8 49 15 20 6 44 9 52
5 15 -6 33 -41 29 -57 -1 -4 446 -7 993 -7 l995 0 0 389 c0 333 -2 390 -15
401 -19 16 -19 30 0 30 13 0 15 161 15 1390 l0 1390 -1424 0 c-1231 0 -1425
-2 -1429 -14 -3 -8 -17 -22 -31 -31 -23 -15 -26 -15 -50 0 -14 10 -26 24 -26
31 0 12 -143 14 -920 14 l-920 0 0 -578z m2974 484 c-7 -19 -64 -52 -64 -37 0
10 62 62 67 57 2 -2 1 -11 -3 -20z m-1690 -100 c-8 -21 -49 -46 -74 -46 -28 0
-17 16 28 40 45 23 53 24 46 6z m304 -106 c-21 -13 -116 -26 -105 -15 7 8 68
21 107 23 12 1 12 -1 -2 -8z m-22 -81 c51 -25 76 -57 32 -41 -12 5 -48 12 -78
16 -56 7 -100 28 -100 48 0 18 93 4 146 -23z m1269 -79 c-3 -5 -40 -10 -81
-10 -43 0 -74 4 -74 10 0 6 34 10 81 10 51 0 78 -4 74 -10z m1761 -135 c9 -37
-1 -53 -42 -64 -46 -13 -79 8 -68 43 11 36 25 46 65 46 33 0 40 -4 45 -25z
m-3036 -225 c11 -7 2 -10 -32 -10 -26 0 -50 5 -53 10 -8 13 65 13 85 0z m1305
-61 c39 -35 38 -49 -5 -49 -39 0 -74 14 -99 41 -30 33 -26 39 24 39 35 0 51
-6 80 -31z m-1992 -201 c15 -20 18 -35 13 -65 -10 -58 -19 -68 -47 -52 -36 19
-48 40 -49 85 0 33 4 43 23 52 29 14 37 11 60 -20z m2035 -820 c3 -17 -30 -58
-48 -58 -20 0 -22 28 -4 55 18 28 47 30 52 3z m1567 -31 c29 -22 8 -37 -50
-37 -56 0 -69 7 -59 34 8 20 82 22 109 3z m-3229 -39 c-4 -18 -17 -44 -30 -57
-20 -19 -27 -21 -45 -12 -47 26 -1 100 63 101 16 0 17 -5 12 -32z m-815 -58
c24 -14 25 -30 0 -30 -21 0 -45 23 -34 33 8 9 11 9 34 -3z m2275 -35 c-4 -20
-13 -35 -21 -35 -15 0 -13 26 5 60 16 30 24 18 16 -25z m194 5 c37 -29 51 -56
65 -127 6 -28 4 -33 -12 -33 -39 0 -114 33 -130 56 -17 27 -36 111 -27 125 12
20 67 8 104 -21z m591 -116 c117 -34 124 -64 14 -64 -112 0 -188 39 -127 67
37 16 50 15 113 -3z m-1608 -191 c8 -10 19 -31 22 -46 7 -28 7 -28 -31 -25
-29 2 -42 9 -53 29 -8 14 -11 33 -8 42 8 22 50 22 70 0z m1877 -52 c0 -8 -85
-91 -93 -91 -12 0 -67 33 -67 40 0 15 29 32 77 45 58 16 83 18 83 6z m-1290
-66 c0 -18 -21 -65 -30 -65 -3 0 -15 6 -25 14 -17 12 -18 18 -7 40 13 29 62
38 62 11z m-118 -175 c-4 -37 -47 -57 -127 -58 -38 -1 -85 21 -72 34 3 3 29 7
57 9 28 1 58 9 68 17 40 35 78 34 74 -2z m1558 -55 c0 -24 -5 -56 -11 -72
l-10 -28 -19 25 c-11 14 -20 31 -20 38 0 20 43 91 52 86 5 -3 8 -25 8 -49z
m-1360 -284 c0 -11 -25 -21 -56 -21 -36 0 -29 18 9 23 17 2 35 5 40 5 4 1 7
-2 7 -7z m1190 -107 c15 -38 13 -49 -16 -83 -21 -26 -28 -29 -39 -17 -18 18
-21 35 -11 71 15 59 49 74 66 29z m-776 -5 c-12 -20 -95 -52 -106 -41 -6 6 5
15 34 25 39 14 68 24 76 26 2 1 0 -4 -4 -10z m-2367 -111 c42 -46 55 -86 42
-126 -14 -45 -36 -82 -49 -82 -6 0 -10 6 -10 13 0 21 -32 45 -65 49 -21 2 -32
10 -39 29 -14 40 0 79 27 79 15 0 29 11 40 30 22 36 27 37 54 8z m1521 -222
c-7 -85 -48 -117 -48 -37 0 44 20 91 39 91 10 0 12 -13 9 -54z"/>
<path d="M0 170 l0 -170 35 0 35 0 0 164 c0 175 0 176 -51 176 -18 0 -19 -9
-19 -170z"/>
</g>
</svg>
