<?xml version="1.0" standalone="no"?>
<!DOCTYPE svg PUBLIC "-//W3C//DTD SVG 20010904//EN"
 "http://www.w3.org/TR/2001/REC-SVG-20010904/DTD/svg10.dtd">
<svg version="1.0" xmlns="http://www.w3.org/2000/svg"
 width="480.000000pt" height="360.000000pt" viewBox="0 0 480.000000 360.000000"
 preserveAspectRatio="xMidYMid meet">
<metadata>
Created by potrace 1.16, written by Peter Selinger 2001-2019
</metadata>
<rect width="1" height="360" fill="#000000"/>
<rect x="479" width="1" height="360" fill="#000000"/>
<rect width="480" height="1" fill="#000000"/>
<rect y="359" width="480" height="1" fill="#000000"/>
<g transform="translate(0.000000,360.000000) scale(0.100000,-0.100000)"
fill="#000000" stroke="none">
<path d="M684 3563 c3 -21 10 -85 16 -143 5 -58 14 -136 20 -175 6 -38 24
-171 41 -295 30 -224 52 -345 69 -387 12 -29 42 -63 56 -63 19 0 74 -57 74
-76 0 -10 14 -77 31 -148 47 -192 57 -150 47 194 -7 203 -60 521 -185 1103 -5
27 -6 27 -90 27 l-85 0 6 -37z"/>
</g>
</svg>
