<?xml version="1.0" standalone="no"?>
<!DOCTYPE svg PUBLIC "-//W3C//DTD SVG 20010904//EN"
 "http://www.w3.org/TR/2001/REC-SVG-20010904/DTD/svg10.dtd">
<svg version="1.0" xmlns="http://www.w3.org/2000/svg"
 width="480.000000pt" height="360.000000pt" viewBox="0 0 480.000000 360.000000"
 preserveAspectRatio="xMidYMid meet">
<metadata>
Created by potrace 1.16, written by Peter Selinger 2001-2019
</metadata>
<rect width="1" height="360" fill="#000000"/>
<rect x="479" width="1" height="360" fill="#000000"/>
<rect width="480" height="1" fill="#000000"/>
<rect y="359" width="480" height="1" fill="#000000"/>
<g transform="translate(0.000000,360.000000) scale(0.100000,-0.100000)"
fill="#000000" stroke="none">
<path d="M0 2280 l0 -1320 37 0 c41 0 376 24 558 40 391 35 685 62 790 74 66
8 152 17 190 21 39 3 97 10 130 15 33 5 103 14 155 20 240 28 466 62 477 72
18 15 16 65 -3 72 -24 9 -69 7 -80 -4 -5 -5 -58 -7 -132 -3 -102 5 -125 9
-132 23 -8 15 -20 17 -82 13 -40 -3 -77 -9 -82 -14 -14 -13 -153 -11 -174 2
-22 14 -95 -16 -131 -55 -24 -26 -47 -26 -37 1 3 8 2 12 -3 9 -15 -9 1 87 20
124 22 42 169 193 230 235 23 17 67 62 96 100 l53 70 -56 7 c-46 6 -64 4 -100
-13 -25 -11 -51 -18 -59 -17 -8 2 -27 -10 -41 -27 l-26 -30 24 35 c14 19 33
50 42 68 20 40 51 76 126 152 82 82 136 164 249 375 114 212 275 535 270 539
-37 25 -201 173 -214 193 -23 35 -24 124 -1 178 9 22 40 75 67 117 47 71 50
80 44 120 -5 36 -2 49 19 81 14 21 26 40 26 42 0 3 -312 5 -694 5 -653 0 -695
-1 -700 -17 -13 -46 -29 -230 -29 -343 0 -151 12 -215 95 -479 48 -154 59
-203 55 -235 -3 -23 -29 -91 -57 -152 -59 -130 -74 -201 -67 -304 12 -150 57
-242 148 -302 27 -17 49 -35 49 -39 0 -5 19 -17 43 -29 l42 -20 -87 4 c-73 3
-95 8 -134 31 -103 60 -167 141 -208 262 -41 122 -50 203 -36 328 19 163 13
211 -44 335 -75 166 -116 277 -137 370 -28 132 -42 309 -35 458 l7 132 -231 0
-230 0 0 -1320z"/>
<path d="M2890 3595 c0 -3 10 -19 22 -35 15 -21 25 -27 33 -20 7 6 43 21 81
35 l69 24 -102 1 c-57 0 -103 -2 -103 -5z"/>
<path d="M3555 3590 c-9 -14 -114 -67 -283 -141 -217 -97 -281 -119 -339 -119
-48 0 -56 -3 -99 -45 l-46 -45 16 -34 c13 -28 15 -52 10 -119 l-7 -85 33 -41
c25 -30 33 -52 35 -83 2 -61 39 -138 113 -237 62 -83 102 -151 117 -200 5 -16
4 -21 -4 -17 -6 4 -11 1 -11 -7 0 -10 -8 -13 -26 -9 -30 6 -31 24 4 -178 23
-129 46 -328 45 -378 -1 -38 -21 -92 -35 -92 -5 0 -18 -21 -29 -47 l-20 -46
-38 37 c-22 21 -44 35 -49 32 -6 -4 -9 -36 -7 -79 2 -39 5 -131 5 -204 1 -100
4 -133 15 -136 12 -5 85 12 535 128 186 47 569 152 623 169 23 8 89 28 147 46
266 80 311 93 395 119 50 16 102 31 118 35 l27 6 0 825 0 825 -41 0 c-45 0
-186 28 -448 89 l-174 41 -288 0 c-186 0 -290 -4 -294 -10z"/>
<path d="M2281 3205 c-17 -20 -31 -39 -31 -43 0 -5 18 -26 41 -47 l41 -40 -7
80 c-4 44 -9 81 -10 83 -1 1 -16 -13 -34 -33z"/>
</g>
</svg>
