<?xml version="1.0" standalone="no"?>
<!DOCTYPE svg PUBLIC "-//W3C//DTD SVG 20010904//EN"
 "http://www.w3.org/TR/2001/REC-SVG-20010904/DTD/svg10.dtd">
<svg version="1.0" xmlns="http://www.w3.org/2000/svg"
 width="480.000000pt" height="360.000000pt" viewBox="0 0 480.000000 360.000000"
 preserveAspectRatio="xMidYMid meet">
<metadata>
Created by potrace 1.16, written by Peter Selinger 2001-2019
</metadata>
<rect width="1" height="360" fill="#000000"/>
<rect x="479" width="1" height="360" fill="#000000"/>
<rect width="480" height="1" fill="#000000"/>
<rect y="359" width="480" height="1" fill="#000000"/>
<g transform="translate(0.000000,360.000000) scale(0.100000,-0.100000)"
fill="#000000" stroke="none">
<path d="M0 1800 l0 -1800 1371 0 c863 0 1368 4 1364 9 -15 25 -103 559 -125
761 -6 58 -20 141 -31 185 -10 44 -19 95 -19 112 0 18 -11 61 -24 96 -13 35
-29 97 -35 136 -6 40 -35 134 -65 209 -41 105 -56 158 -64 227 -10 85 -8 111
14 312 7 61 6 62 -30 99 -20 20 -36 45 -36 54 0 36 -22 80 -40 80 -31 0 -67
53 -74 110 -7 52 12 136 37 168 6 7 9 36 8 63 -1 34 3 54 14 65 9 9 13 24 10
33 -4 9 -9 28 -12 43 -5 23 -2 27 23 30 27 3 29 6 29 48 l0 45 58 3 c39 2 68
-2 90 -13 18 -9 63 -26 100 -36 38 -11 85 -31 105 -44 86 -59 210 -202 328
-380 22 -33 70 -104 106 -157 37 -53 97 -157 133 -230 57 -114 68 -145 75
-210 5 -43 14 -87 21 -100 13 -24 15 -112 5 -203 -4 -33 -8 -85 -9 -117 -1
-31 -5 -60 -9 -64 -5 -4 -8 -21 -8 -37 0 -26 -33 -87 -52 -95 -13 -6 -9 -39 6
-52 24 -19 54 -124 96 -331 21 -107 55 -270 75 -364 20 -93 40 -195 45 -225
15 -85 31 -162 42 -197 l10 -33 634 0 634 0 0 1800 0 1800 -2400 0 -2400 0 0
-1800z"/>
</g>
</svg>
