<?xml version="1.0" standalone="no"?>
<!DOCTYPE svg PUBLIC "-//W3C//DTD SVG 20010904//EN"
 "http://www.w3.org/TR/2001/REC-SVG-20010904/DTD/svg10.dtd">
<svg version="1.0" xmlns="http://www.w3.org/2000/svg"
 width="480.000000pt" height="360.000000pt" viewBox="0 0 480.000000 360.000000"
 preserveAspectRatio="xMidYMid meet">
<metadata>
Created by potrace 1.16, written by Peter Selinger 2001-2019
</metadata>
<rect width="1" height="360" fill="#000000"/>
<rect x="479" width="1" height="360" fill="#000000"/>
<rect width="480" height="1" fill="#000000"/>
<rect y="359" width="480" height="1" fill="#000000"/>
<g transform="translate(0.000000,360.000000) scale(0.100000,-0.100000)"
fill="#000000" stroke="none">
<path d="M2083 3096 c-125 -40 -210 -144 -254 -314 -15 -55 -19 -93 -14 -133
6 -57 6 -57 -29 -79 -20 -12 -44 -21 -53 -20 -32 4 -41 0 -46 -19 -2 -11 -23
-31 -46 -45 -22 -15 -41 -30 -41 -34 0 -10 68 -111 93 -139 11 -13 28 -23 37
-23 10 0 25 -20 39 -55 13 -30 27 -52 32 -49 5 3 9 0 9 -6 0 -17 -60 -100 -76
-107 -24 -9 -16 -33 11 -33 29 0 32 -15 10 -67 -20 -48 -12 -53 26 -17 18 16
33 25 36 19 2 -5 12 -28 22 -50 l18 -40 12 43 c6 23 13 42 15 42 1 0 20 -34
41 -75 21 -41 42 -75 47 -75 5 0 6 6 3 13 -4 6 2 2 12 -11 21 -26 33 -20 33
15 l0 24 25 -28 c20 -22 26 -25 34 -14 7 11 11 9 20 -8 7 -12 16 -19 22 -16 5
4 9 -3 9 -15 0 -30 -51 -49 -195 -71 -160 -26 -201 -47 -241 -123 -18 -33 -46
-103 -64 -157 l-32 -97 -71 -26 c-40 -14 -76 -26 -81 -26 -5 0 -19 11 -32 25
-22 24 -27 25 -162 25 -112 0 -153 4 -206 20 -68 22 -177 89 -260 162 -111 98
-186 151 -278 199 l-97 50 -7 50 c-4 27 -11 52 -16 55 -6 4 -37 -25 -71 -62
-34 -38 -119 -127 -189 -198 l-128 -129 0 -256 0 -256 52 75 c29 41 70 92 90
113 36 37 38 38 66 23 17 -9 41 -38 61 -75 18 -34 36 -61 41 -61 4 0 11 19 15
43 11 64 21 77 59 77 23 0 54 -13 95 -41 67 -45 95 -78 106 -127 3 -17 8 -32
9 -32 2 0 38 16 80 36 145 67 221 53 344 -61 l62 -57 143 95 c146 99 262 162
355 192 53 17 54 17 80 -6 15 -13 30 -26 35 -30 4 -3 -6 -23 -23 -44 -16 -21
-30 -40 -30 -42 0 -2 14 -9 30 -14 17 -6 30 -18 30 -28 0 -9 9 -22 20 -29 20
-12 20 -21 18 -186 -3 -192 -2 -194 61 -224 l36 -17 -2 -74 c-2 -77 -9 -91
-50 -91 -31 0 -84 -33 -81 -50 2 -8 16 -21 31 -28 16 -8 37 -32 49 -57 l21
-42 -35 -54 c-20 -30 -48 -75 -63 -101 l-27 -48 547 0 c517 0 547 1 540 18
-14 35 -24 163 -15 188 18 46 12 79 -20 109 -21 20 -40 58 -62 125 -32 93 -32
98 -30 258 2 89 7 172 11 185 l9 22 6 -25 c3 -14 12 -57 20 -96 24 -122 56
-215 81 -238 43 -40 128 -26 188 31 37 36 36 93 -3 248 -22 86 -29 132 -25
163 4 23 9 42 13 42 11 0 49 -28 128 -92 39 -32 77 -58 84 -58 8 0 41 18 75
40 35 23 76 45 93 49 57 17 139 -17 231 -94 24 -19 46 -35 50 -35 4 0 14 15
22 33 21 48 108 89 205 95 92 6 107 -3 97 -62 l-6 -41 57 63 c33 35 67 62 78
62 51 0 104 -51 171 -165 60 -103 58 -102 193 -77 l116 21 117 -34 c64 -18
124 -36 134 -40 15 -6 17 0 17 61 l-1 69 -97 75 c-300 231 -476 407 -641 640
-64 89 -111 141 -123 134 -4 -3 -8 -18 -8 -33 0 -41 -24 -57 -143 -95 -73 -23
-149 -58 -240 -109 -195 -111 -228 -122 -367 -122 -178 0 -179 1 -234 98 -63
112 -130 193 -179 219 -23 11 -80 31 -127 44 -91 24 -200 69 -200 82 0 4 12
25 27 47 l27 40 11 -50 10 -50 34 47 c37 51 51 53 51 8 0 -44 23 -42 40 3 8
22 20 42 25 44 6 1 18 -14 27 -35 10 -20 16 -27 14 -15 -2 13 0 26 6 29 6 4
17 22 25 42 l14 35 33 -32 c45 -44 61 -40 36 9 -31 60 -28 65 32 62 l53 -3
-31 28 c-41 36 -74 91 -74 122 0 24 0 24 15 5 9 -12 14 -14 15 -6 0 9 7 11 21
7 19 -6 21 -4 17 19 -5 23 19 73 48 105 3 3 11 -5 20 -17 19 -27 40 -28 54 -3
20 38 11 80 -25 128 -19 25 -35 50 -35 54 0 8 70 -20 80 -32 13 -15 53 -30 61
-22 15 15 41 135 35 165 -7 34 -2 36 79 42 112 8 142 37 90 86 -57 54 -112
225 -102 320 6 58 6 60 -16 60 -12 0 -33 -7 -45 -16 -12 -8 -33 -21 -46 -28
-23 -12 -58 -37 -115 -83 -15 -12 -38 -24 -52 -27 -21 -5 -29 2 -58 48 -40 63
-110 120 -183 148 -64 24 -365 68 -462 67 -39 0 -90 -6 -113 -13z"/>
</g>
</svg>
