<?xml version="1.0" standalone="no"?>
<!DOCTYPE svg PUBLIC "-//W3C//DTD SVG 20010904//EN"
 "http://www.w3.org/TR/2001/REC-SVG-20010904/DTD/svg10.dtd">
<svg version="1.0" xmlns="http://www.w3.org/2000/svg"
 width="480.000000pt" height="360.000000pt" viewBox="0 0 480.000000 360.000000"
 preserveAspectRatio="xMidYMid meet">
<metadata>
Created by potrace 1.16, written by Peter Selinger 2001-2019
</metadata>
<rect width="1" height="360" fill="#000000"/>
<rect x="479" width="1" height="360" fill="#000000"/>
<rect width="480" height="1" fill="#000000"/>
<rect y="359" width="480" height="1" fill="#000000"/>
<g transform="translate(0.000000,360.000000) scale(0.100000,-0.100000)"
fill="#000000" stroke="none">
<path d="M1463 3574 c-35 -23 -42 -33 -47 -72 -8 -58 19 -136 52 -151 l23 -11
-27 -45 c-22 -39 -26 -53 -20 -93 4 -26 11 -85 16 -131 10 -93 12 -84 -61
-199 -37 -59 -72 -157 -62 -174 10 -17 20 -4 57 71 67 135 90 150 115 73 12
-34 11 -44 -3 -74 -10 -20 -33 -44 -56 -57 -22 -12 -48 -32 -58 -45 -10 -13
-29 -26 -43 -28 -22 -3 -24 -7 -24 -65 0 -57 3 -65 35 -98 47 -48 72 -46 164
16 41 28 81 49 87 47 20 -7 98 -256 99 -314 0 -62 -20 -93 -161 -241 -64 -67
-101 -115 -109 -140 -18 -56 -57 -123 -160 -273 -127 -185 -155 -216 -310
-345 -74 -62 -155 -135 -180 -164 -85 -97 -117 -136 -145 -178 -26 -41 -27
-44 -16 -106 6 -35 11 -91 11 -125 0 -59 2 -63 51 -119 64 -73 90 -87 230
-116 63 -13 161 -41 219 -61 81 -29 116 -37 152 -33 28 2 49 0 51 -6 2 -8 56
-6 167 5 91 9 168 14 172 12 15 -9 9 -257 -7 -284 -28 -49 -26 -50 140 -50
l155 0 0 55 c0 31 9 93 19 138 11 45 23 99 26 119 3 21 10 40 15 43 5 3 46 10
91 15 88 10 111 5 130 -31 9 -18 38 -252 39 -317 l0 -22 687 2 687 3 14 55
c19 76 1 392 -39 673 -29 207 -29 214 -19 397 6 102 10 246 8 320 -1 87 4 191
16 290 34 287 5 572 -79 772 -19 44 -41 88 -48 97 -8 9 -31 49 -52 89 -97 186
-276 282 -528 282 -51 0 -130 -7 -177 -15 -47 -8 -99 -12 -116 -9 -20 4 -36 1
-46 -9 -8 -8 -41 -29 -74 -45 -78 -39 -163 -131 -233 -250 -30 -51 -60 -97
-67 -103 -15 -12 -20 2 -29 90 -6 50 -13 69 -32 87 -21 20 -23 25 -12 46 17
32 39 153 39 218 0 105 -40 182 -100 195 -28 6 -30 10 -30 50 0 26 -6 47 -15
55 -8 7 -15 21 -15 31 0 24 -39 109 -51 109 -11 0 -39 96 -39 137 l0 33 -218
0 -218 0 -41 -26z m787 -1093 c0 -20 -17 -37 -27 -28 -7 8 7 47 18 47 5 0 9
-9 9 -19z m-74 -112 c4 -6 20 -8 39 -5 36 7 36 7 50 -61 7 -35 47 -70 93 -82
42 -11 41 -45 -2 -83 -43 -37 -45 -56 -11 -88 17 -16 25 -34 25 -57 0 -19 15
-64 35 -102 19 -37 35 -73 35 -81 0 -22 31 -50 56 -50 30 0 37 -13 29 -51 -7
-29 -9 -30 -48 -25 -36 5 -39 5 -23 -6 63 -43 61 -38 45 -123 -7 -43 -19 -80
-26 -82 -18 -6 -106 188 -117 256 -8 55 -25 86 -99 191 -34 47 -76 114 -95
150 l-34 65 5 106 c4 58 9 113 13 122 7 19 20 22 30 6z m512 -702 c2 -19 -1
-27 -12 -27 -17 0 -25 18 -18 43 7 26 26 15 30 -16z"/>
</g>
</svg>
