<?xml version="1.0" standalone="no"?>
<!DOCTYPE svg PUBLIC "-//W3C//DTD SVG 20010904//EN"
 "http://www.w3.org/TR/2001/REC-SVG-20010904/DTD/svg10.dtd">
<svg version="1.0" xmlns="http://www.w3.org/2000/svg"
 width="480.000000pt" height="360.000000pt" viewBox="0 0 480.000000 360.000000"
 preserveAspectRatio="xMidYMid meet">
<metadata>
Created by potrace 1.16, written by Peter Selinger 2001-2019
</metadata>
<rect width="1" height="360" fill="#000000"/>
<rect x="479" width="1" height="360" fill="#000000"/>
<rect width="480" height="1" fill="#000000"/>
<rect y="359" width="480" height="1" fill="#000000"/>
<g transform="translate(0.000000,360.000000) scale(0.100000,-0.100000)"
fill="#000000" stroke="none">
<path d="M320 3576 c-18 -50 -31 -151 -25 -200 4 -28 15 -91 26 -140 10 -49
24 -128 29 -175 6 -47 20 -126 32 -175 19 -85 20 -92 4 -170 -20 -101 -20
-123 0 -161 19 -34 64 -206 57 -217 -2 -4 -30 -15 -61 -24 -83 -23 -110 -34
-116 -50 -3 -8 -12 -14 -21 -14 -8 0 -15 -9 -15 -19 0 -11 -3 -26 -6 -34 -7
-20 44 -35 151 -43 103 -9 125 -17 125 -48 0 -15 7 -25 19 -29 10 -2 31 -29
47 -58 27 -50 32 -54 69 -57 56 -4 81 25 100 112 7 38 15 69 17 70 2 1 21 9
43 17 23 9 41 22 43 33 2 11 28 43 58 72 30 29 54 57 54 62 0 5 -17 22 -37 38
-31 24 -47 28 -98 29 l-60 0 -3 33 c-3 33 30 97 85 165 21 26 22 30 7 44 -9
10 -13 24 -10 37 4 12 9 52 13 90 6 63 5 69 -11 63 -14 -6 -17 -2 -14 20 2 16
-1 28 -7 28 -5 0 -16 4 -22 8 -7 4 -21 3 -32 -3 -26 -13 -34 -13 -24 3 4 6 -6
4 -22 -7 -17 -10 -24 -13 -17 -5 17 18 15 30 -3 23 -21 -8 -20 -2 21 79 52
102 86 150 179 247 117 122 141 157 127 180 -8 14 -8 22 3 36 19 25 19 34 0
34 -9 0 -18 6 -21 14 -3 8 -24 18 -46 21 -28 5 -51 18 -70 38 -41 45 -105 56
-351 56 l-207 1 -10 -24z"/>
<path d="M2400 1800 l0 -1800 839 0 838 0 17 58 c10 31 22 70 27 85 4 16 13
88 19 160 6 73 18 158 26 190 18 75 18 87 -5 116 l-18 24 -80 -44 c-94 -51
-107 -48 -117 32 -4 28 -11 47 -16 44 -6 -4 -10 1 -10 11 0 14 -2 15 -16 3
-15 -12 -16 -11 -9 10 6 19 4 23 -8 18 -11 -4 -19 3 -26 21 -5 15 -10 21 -10
15 -1 -7 -5 -13 -11 -13 -31 0 7 193 51 257 31 44 27 59 -7 22 -23 -26 -54
-43 -54 -30 0 5 38 41 85 81 80 66 125 127 125 165 0 8 -7 15 -15 15 -20 0
-19 5 6 39 19 26 20 32 9 63 -22 60 -9 82 73 122 39 20 82 36 93 36 12 0 39
13 61 29 59 43 77 46 97 17 22 -34 30 -91 16 -116 -9 -17 -8 -25 4 -39 23 -25
31 -75 14 -92 -14 -14 -68 -120 -68 -133 0 -4 29 -35 64 -69 67 -65 86 -97 86
-149 0 -26 2 -29 15 -18 25 20 29 50 8 65 -14 11 -16 18 -7 32 16 26 47 27 69
3 20 -22 33 -83 42 -187 l5 -62 -82 -85 -82 -85 -5 -65 c-5 -56 0 -81 37 -197
48 -153 70 -246 70 -306 l0 -43 125 0 125 0 0 1800 0 1800 -1200 0 -1200 0 0
-1800z"/>
</g>
</svg>
