<?xml version="1.0" standalone="no"?>
<!DOCTYPE svg PUBLIC "-//W3C//DTD SVG 20010904//EN"
 "http://www.w3.org/TR/2001/REC-SVG-20010904/DTD/svg10.dtd">
<svg version="1.0" xmlns="http://www.w3.org/2000/svg"
 width="480.000000pt" height="360.000000pt" viewBox="0 0 480.000000 360.000000"
 preserveAspectRatio="xMidYMid meet">
<metadata>
Created by potrace 1.16, written by Peter Selinger 2001-2019
</metadata>
<rect width="1" height="360" fill="#000000"/>
<rect x="479" width="1" height="360" fill="#000000"/>
<rect width="480" height="1" fill="#000000"/>
<rect y="359" width="480" height="1" fill="#000000"/>
<g transform="translate(0.000000,360.000000) scale(0.100000,-0.100000)"
fill="#000000" stroke="none">
<path d="M0 1800 l0 -1800 1373 0 1373 0 28 67 c66 155 148 314 210 406 36 55
69 110 72 123 15 59 -459 775 -558 841 -20 13 -82 32 -157 48 -186 40 -220 55
-292 133 -34 37 -78 91 -98 121 -33 50 -36 61 -40 138 -1 46 0 95 4 110 3 15
47 66 103 119 82 79 94 94 83 108 -19 23 -3 41 19 21 17 -16 22 -14 75 26 125
94 283 63 403 -80 47 -56 67 -93 98 -185 38 -111 31 -172 -28 -233 -17 -17
-29 -35 -27 -41 2 -5 45 -43 95 -84 50 -42 162 -153 249 -247 112 -122 161
-168 166 -159 15 23 10 40 -26 79 -31 34 -35 45 -35 92 0 47 5 62 41 113 23
32 58 79 79 104 20 25 54 70 74 101 37 56 37 58 37 158 0 90 3 104 23 129 12
15 39 51 59 80 36 50 37 54 24 85 -8 17 -25 46 -39 62 -14 17 -31 41 -38 54
-11 22 -10 27 9 39 24 17 27 35 7 52 -12 9 -19 4 -38 -32 l-23 -43 -3 49 c-3
40 -6 47 -20 43 -9 -3 -44 -15 -76 -26 -104 -37 -126 -29 -171 60 -14 27 -36
56 -50 65 -14 9 -25 22 -25 29 0 7 -15 24 -33 38 -21 16 -36 39 -42 63 -8 31
-19 43 -53 63 -24 13 -49 34 -55 48 -10 22 -7 28 27 57 43 36 42 38 -32 75
-40 20 -45 21 -56 6 -10 -14 -13 -12 -29 15 -21 35 -37 39 -37 9 0 -20 -1 -20
-21 5 -15 19 -24 24 -29 16 -5 -8 -18 4 -39 34 -32 46 -57 66 -85 66 -23 0
-184 103 -189 120 -5 18 -194 136 -203 127 -15 -15 -252 164 -311 235 -43 50
-52 68 -33 68 5 0 7 7 4 15 -5 13 -112 15 -875 15 l-869 0 0 -1800z"/>
<path d="M4711 1598 c0 -7 20 -51 44 -98 l44 -85 0 77 1 78 -40 20 c-46 23
-50 24 -49 8z"/>
<path d="M3611 579 c-49 -46 -98 -81 -148 -105 -80 -39 -74 -31 -129 -168 -16
-38 -61 -121 -101 -183 -40 -62 -73 -115 -73 -118 0 -3 168 -5 374 -5 l373 0
30 68 c46 103 48 111 25 135 -12 12 -45 72 -75 132 -43 86 -189 317 -200 315
-1 -1 -35 -32 -76 -71z"/>
</g>
</svg>
