<?xml version="1.0" standalone="no"?>
<!DOCTYPE svg PUBLIC "-//W3C//DTD SVG 20010904//EN"
 "http://www.w3.org/TR/2001/REC-SVG-20010904/DTD/svg10.dtd">
<svg version="1.0" xmlns="http://www.w3.org/2000/svg"
 width="480.000000pt" height="360.000000pt" viewBox="0 0 480.000000 360.000000"
 preserveAspectRatio="xMidYMid meet">
<metadata>
Created by potrace 1.16, written by Peter Selinger 2001-2019
</metadata>
<rect width="1" height="360" fill="#000000"/>
<rect x="479" width="1" height="360" fill="#000000"/>
<rect width="480" height="1" fill="#000000"/>
<rect y="359" width="480" height="1" fill="#000000"/>
<g transform="translate(0.000000,360.000000) scale(0.100000,-0.100000)"
fill="#000000" stroke="none">
<path d="M0 2585 c0 -558 3 -1015 6 -1015 9 0 117 66 179 108 74 52 148 115
268 231 103 100 109 105 135 94 231 -94 361 -152 477 -211 142 -72 260 -112
326 -112 46 0 190 27 247 46 38 13 50 12 95 -1 93 -28 98 -25 168 73 89 125
124 159 209 202 41 21 86 47 99 58 23 18 24 22 13 58 -7 22 -32 58 -57 83
l-45 45 0 -40 c0 -52 -20 -154 -31 -154 -4 0 -6 17 -3 38 3 28 2 32 -5 17 -7
-16 -10 -8 -12 35 l-4 55 -19 -63 c-10 -34 -21 -61 -23 -59 -2 3 -6 39 -8 81
-6 101 -15 152 -26 135 -5 -9 -13 1 -25 30 l-17 43 -23 -29 -23 -28 -1 39 c0
32 -3 37 -17 31 -53 -22 -54 -18 -14 40 23 32 41 62 41 67 0 12 -38 10 -60 -4
-16 -10 -25 -9 -48 4 -16 9 -37 15 -48 12 -12 -3 -28 4 -42 19 l-23 24 48 39
c59 48 76 67 110 122 25 42 25 46 13 97 -17 71 -8 195 19 266 29 75 87 140
153 170 48 22 70 24 218 28 339 7 353 7 411 -11 73 -23 149 -90 185 -164 l27
-56 24 31 c20 25 32 31 62 31 76 0 211 -117 235 -204 25 -87 46 -175 46 -190
0 -8 -16 -23 -35 -35 -22 -13 -35 -28 -35 -41 0 -12 -5 -30 -10 -41 -8 -14 -5
-35 10 -81 12 -35 30 -113 40 -174 16 -90 17 -124 9 -174 -9 -56 -64 -220 -74
-220 -2 0 -2 24 0 53 4 38 2 45 -4 27 -5 -14 -9 -36 -10 -51 -2 -59 -53 -111
-66 -68 -7 22 -16 24 -33 7 -9 -9 -12 -5 -12 18 0 43 -16 63 -25 33 -8 -23 -8
-23 -16 -4 -4 11 -8 34 -8 50 -1 17 -15 68 -31 115 -25 71 -30 99 -30 182 l0
98 -30 0 c-33 0 -35 -2 -20 -31 9 -15 7 -21 -5 -25 -9 -4 -14 -13 -11 -20 9
-24 -11 -15 -34 13 -17 22 -23 25 -30 13 -6 -8 -10 -19 -10 -23 0 -5 -6 -7
-12 -4 -17 5 -57 -76 -65 -131 -6 -44 -23 -68 -23 -33 0 39 -15 21 -35 -42
-20 -62 -20 -62 -25 -27 l-6 35 -8 -39 c-4 -21 -6 -39 -4 -40 2 -1 33 -15 70
-30 37 -15 87 -46 112 -67 40 -36 57 -58 130 -176 l25 -42 77 21 76 21 112
-22 c61 -12 133 -21 159 -21 75 0 188 44 341 132 78 45 199 108 271 140 71 32
140 65 152 73 41 27 62 18 147 -64 106 -103 217 -189 322 -251 84 -50 199
-110 209 -110 3 0 5 441 5 980 l0 980 -2400 0 -2400 0 0 -1015z"/>
<path d="M2866 2545 c-17 -39 -26 -74 -22 -88 5 -23 58 -61 70 -50 8 8 8 166
0 187 -10 27 -18 18 -48 -49z"/>
<path d="M2552 2175 c-18 -18 -37 -47 -42 -64 -8 -29 -6 -34 23 -51 18 -11 35
-20 38 -20 6 0 22 160 17 165 -2 1 -18 -12 -36 -30z"/>
<path d="M4105 1949 c-16 -11 -56 -33 -87 -50 -61 -31 -67 -41 -44 -65 23 -22
57 -124 52 -153 -2 -14 -32 -110 -66 -213 -80 -244 -92 -247 -129 -33 -24 144
-41 241 -46 268 -3 19 16 65 47 110 11 15 17 27 15 27 -18 0 -95 -41 -164 -87
-69 -45 -83 -59 -83 -80 0 -15 7 -34 14 -42 8 -9 18 -46 22 -83 6 -58 4 -70
-15 -96 -11 -17 -21 -33 -21 -36 0 -4 -17 -34 -37 -69 -21 -34 -53 -92 -71
-127 -45 -89 -66 -114 -86 -107 -18 7 -19 30 -7 293 l7 161 32 41 33 41 -36 7
c-51 9 -172 -1 -190 -16 -11 -9 -14 -25 -10 -59 3 -33 -1 -62 -18 -103 -19
-49 -36 -69 -126 -147 -58 -50 -108 -91 -112 -91 -19 0 -17 -42 6 -158 14 -69
36 -154 50 -188 14 -35 37 -112 50 -171 45 -195 102 -466 126 -595 l24 -128
782 0 783 0 0 765 0 764 -55 26 c-31 14 -58 25 -61 25 -4 0 6 -16 20 -35 53
-69 59 -111 42 -295 -2 -25 -5 -81 -5 -125 -2 -148 -32 -139 -113 34 -142 300
-131 268 -117 325 7 28 21 63 31 78 10 14 18 33 18 41 0 8 -30 34 -67 57 -38
23 -80 54 -95 68 -30 28 -39 13 -14 -23 17 -26 15 -48 -23 -250 -53 -284 -60
-284 -147 -15 -35 107 -64 209 -64 225 0 35 44 135 59 135 6 0 13 11 17 25 3
14 10 25 15 25 5 0 9 4 9 9 0 14 -91 111 -103 110 -7 0 -25 -9 -42 -20z"/>
<path d="M524 1839 l-42 -52 20 -33 c11 -19 25 -34 31 -34 20 -1 85 -94 88
-125 2 -24 -9 -177 -16 -220 -1 -5 -3 -30 -4 -55 -1 -25 -6 -52 -11 -60 -8
-13 -11 -13 -24 0 -30 30 -186 293 -186 314 0 34 26 110 39 114 6 2 9 8 6 13
-4 5 -41 -21 -83 -57 -42 -36 -96 -77 -120 -91 -44 -26 -54 -49 -24 -60 9 -3
36 -27 60 -52 l42 -46 -1 -110 c-3 -177 -10 -245 -24 -245 -21 0 -206 246
-217 288 -7 24 5 82 24 120 18 35 -2 47 -46 26 l-36 -18 0 -728 0 -728 872 2
872 3 33 81 c18 44 48 138 67 210 43 160 77 256 127 357 33 64 39 86 37 130
-1 28 1 88 5 132 7 72 7 78 -7 61 -15 -18 -16 -18 -33 13 -10 17 -20 31 -23
31 -3 0 -16 -22 -28 -49 -30 -63 -62 -92 -202 -188 -269 -183 -337 -223 -447
-262 -59 -21 -145 -52 -189 -68 -73 -27 -88 -29 -148 -22 -81 10 -199 51 -243
85 -51 39 -43 47 35 38 96 -11 132 -7 238 27 62 20 97 36 104 50 16 29 4 39
-31 27 -25 -8 -34 -8 -46 5 -51 51 140 100 245 62 l50 -18 113 94 c152 126
243 199 305 243 49 34 51 38 57 93 l7 58 -110 105 c-109 104 -110 106 -125
172 -12 52 -13 72 -4 92 10 20 9 29 -2 42 -12 14 -28 16 -116 11 -57 -3 -108
-9 -113 -12 -7 -4 4 -23 25 -46 19 -21 36 -49 36 -62 1 -12 3 -33 4 -47 1 -14
5 -90 10 -169 6 -119 5 -143 -6 -139 -8 2 -51 51 -96 109 -45 57 -96 122 -114
144 -30 38 -31 43 -25 104 3 35 12 73 19 85 22 32 5 61 -59 102 -69 44 -183
98 -190 91 -3 -3 11 -27 31 -54 l37 -48 -6 -120 c-8 -144 -17 -249 -21 -254
-16 -16 -64 50 -145 196 -9 16 -28 49 -44 75 l-28 48 16 62 c9 34 20 66 26 72
5 5 10 20 10 32 0 16 -11 25 -47 39 -27 10 -66 28 -89 41 -22 13 -49 24 -60
24 -11 0 -37 -22 -60 -51z"/>
<path d="M3025 1639 c-33 -5 -63 -15 -67 -23 -5 -8 -22 -17 -38 -21 l-30 -7
23 -39 c12 -22 30 -45 39 -50 14 -8 21 -2 37 35 15 31 35 53 71 76 69 45 70
44 -35 29z"/>
<path d="M1689 1578 c40 -26 67 -53 73 -70 6 -15 14 -28 18 -28 15 0 20 32 9
47 -7 8 -15 31 -18 51 l-6 37 -70 3 -70 3 64 -43z"/>
<path d="M2918 1455 c-7 -7 3 -55 11 -55 4 0 12 14 18 30 10 26 9 30 -6 30
-10 0 -20 -2 -23 -5z"/>
<path d="M1800 1384 c0 -8 5 -12 10 -9 6 3 10 10 10 16 0 5 -4 9 -10 9 -5 0
-10 -7 -10 -16z"/>
<path d="M2787 920 c4 -36 7 -92 8 -125 0 -46 8 -76 34 -130 57 -122 92 -216
126 -345 46 -170 61 -210 70 -187 15 37 -4 128 -59 277 -106 283 -136 374
-148 440 -6 36 -17 81 -25 100 -13 33 -13 32 -6 -30z"/>
</g>
</svg>
