<?xml version="1.0" standalone="no"?>
<!DOCTYPE svg PUBLIC "-//W3C//DTD SVG 20010904//EN"
 "http://www.w3.org/TR/2001/REC-SVG-20010904/DTD/svg10.dtd">
<svg version="1.0" xmlns="http://www.w3.org/2000/svg"
 width="480.000000pt" height="360.000000pt" viewBox="0 0 480.000000 360.000000"
 preserveAspectRatio="xMidYMid meet">
<metadata>
Created by potrace 1.16, written by Peter Selinger 2001-2019
</metadata>
<rect width="1" height="360" fill="#000000"/>
<rect x="479" width="1" height="360" fill="#000000"/>
<rect width="480" height="1" fill="#000000"/>
<rect y="359" width="480" height="1" fill="#000000"/>
<g transform="translate(0.000000,360.000000) scale(0.100000,-0.100000)"
fill="#000000" stroke="none">
<path d="M0 1800 l0 -1800 1424 0 c1219 0 1425 2 1429 14 13 34 18 411 8 561
-7 88 -15 198 -18 244 l-6 83 24 -15 c33 -21 143 -53 210 -61 62 -8 105 4 225
60 75 35 111 66 147 126 12 20 35 57 51 83 64 104 66 217 4 303 l-30 43 21 23
c12 12 21 28 21 34 0 17 -25 15 -40 -3 -20 -24 -36 -18 -69 24 -50 63 -174
104 -265 87 -50 -10 -151 -89 -195 -155 -53 -79 -72 -124 -78 -187 -6 -58 -11
-63 -78 -80 -22 -5 -27 0 -49 50 l-25 56 -158 0 c-200 0 -504 -16 -699 -36
l-152 -15 -88 64 c-49 35 -137 96 -196 135 -62 42 -113 84 -121 100 -8 15 -25
71 -38 124 -19 77 -29 99 -46 107 -12 6 -30 25 -39 42 -15 29 -15 49 -5 199 6
92 8 181 5 197 -5 25 -2 31 15 36 17 4 21 11 16 29 -9 40 -35 240 -35 272 0
47 30 98 65 109 17 5 38 17 48 25 17 15 16 18 -20 54 l-37 38 72 72 c40 39 72
75 72 80 0 4 5 8 10 8 6 0 3 -14 -6 -32 l-16 -33 29 28 c30 27 53 35 53 17 0
-5 4 -10 9 -10 4 0 11 18 14 40 3 23 11 48 19 57 11 14 14 11 25 -23 11 -36
12 -32 12 61 -1 127 -2 123 17 97 8 -12 24 -27 35 -33 19 -10 20 -9 7 11 -7
13 -18 32 -25 43 -6 11 -24 66 -38 121 -49 181 -56 202 -96 265 l-38 61 -691
0 -690 0 0 -1800z m1273 1059 c-21 -35 -63 -77 -63 -62 0 8 69 90 78 92 2 1
-5 -13 -15 -30z m-308 -488 c3 -6 7 -33 9 -60 3 -39 10 -58 29 -77 17 -17 28
-42 33 -72 8 -57 40 -136 53 -128 8 6 18 -14 40 -83 23 -72 7 -60 -40 29 -30
57 -97 146 -138 184 -33 32 -40 56 -16 56 8 0 15 1 15 3 0 1 -7 37 -15 80 -8
43 -15 83 -15 88 0 11 35 -6 45 -20z m-856 -1435 c1 -79 -31 -331 -43 -343 -2
-3 2 157 9 307 2 47 8 114 12 150 7 65 7 65 14 25 4 -22 8 -85 8 -139z m-42
-378 c-3 -8 -6 -5 -6 6 -1 11 2 17 5 13 3 -3 4 -12 1 -19z"/>
</g>
</svg>
