<?xml version="1.0" standalone="no"?>
<!DOCTYPE svg PUBLIC "-//W3C//DTD SVG 20010904//EN"
 "http://www.w3.org/TR/2001/REC-SVG-20010904/DTD/svg10.dtd">
<svg version="1.0" xmlns="http://www.w3.org/2000/svg"
 width="480.000000pt" height="360.000000pt" viewBox="0 0 480.000000 360.000000"
 preserveAspectRatio="xMidYMid meet">
<metadata>
Created by potrace 1.16, written by Peter Selinger 2001-2019
</metadata>
<rect width="1" height="360" fill="#000000"/>
<rect x="479" width="1" height="360" fill="#000000"/>
<rect width="480" height="1" fill="#000000"/>
<rect y="359" width="480" height="1" fill="#000000"/>
<g transform="translate(0.000000,360.000000) scale(0.100000,-0.100000)"
fill="#000000" stroke="none">
<path d="M2867 3264 c-3 -3 16 -33 44 -66 27 -32 49 -61 49 -64 0 -3 -19 6
-42 20 -60 34 -185 60 -267 54 -78 -6 -120 -25 -178 -81 -39 -37 -47 -41 -87
-38 -43 2 -126 -29 -126 -47 0 -13 65 -72 80 -72 9 0 7 -7 -8 -23 -28 -30 -28
-33 4 -41 22 -6 25 -11 20 -34 -4 -15 -18 -37 -31 -49 -14 -12 -25 -26 -25
-31 0 -4 17 -28 37 -51 l36 -43 -2 -277 c-2 -307 -7 -349 -56 -568 -19 -84
-35 -165 -35 -180 l1 -28 14 25 c13 23 14 15 9 -80 -4 -58 -7 -130 -9 -160 -1
-30 -7 -82 -14 -115 -6 -33 -20 -211 -31 -395 -11 -184 -22 -357 -25 -385 -2
-27 -9 -133 -15 -235 -5 -102 -13 -211 -16 -242 l-6 -58 556 0 557 0 -7 38
c-33 195 -121 539 -219 862 -33 108 -92 428 -101 546 l-7 91 27 7 c33 8 46 1
46 -24 0 -23 55 -88 66 -78 3 4 -1 20 -11 35 -47 71 -111 300 -90 321 2 3 62
-21 132 -51 101 -44 131 -54 140 -44 7 7 22 48 33 91 11 44 22 82 25 84 3 3
22 5 44 4 72 -3 146 72 143 146 -2 42 -20 102 -32 102 -5 0 -15 3 -24 6 -11 4
-16 1 -16 -10 0 -16 -2 -16 -22 -2 -28 20 -108 21 -134 1 -21 -16 -71 -19 -92
-6 -10 6 0 28 42 94 31 48 56 91 56 96 0 20 -277 232 -295 225 -12 -5 -15 2
-15 30 0 45 18 81 59 121 27 25 34 28 51 17 29 -18 33 -15 26 22 -6 32 -5 34
28 40 43 8 53 22 32 45 -9 10 -16 25 -16 33 0 19 -59 73 -90 83 -28 9 -39 41
-33 98 4 35 0 56 -17 89 -31 60 -86 125 -120 143 -33 17 -34 17 -43 9z"/>
</g>
</svg>
