<?xml version="1.0" standalone="no"?>
<!DOCTYPE svg PUBLIC "-//W3C//DTD SVG 20010904//EN"
 "http://www.w3.org/TR/2001/REC-SVG-20010904/DTD/svg10.dtd">
<svg version="1.0" xmlns="http://www.w3.org/2000/svg"
 width="480.000000pt" height="360.000000pt" viewBox="0 0 480.000000 360.000000"
 preserveAspectRatio="xMidYMid meet">
<metadata>
Created by potrace 1.16, written by Peter Selinger 2001-2019
</metadata>
<rect width="1" height="360" fill="#000000"/>
<rect x="479" width="1" height="360" fill="#000000"/>
<rect width="480" height="1" fill="#000000"/>
<rect y="359" width="480" height="1" fill="#000000"/>
<g transform="translate(0.000000,360.000000) scale(0.100000,-0.100000)"
fill="#000000" stroke="none">
<path d="M3340 3454 c-57 -13 -111 -31 -120 -39 -8 -9 -24 -46 -35 -83 l-21
-67 -49 -8 c-188 -30 -228 -47 -333 -143 -82 -75 -132 -151 -132 -204 -1 -19
-7 -46 -15 -60 -22 -38 -18 -46 11 -19 l26 24 -16 -39 c-9 -21 -19 -64 -22
-95 -5 -55 -5 -55 10 -26 l14 30 1 -48 c1 -29 5 -46 11 -42 6 3 10 -1 10 -9 0
-9 7 -16 15 -16 8 0 15 -6 16 -12 0 -7 5 0 11 17 10 27 12 28 19 10 4 -11 8
-37 8 -58 1 -35 -2 -39 -46 -60 -25 -12 -48 -27 -50 -33 -2 -5 11 -26 27 -45
26 -28 30 -39 25 -67 -3 -19 -2 -39 3 -45 9 -12 25 -71 37 -135 9 -43 29 -52
124 -52 96 0 96 0 104 -117 l6 -82 -32 -26 c-18 -15 -64 -58 -104 -96 -39 -38
-80 -69 -91 -69 -32 0 -71 -39 -84 -83 -17 -62 -25 -69 -57 -53 -14 7 -100 32
-190 55 -177 45 -181 47 -181 63 0 24 -51 76 -95 97 -60 28 -137 21 -221 -21
-60 -29 -64 -30 -118 -17 -31 7 -59 9 -64 5 -9 -10 57 -66 79 -66 11 0 20 -16
29 -57 16 -70 22 -79 58 -86 24 -5 34 -19 69 -94 28 -61 44 -113 52 -170 7
-45 36 -159 65 -252 29 -94 51 -173 48 -175 -10 -11 -70 30 -122 83 -51 52
-85 75 -286 190 -57 33 -108 79 -250 228 -99 102 -185 194 -192 204 -8 12 -25
19 -46 19 -19 0 -39 7 -46 15 -8 9 -20 13 -29 9 -9 -4 -26 -6 -39 -5 -12 0
-22 -5 -22 -12 0 -7 -12 -36 -26 -65 l-26 -52 146 -152 c126 -132 144 -155
140 -177 -4 -20 5 -42 35 -87 23 -34 41 -71 41 -83 0 -25 26 -78 71 -148 43
-64 55 -73 105 -73 23 0 59 -6 81 -14 22 -8 96 -26 164 -41 180 -38 187 -41
209 -84 26 -52 70 -88 239 -198 80 -53 150 -99 155 -104 6 -5 0 -20 -16 -36
-52 -54 -62 -131 -28 -196 11 -20 20 -53 20 -72 l0 -35 635 0 635 0 0 28 c0
54 -106 192 -146 192 -8 0 -16 10 -18 22 -34 158 -56 363 -56 511 0 93 -5 137
-15 157 -16 31 -37 42 -61 33 -14 -5 -16 -2 -10 23 10 39 13 40 37 18 17 -15
40 -20 120 -22 96 -4 112 1 87 26 -9 9 3 12 55 12 61 0 82 9 57 25 -24 15 -5
24 60 31 71 7 79 11 59 31 -8 8 -6 18 5 35 9 14 14 27 11 30 -3 3 1 11 10 18
21 17 26 9 32 -45 6 -50 10 -53 29 -27 12 16 13 16 20 -1 3 -10 -1 -35 -10
-55 -17 -40 -47 -204 -39 -212 3 -3 13 6 22 20 26 41 84 97 77 76 -6 -17 -23
-121 -40 -243 -7 -50 6 -57 24 -13 7 17 16 30 19 30 4 0 5 -48 3 -108 -6 -152
-4 -157 37 -99 19 26 36 45 38 43 2 -2 -1 -33 -6 -67 -6 -35 -14 -79 -17 -97
-3 -18 -1 -32 5 -32 5 0 37 25 69 55 l60 55 -24 -92 c-31 -120 -30 -127 2 -97
l27 24 -7 -28 c-20 -88 -21 -86 13 -47 25 29 31 32 31 15 0 -28 15 -7 34 49
15 46 62 136 71 136 2 0 -5 -26 -16 -57 -21 -59 -69 -289 -69 -329 0 -23 0
-23 209 -24 l209 -1 6 53 c4 29 10 71 13 93 6 35 7 37 13 15 3 -14 3 -45 -1
-70 -15 -88 -14 -90 36 -90 l45 0 0 823 0 822 -124 73 c-157 92 -264 172 -369
275 -80 79 -220 255 -254 321 l-16 31 -22 -47 c-12 -25 -42 -67 -66 -92 l-46
-46 -16 118 c-9 64 -23 140 -30 167 -10 41 -10 62 1 115 17 82 10 153 -29 294
-35 128 -71 199 -141 275 -41 45 -49 59 -44 80 20 88 20 88 -23 143 -45 56
-136 128 -161 127 -8 0 -62 -11 -120 -25z m501 -1236 c15 -104 16 -138 7 -155
-22 -43 -25 -39 -54 90 -15 67 -15 85 -4 135 23 105 27 100 51 -70z m-31 -199
c0 -18 -18 -9 -23 12 -4 16 -3 18 9 8 8 -6 14 -15 14 -20z m-130 -138 c0 -11
-4 -23 -10 -26 -6 -4 -10 5 -10 19 0 14 5 26 10 26 6 0 10 -9 10 -19z m-171
-147 c-14 -18 -24 -11 -15 11 3 9 11 13 16 10 8 -5 7 -11 -1 -21z m-84 -26 c4
-17 3 -28 -3 -28 -10 0 -22 32 -22 60 0 22 18 -1 25 -32z m-965 -109 l159 -22
-25 -42 c-13 -23 -24 -58 -24 -77 0 -21 -9 -46 -22 -63 -17 -22 -22 -40 -21
-84 2 -61 -7 -81 -66 -160 -32 -43 -39 -59 -34 -82 3 -16 1 -29 -4 -29 -6 0
-32 55 -58 123 -26 67 -58 142 -71 167 -19 38 -23 64 -26 173 -4 120 -3 128
14 123 11 -2 90 -14 178 -27z m930 -841 c6 -35 13 -130 16 -213 l5 -150 -36
84 c-25 61 -35 100 -35 138 0 67 20 203 30 203 4 0 13 -28 20 -62z"/>
</g>
</svg>
