<?xml version="1.0" standalone="no"?>
<!DOCTYPE svg PUBLIC "-//W3C//DTD SVG 20010904//EN"
 "http://www.w3.org/TR/2001/REC-SVG-20010904/DTD/svg10.dtd">
<svg version="1.0" xmlns="http://www.w3.org/2000/svg"
 width="480.000000pt" height="360.000000pt" viewBox="0 0 480.000000 360.000000"
 preserveAspectRatio="xMidYMid meet">
<metadata>
Created by potrace 1.16, written by Peter Selinger 2001-2019
</metadata>
<rect width="1" height="360" fill="#000000"/>
<rect x="479" width="1" height="360" fill="#000000"/>
<rect width="480" height="1" fill="#000000"/>
<rect y="359" width="480" height="1" fill="#000000"/>
<g transform="translate(0.000000,360.000000) scale(0.100000,-0.100000)"
fill="#000000" stroke="none">
<path d="M85 3588 c22 -5 69 -19 105 -31 l65 -22 -50 -5 -50 -5 -7 -64 c-9
-77 -23 -116 -52 -137 -14 -11 -17 -18 -8 -21 6 -3 10 -8 7 -12 -2 -4 0 -24 6
-44 10 -36 25 -46 45 -29 5 5 23 6 39 2 l30 -6 -28 -15 -28 -15 21 -19 c30
-27 25 -35 -16 -23 -20 5 -45 7 -56 5 -11 -3 -38 1 -60 9 -22 8 -42 14 -44 14
-3 0 -4 -74 -3 -165 l0 -165 40 50 c44 55 123 121 180 151 60 30 213 71 256
67 36 -3 40 -7 75 -73 79 -148 112 -267 151 -530 l23 -160 90 -45 c111 -55
158 -92 222 -173 72 -92 111 -167 128 -249 8 -40 17 -74 18 -75 9 -9 152 34
240 71 115 50 226 79 276 74 29 -2 38 -9 52 -39 9 -19 23 -41 31 -47 10 -9 13
-25 9 -57 -4 -35 -1 -46 12 -51 9 -3 78 8 154 25 75 17 198 42 272 56 74 14
194 37 266 50 200 38 403 63 569 70 127 6 169 4 270 -14 66 -11 140 -22 164
-25 24 -2 47 -10 51 -16 14 -22 83 -22 167 -1 105 27 126 27 118 1 -6 -19 -2
-20 59 -20 75 0 86 -14 24 -31 -55 -14 -63 -20 -47 -30 11 -7 9 -12 -9 -24
-12 -9 -20 -21 -16 -26 6 -10 63 -6 97 6 23 10 22 -4 -5 -32 -27 -29 -17 -29
81 -3 90 24 139 27 122 6 -6 -7 -36 -21 -66 -31 -73 -22 -78 -35 -15 -35 57 0
59 -12 4 -35 l-35 -15 18 -24 c10 -14 21 -26 25 -26 4 0 15 -16 23 -36 15 -36
15 -36 61 -29 36 5 50 3 65 -11 25 -22 11 -40 -42 -54 -22 -6 -39 -14 -39 -19
0 -4 31 -11 69 -15 61 -5 81 -2 161 25 51 17 94 28 97 25 8 -7 -102 -75 -166
-103 -53 -23 -54 -24 -17 -18 36 6 38 5 27 -9 -18 -22 -7 -21 109 9 52 14 101
25 109 25 26 0 -8 -27 -57 -45 -60 -23 -77 -37 -37 -33 20 2 29 -1 28 -9 -3
-15 23 -22 97 -25 41 -2 55 -7 55 -18 0 -11 -20 -18 -70 -26 -51 -8 -65 -13
-51 -19 11 -5 75 -1 153 9 74 10 137 15 141 12 12 -13 -36 -35 -112 -50 -44
-9 -90 -23 -102 -31 -13 -8 -34 -15 -46 -15 -34 0 -68 -11 -68 -21 0 -5 24 -9
54 -9 80 0 119 -10 105 -26 -5 -7 -24 -16 -40 -19 -40 -9 -32 -28 17 -38 50
-10 95 -43 75 -56 -11 -7 -11 -10 0 -15 8 -3 -14 -4 -48 -2 -75 5 -91 -8 -31
-24 57 -15 88 -36 88 -60 0 -29 -41 -35 -129 -20 -85 14 -92 15 -176 12 -106
-4 -41 -26 88 -31 16 -1 26 -5 22 -11 -3 -5 -5 -10 -3 -10 22 -2 143 -49 145
-56 2 -5 -3 -18 -10 -28 -13 -17 -19 -18 -62 -7 -70 17 -66 6 5 -15 74 -22 90
-37 66 -63 -15 -17 -15 -19 4 -36 17 -16 20 -46 5 -63 -1 -1 -26 7 -55 18 -29
11 -57 19 -63 17 -6 -2 9 -11 34 -21 60 -24 72 -35 58 -52 -6 -7 -8 -18 -5
-23 4 -6 -24 1 -62 13 -65 22 -70 23 -95 7 -25 -15 -31 -14 -75 1 -41 15 -48
16 -58 3 -9 -13 -18 -12 -67 2 -31 8 -63 13 -72 10 -27 -11 -16 -35 23 -48 52
-17 53 -17 39 -42 -6 -12 -12 -23 -12 -24 0 -1 -39 7 -85 17 l-85 20 -18 -22
c-18 -21 -19 -21 -48 -4 -60 35 -84 46 -107 46 -34 0 -17 -18 30 -30 23 -7 51
-24 65 -40 13 -16 33 -32 43 -35 26 -8 25 -22 -1 -30 -17 -6 -19 -9 -8 -17 10
-7 7 -8 -11 -4 -55 11 -110 18 -110 13 0 -2 16 -12 35 -21 20 -10 33 -21 30
-26 -3 -5 30 -26 72 -47 43 -21 80 -39 82 -40 2 -1 -2 -9 -8 -17 -7 -8 -9 -20
-5 -27 5 -9 0 -10 -20 -5 -14 3 -38 9 -52 12 -20 5 -26 2 -31 -14 -5 -20 -5
-20 -61 -1 -31 11 -63 17 -71 14 -16 -4 -69 6 -105 21 -14 5 -17 4 -11 -5 4
-7 68 -42 142 -77 l136 -64 388 0 389 0 0 1800 0 1800 -2377 -1 c-1574 -1
-2364 -4 -2338 -11z"/>
<path d="M37 3524 c-4 -4 -4 -17 -1 -30 4 -16 1 -24 -15 -29 -27 -8 -27 -35
-1 -63 24 -25 39 -27 65 -9 12 10 15 16 6 21 -6 4 -14 0 -17 -8 -3 -9 -13 -16
-21 -16 -11 0 -8 10 13 37 15 20 24 38 18 40 -5 2 -16 8 -24 13 -13 9 -13 12
2 21 10 5 18 14 18 19 0 11 -33 14 -43 4z"/>
<path d="M325 2150 c-40 -5 -46 -8 -30 -15 11 -4 63 -27 115 -50 52 -24 140
-62 195 -85 55 -23 157 -71 228 -106 147 -74 150 -64 11 46 -210 166 -367 230
-519 210z"/>
<path d="M1210 1690 c8 -5 26 -9 40 -9 l25 1 -25 8 c-14 4 -32 8 -40 9 -13 1
-13 0 0 -9z"/>
<path d="M1275 639 c-16 -44 -35 -85 -42 -91 -7 -6 -13 -15 -13 -21 0 -6 -10
-21 -21 -34 -18 -18 -20 -25 -9 -38 18 -22 -12 -83 -45 -91 -27 -7 -33 -19
-12 -28 8 -3 6 -10 -8 -21 -16 -13 -33 -15 -83 -10 -55 6 -65 4 -77 -12 -12
-16 -30 -18 -169 -18 -120 0 -156 -3 -156 -13 0 -7 12 -36 26 -64 35 -69 28
-106 -25 -136 -55 -31 -109 -29 -157 6 -44 32 -154 148 -154 162 0 5 -15 17
-32 26 -18 9 -42 24 -53 34 -12 10 -52 22 -98 29 -43 6 -87 16 -97 21 -49 26
-50 22 -50 -165 l0 -175 1922 0 c1057 0 1919 2 1917 4 -5 5 -218 96 -225 96
-3 0 -2 -5 1 -10 12 -20 -16 -9 -46 17 -16 15 -92 53 -167 85 -120 51 -153 61
-272 78 -74 11 -198 36 -275 54 -77 19 -183 40 -235 46 -452 52 -892 165
-1205 309 -48 23 -93 41 -99 41 -7 0 -25 -36 -41 -81z"/>
<path d="M4440 582 c8 -5 26 -13 40 -16 17 -5 20 -4 10 2 -8 5 -26 13 -40 16
-17 5 -20 4 -10 -2z"/>
<path d="M3308 313 c7 -3 16 -2 19 1 4 3 -2 6 -13 5 -11 0 -14 -3 -6 -6z"/>
<path d="M3625 181 c7 -13 75 -35 82 -27 3 3 -10 13 -30 21 -41 17 -61 19 -52
6z"/>
</g>
</svg>
