<?xml version="1.0" standalone="no"?>
<!DOCTYPE svg PUBLIC "-//W3C//DTD SVG 20010904//EN"
 "http://www.w3.org/TR/2001/REC-SVG-20010904/DTD/svg10.dtd">
<svg version="1.0" xmlns="http://www.w3.org/2000/svg"
 width="480.000000pt" height="360.000000pt" viewBox="0 0 480.000000 360.000000"
 preserveAspectRatio="xMidYMid meet">
<metadata>
Created by potrace 1.16, written by Peter Selinger 2001-2019
</metadata>
<rect width="1" height="360" fill="#000000"/>
<rect x="479" width="1" height="360" fill="#000000"/>
<rect width="480" height="1" fill="#000000"/>
<rect y="359" width="480" height="1" fill="#000000"/>
<g transform="translate(0.000000,360.000000) scale(0.100000,-0.100000)"
fill="#000000" stroke="none">
<path d="M0 2311 l0 -1290 32 10 c18 5 46 9 61 9 15 0 49 9 73 21 37 16 79 22
217 29 95 5 173 10 175 10 1 0 2 18 2 40 0 41 -18 60 -59 60 -11 0 -22 4 -25
9 -3 5 8 100 24 212 17 112 30 212 30 221 0 9 -12 23 -27 30 -40 20 -51 43
-30 66 9 10 17 30 17 45 0 14 4 28 9 31 4 3 14 34 20 68 7 35 18 84 24 111 7
31 7 51 1 57 -9 9 -6 51 12 178 6 39 39 63 97 69 46 5 103 -23 113 -55 3 -9
10 -24 15 -32 20 -33 21 -41 4 -60 -12 -13 -16 -29 -12 -52 3 -21 -1 -39 -10
-50 -12 -14 -13 -23 -4 -49 6 -18 11 -47 11 -65 0 -26 10 -43 43 -76 23 -24
53 -50 66 -59 21 -13 22 -18 12 -37 -6 -12 -9 -33 -5 -47 5 -20 2 -25 -13 -25
-10 0 -24 5 -29 10 -13 13 -42 3 -54 -20 -10 -19 25 -245 61 -393 25 -103 19
-119 -32 -88 -47 29 -66 27 -74 -9 -6 -25 -1 -34 29 -61 20 -17 36 -35 36 -39
0 -19 -94 -42 -234 -56 -83 -8 -207 -24 -276 -34 -69 -11 -165 -20 -213 -20
l-87 0 0 -490 0 -490 920 0 c789 0 920 2 920 14 0 8 17 29 38 48 21 18 46 53
57 77 68 152 120 244 168 298 46 51 56 70 66 122 7 34 26 94 43 134 16 40 33
85 35 100 l6 29 -33 -17 c-18 -9 -101 -46 -184 -82 -83 -35 -154 -70 -158 -76
-5 -7 -6 -22 -3 -34 7 -31 -3 -29 -15 3 -9 22 -15 25 -38 20 -80 -19 -97 -18
-132 6 -58 39 -51 49 70 98 61 24 116 50 121 56 6 7 16 11 22 8 7 -2 17 6 22
18 8 17 17 22 37 20 18 -2 79 24 178 73 119 60 153 81 161 102 14 37 6 49 -37
58 -29 5 -39 3 -46 -9 -18 -31 -80 -7 -97 38 -7 17 -34 28 -138 58 -224 63
-294 100 -251 132 15 11 30 9 95 -14 43 -15 129 -40 192 -55 l113 -29 20 27
c25 34 41 34 67 1 22 -28 85 -64 112 -64 16 0 47 41 89 116 20 35 26 74 12 74
-5 0 -16 6 -26 13 -16 12 -15 15 9 60 15 25 39 85 54 131 27 81 27 86 10 101
-9 9 -27 39 -39 66 -18 42 -19 56 -10 83 11 34 43 69 73 79 26 9 21 19 -27 60
-32 26 -43 42 -39 56 4 15 -4 24 -34 40 -21 11 -51 32 -66 47 -26 23 -28 31
-23 68 l6 41 -127 39 c-71 21 -180 54 -243 72 -183 53 -313 93 -335 103 -24
11 -147 46 -230 67 -33 8 -87 24 -120 35 -108 35 -121 39 -143 39 -27 0 -43
29 -38 72 4 42 20 44 111 19 75 -21 101 -30 518 -181 48 -17 206 -76 350 -130
260 -98 287 -104 287 -65 0 21 79 86 139 114 56 26 85 28 208 20 34 -3 42 -7
38 -20 -4 -12 6 -19 37 -28 50 -15 159 -73 177 -95 7 -8 10 -20 6 -26 -3 -5 0
-26 7 -46 12 -33 11 -37 -9 -54 l-22 -18 40 -6 c43 -7 84 -36 61 -44 -18 -6
-15 -22 5 -22 15 0 15 -1 0 -18 -10 -10 -17 -23 -17 -29 0 -5 42 -22 93 -37
124 -37 170 -66 214 -132 20 -30 34 -57 31 -60 -3 -3 -23 6 -43 21 -21 14 -42
25 -47 25 -5 0 -56 22 -114 50 -58 27 -111 50 -119 50 -9 0 -13 -14 -12 -49 2
-59 -17 -84 -83 -113 -86 -37 -90 -45 -89 -182 1 -125 10 -230 21 -242 6 -5
74 32 337 184 l44 25 24 -29 c38 -47 61 -91 54 -101 -3 -6 -51 -35 -106 -65
-280 -154 -345 -188 -355 -188 -28 0 5 -94 37 -104 18 -5 182 -35 303 -55 73
-12 285 -41 301 -41 7 0 9 -10 5 -25 -4 -14 -2 -25 4 -25 5 0 10 -7 10 -15 0
-23 -74 -38 -154 -30 -39 4 -123 16 -186 27 -190 32 -225 38 -228 38 -2 0 5
-14 15 -31 10 -17 54 -61 98 -98 114 -97 298 -281 312 -313 14 -31 10 -44 -36
-123 -16 -27 -40 -56 -55 -63 -14 -7 -37 -24 -51 -38 -20 -20 -29 -23 -44 -15
-14 8 -25 6 -44 -9 -14 -12 -42 -27 -62 -36 -36 -15 -37 -16 -32 -62 3 -26 9
-65 14 -87 l8 -40 858 -3 857 -2 0 1800 0 1800 -905 0 c-803 0 -905 -2 -905
-15 0 -9 53 -68 118 -133 65 -64 147 -153 182 -197 199 -249 293 -328 449
-379 70 -23 87 -41 46 -48 -46 -9 -159 19 -231 57 -97 52 -175 118 -364 309
-91 92 -173 172 -182 177 -14 7 -22 1 -43 -35 -55 -94 -141 -145 -244 -146
-116 0 -170 43 -221 175 -17 45 -23 82 -24 147 l-1 88 -72 0 -72 0 15 -35 c18
-43 19 -134 2 -139 -122 -32 -156 -36 -218 -26 -69 11 -79 14 -203 55 -101 33
-163 65 -210 109 l-38 36 -840 0 -839 0 0 -1289z m4260 994 c0 -8 -7 -15 -15
-15 -8 0 -15 7 -15 15 0 8 7 15 15 15 8 0 15 -7 15 -15z m-329 -625 c10 -6 19
-15 19 -20 0 -17 -36 -11 -55 10 -17 19 -17 20 -1 20 10 0 26 -5 37 -10z
m-1371 -150 c0 -5 -7 -10 -15 -10 -8 0 -15 5 -15 10 0 6 7 10 15 10 8 0 15 -4
15 -10z m1940 -1205 c0 -8 -7 -15 -16 -15 -14 0 -14 3 -4 15 7 8 14 15 16 15
2 0 4 -7 4 -15z"/>
<path d="M624 1185 c-3 -8 5 -29 18 -47 l23 -33 5 35 c4 19 4 41 2 48 -6 17
-41 15 -48 -3z"/>
<path d="M2088 134 c-43 -59 -78 -112 -78 -120 0 -12 72 -14 449 -14 l448 0 9
53 c9 53 9 96 0 104 -3 3 -26 -3 -51 -13 -40 -15 -52 -16 -82 -5 -29 11 -37
10 -51 -2 -18 -16 -82 -17 -116 -2 -13 6 -23 3 -32 -9 -10 -15 -18 -16 -54 -6
-23 6 -60 8 -81 5 -31 -5 -40 -3 -45 9 -3 9 -17 16 -29 16 -13 0 -26 4 -29 9
-3 4 -23 11 -45 15 -22 3 -46 12 -53 19 -10 10 -78 48 -82 47 -1 -1 -36 -48
-78 -106z"/>
</g>
</svg>
