<?xml version="1.0" standalone="no"?>
<!DOCTYPE svg PUBLIC "-//W3C//DTD SVG 20010904//EN"
 "http://www.w3.org/TR/2001/REC-SVG-20010904/DTD/svg10.dtd">
<svg version="1.0" xmlns="http://www.w3.org/2000/svg"
 width="480.000000pt" height="360.000000pt" viewBox="0 0 480.000000 360.000000"
 preserveAspectRatio="xMidYMid meet">
<metadata>
Created by potrace 1.16, written by Peter Selinger 2001-2019
</metadata>
<rect width="1" height="360" fill="#000000"/>
<rect x="479" width="1" height="360" fill="#000000"/>
<rect width="480" height="1" fill="#000000"/>
<rect y="359" width="480" height="1" fill="#000000"/>
<g transform="translate(0.000000,360.000000) scale(0.100000,-0.100000)"
fill="#000000" stroke="none">
<path d="M0 1800 l0 -1800 984 0 983 0 7 48 c3 26 13 125 21 221 9 96 18 186
21 200 3 14 7 36 10 49 3 16 0 22 -14 22 -10 0 -24 6 -31 13 -10 10 -14 9 -22
-5 -25 -45 -59 -6 -59 66 0 35 -4 46 -15 46 -9 0 -20 12 -26 27 -13 34 -1 61
77 181 30 45 54 88 54 95 0 7 7 21 15 31 8 11 15 31 15 45 0 13 10 35 21 48
21 21 21 26 11 95 -6 40 -11 114 -11 165 0 111 -4 129 -43 216 -39 88 -46 164
-23 243 10 32 26 96 36 141 35 159 108 293 183 332 14 8 26 18 26 23 0 5 -9 4
-21 -2 -16 -9 -26 -8 -47 7 -15 10 -39 23 -55 30 -15 7 -30 19 -33 28 -3 8
-10 15 -14 15 -5 0 -20 4 -34 10 -25 9 -25 10 -11 43 13 32 13 36 -5 52 -16
14 -29 16 -68 11 -38 -5 -52 -3 -62 9 -7 8 -18 15 -24 15 -6 0 -17 15 -24 33
l-13 32 -14 -25 c-14 -24 -14 -22 -15 35 0 33 5 101 11 150 9 79 15 97 48 145
l39 56 -40 71 -39 71 46 22 c44 22 77 23 131 5 21 -7 21 -6 9 42 -7 26 -15 65
-19 86 -7 35 -6 38 12 28 10 -5 24 -17 32 -25 20 -25 30 -19 31 17 2 55 13 82
34 79 47 -9 206 -144 250 -212 16 -26 36 -40 74 -53 68 -24 110 -63 174 -161
86 -131 143 -285 187 -509 12 -60 38 -150 59 -200 84 -203 120 -306 136 -382
10 -44 24 -107 31 -140 7 -33 14 -73 14 -89 0 -28 -1 -28 -18 -12 -18 15 -19
14 -32 -41 -7 -32 -16 -63 -21 -69 -5 -6 -2 -34 6 -65 24 -89 19 -125 -35
-260 -67 -165 -91 -255 -97 -369 -5 -91 10 -523 23 -697 l7 -83 983 0 984 0 0
1800 0 1800 -2400 0 -2400 0 0 -1800z"/>
<path d="M2073 1324 c5 -103 18 -145 36 -115 22 35 -8 221 -35 221 -4 0 -4
-48 -1 -106z"/>
</g>
</svg>
