<?xml version="1.0" standalone="no"?>
<!DOCTYPE svg PUBLIC "-//W3C//DTD SVG 20010904//EN"
 "http://www.w3.org/TR/2001/REC-SVG-20010904/DTD/svg10.dtd">
<svg version="1.0" xmlns="http://www.w3.org/2000/svg"
 width="480.000000pt" height="360.000000pt" viewBox="0 0 480.000000 360.000000"
 preserveAspectRatio="xMidYMid meet">
<metadata>
Created by potrace 1.16, written by Peter Selinger 2001-2019
</metadata>
<rect width="1" height="360" fill="#000000"/>
<rect x="479" width="1" height="360" fill="#000000"/>
<rect width="480" height="1" fill="#000000"/>
<rect y="359" width="480" height="1" fill="#000000"/>
<g transform="translate(0.000000,360.000000) scale(0.100000,-0.100000)"
fill="#000000" stroke="none">
<path d="M1445 3153 c-115 -24 -263 -142 -349 -275 -42 -67 -61 -112 -80 -196
-39 -170 69 -378 247 -476 85 -47 151 -60 263 -53 75 4 94 3 98 -9 3 -8 17
-19 31 -24 14 -5 25 -14 25 -20 0 -15 -16 -12 -30 5 -21 25 -55 17 -120 -27
-81 -56 -76 -53 -142 -82 -61 -27 -68 -39 -48 -90 7 -21 3 -35 -26 -83 -38
-64 -49 -95 -40 -118 8 -22 43 -18 56 5 13 25 36 21 93 -16 44 -29 43 -46 -3
-104 -18 -23 -24 -40 -19 -50 4 -8 10 -23 13 -32 3 -11 15 -18 29 -18 24 0 24
-2 31 -132 3 -73 11 -162 16 -198 5 -36 10 -91 10 -122 0 -47 4 -62 25 -84 35
-38 35 -100 0 -129 -24 -19 -26 -27 -28 -114 -2 -87 0 -95 21 -108 18 -13 22
-25 22 -69 0 -42 -4 -55 -19 -64 -24 -12 -31 -43 -33 -139 -1 -66 1 -76 20
-89 18 -12 22 -24 22 -68 0 -30 -4 -54 -9 -54 -23 0 -41 -34 -41 -76 0 -55 25
-61 35 -8 6 32 8 34 19 19 12 -16 13 -16 30 1 15 14 19 15 27 3 5 -8 9 -24 9
-36 0 -15 6 -23 16 -23 26 0 13 90 -15 109 -16 10 -21 24 -21 59 0 38 5 50 27
68 25 19 27 28 31 112 4 88 3 92 -22 115 -22 20 -26 33 -26 76 0 28 4 51 9 51
5 0 17 7 25 16 12 12 16 37 16 110 0 83 -2 95 -20 106 -31 20 -28 107 5 138
22 20 34 23 97 21 40 -1 114 5 163 12 50 8 91 13 93 12 1 -1 -9 -22 -23 -47
-14 -25 -35 -81 -47 -124 -19 -71 -22 -102 -21 -314 1 -129 6 -291 11 -360 6
-78 7 -131 1 -142 -9 -17 12 -18 391 -18 369 0 400 1 400 17 0 9 -12 29 -26
44 -23 24 -26 39 -37 152 -9 110 -9 132 6 186 18 63 80 183 123 236 l24 30 0
-69 c0 -79 8 -77 34 7 9 31 19 57 21 57 6 0 21 -57 45 -171 82 -379 83 -388
48 -414 -21 -14 -23 -14 -27 2 -4 21 -20 43 -31 43 -5 0 -22 -27 -38 -60 l-30
-60 310 0 310 0 46 37 c86 69 110 113 111 199 2 112 -55 217 -215 398 l-87 99
18 151 c36 306 79 507 146 672 16 41 24 51 39 47 10 -3 20 -17 24 -34 3 -16
12 -32 20 -35 18 -7 66 24 66 42 0 8 6 14 13 14 23 0 149 149 172 203 8 19 21
39 29 47 9 7 16 18 16 24 0 7 9 29 20 51 46 91 64 231 34 273 -17 25 -93 66
-141 77 -41 8 -125 -15 -175 -50 -31 -21 -41 -23 -65 -14 -15 5 -38 8 -50 4
-40 -10 -25 10 58 76 45 35 130 103 190 152 60 48 114 87 119 87 5 0 24 -9 42
-20 50 -30 107 -26 186 14 37 18 86 37 109 41 66 11 73 29 29 74 -21 22 -53
47 -72 57 l-34 18 58 21 c70 25 78 46 27 72 l-36 19 148 153 c81 85 150 158
151 162 7 18 -22 8 -106 -36 -91 -47 -156 -88 -465 -298 -111 -75 -262 -166
-365 -221 l-177 -92 -6 33 c-8 46 -36 73 -75 73 -37 0 -52 -14 -29 -27 13 -7
10 -14 -18 -41 -41 -40 -71 -42 -167 -11 -96 30 -186 30 -305 0 -122 -31 -125
-32 -95 -41 24 -7 24 -7 -12 -23 -21 -9 -38 -20 -38 -25 0 -5 -10 -14 -22 -21
-22 -11 -22 -11 5 -6 25 5 27 4 18 -13 -5 -10 -17 -24 -25 -32 -21 -16 -46
-103 -46 -154 l0 -41 19 24 18 24 6 -38 c3 -21 4 -42 0 -48 -7 -11 -91 -3
-104 10 -5 5 -4 25 2 48 38 137 -73 341 -214 394 -32 11 -72 21 -90 22 -73 1
-102 37 -121 148 -19 106 -53 179 -118 248 -104 110 -238 174 -362 172 -33 -1
-70 -3 -81 -6z m975 -1108 c0 -28 -15 -41 -23 -21 -8 19 3 57 14 50 5 -3 9
-16 9 -29z m-500 -215 c97 -33 178 -25 284 29 44 22 86 41 91 41 6 0 23 -11
39 -23 27 -22 28 -26 18 -56 -15 -42 -9 -54 50 -96 27 -20 47 -42 45 -48 -3
-7 -30 -71 -61 -144 -31 -73 -56 -136 -56 -141 0 -18 -50 -54 -87 -63 -21 -5
-101 -18 -178 -30 -77 -11 -175 -29 -219 -40 -43 -11 -79 -19 -81 -17 -1 2
-10 66 -20 142 -17 134 -17 140 0 152 10 7 22 15 28 17 5 1 -3 23 -19 47 -24
35 -29 56 -32 115 -3 54 0 79 11 96 9 13 19 43 23 66 l6 41 47 -33 c25 -18 75
-43 111 -55z m-520 -49 c0 -4 -13 -15 -30 -24 -34 -21 -36 -18 -14 24 12 25
18 28 30 18 8 -6 14 -14 14 -18z m159 -750 c8 -14 7 -22 -4 -31 -8 -7 -15 -9
-15 -4 0 5 -3 19 -6 32 -8 27 11 30 25 3z m51 -314 c0 -80 -6 -96 -27 -69 -12
16 -14 16 -28 -2 -20 -26 -27 -6 -23 70 3 58 4 59 31 56 15 -2 27 1 27 7 0 6
5 11 10 11 6 0 10 -31 10 -73z m-36 -304 c7 9 16 17 20 17 3 0 6 -36 6 -80 0
-47 -4 -80 -10 -80 -5 0 -10 7 -10 15 0 20 -29 19 -37 -1 -17 -44 -32 67 -17
124 6 21 7 21 20 5 13 -17 15 -17 28 0z"/>
</g>
</svg>
