<?xml version="1.0" standalone="no"?>
<!DOCTYPE svg PUBLIC "-//W3C//DTD SVG 20010904//EN"
 "http://www.w3.org/TR/2001/REC-SVG-20010904/DTD/svg10.dtd">
<svg version="1.0" xmlns="http://www.w3.org/2000/svg"
 width="480.000000pt" height="360.000000pt" viewBox="0 0 480.000000 360.000000"
 preserveAspectRatio="xMidYMid meet">
<metadata>
Created by potrace 1.16, written by Peter Selinger 2001-2019
</metadata>
<rect width="1" height="360" fill="#000000"/>
<rect x="479" width="1" height="360" fill="#000000"/>
<rect width="480" height="1" fill="#000000"/>
<rect y="359" width="480" height="1" fill="#000000"/>
<g transform="translate(0.000000,360.000000) scale(0.100000,-0.100000)"
fill="#000000" stroke="none">
<path d="M0 2650 c0 -522 3 -950 7 -950 9 0 128 67 182 103 79 53 163 119 246
195 127 117 93 116 316 9 107 -51 249 -126 315 -165 222 -131 321 -152 522
-112 l111 22 63 -20 c109 -35 101 -36 155 32 27 33 66 84 87 111 44 58 96 96
174 125 30 12 68 30 83 41 25 18 27 22 17 49 -5 17 -8 37 -5 44 7 18 -18 40
-37 33 -10 -4 -16 2 -18 15 -6 42 -26 30 -33 -19 -3 -26 -9 -64 -13 -83 l-6
-35 -4 34 c-3 26 -6 31 -13 20 -6 -10 -9 -2 -10 26 -1 76 -14 81 -28 11 -16
-78 -29 -94 -29 -34 0 24 -8 75 -17 115 -13 55 -20 71 -31 66 -10 -4 -19 5
-27 26 -14 37 -21 38 -41 9 -16 -22 -16 -21 -16 21 0 35 -3 42 -16 37 -9 -3
-28 -9 -42 -13 -26 -6 -25 -5 11 38 45 52 56 85 34 106 -15 15 -17 14 -28 -10
-15 -32 -33 -34 -77 -7 -18 11 -37 18 -42 15 -5 -3 -20 5 -35 17 l-26 23 68
61 c38 34 80 82 93 107 23 43 23 47 10 115 -30 160 31 341 139 412 70 47 142
66 236 61 114 -4 148 -4 256 4 196 15 328 -52 396 -202 l25 -54 23 26 c47 49
129 21 229 -78 43 -43 86 -133 86 -179 0 -12 8 -49 17 -81 l17 -60 -26 -21
c-14 -12 -33 -36 -43 -54 -15 -30 -15 -38 -2 -70 8 -21 27 -97 41 -169 30
-149 29 -179 -20 -328 -27 -81 -50 -119 -65 -109 -5 3 -9 -3 -9 -13 0 -10 -7
-26 -14 -36 -14 -18 -14 -17 -21 2 -7 23 -35 29 -35 9 -1 -25 -18 17 -25 62
l-8 45 -9 -34 c-5 -18 -11 -31 -13 -29 -3 2 -11 38 -19 80 -8 41 -22 92 -31
114 -33 79 -37 123 -24 269 12 139 7 235 -12 235 -6 0 -24 -30 -40 -67 -38
-82 -34 -121 14 -152 l32 -21 -27 0 c-23 0 -27 -4 -25 -22 1 -17 -3 -22 -15
-20 -14 2 -16 -4 -11 -35 l5 -38 -27 33 c-32 38 -41 40 -49 7 -4 -15 -11 -22
-20 -19 -15 6 -40 -59 -52 -135 l-7 -44 -12 29 c-11 28 -12 27 -29 -43 -10
-40 -21 -73 -24 -73 -2 0 -2 28 1 63 4 38 2 54 -3 42 -5 -11 -9 -32 -9 -47 -1
-15 -6 -30 -11 -33 -6 -4 -10 27 -10 87 -1 86 -2 91 -15 67 -8 -14 -25 -33
-38 -42 -29 -19 -55 -100 -39 -120 6 -7 42 -28 79 -47 131 -65 169 -102 290
-277 32 -48 40 -53 72 -53 20 0 56 6 80 14 41 12 51 11 120 -11 42 -14 112
-29 156 -35 119 -16 190 3 401 107 94 46 226 104 293 129 66 25 134 52 150 61
52 26 65 20 158 -80 114 -123 267 -252 385 -324 l38 -23 0 1046 0 1046 -2400
0 -2400 0 0 -950z"/>
<path d="M3232 2005 c0 -16 2 -22 5 -12 2 9 2 23 0 30 -3 6 -5 -1 -5 -18z"/>
<path d="M511 1926 c-51 -51 -53 -56 -37 -72 9 -9 15 -23 11 -32 -3 -9 5 -26
18 -41 26 -28 67 -119 67 -147 0 -16 -65 -257 -112 -417 -36 -123 -43 -110
-101 187 l-47 239 25 55 c14 30 23 57 20 60 -2 3 -28 -13 -57 -35 -29 -22 -75
-53 -101 -68 -59 -34 -76 -69 -48 -99 27 -31 50 -78 57 -123 6 -39 -17 -131
-77 -309 -11 -34 -22 -68 -23 -75 -11 -54 -30 -110 -41 -119 -19 -16 -27 1
-46 95 -17 79 -17 70 -18 -472 l-1 -553 878 0 878 0 26 83 c15 45 34 111 43
147 28 114 66 222 116 329 l49 104 6 185 7 186 -30 -29 c-16 -17 -42 -54 -58
-84 -34 -62 -76 -97 -285 -233 -205 -134 -295 -184 -373 -208 -37 -12 -104
-37 -149 -56 -111 -47 -153 -55 -235 -45 -116 15 -301 105 -265 129 8 5 33 5
60 0 81 -16 145 -10 245 22 64 20 102 38 112 53 22 32 19 35 -32 34 -42 -2
-48 1 -48 18 0 33 61 55 157 58 62 1 91 -3 114 -15 37 -20 19 -31 250 155 88
71 188 148 224 172 l66 44 12 72 c7 40 26 113 43 163 l30 90 -31 24 c-37 29
-37 38 -4 74 26 26 26 28 10 53 -10 15 -16 40 -14 58 3 31 1 32 -42 39 -83 12
-140 9 -147 -7 -3 -9 2 -23 10 -33 10 -10 18 -46 22 -92 l7 -75 -109 -214
c-60 -118 -114 -216 -121 -219 -9 -3 -12 53 -12 245 l0 249 40 61 c22 34 47
66 56 71 9 5 14 14 10 21 -9 14 -276 16 -276 1 0 -5 4 -10 9 -10 10 0 26 -39
42 -102 11 -45 8 -54 -61 -255 -40 -114 -75 -218 -77 -230 -6 -24 -30 -49 -39
-40 -3 3 -19 115 -36 248 l-29 243 27 63 c15 36 37 71 50 80 38 24 30 55 -23
94 -110 80 -233 141 -233 116 0 -6 7 -21 15 -31 24 -32 47 -126 40 -165 -3
-20 -17 -72 -30 -116 -12 -44 -38 -133 -55 -198 -35 -123 -53 -162 -68 -139
-5 7 -23 94 -41 195 -17 100 -37 209 -43 242 -10 58 -9 63 21 125 17 35 38 68
46 73 8 4 15 18 15 30 0 18 -19 32 -97 72 -54 28 -100 51 -103 53 -3 1 -30
-22 -59 -52z"/>
<path d="M4147 1792 c-85 -40 -96 -49 -91 -67 4 -11 13 -27 20 -36 8 -8 23
-42 34 -73 l20 -59 -46 -141 c-25 -77 -52 -161 -60 -186 -22 -69 -31 -79 -49
-56 -8 11 -15 27 -15 35 0 9 -18 88 -40 176 -22 87 -40 167 -40 176 0 18 42
113 62 141 23 31 0 30 -79 -4 -153 -67 -230 -134 -178 -155 20 -7 75 -115 75
-146 0 -13 -4 -37 -9 -53 -10 -32 -32 -133 -52 -234 -28 -150 -35 -144 -129
120 -64 177 -63 174 -31 251 l28 67 -74 11 c-94 14 -193 14 -193 1 0 -6 7 -13
15 -16 26 -10 87 -95 96 -132 4 -20 11 -126 15 -236 8 -233 7 -234 -73 -105
-180 292 -172 276 -173 350 0 53 4 72 21 93 33 42 13 56 -82 56 -78 0 -79 0
-74 -23 4 -15 -1 -32 -15 -50 -18 -22 -20 -30 -10 -42 7 -8 9 -15 5 -15 -5 0
0 -9 10 -20 21 -23 14 -46 -20 -62 -29 -13 -30 -24 -9 -115 9 -37 17 -99 19
-136 l3 -69 53 -32 c30 -18 119 -79 199 -135 139 -99 147 -103 185 -96 99 16
138 17 202 5 74 -13 107 -29 123 -59 7 -15 6 -23 -6 -35 -13 -14 -19 -14 -50
-1 -31 13 -36 13 -41 0 -9 -26 16 -43 75 -49 31 -4 69 -9 84 -12 20 -4 28 -1
32 14 6 17 11 19 34 10 23 -9 36 -6 80 16 l52 26 21 -21 c21 -21 22 -23 4 -53
-43 -76 -156 -139 -273 -152 -50 -5 -74 -2 -125 16 -34 12 -70 26 -81 32 -31
17 -98 39 -161 54 -62 15 -374 175 -475 244 -70 48 -91 78 -126 176 l-28 79
-9 -45 c-4 -25 -5 -85 -1 -135 4 -49 8 -119 8 -155 1 -56 8 -77 45 -150 39
-75 131 -331 131 -362 0 -7 14 -59 32 -115 l31 -103 879 0 878 0 0 699 0 699
-25 6 c-35 9 -50 -2 -32 -22 17 -22 37 -90 37 -132 0 -18 -15 -59 -34 -93 -19
-34 -59 -109 -90 -167 -39 -74 -60 -105 -73 -105 -20 0 -21 7 -43 268 l-12
138 41 54 c23 30 50 59 61 65 20 11 28 50 10 50 -13 0 -210 160 -210 171 0 5
-5 9 -11 9 -8 0 -8 -4 -2 -12 15 -19 43 -108 43 -135 0 -12 -9 -42 -19 -65
-11 -24 -43 -101 -72 -173 -72 -179 -89 -193 -103 -86 -3 25 -8 57 -11 71 -32
181 -43 269 -38 290 8 32 69 116 88 124 8 3 15 13 15 22 0 10 7 25 15 34 13
14 9 22 -30 73 -25 31 -49 57 -53 56 -4 0 -51 -22 -105 -47z"/>
<path d="M13 1583 c-7 -2 -13 -14 -13 -25 0 -20 1 -21 20 -3 30 27 26 42 -7
28z"/>
</g>
</svg>
