<?xml version="1.0" standalone="no"?>
<!DOCTYPE svg PUBLIC "-//W3C//DTD SVG 20010904//EN"
 "http://www.w3.org/TR/2001/REC-SVG-20010904/DTD/svg10.dtd">
<svg version="1.0" xmlns="http://www.w3.org/2000/svg"
 width="480.000000pt" height="360.000000pt" viewBox="0 0 480.000000 360.000000"
 preserveAspectRatio="xMidYMid meet">
<metadata>
Created by potrace 1.16, written by Peter Selinger 2001-2019
</metadata>
<rect width="1" height="360" fill="#000000"/>
<rect x="479" width="1" height="360" fill="#000000"/>
<rect width="480" height="1" fill="#000000"/>
<rect y="359" width="480" height="1" fill="#000000"/>
<g transform="translate(0.000000,360.000000) scale(0.100000,-0.100000)"
fill="#000000" stroke="none">
<path d="M1007 3585 c20 -14 55 -113 132 -375 32 -109 36 -117 128 -289 84
-157 150 -252 277 -401 64 -74 116 -138 116 -142 0 -3 -17 -17 -37 -29 -34
-21 -50 -24 -163 -24 -114 -1 -136 -4 -250 -38 -159 -47 -263 -99 -370 -186
-325 -261 -519 -638 -575 -1111 -35 -307 -1 -684 84 -930 l20 -55 412 -3 c241
-1 409 1 404 7 -6 5 -32 25 -60 46 -27 20 -78 64 -112 96 -74 72 -130 178
-165 314 -22 84 -23 108 -22 375 0 201 5 323 17 415 9 72 21 182 27 245 20
218 68 391 131 470 84 107 224 171 671 306 26 8 57 14 70 14 13 0 40 9 61 20
48 26 125 26 182 0 44 -20 175 -147 257 -250 58 -73 141 -221 168 -301 12 -35
24 -96 27 -136 5 -62 3 -77 -16 -109 l-22 -37 23 -22 c13 -12 37 -37 53 -56
44 -49 218 -199 315 -271 116 -85 250 -151 416 -202 49 -16 101 -33 117 -38
31 -12 280 -265 344 -350 49 -66 176 -212 213 -245 14 -13 64 -43 112 -67 47
-25 135 -82 195 -127 84 -65 118 -85 153 -90 25 -4 138 -8 253 -8 l207 -1 0
1800 0 1800 -181 0 c-167 0 -180 -1 -175 -17 101 -352 131 -750 81 -1072 -67
-431 -278 -823 -568 -1056 -131 -106 -361 -213 -496 -231 -46 -6 -51 -5 -51
12 1 30 38 67 120 120 106 69 185 151 221 230 69 155 155 729 144 958 -12 240
-54 346 -211 536 -89 108 -313 303 -478 415 -48 33 -101 70 -116 83 l-28 22
-1038 0 c-919 0 -1036 -2 -1017 -15z m1949 -1152 l77 -17 -6 -95 c-5 -82 -68
-405 -81 -419 -3 -2 -29 8 -60 22 -30 14 -59 26 -65 26 -6 0 -40 28 -76 62
-74 68 -166 191 -215 286 -31 58 -32 63 -17 80 15 16 113 54 172 66 52 10 202
4 271 -11z"/>
<path d="M1546 1383 c-7 -7 2 -230 14 -351 7 -58 18 -109 31 -134 l21 -40 70
6 c87 9 199 45 299 97 86 45 114 70 105 95 -5 12 -13 15 -34 9 -49 -12 -69 -8
-117 25 -43 29 -121 121 -187 219 -22 33 -37 43 -80 55 -72 19 -114 26 -122
19z"/>
</g>
</svg>
