<?xml version="1.0" standalone="no"?>
<!DOCTYPE svg PUBLIC "-//W3C//DTD SVG 20010904//EN"
 "http://www.w3.org/TR/2001/REC-SVG-20010904/DTD/svg10.dtd">
<svg version="1.0" xmlns="http://www.w3.org/2000/svg"
 width="480.000000pt" height="360.000000pt" viewBox="0 0 480.000000 360.000000"
 preserveAspectRatio="xMidYMid meet">
<metadata>
Created by potrace 1.16, written by Peter Selinger 2001-2019
</metadata>
<rect width="1" height="360" fill="#000000"/>
<rect x="479" width="1" height="360" fill="#000000"/>
<rect width="480" height="1" fill="#000000"/>
<rect y="359" width="480" height="1" fill="#000000"/>
<g transform="translate(0.000000,360.000000) scale(0.100000,-0.100000)"
fill="#000000" stroke="none">
<path d="M2 2968 l3 -632 42 -11 c96 -23 201 -193 150 -244 -7 -7 -12 -40 -12
-87 l0 -76 -43 -36 c-38 -33 -43 -43 -49 -92 -5 -48 -11 -60 -49 -96 -40 -38
-44 -46 -44 -89 0 -52 10 -65 69 -91 28 -13 35 -13 42 -2 6 10 18 3 49 -27 56
-54 59 -74 21 -127 -26 -36 -44 -48 -108 -73 l-76 -29 7 -165 c4 -91 11 -288
15 -437 8 -254 10 -273 29 -292 11 -11 30 -41 41 -67 l21 -47 -31 -64 c-33
-70 -49 -79 -66 -36 -9 23 -11 13 -12 -60 l-1 -88 1063 0 1062 0 19 34 c14 27
25 35 55 38 20 3 44 8 53 12 24 11 71 -37 63 -64 -6 -19 8 -19 955 -20 938 0
961 0 951 19 -6 10 -7 21 -4 25 14 14 72 5 119 -19 46 -24 58 -25 213 -25 138
0 167 3 182 16 10 9 30 16 44 16 l25 1 0 611 0 611 -92 -92 c-51 -50 -109
-104 -128 -120 -19 -15 -46 -39 -60 -53 -57 -56 -61 -56 -34 6 57 129 158 233
269 276 l40 16 3 1156 2 1156 -1050 0 -1051 0 -30 -35 c-18 -20 -40 -35 -53
-35 -21 1 -21 1 -1 18 11 9 26 25 34 35 13 16 -55 17 -1318 17 l-1331 0 2
-632z m1253 431 c63 -23 112 -60 102 -76 -13 -21 -197 46 -197 72 0 31 21 32
95 4z m-141 -12 c-5 -15 -56 -47 -73 -47 -23 0 -9 20 27 39 44 24 53 25 46 8z
m266 -117 c-8 -5 -37 -9 -65 -9 -44 1 -46 2 -20 9 46 12 103 12 85 0z m1258
-105 c12 -12 -12 -18 -83 -23 -51 -3 -75 -1 -75 6 0 7 12 14 28 18 15 3 32 7
37 8 15 4 87 -3 93 -9z m1724 -115 c-5 -45 -15 -56 -49 -54 -61 5 -68 13 -49
58 15 36 17 37 58 34 43 -3 43 -3 40 -38z m-2922 -270 c11 -7 8 -9 -15 -9 -16
1 -43 5 -60 9 -27 7 -26 8 15 9 25 0 52 -4 60 -9z m1213 -21 c33 -17 67 -51
61 -60 -15 -25 -124 0 -153 35 -13 15 -13 19 0 27 20 12 66 11 92 -2z m-2006
-231 c18 -17 23 -32 23 -75 0 -49 -2 -53 -24 -53 -38 0 -76 52 -76 106 0 41 2
44 27 44 15 0 37 -10 50 -22z m3716 -732 c22 -17 22 -36 -2 -36 -10 0 -32 -3
-50 -6 -33 -7 -49 11 -37 41 7 19 64 19 89 1z m-1620 -42 c9 -9 -19 -60 -37
-67 -24 -10 -41 19 -28 48 11 24 49 35 65 19z m-2425 -162 c5 -17 -31 -15 -54
3 -16 13 -17 16 -4 24 16 11 51 -6 58 -27z m712 -5 c0 -28 -39 -77 -60 -77
-24 0 -43 34 -35 61 4 10 23 28 43 38 39 20 52 15 52 -22z m1629 -1 c32 -21
42 -35 55 -80 9 -30 16 -57 16 -61 0 -13 -88 4 -128 24 -63 33 -82 59 -75 110
l6 43 43 -6 c24 -3 61 -17 83 -30z m480 -212 c60 -17 66 -34 14 -35 -110 -2
-170 3 -192 18 l-24 16 29 13 c33 15 96 11 173 -12z m260 -146 c-39 -74 -119
-136 -119 -93 0 7 -7 18 -17 23 -23 13 -9 40 24 47 15 3 48 17 73 30 25 13 46
22 48 20 2 -2 -2 -14 -9 -27z m-1706 -50 c19 -23 22 -53 6 -63 -18 -12 -69 16
-84 46 -19 35 -19 37 3 42 26 7 55 -3 75 -25z m587 -33 c0 -24 -28 -85 -38
-85 -20 0 -34 30 -27 59 6 28 11 31 58 40 4 0 7 -6 7 -14z m1403 -228 c4 -26
4 -62 -1 -80 l-9 -32 -17 34 c-13 25 -16 45 -11 83 9 61 27 59 38 -5z m-1721
-25 c18 -18 -1 -32 -35 -25 -44 8 -83 33 -68 43 15 9 89 -4 103 -18z m208 -16
c0 -21 -40 -46 -72 -46 -32 0 -36 15 -11 42 20 22 83 25 83 4z m2476 -102 c36
-15 114 -77 122 -96 8 -18 -71 -7 -106 16 -49 31 -86 72 -77 85 8 15 16 14 61
-5z m-2201 -164 c8 -14 -40 -24 -72 -15 l-28 8 25 7 c36 11 68 11 75 0z m1161
-38 c12 -31 3 -76 -22 -103 -15 -17 -18 -17 -40 -2 -27 17 -29 29 -13 84 8 26
19 39 33 42 12 2 23 5 26 6 3 0 10 -11 16 -27z m-736 -51 c0 -9 -83 -41 -107
-41 -32 0 -8 17 45 32 31 8 58 16 60 17 1 0 2 -3 2 -8z m-924 -385 c6 -35 -10
-101 -27 -111 -12 -8 -29 37 -29 76 0 27 25 69 42 69 4 0 10 -15 14 -34z
m-1021 -75 c-6 -23 -8 -24 -16 -8 -7 12 -6 29 3 55 l13 37 3 -29 c2 -15 1 -40
-3 -55z"/>
<path d="M0 1460 c0 -44 4 -80 9 -80 16 0 71 34 71 44 0 5 -8 18 -17 28 -14
16 -15 21 -3 28 10 6 7 14 -16 34 -16 14 -32 26 -36 26 -5 0 -8 -36 -8 -80z"/>
</g>
</svg>
