<?xml version="1.0" standalone="no"?>
<!DOCTYPE svg PUBLIC "-//W3C//DTD SVG 20010904//EN"
 "http://www.w3.org/TR/2001/REC-SVG-20010904/DTD/svg10.dtd">
<svg version="1.0" xmlns="http://www.w3.org/2000/svg"
 width="480.000000pt" height="360.000000pt" viewBox="0 0 480.000000 360.000000"
 preserveAspectRatio="xMidYMid meet">
<metadata>
Created by potrace 1.16, written by Peter Selinger 2001-2019
</metadata>
<rect width="1" height="360" fill="#000000"/>
<rect x="479" width="1" height="360" fill="#000000"/>
<rect width="480" height="1" fill="#000000"/>
<rect y="359" width="480" height="1" fill="#000000"/>
<g transform="translate(0.000000,360.000000) scale(0.100000,-0.100000)"
fill="#000000" stroke="none">
<path d="M1940 3488 c-7 -62 -15 -255 -17 -428 -2 -173 -6 -316 -9 -319 -2 -2
-4 7 -4 20 0 41 -30 142 -47 161 -10 11 -20 15 -26 9 -9 -9 -11 -205 -2 -306
l5 -60 -22 62 c-30 81 -45 96 -65 66 -9 -13 -19 -23 -24 -23 -5 0 -25 32 -45
72 -69 136 -101 172 -131 146 -20 -16 -13 -86 21 -220 30 -121 41 -198 28
-198 -5 0 -34 73 -63 162 -55 165 -117 302 -104 228 4 -19 13 -53 20 -75 17
-49 50 -254 42 -261 -3 -3 -11 13 -18 35 -7 23 -14 39 -16 37 -2 -2 3 -29 12
-61 9 -31 15 -59 12 -62 -7 -6 -55 70 -74 116 -8 20 -19 46 -25 58 -6 12 -25
63 -42 114 -17 50 -35 92 -41 93 -25 3 -10 -155 20 -214 7 -14 17 -44 21 -65
l7 -40 -58 60 c-69 71 -81 60 -42 -38 35 -86 49 -145 42 -168 -12 -36 -195
-92 -372 -113 -113 -13 -157 -25 -356 -99 -67 -25 -70 -25 -317 -19 l-250 5 0
-1082 0 -1081 947 2 948 3 25 72 c36 104 50 116 127 111 70 -4 74 1 53 66 -5
17 -15 57 -21 89 -9 52 -14 59 -45 72 -30 12 -34 18 -34 50 0 38 31 104 103
220 48 77 78 93 104 55 14 -20 16 -21 35 -4 48 44 79 -54 39 -120 -12 -18 -21
-40 -21 -48 0 -9 -9 -27 -20 -41 -15 -19 -18 -31 -12 -49 5 -12 19 -79 32
-146 19 -101 21 -125 10 -132 -11 -7 -11 -15 1 -46 13 -35 18 -38 89 -56 118
-29 172 -48 212 -74 l38 -24 1095 0 1095 0 0 1075 0 1075 -417 0 c-496 0 -542
5 -684 73 -109 53 -176 73 -274 82 -49 5 -96 18 -158 46 -48 21 -94 39 -103
39 -11 0 -14 6 -9 20 7 22 -5 26 -23 8 -32 -32 4 100 66 244 55 127 77 192 61
182 -6 -3 -34 -43 -64 -87 -120 -181 -156 -224 -176 -212 -5 4 -9 35 -9 71 0
36 -4 64 -10 64 -6 0 -23 -18 -38 -40 -15 -21 -29 -39 -32 -40 -3 0 -3 28 1
63 3 34 3 71 -1 82 -6 17 -11 14 -37 -23 -17 -23 -46 -73 -64 -112 -31 -64
-53 -89 -67 -75 -4 3 2 50 11 105 30 172 43 345 28 377 -12 25 -14 26 -25 11
-12 -16 -26 -74 -41 -161 -5 -34 -9 -38 -28 -33 -12 3 -28 -1 -37 -9 -8 -7
-34 -20 -57 -28 -40 -14 -43 -13 -56 6 -10 16 -11 38 0 121 14 119 16 203 5
210 -12 7 -66 -51 -86 -91 -9 -18 -20 -33 -25 -33 -5 0 -12 42 -15 93 -4 50
-13 164 -21 252 -9 88 -16 178 -18 200 l-2 40 -221 3 -221 2 -13 -112z m590
-1518 c0 -11 -4 -20 -9 -20 -5 0 -12 -8 -14 -17 -3 -10 -4 -4 -4 12 1 35 5 45
18 45 5 0 9 -9 9 -20z m-252 -232 c-6 -18 -28 -21 -28 -4 0 9 7 16 16 16 9 0
14 -5 12 -12z m252 -7 c0 -20 -17 -37 -27 -28 -7 8 7 47 18 47 5 0 9 -9 9 -19z
m-110 -26 c13 -16 6 -35 -15 -35 -15 0 -28 27 -19 41 8 13 20 11 34 -6z m-68
-50 c-12 -22 -27 -2 -18 22 5 12 10 13 17 6 7 -7 8 -17 1 -28z m-187 -45 c3
-5 0 -19 -8 -30 -14 -21 -14 -21 -20 1 -9 33 12 55 28 29z m-55 -71 c0 -10 -4
-19 -9 -19 -12 0 -23 29 -15 41 8 14 24 0 24 -22z m224 -31 c8 -13 7 -21 -2
-30 -10 -10 -15 -10 -22 2 -8 12 -10 11 -10 -6 0 -12 -7 -24 -15 -28 -11 -4
-15 1 -15 19 0 14 4 25 9 25 5 0 7 9 4 21 -5 17 -2 20 17 17 13 -1 28 -11 34
-20z m-124 -18 c0 -16 -2 -30 -5 -30 -9 0 -26 41 -20 50 12 20 25 9 25 -20z
m-60 -1 c0 -5 -4 -9 -10 -9 -5 0 -10 7 -10 16 0 8 5 12 10 9 6 -3 10 -10 10
-16z m-94 -37 c-10 -10 -29 15 -21 28 6 9 10 8 17 -4 6 -10 7 -20 4 -24z m360
-46 c-5 -21 -3 -23 16 -18 17 4 20 2 15 -12 -4 -10 -7 -21 -7 -26 0 -4 -8 -7
-17 -6 -14 1 -18 -7 -18 -31 0 -18 -4 -32 -10 -32 -5 0 -9 10 -8 22 1 12 3 46
4 75 2 37 7 52 17 52 10 0 12 -7 8 -24z m-276 -20 c-13 -13 -35 7 -25 24 5 8
11 8 21 -1 10 -8 12 -15 4 -23z m180 12 c0 -16 -3 -19 -11 -11 -6 6 -8 16 -5
22 11 17 16 13 16 -11z m-96 -37 c3 -4 -3 -16 -13 -25 -22 -20 -40 -4 -21 19
14 17 26 19 34 6z m73 -51 c-13 -35 -22 -38 -37 -11 -8 16 -6 22 7 30 33 19
42 14 30 -19z m187 -69 c8 -12 -3 -41 -15 -41 -5 0 -9 11 -9 25 0 25 14 34 24
16z m-284 -22 c0 -24 -23 -21 -28 4 -2 10 3 17 12 17 10 0 16 -9 16 -21z m240
-19 c0 -5 -4 -10 -10 -10 -5 0 -10 5 -10 10 0 6 5 10 10 10 6 0 10 -4 10 -10z
m-290 -62 c0 -28 -18 -21 -35 12 -21 40 -9 61 16 29 10 -13 19 -32 19 -41z
m198 20 c-6 -18 -28 -21 -28 -4 0 9 7 16 16 16 9 0 14 -5 12 -12z m52 -23 c0
-8 -7 -15 -15 -15 -8 0 -15 7 -15 15 0 8 7 15 15 15 8 0 15 -7 15 -15z m-20
-85 c0 -5 -4 -10 -9 -10 -6 0 -13 5 -16 10 -3 6 1 10 9 10 9 0 16 -4 16 -10z
m-38 -15 c0 -5 -9 -14 -21 -20 -11 -5 -21 -13 -21 -17 0 -5 -7 -8 -16 -8 -9 0
-13 5 -10 13 3 6 9 20 12 30 7 19 54 21 56 2z m-91 -20 c-1 -15 -24 -12 -29 3
-3 9 2 13 12 10 10 -1 17 -7 17 -13z"/>
</g>
</svg>
