<?xml version="1.0" standalone="no"?>
<!DOCTYPE svg PUBLIC "-//W3C//DTD SVG 20010904//EN"
 "http://www.w3.org/TR/2001/REC-SVG-20010904/DTD/svg10.dtd">
<svg version="1.0" xmlns="http://www.w3.org/2000/svg"
 width="480.000000pt" height="360.000000pt" viewBox="0 0 480.000000 360.000000"
 preserveAspectRatio="xMidYMid meet">
<metadata>
Created by potrace 1.16, written by Peter Selinger 2001-2019
</metadata>
<rect width="1" height="360" fill="#000000"/>
<rect x="479" width="1" height="360" fill="#000000"/>
<rect width="480" height="1" fill="#000000"/>
<rect y="359" width="480" height="1" fill="#000000"/>
<g transform="translate(0.000000,360.000000) scale(0.100000,-0.100000)"
fill="#000000" stroke="none">
<path d="M0 2564 l0 -1036 31 24 c36 26 107 94 129 123 47 61 135 213 166 285
26 63 74 208 74 226 0 1 -12 5 -26 8 -14 4 -76 31 -137 61 -62 29 -121 55
-132 57 -17 3 -20 11 -20 59 0 31 -5 62 -11 70 -6 8 -16 29 -22 46 -9 26 -8
36 4 48 18 18 19 18 62 6 29 -9 39 -6 79 19 26 17 63 33 82 36 20 4 52 13 71
20 l35 14 1 98 c2 168 71 352 175 465 97 107 211 152 391 156 47 1 48 2 120
89 40 48 90 104 113 124 l40 37 -612 1 -613 0 0 -1036z"/>
<path d="M1276 3573 c11 -15 44 -77 74 -137 l55 -109 70 -18 c121 -31 209 -83
311 -184 78 -77 98 -105 137 -185 81 -166 93 -317 36 -424 -25 -48 -20 -77 32
-174 21 -41 39 -77 39 -81 0 -4 -18 -17 -40 -30 l-40 -22 0 -108 c0 -135 15
-186 81 -280 49 -70 62 -103 24 -61 -34 38 -35 20 -3 -42 18 -35 35 -67 37
-72 2 -5 -18 6 -44 24 l-48 33 6 -84 6 -84 -24 65 -25 65 1 -60 c1 -74 -8
-110 -26 -95 -9 8 -13 -5 -18 -57 -5 -61 -3 -69 22 -100 14 -18 31 -33 38 -33
7 0 29 -14 49 -32 34 -30 35 -32 15 -39 -36 -14 -36 -50 3 -120 19 -35 47
-104 62 -152 l27 -88 43 7 c55 8 63 -8 40 -80 -21 -69 -21 -87 2 -58 16 20 29
23 122 29 72 4 110 10 122 21 15 12 38 14 127 9 88 -4 112 -3 122 9 12 15 37
13 164 -11 44 -9 73 -11 79 -5 16 16 56 11 146 -19 64 -22 89 -26 101 -18 14
8 39 2 116 -30 54 -23 109 -41 123 -41 14 0 64 -23 113 -50 48 -28 93 -49 100
-46 7 2 49 -25 94 -60 44 -36 84 -62 87 -59 9 10 197 -175 253 -250 30 -40 75
-109 100 -154 l45 -83 284 0 284 0 0 1800 0 1800 -1771 0 -1771 0 18 -27z
m2927 -159 c11 -11 -5 -34 -23 -34 -18 0 -34 23 -23 34 4 3 14 6 23 6 9 0 19
-3 23 -6z m-723 -390 c0 -2 -12 -4 -26 -4 -14 0 -23 4 -20 9 6 8 46 4 46 -5z
m-650 -634 c32 -35 45 -76 35 -119 -10 -46 -28 -55 -67 -35 -49 25 -68 44 -68
72 0 25 49 111 63 112 5 0 22 -14 37 -30z m615 -230 c11 -18 -47 -130 -86
-165 -65 -58 -108 -57 -109 3 0 60 59 128 137 157 47 17 50 17 58 5z m-200
-570 c3 -5 1 -10 -4 -10 -6 0 -11 5 -11 10 0 6 2 10 4 10 3 0 8 -4 11 -10z
m576 -515 c0 -13 -41 -19 -41 -7 0 11 20 22 33 18 5 -1 8 -6 8 -11z"/>
<path d="M90 1538 l-85 -43 -3 -747 -2 -748 74 0 75 0 14 53 c13 45 47 193 51
222 0 5 -6 10 -14 11 -8 0 -22 2 -31 2 -23 3 -30 48 -13 81 70 134 89 233 59
298 -10 21 -20 42 -22 46 -3 4 7 5 20 2 24 -6 26 -4 32 39 4 26 14 50 23 55 9
5 21 35 28 68 7 33 24 90 39 127 21 53 24 70 15 81 -7 8 -19 15 -26 15 -19 0
-17 47 4 90 15 31 37 45 177 115 108 54 190 88 250 104 153 39 146 33 87 64
-63 33 -77 34 -87 5 -8 -22 -8 -22 -12 3 -5 32 -32 42 -67 24 -15 -8 -28 -10
-31 -4 -9 14 -45 11 -45 -4 0 -7 -9 -18 -21 -25 -12 -8 -19 -10 -16 -5 3 5 2
15 -2 22 -7 10 -25 6 -85 -18 -115 -46 -122 -44 -224 50 -34 33 -66 59 -70 59
-4 0 -46 -19 -92 -42z"/>
<path d="M682 220 c-7 -11 -21 -20 -32 -20 -19 0 -20 -7 -20 -100 l0 -100 56
0 57 0 -7 73 c-7 71 -23 145 -35 159 -4 4 -12 -1 -19 -12z"/>
</g>
</svg>
