<?xml version="1.0" standalone="no"?>
<!DOCTYPE svg PUBLIC "-//W3C//DTD SVG 20010904//EN"
 "http://www.w3.org/TR/2001/REC-SVG-20010904/DTD/svg10.dtd">
<svg version="1.0" xmlns="http://www.w3.org/2000/svg"
 width="480.000000pt" height="360.000000pt" viewBox="0 0 480.000000 360.000000"
 preserveAspectRatio="xMidYMid meet">
<metadata>
Created by potrace 1.16, written by Peter Selinger 2001-2019
</metadata>
<rect width="1" height="360" fill="#000000"/>
<rect x="479" width="1" height="360" fill="#000000"/>
<rect width="480" height="1" fill="#000000"/>
<rect y="359" width="480" height="1" fill="#000000"/>
<g transform="translate(0.000000,360.000000) scale(0.100000,-0.100000)"
fill="#000000" stroke="none">
<path d="M3273 3578 c-16 -37 -5 -269 15 -291 14 -16 13 -19 -8 -42 -28 -30
-17 -31 46 -5 46 20 84 19 84 -2 0 -5 -14 -28 -31 -50 -17 -21 -29 -42 -26
-45 4 -3 26 6 51 21 53 31 59 32 52 9 -2 -10 -7 -34 -11 -53 l-6 -35 30 34 30
34 5 -37 c3 -20 8 -51 11 -69 4 -26 0 -38 -16 -53 -12 -10 -30 -38 -41 -62
-14 -29 -57 -76 -135 -145 -139 -125 -306 -317 -289 -334 3 -4 15 2 26 12 19
17 70 28 70 15 0 -3 -6 -14 -14 -25 -23 -34 -116 -222 -116 -235 0 -10 3 -10
15 0 18 15 19 10 4 -27 -45 -117 -41 -223 15 -399 53 -168 69 -257 56 -309 -5
-16 -11 -42 -14 -56 -3 -16 -22 -37 -48 -54 -24 -16 -126 -110 -228 -210 -199
-195 -312 -295 -360 -320 -19 -10 -70 -18 -129 -22 l-99 -6 -27 54 c-46 90
-83 136 -155 194 -60 48 -70 60 -70 87 0 18 12 49 26 70 26 37 26 39 9 57 -9
11 -14 25 -10 31 6 9 9 9 15 0 12 -20 48 6 65 47 18 43 12 70 -34 136 -16 24
-33 57 -37 73 -11 47 -32 74 -60 74 -13 0 -27 -7 -31 -15 -4 -11 -18 -15 -47
-14 -58 2 -143 -31 -192 -74 -65 -57 -86 -130 -103 -362 -6 -78 -22 -170 -45
-260 -57 -229 -65 -293 -55 -434 4 -68 15 -147 23 -175 25 -84 74 -191 88
-191 7 0 18 -4 25 -8 15 -10 19 -2 27 56 7 47 26 57 26 14 1 -22 1 -22 16 -2
9 12 13 31 10 48 -3 15 -1 27 4 27 6 0 10 -6 11 -12 0 -7 4 -4 8 7 5 11 6 48
3 82 -3 40 1 79 11 110 8 26 18 93 22 148 6 95 13 141 36 248 26 114 51 7 43
-180 -4 -96 -11 -145 -21 -162 -10 -15 -13 -35 -9 -55 27 -140 34 -156 67
-156 21 0 25 -15 8 -26 -7 -4 -8 -20 -4 -43 10 -55 10 -91 2 -153 l-8 -58 375
0 c207 0 376 2 376 4 0 2 -24 68 -54 147 l-55 144 32 27 c113 97 538 369 545
349 6 -19 -108 -538 -144 -653 -5 -17 41 -18 865 -18 479 0 871 2 871 5 0 10
-130 296 -181 397 -65 129 -134 243 -298 495 -83 126 -127 201 -121 207 6 6
10 25 10 42 0 43 -49 174 -65 174 -15 0 -22 61 -31 250 -7 144 -8 137 55 440
l30 145 55 52 c51 48 58 51 95 46 64 -9 70 4 65 132 -3 63 -1 111 5 114 6 4 6
24 -1 55 -9 45 -5 69 19 105 2 2 12 -8 24 -22 11 -15 28 -27 38 -27 9 0 22 -5
28 -11 9 -9 12 3 11 50 0 34 2 64 5 67 3 3 22 -19 43 -50 20 -31 39 -54 41
-52 2 2 -7 32 -21 67 -15 34 -26 64 -26 66 0 9 20 0 67 -31 l51 -33 -5 39 c-5
34 -4 38 13 32 18 -7 18 -7 0 14 -21 24 -15 42 7 23 18 -14 47 -4 47 16 0 43
-42 177 -94 303 -52 124 -50 144 34 320 39 81 70 153 70 159 0 8 -180 11 -673
11 l-674 0 -10 -22z m1274 -671 c64 -113 64 -132 2 -67 -57 61 -89 119 -88
165 l0 30 23 -28 c12 -16 41 -61 63 -100z"/>
</g>
</svg>
