<?xml version="1.0" standalone="no"?>
<!DOCTYPE svg PUBLIC "-//W3C//DTD SVG 20010904//EN"
 "http://www.w3.org/TR/2001/REC-SVG-20010904/DTD/svg10.dtd">
<svg version="1.0" xmlns="http://www.w3.org/2000/svg"
 width="480.000000pt" height="360.000000pt" viewBox="0 0 480.000000 360.000000"
 preserveAspectRatio="xMidYMid meet">
<metadata>
Created by potrace 1.16, written by Peter Selinger 2001-2019
</metadata>
<rect width="1" height="360" fill="#000000"/>
<rect x="479" width="1" height="360" fill="#000000"/>
<rect width="480" height="1" fill="#000000"/>
<rect y="359" width="480" height="1" fill="#000000"/>
<g transform="translate(0.000000,360.000000) scale(0.100000,-0.100000)"
fill="#000000" stroke="none">
<path d="M1430 3136 c-132 -35 -282 -170 -355 -320 -78 -159 -83 -269 -19
-402 40 -84 149 -191 239 -235 68 -33 73 -34 196 -35 104 -1 130 -4 144 -17 9
-10 22 -17 30 -17 7 0 15 -7 19 -15 3 -8 2 -15 -3 -15 -5 0 -14 7 -21 15 -23
28 -76 13 -150 -45 -19 -15 -63 -40 -97 -55 -81 -36 -88 -44 -72 -90 11 -28
11 -39 1 -53 -7 -9 -26 -45 -44 -79 -27 -52 -30 -64 -19 -77 19 -22 37 -20 55
6 l16 22 55 -27 c47 -23 55 -31 55 -55 0 -16 -12 -42 -28 -62 -27 -31 -28 -36
-16 -69 9 -27 18 -36 36 -36 20 0 23 -5 25 -45 2 -25 8 -101 14 -170 6 -69 11
-164 10 -212 -2 -78 0 -89 20 -109 31 -31 28 -113 -4 -140 -20 -15 -22 -27
-22 -109 0 -85 2 -94 23 -107 18 -13 22 -25 22 -68 0 -43 -4 -55 -22 -67 -19
-13 -23 -26 -26 -86 -6 -96 3 -139 30 -148 18 -6 20 -12 15 -60 -4 -37 -12
-60 -26 -72 -10 -9 -22 -32 -26 -50 -6 -28 -4 -32 14 -32 14 0 21 6 21 20 0
22 16 27 23 8 3 -10 9 -11 26 0 28 16 31 15 31 -8 0 -11 7 -20 15 -20 23 0 19
63 -5 85 -28 26 -29 121 -1 130 25 8 31 33 31 132 0 61 -4 86 -16 97 -8 9 -20
16 -25 16 -5 0 -9 23 -9 51 0 42 5 56 25 75 23 21 25 30 25 112 0 76 -3 91
-20 107 -15 14 -20 31 -20 71 0 43 4 55 20 64 11 6 20 16 20 23 0 9 27 12 92
12 51 0 128 4 170 8 l77 9 -30 -56 c-63 -115 -78 -295 -59 -676 l13 -260 394
0 c298 0 393 3 393 12 0 7 -11 23 -25 38 -31 32 -49 140 -43 260 5 98 27 156
105 272 l48 72 5 -70 c5 -62 7 -66 17 -43 6 14 17 44 24 67 7 23 15 42 18 42
4 0 17 -53 30 -118 13 -64 34 -165 47 -223 13 -58 25 -134 26 -169 3 -54 0
-64 -19 -77 -21 -14 -23 -14 -33 11 -15 39 -35 32 -62 -24 l-25 -50 322 0 321
0 55 49 c61 54 79 95 79 178 0 105 -48 196 -192 367 -46 54 -88 105 -95 114
-20 29 46 483 94 642 46 153 83 242 97 231 7 -6 15 -8 18 -5 4 3 9 -9 13 -26
4 -17 13 -34 20 -37 17 -6 64 27 65 45 0 6 5 12 10 12 23 0 170 171 170 198 0
6 10 23 23 39 13 15 29 44 37 63 7 19 17 40 22 46 12 16 35 100 43 155 11 76
-11 114 -90 151 -56 26 -74 30 -116 25 -28 -4 -75 -20 -105 -36 -48 -26 -63
-29 -105 -24 -27 3 -49 9 -49 12 0 8 50 49 185 151 61 46 130 100 154 121 l44
37 45 -24 c61 -33 100 -30 182 11 38 19 75 35 82 35 38 0 88 22 88 38 0 21
-62 83 -105 105 -21 11 -26 17 -15 20 8 3 32 11 52 17 47 14 65 35 48 55 -7 8
-18 15 -24 15 -6 0 -18 5 -26 10 -12 8 16 40 139 163 87 88 149 157 143 161
-6 4 -57 -17 -114 -47 -106 -55 -127 -68 -428 -272 -147 -99 -532 -315 -562
-315 -4 0 -8 13 -8 28 0 38 -37 72 -78 72 -33 0 -40 -8 -22 -26 15 -15 -40
-71 -75 -77 -18 -3 -60 5 -105 21 -90 30 -226 35 -300 9 -25 -9 -62 -19 -83
-22 -20 -4 -40 -11 -43 -17 -3 -5 6 -6 23 -3 27 6 27 6 9 -9 -11 -9 -25 -16
-31 -16 -6 0 -27 -14 -46 -31 l-34 -30 29 7 29 7 -31 -39 c-35 -45 -65 -135
-56 -171 6 -22 8 -23 24 -8 17 15 18 14 22 -20 2 -19 -1 -40 -6 -45 -22 -22
-122 1 -112 26 30 78 7 198 -54 294 -60 92 -126 133 -245 152 -41 6 -75 16
-75 22 0 5 -8 19 -19 30 -11 13 -23 51 -30 96 -16 103 -60 189 -135 264 -127
127 -299 182 -446 142z m1005 -1087 c9 -26 -12 -51 -24 -30 -10 15 -3 51 9 51
5 0 12 -9 15 -21z m-522 -223 c116 -39 190 -31 315 32 l73 36 34 -18 c34 -19
35 -20 29 -70 l-6 -51 51 -35 c28 -19 51 -38 51 -41 0 -3 -11 -27 -24 -55 -13
-27 -43 -96 -66 -154 -46 -114 -67 -140 -111 -140 -15 0 -30 -4 -33 -9 -4 -5
-30 -12 -59 -16 -92 -11 -230 -36 -311 -56 -43 -11 -79 -19 -81 -17 -1 2 -10
66 -20 142 -17 134 -17 140 0 152 10 7 23 15 28 17 6 2 -2 20 -17 40 -18 24
-31 58 -39 100 -10 58 -9 68 12 109 12 26 25 62 28 81 l5 35 47 -33 c25 -18
67 -40 94 -49z m-530 -74 c-33 -18 -40 -9 -19 24 17 24 18 25 31 7 12 -16 11
-20 -12 -31z m173 -717 c8 -8 25 -21 37 -30 16 -12 19 -17 9 -27 -9 -9 -12 -9
-12 1 0 9 -9 12 -24 9 -19 -4 -26 0 -30 16 -12 46 -5 57 20 31z m54 -339 c0
-68 -6 -82 -27 -64 -10 8 -17 8 -25 0 -23 -23 -28 -11 -28 58 l0 70 30 -6 c20
-4 30 -2 30 5 0 7 5 9 10 6 6 -3 10 -34 10 -69z m0 -363 c0 -28 -3 -59 -6 -67
-6 -15 -8 -15 -19 1 -11 15 -15 15 -29 4 -9 -8 -18 -12 -20 -10 -5 5 -9 66 -7
107 1 29 4 32 25 26 14 -3 27 -1 31 6 13 21 25 -11 25 -67z"/>
</g>
</svg>
