<?xml version="1.0" standalone="no"?>
<!DOCTYPE svg PUBLIC "-//W3C//DTD SVG 20010904//EN"
 "http://www.w3.org/TR/2001/REC-SVG-20010904/DTD/svg10.dtd">
<svg version="1.0" xmlns="http://www.w3.org/2000/svg"
 width="480.000000pt" height="360.000000pt" viewBox="0 0 480.000000 360.000000"
 preserveAspectRatio="xMidYMid meet">
<metadata>
Created by potrace 1.16, written by Peter Selinger 2001-2019
</metadata>
<rect width="1" height="360" fill="#000000"/>
<rect x="479" width="1" height="360" fill="#000000"/>
<rect width="480" height="1" fill="#000000"/>
<rect y="359" width="480" height="1" fill="#000000"/>
<g transform="translate(0.000000,360.000000) scale(0.100000,-0.100000)"
fill="#000000" stroke="none">
<path d="M0 1800 l0 -1800 2400 0 2400 0 0 1800 0 1800 -2400 0 -2400 0 0
-1800z m2160 860 c6 0 10 4 10 8 0 30 116 42 160 17 14 -8 49 -14 79 -15 52 0
53 -1 37 -18 -13 -15 -14 -24 -5 -50 10 -28 8 -34 -16 -54 -26 -23 -27 -25
-20 -105 7 -78 8 -81 35 -86 22 -5 38 -23 74 -86 54 -91 55 -81 -22 -189 -41
-59 -43 -64 -27 -76 17 -12 17 -16 -5 -68 l-22 -55 37 -59 c20 -32 46 -69 57
-81 14 -15 19 -29 14 -47 -5 -20 10 -46 84 -145 50 -66 90 -123 90 -126 0 -3
-7 -5 -15 -5 -19 0 -19 -20 0 -47 14 -20 13 -21 -23 -28 -20 -3 -54 -17 -74
-31 -21 -13 -48 -24 -60 -24 -13 -1 -44 -20 -69 -44 l-47 -42 2 -160 c1 -139
-1 -161 -16 -176 -24 -24 -42 -23 -74 6 -25 21 -27 26 -16 52 7 18 11 72 9
142 -2 95 -4 111 -17 106 -63 -27 -69 -27 -123 -14 -53 12 -113 8 -103 -8 3
-5 0 -28 -5 -53 -6 -24 -11 -79 -10 -121 0 -75 -1 -78 -25 -84 -27 -7 -99 10
-121 28 -22 18 -14 38 22 59 35 21 35 22 35 90 0 38 5 78 12 88 15 24 4 51
-22 51 -15 0 -22 8 -27 30 -3 17 -10 33 -14 36 -15 9 -9 57 15 124 89 242 87
234 69 247 -11 9 -13 19 -8 40 4 15 7 51 6 78 0 28 4 80 10 116 8 51 7 77 -2
109 -12 39 -11 43 9 59 31 24 43 66 44 150 0 62 4 81 25 112 13 21 31 40 39
43 10 4 14 22 14 62 0 54 -2 59 -41 95 -36 33 -40 42 -34 68 5 24 2 32 -14 41
-29 15 -26 28 7 32 24 3 27 8 30 43 l4 40 19 -37 c11 -21 24 -38 29 -38z"/>
<path d="M2430 2174 c0 -40 12 -44 28 -9 15 33 16 32 -8 38 -17 4 -20 0 -20
-29z"/>
</g>
</svg>
