<?xml version="1.0" standalone="no"?>
<!DOCTYPE svg PUBLIC "-//W3C//DTD SVG 20010904//EN"
 "http://www.w3.org/TR/2001/REC-SVG-20010904/DTD/svg10.dtd">
<svg version="1.0" xmlns="http://www.w3.org/2000/svg"
 width="480.000000pt" height="360.000000pt" viewBox="0 0 480.000000 360.000000"
 preserveAspectRatio="xMidYMid meet">
<metadata>
Created by potrace 1.16, written by Peter Selinger 2001-2019
</metadata>
<rect width="1" height="360" fill="#000000"/>
<rect x="479" width="1" height="360" fill="#000000"/>
<rect width="480" height="1" fill="#000000"/>
<rect y="359" width="480" height="1" fill="#000000"/>
<g transform="translate(0.000000,360.000000) scale(0.100000,-0.100000)"
fill="#000000" stroke="none">
<path d="M0 1800 l0 -1800 2400 0 2400 0 0 1683 -1 1682 -57 36 c-31 20 -113
73 -181 118 l-124 81 -2218 0 -2219 0 0 -1800z m2140 860 c6 0 10 4 10 8 0 30
116 42 160 17 14 -8 50 -14 80 -15 l54 0 -21 -21 c-21 -21 -21 -22 -2 -55 14
-25 15 -34 5 -34 -7 0 -21 -9 -30 -19 -15 -16 -16 -31 -11 -98 7 -78 8 -80 38
-89 18 -5 36 -18 42 -29 5 -11 25 -46 43 -77 38 -65 39 -60 -35 -167 -41 -60
-44 -66 -28 -78 17 -12 17 -15 -4 -63 l-22 -51 37 -62 c21 -34 48 -74 60 -89
14 -17 20 -35 17 -48 -4 -15 19 -53 86 -141 80 -106 89 -121 71 -126 -24 -6
-25 -13 -5 -39 21 -27 19 -31 -19 -37 -19 -3 -52 -17 -73 -31 -21 -14 -48 -26
-60 -26 -13 0 -42 -17 -65 -37 -24 -21 -45 -39 -47 -40 -3 -2 -5 -78 -5 -169
-1 -152 -3 -167 -20 -180 -27 -19 -39 -18 -70 7 -21 16 -26 27 -21 43 12 35
11 266 0 266 -5 0 -19 -7 -29 -15 -24 -18 -51 -19 -109 -3 -56 15 -91 6 -94
-24 -1 -13 -6 -72 -10 -133 -8 -106 -9 -110 -32 -113 -13 -2 -44 2 -68 9 -67
18 -77 56 -22 84 28 15 29 18 29 86 0 39 4 79 10 89 13 25 3 50 -21 50 -12 0
-21 10 -25 28 -4 15 -11 33 -17 40 -15 19 -2 75 48 209 43 118 55 171 36 158
-19 -11 -21 15 -6 52 11 25 14 51 9 79 -3 24 -1 73 5 111 10 58 10 74 -4 107
-14 32 -14 40 -3 47 7 5 16 9 20 9 23 0 53 142 36 173 -11 22 25 100 59 127
18 14 23 28 23 63 0 59 -14 89 -52 112 -26 15 -29 21 -24 48 5 23 2 33 -14 44
-28 19 -25 31 8 35 24 3 27 7 30 48 l3 45 20 -42 c11 -24 24 -43 29 -43z"/>
<path d="M2408 2170 c2 -22 6 -40 8 -40 2 0 11 14 20 31 13 26 14 33 2 40 -26
17 -34 9 -30 -31z"/>
</g>
</svg>
