<?xml version="1.0" standalone="no"?>
<!DOCTYPE svg PUBLIC "-//W3C//DTD SVG 20010904//EN"
 "http://www.w3.org/TR/2001/REC-SVG-20010904/DTD/svg10.dtd">
<svg version="1.0" xmlns="http://www.w3.org/2000/svg"
 width="480.000000pt" height="360.000000pt" viewBox="0 0 480.000000 360.000000"
 preserveAspectRatio="xMidYMid meet">
<metadata>
Created by potrace 1.16, written by Peter Selinger 2001-2019
</metadata>
<rect width="1" height="360" fill="#000000"/>
<rect x="479" width="1" height="360" fill="#000000"/>
<rect width="480" height="1" fill="#000000"/>
<rect y="359" width="480" height="1" fill="#000000"/>
<g transform="translate(0.000000,360.000000) scale(0.100000,-0.100000)"
fill="#000000" stroke="none">
<path d="M3333 3572 c43 -98 167 -279 322 -466 152 -185 178 -236 190 -373 9
-101 -15 -258 -68 -443 -21 -73 -140 -334 -194 -425 -120 -201 -125 -219 -79
-279 46 -61 236 -153 431 -209 107 -30 277 -57 366 -57 133 0 342 43 452 92
l47 21 0 186 c0 167 -2 190 -20 224 -11 20 -20 43 -20 51 0 9 7 12 20 9 20 -5
20 0 20 566 0 516 -2 571 -16 571 -9 0 -59 -9 -112 -19 -188 -38 -477 -44
-603 -13 -104 26 -232 129 -340 275 -67 90 -136 223 -145 278 l-7 39 -128 0
-128 0 12 -28z"/>
<path d="M197 3503 c-4 -3 -7 -44 -7 -91 0 -97 -14 -152 -46 -187 -20 -21 -32
-25 -84 -25 l-60 0 0 -885 0 -885 45 -89 c52 -100 108 -171 135 -171 44 0 90
35 135 101 46 68 175 324 175 346 0 6 9 18 20 26 18 12 34 9 148 -34 188 -71
214 -76 246 -55 15 9 31 29 37 43 13 34 28 238 29 375 0 58 3 113 6 122 5 13
26 16 124 16 136 0 144 5 143 78 0 69 -68 244 -125 323 -17 25 8 58 102 129
71 54 80 65 80 93 0 30 -7 36 -113 97 -61 35 -136 76 -164 90 -61 29 -70 50
-48 102 18 44 20 114 4 124 -34 21 -206 56 -299 61 -98 5 -111 3 -201 -26
-115 -37 -134 -38 -153 -8 -26 40 -29 93 -11 202 21 127 17 135 -60 135 -28 0
-55 -3 -58 -7z"/>
<path d="M4175 1069 c-17 -12 -52 -49 -80 -82 -94 -113 -89 -110 -132 -92 -68
29 -177 48 -275 49 -94 1 -99 0 -125 -27 -27 -27 -28 -30 -28 -148 0 -135 1
-133 -79 -143 -73 -8 -397 -91 -450 -115 -78 -34 -76 -87 9 -277 32 -71 60
-146 62 -166 4 -32 2 -38 -24 -52 -25 -14 54 -15 860 -16 l887 0 0 374 c0 372
0 373 -23 407 -12 19 -31 35 -40 37 -10 2 -39 -14 -64 -35 -52 -42 -124 -93
-134 -93 -4 0 -10 17 -14 38 -3 20 -15 55 -25 77 -24 51 -250 285 -276 285
-11 0 -33 -10 -49 -21z"/>
<path d="M1290 954 c-25 -8 -54 -18 -65 -23 -11 -5 -54 -23 -95 -41 -294 -125
-392 -251 -435 -554 -4 -27 -10 -45 -15 -40 -5 5 -18 52 -30 104 -27 121 -44
173 -80 235 -46 81 -146 191 -232 255 -80 60 -122 80 -138 64 -20 -21 -32
-100 -37 -241 -7 -188 6 -249 89 -417 78 -160 77 -176 -15 -176 -38 0 -176 29
-219 45 -16 6 -18 -1 -18 -73 0 -74 2 -80 22 -86 13 -3 403 -6 868 -6 l845 1
-68 29 c-112 47 -236 72 -389 78 -79 2 -138 9 -138 14 0 6 22 30 49 54 93 84
129 176 166 420 33 215 41 324 26 352 -13 25 -27 26 -91 6z"/>
<path d="M1959 503 c-7 -19 -7 -74 0 -179 10 -145 10 -154 -13 -237 l-24 -87
75 0 c67 0 75 2 70 18 -4 9 -18 51 -32 92 -24 70 -26 87 -24 236 1 89 -2 167
-5 173 -13 20 -36 12 -47 -16z"/>
<path d="M2250 147 c-33 -17 -54 -38 -77 -77 -18 -30 -33 -58 -33 -62 0 -4 74
-8 165 -8 96 0 165 4 165 9 0 45 -62 126 -113 146 -48 19 -53 19 -107 -8z"/>
</g>
</svg>
