<?xml version="1.0" standalone="no"?>
<!DOCTYPE svg PUBLIC "-//W3C//DTD SVG 20010904//EN"
 "http://www.w3.org/TR/2001/REC-SVG-20010904/DTD/svg10.dtd">
<svg version="1.0" xmlns="http://www.w3.org/2000/svg"
 width="480.000000pt" height="360.000000pt" viewBox="0 0 480.000000 360.000000"
 preserveAspectRatio="xMidYMid meet">
<metadata>
Created by potrace 1.16, written by Peter Selinger 2001-2019
</metadata>
<rect width="1" height="360" fill="#000000"/>
<rect x="479" width="1" height="360" fill="#000000"/>
<rect width="480" height="1" fill="#000000"/>
<rect y="359" width="480" height="1" fill="#000000"/>
<g transform="translate(0.000000,360.000000) scale(0.100000,-0.100000)"
fill="#000000" stroke="none">
<path d="M449 2988 c-89 -176 -160 -199 -278 -93 -38 35 -148 105 -163 105 -4
0 -8 -406 -8 -903 l0 -904 95 -96 c133 -136 152 -134 261 34 35 54 87 144 116
199 32 63 60 106 74 112 18 9 38 2 111 -37 106 -57 132 -56 162 3 24 47 41
157 41 265 0 114 8 123 120 142 102 16 118 22 130 46 18 33 10 59 -42 138
-144 217 -148 228 -99 275 72 69 63 109 -44 199 -134 113 -222 157 -350 172
-91 11 -115 27 -115 80 0 41 29 99 84 169 57 74 61 107 14 136 -57 34 -74 28
-109 -42z"/>
<path d="M3302 2933 c-49 -24 -72 -59 -72 -110 0 -78 54 -149 176 -234 67 -46
296 -164 438 -225 185 -80 222 -100 272 -146 106 -97 192 -318 235 -601 6 -41
11 -188 10 -343 -2 -265 -1 -271 20 -299 36 -44 75 -55 207 -55 66 0 140 3
166 6 l46 7 0 903 c0 558 -4 904 -9 904 -6 0 -12 -4 -15 -9 -11 -17 -178 -123
-271 -172 -256 -135 -396 -136 -670 -3 -137 66 -211 127 -306 250 -111 143
-150 165 -227 127z"/>
<path d="M1797 933 c-16 -15 -5 -59 32 -121 102 -178 157 -349 132 -410 -7
-17 -13 -47 -14 -68 -1 -48 37 -84 91 -84 20 0 42 -4 47 -8 16 -11 54 -102 65
-157 20 -94 0 -85 198 -85 l177 0 23 78 c27 95 27 125 1 227 -12 44 -25 127
-29 185 -9 122 -38 211 -83 252 -72 68 -162 49 -229 -48 -37 -52 -44 -95 -25
-143 13 -31 14 -42 3 -56 -11 -16 -15 -16 -64 0 -88 29 -124 79 -232 325 -23
52 -47 101 -52 108 -11 13 -31 16 -41 5z m407 -726 c11 -53 -15 -64 -39 -17
-16 31 -20 72 -8 84 10 10 40 -33 47 -67z"/>
<path d="M691 644 c-42 -47 -73 -98 -126 -202 -60 -120 -75 -186 -75 -326 l0
-116 202 2 203 3 11 50 c7 28 13 98 13 156 1 123 -19 214 -74 341 -58 135 -97
158 -154 92z"/>
<path d="M3709 626 c-34 -17 -63 -75 -83 -167 -10 -46 -25 -88 -36 -99 -10
-10 -40 -22 -67 -26 -122 -17 -278 -84 -314 -135 -26 -37 -24 -63 11 -136 l29
-63 776 0 775 0 0 75 0 75 -34 0 c-46 0 -85 34 -126 112 -65 124 -119 195
-205 269 -98 85 -114 94 -148 85 -18 -4 -33 -25 -60 -80 -48 -100 -61 -106
-122 -55 -64 53 -66 54 -231 109 -120 41 -145 46 -165 36z"/>
<path d="M1350 209 c-156 -13 -241 -52 -345 -158 l-49 -51 379 0 380 0 33 50
c70 108 38 143 -148 156 -36 2 -85 6 -110 8 -25 2 -88 0 -140 -5z"/>
<path d="M56 199 c-42 -25 -56 -48 -56 -96 0 -43 4 -51 35 -76 34 -27 38 -28
145 -25 l109 3 -99 103 c-55 56 -103 102 -107 102 -4 0 -16 -5 -27 -11z"/>
</g>
</svg>
