<?xml version="1.0" standalone="no"?>
<!DOCTYPE svg PUBLIC "-//W3C//DTD SVG 20010904//EN"
 "http://www.w3.org/TR/2001/REC-SVG-20010904/DTD/svg10.dtd">
<svg version="1.0" xmlns="http://www.w3.org/2000/svg"
 width="480.000000pt" height="360.000000pt" viewBox="0 0 480.000000 360.000000"
 preserveAspectRatio="xMidYMid meet">
<metadata>
Created by potrace 1.16, written by Peter Selinger 2001-2019
</metadata>
<rect width="1" height="360" fill="#000000"/>
<rect x="479" width="1" height="360" fill="#000000"/>
<rect width="480" height="1" fill="#000000"/>
<rect y="359" width="480" height="1" fill="#000000"/>
<g transform="translate(0.000000,360.000000) scale(0.100000,-0.100000)"
fill="#000000" stroke="none">
<path d="M0 2941 l0 -660 43 -3 c40 -3 42 -5 40 -32 -1 -16 -14 -41 -28 -56
-14 -14 -25 -31 -25 -37 0 -21 91 -26 384 -20 340 7 386 15 539 87 173 83 387
117 657 106 85 -4 172 -9 192 -12 33 -5 38 -3 53 25 8 17 33 43 55 57 33 22
40 32 40 60 l0 34 -47 -6 c-27 -3 -53 -7 -60 -9 -6 -2 -19 2 -28 9 -24 17 -11
39 70 115 l67 62 -2 107 c-2 152 -3 148 32 187 41 47 96 85 205 139 111 56
196 79 243 66 19 -5 72 -39 117 -74 l82 -65 34 14 c72 30 161 47 190 36 15 -6
27 -16 27 -22 0 -13 -96 -111 -144 -147 -33 -25 -34 -23 54 -123 49 -56 52
-62 29 -56 -26 7 -26 6 -21 -38 4 -37 2 -45 -12 -45 -9 0 -16 -5 -16 -12 0 -7
-17 -26 -37 -44 l-37 -32 32 -32 c38 -37 38 -41 12 -65 -11 -10 -20 -26 -20
-36 0 -10 -9 -33 -20 -51 -11 -18 -29 -62 -41 -98 -11 -35 -31 -84 -45 -108
-14 -24 -23 -46 -20 -49 3 -3 60 -27 128 -54 80 -32 126 -45 132 -39 17 17 37
12 121 -29 44 -22 101 -49 127 -61 35 -16 48 -28 53 -48 4 -20 20 -35 60 -56
30 -15 93 -53 141 -82 47 -30 90 -54 95 -54 5 0 19 6 30 13 17 10 23 9 39 -10
10 -13 28 -23 40 -23 15 0 24 -9 32 -31 6 -18 16 -28 23 -25 16 6 35 -13 35
-36 0 -10 7 -21 15 -24 8 -4 15 -14 15 -24 0 -9 62 -80 138 -156 163 -164 278
-314 427 -557 60 -98 125 -197 144 -219 33 -36 42 -40 100 -47 44 -5 68 -13
77 -26 26 -35 56 -130 61 -192 13 -148 -74 -151 -226 -7 -75 70 -156 186 -266
379 -81 143 -165 269 -236 356 -62 76 -219 238 -271 280 l-38 30 -45 -47 c-35
-37 -45 -56 -45 -81 0 -19 -7 -50 -15 -69 l-15 -36 -177 7 c-153 5 -195 3
-298 -14 -118 -20 -120 -20 -163 -1 l-43 19 -30 -47 c-35 -55 -35 -48 12 -341
28 -177 40 -309 55 -618 l7 -143 983 0 984 0 0 1800 0 1800 -2400 0 -2400 0 0
-659z"/>
<path d="M1292 2155 c-171 -23 -229 -44 -368 -135 -81 -53 -163 -83 -257 -95
-31 -4 -60 -12 -65 -19 -50 -62 -34 -998 24 -1390 21 -144 49 -266 91 -398
l37 -118 521 0 522 0 26 83 c14 45 48 159 77 252 60 197 96 276 207 440 132
197 128 187 127 350 -1 88 -11 211 -27 330 -14 105 -29 220 -33 258 -3 37 -10
67 -15 67 -5 0 -9 -5 -9 -11 0 -5 -4 -8 -9 -5 -5 4 -12 0 -15 -6 -3 -7 -4 7
-1 32 3 25 8 82 12 128 l6 82 -47 0 c-58 0 -110 26 -180 89 l-53 48 -104 12
c-164 19 -352 22 -467 6z"/>
<path d="M0 982 l0 -982 154 0 155 0 -29 63 c-101 223 -188 567 -241 957 -20
147 -23 208 -24 547 0 210 -4 385 -8 389 -4 4 -7 -434 -7 -974z"/>
<path d="M2750 1813 c40 -71 50 -83 50 -57 0 38 -21 94 -40 104 -39 21 -41 9
-10 -47z"/>
<path d="M3088 1665 c-10 -21 -7 -28 21 -54 17 -16 31 -37 31 -47 0 -11 -36
-54 -81 -97 -44 -43 -79 -80 -77 -82 9 -7 195 38 259 64 58 23 76 36 92 65 11
19 19 37 16 40 -16 15 -228 136 -238 136 -6 0 -16 -11 -23 -25z"/>
</g>
</svg>
