<?xml version="1.0" standalone="no"?>
<!DOCTYPE svg PUBLIC "-//W3C//DTD SVG 20010904//EN"
 "http://www.w3.org/TR/2001/REC-SVG-20010904/DTD/svg10.dtd">
<svg version="1.0" xmlns="http://www.w3.org/2000/svg"
 width="480.000000pt" height="360.000000pt" viewBox="0 0 480.000000 360.000000"
 preserveAspectRatio="xMidYMid meet">
<metadata>
Created by potrace 1.16, written by Peter Selinger 2001-2019
</metadata>
<rect width="1" height="360" fill="#000000"/>
<rect x="479" width="1" height="360" fill="#000000"/>
<rect width="480" height="1" fill="#000000"/>
<rect y="359" width="480" height="1" fill="#000000"/>
<g transform="translate(0.000000,360.000000) scale(0.100000,-0.100000)"
fill="#000000" stroke="none">
<path d="M2475 3568 c12 -58 59 -151 108 -217 37 -49 45 -66 35 -72 -7 -5 -18
-9 -23 -9 -6 0 -46 -21 -90 -46 -84 -49 -163 -111 -229 -179 -46 -48 -126
-155 -126 -169 0 -5 -13 -37 -30 -71 -17 -36 -40 -112 -55 -184 -25 -123 -52
-200 -82 -233 -34 -37 -2 -29 37 9 43 44 43 43 45 -32 3 -150 6 -180 15 -165
5 8 10 27 10 43 0 15 5 27 10 27 6 0 10 -6 10 -14 0 -7 11 -39 25 -71 23 -52
28 -56 50 -51 18 5 25 2 25 -8 0 -20 21 -31 30 -16 6 9 11 7 20 -10 6 -12 14
-19 18 -16 3 4 23 -10 44 -31 37 -36 49 -32 27 8 -5 11 -9 34 -7 52 4 30 6 28
42 -44 36 -75 37 -78 22 -113 -8 -20 -27 -52 -42 -71 l-27 -36 23 -24 c12 -13
35 -27 51 -30 34 -8 45 -20 56 -65 6 -26 18 -39 41 -49 18 -8 32 -19 32 -24 0
-5 20 -28 45 -53 l45 -43 0 -78 c0 -43 -4 -94 -10 -113 -7 -24 -6 -36 1 -41 7
-4 9 -22 4 -49 l-7 -43 30 6 c29 6 30 5 36 -46 4 -29 19 -103 33 -166 l25
-113 -48 -49 c-27 -27 -54 -49 -61 -49 -6 0 -38 30 -70 67 -32 37 -79 88 -104
113 -25 25 -60 68 -78 97 -18 28 -39 57 -46 63 -12 10 -13 30 -8 99 11 156
-27 291 -98 355 -47 44 -84 50 -221 43 l-108 -7 0 40 c0 21 -4 41 -9 44 -17
11 -32 -22 -29 -63 l3 -42 -80 -31 c-151 -58 -183 -95 -221 -252 -16 -66 -15
-71 4 -150 12 -44 26 -105 33 -133 8 -39 26 -72 68 -126 76 -95 109 -122 176
-142 30 -8 55 -20 55 -26 0 -5 -13 -36 -30 -69 -58 -115 -80 -217 -90 -415 -5
-99 -14 -196 -20 -215 -22 -76 -56 -70 381 -70 361 0 393 1 405 18 13 16 13
16 14 0 0 -17 50 -18 913 -18 884 0 913 1 955 20 49 22 102 58 102 69 0 4 -16
5 -37 3 l-36 -5 47 62 c27 34 46 64 44 66 -2 2 -29 0 -59 -4 -47 -6 -73 -19
-165 -83 -60 -41 -122 -78 -139 -82 -16 -4 -38 -9 -47 -12 -13 -4 -19 5 -28
38 -6 24 -17 56 -25 72 -7 16 -11 35 -8 43 6 14 -25 152 -37 168 -4 6 -8 21
-8 35 0 37 -82 351 -99 378 -7 12 -11 27 -8 32 3 5 -1 25 -9 44 -14 33 -12 46
6 46 4 0 24 -33 44 -72 60 -122 112 -196 97 -140 -3 13 4 20 29 27 18 6 34 18
36 27 2 9 -20 42 -47 72 -28 31 -51 58 -51 61 0 2 -11 69 -25 147 -38 217 -36
223 36 93 34 -60 66 -116 71 -123 18 -21 19 -7 3 32 -9 20 -13 41 -10 45 2 5
-15 76 -40 157 -25 82 -45 153 -45 159 0 23 31 -26 59 -93 17 -41 58 -117 91
-170 63 -102 117 -173 104 -137 -45 124 -95 278 -92 286 2 6 24 -15 48 -47 55
-70 122 -145 126 -141 2 1 -11 52 -27 112 -32 115 -58 311 -84 620 -27 320
-44 433 -101 658 -39 157 -101 330 -167 468 -25 52 -53 125 -61 164 -22 94
-82 193 -176 287 -100 100 -165 132 -265 131 -43 0 -94 -8 -132 -22 l-62 -21
-62 65 -62 65 -344 0 -345 0 7 -32z m469 -2014 c9 -8 30 -36 47 -61 l31 -45
-29 -31 c-16 -18 -41 -51 -56 -75 -15 -23 -32 -40 -37 -37 -12 7 -13 66 -3
183 6 85 15 98 47 66z m-64 -316 c0 -7 -5 -20 -10 -28 -8 -12 -10 -9 -10 13 0
15 5 27 10 27 6 0 10 -6 10 -12z"/>
</g>
</svg>
