<?xml version="1.0" standalone="no"?>
<!DOCTYPE svg PUBLIC "-//W3C//DTD SVG 20010904//EN"
 "http://www.w3.org/TR/2001/REC-SVG-20010904/DTD/svg10.dtd">
<svg version="1.0" xmlns="http://www.w3.org/2000/svg"
 width="480.000000pt" height="360.000000pt" viewBox="0 0 480.000000 360.000000"
 preserveAspectRatio="xMidYMid meet">
<metadata>
Created by potrace 1.16, written by Peter Selinger 2001-2019
</metadata>
<rect width="1" height="360" fill="#000000"/>
<rect x="479" width="1" height="360" fill="#000000"/>
<rect width="480" height="1" fill="#000000"/>
<rect y="359" width="480" height="1" fill="#000000"/>
<g transform="translate(0.000000,360.000000) scale(0.100000,-0.100000)"
fill="#000000" stroke="none">
<path d="M0 1800 l0 -1800 929 0 928 0 6 148 c3 81 13 183 22 227 9 44 22 136
31 204 8 69 19 143 25 165 10 36 9 41 -11 56 -21 16 -21 22 -20 236 0 120 5
257 9 304 5 47 8 86 6 88 -6 6 -59 -32 -78 -56 -25 -30 -69 -52 -105 -52 -22
0 -39 11 -66 40 -63 70 -60 89 35 215 78 104 119 164 119 172 -1 15 -61 74
-70 68 -5 -3 -11 -1 -15 5 -10 16 -33 12 -57 -12 l-21 -21 -16 54 c-10 35 -15
84 -13 137 3 81 2 82 -21 82 -14 0 -41 -7 -61 -15 -33 -14 -38 -14 -55 2 -24
23 -32 100 -11 113 12 8 11 16 -9 57 -17 33 -25 72 -29 124 l-4 77 43 42 c60
59 97 80 140 80 42 0 56 -13 94 -89 l27 -53 -32 -39 c-26 -33 -29 -42 -19 -61
10 -19 12 -19 21 -4 8 14 12 13 34 -13 13 -16 24 -34 24 -40 0 -6 5 -11 10
-11 18 0 11 -21 -21 -61 l-31 -39 34 1 c103 3 197 -62 168 -116 -12 -22 -11
-28 11 -51 22 -24 24 -24 37 -7 8 10 22 36 32 58 24 56 41 68 67 50 12 -8 24
-29 28 -45 7 -32 34 -41 53 -17 15 18 27 117 14 117 -5 0 -12 -7 -16 -15 -3
-8 -10 -15 -15 -15 -5 0 -4 19 4 43 6 23 15 76 18 118 5 72 4 76 -14 72 -14
-4 -22 2 -29 23 -6 16 -16 35 -23 42 -6 8 -12 21 -13 29 -2 8 -9 22 -17 31
-24 29 -28 54 -16 111 17 82 42 124 104 173 58 45 65 64 40 108 -35 61 -7 94
77 92 l47 -1 16 49 c9 28 21 52 26 55 14 10 77 -25 104 -57 24 -28 28 -29 55
-18 33 14 50 7 50 -21 0 -27 25 -34 74 -21 36 10 45 8 73 -11 34 -23 73 -83
73 -113 0 -11 28 -53 61 -94 67 -82 95 -134 104 -195 8 -50 -9 -178 -36 -268
-20 -66 -20 -72 -4 -116 30 -86 30 -85 9 -77 -44 19 -54 19 -54 0 0 -11 -5
-37 -12 -59 -11 -38 -12 -39 -19 -15 -4 14 -8 18 -9 10 -1 -8 -6 -4 -10 10
l-8 25 -1 -26 c-1 -35 -21 -89 -32 -89 -5 0 -9 7 -9 15 0 16 -34 55 -49 55
-15 0 -19 -49 -5 -72 28 -49 34 -71 34 -127 0 -67 -19 -127 -53 -174 -30 -39
-153 -377 -169 -462 -13 -74 -8 -91 29 -107 15 -7 35 -17 43 -24 8 -6 42 -19
75 -29 74 -21 143 -56 172 -87 14 -14 28 -51 38 -96 8 -40 22 -86 30 -102 31
-60 6 -192 -50 -259 l-24 -28 56 -201 57 -202 918 0 918 0 0 1800 0 1800
-2400 0 -2400 0 0 -1800z"/>
<path d="M2236 2065 c-29 -44 -21 -60 37 -73 115 -28 107 -29 107 13 0 29 -3
36 -15 31 -8 -3 -15 -1 -15 3 0 14 -58 32 -65 20 -11 -17 -26 -9 -20 11 9 28
-9 25 -29 -5z"/>
</g>
</svg>
