<?xml version="1.0" standalone="no"?>
<!DOCTYPE svg PUBLIC "-//W3C//DTD SVG 20010904//EN"
 "http://www.w3.org/TR/2001/REC-SVG-20010904/DTD/svg10.dtd">
<svg version="1.0" xmlns="http://www.w3.org/2000/svg"
 width="480.000000pt" height="360.000000pt" viewBox="0 0 480.000000 360.000000"
 preserveAspectRatio="xMidYMid meet">
<metadata>
Created by potrace 1.16, written by Peter Selinger 2001-2019
</metadata>
<rect width="1" height="360" fill="#000000"/>
<rect x="479" width="1" height="360" fill="#000000"/>
<rect width="480" height="1" fill="#000000"/>
<rect y="359" width="480" height="1" fill="#000000"/>
<g transform="translate(0.000000,360.000000) scale(0.100000,-0.100000)"
fill="#000000" stroke="none">
<path d="M2901 3568 c5 -18 20 -55 34 -81 14 -27 25 -55 25 -62 0 -7 9 -35 21
-62 25 -58 58 -179 59 -213 0 -14 7 -53 16 -85 21 -81 29 -173 28 -345 0 -161
-26 -383 -51 -439 -20 -45 -22 -53 -30 -119 -3 -29 -10 -55 -14 -58 -5 -3 -9
-21 -9 -41 0 -20 -3 -33 -6 -30 -4 4 -16 -10 -26 -30 -11 -20 -26 -42 -34 -50
-7 -8 -19 -33 -25 -56 -6 -23 -21 -58 -32 -77 -21 -34 -23 -39 -26 -68 0 -7
-5 -11 -9 -8 -12 7 -52 -31 -52 -50 0 -9 -13 -29 -29 -44 -16 -16 -32 -41 -35
-55 -4 -15 -12 -34 -19 -42 -37 -47 -68 -73 -86 -73 -12 0 -21 -6 -21 -15 0
-25 -1 -29 -21 -56 -27 -39 -81 -89 -95 -89 -7 0 -21 -10 -31 -23 -10 -12 -30
-28 -45 -34 -16 -7 -28 -17 -28 -22 0 -17 -40 -48 -69 -54 -16 -3 -44 -26 -69
-56 -24 -28 -50 -51 -57 -51 -8 0 -31 -8 -52 -19 -101 -50 -148 -71 -158 -71
-6 0 -18 -9 -28 -20 -9 -11 -23 -20 -30 -20 -8 0 -29 -8 -48 -17 -18 -9 -56
-22 -84 -29 -27 -7 -69 -20 -92 -28 -24 -9 -84 -20 -135 -26 -50 -6 -96 -14
-102 -19 -14 -11 -83 -20 -208 -27 -111 -7 -254 6 -408 37 -123 24 -373 100
-445 136 -139 67 -237 126 -353 209 l-22 16 0 -601 0 -601 2400 0 2400 0 0
1300 c0 726 -4 1300 -9 1300 -9 0 -81 89 -81 101 0 17 33 39 61 39 l29 0 0
430 0 430 -954 0 -955 0 10 -32z"/>
</g>
</svg>
