<?xml version="1.0" standalone="no"?>
<!DOCTYPE svg PUBLIC "-//W3C//DTD SVG 20010904//EN"
 "http://www.w3.org/TR/2001/REC-SVG-20010904/DTD/svg10.dtd">
<svg version="1.0" xmlns="http://www.w3.org/2000/svg"
 width="480.000000pt" height="360.000000pt" viewBox="0 0 480.000000 360.000000"
 preserveAspectRatio="xMidYMid meet">
<metadata>
Created by potrace 1.16, written by Peter Selinger 2001-2019
</metadata>
<rect width="1" height="360" fill="#000000"/>
<rect x="479" width="1" height="360" fill="#000000"/>
<rect width="480" height="1" fill="#000000"/>
<rect y="359" width="480" height="1" fill="#000000"/>
<g transform="translate(0.000000,360.000000) scale(0.100000,-0.100000)"
fill="#000000" stroke="none">
<path d="M2997 3420 c-96 -16 -126 -59 -128 -182 -1 -53 4 -88 20 -128 11 -30
21 -56 21 -57 0 -1 -38 -20 -84 -42 -148 -69 -244 -149 -323 -272 -34 -52 -47
-84 -63 -164 -11 -54 -31 -118 -44 -142 -26 -46 -24 -53 7 -25 20 17 20 16 14
-18 -3 -19 -3 -29 0 -22 12 29 24 8 23 -40 -1 -29 -1 -62 0 -73 1 -20 1 -20 9
0 7 17 10 14 21 -20 13 -38 14 -39 21 -15 6 21 7 22 8 4 1 -25 30 -67 31 -44
0 12 4 10 15 -4 8 -11 15 -16 15 -12 0 5 14 -5 31 -22 32 -31 59 -33 59 -3 1
14 2 13 11 -2 16 -28 2 -83 -33 -123 -30 -34 -30 -35 -12 -55 10 -11 29 -25
43 -32 13 -7 28 -24 32 -39 4 -15 23 -44 43 -64 20 -20 48 -58 62 -83 22 -40
25 -54 21 -108 -4 -57 -3 -63 14 -63 20 0 27 -34 9 -45 -6 -4 -4 -14 4 -28 8
-12 20 -57 26 -100 l11 -77 -34 -73 c-19 -39 -40 -84 -45 -99 -11 -26 -12 -27
-39 -13 -38 20 -96 19 -122 -3 -17 -14 -21 -29 -22 -101 l-2 -84 -57 -66 c-84
-98 -77 -95 -149 -66 -84 34 -426 135 -459 135 -21 0 -34 11 -58 48 -28 40
-33 58 -36 127 -6 94 -34 164 -81 197 -33 24 -98 29 -179 14 l-47 -8 -7 41
c-8 52 -24 43 -24 -13 l0 -42 -66 -24 c-71 -24 -134 -75 -134 -107 0 -11 -7
-40 -16 -66 -15 -43 -15 -51 0 -94 9 -26 16 -61 16 -78 0 -41 27 -91 84 -159
54 -63 101 -85 236 -110 46 -9 85 -18 87 -19 1 -2 -11 -44 -27 -93 -17 -49
-49 -152 -71 -229 -22 -77 -56 -168 -75 -203 -19 -35 -41 -78 -49 -97 l-14
-35 578 0 577 0 44 145 c60 202 70 196 46 -27 l-12 -118 674 0 c370 0 672 3
670 8 -2 4 -32 63 -67 133 -58 116 -63 131 -68 206 l-5 82 39 10 c21 6 44 11
52 11 28 0 102 44 96 57 -2 8 8 25 23 38 15 13 25 26 22 29 -18 17 -101 6
-169 -23 -41 -17 -76 -29 -79 -27 -6 7 -32 122 -41 186 -5 30 -13 73 -19 95
-6 22 -18 73 -28 114 -16 72 -15 75 2 88 18 13 18 15 2 41 -41 65 -68 123 -68
144 0 33 15 11 35 -52 25 -76 34 -45 29 95 -5 119 -2 120 41 11 8 -22 18 -37
20 -34 3 3 -1 51 -10 106 -16 110 -20 262 -7 246 5 -5 17 -40 27 -79 10 -38
26 -89 36 -112 11 -23 19 -44 19 -46 0 -13 42 -98 47 -94 2 3 -3 53 -12 110
-9 58 -15 118 -13 134 3 24 10 16 51 -66 27 -51 50 -91 52 -90 4 5 -12 581
-19 720 -12 195 -63 434 -136 624 -21 55 -41 123 -44 150 -15 123 -155 315
-252 343 -51 15 -158 16 -185 1 -27 -14 -69 13 -167 109 -169 167 -172 169
-275 152z m80 -1831 c-33 -27 -40 -23 -33 19 3 20 6 48 6 62 0 22 3 20 25 -18
l25 -44 -23 -19z m683 -349 c0 -13 -1 -13 -10 0 -5 8 -10 22 -10 30 0 13 1 13
10 0 5 -8 10 -22 10 -30z m-62 -298 c0 -9 3 -42 6 -72 l6 -55 -15 60 c-17 71
-19 98 -6 90 6 -3 10 -13 9 -23z"/>
</g>
</svg>
