<?xml version="1.0" standalone="no"?>
<!DOCTYPE svg PUBLIC "-//W3C//DTD SVG 20010904//EN"
 "http://www.w3.org/TR/2001/REC-SVG-20010904/DTD/svg10.dtd">
<svg version="1.0" xmlns="http://www.w3.org/2000/svg"
 width="480.000000pt" height="360.000000pt" viewBox="0 0 480.000000 360.000000"
 preserveAspectRatio="xMidYMid meet">
<metadata>
Created by potrace 1.16, written by Peter Selinger 2001-2019
</metadata>
<rect width="1" height="360" fill="#000000"/>
<rect x="479" width="1" height="360" fill="#000000"/>
<rect width="480" height="1" fill="#000000"/>
<rect y="359" width="480" height="1" fill="#000000"/>
<g transform="translate(0.000000,360.000000) scale(0.100000,-0.100000)"
fill="#000000" stroke="none">
<path d="M0 2965 c0 -501 3 -635 13 -635 6 0 48 11 92 25 297 92 841 64 1329
-70 50 -14 98 -25 107 -25 10 0 20 17 28 50 14 54 50 92 109 117 35 14 45 33
56 99 l7 41 -58 6 c-32 3 -59 11 -61 17 -2 5 -14 10 -27 10 -30 0 -49 24 -41
54 9 36 100 112 195 165 l83 46 28 85 c51 158 60 189 60 208 0 58 56 131 135
178 64 37 191 84 229 84 17 0 36 4 42 9 37 36 312 63 416 42 81 -17 110 -41
212 -173 50 -64 96 -119 101 -121 6 -2 48 0 95 4 105 9 253 -6 300 -30 68 -35
48 -84 -64 -159 -39 -26 -106 -63 -148 -82 -43 -19 -78 -41 -78 -48 0 -7 11
-34 24 -61 37 -72 99 -232 92 -238 -3 -3 -19 8 -35 25 l-29 32 -4 -68 c-3 -37
-11 -80 -17 -97 l-13 -30 -10 25 -9 25 -34 -36 c-20 -22 -37 -33 -42 -28 -5 5
-27 -4 -52 -23 -37 -29 -42 -37 -36 -63 3 -16 17 -41 31 -56 35 -36 28 -60
-24 -84 -34 -16 -44 -27 -52 -57 -6 -20 -16 -38 -22 -40 -7 -3 -11 -28 -9 -74
4 -132 -41 -248 -109 -282 l-42 -20 24 -15 c289 -178 383 -229 400 -218 36 22
69 13 119 -34 26 -25 54 -45 61 -45 8 0 29 -15 48 -34 20 -19 51 -41 70 -50
36 -16 121 -72 153 -101 14 -12 18 -27 15 -51 -4 -33 0 -38 71 -96 42 -34 129
-108 193 -165 101 -89 121 -103 152 -103 27 0 40 -6 57 -29 12 -16 35 -32 52
-35 37 -8 67 -33 67 -57 0 -10 15 -25 37 -36 24 -12 40 -28 46 -48 5 -16 16
-37 24 -46 8 -10 13 -33 12 -57 -2 -34 4 -49 40 -94 66 -83 223 -301 253 -352
27 -46 28 -46 83 -46 l55 0 0 1800 0 1800 -2400 0 -2400 0 0 -635z"/>
<path d="M360 2143 c-95 -10 -236 -49 -332 -94 l-28 -12 0 -1019 0 -1018 1015
0 1015 0 6 25 c3 14 1 112 -5 218 -6 105 -16 391 -23 635 -6 243 -15 442 -19
442 -4 0 -10 -13 -14 -30 -4 -16 -12 -30 -19 -30 -7 0 -20 -15 -29 -32 -22
-45 -21 -27 7 164 24 162 59 302 77 314 5 3 9 13 9 22 0 14 -10 17 -53 18 -65
1 -128 32 -240 118 -62 47 -104 69 -172 93 -399 138 -902 216 -1195 186z"/>
<path d="M2941 1261 c-9 -6 -1 -32 33 -104 24 -53 41 -99 36 -102 -5 -3 -13 3
-19 12 -14 24 -14 4 0 -37 l12 -33 17 23 c15 20 17 38 13 104 -3 45 -10 89
-15 98 -12 24 -61 48 -77 39z"/>
<path d="M3496 820 l-26 -40 55 -66 56 -65 -23 -32 c-12 -18 -44 -53 -70 -78
l-47 -47 54 -7 c30 -3 80 -4 110 -1 30 3 79 9 109 12 52 5 55 7 85 55 17 28
31 54 31 58 0 21 -269 251 -294 251 -7 0 -25 -18 -40 -40z"/>
<path d="M4150 264 c-8 -9 -39 -35 -70 -59 -55 -42 -56 -45 -73 -121 -9 -43
-15 -79 -13 -81 2 -2 90 -2 195 -1 l193 3 -53 70 c-29 39 -75 97 -103 130 -27
33 -53 64 -56 68 -4 4 -13 0 -20 -9z"/>
<path d="M3020 93 c-84 -105 -120 -93 282 -93 262 1 348 3 334 12 -42 24 -146
60 -228 78 -70 16 -330 61 -340 60 -2 -1 -23 -26 -48 -57z"/>
</g>
</svg>
