<?xml version="1.0" standalone="no"?>
<!DOCTYPE svg PUBLIC "-//W3C//DTD SVG 20010904//EN"
 "http://www.w3.org/TR/2001/REC-SVG-20010904/DTD/svg10.dtd">
<svg version="1.0" xmlns="http://www.w3.org/2000/svg"
 width="480.000000pt" height="360.000000pt" viewBox="0 0 480.000000 360.000000"
 preserveAspectRatio="xMidYMid meet">
<metadata>
Created by potrace 1.16, written by Peter Selinger 2001-2019
</metadata>
<rect width="1" height="360" fill="#000000"/>
<rect x="479" width="1" height="360" fill="#000000"/>
<rect width="480" height="1" fill="#000000"/>
<rect y="359" width="480" height="1" fill="#000000"/>
<g transform="translate(0.000000,360.000000) scale(0.100000,-0.100000)"
fill="#000000" stroke="none">
<path d="M0 2580 c0 -561 3 -1020 8 -1019 7 0 109 66 209 134 32 22 119 99
194 172 91 89 143 133 158 133 12 0 39 -9 60 -20 21 -10 95 -42 164 -69 70
-28 193 -84 275 -125 81 -42 177 -83 213 -92 81 -21 191 -15 311 17 85 22 88
22 158 5 39 -9 74 -14 79 -12 4 3 41 53 81 112 82 118 98 133 220 197 l85 44
-2 48 c-1 32 -7 51 -17 57 -15 8 -25 18 -56 54 -13 16 -15 9 -26 -65 -11 -75
-24 -118 -24 -78 0 20 -16 23 -24 5 -3 -7 -4 5 -1 27 2 22 0 54 -4 70 -8 26
-9 27 -10 7 -1 -35 -22 -112 -30 -112 -4 0 -6 12 -4 28 6 47 -22 197 -36 194
-6 -1 -19 14 -27 35 -15 36 -17 36 -28 16 -15 -30 -31 -24 -27 11 2 25 0 28
-18 22 -71 -21 -69 -22 -40 10 36 40 59 76 59 91 0 15 -36 18 -45 3 -9 -15
-48 -12 -71 4 -10 8 -28 13 -39 10 -13 -3 -28 3 -42 18 l-22 23 57 45 c31 25
72 68 90 95 29 42 33 56 28 90 -23 152 -16 225 28 320 30 65 77 112 146 144
51 24 67 26 225 30 316 6 338 6 396 -12 72 -21 146 -86 185 -162 27 -51 44
-69 44 -45 0 6 9 19 20 30 41 41 116 18 207 -64 60 -54 80 -93 105 -201 11
-44 21 -90 25 -102 4 -18 -1 -25 -29 -38 -25 -12 -38 -28 -49 -60 -15 -42 -15
-48 7 -124 13 -44 30 -126 38 -183 17 -115 12 -158 -39 -293 -28 -75 -45 -101
-45 -70 0 10 -12 -5 -26 -33 -24 -48 -27 -51 -40 -35 -7 10 -14 32 -15 48 -1
29 -2 29 -14 -10 -12 -37 -13 -38 -19 -15 -3 14 -7 39 -9 55 -4 28 -5 28 -12
7 -13 -38 -23 -25 -30 40 -4 33 -18 92 -31 129 -19 55 -24 89 -24 169 l0 100
-26 0 c-23 0 -25 -3 -19 -30 5 -23 3 -30 -8 -30 -10 0 -14 -7 -10 -22 4 -20 1
-19 -26 9 -30 32 -31 32 -41 12 -6 -11 -17 -18 -23 -16 -13 4 -42 -60 -62
-138 -12 -47 -13 -49 -23 -25 -9 23 -11 21 -28 -37 -9 -35 -20 -63 -23 -63 -4
0 -6 19 -4 43 2 38 1 39 -6 12 -18 -65 -15 -71 50 -95 91 -35 146 -83 209
-188 62 -103 63 -103 158 -73 58 18 62 18 143 0 100 -22 236 -24 300 -5 58 18
123 51 259 131 59 35 150 83 201 107 52 23 122 57 156 75 34 18 70 33 79 33 9
0 46 -28 82 -63 157 -148 285 -241 449 -325 56 -29 104 -52 107 -52 3 0 6 439
6 975 l0 975 -2400 0 -2400 0 0 -1020z"/>
<path d="M2861 2544 c-18 -39 -29 -75 -25 -88 5 -22 58 -59 68 -48 10 9 7 190
-3 196 -5 3 -23 -24 -40 -60z"/>
<path d="M2547 2180 c-15 -16 -32 -43 -39 -61 -10 -30 -9 -34 16 -56 44 -37
56 -31 56 31 0 29 3 68 6 85 8 37 -2 38 -39 1z"/>
<path d="M3120 1998 c0 -21 2 -38 4 -38 9 0 12 50 5 62 -6 8 -9 -1 -9 -24z"/>
<path d="M4060 1934 c-41 -24 -80 -44 -87 -44 -14 0 -18 -61 -6 -74 4 -4 13
-35 20 -69 l13 -61 -37 -66 c-20 -36 -49 -90 -66 -120 -119 -217 -129 -232
-149 -212 -13 13 -12 105 1 335 8 124 9 129 41 168 17 22 30 42 28 44 -7 7
-98 -44 -160 -89 -61 -45 -73 -71 -54 -118 20 -46 4 -141 -30 -184 -43 -54
-159 -202 -204 -261 -22 -28 -45 -55 -51 -58 -22 -14 -30 11 -20 66 15 79 38
194 56 274 9 39 18 83 22 98 3 15 21 40 39 54 19 14 34 30 34 35 0 6 -40 9
-101 6 -114 -3 -134 -15 -124 -73 4 -19 -3 -52 -18 -90 -20 -52 -32 -67 -88
-107 -35 -26 -68 -51 -74 -56 -5 -4 -29 -21 -52 -37 -47 -33 -47 -34 -33 -102
5 -26 17 -88 26 -138 9 -49 23 -103 31 -118 21 -41 48 -133 88 -302 51 -212
125 -570 125 -605 l0 -30 785 0 785 0 -2 772 -3 771 -69 29 c-37 16 -70 28
-72 26 -2 -2 8 -25 21 -52 38 -75 40 -120 10 -201 -15 -38 -41 -113 -59 -165
-18 -52 -40 -112 -49 -132 -34 -79 -60 -34 -81 142 -10 74 -21 154 -27 178
-16 75 -11 109 24 165 19 29 41 58 50 66 10 7 17 17 17 21 0 4 -32 27 -71 51
-39 23 -76 48 -83 54 -15 15 -73 55 -79 55 -3 0 2 -19 10 -42 27 -76 21 -102
-66 -298 -46 -102 -88 -190 -94 -197 -8 -8 -17 -9 -27 -3 -11 7 -17 49 -27
167 -20 261 -18 285 20 343 17 27 40 52 49 55 10 3 25 22 34 41 l17 35 -49 50
c-26 27 -51 49 -54 48 -3 -1 -39 -21 -80 -45z"/>
<path d="M539 1853 c-60 -65 -61 -66 -44 -101 9 -17 24 -33 33 -36 10 -4 39
-27 64 -53 l47 -48 19 -195 c11 -107 16 -199 11 -204 -11 -12 -31 6 -76 68
-21 28 -73 95 -115 150 -77 97 -78 99 -78 155 0 35 6 65 15 77 40 52 -1 44
-55 -11 -25 -25 -75 -66 -112 -91 -71 -48 -83 -69 -45 -84 12 -5 43 -28 68
-52 46 -43 46 -45 58 -133 6 -50 16 -112 21 -140 18 -93 23 -162 12 -169 -6
-3 -33 20 -61 51 -27 32 -88 102 -135 157 l-86 98 0 67 c0 39 5 72 12 79 10
10 9 16 -3 28 -14 14 -19 13 -53 -3 l-38 -17 5 -226 c5 -203 10 -261 33 -369
6 -31 5 -33 -15 -26 l-21 6 0 -415 0 -416 871 2 871 3 34 81 c18 45 50 143 69
218 40 151 65 220 121 341 33 72 37 91 42 185 9 179 5 347 -8 334 -5 -5 -19
-40 -33 -79 -39 -112 -66 -162 -110 -201 -36 -33 -408 -283 -465 -313 -13 -7
-67 -27 -120 -46 -53 -18 -126 -46 -162 -62 -53 -23 -79 -28 -140 -27 -101 1
-248 52 -294 103 -16 17 -16 21 -4 26 8 3 32 2 54 -3 65 -15 145 -8 236 21 87
27 118 46 118 72 0 10 -12 13 -42 12 -37 -2 -43 1 -43 18 0 13 12 26 35 37 46
24 178 25 221 2 37 -19 30 -22 184 106 61 50 158 128 216 172 l106 80 6 56 c3
31 2 59 -3 62 -20 12 -201 192 -209 208 -20 40 -31 121 -19 148 11 23 10 29
-12 46 -20 16 -34 18 -94 13 -39 -3 -87 -8 -106 -11 l-35 -6 43 -36 43 -37 40
-200 c22 -110 35 -203 31 -207 -8 -8 -129 116 -255 260 -35 40 -37 45 -37 115
0 39 4 78 9 86 15 24 -7 65 -52 93 -69 43 -178 98 -194 98 -10 0 -4 -13 20
-39 52 -57 55 -68 67 -192 6 -63 15 -145 20 -182 13 -92 3 -109 -38 -65 -17
18 -53 63 -79 99 -26 37 -69 94 -95 128 -47 60 -48 62 -48 136 0 40 4 76 9 79
5 3 8 20 7 37 -1 28 -7 33 -56 53 -30 13 -74 33 -97 44 -23 12 -44 22 -46 22
-1 0 -19 -17 -38 -37z"/>
<path d="M2998 1643 c-34 -3 -48 -8 -48 -19 0 -8 -12 -20 -27 -26 -16 -7 -30
-13 -32 -15 -6 -4 48 -83 57 -83 4 0 18 21 32 48 19 35 38 54 75 74 55 30 57
30 -57 21z"/>
<path d="M1630 1610 c0 -5 6 -10 13 -10 22 -1 108 -70 117 -95 11 -28 25 -32
34 -9 3 8 -3 25 -15 37 -13 14 -19 31 -17 48 4 25 1 27 -40 33 -64 9 -92 7
-92 -4z"/>
<path d="M1800 1390 c0 -5 5 -10 11 -10 5 0 7 5 4 10 -3 6 -8 10 -11 10 -2 0
-4 -4 -4 -10z"/>
<path d="M2776 950 c3 -19 10 -58 15 -87 7 -36 7 -58 -1 -72 -9 -17 -4 -35 26
-98 60 -129 102 -238 124 -326 32 -126 73 -246 82 -241 14 9 9 107 -8 163 -8
30 -38 110 -65 180 -88 222 -120 314 -140 406 -10 49 -24 94 -29 99 -7 7 -8
-1 -4 -24z"/>
</g>
</svg>
