<?xml version="1.0" standalone="no"?>
<!DOCTYPE svg PUBLIC "-//W3C//DTD SVG 20010904//EN"
 "http://www.w3.org/TR/2001/REC-SVG-20010904/DTD/svg10.dtd">
<svg version="1.0" xmlns="http://www.w3.org/2000/svg"
 width="480.000000pt" height="360.000000pt" viewBox="0 0 480.000000 360.000000"
 preserveAspectRatio="xMidYMid meet">
<metadata>
Created by potrace 1.16, written by Peter Selinger 2001-2019
</metadata>
<rect width="1" height="360" fill="#000000"/>
<rect x="479" width="1" height="360" fill="#000000"/>
<rect width="480" height="1" fill="#000000"/>
<rect y="359" width="480" height="1" fill="#000000"/>
<g transform="translate(0.000000,360.000000) scale(0.100000,-0.100000)"
fill="#000000" stroke="none">
<path d="M0 1800 l0 -1800 2400 0 2400 0 0 1800 0 1800 -2400 0 -2400 0 0
-1800z m1741 436 c53 -49 103 -61 244 -59 l120 1 34 -49 c49 -72 141 -153 213
-188 48 -23 91 -34 178 -45 80 -10 131 -23 168 -40 73 -36 69 -50 -25 -80 -48
-16 -61 -16 -171 -2 -66 9 -164 21 -218 26 -123 13 -274 52 -333 87 -64 38
-187 168 -244 259 -20 33 -24 49 -20 83 3 22 8 41 11 41 2 0 22 -16 43 -34z"/>
</g>
</svg>
