<?xml version="1.0" standalone="no"?>
<!DOCTYPE svg PUBLIC "-//W3C//DTD SVG 20010904//EN"
 "http://www.w3.org/TR/2001/REC-SVG-20010904/DTD/svg10.dtd">
<svg version="1.0" xmlns="http://www.w3.org/2000/svg"
 width="480.000000pt" height="360.000000pt" viewBox="0 0 480.000000 360.000000"
 preserveAspectRatio="xMidYMid meet">
<metadata>
Created by potrace 1.16, written by Peter Selinger 2001-2019
</metadata>
<rect width="1" height="360" fill="#000000"/>
<rect x="479" width="1" height="360" fill="#000000"/>
<rect width="480" height="1" fill="#000000"/>
<rect y="359" width="480" height="1" fill="#000000"/>
<g transform="translate(0.000000,360.000000) scale(0.100000,-0.100000)"
fill="#000000" stroke="none">
<path d="M1598 3568 c4 -18 6 -98 6 -178 -1 -166 -22 -313 -60 -410 -14 -36
-35 -90 -47 -120 -26 -67 -99 -189 -127 -215 -11 -10 -20 -23 -20 -30 0 -21
-202 -221 -285 -281 -100 -73 -217 -131 -360 -178 -126 -40 -189 -52 -330 -60
-92 -6 -290 11 -353 30 l-22 6 0 -1066 0 -1066 1340 0 1340 0 0 23 c0 74 67
347 125 508 72 200 93 275 130 474 14 77 37 196 51 264 23 108 25 132 15 175
-6 28 -14 78 -17 111 -8 73 -19 105 -36 105 -7 0 -25 11 -40 25 -15 14 -38 25
-51 25 -13 0 -32 9 -42 20 -23 26 -27 25 -46 -5 -15 -25 -15 -25 -34 -7 -20
18 -22 18 -95 -17 l-74 -35 -151 38 c-82 21 -165 47 -183 57 -28 16 -37 17
-55 7 -12 -7 -49 -12 -81 -13 -59 0 -87 -17 -46 -28 24 -6 26 -20 4 -41 -23
-23 -42 -20 -75 13 -53 53 -37 121 38 160 36 19 218 12 392 -14 l163 -25 30
22 c25 17 29 26 24 49 -5 28 -4 29 30 29 34 0 35 1 29 34 -8 41 1 48 99 70 81
19 115 36 166 83 22 19 59 41 82 48 24 7 42 15 41 19 -2 3 -3 13 -3 21 0 8 -4
15 -10 15 -13 0 -100 62 -100 72 0 4 -7 8 -15 8 -21 0 -30 27 -15 45 10 12 7
17 -16 25 -15 6 -34 8 -42 5 -18 -6 -72 41 -72 63 0 12 -3 12 -16 1 -14 -12
-15 -8 -10 34 19 150 24 128 -49 199 -72 70 -82 102 -40 118 14 5 125 12 248
16 198 5 228 4 267 -12 101 -40 161 -103 211 -224 17 -41 41 -86 53 -100 35
-41 64 -85 80 -124 22 -54 38 -190 31 -261 -6 -48 -3 -76 10 -116 10 -29 25
-88 35 -131 14 -67 15 -87 4 -155 -7 -43 -13 -101 -13 -130 -1 -28 -5 -62 -10
-75 -5 -14 -4 -46 4 -85 16 -77 5 -193 -25 -259 -11 -26 -20 -52 -20 -58 0
-18 86 -295 118 -381 16 -44 58 -141 92 -215 84 -184 118 -269 150 -375 l28
-90 426 -3 426 -2 0 1800 0 1800 -1604 0 -1604 0 6 -32z"/>
</g>
</svg>
