<?xml version="1.0" standalone="no"?>
<!DOCTYPE svg PUBLIC "-//W3C//DTD SVG 20010904//EN"
 "http://www.w3.org/TR/2001/REC-SVG-20010904/DTD/svg10.dtd">
<svg version="1.0" xmlns="http://www.w3.org/2000/svg"
 width="480.000000pt" height="360.000000pt" viewBox="0 0 480.000000 360.000000"
 preserveAspectRatio="xMidYMid meet">
<metadata>
Created by potrace 1.16, written by Peter Selinger 2001-2019
</metadata>
<rect width="1" height="360" fill="#000000"/>
<rect x="479" width="1" height="360" fill="#000000"/>
<rect width="480" height="1" fill="#000000"/>
<rect y="359" width="480" height="1" fill="#000000"/>
<g transform="translate(0.000000,360.000000) scale(0.100000,-0.100000)"
fill="#000000" stroke="none">
<path d="M1400 2362 c0 -13 87 -76 147 -105 83 -41 235 -127 320 -183 143 -92
243 -175 389 -319 128 -126 146 -149 189 -233 67 -132 161 -229 280 -290 23
-11 105 -88 195 -183 85 -90 158 -165 161 -167 3 -1 53 -48 110 -102 57 -55
169 -149 249 -208 80 -59 165 -129 190 -155 25 -27 82 -87 127 -135 46 -48 90
-97 98 -109 8 -12 39 -36 69 -52 30 -17 56 -37 59 -45 3 -7 30 -27 61 -45 l56
-31 350 0 350 0 -2 332 -3 331 -165 54 c-180 60 -225 72 -405 109 -66 13 -133
31 -150 38 -99 47 -152 74 -270 141 l-132 75 -28 67 c-21 53 -42 82 -94 132
-85 82 -149 109 -294 125 -53 6 -66 12 -134 69 -90 74 -188 160 -263 231 -104
98 -230 206 -239 206 -6 0 -19 21 -30 46 -27 60 -122 186 -152 201 -52 26
-178 52 -254 54 -51 0 -96 7 -125 19 -53 21 -117 37 -350 90 -189 43 -310 60
-310 42z"/>
</g>
</svg>
