<?xml version="1.0" standalone="no"?>
<!DOCTYPE svg PUBLIC "-//W3C//DTD SVG 20010904//EN"
 "http://www.w3.org/TR/2001/REC-SVG-20010904/DTD/svg10.dtd">
<svg version="1.0" xmlns="http://www.w3.org/2000/svg"
 width="480.000000pt" height="360.000000pt" viewBox="0 0 480.000000 360.000000"
 preserveAspectRatio="xMidYMid meet">
<metadata>
Created by potrace 1.16, written by Peter Selinger 2001-2019
</metadata>
<rect width="1" height="360" fill="#000000"/>
<rect x="479" width="1" height="360" fill="#000000"/>
<rect width="480" height="1" fill="#000000"/>
<rect y="359" width="480" height="1" fill="#000000"/>
<g transform="translate(0.000000,360.000000) scale(0.100000,-0.100000)"
fill="#000000" stroke="none">
<path d="M530 3537 c-155 -79 -295 -160 -425 -246 l-100 -66 -3 -1612 -2
-1613 540 0 c297 0 540 2 540 4 0 2 -30 28 -68 57 -309 241 -595 643 -711
1002 -93 287 -139 588 -127 826 35 675 325 1244 849 1664 l60 47 -215 0 -214
0 -124 -63z"/>
<path d="M3014 3527 c52 -71 136 -222 136 -246 0 -7 7 -26 16 -43 63 -122 81
-376 40 -583 -36 -182 -97 -313 -211 -455 -72 -89 -81 -98 -157 -162 -128
-108 -262 -180 -404 -218 -216 -58 -364 -130 -487 -235 -167 -143 -251 -263
-358 -510 -16 -37 -47 -199 -54 -280 -10 -132 24 -362 69 -460 7 -16 26 -59
42 -95 29 -68 116 -206 143 -227 12 -10 234 -12 961 -13 l946 0 106 85 c356
286 622 699 736 1140 54 210 64 285 69 525 4 171 1 254 -11 345 -51 384 -196
736 -437 1055 -103 136 -297 331 -420 423 l-36 27 -372 0 -371 0 54 -73z
m-254 -2561 c58 -29 80 -50 113 -107 93 -162 -11 -362 -201 -384 -103 -12
-187 30 -249 124 -34 51 -37 60 -37 130 0 83 12 115 67 177 72 83 209 109 307
60z"/>
<path d="M2042 3155 c-74 -23 -143 -77 -167 -130 -33 -77 -37 -98 -33 -163 9
-117 77 -211 182 -251 143 -53 294 -1 368 128 30 52 33 62 31 138 -1 69 -5 90
-29 133 -69 127 -215 188 -352 145z"/>
<path d="M4705 339 c-49 -33 -108 -69 -129 -81 -22 -11 -64 -37 -95 -58 -31
-21 -128 -74 -216 -119 l-160 -81 348 0 347 0 0 200 c0 110 -1 200 -2 200 -2
-1 -43 -28 -93 -61z"/>
</g>
</svg>
