<?xml version="1.0" standalone="no"?>
<!DOCTYPE svg PUBLIC "-//W3C//DTD SVG 20010904//EN"
 "http://www.w3.org/TR/2001/REC-SVG-20010904/DTD/svg10.dtd">
<svg version="1.0" xmlns="http://www.w3.org/2000/svg"
 width="480.000000pt" height="360.000000pt" viewBox="0 0 480.000000 360.000000"
 preserveAspectRatio="xMidYMid meet">
<metadata>
Created by potrace 1.16, written by Peter Selinger 2001-2019
</metadata>
<rect width="1" height="360" fill="#000000"/>
<rect x="479" width="1" height="360" fill="#000000"/>
<rect width="480" height="1" fill="#000000"/>
<rect y="359" width="480" height="1" fill="#000000"/>
<g transform="translate(0.000000,360.000000) scale(0.100000,-0.100000)"
fill="#000000" stroke="none">
<path d="M1239 2643 c-15 -6 -32 -20 -38 -31 -30 -56 83 -105 325 -142 76 -11
148 -23 159 -26 41 -11 145 -57 145 -64 0 -5 -42 -11 -92 -15 -254 -18 -348
-34 -422 -70 -78 -38 -107 -60 -124 -92 -16 -30 1 -41 78 -48 45 -5 85 -2 130
9 79 20 409 33 460 19 34 -9 34 -10 -45 -28 -125 -27 -280 -100 -344 -160 -61
-57 -89 -108 -70 -131 13 -16 110 -19 137 -4 9 5 71 35 137 66 91 42 137 57
190 63 39 5 71 7 73 6 1 -1 -28 -25 -65 -53 -94 -70 -119 -99 -137 -161 -30
-103 -16 -136 51 -123 32 5 49 16 73 47 17 22 56 66 86 97 50 52 62 59 151 87
l98 30 60 -25 c155 -66 202 -76 360 -81 173 -4 215 -9 215 -25 0 -6 7 -19 15
-28 14 -15 14 -18 0 -30 -17 -14 -20 -66 -6 -103 12 -32 50 -41 298 -72 111
-13 241 -32 290 -40 87 -16 382 -85 478 -111 274 -76 394 -109 475 -134 120
-36 186 -44 316 -35 l104 7 0 383 0 383 -52 5 c-29 3 -82 12 -118 22 -36 9
-110 25 -165 35 -636 118 -990 193 -1280 270 -86 23 -151 35 -153 30 -2 -6
-12 -10 -22 -10 -10 0 -28 -12 -39 -26 l-21 -26 -232 66 c-128 36 -298 77
-378 91 -109 20 -161 34 -210 59 -119 60 -183 79 -242 72 -94 -11 -111 -10
-243 18 -151 33 -361 48 -406 29z"/>
</g>
</svg>
