<?xml version="1.0" standalone="no"?>
<!DOCTYPE svg PUBLIC "-//W3C//DTD SVG 20010904//EN"
 "http://www.w3.org/TR/2001/REC-SVG-20010904/DTD/svg10.dtd">
<svg version="1.0" xmlns="http://www.w3.org/2000/svg"
 width="480.000000pt" height="360.000000pt" viewBox="0 0 480.000000 360.000000"
 preserveAspectRatio="xMidYMid meet">
<metadata>
Created by potrace 1.16, written by Peter Selinger 2001-2019
</metadata>
<rect width="1" height="360" fill="#000000"/>
<rect x="479" width="1" height="360" fill="#000000"/>
<rect width="480" height="1" fill="#000000"/>
<rect y="359" width="480" height="1" fill="#000000"/>
<g transform="translate(0.000000,360.000000) scale(0.100000,-0.100000)"
fill="#000000" stroke="none">
<path d="M72 3529 l-72 -71 0 -85 0 -85 76 108 c42 60 91 128 110 151 19 23
34 44 34 47 0 3 -17 6 -38 6 -33 0 -46 -8 -110 -71z"/>
<path d="M2612 3583 c26 -29 115 -207 128 -254 7 -24 19 -59 27 -77 8 -19 24
-77 36 -130 31 -145 31 -447 -1 -582 -73 -304 -184 -501 -413 -735 -193 -196
-272 -311 -355 -510 -149 -361 -133 -848 39 -1165 16 -30 39 -72 49 -92 l20
-38 1208 0 1208 0 59 78 c33 42 87 118 121 169 l62 92 0 1459 0 1459 -51 79
c-28 44 -83 121 -121 172 l-70 92 -981 0 c-933 0 -979 -1 -965 -17z m777
-2464 c48 -16 78 -36 126 -81 54 -50 67 -69 86 -125 17 -53 20 -79 15 -133 -8
-92 -28 -134 -92 -197 -148 -144 -319 -150 -464 -16 -73 67 -100 134 -100 247
0 61 5 86 24 124 45 86 136 163 223 187 70 19 111 18 182 -6z"/>
<path d="M1429 3151 c-99 -32 -202 -120 -250 -213 -28 -54 -38 -186 -18 -255
63 -226 321 -337 532 -231 49 24 121 90 156 143 38 56 51 109 51 209 0 74 -4
96 -28 149 -72 158 -281 252 -443 198z"/>
<path d="M0 157 l0 -157 117 0 c110 0 115 1 101 18 -62 73 -105 129 -157 206
l-61 90 0 -157z"/>
<path d="M4712 80 l-81 -80 85 0 84 0 0 80 c0 44 -2 80 -4 80 -2 0 -40 -36
-84 -80z"/>
</g>
</svg>
