<?xml version="1.0" standalone="no"?>
<!DOCTYPE svg PUBLIC "-//W3C//DTD SVG 20010904//EN"
 "http://www.w3.org/TR/2001/REC-SVG-20010904/DTD/svg10.dtd">
<svg version="1.0" xmlns="http://www.w3.org/2000/svg"
 width="480.000000pt" height="360.000000pt" viewBox="0 0 480.000000 360.000000"
 preserveAspectRatio="xMidYMid meet">
<metadata>
Created by potrace 1.16, written by Peter Selinger 2001-2019
</metadata>
<rect width="1" height="360" fill="#000000"/>
<rect x="479" width="1" height="360" fill="#000000"/>
<rect width="480" height="1" fill="#000000"/>
<rect y="359" width="480" height="1" fill="#000000"/>
<g transform="translate(0.000000,360.000000) scale(0.100000,-0.100000)"
fill="#000000" stroke="none">
<path d="M0 1800 l0 -1800 876 2 876 3 43 135 c24 74 62 198 84 275 45 152
102 281 158 359 33 46 36 56 34 112 -1 33 -5 74 -9 89 l-8 27 -38 -46 c-21
-26 -40 -45 -42 -43 -3 2 13 38 35 78 21 41 42 84 45 96 7 21 6 22 -23 7 -17
-8 -33 -19 -36 -25 -4 -5 -14 -5 -26 2 -11 6 -26 8 -34 6 -7 -3 -42 -65 -78
-139 -119 -240 -214 -361 -417 -527 -181 -147 -248 -208 -315 -284 -62 -72
-110 -105 -138 -94 -7 3 -21 -1 -32 -9 -25 -19 -55 -18 -55 1 0 12 -4 13 -19
5 -53 -28 -46 1 19 80 58 71 59 80 1 17 -51 -55 -81 -71 -81 -44 0 6 27 50 60
96 61 86 97 161 85 180 -9 16 -52 13 -81 -5 -18 -12 -28 -14 -36 -6 -13 13 18
41 92 80 39 21 56 36 59 53 1 13 27 51 55 84 145 166 368 438 395 481 22 33
31 60 31 88 -1 33 -3 38 -11 23 -12 -21 -29 -13 -29 14 0 25 -8 24 -37 -3 -13
-12 -26 -19 -29 -15 -5 5 8 53 31 111 7 16 4 17 -23 11 -31 -6 -44 6 -21 20 5
4 14 18 19 30 5 13 39 47 75 75 36 29 65 56 65 61 0 6 31 43 69 83 49 52 73
86 81 116 18 68 40 211 40 267 l0 51 -40 -5 c-22 -3 -40 -3 -40 1 0 10 60 229
65 237 3 4 -16 7 -41 6 -37 -2 -49 2 -58 18 -6 11 -13 22 -16 25 -22 22 -64
112 -92 195 -10 33 -24 70 -30 82 -16 33 -16 147 1 166 25 31 215 13 339 -31
l52 -19 98 34 c61 22 129 37 183 42 47 4 91 11 98 15 6 4 57 16 113 25 100 18
100 18 122 -3 11 -12 26 -30 32 -41 18 -33 27 -121 14 -144 -8 -16 -8 -21 1
-21 7 0 9 -11 5 -33 -4 -21 -1 -48 9 -70 8 -20 17 -69 20 -109 2 -40 2 -65 -1
-55 -3 9 -9 17 -14 17 -10 0 -16 -18 -26 -80 -3 -24 -10 -52 -15 -62 -5 -10
-13 -27 -19 -38 -5 -11 -10 -29 -10 -40 0 -25 -15 -26 -25 -2 -14 37 -30 -21
-29 -108 1 -108 12 -136 56 -144 18 -3 65 -23 103 -44 91 -50 128 -110 166
-270 11 -48 27 -97 35 -110 8 -13 21 -62 29 -110 l14 -87 151 -145 c139 -134
150 -148 150 -181 0 -26 -8 -43 -29 -63 -25 -24 -28 -32 -21 -62 11 -46 26
-63 78 -86 46 -21 52 -36 24 -61 -51 -46 -164 5 -178 79 -9 47 -27 52 -66 19
-45 -37 -74 -87 -98 -166 l-20 -67 24 -103 c13 -57 38 -166 56 -241 l32 -138
944 0 944 0 0 1800 0 1800 -2400 0 -2400 0 0 -1800z"/>
</g>
</svg>
