<?xml version="1.0" standalone="no"?>
<!DOCTYPE svg PUBLIC "-//W3C//DTD SVG 20010904//EN"
 "http://www.w3.org/TR/2001/REC-SVG-20010904/DTD/svg10.dtd">
<svg version="1.0" xmlns="http://www.w3.org/2000/svg"
 width="480.000000pt" height="360.000000pt" viewBox="0 0 480.000000 360.000000"
 preserveAspectRatio="xMidYMid meet">
<metadata>
Created by potrace 1.16, written by Peter Selinger 2001-2019
</metadata>
<rect width="1" height="360" fill="#000000"/>
<rect x="479" width="1" height="360" fill="#000000"/>
<rect width="480" height="1" fill="#000000"/>
<rect y="359" width="480" height="1" fill="#000000"/>
<g transform="translate(0.000000,360.000000) scale(0.100000,-0.100000)"
fill="#000000" stroke="none">
<path d="M1654 3294 c-21 -14 -50 -37 -64 -50 -40 -37 -78 -46 -148 -35 -92
15 -144 -5 -215 -82 -45 -49 -80 -114 -96 -177 -7 -25 -27 -83 -46 -130 -90
-222 -116 -376 -122 -720 -5 -236 -3 -267 11 -279 9 -7 16 -22 16 -31 0 -24
10 -50 19 -50 4 0 13 16 19 35 20 55 42 36 42 -37 0 -32 4 -57 8 -54 5 3 20
49 33 103 24 97 24 97 26 48 5 -90 14 -133 32 -154 10 -11 21 -18 24 -15 3 3
8 -13 12 -35 7 -42 25 -66 25 -34 0 10 5 36 11 58 l11 39 14 -26 c10 -19 11
-34 5 -51 -14 -36 -2 -109 19 -114 14 -4 17 -13 13 -51 -7 -83 -10 -88 -50
-98 l-38 -10 36 -18 37 -19 7 -277 c7 -272 4 -336 -26 -470 -21 -100 -28 -162
-19 -185 7 -19 0 -41 -35 -111 -24 -48 -58 -127 -74 -175 l-30 -89 473 0 472
0 -7 58 c-13 103 -12 107 23 117 26 8 34 17 43 50 5 22 18 54 28 72 22 41 21
68 -3 121 -10 23 -17 49 -14 57 3 7 -4 116 -16 241 -12 125 -19 238 -15 252
l6 25 15 -28 c8 -15 14 -34 14 -43 0 -26 18 0 22 31 2 15 7 29 12 30 22 5 29
-77 36 -413 8 -377 16 -437 63 -527 l22 -43 276 0 c221 0 285 3 319 15 39 14
44 14 56 -2 12 -17 15 -16 44 14 29 29 70 47 56 24 -3 -4 3 -16 13 -25 17 -15
19 -16 25 -1 3 9 6 24 6 34 0 9 17 25 37 36 20 11 49 40 64 64 74 116 158 480
159 687 0 66 -22 263 -35 317 -6 23 -4 24 77 35 124 18 153 28 189 69 39 45
77 129 93 203 22 106 -15 199 -93 235 -31 13 -40 23 -36 34 11 27 10 33 -1 38
-6 2 -14 -6 -17 -18 -5 -17 -11 -20 -29 -15 -92 28 -185 12 -222 -38 -50 -65
-69 -191 -42 -268 18 -51 -13 -81 -45 -42 -10 12 -24 14 -63 9 -228 -28 -369
-49 -473 -71 l-122 -24 -159 79 -158 79 -37 81 c-35 78 -38 81 -64 75 -16 -4
-40 -18 -55 -32 l-28 -25 -15 36 c-8 20 -15 38 -15 41 0 3 -14 27 -31 54 -30
49 -30 50 -20 126 6 43 11 82 11 87 0 5 7 9 16 9 12 0 14 8 9 44 -14 92 -11
115 21 144 16 15 34 39 41 54 7 16 27 34 48 42 19 8 35 19 35 23 -1 4 -14 24
-30 43 -36 42 -39 75 -7 84 33 9 37 8 30 -11 -4 -13 3 -10 24 10 16 15 34 27
40 27 6 0 14 6 16 13 4 9 7 9 15 -1 7 -10 12 -6 22 17 7 17 16 28 21 25 5 -3
9 14 9 38 0 51 12 73 34 65 15 -6 15 -4 1 23 -9 16 -22 66 -29 110 -19 108
-48 161 -137 255 -42 44 -84 96 -92 117 -10 24 -35 50 -76 79 -34 24 -61 50
-61 58 0 30 -38 78 -86 109 -60 40 -106 42 -160 6z"/>
</g>
</svg>
