<?xml version="1.0" standalone="no"?>
<!DOCTYPE svg PUBLIC "-//W3C//DTD SVG 20010904//EN"
 "http://www.w3.org/TR/2001/REC-SVG-20010904/DTD/svg10.dtd">
<svg version="1.0" xmlns="http://www.w3.org/2000/svg"
 width="480.000000pt" height="360.000000pt" viewBox="0 0 480.000000 360.000000"
 preserveAspectRatio="xMidYMid meet">
<metadata>
Created by potrace 1.16, written by Peter Selinger 2001-2019
</metadata>
<rect width="1" height="360" fill="#000000"/>
<rect x="479" width="1" height="360" fill="#000000"/>
<rect width="480" height="1" fill="#000000"/>
<rect y="359" width="480" height="1" fill="#000000"/>
<g transform="translate(0.000000,360.000000) scale(0.100000,-0.100000)"
fill="#000000" stroke="none">
<path d="M0 1800 l0 -1800 889 0 889 0 32 40 c22 27 33 53 35 82 4 51 29 125
79 232 31 69 36 88 36 155 0 42 -5 105 -10 141 -5 36 -13 126 -16 200 -7 134
-15 180 -33 180 -5 0 -11 -9 -14 -20 -8 -30 -24 -24 -37 15 -9 28 -8 45 8 100
18 59 19 69 6 94 -13 26 -13 34 5 78 50 125 93 211 121 240 24 26 30 41 30 78
0 43 2 46 30 52 17 3 30 8 30 11 0 3 -31 37 -69 76 -37 39 -78 91 -91 116 -24
47 -31 115 -17 161 7 22 5 27 -12 32 -12 3 -21 11 -21 19 0 19 48 68 66 68 8
0 25 5 36 11 20 11 21 12 4 25 -10 7 -23 11 -30 8 -7 -3 -34 7 -60 22 -39 22
-45 29 -32 36 9 5 16 18 16 29 0 27 27 35 49 15 10 -9 30 -16 45 -16 22 0 26
4 21 19 -11 36 -35 187 -35 224 0 46 15 77 36 77 9 0 38 -18 64 -40 l47 -40
19 21 c26 29 84 57 134 65 32 5 48 16 76 50 20 24 44 46 55 49 18 6 19 22 19
451 l0 444 -1200 0 -1200 0 0 -1800z"/>
<path d="M2400 1355 l0 -1355 310 0 c171 0 310 3 310 7 0 3 -12 22 -27 42 -18
23 -27 48 -28 75 -1 23 -23 93 -48 158 -46 113 -47 118 -47 226 0 60 7 201 15
313 9 112 13 219 10 237 -8 44 8 40 30 -8 43 -96 76 -8 41 111 -9 29 -16 68
-16 87 0 20 -19 77 -45 133 -25 54 -45 102 -45 108 0 5 -14 24 -32 42 -25 26
-33 46 -38 84 -4 42 -9 51 -27 53 -18 3 -10 14 56 80 119 119 152 217 96 293
-14 19 -28 42 -31 51 -4 10 -21 27 -40 39 -33 20 -33 21 -16 43 14 20 21 22
40 13 27 -13 37 -4 47 40 8 39 -5 48 -51 33 -19 -7 -38 -10 -40 -7 -3 3 4 53
15 111 29 147 27 228 -5 240 -7 3 -38 -15 -69 -40 l-55 -45 -39 30 c-42 33
-100 61 -127 61 -9 0 -37 23 -63 50 -89 95 -81 226 -81 -1305z m440 670 c7 -8
18 -15 26 -15 32 0 44 -71 20 -119 -17 -33 -129 -138 -163 -154 -41 -18 -47 3
-20 69 13 33 27 68 31 78 6 19 7 19 22 0 11 -14 17 -16 21 -6 4 10 10 9 25 -5
21 -18 21 -18 14 19 -6 32 -4 37 9 32 20 -8 19 -1 -5 46 -27 52 -12 93 20 55z
m-170 -268 c0 -5 -4 -5 -10 -2 -5 3 -10 14 -10 23 0 15 2 15 10 2 5 -8 10 -19
10 -23z m-143 -19 c-3 -8 -6 -5 -6 6 -1 11 2 17 5 13 3 -3 4 -12 1 -19z m83
-58 c0 -5 -13 -10 -30 -10 -42 0 -56 30 -29 64 l21 27 19 -36 c10 -19 19 -39
19 -45z m215 -1158 c-6 -16 -7 -16 -16 0 -7 12 -6 25 3 40 l13 23 3 -23 c2
-13 1 -31 -3 -40z"/>
<path d="M1962 2021 c-42 -39 -43 -80 -3 -143 28 -44 142 -148 162 -148 25 0
0 82 -35 115 -12 12 -28 30 -34 41 -11 18 -12 18 -32 -6 l-20 -25 0 32 c0 26
-3 31 -16 26 -15 -5 -15 -3 0 24 19 37 32 113 20 113 -5 0 -24 -13 -42 -29z"/>
<path d="M2157 1783 c-4 -3 -7 -13 -7 -22 1 -13 3 -13 11 2 11 19 8 33 -4 20z"/>
<path d="M1991 598 c0 -18 4 -42 8 -52 6 -17 10 -15 28 16 l21 35 -29 17 -29
17 1 -33z"/>
</g>
</svg>
