<?xml version="1.0" standalone="no"?>
<!DOCTYPE svg PUBLIC "-//W3C//DTD SVG 20010904//EN"
 "http://www.w3.org/TR/2001/REC-SVG-20010904/DTD/svg10.dtd">
<svg version="1.0" xmlns="http://www.w3.org/2000/svg"
 width="480.000000pt" height="360.000000pt" viewBox="0 0 480.000000 360.000000"
 preserveAspectRatio="xMidYMid meet">
<metadata>
Created by potrace 1.16, written by Peter Selinger 2001-2019
</metadata>
<rect width="1" height="360" fill="#000000"/>
<rect x="479" width="1" height="360" fill="#000000"/>
<rect width="480" height="1" fill="#000000"/>
<rect y="359" width="480" height="1" fill="#000000"/>
<g transform="translate(0.000000,360.000000) scale(0.100000,-0.100000)"
fill="#000000" stroke="none">
<path d="M0 1800 l0 -1800 88 0 87 0 38 113 c20 61 37 118 37 125 0 7 -11 28
-26 47 -15 21 -21 36 -15 40 16 9 13 36 -5 50 -14 10 -12 14 20 29 20 9 49 36
64 58 26 40 27 47 27 172 l0 131 34 5 c32 5 34 7 52 77 10 40 34 105 54 144
40 79 40 105 0 95 -29 -7 -33 9 -14 63 9 24 31 43 100 84 49 30 86 57 82 60
-3 4 -12 2 -19 -4 -25 -21 -99 1 -175 52 -40 27 -82 52 -95 55 -22 6 -76 -17
-102 -42 -7 -8 -18 -12 -23 -8 -17 10 11 44 49 59 28 12 48 33 83 88 56 87
130 223 128 234 -1 4 10 34 24 66 15 32 36 95 47 140 11 45 25 98 30 118 16
57 13 79 -9 79 -22 0 -153 58 -219 96 l-43 25 30 36 c28 34 28 37 15 69 -17
41 -18 86 -2 102 15 15 69 16 100 2 19 -9 36 -5 90 19 l67 31 -10 32 c-29 104
25 314 115 443 71 102 163 177 266 217 102 39 311 36 582 -9 80 -13 101 -13
113 -3 13 11 18 10 30 -7 8 -11 40 -31 72 -43 178 -71 330 -249 374 -440 11
-50 17 -178 11 -240 -1 -14 -1 -34 1 -45 2 -11 7 -38 12 -60 4 -22 16 -55 26
-73 10 -18 19 -39 19 -45 0 -7 9 -42 21 -79 21 -63 21 -68 5 -92 -22 -35 -52
-33 -71 4 -16 31 -29 37 -40 20 -10 -16 52 -329 97 -490 46 -167 77 -257 102
-300 44 -76 31 -84 -31 -19 -54 57 -92 74 -108 49 -8 -14 -108 -60 -128 -60
-23 0 -22 -6 13 -50 35 -45 37 -61 9 -99 -20 -28 -20 -28 -1 -62 25 -46 67
-169 82 -242 11 -57 12 -58 43 -56 75 5 81 -6 48 -83 -10 -24 -24 -67 -32 -97
l-13 -54 38 -33 c22 -19 45 -34 52 -34 7 0 18 -9 25 -21 9 -18 7 -25 -15 -48
-17 -18 -26 -38 -26 -61 0 -18 -7 -42 -17 -52 -15 -17 -15 -23 6 -95 12 -43
29 -102 37 -130 l15 -53 1240 0 1239 0 0 1800 0 1800 -2400 0 -2400 0 0 -1800z
m608 1709 c-2 -6 -8 -10 -13 -10 -5 0 -11 4 -13 10 -2 6 4 11 13 11 9 0 15 -5
13 -11z m192 -374 c0 -8 -4 -15 -10 -15 -5 0 -10 7 -10 15 0 8 5 15 10 15 6 0
10 -7 10 -15z m3496 -49 c10 -8 16 -17 13 -20 -11 -11 -69 6 -69 20 0 18 31
18 56 0z m-346 -455 c0 -33 -11 -51 -31 -51 -23 0 -24 18 -3 48 19 27 34 28
34 3z m610 -1279 c0 -4 -10 -14 -22 -21 -30 -19 -234 -29 -251 -12 -18 18 -1
23 40 12 31 -8 51 -8 89 3 81 24 144 32 144 18z m-537 -717 c-5 -13 -23 -22
-23 -11 0 15 14 35 21 31 4 -3 6 -12 2 -20z"/>
<path d="M677 1324 c-16 -9 -27 -18 -24 -21 6 -5 67 24 67 32 0 8 -14 5 -43
-11z"/>
<path d="M1880 1301 c0 -10 35 -21 70 -21 l25 1 -25 14 c-28 16 -70 20 -70 6z"/>
</g>
</svg>
