<?xml version="1.0" standalone="no"?>
<!DOCTYPE svg PUBLIC "-//W3C//DTD SVG 20010904//EN"
 "http://www.w3.org/TR/2001/REC-SVG-20010904/DTD/svg10.dtd">
<svg version="1.0" xmlns="http://www.w3.org/2000/svg"
 width="480.000000pt" height="360.000000pt" viewBox="0 0 480.000000 360.000000"
 preserveAspectRatio="xMidYMid meet">
<metadata>
Created by potrace 1.16, written by Peter Selinger 2001-2019
</metadata>
<rect width="1" height="360" fill="#000000"/>
<rect x="479" width="1" height="360" fill="#000000"/>
<rect width="480" height="1" fill="#000000"/>
<rect y="359" width="480" height="1" fill="#000000"/>
<g transform="translate(0.000000,360.000000) scale(0.100000,-0.100000)"
fill="#000000" stroke="none">
<path d="M2325 1686 c-37 -17 -52 -42 -75 -124 -18 -63 -17 -127 1 -138 5 -3
9 -21 9 -39 0 -19 7 -50 17 -69 16 -34 16 -35 -11 -68 -41 -50 -91 -126 -126
-191 -43 -81 -52 -187 -21 -278 20 -61 24 -66 76 -93 30 -16 55 -32 55 -37 0
-5 13 -9 28 -9 18 0 38 -10 53 -26 22 -24 29 -25 79 -20 92 11 130 25 140 51
5 13 20 31 33 40 22 14 24 22 26 118 l2 102 -52 100 c-28 55 -57 116 -64 136
-16 45 -6 67 18 39 24 -28 60 -34 96 -16 37 19 48 55 33 104 -6 19 -8 40 -5
45 29 47 17 157 -17 157 -12 0 -20 7 -20 16 0 29 -29 -4 -36 -41 -5 -26 -13
-36 -36 -44 -43 -15 -45 -14 -54 17 -9 34 -6 54 10 67 59 46 39 191 -29 209
-35 10 -99 6 -130 -8z m185 -352 c0 -8 -5 -12 -10 -9 -6 4 -8 11 -5 16 9 14
15 11 15 -7z"/>
</g>
</svg>
