<?xml version="1.0" standalone="no"?>
<!DOCTYPE svg PUBLIC "-//W3C//DTD SVG 20010904//EN"
 "http://www.w3.org/TR/2001/REC-SVG-20010904/DTD/svg10.dtd">
<svg version="1.0" xmlns="http://www.w3.org/2000/svg"
 width="480.000000pt" height="360.000000pt" viewBox="0 0 480.000000 360.000000"
 preserveAspectRatio="xMidYMid meet">
<metadata>
Created by potrace 1.16, written by Peter Selinger 2001-2019
</metadata>
<rect width="1" height="360" fill="#000000"/>
<rect x="479" width="1" height="360" fill="#000000"/>
<rect width="480" height="1" fill="#000000"/>
<rect y="359" width="480" height="1" fill="#000000"/>
<g transform="translate(0.000000,360.000000) scale(0.100000,-0.100000)"
fill="#000000" stroke="none">
<path d="M0 3536 l0 -64 63 -7 c34 -3 97 -7 139 -9 86 -4 85 -5 152 92 l36 52
-195 0 -195 0 0 -64z"/>
<path d="M920 3555 c0 -25 3 -45 7 -45 11 0 123 75 123 83 0 4 -29 7 -65 7
l-65 0 0 -45z"/>
<path d="M0 2609 l1 -384 21 30 c59 81 141 133 251 161 34 9 73 22 87 29 47
24 209 44 362 45 23 0 31 8 48 47 25 57 57 93 82 93 13 0 18 8 18 30 0 38 24
98 52 127 17 19 19 26 9 56 -6 18 -23 52 -38 74 -24 38 -29 41 -86 47 -100 10
-153 7 -167 -9 -7 -8 -19 -15 -27 -15 -7 0 -16 7 -19 15 -10 25 -42 17 -59
-15 -20 -38 -40 -38 -60 -1 -17 34 -31 36 -293 40 -84 1 -159 4 -167 7 -13 5
-15 -43 -15 -377z"/>
<path d="M847 2555 c-21 -44 -22 -66 -3 -59 8 3 25 -2 39 -10 l24 -16 -16 60
c-9 33 -18 60 -21 60 -4 0 -14 -16 -23 -35z"/>
<path d="M3933 2502 c-168 -144 -365 -326 -419 -389 -51 -58 -104 -149 -104
-177 0 -8 13 -54 29 -103 41 -126 44 -143 26 -143 -8 0 -15 -8 -15 -18 0 -11
-9 -27 -19 -36 -23 -21 -31 -19 -150 31 -61 26 -91 33 -114 29 -42 -9 -160 26
-270 80 -51 25 -123 54 -162 65 -38 12 -106 32 -149 46 -44 14 -100 27 -125
28 -28 1 -91 19 -161 47 -63 25 -132 49 -152 52 -34 6 -64 17 -175 67 -23 11
-44 19 -47 19 -2 0 -65 29 -138 65 -141 69 -165 76 -153 48 42 -97 71 -237 54
-258 -18 -23 -20 -93 -5 -165 18 -82 21 -190 7 -218 -5 -9 -19 -53 -31 -97
-12 -44 -35 -100 -51 -124 -16 -25 -29 -50 -29 -57 0 -16 -75 -94 -90 -94 -44
0 -138 -40 -179 -75 -30 -27 -67 -47 -106 -58 -33 -10 -87 -28 -120 -41 -118
-47 -274 -76 -400 -76 l-116 0 -60 57 c-33 31 -71 78 -85 103 l-25 47 -57 -1
c-113 -1 -234 81 -296 200 -14 27 -30 56 -35 64 -7 10 -11 -209 -11 -702 l0
-718 2400 0 2400 0 0 1148 0 1148 -77 18 c-125 29 -335 110 -511 196 -89 44
-166 80 -170 80 -4 0 -53 -40 -109 -88z"/>
</g>
</svg>
