<?xml version="1.0" standalone="no"?>
<!DOCTYPE svg PUBLIC "-//W3C//DTD SVG 20010904//EN"
 "http://www.w3.org/TR/2001/REC-SVG-20010904/DTD/svg10.dtd">
<svg version="1.0" xmlns="http://www.w3.org/2000/svg"
 width="480.000000pt" height="360.000000pt" viewBox="0 0 480.000000 360.000000"
 preserveAspectRatio="xMidYMid meet">
<metadata>
Created by potrace 1.16, written by Peter Selinger 2001-2019
</metadata>
<rect width="1" height="360" fill="#000000"/>
<rect x="479" width="1" height="360" fill="#000000"/>
<rect width="480" height="1" fill="#000000"/>
<rect y="359" width="480" height="1" fill="#000000"/>
<g transform="translate(0.000000,360.000000) scale(0.100000,-0.100000)"
fill="#000000" stroke="none">
<path d="M0 1800 l0 -1800 883 0 882 0 37 58 c24 37 38 71 38 90 0 38 32 132
89 260 l41 93 -10 192 c-15 307 -17 315 -51 332 -37 19 -45 53 -29 122 10 49
10 57 -6 74 -27 30 -22 73 26 202 33 90 52 126 77 147 26 23 32 37 35 77 3 43
6 48 28 51 45 6 44 20 -3 42 -30 14 -49 31 -57 51 -7 16 -18 29 -25 29 -20 0
-63 49 -70 78 -4 19 -20 36 -56 56 -70 39 -113 78 -133 123 -15 33 -15 44 -4
78 23 68 132 132 268 156 82 15 89 18 104 47 45 86 140 141 258 150 l78 5 0
-1257 0 -1256 315 0 c173 0 315 3 315 6 0 3 -16 29 -35 58 -20 31 -35 66 -35
83 0 29 -32 131 -65 208 -16 37 -17 67 -10 345 5 168 9 331 9 363 1 31 4 57 7
57 3 0 13 -16 22 -36 34 -70 69 -11 49 84 -7 32 -12 77 -12 100 0 60 -93 274
-134 308 -23 20 -32 37 -36 73 -4 38 -9 47 -27 49 -26 4 -28 10 -9 35 11 15
19 16 34 8 21 -11 44 3 36 23 -2 6 6 38 19 70 21 56 25 60 73 76 118 40 204
121 204 192 0 52 -58 115 -140 152 -32 15 -62 31 -65 36 -4 6 -21 10 -38 10
-58 0 -106 19 -121 48 -22 42 -107 118 -151 137 -22 9 -77 19 -122 22 l-83 6
0 543 0 544 -1200 0 -1200 0 0 -1800z m2996 368 c26 -18 52 -41 58 -50 19 -31
-9 -65 -83 -103 -39 -19 -72 -35 -74 -35 -8 0 5 155 15 188 5 17 15 32 23 32
7 0 34 -15 61 -32z m-166 -1614 c0 -21 -4 -33 -10 -29 -17 10 -11 65 7 65 2 0
3 -16 3 -36z"/>
<path d="M1823 2194 c-53 -26 -88 -65 -79 -89 6 -15 84 -75 98 -75 4 0 8 11 8
25 0 14 4 25 9 25 18 0 49 65 47 100 -1 44 -16 47 -83 14z"/>
<path d="M1990 652 c0 -45 3 -82 6 -82 9 0 43 43 44 55 0 6 -11 32 -25 59
l-25 49 0 -81z"/>
</g>
</svg>
