<?xml version="1.0" standalone="no"?>
<!DOCTYPE svg PUBLIC "-//W3C//DTD SVG 20010904//EN"
 "http://www.w3.org/TR/2001/REC-SVG-20010904/DTD/svg10.dtd">
<svg version="1.0" xmlns="http://www.w3.org/2000/svg"
 width="480.000000pt" height="360.000000pt" viewBox="0 0 480.000000 360.000000"
 preserveAspectRatio="xMidYMid meet">
<metadata>
Created by potrace 1.16, written by Peter Selinger 2001-2019
</metadata>
<rect width="1" height="360" fill="#000000"/>
<rect x="479" width="1" height="360" fill="#000000"/>
<rect width="480" height="1" fill="#000000"/>
<rect y="359" width="480" height="1" fill="#000000"/>
<g transform="translate(0.000000,360.000000) scale(0.100000,-0.100000)"
fill="#000000" stroke="none">
<path d="M0 1800 l0 -1800 2400 0 2400 0 0 1800 0 1800 -2400 0 -2400 0 0
-1800z m2558 972 c28 -17 71 -40 96 -52 25 -11 46 -25 46 -31 0 -15 -95 -6
-138 12 -40 17 -52 5 -52 -52 0 -34 2 -36 58 -53 72 -23 128 -52 139 -71 5 -8
17 -16 28 -18 52 -10 119 -43 106 -52 -9 -5 -9 -10 0 -21 9 -11 8 -14 -2 -14
-8 0 -20 -9 -27 -21 -9 -14 -20 -19 -34 -16 -26 7 -69 -9 -66 -25 2 -8 -21
-16 -67 -23 -66 -10 -70 -12 -68 -35 2 -34 20 -80 32 -80 5 0 19 16 31 35 25
40 48 55 83 55 27 0 37 -28 37 -101 0 -52 20 -59 159 -59 96 0 109 -2 113 -18
3 -10 -4 -30 -16 -44 l-21 -26 -90 14 c-49 7 -107 16 -129 20 -31 6 -38 4 -34
-7 7 -22 67 -38 145 -38 43 -1 73 -5 75 -12 3 -8 39 -5 123 9 155 27 360 34
360 12 0 -8 8 -14 18 -14 13 1 15 -4 11 -22 -5 -19 -1 -26 20 -34 14 -5 26
-16 26 -24 0 -9 7 -12 20 -9 12 3 20 0 20 -7 0 -7 7 -10 15 -6 9 3 15 0 15 -9
0 -9 10 -15 23 -15 20 -1 20 -2 5 -11 -19 -11 -25 -39 -8 -39 12 0 10 -59 -2
-66 -4 -3 -4 -12 -1 -21 4 -11 3 -14 -5 -9 -8 4 -10 2 -6 -7 8 -22 -24 -29
-56 -12 -37 19 -39 19 -33 -3 3 -13 -6 -23 -35 -37 -35 -17 -38 -21 -23 -33
14 -12 13 -12 -6 -7 -14 4 -23 2 -23 -5 0 -6 -18 -1 -41 10 -48 25 -64 20 -20
-6 17 -10 31 -22 31 -27 0 -5 -15 1 -32 13 -67 44 -121 61 -270 86 -110 18
-170 33 -213 53 -63 31 -165 51 -165 33 0 -6 5 -33 11 -60 16 -66 6 -102 -26
-102 -15 0 -29 8 -36 21 -11 21 -12 21 -26 -10 -30 -61 -63 -28 -63 62 l0 54
-47 7 c-27 4 -89 1 -140 -5 -104 -14 -123 -7 -123 42 0 15 -4 30 -8 33 -15 9
-362 30 -369 22 -11 -10 15 -24 59 -31 41 -7 45 -13 26 -37 -11 -15 -18 -15
-53 -4 -80 26 -251 75 -270 78 -11 1 -32 -6 -48 -16 -26 -18 -28 -18 -47 -1
-11 10 -20 24 -20 31 0 8 -19 15 -47 19 -89 12 -103 16 -123 42 -46 59 -18 64
202 38 71 -8 232 -24 360 -35 l233 -19 36 35 c49 48 123 182 110 198 -6 7 -18
45 -27 84 -15 67 -18 73 -47 80 -17 4 -40 20 -51 36 l-21 28 33 29 c51 46 92
35 92 -26 0 -16 9 -41 20 -55 l20 -25 20 24 c21 25 25 57 11 80 -5 7 -14 10
-21 6 -15 -9 -72 45 -66 62 3 8 -2 13 -13 13 -10 0 -24 7 -31 15 -7 8 -18 15
-25 15 -12 0 -96 44 -132 70 -12 9 -25 29 -29 44 -7 28 -6 28 29 24 l35 -4
-19 24 c-22 28 -24 53 -7 70 9 9 15 9 25 0 8 -6 33 -12 56 -12 44 -1 46 -5 31
-53 -6 -21 -3 -23 31 -23 30 0 43 7 68 36 55 63 83 76 159 71 52 -3 77 -11
116 -35z"/>
<path d="M2367 2161 c-9 -21 -34 -67 -56 -101 -23 -35 -41 -69 -41 -77 0 -30
42 -9 110 55 l72 69 -29 46 c-15 26 -31 47 -34 47 -4 0 -14 -17 -22 -39z"/>
</g>
</svg>
