<?xml version="1.0" standalone="no"?>
<!DOCTYPE svg PUBLIC "-//W3C//DTD SVG 20010904//EN"
 "http://www.w3.org/TR/2001/REC-SVG-20010904/DTD/svg10.dtd">
<svg version="1.0" xmlns="http://www.w3.org/2000/svg"
 width="480.000000pt" height="360.000000pt" viewBox="0 0 480.000000 360.000000"
 preserveAspectRatio="xMidYMid meet">
<metadata>
Created by potrace 1.16, written by Peter Selinger 2001-2019
</metadata>
<rect width="1" height="360" fill="#000000"/>
<rect x="479" width="1" height="360" fill="#000000"/>
<rect width="480" height="1" fill="#000000"/>
<rect y="359" width="480" height="1" fill="#000000"/>
<g transform="translate(0.000000,360.000000) scale(0.100000,-0.100000)"
fill="#000000" stroke="none">
<path d="M3290 3572 c-155 -77 -252 -167 -310 -287 -49 -99 -68 -171 -80 -298
-4 -54 -10 -100 -12 -101 -2 -2 -24 -17 -49 -34 -53 -36 -95 -87 -105 -128
-10 -41 -20 -52 -98 -102 -68 -44 -69 -44 -125 -35 -86 14 -102 7 -124 -57
-32 -92 -9 -200 43 -200 9 0 38 11 65 25 59 29 80 20 72 -32 -6 -38 5 -42 63
-21 33 11 35 10 70 -29 19 -22 47 -62 60 -89 23 -45 28 -49 61 -48 35 1 37 -1
60 -55 21 -48 24 -76 27 -201 10 -392 -56 -732 -210 -1087 l-40 -93 -88 0
c-48 0 -107 -3 -131 -6 l-44 -6 -168 231 -168 232 30 52 c43 77 61 148 68 275
6 105 5 115 -15 141 -15 20 -20 39 -17 62 17 128 39 270 56 361 11 58 19 133
17 165 -3 64 2 61 -87 51 -34 -4 -56 -53 -70 -151 -7 -45 -16 -98 -21 -117 -6
-19 -22 -84 -36 -145 -15 -60 -28 -112 -30 -113 -1 -2 -28 6 -60 17 -63 24
-99 21 -132 -9 -12 -12 -35 -20 -54 -20 -19 0 -49 -11 -72 -26 -32 -22 -42
-24 -62 -16 -18 9 -27 8 -43 -6 -29 -24 -73 -119 -79 -168 -4 -41 -3 -42 32
-55 40 -14 37 -4 56 -174 13 -111 50 -256 82 -319 11 -23 53 -84 92 -136 93
-123 301 -429 352 -518 l19 -33 -43 -122 c-23 -67 -42 -128 -42 -134 0 -10
287 -13 1400 -13 l1400 0 0 1699 0 1699 -62 54 c-35 31 -95 76 -135 102 l-72
46 -593 0 -593 -1 -55 -27z m101 -2304 c-7 -59 -14 -114 -17 -122 -3 -8 -23
-27 -45 -42 -37 -25 -42 -26 -79 -14 -21 7 -42 20 -45 28 -3 8 0 110 7 226
l12 211 89 -89 89 -90 -11 -108z"/>
</g>
</svg>
