<?xml version="1.0" standalone="no"?>
<!DOCTYPE svg PUBLIC "-//W3C//DTD SVG 20010904//EN"
 "http://www.w3.org/TR/2001/REC-SVG-20010904/DTD/svg10.dtd">
<svg version="1.0" xmlns="http://www.w3.org/2000/svg"
 width="480.000000pt" height="360.000000pt" viewBox="0 0 480.000000 360.000000"
 preserveAspectRatio="xMidYMid meet">
<metadata>
Created by potrace 1.16, written by Peter Selinger 2001-2019
</metadata>
<rect width="1" height="360" fill="#000000"/>
<rect x="479" width="1" height="360" fill="#000000"/>
<rect width="480" height="1" fill="#000000"/>
<rect y="359" width="480" height="1" fill="#000000"/>
<g transform="translate(0.000000,360.000000) scale(0.100000,-0.100000)"
fill="#000000" stroke="none">
<path d="M0 1800 l0 -1800 1733 0 1732 0 38 123 c21 67 67 210 102 317 47 143
61 196 52 202 -7 4 -33 11 -59 14 -26 4 -55 15 -64 25 -16 18 -14 23 33 106
60 105 72 140 78 224 3 49 13 82 49 153 57 116 70 183 62 309 -6 97 -31 221
-47 243 -5 6 -64 14 -136 17 -71 4 -177 14 -238 22 -60 9 -201 18 -313 22
-111 3 -205 10 -208 14 -3 5 -38 6 -79 2 -73 -6 -75 -5 -84 20 -5 14 -15 28
-21 32 -5 3 -8 10 -5 15 3 4 -2 10 -10 14 -8 3 -15 12 -15 20 0 11 -14 16 -52
18 -91 5 -67 24 39 31 53 4 101 11 106 16 6 6 5 21 -3 41 -20 48 3 63 25 16 9
-19 32 -44 51 -55 29 -17 41 -19 91 -11 73 12 258 12 428 0 289 -21 400 -23
424 -10 21 11 23 17 19 72 -4 53 -9 65 -35 87 -16 14 -37 31 -47 36 -9 6 -21
26 -25 46 -7 31 -3 49 29 116 22 47 49 88 66 100 l28 21 -18 40 c-27 60 -68
96 -166 148 -49 26 -106 65 -127 86 -37 38 -37 40 -19 54 54 39 174 0 268 -86
50 -45 74 -77 104 -139 21 -45 45 -81 52 -81 16 0 16 1 -11 101 -29 108 -43
129 -112 174 -52 33 -55 37 -55 75 0 34 4 42 31 55 43 23 86 6 146 -58 57 -60
77 -110 96 -242 l13 -89 82 -42 c101 -51 108 -58 133 -106 28 -55 46 -142 64
-318 14 -129 24 -177 61 -285 24 -72 57 -155 74 -185 33 -60 37 -97 16 -138
-11 -23 -10 -40 6 -117 33 -165 33 -572 -1 -583 -6 -2 -11 -27 -11 -58 0 -54
-6 -64 -27 -43 -9 9 -11 6 -7 -12 5 -23 5 -23 -10 -5 -9 11 -16 28 -16 37 0
10 -4 20 -10 24 -5 3 -7 -15 -4 -47 5 -48 4 -51 -10 -34 -23 28 -32 13 -39
-63 -4 -38 -16 -113 -27 -167 -12 -62 -20 -139 -20 -206 l0 -108 300 0 300 0
0 1800 0 1800 -2400 0 -2400 0 0 -1800z"/>
<path d="M3934 598 c-5 -7 -44 -92 -87 -188 -43 -96 -102 -225 -132 -285 -30
-61 -55 -113 -55 -118 0 -4 78 -7 174 -7 l174 0 6 45 c4 24 2 118 -4 207 -6
90 -12 206 -13 258 -2 95 -2 95 -29 98 -14 2 -30 -3 -34 -10z"/>
</g>
</svg>
