<?xml version="1.0" standalone="no"?>
<!DOCTYPE svg PUBLIC "-//W3C//DTD SVG 20010904//EN"
 "http://www.w3.org/TR/2001/REC-SVG-20010904/DTD/svg10.dtd">
<svg version="1.0" xmlns="http://www.w3.org/2000/svg"
 width="480.000000pt" height="360.000000pt" viewBox="0 0 480.000000 360.000000"
 preserveAspectRatio="xMidYMid meet">
<metadata>
Created by potrace 1.16, written by Peter Selinger 2001-2019
</metadata>
<rect width="1" height="360" fill="#000000"/>
<rect x="479" width="1" height="360" fill="#000000"/>
<rect width="480" height="1" fill="#000000"/>
<rect y="359" width="480" height="1" fill="#000000"/>
<g transform="translate(0.000000,360.000000) scale(0.100000,-0.100000)"
fill="#000000" stroke="none">
<path d="M4740 3428 c-11 -18 -20 -39 -20 -47 0 -11 -3 -11 -15 -1 -12 10 -15
9 -15 -6 -1 -16 -3 -15 -15 6 l-13 25 -11 -28 c-6 -16 -11 -34 -11 -41 0 -15
-43 -26 -96 -26 -42 0 -84 -16 -84 -32 0 -7 30 -31 66 -53 l65 -40 -6 -42 c-6
-43 1 -53 23 -31 9 9 12 9 12 0 0 -6 6 -9 14 -6 12 5 13 0 5 -31 -6 -20 -8
-43 -5 -51 3 -8 -8 -38 -25 -67 -58 -98 -221 -337 -230 -337 -17 0 -24 -2 -44
-13 -11 -7 -29 -12 -40 -12 -11 0 -20 -7 -21 -15 0 -8 -2 -30 -2 -47 -2 -43
-36 -64 -108 -68 -31 -2 -58 -5 -60 -7 -2 -2 3 -16 11 -31 15 -29 13 -32 -30
-39 -15 -2 10 -25 95 -86 63 -45 133 -97 154 -115 l39 -33 -22 -83 c-51 -189
-36 -375 41 -521 23 -41 47 -87 55 -102 7 -14 35 -44 61 -67 26 -22 55 -47 65
-56 9 -8 20 -15 25 -16 4 0 13 -6 21 -12 7 -6 20 -12 29 -13 8 -2 20 -10 24
-19 6 -10 17 -14 29 -10 14 5 19 2 19 -14 0 -15 5 -19 18 -15 14 5 14 4 2 -4
-8 -5 -55 -15 -105 -22 -49 -6 -128 -23 -175 -37 -53 -16 -116 -26 -170 -28
-84 -3 -85 -4 -129 -44 -30 -28 -52 -41 -72 -41 -66 0 -144 -57 -163 -118 -5
-15 -31 -35 -74 -57 -37 -19 -91 -48 -119 -65 l-53 -30 -14 33 c-21 51 -53
201 -66 307 -15 128 -32 173 -77 200 l-36 21 6 65 c5 53 4 65 -7 61 -8 -3 -24
2 -36 10 -18 12 -41 15 -116 11 -91 -5 -94 -4 -151 28 -32 18 -65 34 -74 34
-9 0 -67 25 -130 56 -89 44 -130 58 -187 66 -54 6 -78 6 -88 -3 -27 -22 -15
-48 42 -86 30 -21 67 -48 82 -60 27 -21 27 -22 7 -37 -60 -46 -106 -55 -395
-76 -182 -14 -194 -17 -196 -58 -1 -27 3 -33 39 -47 22 -9 84 -27 136 -39 53
-13 179 -46 281 -74 102 -27 213 -56 247 -63 34 -7 60 -16 58 -20 -3 -3 26
-67 64 -142 70 -140 119 -275 166 -457 15 -58 34 -118 42 -133 19 -38 61 -62
173 -98 77 -25 105 -29 145 -24 100 12 237 60 465 162 l124 56 136 2 c126 1
138 0 180 -23 77 -42 79 -46 105 -201 13 -79 29 -167 36 -197 l12 -54 74 0 73
0 0 1700 c0 1505 -2 1704 -15 1730 -9 17 -18 30 -20 30 -3 0 -14 -15 -25 -32z"/>
<path d="M1695 125 c-137 -24 -347 -59 -465 -79 -118 -20 -219 -39 -225 -41
-5 -2 286 -4 647 -4 l657 -1 -16 45 c-18 55 -37 69 -136 100 -106 34 -164 31
-462 -20z"/>
</g>
</svg>
