<?xml version="1.0" standalone="no"?>
<!DOCTYPE svg PUBLIC "-//W3C//DTD SVG 20010904//EN"
 "http://www.w3.org/TR/2001/REC-SVG-20010904/DTD/svg10.dtd">
<svg version="1.0" xmlns="http://www.w3.org/2000/svg"
 width="480.000000pt" height="360.000000pt" viewBox="0 0 480.000000 360.000000"
 preserveAspectRatio="xMidYMid meet">
<metadata>
Created by potrace 1.16, written by Peter Selinger 2001-2019
</metadata>
<rect width="1" height="360" fill="#000000"/>
<rect x="479" width="1" height="360" fill="#000000"/>
<rect width="480" height="1" fill="#000000"/>
<rect y="359" width="480" height="1" fill="#000000"/>
<g transform="translate(0.000000,360.000000) scale(0.100000,-0.100000)"
fill="#000000" stroke="none">
<path d="M1 2123 c1 -1134 4 -1468 12 -1437 7 23 17 48 24 55 6 8 14 32 18 54
4 22 13 64 21 94 15 53 15 54 -9 80 -55 59 -60 98 -17 134 17 14 30 29 30 33
0 3 16 24 35 45 32 36 49 79 25 64 -14 -9 -12 29 4 100 15 64 14 77 -9 68 -19
-7 -19 1 1 39 19 36 35 236 31 376 -3 101 -16 126 -57 115 -27 -7 -59 5 -42
16 10 6 9 14 -5 38 -17 30 -17 31 11 73 30 46 76 159 76 189 0 10 -14 38 -32
62 -57 79 -70 129 -76 284 -10 295 59 408 348 568 186 103 296 127 575 127
l204 0 6 38 c12 66 37 167 45 175 7 8 94 -117 150 -218 19 -33 69 -97 112
-142 90 -94 135 -178 169 -313 12 -47 31 -103 42 -125 12 -22 21 -47 21 -55 1
-8 32 -28 76 -47 62 -27 83 -32 121 -27 41 5 47 4 62 -19 11 -18 22 -24 37
-20 27 7 26 4 -15 -58 -19 -30 -35 -58 -35 -64 -1 -5 -10 -21 -20 -34 -16 -18
-26 -22 -48 -17 -59 14 -57 16 -54 -51 5 -88 -45 -245 -81 -251 -22 -4 -67
-42 -67 -56 0 -6 -11 -16 -25 -23 -21 -9 -25 -9 -25 4 0 12 -3 13 -14 4 -11
-10 -15 -8 -18 6 -2 10 -8 -41 -12 -113 l-8 -131 56 -113 c31 -62 55 -115 52
-117 -2 -3 -42 14 -88 36 -47 23 -94 41 -107 41 -20 0 -21 -4 -16 -37 l6 -38
-17 30 -17 29 -26 -34 c-14 -19 -41 -50 -60 -69 -33 -32 -37 -33 -90 -27 -31
3 -68 9 -83 12 -21 5 -28 3 -28 -9 0 -26 23 -35 135 -57 125 -24 123 -24 305
-81 110 -34 141 -48 168 -75 30 -32 42 -64 24 -64 -5 0 -16 -6 -27 -13 -17
-13 -17 -16 14 -61 18 -26 51 -86 73 -133 l40 -85 49 6 c66 9 74 -7 52 -105
-16 -72 -16 -72 6 -91 13 -10 40 -22 62 -28 23 -7 46 -21 56 -37 16 -24 16
-27 0 -56 -10 -16 -16 -31 -15 -32 2 -1 33 -6 71 -10 63 -6 67 -5 67 14 0 18
6 21 46 21 25 0 77 -5 116 -11 63 -10 73 -9 83 5 16 21 49 20 160 -3 87 -19
90 -19 102 -1 15 21 28 18 177 -31 54 -18 60 -19 76 -4 16 15 25 13 115 -25
75 -31 106 -39 131 -34 27 5 47 -2 115 -41 60 -33 90 -44 107 -40 18 4 42 -8
103 -50 51 -36 86 -54 97 -51 12 4 40 -14 87 -58 38 -35 74 -62 81 -59 6 2 22
-8 35 -23 13 -15 52 -55 87 -90 l63 -64 384 0 385 0 0 1800 0 1800 -1624 0
-1625 0 2 -27 c1 -19 -3 -28 -13 -28 -9 0 -16 11 -18 28 l-3 27 -760 0 -759 0
1 -1477z m1529 1267 c0 -5 -4 -10 -10 -10 -5 0 -10 5 -10 10 0 6 5 10 10 10 6
0 10 -4 10 -10z m2150 -190 c-21 -14 -30 -12 -30 4 0 18 22 27 35 14 6 -6 5
-12 -5 -18z m-212 -1188 c63 -31 71 -41 48 -58 -12 -8 -16 -19 -11 -33 5 -17
0 -21 -30 -27 -51 -9 -105 9 -165 57 -60 48 -62 69 -5 85 52 15 98 8 163 -24z
m112 -41 c0 -12 -20 -25 -27 -18 -7 7 6 27 18 27 5 0 9 -4 9 -9z m-590 -561
c0 -5 -7 -10 -15 -10 -8 0 -15 5 -15 10 0 6 7 10 15 10 8 0 15 -4 15 -10z
m1150 -480 c0 -5 -4 -10 -10 -10 -5 0 -10 5 -10 10 0 6 5 10 10 10 6 0 10 -4
10 -10z m235 -520 c-5 -8 -11 -8 -17 -2 -6 6 -7 16 -3 22 5 8 11 8 17 2 6 -6
7 -16 3 -22z"/>
</g>
</svg>
