<?xml version="1.0" standalone="no"?>
<!DOCTYPE svg PUBLIC "-//W3C//DTD SVG 20010904//EN"
 "http://www.w3.org/TR/2001/REC-SVG-20010904/DTD/svg10.dtd">
<svg version="1.0" xmlns="http://www.w3.org/2000/svg"
 width="480.000000pt" height="360.000000pt" viewBox="0 0 480.000000 360.000000"
 preserveAspectRatio="xMidYMid meet">
<metadata>
Created by potrace 1.16, written by Peter Selinger 2001-2019
</metadata>
<rect width="1" height="360" fill="#000000"/>
<rect x="479" width="1" height="360" fill="#000000"/>
<rect width="480" height="1" fill="#000000"/>
<rect y="359" width="480" height="1" fill="#000000"/>
<g transform="translate(0.000000,360.000000) scale(0.100000,-0.100000)"
fill="#000000" stroke="none">
<path d="M0 3175 c0 -11 9 -26 20 -33 25 -15 25 -4 0 28 -18 23 -20 23 -20 5z"/>
<path d="M2520 2623 c0 -38 -4 -72 -8 -78 -4 -6 -74 -10 -172 -10 -165 0 -165
0 -219 -30 -113 -62 -167 -200 -164 -420 2 -140 24 -238 76 -341 66 -130 148
-183 280 -184 59 0 88 -5 119 -21 59 -30 155 -23 228 17 60 32 159 136 208
217 41 68 86 185 103 272 31 159 -52 348 -176 401 -22 9 -80 27 -130 38 l-90
22 0 79 c0 87 -6 105 -36 105 -17 0 -19 -7 -19 -67z"/>
<path d="M3267 1058 c-10 -7 -54 -62 -100 -122 -45 -61 -86 -109 -92 -108 -5
0 -13 16 -16 34 -15 90 -58 73 -74 -29 -20 -126 -21 -127 -171 -189 -171 -70
-189 -77 -249 -90 -84 -19 -115 -17 -171 8 -44 19 -47 22 -29 32 11 6 34 25
52 42 44 43 46 98 5 137 -15 15 -38 27 -51 27 -41 0 -124 -29 -201 -70 -41
-22 -106 -55 -145 -74 -38 -18 -83 -46 -98 -62 -28 -28 -29 -28 -43 -9 -8 10
-14 24 -14 30 0 7 -8 19 -19 29 -17 16 -37 15 -332 -19 -529 -59 -841 -104
-1238 -181 -151 -28 -201 -35 -220 -27 -15 6 -34 14 -44 18 -16 7 -17 -7 -17
-214 l0 -221 1250 0 c862 0 1250 3 1250 10 0 6 -6 10 -12 9 -26 -3 -39 1 -33
11 3 5 15 10 26 10 10 0 19 7 19 15 0 9 7 18 15 21 19 8 9 24 -15 24 -15 0
-19 9 -22 51 -2 44 0 53 17 60 17 7 17 8 3 8 -10 1 -18 5 -18 10 0 11 34 25
140 56 68 21 185 79 235 117 129 101 128 101 125 6 -4 -107 -2 -132 14 -153
34 -47 65 46 67 202 l1 93 59 77 c32 43 77 101 99 128 53 65 72 101 76 145 2
19 9 59 15 87 9 42 9 56 -1 68 -15 18 -21 19 -43 3z"/>
<path d="M2500 190 c0 -5 9 -10 21 -10 11 0 17 5 14 10 -3 6 -13 10 -21 10 -8
0 -14 -4 -14 -10z"/>
<path d="M2490 136 c0 -9 7 -12 20 -9 11 3 17 9 14 14 -8 14 -34 10 -34 -5z"/>
</g>
</svg>
