<?xml version="1.0" standalone="no"?>
<!DOCTYPE svg PUBLIC "-//W3C//DTD SVG 20010904//EN"
 "http://www.w3.org/TR/2001/REC-SVG-20010904/DTD/svg10.dtd">
<svg version="1.0" xmlns="http://www.w3.org/2000/svg"
 width="480.000000pt" height="360.000000pt" viewBox="0 0 480.000000 360.000000"
 preserveAspectRatio="xMidYMid meet">
<metadata>
Created by potrace 1.16, written by Peter Selinger 2001-2019
</metadata>
<rect width="1" height="360" fill="#000000"/>
<rect x="479" width="1" height="360" fill="#000000"/>
<rect width="480" height="1" fill="#000000"/>
<rect y="359" width="480" height="1" fill="#000000"/>
<g transform="translate(0.000000,360.000000) scale(0.100000,-0.100000)"
fill="#000000" stroke="none">
<path d="M2392 3586 c3 -15 -6 -17 -29 -9 -21 8 -43 -5 -43 -25 0 -11 7 -25
15 -32 8 -7 15 -16 15 -21 0 -15 -113 -119 -122 -113 -16 10 -57 -25 -72 -60
-18 -44 -48 -60 -97 -52 -21 3 -40 2 -44 -4 -3 -5 6 -38 20 -73 41 -105 35
-110 -37 -32 -54 59 -72 63 -57 12 7 -24 6 -34 -5 -42 -10 -7 -13 -28 -12 -65
3 -68 11 -87 46 -105 16 -8 38 -28 49 -44 20 -27 20 -31 6 -97 -23 -109 -18
-193 21 -341 8 -28 14 -54 14 -57 0 -3 -28 -6 -62 -6 -63 0 -100 -10 -191 -49
-26 -11 -49 -19 -51 -18 -2 1 -13 -6 -24 -16 -18 -16 -23 -17 -53 -4 -49 20
-113 -9 -134 -59 -8 -20 -12 -40 -9 -45 3 -6 -8 -24 -25 -41 -32 -33 -51 -81
-51 -133 0 -48 -36 -184 -80 -303 -55 -150 -53 -181 17 -247 68 -64 120 -58
250 27 164 108 237 148 267 148 28 1 61 11 120 35 18 8 19 5 12 -46 -4 -30
-14 -110 -21 -179 -15 -134 -20 -157 -66 -294 -33 -97 -35 -143 -6 -138 10 2
17 -3 17 -12 0 -9 11 -23 25 -32 21 -13 23 -19 14 -36 -6 -11 -9 -32 -6 -46 3
-16 -6 -49 -23 -86 -47 -105 -61 -164 -80 -356 -6 -58 -17 -172 -26 -255 -8
-82 -19 -166 -24 -185 -6 -19 -10 -38 -10 -42 0 -5 313 -8 696 -8 l696 0 -7
28 c-6 27 -101 223 -234 482 -38 74 -86 171 -106 215 -41 88 -118 205 -165
250 -35 33 -36 39 -14 80 9 17 27 57 39 90 13 33 45 112 72 175 l48 115 0 170
0 170 30 -1 c94 -4 130 -17 215 -79 201 -147 257 -175 347 -175 61 0 62 0 131
62 147 131 188 162 289 212 80 40 97 57 115 111 10 32 19 40 44 46 48 9 56 18
49 51 -9 38 16 69 48 59 26 -7 135 -68 158 -88 10 -8 41 -16 70 -19 73 -7 129
24 142 78 10 44 -18 115 -59 147 -44 35 -112 22 -150 -28 -11 -14 -34 -8 -34
10 0 6 5 7 10 4 18 -11 23 25 10 66 -17 52 -40 63 -107 55 l-54 -6 -16 40
c-16 39 -26 45 -71 41 -17 -1 -25 6 -33 29 -12 33 -52 51 -72 31 -6 -6 -14
-32 -17 -58 -6 -51 -24 -69 -28 -27 -3 35 -19 54 -47 54 -24 0 -35 -17 -35
-56 0 -29 -26 -32 -35 -4 -8 25 -50 27 -63 4 -11 -21 -27 -20 -462 30 -374 43
-382 44 -378 58 4 11 179 87 278 120 36 12 75 28 87 35 12 8 35 15 52 15 17 1
28 5 25 10 -3 4 5 8 18 8 13 0 32 7 42 15 11 8 28 15 38 15 23 0 219 87 237
105 22 22 -13 95 -45 95 -13 0 -25 -4 -28 -8 -6 -10 -203 -93 -361 -152 -60
-22 -145 -54 -189 -71 -43 -17 -80 -28 -82 -26 -7 6 8 67 16 67 4 0 15 25 25
56 26 84 4 208 -52 281 -30 39 -26 67 15 115 44 52 65 90 54 97 -6 4 -6 25 1
60 l12 54 -39 33 c-38 33 -39 33 -76 18 -35 -14 -39 -14 -85 11 -26 14 -56 25
-65 25 -9 0 -27 11 -40 25 -25 26 -58 32 -90 15 -14 -7 -32 -1 -82 28 l-65 37
5 47 5 48 -42 0 c-31 0 -41 -4 -39 -14z m1138 -840 c0 -7 -6 -18 -12 -23 -18
-14 -201 -83 -218 -83 -14 1 205 117 223 119 4 1 7 -5 7 -13z m-264 -115 c-6
-9 -46 -22 -46 -15 0 3 10 9 23 14 29 11 29 11 23 1z m-56 -25 c0 -2 -7 -7
-16 -10 -8 -3 -12 -2 -9 4 6 10 25 14 25 6z m-305 -116 c-3 -5 -12 -10 -18
-10 -7 0 -6 4 3 10 19 12 23 12 15 0z m745 -319 c0 -32 -105 -152 -219 -249
l-34 -30 -89 75 c-123 104 -121 109 45 115 72 3 140 9 150 13 9 4 17 17 17 30
0 12 6 27 13 33 10 8 71 25 110 31 4 1 7 -8 7 -18z"/>
</g>
</svg>
