<?xml version="1.0" standalone="no"?>
<!DOCTYPE svg PUBLIC "-//W3C//DTD SVG 20010904//EN"
 "http://www.w3.org/TR/2001/REC-SVG-20010904/DTD/svg10.dtd">
<svg version="1.0" xmlns="http://www.w3.org/2000/svg"
 width="480.000000pt" height="360.000000pt" viewBox="0 0 480.000000 360.000000"
 preserveAspectRatio="xMidYMid meet">
<metadata>
Created by potrace 1.16, written by Peter Selinger 2001-2019
</metadata>
<rect width="1" height="360" fill="#000000"/>
<rect x="479" width="1" height="360" fill="#000000"/>
<rect width="480" height="1" fill="#000000"/>
<rect y="359" width="480" height="1" fill="#000000"/>
<g transform="translate(0.000000,360.000000) scale(0.100000,-0.100000)"
fill="#000000" stroke="none">
<path d="M0 1800 l0 -1800 883 0 882 0 23 60 c21 55 22 66 13 136 -15 105 -14
227 3 304 8 36 20 90 27 121 14 62 7 79 -39 93 -13 4 -24 18 -28 34 -3 15 -12
42 -20 60 -17 39 -6 133 33 282 59 226 81 315 78 318 -1 1 -45 -13 -96 -33
-247 -95 -347 -129 -569 -192 -58 -16 -65 -21 -68 -46 -4 -30 -22 -27 -22 3 0
16 -4 17 -32 9 -80 -22 -127 -9 -190 53 -28 28 -55 23 -63 -13 -6 -25 -1 -38
24 -69 l31 -39 -37 -10 c-36 -9 -303 -55 -508 -87 -102 -16 -283 -18 -305 -4
-25 16 1 30 76 42 38 5 87 19 109 31 31 16 74 23 195 31 l155 11 0 34 c0 29
-4 36 -30 44 -42 14 -45 23 -29 76 22 67 43 189 44 244 0 44 -2 49 -29 58 -16
6 -32 17 -35 25 -7 17 10 54 24 54 18 0 21 40 5 70 -18 36 -14 73 17 132 17
33 39 99 55 166 4 15 0 27 -12 36 -16 11 -16 15 -2 43 9 17 21 59 26 94 12 73
30 94 90 104 53 9 105 -16 122 -58 7 -18 19 -40 27 -50 14 -15 13 -20 -8 -42
-18 -20 -22 -31 -17 -61 4 -21 2 -43 -4 -50 -6 -8 -6 -26 0 -55 6 -24 11 -62
11 -84 1 -35 7 -45 45 -75 23 -19 48 -46 54 -59 18 -37 -7 -67 -63 -75 -28 -5
-46 -12 -46 -20 0 -13 22 -100 54 -218 9 -31 30 -89 46 -130 16 -40 30 -74 30
-75 0 -9 65 0 123 16 83 24 118 54 110 93 -5 25 -3 28 20 28 15 0 32 -9 42
-22 15 -22 14 -23 -16 -29 -17 -4 -39 -15 -48 -24 -15 -16 -14 -17 14 -11 17
4 116 38 220 76 354 128 455 169 416 170 -21 0 -23 3 -16 38 4 20 11 42 16 49
16 19 -10 27 -30 9 -10 -9 -25 -14 -35 -10 -16 6 -18 11 -20 51 -1 19 -32 37
-186 113 -102 51 -190 96 -197 102 -16 13 1 48 22 48 8 0 36 -13 62 -28 49
-29 268 -137 310 -153 15 -6 23 -5 23 3 0 6 8 17 18 24 14 11 15 16 5 31 -30
44 -73 135 -73 154 0 11 11 47 25 80 14 32 28 81 32 107 3 26 12 58 19 72 18
36 154 159 222 200 17 11 32 23 32 28 0 10 -55 52 -69 52 -5 0 -7 -9 -4 -20 6
-22 -11 -28 -23 -8 -5 8 -10 6 -14 -8 -6 -16 -8 -14 -14 14 -4 17 -12 32 -17
32 -6 0 -7 -9 -4 -21 6 -18 5 -19 -14 -8 -40 26 -40 221 0 306 25 52 90 118
143 145 52 26 107 25 167 -5 l48 -23 63 64 c63 63 148 122 179 122 13 0 18
-14 23 -60 7 -62 28 -90 68 -90 10 0 75 -30 145 -66 137 -72 244 -125 335
-168 51 -25 60 -26 95 -16 44 13 74 3 142 -48 28 -21 37 -23 52 -14 29 19 51
15 44 -7 -5 -16 2 -19 47 -25 105 -13 145 -23 174 -44 17 -11 42 -24 57 -27
15 -4 32 -15 37 -24 8 -13 11 -14 19 -2 6 9 18 12 37 7 16 -4 45 -10 64 -15
19 -4 49 -15 67 -24 18 -9 40 -17 50 -17 10 0 27 -10 37 -23 15 -18 28 -21 61
-19 47 4 125 -14 125 -29 0 -20 65 -49 113 -49 36 0 65 -9 120 -38 91 -48 108
-54 182 -61 56 -6 61 -8 75 -38 8 -18 26 -36 40 -41 24 -9 25 -8 22 33 -3 29
1 47 13 58 26 27 35 20 35 -26 0 -64 21 -210 31 -221 5 -6 9 75 9 199 l0 209
-20 -22 c-24 -26 -40 -28 -40 -7 0 8 -9 20 -20 27 -27 17 -25 52 4 71 20 13
27 14 50 2 l26 -14 0 139 0 139 -27 3 c-17 2 -28 9 -28 18 0 9 11 16 28 18
l27 3 0 415 0 414 -660 0 -660 0 99 -117 c139 -165 125 -156 225 -154 l85 2
47 -46 c26 -25 53 -45 60 -45 6 0 19 -28 27 -62 16 -60 15 -64 -3 -83 -19 -19
-20 -19 -51 10 -17 17 -40 47 -52 68 -11 20 -23 36 -26 35 -4 -2 -35 -18 -70
-36 -51 -27 -71 -32 -100 -28 -86 15 -156 61 -330 214 -51 45 -99 82 -105 82
-6 0 -22 -31 -35 -69 -59 -172 -227 -267 -394 -220 -62 17 -138 86 -174 158
-28 55 -33 74 -33 135 1 39 7 89 15 111 8 22 15 41 15 43 0 1 -583 2 -1296 2
-1291 0 -1295 0 -1289 -20 5 -16 2 -20 -14 -20 -12 0 -30 9 -41 20 -11 11 -24
20 -30 20 -7 0 -10 -607 -10 -1800z m1260 1740 c0 -14 -35 -30 -64 -30 -30 0
-36 26 -8 33 32 9 72 7 72 -3z m2845 -130 c0 -36 -29 -33 -33 3 -3 23 0 28 15
25 12 -2 18 -12 18 -28z m-2235 -304 c6 -8 10 -25 8 -37 -3 -21 -3 -21 -27 -2
-16 13 -22 26 -18 36 8 21 21 22 37 3z m2470 -36 c0 -26 -22 -35 -50 -20 -17
9 -19 14 -9 26 18 22 59 18 59 -6z m-1202 -208 c4 -23 -13 -52 -29 -52 -17 0
-30 51 -18 67 17 20 43 12 47 -15z m1359 -43 c8 -8 8 -18 1 -35 -10 -22 -12
-22 -39 -8 -32 16 -35 24 -17 42 15 15 41 15 55 1z m-417 -85 c0 -14 -21 -19
-33 -7 -9 9 13 34 24 27 5 -3 9 -12 9 -20z m-2726 -216 c21 -29 20 -38 -3 -38
-24 0 -45 25 -37 45 8 21 22 19 40 -7z"/>
<path d="M2536 2841 c-2 -3 -14 -37 -25 -76 -23 -75 -45 -115 -62 -115 -6 0
-24 10 -41 21 l-30 22 3 -49 c5 -80 0 -136 -11 -129 -5 3 -10 -2 -11 -12 0
-16 -1 -16 -8 2 -7 18 -9 18 -26 -8 -10 -15 -20 -25 -23 -22 -3 2 -11 0 -19
-6 -10 -9 -13 -8 -14 2 -1 8 -5 3 -9 -11 -8 -24 -8 -24 -9 -2 -1 12 -7 22 -16
22 -8 0 -15 5 -15 12 0 15 -29 -23 -30 -38 -1 -36 147 -17 229 29 52 30 62 32
166 33 93 1 122 5 185 28 41 15 122 40 179 56 57 16 106 31 108 34 7 6 -239
128 -324 161 -38 15 -77 30 -88 35 -26 11 -104 19 -109 11z"/>
<path d="M3040 2524 c-58 -29 -165 -72 -237 -95 -120 -39 -133 -45 -133 -66 0
-13 -6 -23 -14 -23 -7 0 -29 -11 -49 -24 -24 -16 -61 -28 -114 -35 -159 -23
-146 -17 -139 -59 12 -75 25 -220 27 -321 2 -88 0 -104 -14 -113 -15 -8 -25
-58 -11 -58 3 0 24 9 47 19 66 30 119 51 127 51 8 0 40 -73 40 -91 0 -5 -17
-17 -37 -25 -21 -8 -47 -19 -58 -24 -11 -5 -32 -14 -47 -20 -16 -5 -28 -14
-28 -19 0 -14 61 -164 72 -178 6 -7 24 -17 42 -22 17 -5 81 -28 141 -52 61
-23 171 -63 245 -89 111 -38 135 -49 135 -65 0 -18 -7 -20 -65 -19 -64 2 -134
22 -357 102 -46 17 -80 25 -76 18 4 -6 30 -43 58 -81 29 -39 58 -82 65 -95 7
-14 40 -65 72 -113 32 -49 58 -96 58 -106 0 -10 -9 -30 -20 -44 -11 -14 -20
-30 -20 -35 0 -18 -94 -92 -116 -92 -12 0 -27 -7 -35 -16 -7 -8 -30 -24 -50
-35 l-38 -19 41 -117 c38 -111 42 -128 50 -283 8 -126 14 -175 29 -206 10 -23
19 -49 19 -58 0 -15 85 -16 1075 -16 l1075 0 0 939 0 938 -87 33 c-132 50
-367 150 -378 161 -5 5 -15 9 -22 9 -13 0 -189 75 -343 147 -41 19 -111 51
-155 70 -44 19 -131 59 -193 89 -62 30 -118 54 -125 54 -7 0 -41 16 -77 35
-35 19 -69 35 -75 35 -5 0 -21 -12 -34 -25 -23 -25 -44 -26 -35 -1 3 8 -7 18
-24 25 -16 7 -43 25 -61 42 -18 16 -35 28 -39 27 -4 -1 -54 -25 -112 -54z
m1310 -1484 c0 -13 -11 -13 -30 0 -12 8 -11 10 8 10 12 0 22 -4 22 -10z"/>
<path d="M1918 2024 c-38 -30 -68 -57 -68 -60 0 -14 84 -261 93 -271 11 -15
27 -8 27 14 0 8 9 26 20 40 24 31 26 53 4 53 -8 0 -24 5 -35 10 -19 11 -19 12
7 56 21 35 27 62 32 129 2 47 1 85 -4 85 -5 0 -39 -25 -76 -56z"/>
<path d="M637 1164 c-11 -12 -9 -19 18 -48 16 -17 34 -26 55 -26 28 0 30 3 30
35 0 31 -3 35 -27 35 -16 0 -37 3 -48 6 -11 3 -24 2 -28 -2z"/>
<path d="M2245 641 c-5 -18 -12 -20 -48 -15 -23 3 -48 8 -56 10 -7 2 -20 -1
-27 -7 -8 -7 -27 -9 -46 -5 -67 13 -71 12 -79 -19 -5 -16 -20 -122 -34 -235
-14 -113 -28 -213 -31 -223 -3 -10 -2 -47 1 -82 l7 -65 278 0 277 0 6 50 c4
31 1 68 -9 99 -8 27 -30 120 -49 208 -19 87 -44 186 -56 219 -19 59 -22 62
-57 66 -20 3 -44 8 -54 12 -11 5 -18 1 -23 -13z"/>
</g>
</svg>
