<?xml version="1.0" standalone="no"?>
<!DOCTYPE svg PUBLIC "-//W3C//DTD SVG 20010904//EN"
 "http://www.w3.org/TR/2001/REC-SVG-20010904/DTD/svg10.dtd">
<svg version="1.0" xmlns="http://www.w3.org/2000/svg"
 width="480.000000pt" height="360.000000pt" viewBox="0 0 480.000000 360.000000"
 preserveAspectRatio="xMidYMid meet">
<metadata>
Created by potrace 1.16, written by Peter Selinger 2001-2019
</metadata>
<rect width="1" height="360" fill="#000000"/>
<rect x="479" width="1" height="360" fill="#000000"/>
<rect width="480" height="1" fill="#000000"/>
<rect y="359" width="480" height="1" fill="#000000"/>
<g transform="translate(0.000000,360.000000) scale(0.100000,-0.100000)"
fill="#000000" stroke="none">
<path d="M3565 3300 c-42 -9 -146 -60 -180 -90 -11 -10 -40 -30 -64 -46 -89
-58 -81 -58 -127 -10 -24 25 -74 60 -120 82 l-78 39 -166 -1 c-209 -1 -415
-25 -486 -58 -74 -34 -139 -98 -173 -170 -49 -102 -69 -261 -47 -368 8 -37 6
-40 -53 -98 -46 -45 -69 -60 -90 -60 -40 0 -55 -20 -40 -54 10 -21 9 -29 -4
-44 -24 -26 -21 -37 11 -53 15 -8 60 -36 99 -63 70 -47 73 -48 97 -32 39 25
48 21 40 -21 -7 -37 -6 -38 13 -20 27 23 33 22 33 -9 0 -36 -58 -151 -88 -175
-27 -21 -25 -22 31 -19 42 2 45 -7 26 -73 -6 -22 -7 -42 -4 -45 4 -4 24 12 44
35 l38 42 27 -41 c15 -23 25 -47 22 -55 -3 -7 -2 -13 2 -13 15 0 32 24 32 45
1 22 -2 24 70 -65 31 -39 43 -38 36 3 -7 35 -10 37 37 -28 13 -17 17 -17 32
-5 12 10 15 23 11 49 -4 24 -2 31 5 24 6 -6 13 -29 16 -51 7 -52 -4 -58 -154
-77 -150 -20 -202 -44 -275 -128 -78 -89 -139 -175 -167 -235 -24 -52 -25 -52
-71 -52 -105 0 -211 51 -359 175 -47 39 -106 85 -131 102 -50 34 -182 103
-197 103 -6 0 -22 9 -37 21 -19 15 -26 30 -26 55 0 42 -22 54 -52 28 -11 -11
-60 -71 -109 -135 -155 -205 -317 -355 -614 -569 -65 -47 -135 -99 -154 -117
-32 -28 -34 -32 -18 -39 10 -4 85 5 165 20 81 15 160 29 175 31 17 3 72 -10
134 -31 153 -51 158 -49 242 105 24 45 52 83 63 87 26 8 54 -19 85 -80 24 -47
26 -49 39 -31 8 10 14 28 14 40 0 12 6 30 14 40 13 18 15 18 56 -4 89 -46 160
-124 160 -176 0 -22 30 -18 70 9 57 38 154 69 199 63 42 -5 99 -40 171 -106
54 -49 68 -48 148 13 31 24 60 42 64 40 4 -3 -8 -46 -26 -97 -18 -51 -39 -124
-46 -164 -15 -85 -6 -119 44 -155 94 -70 176 -64 215 16 l20 41 1 -58 c0 -85
-35 -208 -87 -306 -25 -47 -52 -94 -60 -103 -18 -20 -34 -87 -27 -110 3 -9 19
-21 36 -27 21 -7 28 -15 24 -26 -5 -13 58 -15 544 -15 303 0 550 3 550 6 0 4
-10 22 -21 41 l-21 34 26 49 26 48 -25 49 c-14 26 -40 60 -57 74 -29 24 -31
31 -30 84 1 32 3 60 5 62 3 2 29 8 58 12 82 14 108 29 119 70 5 20 14 113 20
206 10 163 11 171 35 190 14 12 25 26 25 32 0 6 14 13 30 17 37 7 38 19 5 58
-33 39 -32 66 3 79 72 29 260 -68 529 -273 58 -44 121 -84 140 -90 30 -8 39
-6 82 26 27 20 74 48 106 62 86 40 143 25 283 -72 71 -50 108 -56 121 -21 13
32 49 63 104 87 l47 21 0 355 0 355 -22 -7 c-71 -21 -158 -64 -292 -143 -279
-164 -366 -184 -616 -141 -158 27 -188 27 -200 -5 -5 -14 -18 -25 -28 -25 -22
0 -133 38 -148 51 -6 5 -15 33 -18 62 -9 69 -59 217 -90 265 -30 49 -86 74
-226 102 -97 19 -220 66 -234 88 -3 5 1 27 8 48 11 29 15 33 15 17 1 -28 17
-30 26 -4 4 13 12 17 31 13 17 -3 29 1 38 13 12 17 14 16 20 -9 6 -23 9 -25
26 -16 11 6 20 18 20 27 0 15 2 15 18 0 23 -21 40 -7 71 61 14 28 27 52 31 52
4 0 15 -9 25 -20 14 -15 21 -17 32 -9 7 6 13 18 13 25 0 18 14 18 49 -1 16 -8
31 -12 34 -8 3 3 -7 29 -24 58 l-30 53 45 6 45 7 -59 59 -59 59 31 70 c19 41
40 73 50 77 23 7 44 40 52 82 6 34 -1 45 -55 87 -27 22 -64 73 -57 80 2 2 26
-3 53 -12 70 -23 82 -28 150 -58 72 -33 83 -28 108 46 18 52 18 102 1 170 -6
25 -4 27 33 28 50 1 89 7 141 20 51 14 56 41 15 68 -32 20 -41 30 -87 98 -51
75 -86 170 -86 231 0 48 -17 86 -38 83 -4 -1 -25 -5 -47 -9z"/>
</g>
</svg>
