<?xml version="1.0" standalone="no"?>
<!DOCTYPE svg PUBLIC "-//W3C//DTD SVG 20010904//EN"
 "http://www.w3.org/TR/2001/REC-SVG-20010904/DTD/svg10.dtd">
<svg version="1.0" xmlns="http://www.w3.org/2000/svg"
 width="480.000000pt" height="360.000000pt" viewBox="0 0 480.000000 360.000000"
 preserveAspectRatio="xMidYMid meet">
<metadata>
Created by potrace 1.16, written by Peter Selinger 2001-2019
</metadata>
<rect width="1" height="360" fill="#000000"/>
<rect x="479" width="1" height="360" fill="#000000"/>
<rect width="480" height="1" fill="#000000"/>
<rect y="359" width="480" height="1" fill="#000000"/>
<g transform="translate(0.000000,360.000000) scale(0.100000,-0.100000)"
fill="#000000" stroke="none">
<path d="M0 1800 l0 -1800 2400 0 2400 0 0 1800 0 1800 -1051 0 -1051 0 7 -47
c8 -63 -10 -204 -34 -269 -27 -70 -70 -141 -151 -249 -81 -108 -100 -143 -109
-204 l-7 -46 -17 50 c-10 28 -30 68 -45 91 -15 23 -63 94 -107 160 -139 207
-173 301 -163 445 l5 69 -1038 0 -1039 0 0 -1800z m2440 846 c0 -5 12 -20 28
-35 l27 -25 -30 -6 c-21 -5 -9 -8 43 -11 74 -5 74 -5 120 -55 26 -28 58 -64
72 -80 24 -28 31 -31 143 -42 170 -18 281 -65 302 -128 6 -17 22 -45 37 -63
26 -30 27 -37 22 -89 -7 -61 -23 -100 -49 -122 -18 -15 -71 -16 -88 -2 -32 27
-49 17 -81 -43 -61 -114 -153 -148 -290 -107 -56 17 -68 18 -73 6 -7 -20 16
-111 33 -125 9 -7 12 -20 8 -31 -9 -29 23 -105 46 -111 24 -6 40 -45 40 -98 0
-73 -33 -102 -64 -57 l-16 22 -1 -29 c-1 -29 -1 -29 -8 -5 l-7 25 -6 -27 c-11
-56 76 -252 184 -412 34 -50 75 -117 91 -150 25 -52 27 -60 14 -73 -10 -10
-13 -27 -10 -53 l5 -37 -48 -12 c-33 -9 -59 -24 -80 -47 -23 -25 -40 -34 -63
-34 -20 0 -51 -13 -82 -35 -28 -19 -60 -35 -71 -35 -17 0 -19 -4 -13 -27 4
-16 8 -48 9 -73 1 -43 -1 -45 -28 -48 -30 -4 -92 24 -100 44 -2 6 9 24 25 40
29 27 35 48 23 78 -9 23 -139 23 -148 0 -12 -30 -6 -53 19 -78 14 -14 25 -30
25 -36 0 -18 -64 -51 -95 -48 l-30 3 1 112 1 112 -46 0 c-39 0 -91 5 -98 10
-1 0 3 16 8 33 8 28 6 35 -11 48 -20 15 -20 15 4 90 13 41 40 119 60 174 20
54 38 117 41 140 2 22 8 56 14 74 6 19 6 32 0 32 -19 0 -22 51 -3 71 14 16 19
38 20 92 1 40 6 96 11 125 10 50 9 56 -14 82 -20 24 -23 36 -17 66 6 31 4 36
-8 31 -9 -3 -21 0 -27 6 -18 18 -13 45 9 52 24 8 25 14 4 43 -20 29 -55 28
-84 -3 -33 -35 -82 -49 -123 -36 -25 8 -39 23 -55 56 -15 31 -28 45 -42 45
-24 0 -25 15 -5 63 8 20 15 49 15 64 0 94 81 193 227 278 45 26 85 55 87 64 3
9 10 45 16 81 16 88 33 116 90 148 46 25 70 52 35 38 -16 -6 -22 24 -7 38 4 4
7 18 8 29 0 12 1 36 2 52 l2 30 25 -30 c13 -16 24 -34 25 -39z"/>
<path d="M3105 2111 c-76 -46 -83 -77 -24 -100 59 -23 73 -15 94 50 15 43 15
53 4 60 -21 13 -41 11 -74 -10z"/>
<path d="M2861 1965 c-70 -13 -201 -67 -201 -84 0 -13 104 -41 152 -41 34 0
55 7 85 29 35 25 83 86 83 105 0 9 -34 6 -119 -9z"/>
<path d="M1950 1855 c0 -19 44 -87 65 -101 22 -14 30 -15 58 -4 17 8 40 20 50
28 16 15 16 16 0 35 -29 32 -69 47 -123 47 -27 0 -50 -2 -50 -5z"/>
</g>
</svg>
