<?xml version="1.0" standalone="no"?>
<!DOCTYPE svg PUBLIC "-//W3C//DTD SVG 20010904//EN"
 "http://www.w3.org/TR/2001/REC-SVG-20010904/DTD/svg10.dtd">
<svg version="1.0" xmlns="http://www.w3.org/2000/svg"
 width="480.000000pt" height="360.000000pt" viewBox="0 0 480.000000 360.000000"
 preserveAspectRatio="xMidYMid meet">
<metadata>
Created by potrace 1.16, written by Peter Selinger 2001-2019
</metadata>
<rect width="1" height="360" fill="#000000"/>
<rect x="479" width="1" height="360" fill="#000000"/>
<rect width="480" height="1" fill="#000000"/>
<rect y="359" width="480" height="1" fill="#000000"/>
<g transform="translate(0.000000,360.000000) scale(0.100000,-0.100000)"
fill="#000000" stroke="none">
<path d="M0 1800 l0 -1800 2400 0 2400 0 0 1800 0 1800 -2400 0 -2400 0 0
-1800z m2280 1001 c0 -6 17 -11 38 -13 27 -2 36 -7 33 -18 -2 -8 -6 -27 -9
-42 -4 -27 -2 -28 34 -28 30 0 46 7 76 37 32 31 45 37 92 41 81 7 117 -4 188
-52 35 -24 79 -51 98 -61 l35 -18 -29 -8 c-19 -5 -43 -3 -70 7 -56 21 -93 28
-99 17 -3 -4 -8 -24 -12 -44 l-7 -37 57 -18 c41 -12 71 -31 105 -64 27 -26 61
-50 75 -54 14 -4 23 -11 20 -16 -3 -6 1 -10 10 -10 9 0 23 -7 32 -15 8 -8 19
-13 24 -10 5 4 9 1 9 -4 0 -6 -12 -11 -27 -11 -25 -1 -26 -2 -10 -14 20 -16
23 -28 4 -20 -8 3 -19 -2 -26 -10 -10 -12 -24 -14 -57 -9 -35 5 -44 3 -42 -8
2 -10 -7 -14 -35 -13 -34 1 -36 0 -20 -13 17 -14 17 -14 0 -9 -72 23 -78 19
-56 -43 14 -39 29 -39 51 -1 10 17 34 38 55 46 34 15 38 15 50 -2 7 -10 13
-44 13 -76 0 -69 4 -71 115 -82 132 -13 152 -17 152 -33 0 -13 -13 -14 -86 -9
l-86 7 68 -32 69 -33 81 13 c180 28 377 26 377 -5 0 -8 7 -14 16 -14 8 0 12
-5 9 -10 -9 -15 4 -50 20 -50 7 0 15 -6 18 -14 4 -9 15 -12 34 -8 15 2 25 1
21 -3 -4 -4 2 -16 13 -26 12 -10 18 -23 14 -29 -4 -6 -3 -19 1 -28 13 -31 12
-42 -4 -42 -10 0 -13 -3 -7 -8 14 -9 17 -52 4 -52 -6 0 -8 -4 -5 -9 8 -13 -16
-20 -47 -14 -17 3 -39 -3 -64 -18 -21 -13 -41 -23 -45 -21 -13 4 -9 -16 5 -21
6 -3 -5 -4 -26 -2 -21 1 -43 7 -50 14 -6 6 -18 11 -26 11 -9 0 -1 -12 19 -30
19 -16 30 -29 23 -30 -6 0 -15 4 -18 10 -3 5 -26 23 -50 40 -37 26 -67 34
-190 55 -178 30 -191 33 -235 55 -19 10 -66 21 -104 25 -64 6 -68 6 -62 -12 4
-10 12 -37 19 -61 10 -38 9 -44 -9 -63 -25 -24 -51 -17 -66 20 l-11 26 -9 -33
c-20 -73 -71 -42 -67 40 2 26 0 51 -4 55 -17 16 -68 18 -193 8 -85 -7 -93 -6
-102 12 -6 10 -10 27 -9 38 2 24 -34 30 -268 45 -93 6 -185 13 -202 16 -58 9
-35 -12 30 -27 37 -9 61 -20 59 -27 -1 -7 18 -22 43 -34 48 -23 49 -25 36 -47
-7 -11 -21 -6 -72 22 -35 19 -106 51 -157 72 -88 35 -95 36 -112 20 -11 -10
-24 -14 -31 -9 -8 4 -10 3 -5 -4 4 -7 1 -12 -9 -12 -9 0 -22 13 -28 30 -12 32
-18 35 -99 45 -35 4 -53 13 -68 32 -35 45 -23 64 35 57 110 -14 438 -46 580
-58 l170 -14 28 26 c15 14 48 67 73 118 43 86 45 93 31 115 -8 13 -18 42 -22
64 -10 57 -21 72 -65 95 -22 11 -40 22 -40 24 0 3 -3 11 -6 19 -7 19 44 67 71
67 30 0 45 -19 45 -56 0 -18 10 -50 23 -73 22 -39 37 -44 37 -14 0 8 9 27 21
42 18 25 19 31 8 50 -8 11 -24 21 -36 21 -22 0 -63 46 -57 65 2 6 -32 32 -75
58 -92 56 -134 97 -129 124 3 13 12 18 35 17 l32 -2 -21 29 c-21 28 -21 29 -3
49 19 21 45 27 45 11z"/>
<path d="M2477 2143 c-15 -32 -40 -82 -57 -112 -47 -83 -28 -87 73 -14 26 20
54 48 63 64 14 28 13 31 -16 74 -17 25 -32 45 -34 45 -1 0 -15 -26 -29 -57z"/>
<path d="M2856 2072 c-8 -14 100 -54 133 -49 23 3 21 6 -24 26 -62 28 -101 36
-109 23z"/>
</g>
</svg>
