<?xml version="1.0" standalone="no"?>
<!DOCTYPE svg PUBLIC "-//W3C//DTD SVG 20010904//EN"
 "http://www.w3.org/TR/2001/REC-SVG-20010904/DTD/svg10.dtd">
<svg version="1.0" xmlns="http://www.w3.org/2000/svg"
 width="480.000000pt" height="360.000000pt" viewBox="0 0 480.000000 360.000000"
 preserveAspectRatio="xMidYMid meet">
<metadata>
Created by potrace 1.16, written by Peter Selinger 2001-2019
</metadata>
<rect width="1" height="360" fill="#000000"/>
<rect x="479" width="1" height="360" fill="#000000"/>
<rect width="480" height="1" fill="#000000"/>
<rect y="359" width="480" height="1" fill="#000000"/>
<g transform="translate(0.000000,360.000000) scale(0.100000,-0.100000)"
fill="#000000" stroke="none">
<path d="M0 2536 c0 -936 2 -1065 15 -1070 19 -7 19 -46 0 -72 -12 -16 -14
-118 -15 -706 l0 -688 681 0 c645 0 681 1 674 18 -15 33 -17 80 -4 87 18 12
59 -40 59 -76 l0 -29 581 0 581 0 44 30 c44 29 59 23 27 -12 -16 -17 18 -18
1070 -18 l1087 0 0 370 c0 303 -2 370 -13 370 -26 0 -50 40 -55 88 -5 52 24
127 53 139 13 4 15 178 15 1319 l0 1314 -714 0 -715 0 -3 -22 c-2 -17 -11 -24
-30 -26 -16 -2 -28 -8 -28 -14 0 -6 -6 -5 -16 3 -9 7 -14 22 -11 36 l4 23
-1108 0 c-1073 0 -1109 -1 -1109 -19 0 -44 -83 -96 -119 -74 -22 14 -25 47 -6
63 8 7 15 16 15 21 0 5 -65 9 -145 9 l-146 0 16 -31 c15 -28 15 -34 0 -80 -9
-27 -21 -49 -25 -49 -14 0 -100 93 -100 108 0 7 5 22 10 33 10 19 4 19 -280
19 l-290 0 0 -1064z m1533 984 c-46 -41 -104 -55 -144 -35 -17 9 -28 19 -25
22 11 11 132 42 166 42 l35 0 -32 -29z m183 22 c34 -23 18 -77 -30 -97 -44
-18 -62 -12 -75 27 -13 36 -14 34 31 58 37 20 58 23 74 12z m1479 -143 c25
-23 45 -47 45 -53 0 -20 -84 -96 -105 -96 -11 1 -29 15 -41 34 -20 31 -20 35
-5 72 19 47 43 84 54 84 4 0 28 -19 52 -41z m-2065 -119 c0 -13 -34 -30 -59
-30 -28 0 -72 21 -65 31 7 12 124 11 124 -1z m-310 -26 c0 -9 -12 -14 -35 -14
-31 0 -43 8 -31 21 12 11 66 5 66 -7z m1150 -232 c0 -11 -50 -57 -77 -71 -26
-13 -73 -15 -73 -2 0 4 17 20 38 34 56 39 112 58 112 39z m1290 -135 c-29 -27
-114 -77 -129 -77 -19 0 -12 26 12 48 22 21 127 64 137 55 2 -2 -7 -14 -20
-26z m-2174 -269 c10 -16 -25 -38 -63 -38 -25 0 -31 3 -26 16 11 28 75 45 89
22z m937 -25 c18 -11 4 -34 -31 -52 -52 -26 -132 -11 -132 25 0 24 59 45 110
38 25 -3 48 -8 53 -11z m-1740 -70 c27 -13 47 -48 47 -79 0 -9 -10 -14 -27
-14 -19 0 -39 13 -70 46 -53 58 -56 78 -10 69 17 -4 45 -14 60 -22z m3707
-162 c0 -13 -43 -39 -76 -46 l-29 -7 33 31 c30 29 72 42 72 22z m-1880 -565
c0 -24 -25 -54 -37 -43 -8 8 17 67 28 67 5 0 9 -11 9 -24z m2325 -16 c3 -5 -9
-16 -26 -25 -17 -9 -56 -37 -87 -62 -92 -75 -137 -85 -88 -20 34 44 93 85 148
102 24 8 44 14 45 14 1 1 4 -3 8 -9z m-2048 -237 c-1 -83 -6 -142 -11 -140 -6
2 -19 16 -30 31 -29 39 -30 182 -2 245 18 39 21 41 33 25 9 -12 12 -57 10
-161z m-2317 116 c15 -28 12 -69 -5 -69 -17 0 -55 35 -55 51 0 44 40 56 60 18z
m1804 10 c14 -11 26 -24 26 -29 0 -12 -37 -31 -79 -41 -31 -7 -38 -4 -67 27
-46 48 -37 64 36 64 43 0 64 -5 84 -21z m126 -74 c33 -54 19 -62 -17 -11 -22
31 -28 46 -19 46 8 0 24 -16 36 -35z m-110 -159 c0 -20 -56 -86 -95 -113 -19
-13 -35 -21 -35 -18 0 12 50 82 80 113 35 34 50 40 50 18z m-1430 -38 c39 -64
13 -113 -36 -68 -24 23 -30 53 -18 84 10 26 33 19 54 -16z m3670 8 c0 -21 -95
-104 -127 -111 -15 -4 -34 -8 -40 -11 -20 -6 -53 10 -45 21 42 62 212 142 212
101z m-2114 -53 c-19 -79 -50 -173 -57 -173 -25 0 0 119 36 174 22 33 29 33
21 -1z m805 -239 c32 -30 56 -54 53 -54 -28 0 -154 100 -154 122 0 15 41 -12
101 -68z m-1594 41 c32 -22 58 -64 46 -76 -22 -22 -133 55 -133 93 0 14 57 2
87 -17z m2649 -78 c-7 -72 -36 -178 -61 -227 l-17 -34 -15 29 c-37 69 33 295
90 295 6 0 7 -25 3 -63z m-2735 -25 c28 -23 20 -52 -15 -52 -30 0 -82 42 -72
58 11 18 61 14 87 -6z m363 -51 c9 -14 -19 -32 -76 -47 -68 -18 -112 -18 -128
0 -10 13 -3 17 42 30 83 24 154 31 162 17z m2301 -256 c37 -16 38 -18 20 -31
-27 -20 -113 -17 -162 6 -49 22 -52 27 -20 40 31 14 114 6 162 -15z m-1263
-22 c36 -10 31 -28 -5 -24 -41 4 -100 26 -104 38 -4 10 45 4 109 -14z m-500
-3 c21 -6 40 -15 43 -20 11 -18 -53 -10 -76 10 -27 22 -20 24 33 10z m1752
-90 c44 -31 33 -45 -32 -45 -51 0 -139 46 -126 66 12 20 119 5 158 -21z
m-2454 -159 c-25 -14 -70 -22 -70 -13 0 16 13 22 49 22 25 -1 31 -3 21 -9z
m-772 -30 c22 -24 37 -29 85 -33 46 -4 64 -10 84 -31 14 -14 23 -32 20 -39 -6
-17 -147 -78 -180 -78 -29 0 -112 41 -111 55 1 6 27 22 58 38 l57 27 -25 31
c-24 28 -34 59 -20 59 3 0 17 -13 32 -29z m3500 -30 c49 -25 80 -59 61 -66
-47 -17 -118 -35 -139 -35 -33 0 -105 42 -105 60 0 20 74 60 113 60 18 0 49
-9 70 -19z m-2453 -113 c14 -21 14 -24 -1 -35 -27 -20 -174 3 -174 27 0 14 53
28 107 29 43 1 55 -3 68 -21z m682 -95 c3 -46 0 -65 -16 -90 -26 -41 -38 -42
-46 -4 -13 60 -8 109 15 141 29 41 43 28 47 -47z"/>
</g>
</svg>
