<?xml version="1.0" standalone="no"?>
<!DOCTYPE svg PUBLIC "-//W3C//DTD SVG 20010904//EN"
 "http://www.w3.org/TR/2001/REC-SVG-20010904/DTD/svg10.dtd">
<svg version="1.0" xmlns="http://www.w3.org/2000/svg"
 width="480.000000pt" height="360.000000pt" viewBox="0 0 480.000000 360.000000"
 preserveAspectRatio="xMidYMid meet">
<metadata>
Created by potrace 1.16, written by Peter Selinger 2001-2019
</metadata>
<rect width="1" height="360" fill="#000000"/>
<rect x="479" width="1" height="360" fill="#000000"/>
<rect width="480" height="1" fill="#000000"/>
<rect y="359" width="480" height="1" fill="#000000"/>
<g transform="translate(0.000000,360.000000) scale(0.100000,-0.100000)"
fill="#000000" stroke="none">
<path d="M0 1800 l0 -1800 2400 0 2400 0 0 1800 0 1800 -1037 0 -1038 0 0
-108 c-1 -175 -51 -292 -200 -467 -82 -97 -104 -135 -113 -195 l-9 -55 -11 41
c-7 23 -55 102 -108 175 -213 295 -239 352 -239 512 l1 97 -1023 0 -1023 0 0
-1800z m2430 832 c1 -4 13 -21 28 -38 20 -23 38 -33 70 -37 57 -7 83 -26 134
-95 23 -31 46 -60 51 -63 5 -3 45 -9 90 -12 82 -6 221 -44 287 -77 57 -29 68
-48 76 -131 9 -103 -7 -166 -53 -213 -42 -42 -75 -46 -127 -15 -19 11 -40 18
-46 14 -6 -3 -26 -30 -44 -59 -65 -102 -172 -150 -260 -116 -31 11 -33 2 -9
-43 9 -18 18 -52 18 -77 1 -25 9 -60 19 -78 13 -26 21 -31 39 -27 48 12 66
-102 24 -151 -28 -32 -52 -28 -68 13 -6 15 -19 46 -29 68 -10 22 -22 49 -27
60 -6 15 -8 10 -11 -22 -5 -65 74 -289 173 -488 93 -189 120 -277 89 -299 -13
-10 -15 -21 -11 -44 7 -35 4 -36 -76 -48 -33 -4 -60 -17 -88 -40 -23 -19 -52
-34 -65 -34 -19 0 -24 -5 -24 -25 0 -14 -5 -25 -11 -25 -7 0 -9 -12 -5 -32 17
-99 18 -109 6 -123 -16 -20 -41 -19 -85 2 -43 21 -47 54 -9 79 37 25 30 68
-11 72 -16 1 -47 10 -68 19 -20 9 -40 14 -43 10 -3 -3 -8 -24 -11 -46 -5 -36
-2 -44 21 -62 14 -11 26 -27 26 -35 0 -18 -75 -56 -103 -52 -21 3 -22 8 -22
100 0 53 -2 98 -5 100 -3 2 -21 14 -40 28 -20 14 -57 27 -89 31 -66 9 -75 17
-61 55 9 23 8 31 -4 40 -9 6 -16 17 -16 23 0 7 32 76 70 154 75 152 81 172 51
162 -18 -5 -19 -3 -11 25 5 18 5 30 -1 30 -5 0 -9 9 -9 20 0 11 -5 20 -10 20
-6 0 -4 13 5 30 23 44 18 59 -10 27 -27 -31 -40 -36 -26 -9 5 9 7 29 4 43 -3
15 6 49 21 84 16 34 24 66 20 78 -6 20 -1 35 41 117 24 49 41 155 26 165 -5 3
-12 1 -16 -5 -10 -16 -25 -1 -25 25 0 26 -63 85 -90 85 -9 0 -31 -11 -50 -25
-58 -43 -140 -29 -140 23 0 15 -7 40 -15 56 -21 39 -19 56 12 112 14 27 36 69
49 94 37 74 90 126 183 180 l89 51 13 67 c21 114 43 148 119 188 26 13 31 19
18 22 -18 3 -24 32 -11 46 4 4 8 17 8 29 1 12 2 35 3 51 l2 29 25 -37 c14 -20
25 -40 25 -44z"/>
<path d="M3083 2081 c-50 -17 -123 -64 -123 -80 0 -9 85 -51 104 -51 33 0 101
120 80 140 -5 5 -32 1 -61 -9z"/>
<path d="M2775 1929 c-75 -10 -160 -36 -176 -55 -16 -19 0 -42 42 -58 52 -21
92 -20 138 3 43 22 115 97 106 111 -7 11 -11 11 -110 -1z"/>
<path d="M1915 1853 c4 -10 11 -34 14 -53 5 -29 11 -36 35 -38 36 -4 86 16 86
35 0 8 -13 28 -29 44 -23 23 -38 29 -71 29 -36 0 -41 -2 -35 -17z"/>
<path d="M2163 1818 l-32 -11 42 -33 c23 -19 44 -34 47 -34 3 0 4 20 2 45 -4
48 -7 49 -59 33z"/>
</g>
</svg>
