<?xml version="1.0" standalone="no"?>
<!DOCTYPE svg PUBLIC "-//W3C//DTD SVG 20010904//EN"
 "http://www.w3.org/TR/2001/REC-SVG-20010904/DTD/svg10.dtd">
<svg version="1.0" xmlns="http://www.w3.org/2000/svg"
 width="480.000000pt" height="360.000000pt" viewBox="0 0 480.000000 360.000000"
 preserveAspectRatio="xMidYMid meet">
<metadata>
Created by potrace 1.16, written by Peter Selinger 2001-2019
</metadata>
<rect width="1" height="360" fill="#000000"/>
<rect x="479" width="1" height="360" fill="#000000"/>
<rect width="480" height="1" fill="#000000"/>
<rect y="359" width="480" height="1" fill="#000000"/>
<g transform="translate(0.000000,360.000000) scale(0.100000,-0.100000)"
fill="#000000" stroke="none">
<path d="M2835 3561 c-61 -15 -145 -72 -170 -115 -30 -52 -31 -66 -5 -94 20
-21 20 -21 -1 -36 -18 -12 -21 -22 -16 -53 9 -67 24 -93 52 -93 31 0 30 -6
-21 -117 -70 -154 -234 -276 -415 -309 -51 -9 -149 -15 -249 -16 -190 -1 -211
-8 -185 -59 8 -15 15 -35 15 -44 0 -9 9 -15 21 -15 12 0 39 -5 60 -12 30 -9
39 -16 39 -33 0 -41 23 -49 98 -37 37 6 114 18 172 28 177 27 308 89 434 205
30 27 58 49 63 49 5 0 15 -17 22 -37 7 -21 35 -69 62 -106 l50 -68 -20 -25
c-11 -14 -23 -39 -26 -57 -4 -18 -13 -43 -20 -57 -37 -71 -55 -133 -55 -188 0
-53 -3 -62 -25 -76 -32 -21 -32 -49 0 -73 25 -18 25 -20 11 -53 -8 -19 -37
-66 -65 -103 -27 -38 -66 -98 -86 -133 -20 -36 -42 -63 -48 -61 -6 2 -16 21
-22 43 -9 32 -8 46 6 79 15 34 16 57 10 150 -4 61 -11 116 -15 124 -5 8 1 22
17 39 42 47 47 62 30 107 -9 22 -30 55 -47 73 -29 32 -34 34 -88 30 -31 -2
-63 -10 -72 -17 -24 -20 -20 -82 10 -135 30 -53 27 -85 -12 -137 -40 -53 -46
-76 -29 -109 19 -36 19 -68 1 -111 -8 -19 -21 -83 -30 -144 -26 -185 -55 -416
-62 -502 l-7 -81 32 -16 c56 -30 41 -43 -100 -91 -156 -52 -209 -71 -216 -79
-3 -3 -14 -6 -23 -6 -10 0 -29 -9 -43 -20 -14 -11 -32 -20 -41 -20 -9 0 -48
-19 -87 -42 -70 -42 -119 -88 -119 -112 0 -7 -9 -21 -20 -31 -15 -13 -20 -31
-20 -66 0 -66 9 -85 82 -161 49 -53 81 -77 144 -107 44 -21 98 -50 120 -63 72
-45 252 -136 371 -188 171 -75 244 -101 423 -149 l115 -32 584 3 584 3 19 95
c10 52 18 120 17 150 -1 30 1 63 6 73 4 10 5 39 2 65 -14 113 -55 195 -190
385 -80 112 -89 137 -152 417 -25 107 -50 212 -56 232 -15 46 -10 53 25 37 14
-7 29 -10 32 -7 3 3 -21 47 -53 97 -72 113 -102 172 -96 187 6 15 47 23 66 13
9 -6 30 -3 52 7 36 15 37 16 19 35 -17 18 -16 19 17 19 l34 0 -30 28 c-28 26
-29 27 -8 30 22 3 273 -65 337 -92 20 -8 36 -20 36 -27 0 -7 10 -9 29 -6 34 7
136 -35 209 -85 23 -16 59 -32 79 -35 34 -6 36 -5 30 18 -4 13 -7 36 -7 51 0
27 -18 39 -161 101 -140 62 -177 81 -199 102 -50 48 -213 115 -328 136 -59 11
-121 24 -139 30 -44 14 -83 47 -83 70 0 16 7 19 40 19 43 0 43 0 68 78 12 38
3 79 -31 131 -13 20 -36 67 -52 104 -16 38 -36 72 -46 78 -15 7 -16 15 -8 41
32 114 -16 321 -106 453 -28 42 -30 45 -97 116 -24 26 -63 70 -87 98 -28 33
-54 54 -72 58 -45 9 -43 18 11 53 28 18 50 35 50 39 0 4 -13 28 -29 53 -33 52
-62 65 -87 37 -22 -25 -38 -24 -31 1 7 29 -32 56 -93 64 -28 4 -56 8 -63 10
-6 2 -25 1 -42 -3z m390 -871 c15 -17 16 -20 3 -20 -9 0 -26 9 -39 20 -23 19
-23 19 -3 20 11 0 29 -9 39 -20z m-174 -583 c45 -61 60 -171 37 -251 -13 -44
-82 -117 -173 -186 -47 -36 -66 -52 -153 -132 -18 -17 -31 -37 -28 -44 6 -15
-95 -104 -119 -104 -15 0 -17 7 -11 53 3 28 6 63 6 77 0 15 36 79 86 155 48
72 108 171 134 221 43 82 109 164 131 164 5 0 15 16 23 35 17 41 43 45 67 12z"/>
</g>
</svg>
