<?xml version="1.0" standalone="no"?>
<!DOCTYPE svg PUBLIC "-//W3C//DTD SVG 20010904//EN"
 "http://www.w3.org/TR/2001/REC-SVG-20010904/DTD/svg10.dtd">
<svg version="1.0" xmlns="http://www.w3.org/2000/svg"
 width="480.000000pt" height="360.000000pt" viewBox="0 0 480.000000 360.000000"
 preserveAspectRatio="xMidYMid meet">
<metadata>
Created by potrace 1.16, written by Peter Selinger 2001-2019
</metadata>
<rect width="1" height="360" fill="#000000"/>
<rect x="479" width="1" height="360" fill="#000000"/>
<rect width="480" height="1" fill="#000000"/>
<rect y="359" width="480" height="1" fill="#000000"/>
<g transform="translate(0.000000,360.000000) scale(0.100000,-0.100000)"
fill="#000000" stroke="none">
<path d="M0 1800 l0 -1800 1009 0 1010 0 10 53 c5 28 13 77 17 107 3 30 10 60
15 66 5 6 13 60 18 120 6 62 22 148 37 199 40 135 55 205 52 237 l-3 29 -34
-25 c-19 -15 -42 -26 -51 -26 -9 0 -27 -12 -41 -26 l-24 -25 -155 4 c-101 2
-164 8 -180 17 -85 44 -270 210 -270 242 0 7 -20 39 -43 71 -24 31 -54 80 -67
107 -20 43 -22 57 -14 97 13 70 41 86 269 148 33 9 78 27 100 39 39 23 123 46
235 65 55 9 134 37 193 67 l31 16 -33 14 c-21 9 -37 26 -48 51 -14 35 -14 43
1 100 9 34 16 73 16 87 0 47 60 47 154 0 l49 -25 -7 53 c-9 64 -45 176 -78
238 -20 37 -28 44 -48 41 -14 -1 -28 -8 -32 -14 -5 -8 -10 -7 -20 1 -21 17
-151 29 -253 25 -67 -4 -116 1 -190 16 -73 16 -120 20 -175 16 -41 -3 -69 -2
-62 1 6 3 12 19 12 35 0 22 -8 34 -35 51 -23 15 -35 31 -35 46 0 22 2 22 64
16 58 -6 77 -2 197 36 216 69 301 100 336 121 31 19 33 24 33 73 0 30 5 78 11
107 21 96 18 110 -20 123 -19 6 -39 19 -45 29 -14 24 20 53 80 68 27 7 49 20
60 37 15 23 15 27 -1 54 -20 34 -14 45 17 31 16 -7 30 -4 57 9 19 10 45 18 57
18 12 0 24 4 26 9 2 5 28 5 63 -1 l60 -9 37 43 c37 42 48 45 29 9 -9 -15 -6
-17 20 -13 l30 4 -16 -33 c-15 -33 -15 -36 17 -98 29 -57 38 -66 73 -76 99
-28 113 -64 40 -96 -29 -13 -42 -24 -39 -33 3 -8 1 -17 -5 -21 -12 -7 14 -64
51 -108 19 -23 36 -29 101 -39 42 -7 77 -15 77 -19 0 -4 -14 -12 -30 -19 -17
-7 -29 -17 -27 -23 2 -6 32 -21 68 -33 35 -12 56 -23 47 -23 -26 -1 -31 -18
-10 -39 16 -16 42 -20 163 -26 79 -4 173 -11 209 -15 49 -5 83 -2 140 12 41
11 113 25 160 32 93 14 128 7 163 -33 18 -20 18 -21 0 -30 -31 -16 -109 -22
-121 -10 -16 16 -62 -6 -62 -31 0 -31 -54 -46 -175 -47 -151 -1 -470 -14 -525
-21 -38 -5 -41 -7 -20 -13 24 -6 24 -7 -18 -33 -23 -15 -59 -31 -80 -35 l-37
-8 4 -103 c2 -73 10 -126 27 -179 13 -41 24 -92 24 -113 0 -41 5 -57 54 -162
30 -67 32 -69 64 -63 18 3 57 17 87 33 71 35 83 25 88 -69 3 -57 7 -70 28 -86
38 -30 133 -81 180 -98 47 -17 52 -18 118 -34 24 -6 78 -24 121 -41 65 -25 82
-36 105 -70 14 -23 29 -56 32 -73 5 -30 -2 -41 -62 -107 -36 -41 -75 -77 -85
-81 -11 -4 -201 -10 -424 -14 l-404 -7 -6 -31 c-8 -50 -44 -419 -55 -570 -8
-101 -8 -143 0 -153 11 -12 8 -59 -8 -120 l-5 -23 1166 0 1166 0 0 1800 0
1800 -2400 0 -2400 0 0 -1800z"/>
<path d="M2070 1530 c-13 -8 -13 -10 2 -10 9 0 20 5 23 10 8 13 -5 13 -25 0z"/>
<path d="M2260 368 c-13 -57 -24 -132 -25 -168 -1 -36 -6 -83 -12 -105 -27
-101 -29 -95 21 -95 l45 0 0 235 c1 129 0 235 -2 235 -2 0 -14 -46 -27 -102z"/>
</g>
</svg>
