<?xml version="1.0" standalone="no"?>
<!DOCTYPE svg PUBLIC "-//W3C//DTD SVG 20010904//EN"
 "http://www.w3.org/TR/2001/REC-SVG-20010904/DTD/svg10.dtd">
<svg version="1.0" xmlns="http://www.w3.org/2000/svg"
 width="480.000000pt" height="360.000000pt" viewBox="0 0 480.000000 360.000000"
 preserveAspectRatio="xMidYMid meet">
<metadata>
Created by potrace 1.16, written by Peter Selinger 2001-2019
</metadata>
<rect width="1" height="360" fill="#000000"/>
<rect x="479" width="1" height="360" fill="#000000"/>
<rect width="480" height="1" fill="#000000"/>
<rect y="359" width="480" height="1" fill="#000000"/>
<g transform="translate(0.000000,360.000000) scale(0.100000,-0.100000)"
fill="#000000" stroke="none">
<path d="M1445 3166 c-73 -19 -99 -31 -164 -75 -124 -85 -240 -256 -271 -400
-27 -126 18 -256 126 -371 110 -117 242 -169 395 -156 62 5 78 3 82 -8 3 -8
16 -16 29 -18 12 -2 24 -11 26 -20 3 -17 2 -17 -26 -1 -25 15 -33 15 -62 3
-18 -7 -54 -31 -81 -52 -27 -21 -51 -38 -54 -38 -4 0 -31 -12 -61 -26 -57 -27
-65 -44 -45 -98 8 -19 6 -28 -6 -38 -9 -7 -29 -42 -45 -76 -23 -50 -26 -67
-17 -78 16 -20 37 -17 51 6 17 26 32 25 85 -5 52 -31 55 -52 12 -106 -23 -29
-28 -42 -21 -56 10 -19 12 -25 12 -44 0 -7 9 -9 23 -5 l23 5 12 -177 c6 -97
16 -193 22 -212 5 -19 10 -56 10 -82 0 -38 5 -52 26 -71 21 -20 25 -31 21 -67
-2 -29 -11 -48 -26 -60 -42 -31 -42 -212 -1 -225 16 -5 20 -15 20 -57 0 -41
-5 -55 -25 -74 -23 -21 -25 -30 -25 -104 0 -84 10 -120 34 -120 35 0 36 -93 1
-126 -21 -19 -25 -32 -25 -79 0 -48 2 -55 20 -55 17 0 20 7 20 46 0 42 2 45
16 33 14 -11 18 -10 30 6 18 24 25 16 31 -40 4 -31 10 -45 21 -45 12 0 14 12
10 61 -4 53 -8 65 -31 81 -37 27 -39 98 -4 123 20 14 22 23 22 111 0 89 -2 98
-22 112 -33 21 -33 106 -1 132 19 15 23 30 26 94 5 92 -2 123 -28 131 -17 5
-20 15 -20 59 0 45 4 55 28 72 22 17 38 20 87 17 33 -3 107 2 165 11 57 8 106
13 108 12 1 -2 -11 -28 -27 -59 -58 -110 -65 -176 -56 -507 5 -162 9 -330 9
-372 l1 -78 397 0 c443 0 429 -3 369 65 -25 28 -30 46 -36 110 -4 41 -5 116
-3 165 4 82 8 96 51 182 26 51 58 107 72 123 l25 30 0 -69 c0 -80 10 -78 34 8
10 32 20 56 22 53 9 -8 83 -340 102 -450 11 -69 13 -103 6 -114 -17 -27 -31
-26 -38 2 -9 37 -39 32 -55 -10 -7 -19 -24 -49 -38 -65 l-25 -30 302 0 301 0
52 39 c111 83 139 128 138 225 0 110 -58 215 -206 376 -33 36 -70 77 -82 90
l-22 25 20 170 c34 299 66 449 137 643 25 68 42 91 42 56 0 -8 5 -12 10 -9 6
4 13 -7 16 -24 4 -17 13 -36 21 -43 13 -10 21 -6 49 25 19 20 36 37 39 37 9 0
95 91 95 100 0 5 13 24 28 42 16 18 34 48 41 66 8 17 17 32 21 32 5 0 14 17
20 38 7 20 19 47 27 60 21 33 45 129 46 183 1 62 -20 91 -87 123 -86 41 -177
32 -257 -25 -21 -15 -37 -17 -78 -12 -31 3 -50 10 -48 17 2 6 88 78 191 159
185 148 187 149 211 133 14 -9 47 -21 73 -26 43 -8 53 -6 117 24 39 18 84 36
100 40 45 10 85 27 85 37 0 14 -61 78 -91 96 -16 10 -29 20 -29 23 0 3 23 13
51 23 60 22 62 43 9 69 -19 10 -34 21 -34 24 1 4 71 75 155 160 84 85 149 157
145 161 -4 4 -46 -12 -94 -36 -82 -40 -177 -102 -452 -292 -183 -127 -217
-148 -370 -227 -80 -41 -157 -83 -172 -93 -32 -23 -42 -24 -34 -4 15 40 -31
95 -80 95 -33 0 -47 -14 -22 -22 9 -3 4 -17 -16 -42 -26 -35 -31 -37 -70 -33
-22 3 -75 14 -116 26 -41 11 -93 21 -115 21 -49 1 -275 -52 -275 -64 0 -4 9
-6 20 -3 30 8 24 -9 -7 -22 -16 -5 -41 -22 -58 -36 l-30 -26 29 7 29 7 -31
-39 c-36 -46 -61 -126 -55 -171 l5 -33 19 23 19 22 -2 -45 c-3 -39 -6 -45 -27
-48 -12 -2 -33 -1 -45 2 -21 5 -22 10 -21 108 0 92 -3 109 -27 161 -39 84
-130 171 -198 191 -30 9 -69 16 -87 16 -47 0 -103 60 -103 110 -1 137 -97 293
-235 385 -104 68 -234 96 -330 71z m965 -1116 c0 -11 -4 -20 -10 -20 -5 0 -10
9 -10 20 0 11 5 20 10 20 6 0 10 -9 10 -20z m-592 -164 c61 -41 173 -70 243
-64 31 3 83 21 136 48 l86 43 35 -19 c27 -15 32 -22 28 -41 -3 -13 -9 -34 -12
-47 -5 -20 2 -30 50 -65 31 -23 56 -45 56 -48 0 -6 -68 -172 -116 -283 -25
-58 -46 -66 -239 -95 -98 -15 -212 -35 -253 -46 -42 -10 -76 -18 -77 -17 -1 2
-9 66 -18 143 -16 130 -16 141 -1 152 9 7 21 14 26 15 5 2 -2 26 -17 54 -36
71 -43 148 -17 200 11 21 23 54 27 72 3 17 8 32 10 32 2 0 26 -15 53 -34z
m-440 -108 c-34 -26 -41 -22 -23 13 14 26 19 28 31 18 14 -11 13 -15 -8 -31z
m176 -737 c4 -5 3 -17 0 -26 -5 -13 -8 -14 -15 -3 -5 7 -9 19 -9 26 0 14 16
16 24 3z m56 -311 c0 -30 -5 -62 -10 -70 -6 -10 -10 -11 -10 -2 0 6 -9 12 -20
12 -11 0 -20 -4 -20 -10 0 -5 -4 -10 -10 -10 -6 0 -10 32 -10 75 l0 75 30 -6
c22 -5 30 -3 30 7 0 11 2 11 10 -1 5 -8 10 -40 10 -70z m-33 -292 c12 34 23 4
23 -65 0 -73 -1 -76 -19 -59 -17 15 -19 15 -32 0 -12 -15 -14 -14 -20 3 -9 22
-11 81 -3 110 5 19 9 20 26 10 16 -9 22 -9 25 1z"/>
</g>
</svg>
