<?xml version="1.0" standalone="no"?>
<!DOCTYPE svg PUBLIC "-//W3C//DTD SVG 20010904//EN"
 "http://www.w3.org/TR/2001/REC-SVG-20010904/DTD/svg10.dtd">
<svg version="1.0" xmlns="http://www.w3.org/2000/svg"
 width="480.000000pt" height="360.000000pt" viewBox="0 0 480.000000 360.000000"
 preserveAspectRatio="xMidYMid meet">
<metadata>
Created by potrace 1.16, written by Peter Selinger 2001-2019
</metadata>
<rect width="1" height="360" fill="#000000"/>
<rect x="479" width="1" height="360" fill="#000000"/>
<rect width="480" height="1" fill="#000000"/>
<rect y="359" width="480" height="1" fill="#000000"/>
<g transform="translate(0.000000,360.000000) scale(0.100000,-0.100000)"
fill="#000000" stroke="none">
<path d="M0 1800 l0 -1800 1420 0 c781 0 1420 2 1420 5 0 3 -11 37 -24 77 -48
144 -94 294 -107 350 -17 73 -40 83 -85 36 -17 -18 -41 -39 -53 -46 -19 -11
-21 -10 -21 14 0 26 0 25 -46 -15 -26 -23 -51 -41 -57 -41 -5 0 -7 16 -5 35 4
33 3 34 -17 20 -47 -35 -61 -43 -84 -50 -22 -7 -23 -5 -16 27 l7 33 -21 -19
c-13 -12 -21 -14 -21 -7 0 8 -7 10 -19 6 -24 -7 -36 11 -32 47 1 17 -6 36 -18
50 -15 15 -21 17 -21 7 -1 -11 -3 -10 -10 3 -7 11 -7 32 -1 59 11 48 7 61 -17
58 -10 -1 -20 -1 -24 0 -7 1 52 236 83 331 12 36 44 121 72 190 73 186 164
469 181 563 8 45 17 167 21 270 7 202 14 238 65 313 16 25 30 49 30 54 0 5
-16 58 -36 117 -83 247 -37 433 106 433 37 0 39 -17 9 -92 -33 -84 -36 -205
-7 -303 23 -80 24 -80 56 -78 19 0 36 4 39 7 4 3 -2 49 -12 101 -24 131 -14
167 75 255 79 78 135 110 197 110 46 0 83 -14 83 -31 0 -23 -50 -75 -127 -131
-99 -71 -113 -89 -113 -145 0 -59 30 -164 49 -171 9 -3 42 -26 75 -51 83 -63
101 -107 90 -220 -11 -124 -8 -241 8 -241 4 0 53 20 108 45 55 25 104 45 109
45 21 0 41 47 41 95 1 27 7 68 15 89 16 45 13 56 -16 56 -15 0 -18 5 -13 24 4
17 0 27 -12 34 -15 8 -16 14 -7 35 9 18 24 28 62 37 44 10 54 10 81 -6 23 -14
32 -28 37 -57 4 -26 18 -51 39 -73 l34 -33 -7 -128 c-10 -205 -13 -209 -298
-334 -153 -66 -156 -72 -100 -164 24 -40 35 -71 35 -97 0 -41 10 -49 120 -109
25 -13 47 -27 50 -30 3 -4 33 -17 68 -29 34 -13 65 -28 69 -33 4 -6 0 -8 -8
-5 -8 3 -41 11 -74 18 -74 14 -204 56 -222 71 -10 9 -13 6 -13 -12 0 -13 4
-40 10 -58 12 -44 6 -51 -15 -14 -15 27 -15 25 -9 -52 4 -55 1 -107 -10 -164
-9 -46 -16 -127 -16 -181 l0 -98 75 -80 75 -79 -55 -7 c-101 -12 -101 -12
-109 -118 -11 -147 -46 -481 -52 -500 -5 -17 40 -18 855 -18 l861 0 0 1800 0
1800 -2400 0 -2400 0 0 -1800z"/>
</g>
</svg>
