<?xml version="1.0" standalone="no"?>
<!DOCTYPE svg PUBLIC "-//W3C//DTD SVG 20010904//EN"
 "http://www.w3.org/TR/2001/REC-SVG-20010904/DTD/svg10.dtd">
<svg version="1.0" xmlns="http://www.w3.org/2000/svg"
 width="480.000000pt" height="360.000000pt" viewBox="0 0 480.000000 360.000000"
 preserveAspectRatio="xMidYMid meet">
<metadata>
Created by potrace 1.16, written by Peter Selinger 2001-2019
</metadata>
<rect width="1" height="360" fill="#000000"/>
<rect x="479" width="1" height="360" fill="#000000"/>
<rect width="480" height="1" fill="#000000"/>
<rect y="359" width="480" height="1" fill="#000000"/>
<g transform="translate(0.000000,360.000000) scale(0.100000,-0.100000)"
fill="#000000" stroke="none">
<path d="M0 2100 c0 -1480 0 -1501 19 -1490 11 5 21 20 23 31 2 15 24 32 75
58 71 36 71 36 66 71 -4 27 1 42 19 65 12 16 22 37 20 46 -2 11 8 22 28 30 31
14 37 24 20 34 -5 3 -10 15 -10 25 0 10 -14 34 -30 52 -35 38 -37 48 -11 55
11 3 34 23 51 45 30 37 35 39 69 33 83 -15 135 -74 110 -123 -8 -14 -9 -26 -3
-30 8 -6 34 -70 34 -85 0 -4 -8 -6 -17 -5 -10 1 -34 0 -53 0 -26 -2 -31 -5
-22 -14 7 -7 12 -23 12 -37 0 -15 7 -44 15 -66 18 -51 19 -116 1 -140 -7 -10
-11 -26 -9 -35 3 -9 -5 -21 -19 -28 -21 -11 -26 -30 -52 -175 -33 -188 -31
-203 44 -274 l43 -40 -52 -34 c-103 -68 -170 -64 1095 -67 l1140 -2 17 127
c10 71 20 160 24 198 4 55 14 85 43 140 32 59 40 85 49 170 6 55 12 109 14
119 1 13 -7 22 -28 28 -16 6 -63 23 -104 39 -124 49 -148 41 -207 -70 -37 -70
-62 -80 -172 -72 -85 7 -174 -6 -240 -35 -48 -20 -78 -18 -171 16 -73 27 -93
30 -179 28 -89 -2 -100 -4 -136 -30 -41 -30 -74 -35 -108 -17 -15 8 -37 8 -84
-1 -68 -13 -67 -14 -144 53 -36 31 -70 46 -101 45 -42 -2 -179 28 -193 42 -5
5 -18 10 -27 10 -10 0 -28 12 -41 28 -13 15 -47 47 -77 71 -34 29 -62 63 -78
98 -14 29 -29 56 -34 59 -5 3 -9 23 -9 44 0 56 -35 158 -64 189 l-26 27 20 39
c11 22 20 49 20 61 0 12 6 27 14 33 20 17 59 130 52 155 -4 16 2 26 28 41 19
11 68 46 109 77 42 32 82 58 89 58 26 0 41 17 31 35 -5 9 -14 18 -19 18 -5 1
-7 9 -5 17 8 36 17 236 10 244 -4 5 1 27 12 48 11 22 18 47 15 55 -9 21 59 90
109 113 42 18 59 32 178 145 l69 65 78 0 78 0 19 37 c14 29 28 42 63 54 32 12
47 24 53 43 7 20 14 25 28 21 32 -11 62 4 55 28 -6 24 19 139 40 178 8 16 41
55 73 88 38 38 62 72 66 93 8 37 50 124 64 132 5 3 64 8 132 12 87 4 148 13
203 30 67 20 82 21 95 10 9 -7 47 -24 84 -37 67 -23 117 -63 117 -93 0 -20 31
-43 71 -54 29 -8 40 -7 52 5 23 23 41 11 57 -37 11 -34 11 -50 1 -88 -12 -46
-12 -46 23 -77 31 -27 41 -52 51 -120 0 -5 5 -32 9 -58 l8 -48 35 41 c20 23
38 39 40 36 3 -3 -2 -13 -11 -22 -10 -9 -15 -23 -12 -31 3 -8 2 -12 -2 -10 -4
3 -15 -5 -24 -18 -16 -22 -16 -24 2 -40 12 -11 20 -13 20 -7 0 7 5 12 11 12 6
0 31 20 55 45 41 43 44 49 38 85 -4 27 -3 40 5 40 10 0 15 -20 12 -47 -4 -28
17 -8 63 63 26 41 50 73 53 71 8 -9 -50 -106 -107 -179 -25 -32 -19 -34 40
-13 50 17 53 18 46 6 -3 -5 -35 -17 -71 -26 -60 -17 -67 -22 -109 -78 -35 -48
-43 -64 -34 -75 9 -10 8 -22 -1 -47 -13 -36 -5 -155 10 -155 12 0 39 42 39 60
0 10 11 16 30 17 32 2 32 -4 2 -39 -7 -9 -11 -22 -7 -27 11 -19 45 -12 55 12
5 12 9 16 9 10 1 -22 15 -14 49 31 18 24 42 46 54 49 19 5 19 4 -5 -21 -13
-15 -28 -37 -32 -50 -3 -12 -18 -28 -33 -36 -26 -14 -25 -14 18 -9 40 6 53 14
115 81 45 48 74 89 82 114 6 22 17 47 25 56 7 9 22 33 32 52 10 19 27 44 37
55 16 18 16 25 4 75 -7 30 -16 64 -20 75 -3 11 3 4 14 -15 11 -19 20 -43 21
-52 0 -25 16 -22 24 5 6 21 8 20 22 -13 18 -41 15 -75 -7 -75 -20 0 -63 -51
-74 -85 -4 -14 -16 -33 -27 -44 -34 -32 -11 -28 56 10 36 21 62 42 59 47 -3 6
-2 7 4 4 6 -4 17 -1 26 6 14 10 15 18 6 50 -5 21 -9 52 -7 70 3 28 5 25 18
-27 8 -33 21 -61 28 -64 12 -4 75 56 119 114 16 21 23 24 23 12 0 -9 -12 -30
-26 -47 -21 -25 -22 -30 -7 -25 10 3 5 -4 -12 -18 -16 -12 -46 -37 -65 -53
-19 -17 -48 -37 -65 -45 l-30 -15 50 -3 c72 -4 135 26 170 81 24 38 26 35 9
-9 -7 -15 42 4 130 53 19 10 27 12 24 3 -2 -6 -39 -32 -83 -56 -44 -24 -96
-52 -115 -63 -20 -10 -87 -29 -150 -41 -129 -25 -170 -47 -252 -134 -79 -85
-89 -123 -24 -92 43 20 82 66 91 106 4 16 10 30 15 30 5 0 5 -14 0 -30 -8 -29
-7 -31 13 -24 12 3 30 13 39 22 10 8 18 11 18 5 0 -15 -23 -43 -47 -56 -90
-51 -123 -74 -123 -84 0 -7 -11 -13 -24 -13 -28 0 -59 -26 -50 -42 3 -5 17 -7
31 -3 16 4 22 2 18 -5 -3 -5 -17 -10 -30 -10 -29 0 -45 -26 -45 -70 0 -30 2
-32 28 -25 l27 6 -32 -30 c-18 -16 -33 -38 -33 -47 0 -16 2 -15 23 3 12 11 33
26 47 33 20 9 18 5 -11 -22 -20 -18 -48 -43 -62 -55 -38 -32 -34 -49 6 -24 53
35 168 88 227 105 89 25 161 74 188 127 21 43 22 51 11 120 -6 41 -15 78 -20
83 -11 13 -12 26 0 26 8 0 37 -84 44 -130 3 -23 4 -23 11 -5 4 11 12 30 18 42
6 11 8 27 6 34 -4 13 13 39 26 39 2 0 6 -8 9 -17 3 -15 6 -13 17 9 7 15 16 25
20 23 4 -3 8 1 7 8 -1 31 4 47 14 47 7 0 9 -10 5 -25 -4 -17 0 -31 14 -45 11
-11 24 -20 28 -20 12 0 34 49 27 60 -3 5 14 19 37 30 24 12 34 14 23 6 -41
-31 -45 -38 -45 -71 0 -45 22 -46 82 -6 43 28 88 47 88 37 0 -3 -22 -17 -50
-31 -27 -14 -50 -28 -50 -30 0 -3 10 -10 23 -15 19 -8 17 -9 -15 -9 -46 -1
-91 -18 -83 -31 3 -6 -4 -10 -18 -10 -13 0 -46 -16 -72 -37 l-48 -36 24 -12
c13 -7 54 -16 91 -20 37 -3 71 -11 74 -17 5 -7 -2 -9 -19 -4 -16 4 -27 2 -30
-7 -3 -9 -15 -9 -53 4 -42 13 -77 16 -130 10 -6 0 -20 -19 -33 -41 -12 -22
-26 -40 -32 -40 -5 0 -9 -7 -9 -16 0 -13 6 -15 28 -10 15 4 34 8 44 10 9 1 23
8 32 15 23 19 20 4 -4 -21 -32 -35 -25 -45 37 -52 49 -6 60 -4 70 11 21 30 66
73 76 73 5 0 -7 -18 -27 -40 -20 -22 -36 -45 -36 -51 0 -15 70 -2 92 18 14 13
17 12 22 -4 2 -10 4 -37 3 -61 -1 -23 -1 -42 -1 -42 7 0 71 30 76 35 4 4 0 24
-8 44 -18 40 -46 162 -40 169 3 2 14 -27 25 -65 27 -85 45 -120 56 -104 7 13
-18 89 -41 126 -7 11 -18 43 -25 70 -14 60 -25 75 -53 76 -11 0 -15 3 -8 6 27
11 62 -7 62 -31 0 -33 19 -85 49 -130 l26 -39 7 34 c3 19 5 63 2 99 -3 52 -2
59 6 35 13 -41 15 -108 5 -184 -8 -62 -7 -64 13 -59 15 4 19 2 15 -8 -3 -8 -9
-14 -14 -14 -5 0 -9 -5 -9 -11 0 -5 4 -7 10 -4 6 3 10 2 10 -3 0 -5 -10 -13
-22 -17 -14 -4 -18 -8 -11 -12 7 -2 13 -11 13 -19 0 -21 18 -17 46 11 13 13
27 24 29 22 8 -3 65 37 65 46 0 5 -10 6 -22 2 -21 -5 -21 -5 -5 5 10 7 27 10
38 7 10 -3 19 -2 19 2 0 4 16 14 35 23 33 15 35 15 35 -3 0 -11 -7 -17 -18
-16 -22 1 -103 -50 -125 -79 -14 -19 -14 -25 1 -71 10 -28 21 -55 25 -59 14
-14 115 107 154 183 37 72 61 96 29 28 -10 -20 -15 -41 -13 -48 2 -7 14 9 27
36 12 26 35 56 50 67 20 14 30 32 35 61 9 55 17 44 9 -14 -5 -33 -16 -56 -40
-83 -19 -20 -44 -53 -56 -73 -12 -20 -29 -41 -38 -48 -8 -6 -13 -14 -10 -16 3
-3 23 8 45 24 51 37 115 68 139 69 20 0 20 0 0 -15 -10 -8 -28 -15 -40 -15
-26 0 -113 -62 -96 -68 15 -5 -20 -40 -66 -68 -16 -9 -37 -30 -47 -46 l-17
-30 36 24 c20 13 36 28 36 34 0 5 17 18 38 27 20 9 66 42 102 72 69 59 115 77
65 25 -16 -16 -25 -30 -19 -30 15 1 56 38 58 54 3 22 96 122 96 104 0 -9 -7
-21 -15 -28 -18 -15 -20 -35 -3 -23 21 13 82 33 87 28 2 -3 -11 -11 -30 -19
-19 -9 -45 -27 -59 -42 -14 -15 -41 -39 -61 -53 -62 -45 -123 -101 -117 -107
13 -12 79 26 88 52 14 35 23 25 11 -12 -5 -16 -12 -46 -15 -67 -5 -35 -3 -38
17 -32 39 12 58 43 51 84 -8 46 3 37 13 -11 l8 -35 90 43 c50 24 97 44 105 44
24 0 -1 -15 -110 -64 -116 -53 -143 -72 -122 -85 9 -5 -1 -10 -30 -13 -23 -3
-56 -11 -73 -18 -26 -11 -27 -14 -10 -18 11 -2 25 -8 31 -13 8 -6 14 -4 18 6
3 8 11 15 18 15 7 0 3 -10 -10 -22 -19 -20 -24 -21 -32 -8 -9 13 -13 11 -30
-10 l-19 -25 97 -6 c53 -3 78 -6 55 -7 -24 -1 -43 -6 -43 -12 0 -5 -12 -10
-27 -10 -16 0 -38 -3 -50 -6 -19 -5 -21 -9 -12 -26 20 -38 2 -28 -25 13 -27
41 -29 41 -72 35 -25 -3 -43 -2 -40 3 3 5 -4 11 -17 15 -44 12 -100 6 -133
-15 -41 -25 -43 -33 -6 -25 20 5 23 4 12 -4 -8 -5 -24 -10 -35 -10 -30 0 -185
-57 -205 -75 -10 -9 -41 -25 -70 -36 -65 -24 -189 -106 -248 -163 -24 -22 -70
-73 -102 -111 -39 -48 -72 -77 -106 -94 -198 -95 -231 -118 -205 -144 8 -8 21
-1 48 24 27 25 32 28 20 9 -20 -29 -22 -42 -4 -39 6 2 31 -1 55 -5 32 -6 49
-4 70 9 l27 16 -23 -20 c-22 -19 -22 -20 -3 -30 11 -6 29 -11 40 -11 12 0 21
-4 21 -10 0 -13 -26 -13 -51 0 -10 6 -39 12 -64 14 -26 2 -49 7 -52 10 -11 10
-48 7 -67 -7 -17 -12 -16 -15 10 -32 16 -11 38 -18 48 -16 18 3 18 2 3 -14 -9
-9 -22 -13 -28 -9 -7 4 -10 1 -7 -7 3 -8 13 -13 22 -13 9 1 16 -2 16 -7 0 -5
6 -9 14 -9 8 0 18 -5 22 -12 5 -8 2 -9 -9 -5 -20 8 -22 -3 -4 -23 7 -9 2 -8
-15 3 -26 16 -27 16 -47 -8 l-19 -26 -6 31 c-3 16 -9 44 -12 61 -5 26 -10 30
-30 26 -23 -4 -23 -3 -9 13 20 22 19 30 -3 30 -10 0 -23 5 -29 11 -14 14 -53
-10 -53 -33 0 -10 -10 -43 -22 -75 -26 -69 -27 -174 -3 -274 20 -85 20 -297 0
-362 -12 -39 -12 -58 -3 -98 l11 -49 599 0 598 0 1 53 c2 104 -2 153 -18 229
-15 73 -18 78 -42 78 -15 0 -37 7 -49 16 -33 23 -30 107 8 225 33 100 37 147
22 253 -8 58 -7 80 9 139 l20 69 -25 23 c-13 12 -31 25 -39 28 -9 3 -24 18
-33 32 -17 26 -17 29 1 62 21 38 60 63 119 74 44 8 66 3 66 -15 0 -7 11 -23
25 -36 14 -13 25 -31 25 -41 0 -10 5 -21 10 -24 6 -3 10 -22 10 -40 0 -25 -6
-37 -21 -46 -12 -6 -17 -14 -12 -18 6 -3 13 -16 17 -28 4 -13 11 -23 16 -23 5
0 19 -19 31 -43 32 -64 68 -98 96 -91 30 8 29 0 -6 -55 -16 -25 -33 -63 -36
-84 -7 -35 -4 -42 26 -73 28 -29 38 -33 65 -28 35 6 54 -9 28 -24 -14 -8 -12
-12 15 -31 26 -19 30 -26 20 -37 -8 -10 -15 -12 -23 -4 -5 5 -16 10 -24 10 -8
0 -46 25 -84 56 -38 31 -71 54 -73 52 -2 -2 2 -26 10 -53 12 -45 25 -80 66
-181 6 -17 9 -42 5 -57 -6 -25 -10 -27 -61 -27 -30 0 -55 -4 -55 -8 0 -4 9
-32 19 -62 11 -30 22 -82 26 -115 17 -152 22 -155 282 -155 l193 0 0 1800 0
1800 -2400 0 -2400 0 0 -1500z m2982 1274 c-5 -26 -6 -26 -36 -15 -39 15 -34
42 7 37 25 -3 31 -8 29 -22z m-1432 -103 c0 -6 -4 -13 -10 -16 -5 -3 -10 1
-10 9 0 9 5 16 10 16 6 0 10 -4 10 -9z m-835 -80 c7 -12 -12 -24 -25 -16 -11
7 -4 25 10 25 5 0 11 -4 15 -9z m-327 -361 c17 -28 6 -43 -18 -27 -22 13 -27
47 -7 47 7 0 18 -9 25 -20z m2993 -57 c-12 -20 -14 -14 -5 12 4 9 9 14 11 11
3 -2 0 -13 -6 -23z m264 -93 c-3 -5 -11 -10 -16 -10 -6 0 -7 5 -4 10 3 6 11
10 16 10 6 0 7 -4 4 -10z m-3136 -161 c37 -13 41 -29 7 -29 -33 0 -76 17 -76
30 0 13 29 13 69 -1z m2366 -109 c-3 -5 -14 -10 -23 -9 -14 0 -13 2 3 9 27 11
27 11 20 0z m800 -20 c-3 -5 -10 -10 -16 -10 -5 0 -9 5 -9 10 0 6 7 10 16 10
8 0 12 -4 9 -10z m-318 -14 c-3 -8 -1 -17 6 -20 7 -2 4 -5 -5 -5 -18 -1 -24
19 -11 32 11 11 15 8 10 -7z m-394 -26 c3 -11 1 -20 -4 -20 -5 0 -9 9 -9 20 0
11 2 20 4 20 2 0 6 -9 9 -20z m927 -30 c0 -5 -5 -10 -11 -10 -5 0 -7 5 -4 10
3 6 8 10 11 10 2 0 4 -4 4 -10z m526 -215 c-9 -14 -22 -25 -28 -25 -7 0 -2 9
10 20 12 12 22 26 22 32 0 6 3 8 6 5 4 -4 -1 -18 -10 -32z m229 -43 l-28 -27
23 33 c12 18 25 31 28 27 3 -3 -7 -18 -23 -33z m-1435 -16 c0 -3 -4 -8 -10
-11 -5 -3 -10 -1 -10 4 0 6 5 11 10 11 6 0 10 -2 10 -4z m790 -86 c-8 -5 -19
-10 -25 -10 -5 0 -3 5 5 10 8 5 20 10 25 10 6 0 3 -5 -5 -10z m-3863 -76 c-3
-3 -12 -4 -19 -1 -8 3 -5 6 6 6 11 1 17 -2 13 -5z m4543 -584 c0 -5 -4 -10
-10 -10 -5 0 -10 5 -10 10 0 6 5 10 10 10 6 0 10 -4 10 -10z m-772 -30 c19
-18 22 -32 22 -91 0 -67 -1 -70 -27 -80 -16 -6 -41 -20 -58 -32 -56 -41 -80
-50 -104 -38 -25 14 -29 67 -6 97 8 10 15 38 15 62 0 35 6 50 29 73 37 36 95
40 129 9z m-568 -244 c0 -3 -12 -17 -26 -33 -19 -21 -27 -24 -33 -14 -11 16
17 49 42 50 9 1 17 -1 17 -3z m365 -36 c-3 -5 -15 -10 -26 -10 -10 0 -19 5
-19 10 0 6 12 10 26 10 14 0 23 -4 19 -10z m-485 -34 c0 -3 -4 -8 -10 -11 -5
-3 -10 -1 -10 4 0 6 5 11 10 11 6 0 10 -2 10 -4z"/>
<path d="M2735 2560 c-3 -11 -10 -20 -15 -20 -16 0 -40 -57 -40 -93 0 -18 6
-42 14 -52 14 -19 15 -19 35 5 22 27 27 56 11 62 -7 2 -2 20 11 44 21 38 21
74 0 74 -5 0 -13 -9 -16 -20z"/>
<path d="M2641 2339 c-15 -44 -14 -46 9 -16 21 27 26 47 11 47 -5 0 -14 -14
-20 -31z"/>
<path d="M2780 2331 c0 -6 5 -13 10 -16 6 -3 10 1 10 9 0 9 -4 16 -10 16 -5 0
-10 -4 -10 -9z"/>
<path d="M3610 2336 c0 -2 -7 -20 -15 -39 -20 -49 -4 -54 39 -13 44 41 45 56
6 56 -16 0 -30 -2 -30 -4z"/>
<path d="M3690 2324 c0 -8 5 -12 10 -9 6 3 10 10 10 16 0 5 -4 9 -10 9 -5 0
-10 -7 -10 -16z"/>
<path d="M2770 2261 c0 -10 -7 -21 -15 -25 -17 -6 -21 -36 -4 -36 6 0 13 9 16
20 3 11 12 20 19 20 8 0 14 9 14 20 0 11 -7 20 -15 20 -8 0 -15 -9 -15 -19z"/>
<path d="M3532 2248 c-14 -14 -16 -28 -2 -28 5 0 14 9 20 20 12 22 1 27 -18 8z"/>
<path d="M2820 2210 c0 -5 5 -10 11 -10 5 0 7 5 4 10 -3 6 -8 10 -11 10 -2 0
-4 -4 -4 -10z"/>
<path d="M2902 2208 c-14 -14 -16 -28 -3 -28 9 0 24 30 18 36 -2 2 -9 -2 -15
-8z"/>
<path d="M2597 2196 c-4 -10 -1 -13 9 -9 15 6 19 23 5 23 -5 0 -11 -7 -14 -14z"/>
<path d="M2970 2177 c-26 -28 -27 -33 -12 -38 15 -5 14 -7 -5 -13 -20 -6 -73
-66 -73 -82 0 -5 -19 -27 -41 -50 -23 -23 -43 -53 -45 -66 -1 -13 -8 -37 -15
-54 -7 -18 -9 -39 -5 -50 7 -16 10 -14 20 15 15 42 29 27 16 -17 l-8 -32 61
32 c96 48 110 61 131 121 16 48 17 60 6 87 -7 17 -10 33 -7 37 3 3 9 -7 13
-21 3 -15 11 -25 18 -23 13 4 27 130 16 137 -5 3 -3 13 4 22 7 10 16 15 19 11
4 -3 7 -2 7 4 0 5 -16 10 -35 11 -27 1 -41 -6 -65 -31z m50 -21 c0 -11 -19
-15 -25 -6 -3 5 1 10 9 10 9 0 16 -2 16 -4z"/>
<path d="M2730 2162 c-39 -19 -57 -64 -23 -59 27 4 90 45 97 62 7 20 -29 19
-74 -3z"/>
<path d="M2841 2142 c-15 -17 -47 -42 -69 -57 -35 -23 -62 -68 -49 -82 7 -6
117 102 117 115 0 7 6 12 14 12 19 0 40 26 27 35 -6 3 -24 -7 -40 -23z"/>
<path d="M2544 2066 c-12 -31 17 -127 48 -160 l31 -31 -8 30 c-5 17 -8 55 -8
86 1 51 -2 58 -28 73 -25 15 -30 15 -35 2z"/>
<path d="M3395 2038 c-48 -25 -50 -26 -43 -34 3 -3 24 0 47 7 29 8 41 18 41
31 0 10 -1 18 -2 18 -2 -1 -21 -10 -43 -22z"/>
<path d="M3450 1989 c-58 -5 -123 -6 -146 -3 -34 4 -46 0 -79 -26 -21 -16 -43
-30 -50 -30 -7 0 -18 -7 -25 -15 -7 -8 -41 -28 -76 -45 -35 -16 -81 -45 -101
-63 -21 -18 -54 -43 -74 -55 -46 -28 -76 -61 -63 -70 6 -4 20 -27 33 -52 32
-64 63 -95 76 -78 18 23 94 68 115 68 11 0 20 5 20 10 0 6 11 10 24 10 13 0
28 6 34 13 11 13 12 17 12 47 0 25 35 27 49 3 8 -14 12 -15 25 -4 8 7 39 18
68 25 33 7 54 17 54 26 1 8 2 19 3 25 0 5 8 0 16 -12 20 -29 78 -40 124 -23
20 7 61 31 91 54 30 22 60 41 65 41 15 1 75 39 75 48 0 4 -8 11 -17 14 -10 4
-20 9 -23 13 -11 14 -112 90 -118 89 -4 -1 -54 -6 -112 -10z"/>
<path d="M3620 1984 c0 -9 52 -53 87 -76 25 -15 37 -18 45 -10 8 8 4 18 -17
34 -29 23 -115 62 -115 52z"/>
<path d="M3725 1980 c-6 -10 31 -49 48 -50 14 0 7 48 -9 54 -22 9 -32 8 -39
-4z"/>
<path d="M3867 1903 c-9 -33 -18 -93 -14 -93 5 0 37 93 37 104 0 14 -19 4 -23
-11z"/>
<path d="M3806 1891 c-4 -7 -5 -15 -2 -18 9 -9 19 4 14 18 -4 11 -6 11 -12 0z"/>
<path d="M3972 1873 c-12 -13 -22 -29 -22 -34 0 -5 -6 -20 -14 -32 -13 -21
-21 -68 -17 -111 1 -18 3 -18 26 4 14 13 25 27 25 32 0 4 9 17 20 28 24 24 26
53 5 74 -10 9 -11 17 -5 21 6 3 13 -1 16 -9 3 -9 11 -16 17 -16 7 0 7 4 -1 12
-7 7 -12 20 -12 29 0 28 -14 29 -38 2z"/>
<path d="M4189 1850 c-13 -10 -19 -19 -13 -20 7 0 22 9 35 20 13 10 19 19 13
20 -7 0 -22 -9 -35 -20z"/>
<path d="M3814 1849 c-3 -6 1 -18 10 -27 15 -15 16 -14 16 11 0 27 -13 36 -26
16z"/>
<path d="M3673 1811 c-24 -9 -48 -22 -55 -29 -7 -7 -18 -12 -25 -12 -7 0 -13
-4 -13 -10 0 -5 6 -7 14 -4 8 3 17 1 21 -5 3 -6 23 -11 44 -11 38 0 60 18 95
78 10 17 -29 14 -81 -7z"/>
<path d="M3774 1817 c-6 -7 -19 -25 -28 -40 -22 -33 -7 -36 40 -6 29 18 32 23
21 40 -14 22 -18 23 -33 6z"/>
<path d="M4357 1789 c-26 -8 -57 -25 -70 -36 -12 -11 -46 -33 -75 -48 -28 -16
-50 -30 -48 -32 5 -5 110 12 180 29 50 13 70 38 64 82 -3 20 -4 21 -51 5z"/>
<path d="M4218 1769 c-16 -11 -28 -25 -28 -30 0 -17 26 -9 48 14 38 40 25 50
-20 16z"/>
<path d="M3981 1714 c-23 -37 -40 -68 -38 -70 9 -9 59 41 78 78 35 70 6 63
-40 -8z"/>
<path d="M3830 1750 c-8 -4 -46 -17 -85 -27 -49 -13 -73 -25 -80 -40 -6 -11
-16 -27 -22 -34 -6 -8 -13 -25 -15 -39 -2 -19 -8 -24 -26 -23 -14 2 -22 -3
-22 -13 0 -9 -11 -25 -25 -36 -27 -21 -50 -57 -42 -64 3 -3 20 4 38 16 19 11
51 25 71 30 20 6 44 17 52 26 8 8 19 13 23 12 4 -2 10 22 13 52 5 51 26 107
36 97 3 -2 0 -16 -6 -31 -13 -34 -13 -76 -1 -76 5 0 12 8 14 18 3 9 5 2 6 -15
1 -36 6 -38 45 -23 31 11 32 19 6 72 -11 23 -18 43 -16 45 2 3 18 -14 36 -36
36 -45 66 -46 55 -2 -26 107 -26 108 -55 91z m-197 -197 c-7 -2 -21 -2 -30 0
-10 3 -4 5 12 5 17 0 24 -2 18 -5z"/>
<path d="M3530 1705 c-14 -7 -42 -17 -63 -20 -31 -6 -37 -10 -32 -25 4 -14 0
-19 -16 -22 -41 -6 -34 -28 10 -28 36 0 40 3 43 27 2 18 10 29 23 32 19 3 19
3 2 -17 -29 -32 -4 -35 60 -8 63 26 75 42 47 63 -23 16 -42 16 -74 -2z"/>
<path d="M3258 1664 c-34 -22 -57 -58 -44 -71 3 -3 36 2 73 11 104 25 121 57
41 75 -27 6 -41 3 -70 -15z"/>
<path d="M4093 1677 c-17 -7 -35 -16 -40 -20 -14 -14 51 5 67 19 17 16 15 16
-27 1z"/>
<path d="M4265 1663 c-96 -8 -107 -21 -28 -33 49 -8 96 5 90 24 -4 12 -12 13
-62 9z"/>
<path d="M3570 1634 c-19 -8 -43 -17 -52 -20 -24 -8 -23 -21 3 -35 19 -10 26
-6 55 27 31 34 39 46 32 43 -2 0 -19 -7 -38 -15z"/>
<path d="M3167 1616 c-9 -7 -17 -16 -17 -20 0 -11 27 -6 39 8 16 19 0 27 -22
12z"/>
<path d="M4358 1593 c6 -2 18 -2 25 0 6 3 1 5 -13 5 -14 0 -19 -2 -12 -5z"/>
<path d="M3354 1575 c3 -10 -1 -15 -13 -15 -11 0 -21 5 -23 12 -3 9 -15 9 -50
0 -26 -7 -70 -12 -97 -12 -28 0 -51 -2 -51 -5 0 -3 7 -22 15 -41 24 -58 70
-107 70 -76 0 4 5 21 12 37 6 17 14 39 17 49 4 10 9 17 12 14 2 -3 -2 -25 -10
-49 -22 -64 -28 -120 -17 -154 8 -25 9 -26 10 -7 1 23 17 30 23 11 5 -15 73
19 154 76 78 56 90 70 74 90 -7 8 -10 26 -7 40 6 33 -16 45 -78 45 -38 0 -46
-3 -41 -15z m-30 -101 c9 -3 16 -10 16 -16 0 -14 -43 -5 -48 10 -4 13 7 15 32
6z"/>
<path d="M3497 1563 c-10 -9 -8 -43 2 -43 5 0 14 7 21 15 17 21 -4 48 -23 28z"/>
<path d="M3023 1532 c-12 -14 -23 -30 -23 -36 1 -16 167 -123 177 -113 9 10
-7 43 -35 73 -36 37 -65 84 -53 84 5 0 12 -7 15 -16 4 -9 9 -14 12 -11 3 3 1
14 -5 25 -15 28 -59 25 -88 -6z"/>
<path d="M3560 1480 c-14 -12 -41 -28 -60 -36 -19 -9 -29 -18 -22 -21 12 -5
74 28 117 61 15 11 16 15 5 15 -8 1 -26 -8 -40 -19z"/>
<path d="M3655 1480 c-27 -30 -11 -35 21 -6 21 18 24 25 13 26 -9 0 -24 -9
-34 -20z"/>
<path d="M2972 1468 c-16 -16 -15 -35 1 -41 9 -4 8 -8 -3 -16 -13 -9 -12 -12
8 -17 23 -7 29 -20 11 -26 -9 -3 0 -53 26 -135 3 -8 17 -6 47 9 23 11 62 29
85 39 31 13 43 24 43 39 0 23 -33 60 -53 60 -7 0 -31 15 -53 33 -36 31 -89 67
-97 67 -1 0 -8 -5 -15 -12z"/>
<path d="M3525 1390 c-3 -5 -13 -10 -22 -10 -19 0 -245 -110 -255 -125 -5 -5
-7 -17 -6 -25 0 -8 -4 -26 -9 -40 -8 -20 -7 -26 5 -31 14 -5 13 -7 -3 -17 -25
-13 -13 -26 17 -19 43 11 321 277 289 277 -5 0 -13 -4 -16 -10z"/>
<path d="M3105 1192 c-53 -28 -71 -43 -73 -61 -3 -21 -1 -23 20 -17 12 3 42 9
66 13 27 4 48 14 57 27 16 21 21 76 8 76 -5 0 -39 -17 -78 -38z"/>
<path d="M3053 1088 c-39 -13 -41 -21 -10 -43 20 -15 20 -16 2 -13 -20 3 -34
-27 -18 -42 9 -9 144 78 150 96 5 14 -82 15 -124 2z"/>
<path d="M2760 947 c0 -38 -66 -61 -90 -32 -17 21 -42 19 -62 -5 -17 -19 -16
-19 20 -25 20 -4 59 -15 86 -26 27 -10 52 -19 56 -19 4 0 13 20 20 44 9 33 9
49 1 65 -15 28 -31 27 -31 -2z"/>
<path d="M3136 781 c-4 -7 -5 -15 -2 -18 9 -9 19 4 14 18 -4 11 -6 11 -12 0z"/>
<path d="M4270 776 c0 -8 7 -16 15 -20 10 -4 15 1 15 14 0 11 -7 20 -15 20 -8
0 -15 -6 -15 -14z"/>
<path d="M346 725 c-3 -8 -1 -15 4 -15 13 0 22 18 11 24 -5 3 -11 -1 -15 -9z"/>
<path d="M45 570 c-4 -6 -15 -8 -26 -5 -16 5 -19 1 -19 -25 l0 -32 32 19 c18
11 34 27 36 36 4 19 -13 23 -23 7z"/>
<path d="M43 516 l-43 -42 0 -237 0 -237 25 0 c24 0 25 3 25 58 0 56 6 99 34
237 10 51 11 74 3 87 -8 13 -8 30 2 65 35 123 25 138 -46 69z"/>
<path d="M136 15 c-19 -14 -18 -15 13 -15 29 0 32 2 21 15 -7 8 -13 15 -14 15
0 0 -10 -7 -20 -15z"/>
</g>
</svg>
