<?xml version="1.0" standalone="no"?>
<!DOCTYPE svg PUBLIC "-//W3C//DTD SVG 20010904//EN"
 "http://www.w3.org/TR/2001/REC-SVG-20010904/DTD/svg10.dtd">
<svg version="1.0" xmlns="http://www.w3.org/2000/svg"
 width="480.000000pt" height="360.000000pt" viewBox="0 0 480.000000 360.000000"
 preserveAspectRatio="xMidYMid meet">
<metadata>
Created by potrace 1.16, written by Peter Selinger 2001-2019
</metadata>
<rect width="1" height="360" fill="#000000"/>
<rect x="479" width="1" height="360" fill="#000000"/>
<rect width="480" height="1" fill="#000000"/>
<rect y="359" width="480" height="1" fill="#000000"/>
<g transform="translate(0.000000,360.000000) scale(0.100000,-0.100000)"
fill="#000000" stroke="none">
<path d="M0 2096 c0 -1194 3 -1506 13 -1510 10 -5 10 -7 0 -12 -10 -4 -13 -72
-13 -290 l0 -284 306 0 c275 0 305 2 294 15 -15 18 -16 17 60 70 30 22 57 43
60 47 10 13 94 48 118 48 12 0 22 5 22 10 0 6 -6 10 -13 10 -8 0 -24 12 -38
26 -42 45 -78 58 -156 56 -50 0 -75 3 -80 12 -5 7 -27 25 -50 39 -23 14 -44
30 -47 35 -8 13 46 85 83 111 20 14 31 31 31 46 0 41 19 69 75 108 29 20 57
37 61 37 25 0 94 35 94 47 0 10 6 12 22 7 40 -12 74 -6 164 31 212 87 327 170
471 337 49 56 112 129 142 162 48 54 51 61 32 64 -22 4 -28 21 -11 38 6 6 -5
34 -32 78 l-41 69 6 86 c3 47 16 133 28 191 13 66 23 161 26 254 6 148 5 149
-16 143 -18 -4 -19 -2 -10 14 8 16 6 19 -13 19 -43 0 -68 12 -68 32 0 15 -5
18 -21 13 -13 -5 -25 -2 -30 6 -5 9 -20 0 -52 -35 -36 -40 -57 -53 -113 -71
-74 -24 -88 -39 -99 -106 -12 -79 -64 -121 -180 -146 -37 -8 -40 -10 -47 -53
-17 -103 -25 -110 -126 -121 -35 -3 -65 -8 -67 -11 -3 -2 -1 -18 4 -35 13 -44
-6 -68 -45 -59 -16 4 -37 7 -46 7 -52 0 -106 152 -128 360 -21 192 28 437 125
629 37 73 39 96 8 68 -22 -19 -94 -50 -101 -43 -3 2 15 25 40 49 33 34 55 47
87 52 35 6 45 13 61 43 10 20 38 63 62 96 l44 60 -98 99 c-54 54 -96 101 -94
104 6 5 90 -54 163 -115 28 -24 55 -43 60 -43 4 0 40 28 78 62 39 34 97 82
130 106 33 24 59 48 58 53 -2 5 4 9 12 9 9 0 62 24 118 54 120 64 247 109 371
131 176 30 440 11 495 -37 14 -12 31 -26 36 -31 6 -5 -2 -5 -17 -2 -32 8 -33
6 -13 -42 31 -73 17 -100 -55 -105 l-45 -3 -1 -55 c-1 -91 -3 -100 -32 -130
-20 -19 -44 -31 -76 -35 -38 -6 -49 -13 -57 -32 -14 -38 -11 -46 28 -73 75
-50 116 -96 150 -165 39 -81 39 -84 14 -133 -31 -61 -91 -113 -74 -64 5 13 3
14 -7 5 -14 -13 -40 -114 -40 -160 0 -26 -3 -30 -19 -26 -13 3 -21 -2 -26 -16
-3 -12 -11 -21 -16 -21 -6 0 -7 9 -4 20 4 11 2 20 -4 20 -6 0 -11 -5 -11 -11
0 -5 -4 -8 -9 -4 -5 3 -12 1 -16 -5 -3 -5 -16 -8 -29 -4 -14 3 -27 -1 -35 -10
-19 -23 4 -49 36 -41 18 4 27 -1 41 -25 11 -16 71 -78 135 -136 65 -58 117
-106 117 -107 0 -1 9 -27 19 -56 17 -51 41 -80 41 -49 0 8 6 22 13 32 12 17
15 16 45 -12 27 -25 32 -37 32 -76 0 -43 2 -46 25 -46 17 0 41 -15 71 -45 25
-24 54 -47 65 -50 12 -4 19 -15 19 -30 0 -28 26 -45 69 -45 38 0 61 31 61 84
0 31 -7 45 -36 72 -19 19 -40 34 -45 34 -5 0 -9 11 -9 25 0 55 96 13 137 -60
28 -50 29 -94 3 -146 -38 -74 -128 -102 -184 -58 l-27 21 -38 -35 c-21 -19
-48 -38 -60 -42 -12 -3 -21 -13 -21 -21 0 -8 -6 -14 -13 -14 -7 0 -28 -11 -47
-25 -19 -14 -48 -25 -64 -25 -54 0 -59 -9 -51 -91 4 -41 16 -144 26 -229 11
-85 26 -236 34 -335 8 -99 27 -286 41 -415 14 -129 24 -259 22 -287 l-3 -53
1258 0 1257 0 0 1078 0 1078 -22 1 c-13 1 -34 5 -47 8 -29 8 -16 25 32 41 l32
11 3 691 2 692 -1343 0 c-1331 0 -1342 0 -1355 -20 -7 -11 -19 -20 -27 -20 -8
0 -15 9 -15 20 0 20 -7 20 -1030 20 l-1030 0 0 -1504z m2127 1417 c51 -34 0
-55 -52 -23 -46 29 -48 54 -3 44 18 -3 43 -13 55 -21z m-1664 -237 c11 -28
-45 -102 -66 -89 -13 8 2 55 25 81 25 26 34 27 41 8z m3076 -517 c43 -15 39
-29 -9 -29 -22 0 -40 2 -40 4 0 2 -3 11 -6 20 -7 19 10 21 55 5z m1225 -40
c18 -44 21 -95 7 -104 -14 -8 -61 58 -61 86 1 74 28 84 54 18z m-568 -186 c35
-20 44 -29 31 -31 -20 -4 -78 27 -85 46 -5 17 -1 16 54 -15z m-893 0 c30 -8
-60 -50 -124 -58 -60 -7 -77 1 -56 29 27 37 106 50 180 29z m-580 -333 l29
-30 -19 -40 c-10 -22 -21 -40 -24 -40 -17 0 -40 72 -33 105 3 19 9 35 13 35 3
0 19 -13 34 -30z m-369 4 c30 -12 18 -34 -18 -34 -56 0 -56 18 1 39 1 1 8 -2
17 -5z m1956 -63 c-20 -34 -85 -80 -97 -68 -9 9 41 78 66 92 46 25 54 19 31
-24z m-1810 -291 c0 -18 -39 28 -40 47 0 6 -3 20 -6 30 -3 10 6 0 20 -22 14
-22 26 -47 26 -55z m655 -69 c3 -5 1 -13 -5 -16 -14 -9 -70 4 -70 16 0 12 67
12 75 0z m793 -114 c6 -6 13 -24 17 -40 10 -38 -10 -34 -26 6 -7 17 -14 35
-17 40 -6 12 15 8 26 -6z m-536 -54 c27 -30 53 -73 43 -73 -31 0 -95 64 -95
95 0 14 29 2 52 -22z m-2022 -15 c25 -27 25 -38 1 -38 -20 0 -71 36 -71 51 0
18 49 9 70 -13z m-135 -128 c-4 -17 -13 -30 -21 -30 -20 0 -29 47 -15 77 l12
26 15 -22 c10 -14 13 -32 9 -51z m-999 -61 c50 -31 42 -46 -20 -40 -24 2 -56
29 -56 48 0 20 38 16 76 -8z m203 -130 c32 -11 44 -40 14 -34 -61 12 -71 16
-77 30 -7 18 17 20 63 4z m4087 -104 c26 -19 -1 -20 -36 0 -23 13 -23 14 -4
15 11 0 29 -7 40 -15z m-1646 -79 c0 -6 -7 -2 -15 8 -8 11 -15 25 -15 30 0 6
7 2 15 -8 8 -11 15 -25 15 -30z m1210 -76 c25 -13 52 -48 46 -58 -9 -15 -88 6
-113 30 -36 34 -30 50 15 42 20 -4 44 -10 52 -14z m-162 -86 c28 -19 52 -65
52 -99 l0 -26 -30 21 c-28 20 -70 86 -70 110 0 15 22 12 48 -6z m-3868 -309
c0 -18 -7 -26 -26 -31 -37 -9 -52 10 -29 36 26 29 55 26 55 -5z m3909 -481
c23 -29 27 -54 11 -54 -20 0 -62 34 -71 58 -19 51 19 48 60 -4z"/>
<path d="M2170 1725 c-7 -42 -11 -77 -9 -80 3 -2 23 -1 46 2 41 5 42 7 49 51
6 43 5 47 -27 73 -19 16 -37 29 -40 29 -3 0 -12 -34 -19 -75z"/>
<path d="M885 99 c-44 -33 -98 -69 -120 -80 l-40 -19 213 0 c116 0 212 3 212
8 0 4 -11 27 -23 52 -17 33 -34 51 -67 67 -82 40 -87 40 -175 -28z"/>
</g>
</svg>
