<?xml version="1.0" standalone="no"?>
<!DOCTYPE svg PUBLIC "-//W3C//DTD SVG 20010904//EN"
 "http://www.w3.org/TR/2001/REC-SVG-20010904/DTD/svg10.dtd">
<svg version="1.0" xmlns="http://www.w3.org/2000/svg"
 width="480.000000pt" height="360.000000pt" viewBox="0 0 480.000000 360.000000"
 preserveAspectRatio="xMidYMid meet">
<metadata>
Created by potrace 1.16, written by Peter Selinger 2001-2019
</metadata>
<rect width="1" height="360" fill="#000000"/>
<rect x="479" width="1" height="360" fill="#000000"/>
<rect width="480" height="1" fill="#000000"/>
<rect y="359" width="480" height="1" fill="#000000"/>
<g transform="translate(0.000000,360.000000) scale(0.100000,-0.100000)"
fill="#000000" stroke="none">
<path d="M2365 3110 c-178 -10 -232 -28 -303 -103 -57 -62 -72 -88 -100 -177
-27 -87 -37 -187 -23 -235 12 -46 6 -58 -75 -126 -44 -37 -66 -49 -90 -49 -39
0 -47 -10 -35 -43 7 -18 6 -30 -4 -43 -22 -29 -18 -40 22 -59 20 -10 63 -37
96 -61 32 -24 65 -44 72 -44 7 0 19 10 28 23 21 31 42 11 27 -27 -15 -41 -11
-54 9 -28 23 27 27 27 34 2 7 -27 -47 -133 -84 -164 -39 -33 -37 -40 12 -32
l42 7 -6 -38 c-3 -21 -9 -49 -12 -63 -6 -22 -1 -19 35 18 39 40 43 42 56 25
14 -19 17 -38 14 -88 l-1 -30 25 29 c14 16 26 38 26 49 0 21 0 21 15 1 8 -10
15 -36 15 -58 0 -33 2 -37 15 -26 13 11 18 10 29 -6 20 -27 28 -13 15 25 -18
50 -4 47 30 -8 17 -28 35 -51 41 -51 6 0 10 27 10 63 l0 62 25 -44 c14 -23 25
-58 25 -77 0 -43 -10 -47 -165 -69 -140 -19 -210 -44 -252 -87 -41 -44 -143
-185 -168 -232 -20 -37 -21 -38 -65 -32 -139 16 -224 69 -385 241 -87 93 -143
142 -217 192 l-100 67 5 41 c3 22 2 47 -3 55 -11 18 -29 3 -112 -95 -172 -202
-325 -335 -568 -495 -157 -104 -200 -137 -200 -152 0 -5 57 -6 128 -2 144 8
165 1 264 -76 57 -46 84 -56 103 -40 8 7 39 49 69 94 69 101 81 116 94 116 9
0 27 -40 57 -128 9 -26 25 -10 41 44 9 30 22 58 29 60 45 18 167 -95 186 -170
6 -25 14 -46 16 -46 3 0 37 11 75 25 135 49 207 30 305 -80 32 -36 65 -68 75
-70 9 -4 48 15 93 45 103 67 127 66 139 -5 5 -30 0 -59 -19 -115 -14 -41 -32
-115 -40 -165 -13 -85 -12 -92 6 -122 28 -44 117 -88 165 -80 42 7 60 20 86
62 l18 30 -6 -65 c-9 -99 -43 -209 -71 -227 -12 -8 -21 -19 -18 -23 6 -10 -33
-99 -54 -124 -9 -10 -17 -37 -17 -62 l-1 -44 536 0 536 0 30 55 c25 46 28 58
17 73 -7 9 -19 32 -28 50 -8 18 -22 36 -32 39 -27 10 -32 24 -32 96 l0 67 33
0 c49 0 104 18 134 44 l27 24 8 188 c8 180 9 190 30 206 13 9 23 23 23 30 0 7
10 14 23 16 34 5 36 25 8 67 -31 45 -32 52 -8 59 9 3 33 20 52 37 33 31 36 32
80 20 66 -17 250 -110 365 -185 55 -36 111 -66 124 -66 13 0 37 11 53 26 52
43 124 74 172 74 49 0 147 -45 215 -99 22 -17 42 -31 45 -31 3 0 14 17 25 39
13 24 33 45 57 56 57 27 165 55 211 55 l43 0 0 -58 c0 -32 3 -61 6 -65 4 -3
24 17 45 45 48 64 89 92 129 86 l30 -5 0 291 0 291 -39 60 c-62 94 -95 129
-114 122 -10 -4 -17 -17 -17 -31 0 -46 -38 -73 -150 -106 -116 -36 -157 -55
-340 -159 -167 -96 -255 -124 -385 -125 -57 0 -141 7 -196 18 -121 23 -148 20
-169 -19 -15 -26 -23 -30 -56 -29 -85 1 -89 5 -124 108 -35 105 -74 173 -114
200 -27 17 -202 66 -241 66 -35 0 -175 72 -174 89 0 9 7 34 15 56 l14 40 -4
-50 -4 -50 16 33 c15 31 32 43 32 22 0 -5 7 -10 15 -10 8 0 15 5 15 11 0 5 5
7 10 4 6 -3 11 2 11 12 1 10 5 0 8 -22 l6 -40 29 43 c35 51 47 53 39 7 -3 -19
-3 -35 1 -35 3 0 22 31 41 70 19 39 39 70 44 70 5 0 16 -11 25 -25 19 -29 36
-33 36 -7 0 30 11 33 47 11 19 -12 36 -19 39 -17 2 3 -8 26 -22 53 -30 52 -24
65 29 65 15 0 27 1 27 3 0 2 -20 24 -44 49 -43 45 -66 96 -47 107 5 3 17 25
26 49 10 23 26 47 36 53 22 11 59 79 59 108 0 11 -16 32 -36 47 -29 22 -74 88
-74 108 0 7 44 -6 65 -21 11 -7 25 -13 31 -13 7 0 47 -16 88 -35 42 -19 82
-36 88 -38 31 -6 60 161 38 219 -6 15 -8 29 -5 32 3 3 31 7 63 9 80 4 83 4
125 14 45 12 47 31 7 60 -67 50 -151 217 -157 314 -2 33 -6 66 -8 73 -9 26
-140 4 -160 -28 -3 -5 -14 -10 -24 -10 -10 0 -25 -7 -32 -16 -13 -15 -100 -75
-147 -101 -21 -11 -26 -10 -50 19 -47 55 -75 78 -137 108 -103 51 -170 56
-490 40z"/>
</g>
</svg>
