<?xml version="1.0" standalone="no"?>
<!DOCTYPE svg PUBLIC "-//W3C//DTD SVG 20010904//EN"
 "http://www.w3.org/TR/2001/REC-SVG-20010904/DTD/svg10.dtd">
<svg version="1.0" xmlns="http://www.w3.org/2000/svg"
 width="480.000000pt" height="360.000000pt" viewBox="0 0 480.000000 360.000000"
 preserveAspectRatio="xMidYMid meet">
<metadata>
Created by potrace 1.16, written by Peter Selinger 2001-2019
</metadata>
<rect width="1" height="360" fill="#000000"/>
<rect x="479" width="1" height="360" fill="#000000"/>
<rect width="480" height="1" fill="#000000"/>
<rect y="359" width="480" height="1" fill="#000000"/>
<g transform="translate(0.000000,360.000000) scale(0.100000,-0.100000)"
fill="#000000" stroke="none">
<path d="M0 1800 l0 -1800 599 0 599 0 38 67 c106 184 443 346 806 389 56 6
56 7 62 46 4 21 2 46 -3 55 -5 10 -5 30 1 50 5 18 13 66 18 106 4 39 20 146
35 236 l26 165 -25 20 c-14 12 -37 46 -51 76 -29 65 -34 181 -11 248 8 22 13
42 10 44 -2 3 1 19 7 36 13 37 43 53 158 82 91 24 145 22 196 -4 17 -9 35 -16
42 -16 7 0 28 -7 47 -16 35 -17 46 -36 51 -89 1 -16 10 -55 19 -85 21 -73 20
-112 -4 -143 -11 -14 -20 -31 -20 -39 0 -8 -7 -23 -15 -34 -18 -24 -19 -43 -1
-63 20 -24 43 -97 55 -176 6 -38 18 -113 26 -165 9 -52 19 -146 23 -209 l7
-114 120 -22 c380 -70 659 -219 747 -399 l22 -46 608 0 608 0 0 1800 0 1800
-2400 0 -2400 0 0 -1800z"/>
<path d="M2010 271 c-92 -29 -185 -79 -239 -127 -47 -42 -91 -107 -91 -134 0
-6 68 -10 200 -10 153 0 200 3 200 13 0 6 7 68 15 137 8 69 15 128 15 133 0
11 -40 7 -100 -12z"/>
<path d="M2688 279 c-2 -6 3 -71 11 -145 l14 -134 194 0 c221 0 217 -2 163 83
-47 74 -156 144 -294 186 -79 24 -83 25 -88 10z"/>
</g>
</svg>
