<?xml version="1.0" standalone="no"?>
<!DOCTYPE svg PUBLIC "-//W3C//DTD SVG 20010904//EN"
 "http://www.w3.org/TR/2001/REC-SVG-20010904/DTD/svg10.dtd">
<svg version="1.0" xmlns="http://www.w3.org/2000/svg"
 width="480.000000pt" height="360.000000pt" viewBox="0 0 480.000000 360.000000"
 preserveAspectRatio="xMidYMid meet">
<metadata>
Created by potrace 1.16, written by Peter Selinger 2001-2019
</metadata>
<rect width="1" height="360" fill="#000000"/>
<rect x="479" width="1" height="360" fill="#000000"/>
<rect width="480" height="1" fill="#000000"/>
<rect y="359" width="480" height="1" fill="#000000"/>
<g transform="translate(0.000000,360.000000) scale(0.100000,-0.100000)"
fill="#000000" stroke="none">
<path d="M0 1800 l0 -1800 400 0 c220 0 400 2 400 4 0 2 -16 28 -36 58 -48 72
-145 274 -182 378 -117 334 -192 820 -192 1239 0 148 14 411 25 477 5 29 3 31
-49 53 -64 26 -126 89 -126 126 0 65 56 137 134 174 51 24 86 27 104 9 20 -20
13 -46 -24 -88 l-36 -40 25 -9 c42 -16 402 -34 594 -29 l178 4 90 38 c219 92
334 111 629 103 178 -5 355 -27 466 -57 29 -8 38 -7 54 10 20 19 20 19 -30 14
-38 -5 -53 -3 -63 9 -20 24 -5 51 60 112 l61 56 5 134 c5 106 10 141 24 165
50 82 340 240 440 240 39 0 76 -20 167 -88 l73 -55 62 21 c109 38 156 45 183
27 13 -8 24 -20 24 -25 0 -17 -81 -100 -128 -132 -39 -27 -43 -34 -38 -60 3
-16 30 -65 60 -109 46 -66 52 -79 35 -79 -14 0 -19 -7 -19 -29 0 -39 -9 -61
-26 -61 -8 0 -14 -4 -14 -10 0 -5 -16 -20 -35 -32 -42 -28 -43 -43 -8 -80 l27
-28 -26 -28 c-24 -26 -35 -61 -56 -177 -5 -27 -13 -58 -17 -67 -5 -14 3 -22
39 -40 40 -19 48 -20 71 -8 23 12 28 11 54 -8 15 -11 44 -28 62 -36 100 -47
175 -96 189 -125 10 -20 49 -53 110 -93 52 -35 117 -80 143 -100 47 -36 49
-36 82 -22 45 19 52 18 79 -8 13 -13 32 -28 42 -34 11 -6 23 -20 29 -32 5 -11
19 -26 31 -33 21 -11 33 -43 37 -101 1 -17 24 -52 62 -95 187 -211 271 -338
429 -648 48 -93 96 -181 106 -195 19 -25 20 -7 20 1493 l0 1517 -2400 0 -2400
0 0 -1800z"/>
<path d="M1635 2326 c-118 -17 -173 -36 -281 -98 -106 -61 -173 -85 -257 -93
-107 -11 -102 -7 -115 -79 -27 -143 -34 -346 -29 -791 5 -470 12 -560 58 -773
27 -124 90 -319 134 -416 l35 -76 542 2 542 3 37 181 c57 284 81 347 211 553
51 80 98 163 106 185 12 34 15 97 13 346 -2 189 2 344 9 408 7 56 9 114 5 130
l-7 27 -13 -32 c-15 -36 -35 -44 -35 -14 0 10 11 61 24 112 14 51 22 97 20
101 -3 4 -15 8 -27 8 -37 1 -103 36 -152 81 -52 48 -76 87 -84 139 -6 30 -11
36 -51 48 -155 46 -521 72 -685 48z"/>
<path d="M3116 1987 c4 -6 19 -30 34 -52 15 -22 39 -59 55 -82 28 -43 64 -61
50 -25 -3 9 -11 40 -17 69 -10 48 -14 53 -52 69 -22 10 -49 22 -59 26 -13 6
-16 4 -11 -5z"/>
<path d="M3556 1735 c-3 -10 8 -24 34 -41 22 -15 40 -31 40 -36 0 -16 -31 -71
-97 -168 -46 -68 -60 -96 -49 -98 17 -4 103 38 164 80 23 16 67 40 96 54 30
14 57 34 63 47 10 22 4 28 -103 100 -63 42 -121 77 -128 77 -8 0 -16 -7 -20
-15z"/>
<path d="M4021 1376 c-17 -18 -25 -42 -30 -88 -4 -35 -10 -68 -14 -74 -10 -16
-80 -32 -172 -39 -108 -9 -191 -29 -297 -72 -68 -27 -98 -34 -128 -30 -37 5
-40 3 -50 -28 -17 -53 -42 -68 -97 -63 -27 3 -56 9 -65 13 -28 11 -23 -43 26
-289 25 -122 54 -308 66 -416 11 -107 23 -216 26 -243 l6 -47 754 0 754 0 0
141 0 141 -41 42 c-61 61 -100 126 -227 381 -62 126 -134 261 -159 300 -72
110 -186 254 -260 328 l-69 68 -23 -25z"/>
</g>
</svg>
