<?xml version="1.0" standalone="no"?>
<!DOCTYPE svg PUBLIC "-//W3C//DTD SVG 20010904//EN"
 "http://www.w3.org/TR/2001/REC-SVG-20010904/DTD/svg10.dtd">
<svg version="1.0" xmlns="http://www.w3.org/2000/svg"
 width="480.000000pt" height="360.000000pt" viewBox="0 0 480.000000 360.000000"
 preserveAspectRatio="xMidYMid meet">
<metadata>
Created by potrace 1.16, written by Peter Selinger 2001-2019
</metadata>
<rect width="1" height="360" fill="#000000"/>
<rect x="479" width="1" height="360" fill="#000000"/>
<rect width="480" height="1" fill="#000000"/>
<rect y="359" width="480" height="1" fill="#000000"/>
<g transform="translate(0.000000,360.000000) scale(0.100000,-0.100000)"
fill="#000000" stroke="none">
<path d="M0 2175 l0 -1425 104 0 104 0 6 31 c9 49 7 244 -3 255 -6 5 3 34 23
74 30 60 36 65 72 71 21 3 52 11 68 18 l29 12 -6 79 -5 79 43 17 c45 17 66 53
46 78 -12 14 7 66 24 66 15 0 38 -54 25 -58 -13 -5 -13 -48 0 -72 5 -10 26
-24 45 -30 34 -11 46 -32 25 -45 -5 -3 -10 -32 -10 -64 0 -57 0 -58 37 -74 21
-9 49 -18 63 -19 19 -2 31 -15 49 -50 13 -27 22 -58 21 -70 -1 -13 -4 -85 -6
-160 -4 -118 -3 -138 10 -138 24 0 30 21 27 100 l-2 75 53 84 c29 46 57 84 63
84 5 0 31 -38 57 -84 43 -75 48 -90 48 -146 0 -34 3 -64 8 -66 4 -3 142 -10
307 -17 165 -6 311 -14 324 -16 13 -3 52 -32 86 -65 34 -32 65 -59 68 -59 4 0
7 84 7 188 l1 187 42 59 c23 33 47 61 53 63 7 2 32 -29 58 -69 l46 -72 -5
-171 c-3 -93 -7 -317 -10 -498 l-6 -327 1406 0 1405 0 0 1800 0 1800 -2400 0
-2400 0 0 -1425z m3181 669 c28 -25 44 -71 30 -88 -18 -21 18 -108 51 -123 14
-7 60 -18 103 -25 50 -8 79 -17 83 -27 6 -16 -50 -71 -74 -71 -21 0 -9 -37 22
-70 l23 -26 -40 3 c-36 2 -40 0 -36 -17 4 -15 0 -19 -17 -17 -14 1 -21 -3 -20
-14 1 -11 -6 -15 -22 -13 -18 2 -24 -3 -25 -19 -2 -53 -4 -127 -3 -127 1 0 27
15 57 34 53 31 143 64 152 55 9 -10 -17 -96 -40 -130 l-24 -37 127 -2 c70 -1
144 -3 166 -3 l38 -1 -27 -21 -26 -22 53 -23 c29 -13 47 -25 41 -27 -26 -9
-12 -23 32 -34 48 -12 69 -29 37 -29 -10 0 -22 -3 -25 -7 -10 -9 13 -33 32
-33 9 0 24 -12 35 -26 18 -26 18 -26 0 -21 -86 24 -96 16 -51 -38 21 -26 26
-37 14 -32 -20 7 -22 -4 -5 -21 9 -9 5 -12 -18 -12 -27 -1 -27 -2 -9 -12 30
-16 31 -18 15 -28 -10 -6 0 -15 41 -34 33 -16 43 -24 26 -21 -19 4 -26 2 -22
-5 8 -14 -5 -13 -54 5 -40 14 -41 14 -31 -5 6 -11 7 -20 3 -21 -4 -1 10 -7 32
-15 l40 -13 -48 1 c-38 2 -51 -2 -59 -15 -7 -13 -6 -23 2 -33 16 -18 -1 -18
-26 1 -10 8 -27 15 -37 15 -17 0 -17 -2 -3 -22 30 -43 16 -48 -25 -8 -23 22
-47 40 -54 40 -17 0 -25 -43 -12 -65 6 -12 6 -16 -1 -11 -6 3 -13 -7 -17 -24
-4 -16 -11 -30 -16 -30 -6 0 -7 9 -4 20 3 11 2 20 -4 20 -5 0 -11 10 -13 21
-2 12 -10 25 -18 29 -8 4 -38 19 -66 33 l-52 27 -4 -55 c-5 -64 -28 -95 -69
-95 -31 0 -59 31 -59 67 0 12 -5 45 -11 72 -9 41 -16 53 -41 66 -41 20 -65 19
-72 -2 -52 -181 -59 -191 -102 -148 -16 16 -24 35 -24 59 0 31 -4 38 -35 50
-24 10 -35 22 -35 35 0 12 -7 21 -15 21 -17 0 -20 -16 -5 -25 13 -8 13 -45 1
-45 -6 0 -18 14 -28 30 -9 17 -25 30 -34 30 -9 0 -19 7 -23 15 -8 21 -26 19
-26 -3 0 -24 -8 -32 -26 -25 -11 4 -13 14 -9 34 5 23 3 29 -9 29 -20 0 -41 43
-33 64 5 12 21 16 65 16 l58 0 18 41 c10 23 35 53 59 70 75 54 93 175 32 215
-14 9 -25 26 -25 38 0 11 -8 42 -17 69 -16 45 -16 48 4 90 23 49 19 118 -11
176 -17 32 -20 33 -62 27 -24 -3 -54 -8 -67 -11 -16 -4 -24 -2 -24 7 0 7 -2
19 -4 27 -3 9 15 22 51 36 63 26 70 37 35 53 -14 6 -25 16 -25 22 0 13 6 13
39 -5 27 -13 30 -12 63 18 19 18 41 43 48 57 22 43 72 101 94 111 27 11 75 3
97 -17z"/>
<path d="M2935 1830 c-3 -5 -1 -10 4 -10 6 0 11 5 11 10 0 6 -2 10 -4 10 -3 0
-8 -4 -11 -10z"/>
<path d="M3684 1641 c6 -9 66 -33 66 -26 0 2 -7 11 -16 19 -16 17 -59 23 -50
7z"/>
</g>
</svg>
