<?xml version="1.0" standalone="no"?>
<!DOCTYPE svg PUBLIC "-//W3C//DTD SVG 20010904//EN"
 "http://www.w3.org/TR/2001/REC-SVG-20010904/DTD/svg10.dtd">
<svg version="1.0" xmlns="http://www.w3.org/2000/svg"
 width="480.000000pt" height="360.000000pt" viewBox="0 0 480.000000 360.000000"
 preserveAspectRatio="xMidYMid meet">
<metadata>
Created by potrace 1.16, written by Peter Selinger 2001-2019
</metadata>
<rect width="1" height="360" fill="#000000"/>
<rect x="479" width="1" height="360" fill="#000000"/>
<rect width="480" height="1" fill="#000000"/>
<rect y="359" width="480" height="1" fill="#000000"/>
<g transform="translate(0.000000,360.000000) scale(0.100000,-0.100000)"
fill="#000000" stroke="none">
<path d="M4546 3592 c6 -4 25 -36 42 -72 23 -48 48 -80 94 -120 53 -47 100
-80 114 -80 2 0 4 63 4 140 l0 140 -132 0 c-73 0 -128 -4 -122 -8z"/>
<path d="M4776 3291 c-19 -21 -19 -22 0 -35 17 -13 19 -13 22 5 2 10 2 26 0
35 -2 14 -6 13 -22 -5z"/>
<path d="M486 2931 c-14 -5 -16 -10 -7 -15 9 -6 9 -11 0 -23 -10 -11 -10 -16
0 -22 9 -6 8 -11 -4 -21 -42 -35 -4 -86 90 -122 l60 -23 -52 -9 c-57 -10 -68
-22 -28 -32 24 -6 25 -7 8 -21 -17 -14 -17 -14 2 -9 20 6 20 6 1 -9 -11 -8
-25 -15 -31 -15 -6 0 -22 -11 -35 -25 -22 -23 -23 -27 -8 -41 18 -18 81 -33
141 -34 20 0 65 -8 98 -17 l61 -17 -57 -18 c-76 -24 -82 -28 -59 -46 13 -10
15 -16 7 -19 -23 -8 -14 -25 10 -18 21 7 21 6 -3 -11 -33 -24 -59 -56 -60 -72
0 -26 44 -33 175 -24 72 5 133 7 137 5 4 -2 -7 -17 -25 -33 -31 -27 -33 -56
-2 -30 9 8 15 8 15 2 0 -6 -5 -14 -10 -17 -20 -13 -10 -26 12 -14 20 11 20 10
-3 -20 -75 -99 -79 -108 -54 -117 17 -7 66 9 193 65 76 34 104 41 155 41 94 0
115 -10 204 -98 93 -92 122 -109 253 -146 52 -15 111 -35 130 -44 33 -16 35
-19 35 -69 0 -29 6 -58 13 -64 6 -7 12 -29 12 -49 0 -59 12 -66 155 -85 181
-24 174 -23 332 -56 174 -36 462 -111 688 -180 94 -28 206 -62 249 -75 95 -29
143 -30 442 -9 488 34 776 63 987 101 l87 16 0 408 0 407 -209 8 c-289 10
-356 -5 -395 -86 -20 -41 -24 -44 -71 -50 -27 -4 -63 -12 -78 -18 -16 -6 -41
-11 -56 -11 -15 0 -53 -7 -85 -15 -62 -16 -163 -36 -313 -63 -86 -15 -95 -14
-145 2 -29 10 -111 33 -183 51 -353 90 -528 139 -719 199 -115 36 -213 66
-218 66 -6 0 -24 6 -41 14 -63 28 -216 76 -242 76 -19 0 -38 -12 -61 -36 l-33
-37 -45 22 c-25 11 -49 21 -53 21 -11 0 -244 120 -273 140 -47 33 -346 189
-392 205 -26 8 -75 31 -110 51 -110 62 -363 155 -488 178 -45 9 -83 16 -84 15
0 0 -10 -4 -20 -8z"/>
<path d="M3450 123 c-46 -7 -77 -24 -91 -50 -7 -14 -26 -36 -42 -49 l-29 -24
409 0 408 1 -40 24 c-85 53 -283 95 -475 99 -63 2 -126 1 -140 -1z"/>
<path d="M3163 3 c20 -2 54 -2 75 0 20 2 3 4 -38 4 -41 0 -58 -2 -37 -4z"/>
</g>
</svg>
