<?xml version="1.0" standalone="no"?>
<!DOCTYPE svg PUBLIC "-//W3C//DTD SVG 20010904//EN"
 "http://www.w3.org/TR/2001/REC-SVG-20010904/DTD/svg10.dtd">
<svg version="1.0" xmlns="http://www.w3.org/2000/svg"
 width="480.000000pt" height="360.000000pt" viewBox="0 0 480.000000 360.000000"
 preserveAspectRatio="xMidYMid meet">
<metadata>
Created by potrace 1.16, written by Peter Selinger 2001-2019
</metadata>
<rect width="1" height="360" fill="#000000"/>
<rect x="479" width="1" height="360" fill="#000000"/>
<rect width="480" height="1" fill="#000000"/>
<rect y="359" width="480" height="1" fill="#000000"/>
<g transform="translate(0.000000,360.000000) scale(0.100000,-0.100000)"
fill="#000000" stroke="none">
<path d="M0 1800 l0 -1800 991 0 992 0 -7 42 c-15 103 -18 222 -7 310 7 52 16
164 20 249 5 94 15 179 26 218 19 66 16 111 -14 241 -5 25 -10 86 -11 135 0
112 -11 225 -20 225 -4 0 -23 -26 -43 -57 -20 -32 -58 -80 -85 -107 -71 -69
-101 -71 -259 -12 -66 25 -150 50 -185 57 -149 28 -162 33 -176 61 -7 16 -24
31 -38 34 -15 4 -24 13 -24 25 0 17 -6 18 -79 12 -85 -6 -223 10 -280 34 -53
21 -101 62 -101 85 0 16 5 19 24 16 21 -4 23 -1 22 25 -2 42 20 45 40 5 15
-28 19 -30 22 -13 7 33 20 40 41 21 15 -13 28 -17 48 -12 15 4 42 9 58 10 17
2 55 6 85 10 44 6 66 3 112 -14 l58 -21 23 27 c20 23 26 25 44 15 12 -6 35 -8
52 -5 23 5 46 -2 103 -34 80 -43 267 -116 276 -108 3 3 29 62 57 129 39 94 50
129 43 146 -14 39 2 69 77 149 40 42 80 92 89 111 10 18 32 48 49 66 18 18 49
56 70 86 21 30 56 67 78 83 35 27 48 53 33 68 -3 3 -21 1 -41 -5 -35 -11 -36
-11 -84 43 -27 30 -49 61 -49 67 0 7 -13 19 -30 28 -34 18 -35 22 -15 49 19
25 19 50 0 66 -9 8 -15 9 -15 2 0 -6 5 -14 10 -17 6 -3 10 -11 10 -17 0 -5
-16 4 -35 21 -20 17 -44 31 -53 31 -28 0 -72 53 -79 94 -5 34 -7 36 -24 20
-14 -13 -12 1 13 83 46 148 79 214 126 251 39 31 40 34 31 68 -6 19 -9 51 -7
72 l3 37 55 6 c30 3 69 1 86 -4 58 -18 76 -5 116 80 21 43 47 89 58 103 l21
25 16 -22 15 -23 48 40 c26 22 54 38 61 35 23 -9 97 -115 140 -201 48 -96 59
-153 35 -189 -16 -25 -16 -26 17 -55 41 -36 97 -140 126 -232 30 -101 49 -208
81 -478 29 -239 31 -249 85 -399 30 -84 55 -158 55 -164 0 -5 13 -37 29 -71
35 -74 64 -189 59 -236 l-3 -35 -24 38 c-38 62 -34 37 9 -47 59 -119 64 -154
34 -256 -29 -102 -61 -271 -68 -360 -5 -80 -11 -94 -40 -108 -25 -11 -39 -66
-51 -189 -3 -35 -15 -88 -25 -118 l-19 -56 24 -140 c14 -77 25 -142 25 -144 0
-3 421 -5 935 -5 l935 0 0 1800 0 1800 -2400 0 -2400 0 0 -1800z m1076 54 c53
-14 69 -23 94 -54 34 -43 37 -61 14 -95 -13 -20 -25 -25 -61 -25 -24 0 -58 7
-74 16 -17 8 -40 17 -51 19 -27 6 -48 24 -48 42 0 30 35 113 48 113 7 0 42 -7
78 -16z"/>
<path d="M2010 1269 c0 -53 3 -124 6 -157 l7 -61 28 15 c28 14 29 18 29 82 0
77 -20 155 -50 192 l-20 25 0 -96z"/>
</g>
</svg>
