<?xml version="1.0" standalone="no"?>
<!DOCTYPE svg PUBLIC "-//W3C//DTD SVG 20010904//EN"
 "http://www.w3.org/TR/2001/REC-SVG-20010904/DTD/svg10.dtd">
<svg version="1.0" xmlns="http://www.w3.org/2000/svg"
 width="480.000000pt" height="360.000000pt" viewBox="0 0 480.000000 360.000000"
 preserveAspectRatio="xMidYMid meet">
<metadata>
Created by potrace 1.16, written by Peter Selinger 2001-2019
</metadata>
<rect width="1" height="360" fill="#000000"/>
<rect x="479" width="1" height="360" fill="#000000"/>
<rect width="480" height="1" fill="#000000"/>
<rect y="359" width="480" height="1" fill="#000000"/>
<g transform="translate(0.000000,360.000000) scale(0.100000,-0.100000)"
fill="#000000" stroke="none">
<path d="M1445 3490 c-247 -51 -480 -341 -462 -574 9 -119 60 -219 158 -312
104 -97 197 -134 341 -134 86 0 118 -13 61 -25 -16 -4 -48 -15 -73 -27 -25
-11 -83 -30 -130 -42 l-85 -21 0 -50 c0 -42 -5 -56 -28 -79 -34 -34 -77 -101
-77 -120 0 -7 7 -19 16 -27 12 -10 20 -10 35 -1 25 16 64 -3 107 -53 54 -61
64 -88 60 -173 -3 -72 -2 -77 17 -74 20 2 20 -4 21 -245 1 -275 17 -516 39
-608 7 -33 19 -107 24 -165 6 -58 16 -123 22 -145 16 -60 27 -129 39 -235 6
-52 17 -117 25 -144 9 -28 15 -89 15 -143 0 -82 2 -93 18 -93 9 0 26 7 36 15
25 19 36 19 36 0 0 -8 9 -15 20 -15 23 0 27 31 9 77 -6 15 -11 73 -11 128 0
74 -7 125 -25 195 -13 52 -29 144 -34 205 -5 60 -16 130 -23 155 -20 64 -27
108 -32 218 -2 54 -8 113 -14 132 -10 34 -15 96 -24 315 l-5 110 22 -50 c54
-124 113 -183 227 -224 54 -20 268 -62 383 -76 31 -4 57 -11 57 -15 0 -4 -7
-21 -15 -36 -8 -16 -15 -37 -15 -46 0 -10 -28 -52 -63 -95 -68 -84 -97 -144
-124 -250 -15 -58 -18 -115 -18 -388 0 -176 4 -328 7 -337 7 -17 35 -18 382
-18 l375 0 -12 33 c-7 19 -12 86 -12 162 0 140 2 147 74 262 30 50 41 54 41
16 1 -25 4 -23 27 21 25 50 25 50 38 25 11 -21 54 -276 70 -414 4 -27 9 -62
11 -77 l6 -28 274 0 274 0 0 28 c0 65 -59 217 -141 363 -63 112 -64 86 6 474
28 155 63 287 103 390 63 160 72 177 87 171 7 -2 16 0 18 7 3 7 8 -1 11 -18
16 -68 32 -76 74 -38 29 27 39 35 94 71 15 10 41 37 58 60 17 23 34 42 38 42
4 0 16 15 27 33 10 17 34 51 52 75 18 24 33 50 33 57 0 8 7 18 15 22 18 10 65
163 65 211 0 72 -147 171 -237 158 -25 -3 -65 -15 -90 -26 -30 -13 -50 -17
-61 -10 -9 5 -25 11 -35 14 -25 8 -15 20 49 58 154 91 218 131 276 170 l57 38
53 -25 c67 -31 89 -31 172 0 37 14 84 25 105 25 51 0 71 8 71 30 0 26 -35 65
-92 102 l-51 33 63 7 c77 9 98 23 74 49 -9 10 -25 21 -35 24 -28 9 -24 16 32
60 29 22 78 63 110 91 32 28 80 66 108 85 58 39 68 65 21 55 -64 -12 -240 -89
-365 -158 -71 -39 -170 -91 -220 -116 -49 -24 -97 -50 -105 -57 -30 -26 -138
-74 -265 -119 -71 -24 -157 -57 -190 -73 -33 -15 -64 -29 -70 -31 -5 -2 5 10
23 27 18 17 39 47 48 66 25 61 -15 125 -80 125 -27 0 -35 -14 -15 -26 16 -10
-62 -86 -83 -81 -21 6 -58 -19 -58 -40 0 -11 -5 -13 -17 -8 -67 28 -161 57
-202 62 -27 3 -84 -2 -132 -11 -46 -8 -99 -18 -117 -20 -43 -6 -54 -16 -17
-16 38 0 24 -13 -40 -39 -33 -13 -42 -20 -27 -20 30 -1 28 -17 -4 -38 -34 -22
-74 -107 -74 -157 0 -33 2 -37 15 -26 12 10 15 9 15 -8 0 -11 3 -27 6 -35 11
-28 -32 -40 -81 -23 -52 17 -60 10 -50 -41 5 -28 2 -40 -15 -58 -12 -13 -20
-32 -18 -42 2 -11 -2 -31 -9 -44 -47 -96 -61 -159 -35 -159 4 0 27 -17 51 -38
l43 -37 -56 -114 c-55 -108 -58 -113 -84 -107 -126 29 -331 58 -445 63 -80 3
-141 11 -145 17 -5 6 -17 34 -27 61 -10 28 -44 109 -76 182 -33 72 -59 135
-59 139 0 4 7 15 16 25 15 17 14 21 -24 56 -22 21 -47 53 -56 71 -16 30 -16
34 1 57 10 13 21 25 26 25 4 0 7 6 7 14 0 7 7 27 15 42 8 16 15 40 15 53 0 22
4 20 43 -22 50 -55 147 -103 225 -113 64 -8 132 6 204 42 62 32 86 30 137 -7
37 -28 45 -30 66 -19 12 7 33 26 45 42 l21 29 -28 36 c-60 76 -58 67 -30 141
36 93 43 164 23 242 -40 154 -147 252 -299 275 -36 6 -47 11 -47 26 0 10 -7
22 -15 26 -10 6 -18 36 -25 88 -6 44 -17 103 -25 131 -31 108 -148 240 -263
298 -78 39 -200 60 -267 46z m-161 -1346 c5 -18 1 -23 -20 -28 -36 -9 -39 -3
-18 33 19 32 27 31 38 -5z m181 -457 c6 -22 4 -26 -9 -21 -10 4 -16 18 -16 37
0 36 15 27 25 -16z m10 -137 c0 -44 -18 -66 -27 -32 -8 29 3 83 16 79 6 -2 11
-23 11 -47z m13 -178 c3 -51 2 -53 -20 -50 -19 2 -24 10 -26 42 -4 49 3 68 25
64 14 -2 19 -15 21 -56z m5 -169 c5 -44 -8 -67 -24 -42 -10 17 -12 83 -2 93
11 11 20 -7 26 -51z m25 -176 c2 -36 -1 -49 -13 -53 -22 -9 -27 -1 -35 51 -8
50 -5 57 25 53 16 -2 21 -12 23 -51z m16 -170 c5 -26 6 -50 2 -54 -14 -14 -36
30 -36 70 0 54 22 43 34 -16z m29 -134 c2 -5 7 -25 11 -45 6 -31 3 -39 -15
-48 -11 -7 -23 -10 -25 -7 -9 9 -16 76 -11 92 7 16 33 21 40 8z m20 -180 c3
-5 8 -27 12 -50 6 -39 5 -43 -14 -43 -14 0 -21 6 -21 19 0 10 -3 33 -6 50 -5
24 -3 31 9 31 9 0 18 -3 20 -7z m43 -190 c3 -16 7 -33 9 -40 4 -13 -20 -43
-35 -43 -5 0 -11 8 -13 18 -21 76 -19 92 13 92 13 0 22 -9 26 -27z m12 -206
c2 -36 0 -47 -11 -47 -15 0 -32 73 -21 91 13 22 29 0 32 -44z"/>
</g>
</svg>
