<?xml version="1.0" standalone="no"?>
<!DOCTYPE svg PUBLIC "-//W3C//DTD SVG 20010904//EN"
 "http://www.w3.org/TR/2001/REC-SVG-20010904/DTD/svg10.dtd">
<svg version="1.0" xmlns="http://www.w3.org/2000/svg"
 width="480.000000pt" height="360.000000pt" viewBox="0 0 480.000000 360.000000"
 preserveAspectRatio="xMidYMid meet">
<metadata>
Created by potrace 1.16, written by Peter Selinger 2001-2019
</metadata>
<rect width="1" height="360" fill="#000000"/>
<rect x="479" width="1" height="360" fill="#000000"/>
<rect width="480" height="1" fill="#000000"/>
<rect y="359" width="480" height="1" fill="#000000"/>
<g transform="translate(0.000000,360.000000) scale(0.100000,-0.100000)"
fill="#000000" stroke="none">
<path d="M0 2814 c0 -679 2 -785 14 -781 87 34 214 48 283 32 32 -7 87 -16
123 -19 143 -15 366 -82 550 -166 130 -59 140 -65 113 -74 -11 -4 -25 -18 -31
-32 -11 -22 -8 -31 26 -77 56 -75 72 -114 72 -168 0 -26 5 -59 11 -73 10 -20
9 -28 -5 -41 -15 -16 -21 -39 -18 -77 1 -9 -9 -26 -23 -36 -46 -37 -61 -123
-25 -142 24 -13 71 -15 127 -6 40 7 43 6 49 -19 6 -25 1 -79 -11 -121 -5 -15
4 -33 29 -63 39 -47 45 -79 21 -125 -24 -46 -19 -75 22 -112 36 -33 37 -35 25
-68 -11 -29 -10 -45 3 -94 8 -33 15 -72 15 -87 0 -40 -68 -100 -160 -143 -107
-49 -106 -48 -64 -95 30 -33 34 -42 23 -51 -8 -6 -20 -23 -28 -38 -11 -22 -12
-30 -1 -43 20 -24 2 -31 -31 -11 -17 10 -33 15 -36 12 -3 -3 -2 -26 1 -51 l7
-45 757 0 c632 0 764 3 798 15 23 8 131 37 240 65 110 28 239 62 287 76 81 24
94 25 155 15 119 -21 248 -73 349 -142 l42 -29 545 0 546 0 0 1800 0 1800
-2400 0 -2400 0 0 -786z"/>
</g>
</svg>
