<?xml version="1.0" standalone="no"?>
<!DOCTYPE svg PUBLIC "-//W3C//DTD SVG 20010904//EN"
 "http://www.w3.org/TR/2001/REC-SVG-20010904/DTD/svg10.dtd">
<svg version="1.0" xmlns="http://www.w3.org/2000/svg"
 width="480.000000pt" height="360.000000pt" viewBox="0 0 480.000000 360.000000"
 preserveAspectRatio="xMidYMid meet">
<metadata>
Created by potrace 1.16, written by Peter Selinger 2001-2019
</metadata>
<rect width="1" height="360" fill="#000000"/>
<rect x="479" width="1" height="360" fill="#000000"/>
<rect width="480" height="1" fill="#000000"/>
<rect y="359" width="480" height="1" fill="#000000"/>
<g transform="translate(0.000000,360.000000) scale(0.100000,-0.100000)"
fill="#000000" stroke="none">
<path d="M0 1800 l0 -1800 194 0 195 0 46 64 c37 52 49 81 65 153 25 110 25
120 0 128 -31 10 -46 80 -26 122 9 19 13 45 10 61 -5 22 -1 30 19 41 26 14 34
58 18 96 -4 11 -16 37 -25 58 -16 37 -16 39 3 44 15 4 21 17 26 65 6 48 11 62
26 65 19 5 22 13 34 88 4 22 20 74 36 114 15 41 26 77 24 80 -3 2 -16 -1 -29
-7 -32 -14 -40 5 -25 61 9 36 20 48 71 82 80 53 90 80 77 218 -13 141 -12 139
-54 121 -19 -8 -35 -11 -35 -8 0 3 14 24 31 46 38 47 34 59 -6 18 -41 -43 -48
-37 -26 20 18 48 18 49 1 40 -32 -17 -33 -11 -6 36 14 26 26 51 26 56 0 5 -17
6 -37 3 l-38 -6 40 24 c73 45 75 49 75 137 0 45 5 124 11 177 8 70 7 99 -1
107 -8 8 -14 6 -21 -6 -17 -31 -51 -20 -154 48 -144 95 -141 91 -108 127 25
26 28 36 28 100 l0 72 43 3 c24 2 50 -2 58 -9 11 -9 29 -5 84 17 l70 29 0 67
c0 169 84 368 207 491 114 114 212 151 398 152 66 0 149 -4 185 -8 l65 -8 101
84 c56 46 118 94 138 106 20 13 36 25 36 27 0 2 -416 4 -925 4 l-925 0 0
-1800z m263 1380 c7 -61 4 -85 -15 -147 -9 -32 -28 -45 -28 -20 0 7 -18 48
-40 92 -25 50 -40 93 -40 117 0 42 14 56 36 37 12 -10 18 -9 32 5 16 16 18 16
33 -3 9 -11 19 -47 22 -81z"/>
<path d="M1900 3596 c0 -2 6 -19 14 -38 8 -19 29 -90 46 -159 26 -104 35 -127
58 -144 174 -128 279 -318 290 -528 4 -76 1 -107 -12 -142 l-17 -44 36 -83
c20 -46 48 -104 61 -130 23 -44 24 -49 9 -71 -24 -37 -60 -53 -81 -36 -14 11
-18 11 -30 -5 -7 -11 -11 -22 -9 -26 3 -4 13 -52 24 -107 22 -114 60 -231 104
-318 48 -98 115 -195 140 -204 28 -11 87 -76 87 -96 0 -21 -7 -19 -49 14 -20
15 -55 38 -77 49 l-42 21 -60 -54 c-86 -79 -98 -81 -169 -38 -63 38 -129 73
-138 73 -3 0 -5 -8 -5 -19 0 -10 -7 -35 -15 -54 -8 -20 -15 -40 -15 -44 0 -9
41 -22 131 -44 47 -11 137 -83 119 -94 -22 -14 -10 -102 25 -182 19 -44 45
-121 57 -171 l23 -90 45 2 c26 0 44 -3 43 -9 -2 -5 -12 -37 -24 -69 -11 -33
-21 -83 -22 -112 -2 -44 3 -59 29 -95 17 -24 48 -52 68 -62 43 -20 45 -33 10
-49 -20 -9 -25 -18 -21 -36 3 -16 -2 -27 -14 -35 -11 -7 -19 -18 -19 -25 0
-15 36 -140 77 -265 l25 -77 1099 0 1099 0 0 1800 0 1800 -1450 0 c-797 0
-1450 -2 -1450 -4z m666 -108 c4 -6 -3 -19 -16 -30 -28 -23 -40 -23 -40 0 0
34 40 56 56 30z m-283 -434 c8 -9 -11 -44 -23 -44 -6 0 -10 8 -10 18 0 27 18
41 33 26z m2037 -659 c18 -22 -1 -39 -34 -31 -35 9 -36 46 -2 46 13 0 29 -7
36 -15z m-1216 -666 c-3 -5 -10 -7 -15 -3 -5 3 -7 10 -3 15 3 5 10 7 15 3 5
-3 7 -10 3 -15z m579 -123 c9 -7 17 -15 17 -18 0 -8 -100 -52 -106 -46 -13 13
37 78 59 78 7 0 20 -7 30 -14z m-728 -46 c4 -6 -5 -10 -20 -10 -15 0 -24 4
-20 10 3 6 12 10 20 10 8 0 17 -4 20 -10z m542 -611 c-14 -8 -22 -8 -30 0 -8
8 -3 11 19 11 25 -1 27 -2 11 -11z"/>
<path d="M1950 1535 c-7 -8 -20 -15 -29 -15 -9 0 -33 -11 -54 -23 l-39 -24 89
-25 c48 -14 96 -29 106 -33 15 -6 17 -1 17 47 0 40 -5 59 -18 71 -23 21 -56
22 -72 2z"/>
<path d="M830 1453 c-23 -4 -59 -38 -60 -56 0 -4 23 4 50 18 28 14 48 30 45
35 -3 6 -7 9 -8 9 -1 -1 -13 -4 -27 -6z"/>
<path d="M2042 470 c0 -14 2 -19 5 -12 2 6 2 18 0 25 -3 6 -5 1 -5 -13z"/>
<path d="M2039 248 c-9 -7 -25 -47 -34 -88 -10 -41 -24 -89 -32 -107 -7 -18
-13 -37 -13 -43 0 -6 32 -10 80 -10 l81 0 -3 128 -3 127 -30 3 c-16 2 -37 -3
-46 -10z"/>
</g>
</svg>
