<?xml version="1.0" standalone="no"?>
<!DOCTYPE svg PUBLIC "-//W3C//DTD SVG 20010904//EN"
 "http://www.w3.org/TR/2001/REC-SVG-20010904/DTD/svg10.dtd">
<svg version="1.0" xmlns="http://www.w3.org/2000/svg"
 width="480.000000pt" height="360.000000pt" viewBox="0 0 480.000000 360.000000"
 preserveAspectRatio="xMidYMid meet">
<metadata>
Created by potrace 1.16, written by Peter Selinger 2001-2019
</metadata>
<rect width="1" height="360" fill="#000000"/>
<rect x="479" width="1" height="360" fill="#000000"/>
<rect width="480" height="1" fill="#000000"/>
<rect y="359" width="480" height="1" fill="#000000"/>
<g transform="translate(0.000000,360.000000) scale(0.100000,-0.100000)"
fill="#000000" stroke="none">
<path d="M614 3527 c-278 -293 -466 -606 -584 -972 -30 -94 -30 -98 -30 -313
l0 -217 49 101 c68 141 140 244 245 350 168 168 364 277 611 339 97 24 129 28
270 28 160 0 235 -10 360 -49 56 -17 62 -20 160 -64 270 -122 515 -388 631
-682 27 -69 64 -212 64 -248 0 -43 51 -234 84 -314 36 -86 92 -190 127 -234
101 -130 227 -254 319 -316 147 -99 319 -173 469 -201 170 -33 327 -29 536 15
97 20 328 120 394 171 83 63 211 171 211 177 0 4 24 32 53 62 61 63 122 158
178 273 l39 81 0 460 0 461 -34 107 c-118 364 -325 713 -579 976 l-81 82
-1712 0 -1711 0 -69 -73z m3079 -1305 c114 -52 168 -140 170 -275 2 -87 -18
-132 -83 -196 -49 -48 -70 -61 -122 -76 -135 -38 -264 13 -334 133 -23 39 -29
61 -32 134 -4 80 -2 92 23 140 35 67 91 117 163 145 79 31 139 29 215 -5z"/>
<path d="M4560 3586 c0 -8 18 -65 41 -127 60 -168 134 -450 179 -681 6 -32 13
-58 16 -58 2 0 4 198 4 440 l0 440 -120 0 c-97 0 -120 -3 -120 -14z"/>
<path d="M1115 1946 c-85 -33 -168 -110 -195 -184 -18 -47 -21 -72 -17 -142 7
-140 61 -228 174 -285 50 -26 68 -30 143 -30 74 0 92 4 140 28 69 36 112 77
153 147 30 51 32 61 31 150 0 82 -3 103 -27 152 -36 76 -110 140 -193 167 -81
26 -133 26 -209 -3z"/>
<path d="M4753 1010 c-115 -351 -297 -656 -553 -928 l-78 -82 339 0 339 0 0
570 c0 314 -1 570 -2 570 -2 0 -22 -59 -45 -130z"/>
<path d="M4 945 c3 -163 13 -234 50 -375 8 -30 23 -89 34 -130 30 -114 110
-363 134 -416 l11 -24 220 0 220 0 -74 78 c-257 269 -430 558 -565 942 l-33
95 3 -170z"/>
</g>
</svg>
