<?xml version="1.0" standalone="no"?>
<!DOCTYPE svg PUBLIC "-//W3C//DTD SVG 20010904//EN"
 "http://www.w3.org/TR/2001/REC-SVG-20010904/DTD/svg10.dtd">
<svg version="1.0" xmlns="http://www.w3.org/2000/svg"
 width="480.000000pt" height="360.000000pt" viewBox="0 0 480.000000 360.000000"
 preserveAspectRatio="xMidYMid meet">
<metadata>
Created by potrace 1.16, written by Peter Selinger 2001-2019
</metadata>
<rect width="1" height="360" fill="#000000"/>
<rect x="479" width="1" height="360" fill="#000000"/>
<rect width="480" height="1" fill="#000000"/>
<rect y="359" width="480" height="1" fill="#000000"/>
<g transform="translate(0.000000,360.000000) scale(0.100000,-0.100000)"
fill="#000000" stroke="none">
<path d="M2086 3558 c12 -76 43 -170 68 -208 47 -72 150 -100 366 -100 308 0
657 57 777 126 70 40 123 125 123 195 l0 29 -670 0 -670 0 6 -42z"/>
<path d="M2375 2164 c-87 -45 -145 -152 -132 -245 7 -52 28 -81 103 -142 94
-76 121 -75 216 6 103 87 132 178 89 273 -45 98 -187 154 -276 108z"/>
<path d="M4742 797 c-92 -60 -243 -194 -296 -263 -33 -44 -111 -143 -125 -159
-15 -19 -135 -129 -256 -236 -66 -58 -126 -113 -134 -122 -12 -16 18 -17 428
-17 l441 0 0 410 c0 322 -3 410 -12 409 -7 0 -28 -11 -46 -22z"/>
</g>
</svg>
