<?xml version="1.0" standalone="no"?>
<!DOCTYPE svg PUBLIC "-//W3C//DTD SVG 20010904//EN"
 "http://www.w3.org/TR/2001/REC-SVG-20010904/DTD/svg10.dtd">
<svg version="1.0" xmlns="http://www.w3.org/2000/svg"
 width="480.000000pt" height="360.000000pt" viewBox="0 0 480.000000 360.000000"
 preserveAspectRatio="xMidYMid meet">
<metadata>
Created by potrace 1.16, written by Peter Selinger 2001-2019
</metadata>
<rect width="1" height="360" fill="#000000"/>
<rect x="479" width="1" height="360" fill="#000000"/>
<rect width="480" height="1" fill="#000000"/>
<rect y="359" width="480" height="1" fill="#000000"/>
<g transform="translate(0.000000,360.000000) scale(0.100000,-0.100000)"
fill="#000000" stroke="none">
<path d="M4563 3592 c-27 -17 -36 -71 -39 -217 -3 -131 -6 -158 -28 -215 -70
-186 -85 -228 -92 -255 -4 -16 -13 -39 -20 -50 -8 -11 -14 -29 -14 -42 0 -12
-4 -24 -9 -27 -5 -3 -12 -18 -15 -33 -7 -28 -97 -227 -163 -358 -126 -254
-190 -378 -223 -435 -21 -36 -54 -96 -75 -135 -63 -119 -95 -174 -120 -211
-14 -20 -36 -60 -51 -90 -35 -71 -25 -84 60 -81 33 1 75 -2 92 -6 50 -13 76
18 163 191 43 87 109 210 147 274 189 321 290 526 436 893 40 100 60 100 111
2 21 -39 47 -83 57 -97 19 -25 20 -21 20 438 l0 462 -112 0 c-62 0 -118 -4
-125 -8z"/>
<path d="M4760 2429 c-15 -33 -31 -86 -35 -119 -5 -46 -13 -64 -36 -86 -34
-33 -38 -73 -9 -99 11 -10 20 -25 20 -34 -1 -21 -67 -91 -134 -140 -70 -52
-123 -114 -151 -177 -34 -75 -67 -108 -153 -154 -94 -50 -103 -59 -118 -110
-15 -52 -1 -110 36 -150 37 -40 60 -31 60 21 0 43 18 59 68 59 39 0 43 -6 25
-48 -39 -94 -99 -136 -247 -171 -175 -42 -381 -27 -875 63 -87 16 -130 8 -161
-31 -15 -19 -19 -34 -14 -58 3 -19 1 -35 -5 -39 -21 -13 -11 -37 22 -50 17 -8
84 -19 147 -26 63 -6 189 -20 280 -30 91 -11 226 -24 300 -30 74 -7 139 -15
143 -19 7 -7 -139 -71 -162 -71 -16 0 -104 -29 -131 -44 -24 -13 -125 -29
-205 -31 -22 -1 -62 -6 -89 -12 -30 -7 -60 -8 -80 -2 -47 14 -93 11 -110 -6
-9 -9 -42 -23 -73 -31 -32 -8 -61 -18 -66 -23 -4 -4 20 -22 54 -39 73 -38 119
-40 274 -16 55 8 158 21 229 30 257 29 332 47 461 111 105 53 185 115 276 211
44 48 96 97 116 108 56 34 150 131 182 187 40 70 77 187 85 271 8 81 15 96 72
158 l44 47 0 321 c0 176 -2 320 -5 320 -3 0 -19 -27 -35 -61z m-220 -862 c0
-20 -30 -58 -41 -52 -13 9 -11 53 4 58 22 10 37 7 37 -6z"/>
<path d="M2354 2433 c-21 -3 -35 -12 -43 -29 -17 -38 -14 -54 21 -121 l33 -63
-45 -84 -45 -85 23 -24 c26 -27 28 -60 7 -109 -19 -48 -41 -202 -55 -383 -6
-82 -16 -192 -22 -244 -12 -92 -12 -94 11 -112 14 -11 39 -19 62 -19 28 0 41
-5 49 -21 22 -39 9 -61 -48 -79 -65 -22 -68 -24 -54 -54 8 -17 25 -29 54 -37
71 -19 310 1 272 23 -5 3 -26 11 -46 17 -33 11 -39 18 -52 66 -29 99 -19 114
71 94 79 -18 81 -14 54 138 -12 71 -29 171 -37 223 -8 52 -28 142 -45 199 -22
74 -29 113 -24 135 11 46 7 274 -5 296 -17 31 -12 50 20 77 47 39 38 108 -23
171 -32 33 -47 36 -133 25z"/>
<path d="M4776 958 c-21 -29 -20 -40 4 -61 20 -16 20 -16 20 33 0 28 -2 50 -4
50 -3 0 -12 -10 -20 -22z"/>
<path d="M4736 777 c-198 -307 -422 -715 -414 -755 3 -15 25 -17 241 -20 l237
-2 0 435 c0 239 -1 435 -2 435 -2 0 -30 -42 -62 -93z"/>
</g>
</svg>
