<?xml version="1.0" standalone="no"?>
<!DOCTYPE svg PUBLIC "-//W3C//DTD SVG 20010904//EN"
 "http://www.w3.org/TR/2001/REC-SVG-20010904/DTD/svg10.dtd">
<svg version="1.0" xmlns="http://www.w3.org/2000/svg"
 width="480.000000pt" height="360.000000pt" viewBox="0 0 480.000000 360.000000"
 preserveAspectRatio="xMidYMid meet">
<metadata>
Created by potrace 1.16, written by Peter Selinger 2001-2019
</metadata>
<rect width="1" height="360" fill="#000000"/>
<rect x="479" width="1" height="360" fill="#000000"/>
<rect width="480" height="1" fill="#000000"/>
<rect y="359" width="480" height="1" fill="#000000"/>
<g transform="translate(0.000000,360.000000) scale(0.100000,-0.100000)"
fill="#000000" stroke="none">
<path d="M2058 3568 c-2 -23 -10 -36 -25 -43 -27 -11 -29 -32 -8 -62 14 -20
11 -25 -56 -90 -39 -37 -78 -80 -87 -95 -16 -28 -50 -45 -89 -47 -62 -2 -62
-3 -32 -63 28 -55 12 -67 -31 -23 -40 42 -50 44 -50 9 0 -16 -4 -23 -12 -18
-7 5 -9 1 -6 -13 4 -15 -1 -24 -18 -32 -18 -8 -24 -19 -24 -44 0 -18 -5 -38
-11 -44 -15 -15 15 -71 44 -82 12 -5 37 -27 54 -49 32 -40 33 -41 22 -99 -16
-86 -5 -251 24 -368 14 -55 28 -115 31 -134 l6 -34 -37 6 c-48 8 -58 1 -67
-45 -6 -34 -10 -38 -44 -43 -57 -9 -63 -14 -129 -116 -83 -126 -82 -124 -211
-279 -115 -137 -129 -162 -118 -204 10 -42 70 -121 107 -140 52 -28 91 -13
214 80 134 100 170 121 234 129 l53 7 -4 -173 -4 -174 -48 -115 c-55 -133 -58
-150 -31 -164 11 -6 35 -22 53 -35 31 -22 32 -24 16 -42 -12 -13 -15 -28 -10
-49 4 -23 -2 -44 -24 -83 -44 -78 -57 -122 -106 -356 -42 -201 -86 -388 -100
-425 -6 -15 52 -16 660 -16 366 0 666 4 666 8 0 5 -12 37 -26 73 -14 35 -42
114 -61 174 -140 447 -183 555 -258 643 -19 22 -35 46 -35 53 0 8 11 36 24 64
94 196 147 350 154 443 4 62 -7 173 -25 248 -2 12 2 28 11 37 14 13 21 14 63
1 27 -7 64 -16 84 -19 20 -3 60 -20 90 -38 30 -19 104 -64 164 -102 224 -139
293 -153 427 -85 117 60 222 100 323 122 100 21 131 37 145 74 7 17 17 24 35
24 49 0 91 31 86 62 0 4 16 15 37 23 45 20 91 13 123 -18 100 -95 215 -109
288 -36 42 42 41 81 -3 125 -42 42 -78 44 -131 8 -38 -25 -38 -25 -63 -7 -31
23 -39 43 -18 43 8 0 21 10 27 22 10 19 8 25 -15 45 -21 17 -39 23 -77 23 -39
0 -51 4 -55 18 -12 39 -22 47 -58 46 -33 -1 -36 1 -36 27 0 22 -6 30 -26 35
-52 13 -105 -43 -75 -80 6 -7 8 -16 4 -19 -14 -15 -23 -6 -23 23 0 20 -8 34
-24 45 -28 19 -49 12 -72 -22 -14 -23 -18 -24 -26 -10 -11 21 -37 22 -64 3
-17 -12 -60 -7 -354 45 -586 103 -614 109 -628 122 -11 11 30 38 235 159 136
80 294 171 350 203 125 70 128 73 113 120 -16 47 -34 45 -122 -14 -66 -44
-258 -152 -443 -250 -38 -21 -95 -51 -125 -68 -152 -83 -250 -133 -260 -133
-8 0 -10 9 -7 23 24 100 48 188 58 211 13 27 13 27 24 5 11 -20 13 -18 24 27
7 27 18 56 26 64 19 21 35 87 35 141 0 56 -34 173 -62 212 -17 24 -18 32 -8
63 7 20 29 55 49 77 20 23 31 42 25 44 -8 3 -7 18 6 51 20 53 18 66 -17 103
-21 23 -30 26 -68 22 -30 -4 -50 -1 -66 11 -13 9 -31 16 -40 16 -9 0 -30 14
-48 31 -25 23 -38 29 -59 25 -87 -17 -97 -17 -132 6 -19 13 -53 32 -75 43 -32
16 -41 26 -43 50 -1 17 -5 49 -8 73 l-5 42 -44 0 c-42 0 -44 -1 -47 -32z
m1360 -894 c-3 -15 -35 -35 -188 -121 -25 -14 -126 -71 -225 -128 -217 -123
-244 -137 -255 -133 -5 2 48 36 118 76 208 118 372 216 457 270 88 56 98 60
93 36z m-918 -409 c0 -18 -5 -25 -20 -25 -23 0 -24 4 -10 31 15 27 30 24 30
-6z m393 -122 c-7 -2 -21 -2 -30 0 -10 3 -4 5 12 5 17 0 24 -2 18 -5z m717
-203 c-29 -23 -228 -122 -282 -141 -35 -12 -38 -11 -87 26 -28 22 -51 43 -51
48 0 4 48 7 108 6 126 -3 184 11 223 52 22 24 35 29 71 29 l43 0 -25 -20z"/>
</g>
</svg>
