<?xml version="1.0" standalone="no"?>
<!DOCTYPE svg PUBLIC "-//W3C//DTD SVG 20010904//EN"
 "http://www.w3.org/TR/2001/REC-SVG-20010904/DTD/svg10.dtd">
<svg version="1.0" xmlns="http://www.w3.org/2000/svg"
 width="480.000000pt" height="360.000000pt" viewBox="0 0 480.000000 360.000000"
 preserveAspectRatio="xMidYMid meet">
<metadata>
Created by potrace 1.16, written by Peter Selinger 2001-2019
</metadata>
<rect width="1" height="360" fill="#000000"/>
<rect x="479" width="1" height="360" fill="#000000"/>
<rect width="480" height="1" fill="#000000"/>
<rect y="359" width="480" height="1" fill="#000000"/>
<g transform="translate(0.000000,360.000000) scale(0.100000,-0.100000)"
fill="#000000" stroke="none">
<path d="M3768 3411 c-37 -8 -160 -77 -213 -121 -68 -57 -114 -90 -125 -90 -7
0 -35 21 -64 47 -100 90 -225 129 -386 119 -128 -8 -346 -33 -409 -47 -205
-45 -332 -222 -334 -464 0 -49 3 -106 6 -125 6 -31 3 -40 -25 -70 -57 -61
-110 -100 -135 -100 -13 0 -33 -5 -43 -10 -16 -9 -17 -14 -8 -41 8 -22 7 -37
-1 -55 -16 -36 -14 -43 17 -56 15 -7 62 -36 105 -65 69 -47 80 -51 102 -41 14
6 25 15 25 20 0 4 5 8 11 8 6 0 10 -16 9 -37 -3 -56 -2 -58 21 -37 17 15 22
16 29 4 11 -18 -58 -152 -93 -181 l-22 -18 48 -1 c26 0 47 -4 47 -9 0 -5 -7
-28 -15 -51 -26 -75 -17 -79 42 -19 41 40 41 41 49 17 4 -12 7 -45 7 -71 l-1
-49 29 31 c15 17 32 31 37 31 13 0 22 -25 22 -61 0 -16 5 -29 11 -29 5 0 8 4
5 9 -3 5 1 14 8 21 12 9 17 7 26 -9 14 -27 29 -27 39 1 8 22 8 22 26 -5 20
-31 28 -33 50 -11 10 11 14 25 11 40 -10 38 9 28 28 -15 14 -30 16 -43 7 -60
-13 -24 -21 -26 -146 -41 -178 -22 -226 -46 -336 -171 -108 -123 -146 -172
-162 -212 -9 -20 -23 -37 -31 -37 -55 0 -205 74 -268 132 -133 125 -226 192
-338 248 -107 53 -120 65 -120 107 0 30 -3 33 -28 33 -33 0 -47 -14 -128 -130
-142 -205 -292 -350 -592 -574 -135 -101 -163 -128 -148 -143 4 -4 64 1 134
12 209 30 206 30 316 -9 110 -40 148 -44 174 -18 9 9 36 56 60 105 53 107 67
111 111 27 18 -33 38 -60 45 -60 21 0 36 23 36 55 0 18 3 34 6 38 11 11 56
-19 116 -75 41 -39 59 -64 68 -96 13 -50 13 -50 125 4 100 49 133 52 199 20
30 -15 80 -51 112 -81 42 -40 65 -55 86 -55 15 0 28 -3 28 -7 0 -4 -10 -41
-21 -82 -29 -103 -31 -211 -4 -241 41 -47 106 -80 158 -80 65 0 94 30 132 135
15 44 32 84 36 89 16 18 -3 -239 -23 -324 -19 -80 -67 -181 -134 -280 -13 -20
-27 -50 -30 -68 l-6 -32 598 0 599 0 21 38 c22 37 22 38 3 72 -10 19 -18 43
-19 52 0 10 -18 29 -39 44 -42 28 -56 65 -45 121 6 29 9 31 62 36 116 10 139
38 147 179 3 51 11 143 16 204 10 103 13 113 35 123 13 6 24 17 24 25 0 7 14
16 30 20 36 7 37 15 5 62 -35 51 -32 71 11 89 33 13 39 13 102 -11 116 -43
264 -135 470 -291 145 -110 169 -116 243 -59 67 51 143 86 188 86 42 0 99 -22
169 -65 l42 -26 0 350 c0 193 -3 351 -6 351 -3 0 -47 -24 -97 -53 -235 -135
-348 -158 -590 -118 -70 12 -148 21 -172 21 -39 0 -47 -3 -55 -25 -12 -31 -28
-31 -115 3 -54 21 -71 33 -77 52 -4 14 -19 70 -33 125 -15 55 -41 129 -58 165
-40 81 -71 98 -254 140 -123 27 -232 72 -241 99 -7 21 30 61 57 61 15 0 32 5
39 12 9 9 12 6 12 -15 0 -15 4 -27 8 -27 13 0 38 23 50 45 11 19 11 18 12 -7
0 -16 3 -28 8 -28 20 1 72 66 72 92 0 7 7 22 16 33 15 20 15 20 33 -4 13 -17
23 -22 39 -16 12 3 22 13 22 21 0 19 16 18 51 -3 45 -27 57 -5 26 44 -39 62
-39 77 3 81 19 2 38 7 43 11 4 4 -15 30 -41 57 -58 60 -67 94 -41 143 10 20
19 41 19 49 0 7 18 31 39 55 21 23 45 62 52 86 13 43 12 44 -17 68 -58 47 -81
72 -87 93 -4 17 -2 20 11 15 9 -4 44 -13 77 -22 33 -8 65 -19 70 -23 6 -4 32
-14 58 -23 70 -23 91 -8 107 79 11 57 11 84 -2 168 -2 16 4 20 36 22 92 7 206
43 206 65 0 7 -28 40 -63 73 -103 99 -161 210 -174 331 -9 76 -11 78 -75 66z"/>
</g>
</svg>
