<?xml version="1.0" standalone="no"?>
<!DOCTYPE svg PUBLIC "-//W3C//DTD SVG 20010904//EN"
 "http://www.w3.org/TR/2001/REC-SVG-20010904/DTD/svg10.dtd">
<svg version="1.0" xmlns="http://www.w3.org/2000/svg"
 width="480.000000pt" height="360.000000pt" viewBox="0 0 480.000000 360.000000"
 preserveAspectRatio="xMidYMid meet">
<metadata>
Created by potrace 1.16, written by Peter Selinger 2001-2019
</metadata>
<rect width="1" height="360" fill="#000000"/>
<rect x="479" width="1" height="360" fill="#000000"/>
<rect width="480" height="1" fill="#000000"/>
<rect y="359" width="480" height="1" fill="#000000"/>
<g transform="translate(0.000000,360.000000) scale(0.100000,-0.100000)"
fill="#000000" stroke="none">
<path d="M0 1800 l0 -1800 851 2 851 3 25 45 c14 25 31 61 38 80 16 45 104
194 150 254 30 39 35 54 35 99 0 41 -4 55 -20 64 -31 20 -62 139 -58 222 3 75
0 81 -47 81 -55 0 -132 111 -136 195 -1 22 6 79 16 126 l19 87 -32 80 c-56
142 -40 211 87 375 94 121 134 154 203 163 48 7 48 7 48 44 0 48 -8 54 -32 27
-18 -20 -19 -20 -13 -2 25 68 27 117 11 221 -9 58 -23 118 -32 133 l-15 26 4
-40 c2 -22 7 -49 12 -60 5 -12 -9 -4 -36 23 -25 23 -49 42 -55 42 -26 0 -103
63 -114 93 -6 17 -17 43 -22 57 -6 14 -13 54 -15 90 -4 63 -3 68 57 185 68
133 68 116 -2 166 -20 14 -21 18 -9 48 8 17 27 42 42 56 16 13 29 28 29 34 0
6 -16 23 -35 38 -19 15 -35 31 -35 34 0 3 30 14 67 24 51 14 73 16 94 8 31
-12 39 -3 39 43 0 33 12 30 56 -11 44 -42 53 -43 92 -10 17 14 32 25 35 25 4
0 23 -11 43 -25 46 -31 83 -41 220 -60 121 -17 184 -42 278 -109 166 -118 238
-264 241 -486 3 -208 1 -194 45 -236 45 -43 43 -57 -6 -48 -39 7 -38 13 -13
-86 5 -20 5 -48 1 -64 -8 -29 -8 -29 -29 25 -13 33 -22 45 -22 32 -1 -12 3
-33 8 -46 8 -21 6 -26 -10 -30 -16 -4 -18 -11 -13 -41 7 -46 -12 -48 -31 -3
l-13 32 -4 -40 c-3 -40 -3 -40 -16 20 -19 88 -22 94 -34 65 -5 -14 -10 -53
-10 -87 0 -35 -2 -63 -4 -63 -3 0 -14 19 -25 43 -19 40 -20 40 -18 12 2 -45 0
-49 -16 -35 -17 14 -39 4 -31 -16 3 -7 0 -17 -6 -20 -21 -13 24 -23 108 -23
65 -1 86 -5 107 -21 14 -11 40 -20 60 -20 93 0 155 -62 237 -234 91 -191 97
-259 30 -346 -16 -20 -30 -55 -34 -82 -4 -26 -11 -50 -17 -53 -5 -4 -9 -82 -9
-180 0 -191 -12 -248 -65 -309 -30 -35 -27 -37 60 -55 111 -22 188 -43 206
-54 23 -14 25 -64 6 -129 -8 -24 -44 -88 -81 -142 -52 -77 -136 -232 -136
-252 0 -2 369 -4 820 -4 l820 0 0 1800 0 1800 -2400 0 -2400 0 0 -1800z"/>
<path d="M2072 1985 c0 -36 4 -65 9 -65 5 0 9 29 9 65 0 36 -4 65 -8 65 -5 0
-9 -29 -10 -65z"/>
<path d="M2122 1955 c-7 -14 -12 -28 -12 -30 0 -2 32 -9 72 -15 l72 -12 23 28
c29 37 29 48 1 39 -13 -4 -39 -9 -58 -12 -19 -3 -40 -13 -46 -21 -10 -13 -13
-11 -19 16 -8 39 -18 41 -33 7z"/>
<path d="M2850 246 c0 -2 13 -33 28 -68 16 -34 36 -89 46 -120 18 -58 18 -58
57 -58 21 0 39 3 39 8 0 12 -73 133 -111 185 -29 39 -59 66 -59 53z"/>
</g>
</svg>
