<?xml version="1.0" standalone="no"?>
<!DOCTYPE svg PUBLIC "-//W3C//DTD SVG 20010904//EN"
 "http://www.w3.org/TR/2001/REC-SVG-20010904/DTD/svg10.dtd">
<svg version="1.0" xmlns="http://www.w3.org/2000/svg"
 width="480.000000pt" height="360.000000pt" viewBox="0 0 480.000000 360.000000"
 preserveAspectRatio="xMidYMid meet">
<metadata>
Created by potrace 1.16, written by Peter Selinger 2001-2019
</metadata>
<rect width="1" height="360" fill="#000000"/>
<rect x="479" width="1" height="360" fill="#000000"/>
<rect width="480" height="1" fill="#000000"/>
<rect y="359" width="480" height="1" fill="#000000"/>
<g transform="translate(0.000000,360.000000) scale(0.100000,-0.100000)"
fill="#000000" stroke="none">
<path d="M0 2185 l0 -1415 26 10 c14 6 52 10 84 10 32 0 91 7 131 15 41 8 88
16 104 17 28 3 30 6 32 48 2 49 -7 60 -50 60 -39 0 -43 21 -14 82 13 29 32 76
40 103 25 78 70 322 64 339 -4 11 -19 16 -42 16 -27 0 -44 8 -67 31 l-31 30
27 28 c14 15 26 38 26 52 0 14 4 29 9 35 8 9 25 72 36 134 4 19 12 50 18 68
10 30 9 35 -12 51 -21 16 -22 20 -10 42 8 14 14 55 15 96 0 83 14 115 61 144
30 18 38 19 88 9 39 -8 60 -19 73 -36 9 -14 28 -39 41 -55 21 -27 22 -31 9
-52 -19 -28 -15 -131 7 -215 8 -33 15 -73 15 -88 0 -22 16 -43 72 -95 47 -44
69 -71 64 -80 -24 -52 -45 -74 -72 -79 -33 -6 -32 3 -20 -165 12 -161 24 -246
46 -315 11 -36 20 -71 20 -77 0 -18 -55 -16 -70 2 -20 24 -45 17 -57 -16 -11
-29 -10 -33 22 -65 19 -19 41 -34 49 -34 8 0 17 -4 21 -9 10 -17 -95 -44 -365
-91 -91 -16 -203 -38 -250 -49 -47 -12 -97 -21 -112 -21 l-28 0 0 -325 0 -325
779 0 779 0 22 98 c13 53 36 133 52 177 50 134 169 478 166 480 -2 1 -110 -46
-241 -106 -290 -132 -540 -234 -752 -306 -308 -104 -305 -103 -305 -128 0 -12
7 -39 16 -60 8 -20 13 -42 11 -48 -5 -15 -38 48 -47 88 -4 17 -11 29 -16 28
-6 -1 -46 -11 -89 -22 -125 -33 -203 -24 -248 27 -33 37 -15 56 81 86 48 15
116 38 152 51 36 13 77 27 92 31 32 7 32 8 18 35 -6 10 -21 19 -33 19 -18 0
-19 2 -7 10 26 16 -5 34 -54 31 -37 -2 -44 1 -49 18 -6 25 26 69 59 81 14 6
35 5 54 -1 23 -9 30 -17 30 -38 0 -15 -5 -32 -11 -38 -9 -9 -6 -20 11 -42 l22
-32 20 26 c11 14 29 25 41 25 19 0 19 -2 -8 -30 -32 -33 -30 -46 6 -31 13 6
105 42 204 80 260 101 417 168 819 351 245 111 233 103 272 198 24 59 11 109
-34 135 l-33 20 -28 -27 c-32 -31 -42 -32 -65 -7 -17 18 -17 22 -2 52 9 18 16
35 16 39 0 4 -55 40 -122 80 -68 40 -185 111 -260 159 -76 47 -168 104 -205
127 -79 47 -92 77 -48 112 30 24 44 21 95 -18 75 -59 318 -209 532 -329 l56
-31 20 27 c20 28 20 29 0 123 -11 52 -17 112 -15 134 3 21 27 82 53 135 48 98
59 134 73 232 5 30 16 72 26 93 18 37 179 193 234 227 16 10 35 30 43 46 10
21 28 33 70 48 31 11 60 23 63 27 12 12 -6 88 -21 88 -8 0 -14 7 -14 16 0 8
-4 13 -9 10 -5 -3 -7 -23 -4 -44 4 -32 2 -39 -12 -39 -9 0 -22 12 -28 26 l-11
26 -4 -25 c-2 -14 -8 -30 -13 -36 -14 -17 -47 -6 -55 18 -4 15 -9 17 -20 7
-12 -9 -14 -5 -14 25 0 35 -12 47 -25 26 -3 -5 -12 -10 -18 -10 -9 0 -12 29
-11 103 0 112 10 144 100 333 34 72 55 102 106 150 35 32 88 72 118 89 47 25
66 29 130 30 65 0 85 -5 140 -32 36 -18 84 -48 107 -67 l41 -36 11 31 c6 17 8
56 4 90 -5 49 -3 63 12 79 10 11 26 20 35 20 18 0 30 45 45 175 3 28 8 58 11
68 5 16 -45 17 -956 17 -957 0 -961 0 -955 -20 5 -14 2 -20 -9 -20 -9 0 -16 9
-16 20 0 20 -7 20 -319 20 -274 0 -320 -2 -325 -15 -3 -8 -12 -15 -21 -15 -8
0 -15 7 -15 15 0 13 -23 15 -150 15 l-150 0 0 -1415z m1639 724 c32 -11 42
-29 16 -29 -20 0 -65 22 -65 32 0 11 11 10 49 -3z m-1174 -429 c-3 -5 -19 -10
-35 -10 -16 0 -32 5 -35 10 -4 6 10 10 35 10 25 0 39 -4 35 -10z m-357 -512
c3 -14 -3 -18 -27 -18 -31 0 -47 13 -36 31 11 16 59 6 63 -13z"/>
<path d="M2940 3573 c4 -16 11 -63 14 -106 4 -49 15 -102 32 -143 14 -36 27
-73 29 -82 4 -28 -20 -65 -63 -97 -46 -34 -52 -48 -52 -125 0 -40 7 -69 26
-105 23 -45 25 -58 20 -124 -7 -89 -22 -122 -61 -134 -49 -16 -70 -43 -95
-122 -13 -41 -27 -75 -31 -75 -4 0 -10 17 -14 37 l-7 37 -19 -24 c-10 -14 -19
-31 -19 -37 0 -15 -20 -18 -20 -3 0 18 -26 10 -50 -15 -14 -15 -18 -25 -10
-25 7 0 31 -9 54 -19 61 -29 159 -51 263 -61 107 -10 154 -29 191 -78 37 -50
98 -104 138 -124 28 -13 56 -15 166 -11 73 2 183 8 243 14 235 20 260 21 303
10 23 -7 57 -25 76 -41 18 -17 37 -30 40 -30 4 0 46 23 94 52 48 28 96 56 107
62 11 6 31 19 45 27 14 9 77 47 140 84 63 38 153 93 200 125 47 31 93 59 103
63 16 6 17 42 17 552 l0 545 -934 0 -935 0 9 -27z m1095 -101 c0 -18 -20 -15
-23 4 -3 10 1 15 10 12 7 -3 13 -10 13 -16z m71 -789 c-11 -11 -19 6 -11 24 8
17 8 17 12 0 3 -10 2 -21 -1 -24z m-1186 -153 c0 -5 -7 -10 -16 -10 -8 0 -12
5 -9 10 3 6 10 10 16 10 5 0 9 -4 9 -10z m1060 -260 c0 -5 -4 -10 -10 -10 -5
0 -10 5 -10 10 0 6 5 10 10 10 6 0 10 -4 10 -10z"/>
<path d="M4745 2348 c-22 -11 -121 -69 -220 -128 -99 -59 -221 -131 -272 -160
-89 -53 -91 -55 -86 -86 5 -29 0 -38 -33 -68 -22 -20 -61 -56 -88 -81 -27 -25
-55 -45 -61 -45 -22 0 -65 41 -65 61 0 19 -24 27 -34 11 -2 -4 5 -36 17 -70
19 -55 20 -64 7 -72 -30 -19 -39 -14 -93 50 l-27 31 -27 -19 c-34 -23 -428
-232 -438 -232 -4 0 -33 -15 -64 -34 -31 -18 -100 -56 -154 -85 -126 -65 -141
-76 -142 -102 0 -17 -25 -32 -130 -81 -71 -33 -131 -61 -133 -63 -2 -1 13 -52
32 -111 20 -60 45 -141 56 -179 l20 -71 77 -41 c293 -154 579 -294 857 -419
66 -30 123 -60 127 -66 4 -7 3 -20 -2 -30 -8 -14 -22 -18 -73 -18 -109 0 -253
56 -670 263 -120 59 -221 106 -224 103 -3 -3 0 -11 5 -18 33 -40 129 -223 168
-318 24 -61 52 -121 60 -134 9 -13 17 -35 18 -48 1 -12 9 -38 17 -55 l15 -33
807 0 808 0 0 1185 c0 652 -3 1185 -7 1185 -5 -1 -26 -10 -48 -22z"/>
<path d="M2766 2024 c-4 -9 -11 -71 -16 -138 -6 -66 -15 -157 -21 -200 -11
-77 -7 -261 6 -274 4 -4 33 8 65 26 32 17 67 32 78 32 10 0 99 43 198 96 351
189 659 356 662 359 2 2 1 13 -3 24 -8 27 -19 27 -200 -9 -182 -36 -233 -37
-316 -6 -58 22 -65 22 -98 9 -20 -9 -47 -12 -65 -8 -17 3 -56 8 -87 10 -61 4
-103 21 -160 66 -32 25 -38 27 -43 13z"/>
<path d="M3830 1974 c0 -8 5 -12 10 -9 6 4 8 11 5 16 -9 14 -15 11 -15 -7z"/>
<path d="M2120 1815 c-14 -13 -41 -39 -60 -57 -71 -66 -91 -100 -85 -138 5
-34 25 -294 25 -334 0 -17 4 -16 30 9 17 16 30 39 30 51 0 12 11 31 25 42 34
27 32 58 -5 77 -54 28 -56 47 -10 122 22 38 49 95 59 128 39 128 37 148 -9
100z"/>
<path d="M440 1693 c0 -23 15 -39 24 -25 3 5 -1 18 -9 28 -14 18 -14 18 -15
-3z"/>
<path d="M2670 1400 c-6 -12 -9 -24 -7 -27 9 -8 48 18 44 30 -6 20 -25 19 -37
-3z"/>
<path d="M556 935 c-14 -21 -25 -25 -61 -25 -37 0 -45 -3 -45 -18 0 -38 87
-93 116 -74 15 9 29 142 16 142 -5 0 -17 -11 -26 -25z"/>
</g>
</svg>
