<?xml version="1.0" standalone="no"?>
<!DOCTYPE svg PUBLIC "-//W3C//DTD SVG 20010904//EN"
 "http://www.w3.org/TR/2001/REC-SVG-20010904/DTD/svg10.dtd">
<svg version="1.0" xmlns="http://www.w3.org/2000/svg"
 width="480.000000pt" height="360.000000pt" viewBox="0 0 480.000000 360.000000"
 preserveAspectRatio="xMidYMid meet">
<metadata>
Created by potrace 1.16, written by Peter Selinger 2001-2019
</metadata>
<rect width="1" height="360" fill="#000000"/>
<rect x="479" width="1" height="360" fill="#000000"/>
<rect width="480" height="1" fill="#000000"/>
<rect y="359" width="480" height="1" fill="#000000"/>
<g transform="translate(0.000000,360.000000) scale(0.100000,-0.100000)"
fill="#000000" stroke="none">
<path d="M0 3543 l0 -57 40 54 c22 29 40 55 40 57 0 2 -18 3 -40 3 l-40 0 0
-57z"/>
<path d="M334 3555 c-99 -53 -189 -113 -271 -180 l-62 -50 0 -1600 -1 -1601
45 -62 45 -62 1630 0 c897 0 1630 2 1630 5 0 2 -31 14 -70 25 -82 24 -192 81
-293 150 -75 52 -267 217 -267 230 0 4 -22 32 -49 63 -96 110 -198 305 -254
487 -82 265 -83 586 -3 846 55 180 60 219 60 419 0 214 -17 319 -79 500 -90
265 -280 528 -504 699 -35 27 -119 78 -187 113 l-124 63 -582 0 -583 -1 -81
-44z m870 -1004 c70 -31 126 -80 166 -147 34 -56 35 -62 35 -159 0 -89 -3
-107 -28 -160 -37 -78 -77 -119 -157 -158 -58 -29 -74 -32 -155 -32 -75 0 -98
4 -140 25 -71 34 -132 94 -168 165 -27 51 -31 71 -31 130 0 76 23 157 60 216
23 37 89 96 134 120 67 35 206 35 284 0z"/>
<path d="M4740 3593 c0 -5 14 -26 30 -47 l30 -40 0 47 c0 46 -1 47 -30 47 -16
0 -30 -3 -30 -7z"/>
<path d="M3632 1750 c-70 -15 -159 -69 -216 -132 -108 -119 -134 -302 -63
-443 117 -234 439 -287 625 -104 100 99 146 275 106 410 -17 57 -34 85 -97
160 -70 85 -231 134 -355 109z"/>
<path d="M4696 230 c-48 -39 -106 -80 -129 -91 -23 -12 -54 -30 -68 -40 -14
-10 -54 -29 -90 -42 -148 -57 -148 -57 96 -57 l220 1 38 51 c37 52 37 53 37
150 0 54 -4 98 -8 98 -5 0 -48 -32 -96 -70z"/>
</g>
</svg>
