<?xml version="1.0" standalone="no"?>
<!DOCTYPE svg PUBLIC "-//W3C//DTD SVG 20010904//EN"
 "http://www.w3.org/TR/2001/REC-SVG-20010904/DTD/svg10.dtd">
<svg version="1.0" xmlns="http://www.w3.org/2000/svg"
 width="480.000000pt" height="360.000000pt" viewBox="0 0 480.000000 360.000000"
 preserveAspectRatio="xMidYMid meet">
<metadata>
Created by potrace 1.16, written by Peter Selinger 2001-2019
</metadata>
<rect width="1" height="360" fill="#000000"/>
<rect x="479" width="1" height="360" fill="#000000"/>
<rect width="480" height="1" fill="#000000"/>
<rect y="359" width="480" height="1" fill="#000000"/>
<g transform="translate(0.000000,360.000000) scale(0.100000,-0.100000)"
fill="#000000" stroke="none">
<path d="M0 1800 l0 -1800 2400 0 2400 0 0 318 c0 321 -2 342 -36 342 -7 0
-15 -15 -17 -33 -3 -23 -4 -19 -5 17 -2 42 -4 47 -14 33 -12 -15 -17 -14 -64
13 -29 16 -82 52 -119 80 -37 28 -81 54 -99 57 -17 3 -38 10 -47 14 -28 14
-28 0 -3 -57 23 -53 24 -82 3 -68 -6 3 -9 -2 -7 -11 7 -38 -23 -25 -41 17
l-19 43 5 -45 c3 -25 9 -61 14 -80 12 -46 12 -110 0 -110 -11 0 -22 33 -51
150 -34 138 -52 188 -60 165 -5 -14 -10 -7 -19 30 -11 46 -24 64 -44 65 -4 0
-3 -8 2 -18 31 -56 48 -129 42 -182 -13 -105 -59 -146 -160 -141 -15 1 -41 18
-67 45 -44 46 -47 54 -74 216 -21 123 -38 167 -73 189 -18 11 -43 32 -56 46
-13 14 -29 24 -35 22 -14 -4 -66 -161 -110 -330 -19 -70 -42 -137 -51 -147
-64 -71 -178 65 -177 210 1 89 -6 120 -27 120 -9 0 -26 7 -37 15 -10 8 -31 15
-46 15 -27 0 -27 -1 -22 -44 8 -58 -9 -67 -30 -16 -9 23 -24 43 -34 46 -44 14
-105 51 -112 69 -4 11 -10 19 -14 18 -16 -7 -27 -1 -42 22 -13 20 -14 31 -6
55 10 26 8 31 -11 41 -28 15 -35 25 -47 71 -13 46 1 78 33 78 31 0 40 9 62 58
25 59 103 125 201 173 84 41 94 52 94 110 0 14 11 48 25 74 23 47 24 51 10 95
-8 25 -33 108 -57 184 l-43 140 -55 1 c-30 1 -66 -4 -80 -10 -14 -6 -32 -10
-41 -8 -12 3 -19 -6 -24 -29 -9 -45 -9 -88 0 -115 7 -22 5 -23 -37 -23 l-45 0
1 58 c2 86 -4 93 -53 76 -71 -24 -123 22 -102 90 5 17 12 47 15 67 5 27 18 46
54 76 57 48 88 57 126 38 37 -20 46 -19 46 3 0 31 31 50 104 63 l68 13 -4 86
c-3 69 -9 93 -26 117 -21 30 -25 31 -80 27 -31 -2 -88 -8 -125 -13 -84 -11
-110 -5 -104 20 3 12 0 19 -9 19 -8 0 -14 5 -14 10 0 6 -6 10 -14 10 -60 0 7
71 113 121 80 38 77 35 57 54 -16 16 -23 50 -8 43 4 -1 28 -11 54 -22 l48 -19
43 41 c24 22 53 43 64 46 13 4 27 25 38 54 61 163 163 300 239 321 44 12 118
5 158 -16 57 -28 102 -134 63 -149 -8 -4 -15 -16 -15 -28 0 -28 70 -236 79
-236 45 0 418 -73 429 -84 18 -18 9 -46 -26 -84 -15 -17 -32 -38 -38 -48 -6
-11 -23 -20 -38 -22 -21 -3 -26 -8 -21 -19 3 -9 1 -20 -5 -23 -7 -4 11 -20 43
-38 31 -17 58 -36 61 -41 8 -12 -47 -24 -73 -16 -11 3 -21 0 -24 -8 -3 -9 -15
-13 -30 -10 -17 3 -32 -3 -50 -21 -28 -28 -27 -30 18 -40 26 -7 27 -9 12 -17
-20 -12 -90 -15 -106 -5 -21 13 -11 -5 17 -30 l27 -24 -30 6 c-30 5 -30 5 -9
-13 11 -10 31 -26 45 -35 24 -17 23 -17 -16 -6 -22 5 -48 14 -57 19 -15 8 -18
6 -18 -13 0 -17 -3 -19 -12 -10 -23 23 -38 13 -38 -23 0 -25 -4 -35 -16 -35
-14 0 -15 -10 -9 -78 6 -70 5 -80 -15 -105 -17 -21 -20 -31 -11 -40 8 -8 21
-5 48 11 156 93 330 162 407 162 l46 0 -6 -42 c-4 -24 -11 -53 -15 -66 -14
-38 17 -41 279 -28 l182 9 0 728 0 729 -2400 0 -2400 0 0 -1800z m4247 -1012
c-3 -7 -5 -2 -5 12 0 14 2 19 5 13 2 -7 2 -19 0 -25z m20 -70 c-3 -8 -6 -5 -6
6 -1 11 2 17 5 13 3 -3 4 -12 1 -19z"/>
<path d="M3232 1378 c-35 -22 -42 -38 -14 -38 16 1 59 47 50 55 -2 2 -18 -5
-36 -17z"/>
<path d="M4231 884 c0 -11 3 -14 6 -6 3 7 2 16 -1 19 -3 4 -6 -2 -5 -13z"/>
<path d="M4778 843 c7 -3 16 -2 19 1 4 3 -2 6 -13 5 -11 0 -14 -3 -6 -6z"/>
<path d="M4665 725 c52 -32 65 -32 27 0 -17 14 -38 25 -48 25 -13 0 -6 -8 21
-25z"/>
</g>
</svg>
