<?xml version="1.0" standalone="no"?>
<!DOCTYPE svg PUBLIC "-//W3C//DTD SVG 20010904//EN"
 "http://www.w3.org/TR/2001/REC-SVG-20010904/DTD/svg10.dtd">
<svg version="1.0" xmlns="http://www.w3.org/2000/svg"
 width="480.000000pt" height="360.000000pt" viewBox="0 0 480.000000 360.000000"
 preserveAspectRatio="xMidYMid meet">
<metadata>
Created by potrace 1.16, written by Peter Selinger 2001-2019
</metadata>
<rect width="1" height="360" fill="#000000"/>
<rect x="479" width="1" height="360" fill="#000000"/>
<rect width="480" height="1" fill="#000000"/>
<rect y="359" width="480" height="1" fill="#000000"/>
<g transform="translate(0.000000,360.000000) scale(0.100000,-0.100000)"
fill="#000000" stroke="none">
<path d="M0 1800 l0 -1800 895 0 895 0 5 23 c2 12 9 51 15 87 6 36 26 123 45
195 18 72 38 163 45 204 7 41 35 138 62 215 49 137 50 143 43 216 -4 41 -10
165 -14 275 -7 222 -2 214 -65 102 -40 -70 -86 -118 -133 -139 l-41 -18 -135
50 c-74 27 -180 58 -235 70 -127 25 -131 27 -138 56 -4 14 -16 27 -30 30 -24
6 -28 14 -25 45 1 13 -12 16 -84 18 -108 2 -241 32 -317 73 -68 36 -87 61 -64
83 20 20 33 19 63 -5 33 -26 43 -25 35 2 -4 18 -2 20 16 16 12 -4 54 -1 92 6
l70 12 -41 41 c-34 35 -40 47 -35 69 4 16 2 34 -7 48 -8 11 -17 33 -21 48 -3
15 -15 32 -26 38 -11 6 -22 26 -26 47 -6 33 -4 39 31 69 l38 32 -13 65 -13 66
31 35 c17 20 39 50 47 66 16 31 35 40 35 17 0 -7 7 -23 16 -35 12 -17 19 -20
33 -13 30 17 59 2 66 -33 16 -80 31 -86 50 -20 6 21 17 40 25 42 9 1 33 -25
59 -65 24 -38 55 -84 68 -104 31 -46 29 -75 -7 -129 -21 -32 -30 -57 -30 -86
0 -30 -10 -56 -38 -100 -21 -32 -46 -74 -55 -92 l-16 -33 34 -16 c34 -16 36
-16 59 6 20 18 28 21 44 12 11 -6 34 -8 50 -5 22 5 52 -6 128 -44 109 -55 221
-98 230 -89 4 3 24 57 45 118 32 92 38 121 33 159 -6 42 -3 50 32 95 20 28 54
70 76 94 34 40 52 81 28 66 -5 -3 -18 -1 -29 4 -19 11 -24 24 -36 109 l-7 42
45 0 c25 0 58 -5 73 -10 42 -16 52 -1 43 72 -5 35 -9 135 -9 223 -1 110 -6
177 -17 214 -10 34 -13 74 -10 105 6 63 42 168 74 219 l24 38 -58 -30 c-58
-31 -88 -37 -109 -23 -20 13 -61 216 -66 327 l-3 60 60 -1 c81 -1 191 -29 302
-76 86 -37 94 -38 132 -27 28 8 51 9 80 2 40 -10 42 -9 150 62 61 39 153 91
206 115 89 40 96 42 118 27 16 -10 37 -50 64 -119 56 -142 69 -203 52 -234
-14 -26 -23 -30 -111 -39 -51 -6 -57 -9 -67 -36 -12 -34 -7 -33 -61 -14 -53
19 -64 11 -27 -21 39 -33 61 -90 87 -219 12 -60 37 -173 55 -250 18 -77 43
-185 56 -240 12 -55 26 -105 31 -112 5 -6 24 -13 41 -15 37 -4 44 -22 46 -111
1 -45 9 -73 37 -130 49 -96 71 -163 78 -234 l6 -58 -23 65 c-30 84 -76 184
-82 179 -2 -3 7 -41 21 -84 14 -44 27 -102 29 -130 7 -101 14 -279 9 -255 -21
108 -47 227 -53 238 -4 7 -5 -15 -3 -50 3 -34 -1 -112 -8 -173 l-13 -111 40
-65 c21 -35 59 -91 83 -123 106 -138 103 -133 87 -165 -12 -25 -12 -31 -1 -43
12 -12 12 -34 -1 -148 -23 -207 -29 -223 -94 -289 -53 -54 -139 -101 -186
-101 -20 0 -20 -4 20 -143 19 -67 39 -141 45 -164 l11 -43 869 0 870 0 0 1800
0 1800 -2400 0 -2400 0 0 -1800z"/>
<path d="M2018 1493 c-2 -10 2 -52 9 -93 6 -41 15 -122 20 -180 6 -83 11 -105
23 -105 22 0 24 57 6 204 -16 128 -31 191 -46 191 -5 0 -10 -8 -12 -17z"/>
<path d="M2926 1014 c-3 -9 -9 -40 -12 -70 -8 -69 -27 -57 -26 15 1 27 -2 52
-7 55 -5 3 -23 -28 -41 -68 l-32 -74 40 -123 c22 -68 54 -176 72 -239 18 -63
36 -119 41 -124 5 -5 13 2 19 18 5 15 24 42 42 61 18 18 41 55 51 82 10 26 22
55 27 65 11 20 -6 28 -56 28 -32 0 -34 2 -34 35 0 20 11 58 25 84 l24 49 -36
71 -37 72 -17 -33 -17 -33 5 47 c8 72 -13 129 -31 82z"/>
</g>
</svg>
