<?xml version="1.0" standalone="no"?>
<!DOCTYPE svg PUBLIC "-//W3C//DTD SVG 20010904//EN"
 "http://www.w3.org/TR/2001/REC-SVG-20010904/DTD/svg10.dtd">
<svg version="1.0" xmlns="http://www.w3.org/2000/svg"
 width="480.000000pt" height="360.000000pt" viewBox="0 0 480.000000 360.000000"
 preserveAspectRatio="xMidYMid meet">
<metadata>
Created by potrace 1.16, written by Peter Selinger 2001-2019
</metadata>
<rect width="1" height="360" fill="#000000"/>
<rect x="479" width="1" height="360" fill="#000000"/>
<rect width="480" height="1" fill="#000000"/>
<rect y="359" width="480" height="1" fill="#000000"/>
<g transform="translate(0.000000,360.000000) scale(0.100000,-0.100000)"
fill="#000000" stroke="none">
<path d="M2520 2891 c0 -7 -5 -9 -10 -6 -13 8 -2 -44 12 -62 14 -18 -19 -111
-53 -151 -16 -18 -29 -36 -29 -40 0 -4 13 -14 29 -24 20 -11 33 -29 40 -55 14
-50 26 -170 16 -161 -13 12 -35 -12 -35 -38 0 -27 35 -110 58 -136 8 -10 24
-18 34 -18 32 0 52 -95 28 -140 -7 -13 -6 -21 5 -30 21 -18 19 -39 -9 -79 -16
-23 -35 -79 -51 -155 -15 -65 -42 -166 -61 -223 -42 -129 -43 -170 -8 -213
l27 -31 -27 -52 c-14 -29 -26 -67 -26 -84 0 -18 -6 -52 -14 -75 -8 -24 -14
-54 -14 -68 0 -14 -4 -49 -11 -79 -6 -29 -11 -71 -11 -93 0 -32 5 -41 31 -57
17 -10 42 -36 56 -56 21 -31 23 -41 14 -61 -9 -20 -6 -28 15 -54 14 -16 32
-30 39 -30 7 0 26 -7 41 -15 18 -9 56 -15 97 -15 38 0 77 -5 87 -10 33 -18
252 -60 322 -63 64 -3 71 -5 107 -41 38 -37 39 -38 65 -21 14 10 26 21 26 25
0 12 -27 20 -66 20 -20 0 -51 11 -74 26 -50 33 -54 67 -10 92 16 9 30 22 30
28 0 12 -73 34 -113 34 -13 0 -27 3 -31 8 -4 4 -29 12 -54 17 -67 14 -67 37 0
70 29 15 61 34 71 42 17 16 23 59 9 79 -14 21 -76 34 -158 34 -74 0 -85 2 -94
21 -9 16 -8 26 5 45 11 17 14 35 10 54 -4 17 0 54 10 87 9 31 20 84 23 117 6
54 10 60 34 67 15 4 51 19 81 33 100 49 118 130 47 217 -40 50 -71 122 -99
229 -13 47 -32 107 -43 133 -18 41 -19 52 -8 75 20 45 25 203 7 238 l-15 30
136 -1 136 0 10 27 c8 22 4 33 -27 75 l-36 49 22 22 c19 19 20 26 10 53 -12
30 -12 31 15 24 15 -3 41 -20 58 -37 40 -38 68 -32 84 18 20 61 -9 154 -48
154 -10 0 -29 -14 -41 -31 -42 -56 -126 -71 -144 -26 -3 8 -17 17 -31 19 -28
6 -56 -17 -56 -45 0 -9 -7 -17 -16 -17 -9 0 -31 -7 -49 -16 -18 -8 -48 -14
-67 -12 -28 2 -34 7 -36 31 -2 15 1 27 7 27 6 0 11 20 11 47 0 34 -6 53 -21
69 -18 19 -19 27 -10 60 6 21 8 40 5 43 -2 3 -27 4 -54 2 -67 -3 -143 22 -160
54 -7 14 -16 23 -18 20 -3 -3 -11 0 -19 6 -10 9 -13 8 -13 0z m440 -401 c0
-25 -30 -41 -53 -29 -9 6 -17 19 -17 29 0 16 7 20 35 20 28 0 35 -4 35 -20z
m139 -13 c0 -21 -1 -21 -9 -2 -12 28 -12 37 0 30 6 -3 10 -16 9 -28z m-226 -9
c24 -42 11 -52 -47 -37 -41 10 -46 14 -40 33 15 46 62 49 87 4z m-303 -68 c0
-5 -4 -10 -10 -10 -5 0 -10 5 -10 10 0 6 5 10 10 10 6 0 10 -4 10 -10z m192
-1107 c2 -9 -1 -64 -6 -122 -4 -58 -9 -128 -10 -156 -2 -77 -12 -86 -111 -107
-48 -10 -91 -16 -95 -13 -16 10 -32 132 -21 153 6 11 11 30 11 42 0 23 54 161
78 198 13 19 23 22 82 22 56 0 69 -3 72 -17z m298 -649 c3 -3 -6 -15 -20 -26
-19 -15 -35 -19 -66 -15 -23 2 -49 0 -57 -5 -22 -12 -67 1 -67 19 0 26 60 42
135 37 38 -3 72 -7 75 -10z"/>
<path d="M1311 2827 c-7 -10 -19 -17 -25 -17 -7 0 -16 -19 -22 -42 -8 -38 -16
-47 -69 -80 -45 -28 -67 -36 -89 -33 -46 8 -57 -9 -35 -52 23 -44 23 -61 4
-87 -21 -28 -19 -69 5 -99 12 -15 25 -51 30 -82 10 -62 16 -76 33 -74 53 6 48
-18 -5 -28 -31 -6 -46 -15 -54 -33 -17 -36 -35 -109 -38 -156 -2 -22 -11 -58
-22 -80 -18 -38 -28 -45 -141 -99 -11 -5 -34 -18 -50 -27 -17 -9 -65 -21 -107
-27 -78 -9 -98 -5 -263 66 -6 2 -14 16 -18 30 -6 25 -7 25 -83 21 -42 -3 -141
-18 -220 -33 l-142 -27 0 -38 c0 -22 7 -46 18 -58 9 -11 159 -84 332 -162 173
-78 369 -167 434 -196 125 -57 149 -61 222 -43 25 6 48 9 51 5 4 -3 -11 -40
-32 -81 -27 -54 -35 -79 -27 -87 7 -7 7 -21 -3 -47 -7 -20 -16 -56 -20 -79 -7
-42 -6 -44 47 -95 29 -29 72 -69 96 -90 23 -21 42 -43 42 -48 0 -6 15 -25 32
-41 l32 -30 -24 -19 c-14 -10 -32 -25 -40 -32 -8 -7 -27 -21 -42 -30 -39 -24
-71 -93 -55 -118 10 -17 5 -25 -41 -65 -46 -41 -52 -50 -47 -74 6 -26 1 -30
-52 -60 -111 -62 -108 -63 -294 68 -125 88 -171 115 -194 114 -37 -1 -365
-118 -383 -136 -12 -11 15 -37 165 -162 98 -81 201 -167 230 -191 29 -24 62
-49 75 -56 31 -15 722 -12 713 4 -4 5 -53 41 -110 79 -57 38 -107 75 -111 81
-21 34 98 39 182 8 101 -38 225 -10 292 67 21 23 51 46 68 50 68 16 169 99
157 130 -8 21 -119 84 -183 104 -48 15 -58 22 -78 61 -16 32 -21 54 -17 83 4
27 1 44 -10 56 -9 10 -23 46 -31 79 -16 70 -41 125 -79 169 l-26 31 41 63 c33
50 48 64 73 69 18 4 58 12 91 19 62 12 165 61 192 91 20 22 13 57 -19 90 -52
55 -92 115 -144 222 -31 61 -71 129 -91 149 -33 35 -35 39 -22 63 11 21 11 32
2 59 -24 65 -4 205 33 236 25 21 17 48 -26 95 -39 42 -44 65 -14 65 39 0 56
101 33 199 -11 50 -11 52 16 80 l28 29 -23 4 c-13 2 -23 9 -22 16 2 6 -3 12
-10 12 -8 0 -22 17 -31 39 -14 30 -15 43 -7 59 18 34 13 56 -23 92 -19 18 -36
42 -38 53 -3 19 -4 19 -17 4z m-211 -986 c0 -10 -24 -21 -43 -21 -7 0 -3 7 7
15 22 17 36 19 36 6z m40 -130 c0 -11 -29 -81 -34 -81 -9 0 -76 31 -76 35 0 5
91 54 103 55 4 0 7 -4 7 -9z m44 -590 c-3 -9 -9 -26 -11 -39 -7 -30 -18 -35
-43 -20 -25 16 -25 22 1 57 23 32 66 33 53 2z m116 -449 c0 -5 -7 -9 -15 -9
-8 0 -12 4 -9 9 3 4 9 8 15 8 5 0 9 -4 9 -8z m25 -42 c23 -25 14 -34 -47 -49
-66 -16 -66 -15 -23 29 21 22 42 40 45 40 4 0 15 -9 25 -20z m-208 -269 c19
-18 20 -23 8 -58 -14 -42 -27 -48 -128 -58 -52 -5 -67 -3 -95 15 -19 11 -32
26 -30 33 2 7 46 33 97 59 98 50 104 50 148 9z"/>
<path d="M4083 2781 c16 -43 3 -65 -34 -57 -26 5 -30 3 -24 -13 4 -15 -5 -27
-42 -52 -26 -17 -63 -46 -80 -62 -32 -30 -33 -30 -53 -12 -18 17 -20 17 -26 1
-4 -10 3 -34 16 -58 20 -36 21 -44 10 -79 -13 -39 -7 -92 21 -183 5 -16 9 -32
9 -36 0 -13 -61 -20 -80 -10 -13 7 -21 6 -29 -4 -6 -7 -9 -15 -6 -18 14 -13
-37 -37 -92 -43 -68 -8 -62 -14 -63 57 -1 29 -16 38 -62 38 -40 0 -62 -22 -92
-94 -20 -48 -20 -44 7 -48 20 -3 23 -10 27 -71 8 -108 39 -120 159 -62 40 19
77 35 82 35 14 0 82 -70 75 -77 -3 -3 6 -25 19 -49 14 -24 22 -50 19 -58 -3
-7 2 -16 10 -19 25 -10 19 -35 -17 -67 -18 -16 -56 -66 -84 -112 -28 -46 -74
-112 -102 -147 -97 -121 -114 -166 -85 -227 19 -39 33 -47 163 -93 l75 -26 12
-48 c12 -48 12 -50 -22 -93 -18 -25 -38 -64 -44 -87 -7 -23 -23 -63 -36 -90
-14 -26 -24 -55 -22 -65 1 -9 -3 -30 -9 -47 -6 -16 -14 -41 -17 -55 -4 -15
-18 -31 -38 -40 -45 -20 -50 -61 -13 -100 27 -28 52 -41 163 -82 34 -12 62
-25 62 -28 0 -8 -125 6 -175 19 -22 6 -57 11 -78 11 l-38 0 1 -53 c2 -28 -1
-60 -5 -70 -10 -25 5 -38 54 -44 37 -5 41 -3 51 21 5 15 10 41 10 57 0 34 20
38 67 15 15 -8 42 -20 60 -26 19 -7 34 -21 37 -35 3 -12 17 -30 32 -39 18 -13
23 -21 15 -30 -6 -7 -12 -32 -13 -56 -3 -44 -3 -44 45 -67 55 -27 69 -50 42
-69 -10 -8 -15 -17 -11 -21 9 -9 151 -7 166 2 6 3 10 19 10 34 0 15 5 42 11
60 10 29 14 31 62 31 55 1 97 24 97 54 0 9 7 19 15 22 9 4 15 19 15 35 0 23
-9 36 -44 61 -40 27 -46 38 -62 97 -9 36 -21 71 -25 76 -7 10 -9 38 -9 159 0
22 -7 47 -15 56 -26 29 -35 76 -19 98 10 15 11 27 3 50 -7 21 -7 42 0 69 14
47 14 99 1 122 -16 32 -18 89 -3 111 18 26 28 471 11 536 -8 34 -7 46 6 67 9
13 14 31 10 40 -3 9 -1 47 5 85 6 42 7 80 2 99 -7 24 -5 35 7 47 9 9 21 33 28
54 9 34 8 42 -8 62 -10 13 -15 27 -10 32 4 4 42 12 82 18 41 5 120 16 175 24
55 7 106 10 114 6 18 -10 48 -1 55 15 2 7 -4 21 -14 30 -18 16 -26 16 -147 -4
-154 -25 -276 -41 -280 -37 -2 2 8 23 21 47 34 62 40 105 21 158 -15 44 -15
45 12 73 22 23 25 31 14 38 -8 4 -19 6 -26 4 -6 -3 -16 6 -22 18 -6 13 -31 49
-57 80 -28 34 -42 59 -35 63 5 4 15 18 20 32 11 29 -11 73 -35 73 -11 0 -12
-6 -3 -29z m424 -537 c-3 -3 -12 -4 -19 -1 -8 3 -5 6 6 6 11 1 17 -2 13 -5z
m-867 -138 c0 -2 -7 -7 -16 -10 -8 -3 -12 -2 -9 4 6 10 25 14 25 6z m369
-1049 c5 -18 14 -66 19 -107 10 -71 9 -109 -4 -241 l-6 -56 -61 -6 c-71 -6
-156 1 -174 16 -17 13 -16 35 2 53 8 9 15 26 15 38 0 12 32 73 71 135 49 77
73 125 76 154 10 76 40 83 62 14z"/>
</g>
</svg>
