<?xml version="1.0" standalone="no"?>
<!DOCTYPE svg PUBLIC "-//W3C//DTD SVG 20010904//EN"
 "http://www.w3.org/TR/2001/REC-SVG-20010904/DTD/svg10.dtd">
<svg version="1.0" xmlns="http://www.w3.org/2000/svg"
 width="480.000000pt" height="360.000000pt" viewBox="0 0 480.000000 360.000000"
 preserveAspectRatio="xMidYMid meet">
<metadata>
Created by potrace 1.16, written by Peter Selinger 2001-2019
</metadata>
<rect width="1" height="360" fill="#000000"/>
<rect x="479" width="1" height="360" fill="#000000"/>
<rect width="480" height="1" fill="#000000"/>
<rect y="359" width="480" height="1" fill="#000000"/>
<g transform="translate(0.000000,360.000000) scale(0.100000,-0.100000)"
fill="#000000" stroke="none">
<path d="M0 1800 l0 -1800 2400 0 2400 0 0 1800 0 1800 -2400 0 -2400 0 0
-1800z m2140 897 c0 -7 4 -18 9 -26 7 -12 14 -10 36 8 34 26 111 29 156 6 21
-11 43 -14 79 -9 52 7 64 -2 30 -23 -17 -12 -18 -15 -6 -45 13 -30 12 -34 -10
-55 -26 -24 -29 -48 -18 -140 4 -34 12 -53 20 -53 23 0 62 -43 93 -103 17 -31
31 -64 31 -71 0 -7 -23 -49 -51 -92 -45 -69 -49 -79 -35 -90 15 -10 15 -15 -4
-59 -11 -25 -20 -53 -20 -61 0 -16 53 -106 88 -148 16 -20 22 -36 18 -53 -5
-18 13 -51 80 -149 68 -99 84 -128 73 -135 -8 -5 -18 -9 -22 -9 -4 0 -3 -9 3
-19 15 -29 12 -41 -10 -41 -11 0 -44 -13 -73 -30 -30 -16 -61 -30 -69 -30 -9
0 -33 -17 -55 -38 l-39 -38 2 -155 c1 -117 -2 -159 -12 -176 -18 -29 -46 -29
-80 1 -25 21 -27 26 -16 52 13 31 13 254 0 254 -4 0 -23 -10 -43 -22 -36 -21
-38 -21 -92 -4 -57 18 -99 16 -100 -6 -1 -7 -6 -49 -11 -93 -5 -44 -9 -98 -8
-120 1 -38 0 -40 -33 -43 -48 -5 -121 25 -121 48 0 19 8 29 43 53 14 10 20 31
24 90 3 42 10 77 15 77 5 0 8 10 6 22 -2 15 -11 24 -25 26 -15 2 -25 13 -29
30 -4 15 -13 34 -20 42 -16 19 -6 64 55 227 44 122 50 156 26 147 -19 -8 -19
11 -2 62 8 22 12 56 9 77 -2 21 1 64 7 96 9 47 9 65 -4 101 -20 56 -19 59 9
70 29 11 51 89 43 158 -6 53 9 90 55 139 28 29 30 36 26 84 -5 46 -10 57 -46
88 -34 30 -40 41 -35 63 4 20 0 30 -16 40 -26 16 -27 28 -2 28 37 0 51 12 51
42 0 17 4 27 10 23 6 -3 10 -12 10 -18z"/>
<path d="M2441 2193 c0 -10 4 -26 8 -36 6 -17 8 -16 19 7 10 22 9 27 -8 36
-17 9 -20 8 -19 -7z"/>
</g>
</svg>
