<?xml version="1.0" standalone="no"?>
<!DOCTYPE svg PUBLIC "-//W3C//DTD SVG 20010904//EN"
 "http://www.w3.org/TR/2001/REC-SVG-20010904/DTD/svg10.dtd">
<svg version="1.0" xmlns="http://www.w3.org/2000/svg"
 width="480.000000pt" height="360.000000pt" viewBox="0 0 480.000000 360.000000"
 preserveAspectRatio="xMidYMid meet">
<metadata>
Created by potrace 1.16, written by Peter Selinger 2001-2019
</metadata>
<rect width="1" height="360" fill="#000000"/>
<rect x="479" width="1" height="360" fill="#000000"/>
<rect width="480" height="1" fill="#000000"/>
<rect y="359" width="480" height="1" fill="#000000"/>
<g transform="translate(0.000000,360.000000) scale(0.100000,-0.100000)"
fill="#000000" stroke="none">
<path d="M3544 3395 c-7 -30 -84 -102 -145 -138 -175 -103 -256 -140 -294
-134 -43 6 -55 -1 -55 -32 0 -28 20 -53 52 -64 12 -4 15 -12 11 -23 -5 -15
-18 -16 -112 -9 -60 4 -117 13 -134 21 -55 29 -106 1 -122 -67 -6 -22 -1 -28
39 -50 41 -22 46 -28 51 -69 9 -67 23 -101 46 -118 18 -12 20 -21 14 -63 -6
-40 -4 -50 9 -55 9 -3 16 -16 16 -29 0 -12 9 -30 20 -40 38 -34 21 -69 -38
-81 -37 -8 -40 -21 -12 -57 14 -18 19 -34 15 -50 -4 -14 -2 -41 4 -62 8 -29 7
-46 -6 -76 -8 -21 -18 -39 -22 -39 -4 0 -52 29 -107 64 -54 35 -112 72 -128
83 -17 10 -56 62 -92 123 -84 142 -144 201 -237 236 -82 30 -164 103 -151 133
16 34 15 124 -1 190 -20 82 -56 125 -101 119 -21 -2 -30 2 -32 15 -7 34 7 64
54 116 53 58 53 81 1 81 -101 0 -183 -83 -226 -228 l-21 -70 21 -54 c11 -29
41 -90 65 -136 27 -51 44 -96 44 -117 0 -43 14 -80 45 -116 l24 -29 -25 -62
c-49 -125 -84 -294 -84 -409 0 -71 21 -109 60 -109 16 0 74 58 138 139 l19 24
32 -22 c17 -12 31 -26 31 -31 0 -15 108 -112 176 -158 37 -24 117 -76 178
-114 61 -39 112 -72 114 -73 7 -7 -73 -140 -139 -231 -62 -87 -117 -187 -134
-248 -20 -67 -10 -144 24 -200 l19 -31 -24 -30 c-33 -41 -30 -51 16 -75 40
-21 45 -44 12 -55 -27 -8 -75 -56 -110 -107 -18 -26 -32 -49 -32 -52 0 -12 41
-26 55 -19 8 5 28 30 45 56 37 59 68 66 38 10 -26 -50 -21 -135 10 -165 19
-20 20 -23 6 -51 -14 -26 -14 -30 3 -43 10 -7 14 -14 8 -14 -5 0 -4 -4 2 -8
10 -6 10 -24 -2 -86 -8 -43 -18 -82 -21 -87 -3 -5 -9 -23 -14 -40 -8 -27 -7
-29 12 -23 20 6 20 3 17 -125 l-4 -131 911 0 911 0 6 83 c4 45 7 103 7 129 0
78 -74 390 -138 589 -116 353 -163 520 -179 643 -15 111 -15 130 1 270 9 83
24 170 32 193 9 24 13 46 10 51 -2 4 6 72 19 150 20 123 27 146 53 179 82 103
98 199 62 373 -34 168 -79 249 -211 384 -119 121 -194 173 -294 201 -33 10
-62 19 -64 21 -2 2 8 17 23 34 32 39 33 60 4 87 -37 32 -67 36 -74 8z m-1466
-392 c-4 -16 -5 -16 -15 2 -5 11 -13 34 -17 50 l-7 30 22 -32 c11 -18 19 -40
17 -50z m1396 -2660 c14 -93 29 -179 31 -193 10 -51 -55 148 -76 236 -22 92
-21 124 4 124 11 0 21 -44 41 -167z"/>
</g>
</svg>
