<?xml version="1.0" standalone="no"?>
<!DOCTYPE svg PUBLIC "-//W3C//DTD SVG 20010904//EN"
 "http://www.w3.org/TR/2001/REC-SVG-20010904/DTD/svg10.dtd">
<svg version="1.0" xmlns="http://www.w3.org/2000/svg"
 width="480.000000pt" height="360.000000pt" viewBox="0 0 480.000000 360.000000"
 preserveAspectRatio="xMidYMid meet">
<metadata>
Created by potrace 1.16, written by Peter Selinger 2001-2019
</metadata>
<rect width="1" height="360" fill="#000000"/>
<rect x="479" width="1" height="360" fill="#000000"/>
<rect width="480" height="1" fill="#000000"/>
<rect y="359" width="480" height="1" fill="#000000"/>
<g transform="translate(0.000000,360.000000) scale(0.100000,-0.100000)"
fill="#000000" stroke="none">
<path d="M1676 1948 c-39 -59 -56 -283 -31 -398 18 -87 39 -133 106 -235 77
-118 82 -133 83 -212 1 -59 -3 -76 -21 -102 -18 -23 -24 -50 -29 -116 l-7 -86
54 -52 c145 -141 534 -252 659 -189 43 21 70 72 70 130 0 36 8 52 53 109 45
58 52 64 55 45 3 -19 9 -23 35 -20 24 2 33 9 37 27 8 35 40 41 225 40 308 0
458 59 537 211 19 38 22 58 20 128 -2 59 -8 94 -22 122 -23 44 -58 74 -74 61
-6 -5 -20 -11 -31 -14 -19 -4 -18 -5 2 -6 12 0 24 -5 27 -9 3 -5 -30 -8 -74
-8 -50 1 -75 5 -69 10 12 13 12 56 0 56 -6 0 -13 -4 -16 -10 -10 -16 -21 -12
-33 14 -40 89 -516 289 -1057 444 -166 47 -344 82 -424 82 -52 0 -63 -3 -75
-22z m1739 -673 c14 -13 25 -34 25 -46 0 -30 -76 -126 -125 -158 -62 -40 -71
-51 -43 -51 21 -1 21 -2 5 -11 -10 -6 -24 -8 -32 -5 -8 3 -15 1 -17 -4 -5 -14
-101 -30 -213 -36 l-100 -5 60 37 c52 33 102 82 173 174 l19 24 25 -29 c17
-19 30 -26 42 -22 23 9 31 36 18 58 -19 29 -14 45 19 73 42 36 110 36 144 1z"/>
<path d="M2998 983 c12 -2 30 -2 40 0 9 3 -1 5 -23 4 -22 0 -30 -2 -17 -4z"/>
</g>
</svg>
