<?xml version="1.0" standalone="no"?>
<!DOCTYPE svg PUBLIC "-//W3C//DTD SVG 20010904//EN"
 "http://www.w3.org/TR/2001/REC-SVG-20010904/DTD/svg10.dtd">
<svg version="1.0" xmlns="http://www.w3.org/2000/svg"
 width="480.000000pt" height="360.000000pt" viewBox="0 0 480.000000 360.000000"
 preserveAspectRatio="xMidYMid meet">
<metadata>
Created by potrace 1.16, written by Peter Selinger 2001-2019
</metadata>
<rect width="1" height="360" fill="#000000"/>
<rect x="479" width="1" height="360" fill="#000000"/>
<rect width="480" height="1" fill="#000000"/>
<rect y="359" width="480" height="1" fill="#000000"/>
<g transform="translate(0.000000,360.000000) scale(0.100000,-0.100000)"
fill="#000000" stroke="none">
<path d="M890 3363 c-64 -37 -78 -51 -100 -99 -17 -39 -17 -48 -4 -96 l14 -53
-28 -20 c-132 -96 -221 -233 -253 -392 -15 -74 -6 -115 45 -188 19 -27 44 -66
55 -86 11 -19 27 -41 35 -48 14 -12 16 -10 16 8 0 28 6 27 51 -14 40 -35 73
-49 49 -20 -7 8 -8 15 -2 15 13 0 28 -19 36 -46 5 -15 -1 -31 -19 -53 -30 -35
-27 -45 23 -69 30 -14 40 -26 52 -63 8 -26 21 -54 29 -63 13 -15 15 -15 26 0
11 15 15 12 35 -29 14 -27 28 -43 34 -39 6 3 21 5 33 4 12 -2 35 4 52 12 57
30 95 -18 44 -57 -15 -12 -56 -48 -91 -81 -34 -33 -77 -67 -96 -75 -40 -20
-191 -187 -212 -236 -10 -24 -12 -51 -8 -88 5 -44 3 -58 -17 -89 -13 -21 -27
-37 -31 -38 -3 0 -20 30 -37 66 -17 36 -39 77 -49 92 -11 15 -34 65 -52 112
-33 86 -77 195 -86 216 -4 8 13 14 48 19 113 14 334 46 356 52 12 3 22 9 22
14 0 12 -113 11 -321 -2 -121 -7 -174 -7 -183 0 -21 18 -126 51 -160 51 -21 0
-49 -13 -84 -40 -54 -41 -80 -48 -100 -28 -9 9 -12 -79 -12 -399 l0 -412 78
-55 c95 -66 95 -67 121 -136 18 -47 45 -79 189 -224 93 -93 174 -177 180 -187
17 -26 1 -61 -48 -105 -44 -40 -51 -73 -25 -111 12 -17 13 -37 5 -119 -5 -55
-10 -114 -10 -131 l0 -33 612 0 c611 0 611 0 593 20 -25 28 -15 33 35 15 23
-8 52 -15 64 -15 52 0 156 100 156 150 0 28 -83 110 -151 149 -39 22 -67 31
-101 31 -65 0 -74 18 -58 119 16 106 78 345 106 413 30 72 30 93 -1 123 -27
28 -66 33 -84 11 -6 -8 -18 -57 -26 -109 -27 -178 -95 -412 -118 -404 -6 2
-24 39 -40 83 -26 72 -28 86 -22 164 7 94 33 263 46 297 8 21 13 22 64 17 48
-6 54 -4 49 10 -5 13 -1 15 25 10 34 -7 37 -3 21 27 -10 18 -7 19 71 19 73 0
80 2 68 16 -18 22 -19 55 0 61 9 2 28 11 44 19 15 9 36 12 48 9 14 -5 25 -2
30 6 13 21 11 25 -18 38 l-28 13 35 12 c43 14 45 11 54 -74 7 -70 29 -109 41
-71 10 32 22 25 29 -18 3 -21 12 -51 20 -66 16 -30 19 -26 32 48 7 41 24 50
24 12 0 -28 20 -75 32 -75 4 0 8 8 8 18 0 10 7 27 16 38 14 18 15 15 9 -41
-15 -152 -16 -200 -5 -215 9 -11 13 -12 17 -2 2 6 9 12 15 12 7 0 9 -29 5 -88
-4 -65 -2 -92 8 -105 13 -17 15 -16 26 22 7 23 16 41 21 41 5 0 7 -4 4 -9 -8
-12 13 -180 25 -203 9 -17 13 -18 20 -7 6 9 9 -6 9 -43 0 -33 5 -60 12 -64 7
-5 30 13 61 47 28 31 46 45 43 34 -13 -44 -8 -150 7 -179 l15 -28 16 31 c16
30 36 42 36 20 0 -5 5 -7 11 -3 17 10 1 -198 -21 -260 -27 -80 -12 -95 47 -50
l33 25 0 -25 c0 -25 2 -26 68 -26 l68 0 29 87 28 88 13 -50 c7 -27 16 -63 22
-80 l9 -30 8 37 c4 21 11 38 15 38 4 0 15 -20 26 -45 l18 -45 748 0 c411 0
748 4 748 8 0 18 -244 479 -359 677 -45 78 -46 82 -43 154 l4 74 18 -40 c20
-46 40 -63 41 -36 0 16 1 16 8 -2 8 -17 11 -14 26 23 l18 44 29 -51 c16 -28
32 -51 35 -51 3 0 3 18 1 40 -2 22 -1 40 2 40 3 0 15 -18 28 -40 12 -22 26
-40 30 -40 4 0 6 20 4 45 -2 25 0 45 4 45 5 0 20 -16 34 -35 31 -43 43 -44 36
-5 -3 17 -9 45 -12 63 l-6 32 41 -40 c23 -21 41 -36 41 -32 0 4 17 -4 37 -17
20 -14 38 -24 39 -23 2 1 -5 33 -15 70 l-19 68 22 -16 c50 -37 128 -86 131
-83 5 5 -79 127 -122 178 -29 34 -32 40 -13 27 51 -35 87 -51 165 -73 119 -34
116 -28 -35 73 -64 43 -162 134 -405 377 -422 423 -627 604 -707 626 -97 27
-192 30 -403 14 -372 -28 -563 0 -797 117 -43 22 -85 50 -94 64 -9 15 -23 24
-30 21 -8 -3 -42 8 -76 24 l-63 30 -6 -47 c-4 -27 -13 -61 -20 -78 -13 -28
-107 -175 -112 -175 -2 0 -3 31 -3 69 0 69 0 69 24 60 35 -13 39 -3 14 31 -23
31 -50 125 -39 136 4 4 14 1 22 -6 14 -11 14 -10 6 13 -6 14 -21 47 -34 74
-13 26 -30 66 -37 88 -20 65 -132 337 -151 369 -31 52 -113 150 -180 217 -50
50 -80 70 -126 87 -33 12 -67 22 -75 22 -22 0 -34 18 -49 70 -7 25 -17 50 -23
57 -12 13 -180 53 -223 53 -16 0 -48 -12 -73 -27z m880 -1240 c12 -27 26 -56
31 -65 5 -10 9 -25 9 -33 0 -31 -165 -224 -192 -225 -10 0 -10 115 -2 159 5
24 10 29 19 21 25 -21 53 -19 60 3 6 22 6 22 14 2 7 -17 9 -15 16 15 4 19 7
65 6 103 0 37 3 67 8 67 5 0 19 -21 31 -47z m-231 -212 c13 -24 20 -111 10
-117 -5 -3 -9 3 -9 13 0 10 -11 43 -24 74 -21 53 -21 56 -4 51 10 -2 22 -12
27 -21z m-1364 -141 c3 -5 -1 -10 -10 -10 -9 0 -13 5 -10 10 3 6 8 10 10 10 2
0 7 -4 10 -10z m44 -107 c11 -21 32 -52 48 -68 58 -63 63 -72 72 -141 6 -41
38 -147 76 -248 36 -97 65 -179 65 -182 0 -3 -26 13 -57 34 -32 21 -77 49
-101 62 -43 24 -51 34 -102 120 l-29 49 57 19 c49 16 57 22 56 43 -1 13 -38
90 -83 171 -44 80 -81 151 -81 157 0 5 12 12 28 14 15 2 28 5 29 6 2 0 11 -16
22 -36z"/>
</g>
</svg>
