<?xml version="1.0" standalone="no"?>
<!DOCTYPE svg PUBLIC "-//W3C//DTD SVG 20010904//EN"
 "http://www.w3.org/TR/2001/REC-SVG-20010904/DTD/svg10.dtd">
<svg version="1.0" xmlns="http://www.w3.org/2000/svg"
 width="480.000000pt" height="360.000000pt" viewBox="0 0 480.000000 360.000000"
 preserveAspectRatio="xMidYMid meet">
<metadata>
Created by potrace 1.16, written by Peter Selinger 2001-2019
</metadata>
<rect width="1" height="360" fill="#000000"/>
<rect x="479" width="1" height="360" fill="#000000"/>
<rect width="480" height="1" fill="#000000"/>
<rect y="359" width="480" height="1" fill="#000000"/>
<g transform="translate(0.000000,360.000000) scale(0.100000,-0.100000)"
fill="#000000" stroke="none">
<path d="M2860 3541 c-54 -17 -128 -61 -165 -100 -37 -38 -44 -41 -93 -41 -90
0 -141 -18 -189 -67 l-42 -44 -58 29 c-32 16 -78 34 -103 41 -25 7 -58 18 -75
23 -56 18 -216 21 -290 5 -49 -10 -77 -12 -97 -5 -25 9 -34 5 -78 -28 -28 -21
-69 -45 -92 -54 -66 -24 -89 -67 -85 -152 3 -51 9 -74 24 -91 11 -12 32 -43
47 -69 39 -68 138 -156 240 -213 48 -27 91 -55 93 -62 3 -8 -6 -40 -21 -73
-56 -124 -65 -185 -56 -395 5 -131 13 -207 25 -244 11 -37 15 -69 10 -100 -5
-37 -4 -44 6 -33 21 20 25 15 48 -48 24 -65 37 -79 26 -27 l-7 32 23 -21 c36
-32 149 -104 163 -104 6 0 18 -6 25 -12 11 -11 12 -9 7 8 -6 20 -1 19 79 -15
l85 -36 0 -90 c0 -129 -8 -165 -34 -165 -20 0 -21 -4 -24 -171 -2 -94 -7 -213
-12 -263 -8 -91 -2 -122 22 -98 15 15 57 -24 58 -53 1 -61 146 -423 162 -407
5 5 5 101 -1 227 l-10 219 25 23 c21 20 23 26 13 45 -11 21 -10 102 7 381 4
73 3 88 -10 93 -12 4 -16 20 -16 55 0 54 7 60 36 28 10 -12 43 -40 73 -61 l53
-40 -4 -93 c-4 -90 1 -109 30 -111 6 -1 16 -2 20 -2 5 -1 14 -24 20 -51 13
-55 109 -285 135 -322 16 -21 17 -22 17 -4 0 11 -7 59 -14 106 -8 47 -18 129
-22 181 -6 84 -5 96 10 101 14 6 16 16 11 64 l-7 58 70 69 70 69 16 -37 c8
-20 19 -36 24 -36 5 0 17 -21 26 -47 10 -27 29 -74 43 -105 l27 -58 -24 -47
c-13 -27 -42 -68 -64 -93 -53 -58 -114 -158 -122 -201 -5 -22 -27 -55 -65 -96
-33 -34 -60 -67 -61 -75 0 -7 -2 -121 -3 -253 -1 -132 -7 -273 -12 -313 l-9
-72 829 0 c662 0 827 3 819 12 -6 7 -13 31 -16 53 l-6 40 27 -53 27 -52 103 0
c57 0 103 2 103 5 0 12 -98 202 -123 239 -15 21 -27 44 -27 51 0 7 -16 39 -35
71 -19 33 -48 86 -66 119 -17 33 -48 87 -69 120 -20 33 -56 94 -81 135 -24 41
-65 108 -92 148 -53 79 -153 280 -144 289 8 8 37 -14 117 -91 39 -37 74 -65
77 -63 7 8 -46 104 -124 224 -67 104 -123 203 -123 219 0 3 20 -18 44 -48 46
-56 217 -220 224 -213 2 2 -23 43 -56 92 -53 79 -112 183 -112 198 0 3 33 -19
72 -50 40 -30 76 -55 81 -55 9 0 -12 43 -71 140 -47 78 -96 180 -89 186 2 2
25 -23 52 -56 26 -34 49 -59 52 -57 2 3 -9 36 -25 75 -31 71 -68 190 -166 527
-126 436 -250 705 -396 859 -38 40 -54 68 -70 118 -24 78 -70 141 -152 207
-123 100 -275 162 -392 160 -39 0 -82 -4 -96 -8z m-554 -1853 c14 -23 -8 -15
-65 23 -33 22 -61 42 -61 44 0 7 120 -57 126 -67z"/>
</g>
</svg>
