<?xml version="1.0" standalone="no"?>
<!DOCTYPE svg PUBLIC "-//W3C//DTD SVG 20010904//EN"
 "http://www.w3.org/TR/2001/REC-SVG-20010904/DTD/svg10.dtd">
<svg version="1.0" xmlns="http://www.w3.org/2000/svg"
 width="480.000000pt" height="360.000000pt" viewBox="0 0 480.000000 360.000000"
 preserveAspectRatio="xMidYMid meet">
<metadata>
Created by potrace 1.16, written by Peter Selinger 2001-2019
</metadata>
<rect width="1" height="360" fill="#000000"/>
<rect x="479" width="1" height="360" fill="#000000"/>
<rect width="480" height="1" fill="#000000"/>
<rect y="359" width="480" height="1" fill="#000000"/>
<g transform="translate(0.000000,360.000000) scale(0.100000,-0.100000)"
fill="#000000" stroke="none">
<path d="M0 2065 l0 -1535 63 0 64 0 6 98 c10 143 8 220 -4 240 -9 14 -3 34
30 99 22 45 46 85 53 89 7 5 33 10 58 12 25 2 52 10 61 18 8 8 21 14 27 14 14
0 17 137 3 159 -16 26 8 56 62 77 43 16 53 24 55 47 2 16 -2 34 -8 42 -9 11
-7 23 11 55 21 38 49 54 49 28 0 -6 7 -20 16 -30 12 -12 14 -21 6 -30 -13 -16
-16 -66 -7 -96 5 -16 20 -25 52 -34 46 -11 64 -31 44 -51 -6 -6 -11 -44 -11
-88 l0 -77 40 -21 c22 -12 56 -21 75 -21 41 0 54 -16 86 -107 18 -50 21 -67
12 -85 -7 -13 -14 -96 -18 -186 l-6 -162 35 0 c34 0 35 1 42 48 3 26 14 63 23
83 26 54 143 239 152 239 4 0 36 -50 70 -112 54 -96 64 -122 71 -181 4 -38 8
-71 10 -72 5 -5 420 -15 619 -15 l196 0 89 -85 c49 -46 93 -84 98 -85 5 0 6
102 2 248 l-7 249 57 84 c31 46 61 88 65 93 4 4 35 -34 68 -85 l62 -94 -2
-370 c0 -203 0 -391 0 -417 l1 -48 1165 0 1165 0 0 1800 0 1800 -2400 0 -2400
0 0 -1535z m3176 897 c31 -25 45 -56 38 -89 -3 -17 4 -53 18 -93 l23 -65 115
-25 c64 -14 121 -29 128 -33 21 -14 13 -38 -23 -73 -22 -21 -33 -38 -29 -48 5
-12 0 -16 -21 -16 -14 0 -24 -4 -20 -9 3 -6 -10 -13 -30 -17 -39 -7 -46 -23
-15 -31 26 -7 26 -23 1 -23 -14 0 -19 -6 -18 -22 0 -13 6 -27 12 -31 6 -5 1
-7 -12 -4 -13 3 -26 1 -29 -4 -3 -5 -9 -7 -14 -4 -5 3 -11 -21 -15 -52 -3 -32
-8 -70 -10 -85 -5 -34 -4 -34 43 -3 34 23 125 63 181 80 23 7 24 6 19 -39 -3
-26 -17 -70 -32 -97 -14 -28 -26 -52 -26 -53 0 -2 81 -3 181 -2 l181 1 -33
-27 -33 -28 45 -18 c24 -11 53 -23 64 -27 13 -5 15 -9 8 -12 -7 -3 -13 -11
-13 -18 0 -14 28 -24 115 -43 l40 -9 -44 -9 c-54 -11 -62 -27 -21 -44 39 -16
104 -74 75 -66 -57 14 -103 17 -110 6 -4 -6 12 -29 34 -52 46 -46 49 -52 21
-43 -25 8 -26 -3 -2 -22 15 -13 13 -14 -20 -9 -40 5 -52 -8 -18 -19 15 -5 20
-14 18 -32 -3 -22 4 -27 52 -45 61 -23 92 -45 48 -34 -14 3 -34 9 -45 12 -15
6 -16 4 -5 -7 24 -26 11 -28 -40 -8 -29 12 -59 24 -67 27 -10 4 -9 -3 5 -26
13 -23 32 -36 64 -47 l45 -14 -72 5 c-71 5 -71 5 -66 -18 6 -22 4 -22 -25 6
-18 16 -35 27 -38 23 -4 -3 -16 -1 -28 5 -19 10 -20 10 -8 -5 8 -9 29 -21 48
-27 19 -6 34 -17 34 -25 0 -7 7 -15 15 -19 8 -3 15 -10 15 -16 0 -6 -23 1 -51
16 -28 14 -53 23 -55 21 -3 -2 5 -21 17 -41 32 -54 16 -55 -40 -3 -66 61 -84
62 -79 2 2 -28 -1 -46 -8 -49 -7 -3 -15 -18 -19 -35 -4 -17 -11 -29 -16 -25
-5 3 -6 17 -3 32 4 21 3 24 -5 12 -9 -12 -11 -10 -11 11 0 15 -6 31 -12 37
-22 17 -151 82 -155 78 -3 -2 0 -13 6 -24 6 -12 11 -35 11 -52 0 -39 -47 -90
-83 -90 -46 0 -66 28 -83 120 -18 100 -30 121 -80 145 -34 16 -38 16 -49 1 -7
-9 -22 -55 -35 -103 -31 -116 -36 -125 -68 -121 -38 4 -72 59 -72 115 0 33 -4
45 -17 50 -10 3 -26 15 -35 27 -15 18 -18 19 -18 4 0 -10 -4 -18 -10 -18 -5 0
-10 4 -10 10 0 5 -19 24 -42 41 l-43 30 -8 -25 c-9 -28 -15 -30 -36 -17 -8 5
-11 16 -6 30 5 15 1 27 -14 39 -12 9 -24 32 -27 49 -7 34 -6 35 49 47 18 4 31
16 38 34 14 36 54 78 108 113 34 22 49 41 63 76 17 45 17 52 3 113 -22 90 -28
99 -54 76 -41 -38 -84 0 -63 57 7 18 12 56 12 83 0 42 5 55 26 75 24 22 26 28
21 86 -4 34 -12 71 -18 82 -14 22 -65 33 -91 20 -26 -14 -98 -11 -98 4 0 7 -9
18 -21 25 -27 17 -16 30 61 67 l61 29 -23 18 c-22 16 -22 18 -3 17 11 0 29 -4
40 -8 14 -6 28 -2 48 15 16 13 33 24 37 24 5 0 25 33 44 73 35 73 66 115 102
135 29 17 86 14 110 -6z"/>
<path d="M2903 1780 c-18 -11 -33 -24 -33 -30 0 -22 31 -4 59 33 17 22 13 21
-26 -3z"/>
<path d="M2910 1611 c0 -6 5 -13 10 -16 6 -3 10 1 10 9 0 9 -4 16 -10 16 -5 0
-10 -4 -10 -9z"/>
</g>
</svg>
