<?xml version="1.0" standalone="no"?>
<!DOCTYPE svg PUBLIC "-//W3C//DTD SVG 20010904//EN"
 "http://www.w3.org/TR/2001/REC-SVG-20010904/DTD/svg10.dtd">
<svg version="1.0" xmlns="http://www.w3.org/2000/svg"
 width="480.000000pt" height="360.000000pt" viewBox="0 0 480.000000 360.000000"
 preserveAspectRatio="xMidYMid meet">
<metadata>
Created by potrace 1.16, written by Peter Selinger 2001-2019
</metadata>
<rect width="1" height="360" fill="#000000"/>
<rect x="479" width="1" height="360" fill="#000000"/>
<rect width="480" height="1" fill="#000000"/>
<rect y="359" width="480" height="1" fill="#000000"/>
<g transform="translate(0.000000,360.000000) scale(0.100000,-0.100000)"
fill="#000000" stroke="none">
<path d="M0 1908 c1 -1160 4 -1687 11 -1675 5 9 7 22 4 27 -3 5 8 27 25 49 25
30 35 57 45 116 13 72 12 79 -6 108 -23 38 -24 51 -5 44 15 -6 26 20 26 64 0
20 6 28 23 33 20 5 26 17 41 88 10 46 28 107 42 137 32 72 24 108 -25 101 -10
-1 -12 6 -7 32 9 48 36 79 93 111 47 25 51 31 58 73 3 25 4 48 1 51 -3 3 -17
-4 -32 -16 -38 -30 -45 -26 -24 16 26 56 50 157 50 216 0 29 -7 100 -16 160
-15 92 -19 107 -34 102 -19 -6 -110 31 -110 45 0 4 6 10 12 12 7 3 11 18 10
37 -1 19 8 54 23 85 14 28 30 76 37 107 l11 55 -51 64 c-99 122 -148 357 -108
520 36 147 104 232 271 342 273 178 373 210 704 224 114 5 171 11 171 18 1 57
14 183 20 189 10 11 53 -45 140 -183 40 -63 99 -143 131 -178 62 -68 121 -172
145 -254 28 -95 63 -163 94 -182 63 -37 132 -52 184 -42 47 9 50 9 71 -18 16
-20 29 -27 43 -24 11 3 26 2 33 -3 23 -14 -43 -189 -71 -189 -5 0 -25 14 -45
31 l-36 32 -24 -23 c-16 -15 -21 -27 -16 -34 5 -6 13 -31 19 -56 5 -25 13 -53
17 -63 6 -13 3 -16 -9 -11 -12 5 -16 0 -16 -22 0 -15 -8 -46 -19 -68 -10 -23
-22 -50 -26 -61 -5 -13 -9 -15 -12 -7 -9 24 -23 11 -23 -21 0 -42 -9 -52 -26
-29 -12 16 -13 16 -14 0 0 -9 -4 -20 -10 -23 -6 -3 -7 1 -4 9 11 28 -14 17
-32 -14 -12 -20 -21 -26 -29 -20 -8 7 -16 2 -24 -13 -9 -18 -10 -45 -3 -113 7
-60 7 -93 0 -101 -13 -16 -2 -76 23 -125 28 -55 24 -57 -24 -10 l-43 42 -22
-48 c-17 -38 -20 -58 -15 -100 6 -54 -2 -64 -37 -42 -11 7 -22 2 -42 -17 -26
-25 -31 -26 -112 -21 -64 4 -90 2 -105 -9 -23 -16 -28 -55 -8 -71 14 -12 485
-132 516 -132 25 0 87 -53 106 -90 13 -26 13 -30 -10 -54 -30 -32 -29 -30 -8
-64 9 -15 18 -28 18 -30 1 -1 36 14 78 33 200 93 471 138 696 117 200 -19 328
-51 502 -128 261 -115 529 -342 695 -589 79 -119 180 -311 191 -366 5 -26 1
-31 -28 -44 -31 -13 4 -14 349 -15 l382 0 0 1800 0 1800 -2400 0 -2400 0 0
-1692z m4108 1660 c-2 -13 -11 -24 -20 -26 -21 -4 -24 18 -6 36 19 19 30 14
26 -10z m522 -126 c0 -13 -12 -22 -22 -16 -10 6 -1 24 13 24 5 0 9 -4 9 -8z
m-1601 -1178 c41 -52 37 -134 -11 -211 -16 -28 -22 -31 -38 -21 -14 9 -22 9
-35 -2 -21 -17 -31 -4 -40 52 -7 42 7 95 38 148 42 69 54 74 86 34z m-2873
-144 c17 -4 38 -11 48 -17 16 -9 15 -11 -3 -27 -22 -20 -46 -16 -85 15 -30 24
-36 55 -8 44 9 -4 31 -11 48 -15z m4524 -950 c0 -5 -4 -10 -10 -10 -5 0 -10 5
-10 10 0 6 5 10 10 10 6 0 10 -4 10 -10z"/>
<path d="M0 81 c0 -101 19 -110 44 -23 20 71 20 72 2 72 -8 0 -22 7 -30 16
-15 14 -16 8 -16 -65z"/>
<path d="M1755 98 c-3 -35 -9 -71 -11 -80 -4 -13 0 -18 15 -18 20 0 21 6 21
80 0 44 -4 80 -9 80 -5 0 -12 -28 -16 -62z"/>
</g>
</svg>
