<?xml version="1.0" standalone="no"?>
<!DOCTYPE svg PUBLIC "-//W3C//DTD SVG 20010904//EN"
 "http://www.w3.org/TR/2001/REC-SVG-20010904/DTD/svg10.dtd">
<svg version="1.0" xmlns="http://www.w3.org/2000/svg"
 width="480.000000pt" height="360.000000pt" viewBox="0 0 480.000000 360.000000"
 preserveAspectRatio="xMidYMid meet">
<metadata>
Created by potrace 1.16, written by Peter Selinger 2001-2019
</metadata>
<rect width="1" height="360" fill="#000000"/>
<rect x="479" width="1" height="360" fill="#000000"/>
<rect width="480" height="1" fill="#000000"/>
<rect y="359" width="480" height="1" fill="#000000"/>
<g transform="translate(0.000000,360.000000) scale(0.100000,-0.100000)"
fill="#000000" stroke="none">
<path d="M1791 2154 c-82 -73 -87 -92 -77 -246 6 -101 19 -128 95 -202 l69
-66 12 -88 c18 -130 48 -268 64 -301 22 -41 71 -79 112 -87 24 -4 53 0 95 15
98 36 92 42 165 -174 68 -203 78 -269 49 -325 -8 -16 -18 -63 -22 -104 -5 -70
-4 -76 19 -98 14 -13 28 -40 32 -60 4 -22 17 -45 33 -58 32 -25 63 -21 183 25
105 40 177 65 191 65 6 0 25 6 42 14 18 8 68 31 112 51 44 20 90 46 103 58 28
26 49 17 74 -34 25 -47 134 -159 157 -159 10 0 50 16 88 35 72 36 188 144 181
167 -2 6 -16 21 -31 31 -25 19 -29 19 -102 5 l-75 -15 -30 33 c-21 25 -38 34
-60 34 -25 0 -30 4 -30 24 0 13 8 34 18 47 10 13 38 64 62 114 24 49 61 106
82 127 21 21 38 48 38 59 0 12 9 37 21 56 32 51 15 119 -48 191 -47 54 -107
64 -358 56 -236 -7 -269 -2 -395 61 -37 18 -83 37 -104 40 -29 6 -43 16 -61
45 -13 21 -29 41 -35 45 -10 6 -80 138 -80 150 0 3 12 -1 28 -8 37 -19 157
-57 179 -57 10 0 36 12 58 27 21 14 60 34 85 44 25 9 54 29 64 43 l20 26 -39
40 c-50 51 -74 51 -123 1 -22 -22 -52 -43 -66 -47 -37 -9 -103 22 -119 55 -18
38 -75 53 -177 48 -47 -2 -92 -6 -100 -10 -27 -12 -43 7 -35 43 7 30 9 32 42
25 33 -6 35 -5 30 17 -11 49 -47 131 -72 164 -35 45 -118 88 -160 81 -17 -3
-42 1 -55 9 -50 27 -93 18 -149 -32z"/>
</g>
</svg>
