<?xml version="1.0" standalone="no"?>
<!DOCTYPE svg PUBLIC "-//W3C//DTD SVG 20010904//EN"
 "http://www.w3.org/TR/2001/REC-SVG-20010904/DTD/svg10.dtd">
<svg version="1.0" xmlns="http://www.w3.org/2000/svg"
 width="480.000000pt" height="360.000000pt" viewBox="0 0 480.000000 360.000000"
 preserveAspectRatio="xMidYMid meet">
<metadata>
Created by potrace 1.16, written by Peter Selinger 2001-2019
</metadata>
<rect width="1" height="360" fill="#000000"/>
<rect x="479" width="1" height="360" fill="#000000"/>
<rect width="480" height="1" fill="#000000"/>
<rect y="359" width="480" height="1" fill="#000000"/>
<g transform="translate(0.000000,360.000000) scale(0.100000,-0.100000)"
fill="#000000" stroke="none">
<path d="M0 2949 l0 -651 28 7 c49 13 324 21 472 13 199 -11 365 -33 565 -75
94 -20 186 -36 205 -37 l35 -1 -3 50 c-4 76 -3 75 -69 58 -55 -14 -148 -13
-173 2 -19 12 -10 70 21 123 17 30 64 89 106 133 l76 79 -11 98 c-31 274 -28
299 49 392 52 63 185 170 211 170 8 0 25 11 38 25 28 30 164 97 245 121 33 9
87 18 120 18 69 1 96 -11 248 -110 l99 -65 61 25 c34 13 82 30 107 37 25 7 50
17 57 21 6 5 45 12 86 15 94 7 117 -4 117 -55 0 -50 -39 -111 -140 -216 l-80
-83 63 -59 c34 -33 81 -75 105 -94 46 -36 41 -55 -10 -44 -32 7 -33 3 -12 -37
8 -17 17 -56 19 -87 l3 -57 -17 38 -18 37 -12 -55 c-7 -30 -17 -55 -23 -55 -6
0 -8 11 -4 28 3 17 -2 10 -15 -18 -11 -25 -27 -53 -36 -62 -23 -26 -4 -62 46
-87 22 -12 42 -25 45 -30 3 -5 -10 -28 -29 -52 -29 -37 -34 -49 -29 -80 5 -30
2 -39 -15 -51 -13 -10 -19 -21 -15 -31 3 -9 -1 -29 -10 -44 -8 -15 -20 -47
-26 -69 -11 -45 -24 -60 -55 -66 -17 -3 -21 -14 -26 -74 -8 -82 -29 -129 -70
-152 -16 -10 -29 -19 -29 -22 0 -3 71 -41 158 -84 86 -43 206 -105 266 -137
99 -55 110 -59 125 -44 28 24 66 18 110 -19 23 -19 51 -38 64 -42 12 -3 36
-19 52 -34 17 -15 47 -33 67 -39 20 -7 42 -19 50 -28 7 -9 31 -24 53 -33 53
-23 69 -44 67 -85 -2 -26 3 -37 19 -46 32 -17 243 -173 326 -242 63 -52 77
-59 103 -54 42 9 78 -7 86 -38 5 -20 12 -25 39 -25 37 0 62 -19 71 -55 4 -16
17 -28 39 -35 33 -11 45 -26 45 -60 0 -9 7 -23 15 -30 8 -7 15 -28 15 -47 0
-29 14 -49 86 -131 102 -116 238 -292 323 -419 l62 -93 129 0 130 0 0 1800 0
1800 -2400 0 -2400 0 0 -651z"/>
<path d="M145 2059 c-55 -5 -110 -11 -122 -14 l-23 -5 0 -1020 0 -1020 914 0
914 0 11 49 c11 51 3 188 -24 421 -25 215 -38 265 -79 310 -20 22 -37 46 -38
53 0 6 -3 26 -6 42 -3 17 -5 104 -6 195 -1 166 -10 235 -27 208 -5 -7 -9 -30
-9 -51 0 -23 -4 -36 -10 -32 -5 3 -10 23 -10 43 -1 37 -1 37 -14 12 -13 -23
-14 -19 -21 52 -4 42 -6 112 -4 156 l4 79 -64 11 c-88 15 -185 65 -254 131
-75 71 -91 100 -112 193 -20 90 -1 79 -215 122 -210 42 -333 56 -635 70 -38 1
-115 -1 -170 -5z"/>
<path d="M2610 1346 c0 -3 15 -29 33 -58 38 -61 61 -112 48 -103 -6 3 -24 28
-42 55 -18 28 -34 50 -35 50 -1 0 16 -40 39 -90 23 -49 47 -88 52 -86 6 2 9
32 8 67 -3 107 -9 123 -51 144 -53 28 -52 27 -52 21z"/>
<path d="M3173 940 l-33 -50 46 -42 c67 -62 71 -72 37 -116 -15 -20 -47 -58
-72 -84 l-44 -48 94 0 c81 1 288 23 293 32 1 2 14 22 29 45 15 24 27 48 26 55
0 7 -32 38 -72 68 -115 88 -257 190 -265 190 -4 0 -22 -23 -39 -50z"/>
<path d="M3866 408 c-9 -13 -38 -39 -66 -58 -27 -19 -52 -44 -54 -55 -3 -11
-10 -45 -16 -76 -6 -31 -21 -76 -33 -100 l-22 -44 -60 1 c-45 1 -93 14 -195
52 -186 69 -296 89 -580 107 l-95 5 -57 -79 c-48 -65 -58 -85 -58 -120 l0 -41
811 0 c645 0 809 3 803 13 -45 73 -327 405 -354 415 -5 2 -16 -7 -24 -20z"/>
</g>
</svg>
