<?xml version="1.0" standalone="no"?>
<!DOCTYPE svg PUBLIC "-//W3C//DTD SVG 20010904//EN"
 "http://www.w3.org/TR/2001/REC-SVG-20010904/DTD/svg10.dtd">
<svg version="1.0" xmlns="http://www.w3.org/2000/svg"
 width="480.000000pt" height="360.000000pt" viewBox="0 0 480.000000 360.000000"
 preserveAspectRatio="xMidYMid meet">
<metadata>
Created by potrace 1.16, written by Peter Selinger 2001-2019
</metadata>
<rect width="1" height="360" fill="#000000"/>
<rect x="479" width="1" height="360" fill="#000000"/>
<rect width="480" height="1" fill="#000000"/>
<rect y="359" width="480" height="1" fill="#000000"/>
<g transform="translate(0.000000,360.000000) scale(0.100000,-0.100000)"
fill="#000000" stroke="none">
<path d="M1435 3529 c35 -73 47 -131 64 -314 6 -60 17 -146 25 -190 20 -112
36 -288 39 -430 2 -132 7 -119 -80 -245 -23 -33 -55 -96 -70 -138 -15 -42 -59
-139 -96 -216 -67 -136 -69 -140 -93 -300 -16 -102 -38 -199 -61 -266 l-35
-105 31 -25 c17 -15 31 -33 31 -42 0 -9 6 -33 14 -55 16 -44 9 -69 -38 -137
-14 -21 -26 -45 -26 -52 0 -16 43 -12 66 7 16 13 17 12 10 -11 -4 -14 -9 -40
-13 -57 -5 -30 -3 -33 19 -33 30 0 44 14 53 53 4 15 12 27 17 27 9 0 6 -64 -5
-123 -1 -5 8 -13 20 -18 19 -7 25 -4 38 20 8 16 18 54 21 85 6 46 9 54 20 45
8 -6 14 -19 14 -28 1 -33 38 -98 59 -104 13 -3 24 0 26 6 3 7 -8 53 -24 102
-27 86 -27 90 -10 97 25 10 24 31 -2 54 -12 10 -31 39 -42 63 l-19 44 21 16
c18 14 23 35 36 141 8 69 25 168 38 220 14 52 27 114 31 138 4 27 28 77 68
140 87 137 90 140 82 67 -4 -33 -13 -77 -20 -98 -10 -28 -11 -43 -2 -56 7 -12
8 -34 2 -67 -11 -65 -7 -93 17 -126 12 -18 17 -36 14 -51 -4 -16 0 -29 14 -41
12 -11 21 -24 21 -31 0 -11 42 -47 85 -72 25 -15 85 -16 122 -2 15 5 67 48
114 95 77 77 91 86 145 99 32 8 69 14 82 15 13 0 47 12 77 26 52 26 54 26 102
11 26 -9 85 -21 130 -27 67 -9 94 -8 155 6 103 23 213 78 275 140 60 60 70 99
58 223 -4 42 -9 124 -11 183 -4 109 2 135 51 252 7 16 5 18 -9 13 -15 -6 -17
-3 -12 18 4 14 2 25 -3 25 -19 0 -141 -122 -187 -188 -53 -74 -102 -121 -124
-122 -9 0 -38 22 -64 49 -48 49 -49 50 -33 75 28 42 88 207 108 296 23 104 24
162 4 222 -21 60 -58 94 -131 119 -32 11 -65 22 -72 24 -10 4 -5 15 18 41 25
29 30 41 25 66 -8 35 6 74 51 144 45 69 104 199 104 231 0 23 -2 24 -17 12
-17 -15 -17 -14 4 94 6 31 -10 37 -26 10 -9 -16 -10 -16 -11 5 l0 22 -660 0
-659 0 34 -71z m435 -1143 c0 -25 -34 -57 -50 -46 -12 7 -11 13 10 34 26 29
40 33 40 12z m-79 -84 c-6 -12 -11 -31 -11 -44 0 -29 -31 -118 -42 -118 -19 0
9 122 39 168 17 28 29 22 14 -6z"/>
<path d="M4190 3047 c0 -305 -3 -1115 -7 -1800 l-6 -1247 311 0 312 0 0 1800
0 1800 -305 0 -305 0 0 -553z"/>
</g>
</svg>
