<?xml version="1.0" standalone="no"?>
<!DOCTYPE svg PUBLIC "-//W3C//DTD SVG 20010904//EN"
 "http://www.w3.org/TR/2001/REC-SVG-20010904/DTD/svg10.dtd">
<svg version="1.0" xmlns="http://www.w3.org/2000/svg"
 width="480.000000pt" height="360.000000pt" viewBox="0 0 480.000000 360.000000"
 preserveAspectRatio="xMidYMid meet">
<metadata>
Created by potrace 1.16, written by Peter Selinger 2001-2019
</metadata>
<rect width="1" height="360" fill="#000000"/>
<rect x="479" width="1" height="360" fill="#000000"/>
<rect width="480" height="1" fill="#000000"/>
<rect y="359" width="480" height="1" fill="#000000"/>
<g transform="translate(0.000000,360.000000) scale(0.100000,-0.100000)"
fill="#000000" stroke="none">
<path d="M0 2205 c0 -1230 2 -1394 15 -1389 27 11 38 -42 20 -97 -9 -27 -21
-51 -26 -54 -5 -4 -9 -145 -9 -336 l0 -329 475 0 475 0 0 49 0 49 -45 11 c-25
6 -72 25 -106 42 l-61 31 -127 -7 c-69 -3 -144 -7 -166 -8 -22 -1 -76 9 -120
22 -44 13 -97 27 -117 32 -47 12 -58 32 -65 120 -6 69 -7 71 -44 95 -21 13
-44 24 -50 24 -6 0 -9 9 -6 20 3 13 -2 28 -16 41 l-22 20 40 33 c36 31 38 36
28 59 -16 35 0 47 152 112 252 108 359 179 515 342 l101 106 -6 46 c-17 129
-14 122 -40 105 -16 -10 -25 -12 -30 -4 -11 17 15 41 37 34 16 -5 19 -2 16 17
-4 30 -44 40 -99 27 -34 -9 -51 -8 -93 7 -123 44 -181 81 -270 177 -92 99 -93
101 -126 259 -17 82 -18 110 -10 200 44 483 414 853 912 911 112 13 239 2 373
-32 103 -26 274 -126 317 -185 51 -69 90 -157 109 -244 25 -112 24 -167 -2
-216 -12 -22 -26 -73 -31 -113 -11 -88 -39 -153 -82 -187 -64 -52 -86 -79 -92
-111 -9 -47 -74 -134 -123 -164 -28 -17 -39 -30 -34 -40 10 -23 14 -114 6
-125 -17 -23 -157 -125 -172 -125 -8 0 -24 9 -36 20 l-22 20 -18 -20 c-17 -19
-17 -21 -2 -38 10 -10 17 -28 17 -39 0 -11 11 -45 24 -74 46 -101 55 -207 58
-678 3 -426 3 -434 -17 -443 -18 -8 -20 -18 -20 -93 l0 -85 1556 0 c1368 0
1558 2 1563 15 4 11 16 13 53 9 26 -4 52 -11 58 -15 5 -5 49 -9 97 -9 l88 0 0
181 c0 170 -1 182 -20 197 -14 11 -26 42 -36 91 -8 40 -13 75 -10 78 3 3 19
-16 35 -43 l31 -48 0 1572 0 1572 -1450 0 c-1197 0 -1450 -2 -1450 -13 0 -14
-41 -57 -54 -57 -5 0 -6 16 -4 35 l4 35 -923 0 -923 0 0 -1395z m3688 1333
c-6 -18 -79 -22 -102 -5 -17 12 -13 14 43 16 47 1 62 -2 59 -11z m-1048 -153
c0 -8 -8 -15 -18 -15 -9 0 -35 -9 -56 -21 -25 -13 -37 -16 -34 -7 4 12 83 58
100 58 4 0 8 -7 8 -15z m405 -147 c14 -6 25 -15 25 -19 0 -18 -75 -39 -137
-39 -56 0 -64 2 -61 17 4 19 78 52 120 52 15 1 39 -4 53 -11z m-1095 -344 c0
-7 -9 -18 -20 -24 -16 -9 -22 -8 -26 5 -4 8 -1 22 6 30 13 16 40 9 40 -11z
m1420 -136 c0 -16 -30 -48 -46 -48 -23 0 -25 19 -4 40 22 22 50 27 50 8z
m-1210 -858 c0 -13 -28 -26 -72 -33 -45 -7 -48 2 -10 25 29 19 82 24 82 8z
m600 -235 c0 -17 -18 -19 -39 -6 -8 5 -11 16 -8 25 5 14 11 15 27 6 11 -6 20
-17 20 -25z m1018 -59 c5 -43 -4 -68 -42 -108 -40 -43 -51 -46 -66 -19 -24 45
-1 106 52 140 40 25 52 23 56 -13z m-618 -81 c-14 -16 -50 -21 -50 -6 0 11 18
19 44 20 15 1 16 -2 6 -14z m-55 -55 c-3 -5 -21 -10 -38 -10 -24 0 -28 3 -17
10 20 13 63 13 55 0z m-117 -84 c4 -18 -23 -66 -37 -66 -19 0 -22 52 -5 71 20
22 37 20 42 -5z m170 -188 c12 -18 19 -34 16 -37 -7 -7 -54 41 -54 56 0 23 17
14 38 -19z m392 -4 c0 -18 -78 -93 -97 -94 -14 0 -17 28 -5 48 12 18 74 62 89
62 7 0 13 -7 13 -16z m-3162 -51 c-4 -24 -88 -32 -88 -9 0 13 20 20 73 25 13
1 17 -5 15 -16z m4162 -183 c0 -17 -69 -45 -81 -33 -16 16 17 43 52 43 16 0
29 -5 29 -10z m-1564 -91 c24 -23 60 -96 51 -105 -19 -20 -145 104 -130 129 8
13 55 -2 79 -24z m-226 -198 c0 -11 -59 -26 -67 -17 -6 6 33 24 55 25 6 1 12
-3 12 -8z m1655 -133 c33 -15 32 -25 -8 -44 -26 -12 -38 -13 -62 -4 l-30 12
28 24 c32 27 37 28 72 12z m-2807 -191 c6 -29 12 -63 12 -76 0 -31 -29 -144
-41 -155 -12 -14 -43 17 -64 65 -16 34 -17 47 -8 82 15 54 61 137 77 137 6 0
17 -24 24 -53z m1492 3 c0 -29 -50 -79 -87 -86 -28 -6 -33 -4 -33 13 0 29 53
71 118 92 1 1 2 -8 2 -19z m-650 -139 c0 -13 -71 -73 -78 -66 -6 6 57 75 70
75 4 0 8 -4 8 -9z m-722 -93 c-5 -15 -66 -58 -82 -58 -13 1 63 70 76 70 6 0 8
-6 6 -12z"/>
<path d="M960 1385 c0 -8 5 -15 10 -15 6 0 10 7 10 15 0 8 -4 15 -10 15 -5 0
-10 -7 -10 -15z"/>
<path d="M1110 50 l0 -50 68 0 67 0 -3 44 c-3 33 -9 45 -23 49 -10 3 -21 1
-24 -4 -3 -4 -17 -4 -31 1 -48 19 -54 14 -54 -40z"/>
</g>
</svg>
