<?xml version="1.0" standalone="no"?>
<!DOCTYPE svg PUBLIC "-//W3C//DTD SVG 20010904//EN"
 "http://www.w3.org/TR/2001/REC-SVG-20010904/DTD/svg10.dtd">
<svg version="1.0" xmlns="http://www.w3.org/2000/svg"
 width="480.000000pt" height="360.000000pt" viewBox="0 0 480.000000 360.000000"
 preserveAspectRatio="xMidYMid meet">
<metadata>
Created by potrace 1.16, written by Peter Selinger 2001-2019
</metadata>
<rect width="1" height="360" fill="#000000"/>
<rect x="479" width="1" height="360" fill="#000000"/>
<rect width="480" height="1" fill="#000000"/>
<rect y="359" width="480" height="1" fill="#000000"/>
<g transform="translate(0.000000,360.000000) scale(0.100000,-0.100000)"
fill="#000000" stroke="none">
<path d="M2695 3401 c-3 -6 7 -18 21 -28 44 -30 86 -72 82 -83 -2 -6 -47 -25
-100 -44 -108 -37 -156 -68 -195 -127 -26 -40 -55 -135 -55 -179 0 -14 -8 -34
-17 -45 -31 -34 -33 -44 -15 -80 20 -43 15 -50 -68 -106 -45 -31 -66 -39 -102
-39 -48 0 -50 -2 -47 -54 3 -58 35 -70 95 -35 l35 20 11 -21 c9 -16 15 -18 30
-10 41 22 80 -1 80 -46 0 -14 4 -23 9 -19 6 3 19 -14 31 -37 12 -24 29 -57 39
-75 44 -78 66 -554 29 -613 -16 -25 -68 -179 -68 -201 0 -6 -13 -31 -30 -56
-16 -24 -30 -48 -30 -54 0 -5 -10 -20 -22 -33 -39 -39 -102 -118 -135 -171
-18 -27 -37 -55 -43 -62 -5 -7 -10 -15 -10 -18 0 -4 -18 -32 -40 -63 l-40 -56
2 -105 c1 -58 6 -109 10 -112 5 -3 -1 -18 -12 -32 -46 -59 2 -81 67 -31 l33
25 61 -37 c33 -21 62 -41 65 -45 4 -8 -75 -73 -99 -82 -9 -3 -9 -9 0 -25 13
-22 8 -32 -18 -32 -20 0 -38 -42 -20 -48 6 -2 11 -11 11 -19 0 -20 51 -13 111
16 48 24 61 20 34 -9 -17 -19 -17 -20 0 -20 14 0 15 -3 5 -15 -9 -11 -10 -19
-1 -28 8 -10 7 -73 -4 -233 -8 -120 -15 -222 -15 -226 0 -5 321 -8 714 -8 672
0 715 1 719 18 4 16 5 16 6 0 1 -13 9 -18 29 -18 27 0 29 3 40 64 16 87 15
386 -2 457 -10 42 -11 81 -4 165 5 60 8 147 5 194 -6 109 -59 325 -147 597
-79 241 -83 273 -100 643 -5 129 -12 258 -15 285 -5 45 -3 53 20 75 14 13 22
26 18 29 -37 28 -56 69 -84 181 -17 68 -28 135 -25 150 8 40 -19 154 -51 211
-34 64 -123 145 -188 174 -79 35 -201 66 -292 75 -82 7 -84 8 -119 48 -22 26
-49 45 -72 52 -46 12 -119 13 -127 1z m135 -1313 c41 2 54 -15 28 -35 -15 -11
-80 -35 -84 -30 -2 1 -6 23 -10 47 -7 42 -6 44 10 31 9 -8 35 -14 56 -13z"/>
</g>
</svg>
