<?xml version="1.0" standalone="no"?>
<!DOCTYPE svg PUBLIC "-//W3C//DTD SVG 20010904//EN"
 "http://www.w3.org/TR/2001/REC-SVG-20010904/DTD/svg10.dtd">
<svg version="1.0" xmlns="http://www.w3.org/2000/svg"
 width="480.000000pt" height="360.000000pt" viewBox="0 0 480.000000 360.000000"
 preserveAspectRatio="xMidYMid meet">
<metadata>
Created by potrace 1.16, written by Peter Selinger 2001-2019
</metadata>
<rect width="1" height="360" fill="#000000"/>
<rect x="479" width="1" height="360" fill="#000000"/>
<rect width="480" height="1" fill="#000000"/>
<rect y="359" width="480" height="1" fill="#000000"/>
<g transform="translate(0.000000,360.000000) scale(0.100000,-0.100000)"
fill="#000000" stroke="none">
<path d="M1603 3523 c18 -165 -10 -393 -69 -558 -72 -203 -152 -331 -297 -478
-77 -77 -121 -115 -200 -173 -101 -74 -360 -178 -504 -204 -119 -21 -418 -12
-511 16 l-22 6 0 -1066 0 -1066 1330 0 1330 0 0 23 c1 83 55 333 110 503 70
217 88 289 124 504 15 85 36 202 47 260 18 90 20 114 10 170 -6 36 -14 89 -17
118 -6 50 -9 54 -45 69 -88 35 -112 114 -64 208 13 27 23 50 21 52 -1 1 -38
-20 -81 -47 -91 -58 -124 -63 -153 -23 -20 27 -21 27 -40 10 -20 -18 -21 -18
-42 3 -21 21 -25 21 -85 10 l-64 -12 -153 52 c-84 29 -164 58 -178 65 -14 7
-45 16 -70 20 -25 4 -61 16 -81 27 -29 16 -40 18 -58 9 -15 -9 -20 -18 -16
-34 5 -20 2 -23 -21 -22 -17 0 -34 10 -47 27 -43 58 17 148 98 148 18 0 65
-14 104 -30 59 -25 347 -94 446 -107 42 -5 81 17 77 44 -4 25 15 40 31 24 19
-19 33 -12 48 22 l14 32 85 -3 c85 -2 294 30 315 49 5 6 5 13 -3 21 -18 18
-14 35 9 41 31 8 13 27 -25 27 -31 0 -38 6 -75 66 -22 36 -41 69 -41 73 0 4 9
16 20 26 l21 19 -26 13 c-14 8 -29 12 -34 9 -8 -5 -27 34 -49 103 -10 30 -9
39 10 70 12 20 30 45 40 57 18 21 18 22 -12 97 -34 86 -37 109 -14 128 14 12
35 7 143 -30 69 -24 143 -54 165 -68 21 -14 60 -31 86 -39 56 -17 142 -89 169
-143 24 -48 39 -115 50 -231 7 -67 17 -112 36 -153 18 -40 29 -85 35 -144 7
-76 11 -90 33 -107 14 -12 44 -36 67 -55 39 -32 42 -37 37 -73 -3 -21 -1 -38
5 -38 5 0 7 -9 3 -19 -3 -11 -1 -22 4 -26 7 -4 7 -11 0 -23 -8 -13 -3 -29 25
-75 19 -33 37 -71 40 -85 4 -15 0 -88 -7 -162 -12 -112 -12 -148 -1 -210 8
-41 14 -118 14 -171 0 -82 3 -100 21 -123 19 -24 19 -27 3 -33 -11 -4 -23 1
-36 16 -15 19 -18 20 -18 6 0 -9 8 -30 17 -46 9 -15 14 -32 10 -35 -10 -10
-55 16 -61 35 -6 19 2 -33 11 -69 6 -24 6 -24 -20 -7 -26 17 -27 17 -27 -2 0
-29 59 -169 165 -390 53 -111 112 -251 132 -311 l37 -110 433 0 433 0 0 1800
0 1800 -1603 0 -1603 0 9 -77z"/>
<path d="M3320 1418 c0 -9 7 -22 17 -29 15 -13 15 -12 3 11 -17 34 -20 36 -20
18z"/>
</g>
</svg>
