<?xml version="1.0" standalone="no"?>
<!DOCTYPE svg PUBLIC "-//W3C//DTD SVG 20010904//EN"
 "http://www.w3.org/TR/2001/REC-SVG-20010904/DTD/svg10.dtd">
<svg version="1.0" xmlns="http://www.w3.org/2000/svg"
 width="480.000000pt" height="360.000000pt" viewBox="0 0 480.000000 360.000000"
 preserveAspectRatio="xMidYMid meet">
<metadata>
Created by potrace 1.16, written by Peter Selinger 2001-2019
</metadata>
<rect width="1" height="360" fill="#000000"/>
<rect x="479" width="1" height="360" fill="#000000"/>
<rect width="480" height="1" fill="#000000"/>
<rect y="359" width="480" height="1" fill="#000000"/>
<g transform="translate(0.000000,360.000000) scale(0.100000,-0.100000)"
fill="#000000" stroke="none">
<path d="M1429 3121 c-116 -38 -262 -163 -329 -285 -124 -222 -104 -406 64
-571 115 -113 218 -152 382 -142 81 5 91 3 102 -14 11 -17 9 -19 -17 -19 -18
0 -54 -17 -94 -43 -35 -24 -85 -51 -110 -61 -26 -10 -56 -25 -68 -35 -19 -16
-20 -20 -8 -59 10 -36 10 -44 -3 -59 -21 -24 -68 -119 -68 -137 0 -9 9 -20 19
-26 16 -8 23 -5 39 15 l20 25 53 -29 c65 -34 74 -63 36 -120 -20 -30 -24 -45
-18 -72 5 -27 12 -35 34 -37 17 -2 27 -9 27 -20 0 -9 7 -78 16 -152 8 -74 19
-186 23 -249 5 -89 11 -116 24 -126 12 -9 17 -27 17 -63 0 -41 -4 -54 -22 -67
-21 -14 -23 -25 -26 -109 -4 -86 -2 -95 18 -114 19 -18 22 -28 17 -68 -3 -34
-12 -52 -28 -65 -21 -16 -24 -27 -27 -117 -4 -95 -3 -101 18 -112 20 -11 22
-17 17 -62 -5 -36 -14 -57 -32 -74 -39 -36 -33 -53 18 -52 23 0 48 5 55 10 8
7 12 7 12 -1 0 -6 9 -11 20 -11 28 0 25 25 -6 53 -23 22 -25 28 -18 77 5 38
12 54 25 57 25 7 30 26 36 124 6 85 5 87 -20 104 -24 15 -26 21 -21 63 4 33
14 53 31 68 23 19 26 31 31 112 4 87 4 91 -21 114 -22 21 -24 29 -20 73 3 28
12 54 20 58 8 5 18 18 22 29 7 19 17 21 92 23 46 1 114 6 150 10 l66 7 -33
-68 c-18 -37 -39 -100 -46 -139 -15 -81 -18 -537 -5 -677 l9 -88 389 0 c214 0
389 4 389 8 0 5 -11 19 -24 31 -19 18 -26 40 -36 117 -22 168 1 251 114 407
31 43 56 82 56 88 0 5 5 9 11 9 8 0 10 -26 7 -84 -2 -47 -1 -83 3 -80 4 2 15
26 25 52 9 26 20 51 24 55 8 9 85 -374 96 -477 l7 -60 -39 -33 -39 -33 310 0
310 0 27 33 c14 19 31 51 37 73 34 123 -15 245 -184 458 l-87 109 22 161 c43
318 79 471 162 684 12 30 28 43 28 22 0 -5 6 -10 14 -10 7 0 16 -14 20 -30 3
-17 13 -33 21 -37 18 -6 65 33 65 54 0 8 5 11 10 8 16 -10 138 124 170 185 7
14 20 34 30 45 9 11 23 36 30 55 7 19 19 42 25 50 22 27 49 134 50 191 0 67
-11 83 -88 125 -74 40 -142 39 -220 -3 -47 -26 -63 -30 -83 -22 -14 5 -39 9
-55 9 -17 0 -28 4 -25 9 3 5 68 55 143 112 76 56 161 122 189 146 l51 43 59
-31 c69 -36 109 -34 179 6 23 14 66 29 96 35 71 14 88 30 63 62 -10 13 -38 40
-62 58 l-44 34 44 16 c24 8 49 19 56 23 20 13 -4 44 -44 57 l-36 12 158 159
c87 87 155 162 151 166 -14 13 -240 -110 -422 -230 -238 -157 -274 -180 -315
-205 -54 -32 -339 -172 -350 -172 -6 0 -10 9 -10 20 0 50 -55 89 -103 74 -19
-6 -20 -7 -3 -19 16 -12 14 -16 -20 -49 -21 -20 -44 -34 -52 -31 -7 3 -21 1
-30 -4 -12 -6 -44 0 -102 20 -103 35 -180 37 -298 9 -46 -11 -92 -20 -102 -20
-10 0 -22 -5 -26 -11 -5 -8 1 -10 20 -7 36 7 33 -8 -5 -21 -18 -6 -43 -23 -58
-37 -25 -26 -25 -26 -3 -20 27 9 29 -5 2 -29 -26 -24 -58 -112 -57 -157 1 -30
4 -35 14 -26 17 14 20 10 25 -32 l3 -35 -62 0 c-33 0 -64 -3 -68 -7 -4 -4 -2
-21 4 -39 14 -39 -2 -67 -26 -47 -16 13 -15 22 12 128 33 129 3 244 -90 348
-54 60 -112 89 -202 102 -38 5 -71 10 -75 10 -5 0 -8 6 -8 13 0 8 -8 22 -19
31 -12 11 -23 43 -30 90 -26 159 -130 295 -285 372 -74 36 -85 39 -180 41 -56
1 -113 -1 -127 -6z m1191 -938 c0 -5 -5 -15 -10 -23 -8 -12 -10 -11 -10 8 0
12 5 22 10 22 6 0 10 -3 10 -7z m-922 -102 c3 -8 -1 -12 -9 -9 -7 2 -15 10
-17 17 -3 8 1 12 9 9 7 -2 15 -10 17 -17z m202 -260 c47 -21 70 -25 150 -26
93 0 97 1 183 44 93 47 95 47 151 6 17 -13 18 -18 8 -40 -19 -42 -14 -63 24
-92 20 -15 47 -37 61 -48 l24 -20 -58 -137 c-50 -118 -64 -141 -98 -167 -22
-17 -49 -31 -59 -31 -11 0 -33 -4 -50 -10 -17 -5 -92 -19 -166 -31 -74 -12
-160 -28 -190 -36 -30 -8 -62 -16 -69 -17 -12 -1 -20 31 -37 134 -12 74 -20
140 -17 146 2 6 15 16 29 23 23 10 24 12 9 27 -27 28 -56 94 -62 144 -4 39 -1
55 16 83 11 19 24 55 27 80 l7 47 31 -27 c17 -14 56 -38 86 -52z m-492 -62 c3
-15 -36 -44 -46 -35 -3 3 0 18 7 32 12 26 34 28 39 3z m232 -803 c0 -15 -3
-16 -15 -6 -8 6 -23 9 -35 5 -18 -6 -20 -2 -20 29 l0 36 35 -22 c19 -13 35
-31 35 -42z m-27 -228 c19 16 26 -10 20 -75 -7 -71 -11 -80 -27 -57 -11 15
-17 16 -28 6 -8 -6 -18 -9 -21 -5 -9 8 -9 71 -1 111 5 27 9 29 24 19 14 -8 22
-8 33 1z m2 -432 c-7 -67 -12 -75 -33 -54 -9 9 -15 9 -24 0 -7 -7 -16 -12 -20
-12 -9 0 -10 50 -2 102 6 33 9 37 29 32 13 -3 26 0 30 6 17 27 27 -10 20 -74z"/>
<path d="M2837 63 c-4 -6 -11 -22 -16 -37 -10 -25 -9 -26 24 -26 23 0 35 5 35
14 0 20 -36 61 -43 49z"/>
</g>
</svg>
