<?xml version="1.0" standalone="no"?>
<!DOCTYPE svg PUBLIC "-//W3C//DTD SVG 20010904//EN"
 "http://www.w3.org/TR/2001/REC-SVG-20010904/DTD/svg10.dtd">
<svg version="1.0" xmlns="http://www.w3.org/2000/svg"
 width="480.000000pt" height="360.000000pt" viewBox="0 0 480.000000 360.000000"
 preserveAspectRatio="xMidYMid meet">
<metadata>
Created by potrace 1.16, written by Peter Selinger 2001-2019
</metadata>
<rect width="1" height="360" fill="#000000"/>
<rect x="479" width="1" height="360" fill="#000000"/>
<rect width="480" height="1" fill="#000000"/>
<rect y="359" width="480" height="1" fill="#000000"/>
<g transform="translate(0.000000,360.000000) scale(0.100000,-0.100000)"
fill="#000000" stroke="none">
<path d="M0 2199 c0 -1327 1 -1401 17 -1394 10 3 70 11 133 16 63 5 142 13
175 17 l60 7 6 40 c8 47 -3 65 -40 65 -46 0 -55 13 -37 51 31 67 55 150 81
281 14 73 28 143 30 155 7 29 -20 53 -59 53 -22 0 -40 8 -56 25 l-23 25 21 23
c12 13 22 33 22 46 0 12 6 34 14 49 7 15 21 61 31 102 9 41 23 92 31 113 15
40 11 62 -10 54 -7 -3 -19 -1 -27 4 -12 7 -11 13 4 38 9 16 19 59 22 96 5 74
18 98 65 127 25 15 42 17 77 12 44 -6 103 -45 103 -67 0 -7 9 -18 20 -25 23
-14 26 -39 6 -61 -21 -23 -22 -125 -2 -191 8 -30 16 -73 16 -95 0 -41 18 -62
113 -135 32 -25 34 -40 7 -63 -11 -9 -20 -26 -20 -38 0 -17 -5 -20 -25 -17
-40 8 -46 -9 -35 -103 6 -46 16 -138 24 -204 8 -66 24 -148 36 -182 12 -35 19
-67 15 -73 -10 -16 -40 -12 -68 10 -37 29 -55 25 -62 -13 -6 -28 -1 -38 29
-70 19 -20 39 -37 45 -37 6 0 11 -4 11 -9 0 -20 -256 -80 -415 -97 -33 -4
-118 -20 -188 -36 -70 -16 -132 -26 -137 -23 -6 4 -10 -121 -10 -334 l0 -341
788 0 788 0 -4 58 c-5 77 24 195 94 379 73 192 154 423 148 423 -2 0 -48 -20
-101 -44 -54 -24 -181 -80 -283 -126 -229 -102 -454 -190 -671 -263 -202 -68
-249 -87 -249 -98 0 -5 9 -32 20 -61 11 -28 17 -54 15 -57 -9 -9 -34 33 -44
77 -6 23 -15 42 -19 42 -4 0 -39 -9 -77 -20 -121 -35 -215 -21 -245 36 -20 36
-7 44 172 104 87 29 158 56 158 59 0 14 -24 31 -45 32 -11 0 -14 3 -8 6 29 11
10 23 -27 17 -54 -9 -72 6 -58 47 16 45 45 61 92 48 37 -10 38 -12 33 -49 -3
-25 0 -46 10 -60 l14 -21 32 27 c22 18 33 22 35 14 3 -8 -3 -19 -13 -27 -39
-28 -4 -21 111 21 267 99 1066 446 1098 476 24 24 46 117 40 173 -3 31 -9 57
-13 57 -5 0 -16 -9 -26 -20 -22 -24 -48 -26 -66 -4 -10 13 -10 22 0 47 6 18
13 36 14 40 1 5 -67 52 -150 105 -84 53 -213 138 -286 187 -74 50 -142 95
-153 101 -16 9 -17 16 -9 39 6 15 19 34 31 41 18 13 25 11 55 -10 190 -138
556 -372 566 -362 3 3 1 43 -5 88 -20 137 -17 165 28 257 22 46 49 96 59 110
10 14 16 31 14 38 -2 6 3 25 11 42 9 16 16 44 16 61 0 38 22 93 53 130 33 39
185 168 217 185 15 8 30 26 34 39 5 19 17 28 49 37 23 7 48 17 55 22 14 11 17
117 2 117 -5 0 -10 -4 -10 -10 0 -17 -18 -11 -23 8 -3 9 -5 -4 -6 -30 -1 -49
-13 -61 -30 -31 -8 15 -11 12 -24 -17 -15 -34 -15 -34 -16 -8 -1 15 -6 30 -12
34 -9 5 -10 -1 -5 -22 6 -28 6 -28 -9 -9 -9 11 -23 19 -31 17 -10 -2 -14 8
-14 38 l0 41 -28 -19 -28 -20 4 101 c5 112 11 133 88 292 39 81 62 113 117
167 94 92 140 113 242 112 87 0 117 -11 209 -78 28 -19 51 -34 53 -33 1 2 -4
27 -12 57 -20 74 -19 104 4 124 14 13 28 16 49 11 28 -6 31 -4 38 27 5 18 7
69 6 114 -1 55 3 86 12 100 13 17 15 16 24 -21 5 -22 14 -77 20 -123 6 -45 20
-103 32 -129 30 -69 26 -87 -30 -148 -70 -73 -73 -100 -25 -199 36 -72 38 -79
31 -143 -9 -99 -14 -110 -54 -128 -76 -34 -80 -38 -113 -119 l-33 -81 -9 38
c-8 33 -27 52 -27 27 0 -5 -21 -23 -46 -41 l-47 -32 26 -13 c28 -15 163 -32
304 -39 50 -3 102 -9 115 -14 12 -5 55 -39 93 -75 42 -39 84 -70 105 -76 19
-6 42 -14 49 -19 9 -6 22 -6 31 -1 9 5 77 13 151 19 75 6 199 22 275 36 133
24 143 24 200 9 32 -8 70 -26 85 -40 14 -13 30 -24 36 -24 6 0 82 43 169 96
88 53 197 120 244 147 47 28 112 71 144 95 32 24 72 49 87 54 16 5 29 14 29
18 0 5 14 17 30 27 l30 17 0 471 0 470 -92 3 c-51 1 -887 5 -1857 7 -1419 4
-1766 3 -1773 -7 -6 -10 -8 -10 -8 0 0 9 -114 12 -535 12 l-535 0 0 -1401z
m4058 1293 c2 -7 -3 -12 -12 -12 -9 0 -16 7 -16 16 0 17 22 14 28 -4z m-2273
-594 c25 -11 34 -28 15 -28 -13 0 -70 29 -70 35 0 9 29 5 55 -7z m2345 -164
c0 -8 -4 -14 -10 -14 -5 0 -10 9 -10 21 0 11 5 17 10 14 6 -3 10 -13 10 -21z
m-3505 -169 c0 -12 -50 -19 -73 -10 -14 5 -14 7 -2 16 19 12 75 7 75 -6z
m2315 5 c0 -5 -4 -10 -10 -10 -5 0 -10 5 -10 10 0 6 5 10 10 10 6 0 10 -4 10
-10z m-2701 -543 c6 -8 8 -17 4 -20 -10 -11 -51 -8 -58 3 -17 27 33 42 54 17z"/>
<path d="M4774 2490 c-11 -11 -52 -37 -92 -58 -39 -20 -179 -102 -311 -182
l-239 -145 5 -33 c7 -39 -9 -59 -84 -108 -28 -19 -54 -41 -57 -49 -13 -34 -96
-5 -96 33 0 14 -26 16 -34 4 -3 -5 4 -33 15 -62 11 -29 18 -59 15 -66 -10 -25
-44 -14 -81 25 l-37 39 -62 -33 c-380 -204 -503 -271 -535 -296 -13 -11 -28
-19 -34 -19 -6 0 -75 -34 -154 -77 -121 -64 -143 -79 -141 -97 3 -18 -13 -29
-96 -69 -77 -38 -97 -52 -93 -65 3 -9 15 -42 26 -72 11 -30 34 -106 50 -169
17 -65 37 -121 48 -131 28 -28 397 -227 694 -375 147 -74 271 -140 275 -146
10 -17 -32 -49 -65 -49 -40 0 -151 34 -243 75 -113 50 -117 51 -133 29 -8 -11
-15 -14 -15 -8 0 5 5 15 11 21 8 8 5 15 -12 26 -44 26 -432 228 -434 225 -2
-2 22 -45 51 -96 50 -87 166 -350 184 -417 4 -16 13 -42 20 -56 10 -22 9 -32
-4 -58 l-17 -31 851 0 850 0 0 1255 c0 690 -1 1255 -3 1255 -1 0 -12 -9 -23
-20z m-23 -716 c12 -14 11 -16 -5 -13 -11 2 -21 10 -24 17 -5 17 13 15 29 -4z"/>
<path d="M2756 2071 c-4 -6 -11 -61 -17 -123 -6 -62 -17 -162 -25 -223 -8 -60
-14 -139 -14 -174 0 -56 2 -62 18 -56 9 3 30 9 46 12 27 6 98 40 171 83 17 9
62 34 100 55 151 82 269 147 345 190 44 25 81 45 84 45 5 0 249 140 258 149 4
3 4 12 -1 19 -6 10 -18 10 -57 2 -27 -7 -56 -13 -64 -15 -8 -2 -64 -16 -125
-30 -119 -30 -191 -30 -272 -1 -39 14 -45 13 -84 -6 -35 -17 -48 -18 -83 -10
-23 6 -63 11 -90 11 -46 1 -84 16 -158 65 -16 10 -29 13 -32 7z"/>
<path d="M2106 1828 c-20 -18 -61 -57 -90 -87 l-53 -54 -2 -183 c-1 -178 -1
-183 20 -189 16 -5 30 1 55 26 19 18 34 41 34 51 0 11 11 29 25 42 35 33 31
51 -15 77 -46 26 -49 39 -16 82 29 37 63 113 81 177 6 25 15 55 19 68 11 33
-14 28 -58 -10z"/>
<path d="M440 1723 c0 -30 17 -50 31 -36 8 8 8 16 0 32 -14 26 -31 27 -31 4z"/>
<path d="M565 950 c-3 -5 -26 -10 -50 -10 -52 0 -62 -18 -32 -57 29 -38 37
-43 74 -43 l31 0 0 60 c0 56 -8 74 -23 50z"/>
</g>
</svg>
