<?xml version="1.0" standalone="no"?>
<!DOCTYPE svg PUBLIC "-//W3C//DTD SVG 20010904//EN"
 "http://www.w3.org/TR/2001/REC-SVG-20010904/DTD/svg10.dtd">
<svg version="1.0" xmlns="http://www.w3.org/2000/svg"
 width="480.000000pt" height="360.000000pt" viewBox="0 0 480.000000 360.000000"
 preserveAspectRatio="xMidYMid meet">
<metadata>
Created by potrace 1.16, written by Peter Selinger 2001-2019
</metadata>
<rect width="1" height="360" fill="#000000"/>
<rect x="479" width="1" height="360" fill="#000000"/>
<rect width="480" height="1" fill="#000000"/>
<rect y="359" width="480" height="1" fill="#000000"/>
<g transform="translate(0.000000,360.000000) scale(0.100000,-0.100000)"
fill="#000000" stroke="none">
<path d="M1497 2885 c-31 -8 -70 -21 -87 -30 -38 -20 -47 -19 -53 5 -7 28 -32
25 -56 -6 -15 -20 -18 -31 -11 -44 6 -11 7 -28 1 -42 -4 -13 -11 -54 -15 -93
-7 -68 -6 -71 24 -105 17 -19 29 -29 25 -22 -10 19 10 14 30 -8 14 -16 16 -25
8 -42 -9 -20 -2 -32 44 -89 29 -36 53 -69 53 -73 0 -3 -8 -6 -18 -6 -10 0 -29
-12 -43 -26 -23 -25 -23 -26 -6 -56 18 -32 10 -58 -18 -58 -17 0 -79 -70 -101
-112 -9 -18 -25 -42 -36 -54 -44 -49 -28 -138 31 -168 36 -19 41 -38 31 -129
-9 -74 -49 -171 -78 -190 -9 -6 -11 -19 -7 -38 11 -47 -41 -181 -77 -202 -21
-12 -28 -24 -28 -45 0 -16 -7 -35 -15 -42 -8 -7 -15 -18 -15 -26 0 -24 20 -26
41 -2 l20 23 -12 -24 c-10 -21 -9 -26 6 -37 12 -9 16 -21 12 -36 -4 -13 -18
-125 -32 -248 -14 -124 -30 -250 -35 -280 -5 -30 -17 -161 -25 -290 -8 -129
-18 -247 -21 -263 l-6 -27 491 0 c270 0 491 3 491 8 0 4 -14 79 -30 167 -17
87 -44 254 -61 370 -17 115 -44 264 -60 330 -26 101 -107 361 -135 429 -6 16
-4 18 9 13 26 -10 21 0 -28 56 -25 29 -45 55 -45 59 0 4 20 41 45 81 41 68 45
80 45 138 0 35 -5 93 -11 128 -9 59 -8 67 11 93 20 27 20 28 2 39 -18 11 -18
13 0 67 10 30 18 63 18 73 0 10 -18 66 -40 126 -22 59 -35 110 -30 111 6 2 10
10 10 18 0 8 6 11 15 8 9 -4 15 -1 15 7 0 10 3 10 12 1 15 -15 49 3 42 23 -4
8 -2 15 4 15 5 0 12 10 15 22 5 18 9 19 21 9 13 -11 16 -8 22 16 4 15 18 38
31 50 l23 22 -19 71 c-11 39 -29 86 -41 104 -11 18 -20 41 -20 50 0 22 -124
151 -164 169 -49 23 -106 27 -169 12z"/>
<path d="M3190 2149 c-96 -33 -174 -71 -192 -93 -28 -34 -23 -78 12 -109 23
-21 30 -36 30 -65 0 -32 -5 -40 -38 -58 -56 -33 -125 -97 -147 -138 -11 -20
-26 -36 -33 -36 -16 0 -83 38 -164 92 -31 21 -61 38 -66 38 -5 0 -14 -11 -20
-25 -13 -29 -21 -31 -48 -10 -30 23 -45 18 -42 -12 2 -23 -1 -28 -17 -26 -59
7 -134 7 -140 1 -8 -8 31 -50 62 -66 11 -6 50 -14 86 -18 l66 -7 -6 -42 -5
-42 88 -12 c117 -15 268 -65 434 -143 159 -76 174 -88 165 -135 -5 -27 3 -51
45 -134 55 -110 57 -125 35 -190 -11 -29 -12 -45 -5 -49 8 -5 4 -19 -9 -42
-28 -46 -53 -122 -96 -286 -20 -75 -52 -188 -72 -250 -35 -112 -35 -114 -17
-133 26 -25 124 -59 173 -59 47 0 68 -18 77 -65 l6 -35 132 0 132 0 15 47 14
47 70 17 c39 10 74 18 79 18 11 1 3 43 -19 101 -9 25 -23 97 -31 160 -29 239
-46 347 -61 398 -9 34 -12 57 -5 64 6 6 0 42 -14 100 -13 49 -24 101 -24 115
0 41 -31 176 -50 220 -17 40 -17 42 -1 57 26 24 182 85 286 113 50 13 142 29
205 35 90 8 120 15 137 30 11 11 40 22 62 25 29 4 49 14 66 35 26 31 32 48 15
48 -5 0 -10 7 -10 15 0 12 -14 15 -64 15 -71 0 -88 11 -54 34 33 24 12 33 -27
12 l-35 -19 -21 26 c-23 30 -45 34 -74 13 -45 -30 -137 -77 -198 -100 -36 -13
-124 -54 -195 -89 -72 -36 -133 -63 -136 -60 -2 3 0 18 6 34 7 22 7 33 -2 44
-9 11 -9 15 -1 15 9 0 9 5 1 20 -7 13 -7 20 -1 20 6 0 8 6 5 13 -3 8 11 22 33
34 70 40 152 121 164 164 12 37 10 42 -17 82 -43 62 -91 82 -194 82 -47 0 -99
-3 -116 -7 -29 -6 -34 -4 -59 34 -19 29 -24 43 -16 51 20 20 12 55 -20 81 -36
30 -62 31 -139 5z m-35 -669 c8 -13 -5 -13 -25 0 -13 8 -13 10 2 10 9 0 20 -4
23 -10z"/>
</g>
</svg>
