<?xml version="1.0" standalone="no"?>
<!DOCTYPE svg PUBLIC "-//W3C//DTD SVG 20010904//EN"
 "http://www.w3.org/TR/2001/REC-SVG-20010904/DTD/svg10.dtd">
<svg version="1.0" xmlns="http://www.w3.org/2000/svg"
 width="480.000000pt" height="360.000000pt" viewBox="0 0 480.000000 360.000000"
 preserveAspectRatio="xMidYMid meet">
<metadata>
Created by potrace 1.16, written by Peter Selinger 2001-2019
</metadata>
<rect width="1" height="360" fill="#000000"/>
<rect x="479" width="1" height="360" fill="#000000"/>
<rect width="480" height="1" fill="#000000"/>
<rect y="359" width="480" height="1" fill="#000000"/>
<g transform="translate(0.000000,360.000000) scale(0.100000,-0.100000)"
fill="#000000" stroke="none">
<path d="M2737 3543 c-15 -14 -5 -25 41 -45 104 -45 108 -73 11 -82 -96 -10
-195 -37 -259 -72 -85 -46 -124 -107 -154 -246 -8 -37 -65 -62 -119 -53 -45 8
-63 -4 -88 -60 -23 -49 -25 -103 -4 -111 18 -7 20 -60 3 -70 -7 -5 -4 -10 10
-15 12 -5 29 -25 38 -46 9 -21 19 -44 23 -51 3 -8 23 -20 44 -27 20 -7 48 -20
62 -29 25 -16 25 -17 24 -169 0 -143 -9 -250 -21 -262 -2 -3 -29 0 -59 6 -49
10 -64 8 -141 -15 -47 -15 -91 -33 -98 -41 -12 -15 -236 -90 -260 -87 -113 14
-209 22 -325 27 -77 4 -167 14 -200 22 -111 30 -220 29 -261 -2 -19 -13 -19
-14 1 -29 11 -8 34 -16 50 -16 58 -2 -6 -19 -75 -19 -52 -1 -77 5 -128 29 -70
33 -92 37 -92 16 0 -15 74 -87 111 -107 13 -7 58 -22 99 -34 69 -19 75 -23 72
-46 -11 -87 -13 -250 -3 -286 9 -34 17 -43 41 -48 16 -4 40 -4 52 0 13 4 86
26 163 50 254 80 329 96 447 96 109 0 193 16 386 72 96 29 104 21 47 -49 l-35
-42 45 -18 c44 -19 44 -19 38 -60 -7 -50 20 -117 73 -181 47 -57 45 -67 -41
-231 -12 -23 -15 -44 -10 -68 4 -26 1 -44 -14 -70 -19 -32 -19 -34 -3 -43 11
-6 24 -6 35 0 20 12 21 6 5 -38 -11 -29 -10 -35 10 -53 19 -18 22 -31 22 -93
0 -69 -20 -242 -56 -482 -9 -60 -29 -161 -45 -223 -16 -62 -29 -120 -29 -128
0 -12 87 -14 606 -14 l606 0 -6 27 c-14 72 -58 373 -59 408 -1 24 12 73 30
120 48 122 63 246 58 469 l-5 189 33 -46 c17 -26 36 -47 41 -47 10 0 -1 92
-19 164 l-13 51 34 42 c41 50 64 101 64 142 0 17 -15 61 -34 98 -59 117 -61
104 52 276 56 84 104 160 107 168 8 21 -6 32 -186 143 l-157 97 -7 137 c-4 75
-9 157 -10 182 -1 25 -9 87 -19 138 -13 75 -15 101 -6 128 7 21 10 78 8 137
-3 91 -1 102 15 105 24 5 21 18 -9 39 -14 10 -62 54 -107 99 -53 51 -103 90
-139 107 -45 22 -58 33 -63 56 -9 41 -64 87 -127 106 -54 16 -110 20 -121 8z
m-176 -1108 c5 -22 17 -62 25 -90 l14 -50 -32 -27 c-18 -16 -36 -28 -40 -28
-4 0 -8 21 -8 48 0 26 -3 85 -7 131 l-6 83 22 -13 c12 -8 26 -32 32 -54z"/>
</g>
</svg>
