<?xml version="1.0" standalone="no"?>
<!DOCTYPE svg PUBLIC "-//W3C//DTD SVG 20010904//EN"
 "http://www.w3.org/TR/2001/REC-SVG-20010904/DTD/svg10.dtd">
<svg version="1.0" xmlns="http://www.w3.org/2000/svg"
 width="480.000000pt" height="360.000000pt" viewBox="0 0 480.000000 360.000000"
 preserveAspectRatio="xMidYMid meet">
<metadata>
Created by potrace 1.16, written by Peter Selinger 2001-2019
</metadata>
<rect width="1" height="360" fill="#000000"/>
<rect x="479" width="1" height="360" fill="#000000"/>
<rect width="480" height="1" fill="#000000"/>
<rect y="359" width="480" height="1" fill="#000000"/>
<g transform="translate(0.000000,360.000000) scale(0.100000,-0.100000)"
fill="#000000" stroke="none">
<path d="M0 2666 l0 -934 83 25 c152 46 361 134 564 239 111 57 210 104 221
104 11 0 56 -30 99 -67 44 -38 142 -117 219 -178 76 -60 209 -177 294 -260
232 -227 291 -267 438 -307 76 -19 114 -21 377 -15 33 1 89 -2 125 -7 l65 -8
18 59 c28 90 115 239 177 302 67 68 120 100 242 147 51 20 105 43 121 50 38
20 36 56 -5 85 -18 12 -57 45 -85 73 l-53 50 0 -104 c0 -125 -14 -163 -25 -69
-4 35 -12 73 -16 84 -7 15 -8 9 -5 -20 2 -22 1 -60 -3 -85 l-7 -45 -12 75
c-17 100 -26 114 -45 69 l-15 -34 -1 53 c-1 29 -8 81 -17 115 -13 52 -22 66
-51 85 l-36 23 -23 -22 c-13 -12 -24 -17 -24 -11 0 8 -9 10 -26 6 -23 -6 -25
-5 -16 12 5 11 13 36 16 58 l7 38 -35 -6 c-23 -4 -36 -3 -36 4 0 5 4 10 8 10
4 0 23 13 41 28 l33 28 -12 59 c-7 33 -17 64 -21 69 -4 5 -22 -2 -39 -14 l-32
-23 7 -206 7 -206 -27 -75 c-34 -95 -66 -221 -60 -237 2 -7 -2 -13 -11 -13 -8
0 -18 10 -23 23 -7 19 -9 16 -16 -23 -13 -77 -23 -80 -31 -10 -8 69 -22 61
-23 -12 -1 -21 -5 -38 -11 -38 -5 0 -10 -7 -10 -15 0 -8 -4 -15 -10 -15 -5 0
-10 7 -10 15 0 18 -17 20 -22 3 -3 -7 -12 35 -22 92 -9 57 -19 106 -21 109 -3
2 -6 -16 -6 -40 -2 -53 -2 -48 6 -84 14 -59 -20 5 -47 90 -42 129 -50 192 -38
292 6 48 14 99 17 112 5 20 3 22 -16 16 -31 -10 -27 19 7 44 19 13 34 38 46
78 26 82 71 167 113 214 20 22 34 41 32 43 -2 1 -49 17 -105 34 -55 17 -109
41 -119 52 -17 19 -17 22 -1 72 9 29 21 82 27 118 15 92 38 139 103 203 68 69
149 117 195 117 45 0 107 -63 117 -117 12 -69 19 -69 52 1 35 75 123 174 188
212 93 54 126 59 429 59 272 0 282 -1 340 -24 89 -36 164 -116 203 -218 53
-137 60 -204 36 -364 -6 -42 -3 -49 25 -81 39 -45 67 -108 76 -173 4 -27 12
-56 17 -63 13 -15 -12 -47 -54 -68 -32 -17 -38 -57 -13 -90 20 -26 19 -45 -2
-37 -14 5 -15 1 -10 -26 5 -26 4 -32 -7 -28 -7 3 -18 1 -24 -5 -7 -7 -15 8
-27 44 -10 29 -20 56 -24 60 -4 4 -22 -43 -40 -105 -30 -101 -50 -148 -52
-121 -4 74 -19 168 -29 177 -9 9 -11 -2 -8 -51 3 -65 -6 -80 -22 -36 -13 34
-26 24 -34 -28 -6 -38 -62 -222 -74 -242 -2 -4 -9 -2 -14 5 -6 10 -8 7 -6 -10
3 -20 19 -31 104 -66 200 -82 235 -114 315 -281 32 -67 61 -133 65 -147 12
-49 23 -52 162 -37 146 15 209 16 344 5 104 -8 221 5 291 32 l37 15 0 1124 0
1124 -2400 0 -2400 0 0 -934z"/>
<path d="M3417 1972 c-17 -18 -17 -20 -1 -26 22 -8 26 -3 22 24 -3 22 -3 22
-21 2z"/>
<path d="M734 1873 c-49 -31 -91 -58 -93 -60 -3 -2 3 -17 12 -33 14 -23 15
-34 7 -49 -8 -17 -5 -24 24 -46 27 -21 41 -45 70 -125 l35 -99 -85 -353 c-47
-194 -91 -359 -99 -367 -11 -11 -15 -10 -24 7 -6 12 -43 151 -81 309 -38 158
-76 313 -83 343 -13 54 -13 58 23 154 23 64 45 107 63 122 17 14 25 29 21 38
-3 9 -7 16 -9 16 -1 0 -49 -22 -106 -50 -100 -47 -327 -130 -359 -130 -9 0
-20 -14 -26 -32 -8 -30 -6 -36 22 -63 19 -18 46 -66 68 -120 l37 -90 -72 -285
-73 -285 -3 -338 -4 -337 1225 0 c1161 0 1226 1 1226 18 2 115 21 330 34 377
8 33 22 123 31 199 13 123 13 144 0 196 -19 72 -19 108 -1 151 28 70 29 79 6
79 -13 0 -24 10 -31 27 -9 24 -7 29 21 51 16 13 28 27 26 30 -2 4 -46 4 -98 0
-51 -3 -135 -7 -185 -7 -51 -1 -93 -4 -93 -7 0 -3 13 -16 29 -29 20 -17 38
-52 60 -116 l32 -91 -81 -336 c-44 -185 -85 -341 -90 -346 -7 -7 -14 -6 -21 1
-11 11 -159 649 -159 683 0 38 67 190 92 210 24 18 26 24 16 45 -8 17 -25 29
-52 36 -53 14 -158 35 -220 44 -45 6 -48 5 -41 -12 5 -10 22 -57 39 -104 l30
-86 -78 -333 c-42 -183 -83 -345 -91 -359 l-14 -26 -14 35 c-8 19 -45 166 -82
325 -37 160 -70 304 -74 320 -12 45 50 211 91 245 23 20 31 35 33 65 2 36 -4
47 -70 125 -85 99 -130 142 -203 195 -59 42 -77 41 -40 -3 13 -16 37 -67 53
-114 l29 -85 -79 -334 c-77 -329 -97 -395 -115 -384 -12 7 -18 29 -106 402
l-73 313 34 91 c21 56 46 104 65 124 16 17 30 40 30 51 0 11 5 25 11 31 8 8 0
20 -32 43 -24 17 -83 67 -131 111 -47 43 -93 79 -101 79 -8 0 -54 -26 -103
-57z"/>
<path d="M3440 1850 c0 -5 5 -10 10 -10 6 0 10 5 10 10 0 6 -4 10 -10 10 -5 0
-10 -4 -10 -10z"/>
<path d="M4667 1215 c-94 -19 -106 -24 -118 -47 -9 -17 -6 -24 20 -47 29 -25
101 -181 101 -218 0 -22 -148 -623 -162 -656 -10 -25 -13 -27 -26 -13 -8 8
-52 166 -98 352 l-83 337 24 62 c32 85 54 126 79 146 11 10 19 19 16 22 -3 3
-101 7 -218 9 l-212 3 0 -25 c0 -14 8 -30 19 -37 10 -6 34 -55 55 -110 l36
-99 -50 -215 c-28 -118 -57 -239 -65 -270 -13 -49 -13 -65 0 -133 8 -43 15
-122 15 -177 l0 -99 400 0 400 0 0 466 c0 391 -2 474 -15 519 -14 48 -14 57 0
90 8 21 15 64 15 96 l0 59 -32 -1 c-18 0 -64 -7 -101 -14z"/>
<path d="M2720 128 c0 -19 2 -20 10 -8 13 19 13 30 0 30 -5 0 -10 -10 -10 -22z"/>
</g>
</svg>
