<?xml version="1.0" standalone="no"?>
<!DOCTYPE svg PUBLIC "-//W3C//DTD SVG 20010904//EN"
 "http://www.w3.org/TR/2001/REC-SVG-20010904/DTD/svg10.dtd">
<svg version="1.0" xmlns="http://www.w3.org/2000/svg"
 width="480.000000pt" height="360.000000pt" viewBox="0 0 480.000000 360.000000"
 preserveAspectRatio="xMidYMid meet">
<metadata>
Created by potrace 1.16, written by Peter Selinger 2001-2019
</metadata>
<rect width="1" height="360" fill="#000000"/>
<rect x="479" width="1" height="360" fill="#000000"/>
<rect width="480" height="1" fill="#000000"/>
<rect y="359" width="480" height="1" fill="#000000"/>
<g transform="translate(0.000000,360.000000) scale(0.100000,-0.100000)"
fill="#000000" stroke="none">
<path d="M365 3514 c-4 -47 -5 -118 -1 -158 3 -39 10 -142 15 -229 6 -88 13
-190 17 -227 l6 -68 -76 -37 c-60 -29 -76 -41 -76 -58 1 -38 26 -197 33 -204
4 -3 7 -1 7 5 0 7 6 12 13 12 8 0 14 6 15 13 2 25 25 102 35 115 18 23 24 12
19 -41 -4 -53 -4 -53 62 -130 68 -81 77 -97 51 -97 -9 0 -24 -18 -34 -40 -18
-39 -67 -88 -78 -76 -3 3 -20 -3 -37 -13 -17 -11 -50 -25 -73 -32 -38 -11 -43
-16 -43 -41 0 -25 4 -28 31 -28 21 0 39 -9 58 -29 34 -36 92 -50 123 -29 22
15 24 13 61 -35 38 -52 84 -94 124 -115 52 -28 113 -2 137 57 8 22 27 48 42
57 l26 18 -23 8 c-13 5 -34 6 -46 3 -24 -6 -25 -4 -38 76 -6 42 -4 45 108 113
43 27 81 55 84 63 10 26 -27 53 -74 53 -23 0 -43 5 -43 10 0 31 35 72 80 95
52 26 71 45 46 45 -23 0 -20 6 22 58 43 53 62 92 62 127 0 18 -4 23 -15 19
-19 -8 -19 1 1 31 17 26 7 34 -14 13 -14 -14 -16 -4 -3 20 8 15 3 17 -39 17
-33 0 -54 -6 -69 -19 -21 -19 -21 -19 -21 0 0 20 -17 44 -32 44 -4 0 -8 -11
-8 -24 0 -18 -10 -29 -41 -45 l-41 -22 6 26 c11 45 16 80 10 68 -10 -21 -24
-14 -24 11 0 13 -5 26 -10 28 -17 5 14 80 63 156 24 38 84 111 133 163 113
120 148 171 150 218 1 20 5 45 8 56 5 16 -1 23 -31 37 -21 10 -58 17 -83 17
-25 0 -76 5 -115 11 -38 7 -156 14 -262 16 l-191 5 -7 -87z"/>
<path d="M2400 1800 l0 -1800 815 0 c448 0 815 2 815 5 0 3 11 42 24 89 14 46
32 138 40 204 9 66 25 149 36 184 22 71 23 78 12 96 -7 9 -26 4 -85 -23 -118
-54 -120 -53 -133 68 -4 44 -12 70 -21 76 -13 7 -13 12 -3 30 18 35 4 36 -16
2 -29 -49 -44 -39 -24 15 10 26 10 26 -19 21 -24 -5 -29 -3 -24 8 3 8 1 15 -5
15 -19 0 33 183 70 245 10 18 54 62 98 99 77 64 135 146 128 179 -2 11 62 87
146 170 27 27 43 36 55 31 9 -4 39 -8 66 -9 64 -1 77 -10 74 -49 -2 -17 5 -43
15 -58 27 -42 33 -104 11 -128 -10 -11 -25 -20 -33 -20 -8 0 -30 -18 -49 -40
-19 -22 -41 -40 -49 -40 -22 0 -16 -14 16 -38 44 -33 109 -124 116 -163 4 -19
16 -51 27 -71 16 -30 27 -38 48 -38 31 0 57 33 41 53 -4 7 -9 27 -10 46 -2 26
1 32 12 28 8 -3 17 -1 19 6 10 26 29 -12 36 -69 4 -33 12 -69 19 -81 17 -32
15 -119 -5 -161 -9 -21 -45 -65 -79 -99 -50 -50 -68 -63 -93 -63 -27 0 -31 -4
-31 -25 0 -14 25 -100 56 -190 36 -109 57 -189 61 -235 l6 -70 108 0 109 0 0
1800 0 1800 -1200 0 -1200 0 0 -1800z"/>
<path d="M4247 892 c-9 -32 -17 -69 -17 -82 0 -21 2 -22 14 -10 11 12 32 150
23 150 -1 0 -10 -26 -20 -58z"/>
<path d="M3933 735 c-3 -9 -3 -18 -1 -21 3 -3 8 4 11 16 6 23 -1 27 -10 5z"/>
</g>
</svg>
