<?xml version="1.0" standalone="no"?>
<!DOCTYPE svg PUBLIC "-//W3C//DTD SVG 20010904//EN"
 "http://www.w3.org/TR/2001/REC-SVG-20010904/DTD/svg10.dtd">
<svg version="1.0" xmlns="http://www.w3.org/2000/svg"
 width="480.000000pt" height="360.000000pt" viewBox="0 0 480.000000 360.000000"
 preserveAspectRatio="xMidYMid meet">
<metadata>
Created by potrace 1.16, written by Peter Selinger 2001-2019
</metadata>
<rect width="1" height="360" fill="#000000"/>
<rect x="479" width="1" height="360" fill="#000000"/>
<rect width="480" height="1" fill="#000000"/>
<rect y="359" width="480" height="1" fill="#000000"/>
<g transform="translate(0.000000,360.000000) scale(0.100000,-0.100000)"
fill="#000000" stroke="none">
<path d="M1466 3499 c-91 -21 -169 -70 -261 -163 -187 -189 -228 -364 -131
-561 87 -175 267 -285 469 -285 42 0 66 -16 35 -24 -7 -1 -49 -14 -93 -29 -44
-14 -104 -29 -133 -33 -66 -8 -82 -24 -82 -78 0 -34 -6 -48 -31 -72 -59 -54
-90 -104 -78 -125 10 -20 49 -27 49 -9 0 36 84 -36 141 -120 27 -40 29 -51 28
-118 -1 -40 3 -78 8 -83 6 -6 4 -49 -4 -117 -13 -111 -19 -565 -8 -682 16
-179 58 -424 107 -630 81 -343 89 -370 109 -370 15 0 19 6 17 32 -4 48 26 50
42 4 8 -24 18 -36 30 -36 16 0 17 5 9 42 -6 23 -12 44 -14 48 -3 4 -18 71 -35
148 -16 78 -36 167 -44 199 -75 301 -123 766 -105 1013 4 63 5 140 2 170 -8
74 5 59 58 -69 90 -218 184 -272 596 -336 131 -21 130 -21 106 -48 -26 -28
-43 -61 -43 -83 0 -9 -26 -49 -59 -88 -114 -139 -141 -227 -148 -497 -3 -102
-2 -257 2 -343 l7 -156 374 0 374 0 -7 43 c-5 23 -8 94 -8 158 0 110 1 118 33
180 18 36 44 78 58 94 l25 30 -4 -32 c-5 -43 5 -42 26 3 32 66 43 34 82 -231
14 -99 28 -195 31 -212 l5 -33 259 0 c209 0 260 3 260 13 0 41 -62 211 -116
319 -31 61 -34 76 -34 153 0 54 13 156 35 279 54 296 89 419 174 610 31 67 32
68 51 51 11 -10 20 -28 20 -40 0 -37 22 -47 59 -29 17 8 31 22 31 31 0 9 6 13
15 9 9 -3 19 3 25 14 6 11 17 20 24 20 8 0 26 15 41 33 14 17 43 51 63 74 52
59 83 101 105 142 11 20 25 43 32 51 23 26 46 103 51 175 6 67 5 71 -22 96
-46 43 -104 78 -144 89 -41 11 -123 -1 -172 -26 -24 -13 -32 -12 -63 5 l-36
19 98 58 c172 101 247 146 280 171 l33 24 30 -22 c42 -32 123 -37 191 -12 30
11 80 23 113 27 32 4 63 9 67 12 22 13 -44 93 -109 132 l-33 19 62 6 c37 3 68
12 78 22 15 15 14 17 -9 35 -14 11 -31 20 -37 20 -35 0 5 36 256 228 31 23 58
47 59 52 12 36 -179 -34 -378 -138 -481 -250 -466 -243 -605 -292 -66 -23
-156 -57 -199 -76 -85 -37 -106 -37 -61 -2 40 31 66 93 53 129 -18 51 -85 88
-104 58 -3 -6 -1 -15 7 -19 20 -13 -55 -80 -90 -80 -31 0 -51 -16 -51 -42 0
-22 2 -22 -46 1 -80 39 -153 54 -233 47 -88 -6 -228 -30 -238 -40 -4 -3 8 -3
25 0 49 10 38 -11 -15 -31 -53 -19 -83 -41 -45 -32 30 7 28 -4 -8 -38 -16 -15
-38 -48 -50 -71 -22 -49 -29 -127 -8 -106 19 19 23 15 25 -28 1 -35 -2 -41
-24 -46 -13 -4 -36 -1 -49 5 -14 6 -34 11 -46 11 -18 0 -20 -4 -14 -44 6 -37
4 -48 -13 -65 -12 -12 -21 -34 -21 -50 0 -17 -6 -31 -16 -35 -8 -3 -13 -9 -10
-14 2 -4 -4 -27 -15 -51 -27 -62 -24 -76 24 -110 70 -48 70 -45 14 -159 -47
-97 -52 -103 -76 -99 -14 2 -90 16 -167 31 -154 28 -298 46 -384 46 l-55 0
-18 51 c-10 28 -50 116 -88 194 -38 79 -69 149 -69 156 0 6 8 17 17 24 15 11
14 14 -7 31 -79 64 -103 110 -73 143 18 20 57 91 67 125 5 15 13 10 51 -32 48
-54 125 -96 207 -113 58 -13 141 0 211 31 58 27 83 25 127 -10 46 -37 60 -37
99 -4 39 32 39 60 1 104 -29 34 -38 77 -21 96 5 5 19 40 31 78 39 118 13 258
-67 358 -41 51 -144 110 -215 122 -22 4 -38 13 -38 20 0 8 -6 19 -14 25 -8 7
-15 43 -18 99 -9 149 -64 262 -176 362 -118 106 -271 151 -406 119z m-176
-1318 c0 -23 -5 -30 -27 -34 -37 -7 -39 -3 -13 32 27 39 40 39 40 2z m176
-465 c-5 -22 -10 -25 -25 -16 -11 5 -18 18 -16 27 2 10 7 32 10 48 l7 30 15
-31 c10 -20 13 -42 9 -58z m-6 -114 c0 -48 -11 -72 -33 -72 -18 0 -19 4 -13
47 9 65 46 85 46 25z m-8 -187 c-5 -50 -8 -55 -34 -55 -14 0 -18 5 -14 16 3 9
6 31 6 51 0 30 3 34 22 31 20 -3 23 -8 20 -43z m-7 -180 c0 -39 -4 -50 -17
-53 -15 -3 -18 5 -18 53 0 48 3 56 18 53 13 -3 17 -14 17 -53z m8 -152 c7 -38
-3 -83 -18 -83 -14 0 -30 83 -20 100 12 19 33 10 38 -17z m10 -150 c3 -5 8
-29 12 -55 7 -44 5 -48 -13 -48 -22 0 -32 24 -32 78 0 21 5 32 14 32 8 0 17
-3 19 -7z m35 -215 c7 -32 6 -47 -4 -58 -9 -9 -17 -11 -23 -5 -11 13 -23 90
-14 98 17 17 33 3 41 -35z m31 -175 c15 -53 14 -63 -8 -63 -14 0 -22 12 -30
44 -14 57 -14 56 9 56 14 0 22 -11 29 -37z m40 -173 c12 -42 9 -60 -13 -60
-14 0 -40 75 -31 90 13 21 32 8 44 -30z m35 -147 c18 -67 18 -83 -3 -83 -15 0
-23 10 -30 38 -6 20 -11 43 -11 50 0 19 38 14 44 -5z"/>
</g>
</svg>
