<?xml version="1.0" standalone="no"?>
<!DOCTYPE svg PUBLIC "-//W3C//DTD SVG 20010904//EN"
 "http://www.w3.org/TR/2001/REC-SVG-20010904/DTD/svg10.dtd">
<svg version="1.0" xmlns="http://www.w3.org/2000/svg"
 width="480.000000pt" height="360.000000pt" viewBox="0 0 480.000000 360.000000"
 preserveAspectRatio="xMidYMid meet">
<metadata>
Created by potrace 1.16, written by Peter Selinger 2001-2019
</metadata>
<rect width="1" height="360" fill="#000000"/>
<rect x="479" width="1" height="360" fill="#000000"/>
<rect width="480" height="1" fill="#000000"/>
<rect y="359" width="480" height="1" fill="#000000"/>
<g transform="translate(0.000000,360.000000) scale(0.100000,-0.100000)"
fill="#000000" stroke="none">
<path d="M960 3589 c0 -6 9 -28 20 -48 11 -20 40 -80 64 -133 39 -85 48 -98
69 -98 13 0 41 -13 62 -30 21 -16 46 -30 57 -30 49 0 117 -61 138 -124 6 -19
14 -63 18 -98 l7 -63 155 -31 c233 -46 356 -90 384 -137 9 -15 6 -23 -21 -47
-46 -41 -186 -78 -381 -99 -46 -5 -86 -11 -88 -14 -7 -6 28 -75 72 -145 39
-60 39 -62 19 -62 -17 0 -20 -16 -5 -25 12 -7 4 -25 -11 -25 -5 0 -30 19 -54
41 -51 47 -52 44 -36 -54 7 -43 -7 -183 -25 -239 -8 -27 -34 -22 -34 7 0 14
-5 25 -10 25 -11 0 -60 -96 -60 -117 0 -7 -9 -17 -20 -23 -19 -10 -20 -8 -20
32 l-1 43 -22 -43 c-13 -24 -32 -49 -44 -55 -11 -7 -32 -20 -46 -30 -44 -31
-46 -15 -10 61 21 44 32 79 28 90 -6 14 -9 13 -21 -10 -8 -16 -19 -28 -24 -28
-15 0 -30 -63 -31 -127 -1 -76 20 -123 78 -170 24 -20 48 -44 54 -54 22 -42
-30 -97 -116 -120 -57 -16 -66 -25 -59 -68 4 -28 1 -42 -17 -65 -22 -28 -24
-28 -96 -22 -40 4 -73 3 -73 -2 0 -20 42 -53 61 -47 16 6 19 1 19 -30 0 -28
-7 -44 -30 -65 -17 -15 -43 -61 -59 -100 -17 -40 -40 -83 -52 -96 -35 -37 -88
-31 -266 27 -95 31 -158 47 -162 41 -3 -5 -5 -64 -3 -130 l3 -120 112 -90 c62
-49 168 -145 237 -212 76 -74 142 -130 170 -143 54 -26 119 -90 144 -143 11
-25 40 -56 78 -84 84 -63 150 -138 179 -204 l24 -56 1078 0 1078 0 102 77
c180 136 291 256 328 354 28 72 26 76 -31 81 -93 9 -124 71 -81 156 31 62 80
101 189 153 56 27 124 66 150 86 48 37 176 103 199 103 8 0 13 13 13 34 l0 33
-66 6 c-37 4 -77 13 -89 21 -12 8 -41 53 -64 99 -33 69 -47 87 -71 96 -17 5
-33 17 -36 25 -3 8 -20 24 -38 34 -26 16 -34 28 -40 62 -10 63 -20 76 -77 96
-51 19 -109 62 -109 82 0 6 23 30 51 54 59 49 99 107 99 142 0 31 -56 156 -69
156 -7 0 -7 -9 -1 -26 9 -23 8 -25 -10 -19 -13 4 -20 2 -20 -6 0 -7 -13 -1
-28 14 -19 18 -35 25 -45 21 -10 -3 -17 -1 -17 5 0 6 -4 11 -10 11 -5 0 -10
-8 -10 -17 0 -11 -12 1 -29 27 -30 48 -66 63 -74 32 -3 -12 -10 -4 -22 23 -9
22 -20 42 -24 45 -7 6 -28 74 -42 140 -15 75 -18 77 -39 45 -11 -16 -29 -33
-41 -37 -23 -9 -23 -15 -2 80 4 15 1 22 -10 22 -8 0 -17 5 -19 11 -3 8 -27 4
-77 -13 -110 -39 -148 -24 -228 84 -39 53 -42 53 -114 -3 -27 -21 -48 -29 -78
-29 -37 0 -41 2 -41 25 0 34 37 106 99 189 28 38 51 74 51 81 0 15 37 48 75
68 35 18 178 138 171 144 -8 8 -233 -110 -337 -178 -58 -38 -115 -69 -126 -69
-62 0 -29 94 118 336 194 319 339 501 434 545 57 27 82 24 120 -14 32 -32 53
-88 81 -211 5 -22 14 -41 19 -43 6 -1 38 52 73 120 34 67 85 151 113 185 l50
62 -1416 0 c-1033 0 -1415 -3 -1415 -11z"/>
<path d="M3278 3318 c-61 -65 -227 -301 -309 -440 -29 -48 -29 -49 -7 -42 13
3 36 13 52 21 16 9 90 37 165 63 l134 47 12 39 c15 50 31 80 68 127 26 34 28
42 22 85 -9 65 -50 152 -71 152 -9 0 -39 -24 -66 -52z"/>
<path d="M3390 2850 c-8 -5 -12 -11 -9 -14 2 -3 11 -1 19 4 8 5 12 11 9 14 -2
3 -11 1 -19 -4z"/>
<path d="M3907 698 c-38 -36 -47 -63 -24 -71 22 -8 45 12 57 48 18 54 8 61
-33 23z"/>
<path d="M725 510 c-8 -13 3 -30 20 -30 20 0 30 21 14 31 -18 11 -26 11 -34
-1z"/>
</g>
</svg>
