<?xml version="1.0" standalone="no"?>
<!DOCTYPE svg PUBLIC "-//W3C//DTD SVG 20010904//EN"
 "http://www.w3.org/TR/2001/REC-SVG-20010904/DTD/svg10.dtd">
<svg version="1.0" xmlns="http://www.w3.org/2000/svg"
 width="480.000000pt" height="360.000000pt" viewBox="0 0 480.000000 360.000000"
 preserveAspectRatio="xMidYMid meet">
<metadata>
Created by potrace 1.16, written by Peter Selinger 2001-2019
</metadata>
<rect width="1" height="360" fill="#000000"/>
<rect x="479" width="1" height="360" fill="#000000"/>
<rect width="480" height="1" fill="#000000"/>
<rect y="359" width="480" height="1" fill="#000000"/>
<g transform="translate(0.000000,360.000000) scale(0.100000,-0.100000)"
fill="#000000" stroke="none">
<path d="M2620 3319 c0 -6 -7 -9 -15 -5 -9 3 -15 0 -15 -9 0 -8 -8 -15 -17
-15 -15 0 -16 -2 -3 -10 11 -7 8 -11 -15 -20 -94 -37 -106 -40 -125 -28 -15
10 -23 9 -38 -5 -16 -15 -18 -23 -9 -56 9 -34 8 -42 -11 -66 -25 -31 -27 -51
-10 -106 6 -22 9 -42 5 -45 -3 -3 -31 6 -61 21 -43 21 -56 33 -56 49 0 23 -23
40 -67 49 -17 4 -25 -2 -35 -24 -7 -16 -16 -29 -19 -29 -10 0 -35 33 -52 66
-20 40 -41 48 -76 29 -70 -36 -73 -185 -4 -198 18 -3 35 4 58 24 18 16 35 29
37 29 13 0 -4 -114 -27 -183 -26 -76 -26 -79 -8 -99 16 -18 25 -19 78 -13 33
3 85 7 116 8 l57 2 -22 -30 c-28 -40 -36 -187 -12 -235 14 -30 14 -35 -3 -68
-18 -37 -80 -229 -99 -312 -20 -85 -22 -155 -7 -208 15 -49 17 -51 75 -74 l60
-23 -6 -47 c-5 -33 -1 -64 14 -111 14 -42 19 -76 15 -100 -3 -23 -1 -43 7 -51
6 -8 9 -24 5 -36 -5 -16 -15 -20 -48 -20 -71 0 -84 -8 -97 -55 -15 -53 -8 -68
60 -125 27 -23 50 -46 50 -51 0 -18 -54 -60 -110 -86 -83 -40 -86 -49 -34
-117 20 -26 33 -53 30 -61 -3 -8 -31 -22 -62 -31 -55 -16 -56 -17 -38 -34 34
-32 57 -33 75 -2 8 15 43 42 78 61 64 34 69 34 158 16 28 -6 32 -4 35 16 2 16
16 30 43 43 22 10 51 27 64 37 16 13 40 19 77 19 42 0 58 5 71 20 10 11 23 20
29 20 6 0 17 14 24 30 11 28 10 33 -9 54 -27 29 -27 44 3 57 30 14 56 69 56
117 0 21 -7 64 -15 96 -9 32 -13 67 -10 77 4 10 2 26 -4 36 -5 10 -14 51 -19
91 -6 40 -20 92 -31 114 l-20 41 44 40 c25 21 48 49 51 61 6 27 -30 112 -52
120 -35 13 -96 137 -144 291 -11 39 -33 87 -46 107 -21 30 -24 40 -14 58 6 12
12 48 13 82 2 63 1 61 73 112 38 27 79 123 65 153 -9 19 -18 23 -56 23 -25 0
-45 2 -45 3 0 12 33 67 40 67 7 0 31 64 45 125 3 17 18 40 33 53 18 16 23 25
15 28 -7 3 -13 12 -13 20 0 9 -4 13 -8 10 -5 -3 -21 27 -36 66 -24 59 -26 73
-15 82 18 15 20 56 2 56 -8 0 -11 5 -8 10 3 6 1 10 -4 10 -6 0 -11 -5 -11 -11z
m-302 -396 c2 -9 -7 -13 -26 -13 -16 0 -35 -7 -42 -15 -7 -8 -19 -15 -28 -15
-11 0 -8 9 13 30 30 32 74 38 83 13z m57 -12 c3 -5 1 -12 -5 -16 -5 -3 -10 1
-10 9 0 18 6 21 15 7z m-147 -74 c8 -9 3 -17 -19 -29 -30 -18 -36 -10 -19 23
12 22 23 24 38 6z m380 -1144 c32 -75 62 -174 62 -203 0 -14 5 -31 10 -36 11
-11 4 -81 -10 -103 -5 -10 -24 -10 -81 -1 -41 6 -95 14 -121 17 -61 7 -65 18
-68 205 l-2 147 29 6 c15 4 33 8 38 10 6 2 35 4 66 4 l57 1 20 -47z m-165
-665 c25 -29 22 -34 -30 -47 -27 -7 -65 -21 -85 -32 -20 -10 -43 -19 -51 -19
-16 0 -67 51 -67 68 0 16 33 31 106 46 70 15 103 11 127 -16z"/>
<path d="M1025 3223 c-11 -8 -18 -20 -16 -26 16 -51 8 -73 -46 -128 -43 -44
-59 -55 -78 -51 -19 3 -27 -2 -36 -21 -9 -21 -8 -29 11 -55 15 -19 24 -48 26
-83 4 -56 21 -84 60 -93 16 -4 24 -13 24 -28 0 -12 7 -29 16 -39 14 -16 14
-19 -5 -38 -13 -13 -20 -32 -19 -53 0 -18 -11 -66 -26 -106 -14 -41 -24 -77
-21 -82 14 -23 -22 -73 -92 -127 -41 -32 -84 -66 -96 -75 -12 -9 -53 -21 -92
-27 -66 -9 -73 -8 -132 19 -46 21 -64 35 -69 54 -13 52 -77 47 -352 -25 l-83
-22 3 -51 3 -50 145 -83 c80 -46 170 -96 201 -112 31 -16 166 -91 300 -167
250 -140 282 -153 344 -131 19 6 20 3 17 -34 -3 -23 0 -58 6 -78 6 -20 14 -53
17 -73 4 -27 23 -57 65 -105 33 -38 60 -73 60 -80 0 -7 11 -23 24 -36 28 -28
24 -38 -24 -62 -54 -27 -107 -72 -130 -111 -18 -28 -21 -44 -16 -78 7 -42 6
-43 -31 -58 -155 -63 -191 -77 -215 -82 -14 -3 -33 -8 -41 -11 -8 -4 -59 28
-123 75 -95 71 -113 80 -139 74 -42 -8 -337 -132 -353 -147 -13 -14 23 -49
313 -302 88 -77 203 -178 256 -225 287 -254 298 -262 326 -255 34 8 361 191
387 215 10 10 15 23 12 29 -4 5 -50 43 -104 82 -175 131 -312 240 -312 249 0
5 47 9 104 9 57 0 114 5 127 11 61 27 125 69 143 93 18 24 18 32 8 78 -7 28
-10 55 -7 59 3 5 28 21 55 36 40 22 51 33 56 60 8 45 -2 81 -31 110 -31 31
-45 57 -45 83 0 11 -11 28 -24 39 -13 10 -31 34 -39 53 -8 19 -38 63 -66 99
-29 36 -61 82 -72 102 -19 37 -19 37 5 110 22 70 25 73 61 80 21 5 71 27 112
49 81 45 85 53 58 130 -21 57 -171 338 -197 365 -17 19 -19 32 -15 105 3 46
10 113 17 149 16 91 15 99 -19 134 -17 18 -31 36 -31 42 0 14 38 44 55 44 20
0 45 52 45 93 0 35 -26 125 -41 142 -14 14 -11 44 8 75 16 28 16 29 -8 49 -13
11 -36 20 -50 21 -27 0 -85 52 -76 67 3 5 -10 31 -29 58 -18 27 -34 54 -34 61
0 21 -14 23 -35 7z m-64 -999 c4 -16 10 -39 14 -50 5 -17 1 -24 -22 -33 -32
-12 -60 -29 -82 -50 -28 -25 -164 0 -138 26 4 3 15 7 25 8 24 2 67 32 125 88
27 26 54 46 60 44 6 -2 15 -17 18 -33z m47 -1366 c5 -7 13 -27 16 -45 6 -24 3
-36 -12 -51 -11 -11 -25 -36 -31 -55 -7 -20 -17 -38 -24 -40 -43 -14 -161 58
-155 95 3 21 18 30 118 76 77 36 75 35 88 20z"/>
<path d="M4177 3133 c-3 -5 -5 -26 -5 -49 -1 -34 -11 -54 -62 -123 -55 -72
-66 -82 -101 -87 -23 -4 -39 -12 -39 -20 0 -8 5 -14 10 -14 21 0 50 -64 44
-100 -2 -19 -6 -75 -8 -123 -2 -69 0 -87 11 -83 26 10 13 -30 -22 -67 -25 -26
-36 -47 -37 -72 -4 -77 -7 -92 -27 -138 -11 -27 -21 -59 -21 -71 0 -12 -5 -27
-12 -34 -9 -9 -8 -16 5 -30 22 -24 21 -35 -2 -56 -11 -10 -32 -48 -46 -84 -51
-126 -80 -186 -125 -257 -67 -104 -73 -120 -55 -154 33 -66 133 -121 215 -121
36 0 56 -74 23 -84 -10 -3 -39 -34 -66 -69 -89 -116 -97 -133 -97 -195 0 -60
-6 -75 -30 -80 -49 -11 -52 -56 -7 -100 18 -18 36 -32 39 -32 16 0 158 -93
187 -123 31 -33 33 -37 21 -71 -6 -19 -28 -49 -48 -65 -20 -17 -48 -40 -61
-51 -13 -10 -21 -26 -18 -34 3 -7 38 -32 79 -55 40 -23 80 -46 88 -51 37 -21
138 -68 172 -79 43 -14 78 -2 78 27 0 12 -17 22 -63 35 -68 20 -227 103 -227
118 0 24 121 41 135 19 18 -29 81 -41 195 -38 111 3 118 2 203 -31 l89 -35 54
19 c31 10 54 24 54 32 0 9 8 13 23 11 14 -2 21 -9 21 -21 -1 -11 7 -19 23 -23
25 -7 48 5 26 13 -8 3 -11 14 -8 26 3 12 2 27 -2 33 -5 6 -51 32 -104 57 -53
25 -100 50 -103 56 -4 6 -25 11 -46 11 -22 0 -61 9 -87 19 -104 41 -204 91
-209 106 -4 9 11 31 40 60 26 25 46 53 46 66 0 50 -48 96 -135 129 -44 17 -57
47 -30 70 8 7 15 24 15 39 0 14 13 58 30 97 23 57 29 84 29 144 l0 75 60 53
c71 63 74 79 31 155 -22 40 -34 83 -50 181 -12 71 -30 148 -42 172 -24 52 -32
38 115 200 31 34 47 60 47 78 0 14 4 26 9 26 4 0 39 -23 77 -51 108 -79 109
-80 224 -73 l100 7 0 67 c0 66 0 68 -29 73 -16 3 -35 12 -43 20 -23 23 -49 33
-133 52 -105 23 -105 22 -111 38 -3 8 24 65 60 126 37 62 66 114 66 117 0 2
16 29 37 60 28 42 34 57 25 66 -18 18 -19 18 -149 -222 -75 -137 -79 -142
-112 -121 -12 8 -12 12 -2 24 18 23 -4 32 -68 28 l-54 -3 22 35 c11 19 21 44
21 56 0 12 4 19 10 16 6 -3 10 -2 10 3 0 5 16 26 35 46 19 21 35 39 35 41 0 3
-7 20 -17 39 -16 34 -15 36 9 85 14 28 23 53 21 55 -2 2 -17 -1 -33 -7 -26
-10 -33 -7 -97 49 -37 34 -76 63 -85 67 -14 5 -18 18 -18 57 0 44 -11 64 -23
43z m-67 -1741 c0 -48 -19 -149 -36 -192 -8 -19 -13 -46 -12 -60 1 -14 -6 -37
-16 -52 -17 -26 -24 -28 -81 -28 -67 0 -79 7 -90 53 -6 22 -3 31 14 43 11 8
21 21 21 29 0 7 29 37 65 65 83 66 95 84 95 141 0 25 3 49 7 52 13 14 33 -17
33 -51z"/>
</g>
</svg>
