<?xml version="1.0" standalone="no"?>
<!DOCTYPE svg PUBLIC "-//W3C//DTD SVG 20010904//EN"
 "http://www.w3.org/TR/2001/REC-SVG-20010904/DTD/svg10.dtd">
<svg version="1.0" xmlns="http://www.w3.org/2000/svg"
 width="480.000000pt" height="360.000000pt" viewBox="0 0 480.000000 360.000000"
 preserveAspectRatio="xMidYMid meet">
<metadata>
Created by potrace 1.16, written by Peter Selinger 2001-2019
</metadata>
<rect width="1" height="360" fill="#000000"/>
<rect x="479" width="1" height="360" fill="#000000"/>
<rect width="480" height="1" fill="#000000"/>
<rect y="359" width="480" height="1" fill="#000000"/>
<g transform="translate(0.000000,360.000000) scale(0.100000,-0.100000)"
fill="#000000" stroke="none">
<path d="M0 2171 l0 -1430 58 5 c31 3 104 14 162 24 58 10 126 21 152 23 58 5
78 20 78 57 0 25 -4 28 -51 34 -49 7 -51 8 -46 34 3 15 15 54 27 87 22 59 52
259 43 283 -3 6 -13 12 -22 12 -10 0 -25 6 -35 13 -17 13 -18 16 -2 69 23 79
21 84 -29 108 -31 15 -50 32 -59 54 -16 37 -13 48 17 61 12 6 23 19 25 30 2
11 14 31 26 45 13 14 38 52 57 85 18 33 39 66 46 73 18 19 16 30 -7 42 -18 10
-19 13 -6 38 8 16 14 56 14 98 -1 85 15 121 64 146 31 16 45 18 90 10 36 -7
58 -17 68 -32 8 -12 25 -33 38 -47 23 -25 29 -57 12 -68 -11 -7 -6 -164 9
-269 6 -44 17 -79 30 -95 12 -14 32 -42 45 -61 13 -19 31 -41 40 -49 9 -7 16
-19 16 -26 0 -18 -64 -64 -99 -71 l-30 -6 5 -204 c4 -167 8 -215 25 -270 25
-81 17 -96 -36 -71 -48 23 -60 21 -74 -9 -10 -23 -8 -30 14 -60 19 -25 34 -34
55 -34 34 0 45 -13 25 -30 -8 -6 -94 -29 -192 -50 -98 -22 -225 -50 -283 -63
-154 -36 -238 -50 -255 -43 -13 5 -15 -32 -15 -304 l0 -310 148 0 c160 0 146
-3 342 82 19 9 49 22 67 29 l32 14 -18 50 c-17 49 -18 50 -62 53 -54 4 -63 12
-54 50 9 42 84 80 121 63 36 -16 40 -38 14 -66 -22 -23 -22 -27 -10 -65 7 -22
14 -40 16 -40 1 0 16 13 32 30 30 30 52 39 52 21 0 -5 -16 -26 -35 -47 -19
-20 -34 -38 -33 -40 7 -6 335 148 611 287 257 129 556 284 565 293 2 2 58 244
65 280 1 4 -14 14 -33 21 -82 29 -79 29 -95 -9 -25 -60 -61 -42 -42 21 13 43
1 56 -71 78 -148 44 -383 123 -539 181 -94 34 -187 66 -207 69 -48 9 -70 36
-61 74 14 65 39 65 195 -1 168 -71 671 -238 718 -238 7 0 22 20 33 45 24 55
54 62 47 13 -3 -18 -7 -39 -9 -47 -3 -10 16 -21 57 -37 l62 -22 12 23 c14 26
20 17 -126 200 -108 136 -114 148 -114 230 0 42 9 100 22 145 24 86 40 172 38
215 0 17 -2 50 -3 75 -1 27 7 61 18 85 20 43 148 173 233 238 37 28 50 43 42
51 -18 18 -11 24 55 46 78 26 99 51 89 104 -7 41 -20 47 -29 14 -20 -69 -55
-112 -55 -68 0 11 -6 20 -14 20 -7 0 -19 14 -26 30 -7 17 -16 30 -20 30 -10 0
-20 -26 -20 -51 0 -10 -4 -19 -10 -19 -5 0 -10 5 -10 10 0 6 -4 10 -10 10 -5
0 -7 -7 -4 -15 4 -9 0 -15 -9 -15 -9 0 -18 13 -22 30 -8 34 -11 36 -32 14 -15
-14 -17 -12 -30 23 -9 23 -15 82 -16 153 -2 103 1 124 27 200 50 145 92 227
143 276 111 108 228 162 325 149 56 -8 168 -62 209 -101 14 -13 29 -24 35 -24
5 0 24 30 43 68 19 37 52 94 73 128 21 34 38 64 38 67 0 4 14 29 30 55 17 27
30 52 30 56 0 3 -634 6 -1410 6 l-1410 0 0 -1429z m1171 1289 c24 -13 25 -40
1 -40 -21 0 -42 18 -42 37 0 16 15 17 41 3z m-661 -170 c0 -5 -4 -10 -9 -10
-6 0 -13 5 -16 10 -3 6 1 10 9 10 9 0 16 -4 16 -10z m207 -481 c-14 -8 -22 -8
-30 0 -8 8 -3 11 19 11 25 -1 27 -2 11 -11z"/>
<path d="M2882 3521 c4 -66 11 -92 47 -168 24 -50 41 -99 39 -109 -2 -13 -21
-25 -58 -37 -30 -10 -58 -24 -62 -30 -4 -7 -8 -48 -9 -92 -2 -121 -13 -218
-24 -222 -6 -2 -19 13 -29 32 -11 19 -21 33 -23 31 -2 -2 -5 -33 -7 -67 -1
-45 -9 -76 -25 -106 -19 -34 -23 -51 -19 -97 3 -39 1 -56 -7 -56 -7 0 -18 -18
-25 -40 -14 -41 -29 -53 -31 -22 0 9 -6 -1 -14 -23 l-13 -40 -3 35 c-1 19 -1
45 0 58 3 37 -15 25 -33 -23 -17 -44 -36 -60 -36 -30 0 19 -10 19 -38 -1 -20
-14 -22 -14 -22 1 0 13 -5 12 -30 -7 -38 -27 -38 -34 1 -42 17 -3 50 -14 74
-25 35 -15 44 -25 50 -52 11 -48 89 -146 165 -208 27 -22 52 -55 68 -90 24
-53 25 -58 13 -125 -6 -38 -8 -73 -4 -77 22 -21 386 -143 463 -155 70 -11 117
-30 165 -69 l43 -36 143 86 c78 47 165 101 193 119 28 18 112 73 186 121 74
48 150 100 168 116 18 16 39 29 47 29 7 0 29 14 47 30 48 45 67 46 142 10 64
-30 66 -33 80 -83 8 -29 17 -108 20 -177 3 -69 8 -147 11 -175 4 -28 1 -56 -5
-65 -9 -13 -13 -11 -30 10 -31 40 -128 241 -140 290 -23 93 -23 93 -61 59 -13
-12 -45 -32 -71 -45 -26 -13 -105 -62 -175 -107 -188 -123 -257 -166 -369
-236 l-102 -63 -4 -59 c-2 -33 -11 -66 -20 -76 -8 -10 -21 -35 -28 -56 -13
-41 -38 -62 -85 -71 -34 -7 -40 -4 -78 42 -28 34 -39 22 -12 -14 20 -27 19
-58 -4 -78 -19 -17 -21 -17 -60 25 -23 24 -41 47 -41 52 0 18 -26 4 -41 -21
-10 -18 -44 -44 -91 -68 -199 -105 -367 -200 -368 -208 0 -5 9 -35 21 -66 l21
-58 96 -27 c183 -51 577 -152 702 -179 41 -10 102 -23 135 -31 33 -8 107 -24
165 -35 120 -25 143 -39 116 -69 -36 -40 -154 -48 -291 -21 -291 58 -414 87
-789 184 -32 9 -62 13 -67 11 -12 -8 37 -118 90 -204 27 -43 64 -106 81 -142
18 -35 46 -83 61 -106 16 -23 29 -45 29 -48 0 -4 7 -22 16 -41 11 -23 14 -43
8 -61 -8 -31 -8 -33 1 -85 6 -38 6 -38 55 -38 39 0 52 4 60 20 11 21 48 45 57
37 2 -3 -3 -17 -12 -31 l-17 -26 756 0 756 0 0 1800 0 1800 -961 0 -962 0 5
-79z m806 -268 c2 -8 -5 -13 -17 -13 -12 0 -21 6 -21 16 0 18 31 15 38 -3z
m17 -783 c10 -16 -16 -43 -28 -31 -11 11 -2 41 12 41 5 0 13 -5 16 -10z m75
-106 c0 -9 -5 -14 -12 -12 -18 6 -21 28 -4 28 9 0 16 -7 16 -16z m-380 -143
c0 -24 -18 -37 -31 -24 -13 13 -1 43 17 43 8 0 14 -9 14 -19z m430 -586 c0
-16 -35 -21 -44 -6 -8 12 4 21 26 21 10 0 18 -7 18 -15z m636 -748 c23 -20 69
-43 112 -56 47 -16 72 -29 72 -39 0 -11 -10 -14 -47 -10 -64 6 -121 34 -139
69 -8 16 -19 29 -24 29 -5 0 -14 9 -20 20 -16 29 1 24 46 -13z"/>
<path d="M2071 2544 c0 -11 3 -14 6 -6 3 7 2 16 -1 19 -3 4 -6 -2 -5 -13z"/>
<path d="M1974 1743 c-16 -27 -38 -64 -48 -83 -18 -35 -18 -37 2 -69 18 -30
21 -31 30 -15 30 60 70 214 55 214 -5 0 -22 -21 -39 -47z"/>
<path d="M2600 1704 c0 -16 12 -74 25 -129 27 -108 30 -140 15 -130 -5 3 -18
1 -29 -5 -24 -12 -40 -95 -22 -113 6 -6 11 -25 11 -42 0 -18 12 -43 29 -64
l28 -35 189 109 c104 59 207 119 229 134 22 14 45 26 50 27 6 0 16 2 23 2 17
3 15 16 -9 72 l-21 48 -91 20 c-51 12 -141 31 -201 42 -121 24 -146 33 -193
68 l-33 24 0 -28z m70 -313 c0 -11 -5 -23 -11 -27 -16 -9 -30 18 -17 33 15 19
28 16 28 -6z"/>
<path d="M455 1700 c-4 -6 -3 -16 3 -22 13 -13 23 4 13 21 -7 10 -10 10 -16 1z"/>
<path d="M3257 1514 c3 -8 12 -13 20 -10 8 3 17 6 19 6 2 0 4 5 4 10 0 6 -11
10 -25 10 -18 0 -23 -4 -18 -16z"/>
<path d="M548 889 c-23 -13 -25 -77 -3 -86 21 -7 21 -6 29 50 7 48 4 54 -26
36z"/>
<path d="M1645 422 c-153 -83 -541 -270 -714 -343 l-173 -74 427 -3 c236 -1
430 -1 431 1 7 7 114 442 112 452 -2 6 -39 -9 -83 -33z"/>
</g>
</svg>
