<?xml version="1.0" standalone="no"?>
<!DOCTYPE svg PUBLIC "-//W3C//DTD SVG 20010904//EN"
 "http://www.w3.org/TR/2001/REC-SVG-20010904/DTD/svg10.dtd">
<svg version="1.0" xmlns="http://www.w3.org/2000/svg"
 width="480.000000pt" height="360.000000pt" viewBox="0 0 480.000000 360.000000"
 preserveAspectRatio="xMidYMid meet">
<metadata>
Created by potrace 1.16, written by Peter Selinger 2001-2019
</metadata>
<rect width="1" height="360" fill="#000000"/>
<rect x="479" width="1" height="360" fill="#000000"/>
<rect width="480" height="1" fill="#000000"/>
<rect y="359" width="480" height="1" fill="#000000"/>
<g transform="translate(0.000000,360.000000) scale(0.100000,-0.100000)"
fill="#000000" stroke="none">
<path d="M2165 2449 c-374 -29 -701 -104 -1115 -255 -364 -134 -677 -233 -890
-284 -74 -18 -141 -34 -147 -36 -9 -2 -13 -32 -13 -103 l0 -100 43 -11 c23 -6
121 -33 217 -60 96 -27 283 -76 415 -110 132 -34 336 -88 453 -121 491 -137
738 -180 1137 -199 306 -15 647 8 904 61 252 51 519 135 971 302 287 106 398
141 545 172 44 9 88 19 98 22 14 4 17 16 17 78 l0 74 -57 16 c-57 16 -163 49
-458 140 -143 44 -528 160 -865 259 -507 148 -827 188 -1255 155z m462 -221
c19 -18 80 -64 136 -103 l101 -70 14 -75 c7 -41 29 -112 49 -158 l36 -83 -36
-82 c-19 -45 -43 -117 -52 -160 l-17 -78 -87 -56 c-47 -31 -110 -76 -139 -101
l-52 -44 -172 1 c-94 1 -179 6 -189 12 -19 10 -103 72 -203 151 -56 44 -62 53
-88 130 -15 45 -37 120 -49 165 l-20 83 26 77 c69 203 88 244 120 260 16 9 48
30 69 47 22 17 71 51 108 76 l68 45 172 -2 172 -3 33 -32z"/>
</g>
</svg>
