<?xml version="1.0" standalone="no"?>
<!DOCTYPE svg PUBLIC "-//W3C//DTD SVG 20010904//EN"
 "http://www.w3.org/TR/2001/REC-SVG-20010904/DTD/svg10.dtd">
<svg version="1.0" xmlns="http://www.w3.org/2000/svg"
 width="480.000000pt" height="360.000000pt" viewBox="0 0 480.000000 360.000000"
 preserveAspectRatio="xMidYMid meet">
<metadata>
Created by potrace 1.16, written by Peter Selinger 2001-2019
</metadata>
<rect width="1" height="360" fill="#000000"/>
<rect x="479" width="1" height="360" fill="#000000"/>
<rect width="480" height="1" fill="#000000"/>
<rect y="359" width="480" height="1" fill="#000000"/>
<g transform="translate(0.000000,360.000000) scale(0.100000,-0.100000)"
fill="#000000" stroke="none">
<path d="M0 1800 l0 -1800 2400 0 2400 0 0 1800 0 1800 -2400 0 -2400 0 0
-1800z m2233 993 c4 -3 26 -7 49 -7 41 -1 42 -2 42 -36 1 -33 3 -35 36 -35 25
0 44 8 65 28 49 47 83 60 141 54 70 -7 103 -26 188 -108 60 -58 68 -69 48 -69
-13 0 -50 15 -82 33 -65 36 -76 33 -82 -22 -3 -34 -1 -36 62 -67 70 -34 129
-87 111 -98 -20 -13 -11 -31 24 -50 19 -10 32 -23 29 -28 -3 -5 2 -12 12 -14
11 -3 24 -17 31 -31 11 -23 10 -25 -7 -20 -16 4 -18 2 -10 -13 14 -27 12 -34
-5 -20 -21 17 -27 -3 -23 -80 l3 -63 87 -18 c150 -31 168 -37 168 -61 0 -16
-4 -19 -22 -14 -85 24 -132 35 -135 32 -3 -2 16 -18 40 -35 39 -26 49 -29 78
-21 78 21 297 51 334 46 94 -14 145 -30 145 -43 0 -8 4 -12 9 -9 5 3 12 -10
15 -29 5 -22 13 -35 23 -35 10 0 13 -6 9 -16 -5 -14 -1 -16 28 -11 25 4 34 2
30 -7 -3 -7 10 -19 28 -28 21 -11 27 -17 16 -17 -19 -1 -25 -35 -8 -46 7 -4 7
-12 0 -24 -5 -10 -6 -21 -3 -25 3 -3 1 -6 -7 -6 -10 0 -10 -3 0 -15 10 -12 10
-15 0 -15 -7 0 -10 -7 -6 -16 5 -13 0 -15 -26 -12 -18 3 -41 8 -50 13 -13 5
-18 3 -18 -7 0 -8 -16 -22 -35 -31 -22 -10 -33 -22 -29 -30 6 -18 -41 -11 -71
9 -32 22 -40 16 -15 -11 13 -14 19 -25 14 -25 -6 0 -23 13 -39 30 -38 40 -87
56 -235 79 -69 11 -145 27 -170 37 -57 22 -203 27 -195 6 14 -38 15 -88 2
-106 -17 -23 -55 -14 -66 17 -8 20 -9 20 -22 -8 -9 -19 -22 -30 -34 -30 -17 0
-21 10 -28 65 -9 64 -10 66 -45 77 -24 7 -55 8 -87 3 -27 -5 -75 -9 -106 -9
-62 -1 -85 14 -74 48 3 10 2 22 -2 24 -13 8 -227 26 -378 31 l-130 6 55 -19
c30 -10 58 -16 63 -14 4 2 7 -3 7 -11 0 -8 20 -27 45 -42 49 -28 53 -35 31
-53 -12 -10 -25 -5 -66 25 -28 20 -96 54 -151 76 -89 35 -103 38 -117 25 -40
-34 -82 -27 -82 13 0 19 -12 23 -103 35 -40 5 -51 12 -67 37 -10 18 -17 35
-14 40 8 12 117 10 244 -6 63 -8 174 -20 245 -26 72 -6 173 -15 225 -20 94 -9
95 -9 122 17 41 39 123 209 110 226 -7 8 -21 44 -32 81 -19 59 -25 69 -55 82
-32 13 -55 39 -55 63 0 17 50 61 70 61 28 0 52 -29 48 -60 -1 -15 3 -34 9 -42
7 -7 16 -26 22 -41 6 -15 14 -27 18 -27 5 0 18 21 29 47 24 52 16 83 -19 83
-19 0 -62 45 -62 65 0 5 -29 27 -65 49 -84 50 -140 103 -140 133 0 15 6 23 16
23 14 0 14 3 4 15 -10 13 -10 19 5 35 19 21 28 24 38 13z"/>
<path d="M2721 2294 c13 -16 12 -16 -9 -5 -31 16 -34 12 -20 -32 13 -43 23
-46 49 -14 25 30 24 42 -8 56 -24 11 -25 11 -12 -5z"/>
<path d="M2467 2172 c-8 -21 -31 -65 -51 -98 -36 -59 -46 -104 -25 -104 19 0
147 108 154 129 5 18 -41 111 -56 111 -4 0 -14 -17 -22 -38z"/>
<path d="M2840 2079 c0 -13 87 -52 103 -46 7 2 -11 16 -40 30 -59 30 -63 31
-63 16z"/>
</g>
</svg>
