<?xml version="1.0" standalone="no"?>
<!DOCTYPE svg PUBLIC "-//W3C//DTD SVG 20010904//EN"
 "http://www.w3.org/TR/2001/REC-SVG-20010904/DTD/svg10.dtd">
<svg version="1.0" xmlns="http://www.w3.org/2000/svg"
 width="480.000000pt" height="360.000000pt" viewBox="0 0 480.000000 360.000000"
 preserveAspectRatio="xMidYMid meet">
<metadata>
Created by potrace 1.16, written by Peter Selinger 2001-2019
</metadata>
<rect width="1" height="360" fill="#000000"/>
<rect x="479" width="1" height="360" fill="#000000"/>
<rect width="480" height="1" fill="#000000"/>
<rect y="359" width="480" height="1" fill="#000000"/>
<g transform="translate(0.000000,360.000000) scale(0.100000,-0.100000)"
fill="#000000" stroke="none">
<path d="M0 1800 l0 -1800 2400 0 2400 0 0 1800 0 1800 -2400 0 -2400 0 0
-1800z m3210 1119 c0 -7 -16 -32 -36 -55 -44 -55 -35 -56 22 -4 42 38 64 49
64 32 0 -5 -24 -32 -52 -62 -47 -47 -49 -51 -18 -32 61 37 80 45 88 38 4 -4
-11 -23 -33 -42 -45 -38 -44 -41 10 -18 55 22 64 12 19 -22 -64 -48 -69 -54
-42 -54 13 0 39 11 58 25 19 14 38 25 43 25 16 0 -15 -31 -58 -58 -39 -25 -39
-26 -15 -32 23 -5 21 -8 -31 -43 -31 -20 -62 -37 -69 -37 -7 0 -10 -8 -7 -20
4 -17 1 -20 -21 -18 -22 3 -30 -4 -45 -34 -15 -31 -24 -38 -48 -38 -16 0 -29
-4 -29 -9 0 -8 -71 -84 -126 -132 -44 -40 -104 -120 -104 -138 0 -10 -4 -21
-10 -27 -6 -6 -6 -37 2 -91 12 -81 11 -96 -21 -269 -7 -39 -26 -78 -78 -155
-20 -30 -22 -40 -12 -66 6 -17 11 -75 12 -129 l2 -98 -44 -13 c-24 -7 -52 -20
-61 -28 -12 -11 -20 -13 -25 -6 -3 6 -15 11 -27 11 -13 0 -18 5 -15 13 3 8 8
39 12 71 l7 57 -53 -22 c-30 -12 -72 -29 -94 -37 -55 -21 -130 -95 -148 -146
-8 -22 -31 -94 -53 -160 -36 -113 -37 -119 -20 -132 18 -12 17 -14 -8 -25 -37
-17 -45 -57 -17 -78 23 -17 19 -31 -8 -31 -13 0 -16 -13 -15 -73 0 -39 4 -89
8 -109 11 -50 0 -48 -24 5 l-19 42 0 -64 c-1 -78 -19 -72 -30 10 l-7 54 -8
-58 c-5 -31 -12 -60 -17 -63 -12 -7 -22 41 -15 70 3 14 2 28 -4 31 -6 3 -10
-4 -10 -17 0 -31 -15 -52 -29 -43 -8 4 -10 22 -5 51 3 24 3 56 -1 71 -8 27 -8
26 -16 -16 -13 -67 -32 -78 -23 -14 5 44 4 53 -9 53 -10 0 -18 -14 -22 -40 -4
-22 -11 -40 -16 -40 -9 0 -7 32 7 98 4 20 2 23 -16 17 -23 -7 -28 12 -5 21 8
4 15 10 15 15 0 5 -7 9 -15 9 -21 0 -19 11 8 40 40 45 77 106 77 127 0 11 7
26 15 33 8 7 26 48 40 93 14 44 38 107 54 141 16 34 33 75 39 93 10 31 10 31
-48 57 -40 18 -72 42 -99 75 -51 61 -61 87 -61 167 0 60 37 288 61 378 6 22
12 49 13 60 3 23 54 109 68 114 5 2 22 15 38 29 42 35 112 70 210 104 68 23
102 29 169 29 77 0 90 -3 146 -34 l62 -34 59 66 c32 36 64 73 69 83 6 9 39 49
75 89 36 40 65 79 65 86 0 8 11 20 24 27 25 12 81 108 81 138 0 26 21 79 32
79 5 0 9 -15 8 -32 -1 -18 -2 -37 -1 -41 2 -16 63 29 102 75 40 47 59 59 59
37z"/>
</g>
</svg>
