<?xml version="1.0" standalone="no"?>
<!DOCTYPE svg PUBLIC "-//W3C//DTD SVG 20010904//EN"
 "http://www.w3.org/TR/2001/REC-SVG-20010904/DTD/svg10.dtd">
<svg version="1.0" xmlns="http://www.w3.org/2000/svg"
 width="480.000000pt" height="360.000000pt" viewBox="0 0 480.000000 360.000000"
 preserveAspectRatio="xMidYMid meet">
<metadata>
Created by potrace 1.16, written by Peter Selinger 2001-2019
</metadata>
<rect width="1" height="360" fill="#000000"/>
<rect x="479" width="1" height="360" fill="#000000"/>
<rect width="480" height="1" fill="#000000"/>
<rect y="359" width="480" height="1" fill="#000000"/>
<g transform="translate(0.000000,360.000000) scale(0.100000,-0.100000)"
fill="#000000" stroke="none">
<path d="M1740 1739 c-42 -15 -93 -101 -98 -164 -4 -48 -1 -60 27 -101 17 -26
31 -52 31 -57 0 -25 56 -80 108 -106 62 -31 97 -82 87 -124 -8 -31 30 -114 62
-134 14 -9 36 -34 49 -55 29 -46 71 -73 123 -82 30 -5 44 -14 65 -46 14 -22
31 -40 36 -40 5 0 28 -18 51 -40 41 -39 72 -50 84 -30 14 22 35 7 69 -49 49
-80 70 -140 55 -158 -27 -32 19 -175 61 -188 11 -4 34 -24 51 -45 17 -21 38
-41 46 -44 8 -3 46 8 85 24 82 35 78 34 78 13 0 -30 31 -52 117 -79 68 -22 92
-25 121 -18 69 17 92 104 28 104 -12 0 -46 7 -75 16 -48 14 -55 20 -73 61
l-20 45 27 47 c24 43 59 114 107 219 l19 43 39 -43 c21 -24 48 -54 58 -68 19
-24 26 -25 119 -25 88 0 103 3 143 27 32 18 49 37 59 63 14 36 14 39 -9 57
-20 17 -34 19 -80 13 -30 -3 -70 -11 -88 -17 -29 -9 -37 -7 -59 13 -30 29 -93
113 -93 125 0 5 12 23 28 39 130 143 162 185 162 210 0 14 4 35 10 45 5 10 7
32 4 49 -5 26 -11 31 -35 31 -15 0 -40 -5 -55 -10 -20 -8 -41 -7 -76 2 -64 16
-140 3 -313 -53 -119 -39 -139 -42 -235 -42 -102 0 -220 23 -220 42 0 4 -33
42 -73 83 -62 63 -114 134 -105 144 2 1 51 26 111 54 59 29 114 61 121 72 22
30 8 56 -40 74 -77 29 -145 7 -249 -84 -41 -37 -110 -70 -129 -62 -19 6 -19 7
3 13 19 4 21 10 16 29 -4 13 -16 34 -26 47 -11 13 -19 29 -19 35 0 7 -29 40
-63 74 -62 60 -65 61 -99 51 -24 -6 -45 -6 -63 1 -30 12 -32 12 -65 -1z m554
-781 c7 -37 2 -45 -19 -28 -15 13 -20 42 -8 53 13 14 21 6 27 -25z"/>
<path d="M3720 799 c0 -5 5 -7 10 -4 6 3 10 8 10 11 0 2 -4 4 -10 4 -5 0 -10
-5 -10 -11z"/>
</g>
</svg>
