<?xml version="1.0" standalone="no"?>
<!DOCTYPE svg PUBLIC "-//W3C//DTD SVG 20010904//EN"
 "http://www.w3.org/TR/2001/REC-SVG-20010904/DTD/svg10.dtd">
<svg version="1.0" xmlns="http://www.w3.org/2000/svg"
 width="480.000000pt" height="360.000000pt" viewBox="0 0 480.000000 360.000000"
 preserveAspectRatio="xMidYMid meet">
<metadata>
Created by potrace 1.16, written by Peter Selinger 2001-2019
</metadata>
<rect width="1" height="360" fill="#000000"/>
<rect x="479" width="1" height="360" fill="#000000"/>
<rect width="480" height="1" fill="#000000"/>
<rect y="359" width="480" height="1" fill="#000000"/>
<g transform="translate(0.000000,360.000000) scale(0.100000,-0.100000)"
fill="#000000" stroke="none">
<path d="M1667 3489 c-30 -31 -52 -91 -43 -115 3 -7 0 -27 -5 -44 -8 -22 -8
-34 0 -44 6 -7 8 -16 3 -20 -11 -11 -11 -129 0 -143 5 -7 7 -17 4 -22 -4 -5
-2 -12 4 -16 6 -4 8 -10 5 -15 -3 -5 -1 -19 6 -31 10 -20 17 -21 80 -17 38 3
69 2 69 -2 0 -5 -17 -30 -38 -57 -118 -149 -120 -188 -10 -207 21 -4 40 -11
44 -17 3 -6 7 -58 8 -117 6 -229 5 -220 22 -192 14 24 14 23 8 -20 -4 -25 -13
-65 -20 -90 -15 -50 -10 -67 7 -24 15 38 24 13 10 -28 -7 -22 -25 -41 -51 -56
-73 -41 -87 -71 -104 -220 -19 -163 -24 -174 -74 -166 -24 3 -44 1 -55 -8 -17
-13 -16 -17 11 -78 l29 -64 -37 -140 c-37 -138 -98 -282 -227 -539 l-45 -91
32 -63 32 -62 -16 -88 c-19 -106 -20 -153 -3 -177 11 -15 9 -40 -11 -149 -39
-225 -22 -336 54 -345 16 -2 32 -9 36 -15 5 -8 8 -7 8 4 0 9 22 49 48 90 27
41 58 90 70 109 28 45 27 35 -3 -78 -14 -51 -25 -102 -25 -113 0 -19 16 -19
710 -19 391 0 710 1 710 3 0 2 -18 52 -41 112 l-41 109 25 21 c49 40 70 112
83 292 7 92 7 93 40 114 74 45 80 82 30 186 -34 71 -35 73 -18 105 24 49 19
91 -25 218 -22 63 -46 140 -52 170 -11 49 -42 156 -88 305 -9 28 -20 56 -26
63 -5 6 -6 12 -3 12 4 0 2 8 -3 18 -6 12 -5 25 5 42 29 53 12 96 -47 119 -30
11 -65 78 -94 178 -9 32 -25 72 -34 88 -20 33 -18 109 3 135 17 20 -1 239 -21
258 -18 18 -16 101 3 132 l15 25 -7 -25 c-4 -14 -9 -32 -11 -40 -8 -25 28 22
43 57 8 18 14 64 14 103 l0 70 33 0 c41 0 42 1 154 223 65 127 65 128 51 165
-13 35 -19 39 -113 71 -157 53 -351 53 -389 0 -13 -20 -14 -20 -50 5 -38 25
-125 42 -171 34 -19 -4 -34 4 -64 32 -51 49 -169 94 -280 109 -119 16 -132 14
-164 -20z m183 -1133 c0 -3 -4 -8 -10 -11 -5 -3 -10 -1 -10 4 0 6 5 11 10 11
6 0 10 -2 10 -4z m15 -755 c6 -38 -1 -278 -12 -396 -3 -33 -6 -74 -7 -91 -1
-17 -13 -46 -29 -65 -25 -32 -27 -32 -22 -9 9 50 24 218 30 345 8 181 15 255
25 255 4 0 11 -18 15 -39z"/>
</g>
</svg>
