<?xml version="1.0" standalone="no"?>
<!DOCTYPE svg PUBLIC "-//W3C//DTD SVG 20010904//EN"
 "http://www.w3.org/TR/2001/REC-SVG-20010904/DTD/svg10.dtd">
<svg version="1.0" xmlns="http://www.w3.org/2000/svg"
 width="480.000000pt" height="360.000000pt" viewBox="0 0 480.000000 360.000000"
 preserveAspectRatio="xMidYMid meet">
<metadata>
Created by potrace 1.16, written by Peter Selinger 2001-2019
</metadata>
<rect width="1" height="360" fill="#000000"/>
<rect x="479" width="1" height="360" fill="#000000"/>
<rect width="480" height="1" fill="#000000"/>
<rect y="359" width="480" height="1" fill="#000000"/>
<g transform="translate(0.000000,360.000000) scale(0.100000,-0.100000)"
fill="#000000" stroke="none">
<path d="M2702 3141 c-89 -26 -151 -67 -194 -131 -31 -46 -37 -64 -38 -106 l0
-51 -47 -13 c-116 -29 -158 -45 -161 -62 -4 -18 23 -48 72 -84 l30 -22 -16
-41 c-17 -42 -13 -51 11 -28 11 10 13 5 8 -28 -11 -73 39 -167 107 -199 49
-23 53 -36 23 -62 -34 -29 -34 -38 3 -71 17 -14 30 -31 30 -37 0 -6 23 -46 50
-89 40 -63 54 -77 68 -72 41 17 53 17 66 -1 13 -17 14 -16 28 10 l15 28 22
-37 c31 -53 37 -90 17 -119 -15 -25 -17 -25 -195 -28 -178 -3 -180 -3 -208
-29 -23 -21 -56 -32 -185 -58 -116 -24 -162 -30 -176 -22 -10 5 -102 39 -203
75 -101 35 -221 80 -266 99 -52 22 -85 31 -91 25 -12 -12 -47 8 -59 33 -15 31
-131 166 -165 192 -120 90 -318 147 -246 70 l21 -23 -34 0 c-71 0 -77 -35 -8
-46 44 -7 63 -24 27 -24 -14 0 -33 -6 -43 -14 -19 -14 -19 -15 5 -25 14 -6 45
-15 70 -22 l45 -11 -38 -13 c-68 -23 -64 -35 19 -46 71 -10 119 -42 150 -101
17 -35 43 -60 99 -100 72 -51 76 -55 71 -86 -6 -38 -6 -37 119 -73 70 -19 322
-114 335 -126 2 -2 -12 -36 -33 -76 -24 -48 -35 -79 -31 -94 10 -36 90 -83
141 -83 39 0 43 -2 43 -25 0 -36 31 -61 90 -74 88 -19 190 -57 341 -126 129
-60 149 -66 188 -61 51 7 113 41 155 85 17 17 35 31 40 30 6 -1 41 -34 78 -74
62 -68 67 -75 73 -131 3 -32 10 -86 15 -120 6 -33 10 -96 10 -139 0 -71 -3
-83 -39 -149 -21 -39 -58 -125 -81 -190 -56 -160 -82 -212 -141 -285 l-49 -61
801 0 c440 0 799 3 797 8 -10 22 -247 417 -284 472 -58 87 -114 141 -226 214
-65 43 -94 68 -96 84 -4 25 -12 23 138 27 58 2 139 10 180 19 88 18 254 97
321 153 151 125 189 306 103 491 -35 74 -150 188 -314 312 -113 85 -194 152
-224 188 -6 7 -63 58 -126 114 -63 56 -114 105 -113 109 1 4 -11 12 -27 19
-32 13 -40 30 -15 30 8 0 15 5 15 10 0 6 8 10 18 10 12 1 -50 29 -65 30 -12 1
0 20 12 20 8 0 15 5 15 10 0 6 12 10 27 10 32 0 64 26 56 47 -4 11 1 14 23 13
49 -3 50 -1 14 23 -35 22 -35 22 -10 26 21 3 18 6 -20 17 -41 11 -42 12 -15
14 17 1 35 2 40 1 6 -1 -8 15 -30 35 -22 20 -80 74 -130 120 -49 46 -107 96
-127 111 -21 16 -42 43 -49 63 -34 103 -131 225 -209 265 -91 45 -263 95 -325
94 -16 0 -58 -8 -93 -18z m878 -622 l25 -20 -32 16 c-18 8 -33 18 -33 20 0 10
16 4 40 -16z m-930 -954 c0 -2 -25 -43 -55 -90 -46 -71 -58 -84 -73 -76 -9 5
-73 26 -142 46 -134 41 -195 64 -188 70 2 3 58 9 124 15 65 6 153 17 194 24
78 14 140 19 140 11z"/>
</g>
</svg>
