<?xml version="1.0" standalone="no"?>
<!DOCTYPE svg PUBLIC "-//W3C//DTD SVG 20010904//EN"
 "http://www.w3.org/TR/2001/REC-SVG-20010904/DTD/svg10.dtd">
<svg version="1.0" xmlns="http://www.w3.org/2000/svg"
 width="480.000000pt" height="360.000000pt" viewBox="0 0 480.000000 360.000000"
 preserveAspectRatio="xMidYMid meet">
<metadata>
Created by potrace 1.16, written by Peter Selinger 2001-2019
</metadata>
<rect width="1" height="360" fill="#000000"/>
<rect x="479" width="1" height="360" fill="#000000"/>
<rect width="480" height="1" fill="#000000"/>
<rect y="359" width="480" height="1" fill="#000000"/>
<g transform="translate(0.000000,360.000000) scale(0.100000,-0.100000)"
fill="#000000" stroke="none">
<path d="M0 3516 c0 -73 2 -84 17 -82 26 2 29 -34 4 -41 l-21 -5 0 -1324 0
-1324 48 6 c26 3 88 13 137 21 50 8 124 20 165 26 l75 12 3 43 c3 40 2 42 -25
42 -77 1 -88 21 -52 92 46 91 81 286 59 328 -9 16 -15 19 -23 11 -16 -16 -67
-14 -67 3 0 8 14 37 31 64 37 60 36 96 -2 100 -31 4 -65 37 -74 73 -5 21 -1
29 19 43 14 9 26 23 26 30 0 8 11 27 24 43 13 15 37 58 54 94 16 37 35 69 41
73 18 12 13 46 -7 46 -28 0 -33 10 -18 39 7 14 16 61 19 103 8 89 17 108 63
133 48 26 137 14 162 -22 9 -14 28 -36 41 -49 l24 -24 -21 -39 c-12 -21 -19
-41 -16 -44 3 -3 6 -31 8 -63 1 -33 10 -90 20 -129 10 -38 19 -80 22 -91 3
-20 23 -48 99 -141 37 -45 164 -102 505 -227 260 -96 372 -130 388 -119 9 5
21 25 27 43 20 60 61 47 44 -14 -5 -17 -9 -34 -9 -38 0 -3 30 -16 66 -28 55
-19 68 -20 75 -9 5 8 9 19 9 25 0 7 -48 76 -106 155 -59 79 -113 160 -121 179
-19 44 -12 148 16 240 22 71 35 148 33 195 -4 100 -2 116 22 161 30 60 144
173 252 250 25 18 27 23 16 37 -15 18 -1 28 52 41 26 6 28 10 23 43 -4 20 -11
41 -16 46 -6 6 -8 2 -4 -14 4 -18 -3 -12 -24 19 l-30 42 -12 -40 c-7 -22 -16
-38 -21 -35 -6 4 -10 1 -10 -4 0 -20 -17 -11 -28 14 -10 21 -15 24 -31 16 -21
-12 -31 -5 -31 21 0 11 -4 17 -8 14 -11 -6 -16 59 -15 179 0 77 6 103 36 185
78 211 94 235 209 321 127 94 218 110 340 57 29 -12 76 -42 105 -65 l53 -43
18 38 c10 20 56 108 101 195 l83 157 -1421 0 -1421 0 0 -84z m1310 -34 c24
-19 21 -42 -5 -42 -14 0 -35 29 -35 49 0 16 15 13 40 -7z m-702 -129 c6 -19
-25 -16 -32 3 -4 11 -1 14 11 12 9 -2 18 -9 21 -15z"/>
<path d="M2900 3553 c0 -63 20 -135 59 -208 44 -84 42 -91 -33 -125 l-64 -29
-6 -98 c-4 -54 -9 -124 -12 -155 -6 -56 -18 -74 -30 -43 -12 30 -22 14 -22
-33 0 -46 -29 -123 -52 -137 -5 -3 -10 -31 -10 -61 0 -30 -4 -54 -8 -54 -5 0
-15 -18 -22 -40 -7 -21 -16 -37 -21 -35 -4 3 -10 -4 -14 -15 -11 -35 -24 -22
-27 28 l-3 47 -24 -52 c-23 -52 -41 -61 -41 -22 0 20 -24 26 -35 9 -4 -6 -22
-17 -41 -25 -19 -8 -34 -18 -34 -22 0 -5 23 -14 52 -21 68 -16 98 -36 98 -67
0 -17 14 -38 40 -61 22 -20 48 -49 57 -65 9 -15 28 -33 42 -39 39 -16 99 -76
123 -123 18 -35 20 -52 15 -117 l-6 -76 77 -24 c42 -12 127 -38 187 -56 61
-19 151 -40 201 -49 114 -18 137 -27 191 -71 42 -34 43 -35 73 -19 34 18 195
114 250 149 19 13 103 65 185 117 83 51 173 110 201 131 28 21 56 38 62 38 6
0 25 13 43 29 57 52 81 57 147 30 47 -20 61 -32 78 -67 22 -43 24 -61 40 -352
7 -139 4 -138 -84 30 -58 112 -69 139 -92 228 -12 46 -28 53 -48 22 -6 -11
-40 -34 -73 -51 -34 -17 -98 -54 -143 -83 -101 -66 -324 -205 -434 -271 -74
-44 -82 -52 -77 -73 7 -28 -11 -89 -34 -117 -9 -11 -24 -36 -33 -55 -30 -68
-121 -72 -148 -7 -13 31 -39 62 -46 55 -3 -3 6 -29 20 -57 30 -58 32 -83 11
-101 -12 -10 -18 -10 -32 1 -23 18 -48 45 -65 70 -13 19 -14 19 -65 -8 -29
-16 -53 -35 -53 -44 0 -16 -41 -41 -307 -184 -90 -48 -163 -89 -163 -92 0 -25
56 -153 69 -157 563 -167 570 -169 901 -251 328 -82 302 -73 298 -98 -5 -38
-43 -48 -163 -44 -79 3 -153 15 -265 40 -198 46 -636 166 -702 192 -10 4 -18
3 -18 -3 0 -25 32 -94 73 -157 24 -39 70 -119 101 -180 31 -60 64 -126 75
-145 41 -73 54 -116 42 -138 -6 -11 -11 -37 -11 -56 l0 -36 825 0 825 0 0
1800 0 1800 -950 0 -950 0 0 -47z m874 -252 c7 -11 -22 -23 -35 -15 -5 3 -9 9
-9 15 0 12 37 12 44 0z m44 -804 c2 -12 -3 -17 -17 -17 -12 0 -21 6 -21 13 0
31 32 34 38 4z m-38 -57 c0 -5 -4 -10 -10 -10 -5 0 -10 5 -10 10 0 6 5 10 10
10 6 0 10 -4 10 -10z m105 -28 c0 -18 -20 -15 -23 4 -3 10 1 15 10 12 7 -3 13
-10 13 -16z m-360 -188 c0 -10 -8 -20 -17 -22 -18 -3 -26 27 -11 42 12 11 28
0 28 -20z m469 -550 c26 -10 18 -24 -14 -24 -30 0 -41 14 -17 23 6 3 13 6 14
6 1 1 8 -2 17 -5z m-614 -1522 c0 -13 -30 -52 -41 -52 -14 0 -11 22 8 42 17
19 33 24 33 10z"/>
<path d="M2164 2540 c-4 -22 -11 -43 -15 -46 -18 -11 2 -24 20 -14 28 14 47
66 31 85 -20 24 -29 18 -36 -25z"/>
<path d="M2623 1708 c4 -51 16 -128 27 -172 24 -94 24 -100 5 -93 -7 3 -23 -2
-33 -11 -22 -19 -38 -97 -22 -107 5 -3 10 -19 10 -35 0 -16 11 -41 25 -57 l24
-28 63 34 c78 41 216 119 326 183 46 26 88 45 93 42 9 -5 109 54 109 65 0 3
-8 25 -17 48 -21 49 -20 49 -258 83 -172 25 -246 49 -275 90 -11 15 -34 33
-51 39 l-32 11 6 -92z m147 -298 c0 -11 -6 -20 -13 -20 -19 0 -27 10 -20 26 8
21 33 17 33 -6z"/>
<path d="M2008 1773 c-8 -10 -29 -44 -46 -77 -31 -57 -31 -59 -15 -87 10 -16
20 -29 23 -29 6 0 47 118 65 188 8 26 -6 29 -27 5z"/>
<path d="M457 1703 c-3 -5 -2 -15 2 -22 7 -10 10 -10 16 -1 4 6 3 16 -3 22 -5
5 -12 6 -15 1z"/>
<path d="M3330 1582 c0 -20 23 -31 43 -20 16 8 17 12 6 19 -18 11 -49 12 -49
1z"/>
<path d="M775 1465 l-40 -12 1 -202 c2 -180 4 -209 24 -272 27 -84 21 -98 -35
-75 -51 22 -58 20 -74 -14 -12 -29 -11 -32 18 -60 17 -17 42 -30 56 -30 28 0
35 -24 10 -34 -27 -10 -220 -55 -266 -62 -24 -3 -98 -19 -165 -35 -149 -36
-274 -58 -291 -52 -10 4 -13 -55 -13 -306 l0 -311 96 0 c88 0 101 3 167 34 40
19 94 41 120 50 27 9 67 26 90 37 23 11 63 27 90 35 32 10 47 20 47 32 0 31
-15 43 -46 38 l-29 -6 28 13 c27 13 28 15 13 30 -11 11 -26 14 -44 11 -40 -8
-67 16 -58 50 4 16 16 30 26 33 11 3 20 10 20 15 0 5 5 6 10 3 6 -3 10 -1 10
4 0 14 45 14 71 1 25 -14 24 -38 -1 -66 -20 -20 -20 -23 -4 -56 l16 -34 28 28
c25 24 60 38 60 23 0 -3 -16 -23 -36 -45 -20 -22 -34 -40 -31 -40 9 0 192 78
283 120 166 77 829 411 852 429 19 14 30 44 53 141 16 68 28 129 25 135 -2 6
-23 17 -46 24 -23 7 -48 15 -56 18 -8 3 -19 -9 -28 -31 -16 -38 -40 -47 -50
-20 -3 8 -1 24 4 34 15 29 12 57 -7 65 -19 7 -297 106 -373 132 -25 9 -119 45
-210 80 -91 36 -186 72 -212 79 -39 12 -49 20 -54 42 -3 15 -6 29 -7 33 -1 3
-20 0 -42 -6z"/>
<path d="M563 920 c-3 -10 -16 -26 -29 -35 -37 -24 -30 -85 11 -85 20 0 23 7
32 70 5 41 5 70 0 70 -5 0 -11 -9 -14 -20z"/>
<path d="M1680 474 c-166 -96 -484 -245 -805 -376 -121 -49 -222 -91 -224 -94
-3 -2 211 -3 473 -2 l478 3 24 80 c32 106 61 213 85 305 11 41 22 83 25 93 7
23 -3 21 -56 -9z"/>
</g>
</svg>
