<?xml version="1.0" standalone="no"?>
<!DOCTYPE svg PUBLIC "-//W3C//DTD SVG 20010904//EN"
 "http://www.w3.org/TR/2001/REC-SVG-20010904/DTD/svg10.dtd">
<svg version="1.0" xmlns="http://www.w3.org/2000/svg"
 width="480.000000pt" height="360.000000pt" viewBox="0 0 480.000000 360.000000"
 preserveAspectRatio="xMidYMid meet">
<metadata>
Created by potrace 1.16, written by Peter Selinger 2001-2019
</metadata>
<rect width="1" height="360" fill="#000000"/>
<rect x="479" width="1" height="360" fill="#000000"/>
<rect width="480" height="1" fill="#000000"/>
<rect y="359" width="480" height="1" fill="#000000"/>
<g transform="translate(0.000000,360.000000) scale(0.100000,-0.100000)"
fill="#000000" stroke="none">
<path d="M0 1800 l0 -1800 179 0 178 0 26 38 c13 20 38 51 54 67 17 17 37 44
46 62 31 59 204 278 373 473 74 85 104 111 155 138 56 28 74 32 142 32 88 0
134 17 141 53 3 12 12 60 21 107 9 47 30 129 46 184 l30 98 -35 132 c-34 124
-44 204 -30 240 4 9 32 33 62 54 42 27 67 37 97 37 l40 0 12 70 c7 39 19 185
26 325 17 297 21 314 93 354 56 31 70 30 96 -5 37 -50 51 -175 40 -374 -11
-195 -11 -255 0 -255 4 0 41 69 84 153 42 83 90 172 107 197 46 70 117 139
169 166 116 59 126 10 34 -176 -65 -129 -159 -368 -200 -503 l-14 -48 120 126
c121 126 186 179 286 229 105 53 143 14 78 -83 -19 -28 -77 -97 -128 -152 -87
-94 -207 -270 -189 -277 5 -2 34 8 65 22 147 65 266 93 379 88 126 -5 30 -96
-200 -190 -135 -55 -261 -133 -267 -165 -3 -12 -9 -54 -15 -93 -26 -174 -73
-286 -174 -417 -91 -118 -91 -94 5 -200 166 -182 277 -357 294 -466 l7 -41
1283 0 1284 0 0 1094 0 1093 -77 7 c-42 3 -79 10 -82 14 -3 5 -24 12 -46 15
-22 4 -41 11 -43 17 -2 5 -20 10 -40 11 -20 1 -48 5 -62 9 -22 7 -22 8 -5 10
11 1 -5 6 -35 11 -30 5 -57 13 -60 18 -3 4 -20 11 -38 14 -18 4 -40 14 -48 22
-9 8 -24 15 -34 15 -13 0 -17 5 -14 15 4 10 0 15 -14 15 -11 0 -22 4 -24 8 -4
12 -131 110 -143 111 -5 0 -28 16 -50 34 -22 18 -57 43 -77 57 -21 14 -38 28
-39 33 -3 18 -6 24 -27 57 -12 19 -22 37 -22 40 0 3 -10 10 -22 15 -13 6 -27
20 -33 31 -6 12 -17 29 -24 38 -7 9 -10 16 -6 16 3 0 -6 13 -22 28 -45 45 -83
105 -86 137 -6 49 -32 109 -72 164 -15 21 -25 48 -25 69 0 19 -7 40 -15 46
-10 8 -15 33 -17 84 -1 39 -5 72 -10 72 -4 0 -8 41 -8 90 l0 90 -1740 0 -1740
0 0 -1800z"/>
</g>
</svg>
