<?xml version="1.0" standalone="no"?>
<!DOCTYPE svg PUBLIC "-//W3C//DTD SVG 20010904//EN"
 "http://www.w3.org/TR/2001/REC-SVG-20010904/DTD/svg10.dtd">
<svg version="1.0" xmlns="http://www.w3.org/2000/svg"
 width="480.000000pt" height="360.000000pt" viewBox="0 0 480.000000 360.000000"
 preserveAspectRatio="xMidYMid meet">
<metadata>
Created by potrace 1.16, written by Peter Selinger 2001-2019
</metadata>
<rect width="1" height="360" fill="#000000"/>
<rect x="479" width="1" height="360" fill="#000000"/>
<rect width="480" height="1" fill="#000000"/>
<rect y="359" width="480" height="1" fill="#000000"/>
<g transform="translate(0.000000,360.000000) scale(0.100000,-0.100000)"
fill="#000000" stroke="none">
<path d="M0 2886 l0 -714 43 5 c23 3 54 11 70 18 15 8 53 17 85 20 73 8 94 14
87 25 -11 17 42 25 153 23 61 -2 112 1 112 5 -1 4 -20 22 -43 39 -23 18 -73
58 -112 89 -38 30 -132 102 -207 159 -143 110 -162 127 -126 117 16 -4 19 -2
13 8 -12 19 9 6 90 -60 39 -31 117 -92 175 -135 58 -44 108 -84 112 -90 5 -6
8 -5 8 3 0 22 41 -6 105 -74 l61 -64 161 0 c88 0 182 -3 209 -6 l49 -5 -52 50
c-29 27 -53 54 -53 59 0 14 81 32 144 32 l55 0 3 -47 c3 -42 6 -47 31 -54 16
-4 57 -26 93 -49 l63 -42 31 24 c28 21 30 27 25 68 -5 41 4 118 20 181 4 18 1
31 -11 43 -14 15 -15 21 -3 42 7 14 26 33 41 42 35 21 35 27 -2 49 -16 9 -30
21 -30 26 0 13 48 57 63 57 19 0 61 47 85 95 11 22 44 64 73 92 30 29 67 68
82 88 21 25 37 35 58 35 l29 0 0 -712 c0 -698 0 -712 19 -683 10 17 28 38 39
49 21 18 21 17 57 -17 42 -41 87 -50 148 -30 36 12 40 11 88 -24 l51 -36 -5
-101 c-2 -56 -10 -144 -17 -196 -12 -82 -11 -101 1 -128 16 -38 23 -39 43 -11
11 16 22 20 45 17 17 -3 36 1 41 7 5 6 13 51 16 98 4 48 9 87 11 87 2 0 30
-18 61 -39 107 -74 156 -140 207 -282 17 -47 57 -80 71 -58 3 6 15 9 25 6 11
-3 19 -3 19 -1 0 21 -107 209 -139 246 -79 90 -23 64 130 -59 57 -46 70 -52
97 -47 17 4 30 10 29 14 -1 5 6 15 16 22 17 13 12 19 -70 68 -173 106 -153 79
-189 259 -17 87 -36 167 -42 177 -10 19 -8 32 32 294 15 94 10 107 -43 133
-25 12 -26 17 -26 92 0 75 -1 80 -20 77 -45 -6 -81 70 -100 211 -6 47 -8 49
-33 42 -36 -9 -43 -23 -37 -70 l6 -40 -21 32 c-22 33 -20 72 6 94 8 6 14 20
14 30 0 15 -7 19 -35 19 -19 0 -35 4 -35 8 0 5 9 35 20 67 11 32 20 60 20 62
0 1 -12 3 -26 3 -20 0 -25 4 -23 23 1 12 -1 29 -4 37 -3 8 -11 45 -17 81 -22
127 -69 161 -133 98 -30 -30 -31 -31 -63 -16 -17 9 -49 19 -70 23 -22 4 -57
22 -79 41 -22 18 -50 36 -62 39 l-23 6 0 274 0 274 -895 0 -895 0 0 -714z
m2230 -491 c14 -19 14 -19 -2 -6 -10 7 -18 18 -18 24 0 6 1 8 3 6 1 -2 9 -13
17 -24z m-82 -116 c37 -28 79 -70 94 -94 15 -25 39 -52 53 -61 17 -11 25 -25
25 -44 0 -26 -3 -28 -39 -26 -23 1 -57 14 -87 33 -27 17 -75 44 -106 59 -41
20 -58 34 -58 48 0 20 40 136 47 136 2 0 34 -23 71 -51z m-18 -249 c23 -18 23
-20 5 -19 -11 0 -40 18 -65 40 l-45 41 40 -22 c22 -11 51 -30 65 -40z m178
-178 c2 -12 -1 -22 -6 -22 -15 0 -34 28 -27 40 10 17 30 6 33 -18z m119 -350
c6 -4 12 -27 14 -52 3 -45 3 -45 -28 -43 -56 5 -80 19 -87 53 -3 18 -3 36 0
41 6 11 84 12 101 1z"/>
<path d="M1416 2313 c-16 -17 -5 -54 20 -63 41 -16 60 -12 61 13 2 19 1 20 -8
5 -6 -10 -15 -18 -20 -18 -6 0 -7 5 -4 11 4 6 -2 13 -14 16 -12 3 -21 10 -21
15 0 5 5 6 10 3 6 -3 10 -2 10 3 0 12 -26 23 -34 15z"/>
<path d="M374 1984 c-10 -67 -32 -78 -139 -69 -72 6 -90 4 -112 -10 -19 -13
-38 -16 -75 -12 l-48 6 0 -949 0 -950 605 0 605 0 0 54 c0 29 3 74 6 98 l6 45
-47 24 c-57 29 -98 76 -114 132 -7 23 -17 56 -23 72 -7 17 -12 48 -12 70 0 39
18 169 30 223 l7 27 -25 -22 c-25 -24 -44 -31 -33 -12 4 5 20 58 36 117 51
187 59 214 105 357 25 77 47 160 50 185 35 350 42 394 68 469 9 24 16 47 16
52 0 4 -38 5 -85 2 -98 -7 -126 5 -145 61 -13 39 -9 39 -210 61 -74 8 -208 15
-297 15 l-162 0 -7 -46z"/>
<path d="M1778 1523 c-7 -62 -3 -211 6 -220 3 -3 6 55 6 130 0 76 -2 137 -4
137 -2 0 -6 -21 -8 -47z"/>
<path d="M1789 719 l-1 -564 -36 77 c-25 52 -43 77 -54 78 -10 0 -18 -4 -18
-9 0 -5 -19 -16 -42 -23 -48 -16 -49 -17 -63 -192 l-7 -86 110 0 111 0 3 68 3
67 33 -68 33 -67 179 0 c111 0 180 4 180 10 0 25 -136 361 -171 423 -13 23 -6
33 28 42 99 24 203 94 203 137 0 24 -64 86 -140 135 -81 52 -98 70 -93 98 9
43 -164 351 -232 415 l-25 23 -1 -564z"/>
</g>
</svg>
