<?xml version="1.0" standalone="no"?>
<!DOCTYPE svg PUBLIC "-//W3C//DTD SVG 20010904//EN"
 "http://www.w3.org/TR/2001/REC-SVG-20010904/DTD/svg10.dtd">
<svg version="1.0" xmlns="http://www.w3.org/2000/svg"
 width="480.000000pt" height="360.000000pt" viewBox="0 0 480.000000 360.000000"
 preserveAspectRatio="xMidYMid meet">
<metadata>
Created by potrace 1.16, written by Peter Selinger 2001-2019
</metadata>
<rect width="1" height="360" fill="#000000"/>
<rect x="479" width="1" height="360" fill="#000000"/>
<rect width="480" height="1" fill="#000000"/>
<rect y="359" width="480" height="1" fill="#000000"/>
<g transform="translate(0.000000,360.000000) scale(0.100000,-0.100000)"
fill="#000000" stroke="none">
<path d="M0 1800 l0 -1800 395 0 395 0 0 33 c0 17 3 42 6 55 6 19 0 25 -42 44
-39 17 -65 21 -125 20 -86 -2 -91 1 -108 65 -15 56 -37 67 -118 58 -45 -5 -68
-3 -79 6 -11 9 -18 8 -34 -6 -28 -25 -45 -7 -43 48 3 115 10 154 35 191 15 21
24 44 21 52 -3 7 8 35 25 62 16 26 32 57 36 68 3 10 26 46 50 79 25 32 42 63
40 67 -3 5 0 7 8 6 7 -2 12 3 10 10 -1 7 30 63 70 125 82 127 152 257 199 367
17 41 45 104 62 140 29 64 30 66 21 170 -4 58 -8 142 -8 187 -1 44 -4 79 -8
77 -4 -3 -15 -31 -23 -62 -9 -31 -44 -142 -78 -245 -60 -187 -61 -189 -44
-219 20 -34 23 -133 5 -144 -6 -4 -17 1 -24 11 -20 27 -40 12 -59 -45 -14 -42
-15 -54 -5 -60 7 -5 20 -6 28 -2 10 3 13 0 10 -9 -2 -7 -15 -16 -29 -19 -20
-5 -25 -13 -27 -47 -3 -46 -27 -76 -42 -53 -5 7 -12 56 -15 107 -6 80 -4 107
14 176 19 74 61 331 61 376 0 10 -7 18 -15 18 -18 0 -29 -38 -52 -172 -10 -55
-19 -91 -21 -80 -8 46 -13 51 -26 26 -13 -23 -14 -23 -25 -5 -10 16 -11 11 -6
-28 6 -49 -2 -60 -25 -33 -16 20 -27 19 -33 -2 -3 -12 -5 -10 -6 7 -2 47 -16
53 -34 15 -9 -20 -17 -42 -17 -50 0 -18 -20 -20 -21 -2 0 6 -5 1 -11 -13 l-10
-25 -14 35 -14 35 5 -47 c3 -28 1 -48 -5 -48 -6 0 -10 5 -10 11 0 6 -7 8 -16
5 -12 -5 -15 -2 -10 9 3 10 2 13 -5 10 -19 -12 -47 35 -59 98 -7 38 -9 99 -5
152 3 50 8 130 10 179 6 111 30 168 164 384 51 85 101 173 108 195 23 64 27
150 13 240 -10 65 -10 96 0 152 22 126 24 121 -43 116 -45 -2 -63 1 -78 15
-29 26 -23 48 30 106 l50 54 -22 26 c-12 14 -73 52 -134 84 -62 33 -113 62
-113 65 0 12 327 -88 335 -101 3 -5 32 5 64 22 68 35 101 33 127 -7 15 -23 15
-27 -6 -60 -29 -48 -17 -59 42 -37 39 14 57 15 111 5 80 -13 170 -52 144 -62
-16 -6 -16 -8 4 -25 19 -16 21 -25 16 -77 -5 -53 -3 -59 14 -59 13 0 19 -7 19
-21 0 -11 7 -46 16 -77 l17 -56 -38 -31 c-41 -35 -42 -57 -5 -90 25 -22 26
-36 3 -28 -10 3 16 -18 57 -48 48 -35 87 -73 111 -109 20 -30 70 -86 112 -123
92 -82 99 -103 63 -184 -34 -72 -44 -197 -26 -314 7 -46 51 -217 97 -379 47
-162 98 -340 113 -396 15 -55 37 -127 49 -160 36 -103 54 -237 52 -389 -2
-154 -7 -165 -64 -165 -20 0 -37 -9 -56 -31 -81 -96 -73 -92 -159 -83 -83 8
-121 9 -128 1 -2 -2 -7 -34 -11 -71 l-6 -66 1183 0 1183 0 -7 97 c-4 54 -11
103 -14 109 -4 6 -34 35 -67 63 -40 34 -72 53 -98 57 -46 8 -57 26 -57 96 0
30 -6 60 -12 67 -11 10 -9 14 5 22 17 10 17 12 2 36 -10 14 -21 39 -26 56 -7
25 -5 33 12 45 18 12 20 22 16 55 -3 22 -12 44 -21 49 -20 11 -13 109 24 303
16 83 38 242 50 355 12 113 31 259 43 325 14 80 21 160 21 240 0 111 -3 124
-28 174 -41 81 -34 102 70 196 47 43 94 95 104 115 11 21 48 61 84 89 68 54
120 128 110 156 -4 8 -20 23 -36 31 -28 15 -30 18 -24 57 4 23 10 61 13 85 4
31 10 42 23 42 27 0 31 12 15 37 -17 26 -12 67 14 96 9 11 16 26 16 35 0 10
20 27 50 42 64 32 160 34 223 6 l43 -20 87 87 c48 48 91 87 95 87 4 0 -22 -43
-58 -96 -36 -53 -65 -101 -65 -105 0 -20 20 -6 76 54 33 34 72 72 87 84 15 13
27 30 27 38 0 8 5 15 10 15 6 0 33 21 60 46 54 51 62 50 29 -3 -22 -35 -20
-63 4 -63 8 0 22 -15 30 -32 l16 -33 -51 -13 c-44 -11 -52 -11 -62 3 -10 13
-20 5 -71 -57 -93 -112 -88 -102 -66 -140 36 -61 52 -160 45 -275 l-7 -103 62
-128 c51 -103 70 -133 99 -152 33 -22 79 -59 231 -185 26 -22 62 -56 79 -75
l31 -35 1 783 0 782 -2400 0 -2400 0 0 -1800z"/>
<path d="M4015 2379 c28 -49 31 -85 10 -113 -13 -17 -11 -23 17 -65 24 -33 34
-62 40 -108 8 -70 39 -143 46 -108 2 11 6 27 9 35 13 34 12 129 -2 182 -21 83
-52 138 -101 182 l-45 39 26 -44z"/>
<path d="M3935 1933 c0 -43 -4 -106 -8 -140 l-8 -63 57 -25 c31 -14 59 -24 61
-22 1 2 -8 41 -22 87 -14 46 -25 93 -25 104 0 12 -12 47 -28 79 l-27 59 0 -79z"/>
<path d="M4141 1982 c-13 -25 -14 -52 -2 -52 10 0 26 58 18 67 -3 2 -10 -4
-16 -15z"/>
<path d="M3792 1880 c0 -19 2 -27 5 -17 2 9 2 25 0 35 -3 9 -5 1 -5 -18z"/>
<path d="M4157 1876 c-4 -10 -7 -25 -6 -34 0 -11 4 -9 10 7 5 13 8 29 6 35 -2
5 -6 2 -10 -8z"/>
<path d="M4510 1814 c-11 -36 -20 -71 -20 -76 0 -15 -53 -85 -74 -98 -16 -10
-18 -10 -12 5 4 11 -6 8 -31 -12 -21 -16 -59 -43 -85 -59 -51 -31 -57 -44 -31
-65 9 -8 37 -45 62 -84 24 -38 87 -115 139 -169 135 -144 174 -203 207 -316
64 -221 76 -282 69 -352 -6 -64 -23 -95 -25 -45 -1 15 -5 10 -14 -18 l-13 -40
-3 40 c-2 38 -2 38 -6 8 -5 -37 -10 -40 -29 -16 -12 17 -13 16 -8 -4 9 -32
-26 -60 -83 -68 -109 -15 -151 -33 -208 -91 -30 -31 -55 -60 -55 -64 0 -21
-64 -33 -143 -27 -73 6 -88 4 -133 -17 -28 -13 -54 -28 -57 -33 -5 -9 3 -94
18 -180 l6 -33 409 0 410 0 0 902 c0 857 -1 900 -17 886 -10 -9 -23 -14 -29
-11 -6 2 -16 -8 -24 -22 -16 -30 -30 -33 -30 -6 0 25 -16 36 -24 16 -7 -20
-25 -19 -33 3 -8 24 -44 62 -58 62 -6 0 -18 11 -25 25 -7 14 -17 25 -21 25 -5
0 -17 -30 -29 -66z"/>
<path d="M181 1510 c0 -33 1 -34 10 -11 6 16 6 28 -1 35 -7 7 -10 -1 -9 -24z"/>
<path d="M1571 734 c0 -11 3 -14 6 -6 3 7 2 16 -1 19 -3 4 -6 -2 -5 -13z"/>
<path d="M4607 585 c9 -19 18 -33 21 -31 4 5 -26 66 -33 66 -3 0 3 -16 12 -35z"/>
<path d="M3696 203 c-3 -21 -6 -75 -6 -120 l0 -83 70 0 c43 0 70 4 70 11 0 36
-55 197 -72 212 -34 29 -55 22 -62 -20z"/>
<path d="M1007 97 c-37 -9 -43 -16 -61 -74 -7 -22 -5 -23 53 -23 l61 0 0 49
c0 28 -3 52 -7 54 -5 2 -25 -1 -46 -6z"/>
</g>
</svg>
