<?xml version="1.0" standalone="no"?>
<!DOCTYPE svg PUBLIC "-//W3C//DTD SVG 20010904//EN"
 "http://www.w3.org/TR/2001/REC-SVG-20010904/DTD/svg10.dtd">
<svg version="1.0" xmlns="http://www.w3.org/2000/svg"
 width="480.000000pt" height="360.000000pt" viewBox="0 0 480.000000 360.000000"
 preserveAspectRatio="xMidYMid meet">
<metadata>
Created by potrace 1.16, written by Peter Selinger 2001-2019
</metadata>
<rect width="1" height="360" fill="#000000"/>
<rect x="479" width="1" height="360" fill="#000000"/>
<rect width="480" height="1" fill="#000000"/>
<rect y="359" width="480" height="1" fill="#000000"/>
<g transform="translate(0.000000,360.000000) scale(0.100000,-0.100000)"
fill="#000000" stroke="none">
<path d="M1050 2818 c0 -6 10 -23 23 -36 l22 -25 -35 7 c-19 3 -73 9 -121 12
-98 8 -131 -4 -174 -60 -24 -31 -29 -33 -70 -28 -47 5 -105 -12 -105 -32 0
-22 31 -56 51 -56 12 0 17 -4 14 -11 -4 -5 -1 -24 6 -41 11 -26 10 -32 -4 -40
-9 -5 -17 -14 -17 -20 0 -11 79 -110 93 -116 12 -6 8 -91 -8 -154 -9 -33 -29
-78 -45 -100 -17 -23 -30 -50 -30 -62 0 -12 -14 -50 -30 -84 -30 -63 -40 -135
-20 -147 10 -6 8 -11 -28 -81 -28 -54 -76 -203 -69 -211 4 -3 13 0 22 7 24 20
19 -1 -25 -101 -45 -103 -46 -109 -26 -109 24 0 46 -30 46 -61 0 -44 15 -66
56 -79 30 -10 38 -9 55 6 29 26 23 42 -22 54 -41 11 -42 12 -22 31 17 18 22
18 58 6 l40 -14 -3 -239 c-3 -333 -21 -802 -31 -844 -6 -27 -4 -44 10 -70 22
-40 35 -50 69 -50 37 0 58 -16 42 -32 -30 -30 -14 -38 82 -38 l94 0 15 38 c12
29 13 48 5 82 -5 25 -10 59 -11 75 -2 33 -7 32 118 37 l60 2 -3 -74 c-1 -41
-5 -94 -8 -117 l-5 -43 91 0 91 0 -2 52 c-3 50 -1 54 26 68 84 42 103 58 109
97 5 26 0 56 -13 97 -44 124 -155 753 -191 1076 -18 158 -37 267 -66 367 -6
21 -5 21 25 10 26 -9 34 -9 47 5 15 15 21 15 72 -3 30 -10 65 -19 78 -19 35 0
64 45 64 97 0 41 -4 49 -42 83 l-42 37 42 65 c23 35 42 69 42 74 0 6 -58 48
-130 95 -73 47 -130 91 -130 99 0 8 18 42 40 74 30 46 37 63 28 73 -13 16 -13
16 27 29 25 8 29 15 27 37 -2 15 2 27 9 27 24 0 -14 30 -52 42 -22 6 -39 15
-39 20 0 8 -31 81 -63 147 -13 27 -82 81 -104 81 -7 0 -13 -5 -13 -12z m-491
-1234 c-6 -16 -13 -24 -16 -18 -2 6 2 24 8 40 6 16 13 24 16 18 2 -6 -2 -24
-8 -40z"/>
</g>
</svg>
