<?xml version="1.0" standalone="no"?>
<!DOCTYPE svg PUBLIC "-//W3C//DTD SVG 20010904//EN"
 "http://www.w3.org/TR/2001/REC-SVG-20010904/DTD/svg10.dtd">
<svg version="1.0" xmlns="http://www.w3.org/2000/svg"
 width="480.000000pt" height="360.000000pt" viewBox="0 0 480.000000 360.000000"
 preserveAspectRatio="xMidYMid meet">
<metadata>
Created by potrace 1.16, written by Peter Selinger 2001-2019
</metadata>
<rect width="1" height="360" fill="#000000"/>
<rect x="479" width="1" height="360" fill="#000000"/>
<rect width="480" height="1" fill="#000000"/>
<rect y="359" width="480" height="1" fill="#000000"/>
<g transform="translate(0.000000,360.000000) scale(0.100000,-0.100000)"
fill="#000000" stroke="none">
<path d="M0 1800 l0 -1800 374 0 373 0 11 68 c6 37 14 99 18 137 l6 70 -69 33
c-57 28 -81 34 -143 35 l-75 2 -20 60 c-23 68 -31 72 -142 74 -61 1 -74 4 -86
22 l-15 20 -33 -20 c-18 -11 -36 -18 -41 -15 -14 9 -9 62 11 114 16 42 17 51
5 61 -12 9 -6 20 33 57 39 37 45 46 30 50 -10 2 -17 7 -15 10 2 4 10 19 17 34
8 16 22 28 32 28 21 0 38 26 32 50 -4 16 9 32 101 119 24 22 33 37 25 41 -7 5
13 41 57 104 94 131 153 229 146 241 -4 6 -5 17 -4 26 2 11 -6 18 -23 22 -32
6 -59 -19 -87 -80 -10 -24 -24 -43 -30 -43 -6 0 -20 -8 -30 -17 -17 -16 -20
-16 -35 0 -13 13 -17 36 -18 96 0 71 3 82 25 106 14 15 42 36 62 46 62 32 72
55 63 157 -3 48 -8 168 -9 267 -1 113 -7 194 -15 217 -6 20 -11 43 -10 50 2 7
0 30 -4 51 -11 54 10 151 40 183 23 25 24 28 8 58 -9 17 -34 60 -57 96 -52 82
-98 207 -98 266 0 50 18 132 32 151 16 20 -1 33 -32 26 -45 -9 -93 5 -113 32
-18 25 -18 26 2 54 12 16 21 33 21 39 0 5 10 22 22 38 20 25 20 27 3 14 -11
-8 -36 -29 -55 -47 -19 -18 -38 -33 -41 -33 -4 0 -13 14 -21 30 -7 17 -16 30
-21 30 -4 0 -1 13 8 29 25 50 68 72 156 83 70 8 83 7 99 -7 17 -15 21 -15 59
4 55 29 111 28 139 -2 27 -29 28 -47 2 -80 -11 -14 -20 -27 -20 -29 0 -3 39
-4 88 -4 75 1 96 -3 154 -28 60 -26 96 -56 66 -56 -6 0 -4 -8 5 -18 19 -21 24
-107 7 -117 -17 -11 -11 -23 13 -27 17 -2 22 -10 23 -33 1 -66 6 -109 11 -97
2 6 9 12 14 12 6 0 7 -4 4 -10 -6 -10 15 -34 70 -80 17 -14 43 -44 59 -68 27
-40 31 -42 77 -42 38 0 51 4 59 20 18 34 90 80 124 80 37 0 77 -25 115 -70 33
-40 57 -46 73 -17 6 12 15 25 20 28 5 3 20 37 33 76 36 102 43 239 20 374 -20
116 -44 161 -72 133 -8 -8 -27 -21 -43 -29 -15 -8 -42 -33 -60 -55 -24 -30
-39 -40 -60 -40 -38 0 -94 49 -132 116 -33 60 -35 60 -112 7 -26 -18 -52 -33
-56 -33 -4 0 -26 14 -49 31 -43 31 -80 94 -81 137 0 12 -9 40 -20 62 -24 47
-25 73 -5 90 8 7 15 16 15 21 0 5 -222 9 -505 9 l-505 0 0 -1800z"/>
<path d="M1630 2521 c-21 -40 -4 -146 27 -164 8 -5 13 -26 13 -52 0 -24 5 -47
11 -51 6 -3 8 -17 5 -29 -3 -13 -2 -27 4 -30 5 -3 10 -21 10 -39 0 -25 5 -35
20 -39 40 -10 37 63 -6 141 -20 35 -24 57 -24 121 0 100 -7 134 -31 149 -15
10 -20 8 -29 -7z"/>
<path d="M1569 1858 c-20 -22 -21 -29 -13 -123 4 -55 9 -143 10 -195 1 -52 5
-118 9 -146 5 -34 4 -54 -4 -58 -14 -9 -15 -126 -1 -126 6 0 10 -30 10 -69 0
-52 -4 -70 -15 -75 -17 -6 -22 -91 -6 -100 5 -3 8 -35 7 -71 0 -36 2 -66 6
-67 18 -7 6 -382 -14 -420 -6 -13 -21 -18 -49 -18 -36 0 -47 -6 -94 -55 -58
-61 -68 -63 -155 -40 -30 8 -56 12 -59 10 -2 -3 -8 -49 -12 -102 -4 -54 -11
-122 -14 -150 l-6 -53 500 0 500 0 3 33 c6 58 -11 108 -57 164 l-45 55 0 101
c1 147 35 354 81 496 15 45 20 77 16 115 -27 256 -28 259 -65 326 -20 36 -49
83 -64 104 -15 21 -28 49 -28 61 0 12 -6 40 -14 61 -7 22 -16 63 -20 93 -7 51
-46 145 -64 153 -4 1 -21 20 -36 41 -45 58 -59 62 -99 27 -42 -37 -47 -37 -78
-4 -27 29 -70 54 -93 54 -8 0 -25 -10 -37 -22z"/>
<path d="M978 269 c-16 -9 -40 -78 -67 -190 -6 -26 -13 -54 -17 -63 -5 -14 2
-16 49 -16 47 0 60 4 82 25 27 28 31 70 19 194 -6 53 -9 61 -28 61 -12 0 -29
-5 -38 -11z"/>
</g>
</svg>
