<?xml version="1.0" standalone="no"?>
<!DOCTYPE svg PUBLIC "-//W3C//DTD SVG 20010904//EN"
 "http://www.w3.org/TR/2001/REC-SVG-20010904/DTD/svg10.dtd">
<svg version="1.0" xmlns="http://www.w3.org/2000/svg"
 width="480.000000pt" height="360.000000pt" viewBox="0 0 480.000000 360.000000"
 preserveAspectRatio="xMidYMid meet">
<metadata>
Created by potrace 1.16, written by Peter Selinger 2001-2019
</metadata>
<rect width="1" height="360" fill="#000000"/>
<rect x="479" width="1" height="360" fill="#000000"/>
<rect width="480" height="1" fill="#000000"/>
<rect y="359" width="480" height="1" fill="#000000"/>
<g transform="translate(0.000000,360.000000) scale(0.100000,-0.100000)"
fill="#000000" stroke="none">
<path d="M1354 3546 c-105 -118 -165 -267 -151 -369 20 -140 102 -284 207
-361 65 -48 163 -86 221 -86 21 0 40 -4 43 -8 4 -8 -121 -45 -140 -41 -5 1
-30 1 -56 0 -55 -1 -75 -17 -84 -69 -5 -27 -23 -53 -70 -100 -50 -49 -64 -70
-64 -93 0 -36 24 -48 49 -25 18 16 20 15 49 -21 16 -21 45 -67 63 -102 33 -64
39 -103 27 -196 -2 -12 3 -20 12 -20 20 -1 16 -58 -10 -147 -11 -37 -25 -111
-30 -165 -5 -54 -19 -127 -30 -163 -12 -36 -25 -105 -30 -155 -5 -49 -18 -121
-30 -160 -11 -38 -25 -122 -30 -185 -5 -63 -14 -138 -20 -166 -15 -70 -8 -528
9 -569 14 -34 41 -168 41 -204 0 -13 10 -50 21 -82 l22 -59 72 0 72 0 -4 38
c-4 39 -29 114 -49 147 -16 27 -34 116 -34 173 0 26 -7 75 -15 110 -23 97 -19
446 7 577 11 55 21 130 23 167 2 36 17 124 34 195 16 70 34 165 40 211 9 71
22 130 48 212 6 17 14 1 64 -125 43 -106 119 -183 240 -243 81 -40 468 -192
489 -192 23 0 7 -25 -49 -79 -45 -43 -62 -68 -74 -107 -8 -27 -37 -79 -64
-114 -58 -77 -89 -147 -110 -244 -12 -59 -14 -120 -9 -356 4 -157 9 -304 12
-327 l6 -43 367 0 366 0 0 173 0 172 37 70 c34 67 37 69 46 45 11 -27 118
-260 150 -325 11 -22 23 -61 26 -88 l7 -47 190 0 191 0 -6 28 c-3 15 -7 207
-8 427 -2 380 -1 406 21 530 12 72 37 170 53 219 32 93 104 256 113 256 3 0 4
-26 3 -57 -2 -42 0 -57 10 -55 7 1 12 -8 12 -22 0 -13 8 -34 18 -46 18 -22 19
-22 45 -5 15 9 27 24 27 32 0 8 5 11 11 8 6 -4 19 2 30 14 11 12 23 21 28 21
7 0 58 58 151 170 95 115 160 256 160 348 0 42 -73 123 -145 159 -45 23 -57
25 -136 20 -58 -4 -90 -2 -98 6 -14 14 -14 27 -1 27 19 0 166 72 256 126 l92
55 46 -13 c40 -11 54 -10 113 9 38 12 96 25 131 28 42 5 65 12 69 22 6 16 -45
64 -89 85 -32 15 -36 28 -9 28 10 0 33 5 50 11 27 10 32 16 28 36 -4 21 5 32
57 70 33 24 85 58 114 75 56 32 72 68 30 68 -66 -1 -200 -43 -363 -115 -66
-30 -145 -60 -175 -69 -30 -8 -86 -34 -123 -56 -37 -23 -87 -48 -110 -56 -32
-12 -247 -64 -263 -64 -2 0 -2 24 -1 53 2 53 3 54 50 81 50 28 86 84 87 134 0
31 -52 82 -84 82 -30 0 -42 -16 -27 -34 16 -19 -71 -96 -109 -96 -29 0 -54
-22 -64 -58 -9 -27 -32 -40 -66 -37 -14 2 -40 -6 -59 -17 l-34 -19 -76 27
c-89 31 -141 33 -271 11 -52 -9 -102 -17 -110 -17 -13 0 -13 -2 -1 -9 12 -7 5
-14 -27 -26 -38 -15 -41 -19 -30 -38 8 -15 8 -22 0 -25 -6 -2 -27 -29 -46 -60
-26 -44 -33 -65 -29 -89 3 -18 9 -33 13 -33 4 0 5 -11 2 -25 -6 -35 5 -31 22
8 l14 32 1 -38 c1 -35 -2 -39 -36 -53 -33 -14 -40 -14 -76 0 -50 20 -61 13
-54 -35 4 -31 1 -42 -20 -61 -16 -15 -23 -30 -20 -45 2 -13 -2 -28 -9 -34 -8
-6 -14 -17 -14 -23 0 -6 -9 -28 -20 -49 -11 -20 -20 -45 -20 -54 0 -10 32 -47
71 -83 l71 -65 -30 -67 -31 -67 -113 50 c-178 80 -304 126 -418 155 -58 15
-106 28 -108 29 -1 1 -9 28 -17 59 -8 31 -44 130 -80 219 -63 158 -64 162 -46
181 19 18 18 19 -13 47 -18 15 -41 43 -51 63 l-19 34 36 40 c20 22 42 51 49
64 6 12 13 25 15 27 2 2 28 -24 59 -57 35 -38 78 -72 113 -89 50 -24 69 -28
147 -28 60 0 106 6 138 18 54 19 66 16 111 -32 36 -38 49 -38 92 -6 46 35 50
57 20 108 -32 54 -32 68 -1 121 35 60 65 152 65 201 0 23 -7 66 -16 96 -43
143 -103 207 -246 263 -26 10 -38 21 -38 35 0 11 -7 24 -15 28 -12 7 -13 19
-4 71 17 111 -13 230 -88 345 l-45 67 -343 0 -344 0 -47 -54z m36 -1101 c0
-15 -6 -25 -14 -25 -22 0 -30 19 -16 35 18 22 30 18 30 -10z m2146 -111 c-4
-9 -9 -15 -11 -12 -3 3 -3 13 1 22 4 9 9 15 11 12 3 -3 3 -13 -1 -22z m-1997
-371 c1 -7 -6 -13 -14 -13 -15 0 -21 40 -8 54 7 7 21 -18 22 -41z m-17 -105
c2 -7 2 -26 -1 -43 -4 -21 -13 -31 -29 -33 -18 -3 -22 1 -22 23 0 49 40 89 52
53z m-40 -194 c-4 -42 -10 -56 -22 -49 -11 7 -13 45 -4 70 10 26 29 11 26 -21z
m-24 -171 c-3 -33 -7 -38 -30 -41 -31 -4 -35 9 -18 52 6 17 17 26 30 26 18 0
21 -5 18 -37z m-38 -161 c0 -34 -23 -71 -34 -54 -4 7 -4 27 0 47 8 43 34 48
34 7z m-20 -171 c0 -45 -10 -61 -37 -61 -23 0 -25 3 -19 31 3 17 6 38 6 45 0
8 10 14 25 14 21 0 25 -5 25 -29z m-37 -197 c-10 -44 -33 -58 -33 -20 0 13 5
37 10 52 16 42 35 16 23 -32z m-4 -207 c-18 -33 -44 -16 -47 30 -3 37 0 42 20
45 18 2 24 -3 30 -27 3 -16 2 -38 -3 -48z m-11 -149 c-4 -59 -28 -63 -28 -4 0
35 4 46 16 46 12 0 14 -9 12 -42z m26 -176 c10 -37 -1 -56 -26 -47 -17 7 -32
60 -22 77 12 19 39 2 48 -30z m16 -189 c0 -13 -4 -23 -9 -23 -10 0 -22 51 -14
64 8 12 23 -15 23 -41z m61 -160 c12 -31 5 -43 -22 -36 -21 6 -44 48 -34 63 9
15 47 -3 56 -27z"/>
</g>
</svg>
