<?xml version="1.0" standalone="no"?>
<!DOCTYPE svg PUBLIC "-//W3C//DTD SVG 20010904//EN"
 "http://www.w3.org/TR/2001/REC-SVG-20010904/DTD/svg10.dtd">
<svg version="1.0" xmlns="http://www.w3.org/2000/svg"
 width="480.000000pt" height="360.000000pt" viewBox="0 0 480.000000 360.000000"
 preserveAspectRatio="xMidYMid meet">
<metadata>
Created by potrace 1.16, written by Peter Selinger 2001-2019
</metadata>
<rect width="1" height="360" fill="#000000"/>
<rect x="479" width="1" height="360" fill="#000000"/>
<rect width="480" height="1" fill="#000000"/>
<rect y="359" width="480" height="1" fill="#000000"/>
<g transform="translate(0.000000,360.000000) scale(0.100000,-0.100000)"
fill="#000000" stroke="none">
<path d="M0 1800 l0 -1800 2400 0 2400 0 0 1800 0 1800 -2400 0 -2400 0 0
-1800z m2870 472 c25 -56 25 -61 23 -295 0 -131 -4 -249 -7 -261 -5 -20 -14
-24 -68 -30 -153 -17 -344 -70 -412 -114 -23 -15 -90 -65 -151 -111 -108 -83
-250 -165 -267 -155 -4 3 -8 18 -8 35 0 16 -5 37 -11 47 -13 20 19 98 88 218
49 84 93 166 185 344 82 158 165 272 226 311 37 24 122 50 202 62 14 3 59 5
100 5 l75 2 25 -58z"/>
</g>
</svg>
