<?xml version="1.0" standalone="no"?>
<!DOCTYPE svg PUBLIC "-//W3C//DTD SVG 20010904//EN"
 "http://www.w3.org/TR/2001/REC-SVG-20010904/DTD/svg10.dtd">
<svg version="1.0" xmlns="http://www.w3.org/2000/svg"
 width="480.000000pt" height="360.000000pt" viewBox="0 0 480.000000 360.000000"
 preserveAspectRatio="xMidYMid meet">
<metadata>
Created by potrace 1.16, written by Peter Selinger 2001-2019
</metadata>
<rect width="1" height="360" fill="#000000"/>
<rect x="479" width="1" height="360" fill="#000000"/>
<rect width="480" height="1" fill="#000000"/>
<rect y="359" width="480" height="1" fill="#000000"/>
<g transform="translate(0.000000,360.000000) scale(0.100000,-0.100000)"
fill="#000000" stroke="none">
<path d="M0 1800 l0 -1800 1009 0 1008 0 7 128 c4 70 18 185 30 256 22 123 23
134 9 214 -12 69 -12 96 -3 146 16 79 16 91 -2 156 -9 30 -12 62 -9 70 4 8 4
93 0 188 -7 152 -11 178 -31 213 -12 22 -25 38 -28 37 -3 -2 -35 -37 -71 -78
-99 -114 -165 -141 -256 -105 -64 25 -242 64 -322 71 -78 6 -121 24 -121 48 0
8 -13 17 -30 21 -26 6 -30 11 -30 41 0 19 -3 34 -7 34 -5 0 -48 7 -98 14 -170
26 -375 101 -375 137 0 22 8 23 44 9 29 -11 32 -4 11 24 -18 24 -19 46 -4 46
6 0 29 -16 50 -35 48 -43 61 -45 47 -5 -5 17 -7 38 -3 48 6 15 9 14 30 -10 27
-31 81 -39 91 -13 8 21 21 19 29 -4 4 -14 18 -19 63 -24 39 -3 76 -15 113 -36
53 -30 55 -30 67 -11 13 21 47 27 57 10 4 -7 12 -7 25 0 29 16 46 12 132 -25
116 -51 287 -98 305 -84 7 6 13 15 13 20 0 4 29 57 64 118 52 89 63 117 62
151 -1 45 -9 35 143 170 48 43 50 47 44 83 -5 36 -3 41 58 101 35 35 72 67 82
73 10 5 20 26 24 48 6 35 4 38 -13 30 -80 -33 -71 -34 -124 25 -27 30 -52 62
-55 72 -3 9 -17 19 -30 22 -29 7 -31 18 -10 50 14 21 13 24 -14 50 -17 16 -43
29 -61 31 -36 2 -89 57 -90 91 0 28 -10 36 -28 21 -13 -10 -14 -9 -9 8 4 11
18 58 31 105 43 147 79 207 151 247 14 8 14 17 3 81 -6 39 -9 74 -6 77 3 4 30
9 60 12 40 4 62 1 79 -10 36 -23 63 -7 78 44 15 52 70 159 82 159 4 0 15 -10
23 -22 l15 -22 43 42 c23 23 46 42 50 42 27 0 139 -155 178 -245 22 -51 26
-125 9 -142 -7 -7 -2 -17 20 -33 97 -68 177 -284 216 -580 43 -325 44 -331
109 -515 35 -99 80 -229 99 -290 53 -164 60 -261 15 -193 -15 22 -16 19 -28
-51 -11 -65 -10 -82 4 -126 22 -70 21 -77 -20 -191 -40 -111 -79 -269 -89
-359 -8 -72 -18 -93 -51 -105 -17 -7 -24 -17 -24 -37 0 -16 -5 -98 -10 -183
-6 -85 -7 -199 -4 -252 l7 -98 983 0 984 0 0 1800 0 1800 -2400 0 -2400 0 0
-1800z"/>
<path d="M1990 2511 c0 -5 7 -15 17 -22 15 -13 15 -12 4 9 -12 23 -21 28 -21
13z"/>
<path d="M2087 1148 c8 -70 13 -74 13 -10 0 28 -4 53 -10 57 -5 3 -7 -15 -3
-47z"/>
</g>
</svg>
