<?xml version="1.0" standalone="no"?>
<!DOCTYPE svg PUBLIC "-//W3C//DTD SVG 20010904//EN"
 "http://www.w3.org/TR/2001/REC-SVG-20010904/DTD/svg10.dtd">
<svg version="1.0" xmlns="http://www.w3.org/2000/svg"
 width="480.000000pt" height="360.000000pt" viewBox="0 0 480.000000 360.000000"
 preserveAspectRatio="xMidYMid meet">
<metadata>
Created by potrace 1.16, written by Peter Selinger 2001-2019
</metadata>
<rect width="1" height="360" fill="#000000"/>
<rect x="479" width="1" height="360" fill="#000000"/>
<rect width="480" height="1" fill="#000000"/>
<rect y="359" width="480" height="1" fill="#000000"/>
<g transform="translate(0.000000,360.000000) scale(0.100000,-0.100000)"
fill="#000000" stroke="none">
<path d="M2415 2106 c-96 -30 -120 -64 -130 -184 -6 -66 -5 -86 7 -100 31 -35
29 -41 -15 -60 -50 -22 -63 -37 -48 -55 5 -7 12 -46 14 -87 2 -41 8 -84 14
-95 6 -11 14 -49 17 -85 4 -36 12 -70 17 -77 11 -12 -95 -234 -185 -388 -77
-131 -89 -203 -56 -325 13 -48 72 -105 97 -96 7 3 13 1 13 -3 0 -5 36 -21 80
-36 57 -19 80 -31 80 -43 1 -25 18 -210 26 -266 10 -77 67 -116 125 -86 10 6
19 16 19 23 0 7 14 13 32 13 20 1 39 10 51 25 17 21 18 32 11 94 -8 75 -9 156
0 190 3 11 26 33 51 48 25 16 45 35 45 44 0 8 4 12 9 9 12 -8 68 75 87 129 13
38 14 56 5 84 -5 20 -15 61 -22 91 -6 30 -32 105 -57 165 -25 61 -44 123 -43
138 1 16 -7 41 -18 56 -11 15 -27 47 -37 70 l-17 44 32 27 33 26 -12 58 c-6
32 -9 73 -6 91 4 19 2 36 -3 39 -9 6 -13 54 -12 138 0 31 -4 38 -29 47 -30 10
-38 25 -20 36 6 3 10 15 10 27 0 13 5 18 13 15 11 -4 14 12 13 77 -2 95 -14
122 -74 160 -51 33 -70 37 -117 22z m45 -1672 c-6 -14 -11 -44 -12 -67 -1 -39
-2 -38 -7 13 -7 64 -4 80 15 80 10 0 11 -6 4 -26z"/>
</g>
</svg>
