<?xml version="1.0" standalone="no"?>
<!DOCTYPE svg PUBLIC "-//W3C//DTD SVG 20010904//EN"
 "http://www.w3.org/TR/2001/REC-SVG-20010904/DTD/svg10.dtd">
<svg version="1.0" xmlns="http://www.w3.org/2000/svg"
 width="480.000000pt" height="360.000000pt" viewBox="0 0 480.000000 360.000000"
 preserveAspectRatio="xMidYMid meet">
<metadata>
Created by potrace 1.16, written by Peter Selinger 2001-2019
</metadata>
<rect width="1" height="360" fill="#000000"/>
<rect x="479" width="1" height="360" fill="#000000"/>
<rect width="480" height="1" fill="#000000"/>
<rect y="359" width="480" height="1" fill="#000000"/>
<g transform="translate(0.000000,360.000000) scale(0.100000,-0.100000)"
fill="#000000" stroke="none">
<path d="M0 1800 l0 -1800 2400 0 2400 0 0 1800 0 1800 -2400 0 -2400 0 0
-1800z m2638 1009 c51 -33 92 -65 92 -70 0 -14 -37 -11 -78 7 -94 41 -109 37
-98 -21 6 -31 11 -35 74 -55 135 -45 152 -60 112 -100 -20 -20 -20 -20 16 -35
20 -8 40 -15 43 -15 4 0 22 -13 39 -28 32 -29 34 -45 4 -35 -10 3 -6 -4 8 -16
l25 -21 -22 0 c-13 0 -23 -4 -23 -9 0 -15 -30 -21 -51 -10 -15 7 -23 6 -35 -6
-20 -19 -21 -19 -51 5 -30 23 -43 19 -22 -7 13 -16 13 -16 -11 0 -44 31 -50
22 -27 -43 12 -33 26 -60 31 -60 5 0 24 18 43 40 45 52 87 56 97 9 3 -17 6
-51 6 -75 0 -23 4 -45 8 -48 9 -5 158 -39 222 -50 27 -5 36 -11 37 -27 1 -14
-3 -19 -15 -15 -29 9 -147 36 -157 36 -19 0 21 -20 82 -41 l62 -20 103 20
c161 31 179 33 253 21 68 -11 128 -37 119 -51 -3 -5 11 -25 30 -45 27 -28 39
-35 56 -29 15 5 20 4 16 -4 -4 -6 -2 -11 4 -11 6 0 8 -5 5 -11 -4 -6 2 -13 14
-16 18 -5 19 -7 5 -28 -13 -20 -13 -23 1 -28 17 -7 21 -37 4 -37 -5 0 -7 -4
-4 -10 3 -5 1 -10 -6 -10 -10 0 -10 -3 -1 -12 17 -17 15 -26 -9 -38 -14 -8
-29 -8 -48 -2 -23 8 -30 6 -39 -9 -7 -11 -27 -25 -45 -33 -17 -8 -26 -15 -19
-15 6 -1 12 -5 12 -10 0 -14 -52 -7 -87 12 -47 25 -51 21 -13 -14 41 -36 32
-32 -38 15 -41 27 -70 37 -149 50 -197 33 -219 38 -258 54 -28 12 -61 16 -112
14 l-71 -4 10 -28 c13 -39 7 -81 -15 -94 -15 -9 -23 -6 -42 17 l-24 28 -7 -25
c-3 -14 -12 -31 -20 -37 -26 -21 -44 10 -46 78 l-2 62 -60 6 c-34 4 -86 3
-116 -2 -30 -5 -71 -6 -90 -3 -31 4 -35 9 -38 37 -2 19 -10 34 -20 37 -21 7
-213 23 -352 30 l-105 6 48 -16 c35 -11 47 -19 43 -30 -3 -9 9 -24 37 -41 23
-15 44 -29 46 -30 3 -2 -2 -11 -11 -19 -14 -14 -21 -12 -77 26 -56 38 -210
109 -238 110 -7 0 -16 -7 -20 -15 -5 -8 -19 -16 -33 -17 -18 -2 -28 4 -37 24
-11 22 -23 28 -61 33 -26 3 -57 8 -69 11 -29 6 -63 42 -63 67 0 19 5 19 93 13
50 -4 142 -13 202 -21 61 -7 202 -21 315 -30 l204 -17 33 38 c38 44 106 166
116 206 4 15 2 59 -4 98 -11 66 -14 72 -40 77 -32 6 -69 37 -69 58 0 7 14 25
31 40 18 14 28 29 23 33 -5 4 -43 18 -84 32 -41 13 -84 32 -96 42 -11 10 -23
15 -27 12 -10 -10 -30 43 -24 60 5 11 14 14 37 10 37 -8 37 -3 5 32 -29 32
-31 46 -8 65 13 11 17 11 20 2 3 -8 24 -13 55 -13 53 0 52 1 31 -57 -6 -15 1
-16 46 -7 21 4 38 18 52 41 34 55 73 73 154 73 70 0 72 -1 163 -61z"/>
<path d="M2380 2503 c0 -10 7 -26 14 -36 18 -23 30 -6 22 29 -7 27 -36 33 -36
7z"/>
<path d="M2426 2228 c-10 -23 -35 -67 -57 -98 -39 -56 -49 -90 -26 -90 19 0
129 86 146 114 13 22 13 28 -5 61 -31 59 -40 61 -58 13z"/>
<path d="M2790 2147 c0 -7 12 -20 28 -26 34 -16 112 -40 112 -35 0 3 -99 57
-132 72 -5 2 -8 -3 -8 -11z"/>
</g>
</svg>
