<?xml version="1.0" standalone="no"?>
<!DOCTYPE svg PUBLIC "-//W3C//DTD SVG 20010904//EN"
 "http://www.w3.org/TR/2001/REC-SVG-20010904/DTD/svg10.dtd">
<svg version="1.0" xmlns="http://www.w3.org/2000/svg"
 width="480.000000pt" height="360.000000pt" viewBox="0 0 480.000000 360.000000"
 preserveAspectRatio="xMidYMid meet">
<metadata>
Created by potrace 1.16, written by Peter Selinger 2001-2019
</metadata>
<rect width="1" height="360" fill="#000000"/>
<rect x="479" width="1" height="360" fill="#000000"/>
<rect width="480" height="1" fill="#000000"/>
<rect y="359" width="480" height="1" fill="#000000"/>
<g transform="translate(0.000000,360.000000) scale(0.100000,-0.100000)"
fill="#000000" stroke="none">
<path d="M0 3044 l0 -556 23 6 c109 29 320 33 433 7 118 -27 273 -217 224
-276 -9 -11 -9 -22 -1 -46 6 -18 11 -56 11 -85 0 -47 -4 -56 -34 -85 -29 -27
-35 -41 -41 -93 -10 -82 -35 -129 -86 -158 -51 -28 -76 -60 -85 -110 l-6 -37
41 -7 c30 -5 50 -17 76 -46 51 -56 59 -77 45 -126 -10 -39 -16 -44 -91 -82
-44 -22 -90 -40 -102 -40 -12 0 -28 -4 -35 -9 -11 -6 -10 -10 4 -15 16 -6 16
-9 4 -16 -12 -8 -11 -15 7 -53 33 -68 44 -171 48 -472 3 -154 6 -311 7 -350 3
-64 1 -71 -20 -80 -17 -7 -22 -18 -22 -45 0 -34 -23 -185 -36 -242 l-6 -28
451 0 c383 0 450 2 445 14 -6 17 22 76 36 76 13 0 13 0 -5 -49 l-14 -41 939 0
939 0 3 27 c2 18 10 29 22 31 11 3 27 13 36 24 14 18 20 19 39 8 20 -10 23
-18 18 -51 l-5 -39 769 0 769 0 0 1459 0 1459 -32 -14 c-18 -9 -41 -19 -50
-24 -12 -7 -23 -4 -39 9 -20 16 -21 20 -8 46 22 46 97 54 117 12 8 -16 11 74
11 316 l1 337 -2400 0 -2400 0 0 -556z m2164 489 c8 -19 -20 -53 -43 -53 -26
0 -61 29 -61 51 0 40 89 41 104 2z m1101 -75 c-6 -15 -55 -43 -55 -32 0 6 54
53 58 50 1 -2 0 -10 -3 -18z m-1846 -64 c-23 -25 -64 -33 -57 -11 3 6 20 22
39 35 40 28 52 12 18 -24z m391 -44 c-20 -13 -103 -13 -95 0 3 6 30 10 58 10
37 0 48 -3 37 -10z m1215 -209 c-9 -15 -64 -23 -111 -16 -68 10 -42 25 42 25
43 0 73 -4 69 -9z m-1212 -54 c51 -18 73 -40 26 -27 -18 6 -55 10 -81 10 -44
0 -65 10 -51 24 11 10 66 7 106 -7z m-154 -313 c2 -2 -16 -4 -40 -4 -31 0 -40
3 -29 10 13 8 57 4 69 -6z m1340 -48 c30 -16 56 -62 41 -71 -19 -12 -88 15
-104 40 -29 43 6 60 63 31z m-1910 -218 c13 -23 13 -30 -4 -67 -19 -44 -38
-51 -67 -24 -25 22 -24 77 3 104 26 26 49 21 68 -13z m361 -834 c0 -32 -54
-84 -81 -77 -38 10 -18 58 36 87 41 21 45 20 45 -10z m1585 -14 c18 -30 -35
-81 -61 -59 -13 10 -11 16 12 41 30 30 39 34 49 18z m1560 -73 c29 -22 9 -37
-48 -37 -59 0 -83 11 -74 34 8 20 95 22 122 3z m-1755 -60 c0 -23 -32 -59 -42
-49 -7 7 -4 19 8 36 21 28 34 33 34 13z m288 -24 c33 -32 40 -47 45 -93 4 -30
3 -58 -1 -62 -12 -12 -79 10 -109 36 -21 18 -28 35 -33 82 -4 32 -5 62 -3 67
2 4 17 7 34 7 20 0 41 -11 67 -37z m712 -32 c54 -19 95 -54 84 -72 -7 -12
-100 -11 -146 1 -32 9 -58 33 -58 54 0 5 50 35 60 36 3 0 30 -9 60 -19z
m-1755 -176 c14 -13 25 -34 25 -45 0 -18 -5 -21 -36 -18 -43 4 -60 24 -50 61
8 34 30 34 61 2z m1975 -164 c0 -4 -18 -20 -41 -35 -32 -22 -46 -25 -67 -18
-38 12 -38 30 0 47 36 16 108 20 108 6z m-1412 -35 c5 -25 -12 -39 -37 -31
-20 6 -28 34 -14 49 13 13 48 1 51 -18z m-120 -78 c2 -9 -7 -26 -19 -37 l-23
-21 30 0 c39 0 56 -13 48 -34 -5 -14 -17 -16 -58 -14 l-51 3 -7 45 c-5 38 -3
48 15 63 24 21 61 19 65 -5z m1576 -145 c-8 -44 -31 -93 -43 -93 -12 0 -21 26
-21 60 0 19 9 35 28 49 38 29 44 26 36 -16z m-1479 -283 c-3 -5 -20 -10 -36
-10 -18 0 -28 4 -24 10 3 6 20 10 36 10 18 0 28 -4 24 -10z m419 -124 c-9 -24
-99 -62 -109 -45 -4 5 18 20 47 34 61 29 69 30 62 11z m-1897 -18 c46 -51 53
-104 21 -173 l-11 -25 -27 31 c-14 18 -37 34 -51 36 -44 6 -49 12 -49 53 0 35
3 40 24 40 18 0 25 7 30 30 7 37 34 40 63 8z m2679 -54 c13 -50 -29 -100 -61
-74 -19 16 -19 45 1 75 22 33 52 32 60 -1z m-1571 -244 c-9 -17 -20 -28 -25
-25 -18 11 -10 69 13 105 l22 35 3 -42 c2 -24 -4 -55 -13 -73z"/>
<path d="M435 1580 c-4 -6 -14 -10 -24 -10 -34 0 -44 -24 -27 -64 16 -39 51
-59 76 -45 43 24 44 26 16 55 -27 30 -33 44 -16 44 6 0 10 4 10 9 0 13 -28 22
-35 11z"/>
<path d="M75 1300 c-3 -5 -1 -18 4 -27 11 -19 11 -19 15 15 3 23 -8 30 -19 12z"/>
<path d="M175 307 c-8 -34 -13 -226 -7 -269 l5 -38 58 0 58 0 0 155 c1 115 -3
157 -12 160 -6 2 -31 6 -55 8 -37 5 -43 2 -47 -16z"/>
<path d="M0 156 l0 -156 40 0 c47 0 47 1 24 110 -9 41 -14 93 -11 115 2 23 -1
45 -7 50 -49 43 -46 50 -46 -119z"/>
<path d="M3168 3 c7 -3 16 -2 19 1 4 3 -2 6 -13 5 -11 0 -14 -3 -6 -6z"/>
</g>
</svg>
