<?xml version="1.0" standalone="no"?>
<!DOCTYPE svg PUBLIC "-//W3C//DTD SVG 20010904//EN"
 "http://www.w3.org/TR/2001/REC-SVG-20010904/DTD/svg10.dtd">
<svg version="1.0" xmlns="http://www.w3.org/2000/svg"
 width="480.000000pt" height="360.000000pt" viewBox="0 0 480.000000 360.000000"
 preserveAspectRatio="xMidYMid meet">
<metadata>
Created by potrace 1.16, written by Peter Selinger 2001-2019
</metadata>
<rect width="1" height="360" fill="#000000"/>
<rect x="479" width="1" height="360" fill="#000000"/>
<rect width="480" height="1" fill="#000000"/>
<rect y="359" width="480" height="1" fill="#000000"/>
<g transform="translate(0.000000,360.000000) scale(0.100000,-0.100000)"
fill="#000000" stroke="none">
<path d="M0 1800 l0 -1800 2165 0 c2216 0 2193 0 2217 35 35 53 122 165 127
165 4 0 22 20 39 44 30 41 34 43 92 49 36 3 80 0 110 -8 l50 -13 0 1664 0
1664 -359 0 -358 0 -13 -127 c-7 -71 -14 -130 -14 -132 -1 -2 13 -9 31 -15 49
-17 50 -25 4 -44 -48 -20 -44 -6 -77 -227 -37 -249 -40 -380 -15 -631 24 -236
19 -344 -21 -484 -18 -65 -21 -107 -24 -320 l-4 -245 79 -53 c104 -68 192
-151 225 -211 28 -52 26 -81 -6 -81 -34 0 -60 20 -170 127 -59 58 -113 103
-119 101 -7 -2 -21 -40 -31 -84 -52 -231 -50 -212 -34 -277 10 -37 30 -79 56
-113 22 -30 37 -54 32 -54 -5 0 -30 7 -56 16 -26 9 -49 14 -52 11 -8 -8 29
-79 83 -159 29 -43 49 -78 43 -78 -5 0 -38 27 -74 61 -66 62 -136 155 -136
183 0 36 -19 21 -41 -34 l-25 -60 -53 36 c-120 81 -240 119 -424 136 l-128 12
-82 61 c-201 150 -406 248 -550 263 -199 20 -391 -38 -621 -189 -64 -42 -82
-50 -95 -41 -9 7 -37 23 -63 37 -51 27 -90 70 -86 94 2 9 25 28 51 42 72 39
130 91 156 140 l23 44 -36 54 c-20 29 -36 57 -36 63 0 5 -4 6 -10 3 -5 -3 -8
-34 -6 -71 2 -35 0 -64 -4 -64 -10 0 -110 137 -110 153 -1 6 -7 1 -14 -12 -12
-22 -14 -21 -41 44 l-29 67 -13 -38 c-17 -47 -25 -56 -45 -49 -15 6 -22 26
-74 233 l-16 63 -24 -16 c-29 -19 -29 -17 -5 37 19 43 44 178 35 187 -2 3 -11
-5 -20 -18 -28 -39 -124 -90 -124 -64 0 3 15 34 34 67 18 34 48 88 66 121 18
33 41 71 50 85 9 14 23 36 30 49 l12 24 -61 -7 c-36 -4 -68 -3 -80 3 -10 6
-42 40 -71 77 l-52 66 -57 -6 c-146 -17 -176 -18 -195 -3 -26 19 -14 77 24
121 62 70 161 70 368 0 l106 -36 79 26 c141 47 183 89 247 252 52 129 90 193
169 276 75 80 166 153 274 222 33 20 138 115 235 211 l177 174 -1317 1 -1318
0 0 -1800z"/>
<path d="M1690 1490 c0 -8 5 -22 10 -30 9 -13 10 -13 10 0 0 8 -5 22 -10 30
-9 13 -10 13 -10 0z"/>
</g>
</svg>
