<?xml version="1.0" standalone="no"?>
<!DOCTYPE svg PUBLIC "-//W3C//DTD SVG 20010904//EN"
 "http://www.w3.org/TR/2001/REC-SVG-20010904/DTD/svg10.dtd">
<svg version="1.0" xmlns="http://www.w3.org/2000/svg"
 width="480.000000pt" height="360.000000pt" viewBox="0 0 480.000000 360.000000"
 preserveAspectRatio="xMidYMid meet">
<metadata>
Created by potrace 1.16, written by Peter Selinger 2001-2019
</metadata>
<rect width="1" height="360" fill="#000000"/>
<rect x="479" width="1" height="360" fill="#000000"/>
<rect width="480" height="1" fill="#000000"/>
<rect y="359" width="480" height="1" fill="#000000"/>
<g transform="translate(0.000000,360.000000) scale(0.100000,-0.100000)"
fill="#000000" stroke="none">
<path d="M4015 3266 c-91 -24 -166 -65 -233 -129 -88 -84 -124 -139 -127 -192
-2 -24 -6 -48 -9 -54 -4 -6 -39 -20 -79 -32 -97 -29 -121 -42 -144 -82 -15
-25 -18 -37 -9 -48 15 -19 77 -64 99 -72 16 -6 18 -14 12 -47 -6 -33 -4 -40 9
-40 13 0 15 -6 10 -27 -4 -16 -11 -35 -15 -44 -8 -15 22 -96 41 -109 4 -3 10
-17 14 -32 3 -16 13 -28 22 -28 27 0 85 -32 100 -55 14 -21 13 -25 -16 -56
-16 -18 -30 -37 -30 -42 0 -4 13 -16 30 -25 16 -9 36 -33 44 -53 8 -20 22 -39
30 -42 9 -4 16 -18 16 -31 0 -16 9 -32 25 -42 14 -9 28 -27 31 -40 7 -29 37
-47 63 -39 9 3 43 7 74 10 49 3 60 1 77 -17 11 -12 20 -26 20 -31 0 -6 -19
-34 -41 -64 -46 -59 -56 -62 -148 -39 -31 8 -117 18 -192 21 -150 8 -161 5
-214 -50 -29 -29 -40 -33 -193 -58 l-162 -27 -38 23 c-20 13 -86 50 -147 82
-60 32 -176 98 -257 147 -87 52 -156 87 -170 86 -13 -1 -56 20 -102 50 -43 29
-85 52 -92 52 -8 0 -41 24 -73 54 -66 61 -115 90 -137 82 -8 -3 -19 -17 -24
-31 -9 -25 -11 -25 -102 -21 -131 5 -180 -12 -194 -66 -6 -26 -4 -28 27 -28
l33 0 -30 -32 c-36 -40 -57 -78 -49 -86 3 -3 20 0 38 7 70 28 71 28 43 -17
-14 -23 -26 -51 -26 -62 0 -20 1 -20 38 -4 57 24 92 34 92 24 0 -5 -9 -24 -20
-43 -24 -41 -18 -71 14 -61 11 3 28 15 36 25 14 17 21 18 68 9 28 -5 62 -16
74 -24 27 -17 122 -43 191 -51 45 -6 59 -17 37 -30 -6 -3 -10 -15 -10 -25 0
-15 33 -35 143 -88 78 -38 183 -95 232 -127 50 -32 120 -78 158 -102 86 -56
127 -63 348 -63 175 0 304 9 465 31 44 7 106 9 136 5 l55 -7 7 -157 c3 -86 13
-183 20 -214 20 -84 101 -230 185 -334 24 -29 44 -82 56 -150 14 -71 53 -166
75 -179 6 -3 19 -24 30 -45 19 -37 19 -42 4 -107 -8 -39 -28 -86 -45 -110 -16
-23 -29 -46 -29 -52 0 -8 94 -11 310 -11 l310 0 0 1185 0 1185 -30 67 c-39 85
-41 161 -6 226 17 33 23 63 25 118 2 87 -13 135 -71 232 -74 124 -167 185
-354 233 -119 31 -274 40 -349 20z"/>
</g>
</svg>
