<?xml version="1.0" standalone="no"?>
<!DOCTYPE svg PUBLIC "-//W3C//DTD SVG 20010904//EN"
 "http://www.w3.org/TR/2001/REC-SVG-20010904/DTD/svg10.dtd">
<svg version="1.0" xmlns="http://www.w3.org/2000/svg"
 width="480.000000pt" height="360.000000pt" viewBox="0 0 480.000000 360.000000"
 preserveAspectRatio="xMidYMid meet">
<metadata>
Created by potrace 1.16, written by Peter Selinger 2001-2019
</metadata>
<rect width="1" height="360" fill="#000000"/>
<rect x="479" width="1" height="360" fill="#000000"/>
<rect width="480" height="1" fill="#000000"/>
<rect y="359" width="480" height="1" fill="#000000"/>
<g transform="translate(0.000000,360.000000) scale(0.100000,-0.100000)"
fill="#000000" stroke="none">
<path d="M464 3568 c4 -18 13 -112 22 -208 8 -96 21 -222 28 -280 8 -58 12
-107 10 -109 -2 -3 -15 6 -29 19 -21 20 -31 22 -72 16 -26 -4 -70 -9 -98 -13
-27 -3 -58 -12 -67 -21 -25 -21 -24 -84 2 -107 14 -13 20 -31 20 -59 0 -50 38
-130 63 -134 18 -4 18 -3 1 24 -18 27 -18 27 3 15 12 -6 30 -11 40 -11 15 0
14 4 -7 20 -24 19 -24 19 -2 13 26 -6 29 5 5 23 -11 8 -13 13 -5 14 19 0 14
18 -8 25 -11 3 -20 13 -20 20 0 16 38 45 57 45 7 0 36 -46 63 -103 27 -57 81
-147 119 -199 74 -99 78 -108 60 -108 -6 0 -29 -15 -50 -34 -42 -36 -104 -51
-144 -36 -13 5 -26 6 -30 2 -4 -4 -37 -7 -73 -7 -75 0 -120 -23 -146 -74 -20
-37 -6 -56 56 -77 28 -9 66 -31 83 -49 32 -31 65 -48 116 -59 24 -5 29 -14 44
-76 20 -82 60 -147 113 -183 86 -60 140 -59 217 4 58 48 110 76 162 88 l38 8
-30 12 c-16 7 -60 16 -98 21 -38 4 -71 11 -74 14 -6 6 15 103 28 127 5 9 25
20 46 23 21 4 87 19 146 33 101 23 107 26 102 46 -15 51 -40 72 -95 79 -28 3
-56 10 -60 15 -16 16 51 128 118 198 101 103 134 145 128 161 -3 8 6 45 20 82
21 54 25 79 21 126 -3 32 -1 70 4 84 10 27 -8 63 -21 42 -4 -7 -10 2 -13 19
-7 35 -26 41 -34 10 -3 -11 -11 -18 -19 -15 -7 3 -20 -7 -30 -22 -16 -25 -18
-25 -25 -7 -4 11 -8 14 -8 8 -1 -7 -6 -13 -13 -13 -6 0 -35 -26 -64 -59 -58
-64 -110 -88 -93 -44 9 25 12 69 2 46 -8 -22 -23 -14 -23 13 0 15 5 55 12 90
10 56 9 66 -6 82 -12 15 -14 25 -7 44 5 13 7 35 4 49 -7 36 100 191 203 293
l87 86 -393 0 -392 0 6 -32z m356 -554 c0 -23 -23 -156 -32 -186 -14 -46 -23
-48 -32 -7 -13 66 -7 114 21 157 24 37 43 53 43 36z"/>
<path d="M2910 1800 l0 -1800 571 0 570 0 -26 34 c-43 56 -51 126 -27 225 l20
84 -23 -29 c-13 -16 -26 -26 -30 -22 -4 4 -19 -1 -32 -12 -13 -10 -31 -16 -39
-13 -8 3 -14 -1 -14 -8 0 -10 -3 -10 -11 -2 -6 6 -17 9 -24 7 -7 -3 -15 6 -19
20 -3 14 -10 26 -14 26 -15 0 -6 184 11 217 10 18 17 43 17 56 0 33 30 118 49
141 9 10 62 57 118 103 92 75 107 92 137 156 31 63 33 73 21 88 -13 14 -12 18
11 40 54 49 91 120 99 189 9 76 19 100 43 100 18 0 80 -20 98 -32 6 -4 26 -1
43 8 42 21 98 4 107 -32 4 -14 21 -35 40 -48 38 -25 92 -89 105 -125 12 -30
-6 -87 -31 -101 -11 -6 -36 -40 -56 -76 -34 -62 -39 -66 -65 -60 -33 6 -33 7
-19 -28 6 -18 27 -34 64 -51 30 -14 62 -35 70 -46 12 -17 21 -20 43 -15 15 4
40 10 56 13 l27 5 0 1394 0 1394 -945 0 -945 0 0 -1800z"/>
<path d="M4767 427 c1 -62 9 -152 16 -202 l14 -90 2 192 c1 174 -1 193 -16
202 -17 8 -18 1 -16 -102z"/>
<path d="M4220 35 l-34 -35 47 0 c49 0 57 11 41 54 -9 23 -16 20 -54 -19z"/>
</g>
</svg>
