<?xml version="1.0" standalone="no"?>
<!DOCTYPE svg PUBLIC "-//W3C//DTD SVG 20010904//EN"
 "http://www.w3.org/TR/2001/REC-SVG-20010904/DTD/svg10.dtd">
<svg version="1.0" xmlns="http://www.w3.org/2000/svg"
 width="480.000000pt" height="360.000000pt" viewBox="0 0 480.000000 360.000000"
 preserveAspectRatio="xMidYMid meet">
<metadata>
Created by potrace 1.16, written by Peter Selinger 2001-2019
</metadata>
<rect width="1" height="360" fill="#000000"/>
<rect x="479" width="1" height="360" fill="#000000"/>
<rect width="480" height="1" fill="#000000"/>
<rect y="359" width="480" height="1" fill="#000000"/>
<g transform="translate(0.000000,360.000000) scale(0.100000,-0.100000)"
fill="#000000" stroke="none">
<path d="M0 1800 l0 -1800 1340 0 c939 0 1340 3 1340 11 0 18 -50 211 -72 279
-12 36 -34 92 -50 125 -27 59 -36 117 -20 143 11 16 149 -102 236 -201 32 -37
62 -65 66 -62 5 3 10 -1 13 -7 3 -10 10 -8 25 5 27 25 55 15 82 -28 12 -20 40
-43 63 -55 23 -11 50 -25 59 -32 14 -10 20 -9 36 5 14 13 21 14 30 5 16 -16
15 -43 -3 -58 -8 -7 -15 -21 -15 -31 0 -20 15 -25 25 -9 14 22 25 8 25 -31 0
-22 4 -38 9 -34 6 3 14 -2 19 -12 16 -28 42 36 42 102 0 99 -51 168 -186 250
-81 49 -105 71 -98 90 4 10 -249 269 -294 301 -19 13 -21 23 -19 104 2 76 5
91 22 104 18 14 23 12 57 -22 45 -42 50 -39 77 43 18 55 18 61 3 73 -9 6 -31
12 -49 12 -28 0 -35 5 -48 37 -9 20 -34 61 -57 91 -39 50 -71 133 -61 158 4
11 132 64 204 84 18 5 68 14 113 21 44 6 87 15 94 21 6 6 15 28 18 50 8 47 37
68 63 44 16 -14 22 -11 74 42 46 46 57 64 57 90 0 52 -25 100 -65 123 -21 13
-46 40 -60 68 -13 25 -33 57 -43 70 l-19 24 -36 -22 c-84 -52 -123 -154 -76
-197 11 -10 25 -27 31 -38 9 -17 7 -18 -15 -12 -16 4 -44 -3 -79 -18 -71 -32
-230 -87 -235 -83 -2 2 4 21 13 42 24 59 17 193 -13 234 -13 16 -23 39 -23 51
0 11 -9 28 -19 37 -20 16 -20 17 0 41 18 24 27 91 13 105 -4 3 -24 -3 -45 -14
l-39 -19 -4 22 c-3 13 -9 55 -15 94 -22 150 -66 229 -114 207 -12 -6 -37 -23
-56 -38 -31 -27 -39 -28 -129 -29 -54 -1 -104 -5 -113 -9 -10 -5 -28 2 -54 23
-56 44 -83 49 -111 17 -12 -14 -30 -47 -40 -74 -10 -26 -31 -66 -46 -87 -15
-21 -28 -47 -28 -57 0 -34 -19 -29 -55 16 -21 25 -41 42 -46 39 -17 -10 -9
-90 16 -167 14 -43 23 -82 20 -88 -4 -5 -22 -7 -41 -3 -27 5 -34 3 -34 -10 0
-23 30 -67 41 -61 8 6 69 -21 69 -30 0 -13 -35 -35 -55 -35 -61 0 -25 -71 38
-75 44 -2 62 -19 99 -95 14 -30 47 -79 72 -108 25 -30 46 -57 46 -61 0 -3 -7
-16 -15 -29 -9 -12 -18 -45 -21 -74 -9 -95 -9 -94 -95 -142 -45 -25 -84 -46
-86 -46 -3 0 -28 -14 -56 -31 l-50 -31 5 1231 5 1231 -828 0 -829 0 0 -1800z
m2604 -105 c0 -44 -28 -95 -51 -95 -11 0 -13 6 -8 23 3 12 9 44 12 70 5 42 8
48 27 45 18 -3 21 -10 20 -43z m-147 -127 c-3 -8 -6 -5 -6 6 -1 11 2 17 5 13
3 -3 4 -12 1 -19z m-647 -440 c-34 -60 -95 -183 -159 -318 -9 -20 -10 2 -6
108 l6 133 -25 -16 c-47 -31 -135 -159 -192 -280 -31 -66 -57 -121 -58 -122
-1 -1 -11 0 -23 3 -20 6 -20 8 -7 39 9 23 10 36 4 40 -12 7 69 164 130 255 39
57 141 160 159 160 5 0 11 -15 13 -34 l3 -34 95 69 c52 37 96 68 98 69 1 0
-16 -33 -38 -72z m102 -49 c-74 -160 -116 -307 -162 -566 -34 -197 -38 -258
-15 -249 8 3 15 2 15 -2 0 -4 -25 -56 -54 -117 l-54 -110 -2 130 c-1 117 -2
127 -14 100 l-13 -30 -14 28 c-11 24 -18 28 -40 23 -31 -6 -39 6 -39 58 0 32
94 366 111 396 5 9 9 -68 9 -189 0 -112 2 -202 4 -200 2 2 20 74 40 159 66
286 139 478 244 650 31 50 21 1 -16 -81z m105 -159 c-8 -126 -83 -376 -131
-435 -15 -19 -16 -16 -10 45 10 110 44 286 75 393 37 122 38 125 56 101 12
-15 14 -39 10 -104z"/>
</g>
</svg>
