<?xml version="1.0" standalone="no"?>
<!DOCTYPE svg PUBLIC "-//W3C//DTD SVG 20010904//EN"
 "http://www.w3.org/TR/2001/REC-SVG-20010904/DTD/svg10.dtd">
<svg version="1.0" xmlns="http://www.w3.org/2000/svg"
 width="480.000000pt" height="360.000000pt" viewBox="0 0 480.000000 360.000000"
 preserveAspectRatio="xMidYMid meet">
<metadata>
Created by potrace 1.16, written by Peter Selinger 2001-2019
</metadata>
<rect width="1" height="360" fill="#000000"/>
<rect x="479" width="1" height="360" fill="#000000"/>
<rect width="480" height="1" fill="#000000"/>
<rect y="359" width="480" height="1" fill="#000000"/>
<g transform="translate(0.000000,360.000000) scale(0.100000,-0.100000)"
fill="#000000" stroke="none">
<path d="M0 2610 l0 -991 48 27 c168 97 273 175 421 315 51 49 102 89 113 89
10 0 42 -12 71 -26 29 -15 104 -49 167 -76 63 -27 173 -81 244 -120 207 -115
231 -123 366 -123 88 0 133 6 191 22 l76 22 62 -20 c101 -31 98 -32 190 91 86
115 125 148 226 194 88 40 95 48 82 99 -12 50 -25 70 -43 63 -7 -3 -15 6 -18
20 -7 26 -24 32 -31 12 -2 -7 -7 -43 -10 -81 -4 -37 -11 -65 -16 -61 -5 3 -6
17 -3 32 5 18 3 24 -4 17 -5 -5 -12 -19 -15 -30 -3 -11 -6 14 -7 55 l-2 75
-17 -67 c-10 -37 -20 -70 -23 -73 -3 -3 -8 30 -12 72 -8 98 -24 162 -36 142
-7 -10 -13 -3 -26 26 -16 40 -16 40 -31 18 -23 -34 -35 -28 -27 12 7 40 5 41
-37 19 -17 -8 -33 -14 -35 -12 -2 2 14 28 36 57 22 29 40 59 40 67 0 22 -31
30 -45 11 -15 -21 -38 -22 -73 -3 -15 7 -40 18 -57 22 -45 14 -42 38 9 74 24
18 63 57 86 88 38 52 41 60 36 102 -17 133 -17 158 -2 223 34 145 96 218 217
257 62 20 83 22 172 17 61 -4 135 -2 185 5 93 14 193 2 268 -32 56 -24 123
-93 153 -158 l24 -51 27 30 c16 16 37 29 47 29 34 0 118 -49 167 -97 54 -53
81 -107 91 -180 4 -26 14 -63 21 -82 20 -48 18 -59 -16 -76 -16 -9 -30 -21
-30 -28 0 -6 -7 -24 -15 -40 -12 -24 -12 -33 4 -80 11 -30 29 -111 41 -182 17
-100 19 -129 10 -135 -7 -5 -10 -15 -7 -23 7 -18 -51 -192 -75 -227 -12 -16
-18 -19 -19 -10 0 8 -5 3 -11 -13 -5 -15 -14 -25 -19 -21 -5 3 -10 -5 -10 -18
-1 -20 -2 -21 -6 -3 -9 36 -24 47 -38 28 -10 -14 -13 -9 -20 33 -6 42 -9 46
-16 27 -13 -36 -29 -27 -29 16 0 21 -13 82 -30 136 -23 75 -30 117 -30 180 0
60 -4 84 -13 88 -21 8 -39 -7 -31 -26 4 -13 1 -17 -14 -17 -18 0 -20 -3 -11
-32 l9 -32 -34 33 c-34 33 -34 33 -45 12 -7 -11 -16 -20 -22 -18 -13 3 -49
-88 -49 -123 0 -14 -4 -31 -9 -39 -7 -11 -11 -8 -17 10 -7 21 -11 15 -31 -46
l-23 -70 4 65 c5 71 -7 48 -19 -37 l-6 -48 61 -23 c81 -32 153 -100 215 -203
27 -46 51 -86 52 -88 2 -3 37 3 77 13 73 19 74 19 155 -3 187 -51 287 -38 466
60 145 79 455 223 528 246 12 4 50 -27 135 -109 155 -151 200 -185 435 -327
l37 -23 0 1021 0 1021 -2400 0 -2400 0 0 -990z"/>
<path d="M2910 2554 c-24 -54 -29 -75 -23 -97 8 -30 57 -67 70 -53 12 12 9
194 -4 207 -9 9 -19 -5 -43 -57z"/>
<path d="M2599 2182 c-43 -44 -65 -98 -48 -118 11 -13 70 -46 74 -42 3 4 14
198 12 198 -1 0 -18 -17 -38 -38z"/>
<path d="M3178 2024 c-5 -4 -8 -16 -8 -28 0 -14 3 -17 11 -9 6 6 9 19 7 28 -1
9 -6 13 -10 9z"/>
<path d="M584 1933 c-7 -2 -31 -27 -54 -54 -31 -37 -40 -53 -31 -62 6 -6 11
-22 11 -36 0 -13 7 -32 15 -41 18 -20 39 -135 28 -153 -23 -40 -216 -307 -228
-317 -24 -20 -26 1 -16 200 5 102 8 186 6 188 -1 2 -35 -18 -74 -43 -56 -36
-71 -51 -71 -70 0 -14 4 -25 10 -25 11 0 40 -92 40 -127 0 -13 -45 -84 -110
-173 l-110 -149 0 -536 0 -535 876 2 876 3 29 79 c16 43 43 131 60 195 39 148
69 233 124 349 36 76 44 103 43 145 -1 29 2 97 7 153 9 109 -1 234 -16 199 -4
-11 -22 -55 -39 -97 -43 -105 -94 -159 -248 -261 -262 -173 -358 -229 -422
-242 -19 -4 -84 -28 -145 -53 -100 -42 -117 -46 -185 -45 -50 1 -99 10 -147
26 -135 46 -207 105 -122 100 163 -9 184 -8 267 21 83 28 112 46 112 71 0 10
-12 13 -42 12 -37 -2 -43 1 -43 18 0 13 12 26 35 37 44 22 175 24 224 4 41
-17 23 -28 256 159 96 77 193 151 215 164 22 14 42 26 44 27 1 2 9 39 17 82 8
44 25 117 40 162 14 45 24 83 22 84 -2 1 -15 10 -30 19 -35 22 -35 42 -1 71
25 22 26 24 10 47 -9 13 -17 38 -17 55 0 30 -2 32 -46 38 -52 7 -124 8 -124 2
0 -2 16 -27 35 -56 46 -68 50 -88 36 -168 -24 -138 -60 -295 -70 -305 -16 -16
-23 -4 -70 123 -23 63 -51 137 -62 164 -10 27 -19 61 -19 76 0 35 26 109 46
131 9 10 13 23 9 28 -7 12 -213 15 -251 5 l-22 -6 19 -61 c10 -34 19 -70 19
-80 0 -17 -170 -330 -191 -352 -20 -21 -28 17 -39 199 l-12 188 36 52 c19 28
44 57 56 64 11 7 20 18 20 26 0 18 -143 112 -217 141 -53 22 -59 23 -64 7 -4
-9 -3 -24 2 -32 4 -9 11 -44 15 -78 l7 -63 -103 -152 c-123 -181 -130 -191
-143 -178 -6 6 -7 85 -2 205 l7 196 40 50 c21 27 48 52 58 55 11 4 20 13 20
20 0 16 -189 114 -206 108z"/>
<path d="M4076 1852 c-79 -40 -88 -47 -71 -56 11 -6 43 -33 72 -61 l53 -50 40
-210 c55 -284 54 -275 44 -275 -18 0 -34 19 -172 201 l-140 186 -8 71 c-4 49
-3 76 5 86 18 21 3 48 -23 40 -82 -24 -246 -124 -246 -150 0 -7 8 -18 18 -23
9 -5 36 -32 60 -60 l42 -50 20 -198 c11 -109 23 -219 26 -244 4 -28 2 -49 -4
-53 -15 -9 -44 33 -167 237 l-107 178 4 72 c2 40 7 79 12 88 10 22 -29 29
-160 29 -95 0 -122 -7 -94 -25 6 -4 24 -36 40 -73 l30 -66 -46 -230 c-25 -127
-49 -234 -52 -238 -20 -21 -40 29 -93 237 l-58 227 21 56 c11 31 29 66 39 78
11 11 19 23 19 27 0 4 -34 7 -75 7 -56 0 -85 -5 -112 -20 -21 -11 -43 -20 -50
-20 -7 0 -13 -3 -13 -7 0 -16 51 -91 65 -97 23 -8 9 -26 -20 -26 -33 0 -35 -7
-20 -75 8 -33 25 -136 40 -230 16 -104 39 -211 60 -275 30 -92 100 -406 166
-747 l22 -113 778 0 779 0 0 578 0 577 -90 74 c-87 72 -91 76 -111 142 -11 38
-18 73 -14 79 3 5 3 30 0 55 -6 37 -13 48 -42 65 -20 11 -37 19 -38 18 -2 -2
20 -82 50 -178 63 -208 70 -240 56 -240 -13 0 -331 343 -349 375 -22 42 -16
211 8 240 10 12 4 24 -30 65 -23 27 -49 50 -58 49 -10 -1 -57 -22 -106 -47z"/>
<path d="M28 1524 c-17 -9 -28 -23 -28 -36 0 -20 3 -19 35 12 47 46 45 53 -7
24z"/>
<path d="M2780 983 c1 -5 7 -53 14 -108 9 -71 10 -105 2 -117 -8 -13 -5 -26
11 -55 42 -76 113 -254 138 -350 49 -182 76 -264 85 -258 6 4 10 30 10 60 0
42 -17 101 -80 274 -81 224 -114 332 -146 479 -9 45 -21 82 -26 82 -4 0 -8 -3
-8 -7z"/>
</g>
</svg>
