<?xml version="1.0" standalone="no"?>
<!DOCTYPE svg PUBLIC "-//W3C//DTD SVG 20010904//EN"
 "http://www.w3.org/TR/2001/REC-SVG-20010904/DTD/svg10.dtd">
<svg version="1.0" xmlns="http://www.w3.org/2000/svg"
 width="480.000000pt" height="360.000000pt" viewBox="0 0 480.000000 360.000000"
 preserveAspectRatio="xMidYMid meet">
<metadata>
Created by potrace 1.16, written by Peter Selinger 2001-2019
</metadata>
<rect width="1" height="360" fill="#000000"/>
<rect x="479" width="1" height="360" fill="#000000"/>
<rect width="480" height="1" fill="#000000"/>
<rect y="359" width="480" height="1" fill="#000000"/>
<g transform="translate(0.000000,360.000000) scale(0.100000,-0.100000)"
fill="#000000" stroke="none">
<path d="M3946 3474 c-44 -22 -175 -118 -227 -167 -25 -23 -111 -104 -190
-179 -158 -150 -205 -189 -324 -268 -111 -75 -162 -114 -217 -166 -38 -36 -51
-44 -72 -38 -23 5 -24 9 -19 59 5 48 3 56 -20 79 -25 25 -59 32 -91 20 -12 -5
-13 -9 -3 -25 10 -15 9 -25 -3 -47 -15 -26 -19 -27 -125 -33 -61 -3 -121 -10
-135 -16 -42 -18 -154 -68 -180 -81 -24 -12 -24 -12 8 -7 17 2 32 3 32 1 0 -2
-25 -23 -56 -46 -30 -23 -53 -44 -50 -48 4 -3 12 0 18 6 25 25 26 10 3 -34
-20 -37 -25 -62 -25 -115 0 -65 9 -85 26 -57 9 14 22 -15 23 -50 1 -21 -3 -23
-36 -20 -37 3 -37 3 -53 70 -28 114 -110 213 -211 256 -68 29 -108 33 -182 17
-88 -18 -101 -11 -153 92 -53 105 -128 180 -224 225 -101 48 -168 61 -282 56
-83 -3 -104 -8 -163 -37 -176 -87 -301 -296 -312 -526 -9 -164 32 -274 139
-371 119 -109 316 -166 453 -130 32 8 62 13 65 10 3 -3 -30 -39 -73 -80 -69
-65 -77 -76 -67 -94 9 -18 5 -27 -29 -67 -44 -49 -52 -80 -24 -90 12 -5 27 6
53 35 40 48 67 53 98 19 28 -30 28 -39 -3 -75 -21 -25 -22 -31 -10 -36 8 -3
20 -17 25 -31 5 -14 17 -25 28 -25 17 0 21 -13 31 -107 20 -177 31 -230 61
-275 15 -24 31 -57 35 -75 4 -19 14 -35 26 -38 31 -10 27 -96 -6 -129 -23 -23
-25 -33 -25 -106 0 -71 3 -82 23 -100 18 -16 22 -27 19 -65 -3 -37 -9 -49 -28
-57 -26 -12 -38 -46 -50 -136 -6 -45 -4 -58 14 -81 18 -25 19 -34 10 -70 -8
-30 -17 -43 -33 -47 -25 -6 -62 -79 -72 -140 -5 -33 -4 -34 26 -34 19 0 30 4
26 10 -3 5 -1 28 6 50 11 36 15 40 45 40 l32 0 -13 -50 c-13 -49 -13 -50 10
-50 19 0 26 9 39 47 21 61 20 76 -4 98 -23 21 -24 26 -9 78 8 29 18 41 39 48
32 12 37 25 46 127 6 66 5 72 -18 94 -21 20 -24 30 -20 71 3 40 8 50 33 63 26
13 29 20 30 67 2 114 -7 157 -35 157 -10 0 -15 16 -18 52 -3 45 0 55 22 75 13
12 48 27 80 34 30 6 108 29 173 51 66 22 121 37 124 35 2 -3 -2 -25 -11 -49
-25 -75 -28 -155 -11 -278 45 -333 55 -501 30 -534 -8 -11 -15 -30 -15 -42 0
-11 -14 -38 -30 -59 -16 -21 -30 -42 -30 -46 0 -5 -16 -23 -35 -40 -19 -18
-35 -36 -35 -41 0 -4 330 -8 734 -8 l735 0 6 47 c10 77 14 82 36 43 11 -19 17
-26 14 -15 -25 75 -11 114 19 58 20 -36 21 -21 1 16 -13 27 -12 32 21 87 93
154 107 208 80 313 -20 78 -63 151 -154 258 -61 72 -70 88 -76 135 -4 29 -18
108 -31 176 -14 68 -25 158 -26 200 -1 100 24 314 56 472 38 188 32 173 54
153 10 -10 21 -28 25 -40 10 -32 36 -37 63 -12 12 13 23 28 23 36 0 7 7 13 15
13 8 0 15 8 15 18 0 9 9 23 19 29 20 13 91 148 91 174 0 8 5 20 11 26 17 17
49 161 49 222 0 102 -42 149 -155 170 -62 12 -128 -7 -190 -54 -35 -27 -51
-34 -71 -29 -14 4 -24 10 -22 14 2 5 70 76 151 159 l148 151 29 -15 c49 -25
111 -19 156 15 21 16 67 39 102 51 47 16 62 25 62 40 0 18 -65 89 -82 89 -19
0 -6 20 16 26 14 3 32 14 41 24 15 17 14 19 -11 39 -15 11 -37 21 -50 21 -13
0 -24 5 -24 11 0 13 153 220 222 300 62 73 63 84 4 53z m-1699 -1316 c-3 -8
-6 -5 -6 6 -1 11 2 17 5 13 3 -3 4 -12 1 -19z m-25 -198 c-5 -44 7 -67 43 -84
20 -10 35 -24 35 -34 0 -9 -21 -84 -46 -167 -25 -82 -48 -160 -51 -173 -3 -12
-20 -30 -37 -39 -17 -8 -38 -21 -46 -28 -8 -6 -80 -33 -160 -60 -80 -26 -176
-60 -213 -76 -48 -20 -69 -25 -72 -16 -2 6 -14 62 -25 124 l-22 112 29 25 28
24 -26 21 c-32 25 -65 130 -50 158 5 10 13 35 16 56 3 20 9 37 12 37 4 0 27
-10 52 -22 39 -20 62 -23 151 -23 99 0 110 2 172 33 62 30 168 127 168 154 0
5 10 8 23 6 17 -2 21 -9 19 -28z m188 -330 c-16 -31 -23 -19 -9 16 6 16 13 24
16 17 2 -7 -1 -22 -7 -33z m-818 -923 c-3 -39 -7 -46 -18 -37 -7 7 -22 9 -34
5 -19 -6 -20 -2 -20 60 0 64 1 65 24 59 15 -3 27 -1 32 8 12 19 21 -36 16 -95z
m1197 -8 c31 -135 44 -260 42 -399 -2 -160 -3 -164 -42 -145 -17 9 -31 27 -35
43 -4 15 -15 36 -26 48 -16 18 -19 43 -25 165 -6 148 3 238 33 332 9 26 19 47
24 47 4 0 18 -41 29 -91z m-1223 -313 c-7 -51 -7 -52 -41 -52 -33 0 -35 2 -35
36 0 61 9 81 35 74 13 -3 26 0 31 7 13 21 17 -6 10 -65z m1224 -271 c7 -9 10
-18 7 -22 -8 -7 -37 15 -37 28 0 14 16 11 30 -6z m-830 -30 c0 -16 -6 -25 -15
-25 -18 0 -18 5 -5 31 14 26 20 24 20 -6z"/>
</g>
</svg>
