<?xml version="1.0" standalone="no"?>
<!DOCTYPE svg PUBLIC "-//W3C//DTD SVG 20010904//EN"
 "http://www.w3.org/TR/2001/REC-SVG-20010904/DTD/svg10.dtd">
<svg version="1.0" xmlns="http://www.w3.org/2000/svg"
 width="480.000000pt" height="360.000000pt" viewBox="0 0 480.000000 360.000000"
 preserveAspectRatio="xMidYMid meet">
<metadata>
Created by potrace 1.16, written by Peter Selinger 2001-2019
</metadata>
<rect width="1" height="360" fill="#000000"/>
<rect x="479" width="1" height="360" fill="#000000"/>
<rect width="480" height="1" fill="#000000"/>
<rect y="359" width="480" height="1" fill="#000000"/>
<g transform="translate(0.000000,360.000000) scale(0.100000,-0.100000)"
fill="#000000" stroke="none">
<path d="M0 1800 l0 -1800 898 0 898 0 18 56 c10 31 44 125 75 209 53 140 56
153 40 163 -16 10 -50 100 -64 170 -4 21 1 70 15 130 12 53 23 107 26 118 2
14 18 27 43 38 54 21 168 38 203 31 30 -7 87 10 100 29 17 24 7 93 -22 154
-16 35 -70 121 -120 191 -49 70 -96 144 -105 164 -19 45 -19 134 0 167 16 29
20 106 5 115 -5 3 -10 15 -10 27 0 35 -33 135 -38 113 -6 -32 -19 -39 -27 -15
-4 12 -12 19 -18 17 -7 -2 -17 1 -22 7 -11 13 -12 81 -2 112 4 11 9 59 11 106
3 47 7 105 11 129 6 40 4 47 -24 73 -31 30 -40 56 -20 56 7 0 9 12 5 35 -6 29
-3 36 16 49 13 8 38 17 56 21 36 8 41 24 12 43 -29 18 -25 31 22 79 45 46 79
55 114 28 28 -21 52 -18 59 8 11 33 52 85 75 92 10 3 37 1 58 -5 33 -8 41 -15
46 -42 l6 -32 30 32 c16 18 38 32 49 32 18 0 71 -52 71 -70 0 -5 20 -8 44 -7
35 2 50 -3 71 -23 26 -24 27 -27 20 -105 -6 -73 -5 -82 14 -99 l21 -19 -21
-33 c-20 -32 -20 -36 -5 -77 9 -23 20 -63 26 -88 5 -25 12 -54 16 -65 7 -19 7
-19 -14 0 -12 11 -24 17 -27 15 -12 -13 -7 -137 7 -164 9 -17 19 -41 23 -55 6
-20 5 -23 -6 -12 -22 20 -31 14 -24 -18 9 -40 -9 -39 -26 2 l-13 31 -9 -29
c-18 -60 -19 -61 -27 -39 -7 18 -10 15 -25 -19 -19 -45 -18 -46 70 -103 22
-14 75 -60 117 -101 76 -73 78 -75 98 -57 19 17 21 17 55 -14 20 -17 46 -31
60 -31 18 0 25 -7 30 -29 3 -15 5 -34 3 -42 -2 -8 7 -15 22 -17 31 -5 60 -30
60 -52 0 -10 6 -23 14 -29 21 -18 29 -66 15 -89 -10 -16 -9 -24 8 -48 48 -69
55 -93 43 -145 -10 -39 -21 -57 -61 -90 -53 -44 -114 -65 -136 -47 -15 12 -17
74 -3 83 11 7 40 70 40 87 0 5 -3 7 -8 4 -17 -10 -105 57 -125 97 -10 19 -12
9 -14 -70 -3 -85 -1 -93 16 -93 23 0 31 -19 25 -60 -3 -18 0 -38 7 -46 10 -13
9 -22 -5 -49 -18 -33 -18 -33 9 -76 14 -24 42 -63 61 -87 36 -46 44 -88 19
-106 -13 -10 -13 -17 0 -66 25 -91 16 -140 -20 -110 -12 10 -16 7 -24 -13 -14
-36 -30 -42 -40 -15 -8 20 -10 21 -16 5 -4 -10 6 -73 24 -145 26 -106 51 -235
51 -264 0 -5 421 -8 935 -8 l935 0 0 1800 0 1800 -2400 0 -2400 0 0 -1800z"/>
<path d="M2060 1720 c0 -13 5 -20 13 -17 6 2 12 10 12 17 0 7 -6 15 -12 18 -8
2 -13 -5 -13 -18z"/>
</g>
</svg>
