<?xml version="1.0" standalone="no"?>
<!DOCTYPE svg PUBLIC "-//W3C//DTD SVG 20010904//EN"
 "http://www.w3.org/TR/2001/REC-SVG-20010904/DTD/svg10.dtd">
<svg version="1.0" xmlns="http://www.w3.org/2000/svg"
 width="480.000000pt" height="360.000000pt" viewBox="0 0 480.000000 360.000000"
 preserveAspectRatio="xMidYMid meet">
<metadata>
Created by potrace 1.16, written by Peter Selinger 2001-2019
</metadata>
<rect width="1" height="360" fill="#000000"/>
<rect x="479" width="1" height="360" fill="#000000"/>
<rect width="480" height="1" fill="#000000"/>
<rect y="359" width="480" height="1" fill="#000000"/>
<g transform="translate(0.000000,360.000000) scale(0.100000,-0.100000)"
fill="#000000" stroke="none">
<path d="M0 1800 l0 -1800 656 0 655 0 -6 103 c-8 122 13 280 49 372 13 33 27
80 31 105 29 189 81 294 240 477 l105 122 -20 73 c-11 40 -40 168 -65 283 -86
392 -123 511 -192 613 -59 87 -130 130 -323 197 -241 84 -367 172 -435 305
-31 61 -78 253 -78 315 0 106 73 203 172 232 151 43 432 -43 641 -199 88 -65
239 -220 318 -327 124 -167 182 -291 231 -494 35 -146 42 -185 90 -525 21
-144 40 -265 43 -267 3 -3 50 2 104 11 116 20 341 15 439 -10 33 -9 63 -15 67
-16 3 0 9 26 12 58 72 702 102 814 246 944 245 223 825 272 1125 95 38 -22 92
-61 118 -86 90 -84 176 -254 163 -324 -3 -18 -8 -48 -11 -67 -15 -86 -9 -80
-78 -80 -34 0 -91 7 -127 15 -36 8 -130 26 -210 40 -80 14 -162 30 -183 36
-22 6 -71 16 -110 23 -93 17 -153 33 -256 67 -93 31 -106 29 -140 -19 -40 -56
-70 -180 -121 -497 -28 -176 -56 -337 -61 -358 -9 -36 -7 -42 33 -98 24 -34
78 -102 121 -151 112 -130 151 -192 170 -273 10 -38 37 -119 61 -180 61 -153
67 -246 30 -472 l-7 -43 652 0 651 0 0 1800 0 1800 -2400 0 -2400 0 0 -1800z"/>
</g>
</svg>
