<?xml version="1.0" standalone="no"?>
<!DOCTYPE svg PUBLIC "-//W3C//DTD SVG 20010904//EN"
 "http://www.w3.org/TR/2001/REC-SVG-20010904/DTD/svg10.dtd">
<svg version="1.0" xmlns="http://www.w3.org/2000/svg"
 width="480.000000pt" height="360.000000pt" viewBox="0 0 480.000000 360.000000"
 preserveAspectRatio="xMidYMid meet">
<metadata>
Created by potrace 1.16, written by Peter Selinger 2001-2019
</metadata>
<rect width="1" height="360" fill="#000000"/>
<rect x="479" width="1" height="360" fill="#000000"/>
<rect width="480" height="1" fill="#000000"/>
<rect y="359" width="480" height="1" fill="#000000"/>
<g transform="translate(0.000000,360.000000) scale(0.100000,-0.100000)"
fill="#000000" stroke="none">
<path d="M4788 3395 c-11 -311 -44 -511 -123 -755 l-44 -135 12 -105 c7 -62
11 -205 9 -350 l-3 -246 77 -52 c42 -29 78 -51 80 -49 2 2 3 431 2 953 -2 637
-5 880 -10 739z"/>
<path d="M0 1636 l0 -1636 1845 0 c1015 0 1845 4 1845 8 0 4 -20 28 -45 52
-25 25 -71 77 -101 117 l-55 71 -9 129 c-5 70 -9 155 -9 188 l0 60 23 -62 c13
-33 38 -82 57 -109 36 -50 105 -111 115 -102 3 3 -8 30 -25 59 -32 57 -81 213
-81 257 0 23 4 20 35 -27 19 -29 43 -60 54 -69 10 -10 41 -46 69 -82 61 -78
185 -201 228 -225 31 -17 33 -17 83 5 43 20 55 32 76 74 43 90 58 176 53 321
-5 117 -9 141 -43 243 -113 336 -413 686 -684 796 -168 68 -328 63 -481 -14
l-57 -29 -86 35 c-189 75 -248 88 -407 88 -159 0 -219 -13 -414 -91 l-88 -35
-67 31 c-36 16 -97 38 -136 47 -164 38 -359 -19 -546 -161 -33 -25 -61 -45
-62 -45 -2 0 -1 14 1 31 4 25 -1 36 -19 50 -33 26 -39 24 -40 -13 -1 -18 -4
-44 -9 -58 l-7 -25 -8 30 c-33 135 -59 197 -54 130 5 -63 0 -83 -23 -88 -13
-4 -26 -1 -30 6 -14 21 -9 -1 12 -54 12 -28 19 -54 16 -56 -4 -4 -58 63 -116
145 -17 23 -34 41 -38 38 -6 -4 -38 52 -85 151 -6 13 -12 21 -15 18 -3 -2 1
-11 8 -20 26 -31 2 -23 -44 15 -27 22 -59 43 -72 46 -13 3 -24 14 -24 23 -1
26 -29 -30 -30 -59 -1 -40 -11 -70 -22 -64 -6 4 -14 0 -19 -7 -14 -23 -18 -6
-29 116 -6 65 -19 154 -30 198 -11 44 -20 82 -20 85 0 3 -9 -3 -20 -13 -22
-20 -26 -9 -8 30 8 18 8 29 1 36 -8 8 -19 -4 -40 -46 l-29 -57 -17 39 c-35 81
-60 222 -54 310 2 45 2 81 -2 79 -31 -18 -164 -76 -168 -73 -3 4 48 90 132
222 58 91 92 151 100 176 4 13 18 40 31 59 31 44 30 56 -3 72 -15 7 -62 56
-104 108 -75 94 -133 143 -183 156 l-26 6 0 -1636z m1600 -226 c14 -9 13 -11
-59 -67 -38 -29 -27 7 17 60 17 19 21 20 42 7z m-841 -270 c-39 -67 -44 -71
-56 -54 -25 34 -12 66 41 102 27 18 51 30 53 28 3 -2 -14 -37 -38 -76z m607
-189 c-25 -28 -64 -124 -102 -253 -19 -67 -42 -134 -50 -151 -9 -16 -14 -31
-11 -33 9 -9 64 75 115 176 54 109 61 116 38 39 -8 -25 -22 -100 -31 -165 -10
-65 -30 -156 -46 -201 -15 -46 -25 -83 -21 -83 4 0 31 25 60 57 l53 58 -7 -35
c-8 -42 -27 -70 -88 -130 -28 -27 -49 -40 -55 -35 -5 6 -25 61 -46 123 -20 62
-42 117 -49 123 -6 5 -22 17 -35 28 -43 32 -34 76 35 178 32 48 61 90 64 93
10 9 117 183 142 230 41 78 43 79 46 37 2 -25 -2 -45 -12 -56z"/>
<path d="M4627 1453 c-3 -15 -11 -62 -17 -103 -6 -41 -29 -129 -50 -195 -21
-66 -51 -166 -66 -222 -25 -93 -26 -106 -14 -148 12 -41 78 -141 137 -205 12
-13 21 -25 19 -27 -1 -1 -34 6 -72 16 -38 11 -70 18 -72 16 -11 -11 59 -142
122 -229 97 -133 93 -130 144 -106 l42 20 0 541 0 541 -57 59 c-32 31 -70 61
-85 64 -23 6 -27 3 -31 -22z"/>
<path d="M4364 503 c-8 -21 -21 -51 -29 -68 -7 -16 -16 -41 -20 -55 -13 -44
-104 -239 -136 -290 l-31 -50 -26 19 c-15 11 -48 39 -74 64 l-47 45 -6 -56
c-3 -31 -9 -69 -11 -84 l-6 -28 195 0 195 0 70 54 c58 45 105 76 222 144 13 8
12 11 -2 25 -9 10 -20 17 -25 17 -10 0 -159 150 -164 165 -12 33 -73 135 -81
135 -5 0 -16 -17 -24 -37z"/>
<path d="M4570 79 c-30 -11 -74 -28 -97 -39 -24 -11 -47 -20 -52 -20 -6 0 -13
-5 -16 -10 -4 -7 63 -10 194 -10 l201 0 0 44 0 43 -46 7 c-75 10 -125 6 -184
-15z"/>
</g>
</svg>
