<?xml version="1.0" standalone="no"?>
<!DOCTYPE svg PUBLIC "-//W3C//DTD SVG 20010904//EN"
 "http://www.w3.org/TR/2001/REC-SVG-20010904/DTD/svg10.dtd">
<svg version="1.0" xmlns="http://www.w3.org/2000/svg"
 width="480.000000pt" height="360.000000pt" viewBox="0 0 480.000000 360.000000"
 preserveAspectRatio="xMidYMid meet">
<metadata>
Created by potrace 1.16, written by Peter Selinger 2001-2019
</metadata>
<rect width="1" height="360" fill="#000000"/>
<rect x="479" width="1" height="360" fill="#000000"/>
<rect width="480" height="1" fill="#000000"/>
<rect y="359" width="480" height="1" fill="#000000"/>
<g transform="translate(0.000000,360.000000) scale(0.100000,-0.100000)"
fill="#000000" stroke="none">
<path d="M0 2769 l0 -832 62 83 c35 45 94 119 131 164 37 44 82 110 99 146
171 358 266 500 482 716 253 254 513 413 856 524 l85 28 -857 1 -858 1 0 -831z"/>
<path d="M3395 3568 c266 -219 436 -428 614 -754 88 -161 123 -214 141 -214 9
0 26 14 39 31 12 16 27 29 32 27 17 -6 89 -178 114 -274 26 -96 63 -189 72
-180 3 3 15 -1 27 -9 11 -8 38 -15 59 -15 34 0 47 8 102 61 34 33 72 61 82 62
28 2 90 -30 108 -56 14 -19 15 45 15 666 l0 687 -722 0 -723 0 40 -32z"/>
<path d="M1415 2770 c-3 -6 1 -7 9 -4 18 7 21 14 7 14 -6 0 -13 -4 -16 -10z"/>
<path d="M1359 2732 c-124 -83 -284 -288 -372 -477 -93 -201 -131 -380 -131
-620 0 -260 40 -434 155 -674 78 -163 169 -297 279 -414 246 -259 487 -406
875 -531 45 -14 181 -16 1343 -16 l1292 0 0 960 c0 528 -4 960 -8 960 -5 0
-24 -24 -42 -52 -43 -67 -169 -234 -235 -313 -85 -100 -119 -154 -193 -300
-161 -321 -343 -554 -587 -751 -165 -134 -427 -254 -554 -254 -36 0 -93 -7
-126 -14 -230 -54 -537 -66 -755 -28 -362 62 -633 201 -880 451 -363 366 -508
884 -389 1389 24 102 56 204 75 241 8 14 14 31 14 37 0 6 18 44 40 84 22 40
40 75 40 77 0 10 111 153 159 206 52 56 52 74 0 39z"/>
<path d="M0 831 l0 -831 701 0 701 0 -78 56 c-117 84 -121 87 -232 197 -240
236 -398 484 -537 845 -97 248 -110 274 -141 270 -21 -2 -31 -14 -53 -66 -14
-35 -31 -64 -36 -65 -14 -2 -100 115 -165 223 -30 51 -79 117 -107 147 l-53
55 0 -831z"/>
<path d="M845 1245 c27 -173 121 -404 238 -590 124 -196 305 -393 517 -562
l115 -92 203 -1 c189 0 246 9 155 24 -87 14 -331 126 -465 213 -214 140 -374
298 -514 505 -68 102 -170 310 -214 438 -37 108 -44 122 -35 65z"/>
</g>
</svg>
