<?xml version="1.0" standalone="no"?>
<!DOCTYPE svg PUBLIC "-//W3C//DTD SVG 20010904//EN"
 "http://www.w3.org/TR/2001/REC-SVG-20010904/DTD/svg10.dtd">
<svg version="1.0" xmlns="http://www.w3.org/2000/svg"
 width="480.000000pt" height="360.000000pt" viewBox="0 0 480.000000 360.000000"
 preserveAspectRatio="xMidYMid meet">
<metadata>
Created by potrace 1.16, written by Peter Selinger 2001-2019
</metadata>
<rect width="1" height="360" fill="#000000"/>
<rect x="479" width="1" height="360" fill="#000000"/>
<rect width="480" height="1" fill="#000000"/>
<rect y="359" width="480" height="1" fill="#000000"/>
<g transform="translate(0.000000,360.000000) scale(0.100000,-0.100000)"
fill="#000000" stroke="none">
<path d="M3667 1485 c-18 -46 -5 -61 104 -123 83 -47 87 -55 45 -87 -40 -31
-125 -45 -376 -65 -80 -7 -160 -18 -178 -26 -29 -12 -32 -16 -22 -34 24 -44
137 -91 255 -105 33 -3 105 -22 161 -41 55 -19 109 -34 118 -34 17 0 162 -41
216 -61 14 -5 31 -22 37 -37 6 -15 34 -76 61 -137 54 -118 88 -233 132 -441
43 -201 53 -215 175 -269 49 -22 70 -25 172 -25 93 0 127 4 174 21 l59 22 0
289 0 290 -46 -26 c-26 -14 -48 -26 -50 -26 -2 0 -10 10 -19 23 -20 31 -42
154 -55 311 -11 145 -25 179 -78 205 -36 17 -35 10 -18 126 5 30 3 31 -58 51
-61 20 -118 23 -182 9 -24 -5 -46 1 -100 28 -38 19 -90 40 -114 47 -25 6 -98
36 -163 67 -92 43 -131 56 -181 60 -53 5 -64 3 -69 -12z"/>
</g>
</svg>
