<?xml version="1.0" standalone="no"?>
<!DOCTYPE svg PUBLIC "-//W3C//DTD SVG 20010904//EN"
 "http://www.w3.org/TR/2001/REC-SVG-20010904/DTD/svg10.dtd">
<svg version="1.0" xmlns="http://www.w3.org/2000/svg"
 width="480.000000pt" height="360.000000pt" viewBox="0 0 480.000000 360.000000"
 preserveAspectRatio="xMidYMid meet">
<metadata>
Created by potrace 1.16, written by Peter Selinger 2001-2019
</metadata>
<rect width="1" height="360" fill="#000000"/>
<rect x="479" width="1" height="360" fill="#000000"/>
<rect width="480" height="1" fill="#000000"/>
<rect y="359" width="480" height="1" fill="#000000"/>
<g transform="translate(0.000000,360.000000) scale(0.100000,-0.100000)"
fill="#000000" stroke="none">
<path d="M300 3553 c-25 -92 -23 -188 5 -318 14 -66 33 -161 40 -212 8 -50 24
-120 36 -155 20 -60 20 -69 8 -171 -11 -97 -11 -111 5 -143 9 -20 24 -72 32
-116 18 -94 18 -94 -81 -127 -77 -25 -109 -52 -119 -98 -7 -29 -4 -32 26 -42
18 -6 76 -15 128 -21 52 -6 101 -17 108 -24 8 -7 30 -46 50 -87 44 -86 57 -96
108 -83 45 11 71 49 89 128 11 47 14 51 48 59 40 10 152 108 162 143 7 26 -23
66 -66 86 -19 10 -54 15 -91 13 l-59 -2 3 31 c2 23 8 31 23 32 11 1 33 7 49
13 24 10 27 16 23 38 -4 20 3 39 24 69 36 53 37 86 4 104 -20 11 -25 19 -21
39 19 96 19 104 3 98 -14 -5 -15 -1 -10 25 5 24 3 29 -7 23 -7 -4 -16 -2 -21
6 -7 11 -12 12 -29 1 -17 -10 -20 -10 -20 3 0 19 -9 19 -32 -2 -20 -18 -25 -4
-5 16 7 8 0 7 -21 -3 l-33 -17 25 39 c14 22 31 55 39 75 29 68 87 147 194 262
128 138 132 144 109 161 -15 10 -15 15 -4 34 11 18 10 23 -6 36 -11 8 -27 14
-37 14 -9 0 -28 16 -43 35 -19 24 -37 36 -64 41 -20 3 -49 14 -64 25 -25 17
-47 19 -261 19 l-234 0 -13 -47z"/>
<path d="M2400 1800 l0 -1800 843 0 844 0 26 107 c14 60 28 148 31 198 4 50
14 122 22 160 26 113 26 118 4 144 l-21 25 -83 -42 c-46 -24 -90 -40 -98 -37
-10 4 -18 26 -22 57 -10 72 -40 106 -73 85 -9 -5 -13 -3 -13 7 0 9 -7 16 -15
16 -12 0 -14 7 -9 26 6 23 4 25 -15 19 -19 -6 -21 -3 -21 31 0 59 41 171 78
215 39 46 36 48 -18 13 -22 -15 -43 -25 -46 -22 -6 6 14 22 126 104 89 66 135
134 90 134 -26 0 -25 8 2 37 19 21 20 26 9 61 -23 68 -14 83 69 124 41 20 85
37 98 38 12 0 47 16 77 36 53 35 56 36 74 19 28 -25 44 -105 25 -126 -13 -14
-12 -19 6 -42 21 -26 27 -76 11 -93 -5 -5 -24 -36 -41 -68 l-31 -60 64 -60
c68 -65 101 -115 91 -140 -7 -19 7 -21 24 -4 14 14 16 54 3 62 -21 13 -4 41
28 44 28 3 33 -1 47 -34 9 -20 13 -46 10 -57 -3 -11 2 -33 10 -48 34 -67 9
-134 -78 -214 -58 -52 -61 -57 -74 -127 -16 -82 -10 -128 32 -251 38 -109 64
-226 64 -284 l0 -53 125 0 125 0 0 1800 0 1800 -1200 0 -1200 0 0 -1800z"/>
</g>
</svg>
