<?xml version="1.0" standalone="no"?>
<!DOCTYPE svg PUBLIC "-//W3C//DTD SVG 20010904//EN"
 "http://www.w3.org/TR/2001/REC-SVG-20010904/DTD/svg10.dtd">
<svg version="1.0" xmlns="http://www.w3.org/2000/svg"
 width="480.000000pt" height="360.000000pt" viewBox="0 0 480.000000 360.000000"
 preserveAspectRatio="xMidYMid meet">
<metadata>
Created by potrace 1.16, written by Peter Selinger 2001-2019
</metadata>
<rect width="1" height="360" fill="#000000"/>
<rect x="479" width="1" height="360" fill="#000000"/>
<rect width="480" height="1" fill="#000000"/>
<rect y="359" width="480" height="1" fill="#000000"/>
<g transform="translate(0.000000,360.000000) scale(0.100000,-0.100000)"
fill="#000000" stroke="none">
<path d="M0 1800 l0 -1800 929 0 c687 0 932 3 937 11 4 7 7 25 6 42 0 16 13
66 30 111 25 65 32 100 35 177 l4 97 -49 38 c-28 22 -57 51 -66 66 -33 54 -15
149 72 386 35 93 31 99 -41 51 -83 -55 -96 -18 -42 111 20 48 27 55 51 55 22
0 29 6 36 30 4 17 33 57 64 90 30 33 71 83 89 112 30 46 34 59 32 111 -1 66 9
86 50 97 25 6 24 8 -51 84 -113 116 -147 206 -111 294 5 13 2 17 -14 17 -12 0
-24 6 -27 14 -9 22 25 66 51 66 32 0 81 40 63 51 -7 5 -21 9 -32 9 -23 0 -116
42 -116 52 0 5 5 8 10 8 6 0 15 11 20 25 11 30 24 31 57 5 27 -21 48 -25 57
-11 3 4 -1 46 -9 92 -27 153 -20 239 21 239 9 0 36 -20 62 -45 l45 -45 26 27
c32 32 97 62 134 63 17 0 37 10 52 26 l25 27 0 -1292 0 -1291 294 0 293 0 1
43 c0 26 -17 87 -46 162 l-45 120 7 170 c4 117 11 175 20 190 8 11 67 80 132
153 249 279 241 266 251 433 l6 86 -32 11 c-17 6 -31 15 -31 20 0 13 -80 -13
-163 -51 -44 -20 -77 -44 -94 -67 -15 -19 -28 -37 -30 -40 -7 -8 -22 23 -34
65 -6 22 -20 55 -31 74 -15 28 -18 44 -13 83 8 54 -2 74 -44 89 l-24 10 39 26
c257 171 292 349 89 449 -57 27 -83 50 -71 62 4 4 14 -1 21 -11 8 -12 15 -14
20 -8 3 6 19 11 35 11 25 0 31 5 41 40 17 57 11 59 -75 24 -16 -6 -18 -4 -13
10 4 9 16 62 27 117 25 124 26 211 4 233 -8 9 -17 16 -19 16 -2 0 -29 -20 -60
-45 l-56 -46 -41 35 c-38 33 -112 66 -147 66 -9 0 -37 22 -62 50 -52 56 -80
63 -123 29 l-26 -20 0 505 0 506 -1200 0 -1200 0 0 -1800z m2998 116 c52 -60
51 -92 -8 -159 -45 -52 -163 -129 -190 -125 -28 4 -51 35 -34 46 6 4 21 33 34
65 24 58 25 58 41 38 11 -14 20 -18 24 -11 5 8 13 6 26 -6 19 -17 19 -16 13
14 -5 25 -3 32 9 32 14 0 14 4 1 35 -18 43 -18 66 -1 59 7 -2 19 7 27 21 7 14
17 25 21 25 4 0 20 -15 37 -34z m-308 -298 c0 -10 5 -18 10 -18 6 0 10 -6 10
-13 0 -10 -12 -11 -47 -7 -56 6 -64 23 -33 63 20 25 22 25 40 9 11 -9 20 -24
20 -34z m-80 32 c0 -5 -5 -10 -11 -10 -5 0 -7 5 -4 10 3 6 8 10 11 10 2 0 4
-4 4 -10z m252 -1177 c-2 -27 -6 -49 -7 -51 -1 -1 -10 9 -19 23 -16 24 -16 28
-1 51 24 37 33 29 27 -23z"/>
<path d="M2033 1947 c-43 -43 -44 -87 -4 -148 30 -45 135 -142 143 -133 11 10
-10 82 -37 123 -26 42 -28 44 -41 26 -8 -10 -14 -23 -14 -28 0 -4 -5 -5 -10
-2 -6 3 -7 18 -4 32 6 23 5 25 -16 18 l-23 -7 20 33 c15 27 32 120 20 119 -1
0 -17 -15 -34 -33z"/>
<path d="M2200 1670 c-9 -16 -8 -20 5 -20 8 0 15 9 15 20 0 11 -2 20 -5 20 -2
0 -9 -9 -15 -20z"/>
<path d="M2296 1642 c-18 -34 -13 -42 25 -42 27 0 28 1 17 28 -19 44 -25 46
-42 14z"/>
<path d="M2350 1648 c0 -16 5 -28 10 -28 13 0 13 20 0 40 -8 12 -10 9 -10 -12z"/>
<path d="M2102 790 c-23 -58 -42 -111 -42 -117 0 -15 50 -54 61 -47 5 3 9 25
9 50 0 25 5 76 11 114 17 112 7 112 -39 0z"/>
</g>
</svg>
