<?xml version="1.0" standalone="no"?>
<!DOCTYPE svg PUBLIC "-//W3C//DTD SVG 20010904//EN"
 "http://www.w3.org/TR/2001/REC-SVG-20010904/DTD/svg10.dtd">
<svg version="1.0" xmlns="http://www.w3.org/2000/svg"
 width="480.000000pt" height="360.000000pt" viewBox="0 0 480.000000 360.000000"
 preserveAspectRatio="xMidYMid meet">
<metadata>
Created by potrace 1.16, written by Peter Selinger 2001-2019
</metadata>
<rect width="1" height="360" fill="#000000"/>
<rect x="479" width="1" height="360" fill="#000000"/>
<rect width="480" height="1" fill="#000000"/>
<rect y="359" width="480" height="1" fill="#000000"/>
<g transform="translate(0.000000,360.000000) scale(0.100000,-0.100000)"
fill="#000000" stroke="none">
<path d="M0 1800 l0 -1800 267 2 268 3 85 107 c80 101 127 188 114 210 -3 5
-12 34 -19 63 -10 43 -9 59 2 85 7 18 12 53 11 78 -1 38 3 48 25 64 26 19 26
20 11 56 -14 35 -14 37 8 53 19 15 23 28 24 76 1 81 0 80 37 87 30 6 35 12 51
64 10 31 26 71 35 87 14 23 17 46 13 95 l-5 64 39 33 c38 32 38 33 13 33 -31
0 -48 -18 -83 -87 -14 -29 -31 -53 -36 -53 -6 0 -10 20 -10 45 0 37 5 51 27
71 28 26 41 79 42 173 l1 53 -25 -16 c-28 -18 -49 -21 -40 -5 8 12 54 159 50
159 -2 0 -20 -15 -41 -34 -21 -19 -40 -33 -42 -31 -3 3 19 57 36 89 3 5 -8 6
-24 2 -28 -7 -28 -6 12 27 36 32 42 44 58 115 16 66 17 92 8 166 -5 48 -12 90
-15 93 -3 3 -43 11 -89 19 -84 15 -148 32 -148 40 0 2 12 23 26 45 l25 40 -21
44 c-13 27 -19 53 -15 65 10 31 48 51 92 49 48 -3 61 5 79 47 13 30 12 38 -1
64 -59 115 -26 365 70 529 115 195 301 291 566 291 47 0 113 3 145 6 56 6 61
9 99 57 52 66 205 227 215 227 14 0 66 -101 100 -195 58 -159 63 -167 129
-215 149 -107 251 -314 251 -507 l0 -95 39 7 38 6 11 -72 c7 -49 17 -79 33
-95 19 -21 21 -27 11 -65 -7 -26 -7 -50 -1 -66 21 -56 2 -111 -33 -98 -8 3
-22 21 -31 41 -15 30 -19 33 -36 22 -19 -12 -19 -12 1 -62 11 -28 31 -80 45
-116 61 -155 208 -414 267 -468 90 -84 106 -101 106 -116 0 -14 -5 -13 -33 7
-55 42 -137 79 -150 68 -7 -5 -31 -27 -55 -49 -67 -62 -92 -69 -146 -41 -162
87 -156 84 -167 69 -8 -13 -11 -13 -20 3 -17 28 -29 10 -30 -46 0 -29 -4 -61
-8 -72 -7 -16 -9 -13 -15 20 -9 45 -32 95 -45 95 -20 0 -41 -13 -41 -25 0 -8
-8 -13 -17 -13 -10 1 -45 -15 -78 -35 -75 -45 -89 -57 -78 -67 10 -10 337
-120 355 -120 8 0 42 -20 75 -45 64 -48 83 -80 83 -141 0 -33 2 -34 38 -34 20
0 57 5 82 11 74 17 256 18 370 2 526 -75 970 -414 1219 -931 l55 -112 268 0
268 0 0 1800 0 1800 -2400 0 -2400 0 0 -1800z m3170 1689 c0 -11 -4 -18 -10
-14 -5 3 -7 12 -3 20 7 21 13 19 13 -6z m1278 -873 c6 -13 8 -27 5 -30 -11
-11 -43 15 -43 34 0 28 25 25 38 -4z m-1248 -276 c0 -5 -4 -10 -10 -10 -5 0
-10 5 -10 10 0 6 5 10 10 10 6 0 10 -4 10 -10z m-22 -120 c-15 -73 -48 -168
-64 -180 -18 -16 -18 -15 6 56 11 32 20 75 20 94 0 54 10 79 29 77 16 -1 17
-7 9 -47z m602 -974 c0 -3 -4 -8 -10 -11 -5 -3 -10 -1 -10 4 0 6 5 11 10 11 6
0 10 -2 10 -4z m-3169 -548 c4 -16 4 -28 -1 -28 -24 0 -40 15 -40 37 0 34 31
27 41 -9z m3974 -129 c12 -19 -5 -23 -22 -6 -16 16 -16 17 -1 17 9 0 20 -5 23
-11z"/>
<path d="M1945 1380 c3 -5 8 -10 11 -10 2 0 4 5 4 10 0 6 -5 10 -11 10 -5 0
-7 -4 -4 -10z"/>
<path d="M2194 26 c-8 -22 -1 -28 26 -24 l22 3 -21 19 c-19 17 -21 17 -27 2z"/>
</g>
</svg>
