<?xml version="1.0" standalone="no"?>
<!DOCTYPE svg PUBLIC "-//W3C//DTD SVG 20010904//EN"
 "http://www.w3.org/TR/2001/REC-SVG-20010904/DTD/svg10.dtd">
<svg version="1.0" xmlns="http://www.w3.org/2000/svg"
 width="480.000000pt" height="360.000000pt" viewBox="0 0 480.000000 360.000000"
 preserveAspectRatio="xMidYMid meet">
<metadata>
Created by potrace 1.16, written by Peter Selinger 2001-2019
</metadata>
<rect width="1" height="360" fill="#000000"/>
<rect x="479" width="1" height="360" fill="#000000"/>
<rect width="480" height="1" fill="#000000"/>
<rect y="359" width="480" height="1" fill="#000000"/>
<g transform="translate(0.000000,360.000000) scale(0.100000,-0.100000)"
fill="#000000" stroke="none">
<path d="M0 3420 c0 -99 2 -180 5 -180 2 0 30 16 60 36 158 100 324 166 535
211 149 32 414 36 555 9 247 -47 486 -152 665 -292 88 -69 223 -210 290 -304
235 -329 329 -711 275 -1125 -46 -353 20 -682 198 -984 62 -105 84 -137 162
-226 227 -261 471 -409 806 -489 413 -99 837 -19 1216 228 l33 21 0 1638 0
1637 -2400 0 -2400 0 0 -180z m3955 -871 c151 -56 254 -232 227 -388 -28 -159
-135 -268 -294 -301 -152 -30 -317 58 -388 207 -31 64 -38 178 -16 253 29 100
140 212 236 238 65 18 175 14 235 -9z"/>
<path d="M850 1820 c-169 -62 -279 -235 -268 -418 9 -137 73 -250 183 -323 81
-54 146 -71 247 -66 156 8 277 86 345 224 32 65 37 86 41 163 9 185 -78 330
-244 407 -80 38 -221 44 -304 13z"/>
</g>
</svg>
