<?xml version="1.0" standalone="no"?>
<!DOCTYPE svg PUBLIC "-//W3C//DTD SVG 20010904//EN"
 "http://www.w3.org/TR/2001/REC-SVG-20010904/DTD/svg10.dtd">
<svg version="1.0" xmlns="http://www.w3.org/2000/svg"
 width="480.000000pt" height="360.000000pt" viewBox="0 0 480.000000 360.000000"
 preserveAspectRatio="xMidYMid meet">
<metadata>
Created by potrace 1.16, written by Peter Selinger 2001-2019
</metadata>
<rect width="1" height="360" fill="#000000"/>
<rect x="479" width="1" height="360" fill="#000000"/>
<rect width="480" height="1" fill="#000000"/>
<rect y="359" width="480" height="1" fill="#000000"/>
<g transform="translate(0.000000,360.000000) scale(0.100000,-0.100000)"
fill="#000000" stroke="none">
<path d="M0 1800 l0 -1800 873 0 872 0 12 73 c16 97 116 434 157 527 18 41 45
112 60 157 l27 82 -44 83 c-25 46 -55 119 -67 163 -11 44 -25 90 -30 102 l-10
23 -32 -20 c-46 -28 -84 -25 -163 11 -109 49 -224 89 -305 106 -91 19 -108 27
-120 59 -5 13 -21 29 -35 34 -19 7 -25 15 -20 29 5 16 -3 19 -92 24 -145 9
-274 50 -348 110 -30 25 -30 25 -11 46 24 27 30 26 72 -6 l35 -26 -6 25 -6 25
148 2 c148 2 148 2 207 -29 52 -27 61 -29 68 -16 10 18 49 21 65 5 8 -8 17 -7
32 2 18 12 34 7 143 -47 129 -65 187 -89 192 -83 1 2 12 42 23 89 12 48 54
159 98 255 45 99 80 189 83 215 2 25 10 52 17 60 7 8 18 74 25 145 38 410 115
666 229 762 l26 21 -81 -5 c-74 -5 -83 -4 -103 16 -11 11 -21 32 -21 44 0 58
91 258 149 327 l29 35 56 -27 c30 -15 62 -25 70 -22 25 10 112 -45 195 -123
54 -50 84 -71 95 -67 9 4 36 1 59 -4 38 -10 53 -8 127 18 97 34 236 43 246 16
5 -14 -47 -248 -72 -317 -11 -33 -10 -41 12 -85 18 -35 24 -64 24 -108 0 -81
-13 -124 -57 -188 -19 -29 -40 -65 -45 -81 -14 -38 -25 -34 -20 8 5 46 -8 44
-38 -5 l-25 -41 -11 28 -12 28 -16 -39 c-9 -22 -19 -85 -22 -147 l-7 -109 31
0 c35 0 48 -14 43 -48 -2 -16 14 -41 57 -87 60 -64 175 -221 206 -282 20 -39
21 -96 2 -126 -11 -19 -12 -35 0 -107 7 -47 13 -102 13 -122 1 -34 4 -38 39
-47 70 -18 198 -40 277 -46 100 -9 151 -21 158 -39 3 -8 19 -17 36 -21 18 -4
31 -13 31 -22 0 -8 6 -12 13 -10 87 36 113 40 216 27 114 -14 156 -34 132 -64
-10 -12 -23 -15 -47 -10 -44 8 -100 -4 -85 -19 9 -9 17 -8 31 1 25 16 30 15
30 -2 0 -26 20 -28 61 -7 52 28 63 27 55 -4 -7 -29 -1 -30 47 -10 32 13 36 13
51 -4 38 -42 16 -53 -139 -71 -168 -20 -303 -19 -344 3 -42 21 -38 21 -44 -4
-5 -17 -11 -19 -39 -14 -25 5 -38 2 -47 -9 -19 -22 -32 -20 -146 18 -55 19
-161 44 -235 56 -74 12 -150 28 -167 35 -45 20 -87 82 -118 176 -15 43 -30 79
-35 79 -4 0 -10 -17 -13 -37 -4 -21 -9 -52 -13 -70 -5 -26 -3 -31 12 -30 16 2
19 -5 18 -38 -1 -22 -6 -53 -13 -68 -9 -24 -13 -26 -32 -17 -19 11 -20 10 -14
-11 4 -13 19 -32 32 -42 24 -19 24 -22 18 -117 -7 -95 -7 -99 29 -194 20 -53
49 -123 65 -154 34 -67 173 -462 192 -545 l14 -57 857 0 858 0 0 1800 0 1800
-2400 0 -2400 0 0 -1800z m1049 735 c0 -33 -4 -78 -10 -100 -24 -87 -23 -118
5 -144 14 -14 29 -22 32 -18 4 3 15 36 25 74 26 91 37 101 73 64 24 -25 29
-40 35 -116 8 -84 10 -89 45 -119 25 -22 38 -44 45 -75 9 -42 8 -55 -9 -96
-25 -58 -60 -194 -60 -230 0 -33 -7 -49 -32 -78 -32 -36 -36 -37 -103 -38 -38
-1 -75 -1 -82 0 -15 1 -67 79 -94 141 -22 50 -43 75 -81 94 -32 16 -48 53 -48
114 0 57 8 63 47 32 40 -31 60 -26 67 18 4 20 9 50 12 66 4 18 2 26 -4 22 -6
-3 -14 -1 -17 5 -4 5 -13 8 -19 6 -35 -14 -56 45 -46 125 8 57 15 66 40 50 11
-7 20 -8 20 -3 0 5 9 9 20 8 11 -1 20 -7 20 -14 0 -17 20 -17 24 0 2 6 9 55
16 107 8 61 21 113 38 147 31 63 40 53 41 -42z m-181 -783 c2 -7 -3 -12 -12
-12 -9 0 -16 7 -16 16 0 17 22 14 28 -4z m2995 -190 c23 -21 59 -50 79 -65 41
-30 41 -44 3 -87 -12 -14 -27 -39 -34 -57 -15 -36 -54 -56 -115 -57 l-41 -1
-5 45 c-5 42 -8 46 -52 68 -41 19 -48 27 -48 52 0 20 6 31 20 35 11 4 27 22
35 40 13 34 57 62 98 64 9 1 36 -16 60 -37z"/>
<path d="M2641 2194 c0 -11 3 -14 6 -6 3 7 2 16 -1 19 -3 4 -6 -2 -5 -13z"/>
<path d="M2750 1485 c0 -8 5 -15 10 -15 6 0 10 7 10 15 0 8 -4 15 -10 15 -5 0
-10 -7 -10 -15z"/>
<path d="M1705 1460 c-3 -5 -1 -10 4 -10 6 0 11 5 11 10 0 6 -2 10 -4 10 -3 0
-8 -4 -11 -10z"/>
</g>
</svg>
