<?xml version="1.0" standalone="no"?>
<!DOCTYPE svg PUBLIC "-//W3C//DTD SVG 20010904//EN"
 "http://www.w3.org/TR/2001/REC-SVG-20010904/DTD/svg10.dtd">
<svg version="1.0" xmlns="http://www.w3.org/2000/svg"
 width="480.000000pt" height="360.000000pt" viewBox="0 0 480.000000 360.000000"
 preserveAspectRatio="xMidYMid meet">
<metadata>
Created by potrace 1.16, written by Peter Selinger 2001-2019
</metadata>
<rect width="1" height="360" fill="#000000"/>
<rect x="479" width="1" height="360" fill="#000000"/>
<rect width="480" height="1" fill="#000000"/>
<rect y="359" width="480" height="1" fill="#000000"/>
<g transform="translate(0.000000,360.000000) scale(0.100000,-0.100000)"
fill="#000000" stroke="none">
<path d="M0 2488 c0 -611 2 -1109 4 -1107 2 2 37 69 78 149 41 80 80 154 86
165 36 68 54 116 78 212 101 417 296 776 579 1071 207 216 425 366 788 540 81
39 147 74 147 77 0 3 -396 5 -880 5 l-880 0 0 -1112z"/>
<path d="M3370 3595 c0 -2 19 -17 43 -34 108 -74 222 -177 447 -406 63 -64
128 -126 143 -137 l28 -20 36 28 c27 20 40 25 52 17 35 -21 125 -155 199 -296
l77 -149 75 -4 c70 -4 77 -3 95 19 33 39 65 86 65 95 0 19 69 75 87 69 10 -3
33 -10 51 -15 l32 -11 0 425 0 424 -715 0 c-393 0 -715 -2 -715 -5z"/>
<path d="M1988 2794 c-42 -7 -96 -20 -120 -29 -24 -8 -50 -15 -59 -15 -25 0
-174 -76 -262 -134 -46 -30 -124 -93 -175 -141 -197 -186 -297 -366 -352 -636
-30 -146 -30 -382 -1 -530 69 -345 214 -607 482 -863 196 -188 407 -312 699
-409 l95 -32 1253 -3 1252 -2 -1 1112 0 1113 -58 -115 c-32 -63 -85 -167 -119
-230 -33 -63 -64 -133 -67 -155 -4 -22 -21 -87 -37 -145 -104 -363 -275 -670
-489 -876 -80 -76 -182 -155 -241 -185 -44 -23 -49 -23 -42 -5 12 31 -20 25
-89 -18 -107 -67 -286 -149 -422 -195 -550 -183 -1084 -112 -1505 202 -285
212 -470 497 -542 832 -19 90 -23 139 -23 270 1 212 30 340 116 505 61 116
124 210 141 210 4 0 8 4 8 9 0 17 125 133 197 182 184 125 363 177 575 167
108 -6 243 -42 335 -91 103 -55 203 -163 258 -282 41 -90 26 -242 -28 -280
-27 -19 -84 -19 -117 0 -14 8 -38 15 -55 15 -16 0 -75 11 -130 25 -129 32
-284 35 -363 6 -75 -28 -134 -64 -171 -106 -31 -36 -33 -55 -5 -55 12 0 14
-29 14 -171 l0 -171 27 34 c41 49 54 57 93 58 41 0 127 -38 179 -79 20 -16 68
-46 106 -67 68 -38 73 -39 165 -39 129 1 232 38 342 123 73 57 130 146 170
266 28 84 28 247 1 341 -42 144 -87 222 -192 326 -146 146 -241 200 -441 250
-131 33 -267 38 -402 13z"/>
<path d="M3480 1333 c-40 -56 -168 -204 -224 -257 -63 -60 -45 -49 56 33 74
61 130 125 177 204 30 49 23 65 -9 20z"/>
<path d="M1 623 l-1 -623 685 0 c377 0 685 2 685 4 0 2 -24 21 -52 43 -177
134 -331 307 -597 670 -99 136 -147 155 -188 74 -12 -24 -24 -46 -27 -48 -9
-10 -122 87 -231 197 -65 66 -130 122 -158 136 -50 26 -82 67 -103 134 -9 27
-12 -105 -13 -587z"/>
<path d="M1217 668 c118 -204 350 -443 587 -606 l89 -62 156 0 156 0 -110 38
c-322 112 -611 323 -840 615 -33 42 -63 76 -67 77 -4 0 9 -28 29 -62z"/>
</g>
</svg>
