<?xml version="1.0" standalone="no"?>
<!DOCTYPE svg PUBLIC "-//W3C//DTD SVG 20010904//EN"
 "http://www.w3.org/TR/2001/REC-SVG-20010904/DTD/svg10.dtd">
<svg version="1.0" xmlns="http://www.w3.org/2000/svg"
 width="480.000000pt" height="360.000000pt" viewBox="0 0 480.000000 360.000000"
 preserveAspectRatio="xMidYMid meet">
<metadata>
Created by potrace 1.16, written by Peter Selinger 2001-2019
</metadata>
<rect width="1" height="360" fill="#000000"/>
<rect x="479" width="1" height="360" fill="#000000"/>
<rect width="480" height="1" fill="#000000"/>
<rect y="359" width="480" height="1" fill="#000000"/>
<g transform="translate(0.000000,360.000000) scale(0.100000,-0.100000)"
fill="#000000" stroke="none">
<path d="M0 2171 l0 -1429 103 5 c56 3 104 7 106 9 10 9 13 265 3 276 -7 9 -2
30 20 73 33 66 41 75 79 75 14 0 41 7 59 16 l33 17 -6 78 -5 78 41 14 c34 11
43 19 45 41 2 15 -1 33 -6 39 -11 13 17 57 36 57 14 0 25 -50 13 -63 -5 -8 -5
-25 3 -47 8 -26 19 -37 42 -43 l32 -9 -5 -78 -6 -78 29 -15 c16 -8 46 -17 66
-21 34 -6 38 -11 61 -69 13 -34 20 -67 16 -72 -4 -6 -11 -71 -15 -144 l-7
-133 24 4 c22 3 23 7 26 95 3 90 3 93 50 167 27 42 53 76 58 76 6 0 30 -35 55
-77 37 -66 45 -87 48 -143 2 -36 7 -68 11 -72 3 -3 128 -11 276 -17 388 -16
359 -11 437 -81 37 -33 69 -60 72 -60 3 0 6 84 6 188 l1 187 42 59 c23 33 47
61 52 63 6 1 31 -30 57 -70 l46 -72 -8 -300 c-5 -165 -9 -389 -9 -497 l-1
-198 1410 0 1410 0 0 1800 0 1800 -2400 0 -2400 0 0 -1429z m3189 665 c23 -18
44 -76 32 -90 -12 -14 11 -110 28 -121 5 -3 44 -12 88 -20 43 -9 88 -18 101
-21 12 -2 22 -11 22 -18 0 -21 -58 -66 -86 -66 -27 0 -31 -12 -9 -30 8 -7 12
-17 9 -22 -3 -5 6 -23 22 -39 31 -33 31 -33 -14 -20 -31 9 -37 5 -33 -21 0 -4
-8 -10 -19 -13 -10 -3 -17 -12 -14 -19 3 -8 -5 -12 -26 -10 l-31 2 2 -51 c1
-29 -2 -60 -6 -69 -5 -14 12 -8 72 22 44 23 97 43 118 47 l38 6 -8 -39 c-6
-32 -25 -84 -42 -115 -3 -5 218 -20 292 -20 19 0 18 -2 -4 -20 -28 -23 -29
-20 28 -49 32 -16 40 -24 30 -30 -14 -9 19 -26 73 -37 33 -6 27 -23 -8 -23
-32 0 -31 -16 4 -34 15 -8 36 -24 47 -36 20 -23 20 -23 0 -17 -49 14 -85 18
-85 10 0 -5 14 -25 31 -46 l31 -37 -29 11 -28 10 23 -24 c24 -25 21 -39 -6
-30 -16 6 -16 5 -1 -13 9 -10 15 -24 12 -30 -2 -7 6 -14 19 -17 13 -4 32 -13
43 -22 20 -16 20 -16 -2 -12 -12 3 -24 0 -26 -7 -3 -7 -15 -6 -42 7 -20 10
-40 16 -42 13 -11 -11 20 -45 47 -51 16 -4 30 -11 30 -17 0 -9 -22 -7 -72 8
-23 7 -44 -32 -27 -52 16 -20 2 -17 -38 7 -40 25 -52 20 -29 -13 30 -43 16
-48 -25 -8 -42 40 -68 51 -70 28 -1 -7 -3 -24 -4 -38 -3 -30 -22 -80 -31 -80
-3 0 -4 9 -1 20 3 11 1 20 -4 20 -5 0 -9 8 -9 18 0 22 -19 42 -39 42 -8 0 -32
12 -53 26 -21 15 -41 25 -43 22 -3 -2 -8 -27 -11 -54 -4 -27 -12 -55 -18 -63
-16 -21 -49 -29 -73 -18 -26 11 -28 17 -44 110 -9 55 -16 71 -39 87 -52 37
-67 28 -90 -52 -30 -101 -37 -118 -55 -118 -22 0 -55 36 -56 63 -1 12 -2 31
-3 41 -1 13 -12 22 -33 28 -18 5 -33 13 -33 18 0 6 -9 10 -20 10 -23 0 -24 -5
-9 -49 7 -21 8 -36 2 -42 -6 -6 -14 5 -22 32 -7 22 -28 57 -47 75 l-34 35 -10
-26 c-11 -30 -33 -24 -28 8 1 13 -9 33 -25 49 -15 15 -27 34 -27 42 0 21 31
36 74 36 28 0 38 6 53 31 10 17 43 46 72 65 48 29 57 40 68 81 18 66 8 115
-27 141 -19 14 -30 33 -33 59 -3 21 -9 53 -13 71 -4 23 -1 46 11 72 21 47 16
119 -12 168 -20 35 -41 39 -107 21 -30 -8 -41 -8 -47 2 -4 7 -6 16 -3 20 2 4
-1 9 -7 11 -7 2 16 16 50 32 33 15 61 31 61 35 0 5 -12 16 -26 26 -34 22 -24
31 14 11 29 -15 33 -15 66 7 19 12 38 31 42 42 13 40 67 116 93 129 28 15 87
11 110 -8z"/>
<path d="M3665 2090 c3 -5 8 -10 11 -10 2 0 4 5 4 10 0 6 -5 10 -11 10 -5 0
-7 -4 -4 -10z"/>
<path d="M3705 1613 c11 -7 26 -13 34 -13 24 0 -4 23 -30 25 -21 2 -21 1 -4
-12z"/>
</g>
</svg>
