<?xml version="1.0" standalone="no"?>
<!DOCTYPE svg PUBLIC "-//W3C//DTD SVG 20010904//EN"
 "http://www.w3.org/TR/2001/REC-SVG-20010904/DTD/svg10.dtd">
<svg version="1.0" xmlns="http://www.w3.org/2000/svg"
 width="480.000000pt" height="360.000000pt" viewBox="0 0 480.000000 360.000000"
 preserveAspectRatio="xMidYMid meet">
<metadata>
Created by potrace 1.16, written by Peter Selinger 2001-2019
</metadata>
<rect width="1" height="360" fill="#000000"/>
<rect x="479" width="1" height="360" fill="#000000"/>
<rect width="480" height="1" fill="#000000"/>
<rect y="359" width="480" height="1" fill="#000000"/>
<g transform="translate(0.000000,360.000000) scale(0.100000,-0.100000)"
fill="#000000" stroke="none">
<path d="M0 1800 l0 -1800 1469 0 1468 0 12 88 c15 122 15 125 -20 158 -67 63
-73 104 -30 199 l29 64 -24 113 c-13 62 -24 116 -24 120 0 13 -81 59 -138 79
-30 10 -94 26 -141 35 -163 29 -175 36 -287 149 -55 57 -108 118 -117 136 -24
52 -33 218 -14 255 18 34 95 114 111 114 14 1 86 67 86 80 0 5 -9 25 -21 44
-19 33 -19 56 1 56 4 0 17 -16 29 -35 11 -19 24 -35 28 -35 4 1 30 21 56 45
44 41 47 46 33 61 -25 24 -19 40 30 80 74 61 75 67 7 129 -59 55 -80 67 -69
40 3 -8 1 -15 -4 -15 -16 0 -11 -32 8 -54 16 -19 15 -18 -22 2 -21 13 -47 22
-56 20 -10 -2 -30 8 -45 22 l-27 25 7 -30 6 -30 -37 40 c-41 45 -79 120 -90
178 -6 34 -12 41 -53 59 -119 52 -198 96 -236 134 -43 42 -182 124 -211 124
-9 0 -32 11 -50 25 -18 14 -36 25 -40 25 -5 0 -49 27 -100 61 -94 62 -185 153
-161 162 8 3 1 14 -18 30 -21 17 -45 26 -82 29 -48 4 -57 10 -105 57 -29 29
-69 61 -88 71 -20 10 -42 30 -50 44 -7 14 -19 26 -27 26 -7 0 -13 5 -13 11 0
6 -9 8 -20 4 -12 -4 -28 -1 -37 6 -13 12 -11 15 18 25 19 7 44 13 55 13 12 1
27 7 33 15 10 12 6 21 -22 48 -18 18 -49 45 -68 60 l-34 27 64 0 c35 1 61 4
58 8 -4 3 0 14 8 24 15 15 12 20 -26 53 -24 20 -41 36 -38 36 2 0 32 -9 66
-20 60 -18 93 -18 93 1 0 8 57 -8 75 -21 6 -5 42 -17 80 -29 39 -11 98 -31
133 -45 34 -13 62 -21 62 -18 -1 4 -17 30 -36 57 -109 154 -164 265 -164 331
l0 34 -640 0 -640 0 0 -1800z"/>
<path d="M2112 3533 c-45 -99 -55 -139 -56 -228 -1 -70 3 -88 31 -149 27 -55
36 -67 50 -61 35 13 165 35 212 35 25 0 81 11 123 25 42 14 99 30 127 36 44 9
57 18 87 57 84 111 205 238 278 293 l79 59 -450 0 -449 0 -32 -67z"/>
<path d="M4471 3596 c2 -2 42 -34 89 -72 47 -38 120 -105 162 -149 l77 -80 1
153 0 152 -167 0 c-91 0 -164 -2 -162 -4z"/>
<path d="M4347 2973 c-3 -5 -8 -91 -12 -193 l-7 -185 218 -54 c121 -30 227
-56 237 -59 16 -4 17 8 17 152 l0 155 -87 59 c-49 33 -106 68 -129 80 -75 38
-224 66 -237 45z"/>
<path d="M3052 1400 c-21 -17 -22 -22 -11 -65 15 -59 1 -111 -44 -162 l-32
-36 25 -16 c37 -24 66 -57 85 -98 l17 -35 43 42 c65 64 72 87 42 146 -14 27
-37 64 -51 83 -32 43 -32 54 -1 79 23 18 24 23 13 47 l-12 26 -18 -23 -18 -23
0 28 c0 32 -7 33 -38 7z"/>
<path d="M4780 269 c13 -46 20 -48 20 -6 0 25 -4 37 -14 37 -12 0 -13 -7 -6
-31z"/>
</g>
</svg>
