<?xml version="1.0" standalone="no"?>
<!DOCTYPE svg PUBLIC "-//W3C//DTD SVG 20010904//EN"
 "http://www.w3.org/TR/2001/REC-SVG-20010904/DTD/svg10.dtd">
<svg version="1.0" xmlns="http://www.w3.org/2000/svg"
 width="480.000000pt" height="360.000000pt" viewBox="0 0 480.000000 360.000000"
 preserveAspectRatio="xMidYMid meet">
<metadata>
Created by potrace 1.16, written by Peter Selinger 2001-2019
</metadata>
<rect width="1" height="360" fill="#000000"/>
<rect x="479" width="1" height="360" fill="#000000"/>
<rect width="480" height="1" fill="#000000"/>
<rect y="359" width="480" height="1" fill="#000000"/>
<g transform="translate(0.000000,360.000000) scale(0.100000,-0.100000)"
fill="#000000" stroke="none">
<path d="M4125 3058 c15 -44 8 -73 -29 -131 -21 -32 -42 -72 -48 -88 -5 -16
-17 -29 -26 -29 -10 0 -26 -7 -37 -16 -19 -14 -19 -15 13 -40 30 -24 32 -29
32 -89 0 -35 4 -74 9 -87 4 -13 11 -40 15 -60 7 -36 5 -38 -19 -38 -28 0 -26
4 -27 -105 0 -146 22 -205 80 -205 23 0 24 -3 19 -42 -4 -31 -1 -48 10 -60 14
-15 11 -21 -29 -65 -25 -26 -71 -98 -102 -159 -32 -61 -83 -144 -113 -184 -36
-48 -57 -85 -60 -109 -5 -33 -1 -41 35 -73 21 -19 45 -37 52 -40 20 -6 -8
-103 -46 -158 -46 -67 -63 -103 -75 -162 -6 -29 -21 -69 -32 -87 -12 -19 -20
-45 -19 -56 1 -12 -7 -39 -18 -60 -49 -96 7 -215 102 -215 23 0 51 -8 67 -19
15 -11 49 -25 75 -32 25 -6 51 -19 56 -29 5 -10 8 -68 6 -129 l-4 -112 26 -16
c15 -9 54 -38 87 -63 131 -101 295 -151 295 -89 0 11 -6 21 -12 23 -105 28
-145 46 -216 93 -73 49 -83 59 -80 82 3 29 8 29 97 11 30 -6 63 -18 75 -25 12
-8 53 -19 91 -25 39 -7 78 -16 87 -21 10 -5 22 -9 27 -9 5 0 42 -19 82 -42 73
-42 107 -48 194 -36 24 4 35 43 26 91 -6 28 -16 37 -93 77 -47 25 -92 50 -100
56 -7 5 -34 21 -60 35 -27 13 -65 38 -85 56 l-38 31 23 29 c12 15 27 39 33 53
28 63 -75 145 -196 154 -33 3 -63 5 -66 5 -19 2 -17 53 2 91 12 22 19 47 15
55 -3 8 8 49 25 91 22 54 33 105 40 171 9 102 13 113 35 113 8 0 22 4 32 9 9
4 34 16 56 27 62 30 70 50 52 126 -16 69 -28 139 -51 301 -8 59 -19 116 -25
127 -8 15 -7 26 5 43 17 26 45 170 45 234 0 23 -5 53 -12 67 -10 22 -8 29 11
45 33 28 85 33 178 17 66 -12 91 -13 130 -3 l48 12 3 66 3 66 -39 11 c-21 7
-89 12 -150 13 -62 0 -114 5 -118 10 -3 5 31 81 75 168 77 152 92 191 72 191
-4 0 -49 -80 -99 -177 -56 -112 -96 -179 -107 -181 -32 -7 -85 8 -85 24 0 8
14 45 31 81 l32 65 -23 54 -22 54 22 41 c25 49 16 63 -26 47 -28 -10 -38 -7
-118 36 -77 42 -86 50 -86 76 0 39 -9 60 -27 60 -11 0 -13 -6 -8 -22z m21
-1678 c35 -14 40 -66 19 -195 -10 -60 -25 -130 -33 -155 -8 -25 -14 -57 -14
-71 1 -14 -7 -47 -18 -73 -17 -38 -25 -46 -48 -46 -33 0 -120 -23 -150 -39
-26 -14 -62 -6 -62 13 0 7 -9 25 -20 39 -24 30 -26 70 -5 87 8 7 17 28 21 48
7 37 82 176 147 272 20 30 37 59 37 63 0 5 7 25 17 44 15 32 19 34 51 28 19
-3 45 -10 58 -15z m409 -940 c3 -5 17 -10 30 -10 29 0 42 -18 19 -27 -17 -6
-66 18 -72 36 -5 14 15 14 23 1z"/>
<path d="M2740 3015 c0 -9 -6 -12 -15 -9 -11 5 -13 2 -9 -10 3 -9 1 -23 -5
-30 -8 -9 -8 -15 -2 -18 6 -1 -10 -25 -36 -53 -40 -42 -52 -49 -80 -46 -44 3
-51 -18 -23 -64 18 -29 20 -41 12 -63 -6 -15 -13 -40 -17 -55 -3 -16 -17 -39
-30 -51 -28 -26 -31 -36 -12 -36 8 0 13 -14 14 -37 1 -21 6 -39 12 -41 22 -7
10 -28 -21 -37 -35 -11 -60 -41 -43 -53 22 -15 85 -135 85 -161 0 -15 -9 -44
-20 -66 -24 -46 -25 -64 -6 -71 11 -4 12 -13 6 -36 -5 -16 -13 -35 -18 -41 -6
-7 -19 -61 -31 -122 -11 -60 -34 -153 -51 -205 -34 -108 -38 -183 -13 -220 25
-37 54 -60 74 -60 37 0 48 -10 38 -37 -5 -13 -9 -39 -9 -58 0 -19 -5 -37 -10
-40 -6 -4 -10 -21 -9 -38 3 -71 -29 -165 -52 -152 -15 10 -31 -33 -20 -54 12
-22 78 -81 91 -81 8 0 50 -61 50 -74 0 -4 -11 -11 -25 -16 -33 -13 -32 -36 3
-43 18 -4 39 -20 57 -46 15 -23 34 -41 42 -41 8 0 26 -9 40 -20 33 -26 158
-28 205 -4 30 15 43 15 125 -2 18 -3 40 -3 50 0 14 6 11 10 -15 26 -47 29 -50
46 -13 84 37 39 28 56 -32 56 -44 0 -157 27 -171 41 -12 11 17 34 64 50 49 16
100 56 100 79 0 51 -36 76 -123 86 -44 5 -56 11 -61 27 -3 11 -2 25 2 31 4 6
8 34 8 61 1 28 4 81 7 120 4 66 6 71 38 92 19 12 40 22 46 22 22 1 83 68 83
91 0 12 -22 65 -50 119 -27 53 -68 145 -89 204 -22 59 -51 126 -65 149 l-24
41 26 50 c19 35 37 54 62 64 19 8 39 22 45 30 10 14 15 14 38 -2 15 -9 27 -21
27 -26 0 -14 40 -30 60 -24 10 3 22 15 25 26 9 27 17 18 24 -28 3 -20 12 -38
19 -41 21 -7 122 103 122 133 0 22 -3 25 -24 19 -57 -14 -177 53 -163 90 3 8
-6 26 -20 41 -20 19 -33 24 -53 20 -19 -4 -31 0 -44 14 -9 10 -32 22 -50 25
-31 6 -92 56 -68 56 7 0 12 11 12 24 0 15 12 33 35 50 31 24 35 32 35 74 0 29
8 59 20 80 19 31 19 32 1 32 -10 0 -21 7 -25 15 -3 8 -11 15 -18 15 -12 0
-107 99 -108 113 0 4 4 7 9 7 12 0 1 41 -15 58 -17 16 -24 15 -24 -3z m14
-1638 c8 -68 6 -202 -4 -217 -4 -6 -35 -14 -68 -16 -59 -4 -62 -3 -68 21 -17
67 44 259 85 268 37 8 49 -4 55 -56z"/>
<path d="M1124 2891 c-21 -17 -29 -79 -11 -92 14 -10 -125 -124 -151 -124 -14
0 -30 -8 -35 -17 -9 -14 -6 -23 13 -43 21 -22 25 -37 25 -88 0 -58 2 -62 32
-82 18 -11 37 -34 43 -51 6 -17 22 -42 35 -54 31 -29 31 -38 1 -46 -13 -3 -35
-17 -48 -31 -20 -21 -23 -35 -22 -94 l0 -69 -70 -22 c-39 -12 -93 -32 -121
-44 -27 -12 -81 -25 -120 -29 -61 -6 -77 -3 -127 19 -39 17 -62 35 -72 54 -8
16 -22 32 -30 35 -13 5 -302 -49 -381 -71 -27 -8 -30 -13 -29 -45 1 -20 7 -44
14 -53 13 -14 352 -184 753 -376 165 -79 168 -80 212 -69 24 6 46 11 49 11 18
0 -16 -114 -42 -143 -13 -14 -14 -22 -5 -37 9 -14 8 -29 -8 -69 -39 -105 -24
-133 104 -197 86 -43 157 -96 157 -117 0 -5 -22 -30 -48 -56 -58 -55 -86 -97
-86 -130 -1 -25 -23 -33 -340 -137 -58 -19 -61 -17 -181 72 -102 76 -107 77
-163 61 -82 -25 -316 -118 -331 -132 -14 -13 20 -44 322 -293 56 -46 131 -109
168 -140 36 -31 100 -85 142 -120 l76 -63 238 3 238 3 63 38 c34 21 62 44 62
52 0 8 -19 27 -42 42 -104 67 -219 156 -211 164 5 5 51 20 103 35 153 42 155
43 137 132 -13 66 -8 72 70 72 101 0 213 59 213 111 0 38 -108 118 -180 134
-40 9 -69 52 -80 119 -11 69 -22 90 -60 113 -17 9 -30 21 -30 26 0 5 -25 33
-56 63 l-55 54 47 60 c25 33 51 57 56 54 14 -9 219 47 250 68 14 10 30 18 36
18 13 0 62 47 62 59 0 6 -18 29 -40 51 -65 66 -116 139 -164 237 -29 58 -58
101 -77 115 -27 20 -30 27 -25 58 3 20 -1 57 -10 85 -10 35 -13 70 -8 116 7
72 -3 100 -56 169 -29 38 -29 60 0 60 24 0 53 71 44 108 -4 15 -18 55 -31 89
l-25 62 22 31 c25 35 22 41 -30 60 -56 21 -80 48 -80 90 0 28 -7 43 -31 66
-17 16 -36 41 -42 56 -12 26 -13 26 -33 9z m-49 -937 c29 -44 34 -58 23 -65
-7 -5 -18 -9 -24 -9 -6 0 -17 -7 -24 -15 -19 -23 -46 -19 -148 22 -83 33 -92
39 -76 50 10 7 26 13 37 13 10 0 39 8 65 19 26 10 61 23 77 29 17 5 30 10 31
11 1 1 18 -24 39 -55z m-69 -1339 c10 -8 29 -15 42 -15 17 0 28 -11 42 -42
l19 -43 -42 -37 c-23 -20 -49 -37 -57 -37 -26 -1 -155 95 -158 116 -2 16 9 27
49 47 61 30 78 32 105 11z"/>
<path d="M3137 732 c-17 -7 -17 -9 3 -35 35 -45 128 -30 118 19 -2 15 -13 19
-53 21 -28 1 -58 -1 -68 -5z"/>
</g>
</svg>
