<?xml version="1.0" standalone="no"?>
<!DOCTYPE svg PUBLIC "-//W3C//DTD SVG 20010904//EN"
 "http://www.w3.org/TR/2001/REC-SVG-20010904/DTD/svg10.dtd">
<svg version="1.0" xmlns="http://www.w3.org/2000/svg"
 width="480.000000pt" height="360.000000pt" viewBox="0 0 480.000000 360.000000"
 preserveAspectRatio="xMidYMid meet">
<metadata>
Created by potrace 1.16, written by Peter Selinger 2001-2019
</metadata>
<rect width="1" height="360" fill="#000000"/>
<rect x="479" width="1" height="360" fill="#000000"/>
<rect width="480" height="1" fill="#000000"/>
<rect y="359" width="480" height="1" fill="#000000"/>
<g transform="translate(0.000000,360.000000) scale(0.100000,-0.100000)"
fill="#000000" stroke="none">
<path d="M3250 2160 c-65 -13 -141 -48 -194 -89 l-52 -40 -76 23 c-115 36
-241 50 -376 43 -122 -7 -146 -11 -278 -54 l-80 -26 -85 33 c-108 42 -234 52
-324 25 -258 -75 -555 -363 -726 -705 -64 -128 -92 -237 -93 -360 0 -167 60
-353 139 -430 l34 -33 41 28 c23 16 47 36 53 45 7 9 32 39 56 66 l43 49 -7
-33 c-7 -35 -4 -37 26 -22 16 9 21 7 28 -12 5 -13 27 -62 50 -110 30 -66 44
-86 56 -82 10 4 15 0 15 -14 0 -14 9 -21 31 -26 l32 -6 -7 -183 c-3 -100 -9
-197 -12 -215 l-6 -32 1161 0 c751 0 1161 3 1161 10 0 5 -7 27 -15 47 -12 33
-35 308 -35 429 0 38 18 45 41 17 31 -36 157 -129 225 -165 132 -69 200 -62
238 24 84 191 78 469 -15 735 -142 405 -500 897 -740 1019 -95 48 -212 65
-309 44z m-1659 -1646 c-10 -42 -17 -54 -32 -54 -12 0 -21 9 -25 25 -7 29 3
46 15 26 6 -10 10 -9 15 4 3 9 6 24 6 34 0 9 6 23 12 29 20 20 22 -3 9 -64z"/>
</g>
</svg>
