<?xml version="1.0" standalone="no"?>
<!DOCTYPE svg PUBLIC "-//W3C//DTD SVG 20010904//EN"
 "http://www.w3.org/TR/2001/REC-SVG-20010904/DTD/svg10.dtd">
<svg version="1.0" xmlns="http://www.w3.org/2000/svg"
 width="480.000000pt" height="360.000000pt" viewBox="0 0 480.000000 360.000000"
 preserveAspectRatio="xMidYMid meet">
<metadata>
Created by potrace 1.16, written by Peter Selinger 2001-2019
</metadata>
<rect width="1" height="360" fill="#000000"/>
<rect x="479" width="1" height="360" fill="#000000"/>
<rect width="480" height="1" fill="#000000"/>
<rect y="359" width="480" height="1" fill="#000000"/>
<g transform="translate(0.000000,360.000000) scale(0.100000,-0.100000)"
fill="#000000" stroke="none">
<path d="M0 1800 l0 -1800 2400 0 2400 0 0 1800 0 1800 -959 0 -960 0 6 -137
c21 -512 -232 -965 -675 -1208 -82 -44 -124 -61 -282 -113 -66 -22 -241 -42
-364 -42 -100 0 -257 27 -364 62 -103 33 -253 107 -328 161 -62 45 -240 207
-248 227 -3 8 -19 31 -36 50 -16 19 -30 38 -30 41 0 3 -14 24 -31 45 -34 44
-126 226 -133 264 -3 14 -14 52 -25 84 -33 95 -43 178 -42 379 l0 187 -165 0
-164 0 0 -1800z"/>
</g>
</svg>
