<?xml version="1.0" standalone="no"?>
<!DOCTYPE svg PUBLIC "-//W3C//DTD SVG 20010904//EN"
 "http://www.w3.org/TR/2001/REC-SVG-20010904/DTD/svg10.dtd">
<svg version="1.0" xmlns="http://www.w3.org/2000/svg"
 width="480.000000pt" height="360.000000pt" viewBox="0 0 480.000000 360.000000"
 preserveAspectRatio="xMidYMid meet">
<metadata>
Created by potrace 1.16, written by Peter Selinger 2001-2019
</metadata>
<rect width="1" height="360" fill="#000000"/>
<rect x="479" width="1" height="360" fill="#000000"/>
<rect width="480" height="1" fill="#000000"/>
<rect y="359" width="480" height="1" fill="#000000"/>
<g transform="translate(0.000000,360.000000) scale(0.100000,-0.100000)"
fill="#000000" stroke="none">
<path d="M2016 2192 c-9 -17 -16 -51 -16 -77 0 -29 -4 -45 -12 -46 -7 -1 -48
-1 -90 -1 -43 0 -78 -4 -78 -9 0 -4 14 -24 31 -44 l31 -35 -31 -46 c-37 -56
-45 -94 -39 -182 9 -127 85 -236 206 -297 35 -17 66 -41 75 -58 19 -33 76 -60
94 -45 16 13 28 5 93 -65 30 -33 71 -70 92 -83 20 -13 39 -32 43 -44 4 -12 15
-20 29 -20 16 0 33 -17 65 -66 53 -81 104 -118 195 -145 378 -111 513 -156
634 -211 75 -33 106 -35 146 -9 20 14 39 17 67 14 21 -3 44 -1 51 5 7 6 49 15
93 21 94 13 144 36 165 73 25 46 6 62 -79 66 -39 2 -71 5 -71 7 0 14 71 104
116 147 56 53 65 76 39 98 -12 10 -24 11 -50 2 -40 -12 -43 -4 -18 35 16 24
21 63 24 193 2 74 -23 180 -41 180 -5 0 -23 12 -41 27 -29 25 -84 49 -170 75
-31 10 -44 8 -90 -12 -30 -12 -94 -33 -144 -47 -49 -13 -126 -36 -170 -52 -44
-16 -118 -36 -164 -46 -46 -9 -102 -23 -124 -31 -48 -17 -57 -11 -29 19 16 17
18 26 11 40 -7 11 -7 29 0 52 27 86 31 102 31 108 0 3 -21 7 -47 9 -71 5 -67
23 20 95 33 28 35 47 5 40 -155 -33 -198 -40 -203 -35 -7 7 8 38 58 120 17 29
39 50 58 57 48 17 31 61 -24 61 -22 0 -44 -14 -86 -54 -85 -82 -176 -163 -198
-175 -22 -11 -123 8 -172 33 -48 25 -55 42 -53 122 1 64 -1 76 -19 87 -10 6
-37 39 -58 72 -48 74 -68 93 -108 101 -28 5 -33 2 -47 -24z"/>
</g>
</svg>
