<?xml version="1.0" standalone="no"?>
<!DOCTYPE svg PUBLIC "-//W3C//DTD SVG 20010904//EN"
 "http://www.w3.org/TR/2001/REC-SVG-20010904/DTD/svg10.dtd">
<svg version="1.0" xmlns="http://www.w3.org/2000/svg"
 width="480.000000pt" height="360.000000pt" viewBox="0 0 480.000000 360.000000"
 preserveAspectRatio="xMidYMid meet">
<metadata>
Created by potrace 1.16, written by Peter Selinger 2001-2019
</metadata>
<rect width="1" height="360" fill="#000000"/>
<rect x="479" width="1" height="360" fill="#000000"/>
<rect width="480" height="1" fill="#000000"/>
<rect y="359" width="480" height="1" fill="#000000"/>
<g transform="translate(0.000000,360.000000) scale(0.100000,-0.100000)"
fill="#000000" stroke="none">
<path d="M0 1800 l0 -1800 1164 0 1164 0 33 53 c18 28 70 122 115 208 45 86
99 179 119 207 21 27 36 54 34 58 -2 4 -15 9 -28 10 -14 2 -34 12 -45 24 -20
19 -21 36 -28 288 -8 288 -15 401 -27 421 -5 7 -53 19 -112 27 -57 8 -112 17
-122 20 -25 8 -136 112 -152 143 -7 14 -16 52 -20 84 -9 67 2 90 72 152 l46
41 -17 33 c-22 42 -12 53 17 17 l22 -27 25 26 c34 37 68 53 126 60 42 6 54 3
87 -19 20 -14 37 -22 37 -17 0 5 -6 11 -14 14 -8 3 -20 18 -28 33 -7 15 -26
35 -43 44 -39 22 -42 42 -11 74 15 14 26 29 26 35 0 10 -79 71 -93 71 -5 0 -6
-11 -3 -25 6 -23 4 -24 -26 -18 -18 3 -41 13 -50 21 -16 14 -18 13 -18 -3 0
-27 -25 -2 -50 51 -14 29 -28 44 -41 44 -27 0 -101 30 -124 51 -19 17 -87 43
-185 70 -47 13 -162 68 -192 92 -10 8 -18 21 -18 30 0 23 -28 35 -69 30 -31
-4 -41 0 -73 31 -20 20 -43 36 -50 36 -7 0 -19 4 -27 9 -10 7 -4 15 25 35 36
25 37 26 13 26 -26 0 -78 44 -62 53 4 2 22 7 38 11 l30 8 -30 23 c-25 21 -27
25 -12 31 16 6 17 8 2 31 -23 35 -12 70 46 142 55 67 79 81 140 81 29 0 50 9
84 34 24 19 70 44 102 56 51 20 71 22 169 17 76 -4 122 -11 144 -22 29 -15 32
-20 27 -51 -3 -19 -22 -61 -42 -93 -40 -64 -54 -126 -36 -159 l11 -20 52 20
c28 10 92 23 142 27 121 11 138 19 175 84 85 149 203 259 334 312 109 44 240
59 446 52 218 -7 285 -33 501 -192 153 -113 221 -153 435 -260 95 -48 114 -63
95 -75 -33 -22 -100 -33 -195 -34 -112 -1 -159 11 -285 74 -105 53 -161 70
-231 70 -100 0 -99 2 -93 -158 6 -164 9 -182 31 -182 9 0 129 -25 267 -55 238
-53 405 -100 471 -133 83 -40 195 -149 195 -189 0 -7 -16 -21 -35 -30 -35 -17
-43 -27 -26 -37 17 -11 0 -42 -30 -53 -19 -8 -29 -18 -29 -32 0 -12 -4 -21
-10 -21 -35 0 11 -27 163 -93 94 -41 192 -84 217 -96 l45 -21 -70 6 c-38 3
-98 12 -133 20 -88 20 -103 18 -62 -8 68 -41 126 -67 190 -83 92 -23 100 -27
65 -35 -29 -6 -28 -7 25 -24 30 -11 61 -21 68 -24 9 -3 12 207 12 1032 l0
1036 -2400 0 -2400 0 0 -1800z"/>
<path d="M2520 1793 c0 -13 29 -38 35 -31 3 3 -4 13 -15 23 -11 10 -20 13 -20
8z"/>
<path d="M2716 1731 c-40 -20 -67 -26 -126 -26 0 0 9 -24 20 -53 25 -66 25
-113 1 -143 -19 -23 -19 -24 15 -63 19 -22 44 -61 56 -88 12 -26 25 -48 29
-48 4 0 22 12 39 27 31 26 32 29 27 86 -5 54 -3 61 23 90 24 27 26 35 18 66
-6 19 -21 51 -35 73 -20 29 -23 41 -14 52 7 8 8 22 4 33 -8 19 -9 19 -57 -6z"/>
<path d="M4750 1506 c0 -2 11 -11 25 -20 24 -16 25 -16 25 4 0 15 -7 20 -25
20 -14 0 -25 -2 -25 -4z"/>
<path d="M3935 1433 c6 -6 87 -52 180 -103 94 -50 176 -97 183 -104 26 -25
-32 -15 -110 20 -43 18 -114 50 -159 70 -45 19 -83 33 -86 30 -3 -2 5 -10 17
-16 47 -25 6 -20 -97 13 -170 55 -164 55 -105 2 57 -51 62 -66 13 -41 -41 22
-46 20 -26 -10 9 -14 15 -28 12 -30 -2 -2 -30 14 -61 37 -34 24 -61 38 -67 32
-5 -5 11 -42 37 -88 83 -143 189 -380 209 -466 4 -17 15 -29 28 -32 12 -2 30
-8 40 -12 15 -6 17 -1 17 36 0 73 20 171 45 226 30 66 76 97 175 118 l75 16
30 -33 c20 -22 35 -53 44 -91 7 -32 19 -61 26 -64 8 -2 36 2 62 11 65 21 233
46 316 46 l67 0 0 70 c0 51 -3 68 -12 65 -7 -3 -56 27 -108 67 -81 61 -182
118 -208 118 -5 0 18 -27 49 -59 44 -45 56 -64 52 -80 -3 -12 -8 -21 -11 -21
-4 0 -27 19 -52 43 -66 63 -125 84 -99 35 9 -16 -2 -13 -54 16 -35 20 -70 36
-78 36 -7 0 -77 31 -154 70 -130 65 -214 97 -190 73z"/>
<path d="M4749 1406 c14 -15 19 -26 12 -30 -7 -5 -6 -18 4 -43 22 -52 18 -62
-11 -29 -14 15 -28 25 -32 22 -3 -4 -2 -10 4 -14 16 -10 44 -68 44 -90 0 -10
7 -27 15 -38 13 -17 14 -7 15 96 l0 116 -29 17 c-40 24 -48 21 -22 -7z"/>
<path d="M2921 609 c-51 -226 -82 -293 -227 -489 l-85 -115 203 -3 203 -3 72
78 c40 43 89 108 108 145 l36 68 -45 87 c-40 78 -214 324 -234 331 -4 1 -18
-43 -31 -99z"/>
<path d="M4140 327 c17 -16 124 -77 137 -77 12 0 -46 38 -102 67 -27 14 -43
18 -35 10z"/>
<path d="M4784 192 c-11 -6 -47 -112 -41 -118 1 -1 14 -5 30 -9 l27 -7 0 71
c0 39 -1 71 -2 71 -2 0 -8 -4 -14 -8z"/>
</g>
</svg>
