<?xml version="1.0" standalone="no"?>
<!DOCTYPE svg PUBLIC "-//W3C//DTD SVG 20010904//EN"
 "http://www.w3.org/TR/2001/REC-SVG-20010904/DTD/svg10.dtd">
<svg version="1.0" xmlns="http://www.w3.org/2000/svg"
 width="480.000000pt" height="360.000000pt" viewBox="0 0 480.000000 360.000000"
 preserveAspectRatio="xMidYMid meet">
<metadata>
Created by potrace 1.16, written by Peter Selinger 2001-2019
</metadata>
<rect width="1" height="360" fill="#000000"/>
<rect x="479" width="1" height="360" fill="#000000"/>
<rect width="480" height="1" fill="#000000"/>
<rect y="359" width="480" height="1" fill="#000000"/>
<g transform="translate(0.000000,360.000000) scale(0.100000,-0.100000)"
fill="#000000" stroke="none">
<path d="M0 1800 l0 -1800 824 0 824 0 52 47 c100 90 198 237 240 359 16 46
17 57 5 91 -8 21 -14 63 -15 94 0 46 7 69 39 130 21 41 47 100 57 132 11 35
26 63 39 70 11 6 56 16 100 22 l80 11 -76 36 c-128 60 -142 101 -80 234 l30
65 -33 34 c-40 40 -65 107 -73 197 -5 59 -3 71 20 110 14 24 34 52 46 62 24
22 28 61 6 70 -8 3 -15 17 -15 32 0 31 -41 144 -52 144 -5 0 -8 -9 -8 -20 0
-31 -18 -23 -25 12 -6 25 -9 28 -16 15 -16 -28 -35 -10 -31 28 3 22 0 35 -7
35 -8 0 -7 8 2 28 8 15 17 59 20 99 5 58 3 71 -8 67 -11 -5 -11 4 1 52 l15 57
-33 34 c-28 29 -31 36 -20 53 6 11 12 33 12 49 0 30 14 41 53 41 12 0 29 4 37
10 12 8 12 11 -3 28 -26 29 -21 46 28 91 49 45 61 48 91 26 32 -24 52 -18 73
23 25 50 60 66 112 52 22 -6 42 -18 45 -26 15 -50 13 -49 42 -21 38 36 55 34
92 -12 29 -35 35 -38 68 -34 28 4 44 0 66 -18 28 -22 29 -24 22 -98 -5 -67 -4
-77 15 -97 l21 -23 -21 -35 -22 -35 20 -97 c12 -54 18 -100 15 -103 -4 -3 -9
0 -11 7 -3 6 -9 12 -15 12 -16 0 -2 -83 22 -130 24 -47 25 -54 4 -46 -13 5
-15 1 -12 -19 6 -29 1 -31 -23 -9 -17 15 -18 15 -24 -9 -4 -16 -12 -24 -20
-21 -7 3 -17 -1 -21 -8 -15 -23 -34 -82 -34 -106 0 -12 -7 -25 -15 -28 -8 -4
-15 -10 -15 -15 0 -5 39 -55 87 -112 162 -192 178 -231 189 -457 l7 -149 50
-56 c46 -52 51 -55 67 -40 26 23 45 10 58 -42 17 -60 46 -86 88 -78 25 4 38 0
60 -19 24 -20 26 -26 16 -39 -11 -13 -9 -18 12 -32 28 -19 34 -53 14 -85 -10
-15 -9 -22 3 -37 9 -10 26 -35 38 -57 20 -35 21 -44 11 -92 -9 -45 -19 -60
-54 -88 -46 -38 -85 -56 -122 -56 -27 0 -28 3 -14 31 7 13 7 19 0 19 -15 0
-12 23 10 71 11 24 20 56 20 72 0 24 -3 27 -26 21 -18 -5 -31 -1 -47 14 -12
11 -31 22 -41 24 -19 3 -45 74 -46 124 0 19 -7 22 -57 27 -32 2 -61 3 -64 1
-3 -2 1 -38 8 -81 20 -110 12 -478 -11 -547 -9 -27 -16 -57 -16 -68 0 -17 36
-18 1025 -18 l1025 0 0 1800 0 1800 -2400 0 -2400 0 0 -1800z"/>
<path d="M2522 1845 c0 -16 2 -22 5 -12 2 9 2 23 0 30 -3 6 -5 -1 -5 -18z"/>
<path d="M2130 1783 c0 -10 4 -24 9 -32 13 -21 24 5 11 29 -13 25 -20 26 -20
3z"/>
<path d="M2757 804 c-10 -10 -9 -54 2 -54 5 0 14 7 21 16 11 12 11 18 -1 30
-9 8 -18 11 -22 8z"/>
<path d="M2024 443 c-12 -27 -36 -91 -54 -143 -38 -114 -98 -261 -111 -274
-20 -21 -5 -26 79 -26 l87 0 3 123 c3 116 15 263 28 335 9 47 -8 39 -32 -15z"/>
</g>
</svg>
