<?xml version="1.0" standalone="no"?>
<!DOCTYPE svg PUBLIC "-//W3C//DTD SVG 20010904//EN"
 "http://www.w3.org/TR/2001/REC-SVG-20010904/DTD/svg10.dtd">
<svg version="1.0" xmlns="http://www.w3.org/2000/svg"
 width="480.000000pt" height="360.000000pt" viewBox="0 0 480.000000 360.000000"
 preserveAspectRatio="xMidYMid meet">
<metadata>
Created by potrace 1.16, written by Peter Selinger 2001-2019
</metadata>
<rect width="1" height="360" fill="#000000"/>
<rect x="479" width="1" height="360" fill="#000000"/>
<rect width="480" height="1" fill="#000000"/>
<rect y="359" width="480" height="1" fill="#000000"/>
<g transform="translate(0.000000,360.000000) scale(0.100000,-0.100000)"
fill="#000000" stroke="none">
<path d="M0 1800 l0 -1800 2400 0 2400 0 0 1800 0 1800 -2400 0 -2400 0 0
-1800z m2517 1082 c17 -9 63 -45 103 -79 67 -59 70 -63 43 -63 -16 0 -45 11
-65 25 -20 14 -47 26 -60 28 -20 2 -23 -2 -20 -28 4 -41 14 -48 110 -80 98
-34 111 -45 88 -79 l-16 -25 56 -18 c42 -13 51 -19 37 -24 -13 -6 -14 -8 -3
-9 19 -1 65 -38 57 -46 -3 -3 -16 0 -29 7 l-23 12 23 -25 c25 -27 30 -47 7
-28 -11 10 -18 9 -30 -3 -11 -11 -31 -15 -75 -13 -36 2 -57 0 -54 -6 4 -6 -8
-8 -27 -6 -28 2 -35 -1 -37 -18 -4 -27 23 -94 38 -94 6 0 20 15 31 34 20 35
68 62 92 53 15 -6 27 -58 27 -119 0 -42 -8 -39 154 -62 56 -9 103 -21 107 -28
12 -18 -18 -21 -87 -9 -32 6 -59 9 -61 7 -2 -2 21 -18 52 -35 l55 -31 112 20
c162 29 358 26 358 -6 0 -8 7 -14 16 -14 8 0 12 -4 9 -10 -9 -14 13 -50 30
-50 8 0 15 -7 15 -15 0 -11 7 -14 24 -9 19 4 26 1 31 -15 4 -14 15 -21 31 -21
l25 0 -27 -25 -28 -26 23 -6 c16 -4 20 -10 15 -22 -3 -9 -7 -22 -7 -28 0 -7
-5 -13 -10 -13 -5 0 -4 -7 3 -15 10 -12 9 -15 -4 -15 -10 0 -15 -4 -11 -9 9
-16 -32 -23 -54 -9 -17 11 -23 9 -41 -14 -11 -15 -30 -30 -41 -33 -15 -5 -17
-10 -9 -20 17 -20 -49 -13 -83 10 -39 25 -45 12 -8 -16 17 -13 31 -27 31 -31
0 -5 -24 9 -52 31 -61 45 -86 53 -259 80 -70 12 -148 30 -175 42 -32 14 -73
22 -116 23 l-67 2 7 -26 c13 -47 8 -102 -10 -113 -14 -9 -22 -6 -42 12 -24 22
-24 22 -30 3 -4 -11 -14 -26 -22 -33 -25 -21 -44 14 -44 82 l0 58 -55 6 c-30
4 -91 2 -135 -4 -94 -14 -120 -6 -120 39 0 16 -3 31 -7 33 -9 6 -223 24 -363
31 -85 5 -91 4 -55 -7 22 -7 49 -17 60 -23 11 -7 34 -15 51 -18 25 -6 31 -11
27 -27 -3 -10 -7 -19 -10 -19 -7 0 -172 47 -257 74 l-79 25 -28 -21 c-28 -21
-29 -21 -49 -3 -11 10 -20 24 -20 31 0 8 -19 15 -47 19 -94 12 -104 16 -123
48 -11 17 -16 35 -13 40 6 10 153 3 258 -13 62 -9 196 -22 424 -40 l133 -11
37 42 c20 24 53 74 74 112 36 67 37 72 27 121 -5 28 -11 66 -13 85 -1 19 -9
37 -17 41 -8 4 -27 14 -43 21 -51 24 -43 72 19 107 16 9 16 12 4 16 -8 3 -51
17 -95 32 -89 30 -121 48 -136 76 -15 28 -2 58 26 58 18 0 22 4 18 21 -5 19
-2 20 43 17 42 -3 49 -6 46 -22 -3 -15 1 -17 22 -12 46 11 76 25 76 35 0 18
54 74 85 87 42 18 114 16 152 -4z"/>
<path d="M2357 2539 c-21 -12 -21 -37 -1 -64 13 -17 16 -18 24 -5 22 35 6 85
-23 69z"/>
<path d="M2397 2251 c-9 -21 -34 -67 -56 -101 -43 -66 -50 -90 -27 -90 27 0
156 114 156 138 0 16 -42 92 -51 92 -4 0 -14 -17 -22 -39z"/>
<path d="M2760 2171 c0 -12 104 -51 133 -50 15 0 3 10 -38 30 -61 29 -95 37
-95 20z"/>
</g>
</svg>
