<?xml version="1.0" standalone="no"?>
<!DOCTYPE svg PUBLIC "-//W3C//DTD SVG 20010904//EN"
 "http://www.w3.org/TR/2001/REC-SVG-20010904/DTD/svg10.dtd">
<svg version="1.0" xmlns="http://www.w3.org/2000/svg"
 width="480.000000pt" height="360.000000pt" viewBox="0 0 480.000000 360.000000"
 preserveAspectRatio="xMidYMid meet">
<metadata>
Created by potrace 1.16, written by Peter Selinger 2001-2019
</metadata>
<rect width="1" height="360" fill="#000000"/>
<rect x="479" width="1" height="360" fill="#000000"/>
<rect width="480" height="1" fill="#000000"/>
<rect y="359" width="480" height="1" fill="#000000"/>
<g transform="translate(0.000000,360.000000) scale(0.100000,-0.100000)"
fill="#000000" stroke="none">
<path d="M3951 3553 c16 -96 18 -92 -87 -158 -104 -64 -246 -182 -265 -218 -7
-12 -32 -52 -55 -89 -24 -37 -44 -71 -44 -75 0 -5 -8 -24 -19 -43 -10 -19 -33
-78 -51 -130 -27 -79 -34 -118 -41 -230 -4 -74 -11 -145 -15 -158 -5 -18 -3
-21 11 -16 16 6 17 1 10 -64 -7 -76 2 -92 25 -44 l14 27 3 -30 c4 -40 24 -138
30 -149 3 -4 9 -3 13 4 4 7 12 -1 19 -22 24 -65 40 -93 40 -75 1 23 8 22 36
-10 20 -22 26 -25 34 -14 7 11 10 9 16 -8 9 -28 28 -27 20 2 -8 26 86 -72 110
-115 15 -26 14 -29 -20 -63 -20 -19 -42 -35 -50 -35 -8 0 -15 -4 -15 -9 0 -20
69 -91 114 -118 36 -20 52 -37 58 -58 4 -17 34 -59 66 -95 33 -36 79 -95 103
-131 60 -90 140 -159 176 -154 24 3 101 28 155 50 13 5 22 -2 35 -29 l17 -36
-44 -40 c-24 -22 -47 -40 -51 -40 -3 0 -17 -10 -31 -23 -14 -12 -55 -49 -92
-82 -37 -33 -92 -72 -123 -87 -31 -15 -59 -31 -62 -35 -3 -5 -18 -16 -33 -25
-15 -10 -29 -31 -33 -48 -4 -17 -12 -33 -18 -35 -7 -2 -86 -9 -177 -15 -184
-13 -236 -22 -297 -51 -51 -25 -74 -58 -88 -127 l-11 -53 -99 -45 c-55 -25
-113 -52 -128 -61 -16 -8 -41 -18 -55 -22 -21 -6 -26 -13 -26 -40 -1 -19 -7
-37 -16 -42 -94 -51 -247 -116 -254 -109 -10 10 -15 26 -117 429 -44 173 -83
319 -87 325 -5 6 -13 23 -20 38 -10 24 -8 30 16 56 95 103 167 197 211 275 18
31 34 57 36 57 4 0 35 -66 102 -215 64 -143 162 -338 179 -354 26 -27 26 -3 0
92 -27 97 -139 442 -183 559 -21 58 -23 73 -14 101 26 77 20 194 -15 299 -17
53 -67 103 -113 113 -16 3 -34 12 -39 18 -6 7 -34 72 -63 145 -32 82 -63 144
-80 161 -15 15 -43 65 -62 112 -19 46 -45 104 -57 129 -20 42 -21 43 -16 11 5
-26 3 -32 -8 -28 -19 7 -31 -45 -17 -71 21 -39 41 -108 41 -142 0 -19 14 -76
30 -125 17 -50 37 -109 44 -132 l14 -42 -40 -20 c-30 -15 -52 -18 -92 -14 -44
5 -55 2 -67 -13 -8 -11 -27 -28 -42 -38 -35 -22 -81 -118 -71 -150 4 -11 20
-36 35 -54 34 -39 34 -37 10 -63 -48 -52 -84 -153 -126 -364 -24 -115 -46
-239 -50 -275 -8 -77 6 -229 40 -435 14 -82 34 -211 45 -285 42 -288 51 -346
56 -362 5 -17 75 -18 1285 -18 l1279 0 0 1800 0 1800 -428 0 -429 0 8 -47z
m-199 -1480 c37 -40 49 -69 42 -98 -6 -25 -24 -25 -24 0 0 8 -13 36 -30 62
-16 26 -30 51 -30 55 0 15 16 8 42 -19z"/>
</g>
</svg>
