<?xml version="1.0" standalone="no"?>
<!DOCTYPE svg PUBLIC "-//W3C//DTD SVG 20010904//EN"
 "http://www.w3.org/TR/2001/REC-SVG-20010904/DTD/svg10.dtd">
<svg version="1.0" xmlns="http://www.w3.org/2000/svg"
 width="480.000000pt" height="360.000000pt" viewBox="0 0 480.000000 360.000000"
 preserveAspectRatio="xMidYMid meet">
<metadata>
Created by potrace 1.16, written by Peter Selinger 2001-2019
</metadata>
<rect width="1" height="360" fill="#000000"/>
<rect x="479" width="1" height="360" fill="#000000"/>
<rect width="480" height="1" fill="#000000"/>
<rect y="359" width="480" height="1" fill="#000000"/>
<g transform="translate(0.000000,360.000000) scale(0.100000,-0.100000)"
fill="#000000" stroke="none">
<path d="M1604 3423 c1 -244 -21 -359 -107 -558 -26 -61 -97 -183 -140 -245
-30 -43 -181 -200 -222 -230 -11 -8 -41 -32 -66 -53 -112 -91 -366 -198 -539
-227 -137 -23 -408 -15 -513 16 -16 5 -17 -50 -17 -1060 l0 -1066 1343 0 1343
0 27 189 c20 142 38 222 71 327 74 233 89 299 141 619 14 88 32 187 39 220 9
38 11 65 5 77 -5 9 -9 48 -9 86 0 93 -9 132 -29 132 -9 0 -29 9 -45 19 -28 19
-29 19 -49 0 -13 -12 -28 -17 -43 -13 -17 4 -33 -2 -54 -20 -43 -36 -76 -39
-249 -26 l-152 11 -30 -26 c-17 -14 -40 -25 -51 -25 -21 0 -21 -2 -6 -71 5
-24 -49 -23 -79 1 -96 75 -68 155 72 204 54 18 109 27 235 36 177 12 201 20
181 58 -16 30 -14 40 10 47 12 4 19 13 16 23 -7 34 22 68 92 106 77 43 104 67
129 117 15 29 65 65 115 82 6 2 4 12 -4 26 -12 19 -12 24 4 35 25 19 21 26
-16 26 -30 0 -38 6 -67 53 -19 28 -41 57 -50 64 -13 10 -12 14 8 35 27 30 28
38 3 38 -11 0 -23 5 -26 10 -4 6 -10 8 -15 5 -12 -7 -40 41 -40 70 0 14 -4 25
-10 25 -20 0 -9 47 23 101 l32 54 -32 65 c-38 76 -43 125 -13 135 34 11 287
-63 329 -96 13 -11 34 -19 46 -19 41 0 96 -30 149 -83 63 -62 88 -120 111
-264 12 -68 27 -120 51 -168 28 -57 37 -91 48 -180 9 -81 20 -128 43 -180 78
-177 91 -270 86 -645 -2 -192 3 -374 12 -393 4 -10 5 -20 2 -24 -11 -10 -37 6
-47 29 -8 17 -9 8 -4 -34 8 -88 -30 -73 -42 16 -4 26 -11 49 -16 52 -17 11 0
-62 37 -156 20 -52 90 -203 155 -335 64 -132 133 -284 151 -337 l34 -98 418 0
417 0 0 1800 0 1800 -1598 0 -1598 0 0 -177z"/>
<path d="M3333 1585 c-17 -96 -6 -174 28 -215 l28 -35 0 45 c0 25 -10 95 -23
155 l-23 110 -10 -60z"/>
</g>
</svg>
