<?xml version="1.0" standalone="no"?>
<!DOCTYPE svg PUBLIC "-//W3C//DTD SVG 20010904//EN"
 "http://www.w3.org/TR/2001/REC-SVG-20010904/DTD/svg10.dtd">
<svg version="1.0" xmlns="http://www.w3.org/2000/svg"
 width="480.000000pt" height="360.000000pt" viewBox="0 0 480.000000 360.000000"
 preserveAspectRatio="xMidYMid meet">
<metadata>
Created by potrace 1.16, written by Peter Selinger 2001-2019
</metadata>
<rect width="1" height="360" fill="#000000"/>
<rect x="479" width="1" height="360" fill="#000000"/>
<rect width="480" height="1" fill="#000000"/>
<rect y="359" width="480" height="1" fill="#000000"/>
<g transform="translate(0.000000,360.000000) scale(0.100000,-0.100000)"
fill="#000000" stroke="none">
<path d="M0 1800 l0 -1800 976 0 c926 0 976 1 969 17 -14 35 -18 263 -6 350 6
49 16 147 21 220 6 72 20 166 32 210 24 90 25 168 0 233 -14 36 -16 74 -14
191 1 81 -1 156 -6 169 -7 19 -12 15 -54 -48 -50 -75 -97 -117 -147 -132 -25
-7 -58 0 -179 40 -81 26 -185 54 -232 60 -99 15 -118 23 -130 55 -5 13 -19 25
-32 27 -16 2 -24 11 -26 29 -3 26 -4 26 -55 16 -73 -13 -412 15 -434 36 -3 4
2 22 11 42 l17 35 34 -15 c31 -12 35 -12 35 2 0 12 7 14 30 10 25 -5 30 -3 30
13 0 26 10 31 112 46 50 7 92 15 95 17 2 3 -7 24 -19 48 -18 35 -29 45 -53 47
-17 2 -36 8 -42 14 -19 16 -16 53 7 73 13 12 20 31 20 57 l0 38 51 0 c91 0
135 -17 179 -70 44 -53 49 -79 21 -118 -10 -15 -21 -36 -25 -47 -3 -11 -17
-27 -32 -36 l-25 -15 41 -19 41 -19 25 28 c23 24 28 26 47 13 16 -9 29 -11 47
-4 21 8 44 0 130 -41 174 -83 270 -107 270 -70 0 7 20 62 44 121 36 89 43 114
36 139 -13 42 0 66 80 155 40 43 80 94 91 114 10 20 33 49 51 64 18 15 41 41
51 58 10 16 43 54 73 84 64 65 70 88 20 80 -20 -3 -41 0 -49 6 -22 17 -87 105
-87 117 0 6 -11 16 -25 22 -27 12 -32 27 -14 45 14 14 -6 73 -24 73 -7 0 -7
-4 1 -12 25 -25 11 -31 -15 -6 -16 14 -39 29 -53 33 -38 11 -69 44 -76 82 -5
25 -11 33 -21 28 -11 -4 -13 -1 -9 12 4 9 11 36 16 60 6 24 26 84 46 133 27
68 46 98 75 123 l38 33 -12 73 c-9 61 -8 74 4 82 20 12 126 11 150 -2 14 -7
29 -7 52 0 26 9 40 26 76 96 24 47 52 92 62 101 15 14 18 13 31 -5 15 -21 16
-21 62 20 25 23 52 39 60 36 21 -8 107 -129 148 -209 49 -97 57 -141 29 -179
-12 -15 -21 -30 -21 -32 0 -2 18 -22 39 -45 86 -90 146 -281 181 -577 47 -394
47 -397 89 -519 23 -66 57 -149 75 -186 41 -79 71 -174 80 -252 9 -71 -3 -75
-40 -13 -42 72 -36 52 13 -44 56 -112 61 -144 34 -267 -25 -117 -41 -252 -41
-347 0 -61 -3 -71 -27 -93 -35 -32 -53 -85 -53 -159 -1 -60 -22 -150 -56 -236
-17 -45 -17 -48 7 -175 l24 -129 928 -3 927 -2 0 1800 0 1800 -2400 0 -2400 0
0 -1800z"/>
<path d="M880 1532 c0 -5 7 -13 16 -16 10 -4 14 -1 12 6 -5 15 -28 23 -28 10z"/>
<path d="M2004 1229 c2 -83 7 -153 9 -155 2 -3 18 3 36 13 28 16 31 22 31 68
0 78 -48 225 -73 225 -5 0 -6 -66 -3 -151z"/>
</g>
</svg>
