<?xml version="1.0" standalone="no"?>
<!DOCTYPE svg PUBLIC "-//W3C//DTD SVG 20010904//EN"
 "http://www.w3.org/TR/2001/REC-SVG-20010904/DTD/svg10.dtd">
<svg version="1.0" xmlns="http://www.w3.org/2000/svg"
 width="480.000000pt" height="360.000000pt" viewBox="0 0 480.000000 360.000000"
 preserveAspectRatio="xMidYMid meet">
<metadata>
Created by potrace 1.16, written by Peter Selinger 2001-2019
</metadata>
<rect width="1" height="360" fill="#000000"/>
<rect x="479" width="1" height="360" fill="#000000"/>
<rect width="480" height="1" fill="#000000"/>
<rect y="359" width="480" height="1" fill="#000000"/>
<g transform="translate(0.000000,360.000000) scale(0.100000,-0.100000)"
fill="#000000" stroke="none">
<path d="M451 3536 c-17 -35 -31 -67 -31 -71 0 -4 -31 -71 -70 -149 -38 -78
-70 -154 -70 -167 0 -14 -7 -34 -15 -45 -8 -10 -15 -28 -15 -39 0 -12 -10 -39
-22 -60 -17 -32 -22 -58 -23 -130 -1 -49 -5 -146 -9 -215 -8 -119 7 -490 21
-526 3 -10 13 -14 25 -11 27 8 38 -28 38 -124 0 -46 4 -79 10 -79 6 0 10 4 10
10 0 17 61 140 69 140 15 0 24 -63 21 -147 -1 -46 1 -83 4 -83 3 0 16 24 28
53 22 51 23 51 28 22 3 -18 11 -30 20 -30 18 0 38 -57 42 -122 4 -56 18 -63
31 -13 16 61 26 3 10 -63 -9 -43 -10 -64 -2 -78 6 -11 8 -27 5 -35 -11 -28
-35 -457 -41 -719 -5 -243 -24 -549 -45 -745 -6 -47 -10 -91 -10 -97 0 -10
260 -13 1265 -13 l1264 0 16 53 c72 242 103 616 74 887 -6 56 -9 103 -7 105 2
2 30 -2 64 -9 33 -7 89 -14 125 -15 82 -2 125 20 218 112 159 158 188 368 65
462 -26 20 -33 30 -25 38 13 13 15 57 2 57 -5 0 -15 -10 -23 -22 l-15 -23 -41
28 c-45 32 -158 55 -206 43 -45 -11 -111 -81 -151 -161 -32 -63 -39 -87 -43
-156 -4 -72 -7 -82 -30 -97 -24 -15 -26 -15 -36 2 -38 64 -21 61 -257 47 -242
-14 -368 -25 -516 -47 l-103 -15 -122 73 c-68 40 -144 84 -170 98 -85 46 -96
59 -131 160 l-34 95 -50 3 c-47 3 -50 5 -70 46 -19 38 -20 51 -12 127 5 46 6
112 2 147 -5 53 -3 62 11 62 19 0 20 13 4 148 -11 100 -11 103 9 117 12 8 24
28 28 45 5 24 14 32 47 42 51 15 57 32 26 66 -48 51 -50 64 -15 89 37 28 38
28 30 6 -4 -10 21 6 55 36 60 51 64 53 77 35 13 -18 14 -17 15 11 1 38 26 87
33 65 3 -8 8 -22 10 -30 3 -8 6 25 6 74 l1 90 31 -30 31 -29 -25 51 c-14 28
-35 98 -47 155 -24 120 -66 201 -155 298 -30 32 -55 67 -55 78 0 19 -61 82
-141 146 l-46 37 -480 0 -480 0 -32 -64z m1150 -913 c-8 -15 -10 -15 -11 -2 0
17 10 32 18 25 2 -3 -1 -13 -7 -23z m-205 -590 c3 -16 9 -38 14 -50 13 -33 -4
-29 -34 8 -31 37 -34 69 -6 69 13 0 21 -9 26 -27z"/>
</g>
</svg>
