<?xml version="1.0" standalone="no"?>
<!DOCTYPE svg PUBLIC "-//W3C//DTD SVG 20010904//EN"
 "http://www.w3.org/TR/2001/REC-SVG-20010904/DTD/svg10.dtd">
<svg version="1.0" xmlns="http://www.w3.org/2000/svg"
 width="480.000000pt" height="360.000000pt" viewBox="0 0 480.000000 360.000000"
 preserveAspectRatio="xMidYMid meet">
<metadata>
Created by potrace 1.16, written by Peter Selinger 2001-2019
</metadata>
<rect width="1" height="360" fill="#000000"/>
<rect x="479" width="1" height="360" fill="#000000"/>
<rect width="480" height="1" fill="#000000"/>
<rect y="359" width="480" height="1" fill="#000000"/>
<g transform="translate(0.000000,360.000000) scale(0.100000,-0.100000)"
fill="#000000" stroke="none">
<path d="M28 3584 l-28 -15 0 -1784 0 -1785 2400 0 2400 0 0 1764 0 1765 -128
-2 -128 -2 -61 38 -61 37 -215 0 -214 0 -63 -32 c-62 -32 -64 -33 -229 -36
-184 -4 -259 5 -337 43 l-51 25 -1088 0 c-1031 0 -1087 -1 -1080 -17 21 -50
18 -60 -27 -87 -24 -14 -67 -31 -95 -37 -60 -14 -120 -1 -258 56 -44 18 -121
45 -172 59 -87 24 -105 26 -315 26 -178 -1 -229 -4 -250 -16z m2651 -586 c0
-7 -4 -22 -8 -32 -7 -19 -8 -18 -14 4 -3 13 -4 27 -1 32 8 12 24 10 23 -4z
m-631 -153 c-1 -14 -6 -25 -10 -25 -10 0 -20 38 -13 50 10 17 25 1 23 -25z
m230 -261 c-5 -28 -28 -29 -28 -1 0 13 3 27 7 31 10 10 25 -10 21 -30z m215
-90 c3 -4 1 -16 -5 -27 -9 -18 -11 -19 -20 -4 -13 25 6 49 25 31z m-683 -210
c0 -18 -14 -18 -30 1 -16 19 -3 40 16 24 8 -6 14 -18 14 -25z m60 0 c0 -8 -4
-12 -10 -9 -5 3 -10 13 -10 21 0 8 5 12 10 9 6 -3 10 -13 10 -21z m150 -3 c0
-5 -5 -22 -10 -37 -10 -25 -12 -26 -27 -11 -15 15 -15 18 2 37 19 21 35 26 35
11z m-276 -37 c4 -9 4 -19 2 -21 -8 -8 -26 8 -26 23 0 19 16 18 24 -2z m996 7
c0 -6 -4 -13 -10 -16 -5 -3 -10 1 -10 9 0 9 5 16 10 16 6 0 10 -4 10 -9z
m-260 -31 c0 -21 -15 -27 -25 -10 -7 12 2 30 16 30 5 0 9 -9 9 -20z m-210 -20
c0 -11 -4 -20 -10 -20 -5 0 -10 9 -10 20 0 11 5 20 10 20 6 0 10 -9 10 -20z
m308 -2 c-6 -18 -28 -21 -28 -4 0 9 7 16 16 16 9 0 14 -5 12 -12z m-438 -33
c20 0 26 -35 6 -35 -9 0 -16 -7 -16 -15 0 -25 -17 -17 -30 14 -13 32 -6 56 13
44 7 -4 19 -8 27 -8z m394 -21 c10 -26 7 -44 -8 -44 -20 0 -29 16 -21 40 8 24
21 26 29 4z m36 -4 c-6 -11 -13 -20 -15 -20 -3 0 -5 9 -5 20 0 11 7 20 15 20
13 0 14 -4 5 -20z m-690 -14 c0 -8 7 -16 15 -20 15 -5 21 -36 8 -36 -12 0 -53
46 -53 59 0 6 7 11 15 11 8 0 15 -6 15 -14z m350 -17 c0 -11 -4 -17 -10 -14
-5 3 -10 13 -10 21 0 8 5 14 10 14 6 0 10 -9 10 -21z m130 1 c0 -11 -4 -20
-10 -20 -5 0 -10 9 -10 20 0 11 5 20 10 20 6 0 10 -9 10 -20z m304 -74 c-6
-16 -8 -17 -16 -2 -11 19 0 42 13 29 6 -6 7 -18 3 -27z m-108 -45 c-10 -16
-23 -14 -30 5 -9 25 4 38 21 21 9 -8 12 -20 9 -26z m194 -45 c0 -8 -4 -17 -9
-20 -10 -7 -23 19 -14 28 11 11 23 6 23 -8z m-710 -82 c0 -31 -23 -28 -28 4
-2 15 2 22 12 22 11 0 16 -9 16 -26z m372 -46 c-15 -15 -26 -4 -18 18 5 13 9
15 18 6 9 -9 9 -15 0 -24z m206 -10 c-4 -46 -28 -49 -28 -4 0 26 4 36 16 36
11 0 14 -8 12 -32z m-778 -65 c0 -14 -5 -23 -11 -21 -13 4 -39 75 -30 83 10
11 41 -36 41 -62z m148 -31 c3 -17 -2 -22 -18 -22 -25 0 -38 29 -19 41 20 13
34 6 37 -19z m632 -72 c0 -11 -4 -20 -10 -20 -5 0 -10 9 -10 20 0 11 5 20 10
20 6 0 10 -9 10 -20z m-642 -38 c2 -12 -1 -22 -6 -22 -15 0 -34 28 -27 40 10
17 30 6 33 -18z m786 22 c18 -7 21 -30 6 -39 -16 -10 -50 14 -44 30 7 16 14
18 38 9z m146 -23 c0 -12 -20 -25 -27 -18 -7 7 6 27 18 27 5 0 9 -4 9 -9z
m-500 -26 c0 -8 -7 -15 -15 -15 -8 0 -15 7 -15 15 0 8 7 15 15 15 8 0 15 -7
15 -15z m-525 -25 c0 -22 -29 -18 -33 3 -3 14 1 18 15 15 10 -2 18 -10 18 -18z
m245 -36 c0 -14 -21 -19 -33 -7 -9 9 13 34 24 27 5 -3 9 -12 9 -20z m463 1 c1
-5 -6 -11 -15 -13 -11 -2 -18 3 -18 13 0 17 30 18 33 0z m-493 -20 c19 -23 1
-39 -21 -19 -10 9 -16 21 -13 25 8 13 20 11 34 -6z m586 -17 c8 -12 -21 -38
-43 -38 -23 0 6 49 29 50 4 0 10 -5 14 -12z m-829 -24 c9 -23 -13 -40 -32 -24
-8 7 -15 19 -15 26 0 19 39 18 47 -2z m602 -15 c-7 -15 -7 -24 0 -33 8 -10 7
-17 -4 -26 -17 -14 -16 -16 -20 30 -3 36 10 64 26 54 5 -3 4 -14 -2 -25z m144
16 c0 -6 -7 -11 -16 -13 -12 -3 -15 1 -11 13 7 17 25 17 27 0z m-386 -43 c2
-33 -1 -42 -13 -42 -12 0 -15 6 -11 23 4 12 2 29 -3 37 -10 17 -3 33 13 27 7
-2 13 -22 14 -45z m53 17 c0 -11 -4 -17 -10 -14 -5 3 -10 13 -10 21 0 8 5 14
10 14 6 0 10 -9 10 -21z m68 -46 c-5 -25 -28 -28 -28 -4 0 12 6 21 16 21 9 0
14 -7 12 -17z m-464 -58 c3 -9 0 -15 -9 -15 -8 0 -15 7 -15 15 0 8 4 15 9 15
5 0 11 -7 15 -15z m554 -7 c-6 -18 -28 -21 -28 -4 0 9 7 16 16 16 9 0 14 -5
12 -12z m-325 -23 c1 -5 -6 -11 -15 -13 -11 -2 -18 3 -18 13 0 17 30 18 33 0z
m257 0 c0 -8 -7 -15 -15 -15 -8 0 -15 7 -15 15 0 8 7 15 15 15 8 0 15 -7 15
-15z m449 6 c18 -11 5 -31 -20 -31 -18 0 -26 20 -12 33 8 9 15 9 32 -2z m-184
-22 c0 -7 -8 -15 -17 -17 -18 -3 -25 18 -11 32 10 10 28 1 28 -15z m-588 -34
c3 -9 3 -19 -1 -22 -8 -9 -37 18 -30 28 8 14 24 11 31 -6z m767 -27 c-7 -10
-34 -10 -34 0 0 4 5 13 12 20 9 9 14 9 19 0 4 -7 5 -16 3 -20z m-631 -31 c-3
-5 -10 -4 -15 1 -6 6 -7 16 -3 22 6 9 9 9 16 -1 4 -7 5 -17 2 -22z m-32 -2
c-1 -15 -24 -12 -29 3 -3 9 2 13 12 10 10 -1 17 -7 17 -13z m519 -19 c0 -8 -7
-16 -15 -20 -15 -5 -21 14 -8 27 11 12 23 8 23 -7z m-195 -16 c0 -22 -29 -18
-33 3 -3 14 1 18 15 15 10 -2 18 -10 18 -18z m-282 -35 c4 -8 2 -17 -4 -21
-11 -6 -39 13 -39 27 0 15 37 10 43 -6z m207 -15 c0 -11 -4 -20 -10 -20 -5 0
-10 9 -10 20 0 11 5 20 10 20 6 0 10 -9 10 -20z m448 8 c19 -19 14 -28 -13
-28 -24 0 -34 18 -18 33 9 10 17 9 31 -5z m-54 -47 c9 -15 -23 -36 -36 -23 -5
5 -7 15 -4 21 9 13 33 14 40 2z m-392 -26 c8 -18 8 -29 1 -36 -12 -12 -36 -3
-28 11 3 5 1 11 -5 15 -16 10 -12 35 5 35 9 0 21 -11 27 -25z m136 -7 c-6 -18
-28 -21 -28 -4 0 9 7 16 16 16 9 0 14 -5 12 -12z m-329 -77 c-3 -6 -10 -7 -18
-2 -7 5 -10 14 -6 21 9 14 29 -2 24 -19z m161 14 c0 -8 -7 -15 -15 -15 -8 0
-15 7 -15 15 0 8 7 15 15 15 8 0 15 -7 15 -15z m-100 -19 c0 -8 -4 -17 -9 -21
-12 -7 -24 12 -16 25 9 15 25 12 25 -4z m220 -6 c0 -11 -7 -20 -15 -20 -8 0
-15 9 -15 20 0 11 7 20 15 20 8 0 15 -9 15 -20z m-192 -47 c-4 -22 -22 -20
-26 1 -2 10 3 16 13 16 10 0 15 -7 13 -17z m-155 -29 c-3 -8 0 -14 6 -14 6 0
8 -7 5 -15 -12 -31 -31 -15 -31 25 0 32 2 38 13 29 7 -6 10 -17 7 -25z m60 21
c1 -5 -6 -11 -15 -13 -11 -2 -18 3 -18 13 0 17 30 18 33 0z m103 -46 c8 -14
-18 -31 -30 -19 -9 9 0 30 14 30 5 0 12 -5 16 -11z m114 -8 c0 -24 -18 -37
-31 -24 -13 13 -1 43 17 43 8 0 14 -9 14 -19z m-230 -27 c0 -17 -22 -14 -28 4
-2 7 3 12 12 12 9 0 16 -7 16 -16z m390 -14 c0 -13 -7 -20 -20 -20 -19 0 -27
20 -13 33 13 14 33 6 33 -13z m-174 -51 c10 -17 -13 -36 -27 -22 -12 12 -4 33
11 33 5 0 12 -5 16 -11z m70 -57 c-18 -18 -31 -10 -23 12 4 10 13 13 22 9 15
-5 15 -7 1 -21z m-268 -20 c5 -17 -27 -27 -41 -13 -9 9 -8 14 3 21 18 11 32 8
38 -8z m342 9 c0 -11 -26 -22 -34 -14 -12 12 -5 23 14 23 11 0 20 -4 20 -9z
m-160 -46 c0 -10 -10 -15 -30 -15 -20 0 -30 5 -30 15 0 10 10 15 30 15 20 0
30 -5 30 -15z m310 5 c0 -5 -6 -10 -14 -10 -8 0 -18 5 -21 10 -3 6 3 10 14 10
12 0 21 -4 21 -10z m-404 -47 c-10 -10 -19 5 -10 18 6 11 8 11 12 0 2 -7 1
-15 -2 -18z m52 5 c-6 -18 -28 -21 -28 -4 0 9 7 16 16 16 9 0 14 -5 12 -12z
m181 -2 c7 -8 8 -16 4 -19 -14 -8 -63 -5 -69 4 -16 27 44 41 65 15z m-99 -61
c0 -8 -4 -15 -9 -15 -13 0 -22 16 -14 24 11 11 23 6 23 -9z m42 -40 c0 -5 -5
-11 -11 -13 -6 -2 -11 4 -11 13 0 9 5 15 11 13 6 -2 11 -8 11 -13z m-97 -5 c8
-13 -20 -24 -41 -16 -20 8 -9 26 16 26 10 0 22 -5 25 -10z m70 -40 c-5 -8 -11
-8 -17 -2 -6 6 -7 16 -3 22 5 8 11 8 17 2 6 -6 7 -16 3 -22z m-184 -10 c24
-14 24 -36 0 -50 -21 -11 -37 2 -26 20 3 6 1 10 -4 10 -6 0 -11 7 -11 15 0 18
14 19 41 5z m139 -20 c0 -5 -4 -10 -9 -10 -6 0 -13 5 -16 10 -3 6 1 10 9 10 9
0 16 -4 16 -10z m-24 -49 c-4 -5 -13 -8 -20 -5 -7 3 -16 -2 -20 -11 -3 -9 -10
-13 -16 -10 -15 10 -12 22 12 45 19 17 24 18 36 6 8 -8 11 -19 8 -25z"/>
</g>
</svg>
