<?xml version="1.0" standalone="no"?>
<!DOCTYPE svg PUBLIC "-//W3C//DTD SVG 20010904//EN"
 "http://www.w3.org/TR/2001/REC-SVG-20010904/DTD/svg10.dtd">
<svg version="1.0" xmlns="http://www.w3.org/2000/svg"
 width="480.000000pt" height="360.000000pt" viewBox="0 0 480.000000 360.000000"
 preserveAspectRatio="xMidYMid meet">
<metadata>
Created by potrace 1.16, written by Peter Selinger 2001-2019
</metadata>
<rect width="1" height="360" fill="#000000"/>
<rect x="479" width="1" height="360" fill="#000000"/>
<rect width="480" height="1" fill="#000000"/>
<rect y="359" width="480" height="1" fill="#000000"/>
<g transform="translate(0.000000,360.000000) scale(0.100000,-0.100000)"
fill="#000000" stroke="none">
<path d="M0 1800 l0 -1800 1214 0 1214 0 63 92 c34 51 118 205 186 341 79 157
146 278 184 329 92 124 93 129 64 172 -82 121 -437 532 -547 632 -38 35 -55
43 -114 53 -105 18 -214 50 -261 77 -46 27 -141 126 -184 193 -27 42 -29 52
-29 141 l0 97 62 59 c108 102 121 120 107 145 -11 21 -10 22 21 15 26 -5 40
-1 64 17 84 65 180 76 271 33 74 -34 169 -131 205 -208 63 -134 64 -222 3
-289 l-35 -39 23 -20 c13 -11 53 -42 89 -67 36 -26 107 -85 159 -132 156 -142
224 -201 231 -201 4 0 10 10 13 23 2 12 8 29 11 38 5 11 -6 32 -33 63 -62 71
-57 102 37 236 111 158 131 192 138 235 6 41 1 96 -12 130 -3 7 10 31 29 52
18 21 44 57 57 79 l22 42 -25 56 c-14 31 -38 71 -52 90 -15 19 -28 51 -30 71
-2 20 -5 38 -7 40 -2 2 -39 -7 -81 -20 -43 -14 -86 -25 -96 -25 -29 0 -67 36
-95 90 -15 28 -48 71 -75 96 -30 28 -52 59 -60 84 -6 21 -19 41 -29 45 -33 11
-66 47 -68 73 -1 22 -13 32 -75 65 -41 21 -97 54 -126 73 -28 19 -59 34 -69
34 -28 0 -152 79 -182 116 -29 35 -140 107 -157 101 -24 -9 -241 157 -292 222
l-38 50 -847 1 -848 0 0 -1800z"/>
<path d="M4700 1976 c0 -3 23 -17 50 -31 48 -24 50 -24 50 -6 0 11 -4 22 -8
25 -14 9 -92 19 -92 12z"/>
<path d="M4540 1806 c0 -11 16 -36 35 -55 41 -41 39 -49 -5 -26 -18 9 -34 14
-37 12 -4 -5 25 -28 145 -115 49 -35 33 -37 -39 -4 -35 17 -65 29 -67 27 -1
-1 13 -36 32 -78 19 -41 58 -138 86 -214 67 -183 71 -193 79 -193 3 0 5 67 3
149 -2 117 0 157 13 186 10 25 15 69 15 134 0 90 -2 97 -22 108 -67 34 -100
47 -165 68 l-73 23 0 -22z"/>
<path d="M3467 849 c-44 -44 -88 -77 -125 -94 -96 -44 -82 -29 -130 -136 -30
-66 -119 -206 -197 -309 -49 -64 -205 -296 -205 -304 0 -3 123 -6 273 -6 l273
0 75 68 c196 176 344 366 351 453 1 14 -9 40 -25 61 -15 19 -43 68 -62 107
-45 91 -136 231 -150 230 -5 -1 -40 -32 -78 -70z"/>
</g>
</svg>
