<?xml version="1.0" standalone="no"?>
<!DOCTYPE svg PUBLIC "-//W3C//DTD SVG 20010904//EN"
 "http://www.w3.org/TR/2001/REC-SVG-20010904/DTD/svg10.dtd">
<svg version="1.0" xmlns="http://www.w3.org/2000/svg"
 width="480.000000pt" height="360.000000pt" viewBox="0 0 480.000000 360.000000"
 preserveAspectRatio="xMidYMid meet">
<metadata>
Created by potrace 1.16, written by Peter Selinger 2001-2019
</metadata>
<rect width="1" height="360" fill="#000000"/>
<rect x="479" width="1" height="360" fill="#000000"/>
<rect width="480" height="1" fill="#000000"/>
<rect y="359" width="480" height="1" fill="#000000"/>
<g transform="translate(0.000000,360.000000) scale(0.100000,-0.100000)"
fill="#000000" stroke="none">
<path d="M0 2185 l0 -1415 53 5 c28 3 223 19 432 36 575 46 1185 109 1575 164
102 15 197 26 212 26 54 0 36 16 -24 23 -33 3 -75 13 -92 22 -42 21 -65 25
-86 14 -11 -6 -58 -5 -130 2 -103 11 -113 14 -121 36 -5 14 -14 20 -21 16 -6
-4 -33 -6 -60 -5 -32 1 -54 -4 -64 -14 -18 -17 -119 -21 -129 -5 -13 21 -24 8
-42 -47 -11 -37 -24 -58 -33 -58 -8 0 -15 7 -15 15 0 8 -2 17 -5 20 -28 28
-27 47 14 155 50 133 56 143 118 223 27 34 64 91 84 127 32 58 34 66 20 80
-14 14 -21 13 -75 -15 -35 -18 -69 -45 -80 -63 -25 -38 -28 -29 -5 15 9 17 17
45 19 63 6 65 136 270 297 467 57 69 149 183 205 252 82 100 253 351 253 370
0 2 -45 42 -101 88 -60 49 -109 98 -120 120 -39 75 -19 159 70 293 34 52 49
84 44 94 -13 29 -5 81 19 113 16 23 23 48 24 83 0 27 4 66 8 85 6 34 6 35 -10
13 -19 -26 -39 -31 -30 -8 8 21 -22 31 -46 16 -12 -7 -17 -8 -13 -2 11 19 -21
12 -50 -11 l-27 -21 6 21 7 22 -620 0 -621 0 -5 -22 c-26 -113 -47 -299 -52
-448 -5 -163 -3 -183 21 -290 14 -63 51 -195 81 -293 64 -209 64 -202 -15
-374 -62 -137 -78 -219 -62 -330 21 -149 61 -224 151 -285 25 -17 49 -37 53
-44 4 -6 21 -17 38 -24 71 -29 2 -41 -101 -17 -112 27 -217 123 -273 249 -48
108 -60 173 -57 303 2 66 4 165 5 220 l1 100 -54 120 c-147 327 -177 477 -167
830 3 127 9 247 12 268 l6 37 -211 0 -211 0 0 -1415z"/>
<path d="M2820 3581 c5 -11 10 -37 10 -58 0 -27 8 -47 28 -70 15 -17 39 -45
52 -62 l25 -31 55 19 c30 11 125 41 210 66 85 26 165 53 178 61 24 15 30 48
10 60 -36 23 -149 33 -356 34 -217 0 -222 0 -212 -19z"/>
<path d="M3945 3595 c14 -5 199 -30 405 -55 96 -12 237 -29 313 -39 l137 -18
0 59 0 58 -432 -1 c-238 0 -428 -2 -423 -4z"/>
<path d="M3651 3486 c-47 -76 -119 -119 -376 -228 -258 -109 -294 -120 -355
-114 -54 5 -56 4 -97 -36 -40 -39 -41 -42 -26 -65 9 -13 15 -40 13 -61 -8
-144 -6 -156 26 -197 38 -50 47 -74 34 -91 -17 -19 45 -143 125 -249 73 -96
138 -220 105 -200 -5 3 -10 -1 -10 -9 0 -12 -11 -16 -45 -16 -49 0 -49 0 -35
-70 15 -71 31 -516 20 -564 -5 -22 -20 -50 -32 -61 -13 -11 -36 -39 -51 -63
l-28 -43 -36 21 c-19 11 -37 19 -39 17 -10 -10 -33 -342 -25 -350 10 -10 43
-3 446 99 613 156 743 192 1335 372 l195 59 3 816 2 816 -57 11 c-32 6 -170
38 -308 70 -314 74 -502 116 -633 141 -56 11 -109 22 -116 25 -8 3 -22 -9 -35
-30z"/>
<path d="M2271 3043 c-17 -21 -31 -40 -31 -43 0 -3 16 -21 35 -40 l35 -34 0
77 c0 42 -2 77 -4 77 -3 0 -18 -17 -35 -37z"/>
</g>
</svg>
