<?xml version="1.0" standalone="no"?>
<!DOCTYPE svg PUBLIC "-//W3C//DTD SVG 20010904//EN"
 "http://www.w3.org/TR/2001/REC-SVG-20010904/DTD/svg10.dtd">
<svg version="1.0" xmlns="http://www.w3.org/2000/svg"
 width="480.000000pt" height="360.000000pt" viewBox="0 0 480.000000 360.000000"
 preserveAspectRatio="xMidYMid meet">
<metadata>
Created by potrace 1.16, written by Peter Selinger 2001-2019
</metadata>
<rect width="1" height="360" fill="#000000"/>
<rect x="479" width="1" height="360" fill="#000000"/>
<rect width="480" height="1" fill="#000000"/>
<rect y="359" width="480" height="1" fill="#000000"/>
<g transform="translate(0.000000,360.000000) scale(0.100000,-0.100000)"
fill="#000000" stroke="none">
<path d="M3460 3582 c0 -12 17 -26 51 -41 47 -22 89 -67 89 -97 0 -6 -42 -16
-97 -23 -105 -14 -282 -67 -342 -103 -52 -30 -140 -117 -160 -158 -18 -35 -54
-141 -65 -192 -4 -18 -13 -28 -25 -28 -34 0 -103 -30 -136 -59 -18 -16 -56
-34 -84 -41 -28 -6 -53 -16 -56 -21 -3 -4 -18 -4 -32 2 -15 5 -32 8 -39 5 -21
-8 -44 -97 -44 -173 0 -82 10 -95 82 -107 41 -7 78 -45 78 -80 0 -50 11 -66
45 -66 41 0 74 -26 116 -92 19 -29 37 -55 42 -56 4 -2 17 -21 27 -43 20 -39
32 -50 29 -26 -4 29 2 47 15 47 9 0 21 -29 35 -82 11 -46 30 -116 41 -156 11
-41 22 -95 26 -122 6 -44 4 -49 -16 -55 -15 -5 -31 0 -52 15 -16 12 -35 19
-42 17 -12 -5 -34 -138 -52 -321 -6 -62 -10 -73 -42 -103 -20 -19 -46 -42 -58
-50 -13 -8 -26 -27 -29 -43 -3 -15 -14 -35 -24 -44 -21 -19 -19 -21 -91 66
-42 51 -169 144 -211 155 -27 7 -25 15 25 87 68 99 102 179 142 331 44 163 53
225 33 225 -19 0 -32 -10 -52 -40 -11 -16 -17 -19 -18 -10 0 10 -4 8 -10 -5
-6 -14 -7 -3 -4 35 5 51 5 53 -9 30 -7 -14 -24 -61 -36 -104 -24 -85 -49 -146
-61 -146 -4 0 -26 23 -50 51 -39 47 -45 50 -78 45 -72 -10 -106 -19 -127 -32
-23 -15 -68 -99 -60 -112 14 -22 4 -118 -23 -218 -25 -97 -28 -121 -21 -182 4
-38 14 -83 22 -98 8 -16 27 -51 41 -78 15 -27 27 -57 27 -66 0 -10 -14 -51
-31 -91 -17 -41 -42 -101 -56 -134 -14 -33 -32 -69 -39 -80 -8 -11 -14 -29
-14 -40 0 -12 -5 -26 -11 -32 -8 -8 -9 -25 -4 -50 5 -21 8 -40 7 -43 -10 -61
-13 -130 -4 -130 6 0 54 30 108 66 69 47 103 64 118 60 11 -3 36 -29 54 -57
26 -39 46 -56 87 -75 65 -30 70 -37 51 -66 -8 -13 -17 -42 -21 -65 l-6 -41 83
-44 c46 -24 84 -50 86 -58 3 -24 -88 -113 -148 -144 -55 -29 -120 -75 -152
-107 -10 -10 -33 -30 -53 -44 -19 -15 -35 -31 -35 -36 0 -5 557 -9 1300 -9
l1300 0 -3 433 -3 432 -52 225 c-138 595 -334 1393 -361 1472 -16 46 -18 73
-14 161 7 121 -5 198 -43 284 -76 171 -241 316 -438 384 l-81 28 -14 52 c-10
36 -27 64 -54 91 l-39 38 -119 0 c-108 0 -119 -2 -119 -18z"/>
</g>
</svg>
