<?xml version="1.0" standalone="no"?>
<!DOCTYPE svg PUBLIC "-//W3C//DTD SVG 20010904//EN"
 "http://www.w3.org/TR/2001/REC-SVG-20010904/DTD/svg10.dtd">
<svg version="1.0" xmlns="http://www.w3.org/2000/svg"
 width="480.000000pt" height="360.000000pt" viewBox="0 0 480.000000 360.000000"
 preserveAspectRatio="xMidYMid meet">
<metadata>
Created by potrace 1.16, written by Peter Selinger 2001-2019
</metadata>
<rect width="1" height="360" fill="#000000"/>
<rect x="479" width="1" height="360" fill="#000000"/>
<rect width="480" height="1" fill="#000000"/>
<rect y="359" width="480" height="1" fill="#000000"/>
<g transform="translate(0.000000,360.000000) scale(0.100000,-0.100000)"
fill="#000000" stroke="none">
<path d="M4144 3015 c21 -33 20 -56 -3 -62 -11 -3 -17 -11 -15 -18 8 -19 -91
-141 -126 -157 -37 -16 -38 -31 -4 -70 15 -19 23 -37 19 -47 -18 -43 -16 -92
4 -152 12 -35 29 -70 38 -76 15 -11 13 -13 -13 -13 -17 0 -34 4 -40 10 -15 15
-35 -5 -40 -41 -2 -19 -7 -47 -10 -64 -9 -42 -14 -177 -8 -196 7 -24 44 -31
78 -13 38 18 48 5 40 -53 -4 -29 -3 -43 5 -43 23 0 10 -36 -28 -75 -21 -22
-62 -77 -90 -123 -60 -98 -94 -143 -178 -231 -77 -80 -81 -105 -26 -150 21
-17 57 -39 80 -48 41 -17 43 -19 37 -53 -3 -19 -23 -64 -45 -100 -46 -79 -55
-101 -69 -181 -6 -35 -20 -80 -31 -100 -10 -21 -16 -45 -13 -53 3 -9 -4 -40
-17 -70 -20 -50 -21 -59 -10 -98 12 -40 55 -98 73 -98 4 0 27 -13 50 -29 27
-18 74 -36 123 -47 90 -19 90 -19 99 -55 5 -21 2 -28 -14 -32 -13 -3 -22 -17
-26 -36 -4 -17 -13 -36 -20 -42 -25 -20 -16 -56 19 -83 19 -15 39 -26 45 -26
6 0 15 -6 19 -12 23 -37 204 -128 253 -128 28 0 60 22 60 41 0 5 -10 9 -22 9
-42 0 -204 73 -233 104 -6 6 -19 16 -30 22 -24 14 -26 33 -3 47 18 12 21 11
143 -49 39 -19 93 -39 121 -44 29 -5 71 -21 95 -35 134 -78 156 -86 233 -83
58 2 73 6 72 18 -1 11 8 14 32 12 27 -2 32 1 32 19 0 25 -32 56 -107 105 -29
19 -53 39 -53 44 0 6 -9 10 -19 10 -18 0 -50 22 -147 102 -25 21 -49 38 -55
38 -9 0 -45 73 -80 165 -15 40 -28 56 -64 77 -25 16 -50 28 -54 28 -5 0 -14
14 -20 32 -9 25 -8 36 5 57 10 14 16 42 16 62 -1 20 8 63 19 95 14 41 23 99
28 188 7 129 12 144 52 158 9 3 36 250 43 390 3 53 0 113 -5 132 -8 28 -7 43
4 64 15 27 37 167 37 231 0 18 -5 41 -11 52 -27 51 35 60 155 22 71 -22 86
-24 129 -14 27 6 66 8 88 5 l39 -7 0 81 0 81 -35 -6 c-24 -4 -43 0 -61 12 -17
11 -62 20 -127 26 -56 6 -105 13 -109 17 -7 7 37 69 167 238 16 22 51 64 77
95 45 53 73 119 51 119 -5 0 -36 -37 -68 -82 -33 -46 -108 -145 -168 -220 -89
-111 -114 -137 -131 -133 -11 2 -29 4 -38 4 -22 1 -24 32 -4 69 45 88 48 112
21 173 -18 39 -18 40 3 62 39 42 18 88 -30 66 -22 -9 -33 -5 -96 38 -67 45
-72 50 -72 85 0 35 -20 68 -42 68 -6 0 -3 -11 6 -25z m-54 -1689 c38 -11 46
-18 53 -47 11 -47 -2 -272 -18 -327 -8 -26 -12 -56 -9 -68 3 -13 -2 -34 -12
-51 -10 -15 -19 -29 -20 -31 0 -1 -41 -9 -91 -17 -49 -8 -105 -21 -125 -29
-33 -14 -36 -14 -54 7 -10 12 -25 35 -32 50 -11 25 -10 32 8 54 11 14 20 37
20 50 0 32 49 143 111 251 28 48 59 106 69 130 21 47 30 49 100 28z m434 -961
c20 -15 16 -45 -7 -45 -21 0 -38 25 -31 44 7 19 13 20 38 1z"/>
<path d="M2659 2994 c-10 -20 -12 -37 -7 -42 6 -6 -8 -33 -36 -72 -25 -34 -46
-66 -46 -70 0 -4 -11 -5 -24 -3 -35 7 -41 -14 -11 -41 26 -24 26 -24 12 -86
-8 -34 -25 -72 -38 -86 -20 -21 -20 -24 -5 -24 14 0 16 -3 8 -12 -5 -7 -7 -28
-5 -45 4 -28 8 -31 23 -23 27 15 32 12 20 -10 -6 -11 -19 -20 -28 -20 -10 0
-23 -5 -30 -12 -14 -14 -16 -48 -3 -48 5 0 12 -9 16 -20 3 -11 24 -43 46 -72
45 -60 49 -94 18 -144 -18 -29 -19 -38 -8 -67 9 -27 9 -38 -4 -63 -9 -17 -23
-75 -32 -130 -9 -54 -28 -152 -42 -217 -36 -166 -23 -240 45 -269 15 -7 28
-13 30 -14 2 -1 -4 -23 -12 -48 -9 -26 -16 -64 -16 -86 0 -21 -4 -42 -10 -45
-5 -3 -9 -20 -9 -38 1 -18 -6 -63 -15 -102 -9 -38 -16 -78 -16 -88 0 -10 20
-37 45 -61 48 -47 55 -72 29 -111 -16 -24 -15 -26 20 -62 20 -21 36 -40 36
-44 0 -3 28 -16 63 -27 51 -18 84 -21 192 -20 82 1 139 -3 152 -10 24 -13 103
-16 103 -4 0 4 -14 19 -32 34 l-33 26 38 35 c20 20 37 40 37 46 0 9 -41 20
-89 26 -52 5 -142 30 -152 41 -9 10 2 20 53 44 71 34 88 52 88 92 0 41 -48 68
-121 68 -33 0 -61 5 -66 12 -13 17 -9 138 6 212 7 33 10 76 7 96 l-6 37 70 32
c74 35 110 69 110 106 0 12 -8 46 -19 76 -30 85 -140 339 -173 397 -27 48 -29
55 -15 70 9 9 25 47 38 85 17 52 26 67 41 67 11 0 28 5 39 10 18 10 58 -5 112
-43 19 -13 43 -3 61 26 8 12 6 24 -7 46 -19 33 -22 51 -7 51 15 0 50 -61 50
-86 0 -54 65 -23 101 48 12 24 19 54 17 76 -3 33 -6 37 -28 33 -14 -2 -50 -4
-81 -5 -57 -1 -89 16 -89 48 0 14 -49 56 -66 56 -4 0 -15 -7 -25 -16 -13 -12
-22 -13 -38 -5 -11 6 -33 11 -50 11 -16 0 -43 8 -60 18 -30 16 -40 32 -22 32
5 0 11 18 15 40 4 23 12 40 20 40 26 0 48 81 25 96 -13 8 -3 53 16 74 8 9 11
21 6 29 -6 9 -11 10 -15 2 -4 -6 -11 -11 -15 -11 -17 0 -146 112 -147 128 -2
41 -5 48 -21 58 -15 9 -21 6 -34 -22z m96 -1636 c8 -70 0 -252 -13 -274 -5
-10 -18 -19 -28 -20 -11 -1 -36 -5 -56 -8 -30 -5 -39 -2 -47 12 -25 47 -10
148 40 266 30 73 33 76 65 76 32 0 33 -1 39 -52z m235 -589 c0 -6 -7 -17 -16
-26 -14 -14 -17 -14 -31 0 -8 8 -12 20 -9 26 9 14 56 14 56 0z"/>
<path d="M1137 2872 c-10 -11 -17 -36 -17 -61 0 -40 -5 -48 -57 -96 -42 -39
-64 -52 -78 -49 -13 3 -28 -3 -39 -15 -17 -19 -17 -21 13 -58 28 -35 30 -41
20 -76 -12 -43 -2 -66 36 -87 14 -7 34 -33 44 -56 11 -23 29 -52 40 -63 20
-20 20 -22 4 -27 -70 -21 -91 -57 -92 -156 -1 -68 -13 -79 -106 -101 -34 -8
-71 -19 -83 -26 -12 -6 -31 -15 -42 -21 -11 -5 -33 -10 -49 -10 -17 0 -52 -5
-80 -11 -45 -9 -54 -8 -105 16 -31 15 -56 32 -56 40 0 44 -67 47 -251 10 -184
-36 -199 -41 -199 -70 0 -69 0 -69 355 -235 113 -53 270 -128 410 -195 142
-69 177 -78 243 -61 32 8 33 7 26 -21 -3 -15 -19 -55 -35 -87 -27 -54 -28 -60
-14 -76 15 -16 15 -21 0 -56 -26 -62 -22 -121 11 -155 15 -16 31 -29 35 -29
15 0 146 -87 174 -116 17 -17 37 -33 45 -36 10 -3 1 -18 -34 -51 -26 -26 -51
-47 -56 -47 -4 0 -20 -16 -35 -35 -21 -28 -24 -39 -15 -50 23 -28 12 -33 -230
-109 -80 -25 -155 -46 -166 -46 -12 0 -69 34 -127 75 -118 83 -133 87 -222 56
-146 -51 -295 -115 -295 -125 0 -6 30 -36 66 -66 36 -30 114 -95 173 -145 59
-49 175 -146 257 -214 l150 -124 314 2 c260 2 319 5 338 17 13 9 21 21 19 27
-2 6 -39 36 -82 65 -155 105 -177 123 -164 138 6 8 20 14 31 14 28 0 180 51
199 67 9 7 22 32 29 56 15 50 23 57 75 57 90 1 203 57 226 112 12 30 11 33
-22 60 -40 34 -164 98 -189 98 -30 0 -87 87 -76 116 6 15 -18 79 -33 88 -5 3
-23 31 -41 62 -17 31 -49 75 -71 99 l-40 44 17 28 c10 15 25 36 33 45 9 9 21
24 28 32 11 13 31 19 179 51 61 13 168 65 190 92 15 17 5 54 -21 85 -11 13
-40 47 -65 77 -25 30 -52 62 -60 71 -8 8 -31 42 -50 75 -19 33 -56 81 -82 106
-49 48 -57 66 -36 87 9 9 7 21 -7 53 -17 37 -18 49 -7 132 11 86 10 94 -8 119
-11 15 -20 31 -20 37 0 5 -13 23 -29 40 -26 27 -27 31 -10 31 11 0 22 7 25 15
4 8 10 12 15 9 14 -8 41 64 34 89 -4 12 -18 53 -32 90 -25 68 -25 69 -7 102
10 19 16 36 14 38 -3 1 -26 13 -52 26 -53 27 -75 54 -75 92 0 14 -17 47 -37
73 -20 26 -36 52 -36 57 0 15 -16 10 -33 -9z m-64 -948 c22 -36 25 -49 16 -60
-6 -8 -18 -14 -26 -14 -8 0 -21 -7 -29 -15 -23 -23 -100 -17 -174 13 -35 15
-65 31 -65 37 0 5 27 17 60 26 33 9 87 25 120 37 33 11 62 21 65 21 3 1 18
-20 33 -45z m-315 -19 c2 -2 0 -5 -5 -8 -5 -3 -19 1 -33 9 l-25 14 30 -6 c17
-4 31 -8 33 -9z m276 -1356 c29 -7 45 -18 54 -37 19 -41 15 -54 -36 -105 l-48
-47 -88 61 c-110 77 -112 94 -16 126 36 12 71 19 79 17 7 -2 32 -9 55 -15z"/>
<path d="M3160 643 c0 -5 15 -24 34 -42 l35 -34 33 20 c18 10 34 27 36 36 3
14 -4 17 -36 17 -22 0 -54 3 -71 6 -17 4 -31 2 -31 -3z"/>
</g>
</svg>
