<?xml version="1.0" standalone="no"?>
<!DOCTYPE svg PUBLIC "-//W3C//DTD SVG 20010904//EN"
 "http://www.w3.org/TR/2001/REC-SVG-20010904/DTD/svg10.dtd">
<svg version="1.0" xmlns="http://www.w3.org/2000/svg"
 width="480.000000pt" height="360.000000pt" viewBox="0 0 480.000000 360.000000"
 preserveAspectRatio="xMidYMid meet">
<metadata>
Created by potrace 1.16, written by Peter Selinger 2001-2019
</metadata>
<rect width="1" height="360" fill="#000000"/>
<rect x="479" width="1" height="360" fill="#000000"/>
<rect width="480" height="1" fill="#000000"/>
<rect y="359" width="480" height="1" fill="#000000"/>
<g transform="translate(0.000000,360.000000) scale(0.100000,-0.100000)"
fill="#000000" stroke="none">
<path d="M0 2752 l0 -848 112 12 c359 41 604 110 908 255 91 43 175 79 186 79
27 0 372 -343 512 -510 58 -69 143 -162 188 -206 124 -123 241 -174 445 -190
103 -9 125 -2 144 43 9 20 43 84 78 141 89 152 150 208 309 285 70 34 130 67
132 73 2 6 -1 29 -7 52 -12 47 -8 54 27 54 24 0 46 31 32 45 -13 13 -117 -71
-132 -106 l-15 -36 -14 26 c-30 55 -47 49 -140 -50 -44 -48 -114 -101 -131
-101 -4 0 -1 7 6 16 12 13 10 14 -13 3 -34 -15 -40 -9 -28 25 11 29 -4 37 -27
14 -9 -9 -12 -9 -12 0 0 6 -6 9 -13 6 -17 -6 -19 26 -2 46 6 8 15 23 18 33 5
14 3 16 -11 9 -9 -5 -29 -12 -44 -16 -26 -6 -27 -5 -21 29 4 22 2 35 -6 35 -6
0 7 24 29 53 34 43 40 57 35 83 -3 18 2 53 10 79 15 44 15 48 -1 66 -9 10 -26
19 -38 19 -11 0 -31 12 -44 28 l-23 27 6 -25 c6 -24 4 -23 -23 8 -16 18 -35
52 -42 75 l-12 42 -19 -35 -18 -35 6 33 c3 20 1 32 -6 32 -6 0 -11 -5 -11 -12
0 -6 -3 -8 -7 -5 -3 4 -16 1 -27 -6 -40 -26 -65 -26 -102 -1 -20 14 -44 22
-53 19 -13 -4 -23 4 -36 28 l-18 34 28 37 c15 20 48 51 74 70 25 19 61 50 80
70 l34 35 -47 65 c-39 55 -45 69 -36 86 12 23 52 45 124 70 46 15 51 20 58 54
30 144 170 303 348 396 136 70 241 83 443 55 184 -26 295 -81 422 -210 80 -81
117 -144 136 -228 11 -51 10 -74 -6 -171 -17 -109 -17 -113 1 -142 37 -58 118
-143 153 -161 74 -37 85 -58 55 -102 l-16 -22 -22 20 c-21 20 -112 44 -128 35
-5 -3 4 -21 18 -40 29 -37 28 -39 -10 -24 -34 13 -35 -8 -2 -39 26 -24 40 -61
25 -61 -6 0 -24 7 -40 16 -17 8 -37 14 -46 12 -13 -2 -11 -9 11 -35 21 -25 24
-33 12 -33 -9 0 -16 -4 -16 -10 0 -5 -7 -7 -16 -3 -13 5 -15 2 -9 -15 8 -26 7
-26 -40 -6 -20 8 -39 13 -42 11 -2 -3 3 -33 12 -67 9 -34 14 -64 11 -67 -3 -3
-30 7 -61 22 -30 15 -59 25 -62 21 -4 -4 0 -34 8 -66 9 -33 14 -60 12 -60 -16
0 -66 37 -108 79 -27 28 -52 51 -55 51 -3 0 -3 -22 -2 -50 2 -27 0 -50 -5 -50
-5 0 -19 21 -31 48 l-22 47 4 -47 c2 -27 -1 -49 -7 -51 -21 -7 5 -27 34 -27
33 0 35 -7 15 -55 -14 -33 -14 -35 12 -54 15 -11 69 -37 120 -59 144 -62 155
-73 236 -243 61 -128 74 -148 96 -151 46 -6 234 12 315 29 88 18 91 18 220 8
112 -9 253 18 356 67 l69 33 0 1018 0 1017 -2400 0 -2400 0 0 -848z"/>
<path d="M1077 2045 l-77 -46 16 -25 c14 -21 15 -29 4 -49 -12 -22 -11 -28 10
-50 15 -16 31 -57 46 -121 l23 -97 -109 -255 c-166 -383 -191 -429 -205 -370
-7 30 -35 532 -35 625 0 39 4 74 9 77 5 3 27 37 51 76 23 39 53 76 66 82 25
12 27 34 3 31 -8 -1 -52 -18 -99 -37 -47 -19 -127 -46 -179 -59 -79 -21 -96
-29 -108 -51 -12 -23 -11 -29 8 -55 13 -18 28 -65 39 -121 17 -90 17 -91 -5
-133 -12 -23 -64 -132 -116 -242 -51 -110 -109 -231 -129 -270 -36 -70 -64
-92 -73 -58 -3 10 -8 163 -12 341 l-7 323 43 67 c50 79 88 122 106 122 8 0 13
12 13 30 0 17 -3 30 -8 30 -11 0 -260 -28 -311 -36 l-44 -6 8 -126 c5 -70 8
-143 6 -162 -1 -19 -5 -360 -7 -758 l-4 -722 1158 0 1159 0 13 73 c16 90 53
221 84 295 24 56 30 90 62 327 9 66 27 176 39 245 13 68 21 128 19 132 -3 5
-18 8 -34 8 -40 0 -47 18 -17 44 14 11 32 35 40 51 l15 31 -103 -1 -104 0 26
-27 c17 -18 31 -52 44 -105 24 -101 24 -116 -5 -193 -13 -36 -58 -159 -101
-275 -83 -229 -103 -275 -116 -275 -16 0 -27 74 -61 378 l-33 304 39 71 c21
40 52 86 68 103 35 38 31 69 -10 85 -42 16 -183 56 -226 63 -33 6 -38 5 -28
-6 6 -8 21 -54 32 -103 l21 -88 -26 -66 c-14 -36 -66 -176 -115 -311 -50 -135
-97 -251 -105 -259 -12 -13 -16 -11 -24 12 -6 14 -22 140 -36 279 -44 421 -44
370 8 473 30 60 54 95 72 105 24 13 44 59 37 84 -2 5 -31 50 -65 100 -68 99
-187 226 -212 226 -13 0 -13 -4 4 -27 11 -16 28 -66 37 -113 l16 -85 -46 -120
c-104 -271 -212 -529 -222 -532 -6 -2 -15 4 -19 14 -4 10 -19 166 -33 348
l-26 329 45 84 c25 47 58 94 77 108 17 14 32 34 32 44 0 10 5 22 10 25 13 8
-196 229 -219 233 -9 1 -51 -18 -94 -43z"/>
<path d="M4685 1409 c-133 -24 -186 -41 -202 -66 -15 -23 -15 -26 9 -47 13
-13 39 -63 57 -111 l34 -88 -78 -251 c-93 -301 -116 -368 -132 -373 -6 -2 -14
4 -17 14 -5 16 -53 273 -91 488 -8 44 -17 96 -21 116 -5 29 1 50 34 116 23 44
54 90 69 102 l28 22 -85 -5 c-47 -3 -137 -8 -200 -12 -110 -6 -116 -8 -115
-28 0 -11 8 -32 17 -46 8 -14 28 -63 43 -108 l27 -84 -87 -286 c-92 -300 -111
-350 -126 -335 -5 5 -16 47 -25 93 -9 47 -20 109 -26 138 -5 30 -11 52 -13 50
-1 -2 3 -59 9 -128 12 -145 14 -379 4 -497 l-7 -83 504 0 505 0 0 314 c0 271
-3 327 -20 412 -30 153 -90 497 -90 517 0 9 18 53 40 97 45 89 47 85 -45 69z"/>
<path d="M3802 1297 c-28 -17 -32 -24 -27 -46 9 -36 10 -36 44 0 50 52 39 80
-17 46z"/>
</g>
</svg>
