<?xml version="1.0" standalone="no"?>
<!DOCTYPE svg PUBLIC "-//W3C//DTD SVG 20010904//EN"
 "http://www.w3.org/TR/2001/REC-SVG-20010904/DTD/svg10.dtd">
<svg version="1.0" xmlns="http://www.w3.org/2000/svg"
 width="480.000000pt" height="360.000000pt" viewBox="0 0 480.000000 360.000000"
 preserveAspectRatio="xMidYMid meet">
<metadata>
Created by potrace 1.16, written by Peter Selinger 2001-2019
</metadata>
<rect width="1" height="360" fill="#000000"/>
<rect x="479" width="1" height="360" fill="#000000"/>
<rect width="480" height="1" fill="#000000"/>
<rect y="359" width="480" height="1" fill="#000000"/>
<g transform="translate(0.000000,360.000000) scale(0.100000,-0.100000)"
fill="#000000" stroke="none">
<path d="M1919 2818 c-74 -38 -105 -77 -115 -146 -3 -26 -14 -56 -24 -67 -58
-66 -64 -159 -15 -238 36 -60 95 -142 104 -145 13 -5 31 47 31 89 l0 41 33
-29 c32 -28 33 -28 31 -117 -1 -56 -6 -91 -14 -96 -6 -4 -16 -40 -21 -81 -8
-66 -7 -77 10 -100 16 -21 18 -37 14 -90 -5 -59 -3 -67 22 -97 20 -24 35 -32
60 -32 18 0 48 -6 67 -14 19 -8 57 -18 85 -22 l51 -6 7 -165 c9 -188 2 -280
-26 -367 -11 -34 -24 -83 -29 -111 -4 -27 -17 -94 -28 -149 l-20 -98 20 -39
c27 -52 93 -108 119 -102 12 4 19 0 19 -10 0 -17 99 -39 189 -41 31 -1 65 -6
76 -12 11 -5 70 -9 130 -9 102 1 114 3 158 29 38 23 50 26 62 16 17 -14 65
-112 65 -133 0 -14 48 -142 73 -197 7 -14 21 -35 32 -47 11 -12 28 -32 39 -44
14 -16 25 -20 50 -15 55 11 121 50 124 74 4 27 -41 121 -74 157 -13 15 -33 51
-44 82 -11 31 -28 62 -38 69 -11 7 -25 28 -32 46 -6 18 -19 50 -27 71 -14 33
-15 39 -1 55 9 9 23 33 33 52 10 18 24 41 32 49 8 8 32 37 53 65 22 28 53 67
69 86 17 19 31 38 31 41 0 4 16 30 35 59 19 29 35 61 35 72 0 27 -46 103 -80
132 -21 17 -30 34 -32 62 -3 37 -6 41 -63 68 -35 17 -85 32 -121 35 -69 8
-120 39 -247 154 -60 53 -76 74 -82 104 -4 20 -15 54 -26 75 -10 20 -19 48
-19 60 0 13 -33 72 -74 130 -94 135 -113 173 -96 193 21 26 2 62 -66 122 -80
70 -100 82 -141 83 -39 0 -62 30 -38 50 8 7 15 19 15 27 0 10 6 8 22 -7 12
-11 25 -20 28 -20 4 0 8 30 9 67 1 36 4 70 7 74 9 16 -18 93 -47 136 -36 52
-109 98 -143 89 -16 -4 -29 1 -42 15 -53 58 -122 64 -215 17z"/>
</g>
</svg>
