<?xml version="1.0" standalone="no"?>
<!DOCTYPE svg PUBLIC "-//W3C//DTD SVG 20010904//EN"
 "http://www.w3.org/TR/2001/REC-SVG-20010904/DTD/svg10.dtd">
<svg version="1.0" xmlns="http://www.w3.org/2000/svg"
 width="480.000000pt" height="360.000000pt" viewBox="0 0 480.000000 360.000000"
 preserveAspectRatio="xMidYMid meet">
<metadata>
Created by potrace 1.16, written by Peter Selinger 2001-2019
</metadata>
<rect width="1" height="360" fill="#000000"/>
<rect x="479" width="1" height="360" fill="#000000"/>
<rect width="480" height="1" fill="#000000"/>
<rect y="359" width="480" height="1" fill="#000000"/>
<g transform="translate(0.000000,360.000000) scale(0.100000,-0.100000)"
fill="#000000" stroke="none">
<path d="M2815 3555 c-28 -72 -18 -202 22 -285 17 -35 30 -67 27 -71 -2 -4
-26 -15 -52 -23 -134 -45 -311 -186 -398 -318 -52 -80 -69 -123 -90 -228 -14
-76 -58 -180 -75 -180 -5 0 -9 -5 -9 -10 0 -13 40 7 58 29 11 14 12 10 7 -21
-5 -29 -3 -37 8 -32 11 4 12 -7 9 -54 -2 -32 -2 -67 0 -78 4 -17 6 -16 15 6
10 24 11 24 22 -17 15 -53 36 -70 27 -22 l-6 34 13 -32 c15 -40 47 -75 47 -53
1 11 3 11 11 -2 5 -10 14 -18 20 -18 5 0 24 -16 41 -35 17 -20 33 -33 36 -31
3 3 -3 26 -13 51 -25 68 -12 66 16 -2 23 -56 24 -57 30 -28 l6 30 8 -28 c11
-40 -9 -100 -45 -136 -17 -16 -30 -34 -30 -38 0 -14 42 -50 67 -57 14 -5 26
-21 35 -49 8 -26 22 -46 36 -52 12 -5 25 -19 29 -30 3 -11 14 -26 23 -32 10
-7 30 -33 45 -58 26 -46 28 -72 9 -162 -3 -16 2 -24 17 -28 18 -6 20 -12 15
-45 -4 -24 -2 -40 5 -42 6 -2 20 -54 31 -116 l20 -112 -37 -112 c-21 -62 -42
-118 -47 -125 -7 -8 -24 -4 -65 18 -62 33 -107 37 -142 13 -22 -16 -23 -20
-17 -103 6 -86 -3 -129 -31 -138 -6 -2 -35 38 -63 89 -76 134 -108 175 -155
198 -23 11 -47 30 -52 43 -6 12 -23 38 -39 56 -27 32 -28 37 -25 130 4 156
-43 265 -129 301 -21 9 -58 10 -127 5 -54 -4 -100 -7 -102 -6 -2 0 -5 17 -7
37 -4 42 -8 49 -25 39 -7 -5 -9 -22 -5 -51 l5 -43 -62 -20 c-35 -12 -88 -37
-119 -56 -49 -31 -57 -41 -68 -82 -7 -27 -18 -69 -26 -94 -11 -36 -12 -53 -3
-75 6 -16 15 -55 20 -87 15 -94 32 -130 94 -205 61 -75 97 -96 203 -123 28 -7
52 -17 52 -21 0 -5 -9 -26 -20 -48 -63 -124 -110 -324 -110 -470 0 -26 -11
-84 -25 -130 -14 -46 -25 -92 -25 -102 0 -17 23 -18 509 -18 l509 0 10 48 c6
26 14 76 18 110 4 35 10 58 14 52 4 -7 16 -57 26 -111 l19 -99 648 0 648 0 -2
91 c-1 49 2 94 7 98 5 4 34 13 64 21 83 19 173 70 126 70 -24 0 -19 13 20 51
35 34 35 34 12 41 -50 14 -81 6 -200 -51 -67 -33 -124 -58 -126 -57 -1 2 -7
29 -13 62 -6 32 -15 65 -21 71 -6 7 -8 22 -5 34 3 11 -3 53 -14 92 -10 40 -21
90 -23 112 -4 40 -61 277 -73 305 -14 32 -11 66 6 67 12 1 22 -15 35 -50 49
-139 76 -177 76 -105 0 17 8 40 17 50 15 17 15 20 -5 47 -18 24 -23 53 -32
167 -7 82 -8 140 -2 146 5 5 24 -27 47 -82 21 -49 39 -90 41 -90 8 0 -7 138
-25 242 -32 176 -28 184 18 37 30 -98 107 -270 136 -304 l17 -20 -7 20 c-17
49 -52 235 -45 235 5 0 20 -21 36 -47 30 -53 85 -126 90 -121 2 2 -3 44 -11
93 -9 52 -19 227 -25 410 -10 345 -15 436 -31 560 -26 206 -87 436 -163 614
-20 46 -38 98 -41 115 -14 112 -97 262 -194 349 -75 68 -200 91 -308 56 -41
-13 -51 -6 -146 96 -39 43 -100 100 -136 126 l-64 49 -153 0 -152 0 -17 -45z
m244 -2034 c-29 -25 -43 -27 -35 -5 3 9 6 41 7 72 l0 57 26 -52 27 -52 -25
-20z"/>
</g>
</svg>
