<?xml version="1.0" standalone="no"?>
<!DOCTYPE svg PUBLIC "-//W3C//DTD SVG 20010904//EN"
 "http://www.w3.org/TR/2001/REC-SVG-20010904/DTD/svg10.dtd">
<svg version="1.0" xmlns="http://www.w3.org/2000/svg"
 width="480.000000pt" height="360.000000pt" viewBox="0 0 480.000000 360.000000"
 preserveAspectRatio="xMidYMid meet">
<metadata>
Created by potrace 1.16, written by Peter Selinger 2001-2019
</metadata>
<rect width="1" height="360" fill="#000000"/>
<rect x="479" width="1" height="360" fill="#000000"/>
<rect width="480" height="1" fill="#000000"/>
<rect y="359" width="480" height="1" fill="#000000"/>
<g transform="translate(0.000000,360.000000) scale(0.100000,-0.100000)"
fill="#000000" stroke="none">
<path d="M1161 3575 c-1 -14 -2 -31 -2 -37 -2 -38 15 -156 25 -173 6 -11 11
-24 12 -30 1 -26 18 -83 31 -108 l14 -29 85 6 c111 6 111 0 9 -139 -69 -94
-78 -119 -53 -167 10 -21 26 -39 36 -40 9 0 29 -2 44 -3 37 -3 54 -19 63 -58
4 -17 12 -144 19 -282 12 -238 13 -248 28 -216 l15 34 5 -29 c2 -16 1 -61 -2
-101 -4 -57 -3 -69 8 -61 7 6 15 9 17 6 14 -14 -14 -42 -74 -78 -37 -21 -86
-59 -108 -83 -48 -52 -50 -61 -57 -282 -2 -82 -7 -157 -11 -167 -4 -10 -27
-20 -65 -26 -118 -21 -136 -59 -71 -145 22 -29 44 -63 49 -77 12 -32 -39 -370
-61 -403 -26 -40 -377 -696 -377 -704 0 -5 20 -29 45 -54 43 -42 45 -46 39
-87 l-6 -42 1230 0 1230 0 12 30 c17 41 8 102 -30 198 -16 42 -30 84 -30 93 0
9 11 55 25 102 l25 86 -85 178 c-76 163 -130 287 -251 586 -24 59 -48 116 -54
127 -9 16 -6 29 14 63 70 118 22 218 -113 234 l-50 6 -11 56 c-39 195 -49 219
-116 291 -40 43 -44 51 -40 90 2 24 10 48 19 54 12 10 13 26 6 101 -5 50 -9
127 -10 172 -2 70 -5 82 -20 86 -15 4 -19 15 -19 50 0 27 6 49 14 57 8 6 13
17 10 25 -3 7 -1 16 5 20 7 4 9 -1 5 -12 -3 -10 8 -2 26 17 56 63 84 202 61
303 -9 37 2 49 24 28 6 -5 27 -12 47 -15 37 -7 39 -5 68 41 16 26 30 53 30 60
0 7 4 13 10 13 12 0 28 29 34 63 2 15 12 37 20 49 9 12 16 37 16 54 0 18 6 34
14 37 8 3 18 27 22 53 4 26 15 55 25 65 11 11 19 30 19 43 0 14 5 28 10 31 6
3 10 19 10 36 l0 29 -929 0 -928 0 -2 -25z m392 -3218 c-22 -43 -25 -27 -11
49 l12 69 7 -45 c4 -31 2 -54 -8 -73z"/>
</g>
</svg>
