<?xml version="1.0" standalone="no"?>
<!DOCTYPE svg PUBLIC "-//W3C//DTD SVG 20010904//EN"
 "http://www.w3.org/TR/2001/REC-SVG-20010904/DTD/svg10.dtd">
<svg version="1.0" xmlns="http://www.w3.org/2000/svg"
 width="480.000000pt" height="360.000000pt" viewBox="0 0 480.000000 360.000000"
 preserveAspectRatio="xMidYMid meet">
<metadata>
Created by potrace 1.16, written by Peter Selinger 2001-2019
</metadata>
<rect width="1" height="360" fill="#000000"/>
<rect x="479" width="1" height="360" fill="#000000"/>
<rect width="480" height="1" fill="#000000"/>
<rect y="359" width="480" height="1" fill="#000000"/>
<g transform="translate(0.000000,360.000000) scale(0.100000,-0.100000)"
fill="#000000" stroke="none">
<path d="M0 1800 l0 -1800 364 0 364 0 -63 126 c-129 255 -203 520 -256 919
-30 227 -38 694 -15 928 22 230 24 212 -32 242 -86 45 -122 89 -122 150 0 74
75 151 173 177 88 23 114 -27 52 -99 -19 -23 -32 -44 -28 -46 16 -9 70 -17
213 -32 445 -44 579 -44 702 1 233 84 394 105 656 86 224 -17 491 -70 654
-130 l48 -18 66 63 c74 72 93 112 117 253 14 81 17 87 60 125 24 22 60 48 78
57 168 84 296 123 369 113 58 -9 67 -14 151 -87 l71 -60 81 16 c45 9 98 16
117 16 45 0 100 -33 100 -60 0 -27 -64 -89 -134 -131 -34 -20 -56 -41 -56 -51
0 -10 18 -63 40 -118 22 -55 40 -102 40 -104 0 -2 -8 -6 -18 -9 -11 -2 -22
-17 -25 -35 -7 -32 -58 -73 -118 -94 -33 -11 -38 -40 -14 -72 22 -29 18 -44
-14 -60 -35 -19 -42 -36 -31 -76 10 -34 36 -60 90 -89 19 -11 45 -29 57 -40
12 -12 27 -21 33 -21 16 0 62 -49 55 -59 -3 -5 30 -35 72 -65 43 -31 120 -89
171 -129 83 -64 98 -72 140 -74 36 -2 51 -7 62 -24 8 -12 27 -33 43 -48 15
-14 27 -31 27 -37 0 -27 60 -126 121 -200 125 -150 187 -244 285 -429 l54
-100 0 1463 0 1462 -2400 0 -2400 0 0 -1800z"/>
<path d="M1690 2278 c-114 -11 -153 -23 -300 -93 -136 -64 -210 -85 -304 -85
-28 0 -56 -4 -63 -8 -19 -12 -53 -258 -62 -452 -5 -102 -8 -374 -7 -605 2
-344 6 -437 20 -515 26 -148 62 -285 107 -407 l41 -113 742 0 742 0 16 69 c21
90 79 213 168 355 39 63 83 141 98 173 27 58 27 59 24 248 -2 121 3 248 13
350 31 316 30 301 6 314 -15 9 -21 9 -21 1 0 -6 -7 -18 -15 -26 -13 -14 -15
-13 -15 10 0 19 -5 26 -18 26 -18 0 -17 7 9 113 16 61 36 125 45 140 9 16 14
30 12 31 -1 2 -16 10 -33 18 -127 65 -147 80 -171 131 -12 28 -26 75 -30 105
-8 63 -3 60 -189 117 -158 48 -336 83 -510 100 -149 15 -179 15 -305 3z"/>
<path d="M3746 1578 c4 -7 16 -19 26 -26 10 -7 18 -19 18 -25 0 -7 -21 -55
-46 -109 l-47 -96 29 -39 c15 -21 37 -48 48 -60 l19 -23 17 50 c20 59 52 88
128 115 30 11 57 25 59 31 2 6 -29 35 -69 65 -152 114 -198 144 -182 117z"/>
<path d="M4210 1154 c-6 -14 -10 -32 -10 -40 0 -49 -51 -98 -134 -129 -37 -15
-59 -32 -93 -76 -62 -79 -94 -91 -177 -67 -31 9 -62 34 -127 102 l-86 89 -28
-119 c-32 -140 -36 -149 -75 -169 -27 -14 -30 -20 -30 -63 0 -26 16 -124 35
-217 33 -165 65 -376 65 -436 l0 -29 625 0 625 0 0 120 c0 99 -3 128 -19 158
-10 20 -33 75 -51 122 -105 277 -276 559 -449 743 -41 44 -58 46 -71 11z"/>
</g>
</svg>
