<?xml version="1.0" standalone="no"?>
<!DOCTYPE svg PUBLIC "-//W3C//DTD SVG 20010904//EN"
 "http://www.w3.org/TR/2001/REC-SVG-20010904/DTD/svg10.dtd">
<svg version="1.0" xmlns="http://www.w3.org/2000/svg"
 width="480.000000pt" height="360.000000pt" viewBox="0 0 480.000000 360.000000"
 preserveAspectRatio="xMidYMid meet">
<metadata>
Created by potrace 1.16, written by Peter Selinger 2001-2019
</metadata>
<rect width="1" height="360" fill="#000000"/>
<rect x="479" width="1" height="360" fill="#000000"/>
<rect width="480" height="1" fill="#000000"/>
<rect y="359" width="480" height="1" fill="#000000"/>
<g transform="translate(0.000000,360.000000) scale(0.100000,-0.100000)"
fill="#000000" stroke="none">
<path d="M0 1800 l0 -1800 1027 2 1028 3 22 155 c12 85 25 181 30 213 9 54 7
63 -35 165 -88 216 -94 338 -23 496 15 34 18 53 11 60 -18 18 -11 50 30 135
22 45 40 84 40 87 0 2 -18 1 -40 -2 -22 -4 -40 -2 -40 2 0 5 34 43 75 84 47
47 77 85 81 104 4 17 20 50 36 74 26 38 32 60 46 174 12 103 13 133 4 136 -7
2 -22 21 -33 43 -10 22 -28 45 -39 51 -11 7 -20 18 -20 24 0 6 -9 19 -19 28
-11 10 -22 28 -25 42 -4 13 -19 30 -36 39 -43 22 -45 33 -14 66 l28 29 -27 28
c-18 18 -30 23 -35 16 -4 -6 -18 -10 -32 -9 -19 1 -31 14 -53 56 -29 55 -43
76 -32 47 4 -9 2 -19 -3 -22 -6 -4 -18 26 -28 69 -18 75 -18 75 -30 45 -17
-39 -23 -38 -22 3 0 73 57 250 110 344 59 106 203 201 393 260 79 24 106 27
220 27 159 0 204 -15 333 -110 141 -105 176 -157 243 -357 58 -174 72 -295 75
-662 2 -285 7 -371 34 -635 25 -242 32 -359 35 -565 l2 -260 77 -153 c42 -85
88 -194 103 -243 l28 -89 638 0 637 0 0 1800 0 1800 -2400 0 -2400 0 0 -1800z"/>
</g>
</svg>
