<?xml version="1.0" standalone="no"?>
<!DOCTYPE svg PUBLIC "-//W3C//DTD SVG 20010904//EN"
 "http://www.w3.org/TR/2001/REC-SVG-20010904/DTD/svg10.dtd">
<svg version="1.0" xmlns="http://www.w3.org/2000/svg"
 width="480.000000pt" height="360.000000pt" viewBox="0 0 480.000000 360.000000"
 preserveAspectRatio="xMidYMid meet">
<metadata>
Created by potrace 1.16, written by Peter Selinger 2001-2019
</metadata>
<rect width="1" height="360" fill="#000000"/>
<rect x="479" width="1" height="360" fill="#000000"/>
<rect width="480" height="1" fill="#000000"/>
<rect y="359" width="480" height="1" fill="#000000"/>
<g transform="translate(0.000000,360.000000) scale(0.100000,-0.100000)"
fill="#000000" stroke="none">
<path d="M0 2314 l0 -1286 28 6 c132 29 644 80 1015 103 l289 18 82 110 c60
79 99 121 141 150 32 22 58 45 59 50 0 6 -26 27 -57 48 l-57 38 38 59 c35 56
118 152 236 274 41 43 86 97 179 216 57 73 191 292 335 545 46 83 90 157 97
165 7 8 15 26 18 40 9 36 39 392 34 397 -7 7 -60 -20 -104 -54 -142 -107 -287
-89 -430 54 -78 77 -142 203 -150 293 l-6 60 -873 0 -874 0 0 -1286z"/>
<path d="M3140 3595 c0 -2 -18 -127 -40 -277 -59 -397 -116 -728 -137 -789
-11 -30 -59 -115 -109 -189 -256 -385 -368 -601 -453 -877 -41 -136 -86 -254
-108 -289 -13 -21 -12 -21 169 -33 101 -6 252 -19 336 -27 88 -10 157 -13 162
-8 4 5 29 59 54 121 26 61 65 136 87 167 l39 55 -45 37 c-25 20 -48 47 -51 59
-10 39 30 143 143 370 60 121 125 270 145 330 45 135 123 437 177 689 22 104
45 194 51 201 7 8 4 30 -9 71 -10 32 -43 134 -72 227 l-52 167 -144 0 c-79 0
-143 -2 -143 -5z"/>
<path d="M4287 3513 c32 -215 44 -354 41 -442 -4 -91 -8 -108 -80 -301 -188
-507 -243 -723 -273 -1070 -16 -184 -51 -361 -80 -406 -8 -12 -32 -30 -54 -40
l-41 -19 6 -90 c4 -49 9 -117 13 -150 l6 -60 190 -55 c246 -72 441 -138 623
-211 80 -32 149 -59 154 -59 4 0 8 673 8 1495 l0 1495 -263 0 -263 0 13 -87z"/>
<path d="M1140 719 c-372 -24 -663 -51 -972 -91 l-168 -21 0 -304 0 -303 2400
0 2400 0 0 94 0 93 -87 36 c-330 136 -706 253 -1075 336 -76 17 -144 28 -151
25 -7 -2 -30 2 -50 11 -53 22 -82 19 -101 -10 -12 -18 -25 -25 -50 -25 -35 0
-53 15 -72 59 l-11 26 -19 -32 c-41 -71 -128 -55 -147 28 -6 25 -10 26 -153
43 -191 22 -514 46 -631 46 -83 0 -96 -3 -130 -26 -31 -21 -45 -24 -73 -19
-45 10 -72 9 -137 0 -41 -6 -58 -4 -77 9 -33 21 -48 20 -98 -5 -30 -15 -50
-19 -77 -14 -64 12 -115 9 -164 -11 -43 -17 -50 -18 -74 -4 -14 8 -31 24 -37
35 -21 39 -18 39 -246 24z"/>
</g>
</svg>
