<?xml version="1.0" standalone="no"?>
<!DOCTYPE svg PUBLIC "-//W3C//DTD SVG 20010904//EN"
 "http://www.w3.org/TR/2001/REC-SVG-20010904/DTD/svg10.dtd">
<svg version="1.0" xmlns="http://www.w3.org/2000/svg"
 width="480.000000pt" height="360.000000pt" viewBox="0 0 480.000000 360.000000"
 preserveAspectRatio="xMidYMid meet">
<metadata>
Created by potrace 1.16, written by Peter Selinger 2001-2019
</metadata>
<rect width="1" height="360" fill="#000000"/>
<rect x="479" width="1" height="360" fill="#000000"/>
<rect width="480" height="1" fill="#000000"/>
<rect y="359" width="480" height="1" fill="#000000"/>
<g transform="translate(0.000000,360.000000) scale(0.100000,-0.100000)"
fill="#000000" stroke="none">
<path d="M0 1800 l0 -1800 448 0 447 0 54 161 c62 187 118 305 193 404 49 65
53 74 46 105 -4 19 -11 96 -15 170 -5 115 -8 130 -17 103 -27 -78 -34 -32 -14
89 9 56 9 73 0 76 -16 5 -8 71 24 208 51 223 64 342 84 774 12 245 31 412 56
487 18 53 72 140 120 192 l33 37 -13 50 c-23 89 -29 95 -106 109 -66 12 -70
15 -70 46 0 34 16 42 98 54 33 4 63 16 82 31 15 14 49 34 75 45 26 12 43 24
39 29 -5 4 -43 17 -84 30 -100 30 -160 61 -198 105 -67 76 -34 92 101 51 42
-14 77 -23 77 -21 0 3 -23 39 -50 81 -28 43 -57 101 -66 131 l-15 53 -665 0
-664 0 0 -1800z"/>
<path d="M1483 3534 c31 -37 75 -102 99 -145 24 -43 46 -79 49 -79 3 0 9 35
13 78 6 70 22 150 41 195 7 16 -3 17 -125 17 l-132 0 55 -66z"/>
<path d="M1787 3532 c-4 -37 -15 -100 -25 -140 -10 -39 -16 -72 -13 -72 2 0
14 9 25 19 37 34 229 151 248 151 68 0 -83 -169 -222 -249 -36 -20 -65 -43
-65 -50 0 -20 126 -59 224 -70 46 -6 85 -12 88 -14 2 -3 5 -17 6 -32 2 -23 -4
-29 -48 -46 -69 -26 -85 -48 -85 -119 0 -54 2 -58 30 -70 30 -13 160 -139 205
-200 38 -51 57 -129 53 -208 -6 -91 -28 -184 -47 -199 -14 -10 -16 -39 -14
-195 1 -163 20 -528 28 -536 8 -8 84 50 90 68 4 11 7 63 8 116 2 89 4 97 27
114 24 18 100 40 140 40 11 0 34 -13 52 -29 l33 -29 0 -100 c1 -81 4 -104 18
-120 9 -10 17 -23 17 -29 0 -11 57 -39 65 -32 5 6 23 282 31 495 6 141 4 183
-9 235 -23 91 -47 221 -47 256 0 56 32 137 77 195 l45 59 -30 72 c-44 106 -56
180 -49 315 6 122 25 200 81 327 30 67 41 68 27 3 -22 -96 -31 -259 -20 -356
11 -96 47 -232 71 -265 13 -17 16 -17 59 7 70 40 161 59 254 54 102 -6 158
-30 236 -104 l60 -58 29 35 c25 30 110 178 110 192 0 3 -12 5 -27 4 -22 -2
-34 9 -75 69 -27 39 -46 78 -43 85 11 29 50 43 120 44 l69 0 12 40 c7 22 13
83 14 135 2 88 3 93 15 65 7 -16 20 -72 29 -124 9 -52 18 -96 20 -98 2 -3 13
0 24 6 42 22 89 13 132 -25 22 -20 40 -40 40 -44 0 -9 -129 -135 -138 -135 -3
0 -9 13 -13 29 -8 28 -36 66 -49 66 -4 0 -10 -21 -13 -47 -15 -123 -89 -285
-169 -369 -29 -31 -29 -33 -14 -62 34 -67 52 -215 71 -612 16 -333 32 -470 75
-660 16 -69 31 -147 33 -175 5 -46 4 -48 -10 -30 -14 19 -15 18 -9 -10 21
-115 28 -199 18 -238 -6 -23 -13 -83 -16 -134 l-6 -92 45 -20 c25 -11 89 -32
143 -46 175 -46 267 -107 393 -261 44 -54 73 -105 109 -189 28 -64 50 -120 50
-125 0 -6 81 -10 210 -10 l210 0 0 1800 0 1800 -1504 0 -1503 0 -6 -68z"/>
<path d="M2210 1312 c-18 -15 -22 -24 -16 -46 9 -37 29 -28 38 19 10 47 7 51
-22 27z"/>
<path d="M2566 1283 c8 -44 12 -53 24 -53 20 0 23 50 5 70 -27 30 -37 24 -29
-17z"/>
<path d="M2378 1236 c-9 -18 -22 -62 -29 -96 -10 -54 -18 -68 -62 -111 l-49
-49 32 -127 c17 -71 44 -173 60 -228 45 -160 43 -166 -15 -50 -61 123 -120
263 -130 313 -4 17 -9 32 -12 32 -2 0 -36 -28 -75 -62 l-70 -63 6 -124 c7
-143 -4 -151 -31 -23 -9 45 -21 82 -25 82 -4 0 -8 -33 -8 -72 -1 -97 -16 -278
-25 -286 -11 -11 -24 20 -41 98 -17 75 -28 99 -40 88 -10 -11 36 -229 84 -393
l47 -160 450 0 450 0 7 70 c22 215 36 455 29 481 -8 28 -9 27 -24 -26 -9 -30
-21 -73 -26 -95 -6 -22 -17 -49 -24 -59 -12 -17 -15 -7 -20 80 -4 54 -7 131
-8 169 -2 126 -13 132 -38 23 -12 -54 -27 -101 -32 -104 -6 -4 -8 7 -5 28 3
18 8 76 11 128 l5 95 -70 63 -70 63 -10 -26 c-5 -14 -13 -38 -16 -53 -8 -30
-152 -353 -163 -365 -11 -11 5 80 23 138 9 27 34 119 56 203 l40 153 -49 48
c-38 37 -50 57 -56 92 -8 45 -41 138 -54 152 -4 4 -14 -8 -23 -27z"/>
<path d="M1145 1130 c-3 -5 -1 -10 4 -10 6 0 11 5 11 10 0 6 -2 10 -4 10 -3 0
-8 -4 -11 -10z"/>
</g>
</svg>
