<?xml version="1.0" standalone="no"?>
<!DOCTYPE svg PUBLIC "-//W3C//DTD SVG 20010904//EN"
 "http://www.w3.org/TR/2001/REC-SVG-20010904/DTD/svg10.dtd">
<svg version="1.0" xmlns="http://www.w3.org/2000/svg"
 width="480.000000pt" height="360.000000pt" viewBox="0 0 480.000000 360.000000"
 preserveAspectRatio="xMidYMid meet">
<metadata>
Created by potrace 1.16, written by Peter Selinger 2001-2019
</metadata>
<rect width="1" height="360" fill="#000000"/>
<rect x="479" width="1" height="360" fill="#000000"/>
<rect width="480" height="1" fill="#000000"/>
<rect y="359" width="480" height="1" fill="#000000"/>
<g transform="translate(0.000000,360.000000) scale(0.100000,-0.100000)"
fill="#000000" stroke="none">
<path d="M1847 3460 c-34 -12 -69 -70 -74 -123 -2 -28 -7 -72 -9 -97 -7 -63
-3 -190 7 -210 4 -8 7 -24 8 -42 2 -24 33 -31 97 -19 32 6 60 9 62 6 3 -3 -4
-18 -15 -33 -134 -182 -146 -241 -51 -245 28 -2 33 -5 32 -27 -1 -29 -41 -264
-50 -297 -4 -13 -2 -23 3 -23 5 0 21 33 36 73 30 84 31 76 12 -102 -13 -125
-16 -136 -43 -165 -41 -43 -58 -80 -71 -161 -11 -63 -46 -204 -53 -211 -2 -1
-24 3 -51 9 -26 5 -50 7 -54 4 -3 -4 1 -30 10 -58 23 -69 21 -89 -9 -161 -14
-33 -37 -93 -51 -132 -32 -89 -124 -296 -195 -442 l-55 -111 14 -69 c18 -85
21 -221 9 -474 -10 -226 -4 -266 50 -317 l35 -32 760 -1 761 0 -6 27 c-6 25
-2 30 33 44 25 11 46 29 57 50 21 41 29 176 17 277 l-10 73 29 15 c26 14 49
52 69 118 11 39 -3 90 -41 149 -30 45 -31 47 -14 72 9 14 23 24 30 21 8 -3 14
1 14 9 0 8 5 15 11 15 15 0 5 88 -32 285 -11 61 -25 135 -30 165 -11 66 -47
198 -60 222 -5 10 -9 23 -9 31 0 26 -84 215 -138 312 -16 28 -41 73 -57 100
-16 28 -37 66 -48 85 -10 19 -28 45 -39 57 -26 27 -36 102 -17 117 20 16 20
246 0 262 -19 15 -8 67 24 119 25 40 37 26 14 -17 -8 -16 -8 -19 1 -13 26 16
50 90 50 158 0 51 3 67 14 67 17 0 79 50 72 57 -3 3 6 20 19 38 14 17 25 34
25 38 0 3 27 52 59 108 36 62 56 108 51 114 -8 10 -10 16 -10 36 0 15 -121 68
-208 90 -129 33 -268 20 -299 -28 l-17 -25 -16 22 c-23 31 -85 49 -163 47 -46
-1 -67 2 -67 10 0 29 -136 100 -228 118 -55 11 -180 21 -195 15z m83 -1933 c0
-52 -36 -246 -47 -257 -8 -7 5 158 19 242 6 37 15 68 19 68 5 0 9 -24 9 -53z
m686 -275 c1 -217 0 -224 -12 -147 -20 124 -17 375 5 375 3 0 6 -102 7 -228z
m14 -300 l-1 -57 -14 33 c-8 18 -12 46 -8 62 9 47 23 24 23 -38z"/>
</g>
</svg>
