<?xml version="1.0" standalone="no"?>
<!DOCTYPE svg PUBLIC "-//W3C//DTD SVG 20010904//EN"
 "http://www.w3.org/TR/2001/REC-SVG-20010904/DTD/svg10.dtd">
<svg version="1.0" xmlns="http://www.w3.org/2000/svg"
 width="480.000000pt" height="360.000000pt" viewBox="0 0 480.000000 360.000000"
 preserveAspectRatio="xMidYMid meet">
<metadata>
Created by potrace 1.16, written by Peter Selinger 2001-2019
</metadata>
<rect width="1" height="360" fill="#000000"/>
<rect x="479" width="1" height="360" fill="#000000"/>
<rect width="480" height="1" fill="#000000"/>
<rect y="359" width="480" height="1" fill="#000000"/>
<g transform="translate(0.000000,360.000000) scale(0.100000,-0.100000)"
fill="#000000" stroke="none">
<path d="M0 1800 l0 -1800 734 0 c708 0 734 1 729 18 -9 38 16 163 45 225 l30
62 1 -153 1 -152 583 2 582 3 10 23 c5 12 16 22 24 22 10 0 12 8 7 31 -7 34
-36 84 -108 187 -27 36 -48 77 -48 91 0 13 -25 87 -56 165 -93 236 -96 245
-92 253 1 5 27 53 57 107 l55 99 49 -53 c27 -30 66 -77 88 -106 48 -65 54 -69
83 -51 26 18 33 15 70 -36 36 -48 119 -109 139 -102 27 11 28 -25 2 -49 -32
-30 -32 -40 0 -34 27 6 30 1 16 -21 -14 -21 4 -47 36 -56 38 -9 53 15 53 89 0
80 -38 146 -136 241 -40 39 -75 81 -79 95 -4 14 -70 88 -145 165 -120 122
-139 146 -144 180 -4 22 -13 72 -21 110 -22 104 -22 104 49 45 26 -22 52 -37
57 -34 5 3 9 22 9 43 0 49 -29 87 -74 95 -27 5 -37 13 -45 38 -15 42 -14 51 4
44 8 -3 64 2 123 10 74 11 140 14 212 9 115 -6 120 -5 158 51 l22 32 42 -15
c72 -25 114 -13 171 49 66 71 62 77 -69 103 -13 3 -24 15 -28 29 -6 24 -7 24
-103 20 -54 -2 -117 -6 -140 -10 -23 -3 -64 -1 -90 5 -114 26 -210 30 -286 10
-39 -10 -77 -25 -83 -34 -20 -27 -81 -19 -124 17 -22 18 -40 40 -40 48 0 8 -9
21 -20 28 -21 13 -25 45 -11 92 l8 25 13 -27 c17 -35 25 -35 27 -2 2 49 18 48
79 -9 92 -84 122 -94 175 -56 35 25 94 113 126 189 55 133 4 239 -136 285 -54
17 -79 17 -218 -1 -42 -5 -53 -4 -53 7 0 8 -27 41 -60 73 -45 44 -72 84 -106
152 -49 100 -107 164 -148 164 -15 0 -42 -18 -73 -48 -41 -40 -59 -50 -97 -55
-25 -4 -64 -16 -87 -27 l-41 -21 -53 37 c-61 41 -79 40 -101 -8 -13 -30 -14
13 -10 430 l4 462 -774 0 -774 0 0 -1800z m1540 540 l0 -280 -27 6 c-38 9 -38
10 -18 40 18 27 18 28 -11 51 -16 12 -34 23 -41 23 -6 0 -14 4 -18 9 -9 15 37
100 57 107 23 7 23 9 -7 82 -26 64 -33 126 -15 137 6 4 22 0 35 -9 l23 -15 7
64 c4 36 9 65 11 65 2 0 4 -126 4 -280z m1072 10 c88 -24 101 -70 48 -168 -49
-93 -86 -132 -123 -132 -33 0 -135 59 -171 99 -19 21 -19 21 5 21 13 0 31 5
39 10 13 8 10 15 -17 40 -22 20 -33 40 -33 58 0 15 -7 38 -16 50 -12 18 -13
23 -2 27 45 16 203 13 270 -5z m-1003 -325 c51 11 105 -21 135 -80 31 -63 34
-86 17 -158 -12 -47 -12 -69 -1 -129 16 -91 44 -173 75 -219 22 -35 23 -38 7
-60 -9 -13 -39 -61 -67 -106 -27 -45 -68 -96 -90 -113 -22 -17 -64 -54 -92
-82 l-53 -50 0 513 c0 506 0 512 19 495 14 -13 28 -16 50 -11z m327 -130 c18
-14 18 -14 -8 -15 -18 0 -28 5 -28 15 0 19 11 19 36 0z m-111 -5 c3 -5 1 -10
-4 -10 -6 0 -11 5 -11 10 0 6 2 10 4 10 3 0 8 -4 11 -10z m44 -692 c-31 -26
-34 -16 -7 34 l23 43 3 -30 c3 -21 -2 -34 -19 -47z m-35 -135 c-41 -82 -144
-244 -144 -229 0 5 23 67 51 138 44 111 56 132 87 153 20 14 38 22 41 20 2 -3
-13 -40 -35 -82z m-163 18 c-13 -25 -39 -50 -71 -70 -28 -17 -53 -31 -56 -31
-3 0 -29 -18 -57 -40 -27 -22 -52 -38 -55 -35 -6 6 87 115 98 115 5 0 10 -7
12 -15 2 -11 24 5 68 50 35 36 68 65 72 65 5 0 -1 -18 -11 -39z m814 -41 l30
-31 -30 -55 c-38 -69 -71 -111 -81 -101 -17 17 25 217 46 217 3 0 19 -14 35
-30z m-899 -142 c-18 -40 -36 -80 -39 -88 -3 -8 -6 14 -6 50 -1 62 1 66 32 87
17 12 35 22 39 22 4 1 -8 -32 -26 -71z m-25 -178 c14 0 25 -12 35 -36 15 -35
14 -42 -17 -150 -28 -98 -31 -116 -20 -137 11 -20 10 -29 -3 -53 -14 -27 -15
-17 -16 161 0 105 -2 206 -4 225 -2 19 -1 25 1 13 3 -15 12 -23 24 -23z"/>
</g>
</svg>
