<?xml version="1.0" standalone="no"?>
<!DOCTYPE svg PUBLIC "-//W3C//DTD SVG 20010904//EN"
 "http://www.w3.org/TR/2001/REC-SVG-20010904/DTD/svg10.dtd">
<svg version="1.0" xmlns="http://www.w3.org/2000/svg"
 width="480.000000pt" height="360.000000pt" viewBox="0 0 480.000000 360.000000"
 preserveAspectRatio="xMidYMid meet">
<metadata>
Created by potrace 1.16, written by Peter Selinger 2001-2019
</metadata>
<rect width="1" height="360" fill="#000000"/>
<rect x="479" width="1" height="360" fill="#000000"/>
<rect width="480" height="1" fill="#000000"/>
<rect y="359" width="480" height="1" fill="#000000"/>
<g transform="translate(0.000000,360.000000) scale(0.100000,-0.100000)"
fill="#000000" stroke="none">
<path d="M0 1800 l0 -1800 870 0 c479 0 870 1 870 3 0 58 126 487 177 602 84
191 101 290 63 383 l-19 47 0 -38 c-1 -21 6 -54 14 -74 19 -45 19 -54 -1 -46
-14 5 -15 1 -9 -25 4 -19 3 -32 -3 -32 -6 0 -12 4 -14 10 -1 5 -9 6 -15 2 -7
-4 -16 -41 -20 -82 l-7 -75 -12 130 c-6 72 -19 147 -27 168 l-16 37 -36 -17
c-45 -22 -53 -13 -62 66 -5 55 -4 66 12 77 33 25 12 41 -47 36 -51 -4 -59 -1
-126 42 -91 58 -231 128 -302 151 -68 22 -77 29 -85 65 -4 16 -15 32 -26 35
-10 4 -19 15 -19 25 0 15 -11 19 -72 24 -156 14 -291 60 -350 120 l-30 29 27
25 27 24 27 -26 c32 -31 41 -32 41 -6 0 16 6 19 33 18 69 -4 197 2 197 10 0 4
-25 24 -55 45 -36 25 -57 48 -61 65 -4 15 -15 45 -24 67 -24 54 -34 110 -23
130 14 25 -13 133 -44 173 -24 32 -24 34 -11 95 13 57 15 60 26 40 10 -18 17
-56 21 -115 1 -5 5 -8 10 -8 4 0 11 17 14 38 15 89 28 137 43 153 9 10 18 37
21 61 7 50 15 62 56 83 52 26 85 20 109 -21 15 -25 26 -34 39 -31 14 4 20 -3
25 -27 3 -17 19 -46 35 -64 35 -40 71 -116 63 -135 -2 -7 -1 -90 4 -183 12
-206 6 -258 -26 -262 -12 -2 -29 -14 -37 -26 -9 -13 -34 -32 -58 -42 -73 -32
-73 -38 -10 -75 56 -31 58 -31 87 -15 26 15 31 15 53 1 13 -9 28 -13 34 -9 19
12 56 -6 120 -57 75 -60 147 -104 156 -95 4 3 15 39 24 79 10 39 46 127 80
194 52 102 62 130 64 180 5 106 14 133 46 140 16 3 32 9 34 14 5 6 51 191 69
272 4 16 13 82 22 148 18 147 59 279 119 381 25 42 45 82 45 88 0 8 -19 9 -62
3 -101 -12 -129 -9 -150 18 -15 18 -18 32 -14 63 14 86 97 288 130 315 9 7 26
11 38 8 151 -37 217 -67 326 -144 88 -63 96 -67 142 -64 27 1 57 -2 67 -7 14
-8 43 -2 116 24 89 31 269 60 290 47 13 -8 8 -57 -18 -169 -38 -170 -54 -216
-76 -221 -24 -7 -24 -5 3 -56 18 -33 23 -58 22 -117 0 -77 1 -75 -78 -232 -23
-45 -35 -49 -29 -10 4 26 4 26 -12 7 -9 -11 -24 -30 -35 -42 -25 -29 -34 -251
-10 -270 8 -6 15 -26 15 -45 0 -32 1 -33 38 -30 41 3 43 0 50 -63 3 -28 24
-70 69 -140 36 -55 72 -114 82 -132 20 -39 21 -95 2 -131 -10 -20 -12 -40 -6
-72 4 -25 11 -75 15 -112 5 -50 11 -68 23 -72 44 -12 218 -36 312 -42 81 -5
110 -11 125 -24 11 -10 32 -22 48 -25 15 -4 30 -11 33 -16 3 -5 22 0 44 11 30
15 60 20 151 21 128 1 172 -10 167 -45 -3 -18 -11 -21 -58 -24 -73 -3 -86 -8
-71 -26 17 -20 81 -25 113 -10 36 18 58 18 58 -1 0 -14 3 -14 30 0 38 20 46
19 70 -5 23 -23 25 -36 9 -46 -14 -8 -192 -47 -316 -69 -88 -15 -95 -15 -150
4 -51 17 -58 18 -68 4 -8 -11 -20 -14 -37 -10 -17 5 -30 2 -38 -8 -17 -20 -66
-19 -133 4 -71 25 -185 47 -314 62 -62 7 -114 19 -132 30 -36 22 -79 93 -107
177 -24 69 -30 65 -40 -24 -6 -46 -4 -54 10 -54 23 0 20 -21 -11 -84 l-27 -55
29 -22 28 -23 -7 -97 c-7 -111 1 -140 99 -364 54 -124 178 -481 190 -547 l7
-38 859 0 859 0 0 1800 0 1800 -2400 0 -2400 0 0 -1800z m3895 66 c13 -49 25
-67 81 -123 66 -64 66 -65 59 -106 -4 -23 -8 -63 -9 -88 -3 -57 -37 -129 -86
-180 -42 -44 -52 -47 -80 -19 -22 22 -50 27 -50 9 0 -7 -14 -8 -42 -4 -66 11
-78 21 -78 63 0 30 -13 58 -60 128 -52 76 -60 95 -58 128 4 54 22 55 54 4 34
-55 32 -54 46 -40 6 6 11 34 9 61 -1 27 3 52 9 56 5 3 10 23 10 44 0 28 7 44
30 66 26 25 34 27 49 18 16 -10 24 -6 52 23 18 19 37 30 41 26 4 -4 15 -34 23
-66z"/>
<path d="M1678 1567 c-27 -67 -33 -89 -23 -97 15 -13 25 -3 25 25 0 12 9 48
20 80 32 92 18 87 -22 -8z"/>
<path d="M1791 1168 c-1 -15 4 -30 9 -33 12 -7 12 12 0 40 -8 18 -9 17 -9 -7z"/>
</g>
</svg>
