<?xml version="1.0" standalone="no"?>
<!DOCTYPE svg PUBLIC "-//W3C//DTD SVG 20010904//EN"
 "http://www.w3.org/TR/2001/REC-SVG-20010904/DTD/svg10.dtd">
<svg version="1.0" xmlns="http://www.w3.org/2000/svg"
 width="480.000000pt" height="360.000000pt" viewBox="0 0 480.000000 360.000000"
 preserveAspectRatio="xMidYMid meet">
<metadata>
Created by potrace 1.16, written by Peter Selinger 2001-2019
</metadata>
<rect width="1" height="360" fill="#000000"/>
<rect x="479" width="1" height="360" fill="#000000"/>
<rect width="480" height="1" fill="#000000"/>
<rect y="359" width="480" height="1" fill="#000000"/>
<g transform="translate(0.000000,360.000000) scale(0.100000,-0.100000)"
fill="#000000" stroke="none">
<path d="M0 2949 c0 -592 1 -651 16 -645 40 15 65 17 79 6 23 -19 18 -42 -16
-90 -21 -28 -27 -46 -21 -52 7 -7 127 -9 344 -5 383 6 409 10 568 85 201 95
486 133 779 102 l93 -10 47 47 c26 27 55 54 65 61 22 17 19 79 -4 74 -84 -19
-140 -10 -140 21 0 5 34 43 76 82 l75 72 6 129 6 129 52 52 c60 59 219 142
326 170 88 23 122 12 221 -72 l78 -66 43 15 c63 21 165 38 187 31 11 -4 20
-14 20 -23 0 -26 -52 -84 -109 -123 -28 -19 -51 -39 -51 -46 0 -6 25 -42 56
-78 50 -59 54 -67 36 -72 -17 -4 -19 -11 -14 -46 4 -35 3 -39 -11 -34 -11 4
-17 1 -17 -8 0 -8 -6 -18 -12 -22 -7 -4 -24 -20 -37 -36 l-25 -27 33 -34 33
-34 -23 -23 c-12 -12 -23 -30 -24 -39 -1 -10 -18 -49 -38 -88 -20 -38 -37 -75
-37 -81 0 -6 -12 -36 -26 -67 -14 -31 -22 -60 -17 -64 4 -4 62 -28 127 -54 83
-33 122 -44 129 -37 17 17 39 13 97 -19 64 -34 77 -41 145 -68 38 -16 51 -27
57 -49 6 -21 23 -36 70 -62 35 -19 98 -56 141 -84 70 -44 81 -48 103 -38 36
16 52 14 59 -9 4 -14 15 -20 35 -20 24 0 29 -5 32 -27 2 -22 8 -28 28 -28 19
0 26 -6 28 -25 2 -14 10 -29 18 -33 8 -4 14 -17 14 -28 0 -12 48 -68 123 -142
182 -182 299 -336 457 -602 119 -201 152 -235 227 -235 21 0 48 -7 59 -15 57
-39 99 -251 59 -295 -27 -30 -65 -24 -131 18 -104 67 -195 184 -334 427 -158
277 -303 466 -475 620 l-73 66 -46 -45 c-33 -32 -46 -52 -46 -73 0 -42 -19
-103 -33 -105 -7 -1 -93 -2 -192 -3 -150 0 -198 -4 -292 -24 l-112 -23 -42 21
c-23 12 -43 21 -44 19 -1 -2 -14 -22 -29 -45 -34 -56 -34 -97 3 -315 32 -190
47 -332 56 -538 3 -74 8 -165 11 -202 l6 -68 974 0 974 0 0 1800 0 1800 -2400
0 -2400 0 0 -651z"/>
<path d="M1371 2189 c-120 -10 -254 -40 -311 -69 -22 -11 -74 -43 -116 -70
-78 -51 -166 -84 -253 -96 -26 -3 -54 -10 -61 -14 -34 -21 -46 -311 -31 -705
23 -588 51 -798 147 -1097 l45 -138 503 0 503 0 10 33 c6 17 41 129 77 247 83
263 120 344 241 526 52 77 102 161 111 185 27 70 23 139 -31 604 -9 77 -20
158 -24 180 l-7 40 -17 -30 -16 -30 0 50 c0 28 4 87 7 133 l7 82 -44 0 c-59 0
-123 32 -185 93 -41 39 -61 50 -101 57 -56 10 -294 31 -328 29 -12 -1 -69 -6
-126 -10z"/>
<path d="M0 995 l0 -995 176 0 c137 0 175 3 171 12 -3 7 -25 56 -47 108 -195
444 -309 1209 -260 1735 10 100 9 111 -6 122 -10 7 -21 13 -26 13 -4 0 -8
-448 -8 -995z"/>
<path d="M2768 1830 c41 -78 61 -79 43 -2 -9 36 -19 52 -37 61 -43 19 -44 13
-6 -59z"/>
<path d="M3109 1697 c-9 -20 -6 -28 20 -56 17 -18 31 -40 31 -48 0 -8 -36 -51
-80 -96 -44 -44 -78 -83 -75 -85 8 -9 160 30 241 61 76 30 90 39 106 71 18 35
18 35 -4 50 -57 37 -213 126 -220 126 -5 0 -13 -10 -19 -23z"/>
</g>
</svg>
