<?xml version="1.0" standalone="no"?>
<!DOCTYPE svg PUBLIC "-//W3C//DTD SVG 20010904//EN"
 "http://www.w3.org/TR/2001/REC-SVG-20010904/DTD/svg10.dtd">
<svg version="1.0" xmlns="http://www.w3.org/2000/svg"
 width="480.000000pt" height="360.000000pt" viewBox="0 0 480.000000 360.000000"
 preserveAspectRatio="xMidYMid meet">
<metadata>
Created by potrace 1.16, written by Peter Selinger 2001-2019
</metadata>
<rect width="1" height="360" fill="#000000"/>
<rect x="479" width="1" height="360" fill="#000000"/>
<rect width="480" height="1" fill="#000000"/>
<rect y="359" width="480" height="1" fill="#000000"/>
<g transform="translate(0.000000,360.000000) scale(0.100000,-0.100000)"
fill="#000000" stroke="none">
<path d="M2480 3429 c0 -5 -4 -7 -10 -4 -5 3 -10 -1 -10 -9 0 -9 -5 -16 -11
-16 -6 0 -9 -6 -6 -14 5 -11 -41 -56 -58 -56 -3 0 -22 -11 -43 -24 -29 -18
-43 -21 -56 -14 -25 14 -49 -8 -36 -32 13 -24 13 -87 0 -95 -20 -12 -11 -75
15 -103 16 -18 23 -33 19 -47 -18 -64 -18 -61 0 -46 14 11 16 11 16 -2 0 -23
-11 -27 -100 -32 -78 -4 -81 -3 -90 20 -8 22 -15 24 -49 21 -52 -5 -61 -12
-61 -47 0 -28 -1 -29 -54 -29 -39 0 -60 6 -80 21 -72 57 -98 -67 -36 -169 23
-38 45 -41 61 -9 13 24 59 77 69 77 3 0 11 -20 19 -44 11 -38 10 -48 -4 -76
-13 -26 -15 -38 -6 -56 15 -34 52 -31 109 9 102 72 122 71 122 -4 0 -27 11
-77 25 -114 l24 -65 -25 -51 c-15 -28 -46 -109 -70 -180 -34 -103 -52 -140
-85 -180 -31 -37 -43 -61 -47 -94 -4 -42 -2 -48 30 -78 19 -17 63 -46 97 -63
l62 -31 5 -89 c3 -49 6 -117 7 -151 1 -34 6 -65 10 -69 10 -11 9 -52 -3 -75
-8 -15 -22 -19 -63 -20 -78 -1 -100 -10 -109 -44 -6 -23 -3 -36 11 -55 22 -30
98 -78 126 -79 27 -1 67 -30 59 -42 -9 -15 -64 -35 -136 -48 -37 -7 -72 -18
-77 -25 -6 -7 1 -31 19 -69 21 -43 24 -61 16 -72 -17 -22 -62 -35 -127 -35
-32 0 -59 -3 -59 -7 0 -10 52 -63 63 -63 5 0 27 16 50 35 22 19 48 35 56 35 9
0 36 9 60 21 43 19 47 19 118 3 77 -17 106 -14 97 10 -10 25 30 36 108 30 85
-7 133 9 193 66 35 33 31 51 -20 99 -47 44 -52 59 -34 94 7 12 13 28 14 37 1
8 5 27 9 42 5 15 1 58 -8 105 -8 43 -15 92 -16 108 -4 149 -8 197 -18 207 -18
18 -14 81 9 133 17 39 20 61 16 124 -7 124 -46 352 -69 410 -17 43 -19 58 -10
72 16 26 15 54 -4 91 -21 40 -11 98 16 98 25 0 89 94 97 143 5 32 2 38 -19 47
-16 8 -25 21 -26 41 -3 31 13 40 22 12 3 -10 3 2 1 27 -20 192 -20 195 10 218
l27 22 -24 9 c-13 5 -33 29 -47 57 -13 27 -33 62 -43 77 -13 18 -17 32 -11 40
13 17 15 70 3 62 -6 -3 -10 -1 -10 4 0 6 -4 11 -10 11 -5 0 -10 -5 -10 -11z
m-310 -564 c0 -8 -7 -15 -15 -15 -16 0 -20 12 -8 23 11 12 23 8 23 -8z m271
-1113 c31 -80 46 -172 43 -250 -4 -114 -11 -145 -32 -137 -10 4 -39 9 -66 12
-42 5 -50 10 -60 37 -13 33 -21 276 -11 336 l6 35 55 -3 c49 -4 56 -7 65 -30z
m-143 -678 c15 -3 22 -12 22 -27 0 -18 -10 -25 -53 -39 -30 -10 -60 -18 -69
-18 -18 0 -53 38 -62 67 -6 17 -2 22 16 26 23 4 105 -1 146 -9z"/>
<path d="M3998 3318 c14 -14 16 -57 3 -77 -6 -9 -17 -11 -32 -6 -18 6 -21 4
-13 -5 16 -16 -119 -143 -169 -159 -20 -7 -37 -15 -37 -17 0 -3 11 -20 25 -39
26 -33 26 -33 9 -84 -20 -61 -15 -119 13 -178 l21 -42 -75 -17 c-54 -12 -77
-21 -80 -34 -3 -10 -17 -24 -31 -31 -15 -8 -29 -17 -32 -20 -3 -3 -26 -9 -52
-13 -38 -6 -48 -4 -56 10 -5 10 -27 27 -48 39 -34 19 -41 20 -65 8 -61 -30
-69 -81 -21 -133 18 -19 44 -54 58 -76 27 -46 70 -70 106 -59 13 4 50 24 84
45 61 39 86 49 93 40 5 -8 -18 -89 -41 -142 -19 -45 -19 -49 -4 -73 16 -24 15
-27 -8 -68 -21 -36 -71 -210 -109 -379 -15 -66 3 -119 59 -173 37 -36 44 -50
48 -90 4 -36 0 -58 -16 -89 -12 -23 -25 -73 -29 -116 -5 -41 -13 -102 -19
-135 -6 -33 -14 -84 -17 -112 -2 -29 -9 -53 -14 -53 -29 0 22 -121 88 -207 18
-24 33 -48 33 -53 0 -19 -51 -30 -145 -30 -52 0 -96 -4 -99 -9 -9 -13 10 -103
23 -110 6 -4 12 -24 13 -44 2 -44 17 -59 65 -64 46 -5 69 3 56 20 -6 6 -13 26
-17 42 -4 17 -15 45 -23 63 -9 18 -13 35 -10 38 8 9 207 -18 207 -28 0 -12 61
-78 72 -78 24 0 86 -61 92 -91 12 -60 65 -108 121 -109 17 0 45 -9 63 -20 25
-16 32 -26 32 -52 1 -42 32 -80 93 -112 26 -15 50 -26 53 -26 9 0 -7 153 -18
174 -6 11 -21 33 -33 48 -12 14 -39 61 -60 103 -34 70 -36 78 -21 94 9 10 16
25 16 33 0 33 -47 102 -88 130 -24 16 -42 34 -40 39 2 6 33 20 68 33 86 30
120 53 120 81 0 29 -33 70 -82 101 -56 36 -89 129 -57 161 7 7 8 22 0 49 -7
26 -7 50 1 81 10 41 8 98 -8 260 l-6 62 66 32 c148 72 152 113 27 249 -33 37
-73 100 -118 190 l-68 135 37 70 c21 39 38 81 38 95 0 14 5 32 10 40 8 12 15
8 41 -23 28 -34 36 -38 63 -33 17 4 72 9 121 12 50 2 100 7 113 10 24 5 30 29
8 37 -7 3 -17 22 -20 42 -4 21 -14 38 -24 41 -22 7 -59 22 -97 40 -16 7 -42
18 -56 23 -19 7 -26 17 -26 35 0 15 3 28 6 30 4 3 79 14 166 26 88 12 165 26
170 31 12 13 -30 50 -48 44 -22 -8 -353 -65 -379 -65 -11 0 -15 5 -12 15 4 8
14 15 23 15 11 0 28 20 45 54 29 58 38 133 23 192 -7 26 -4 37 18 62 14 16 25
32 25 36 0 8 -56 36 -62 31 -2 -3 -33 25 -68 60 -50 51 -62 67 -52 77 20 20
15 86 -7 98 -26 14 -38 13 -23 -2z m452 -607 c0 -8 -81 -23 -88 -16 -2 2 16 8
40 13 23 5 44 10 46 11 1 1 2 -3 2 -8z m-509 -1201 c10 -30 18 -82 19 -115 1
-33 5 -81 9 -106 4 -26 4 -57 -1 -70 -6 -15 -5 -31 3 -47 11 -19 9 -30 -9 -68
-20 -41 -25 -45 -50 -40 -15 3 -65 6 -112 8 -56 1 -91 7 -102 16 -22 19 -34
80 -19 95 6 6 11 28 11 49 0 22 17 79 40 134 22 53 43 115 46 138 4 23 10 46
15 52 5 5 36 10 71 10 l62 -1 17 -55z"/>
<path d="M880 3300 c0 -5 -7 -10 -15 -10 -12 0 -13 -9 -8 -46 6 -45 5 -46 -48
-100 -35 -36 -61 -54 -78 -54 -13 0 -34 -11 -46 -24 l-21 -23 27 -39 c23 -33
27 -46 22 -81 -5 -35 -1 -47 21 -73 14 -17 26 -29 26 -25 0 3 9 1 20 -5 11 -6
20 -20 20 -32 0 -12 7 -30 16 -39 15 -17 15 -21 -1 -54 -9 -20 -14 -43 -11
-50 2 -7 -1 -19 -9 -25 -8 -7 -17 -22 -20 -33 -19 -66 -50 -106 -114 -145 -36
-22 -81 -48 -100 -57 -19 -10 -42 -26 -50 -37 -12 -14 -37 -21 -94 -27 -47 -5
-85 -15 -96 -25 -24 -22 -26 -21 -50 19 -25 42 -44 44 -176 12 l-90 -22 -3
-127 -3 -127 53 -34 c29 -18 98 -61 153 -94 55 -33 190 -115 300 -183 110 -67
213 -124 230 -127 16 -2 50 3 74 11 24 9 45 15 47 13 2 -1 -6 -29 -17 -61 -23
-71 -24 -119 -4 -149 8 -13 64 -63 125 -111 60 -49 110 -95 110 -102 0 -8 -16
-20 -35 -28 -41 -18 -56 -28 -107 -80 -43 -44 -45 -52 -22 -77 12 -13 13 -22
5 -36 -8 -16 -30 -21 -133 -32 -68 -8 -159 -24 -202 -37 -44 -13 -85 -24 -91
-24 -6 0 -38 20 -69 45 -32 25 -69 45 -81 45 -22 0 -69 -17 -250 -93 l-80 -33
-3 -49 -3 -50 128 -120 c70 -66 173 -163 228 -215 55 -53 127 -120 160 -150
33 -29 110 -102 172 -162 73 -71 119 -108 133 -108 23 0 117 49 315 163 75 44
111 70 113 84 2 15 -14 33 -61 69 -212 162 -358 287 -348 297 8 8 20 8 44 -2
75 -32 179 -25 226 15 16 13 36 24 45 24 8 0 33 17 56 38 43 42 52 81 26 118
-13 17 -12 21 1 37 9 9 24 17 34 17 23 0 89 62 89 84 0 23 -27 87 -47 108 -10
12 -13 26 -9 44 6 23 0 33 -43 74 -30 27 -51 55 -51 67 0 11 -12 28 -26 38
-14 9 -23 23 -20 30 3 8 -4 24 -14 38 -10 13 -28 51 -40 86 -11 34 -32 80 -45
102 -14 21 -25 43 -25 48 0 10 72 35 125 44 17 3 57 21 90 39 56 31 60 37 63
73 4 50 -11 110 -55 215 -63 150 -103 229 -135 265 -18 21 -28 41 -24 51 3 8
-1 26 -9 38 -24 36 -35 82 -23 94 17 17 18 169 1 183 -13 11 -47 80 -41 83 2
1 22 11 45 21 25 12 49 33 59 51 15 28 16 37 4 80 -7 27 -22 71 -33 97 -19 46
-19 49 -2 88 18 38 18 40 -1 54 -10 8 -33 17 -51 21 -38 7 -57 26 -78 78 -9
21 -27 56 -41 77 -13 21 -24 45 -24 54 0 8 -7 15 -15 15 -8 0 -15 -4 -15 -10z
m-75 -996 c38 -79 37 -93 -7 -94 -18 0 -79 -30 -90 -44 -3 -5 -42 -11 -85 -14
-78 -4 -80 -4 -172 42 -100 50 -113 72 -41 69 50 -2 57 -7 40 -28 -23 -28 18
-31 48 -3 15 13 38 29 52 35 61 26 79 35 135 72 33 22 65 40 72 40 6 1 28 -33
48 -75z m50 -236 c-16 -71 -17 -72 -100 -31 -65 32 -72 39 -54 45 12 5 27 4
33 -1 11 -9 101 1 113 12 13 13 15 7 8 -25z m15 -1158 c17 -9 19 -18 13 -73
-6 -66 -42 -151 -68 -160 -30 -12 -73 6 -141 60 -105 84 -114 92 -114 106 0
20 73 57 111 57 19 0 41 5 49 10 20 13 126 13 150 0z"/>
</g>
</svg>
