<?xml version="1.0" standalone="no"?>
<!DOCTYPE svg PUBLIC "-//W3C//DTD SVG 20010904//EN"
 "http://www.w3.org/TR/2001/REC-SVG-20010904/DTD/svg10.dtd">
<svg version="1.0" xmlns="http://www.w3.org/2000/svg"
 width="480.000000pt" height="360.000000pt" viewBox="0 0 480.000000 360.000000"
 preserveAspectRatio="xMidYMid meet">
<metadata>
Created by potrace 1.16, written by Peter Selinger 2001-2019
</metadata>
<rect width="1" height="360" fill="#000000"/>
<rect x="479" width="1" height="360" fill="#000000"/>
<rect width="480" height="1" fill="#000000"/>
<rect y="359" width="480" height="1" fill="#000000"/>
<g transform="translate(0.000000,360.000000) scale(0.100000,-0.100000)"
fill="#000000" stroke="none">
<path d="M0 1800 l0 -1800 1004 0 1005 0 5 42 c3 24 8 79 11 123 3 44 15 136
26 204 18 106 20 134 10 197 -14 94 -14 158 0 208 8 30 7 51 -4 95 -11 41 -15
107 -14 251 0 165 -2 200 -17 228 -9 17 -20 32 -24 32 -5 0 -32 -30 -61 -66
-56 -69 -130 -124 -167 -124 -13 0 -76 14 -141 30 -65 17 -165 36 -223 41
-143 14 -149 16 -160 44 -6 15 -17 25 -29 25 -23 0 -33 14 -35 44 -1 19 -8 21
-81 24 -110 4 -374 49 -402 68 -31 20 -19 37 23 32 33 -4 33 -4 18 20 -8 13
-14 30 -12 38 2 13 9 11 38 -8 19 -13 43 -27 53 -31 15 -6 17 -3 11 16 -12 37
-10 52 6 48 8 -2 73 -3 144 -2 120 2 132 1 182 -24 l54 -27 19 23 c17 21 21
22 46 11 20 -9 31 -10 39 -2 17 17 50 12 126 -21 52 -22 272 -88 297 -89 1 0
34 61 73 136 54 102 70 141 66 160 -9 36 7 60 101 149 l84 81 -7 42 c-7 42 -6
43 57 105 35 34 72 67 82 72 10 6 20 27 24 48 l6 38 -38 -15 c-41 -18 -75 -21
-75 -7 0 5 -20 28 -45 52 -25 24 -45 50 -45 57 0 7 -11 17 -24 22 -34 12 -41
28 -22 49 34 37 5 79 -59 85 -43 4 -95 53 -95 91 0 31 -16 40 -29 18 -21 -37
-11 15 23 120 48 147 67 180 132 228 40 29 54 45 49 57 -15 41 -18 104 -4 113
20 13 113 11 126 -2 22 -22 39 -1 62 73 12 42 32 90 43 108 l20 34 19 -25 18
-24 45 44 46 45 26 -25 c41 -38 141 -196 160 -251 9 -28 14 -66 12 -87 -5 -32
-1 -39 31 -66 115 -93 175 -283 230 -728 18 -142 25 -171 89 -349 38 -106 77
-229 87 -273 9 -44 23 -105 31 -135 16 -62 18 -120 5 -120 -5 0 -11 6 -14 13
-2 6 -11 -22 -21 -64 -12 -57 -14 -83 -6 -103 18 -48 11 -96 -29 -205 -47
-127 -76 -237 -91 -346 -8 -60 -16 -86 -34 -105 -21 -22 -25 -40 -35 -165 -12
-153 -15 -354 -5 -379 6 -14 103 -16 995 -16 l989 0 0 1800 0 1800 -2400 0
-2400 0 0 -1800z"/>
<path d="M2092 1110 c0 -14 2 -19 5 -12 2 6 2 18 0 25 -3 6 -5 1 -5 -13z"/>
</g>
</svg>
