<?xml version="1.0" standalone="no"?>
<!DOCTYPE svg PUBLIC "-//W3C//DTD SVG 20010904//EN"
 "http://www.w3.org/TR/2001/REC-SVG-20010904/DTD/svg10.dtd">
<svg version="1.0" xmlns="http://www.w3.org/2000/svg"
 width="480.000000pt" height="360.000000pt" viewBox="0 0 480.000000 360.000000"
 preserveAspectRatio="xMidYMid meet">
<metadata>
Created by potrace 1.16, written by Peter Selinger 2001-2019
</metadata>
<rect width="1" height="360" fill="#000000"/>
<rect x="479" width="1" height="360" fill="#000000"/>
<rect width="480" height="1" fill="#000000"/>
<rect y="359" width="480" height="1" fill="#000000"/>
<g transform="translate(0.000000,360.000000) scale(0.100000,-0.100000)"
fill="#000000" stroke="none">
<path d="M0 1800 l0 -1800 1165 0 c641 0 1165 3 1165 6 0 20 -77 153 -134 234
-83 116 -115 176 -122 234 l-6 43 47 6 c109 15 276 5 493 -30 56 -9 105 -13
108 -10 18 17 -68 304 -136 457 -64 144 -78 189 -90 289 -9 68 -20 107 -42
149 -23 45 -28 65 -24 94 11 69 48 151 88 194 38 41 39 44 28 83 -11 41 -24
52 -33 29 -6 -15 -9 27 -7 98 3 99 -39 224 -74 224 -6 0 -27 13 -46 28 -19 16
-56 36 -83 46 -60 22 -102 65 -132 131 -47 107 -50 180 -11 270 21 47 66 175
66 187 0 4 -18 17 -40 28 -22 11 -40 27 -40 36 0 24 25 66 58 98 37 35 34 48
-26 102 l-46 42 35 21 c45 28 105 44 146 39 34 -4 39 3 35 54 -1 10 7 22 18
28 17 9 26 5 55 -25 41 -41 55 -43 81 -14 10 12 34 28 52 36 29 12 34 12 54
-6 11 -11 44 -24 72 -30 129 -23 186 -32 254 -41 96 -11 171 -35 262 -83 141
-74 201 -129 253 -233 41 -82 64 -149 76 -222 26 -165 31 -201 31 -237 0 -34
7 -46 60 -97 l59 -58 -49 0 c-48 0 -50 -1 -50 -28 0 -16 7 -51 15 -78 8 -27
15 -62 15 -79 l0 -30 -25 30 c-26 30 -26 30 -23 5 2 -20 -1 -24 -16 -22 -17 3
-18 -2 -13 -55 6 -55 5 -57 -10 -35 -14 20 -17 21 -28 5 -11 -15 -14 -13 -26
20 -7 20 -16 34 -21 31 -4 -3 -8 5 -8 18 -1 21 -2 21 -11 5 -6 -10 -11 -49
-12 -87 l-1 -69 -25 27 c-22 24 -26 25 -29 9 -3 -13 -9 -16 -25 -11 -12 4 -25
12 -29 18 -4 6 -8 -6 -8 -28 0 -38 1 -38 33 -33 17 3 52 0 77 -6 25 -5 62 -14
82 -19 48 -11 102 -69 151 -161 22 -40 42 -78 46 -85 5 -8 24 13 54 61 26 41
47 78 47 82 0 4 -11 16 -25 27 -19 15 -23 23 -15 32 5 7 7 16 3 19 -3 4 2 10
12 13 43 17 126 73 151 103 l27 32 -39 40 c-36 37 -35 45 4 40 18 -3 15 15
-13 85 -21 52 -25 80 -26 175 -1 66 4 126 10 143 9 23 9 47 0 102 -11 68 -10
74 10 103 14 19 20 38 16 51 -5 16 -14 19 -57 17 -38 -2 -53 2 -62 16 -16 25
3 50 47 62 66 18 65 -6 6 420 -24 168 -22 320 4 393 l15 42 -1924 0 -1924 0 0
-1800z"/>
<path d="M3883 3578 c17 -71 40 -226 73 -483 20 -159 41 -293 46 -296 6 -4 25
-2 44 4 45 14 84 -3 84 -37 0 -21 -8 -27 -57 -43 -56 -17 -58 -19 -58 -53 0
-32 3 -35 39 -42 54 -11 74 -32 82 -83 8 -55 62 -188 97 -240 36 -55 42 -112
23 -216 -9 -47 -16 -92 -16 -100 0 -15 69 -39 110 -39 34 0 22 -18 -32 -47
-41 -22 -58 -39 -78 -78 -23 -45 -25 -61 -25 -175 -1 -203 0 -201 -67 -155
-20 14 -39 25 -42 25 -5 0 -286 -555 -286 -565 0 -2 7 -2 15 1 17 7 20 -26 6
-61 -14 -34 6 -52 81 -75 101 -31 121 -43 157 -92 29 -39 30 -43 15 -65 -14
-22 -13 -26 16 -61 55 -67 29 -140 -45 -126 l-30 5 0 -97 0 -98 -35 -24 c-19
-13 -55 -29 -79 -35 -31 -9 -53 -24 -78 -54 -19 -23 -65 -61 -101 -84 -37 -23
-69 -43 -70 -45 -2 -1 -1 -12 3 -23 6 -21 8 -21 566 -21 l559 0 0 1800 0 1800
-461 0 -461 0 5 -22z"/>
<path d="M2427 2150 c3 -10 11 -25 19 -31 17 -14 18 -8 2 26 -13 30 -28 34
-21 5z"/>
<path d="M2645 1792 l-19 -37 -6 30 -6 30 -6 -27 c-3 -15 -3 -30 0 -33 10 -9
148 -5 179 5 25 9 30 16 29 41 -1 25 -4 29 -21 25 -11 -3 -32 -6 -47 -6 -18 0
-29 -7 -33 -20 -6 -19 -7 -19 -29 5 l-23 24 -18 -37z"/>
</g>
</svg>
