<?xml version="1.0" standalone="no"?>
<!DOCTYPE svg PUBLIC "-//W3C//DTD SVG 20010904//EN"
 "http://www.w3.org/TR/2001/REC-SVG-20010904/DTD/svg10.dtd">
<svg version="1.0" xmlns="http://www.w3.org/2000/svg"
 width="480.000000pt" height="360.000000pt" viewBox="0 0 480.000000 360.000000"
 preserveAspectRatio="xMidYMid meet">
<metadata>
Created by potrace 1.16, written by Peter Selinger 2001-2019
</metadata>
<rect width="1" height="360" fill="#000000"/>
<rect x="479" width="1" height="360" fill="#000000"/>
<rect width="480" height="1" fill="#000000"/>
<rect y="359" width="480" height="1" fill="#000000"/>
<g transform="translate(0.000000,360.000000) scale(0.100000,-0.100000)"
fill="#000000" stroke="none">
<path d="M2800 3224 c0 -3 20 -29 45 -57 24 -28 43 -53 41 -55 -2 -2 -18 4
-35 12 -89 47 -292 61 -367 27 -23 -11 -60 -35 -82 -55 -37 -34 -44 -36 -104
-36 -84 0 -99 -14 -66 -64 13 -20 32 -39 42 -42 19 -6 19 -7 -2 -24 -29 -24
-28 -37 8 -55 34 -18 32 -33 -10 -64 l-30 -22 35 -69 35 -69 -6 -228 c-6 -271
-14 -344 -60 -523 -42 -166 -54 -230 -43 -230 4 0 11 10 14 21 5 15 10 18 15
10 4 -7 1 -51 -7 -99 -8 -48 -12 -106 -9 -128 3 -23 -3 -86 -13 -140 -11 -55
-22 -155 -26 -224 -14 -268 -55 -959 -61 -1032 l-7 -78 567 0 c535 0 566 1
566 18 0 55 -114 461 -235 833 -30 94 -69 244 -89 347 -37 184 -43 246 -27
256 5 3 12 22 15 41 5 26 12 35 27 35 11 0 29 4 39 10 15 8 22 3 42 -37 24
-48 51 -73 65 -60 4 5 2 16 -5 25 -22 32 -73 134 -69 138 2 3 26 -11 51 -31
32 -24 54 -34 67 -30 24 8 59 54 93 122 25 50 27 52 59 46 21 -3 45 1 64 10
31 17 86 81 77 90 -3 3 -2 12 2 19 15 24 12 67 -6 83 -23 21 -114 46 -167 46
-49 0 -55 6 -80 80 l-19 56 63 97 c35 54 61 101 58 106 -3 5 -64 55 -136 111
-88 68 -142 103 -162 106 -17 1 -35 7 -40 12 -17 17 4 82 40 122 37 41 57 49
67 24 11 -31 28 -16 22 20 -7 33 -6 34 34 45 46 12 48 18 19 48 -11 12 -17 27
-14 32 9 14 -39 58 -81 76 l-36 15 6 57 c5 48 2 65 -18 109 -32 69 -111 153
-142 153 -13 0 -24 -3 -24 -6z"/>
</g>
</svg>
