<?xml version="1.0" standalone="no"?>
<!DOCTYPE svg PUBLIC "-//W3C//DTD SVG 20010904//EN"
 "http://www.w3.org/TR/2001/REC-SVG-20010904/DTD/svg10.dtd">
<svg version="1.0" xmlns="http://www.w3.org/2000/svg"
 width="480.000000pt" height="360.000000pt" viewBox="0 0 480.000000 360.000000"
 preserveAspectRatio="xMidYMid meet">
<metadata>
Created by potrace 1.16, written by Peter Selinger 2001-2019
</metadata>
<rect width="1" height="360" fill="#000000"/>
<rect x="479" width="1" height="360" fill="#000000"/>
<rect width="480" height="1" fill="#000000"/>
<rect y="359" width="480" height="1" fill="#000000"/>
<g transform="translate(0.000000,360.000000) scale(0.100000,-0.100000)"
fill="#000000" stroke="none">
<path d="M2134 3170 c-66 -13 -135 -54 -187 -109 -81 -86 -134 -236 -123 -348
l5 -62 -39 -31 c-28 -22 -46 -30 -60 -25 -25 8 -50 -10 -50 -35 0 -10 -16 -27
-35 -39 -19 -11 -35 -25 -35 -30 0 -6 28 -42 61 -82 45 -51 66 -69 80 -66 14
4 25 -6 44 -40 39 -71 33 -92 -49 -180 l-30 -33 32 -6 c36 -7 38 -16 17 -67
-22 -53 -19 -55 24 -13 l39 38 14 -43 c18 -55 32 -59 45 -12 8 33 11 35 18 18
5 -11 24 -47 44 -80 27 -46 36 -55 41 -41 5 15 8 14 19 -11 13 -28 13 -28 22
-5 5 12 6 30 3 40 -5 14 -3 14 10 -2 9 -11 16 -23 16 -27 0 -9 20 -6 36 4 7 4
14 -3 18 -18 4 -14 11 -23 16 -20 6 3 10 -2 10 -12 0 -24 -66 -48 -175 -63
-94 -13 -179 -36 -210 -56 -32 -21 -74 -103 -115 -224 l-35 -104 -70 -27 c-87
-34 -107 -35 -120 -6 -10 21 -16 22 -180 28 -115 4 -186 11 -221 22 -67 22
-149 76 -292 192 -83 69 -151 113 -234 156 l-118 60 0 50 c0 72 -18 63 -118
-56 -46 -55 -121 -139 -168 -187 l-84 -88 0 -262 0 -263 61 93 c33 51 71 99
84 108 23 15 26 14 53 -5 16 -11 42 -45 58 -75 15 -30 31 -53 35 -50 4 2 10
23 14 47 4 23 11 50 17 60 30 58 227 -61 244 -148 3 -19 9 -35 13 -35 4 0 39
16 77 35 151 74 216 66 336 -42 39 -35 74 -63 78 -63 4 0 34 18 66 41 204 141
328 211 436 245 60 18 71 16 121 -21 17 -12 17 -16 3 -42 -8 -16 -22 -35 -30
-42 -22 -19 -20 -28 9 -35 14 -4 25 -12 25 -20 0 -7 10 -20 22 -28 22 -15 22
-19 21 -193 -1 -100 3 -187 8 -197 5 -10 28 -27 49 -38 36 -18 40 -24 40 -59
0 -67 -10 -98 -37 -110 -13 -6 -28 -9 -33 -6 -11 7 -80 -34 -80 -46 0 -6 15
-16 33 -24 32 -13 67 -66 67 -101 0 -8 -13 -34 -29 -57 -28 -42 -111 -185
-111 -193 0 -2 254 -4 565 -4 356 0 565 4 565 10 0 5 -8 31 -18 57 -18 49 -21
130 -7 210 7 38 5 45 -28 83 -19 23 -37 51 -40 63 -3 12 -15 60 -27 107 -21
82 -21 90 -9 255 11 145 14 163 22 125 39 -209 68 -304 99 -330 42 -36 145
-14 193 39 25 28 23 115 -4 216 -35 129 -44 193 -28 215 13 18 15 18 38 3 13
-9 51 -40 84 -68 88 -77 96 -79 136 -49 53 41 130 74 172 74 45 0 90 -22 175
-84 34 -25 64 -46 66 -46 2 0 9 14 16 30 7 17 25 39 40 50 39 28 140 52 202
48 l53 -3 -1 -42 c0 -24 2 -43 5 -43 3 0 19 19 35 41 37 52 86 77 121 61 29
-13 75 -75 126 -169 19 -37 42 -71 52 -77 11 -7 38 -6 89 3 144 27 174 25 303
-12 66 -20 128 -38 138 -42 15 -6 17 0 17 48 0 54 -1 57 -47 94 -374 305 -512
447 -686 708 -69 104 -95 135 -114 135 -8 0 -13 -11 -13 -28 0 -42 -25 -59
-146 -98 -74 -24 -152 -59 -242 -111 -220 -125 -330 -152 -487 -120 -50 11
-62 17 -75 42 -39 78 -112 194 -145 233 -43 50 -87 74 -176 97 -88 23 -219 74
-219 86 0 11 24 51 53 89 l20 25 -6 -39 c-4 -26 -2 -43 8 -52 12 -13 18 -9 41
26 15 22 30 40 34 40 12 0 21 -46 13 -66 -14 -37 23 -7 41 34 11 23 23 42 26
42 4 0 14 -17 23 -37 l15 -38 1 33 c1 17 5 32 10 32 5 0 14 13 21 30 l12 30
41 -35 c22 -19 42 -33 44 -31 3 2 -5 22 -16 45 -31 60 -28 67 24 63 51 -5 56
2 20 30 -14 11 -35 38 -46 60 l-21 41 21 20 c16 17 23 19 33 9 20 -20 26 -14
21 26 -3 30 1 43 22 67 18 20 28 26 32 17 9 -23 35 -43 52 -40 25 5 27 84 3
117 -20 27 -52 86 -52 95 0 8 69 -32 87 -50 41 -41 49 -37 66 35 10 38 17 87
17 110 l0 41 48 -4 c71 -6 136 6 140 26 2 9 -10 30 -26 46 -17 17 -44 68 -63
119 -28 75 -33 100 -33 175 0 56 -4 89 -11 92 -6 2 -29 -4 -51 -15 -21 -10
-42 -18 -46 -19 -4 0 -36 -20 -73 -45 -36 -25 -74 -46 -85 -48 -12 -1 -31 16
-57 53 -49 70 -122 125 -198 150 -59 19 -398 71 -452 69 -15 -1 -47 -5 -69 -9z
m3 -1272 c-3 -8 -6 -5 -6 6 -1 11 2 17 5 13 3 -3 4 -12 1 -19z"/>
</g>
</svg>
