<?xml version="1.0" standalone="no"?>
<!DOCTYPE svg PUBLIC "-//W3C//DTD SVG 20010904//EN"
 "http://www.w3.org/TR/2001/REC-SVG-20010904/DTD/svg10.dtd">
<svg version="1.0" xmlns="http://www.w3.org/2000/svg"
 width="480.000000pt" height="360.000000pt" viewBox="0 0 480.000000 360.000000"
 preserveAspectRatio="xMidYMid meet">
<metadata>
Created by potrace 1.16, written by Peter Selinger 2001-2019
</metadata>
<rect width="1" height="360" fill="#000000"/>
<rect x="479" width="1" height="360" fill="#000000"/>
<rect width="480" height="1" fill="#000000"/>
<rect y="359" width="480" height="1" fill="#000000"/>
<g transform="translate(0.000000,360.000000) scale(0.100000,-0.100000)"
fill="#000000" stroke="none">
<path d="M2255 2996 c-24 -19 -27 -27 -21 -62 12 -78 15 -123 22 -395 7 -277
7 -277 -15 -284 -21 -6 -28 -25 -14 -39 4 -3 8 -34 9 -67 2 -33 8 -67 15 -75
23 -28 -9 -659 -35 -676 -5 -4 -11 -35 -11 -70 -1 -35 -5 -71 -9 -80 -6 -13
-1 -21 19 -30 l26 -12 -6 -360 c-6 -364 -9 -416 -26 -416 -5 0 -7 -11 -3 -24
3 -12 -2 -47 -10 -77 -13 -44 -35 -238 -36 -311 0 -16 12 -18 108 -18 l109 0
-4 78 c-2 42 -8 118 -13 169 -6 50 -10 114 -10 142 0 37 -4 53 -17 60 -16 9
-18 41 -21 380 l-3 371 30 0 c28 0 30 -3 36 -48 20 -151 58 -274 125 -401 28
-53 31 -55 66 -52 31 2 35 0 30 -16 -19 -66 -57 -233 -71 -313 -11 -63 -22
-99 -33 -108 -16 -12 -27 -80 -35 -217 l-2 -40 393 -2 c440 -3 418 -7 387 70
-22 53 -28 87 -16 87 10 0 54 143 54 180 2 81 -20 176 -54 235 -16 26 -17 40
-8 105 16 120 -6 487 -35 571 -23 69 -23 89 -2 89 9 0 15 24 19 73 4 40 13
105 21 144 36 167 40 361 11 538 -2 17 -8 86 -13 156 -10 134 -24 175 -84 252
-85 107 -253 110 -400 9 -56 -38 -94 -102 -108 -183 -6 -33 -14 -67 -17 -76
-4 -11 -2 -14 5 -9 8 5 12 -3 12 -25 0 -18 3 -29 6 -26 4 3 15 -5 26 -18 10
-13 27 -27 38 -30 11 -4 20 -14 20 -23 0 -9 16 -30 35 -47 40 -34 44 -46 15
-38 -25 7 -77 -14 -84 -33 -9 -23 -23 -16 -37 19 -26 66 -47 87 -88 87 -41 0
-56 13 -109 91 -17 26 -45 52 -63 59 l-31 13 6 316 c3 174 8 332 11 351 7 44
-3 59 -47 69 -29 7 -41 4 -63 -13z m151 -947 c3 -6 2 -14 -3 -18 -14 -8 -53
-82 -53 -98 0 -7 -5 -13 -11 -13 -8 0 -10 13 -5 38 3 20 6 52 6 70 0 29 3 32
29 32 17 0 33 -5 37 -11z m240 -404 c-5 -25 -1 -48 14 -82 21 -47 27 -77 34
-170 4 -62 10 -61 -120 -37 -49 9 -109 18 -134 20 -25 1 -63 9 -84 16 l-39 13
-3 82 -2 82 36 -16 c81 -35 108 -26 225 68 40 32 74 58 76 59 2 0 0 -16 -3
-35z m484 -242 c0 -26 -3 -34 -11 -26 -9 9 -3 63 7 63 2 0 4 -17 4 -37z"/>
</g>
</svg>
