<?xml version="1.0" standalone="no"?>
<!DOCTYPE svg PUBLIC "-//W3C//DTD SVG 20010904//EN"
 "http://www.w3.org/TR/2001/REC-SVG-20010904/DTD/svg10.dtd">
<svg version="1.0" xmlns="http://www.w3.org/2000/svg"
 width="480.000000pt" height="360.000000pt" viewBox="0 0 480.000000 360.000000"
 preserveAspectRatio="xMidYMid meet">
<metadata>
Created by potrace 1.16, written by Peter Selinger 2001-2019
</metadata>
<rect width="1" height="360" fill="#000000"/>
<rect x="479" width="1" height="360" fill="#000000"/>
<rect width="480" height="1" fill="#000000"/>
<rect y="359" width="480" height="1" fill="#000000"/>
<g transform="translate(0.000000,360.000000) scale(0.100000,-0.100000)"
fill="#000000" stroke="none">
<path d="M0 2799 l0 -801 73 6 c39 4 182 13 317 21 412 26 1133 81 1490 115
187 18 485 51 496 54 6 3 14 28 17 58 4 30 9 68 13 84 6 29 4 30 -46 42 -28 7
-75 23 -104 37 -73 34 -140 53 -168 48 -30 -6 -132 23 -148 42 -16 19 -103 47
-123 39 -20 -7 -144 22 -174 42 -12 8 -38 14 -56 14 -19 0 -40 6 -46 14 -14
17 -87 14 -132 -5 -38 -15 -52 0 -44 46 2 17 6 40 8 51 5 27 34 75 108 179 51
70 56 81 41 90 -9 5 -21 10 -27 10 -12 0 -7 42 8 70 6 11 10 26 9 32 -5 23 26
69 99 147 99 106 165 150 388 261 105 53 191 98 191 100 0 3 -220 5 -490 5
l-489 0 14 -41 c23 -64 19 -88 -37 -210 -50 -109 -53 -118 -56 -212 -5 -137
20 -219 84 -276 27 -24 69 -48 101 -58 69 -22 48 -37 -38 -29 -151 14 -262
136 -305 334 -16 73 -16 93 -4 196 14 122 10 158 -29 250 l-20 46 -461 0 -460
0 0 -801z"/>
<path d="M3046 3521 c51 -74 83 -154 56 -137 -7 4 -12 1 -12 -9 0 -9 -9 -19
-20 -22 -23 -6 -23 -12 -10 -136 22 -212 18 -357 -11 -357 -5 0 -20 -18 -34
-40 -14 -22 -29 -40 -33 -40 -4 0 -15 14 -24 30 -9 17 -21 30 -27 30 -16 0
-55 -346 -45 -408 5 -34 3 -38 -24 -48 -20 -8 -31 -20 -34 -35 -1 -13 -8 -24
-15 -24 -6 0 -15 -3 -19 -7 -4 -5 -15 -8 -25 -8 -9 0 -20 -7 -23 -16 -8 -22
-8 -54 2 -54 64 0 582 96 817 151 94 22 305 71 470 110 243 56 502 122 735
188 l25 7 3 452 2 452 -904 0 -905 0 55 -79z"/>
<path d="M4725 1503 c-93 -117 -293 -348 -343 -397 l-41 -39 -83 2 -83 2 -112
-89 c-155 -124 -240 -179 -483 -310 -150 -81 -531 -221 -780 -287 -169 -44
-471 -103 -640 -125 -181 -23 -641 -65 -815 -75 -60 -4 -115 -8 -120 -10 -26
-7 -295 17 -440 41 -161 26 -484 100 -671 155 -56 16 -105 29 -108 29 -3 0 -6
-90 -6 -200 l0 -200 2400 0 2400 0 0 795 c0 437 -1 795 -3 795 -2 0 -34 -39
-72 -87z"/>
</g>
</svg>
