<?xml version="1.0" standalone="no"?>
<!DOCTYPE svg PUBLIC "-//W3C//DTD SVG 20010904//EN"
 "http://www.w3.org/TR/2001/REC-SVG-20010904/DTD/svg10.dtd">
<svg version="1.0" xmlns="http://www.w3.org/2000/svg"
 width="480.000000pt" height="360.000000pt" viewBox="0 0 480.000000 360.000000"
 preserveAspectRatio="xMidYMid meet">
<metadata>
Created by potrace 1.16, written by Peter Selinger 2001-2019
</metadata>
<rect width="1" height="360" fill="#000000"/>
<rect x="479" width="1" height="360" fill="#000000"/>
<rect width="480" height="1" fill="#000000"/>
<rect y="359" width="480" height="1" fill="#000000"/>
<g transform="translate(0.000000,360.000000) scale(0.100000,-0.100000)"
fill="#000000" stroke="none">
<path d="M0 1800 l0 -1800 2400 0 2400 0 0 752 0 751 -31 49 c-17 26 -36 48
-42 48 -6 0 -99 -29 -207 -64 -443 -146 -603 -180 -810 -174 -217 7 -237 19
-593 365 -144 140 -272 262 -285 271 -21 14 -25 13 -46 -7 -23 -22 -31 -36
-110 -201 -55 -117 -97 -170 -134 -170 -38 0 -72 -11 -72 -22 0 -6 23 -7 60
-3 32 4 77 4 98 0 l40 -6 -15 -47 c-8 -28 -13 -84 -12 -137 0 -49 -4 -106 -10
-125 -30 -97 4 -246 80 -342 16 -20 29 -39 29 -41 0 -2 -30 -19 -66 -37 -62
-30 -70 -32 -142 -26 -98 7 -90 7 -135 0 -26 -4 -45 -1 -62 10 -28 19 -31 32
-11 55 7 9 21 43 31 76 19 69 14 141 -16 218 -10 26 -19 71 -19 100 0 59 -11
83 -33 74 -19 -7 -96 43 -136 88 -18 21 -34 55 -42 89 -7 31 -16 56 -21 56 -4
0 -8 -42 -8 -94 0 -57 -4 -97 -11 -101 -26 -16 -86 74 -104 156 -8 33 -8 33
-18 12 -28 -63 -62 5 -55 110 6 88 38 170 104 269 75 111 133 163 326 292 213
141 274 173 354 188 86 16 157 -4 367 -103 95 -45 244 -110 332 -146 195 -79
317 -142 395 -205 l59 -47 68 41 c101 61 324 171 475 234 73 30 138 60 143 65
7 7 3 16 -13 29 -12 10 -20 25 -17 32 3 8 74 47 158 86 l152 71 3 526 c2 499
1 525 -15 517 -49 -25 -246 -22 -237 3 3 8 -10 15 -37 19 -32 5 -46 3 -60 -10
-24 -21 -107 -14 -121 10 -5 9 -22 16 -37 16 -16 0 -34 7 -41 15 -11 13 -260
15 -2131 15 l-2119 0 0 -1800z"/>
<path d="M2423 1960 c-18 -7 -22 -20 -28 -77 -13 -131 -13 -136 17 -147 22 -8
31 -6 48 9 17 15 23 16 29 6 7 -10 14 -10 40 3 30 16 31 18 31 89 0 85 -9 101
-65 116 -46 12 -43 12 -72 1z"/>
<path d="M2227 1736 l-28 -44 17 -94 c13 -72 24 -102 47 -133 50 -66 50 -66
44 26 l-6 86 62 9 c79 12 80 29 5 58 -70 26 -90 45 -103 96 l-10 40 -28 -44z"/>
</g>
</svg>
