<?xml version="1.0" standalone="no"?>
<!DOCTYPE svg PUBLIC "-//W3C//DTD SVG 20010904//EN"
 "http://www.w3.org/TR/2001/REC-SVG-20010904/DTD/svg10.dtd">
<svg version="1.0" xmlns="http://www.w3.org/2000/svg"
 width="480.000000pt" height="360.000000pt" viewBox="0 0 480.000000 360.000000"
 preserveAspectRatio="xMidYMid meet">
<metadata>
Created by potrace 1.16, written by Peter Selinger 2001-2019
</metadata>
<rect width="1" height="360" fill="#000000"/>
<rect x="479" width="1" height="360" fill="#000000"/>
<rect width="480" height="1" fill="#000000"/>
<rect y="359" width="480" height="1" fill="#000000"/>
<g transform="translate(0.000000,360.000000) scale(0.100000,-0.100000)"
fill="#000000" stroke="none">
<path d="M0 1800 l0 -1800 819 0 818 0 7 71 c3 40 14 106 22 148 15 72 14 162
-3 229 -5 22 -5 22 -39 -8 -35 -31 -54 -38 -54 -20 0 19 50 121 84 173 19 29
55 96 79 148 44 93 88 170 225 386 39 62 81 132 93 155 29 55 48 218 49 401 0
125 -2 137 -18 137 -10 0 -22 -4 -27 -9 -13 -11 -95 -23 -95 -14 0 4 34 110
76 235 l76 229 -26 32 c-120 146 -256 431 -256 536 0 71 58 100 136 70 30 -11
125 -95 117 -102 -2 -3 13 -21 34 -42 34 -33 42 -36 78 -31 22 3 52 7 67 9 15
2 50 25 80 53 97 92 270 152 408 141 41 -4 95 -13 120 -21 144 -48 242 -85
223 -86 -33 0 -28 -14 19 -53 l41 -34 3 -102 c2 -66 -1 -101 -8 -101 -7 0 -8
-16 -3 -46 4 -29 2 -57 -6 -76 -9 -22 -9 -35 0 -54 18 -40 31 -153 21 -180 -5
-13 -28 -36 -52 -51 -23 -15 -53 -38 -66 -50 l-24 -22 14 -97 14 -97 69 -37
c75 -40 113 -74 217 -195 37 -44 97 -114 133 -155 99 -114 110 -149 110 -354
l0 -168 80 -29 c122 -45 118 -34 104 -235 -7 -115 -15 -174 -25 -185 -10 -11
-15 -63 -18 -200 -3 -101 -8 -210 -12 -241 l-7 -58 552 0 551 0 0 1800 0 1800
-1119 0 -1118 0 -5 -51 c-3 -28 -12 -58 -21 -66 -14 -15 -20 -15 -62 1 -48 19
-77 18 -153 -5 -37 -12 -44 -11 -58 3 -9 9 -19 39 -22 67 l-5 51 -1118 0
-1119 0 0 -1800z"/>
<path d="M2560 40 l0 -40 53 0 52 1 -45 39 c-25 22 -48 40 -52 40 -5 0 -8 -18
-8 -40z"/>
</g>
</svg>
