<?xml version="1.0" standalone="no"?>
<!DOCTYPE svg PUBLIC "-//W3C//DTD SVG 20010904//EN"
 "http://www.w3.org/TR/2001/REC-SVG-20010904/DTD/svg10.dtd">
<svg version="1.0" xmlns="http://www.w3.org/2000/svg"
 width="480.000000pt" height="360.000000pt" viewBox="0 0 480.000000 360.000000"
 preserveAspectRatio="xMidYMid meet">
<metadata>
Created by potrace 1.16, written by Peter Selinger 2001-2019
</metadata>
<rect width="1" height="360" fill="#000000"/>
<rect x="479" width="1" height="360" fill="#000000"/>
<rect width="480" height="1" fill="#000000"/>
<rect y="359" width="480" height="1" fill="#000000"/>
<g transform="translate(0.000000,360.000000) scale(0.100000,-0.100000)"
fill="#000000" stroke="none">
<path d="M1810 2714 c-83 -47 -120 -95 -120 -157 0 -22 -10 -47 -30 -73 -77
-101 -34 -213 112 -288 28 -15 53 -25 55 -23 2 3 -3 23 -10 46 l-15 41 29 -21
c34 -24 33 -18 14 -62 -8 -21 -15 -67 -15 -106 0 -38 -5 -73 -10 -76 -12 -7
-3 -153 10 -170 4 -5 13 -37 20 -70 17 -83 33 -110 83 -140 56 -32 141 -34
206 -5 24 11 45 20 47 20 2 0 4 -22 4 -50 0 -27 7 -92 16 -142 17 -98 13 -263
-7 -330 -6 -18 -14 -60 -19 -93 -5 -33 -16 -93 -25 -134 -27 -124 -25 -139 24
-182 24 -21 60 -42 84 -48 23 -5 60 -14 82 -20 22 -6 65 -11 95 -11 95 -1 134
-18 177 -80 43 -61 78 -80 118 -62 32 15 34 61 4 116 l-20 38 28 30 c15 16 59
48 96 71 38 22 71 46 74 53 4 10 56 44 68 44 1 0 12 -24 25 -52 13 -29 41 -76
62 -104 20 -27 47 -72 59 -98 33 -77 127 -216 153 -227 34 -16 84 13 103 59
28 68 41 154 29 190 -7 19 -16 34 -21 34 -6 0 -16 4 -22 10 -8 6 -31 8 -56 4
l-43 -7 -42 75 c-23 40 -42 78 -42 84 0 5 -6 15 -14 21 -26 21 -87 134 -83
151 8 33 102 147 139 170 21 13 38 30 38 37 0 7 9 13 20 13 15 0 23 12 34 53
9 28 30 90 48 135 26 69 29 87 20 103 -7 10 -12 25 -12 33 0 35 -26 40 -153
27 -292 -29 -384 -16 -475 69 -29 27 -32 34 -26 69 8 49 -5 72 -61 112 -25 18
-45 38 -45 44 0 6 -45 47 -100 90 -87 68 -101 84 -115 125 -9 27 -13 59 -9 74
15 62 -100 166 -193 174 -35 3 -53 9 -53 17 0 26 12 45 29 45 12 0 21 19 34
73 9 39 17 83 17 97 0 28 -40 94 -78 126 -29 26 -93 47 -116 38 -9 -4 -28 5
-47 20 -42 36 -116 36 -179 0z"/>
</g>
</svg>
