<?xml version="1.0" standalone="no"?>
<!DOCTYPE svg PUBLIC "-//W3C//DTD SVG 20010904//EN"
 "http://www.w3.org/TR/2001/REC-SVG-20010904/DTD/svg10.dtd">
<svg version="1.0" xmlns="http://www.w3.org/2000/svg"
 width="480.000000pt" height="360.000000pt" viewBox="0 0 480.000000 360.000000"
 preserveAspectRatio="xMidYMid meet">
<metadata>
Created by potrace 1.16, written by Peter Selinger 2001-2019
</metadata>
<rect width="1" height="360" fill="#000000"/>
<rect x="479" width="1" height="360" fill="#000000"/>
<rect width="480" height="1" fill="#000000"/>
<rect y="359" width="480" height="1" fill="#000000"/>
<g transform="translate(0.000000,360.000000) scale(0.100000,-0.100000)"
fill="#000000" stroke="none">
<path d="M0 2560 c0 -852 2 -1040 13 -1040 7 0 26 -14 42 -30 26 -27 27 -30 9
-31 -25 -2 -26 -2 -46 6 -17 7 -18 -13 -18 -328 0 -213 4 -338 10 -342 13 -8
13 -45 0 -45 -6 0 -10 -132 -10 -375 l0 -375 628 0 627 1 -29 23 c-16 13 -61
34 -100 46 -146 44 -192 63 -226 94 -62 56 -69 59 -163 66 -56 4 -92 11 -95
19 -2 6 -26 23 -53 36 -27 14 -49 32 -49 40 0 8 14 30 31 50 35 39 35 39 -44
25 -57 -11 -118 -3 -124 16 -2 6 22 28 53 48 31 21 59 47 61 57 4 13 11 18 20
15 8 -3 23 -1 34 5 11 6 47 15 80 20 34 5 79 18 102 29 48 22 163 60 183 60
26 0 207 91 288 144 96 64 186 153 296 296 44 58 103 133 130 167 28 34 50 64
50 67 0 4 -23 43 -51 89 -28 45 -53 95 -56 112 -2 16 5 86 17 155 50 297 53
323 41 375 -8 35 -8 61 -1 85 5 19 10 37 10 39 0 2 -14 1 -30 -3 -28 -5 -30
-4 -20 14 9 17 8 20 -12 20 -46 0 -70 12 -65 31 9 34 -21 20 -76 -35 -44 -43
-64 -56 -108 -66 -67 -16 -89 -34 -89 -74 -1 -45 -33 -110 -69 -135 -17 -12
-55 -26 -86 -31 -30 -5 -60 -12 -65 -15 -5 -3 -12 -29 -16 -57 -5 -34 -16 -60
-33 -80 -23 -25 -34 -29 -91 -31 l-65 -2 3 -41 c3 -50 -15 -69 -55 -60 -16 4
-35 8 -43 9 -28 5 -40 18 -65 68 -39 75 -65 201 -72 335 -13 279 65 530 250
802 64 94 68 104 54 120 -9 9 -52 54 -96 99 -76 77 -97 104 -68 87 25 -15 123
-89 168 -126 43 -35 48 -36 60 -21 25 30 187 161 262 211 274 186 583 255 893
201 50 -9 68 -17 95 -46 27 -28 29 -33 11 -23 -33 16 -35 9 -12 -41 34 -75 24
-94 -51 -107 l-44 -8 0 -71 c0 -88 -20 -122 -86 -141 -65 -19 -74 -26 -77 -59
-3 -25 3 -35 30 -54 66 -44 101 -85 134 -154 19 -38 34 -75 34 -83 0 -19 -38
-90 -60 -112 -25 -25 -41 -26 -33 -2 4 13 3 14 -6 6 -16 -15 -43 -132 -38
-167 3 -22 0 -26 -14 -22 -11 4 -24 -4 -38 -22 l-21 -28 6 28 c4 17 2 27 -5
27 -6 0 -11 -4 -11 -10 0 -5 -7 -10 -15 -10 -8 0 -15 -5 -15 -11 0 -8 -4 -8
-14 0 -15 13 -56 -1 -56 -18 0 -17 29 -33 49 -26 16 5 25 -1 38 -23 10 -16 52
-59 93 -97 154 -139 169 -155 182 -199 10 -33 28 -56 78 -99 38 -34 74 -57 88
-57 12 0 41 -17 65 -38 23 -21 55 -46 70 -56 17 -10 26 -23 23 -31 -7 -19 31
-45 65 -45 18 0 35 9 48 26 38 49 22 107 -40 149 -40 26 -50 51 -24 61 46 18
126 -45 144 -112 15 -55 -2 -109 -49 -156 -45 -45 -92 -51 -148 -16 -30 19
-35 19 -43 5 -5 -8 -32 -29 -59 -46 -28 -17 -50 -35 -50 -40 0 -5 -10 -13 -22
-17 -13 -4 -34 -15 -47 -25 -13 -11 -40 -19 -61 -19 -21 0 -42 -6 -48 -12 -7
-9 -5 -64 9 -180 10 -92 21 -177 24 -190 3 -13 19 -160 35 -328 17 -168 37
-357 45 -420 7 -63 17 -152 20 -197 l7 -83 424 0 424 0 -6 25 c-18 73 3 83 42
21 l29 -45 778 -1 777 0 0 1800 0 1800 -1430 0 c-1277 0 -1430 -2 -1430 -15 0
-9 7 -18 15 -21 8 -4 12 -10 9 -15 -11 -18 -50 -8 -82 21 l-33 30 -925 0 -924
0 0 -1040z m350 824 c0 -8 -16 -31 -35 -52 l-34 -37 -1 29 c0 19 10 40 27 58
26 28 43 29 43 2z m737 -110 c-3 -3 -12 -4 -19 -1 -8 3 -5 6 6 6 11 1 17 -2
13 -5z m2208 -316 c30 -13 33 -28 5 -28 -10 0 -24 9 -30 20 -12 23 -10 24 25
8z m1215 -183 l0 -59 -20 20 c-26 26 -35 80 -20 119 l12 30 13 -25 c8 -14 14
-52 15 -85z m-4080 -93 c0 -5 -10 -18 -22 -29 -30 -28 -128 -85 -128 -75 0 18
53 78 83 94 34 18 67 23 67 10z m2584 -91 c10 -15 -5 -40 -19 -35 -7 3 -22 1
-32 -5 -11 -5 -43 -13 -71 -17 -61 -8 -68 5 -24 42 21 19 39 24 84 24 31 0 59
-4 62 -9z m779 -101 c40 -15 49 -30 17 -30 -24 0 -70 28 -70 42 0 5 3 8 8 6 4
-2 24 -10 45 -18z m-1293 -159 c13 -33 10 -93 -6 -98 -18 -6 -37 53 -30 92 8
43 20 45 36 6z m2194 -60 c6 -40 -9 -101 -25 -101 -11 0 -29 44 -29 71 0 20
29 68 41 69 4 0 9 -17 13 -39z m-2506 -33 c3 -17 -31 -30 -54 -21 -20 8 -17
18 9 31 27 13 41 10 45 -10z m2425 -17 c5 -5 -10 -16 -38 -26 -49 -19 -114
-13 -122 12 -9 28 133 41 160 14z m-558 -23 c-11 -37 -33 -66 -55 -73 -12 -4
-23 -5 -26 -2 -8 8 26 76 43 86 31 18 45 13 38 -11z m-1835 -178 c21 -41 26
-70 11 -70 -7 0 -51 89 -51 104 0 19 23 0 40 -34z m656 -234 c18 -14 18 -15 0
-22 -22 -8 -68 6 -74 24 -5 17 49 16 74 -2z m329 -99 c18 -45 15 -54 -13 -36
-19 12 -52 69 -52 89 0 24 50 -17 65 -53z m510 23 c17 -34 20 -60 5 -60 -10 0
-19 17 -34 68 -11 33 11 27 29 -8z m-2557 -117 c17 -24 15 -44 -5 -41 -11 2
-23 -8 -31 -26 -14 -28 -15 -29 -29 -10 -8 10 -12 28 -9 39 3 11 6 31 6 44 0
20 3 22 28 17 15 -4 33 -14 40 -23z m376 -151 c-17 -15 -30 -20 -32 -13 -7 20
6 41 30 50 34 13 36 -9 2 -37z m-1225 -48 c15 -15 12 -16 -34 -9 -58 8 -68 13
-59 27 9 14 74 2 93 -18z m4052 -94 c19 -10 26 -30 12 -30 -5 0 -19 9 -33 20
-26 21 -12 27 21 10z m-323 -123 c33 -31 27 -40 -20 -32 -64 11 -97 32 -98 61
0 18 91 -5 118 -29z m-279 -94 c19 -16 54 -93 46 -101 -14 -15 -95 78 -95 109
0 15 26 10 49 -8z m-3080 -152 c22 -14 6 -39 -43 -69 -25 -15 -46 -29 -46 -32
0 -3 14 -14 30 -24 31 -18 67 -63 57 -72 -5 -5 -94 52 -112 72 -5 7 -41 14
-80 17 -74 6 -135 23 -135 38 0 5 8 9 18 9 9 0 42 12 72 26 37 18 82 29 135
34 44 4 82 8 85 8 3 1 11 -2 19 -7z m3165 -633 c31 -29 44 -68 21 -68 -23 0
-65 45 -65 70 0 26 13 25 44 -2z m-3108 -220 c-9 -57 -26 -73 -26 -26 0 43 8
68 22 68 7 0 8 -16 4 -42z"/>
<path d="M2207 1803 c-7 -11 -20 -141 -16 -150 2 -5 22 -8 44 -7 38 1 41 3 55
42 13 38 13 43 -5 63 -29 31 -73 61 -78 52z"/>
</g>
</svg>
