<?xml version="1.0" standalone="no"?>
<!DOCTYPE svg PUBLIC "-//W3C//DTD SVG 20010904//EN"
 "http://www.w3.org/TR/2001/REC-SVG-20010904/DTD/svg10.dtd">
<svg version="1.0" xmlns="http://www.w3.org/2000/svg"
 width="480.000000pt" height="360.000000pt" viewBox="0 0 480.000000 360.000000"
 preserveAspectRatio="xMidYMid meet">
<metadata>
Created by potrace 1.16, written by Peter Selinger 2001-2019
</metadata>
<rect width="1" height="360" fill="#000000"/>
<rect x="479" width="1" height="360" fill="#000000"/>
<rect width="480" height="1" fill="#000000"/>
<rect y="359" width="480" height="1" fill="#000000"/>
<g transform="translate(0.000000,360.000000) scale(0.100000,-0.100000)"
fill="#000000" stroke="none">
<path d="M3332 3520 c-66 -41 -112 -147 -112 -260 0 -42 -3 -50 -22 -55 -13
-4 -53 -22 -90 -41 -38 -19 -92 -42 -120 -50 -97 -29 -227 -104 -299 -175 -70
-69 -103 -123 -145 -242 -15 -40 -38 -85 -53 -101 -17 -19 -22 -30 -13 -33 6
-3 12 -12 12 -21 0 -13 3 -12 15 4 19 25 19 7 0 -46 -19 -53 -19 -60 0 -36 8
11 16 16 16 10 1 -5 3 -25 4 -44 2 -19 7 -53 13 -75 7 -30 10 -34 11 -15 1 24
2 24 18 -8 9 -18 21 -31 29 -28 6 2 14 -5 17 -16 3 -11 10 -17 16 -14 6 4 18
-8 28 -26 l18 -33 5 45 6 45 16 -34 c21 -46 9 -84 -44 -138 l-43 -44 43 -39
c31 -29 42 -47 42 -68 0 -16 7 -35 15 -42 8 -7 15 -16 15 -21 0 -4 11 -25 25
-45 14 -20 25 -45 25 -54 0 -23 38 -70 53 -65 7 2 27 6 46 9 l34 6 -5 -64 c-4
-49 -2 -68 10 -79 9 -10 17 -42 20 -90 4 -73 4 -74 -42 -153 -51 -87 -136
-282 -141 -321 -3 -29 -20 -43 -52 -43 -12 0 -34 -10 -49 -23 l-26 -23 17 -62
c17 -61 17 -65 -1 -125 -10 -34 -35 -91 -56 -127 -21 -35 -39 -68 -41 -73 -1
-4 -61 -3 -132 3 -72 5 -213 13 -315 16 l-186 6 -21 32 c-14 21 -22 54 -26
102 -14 178 -67 254 -177 254 -30 0 -76 -7 -102 -15 -26 -7 -50 -10 -52 -6 -3
4 -8 27 -12 49 -4 23 -10 42 -15 42 -9 0 -12 -15 -13 -80 -1 -33 -4 -36 -56
-56 -142 -53 -145 -57 -171 -186 -11 -59 -11 -75 3 -120 9 -29 19 -71 23 -93
9 -53 24 -80 84 -146 68 -76 150 -106 339 -125 81 -8 92 -18 92 -90 0 -19 7
-66 16 -105 l16 -69 1210 0 1210 0 -32 58 c-18 31 -54 86 -79 122 -61 85 -72
111 -78 196 l-6 70 34 13 c110 41 158 69 138 82 -11 6 -9 13 9 32 33 35 28 47
-18 47 -42 0 -92 -21 -212 -91 -36 -22 -70 -39 -75 -39 -19 0 -66 187 -60 240
2 18 -12 164 -19 202 -3 17 -1 28 5 28 6 0 11 -15 11 -32 0 -18 4 -40 10 -48
12 -19 14 -13 39 103 11 49 26 96 35 106 9 10 16 32 16 50 0 19 4 30 10 26 6
-3 10 -29 10 -56 0 -31 4 -48 10 -44 6 3 10 0 10 -7 0 -8 9 -32 20 -53 11 -22
30 -70 41 -107 19 -65 32 -87 43 -70 2 4 5 80 6 167 2 131 22 340 34 353 2 1
18 -44 36 -100 39 -125 69 -198 82 -198 5 0 7 8 4 18 -7 23 -36 246 -36 280 0
34 14 19 30 -33 20 -62 92 -215 101 -215 22 0 2 333 -36 610 -61 445 -113 662
-233 970 -22 58 -48 134 -57 169 -32 127 -114 249 -190 286 -20 9 -61 21 -93
26 -58 10 -59 11 -85 64 -14 29 -47 85 -74 125 -43 64 -98 154 -105 171 -2 4
-34 10 -73 13 -60 6 -75 4 -103 -14z m535 -2517 c-3 -10 -5 -2 -5 17 0 19 2
27 5 18 2 -10 2 -26 0 -35z m103 -527 c0 -3 -4 -8 -10 -11 -5 -3 -10 -1 -10 4
0 6 5 11 10 11 6 0 10 -2 10 -4z"/>
</g>
</svg>
