<?xml version="1.0" standalone="no"?>
<!DOCTYPE svg PUBLIC "-//W3C//DTD SVG 20010904//EN"
 "http://www.w3.org/TR/2001/REC-SVG-20010904/DTD/svg10.dtd">
<svg version="1.0" xmlns="http://www.w3.org/2000/svg"
 width="480.000000pt" height="360.000000pt" viewBox="0 0 480.000000 360.000000"
 preserveAspectRatio="xMidYMid meet">
<metadata>
Created by potrace 1.16, written by Peter Selinger 2001-2019
</metadata>
<rect width="1" height="360" fill="#000000"/>
<rect x="479" width="1" height="360" fill="#000000"/>
<rect width="480" height="1" fill="#000000"/>
<rect y="359" width="480" height="1" fill="#000000"/>
<g transform="translate(0.000000,360.000000) scale(0.100000,-0.100000)"
fill="#000000" stroke="none">
<path d="M0 1800 l0 -1800 2400 0 2400 0 -2 603 c-1 331 -5 530 -8 442 -5
-149 -6 -156 -16 -105 l-10 55 -21 -65 c-20 -61 -21 -63 -22 -28 -1 20 4 40 9
43 6 3 10 16 10 28 -1 22 -1 22 -15 3 -20 -26 -21 1 -1 29 23 34 27 72 12 107
-8 18 -22 54 -31 79 -11 32 -23 49 -38 53 -120 35 -139 38 -169 25 -24 -10
-31 -10 -38 2 -5 7 -26 14 -47 16 l-38 2 26 -22 c14 -12 52 -43 84 -70 84 -69
67 -65 -185 51 -19 9 -48 25 -63 35 -15 10 -40 22 -55 26 -29 8 -32 25 -4 27
38 2 42 5 42 30 0 20 4 25 16 20 12 -5 15 -2 9 11 -16 40 -26 84 -20 93 10 16
-17 11 -37 -7 -16 -14 -18 -15 -18 0 0 26 -21 31 -36 8 -8 -12 -19 -21 -24
-21 -14 0 -4 52 13 65 9 6 19 24 23 40 l7 29 -26 -17 c-26 -17 -27 -17 -27 2
0 10 11 49 25 86 15 38 24 74 21 81 -2 6 -17 15 -33 18 -34 8 -129 92 -138
124 -7 25 -24 28 -44 10 -11 -11 -12 -7 -5 22 4 19 7 59 6 88 0 34 8 77 23
115 33 89 124 246 148 256 5 2 17 17 27 33 17 28 17 32 2 57 -21 38 -10 58 40
72 24 6 53 16 64 21 12 6 31 7 41 4 15 -5 25 0 37 19 14 22 19 23 36 13 18
-11 25 -8 59 30 34 37 43 42 60 33 11 -6 24 -19 29 -28 9 -15 11 -15 27 0 9 9
22 17 28 18 7 0 46 2 87 5 41 2 94 6 118 9 l42 6 0 460 0 459 -2400 0 -2400 0
0 -1800z"/>
<path d="M4303 1456 c-13 -6 -23 -20 -23 -30 0 -11 10 -35 23 -53 l22 -34 100
6 c55 3 104 10 109 15 20 20 -14 32 -97 33 -79 1 -85 2 -76 19 12 22 5 23 -27
2 -29 -20 -43 -11 -22 13 36 42 33 50 -9 29z"/>
<path d="M4793 1340 c0 -41 2 -58 4 -37 2 20 2 54 0 75 -2 20 -4 3 -4 -38z"/>
<path d="M4610 1371 c0 -12 5 -21 10 -21 6 0 10 6 10 14 0 8 -4 18 -10 21 -5
3 -10 -3 -10 -14z"/>
<path d="M4673 1363 c-17 -6 -16 -23 1 -23 8 0 16 7 20 15 6 15 1 17 -21 8z"/>
<path d="M4545 1350 c-3 -5 -1 -10 4 -10 6 0 11 5 11 10 0 6 -2 10 -4 10 -3 0
-8 -4 -11 -10z"/>
<path d="M4250 1305 c0 -3 17 -12 38 -22 20 -9 41 -19 46 -21 5 -3 6 1 2 7 -4
6 -23 18 -43 26 -39 16 -43 17 -43 10z"/>
</g>
</svg>
