<?xml version="1.0" standalone="no"?>
<!DOCTYPE svg PUBLIC "-//W3C//DTD SVG 20010904//EN"
 "http://www.w3.org/TR/2001/REC-SVG-20010904/DTD/svg10.dtd">
<svg version="1.0" xmlns="http://www.w3.org/2000/svg"
 width="480.000000pt" height="360.000000pt" viewBox="0 0 480.000000 360.000000"
 preserveAspectRatio="xMidYMid meet">
<metadata>
Created by potrace 1.16, written by Peter Selinger 2001-2019
</metadata>
<rect width="1" height="360" fill="#000000"/>
<rect x="479" width="1" height="360" fill="#000000"/>
<rect width="480" height="1" fill="#000000"/>
<rect y="359" width="480" height="1" fill="#000000"/>
<g transform="translate(0.000000,360.000000) scale(0.100000,-0.100000)"
fill="#000000" stroke="none">
<path d="M2160 3307 c-93 -26 -141 -71 -165 -151 -10 -34 -18 -42 -46 -48 -53
-13 -79 -30 -95 -61 -17 -31 -12 -57 18 -99 13 -19 20 -49 22 -94 4 -66 4 -66
60 -121 40 -39 56 -50 56 -37 0 14 2 16 13 5 8 -8 12 -45 12 -112 l0 -100 26
32 c29 36 41 25 32 -27 -6 -29 -6 -29 15 -11 20 18 21 18 31 0 10 -16 10 -17
11 -1 0 22 45 35 65 18 23 -19 18 -54 -11 -79 -14 -12 -37 -47 -51 -77 -23
-51 -24 -59 -14 -123 9 -59 8 -79 -9 -146 -11 -43 -20 -86 -20 -96 0 -27 -28
-51 -48 -40 -9 5 -31 7 -47 4 -25 -4 -39 3 -78 37 -39 35 -57 43 -109 50 -103
15 -128 7 -163 -53 -16 -29 -29 -60 -27 -70 1 -10 -2 -27 -8 -37 -7 -13 -6
-21 5 -30 11 -9 12 -16 2 -31 -9 -14 -9 -21 1 -31 6 -6 12 -22 12 -33 0 -36
35 -44 158 -35 61 5 115 11 120 14 10 6 24 -4 38 -29 8 -15 33 -23 107 -36 52
-9 100 -20 106 -24 6 -3 11 -24 11 -46 0 -22 5 -60 11 -83 9 -39 8 -49 -14
-92 -37 -74 -45 -106 -67 -269 -24 -172 -70 -371 -107 -465 -24 -58 -110 -235
-131 -268 -7 -10 -15 -9 -40 5 -24 14 -36 15 -49 7 -9 -5 -43 -61 -75 -124
-61 -119 -68 -155 -46 -216 9 -25 9 -39 0 -59 l-12 -25 1111 0 1110 0 -6 33
c-3 17 -12 77 -19 132 -8 55 -19 112 -25 127 -5 14 -35 45 -65 69 -31 24 -56
52 -56 62 0 9 -4 25 -9 35 -5 9 -19 38 -31 64 -24 52 -67 93 -160 153 -104 67
-108 69 -133 52 -20 -13 -26 -11 -81 37 -33 28 -72 64 -86 80 -53 62 -318 531
-306 543 2 2 45 8 96 14 144 14 225 58 274 149 60 109 42 227 -60 401 -52 89
-104 193 -188 372 -41 90 -95 162 -148 201 -21 15 -38 36 -38 46 0 10 -7 20
-15 24 -8 3 -15 10 -15 16 0 5 7 10 15 10 8 0 15 5 15 10 0 6 -8 10 -17 10
-43 0 -163 90 -163 122 0 4 23 -4 52 -18 45 -23 63 -26 137 -25 104 1 171 10
171 22 0 5 -6 9 -12 10 -26 1 28 18 62 19 33 1 34 1 16 15 -19 14 -19 15 -2
15 15 0 13 5 -10 22 -16 12 -31 25 -34 28 -3 3 -17 12 -32 20 -14 8 -61 45
-103 82 -53 46 -114 86 -197 128 -91 46 -128 70 -148 98 -75 104 -269 166
-400 129z"/>
</g>
</svg>
