<?xml version="1.0" standalone="no"?>
<!DOCTYPE svg PUBLIC "-//W3C//DTD SVG 20010904//EN"
 "http://www.w3.org/TR/2001/REC-SVG-20010904/DTD/svg10.dtd">
<svg version="1.0" xmlns="http://www.w3.org/2000/svg"
 width="480.000000pt" height="360.000000pt" viewBox="0 0 480.000000 360.000000"
 preserveAspectRatio="xMidYMid meet">
<metadata>
Created by potrace 1.16, written by Peter Selinger 2001-2019
</metadata>
<rect width="1" height="360" fill="#000000"/>
<rect x="479" width="1" height="360" fill="#000000"/>
<rect width="480" height="1" fill="#000000"/>
<rect y="359" width="480" height="1" fill="#000000"/>
<g transform="translate(0.000000,360.000000) scale(0.100000,-0.100000)"
fill="#000000" stroke="none">
<path d="M2105 2551 c-11 -5 -32 -6 -47 -4 -25 5 -30 1 -43 -30 -19 -47 -20
-121 -1 -137 8 -6 25 -33 37 -58 12 -26 26 -55 31 -65 8 -15 5 -20 -11 -24
-14 -3 -20 -13 -19 -28 1 -12 -8 -35 -20 -51 -45 -58 -72 -105 -72 -128 0 -13
13 -34 30 -49 35 -32 38 -59 11 -125 -25 -62 -45 -134 -42 -149 1 -7 -3 -13
-8 -13 -17 0 -42 -58 -36 -83 3 -12 2 -43 -4 -67 -27 -123 -64 -575 -54 -663
5 -44 9 -50 47 -69 22 -12 77 -34 121 -49 70 -23 80 -30 83 -52 4 -34 -29 -51
-128 -66 -115 -18 -120 -20 -120 -40 0 -25 19 -39 61 -47 19 -4 45 -13 58 -22
16 -9 55 -16 105 -17 45 -2 98 -6 119 -10 52 -10 125 3 148 26 32 32 24 56
-28 81 -39 19 -50 30 -58 60 -5 20 -13 40 -17 44 -16 15 -7 23 45 38 79 23 97
39 97 89 0 23 -4 71 -9 107 -5 36 -15 142 -21 235 -11 166 -44 367 -74 452
-16 45 -16 47 32 178 l25 69 -22 61 c-12 34 -19 69 -16 77 4 9 2 19 -4 23 -6
3 -11 22 -11 40 0 35 -23 97 -48 127 -19 22 -9 34 32 42 43 8 55 22 62 78 5
38 2 53 -25 99 -46 81 -90 120 -143 125 -23 2 -52 0 -63 -5z m125 -654 c0 -13
-7 -32 -15 -43 -14 -19 -14 -19 -15 1 0 30 11 65 21 65 5 0 9 -10 9 -23z"/>
<path d="M4788 1085 c-2 -19 0 -41 4 -48 4 -7 8 9 8 36 0 55 -6 62 -12 12z"/>
</g>
</svg>
