<?xml version="1.0" standalone="no"?>
<!DOCTYPE svg PUBLIC "-//W3C//DTD SVG 20010904//EN"
 "http://www.w3.org/TR/2001/REC-SVG-20010904/DTD/svg10.dtd">
<svg version="1.0" xmlns="http://www.w3.org/2000/svg"
 width="480.000000pt" height="360.000000pt" viewBox="0 0 480.000000 360.000000"
 preserveAspectRatio="xMidYMid meet">
<metadata>
Created by potrace 1.16, written by Peter Selinger 2001-2019
</metadata>
<rect width="1" height="360" fill="#000000"/>
<rect x="479" width="1" height="360" fill="#000000"/>
<rect width="480" height="1" fill="#000000"/>
<rect y="359" width="480" height="1" fill="#000000"/>
<g transform="translate(0.000000,360.000000) scale(0.100000,-0.100000)"
fill="#000000" stroke="none">
<path d="M0 1800 l0 -1800 503 0 502 1 35 60 c121 212 478 386 931 454 54 8
100 15 102 15 2 0 4 13 5 28 0 16 8 66 18 113 9 46 20 107 24 134 19 115 50
272 60 302 10 28 9 35 -9 54 -12 13 -21 28 -21 33 0 6 -8 25 -17 41 -16 30
-21 136 -11 258 2 33 0 47 -9 47 -7 0 -13 6 -13 13 0 17 58 42 126 56 28 6 74
19 102 30 55 22 59 21 137 -14 28 -13 69 -26 92 -30 22 -3 48 -14 56 -23 19
-22 32 -76 16 -67 -20 13 -27 -15 -13 -53 7 -20 13 -48 14 -62 0 -14 7 -34 15
-44 21 -27 19 -73 -2 -85 -10 -5 -24 -28 -31 -50 -10 -36 -10 -50 7 -104 16
-52 49 -209 68 -322 3 -16 11 -54 18 -83 8 -29 17 -80 21 -112 6 -50 10 -61
28 -65 11 -2 85 -16 164 -30 410 -73 741 -254 846 -462 l17 -33 509 0 510 0 0
1800 0 1800 -2400 0 -2400 0 0 -1800z"/>
<path d="M1970 376 c-135 -36 -189 -55 -283 -103 -101 -52 -176 -116 -224
-190 -56 -88 -74 -83 271 -83 343 0 310 -9 321 83 3 27 10 68 15 93 6 24 13
61 16 82 3 20 7 43 9 50 7 19 -18 92 -30 91 -5 0 -48 -11 -95 -23z"/>
<path d="M2720 371 c0 -11 0 -22 1 -23 0 -2 -4 -15 -10 -31 -8 -21 -5 -54 14
-150 14 -67 25 -132 25 -144 l0 -23 306 0 305 0 -7 23 c-15 49 -88 140 -147
183 -111 81 -310 162 -444 181 -39 5 -43 4 -43 -16z"/>
</g>
</svg>
