<?xml version="1.0" standalone="no"?>
<!DOCTYPE svg PUBLIC "-//W3C//DTD SVG 20010904//EN"
 "http://www.w3.org/TR/2001/REC-SVG-20010904/DTD/svg10.dtd">
<svg version="1.0" xmlns="http://www.w3.org/2000/svg"
 width="480.000000pt" height="360.000000pt" viewBox="0 0 480.000000 360.000000"
 preserveAspectRatio="xMidYMid meet">
<metadata>
Created by potrace 1.16, written by Peter Selinger 2001-2019
</metadata>
<rect width="1" height="360" fill="#000000"/>
<rect x="479" width="1" height="360" fill="#000000"/>
<rect width="480" height="1" fill="#000000"/>
<rect y="359" width="480" height="1" fill="#000000"/>
<g transform="translate(0.000000,360.000000) scale(0.100000,-0.100000)"
fill="#000000" stroke="none">
<path d="M0 2968 l0 -633 27 41 c27 41 29 42 173 83 200 57 261 69 445 86 193
19 275 35 378 75 98 38 172 85 222 142 22 25 91 79 152 121 62 42 127 89 145
106 18 17 78 54 133 82 153 79 264 147 326 200 l56 48 99 -30 c54 -17 199 -55
322 -85 122 -30 233 -59 246 -65 30 -14 141 -247 133 -281 -2 -13 -12 -50 -22
-83 -35 -123 -59 -306 -47 -363 4 -18 26 -55 50 -82 34 -39 50 -50 73 -50 43
0 81 22 127 75 22 25 42 45 46 45 3 0 12 -16 21 -35 22 -53 97 -125 131 -125
41 0 89 37 131 103 24 38 46 60 63 64 112 26 154 243 108 567 -9 65 -18 89
-52 140 -47 69 -256 332 -317 398 -22 23 -47 53 -56 66 l-15 22 -1549 0 -1549
0 0 -632z"/>
<path d="M4040 3527 c0 -142 -40 -377 -91 -537 -33 -103 -108 -268 -162 -355
-209 -340 -511 -565 -957 -715 -128 -43 -178 -57 -465 -130 -512 -130 -769
-241 -1000 -430 -245 -201 -403 -432 -505 -739 -57 -172 -100 -411 -100 -563
l0 -58 767 0 c421 0 764 3 761 6 -3 3 -40 18 -82 34 -115 43 -153 69 -282 197
-89 88 -126 134 -148 178 -16 33 -58 102 -93 153 -101 146 -122 198 -134 340
-10 110 -9 132 11 242 23 126 37 160 108 260 70 99 141 125 206 77 82 -60 82
-60 120 -27 18 17 54 39 80 50 42 19 48 20 83 5 20 -9 46 -23 56 -33 10 -9 34
-25 54 -37 69 -39 76 -126 31 -384 -21 -121 -21 -124 -3 -155 10 -17 40 -74
67 -126 28 -52 53 -99 57 -103 5 -4 59 -17 122 -28 63 -11 130 -24 149 -29 19
-5 97 -23 173 -41 l138 -32 37 35 c57 56 151 111 352 210 102 50 210 107 240
127 30 20 68 43 84 51 16 8 65 47 108 87 180 165 420 218 833 184 55 -5 110
-5 123 0 l22 9 0 1175 0 1175 -380 0 -380 0 0 -73z"/>
</g>
</svg>
