<?xml version="1.0" standalone="no"?>
<!DOCTYPE svg PUBLIC "-//W3C//DTD SVG 20010904//EN"
 "http://www.w3.org/TR/2001/REC-SVG-20010904/DTD/svg10.dtd">
<svg version="1.0" xmlns="http://www.w3.org/2000/svg"
 width="480.000000pt" height="360.000000pt" viewBox="0 0 480.000000 360.000000"
 preserveAspectRatio="xMidYMid meet">
<metadata>
Created by potrace 1.16, written by Peter Selinger 2001-2019
</metadata>
<rect width="1" height="360" fill="#000000"/>
<rect x="479" width="1" height="360" fill="#000000"/>
<rect width="480" height="1" fill="#000000"/>
<rect y="359" width="480" height="1" fill="#000000"/>
<g transform="translate(0.000000,360.000000) scale(0.100000,-0.100000)"
fill="#000000" stroke="none">
<path d="M0 3501 c0 -70 4 -101 13 -104 9 -4 9 -6 0 -6 -10 -1 -13 -347 -13
-1696 l0 -1695 778 0 c852 1 823 -2 645 56 -46 15 -87 32 -93 38 -5 7 -12 43
-15 81 -6 66 -9 72 -47 106 l-39 36 25 45 c20 36 23 51 17 79 -4 19 -5 44 0
54 8 22 205 217 259 257 19 14 87 54 150 88 63 34 147 86 186 115 76 57 306
294 378 390 l45 60 -34 31 c-22 19 -38 47 -45 75 -11 44 -11 44 -51 41 -39 -4
-89 17 -89 38 0 5 27 21 60 36 l60 27 0 151 c0 111 -6 173 -19 234 -23 101
-15 143 35 185 43 36 44 52 2 28 -42 -24 -119 -39 -100 -20 14 15 16 33 2 24
-6 -3 -10 -1 -10 5 0 6 -5 8 -10 5 -6 -3 -10 1 -10 9 0 9 -5 16 -10 16 -6 0
-21 11 -34 25 -13 13 -26 22 -30 18 -4 -4 -5 7 -2 24 5 23 2 33 -12 38 -15 6
-15 8 7 26 13 10 19 19 15 19 -5 0 7 8 26 18 l35 17 -27 3 c-15 2 -37 -2 -50
-8 -17 -8 -15 -4 10 20 18 17 47 34 65 37 43 9 128 96 161 166 29 62 108 144
164 169 51 24 138 23 205 -3 59 -23 159 -104 181 -148 23 -45 41 -134 27 -139
-6 -2 -11 -11 -11 -20 0 -9 -12 -29 -25 -44 -23 -27 -43 -38 -30 -18 11 17 -5
11 -51 -20 -47 -33 -49 -37 -35 -59 7 -10 1 -22 -17 -41 -15 -15 -38 -39 -51
-54 -21 -23 -30 -27 -58 -21 -18 3 -33 2 -33 -3 0 -14 42 -48 88 -71 49 -25
99 -88 108 -139 4 -19 20 -57 37 -84 22 -35 32 -66 37 -115 5 -51 19 -92 53
-163 47 -96 171 -280 195 -288 18 -6 15 12 -8 38 -11 13 -20 26 -20 30 0 14
42 19 67 9 30 -11 42 -4 25 13 -23 23 -14 41 16 33 15 -4 41 -8 57 -9 35 -2
74 -22 160 -80 53 -37 74 -45 146 -56 46 -7 127 -26 179 -42 122 -38 611 -272
578 -276 -13 -2 -43 -9 -68 -17 -25 -8 -67 -17 -95 -21 -27 -3 -104 -19 -170
-34 -180 -42 -290 -53 -445 -46 -132 7 -138 7 -229 -23 -51 -17 -96 -30 -100
-29 -32 4 -61 -4 -61 -17 0 -8 -5 -15 -10 -15 -16 0 -24 30 -11 43 20 20 12
27 -29 27 -44 0 -55 21 -20 40 30 16 25 23 -27 40 -26 8 -49 20 -51 27 -2 7
14 19 34 28 34 14 36 17 22 31 -9 10 -39 16 -85 18 -39 2 -80 9 -91 15 -28 15
-31 5 -21 -59 18 -108 99 -945 99 -1022 l0 -78 970 0 970 0 0 1800 0 1800
-2400 0 -2400 0 0 -99z m4289 63 c-21 -26 -96 -74 -115 -74 -15 0 -14 4 7 26
41 44 142 89 108 48z m-3791 -178 c3 -12 -1 -17 -10 -14 -7 3 -15 13 -16 22
-3 12 1 17 10 14 7 -3 15 -13 16 -22z m1097 -126 c3 -6 -1 -7 -9 -4 -18 7 -21
14 -7 14 6 0 13 -4 16 -10z m-806 -147 c-32 -43 -79 -85 -89 -81 -14 4 71 98
89 98 11 0 11 -3 0 -17z m66 -73 c3 -5 1 -10 -4 -10 -6 0 -11 5 -11 10 0 6 2
10 4 10 3 0 8 -4 11 -10z m2207 -272 c-9 -9 -15 -9 -24 0 -10 10 -10 15 2 22
20 12 38 -6 22 -22z m-2577 -118 c10 -16 -70 -62 -101 -58 -42 5 -39 22 8 46
46 23 83 28 93 12z m1586 -19 c-6 -10 -25 -31 -43 -46 -33 -28 -33 -28 -36 -6
-7 42 20 69 71 70 14 1 16 -3 8 -18z m2107 -22 c5 -28 -36 -77 -75 -89 -21 -7
-41 -16 -46 -19 -4 -4 2 -29 14 -55 11 -26 18 -55 14 -63 -8 -23 -21 -7 -48
62 -20 52 -22 64 -11 90 16 39 41 61 90 79 44 16 58 15 62 -5z m-3930 -1 c11
-14 0 -52 -17 -63 -16 -10 -51 4 -51 21 0 15 35 54 49 54 5 0 13 -6 19 -12z
m4021 -122 c15 -8 33 -22 40 -30 12 -14 10 -16 -6 -16 -22 0 -73 36 -73 51 0
12 6 11 39 -5z m-3279 -75 c0 -5 3 -16 6 -24 5 -14 -19 -47 -36 -47 -16 0 -19
45 -3 62 17 19 33 24 33 9z m-306 -568 c12 -31 -36 -39 -71 -11 -20 16 -5 28
32 28 21 0 35 -6 39 -17z m6 -272 c16 -32 12 -61 -9 -61 -27 0 -43 24 -35 54
7 31 29 34 44 7z m2944 -17 c9 -22 8 -24 -9 -24 -8 0 -15 9 -15 20 0 24 15 27
24 4z m-1688 -182 c-22 -22 -29 -10 -8 16 9 12 19 16 21 11 2 -6 -4 -18 -13
-27z m-6 -81 c0 -5 -6 -11 -12 -14 -19 -6 -49 4 -42 14 7 12 54 12 54 0z
m1572 -433 c-9 -9 -42 -1 -42 12 0 4 12 5 26 2 15 -3 22 -8 16 -14z"/>
<path d="M2682 1560 c3 -83 4 -85 35 -105 18 -11 32 -27 33 -36 0 -15 88 -65
97 -55 3 3 -16 41 -43 86 -27 44 -61 101 -75 126 -46 80 -50 78 -47 -16z"/>
</g>
</svg>
