<?xml version="1.0" standalone="no"?>
<!DOCTYPE svg PUBLIC "-//W3C//DTD SVG 20010904//EN"
 "http://www.w3.org/TR/2001/REC-SVG-20010904/DTD/svg10.dtd">
<svg version="1.0" xmlns="http://www.w3.org/2000/svg"
 width="480.000000pt" height="360.000000pt" viewBox="0 0 480.000000 360.000000"
 preserveAspectRatio="xMidYMid meet">
<metadata>
Created by potrace 1.16, written by Peter Selinger 2001-2019
</metadata>
<rect width="1" height="360" fill="#000000"/>
<rect x="479" width="1" height="360" fill="#000000"/>
<rect width="480" height="1" fill="#000000"/>
<rect y="359" width="480" height="1" fill="#000000"/>
<g transform="translate(0.000000,360.000000) scale(0.100000,-0.100000)"
fill="#000000" stroke="none">
<path d="M2382 3343 c-51 -49 -92 -95 -92 -103 0 -8 9 -44 21 -80 l20 -65 -41
-35 c-85 -71 -152 -145 -175 -191 -56 -110 -84 -291 -50 -319 8 -7 15 -19 15
-26 0 -13 8 -31 31 -74 5 -8 15 -30 23 -47 8 -18 19 -33 24 -33 5 0 12 -9 15
-19 3 -12 12 -18 23 -17 11 2 24 0 30 -5 6 -5 27 -15 47 -24 l37 -15 -6 30
c-8 38 1 38 21 0 21 -41 19 -68 -11 -107 -14 -18 -22 -38 -18 -44 3 -6 26 -19
50 -29 28 -13 45 -27 49 -42 4 -13 24 -36 47 -53 22 -16 49 -43 61 -60 28 -40
36 -45 79 -45 24 0 40 -6 46 -17 9 -14 11 -14 21 6 7 12 16 19 22 16 5 -4 14
8 20 25 6 17 13 29 15 28 2 -2 6 -31 9 -65 6 -54 4 -62 -15 -76 -11 -8 -50
-42 -85 -76 -49 -46 -72 -61 -94 -61 -50 0 -121 -75 -121 -128 0 -10 -9 -27
-21 -38 -34 -31 -61 -93 -67 -156 -2 -32 -9 -61 -13 -64 -5 -3 -9 -18 -9 -34
0 -32 -45 -160 -69 -200 -35 -56 -40 -56 -67 7 -26 58 -35 79 -92 206 -17 37
-43 106 -57 154 -15 48 -42 118 -61 155 -25 49 -31 70 -22 73 7 2 90 22 183
45 181 43 228 58 220 70 -6 9 -52 5 -280 -26 l-180 -24 -48 24 c-73 38 -132
44 -168 17 -16 -12 -40 -26 -54 -31 -14 -5 -30 -21 -36 -34 -13 -27 -38 -41
-50 -29 -4 4 -37 59 -73 122 -62 109 -66 114 -100 118 -20 2 -46 -2 -59 -9
-12 -6 -48 -11 -79 -10 -51 2 -60 -1 -82 -25 -29 -31 -32 -50 -12 -78 7 -11
54 -90 103 -175 71 -123 88 -160 81 -176 -6 -13 -1 -42 18 -94 14 -41 29 -95
33 -120 4 -25 20 -80 35 -122 l28 -77 55 -21 c30 -11 74 -33 97 -49 22 -15 77
-48 121 -71 134 -73 163 -96 171 -136 9 -50 74 -132 214 -269 l122 -119 -11
-55 c-7 -35 -18 -59 -32 -69 -45 -31 -66 -155 -34 -198 8 -10 15 -31 15 -46
l0 -28 660 0 c541 0 660 2 660 13 0 15 -82 123 -108 143 -9 8 -29 14 -44 14
-29 0 -30 2 -43 81 -13 83 -23 421 -14 490 10 81 1 125 -31 154 -17 15 -24 16
-50 5 -16 -7 -30 -19 -30 -28 0 -8 -3 -13 -6 -9 -4 3 -3 26 0 50 l7 44 41 -14
c25 -8 70 -13 117 -11 72 3 76 4 74 26 -3 21 1 22 57 22 57 0 74 10 48 27 -8
5 17 12 62 18 49 7 74 15 73 23 -4 17 27 92 38 92 5 0 9 -14 9 -31 0 -34 24
-64 41 -53 8 5 10 0 6 -17 -44 -195 -47 -213 -35 -226 10 -12 17 -8 46 24 33
37 33 38 27 10 -19 -93 -25 -185 -12 -210 9 -17 17 -23 23 -17 7 7 9 -21 6
-78 -4 -73 -1 -90 12 -101 14 -12 20 -11 43 10 23 22 25 22 19 4 -4 -11 -9
-32 -12 -47 -2 -16 -6 -41 -9 -58 -4 -25 -1 -30 16 -30 12 0 38 14 59 30 41
33 52 37 45 18 -14 -39 -32 -137 -24 -132 5 3 9 -2 9 -10 0 -9 4 -16 10 -16 5
0 6 -7 3 -17 -4 -11 -3 -14 5 -9 8 4 12 0 12 -11 1 -14 8 -10 30 17 29 33 30
34 31 10 0 -22 3 -20 20 15 11 22 17 32 14 21 -6 -20 -35 -209 -35 -226 0 -7
140 -10 405 -10 l405 0 0 799 0 798 -77 18 c-344 78 -377 91 -536 212 -137
106 -284 268 -371 411 -21 34 -42 60 -47 56 -5 -3 -21 -27 -34 -54 -14 -27
-34 -54 -44 -59 -10 -6 -40 -43 -67 -83 -49 -76 -122 -163 -234 -282 -95 -101
-116 -120 -145 -136 -23 -12 -28 -12 -46 7 -24 23 -38 105 -21 125 5 7 15 39
22 71 7 31 15 57 17 57 13 0 82 -42 86 -52 3 -7 6 10 8 37 1 29 4 39 6 25 8
-44 23 -47 23 -5 0 36 1 38 15 19 13 -18 14 -16 15 21 0 29 3 36 10 25 7 -12
12 -8 21 18 12 35 19 38 37 20 16 -16 15 1 -3 32 -20 36 -19 40 15 40 l30 0
-20 40 c-11 21 -20 48 -20 59 0 18 3 19 26 10 15 -5 28 -8 30 -6 2 1 -10 23
-26 47 -31 47 -30 73 1 44 29 -26 23 -6 -21 71 -68 120 -90 173 -124 310 -48
187 -71 230 -196 359 -113 116 -175 157 -272 177 -68 14 -74 20 -89 81 -8 31
-22 56 -35 65 -23 15 -190 53 -234 53 -18 0 -52 -25 -118 -87z m-622 -1994
c16 -28 29 -99 19 -99 -5 0 -13 8 -16 18 -4 9 -23 44 -43 77 -65 106 -67 114
-15 65 25 -25 51 -52 55 -61z m1365 -599 c16 -81 21 -360 6 -360 -4 0 -23 38
-40 83 -30 80 -31 87 -21 158 17 124 33 215 36 204 2 -5 10 -44 19 -85z"/>
</g>
</svg>
