<?xml version="1.0" standalone="no"?>
<!DOCTYPE svg PUBLIC "-//W3C//DTD SVG 20010904//EN"
 "http://www.w3.org/TR/2001/REC-SVG-20010904/DTD/svg10.dtd">
<svg version="1.0" xmlns="http://www.w3.org/2000/svg"
 width="480.000000pt" height="360.000000pt" viewBox="0 0 480.000000 360.000000"
 preserveAspectRatio="xMidYMid meet">
<metadata>
Created by potrace 1.16, written by Peter Selinger 2001-2019
</metadata>
<rect width="1" height="360" fill="#000000"/>
<rect x="479" width="1" height="360" fill="#000000"/>
<rect width="480" height="1" fill="#000000"/>
<rect y="359" width="480" height="1" fill="#000000"/>
<g transform="translate(0.000000,360.000000) scale(0.100000,-0.100000)"
fill="#000000" stroke="none">
<path d="M3849 3463 c-113 -77 -177 -132 -367 -314 -111 -108 -234 -216 -285
-251 -135 -95 -200 -144 -255 -193 -62 -56 -87 -53 -77 7 12 72 -28 124 -91
116 -27 -3 -29 -6 -26 -38 2 -24 -3 -42 -17 -57 -18 -19 -27 -21 -99 -16 -89
6 -131 -4 -266 -68 -50 -23 -72 -38 -58 -38 20 -1 33 -21 13 -21 -6 0 -31 -18
-56 -40 -25 -22 -42 -40 -36 -40 5 0 13 5 16 10 3 6 13 10 21 10 12 0 11 -6
-6 -30 -24 -33 -36 -111 -26 -165 6 -28 10 -35 19 -26 19 19 27 12 27 -23 0
-37 -17 -48 -63 -39 -20 4 -28 15 -37 50 -42 149 -195 269 -337 265 -34 -1
-83 -9 -107 -17 -42 -14 -48 -14 -71 1 -14 9 -31 26 -37 38 -41 81 -103 157
-157 195 -71 49 -111 67 -206 92 -85 23 -128 23 -220 4 -99 -21 -161 -55 -233
-127 -140 -139 -210 -376 -172 -579 42 -220 272 -382 520 -366 47 3 97 10 113
16 41 16 34 -2 -28 -66 -54 -57 -64 -76 -45 -88 5 -3 -6 -26 -25 -51 -39 -51
-42 -66 -19 -85 14 -11 21 -7 51 29 38 46 61 52 86 24 23 -25 21 -49 -3 -62
-24 -13 -26 -30 -5 -30 9 0 21 -11 27 -25 6 -14 19 -25 28 -25 14 0 18 -14 24
-74 12 -137 35 -266 54 -303 11 -21 22 -54 26 -75 4 -20 13 -39 21 -42 10 -4
15 -20 15 -50 0 -37 -5 -50 -30 -73 -27 -26 -30 -35 -36 -115 -6 -79 -5 -87
13 -98 17 -11 19 -18 9 -57 -7 -33 -17 -48 -38 -59 -21 -11 -31 -27 -42 -67
-27 -97 -29 -116 -12 -142 13 -20 14 -29 2 -62 -8 -23 -20 -39 -32 -42 -31 -5
-46 -23 -76 -88 -42 -93 -42 -93 51 -93 51 0 82 4 88 12 6 7 16 36 24 65 11
47 11 54 -5 72 -17 19 -17 21 3 65 16 37 25 46 44 46 29 0 47 37 67 133 11 55
10 60 -9 81 -24 25 -25 36 -11 87 7 26 17 39 35 43 30 8 45 55 45 143 0 54 -3
65 -23 77 -19 13 -21 22 -18 63 3 42 7 51 38 71 19 12 43 22 53 22 24 0 164
44 259 82 40 16 75 27 77 25 2 -1 -3 -25 -11 -52 -19 -61 -19 -196 0 -300 22
-117 45 -329 45 -411 0 -52 -4 -75 -15 -84 -8 -7 -15 -25 -15 -40 0 -15 -7
-33 -16 -41 -8 -7 -22 -26 -31 -43 -9 -17 -31 -45 -49 -62 -19 -18 -34 -37
-34 -43 0 -8 192 -11 703 -11 l702 0 96 163 c115 195 130 228 134 298 6 126
-64 251 -254 453 -129 137 -121 123 -131 226 -8 84 -6 105 25 253 35 173 55
257 109 460 34 129 46 159 46 119 0 -12 4 -22 9 -22 5 0 19 -16 30 -36 25 -43
48 -42 70 3 9 17 25 34 36 37 10 3 16 8 12 12 -3 4 7 22 23 41 16 18 33 46 36
61 4 15 12 34 20 42 7 8 16 29 20 45 4 17 12 39 17 50 21 38 46 150 46 205 0
110 -38 157 -144 181 -69 15 -125 1 -199 -52 -37 -26 -60 -36 -74 -32 -12 3
-22 8 -22 12 0 3 67 75 148 159 l149 153 44 -21 c63 -28 95 -25 161 15 32 20
80 43 108 51 36 10 50 20 50 33 0 18 -37 57 -83 86 l-28 18 38 21 c63 36 52
61 -40 90 -24 8 -21 13 128 211 132 176 138 200 34 128z m-1641 -1316 c-13
-25 -17 -18 -11 16 4 20 8 25 14 16 4 -7 3 -21 -3 -32z m-21 -188 c0 -13 1
-32 2 -42 1 -9 17 -25 36 -34 20 -9 34 -22 32 -27 -2 -6 -30 -96 -62 -199 -69
-221 -67 -218 -231 -278 -57 -20 -141 -54 -186 -74 -122 -54 -124 -54 -132 -8
-4 21 -14 75 -22 121 l-16 82 27 22 27 21 -21 16 c-11 9 -30 43 -41 76 -18 52
-19 66 -9 113 10 42 16 51 28 46 63 -27 105 -36 167 -36 138 1 263 66 340 178
39 57 58 64 61 23z m174 -306 c-12 -20 -14 -14 -5 12 4 9 9 14 11 11 3 -2 0
-13 -6 -23z m-831 -909 c0 -17 -3 -44 -6 -60 -5 -25 -10 -29 -37 -28 -37 1
-42 14 -33 78 6 40 8 42 41 42 33 0 35 -2 35 -32z m1461 -154 c5 0 9 7 9 16 0
29 19 4 25 -34 10 -58 16 -73 26 -67 5 4 9 18 9 33 0 50 13 56 56 27 21 -14
40 -28 42 -29 1 -2 -35 -77 -81 -166 -47 -89 -88 -157 -91 -151 -4 6 -8 111
-11 233 -2 123 -1 204 1 181 3 -24 9 -43 15 -43z m-1527 -168 c2 -4 0 -28 -6
-53 -10 -42 -13 -46 -39 -45 -25 1 -29 5 -29 31 0 57 10 75 41 75 15 0 30 -3
33 -8z m488 -337 c-2 -14 -8 -25 -13 -25 -10 0 -12 21 -3 44 9 24 22 10 16
-19z m-607 15 c11 0 11 -8 -2 -46 -11 -32 -19 -44 -30 -40 -8 3 -21 6 -29 6
-18 0 -18 24 2 61 10 20 20 29 30 25 9 -3 22 -6 29 -6z"/>
</g>
</svg>
