<?xml version="1.0" standalone="no"?>
<!DOCTYPE svg PUBLIC "-//W3C//DTD SVG 20010904//EN"
 "http://www.w3.org/TR/2001/REC-SVG-20010904/DTD/svg10.dtd">
<svg version="1.0" xmlns="http://www.w3.org/2000/svg"
 width="480.000000pt" height="360.000000pt" viewBox="0 0 480.000000 360.000000"
 preserveAspectRatio="xMidYMid meet">
<metadata>
Created by potrace 1.16, written by Peter Selinger 2001-2019
</metadata>
<rect width="1" height="360" fill="#000000"/>
<rect x="479" width="1" height="360" fill="#000000"/>
<rect width="480" height="1" fill="#000000"/>
<rect y="359" width="480" height="1" fill="#000000"/>
<g transform="translate(0.000000,360.000000) scale(0.100000,-0.100000)"
fill="#000000" stroke="none">
<path d="M0 1800 l0 -1800 862 2 861 3 117 360 c115 357 159 470 205 531 23
30 24 41 29 211 2 99 1 186 -4 193 -6 10 -19 6 -55 -21 -47 -34 -47 -34 -49
-99 -2 -47 -12 -87 -36 -145 -80 -192 -183 -316 -365 -438 -55 -36 -131 -89
-170 -117 -38 -28 -81 -55 -95 -62 -14 -6 -50 -36 -81 -65 -52 -50 -60 -54
-112 -58 -33 -3 -57 -1 -57 5 0 6 -9 6 -25 0 -19 -7 -25 -6 -25 5 0 7 4 16 10
20 5 3 19 20 31 38 l22 32 -29 -27 c-30 -28 -54 -36 -54 -19 0 5 20 33 44 62
47 57 96 142 96 167 0 10 -9 13 -37 10 -21 -3 -46 -8 -57 -13 -14 -6 -17 -4
-15 11 3 11 28 31 61 49 36 19 58 36 58 47 0 9 89 116 198 236 153 171 206
237 240 299 56 107 58 187 2 116 l-21 -28 5 49 c3 27 13 63 21 79 18 37 13 44
-20 29 -32 -15 -45 -15 -45 -1 0 11 17 28 116 119 98 90 109 110 138 248 32
153 33 192 5 199 -12 4 -18 11 -15 20 7 16 46 169 46 176 0 3 -15 1 -32 -4
-18 -5 -36 -9 -40 -9 -15 0 -85 107 -102 155 -10 28 -22 59 -26 70 -5 11 -17
49 -28 84 -17 55 -18 69 -8 105 l12 41 102 -2 c61 -1 137 -10 189 -23 79 -19
90 -19 132 -6 25 8 80 19 121 25 41 6 89 12 105 15 17 2 50 12 74 21 24 9 80
23 123 31 89 17 97 14 126 -40 12 -24 15 -56 14 -151 -1 -66 -3 -150 -3 -187
0 -45 -4 -67 -11 -65 -7 1 -17 -20 -22 -48 -6 -27 -22 -79 -36 -115 -21 -55
-25 -61 -30 -40 l-6 25 -8 -23 c-4 -12 -4 -68 0 -123 6 -97 8 -101 33 -111 14
-5 55 -24 90 -41 54 -27 69 -40 93 -82 40 -72 57 -113 70 -165 6 -25 21 -64
34 -87 14 -23 32 -74 40 -112 16 -70 17 -71 103 -147 228 -203 240 -220 197
-282 -14 -21 -26 -46 -26 -55 0 -24 58 -86 96 -102 19 -8 34 -18 34 -23 0 -17
-38 -43 -71 -48 -44 -7 -113 37 -130 80 -27 76 -21 72 -63 36 -47 -42 -63 -72
-81 -162 -22 -106 -20 -103 -61 -78 -19 12 -37 21 -39 19 -1 -2 12 -58 30
-124 19 -66 55 -200 82 -297 l48 -178 938 0 937 0 0 1800 0 1800 -2400 0
-2400 0 0 -1800z"/>
</g>
</svg>
