<?xml version="1.0" standalone="no"?>
<!DOCTYPE svg PUBLIC "-//W3C//DTD SVG 20010904//EN"
 "http://www.w3.org/TR/2001/REC-SVG-20010904/DTD/svg10.dtd">
<svg version="1.0" xmlns="http://www.w3.org/2000/svg"
 width="480.000000pt" height="360.000000pt" viewBox="0 0 480.000000 360.000000"
 preserveAspectRatio="xMidYMid meet">
<metadata>
Created by potrace 1.16, written by Peter Selinger 2001-2019
</metadata>
<rect width="1" height="360" fill="#000000"/>
<rect x="479" width="1" height="360" fill="#000000"/>
<rect width="480" height="1" fill="#000000"/>
<rect y="359" width="480" height="1" fill="#000000"/>
<g transform="translate(0.000000,360.000000) scale(0.100000,-0.100000)"
fill="#000000" stroke="none">
<path d="M1060 3560 c-22 -44 -25 -91 -9 -138 12 -34 58 -56 116 -54 35 1 44
-16 19 -37 -20 -17 -46 -97 -46 -142 0 -58 33 -149 77 -215 67 -99 74 -118 67
-175 -4 -28 -8 -61 -9 -72 -1 -12 -3 -25 -4 -28 0 -4 -24 -29 -53 -57 l-52
-51 28 -7 28 -7 -53 -53 c-46 -47 -50 -54 -31 -54 45 0 88 28 151 99 66 73
100 89 102 49 6 -98 21 -176 55 -278 73 -216 61 -261 -114 -445 -63 -65 -125
-135 -137 -155 -33 -53 -267 -270 -320 -298 -11 -5 -81 -33 -155 -62 -266
-102 -402 -210 -429 -338 -6 -29 -24 -78 -39 -110 -32 -63 -33 -130 -5 -154
20 -17 135 -80 288 -159 112 -59 125 -63 192 -64 72 -2 103 -14 103 -40 0 -17
27 -22 180 -35 234 -20 445 -41 464 -46 16 -5 17 -13 11 -80 -11 -116 -15
-126 -64 -142 -33 -11 -46 -22 -57 -48 -12 -30 -12 -39 9 -96 l22 -63 206 -3
205 -2 14 24 c14 28 30 25 30 -5 0 -17 8 -19 99 -19 97 0 99 0 105 25 4 14 3
67 0 118 -4 51 -3 145 1 208 l7 116 50 11 c27 7 86 12 131 12 l82 0 48 -74
c59 -91 62 -100 78 -274 l12 -142 683 0 682 0 13 52 c20 85 5 412 -31 661
l-29 207 9 328 c5 186 18 404 29 506 23 214 15 394 -24 566 -24 105 -81 258
-109 289 -7 9 -30 48 -50 88 -112 225 -366 323 -700 268 -49 -7 -102 -11 -118
-8 -21 4 -35 0 -51 -15 -12 -11 -44 -30 -70 -41 -56 -24 -147 -111 -199 -191
-40 -61 -128 -216 -128 -225 0 -3 10 1 23 10 33 21 37 12 21 -48 -7 -28 -9
-56 -5 -61 5 -6 16 -36 24 -66 17 -58 62 -105 90 -94 15 5 47 -20 47 -37 0 -5
-18 -26 -40 -48 -22 -21 -40 -44 -40 -51 0 -7 14 -28 30 -47 21 -24 29 -41 25
-54 -4 -12 7 -47 29 -93 20 -40 36 -80 36 -88 0 -23 34 -48 65 -48 26 0 27 -2
22 -36 -3 -20 -8 -38 -11 -41 -2 -2 -20 0 -40 5 -46 13 -46 1 -1 -24 39 -21
40 -27 23 -123 -12 -71 -34 -104 -78 -120 -24 -8 -34 -5 -62 16 -37 28 -205
113 -224 113 -26 0 -112 80 -133 122 -19 40 -21 61 -21 217 0 230 17 544 36
659 9 52 13 104 10 117 -10 38 -60 66 -126 72 -33 3 -60 8 -60 11 0 3 8 14 17
24 25 28 5 40 -79 46 -101 6 -109 16 -87 95 6 23 16 37 26 37 9 0 61 -18 116
-41 54 -22 101 -39 103 -37 5 5 -33 109 -44 120 -4 4 -42 17 -82 29 -41 11
-78 26 -82 32 -4 7 -8 31 -8 54 0 36 -5 46 -37 72 l-37 30 17 36 c21 44 22 42
-7 49 -22 5 -24 13 -36 123 -8 65 -14 133 -14 150 l-1 33 -172 0 -171 0 -7
-40 c-8 -50 -30 -53 -79 -10 -28 25 -48 32 -107 40 -41 5 -93 10 -116 10 -40
0 -44 -3 -63 -40z m67 -6 c-3 -3 -12 -4 -19 -1 -8 3 -5 6 6 6 11 1 17 -2 13
-5z m501 -62 c3 -9 -2 -13 -14 -10 -9 1 -19 9 -22 16 -3 9 2 13 14 10 9 -1 19
-9 22 -16z m362 -803 c-2 -8 -4 -39 -2 -69 l2 -55 -25 40 c-29 47 -32 80 -7
94 22 13 38 8 32 -10z m18 -374 c4 -126 -12 -390 -23 -389 -20 3 -45 51 -70
134 -30 98 -41 194 -31 273 7 55 8 56 44 60 79 9 77 11 80 -78z m852 -651 c0
-15 -6 -24 -15 -24 -15 0 -21 40 -9 53 12 11 24 -3 24 -29z m-989 -1471 c-9
-16 -10 -16 -11 4 0 12 3 30 7 40 7 16 8 16 11 -4 2 -12 -1 -30 -7 -40z"/>
</g>
</svg>
