<?xml version="1.0" standalone="no"?>
<!DOCTYPE svg PUBLIC "-//W3C//DTD SVG 20010904//EN"
 "http://www.w3.org/TR/2001/REC-SVG-20010904/DTD/svg10.dtd">
<svg version="1.0" xmlns="http://www.w3.org/2000/svg"
 width="480.000000pt" height="360.000000pt" viewBox="0 0 480.000000 360.000000"
 preserveAspectRatio="xMidYMid meet">
<metadata>
Created by potrace 1.16, written by Peter Selinger 2001-2019
</metadata>
<rect width="1" height="360" fill="#000000"/>
<rect x="479" width="1" height="360" fill="#000000"/>
<rect width="480" height="1" fill="#000000"/>
<rect y="359" width="480" height="1" fill="#000000"/>
<g transform="translate(0.000000,360.000000) scale(0.100000,-0.100000)"
fill="#000000" stroke="none">
<path d="M0 3507 l0 -94 67 -64 c38 -35 185 -176 328 -314 525 -507 472 -464
645 -530 159 -62 220 -80 335 -101 102 -18 160 -18 260 1 66 13 99 14 190 5
61 -6 139 -17 175 -25 161 -36 423 -65 589 -65 157 0 190 4 287 35 21 7 33 -9
100 -131 9 -17 5 -40 -22 -125 -18 -57 -39 -122 -46 -144 -12 -37 -16 -40 -62
-48 -67 -11 -179 -65 -243 -115 l-52 -42 -158 56 c-256 91 -242 87 -279 59
-18 -14 -36 -25 -41 -25 -4 0 -19 -9 -32 -19 l-23 -18 66 -27 c80 -32 131 -63
171 -106 26 -28 30 -38 30 -91 0 -55 -3 -62 -33 -89 -19 -16 -59 -39 -90 -52
-52 -21 -74 -23 -261 -24 l-203 -1 -18 -40 c-9 -21 -20 -73 -24 -114 -7 -69
-6 -76 15 -94 12 -11 48 -55 81 -97 32 -43 62 -78 67 -78 4 0 18 11 30 24 79
84 359 125 731 106 295 -14 427 -13 507 6 222 51 578 -20 818 -164 33 -20 67
-41 75 -48 8 -6 179 -82 380 -168 291 -126 373 -165 403 -194 l37 -36 0 1542
0 1542 -260 0 -260 0 5 -22 c38 -168 57 -524 35 -695 -47 -387 -185 -690 -419
-923 -103 -102 -205 -178 -216 -161 -2 5 6 34 20 65 14 31 25 71 25 88 0 34
28 147 41 164 11 14 14 131 4 174 -31 139 -253 587 -388 785 -80 119 -184 219
-287 277 -43 24 -182 83 -335 141 -38 15 -116 45 -173 67 l-102 40 -1245 0
-1245 0 0 -93z"/>
<path d="M1017 1740 c-121 -76 -292 -291 -376 -471 -168 -359 -208 -751 -125
-1231 l7 -38 510 0 510 0 -75 73 c-168 162 -304 387 -458 757 -28 69 -60 145
-70 170 -89 212 -80 334 44 586 41 83 79 155 85 158 13 8 15 26 3 26 -4 0 -29
-13 -55 -30z"/>
<path d="M2080 651 c0 -5 7 -14 15 -21 12 -10 21 -10 45 0 16 7 27 16 24 21
-7 12 -84 12 -84 0z"/>
</g>
</svg>
