<?xml version="1.0" standalone="no"?>
<!DOCTYPE svg PUBLIC "-//W3C//DTD SVG 20010904//EN"
 "http://www.w3.org/TR/2001/REC-SVG-20010904/DTD/svg10.dtd">
<svg version="1.0" xmlns="http://www.w3.org/2000/svg"
 width="480.000000pt" height="360.000000pt" viewBox="0 0 480.000000 360.000000"
 preserveAspectRatio="xMidYMid meet">
<metadata>
Created by potrace 1.16, written by Peter Selinger 2001-2019
</metadata>
<rect width="1" height="360" fill="#000000"/>
<rect x="479" width="1" height="360" fill="#000000"/>
<rect width="480" height="1" fill="#000000"/>
<rect y="359" width="480" height="1" fill="#000000"/>
<g transform="translate(0.000000,360.000000) scale(0.100000,-0.100000)"
fill="#000000" stroke="none">
<path d="M0 2908 l0 -691 23 21 c31 30 65 28 77 -2 6 -18 18 -26 41 -28 18 -2
37 -11 43 -21 9 -15 6 -22 -13 -38 -14 -11 -30 -30 -36 -42 -7 -14 -23 -24
-49 -28 -33 -5 -55 -21 -56 -40 0 -3 9 -14 20 -24 11 -10 20 -28 20 -39 0 -12
15 -46 33 -76 25 -43 38 -56 60 -58 26 -3 27 -1 18 16 -6 11 -26 29 -46 41
-20 11 -38 28 -42 36 -7 21 15 63 38 70 29 10 110 -39 170 -101 84 -89 108
-130 123 -217 7 -42 19 -85 27 -96 8 -10 55 -72 104 -137 50 -64 112 -146 139
-182 27 -36 52 -70 57 -76 33 -41 61 -79 99 -133 23 -35 46 -63 49 -63 3 0 29
24 58 53 28 28 70 66 92 82 29 22 40 36 38 53 -2 18 15 34 83 81 79 54 85 61
93 102 5 24 16 52 25 62 25 29 92 53 219 81 65 15 136 33 158 41 22 8 90 21
150 30 61 8 143 23 183 32 79 18 93 32 91 91 -1 29 -3 24 -14 -22 -5 -23 -8
-27 -16 -15 -5 7 -9 22 -9 31 0 9 -5 29 -11 45 -6 15 -13 57 -15 92 -5 62 -54
203 -75 217 -14 8 -11 -15 15 -98 13 -43 21 -78 17 -78 -10 0 -91 171 -91 192
0 9 -17 38 -38 65 -55 70 -102 161 -102 199 0 18 -5 36 -10 39 -6 4 -35 -3
-66 -14 -72 -27 -74 -27 -74 12 0 29 -5 35 -39 50 -22 10 -46 29 -55 42 -15
23 -15 26 -1 31 12 5 13 9 4 20 -9 11 -8 18 2 31 23 27 98 71 170 99 39 14 69
32 69 39 0 8 9 20 21 28 20 15 20 15 1 53 -27 54 -102 292 -102 323 0 23 20 8
115 -89 l98 -99 36 32 c84 75 261 119 464 116 119 -2 129 -1 148 19 25 28 61
37 88 23 11 -6 32 -9 45 -5 13 3 33 1 45 -5 17 -9 31 -4 88 33 88 56 151 88
156 78 10 -15 -52 -237 -82 -294 -24 -47 -27 -58 -13 -53 48 20 151 16 277 -9
149 -30 195 -44 195 -57 0 -5 -10 -11 -23 -14 -51 -12 -166 -36 -221 -46 l-58
-12 27 -21 c18 -14 28 -32 28 -49 0 -29 -28 -67 -48 -67 -7 0 -16 -7 -19 -16
-3 -8 -40 -31 -81 -50 -58 -27 -75 -39 -75 -55 0 -12 13 -67 29 -123 40 -141
46 -170 76 -351 34 -207 94 -441 139 -546 20 -46 78 -146 130 -223 122 -185
167 -258 220 -364 56 -112 47 -137 -17 -45 -47 68 -65 77 -26 14 14 -23 17
-37 10 -44 -13 -13 -6 -22 -85 108 -37 61 -72 115 -77 120 -13 12 2 -29 29
-82 58 -114 181 -538 167 -575 -3 -8 -2 -58 3 -112 9 -89 7 -115 -13 -203 l-5
-23 680 0 680 0 0 1800 0 1800 -2400 0 -2400 0 0 -692z"/>
<path d="M1830 2213 c0 -4 5 -15 10 -23 8 -13 10 -13 10 2 0 9 -4 20 -10 23
-5 3 -10 3 -10 -2z"/>
<path d="M0 801 l0 -801 714 0 715 0 -2 27 c-2 24 5 29 74 59 112 49 177 64
342 76 172 14 163 3 122 145 -36 124 -62 284 -75 458 -14 197 -31 355 -40 360
-4 2 -33 -23 -65 -55 -33 -33 -65 -60 -71 -60 -7 0 -14 -7 -17 -15 -13 -33
-117 -57 -157 -35 -20 11 -31 3 -133 -83 l-58 -50 -30 22 -30 22 -92 -59
c-205 -131 -300 -172 -404 -172 -79 0 -106 13 -170 84 -44 48 -306 430 -361
526 -11 19 -45 80 -77 135 -55 98 -103 157 -157 197 l-28 19 0 -800z"/>
</g>
</svg>
