<?xml version="1.0" standalone="no"?>
<!DOCTYPE svg PUBLIC "-//W3C//DTD SVG 20010904//EN"
 "http://www.w3.org/TR/2001/REC-SVG-20010904/DTD/svg10.dtd">
<svg version="1.0" xmlns="http://www.w3.org/2000/svg"
 width="480.000000pt" height="360.000000pt" viewBox="0 0 480.000000 360.000000"
 preserveAspectRatio="xMidYMid meet">
<metadata>
Created by potrace 1.16, written by Peter Selinger 2001-2019
</metadata>
<rect width="1" height="360" fill="#000000"/>
<rect x="479" width="1" height="360" fill="#000000"/>
<rect width="480" height="1" fill="#000000"/>
<rect y="359" width="480" height="1" fill="#000000"/>
<g transform="translate(0.000000,360.000000) scale(0.100000,-0.100000)"
fill="#000000" stroke="none">
<path d="M0 1800 l0 -1800 884 0 884 0 17 48 c16 40 18 75 16 227 -2 164 0
188 22 274 24 89 24 96 9 117 -10 13 -25 24 -34 24 -12 0 -18 8 -18 23 -1 12
-7 39 -14 60 -16 42 -5 112 53 332 26 103 71 317 67 322 0 0 -50 -12 -111 -28
-135 -36 -260 -63 -385 -84 -139 -23 -133 -20 -127 -67 4 -29 2 -37 -5 -30 -6
6 -11 24 -12 40 l-1 29 -72 -1 c-62 -1 -74 2 -97 23 -43 41 -45 39 105 66 85
16 98 21 112 45 12 19 13 30 5 38 -16 16 -2 42 25 42 50 0 63 -45 17 -61 -17
-6 -30 -16 -30 -21 0 -19 105 0 330 58 199 51 242 64 211 64 -6 0 -16 12 -22
26 -9 24 -11 25 -27 12 -30 -26 -40 -28 -56 -12 -10 9 -14 24 -10 38 6 26 8
25 -161 96 -106 45 -212 96 -232 112 -9 7 -9 16 -1 34 6 13 15 24 19 24 4 0
57 -25 117 -54 60 -30 148 -70 195 -89 84 -34 86 -35 103 -16 31 34 68 20 69
-26 0 -22 22 -30 44 -16 11 7 0 26 -50 86 -35 43 -74 90 -86 105 -35 42 -36
68 -8 153 14 43 25 91 25 108 0 52 29 97 106 161 41 34 74 65 74 68 0 4 18 17
41 29 l40 23 -23 25 c-22 24 -23 24 -26 4 -3 -17 -7 -19 -27 -11 -16 6 -25 5
-28 -3 -3 -8 -12 -4 -26 11 -12 12 -25 22 -29 22 -13 0 -45 168 -38 201 24
119 90 220 169 258 52 25 126 27 172 5 37 -17 32 -19 100 41 22 19 49 38 61
41 44 11 -4 104 -53 104 -21 0 -42 29 -43 60 0 14 -7 34 -15 44 -8 11 -15 27
-15 36 0 8 -9 22 -20 30 -13 9 -20 26 -20 47 0 24 -9 42 -35 67 -19 20 -35 42
-35 51 0 9 -5 13 -11 10 -7 -5 -9 11 -7 46 3 59 12 67 98 91 37 11 -130 13
-945 16 -657 1 -991 -1 -993 -8 -5 -13 -39 -13 -47 0 -3 6 -48 10 -101 10
l-94 0 0 -1800z m1757 1578 c5 -7 7 -24 3 -38 -4 -18 -13 -25 -30 -25 -31 0
-39 35 -15 59 20 19 29 20 42 4z m371 -75 c-5 -25 -28 -28 -28 -4 0 12 6 21
16 21 9 0 14 -7 12 -17z m-52 -137 c0 -12 4 -42 7 -68 6 -46 5 -48 -17 -48
-33 0 -86 62 -86 100 0 32 11 39 60 38 28 -1 35 -6 36 -22z m-584 -593 c21
-18 24 -59 6 -66 -34 -12 -86 36 -74 69 7 19 45 18 68 -3z m-722 -293 c25 -13
42 -30 46 -45 3 -13 12 -29 20 -36 16 -13 19 -49 4 -49 -20 0 -30 -37 -18 -70
8 -25 8 -34 -2 -40 -11 -7 -11 -20 -2 -66 7 -31 12 -71 12 -87 0 -18 12 -43
30 -66 16 -20 39 -47 50 -60 38 -46 18 -91 -42 -91 -13 0 -32 -6 -41 -13 -16
-11 -16 -18 3 -112 12 -55 37 -147 56 -205 48 -146 49 -150 31 -150 -8 0 -28
8 -45 17 -64 37 -87 -28 -31 -88 37 -40 32 -44 -80 -59 -47 -6 -102 -16 -121
-20 -135 -34 -346 -62 -472 -64 -75 0 -140 3 -145 7 -14 15 26 35 83 42 31 4
79 17 107 31 35 16 70 24 107 24 72 0 233 19 241 28 4 4 5 22 2 40 -4 27 -11
34 -35 39 -39 8 -42 20 -24 84 12 42 46 237 46 264 0 2 -11 15 -25 28 -24 22
-25 26 -15 70 8 39 7 53 -6 78 -17 33 -13 53 26 129 29 58 54 151 55 210 2 81
24 192 42 212 15 17 60 35 91 37 7 1 31 -8 52 -19z"/>
<path d="M630 1177 c0 -3 7 -21 15 -41 15 -35 18 -37 58 -34 41 3 42 4 42 38
l0 35 -57 3 c-32 2 -58 1 -58 -1z"/>
<path d="M2303 3593 c157 -263 320 -518 441 -693 47 -69 128 -187 179 -263 85
-126 94 -137 117 -131 14 4 32 7 40 8 23 2 24 -34 1 -58 l-21 -22 40 -33 c56
-44 76 -77 60 -96 -6 -8 -8 -20 -4 -27 21 -35 212 -281 282 -365 38 -45 51
-67 44 -76 -5 -7 -12 -24 -16 -39 -3 -15 -15 -32 -26 -38 -28 -15 -25 -24 16
-70 20 -22 34 -43 31 -47 -3 -3 -28 10 -54 29 -56 40 -68 78 -44 144 13 38 13
41 -10 66 -13 14 -78 98 -144 187 -70 94 -127 161 -136 161 -9 0 -19 7 -23 15
-3 9 -12 12 -22 8 -14 -5 -16 -2 -12 15 8 29 -6 29 -122 -7 -52 -16 -133 -32
-180 -36 -47 -4 -91 -12 -99 -18 -7 -6 -42 -19 -78 -28 -57 -15 -72 -15 -130
-3 -37 7 -69 12 -71 9 -3 -2 0 -30 7 -62 6 -32 14 -124 17 -205 6 -132 5 -148
-9 -154 -18 -6 -24 -68 -9 -78 5 -3 88 19 185 49 97 30 180 55 185 55 4 0 15
-23 24 -51 l17 -50 -27 -10 c-15 -6 -94 -30 -175 -54 -82 -24 -150 -45 -152
-47 -1 -2 7 -27 18 -56 16 -42 23 -51 36 -46 9 4 40 10 70 12 41 3 52 1 49 -9
-5 -16 -39 -27 -86 -28 -91 -3 5 -45 348 -153 107 -33 199 -64 204 -69 18 -17
-16 -39 -60 -39 -56 0 -224 45 -397 106 l-68 24 12 -23 c7 -12 32 -51 55 -87
25 -38 54 -100 69 -150 15 -47 30 -93 36 -102 18 -34 10 -104 -18 -158 -26
-50 -82 -100 -112 -100 -8 0 -25 -9 -37 -21 l-22 -21 28 -76 c38 -104 50 -171
60 -337 5 -91 15 -158 27 -192 l18 -53 1073 0 1072 0 0 1239 c0 1092 -2 1240
-15 1245 -8 3 -15 15 -15 26 0 11 7 23 15 26 13 5 15 74 15 535 l0 529 -625 0
c-344 0 -625 -3 -625 -6 0 -12 102 -204 121 -229 18 -21 28 -25 76 -25 47 0
54 2 44 14 -20 24 4 28 75 11 84 -19 127 -46 148 -90 19 -39 13 -75 -15 -101
-17 -16 -26 -16 -72 -7 -46 10 -60 8 -121 -13 -89 -31 -125 -30 -192 3 -68 33
-186 154 -239 244 -20 35 -38 65 -39 66 0 1 -32 -9 -71 -23 -87 -29 -157 -30
-231 -3 -64 24 -135 84 -154 129 l-12 30 -285 0 c-156 0 -282 -3 -280 -7z
m1832 -123 c11 -17 -5 -32 -21 -19 -7 6 -11 15 -8 20 7 12 21 11 29 -1z m270
-360 c-3 -5 -13 -10 -21 -10 -8 0 -14 5 -14 10 0 6 9 10 21 10 11 0 17 -4 14
-10z m-1061 -236 c20 -8 20 -28 0 -60 -13 -19 -20 -22 -30 -13 -17 14 -18 51
-2 67 14 14 12 14 32 6z m1266 -65 c0 -12 -37 -12 -44 0 -7 11 14 20 32 13 6
-2 12 -8 12 -13z m-120 -1754 c10 -13 9 -15 -8 -15 -22 0 -36 13 -25 24 10 10
20 7 33 -9z"/>
<path d="M2509 2710 c-33 -91 -65 -120 -103 -95 l-23 16 -5 -79 c-5 -85 -14
-114 -29 -91 -6 11 -9 9 -9 -7 0 -17 -7 -21 -31 -22 -27 -1 -30 2 -26 21 6 21
5 21 -14 -3 -19 -22 -19 -25 -5 -36 26 -18 111 -26 160 -13 62 15 135 4 208
-32 35 -18 248 1 248 21 0 4 -12 5 -27 3 -21 -3 -24 -2 -13 6 12 8 12 13 -4
30 -11 12 -23 21 -28 21 -14 0 -67 64 -68 81 0 9 -3 19 -7 23 -5 4 -8 12 -8
16 0 5 -22 32 -49 61 -33 35 -51 48 -58 41 -16 -16 -58 16 -58 44 0 32 -39 28
-51 -6z"/>
<path d="M2182 2443 c2 -9 8 -18 15 -20 7 -3 9 3 6 16 -6 25 -26 28 -21 4z"/>
<path d="M2970 2385 c-11 -13 -8 -15 15 -15 23 0 26 2 15 15 -7 8 -14 15 -15
15 -1 0 -8 -7 -15 -15z"/>
<path d="M1960 2019 c-14 -11 -39 -33 -56 -48 l-31 -27 34 -72 c19 -40 38 -72
42 -72 21 0 51 100 51 169 0 39 -3 71 -7 71 -5 -1 -19 -10 -33 -21z"/>
<path d="M1976 1738 c17 -32 17 -32 27 -10 12 25 11 27 -21 37 l-23 7 17 -34z"/>
<path d="M2221 606 c-13 -16 -76 -16 -100 -2 -7 4 -18 2 -26 -4 -14 -12 -42
-10 -76 4 -22 9 -26 -2 -45 -142 -8 -64 -24 -171 -34 -237 -10 -68 -16 -143
-13 -172 l6 -53 277 0 277 0 7 54 c3 30 2 65 -3 79 -5 13 -26 100 -46 193 -39
179 -60 261 -73 282 -7 9 -16 10 -40 1 -31 -11 -47 -10 -83 5 -9 4 -21 0 -28
-8z"/>
</g>
</svg>
