<?xml version="1.0" standalone="no"?>
<!DOCTYPE svg PUBLIC "-//W3C//DTD SVG 20010904//EN"
 "http://www.w3.org/TR/2001/REC-SVG-20010904/DTD/svg10.dtd">
<svg version="1.0" xmlns="http://www.w3.org/2000/svg"
 width="480.000000pt" height="360.000000pt" viewBox="0 0 480.000000 360.000000"
 preserveAspectRatio="xMidYMid meet">
<metadata>
Created by potrace 1.16, written by Peter Selinger 2001-2019
</metadata>
<rect width="1" height="360" fill="#000000"/>
<rect x="479" width="1" height="360" fill="#000000"/>
<rect width="480" height="1" fill="#000000"/>
<rect y="359" width="480" height="1" fill="#000000"/>
<g transform="translate(0.000000,360.000000) scale(0.100000,-0.100000)"
fill="#000000" stroke="none">
<path d="M3004 3573 c4 -16 23 -62 44 -103 20 -41 38 -77 40 -81 1 -3 -33 -11
-75 -18 -308 -52 -588 -276 -674 -541 -27 -84 -76 -176 -106 -200 -48 -37 -22
-41 32 -4 l38 25 -6 -29 c-3 -16 -9 -42 -13 -57 -5 -22 -4 -26 6 -20 10 6 12
4 7 -9 -4 -10 -10 -43 -13 -74 -5 -47 -4 -55 7 -44 21 20 25 15 39 -45 l14
-58 7 40 c6 38 6 38 8 8 0 -18 5 -33 10 -33 5 0 12 -12 16 -27 7 -25 8 -26 14
-9 7 17 9 15 20 -15 12 -30 14 -32 21 -14 8 18 9 18 20 -10 7 -17 24 -39 38
-49 l25 -19 -7 28 c-18 72 -14 83 7 20 23 -68 24 -69 29 -35 3 28 6 31 12 17
15 -33 -13 -99 -62 -146 -52 -50 -51 -59 16 -104 33 -22 42 -34 42 -58 0 -16
-1 -31 -2 -33 -6 -9 47 -56 63 -56 9 0 27 -8 40 -19 18 -15 23 -27 21 -60 -2
-30 1 -43 13 -47 9 -4 30 -31 47 -60 16 -30 34 -57 39 -60 12 -7 12 -66 -1
-98 -7 -21 -6 -27 8 -34 9 -5 23 -7 31 -4 10 3 12 -1 8 -18 -3 -12 5 -92 19
-178 13 -86 24 -164 24 -174 0 -10 -18 -38 -40 -61 l-40 -42 -21 25 c-11 14
-37 44 -56 67 -20 23 -46 67 -59 97 -13 31 -43 85 -68 121 -42 61 -44 66 -34
102 16 60 4 227 -22 297 -46 121 -126 164 -285 153 -45 -3 -87 -7 -95 -9 -9
-2 -17 12 -22 40 -9 42 -24 54 -34 28 -3 -8 -1 -30 4 -50 l10 -35 -46 -17
c-94 -34 -135 -55 -168 -84 -19 -16 -38 -30 -43 -30 -13 0 -38 -68 -56 -151
-17 -74 -17 -77 5 -155 12 -43 28 -104 36 -134 24 -90 147 -229 225 -255 27
-9 49 -18 49 -20 0 -2 -16 -37 -36 -79 -27 -57 -45 -120 -70 -244 -18 -92 -44
-200 -58 -239 -27 -77 -34 -192 -20 -332 l7 -61 287 0 288 0 17 42 c19 49 96
180 128 220 l22 27 -3 -144 -4 -145 65 0 c60 0 66 2 70 22 l4 23 8 -23 7 -22
755 0 754 0 82 26 c45 15 104 41 132 58 l50 31 -34 5 -33 5 41 50 41 50 -56 3
c-54 3 -61 0 -183 -72 -69 -41 -136 -77 -148 -81 -28 -8 -46 23 -49 80 -2 54
-22 147 -34 159 -6 6 -10 24 -10 41 0 16 -14 84 -31 150 -17 66 -36 140 -41
165 -6 25 -17 53 -25 62 -8 9 -12 22 -8 28 4 6 2 23 -3 38 -6 15 -13 55 -16
89 -5 50 -3 63 8 63 15 0 16 -3 37 -87 7 -29 16 -53 21 -53 4 0 5 7 2 15 -4 8
-1 15 5 15 6 0 11 -5 11 -11 0 -6 6 -9 13 -6 8 3 29 -33 61 -109 55 -131 81
-164 72 -93 -14 101 -46 379 -46 391 1 7 19 -22 41 -66 22 -43 42 -76 43 -75
2 2 -9 56 -25 119 -38 153 -50 251 -40 330 5 36 9 52 10 35 2 -49 76 -247 127
-342 49 -90 94 -163 94 -151 0 4 -16 61 -35 128 -19 67 -37 149 -41 183 l-6
62 39 -65 c68 -112 110 -175 129 -190 16 -14 17 -13 10 15 -25 113 -46 306
-55 525 -32 707 -70 946 -211 1325 -26 72 -53 155 -59 185 -20 97 -97 237
-171 311 -78 78 -128 99 -235 99 l-72 0 -51 80 -51 80 -317 0 -316 0 6 -27z"/>
</g>
</svg>
