<?xml version="1.0" standalone="no"?>
<!DOCTYPE svg PUBLIC "-//W3C//DTD SVG 20010904//EN"
 "http://www.w3.org/TR/2001/REC-SVG-20010904/DTD/svg10.dtd">
<svg version="1.0" xmlns="http://www.w3.org/2000/svg"
 width="480.000000pt" height="360.000000pt" viewBox="0 0 480.000000 360.000000"
 preserveAspectRatio="xMidYMid meet">
<metadata>
Created by potrace 1.16, written by Peter Selinger 2001-2019
</metadata>
<rect width="1" height="360" fill="#000000"/>
<rect x="479" width="1" height="360" fill="#000000"/>
<rect width="480" height="1" fill="#000000"/>
<rect y="359" width="480" height="1" fill="#000000"/>
<g transform="translate(0.000000,360.000000) scale(0.100000,-0.100000)"
fill="#000000" stroke="none">
<path d="M0 1800 l0 -1800 1440 0 c1482 0 1465 0 1431 35 -5 6 -18 42 -29 80
-20 68 -32 111 -107 400 -70 270 -178 569 -233 649 -40 58 -69 74 -152 87
-102 15 -226 46 -270 69 -43 22 -130 113 -195 204 l-45 64 0 114 c0 109 1 116
28 150 15 20 52 57 82 82 30 25 68 59 84 76 26 27 28 33 17 57 -16 36 7 52 30
21 l17 -21 38 30 c80 63 117 76 207 71 52 -3 95 -11 117 -23 118 -61 216 -195
254 -346 28 -114 18 -172 -44 -237 l-40 -43 81 -82 c88 -90 145 -176 241 -363
50 -99 64 -119 69 -101 13 50 46 95 148 206 59 64 113 126 119 138 7 12 12 48
12 81 0 112 17 170 76 253 30 43 54 83 54 90 0 7 -22 38 -49 69 -46 53 -48 57
-35 80 19 36 17 55 -9 86 l-23 26 -27 -41 c-15 -23 -30 -41 -33 -41 -3 0 -2
21 2 46 l7 46 -61 -31 c-33 -16 -80 -35 -106 -42 -58 -14 -84 0 -116 65 -12
25 -34 55 -48 67 -16 12 -29 34 -32 52 -4 25 -13 36 -43 50 -37 17 -50 36 -61
89 -7 31 -19 44 -75 78 -49 29 -52 51 -10 89 l31 28 -104 54 c-57 30 -109 54
-116 54 -7 0 -16 5 -20 11 -4 6 -25 21 -47 33 -22 12 -62 38 -88 56 -27 19
-63 39 -81 44 -47 13 -183 107 -191 132 -8 26 -183 142 -203 134 -7 -3 -32 11
-55 30 -22 19 -45 35 -50 35 -17 0 -186 142 -206 173 -11 18 -28 42 -37 55
-15 20 -15 25 -3 33 11 7 9 13 -13 35 -19 20 -39 28 -77 32 -44 4 -56 10 -90
47 -28 30 -38 49 -34 63 3 14 -1 22 -15 27 -22 6 -48 67 -37 85 4 7 -202 10
-634 10 l-641 0 0 -1800z"/>
<path d="M4676 3562 c-5 -8 -9 -32 -21 -134 l-5 -36 51 -11 c102 -22 99 -25
99 89 l0 100 -59 0 c-33 0 -62 -4 -65 -8z"/>
<path d="M3529 124 c-13 -15 -50 -49 -82 -75 l-58 -49 141 0 140 0 -51 75
c-28 41 -54 75 -58 75 -4 0 -18 -12 -32 -26z"/>
</g>
</svg>
