<?xml version="1.0" standalone="no"?>
<!DOCTYPE svg PUBLIC "-//W3C//DTD SVG 20010904//EN"
 "http://www.w3.org/TR/2001/REC-SVG-20010904/DTD/svg10.dtd">
<svg version="1.0" xmlns="http://www.w3.org/2000/svg"
 width="480.000000pt" height="360.000000pt" viewBox="0 0 480.000000 360.000000"
 preserveAspectRatio="xMidYMid meet">
<metadata>
Created by potrace 1.16, written by Peter Selinger 2001-2019
</metadata>
<rect width="1" height="360" fill="#000000"/>
<rect x="479" width="1" height="360" fill="#000000"/>
<rect width="480" height="1" fill="#000000"/>
<rect y="359" width="480" height="1" fill="#000000"/>
<g transform="translate(0.000000,360.000000) scale(0.100000,-0.100000)"
fill="#000000" stroke="none">
<path d="M2630 2788 c0 -10 -4 -18 -10 -18 -5 0 -10 5 -10 10 0 6 -4 10 -10
10 -5 0 -7 -6 -4 -14 3 -8 0 -17 -6 -21 -8 -5 -6 -11 6 -19 16 -12 13 -17 -26
-60 -23 -25 -49 -46 -57 -46 -7 0 -16 -7 -19 -15 -4 -8 -12 -15 -19 -15 -26 0
-26 -21 -1 -51 21 -24 26 -42 27 -87 1 -31 0 -61 -1 -67 -2 -5 -6 -32 -9 -60
-4 -29 -17 -64 -30 -82 l-24 -32 28 -72 c20 -52 36 -76 56 -88 30 -17 59 -81
59 -132 0 -15 5 -31 10 -34 17 -11 11 -38 -14 -64 -14 -15 -44 -62 -67 -106
-59 -111 -109 -182 -163 -235 -26 -25 -59 -64 -73 -88 -23 -39 -25 -47 -15
-80 9 -30 20 -41 61 -59 27 -13 56 -23 65 -23 27 0 29 -25 6 -70 -11 -22 -25
-78 -31 -123 -6 -45 -15 -100 -20 -122 -6 -22 -12 -65 -14 -95 -4 -52 -24
-146 -39 -181 -11 -25 29 -66 71 -73 105 -18 183 -39 183 -49 0 -6 -7 -18 -16
-28 -9 -11 -13 -26 -9 -38 8 -26 65 -81 84 -81 9 0 27 -6 41 -13 14 -7 60 -26
103 -41 51 -18 84 -37 94 -52 11 -17 25 -24 48 -24 40 0 65 -26 65 -69 0 -17
6 -34 13 -37 18 -7 113 19 114 31 0 6 -19 16 -44 24 -50 16 -66 38 -61 83 2
26 13 39 55 67 49 33 52 36 36 53 -8 9 -25 20 -37 24 -11 4 -44 28 -73 53 -44
39 -53 52 -53 80 0 39 -35 104 -78 143 -31 29 -51 105 -35 130 8 14 12 73 16
278 1 70 7 134 13 145 6 11 21 61 33 111 27 116 30 332 5 413 -13 46 -14 58
-1 90 11 28 12 55 5 125 -5 49 -6 91 -4 93 3 3 24 -8 48 -24 24 -16 48 -32 55
-36 14 -9 73 39 73 60 0 8 -8 28 -17 44 -14 24 -15 33 -5 47 7 9 19 32 27 50
13 28 13 36 1 66 -8 19 -23 39 -34 45 -32 17 -77 13 -96 -8 -21 -23 -49 -17
-82 16 -25 25 -32 69 -13 75 8 3 7 20 -5 60 -16 55 -16 58 4 90 11 18 20 36
20 39 0 3 -19 14 -42 24 -24 10 -63 34 -87 54 -40 32 -42 35 -25 48 11 8 13
13 5 13 -9 0 -11 8 -8 21 4 16 3 18 -8 9 -10 -8 -16 -7 -24 7 -10 17 -10 17
-11 1z m-55 -1602 c17 -3 47 -7 69 -8 30 -2 40 -7 47 -26 13 -34 20 -339 8
-383 l-9 -36 -73 -7 c-39 -3 -100 -9 -133 -12 l-61 -6 -16 47 c-13 37 -14 52
-5 69 7 11 15 44 19 71 7 52 49 199 76 267 11 27 20 37 32 34 9 -2 30 -7 46
-10z m381 -780 c24 -18 14 -28 -50 -50 -59 -19 -56 -19 -56 -4 0 18 51 68 70
68 9 0 25 -6 36 -14z"/>
<path d="M1188 2721 c-9 -13 -21 -20 -27 -16 -7 4 -11 -6 -11 -27 0 -42 -19
-70 -67 -99 -21 -12 -48 -31 -60 -41 -17 -16 -25 -18 -43 -8 -16 9 -25 9 -35
0 -12 -10 -11 -18 7 -51 21 -40 21 -41 2 -95 l-18 -54 32 -33 c22 -22 32 -43
32 -63 0 -34 44 -84 74 -84 30 0 12 -23 -27 -34 -57 -17 -65 -36 -70 -172 -5
-149 -13 -168 -92 -209 -33 -17 -75 -40 -93 -52 -22 -14 -60 -23 -108 -28 -68
-6 -83 -4 -169 26 -81 28 -98 38 -115 66 -23 40 -18 40 -230 5 l-165 -28 0
-67 0 -68 410 -176 c263 -113 427 -177 457 -180 45 -5 46 -6 36 -29 -15 -33 5
-76 60 -124 42 -37 45 -44 47 -93 2 -35 17 -89 49 -165 25 -63 46 -127 46
-143 0 -16 7 -41 16 -54 13 -20 14 -28 4 -40 -7 -8 -18 -15 -24 -15 -24 -1
-120 -71 -143 -106 -20 -29 -23 -38 -12 -45 8 -4 24 -6 36 -3 13 4 30 4 38 0
14 -5 13 -11 -4 -45 -18 -34 -18 -41 -6 -57 8 -11 15 -25 15 -31 0 -18 -233
-133 -270 -133 -30 0 -69 24 -285 174 -46 32 -91 56 -106 56 -23 0 -322 -98
-348 -115 -12 -7 -15 -64 -3 -81 14 -20 203 -174 215 -174 7 0 162 0 346 0
244 0 337 3 348 12 11 9 22 9 46 0 40 -14 328 -17 354 -4 27 15 55 48 78 94
16 32 36 48 100 83 94 51 126 85 104 111 -17 21 -146 84 -172 84 -9 0 -20 8
-23 18 -3 9 -14 36 -25 59 -15 31 -18 52 -13 79 5 30 3 40 -13 53 -12 10 -25
40 -33 76 -14 69 -29 101 -77 168 l-34 48 38 54 c39 55 55 65 108 65 42 0 188
74 219 111 32 38 33 57 3 100 -39 58 -103 182 -132 259 -15 40 -43 90 -61 110
-39 43 -40 47 -17 72 15 17 15 22 -2 76 -10 31 -28 98 -40 149 -19 79 -20 94
-8 106 12 12 11 19 -11 52 -33 47 -32 58 1 102 22 29 27 46 27 89 -1 29 -7 74
-14 99 -12 44 -12 47 14 74 32 33 33 41 2 41 -17 0 -31 13 -55 52 -31 49 -33
65 -16 110 3 8 -7 27 -22 42 -15 15 -33 42 -39 59 l-10 31 -16 -23z m-128
-1021 c-8 -5 -21 -10 -29 -10 -11 0 -10 5 4 20 13 15 22 17 29 10 8 -8 6 -14
-4 -20z m16 -152 c-20 -57 -21 -58 -83 -35 l-58 22 35 6 c19 3 49 14 65 23 46
25 55 21 41 -16z m186 -1065 c36 -32 15 -58 -52 -65 -45 -4 -52 22 -14 57 32
29 41 31 66 8z m-212 -332 c0 -4 -15 -22 -34 -40 -25 -24 -46 -35 -78 -38 -53
-6 -113 8 -113 28 0 8 37 33 84 56 l84 42 29 -20 c15 -11 28 -24 28 -28z"/>
<path d="M4013 2689 c39 -23 3 -91 -40 -75 -11 4 -13 2 -10 -9 4 -9 -19 -34
-69 -75 -59 -48 -79 -59 -98 -54 -36 9 -41 -13 -11 -57 22 -34 25 -45 17 -69
-7 -18 -7 -55 -1 -106 10 -80 24 -118 39 -109 5 3 11 1 15 -4 8 -14 -59 -25
-106 -17 -29 5 -41 3 -45 -8 -3 -8 -25 -17 -49 -21 -25 -3 -47 -10 -50 -16 -4
-5 -44 -9 -90 -9 l-85 0 -24 38 c-13 20 -34 47 -47 58 l-24 22 -53 -21 c-55
-21 -76 -42 -87 -87 -4 -20 -1 -27 22 -37 15 -7 45 -13 67 -13 39 0 44 -4 89
-65 46 -62 50 -65 91 -65 24 0 69 9 102 20 32 11 62 20 66 20 3 0 9 -19 12
-42 11 -73 28 -128 40 -128 6 0 3 -7 -6 -14 -17 -12 -17 -14 2 -31 23 -21 50
-13 50 15 0 38 18 20 34 -32 15 -52 15 -53 -8 -78 -13 -14 -53 -72 -89 -130
-36 -58 -82 -123 -101 -145 -47 -53 -96 -146 -96 -182 0 -38 44 -79 135 -126
39 -19 75 -36 80 -37 58 -12 77 -49 52 -103 -31 -65 -37 -90 -42 -170 -3 -45
-10 -94 -16 -109 -7 -17 -7 -32 -1 -45 7 -13 5 -28 -7 -52 -14 -31 -23 -36
-73 -46 -70 -14 -88 -28 -88 -71 0 -26 7 -38 33 -57 17 -14 42 -28 54 -31 36
-11 113 -57 113 -67 0 -11 10 -12 -106 12 -95 19 -101 20 -169 4 -97 -24 -128
-38 -144 -69 -18 -32 -13 -37 44 -44 40 -4 47 -2 51 15 6 22 33 38 103 59 83
26 237 -28 286 -99 25 -38 26 -57 1 -57 -8 0 -16 -8 -20 -17 -3 -10 -9 -24
-12 -30 -4 -10 49 -13 248 -13 139 0 259 4 266 9 8 4 12 14 11 22 -2 8 2 24 9
37 19 33 0 58 -66 90 -65 31 -78 59 -41 89 47 39 59 54 59 78 0 34 -30 62 -81
75 -50 14 -92 57 -108 112 -11 34 -10 43 3 57 9 10 16 32 16 50 0 17 10 51 23
74 19 36 22 57 22 152 l0 109 37 11 c57 16 72 44 58 108 -6 29 -24 86 -40 129
-16 42 -41 133 -55 202 -14 70 -31 139 -39 154 -15 30 -11 51 12 69 14 11 14
19 3 63 -19 75 -7 148 31 183 28 26 30 31 24 78 l-7 49 96 0 c74 0 95 3 95 14
0 29 -29 37 -134 39 -85 2 -109 5 -123 20 -11 10 -13 17 -5 17 7 0 12 -5 12
-12 0 -20 39 24 70 78 33 57 38 105 16 165 -11 33 -11 39 6 60 39 50 41 58 9
54 -23 -3 -33 2 -47 23 -10 15 -35 48 -57 74 -38 45 -39 49 -24 66 31 34 11
92 -31 92 -15 -1 -15 -2 1 -11z m225 -656 c-15 -2 -42 -2 -60 0 -18 2 -6 4 27
4 33 0 48 -2 33 -4z m-725 -13 c7 0 4 -5 -6 -11 -21 -12 -51 -4 -42 12 4 6 14
8 22 5 8 -3 20 -6 26 -6z m459 -1137 c14 -59 14 -78 3 -138 -7 -38 -17 -82
-23 -96 -6 -15 -8 -29 -5 -32 3 -3 -2 -16 -11 -29 -9 -13 -16 -43 -16 -71 l0
-48 -65 4 c-84 4 -106 22 -86 70 7 17 14 52 15 77 1 25 21 106 45 180 23 74
44 140 46 147 5 14 45 22 65 12 9 -4 23 -37 32 -76z"/>
</g>
</svg>
