<?xml version="1.0" standalone="no"?>
<!DOCTYPE svg PUBLIC "-//W3C//DTD SVG 20010904//EN"
 "http://www.w3.org/TR/2001/REC-SVG-20010904/DTD/svg10.dtd">
<svg version="1.0" xmlns="http://www.w3.org/2000/svg"
 width="480.000000pt" height="360.000000pt" viewBox="0 0 480.000000 360.000000"
 preserveAspectRatio="xMidYMid meet">
<metadata>
Created by potrace 1.16, written by Peter Selinger 2001-2019
</metadata>
<rect width="1" height="360" fill="#000000"/>
<rect x="479" width="1" height="360" fill="#000000"/>
<rect width="480" height="1" fill="#000000"/>
<rect y="359" width="480" height="1" fill="#000000"/>
<g transform="translate(0.000000,360.000000) scale(0.100000,-0.100000)"
fill="#000000" stroke="none">
<path d="M0 2450 c0 -632 2 -1150 4 -1150 11 0 99 51 134 77 43 32 63 45 114
73 21 11 62 40 92 65 31 25 58 45 61 45 4 0 41 30 84 68 42 37 100 87 128 110
59 50 248 242 344 349 58 64 68 71 102 72 25 1 50 -7 69 -20 16 -12 107 -67
201 -123 190 -111 220 -131 340 -225 164 -128 296 -197 362 -189 26 3 31 10
57 88 16 47 33 113 38 148 10 74 39 118 108 166 75 52 93 70 83 85 -7 10 -13
11 -30 2 -18 -10 -21 -9 -21 9 0 15 -7 20 -24 20 -13 0 -27 -6 -29 -12 -3 -7
-10 2 -17 20 -14 37 -30 41 -48 12 -19 -31 -31 -24 -25 15 3 19 2 35 -2 35 -4
0 -25 -19 -47 -42 -35 -38 -39 -40 -34 -18 15 75 17 108 7 114 -6 4 -11 20
-11 36 0 37 -9 60 -24 60 -6 0 -27 13 -46 30 -40 33 -50 36 -50 15 0 -22 -25
-18 -58 10 -17 14 -35 25 -41 25 -6 0 -11 6 -11 13 0 6 -4 18 -9 26 -8 12 -12
12 -25 2 -14 -12 -16 -9 -16 23 0 47 -15 46 -58 -5 -36 -41 -42 -43 -113 -23
-20 5 -72 81 -61 88 4 2 23 7 43 11 28 5 49 22 102 85 113 132 114 135 102
285 -6 68 -4 89 14 136 51 136 135 198 391 291 98 36 373 17 469 -31 27 -14
49 -18 79 -14 33 4 47 1 64 -13 71 -64 204 -296 232 -408 18 -71 9 -96 -44
-124 -25 -12 -45 -26 -45 -30 0 -17 62 -81 100 -103 49 -28 56 -38 45 -60 -12
-22 -67 -30 -81 -12 -13 14 -79 18 -79 4 0 -5 7 -14 15 -21 9 -7 13 -20 10
-27 -3 -8 2 -24 10 -36 22 -32 18 -39 -15 -32 -34 8 -36 5 -15 -35 15 -28 14
-30 -4 -30 -11 0 -23 5 -26 10 -3 6 -13 10 -21 10 -11 0 -10 -9 6 -52 25 -65
25 -68 0 -68 -11 0 -20 4 -20 8 0 4 -15 16 -32 26 -18 10 -27 13 -20 5 13 -14
17 -49 5 -49 -3 0 -15 7 -25 17 -27 24 -34 8 -15 -32 22 -47 22 -48 -12 -42
-31 7 -61 -16 -61 -46 0 -10 -6 -14 -14 -11 -13 5 -26 -22 -26 -58 0 -9 27
-38 60 -64 53 -41 62 -54 76 -103 9 -31 38 -89 65 -129 27 -41 47 -78 43 -83
-18 -29 182 11 248 50 32 19 36 20 93 5 41 -11 89 -15 150 -12 111 5 179 34
305 129 110 83 167 120 323 208 121 68 129 71 150 56 12 -8 36 -15 53 -15 26
0 50 -18 150 -114 112 -107 198 -178 289 -238 63 -41 124 -78 130 -78 3 0 5
425 5 945 l0 945 -2400 0 -2400 0 0 -1150z"/>
<path d="M4100 1984 c-30 -19 -56 -38 -58 -43 -2 -5 13 -19 32 -31 59 -36 106
-98 106 -139 0 -20 9 -106 20 -191 11 -85 20 -156 20 -157 0 -1 -15 7 -33 17
-19 11 -83 73 -143 138 -60 64 -121 128 -136 142 -22 19 -28 34 -29 70 -1 88
-8 91 -78 24 -34 -32 -67 -60 -72 -62 -20 -7 -7 -33 37 -74 71 -66 80 -93 87
-243 4 -71 10 -163 13 -204 7 -70 6 -73 -12 -63 -32 17 -60 48 -110 119 -27
38 -51 70 -55 73 -19 16 -130 176 -135 196 -6 22 0 74 12 117 6 17 1 18 -63
12 -94 -8 -113 -13 -113 -29 0 -8 11 -21 25 -30 13 -9 35 -35 49 -58 24 -41
25 -53 32 -270 3 -126 4 -228 1 -228 -3 0 -17 5 -30 11 -22 10 -77 88 -77 109
0 6 -4 10 -10 10 -5 0 -10 5 -10 10 0 6 -15 35 -34 64 -19 30 -55 90 -80 134
-42 75 -45 84 -39 134 3 29 12 64 20 76 8 13 12 26 10 29 -3 2 -41 -1 -86 -8
-82 -13 -97 -24 -65 -50 9 -7 29 -40 46 -72 l30 -60 -22 -181 c-12 -100 -26
-194 -31 -209 -6 -20 -4 -37 6 -56 20 -40 21 -179 2 -371 -24 -240 -24 -236
13 -315 51 -111 56 -186 16 -263 -35 -67 -103 -62 814 -62 l830 0 0 598 0 597
-108 108 c-103 103 -126 119 -134 97 -2 -6 -12 -3 -23 7 -11 10 -33 27 -50 37
-16 11 -79 68 -140 126 -60 59 -120 113 -132 119 -21 11 -23 19 -23 84 0 49 5
80 15 93 8 10 15 28 15 40 0 11 5 25 12 32 9 9 4 20 -22 47 -19 19 -39 35 -44
34 -6 -1 -36 -16 -66 -35z"/>
<path d="M986 1931 c-31 -37 -56 -71 -56 -75 0 -3 9 -15 21 -27 15 -15 20 -29
16 -49 -3 -15 -1 -32 6 -39 6 -6 13 -53 15 -104 5 -106 19 -78 -138 -262 -48
-55 -112 -135 -144 -177 -32 -43 -63 -75 -69 -71 -6 4 -8 74 -3 210 l6 204
-31 -18 c-53 -31 -58 -42 -47 -103 15 -81 10 -210 -9 -240 -29 -46 -377 -380
-386 -371 -9 9 6 133 42 341 10 58 17 107 15 109 -2 2 -17 -5 -35 -16 -19 -13
-27 -23 -20 -27 14 -9 14 -63 0 -71 -6 -4 -8 -22 -4 -44 7 -43 -20 -158 -44
-185 -9 -10 -40 -34 -68 -53 l-53 -35 0 -414 0 -414 775 0 c736 0 775 1 767
17 -12 24 3 144 23 182 8 17 35 54 58 83 24 29 65 83 93 120 33 44 96 102 185
173 74 59 139 109 145 112 18 7 37 141 33 235 -4 87 -13 115 -29 88 -7 -12
-83 -110 -166 -212 -17 -22 -30 -23 -37 -4 -4 11 65 388 98 533 3 13 26 46 51
74 34 38 44 58 42 77 -3 27 -4 27 -95 30 -87 3 -112 -5 -82 -24 14 -9 3 -168
-14 -200 -7 -12 -55 -69 -108 -126 -53 -56 -130 -143 -171 -193 -93 -112 -105
-123 -114 -101 -6 15 48 327 90 526 6 29 56 82 126 136 28 21 50 42 50 46 0 9
-113 123 -132 131 -7 4 -42 27 -77 52 -35 25 -69 45 -77 45 -17 0 -18 -22 -3
-37 8 -8 10 -41 7 -97 -5 -95 -4 -94 -132 -239 -32 -37 -96 -115 -140 -174
-45 -59 -86 -108 -92 -110 -6 -2 -14 3 -17 12 -5 12 21 349 39 501 4 35 15 52
67 102 34 33 73 70 87 80 14 11 23 22 20 25 -22 19 -207 137 -216 137 -7 0
-37 -31 -68 -69z"/>
<path d="M4510 1669 c0 -11 5 -17 10 -14 6 4 10 -6 10 -22 0 -25 1 -26 17 -11
15 16 15 19 -1 42 -20 31 -36 33 -36 5z"/>
<path d="M2905 1600 c3 -5 13 -10 21 -10 8 0 14 5 14 10 0 6 -9 10 -21 10 -11
0 -17 -4 -14 -10z"/>
<path d="M2715 1220 c-13 -21 -5 -137 13 -195 11 -33 38 -100 61 -149 22 -49
41 -104 41 -122 0 -19 5 -34 10 -34 6 0 10 -7 10 -17 0 -9 3 -14 6 -10 4 3 8
78 10 166 4 155 3 161 -19 188 -28 34 -87 122 -87 129 0 15 -39 53 -45 44z"/>
<path d="M1945 320 c-3 -5 -24 -15 -47 -22 -31 -9 -44 -20 -54 -44 -7 -17 -38
-58 -69 -90 l-57 -59 21 -37 c12 -20 21 -44 21 -52 0 -13 13 -16 68 -16 l68 0
17 78 c9 42 25 114 36 160 10 45 15 84 11 87 -5 3 -11 1 -15 -5z"/>
<path d="M1680 86 c-14 -18 -10 -58 8 -64 9 -3 12 7 11 37 -2 23 -4 41 -5 41
-1 0 -7 -7 -14 -14z"/>
</g>
</svg>
