<?xml version="1.0" standalone="no"?>
<!DOCTYPE svg PUBLIC "-//W3C//DTD SVG 20010904//EN"
 "http://www.w3.org/TR/2001/REC-SVG-20010904/DTD/svg10.dtd">
<svg version="1.0" xmlns="http://www.w3.org/2000/svg"
 width="480.000000pt" height="360.000000pt" viewBox="0 0 480.000000 360.000000"
 preserveAspectRatio="xMidYMid meet">
<metadata>
Created by potrace 1.16, written by Peter Selinger 2001-2019
</metadata>
<rect width="1" height="360" fill="#000000"/>
<rect x="479" width="1" height="360" fill="#000000"/>
<rect width="480" height="1" fill="#000000"/>
<rect y="359" width="480" height="1" fill="#000000"/>
<g transform="translate(0.000000,360.000000) scale(0.100000,-0.100000)"
fill="#000000" stroke="none">
<path d="M2420 3468 c-18 -37 -32 -54 -49 -58 -36 -8 -49 -35 -28 -58 22 -24
21 -33 -4 -92 -16 -36 -38 -62 -91 -103 -38 -31 -82 -59 -99 -62 -16 -4 -38
-20 -49 -35 -21 -29 -21 -29 -105 -25 l-85 5 -14 -29 c-9 -16 -18 -47 -22 -68
-5 -36 -2 -44 33 -85 21 -24 47 -66 57 -93 18 -45 18 -51 3 -94 -23 -65 -43
-162 -39 -188 2 -13 17 -35 33 -50 16 -15 29 -32 29 -36 0 -11 52 -79 57 -74
2 2 -1 16 -6 31 -6 14 -8 26 -6 26 15 0 37 -57 51 -130 17 -91 55 -193 84
-225 9 -11 23 -31 30 -44 16 -31 7 -36 -90 -51 l-78 -12 -23 -50 c-12 -27 -22
-65 -22 -85 1 -28 -6 -41 -32 -65 -36 -31 -75 -101 -75 -135 0 -11 -22 -49
-48 -84 -27 -35 -67 -92 -90 -126 -50 -73 -68 -92 -119 -119 -21 -11 -65 -35
-98 -53 -33 -19 -82 -46 -110 -61 -27 -15 -90 -42 -139 -61 -77 -30 -90 -38
-105 -69 -11 -24 -25 -36 -46 -40 -16 -4 -41 -13 -55 -21 -19 -10 -66 -14
-190 -14 -137 0 -170 -3 -197 -17 -35 -20 -73 -75 -73 -107 0 -11 -5 -21 -11
-21 -22 0 -49 22 -49 40 0 53 -26 75 -111 94 -24 5 -211 -5 -371 -20 l-68 -7
0 -297 0 -298 93 -35 c50 -20 164 -63 252 -97 88 -34 226 -86 306 -116 l145
-54 1640 2 1639 3 3 141 3 142 -30 24 c-23 20 -49 28 -118 37 -178 22 -241 16
-511 -50 -111 -26 -129 -28 -180 -19 -343 66 -336 65 -348 90 -7 14 -31 64
-53 112 -23 48 -64 113 -91 146 -28 33 -50 65 -50 71 0 5 19 15 43 21 92 25
137 111 137 263 0 84 -31 324 -44 346 -3 5 7 38 24 73 16 34 30 72 30 83 0 11
-13 57 -29 102 -32 93 -32 168 0 214 18 26 20 72 5 97 -3 6 -37 13 -74 17 -37
3 -86 11 -109 17 -38 9 -43 14 -43 39 0 33 14 38 29 12 10 -17 12 -17 25 0 16
21 26 22 26 2 0 -34 20 -12 21 23 1 20 5 48 9 62 7 21 8 18 9 -20 1 -40 3 -43
15 -27 18 23 30 22 23 -4 -6 -21 -5 -21 12 -2 10 10 24 37 31 58 l13 39 22
-28 22 -27 28 92 c23 77 27 101 21 158 -7 80 -56 253 -92 322 -29 57 -24 72
44 150 32 35 40 51 35 70 -10 39 -24 51 -55 45 -33 -6 -40 4 -40 55 1 47 -6
49 -33 9 -11 -16 -23 -30 -27 -30 -10 0 -48 66 -48 84 0 9 -10 20 -22 25 -27
11 -218 203 -218 220 0 33 76 -14 110 -68 38 -61 53 -54 80 36 28 95 20 116
-55 145 -27 11 -57 26 -66 34 -8 8 -27 14 -41 14 -23 0 -27 5 -34 47 -12 66
-33 66 -64 1z m-180 -1466 c0 -21 -2 -22 -15 -12 -8 7 -15 27 -15 44 1 29 1
30 15 12 8 -11 15 -31 15 -44z m-320 -874 c6 -24 27 -92 46 -151 20 -59 33
-114 30 -122 -4 -11 -21 -15 -56 -15 -48 0 -50 -1 -50 -29 0 -26 -3 -29 -46
-35 -84 -11 -217 -6 -301 11 -78 16 -85 16 -139 -1 -31 -10 -67 -28 -80 -41
-30 -30 -42 -74 -23 -86 10 -7 6 -8 -11 -4 -67 14 -226 45 -234 45 -14 0 28
42 62 62 29 17 29 17 40 -7 15 -33 22 -32 56 11 20 26 31 33 39 25 21 -21 53
-11 132 42 44 30 153 91 241 136 132 68 172 93 220 142 32 32 59 59 61 59 1 0
7 -19 13 -42z m-1048 -297 c42 -11 91 -27 108 -36 30 -15 31 -18 16 -34 -9
-10 -16 -23 -16 -29 0 -7 -6 -12 -12 -12 -36 0 -338 64 -338 72 0 15 32 21 40
8 7 -11 19 -5 52 23 24 20 50 34 58 32 8 -3 50 -13 92 -24z m598 -145 c0 -3
-5 -17 -10 -31 -8 -21 -16 -26 -38 -23 -34 4 -35 28 -2 45 25 13 50 17 50 9z
m104 -55 c-20 -23 -54 -28 -54 -8 0 17 53 48 63 38 5 -5 1 -18 -9 -30z m186
-47 c25 -15 34 -15 101 -2 72 15 74 15 91 -6 23 -27 23 -46 1 -46 -21 0 -221
38 -243 46 -13 4 -13 6 0 14 19 12 17 13 50 -6z m305 -63 c-3 -6 -14 -11 -23
-11 -15 1 -15 2 2 15 21 16 32 13 21 -4z"/>
<path d="M4603 2704 c-52 -32 -100 -102 -109 -161 -14 -93 29 -216 96 -277 45
-40 93 -53 159 -40 l46 9 3 236 2 236 -38 11 c-61 19 -112 14 -159 -14z"/>
<path d="M4764 2169 c-14 -29 -30 -57 -35 -63 -17 -20 -119 -171 -130 -193
-10 -18 -7 -30 12 -69 42 -84 99 -107 158 -65 l31 22 0 210 c0 115 -2 209 -5
209 -2 0 -16 -23 -31 -51z"/>
<path d="M4735 698 c-65 -132 -103 -187 -200 -288 -82 -85 -135 -157 -135
-182 0 -11 20 -51 44 -88 34 -51 56 -73 90 -89 24 -12 50 -29 56 -37 9 -10 37
-14 111 -14 l99 0 0 410 c0 226 -1 410 -3 410 -1 0 -29 -55 -62 -122z"/>
</g>
</svg>
