<?xml version="1.0" standalone="no"?>
<!DOCTYPE svg PUBLIC "-//W3C//DTD SVG 20010904//EN"
 "http://www.w3.org/TR/2001/REC-SVG-20010904/DTD/svg10.dtd">
<svg version="1.0" xmlns="http://www.w3.org/2000/svg"
 width="480.000000pt" height="360.000000pt" viewBox="0 0 480.000000 360.000000"
 preserveAspectRatio="xMidYMid meet">
<metadata>
Created by potrace 1.16, written by Peter Selinger 2001-2019
</metadata>
<rect width="1" height="360" fill="#000000"/>
<rect x="479" width="1" height="360" fill="#000000"/>
<rect width="480" height="1" fill="#000000"/>
<rect y="359" width="480" height="1" fill="#000000"/>
<g transform="translate(0.000000,360.000000) scale(0.100000,-0.100000)"
fill="#000000" stroke="none">
<path d="M3944 1075 c18 -27 21 -55 6 -55 -5 0 -10 -7 -10 -16 0 -9 -13 -39
-30 -66 -16 -26 -30 -52 -30 -57 0 -4 -9 -16 -19 -25 -11 -10 -17 -24 -14 -32
6 -16 -13 -19 -22 -4 -4 6 -11 8 -16 5 -17 -11 -9 -36 21 -62 27 -22 30 -31
31 -81 0 -73 49 -208 73 -204 9 2 16 -2 16 -8 0 -15 -42 -12 -67 5 -16 11 -23
12 -31 2 -14 -16 -9 -177 6 -204 7 -12 12 -30 12 -41 0 -33 32 -63 70 -65 37
-2 47 -19 49 -87 1 -19 10 -45 20 -57 18 -22 26 -23 170 -23 l151 0 0 109 c0
65 -5 124 -13 147 -12 35 -12 42 4 68 28 45 70 54 285 58 l194 3 0 76 0 76
-45 -8 c-49 -9 -263 -11 -335 -3 -82 9 -92 -36 91 432 28 72 38 107 31 114
-12 12 -19 -3 -92 -197 -121 -323 -124 -329 -161 -342 -19 -7 -45 -12 -57 -12
-22 -1 -23 2 -17 42 3 23 13 57 22 76 20 45 12 115 -17 146 -23 24 -23 25 -5
71 16 42 16 47 1 62 -12 13 -18 13 -28 4 -20 -20 -43 -14 -120 33 -63 39 -74
50 -81 82 -9 42 -23 63 -44 63 -13 0 -13 -3 1 -25z"/>
<path d="M2450 1076 c0 -4 -7 -5 -16 -2 -9 3 -12 2 -9 -5 4 -5 1 -16 -5 -24
-10 -12 -9 -15 5 -15 21 0 20 -2 -35 -83 -25 -37 -52 -67 -62 -67 -28 0 -31
-18 -8 -48 18 -22 21 -35 16 -77 -9 -84 -9 -180 0 -178 5 1 14 -9 21 -23 12
-26 16 -24 -64 -40 -16 -3 -23 -11 -23 -29 0 -34 45 -113 86 -152 29 -27 34
-39 34 -78 0 -25 -7 -59 -15 -75 -14 -27 -14 -30 6 -44 l21 -14 -26 -57 c-14
-32 -26 -59 -26 -61 0 -2 79 -4 176 -4 l175 0 -27 49 c-26 50 -27 50 -9 93 9
24 19 76 22 116 5 65 9 74 31 86 27 14 43 8 131 -51 19 -13 37 -23 42 -23 14
0 49 43 49 59 0 9 15 23 32 31 44 21 68 58 73 112 4 36 0 52 -16 72 -25 31
-48 33 -82 6 -41 -32 -82 -26 -126 19 -47 48 -76 59 -101 36 -10 -9 -25 -15
-32 -12 -7 2 -21 0 -31 -5 -12 -6 -23 -5 -33 3 -16 13 -19 34 -4 24 6 -4 10
11 10 38 0 27 6 49 14 56 24 20 29 66 11 101 -15 30 -15 33 4 65 22 37 15 50
-22 42 -29 -7 -160 109 -139 122 11 7 10 10 -3 15 -13 5 -15 9 -6 20 10 11 7
14 -14 12 -14 0 -25 -5 -25 -10z m440 -620 c0 0 4 -17 10 -36 8 -28 8 -32 -3
-20 -7 8 -18 27 -25 42 -9 23 -9 26 3 21 8 -3 15 -6 15 -7z"/>
<path d="M930 955 c-7 -8 -18 -15 -25 -15 -7 0 -12 -14 -13 -32 0 -18 -2 -40
-2 -48 -3 -20 -153 -131 -163 -120 -12 11 -44 1 -51 -15 -2 -7 5 -31 16 -54
19 -39 19 -42 2 -87 l-18 -47 37 -33 c23 -21 37 -43 37 -58 0 -23 44 -98 61
-104 17 -7 -2 -22 -28 -22 -28 0 -83 -35 -83 -53 0 -11 -32 -99 -53 -144 -11
-25 -41 -37 -136 -53 -35 -6 -71 -15 -80 -19 -28 -15 -65 -29 -101 -39 -27 -8
12 -10 161 -11 139 -1 198 2 207 11 9 9 12 9 12 0 0 -9 48 -12 184 -12 l184 0
7 32 c3 18 8 66 11 105 4 74 -9 112 -54 165 -16 19 -8 40 13 32 19 -8 55 66
55 114 0 21 -7 64 -15 95 -19 74 -20 70 11 107 15 17 25 32 23 34 -2 1 -21 10
-41 19 -53 25 -81 67 -72 111 5 30 1 41 -25 73 -17 21 -31 48 -31 60 0 26 -12
30 -30 8z"/>
<path d="M0 25 c0 -23 3 -25 50 -25 34 0 50 4 50 13 0 23 -23 37 -62 37 -34 0
-38 -3 -38 -25z"/>
</g>
</svg>
