<?xml version="1.0" standalone="no"?>
<!DOCTYPE svg PUBLIC "-//W3C//DTD SVG 20010904//EN"
 "http://www.w3.org/TR/2001/REC-SVG-20010904/DTD/svg10.dtd">
<svg version="1.0" xmlns="http://www.w3.org/2000/svg"
 width="480.000000pt" height="360.000000pt" viewBox="0 0 480.000000 360.000000"
 preserveAspectRatio="xMidYMid meet">
<metadata>
Created by potrace 1.16, written by Peter Selinger 2001-2019
</metadata>
<rect width="1" height="360" fill="#000000"/>
<rect x="479" width="1" height="360" fill="#000000"/>
<rect width="480" height="1" fill="#000000"/>
<rect y="359" width="480" height="1" fill="#000000"/>
<g transform="translate(0.000000,360.000000) scale(0.100000,-0.100000)"
fill="#000000" stroke="none">
<path d="M0 1800 l0 -1800 1110 0 1110 0 -1 73 c0 39 -5 97 -11 127 -5 30 -11
98 -12 150 -1 52 -5 158 -10 235 -5 89 -4 171 3 225 8 70 7 104 -7 188 -9 59
-21 101 -27 99 -5 -2 -45 -63 -88 -135 l-77 -131 15 -43 c19 -55 19 -98 1 -98
-18 0 -30 -33 -22 -58 4 -10 22 -24 41 -31 44 -16 44 -28 0 -47 -23 -9 -33
-19 -29 -28 14 -37 -145 28 -172 69 -10 15 -17 58 -20 117 -3 51 -12 110 -20
131 -16 43 -12 70 20 142 110 244 145 312 178 350 21 24 38 45 38 48 0 2 -21
-1 -47 -8 -27 -7 -68 -15 -93 -19 -41 -6 -36 -2 60 46 180 92 241 139 318 243
l37 49 2 246 c4 342 18 404 109 492 47 45 116 88 140 88 9 0 13 44 16 153 3
151 4 155 33 203 74 119 221 151 264 56 18 -39 5 -59 -57 -82 -96 -36 -107
-56 -118 -216 -10 -134 9 -136 75 -8 49 95 121 187 176 226 64 46 186 104 244
118 62 14 143 8 177 -15 37 -24 32 -66 -11 -104 -45 -39 -75 -54 -160 -81
-139 -44 -215 -99 -294 -213 -34 -50 -33 -58 9 -93 14 -12 44 -55 68 -96 62
-110 63 -181 2 -216 -42 -24 -49 -45 -11 -37 27 6 44 -6 180 -120 128 -108
151 -132 157 -161 8 -42 -16 -111 -49 -142 -36 -34 -189 -122 -232 -133 -65
-16 -93 -30 -100 -47 -4 -10 -6 -63 -5 -120 1 -93 -2 -107 -28 -165 -17 -34
-39 -94 -51 -134 l-22 -71 38 -61 c21 -34 70 -111 110 -171 39 -61 75 -121 79
-133 3 -12 17 -50 31 -84 l24 -62 -20 -46 -21 -46 21 -167 c11 -92 22 -186 25
-210 l5 -42 850 0 849 0 0 1800 0 1800 -2400 0 -2400 0 0 -1800z"/>
<path d="M2830 1916 c0 -8 7 -16 15 -20 13 -4 14 -2 5 14 -13 23 -20 26 -20 6z"/>
<path d="M2693 252 c-14 -2 -25 -12 -27 -25 -11 -49 -36 -203 -36 -214 0 -9
22 -13 75 -13 69 0 75 2 75 21 0 27 -49 222 -58 230 -4 3 -17 3 -29 1z"/>
<path d="M2260 90 c0 -14 -7 -38 -15 -54 -20 -37 -20 -36 16 -36 30 0 31 1 25
40 -3 23 -10 49 -15 58 -9 15 -10 13 -11 -8z"/>
</g>
</svg>
