<?xml version="1.0" standalone="no"?>
<!DOCTYPE svg PUBLIC "-//W3C//DTD SVG 20010904//EN"
 "http://www.w3.org/TR/2001/REC-SVG-20010904/DTD/svg10.dtd">
<svg version="1.0" xmlns="http://www.w3.org/2000/svg"
 width="480.000000pt" height="360.000000pt" viewBox="0 0 480.000000 360.000000"
 preserveAspectRatio="xMidYMid meet">
<metadata>
Created by potrace 1.16, written by Peter Selinger 2001-2019
</metadata>
<rect width="1" height="360" fill="#000000"/>
<rect x="479" width="1" height="360" fill="#000000"/>
<rect width="480" height="1" fill="#000000"/>
<rect y="359" width="480" height="1" fill="#000000"/>
<g transform="translate(0.000000,360.000000) scale(0.100000,-0.100000)"
fill="#000000" stroke="none">
<path d="M0 3512 c0 -55 4 -92 12 -100 9 -9 9 -15 0 -24 -9 -9 -12 -318 -12
-1329 l0 -1318 58 6 c31 3 93 12 137 20 44 7 112 19 150 25 84 13 97 22 93 62
-3 29 -6 31 -48 36 -54 6 -62 27 -31 87 38 75 71 261 57 317 -5 22 -10 24 -41
19 -49 -8 -56 17 -21 79 33 59 32 92 -5 96 -31 4 -65 37 -74 73 -5 21 -1 29
19 43 14 9 26 23 26 30 0 8 11 27 24 43 13 15 36 53 51 83 15 29 36 66 47 81
22 30 17 49 -13 49 -23 0 -23 1 -4 47 8 19 14 54 13 77 -2 49 9 105 24 124 20
24 66 42 107 42 39 0 91 -17 91 -30 0 -3 15 -24 34 -46 34 -40 34 -41 17 -67
-21 -33 -20 -121 2 -217 8 -36 18 -82 21 -102 6 -34 37 -81 101 -151 14 -15
25 -34 25 -42 0 -24 254 -128 580 -238 305 -102 286 -99 310 -43 12 28 26 46
36 46 14 0 16 -7 10 -49 l-6 -49 61 -21 c59 -20 63 -20 75 -3 7 9 14 20 14 23
0 5 -72 103 -164 224 -75 97 -90 135 -83 213 3 37 16 99 28 137 12 39 24 88
25 110 2 22 6 55 9 73 4 18 3 38 -3 45 -15 19 -3 87 26 140 26 48 143 164 231
229 34 24 39 33 31 48 -8 16 -3 21 36 36 45 17 46 19 40 52 -3 20 -10 40 -17
46 -8 8 -10 5 -4 -11 9 -33 0 -28 -25 12 -24 40 -35 38 -45 -5 -4 -17 -11 -28
-16 -24 -5 3 -9 0 -9 -5 0 -25 -29 -8 -35 20 -6 28 -8 29 -24 15 -23 -21 -31
-20 -31 5 0 11 -4 18 -9 15 -12 -8 -24 190 -16 250 9 60 57 198 97 279 36 74
82 122 175 185 95 64 163 79 249 57 64 -16 147 -61 191 -101 26 -24 43 -26 43
-5 0 5 43 88 95 183 52 96 95 176 95 180 0 3 -637 6 -1415 6 l-1415 0 0 -88z
m1261 -32 c22 -12 26 -50 5 -50 -14 0 -46 36 -46 52 0 11 18 10 41 -2z m-691
-146 c0 -17 -22 -14 -28 4 -2 7 3 12 12 12 9 0 16 -7 16 -16z m263 -491 c-7
-2 -21 -2 -30 0 -10 3 -4 5 12 5 17 0 24 -2 18 -5z"/>
<path d="M2890 3553 c0 -65 20 -135 63 -217 42 -82 39 -95 -30 -121 -72 -27
-73 -28 -74 -124 -2 -120 -12 -214 -24 -218 -6 -2 -17 9 -26 23 -16 26 -16 26
-21 -40 -4 -50 -13 -77 -33 -108 -24 -35 -27 -48 -22 -90 5 -38 3 -48 -8 -48
-8 0 -15 -8 -15 -17 -1 -23 -29 -73 -30 -53 0 8 -8 -1 -17 -20 l-17 -35 -6 55
-5 55 -22 -47 c-24 -53 -30 -57 -41 -27 l-8 20 -26 -20 c-17 -14 -28 -17 -30
-9 -3 7 -11 5 -26 -8 -25 -21 -28 -34 -7 -34 28 0 110 -32 123 -48 6 -9 12
-24 12 -35 0 -27 101 -135 180 -191 64 -45 91 -99 90 -178 0 -35 -1 -72 -2
-82 -2 -13 5 -21 22 -27 14 -4 95 -30 181 -58 86 -27 194 -57 240 -66 130 -24
157 -34 205 -71 25 -19 49 -34 54 -34 24 0 556 333 676 422 28 21 57 38 64 38
7 0 30 16 51 35 22 19 46 35 54 35 9 0 42 -13 74 -30 71 -36 77 -49 86 -205 4
-60 13 -145 21 -189 8 -43 14 -87 14 -97 0 -28 -22 -14 -48 31 -12 22 -27 40
-32 40 -6 0 -10 5 -10 12 0 6 -11 25 -23 42 -29 38 -73 146 -82 203 -8 50 -20
61 -34 35 -6 -11 -30 -29 -55 -41 -25 -11 -89 -49 -143 -84 -154 -100 -444
-281 -490 -307 -42 -23 -43 -25 -43 -75 0 -39 -6 -59 -24 -84 -14 -19 -28 -47
-31 -63 -5 -21 -17 -34 -41 -44 -47 -20 -71 -17 -89 9 -9 12 -27 37 -40 55
-33 47 -39 24 -9 -36 28 -56 29 -95 1 -100 -17 -4 -64 37 -84 73 -11 19 -12
19 -58 -4 -25 -13 -50 -33 -55 -46 -5 -13 -39 -39 -87 -66 -152 -83 -239 -130
-310 -167 -40 -20 -73 -41 -73 -47 0 -5 11 -39 24 -74 l23 -64 74 -22 c90 -28
138 -42 349 -100 260 -72 295 -81 465 -120 276 -64 319 -75 329 -85 15 -15 -2
-40 -41 -57 -88 -36 -346 10 -901 163 -112 31 -205 54 -208 52 -7 -8 46 -118
93 -190 23 -37 65 -112 93 -165 27 -54 56 -109 64 -123 8 -14 24 -44 35 -68
20 -40 20 -45 6 -73 -11 -19 -14 -41 -9 -64 l6 -35 824 0 824 0 0 1800 0 1800
-955 0 -955 0 0 -47z m851 -268 c0 -5 -9 -11 -21 -13 -20 -3 -27 8 -13 22 10
9 34 3 34 -9z m42 -792 c9 -9 -13 -34 -24 -27 -14 8 -11 34 4 34 8 0 17 -3 20
-7z m75 -101 c3 -9 -2 -13 -14 -10 -9 1 -19 9 -22 16 -3 9 2 13 14 10 9 -1 19
-9 22 -16z m-378 -167 c0 -16 -6 -25 -15 -25 -15 0 -21 31 -8 43 13 14 23 6
23 -18z m468 -572 c2 -8 -6 -13 -22 -13 -28 0 -43 15 -24 23 20 8 41 3 46 -10z
m-588 -1532 c0 -6 -11 -22 -23 -37 -30 -35 -45 -16 -16 20 21 26 39 34 39 17z"/>
<path d="M2147 2533 c-8 -32 -14 -59 -12 -62 10 -9 35 10 49 38 13 24 14 35 4
56 -6 14 -14 25 -18 25 -4 0 -14 -26 -23 -57z"/>
<path d="M1997 1768 c-8 -13 -28 -48 -44 -78 -28 -52 -30 -58 -17 -83 8 -15
18 -27 23 -27 12 0 71 168 71 203 0 15 -20 6 -33 -15z"/>
<path d="M2610 1739 c0 -30 10 -97 21 -149 34 -152 34 -145 8 -147 -12 -1 -26
-6 -32 -12 -14 -14 -25 -87 -16 -103 5 -7 9 -24 9 -38 0 -14 13 -40 29 -59
l28 -34 79 43 c100 55 331 187 364 208 14 9 31 15 38 14 6 -2 33 11 57 28 49
34 50 40 19 102 -17 32 -15 32 -184 58 -245 38 -278 47 -324 90 -23 21 -54 42
-69 45 -27 7 -27 7 -27 -46z m130 -333 c0 -8 -5 -18 -11 -22 -14 -8 -33 11
-25 25 10 16 36 13 36 -3z"/>
<path d="M457 1703 c-3 -5 -2 -15 2 -22 7 -10 10 -10 16 -1 4 6 3 16 -3 22 -5
5 -12 6 -15 1z"/>
<path d="M3319 1571 c13 -23 27 -26 51 -11 19 12 11 18 -29 26 -32 7 -33 6
-22 -15z"/>
<path d="M815 1481 c-6 -5 -26 -13 -45 -18 l-35 -9 2 -205 c1 -179 4 -211 22
-264 29 -82 28 -88 -11 -82 -18 3 -44 8 -58 12 -21 5 -27 1 -38 -24 -12 -28
-11 -32 14 -60 18 -21 37 -31 55 -31 32 0 44 -13 26 -28 -7 -6 -78 -25 -158
-42 -79 -17 -200 -44 -269 -60 -160 -39 -287 -61 -305 -54 -13 5 -15 -35 -15
-305 l0 -311 108 0 c105 0 110 1 232 49 235 93 260 105 260 120 0 8 -8 32 -17
53 -16 36 -20 38 -60 38 -48 0 -59 13 -49 55 9 37 81 69 118 54 34 -14 37 -44
7 -75 -21 -23 -19 -31 18 -83 1 -2 15 8 29 22 26 26 54 36 54 19 0 -4 -16 -23
-35 -42 -19 -18 -33 -35 -31 -37 4 -4 175 67 286 119 193 91 839 419 866 439
6 5 19 44 29 86 10 43 24 101 31 130 19 69 20 67 -28 80 -24 7 -51 15 -61 18
-13 6 -21 -1 -32 -30 -11 -25 -21 -35 -33 -33 -18 4 -19 21 -7 74 8 37 32 25
-230 114 -110 38 -261 92 -335 120 -74 29 -169 63 -210 77 -41 13 -80 29 -87
35 -16 13 -17 60 -1 76 7 7 10 12 7 12 -3 0 -9 -4 -14 -9z"/>
<path d="M536 881 c-25 -27 -18 -75 12 -79 16 -3 22 2 22 16 0 11 3 34 6 51 8
37 -12 43 -40 12z"/>
<path d="M1535 384 c-201 -104 -467 -225 -713 -325 l-134 -54 458 -3 c251 -1
459 -1 461 1 7 8 134 479 129 483 0 1 -91 -45 -201 -102z"/>
</g>
</svg>
