<?xml version="1.0" standalone="no"?>
<!DOCTYPE svg PUBLIC "-//W3C//DTD SVG 20010904//EN"
 "http://www.w3.org/TR/2001/REC-SVG-20010904/DTD/svg10.dtd">
<svg version="1.0" xmlns="http://www.w3.org/2000/svg"
 width="480.000000pt" height="360.000000pt" viewBox="0 0 480.000000 360.000000"
 preserveAspectRatio="xMidYMid meet">
<metadata>
Created by potrace 1.16, written by Peter Selinger 2001-2019
</metadata>
<rect width="1" height="360" fill="#000000"/>
<rect x="479" width="1" height="360" fill="#000000"/>
<rect width="480" height="1" fill="#000000"/>
<rect y="359" width="480" height="1" fill="#000000"/>
<g transform="translate(0.000000,360.000000) scale(0.100000,-0.100000)"
fill="#000000" stroke="none">
<path d="M0 1800 l0 -1800 200 0 200 0 0 1800 0 1800 -200 0 -200 0 0 -1800z"/>
<path d="M2164 3573 c3 -16 10 -66 17 -113 6 -47 22 -137 35 -200 14 -63 27
-156 31 -205 5 -87 -5 -159 -53 -374 -5 -22 -7 -23 -72 -16 -37 4 -94 16 -127
26 l-60 18 -22 -27 c-12 -15 -22 -30 -23 -34 0 -4 -24 -31 -52 -60 -87 -88
-121 -178 -45 -118 14 11 28 20 32 20 8 0 1 -96 -10 -127 -5 -16 -3 -23 5 -23
13 0 139 88 180 126 l26 24 94 -15 c98 -16 115 -26 127 -74 7 -26 -12 -44 -39
-35 -27 8 -23 -23 7 -62 25 -32 136 -94 169 -94 9 0 19 -7 22 -15 8 -21 -44
-95 -75 -107 -14 -5 -39 -15 -56 -23 -28 -12 -49 -18 -118 -32 -16 -3 -34 -14
-40 -24 -7 -12 -19 -16 -32 -13 -13 3 -28 -2 -39 -15 -11 -12 -30 -21 -43 -21
-27 0 -63 -35 -91 -88 -41 -80 -36 -130 16 -169 33 -24 114 -45 145 -38 13 4
42 -3 67 -14 25 -11 60 -21 79 -21 19 0 62 -5 97 -11 l62 -11 52 -85 c92 -151
163 -202 278 -203 37 0 75 6 92 15 39 20 72 80 105 190 21 70 35 97 62 122 28
27 32 34 18 39 -17 7 -79 0 -107 -11 -16 -6 -18 0 -18 57 0 37 5 71 13 79 6 9
55 32 107 52 111 44 299 144 314 169 8 13 6 22 -7 36 -9 10 -14 22 -10 25 3 4
1 7 -6 7 -7 0 -9 5 -6 10 3 6 -1 10 -9 10 -9 0 -16 7 -16 15 0 23 -35 31 -137
30 -51 0 -93 3 -93 7 0 4 -9 8 -19 10 -18 3 -17 9 17 103 40 108 47 116 203
256 41 37 82 81 92 99 l19 31 -49 -25 c-27 -13 -55 -32 -62 -40 -8 -9 -18 -16
-23 -16 -10 0 -6 8 72 135 24 39 52 97 62 130 22 74 24 202 4 231 -14 18 -15
18 -21 2 -12 -29 -28 -20 -23 12 3 21 1 27 -6 20 -13 -13 -29 -13 -21 -1 3 5
1 12 -5 16 -5 3 -10 1 -10 -6 0 -8 -4 -8 -15 1 -8 7 -15 21 -15 31 0 22 -1 23
-34 7 -22 -9 -29 -8 -46 7 -18 16 -20 16 -20 2 0 -10 -4 -17 -8 -17 -11 0
-149 -134 -196 -190 -28 -33 -36 -39 -31 -21 5 17 4 22 -5 16 -19 -11 -7 29
39 136 39 90 40 111 2 63 -20 -25 -21 -26 -21 -5 0 47 -29 16 -114 -121 -26
-43 -51 -78 -55 -78 -4 0 -4 21 0 48 11 66 11 104 0 97 -6 -3 -29 -55 -53
-115 -48 -126 -64 -127 -55 -3 6 83 13 97 106 222 72 97 84 119 150 276 l49
115 -380 0 -380 0 6 -27z"/>
<path d="M4400 1800 l0 -1800 200 0 200 0 0 1800 0 1800 -200 0 -200 0 0
-1800z"/>
</g>
</svg>
