<?xml version="1.0" standalone="no"?>
<!DOCTYPE svg PUBLIC "-//W3C//DTD SVG 20010904//EN"
 "http://www.w3.org/TR/2001/REC-SVG-20010904/DTD/svg10.dtd">
<svg version="1.0" xmlns="http://www.w3.org/2000/svg"
 width="480.000000pt" height="360.000000pt" viewBox="0 0 480.000000 360.000000"
 preserveAspectRatio="xMidYMid meet">
<metadata>
Created by potrace 1.16, written by Peter Selinger 2001-2019
</metadata>
<rect width="1" height="360" fill="#000000"/>
<rect x="479" width="1" height="360" fill="#000000"/>
<rect width="480" height="1" fill="#000000"/>
<rect y="359" width="480" height="1" fill="#000000"/>
<g transform="translate(0.000000,360.000000) scale(0.100000,-0.100000)"
fill="#000000" stroke="none">
<path d="M0 2938 l0 -663 27 -2 c17 -1 38 -13 53 -31 14 -16 36 -35 48 -41 19
-10 22 -18 17 -39 -4 -15 -13 -34 -20 -42 -22 -25 -20 -136 4 -222 12 -43 21
-81 20 -85 -5 -31 6 -58 36 -92 19 -21 35 -43 35 -49 0 -6 16 -23 35 -38 19
-14 35 -34 35 -44 0 -24 -60 -68 -106 -78 l-38 -8 3 -198 c2 -162 6 -212 23
-270 36 -130 37 -119 -13 -112 -90 13 -93 13 -103 -16 -7 -21 -5 -31 15 -56
13 -17 36 -33 52 -37 15 -4 27 -11 27 -16 0 -12 -108 -42 -131 -36 -18 5 -19
-5 -19 -379 l0 -384 1153 0 1152 0 112 122 c134 148 168 188 156 188 -28 -1
-348 -81 -357 -90 -7 -7 -7 -26 0 -60 6 -27 7 -50 3 -50 -9 0 -19 37 -19 73 0
35 -15 41 -80 29 -66 -12 -119 0 -147 33 -43 50 -34 59 81 84 192 41 193 41
156 88 -25 32 -25 55 -1 77 15 13 24 15 38 7 36 -21 42 -27 48 -53 6 -22 2
-29 -22 -43 -28 -16 -28 -16 27 -11 51 5 385 102 427 125 16 8 93 119 93 134
0 2 -21 12 -46 22 -41 16 -47 16 -63 1 -42 -38 -111 2 -97 57 5 21 -9 30 -198
121 -264 127 -265 127 -258 161 2 15 11 29 19 32 7 3 75 -26 151 -65 75 -38
179 -87 231 -108 l93 -38 20 27 c35 48 84 31 97 -35 6 -28 15 -35 65 -55 l58
-24 56 52 c87 78 114 152 67 183 -25 16 -25 17 -9 48 21 41 28 127 16 207 -8
59 -7 70 15 118 24 52 24 55 7 68 -11 8 -22 15 -26 15 -13 0 -58 87 -58 112 0
15 15 43 38 69 l39 43 -28 23 c-15 13 -32 23 -38 23 -14 0 -14 6 1 30 20 32
-1 55 -51 56 -32 1 -51 9 -74 31 -18 16 -59 37 -92 47 -47 14 -70 29 -106 67
-53 55 -66 60 -74 24 -3 -14 -7 -37 -11 -51 -6 -33 -21 -21 -26 21 l-3 30
-245 3 c-480 6 -1320 -21 -1528 -49 -46 -6 -86 -9 -89 -5 -11 10 18 35 71 61
129 63 513 91 1341 99 l450 4 5 32 c6 40 24 44 28 5 5 -53 11 -63 27 -41 8 10
20 16 28 13 8 -3 19 -1 25 5 8 8 15 8 25 -1 12 -9 16 -8 21 5 4 10 12 14 22
10 9 -4 22 -2 29 4 10 8 20 4 39 -17 14 -15 26 -31 26 -35 0 -22 30 -3 58 36
40 56 136 120 210 142 77 22 129 39 177 58 44 17 162 21 184 7 12 -8 13 -16 3
-48 -18 -63 -4 -99 48 -125 56 -28 60 -51 22 -104 -49 -67 -49 -78 -2 -124 25
-25 35 -40 25 -40 -19 0 -19 -4 1 -41 14 -28 14 -32 -2 -50 -17 -19 -16 -21
13 -52 43 -45 53 -69 53 -122 0 -50 -19 -96 -48 -117 -36 -26 -52 -62 -52
-114 0 -61 32 -311 57 -438 l17 -89 -23 -18 c-13 -11 -20 -19 -15 -19 11 0
281 99 469 171 142 55 150 57 168 41 25 -22 70 -123 59 -134 -4 -4 -59 -26
-122 -49 -140 -50 -526 -184 -558 -194 -16 -4 -21 -12 -18 -22 4 -9 11 -36 17
-62 7 -25 17 -51 23 -58 20 -21 413 -163 736 -265 74 -23 143 -51 154 -62 19
-19 19 -19 -4 -38 -60 -49 -308 9 -745 176 -38 15 -75 25 -82 24 -19 -5 40
-92 146 -217 l94 -111 463 0 464 0 0 1308 0 1307 -48 23 c-26 13 -54 21 -62
18 -55 -19 -452 -59 -590 -60 -168 0 -246 12 -321 49 -86 44 -158 149 -159
230 l0 40 30 -52 c55 -96 138 -142 258 -142 39 -1 72 1 72 3 0 3 -18 33 -39
68 -67 108 -73 220 -19 335 47 100 165 190 293 223 72 18 176 13 225 -12 42
-22 47 -28 68 -96 22 -66 32 -81 106 -155 45 -45 105 -102 134 -125 l52 -44 0
341 0 341 -2400 0 -2400 0 0 -662z m3435 -278 c-3 -5 -10 -10 -16 -10 -5 0 -9
5 -9 10 0 6 7 10 16 10 8 0 12 -4 9 -10z"/>
</g>
</svg>
