<?xml version="1.0" standalone="no"?>
<!DOCTYPE svg PUBLIC "-//W3C//DTD SVG 20010904//EN"
 "http://www.w3.org/TR/2001/REC-SVG-20010904/DTD/svg10.dtd">
<svg version="1.0" xmlns="http://www.w3.org/2000/svg"
 width="480.000000pt" height="360.000000pt" viewBox="0 0 480.000000 360.000000"
 preserveAspectRatio="xMidYMid meet">
<metadata>
Created by potrace 1.16, written by Peter Selinger 2001-2019
</metadata>
<rect width="1" height="360" fill="#000000"/>
<rect x="479" width="1" height="360" fill="#000000"/>
<rect width="480" height="1" fill="#000000"/>
<rect y="359" width="480" height="1" fill="#000000"/>
<g transform="translate(0.000000,360.000000) scale(0.100000,-0.100000)"
fill="#000000" stroke="none">
<path d="M0 2620 c0 -950 1 -980 18 -971 11 6 31 26 45 44 16 22 52 47 93 66
60 28 76 31 163 31 196 0 296 34 332 113 20 45 26 151 9 162 -5 3 -14 24 -20
46 -6 22 -27 57 -46 78 -18 21 -34 43 -34 48 0 9 -73 74 -119 106 -14 9 -42
22 -62 27 -20 6 -53 24 -74 40 -21 17 -50 30 -65 30 -15 0 -33 7 -40 15 -6 8
-50 26 -96 41 -46 14 -84 29 -84 34 0 4 26 20 57 35 l58 27 130 -41 c71 -23
188 -52 259 -66 111 -21 145 -33 240 -81 61 -31 155 -86 210 -122 81 -54 101
-64 116 -55 13 9 23 7 44 -6 15 -10 54 -26 87 -36 38 -12 58 -23 55 -31 -2 -7
-2 -15 2 -19 4 -3 7 -14 7 -22 0 -22 49 -35 71 -18 22 16 21 83 -2 128 -46 91
-68 117 -116 133 -43 14 -48 19 -48 45 0 21 -6 32 -22 39 -133 53 -203 87
-290 138 -76 45 -138 71 -238 103 -74 23 -164 54 -200 69 -36 16 -105 36 -155
46 -85 17 -93 21 -143 68 -30 28 -58 58 -62 66 -9 17 5 153 17 173 4 7 9 21
10 32 3 28 29 136 39 160 4 11 18 31 31 45 12 13 18 27 13 30 -6 4 -4 14 5 26
19 25 19 45 1 38 -14 -6 -14 17 2 56 11 30 8 60 -7 60 -11 0 -9 6 8 24 l22 24
-110 1 -111 1 0 -980z"/>
<path d="M2400 1800 l0 -1800 1009 0 1008 0 36 122 c20 68 39 137 42 153 l7
30 -32 -33 c-39 -40 -52 -32 -40 23 17 73 14 82 -22 77 l-33 -5 20 23 20 23
-42 -22 c-54 -27 -59 -26 -39 4 14 22 15 25 1 25 -9 0 -15 9 -15 25 0 14 -4
25 -9 25 -10 0 4 72 20 101 14 27 0 24 -57 -13 -102 -65 -233 -120 -299 -126
-35 -2 -75 -2 -89 2 -53 13 -116 87 -230 269 -10 17 -14 36 -11 49 10 31 144
159 260 249 85 65 103 84 96 97 -13 27 -1 92 17 92 9 0 26 10 40 23 22 21 24
21 36 4 7 -9 19 -17 27 -17 27 0 55 -97 36 -127 -4 -6 10 -50 30 -98 28 -65
40 -85 52 -81 48 15 91 35 136 61 27 17 67 37 89 46 31 13 43 25 57 60 10 24
18 57 18 72 1 30 -35 87 -55 87 -19 0 -75 85 -81 124 -7 46 26 116 70 150 39
30 125 66 158 66 38 0 79 29 86 60 7 38 27 54 58 46 l25 -6 0 970 0 970 -1200
0 -1200 0 0 -1800z"/>
</g>
</svg>
