<?xml version="1.0" standalone="no"?>
<!DOCTYPE svg PUBLIC "-//W3C//DTD SVG 20010904//EN"
 "http://www.w3.org/TR/2001/REC-SVG-20010904/DTD/svg10.dtd">
<svg version="1.0" xmlns="http://www.w3.org/2000/svg"
 width="480.000000pt" height="360.000000pt" viewBox="0 0 480.000000 360.000000"
 preserveAspectRatio="xMidYMid meet">
<metadata>
Created by potrace 1.16, written by Peter Selinger 2001-2019
</metadata>
<rect width="1" height="360" fill="#000000"/>
<rect x="479" width="1" height="360" fill="#000000"/>
<rect width="480" height="1" fill="#000000"/>
<rect y="359" width="480" height="1" fill="#000000"/>
<g transform="translate(0.000000,360.000000) scale(0.100000,-0.100000)"
fill="#000000" stroke="none">
<path d="M0 1800 l0 -1800 407 0 c224 0 403 4 397 8 -5 5 -38 16 -74 26 -87
23 -138 55 -200 123 -66 74 -124 192 -156 318 -24 93 -25 111 -19 250 3 83 8
177 11 211 7 77 -12 150 -82 317 -99 235 -136 360 -165 552 -18 114 -18 552
-1 685 31 242 101 508 195 746 l44 111 -28 34 c-53 63 -31 115 48 113 84 -2
495 -171 567 -234 43 -38 94 -58 636 -247 371 -130 391 -135 417 -122 19 11
43 55 43 81 0 6 -26 8 -62 4 -37 -3 -55 -2 -43 2 18 8 17 9 -6 15 -14 4 -40 2
-57 -3 -20 -5 -32 -5 -32 1 0 5 4 9 8 9 4 0 8 12 7 28 0 18 15 48 46 87 25 33
81 111 123 173 89 128 165 216 209 239 17 8 48 28 70 44 l40 29 -1171 0 -1172
0 0 -1800z"/>
<path d="M2450 3585 c14 -8 31 -14 39 -15 8 0 22 -6 30 -14 9 -8 49 -25 89
-40 148 -53 211 -100 254 -192 28 -61 68 -220 68 -276 0 -29 -15 -38 -23 -15
-2 6 -12 -7 -22 -30 -9 -24 -24 -43 -31 -43 -8 0 -17 -7 -20 -15 -4 -8 -10
-12 -15 -9 -6 3 -21 -1 -34 -10 -27 -18 -49 -21 -40 -7 3 5 0 13 -6 16 -11 7
-7 -43 7 -78 3 -10 1 -17 -5 -17 -9 0 -52 -36 -113 -92 -10 -10 -18 -22 -18
-27 0 -14 120 -67 203 -90 39 -11 213 -56 386 -100 249 -63 317 -78 331 -69
14 9 24 8 45 -6 26 -17 27 -17 42 3 17 25 48 28 57 5 4 -11 13 -14 30 -10 15
4 28 0 36 -9 6 -7 18 -11 25 -8 9 3 19 -5 26 -21 12 -26 29 -35 29 -16 0 19
31 10 53 -15 19 -21 55 -31 287 -79 298 -61 589 -116 620 -116 20 0 20 4 20
705 l0 705 -1187 0 c-1035 -1 -1185 -3 -1163 -15z"/>
<path d="M786 3047 c-149 -321 -203 -502 -241 -810 -45 -364 -31 -496 102
-942 70 -234 70 -251 7 -389 -87 -192 -89 -197 -88 -341 0 -236 60 -369 205
-461 22 -13 39 -29 39 -34 0 -21 70 -10 112 19 24 16 75 45 113 66 39 20 81
43 95 50 14 7 40 20 59 28 21 9 29 17 21 22 -7 4 -23 2 -36 -5 -20 -11 -27
-11 -44 5 -11 10 -20 24 -20 32 0 8 -4 12 -9 9 -5 -4 -14 15 -19 41 -13 61 9
107 70 148 24 17 67 47 97 69 30 21 89 57 130 79 129 67 203 123 378 285 254
235 317 304 445 489 111 161 111 156 -34 270 -133 104 -148 126 -148 213 0 71
24 134 92 240 32 50 35 60 30 112 -4 48 -1 63 19 95 20 31 24 52 24 113 1 41
4 95 9 120 7 44 7 45 -11 24 -20 -24 -53 -38 -53 -24 0 17 -18 11 -24 -7 -3
-10 -17 -23 -31 -30 -24 -11 -25 -9 -27 20 -1 18 -1 43 0 56 1 23 1 23 -20 5
-20 -17 -21 -17 -15 -1 4 9 2 17 -4 17 -7 0 -9 11 -5 28 l7 27 -22 -25 -21
-25 6 27 c4 17 1 28 -7 31 -9 3 -8 8 3 22 14 17 13 18 -3 12 -11 -4 -31 -10
-45 -14 -26 -6 -27 -5 -9 14 35 40 25 48 -149 107 -141 49 -334 118 -734 265
-41 16 -104 30 -138 34 l-64 5 -42 -91z"/>
<path d="M2809 2493 c-2 -32 1 -43 26 -79 13 -19 27 -56 31 -82 6 -43 88 -209
117 -239 9 -9 30 -6 87 12 41 13 136 37 210 55 74 17 159 38 188 46 l52 15 0
42 c0 23 -4 47 -8 53 -4 7 -47 22 -97 34 -93 24 -557 146 -587 156 -13 4 -18
0 -19 -13z"/>
<path d="M3805 2183 c-47 -66 -120 -127 -190 -158 -73 -33 -459 -164 -532
-181 -76 -18 -140 -6 -208 37 -59 37 -78 28 -52 -26 14 -30 16 -54 11 -149 -7
-111 -7 -113 18 -132 44 -35 61 -70 54 -114 -8 -52 28 -125 119 -239 36 -46
84 -114 106 -151 42 -72 56 -128 29 -121 -64 16 -62 23 -25 -90 50 -155 71
-240 115 -459 43 -218 43 -265 2 -332 -35 -56 -30 -68 25 -68 26 0 76 7 112
15 36 8 86 19 111 25 399 83 693 147 810 175 80 20 223 55 318 78 l172 41 -2
820 -3 819 -195 59 c-193 58 -667 190 -725 201 -28 6 -33 2 -70 -50z"/>
<path d="M2232 1931 c-21 -28 -21 -29 -2 -46 24 -21 40 -12 40 23 0 47 -14 55
-38 23z"/>
</g>
</svg>
