<?xml version="1.0" standalone="no"?>
<!DOCTYPE svg PUBLIC "-//W3C//DTD SVG 20010904//EN"
 "http://www.w3.org/TR/2001/REC-SVG-20010904/DTD/svg10.dtd">
<svg version="1.0" xmlns="http://www.w3.org/2000/svg"
 width="480.000000pt" height="360.000000pt" viewBox="0 0 480.000000 360.000000"
 preserveAspectRatio="xMidYMid meet">
<metadata>
Created by potrace 1.16, written by Peter Selinger 2001-2019
</metadata>
<rect width="1" height="360" fill="#000000"/>
<rect x="479" width="1" height="360" fill="#000000"/>
<rect width="480" height="1" fill="#000000"/>
<rect y="359" width="480" height="1" fill="#000000"/>
<g transform="translate(0.000000,360.000000) scale(0.100000,-0.100000)"
fill="#000000" stroke="none">
<path d="M0 2409 c0 -1131 1 -1191 18 -1184 60 27 191 70 289 96 63 17 151 48
196 70 117 56 261 97 587 168 295 65 407 95 426 115 6 6 16 61 22 122 24 237
61 380 147 559 30 63 55 122 55 130 0 30 61 181 99 244 130 217 379 395 687
490 144 44 270 63 388 59 95 -3 109 -7 241 -60 152 -61 250 -112 348 -180 84
-59 166 -122 166 -128 1 -3 -19 -4 -43 -2 l-44 4 25 -53 c44 -91 61 -348 22
-324 -5 4 -12 0 -15 -9 -3 -8 -12 -12 -20 -9 -10 4 -14 -3 -14 -26 0 -22 -5
-31 -16 -31 -11 0 -14 -5 -10 -16 3 -9 6 -24 6 -34 0 -11 13 -34 28 -52 41
-47 43 -61 20 -108 -20 -40 -20 -44 -4 -100 15 -55 15 -62 0 -94 -12 -25 -15
-44 -9 -72 5 -22 7 -43 4 -49 -2 -5 -4 -49 -4 -97 0 -64 -4 -91 -15 -102 -8
-9 -60 -27 -114 -40 -54 -13 -103 -29 -109 -35 -7 -7 6 -45 40 -123 66 -147
68 -154 47 -162 -12 -5 -29 4 -53 28 -20 19 -48 38 -63 41 -26 7 -28 5 -28
-21 0 -52 25 -115 51 -130 33 -19 301 -119 371 -138 32 -9 104 -23 160 -32 77
-11 110 -21 134 -39 77 -59 81 -76 24 -99 -29 -11 -39 -20 -33 -29 4 -7 38
-56 74 -108 36 -51 117 -179 179 -284 62 -104 149 -248 193 -320 44 -72 85
-139 91 -150 6 -11 23 -37 36 -57 l25 -38 98 0 97 0 0 1800 0 1800 -2400 0
-2400 0 0 -1191z"/>
<path d="M1335 1400 c-117 -36 -385 -100 -605 -145 -96 -19 -200 -41 -230 -49
-87 -22 -280 -108 -394 -177 l-106 -62 0 -134 c0 -123 1 -133 19 -133 10 0 38
-3 63 -6 l45 -6 104 89 c230 197 369 288 549 357 372 145 653 266 666 287 8
14 -13 10 -111 -21z"/>
<path d="M1478 1225 c-14 -14 -311 -119 -393 -139 -144 -35 -292 -86 -340
-117 -28 -18 -75 -48 -105 -68 -59 -38 -296 -226 -307 -244 -8 -13 50 26 93
63 57 49 264 151 407 201 229 81 295 108 518 219 147 72 175 90 148 90 -9 0
-18 -2 -21 -5z"/>
<path d="M1465 1128 c-38 -22 -320 -139 -395 -164 -110 -36 -406 -184 -423
-211 -4 -7 -14 -13 -21 -13 -7 0 -27 -7 -44 -15 -17 -9 -50 -19 -74 -23 l-43
-8 35 -12 c32 -12 33 -14 18 -26 -10 -7 -18 -16 -18 -20 0 -3 107 -6 238 -6
223 0 246 2 382 29 80 17 157 31 171 33 37 5 52 20 113 112 91 139 106 175
106 261 0 79 -5 86 -45 63z"/>
<path d="M66 355 c-24 -31 -25 -35 -9 -35 10 0 32 -7 48 -16 21 -12 76 -19
180 -26 83 -5 182 -13 220 -17 l70 -8 -75 -2 c-110 -3 -62 -16 115 -31 134
-12 158 -11 223 4 41 9 79 21 85 27 7 5 21 17 32 25 18 14 8 15 -115 10 -108
-4 -150 -1 -215 14 -110 25 -484 90 -517 90 -9 0 -28 -16 -42 -35z"/>
<path d="M0 20 c0 -18 6 -20 83 -19 l82 1 -70 19 c-88 23 -95 23 -95 -1z"/>
</g>
</svg>
