<?xml version="1.0" standalone="no"?>
<!DOCTYPE svg PUBLIC "-//W3C//DTD SVG 20010904//EN"
 "http://www.w3.org/TR/2001/REC-SVG-20010904/DTD/svg10.dtd">
<svg version="1.0" xmlns="http://www.w3.org/2000/svg"
 width="480.000000pt" height="360.000000pt" viewBox="0 0 480.000000 360.000000"
 preserveAspectRatio="xMidYMid meet">
<metadata>
Created by potrace 1.16, written by Peter Selinger 2001-2019
</metadata>
<rect width="1" height="360" fill="#000000"/>
<rect x="479" width="1" height="360" fill="#000000"/>
<rect width="480" height="1" fill="#000000"/>
<rect y="359" width="480" height="1" fill="#000000"/>
<g transform="translate(0.000000,360.000000) scale(0.100000,-0.100000)"
fill="#000000" stroke="none">
<path d="M928 3519 c21 -63 34 -86 57 -102 16 -11 44 -32 60 -47 17 -15 47
-33 67 -39 70 -23 111 -70 156 -180 12 -29 22 -62 22 -72 0 -23 22 -35 80 -44
70 -11 281 -84 323 -111 84 -55 94 -75 55 -110 -54 -48 -96 -64 -295 -111 -35
-8 -63 -19 -63 -24 0 -5 16 -42 36 -81 25 -51 32 -73 24 -78 -9 -6 -9 -13 0
-30 16 -29 6 -36 -22 -16 -13 9 -33 23 -46 33 l-23 16 2 -94 c1 -59 -5 -121
-16 -166 -16 -72 -27 -88 -39 -58 -3 8 -9 15 -13 15 -11 0 -49 -69 -57 -102
-9 -40 -26 -34 -26 10 l-1 37 -24 -45 c-13 -25 -24 -52 -25 -61 0 -9 -17 -35
-39 -58 -35 -38 -39 -40 -44 -21 -3 12 1 37 9 55 17 42 17 45 2 45 -18 0 -38
-48 -38 -89 0 -52 24 -146 45 -178 10 -15 38 -45 62 -66 34 -31 43 -45 43 -72
0 -43 -22 -68 -95 -105 -68 -36 -75 -43 -75 -86 0 -47 -69 -100 -116 -88 -36
8 -46 -9 -29 -51 19 -44 8 -84 -30 -109 -13 -9 -33 -42 -47 -77 -13 -35 -40
-80 -60 -102 l-38 -40 -87 7 c-49 3 -119 13 -157 21 -38 8 -72 12 -77 9 -12
-7 2 -132 22 -188 13 -37 30 -61 70 -93 30 -25 120 -109 200 -189 81 -79 162
-150 181 -158 48 -20 129 -96 171 -159 19 -28 56 -68 82 -87 45 -33 142 -140
152 -167 4 -10 236 -13 1157 -13 l1151 0 80 78 c44 42 96 97 116 122 68 84
119 210 85 210 -29 0 -56 41 -56 84 1 80 65 174 169 246 31 21 88 70 127 107
65 62 71 71 66 101 -3 22 -13 37 -31 46 -35 19 -62 51 -92 110 -24 49 -41 68
-123 144 -34 30 -51 56 -61 90 -12 40 -21 51 -62 72 -25 14 -55 37 -66 51 -18
24 -18 28 -3 55 8 16 35 51 60 78 24 27 54 71 66 97 l23 47 -20 79 c-16 66
-23 78 -39 76 -13 -1 -32 15 -59 53 -22 29 -41 54 -43 54 -3 0 -2 -14 2 -31 9
-45 -9 -32 -41 30 -29 56 -61 83 -50 42 9 -35 -10 -33 -31 2 -19 33 -62 148
-62 166 0 6 -5 22 -10 37 l-11 28 -30 -37 c-17 -20 -35 -37 -40 -37 -6 0 -8
24 -5 60 5 47 3 60 -8 60 -7 0 -19 6 -25 14 -9 11 -21 12 -53 4 -68 -15 -126
18 -189 110 -17 23 -36 42 -44 42 -7 0 -36 -12 -63 -26 -62 -32 -89 -26 -98
21 -7 38 1 69 27 107 12 16 19 43 19 73 0 38 5 51 28 71 120 107 152 139 143
142 -11 4 -145 -66 -224 -115 -22 -14 -45 -22 -53 -19 -23 9 -16 62 15 114 16
27 44 76 62 108 68 124 280 432 335 487 58 60 87 77 128 77 23 0 46 -33 64
-94 11 -39 28 -43 37 -9 3 15 24 59 46 96 21 38 39 71 39 73 0 2 -612 4 -1359
4 l-1359 0 26 -81z"/>
<path d="M3363 3416 c-29 -36 -273 -430 -273 -441 0 -4 8 -4 18 0 9 5 58 23
107 40 l90 32 16 50 c24 73 48 122 86 176 29 42 33 54 28 89 -8 52 -22 88 -34
88 -5 0 -22 -15 -38 -34z"/>
<path d="M3375 2909 c-4 -6 -5 -13 -2 -16 7 -7 27 6 27 18 0 12 -17 12 -25 -2z"/>
<path d="M1111 2144 c0 -11 3 -14 6 -6 3 7 2 16 -1 19 -3 4 -6 -2 -5 -13z"/>
<path d="M3939 637 c-24 -19 -51 -65 -44 -77 11 -18 21 -11 44 30 25 44 25 65
0 47z"/>
<path d="M710 418 c0 -13 6 -18 17 -16 24 5 27 25 3 31 -15 4 -20 0 -20 -15z"/>
</g>
</svg>
