<?xml version="1.0" standalone="no"?>
<!DOCTYPE svg PUBLIC "-//W3C//DTD SVG 20010904//EN"
 "http://www.w3.org/TR/2001/REC-SVG-20010904/DTD/svg10.dtd">
<svg version="1.0" xmlns="http://www.w3.org/2000/svg"
 width="480.000000pt" height="360.000000pt" viewBox="0 0 480.000000 360.000000"
 preserveAspectRatio="xMidYMid meet">
<metadata>
Created by potrace 1.16, written by Peter Selinger 2001-2019
</metadata>
<rect width="1" height="360" fill="#000000"/>
<rect x="479" width="1" height="360" fill="#000000"/>
<rect width="480" height="1" fill="#000000"/>
<rect y="359" width="480" height="1" fill="#000000"/>
<g transform="translate(0.000000,360.000000) scale(0.100000,-0.100000)"
fill="#000000" stroke="none">
<path d="M1290 3282 c0 -4 12 -15 28 -24 15 -9 35 -25 44 -35 16 -17 12 -18
-115 -18 -105 0 -138 -4 -163 -17 -42 -23 -91 -80 -98 -115 -6 -28 -7 -28 -84
-28 -45 0 -87 -6 -100 -13 l-23 -13 24 -32 c21 -27 31 -32 66 -31 23 0 41 -2
41 -6 0 -3 -13 -19 -30 -35 -16 -15 -26 -33 -23 -38 3 -6 6 -25 5 -42 -1 -26
6 -38 41 -66 23 -18 53 -34 67 -35 22 0 26 -7 34 -48 7 -32 6 -83 -1 -148 -10
-90 -15 -104 -41 -132 -53 -56 -60 -80 -67 -232 -8 -172 -32 -249 -135 -433
-50 -91 -100 -177 -111 -192 -25 -36 -24 -61 5 -96 13 -16 29 -48 36 -73 16
-60 67 -110 112 -110 34 0 75 29 61 43 -3 4 11 7 33 7 21 0 44 4 51 8 10 7 47
154 79 321 13 65 38 68 29 5 -7 -52 -62 -326 -95 -482 -59 -270 -153 -844
-175 -1067 -3 -33 -8 -70 -11 -82 -4 -23 -3 -23 101 -23 105 0 105 0 105 24 0
14 4 28 10 31 6 4 10 -7 10 -26 l0 -32 104 5 c67 3 111 10 121 18 14 11 18 11
25 0 6 -10 31 -12 114 -6 71 4 106 3 106 -4 0 -6 66 -10 189 -10 l190 0 -10
33 c-17 56 -124 1007 -144 1277 -6 84 -26 229 -65 484 -11 72 -18 131 -16 134
2 2 23 -9 46 -24 22 -15 54 -27 71 -27 38 0 82 41 99 93 12 37 11 41 -22 92
-67 101 -67 88 3 194 36 55 58 98 53 103 -5 5 -69 50 -141 100 l-133 92 -1 82
c-2 103 -2 104 18 150 12 29 14 40 5 49 -18 18 -15 24 19 38 25 11 29 17 25
36 -4 16 -1 26 11 33 16 9 16 11 -2 31 -11 12 -32 28 -47 36 -15 8 -35 29 -44
47 -9 17 -37 55 -63 84 -25 29 -59 69 -76 89 -16 20 -44 43 -62 50 -35 15 -83
19 -83 6z m-495 -1942 c3 -5 2 -10 -4 -10 -5 0 -13 5 -16 10 -3 6 -2 10 4 10
5 0 13 -4 16 -10z"/>
</g>
</svg>
