<?xml version="1.0" standalone="no"?>
<!DOCTYPE svg PUBLIC "-//W3C//DTD SVG 20010904//EN"
 "http://www.w3.org/TR/2001/REC-SVG-20010904/DTD/svg10.dtd">
<svg version="1.0" xmlns="http://www.w3.org/2000/svg"
 width="480.000000pt" height="360.000000pt" viewBox="0 0 480.000000 360.000000"
 preserveAspectRatio="xMidYMid meet">
<metadata>
Created by potrace 1.16, written by Peter Selinger 2001-2019
</metadata>
<rect width="1" height="360" fill="#000000"/>
<rect x="479" width="1" height="360" fill="#000000"/>
<rect width="480" height="1" fill="#000000"/>
<rect y="359" width="480" height="1" fill="#000000"/>
<g transform="translate(0.000000,360.000000) scale(0.100000,-0.100000)"
fill="#000000" stroke="none">
<path d="M0 3479 l0 -121 32 5 c18 4 96 11 173 18 77 6 144 15 149 19 4 4 3
31 -3 60 -6 28 -11 71 -11 95 l0 45 -170 0 -170 0 0 -121z"/>
<path d="M521 3483 c102 -100 129 -121 179 -139 81 -29 177 -93 243 -163 72
-76 159 -209 188 -291 13 -36 41 -86 63 -112 33 -38 52 -51 105 -68 119 -37
176 -42 244 -20 l61 20 23 -22 c13 -12 33 -23 45 -23 33 0 32 -20 -1 -48 -17
-14 -47 -59 -67 -101 -34 -72 -44 -82 -81 -77 -24 3 -44 -56 -37 -109 7 -56
-14 -272 -26 -265 -4 3 -11 -3 -14 -12 -5 -13 -9 -14 -15 -5 -5 8 -13 -2 -25
-27 -9 -22 -30 -54 -46 -71 -16 -17 -31 -41 -33 -53 -3 -17 -5 -15 -6 7 -1 23
-4 27 -13 18 -22 -22 -27 -13 -13 21 8 20 10 39 5 47 -11 18 -14 15 -29 -37
-9 -35 -9 -53 3 -100 8 -32 20 -100 26 -152 12 -99 32 -156 82 -234 17 -26 28
-50 25 -53 -3 -3 -37 25 -76 61 -56 53 -72 64 -77 51 -3 -9 -3 -28 0 -42 4
-16 3 -23 -3 -20 -20 13 -28 -26 -15 -72 19 -62 17 -71 -10 -41 l-22 26 -33
-64 c-39 -74 -69 -101 -123 -109 -21 -4 -38 -11 -38 -17 0 -7 -4 -7 -12 1 -16
16 -128 16 -128 0 0 -6 -10 -22 -21 -34 -15 -16 -20 -30 -15 -48 7 -28 1 -27
200 -51 72 -9 191 -31 265 -50 75 -19 149 -35 166 -37 23 -2 35 -12 52 -43 32
-56 30 -84 -6 -98 l-30 -11 20 -27 c31 -44 74 -136 129 -278 48 -121 54 -132
74 -127 55 16 202 46 227 46 15 0 35 7 43 16 12 12 50 18 149 25 72 5 157 11
187 15 31 3 98 -1 153 -9 68 -10 106 -12 125 -5 21 7 56 2 159 -25 72 -19 142
-33 155 -30 13 2 75 -17 148 -46 69 -28 136 -51 149 -51 13 0 82 -31 152 -70
71 -38 135 -70 143 -70 8 0 68 -40 133 -90 l120 -90 526 0 527 0 0 1800 0
1800 -2199 0 -2199 0 119 -117z m1893 -1116 c41 -54 74 -136 91 -230 9 -49 15
-91 12 -93 -6 -7 -140 164 -162 206 -19 36 -26 121 -13 153 10 23 37 10 72
-36z m-24 -358 c0 -34 -66 -89 -109 -89 -16 0 -21 6 -21 25 0 19 10 30 48 49
50 27 82 33 82 15z"/>
</g>
</svg>
