<?xml version="1.0" standalone="no"?>
<!DOCTYPE svg PUBLIC "-//W3C//DTD SVG 20010904//EN"
 "http://www.w3.org/TR/2001/REC-SVG-20010904/DTD/svg10.dtd">
<svg version="1.0" xmlns="http://www.w3.org/2000/svg"
 width="480.000000pt" height="360.000000pt" viewBox="0 0 480.000000 360.000000"
 preserveAspectRatio="xMidYMid meet">
<metadata>
Created by potrace 1.16, written by Peter Selinger 2001-2019
</metadata>
<rect width="1" height="360" fill="#000000"/>
<rect x="479" width="1" height="360" fill="#000000"/>
<rect width="480" height="1" fill="#000000"/>
<rect y="359" width="480" height="1" fill="#000000"/>
<g transform="translate(0.000000,360.000000) scale(0.100000,-0.100000)"
fill="#000000" stroke="none">
<path d="M0 1800 l0 -1800 2400 0 2400 0 0 1800 0 1800 -1046 0 c-992 0 -1046
-1 -1039 -17 33 -78 48 -156 49 -258 1 -189 -45 -292 -214 -480 -105 -116
-150 -189 -151 -244 l0 -36 -24 52 c-13 29 -75 117 -138 195 -162 204 -193
247 -221 308 -26 58 -46 180 -39 240 9 80 25 154 43 196 l19 44 -1019 0 -1020
0 0 -1800z m2309 625 c6 -3 11 -15 11 -25 0 -10 9 -22 20 -25 18 -6 24 -17 21
-37 0 -3 22 -11 50 -17 72 -16 84 -24 140 -101 47 -65 52 -69 97 -75 188 -23
268 -45 337 -93 29 -20 42 -38 50 -69 5 -23 16 -48 23 -55 29 -29 8 -145 -35
-190 -32 -33 -55 -35 -106 -8 -20 11 -41 20 -46 20 -5 0 -24 -25 -41 -55 -38
-66 -91 -110 -153 -127 -48 -12 -45 -13 -163 29 -17 6 7 -91 29 -114 30 -34
19 -70 -12 -40 -11 10 -13 6 -7 -22 3 -18 6 -39 6 -46 0 -7 12 -30 27 -51 19
-28 26 -53 27 -89 l1 -50 37 -3 c30 -3 40 1 53 22 13 20 14 29 5 46 -17 33 3
49 30 25 69 -62 -46 -180 -131 -134 -11 6 -29 31 -40 57 -11 26 -23 49 -27 52
-4 3 -13 16 -19 30 -10 21 -12 14 -12 -50 0 -41 5 -100 10 -130 5 -30 11 -81
13 -113 5 -71 18 -126 63 -282 66 -223 75 -275 48 -275 -11 0 -15 -12 -15 -46
0 -37 -3 -44 -13 -36 -16 13 -84 4 -94 -12 -4 -6 -9 -32 -11 -58 -3 -36 2 -54
18 -76 12 -16 20 -38 18 -48 -4 -21 -52 -36 -93 -28 -19 3 -50 -2 -83 -15 -78
-31 -100 -12 -87 76 5 34 2 56 -11 85 -16 35 -21 39 -43 34 -88 -21 -100 -20
-142 13 -22 18 -55 35 -75 38 -25 4 -39 14 -50 34 -8 16 -20 29 -27 29 -7 0
-21 6 -31 13 -14 10 -15 17 -6 41 7 20 8 32 0 40 -21 21 -8 55 66 175 74 121
107 186 146 286 22 56 34 205 17 215 -7 5 -5 30 7 76 9 38 20 87 24 109 5 22
12 51 16 64 6 20 4 22 -15 16 -18 -5 -21 -2 -21 24 0 22 -9 37 -33 55 -42 32
-61 33 -98 1 -35 -28 -92 -42 -127 -29 -18 7 -29 22 -39 57 -10 36 -18 47 -29
43 -27 -10 -25 19 6 92 16 39 30 78 30 87 0 53 99 150 218 213 88 47 91 51
108 160 9 59 41 102 96 132 56 31 73 45 35 31 -24 -9 -27 -8 -27 9 0 10 4 22
10 25 5 3 10 16 10 28 0 20 6 75 10 87 1 3 5 -5 10 -16 5 -12 13 -25 19 -29z"/>
<path d="M2976 1850 c-52 -20 -86 -46 -86 -65 0 -6 21 -21 46 -33 43 -21 48
-22 70 -7 25 16 50 84 41 109 -8 20 -11 20 -71 -4z"/>
<path d="M2675 1705 c-71 -13 -158 -46 -169 -63 -8 -13 103 -52 148 -52 52 0
112 34 141 80 14 22 25 42 25 45 0 9 -71 4 -145 -10z"/>
<path d="M1821 1631 c-11 -7 -12 -13 -4 -23 6 -7 14 -27 17 -45 12 -53 75 -60
130 -14 13 11 14 17 5 28 -37 44 -119 74 -148 54z"/>
<path d="M2093 1593 c-33 -6 -29 -17 17 -47 l40 -26 0 24 c0 13 3 31 6 40 6
16 -12 19 -63 9z"/>
<path d="M2350 320 c-27 -25 -31 -35 -27 -65 3 -20 7 -38 8 -39 22 -16 55 -36
60 -36 14 0 21 100 9 115 -6 8 -9 23 -5 35 9 28 -8 25 -45 -10z"/>
</g>
</svg>
