<?xml version="1.0" standalone="no"?>
<!DOCTYPE svg PUBLIC "-//W3C//DTD SVG 20010904//EN"
 "http://www.w3.org/TR/2001/REC-SVG-20010904/DTD/svg10.dtd">
<svg version="1.0" xmlns="http://www.w3.org/2000/svg"
 width="480.000000pt" height="360.000000pt" viewBox="0 0 480.000000 360.000000"
 preserveAspectRatio="xMidYMid meet">
<metadata>
Created by potrace 1.16, written by Peter Selinger 2001-2019
</metadata>
<rect width="1" height="360" fill="#000000"/>
<rect x="479" width="1" height="360" fill="#000000"/>
<rect width="480" height="1" fill="#000000"/>
<rect y="359" width="480" height="1" fill="#000000"/>
<g transform="translate(0.000000,360.000000) scale(0.100000,-0.100000)"
fill="#000000" stroke="none">
<path d="M1950 3535 c0 -37 -11 -106 -25 -161 -26 -101 -26 -112 7 -206 l20
-57 -22 -98 c-12 -54 -29 -132 -38 -173 -22 -112 -19 -107 -55 -73 -18 17 -46
38 -64 47 -25 12 -34 25 -39 54 -13 75 -59 121 -120 122 -30 0 -46 -6 -62 -23
-27 -29 -29 -51 -3 -42 16 5 22 -4 41 -59 17 -53 19 -69 9 -87 -10 -20 -8 -25
13 -43 38 -32 51 -62 37 -87 -6 -12 -9 -36 -6 -54 4 -26 0 -38 -20 -56 -47
-44 -83 -108 -94 -164 -5 -30 -19 -80 -29 -111 -22 -64 -24 -78 -10 -69 6 4 8
-12 5 -42 -5 -44 -4 -46 7 -22 l13 27 23 -47 c33 -70 81 -113 129 -115 21 -1
45 -6 52 -11 10 -6 12 -4 6 5 -5 8 -3 11 6 8 26 -9 21 -52 -11 -93 l-31 -39
23 -13 c13 -7 30 -12 39 -13 8 0 23 -16 32 -35 9 -19 23 -35 31 -35 9 0 19
-20 26 -52 16 -66 69 -219 82 -235 17 -21 -81 -167 -99 -149 -4 3 -4 6 0 6 11
0 -23 85 -58 142 -41 66 -42 73 -13 133 26 54 21 70 -36 100 l-38 20 -39 -44
-40 -45 -57 14 c-31 8 -91 14 -134 14 -65 0 -86 -5 -140 -32 -133 -65 -208
-176 -208 -310 0 -35 -6 -49 -35 -77 -20 -21 -44 -35 -59 -35 -38 0 -155 -39
-200 -67 -94 -58 -191 -178 -229 -282 -11 -31 -22 -91 -25 -134 -5 -90 17
-166 75 -255 113 -170 372 -297 539 -263 169 33 321 171 384 348 l22 61 21
-21 c12 -12 29 -42 37 -67 12 -37 19 -45 40 -45 27 0 29 8 17 78 -8 48 10 57
52 28 38 -27 57 -81 40 -110 -24 -38 40 -191 80 -191 26 0 57 -75 40 -96 -7
-9 -9 -31 -5 -60 5 -41 3 -48 -19 -66 -16 -13 -25 -29 -25 -49 l0 -29 589 0
c325 0 592 3 594 8 3 4 17 65 31 135 56 277 32 372 -180 709 -53 84 -111 178
-129 208 -32 54 -71 186 -63 211 2 6 41 -30 87 -82 45 -52 99 -112 120 -134
49 -53 109 -134 161 -220 24 -38 54 -84 67 -102 27 -35 83 -163 118 -268 36
-109 115 -270 150 -304 18 -19 19 -7 4 54 -6 24 -9 49 -7 56 5 15 89 -113 105
-161 6 -19 12 -28 13 -20 0 10 6 6 15 -10 8 -14 12 -37 9 -53 l-6 -27 76 0
c58 0 76 3 76 14 0 7 -9 49 -20 92 -21 83 -27 150 -11 125 6 -10 10 -10 16 -1
6 9 10 9 16 -1 7 -11 9 -10 9 3 0 11 5 15 14 12 11 -4 10 15 -6 101 -21 119
-62 215 -112 267 -18 18 -39 44 -48 58 -8 14 -37 49 -64 79 -35 39 -41 49 -21
37 15 -10 27 -14 28 -10 0 5 5 -2 11 -16 6 -16 12 -20 15 -12 3 9 19 2 49 -23
24 -20 44 -34 44 -31 0 4 -29 36 -65 72 -36 36 -65 68 -65 71 0 3 22 -11 48
-30 43 -30 105 -68 92 -55 -3 3 -39 34 -80 68 -41 35 -109 96 -150 136 -41 39
-94 88 -118 109 -57 51 -99 105 -108 140 -6 26 5 17 81 -57 49 -48 91 -85 93
-83 7 7 -95 180 -171 290 -129 186 -144 212 -185 337 -39 115 -157 421 -202
523 -58 129 -70 159 -70 170 0 7 -7 18 -15 25 -27 23 -7 22 23 0 38 -28 68
-21 66 17 0 16 -2 30 -3 33 -1 3 -4 28 -7 55 -9 96 -63 216 -144 325 -91 123
-146 155 -251 148 -80 -6 -116 -23 -146 -67 l-23 -34 0 84 c0 47 -5 122 -10
167 -10 76 -9 85 9 111 11 15 23 52 27 82 4 30 17 80 30 111 13 32 24 59 24
62 0 2 -11 7 -25 10 -16 4 -39 -1 -65 -14 -21 -11 -44 -20 -49 -20 -6 0 -13
27 -17 60 l-7 60 -63 0 -64 0 0 -65z m-125 -2412 c20 -47 11 -201 -12 -210
-23 -9 -107 18 -125 41 -16 19 -14 22 32 73 27 29 57 71 66 93 10 22 19 40 21
40 1 0 10 -17 18 -37z m60 -529 c66 -31 75 -51 82 -197 6 -103 5 -109 -17
-132 -13 -14 -27 -25 -31 -25 -4 0 -14 19 -23 42 -13 31 -14 43 -5 49 32 19
-24 170 -72 194 -20 11 -30 25 -35 49 -11 63 1 66 101 20z m865 -218 c-11 -44
-20 -87 -20 -98 0 -23 -12 -23 -34 1 -12 13 -19 49 -26 132 -14 169 -18 161
45 99 l55 -56 -20 -78z m-901 55 c11 -27 21 -54 21 -60 0 -14 -13 -14 -28 1
-9 9 -13 6 -20 -12 -8 -22 -9 -22 -24 11 -28 60 -31 79 -13 79 8 0 18 7 21 15
10 25 21 17 43 -34z m1741 -243 c0 -27 -26 15 -28 44 l-2 33 15 -34 c8 -18 15
-38 15 -43z m-1664 -74 c-5 -19 -10 -24 -17 -17 -8 8 -7 18 1 33 15 28 24 19
16 -16z m1636 -42 c6 -16 12 -22 15 -14 3 7 -1 19 -7 27 -10 12 -9 15 3 15 13
0 26 -27 27 -55 0 -5 -14 -10 -32 -9 -26 1 -33 6 -40 29 -14 52 14 57 34 7z"/>
</g>
</svg>
