<?xml version="1.0" standalone="no"?>
<!DOCTYPE svg PUBLIC "-//W3C//DTD SVG 20010904//EN"
 "http://www.w3.org/TR/2001/REC-SVG-20010904/DTD/svg10.dtd">
<svg version="1.0" xmlns="http://www.w3.org/2000/svg"
 width="480.000000pt" height="360.000000pt" viewBox="0 0 480.000000 360.000000"
 preserveAspectRatio="xMidYMid meet">
<metadata>
Created by potrace 1.16, written by Peter Selinger 2001-2019
</metadata>
<rect width="1" height="360" fill="#000000"/>
<rect x="479" width="1" height="360" fill="#000000"/>
<rect width="480" height="1" fill="#000000"/>
<rect y="359" width="480" height="1" fill="#000000"/>
<g transform="translate(0.000000,360.000000) scale(0.100000,-0.100000)"
fill="#000000" stroke="none">
<path d="M2223 3586 c3 -8 9 -60 12 -117 7 -110 -6 -268 -31 -377 -19 -85 -93
-273 -137 -347 -97 -164 -251 -326 -413 -436 -91 -61 -240 -134 -305 -148 -26
-6 -59 -16 -75 -22 -16 -6 -87 -20 -159 -30 -114 -17 -145 -18 -255 -8 -162
14 -251 31 -330 63 -35 14 -67 26 -71 26 -4 0 -36 16 -69 36 -34 20 -67 37
-74 38 -6 1 -28 12 -47 24 -20 12 -40 22 -44 22 -4 0 -35 24 -68 53 -34 30
-70 57 -79 60 -9 3 -29 24 -43 47 -14 22 -27 40 -30 40 -3 0 -5 -565 -5 -1255
l0 -1255 2156 0 2155 0 -6 20 c-4 12 0 31 9 45 8 13 29 62 45 108 16 47 72
170 124 273 199 394 203 404 189 456 -8 31 -11 33 -53 33 l-44 0 -6 55 c-3 30
-13 82 -22 115 -22 78 -21 125 4 221 17 64 20 95 15 164 -19 260 -19 249 10
340 21 63 28 107 29 170 3 166 34 280 99 357 14 17 42 67 61 113 l35 82 0 524
0 524 -1291 0 c-1097 0 -1290 -2 -1286 -14z"/>
</g>
</svg>
