<?xml version="1.0" standalone="no"?>
<!DOCTYPE svg PUBLIC "-//W3C//DTD SVG 20010904//EN"
 "http://www.w3.org/TR/2001/REC-SVG-20010904/DTD/svg10.dtd">
<svg version="1.0" xmlns="http://www.w3.org/2000/svg"
 width="480.000000pt" height="360.000000pt" viewBox="0 0 480.000000 360.000000"
 preserveAspectRatio="xMidYMid meet">
<metadata>
Created by potrace 1.16, written by Peter Selinger 2001-2019
</metadata>
<rect width="1" height="360" fill="#000000"/>
<rect x="479" width="1" height="360" fill="#000000"/>
<rect width="480" height="1" fill="#000000"/>
<rect y="359" width="480" height="1" fill="#000000"/>
<g transform="translate(0.000000,360.000000) scale(0.100000,-0.100000)"
fill="#000000" stroke="none">
<path d="M0 2854 l0 -745 28 19 c15 11 36 30 47 42 24 27 163 135 221 172 98
63 253 131 384 169 175 51 441 68 615 40 389 -62 752 -279 988 -590 42 -55
107 -160 119 -192 15 -40 118 -183 191 -267 171 -195 414 -353 667 -436 174
-57 270 -71 485 -71 181 1 210 3 310 27 253 61 484 179 673 346 l72 64 0 1084
0 1084 -2400 0 -2400 0 0 -746z m3623 262 c76 -38 147 -116 177 -195 31 -84
26 -202 -12 -276 -86 -165 -254 -239 -424 -187 -251 78 -336 395 -155 581 82
84 150 111 271 108 71 -2 95 -7 143 -31z"/>
<path d="M1206 1234 c-77 -24 -166 -90 -211 -154 -63 -91 -85 -253 -50 -362
94 -285 453 -382 668 -179 93 88 131 184 125 317 -3 77 -9 101 -35 155 -41 82
-120 161 -202 202 -55 27 -76 32 -155 34 -62 2 -107 -2 -140 -13z"/>
</g>
</svg>
