<?xml version="1.0" standalone="no"?>
<!DOCTYPE svg PUBLIC "-//W3C//DTD SVG 20010904//EN"
 "http://www.w3.org/TR/2001/REC-SVG-20010904/DTD/svg10.dtd">
<svg version="1.0" xmlns="http://www.w3.org/2000/svg"
 width="480.000000pt" height="360.000000pt" viewBox="0 0 480.000000 360.000000"
 preserveAspectRatio="xMidYMid meet">
<metadata>
Created by potrace 1.16, written by Peter Selinger 2001-2019
</metadata>
<rect width="1" height="360" fill="#000000"/>
<rect x="479" width="1" height="360" fill="#000000"/>
<rect width="480" height="1" fill="#000000"/>
<rect y="359" width="480" height="1" fill="#000000"/>
<g transform="translate(0.000000,360.000000) scale(0.100000,-0.100000)"
fill="#000000" stroke="none">
<path d="M0 2748 c0 -845 1 -853 20 -828 10 14 40 61 66 105 58 97 359 546
423 630 74 98 194 240 356 420 225 252 300 340 366 437 l60 88 -645 0 -646 0
0 -852z"/>
<path d="M3282 3534 c4 -89 -4 -94 -117 -71 -47 10 -89 15 -94 13 -4 -3 -4
-33 1 -68 7 -53 18 -76 74 -160 86 -129 146 -262 209 -468 25 -81 45 -221 45
-314 -1 -219 -93 -422 -243 -532 -73 -54 -90 -59 -197 -59 -105 0 -161 19
-259 85 -41 27 -92 55 -115 61 -22 5 -70 21 -106 34 -246 91 -429 128 -458 92
-8 -9 -8 -23 -1 -48 10 -31 7 -44 -22 -112 -18 -43 -51 -100 -72 -128 -21 -28
-37 -58 -35 -66 2 -9 27 -23 59 -34 31 -9 72 -25 90 -34 38 -19 155 -105 242
-177 76 -63 92 -70 227 -107 293 -78 507 -84 680 -19 70 26 208 95 280 138 30
19 91 52 135 76 97 51 114 73 197 261 59 134 180 482 194 560 6 33 21 76 63
185 11 29 41 30 41 1 0 -8 7 -22 16 -30 12 -12 14 -27 9 -62 -11 -79 -63 -284
-106 -418 -30 -92 -42 -146 -42 -191 -1 -77 10 -91 57 -74 19 7 73 16 120 19
97 7 134 -4 215 -62 110 -79 161 -191 161 -351 l0 -94 33 -2 c28 -1 66 1 157
7 14 1 37 3 53 3 l27 2 0 1105 0 1105 -761 0 -760 0 3 -66z"/>
<path d="M1287 1746 c-29 -27 -43 -94 -33 -153 12 -66 27 -113 35 -113 14 0
63 134 68 187 11 99 -16 129 -70 79z"/>
<path d="M0 711 l0 -711 760 0 760 0 -168 168 c-181 180 -209 209 -382 407
-303 346 -335 375 -627 560 -43 27 -130 97 -193 155 -63 58 -123 111 -132 119
-17 13 -18 -22 -18 -698z"/>
<path d="M2525 1380 c3 -5 18 -10 33 -10 21 0 24 2 12 10 -20 13 -53 13 -45 0z"/>
<path d="M4777 1174 c-3 -4 -43 -8 -89 -10 -130 -4 -202 -16 -215 -33 -7 -9
-33 -54 -58 -101 -106 -197 -226 -322 -725 -753 -113 -97 -230 -199 -260 -226
l-55 -50 713 -1 712 0 0 590 c0 325 -4 590 -8 590 -5 0 -11 -3 -15 -6z"/>
</g>
</svg>
