<?xml version="1.0" standalone="no"?>
<!DOCTYPE svg PUBLIC "-//W3C//DTD SVG 20010904//EN"
 "http://www.w3.org/TR/2001/REC-SVG-20010904/DTD/svg10.dtd">
<svg version="1.0" xmlns="http://www.w3.org/2000/svg"
 width="480.000000pt" height="360.000000pt" viewBox="0 0 480.000000 360.000000"
 preserveAspectRatio="xMidYMid meet">
<metadata>
Created by potrace 1.16, written by Peter Selinger 2001-2019
</metadata>
<rect width="1" height="360" fill="#000000"/>
<rect x="479" width="1" height="360" fill="#000000"/>
<rect width="480" height="1" fill="#000000"/>
<rect y="359" width="480" height="1" fill="#000000"/>
<g transform="translate(0.000000,360.000000) scale(0.100000,-0.100000)"
fill="#000000" stroke="none">
<path d="M0 1800 l0 -1800 880 0 880 0 0 38 c0 38 21 130 60 262 12 41 30 109
40 150 10 42 32 113 49 158 24 66 27 84 16 88 -22 9 -24 38 -26 304 0 140 -3
270 -6 288 l-5 32 -65 -60 c-82 -77 -114 -81 -167 -19 -48 57 -62 99 -42 136
8 15 51 64 95 108 45 44 81 84 81 90 0 5 7 23 15 39 21 40 12 43 -33 13 -35
-23 -41 -24 -54 -10 -14 13 -19 13 -46 -1 -30 -16 -51 -8 -37 14 7 11 -16 87
-55 180 -15 36 -31 93 -35 127 l-7 62 71 73 c39 40 71 78 71 84 0 14 21 24 73
34 35 7 40 5 67 -28 31 -37 67 -128 78 -197 5 -30 14 -43 34 -53 23 -11 26
-16 18 -42 -10 -36 -4 -37 60 -13 63 23 98 59 115 117 16 52 20 106 8 106 -4
0 -17 -10 -30 -22 l-23 -21 21 59 c25 69 22 169 -6 219 -13 23 -16 25 -12 8 8
-34 -7 -28 -36 15 -13 20 -38 52 -55 71 -36 39 -47 89 -37 164 11 75 17 87 86
167 l61 72 -18 34 c-10 19 -22 34 -26 34 -5 0 -8 13 -8 30 0 33 20 48 85 66
l40 10 -2 48 -2 48 41 -6 c48 -8 108 -34 108 -47 0 -16 19 -10 39 13 18 18 23
19 37 7 9 -7 20 -24 25 -37 10 -25 14 -25 91 -7 31 8 45 0 191 -119 229 -184
269 -280 231 -548 l-18 -131 27 -50 c31 -55 29 -66 -8 -49 -14 7 -27 12 -29
12 -2 0 -6 -27 -10 -60 -8 -67 -20 -78 -30 -25 -11 54 -26 52 -19 -3 3 -32 1
-52 -6 -56 -6 -4 -11 -16 -11 -28 0 -14 -5 -18 -16 -14 -8 3 -12 2 -9 -4 3 -6
1 -10 -5 -10 -6 0 -11 12 -10 28 4 50 0 58 -15 32 l-14 -25 -1 33 c0 17 -4 32
-10 32 -5 0 -10 -21 -10 -47 0 -60 -15 -90 -25 -50 -8 29 -25 37 -25 12 0 -22
-18 -18 -25 5 -9 30 -27 24 -23 -7 4 -36 38 -53 105 -53 45 0 54 -4 77 -30 38
-45 66 -148 66 -239 0 -67 -4 -87 -31 -139 -32 -65 -88 -116 -141 -127 -34 -8
-39 -18 -79 -174 -18 -70 -29 -140 -29 -181 0 -60 3 -69 23 -83 13 -8 46 -19
73 -22 110 -17 269 -81 309 -125 12 -14 20 -52 27 -140 9 -113 8 -126 -12
-188 -32 -99 -73 -154 -134 -175 -5 -1 6 -60 24 -130 l33 -127 923 0 924 0 0
1800 0 1800 -2400 0 -2400 0 0 -1800z"/>
<path d="M2193 2033 c-44 -66 -24 -88 60 -68 31 7 66 11 77 8 24 -6 53 20 48
45 -3 14 -14 17 -65 16 -34 -1 -66 -5 -72 -9 -7 -3 -11 2 -11 14 0 33 -14 31
-37 -6z"/>
</g>
</svg>
