<?xml version="1.0" standalone="no"?>
<!DOCTYPE svg PUBLIC "-//W3C//DTD SVG 20010904//EN"
 "http://www.w3.org/TR/2001/REC-SVG-20010904/DTD/svg10.dtd">
<svg version="1.0" xmlns="http://www.w3.org/2000/svg"
 width="480.000000pt" height="360.000000pt" viewBox="0 0 480.000000 360.000000"
 preserveAspectRatio="xMidYMid meet">
<metadata>
Created by potrace 1.16, written by Peter Selinger 2001-2019
</metadata>
<rect width="1" height="360" fill="#000000"/>
<rect x="479" width="1" height="360" fill="#000000"/>
<rect width="480" height="1" fill="#000000"/>
<rect y="359" width="480" height="1" fill="#000000"/>
<g transform="translate(0.000000,360.000000) scale(0.100000,-0.100000)"
fill="#000000" stroke="none">
<path d="M0 2925 c0 -415 4 -675 9 -675 6 0 13 5 17 11 4 8 27 10 65 6 50 -4
65 -11 108 -49 56 -47 60 -60 33 -100 -20 -31 -22 -133 -3 -203 6 -22 15 -69
20 -104 7 -48 17 -72 35 -90 41 -41 106 -121 106 -130 0 -17 -69 -61 -106 -69
l-38 -8 3 -189 c2 -161 6 -204 27 -285 13 -52 24 -96 24 -97 0 -12 -67 1 -87
17 -34 26 -36 26 -51 -12 -10 -29 -10 -36 6 -58 10 -14 32 -32 50 -40 17 -8
32 -18 32 -22 0 -12 -98 -37 -176 -44 l-74 -7 0 -388 0 -389 1123 0 1124 0 11
25 c6 14 53 70 104 126 142 154 181 199 176 204 -3 3 -82 -14 -177 -36 l-173
-42 4 -59 c5 -68 -12 -64 -19 5 l-5 46 -89 -6 -88 -6 -31 32 c-51 51 -41 61
100 93 165 37 157 34 133 61 -30 32 -37 62 -18 81 32 32 78 14 90 -36 5 -20 1
-27 -22 -38 -22 -10 -24 -14 -11 -17 20 -5 150 30 336 89 l133 43 40 63 40 63
-45 20 -46 20 -29 -22 c-23 -17 -32 -19 -50 -10 -28 15 -43 46 -36 74 5 20 1
26 -27 37 -102 40 -418 202 -418 214 0 28 12 46 31 46 10 0 60 -22 111 -49
142 -75 341 -157 346 -143 21 65 112 46 112 -24 0 -16 12 -26 51 -43 65 -26
73 -26 92 2 8 13 31 34 51 47 36 25 50 49 61 106 5 26 2 34 -20 48 -24 16 -24
18 -10 45 27 54 34 111 23 190 -10 70 -10 79 10 118 28 54 28 67 -3 87 -14 9
-35 36 -47 60 -26 54 -19 88 25 129 l31 29 -26 23 c-15 13 -33 25 -40 27 -11
4 -10 8 1 22 11 13 12 21 2 39 -9 17 -21 22 -52 23 -30 0 -47 8 -72 31 -18 17
-55 42 -83 57 -29 14 -65 42 -82 62 -39 47 -65 43 -72 -9 -6 -46 -23 -49 -30
-5 l-5 33 -460 -3 c-493 -3 -968 -17 -1130 -33 -55 -5 -129 -12 -165 -15 l-65
-6 32 31 c92 86 375 114 1280 127 l513 7 6 34 c8 40 24 44 24 6 0 -35 17 -63
28 -47 11 17 67 25 81 11 8 -8 11 -7 11 5 0 10 13 17 38 22 32 5 40 2 56 -20
l18 -25 62 59 c72 69 116 93 217 121 41 10 99 29 129 40 57 21 145 27 169 12
10 -7 12 -20 7 -49 -11 -70 1 -99 51 -123 25 -12 47 -28 50 -35 2 -7 -11 -39
-31 -71 -20 -32 -36 -66 -36 -75 0 -9 17 -30 37 -47 29 -24 33 -31 20 -36 -15
-6 -14 -10 1 -42 13 -28 14 -37 5 -40 -20 -7 -16 -19 23 -72 19 -28 38 -65 41
-83 7 -46 -20 -106 -62 -141 -22 -18 -37 -40 -41 -63 -7 -39 28 -371 51 -478
11 -51 12 -73 4 -83 -6 -7 -9 -13 -7 -13 12 0 162 55 356 130 117 45 220 79
228 76 18 -7 75 -128 66 -138 -7 -6 -243 -92 -534 -194 -87 -31 -138 -54 -138
-62 0 -8 7 -39 16 -69 14 -49 20 -56 58 -73 66 -28 484 -171 644 -221 79 -24
153 -53 164 -63 l21 -19 -23 -19 c-56 -46 -235 -7 -647 140 -79 28 -143 46
-143 41 0 -21 89 -144 163 -226 41 -45 85 -98 98 -117 l24 -36 478 0 477 0 0
1315 0 1315 -102 0 c-57 0 -245 -12 -418 -26 -424 -36 -527 -25 -623 65 -36
33 -67 92 -67 127 0 26 1 25 41 -20 56 -63 103 -86 179 -86 33 0 60 4 60 8 0
5 -11 19 -25 32 -38 36 -73 104 -85 168 -16 77 7 165 62 248 45 67 105 113
189 146 73 28 226 31 281 4 50 -24 92 -73 113 -132 10 -27 32 -62 50 -79 39
-35 221 -138 294 -166 l51 -19 0 350 0 350 -2400 0 -2400 0 0 -675z m3387
-271 c-3 -3 -12 -4 -19 -1 -8 3 -5 6 6 6 11 1 17 -2 13 -5z"/>
<path d="M44 918 c-16 -23 -10 -72 9 -76 12 -3 17 3 17 20 0 13 3 33 6 46 7
25 -17 32 -32 10z"/>
</g>
</svg>
