<?xml version="1.0" standalone="no"?>
<!DOCTYPE svg PUBLIC "-//W3C//DTD SVG 20010904//EN"
 "http://www.w3.org/TR/2001/REC-SVG-20010904/DTD/svg10.dtd">
<svg version="1.0" xmlns="http://www.w3.org/2000/svg"
 width="480.000000pt" height="360.000000pt" viewBox="0 0 480.000000 360.000000"
 preserveAspectRatio="xMidYMid meet">
<metadata>
Created by potrace 1.16, written by Peter Selinger 2001-2019
</metadata>
<rect width="1" height="360" fill="#000000"/>
<rect x="479" width="1" height="360" fill="#000000"/>
<rect width="480" height="1" fill="#000000"/>
<rect y="359" width="480" height="1" fill="#000000"/>
<g transform="translate(0.000000,360.000000) scale(0.100000,-0.100000)"
fill="#000000" stroke="none">
<path d="M0 2629 l0 -970 58 32 c127 71 283 183 386 279 92 85 114 101 135 97
50 -9 363 -164 546 -271 120 -69 176 -88 282 -94 69 -3 115 1 191 17 l100 21
83 -24 84 -25 32 37 c18 20 58 71 90 113 64 86 92 107 184 147 114 49 112 47
104 100 -8 52 -22 75 -41 68 -7 -3 -15 6 -18 20 -13 52 -35 16 -37 -61 0 -22
-4 -49 -9 -60 -7 -17 -9 -14 -10 15 -1 19 -4 29 -7 23 -8 -22 -25 -14 -18 7 4
12 3 40 -1 63 l-7 42 -14 -70 c-8 -38 -18 -74 -22 -78 -5 -4 -11 23 -14 60 -8
100 -26 166 -42 153 -9 -8 -16 -2 -25 22 -18 46 -19 46 -40 18 l-20 -25 0 43
c0 41 -7 50 -26 33 -5 -5 -20 -12 -33 -16 -24 -7 -24 -7 7 32 46 58 58 89 42
108 -17 20 -27 19 -35 -5 -8 -24 -41 -26 -69 -5 -11 8 -29 15 -41 15 -12 0
-32 10 -44 22 l-24 21 29 21 c60 43 112 97 135 140 22 42 22 48 11 103 -22
106 -11 191 38 298 33 74 88 125 166 155 52 20 82 23 244 27 261 6 298 5 355
-12 98 -28 179 -102 215 -195 18 -47 17 -47 41 -17 16 22 29 27 64 27 35 0 54
-8 103 -44 91 -67 126 -120 143 -213 5 -32 17 -79 25 -106 l16 -47 -29 -28
c-47 -44 -58 -82 -39 -139 13 -38 35 -141 66 -298 5 -22 -1 -29 -11 -15 -8 11
-9 6 -6 -20 4 -23 -5 -65 -24 -125 -39 -115 -50 -137 -66 -131 -9 4 -13 -3
-13 -20 0 -14 -4 -22 -10 -19 -5 3 -10 -2 -11 -12 0 -12 -5 -9 -14 12 -8 17
-14 23 -15 15 0 -13 -1 -13 -10 0 -6 10 -10 11 -10 3 0 -7 -4 -13 -10 -13 -5
0 -10 13 -10 29 0 16 -3 37 -7 46 -5 14 -8 12 -18 -11 l-12 -29 -8 50 c-4 28
-21 91 -37 140 -23 68 -31 111 -32 175 l-1 85 -29 3 c-24 3 -27 1 -21 -18 5
-17 3 -21 -12 -18 -15 2 -18 -3 -15 -32 l3 -35 -31 33 -30 33 -12 -26 c-6 -14
-17 -24 -24 -21 -13 5 -37 -62 -50 -139 -6 -38 -7 -39 -16 -15 -12 29 -13 27
-41 -65 l-16 -50 4 65 c3 45 2 57 -4 40 -5 -14 -10 -38 -10 -55 -1 -27 -3 -28
-13 -11 -7 12 -8 45 -4 94 6 68 6 74 -8 62 -9 -7 -16 -19 -16 -26 0 -7 -12
-20 -27 -27 -33 -18 -59 -92 -40 -116 7 -8 53 -34 104 -57 114 -53 157 -92
240 -216 36 -54 69 -100 73 -103 4 -2 33 2 64 10 75 20 81 19 183 -11 64 -18
112 -25 178 -26 107 0 150 14 355 117 74 37 191 90 259 117 68 27 141 58 162
68 21 11 44 20 52 20 7 0 78 -64 158 -143 106 -105 176 -164 266 -225 67 -45
124 -82 127 -82 3 0 6 470 6 1045 l0 1045 -2400 0 -2400 0 0 -971z"/>
<path d="M2945 2564 c-43 -95 -43 -118 -5 -154 18 -16 36 -30 40 -30 23 0 23
211 0 234 -5 5 -19 -15 -35 -50z"/>
<path d="M3011 2234 c0 -11 3 -14 6 -6 3 7 2 16 -1 19 -3 4 -6 -2 -5 -13z"/>
<path d="M3222 1995 c0 -16 2 -22 5 -12 2 9 2 23 0 30 -3 6 -5 -1 -5 -18z"/>
<path d="M520 1900 c-34 -41 -40 -53 -30 -65 6 -8 10 -25 8 -38 -1 -14 5 -34
15 -45 9 -10 23 -50 31 -88 l13 -70 -50 -104 c-28 -58 -76 -161 -108 -228 -37
-78 -63 -122 -71 -120 -10 4 -15 68 -22 252 l-9 247 34 46 c35 50 34 50 -56
-13 -33 -23 -75 -49 -92 -58 -39 -19 -42 -44 -14 -99 11 -21 22 -63 26 -95 l6
-57 -101 -199 -100 -198 0 -484 0 -484 879 0 878 0 16 42 c9 24 28 86 42 138
46 170 85 283 135 392 41 89 49 117 48 160 -1 29 2 103 7 164 4 61 5 128 1
149 l-8 39 -49 -101 c-61 -128 -79 -143 -409 -348 -150 -93 -201 -119 -260
-135 -25 -7 -103 -34 -173 -61 -121 -47 -131 -49 -195 -43 -80 8 -211 53 -259
90 -51 39 -32 49 62 35 84 -12 146 -3 257 39 61 23 83 42 75 64 -5 12 -11 13
-36 3 -26 -9 -34 -9 -47 5 -33 33 23 65 130 75 59 5 85 2 121 -12 55 -20 35
-32 271 154 86 68 182 139 213 159 31 19 59 40 62 45 4 5 9 35 13 66 4 31 21
99 38 152 l31 96 -34 31 -34 31 32 33 32 33 -20 24 c-13 16 -19 36 -17 55 3
29 0 31 -37 38 -112 20 -178 0 -141 -41 9 -10 22 -48 27 -84 l10 -66 -52 -98
c-28 -54 -59 -111 -69 -128 -10 -16 -34 -61 -55 -100 -20 -38 -46 -79 -57 -90
l-20 -20 6 244 6 244 31 48 c17 27 43 58 57 69 14 11 22 24 18 28 -9 9 -262 9
-271 0 -4 -3 -1 -16 5 -28 6 -12 14 -54 16 -93 l5 -72 -108 -209 c-60 -116
-114 -212 -120 -214 -10 -3 -13 50 -13 244 l0 248 41 62 c22 35 49 66 60 69
10 4 19 15 19 25 0 30 -148 133 -237 164 -38 13 -42 13 -45 -2 -2 -9 2 -27 9
-38 8 -12 16 -50 20 -86 5 -60 3 -69 -37 -153 -23 -50 -67 -144 -97 -210 -63
-136 -78 -158 -93 -135 -6 8 -10 122 -10 257 l0 243 35 55 c19 30 44 59 55 65
40 22 23 43 -73 93 -52 26 -101 47 -109 47 -9 0 -35 -23 -58 -50z"/>
<path d="M4165 1817 c-22 -14 -61 -32 -87 -42 -51 -19 -59 -35 -30 -57 9 -7
35 -39 56 -70 l39 -58 -11 -208 c-14 -255 -21 -281 -55 -209 -9 18 -54 110
-100 205 l-83 173 12 57 c6 31 17 69 24 85 7 15 10 30 7 34 -25 24 -277 -110
-277 -148 0 -11 7 -22 14 -25 8 -3 34 -30 56 -59 l42 -54 4 -227 c3 -185 6
-229 18 -238 24 -18 34 -57 29 -116 -5 -58 -35 -108 -97 -160 -17 -14 -43 -40
-60 -57 -39 -44 -75 -52 -246 -60 l-145 -6 -151 101 c-236 158 -272 198 -304
332 l-14 55 -9 -40 c-5 -22 -5 -85 -1 -140 4 -55 8 -127 8 -160 1 -49 9 -75
42 -140 49 -95 86 -194 114 -308 12 -45 35 -126 53 -179 l31 -98 878 0 878 0
-1 538 c-1 459 -3 523 -13 440 -11 -96 -26 -132 -45 -113 -6 6 -30 55 -54 110
-25 55 -64 141 -87 190 l-43 90 18 65 c9 36 23 72 31 81 29 32 17 65 -38 105
-29 20 -68 49 -87 63 l-34 26 18 -34 c16 -33 16 -45 0 -245 -9 -116 -21 -215
-26 -221 -15 -16 -35 14 -89 135 -29 63 -67 148 -86 188 l-35 73 17 69 c9 38
25 77 35 86 11 9 19 25 19 36 0 10 5 27 12 38 11 16 7 25 -28 67 -23 26 -50
49 -60 51 -10 1 -37 -8 -59 -21z"/>
<path d="M22 1559 c-13 -5 -22 -17 -22 -30 l0 -22 28 24 c15 13 28 25 30 25 2
1 0 4 -5 7 -4 2 -18 1 -31 -4z"/>
<path d="M3037 1563 c-4 -3 -7 -16 -7 -28 0 -12 -9 -30 -20 -40 l-20 -18 20
-22 c11 -12 17 -24 14 -28 -4 -4 -2 -13 5 -21 9 -11 5 -19 -20 -40 -30 -26
-31 -26 -19 -79 6 -28 17 -99 25 -157 12 -90 17 -107 37 -120 37 -25 149 -120
209 -177 l56 -55 64 33 c37 18 100 39 149 48 75 14 85 19 88 39 6 42 63 41
102 0 l20 -22 0 22 c0 12 -5 22 -10 22 -15 0 -34 46 -26 65 5 13 10 14 27 5
21 -12 42 -5 23 8 -10 7 -74 108 -74 117 0 3 -18 34 -40 70 -22 36 -40 68 -40
71 0 3 -16 32 -36 64 l-36 59 13 71 c7 39 16 73 21 76 20 13 3 23 -55 33 -79
14 -204 14 -212 1 -3 -5 1 -10 9 -10 20 0 103 -103 110 -137 12 -60 56 -398
56 -432 l0 -35 -21 21 c-12 11 -77 103 -144 203 l-122 182 -2 69 c-1 49 3 75
15 94 27 41 6 55 -81 55 -39 0 -75 -3 -78 -7z"/>
<path d="M4720 1421 c0 -6 4 -11 9 -11 5 0 23 -21 40 -47 l31 -48 0 40 c0 34
-4 42 -28 53 -47 23 -52 24 -52 13z"/>
</g>
</svg>
