<?xml version="1.0" standalone="no"?>
<!DOCTYPE svg PUBLIC "-//W3C//DTD SVG 20010904//EN"
 "http://www.w3.org/TR/2001/REC-SVG-20010904/DTD/svg10.dtd">
<svg version="1.0" xmlns="http://www.w3.org/2000/svg"
 width="480.000000pt" height="360.000000pt" viewBox="0 0 480.000000 360.000000"
 preserveAspectRatio="xMidYMid meet">
<metadata>
Created by potrace 1.16, written by Peter Selinger 2001-2019
</metadata>
<rect width="1" height="360" fill="#000000"/>
<rect x="479" width="1" height="360" fill="#000000"/>
<rect width="480" height="1" fill="#000000"/>
<rect y="359" width="480" height="1" fill="#000000"/>
<g transform="translate(0.000000,360.000000) scale(0.100000,-0.100000)"
fill="#000000" stroke="none">
<path d="M0 1800 l0 -1800 1058 2 1057 3 24 178 24 178 -21 67 c-11 37 -37
112 -57 167 -52 142 -68 233 -54 308 11 62 45 165 60 181 4 5 6 28 3 50 -4 34
2 55 36 125 l41 84 -41 -6 c-22 -3 -40 -2 -40 3 0 4 29 33 65 65 62 54 101
115 91 140 -2 7 14 36 36 65 39 51 41 60 56 173 15 111 15 120 -1 129 -10 5
-26 27 -37 48 -11 22 -29 44 -40 50 -11 6 -20 17 -20 24 0 7 -9 21 -20 31 -11
10 -20 26 -20 36 0 9 -16 27 -35 39 -42 26 -43 33 -10 71 23 28 23 31 7 49
-18 22 -52 27 -52 8 0 -8 -7 -5 -15 6 -8 11 -15 14 -15 7 0 -23 -20 0 -50 57
-24 47 -29 52 -30 32 -1 -23 -3 -22 -15 10 -7 19 -14 49 -14 65 -2 48 -15 60
-31 28 -12 -25 -14 -26 -18 -8 -12 53 77 306 134 381 56 73 93 102 199 154
132 65 268 100 389 100 152 0 242 -33 355 -129 110 -94 146 -139 178 -219 99
-247 125 -431 122 -862 -1 -255 2 -317 29 -585 23 -216 32 -356 33 -502 0
-111 -1 -205 -4 -210 -3 -5 -1 -59 4 -120 8 -100 14 -124 54 -218 25 -58 45
-109 45 -112 0 -3 9 -37 20 -74 l21 -69 649 0 650 0 0 1800 0 1800 -2400 0
-2400 0 0 -1800z"/>
</g>
</svg>
