<?xml version="1.0" standalone="no"?>
<!DOCTYPE svg PUBLIC "-//W3C//DTD SVG 20010904//EN"
 "http://www.w3.org/TR/2001/REC-SVG-20010904/DTD/svg10.dtd">
<svg version="1.0" xmlns="http://www.w3.org/2000/svg"
 width="480.000000pt" height="360.000000pt" viewBox="0 0 480.000000 360.000000"
 preserveAspectRatio="xMidYMid meet">
<metadata>
Created by potrace 1.16, written by Peter Selinger 2001-2019
</metadata>
<rect width="1" height="360" fill="#000000"/>
<rect x="479" width="1" height="360" fill="#000000"/>
<rect width="480" height="1" fill="#000000"/>
<rect y="359" width="480" height="1" fill="#000000"/>
<g transform="translate(0.000000,360.000000) scale(0.100000,-0.100000)"
fill="#000000" stroke="none">
<path d="M2824 3548 c-45 -136 -96 -225 -189 -328 -23 -25 -38 -58 -53 -118
-12 -46 -20 -87 -17 -92 3 -4 42 -17 87 -29 106 -28 131 -38 122 -52 -16 -27
-62 -205 -54 -213 5 -5 29 -5 53 -2 48 7 50 10 62 87 17 107 33 122 102 95 74
-28 101 -30 143 -11 37 17 38 18 28 54 -17 62 -4 316 20 386 11 33 28 89 37
124 9 35 29 83 46 107 l30 44 -200 0 -199 0 -18 -52z"/>
</g>
</svg>
