<?xml version="1.0" standalone="no"?>
<!DOCTYPE svg PUBLIC "-//W3C//DTD SVG 20010904//EN"
 "http://www.w3.org/TR/2001/REC-SVG-20010904/DTD/svg10.dtd">
<svg version="1.0" xmlns="http://www.w3.org/2000/svg"
 width="480.000000pt" height="360.000000pt" viewBox="0 0 480.000000 360.000000"
 preserveAspectRatio="xMidYMid meet">
<metadata>
Created by potrace 1.16, written by Peter Selinger 2001-2019
</metadata>
<rect width="1" height="360" fill="#000000"/>
<rect x="479" width="1" height="360" fill="#000000"/>
<rect width="480" height="1" fill="#000000"/>
<rect y="359" width="480" height="1" fill="#000000"/>
<g transform="translate(0.000000,360.000000) scale(0.100000,-0.100000)"
fill="#000000" stroke="none">
<path d="M3032 3086 c-34 -12 -162 -112 -162 -127 0 -4 -9 -11 -20 -14 -15 -5
-33 5 -68 36 -62 56 -140 89 -221 96 -66 5 -406 -35 -483 -57 -94 -27 -181
-118 -214 -223 -25 -82 -30 -216 -10 -277 16 -49 16 -52 -3 -78 -35 -48 -95
-100 -121 -104 -21 -2 -25 -8 -25 -38 -1 -19 -5 -43 -9 -53 -9 -19 8 -47 30
-47 7 0 39 -16 71 -35 64 -38 84 -42 103 -20 21 26 39 17 50 -26 13 -49 -4
-109 -46 -158 -13 -16 -24 -31 -24 -34 0 -3 16 -3 37 0 34 6 36 5 29 -18 -3
-13 -9 -37 -12 -54 -6 -33 -6 -33 44 30 12 15 24 26 25 24 2 -2 14 -21 26 -41
12 -21 27 -38 32 -38 5 0 9 -10 10 -22 1 -21 2 -20 11 5 5 15 13 27 18 27 11
0 40 -46 41 -67 0 -11 3 -13 6 -5 2 6 9 9 14 6 7 -4 8 8 4 33 l-7 38 20 -31
c26 -40 42 -51 42 -27 0 15 2 16 11 3 8 -11 9 -6 7 23 -2 20 -2 37 2 37 13 -1
61 -76 58 -93 -4 -23 -78 -55 -201 -85 -131 -33 -169 -54 -215 -120 -47 -68
-85 -142 -103 -200 -15 -53 -34 -59 -141 -43 -119 16 -181 52 -337 192 -74 66
-166 138 -205 161 -155 89 -149 84 -141 134 5 35 3 44 -9 44 -8 0 -64 -55
-124 -123 -124 -140 -237 -246 -363 -341 -83 -62 -299 -208 -406 -274 -48 -29
-53 -35 -53 -67 0 -19 3 -35 8 -35 4 0 47 7 97 15 160 26 195 22 312 -36 120
-60 110 -62 186 51 55 83 115 150 133 150 18 0 61 -54 75 -95 17 -45 32 -40
41 13 4 23 10 47 13 52 13 20 72 10 118 -21 60 -40 94 -80 107 -129 6 -22 12
-40 14 -40 2 0 37 16 77 35 143 67 207 56 315 -55 32 -33 65 -60 72 -60 8 0
44 22 81 49 87 64 174 121 183 121 5 0 8 -14 8 -30 0 -18 6 -33 15 -36 19 -8
19 -61 1 -204 -7 -58 -10 -114 -6 -125 27 -72 155 -112 206 -64 l23 21 6 -35
c4 -20 2 -76 -4 -124 -10 -75 -16 -91 -38 -112 -21 -18 -28 -34 -30 -69 -1
-27 -11 -58 -23 -74 -18 -25 -19 -32 -8 -72 9 -35 15 -43 25 -34 20 16 28 -17
13 -53 -7 -16 -11 -32 -8 -34 3 -3 247 -4 542 -3 l537 3 -51 84 -50 85 22 53
c18 44 20 57 10 71 -7 9 -22 32 -33 49 -12 18 -27 33 -35 33 -20 0 -32 29 -39
97 l-7 61 31 6 c17 3 44 9 61 12 16 3 43 18 60 34 28 27 30 32 30 107 0 43 -7
124 -17 180 -19 118 -12 147 37 165 38 13 38 22 0 65 -38 43 -38 57 0 73 26
11 40 9 98 -10 87 -29 180 -76 309 -156 57 -35 111 -64 119 -64 9 0 37 18 62
41 116 102 190 103 318 5 26 -20 50 -36 55 -36 4 0 13 16 19 35 15 44 64 79
149 105 35 11 67 20 72 20 5 0 9 -17 9 -37 0 -55 13 -71 34 -42 9 13 16 28 16
34 0 17 54 65 73 65 22 0 44 -35 92 -149 32 -77 45 -97 63 -99 19 -3 66 8 190
44 9 2 12 43 12 159 l0 156 -61 68 c-87 98 -169 210 -240 331 -87 148 -107
174 -125 159 -8 -6 -14 -17 -14 -25 0 -38 -25 -63 -84 -85 -94 -34 -193 -86
-276 -143 -209 -145 -280 -172 -450 -167 -268 8 -255 8 -258 -17 -5 -33 -30
-42 -84 -31 -45 10 -48 13 -67 65 -35 91 -111 234 -134 249 -41 27 -110 45
-224 60 -63 8 -127 22 -144 30 -28 15 -29 17 -14 43 19 34 40 62 49 62 3 0 6
-8 7 -17 0 -14 2 -13 9 5 13 30 23 28 18 -3 -8 -38 9 -40 27 -5 18 35 36 35
46 -1 6 -22 9 -19 31 31 14 30 28 63 31 73 8 20 27 23 27 3 0 -7 7 -19 15 -26
12 -10 16 -8 25 15 10 27 13 27 63 -7 35 -25 35 -8 2 47 -32 51 -31 55 8 55
49 0 63 14 32 30 -34 18 -95 101 -95 129 0 15 6 21 20 21 17 0 19 3 11 17 -6
12 -5 26 5 45 12 23 19 27 43 22 25 -5 30 -2 40 27 20 57 14 75 -35 115 -42
35 -81 90 -71 100 6 6 63 -18 140 -58 32 -16 61 -27 64 -25 14 15 14 126 -1
176 -9 30 -15 56 -13 57 1 1 42 5 92 8 49 4 94 11 99 16 13 13 -20 59 -49 66
-34 8 -141 167 -156 231 -25 110 -24 109 -77 89z m-412 -1236 c0 -5 -4 -10
-10 -10 -5 0 -10 5 -10 10 0 6 5 10 10 10 6 0 10 -4 10 -10z"/>
</g>
</svg>
