<?xml version="1.0" standalone="no"?>
<!DOCTYPE svg PUBLIC "-//W3C//DTD SVG 20010904//EN"
 "http://www.w3.org/TR/2001/REC-SVG-20010904/DTD/svg10.dtd">
<svg version="1.0" xmlns="http://www.w3.org/2000/svg"
 width="480.000000pt" height="360.000000pt" viewBox="0 0 480.000000 360.000000"
 preserveAspectRatio="xMidYMid meet">
<metadata>
Created by potrace 1.16, written by Peter Selinger 2001-2019
</metadata>
<rect width="1" height="360" fill="#000000"/>
<rect x="479" width="1" height="360" fill="#000000"/>
<rect width="480" height="1" fill="#000000"/>
<rect y="359" width="480" height="1" fill="#000000"/>
<g transform="translate(0.000000,360.000000) scale(0.100000,-0.100000)"
fill="#000000" stroke="none">
<path d="M0 2820 c0 -429 2 -780 4 -780 2 0 23 7 47 16 58 20 220 50 341 64
249 26 762 2 952 -46 22 -5 26 -2 31 23 20 94 29 115 64 144 20 16 47 32 60
36 21 5 23 10 18 50 -2 24 -7 46 -10 49 -3 3 -22 1 -44 -5 -62 -18 -121 -14
-146 9 l-22 21 24 44 c19 36 77 99 182 197 14 14 17 28 14 80 -12 185 -10 283
8 315 34 63 217 213 260 213 9 0 28 10 44 23 67 55 224 107 323 107 65 0 110
-23 239 -123 l85 -65 55 20 c227 78 347 75 327 -8 -7 -26 -140 -167 -200 -213
-38 -28 -32 -41 77 -157 l86 -91 -40 2 c-34 2 -39 0 -33 -14 13 -31 18 -134 5
-127 -6 4 -11 13 -11 21 0 8 -5 17 -10 20 -6 4 -10 3 -8 -2 3 -15 -25 -98 -29
-86 -3 8 -18 0 -40 -22 -41 -40 -39 -62 13 -101 42 -33 43 -52 3 -87 -22 -19
-30 -33 -26 -48 3 -13 -9 -48 -34 -93 -22 -41 -49 -113 -63 -168 -27 -110 -58
-159 -117 -185 -21 -9 -39 -20 -39 -23 0 -3 24 -29 53 -57 43 -43 78 -63 202
-118 149 -66 149 -66 181 -49 29 16 33 16 65 -1 19 -10 59 -30 89 -45 31 -15
62 -35 69 -44 7 -9 21 -16 30 -16 9 0 43 -13 76 -30 33 -16 65 -30 72 -30 16
0 26 -18 32 -59 6 -31 17 -41 141 -118 74 -46 172 -111 218 -144 68 -49 86
-57 102 -49 10 5 33 10 50 10 24 0 35 -7 48 -30 12 -21 25 -30 43 -30 28 0 59
-27 59 -52 0 -9 13 -21 30 -26 18 -7 34 -22 41 -39 6 -15 17 -40 25 -55 8 -14
14 -34 14 -45 0 -10 41 -59 91 -108 176 -175 338 -372 477 -582 l74 -113 64 0
64 0 0 1800 0 1800 -2400 0 -2400 0 0 -780z"/>
<path d="M359 1876 c-122 -16 -248 -46 -314 -75 l-45 -20 0 -890 0 -891 916 2
916 3 45 74 c88 144 94 189 68 466 -26 278 -44 374 -77 425 -16 25 -28 56 -27
70 1 14 -1 37 -6 52 -4 15 -2 66 5 112 12 84 7 151 -11 140 -5 -3 -9 2 -9 10
0 9 -4 16 -10 16 -5 0 -10 -14 -10 -31 0 -20 -4 -29 -12 -26 -10 3 -13 48 -13
179 l0 176 -47 6 c-60 8 -107 28 -179 76 -51 34 -75 42 -216 69 -87 17 -210
38 -273 47 -160 21 -565 27 -701 10z"/>
<path d="M3161 1057 l-30 -52 55 -57 56 -58 -30 -38 c-16 -20 -39 -46 -51 -56
-12 -11 -21 -24 -21 -29 0 -13 198 -2 290 16 61 11 66 14 88 55 13 24 23 44
21 46 -13 10 -170 113 -251 164 l-97 61 -30 -52z"/>
<path d="M3841 594 c-11 -14 -37 -39 -58 -56 -34 -27 -40 -39 -60 -121 -24
-96 -57 -147 -97 -147 -28 0 -132 31 -231 69 -109 42 -200 59 -408 76 -111 8
-185 19 -194 27 -16 13 -29 2 -100 -89 -28 -36 -28 -42 -1 -260 l11 -93 854 0
c469 0 853 3 853 8 0 15 -176 240 -259 332 -95 105 -272 280 -283 280 -3 0
-16 -12 -27 -26z"/>
</g>
</svg>
