<?xml version="1.0" standalone="no"?>
<!DOCTYPE svg PUBLIC "-//W3C//DTD SVG 20010904//EN"
 "http://www.w3.org/TR/2001/REC-SVG-20010904/DTD/svg10.dtd">
<svg version="1.0" xmlns="http://www.w3.org/2000/svg"
 width="480.000000pt" height="360.000000pt" viewBox="0 0 480.000000 360.000000"
 preserveAspectRatio="xMidYMid meet">
<metadata>
Created by potrace 1.16, written by Peter Selinger 2001-2019
</metadata>
<rect width="1" height="360" fill="#000000"/>
<rect x="479" width="1" height="360" fill="#000000"/>
<rect width="480" height="1" fill="#000000"/>
<rect y="359" width="480" height="1" fill="#000000"/>
<g transform="translate(0.000000,360.000000) scale(0.100000,-0.100000)"
fill="#000000" stroke="none">
<path d="M4041 3331 c-93 -59 -214 -151 -303 -231 -26 -23 -73 -60 -104 -81
-31 -22 -75 -57 -98 -79 -60 -56 -77 -69 -229 -163 -76 -47 -166 -109 -201
-136 -35 -28 -66 -51 -69 -51 -3 0 -3 25 0 55 5 49 3 59 -17 80 -16 17 -34 25
-56 25 -32 0 -55 -15 -34 -22 6 -2 3 -17 -8 -38 -14 -29 -22 -35 -47 -33 -16
1 -68 5 -115 9 -88 7 -107 3 -267 -53 -57 -20 -84 -40 -40 -29 16 4 27 2 27
-4 0 -5 -4 -10 -9 -10 -13 0 -103 -71 -97 -77 3 -3 12 0 21 7 26 22 26 6 -1
-32 -15 -21 -28 -57 -33 -89 -8 -59 0 -112 13 -91 14 23 26 12 26 -23 0 -39
-15 -51 -54 -41 -20 5 -25 14 -30 58 -14 105 -87 221 -174 277 -63 40 -160 59
-223 43 -37 -9 -45 -8 -70 10 -17 13 -36 44 -49 79 -74 196 -224 317 -435 349
-231 35 -447 -126 -540 -403 -50 -151 -42 -306 21 -415 66 -113 226 -220 362
-244 83 -14 189 -1 266 32 45 19 49 19 79 3 20 -10 27 -18 19 -21 -8 -2 -19 1
-25 7 -27 27 -58 10 -172 -96 -109 -102 -113 -109 -100 -129 13 -20 12 -25 -9
-47 -38 -41 -67 -94 -60 -111 11 -28 43 -18 65 19 25 41 53 45 93 14 34 -26
33 -41 -5 -78 -17 -17 -26 -31 -20 -31 6 0 17 -13 25 -29 9 -16 24 -31 36 -34
17 -4 20 -13 20 -54 0 -76 27 -277 44 -328 9 -25 16 -64 16 -86 0 -32 4 -41
25 -51 22 -10 25 -18 25 -61 0 -36 -5 -53 -20 -65 -10 -10 -22 -35 -25 -57 -6
-47 11 -148 25 -153 43 -15 57 -109 20 -135 -42 -30 -34 -218 11 -232 29 -9
28 -107 -2 -126 -15 -10 -22 -29 -26 -71 -5 -54 -4 -58 16 -58 18 0 21 6 21
40 0 37 2 40 24 34 17 -4 25 -1 30 12 11 28 26 -2 26 -49 0 -31 3 -38 18 -35
13 3 17 12 15 43 -4 63 -11 81 -37 93 -22 10 -25 17 -24 58 0 36 6 51 24 67
21 18 24 29 24 98 0 89 -10 125 -39 134 -18 5 -21 15 -21 60 0 43 4 56 19 64
40 22 37 177 -5 216 -16 15 -24 34 -25 66 -3 61 28 94 96 104 63 9 151 29 240
55 38 11 73 20 77 20 3 0 -3 -24 -14 -53 -26 -66 -35 -228 -20 -358 6 -52 17
-174 23 -272 12 -162 11 -181 -4 -207 -9 -15 -17 -37 -17 -48 0 -11 -11 -33
-23 -49 -13 -15 -31 -43 -40 -60 l-15 -33 703 0 704 0 69 83 c96 115 176 224
202 275 33 64 24 149 -25 250 -33 65 -62 100 -207 248 l-169 172 36 187 c50
263 69 347 111 487 53 179 50 172 72 150 10 -10 21 -26 25 -35 11 -29 36 -31
63 -7 13 13 24 29 24 37 0 7 5 13 11 13 14 0 58 53 82 99 11 20 28 47 38 60
11 13 19 31 19 40 0 9 6 25 14 36 30 45 59 160 59 238 0 118 -36 155 -159 165
-68 5 -125 -15 -184 -65 -24 -20 -36 -23 -66 -17 l-37 7 54 51 c30 28 106 99
169 158 l115 106 65 -5 c63 -5 67 -4 120 33 30 21 78 46 105 55 72 25 79 43
31 84 -21 19 -51 37 -67 40 -45 10 -43 22 5 40 25 10 52 25 61 35 15 17 15 19
-6 34 -22 15 -22 16 -3 38 10 13 21 25 24 28 3 3 25 30 50 60 24 30 73 85 107
123 100 107 83 116 -56 28z m-1724 -1203 c-3 -8 -6 -5 -6 6 -1 11 2 17 5 13 3
-3 4 -12 1 -19z m-44 -200 c-2 -30 3 -41 27 -61 16 -14 34 -27 41 -29 7 -2
-12 -72 -54 -198 -55 -164 -68 -195 -88 -202 -13 -5 -31 -16 -40 -24 -9 -8
-81 -32 -160 -53 -79 -22 -175 -51 -213 -65 -38 -15 -70 -25 -72 -23 -2 2 -12
59 -23 127 l-20 125 26 21 27 21 -25 30 c-32 38 -56 134 -42 166 6 12 16 41
23 65 7 23 15 42 17 42 2 0 21 -11 43 -25 23 -15 67 -29 109 -35 128 -20 246
18 336 110 61 62 91 65 88 8z m-734 -897 c12 -8 12 -12 -1 -25 -15 -14 -17
-14 -22 0 -13 33 -4 42 23 25z m51 -25 c0 -3 -4 -8 -10 -11 -5 -3 -10 -1 -10
4 0 6 5 11 10 11 6 0 10 -2 10 -4z m-21 -219 c10 6 22 9 25 6 3 -4 6 -37 6
-75 0 -66 -1 -68 -20 -56 -17 11 -22 10 -30 -2 -14 -22 -23 -5 -28 55 -5 63 3
99 18 75 8 -12 13 -13 29 -3z m1171 -167 c0 -11 4 -20 9 -20 4 0 14 -34 21
-76 10 -58 11 -87 2 -123 -6 -25 -16 -73 -23 -107 -12 -65 -24 -93 -35 -82
-14 14 -17 288 -5 359 12 64 31 95 31 49z m509 -124 c1 -5 -14 -27 -32 -50
-18 -23 -62 -84 -98 -136 l-64 -94 -3 64 c-1 36 -7 75 -13 86 -8 16 -8 31 0
56 6 20 13 44 16 56 2 11 11 48 20 80 l17 60 78 -56 c44 -32 79 -61 79 -66z
m-1635 -68 c16 -60 1 -164 -17 -115 -3 9 -9 9 -25 0 -11 -6 -23 -9 -26 -6 -3
4 -6 35 -6 70 0 63 0 63 25 57 15 -4 25 -2 25 5 0 20 18 11 24 -11z m1173
-170 c-3 -35 -10 -74 -15 -88 l-9 -24 -12 21 c-9 18 -7 35 10 88 12 36 24 65
27 65 3 0 2 -28 -1 -62z m-827 -206 c0 -5 -7 -17 -15 -28 -15 -19 -20 -8 -9
20 6 17 24 22 24 8z"/>
</g>
</svg>
