<?xml version="1.0" standalone="no"?>
<!DOCTYPE svg PUBLIC "-//W3C//DTD SVG 20010904//EN"
 "http://www.w3.org/TR/2001/REC-SVG-20010904/DTD/svg10.dtd">
<svg version="1.0" xmlns="http://www.w3.org/2000/svg"
 width="480.000000pt" height="360.000000pt" viewBox="0 0 480.000000 360.000000"
 preserveAspectRatio="xMidYMid meet">
<metadata>
Created by potrace 1.16, written by Peter Selinger 2001-2019
</metadata>
<rect width="1" height="360" fill="#000000"/>
<rect x="479" width="1" height="360" fill="#000000"/>
<rect width="480" height="1" fill="#000000"/>
<rect y="359" width="480" height="1" fill="#000000"/>
<g transform="translate(0.000000,360.000000) scale(0.100000,-0.100000)"
fill="#000000" stroke="none">
<path d="M0 2309 c0 -1224 1 -1290 18 -1285 9 3 40 8 67 12 28 3 69 15 92 25
32 14 76 21 180 25 76 3 152 7 168 8 28 1 30 4 33 49 l3 47 -34 0 c-59 0 -60
6 -27 231 17 112 30 212 30 222 0 10 -10 21 -23 26 -37 14 -53 39 -39 59 14
20 13 18 40 102 27 87 45 194 38 218 -4 11 -2 59 4 108 11 102 26 124 92 134
61 9 110 -17 137 -73 25 -52 26 -61 5 -78 -11 -9 -14 -22 -9 -47 4 -24 2 -39
-9 -51 -14 -15 -14 -21 0 -61 8 -24 13 -54 10 -66 -5 -17 4 -32 36 -63 24 -23
50 -43 60 -46 22 -8 30 -32 18 -54 -5 -10 -6 -28 -3 -40 5 -21 4 -23 -25 -16
-37 8 -68 0 -76 -20 -5 -14 49 -297 80 -416 7 -31 14 -62 14 -68 0 -16 -40
-13 -46 3 -4 11 -53 36 -70 36 -2 0 -6 -16 -10 -35 -6 -32 -2 -40 30 -72 40
-40 38 -46 -28 -64 -60 -16 -139 -28 -275 -39 -69 -6 -157 -17 -196 -25 -38
-8 -118 -15 -177 -17 l-108 -3 0 -487 0 -488 913 0 913 0 50 48 c38 35 66 78
113 169 46 90 79 140 128 193 37 40 77 94 90 122 12 27 43 75 68 107 69 88 62
95 -53 50 -53 -21 -133 -51 -177 -68 l-80 -30 0 -40 c0 -23 -1 -41 -2 -41 -2
0 -9 16 -17 35 -14 32 -17 34 -41 25 -50 -19 -111 -12 -144 16 -17 14 -31 29
-31 34 0 4 35 20 78 35 146 53 166 64 152 80 -9 11 -9 15 -1 15 7 0 10 4 7 9
-9 14 32 44 50 37 9 -3 18 -15 21 -26 3 -11 7 -20 8 -20 6 0 157 67 248 109
65 30 90 47 97 66 16 41 12 52 -21 64 -25 9 -37 8 -60 -6 -25 -15 -31 -15 -54
-3 -15 8 -29 26 -31 40 -5 23 -21 31 -180 84 -189 64 -214 77 -214 107 0 28
24 34 63 16 63 -30 309 -107 339 -107 9 0 18 9 21 20 8 33 51 25 84 -14 17
-21 43 -38 67 -45 39 -10 40 -10 75 31 37 42 71 102 71 124 0 7 -11 21 -26 31
l-25 19 26 47 c36 64 97 251 84 256 -6 2 -26 17 -45 33 -26 23 -34 38 -34 64
0 50 19 82 57 96 18 7 33 15 33 19 0 4 -18 22 -40 39 -23 18 -40 39 -38 49 4
23 -10 41 -33 41 -10 0 -37 16 -59 36 -44 40 -47 56 -29 130 6 25 9 47 6 50
-18 18 -923 223 -1122 254 -33 6 -82 14 -110 19 -27 6 -55 10 -62 10 -20 1
-43 31 -43 57 0 22 4 24 49 24 95 0 461 -87 1131 -270 168 -45 186 -48 205
-35 124 92 186 112 294 95 216 -33 274 -61 241 -113 -13 -21 -9 -26 93 -112 9
-8 17 -26 17 -40 0 -20 7 -26 43 -35 82 -21 101 -31 134 -68 36 -40 87 -135
81 -151 -3 -10 -98 58 -153 109 -36 33 -86 60 -114 60 -29 0 -38 -58 -17 -111
16 -40 16 -43 -8 -94 -18 -39 -38 -64 -80 -94 l-56 -42 5 -147 c8 -193 14
-252 28 -252 6 0 95 45 198 100 103 55 190 100 193 100 12 0 77 -112 73 -124
-4 -11 -95 -58 -385 -199 -103 -49 -104 -50 -98 -80 9 -46 31 -74 63 -80 15
-2 91 -19 169 -36 77 -16 181 -37 230 -46 191 -33 191 -33 198 -67 4 -21 2
-35 -6 -40 -34 -23 -254 5 -548 70 -24 5 -24 5 8 -39 18 -24 64 -72 102 -106
38 -34 84 -79 102 -100 17 -21 63 -71 102 -111 63 -64 70 -76 70 -110 -1 -55
-88 -192 -122 -192 -8 0 -28 -12 -45 -26 -21 -18 -38 -24 -56 -21 -27 6 -82
-15 -101 -38 -6 -7 -8 -25 -4 -39 l6 -26 834 0 834 0 0 1800 0 1800 -900 0
-900 0 0 -30 c0 -16 5 -30 10 -30 6 0 10 -6 10 -14 0 -7 31 -36 68 -64 77 -57
151 -134 264 -272 173 -214 220 -249 414 -314 45 -15 90 -34 100 -42 32 -26
-143 -11 -241 20 -124 40 -190 89 -410 310 -110 111 -217 210 -237 221 l-37
19 -37 -37 c-80 -79 -187 -105 -287 -67 -67 25 -102 64 -156 172 -40 80 -38
78 -133 107 -66 21 -86 21 -1198 21 l-1130 0 0 -1291z m4272 999 c-15 -15 -26
-4 -18 18 5 13 9 15 18 6 9 -9 9 -15 0 -24z m-232 -653 c7 -9 10 -18 6 -22 -8
-9 -56 14 -56 27 0 15 36 12 50 -5z m-1470 -115 c0 -5 -4 -10 -10 -10 -5 0
-10 5 -10 10 0 6 5 10 10 10 6 0 10 -4 10 -10z m1950 -1199 c0 -12 -20 -25
-27 -18 -7 7 6 27 18 27 5 0 9 -4 9 -9z"/>
<path d="M624 1186 c-6 -17 32 -86 47 -86 6 0 9 21 7 48 -3 40 -6 47 -26 50
-13 2 -24 -3 -28 -12z"/>
<path d="M2080 99 c-36 -44 -66 -84 -68 -90 -2 -5 179 -9 470 -9 460 0 474 1
475 19 2 29 -22 33 -93 14 -59 -16 -68 -16 -107 -1 -37 14 -46 14 -63 1 -20
-15 -88 -10 -111 9 -9 7 -22 7 -41 -1 -23 -10 -38 -9 -77 4 -26 9 -56 14 -66
12 -10 -3 -30 3 -43 14 -13 10 -27 19 -31 19 -16 0 -122 55 -138 72 -10 10
-23 18 -30 17 -7 0 -41 -36 -77 -80z"/>
</g>
</svg>
