<?xml version="1.0" standalone="no"?>
<!DOCTYPE svg PUBLIC "-//W3C//DTD SVG 20010904//EN"
 "http://www.w3.org/TR/2001/REC-SVG-20010904/DTD/svg10.dtd">
<svg version="1.0" xmlns="http://www.w3.org/2000/svg"
 width="480.000000pt" height="360.000000pt" viewBox="0 0 480.000000 360.000000"
 preserveAspectRatio="xMidYMid meet">
<metadata>
Created by potrace 1.16, written by Peter Selinger 2001-2019
</metadata>
<rect width="1" height="360" fill="#000000"/>
<rect x="479" width="1" height="360" fill="#000000"/>
<rect width="480" height="1" fill="#000000"/>
<rect y="359" width="480" height="1" fill="#000000"/>
<g transform="translate(0.000000,360.000000) scale(0.100000,-0.100000)"
fill="#000000" stroke="none">
<path d="M1793 2628 c-37 -52 -53 -156 -29 -194 9 -13 21 -22 26 -19 10 6 25
-33 16 -42 -3 -3 3 -18 13 -32 10 -14 21 -36 25 -48 4 -13 13 -20 21 -17 9 4
12 0 9 -13 -3 -11 -19 -24 -35 -30 -26 -10 -29 -14 -18 -31 10 -16 7 -26 -24
-67 -21 -26 -37 -53 -37 -59 0 -6 -9 -22 -20 -36 -11 -14 -20 -41 -20 -62 0
-30 5 -41 28 -55 15 -10 30 -22 34 -28 15 -20 8 -96 -12 -135 -11 -22 -20 -47
-20 -57 0 -18 -13 -61 -55 -184 -63 -180 -155 -737 -155 -941 0 -53 2 -59 33
-82 71 -54 291 -137 318 -120 5 3 9 -4 9 -15 0 -11 -5 -23 -11 -27 -7 -4 -75
-13 -153 -20 -203 -19 -231 -32 -197 -94 18 -34 82 -68 129 -69 13 -1 37 -8
55 -18 24 -12 61 -16 144 -17 90 -2 115 -5 131 -19 12 -11 36 -17 71 -17 73 0
124 30 153 88 l21 45 -35 33 c-25 22 -50 35 -82 39 -38 6 -48 13 -61 38 -8 16
-15 34 -15 38 0 4 24 15 53 24 28 10 71 29 94 43 37 23 42 32 48 72 3 25 1 81
-5 125 -6 44 -17 186 -25 315 -16 256 -32 365 -72 510 -34 124 -30 195 19 308
24 57 23 71 -8 144 -14 33 -23 70 -20 82 3 12 -2 30 -10 40 -8 11 -14 32 -14
48 0 34 -45 139 -67 156 -19 14 -6 34 24 37 50 4 93 66 93 134 0 45 -43 132
-93 186 l-45 50 -63 -1 c-35 0 -81 -3 -101 -7 -23 -4 -38 -3 -38 3 0 14 -16
12 -27 -2z m257 -801 c0 -26 -16 -54 -26 -45 -10 10 6 79 17 73 5 -4 9 -16 9
-28z"/>
</g>
</svg>
