<?xml version="1.0" standalone="no"?>
<!DOCTYPE svg PUBLIC "-//W3C//DTD SVG 20010904//EN"
 "http://www.w3.org/TR/2001/REC-SVG-20010904/DTD/svg10.dtd">
<svg version="1.0" xmlns="http://www.w3.org/2000/svg"
 width="480.000000pt" height="360.000000pt" viewBox="0 0 480.000000 360.000000"
 preserveAspectRatio="xMidYMid meet">
<metadata>
Created by potrace 1.16, written by Peter Selinger 2001-2019
</metadata>
<rect width="1" height="360" fill="#000000"/>
<rect x="479" width="1" height="360" fill="#000000"/>
<rect width="480" height="1" fill="#000000"/>
<rect y="359" width="480" height="1" fill="#000000"/>
<g transform="translate(0.000000,360.000000) scale(0.100000,-0.100000)"
fill="#000000" stroke="none">
<path d="M3270 3463 c-52 -13 -103 -31 -112 -40 -9 -8 -23 -41 -29 -72 -19
-86 -21 -88 -91 -96 -140 -16 -218 -56 -328 -167 -73 -75 -97 -117 -109 -195
-4 -32 -12 -67 -15 -78 -6 -17 -4 -16 15 5 l22 25 -7 -25 c-15 -50 -25 -106
-25 -135 l0 -30 14 30 13 30 1 -27 c1 -35 11 -59 22 -52 5 3 9 -4 9 -15 0 -12
5 -21 10 -21 6 0 10 -7 10 -15 0 -8 5 -15 10 -15 6 0 10 13 10 29 0 50 17 44
24 -8 8 -64 3 -76 -50 -100 -24 -12 -44 -25 -44 -31 0 -5 14 -25 31 -44 25
-29 29 -40 24 -69 -5 -24 -2 -37 9 -46 9 -7 14 -17 11 -21 -3 -4 2 -21 10 -36
8 -16 15 -43 15 -60 0 -54 27 -68 119 -61 63 5 82 3 91 -8 7 -8 15 -54 17
-103 l5 -87 -68 -57 c-38 -31 -84 -73 -102 -92 -19 -20 -40 -36 -47 -36 -29 0
-82 -59 -93 -103 -6 -24 -24 -55 -41 -71 -17 -16 -38 -51 -47 -78 -9 -27 -22
-52 -29 -54 -22 -9 -38 -61 -32 -102 6 -35 2 -42 -58 -112 -54 -63 -64 -79
-59 -103 3 -15 1 -27 -4 -27 -11 0 -34 65 -76 211 -13 48 -30 98 -37 110 -13
25 -14 247 -1 261 4 4 66 -8 137 -26 173 -44 205 -49 205 -36 0 14 -79 49
-233 105 -65 24 -120 45 -121 47 -2 1 -13 25 -25 51 -18 37 -35 55 -75 77 -47
28 -56 29 -121 23 -38 -3 -82 -12 -97 -19 -38 -19 -75 -19 -137 -1 -65 20 -61
20 -61 6 0 -12 55 -61 79 -70 10 -4 21 -31 31 -80 14 -70 17 -74 48 -83 29 -8
39 -20 68 -82 28 -60 36 -94 49 -206 9 -73 19 -151 24 -173 38 -178 81 -397
81 -413 0 -19 -56 11 -107 57 -44 39 -197 125 -314 176 -40 17 -260 203 -444
375 -42 39 -57 47 -90 48 -22 0 -46 -4 -52 -10 -7 -6 -19 -8 -27 -5 -11 4 -24
-11 -46 -50 -36 -68 -37 -76 -8 -96 13 -9 44 -35 70 -59 101 -94 191 -173 204
-181 8 -5 11 -18 8 -35 -5 -22 4 -40 40 -89 25 -33 46 -68 46 -78 0 -9 5 -26
11 -38 23 -43 119 -165 135 -171 10 -4 36 -4 59 0 27 4 58 0 86 -9 25 -9 98
-23 164 -32 159 -21 175 -27 223 -84 33 -39 67 -62 191 -125 83 -42 151 -79
151 -82 0 -3 -7 -19 -16 -37 -22 -41 -22 -129 0 -161 9 -14 16 -43 16 -66 l0
-40 635 0 635 0 0 34 c0 51 -107 193 -137 182 -20 -8 -24 7 -50 177 -18 114
-26 211 -27 327 -2 106 -7 173 -14 187 -16 29 -46 45 -68 36 -14 -5 -16 -3
-11 11 4 10 7 26 7 37 0 19 1 19 31 -3 26 -20 43 -23 114 -23 90 0 105 6 85
30 -11 13 -4 15 54 15 60 0 81 9 56 25 -24 15 -6 25 48 26 31 0 66 4 77 8 19
8 19 8 -3 22 -28 17 -28 35 -1 42 12 3 19 12 17 23 -2 9 3 19 10 21 8 3 12 -9
12 -41 0 -52 10 -59 31 -18 l13 27 4 -33 c2 -18 -4 -52 -13 -75 -20 -53 -45
-186 -36 -191 4 -3 26 20 50 51 23 30 44 53 46 51 2 -2 -2 -28 -10 -56 -16
-64 -39 -231 -32 -239 3 -3 13 9 22 26 8 17 18 31 22 31 3 0 2 -54 -2 -120 -4
-66 -3 -120 1 -120 5 0 25 19 45 42 l36 42 -20 -98 c-10 -53 -17 -100 -14
-103 8 -7 66 35 105 77 24 25 32 30 28 15 -3 -11 -14 -55 -26 -97 -25 -96 -25
-106 -2 -85 26 24 33 21 22 -9 -22 -57 -7 -72 25 -24 l20 30 5 -27 c5 -26 8
-23 24 27 23 68 65 154 73 147 3 -3 -6 -41 -20 -84 -23 -68 -67 -277 -67 -313
0 -10 4 -9 17 1 11 10 14 10 9 2 -6 -10 36 -13 197 -13 l204 0 12 88 c12 87
24 123 36 110 4 -4 0 -38 -9 -77 -9 -38 -16 -81 -16 -95 0 -25 2 -26 70 -26
l70 0 0 818 0 818 -57 28 c-32 15 -116 66 -188 113 -171 112 -367 306 -465
460 -36 56 -67 102 -71 103 -3 0 -15 -22 -26 -50 -12 -27 -30 -53 -40 -57 -20
-8 -43 -34 -85 -97 -18 -27 -29 -35 -32 -25 -2 7 -12 91 -21 184 -15 159 -15
177 0 258 19 101 14 179 -16 272 -11 33 -24 80 -30 105 -15 67 -64 144 -132
210 l-61 58 12 40 c19 63 15 81 -34 137 -52 62 -130 115 -165 114 -13 0 -67
-12 -119 -26z m497 -1240 c-3 -10 -5 -4 -5 12 0 17 2 24 5 18 2 -7 2 -21 0
-30z m11 -173 c11 -32 10 -33 -3 -16 -8 11 -15 29 -15 40 0 25 4 19 18 -24z
m-128 -194 c-20 -18 -22 -19 -16 -3 3 10 6 33 6 50 l1 32 15 -29 c15 -27 15
-30 -6 -50z m-150 -96 c13 -8 12 -11 -5 -24 -33 -25 -43 -18 -29 18 7 18 13
19 34 6z m-95 -32 c13 -32 12 -48 -5 -48 -11 0 -31 60 -24 71 9 15 14 10 29
-23z m-26 -942 c13 -52 34 -316 29 -366 -3 -32 -6 -28 -41 60 -20 52 -37 110
-37 128 0 56 23 222 30 222 4 0 13 -20 19 -44z m-881 -93 c-2 -32 -6 -37 -23
-35 -35 6 -40 20 -15 47 32 34 42 31 38 -12z"/>
</g>
</svg>
