<?xml version="1.0" standalone="no"?>
<!DOCTYPE svg PUBLIC "-//W3C//DTD SVG 20010904//EN"
 "http://www.w3.org/TR/2001/REC-SVG-20010904/DTD/svg10.dtd">
<svg version="1.0" xmlns="http://www.w3.org/2000/svg"
 width="480.000000pt" height="360.000000pt" viewBox="0 0 480.000000 360.000000"
 preserveAspectRatio="xMidYMid meet">
<metadata>
Created by potrace 1.16, written by Peter Selinger 2001-2019
</metadata>
<rect width="1" height="360" fill="#000000"/>
<rect x="479" width="1" height="360" fill="#000000"/>
<rect width="480" height="1" fill="#000000"/>
<rect y="359" width="480" height="1" fill="#000000"/>
<g transform="translate(0.000000,360.000000) scale(0.100000,-0.100000)"
fill="#000000" stroke="none">
<path d="M3018 3431 c-40 -33 -56 -74 -64 -158 -4 -54 -1 -80 15 -127 12 -33
21 -63 21 -67 0 -5 -22 -15 -50 -23 -128 -38 -287 -147 -368 -252 -54 -69 -67
-97 -92 -194 -23 -90 -40 -129 -64 -149 -26 -22 -18 -35 9 -17 24 16 25 16 25
-4 0 -13 4 -19 11 -14 9 5 10 -15 5 -72 -6 -69 -5 -77 8 -61 13 16 15 15 24
-20 8 -31 10 -33 12 -13 1 23 3 22 14 -10 7 -19 18 -36 24 -36 7 -1 15 -3 20
-4 4 -1 11 -2 15 -1 4 1 11 -7 14 -16 7 -20 40 -46 60 -49 7 -1 13 7 13 17 0
11 3 18 8 15 23 -14 -12 -130 -44 -143 -24 -9 -15 -41 19 -64 39 -28 47 -38
47 -64 0 -11 8 -28 18 -37 36 -36 50 -54 71 -95 11 -23 30 -48 42 -56 18 -14
19 -19 11 -68 -11 -57 -9 -69 11 -69 9 0 17 -41 25 -130 l13 -131 -35 -67
c-19 -37 -37 -78 -40 -92 -11 -45 -19 -51 -55 -39 -38 13 -87 6 -113 -17 -15
-15 -17 -28 -12 -103 5 -75 4 -89 -12 -106 -18 -19 -118 -138 -119 -141 0 -1
-45 13 -100 31 -103 34 -399 106 -446 108 -19 2 -37 15 -58 41 -26 33 -31 47
-31 95 0 68 -22 156 -48 191 -10 14 -34 36 -53 48 -35 25 -50 25 -176 6 l-42
-6 -3 38 c-4 50 -23 42 -23 -10 l0 -40 -72 -29 c-100 -40 -116 -58 -138 -150
-15 -66 -16 -84 -6 -119 7 -22 14 -59 17 -80 2 -22 10 -53 18 -68 24 -49 99
-130 138 -151 44 -22 188 -59 236 -59 37 0 37 -2 17 -61 -9 -24 -36 -120 -60
-213 -24 -93 -60 -203 -80 -244 -19 -41 -35 -76 -35 -78 0 -2 255 -3 567 -2
l568 3 19 68 c11 37 23 67 26 67 4 0 3 -24 -1 -52 -4 -29 -8 -61 -8 -70 -1
-17 38 -18 684 -18 377 0 685 3 685 8 -1 8 -69 136 -115 216 -24 41 -28 60
-29 129 l-1 80 65 17 c73 19 140 54 118 63 -9 4 -3 15 20 35 17 16 29 32 25
35 -17 18 -96 5 -169 -28 -42 -19 -80 -33 -84 -30 -8 5 -9 14 -29 158 -5 42
-13 82 -16 87 -3 5 -7 28 -9 52 -3 24 -12 77 -21 118 -9 41 -13 85 -10 98 4
16 0 31 -10 43 -20 21 -13 90 10 109 7 6 16 29 20 51 8 47 19 49 40 8 9 -16
24 -38 34 -48 10 -10 21 -25 23 -32 5 -11 8 -12 19 -1 11 10 10 27 -9 100 -19
77 -48 319 -39 328 2 2 20 -38 40 -89 41 -105 116 -247 130 -247 5 0 6 7 3 15
-3 9 -13 42 -21 75 -8 33 -18 67 -22 77 -6 16 -5 17 12 3 17 -14 18 -13 12 25
-3 22 -8 56 -12 75 l-7 35 23 -35 c12 -19 35 -55 50 -80 25 -40 29 -42 29 -20
0 14 -6 61 -14 105 -8 44 -19 159 -26 255 -26 399 -52 560 -131 790 -28 80
-56 177 -63 216 -23 120 -105 263 -183 317 -57 39 -149 60 -208 47 -62 -14
-78 -8 -120 46 -18 25 -78 92 -132 148 l-98 103 -73 0 c-65 0 -78 -3 -104 -26z
m82 -1816 c0 -8 -4 -15 -10 -15 -5 0 -10 7 -10 15 0 8 5 15 10 15 6 0 10 -7
10 -15z m749 -343 c-1 -83 -18 -95 -18 -14 -1 46 3 71 9 67 6 -3 10 -27 9 -53z
m-144 -224 c5 -24 10 -50 11 -58 1 -8 8 -40 13 -70 6 -30 13 -80 15 -110 l3
-55 -23 68 c-13 38 -26 103 -29 145 -4 43 -8 87 -11 100 -2 12 0 22 5 22 4 0
12 -19 16 -42z"/>
</g>
</svg>
