<?xml version="1.0" standalone="no"?>
<!DOCTYPE svg PUBLIC "-//W3C//DTD SVG 20010904//EN"
 "http://www.w3.org/TR/2001/REC-SVG-20010904/DTD/svg10.dtd">
<svg version="1.0" xmlns="http://www.w3.org/2000/svg"
 width="480.000000pt" height="360.000000pt" viewBox="0 0 480.000000 360.000000"
 preserveAspectRatio="xMidYMid meet">
<metadata>
Created by potrace 1.16, written by Peter Selinger 2001-2019
</metadata>
<rect width="1" height="360" fill="#000000"/>
<rect x="479" width="1" height="360" fill="#000000"/>
<rect width="480" height="1" fill="#000000"/>
<rect y="359" width="480" height="1" fill="#000000"/>
<g transform="translate(0.000000,360.000000) scale(0.100000,-0.100000)"
fill="#000000" stroke="none">
<path d="M0 1800 l0 -1800 903 0 902 0 21 88 c56 225 106 408 143 521 46 140
46 141 26 141 -9 0 -12 -6 -9 -15 9 -24 -21 -18 -54 10 -45 37 -50 76 -18 137
17 33 23 55 17 62 -6 7 6 61 34 151 102 329 123 403 129 456 4 30 14 68 22 84
10 19 11 31 5 33 -17 6 -13 30 9 60 17 23 22 49 27 148 3 66 3 141 -1 166 -6
43 -9 46 -34 45 -30 -2 -48 27 -89 147 -26 77 -23 103 14 117 32 12 169 12
212 -1 20 -6 39 -6 45 -1 13 11 157 18 172 9 6 -4 35 -1 65 7 75 20 193 20
213 -1 22 -22 20 -43 -15 -147 -34 -104 -43 -117 -75 -117 -21 0 -22 -3 -14
-24 10 -27 4 -89 -12 -123 -14 -29 -5 -198 12 -218 7 -9 16 -32 21 -53 4 -20
12 -55 18 -77 6 -22 11 -57 11 -77 0 -47 46 -219 109 -408 34 -102 46 -149 39
-158 -7 -8 -4 -27 11 -61 30 -70 27 -97 -13 -137 -38 -38 -52 -42 -59 -16 -4
15 -5 15 -6 1 0 -9 22 -86 49 -170 28 -84 57 -185 65 -225 8 -39 28 -123 45
-188 16 -65 30 -128 30 -142 l0 -24 915 0 915 0 0 1800 0 1800 -2400 0 -2400
0 0 -1800z"/>
<path d="M2770 873 c1 -18 18 -35 24 -24 4 6 4 16 1 21 -7 12 -25 13 -25 3z"/>
</g>
</svg>
