<?xml version="1.0" standalone="no"?>
<!DOCTYPE svg PUBLIC "-//W3C//DTD SVG 20010904//EN"
 "http://www.w3.org/TR/2001/REC-SVG-20010904/DTD/svg10.dtd">
<svg version="1.0" xmlns="http://www.w3.org/2000/svg"
 width="480.000000pt" height="360.000000pt" viewBox="0 0 480.000000 360.000000"
 preserveAspectRatio="xMidYMid meet">
<metadata>
Created by potrace 1.16, written by Peter Selinger 2001-2019
</metadata>
<rect width="1" height="360" fill="#000000"/>
<rect x="479" width="1" height="360" fill="#000000"/>
<rect width="480" height="1" fill="#000000"/>
<rect y="359" width="480" height="1" fill="#000000"/>
<g transform="translate(0.000000,360.000000) scale(0.100000,-0.100000)"
fill="#000000" stroke="none">
<path d="M2340 2797 c-54 -18 -76 -33 -130 -88 -43 -44 -78 -71 -105 -79 -239
-75 -307 -362 -179 -755 104 -320 306 -481 531 -421 28 8 64 20 80 29 15 8 66
35 113 60 106 56 130 64 130 42 0 -22 40 -108 47 -101 3 3 -1 22 -9 43 -9 21
-13 46 -9 55 5 16 43 -47 91 -152 4 -8 16 -15 26 -15 38 0 29 55 -26 155 -27
51 -49 94 -48 95 2 1 32 16 68 33 76 36 176 129 220 207 89 156 76 325 -41
499 -104 156 -239 278 -381 346 -154 73 -259 86 -378 47z"/>
</g>
</svg>
