<?xml version="1.0" standalone="no"?>
<!DOCTYPE svg PUBLIC "-//W3C//DTD SVG 20010904//EN"
 "http://www.w3.org/TR/2001/REC-SVG-20010904/DTD/svg10.dtd">
<svg version="1.0" xmlns="http://www.w3.org/2000/svg"
 width="480.000000pt" height="360.000000pt" viewBox="0 0 480.000000 360.000000"
 preserveAspectRatio="xMidYMid meet">
<metadata>
Created by potrace 1.16, written by Peter Selinger 2001-2019
</metadata>
<rect width="1" height="360" fill="#000000"/>
<rect x="479" width="1" height="360" fill="#000000"/>
<rect width="480" height="1" fill="#000000"/>
<rect y="359" width="480" height="1" fill="#000000"/>
<g transform="translate(0.000000,360.000000) scale(0.100000,-0.100000)"
fill="#000000" stroke="none">
<path d="M0 1800 l0 -1800 2400 0 2400 0 0 1800 0 1800 -2400 0 -2400 0 0
-1800z m2995 990 c55 -52 69 -135 24 -147 -10 -3 -22 -17 -25 -32 -4 -14 -13
-31 -21 -38 -16 -12 -11 -17 30 -27 23 -6 27 -11 27 -44 0 -51 22 -79 86 -107
60 -27 75 -48 50 -73 -14 -14 -19 -15 -39 -3 -12 8 -30 19 -39 25 -14 8 -22 7
-35 -7 -27 -27 -18 -100 22 -179 47 -93 113 -332 101 -364 -7 -19 -26 -18 -26
1 0 8 -5 15 -11 15 -8 0 -9 -24 -4 -79 7 -75 6 -80 -15 -91 -42 -22 -13 -20
61 5 165 57 317 96 452 115 78 12 145 26 149 33 5 7 22 40 40 74 54 105 101
168 127 171 62 9 70 -100 17 -207 -28 -54 -34 -76 -29 -107 4 -37 2 -40 -35
-63 -39 -24 -71 -75 -121 -192 -24 -57 -183 -306 -262 -409 -83 -110 -106
-128 -174 -142 l-58 -11 -29 32 -28 32 -83 -11 c-286 -36 -359 -40 -472 -25
-110 14 -223 37 -280 57 -25 8 -66 1 -251 -46 l-220 -56 -64 21 c-126 41 -289
133 -444 249 -90 68 -94 70 -152 70 -39 0 -83 10 -129 27 -47 17 -91 26 -136
27 l-67 1 -51 64 c-28 35 -71 81 -96 104 -82 71 -132 187 -87 201 34 11 240
35 447 52 l210 17 250 -41 c475 -79 752 -113 1040 -128 l125 -7 8 24 c9 23 5
25 -83 55 -171 59 -180 70 -119 149 19 26 34 48 32 50 -2 1 -11 6 -20 11 -15
8 -14 13 10 46 15 20 54 70 88 110 33 40 81 102 105 138 40 58 44 70 43 120
-1 30 -7 78 -14 105 -7 28 -13 76 -14 107 -1 64 -12 81 -51 81 -23 0 -26 3
-20 24 5 20 -3 32 -46 71 -29 26 -57 47 -62 47 -13 0 -33 -69 -59 -205 -16
-88 -21 -149 -20 -263 1 -99 -3 -168 -13 -210 -19 -79 -19 -129 -1 -172 17
-40 8 -45 -20 -14 -17 19 -19 38 -20 168 0 80 -4 185 -8 233 -10 100 5 273 37
418 11 52 20 109 20 127 1 19 7 35 15 38 14 5 29 -9 115 -109 19 -22 39 -36
45 -32 6 3 18 30 26 59 19 66 45 92 84 84 16 -3 42 -2 58 3 39 12 84 4 109
-20z"/>
<path d="M2877 1584 c-14 -14 -7 -25 13 -22 12 2 21 8 21 13 0 12 -24 18 -34
9z"/>
</g>
</svg>
