<?xml version="1.0" standalone="no"?>
<!DOCTYPE svg PUBLIC "-//W3C//DTD SVG 20010904//EN"
 "http://www.w3.org/TR/2001/REC-SVG-20010904/DTD/svg10.dtd">
<svg version="1.0" xmlns="http://www.w3.org/2000/svg"
 width="480.000000pt" height="360.000000pt" viewBox="0 0 480.000000 360.000000"
 preserveAspectRatio="xMidYMid meet">
<metadata>
Created by potrace 1.16, written by Peter Selinger 2001-2019
</metadata>
<rect width="1" height="360" fill="#000000"/>
<rect x="479" width="1" height="360" fill="#000000"/>
<rect width="480" height="1" fill="#000000"/>
<rect y="359" width="480" height="1" fill="#000000"/>
<g transform="translate(0.000000,360.000000) scale(0.100000,-0.100000)"
fill="#000000" stroke="none">
<path d="M829 3533 c16 -38 52 -114 80 -169 51 -99 53 -104 61 -220 5 -66 18
-180 29 -254 34 -227 26 -294 -49 -401 -23 -33 -63 -114 -90 -182 -26 -67 -62
-153 -80 -191 -25 -55 -34 -93 -45 -194 -8 -69 -24 -156 -36 -192 l-22 -67 37
-52 c20 -30 36 -59 36 -66 0 -7 -15 -36 -34 -64 -39 -57 -33 -74 13 -35 36 30
39 23 11 -24 -23 -37 -26 -62 -7 -62 17 0 30 11 50 40 13 18 17 20 17 8 0 -10
-5 -28 -11 -42 -7 -14 -9 -32 -5 -42 6 -15 9 -15 31 6 14 13 25 29 25 36 0 7
4 16 10 19 6 4 7 -6 3 -26 -4 -23 -3 -30 5 -25 7 4 12 17 13 29 1 16 3 14 10
-10 7 -23 16 -33 29 -33 11 0 20 -6 20 -12 0 -9 4 -8 10 2 5 8 7 42 4 77 -5
50 -4 62 9 65 14 3 13 7 -2 38 -9 19 -23 45 -31 57 -11 17 -11 27 -3 45 6 13
14 59 17 103 6 85 52 316 64 325 4 3 12 16 18 29 7 18 10 -5 10 -92 0 -79 3
-120 12 -129 6 -6 12 -22 12 -35 0 -34 49 -98 95 -124 27 -15 57 -23 91 -24
44 0 60 6 108 39 31 21 76 56 100 77 39 34 50 39 94 39 28 0 63 5 79 11 22 8
49 7 118 -6 84 -17 96 -17 168 -2 82 17 169 55 218 97 48 40 57 83 52 249 -4
131 -3 152 17 203 11 31 27 62 35 68 22 18 18 28 -10 24 -33 -3 -98 -56 -176
-144 -34 -39 -67 -70 -74 -70 -7 0 -20 9 -31 21 -15 17 -16 23 -6 37 7 9 30
53 51 97 84 175 80 328 -8 400 -27 21 -128 66 -145 64 -43 -5 -45 0 -14 56 26
49 29 59 18 84 -9 22 -8 41 5 92 40 159 45 213 21 226 -8 4 -16 26 -18 49 -2
23 -14 53 -25 68 -18 22 -20 32 -12 59 9 32 11 82 3 61 -3 -7 -20 2 -41 22
-30 28 -38 32 -51 22 -12 -10 -16 -10 -19 0 -4 9 -102 12 -448 12 l-444 0 28
-67z m370 -1139 c-6 -8 -18 -14 -27 -14 -13 0 -12 3 3 20 20 22 43 17 24 -6z"/>
<path d="M3760 1800 l0 -1800 521 0 522 0 -7 232 c-4 128 -9 272 -12 321 -4
61 -2 92 6 102 10 12 8 23 -9 55 -26 50 -26 61 -1 93 20 25 20 40 20 1411 l0
1386 -520 0 -520 0 0 -1800z"/>
</g>
</svg>
