<?xml version="1.0" standalone="no"?>
<!DOCTYPE svg PUBLIC "-//W3C//DTD SVG 20010904//EN"
 "http://www.w3.org/TR/2001/REC-SVG-20010904/DTD/svg10.dtd">
<svg version="1.0" xmlns="http://www.w3.org/2000/svg"
 width="480.000000pt" height="360.000000pt" viewBox="0 0 480.000000 360.000000"
 preserveAspectRatio="xMidYMid meet">
<metadata>
Created by potrace 1.16, written by Peter Selinger 2001-2019
</metadata>
<rect width="1" height="360" fill="#000000"/>
<rect x="479" width="1" height="360" fill="#000000"/>
<rect width="480" height="1" fill="#000000"/>
<rect y="359" width="480" height="1" fill="#000000"/>
<g transform="translate(0.000000,360.000000) scale(0.100000,-0.100000)"
fill="#000000" stroke="none">
<path d="M0 2685 l0 -916 193 8 c378 16 465 12 742 -35 501 -83 981 -136 1350
-148 195 -6 219 -5 328 16 65 13 124 28 131 34 8 6 16 25 19 42 5 27 2 33 -21
44 -25 12 -84 27 -184 49 -21 5 -44 14 -52 20 -8 7 -20 10 -26 6 -18 -11 -59
4 -70 25 -14 26 5 62 59 115 48 45 50 55 16 55 -40 0 -25 49 28 90 39 31 208
228 257 300 38 56 41 66 50 161 9 92 8 106 -10 147 -11 24 -20 59 -20 78 0 69
-26 97 -95 103 -8 0 -14 4 -14 9 5 29 -5 50 -28 63 -16 7 -55 30 -88 50 -88
52 -94 53 -106 21 -26 -65 -59 -194 -73 -288 -19 -120 -20 -225 -5 -345 11
-80 10 -95 -11 -170 -28 -105 -25 -194 8 -239 27 -35 9 -42 -30 -11 -38 30
-50 88 -49 242 1 87 -5 165 -14 209 -30 144 -14 388 40 601 15 57 24 113 21
125 -4 13 0 27 9 34 12 10 23 7 58 -13 24 -14 57 -39 73 -55 16 -17 56 -46 89
-66 l60 -36 17 21 c10 11 25 45 35 75 9 29 29 69 44 87 l27 33 103 1 c124 2
149 -9 185 -79 39 -76 25 -148 -29 -148 -9 0 -20 -15 -28 -37 -6 -21 -16 -44
-21 -50 -7 -9 -3 -15 15 -22 14 -5 32 -20 40 -31 9 -12 20 -19 26 -16 13 8 92
-24 86 -35 -6 -9 74 -35 193 -64 93 -22 108 -36 85 -76 -10 -16 -25 -31 -34
-34 -9 -3 -57 13 -106 36 -118 56 -173 79 -184 79 -6 0 -8 -18 -3 -46 5 -38 3
-51 -15 -74 -26 -36 -30 -130 -6 -150 8 -7 15 -21 15 -32 0 -21 41 -107 72
-151 11 -15 17 -34 14 -42 -3 -9 -1 -27 4 -41 6 -14 17 -68 25 -119 12 -74 13
-99 3 -120 -10 -21 -13 -23 -20 -10 -5 8 -16 15 -23 15 -12 0 -15 -18 -15 -87
0 -71 -4 -95 -21 -122 -11 -18 -18 -36 -15 -38 7 -8 151 30 461 120 291 84
299 86 480 101 l130 11 49 75 c143 219 194 273 236 250 40 -21 52 -93 26 -155
-24 -58 -394 -622 -524 -800 -139 -189 -294 -354 -522 -553 -114 -101 -187
-142 -251 -142 -25 0 -85 35 -130 77 -22 20 -38 24 -115 27 -124 6 -265 57
-409 149 l-50 32 -240 6 c-244 7 -285 12 -457 50 l-98 22 -107 -28 c-60 -15
-164 -46 -233 -68 -69 -22 -143 -40 -165 -40 -119 1 -453 167 -645 322 -70 57
-73 57 -176 65 -52 3 -91 13 -139 36 -37 17 -73 29 -80 26 -12 -4 -80 61 -123
118 l-22 29 0 -732 0 -731 2400 0 2400 0 0 1800 0 1800 -2400 0 -2400 0 0
-915z"/>
</g>
</svg>
