<?xml version="1.0" standalone="no"?>
<!DOCTYPE svg PUBLIC "-//W3C//DTD SVG 20010904//EN"
 "http://www.w3.org/TR/2001/REC-SVG-20010904/DTD/svg10.dtd">
<svg version="1.0" xmlns="http://www.w3.org/2000/svg"
 width="480.000000pt" height="360.000000pt" viewBox="0 0 480.000000 360.000000"
 preserveAspectRatio="xMidYMid meet">
<metadata>
Created by potrace 1.16, written by Peter Selinger 2001-2019
</metadata>
<rect width="1" height="360" fill="#000000"/>
<rect x="479" width="1" height="360" fill="#000000"/>
<rect width="480" height="1" fill="#000000"/>
<rect y="359" width="480" height="1" fill="#000000"/>
<g transform="translate(0.000000,360.000000) scale(0.100000,-0.100000)"
fill="#000000" stroke="none">
<path d="M0 1800 l0 -1800 1650 0 c1485 0 1650 2 1650 16 0 16 30 111 131 421
32 100 59 186 59 191 0 5 -27 17 -60 26 -32 9 -62 21 -66 27 -7 12 12 63 38
102 37 53 67 145 72 216 4 58 13 90 49 169 52 112 67 174 67 276 0 77 -41 264
-61 276 -5 4 -65 10 -132 14 -67 3 -171 13 -232 21 -60 9 -201 18 -313 22
-111 3 -205 10 -207 14 -3 4 -39 5 -80 2 -73 -6 -75 -5 -84 20 -5 14 -15 28
-21 32 -5 3 -8 10 -5 15 3 4 -2 10 -10 14 -8 3 -15 12 -15 21 0 11 -11 15 -39
15 -43 0 -71 8 -71 20 0 4 46 10 102 14 56 3 104 9 107 11 3 3 -1 22 -8 41
-20 56 1 66 33 15 37 -58 71 -73 137 -61 75 14 207 13 526 -7 227 -13 290 -14
322 -4 47 13 49 22 26 97 -12 38 -25 56 -59 81 -36 27 -44 38 -49 75 -8 60 48
180 99 210 l34 20 -20 38 c-34 66 -70 99 -158 145 -48 25 -104 61 -126 81 -35
32 -37 37 -23 51 25 26 108 20 175 -13 84 -41 151 -113 192 -206 18 -43 38
-78 43 -78 23 0 -33 182 -66 218 -12 13 -41 35 -65 49 -45 27 -82 67 -82 89 0
24 39 54 70 54 62 0 156 -72 195 -149 12 -25 30 -91 39 -145 19 -111 21 -116
43 -116 8 0 49 -19 90 -42 63 -36 77 -49 98 -93 31 -62 49 -149 70 -329 13
-109 24 -159 51 -230 19 -50 42 -113 51 -141 8 -27 26 -71 39 -98 18 -34 24
-61 22 -100 -1 -28 6 -87 15 -129 22 -104 37 -357 26 -433 -8 -54 -10 -133 -6
-205 1 -16 -3 -24 -11 -22 -11 2 -12 -7 -7 -40 10 -60 -11 -38 -35 38 l-19 59
6 -74 c6 -70 5 -74 -11 -60 -33 27 -51 50 -58 72 -4 15 -6 6 -7 -27 -1 -35 -4
-47 -14 -43 -10 4 -20 -35 -41 -157 -30 -173 -30 -179 -28 -303 l2 -83 380 0
380 0 0 1800 0 1800 -2400 0 -2400 0 0 -1800z"/>
<path d="M3749 573 c-22 -58 -114 -264 -185 -412 -41 -85 -74 -156 -74 -158 0
-1 79 -3 175 -3 l174 0 7 36 c3 19 1 104 -5 187 -6 84 -11 198 -11 254 0 91
-2 103 -19 113 -32 17 -51 12 -62 -17z"/>
</g>
</svg>
