<?xml version="1.0" standalone="no"?>
<!DOCTYPE svg PUBLIC "-//W3C//DTD SVG 20010904//EN"
 "http://www.w3.org/TR/2001/REC-SVG-20010904/DTD/svg10.dtd">
<svg version="1.0" xmlns="http://www.w3.org/2000/svg"
 width="480.000000pt" height="360.000000pt" viewBox="0 0 480.000000 360.000000"
 preserveAspectRatio="xMidYMid meet">
<metadata>
Created by potrace 1.16, written by Peter Selinger 2001-2019
</metadata>
<rect width="1" height="360" fill="#000000"/>
<rect x="479" width="1" height="360" fill="#000000"/>
<rect width="480" height="1" fill="#000000"/>
<rect y="359" width="480" height="1" fill="#000000"/>
<g transform="translate(0.000000,360.000000) scale(0.100000,-0.100000)"
fill="#000000" stroke="none">
<path d="M195 3538 c-27 -34 -57 -69 -65 -78 -46 -47 -130 -166 -129 -184 0
-20 1 -20 12 -2 18 27 120 169 132 183 5 6 39 41 74 77 48 49 60 66 45 66 -11
0 -39 -25 -69 -62z"/>
<path d="M2226 3518 c107 -112 205 -253 255 -368 7 -14 19 -41 29 -60 48 -94
100 -365 100 -520 0 -102 -24 -291 -46 -365 -8 -27 -19 -66 -25 -85 -19 -64
-82 -204 -122 -270 -131 -214 -177 -315 -223 -490 -22 -81 -26 -124 -31 -290
-4 -148 -1 -214 10 -275 19 -103 47 -212 63 -250 7 -16 22 -55 34 -85 12 -30
38 -84 58 -120 21 -36 40 -73 44 -83 11 -26 175 -224 201 -242 19 -13 159 -15
1124 -15 l1103 0 0 1618 0 1617 -84 125 c-47 69 -106 151 -131 183 l-45 57
-1197 0 -1197 0 80 -82z m1349 -2148 c193 -34 313 -268 225 -441 -57 -111
-122 -169 -219 -194 -77 -20 -106 -19 -182 5 -83 25 -156 88 -194 166 -37 75
-46 183 -21 245 27 67 92 152 138 180 58 36 141 60 178 53 8 -2 42 -8 75 -14z"/>
<path d="M1219 2906 c-105 -28 -187 -103 -245 -223 -22 -45 -29 -76 -32 -138
-4 -74 -1 -86 30 -155 73 -160 233 -246 403 -218 106 18 187 72 253 170 40 59
52 88 62 162 16 110 -28 233 -113 317 -84 81 -237 118 -358 85z"/>
<path d="M0 167 l0 -167 115 0 c63 0 115 2 115 5 0 3 -33 49 -74 103 -40 53
-92 126 -115 161 l-41 64 0 -166z"/>
</g>
</svg>
