<?xml version="1.0" standalone="no"?>
<!DOCTYPE svg PUBLIC "-//W3C//DTD SVG 20010904//EN"
 "http://www.w3.org/TR/2001/REC-SVG-20010904/DTD/svg10.dtd">
<svg version="1.0" xmlns="http://www.w3.org/2000/svg"
 width="480.000000pt" height="360.000000pt" viewBox="0 0 480.000000 360.000000"
 preserveAspectRatio="xMidYMid meet">
<metadata>
Created by potrace 1.16, written by Peter Selinger 2001-2019
</metadata>
<rect width="1" height="360" fill="#000000"/>
<rect x="479" width="1" height="360" fill="#000000"/>
<rect width="480" height="1" fill="#000000"/>
<rect y="359" width="480" height="1" fill="#000000"/>
<g transform="translate(0.000000,360.000000) scale(0.100000,-0.100000)"
fill="#000000" stroke="none">
<path d="M270 3562 c-19 -19 -34 -41 -32 -49 2 -8 -2 -21 -8 -28 -13 -16 8
-121 60 -295 36 -124 64 -282 56 -321 -4 -23 1 -42 20 -75 20 -34 28 -65 34
-136 5 -51 16 -126 25 -167 22 -103 18 -135 -18 -139 -54 -6 -151 -65 -169
-102 -31 -62 7 -87 164 -109 71 -10 117 -31 67 -31 -35 0 -43 -11 -19 -27 11
-8 27 -29 36 -46 25 -49 75 -97 101 -97 65 0 98 32 137 131 12 33 19 37 91 58
123 36 167 98 114 165 -36 46 -142 88 -221 87 -12 0 -18 8 -18 24 0 44 22 70
86 102 l64 31 11 -39 c14 -46 23 -54 75 -73 35 -12 43 -11 77 5 20 11 37 22
37 25 0 17 -23 44 -38 44 -19 0 -52 46 -72 100 -25 65 -45 75 -106 54 -21 -7
-40 -11 -42 -9 -2 2 8 31 23 64 21 46 25 64 17 74 -9 10 -8 17 0 25 6 6 9 15
5 19 -4 4 -13 1 -19 -5 -18 -18 -32 -14 -17 4 12 14 10 16 -16 12 -25 -2 -31
1 -33 19 -4 26 -28 26 -58 3 -15 -13 -15 -10 2 15 12 17 38 64 59 105 32 63
60 96 173 206 131 128 134 132 137 178 2 25 -1 46 -6 46 -5 0 -17 17 -26 37
-13 27 -27 39 -50 45 -17 5 -41 21 -53 38 -16 22 -31 30 -68 36 -26 3 -57 12
-69 20 -18 11 -71 14 -250 13 l-228 -2 -35 -35z"/>
<path d="M2400 1800 l0 -1800 853 2 852 3 17 70 c10 39 25 133 33 210 8 77 25
174 36 216 20 73 20 78 4 103 -20 30 -19 30 -53 12 -44 -23 -133 -56 -153 -56
-10 0 -21 4 -24 10 -11 18 -23 205 -14 214 21 23 5 23 -49 1 -54 -22 -171 -33
-140 -14 10 6 8 9 -6 9 -13 0 -16 5 -11 18 12 31 10 36 -12 40 -20 3 -22 6
-12 25 6 12 29 45 50 73 40 52 50 76 24 54 -9 -8 -15 -8 -15 -2 0 6 19 27 42
46 45 39 44 44 -5 20 l-32 -15 25 20 c14 11 71 43 128 72 75 38 107 59 118 80
15 29 13 33 -18 30 -24 -3 -23 8 4 36 21 22 21 24 4 55 -10 18 -16 46 -14 63
3 26 12 34 71 63 38 19 85 36 105 39 21 4 59 21 86 40 26 18 52 33 56 33 14 0
40 -36 53 -75 15 -44 13 -65 -9 -65 -18 0 -18 -14 1 -30 8 -7 19 -27 24 -44 7
-26 3 -42 -27 -97 -24 -46 -33 -74 -29 -90 4 -13 38 -56 76 -96 l70 -72 11 34
c6 19 10 45 8 57 -2 19 2 24 27 26 27 3 33 -2 53 -43 18 -37 20 -49 10 -64 -9
-15 -9 -25 0 -46 28 -60 9 -107 -79 -197 -49 -50 -52 -57 -60 -126 -5 -40 -14
-83 -18 -95 -11 -28 5 -111 50 -265 24 -82 48 -220 49 -274 0 -5 54 -8 120 -8
l120 0 0 1800 0 1800 -1200 0 -1200 0 0 -1800z m1540 -1060 c0 -5 -5 -10 -11
-10 -5 0 -7 5 -4 10 3 6 8 10 11 10 2 0 4 -4 4 -10z"/>
</g>
</svg>
