<?xml version="1.0" standalone="no"?>
<!DOCTYPE svg PUBLIC "-//W3C//DTD SVG 20010904//EN"
 "http://www.w3.org/TR/2001/REC-SVG-20010904/DTD/svg10.dtd">
<svg version="1.0" xmlns="http://www.w3.org/2000/svg"
 width="480.000000pt" height="360.000000pt" viewBox="0 0 480.000000 360.000000"
 preserveAspectRatio="xMidYMid meet">
<metadata>
Created by potrace 1.16, written by Peter Selinger 2001-2019
</metadata>
<rect width="1" height="360" fill="#000000"/>
<rect x="479" width="1" height="360" fill="#000000"/>
<rect width="480" height="1" fill="#000000"/>
<rect y="359" width="480" height="1" fill="#000000"/>
<g transform="translate(0.000000,360.000000) scale(0.100000,-0.100000)"
fill="#000000" stroke="none">
<path d="M1475 2943 c-11 -2 -38 -11 -59 -19 -36 -14 -40 -14 -48 0 -12 22
-51 20 -72 -3 -13 -14 -16 -28 -11 -54 4 -19 2 -44 -4 -55 -6 -11 -14 -37 -19
-59 -8 -34 -5 -49 14 -92 25 -53 50 -74 64 -51 5 9 9 9 14 1 9 -14 -2 -51 -15
-51 -15 0 -10 -24 9 -42 9 -9 30 -34 46 -57 17 -23 37 -41 45 -41 10 0 -3 -18
-31 -43 -53 -47 -55 -52 -32 -79 16 -17 14 -20 -27 -63 -45 -47 -119 -152
-119 -170 0 -5 5 -3 11 5 12 17 10 10 -15 -44 -22 -49 -14 -88 26 -121 16 -14
34 -25 39 -25 12 0 12 -126 0 -168 -5 -17 -23 -53 -40 -78 -21 -30 -29 -52
-25 -67 3 -13 -7 -55 -21 -96 -19 -52 -24 -76 -16 -81 9 -5 5 -31 -13 -94 -24
-82 -50 -242 -95 -581 -18 -136 -29 -264 -46 -550 -3 -55 -9 -115 -12 -132
l-5 -33 481 0 c427 0 481 2 481 15 0 9 -11 96 -25 193 -13 97 -31 254 -40 347
-9 94 -23 214 -31 267 -17 111 -104 436 -134 505 -25 57 -25 62 2 55 18 -4 13
6 -26 52 l-50 57 33 77 c45 104 46 115 26 248 -19 120 -18 121 20 138 9 4 -8
21 -29 29 -4 1 -1 32 9 69 16 65 16 67 -10 159 -14 52 -30 102 -36 112 -13 25
-1 40 27 34 21 -4 25 0 30 33 5 31 10 37 25 33 13 -4 19 0 19 10 0 9 12 18 29
22 23 5 30 13 36 41 5 27 10 34 22 30 10 -4 14 -2 10 8 -3 8 -11 32 -16 53 -6
21 -22 62 -36 90 -13 29 -22 59 -19 67 7 19 -132 175 -173 192 -30 13 -124 17
-168 7z"/>
<path d="M3300 2228 c-19 -5 -75 -21 -125 -35 -113 -32 -139 -56 -132 -120 3
-26 14 -54 26 -67 17 -18 21 -35 21 -82 l0 -59 -75 -39 c-91 -48 -144 -99
-152 -149 -8 -53 12 -93 49 -101 45 -9 125 -7 193 4 66 11 75 6 75 -43 0 -16
10 -38 25 -53 29 -29 31 -37 9 -55 -9 -7 -28 -38 -43 -68 -34 -68 -121 -311
-121 -338 0 -11 13 -58 29 -104 16 -46 32 -100 36 -119 12 -58 43 -109 70
-116 32 -8 32 -25 -1 -122 -31 -94 -58 -142 -124 -218 -39 -47 -50 -66 -50
-95 0 -19 6 -42 13 -51 14 -19 126 -58 165 -58 68 0 85 -23 85 -112 l0 -28 84
0 83 0 0 44 c0 25 4 47 9 50 10 7 21 -27 21 -66 l0 -28 74 0 74 0 7 40 c8 49
27 70 64 70 20 0 29 7 37 28 10 27 2 405 -12 548 l-6 71 33 7 c48 9 84 44 102
97 15 46 14 49 -22 156 -21 63 -50 127 -67 149 -17 22 -49 66 -72 99 -22 33
-52 73 -66 89 -14 15 -32 52 -41 82 -8 29 -20 56 -25 59 -6 4 -22 -3 -36 -14
-34 -27 -54 -27 -54 0 0 18 2 19 15 9 10 -9 15 -9 15 -1 0 6 7 11 15 11 8 0
15 4 15 9 0 5 16 26 35 47 24 26 34 46 33 64 -3 23 1 25 46 30 43 4 50 8 53
30 5 42 25 69 75 105 43 32 48 39 48 74 0 52 -37 97 -93 112 -25 7 -79 9 -135
6 l-93 -5 -26 40 c-17 24 -28 56 -29 81 -1 23 -2 52 -3 64 -1 29 -40 71 -71
77 -14 2 -41 0 -60 -6z m335 -547 c-3 -5 3 -12 12 -14 10 -3 0 -5 -22 -6 -39
-1 -40 0 -15 13 32 18 32 18 25 7z m-365 -502 c27 -49 58 -182 49 -205 -12
-33 -22 -30 -64 19 -34 38 -36 46 -31 87 6 49 24 120 31 120 2 0 9 -9 15 -21z"/>
</g>
</svg>
