<?xml version="1.0" standalone="no"?>
<!DOCTYPE svg PUBLIC "-//W3C//DTD SVG 20010904//EN"
 "http://www.w3.org/TR/2001/REC-SVG-20010904/DTD/svg10.dtd">
<svg version="1.0" xmlns="http://www.w3.org/2000/svg"
 width="480.000000pt" height="360.000000pt" viewBox="0 0 480.000000 360.000000"
 preserveAspectRatio="xMidYMid meet">
<metadata>
Created by potrace 1.16, written by Peter Selinger 2001-2019
</metadata>
<rect width="1" height="360" fill="#000000"/>
<rect x="479" width="1" height="360" fill="#000000"/>
<rect width="480" height="1" fill="#000000"/>
<rect y="359" width="480" height="1" fill="#000000"/>
<g transform="translate(0.000000,360.000000) scale(0.100000,-0.100000)"
fill="#000000" stroke="none">
<path d="M2694 3568 c9 -48 63 -154 98 -194 17 -19 29 -36 27 -38 -2 -2 -35
-14 -74 -26 -38 -13 -92 -34 -120 -48 -141 -70 -305 -217 -371 -332 -66 -115
-73 -131 -89 -209 -25 -117 -53 -196 -86 -241 -28 -38 -28 -40 -7 -29 13 6 33
21 45 32 30 27 37 18 24 -30 -14 -49 -14 -66 0 -57 8 5 9 -13 4 -65 -5 -54 -4
-71 5 -71 7 0 19 8 26 18 11 15 14 12 24 -31 14 -53 29 -71 31 -35 1 17 2 19
6 5 6 -25 53 -74 53 -56 0 8 8 4 20 -11 11 -14 20 -19 20 -11 0 11 3 11 15 1
8 -7 15 -18 15 -24 0 -11 50 -39 57 -32 2 2 -3 21 -11 41 -25 58 -18 56 14 -5
21 -40 29 -49 30 -32 0 37 20 25 20 -13 0 -47 -24 -103 -60 -140 -28 -29 -29
-32 -15 -53 9 -12 35 -30 59 -40 37 -17 44 -25 49 -57 7 -45 23 -65 51 -65 28
0 46 -18 39 -37 -3 -8 7 -26 23 -41 17 -15 44 -48 62 -74 27 -39 32 -56 32
-103 0 -31 -5 -65 -11 -77 -12 -23 -7 -31 24 -33 23 -2 25 -13 12 -54 -5 -16
-4 -21 4 -17 6 4 12 -3 15 -16 3 -13 14 -70 26 -128 11 -58 23 -114 26 -126 4
-17 -9 -33 -72 -83 l-78 -62 -23 50 c-13 28 -46 74 -74 103 -27 29 -72 89
-101 133 l-52 80 -1 120 c-3 182 -48 295 -136 341 -32 16 -180 19 -244 4 -22
-5 -41 -7 -43 -5 -3 2 -7 24 -9 50 -4 27 -11 45 -18 45 -20 0 -25 -25 -14 -65
6 -21 7 -41 2 -45 -4 -4 -43 -19 -86 -35 -43 -15 -91 -38 -105 -50 -15 -12
-37 -27 -49 -34 -23 -12 -35 -46 -63 -173 -13 -59 -7 -99 46 -285 22 -77 144
-214 216 -241 30 -12 52 -26 51 -34 -1 -7 -17 -49 -37 -93 -43 -99 -62 -203
-75 -410 -5 -90 -18 -196 -29 -242 l-20 -83 338 0 337 0 27 63 c24 57 120 217
129 217 2 0 2 -63 -1 -140 l-5 -140 901 0 c495 0 903 4 906 9 3 4 27 16 53 26
55 20 163 86 163 99 0 4 -16 5 -35 2 -42 -8 -43 -1 -9 45 54 72 53 72 -12 64
-53 -6 -70 -15 -164 -85 -92 -67 -151 -100 -182 -100 -12 0 -108 199 -108 224
0 12 -6 33 -14 47 -7 15 -13 39 -13 53 0 24 -11 68 -59 241 -7 28 -18 69 -24
92 -6 23 -15 45 -20 48 -5 3 -7 12 -4 19 3 8 -2 30 -10 51 -21 50 -21 72 -1
55 8 -7 15 -9 15 -5 0 4 6 2 13 -4 8 -6 16 -8 20 -5 3 3 30 -46 60 -109 30
-63 58 -117 63 -120 14 -8 10 143 -4 173 -10 22 -42 218 -42 253 0 7 19 -21
41 -61 39 -71 63 -92 41 -35 -31 78 -71 275 -74 365 -2 53 0 94 4 92 4 -3 8
-14 8 -25 0 -63 152 -385 216 -457 l24 -27 -25 74 c-34 102 -62 208 -69 261
l-6 45 17 -30 c24 -44 151 -223 165 -231 7 -5 9 1 6 17 -36 164 -51 279 -73
529 -34 391 -41 460 -71 625 -48 266 -116 483 -223 709 -34 71 -66 147 -72
170 -31 113 -150 281 -243 343 -27 17 -79 39 -117 48 -69 17 -91 16 -180 -11
-10 -3 -34 18 -68 61 l-53 65 -335 0 -335 0 6 -32z m341 -2077 c14 -28 14 -31
-7 -46 -15 -10 -24 -11 -26 -5 -5 13 7 80 13 80 3 0 11 -13 20 -29z"/>
</g>
</svg>
