<?xml version="1.0" standalone="no"?>
<!DOCTYPE svg PUBLIC "-//W3C//DTD SVG 20010904//EN"
 "http://www.w3.org/TR/2001/REC-SVG-20010904/DTD/svg10.dtd">
<svg version="1.0" xmlns="http://www.w3.org/2000/svg"
 width="480.000000pt" height="360.000000pt" viewBox="0 0 480.000000 360.000000"
 preserveAspectRatio="xMidYMid meet">
<metadata>
Created by potrace 1.16, written by Peter Selinger 2001-2019
</metadata>
<rect width="1" height="360" fill="#000000"/>
<rect x="479" width="1" height="360" fill="#000000"/>
<rect width="480" height="1" fill="#000000"/>
<rect y="359" width="480" height="1" fill="#000000"/>
<g transform="translate(0.000000,360.000000) scale(0.100000,-0.100000)"
fill="#000000" stroke="none">
<path d="M0 1800 l0 -1800 1053 0 1053 0 12 82 c7 46 15 95 18 110 6 24 3 27
-27 32 -19 2 -62 9 -97 15 l-64 10 -56 -44 c-69 -54 -117 -60 -157 -20 -34 33
-32 71 10 150 l34 66 -64 114 c-50 88 -66 126 -71 170 -6 51 -5 58 18 83 14
15 38 50 52 79 l26 52 -182 253 c-100 139 -227 316 -281 393 l-100 139 43 39
c34 29 49 37 68 32 13 -3 31 0 39 7 32 26 323 29 434 4 106 -24 255 -72 281
-90 12 -9 30 -16 38 -16 9 0 40 -16 70 -35 30 -19 62 -35 71 -35 8 0 26 -11
39 -24 20 -23 109 -71 115 -64 4 5 25 426 25 495 0 34 -4 64 -8 67 -5 3 -9 26
-11 53 -1 26 -6 52 -12 58 -13 13 -11 28 3 19 7 -4 8 -3 4 5 -4 6 -12 9 -17 6
-5 -4 -9 -2 -9 4 0 21 -45 51 -76 51 -29 0 -34 4 -54 54 -26 66 -51 90 -80 81
-19 -6 -20 -4 -14 34 6 39 6 40 -27 43 -30 3 -34 7 -37 36 -2 19 1 47 7 64 6
17 10 33 8 34 -1 2 -24 -11 -50 -28 -33 -22 -51 -28 -58 -21 -28 28 103 186
191 233 32 17 118 40 152 40 33 0 42 13 28 40 -13 24 -47 26 -97 5 -19 -8 -52
-15 -72 -15 -83 0 -211 93 -292 211 -27 40 -49 61 -76 72 -45 18 -136 96 -157
135 -64 117 -96 209 -96 280 l0 42 -775 0 -775 0 0 -1800z"/>
<path d="M1620 3585 c0 -42 34 -174 57 -218 l25 -50 23 41 c13 23 27 52 31 64
3 13 13 32 20 43 20 28 17 86 -5 113 -16 19 -29 22 -85 22 -53 0 -66 -3 -66
-15z"/>
<path d="M3210 3569 c73 -34 94 -34 175 5 l50 24 -145 1 -145 1 65 -31z"/>
<path d="M4650 3593 c0 -3 20 -25 45 -50 49 -48 71 -84 91 -148 12 -37 13 -31
13 83 l1 122 -75 -1 c-41 -1 -75 -4 -75 -6z"/>
<path d="M1810 3378 c0 -2 7 -25 15 -53 9 -27 20 -67 26 -87 8 -33 14 -38 39
-38 23 0 36 9 60 41 16 23 27 45 25 49 -5 8 -165 93 -165 88z"/>
<path d="M1758 3320 c-13 -31 -13 -38 0 -58 12 -19 53 -50 52 -40 -1 2 -9 32
-19 68 l-18 65 -15 -35z"/>
<path d="M2007 3200 c-25 -46 -39 -58 -90 -74 -26 -8 -8 -37 73 -117 50 -49
83 -72 126 -88 l58 -22 69 22 69 22 -7 36 c-7 37 -35 81 -89 139 -35 37 -159
132 -172 132 -5 0 -21 -23 -37 -50z"/>
<path d="M4762 2703 c-50 -202 -50 -192 -3 -238 l41 -39 0 202 c0 111 -2 202
-3 202 -2 0 -18 -57 -35 -127z"/>
<path d="M2267 2779 c-92 -22 -125 -38 -178 -86 -51 -47 -50 -57 5 -27 25 14
97 44 161 68 106 39 138 58 103 63 -7 0 -48 -7 -91 -18z"/>
<path d="M2260 2700 c-63 -27 -116 -50 -117 -50 -2 0 -3 -4 -3 -8 0 -4 14 -13
32 -20 28 -10 39 -8 114 27 75 35 104 61 104 90 0 17 -6 15 -130 -39z"/>
<path d="M3458 2072 c2 -31 4 -70 4 -87 0 -16 2 -60 5 -97 5 -64 6 -67 35 -77
17 -6 52 -11 77 -11 63 0 251 22 251 30 0 7 -152 146 -205 186 -22 17 -70 49
-106 71 l-66 42 5 -57z"/>
<path d="M2504 1895 c3 -8 1 -59 -4 -112 -5 -54 -8 -99 -6 -100 2 -2 15 6 29
18 15 11 27 17 28 12 3 -21 17 47 18 85 1 33 -5 51 -26 78 -29 35 -50 45 -39
19z"/>
<path d="M3675 1763 c-62 -11 -92 -12 -134 -4 -30 6 -57 9 -60 6 -8 -8 18
-640 35 -827 10 -115 24 -205 45 -285 17 -65 35 -135 40 -156 5 -21 45 -125
88 -230 43 -106 84 -209 92 -229 l13 -38 503 0 503 0 -1 518 c-1 284 -4 531
-8 547 l-6 30 -100 6 c-72 4 -121 13 -175 33 -41 15 -91 31 -110 35 -125 29
-206 75 -284 162 -70 78 -136 231 -136 315 0 35 -73 111 -119 124 -46 13 -87
11 -186 -7z"/>
<path d="M4016 1623 c37 -158 109 -267 229 -347 61 -40 61 -31 2 27 -74 72
-136 160 -186 261 -44 89 -56 105 -45 59z"/>
<path d="M4120 1615 c0 -19 58 -114 108 -176 72 -91 111 -126 201 -179 60 -36
76 -41 108 -36 21 3 60 7 86 8 27 1 50 5 53 9 5 8 -171 165 -256 229 -30 23
-104 66 -165 96 -101 50 -135 62 -135 49z"/>
<path d="M3660 23 c0 -13 5 -23 10 -23 13 0 13 11 0 30 -8 12 -10 11 -10 -7z"/>
</g>
</svg>
