<?xml version="1.0" standalone="no"?>
<!DOCTYPE svg PUBLIC "-//W3C//DTD SVG 20010904//EN"
 "http://www.w3.org/TR/2001/REC-SVG-20010904/DTD/svg10.dtd">
<svg version="1.0" xmlns="http://www.w3.org/2000/svg"
 width="480.000000pt" height="360.000000pt" viewBox="0 0 480.000000 360.000000"
 preserveAspectRatio="xMidYMid meet">
<metadata>
Created by potrace 1.16, written by Peter Selinger 2001-2019
</metadata>
<rect width="1" height="360" fill="#000000"/>
<rect x="479" width="1" height="360" fill="#000000"/>
<rect width="480" height="1" fill="#000000"/>
<rect y="359" width="480" height="1" fill="#000000"/>
<g transform="translate(0.000000,360.000000) scale(0.100000,-0.100000)"
fill="#000000" stroke="none">
<path d="M2920 3487 c-37 -65 -66 -105 -68 -95 -2 9 4 51 13 93 16 78 12 106
-9 71 -31 -51 -49 -66 -78 -66 -73 0 -116 -74 -104 -180 6 -55 26 -123 39
-136 20 -21 -1 -55 -115 -186 -37 -43 -89 -109 -114 -148 -26 -38 -50 -70 -54
-70 -4 0 -13 7 -20 15 -10 12 -10 21 -1 41 6 14 11 41 11 60 0 74 -99 131
-155 90 -16 -12 -17 -16 -6 -30 18 -21 6 -84 -21 -113 -14 -15 -19 -29 -14
-47 5 -22 2 -26 -31 -35 -21 -6 -43 -11 -50 -11 -6 0 -31 -8 -55 -19 -55 -23
-231 -172 -219 -184 5 -5 1 -23 -11 -43 -18 -30 -18 -35 -4 -40 12 -5 13 -10
5 -26 -14 -25 -4 -109 17 -150 14 -26 24 -32 50 -29 16 2 44 -43 35 -57 -4 -6
-23 -18 -43 -26 -49 -21 -54 -33 -28 -61 13 -14 20 -31 17 -39 -11 -28 -27
-17 -52 37 -67 141 -193 221 -346 220 -78 0 -155 -31 -216 -87 -22 -20 -49
-36 -60 -36 -11 0 -56 24 -99 53 -100 67 -172 90 -283 91 -154 1 -280 -46
-385 -144 -99 -93 -146 -214 -146 -376 0 -124 34 -242 102 -351 49 -79 104
-128 185 -165 129 -61 359 -45 485 33 49 30 51 30 43 7 -4 -13 -7 -34 -6 -48
0 -14 2 -50 3 -80 4 -66 27 -80 53 -31 17 35 27 38 45 16 7 -8 24 -15 38 -15
24 0 24 -1 18 -53 -4 -28 -13 -77 -21 -107 -8 -30 -19 -91 -24 -135 -6 -44
-19 -126 -31 -183 -11 -57 -20 -120 -21 -140 -2 -92 -22 -139 -84 -204 -33
-35 -69 -73 -79 -86 l-19 -22 75 6 c88 8 86 10 94 -105 10 -156 12 -161 44
-161 23 0 27 3 23 20 -4 16 0 20 17 20 13 0 24 -8 27 -20 3 -13 14 -20 29 -20
29 0 30 12 4 69 -26 57 -39 139 -30 198 6 36 14 53 36 68 15 11 70 55 121 97
92 77 129 96 116 61 -5 -15 -2 -14 18 3 13 12 35 27 49 34 24 12 24 11 -5 -20
-16 -18 -24 -30 -17 -26 19 11 14 -9 -8 -29 -11 -10 -20 -22 -20 -28 0 -8 109
86 203 176 42 40 72 51 41 15 -10 -13 -30 -36 -44 -53 l-25 -30 28 24 c56 50
24 2 -61 -89 -48 -52 -98 -111 -111 -130 -13 -19 -44 -56 -68 -81 -35 -36 -41
-48 -29 -52 9 -4 21 1 28 11 16 23 114 90 103 71 -5 -8 -33 -51 -63 -97 -30
-46 -52 -85 -50 -88 6 -5 83 49 126 89 42 41 41 26 -3 -26 -19 -22 -35 -45
-35 -51 0 -6 -14 -31 -30 -56 -49 -74 -32 -83 36 -20 24 22 49 40 56 40 7 -1
-7 -19 -32 -40 -53 -47 -33 -55 23 -9 20 17 37 26 37 21 0 -5 -7 -15 -15 -22
-8 -7 -15 -16 -15 -21 0 -13 74 -11 88 3 9 9 12 9 12 0 0 -9 157 -12 675 -12
l674 0 14 27 c8 16 41 107 73 203 70 211 76 281 32 388 -41 98 -88 159 -323
409 -237 254 -233 247 -234 363 -1 30 -5 70 -10 88 -9 29 -6 40 19 80 89 145
194 405 220 544 7 37 16 65 21 62 5 -3 9 3 9 13 1 14 5 13 21 -9 25 -34 52
-36 66 -5 66 138 83 217 78 353 -5 113 -25 200 -61 261 -29 50 -42 58 -109 70
-57 11 -104 1 -122 -24 -12 -16 -13 -16 -13 1 0 10 19 49 41 88 23 39 66 127
96 197 52 119 183 466 183 483 0 4 -33 8 -72 8 l-73 -1 -65 -112z m-972 -1626
c2 -24 -4 -78 -12 -120 -14 -73 -24 -143 -45 -316 -10 -79 -10 -81 -59 -125
-27 -25 -93 -85 -146 -133 -109 -101 -95 -105 -136 35 l-23 78 24 19 c23 18
23 20 5 27 -21 8 -90 149 -83 168 3 7 37 17 77 23 94 15 170 53 237 121 59 58
99 134 109 205 8 61 12 69 31 65 13 -2 19 -15 21 -47z m-620 -899 c3 -36 0
-42 -17 -42 -28 0 -32 11 -20 54 13 48 33 41 37 -12z m118 -210 c30 -18 50
-22 91 -19 37 3 50 0 46 -9 -7 -18 -48 -25 -102 -18 -29 4 -51 2 -55 -4 -7
-12 8 -18 68 -27 45 -7 57 -17 36 -30 -8 -5 -7 -11 1 -21 13 -16 -4 -24 -93
-44 -59 -13 -71 -23 -41 -34 22 -9 8 -20 -50 -39 -56 -19 -67 -9 -49 43 6 17
14 58 17 93 3 34 13 102 22 151 l16 88 27 -53 c18 -38 38 -61 66 -77z m-144
43 c-3 -27 -9 -35 -24 -35 -18 0 -19 4 -13 37 9 48 14 56 29 44 7 -6 10 -25 8
-46z m1368 16 c0 -13 199 -184 260 -224 34 -22 48 -37 44 -47 -13 -32 -76
-250 -100 -345 -14 -55 -27 -102 -29 -104 -2 -2 -25 15 -52 37 -26 22 -58 45
-70 51 -13 7 -23 21 -23 33 0 12 -9 31 -20 43 -18 19 -22 43 -30 156 -16 227
-11 409 11 409 5 0 9 -4 9 -9z m-1390 -163 c0 -42 -12 -60 -33 -52 -29 11 -17
84 14 84 15 0 19 -7 19 -32z m-28 -154 c-5 -25 -26 -38 -30 -18 -5 23 6 46 21
41 6 -2 10 -13 9 -23z m-13 -331 c0 -25 -1 -25 -8 -8 -5 11 -7 23 -4 28 8 14
13 7 12 -20z m1511 -44 c0 -18 -35 -5 -38 14 -3 16 -1 17 17 7 12 -6 21 -15
21 -21z m-840 -18 c0 -12 -20 -25 -27 -18 -7 7 6 27 18 27 5 0 9 -4 9 -9z
m835 -61 c10 -11 15 -23 12 -27 -8 -7 -47 25 -47 39 0 14 16 9 35 -12z"/>
<path d="M1519 453 c-13 -16 -12 -17 4 -4 16 13 21 21 13 21 -2 0 -10 -8 -17
-17z"/>
</g>
</svg>
