<?xml version="1.0" standalone="no"?>
<!DOCTYPE svg PUBLIC "-//W3C//DTD SVG 20010904//EN"
 "http://www.w3.org/TR/2001/REC-SVG-20010904/DTD/svg10.dtd">
<svg version="1.0" xmlns="http://www.w3.org/2000/svg"
 width="480.000000pt" height="360.000000pt" viewBox="0 0 480.000000 360.000000"
 preserveAspectRatio="xMidYMid meet">
<metadata>
Created by potrace 1.16, written by Peter Selinger 2001-2019
</metadata>
<rect width="1" height="360" fill="#000000"/>
<rect x="479" width="1" height="360" fill="#000000"/>
<rect width="480" height="1" fill="#000000"/>
<rect y="359" width="480" height="1" fill="#000000"/>
<g transform="translate(0.000000,360.000000) scale(0.100000,-0.100000)"
fill="#000000" stroke="none">
<path d="M1598 3553 c12 -80 5 -302 -12 -400 -18 -99 -96 -322 -127 -362 -11
-13 -19 -28 -19 -33 0 -17 -102 -160 -164 -231 -55 -62 -109 -111 -229 -204
-103 -80 -326 -173 -502 -209 -119 -25 -423 -18 -523 12 l-22 6 0 -1066 0
-1066 1303 0 1303 0 13 83 c29 185 56 291 116 472 64 188 78 248 157 681 29
152 32 185 22 210 -7 16 -15 62 -19 101 l-7 73 -41 19 c-100 44 -119 117 -59
229 17 34 32 65 32 68 0 11 -85 -8 -167 -38 -103 -37 -134 -35 -148 10 -10 35
-21 39 -50 18 -18 -13 -21 -12 -31 13 -11 26 -16 28 -95 34 -83 6 -349 76
-414 109 -17 8 -47 18 -68 21 -22 3 -55 19 -75 34 -32 24 -45 28 -100 26 -63
-1 -63 -1 -45 19 18 20 18 20 -14 14 -37 -9 -53 9 -27 29 18 13 17 14 -8 15
-16 0 -28 4 -28 8 0 17 37 42 61 42 52 0 157 -33 231 -70 67 -35 97 -43 240
-66 90 -14 178 -32 196 -40 21 -8 50 -11 84 -7 44 5 52 10 61 33 10 27 11 27
40 11 22 -12 31 -13 34 -4 3 7 12 22 22 34 l18 22 74 -23 c57 -18 100 -23 186
-24 61 -1 115 2 119 6 4 5 -1 17 -11 29 -17 17 -17 22 -5 29 8 6 18 10 23 10
4 0 7 6 7 14 0 11 -9 13 -34 9 -32 -5 -36 -2 -61 38 -15 24 -36 57 -47 72
l-20 29 21 22 c28 30 27 34 -12 41 -34 7 -50 29 -75 104 -12 35 -6 53 48 138
12 19 10 28 -13 81 -31 69 -36 129 -10 139 20 8 232 -60 298 -96 28 -15 72
-34 98 -41 33 -9 66 -29 102 -62 68 -62 91 -120 109 -277 9 -78 22 -135 40
-176 21 -49 26 -76 26 -145 l0 -86 70 -63 c76 -67 92 -101 66 -130 -15 -16
-15 -20 -1 -31 8 -7 13 -16 10 -20 -3 -5 0 -12 5 -15 8 -5 6 -12 -4 -24 -14
-15 -12 -24 25 -94 39 -75 40 -79 64 -294 13 -120 31 -238 40 -262 8 -24 15
-63 15 -87 0 -51 14 -93 38 -110 16 -12 16 -13 -1 -19 -11 -5 -25 -1 -37 10
-17 15 -20 16 -20 3 0 -8 9 -27 20 -41 25 -31 25 -37 1 -37 -13 0 -30 16 -46
43 -29 47 -25 17 6 -44 21 -43 15 -55 -17 -34 -17 11 -24 12 -27 2 -3 -8 -13
-4 -31 12 -14 14 -26 22 -26 19 0 -12 76 -192 132 -313 106 -229 135 -298 168
-402 l33 -103 458 0 459 0 0 1800 0 1800 -1605 0 -1605 0 8 -47z"/>
<path d="M3425 1508 c-10 -88 -8 -169 4 -253 13 -82 48 -213 61 -228 4 -5 13
24 20 63 12 69 11 81 -24 249 -20 97 -36 186 -36 199 0 44 -19 21 -25 -30z"/>
</g>
</svg>
