<?xml version="1.0" standalone="no"?>
<!DOCTYPE svg PUBLIC "-//W3C//DTD SVG 20010904//EN"
 "http://www.w3.org/TR/2001/REC-SVG-20010904/DTD/svg10.dtd">
<svg version="1.0" xmlns="http://www.w3.org/2000/svg"
 width="480.000000pt" height="360.000000pt" viewBox="0 0 480.000000 360.000000"
 preserveAspectRatio="xMidYMid meet">
<metadata>
Created by potrace 1.16, written by Peter Selinger 2001-2019
</metadata>
<rect width="1" height="360" fill="#000000"/>
<rect x="479" width="1" height="360" fill="#000000"/>
<rect width="480" height="1" fill="#000000"/>
<rect y="359" width="480" height="1" fill="#000000"/>
<g transform="translate(0.000000,360.000000) scale(0.100000,-0.100000)"
fill="#000000" stroke="none">
<path d="M0 2144 l0 -1456 33 20 c578 347 1222 534 2176 632 112 11 207 23
211 25 4 3 11 25 14 49 6 37 4 48 -13 65 -19 19 -19 23 -6 61 15 42 43 95 108
199 38 61 90 169 108 221 4 14 36 102 69 195 34 94 65 193 70 220 5 28 9 163
9 301 l1 250 -34 33 -35 34 -40 -16 c-47 -19 -71 -21 -166 -9 -73 8 -118 27
-146 58 -56 64 -76 172 -48 249 36 96 137 174 225 175 65 0 71 17 48 128 -4
22 -5 22 -218 22 -184 0 -215 -2 -227 -16 -10 -12 -25 -15 -63 -11 -28 2 -52
10 -54 16 -3 8 -273 11 -1013 11 l-1009 0 0 -1456z"/>
<path d="M4260 3593 c0 -5 36 -52 80 -107 102 -126 189 -261 258 -400 39 -78
72 -129 111 -169 99 -104 91 -132 91 303 l0 380 -270 0 c-148 0 -270 -3 -270
-7z"/>
<path d="M3233 2913 c-24 -14 -45 -34 -48 -46 -2 -12 -11 -114 -20 -227 -25
-328 -41 -453 -63 -496 -33 -68 -120 -296 -146 -388 -14 -48 -33 -141 -41
-205 -8 -64 -18 -128 -21 -143 -5 -26 -4 -26 58 -32 35 -3 131 -8 214 -11
l151 -6 12 53 c6 29 27 84 46 121 19 38 35 72 35 76 0 5 -16 19 -35 32 -19 13
-35 30 -35 37 0 22 37 86 83 143 110 136 171 243 281 492 84 191 89 204 82
237 -22 110 -16 103 -116 119 -41 6 -93 20 -117 31 -53 23 -131 95 -191 177
-52 71 -64 75 -129 36z"/>
<path d="M3947 1873 c-20 -38 -35 -83 -77 -228 -18 -60 -41 -126 -51 -147 -19
-37 -19 -39 0 -100 10 -35 23 -79 28 -98 8 -32 13 -36 58 -47 87 -20 82 -25
88 85 5 103 -10 457 -22 526 l-7 41 -17 -32z"/>
<path d="M2924 1143 c-12 -2 -26 -15 -32 -29 -12 -24 -13 -24 -144 -25 -73 0
-156 -1 -184 -2 -37 -2 -57 3 -71 16 -25 21 -76 22 -260 2 -822 -90 -1411
-242 -1890 -486 -125 -64 -271 -155 -315 -197 l-28 -26 0 -198 0 -198 1924 0
1923 0 7 152 c3 84 10 257 16 383 7 179 15 256 34 350 14 66 26 125 26 131 0
15 -234 67 -270 59 -16 -3 -38 -2 -48 4 -15 8 -23 7 -33 -5 -9 -11 -23 -14
-48 -10 -20 3 -55 7 -79 9 -24 2 -56 13 -72 26 -17 12 -35 19 -41 16 -5 -4
-16 -1 -25 5 -19 17 -330 35 -390 23z"/>
</g>
</svg>
