<?xml version="1.0" standalone="no"?>
<!DOCTYPE svg PUBLIC "-//W3C//DTD SVG 20010904//EN"
 "http://www.w3.org/TR/2001/REC-SVG-20010904/DTD/svg10.dtd">
<svg version="1.0" xmlns="http://www.w3.org/2000/svg"
 width="480.000000pt" height="360.000000pt" viewBox="0 0 480.000000 360.000000"
 preserveAspectRatio="xMidYMid meet">
<metadata>
Created by potrace 1.16, written by Peter Selinger 2001-2019
</metadata>
<rect width="1" height="360" fill="#000000"/>
<rect x="479" width="1" height="360" fill="#000000"/>
<rect width="480" height="1" fill="#000000"/>
<rect y="359" width="480" height="1" fill="#000000"/>
<g transform="translate(0.000000,360.000000) scale(0.100000,-0.100000)"
fill="#000000" stroke="none">
<path d="M0 1800 l0 -1800 1110 0 c611 0 1110 3 1110 8 0 55 61 461 86 580 9
40 14 75 11 78 -3 3 -19 -14 -35 -38 -35 -50 -120 -135 -154 -154 -37 -21 -95
-17 -119 7 -18 18 -21 30 -17 79 5 64 43 137 109 209 58 65 118 51 106 -25
l-6 -35 20 25 c11 14 22 43 23 64 2 20 6 47 10 59 5 17 1 28 -19 45 -15 13
-39 34 -53 48 -15 14 -62 52 -106 84 -89 68 -108 94 -136 187 -34 112 -30 127
48 200 37 35 80 81 95 102 16 20 35 37 43 37 7 0 14 3 14 6 0 15 113 441 121
456 13 25 41 22 67 -5 l21 -22 -24 -80 c-13 -44 -45 -151 -71 -238 -46 -155
-46 -158 -28 -178 35 -39 13 -190 -34 -242 -16 -18 -15 -20 23 -53 22 -18 42
-34 45 -34 3 0 18 26 34 57 15 31 48 84 74 117 25 34 58 77 72 96 27 36 59 91
45 78 -13 -12 -35 12 -35 37 0 12 7 28 15 35 11 9 14 22 10 40 -4 20 1 32 21
50 25 24 26 27 19 115 -7 97 -25 155 -63 196 -20 23 -22 29 -11 47 11 18 10
27 -7 59 -12 21 -26 37 -32 36 -6 -2 -14 6 -17 17 -3 10 -25 40 -49 65 -37 38
-48 45 -77 43 -28 -3 -36 2 -53 29 -15 24 -27 32 -41 28 -11 -2 -27 0 -35 5
-12 8 -12 12 0 35 13 24 12 30 -5 58 -80 133 -125 263 -125 362 0 46 -15 51
-76 25 -56 -25 -185 -66 -228 -73 -99 -17 -134 117 -76 289 11 33 20 68 20 80
0 53 134 113 322 145 101 17 151 20 278 16 142 -4 168 -8 315 -46 355 -94 384
-97 472 -56 29 13 101 60 160 103 263 193 336 220 517 187 l95 -17 28 27 c28
27 117 75 141 75 6 0 12 9 12 19 0 11 7 27 16 35 14 15 -167 16 -1990 16
l-2006 0 0 -1800z"/>
<path d="M4158 3556 c4 -42 2 -46 -30 -62 -18 -9 -34 -18 -36 -19 -2 -2 9 -15
24 -30 23 -23 25 -32 19 -63 -3 -20 -8 -46 -10 -57 -2 -11 -4 -22 -4 -24 -1
-2 -7 2 -15 8 -12 10 -86 24 -86 17 0 -2 29 -32 64 -67 80 -80 140 -166 162
-232 22 -67 14 -190 -26 -401 -20 -105 -28 -172 -24 -200 11 -73 62 -152 178
-274 231 -245 333 -395 395 -584 13 -38 25 -68 27 -68 2 0 4 473 4 1050 l0
1050 -323 0 -322 0 3 -44z"/>
<path d="M3860 3410 c26 -21 70 -27 70 -10 0 6 -13 10 -29 10 -17 0 -33 5 -36
10 -3 6 -12 10 -18 10 -7 0 -1 -9 13 -20z"/>
<path d="M4074 3399 c-8 -14 11 -33 25 -25 6 4 11 11 11 16 0 13 -29 20 -36 9z"/>
<path d="M1714 3045 c-8 -19 31 -214 45 -228 20 -20 161 110 161 147 0 21 -52
52 -120 73 -30 8 -61 18 -67 20 -7 3 -16 -3 -19 -12z"/>
<path d="M1658 2995 c-41 -131 -26 -217 36 -201 23 6 23 7 10 48 -7 24 -19 72
-27 108 -9 45 -15 59 -19 45z"/>
<path d="M1925 2890 c-3 -5 1 -10 9 -10 9 0 16 5 16 10 0 6 -4 10 -9 10 -6 0
-13 -4 -16 -10z"/>
<path d="M2070 2770 c20 -37 134 -153 179 -182 25 -15 59 -28 76 -28 55 0 124
44 112 72 -4 11 -75 43 -212 98 -62 25 -156 60 -160 60 -3 0 -1 -9 5 -20z"/>
<path d="M2070 2687 c0 -8 27 -81 43 -117 6 -14 29 -51 51 -83 l39 -57 26 16
c32 21 71 55 71 64 0 3 -17 12 -37 19 -22 8 -71 46 -115 89 -43 42 -78 73 -78
69z"/>
<path d="M2335 2450 c-3 -5 -2 -10 4 -10 5 0 13 5 16 10 3 6 2 10 -4 10 -5 0
-13 -4 -16 -10z"/>
<path d="M3280 2044 c0 -3 11 -15 25 -26 18 -14 23 -26 19 -43 -8 -31 51 -89
122 -122 80 -36 364 -79 364 -55 0 23 -244 148 -422 218 -87 34 -108 39 -108
28z"/>
<path d="M3280 1931 c0 -24 90 -150 161 -225 132 -140 336 -251 497 -269 23
-3 42 -4 42 -2 0 1 -12 28 -26 60 -19 41 -28 80 -32 142 -6 105 -12 111 -143
119 -143 8 -278 32 -337 59 -28 13 -77 47 -107 76 -30 29 -55 47 -55 40z"/>
<path d="M3280 1718 c0 -18 9 -143 21 -278 20 -239 22 -252 90 -515 37 -148
80 -301 94 -339 36 -97 64 -232 71 -339 l6 -92 -21 25 c-11 14 -23 22 -26 18
-4 -3 -11 -38 -15 -76 -5 -39 -12 -82 -16 -96 l-6 -26 661 0 661 0 0 545 c0
300 -2 545 -4 545 -2 0 -31 -34 -65 -75 -41 -50 -68 -75 -82 -75 -12 0 -49 20
-83 44 -119 85 -226 222 -248 317 l-11 49 -87 -7 c-56 -4 -94 -2 -107 6 -12 6
-68 15 -125 20 -229 21 -457 131 -623 301 -42 44 -79 80 -81 80 -2 0 -4 -15
-4 -32z"/>
<path d="M3954 1675 c-18 -45 22 -177 66 -224 21 -22 28 -23 94 -16 82 7 116
14 115 24 0 7 -211 193 -247 217 -20 14 -23 14 -28 -1z"/>
<path d="M2496 1599 c-20 -29 -21 -49 -1 -49 21 0 42 47 28 61 -8 8 -15 4 -27
-12z"/>
<path d="M4416 1383 c-15 -4 -17 -12 -13 -45 8 -56 87 -211 101 -197 2 2 6 48
7 101 3 91 1 99 -21 123 -23 24 -36 28 -74 18z"/>
<path d="M4567 1323 c-11 -10 -8 -174 3 -215 10 -36 41 -65 59 -54 5 3 11 24
15 46 4 24 17 52 31 66 37 37 32 63 -23 117 -45 44 -70 56 -85 40z"/>
<path d="M4737 1121 c-20 -33 -21 -41 -7 -41 6 0 10 5 10 10 0 6 12 22 28 35
25 22 25 24 7 25 -12 0 -28 -12 -38 -29z"/>
</g>
</svg>
