<?xml version="1.0" standalone="no"?>
<!DOCTYPE svg PUBLIC "-//W3C//DTD SVG 20010904//EN"
 "http://www.w3.org/TR/2001/REC-SVG-20010904/DTD/svg10.dtd">
<svg version="1.0" xmlns="http://www.w3.org/2000/svg"
 width="480.000000pt" height="360.000000pt" viewBox="0 0 480.000000 360.000000"
 preserveAspectRatio="xMidYMid meet">
<metadata>
Created by potrace 1.16, written by Peter Selinger 2001-2019
</metadata>
<rect width="1" height="360" fill="#000000"/>
<rect x="479" width="1" height="360" fill="#000000"/>
<rect width="480" height="1" fill="#000000"/>
<rect y="359" width="480" height="1" fill="#000000"/>
<g transform="translate(0.000000,360.000000) scale(0.100000,-0.100000)"
fill="#000000" stroke="none">
<path d="M0 1800 l0 -1800 941 0 942 0 -7 38 c-18 105 -19 132 -3 132 8 0 29
-16 46 -35 25 -29 34 -34 50 -26 16 9 22 3 45 -49 l25 -60 143 0 143 1 -41 37
c-79 73 -186 223 -170 239 6 6 68 -41 151 -115 37 -33 100 -73 170 -107 l111
-55 577 0 c386 0 577 3 577 10 0 6 11 15 24 22 20 9 32 7 63 -8 35 -18 71 -19
526 -22 l487 -3 0 1801 0 1800 -2400 0 -2400 0 0 -1800z m1286 1139 c249 -64
338 -136 375 -298 6 -25 7 -61 4 -79 l-6 -34 -51 7 c-28 4 -71 16 -97 28 -77
34 -173 34 -344 -2 -149 -31 -251 -39 -262 -21 -3 6 -2 10 3 10 4 0 15 15 24
33 15 30 15 36 0 59 -15 25 -14 28 14 62 16 19 40 49 54 67 14 18 41 51 60 73
20 23 42 55 50 71 20 42 31 55 45 55 7 0 66 -14 131 -31z m2507 -2009 c14 -11
29 -20 34 -21 4 0 30 -27 57 -60 55 -69 79 -83 160 -98 64 -12 86 -23 155 -80
42 -34 114 -77 174 -103 15 -7 29 -20 32 -29 3 -9 19 -29 35 -45 34 -34 38
-54 11 -54 -53 0 -176 32 -257 68 -114 49 -214 123 -327 241 -85 88 -117 138
-117 181 0 25 11 25 43 0z"/>
</g>
</svg>
