<?xml version="1.0" standalone="no"?>
<!DOCTYPE svg PUBLIC "-//W3C//DTD SVG 20010904//EN"
 "http://www.w3.org/TR/2001/REC-SVG-20010904/DTD/svg10.dtd">
<svg version="1.0" xmlns="http://www.w3.org/2000/svg"
 width="480.000000pt" height="360.000000pt" viewBox="0 0 480.000000 360.000000"
 preserveAspectRatio="xMidYMid meet">
<metadata>
Created by potrace 1.16, written by Peter Selinger 2001-2019
</metadata>
<rect width="1" height="360" fill="#000000"/>
<rect x="479" width="1" height="360" fill="#000000"/>
<rect width="480" height="1" fill="#000000"/>
<rect y="359" width="480" height="1" fill="#000000"/>
<g transform="translate(0.000000,360.000000) scale(0.100000,-0.100000)"
fill="#000000" stroke="none">
<path d="M0 2675 c0 -586 4 -925 10 -925 24 0 127 44 142 61 9 10 63 39 120
63 l103 45 -32 11 c-18 7 -33 15 -33 19 0 10 34 41 44 41 3 0 39 16 79 36 39
20 92 39 116 43 39 5 51 13 89 61 24 30 50 63 58 73 20 25 91 23 112 -3 10
-10 45 -38 78 -62 94 -65 169 -124 277 -214 149 -124 197 -138 422 -122 53 4
88 0 145 -17 145 -42 136 -44 170 32 17 36 30 71 30 77 0 23 64 87 109 111 26
13 77 33 112 45 128 42 137 60 59 116 -27 20 -65 54 -85 77 -33 40 -35 41 -35
17 l-1 -25 -11 23 c-6 12 -14 22 -17 21 -3 0 -21 -30 -39 -67 -18 -37 -44 -80
-57 -97 l-25 -30 10 33 c7 28 7 33 -5 28 -17 -6 -20 5 -6 19 5 6 12 21 16 35
5 19 -4 13 -40 -28 -26 -29 -49 -51 -51 -49 -3 2 7 28 20 57 14 29 30 84 37
121 12 66 11 69 -12 93 -17 18 -31 23 -46 19 -21 -5 -22 -2 -17 25 6 29 5 30
-26 29 -34 -2 -45 9 -55 56 -5 25 -8 27 -39 21 -27 -5 -39 -1 -56 16 -31 31
-23 62 19 74 38 11 88 57 128 117 25 38 26 41 13 94 -17 69 -8 212 17 280 25
70 92 135 170 164 49 18 86 24 170 26 59 1 149 8 199 15 113 16 208 4 300 -40
69 -33 112 -76 149 -150 14 -28 27 -50 29 -50 2 0 16 21 32 46 33 51 78 84
118 84 65 0 204 -108 246 -190 30 -59 72 -210 66 -236 -4 -14 -21 -31 -44 -43
-45 -23 -171 -61 -201 -61 l-21 0 18 -37 c34 -68 47 -143 47 -278 0 -117 -3
-139 -29 -217 -27 -80 -35 -93 -113 -175 -49 -51 -81 -94 -79 -103 3 -8 16
-42 30 -75 28 -66 28 -66 121 -50 30 5 60 1 110 -15 99 -30 223 -37 305 -16
36 9 135 52 220 95 147 74 211 103 375 166 39 15 87 36 108 47 46 23 67 18
103 -25 67 -81 127 -137 152 -143 15 -3 52 -9 82 -14 45 -6 201 -44 273 -66
16 -5 17 43 17 905 l0 911 -2400 0 -2400 0 0 -925z"/>
<path d="M2645 2272 c-5 -23 -12 -31 -22 -28 -8 3 -17 -3 -23 -17 -5 -12 -9
-18 -9 -13 -1 5 -7 4 -13 -2 -7 -6 -17 -10 -23 -10 -5 0 -11 -5 -13 -11 -2 -6
4 -11 13 -11 17 0 17 -11 0 -66 -5 -17 3 -24 64 -52 85 -39 99 -40 108 -4 6
27 7 41 4 160 -1 68 -14 79 -34 30 l-14 -33 -15 45 -16 45 -7 -33z"/>
<path d="M720 2074 c-19 -22 -3 -34 30 -22 17 5 28 13 25 18 -9 15 -44 18 -55
4z"/>
<path d="M964 1919 c-11 -21 -33 -38 -72 -56 -62 -27 -107 -27 -163 1 -40 20
-58 20 -107 0 -32 -12 -41 -23 -51 -54 -12 -39 -68 -90 -99 -90 -7 0 -33 -14
-58 -31 -48 -33 -133 -64 -204 -75 -25 -4 -63 -15 -84 -25 -45 -21 -78 -24
-107 -9 -19 11 -19 -1 -19 -785 l0 -795 860 0 c473 0 860 1 861 3 0 1 2 42 5
92 3 50 11 115 19 145 8 30 35 141 60 245 75 310 103 415 133 507 l30 88 -15
107 c-8 60 -17 132 -21 162 -6 49 -10 55 -37 64 -40 13 -44 23 -32 62 9 30 7
37 -17 66 -24 28 -27 38 -21 75 7 48 6 49 -79 59 l-56 7 -11 -31 c-14 -39 -64
-70 -127 -78 -46 -5 -51 -3 -85 31 -28 28 -37 45 -37 71 0 18 -4 36 -8 39 -5
3 -37 6 -70 7 -55 2 -64 -1 -82 -23 -23 -30 -109 -69 -138 -63 -11 2 -29 8
-39 14 -28 14 -134 134 -130 146 2 5 32 20 67 33 36 13 66 25 68 27 5 5 -51
54 -90 77 -28 17 -28 17 -44 -13z"/>
<path d="M4200 1920 c0 -5 5 -10 10 -10 6 0 10 5 10 10 0 6 -4 10 -10 10 -5 0
-10 -4 -10 -10z"/>
<path d="M3825 1794 c-51 -18 -85 -36 -85 -44 0 -6 139 -53 250 -84 129 -37
122 -41 -185 -121 l-139 -36 -48 22 c-27 12 -59 37 -73 54 -19 25 -36 34 -81
43 -32 7 -70 12 -85 12 l-28 0 40 -86 c23 -47 38 -92 35 -100 -7 -19 -62 -18
-166 5 -106 23 -143 57 -142 131 0 3 3 15 7 28 6 22 5 22 -74 22 -67 0 -79 -2
-75 -15 4 -11 -5 -20 -31 -30 l-36 -16 21 -37 c12 -20 28 -41 36 -45 22 -12
17 -25 -17 -43 l-31 -16 7 -136 c4 -76 8 -162 10 -192 18 -328 19 -314 -24
-564 -10 -54 -8 -68 25 -179 20 -66 40 -128 44 -136 4 -9 32 -64 61 -123 l53
-108 853 0 853 0 0 663 0 663 -35 17 c-20 9 -38 24 -41 32 -4 8 -12 15 -19 15
-22 0 -66 52 -63 75 2 17 -14 36 -66 78 -38 30 -82 58 -97 61 -44 8 -130 54
-146 76 -27 39 -46 41 -143 18 l-91 -21 -70 28 c-38 16 -88 46 -111 67 -23 21
-44 38 -47 37 -3 0 -24 -7 -46 -15z"/>
<path d="M4728 1633 c-21 -2 -38 -8 -38 -13 0 -7 46 -42 98 -74 9 -5 12 6 12
43 0 43 -3 51 -17 49 -10 -1 -35 -3 -55 -5z"/>
</g>
</svg>
