<?xml version="1.0" standalone="no"?>
<!DOCTYPE svg PUBLIC "-//W3C//DTD SVG 20010904//EN"
 "http://www.w3.org/TR/2001/REC-SVG-20010904/DTD/svg10.dtd">
<svg version="1.0" xmlns="http://www.w3.org/2000/svg"
 width="480.000000pt" height="360.000000pt" viewBox="0 0 480.000000 360.000000"
 preserveAspectRatio="xMidYMid meet">
<metadata>
Created by potrace 1.16, written by Peter Selinger 2001-2019
</metadata>
<rect width="1" height="360" fill="#000000"/>
<rect x="479" width="1" height="360" fill="#000000"/>
<rect width="480" height="1" fill="#000000"/>
<rect y="359" width="480" height="1" fill="#000000"/>
<g transform="translate(0.000000,360.000000) scale(0.100000,-0.100000)"
fill="#000000" stroke="none">
<path d="M0 2785 l0 -815 23 0 c61 0 215 42 304 83 175 80 302 108 571 127
119 8 205 8 320 0 146 -10 346 -34 376 -46 9 -3 13 7 13 38 0 59 40 127 93
157 38 21 40 25 40 68 0 42 -1 45 -22 38 -48 -15 -133 -16 -151 -2 -31 26 -1
71 121 178 l52 46 2 109 c0 60 0 120 -1 134 -5 49 11 92 47 132 43 48 175 137
214 145 15 3 33 11 39 19 20 24 170 75 239 81 83 7 104 -2 227 -101 l92 -74
73 23 c169 53 248 54 248 1 0 -28 -90 -124 -163 -175 -26 -18 -47 -36 -47 -41
0 -6 36 -53 80 -105 77 -92 79 -94 49 -91 -29 3 -30 2 -23 -23 7 -27 6 -92 -1
-100 -3 -2 -9 7 -14 20 -9 24 -10 23 -17 -9 -4 -23 -19 -41 -47 -60 -22 -15
-42 -33 -45 -40 -2 -7 12 -28 32 -48 43 -43 44 -53 11 -82 -14 -12 -25 -32
-25 -45 0 -13 -4 -27 -9 -32 -26 -26 -59 -107 -66 -160 -4 -32 -11 -70 -17
-84 -12 -33 -76 -100 -106 -112 -19 -7 -21 -12 -12 -28 20 -39 87 -83 200
-132 89 -38 119 -47 132 -39 35 20 69 8 223 -77 11 -6 49 -23 85 -39 72 -30
80 -37 80 -74 0 -21 14 -34 88 -77 48 -29 134 -84 192 -124 100 -67 107 -70
136 -60 38 14 58 7 79 -25 9 -14 25 -24 39 -24 17 0 30 -11 45 -35 11 -19 27
-35 35 -35 17 0 35 -29 29 -46 -2 -6 3 -17 12 -24 8 -7 15 -21 15 -32 0 -12
54 -75 132 -156 221 -228 374 -435 568 -769 l83 -143 63 0 64 0 0 1800 0 1800
-2400 0 -2400 0 0 -815z"/>
<path d="M705 1955 c-163 -26 -231 -51 -370 -135 -110 -66 -175 -95 -262 -116
l-73 -17 0 -844 0 -843 879 0 879 0 37 67 c21 38 79 131 129 208 126 191 125
190 147 252 20 58 20 59 3 308 -9 140 -42 392 -53 414 -12 21 -12 29 -11 144
1 43 -2 97 -5 119 -6 35 -9 38 -17 23 -8 -14 -12 -15 -19 -4 -6 10 -9 5 -9
-15 0 -20 -3 -27 -10 -20 -6 6 -6 50 0 124 18 215 20 194 -22 195 -21 1 -68
16 -105 33 -74 34 -287 81 -486 107 -145 18 -515 19 -632 0z"/>
<path d="M3136 1273 l-25 -37 44 -47 c25 -27 45 -55 45 -63 0 -8 -25 -37 -55
-64 -30 -28 -55 -53 -55 -56 0 -18 233 4 322 30 15 4 58 62 58 77 0 10 -290
197 -305 197 -2 0 -16 -17 -29 -37z"/>
<path d="M3704 835 c-41 -41 -53 -61 -59 -96 -10 -63 -39 -125 -68 -143 -29
-20 -60 -14 -217 38 -113 37 -235 56 -370 56 -98 1 -167 14 -193 38 -17 15
-20 14 -52 -23 -33 -39 -34 -43 -34 -125 0 -47 11 -148 24 -225 14 -77 33
-188 42 -247 l17 -108 828 0 c455 0 828 2 828 5 0 10 -117 208 -184 310 -40
61 -110 157 -157 215 -81 102 -332 361 -347 359 -4 -1 -30 -25 -58 -54z"/>
</g>
</svg>
