<?xml version="1.0" standalone="no"?>
<!DOCTYPE svg PUBLIC "-//W3C//DTD SVG 20010904//EN"
 "http://www.w3.org/TR/2001/REC-SVG-20010904/DTD/svg10.dtd">
<svg version="1.0" xmlns="http://www.w3.org/2000/svg"
 width="480.000000pt" height="360.000000pt" viewBox="0 0 480.000000 360.000000"
 preserveAspectRatio="xMidYMid meet">
<metadata>
Created by potrace 1.16, written by Peter Selinger 2001-2019
</metadata>
<rect width="1" height="360" fill="#000000"/>
<rect x="479" width="1" height="360" fill="#000000"/>
<rect width="480" height="1" fill="#000000"/>
<rect y="359" width="480" height="1" fill="#000000"/>
<g transform="translate(0.000000,360.000000) scale(0.100000,-0.100000)"
fill="#000000" stroke="none">
<path d="M0 1800 l0 -1800 411 0 412 0 -5 98 c-7 118 -20 156 -129 357 -178
330 -238 504 -291 845 -30 198 -33 680 -5 860 21 134 67 340 109 489 l29 104
-42 43 c-36 37 -40 44 -29 63 26 50 104 53 251 11 261 -74 436 -139 490 -180
34 -27 258 -94 597 -180 l82 -21 24 28 c13 15 20 30 16 33 -5 3 14 16 43 29
52 24 105 73 282 261 44 46 100 107 124 135 53 61 88 83 144 91 23 3 58 16 77
29 110 70 237 110 322 102 54 -5 219 -83 276 -131 21 -17 49 -39 63 -49 21
-15 22 -17 4 -15 -15 2 -19 -2 -17 -17 13 -84 12 -130 -1 -140 -7 -5 -20 -23
-28 -40 -9 -16 -21 -29 -28 -27 -9 2 -11 -3 -7 -13 3 -9 6 -18 6 -20 0 -2 16
-9 35 -15 34 -11 46 -32 24 -46 -6 -3 -9 -18 -6 -33 3 -14 2 -44 -2 -67 -4
-22 -4 -51 1 -63 6 -18 2 -29 -21 -51 -16 -16 -26 -31 -24 -34 3 -2 -13 -2
-34 1 l-38 5 0 -41 c0 -41 1 -42 64 -77 38 -21 89 -40 124 -45 76 -13 129 -40
164 -85 15 -20 35 -44 43 -54 12 -15 84 -30 342 -75 278 -48 335 -55 374 -47
25 5 54 8 65 5 10 -3 25 0 32 6 23 18 119 13 172 -9 60 -24 86 -32 99 -27 17
7 56 -19 56 -37 0 -15 20 -22 98 -32 l52 -7 0 842 0 841 -2400 0 -2400 0 0
-1800z"/>
<path d="M1081 2552 c-16 -31 -120 -360 -145 -459 -34 -137 -44 -209 -57 -438
-9 -151 -9 -239 0 -358 19 -273 53 -395 226 -812 98 -235 100 -247 55 -383
-16 -50 -30 -94 -30 -97 0 -3 52 -5 115 -5 112 0 116 1 124 23 5 13 31 40 58
60 26 20 68 54 93 76 30 26 184 108 455 244 446 223 556 283 645 353 55 43
250 256 250 272 0 11 -60 66 -190 174 -161 134 -197 171 -210 217 -20 75 20
174 131 322 25 34 37 59 33 69 -19 42 -16 72 11 110 30 43 31 79 1 44 -13 -15
-28 -20 -60 -18 -38 2 -45 -1 -56 -24 -11 -22 -14 -24 -17 -9 -5 20 -4 20 -37
7 -21 -8 -26 -7 -26 6 0 11 -6 13 -20 9 -15 -5 -20 -2 -20 13 0 26 -11 34 -27
21 -10 -9 -13 -7 -13 10 0 11 -4 21 -10 21 -5 0 -7 7 -4 15 9 22 -6 18 -34 -7
l-24 -23 7 25 c4 14 10 31 12 38 4 8 0 10 -11 6 -24 -9 -21 37 4 69 24 30 25
37 5 37 -15 0 -13 3 35 82 9 14 4 19 -27 27 -31 9 -43 7 -71 -9 -40 -24 -49
-25 -31 -4 11 13 9 14 -17 8 -16 -4 -39 -14 -52 -22 -20 -13 -22 -13 -15 3 5
15 2 17 -15 13 -21 -6 -32 7 -12 14 5 2 7 13 4 26 -5 16 -19 26 -58 36 -28 8
-217 60 -421 116 -203 56 -374 104 -379 108 -6 3 -45 7 -88 8 -65 2 -80 0 -87
-14z"/>
<path d="M1950 2470 c36 -11 52 -11 45 0 -3 6 -21 10 -38 9 -31 -1 -31 -1 -7
-9z"/>
<path d="M2085 2440 c3 -5 21 -10 38 -9 27 0 29 2 12 9 -28 12 -57 12 -50 0z"/>
<path d="M3506 1994 c-4 -10 5 -29 24 -50 26 -31 36 -58 31 -88 -1 -5 5 -16
12 -25 26 -29 56 -98 63 -143 6 -38 48 -138 58 -138 2 0 86 27 187 59 101 33
223 71 271 85 48 15 90 31 93 37 4 5 1 41 -6 79 -12 69 -13 70 -48 79 -35 9
-659 121 -672 121 -4 0 -10 -7 -13 -16z"/>
<path d="M4619 1753 c-18 -32 -64 -89 -102 -127 -81 -80 -143 -112 -492 -252
-213 -86 -223 -89 -300 -89 -75 0 -128 16 -205 62 -3 2 -3 -20 -1 -48 2 -29
-2 -56 -8 -62 -6 -6 -11 -45 -11 -87 0 -76 0 -76 41 -115 53 -51 70 -88 56
-125 -9 -24 -5 -40 32 -116 23 -48 61 -111 85 -139 62 -73 176 -253 176 -278
0 -3 -17 -7 -38 -9 l-39 -3 28 -88 c16 -48 40 -129 53 -180 l23 -92 442 -3
441 -2 0 894 0 893 -42 7 c-24 4 -57 9 -75 12 -30 6 -33 3 -64 -53z"/>
<path d="M2737 1525 l-47 -53 62 -56 c35 -31 66 -56 71 -56 13 0 8 88 -9 155
-9 36 -19 65 -23 64 -3 0 -27 -24 -54 -54z"/>
</g>
</svg>
