<?xml version="1.0" standalone="no"?>
<!DOCTYPE svg PUBLIC "-//W3C//DTD SVG 20010904//EN"
 "http://www.w3.org/TR/2001/REC-SVG-20010904/DTD/svg10.dtd">
<svg version="1.0" xmlns="http://www.w3.org/2000/svg"
 width="480.000000pt" height="360.000000pt" viewBox="0 0 480.000000 360.000000"
 preserveAspectRatio="xMidYMid meet">
<metadata>
Created by potrace 1.16, written by Peter Selinger 2001-2019
</metadata>
<rect width="1" height="360" fill="#000000"/>
<rect x="479" width="1" height="360" fill="#000000"/>
<rect width="480" height="1" fill="#000000"/>
<rect y="359" width="480" height="1" fill="#000000"/>
<g transform="translate(0.000000,360.000000) scale(0.100000,-0.100000)"
fill="#000000" stroke="none">
<path d="M0 1800 l0 -1800 899 0 900 0 20 29 c12 16 23 51 25 78 4 45 37 135
102 281 l28 63 -13 226 -13 225 -33 33 c-39 39 -45 67 -32 134 9 42 8 53 -5
68 -9 10 -19 29 -22 43 -9 36 76 276 110 311 25 26 26 30 14 60 -8 18 -28 47
-46 64 -35 36 -64 85 -64 110 0 38 -36 78 -98 107 -69 33 -91 58 -99 115 -4
33 0 46 28 83 40 51 140 110 244 142 57 17 79 31 119 71 27 27 65 56 84 64 25
10 225 53 249 53 2 0 3 279 3 620 l0 620 -1200 0 -1200 0 0 -1800z"/>
<path d="M2400 1181 l0 -1181 301 0 300 0 -21 29 c-11 17 -22 49 -24 73 -2 24
-20 88 -41 143 l-38 100 8 275 c4 151 10 311 14 354 l6 79 17 -36 c10 -21 22
-37 27 -37 22 0 33 44 26 99 -4 31 -10 83 -14 116 -9 86 -93 276 -139 317 -32
27 -34 32 -19 43 9 6 26 38 37 71 12 32 28 73 35 89 7 17 16 40 19 51 5 17 18
23 54 29 26 3 67 16 91 28 150 74 110 204 -94 305 -33 17 -79 36 -102 42 -24
7 -50 21 -59 32 -10 10 -23 18 -30 18 -7 0 -43 21 -81 47 -80 55 -137 78 -215
88 l-58 7 0 -1181z m527 873 c41 -21 88 -53 109 -76 33 -37 34 -41 19 -58 -9
-10 -36 -23 -60 -29 -72 -18 -72 -18 -67 44 6 73 -3 103 -32 111 -24 6 -68 44
-51 44 5 0 41 -16 82 -36z m-97 -1571 c0 -19 -3 -24 -10 -17 -6 6 -8 18 -4 27
9 24 14 21 14 -10z"/>
<path d="M1852 2054 c-41 -21 -85 -51 -98 -67 -23 -28 -24 -31 -8 -48 19 -22
97 -50 112 -40 16 9 32 57 32 94 0 17 9 40 21 53 41 43 16 46 -59 8z"/>
<path d="M1996 610 c2 -52 4 -97 4 -100 0 -2 7 6 17 19 15 22 15 28 0 75 -9
28 -18 62 -21 76 -2 14 -2 -18 0 -70z"/>
</g>
</svg>
