<?xml version="1.0" standalone="no"?>
<!DOCTYPE svg PUBLIC "-//W3C//DTD SVG 20010904//EN"
 "http://www.w3.org/TR/2001/REC-SVG-20010904/DTD/svg10.dtd">
<svg version="1.0" xmlns="http://www.w3.org/2000/svg"
 width="480.000000pt" height="360.000000pt" viewBox="0 0 480.000000 360.000000"
 preserveAspectRatio="xMidYMid meet">
<metadata>
Created by potrace 1.16, written by Peter Selinger 2001-2019
</metadata>
<rect width="1" height="360" fill="#000000"/>
<rect x="479" width="1" height="360" fill="#000000"/>
<rect width="480" height="1" fill="#000000"/>
<rect y="359" width="480" height="1" fill="#000000"/>
<g transform="translate(0.000000,360.000000) scale(0.100000,-0.100000)"
fill="#000000" stroke="none">
<path d="M0 1800 l0 -1800 2400 0 2400 0 0 1800 0 1800 -2400 0 -2400 0 0
-1800z m2523 1079 c12 -6 60 -36 106 -67 65 -43 80 -57 68 -64 -15 -8 -40 -1
-124 33 -41 16 -47 9 -36 -37 8 -37 9 -37 107 -68 55 -17 101 -37 103 -43 3
-7 -6 -23 -20 -36 l-24 -25 54 -26 c30 -14 51 -31 48 -36 -3 -6 1 -10 9 -10 9
0 16 -5 16 -11 0 -7 8 -18 18 -25 16 -12 16 -13 0 -14 -9 0 -20 5 -23 10 -3 6
-11 10 -17 10 -7 0 1 -13 17 -30 16 -16 24 -30 17 -30 -6 0 -14 5 -17 10 -3 6
-11 10 -16 10 -6 0 -8 -4 -5 -9 9 -14 -24 -22 -45 -11 -11 6 -23 9 -28 6 -4
-3 -17 1 -27 9 -10 8 -26 14 -34 14 -11 0 -10 -3 4 -14 26 -20 15 -19 -29 2
-19 9 -38 14 -41 10 -10 -9 39 -137 53 -137 6 0 21 15 32 34 23 36 69 59 91
46 8 -5 16 -37 19 -82 l6 -73 129 -30 c101 -24 130 -34 132 -48 3 -21 9 -21
-88 3 -44 12 -85 19 -91 17 -6 -2 13 -18 43 -36 l53 -33 136 27 c112 23 155
26 245 23 87 -4 111 -8 121 -21 7 -9 17 -17 22 -17 6 0 13 -13 17 -30 3 -18
12 -30 21 -30 8 0 15 -7 15 -15 0 -9 10 -15 26 -15 14 0 23 -4 19 -10 -3 -5 1
-10 9 -10 9 0 16 -4 16 -10 0 -5 12 -10 28 -11 25 0 25 -1 6 -9 -27 -11 -37
-37 -18 -44 15 -6 20 -36 5 -36 -4 0 -7 -11 -6 -25 3 -20 -1 -25 -18 -25 -14
0 -18 -3 -10 -8 7 -4 9 -13 4 -21 -7 -10 -14 -10 -40 3 -26 14 -31 14 -31 2 0
-8 -18 -22 -40 -32 -29 -13 -37 -21 -29 -30 15 -18 -39 -12 -78 9 -39 21 -44
7 -7 -18 14 -9 23 -19 20 -22 -3 -3 -19 6 -37 21 -58 49 -78 55 -298 91 -52 9
-113 23 -135 33 -30 12 -61 16 -112 14 l-70 -3 10 -49 c7 -37 7 -52 -3 -64
-20 -24 -49 -19 -65 12 l-14 27 -7 -27 c-4 -15 -13 -32 -21 -39 -25 -21 -43 7
-46 74 l-3 61 -44 9 c-26 5 -79 5 -130 -1 -103 -12 -137 -2 -134 40 1 15 -5
29 -13 32 -21 8 -425 38 -431 32 -3 -3 11 -8 31 -11 24 -5 36 -13 36 -24 0 -9
18 -26 40 -39 42 -24 45 -29 31 -51 -8 -12 -15 -10 -43 11 -50 38 -113 68
-202 94 -68 20 -83 22 -91 11 -26 -35 -85 -23 -85 18 0 9 -19 16 -57 20 -77 8
-99 18 -118 55 -26 50 -41 50 380 6 77 -8 204 -20 282 -26 l142 -12 36 39 c19
21 44 56 55 78 11 22 29 54 40 70 21 32 25 89 12 174 -6 38 -11 46 -37 54 -67
22 -83 61 -39 102 l26 24 -44 11 c-150 40 -190 64 -194 120 -4 47 5 58 53 65
38 5 49 3 65 -13 18 -18 22 -18 64 -4 35 12 49 23 65 53 19 38 40 55 88 70 39
11 100 10 124 -2z"/>
<path d="M2383 2533 c-18 -6 -16 -48 2 -63 12 -10 16 -9 21 4 8 22 -8 64 -23
59z"/>
<path d="M2416 2239 c-9 -23 -35 -67 -56 -99 -41 -60 -51 -100 -26 -100 19 0
156 128 156 146 0 14 -46 94 -54 94 -2 0 -11 -18 -20 -41z"/>
<path d="M2780 2160 c0 -11 42 -34 80 -44 16 -5 7 4 -22 23 -52 34 -58 36 -58
21z"/>
</g>
</svg>
