<?xml version="1.0" standalone="no"?>
<!DOCTYPE svg PUBLIC "-//W3C//DTD SVG 20010904//EN"
 "http://www.w3.org/TR/2001/REC-SVG-20010904/DTD/svg10.dtd">
<svg version="1.0" xmlns="http://www.w3.org/2000/svg"
 width="480.000000pt" height="360.000000pt" viewBox="0 0 480.000000 360.000000"
 preserveAspectRatio="xMidYMid meet">
<metadata>
Created by potrace 1.16, written by Peter Selinger 2001-2019
</metadata>
<rect width="1" height="360" fill="#000000"/>
<rect x="479" width="1" height="360" fill="#000000"/>
<rect width="480" height="1" fill="#000000"/>
<rect y="359" width="480" height="1" fill="#000000"/>
<g transform="translate(0.000000,360.000000) scale(0.100000,-0.100000)"
fill="#000000" stroke="none">
<path d="M0 1800 l0 -1800 819 0 820 0 6 57 c4 32 10 83 15 113 4 30 7 56 5
58 -2 2 -14 -3 -27 -11 -12 -9 -42 -21 -66 -28 -88 -26 -205 26 -256 113 -13
24 -39 97 -56 163 -59 226 -71 258 -174 450 -30 57 -30 183 2 242 12 23 22 44
22 47 0 2 -35 23 -77 46 -43 23 -88 51 -101 63 -27 25 -78 130 -87 181 -6 31
-15 41 -59 66 -65 36 -86 58 -86 87 0 17 -6 23 -23 23 -35 0 -127 88 -127 121
0 27 38 76 74 96 30 16 36 135 10 164 -32 36 -65 47 -121 42 l-51 -5 -70 65
c-39 37 -83 69 -99 72 -62 14 -79 23 -93 48 -14 25 -13 28 15 57 39 41 86 41
125 0 50 -54 73 -39 86 55 5 39 13 69 18 68 5 -1 20 -30 33 -64 27 -71 39 -89
61 -89 21 0 9 110 -19 168 -20 40 -21 50 -10 105 6 34 17 87 26 117 8 30 15
70 15 89 0 36 -28 149 -41 166 -4 6 -10 33 -14 60 -4 28 -14 67 -23 88 -13 33
-13 60 -2 200 6 89 18 188 26 220 8 32 14 65 14 73 0 12 -41 14 -255 14 l-255
0 0 -1800z"/>
<path d="M1896 3563 c9 -54 30 -83 60 -83 40 0 60 -16 78 -60 25 -64 40 -46
47 56 3 49 9 97 13 107 8 16 -1 17 -98 17 l-107 0 7 -37z"/>
<path d="M2310 3558 c0 -84 -28 -209 -55 -244 -38 -50 -54 -104 -65 -227 -13
-130 -5 -244 21 -301 13 -31 15 -45 7 -60 -18 -33 -78 -228 -78 -252 0 -30
123 -99 151 -84 29 16 142 12 167 -6 12 -8 31 -13 41 -9 21 6 170 90 182 102
4 4 -1 28 -13 53 -13 28 -23 79 -28 136 -5 56 -15 108 -29 138 -22 51 -28 53
-98 31 -19 -6 -23 -2 -32 32 -18 64 -14 169 9 213 25 49 43 59 92 53 42 -6 48
4 23 47 -8 14 -14 39 -15 56 0 34 18 94 28 94 29 -1 132 -94 255 -228 63 -70
68 -90 46 -192 -20 -93 24 -143 71 -83 25 32 24 76 -6 186 -15 58 -16 75 -6
110 13 45 36 147 47 211 4 26 12 40 26 43 23 6 26 21 32 136 l5 87 -389 0
-389 0 0 -42z"/>
<path d="M3722 3589 c2 -6 8 -10 13 -10 5 0 11 4 13 10 2 6 -4 11 -13 11 -9 0
-15 -5 -13 -11z"/>
<path d="M4020 3573 c0 -16 7 -53 15 -83 8 -30 19 -111 25 -179 14 -162 34
-255 64 -294 13 -18 36 -56 50 -84 15 -29 30 -53 34 -53 23 0 57 41 93 111 23
46 45 79 52 76 16 -5 10 -179 -9 -267 -25 -113 20 -220 60 -143 14 28 52 53
80 53 7 0 23 -12 37 -26 30 -32 32 -92 5 -146 -22 -46 -43 -48 -81 -8 -25 26
-36 30 -80 30 -77 0 -91 -14 -87 -94 4 -102 -64 -320 -116 -375 -36 -37 -62
-81 -62 -104 0 -13 -11 -40 -24 -60 -13 -19 -27 -46 -31 -58 -10 -33 -40 -81
-81 -130 -36 -44 -42 -59 -21 -59 15 0 59 -45 75 -75 18 -36 -11 -81 -63 -95
-40 -11 -48 -19 -86 -84 -64 -109 -103 -152 -164 -181 -30 -14 -68 -28 -85
-31 -36 -8 -36 -11 -7 -66 35 -67 30 -163 -12 -253 -69 -148 -120 -330 -160
-570 -21 -121 -59 -178 -154 -227 -30 -15 -59 -20 -109 -20 l-68 1 0 -40 0
-39 845 0 845 0 0 1800 0 1800 -390 0 -390 0 0 -27z"/>
<path d="M1650 3475 c-18 -22 -8 -124 14 -141 23 -16 40 -9 55 22 34 76 -23
175 -69 119z"/>
<path d="M728 2999 c-19 -10 -22 -51 -9 -99 6 -22 62 -70 82 -70 12 0 49 75
49 98 0 21 -33 53 -73 70 -33 14 -28 14 -49 1z"/>
<path d="M3980 2020 c0 -5 4 -10 9 -10 6 0 13 5 16 10 3 6 -1 10 -9 10 -9 0
-16 -4 -16 -10z"/>
<path d="M2964 1635 c-3 -26 1 -103 10 -178 8 -73 20 -197 26 -277 17 -250 19
-265 25 -283 9 -22 22 -22 29 1 3 9 10 78 15 153 6 75 15 147 21 160 5 13 16
52 24 86 13 57 13 65 -3 85 -10 13 -21 43 -24 68 -4 25 -9 55 -11 67 -7 34
-65 113 -83 113 -11 0 -14 6 -9 25 4 14 2 25 -3 25 -5 0 -13 -20 -17 -45z"/>
<path d="M1776 1565 c-26 -48 -129 -132 -179 -146 -22 -6 -53 -8 -69 -5 -41 8
-37 -13 22 -109 60 -97 66 -117 80 -259 5 -60 12 -111 14 -114 3 -2 23 -1 46
3 29 5 44 13 50 28 4 12 16 112 25 222 10 110 23 241 30 290 15 110 8 141 -19
90z"/>
</g>
</svg>
