<?xml version="1.0" standalone="no"?>
<!DOCTYPE svg PUBLIC "-//W3C//DTD SVG 20010904//EN"
 "http://www.w3.org/TR/2001/REC-SVG-20010904/DTD/svg10.dtd">
<svg version="1.0" xmlns="http://www.w3.org/2000/svg"
 width="480.000000pt" height="360.000000pt" viewBox="0 0 480.000000 360.000000"
 preserveAspectRatio="xMidYMid meet">
<metadata>
Created by potrace 1.16, written by Peter Selinger 2001-2019
</metadata>
<rect width="1" height="360" fill="#000000"/>
<rect x="479" width="1" height="360" fill="#000000"/>
<rect width="480" height="1" fill="#000000"/>
<rect y="359" width="480" height="1" fill="#000000"/>
<g transform="translate(0.000000,360.000000) scale(0.100000,-0.100000)"
fill="#000000" stroke="none">
<path d="M2485 2526 c-113 -36 -164 -83 -286 -266 -46 -68 -101 -141 -122
-162 -29 -28 -36 -41 -30 -53 6 -10 4 -40 -4 -78 -15 -73 -17 -342 -3 -416 23
-121 97 -217 230 -296 218 -131 544 -162 778 -75 72 27 222 130 261 178 57 73
83 145 88 246 4 78 9 100 36 151 29 54 32 68 32 145 -1 75 -5 92 -32 145 -115
221 -440 442 -713 485 -86 13 -186 12 -235 -4z"/>
</g>
</svg>
