<?xml version="1.0" standalone="no"?>
<!DOCTYPE svg PUBLIC "-//W3C//DTD SVG 20010904//EN"
 "http://www.w3.org/TR/2001/REC-SVG-20010904/DTD/svg10.dtd">
<svg version="1.0" xmlns="http://www.w3.org/2000/svg"
 width="480.000000pt" height="360.000000pt" viewBox="0 0 480.000000 360.000000"
 preserveAspectRatio="xMidYMid meet">
<metadata>
Created by potrace 1.16, written by Peter Selinger 2001-2019
</metadata>
<rect width="1" height="360" fill="#000000"/>
<rect x="479" width="1" height="360" fill="#000000"/>
<rect width="480" height="1" fill="#000000"/>
<rect y="359" width="480" height="1" fill="#000000"/>
<g transform="translate(0.000000,360.000000) scale(0.100000,-0.100000)"
fill="#000000" stroke="none">
<path d="M4625 3551 c-60 -26 -130 -58 -154 -70 -41 -22 -47 -22 -110 -10
-233 46 -576 -39 -788 -194 -81 -60 -168 -167 -194 -238 -30 -82 -84 -123
-218 -166 -103 -33 -108 -34 -173 -22 -96 17 -121 5 -160 -78 -33 -72 -33 -98
0 -97 16 0 24 -6 28 -25 32 -148 45 -161 155 -161 72 0 77 -2 83 -23 3 -12 3
-32 0 -44 -3 -11 1 -34 10 -49 11 -20 15 -24 16 -11 0 33 18 17 25 -24 4 -22
18 -52 31 -66 13 -14 25 -31 25 -37 1 -6 5 5 8 24 l7 35 19 -37 c21 -43 40
-51 24 -12 -9 25 -8 26 8 13 33 -26 62 -64 63 -80 0 -17 -28 -45 -72 -72 -38
-24 -35 -40 12 -77 33 -26 40 -38 40 -68 0 -19 7 -43 15 -52 9 -10 18 -27 20
-40 2 -13 11 -30 18 -39 8 -9 24 -45 36 -80 18 -50 21 -69 12 -87 -13 -29 -1
-31 24 -4 15 16 100 39 109 29 2 -2 0 -27 -3 -56 -9 -62 4 -58 46 14 13 24 29
43 33 43 5 0 11 -17 15 -38 13 -78 38 -81 83 -8 15 25 32 46 38 46 18 0 32
-42 39 -123 7 -73 6 -78 -20 -108 -19 -23 -26 -41 -23 -61 4 -26 -1 -31 -58
-63 l-63 -35 -73 10 c-40 6 -100 16 -132 21 -53 10 -61 9 -73 -7 -10 -14 -16
-15 -25 -6 -18 18 -43 15 -63 -8 -14 -16 -16 -29 -11 -70 4 -28 9 -57 12 -65
5 -12 -2 -15 -33 -15 -36 0 -122 19 -167 36 -19 7 -19 -4 -3 -100 1 -5 -16
-14 -38 -19 -109 -25 -256 -71 -313 -99 -35 -16 -65 -28 -66 -26 -1 1 -13 21
-26 43 -27 44 -143 192 -264 335 -303 360 -319 375 -420 399 -27 7 -67 21 -90
33 -22 12 -77 33 -121 49 -44 15 -114 40 -155 55 -68 25 -88 27 -220 28 -124
1 -150 -2 -173 -17 -19 -13 -62 -20 -153 -27 -69 -5 -130 -12 -135 -15 -15
-10 -10 -61 12 -120 16 -43 34 -67 81 -108 75 -65 102 -114 103 -187 l0 -55
59 -7 c42 -6 63 -13 73 -28 8 -11 23 -20 33 -20 10 0 22 -5 25 -10 19 -30 74
-44 200 -51 103 -5 139 -4 175 8 l44 15 29 -33 c28 -33 174 -226 346 -459 47
-63 112 -142 146 -176 81 -81 201 -158 280 -179 64 -18 67 -18 317 14 139 18
265 35 281 38 l27 5 2 -113 c2 -141 2 -131 -6 -262 l-6 -107 497 2 497 3 35
125 c29 99 40 125 53 124 127 -10 264 -30 314 -45 72 -22 159 -83 226 -157 25
-29 51 -52 57 -52 8 0 11 62 11 202 l0 202 -26 27 -27 28 24 53 24 53 3 1518
2 1517 -32 -1 c-18 0 -82 -22 -143 -48z m-1362 -1248 c15 -32 15 -35 1 -18
-24 30 -36 55 -26 55 4 0 16 -17 25 -37z m1507 -782 c0 -17 -18 -21 -24 -6 -3
9 0 15 9 15 8 0 15 -4 15 -9z m-105 -51 c43 -44 60 -51 50 -21 -5 16 -1 19 15
18 18 -1 21 -6 16 -32 -3 -16 -10 -70 -16 -120 -12 -97 -82 -437 -106 -513 -8
-26 -32 -67 -53 -91 l-39 -44 -64 46 -64 46 4 90 c5 108 -7 186 -53 327 -19
58 -32 111 -28 117 3 5 6 23 5 38 0 16 1 29 3 29 8 0 52 -46 63 -65 8 -15 9 4
6 78 -6 134 0 133 108 -12 51 -69 58 -65 58 29 0 77 1 82 20 77 16 -4 20 0 20
19 0 33 10 30 55 -16z"/>
</g>
</svg>
