<?xml version="1.0" standalone="no"?>
<!DOCTYPE svg PUBLIC "-//W3C//DTD SVG 20010904//EN"
 "http://www.w3.org/TR/2001/REC-SVG-20010904/DTD/svg10.dtd">
<svg version="1.0" xmlns="http://www.w3.org/2000/svg"
 width="480.000000pt" height="360.000000pt" viewBox="0 0 480.000000 360.000000"
 preserveAspectRatio="xMidYMid meet">
<metadata>
Created by potrace 1.16, written by Peter Selinger 2001-2019
</metadata>
<rect width="1" height="360" fill="#000000"/>
<rect x="479" width="1" height="360" fill="#000000"/>
<rect width="480" height="1" fill="#000000"/>
<rect y="359" width="480" height="1" fill="#000000"/>
<g transform="translate(0.000000,360.000000) scale(0.100000,-0.100000)"
fill="#000000" stroke="none">
<path d="M0 1800 l0 -1801 98 3 97 3 32 128 c17 70 34 145 38 167 6 38 6 39
-21 37 -43 -3 -58 35 -35 82 26 50 49 101 61 134 13 37 15 133 3 149 -5 7 -14
25 -21 41 -11 26 -11 27 13 21 23 -6 25 -4 25 30 0 26 6 40 24 51 17 11 26 29
31 62 4 25 18 78 32 117 39 111 39 114 9 122 -32 8 -32 25 -3 84 21 43 29 49
177 122 142 71 215 97 373 132 16 4 25 11 21 17 -3 6 -13 8 -21 5 -9 -4 -21 0
-27 8 -6 7 -26 18 -44 24 -32 11 -34 10 -44 -18 -11 -32 -33 -42 -23 -11 3 11
2 22 -4 25 -15 10 -131 -23 -200 -57 -85 -42 -127 -41 -183 1 -24 18 -59 44
-80 58 l-36 25 -44 -22 c-23 -12 -64 -37 -90 -56 -62 -45 -65 -21 -6 39 111
115 235 380 288 619 11 49 20 90 20 92 0 2 -15 1 -33 -1 -26 -3 -61 11 -158
61 -68 35 -131 66 -139 69 -13 4 -13 10 -2 40 11 31 10 41 -6 79 -10 24 -22
56 -26 71 -5 24 -3 28 21 34 14 4 39 2 53 -3 23 -9 35 -5 79 22 29 18 68 36
89 40 20 4 49 13 64 21 25 13 27 17 22 62 -12 102 35 298 99 412 40 71 130
161 193 193 54 27 179 57 241 57 21 0 43 4 49 8 6 4 40 43 74 87 35 44 70 88
78 98 14 16 -14 17 -571 17 l-587 0 0 -1800z m630 1740 c0 -5 -4 -10 -10 -10
-5 0 -10 5 -10 10 0 6 5 10 10 10 6 0 10 -4 10 -10z"/>
<path d="M1370 3488 l59 -112 73 -18 c126 -31 211 -80 314 -183 76 -76 99
-106 138 -185 74 -151 92 -299 46 -404 -24 -57 -18 -77 31 -98 44 -18 48 -39
10 -48 -22 -5 -22 -5 8 -47 17 -24 31 -47 31 -53 0 -5 -18 -22 -41 -37 l-41
-27 6 -65 c3 -36 8 -106 12 -156 6 -95 14 -115 82 -204 34 -45 36 -67 4 -38
-33 30 -34 18 -3 -40 17 -31 29 -58 27 -61 -3 -2 -21 8 -42 22 -21 14 -39 24
-40 23 -1 -1 2 -27 7 -57 4 -30 8 -68 8 -85 0 -28 -1 -28 -9 -7 -17 40 -20 23
-13 -75 5 -76 10 -101 23 -110 10 -7 20 -32 24 -59 3 -26 11 -53 17 -60 9 -11
8 -14 -4 -14 -9 0 -18 -12 -22 -30 -5 -22 2 -47 29 -102 20 -40 47 -111 59
-158 l24 -85 51 3 c60 4 63 -1 32 -73 -11 -26 -23 -71 -26 -100 -6 -49 -4 -55
22 -82 16 -16 48 -37 72 -47 32 -15 42 -25 42 -42 0 -13 -8 -28 -19 -33 -11
-7 -22 -30 -29 -66 -11 -54 -10 -60 27 -153 21 -53 59 -142 85 -198 25 -56 46
-106 46 -113 0 -8 294 -11 1155 -11 l1155 0 0 1800 0 1800 -365 0 -365 0 0
-29 c0 -17 -4 -33 -10 -36 -11 -7 -60 38 -60 55 0 7 -416 10 -1344 10 l-1344
0 58 -112z m2020 -633 c0 -16 -9 -19 -34 -9 -25 9 -19 24 9 24 16 0 25 -6 25
-15z m968 -363 c3 -10 -67 -47 -75 -39 -2 2 8 16 22 31 25 27 45 30 53 8z
m-1805 -1096 c8 -19 -1 -26 -35 -26 -17 0 -28 5 -28 14 0 25 54 36 63 12z
m2127 -880 c0 -16 -18 -31 -27 -22 -8 8 5 36 17 36 5 0 10 -6 10 -14z"/>
<path d="M1958 1427 l-28 -11 52 -28 c28 -15 55 -28 60 -28 9 0 -8 33 -31 63
-16 19 -15 19 -53 4z"/>
<path d="M713 257 c-32 -18 -33 -20 -33 -92 0 -40 3 -93 6 -119 l7 -46 54 0
55 0 -7 63 c-8 68 -33 185 -43 203 -5 7 -17 5 -39 -9z"/>
</g>
</svg>
