<?xml version="1.0" standalone="no"?>
<!DOCTYPE svg PUBLIC "-//W3C//DTD SVG 20010904//EN"
 "http://www.w3.org/TR/2001/REC-SVG-20010904/DTD/svg10.dtd">
<svg version="1.0" xmlns="http://www.w3.org/2000/svg"
 width="480.000000pt" height="360.000000pt" viewBox="0 0 480.000000 360.000000"
 preserveAspectRatio="xMidYMid meet">
<metadata>
Created by potrace 1.16, written by Peter Selinger 2001-2019
</metadata>
<rect width="1" height="360" fill="#000000"/>
<rect x="479" width="1" height="360" fill="#000000"/>
<rect width="480" height="1" fill="#000000"/>
<rect y="359" width="480" height="1" fill="#000000"/>
<g transform="translate(0.000000,360.000000) scale(0.100000,-0.100000)"
fill="#000000" stroke="none">
<path d="M0 1800 l0 -1800 876 2 877 3 19 75 c10 41 57 194 104 340 46 147 84
270 84 275 0 6 -15 -15 -33 -46 -40 -71 -56 -89 -74 -89 -24 0 -73 56 -73 84
0 31 -15 34 -30 6 -7 -14 -7 -20 0 -20 5 0 10 -6 10 -14 0 -17 -50 -25 -103
-18 -39 5 -39 5 -35 47 4 50 -6 50 -22 0 -12 -37 -24 -44 -33 -21 -7 19 6 66
30 106 15 26 16 32 3 40 -12 7 -12 12 3 28 10 11 35 27 57 37 26 12 46 30 58
54 10 20 42 73 70 118 144 230 149 238 171 331 28 112 52 294 40 306 -5 6 -11
-4 -15 -22 -8 -42 -24 -51 -24 -15 0 28 21 117 36 158 7 17 3 16 -25 -7 -18
-16 -37 -28 -42 -28 -13 0 15 51 41 75 12 11 28 32 36 46 28 55 74 419 52 419
-4 0 -8 -4 -8 -10 0 -5 -10 -15 -22 -21 -19 -10 -25 -8 -45 17 -28 34 -57 95
-84 176 -11 31 -10 40 4 62 24 35 75 48 205 51 61 2 118 7 125 13 6 5 53 13
103 17 80 6 93 5 101 -9 7 -13 15 -15 34 -8 95 36 289 33 316 -4 36 -49 -62
-274 -119 -274 -19 0 -20 -4 -14 -42 21 -131 21 -133 -18 -168 l-36 -33 0
-113 0 -113 45 -31 c38 -26 46 -37 46 -63 0 -101 7 -262 14 -328 7 -69 11 -80
44 -115 195 -210 239 -262 238 -278 -1 -13 11 -26 40 -40 61 -31 85 -56 72
-73 -9 -10 -8 -17 1 -28 19 -23 39 -100 30 -116 -6 -10 -14 0 -29 34 -24 56
-32 60 -24 12 7 -44 -7 -61 -52 -63 -56 -2 -87 13 -80 40 5 18 -3 32 -34 62
l-39 38 -6 -28 c-3 -16 -10 -63 -16 -105 -5 -42 -17 -92 -26 -111 -16 -34 -15
-36 45 -224 33 -104 68 -236 78 -292 l16 -102 919 0 918 0 0 1800 0 1800
-2400 0 -2400 0 0 -1800z"/>
</g>
</svg>
