<?xml version="1.0" standalone="no"?>
<!DOCTYPE svg PUBLIC "-//W3C//DTD SVG 20010904//EN"
 "http://www.w3.org/TR/2001/REC-SVG-20010904/DTD/svg10.dtd">
<svg version="1.0" xmlns="http://www.w3.org/2000/svg"
 width="480.000000pt" height="360.000000pt" viewBox="0 0 480.000000 360.000000"
 preserveAspectRatio="xMidYMid meet">
<metadata>
Created by potrace 1.16, written by Peter Selinger 2001-2019
</metadata>
<rect width="1" height="360" fill="#000000"/>
<rect x="479" width="1" height="360" fill="#000000"/>
<rect width="480" height="1" fill="#000000"/>
<rect y="359" width="480" height="1" fill="#000000"/>
<g transform="translate(0.000000,360.000000) scale(0.100000,-0.100000)"
fill="#000000" stroke="none">
<path d="M0 1800 l0 -1800 1009 0 1008 0 7 123 c4 67 18 187 32 267 21 118 23
152 15 187 -14 55 -14 166 0 214 10 30 9 50 -3 96 -11 39 -16 112 -17 223 -2
194 -6 221 -38 277 l-24 42 -56 -66 c-76 -89 -111 -120 -159 -138 -39 -16 -43
-15 -130 15 -115 40 -218 66 -323 81 -74 10 -85 15 -99 39 -9 15 -28 32 -43
37 -25 10 -27 15 -23 45 l6 33 -88 18 c-161 33 -332 117 -365 179 -17 31 4 45
35 24 l26 -16 -7 45 c-5 37 -3 45 11 45 8 0 22 -15 29 -32 8 -18 21 -39 30
-47 15 -12 17 -10 17 17 0 35 9 62 20 62 4 0 15 -18 25 -40 10 -22 21 -40 26
-40 4 0 14 -2 21 -5 9 -4 19 4 26 20 15 33 30 32 34 -2 3 -24 9 -29 51 -36 26
-4 70 -21 98 -38 48 -30 51 -31 69 -14 17 15 24 16 45 7 18 -8 31 -9 49 -1 20
10 38 5 117 -34 87 -41 287 -114 293 -106 1 2 36 63 78 134 57 99 75 137 71
157 -7 38 9 60 102 138 81 67 85 73 85 111 0 35 7 48 52 95 28 30 67 64 85 75
29 18 34 26 31 53 -2 22 -7 30 -18 27 -54 -15 -79 -12 -97 9 -10 13 -29 32
-42 44 -13 12 -27 31 -32 44 -5 12 -20 27 -34 32 -29 11 -31 22 -10 40 23 19
17 80 -8 80 -7 0 -7 -4 1 -12 25 -25 10 -28 -19 -4 -17 14 -42 26 -55 26 -29
0 -83 56 -84 86 0 28 -10 36 -28 21 -13 -10 -15 -9 -9 7 4 10 19 59 33 108 37
127 58 170 105 213 l42 37 -13 68 c-18 97 -15 103 68 97 37 -3 83 -9 103 -12
l37 -7 48 98 c54 109 75 130 98 99 13 -19 15 -18 55 18 23 20 48 37 56 37 34
0 152 -181 187 -286 20 -60 20 -65 4 -89 -17 -25 -16 -27 24 -73 108 -122 156
-291 216 -762 14 -113 26 -160 72 -285 30 -82 59 -166 64 -185 6 -19 21 -57
34 -85 31 -66 54 -159 54 -215 l0 -45 -22 33 c-25 41 -33 32 -42 -50 -5 -45
-1 -72 16 -124 24 -75 28 -49 -42 -284 -17 -58 -38 -154 -46 -215 -17 -133
-17 -133 -49 -145 -15 -6 -25 -17 -25 -29 0 -11 -5 -23 -10 -26 -6 -4 -8 -21
-5 -39 4 -17 0 -79 -8 -136 -8 -58 -13 -141 -11 -185 2 -44 3 -101 4 -127 l0
-48 980 0 980 0 0 1800 0 1800 -2400 0 -2400 0 0 -1800z"/>
<path d="M2087 1158 c8 -84 22 -118 22 -58 1 59 -9 120 -20 120 -5 0 -6 -28
-2 -62z"/>
</g>
</svg>
