<?xml version="1.0" standalone="no"?>
<!DOCTYPE svg PUBLIC "-//W3C//DTD SVG 20010904//EN"
 "http://www.w3.org/TR/2001/REC-SVG-20010904/DTD/svg10.dtd">
<svg version="1.0" xmlns="http://www.w3.org/2000/svg"
 width="480.000000pt" height="360.000000pt" viewBox="0 0 480.000000 360.000000"
 preserveAspectRatio="xMidYMid meet">
<metadata>
Created by potrace 1.16, written by Peter Selinger 2001-2019
</metadata>
<rect width="1" height="360" fill="#000000"/>
<rect x="479" width="1" height="360" fill="#000000"/>
<rect width="480" height="1" fill="#000000"/>
<rect y="359" width="480" height="1" fill="#000000"/>
<g transform="translate(0.000000,360.000000) scale(0.100000,-0.100000)"
fill="#000000" stroke="none">
<path d="M810 3595 c0 -3 84 -164 187 -358 155 -292 195 -361 237 -402 28 -28
91 -94 139 -148 87 -96 307 -300 441 -410 44 -36 79 -57 95 -57 38 0 113 -25
157 -52 22 -13 56 -32 78 -43 79 -40 117 -100 244 -380 74 -163 85 -202 80
-291 -3 -73 -5 -79 -35 -103 l-32 -25 82 -44 c96 -52 242 -129 347 -184 183
-97 338 -204 470 -323 69 -63 200 -160 381 -284 256 -174 355 -236 549 -338
41 -22 123 -65 181 -96 l106 -57 142 0 141 0 0 1800 0 1800 -224 0 -224 0 24
-91 c30 -110 60 -265 74 -379 15 -122 12 -398 -5 -520 -70 -493 -318 -903
-674 -1112 -85 -50 -253 -104 -193 -62 32 22 72 63 72 74 0 5 11 21 24 37 37
44 73 190 103 413 24 179 27 237 27 465 0 236 -2 267 -22 339 -38 137 -135
291 -254 401 -135 125 -268 233 -455 368 l-93 67 -1085 0 c-597 0 -1085 -2
-1085 -5z m2064 -1014 c26 -5 52 -14 56 -22 11 -16 4 -79 -25 -249 -13 -74
-26 -156 -30 -182 -3 -26 -10 -50 -15 -53 -17 -11 -105 43 -174 106 -76 69
-219 243 -244 295 -20 44 -9 57 69 78 112 32 264 43 363 27z"/>
<path d="M1410 2234 c-147 -27 -252 -62 -346 -114 -480 -263 -767 -887 -715
-1553 14 -177 30 -271 73 -439 l32 -128 344 0 344 0 -81 75 c-189 179 -261
391 -261 770 0 121 4 161 35 360 8 50 19 142 25 205 17 197 41 296 102 419 33
67 130 181 154 181 8 0 14 4 14 8 0 11 150 82 172 82 9 0 18 4 20 9 2 6 46 21
98 36 91 25 137 34 245 53 l50 8 -40 13 c-41 13 -221 23 -265 15z"/>
<path d="M1656 1132 c-10 -16 14 -395 27 -422 28 -57 203 -26 382 68 39 21 68
41 65 47 -3 5 -25 17 -50 25 -67 23 -106 54 -165 134 -29 39 -61 79 -72 88
-42 38 -174 81 -187 60z"/>
</g>
</svg>
