<?xml version="1.0" standalone="no"?>
<!DOCTYPE svg PUBLIC "-//W3C//DTD SVG 20010904//EN"
 "http://www.w3.org/TR/2001/REC-SVG-20010904/DTD/svg10.dtd">
<svg version="1.0" xmlns="http://www.w3.org/2000/svg"
 width="480.000000pt" height="360.000000pt" viewBox="0 0 480.000000 360.000000"
 preserveAspectRatio="xMidYMid meet">
<metadata>
Created by potrace 1.16, written by Peter Selinger 2001-2019
</metadata>
<rect width="1" height="360" fill="#000000"/>
<rect x="479" width="1" height="360" fill="#000000"/>
<rect width="480" height="1" fill="#000000"/>
<rect y="359" width="480" height="1" fill="#000000"/>
<g transform="translate(0.000000,360.000000) scale(0.100000,-0.100000)"
fill="#000000" stroke="none">
<path d="M0 1800 l0 -1800 941 0 c892 0 941 1 934 17 -28 72 -36 131 -26 203
6 41 13 110 16 153 3 43 17 116 30 161 13 46 32 124 40 172 9 49 25 127 36
173 18 81 18 83 0 100 -18 15 -18 24 -11 116 5 55 9 137 10 181 0 75 21 229
36 269 6 14 -2 12 -44 -9 -28 -14 -63 -37 -78 -51 -29 -27 -89 -34 -137 -16
-33 13 -67 50 -67 73 0 10 36 88 80 173 44 85 80 157 80 160 0 3 -12 10 -27
16 l-26 10 37 25 c20 14 36 30 34 36 -2 5 -58 39 -125 74 l-122 64 -18 -30
c-9 -16 -20 -30 -23 -30 -13 0 -71 71 -81 99 -15 41 -40 55 -74 39 -20 -9 -31
-9 -45 0 -11 6 -33 9 -49 6 -26 -6 -31 -3 -36 19 -4 14 -5 35 -3 47 3 20 -5
25 -65 45 -90 29 -111 46 -165 135 -61 100 -82 163 -75 223 3 26 9 46 14 45 4
-2 44 -36 88 -75 44 -40 110 -91 147 -112 59 -34 71 -38 96 -29 44 16 115 4
144 -23 14 -13 29 -23 32 -21 4 2 15 -13 26 -32 20 -39 47 -51 99 -43 37 5 87
-10 88 -26 1 -7 2 -20 3 -30 1 -13 35 -32 127 -71 70 -29 143 -63 162 -75 31
-19 216 -65 225 -56 1 1 6 20 9 41 l6 39 -27 -24 c-27 -26 -33 -22 -16 10 9
16 51 191 50 208 0 3 -7 -3 -15 -13 -14 -18 -15 -18 -25 8 -5 15 -10 34 -10
42 0 8 -7 14 -16 14 -12 0 -14 5 -9 18 5 9 7 40 6 67 -3 80 51 167 132 211 28
15 28 16 22 79 -6 57 -5 64 13 74 27 15 85 14 100 -1 14 -14 15 -14 40 45 20
46 22 47 49 35 40 -17 82 -58 76 -74 -7 -19 0 -18 42 8 39 22 54 16 55 -23 0
-26 22 -37 75 -41 47 -3 51 -5 80 -52 25 -41 30 -59 29 -104 -2 -53 0 -57 43
-99 38 -36 43 -46 33 -58 -10 -12 -10 -21 -1 -41 20 -44 12 -109 -30 -240 -39
-121 -43 -152 -28 -213 3 -11 -6 -15 -33 -15 -35 0 -37 -2 -49 -46 -15 -59
-23 -37 -10 32 5 29 8 54 6 56 -1 2 -15 -31 -30 -73 -29 -78 -44 -95 -46 -47
0 15 -4 36 -9 47 -7 18 -9 16 -15 -13 -6 -26 -10 -30 -21 -21 -11 9 -14 4 -15
-27 -1 -22 -3 -73 -4 -114 -3 -95 -22 -165 -94 -353 -88 -227 -86 -219 -62
-264 25 -49 97 -118 191 -181 111 -76 121 -87 136 -145 7 -28 19 -71 25 -93
11 -37 10 -48 -11 -103 -14 -38 -34 -70 -52 -85 l-29 -22 36 -140 c19 -76 49
-186 65 -244 17 -58 33 -120 36 -138 l7 -32 933 0 934 0 0 1800 0 1800 -2400
0 -2400 0 0 -1800z"/>
<path d="M2280 2121 c-6 -12 -7 -21 -1 -21 10 0 24 30 17 37 -2 3 -9 -5 -16
-16z"/>
<path d="M2310 2112 c0 -5 7 -13 16 -16 10 -4 14 -1 12 6 -5 15 -28 23 -28 10z"/>
</g>
</svg>
