<?xml version="1.0" standalone="no"?>
<!DOCTYPE svg PUBLIC "-//W3C//DTD SVG 20010904//EN"
 "http://www.w3.org/TR/2001/REC-SVG-20010904/DTD/svg10.dtd">
<svg version="1.0" xmlns="http://www.w3.org/2000/svg"
 width="480.000000pt" height="360.000000pt" viewBox="0 0 480.000000 360.000000"
 preserveAspectRatio="xMidYMid meet">
<metadata>
Created by potrace 1.16, written by Peter Selinger 2001-2019
</metadata>
<rect width="1" height="360" fill="#000000"/>
<rect x="479" width="1" height="360" fill="#000000"/>
<rect width="480" height="1" fill="#000000"/>
<rect y="359" width="480" height="1" fill="#000000"/>
<g transform="translate(0.000000,360.000000) scale(0.100000,-0.100000)"
fill="#000000" stroke="none">
<path d="M1230 3566 c0 -19 5 -38 10 -41 6 -4 8 -21 4 -40 -3 -18 -1 -42 6
-55 6 -12 13 -40 16 -62 2 -23 11 -49 20 -59 9 -10 13 -22 10 -27 -3 -6 1 -23
9 -38 8 -16 15 -34 15 -41 0 -21 40 -35 79 -29 88 15 86 16 89 -37 3 -42 -2
-58 -37 -115 -58 -96 -64 -117 -46 -151 8 -16 28 -34 46 -40 27 -9 30 -14 25
-38 -4 -16 -13 -102 -21 -193 -8 -91 -17 -190 -20 -220 -5 -54 -5 -55 9 -25 9
17 22 46 30 65 13 32 14 23 10 -115 -3 -127 -2 -143 8 -105 l11 45 8 -50 c5
-27 10 -60 13 -72 5 -17 -4 -29 -44 -58 -87 -64 -98 -93 -110 -299 -5 -98 -12
-181 -15 -186 -3 -4 -26 -11 -51 -15 -67 -10 -91 -21 -110 -50 -16 -25 -16
-27 30 -95 30 -46 46 -81 46 -101 0 -17 -12 -99 -26 -183 l-26 -151 -133 -265
c-74 -146 -157 -311 -187 -367 l-53 -102 49 -50 48 -49 -20 -76 -20 -76 1168
0 1169 0 30 37 c41 50 41 107 0 230 l-30 91 31 94 30 94 -89 189 c-100 213
-182 410 -246 592 l-42 123 28 38 c53 73 48 167 -12 197 -15 8 -51 20 -79 26
-57 12 -52 2 -75 154 -25 157 -62 216 -184 286 -33 18 -61 40 -61 46 0 7 9 27
20 45 25 41 25 44 0 51 -18 5 -19 12 -15 117 4 108 6 116 49 205 24 51 54 104
67 119 13 15 34 62 47 104 20 66 22 89 17 161 l-7 84 23 -8 c56 -17 90 -17
110 0 21 20 49 71 49 90 0 7 6 15 14 18 7 3 17 22 20 43 4 20 14 47 22 60 9
12 14 35 12 51 -2 17 4 34 14 43 9 8 18 31 19 50 2 19 9 42 17 51 7 9 14 28
16 42 1 14 8 33 15 41 7 8 10 20 6 26 -4 7 -295 10 -916 10 l-909 0 0 -34z
m504 -2441 c8 -44 16 -98 17 -120 3 -59 -13 -285 -20 -289 -3 -2 -6 10 -7 27
0 18 -3 57 -7 87 -3 30 -9 125 -12 210 -4 85 -9 158 -12 163 -2 4 -1 12 3 18
11 18 20 -6 38 -96z"/>
<path d="M1472 2130 c0 -14 2 -19 5 -12 2 6 2 18 0 25 -3 6 -5 1 -5 -13z"/>
</g>
</svg>
