<?xml version="1.0" standalone="no"?>
<!DOCTYPE svg PUBLIC "-//W3C//DTD SVG 20010904//EN"
 "http://www.w3.org/TR/2001/REC-SVG-20010904/DTD/svg10.dtd">
<svg version="1.0" xmlns="http://www.w3.org/2000/svg"
 width="480.000000pt" height="360.000000pt" viewBox="0 0 480.000000 360.000000"
 preserveAspectRatio="xMidYMid meet">
<metadata>
Created by potrace 1.16, written by Peter Selinger 2001-2019
</metadata>
<rect width="1" height="360" fill="#000000"/>
<rect x="479" width="1" height="360" fill="#000000"/>
<rect width="480" height="1" fill="#000000"/>
<rect y="359" width="480" height="1" fill="#000000"/>
<g transform="translate(0.000000,360.000000) scale(0.100000,-0.100000)"
fill="#000000" stroke="none">
<path d="M2440 3249 c-189 -11 -259 -36 -333 -118 -82 -90 -111 -194 -104
-366 l4 -119 -50 -53 c-29 -31 -59 -53 -71 -53 -34 0 -48 -15 -45 -48 2 -16
-3 -42 -11 -57 -14 -25 -13 -29 3 -39 11 -6 49 -30 85 -54 82 -53 108 -61 127
-36 13 18 14 16 15 -16 1 -31 2 -33 14 -18 35 46 35 -42 0 -116 -14 -30 -34
-62 -45 -72 -29 -26 -23 -34 22 -34 l41 0 -7 -55 c-8 -65 2 -69 43 -19 l30 36
26 -40 c32 -51 39 -55 62 -37 17 12 23 10 63 -28 l44 -42 -7 30 -6 30 30 -35
c16 -19 30 -38 30 -42 0 -8 -25 -13 -145 -28 -158 -20 -212 -52 -290 -171 -50
-76 -115 -204 -115 -228 0 -11 -19 -13 -102 -9 -155 8 -207 32 -403 185 -78
61 -146 103 -233 145 -112 54 -122 61 -122 87 0 35 -22 66 -42 58 -9 -3 -42
-43 -74 -89 -82 -118 -198 -262 -268 -337 -70 -73 -256 -234 -431 -373 -127
-100 -152 -124 -141 -135 8 -8 85 7 236 47 141 36 167 37 270 4 45 -14 98 -24
118 -22 36 3 39 6 87 100 55 106 79 138 105 138 20 0 52 -33 74 -78 14 -27 20
-31 32 -21 8 6 14 22 14 34 0 63 29 70 106 25 60 -34 103 -81 111 -122 3 -16
12 -32 20 -35 7 -3 54 15 104 41 133 68 187 61 298 -38 81 -72 78 -73 217 36
34 26 64 48 66 48 2 0 14 -13 26 -29 20 -28 20 -31 7 -114 -8 -47 -18 -102
-23 -124 -23 -90 -23 -119 1 -154 25 -38 97 -79 139 -79 34 0 35 -10 9 -105
-13 -44 -28 -77 -43 -89 -13 -10 -22 -22 -21 -27 4 -13 -43 -115 -56 -123 -6
-4 -11 -29 -11 -57 0 -40 3 -49 18 -49 43 -1 45 -14 13 -85 -17 -37 -31 -69
-31 -71 0 -2 264 -4 586 -4 l585 0 -34 62 c-18 35 -42 77 -52 95 l-19 31 27
53 c25 48 26 55 12 73 -9 12 -21 32 -27 46 -7 14 -18 28 -25 33 -36 23 -43 40
-43 109 l0 70 28 -8 c43 -14 124 -9 159 9 53 28 57 44 57 247 l1 185 26 28
c15 15 33 27 42 27 26 0 30 20 9 43 -11 12 -25 35 -31 50 -13 33 2 43 47 32
76 -18 299 -153 422 -255 70 -58 121 -90 143 -90 11 0 43 18 72 40 106 82 172
90 274 34 36 -20 82 -49 102 -65 50 -39 75 -38 93 4 16 40 61 69 136 90 83 22
117 27 151 20 30 -6 30 -7 29 -62 -2 -78 -2 -79 21 -52 11 14 30 26 42 28 46
7 47 14 47 424 0 372 -1 387 -20 412 -26 32 -86 70 -100 62 -5 -3 -10 -23 -10
-44 0 -51 -18 -65 -136 -105 -112 -37 -181 -71 -304 -146 -204 -124 -334 -167
-465 -155 -38 4 -106 13 -150 21 -119 21 -144 19 -155 -11 -11 -28 -34 -31
-90 -11 -33 12 -35 17 -62 112 -16 54 -47 137 -71 184 -37 75 -47 88 -87 108
-25 12 -99 34 -164 47 -136 29 -233 69 -216 90 6 7 19 30 30 51 l19 39 1 -30
c0 -25 2 -27 11 -12 5 9 20 17 32 17 13 0 28 5 35 12 9 9 15 8 26 -7 18 -24
46 -13 46 19 0 14 5 28 10 31 6 4 10 -5 10 -20 0 -22 3 -24 19 -15 11 5 23 20
27 32 3 12 13 37 21 56 l14 34 23 -21 c24 -23 46 -13 46 21 0 17 2 17 30 3 53
-28 63 -19 30 27 -16 22 -30 45 -30 49 0 4 16 11 35 15 43 8 44 15 5 37 -47
28 -71 69 -61 104 15 50 41 93 54 87 24 -9 49 21 54 67 5 43 3 47 -34 80 -42
36 -79 86 -71 95 7 6 92 -27 186 -72 68 -33 75 -34 91 -20 38 35 50 128 26
216 l-6 25 91 1 c72 2 96 6 109 19 15 15 14 18 -14 43 -73 64 -138 197 -143
292 -6 118 -2 113 -87 108 -41 -3 -82 -11 -91 -19 -9 -7 -22 -14 -29 -15 -11
-2 -81 -45 -145 -91 -51 -37 -68 -35 -111 12 -49 53 -105 87 -178 109 -59 17
-186 19 -411 5z"/>
</g>
</svg>
