<?xml version="1.0" standalone="no"?>
<!DOCTYPE svg PUBLIC "-//W3C//DTD SVG 20010904//EN"
 "http://www.w3.org/TR/2001/REC-SVG-20010904/DTD/svg10.dtd">
<svg version="1.0" xmlns="http://www.w3.org/2000/svg"
 width="480.000000pt" height="360.000000pt" viewBox="0 0 480.000000 360.000000"
 preserveAspectRatio="xMidYMid meet">
<metadata>
Created by potrace 1.16, written by Peter Selinger 2001-2019
</metadata>
<rect width="1" height="360" fill="#000000"/>
<rect x="479" width="1" height="360" fill="#000000"/>
<rect width="480" height="1" fill="#000000"/>
<rect y="359" width="480" height="1" fill="#000000"/>
<g transform="translate(0.000000,360.000000) scale(0.100000,-0.100000)"
fill="#000000" stroke="none">
<path d="M0 1800 l0 -1800 1003 0 1003 0 12 133 c6 72 21 185 32 249 17 98 18
125 9 164 -8 29 -10 90 -6 166 4 91 2 133 -10 170 -8 29 -12 62 -8 77 8 30 6
346 -2 367 -8 22 -15 16 -69 -55 -30 -39 -67 -74 -95 -90 l-46 -25 -119 28
c-66 16 -177 33 -249 39 -124 9 -131 11 -157 38 -15 16 -34 29 -42 29 -8 0
-16 5 -18 11 -3 8 -15 8 -44 -1 -32 -9 -61 -10 -124 -1 -46 6 -136 11 -200 11
-85 0 -121 4 -129 13 -12 15 3 37 26 37 9 0 11 8 7 27 -6 24 -5 26 17 19 13
-5 36 -10 51 -13 24 -5 26 -3 21 18 -7 24 -1 24 65 -3 30 -12 35 -11 47 6 11
15 17 16 28 7 11 -9 17 -8 26 2 16 20 3 27 -50 27 -60 0 -79 7 -79 30 0 27 23
32 156 38 110 4 124 2 164 -18 l43 -22 17 22 c14 19 29 23 83 26 56 3 79 -2
142 -27 71 -28 227 -68 268 -69 10 0 20 8 24 18 9 27 72 164 94 204 14 27 18
47 14 72 -9 45 4 67 89 154 l71 73 -2 55 c-3 54 -2 56 50 108 28 29 64 61 80
72 19 13 29 31 34 58 l6 38 -31 -16 c-17 -9 -40 -16 -52 -16 -22 0 -120 89
-120 108 0 7 -13 18 -30 27 -35 18 -37 28 -10 63 21 25 21 26 2 45 -11 11 -39
21 -64 24 -36 4 -48 11 -62 34 -10 16 -22 27 -27 24 -5 -4 -9 6 -9 22 0 15 -4
34 -9 42 -7 11 -11 10 -20 -5 -9 -17 -10 -17 -11 -2 0 25 77 258 95 285 8 12
42 41 76 63 45 31 59 46 54 58 -4 10 -9 38 -12 65 -4 36 -3 47 8 48 8 0 34 2
59 4 25 2 51 -1 57 -7 23 -18 39 -1 51 53 7 30 24 79 38 109 l26 55 21 -27 20
-27 44 46 43 47 26 -25 c41 -38 141 -196 160 -251 9 -27 14 -67 12 -89 -2 -21
0 -39 4 -39 18 0 79 -65 105 -113 78 -139 113 -283 153 -612 17 -150 23 -173
86 -345 75 -210 119 -374 129 -490 6 -70 5 -80 -9 -80 -11 0 -16 -9 -16 -30 0
-17 -7 -46 -15 -66 -10 -25 -12 -42 -5 -60 15 -39 12 -84 -10 -147 -11 -31
-20 -63 -20 -72 0 -8 -18 -61 -39 -117 -22 -59 -46 -145 -55 -202 -10 -65 -22
-106 -34 -120 -16 -17 -21 -50 -31 -191 -12 -186 -14 -298 -5 -332 l6 -23 994
0 994 0 0 1800 0 1800 -2400 0 -2400 0 0 -1800z"/>
<path d="M2083 1135 c0 -27 2 -38 4 -22 2 15 2 37 0 50 -2 12 -4 0 -4 -28z"/>
</g>
</svg>
