<?xml version="1.0" standalone="no"?>
<!DOCTYPE svg PUBLIC "-//W3C//DTD SVG 20010904//EN"
 "http://www.w3.org/TR/2001/REC-SVG-20010904/DTD/svg10.dtd">
<svg version="1.0" xmlns="http://www.w3.org/2000/svg"
 width="480.000000pt" height="360.000000pt" viewBox="0 0 480.000000 360.000000"
 preserveAspectRatio="xMidYMid meet">
<metadata>
Created by potrace 1.16, written by Peter Selinger 2001-2019
</metadata>
<rect width="1" height="360" fill="#000000"/>
<rect x="479" width="1" height="360" fill="#000000"/>
<rect width="480" height="1" fill="#000000"/>
<rect y="359" width="480" height="1" fill="#000000"/>
<g transform="translate(0.000000,360.000000) scale(0.100000,-0.100000)"
fill="#000000" stroke="none">
<path d="M1761 3440 c-32 -40 -34 -48 -36 -125 -1 -45 -5 -87 -8 -92 -7 -11 4
-150 13 -173 1 -3 2 -9 1 -13 -1 -4 4 -17 10 -29 10 -19 18 -20 80 -16 38 3
69 1 69 -3 0 -5 -27 -45 -60 -90 -33 -44 -63 -91 -66 -104 -7 -29 11 -65 34
-66 31 -1 74 -8 79 -12 4 -5 -33 -233 -47 -284 -13 -50 5 -39 25 15 20 54 39
80 31 42 -3 -14 -17 -90 -31 -169 -21 -121 -29 -149 -50 -171 -16 -16 -30 -49
-39 -90 -49 -223 -59 -260 -69 -260 -7 0 -29 5 -51 11 -21 6 -42 7 -47 2 -4
-4 1 -33 12 -63 10 -30 19 -63 19 -75 0 -53 -115 -344 -238 -598 l-86 -178 13
-47 c36 -127 37 -210 5 -482 -29 -262 -5 -370 83 -370 30 0 37 6 73 63 42 66
49 62 25 -15 l-14 -48 729 0 c402 0 730 2 730 4 0 2 -9 25 -20 51 -25 58 -25
58 2 70 57 26 78 105 78 292 0 100 2 112 18 118 11 3 33 27 50 54 43 66 42
109 -3 184 -39 65 -41 74 -20 101 12 16 18 17 27 8 19 -19 25 -15 32 21 5 29
-18 171 -45 272 -5 22 -12 55 -15 74 -3 19 -9 43 -15 53 -6 11 -8 22 -6 25 3
2 2 17 -3 31 -5 15 -25 81 -46 147 -20 66 -43 134 -52 150 -8 17 -19 38 -23
47 -5 10 -9 31 -9 47 0 16 -7 34 -15 41 -8 7 -21 24 -28 39 -8 14 -34 64 -59
111 -25 47 -49 99 -52 116 -4 18 -22 49 -41 71 -30 35 -33 43 -28 87 3 26 11
50 17 52 14 5 9 257 -5 262 -17 7 -9 80 12 117 24 40 35 41 20 1 -19 -47 6
-27 28 23 14 33 21 71 21 110 0 52 3 61 18 61 19 0 57 37 81 80 8 14 28 50 44
80 16 30 45 81 65 113 32 55 34 61 23 97 -10 35 -17 41 -85 69 -138 57 -249
73 -356 50 -35 -7 -56 -18 -67 -35 l-15 -24 -23 24 c-30 32 -63 41 -151 41
-62 0 -73 3 -80 20 -11 26 -136 88 -205 103 -30 6 -92 14 -139 18 l-85 6 -34
-42z m115 -1191 c-2 -18 -10 -37 -17 -43 -9 -8 -10 -7 -5 7 3 11 9 30 12 43 9
35 16 30 10 -7z m34 -726 c-1 -49 -7 -124 -15 -168 -8 -44 -20 -111 -26 -150
-14 -87 -20 -107 -26 -82 -5 18 34 440 43 470 13 43 24 10 24 -70z m-50 -453
c0 -4 -7 -13 -15 -20 -13 -11 -15 -8 -15 13 0 19 4 25 15 21 8 -4 15 -10 15
-14z"/>
</g>
</svg>
