<?xml version="1.0" standalone="no"?>
<!DOCTYPE svg PUBLIC "-//W3C//DTD SVG 20010904//EN"
 "http://www.w3.org/TR/2001/REC-SVG-20010904/DTD/svg10.dtd">
<svg version="1.0" xmlns="http://www.w3.org/2000/svg"
 width="480.000000pt" height="360.000000pt" viewBox="0 0 480.000000 360.000000"
 preserveAspectRatio="xMidYMid meet">
<metadata>
Created by potrace 1.16, written by Peter Selinger 2001-2019
</metadata>
<rect width="1" height="360" fill="#000000"/>
<rect x="479" width="1" height="360" fill="#000000"/>
<rect width="480" height="1" fill="#000000"/>
<rect y="359" width="480" height="1" fill="#000000"/>
<g transform="translate(0.000000,360.000000) scale(0.100000,-0.100000)"
fill="#000000" stroke="none">
<path d="M0 2785 l0 -815 1775 0 1775 0 0 -35 0 -35 -1776 0 -1775 0 3 -212 3
-213 51 -65 c55 -71 142 -215 197 -326 58 -120 71 -168 71 -279 -1 -92 -3
-105 -33 -167 -49 -102 -145 -198 -199 -198 -4 0 -6 42 -4 93 l4 92 -36 18
c-20 9 -41 17 -46 17 -6 0 -10 -124 -10 -330 l0 -330 2298 0 2297 0 17 48 c9
26 25 72 36 102 11 30 41 123 68 205 26 83 50 155 53 160 13 22 31 81 31 102
0 13 -8 24 -19 28 -43 13 -44 30 -12 114 l31 80 0 441 0 441 -32 -6 c-84 -13
-209 -25 -279 -25 -129 0 -173 25 -210 119 -12 31 -37 86 -56 123 -18 37 -33
82 -33 100 0 22 -12 50 -35 82 -39 55 -39 56 2 149 29 65 47 71 110 37 21 -11
43 -20 49 -20 25 0 32 -25 23 -80 -7 -47 -6 -57 10 -75 10 -11 33 -64 51 -118
18 -54 39 -105 47 -113 18 -17 26 -17 149 0 54 8 123 18 152 21 l52 7 0 359 0
360 -34 30 c-44 38 -96 119 -96 148 0 21 4 23 48 19 26 -3 55 -8 65 -12 16 -8
17 14 17 383 l0 391 -2400 0 -2400 0 0 -815z"/>
</g>
</svg>
