<?xml version="1.0" standalone="no"?>
<!DOCTYPE svg PUBLIC "-//W3C//DTD SVG 20010904//EN"
 "http://www.w3.org/TR/2001/REC-SVG-20010904/DTD/svg10.dtd">
<svg version="1.0" xmlns="http://www.w3.org/2000/svg"
 width="480.000000pt" height="360.000000pt" viewBox="0 0 480.000000 360.000000"
 preserveAspectRatio="xMidYMid meet">
<metadata>
Created by potrace 1.16, written by Peter Selinger 2001-2019
</metadata>
<rect width="1" height="360" fill="#000000"/>
<rect x="479" width="1" height="360" fill="#000000"/>
<rect width="480" height="1" fill="#000000"/>
<rect y="359" width="480" height="1" fill="#000000"/>
<g transform="translate(0.000000,360.000000) scale(0.100000,-0.100000)"
fill="#000000" stroke="none">
<path d="M2195 3352 c-73 -25 -111 -56 -136 -112 -20 -44 -26 -49 -62 -56 -48
-8 -97 -51 -97 -86 0 -13 9 -41 19 -61 13 -26 17 -49 14 -76 -3 -21 0 -54 6
-72 16 -45 87 -124 97 -108 20 34 33 -125 14 -175 -13 -35 -4 -33 31 7 l29 32
0 -45 c1 -40 2 -43 14 -27 16 21 30 22 22 2 -8 -21 0 -19 25 6 30 30 62 21 70
-20 6 -30 3 -40 -27 -75 -19 -22 -42 -62 -53 -90 -18 -50 -19 -66 -6 -153 9
-59 -28 -128 -50 -93 -4 7 -13 6 -27 -1 -18 -10 -27 -4 -72 39 -53 52 -107 72
-194 72 -33 0 -40 -5 -64 -44 -16 -24 -28 -52 -28 -62 0 -10 -4 -26 -9 -33 -6
-9 -6 -22 0 -32 6 -12 5 -20 -1 -24 -14 -9 -2 -75 18 -97 13 -16 30 -17 143
-13 l129 5 0 -28 c0 -27 4 -30 90 -55 55 -17 93 -34 98 -45 5 -9 12 -78 15
-152 4 -117 2 -140 -13 -170 -29 -57 -48 -135 -70 -285 -31 -215 -79 -386
-151 -533 -33 -68 -67 -135 -76 -148 l-15 -24 -25 20 c-14 11 -38 20 -53 20
-25 0 -36 -13 -97 -113 l-70 -112 7 -60 c4 -33 10 -67 14 -76 4 -10 -1 -32
-13 -55 -14 -25 -21 -57 -21 -91 l0 -53 950 0 c631 0 955 3 963 10 7 6 32 24
57 40 l45 29 13 -39 14 -40 105 0 106 0 -8 73 c-13 141 -42 273 -68 314 -14
21 -35 62 -47 90 -12 28 -36 65 -54 82 -24 23 -32 39 -29 55 11 56 -44 120
-188 215 -71 48 -98 61 -124 59 -81 -5 -253 200 -404 483 -28 53 -51 98 -51
102 0 3 30 8 68 12 155 15 225 54 274 152 29 59 30 68 26 152 -4 88 -5 90 -95
277 -50 104 -105 229 -123 277 -19 49 -51 113 -72 143 -21 30 -38 61 -38 69 0
8 -21 28 -47 45 -28 17 -41 30 -30 30 26 0 20 16 -15 39 -27 17 -29 21 -13 22
14 0 16 2 5 6 -66 24 -104 49 -129 83 -32 45 -56 98 -48 106 3 3 26 -8 52 -26
89 -62 118 -69 238 -61 79 5 110 11 120 23 6 9 25 19 40 22 31 7 27 23 -9 36
-13 5 -21 15 -19 22 3 7 -7 19 -22 26 -16 7 -62 44 -103 82 -77 72 -217 154
-308 181 -29 8 -48 21 -57 39 -18 34 -117 103 -178 124 -62 21 -159 20 -222
-2z"/>
</g>
</svg>
