<?xml version="1.0" standalone="no"?>
<!DOCTYPE svg PUBLIC "-//W3C//DTD SVG 20010904//EN"
 "http://www.w3.org/TR/2001/REC-SVG-20010904/DTD/svg10.dtd">
<svg version="1.0" xmlns="http://www.w3.org/2000/svg"
 width="480.000000pt" height="360.000000pt" viewBox="0 0 480.000000 360.000000"
 preserveAspectRatio="xMidYMid meet">
<metadata>
Created by potrace 1.16, written by Peter Selinger 2001-2019
</metadata>
<rect width="1" height="360" fill="#000000"/>
<rect x="479" width="1" height="360" fill="#000000"/>
<rect width="480" height="1" fill="#000000"/>
<rect y="359" width="480" height="1" fill="#000000"/>
<g transform="translate(0.000000,360.000000) scale(0.100000,-0.100000)"
fill="#000000" stroke="none">
<path d="M950 3586 c0 -18 13 -28 92 -70 52 -27 87 -38 155 -46 48 -6 113 -16
143 -21 30 -6 77 -13 105 -16 27 -3 59 -11 70 -19 29 -21 85 -17 111 7 26 25
43 18 108 -41 28 -26 54 -39 81 -43 22 -3 85 -13 140 -21 55 -8 120 -15 145
-16 70 -1 77 -10 43 -57 -29 -40 -198 -233 -313 -358 -36 -39 -83 -91 -105
-115 -42 -46 -148 -143 -269 -246 -38 -33 -96 -83 -130 -112 -33 -30 -73 -60
-88 -68 -16 -8 -28 -18 -28 -23 0 -5 -39 -40 -87 -79 -49 -39 -123 -103 -166
-144 l-78 -73 -20 -140 c-16 -107 -18 -148 -10 -175 11 -36 72 -91 260 -233
42 -31 96 -74 120 -94 23 -20 86 -65 140 -101 53 -35 116 -81 141 -101 66 -54
101 -78 145 -102 22 -12 49 -29 60 -38 32 -28 211 -134 328 -195 60 -30 158
-71 218 -91 94 -30 122 -35 207 -35 82 0 104 3 123 19 13 10 38 25 55 34 36
19 90 89 133 174 30 61 67 176 96 303 35 151 76 292 96 333 42 84 109 137 174
137 48 0 86 -21 124 -69 50 -62 50 -88 0 -138 -26 -28 -39 -48 -35 -58 3 -9
-8 -41 -24 -72 -33 -61 -37 -83 -16 -83 24 0 65 40 99 98 41 71 73 89 167 97
l75 7 83 -61 c61 -45 82 -67 82 -83 0 -35 -62 -202 -109 -297 -23 -46 -62
-153 -87 -238 -24 -85 -49 -164 -55 -175 -28 -51 -79 -234 -90 -316 -9 -69 -9
-118 0 -199 6 -59 11 -114 11 -120 0 -10 150 -13 715 -13 l715 0 0 1591 c0
1466 -1 1591 -16 1585 -9 -4 -37 -11 -63 -18 -25 -6 -66 -21 -91 -33 -25 -13
-85 -39 -135 -60 -61 -25 -104 -50 -133 -78 -54 -53 -114 -153 -142 -237 -20
-59 -22 -77 -16 -196 6 -119 5 -133 -12 -154 -15 -19 -29 -23 -73 -24 l-54 -1
-3 -79 c-2 -45 -9 -87 -17 -100 -7 -11 -17 -55 -20 -96 -4 -41 -15 -92 -26
-113 -19 -37 -19 -37 4 -85 19 -41 32 -52 92 -83 62 -32 73 -42 97 -90 21 -43
27 -69 27 -125 1 -43 -4 -77 -12 -88 -12 -17 -19 -12 -79 60 -37 44 -112 124
-167 178 -56 54 -101 104 -101 110 1 6 9 29 20 51 27 56 26 116 -2 142 -36 31
-108 53 -178 53 -97 1 -131 12 -212 71 -40 30 -80 59 -89 64 -9 6 -51 37 -94
70 -43 33 -91 69 -108 79 -20 13 -41 44 -64 95 -19 42 -43 85 -52 96 -17 19
-55 88 -155 281 -23 44 -51 94 -62 110 -11 16 -33 56 -48 89 -15 33 -34 67
-41 75 -7 8 -43 75 -81 149 -37 74 -76 143 -86 153 -12 12 -33 18 -65 18 -57
0 -95 21 -165 91 l-51 49 -688 0 c-579 0 -689 -2 -689 -14z"/>
</g>
</svg>
