<?xml version="1.0" standalone="no"?>
<!DOCTYPE svg PUBLIC "-//W3C//DTD SVG 20010904//EN"
 "http://www.w3.org/TR/2001/REC-SVG-20010904/DTD/svg10.dtd">
<svg version="1.0" xmlns="http://www.w3.org/2000/svg"
 width="480.000000pt" height="360.000000pt" viewBox="0 0 480.000000 360.000000"
 preserveAspectRatio="xMidYMid meet">
<metadata>
Created by potrace 1.16, written by Peter Selinger 2001-2019
</metadata>
<rect width="1" height="360" fill="#000000"/>
<rect x="479" width="1" height="360" fill="#000000"/>
<rect width="480" height="1" fill="#000000"/>
<rect y="359" width="480" height="1" fill="#000000"/>
<g transform="translate(0.000000,360.000000) scale(0.100000,-0.100000)"
fill="#000000" stroke="none">
<path d="M2123 3238 c-21 -26 -35 -91 -32 -146 3 -43 0 -56 -9 -54 -8 1 -37
-4 -65 -12 -29 -9 -64 -18 -79 -21 -34 -7 -45 -38 -24 -70 9 -13 23 -46 32
-72 9 -26 33 -83 55 -126 21 -43 39 -85 39 -93 0 -9 13 -41 30 -72 16 -31 46
-97 66 -147 54 -135 165 -465 159 -474 -2 -5 -45 -6 -94 -3 -78 4 -98 1 -166
-22 -130 -45 -166 -72 -180 -137 -5 -20 -16 -34 -33 -42 -56 -24 -189 -118
-202 -142 -8 -15 -22 -25 -36 -25 -26 0 -47 -18 -100 -85 -45 -56 -55 -92 -80
-262 -17 -118 -17 -122 1 -164 25 -55 81 -82 149 -73 31 5 46 3 46 -5 0 -6 16
-28 35 -49 20 -23 54 -85 81 -148 85 -201 261 -548 319 -629 31 -44 75 -99 98
-122 l41 -43 721 0 720 0 -175 173 c-96 95 -240 234 -320 309 l-144 136 16 38
c10 22 34 95 55 164 36 119 38 131 37 260 -1 195 -53 510 -104 629 -26 59 -50
83 -119 119 -50 26 -53 30 -90 123 -22 53 -51 121 -65 153 -14 31 -26 59 -26
61 0 3 -9 24 -19 48 -11 23 -38 93 -61 155 -22 63 -59 156 -80 207 -22 51 -64
161 -94 246 -97 280 -188 429 -261 429 -18 0 -37 -6 -42 -12z"/>
</g>
</svg>
