<?xml version="1.0" standalone="no"?>
<!DOCTYPE svg PUBLIC "-//W3C//DTD SVG 20010904//EN"
 "http://www.w3.org/TR/2001/REC-SVG-20010904/DTD/svg10.dtd">
<svg version="1.0" xmlns="http://www.w3.org/2000/svg"
 width="480.000000pt" height="360.000000pt" viewBox="0 0 480.000000 360.000000"
 preserveAspectRatio="xMidYMid meet">
<metadata>
Created by potrace 1.16, written by Peter Selinger 2001-2019
</metadata>
<rect width="1" height="360" fill="#000000"/>
<rect x="479" width="1" height="360" fill="#000000"/>
<rect width="480" height="1" fill="#000000"/>
<rect y="359" width="480" height="1" fill="#000000"/>
<g transform="translate(0.000000,360.000000) scale(0.100000,-0.100000)"
fill="#000000" stroke="none">
<path d="M0 3277 l0 -323 148 -27 c329 -60 535 -87 669 -87 109 0 135 4 299
51 236 67 401 84 667 69 210 -12 389 -38 608 -86 l166 -37 39 43 c21 23 45 52
53 65 8 12 31 33 52 46 36 22 67 73 51 83 -4 2 -34 9 -66 15 -33 6 -79 20
-103 32 -41 20 -42 21 -27 44 14 21 13 23 -6 28 -20 5 -20 7 -6 34 26 52 130
134 270 213 59 33 79 61 93 131 l5 29 -1456 0 -1456 0 0 -323z"/>
<path d="M4590 3565 c-25 -19 -92 -58 -149 -87 -57 -29 -105 -58 -107 -63 -5
-13 84 -233 117 -290 l23 -40 -37 33 c-42 36 -45 37 -44 20 0 -7 -1 -35 -2
-63 -1 -44 -3 -48 -15 -32 -12 16 -16 11 -35 -53 -21 -68 -41 -92 -41 -48 0
20 -2 19 -25 -8 -14 -16 -25 -23 -25 -15 0 11 -3 11 -16 0 -13 -10 -17 -10
-25 2 -5 8 -9 9 -9 3 0 -5 -20 -23 -45 -38 -25 -16 -45 -35 -45 -42 0 -25 22
-69 47 -96 25 -26 26 -29 9 -47 -14 -15 -18 -41 -20 -138 -2 -95 -7 -128 -24
-171 -31 -75 -80 -146 -114 -166 -15 -10 -28 -20 -28 -24 0 -4 37 -29 83 -57
45 -27 161 -102 258 -166 126 -84 180 -115 190 -108 38 24 118 -6 227 -86 l62
-46 0 930 0 931 -82 -1 c-78 0 -86 -2 -128 -34z"/>
<path d="M1425 2649 c-110 -13 -213 -43 -367 -108 -219 -91 -241 -96 -466 -96
l-193 0 -39 -125 c-75 -237 -110 -406 -175 -835 -14 -93 -34 -226 -45 -295
-73 -477 -130 -963 -130 -1110 l0 -80 1419 0 1420 0 46 75 c50 79 78 146 95
221 8 33 6 165 -6 463 -8 229 -17 450 -18 491 -3 72 4 206 18 361 l7 74 -19
-24 c-15 -18 -21 -21 -25 -10 -5 11 -9 10 -21 -5 -16 -20 -21 -13 -17 22 1 6
-3 12 -9 12 -15 0 -13 30 11 154 23 120 58 240 95 325 13 29 24 54 24 55 0 0
-28 1 -62 1 -108 1 -237 81 -333 205 -43 56 -50 61 -125 84 -359 114 -825 176
-1085 145z"/>
<path d="M4100 1677 c0 -7 20 -62 44 -122 43 -107 48 -131 24 -107 -24 24 -25
10 -2 -85 14 -58 24 -128 24 -173 l0 -74 65 104 c36 58 75 116 86 130 18 24
19 29 6 60 -8 19 -20 67 -27 107 -10 62 -16 75 -43 96 -88 66 -177 98 -177 64z"/>
<path d="M4264 292 c-44 -48 -110 -123 -147 -168 -66 -79 -99 -104 -137 -104
-10 0 -22 -4 -25 -10 -4 -7 138 -10 419 -10 l426 0 0 130 0 129 -113 36 c-62
19 -158 44 -212 55 -55 12 -107 23 -115 25 -10 3 -45 -27 -96 -83z"/>
</g>
</svg>
