<?xml version="1.0" standalone="no"?>
<!DOCTYPE svg PUBLIC "-//W3C//DTD SVG 20010904//EN"
 "http://www.w3.org/TR/2001/REC-SVG-20010904/DTD/svg10.dtd">
<svg version="1.0" xmlns="http://www.w3.org/2000/svg"
 width="480.000000pt" height="360.000000pt" viewBox="0 0 480.000000 360.000000"
 preserveAspectRatio="xMidYMid meet">
<metadata>
Created by potrace 1.16, written by Peter Selinger 2001-2019
</metadata>
<rect width="1" height="360" fill="#000000"/>
<rect x="479" width="1" height="360" fill="#000000"/>
<rect width="480" height="1" fill="#000000"/>
<rect y="359" width="480" height="1" fill="#000000"/>
<g transform="translate(0.000000,360.000000) scale(0.100000,-0.100000)"
fill="#000000" stroke="none">
<path d="M0 1800 l0 -1800 410 0 c226 0 410 2 410 5 0 2 -21 37 -46 76 -208
321 -344 886 -361 1495 -5 189 5 448 23 566 6 37 5 38 -50 64 -63 30 -98 61
-116 105 -28 66 27 151 127 196 103 47 144 9 82 -76 -22 -31 -28 -46 -19 -51
30 -18 475 -44 655 -38 138 5 141 6 258 52 147 58 213 73 373 86 153 13 377 0
539 -30 61 -11 124 -23 140 -26 27 -5 38 2 99 63 68 67 70 69 82 143 7 41 13
102 14 135 0 102 47 151 235 244 117 58 204 85 251 78 33 -6 117 -58 183 -114
l35 -30 75 24 c110 35 157 40 181 18 11 -10 20 -23 20 -30 0 -12 -104 -114
-153 -150 -26 -19 -27 -22 -15 -55 13 -35 63 -125 95 -168 16 -23 16 -23 -8
-17 -24 6 -25 4 -21 -28 4 -32 0 -38 -57 -81 -65 -50 -74 -72 -41 -101 26 -23
25 -42 -1 -57 -11 -7 -27 -26 -35 -43 -8 -16 -21 -41 -29 -55 -8 -14 -15 -44
-15 -66 0 -37 3 -43 31 -54 22 -10 33 -10 42 -1 16 16 52 14 68 -5 7 -8 29
-24 48 -35 179 -98 201 -113 201 -139 0 -11 30 -37 79 -70 44 -28 113 -76 153
-106 74 -56 93 -61 153 -38 7 3 29 -11 49 -30 19 -20 40 -36 45 -36 6 0 13
-11 17 -24 3 -14 17 -32 30 -41 14 -9 24 -25 24 -40 0 -13 5 -27 10 -30 6 -4
8 -15 5 -26 -5 -15 10 -39 61 -97 159 -182 252 -324 380 -587 l84 -170 0 1498
0 1497 -2400 0 -2400 0 0 -1800z"/>
<path d="M1640 2305 c-111 -18 -155 -35 -270 -100 -99 -56 -170 -79 -282 -90
-77 -7 -69 7 -94 -170 -26 -183 -27 -1066 -1 -1245 34 -238 83 -420 160 -603
l41 -97 595 2 596 3 27 135 c46 230 76 302 215 530 39 63 76 133 83 155 10 29
14 122 15 340 1 165 7 353 14 419 12 118 9 145 -12 115 -11 -15 -47 -23 -47
-10 1 3 13 59 29 124 l28 117 -22 0 c-38 0 -143 60 -181 103 -45 52 -64 95
-64 145 0 22 -6 44 -12 50 -15 11 -175 47 -308 68 -140 22 -406 27 -510 9z"/>
<path d="M3181 1938 c6 -12 31 -46 55 -75 24 -28 40 -53 35 -55 -18 -6 20 -68
41 -68 17 0 19 4 13 28 -4 15 -13 51 -19 81 -10 50 -15 56 -54 77 -24 13 -53
26 -64 30 -18 5 -19 4 -7 -18z"/>
<path d="M3640 1695 c-9 -11 -3 -18 30 -35 50 -26 52 -19 -40 -205 -38 -77
-65 -142 -59 -143 13 -5 85 43 164 110 37 31 81 60 96 63 25 6 59 38 59 56 0
7 -89 70 -182 131 -47 30 -59 34 -68 23z"/>
<path d="M4104 1321 c-14 -12 -21 -33 -23 -66 -2 -55 -22 -99 -48 -109 -10 -4
-72 -18 -138 -31 -101 -20 -138 -33 -231 -81 -96 -49 -116 -56 -147 -50 -35 7
-36 6 -47 -33 -9 -35 -16 -42 -48 -51 -51 -14 -64 -13 -124 10 -28 11 -53 18
-54 17 -8 -8 18 -178 54 -352 25 -120 49 -274 59 -385 l18 -185 713 -3 712 -2
0 140 c0 137 -1 142 -25 168 -24 26 -106 185 -233 452 -89 189 -268 442 -394
557 -24 22 -25 23 -44 4z"/>
</g>
</svg>
