<?xml version="1.0" standalone="no"?>
<!DOCTYPE svg PUBLIC "-//W3C//DTD SVG 20010904//EN"
 "http://www.w3.org/TR/2001/REC-SVG-20010904/DTD/svg10.dtd">
<svg version="1.0" xmlns="http://www.w3.org/2000/svg"
 width="480.000000pt" height="360.000000pt" viewBox="0 0 480.000000 360.000000"
 preserveAspectRatio="xMidYMid meet">
<metadata>
Created by potrace 1.16, written by Peter Selinger 2001-2019
</metadata>
<rect width="1" height="360" fill="#000000"/>
<rect x="479" width="1" height="360" fill="#000000"/>
<rect width="480" height="1" fill="#000000"/>
<rect y="359" width="480" height="1" fill="#000000"/>
<g transform="translate(0.000000,360.000000) scale(0.100000,-0.100000)"
fill="#000000" stroke="none">
<path d="M0 1800 l0 -1800 2400 0 2400 0 0 404 c0 359 -2 405 -16 410 -24 9
-66 7 -59 -3 3 -5 -7 -11 -22 -13 l-28 -4 31 -19 c18 -10 36 -26 42 -36 11
-17 -2 -18 -67 -4 -42 9 -39 -5 10 -44 22 -18 39 -34 37 -36 -6 -6 -162 52
-241 90 -43 20 -81 35 -83 32 -3 -2 25 -28 61 -56 36 -28 65 -56 65 -62 0 -8
-4 -8 -12 -2 -108 84 -148 113 -174 126 -33 17 -206 51 -444 87 -148 23 -245
52 -335 99 -42 22 -63 26 -130 26 -116 -1 -175 -7 -175 -19 0 -6 11 -47 25
-90 29 -91 31 -126 10 -166 -39 -76 -124 -30 -169 92 -10 27 -22 48 -26 48 -5
0 -12 -17 -16 -37 -8 -45 -27 -85 -49 -103 -14 -12 -20 -10 -42 13 -23 22 -27
38 -34 114 -4 48 -8 91 -8 96 -1 4 -16 7 -34 7 -18 0 -38 5 -45 12 -14 14 -63
13 -241 -8 -158 -18 -213 -12 -241 24 -22 28 -26 82 -8 100 10 10 7 16 -12 30
-28 19 -67 25 -75 11 -4 -5 -12 -6 -18 -2 -15 9 -13 9 -232 27 -104 9 -215 15
-245 14 l-55 -1 50 -6 c31 -4 50 -11 49 -18 -1 -7 -2 -23 -3 -35 -3 -51 -8
-52 -152 -29 -74 12 -216 40 -315 61 -100 22 -191 40 -201 40 -11 0 -28 -9
-38 -20 -11 -13 -25 -18 -37 -14 -13 4 -16 1 -12 -10 5 -13 -2 -16 -34 -16
-46 0 -72 26 -72 72 0 15 -5 30 -10 33 -6 4 -59 11 -118 17 -146 14 -185 32
-217 100 l-25 53 23 17 c15 12 40 18 77 18 60 0 352 -25 391 -34 43 -10 506
-54 801 -77 l288 -22 47 53 c81 89 88 99 120 153 50 85 87 147 107 178 l18 29
-31 11 c-36 13 -36 14 -56 154 -24 173 -19 162 -76 170 -39 6 -59 15 -90 44
-50 48 -52 86 -9 124 20 19 27 32 23 44 -6 15 -4 16 9 5 12 -9 18 -10 23 -2 4
6 18 15 31 20 53 21 114 -43 114 -118 0 -24 10 -60 25 -88 14 -26 25 -54 25
-63 1 -9 7 -2 15 16 7 17 22 36 32 42 11 5 25 27 32 49 11 32 11 43 0 63 -8
13 -14 33 -14 44 0 13 -5 19 -15 16 -57 -15 -66 -13 -95 26 -16 21 -37 44 -48
52 -17 12 -17 15 -3 30 15 16 15 19 -3 35 -12 11 -20 13 -23 6 -6 -20 -58 8
-69 37 -10 30 -31 45 -152 106 -43 21 -85 50 -94 63 -8 13 -21 24 -28 24 -8 0
-23 14 -35 30 -12 17 -17 30 -11 30 8 0 7 7 -1 21 -11 17 -11 23 0 26 6 3 10
9 6 14 -8 14 6 11 101 -21 109 -37 115 -37 83 -2 -25 27 -58 133 -58 186 0 44
35 66 108 66 82 0 104 -12 100 -53 -3 -28 0 -32 32 -40 67 -17 67 -28 0 -92
-77 -76 -78 -87 -2 -81 47 4 61 10 80 33 109 130 145 148 302 148 141 -1 166
-9 295 -95 55 -37 118 -77 140 -89 22 -12 51 -30 65 -40 23 -18 23 -20 7 -27
-35 -13 -132 4 -199 35 -119 54 -153 41 -163 -61 -4 -38 -6 -68 -4 -68 30 0
223 -45 255 -59 43 -19 134 -105 134 -126 0 -6 -6 -17 -12 -23 -17 -17 -2 -26
85 -52 68 -21 88 -40 41 -40 -43 0 -16 -19 37 -26 28 -4 45 -10 39 -14 -8 -5
1 -15 24 -29 38 -24 49 -47 18 -39 -10 3 -24 -1 -31 -9 -11 -12 -10 -18 8 -37
31 -33 26 -39 -29 -31 -42 6 -49 5 -44 -8 8 -23 -42 -25 -98 -5 -45 17 -47 17
-53 -1 -3 -11 -4 -25 -3 -32 2 -10 -5 -13 -22 -11 -14 2 -47 3 -73 3 -27 0
-69 7 -95 15 -32 11 -47 13 -50 5 -2 -6 -14 -11 -28 -11 l-24 0 24 -53 c12
-29 31 -76 40 -105 26 -76 68 -93 81 -33 13 61 111 116 241 136 38 6 42 4 52
-22 14 -37 21 -163 12 -214 -5 -27 -4 -42 4 -45 6 -2 109 -17 229 -33 119 -16
223 -34 231 -40 8 -7 14 -20 14 -29 0 -9 3 -25 7 -35 9 -22 -3 -22 -112 -1
-99 18 -153 15 -83 -5 85 -25 120 -42 120 -61 0 -10 -8 -21 -17 -23 -40 -11
81 7 212 31 113 21 171 26 300 27 199 0 299 -8 347 -29 21 -9 41 -16 46 -16
20 0 7 -29 -15 -35 -43 -10 -14 -24 45 -20 31 3 50 2 41 -1 -11 -3 -15 -13
-12 -28 3 -13 0 -27 -7 -31 -15 -9 6 -35 29 -35 9 0 22 -5 29 -12 9 -9 12 246
12 1150 l0 1162 -2400 0 -2400 0 0 -1800z"/>
<path d="M2583 1664 c-24 -73 -44 -109 -102 -185 -66 -86 -91 -136 -91 -181 0
-15 10 -18 64 -18 l63 0 60 73 c73 88 131 170 143 202 8 20 3 36 -25 82 -19
32 -45 71 -58 87 l-24 30 -30 -90z"/>
<path d="M3342 1528 c5 -15 92 -39 128 -36 19 2 11 8 -36 26 -69 25 -98 28
-92 10z"/>
<path d="M4781 853 c7 -10 15 -20 16 -22 2 -2 3 5 3 17 0 14 -6 22 -16 22 -14
0 -15 -3 -3 -17z"/>
</g>
</svg>
