<?xml version="1.0" standalone="no"?>
<!DOCTYPE svg PUBLIC "-//W3C//DTD SVG 20010904//EN"
 "http://www.w3.org/TR/2001/REC-SVG-20010904/DTD/svg10.dtd">
<svg version="1.0" xmlns="http://www.w3.org/2000/svg"
 width="480.000000pt" height="360.000000pt" viewBox="0 0 480.000000 360.000000"
 preserveAspectRatio="xMidYMid meet">
<metadata>
Created by potrace 1.16, written by Peter Selinger 2001-2019
</metadata>
<rect width="1" height="360" fill="#000000"/>
<rect x="479" width="1" height="360" fill="#000000"/>
<rect width="480" height="1" fill="#000000"/>
<rect y="359" width="480" height="1" fill="#000000"/>
<g transform="translate(0.000000,360.000000) scale(0.100000,-0.100000)"
fill="#000000" stroke="none">
<path d="M2272 1167 c-20 -21 -20 -23 -2 -59 45 -93 132 -191 255 -290 55 -44
117 -99 138 -121 55 -60 117 -137 117 -147 0 -4 -12 -10 -27 -13 -51 -9 -208
-58 -243 -76 -55 -28 -62 -50 -54 -170 3 -58 12 -122 20 -144 12 -34 12 -47 0
-93 l-14 -54 599 0 c329 0 599 4 599 8 0 11 -126 191 -158 224 -24 26 -25 30
-18 123 3 53 14 115 22 138 49 131 49 176 -2 199 -15 7 -40 25 -55 41 -27 27
-30 27 -58 13 -39 -21 -64 -54 -80 -107 -7 -24 -19 -59 -27 -77 -8 -18 -14
-40 -14 -50 0 -9 -4 -23 -9 -31 -9 -14 -32 -6 -69 24 -9 7 -53 42 -97 77 -44
36 -159 124 -255 196 -96 73 -227 180 -290 238 -116 107 -173 148 -228 164
-25 7 -34 4 -50 -13z"/>
</g>
</svg>
