<?xml version="1.0" standalone="no"?>
<!DOCTYPE svg PUBLIC "-//W3C//DTD SVG 20010904//EN"
 "http://www.w3.org/TR/2001/REC-SVG-20010904/DTD/svg10.dtd">
<svg version="1.0" xmlns="http://www.w3.org/2000/svg"
 width="480.000000pt" height="360.000000pt" viewBox="0 0 480.000000 360.000000"
 preserveAspectRatio="xMidYMid meet">
<metadata>
Created by potrace 1.16, written by Peter Selinger 2001-2019
</metadata>
<rect width="1" height="360" fill="#000000"/>
<rect x="479" width="1" height="360" fill="#000000"/>
<rect width="480" height="1" fill="#000000"/>
<rect y="359" width="480" height="1" fill="#000000"/>
<g transform="translate(0.000000,360.000000) scale(0.100000,-0.100000)"
fill="#000000" stroke="none">
<path d="M0 2200 l0 -1400 22 -5 c13 -3 99 -12 193 -20 94 -8 215 -22 270 -30
181 -27 672 -74 1155 -111 l475 -37 63 69 c117 127 169 198 232 314 35 63 78
135 97 159 39 52 42 71 9 71 -49 0 -59 25 -71 180 -14 176 -28 296 -36 306 -5
6 -36 14 -69 17 -69 8 -101 22 -148 66 -39 38 -52 68 -52 121 0 33 6 43 41 73
38 31 40 36 29 56 -15 29 -4 41 14 16 13 -18 15 -18 46 8 23 20 42 27 75 27
39 0 47 -5 88 -49 56 -63 76 -125 54 -167 -14 -28 -14 -31 19 -69 19 -21 37
-49 40 -62 4 -13 9 -23 13 -23 4 0 24 18 45 39 26 27 37 45 32 56 -3 9 1 26 9
38 20 29 19 66 -4 101 -13 20 -18 39 -14 58 6 32 6 33 -33 14 -16 -8 -41 -18
-56 -21 -24 -6 -30 -2 -49 29 -11 20 -25 36 -30 36 -5 0 -19 15 -30 34 -11 19
-32 39 -46 43 l-25 9 26 30 25 31 -22 22 c-25 22 -47 28 -47 11 0 -13 -37 -13
-45 0 -3 5 -11 7 -18 4 -8 -3 -20 10 -29 29 -11 23 -25 36 -45 40 -15 3 -53
22 -83 42 -30 20 -66 38 -80 42 -71 17 -180 90 -180 120 0 8 -12 13 -28 13
-33 0 -114 74 -90 82 10 4 8 10 -7 27 -16 19 -17 24 -5 31 8 6 19 10 24 10 5
0 3 7 -4 15 -7 9 -10 18 -7 21 5 5 143 -18 311 -52 40 -8 26 9 -27 34 -75 35
-121 108 -100 155 6 12 8 47 6 77 -4 45 -1 60 15 80 l20 24 13 -58 c11 -51 15
-57 33 -51 79 27 257 9 264 -27 2 -8 -13 -36 -33 -62 -72 -94 -85 -157 -29
-136 23 9 98 18 159 20 13 0 39 26 75 75 103 141 200 193 380 202 207 11 311
-23 469 -150 51 -42 137 -105 190 -141 53 -36 111 -76 130 -90 l34 -25 -27
-13 c-21 -9 -45 -9 -106 0 -63 9 -100 22 -183 66 -120 62 -163 74 -203 54 -27
-13 -28 -14 -31 -120 l-2 -107 42 -12 c332 -88 362 -98 444 -156 61 -43 113
-99 113 -121 0 -6 -9 -16 -21 -22 -12 -7 -18 -18 -15 -26 3 -8 -3 -20 -14 -26
-53 -33 -7 -67 124 -94 104 -21 108 -26 41 -40 l-60 -13 73 4 c45 3 71 2 67
-4 -3 -6 13 -11 37 -13 40 -3 41 -4 24 -20 -17 -17 -16 -18 6 -27 13 -5 38
-12 55 -15 62 -14 49 -29 -18 -22 l-64 7 48 -30 c26 -17 47 -33 47 -36 0 -2
-19 2 -42 11 -22 8 -43 13 -45 11 -2 -2 23 -20 54 -40 32 -21 50 -37 41 -37
-16 0 -117 36 -245 88 -29 12 -53 20 -53 18 0 -1 35 -20 78 -41 101 -50 232
-127 232 -137 0 -9 -20 -5 -135 28 -44 12 -82 21 -83 19 -2 -2 21 -18 52 -36
64 -35 67 -46 9 -30 -48 14 -66 14 -58 1 9 -14 3 -13 -46 10 -48 21 -74 26
-64 10 8 -13 -10 -13 -58 1 -22 6 -41 8 -43 6 -3 -2 19 -19 47 -38 59 -37 51
-48 -18 -25 -26 9 -58 16 -72 16 l-24 0 20 -22 c11 -13 26 -33 32 -45 6 -13
20 -23 31 -23 10 0 23 -7 27 -15 8 -13 17 -13 78 0 100 21 120 19 157 -14 l33
-29 0 -186 c0 -157 2 -187 15 -191 57 -16 517 -116 605 -131 73 -12 117 -46
109 -81 -9 -33 13 -55 48 -48 15 3 42 8 58 11 l30 6 0 1364 0 1364 -2400 0
-2400 0 0 -1400z"/>
<path d="M3386 1671 c45 -44 159 -131 169 -131 29 0 24 20 -7 35 -18 8 -61 35
-96 60 -58 41 -90 59 -66 36z"/>
<path d="M3257 1628 c9 -18 40 -89 68 -158 46 -113 53 -125 78 -128 23 -3 27
0 27 21 0 41 29 110 61 143 28 29 29 31 12 46 -29 25 -61 39 -65 28 -2 -6 -20
2 -42 16 -25 17 -41 23 -45 16 -4 -7 -23 -1 -51 18 -57 38 -64 38 -43 -2z"/>
<path d="M2745 1288 c-2 -7 -11 -41 -20 -74 -26 -107 -70 -198 -131 -278 -109
-142 -161 -223 -167 -261 -7 -45 -3 -55 24 -55 31 0 65 21 199 121 141 105
239 200 265 258 l17 40 -37 68 c-35 62 -130 193 -141 193 -3 0 -7 -6 -9 -12z"/>
<path d="M3720 952 c0 -12 109 -77 116 -70 2 3 -19 20 -48 39 -66 42 -68 43
-68 31z"/>
<path d="M3865 904 c-9 -14 -13 -29 -8 -34 19 -17 146 -60 210 -71 37 -6 101
-17 142 -25 86 -16 91 -17 91 -5 0 4 -46 23 -102 41 -57 18 -148 52 -203 76
-55 24 -102 44 -106 44 -4 0 -14 -12 -24 -26z"/>
<path d="M4225 903 c6 -6 69 -29 140 -52 118 -37 134 -40 170 -30 51 15 42 18
-136 54 -74 15 -145 29 -159 32 -17 4 -22 2 -15 -4z"/>
<path d="M0 251 l0 -251 650 0 c358 0 650 2 650 4 0 6 -85 66 -210 151 -142
96 -343 193 -495 239 l-50 15 -37 -29 c-40 -33 -57 -37 -76 -18 -20 20 -15
-12 6 -35 17 -19 16 -19 -34 -12 -42 5 -52 4 -57 -9 -8 -19 -33 -20 -71 -3
-28 12 -28 12 -23 89 l5 77 -51 10 c-29 6 -87 13 -129 17 l-78 6 0 -251z"/>
<path d="M1127 400 c4 -4 40 -18 78 -30 39 -13 78 -27 88 -32 18 -9 18 -10 1
-22 -9 -7 -15 -19 -12 -27 2 -7 -5 -22 -16 -31 l-21 -18 35 -31 c19 -17 77
-60 127 -95 51 -36 95 -70 99 -75 3 -6 -2 -17 -12 -24 -16 -12 94 -14 791 -14
l810 0 -75 25 c-74 26 -77 26 -200 14 -274 -26 -376 -15 -406 41 -26 51 -30
136 -9 176 l19 34 -30 24 c-33 27 -112 32 -121 8 -4 -11 -9 -11 -25 4 -17 15
-20 15 -28 3 -8 -12 -13 -13 -30 -2 -23 14 -153 28 -345 37 -140 6 -613 33
-683 39 -24 2 -39 0 -35 -4z"/>
<path d="M4238 29 l-27 -29 102 1 c63 0 93 4 77 8 -14 5 -44 18 -67 29 -23 12
-46 21 -50 21 -4 -1 -20 -14 -35 -30z"/>
</g>
</svg>
