<?xml version="1.0" standalone="no"?>
<!DOCTYPE svg PUBLIC "-//W3C//DTD SVG 20010904//EN"
 "http://www.w3.org/TR/2001/REC-SVG-20010904/DTD/svg10.dtd">
<svg version="1.0" xmlns="http://www.w3.org/2000/svg"
 width="480.000000pt" height="360.000000pt" viewBox="0 0 480.000000 360.000000"
 preserveAspectRatio="xMidYMid meet">
<metadata>
Created by potrace 1.16, written by Peter Selinger 2001-2019
</metadata>
<rect width="1" height="360" fill="#000000"/>
<rect x="479" width="1" height="360" fill="#000000"/>
<rect width="480" height="1" fill="#000000"/>
<rect y="359" width="480" height="1" fill="#000000"/>
<g transform="translate(0.000000,360.000000) scale(0.100000,-0.100000)"
fill="#000000" stroke="none">
<path d="M0 1800 l0 -1800 2400 0 2400 0 0 1800 0 1800 -2400 0 -2400 0 0
-1800z m2179 528 c11 -121 5 -177 -27 -239 -23 -45 -27 -59 -16 -55 9 3 60 17
113 31 53 14 139 36 191 50 165 44 389 93 550 120 279 46 287 47 323 29 44
-23 315 -241 327 -265 22 -39 -44 -111 -216 -234 -131 -94 -243 -146 -599
-275 -237 -85 -563 -166 -635 -157 -19 3 -69 -1 -110 -9 -41 -7 -113 -18 -160
-25 -47 -7 -116 -23 -154 -35 -80 -28 -142 -30 -193 -9 -20 9 -44 13 -54 10
-23 -8 -136 50 -218 110 -79 58 -239 212 -275 264 -39 56 -19 91 32 55 21 -14
23 -14 32 10 5 14 20 32 32 40 13 9 114 38 223 66 110 28 209 54 220 59 11 4
26 26 34 47 8 22 25 53 37 70 28 36 28 41 12 77 -9 19 -18 25 -31 21 -9 -3
-47 4 -85 16 l-67 21 -80 -25 c-87 -28 -139 -33 -133 -14 2 6 33 17 69 24 35
8 93 22 129 33 36 11 97 27 137 36 71 17 105 37 83 50 -17 11 -11 29 22 73 36
47 65 54 94 21 10 -12 32 -30 47 -41 l28 -20 62 22 c34 12 89 35 122 50 119
54 129 54 134 -2z"/>
<path d="M1943 2268 c-87 -32 -87 -32 -87 -100 1 -10 -8 -20 -18 -24 -26 -8
-23 -26 12 -69 17 -21 30 -41 30 -46 0 -4 -12 -22 -26 -39 -15 -17 -24 -33
-21 -36 10 -10 181 46 192 63 46 76 55 101 55 156 0 63 -21 128 -42 126 -7 0
-50 -14 -95 -31z"/>
<path d="M1566 2148 c-21 -8 -25 -13 -15 -19 23 -15 55 -10 74 11 18 19 17 20
-6 19 -13 0 -37 -5 -53 -11z"/>
<path d="M1787 2018 c-6 -43 0 -48 24 -19 15 18 17 27 8 37 -18 22 -26 17 -32
-18z"/>
</g>
</svg>
