<?xml version="1.0" standalone="no"?>
<!DOCTYPE svg PUBLIC "-//W3C//DTD SVG 20010904//EN"
 "http://www.w3.org/TR/2001/REC-SVG-20010904/DTD/svg10.dtd">
<svg version="1.0" xmlns="http://www.w3.org/2000/svg"
 width="480.000000pt" height="360.000000pt" viewBox="0 0 480.000000 360.000000"
 preserveAspectRatio="xMidYMid meet">
<metadata>
Created by potrace 1.16, written by Peter Selinger 2001-2019
</metadata>
<rect width="1" height="360" fill="#000000"/>
<rect x="479" width="1" height="360" fill="#000000"/>
<rect width="480" height="1" fill="#000000"/>
<rect y="359" width="480" height="1" fill="#000000"/>
<g transform="translate(0.000000,360.000000) scale(0.100000,-0.100000)"
fill="#000000" stroke="none">
<path d="M1890 3279 c-208 -14 -410 -98 -628 -261 -83 -62 -192 -157 -192
-167 0 -3 41 -49 91 -101 194 -204 378 -472 517 -755 109 -221 169 -398 247
-722 26 -106 51 -193 56 -193 5 0 37 14 70 31 102 51 193 69 352 69 158 0 218
-12 339 -67 43 -20 80 -34 83 -32 2 2 18 76 35 163 59 295 125 470 232 611
149 195 394 316 706 347 61 6 112 16 112 21 0 8 -66 105 -80 117 -3 3 -34 39
-69 80 -111 131 -273 293 -357 357 -222 169 -533 261 -787 232 l-78 -8 -63 53
c-208 177 -372 239 -586 225z"/>
<path d="M3465 1357 c-18 -28 -66 -160 -94 -257 -12 -41 -39 -136 -61 -210
-22 -74 -40 -143 -40 -154 0 -21 40 -96 51 -96 20 0 142 -128 156 -162 8 -21
26 -47 40 -58 42 -33 54 -104 47 -272 l-7 -148 212 0 c139 0 210 3 206 10 -3
6 -2 10 4 10 5 0 13 -4 16 -10 6 -10 225 -15 225 -4 0 5 -30 60 -70 128 l-24
39 38 -7 38 -7 -20 28 c-31 43 -80 142 -87 174 l-6 28 57 -31 58 -32 -56 70
c-58 73 -88 123 -88 149 0 20 7 19 62 -10 56 -29 170 -74 218 -85 19 -5 46
-12 60 -16 24 -7 24 -7 -6 32 -47 60 -154 222 -154 233 0 6 11 6 30 0 51 -18
51 -6 0 59 -54 69 -79 127 -111 259 -22 92 -35 124 -47 121 -8 -2 -44 9 -87
27 -16 7 -50 20 -75 29 -25 10 -58 24 -73 32 -16 8 -34 14 -41 14 -7 0 -43 16
-82 35 -38 19 -75 35 -81 35 -7 0 -54 15 -103 34 l-91 34 -14 -21z"/>
</g>
</svg>
