<?xml version="1.0" standalone="no"?>
<!DOCTYPE svg PUBLIC "-//W3C//DTD SVG 20010904//EN"
 "http://www.w3.org/TR/2001/REC-SVG-20010904/DTD/svg10.dtd">
<svg version="1.0" xmlns="http://www.w3.org/2000/svg"
 width="480.000000pt" height="360.000000pt" viewBox="0 0 480.000000 360.000000"
 preserveAspectRatio="xMidYMid meet">
<metadata>
Created by potrace 1.16, written by Peter Selinger 2001-2019
</metadata>
<rect width="1" height="360" fill="#000000"/>
<rect x="479" width="1" height="360" fill="#000000"/>
<rect width="480" height="1" fill="#000000"/>
<rect y="359" width="480" height="1" fill="#000000"/>
<g transform="translate(0.000000,360.000000) scale(0.100000,-0.100000)"
fill="#000000" stroke="none">
<path d="M0 2745 l0 -855 26 10 c32 13 64 13 64 1 0 -6 -20 -13 -45 -17 l-45
-6 0 -939 0 -939 590 0 c573 0 590 1 581 19 -17 32 -60 52 -165 78 -130 33
-170 51 -232 105 -53 46 -79 54 -242 74 -40 4 -61 13 -83 35 -16 16 -47 38
-67 48 -58 30 -66 44 -47 81 9 17 31 48 49 68 37 41 55 92 33 92 -20 0 -40 45
-33 73 11 46 116 90 129 55 3 -10 16 -7 50 9 25 12 84 32 129 43 46 12 133 39
193 61 247 91 332 147 533 351 129 132 124 107 52 250 -25 50 -40 92 -40 116
0 20 20 118 45 217 39 153 73 370 61 382 -2 2 -15 -1 -29 -6 -31 -12 -40 -5
-24 20 16 26 6 31 -42 20 -40 -9 -59 3 -26 15 27 11 16 24 -21 24 -21 0 -33 4
-29 10 3 6 -1 10 -9 10 -19 0 -20 11 -3 29 10 11 7 12 -15 7 -21 -5 -33 0 -52
19 -14 14 -23 32 -20 40 16 42 -83 16 -147 -38 -21 -19 -56 -39 -78 -45 -36
-11 -39 -15 -46 -60 -15 -107 -82 -183 -176 -196 -21 -3 -57 -9 -79 -12 -34
-5 -40 -9 -40 -29 0 -58 -23 -130 -52 -158 -24 -24 -35 -28 -68 -25 -39 3 -40
3 -40 -27 0 -17 -6 -39 -13 -49 -12 -16 -15 -15 -49 16 -32 29 -39 44 -59 128
-45 196 -36 423 26 615 49 153 193 411 308 555 l36 44 -47 51 c-73 78 -169
195 -159 195 10 0 92 -71 164 -142 44 -43 77 -68 85 -64 7 3 49 31 93 62 105
72 329 186 445 224 69 24 226 60 258 60 1 0 2 6 2 14 0 17 51 36 95 36 18 0
53 -11 78 -24 25 -14 85 -32 134 -40 141 -25 216 -51 241 -85 18 -25 19 -33 9
-55 -9 -19 -20 -26 -40 -26 -20 0 -30 -7 -37 -25 -5 -14 -20 -27 -35 -31 -14
-3 -25 -11 -25 -17 0 -6 -9 -30 -21 -54 -18 -37 -32 -49 -100 -83 -44 -22 -90
-40 -102 -40 -36 0 -47 -14 -54 -68 -5 -49 -5 -51 21 -58 17 -4 40 1 68 14 39
20 58 21 58 3 0 -5 -13 -14 -30 -21 l-29 -12 59 -44 c67 -49 78 -63 115 -154
24 -57 26 -68 15 -103 -6 -22 -28 -54 -48 -73 -40 -36 -58 -43 -48 -19 3 8 1
15 -3 15 -15 0 -51 -117 -51 -168 l-1 -27 -14 25 -13 25 -12 -30 c-14 -36 -30
-47 -47 -34 -6 6 -21 8 -33 4 -14 -5 -20 -2 -20 10 0 9 -5 13 -10 10 -5 -3
-10 -19 -10 -35 0 -28 15 -40 51 -40 10 0 25 -12 33 -27 8 -16 60 -72 116
-127 108 -104 130 -139 130 -208 0 -54 21 -85 74 -108 47 -21 156 -119 156
-142 0 -19 32 -48 53 -48 23 0 57 48 57 82 0 40 -15 67 -59 105 -34 30 -35 33
-19 49 35 36 117 -28 139 -108 32 -120 -83 -230 -180 -172 -25 15 -28 14 -78
-18 -28 -18 -53 -41 -56 -51 -3 -9 -14 -17 -25 -17 -10 0 -27 -9 -37 -20 -10
-11 -24 -20 -31 -20 -22 0 -25 -18 -14 -77 31 -163 51 -382 60 -643 6 -157 15
-341 21 -410 7 -69 10 -160 8 -202 l-4 -78 1332 0 1333 0 0 975 c0 536 -3 974
-7 974 -20 -3 -49 2 -63 11 -13 9 -13 11 0 20 8 5 27 10 43 10 27 0 27 0 27
70 l0 70 -36 0 c-42 0 -74 15 -74 35 0 19 58 55 88 55 l22 0 0 690 0 690
-2400 0 -2400 0 0 -855z m2947 732 c11 -11 8 -17 -17 -35 -24 -18 -38 -21 -65
-16 -47 8 -52 20 -24 51 20 20 30 24 58 19 19 -3 41 -11 48 -19z m110 -362
c27 -23 27 -24 6 -25 -12 0 -34 5 -48 10 -23 9 -25 13 -15 25 17 20 24 19 57
-10z m-53 -256 c-24 -27 -29 -16 -8 16 10 16 20 23 22 16 2 -7 -4 -21 -14 -32z
m-840 -110 c28 -13 26 -29 -4 -29 -30 0 -72 19 -65 30 8 13 38 13 69 -1z
m1171 -267 c33 -11 51 -23 53 -36 4 -17 0 -18 -34 -13 -44 7 -144 48 -144 60
0 12 73 6 125 -11z m-41 -558 c9 -3 14 -10 11 -14 -5 -8 -72 3 -82 14 -8 8 51
8 71 0z m-2309 -255 c11 -34 -4 -69 -32 -80 -39 -14 -57 11 -49 69 3 24 8 47
11 52 8 13 63 -19 70 -41z m2989 -88 c48 -21 70 -48 81 -98 6 -31 5 -33 -23
-33 -55 0 -112 70 -112 138 0 16 0 16 54 -7z m-1586 -173 c3 -14 -3 -18 -27
-18 -34 0 -51 18 -30 31 21 14 53 6 57 -13z m805 -197 c22 -37 21 -47 -4 -83
-28 -39 -72 -37 -77 4 -3 25 41 108 57 108 4 0 14 -13 24 -29z m684 -53 c39
-38 44 -40 60 -26 19 17 67 42 108 58 45 17 27 -8 -27 -39 -66 -37 -79 -48
-73 -64 4 -8 -5 -12 -25 -13 -17 -1 -30 4 -30 11 0 6 -18 26 -40 44 -38 30
-54 71 -28 71 7 0 31 -19 55 -42z m840 -74 c55 -21 55 -34 -2 -34 -47 0 -125
26 -125 41 0 15 81 10 127 -7z m-2347 -291 c0 -22 -17 -50 -25 -42 -6 7 11 59
20 59 3 0 5 -8 5 -17z m620 -8 c-9 -11 -32 -15 -78 -15 -36 0 -63 3 -59 6 9
10 68 22 111 23 33 1 37 -1 26 -14z m-2746 -113 c11 -40 1 -78 -29 -108 -27
-27 -61 -30 -90 -8 -20 15 -19 16 17 47 29 26 35 38 31 59 -3 14 0 36 7 48 10
19 13 20 33 7 12 -8 26 -28 31 -45z m3396 -57 c10 -12 10 -15 -3 -15 -23 0
-47 11 -47 21 0 15 37 10 50 -6z m-3382 -359 c60 -65 71 -122 15 -80 -35 26
-60 62 -69 97 -9 39 7 34 54 -17z m4442 -111 c45 -29 60 -52 60 -94 0 -45 -30
-49 -85 -11 -38 26 -45 36 -45 65 0 39 8 65 21 65 5 0 27 -11 49 -25z"/>
<path d="M2047 1709 c-21 -55 -21 -69 -3 -69 10 0 17 16 21 44 10 65 2 76 -18
25z"/>
</g>
</svg>
