<?xml version="1.0" standalone="no"?>
<!DOCTYPE svg PUBLIC "-//W3C//DTD SVG 20010904//EN"
 "http://www.w3.org/TR/2001/REC-SVG-20010904/DTD/svg10.dtd">
<svg version="1.0" xmlns="http://www.w3.org/2000/svg"
 width="480.000000pt" height="360.000000pt" viewBox="0 0 480.000000 360.000000"
 preserveAspectRatio="xMidYMid meet">
<metadata>
Created by potrace 1.16, written by Peter Selinger 2001-2019
</metadata>
<rect width="1" height="360" fill="#000000"/>
<rect x="479" width="1" height="360" fill="#000000"/>
<rect width="480" height="1" fill="#000000"/>
<rect y="359" width="480" height="1" fill="#000000"/>
<g transform="translate(0.000000,360.000000) scale(0.100000,-0.100000)"
fill="#000000" stroke="none">
<path d="M0 1800 l0 -1800 887 2 887 3 9 35 c5 19 13 40 19 47 5 7 9 82 9 180
-1 150 1 178 24 262 27 99 24 143 -11 171 -10 9 -14 37 -14 114 0 90 7 126 59
336 33 129 57 237 55 239 -4 4 -89 -10 -186 -31 -46 -9 -64 -30 -35 -41 20 -8
-25 -36 -56 -35 -21 1 -31 8 -38 26 -9 24 -10 24 -29 7 -19 -17 -20 -17 -20 0
0 14 -6 16 -29 12 -15 -3 -52 -9 -82 -12 -113 -13 -119 -14 -120 -38 l0 -22
-11 22 c-10 20 -19 23 -73 23 -48 0 -68 5 -89 21 -47 37 -35 46 90 60 75 8
121 18 131 27 11 11 17 12 22 4 5 -8 31 -7 96 4 73 13 94 21 114 43 13 14 44
48 69 75 l45 50 -24 10 c-179 78 -324 146 -326 153 -2 5 3 18 11 28 14 19 17
18 123 -32 88 -43 229 -103 239 -103 5 0 131 238 142 267 7 22 8 53 2 96 -5
34 -6 75 -2 90 11 41 91 145 131 169 20 12 46 32 58 45 12 13 31 23 43 23 11
0 20 7 20 15 0 14 -12 20 -33 16 -5 -1 -6 2 -4 6 3 5 -1 14 -9 21 -12 11 -14
9 -14 -13 0 -32 -17 -24 -32 13 -9 25 -11 25 -17 8 -7 -17 -9 -15 -19 14 -7
18 -12 41 -12 51 0 21 -16 26 -23 7 -2 -7 -8 0 -12 15 -8 30 -37 86 -68 130
-22 31 -15 47 19 47 14 0 28 7 32 18 15 36 82 118 116 141 71 47 161 64 222
40 23 -8 36 -6 73 15 65 35 146 56 212 56 71 0 85 -13 65 -61 -14 -35 -5 -99
14 -99 21 0 20 -42 -2 -78 -30 -49 -56 -92 -69 -118 -15 -29 -50 -45 -73 -32
-27 15 -30 3 -12 -51 19 -59 20 -74 4 -69 -7 3 -22 -7 -35 -21 -23 -25 -23
-26 -38 -7 -13 17 -15 18 -15 3 0 -21 -7 -21 -42 -3 -26 14 -28 13 -28 -6 0
-14 -5 -18 -16 -14 -11 4 -14 1 -12 -10 2 -11 31 -27 79 -44 76 -27 213 -105
241 -138 9 -9 19 -28 23 -42 10 -37 46 -110 53 -110 4 0 15 14 24 30 13 23 24
30 48 30 41 0 39 -22 -7 -64 l-38 -34 35 -34 c19 -18 64 -69 100 -113 36 -44
75 -91 88 -105 12 -14 22 -28 22 -32 0 -5 6 -8 14 -8 18 0 116 -107 116 -127
0 -10 5 -13 18 -8 45 19 52 18 52 -7 0 -13 -5 -29 -12 -36 -14 -14 5 -32 602
-556 147 -129 182 -160 465 -411 201 -179 375 -345 375 -357 0 -31 -55 15
-484 403 -28 25 -69 61 -91 80 -22 19 -44 39 -50 45 -11 12 -94 87 -200 179
-126 110 -226 199 -360 321 -75 67 -206 182 -277 242 -15 12 -19 11 -39 -7
-28 -25 -42 -17 -37 20 5 31 -1 36 -20 17 -9 -9 -16 -8 -30 5 -10 9 -24 17
-31 17 -9 0 -11 8 -7 25 5 21 3 25 -15 25 -16 0 -19 4 -15 17 5 11 -8 31 -41
65 -26 26 -51 48 -55 48 -5 0 -7 -19 -6 -42 l3 -42 -193 -47 c-106 -25 -195
-49 -198 -52 -4 -3 10 -40 30 -81 l37 -76 217 -69 c119 -38 250 -80 291 -93
82 -25 98 -42 54 -59 -43 -16 -155 5 -346 68 -60 19 -111 32 -115 28 -16 -16
125 -106 193 -123 22 -6 72 -13 110 -16 39 -3 71 -6 71 -6 11 -2 9 -40 -6 -92
-20 -73 -36 -108 -57 -123 -8 -6 -19 -22 -26 -35 -7 -14 -26 -32 -42 -40 -17
-8 -47 -32 -68 -52 -21 -21 -50 -41 -65 -44 -15 -4 -34 -12 -42 -19 -8 -7 -31
-15 -50 -19 -19 -3 -47 -16 -62 -29 l-27 -22 25 -85 c21 -70 26 -114 31 -250
4 -135 9 -175 27 -222 l21 -58 1068 0 1067 0 0 565 c0 434 -3 570 -12 586 -10
17 -10 23 0 26 9 4 12 256 12 1214 l0 1209 -2400 0 -2400 0 0 -1800z m3803
1617 c29 -14 70 -30 93 -36 91 -24 163 -107 150 -175 -9 -46 -42 -86 -71 -86
-28 0 -31 -4 -67 -89 -25 -58 -26 -67 -13 -81 21 -23 19 -32 -13 -63 -33 -32
-52 -35 -52 -7 0 25 -3 25 -68 0 -133 -51 -274 7 -352 144 -37 63 -40 139 -10
217 10 29 17 55 15 59 -2 3 -75 -4 -162 -17 -178 -27 -258 -25 -330 7 -71 31
-87 63 -25 49 47 -11 165 -11 217 0 22 5 94 23 160 40 66 17 154 36 195 42 41
6 95 15 120 19 72 14 155 5 213 -23z m-1255 -80 c7 -34 -8 -87 -24 -87 -23 0
-47 65 -34 91 14 25 53 22 58 -4z m372 -637 c0 -5 -7 -10 -15 -10 -8 0 -15 5
-15 10 0 6 7 10 15 10 8 0 15 -4 15 -10z m-2126 -416 c8 -3 32 -26 52 -51 32
-38 35 -48 26 -68 -8 -16 -8 -35 -1 -61 8 -27 8 -43 -1 -59 -9 -16 -9 -32 -1
-61 6 -21 11 -56 11 -76 0 -31 10 -49 55 -103 30 -35 55 -69 55 -74 0 -15 -60
-61 -80 -61 -38 0 -41 -20 -31 -191 6 -92 17 -186 25 -214 22 -71 21 -85 -8
-85 -15 0 -32 11 -44 27 -23 32 -27 30 -36 -13 -8 -35 21 -81 55 -86 11 -2 20
-7 20 -13 0 -9 -63 -23 -206 -44 -33 -5 -112 -19 -175 -30 -198 -36 -408 -40
-397 -8 7 23 121 59 217 67 52 5 141 14 197 21 97 12 101 13 106 38 7 35 1 41
-38 41 -19 0 -37 5 -40 10 -3 6 5 43 18 83 14 39 28 104 32 142 3 39 8 78 11
87 3 11 -4 21 -23 30 -24 11 -28 19 -27 53 0 22 2 53 5 69 3 26 -1 32 -34 50
-51 27 -65 72 -31 101 13 12 24 24 24 28 0 4 16 29 35 56 19 26 35 52 35 57 0
5 11 22 25 38 13 16 22 33 18 39 -7 12 -5 125 3 185 5 35 13 48 38 63 31 19
80 25 110 13z m3296 -390 c0 -16 -9 -18 -29 -5 -7 5 -11 14 -7 19 9 15 36 4
36 -14z m-1034 -54 c39 -15 19 -30 -48 -37 -61 -6 -86 9 -53 34 22 16 63 17
101 3z m-1582 -382 c13 -22 5 -29 -33 -32 -30 -2 -43 14 -33 42 6 18 53 11 66
-10z"/>
<path d="M640 1871 c0 -6 5 -13 10 -16 6 -3 10 1 10 9 0 9 -4 16 -10 16 -5 0
-10 -4 -10 -9z"/>
<path d="M722 1153 c-16 -29 -15 -43 2 -43 20 0 24 10 16 40 l-6 25 -12 -22z"/>
<path d="M2443 1968 c0 -111 -15 -247 -29 -259 -16 -13 -19 -89 -5 -89 14 0
405 101 409 105 9 9 -209 215 -228 215 -14 0 -21 -9 -25 -37 -17 -109 -28
-163 -31 -160 -10 9 -43 146 -49 202 -7 57 -18 85 -35 85 -4 0 -7 -28 -7 -62z"/>
<path d="M2034 1912 c-12 -9 -25 -28 -29 -42 -13 -42 -45 -103 -84 -155 -21
-27 -40 -64 -44 -81 -6 -30 -4 -32 50 -54 l56 -23 19 22 c10 13 18 29 18 36 0
7 7 18 15 25 20 17 20 60 -1 60 -8 0 -24 5 -35 10 -18 10 -18 12 10 63 33 59
54 120 49 141 -2 13 -6 12 -24 -2z"/>
<path d="M1825 1499 l-20 -21 40 7 c48 9 54 13 35 25 -21 14 -32 11 -55 -11z"/>
<path d="M1767 1490 c-3 -13 0 -20 8 -20 21 0 27 16 11 29 -11 9 -15 7 -19 -9z"/>
<path d="M2304 556 c-13 -15 -24 -17 -60 -12 -33 4 -52 1 -70 -10 -22 -15 -26
-15 -42 -1 -10 9 -43 19 -74 22 l-57 5 -10 -52 c-5 -29 -17 -105 -26 -168 -9
-63 -22 -144 -29 -180 -6 -36 -10 -86 -8 -113 l4 -47 283 0 283 0 4 48 c3 28
-6 102 -22 182 -15 74 -35 179 -45 233 -9 53 -22 100 -29 104 -23 15 -86 8
-102 -11z"/>
</g>
</svg>
