<?xml version="1.0" standalone="no"?>
<!DOCTYPE svg PUBLIC "-//W3C//DTD SVG 20010904//EN"
 "http://www.w3.org/TR/2001/REC-SVG-20010904/DTD/svg10.dtd">
<svg version="1.0" xmlns="http://www.w3.org/2000/svg"
 width="480.000000pt" height="360.000000pt" viewBox="0 0 480.000000 360.000000"
 preserveAspectRatio="xMidYMid meet">
<metadata>
Created by potrace 1.16, written by Peter Selinger 2001-2019
</metadata>
<rect width="1" height="360" fill="#000000"/>
<rect x="479" width="1" height="360" fill="#000000"/>
<rect width="480" height="1" fill="#000000"/>
<rect y="359" width="480" height="1" fill="#000000"/>
<g transform="translate(0.000000,360.000000) scale(0.100000,-0.100000)"
fill="#000000" stroke="none">
<path d="M0 2475 c0 -1110 0 -1126 19 -1115 33 17 121 11 121 -9 0 -11 -71
-31 -109 -31 l-31 0 0 -660 0 -660 226 0 226 0 -7 33 c-14 66 -26 79 -105 117
-11 6 -14 20 -12 54 3 41 0 49 -23 67 l-26 21 26 33 c14 19 25 40 25 49 0 23
-20 30 -39 12 -27 -24 -42 -20 -37 10 8 42 33 72 78 92 24 10 77 48 119 83 42
35 119 99 171 142 134 108 248 231 357 382 l94 130 -3 135 c-1 74 -4 146 -5
160 -1 14 -3 55 -4 92 -1 60 -3 67 -23 73 -13 4 -47 18 -77 32 -41 18 -63 22
-95 18 -34 -5 -48 -1 -86 23 -97 62 -157 129 -217 240 -55 103 -57 109 -55
177 9 287 111 537 306 744 91 97 285 222 416 268 145 52 235 67 405 67 182 1
262 -13 410 -71 129 -52 217 -107 310 -198 78 -76 83 -84 106 -160 19 -64 24
-102 24 -190 0 -141 -16 -196 -65 -235 -30 -24 -40 -42 -55 -95 -26 -98 -91
-181 -155 -199 -68 -19 -84 -32 -125 -97 -49 -75 -103 -118 -183 -144 -29 -10
-52 -19 -52 -21 0 -3 16 -27 35 -55 48 -71 60 -117 40 -166 -9 -24 -28 -46
-48 -58 -18 -10 -55 -33 -83 -52 -85 -56 -124 -39 -159 68 -24 71 -39 50 -40
-52 0 -67 3 -83 18 -94 11 -8 18 -23 16 -37 -1 -13 6 -41 15 -63 31 -69 56
-177 62 -265 3 -47 9 -249 14 -450 7 -276 13 -381 25 -429 11 -47 13 -73 6
-93 -5 -15 -7 -43 -4 -63 l6 -35 1523 0 1524 0 0 1800 0 1800 -2400 0 -2400 0
0 -1125z m2329 1098 c20 -17 21 -19 6 -40 -30 -42 -105 -22 -88 23 13 38 48
44 82 17z m659 -107 c20 -19 34 -37 30 -41 -4 -4 -26 11 -50 34 -24 22 -37 41
-30 41 7 0 29 -15 50 -34z m1162 12 c64 -33 66 -53 4 -44 -48 6 -94 31 -102
54 -6 20 50 14 98 -10z m-1240 -156 c0 -10 -41 -48 -92 -86 -34 -24 -38 -25
-38 -8 0 18 34 55 80 85 26 18 50 22 50 9z m-317 -225 c5 -15 6 -35 2 -44 -5
-15 -10 -13 -29 12 -19 23 -21 33 -12 47 14 24 28 18 39 -15z m1264 -323 c-3
-3 -12 -4 -19 -1 -8 3 -5 6 6 6 11 1 17 -2 13 -5z m-897 -754 c11 -7 3 -10
-28 -10 -26 0 -41 4 -37 10 8 13 45 13 65 0z m-970 -234 c35 -13 66 -28 68
-34 4 -14 -64 -25 -85 -13 -10 5 -31 23 -47 40 -36 38 -24 39 64 7z m2390
-206 c13 -8 12 -11 -5 -25 -39 -30 -91 -53 -138 -60 -54 -8 -59 0 -19 38 49
47 126 70 162 47z m-835 -60 c27 -7 25 -8 -17 -9 -27 0 -48 4 -48 9 0 11 21
11 65 0z m1115 -130 c0 -19 -37 -84 -59 -104 -36 -32 -19 33 22 85 23 29 37
36 37 19z m-1180 -37 c0 -15 -40 -73 -50 -73 -16 0 -11 25 11 54 20 25 39 34
39 19z m-510 -44 c0 -5 -7 -9 -15 -9 -8 0 -15 7 -15 15 0 9 6 12 15 9 8 -4 15
-10 15 -15z m260 -334 c10 -12 9 -16 -4 -21 -9 -3 -23 -3 -32 0 -13 5 -14 9
-4 21 7 8 16 15 20 15 4 0 13 -7 20 -15z m406 -12 c31 -26 45 -53 26 -53 -12
0 -82 60 -82 71 0 16 20 10 56 -18z m-3043 -155 c15 -5 27 -14 27 -19 0 -15
-44 -10 -68 7 -26 18 -30 39 -4 29 9 -4 29 -12 45 -17z m2451 -387 c9 -14 -21
-33 -56 -34 -27 -2 -34 2 -36 21 -3 20 1 22 42 22 25 0 47 -4 50 -9z m563 -26
c25 -18 68 -83 60 -92 -12 -11 -37 7 -67 48 -42 58 -39 76 7 44z"/>
<path d="M1751 1748 c0 -7 4 -22 8 -32 10 -26 25 -3 16 24 -7 22 -25 28 -24 8z"/>
</g>
</svg>
