<?xml version="1.0" standalone="no"?>
<!DOCTYPE svg PUBLIC "-//W3C//DTD SVG 20010904//EN"
 "http://www.w3.org/TR/2001/REC-SVG-20010904/DTD/svg10.dtd">
<svg version="1.0" xmlns="http://www.w3.org/2000/svg"
 width="480.000000pt" height="360.000000pt" viewBox="0 0 480.000000 360.000000"
 preserveAspectRatio="xMidYMid meet">
<metadata>
Created by potrace 1.16, written by Peter Selinger 2001-2019
</metadata>
<rect width="1" height="360" fill="#000000"/>
<rect x="479" width="1" height="360" fill="#000000"/>
<rect width="480" height="1" fill="#000000"/>
<rect y="359" width="480" height="1" fill="#000000"/>
<g transform="translate(0.000000,360.000000) scale(0.100000,-0.100000)"
fill="#000000" stroke="none">
<path d="M0 2850 l0 -750 71 -118 c95 -158 123 -192 158 -192 31 0 101 47 219
149 39 33 75 61 79 61 5 0 27 -18 48 -41 58 -60 263 -213 339 -253 56 -30 70
-34 98 -25 41 11 65 42 74 94 11 56 6 316 -7 404 -10 68 -9 76 7 88 10 7 29
13 43 13 14 0 88 12 165 26 183 35 206 55 172 150 -21 60 -141 302 -180 363
-18 30 -32 60 -29 67 2 6 34 27 71 45 103 53 142 85 142 117 0 45 -150 181
-286 258 -31 18 -28 40 15 144 23 54 41 110 41 124 l0 26 -464 0 -464 0 -47
-55 c-57 -67 -85 -72 -132 -22 -17 17 -36 42 -42 55 -9 17 -20 22 -51 22 l-40
0 0 -750z"/>
<path d="M3577 3540 c-6 -72 -55 -182 -123 -277 -59 -83 -210 -240 -299 -313
-76 -61 -239 -168 -340 -221 -74 -40 -125 -80 -141 -111 -22 -42 -5 -98 59
-197 129 -198 305 -370 487 -475 204 -119 497 -188 601 -141 65 30 73 58 84
280 4 66 8 121 10 124 12 12 38 -31 71 -117 89 -233 116 -259 259 -249 139 9
327 80 478 180 l77 52 0 535 0 536 -91 13 c-330 47 -694 206 -864 378 -25 26
-45 50 -45 55 0 4 -49 8 -109 8 l-108 0 -6 -60z"/>
<path d="M730 1534 c-63 -57 -196 -241 -245 -339 -79 -158 -82 -249 -15 -446
21 -63 37 -115 35 -117 -2 -2 -18 14 -37 34 -160 182 -222 228 -388 285 -30
10 -61 19 -67 19 -10 0 -13 -52 -13 -227 l0 -228 97 -65 c195 -131 198 -144
42 -205 -35 -14 -81 -28 -101 -32 l-38 -6 0 -78 c0 -44 2 -79 5 -79 3 0 37 9
76 20 39 11 104 22 145 26 61 6 78 4 100 -11 22 -14 25 -22 21 -51 l-6 -34
542 0 542 1 -45 41 c-25 23 -76 56 -114 73 -60 28 -67 34 -50 42 10 6 51 13
89 17 261 26 432 102 640 286 39 34 111 102 160 149 50 48 122 114 160 146 39
32 74 65 78 72 14 22 -1 66 -19 59 -8 -3 -149 1 -312 10 -274 15 -340 14 -522
-2 -138 -12 -341 -88 -467 -175 -38 -27 -63 -36 -63 -24 0 2 9 19 20 37 11 18
27 65 35 104 15 66 15 76 -3 165 -31 153 -190 548 -226 562 -11 4 -30 -6 -56
-29z"/>
<path d="M4037 1425 c-19 -19 -47 -65 -62 -102 -44 -105 -45 -106 -119 -79
-58 22 -111 38 -336 100 -159 44 -206 36 -229 -38 -12 -36 -29 -165 -37 -281
-3 -44 -7 -86 -9 -92 -3 -9 -28 -13 -80 -13 -104 0 -342 -27 -450 -51 -208
-47 -233 -114 -104 -274 60 -74 199 -208 312 -300 31 -26 57 -55 57 -64 0 -9
-32 -56 -71 -105 -38 -49 -74 -97 -80 -107 -9 -18 17 -19 981 -19 l991 0 -4
573 c-3 560 -3 573 -25 638 -15 46 -28 68 -41 72 -32 8 -109 -11 -195 -48 -45
-19 -87 -35 -92 -35 -6 0 -17 12 -25 26 -40 75 -263 234 -327 234 -12 0 -36
-16 -55 -35z"/>
</g>
</svg>
