<?xml version="1.0" standalone="no"?>
<!DOCTYPE svg PUBLIC "-//W3C//DTD SVG 20010904//EN"
 "http://www.w3.org/TR/2001/REC-SVG-20010904/DTD/svg10.dtd">
<svg version="1.0" xmlns="http://www.w3.org/2000/svg"
 width="480.000000pt" height="360.000000pt" viewBox="0 0 480.000000 360.000000"
 preserveAspectRatio="xMidYMid meet">
<metadata>
Created by potrace 1.16, written by Peter Selinger 2001-2019
</metadata>
<rect width="1" height="360" fill="#000000"/>
<rect x="479" width="1" height="360" fill="#000000"/>
<rect width="480" height="1" fill="#000000"/>
<rect y="359" width="480" height="1" fill="#000000"/>
<g transform="translate(0.000000,360.000000) scale(0.100000,-0.100000)"
fill="#000000" stroke="none">
<path d="M3338 3570 c-42 -15 -105 -43 -140 -62 -73 -39 -184 -139 -227 -206
-41 -65 -88 -209 -102 -320 l-13 -93 -40 -10 c-55 -15 -141 -74 -190 -132 -31
-37 -40 -57 -41 -87 0 -22 -3 -42 -6 -45 -3 -3 -25 2 -49 10 -61 22 -112 19
-139 -7 -34 -31 -58 -93 -66 -168 -6 -59 -5 -67 15 -85 18 -16 26 -17 58 -8
20 5 45 14 54 18 25 10 35 -38 14 -69 -21 -32 -3 -47 47 -39 32 5 40 2 65 -25
16 -17 45 -62 65 -100 21 -39 43 -72 51 -75 8 -3 28 -1 45 6 47 17 71 -1 113
-84 35 -70 37 -83 54 -254 19 -207 22 -536 7 -710 l-11 -120 -39 -32 c-21 -18
-37 -39 -35 -46 1 -8 -7 -22 -18 -32 -11 -10 -20 -24 -20 -31 0 -7 -23 -31
-50 -54 l-51 -43 -22 21 c-22 21 -154 63 -260 83 -56 10 -58 11 -85 67 -54
109 -154 297 -163 306 -4 5 4 27 20 50 15 23 35 59 44 81 39 91 67 282 49 333
-7 21 -7 41 3 73 27 92 113 347 138 414 32 82 34 120 9 134 -14 7 -27 5 -51
-10 -38 -23 -41 -23 -41 -4 0 25 -14 17 -33 -17 -15 -29 -73 -173 -113 -283
-31 -84 -77 -175 -89 -175 -6 0 -36 13 -66 30 -66 36 -94 37 -141 5 -20 -14
-50 -25 -65 -25 -15 0 -43 -9 -60 -20 -18 -11 -39 -17 -46 -14 -31 11 -137
-131 -137 -184 0 -20 29 -52 48 -52 21 0 29 -35 35 -155 8 -148 32 -294 60
-358 11 -27 44 -92 74 -145 65 -118 213 -417 213 -431 0 -6 -14 -41 -31 -78
-37 -81 -96 -223 -115 -275 l-13 -38 1474 0 1475 0 0 1670 0 1671 -43 42 c-65
63 -145 122 -233 172 l-79 45 -515 0 -515 -1 -77 -29z m-32 -2295 c-10 -52
-21 -94 -22 -92 -3 2 -34 233 -34 251 0 6 17 -7 38 -27 l38 -37 -20 -95z"/>
</g>
</svg>
