<?xml version="1.0" standalone="no"?>
<!DOCTYPE svg PUBLIC "-//W3C//DTD SVG 20010904//EN"
 "http://www.w3.org/TR/2001/REC-SVG-20010904/DTD/svg10.dtd">
<svg version="1.0" xmlns="http://www.w3.org/2000/svg"
 width="480.000000pt" height="360.000000pt" viewBox="0 0 480.000000 360.000000"
 preserveAspectRatio="xMidYMid meet">
<metadata>
Created by potrace 1.16, written by Peter Selinger 2001-2019
</metadata>
<rect width="1" height="360" fill="#000000"/>
<rect x="479" width="1" height="360" fill="#000000"/>
<rect width="480" height="1" fill="#000000"/>
<rect y="359" width="480" height="1" fill="#000000"/>
<g transform="translate(0.000000,360.000000) scale(0.100000,-0.100000)"
fill="#000000" stroke="none">
<path d="M2985 3578 c3 -13 24 -59 45 -102 22 -44 38 -81 36 -84 -2 -2 -37
-10 -78 -19 -292 -60 -572 -296 -643 -543 -28 -97 -56 -157 -92 -199 -40 -47
-23 -57 26 -15 35 29 36 28 16 -46 -13 -50 -13 -53 1 -35 14 19 15 16 9 -30
-3 -27 -9 -62 -11 -77 -6 -32 3 -36 21 -11 10 14 14 8 28 -43 l15 -59 2 45 2
45 10 -35 c19 -65 40 -104 48 -90 6 9 10 7 15 -9 7 -22 25 -29 25 -10 0 5 5 7
10 4 6 -3 10 -15 10 -26 0 -10 6 -19 14 -19 7 0 21 -10 30 -22 l17 -23 -5 30
c-5 30 -5 30 12 -5 l16 -35 4 33 c4 37 22 34 22 -4 0 -39 -28 -96 -66 -135
-44 -45 -40 -64 21 -101 25 -15 46 -35 46 -45 6 -73 14 -88 61 -97 45 -9 58
-24 58 -66 0 -24 7 -43 20 -55 57 -52 84 -147 60 -211 -12 -31 -9 -37 23 -39
17 -2 22 -8 21 -26 -2 -20 10 -107 42 -325 7 -47 -9 -84 -53 -127 l-29 -27
-38 54 c-20 29 -46 62 -57 72 -11 10 -35 50 -53 89 -18 38 -50 92 -70 119 -36
47 -37 50 -27 92 23 92 6 247 -38 333 -27 51 -83 98 -128 107 -49 10 -167 10
-214 1 l-37 -7 -6 45 c-4 25 -11 45 -16 45 -14 0 -20 -30 -14 -70 l6 -38 -53
-17 c-73 -24 -140 -58 -163 -84 -11 -12 -25 -21 -32 -21 -19 0 -30 -24 -53
-119 -26 -105 -26 -111 4 -223 41 -151 45 -160 107 -235 72 -88 95 -107 153
-123 25 -7 45 -16 45 -20 0 -4 -11 -28 -25 -52 -57 -102 -88 -228 -105 -427
-6 -74 -13 -138 -15 -141 -3 -4 -9 -65 -15 -136 -6 -71 -13 -141 -16 -156 l-6
-28 318 0 319 0 48 100 c27 55 53 100 58 100 5 0 9 -45 9 -100 l0 -100 65 0
c64 0 65 0 66 28 l1 27 11 -27 11 -28 766 0 766 0 72 24 c39 13 92 37 119 53
l48 28 -32 3 c-18 2 -33 6 -33 9 0 3 18 25 40 49 22 24 40 48 40 53 0 5 -27 7
-62 3 -54 -4 -77 -14 -168 -68 -58 -35 -122 -70 -143 -79 -35 -14 -38 -14 -43
2 -3 10 -12 31 -20 46 -7 16 -12 38 -9 50 3 12 -4 56 -15 97 -12 41 -25 98
-29 125 -8 48 -26 120 -56 230 -7 28 -16 66 -20 85 -4 19 -12 41 -18 48 -11
14 -14 32 -23 135 -5 57 -3 66 9 61 9 -3 21 -29 28 -57 7 -29 15 -44 17 -34 3
15 9 12 38 -15 18 -18 39 -48 45 -68 16 -47 79 -173 85 -168 4 4 -23 266 -41
403 -5 39 -5 38 30 -27 43 -82 69 -107 44 -41 -30 78 -59 265 -58 370 1 97 2
103 11 63 29 -131 139 -385 206 -475 14 -19 14 -19 8 5 -4 14 -20 75 -36 135
-31 120 -47 230 -30 205 6 -8 33 -53 61 -100 56 -94 99 -154 105 -147 2 2 -5
56 -15 121 -12 66 -25 216 -31 349 -20 453 -31 623 -46 732 -34 254 -87 461
-173 678 -26 67 -54 147 -61 177 -18 82 -82 207 -142 280 -78 93 -142 124
-263 127 l-90 2 -45 65 -45 66 -323 0 -323 0 6 -22z m122 -2090 c-3 -8 -6 -5
-6 6 -1 11 2 17 5 13 3 -3 4 -12 1 -19z"/>
</g>
</svg>
