<?xml version="1.0" standalone="no"?>
<!DOCTYPE svg PUBLIC "-//W3C//DTD SVG 20010904//EN"
 "http://www.w3.org/TR/2001/REC-SVG-20010904/DTD/svg10.dtd">
<svg version="1.0" xmlns="http://www.w3.org/2000/svg"
 width="480.000000pt" height="360.000000pt" viewBox="0 0 480.000000 360.000000"
 preserveAspectRatio="xMidYMid meet">
<metadata>
Created by potrace 1.16, written by Peter Selinger 2001-2019
</metadata>
<rect width="1" height="360" fill="#000000"/>
<rect x="479" width="1" height="360" fill="#000000"/>
<rect width="480" height="1" fill="#000000"/>
<rect y="359" width="480" height="1" fill="#000000"/>
<g transform="translate(0.000000,360.000000) scale(0.100000,-0.100000)"
fill="#000000" stroke="none">
<path d="M0 3517 c0 -70 3 -84 19 -94 18 -12 38 -69 28 -80 -3 -2 -15 0 -26 7
l-21 11 0 -1681 0 -1680 833 0 c550 0 827 4 817 10 -8 6 -44 19 -80 30 -91 27
-110 43 -110 88 0 67 -18 109 -56 132 -37 24 -37 24 8 76 15 17 16 26 7 52 -6
18 -8 43 -5 56 9 38 232 245 330 306 149 94 237 163 336 266 168 175 326 372
333 418 3 17 9 50 12 74 l7 42 -82 0 c-77 0 -140 17 -140 39 0 4 23 18 51 32
93 43 127 97 128 204 0 40 -6 75 -20 105 -46 99 -61 208 -37 253 7 12 29 39
48 61 30 33 32 37 10 25 -14 -7 -41 -14 -61 -15 -33 -2 -35 0 -31 22 3 20 1
23 -12 18 -12 -5 -29 6 -57 36 -38 40 -50 70 -29 70 6 0 10 5 10 10 0 6 -9 10
-20 10 -37 0 -20 29 45 77 l30 22 -29 1 c-16 0 -38 -7 -48 -17 -22 -19 -24 -6
-3 24 8 11 44 31 80 44 67 23 77 32 210 172 93 97 208 122 320 68 67 -31 147
-110 171 -168 20 -46 32 -179 16 -169 -6 3 -16 -3 -22 -14 -6 -11 -16 -20 -22
-20 -6 0 -17 -8 -24 -17 -10 -14 -16 -15 -22 -6 -6 10 -18 7 -50 -9 -35 -16
-42 -25 -40 -44 2 -17 -6 -29 -32 -46 -19 -13 -37 -34 -41 -48 -4 -14 -7 -19
-8 -13 -1 10 -7 10 -26 1 -14 -6 -25 -15 -25 -19 0 -5 25 -27 55 -49 51 -38
95 -99 95 -133 0 -8 16 -35 35 -61 20 -25 43 -65 51 -88 14 -40 13 -46 -7
-101 -12 -32 -20 -59 -18 -61 2 -1 41 -17 86 -35 45 -18 88 -40 94 -48 18 -21
154 -130 191 -153 17 -10 35 -17 39 -14 5 2 13 -5 19 -16 6 -11 15 -18 19 -15
13 7 26 -13 55 -85 44 -108 56 -125 114 -166 88 -61 159 -132 222 -219 71 -99
289 -467 290 -489 0 -5 -21 11 -48 35 -26 24 -74 64 -106 89 -146 112 -186
146 -264 222 -109 105 -156 166 -198 254 -40 82 -47 90 -129 134 -33 18 -75
43 -92 57 -21 15 -31 18 -27 9 5 -13 -2 -14 -45 -9 -31 3 -51 2 -51 -4 0 -16
54 -85 103 -132 45 -43 54 -67 20 -54 -13 5 -15 2 -10 -11 6 -15 4 -17 -15
-11 -13 3 -39 10 -59 14 -19 4 -41 11 -49 16 -7 4 -30 9 -52 10 -46 3 -69 22
-111 92 -35 58 -52 68 -43 25 29 -145 60 -394 76 -612 6 -80 17 -215 25 -300
8 -85 15 -194 15 -242 l0 -88 925 0 925 0 0 1800 0 1800 -2400 0 -2400 0 0
-83z m478 25 c2 -7 -3 -12 -12 -12 -9 0 -16 7 -16 16 0 17 22 14 28 -4z m1663
-22 c4 -3 2 -12 -5 -21 -10 -15 -14 -14 -41 7 -21 17 -25 24 -14 24 9 0 20 8
24 18 6 16 7 15 17 -3 6 -11 15 -22 19 -25z m-55 -257 c19 -30 22 -89 6 -105
-15 -15 -42 43 -42 92 0 47 11 51 36 13z m2604 -8 c-9 -11 -16 -13 -23 -6 -7
7 -6 15 3 26 9 11 16 13 23 6 7 -7 6 -15 -3 -26z m-2667 -344 c4 -4 -1 -15
-12 -25 -38 -34 -119 3 -83 38 8 9 83 -1 95 -13z m330 -68 c-7 -2 -19 -2 -25
0 -7 3 -2 5 12 5 14 0 19 -2 13 -5z m1117 -143 c0 -5 -7 -10 -16 -10 -8 0 -12
5 -9 10 3 6 10 10 16 10 5 0 9 -4 9 -10z m469 -567 c23 -28 22 -37 -1 -28 -17
7 -42 55 -29 55 5 0 19 -12 30 -27z m136 -123 c4 -6 -8 -10 -29 -10 -19 0 -38
5 -41 10 -4 6 8 10 29 10 19 0 38 -4 41 -10z m-3157 -42 c18 -18 14 -28 -11
-28 -23 0 -47 17 -47 32 0 12 45 9 58 -4z m629 -126 c-12 -43 -34 -72 -55 -72
-23 0 -6 71 24 98 34 30 45 21 31 -26z m426 27 c4 -15 -1 -22 -19 -30 -34 -12
-34 -12 -34 11 0 17 23 39 41 40 4 0 9 -9 12 -21z m-913 -656 c0 -51 -11 -55
-28 -10 -14 38 -15 70 -5 81 14 14 33 -28 33 -71z m-933 -182 c7 -1 10 -8 6
-17 -5 -13 -15 -15 -45 -11 -45 6 -53 11 -44 26 4 6 21 9 39 7 18 -2 37 -4 44
-5z m2874 -128 c5 -13 9 -31 9 -40 0 -13 -3 -13 -16 -2 -20 16 -45 65 -38 72
11 11 36 -6 45 -30z m99 -333 c20 -6 14 -8 -27 -9 -28 -1 -55 4 -58 9 -7 12
48 12 85 0z m1226 -262 c21 -40 7 -56 -35 -39 -29 13 -58 61 -47 80 11 18 66
-9 82 -41z"/>
<path d="M2806 1593 c-10 -64 -8 -69 50 -113 32 -24 60 -54 66 -71 7 -20 19
-31 36 -35 15 -2 56 -13 92 -22 36 -9 72 -17 80 -17 8 0 21 -4 28 -8 20 -13
14 8 -8 28 -12 10 -19 24 -16 31 2 6 1 15 -3 20 -4 5 -16 30 -25 57 -17 46
-18 47 -61 47 -37 0 -57 9 -132 60 -48 33 -91 60 -94 60 -4 0 -9 -17 -13 -37z"/>
</g>
</svg>
