<?xml version="1.0" standalone="no"?>
<!DOCTYPE svg PUBLIC "-//W3C//DTD SVG 20010904//EN"
 "http://www.w3.org/TR/2001/REC-SVG-20010904/DTD/svg10.dtd">
<svg version="1.0" xmlns="http://www.w3.org/2000/svg"
 width="480.000000pt" height="360.000000pt" viewBox="0 0 480.000000 360.000000"
 preserveAspectRatio="xMidYMid meet">
<metadata>
Created by potrace 1.16, written by Peter Selinger 2001-2019
</metadata>
<rect width="1" height="360" fill="#000000"/>
<rect x="479" width="1" height="360" fill="#000000"/>
<rect width="480" height="1" fill="#000000"/>
<rect y="359" width="480" height="1" fill="#000000"/>
<g transform="translate(0.000000,360.000000) scale(0.100000,-0.100000)"
fill="#000000" stroke="none">
<path d="M0 1800 l0 -1800 598 0 598 0 34 48 c48 66 158 235 270 414 52 84
109 168 126 188 18 19 38 51 46 70 25 58 359 531 405 572 10 10 35 24 56 33
26 11 43 28 58 58 29 56 92 148 118 171 11 10 44 23 73 27 28 5 55 14 59 21
83 147 179 146 474 -7 99 -51 218 -107 265 -125 117 -43 167 -69 210 -110 32
-30 40 -48 59 -131 24 -100 24 -96 -1 -309 l-12 -105 -54 -53 -53 -53 15 -69
c9 -38 16 -111 17 -162 2 -252 3 -243 -23 -294 -17 -35 -43 -63 -89 -97 -35
-26 -75 -56 -89 -67 -25 -19 -14 -19 808 -19 l832 -1 0 1625 0 1625 -40 0
c-29 0 -40 4 -40 15 0 8 -9 15 -19 15 -12 0 -23 11 -30 30 -5 17 -17 30 -25
30 -9 0 -16 9 -16 20 0 13 -7 20 -20 20 -14 0 -20 7 -20 23 0 20 -45 73 -60
70 -22 -3 -30 15 -30 68 l0 59 -2250 0 -2250 0 0 -1800z"/>
</g>
</svg>
