<?xml version="1.0" standalone="no"?>
<!DOCTYPE svg PUBLIC "-//W3C//DTD SVG 20010904//EN"
 "http://www.w3.org/TR/2001/REC-SVG-20010904/DTD/svg10.dtd">
<svg version="1.0" xmlns="http://www.w3.org/2000/svg"
 width="480.000000pt" height="360.000000pt" viewBox="0 0 480.000000 360.000000"
 preserveAspectRatio="xMidYMid meet">
<metadata>
Created by potrace 1.16, written by Peter Selinger 2001-2019
</metadata>
<rect width="1" height="360" fill="#000000"/>
<rect x="479" width="1" height="360" fill="#000000"/>
<rect width="480" height="1" fill="#000000"/>
<rect y="359" width="480" height="1" fill="#000000"/>
<g transform="translate(0.000000,360.000000) scale(0.100000,-0.100000)"
fill="#000000" stroke="none">
<path d="M0 1800 l0 -1800 1039 0 1038 0 6 58 c4 31 11 95 16 142 6 47 15 148
21 225 5 77 13 166 16 197 l6 57 -36 22 c-20 12 -35 27 -33 33 2 6 -3 17 -12
24 -11 9 -13 15 -4 18 7 3 10 11 7 18 -3 7 9 37 26 66 34 58 53 163 66 365 5
88 3 112 -20 200 -14 54 -26 113 -26 131 0 32 17 100 47 184 8 25 15 64 14 88
-1 23 3 42 8 42 25 0 41 33 41 84 0 50 -2 54 -45 86 -25 19 -44 41 -43 49 2
11 -5 16 -24 17 -15 1 -47 16 -72 35 l-45 34 -1 83 c0 103 13 133 86 202 68
64 149 103 218 103 101 1 206 -75 266 -193 26 -51 67 -201 86 -310 8 -52 29
-150 45 -217 15 -67 33 -173 39 -235 6 -62 16 -147 22 -188 6 -41 14 -275 18
-520 6 -429 7 -449 33 -565 31 -143 54 -246 68 -297 l10 -38 959 0 960 0 0
1068 0 1067 -62 18 c-73 22 -235 97 -293 137 -22 15 -50 33 -61 41 -98 64
-255 227 -329 339 -88 134 -150 282 -191 455 -15 64 -19 118 -19 278 l0 197
-1922 0 -1923 0 0 -1800z"/>
</g>
</svg>
