<?xml version="1.0" standalone="no"?>
<!DOCTYPE svg PUBLIC "-//W3C//DTD SVG 20010904//EN"
 "http://www.w3.org/TR/2001/REC-SVG-20010904/DTD/svg10.dtd">
<svg version="1.0" xmlns="http://www.w3.org/2000/svg"
 width="480.000000pt" height="360.000000pt" viewBox="0 0 480.000000 360.000000"
 preserveAspectRatio="xMidYMid meet">
<metadata>
Created by potrace 1.16, written by Peter Selinger 2001-2019
</metadata>
<rect width="1" height="360" fill="#000000"/>
<rect x="479" width="1" height="360" fill="#000000"/>
<rect width="480" height="1" fill="#000000"/>
<rect y="359" width="480" height="1" fill="#000000"/>
<g transform="translate(0.000000,360.000000) scale(0.100000,-0.100000)"
fill="#000000" stroke="none">
<path d="M0 2343 c0 -952 3 -1254 12 -1245 8 8 18 5 40 -13 16 -13 44 -27 62
-31 51 -9 98 -87 104 -172 4 -53 8 -65 26 -72 11 -4 116 -11 231 -15 317 -10
420 -20 461 -46 l34 -21 -1 146 -1 145 50 65 49 65 21 -22 c13 -12 35 -21 54
-21 28 -1 38 -8 66 -51 l33 -50 -6 -435 c-3 -239 -8 -465 -11 -503 l-5 -67
1791 0 1790 0 0 1800 0 1800 -2400 0 -2400 0 0 -1257z m3323 433 c38 -15 91
-81 83 -101 -3 -8 -15 -15 -26 -15 -19 0 -20 -4 -15 -37 14 -83 19 -88 103
-108 42 -10 94 -22 115 -27 38 -9 44 -16 28 -33 -5 -6 -12 -20 -15 -32 -6 -18
-1 -23 29 -33 41 -13 38 -30 -6 -30 -16 0 -29 -4 -29 -10 0 -5 -9 -10 -20 -10
-29 0 -82 -29 -75 -40 4 -6 19 -10 36 -10 38 0 37 -15 -2 -29 -26 -9 -29 -13
-20 -30 16 -29 14 -31 -19 -20 -23 9 -33 8 -45 -4 -8 -9 -15 -22 -15 -29 -1
-8 -6 -6 -15 6 -14 18 -15 14 -15 -45 0 -87 7 -95 55 -62 54 37 164 82 199 83
28 0 28 -1 22 -42 -3 -24 -20 -70 -36 -102 -17 -32 -30 -62 -30 -67 0 -4 23
-12 50 -18 42 -9 56 -8 80 4 23 12 70 15 227 15 l198 -1 -43 -23 c-51 -26 -45
-37 31 -58 42 -11 64 -28 37 -28 -5 0 -10 -4 -10 -9 0 -9 38 -26 85 -36 l30
-7 -40 -20 -40 -21 38 -11 c22 -6 36 -14 32 -18 -4 -3 -2 -15 4 -27 10 -17 7
-22 -16 -35 -18 -10 -22 -15 -12 -16 18 0 32 -57 17 -66 -15 -10 -8 -23 15
-26 27 -4 24 -23 -3 -22 -31 1 -23 -26 10 -37 43 -16 37 -26 -20 -34 -54 -7
-63 -24 -19 -36 l24 -6 -28 -8 c-15 -4 -44 -4 -65 -1 -33 6 -35 5 -19 -7 19
-16 23 -37 6 -37 -5 0 -7 -5 -3 -12 5 -8 -2 -9 -25 -5 -20 4 -30 3 -26 -3 3
-6 1 -10 -5 -10 -7 0 -9 -8 -5 -21 l7 -22 -28 21 c-16 12 -40 30 -54 41 -31
25 -38 20 -34 -24 2 -31 0 -34 -16 -25 -28 15 -33 12 -26 -15 4 -14 2 -25 -4
-25 -5 0 -10 10 -10 23 0 12 -4 28 -9 36 -12 19 -113 52 -127 40 -6 -5 -14 -6
-17 -2 -4 3 -7 1 -7 -7 0 -10 -3 -10 -17 1 -14 13 -14 11 1 -19 22 -43 15 -52
-13 -15 -37 49 -75 85 -108 99 -54 23 -58 20 -55 -41 3 -47 1 -57 -22 -80 -49
-49 -115 -20 -117 53 0 20 -6 59 -12 86 -11 44 -16 50 -49 62 -21 7 -40 10
-42 6 -2 -4 -14 -49 -26 -99 -13 -54 -27 -94 -36 -97 -37 -14 -67 26 -79 108
-9 65 -15 79 -29 68 -41 -33 -116 -18 -116 23 0 18 -7 28 -25 35 -14 5 -28 17
-31 25 -4 10 -19 15 -48 14 -33 0 -37 -2 -19 -9 12 -5 24 -18 28 -29 3 -12 11
-21 16 -21 5 0 9 -11 9 -25 0 -33 -13 -32 -71 10 -27 19 -54 35 -59 35 -6 0
-13 7 -16 15 -10 25 -34 17 -34 -10 0 -28 -8 -31 -34 -12 -15 11 -17 17 -7 35
10 19 8 23 -23 36 -40 17 -57 56 -35 82 13 16 29 16 193 -6 l90 -12 32 39 c18
22 51 52 73 67 32 22 43 39 55 80 14 49 14 56 -3 102 -13 33 -24 48 -35 46
-35 -6 -55 16 -54 62 0 23 -5 58 -12 77 -11 30 -10 40 4 67 9 18 14 37 11 42
-3 5 1 25 9 44 13 31 13 39 0 66 -9 16 -20 32 -25 36 -6 3 -14 17 -19 30 -11
27 -31 30 -110 13 -47 -10 -52 -9 -70 13 -19 23 -19 23 2 41 11 9 38 20 59 23
21 4 45 14 54 24 15 17 15 19 -3 24 -24 8 -58 44 -49 52 3 4 22 -3 42 -14 42
-26 67 -20 59 13 -7 30 12 41 35 21 10 -9 20 -16 23 -16 3 0 20 25 37 55 36
63 100 115 143 115 16 0 43 -6 61 -14z"/>
<path d="M3529 1876 l34 -35 41 21 c39 20 40 21 18 29 -15 6 -30 4 -43 -4 -16
-10 -25 -9 -52 6 l-32 19 34 -36z"/>
</g>
</svg>
