<?xml version="1.0" standalone="no"?>
<!DOCTYPE svg PUBLIC "-//W3C//DTD SVG 20010904//EN"
 "http://www.w3.org/TR/2001/REC-SVG-20010904/DTD/svg10.dtd">
<svg version="1.0" xmlns="http://www.w3.org/2000/svg"
 width="480.000000pt" height="360.000000pt" viewBox="0 0 480.000000 360.000000"
 preserveAspectRatio="xMidYMid meet">
<metadata>
Created by potrace 1.16, written by Peter Selinger 2001-2019
</metadata>
<rect width="1" height="360" fill="#000000"/>
<rect x="479" width="1" height="360" fill="#000000"/>
<rect width="480" height="1" fill="#000000"/>
<rect y="359" width="480" height="1" fill="#000000"/>
<g transform="translate(0.000000,360.000000) scale(0.100000,-0.100000)"
fill="#000000" stroke="none">
<path d="M0 2289 c0 -1107 2 -1310 14 -1306 7 3 35 9 62 13 27 4 71 17 99 30
32 16 69 24 103 24 54 0 238 18 258 25 8 2 9 15 5 37 -5 26 -12 34 -33 36 -46
5 -50 21 -29 113 17 70 41 286 41 360 0 11 -10 23 -24 29 -35 13 -49 42 -32
66 14 21 49 130 66 209 6 28 13 98 16 156 2 59 8 119 14 133 11 31 62 56 114
56 36 0 96 -40 96 -65 0 -7 9 -24 20 -38 20 -25 20 -25 -1 -51 -16 -20 -20
-35 -15 -58 4 -22 1 -37 -10 -49 -13 -15 -14 -24 -5 -50 6 -18 11 -48 11 -68
0 -32 7 -42 61 -86 54 -45 60 -53 55 -79 -3 -16 -6 -34 -6 -42 0 -9 -13 -12
-40 -11 -26 1 -46 -5 -57 -16 -16 -15 -14 -26 25 -169 94 -338 90 -322 70
-334 -6 -4 -22 6 -37 24 -14 16 -36 33 -47 36 -19 6 -22 1 -28 -34 -5 -33 -2
-46 16 -71 31 -42 71 -60 108 -49 52 15 255 122 500 263 129 74 265 152 302
173 55 32 70 46 82 79 20 50 20 69 2 62 -7 -3 -23 1 -34 9 -18 12 -20 18 -10
39 6 14 9 26 7 28 -2 2 -62 39 -134 83 -253 156 -255 158 -252 179 4 38 41 26
156 -49 62 -42 145 -94 183 -116 l70 -40 -7 47 c-3 27 -11 64 -17 84 -12 40 1
94 32 139 21 30 53 108 69 167 7 25 24 52 45 70 65 55 119 98 141 112 50 31
71 106 38 132 -15 12 -16 12 -8 -1 8 -13 6 -13 -7 -2 -14 12 -19 9 -32 -15
-12 -23 -16 -25 -21 -11 -4 9 -13 14 -21 11 -10 -4 -14 3 -14 22 0 14 -4 24
-9 21 -5 -4 -7 12 -4 36 14 134 73 261 146 320 114 90 206 89 310 -2 l37 -32
36 78 c20 44 47 113 60 154 37 114 34 107 44 90 6 -8 10 -30 10 -48 0 -19 11
-49 25 -70 37 -54 33 -90 -14 -136 -34 -34 -41 -47 -46 -95 -11 -95 -16 -113
-31 -107 -17 6 -17 4 -3 -43 13 -46 -8 -111 -41 -128 -24 -12 -56 -60 -47 -70
3 -2 32 16 64 42 51 39 66 45 104 45 79 -1 122 9 234 56 61 25 157 59 215 75
58 15 138 40 179 54 87 29 125 31 181 9 48 -19 22 -38 268 191 131 123 136
128 136 165 1 27 6 35 30 43 23 8 32 6 48 -11 30 -29 16 -68 -40 -118 -26 -23
-112 -99 -192 -169 -80 -70 -149 -131 -154 -136 -5 -4 8 -27 28 -52 20 -24 36
-51 36 -61 0 -18 -11 -21 -27 -5 -7 7 -9 3 -6 -14 7 -36 -15 -43 -29 -10 -11
26 -12 26 -15 7 -4 -19 -11 -22 -54 -22 -34 0 -52 5 -56 14 -5 13 -33 21 -33
9 0 -2 8 -20 17 -40 23 -49 7 -65 -39 -38 l-33 19 -155 -130 c-85 -72 -186
-158 -225 -191 -38 -34 -81 -71 -95 -82 -14 -12 -75 -63 -136 -114 -61 -52
-124 -103 -140 -114 -15 -11 -36 -28 -45 -37 -10 -9 -26 -21 -37 -27 -12 -6
-22 -25 -25 -48 -5 -26 -13 -41 -29 -48 -19 -9 -22 -17 -20 -50 2 -22 16 -76
31 -120 16 -44 34 -104 41 -132 10 -43 18 -57 46 -74 36 -22 271 -139 364
-181 30 -14 86 -39 123 -57 68 -31 77 -44 44 -65 -28 -18 -136 17 -321 104
-93 44 -171 78 -173 76 -3 -2 16 -35 40 -73 39 -61 68 -114 153 -285 13 -27
24 -51 24 -55 0 -10 -70 -112 -90 -133 -29 -29 -87 -60 -114 -60 -22 0 -26 -4
-26 -31 0 -17 14 -65 31 -107 41 -104 57 -178 64 -302 3 -58 8 -129 11 -157
l5 -53 1080 0 1079 0 0 1800 0 1800 -636 0 c-718 0 -650 10 -568 -80 23 -25
55 -61 70 -80 16 -19 34 -40 40 -46 6 -7 22 -26 37 -43 38 -46 71 -55 123 -35
58 22 104 13 133 -27 24 -33 16 -64 -9 -34 -19 23 -37 19 -99 -25 -39 -27 -67
-40 -90 -40 -50 0 -140 55 -266 162 -182 154 -174 150 -248 142 -38 -4 -86 -2
-118 6 -30 6 -66 13 -81 15 -42 6 -88 34 -100 60 l-11 25 -1489 0 -1488 0 0
-1311z m980 1069 c-29 -23 -63 -24 -58 -1 4 19 71 46 77 30 2 -6 -6 -19 -19
-29z m563 -379 c15 -18 25 -34 22 -37 -6 -6 -64 49 -65 61 0 15 17 6 43 -24z
m2673 10 c10 -17 -13 -36 -27 -22 -12 12 -4 33 11 33 5 0 12 -5 16 -11z
m-1486 -129 c0 -23 -10 -26 -28 -8 -18 18 -15 28 8 28 13 0 20 -7 20 -20z
m1570 -90 c0 -5 -5 -10 -11 -10 -5 0 -7 5 -4 10 3 6 8 10 11 10 2 0 4 -4 4
-10z m290 -50 c0 -5 -8 -10 -17 -10 -15 0 -16 2 -3 10 19 12 20 12 20 0z
m-3485 -328 c0 -18 -20 -15 -23 4 -3 10 1 15 10 12 7 -3 13 -10 13 -16z m3595
-117 c7 -8 9 -22 6 -31 -6 -15 -9 -15 -29 -1 -29 19 -35 47 -9 47 11 0 25 -7
32 -15z m-3820 -1161 c0 -22 -46 -40 -65 -24 -22 18 -19 39 8 49 26 10 57 -3
57 -25z"/>
<path d="M3260 2670 c0 -9 32 -30 46 -30 4 0 -1 9 -11 20 -19 21 -35 26 -35
10z"/>
<path d="M3099 2611 c-47 -22 -107 -47 -135 -56 -27 -9 -83 -33 -124 -53 -61
-31 -74 -41 -72 -58 2 -16 -6 -25 -28 -34 -17 -7 -35 -21 -40 -31 -9 -16 -47
-31 -193 -73 -38 -11 -63 -25 -73 -41 -15 -23 -15 -31 1 -96 13 -53 16 -89 11
-150 -4 -43 -5 -79 -2 -79 5 0 109 82 132 104 6 6 26 22 44 36 19 14 47 36 64
50 17 14 40 32 51 41 39 33 170 144 183 156 8 7 30 26 50 41 21 15 42 32 48
37 6 6 58 50 116 99 104 87 105 89 95 117 -6 16 -18 29 -27 29 -8 0 -54 -18
-101 -39z"/>
<path d="M3430 2616 c0 -9 5 -16 10 -16 6 0 10 4 10 9 0 6 -4 13 -10 16 -5 3
-10 -1 -10 -9z"/>
<path d="M2111 2484 c-26 -43 -26 -43 0 -37 26 7 54 73 30 73 -5 0 -18 -16
-30 -36z"/>
<path d="M2390 2493 c-8 -11 -19 -19 -25 -17 -7 3 -18 -3 -26 -12 -13 -16 -11
-17 16 -10 36 9 59 29 53 48 -3 9 -9 7 -18 -9z"/>
<path d="M1990 2049 c-30 -21 -69 -52 -86 -70 -31 -32 -31 -32 -27 -123 6
-120 13 -144 45 -164 25 -15 28 -15 47 3 12 10 21 23 21 30 0 7 9 20 20 30 29
26 25 51 -10 65 -16 7 -30 14 -30 16 0 3 11 21 24 42 30 45 58 141 54 180 l-3
29 -55 -38z"/>
<path d="M1788 1429 c-39 -20 -47 -34 -25 -42 9 -3 8 -13 -5 -41 -10 -20 -18
-48 -18 -62 0 -16 -4 -23 -11 -18 -11 7 -8 64 7 113 l7 25 -39 -23 c-307 -183
-549 -315 -713 -388 -80 -35 -151 -71 -157 -79 -6 -7 -14 -11 -17 -8 -3 4 -24
-1 -47 -10 -55 -22 -122 -21 -143 2 -10 10 -17 21 -17 24 0 3 47 25 105 49 75
31 105 49 105 61 0 16 -3 16 -40 3 -23 -8 -107 -24 -188 -35 -81 -12 -203 -30
-272 -40 -69 -11 -169 -20 -222 -20 l-98 0 0 -470 0 -470 901 0 901 0 -6 38
c-3 20 -9 107 -12 192 -6 137 -4 165 15 243 11 49 21 105 21 126 0 35 -2 38
-50 55 -28 10 -58 28 -68 40 -10 11 -27 26 -37 32 -23 13 -39 97 -29 154 6 36
94 272 121 325 33 64 93 245 80 245 -6 -1 -29 -10 -49 -21z"/>
<path d="M621 1141 c-12 -8 -12 -13 2 -35 32 -49 87 -55 72 -7 -13 43 -45 60
-74 42z"/>
<path d="M1986 549 c-9 -29 -23 -128 -32 -219 -8 -91 -19 -192 -24 -225 -6
-33 -10 -70 -10 -82 l0 -23 301 0 c290 0 300 1 294 19 -3 10 -30 115 -59 233
-30 118 -65 241 -78 274 -20 52 -27 59 -53 62 -16 2 -47 -2 -68 -9 -31 -10
-48 -10 -84 0 -33 8 -48 9 -53 1 -8 -12 -88 -3 -107 12 -8 7 -16 -5 -27 -43z"/>
</g>
</svg>
