<?xml version="1.0" standalone="no"?>
<!DOCTYPE svg PUBLIC "-//W3C//DTD SVG 20010904//EN"
 "http://www.w3.org/TR/2001/REC-SVG-20010904/DTD/svg10.dtd">
<svg version="1.0" xmlns="http://www.w3.org/2000/svg"
 width="480.000000pt" height="360.000000pt" viewBox="0 0 480.000000 360.000000"
 preserveAspectRatio="xMidYMid meet">
<metadata>
Created by potrace 1.16, written by Peter Selinger 2001-2019
</metadata>
<rect width="1" height="360" fill="#000000"/>
<rect x="479" width="1" height="360" fill="#000000"/>
<rect width="480" height="1" fill="#000000"/>
<rect y="359" width="480" height="1" fill="#000000"/>
<g transform="translate(0.000000,360.000000) scale(0.100000,-0.100000)"
fill="#000000" stroke="none">
<path d="M0 1800 l0 -1800 720 0 c396 0 720 2 720 4 0 2 -15 13 -32 23 -18 11
-122 88 -230 171 -201 154 -277 202 -322 202 -14 0 -41 -13 -59 -30 -19 -16
-43 -30 -53 -29 -28 0 -144 63 -284 152 -52 34 -123 71 -158 83 -90 32 -104
44 -144 121 -58 109 -58 109 17 368 64 222 67 235 75 385 5 85 13 189 19 230
65 440 230 827 497 1161 75 94 151 175 326 347 144 142 184 194 172 226 -11
29 -102 58 -219 69 -44 5 -47 13 -30 85 l8 32 -512 0 -511 0 0 -1800z"/>
<path d="M3321 3596 c15 -14 282 -165 315 -179 38 -15 46 -15 91 0 28 9 61 13
74 10 53 -14 172 -130 339 -330 50 -60 80 -82 80 -58 0 4 24 7 53 5 38 -2 57
2 71 14 19 18 76 135 76 157 0 27 70 67 121 70 33 2 49 -1 49 -9 0 -7 11 -23
25 -36 14 -13 32 -35 39 -49 7 -15 25 -47 40 -73 37 -64 42 -150 17 -261 -21
-91 -100 -380 -131 -479 -21 -65 -23 -79 -40 -303 -23 -289 -96 -587 -187
-770 -58 -115 -161 -251 -226 -297 l-29 -21 4 33 c1 18 -1 31 -7 30 -5 -1 -56
-50 -112 -110 -285 -300 -620 -502 -968 -580 -121 -27 -356 -37 -506 -20 -510
56 -952 394 -1102 843 -120 357 -45 737 193 978 131 132 266 198 415 202 107
3 168 -16 223 -70 37 -37 42 -48 42 -86 0 -34 -8 -54 -36 -93 -19 -27 -42 -65
-50 -84 -8 -19 -35 -69 -59 -110 -24 -41 -58 -111 -76 -155 -28 -71 -32 -91
-32 -180 0 -104 23 -194 60 -231 15 -14 18 -13 38 12 l21 27 90 -36 c49 -19
114 -47 144 -61 30 -14 68 -26 83 -26 l28 0 -26 43 c-55 94 -28 156 122 282
121 102 119 100 154 185 42 104 52 178 40 291 -9 79 -17 108 -53 179 -146 293
-517 424 -866 306 -151 -52 -263 -124 -387 -251 -198 -202 -309 -470 -322
-776 -16 -360 116 -669 411 -965 149 -148 267 -232 449 -319 253 -121 483
-170 787 -170 211 1 375 23 584 79 33 9 61 14 64 12 8 -9 -99 -49 -206 -77
-432 -111 -880 -64 -1302 138 -162 78 -175 81 -120 33 63 -56 215 -149 341
-209 l106 -51 1267 0 1266 0 0 1800 0 1800 -742 0 c-408 0 -739 -2 -737 -4z"/>
<path d="M3493 2240 c19 -152 19 -222 2 -363 -9 -81 -15 -152 -13 -159 8 -23
39 51 58 140 26 116 26 235 -1 333 -12 43 -28 84 -37 91 -14 12 -15 7 -9 -42z"/>
<path d="M2823 1975 c0 -22 2 -30 4 -17 2 12 2 30 0 40 -3 9 -5 -1 -4 -23z"/>
</g>
</svg>
