<?xml version="1.0" standalone="no"?>
<!DOCTYPE svg PUBLIC "-//W3C//DTD SVG 20010904//EN"
 "http://www.w3.org/TR/2001/REC-SVG-20010904/DTD/svg10.dtd">
<svg version="1.0" xmlns="http://www.w3.org/2000/svg"
 width="480.000000pt" height="360.000000pt" viewBox="0 0 480.000000 360.000000"
 preserveAspectRatio="xMidYMid meet">
<metadata>
Created by potrace 1.16, written by Peter Selinger 2001-2019
</metadata>
<rect width="1" height="360" fill="#000000"/>
<rect x="479" width="1" height="360" fill="#000000"/>
<rect width="480" height="1" fill="#000000"/>
<rect y="359" width="480" height="1" fill="#000000"/>
<g transform="translate(0.000000,360.000000) scale(0.100000,-0.100000)"
fill="#000000" stroke="none">
<path d="M0 1800 l0 -1800 399 0 398 0 7 37 c12 76 9 82 -40 103 -31 14 -68
20 -119 20 -81 0 -87 3 -106 69 -17 58 -53 74 -143 65 -58 -6 -66 -4 -77 14
-12 18 -14 19 -36 5 -12 -8 -29 -13 -37 -10 -22 8 -26 62 -10 117 8 28 12 55
9 61 -4 6 5 28 20 50 15 21 29 49 30 62 1 12 3 24 4 27 0 3 17 23 36 43 19 20
35 46 35 58 0 12 27 49 64 87 35 37 61 73 59 80 -3 7 31 61 76 120 144 193
254 393 244 442 -3 17 5 60 20 107 28 88 43 151 56 238 5 33 17 79 26 103 10
24 15 46 11 49 -14 14 -72 -26 -91 -63 -11 -22 -23 -41 -27 -44 -4 -3 -12 -27
-17 -52 -6 -26 -36 -113 -66 -192 -58 -155 -63 -177 -40 -216 8 -14 14 -49 15
-77 0 -46 -2 -53 -20 -53 -11 0 -20 7 -20 15 0 8 -9 15 -19 15 -14 0 -26 -17
-45 -65 -28 -70 -32 -95 -16 -95 6 0 10 -4 10 -10 0 -5 -6 -10 -13 -10 -8 0
-22 -18 -32 -40 -33 -72 -45 -44 -45 102 0 82 4 109 29 175 30 81 67 250 58
259 -3 3 -12 -7 -21 -23 -19 -36 -19 -26 -1 70 8 43 15 88 15 100 -1 20 -2 20
-11 4 -6 -9 -14 -15 -18 -13 -13 8 -29 -36 -53 -149 -22 -102 -37 -133 -39
-77 l0 27 -16 -23 -16 -23 -12 28 c-10 24 -11 20 -8 -37 l4 -65 -20 25 c-11
14 -21 28 -21 33 0 17 -20 5 -20 -13 0 -11 -4 -20 -10 -20 -5 0 -10 15 -10 33
l-1 32 -20 -24 c-11 -14 -23 -38 -26 -53 -4 -19 -10 -27 -19 -24 -8 3 -14 1
-14 -4 0 -6 -4 -10 -10 -10 -5 0 -10 7 -10 16 0 8 -5 12 -10 9 -6 -3 -10 -18
-10 -33 -1 -26 -1 -26 -15 -8 -8 11 -15 15 -15 8 0 -6 -11 0 -25 14 -38 38
-49 130 -31 257 8 56 18 133 22 171 9 91 65 202 180 356 165 222 188 282 166
433 -10 70 -9 93 4 157 27 121 28 116 -39 111 -45 -2 -63 1 -78 15 -29 26 -24
45 30 105 l50 56 -22 26 c-12 15 -47 37 -77 50 -66 27 -173 88 -166 94 2 3 31
-3 63 -12 32 -10 96 -28 143 -41 47 -14 98 -31 113 -39 26 -14 32 -13 71 10
51 30 106 33 129 7 22 -24 21 -43 0 -81 -22 -38 -13 -47 36 -33 55 17 100 15
173 -8 70 -21 117 -49 85 -50 -16 0 -16 -2 3 -22 22 -24 28 -96 8 -116 -8 -8
-5 -14 15 -23 15 -7 27 -20 27 -28 0 -9 7 -41 15 -71 l14 -55 -34 -28 c-40
-33 -43 -54 -15 -90 22 -27 26 -42 10 -32 -5 3 -10 5 -10 3 0 -2 34 -28 75
-57 55 -40 82 -68 105 -107 19 -34 54 -72 100 -109 38 -30 74 -64 80 -75 16
-30 12 -78 -12 -123 -21 -39 -23 -54 -22 -197 l1 -155 82 -320 c45 -176 93
-369 106 -430 14 -60 32 -135 40 -165 34 -123 46 -240 39 -380 -3 -74 -8 -138
-10 -141 -2 -4 -23 -9 -46 -12 -31 -4 -49 -14 -66 -34 -12 -15 -33 -41 -47
-57 l-25 -28 -98 7 c-112 8 -106 12 -117 -78 l-7 -57 1166 0 1167 0 -7 63 c-4
34 -10 85 -13 112 l-6 50 -54 2 c-51 2 -58 6 -105 52 -36 35 -62 52 -89 56
-20 4 -40 12 -44 18 -4 7 -6 38 -5 70 2 36 -2 65 -10 74 -10 12 -9 18 5 28 21
15 21 22 2 41 -19 19 -20 83 -1 98 9 7 17 40 20 91 4 56 3 73 -4 58 -34 -79
-14 79 34 267 24 96 52 231 61 300 25 183 43 304 61 405 23 130 16 315 -14
372 -41 78 -34 96 72 198 52 49 101 104 110 121 8 17 44 53 80 80 36 27 65 54
66 59 0 6 9 21 20 35 28 36 25 65 -11 93 l-32 24 14 79 c13 70 17 79 37 82 20
3 23 8 17 25 -13 36 -7 88 10 107 9 10 14 23 11 29 -9 15 32 39 102 61 69 21
121 16 192 -19 l35 -17 89 83 c49 46 91 81 93 79 3 -2 -25 -45 -62 -96 -37
-50 -65 -94 -61 -97 3 -3 31 16 62 42 46 40 53 50 39 55 -15 5 -13 10 15 33
17 15 36 27 42 27 11 0 50 28 116 85 l46 40 -22 -38 c-27 -46 -27 -57 -4 -57
11 0 27 -9 37 -20 17 -19 17 -20 -1 -26 -11 -4 -34 -13 -52 -20 -18 -7 -38
-11 -45 -8 -7 2 -49 -36 -95 -86 l-81 -90 21 -35 c31 -53 49 -165 42 -260 -6
-74 -4 -87 20 -141 22 -48 40 -69 96 -111 38 -29 71 -53 74 -53 7 0 152 -93
201 -129 22 -16 59 -49 83 -72 l42 -42 0 711 0 712 -2400 0 -2400 0 0 -1800z
m3227 -1052 c-3 -7 -5 -2 -5 12 0 14 2 19 5 13 2 -7 2 -19 0 -25z"/>
<path d="M3998 2268 c-4 -11 17 -69 101 -284 19 -49 37 -122 46 -190 32 -226
33 -231 95 -323 31 -47 74 -111 94 -141 20 -30 66 -89 102 -130 37 -41 77 -91
90 -110 13 -19 31 -45 40 -57 8 -12 33 -88 54 -170 22 -81 46 -173 55 -203 8
-30 15 -79 15 -109 0 -53 0 -54 -20 -36 -20 18 -20 17 -20 -16 0 -19 -4 -29
-8 -23 -4 6 -15 13 -24 17 -9 3 -29 25 -44 49 -32 52 -33 53 -39 46 -3 -3 4
-26 16 -52 38 -87 16 -110 -128 -133 -105 -16 -160 -47 -217 -119 l-29 -37
-114 6 c-96 5 -115 3 -120 -10 -6 -15 14 -203 24 -229 4 -12 73 -14 419 -14
l414 0 0 824 c0 811 0 824 -20 829 -10 3 -27 21 -37 41 -13 29 -19 33 -26 21
-12 -21 -27 -9 -27 22 0 18 -4 24 -15 19 -10 -3 -20 5 -31 25 -21 42 -104 149
-114 149 -5 0 -11 8 -14 18 -4 9 -14 27 -24 39 -20 27 -193 98 -185 77 3 -8 8
-14 12 -14 7 0 31 -44 31 -55 0 -2 -7 -1 -17 2 -12 5 -14 3 -8 -8 5 -8 -20 17
-55 55 -64 68 -85 75 -55 17 32 -62 -9 -28 -120 99 -16 19 -42 54 -58 78 -29
45 -33 48 -39 30z"/>
<path d="M3906 2013 c5 -16 9 -88 9 -161 l0 -133 60 -24 c33 -14 61 -25 62
-25 1 0 -11 38 -27 84 -15 46 -31 103 -35 127 -7 43 -59 159 -71 159 -3 0 -2
-12 2 -27z"/>
<path d="M880 1974 c0 -8 5 -12 10 -9 6 3 10 10 10 16 0 5 -4 9 -10 9 -5 0
-10 -7 -10 -16z"/>
<path d="M3770 1884 c0 -21 5 -46 11 -54 7 -11 8 -1 3 35 -8 62 -14 70 -14 19z"/>
<path d="M156 1565 c-3 -9 -6 -24 -5 -33 0 -9 5 -4 10 12 9 32 6 48 -5 21z"/>
<path d="M3686 212 c-3 -3 -6 -52 -6 -109 l0 -103 70 0 c39 0 70 3 70 8 0 9
-49 174 -52 177 -11 10 -78 32 -82 27z"/>
<path d="M1018 98 c-32 -8 -39 -16 -48 -46 -5 -21 -10 -40 -10 -44 0 -5 27 -8
60 -8 l60 0 0 55 c0 60 0 60 -62 43z"/>
</g>
</svg>
