<?xml version="1.0" standalone="no"?>
<!DOCTYPE svg PUBLIC "-//W3C//DTD SVG 20010904//EN"
 "http://www.w3.org/TR/2001/REC-SVG-20010904/DTD/svg10.dtd">
<svg version="1.0" xmlns="http://www.w3.org/2000/svg"
 width="480.000000pt" height="360.000000pt" viewBox="0 0 480.000000 360.000000"
 preserveAspectRatio="xMidYMid meet">
<metadata>
Created by potrace 1.16, written by Peter Selinger 2001-2019
</metadata>
<rect width="1" height="360" fill="#000000"/>
<rect x="479" width="1" height="360" fill="#000000"/>
<rect width="480" height="1" fill="#000000"/>
<rect y="359" width="480" height="1" fill="#000000"/>
<g transform="translate(0.000000,360.000000) scale(0.100000,-0.100000)"
fill="#000000" stroke="none">
<path d="M137 3582 c-10 -10 -17 -24 -17 -31 0 -6 29 -100 64 -209 36 -108 72
-222 80 -252 l16 -54 -26 -25 c-23 -21 -26 -29 -21 -71 3 -28 1 -52 -5 -58 -7
-7 0 -28 25 -69 57 -94 84 -162 102 -258 9 -49 23 -100 31 -112 19 -30 18 -51
-3 -57 -27 -7 -86 -19 -104 -21 -27 -2 -97 -75 -105 -108 -10 -48 40 -88 147
-116 109 -29 109 -29 109 -40 0 -6 -29 -8 -72 -5 l-73 5 36 -20 c20 -11 58
-50 83 -86 52 -71 71 -81 142 -70 53 8 106 49 135 106 20 41 60 59 130 59 57
0 95 18 114 54 16 30 17 37 4 67 -18 44 -77 109 -98 109 -9 0 -25 6 -36 13
-33 21 -124 49 -140 43 -9 -3 -15 0 -15 8 0 8 -6 16 -12 19 -18 5 66 47 95 47
20 0 69 11 153 36 17 4 37 -9 94 -62 57 -55 75 -66 88 -58 11 8 24 6 44 -4 25
-12 32 -12 54 3 31 20 40 43 27 63 -16 26 -37 28 -30 3 7 -29 -9 -26 -41 7
-15 15 -43 40 -62 54 -19 15 -53 43 -75 63 l-40 37 -104 -6 c-66 -4 -113 -11
-127 -21 -13 -8 -25 -11 -28 -6 -8 12 19 75 40 96 15 14 15 20 5 37 -10 16
-10 19 0 12 9 -5 10 -2 6 9 -3 9 5 37 20 63 15 26 21 44 14 40 -9 -6 -12 -1
-11 15 4 48 0 61 -15 55 -10 -4 -15 1 -15 14 0 18 -3 19 -20 8 -31 -20 -35 -1
-11 50 51 105 113 182 232 289 69 62 122 117 126 131 3 14 1 40 -6 58 -6 18
-9 44 -5 58 5 21 2 27 -19 35 -15 6 -33 24 -42 41 l-16 30 -403 0 c-378 0
-404 -1 -419 -18z"/>
<path d="M2400 1800 l0 -1800 884 0 884 0 6 63 c3 34 8 109 12 167 3 58 17
146 30 198 28 108 30 137 10 129 -8 -3 -16 -1 -18 4 -2 7 -13 7 -32 -1 -37
-14 -60 -6 -74 24 -6 14 -18 23 -29 23 -18 -2 -19 4 -8 53 3 14 1 32 -5 40 -9
13 -14 10 -35 -15 -31 -38 -42 -26 -22 25 8 22 14 40 12 40 -3 0 -21 -15 -41
-32 -35 -31 -37 -32 -29 -8 4 14 14 34 21 45 8 11 14 24 14 29 0 9 -72 2 -105
-10 -18 -7 -18 -6 -6 9 12 15 12 17 -4 11 -13 -5 -16 -4 -11 4 5 8 -2 12 -23
12 -17 0 -42 5 -56 12 l-25 11 22 24 c21 22 20 25 -11 27 -27 2 -20 21 19 51
22 17 39 35 40 40 0 6 18 34 41 64 42 56 45 70 9 51 -12 -6 -24 -9 -27 -6 -6
5 95 59 176 93 65 27 94 51 86 71 -3 8 2 23 12 34 16 18 15 21 -25 61 -48 49
-52 68 -17 91 27 18 194 76 217 76 8 0 32 13 54 30 21 16 49 30 60 30 28 0 67
-31 95 -77 22 -35 22 -36 4 -49 -10 -8 -30 -14 -43 -14 -19 0 -23 -4 -17 -17
18 -46 25 -80 19 -106 -6 -30 15 -207 25 -207 3 0 22 4 40 10 41 11 57 1 79
-50 14 -33 13 -35 -14 -58 -27 -24 -28 -25 -17 -87 7 -38 7 -80 2 -106 -13
-69 -10 -261 6 -414 8 -77 18 -197 21 -267 l6 -128 94 0 94 0 0 1800 0 1800
-1200 0 -1200 0 0 -1800z"/>
</g>
</svg>
