<?xml version="1.0" standalone="no"?>
<!DOCTYPE svg PUBLIC "-//W3C//DTD SVG 20010904//EN"
 "http://www.w3.org/TR/2001/REC-SVG-20010904/DTD/svg10.dtd">
<svg version="1.0" xmlns="http://www.w3.org/2000/svg"
 width="480.000000pt" height="360.000000pt" viewBox="0 0 480.000000 360.000000"
 preserveAspectRatio="xMidYMid meet">
<metadata>
Created by potrace 1.16, written by Peter Selinger 2001-2019
</metadata>
<rect width="1" height="360" fill="#000000"/>
<rect x="479" width="1" height="360" fill="#000000"/>
<rect width="480" height="1" fill="#000000"/>
<rect y="359" width="480" height="1" fill="#000000"/>
<g transform="translate(0.000000,360.000000) scale(0.100000,-0.100000)"
fill="#000000" stroke="none">
<path d="M1470 2890 c-34 -12 -59 -15 -64 -9 -16 15 -62 10 -79 -9 -20 -21
-22 -43 -6 -59 8 -8 7 -19 -4 -39 -31 -60 -37 -102 -20 -137 26 -52 53 -87 69
-87 8 0 12 5 9 10 -3 6 1 10 9 10 22 0 20 -30 -4 -55 l-21 -22 41 -44 c22 -24
43 -52 46 -61 3 -10 12 -18 20 -18 8 0 12 -4 9 -10 -3 -5 -13 -10 -22 -10 -19
0 -63 -40 -63 -58 0 -7 7 -24 16 -37 15 -23 14 -24 -13 -38 -41 -22 -90 -85
-150 -197 -7 -14 -13 -35 -13 -48 0 -34 36 -99 66 -119 26 -17 26 -19 21 -100
-4 -68 -10 -91 -31 -123 -14 -22 -26 -43 -26 -48 0 -5 -9 -17 -20 -27 -15 -14
-17 -22 -9 -37 8 -15 4 -37 -22 -100 -21 -53 -28 -82 -21 -87 7 -4 3 -38 -14
-106 -13 -55 -38 -190 -54 -300 -17 -110 -41 -263 -55 -341 -13 -77 -31 -212
-39 -300 -9 -87 -20 -183 -26 -213 -5 -29 -10 -58 -10 -62 0 -5 230 -9 510 -9
431 0 510 2 510 14 0 8 -14 92 -30 188 -17 95 -42 261 -56 368 -14 107 -36
241 -49 297 -31 130 -98 356 -125 418 l-20 47 20 -5 c11 -3 20 -3 20 0 0 2
-23 31 -51 63 l-51 59 57 88 c63 97 61 83 35 252 -12 84 -12 85 10 103 l23 19
-20 14 c-22 15 -21 27 5 112 9 26 4 50 -29 149 -27 80 -36 121 -29 128 7 7 10
6 10 -3 0 -10 3 -11 13 -2 8 6 17 7 21 3 4 -4 14 2 22 13 14 19 16 19 28 3 21
-28 28 -21 21 20 -5 30 -2 42 14 56 11 10 24 15 30 12 10 -6 15 7 23 59 2 12
11 19 21 19 9 -1 17 1 17 5 0 4 -20 47 -45 96 -25 50 -45 102 -45 116 0 16
-12 37 -32 56 -18 17 -49 50 -69 75 -58 70 -164 88 -279 48z"/>
<path d="M3235 2223 c-100 -29 -191 -67 -213 -88 -35 -32 -34 -91 0 -119 19
-16 28 -34 33 -72 l6 -51 -53 -31 c-73 -41 -132 -95 -152 -136 -19 -40 -21
-104 -3 -127 31 -41 110 -55 222 -40 86 12 96 8 87 -35 -2 -13 1 -30 7 -38 10
-11 8 -15 -6 -19 -52 -15 -100 -16 -211 -7 -114 9 -128 13 -201 50 -42 22 -82
40 -87 40 -19 0 -83 -72 -94 -106 -25 -75 24 -164 101 -184 49 -13 159 11 196
44 35 30 55 34 178 34 154 0 167 -4 177 -51 4 -21 26 -76 49 -123 49 -101 57
-146 35 -199 -10 -22 -13 -42 -8 -47 6 -6 -2 -31 -19 -61 -15 -29 -44 -100
-63 -157 -62 -185 -96 -273 -138 -364 l-42 -88 32 -29 c18 -16 52 -34 77 -40
25 -6 48 -15 51 -20 3 -5 17 -9 32 -9 59 0 70 -9 82 -63 7 -34 7 -54 0 -61 -5
-5 -10 -14 -10 -18 0 -5 71 -7 157 -6 l158 3 14 73 15 72 40 10 c73 18 159 55
169 71 8 13 1 36 -31 100 -31 65 -48 119 -72 234 -17 83 -40 188 -51 235 -11
47 -17 93 -14 102 4 9 -2 54 -13 100 -12 46 -23 113 -27 150 -6 63 -23 139
-41 182 -7 18 -4 19 48 13 33 -3 79 -18 115 -36 51 -27 76 -32 169 -40 99 -8
111 -7 133 11 14 10 29 28 35 40 15 29 36 35 36 9 0 -30 13 -26 48 13 38 44
35 87 -10 134 -25 25 -38 32 -57 27 -14 -4 -30 0 -41 10 -15 14 -27 13 -126
-10 -60 -14 -125 -30 -145 -35 -47 -13 -225 -13 -249 0 -18 10 -18 13 -3 56
17 49 13 135 -7 159 -8 10 -6 15 10 20 43 14 168 106 194 144 31 45 29 65 -10
118 -40 54 -155 76 -272 54 -42 -8 -43 -8 -72 34 -26 37 -29 50 -24 87 5 37 2
46 -18 65 -32 30 -64 34 -123 16z"/>
</g>
</svg>
