<?xml version="1.0" standalone="no"?>
<!DOCTYPE svg PUBLIC "-//W3C//DTD SVG 20010904//EN"
 "http://www.w3.org/TR/2001/REC-SVG-20010904/DTD/svg10.dtd">
<svg version="1.0" xmlns="http://www.w3.org/2000/svg"
 width="480.000000pt" height="360.000000pt" viewBox="0 0 480.000000 360.000000"
 preserveAspectRatio="xMidYMid meet">
<metadata>
Created by potrace 1.16, written by Peter Selinger 2001-2019
</metadata>
<rect width="1" height="360" fill="#000000"/>
<rect x="479" width="1" height="360" fill="#000000"/>
<rect width="480" height="1" fill="#000000"/>
<rect y="359" width="480" height="1" fill="#000000"/>
<g transform="translate(0.000000,360.000000) scale(0.100000,-0.100000)"
fill="#000000" stroke="none">
<path d="M2019 3030 c-24 -16 -54 -30 -66 -30 -12 0 -33 -4 -47 -10 -18 -7
-37 -5 -67 5 -93 33 -163 11 -249 -77 -38 -38 -54 -65 -66 -107 -9 -31 -23
-69 -32 -86 -63 -118 -96 -220 -126 -389 -21 -117 -45 -608 -29 -593 3 4 17
24 30 44 l24 38 -6 -50 c-3 -27 -8 -58 -11 -67 -3 -10 -1 -18 4 -18 5 0 20 25
32 55 12 30 25 55 29 55 3 0 5 -25 4 -55 0 -30 3 -55 7 -55 5 0 17 24 27 53
l18 52 3 -107 c1 -60 6 -108 10 -108 4 0 20 28 36 63 24 50 30 58 33 39 3 -12
-1 -55 -8 -95 -17 -105 -17 -111 9 -122 23 -10 25 -18 14 -79 -5 -28 -13 -40
-26 -42 -75 -11 -80 -25 -16 -41 l35 -9 -1 -195 c-1 -183 -2 -201 -32 -319
-45 -180 -62 -282 -66 -395 -2 -62 -10 -117 -20 -145 -17 -43 -55 -202 -56
-227 0 -10 93 -13 431 -13 l431 0 -5 33 c-3 17 -9 59 -12 92 -3 33 -8 79 -11
102 -4 35 -2 42 15 48 13 4 25 21 32 47 6 23 17 51 25 63 15 23 11 145 -16
450 -13 144 -13 147 11 100 29 -58 51 -135 104 -365 70 -304 121 -448 187
-533 l30 -37 193 0 194 0 78 36 c43 20 97 44 120 55 l42 18 -1 -35 c-1 -19 2
-37 6 -42 11 -10 36 27 36 53 0 12 6 30 14 40 13 18 14 18 21 -6 18 -58 50
-61 33 -3 -8 31 -7 39 11 58 37 39 46 129 32 314 -19 252 -48 400 -121 603
-27 77 -35 111 -27 114 7 2 43 9 80 15 89 16 125 42 163 117 75 151 61 273
-37 323 -31 16 -39 25 -34 40 7 21 -12 38 -20 18 -4 -10 -28 -13 -88 -13 -62
0 -89 -4 -110 -18 -61 -40 -94 -170 -64 -255 14 -40 14 -43 -4 -52 -13 -7 -24
-7 -38 2 -16 10 -48 2 -192 -46 -96 -32 -206 -73 -246 -91 l-72 -33 -98 64
c-120 80 -138 99 -159 172 -9 31 -20 61 -24 65 -4 5 -22 1 -40 -8 -17 -9 -33
-15 -34 -13 -27 33 -56 87 -56 101 0 10 -11 33 -25 51 -24 32 -25 36 -15 107
6 40 15 76 21 80 6 3 9 36 7 79 -2 61 0 74 16 86 10 7 24 24 30 36 6 13 23 25
36 26 46 7 52 21 25 56 -32 42 -31 60 1 75 23 10 26 9 21 -4 -8 -20 -2 -19 31
5 15 11 37 21 49 23 28 4 58 42 67 85 6 23 13 32 28 32 15 0 18 4 13 18 -4 9
-10 58 -15 108 -10 117 -41 186 -120 269 -46 48 -60 69 -60 92 0 19 -9 40 -24
55 -14 13 -33 46 -43 73 -14 37 -29 56 -67 82 -59 41 -90 42 -147 3z m-29
-1131 c0 -59 -4 -66 -29 -50 -11 7 -11 18 0 64 6 31 16 54 21 51 4 -3 8 -32 8
-65z"/>
</g>
</svg>
