<?xml version="1.0" standalone="no"?>
<!DOCTYPE svg PUBLIC "-//W3C//DTD SVG 20010904//EN"
 "http://www.w3.org/TR/2001/REC-SVG-20010904/DTD/svg10.dtd">
<svg version="1.0" xmlns="http://www.w3.org/2000/svg"
 width="480.000000pt" height="360.000000pt" viewBox="0 0 480.000000 360.000000"
 preserveAspectRatio="xMidYMid meet">
<metadata>
Created by potrace 1.16, written by Peter Selinger 2001-2019
</metadata>
<rect width="1" height="360" fill="#000000"/>
<rect x="479" width="1" height="360" fill="#000000"/>
<rect width="480" height="1" fill="#000000"/>
<rect y="359" width="480" height="1" fill="#000000"/>
<g transform="translate(0.000000,360.000000) scale(0.100000,-0.100000)"
fill="#000000" stroke="none">
<path d="M0 2239 c0 -1085 3 -1359 12 -1352 7 4 51 14 97 23 46 8 83 18 82 23
0 4 -1 18 -1 32 0 21 -5 25 -28 25 -16 0 -37 6 -47 14 -18 13 -18 15 8 75 46
107 74 400 32 331 -7 -11 -48 -14 -57 -5 -3 4 -2 24 3 47 7 29 6 44 -3 55 -10
12 -9 18 5 28 25 18 21 30 -22 58 -52 34 -62 74 -27 100 14 10 26 23 26 28 0
6 16 31 35 56 19 25 35 50 35 55 0 5 16 32 35 60 21 32 31 56 25 62 -10 12 2
225 14 244 4 6 27 23 51 37 43 26 44 26 94 9 31 -10 56 -26 67 -42 10 -15 26
-33 36 -40 22 -16 23 -35 2 -67 -14 -22 -14 -24 5 -35 26 -14 26 -30 0 -64
-11 -14 -18 -34 -15 -43 3 -10 10 -57 15 -105 l10 -87 53 -54 c88 -89 86 -83
48 -122 -25 -26 -43 -35 -66 -35 -17 0 -36 -6 -41 -12 -16 -21 12 -361 36
-445 27 -92 26 -93 -6 -93 -19 0 -36 10 -55 32 -29 36 -36 35 -44 -8 -3 -15
-7 -31 -10 -35 -7 -12 47 -69 66 -69 31 0 32 -17 2 -29 -35 -14 -453 -82 -464
-75 -4 3 -8 -180 -8 -405 l0 -411 1065 0 1065 0 6 28 c8 40 44 123 64 152 10
14 73 86 139 160 119 132 137 158 105 146 -9 -4 -71 -20 -138 -37 -202 -50
-189 -43 -184 -101 3 -27 2 -46 -3 -41 -4 4 -9 26 -11 48 -2 29 -7 39 -18 36
-50 -11 -133 -12 -158 -2 -29 12 -57 55 -47 70 2 5 59 21 125 36 66 16 120 33
120 38 0 6 -6 18 -14 26 -28 33 -29 59 -1 77 25 16 27 16 50 -6 31 -29 32 -53
3 -73 -21 -14 -21 -16 -4 -16 24 -1 126 28 299 86 l139 46 34 55 c20 30 32 58
27 62 -4 4 -25 13 -46 20 -33 10 -41 10 -56 -4 -10 -9 -25 -16 -34 -16 -23 0
-58 49 -52 74 5 18 -2 24 -42 40 -26 11 -118 52 -203 92 -145 69 -155 76 -155
101 0 40 30 41 101 2 32 -18 120 -59 194 -90 l135 -58 18 25 c33 43 90 23 99
-35 2 -18 15 -28 55 -44 l52 -19 53 47 c84 75 107 131 66 159 -22 16 -22 16
-5 64 12 32 18 79 18 147 0 55 4 104 8 110 4 5 13 24 20 41 11 29 10 33 -23
66 -31 31 -36 43 -36 81 0 34 6 53 26 77 25 30 26 31 9 50 -10 11 -24 20 -32
20 -10 0 -12 6 -8 20 11 35 -4 63 -31 57 -14 -2 -27 0 -30 5 -3 4 -10 6 -15 3
-5 -4 -21 7 -35 24 -14 17 -32 31 -39 31 -9 0 -11 12 -8 43 4 35 0 46 -22 70
-32 33 -52 24 -57 -25 -4 -37 -28 -51 -28 -16 0 52 15 51 -436 44 -446 -7
-961 -29 -1109 -48 -119 -14 -129 -15 -134 -3 -7 15 54 52 112 69 141 41 457
63 1072 76 259 6 475 12 482 15 6 2 13 15 15 30 5 40 23 35 26 -7 3 -39 10
-46 28 -28 5 5 30 12 55 14 53 5 88 20 149 62 50 34 120 64 151 64 11 0 47 11
79 25 33 14 87 28 120 32 76 7 92 -4 84 -58 -10 -60 1 -86 47 -109 44 -23 57
-43 40 -63 -8 -10 -4 -22 14 -47 31 -42 31 -67 3 -132 l-21 -50 23 -51 c47
-109 51 -125 39 -172 -9 -34 -22 -53 -57 -82 l-45 -37 6 -140 c5 -130 33 -385
43 -395 6 -7 86 23 299 111 104 43 195 78 202 78 16 0 77 -120 66 -130 -4 -4
-144 -58 -309 -119 l-302 -112 17 -61 c10 -39 24 -66 38 -75 27 -18 262 -97
518 -174 110 -33 206 -67 214 -74 13 -13 12 -17 -4 -35 -39 -43 -184 -16 -519
95 -92 31 -170 54 -172 52 -10 -10 55 -105 130 -190 45 -50 104 -121 130 -157
27 -36 72 -89 100 -117 l50 -53 498 0 498 0 0 1800 0 1800 -2400 0 -2400 0 0
-1361z m3875 1112 c82 -40 144 -110 180 -198 34 -86 36 -88 98 -109 130 -43
222 -108 384 -270 136 -137 162 -178 148 -232 -11 -44 -44 -72 -85 -72 -43 0
-68 17 -157 109 l-62 63 -73 -7 c-40 -4 -122 -16 -183 -27 -137 -24 -374 -35
-432 -19 -22 6 -52 20 -64 30 -23 19 -23 19 86 19 61 1 139 8 175 15 78 17
384 98 389 102 1 2 0 8 -3 14 -27 44 -266 30 -376 -22 -57 -27 -76 -31 -155
-31 -108 -1 -157 19 -244 100 -111 102 -142 223 -91 344 85 198 284 280 465
191z"/>
<path d="M210 1776 c0 -9 5 -16 10 -16 6 0 10 4 10 9 0 6 -4 13 -10 16 -5 3
-10 -1 -10 -9z"/>
<path d="M171 1464 c0 -11 3 -14 6 -6 3 7 2 16 -1 19 -3 4 -6 -2 -5 -13z"/>
<path d="M293 983 c-18 -7 -16 -48 2 -63 21 -18 37 0 33 36 -3 28 -13 36 -35
27z"/>
</g>
</svg>
