<?xml version="1.0" standalone="no"?>
<!DOCTYPE svg PUBLIC "-//W3C//DTD SVG 20010904//EN"
 "http://www.w3.org/TR/2001/REC-SVG-20010904/DTD/svg10.dtd">
<svg version="1.0" xmlns="http://www.w3.org/2000/svg"
 width="480.000000pt" height="360.000000pt" viewBox="0 0 480.000000 360.000000"
 preserveAspectRatio="xMidYMid meet">
<metadata>
Created by potrace 1.16, written by Peter Selinger 2001-2019
</metadata>
<rect width="1" height="360" fill="#000000"/>
<rect x="479" width="1" height="360" fill="#000000"/>
<rect width="480" height="1" fill="#000000"/>
<rect y="359" width="480" height="1" fill="#000000"/>
<g transform="translate(0.000000,360.000000) scale(0.100000,-0.100000)"
fill="#000000" stroke="none">
<path d="M908 3568 c30 -52 57 -105 111 -220 l49 -107 50 6 c50 6 53 4 137
-40 17 -9 45 -21 62 -28 79 -28 123 -113 123 -236 0 -67 2 -73 23 -78 12 -2
72 -15 132 -29 135 -30 214 -59 250 -92 l27 -25 -22 -25 c-48 -50 -136 -74
-372 -99 -34 -4 -58 -11 -58 -18 0 -7 15 -37 34 -68 62 -103 56 -128 -19 -84
-47 28 -52 27 -35 -6 6 -11 7 -25 3 -32 -4 -6 -8 -34 -9 -62 -1 -66 -44 -197
-66 -203 -9 -2 -19 -10 -22 -18 -3 -8 -14 -14 -24 -14 -10 0 -33 -16 -52 -35
-19 -19 -40 -35 -47 -35 -7 0 -13 -4 -13 -10 0 -5 -29 -25 -65 -45 -57 -32
-65 -40 -65 -66 0 -42 21 -78 74 -126 31 -28 46 -50 46 -67 0 -31 -47 -72
-103 -87 -56 -16 -62 -23 -58 -65 2 -26 -3 -42 -20 -60 -20 -22 -30 -24 -112
-24 -80 0 -88 -2 -77 -16 23 -27 50 -37 66 -24 22 19 44 4 44 -29 0 -21 -10
-40 -34 -63 -18 -18 -39 -51 -46 -73 -20 -62 -48 -113 -69 -125 -28 -14 -88
-12 -145 5 -84 26 -82 28 -95 -87 l-13 -103 216 -215 c150 -150 229 -221 261
-236 57 -27 82 -49 106 -96 11 -21 49 -67 85 -103 76 -77 120 -161 130 -247
l7 -58 1194 0 c1192 0 1195 0 1221 21 175 135 160 120 305 308 96 125 98 141
15 156 -72 13 -100 37 -96 84 l3 36 63 -3 c93 -5 108 1 127 52 10 25 14 49 10
55 -8 13 -62 15 -69 2 -3 -5 -14 -11 -25 -14 -13 -3 -17 0 -14 12 5 21 86 76
139 95 59 20 119 52 167 89 23 18 76 47 117 65 41 19 98 44 125 57 28 13 60
26 73 30 47 14 18 25 -65 25 -124 0 -224 16 -247 40 -11 10 -35 52 -55 92 -28
57 -44 77 -73 93 -21 11 -38 25 -38 31 0 6 -17 22 -37 35 -31 20 -39 32 -45
68 -9 56 -20 68 -87 98 -55 24 -101 58 -101 75 0 5 31 39 68 76 68 67 102 130
102 188 0 25 -62 84 -89 84 -10 0 -53 9 -96 20 -63 16 -84 27 -106 53 -16 17
-28 37 -29 44 0 7 -10 17 -22 24 -40 20 -87 71 -93 101 -8 37 -31 48 -98 48
-30 0 -74 7 -97 15 -23 8 -60 15 -82 15 -46 0 -83 18 -120 58 -22 24 -37 30
-83 34 -66 6 -79 16 -75 60 1 18 2 48 2 67 -1 25 6 39 24 53 13 11 42 52 64
91 21 40 62 100 90 135 27 34 50 64 50 67 0 16 -110 -57 -156 -102 -29 -29
-68 -38 -109 -26 -27 9 -42 7 -75 -8 -118 -53 -100 11 75 267 55 81 107 157
115 169 59 90 183 263 229 319 68 82 138 112 195 81 l33 -18 52 37 c61 41 62
41 102 20 32 -16 60 -12 79 11 11 13 -172 15 -1480 15 l-1492 0 20 -32z"/>
<path d="M3407 3358 c-27 -29 -57 -64 -66 -78 -8 -14 -36 -54 -61 -90 -25 -36
-49 -72 -55 -81 -5 -9 -27 -41 -48 -70 -91 -130 -98 -144 -77 -147 27 -5 88
27 122 62 52 55 212 263 247 321 43 70 48 128 12 133 -18 3 -36 -9 -74 -50z"/>
<path d="M3390 3010 c-13 -8 -13 -10 2 -10 9 0 20 5 23 10 8 13 -5 13 -25 0z"/>
</g>
</svg>
