<?xml version="1.0" standalone="no"?>
<!DOCTYPE svg PUBLIC "-//W3C//DTD SVG 20010904//EN"
 "http://www.w3.org/TR/2001/REC-SVG-20010904/DTD/svg10.dtd">
<svg version="1.0" xmlns="http://www.w3.org/2000/svg"
 width="480.000000pt" height="360.000000pt" viewBox="0 0 480.000000 360.000000"
 preserveAspectRatio="xMidYMid meet">
<metadata>
Created by potrace 1.16, written by Peter Selinger 2001-2019
</metadata>
<rect width="1" height="360" fill="#000000"/>
<rect x="479" width="1" height="360" fill="#000000"/>
<rect width="480" height="1" fill="#000000"/>
<rect y="359" width="480" height="1" fill="#000000"/>
<g transform="translate(0.000000,360.000000) scale(0.100000,-0.100000)"
fill="#000000" stroke="none">
<path d="M0 1800 l0 -1800 459 0 458 0 -4 24 c-3 15 3 36 18 55 22 30 22 31 5
83 -9 29 -26 63 -38 75 -24 26 -37 115 -19 136 6 8 14 35 17 61 8 58 35 89
104 116 14 6 32 14 40 20 8 5 40 23 71 40 36 18 65 43 79 65 12 19 27 35 33
35 8 0 8 3 0 11 -7 7 -4 17 14 35 13 13 21 29 18 34 -3 6 -3 10 2 10 4 0 19 9
32 19 l24 18 -54 -3 c-51 -4 -52 -3 -24 8 56 23 77 45 80 80 2 28 6 33 31 36
35 4 55 19 48 36 -3 7 20 29 51 50 30 21 55 41 55 43 0 3 -22 30 -50 60 -49
56 -87 137 -69 148 5 4 9 0 9 -7 0 -7 5 -5 12 6 6 11 8 43 5 78 -4 46 -11 66
-31 87 -13 14 -30 39 -35 54 -12 32 -15 116 -4 143 6 16 7 16 14 -2 6 -17 11
-14 51 27 29 29 49 62 57 91 20 71 45 91 186 151 72 31 162 70 200 88 l69 32
136 -6 c119 -6 141 -4 185 13 28 10 76 22 108 25 39 5 60 12 66 24 5 9 26 34
45 56 l36 39 -6 -32 c-4 -17 -2 -38 4 -44 5 -7 6 -22 2 -33 -5 -15 5 -31 44
-70 28 -27 64 -67 79 -87 16 -20 48 -46 72 -58 23 -11 54 -31 66 -44 121 -121
298 -324 305 -351 3 -12 1 -40 -5 -60 -12 -45 3 -185 25 -229 8 -16 14 -36 14
-45 0 -22 -101 -171 -146 -217 -58 -57 -134 -81 -117 -36 4 9 -24 -10 -62 -44
-85 -74 -123 -97 -194 -118 -68 -20 -104 -20 -170 0 -41 12 -51 19 -47 31 4
10 -4 27 -21 45 -37 39 -57 38 -228 -10 -38 -11 -89 -23 -112 -27 -43 -7 -43
-7 -62 -73 -22 -76 -47 -215 -56 -312 -13 -141 -38 -286 -56 -332 l-19 -48
1500 0 1500 0 0 1109 0 1110 -50 -15 c-27 -8 -87 -32 -132 -53 -126 -58 -174
-67 -255 -52 -38 7 -111 29 -163 48 -93 35 -479 228 -850 423 -282 149 -343
180 -356 180 -6 0 -42 25 -80 56 -105 86 -352 282 -590 469 -143 112 -231 186
-319 269 l-60 56 -972 0 -973 0 0 -1800z"/>
<path d="M1408 1664 c-44 -46 -58 -68 -58 -90 1 -30 28 -100 29 -74 0 8 21 56
47 106 25 50 45 97 43 105 -3 9 -24 -8 -61 -47z"/>
<path d="M1430 1368 c1 -24 -2 -66 -5 -94 -7 -49 -6 -53 28 -91 52 -57 78 -69
117 -53 28 12 31 17 26 44 -18 89 -115 236 -156 236 -6 0 -10 -19 -10 -42z"/>
<path d="M2952 1044 c-29 -14 -68 -45 -88 -70 -34 -41 -35 -44 -19 -61 15 -15
20 -15 43 -2 28 15 132 133 132 149 0 15 -11 12 -68 -16z"/>
<path d="M1982 875 c-16 -35 -16 -35 13 -33 27 3 27 3 19 36 -8 29 -18 28 -32
-3z"/>
<path d="M2365 868 c-22 -6 -42 -12 -44 -15 -9 -7 84 -95 114 -108 40 -17 138
0 211 37 48 25 86 58 68 58 -5 0 -40 9 -79 20 -77 21 -203 25 -270 8z"/>
<path d="M2125 839 c-10 -16 1 -22 26 -14 17 6 19 9 8 16 -19 12 -26 11 -34
-2z"/>
</g>
</svg>
