<?xml version="1.0" standalone="no"?>
<!DOCTYPE svg PUBLIC "-//W3C//DTD SVG 20010904//EN"
 "http://www.w3.org/TR/2001/REC-SVG-20010904/DTD/svg10.dtd">
<svg version="1.0" xmlns="http://www.w3.org/2000/svg"
 width="480.000000pt" height="360.000000pt" viewBox="0 0 480.000000 360.000000"
 preserveAspectRatio="xMidYMid meet">
<metadata>
Created by potrace 1.16, written by Peter Selinger 2001-2019
</metadata>
<rect width="1" height="360" fill="#000000"/>
<rect x="479" width="1" height="360" fill="#000000"/>
<rect width="480" height="1" fill="#000000"/>
<rect y="359" width="480" height="1" fill="#000000"/>
<g transform="translate(0.000000,360.000000) scale(0.100000,-0.100000)"
fill="#000000" stroke="none">
<path d="M904 3578 c18 -62 17 -77 -3 -116 -27 -53 -26 -63 4 -92 14 -13 25
-34 25 -46 0 -13 6 -27 14 -31 8 -4 16 -19 18 -32 2 -19 14 -28 53 -41 38 -13
50 -22 48 -36 -1 -10 -3 -32 -5 -49 -2 -24 2 -32 25 -43 26 -13 28 -18 22 -48
-5 -31 -2 -38 29 -66 20 -18 36 -38 36 -46 0 -20 120 -132 142 -132 24 0 26
-18 11 -85 -9 -37 -13 -107 -12 -185 l2 -125 -88 -179 c-93 -191 -105 -231
-85 -292 27 -82 84 -191 120 -230 67 -73 65 -114 -12 -225 -28 -41 -70 -102
-94 -137 -24 -34 -78 -106 -121 -159 -133 -164 -158 -202 -147 -221 6 -9 26
-21 44 -27 25 -7 49 -32 99 -100 37 -49 84 -121 105 -159 21 -38 50 -75 66
-84 38 -22 68 -69 76 -119 6 -37 10 -43 31 -43 33 0 70 -40 78 -84 4 -20 11
-39 16 -42 5 -3 9 -16 9 -29 0 -20 6 -25 43 -30 39 -6 44 -11 76 -68 19 -34
39 -86 45 -117 l11 -55 896 -3 896 -2 76 172 c173 395 201 469 205 541 7 113
-12 162 -146 376 -92 145 -93 168 -27 332 25 61 55 129 68 152 20 39 22 54 20
195 -3 177 -2 173 -114 327 -40 55 -96 136 -124 180 -49 78 -95 143 -202 289
-73 98 -82 141 -59 294 10 64 24 160 31 212 24 181 55 335 85 430 16 52 30 96
30 98 0 1 -523 2 -1161 2 l-1161 0 6 -22z"/>
</g>
</svg>
