<?xml version="1.0" standalone="no"?>
<!DOCTYPE svg PUBLIC "-//W3C//DTD SVG 20010904//EN"
 "http://www.w3.org/TR/2001/REC-SVG-20010904/DTD/svg10.dtd">
<svg version="1.0" xmlns="http://www.w3.org/2000/svg"
 width="480.000000pt" height="360.000000pt" viewBox="0 0 480.000000 360.000000"
 preserveAspectRatio="xMidYMid meet">
<metadata>
Created by potrace 1.16, written by Peter Selinger 2001-2019
</metadata>
<rect width="1" height="360" fill="#000000"/>
<rect x="479" width="1" height="360" fill="#000000"/>
<rect width="480" height="1" fill="#000000"/>
<rect y="359" width="480" height="1" fill="#000000"/>
<g transform="translate(0.000000,360.000000) scale(0.100000,-0.100000)"
fill="#000000" stroke="none">
<path d="M2076 3145 c-146 -60 -257 -257 -243 -433 l5 -62 -39 -34 c-28 -24
-46 -32 -64 -28 -20 3 -28 -3 -45 -30 -11 -19 -31 -41 -45 -48 -14 -7 -25 -19
-25 -25 0 -6 31 -45 69 -86 58 -63 70 -72 84 -61 13 11 19 6 41 -34 24 -43 25
-51 15 -83 -14 -42 -66 -121 -79 -121 -6 0 -10 -4 -10 -10 0 -5 14 -10 30 -10
35 0 35 -3 15 -60 -20 -58 -20 -59 20 -20 19 18 37 32 39 29 2 -2 11 -21 20
-42 17 -41 36 -42 36 -2 0 13 5 27 10 30 6 3 10 0 10 -7 0 -7 21 -44 46 -83
27 -42 43 -60 40 -45 l-5 25 19 -22 c24 -30 28 -29 32 10 l4 32 13 -30 c6 -16
15 -25 19 -19 13 18 32 9 48 -21 14 -27 14 -31 -2 -42 -18 -13 -70 -25 -213
-48 -166 -27 -196 -58 -270 -273 l-36 -105 -82 -28 c-81 -27 -103 -25 -103 7
0 22 -40 27 -159 19 -197 -11 -296 21 -458 146 -170 133 -218 164 -327 219
l-111 55 -5 49 c-3 27 -10 51 -16 53 -7 2 -56 -49 -110 -114 -55 -65 -132
-152 -172 -194 l-72 -77 2 -263 3 -264 29 50 c16 28 47 74 68 103 31 42 44 52
67 52 34 0 66 -33 95 -98 10 -23 23 -42 27 -42 4 0 11 17 14 38 11 75 18 87
52 90 37 4 78 -15 150 -69 40 -30 55 -49 64 -82 7 -23 14 -44 15 -46 2 -2 27
10 56 27 29 17 82 40 117 52 95 31 141 17 242 -76 32 -30 66 -54 76 -54 9 0
80 42 157 94 160 106 250 154 349 185 l69 21 31 -22 c18 -12 34 -23 36 -25 2
-2 -10 -23 -28 -48 -23 -32 -28 -46 -19 -49 42 -13 49 -17 43 -27 -4 -6 2 -17
14 -25 20 -14 21 -23 21 -199 l0 -183 30 -25 c16 -14 39 -29 51 -32 20 -7 21
-12 14 -74 -7 -72 -18 -87 -69 -97 -41 -7 -81 -38 -71 -53 4 -7 18 -16 31 -22
25 -9 54 -62 54 -96 0 -10 -15 -41 -33 -68 -19 -28 -52 -83 -75 -122 l-41 -73
570 0 c384 0 569 3 569 10 0 6 -7 27 -16 48 -21 47 -25 156 -7 206 7 21 13 40
13 41 0 2 -15 21 -34 43 -42 51 -76 178 -76 284 0 95 12 329 17 325 2 -2 15
-64 29 -137 14 -73 32 -150 41 -171 19 -48 56 -79 95 -79 37 0 96 25 125 52
34 32 31 126 -8 289 -40 165 -35 172 68 86 134 -113 112 -106 182 -59 76 50
121 66 177 59 44 -5 120 -47 182 -101 28 -24 35 -27 43 -15 5 8 9 19 9 26 0
49 192 116 272 95 18 -4 20 -10 14 -48 -3 -26 -2 -44 4 -44 6 0 10 4 10 9 0 4
19 29 43 55 53 56 80 59 124 14 17 -18 52 -72 77 -120 26 -47 54 -92 62 -99
13 -10 37 -9 132 11 l117 23 95 -26 c52 -15 122 -35 154 -47 33 -11 63 -20 68
-20 4 0 8 20 8 44 0 43 -2 47 -71 103 -339 275 -487 433 -677 718 -55 84 -98
134 -105 124 -2 -2 -8 -20 -13 -39 -11 -41 -37 -56 -164 -95 -51 -16 -137 -57
-217 -102 -208 -118 -236 -128 -373 -127 -137 1 -160 9 -179 60 -19 53 -93
175 -138 229 -44 53 -85 75 -208 110 -99 29 -195 69 -195 82 0 5 16 33 35 63
l34 55 1 -35 c1 -19 5 -44 9 -55 7 -18 11 -15 37 22 16 23 32 42 36 43 3 0 9
-18 13 -40 6 -34 9 -39 21 -29 8 6 14 17 14 23 1 18 39 63 40 46 1 -8 7 -28
16 -45 l14 -30 -4 38 c-3 26 -1 37 8 37 8 0 19 14 26 30 l12 30 40 -36 c22
-19 42 -33 44 -31 3 3 -4 22 -15 43 -31 57 -28 64 25 64 l46 0 -36 41 c-57 62
-64 85 -37 112 21 21 23 21 32 4 15 -26 30 -10 17 18 -9 21 -7 31 17 65 l28
41 27 -33 c24 -28 30 -31 44 -19 28 23 20 83 -19 141 -19 29 -35 56 -35 61 0
12 35 -6 83 -44 21 -16 40 -28 42 -25 11 11 35 127 35 169 l0 47 69 -3 c38 -2
79 -1 90 2 28 7 28 49 0 65 -23 15 -39 48 -76 162 -21 64 -25 92 -21 148 5 68
3 73 -32 68 -24 -3 -82 -32 -116 -57 -17 -13 -35 -23 -39 -23 -5 0 -18 -8 -29
-19 -40 -36 -60 -34 -81 6 -31 57 -104 124 -171 155 -48 22 -101 35 -230 53
-223 32 -320 32 -398 0z m84 -1236 c0 -6 -4 -7 -10 -4 -5 3 -10 11 -10 16 0 6
5 7 10 4 6 -3 10 -11 10 -16z"/>
</g>
</svg>
