<?xml version="1.0" standalone="no"?>
<!DOCTYPE svg PUBLIC "-//W3C//DTD SVG 20010904//EN"
 "http://www.w3.org/TR/2001/REC-SVG-20010904/DTD/svg10.dtd">
<svg version="1.0" xmlns="http://www.w3.org/2000/svg"
 width="480.000000pt" height="360.000000pt" viewBox="0 0 480.000000 360.000000"
 preserveAspectRatio="xMidYMid meet">
<metadata>
Created by potrace 1.16, written by Peter Selinger 2001-2019
</metadata>
<rect width="1" height="360" fill="#000000"/>
<rect x="479" width="1" height="360" fill="#000000"/>
<rect width="480" height="1" fill="#000000"/>
<rect y="359" width="480" height="1" fill="#000000"/>
<g transform="translate(0.000000,360.000000) scale(0.100000,-0.100000)"
fill="#000000" stroke="none">
<path d="M0 1800 l0 -1800 189 0 188 0 7 85 c11 139 -2 193 -104 425 -178 403
-215 587 -214 1055 0 247 3 311 22 430 29 183 69 346 136 551 l56 166 -30 36
c-41 50 -40 79 6 98 31 13 42 13 96 -1 142 -36 492 -191 553 -243 22 -20 116
-59 311 -129 351 -127 781 -273 805 -273 19 0 22 7 34 84 l6 38 -47 -7 c-25
-3 -53 -9 -60 -12 -8 -3 -14 0 -14 6 0 6 5 11 10 11 6 0 10 4 10 10 0 5 -6 8
-12 6 -7 -3 -33 -7 -57 -11 -38 -5 -42 -4 -32 9 9 11 9 15 -1 19 -7 2 3 11 22
20 29 13 31 16 13 16 -21 1 -18 6 28 64 27 34 80 109 116 167 104 163 140 206
227 272 104 78 122 85 183 70 26 -7 89 -14 139 -17 95 -4 177 -28 244 -70 68
-44 104 -100 161 -254 39 -105 42 -124 15 -102 -12 11 -17 6 -25 -27 -11 -40
-57 -99 -68 -88 -4 3 -18 -4 -31 -16 -14 -13 -22 -17 -18 -10 5 8 0 12 -13 12
-25 0 -29 -41 -6 -60 22 -18 18 -35 -10 -54 -14 -9 -25 -22 -25 -29 -1 -23
-98 -120 -114 -114 -8 3 -17 1 -19 -6 -3 -8 -10 -5 -21 8 -12 16 -15 17 -16 4
0 -21 97 -87 141 -95 53 -10 106 -41 149 -86 40 -40 41 -41 323 -114 356 -93
392 -101 412 -84 13 11 21 10 45 -8 l28 -21 16 24 c20 30 39 32 66 5 11 -11
22 -15 25 -10 9 14 21 12 38 -4 7 -8 24 -16 37 -18 15 -2 26 -12 30 -26 l5
-23 18 22 c18 20 19 20 38 3 10 -9 19 -23 19 -30 0 -7 4 -15 8 -18 10 -6 448
-98 602 -126 63 -12 125 -24 138 -27 l22 -5 0 1051 0 1051 -2400 0 -2400 0 0
-1800z"/>
<path d="M749 2422 c-84 -201 -160 -425 -183 -537 -40 -196 -67 -559 -55 -731
12 -161 40 -281 135 -575 47 -145 85 -282 86 -305 0 -36 -16 -84 -89 -261 -4
-10 111 -13 555 -13 l560 0 58 63 c85 90 348 427 412 527 30 47 81 125 114
174 58 88 59 91 53 141 -7 51 -8 52 -114 138 -59 48 -129 110 -156 137 -44 44
-49 54 -53 104 -5 64 19 125 98 246 48 73 49 76 38 117 -11 38 -10 45 16 83
26 40 27 46 18 99 -5 31 -8 70 -5 87 7 44 -13 51 -36 14 -15 -26 -20 -28 -25
-14 -5 13 -9 15 -18 6 -19 -19 -26 -14 -33 18 -8 35 -12 37 -32 13 -13 -16
-14 -13 -9 27 l6 45 -25 -28 c-25 -28 -25 -28 -25 -5 0 13 4 28 9 34 5 5 12
19 16 32 11 36 -25 28 -63 -15 -21 -24 -31 -30 -27 -18 4 11 8 25 9 30 1 6 5
16 10 23 5 8 4 17 0 22 -5 4 -80 31 -167 59 -188 61 -390 132 -697 246 -160
59 -243 84 -287 88 l-62 5 -32 -76z"/>
<path d="M1954 2449 c-19 -22 -19 -22 4 -8 12 8 22 17 22 21 0 12 -6 9 -26
-13z"/>
<path d="M1970 2329 c0 -5 5 -7 10 -4 6 3 10 8 10 11 0 2 -4 4 -10 4 -5 0 -10
-5 -10 -11z"/>
<path d="M2966 1786 c-6 -26 30 -103 81 -172 36 -48 56 -119 50 -172 -6 -56
15 -107 41 -99 70 21 240 65 356 93 77 18 146 40 154 48 13 12 14 27 6 82 l-9
68 -75 18 c-71 18 -547 144 -581 155 -11 3 -18 -3 -23 -21z"/>
<path d="M3971 1482 c-51 -76 -137 -154 -205 -186 -125 -59 -529 -196 -601
-203 -43 -5 -63 -1 -110 21 -32 14 -59 26 -60 26 -6 0 -17 -77 -22 -148 l-5
-72 46 -47 c46 -47 57 -80 36 -113 -13 -21 57 -150 126 -230 68 -80 167 -242
162 -267 -3 -14 -13 -18 -49 -18 l-44 1 35 -123 35 -123 743 0 742 0 -2 662
-3 663 -95 28 c-189 56 -669 187 -685 187 -2 0 -22 -26 -44 -58z"/>
<path d="M2301 1352 l-30 -39 48 -47 c44 -43 49 -46 54 -27 6 25 -21 151 -33
151 -5 0 -22 -17 -39 -38z"/>
</g>
</svg>
