<?xml version="1.0" standalone="no"?>
<!DOCTYPE svg PUBLIC "-//W3C//DTD SVG 20010904//EN"
 "http://www.w3.org/TR/2001/REC-SVG-20010904/DTD/svg10.dtd">
<svg version="1.0" xmlns="http://www.w3.org/2000/svg"
 width="480.000000pt" height="360.000000pt" viewBox="0 0 480.000000 360.000000"
 preserveAspectRatio="xMidYMid meet">
<metadata>
Created by potrace 1.16, written by Peter Selinger 2001-2019
</metadata>
<rect width="1" height="360" fill="#000000"/>
<rect x="479" width="1" height="360" fill="#000000"/>
<rect width="480" height="1" fill="#000000"/>
<rect y="359" width="480" height="1" fill="#000000"/>
<g transform="translate(0.000000,360.000000) scale(0.100000,-0.100000)"
fill="#000000" stroke="none">
<path d="M0 2255 l0 -1345 25 10 c14 5 39 17 57 26 23 12 79 18 211 25 99 5
183 12 187 14 12 7 8 79 -4 87 -6 4 -24 8 -40 8 l-29 0 7 63 c3 34 11 89 16
122 6 33 17 112 24 175 13 119 10 140 -23 140 -10 0 -28 11 -41 25 l-23 25 21
23 c12 13 22 32 22 43 0 10 7 39 16 64 25 72 36 146 39 278 4 137 14 175 53
191 58 22 83 24 123 5 32 -14 45 -29 65 -71 25 -51 25 -55 9 -79 -11 -17 -14
-35 -10 -56 4 -18 2 -40 -6 -55 -10 -19 -10 -31 -1 -57 7 -18 12 -45 12 -60 0
-26 38 -68 119 -134 24 -18 24 -21 9 -44 -9 -14 -14 -35 -11 -51 4 -20 1 -27
-10 -27 -9 0 -19 5 -22 10 -9 15 -42 12 -59 -6 -18 -17 -18 -10 20 -249 13
-82 31 -179 40 -214 9 -36 12 -67 7 -72 -5 -5 -26 0 -48 11 -55 28 -72 26 -80
-10 -7 -33 -1 -50 19 -50 13 0 56 -41 56 -53 0 -4 -8 -7 -18 -7 -10 0 -31 -13
-45 -30 -18 -19 -22 -30 -13 -30 7 0 19 7 26 15 10 12 15 13 21 4 10 -17 122
33 479 212 463 233 449 225 469 284 10 28 26 90 36 139 16 80 17 89 2 97 -8 5
-66 46 -129 92 -62 46 -141 103 -175 128 -69 49 -78 62 -63 90 16 28 38 23 89
-19 49 -41 263 -197 292 -212 15 -8 18 -1 29 55 10 51 24 82 66 143 62 90 100
160 110 205 3 17 13 42 22 54 17 27 151 139 205 172 20 12 37 29 37 36 0 8 18
20 40 26 55 17 66 31 50 68 -15 38 -49 33 -42 -6 3 -17 1 -24 -6 -19 -6 3 -15
-1 -20 -10 -9 -16 -12 -16 -44 -1 -30 14 -35 21 -30 43 5 29 7 28 -46 7 -13
-6 -12 37 4 137 8 54 107 232 152 275 111 106 195 123 313 62 54 -27 69 -32
64 -19 -3 9 -9 38 -12 64 -5 44 -4 47 20 53 14 4 35 1 47 -5 12 -6 24 -10 26
-7 2 2 8 45 13 96 5 50 11 95 15 98 13 14 20 -11 27 -105 4 -53 12 -110 18
-125 17 -43 14 -51 -35 -107 l-47 -51 37 -73 c28 -56 36 -84 35 -122 -1 -67
-11 -97 -36 -109 -11 -6 -28 -17 -36 -24 -9 -7 -21 -10 -26 -6 -10 6 -55 -55
-47 -63 2 -2 31 18 64 43 55 42 66 47 124 51 119 7 133 11 258 68 69 32 184
75 255 96 72 21 164 52 207 69 88 36 147 39 218 14 l48 -17 47 39 c25 22 58
49 73 60 78 59 272 225 324 278 40 41 77 49 128 26 l42 -19 -4 -54 c-6 -73
-40 -116 -122 -156 -35 -16 -67 -30 -70 -30 -16 0 -2 20 29 41 40 27 45 49 13
49 -19 0 -20 2 -8 10 8 5 11 10 5 10 -19 0 -135 -86 -213 -157 -13 -12 -60
-51 -104 -85 -65 -51 -78 -66 -73 -83 17 -52 17 -75 1 -75 -9 0 -16 -7 -16
-15 0 -9 -8 -18 -17 -21 -10 -3 -37 -15 -61 -27 -41 -20 -44 -20 -72 -4 -39
23 -46 7 -20 -44 26 -51 16 -68 -29 -49 -17 7 -35 18 -41 25 -9 11 -83 -40
-353 -244 -188 -141 -364 -272 -392 -291 -27 -19 -55 -39 -62 -45 -6 -5 -68
-50 -137 -99 l-126 -89 0 -52 c0 -49 -2 -53 -30 -65 -30 -13 -31 -14 -26 -74
2 -33 11 -80 20 -104 8 -23 27 -91 41 -150 l26 -107 82 -50 c45 -27 188 -109
317 -182 129 -73 241 -140 250 -149 13 -14 13 -17 -4 -30 -11 -8 -30 -14 -42
-14 -51 0 -205 71 -398 185 -71 41 -130 74 -132 73 -1 -2 16 -33 37 -69 40
-67 113 -233 150 -342 l20 -58 -23 -32 c-12 -18 -25 -34 -29 -37 -3 -3 -13
-19 -22 -36 -18 -35 -71 -84 -92 -84 -7 0 -18 -6 -25 -14 -6 -8 -19 -16 -29
-18 -16 -3 -14 -14 22 -108 21 -58 45 -132 52 -165 l12 -60 1041 -3 1042 -2 0
1800 0 1800 -338 0 -338 0 -2 -73 c-2 -64 -16 -122 -47 -199 -5 -13 -2 -18 9
-18 39 0 6 -36 -70 -76 -173 -93 -174 -94 -238 -94 -76 0 -119 12 -177 48 -54
35 -81 85 -129 247 -21 72 -41 120 -58 138 l-26 27 -1693 0 -1693 0 0 -1345z
m670 992 c0 -21 -39 -57 -60 -57 -28 0 -25 25 6 49 30 24 54 27 54 8z m3500
-363 c0 -8 -7 -14 -15 -14 -15 0 -21 21 -9 33 10 9 24 -2 24 -19z m-2952 -40
c12 -4 22 -10 22 -15 0 -15 -37 -10 -50 6 -13 16 -8 18 28 9z m3257 -164 c-3
-5 -13 -10 -21 -10 -8 0 -12 5 -9 10 3 6 13 10 21 10 8 0 12 -4 9 -10z m257
-597 c22 -19 24 -43 4 -43 -15 0 -46 26 -46 39 0 9 11 21 18 21 3 0 14 -7 24
-17z m-1352 -1393 c0 -5 -5 -10 -11 -10 -5 0 -7 5 -4 10 3 6 8 10 11 10 2 0 4
-4 4 -10z"/>
<path d="M3405 2614 c-55 -24 -129 -55 -165 -69 -36 -13 -107 -44 -158 -69
-86 -43 -92 -47 -86 -71 5 -20 1 -26 -21 -35 -15 -6 -40 -23 -54 -39 -20 -22
-54 -37 -132 -61 -57 -17 -117 -36 -133 -42 -45 -18 -64 -73 -68 -204 l-3
-112 80 56 c44 31 148 107 230 169 83 61 168 125 190 141 54 40 438 333 448
341 10 10 -2 41 -17 40 -6 0 -56 -21 -111 -45z"/>
<path d="M2540 2433 c-46 -32 -47 -33 -23 -33 25 0 68 32 62 46 -2 6 -20 0
-39 -13z"/>
<path d="M2075 1950 c-21 -16 -43 -30 -48 -30 -6 0 -31 -21 -56 -47 -34 -38
-49 -65 -68 -128 -14 -44 -25 -86 -26 -93 -1 -7 24 -29 56 -49 l57 -36 25 23
c14 13 25 29 25 35 0 7 9 20 20 30 25 23 26 52 1 60 -41 13 -44 30 -12 82 50
81 90 183 73 183 -5 0 -26 -13 -47 -30z"/>
<path d="M1804 1495 c-9 -25 -14 -48 -11 -51 3 -3 28 8 57 24 l52 30 -30 21
c-17 11 -35 21 -40 21 -6 0 -18 -20 -28 -45z"/>
<path d="M1680 1230 c-258 -145 -597 -308 -830 -400 l-145 -57 1 -34 c1 -19 5
-45 9 -58 5 -16 5 -22 -2 -18 -6 4 -16 27 -23 52 -10 36 -17 45 -29 40 -33
-13 -126 -35 -148 -35 -29 0 -78 42 -71 61 3 9 56 35 118 58 80 31 109 46 99
52 -8 5 -30 7 -49 4 -19 -3 -48 -2 -63 3 -37 10 -201 -3 -351 -28 -65 -11
-136 -20 -157 -20 l-39 0 0 -425 0 -425 884 0 884 0 7 78 c3 42 15 116 26 164
l20 87 -30 28 c-45 42 -53 48 -89 62 -36 15 -65 49 -55 64 4 6 0 8 -10 4 -28
-11 -47 30 -47 103 0 86 18 143 97 314 36 78 85 187 108 244 42 100 42 102 20
102 -12 0 -35 2 -51 5 -21 4 -45 -3 -84 -25z m-315 -406 c-2 -12 -14 -24 -24
-27 -28 -7 -36 39 -17 89 8 21 17 48 22 59 9 25 27 -88 19 -121z"/>
<path d="M564 1065 c-7 -18 3 -35 22 -35 8 0 14 10 14 25 0 27 -27 35 -36 10z"/>
<path d="M2006 288 c-6 -17 -24 -147 -32 -225 l-7 -63 275 0 275 0 -28 107
c-16 60 -36 124 -44 143 -16 34 -17 35 -73 34 -31 -1 -78 -5 -103 -9 -35 -6
-55 -3 -83 10 -35 17 -37 17 -50 0 -10 -13 -17 -15 -32 -8 -35 19 -94 25 -98
11z"/>
</g>
</svg>
