<?xml version="1.0" standalone="no"?>
<!DOCTYPE svg PUBLIC "-//W3C//DTD SVG 20010904//EN"
 "http://www.w3.org/TR/2001/REC-SVG-20010904/DTD/svg10.dtd">
<svg version="1.0" xmlns="http://www.w3.org/2000/svg"
 width="480.000000pt" height="360.000000pt" viewBox="0 0 480.000000 360.000000"
 preserveAspectRatio="xMidYMid meet">
<metadata>
Created by potrace 1.16, written by Peter Selinger 2001-2019
</metadata>
<rect width="1" height="360" fill="#000000"/>
<rect x="479" width="1" height="360" fill="#000000"/>
<rect width="480" height="1" fill="#000000"/>
<rect y="359" width="480" height="1" fill="#000000"/>
<g transform="translate(0.000000,360.000000) scale(0.100000,-0.100000)"
fill="#000000" stroke="none">
<path d="M0 1800 l0 -1800 2400 0 2400 0 0 1800 0 1800 -1030 0 c-581 0 -1030
-4 -1030 -9 0 -5 7 -28 15 -51 20 -58 20 -233 -1 -313 -29 -112 -79 -189 -225
-343 -77 -82 -114 -142 -125 -198 l-7 -40 -23 50 c-12 27 -64 99 -115 159
-165 196 -236 299 -259 373 -26 83 -28 200 -6 295 9 38 16 70 16 73 0 2 -452
4 -1005 4 l-1005 0 0 -1800z m2340 681 c0 -4 9 -16 21 -27 19 -17 19 -19 3
-31 -16 -11 -13 -13 19 -13 76 0 145 -45 193 -128 29 -49 55 -62 122 -62 77 0
131 -20 281 -101 24 -13 59 -37 78 -54 32 -28 35 -35 40 -105 5 -62 3 -78 -11
-89 -13 -11 -22 -11 -45 -1 -36 14 -47 9 -56 -27 -18 -75 -84 -133 -149 -133
-20 0 -67 7 -103 17 l-67 16 -40 -45 c-23 -25 -60 -58 -83 -73 -24 -15 -43
-30 -43 -32 0 -3 9 -16 20 -30 19 -24 19 -49 -1 -38 -12 8 -11 0 5 -64 8 -29
23 -62 32 -72 12 -13 18 -36 18 -69 0 -48 1 -50 27 -50 42 0 62 26 55 71 -8
48 10 61 37 28 55 -68 -41 -176 -127 -143 -9 3 -32 39 -51 79 -34 72 -55 99
-55 73 -1 -30 45 -244 54 -249 5 -4 6 -26 3 -48 -6 -48 25 -182 73 -311 18
-47 41 -114 52 -149 11 -35 22 -69 24 -76 3 -7 -4 -15 -15 -18 -16 -4 -19 -11
-14 -45 5 -38 4 -41 -18 -40 -13 1 -57 1 -98 0 l-74 -2 6 -40 c3 -22 1 -43 -4
-46 -18 -11 -8 -47 21 -81 17 -18 30 -38 30 -43 0 -28 -103 -63 -124 -43 -4 5
-31 8 -59 8 l-52 0 0 70 c0 94 -13 114 -72 107 -35 -4 -50 0 -81 22 -21 14
-50 26 -65 26 -21 0 -33 9 -48 35 -15 25 -30 36 -55 41 -31 6 -34 9 -34 40 0
19 -5 42 -11 52 -17 28 9 106 90 265 103 203 131 282 130 364 0 37 -5 77 -10
88 -6 15 -8 8 -4 -25 2 -25 1 -36 -2 -25 l-6 20 -8 -20 c-15 -39 -10 26 12
144 14 74 18 115 11 120 -5 3 -12 15 -14 26 -3 17 -11 20 -43 17 -61 -4 -82 5
-136 55 l-50 47 -31 -19 c-31 -18 -32 -18 -50 4 -10 13 -15 27 -12 32 3 5 0
36 -6 69 -14 75 -3 98 89 193 76 79 145 132 212 163 46 22 47 23 63 96 19 88
43 129 91 160 19 13 35 29 35 36 0 22 2 27 13 40 6 8 12 24 12 35 1 12 2 37 3
56 l2 34 25 -37 c14 -20 25 -40 25 -45z"/>
<path d="M2280 2400 c-8 -5 -10 -10 -5 -10 6 0 17 5 25 10 8 5 11 10 5 10 -5
0 -17 -5 -25 -10z"/>
<path d="M3028 1977 c-39 -31 -36 -60 5 -75 18 -7 36 -12 40 -12 4 0 7 25 7
55 0 62 -9 67 -52 32z"/>
<path d="M2889 1855 c-68 -14 -156 -52 -177 -78 -11 -13 -1 -17 65 -32 75 -17
79 -17 113 1 38 21 80 76 80 105 0 11 -3 19 -7 18 -5 0 -38 -7 -74 -14z"/>
<path d="M1792 1715 c3 -30 8 -58 11 -61 13 -13 37 19 37 50 0 36 -8 50 -34
59 -17 7 -18 3 -14 -48z"/>
<path d="M2477 1722 c-8 -12 14 -92 25 -92 28 0 138 89 112 91 -5 0 -37 3 -71
5 -33 3 -64 1 -66 -4z"/>
<path d="M1930 1693 c-43 -8 -42 -19 6 -61 55 -49 96 -60 147 -39 36 16 63 50
52 67 -16 26 -135 45 -205 33z"/>
<path d="M2335 388 c-4 -9 -5 -33 -3 -54 2 -29 8 -40 22 -42 17 -4 18 0 12 44
-7 53 -22 77 -31 52z"/>
</g>
</svg>
