<?xml version="1.0" standalone="no"?>
<!DOCTYPE svg PUBLIC "-//W3C//DTD SVG 20010904//EN"
 "http://www.w3.org/TR/2001/REC-SVG-20010904/DTD/svg10.dtd">
<svg version="1.0" xmlns="http://www.w3.org/2000/svg"
 width="480.000000pt" height="360.000000pt" viewBox="0 0 480.000000 360.000000"
 preserveAspectRatio="xMidYMid meet">
<metadata>
Created by potrace 1.16, written by Peter Selinger 2001-2019
</metadata>
<rect width="1" height="360" fill="#000000"/>
<rect x="479" width="1" height="360" fill="#000000"/>
<rect width="480" height="1" fill="#000000"/>
<rect y="359" width="480" height="1" fill="#000000"/>
<g transform="translate(0.000000,360.000000) scale(0.100000,-0.100000)"
fill="#000000" stroke="none">
<path d="M2707 3473 c-19 -18 -3 -42 40 -65 62 -31 68 -55 16 -63 -51 -8 -140
-33 -183 -53 -110 -50 -161 -112 -180 -223 -6 -36 -14 -70 -18 -76 -11 -18
-123 -56 -167 -57 -35 -1 -42 -5 -57 -36 -21 -40 -24 -110 -6 -128 7 -7 22
-12 34 -12 17 0 23 -8 28 -32 4 -22 16 -39 36 -50 16 -9 36 -33 44 -52 12 -29
20 -36 43 -36 53 0 58 -10 62 -135 4 -152 -6 -281 -26 -300 -8 -8 -32 -15 -53
-15 -36 0 -121 -26 -163 -51 -37 -21 -172 -49 -236 -49 -36 0 -121 -7 -188
-15 -107 -12 -127 -12 -158 0 -38 16 -132 20 -154 6 -10 -6 -11 -13 -2 -29 26
-48 -71 -66 -194 -37 -32 8 -61 13 -63 11 -2 -2 3 -18 12 -34 18 -35 69 -69
129 -87 41 -12 42 -13 48 -66 19 -173 104 -269 237 -269 18 0 77 29 163 81
170 103 179 106 302 119 56 6 131 17 167 24 36 8 69 10 73 6 13 -12 -1 -46
-29 -77 -15 -17 -21 -30 -15 -36 5 -5 7 -49 4 -101 -5 -80 -3 -97 15 -133 12
-23 36 -52 54 -66 l32 -26 -18 -93 c-10 -57 -15 -109 -10 -135 5 -35 3 -44
-15 -59 -20 -18 -21 -26 -21 -284 0 -337 -20 -598 -56 -722 -5 -17 26 -18 551
-18 l557 0 -7 28 c-29 115 -49 291 -36 322 10 25 10 24 10 -7 1 -22 8 -36 21
-43 11 -6 20 -18 20 -27 0 -14 2 -14 15 3 8 10 15 26 15 35 0 8 16 46 36 85
l36 69 -5 -85 c-4 -80 -3 -83 10 -50 29 75 34 78 29 15 l-4 -60 18 41 c10 23
33 93 50 155 42 145 50 292 26 452 -19 126 -19 140 -6 132 6 -4 7 6 4 27 l-6
33 31 -35 32 -35 -6 45 c-3 25 -20 85 -36 135 -27 81 -29 94 -19 132 14 47 3
93 -34 153 -12 19 -32 58 -45 86 l-23 50 97 162 c112 186 113 195 37 238 -26
15 -84 49 -128 76 l-82 49 -8 142 c-4 78 -7 172 -5 208 2 44 -2 76 -12 95 -25
48 -48 181 -41 237 13 113 -41 264 -124 344 -56 55 -119 92 -202 120 -50 16
-68 28 -79 50 -7 15 -23 38 -34 51 -32 34 -159 67 -180 45z m-80 -1154 c29
-18 53 -62 53 -95 0 -13 -80 -54 -105 -54 -12 0 -25 82 -25 163 0 39 0 39 23
23 12 -9 36 -26 54 -37z"/>
</g>
</svg>
