<?xml version="1.0" standalone="no"?>
<!DOCTYPE svg PUBLIC "-//W3C//DTD SVG 20010904//EN"
 "http://www.w3.org/TR/2001/REC-SVG-20010904/DTD/svg10.dtd">
<svg version="1.0" xmlns="http://www.w3.org/2000/svg"
 width="480.000000pt" height="360.000000pt" viewBox="0 0 480.000000 360.000000"
 preserveAspectRatio="xMidYMid meet">
<metadata>
Created by potrace 1.16, written by Peter Selinger 2001-2019
</metadata>
<rect width="1" height="360" fill="#000000"/>
<rect x="479" width="1" height="360" fill="#000000"/>
<rect width="480" height="1" fill="#000000"/>
<rect y="359" width="480" height="1" fill="#000000"/>
<g transform="translate(0.000000,360.000000) scale(0.100000,-0.100000)"
fill="#000000" stroke="none">
<path d="M2418 3069 c-16 -9 -18 -26 -18 -122 0 -62 -7 -166 -15 -232 -7 -66
-19 -174 -25 -240 -14 -159 -20 -195 -34 -195 -29 -1 -37 -16 -27 -58 5 -23 5
-44 1 -47 -11 -7 -9 -77 2 -92 13 -17 -68 -564 -93 -630 -5 -13 -9 -40 -9 -58
0 -24 -6 -38 -20 -45 -13 -7 -20 -20 -19 -38 1 -41 -11 -106 -21 -116 -18 -18
-11 -43 15 -54 20 -9 24 -17 20 -39 -3 -15 -14 -104 -25 -198 -11 -93 -25
-197 -30 -230 -5 -33 -14 -116 -20 -185 -8 -81 -18 -139 -31 -167 -10 -23 -19
-49 -19 -58 0 -8 -11 -42 -25 -74 -13 -33 -29 -81 -35 -108 -6 -26 -13 -56
-16 -65 -5 -16 5 -18 106 -18 l112 0 -3 113 c-1 61 1 131 6 155 5 28 4 42 -3
42 -6 0 -12 -6 -15 -12 -2 -7 -8 3 -11 22 -4 21 1 74 13 137 11 56 17 110 14
121 -4 18 12 191 40 427 l12 100 30 0 30 0 -3 -135 c-3 -119 8 -270 25 -337 5
-21 9 -22 72 -18 58 4 96 11 234 41 15 4 27 5 27 3 0 -5 -29 -112 -73 -274
-32 -114 -77 -334 -77 -372 0 -11 78 -13 418 -13 l417 0 11 24 c7 16 9 50 3
103 -8 89 -19 130 -47 176 -26 42 -27 52 -19 182 4 66 2 195 -7 325 -12 184
-17 226 -40 289 -15 43 -22 77 -17 81 5 3 13 30 16 60 4 30 20 120 36 200 36
183 50 382 36 510 -5 52 -11 163 -11 245 -1 135 -4 155 -25 205 -38 87 -86
146 -139 172 -70 34 -192 32 -283 -6 -74 -30 -142 -83 -165 -127 -27 -54 -71
-199 -55 -186 12 10 13 7 9 -20 -2 -17 -2 -31 1 -31 14 4 96 -87 93 -102 -1
-9 18 -39 43 -66 24 -27 45 -51 45 -54 0 -3 -12 -5 -27 -6 -16 0 -39 -2 -53
-5 -21 -3 -26 1 -38 36 -15 48 -35 65 -78 65 -36 0 -53 18 -95 104 -13 27 -40
60 -59 74 -19 14 -38 29 -42 32 -13 10 58 555 88 671 18 74 18 85 -6 109 -22
22 -73 26 -102 9z m39 -1030 l31 -10 -34 -52 c-45 -70 -74 -107 -84 -107 -6 0
4 68 25 158 6 25 18 27 62 11z m-50 -518 c36 -34 72 -61 80 -61 18 0 66 25
120 61 23 16 43 29 45 29 2 0 2 -15 0 -32 -2 -24 4 -44 23 -72 19 -28 29 -60
36 -117 5 -44 7 -84 4 -88 -5 -9 -100 9 -249 47 -43 11 -83 19 -90 16 -18 -6
-91 41 -87 57 2 8 7 57 12 109 13 148 32 225 37 153 3 -37 10 -49 69 -102z"/>
</g>
</svg>
