<?xml version="1.0" standalone="no"?>
<!DOCTYPE svg PUBLIC "-//W3C//DTD SVG 20010904//EN"
 "http://www.w3.org/TR/2001/REC-SVG-20010904/DTD/svg10.dtd">
<svg version="1.0" xmlns="http://www.w3.org/2000/svg"
 width="480.000000pt" height="360.000000pt" viewBox="0 0 480.000000 360.000000"
 preserveAspectRatio="xMidYMid meet">
<metadata>
Created by potrace 1.16, written by Peter Selinger 2001-2019
</metadata>
<rect width="1" height="360" fill="#000000"/>
<rect x="479" width="1" height="360" fill="#000000"/>
<rect width="480" height="1" fill="#000000"/>
<rect y="359" width="480" height="1" fill="#000000"/>
<g transform="translate(0.000000,360.000000) scale(0.100000,-0.100000)"
fill="#000000" stroke="none">
<path d="M0 2585 c0 -587 4 -1015 9 -1015 17 0 196 123 271 186 41 34 115 103
165 153 49 50 96 91 103 91 7 0 39 -12 70 -26 31 -14 112 -48 179 -75 67 -27
189 -82 271 -123 145 -74 240 -106 315 -106 44 0 171 25 238 47 42 13 52 13
100 -1 98 -29 99 -29 184 94 81 117 112 144 226 198 37 18 72 38 79 46 18 22
-5 83 -46 124 l-34 33 -1 -63 c0 -71 -17 -129 -19 -68 l-1 35 -14 -30 c-13
-30 -13 -29 -14 30 -2 91 -17 99 -25 13 -8 -84 -26 -117 -26 -47 0 41 -33 189
-47 212 -3 5 -9 3 -13 -4 -6 -8 -14 0 -25 27 l-16 39 -19 -25 -20 -25 0 33 c0
34 -9 39 -42 21 -33 -18 -32 -3 6 47 20 26 36 51 36 55 0 13 -34 11 -47 -2 -8
-8 -20 -6 -43 6 -18 9 -41 15 -51 12 -10 -3 -30 4 -44 15 l-26 20 74 71 c40
40 81 90 91 111 16 35 17 45 6 92 -8 31 -11 84 -8 130 11 167 85 275 215 313
90 26 129 30 194 19 36 -6 90 -5 161 3 94 11 118 10 184 -4 122 -26 199 -87
246 -194 18 -41 22 -44 30 -27 31 58 83 59 164 3 100 -69 145 -135 159 -236 4
-26 14 -63 21 -82 19 -45 18 -48 -15 -65 -21 -11 -31 -25 -36 -53 -4 -21 -11
-43 -17 -50 -6 -8 -3 -39 11 -95 11 -46 25 -122 31 -169 10 -74 9 -94 -5 -145
-29 -100 -75 -197 -110 -229 -18 -16 -35 -39 -38 -50 -3 -13 -5 -8 -6 13 -1
19 -5 31 -11 27 -6 -3 -10 2 -11 12 0 14 -3 12 -12 -7 -11 -25 -11 -25 -14 10
-6 59 -14 69 -28 36 -12 -28 -12 -27 -19 31 -4 34 -16 91 -27 129 -16 54 -19
91 -17 169 l3 100 -25 -3 c-33 -5 -34 -6 -20 -33 11 -20 10 -21 -10 -16 -19 5
-21 3 -16 -21 l6 -27 -30 32 -30 33 -16 -25 c-9 -14 -20 -22 -25 -20 -10 7
-29 -59 -39 -135 -6 -43 -9 -50 -15 -33 -10 33 -23 19 -31 -32 -7 -47 -23 -62
-25 -22 -1 21 -1 21 -9 -3 -7 -22 -8 -21 -11 15 -2 22 -2 51 -2 65 1 14 -1 36
-3 49 -5 23 -6 22 -40 -15 -46 -52 -69 -101 -54 -119 6 -8 57 -31 112 -52 125
-47 178 -92 248 -209 34 -56 57 -84 70 -84 10 0 47 9 82 20 59 18 67 18 113 4
28 -9 102 -18 165 -21 144 -7 194 8 365 110 140 82 458 237 487 237 12 0 53
-31 97 -73 148 -141 293 -242 482 -337 l79 -40 0 990 0 990 -2400 0 -2400 0 0
-1015z"/>
<path d="M2856 2542 c-33 -70 -31 -107 6 -135 15 -12 31 -17 35 -14 4 4 9 47
11 95 3 68 1 90 -10 100 -12 10 -19 2 -42 -46z"/>
<path d="M2622 2120 c0 -14 2 -19 5 -12 2 6 2 18 0 25 -3 6 -5 1 -5 -13z"/>
<path d="M4035 1915 c-44 -25 -84 -46 -88 -48 -5 -1 -9 -32 -8 -68 1 -108 -18
-158 -80 -215 -29 -27 -92 -86 -139 -131 -92 -88 -158 -143 -171 -143 -15 0
-10 25 20 101 16 41 48 124 71 184 23 61 51 125 61 144 11 18 18 35 15 38 -2
2 -31 -15 -64 -39 -63 -46 -72 -63 -76 -148 -3 -59 -22 -122 -43 -146 -10 -11
-52 -46 -93 -79 -41 -33 -84 -67 -95 -76 -61 -51 -134 -108 -158 -123 -50 -34
-46 -20 121 337 25 53 48 97 51 97 3 0 20 12 36 26 l30 25 -94 -4 c-107 -5
-123 -15 -114 -72 5 -31 -18 -113 -40 -142 -5 -7 -49 -41 -99 -75 -146 -102
-141 -97 -135 -132 34 -192 49 -260 71 -312 40 -98 140 -501 197 -796 l23
-118 783 0 783 0 0 556 0 555 -32 -22 c-18 -12 -37 -27 -43 -33 -18 -21 -157
-126 -166 -126 -37 0 0 102 144 390 13 26 38 55 60 69 35 23 37 27 37 76 l0
52 -82 36 -83 36 -17 -20 c-13 -15 -15 -26 -8 -39 14 -27 -21 -145 -52 -173
-14 -12 -61 -51 -104 -86 -44 -36 -83 -69 -89 -75 -5 -6 -35 -31 -65 -56 -30
-25 -56 -48 -58 -52 -5 -11 -40 -10 -47 2 -3 5 6 37 21 72 40 95 47 113 49
118 3 8 55 121 86 186 24 52 36 65 76 85 27 13 50 27 51 32 2 4 14 7 27 7 44
0 33 25 -27 59 -32 19 -86 56 -118 83 -74 59 -91 62 -83 12 3 -19 0 -60 -7
-89 -15 -61 -11 -57 -288 -317 -40 -38 -77 -68 -82 -68 -17 0 -22 27 -10 50 6
12 13 29 15 38 2 9 9 31 16 47 7 17 13 32 14 35 1 3 7 18 13 33 7 16 12 34 12
41 0 6 4 16 9 22 5 5 23 49 42 98 29 78 38 93 78 122 25 19 60 39 76 45 17 6
38 22 47 34 17 23 17 24 -28 74 -25 28 -51 51 -57 50 -7 0 -48 -20 -92 -44z"/>
<path d="M507 1828 c-44 -51 -44 -52 -28 -79 9 -16 27 -33 41 -38 14 -4 48
-27 76 -49 48 -38 54 -47 79 -129 15 -48 45 -141 66 -207 38 -115 47 -166 31
-166 -4 0 -85 78 -179 173 l-171 172 -7 67 c-4 37 -4 79 -1 93 10 39 -9 31
-97 -41 -44 -36 -98 -75 -119 -87 -39 -23 -52 -57 -20 -57 9 -1 44 -20 76 -43
l60 -42 72 -215 c75 -220 82 -250 63 -250 -6 0 -63 51 -127 113 -65 63 -142
138 -174 166 -51 48 -57 58 -68 116 -7 35 -9 77 -6 93 9 39 -14 60 -49 44
l-25 -12 0 -173 c0 -186 2 -198 74 -405 27 -76 32 -112 18 -112 -5 0 -27 16
-50 36 l-42 36 0 -416 0 -416 869 0 870 0 29 78 c17 42 46 138 66 212 41 152
71 236 128 360 30 65 38 93 34 119 -3 18 -1 68 5 110 10 79 2 249 -11 234 -4
-4 -18 -39 -30 -76 -35 -107 -65 -139 -233 -239 -266 -159 -345 -194 -503
-224 -219 -41 -215 -41 -287 -6 -40 20 -86 56 -130 101 -79 81 -90 114 -58
160 l22 31 30 -22 c16 -12 29 -27 29 -34 0 -20 31 -46 48 -39 8 3 24 -2 34
-12 15 -14 37 -18 98 -18 43 0 82 4 87 8 13 14 -18 25 -57 20 -44 -6 -59 16
-35 53 20 31 73 40 160 27 73 -11 106 -22 141 -48 20 -14 28 -10 160 83 76 54
168 118 204 143 36 25 66 52 68 61 2 13 -173 259 -198 278 -31 23 -48 145 -27
187 25 47 8 63 -67 63 -35 0 -85 -3 -111 -7 l-49 -6 46 -41 c46 -40 48 -45
106 -231 33 -104 65 -203 72 -219 8 -21 8 -32 0 -40 -14 -14 -326 301 -345
348 -19 47 -28 123 -16 145 27 49 -24 99 -176 176 -71 35 -75 32 -20 -17 l48
-43 70 -220 c38 -121 69 -223 69 -227 0 -27 -44 11 -191 163 -163 167 -167
172 -177 227 -6 32 -10 83 -8 115 l3 57 -95 45 c-52 25 -100 45 -107 45 -7 0
-33 -23 -58 -52z"/>
<path d="M2993 1633 c-30 -3 -46 -11 -57 -29 -9 -13 -23 -24 -31 -24 -8 0 -15
-6 -15 -12 0 -21 39 -78 52 -78 7 0 22 19 33 42 11 24 34 52 51 63 18 11 40
25 50 32 17 11 16 12 -11 11 -16 -1 -49 -3 -72 -5z"/>
<path d="M1630 1594 c49 -33 100 -88 111 -121 l10 -33 24 28 c23 27 23 27 4
48 -10 11 -19 34 -19 51 0 36 -16 43 -100 43 -54 0 -54 0 -30 -16z"/>
<path d="M2905 1431 c-3 -5 -1 -12 4 -15 5 -3 11 1 15 9 6 16 -9 21 -19 6z"/>
<path d="M1761 1394 c0 -11 3 -14 6 -6 3 7 2 16 -1 19 -3 4 -6 -2 -5 -13z"/>
<path d="M2776 903 c4 -38 7 -89 6 -115 -1 -36 8 -67 39 -135 61 -131 86 -198
113 -298 67 -251 92 -298 84 -152 -5 73 -14 104 -80 272 -97 245 -123 323
-143 418 -9 42 -19 77 -22 77 -3 0 -2 -30 3 -67z"/>
</g>
</svg>
