<?xml version="1.0" standalone="no"?>
<!DOCTYPE svg PUBLIC "-//W3C//DTD SVG 20010904//EN"
 "http://www.w3.org/TR/2001/REC-SVG-20010904/DTD/svg10.dtd">
<svg version="1.0" xmlns="http://www.w3.org/2000/svg"
 width="480.000000pt" height="360.000000pt" viewBox="0 0 480.000000 360.000000"
 preserveAspectRatio="xMidYMid meet">
<metadata>
Created by potrace 1.16, written by Peter Selinger 2001-2019
</metadata>
<rect width="1" height="360" fill="#000000"/>
<rect x="479" width="1" height="360" fill="#000000"/>
<rect width="480" height="1" fill="#000000"/>
<rect y="359" width="480" height="1" fill="#000000"/>
<g transform="translate(0.000000,360.000000) scale(0.100000,-0.100000)"
fill="#000000" stroke="none">
<path d="M363 3448 c6 -179 33 -564 41 -577 16 -25 -10 -43 -128 -90 -27 -11
-28 -14 -21 -59 3 -26 10 -75 13 -109 4 -34 13 -68 20 -75 9 -9 12 -8 12 6 0
10 4 14 12 10 8 -5 9 -2 5 9 -3 9 -2 19 3 22 4 3 11 23 15 44 3 22 15 47 25
56 18 16 18 14 13 -42 l-4 -58 67 -79 c57 -67 65 -80 51 -88 -10 -5 -24 -23
-33 -39 -8 -17 -30 -37 -47 -45 -18 -8 -39 -18 -47 -23 -8 -5 -26 -14 -40 -20
-14 -6 -32 -15 -40 -21 -8 -5 -27 -14 -42 -20 -20 -7 -28 -16 -28 -34 0 -20 6
-25 37 -31 20 -3 45 -17 55 -30 27 -35 81 -50 120 -34 19 8 32 9 36 2 74 -109
144 -167 199 -166 39 1 65 21 100 76 13 21 35 43 49 49 32 15 13 28 -42 28
-46 0 -54 11 -54 82 0 34 4 40 41 58 56 29 142 85 156 102 19 23 -17 61 -62
64 -21 2 -40 5 -42 8 -3 2 3 18 12 36 15 29 27 38 107 84 28 16 30 20 15 25
-17 6 -16 9 7 41 43 58 66 113 65 155 0 22 -3 34 -6 28 -2 -7 -9 -13 -15 -13
-6 0 -3 12 7 26 19 30 13 43 -12 23 -18 -15 -18 -18 4 39 5 14 4 15 -8 6 -8
-7 -26 -11 -41 -9 -16 2 -30 -1 -34 -6 -8 -13 -42 -11 -47 4 -3 8 -10 5 -21
-10 -10 -13 -26 -28 -38 -34 -19 -10 -20 -9 -13 23 11 50 11 50 -1 55 -6 2
-28 -19 -48 -48 -21 -28 -39 -49 -42 -47 -2 3 3 27 11 54 9 31 11 52 5 58 -16
16 -12 37 19 101 35 74 83 138 182 243 94 99 147 177 146 217 0 17 4 40 8 53
6 18 4 22 -13 22 -11 0 -25 7 -32 15 -8 10 -30 15 -69 14 -31 0 -90 4 -131 9
-41 6 -162 11 -268 11 l-194 1 5 -152z"/>
<path d="M2410 1800 l0 -1800 809 0 809 0 15 37 c18 46 42 166 57 286 6 48 20
117 31 153 19 62 18 104 -2 104 -5 0 -35 -13 -67 -29 -121 -60 -137 -53 -136
59 1 44 -3 80 -7 80 -5 0 -7 12 -3 28 l6 27 -23 -32 c-38 -52 -46 -41 -21 26
4 11 -1 12 -20 8 -19 -5 -28 -2 -34 11 -9 22 -8 29 23 142 32 118 52 149 143
231 71 63 142 171 121 183 -5 3 5 21 22 39 18 18 58 61 90 96 54 58 61 63 90
57 18 -4 53 -6 78 -6 52 1 74 -17 65 -53 -3 -14 4 -41 19 -72 14 -26 25 -58
25 -70 0 -24 -28 -55 -50 -55 -7 0 -28 -18 -47 -40 -19 -22 -41 -40 -49 -40
-23 0 -16 -26 11 -44 38 -25 115 -134 115 -163 0 -36 49 -115 67 -109 8 3 21
6 29 6 19 0 35 41 22 58 -6 6 -7 12 -2 12 4 0 3 5 -3 11 -17 17 -4 51 18 44
12 -4 19 -1 19 7 1 30 29 -40 30 -73 0 -20 7 -53 15 -72 19 -47 19 -118 0
-164 -37 -88 -142 -181 -191 -169 -26 7 -26 6 -20 -31 4 -21 29 -106 56 -189
27 -83 55 -183 62 -223 l12 -71 103 0 103 0 0 1800 0 1800 -1195 0 -1195 0 0
-1800z"/>
<path d="M4248 890 c-10 -33 -13 -60 -8 -78 9 -33 17 -17 23 48 2 25 7 53 11
63 5 9 4 17 0 17 -5 0 -16 -23 -26 -50z"/>
</g>
</svg>
