<?xml version="1.0" standalone="no"?>
<!DOCTYPE svg PUBLIC "-//W3C//DTD SVG 20010904//EN"
 "http://www.w3.org/TR/2001/REC-SVG-20010904/DTD/svg10.dtd">
<svg version="1.0" xmlns="http://www.w3.org/2000/svg"
 width="480.000000pt" height="360.000000pt" viewBox="0 0 480.000000 360.000000"
 preserveAspectRatio="xMidYMid meet">
<metadata>
Created by potrace 1.16, written by Peter Selinger 2001-2019
</metadata>
<rect width="1" height="360" fill="#000000"/>
<rect x="479" width="1" height="360" fill="#000000"/>
<rect width="480" height="1" fill="#000000"/>
<rect y="359" width="480" height="1" fill="#000000"/>
<g transform="translate(0.000000,360.000000) scale(0.100000,-0.100000)"
fill="#000000" stroke="none">
<path d="M0 1800 l0 -1800 2400 0 2400 0 0 1800 0 1800 -2400 0 -2400 0 0
-1800z m2504 1086 c19 -8 69 -43 112 -78 72 -59 75 -63 50 -66 -16 -2 -45 7
-71 22 -55 32 -75 33 -75 3 0 -38 21 -54 105 -82 44 -15 86 -32 93 -38 13 -10
7 -47 -11 -58 -5 -4 14 -14 42 -24 29 -9 51 -23 51 -31 0 -8 7 -14 15 -14 8 0
15 -5 15 -11 0 -7 8 -18 18 -25 15 -12 12 -12 -17 -4 -31 9 -32 8 -19 -8 30
-34 31 -45 4 -27 -24 16 -26 16 -20 1 6 -16 0 -17 -60 -11 -50 4 -66 2 -60 -6
5 -9 -3 -10 -27 -6 -53 10 -59 0 -36 -60 11 -29 25 -53 31 -53 6 1 23 18 37
39 19 26 37 40 59 45 18 3 35 4 38 2 2 -3 7 -36 9 -73 3 -37 10 -73 15 -80 5
-6 63 -19 130 -29 78 -12 122 -23 125 -31 9 -23 -2 -25 -65 -13 -90 18 -103
11 -48 -25 l47 -31 122 23 c170 31 367 30 367 -3 0 -8 6 -14 13 -14 7 0 13 -9
14 -21 3 -32 51 -72 79 -65 17 5 22 3 18 -7 -3 -8 7 -19 23 -26 15 -7 22 -15
17 -19 -16 -11 -24 -40 -12 -44 18 -6 18 -38 0 -38 -11 0 -13 -3 -6 -8 16 -10
13 -42 -4 -42 -12 0 -12 -2 -1 -17 8 -10 9 -14 2 -10 -6 4 -14 3 -18 -3 -4 -6
-16 -5 -35 5 -36 19 -41 19 -34 1 4 -9 -8 -20 -35 -32 -30 -13 -38 -21 -30
-30 16 -19 -51 -11 -84 11 -39 25 -45 12 -8 -16 17 -13 31 -27 31 -32 0 -5
-23 9 -51 32 -54 43 -90 53 -292 85 -54 9 -116 25 -139 37 -44 22 -178 35
-178 17 0 -5 5 -29 11 -53 18 -71 -27 -117 -65 -64 -14 21 -15 21 -30 -10 -31
-60 -59 -31 -61 64 -1 49 -2 49 -41 58 -24 5 -76 4 -135 -3 -112 -14 -144 -5
-136 36 2 13 -1 28 -7 33 -6 5 -110 17 -230 25 -210 16 -274 16 -187 1 22 -4
45 -13 52 -21 6 -8 17 -14 25 -14 33 0 62 -19 58 -38 -5 -17 -17 -15 -172 33
-142 44 -169 50 -183 39 -28 -25 -62 -21 -76 8 -12 24 -22 28 -76 34 -49 6
-68 13 -89 35 -59 58 -37 67 127 49 200 -21 488 -49 571 -55 l90 -7 35 39 c19
21 54 74 78 117 37 68 41 82 32 103 -6 13 -11 41 -11 63 0 53 -16 90 -38 90
-29 0 -62 29 -62 55 0 14 12 33 30 47 l30 24 -84 28 c-105 35 -156 68 -156
101 0 18 7 26 26 31 19 5 22 9 12 15 -11 7 -10 11 2 19 21 14 38 12 69 -6 42
-25 104 -4 135 44 30 48 48 63 89 72 51 12 85 11 121 -4z"/>
<path d="M2351 2522 c-7 -13 -4 -24 9 -41 l18 -24 11 21 c8 16 9 28 1 42 -13
25 -26 25 -39 2z"/>
<path d="M2399 2243 c-11 -27 -31 -61 -43 -78 -37 -48 -59 -96 -49 -106 11
-11 135 80 158 115 14 21 13 27 -11 69 -14 26 -28 47 -30 47 -3 0 -14 -21 -25
-47z"/>
<path d="M2770 2170 c0 -15 79 -50 110 -49 20 0 14 6 -30 29 -59 31 -80 36
-80 20z"/>
</g>
</svg>
