<?xml version="1.0" standalone="no"?>
<!DOCTYPE svg PUBLIC "-//W3C//DTD SVG 20010904//EN"
 "http://www.w3.org/TR/2001/REC-SVG-20010904/DTD/svg10.dtd">
<svg version="1.0" xmlns="http://www.w3.org/2000/svg"
 width="480.000000pt" height="360.000000pt" viewBox="0 0 480.000000 360.000000"
 preserveAspectRatio="xMidYMid meet">
<metadata>
Created by potrace 1.16, written by Peter Selinger 2001-2019
</metadata>
<rect width="1" height="360" fill="#000000"/>
<rect x="479" width="1" height="360" fill="#000000"/>
<rect width="480" height="1" fill="#000000"/>
<rect y="359" width="480" height="1" fill="#000000"/>
<g transform="translate(0.000000,360.000000) scale(0.100000,-0.100000)"
fill="#000000" stroke="none">
<path d="M0 1800 l0 -1800 1009 0 1009 0 -5 147 c-6 172 36 685 68 841 10 51
21 150 24 220 4 70 11 145 16 167 8 30 6 60 -5 115 -8 41 -17 125 -21 186 -7
119 -11 142 -46 244 l-23 65 23 110 c40 201 90 305 179 372 24 18 40 33 35 33
-5 0 -14 -5 -20 -11 -10 -10 -23 -4 -133 61 -8 5 -23 11 -33 14 -16 5 -16 8
-3 34 21 41 8 55 -45 50 -49 -5 -95 14 -105 45 -4 14 -9 16 -20 6 -12 -10 -14
3 -14 82 0 118 12 162 60 219 l38 45 -19 35 c-28 53 -24 65 26 84 l44 17 -19
52 c-29 75 -26 83 20 47 l40 -32 -6 61 c-4 38 -3 61 3 61 31 0 175 -113 218
-171 13 -18 43 -34 86 -48 136 -44 228 -197 320 -530 14 -51 49 -126 109 -231
158 -277 163 -292 190 -580 5 -58 15 -144 21 -193 6 -48 8 -104 4 -124 l-7
-37 -19 24 -18 25 6 -52 c9 -80 -16 -70 -60 25 -19 42 -38 86 -41 97 -4 11
-15 31 -26 45 l-20 25 6 -35 c4 -19 15 -62 25 -95 10 -33 19 -64 19 -69 0 -22
-35 24 -67 88 -40 80 -55 77 -23 -4 11 -29 19 -54 18 -56 -9 -8 -28 17 -57 74
-17 34 -36 60 -41 57 -12 -8 -13 -49 -2 -73 5 -9 18 -37 30 -61 12 -24 20 -46
18 -48 -2 -3 -20 16 -39 42 -20 25 -38 41 -42 35 -3 -5 -3 -14 0 -20 3 -5 1
-10 -4 -10 -18 0 -12 -38 14 -90 36 -71 43 -114 49 -320 4 -102 11 -284 16
-405 8 -200 19 -542 20 -622 l0 -33 1010 0 1010 0 0 1800 0 1800 -2400 0
-2400 0 0 -1800z"/>
<path d="M2122 1666 c3 -106 8 -123 27 -111 26 15 2 215 -25 215 -4 0 -5 -47
-2 -104z"/>
</g>
</svg>
