<?xml version="1.0" standalone="no"?>
<!DOCTYPE svg PUBLIC "-//W3C//DTD SVG 20010904//EN"
 "http://www.w3.org/TR/2001/REC-SVG-20010904/DTD/svg10.dtd">
<svg version="1.0" xmlns="http://www.w3.org/2000/svg"
 width="480.000000pt" height="360.000000pt" viewBox="0 0 480.000000 360.000000"
 preserveAspectRatio="xMidYMid meet">
<metadata>
Created by potrace 1.16, written by Peter Selinger 2001-2019
</metadata>
<rect width="1" height="360" fill="#000000"/>
<rect x="479" width="1" height="360" fill="#000000"/>
<rect width="480" height="1" fill="#000000"/>
<rect y="359" width="480" height="1" fill="#000000"/>
<g transform="translate(0.000000,360.000000) scale(0.100000,-0.100000)"
fill="#000000" stroke="none">
<path d="M0 1800 l0 -1800 530 0 c292 0 530 2 530 5 0 3 -36 83 -79 178 -89
193 -121 281 -121 330 0 43 44 128 119 234 40 55 61 96 66 124 5 31 19 55 47
83 21 22 41 51 44 65 13 64 38 112 79 153 46 47 158 107 235 126 25 7 85 32
133 56 l89 45 -2 212 c-1 185 -3 219 -21 273 -29 86 -46 193 -45 281 l1 75
-36 0 c-81 0 -254 31 -294 53 -34 19 -47 21 -87 13 -27 -5 -51 -6 -55 -3 -10
10 127 185 201 256 37 35 66 64 64 65 -2 1 -34 22 -73 48 -76 51 -142 113
-128 121 4 3 53 13 108 22 55 9 103 20 107 23 4 4 -2 59 -12 122 -24 138 -25
180 -6 180 7 0 75 -65 150 -144 l136 -144 38 19 c57 29 173 46 433 64 305 22
401 14 457 -38 19 -18 26 -19 40 -9 9 7 26 16 37 21 11 5 46 55 78 110 73 129
107 184 112 179 2 -2 6 -75 9 -161 l4 -157 31 -35 c16 -19 35 -52 41 -74 9
-36 13 -39 53 -45 50 -8 245 -61 254 -69 3 -3 2 -11 -2 -18 -9 -14 -197 -103
-240 -114 l-30 -7 45 -21 c58 -28 64 -57 18 -85 -41 -24 -129 -54 -230 -77
l-76 -18 15 -24 c14 -21 15 -42 7 -146 -6 -84 -5 -165 3 -262 19 -222 28 -605
15 -605 -7 0 -12 8 -12 18 0 9 -5 24 -10 32 -7 11 -10 5 -10 -22 0 -35 4 -40
70 -84 116 -76 172 -157 240 -349 51 -146 44 -240 -25 -315 -18 -19 -25 -42
-30 -95 -10 -107 -8 -239 6 -357 l13 -108 883 0 883 0 0 1800 0 1800 -2400 0
-2400 0 0 -1800z"/>
<path d="M2240 1654 c-30 -7 -65 -11 -77 -9 -13 3 -35 7 -50 10 l-28 5 25 -14
c58 -32 129 -28 185 10 23 16 18 16 -55 -2z"/>
<path d="M1458 646 c-31 -6 -67 -21 -80 -32 -29 -27 -62 -44 -83 -44 -9 0 -36
-9 -60 -20 -41 -19 -44 -22 -34 -44 6 -13 43 -131 83 -262 l72 -239 66 -3 66
-3 0 158 c0 143 29 437 48 487 7 18 3 18 -78 2z"/>
</g>
</svg>
