<?xml version="1.0" standalone="no"?>
<!DOCTYPE svg PUBLIC "-//W3C//DTD SVG 20010904//EN"
 "http://www.w3.org/TR/2001/REC-SVG-20010904/DTD/svg10.dtd">
<svg version="1.0" xmlns="http://www.w3.org/2000/svg"
 width="480.000000pt" height="360.000000pt" viewBox="0 0 480.000000 360.000000"
 preserveAspectRatio="xMidYMid meet">
<metadata>
Created by potrace 1.16, written by Peter Selinger 2001-2019
</metadata>
<rect width="1" height="360" fill="#000000"/>
<rect x="479" width="1" height="360" fill="#000000"/>
<rect width="480" height="1" fill="#000000"/>
<rect y="359" width="480" height="1" fill="#000000"/>
<g transform="translate(0.000000,360.000000) scale(0.100000,-0.100000)"
fill="#000000" stroke="none">
<path d="M1596 3573 c16 -57 12 -286 -6 -395 -30 -174 -123 -412 -198 -507
-15 -18 -31 -41 -37 -50 -38 -64 -272 -291 -301 -291 -6 0 -19 -9 -29 -20 -47
-52 -221 -127 -430 -186 -96 -27 -297 -37 -430 -20 -66 8 -130 18 -143 22
l-22 6 0 -1066 0 -1066 1313 0 1312 0 19 117 c27 175 41 228 112 437 44 132
75 246 99 366 85 435 96 500 86 518 -5 10 -15 56 -21 102 -7 57 -16 88 -27 95
-8 6 -29 19 -47 30 -68 44 -79 116 -30 204 13 24 24 46 24 48 0 9 -62 -9 -145
-43 -96 -39 -119 -36 -130 16 -8 34 -12 36 -43 14 -21 -14 -23 -14 -34 10 -11
25 -15 26 -98 26 -61 0 -142 11 -266 36 -99 20 -206 39 -239 43 -33 4 -70 12
-82 19 -28 15 -73 0 -80 -28 -8 -29 -23 -24 -23 7 l0 26 -23 -21 c-27 -26 -37
-28 -37 -7 0 9 -6 12 -16 8 -14 -5 -15 -1 -9 25 5 23 3 32 -6 32 -7 0 -3 10
10 24 45 48 150 59 262 27 42 -12 133 -23 245 -30 98 -7 191 -16 206 -21 29
-9 103 -3 131 12 9 5 17 18 17 28 0 24 3 24 41 5 29 -16 30 -15 40 14 6 16 16
32 24 34 7 3 46 -3 86 -14 88 -22 174 -24 248 -5 62 17 69 22 53 38 -18 18
-14 35 8 41 36 9 22 25 -17 20 -37 -4 -39 -3 -86 62 l-48 67 21 20 21 20 -26
14 c-15 8 -31 12 -35 9 -12 -7 -50 44 -50 66 0 11 -4 19 -9 19 -22 0 -17 45
12 104 l32 63 -37 69 c-40 72 -45 110 -17 127 19 12 261 -44 321 -74 21 -11
50 -19 65 -19 42 -1 103 -32 154 -81 55 -52 87 -127 101 -239 7 -51 21 -99 46
-150 36 -74 36 -78 40 -218 l4 -142 34 -26 c18 -15 43 -41 54 -60 20 -31 20
-35 5 -65 -11 -20 -13 -34 -7 -38 16 -10 18 -46 4 -63 -10 -12 -6 -28 23 -90
l34 -75 10 -224 c6 -123 15 -242 20 -264 6 -22 11 -75 11 -117 0 -42 5 -80 10
-83 16 -10 12 -25 -6 -25 -9 0 -23 8 -30 18 -19 25 -18 -4 1 -42 19 -37 19
-38 -7 -34 -17 2 -28 16 -41 53 l-18 50 6 -45 c8 -59 42 -153 111 -303 117
-254 146 -322 175 -411 16 -49 29 -98 29 -108 0 -17 24 -18 455 -18 l455 0 0
1800 0 1800 -1606 0 -1606 0 8 -27z"/>
</g>
</svg>
