<?xml version="1.0" standalone="no"?>
<!DOCTYPE svg PUBLIC "-//W3C//DTD SVG 20010904//EN"
 "http://www.w3.org/TR/2001/REC-SVG-20010904/DTD/svg10.dtd">
<svg version="1.0" xmlns="http://www.w3.org/2000/svg"
 width="480.000000pt" height="360.000000pt" viewBox="0 0 480.000000 360.000000"
 preserveAspectRatio="xMidYMid meet">
<metadata>
Created by potrace 1.16, written by Peter Selinger 2001-2019
</metadata>
<rect width="1" height="360" fill="#000000"/>
<rect x="479" width="1" height="360" fill="#000000"/>
<rect width="480" height="1" fill="#000000"/>
<rect y="359" width="480" height="1" fill="#000000"/>
<g transform="translate(0.000000,360.000000) scale(0.100000,-0.100000)"
fill="#000000" stroke="none">
<path d="M0 3043 l0 -556 27 -56 c38 -79 97 -165 127 -184 52 -35 85 -20 182
83 l43 45 43 -41 c50 -48 214 -177 276 -217 104 -67 123 -60 196 77 30 56 62
125 71 154 10 28 21 52 25 52 5 0 44 -14 87 -31 98 -40 285 -87 378 -95 53 -5
79 -2 108 9 35 15 37 18 37 64 0 26 -8 75 -19 108 -23 75 -112 263 -157 331
-19 28 -34 58 -34 66 0 8 15 19 34 25 51 16 293 179 301 203 8 26 -20 71 -77
127 -80 76 -253 215 -295 236 -24 12 -43 25 -43 30 0 5 20 33 45 61 25 29 45
56 45 60 0 3 -315 6 -700 6 l-700 0 0 -557z"/>
<path d="M2710 3589 c-23 -9 -109 -24 -285 -49 -133 -19 -172 -30 -196 -56
-21 -23 -24 -35 -23 -102 1 -114 60 -318 147 -512 68 -151 237 -354 379 -454
91 -64 193 -116 229 -116 73 0 102 35 197 231 33 70 65 130 70 133 7 4 12 -64
14 -196 3 -232 4 -235 83 -273 87 -42 176 -58 340 -58 200 -1 316 23 470 97
61 29 134 71 163 93 226 171 432 431 432 544 0 79 -23 100 -265 240 -274 157
-380 237 -540 405 l-80 84 -555 0 c-344 -1 -565 -5 -580 -11z"/>
<path d="M3718 1853 c-37 -23 -198 -311 -198 -355 0 -24 -3 -23 -97 17 -129
54 -318 111 -434 131 -91 15 -112 16 -152 5 -48 -14 -51 -18 -63 -84 -8 -44
11 -118 59 -241 33 -81 147 -318 168 -347 17 -22 4 -49 -22 -49 -45 0 -358
-190 -379 -230 -20 -37 2 -73 104 -175 173 -173 271 -256 349 -295 15 -7 27
-18 27 -23 0 -5 -39 -53 -87 -106 l-87 -96 244 -3 c243 -2 244 -2 267 21 l23
22 -25 38 c-14 20 -30 37 -35 37 -6 0 -27 -16 -48 -35 -46 -41 -87 -58 -116
-49 -54 17 -60 79 -15 148 17 26 30 48 28 50 -2 2 -37 25 -78 50 -73 47 -102
73 -149 134 -21 27 -26 45 -26 93 -1 32 2 59 6 59 3 0 18 -20 32 -45 24 -41
80 -84 93 -71 3 3 -11 25 -31 49 -63 77 -103 196 -91 270 6 30 10 37 23 32 10
-4 27 -9 39 -11 l22 -4 -19 42 c-24 52 -25 78 -5 78 10 0 15 11 15 35 0 19 4
35 9 35 5 0 28 -19 51 -42 35 -37 40 -39 34 -18 -12 38 -10 83 3 87 7 2 33
-15 58 -38 52 -48 67 -46 35 5 -12 20 -18 36 -13 36 4 0 33 -20 63 -45 30 -24
56 -42 59 -39 3 2 -17 27 -44 54 -57 58 -45 65 37 24 73 -37 123 -80 158 -134
16 -26 48 -61 70 -79 22 -18 50 -51 61 -74 67 -131 116 -173 264 -227 119 -43
163 -66 202 -102 26 -25 59 -38 175 -69 79 -21 149 -39 156 -39 6 0 12 11 12
24 0 13 7 29 15 36 8 7 15 22 15 35 0 12 3 25 7 29 11 10 43 118 43 143 0 13
-16 40 -35 62 -19 21 -35 48 -35 60 0 26 33 61 58 61 26 0 62 -28 73 -57 6
-17 15 -23 31 -21 21 3 22 8 22 118 1 104 3 118 24 147 27 38 60 49 102 35
l30 -11 0 167 0 167 -49 -3 -49 -4 -27 85 c-15 47 -43 114 -63 149 -43 74
-123 158 -150 158 -28 0 -88 -43 -159 -113 l-62 -61 -73 70 c-40 39 -106 97
-146 130 -40 32 -96 78 -125 102 -83 69 -139 89 -179 65z"/>
<path d="M285 1797 c-63 -96 -129 -462 -98 -547 6 -19 12 -45 13 -56 0 -41 79
-180 144 -254 94 -108 93 -109 -55 -45 -113 48 -205 75 -256 75 l-33 0 0 -209
0 -208 77 -17 c207 -47 223 -53 223 -85 -1 -46 -135 -173 -257 -242 l-43 -24
0 -69 c0 -70 13 -95 48 -96 7 0 63 42 124 94 111 94 202 148 270 161 52 10 64
-15 73 -144 4 -57 9 -110 12 -118 8 -19 503 -19 503 0 0 15 -43 138 -84 236
-14 36 -26 66 -26 68 0 15 34 -8 103 -71 143 -130 220 -180 332 -215 l99 -31
306 0 c270 0 309 2 340 18 62 31 55 45 -104 200 -132 128 -304 276 -381 329
-91 62 -167 94 -257 109 -51 8 -110 12 -130 9 -21 -4 -38 -3 -38 2 0 4 51 35
112 68 276 148 397 291 563 665 20 47 66 145 101 219 35 73 64 139 64 146 0 7
-6 15 -14 18 -13 5 -306 -98 -540 -189 -278 -109 -464 -248 -611 -454 -37 -52
-69 -96 -70 -98 -2 -2 -3 46 -3 106 l0 109 -43 78 c-23 43 -65 106 -93 139
-75 92 -297 316 -328 332 -25 13 -29 13 -43 -9z"/>
<path d="M3060 702 c6 -13 14 -21 18 -18 3 4 -2 14 -12 24 -18 16 -18 16 -6
-6z"/>
</g>
</svg>
