<?xml version="1.0" standalone="no"?>
<!DOCTYPE svg PUBLIC "-//W3C//DTD SVG 20010904//EN"
 "http://www.w3.org/TR/2001/REC-SVG-20010904/DTD/svg10.dtd">
<svg version="1.0" xmlns="http://www.w3.org/2000/svg"
 width="480.000000pt" height="360.000000pt" viewBox="0 0 480.000000 360.000000"
 preserveAspectRatio="xMidYMid meet">
<metadata>
Created by potrace 1.16, written by Peter Selinger 2001-2019
</metadata>
<rect width="1" height="360" fill="#000000"/>
<rect x="479" width="1" height="360" fill="#000000"/>
<rect width="480" height="1" fill="#000000"/>
<rect y="359" width="480" height="1" fill="#000000"/>
<g transform="translate(0.000000,360.000000) scale(0.100000,-0.100000)"
fill="#000000" stroke="none">
<path d="M1836 3362 c-4 -6 14 -21 41 -34 25 -13 48 -28 50 -34 2 -6 -40 -15
-99 -22 -57 -6 -121 -17 -143 -24 -58 -19 -121 -83 -135 -139 l-12 -46 -58 -6
c-59 -5 -120 -32 -120 -52 0 -6 13 -24 29 -39 27 -26 33 -27 62 -17 18 6 34 9
37 7 8 -9 -38 -65 -59 -71 -14 -5 -18 -12 -14 -23 4 -10 11 -29 17 -44 11 -30
101 -88 136 -88 17 0 21 -9 27 -57 4 -31 7 -102 7 -156 -1 -87 -4 -105 -28
-150 -37 -72 -66 -191 -53 -224 10 -27 -2 -150 -23 -228 -6 -22 -61 -116 -124
-210 -86 -128 -114 -179 -114 -203 0 -71 84 -199 147 -223 13 -5 48 -9 78 -9
44 0 59 5 86 27 l32 28 -6 -27 c-4 -14 -12 -62 -18 -105 -6 -43 -24 -136 -40
-208 -64 -281 -113 -524 -128 -641 -7 -44 -14 -91 -16 -105 -3 -13 -8 -72 -12
-131 l-6 -108 521 0 522 0 0 113 c0 148 -43 659 -91 1093 -9 74 -9 114 0 153
15 72 14 191 -5 333 -8 66 -13 123 -10 126 3 3 6 0 6 -7 0 -7 5 -9 10 -6 6 3
14 -4 19 -17 13 -31 13 -11 1 32 -9 31 -7 37 15 57 13 13 29 40 34 61 17 68
41 187 41 204 0 10 27 60 60 111 33 52 60 98 60 103 -1 16 -294 227 -303 218
-3 -3 -11 5 -18 17 -7 15 -12 76 -13 173 -1 121 -4 154 -16 164 -13 10 -10 16
20 42 27 23 31 33 22 42 -18 18 -15 25 13 32 37 9 31 25 -20 47 -44 20 -163
129 -217 201 -15 19 -44 43 -65 53 -45 22 -118 31 -127 17z"/>
</g>
</svg>
