<?xml version="1.0" standalone="no"?>
<!DOCTYPE svg PUBLIC "-//W3C//DTD SVG 20010904//EN"
 "http://www.w3.org/TR/2001/REC-SVG-20010904/DTD/svg10.dtd">
<svg version="1.0" xmlns="http://www.w3.org/2000/svg"
 width="480.000000pt" height="360.000000pt" viewBox="0 0 480.000000 360.000000"
 preserveAspectRatio="xMidYMid meet">
<metadata>
Created by potrace 1.16, written by Peter Selinger 2001-2019
</metadata>
<rect width="1" height="360" fill="#000000"/>
<rect x="479" width="1" height="360" fill="#000000"/>
<rect width="480" height="1" fill="#000000"/>
<rect y="359" width="480" height="1" fill="#000000"/>
<g transform="translate(0.000000,360.000000) scale(0.100000,-0.100000)"
fill="#000000" stroke="none">
<path d="M0 1800 l0 -1800 2400 0 2400 0 0 1800 0 1800 -2400 0 -2400 0 0
-1800z m2228 1046 c40 -1 39 1 25 -70 -5 -28 -4 -29 23 -22 16 4 49 29 74 56
38 40 53 49 92 55 27 4 65 4 85 0 37 -7 223 -121 223 -137 0 -15 -54 -8 -99
12 -69 32 -83 28 -79 -21 l3 -41 79 -29 c44 -16 87 -36 98 -45 17 -16 17 -19
3 -41 -15 -22 -14 -24 12 -33 65 -24 83 -33 83 -41 0 -5 8 -9 18 -9 16 -1 16
-1 -1 -14 -15 -12 -16 -14 -2 -20 8 -3 15 -10 15 -15 0 -6 -7 -8 -15 -5 -9 4
-15 0 -15 -9 0 -12 -12 -15 -60 -13 -47 2 -57 0 -48 -11 17 -21 -18 -28 -47
-9 -28 18 -39 21 -30 6 8 -13 -1 -13 -27 1 -19 10 -20 9 -13 -7 4 -11 14 -38
22 -61 8 -24 18 -43 21 -43 4 0 22 18 42 40 46 54 91 60 101 15 4 -16 7 -51 8
-77 1 -54 -8 -49 150 -78 63 -11 116 -22 118 -24 2 -2 -3 -11 -12 -19 -16 -17
-20 -37 -7 -37 5 0 58 9 118 20 60 11 132 20 160 20 72 0 164 -20 164 -36 0
-8 6 -11 17 -7 11 4 14 3 9 -5 -11 -18 3 -50 25 -57 10 -4 19 -13 19 -21 0
-11 7 -13 26 -8 18 5 25 3 21 -3 -4 -6 8 -18 26 -27 17 -8 25 -16 16 -16 -21
0 -20 -30 1 -47 13 -11 13 -15 -4 -28 -11 -8 -16 -15 -10 -15 5 0 10 -11 10
-25 2 -22 -1 -25 -20 -19 -20 6 -20 5 -2 -8 18 -14 18 -15 1 -22 -9 -3 -31 1
-48 9 -37 19 -38 19 -31 0 4 -9 0 -15 -10 -15 -9 0 -16 -4 -16 -10 0 -5 -6
-10 -14 -10 -20 0 -40 -27 -24 -33 7 -2 -3 -3 -22 -3 -19 1 -45 7 -58 14 -12
7 -31 10 -42 7 -10 -3 -21 -1 -25 4 -9 15 -64 29 -205 52 -68 11 -149 30 -180
41 -38 14 -75 20 -120 18 -36 -1 -66 -3 -68 -5 -2 -2 2 -21 8 -44 8 -29 8 -47
0 -61 -13 -24 -42 -26 -60 -5 -17 21 -25 19 -38 -10 -26 -56 -59 -19 -60 69
-1 27 -3 50 -5 53 -8 7 -114 7 -197 -1 -73 -7 -87 -6 -99 8 -7 9 -11 25 -8 36
9 33 20 31 -293 53 -107 8 -197 13 -198 11 -2 -1 23 -10 56 -19 43 -12 59 -21
55 -31 -3 -8 7 -21 27 -31 55 -31 60 -37 50 -53 -7 -12 -29 -4 -127 47 -145
75 -200 94 -217 72 -6 -9 -17 -14 -25 -11 -8 3 -11 0 -7 -7 4 -6 3 -11 -2 -11
-11 0 -37 30 -45 51 -4 11 -23 18 -64 22 -33 4 -67 9 -77 13 -14 6 -46 52 -46
69 0 10 124 5 250 -10 139 -16 449 -44 521 -47 63 -2 89 26 185 202 15 27 17
90 6 155 -6 32 -14 43 -39 56 -72 36 -81 65 -33 106 32 27 38 43 16 43 -21 0
-161 67 -176 85 -7 8 -18 15 -25 15 -14 0 -29 46 -20 61 4 5 22 7 41 3 37 -7
41 0 19 30 -29 38 -9 100 22 74 8 -6 31 -12 51 -12z m1193 -1123 l24 -27 -32
23 c-33 23 -40 31 -25 31 5 0 19 -12 33 -27z"/>
<path d="M2391 2506 c-9 -11 -9 -19 1 -35 7 -12 16 -21 19 -21 11 0 18 27 12
49 -6 25 -16 27 -32 7z"/>
<path d="M2429 2223 c-6 -20 -32 -66 -56 -101 -43 -63 -48 -82 -26 -89 13 -5
127 89 149 122 14 22 14 26 -10 64 -15 23 -30 41 -35 41 -5 0 -15 -17 -22 -37z"/>
<path d="M2795 2140 c13 -21 87 -48 150 -54 65 -7 59 -3 -45 33 -94 32 -115
36 -105 21z"/>
</g>
</svg>
