<?xml version="1.0" standalone="no"?>
<!DOCTYPE svg PUBLIC "-//W3C//DTD SVG 20010904//EN"
 "http://www.w3.org/TR/2001/REC-SVG-20010904/DTD/svg10.dtd">
<svg version="1.0" xmlns="http://www.w3.org/2000/svg"
 width="480.000000pt" height="360.000000pt" viewBox="0 0 480.000000 360.000000"
 preserveAspectRatio="xMidYMid meet">
<metadata>
Created by potrace 1.16, written by Peter Selinger 2001-2019
</metadata>
<rect width="1" height="360" fill="#000000"/>
<rect x="479" width="1" height="360" fill="#000000"/>
<rect width="480" height="1" fill="#000000"/>
<rect y="359" width="480" height="1" fill="#000000"/>
<g transform="translate(0.000000,360.000000) scale(0.100000,-0.100000)"
fill="#000000" stroke="none">
<path d="M0 2625 c0 -602 4 -975 9 -975 6 0 82 70 171 156 115 111 166 155
178 151 62 -20 424 -184 499 -226 197 -111 307 -151 414 -151 64 0 190 22 261
46 45 15 53 14 132 -5 47 -12 87 -21 90 -21 2 0 44 54 91 119 107 148 144 182
259 237 130 62 132 64 117 115 -7 22 -11 42 -9 43 2 1 14 7 28 13 l25 10 -32
16 c-41 22 -42 22 -55 -10 -7 -17 -12 -22 -14 -13 -1 8 -6 33 -9 55 -7 39 -7
39 -20 16 -9 -17 -14 -20 -17 -10 -3 8 -8 -15 -11 -49 -9 -85 -26 -115 -27
-47 l-1 50 -14 -30 c-13 -29 -13 -28 -16 40 -1 39 -4 59 -6 45 -2 -14 -10 -38
-18 -55 -7 -16 -17 -39 -21 -50 -5 -13 -10 5 -15 55 -6 66 -27 147 -28 113 -2
-27 -20 -11 -37 32 -19 52 -26 55 -42 20 -20 -42 -31 -29 -25 30 l6 55 -44
-19 c-24 -11 -45 -18 -47 -16 -2 2 12 25 32 51 36 47 45 85 26 114 -8 13 -12
12 -25 -7 -9 -13 -22 -23 -30 -23 -16 0 -175 116 -175 128 0 5 9 17 20 27 11
10 20 29 20 42 0 19 5 23 30 23 32 0 84 40 122 92 20 29 20 34 8 99 -31 163
41 379 152 459 84 61 121 68 402 75 221 5 265 4 314 -10 118 -34 211 -114 264
-226 l32 -67 26 20 c24 17 32 18 73 7 34 -8 55 -8 78 0 41 14 94 14 121 0 11
-6 30 -32 41 -57 19 -42 22 -65 22 -202 0 -106 4 -162 12 -177 19 -33 16 -41
-21 -57 l-33 -14 23 -68 c19 -59 56 -212 79 -334 7 -33 6 -34 -9 -15 -15 19
-15 18 -16 -25 -1 -70 -51 -245 -79 -273 -6 -6 -11 -17 -11 -24 0 -7 -7 -10
-15 -7 -11 5 -15 -1 -15 -20 0 -15 -8 -30 -20 -36 -18 -10 -20 -7 -21 22 -1
20 -3 25 -6 14 -4 -15 -7 -16 -14 -5 -6 10 -9 10 -9 2 0 -7 -4 -13 -9 -13 -5
0 -12 33 -17 73 -7 72 -7 72 -18 35 -17 -56 -23 -54 -30 12 -4 34 -20 103 -35
153 -16 51 -32 127 -36 170 l-7 77 -33 0 c-18 0 -41 3 -51 7 -15 6 -16 1 -11
-40 4 -26 9 -59 13 -74 l6 -28 -31 33 c-17 17 -33 32 -35 32 -2 0 -10 -16 -16
-35 -12 -36 -30 -47 -30 -18 0 25 -14 6 -26 -35 -6 -20 -15 -36 -22 -35 -6 1
-14 -12 -17 -29 l-7 -32 -13 24 c-13 23 -13 22 -29 -30 -9 -29 -16 -59 -16
-66 0 -7 -4 -15 -9 -19 -6 -3 -8 18 -5 52 l4 58 -15 -64 c-8 -36 -17 -67 -20
-69 -3 -3 -5 33 -6 79 -1 77 -2 82 -13 55 -9 -20 -15 -24 -18 -15 -5 11 -9 10
-22 -6 -14 -18 -15 -18 -16 -2 0 19 -13 22 -41 7 -24 -13 -25 -30 -1 -30 28 0
30 -7 19 -49 -14 -52 -8 -59 116 -120 56 -27 111 -58 123 -68 11 -10 67 -75
123 -145 57 -71 110 -128 119 -128 9 0 49 9 89 21 l73 20 108 -27 c145 -37
257 -38 362 -1 41 14 143 63 226 109 83 46 191 101 240 122 49 21 136 61 193
87 57 27 108 49 113 49 5 0 66 -55 136 -123 119 -115 202 -187 216 -187 3 0 6
432 6 960 l0 960 -2400 0 -2400 0 0 -975z"/>
<path d="M2998 2680 c-66 -158 -71 -213 -23 -244 46 -30 55 -23 56 52 1 108
-2 169 -10 199 l-8 28 -15 -35z"/>
<path d="M2355 2190 c3 -5 19 -10 36 -10 16 0 29 5 29 10 0 6 -16 10 -36 10
-21 0 -33 -4 -29 -10z"/>
<path d="M4300 1798 c-88 -46 -95 -51 -92 -76 2 -15 10 -34 17 -42 20 -23 58
-149 52 -173 -12 -54 -161 -463 -173 -476 -11 -12 -14 -11 -22 10 -5 13 -26
132 -47 265 l-37 241 36 70 c19 39 42 73 50 76 19 8 21 27 4 27 -30 -1 -131
-51 -211 -105 -73 -49 -87 -62 -87 -85 0 -15 8 -34 18 -43 10 -9 29 -50 42
-90 l23 -74 -76 -238 c-42 -131 -81 -243 -87 -249 -6 -6 -13 -6 -19 -1 -5 6
-28 115 -51 244 -23 129 -44 240 -47 247 -2 7 15 51 39 97 l44 85 -139 7
c-120 6 -141 5 -155 -8 -14 -15 -13 -18 10 -36 28 -22 68 -121 68 -168 0 -41
-105 -482 -118 -495 -16 -16 -26 12 -91 264 l-61 236 24 67 c13 37 34 77 45
89 12 12 21 27 21 33 0 16 -46 22 -125 16 l-71 -6 4 -28 c3 -20 -3 -35 -22
-54 -14 -14 -26 -28 -26 -30 0 -2 14 -19 30 -37 17 -18 30 -38 30 -44 0 -14
-33 -44 -48 -44 -22 0 -21 -19 4 -101 24 -83 55 -253 49 -273 -2 -6 47 -36
108 -66 62 -31 175 -89 252 -130 l141 -74 71 14 c77 14 216 9 286 -11 54 -15
81 -43 67 -70 -16 -29 -37 -34 -77 -20 -26 10 -38 10 -46 2 -20 -20 34 -60
134 -97 133 -50 184 -58 275 -43 99 16 113 4 61 -49 -31 -32 -56 -44 -158 -76
-108 -34 -129 -38 -207 -34 -83 3 -93 6 -227 69 -77 37 -162 73 -190 80 -54
13 -421 166 -521 217 -34 17 -75 43 -93 58 -36 30 -80 111 -107 198 -16 50
-20 55 -25 35 -11 -40 -10 -188 3 -277 9 -67 9 -85 -1 -92 -10 -5 2 -42 49
-146 66 -147 99 -234 125 -327 l16 -57 880 0 879 0 0 368 c0 290 -4 407 -20
557 -34 340 -34 312 -5 360 21 37 25 56 25 128 0 61 -4 86 -13 90 -7 3 -52 37
-100 76 -80 66 -107 81 -74 42 15 -17 47 -125 47 -157 0 -18 -141 -387 -177
-461 -31 -66 -32 -64 -73 253 l-32 242 41 71 c23 39 51 75 61 81 12 6 20 21
20 36 0 13 7 27 15 30 22 9 19 16 -31 78 -32 39 -53 56 -68 54 -11 0 -64 -23
-116 -50z"/>
<path d="M311 1769 c-47 -56 -50 -63 -36 -79 8 -9 15 -26 15 -38 0 -12 11 -29
26 -38 14 -10 41 -48 60 -85 l34 -68 -44 -262 c-25 -144 -49 -266 -54 -271 -5
-5 -13 -4 -19 4 -6 7 -47 123 -92 258 l-81 246 25 74 c14 40 32 82 42 92 33
36 -1 17 -54 -32 -29 -27 -72 -62 -93 -77 l-40 -28 0 -93 c0 -73 4 -101 20
-132 20 -38 20 -42 4 -122 -14 -69 -18 -171 -21 -600 l-4 -518 879 0 879 0 42
128 c23 70 63 175 90 233 51 113 66 165 51 174 -6 4 -8 16 -5 28 21 93 26 375
5 362 -4 -2 -15 -34 -25 -70 -9 -36 -25 -71 -34 -78 -10 -6 -31 -33 -49 -58
-41 -60 -90 -92 -362 -231 -236 -121 -240 -123 -519 -213 l-175 -57 -80 12
c-51 8 -108 25 -153 46 -39 19 -75 34 -80 34 -22 1 -118 88 -121 109 -4 23 -3
24 45 15 101 -19 313 4 413 44 64 25 62 68 -2 58 -47 -8 -68 5 -68 41 0 63
214 71 351 12 l50 -22 155 94 c115 70 153 97 148 109 -3 8 -31 128 -61 265
l-55 250 24 70 c12 39 33 80 46 93 12 13 22 30 22 39 0 14 -18 15 -145 11
-138 -4 -174 -10 -148 -26 16 -10 73 -133 73 -158 0 -11 -22 -135 -50 -275
-27 -140 -50 -255 -50 -256 0 -2 -6 -3 -14 -3 -16 0 -16 1 -97 290 -28 102
-55 196 -59 210 -8 29 33 153 62 186 36 41 25 68 -54 120 -80 52 -169 98 -210
108 -31 7 -35 0 -13 -24 8 -9 30 -48 49 -87 l34 -70 -45 -259 c-25 -143 -51
-265 -58 -272 -16 -17 -20 -6 -114 294 l-70 221 29 77 c15 42 33 82 38 89 5 7
12 23 15 37 5 23 -1 28 -100 75 -58 28 -109 51 -113 53 -4 2 -31 -25 -59 -59z"/>
<path d="M1510 1484 c0 -9 7 -22 15 -28 18 -13 65 -136 65 -169 0 -12 -29
-131 -63 -264 -35 -134 -60 -243 -55 -243 4 0 29 13 55 29 27 16 68 40 93 54
31 17 46 32 47 48 8 70 28 173 49 243 13 44 24 83 24 87 0 4 -16 16 -35 28
-43 25 -44 42 -5 79 35 34 37 43 10 67 -12 11 -20 31 -20 52 l0 33 -90 0 c-77
0 -90 -2 -90 -16z"/>
</g>
</svg>
