<?xml version="1.0" standalone="no"?>
<!DOCTYPE svg PUBLIC "-//W3C//DTD SVG 20010904//EN"
 "http://www.w3.org/TR/2001/REC-SVG-20010904/DTD/svg10.dtd">
<svg version="1.0" xmlns="http://www.w3.org/2000/svg"
 width="480.000000pt" height="360.000000pt" viewBox="0 0 480.000000 360.000000"
 preserveAspectRatio="xMidYMid meet">
<metadata>
Created by potrace 1.16, written by Peter Selinger 2001-2019
</metadata>
<rect width="1" height="360" fill="#000000"/>
<rect x="479" width="1" height="360" fill="#000000"/>
<rect width="480" height="1" fill="#000000"/>
<rect y="359" width="480" height="1" fill="#000000"/>
<g transform="translate(0.000000,360.000000) scale(0.100000,-0.100000)"
fill="#000000" stroke="none">
<path d="M1826 3574 c-6 -21 -1 -33 20 -55 15 -16 37 -32 48 -36 47 -15 -32
-25 -459 -58 -200 -16 -283 -33 -315 -65 -26 -26 -25 -46 4 -75 22 -22 23 -26
8 -34 -9 -5 -14 -13 -10 -17 5 -4 3 -13 -4 -21 -8 -10 -8 -17 0 -25 7 -7 2
-17 -19 -35 -37 -32 -37 -46 4 -77 29 -24 30 -26 10 -26 -25 0 -31 -15 -10
-24 10 -5 10 -7 0 -12 -7 -3 -13 -10 -13 -14 0 -12 76 -34 113 -33 19 1 27 -3
23 -12 -2 -7 1 -36 9 -63 9 -38 10 -53 1 -62 -27 -27 89 -64 217 -69 35 -1 37
-3 37 -35 0 -19 5 -36 11 -38 7 -2 7 -12 -2 -32 -12 -25 -11 -30 6 -42 33 -24
86 -35 210 -44 125 -9 239 -25 262 -39 10 -5 -16 -18 -74 -37 -96 -32 -143
-64 -143 -98 0 -13 -9 -31 -20 -41 -27 -24 -29 -105 -2 -105 9 0 44 -14 77
-30 33 -17 64 -30 70 -30 5 0 22 -12 36 -27 14 -16 49 -36 78 -47 47 -17 70
-18 239 -11 l187 7 82 38 c44 21 112 58 151 83 115 74 108 72 155 41 23 -15
63 -39 90 -53 126 -68 236 -132 242 -140 3 -6 31 -24 63 -42 31 -18 75 -45 97
-61 56 -40 268 -177 340 -220 123 -72 280 -138 385 -160 25 -5 99 -13 165 -17
90 -6 130 -13 160 -28 92 -47 294 -75 408 -57 l37 7 0 398 0 399 -24 -10 c-21
-8 -39 2 -138 77 -197 148 -316 221 -808 493 -212 117 -279 154 -370 203 -36
19 -114 62 -174 96 -209 117 -302 160 -422 195 -66 19 -171 58 -233 86 -61 28
-142 57 -179 66 -37 8 -104 33 -149 55 l-82 39 -194 0 -195 0 -6 -26z"/>
<path d="M1746 1014 c-88 -7 -178 -17 -200 -23 -23 -5 -70 -15 -106 -22 -99
-19 -110 -29 -110 -103 0 -75 19 -149 57 -224 23 -45 47 -70 114 -122 105 -82
129 -124 133 -235 4 -93 18 -111 102 -131 155 -36 404 7 448 78 7 12 7 30 -2
62 -10 39 -9 54 10 116 17 57 30 79 62 108 129 117 156 157 180 276 16 74 12
127 -9 139 -8 4 -15 14 -15 21 0 35 -25 46 -145 61 -140 17 -298 17 -519 -1z"/>
</g>
</svg>
