<?xml version="1.0" standalone="no"?>
<!DOCTYPE svg PUBLIC "-//W3C//DTD SVG 20010904//EN"
 "http://www.w3.org/TR/2001/REC-SVG-20010904/DTD/svg10.dtd">
<svg version="1.0" xmlns="http://www.w3.org/2000/svg"
 width="480.000000pt" height="360.000000pt" viewBox="0 0 480.000000 360.000000"
 preserveAspectRatio="xMidYMid meet">
<metadata>
Created by potrace 1.16, written by Peter Selinger 2001-2019
</metadata>
<rect width="1" height="360" fill="#000000"/>
<rect x="479" width="1" height="360" fill="#000000"/>
<rect width="480" height="1" fill="#000000"/>
<rect y="359" width="480" height="1" fill="#000000"/>
<g transform="translate(0.000000,360.000000) scale(0.100000,-0.100000)"
fill="#000000" stroke="none">
<path d="M2468 950 c-20 -16 -21 -21 -10 -45 45 -99 142 -211 274 -316 90 -72
200 -183 236 -237 17 -27 9 -37 -38 -48 -74 -17 -190 -58 -222 -79 -44 -29
-54 -64 -43 -160 l7 -65 515 0 c466 0 515 2 509 16 -11 28 16 207 39 264 36
88 39 112 15 143 -12 15 -27 27 -33 27 -6 0 -26 14 -43 31 -31 30 -35 31 -64
19 -38 -16 -76 -72 -86 -126 -3 -22 -15 -53 -25 -70 -11 -17 -19 -41 -19 -53
0 -20 -2 -21 -27 -7 -16 8 -66 44 -113 81 -47 36 -170 131 -275 210 -104 79
-241 192 -304 249 -171 158 -249 202 -293 166z"/>
</g>
</svg>
