<?xml version="1.0" standalone="no"?>
<!DOCTYPE svg PUBLIC "-//W3C//DTD SVG 20010904//EN"
 "http://www.w3.org/TR/2001/REC-SVG-20010904/DTD/svg10.dtd">
<svg version="1.0" xmlns="http://www.w3.org/2000/svg"
 width="480.000000pt" height="360.000000pt" viewBox="0 0 480.000000 360.000000"
 preserveAspectRatio="xMidYMid meet">
<metadata>
Created by potrace 1.16, written by Peter Selinger 2001-2019
</metadata>
<rect width="1" height="360" fill="#000000"/>
<rect x="479" width="1" height="360" fill="#000000"/>
<rect width="480" height="1" fill="#000000"/>
<rect y="359" width="480" height="1" fill="#000000"/>
<g transform="translate(0.000000,360.000000) scale(0.100000,-0.100000)"
fill="#000000" stroke="none">
<path d="M3800 3588 c0 -6 5 -39 11 -74 15 -87 35 -103 141 -116 45 -5 102
-18 124 -29 45 -21 54 -38 74 -132 11 -52 13 -57 35 -51 12 3 26 1 30 -5 3 -6
10 -9 15 -6 5 3 20 -20 34 -51 27 -58 31 -80 19 -86 -5 -2 -19 -15 -31 -30
l-24 -26 41 -45 c37 -40 41 -50 41 -95 0 -39 6 -57 25 -80 15 -18 23 -37 19
-46 -3 -9 -1 -22 4 -29 12 -14 42 -149 42 -187 -1 -14 -9 -43 -20 -65 -25 -52
-25 -62 1 -39 16 14 23 15 26 7 3 -8 27 7 64 39 72 62 87 57 70 -22 -15 -69
-14 -76 7 -57 24 22 32 21 32 -3 0 -11 3 -20 6 -20 11 0 69 52 74 67 3 8 10
14 14 13 5 -1 12 4 17 11 6 11 9 10 14 -3 5 -11 -4 -27 -27 -47 l-33 -31 33 6
c25 5 36 2 47 -12 13 -18 14 -17 26 9 7 15 20 27 31 27 17 0 18 24 18 610 l0
610 -500 0 c-375 0 -500 -3 -500 -12z"/>
<path d="M1377 2673 c-4 -3 -7 -19 -7 -34 0 -15 -7 -35 -16 -44 -28 -28 4 -61
83 -85 96 -28 105 -36 57 -49 -100 -26 -296 -58 -504 -80 -160 -18 -203 -37
-215 -98 -5 -31 -3 -40 13 -54 18 -14 19 -18 6 -31 -11 -10 -13 -26 -8 -55 6
-40 7 -41 63 -55 56 -13 56 -13 62 -56 3 -25 13 -48 25 -57 21 -16 100 -35
144 -35 24 0 31 -5 35 -25 3 -14 7 -36 10 -48 6 -33 62 -55 158 -63 87 -7 99
-17 71 -59 -15 -23 -15 -28 -3 -36 8 -5 20 -9 27 -9 7 0 34 -11 59 -24 42 -23
44 -25 22 -30 -13 -3 -98 -7 -188 -9 -114 -3 -166 -8 -171 -17 -11 -18 7 -87
41 -158 24 -48 46 -75 99 -117 78 -64 110 -122 107 -196 -4 -99 38 -116 247
-106 195 11 238 28 217 87 -8 25 -7 45 6 93 15 54 26 71 89 132 86 84 101 112
114 207 6 40 14 74 19 76 4 1 43 23 85 49 l78 46 32 -17 c37 -20 335 -256 430
-340 59 -52 319 -257 367 -289 70 -47 201 -108 304 -143 115 -38 176 -36 559
26 69 11 130 20 136 20 6 0 10 -51 10 -137 0 -181 -18 -722 -26 -795 l-6 -58
396 0 396 0 0 1049 c0 863 -2 1050 -13 1054 -8 3 -46 1 -86 -3 -62 -7 -83 -15
-156 -60 -78 -47 -88 -51 -129 -45 -26 4 -52 2 -64 -4 -13 -7 -23 -7 -27 -1
-8 13 -49 -4 -112 -47 -43 -29 -54 -43 -58 -72 -14 -82 -13 -81 -53 -81 -20 1
-61 9 -89 19 -51 17 -53 17 -58 -1 -4 -10 -3 -23 0 -28 4 -6 -7 -16 -24 -23
-26 -9 -31 -17 -31 -44 0 -38 -10 -45 -100 -68 -36 -9 -118 -32 -182 -52
l-117 -36 -43 39 c-24 22 -104 85 -178 140 -145 108 -861 599 -933 639 -23 13
-102 40 -175 59 -73 20 -150 45 -171 56 -22 11 -84 31 -138 46 -54 14 -136 42
-183 61 -173 71 -282 98 -303 76z"/>
</g>
</svg>
