<?xml version="1.0" standalone="no"?>
<!DOCTYPE svg PUBLIC "-//W3C//DTD SVG 20010904//EN"
 "http://www.w3.org/TR/2001/REC-SVG-20010904/DTD/svg10.dtd">
<svg version="1.0" xmlns="http://www.w3.org/2000/svg"
 width="480.000000pt" height="360.000000pt" viewBox="0 0 480.000000 360.000000"
 preserveAspectRatio="xMidYMid meet">
<metadata>
Created by potrace 1.16, written by Peter Selinger 2001-2019
</metadata>
<rect width="1" height="360" fill="#000000"/>
<rect x="479" width="1" height="360" fill="#000000"/>
<rect width="480" height="1" fill="#000000"/>
<rect y="359" width="480" height="1" fill="#000000"/>
<g transform="translate(0.000000,360.000000) scale(0.100000,-0.100000)"
fill="#000000" stroke="none">
<path d="M0 1800 l0 -1800 994 0 994 0 4 81 c3 91 -1 99 -67 121 -31 10 -41
19 -43 38 -9 66 -24 100 -52 117 -17 9 -30 26 -30 36 0 10 -7 32 -16 49 -33
63 9 186 164 487 79 154 92 185 79 193 -9 4 -23 22 -31 40 -15 30 -15 33 9 64
25 33 110 203 104 208 -2 1 -17 7 -32 14 -33 14 -52 55 -62 132 -4 30 -11 62
-16 71 -6 12 -3 21 13 31 19 13 20 17 8 54 -18 51 -15 224 4 307 15 62 55 172
95 259 11 24 39 96 61 162 23 65 55 146 73 180 17 33 33 64 35 68 2 3 -15 16
-38 29 -55 31 -46 45 24 41 57 -4 59 -3 105 41 26 26 65 52 90 61 41 14 45 13
60 -3 9 -10 34 -25 56 -34 36 -13 43 -13 60 0 28 20 55 35 55 29 0 -3 -12 -16
-26 -29 l-26 -24 36 -21 c26 -16 38 -31 46 -64 7 -24 16 -51 21 -60 5 -10 9
-28 9 -41 0 -16 12 -31 38 -48 52 -34 50 -55 -5 -51 -34 3 -43 0 -43 -12 0 -9
-4 -16 -10 -16 -5 0 -10 -6 -10 -13 0 -16 -41 -37 -72 -37 -18 0 -19 -4 -14
-35 6 -28 4 -35 -9 -35 -23 0 -52 -30 -60 -62 -6 -23 -2 -29 32 -48 110 -61
173 -116 173 -153 0 -13 7 -30 15 -37 8 -7 15 -22 15 -34 0 -11 16 -52 35 -90
19 -37 35 -78 35 -90 0 -12 -20 -56 -45 -98 -25 -43 -45 -85 -45 -94 0 -10
-16 -47 -36 -82 -40 -74 -40 -101 1 -181 12 -26 44 -113 70 -196 25 -82 53
-165 61 -183 18 -42 18 -53 -1 -46 -10 4 -15 0 -15 -14 0 -14 8 -22 22 -24 27
-4 55 -72 38 -93 -10 -12 78 -242 140 -366 17 -32 30 -63 30 -69 0 -6 -13 -16
-30 -21 l-29 -11 19 -39 c19 -36 19 -39 3 -39 -9 0 -27 -12 -38 -26 l-21 -26
-58 17 -58 17 -43 -30 c-23 -16 -52 -33 -64 -37 -19 -6 -21 -14 -21 -90 0 -46
5 -87 10 -90 6 -3 10 -17 10 -31 l0 -24 1010 0 1010 0 0 1800 0 1800 -2400 0
-2400 0 0 -1800z"/>
<path d="M2639 1860 c-1 -60 -2 -115 -3 -122 -1 -6 4 -13 10 -15 10 -3 85 150
84 172 -1 6 -21 25 -45 43 l-45 33 -1 -111z"/>
<path d="M2061 1724 c0 -11 3 -14 6 -6 3 7 2 16 -1 19 -3 4 -6 -2 -5 -13z"/>
<path d="M2515 162 l-49 -37 -95 3 c-70 1 -107 -2 -141 -15 -25 -9 -46 -18
-48 -19 -2 -1 -10 -23 -17 -48 l-14 -46 214 0 c206 0 215 1 215 19 0 11 5 23
11 27 16 10 -2 154 -19 154 -4 0 -29 -17 -57 -38z"/>
</g>
</svg>
