<?xml version="1.0" standalone="no"?>
<!DOCTYPE svg PUBLIC "-//W3C//DTD SVG 20010904//EN"
 "http://www.w3.org/TR/2001/REC-SVG-20010904/DTD/svg10.dtd">
<svg version="1.0" xmlns="http://www.w3.org/2000/svg"
 width="480.000000pt" height="360.000000pt" viewBox="0 0 480.000000 360.000000"
 preserveAspectRatio="xMidYMid meet">
<metadata>
Created by potrace 1.16, written by Peter Selinger 2001-2019
</metadata>
<rect width="1" height="360" fill="#000000"/>
<rect x="479" width="1" height="360" fill="#000000"/>
<rect width="480" height="1" fill="#000000"/>
<rect y="359" width="480" height="1" fill="#000000"/>
<g transform="translate(0.000000,360.000000) scale(0.100000,-0.100000)"
fill="#000000" stroke="none">
<path d="M0 1800 l0 -1800 463 0 463 0 48 148 c80 243 124 326 275 517 40 50
85 118 102 152 26 55 30 71 27 137 -2 41 -6 72 -9 68 -3 -4 -13 -42 -23 -84
-21 -91 -36 -103 -25 -20 11 93 19 188 13 175 -18 -40 -18 5 -1 150 22 199 26
411 9 577 -18 179 -27 633 -14 695 12 54 53 133 119 224 23 32 38 63 33 67 -4
5 -13 26 -20 47 -16 50 -43 74 -94 82 -71 11 -76 14 -76 45 0 27 5 31 66 50
36 11 70 20 75 20 4 0 20 11 35 25 15 14 44 32 65 42 22 9 38 21 36 27 -2 5
-42 20 -90 32 -118 32 -184 65 -240 120 -51 49 -56 61 -31 71 15 6 184 -32
217 -49 27 -14 21 -1 -34 75 -54 73 -93 165 -83 191 6 14 -61 16 -650 16
l-656 0 0 -1800z"/>
<path d="M1430 3523 c41 -42 80 -82 87 -87 6 -6 33 -45 59 -86 48 -74 48 -75
55 -45 4 17 7 49 8 71 1 35 28 135 56 207 7 16 -5 17 -166 17 l-173 0 74 -77z"/>
<path d="M1783 3528 c-1 -40 -9 -102 -17 -138 -7 -36 -13 -66 -11 -68 1 -2 31
17 66 41 96 66 179 111 189 101 15 -15 -25 -90 -77 -145 -26 -28 -83 -72 -126
-97 -43 -25 -76 -50 -74 -56 2 -6 25 -14 51 -18 26 -3 59 -14 72 -23 21 -13
39 -15 99 -10 68 7 74 6 85 -14 14 -28 8 -37 -50 -66 -60 -30 -70 -48 -70
-118 0 -52 1 -55 33 -68 17 -7 72 -49 121 -93 101 -91 126 -135 146 -257 11
-62 10 -91 -4 -183 -9 -61 -18 -111 -20 -113 -2 -2 2 -35 10 -73 7 -38 20
-145 28 -237 9 -92 19 -197 23 -233 l6 -65 10 44 c7 30 7 52 -1 75 -19 52 -14
72 24 106 35 30 39 31 110 27 65 -3 77 -7 104 -32 32 -30 39 -70 19 -106 -6
-12 -7 -39 -3 -67 6 -40 8 -43 14 -22 4 14 10 81 14 150 4 69 16 188 28 265
24 165 23 148 8 255 -11 71 -10 105 2 200 16 124 31 167 78 217 l30 32 -20 46
c-69 161 -67 358 6 535 34 83 74 163 79 158 3 -2 -5 -51 -17 -109 -26 -125
-31 -368 -10 -434 17 -52 44 -115 49 -115 2 0 21 9 41 19 95 49 215 62 315 36
82 -21 129 -48 187 -106 50 -50 51 -51 72 -33 32 29 93 114 122 172 31 61 32
65 7 57 -23 -7 -43 11 -93 89 -35 54 -37 61 -22 77 19 22 87 31 137 20 38 -9
39 -8 53 24 7 18 17 77 20 130 8 115 18 107 39 -30 8 -52 17 -99 20 -104 3 -5
18 -6 33 -2 55 16 107 -7 140 -61 15 -26 15 -27 -43 -80 -32 -29 -61 -54 -65
-56 -4 -1 -13 10 -19 27 -7 16 -23 38 -35 50 l-22 21 -13 -67 c-25 -129 -89
-251 -179 -345 l-46 -48 19 -37 c29 -57 32 -342 8 -666 -21 -296 -21 -442 1
-629 19 -164 20 -210 5 -188 -8 11 -9 3 -5 -30 3 -25 7 -81 10 -125 l5 -80
-19 59 c-11 33 -22 62 -25 64 -7 8 6 -130 15 -161 5 -15 28 -56 52 -92 43 -64
44 -64 133 -95 50 -17 124 -39 165 -50 164 -44 278 -121 398 -270 49 -62 142
-253 142 -294 0 -14 25 -16 230 -16 l230 0 0 1800 0 1800 -1508 0 -1508 0 -1
-72z"/>
<path d="M2612 2285 c0 -16 2 -22 5 -12 2 9 2 23 0 30 -3 6 -5 -1 -5 -18z"/>
<path d="M2216 1324 c-3 -9 -6 -25 -6 -37 0 -27 15 -11 24 26 7 29 -8 38 -18
11z"/>
<path d="M2570 1318 c0 -13 5 -30 10 -38 7 -11 10 -7 10 17 0 17 -4 35 -10 38
-6 3 -10 -4 -10 -17z"/>
<path d="M2376 1259 c-13 -31 -28 -78 -32 -105 -6 -43 -15 -58 -79 -124 -45
-47 -74 -86 -78 -104 -2 -16 1 -94 9 -175 21 -227 14 -273 -17 -108 -7 37 -15
67 -19 67 -4 0 -5 -77 -2 -171 3 -121 2 -170 -6 -165 -6 3 -16 23 -22 44 -22
72 -20 68 -30 52 -7 -10 -10 2 -10 38 0 51 -25 162 -37 162 -3 0 -2 -21 1 -48
11 -79 -39 -259 -82 -294 -13 -11 -14 -9 -9 22 15 85 19 166 12 254 -4 53 -10
96 -14 96 -12 0 -55 -185 -55 -240 0 -38 19 -119 60 -258 l59 -202 420 2 420
3 12 108 c29 270 34 362 19 393 -8 16 -22 64 -32 107 -11 47 -21 74 -27 68 -5
-5 -8 -84 -5 -184 2 -97 -1 -173 -5 -170 -5 3 -22 34 -37 68 -25 55 -39 118
-45 205 -4 52 -7 54 -20 15 -8 -22 -14 -64 -14 -93 -1 -29 -5 -51 -10 -48 -5
3 -19 -21 -31 -54 -12 -33 -25 -60 -28 -60 -3 0 -2 81 1 181 3 99 2 178 -1
174 -4 -3 -16 -45 -28 -93 -25 -101 -29 -79 -13 88 6 63 11 143 11 178 l1 63
-71 73 c-41 42 -74 85 -77 102 -17 75 -27 106 -45 146 l-19 43 -25 -56z"/>
<path d="M2900 555 c1 -26 2 -28 11 -12 8 14 8 22 0 30 -8 8 -11 3 -11 -18z"/>
</g>
</svg>
