<?xml version="1.0" standalone="no"?>
<!DOCTYPE svg PUBLIC "-//W3C//DTD SVG 20010904//EN"
 "http://www.w3.org/TR/2001/REC-SVG-20010904/DTD/svg10.dtd">
<svg version="1.0" xmlns="http://www.w3.org/2000/svg"
 width="480.000000pt" height="360.000000pt" viewBox="0 0 480.000000 360.000000"
 preserveAspectRatio="xMidYMid meet">
<metadata>
Created by potrace 1.16, written by Peter Selinger 2001-2019
</metadata>
<rect width="1" height="360" fill="#000000"/>
<rect x="479" width="1" height="360" fill="#000000"/>
<rect width="480" height="1" fill="#000000"/>
<rect y="359" width="480" height="1" fill="#000000"/>
<g transform="translate(0.000000,360.000000) scale(0.100000,-0.100000)"
fill="#000000" stroke="none">
<path d="M0 1800 l0 -1800 1081 0 1081 0 -6 58 c-23 210 -12 771 19 982 18
120 22 444 6 483 -6 16 -10 52 -10 80 1 29 4 42 6 30 5 -24 30 -49 40 -40 9
10 4 116 -7 138 -13 23 -30 25 -30 4 0 -32 -18 -13 -24 25 -3 22 -18 77 -32
122 -23 72 -26 94 -20 163 8 112 29 184 86 302 28 56 50 104 50 107 0 2 -22
21 -50 42 -44 34 -50 42 -50 75 0 45 -12 54 -62 50 -33 -2 -44 3 -79 39 l-42
42 7 70 c8 83 27 132 68 175 31 32 31 33 18 73 -13 40 -13 42 15 64 l29 23
-18 47 c-10 26 -15 50 -12 53 3 4 20 -4 37 -16 l31 -23 -7 56 c-6 47 -5 56 8
56 24 0 86 -38 150 -93 43 -36 76 -54 125 -69 59 -17 75 -28 133 -88 37 -38
78 -92 92 -122 43 -91 79 -180 103 -258 13 -40 61 -142 107 -225 92 -166 99
-180 134 -280 18 -52 25 -88 24 -140 -1 -38 4 -103 10 -144 12 -85 1 -128 -58
-216 -22 -34 -33 -61 -33 -87 0 -41 -29 -82 -78 -111 l-31 -18 -7 36 c-7 37
-13 42 -32 23 -17 -17 -15 -39 6 -62 30 -34 50 -191 67 -541 16 -317 46 -747
56 -813 l12 -72 943 0 944 0 0 1800 0 1800 -2400 0 -2400 0 0 -1800z"/>
</g>
</svg>
