<?xml version="1.0" standalone="no"?>
<!DOCTYPE svg PUBLIC "-//W3C//DTD SVG 20010904//EN"
 "http://www.w3.org/TR/2001/REC-SVG-20010904/DTD/svg10.dtd">
<svg version="1.0" xmlns="http://www.w3.org/2000/svg"
 width="480.000000pt" height="360.000000pt" viewBox="0 0 480.000000 360.000000"
 preserveAspectRatio="xMidYMid meet">
<metadata>
Created by potrace 1.16, written by Peter Selinger 2001-2019
</metadata>
<rect width="1" height="360" fill="#000000"/>
<rect x="479" width="1" height="360" fill="#000000"/>
<rect width="480" height="1" fill="#000000"/>
<rect y="359" width="480" height="1" fill="#000000"/>
<g transform="translate(0.000000,360.000000) scale(0.100000,-0.100000)"
fill="#000000" stroke="none">
<path d="M0 1800 l0 -1800 875 0 875 0 0 33 c0 54 101 413 147 522 49 117 103
276 103 304 0 38 -59 129 -71 110 -6 -10 -9 -10 -9 -1 0 6 -9 12 -19 12 -27 0
-32 11 -35 87 -4 71 -23 133 -41 133 -5 0 -19 -7 -29 -15 -29 -22 -74 -18
-136 11 -108 51 -246 102 -320 118 -81 19 -120 38 -120 61 0 8 -14 22 -30 30
-19 10 -30 22 -28 33 3 15 -10 18 -86 24 -155 12 -280 53 -348 116 -28 25 -28
26 -8 44 25 23 43 23 65 -2 22 -24 37 -26 33 -3 -3 15 12 17 138 21 l141 4 63
-32 c59 -30 63 -30 81 -14 15 13 24 15 42 7 12 -5 38 -8 57 -6 28 3 63 -10
175 -67 l140 -72 7 29 c29 121 48 174 110 302 54 111 73 163 81 219 7 45 16
72 23 72 7 0 15 4 18 9 3 5 15 84 26 177 35 290 64 428 118 554 32 77 84 155
113 171 33 17 16 21 -53 9 -114 -18 -147 8 -135 105 5 51 92 234 134 283 l28
34 57 -25 c31 -14 59 -23 62 -20 8 8 83 -26 126 -56 19 -14 64 -50 99 -80 52
-45 70 -55 95 -53 18 2 44 -2 60 -8 23 -8 43 -5 116 20 103 35 225 49 253 28
16 -12 15 -22 -23 -177 -22 -90 -44 -171 -49 -179 -6 -11 -3 -29 11 -55 46
-92 33 -205 -38 -313 -24 -37 -44 -73 -44 -80 0 -8 -4 -14 -9 -14 -5 0 -7 19
-4 43 l5 42 -35 -49 -36 -49 -7 27 c-6 25 -8 26 -22 12 -12 -11 -16 -46 -20
-143 l-4 -128 33 -10 c29 -9 34 -14 31 -37 -2 -17 6 -35 20 -51 54 -57 93
-107 157 -202 107 -157 117 -185 86 -244 -13 -25 -13 -43 0 -147 8 -65 20
-121 25 -124 20 -12 190 -41 317 -55 107 -11 126 -16 139 -34 10 -13 26 -21
45 -21 22 0 29 -5 29 -20 0 -19 1 -19 43 3 34 18 57 22 119 20 42 0 101 -6
131 -13 91 -19 104 -60 19 -60 -53 0 -92 -9 -92 -20 0 -13 33 -21 44 -10 14
14 26 12 26 -5 0 -19 37 -19 70 0 34 19 40 18 40 -5 0 -23 5 -24 49 -9 28 10
35 9 53 -11 14 -15 17 -25 10 -32 -14 -14 -127 -33 -288 -49 -126 -12 -134
-12 -188 8 -54 20 -56 20 -62 1 -4 -14 -11 -17 -27 -12 -12 3 -24 7 -27 7 -3
1 -17 -6 -31 -16 -26 -17 -29 -17 -120 12 -114 36 -202 56 -334 75 -99 14
-100 15 -141 60 -28 31 -51 71 -70 123 -15 43 -31 82 -35 86 -4 5 -10 -11 -14
-35 -3 -23 -9 -51 -11 -60 -4 -12 0 -18 10 -18 11 0 16 -10 16 -34 0 -50 -19
-97 -39 -94 -25 4 -14 -42 16 -65 25 -20 25 -22 18 -118 -7 -95 -6 -99 28
-191 20 -51 52 -128 71 -171 44 -95 169 -450 186 -529 l13 -58 859 0 858 0 0
1800 0 1800 -2400 0 -2400 0 0 -1800z m1005 813 c-8 -32 -13 -39 -21 -30 -10
9 5 57 17 57 7 0 9 -10 4 -27z m163 -96 c11 -12 20 -50 42 -162 6 -33 20 -76
30 -96 19 -38 19 -48 1 -138 -14 -68 -14 -72 2 -69 13 3 13 -65 -1 -227 -12
-142 -26 -157 -152 -161 -88 -2 -90 -2 -110 26 -11 15 -20 33 -20 40 0 7 -8
24 -18 38 -10 15 -29 54 -42 87 -27 68 -66 125 -86 125 -29 0 -45 45 -42 116
2 38 8 69 13 68 6 0 19 -15 30 -32 21 -33 60 -51 75 -36 5 5 14 50 21 99 7 50
19 98 27 107 8 10 15 45 17 85 2 37 4 72 4 78 1 5 12 -7 26 -28 22 -32 31 -37
65 -37 45 0 61 18 80 88 11 44 20 51 38 29z m-302 -114 c16 -21 18 -69 4 -78
-20 -12 -40 17 -40 56 0 42 14 50 36 22z m434 -272 c0 -20 -17 -37 -27 -28 -7
8 7 47 18 47 5 0 9 -9 9 -19z m-460 -336 c0 -8 -7 -15 -15 -15 -8 0 -15 7 -15
15 0 8 7 15 15 15 8 0 15 -7 15 -15z m3045 -201 c22 -25 52 -52 67 -60 45 -24
52 -48 23 -82 -14 -17 -32 -49 -40 -73 -19 -53 -32 -69 -57 -69 -11 0 -35 -7
-54 -16 -31 -15 -36 -15 -66 3 -29 17 -33 24 -33 63 0 41 -3 45 -30 53 -49 15
-60 23 -70 51 -12 34 2 58 35 63 30 4 31 5 39 45 8 39 55 68 111 68 30 0 42
-8 75 -46z"/>
<path d="M2646 2203 c-4 -9 -2 -21 4 -27 7 -7 10 -2 10 17 0 31 -5 34 -14 10z"/>
<path d="M1701 1499 c-14 -39 -14 -57 -2 -43 10 10 25 74 18 74 -3 0 -10 -14
-16 -31z"/>
</g>
</svg>
