<?xml version="1.0" standalone="no"?>
<!DOCTYPE svg PUBLIC "-//W3C//DTD SVG 20010904//EN"
 "http://www.w3.org/TR/2001/REC-SVG-20010904/DTD/svg10.dtd">
<svg version="1.0" xmlns="http://www.w3.org/2000/svg"
 width="480.000000pt" height="360.000000pt" viewBox="0 0 480.000000 360.000000"
 preserveAspectRatio="xMidYMid meet">
<metadata>
Created by potrace 1.16, written by Peter Selinger 2001-2019
</metadata>
<rect width="1" height="360" fill="#000000"/>
<rect x="479" width="1" height="360" fill="#000000"/>
<rect width="480" height="1" fill="#000000"/>
<rect y="359" width="480" height="1" fill="#000000"/>
<g transform="translate(0.000000,360.000000) scale(0.100000,-0.100000)"
fill="#000000" stroke="none">
<path d="M0 1800 l0 -1800 673 0 672 0 102 167 c149 248 185 321 177 361 -4
17 -9 32 -13 32 -3 0 -30 -39 -59 -85 -29 -47 -57 -85 -61 -85 -12 0 7 98 31
160 12 30 50 100 84 155 34 56 71 123 82 150 10 28 46 115 80 195 43 104 64
168 72 227 16 112 10 507 -8 525 -11 11 -16 10 -26 -4 -6 -9 -23 -16 -36 -16
-14 0 -35 -3 -47 -7 -20 -6 -18 4 33 172 87 288 83 256 35 308 -23 25 -66 82
-95 128 -141 216 -200 410 -139 455 24 18 89 9 122 -17 14 -12 71 -48 126 -81
73 -44 107 -59 125 -56 69 13 89 23 136 65 97 88 269 149 390 138 58 -6 381
-107 342 -107 -27 0 -22 -12 22 -55 24 -24 36 -43 31 -48 -6 -6 -3 -26 6 -51
11 -29 15 -69 14 -136 -5 -191 -3 -183 -30 -158 -9 9 -12 9 -7 1 3 -6 11 -35
16 -63 13 -69 -1 -128 -37 -159 -15 -14 -27 -31 -25 -39 2 -10 -3 -12 -18 -7
-34 11 -47 -9 -44 -71 1 -30 5 -77 9 -102 l6 -47 80 -38 c87 -41 136 -84 219
-195 30 -40 76 -99 102 -130 99 -119 130 -228 110 -382 -18 -132 -19 -128 36
-152 26 -12 64 -32 85 -45 l39 -24 -7 -142 c-4 -78 -11 -160 -17 -182 -6 -22
-12 -156 -14 -297 l-3 -258 714 0 715 0 0 1800 0 1800 -1160 0 -1160 0 0 -46
c0 -43 -1 -45 -23 -38 -27 10 -61 10 -104 -1 l-33 -7 0 46 0 46 -1160 0 -1160
0 0 -1800z"/>
<path d="M2295 238 c-19 -88 -45 -214 -45 -225 0 -8 13 -13 35 -13 l35 0 0
130 c0 78 -4 130 -10 130 -5 0 -12 -10 -15 -22z"/>
</g>
</svg>
