<?xml version="1.0" standalone="no"?>
<!DOCTYPE svg PUBLIC "-//W3C//DTD SVG 20010904//EN"
 "http://www.w3.org/TR/2001/REC-SVG-20010904/DTD/svg10.dtd">
<svg version="1.0" xmlns="http://www.w3.org/2000/svg"
 width="480.000000pt" height="360.000000pt" viewBox="0 0 480.000000 360.000000"
 preserveAspectRatio="xMidYMid meet">
<metadata>
Created by potrace 1.16, written by Peter Selinger 2001-2019
</metadata>
<rect width="1" height="360" fill="#000000"/>
<rect x="479" width="1" height="360" fill="#000000"/>
<rect width="480" height="1" fill="#000000"/>
<rect y="359" width="480" height="1" fill="#000000"/>
<g transform="translate(0.000000,360.000000) scale(0.100000,-0.100000)"
fill="#000000" stroke="none">
<path d="M0 1800 l0 -1800 253 0 254 0 74 100 c72 96 130 222 109 235 -5 3
-16 30 -25 60 -14 50 -14 58 0 86 11 21 14 43 10 68 -5 32 -3 39 24 59 28 20
29 24 19 59 -5 21 -14 43 -20 50 -6 7 -2 16 11 25 15 10 21 29 24 77 6 70 10
78 46 83 21 2 28 14 46 73 12 39 30 85 39 104 16 31 17 35 2 43 -24 13 -21 89
4 121 15 19 20 40 20 86 0 41 -4 60 -12 59 -7 -2 -10 16 -9 56 l3 60 -36 -27
c-40 -31 -51 -34 -41 -9 4 9 17 50 30 90 l23 72 -49 -41 -49 -41 20 47 c25 58
25 59 -1 52 -17 -5 -14 1 13 26 45 41 63 111 60 232 -2 124 -8 144 -40 150
-78 16 -198 48 -206 56 -5 4 8 31 29 59 32 44 37 55 27 71 -38 60 9 137 76
124 30 -5 34 -3 46 26 12 29 11 37 -10 84 -33 71 -38 126 -24 231 32 245 151
430 334 519 106 52 171 64 381 73 l188 8 61 69 c77 89 133 144 174 174 l33 23
33 -74 c18 -40 48 -118 67 -172 33 -99 34 -100 125 -191 80 -78 99 -104 138
-185 56 -115 80 -220 72 -307 l-7 -63 48 3 47 2 11 -72 c6 -42 19 -80 29 -92
14 -15 16 -29 11 -64 -4 -24 -2 -60 3 -79 7 -26 6 -43 -2 -60 -16 -32 -35 -29
-57 10 -23 44 -24 45 -48 37 -29 -9 -27 -31 15 -138 89 -228 242 -469 318
-501 35 -15 86 -69 86 -92 0 -13 -5 -12 -27 4 -39 27 -130 72 -146 72 -7 0
-33 -21 -57 -46 -83 -85 -111 -89 -210 -29 -73 44 -105 52 -114 28 -7 -16 -9
-16 -27 7 l-20 25 2 -40 c3 -72 -1 -115 -11 -115 -5 0 -10 5 -10 11 0 24 -53
129 -66 129 -7 0 -16 -14 -19 -31 -5 -22 -10 -28 -15 -19 -12 19 -142 -60
-158 -96 -7 -14 -11 -28 -10 -29 6 -5 244 -87 320 -110 92 -28 175 -85 183
-127 3 -15 7 -41 11 -57 3 -18 0 -34 -10 -44 -13 -12 -13 -17 -2 -26 10 -8 31
-7 82 5 109 25 419 31 536 10 507 -91 944 -437 1179 -933 l58 -123 266 0 265
0 0 1800 0 1800 -2400 0 -2400 0 0 -1800z m3195 1681 c3 -5 1 -12 -5 -16 -5
-3 -10 1 -10 9 0 18 6 21 15 7z m1279 -867 c9 -3 16 -15 16 -26 0 -28 -34 -19
-38 10 -4 24 -2 25 22 16z m-1254 -294 c0 -5 -4 -10 -10 -10 -5 0 -10 5 -10
10 0 6 5 10 10 10 6 0 10 -4 10 -10z m-40 -96 c0 -36 -44 -164 -66 -190 -34
-42 -31 -9 6 76 17 38 30 82 30 99 0 21 5 31 15 31 8 0 15 -7 15 -16z m-2522
-1562 c4 -24 -7 -29 -25 -11 -14 14 -5 41 11 36 6 -2 12 -13 14 -25z m3970
-120 c2 -7 -2 -10 -12 -6 -9 3 -16 11 -16 16 0 13 23 5 28 -10z"/>
<path d="M1820 1444 c0 -7 71 -36 76 -31 3 2 2 10 -1 18 -5 13 -75 24 -75 13z"/>
<path d="M2122 103 c1 -10 -2 -37 -6 -61 l-8 -42 59 0 c33 0 63 3 67 7 7 7
-92 113 -106 113 -4 0 -6 -8 -6 -17z"/>
</g>
</svg>
