<?xml version="1.0" standalone="no"?>
<!DOCTYPE svg PUBLIC "-//W3C//DTD SVG 20010904//EN"
 "http://www.w3.org/TR/2001/REC-SVG-20010904/DTD/svg10.dtd">
<svg version="1.0" xmlns="http://www.w3.org/2000/svg"
 width="480.000000pt" height="360.000000pt" viewBox="0 0 480.000000 360.000000"
 preserveAspectRatio="xMidYMid meet">
<metadata>
Created by potrace 1.16, written by Peter Selinger 2001-2019
</metadata>
<rect width="1" height="360" fill="#000000"/>
<rect x="479" width="1" height="360" fill="#000000"/>
<rect width="480" height="1" fill="#000000"/>
<rect y="359" width="480" height="1" fill="#000000"/>
<g transform="translate(0.000000,360.000000) scale(0.100000,-0.100000)"
fill="#000000" stroke="none">
<path d="M977 3501 c43 -94 48 -100 88 -116 23 -8 51 -25 60 -35 10 -11 29
-20 42 -20 56 0 125 -61 142 -128 6 -20 13 -67 17 -104 4 -38 10 -68 13 -68 3
0 56 -9 116 -19 242 -42 407 -95 457 -148 l23 -25 -32 -28 c-48 -44 -190 -80
-388 -101 -60 -7 -114 -16 -119 -20 -8 -7 14 -49 94 -183 l23 -38 -23 7 c-24
8 -24 7 -7 -16 9 -13 22 -33 28 -44 12 -20 12 -20 -12 0 -13 10 -48 42 -76 69
-61 58 -61 57 -42 -66 9 -59 8 -92 -6 -185 -17 -115 -35 -149 -35 -68 0 25 -4
45 -10 45 -13 0 -54 -75 -76 -140 l-19 -55 -5 80 -5 80 -14 -40 c-27 -79 -54
-136 -60 -126 -4 6 -25 -4 -50 -25 -24 -19 -46 -32 -48 -30 -3 2 5 23 17 47
38 74 51 120 39 135 -14 17 -29 9 -29 -17 0 -11 -6 -22 -14 -25 -23 -9 -36
-60 -36 -138 0 -89 19 -127 88 -180 42 -32 52 -44 52 -69 0 -41 -54 -91 -117
-106 -65 -17 -73 -26 -73 -80 0 -37 -5 -52 -25 -71 -22 -21 -30 -22 -95 -16
-38 4 -70 4 -70 -1 0 -4 11 -21 24 -38 20 -25 26 -28 40 -16 14 12 16 9 16
-23 0 -28 -8 -45 -34 -72 -22 -23 -41 -59 -56 -103 -12 -38 -34 -84 -49 -102
-25 -29 -33 -32 -78 -31 -31 0 -111 21 -214 55 -90 30 -167 52 -171 48 -3 -3
-3 -71 2 -151 8 -135 10 -146 32 -160 64 -42 179 -141 315 -273 121 -117 160
-148 193 -157 55 -15 123 -78 156 -146 20 -41 42 -66 94 -104 70 -52 150 -132
150 -150 0 -7 392 -10 1209 -10 l1210 0 73 58 c94 75 206 195 237 252 18 35
50 121 51 138 0 1 -20 2 -45 2 -35 0 -52 6 -70 25 -72 71 17 215 185 300 39
20 95 55 123 78 29 23 78 56 109 72 61 32 68 46 48 99 -6 16 -17 26 -30 26
-40 0 -72 34 -116 121 -37 74 -50 91 -79 103 -19 8 -35 21 -35 28 -1 7 -15 22
-32 33 -25 16 -36 33 -50 82 -18 62 -18 62 -76 83 -56 21 -112 63 -112 84 0 6
27 37 60 68 32 32 68 75 79 96 l20 40 -36 90 c-30 76 -39 90 -52 82 -11 -6
-22 -3 -35 8 -17 15 -17 13 3 -25 11 -23 21 -48 21 -54 0 -17 -54 35 -98 95
-41 56 -49 51 -28 -17 20 -65 2 -68 -30 -5 -40 80 -76 139 -81 134 -2 -2 0
-30 6 -62 6 -31 9 -59 7 -62 -3 -2 -15 16 -27 40 -12 23 -25 45 -30 48 -9 6
-23 58 -45 165 -8 39 -17 81 -20 95 -5 22 -11 15 -47 -55 -44 -86 -59 -83 -33
6 20 65 20 75 1 59 -12 -10 -15 -10 -15 4 0 21 -14 20 -78 -4 -100 -38 -142
-21 -216 88 l-48 70 -37 -15 c-20 -9 -51 -29 -70 -45 -46 -41 -81 -53 -99 -34
-23 23 -7 77 47 158 29 43 52 90 56 114 8 51 34 76 100 98 35 12 72 37 125 87
l75 70 -71 -35 c-115 -56 -234 -128 -308 -184 -107 -83 -157 -61 -102 45 64
126 342 537 448 663 168 198 267 200 298 6 18 -114 24 -131 44 -131 13 0 24
16 38 53 22 60 87 180 125 230 l24 32 -1425 0 -1425 0 46 -99z"/>
<path d="M3363 3389 c-66 -62 -372 -493 -360 -506 3 -2 20 4 39 13 18 10 93
41 167 69 l133 50 23 63 c12 34 40 85 62 114 l39 53 -12 65 c-14 74 -30 120
-41 120 -5 0 -27 -19 -50 -41z"/>
<path d="M3396 2885 c-23 -35 -20 -39 15 -18 47 28 56 43 26 43 -15 0 -31 -9
-41 -25z"/>
<path d="M1132 2228 c-14 -14 -16 -48 -3 -48 9 0 25 49 18 56 -2 2 -9 -2 -15
-8z"/>
<path d="M3988 667 c-50 -42 -67 -111 -26 -105 16 2 28 18 45 63 13 32 23 61
23 62 0 9 -18 0 -42 -20z"/>
<path d="M644 418 c3 -13 6 -26 6 -30 0 -15 27 -8 44 11 17 19 17 20 -3 30
-34 19 -54 14 -47 -11z"/>
</g>
</svg>
