<?xml version="1.0" standalone="no"?>
<!DOCTYPE svg PUBLIC "-//W3C//DTD SVG 20010904//EN"
 "http://www.w3.org/TR/2001/REC-SVG-20010904/DTD/svg10.dtd">
<svg version="1.0" xmlns="http://www.w3.org/2000/svg"
 width="480.000000pt" height="360.000000pt" viewBox="0 0 480.000000 360.000000"
 preserveAspectRatio="xMidYMid meet">
<metadata>
Created by potrace 1.16, written by Peter Selinger 2001-2019
</metadata>
<rect width="1" height="360" fill="#000000"/>
<rect x="479" width="1" height="360" fill="#000000"/>
<rect width="480" height="1" fill="#000000"/>
<rect y="359" width="480" height="1" fill="#000000"/>
<g transform="translate(0.000000,360.000000) scale(0.100000,-0.100000)"
fill="#000000" stroke="none">
<path d="M1604 3413 c0 -272 -25 -385 -135 -608 -53 -108 -137 -227 -222 -314
-77 -80 -232 -200 -297 -232 -32 -15 -61 -33 -65 -38 -3 -6 -38 -20 -78 -32
-40 -12 -76 -25 -82 -29 -23 -18 -192 -52 -302 -61 -138 -11 -314 0 -406 27
-16 5 -17 -50 -17 -1060 l0 -1066 1560 0 1560 0 -9 23 c-7 17 -1 48 20 113 16
49 38 133 48 186 11 53 45 170 76 260 51 147 95 303 95 336 0 6 -7 12 -16 12
-8 0 -22 17 -31 38 -14 34 -14 41 2 86 9 27 28 66 41 85 27 42 66 142 89 232
13 51 15 75 6 119 -5 30 -13 83 -16 118 -7 60 -9 63 -45 82 -21 11 -46 30 -54
42 -32 46 -13 128 53 221 16 24 34 67 41 99 10 49 18 63 53 92 40 34 41 35 23
54 -17 20 -17 20 3 27 12 3 21 13 21 21 0 18 -4 18 -39 -1 -27 -14 -31 -13
-67 16 -22 17 -41 34 -44 38 -3 5 -15 14 -28 20 -22 12 -22 14 -8 30 15 16 15
20 2 30 -8 7 -26 11 -40 9 -25 -3 -86 41 -86 63 0 8 -4 8 -13 1 -11 -9 -12 2
-5 61 5 40 11 78 13 86 3 7 -23 44 -60 82 -71 75 -80 104 -39 119 14 6 131 10
261 10 l235 0 61 -32 c74 -40 124 -100 167 -205 18 -43 47 -95 65 -115 76 -90
105 -183 105 -345 0 -56 6 -97 19 -130 10 -26 27 -83 37 -126 16 -69 16 -89 6
-175 -17 -136 -15 -167 13 -237 34 -85 40 -157 26 -294 -16 -147 -19 -161 -33
-158 -6 1 -16 -13 -21 -30 -8 -28 -3 -51 38 -160 26 -71 83 -204 127 -297 99
-210 141 -317 164 -424 l19 -82 202 0 203 0 0 1800 0 1800 -1598 0 -1597 0 -1
-187z"/>
</g>
</svg>
