<?xml version="1.0" standalone="no"?>
<!DOCTYPE svg PUBLIC "-//W3C//DTD SVG 20010904//EN"
 "http://www.w3.org/TR/2001/REC-SVG-20010904/DTD/svg10.dtd">
<svg version="1.0" xmlns="http://www.w3.org/2000/svg"
 width="480.000000pt" height="360.000000pt" viewBox="0 0 480.000000 360.000000"
 preserveAspectRatio="xMidYMid meet">
<metadata>
Created by potrace 1.16, written by Peter Selinger 2001-2019
</metadata>
<rect width="1" height="360" fill="#000000"/>
<rect x="479" width="1" height="360" fill="#000000"/>
<rect width="480" height="1" fill="#000000"/>
<rect y="359" width="480" height="1" fill="#000000"/>
<g transform="translate(0.000000,360.000000) scale(0.100000,-0.100000)"
fill="#000000" stroke="none">
<path d="M0 2614 l0 -986 33 20 c17 11 64 39 102 62 116 69 214 144 328 250
59 55 112 100 117 100 6 0 36 -13 68 -29 31 -16 107 -50 167 -76 61 -27 174
-84 252 -127 198 -111 233 -122 368 -122 83 0 129 5 185 21 l75 21 80 -23 c95
-27 82 -35 186 104 79 105 127 146 219 181 80 31 92 45 84 95 -7 45 -33 83
-44 64 -4 -6 -10 0 -14 16 -12 47 -31 21 -39 -53 -5 -40 -13 -69 -18 -66 -5 3
-9 13 -9 22 0 15 -2 15 -10 2 -7 -11 -10 6 -11 55 l-1 70 -21 -80 c-16 -60
-22 -73 -24 -50 -4 47 -25 177 -30 191 -2 7 -10 11 -17 8 -8 -3 -18 8 -26 25
-15 37 -22 38 -43 9 -16 -22 -16 -22 -16 20 -1 47 -2 48 -37 26 -37 -25 -40
-10 -7 33 45 57 54 78 41 91 -17 17 -32 15 -46 -8 l-12 -20 -41 21 c-23 11
-47 18 -54 15 -7 -2 -23 6 -36 20 l-23 24 25 18 c50 35 99 85 130 134 31 48
32 52 21 94 -7 24 -12 77 -12 117 0 233 144 376 370 368 124 -5 161 -4 247 4
91 9 184 -5 243 -35 54 -28 114 -91 144 -152 l27 -55 29 28 c16 16 37 29 47
29 57 -1 188 -100 224 -171 10 -21 26 -72 34 -114 7 -41 19 -83 24 -94 17 -30
14 -39 -19 -56 -16 -9 -30 -21 -30 -28 0 -6 -7 -24 -15 -40 -12 -24 -12 -32 0
-61 8 -19 26 -98 40 -175 l26 -140 -24 -88 c-45 -158 -70 -211 -62 -127 4 48
4 48 -5 9 -5 -22 -6 -49 -3 -59 4 -14 1 -17 -9 -13 -10 3 -19 -6 -27 -29 -12
-34 -31 -46 -31 -20 0 8 -10 13 -22 12 -15 -1 -24 5 -26 19 -1 11 -5 31 -8 45
l-6 25 -11 -25 c-9 -23 -11 -20 -24 40 -8 36 -26 97 -39 137 -18 53 -24 93
-24 157 0 86 0 86 -26 86 -21 0 -24 -4 -19 -20 5 -15 2 -20 -14 -20 -17 0 -19
-4 -11 -30 11 -39 3 -38 -31 3 l-27 32 -12 -27 c-7 -14 -18 -24 -24 -22 -14 5
-46 -82 -46 -124 0 -17 -5 -34 -10 -37 -6 -3 -10 1 -10 9 0 36 -20 12 -39 -46
l-20 -63 4 55 4 55 -12 -47 c-20 -80 -30 -67 -22 30 5 65 4 92 -4 92 -6 0 -11
-5 -11 -11 0 -5 -15 -24 -34 -42 -21 -20 -36 -45 -40 -69 -6 -33 -4 -38 27
-57 19 -12 40 -21 46 -21 30 0 161 -74 201 -113 25 -24 67 -82 94 -128 27 -46
51 -86 52 -88 2 -2 34 4 71 14 69 18 69 18 181 -9 200 -47 257 -36 517 99 99
52 214 107 255 123 41 17 100 42 130 56 30 14 65 26 77 26 16 0 53 -31 115
-94 137 -138 302 -263 456 -345 l22 -12 0 1026 0 1025 -2400 0 -2400 0 0 -986z"/>
<path d="M2920 2555 c-36 -81 -37 -99 -5 -130 38 -39 51 -32 58 28 7 59 -1
155 -15 163 -4 3 -22 -25 -38 -61z"/>
<path d="M575 1932 c-5 -4 -28 -26 -49 -50 -37 -38 -39 -43 -26 -66 7 -14 10
-32 6 -42 -4 -10 0 -21 9 -28 10 -7 21 -40 27 -84 11 -72 11 -72 -19 -114
-188 -267 -225 -318 -235 -318 -11 0 -6 154 11 348 8 93 11 91 -71 38 -58 -37
-77 -73 -52 -98 21 -21 33 -134 18 -164 -7 -13 -54 -80 -104 -148 l-90 -123 0
-542 0 -541 878 2 877 3 28 80 c16 44 43 136 62 205 38 140 66 218 121 335 30
62 38 93 40 140 1 33 5 112 8 175 4 63 4 132 -1 154 l-8 39 -35 -87 c-53 -133
-84 -166 -260 -284 -203 -136 -346 -220 -395 -233 -22 -6 -98 -33 -169 -61
-127 -49 -132 -50 -210 -45 -89 5 -191 38 -257 81 -55 37 -42 50 40 40 94 -11
124 -8 233 26 67 21 101 37 108 50 16 30 4 40 -30 27 -25 -9 -33 -9 -46 5 -9
9 -13 21 -10 27 27 44 183 65 259 36 27 -10 51 -14 59 -9 7 5 94 74 193 153
99 79 203 159 231 177 50 32 51 34 58 90 4 32 18 96 32 143 39 129 39 124 4
143 -31 18 -39 41 -17 55 6 4 18 16 25 25 12 14 11 21 -2 40 -9 12 -16 37 -16
54 l0 32 -76 7 c-92 9 -105 1 -76 -47 11 -18 27 -53 35 -78 l15 -46 -61 -179
c-34 -99 -67 -189 -73 -199 -11 -19 -12 -19 -22 0 -6 11 -19 65 -30 119 -11
55 -28 139 -38 187 -17 84 -17 89 1 128 10 22 29 55 41 72 13 17 21 35 18 39
-6 10 -206 12 -253 3 -22 -5 -29 -10 -22 -18 6 -6 14 -40 20 -74 11 -70 7 -90
-38 -162 -16 -25 -61 -98 -101 -163 -40 -65 -78 -116 -84 -114 -8 3 -10 65 -7
213 l4 209 28 42 c16 23 43 51 59 63 17 12 30 28 30 35 0 19 -103 88 -197 132
-61 30 -76 34 -84 22 -5 -8 -6 -21 -3 -29 4 -8 9 -49 11 -90 l4 -75 -111 -160
c-61 -88 -120 -169 -130 -180 -20 -19 -20 -19 -20 50 1 39 7 141 14 227 l12
156 39 44 c21 24 49 49 62 56 13 7 23 18 23 25 0 7 -44 33 -98 60 -105 51
-102 50 -117 39z"/>
<path d="M4093 1844 c-51 -24 -93 -48 -93 -52 0 -4 12 -15 28 -24 15 -9 46
-36 69 -60 l42 -43 36 -190 c20 -104 40 -207 45 -228 9 -41 3 -80 -11 -71 -5
3 -74 92 -153 199 l-145 193 -6 70 c-5 42 -3 77 3 88 7 13 7 26 1 36 -9 16
-13 16 -62 -3 -56 -22 -187 -100 -206 -123 -9 -11 -8 -17 5 -28 39 -31 106
-105 115 -126 5 -13 20 -112 34 -220 14 -108 28 -214 32 -234 3 -24 2 -38 -5
-38 -6 0 -23 17 -39 38 -31 40 -37 49 -168 251 l-86 134 3 71 c2 39 7 78 12
87 5 13 0 18 -25 23 -44 9 -249 8 -249 -2 0 -4 9 -13 19 -19 10 -6 35 -38 55
-71 32 -53 35 -64 31 -113 -3 -30 -9 -137 -14 -238 -5 -101 -13 -187 -18 -192
-18 -18 -40 25 -126 241 l-86 215 13 63 c8 35 21 71 31 82 27 30 10 40 -75 40
-64 0 -83 -4 -97 -19 -10 -10 -28 -22 -40 -25 -22 -7 -22 -9 -8 -36 8 -16 25
-38 36 -49 24 -22 18 -38 -18 -52 -17 -6 -23 -14 -19 -27 8 -25 43 -244 56
-342 6 -50 25 -122 45 -175 54 -141 196 -678 221 -832 l7 -43 758 0 759 0 0
555 0 554 -94 91 c-90 87 -94 93 -105 151 -7 33 -10 72 -7 87 11 53 -6 91 -53
119 -36 21 -43 23 -38 9 4 -10 21 -70 38 -134 17 -64 39 -148 50 -187 21 -76
24 -105 10 -105 -8 0 -62 60 -255 284 -83 97 -85 101 -92 163 -4 42 -2 73 6
93 7 16 10 39 7 50 -3 11 1 27 9 34 8 8 14 17 14 21 0 12 -85 105 -95 104 -5
0 -52 -20 -102 -45z"/>
<path d="M28 1534 c-16 -8 -28 -22 -28 -31 0 -13 5 -12 28 8 15 13 31 27 37
31 16 13 -8 8 -37 -8z"/>
<path d="M2790 940 c0 -24 5 -72 11 -107 9 -48 8 -67 -1 -78 -10 -12 0 -40 48
-147 67 -149 82 -190 112 -309 39 -157 91 -299 110 -299 16 0 16 3 4 38 -7 20
-13 77 -14 127 0 83 -3 98 -46 200 -25 61 -70 171 -101 245 -31 74 -68 186
-83 248 -16 63 -31 116 -34 119 -3 4 -6 -13 -6 -37z"/>
</g>
</svg>
