<?xml version="1.0" standalone="no"?>
<!DOCTYPE svg PUBLIC "-//W3C//DTD SVG 20010904//EN"
 "http://www.w3.org/TR/2001/REC-SVG-20010904/DTD/svg10.dtd">
<svg version="1.0" xmlns="http://www.w3.org/2000/svg"
 width="480.000000pt" height="360.000000pt" viewBox="0 0 480.000000 360.000000"
 preserveAspectRatio="xMidYMid meet">
<metadata>
Created by potrace 1.16, written by Peter Selinger 2001-2019
</metadata>
<rect width="1" height="360" fill="#000000"/>
<rect x="479" width="1" height="360" fill="#000000"/>
<rect width="480" height="1" fill="#000000"/>
<rect y="359" width="480" height="1" fill="#000000"/>
<g transform="translate(0.000000,360.000000) scale(0.100000,-0.100000)"
fill="#000000" stroke="none">
<path d="M2712 3100 c-24 -5 -62 -20 -85 -33 -54 -30 -89 -49 -105 -56 -8 -4
-20 -22 -27 -41 -7 -19 -21 -55 -30 -79 -16 -44 -38 -238 -29 -253 3 -5 9 -6
14 -3 4 3 15 -6 23 -18 8 -13 34 -29 57 -36 47 -14 57 -30 40 -62 -11 -19 -10
-24 6 -36 11 -7 43 -36 71 -63 55 -51 70 -58 104 -40 15 9 21 7 26 -5 10 -28
-19 -70 -85 -125 -55 -45 -131 -133 -132 -152 0 -3 9 -4 20 -1 11 3 20 3 20 0
0 -3 -18 -43 -41 -89 -38 -78 -40 -87 -36 -153 3 -38 8 -80 12 -92 7 -22 5
-21 -66 11 -41 19 -94 40 -118 47 -41 12 -78 49 -67 67 3 4 -2 28 -10 52 -11
33 -13 50 -5 67 6 12 8 29 5 37 -3 8 3 16 15 19 28 7 26 34 -3 77 -13 19 -26
45 -30 58 -8 23 -25 28 -54 13 -9 -5 -39 -17 -66 -26 -66 -24 -78 -54 -82
-208 -2 -65 -8 -144 -15 -175 -22 -107 -6 -283 27 -296 24 -9 16 -50 -41 -207
-68 -186 -69 -201 -16 -219 21 -7 43 -10 49 -6 19 12 62 -12 62 -35 0 -33 79
-131 101 -126 10 3 23 -1 30 -9 15 -19 39 -18 39 1 0 9 -9 35 -20 57 -11 23
-20 45 -20 48 0 3 17 6 38 7 72 2 97 2 116 2 10 0 23 4 29 10 13 13 17 133 6
201 -10 57 -39 305 -39 328 0 7 11 17 25 24 21 9 32 6 85 -28 l60 -39 -6 -50
c-3 -28 -1 -63 5 -78 16 -40 -17 -252 -76 -497 -45 -188 -94 -350 -174 -577
-49 -139 -92 -266 -95 -283 l-6 -30 727 0 727 0 -7 43 c-15 100 -85 269 -163
392 -40 63 -102 204 -187 420 -91 235 -112 278 -205 425 -39 61 -68 115 -65
120 3 5 -4 37 -16 72 -23 66 -30 192 -15 271 6 31 11 37 33 37 22 0 24 3 19
26 -20 79 -20 85 10 112 16 15 32 26 36 25 5 -2 8 4 8 12 0 8 9 15 20 15 11 0
20 3 20 8 0 26 -44 233 -56 261 -8 20 -11 37 -5 40 5 3 18 33 30 66 15 45 20
53 21 32 0 -49 23 -24 38 41 7 34 18 62 23 62 6 0 7 9 4 20 -4 11 -8 37 -9 58
-2 20 -12 55 -23 77 -11 22 -26 74 -33 115 -19 117 -44 171 -108 238 -86 89
-123 109 -212 116 -41 2 -95 1 -118 -4z"/>
</g>
</svg>
