<?xml version="1.0" standalone="no"?>
<!DOCTYPE svg PUBLIC "-//W3C//DTD SVG 20010904//EN"
 "http://www.w3.org/TR/2001/REC-SVG-20010904/DTD/svg10.dtd">
<svg version="1.0" xmlns="http://www.w3.org/2000/svg"
 width="480.000000pt" height="360.000000pt" viewBox="0 0 480.000000 360.000000"
 preserveAspectRatio="xMidYMid meet">
<metadata>
Created by potrace 1.16, written by Peter Selinger 2001-2019
</metadata>
<rect width="1" height="360" fill="#000000"/>
<rect x="479" width="1" height="360" fill="#000000"/>
<rect width="480" height="1" fill="#000000"/>
<rect y="359" width="480" height="1" fill="#000000"/>
<g transform="translate(0.000000,360.000000) scale(0.100000,-0.100000)"
fill="#000000" stroke="none">
<path d="M0 2360 c0 -985 3 -1240 13 -1240 6 0 39 5 72 10 33 5 186 24 340 40
331 37 594 69 875 110 518 74 898 120 1160 140 80 6 170 13 200 15 30 3 224 8
430 11 533 10 680 -2 1105 -88 219 -44 266 -51 380 -52 72 0 151 3 178 7 l47
8 0 640 0 641 -74 -79 c-123 -131 -190 -214 -241 -301 -101 -170 -180 -228
-216 -161 -13 25 -24 24 -84 -6 -27 -13 -74 -30 -103 -36 -46 -11 -55 -10 -69
4 -15 15 -14 19 12 56 21 32 25 44 16 54 -9 11 -2 24 29 60 22 25 40 50 40 55
0 6 12 19 27 30 22 16 25 23 16 34 -7 7 -8 19 -4 26 9 16 58 42 76 42 12 0 30
27 27 42 -1 4 20 10 46 14 53 7 85 32 112 84 40 78 89 242 111 373 27 159 27
158 -61 252 -25 28 -54 62 -64 78 -36 54 -127 27 -184 -54 -41 -59 -71 -79
-119 -79 -43 0 -86 44 -78 80 15 60 124 207 236 317 l114 113 -487 0 c-269 0
-488 -4 -488 -9 0 -4 -17 -40 -39 -78 -43 -80 -88 -184 -137 -321 -51 -143
-92 -228 -157 -327 -76 -114 -87 -127 -109 -122 -10 3 -21 1 -24 -4 -7 -11
-34 -5 -152 33 -52 16 -95 28 -97 26 -4 -4 -26 -62 -74 -203 -21 -60 -44 -123
-52 -140 -22 -50 -129 -204 -161 -230 -37 -31 -78 -32 -106 -2 -31 33 -28 92
8 184 41 101 39 113 -7 77 -55 -41 -59 -49 -72 -138 -11 -79 -11 -80 15 -118
33 -48 73 -88 88 -88 6 0 20 -8 31 -16 19 -15 19 -15 -10 -9 -28 6 -29 5 -12
-8 12 -10 14 -16 6 -19 -6 -2 5 -12 25 -23 42 -23 53 -45 31 -61 -24 -18 -159
5 -204 35 -23 15 -23 14 -17 -9 4 -14 10 -34 12 -45 3 -11 15 -41 26 -67 17
-38 19 -53 11 -71 -7 -15 -8 -29 -2 -38 12 -19 11 -76 -1 -84 -6 -4 -31 5 -55
19 l-45 25 -1 -22 c-1 -12 -1 -50 -1 -84 2 -97 -31 -97 -105 -1 -40 52 -47 58
-54 42 -19 -53 -65 -51 -93 4 -37 73 -48 161 -41 321 7 149 9 163 57 315 56
179 81 234 163 356 51 74 205 288 271 375 l22 30 -55 60 c-68 74 -110 133
-119 169 -5 23 4 41 64 119 39 51 80 101 91 111 12 11 21 23 21 28 0 4 -524 8
-1165 8 l-1165 0 0 -1240z"/>
<path d="M0 490 l0 -490 2400 0 2400 0 0 394 c0 298 -3 397 -12 402 -7 4 -74
10 -151 12 -152 5 -209 -2 -451 -54 -322 -70 -453 -84 -841 -91 -480 -7 -749
6 -1275 62 -263 28 -365 41 -780 99 -135 19 -288 39 -340 45 -379 45 -410 49
-590 66 -144 14 -196 20 -332 40 l-28 5 0 -490z"/>
</g>
</svg>
