<?xml version="1.0" standalone="no"?>
<!DOCTYPE svg PUBLIC "-//W3C//DTD SVG 20010904//EN"
 "http://www.w3.org/TR/2001/REC-SVG-20010904/DTD/svg10.dtd">
<svg version="1.0" xmlns="http://www.w3.org/2000/svg"
 width="480.000000pt" height="360.000000pt" viewBox="0 0 480.000000 360.000000"
 preserveAspectRatio="xMidYMid meet">
<metadata>
Created by potrace 1.16, written by Peter Selinger 2001-2019
</metadata>
<rect width="1" height="360" fill="#000000"/>
<rect x="479" width="1" height="360" fill="#000000"/>
<rect width="480" height="1" fill="#000000"/>
<rect y="359" width="480" height="1" fill="#000000"/>
<g transform="translate(0.000000,360.000000) scale(0.100000,-0.100000)"
fill="#000000" stroke="none">
<path d="M3311 3545 c-112 -25 -204 -67 -249 -115 -16 -17 -24 -19 -46 -10
-15 5 -74 10 -130 10 -91 0 -109 -3 -150 -25 -26 -14 -50 -25 -54 -25 -4 0
-15 13 -24 29 -57 100 -367 141 -648 86 -136 -27 -153 -37 -175 -101 -11 -34
-11 -41 1 -56 11 -11 12 -18 4 -23 -8 -5 -8 -11 1 -21 6 -7 12 -34 13 -58 1
-26 9 -53 19 -64 9 -10 17 -31 17 -45 0 -17 14 -42 35 -66 21 -23 32 -42 25
-46 -16 -10 -12 -19 30 -65 29 -31 37 -46 28 -51 -9 -6 -6 -14 11 -32 20 -22
21 -29 12 -63 -17 -60 -13 -165 9 -267 28 -126 29 -127 47 -120 14 6 15 0 10
-42 -13 -90 -26 -127 -45 -121 -15 5 -23 -19 -56 -167 -22 -94 -46 -179 -53
-188 -12 -15 -11 -17 10 -23 l23 -5 0 -168 c-1 -235 19 -294 43 -131 22 146
55 262 77 268 11 3 20 16 22 30 8 62 76 296 89 307 12 10 12 13 -3 21 -14 8
-15 14 -6 38 l10 29 12 -30 c10 -25 9 -45 -5 -114 -9 -46 -19 -136 -22 -200
-6 -107 -8 -118 -31 -139 -23 -22 -24 -28 -19 -88 l6 -64 -46 -43 c-74 -67
-79 -89 -47 -205 30 -107 53 -231 47 -247 -2 -6 -23 -20 -46 -33 -58 -31 -99
-94 -95 -147 3 -40 4 -41 112 -120 24 -17 29 -29 33 -80 3 -33 11 -90 18 -127
l12 -66 -64 -99 c-35 -54 -71 -114 -80 -133 -9 -19 -27 -48 -39 -65 -12 -16
-31 -48 -41 -70 -11 -22 -39 -73 -62 -113 -23 -41 -41 -76 -38 -78 2 -2 364
-3 804 -2 l800 3 -49 190 -49 190 5 160 c3 88 9 174 15 190 5 17 10 25 10 19
2 -21 52 -63 79 -66 22 -2 26 -8 24 -28 -1 -13 4 -47 12 -75 8 -27 17 -70 20
-95 3 -25 15 -94 26 -155 11 -60 25 -155 31 -210 6 -55 13 -106 15 -112 3 -10
93 -13 409 -13 223 0 405 4 405 8 0 4 -7 62 -16 127 -21 164 -47 267 -89 347
-55 108 -246 389 -297 439 l-48 46 0 86 c0 83 -1 86 -30 111 -44 36 -103 50
-156 37 -23 -6 -49 -9 -56 -6 -16 6 -78 109 -133 220 -30 61 -59 99 -119 158
-77 76 -78 79 -71 115 4 20 7 46 6 57 -5 57 -10 229 -6 220 2 -5 11 -37 20
-69 18 -66 35 -62 35 9 0 37 36 344 46 392 4 21 8 22 81 18 76 -3 77 -3 111
31 28 28 33 39 28 62 -9 36 -82 187 -139 287 -26 43 -44 81 -42 83 2 2 38 -10
81 -27 98 -40 164 -42 180 -7 8 18 8 28 0 36 -11 11 0 23 29 33 6 2 5 10 -3
20 -11 13 -10 19 7 36 14 14 19 30 16 58 -2 21 2 53 8 71 8 24 8 40 -1 64 -10
26 -9 35 3 48 8 9 13 19 10 21 -6 6 -17 79 -15 97 2 16 2 79 0 117 -1 16 -4
32 -8 35 -4 3 -21 32 -39 65 -17 33 -42 66 -56 73 -33 16 -206 42 -277 41 -30
0 -84 -7 -119 -14z m53 -2581 c11 -23 15 -47 11 -65 -10 -43 -23 -35 -30 19
-4 26 -9 55 -12 65 -8 31 13 18 31 -19z"/>
</g>
</svg>
