<?xml version="1.0" standalone="no"?>
<!DOCTYPE svg PUBLIC "-//W3C//DTD SVG 20010904//EN"
 "http://www.w3.org/TR/2001/REC-SVG-20010904/DTD/svg10.dtd">
<svg version="1.0" xmlns="http://www.w3.org/2000/svg"
 width="480.000000pt" height="360.000000pt" viewBox="0 0 480.000000 360.000000"
 preserveAspectRatio="xMidYMid meet">
<metadata>
Created by potrace 1.16, written by Peter Selinger 2001-2019
</metadata>
<rect width="1" height="360" fill="#000000"/>
<rect x="479" width="1" height="360" fill="#000000"/>
<rect width="480" height="1" fill="#000000"/>
<rect y="359" width="480" height="1" fill="#000000"/>
<g transform="translate(0.000000,360.000000) scale(0.100000,-0.100000)"
fill="#000000" stroke="none">
<path d="M1312 3568 c-104 -176 -210 -468 -228 -633 -4 -33 -13 -75 -20 -92
-12 -30 -4 -47 10 -24 16 25 162 96 270 132 143 48 219 56 352 39 214 -27 408
-121 542 -264 71 -76 153 -195 183 -264 57 -131 72 -194 77 -328 5 -160 -15
-254 -89 -414 -60 -131 -69 -170 -70 -317 -2 -124 9 -185 54 -318 58 -169 106
-245 240 -384 73 -75 112 -102 230 -164 108 -58 183 -76 351 -84 147 -7 209 1
369 49 55 16 107 26 117 23 14 -5 24 3 40 32 l21 38 -6 -80 c-3 -44 -10 -98
-16 -120 -5 -22 -12 -98 -14 -170 -3 -72 -7 -151 -10 -177 l-6 -48 546 0 545
0 -1 1258 c-1 1248 -1 1256 -19 1159 -97 -521 -348 -1009 -720 -1400 -73 -77
-110 -99 -77 -45 8 12 17 37 20 55 4 18 38 101 76 185 103 224 154 412 171
623 28 358 -34 723 -166 982 -134 261 -390 530 -684 717 l-104 66 -982 0 -982
0 -20 -32z m1923 -1774 c94 -38 123 -83 126 -194 3 -112 -41 -239 -92 -265
-34 -18 -52 -18 -154 -2 -76 11 -82 14 -131 63 -78 79 -136 206 -120 268 14
56 83 108 196 147 35 12 128 3 175 -17z"/>
<path d="M1007 2736 c-5 -16 -35 -53 -69 -85 -120 -110 -248 -254 -248 -280 0
-6 -37 -52 -81 -103 -310 -352 -474 -648 -585 -1063 -24 -90 -24 -91 -24 -625
0 -294 3 -545 6 -558 l6 -22 651 0 651 0 -129 86 c-219 145 -326 266 -445 504
-52 102 -124 310 -154 445 -55 245 -76 678 -42 865 19 104 71 254 119 340 38
70 44 78 76 93 17 8 41 41 72 100 27 52 72 117 110 160 82 91 101 120 97 149
-3 21 -4 21 -11 -6z"/>
<path d="M1460 2170 c-95 -33 -126 -94 -117 -235 6 -101 38 -171 99 -215 55
-40 80 -45 155 -33 83 15 142 44 194 98 55 56 68 81 69 126 0 31 -9 47 -57
101 -32 35 -75 84 -96 109 -32 40 -45 48 -94 58 -74 15 -88 14 -153 -9z"/>
</g>
</svg>
