<?xml version="1.0" standalone="no"?>
<!DOCTYPE svg PUBLIC "-//W3C//DTD SVG 20010904//EN"
 "http://www.w3.org/TR/2001/REC-SVG-20010904/DTD/svg10.dtd">
<svg version="1.0" xmlns="http://www.w3.org/2000/svg"
 width="480.000000pt" height="360.000000pt" viewBox="0 0 480.000000 360.000000"
 preserveAspectRatio="xMidYMid meet">
<metadata>
Created by potrace 1.16, written by Peter Selinger 2001-2019
</metadata>
<rect width="1" height="360" fill="#000000"/>
<rect x="479" width="1" height="360" fill="#000000"/>
<rect width="480" height="1" fill="#000000"/>
<rect y="359" width="480" height="1" fill="#000000"/>
<g transform="translate(0.000000,360.000000) scale(0.100000,-0.100000)"
fill="#000000" stroke="none">
<path d="M3130 3193 c-29 -12 -105 -68 -150 -112 -82 -80 -83 -80 -139 -28
-63 59 -120 87 -205 101 -69 12 -132 8 -411 -24 -165 -19 -262 -89 -316 -227
-19 -48 -23 -78 -23 -178 -1 -66 3 -130 7 -142 7 -19 0 -32 -43 -77 -42 -44
-59 -55 -88 -58 -35 -3 -37 -5 -37 -40 0 -20 -6 -42 -12 -49 -7 -7 -13 -16
-13 -20 0 -4 42 -35 92 -69 l93 -61 18 22 18 22 24 -23 c14 -13 25 -30 25 -37
0 -8 5 -11 10 -8 34 21 -34 -133 -70 -158 -27 -19 -16 -27 26 -20 34 6 35 5
28 -23 -4 -16 -11 -39 -15 -52 -15 -40 -9 -38 32 8 25 27 43 40 46 33 2 -7 15
-28 29 -48 13 -20 24 -44 25 -53 0 -9 7 -2 16 18 l15 34 19 -24 c10 -14 19
-34 19 -44 0 -11 3 -16 7 -13 3 4 12 2 20 -4 16 -14 16 -13 4 29 -12 42 -2 41
27 -3 23 -36 46 -48 35 -17 -6 14 -4 15 8 5 13 -10 14 -7 11 25 l-3 37 21 -25
c11 -14 27 -37 36 -52 14 -27 14 -29 -18 -48 -18 -11 -64 -30 -103 -41 -192
-56 -209 -63 -246 -100 -34 -34 -111 -173 -137 -247 -6 -18 -19 -35 -28 -39
-9 -3 -60 -1 -112 5 -123 14 -187 45 -315 154 -181 153 -202 168 -288 213
-106 55 -113 63 -104 115 5 32 4 40 -8 40 -8 0 -68 -57 -132 -126 -205 -221
-341 -333 -592 -489 -256 -159 -233 -141 -233 -180 0 -19 3 -35 8 -35 4 0 50
7 102 15 156 24 169 22 290 -41 65 -34 114 -55 124 -51 9 4 37 37 64 74 26 37
68 90 94 118 47 49 48 50 75 35 16 -9 39 -39 56 -73 16 -31 32 -55 36 -52 5 2
11 24 15 47 9 53 21 68 58 68 65 0 182 -90 194 -149 4 -17 11 -34 16 -37 5 -4
45 10 89 31 43 20 96 39 117 42 55 7 120 -24 191 -92 32 -30 66 -55 75 -55 10
0 66 34 124 75 107 77 139 88 135 47 -2 -13 5 -27 17 -34 25 -16 25 -46 4
-223 -18 -154 -14 -169 60 -205 60 -29 111 -27 141 6 14 15 25 33 25 40 0 8 5
14 11 14 16 0 3 -104 -22 -186 -14 -44 -28 -69 -45 -81 -14 -9 -23 -22 -20
-29 6 -15 -22 -92 -42 -116 -10 -12 -12 -29 -7 -56 5 -34 11 -41 35 -46 l29
-5 -29 -67 c-17 -36 -30 -68 -30 -70 0 -2 256 -4 569 -4 l570 0 -41 72 c-23
40 -52 90 -65 111 l-23 37 25 50 26 51 -26 33 c-14 18 -25 38 -25 45 0 6 -11
16 -24 21 -19 7 -26 19 -31 53 -12 76 -5 91 40 98 55 7 104 35 115 65 15 39
12 195 -6 306 -16 105 -12 128 25 128 10 0 25 6 35 13 17 12 17 14 3 20 -15 6
-57 76 -57 96 0 5 9 13 20 16 11 4 34 18 50 32 29 24 33 25 78 13 62 -16 253
-107 357 -170 45 -27 86 -50 90 -50 4 0 30 20 58 44 70 58 107 76 162 76 50 0
85 -15 159 -67 47 -33 50 -34 63 -17 7 10 13 23 13 29 0 32 124 102 190 107
l35 3 3 -47 c2 -27 7 -48 12 -48 5 0 21 23 37 52 34 64 72 89 99 68 9 -8 39
-61 65 -117 26 -55 53 -104 59 -108 6 -4 43 1 81 11 l69 18 0 197 0 198 -56
63 c-50 57 -130 172 -243 351 -24 37 -49 67 -57 67 -7 0 -18 -17 -24 -38 -13
-48 -30 -64 -103 -91 -88 -32 -151 -66 -277 -151 -227 -152 -272 -166 -509
-156 -171 6 -191 3 -191 -35 0 -21 -3 -22 -74 -19 -69 2 -95 15 -108 51 -26
74 -98 208 -123 228 -36 27 -104 47 -228 66 -112 16 -167 33 -167 51 0 15 48
74 60 74 4 0 6 -10 4 -22 -3 -15 1 -12 11 10 20 42 28 41 19 -3 -8 -44 9 -47
31 -4 19 36 38 33 45 -7 5 -27 8 -23 40 48 19 43 38 78 41 78 3 0 11 -11 17
-25 12 -26 32 -34 32 -12 1 35 17 39 55 13 21 -15 40 -25 42 -23 2 2 -8 24
-22 48 -33 59 -32 69 8 69 19 0 37 3 40 6 4 4 -12 25 -34 46 -22 22 -49 58
-59 81 l-19 42 22 5 c12 3 22 12 22 20 0 8 6 30 14 48 11 26 19 32 42 32 22 0
32 6 39 26 20 52 13 81 -29 111 -41 29 -88 89 -78 99 3 4 54 -12 112 -34 58
-22 107 -37 109 -33 14 23 16 131 3 174 -14 45 -9 66 13 52 6 -3 16 -3 22 1 7
5 19 9 28 10 61 6 107 17 119 29 11 11 9 17 -13 37 -123 106 -171 180 -196
297 -15 74 -22 84 -50 74z m-485 -1282 c3 -5 1 -12 -5 -16 -5 -3 -10 1 -10 9
0 18 6 21 15 7z"/>
</g>
</svg>
