<?xml version="1.0" standalone="no"?>
<!DOCTYPE svg PUBLIC "-//W3C//DTD SVG 20010904//EN"
 "http://www.w3.org/TR/2001/REC-SVG-20010904/DTD/svg10.dtd">
<svg version="1.0" xmlns="http://www.w3.org/2000/svg"
 width="480.000000pt" height="360.000000pt" viewBox="0 0 480.000000 360.000000"
 preserveAspectRatio="xMidYMid meet">
<metadata>
Created by potrace 1.16, written by Peter Selinger 2001-2019
</metadata>
<rect width="1" height="360" fill="#000000"/>
<rect x="479" width="1" height="360" fill="#000000"/>
<rect width="480" height="1" fill="#000000"/>
<rect y="359" width="480" height="1" fill="#000000"/>
<g transform="translate(0.000000,360.000000) scale(0.100000,-0.100000)"
fill="#000000" stroke="none">
<path d="M0 1800 l0 -1800 2400 0 2400 0 0 1800 0 1800 -2400 0 -2400 0 0
-1800z m2235 948 c7 -16 20 -24 43 -26 37 -4 38 -8 12 -42 -27 -35 -25 -38 17
-37 29 1 44 9 65 33 39 44 76 57 152 52 57 -3 72 -9 142 -56 128 -84 122 -79
100 -88 -12 -5 -38 -1 -65 10 -59 23 -97 30 -104 19 -3 -4 -7 -25 -8 -47 l-4
-38 61 -22 c69 -25 124 -61 124 -81 0 -7 14 -16 30 -20 17 -4 30 -11 30 -16 0
-5 8 -9 18 -9 25 -1 57 -27 40 -33 -9 -3 -8 -9 7 -21 20 -15 20 -15 -1 -16
-12 0 -25 -7 -28 -16 -5 -12 -14 -15 -37 -10 -24 4 -35 0 -56 -20 -20 -20 -32
-25 -55 -20 -20 4 -27 2 -22 -6 5 -7 2 -9 -7 -6 -52 20 -57 19 -54 -4 3 -29
23 -78 30 -78 3 0 23 18 44 40 40 42 84 53 95 24 3 -9 6 -37 6 -63 0 -75 8
-80 148 -93 88 -9 122 -15 122 -25 0 -9 -14 -13 -40 -13 -47 0 -53 -15 -10
-23 17 -4 30 -13 30 -20 0 -11 17 -11 93 4 143 28 357 24 357 -7 0 -8 7 -14
16 -14 8 0 12 -4 9 -10 -9 -14 13 -50 31 -50 11 0 14 -6 10 -16 -5 -13 -1 -14
24 -9 17 4 29 3 28 -2 -2 -4 2 -9 7 -11 6 -2 14 -10 18 -18 4 -8 16 -14 25
-15 12 0 11 -3 -5 -9 -22 -9 -33 -40 -14 -40 5 0 8 -13 7 -30 0 -16 -5 -30
-10 -30 -4 0 -2 -7 5 -17 13 -15 11 -16 -16 -11 -26 5 -28 5 -12 -7 18 -13 17
-14 -2 -20 -11 -3 -29 -1 -40 4 -25 14 -32 14 -29 0 2 -5 -16 -21 -40 -34 -39
-21 -41 -24 -25 -34 15 -9 11 -10 -19 -7 -21 3 -47 12 -60 20 -39 27 -45 17
-8 -14 47 -41 28 -38 -31 5 -52 39 -110 57 -231 74 -108 15 -164 29 -207 50
-23 12 -62 20 -102 22 -71 3 -66 10 -53 -78 11 -69 -40 -103 -69 -47 l-14 27
-11 -32 c-7 -20 -18 -31 -30 -31 -25 0 -32 18 -32 85 l0 53 -57 6 c-32 4 -87
3 -123 -2 -103 -15 -132 -5 -134 45 -1 25 -5 28 -50 35 -26 4 -125 11 -220 17
-94 6 -191 14 -216 17 -58 7 -44 -6 37 -35 34 -13 64 -28 66 -35 3 -7 23 -18
46 -25 43 -12 46 -17 32 -39 -7 -11 -24 -7 -87 19 -44 17 -84 36 -91 41 -6 5
-42 22 -79 38 l-67 28 -27 -19 c-31 -23 -58 -17 -66 17 -6 24 -15 27 -107 39
-40 5 -51 12 -67 38 -31 50 -15 56 115 44 39 -4 106 -11 150 -17 126 -16 414
-40 481 -40 58 0 64 2 92 34 16 19 46 69 67 112 32 67 36 80 25 98 -7 11 -20
47 -30 81 -13 48 -22 63 -46 74 -40 19 -64 41 -64 59 0 25 41 62 70 62 34 0
50 -17 50 -53 0 -16 12 -49 27 -75 23 -38 28 -43 33 -27 3 11 13 35 23 53 21
39 9 72 -26 72 -25 0 -52 34 -52 65 0 11 -8 21 -18 23 -18 4 -99 54 -159 99
-57 44 -61 90 -7 79 35 -7 35 -4 7 35 l-23 31 30 24 c37 30 57 30 70 2z"/>
<path d="M2420 2097 c-11 -24 -35 -70 -55 -102 -32 -54 -45 -95 -28 -95 30 0
163 115 163 141 0 12 -50 99 -57 99 -2 0 -13 -20 -23 -43z"/>
<path d="M2790 2009 c0 -18 82 -47 155 -54 90 -9 77 5 -36 39 -95 28 -119 32
-119 15z"/>
</g>
</svg>
