<?xml version="1.0" standalone="no"?>
<!DOCTYPE svg PUBLIC "-//W3C//DTD SVG 20010904//EN"
 "http://www.w3.org/TR/2001/REC-SVG-20010904/DTD/svg10.dtd">
<svg version="1.0" xmlns="http://www.w3.org/2000/svg"
 width="480.000000pt" height="360.000000pt" viewBox="0 0 480.000000 360.000000"
 preserveAspectRatio="xMidYMid meet">
<metadata>
Created by potrace 1.16, written by Peter Selinger 2001-2019
</metadata>
<rect width="1" height="360" fill="#000000"/>
<rect x="479" width="1" height="360" fill="#000000"/>
<rect width="480" height="1" fill="#000000"/>
<rect y="359" width="480" height="1" fill="#000000"/>
<g transform="translate(0.000000,360.000000) scale(0.100000,-0.100000)"
fill="#000000" stroke="none">
<path d="M2866 3548 c-26 -56 -54 -88 -126 -141 -90 -66 -110 -147 -65 -259
l25 -62 -23 -35 c-13 -20 -50 -67 -82 -106 -31 -38 -71 -96 -88 -127 -31 -55
-34 -58 -72 -58 -28 0 -57 -11 -97 -36 l-58 -35 -43 25 c-24 15 -50 26 -57 26
-7 0 -33 20 -56 45 -24 24 -56 47 -71 51 -42 10 -53 23 -53 62 0 96 -94 151
-187 110 l-45 -20 34 -29 c43 -35 80 -116 72 -157 -4 -21 -2 -31 9 -35 21 -8
77 -122 77 -156 0 -32 34 -81 56 -81 13 0 12 -5 -4 -27 -53 -75 -146 -323
-122 -323 5 0 12 9 15 20 9 29 25 14 25 -24 0 -42 74 -160 95 -152 54 20 46
-137 -30 -637 -59 -380 -72 -536 -56 -667 7 -55 9 -105 6 -110 -16 -25 -25 -4
-25 58 0 117 -31 201 -102 278 -40 43 -41 46 -29 82 21 68 -17 130 -84 135
-25 2 -34 -5 -60 -45 -26 -41 -33 -46 -55 -40 -14 4 -61 7 -105 7 -106 -1
-171 -30 -267 -122 -94 -90 -119 -145 -126 -274 l-5 -97 -37 -11 c-54 -16
-148 -81 -202 -138 -88 -95 -158 -274 -158 -404 l0 -39 522 2 523 3 5 30 5 30
14 -33 c13 -30 17 -33 50 -30 l36 3 -4 45 c-2 25 -7 52 -11 61 -11 19 -3 30
35 49 23 12 32 25 39 60 5 25 10 46 11 48 2 2 22 -3 45 -10 l42 -13 -7 -40
c-3 -22 -10 -61 -14 -86 -4 -25 -17 -58 -29 -74 -12 -15 -22 -32 -22 -36 0 -5
284 -9 634 -9 l634 0 13 71 c17 93 -4 233 -73 499 -28 107 -66 254 -85 325
-39 151 -86 390 -88 455 -1 25 -3 59 -4 77 0 18 -12 45 -27 63 l-26 31 40 97
c88 212 126 455 99 642 -8 58 -18 114 -23 124 -9 24 10 14 60 -31 19 -18 40
-33 45 -33 6 0 27 -11 47 -25 20 -14 43 -25 51 -25 17 0 33 42 26 69 -3 12 -1
21 4 21 6 0 11 12 11 28 1 15 3 43 5 62 2 19 1 39 -2 45 -3 5 -6 28 -7 50 -5
80 -11 112 -27 144 -9 18 -14 37 -12 42 3 4 -5 23 -18 42 -73 107 -128 147
-207 147 -25 0 -62 3 -82 6 l-37 6 19 39 c30 58 56 167 85 349 14 91 32 188
40 216 8 28 15 54 15 57 0 4 -34 7 -75 7 l-75 0 -24 -52z m-622 -1867 l28 -29
-19 -51 c-18 -52 -102 -150 -90 -106 3 11 13 64 22 118 10 53 20 97 24 97 4 0
20 -13 35 -29z m-251 -1071 c3 -11 1 -23 -4 -26 -5 -3 -9 6 -9 20 0 31 6 34
13 6z m885 -223 l53 -113 -18 -72 c-9 -40 -19 -72 -22 -72 -9 0 -109 192 -112
215 -4 21 32 155 41 155 3 0 29 -51 58 -113z"/>
</g>
</svg>
