<?xml version="1.0" standalone="no"?>
<!DOCTYPE svg PUBLIC "-//W3C//DTD SVG 20010904//EN"
 "http://www.w3.org/TR/2001/REC-SVG-20010904/DTD/svg10.dtd">
<svg version="1.0" xmlns="http://www.w3.org/2000/svg"
 width="480.000000pt" height="360.000000pt" viewBox="0 0 480.000000 360.000000"
 preserveAspectRatio="xMidYMid meet">
<metadata>
Created by potrace 1.16, written by Peter Selinger 2001-2019
</metadata>
<rect width="1" height="360" fill="#000000"/>
<rect x="479" width="1" height="360" fill="#000000"/>
<rect width="480" height="1" fill="#000000"/>
<rect y="359" width="480" height="1" fill="#000000"/>
<g transform="translate(0.000000,360.000000) scale(0.100000,-0.100000)"
fill="#000000" stroke="none">
<path d="M0 1800 l0 -1800 576 0 575 0 -43 43 c-53 52 -79 64 -160 72 -94 10
-124 22 -159 66 -17 22 -53 51 -80 65 -27 13 -49 27 -49 30 0 16 34 64 69 99
29 27 41 47 41 67 0 47 70 107 175 152 113 48 304 148 370 194 123 87 208 175
360 377 37 50 81 104 98 122 l30 32 -54 88 c-52 85 -53 90 -52 158 0 38 13
139 27 224 19 108 26 184 25 257 l-1 104 -52 -5 c-43 -5 -48 -4 -28 6 25 13
31 45 7 35 -8 -3 -29 -3 -45 1 -28 5 -29 7 -13 19 17 13 17 13 -1 14 -10 0
-40 -22 -66 -49 -36 -37 -57 -51 -97 -60 -63 -15 -79 -32 -87 -96 -12 -85 -77
-155 -144 -155 -51 0 -70 -17 -77 -67 -4 -26 -9 -56 -12 -66 -8 -32 -63 -57
-122 -57 l-54 0 6 -39 c7 -57 -9 -76 -59 -67 -21 4 -45 8 -52 8 -35 3 -89 119
-118 252 -21 98 -29 284 -16 389 21 165 117 406 235 590 l50 79 -34 26 c-47
37 -170 154 -165 159 5 5 104 -58 174 -110 l53 -40 77 75 c310 299 612 424
985 405 106 -5 124 -9 158 -32 41 -27 50 -39 22 -28 -13 5 -15 2 -10 -13 38
-119 35 -136 -29 -144 l-39 -5 -5 -82 c-6 -96 -21 -119 -97 -143 -36 -12 -48
-21 -54 -41 -5 -22 -2 -29 25 -44 73 -42 117 -88 152 -158 40 -79 41 -112 4
-173 -24 -38 -68 -69 -57 -40 4 9 2 16 -3 16 -13 0 -32 -76 -34 -137 0 -29 -4
-53 -8 -53 -5 0 -8 5 -8 10 0 6 -5 10 -11 10 -6 0 -8 -8 -5 -17 3 -12 -6 -26
-25 -41 l-29 -24 9 24 c15 41 1 48 -29 15 -16 -18 -30 -26 -30 -19 0 16 -25
15 -39 -2 -15 -18 8 -37 40 -34 16 2 27 -4 35 -22 15 -30 149 -152 158 -143 3
4 6 17 6 30 0 29 23 30 50 3 22 -22 26 -60 9 -77 -8 -8 -5 -20 14 -45 14 -18
29 -46 32 -61 10 -39 150 -157 187 -157 17 0 44 -15 72 -39 25 -22 55 -42 66
-46 12 -4 20 -15 20 -29 0 -14 11 -28 30 -39 27 -16 32 -16 58 -3 69 35 60
121 -18 172 -46 31 -50 57 -7 62 63 7 137 -79 137 -159 0 -74 -68 -149 -134
-149 -17 0 -45 9 -62 19 l-32 19 -27 -28 c-15 -16 -40 -34 -56 -40 -16 -7 -31
-20 -34 -30 -3 -10 -18 -23 -33 -29 -15 -7 -38 -18 -52 -26 -14 -8 -44 -15
-67 -15 -27 0 -45 -5 -50 -15 -5 -8 1 -98 13 -207 33 -285 44 -433 50 -628 3
-96 9 -233 14 -304 6 -72 10 -135 10 -141 0 -6 16 -9 40 -7 23 2 47 -1 55 -8
29 -24 16 -33 -39 -28 -53 4 -54 4 -60 -25 -3 -16 -6 -33 -6 -38 0 -5 527 -9
1215 -9 l1215 0 0 1800 0 1800 -2400 0 -2400 0 0 -1800z m610 1600 c-19 -13
-30 -13 -30 0 0 6 10 10 23 10 18 0 19 -2 7 -10z m290 -74 c0 -51 -8 -78 -21
-70 -10 6 -12 58 -3 92 10 37 24 25 24 -22z m2814 -82 c-4 -14 -15 -42 -26
-62 l-19 -37 6 38 c7 46 25 87 37 87 5 0 5 -12 2 -26z m422 -520 c5 -1 27 -5
48 -9 50 -8 30 -25 -29 -25 -29 0 -44 -5 -53 -20 -16 -27 -26 -25 -40 5 -18
39 -15 59 15 91 l26 29 12 -35 c6 -18 16 -35 21 -36z m-390 -276 c-1 -15 -6
-31 -10 -36 -14 -13 -36 31 -36 72 l0 39 25 -23 c17 -16 24 -31 21 -52z m-596
-189 c0 -23 -8 -24 -32 -2 -18 17 -24 44 -11 57 10 10 43 -32 43 -55z m521 50
c51 -18 55 -27 15 -35 -38 -7 -116 19 -116 38 0 12 61 10 101 -3z m-1205 -44
c-22 -17 -56 -20 -56 -6 0 9 25 17 60 19 11 1 10 -3 -4 -13z m-17 -209 c11
-19 10 -28 -2 -52 l-16 -29 -8 24 c-10 25 -5 81 6 81 4 0 13 -11 20 -24z m601
-15 c13 -25 13 -91 0 -91 -15 0 -30 36 -30 74 0 39 13 47 30 17z m1294 -143
c26 -37 18 -88 -11 -70 -13 8 -33 55 -33 78 0 22 27 17 44 -8z m-3660 -114 c8
-20 -19 -64 -38 -64 -25 0 -28 32 -5 57 27 27 35 29 43 7z m656 -22 c0 -15
-34 -40 -74 -57 -35 -15 -37 -15 -34 2 5 28 108 80 108 55z m-849 -52 c18 -10
28 -60 12 -60 -18 1 -43 29 -43 49 0 24 4 25 31 11z m3224 -99 c0 -18 -52 -34
-61 -19 -9 14 25 40 46 36 8 -2 15 -10 15 -17z m-389 -186 c18 -13 16 -14 -22
-15 -22 0 -49 7 -60 15 -18 13 -16 14 22 15 22 0 49 -7 60 -15z m-366 -57 c0
-6 -9 1 -20 15 -11 14 -20 29 -20 34 1 11 40 -37 40 -49z m-1819 -504 c24 -12
28 -18 19 -29 -18 -22 -79 -28 -106 -10 -30 19 -30 33 -1 45 33 13 55 12 88
-6z m3119 -99 c11 -13 7 -15 -23 -15 -41 0 -67 8 -67 21 0 15 77 10 90 -6z
m-3750 -105 c8 -15 7 -31 -1 -60 -12 -38 -13 -39 -31 -24 -20 19 -23 41 -8 78
11 31 25 33 40 6z m4028 -56 c-33 -34 -55 -40 -130 -36 -49 3 -49 21 -1 57 27
21 52 30 97 34 75 7 83 -6 34 -55z m-1361 -147 c4 -6 -8 -2 -27 10 -19 12 -36
27 -39 34 -4 14 54 -25 66 -44z"/>
<path d="M2300 1791 c0 -10 -9 -49 -21 -86 -11 -37 -19 -68 -17 -69 2 -2 33 2
70 8 l67 10 7 40 c6 39 4 42 -37 78 -49 42 -69 48 -69 19z"/>
</g>
</svg>
