<?xml version="1.0" standalone="no"?>
<!DOCTYPE svg PUBLIC "-//W3C//DTD SVG 20010904//EN"
 "http://www.w3.org/TR/2001/REC-SVG-20010904/DTD/svg10.dtd">
<svg version="1.0" xmlns="http://www.w3.org/2000/svg"
 width="480.000000pt" height="360.000000pt" viewBox="0 0 480.000000 360.000000"
 preserveAspectRatio="xMidYMid meet">
<metadata>
Created by potrace 1.16, written by Peter Selinger 2001-2019
</metadata>
<rect width="1" height="360" fill="#000000"/>
<rect x="479" width="1" height="360" fill="#000000"/>
<rect width="480" height="1" fill="#000000"/>
<rect y="359" width="480" height="1" fill="#000000"/>
<g transform="translate(0.000000,360.000000) scale(0.100000,-0.100000)"
fill="#000000" stroke="none">
<path d="M0 1800 l0 -1800 1053 0 1053 0 13 92 c7 51 13 102 14 113 2 17 -9
21 -91 33 l-92 14 -43 -34 c-85 -70 -129 -77 -171 -27 -35 41 -33 69 10 149
l36 67 -66 121 c-58 107 -66 128 -66 175 0 42 5 58 21 73 22 20 69 105 69 125
0 6 -116 172 -258 368 -142 196 -268 370 -280 388 l-22 31 44 37 c32 26 51 35
65 30 11 -3 35 3 57 14 25 14 41 17 49 11 8 -7 26 -5 55 5 23 8 47 12 53 8 6
-4 45 -6 87 -4 157 5 480 -84 600 -165 19 -13 41 -24 48 -24 8 0 36 -18 62
-40 26 -22 55 -40 63 -40 22 0 27 63 29 315 1 217 -7 325 -24 325 -5 0 -6 10
-3 21 5 14 3 19 -3 15 -6 -3 -14 3 -17 14 -7 23 -42 40 -81 40 -20 0 -29 9
-45 48 -26 59 -46 82 -74 82 -29 0 -36 9 -23 30 16 25 3 48 -29 52 -24 3 -28
8 -31 40 -2 20 4 52 12 72 14 34 14 36 -2 27 -9 -5 -32 -21 -51 -35 -42 -31
-51 -32 -51 -5 0 49 129 192 205 228 25 12 78 26 117 33 40 6 77 15 81 19 12
9 -18 65 -38 73 -32 12 -62 6 -99 -19 -49 -33 -106 -33 -174 1 -68 34 -159
126 -201 206 -25 46 -48 73 -83 97 -26 19 -75 62 -107 97 -67 72 -99 142 -108
241 l-6 63 -778 0 -779 0 0 -1800z"/>
<path d="M1630 3592 c0 -29 73 -222 84 -222 2 0 20 29 40 65 39 72 44 108 20
143 -13 19 -24 22 -80 22 -35 0 -64 -3 -64 -8z"/>
<path d="M3210 3575 c57 -31 102 -31 165 -1 l50 24 -130 1 -130 0 45 -24z"/>
<path d="M4694 3550 c45 -48 68 -86 91 -149 13 -33 14 -28 14 82 l1 117 -75
-1 -76 -1 45 -48z"/>
<path d="M1813 3367 c3 -7 13 -41 22 -74 16 -58 19 -62 61 -78 24 -9 52 -14
63 -10 20 6 45 60 35 76 -6 10 -167 99 -179 99 -4 0 -5 -6 -2 -13z"/>
<path d="M1757 3348 c-6 -21 19 -75 29 -65 7 7 -8 87 -16 87 -4 0 -10 -10 -13
-22z"/>
<path d="M2042 3201 c-16 -52 -36 -66 -93 -66 -30 0 -49 -4 -49 -12 0 -23 90
-129 137 -160 26 -18 68 -38 93 -44 43 -11 49 -10 85 14 22 14 55 28 73 32 17
4 32 9 32 11 0 11 -51 83 -90 127 -43 49 -151 137 -168 137 -5 0 -14 -17 -20
-39z"/>
<path d="M4762 2708 c-49 -206 -48 -188 -2 -233 l40 -39 0 202 c0 111 -1 202
-3 202 -2 0 -17 -60 -35 -132z"/>
<path d="M2260 2771 c-79 -20 -151 -61 -179 -100 l-21 -29 67 34 c38 19 106
47 153 63 131 44 117 68 -20 32z"/>
<path d="M2256 2694 c-65 -29 -120 -55 -123 -58 -3 -3 10 -11 28 -19 32 -13
39 -11 100 15 85 38 122 68 117 95 -3 19 -9 18 -122 -33z"/>
<path d="M3441 2105 c5 -19 11 -85 13 -146 3 -124 8 -133 73 -145 43 -8 303 6
303 16 0 17 -201 187 -291 247 -53 34 -99 63 -102 63 -3 0 -1 -16 4 -35z"/>
<path d="M2503 1800 c-2 -61 0 -110 5 -110 26 1 51 41 57 91 6 49 4 57 -22 91
-15 21 -30 37 -33 38 -3 0 -6 -50 -7 -110z"/>
<path d="M3474 1481 c11 -498 28 -705 75 -901 22 -93 70 -250 110 -358 39
-107 71 -200 71 -208 0 -12 82 -14 535 -14 l535 0 0 509 c0 357 -4 525 -12
561 l-12 51 -60 -6 c-120 -12 -363 59 -488 142 -124 82 -213 212 -243 357 -11
56 -21 76 -52 108 -57 59 -113 68 -267 47 -67 -10 -91 -9 -140 3 l-59 16 7
-307z"/>
<path d="M4100 1625 c0 -12 54 -112 83 -155 76 -110 191 -202 298 -239 41 -13
73 -17 132 -13 42 2 77 8 77 12 0 7 -128 126 -210 195 -73 62 -177 125 -272
166 -87 38 -108 45 -108 34z"/>
<path d="M4036 1570 c15 -55 66 -140 114 -191 l51 -54 -48 65 c-26 35 -65 96
-86 135 -21 38 -35 59 -31 45z"/>
<path d="M3610 15 c0 -8 4 -15 10 -15 5 0 7 7 4 15 -4 8 -8 15 -10 15 -2 0 -4
-7 -4 -15z"/>
</g>
</svg>
