<?xml version="1.0" standalone="no"?>
<!DOCTYPE svg PUBLIC "-//W3C//DTD SVG 20010904//EN"
 "http://www.w3.org/TR/2001/REC-SVG-20010904/DTD/svg10.dtd">
<svg version="1.0" xmlns="http://www.w3.org/2000/svg"
 width="480.000000pt" height="360.000000pt" viewBox="0 0 480.000000 360.000000"
 preserveAspectRatio="xMidYMid meet">
<metadata>
Created by potrace 1.16, written by Peter Selinger 2001-2019
</metadata>
<rect width="1" height="360" fill="#000000"/>
<rect x="479" width="1" height="360" fill="#000000"/>
<rect width="480" height="1" fill="#000000"/>
<rect y="359" width="480" height="1" fill="#000000"/>
<g transform="translate(0.000000,360.000000) scale(0.100000,-0.100000)"
fill="#000000" stroke="none">
<path d="M1110 3069 c-286 -9 -356 -30 -476 -141 -83 -78 -108 -135 -106 -245
1 -44 9 -112 18 -150 10 -39 18 -120 20 -189 1 -67 8 -141 14 -164 13 -49 68
-108 132 -145 23 -13 72 -54 110 -90 54 -53 68 -73 68 -96 0 -27 -23 -86 -39
-99 -3 -3 -12 -17 -20 -32 -8 -16 -18 -28 -22 -28 -4 0 -27 -16 -51 -36 -23
-20 -66 -52 -95 -70 -29 -18 -76 -56 -104 -83 -29 -28 -55 -52 -60 -53 -14 -6
-89 -108 -89 -122 0 -8 -4 -18 -10 -21 -16 -10 -11 -88 8 -122 16 -31 41 -63
109 -145 17 -21 41 -64 53 -96 39 -101 14 -231 -61 -320 -17 -21 -41 -54 -53
-74 -11 -19 -37 -60 -56 -89 -35 -53 -37 -63 -31 -156 2 -37 67 -100 119 -117
102 -33 168 -36 726 -36 579 0 650 4 804 44 89 24 232 35 318 25 41 -4 78 -10
83 -13 26 -16 177 -29 431 -37 681 -21 710 -21 792 -9 45 6 94 20 108 30 14 9
35 20 47 24 13 4 40 24 62 45 48 46 55 78 49 209 -5 92 -18 142 -45 169 -6 7
-14 26 -18 42 -3 15 -14 37 -23 48 -32 36 -59 79 -106 165 -54 101 -59 154
-25 259 28 86 92 189 118 189 5 0 16 8 23 18 13 18 94 51 178 73 25 6 155 15
290 19 253 8 265 10 343 57 33 21 37 28 37 63 0 33 -5 43 -37 67 -21 15 -40
31 -43 34 -13 16 -54 32 -240 94 -57 20 -114 42 -127 50 -12 8 -27 15 -34 15
-6 0 -40 21 -75 47 -83 61 -109 110 -99 187 6 52 22 92 57 146 40 61 30 166
-20 197 -15 9 -42 30 -60 45 -18 15 -43 28 -55 28 -12 0 -33 7 -45 16 -13 9
-80 27 -150 40 -70 14 -141 29 -158 35 -17 5 -60 11 -95 13 -273 19 -294 19
-369 2 -114 -25 -214 -64 -283 -110 -42 -28 -194 -25 -214 4 -8 11 -20 20 -27
20 -8 0 -19 7 -26 15 -7 8 -16 12 -21 9 -5 -3 -9 -1 -9 5 0 6 -17 25 -37 43
-77 68 -159 145 -212 199 -31 31 -74 66 -96 78 -22 12 -58 33 -80 46 -22 14
-69 34 -105 46 -36 12 -72 27 -80 34 -8 8 -62 25 -120 39 -240 58 -343 66
-710 55z"/>
</g>
</svg>
