<?xml version="1.0" standalone="no"?>
<!DOCTYPE svg PUBLIC "-//W3C//DTD SVG 20010904//EN"
 "http://www.w3.org/TR/2001/REC-SVG-20010904/DTD/svg10.dtd">
<svg version="1.0" xmlns="http://www.w3.org/2000/svg"
 width="480.000000pt" height="360.000000pt" viewBox="0 0 480.000000 360.000000"
 preserveAspectRatio="xMidYMid meet">
<metadata>
Created by potrace 1.16, written by Peter Selinger 2001-2019
</metadata>
<rect width="1" height="360" fill="#000000"/>
<rect x="479" width="1" height="360" fill="#000000"/>
<rect width="480" height="1" fill="#000000"/>
<rect y="359" width="480" height="1" fill="#000000"/>
<g transform="translate(0.000000,360.000000) scale(0.100000,-0.100000)"
fill="#000000" stroke="none">
<path d="M0 1800 l0 -1800 2400 0 2400 0 0 1800 0 1800 -2400 0 -2400 0 0
-1800z m2235 980 c3 -5 18 -10 33 -10 42 0 56 -13 43 -38 -18 -34 -13 -42 25
-42 28 0 46 9 81 39 54 48 85 56 160 41 47 -10 73 -24 132 -72 41 -33 81 -62
88 -65 23 -9 14 -23 -15 -23 -15 0 -48 11 -74 25 -58 31 -74 31 -82 3 -14 -55
-8 -66 45 -85 71 -25 131 -77 123 -108 -5 -19 0 -27 26 -40 17 -9 44 -31 60
-48 24 -27 26 -33 12 -38 -11 -4 -12 -8 -4 -13 17 -10 15 -27 -2 -20 -7 3 -21
-2 -30 -11 -13 -14 -15 -29 -10 -83 4 -37 7 -67 8 -68 0 0 57 -16 126 -36 98
-27 125 -39 124 -51 -2 -21 9 -21 116 -2 107 19 203 19 263 1 26 -8 47 -11 48
-8 0 4 4 -3 10 -16 5 -14 13 -20 21 -16 8 5 9 2 5 -10 -5 -11 2 -26 18 -42 13
-13 25 -28 26 -32 1 -4 11 -6 22 -4 11 2 25 -5 34 -17 8 -12 21 -21 29 -21 8
0 14 -4 14 -10 0 -5 -7 -10 -15 -10 -20 0 -19 -27 1 -38 13 -7 14 -11 2 -23
-8 -8 -13 -27 -11 -43 2 -24 -1 -27 -20 -23 -20 6 -21 5 -4 -7 16 -12 16 -14
2 -20 -9 -3 -29 1 -46 9 -26 14 -29 14 -29 0 0 -8 -7 -15 -15 -15 -8 0 -15 -4
-15 -9 0 -5 -14 -12 -31 -16 -28 -6 -29 -8 -12 -21 16 -12 15 -13 -14 -9 -18
2 -43 11 -55 19 -37 26 -44 18 -13 -14 40 -42 25 -37 -29 9 -48 42 -84 53
-286 86 -52 9 -115 25 -139 36 -34 15 -47 16 -58 7 -8 -6 -35 -10 -61 -9 l-48
1 1 -57 c0 -56 -1 -58 -27 -61 -21 -3 -30 3 -42 25 -10 18 -15 22 -16 12 0 -9
-9 -27 -19 -40 -28 -34 -45 -13 -51 64 -5 61 -5 61 -40 69 -19 5 -78 3 -131
-3 -113 -13 -139 -5 -139 40 0 18 -6 31 -17 35 -20 8 -474 38 -480 32 -2 -2
22 -10 54 -18 47 -12 58 -18 56 -34 -1 -10 2 -21 6 -24 4 -3 23 -18 41 -33 30
-26 32 -30 17 -44 -14 -15 -20 -12 -64 27 -77 69 -263 147 -263 111 0 -6 -7
-11 -15 -11 -8 0 -15 -5 -15 -10 0 -20 -40 10 -46 35 -5 21 -13 25 -62 30 -32
3 -68 11 -82 18 -25 13 -49 61 -37 74 7 6 172 -7 337 -26 41 -5 165 -17 275
-26 l199 -17 29 33 c15 19 48 73 71 121 36 71 41 88 31 100 -7 7 -22 42 -32
78 -17 58 -23 67 -56 83 -21 9 -43 29 -49 42 -10 22 -8 29 12 50 41 44 100 29
100 -26 0 -32 48 -121 61 -113 5 3 9 12 9 20 0 8 7 26 16 40 21 32 6 74 -27
74 -23 0 -58 36 -59 60 0 8 -9 20 -19 25 -60 31 -135 80 -161 106 -35 35 -42
85 -11 76 16 -4 17 -1 8 24 -10 24 -8 31 8 44 23 17 41 19 50 5z"/>
<path d="M2665 2270 c25 -80 39 -89 68 -41 17 30 15 35 -23 56 -13 8 -13 7 -1
-8 17 -22 7 -22 -26 0 -25 17 -26 17 -18 -7z"/>
<path d="M2456 2156 c-9 -21 -32 -64 -51 -96 -39 -65 -55 -120 -35 -120 19 0
117 78 140 111 26 35 25 40 -9 96 l-29 47 -16 -38z"/>
<path d="M2826 2051 c11 -12 84 -43 84 -37 0 8 -67 46 -81 46 -8 0 -9 -3 -3
-9z"/>
<path d="M2972 2030 c49 -31 68 -35 103 -21 16 7 5 13 -51 30 -96 28 -108 26
-52 -9z"/>
</g>
</svg>
