<?xml version="1.0" standalone="no"?>
<!DOCTYPE svg PUBLIC "-//W3C//DTD SVG 20010904//EN"
 "http://www.w3.org/TR/2001/REC-SVG-20010904/DTD/svg10.dtd">
<svg version="1.0" xmlns="http://www.w3.org/2000/svg"
 width="480.000000pt" height="360.000000pt" viewBox="0 0 480.000000 360.000000"
 preserveAspectRatio="xMidYMid meet">
<metadata>
Created by potrace 1.16, written by Peter Selinger 2001-2019
</metadata>
<rect width="1" height="360" fill="#000000"/>
<rect x="479" width="1" height="360" fill="#000000"/>
<rect width="480" height="1" fill="#000000"/>
<rect y="359" width="480" height="1" fill="#000000"/>
<g transform="translate(0.000000,360.000000) scale(0.100000,-0.100000)"
fill="#000000" stroke="none">
<path d="M0 1800 l0 -1800 1703 0 1702 0 38 123 c38 123 150 468 162 498 6 17
-15 26 -79 35 -35 4 -56 21 -56 44 0 10 18 49 40 86 50 86 70 144 75 225 3 49
13 82 48 153 33 67 50 116 62 187 15 88 16 102 1 180 -26 139 -43 188 -69 193
-12 3 -71 7 -132 11 -60 3 -159 12 -220 21 -60 8 -201 17 -313 21 -111 3 -205
10 -207 14 -3 4 -39 5 -80 2 -73 -6 -75 -5 -84 20 -5 14 -15 28 -21 32 -5 3
-8 10 -5 15 3 4 -2 10 -10 14 -8 3 -15 12 -15 20 0 11 -14 16 -52 18 -28 2
-53 8 -55 14 -2 7 31 13 99 18 56 3 104 9 107 11 3 3 -1 22 -8 41 -19 52 0 63
30 17 38 -58 75 -75 139 -63 76 14 206 13 532 -7 342 -20 338 -21 338 61 0 44
-5 60 -25 85 -14 16 -34 33 -44 36 -22 7 -41 46 -41 83 0 43 64 166 99 191 30
22 30 23 16 51 -31 61 -77 100 -164 141 -93 44 -170 97 -171 116 0 19 35 33
85 33 60 0 165 -53 222 -113 23 -23 58 -73 79 -112 45 -85 41 -78 52 -71 12 7
-20 121 -50 179 -15 30 -32 44 -76 64 -66 30 -102 59 -102 84 0 21 50 59 78
59 55 0 166 -80 198 -143 9 -15 25 -74 37 -129 14 -62 28 -104 37 -108 8 -4
44 -22 80 -40 36 -18 75 -41 87 -52 50 -47 76 -141 98 -363 14 -135 23 -179
57 -280 22 -66 56 -148 75 -183 37 -65 44 -113 23 -151 -9 -18 -7 -41 9 -114
12 -51 25 -132 31 -182 13 -118 13 -372 0 -380 -5 -3 -10 -33 -10 -66 0 -33
-4 -59 -10 -59 -5 0 -10 -9 -10 -20 0 -35 -19 -21 -30 23 -17 66 -20 66 -16 0
4 -62 4 -62 -17 -48 -12 8 -26 14 -32 14 -5 0 -12 9 -15 21 -14 60 -74 -306
-75 -457 l-1 -113 328 0 328 0 0 1800 0 1800 -2400 0 -2400 0 0 -1800z"/>
<path d="M3856 558 c-14 -29 -57 -125 -96 -213 -40 -88 -92 -199 -116 -247
-24 -48 -44 -90 -44 -93 0 -3 82 -5 181 -5 l182 0 -8 153 c-4 83 -10 220 -14
302 l-6 150 -28 3 c-25 3 -30 -2 -51 -50z"/>
</g>
</svg>
