<?xml version="1.0" standalone="no"?>
<!DOCTYPE svg PUBLIC "-//W3C//DTD SVG 20010904//EN"
 "http://www.w3.org/TR/2001/REC-SVG-20010904/DTD/svg10.dtd">
<svg version="1.0" xmlns="http://www.w3.org/2000/svg"
 width="480.000000pt" height="360.000000pt" viewBox="0 0 480.000000 360.000000"
 preserveAspectRatio="xMidYMid meet">
<metadata>
Created by potrace 1.16, written by Peter Selinger 2001-2019
</metadata>
<rect width="1" height="360" fill="#000000"/>
<rect x="479" width="1" height="360" fill="#000000"/>
<rect width="480" height="1" fill="#000000"/>
<rect y="359" width="480" height="1" fill="#000000"/>
<g transform="translate(0.000000,360.000000) scale(0.100000,-0.100000)"
fill="#000000" stroke="none">
<path d="M0 1800 l0 -1800 464 0 463 0 62 77 c34 43 148 201 254 352 105 150
206 285 224 298 18 14 43 48 57 76 27 59 341 457 380 482 14 10 26 23 26 30 0
42 78 58 163 34 37 -10 39 -9 72 26 33 37 33 37 40 170 7 131 -4 309 -25 400
-24 101 -2 289 39 344 25 32 65 31 119 -3 84 -53 93 -89 51 -218 -21 -68 -23
-78 -10 -78 14 0 67 172 110 356 60 257 109 422 147 495 36 68 94 132 130 143
47 14 90 -85 101 -234 l5 -75 -65 -132 c-53 -106 -68 -146 -76 -208 -13 -93
-14 -118 -2 -111 5 3 42 57 83 118 73 110 226 278 309 340 76 57 220 85 266
53 19 -13 21 -23 18 -77 -8 -124 -17 -203 -27 -215 -5 -7 -7 -17 -3 -23 4 -6
-1 -21 -12 -32 -18 -20 -18 -21 7 -14 14 4 41 15 60 24 49 23 167 23 203 -1
21 -13 27 -25 27 -53 0 -57 -33 -238 -44 -246 -6 -4 -22 -7 -36 -7 -23 1 -23
2 5 9 20 5 24 8 10 9 -29 1 -187 -18 -205 -26 -8 -3 -21 -7 -29 -9 -13 -3 -33
-25 -27 -31 1 -2 38 2 82 7 120 15 181 -2 228 -63 31 -40 31 -42 7 -93 -10
-21 -22 -52 -25 -69 -12 -52 -30 -68 -70 -61 -25 5 -36 12 -36 25 0 9 -6 26
-14 36 -13 18 -16 18 -107 -10 -128 -38 -179 -61 -179 -79 0 -52 -115 -323
-173 -405 -63 -91 -160 -191 -223 -231 -35 -22 -64 -43 -64 -46 0 -3 43 -52
96 -107 177 -186 314 -393 314 -474 0 -21 -8 -40 -25 -55 l-25 -23 26 -63 c17
-43 24 -77 22 -109 l-3 -47 -110 -79 c-60 -43 -114 -82 -119 -88 -6 -5 344 -9
927 -9 l937 0 0 1550 0 1550 -23 0 c-49 0 -169 102 -152 129 3 5 -4 12 -15 16
-11 3 -20 11 -20 16 0 5 -6 9 -13 9 -19 0 -81 69 -101 112 -10 20 -25 38 -34
40 -22 6 -82 117 -82 152 l0 26 -2180 0 -2180 0 0 -1800z"/>
<path d="M3278 2392 c-20 -2 -42 -10 -48 -18 -7 -8 -18 -14 -24 -14 -6 -1 -27
-14 -46 -30 -19 -17 -39 -30 -45 -30 -11 0 -128 -154 -138 -182 -11 -30 8 -21
90 45 110 87 182 140 226 166 21 13 37 30 37 41 0 24 -6 26 -52 22z"/>
</g>
</svg>
