<?xml version="1.0" standalone="no"?>
<!DOCTYPE svg PUBLIC "-//W3C//DTD SVG 20010904//EN"
 "http://www.w3.org/TR/2001/REC-SVG-20010904/DTD/svg10.dtd">
<svg version="1.0" xmlns="http://www.w3.org/2000/svg"
 width="480.000000pt" height="360.000000pt" viewBox="0 0 480.000000 360.000000"
 preserveAspectRatio="xMidYMid meet">
<metadata>
Created by potrace 1.16, written by Peter Selinger 2001-2019
</metadata>
<rect width="1" height="360" fill="#000000"/>
<rect x="479" width="1" height="360" fill="#000000"/>
<rect width="480" height="1" fill="#000000"/>
<rect y="359" width="480" height="1" fill="#000000"/>
<g transform="translate(0.000000,360.000000) scale(0.100000,-0.100000)"
fill="#000000" stroke="none">
<path d="M0 1800 l0 -1800 912 0 911 0 -39 29 c-94 69 -126 131 -106 207 7 26
11 47 10 48 -2 1 -16 7 -31 14 -17 7 -34 26 -43 48 -14 34 -14 39 16 102 27
58 30 72 24 124 l-7 59 -96 68 c-53 38 -108 82 -122 97 -36 39 -101 138 -133
202 -29 58 -66 188 -66 233 0 40 -18 53 -94 69 -37 8 -69 17 -72 21 -9 15 9
39 30 39 12 0 44 7 70 16 37 13 56 28 82 64 35 49 51 60 86 60 17 0 19 -6 16
-47 l-3 -48 39 1 c25 1 46 9 56 20 51 59 80 77 138 85 73 10 137 38 180 78 18
17 48 42 67 56 18 15 52 57 74 95 52 87 85 127 123 146 41 21 57 6 40 -38 -6
-18 -8 -34 -4 -37 4 -4 9 -17 10 -31 1 -19 -13 -40 -52 -78 -30 -30 -61 -54
-69 -56 -23 -3 -46 -25 -62 -60 -8 -17 -45 -63 -83 -101 -91 -95 -214 -158
-354 -183 -109 -18 -106 -15 -84 -98 22 -84 38 -100 30 -32 -4 34 -2 58 3 58
5 0 42 -36 82 -80 39 -44 122 -117 184 -164 131 -98 402 -281 474 -320 47 -26
52 -32 68 -89 10 -34 18 -98 19 -142 l1 -79 75 -37 c95 -47 105 -48 80 -6 -11
17 -20 40 -20 51 0 10 -15 44 -34 75 -87 144 -187 460 -232 737 -27 163 -27
167 -9 181 17 12 20 11 27 -6 13 -35 135 -215 175 -257 21 -22 58 -63 82 -90
25 -27 82 -84 128 -126 82 -76 84 -77 150 -84 37 -4 126 -2 197 4 72 6 132 9
135 6 11 -11 -27 -56 -90 -109 -38 -32 -69 -61 -69 -64 0 -11 111 -71 121 -65
5 3 9 12 9 20 0 8 13 17 30 20 46 10 204 170 299 307 46 64 88 117 95 117 6
-1 53 -41 104 -90 110 -106 127 -111 183 -50 41 45 54 49 69 21 8 -16 2 -29
-35 -72 -25 -29 -45 -56 -45 -59 0 -6 113 -110 165 -152 17 -13 46 -31 65 -40
59 -27 118 -85 131 -129 31 -101 -39 -217 -169 -281 -131 -65 -296 -45 -532
64 -47 21 -102 43 -123 48 -37 8 -41 6 -93 -41 -63 -57 -122 -89 -164 -89 -17
0 -37 -8 -46 -19 -61 -72 -74 -82 -96 -76 -13 3 -44 29 -69 57 l-46 50 -36
-13 c-32 -11 -40 -10 -72 7 -31 17 -37 17 -45 4 -6 -8 -8 -24 -5 -35 2 -12 7
-47 11 -78 l7 -57 1133 0 1134 0 0 1800 0 1800 -2400 0 -2400 0 0 -1800z
m2633 -304 c150 -91 407 -202 510 -221 21 -4 41 -13 43 -20 7 -17 -43 -171
-73 -227 -24 -44 -29 -48 -82 -59 -62 -13 -389 -7 -430 8 -17 7 -32 32 -59 99
-29 73 -36 105 -40 183 -6 124 21 281 48 281 6 0 43 -20 83 -44z"/>
<path d="M3795 434 c-36 -39 -77 -67 -153 -106 -95 -49 -101 -54 -75 -59 65
-15 153 -9 196 12 114 57 169 146 121 193 -23 24 -34 19 -89 -40z"/>
</g>
</svg>
