<?xml version="1.0" standalone="no"?>
<!DOCTYPE svg PUBLIC "-//W3C//DTD SVG 20010904//EN"
 "http://www.w3.org/TR/2001/REC-SVG-20010904/DTD/svg10.dtd">
<svg version="1.0" xmlns="http://www.w3.org/2000/svg"
 width="480.000000pt" height="360.000000pt" viewBox="0 0 480.000000 360.000000"
 preserveAspectRatio="xMidYMid meet">
<metadata>
Created by potrace 1.16, written by Peter Selinger 2001-2019
</metadata>
<rect width="1" height="360" fill="#000000"/>
<rect x="479" width="1" height="360" fill="#000000"/>
<rect width="480" height="1" fill="#000000"/>
<rect y="359" width="480" height="1" fill="#000000"/>
<g transform="translate(0.000000,360.000000) scale(0.100000,-0.100000)"
fill="#000000" stroke="none">
<path d="M0 2305 c0 -1165 2 -1294 16 -1288 12 4 14 0 8 -23 -4 -16 -11 -30
-15 -32 -5 -2 -8 -219 -9 -483 l0 -479 896 0 896 0 -20 23 c-11 12 -34 38 -51
58 -33 39 -52 49 -142 74 -56 16 -60 20 -88 88 -6 15 -26 34 -46 44 -47 23
-45 47 10 100 39 37 45 48 45 83 0 35 6 47 48 88 71 72 198 150 404 251 171
84 307 167 367 226 23 23 24 25 8 43 -22 24 -21 32 2 32 14 0 22 12 30 46 7
26 10 48 8 50 -2 3 -16 -14 -31 -36 -14 -22 -31 -40 -36 -40 -15 0 -12 15 8
41 35 45 37 106 2 64 -14 -17 -50 -20 -50 -5 0 6 6 10 14 10 8 0 24 12 35 26
23 30 19 74 -10 113 -17 21 -18 37 -13 145 6 117 8 124 50 210 43 87 56 128
30 93 -13 -17 -15 -17 -29 4 -14 20 -23 21 -105 20 -107 -2 -171 18 -279 89
-70 46 -236 120 -270 120 -20 0 -103 48 -103 59 0 12 67 27 208 45 68 9 164
30 213 46 69 23 107 30 169 30 67 0 83 3 100 20 24 24 26 40 4 40 -19 0 -47
65 -47 108 1 20 10 43 22 56 25 27 27 56 4 56 -14 0 -14 2 -2 18 15 18 15 34
3 139 -6 56 -4 66 20 108 15 25 53 72 84 104 47 48 67 60 118 74 76 21 108 21
170 0 120 -40 188 -112 228 -240 15 -48 30 -95 33 -103 5 -13 4 -13 -10 -1
-10 7 -17 20 -17 28 0 8 -4 11 -10 8 -10 -6 -6 -212 5 -257 6 -24 -6 -34 -48
-42 -4 0 -12 -8 -17 -16 -9 -13 -10 -13 -10 0 0 9 -8 3 -19 -14 -11 -16 -26
-33 -35 -38 -13 -7 -12 -12 2 -41 8 -17 24 -38 35 -46 60 -43 260 -228 272
-252 22 -41 18 -89 -11 -166 -35 -92 -38 -118 -24 -218 10 -68 16 -88 32 -96
17 -9 19 -18 14 -48 -3 -21 3 -79 15 -136 65 -326 94 -543 118 -890 5 -72 18
-190 27 -262 l18 -133 778 0 778 0 0 1800 0 1800 -2400 0 -2400 0 0 -1295z
m1343 585 c-6 -22 -21 -35 -29 -27 -7 7 15 47 25 47 5 0 7 -9 4 -20z m170
-793 c16 -19 16 -22 3 -25 -15 -3 -65 24 -78 42 -24 35 43 20 75 -17z m-936
-509 c19 -15 6 -28 -26 -28 -36 0 -62 27 -40 41 15 9 46 3 66 -13z m3102 -54
c10 -9 -35 -3 -49 6 -11 8 -7 9 15 4 17 -4 32 -8 34 -10z m-1953 -445 c7 -11
-12 -29 -31 -29 -5 0 -17 5 -25 10 -13 9 -13 11 0 20 20 13 47 13 56 -1z
m2789 -239 c3 -5 -1 -10 -9 -10 -9 0 -16 5 -16 10 0 6 4 10 9 10 6 0 13 -4 16
-10z m-4025 -160 c-8 -5 -24 -10 -35 -10 -17 0 -17 2 -5 10 8 5 24 10 35 10
17 0 17 -2 5 -10z m628 -445 c-20 -14 -41 -25 -45 -25 -14 1 52 50 67 50 8 0
-2 -11 -22 -25z"/>
<path d="M2311 2343 c-1 -24 3 -43 8 -43 16 0 19 25 6 55 l-13 30 -1 -42z"/>
<path d="M2494 1690 c-27 -41 -42 -115 -29 -147 12 -31 57 70 59 134 1 29 1
53 -1 53 -1 0 -15 -18 -29 -40z"/>
<path d="M2473 1483 c5 -30 2 -46 -15 -73 -19 -30 -22 -50 -22 -136 -1 -70 -5
-106 -15 -117 -7 -10 -9 -17 -5 -17 10 0 145 145 207 222 21 25 39 59 40 74 2
25 -2 29 -33 35 -61 13 -124 31 -144 41 -17 9 -18 7 -13 -29z"/>
</g>
</svg>
