<?xml version="1.0" standalone="no"?>
<!DOCTYPE svg PUBLIC "-//W3C//DTD SVG 20010904//EN"
 "http://www.w3.org/TR/2001/REC-SVG-20010904/DTD/svg10.dtd">
<svg version="1.0" xmlns="http://www.w3.org/2000/svg"
 width="480.000000pt" height="360.000000pt" viewBox="0 0 480.000000 360.000000"
 preserveAspectRatio="xMidYMid meet">
<metadata>
Created by potrace 1.16, written by Peter Selinger 2001-2019
</metadata>
<rect width="1" height="360" fill="#000000"/>
<rect x="479" width="1" height="360" fill="#000000"/>
<rect width="480" height="1" fill="#000000"/>
<rect y="359" width="480" height="1" fill="#000000"/>
<g transform="translate(0.000000,360.000000) scale(0.100000,-0.100000)"
fill="#000000" stroke="none">
<path d="M3625 1770 c-257 -22 -438 -31 -548 -29 l-122 4 -17 -80 c-21 -101
-39 -145 -94 -221 -76 -108 -189 -181 -322 -210 -84 -17 -130 -17 -214 0 -220
47 -390 229 -424 454 l-6 43 -587 -3 c-322 -2 -671 0 -776 4 -189 7 -202 2
-52 -21 168 -27 251 -59 637 -254 745 -376 736 -372 881 -420 179 -60 430 -93
604 -82 360 25 563 113 1075 469 349 242 399 263 725 305 l60 8 -45 6 c-241
33 -570 44 -775 27z"/>
</g>
</svg>
