<?xml version="1.0" standalone="no"?>
<!DOCTYPE svg PUBLIC "-//W3C//DTD SVG 20010904//EN"
 "http://www.w3.org/TR/2001/REC-SVG-20010904/DTD/svg10.dtd">
<svg version="1.0" xmlns="http://www.w3.org/2000/svg"
 width="480.000000pt" height="360.000000pt" viewBox="0 0 480.000000 360.000000"
 preserveAspectRatio="xMidYMid meet">
<metadata>
Created by potrace 1.16, written by Peter Selinger 2001-2019
</metadata>
<rect width="1" height="360" fill="#000000"/>
<rect x="479" width="1" height="360" fill="#000000"/>
<rect width="480" height="1" fill="#000000"/>
<rect y="359" width="480" height="1" fill="#000000"/>
<g transform="translate(0.000000,360.000000) scale(0.100000,-0.100000)"
fill="#000000" stroke="none">
<path d="M1597 3563 c13 -62 6 -312 -11 -410 -18 -98 -96 -322 -127 -362 -11
-13 -19 -28 -19 -33 0 -17 -102 -160 -164 -231 -57 -65 -130 -129 -234 -206
-118 -87 -349 -183 -509 -211 -120 -21 -418 -12 -511 16 l-22 6 0 -1066 0
-1066 1314 0 1314 0 7 58 c19 157 49 296 99 449 64 196 87 287 115 438 81 451
83 469 73 500 -6 16 -13 55 -17 85 -10 83 -13 88 -60 109 -90 40 -107 120 -50
232 19 37 30 71 25 74 -12 7 -107 -17 -195 -51 -80 -30 -112 -26 -121 14 -10
41 -13 43 -37 27 -28 -20 -32 -19 -44 8 -10 21 -20 25 -95 30 -61 5 -121 19
-228 55 -80 27 -159 56 -175 65 -17 8 -48 19 -69 23 -22 4 -61 20 -87 37 -42
25 -55 29 -99 25 -51 -5 -59 -1 -38 20 9 9 5 12 -21 12 -38 0 -38 21 0 31 l24
7 -27 1 c-14 1 -34 4 -43 7 -14 6 -14 8 1 25 36 40 158 18 294 -52 60 -31 107
-45 235 -70 88 -17 173 -37 190 -45 40 -20 135 -2 135 25 0 28 10 31 41 15 28
-14 30 -14 39 11 14 37 31 39 123 17 92 -23 265 -37 285 -24 12 8 12 13 0 31
-11 19 -11 23 5 32 9 6 17 17 17 25 0 12 -8 13 -34 9 -33 -7 -34 -5 -70 59
-20 36 -41 68 -47 72 -7 4 -1 17 15 33 l26 27 -34 13 c-36 15 -66 56 -66 91 0
20 -2 21 -17 9 -16 -13 -17 -12 -4 4 8 9 11 20 8 24 -8 7 17 57 50 101 l25 33
-27 73 c-28 78 -30 113 -5 129 19 11 269 -80 303 -111 12 -10 45 -25 72 -32
40 -11 64 -27 116 -79 62 -62 67 -71 82 -136 8 -39 18 -113 22 -165 4 -58 15
-113 27 -142 11 -25 25 -83 31 -129 l12 -83 65 -55 c78 -65 96 -94 81 -127 -5
-13 -6 -26 -2 -28 14 -9 20 -60 9 -73 -6 -8 4 -36 31 -90 l41 -78 11 -190 c6
-109 17 -213 26 -245 9 -30 19 -89 23 -129 6 -58 12 -79 29 -92 27 -22 27 -29
-4 -29 -13 0 -29 8 -34 18 -7 12 -10 13 -11 3 0 -7 10 -29 21 -48 l22 -35 -24
4 c-15 2 -31 17 -46 43 -30 53 -29 23 2 -42 16 -36 20 -53 12 -53 -7 0 -19 6
-25 12 -10 10 -15 10 -22 -2 -16 -26 -56 25 -76 98 -10 36 -20 60 -22 54 -10
-31 83 -269 208 -532 49 -102 107 -240 130 -308 l42 -122 449 0 449 0 0 1800
0 1800 -1605 0 -1606 0 8 -37z"/>
<path d="M3450 1593 c0 -5 -7 -65 -14 -134 -12 -105 -12 -139 -1 -210 16 -104
53 -215 67 -201 24 24 21 179 -8 366 -15 103 -32 186 -36 186 -4 0 -8 -3 -8
-7z"/>
</g>
</svg>
