<?xml version="1.0" standalone="no"?>
<!DOCTYPE svg PUBLIC "-//W3C//DTD SVG 20010904//EN"
 "http://www.w3.org/TR/2001/REC-SVG-20010904/DTD/svg10.dtd">
<svg version="1.0" xmlns="http://www.w3.org/2000/svg"
 width="480.000000pt" height="360.000000pt" viewBox="0 0 480.000000 360.000000"
 preserveAspectRatio="xMidYMid meet">
<metadata>
Created by potrace 1.16, written by Peter Selinger 2001-2019
</metadata>
<rect width="1" height="360" fill="#000000"/>
<rect x="479" width="1" height="360" fill="#000000"/>
<rect width="480" height="1" fill="#000000"/>
<rect y="359" width="480" height="1" fill="#000000"/>
<g transform="translate(0.000000,360.000000) scale(0.100000,-0.100000)"
fill="#000000" stroke="none">
<path d="M0 1800 l0 -1800 501 2 502 3 59 85 c33 47 136 200 230 340 251 373
314 485 388 685 61 162 67 222 49 455 -17 221 -21 244 -43 248 -10 2 -22 -2
-26 -9 -5 -7 -19 -13 -32 -14 -12 -1 -31 -6 -42 -10 -15 -7 -17 -5 -13 11 4
10 24 93 46 184 22 91 42 172 45 180 5 11 -3 19 -22 26 -47 18 -187 228 -223
335 -7 19 -17 41 -24 49 -18 23 -38 101 -36 140 3 52 9 66 34 79 20 11 41 6
159 -38 75 -27 155 -59 179 -71 38 -20 46 -21 80 -10 21 7 59 31 86 53 129
107 340 146 478 89 28 -11 85 -33 128 -49 42 -16 74 -33 70 -36 -4 -4 7 -22
24 -40 17 -17 35 -41 41 -52 20 -40 34 -132 37 -233 l3 -103 -22 30 c-25 37
-39 40 -30 7 8 -31 11 -176 4 -176 -6 0 -41 -56 -40 -65 2 -30 -1 -37 -13 -27
-21 18 -52 -13 -49 -51 2 -30 2 -31 -13 -13 -23 30 -28 14 -16 -59 13 -88 29
-109 98 -135 32 -12 76 -33 98 -47 52 -35 145 -123 145 -138 0 -7 9 -20 20
-30 11 -10 20 -28 20 -41 0 -13 18 -57 40 -98 73 -140 77 -167 54 -396 l-5
-55 51 -30 c84 -48 89 -59 83 -173 -5 -93 -4 -99 21 -131 34 -45 33 -59 -6
-107 -31 -37 -33 -42 -28 -104 5 -59 8 -66 32 -78 31 -15 52 -47 44 -67 -2 -7
-19 -16 -37 -20 l-32 -7 7 -122 c4 -66 10 -131 13 -144 l5 -22 839 0 839 0 0
1800 0 1800 -2400 0 -2400 0 0 -1800z"/>
<path d="M2044 128 c-48 -98 -52 -128 -14 -128 11 0 20 3 20 6 0 3 12 50 26
105 14 56 23 103 20 106 -3 3 -26 -37 -52 -89z"/>
<path d="M1878 59 c-13 -17 -34 -37 -48 -45 -23 -12 -19 -13 48 -14 39 0 72 2
72 5 0 7 -42 85 -46 85 -2 0 -14 -14 -26 -31z"/>
</g>
</svg>
