<?xml version="1.0" standalone="no"?>
<!DOCTYPE svg PUBLIC "-//W3C//DTD SVG 20010904//EN"
 "http://www.w3.org/TR/2001/REC-SVG-20010904/DTD/svg10.dtd">
<svg version="1.0" xmlns="http://www.w3.org/2000/svg"
 width="480.000000pt" height="360.000000pt" viewBox="0 0 480.000000 360.000000"
 preserveAspectRatio="xMidYMid meet">
<metadata>
Created by potrace 1.16, written by Peter Selinger 2001-2019
</metadata>
<rect width="1" height="360" fill="#000000"/>
<rect x="479" width="1" height="360" fill="#000000"/>
<rect width="480" height="1" fill="#000000"/>
<rect y="359" width="480" height="1" fill="#000000"/>
<g transform="translate(0.000000,360.000000) scale(0.100000,-0.100000)"
fill="#000000" stroke="none">
<path d="M0 1800 l0 -1800 904 0 905 0 22 32 c14 19 22 45 22 65 -1 35 34 141
82 248 25 57 26 66 20 159 -3 55 -13 115 -21 134 -10 24 -14 73 -13 166 0 154
-15 208 -48 175 -32 -32 -45 52 -19 126 9 24 12 58 9 87 -5 41 0 58 35 130 22
46 47 99 55 118 8 19 27 50 42 68 22 26 28 45 29 80 1 41 4 47 24 50 12 2 22
5 22 7 0 2 -33 37 -74 79 -55 56 -79 89 -95 131 -25 66 -26 84 -6 131 14 34
14 37 -7 53 l-21 18 23 31 c14 19 33 32 45 32 12 0 30 8 39 19 15 16 15 19 1
24 -8 4 -21 4 -29 1 -8 -3 -25 1 -38 9 -88 53 -84 49 -60 58 12 5 22 17 22 28
0 30 17 34 49 10 30 -22 68 -22 63 0 -1 7 -12 65 -23 129 -15 91 -17 123 -8
149 14 44 37 43 94 -7 l47 -41 38 35 c35 31 64 44 140 61 14 3 36 20 50 39 14
19 37 42 52 53 l28 18 0 448 0 447 -1200 0 -1200 0 0 -1800z"/>
<path d="M2400 1350 l0 -1350 306 0 306 0 -21 34 c-12 18 -21 50 -21 70 0 20
-21 89 -46 153 l-46 116 5 156 c12 359 19 526 22 529 2 2 16 -15 30 -38 20
-32 30 -39 38 -31 22 22 7 162 -28 266 -27 82 -98 231 -121 256 -18 19 -24 36
-24 72 0 40 -4 49 -23 58 -23 10 -22 12 46 77 113 109 144 184 113 267 -10 24
-24 49 -32 55 -7 7 -14 21 -14 30 0 10 -16 28 -35 40 -40 25 -41 27 -16 59 12
16 21 20 25 12 10 -16 43 -13 50 5 7 17 8 74 2 74 -2 0 -19 -6 -38 -14 -54
-23 -61 -11 -43 75 23 107 30 221 16 247 -17 32 -37 27 -94 -22 l-52 -44 -37
33 c-22 21 -59 41 -93 51 -44 12 -68 27 -104 65 -26 27 -53 49 -59 49 -9 0
-12 -317 -12 -1350z m474 636 c61 -57 41 -129 -61 -212 -127 -105 -150 -98
-97 29 31 74 30 73 48 58 10 -9 16 -9 21 -1 5 8 13 6 27 -7 21 -18 21 -18 14
21 -6 33 -5 38 8 33 20 -8 20 -4 -4 43 -38 75 -16 94 44 36z m-197 -270 c-2
-6 -9 -1 -16 12 -6 12 -9 28 -5 34 8 13 27 -28 21 -46z m-141 -3 c-10 -10 -19
5 -10 18 6 11 8 11 12 0 2 -7 1 -15 -2 -18z m59 -9 c8 -20 15 -40 15 -45 0
-10 -63 -12 -73 -3 -6 6 31 84 40 84 1 0 10 -16 18 -36z m235 -1186 c0 -23 -3
-29 -11 -21 -6 6 -8 20 -4 32 9 30 15 26 15 -11z"/>
<path d="M1955 1985 c-58 -59 -45 -115 48 -202 98 -93 143 -107 127 -41 -12
49 -21 69 -31 63 -4 -3 -17 12 -29 35 -11 22 -24 40 -29 40 -4 0 -14 -12 -22
-27 l-13 -28 -4 33 c-2 20 -9 32 -18 32 -13 0 -13 3 0 23 20 29 32 107 18 107
-6 0 -27 -16 -47 -35z"/>
<path d="M2157 1754 c-4 -4 -7 -17 -7 -28 1 -19 1 -20 11 -3 11 19 8 43 -4 31z"/>
<path d="M1984 564 c3 -9 6 -32 6 -52 l0 -37 21 34 c19 31 19 34 3 52 -21 23
-38 25 -30 3z"/>
</g>
</svg>
