<?xml version="1.0" standalone="no"?>
<!DOCTYPE svg PUBLIC "-//W3C//DTD SVG 20010904//EN"
 "http://www.w3.org/TR/2001/REC-SVG-20010904/DTD/svg10.dtd">
<svg version="1.0" xmlns="http://www.w3.org/2000/svg"
 width="480.000000pt" height="360.000000pt" viewBox="0 0 480.000000 360.000000"
 preserveAspectRatio="xMidYMid meet">
<metadata>
Created by potrace 1.16, written by Peter Selinger 2001-2019
</metadata>
<rect width="1" height="360" fill="#000000"/>
<rect x="479" width="1" height="360" fill="#000000"/>
<rect width="480" height="1" fill="#000000"/>
<rect y="359" width="480" height="1" fill="#000000"/>
<g transform="translate(0.000000,360.000000) scale(0.100000,-0.100000)"
fill="#000000" stroke="none">
<path d="M1873 3390 c-35 -34 -43 -65 -59 -225 -10 -97 -8 -179 4 -183 5 -1 7
-13 5 -26 -7 -37 24 -49 94 -36 31 5 58 8 60 6 3 -2 -27 -46 -66 -97 -86 -113
-92 -154 -25 -164 74 -12 73 -12 64 -52 -5 -21 -11 -108 -14 -193 -7 -168 0
-175 31 -31 l18 83 0 -142 c-1 -141 -1 -143 -25 -158 -78 -49 -112 -102 -129
-207 -17 -96 -46 -200 -57 -200 -5 1 -28 4 -52 9 -24 4 -46 6 -48 3 -3 -3 5
-34 17 -70 l22 -65 -78 -198 c-43 -109 -114 -270 -158 -359 -74 -150 -79 -163
-74 -210 3 -27 10 -97 16 -155 6 -58 15 -195 19 -305 10 -220 21 -266 78 -318
26 -24 27 -29 17 -61 l-11 -36 729 0 c401 0 729 2 729 5 0 3 -51 108 -114 233
-63 125 -123 250 -134 277 -23 58 -56 214 -48 223 3 3 6 -2 6 -12 0 -31 50
-168 92 -251 38 -77 184 -314 200 -326 4 -3 3 -21 -2 -39 -13 -44 -13 -63 0
-55 5 3 12 21 16 41 5 28 9 32 20 23 11 -9 14 -8 14 3 0 8 11 21 25 28 44 24
59 84 52 218 -4 64 -10 137 -13 162 -5 41 -4 47 18 59 32 17 66 150 49 194
-15 38 -14 100 0 91 8 -4 9 14 4 62 -3 38 -8 98 -11 133 -3 36 -7 68 -9 72 -5
7 -11 52 -19 144 -9 92 -80 372 -99 391 -4 4 -7 13 -7 21 0 28 -108 230 -187
351 -72 111 -89 150 -71 169 11 10 12 28 7 71 -4 31 -8 82 -8 113 -1 31 -4 59
-8 63 -13 13 -1 98 19 132 25 43 31 43 24 2 -6 -33 -5 -32 14 7 13 27 20 61
20 103 0 50 3 64 18 69 27 10 52 35 68 68 8 16 25 48 39 70 13 22 31 54 39 72
9 17 20 34 26 38 5 3 10 14 10 24 0 10 7 24 15 31 21 18 19 76 -4 99 -33 33
-168 72 -267 78 -122 7 -180 -2 -210 -34 l-23 -25 -31 25 c-33 28 -99 42 -159
34 -34 -4 -41 -1 -64 28 -33 42 -128 89 -231 115 -112 28 -145 27 -183 -10z
m617 -1118 c0 -15 -2 -15 -10 -2 -13 20 -13 33 0 25 6 -3 10 -14 10 -23z m426
-680 c2 -9 16 -66 32 -127 37 -140 43 -175 34 -175 -4 0 -20 24 -35 53 -37 71
-70 303 -39 272 3 -3 7 -13 8 -23z m-969 -94 c-3 -8 -6 -5 -6 6 -1 11 2 17 5
13 3 -3 4 -12 1 -19z m707 -553 c8 -66 18 -138 21 -160 4 -29 -2 -19 -23 40
-15 44 -34 91 -41 104 -8 14 -10 36 -7 57 4 18 2 73 -4 121 -16 128 -13 261 7
340 l18 68 7 -225 c3 -124 13 -279 22 -345z m-717 503 c-3 -7 -5 -2 -5 12 0
14 2 19 5 13 2 -7 2 -19 0 -25z"/>
</g>
</svg>
