<?xml version="1.0" standalone="no"?>
<!DOCTYPE svg PUBLIC "-//W3C//DTD SVG 20010904//EN"
 "http://www.w3.org/TR/2001/REC-SVG-20010904/DTD/svg10.dtd">
<svg version="1.0" xmlns="http://www.w3.org/2000/svg"
 width="480.000000pt" height="360.000000pt" viewBox="0 0 480.000000 360.000000"
 preserveAspectRatio="xMidYMid meet">
<metadata>
Created by potrace 1.16, written by Peter Selinger 2001-2019
</metadata>
<rect width="1" height="360" fill="#000000"/>
<rect x="479" width="1" height="360" fill="#000000"/>
<rect width="480" height="1" fill="#000000"/>
<rect y="359" width="480" height="1" fill="#000000"/>
<g transform="translate(0.000000,360.000000) scale(0.100000,-0.100000)"
fill="#000000" stroke="none">
<path d="M0 1800 l0 -1800 304 0 c268 0 305 2 310 16 3 9 6 49 6 90 0 72 -1
74 -25 74 -31 0 -49 39 -41 85 3 17 9 48 12 70 4 22 13 44 21 48 16 10 9 92
-11 117 -7 8 -19 31 -28 52 -17 36 -17 36 8 42 22 6 24 11 24 62 0 47 3 57 19
61 14 3 21 17 26 46 3 23 13 66 21 96 9 29 12 61 8 70 -13 28 -13 54 3 123 13
63 19 71 83 132 l69 64 -37 15 c-90 35 -93 35 -161 -39 -33 -37 -61 -63 -61
-57 0 5 9 72 19 149 11 76 27 207 35 289 9 83 21 186 26 230 5 44 12 116 16
160 l6 80 -31 -29 -31 -30 -133 67 c-72 37 -137 67 -144 67 -19 0 -24 17 -12
43 9 20 7 33 -10 72 -12 26 -21 57 -21 68 0 18 5 19 57 14 50 -5 60 -3 98 23
23 16 72 41 109 56 58 24 65 30 60 48 -20 63 5 263 47 376 64 173 213 293 391
315 31 4 64 12 71 19 8 6 41 52 74 101 33 50 80 112 104 138 l44 49 36 -49
c20 -26 61 -88 90 -138 29 -49 56 -93 62 -96 5 -4 34 -9 65 -13 81 -10 193
-50 267 -97 129 -81 248 -239 289 -381 21 -73 21 -207 0 -256 -21 -50 -7 -90
61 -172 l54 -65 -39 -40 -39 -40 26 -95 c38 -140 79 -252 137 -370 84 -170
101 -195 146 -213 24 -9 47 -28 60 -49 18 -30 27 -68 15 -68 -3 0 -33 23 -67
50 -34 27 -68 50 -76 50 -8 0 -39 -23 -69 -50 -45 -41 -61 -50 -91 -50 -20 0
-50 9 -67 20 -34 22 -65 26 -83 8 -8 -8 -15 -8 -28 3 -21 17 -148 19 -164 3
-9 -9 2 -16 46 -29 77 -22 263 -117 293 -148 21 -23 23 -33 19 -83 -4 -47 -1
-65 18 -98 25 -43 28 -50 69 -189 l27 -89 51 7 c29 4 55 12 58 17 4 7 44 6
115 -2 76 -8 110 -8 112 -1 5 15 34 14 137 -8 50 -11 102 -17 116 -14 15 3 67
-8 121 -26 52 -16 104 -27 116 -24 13 3 51 -10 103 -37 45 -23 97 -43 115 -45
19 -1 67 -24 114 -55 45 -28 92 -53 104 -54 13 -2 53 -28 89 -59 36 -31 79
-63 94 -71 16 -7 56 -43 90 -77 34 -35 74 -75 90 -89 15 -14 55 -62 87 -108
l59 -82 323 0 324 0 0 1800 0 1800 -2400 0 -2400 0 0 -1800z m4560 1566 c0
-16 -18 -31 -27 -22 -8 8 5 36 17 36 5 0 10 -6 10 -14z m-1412 -1158 c9 -9 15
-9 24 0 23 23 38 13 38 -23 0 -43 -21 -97 -56 -143 -25 -31 -27 -32 -39 -15
-23 33 -29 126 -11 162 18 34 26 37 44 19z m1496 -287 c-146 -130 -264 -195
-264 -146 0 33 75 88 170 126 87 35 118 41 94 20z m-606 -1008 c2 -8 -5 -13
-17 -13 -12 0 -21 6 -21 16 0 18 31 15 38 -3z"/>
</g>
</svg>
