<?xml version="1.0" standalone="no"?>
<!DOCTYPE svg PUBLIC "-//W3C//DTD SVG 20010904//EN"
 "http://www.w3.org/TR/2001/REC-SVG-20010904/DTD/svg10.dtd">
<svg version="1.0" xmlns="http://www.w3.org/2000/svg"
 width="480.000000pt" height="360.000000pt" viewBox="0 0 480.000000 360.000000"
 preserveAspectRatio="xMidYMid meet">
<metadata>
Created by potrace 1.16, written by Peter Selinger 2001-2019
</metadata>
<rect width="1" height="360" fill="#000000"/>
<rect x="479" width="1" height="360" fill="#000000"/>
<rect width="480" height="1" fill="#000000"/>
<rect y="359" width="480" height="1" fill="#000000"/>
<g transform="translate(0.000000,360.000000) scale(0.100000,-0.100000)"
fill="#000000" stroke="none">
<path d="M2453 3239 c-121 -38 -188 -115 -201 -229 l-7 -61 -65 -26 c-86 -34
-93 -41 -84 -88 5 -29 17 -44 54 -71 42 -30 48 -39 54 -82 12 -89 62 -162 126
-181 37 -11 39 -14 29 -33 -10 -18 -8 -25 12 -43 56 -48 79 -86 79 -128 1 -39
2 -41 15 -23 15 19 16 19 43 -8 25 -23 31 -25 41 -12 6 7 20 12 30 9 13 -3 20
2 24 18 9 33 34 8 42 -41 5 -31 2 -46 -14 -69 -12 -16 -21 -36 -21 -45 0 -8
-27 -33 -59 -55 -56 -38 -101 -84 -101 -102 0 -5 -27 -50 -60 -100 -46 -69
-60 -100 -60 -128 0 -37 -49 -171 -63 -171 -4 0 -13 5 -20 10 -81 69 -236 182
-256 187 -14 3 -48 17 -75 30 -112 56 -213 69 -260 32 -37 -29 -76 -110 -76
-158 0 -31 6 -44 26 -60 34 -27 91 -27 124 -1 43 34 110 24 110 -16 0 -20 21
-38 113 -97 61 -40 156 -106 209 -145 104 -78 139 -88 197 -57 41 21 112 105
157 186 22 38 42 69 46 69 4 0 10 -21 13 -47 7 -56 25 -104 32 -85 3 6 8 12
12 12 15 0 51 -97 60 -166 10 -69 32 -136 53 -162 17 -20 19 -87 4 -130 -8
-22 -32 -70 -53 -108 -37 -66 -48 -91 -123 -267 -56 -132 -147 -246 -321 -403
-31 -27 -94 -71 -140 -97 -46 -26 -97 -58 -114 -72 l-30 -24 1213 -1 c694 0
1212 4 1212 9 0 23 -184 186 -266 236 -49 30 -66 36 -101 32 -39 -4 -44 -1
-91 47 -28 28 -73 80 -102 116 -41 52 -50 70 -45 90 3 14 8 61 11 105 4 65 1
94 -17 155 -12 44 -22 106 -23 150 -1 50 -7 86 -19 107 -9 18 -17 36 -17 41 0
4 26 16 58 26 137 44 228 111 274 203 27 56 32 75 31 141 0 149 -33 207 -241
429 -61 65 -127 141 -148 168 -152 202 -186 245 -225 280 -24 22 -62 51 -84
64 -22 13 -48 34 -57 45 -19 23 -24 51 -8 41 16 -10 13 -2 -41 132 -67 164
-107 231 -182 305 -41 40 -66 73 -73 99 -18 60 -73 134 -127 169 -102 67 -306
90 -434 49z m920 -2135 c51 -16 58 -21 67 -53 17 -62 12 -63 -52 -12 -70 54
-113 98 -88 89 8 -3 41 -14 73 -24z"/>
</g>
</svg>
