<?xml version="1.0" standalone="no"?>
<!DOCTYPE svg PUBLIC "-//W3C//DTD SVG 20010904//EN"
 "http://www.w3.org/TR/2001/REC-SVG-20010904/DTD/svg10.dtd">
<svg version="1.0" xmlns="http://www.w3.org/2000/svg"
 width="480.000000pt" height="360.000000pt" viewBox="0 0 480.000000 360.000000"
 preserveAspectRatio="xMidYMid meet">
<metadata>
Created by potrace 1.16, written by Peter Selinger 2001-2019
</metadata>
<rect width="1" height="360" fill="#000000"/>
<rect x="479" width="1" height="360" fill="#000000"/>
<rect width="480" height="1" fill="#000000"/>
<rect y="359" width="480" height="1" fill="#000000"/>
<g transform="translate(0.000000,360.000000) scale(0.100000,-0.100000)"
fill="#000000" stroke="none">
<path d="M0 1800 l0 -1800 2400 0 2400 0 0 768 0 768 -88 -17 c-211 -42 -318
-54 -482 -54 -284 1 -327 20 -815 346 -193 129 -404 267 -471 307 l-121 73
-82 -28 c-74 -24 -86 -31 -108 -67 -14 -22 -30 -56 -35 -75 -6 -19 -17 -45
-25 -58 -22 -34 -63 -28 -82 11 -12 26 -12 36 2 80 32 102 33 98 -31 148 -42
33 -72 47 -106 52 -26 4 -71 16 -102 26 l-54 19 -38 -25 c-31 -22 -40 -36 -59
-102 -18 -60 -22 -92 -18 -144 6 -75 -5 -108 -35 -108 -26 0 -57 42 -76 105
-14 44 -15 64 -7 117 6 34 10 64 8 66 -8 9 -66 -163 -71 -213 -8 -80 -22 -125
-40 -125 -33 0 -78 125 -77 210 0 19 15 70 32 114 18 43 30 83 29 88 -3 8 -69
-58 -171 -170 -20 -23 -42 -42 -47 -42 -20 0 -31 53 -24 109 6 49 5 54 -8 44
-11 -10 -17 -10 -26 -1 -36 36 21 147 108 215 65 50 221 114 335 136 53 11
195 20 417 28 382 13 383 13 598 -56 153 -50 287 -84 440 -114 58 -11 179 -34
270 -52 200 -38 302 -70 459 -145 l119 -56 113 47 c63 26 171 70 241 99 l127
51 1 613 0 612 -2400 0 -2400 0 0 -1800z m2179 -631 c1 -36 4 -68 7 -71 3 -3
29 2 57 12 82 28 132 33 148 14 7 -9 14 -47 15 -92 1 -42 12 -112 23 -156 13
-49 19 -92 15 -116 -8 -48 18 -149 56 -214 16 -28 58 -85 94 -127 71 -83 71
-86 7 -119 -13 -7 -43 -27 -66 -44 -50 -38 -100 -53 -211 -61 -108 -7 -110 -5
-106 137 3 99 1 113 -22 164 -14 31 -40 74 -57 95 -17 22 -40 67 -50 100 -10
33 -23 68 -29 79 -5 10 -15 54 -21 97 -6 42 -15 86 -21 96 -14 27 19 86 52 94
47 11 60 31 60 95 0 32 7 75 16 96 16 36 17 37 24 12 5 -14 8 -55 9 -91z"/>
</g>
</svg>
