<?xml version="1.0" standalone="no"?>
<!DOCTYPE svg PUBLIC "-//W3C//DTD SVG 20010904//EN"
 "http://www.w3.org/TR/2001/REC-SVG-20010904/DTD/svg10.dtd">
<svg version="1.0" xmlns="http://www.w3.org/2000/svg"
 width="480.000000pt" height="360.000000pt" viewBox="0 0 480.000000 360.000000"
 preserveAspectRatio="xMidYMid meet">
<metadata>
Created by potrace 1.16, written by Peter Selinger 2001-2019
</metadata>
<rect width="1" height="360" fill="#000000"/>
<rect x="479" width="1" height="360" fill="#000000"/>
<rect width="480" height="1" fill="#000000"/>
<rect y="359" width="480" height="1" fill="#000000"/>
<g transform="translate(0.000000,360.000000) scale(0.100000,-0.100000)"
fill="#000000" stroke="none">
<path d="M0 1800 l0 -1800 610 0 c577 0 609 1 602 18 -5 9 -41 85 -81 167
-164 336 -179 381 -157 445 18 52 56 114 113 184 61 75 61 74 68 118 4 25 18
49 44 73 25 24 43 54 55 92 11 34 33 72 58 99 47 51 152 107 235 125 32 7 74
22 93 34 19 12 60 31 90 42 54 20 55 21 58 64 6 79 -16 333 -33 379 -31 86
-55 215 -55 303 l0 87 -67 0 c-84 1 -209 22 -250 44 -23 12 -39 13 -64 6 -43
-12 -69 -13 -69 -1 0 18 123 176 187 242 l65 66 -54 31 c-69 40 -143 105 -135
119 4 6 28 14 54 17 40 6 142 27 150 31 2 1 -6 46 -16 101 -24 120 -29 196
-15 201 6 2 71 -59 144 -137 127 -133 135 -139 155 -126 58 38 257 65 541 73
247 7 282 3 316 -32 29 -31 29 -31 74 0 24 17 51 50 75 95 48 87 107 180 115
180 3 0 3 -25 -1 -55 -3 -30 -1 -99 6 -152 10 -82 16 -100 35 -116 13 -10 30
-39 37 -65 11 -37 19 -48 38 -50 53 -7 252 -61 262 -71 7 -7 -24 -27 -100 -64
-60 -29 -120 -57 -134 -60 -23 -7 -22 -8 19 -27 46 -21 54 -46 24 -73 -31 -28
-102 -52 -275 -91 -27 -6 -27 -7 -12 -36 17 -33 19 -95 5 -154 -6 -30 -1 -94
21 -255 31 -225 59 -474 59 -520 0 -38 -17 -9 -31 57 -17 73 -32 66 -25 -10
14 -132 14 -131 61 -161 66 -42 110 -97 158 -199 62 -129 87 -209 87 -273 0
-59 -11 -92 -50 -144 -19 -26 -25 -48 -27 -90 -1 -31 -5 -79 -8 -106 -4 -29 0
-103 9 -172 9 -67 16 -151 16 -187 l0 -66 860 0 860 0 0 1800 0 1800 -2400 0
-2400 0 0 -1800z"/>
<path d="M1605 710 c-11 -5 -40 -9 -65 -9 -36 -1 -54 -8 -80 -31 -19 -16 -45
-29 -57 -30 -19 0 -99 -26 -111 -36 -4 -2 124 -405 171 -542 l22 -62 73 0 c67
0 73 2 67 19 -30 96 -19 453 21 669 7 34 -2 39 -41 22z"/>
</g>
</svg>
