<?xml version="1.0" standalone="no"?>
<!DOCTYPE svg PUBLIC "-//W3C//DTD SVG 20010904//EN"
 "http://www.w3.org/TR/2001/REC-SVG-20010904/DTD/svg10.dtd">
<svg version="1.0" xmlns="http://www.w3.org/2000/svg"
 width="480.000000pt" height="360.000000pt" viewBox="0 0 480.000000 360.000000"
 preserveAspectRatio="xMidYMid meet">
<metadata>
Created by potrace 1.16, written by Peter Selinger 2001-2019
</metadata>
<rect width="1" height="360" fill="#000000"/>
<rect x="479" width="1" height="360" fill="#000000"/>
<rect width="480" height="1" fill="#000000"/>
<rect y="359" width="480" height="1" fill="#000000"/>
<g transform="translate(0.000000,360.000000) scale(0.100000,-0.100000)"
fill="#000000" stroke="none">
<path d="M1264 2849 c-10 -11 -19 -37 -20 -57 -2 -20 -9 -69 -16 -108 -13 -69
-13 -72 9 -107 13 -21 28 -34 36 -31 7 2 19 -7 27 -20 10 -20 11 -28 0 -40
-10 -13 -7 -22 17 -53 16 -21 37 -50 46 -65 15 -23 22 -27 50 -22 l32 6 -32
-21 c-18 -11 -33 -25 -33 -30 0 -5 -14 -14 -30 -21 -42 -17 -46 -28 -20 -54
l21 -23 -49 -51 c-27 -27 -54 -65 -61 -83 -7 -19 -19 -45 -27 -59 -33 -55 -45
-93 -39 -120 7 -31 41 -66 69 -72 48 -8 44 -151 -6 -232 -17 -29 -27 -57 -24
-69 2 -10 -7 -51 -21 -89 -13 -39 -22 -79 -20 -90 3 -10 -3 -38 -13 -61 -35
-78 -59 -191 -119 -547 -46 -273 -111 -697 -111 -727 0 -2 220 -3 490 -3 387
0 489 3 485 13 -5 17 -23 279 -35 529 -6 114 -17 247 -25 295 -28 159 -83 374
-120 466 -5 12 -2 17 9 17 20 0 21 14 0 30 -43 36 -37 72 38 217 l43 82 -16
58 c-9 32 -28 88 -42 125 -23 59 -24 69 -11 82 19 20 18 33 -6 39 -17 4 -20
14 -20 67 0 51 -7 78 -41 154 -23 50 -47 95 -55 99 -11 6 -10 13 8 37 18 24
24 27 41 18 14 -7 22 -7 27 2 4 7 12 10 17 7 6 -4 18 11 28 32 9 21 27 44 39
50 20 11 22 18 18 79 -2 38 -12 85 -23 108 -10 22 -19 51 -19 63 0 15 -26 52
-70 101 -62 69 -77 80 -121 90 -60 15 -136 7 -198 -21 -56 -25 -61 -24 -61 6
0 30 -20 32 -46 4z"/>
<path d="M3355 533 c-51 -13 -82 -68 -65 -118 14 -42 -12 -214 -34 -231 -8 -6
-57 -21 -108 -33 -142 -35 -166 -54 -156 -122 l3 -24 509 0 c566 0 544 -3 516
64 -17 41 -33 49 -165 82 -146 35 -146 36 -147 200 0 148 -9 166 -79 180 -46
9 -240 10 -274 2z"/>
</g>
</svg>
