<?xml version="1.0" standalone="no"?>
<!DOCTYPE svg PUBLIC "-//W3C//DTD SVG 20010904//EN"
 "http://www.w3.org/TR/2001/REC-SVG-20010904/DTD/svg10.dtd">
<svg version="1.0" xmlns="http://www.w3.org/2000/svg"
 width="480.000000pt" height="360.000000pt" viewBox="0 0 480.000000 360.000000"
 preserveAspectRatio="xMidYMid meet">
<metadata>
Created by potrace 1.16, written by Peter Selinger 2001-2019
</metadata>
<rect width="1" height="360" fill="#000000"/>
<rect x="479" width="1" height="360" fill="#000000"/>
<rect width="480" height="1" fill="#000000"/>
<rect y="359" width="480" height="1" fill="#000000"/>
<g transform="translate(0.000000,360.000000) scale(0.100000,-0.100000)"
fill="#000000" stroke="none">
<path d="M2972 3347 c-18 -26 -37 -49 -42 -52 -5 -3 -30 1 -55 10 -25 8 -52
15 -60 15 -24 0 -17 -33 15 -76 16 -21 30 -42 30 -46 0 -4 -13 -27 -30 -51
-27 -41 -37 -67 -25 -67 2 0 30 9 61 21 36 14 59 18 66 11 6 -6 0 -12 -18 -16
-25 -7 -88 -48 -313 -207 -70 -50 -79 -53 -138 -54 -53 -2 -66 1 -74 17 -17
32 -36 20 -46 -29 -8 -46 -10 -48 -41 -45 -29 3 -32 1 -32 -23 0 -23 81 -169
142 -258 l20 -29 -30 -66 c-17 -37 -42 -110 -57 -163 -23 -89 -25 -110 -23
-265 3 -162 4 -169 23 -167 15 1 29 -14 55 -59 48 -83 63 -84 34 -2 -14 37
-23 68 -22 70 2 2 36 -35 77 -82 70 -82 72 -86 56 -104 -10 -11 -22 -17 -27
-14 -5 3 -35 -8 -66 -24 -31 -17 -79 -33 -107 -37 -78 -10 -113 -24 -134 -53
-14 -21 -34 -31 -80 -41 -67 -15 -108 -41 -121 -77 -9 -23 -146 -101 -158 -90
-3 3 2 33 11 66 20 70 21 110 6 144 -9 20 -9 29 0 40 16 19 -2 81 -26 95 -13
7 -14 14 -5 40 7 21 8 40 2 56 -13 35 39 158 60 145 22 -14 50 -12 50 3 0 15
-47 62 -70 69 -27 9 54 25 84 17 31 -9 66 4 66 24 0 7 -15 28 -34 46 -44 43
-109 52 -186 26 -66 -22 -85 -38 -112 -95 -12 -25 -28 -53 -36 -63 -11 -12
-17 -48 -20 -122 l-5 -105 -44 -29 c-25 -17 -49 -31 -55 -33 -5 -2 -12 -24
-14 -48 -3 -25 -12 -69 -20 -97 -14 -48 -14 -59 1 -120 14 -56 16 -94 11 -211
-4 -91 -2 -150 4 -162 21 -39 81 -70 135 -70 53 0 291 75 413 131 42 18 73 27
88 23 13 -3 24 -8 24 -9 0 -2 -7 -32 -16 -67 -23 -89 -13 -199 36 -392 22 -88
40 -163 40 -167 0 -4 -16 -16 -37 -25 -21 -11 -40 -29 -46 -45 -13 -33 -55
-44 -107 -29 -19 6 -35 10 -35 10 0 0 0 -20 0 -44 l0 -44 -60 -6 c-178 -19
-282 -19 -354 -1 -49 12 -90 16 -124 11 -59 -6 -35 -13 -572 156 -192 60 -355
116 -361 124 -7 8 -15 35 -19 59 -13 93 -89 109 -359 81 -82 -9 -153 -16 -157
-16 -5 0 -9 -148 -9 -330 l0 -330 1560 0 c858 0 1560 2 1560 5 0 3 -13 24 -30
46 -34 47 -48 105 -31 122 7 7 26 17 44 23 22 8 31 17 29 28 -3 14 1 16 18 11
19 -6 21 -4 15 15 -5 15 2 40 23 78 26 50 47 120 67 227 3 17 12 94 19 172 13
140 14 142 50 186 64 78 79 144 56 245 -14 57 18 152 63 186 19 15 31 35 33
53 4 32 11 27 -117 89 -35 17 -85 45 -112 61 -26 17 -73 40 -105 52 -44 17
-61 29 -70 51 -17 37 -6 60 15 31 18 -26 35 -27 58 -1 25 28 36 25 30 -7 -6
-25 0 -22 44 27 33 36 48 48 45 34 -9 -35 14 -37 31 -4 9 17 20 28 25 25 12
-7 21 15 50 119 20 70 22 95 17 205 -4 82 -13 152 -27 201 -12 41 -24 84 -26
95 -3 13 22 58 76 134 76 108 107 171 82 171 -6 0 -14 -5 -18 -11 -4 -8 -12
-2 -21 15 -11 22 -17 24 -33 16 -28 -15 -29 -14 -50 35 -11 25 -27 48 -37 51
-62 20 -110 57 -176 133 -39 46 -87 100 -104 121 -33 38 -42 60 -23 60 45 0
190 -123 225 -189 10 -20 20 -28 30 -25 20 8 88 147 83 170 -5 26 -79 79 -158
114 -36 16 -65 35 -65 42 0 7 -27 22 -60 33 l-60 21 -10 63 -10 63 -33 -45z"/>
</g>
</svg>
