<?xml version="1.0" standalone="no"?>
<!DOCTYPE svg PUBLIC "-//W3C//DTD SVG 20010904//EN"
 "http://www.w3.org/TR/2001/REC-SVG-20010904/DTD/svg10.dtd">
<svg version="1.0" xmlns="http://www.w3.org/2000/svg"
 width="480.000000pt" height="360.000000pt" viewBox="0 0 480.000000 360.000000"
 preserveAspectRatio="xMidYMid meet">
<metadata>
Created by potrace 1.16, written by Peter Selinger 2001-2019
</metadata>
<rect width="1" height="360" fill="#000000"/>
<rect x="479" width="1" height="360" fill="#000000"/>
<rect width="480" height="1" fill="#000000"/>
<rect y="359" width="480" height="1" fill="#000000"/>
<g transform="translate(0.000000,360.000000) scale(0.100000,-0.100000)"
fill="#000000" stroke="none">
<path d="M0 1800 l0 -1800 420 0 420 0 0 24 c0 13 3 44 6 70 7 45 6 46 -29 61
-21 8 -67 15 -105 15 -78 0 -87 6 -97 63 -11 58 -40 74 -146 83 -71 5 -95 11
-109 26 -17 19 -19 19 -44 3 -14 -10 -32 -15 -40 -12 -24 9 -29 63 -11 117 9
28 14 57 11 65 -3 8 2 23 12 32 54 56 66 74 54 82 -10 6 -8 14 8 34 12 15 28
27 35 27 16 0 38 35 40 64 2 19 20 37 99 100 25 19 35 34 31 46 -4 11 22 50
79 118 99 118 178 228 212 294 19 37 21 48 10 57 -7 6 -19 35 -26 65 -13 54
-12 57 28 173 23 65 49 147 58 183 9 36 25 82 34 102 10 20 15 39 12 42 -6 7
-32 -13 -32 -25 0 -5 -11 -27 -24 -48 -13 -21 -31 -60 -39 -87 -19 -63 -35
-98 -102 -234 l-55 -112 21 -41 c26 -49 32 -142 10 -142 -11 0 -23 13 -38 43
-1 2 -10 -1 -21 -7 -11 -6 -35 -50 -56 -103 -26 -64 -47 -101 -67 -117 -17
-13 -33 -20 -37 -16 -4 4 -6 54 -4 112 3 97 5 110 38 174 47 94 65 147 114
329 23 85 44 163 47 173 8 27 -15 20 -30 -10 -8 -16 -27 -66 -42 -113 -15 -47
-31 -87 -35 -90 -4 -3 -15 -18 -24 -35 -10 -16 -15 -23 -13 -14 16 54 28 167
19 189 -9 25 -9 24 -30 -16 -11 -22 -31 -80 -43 -130 -26 -103 -39 -125 -39
-68 -1 39 -1 39 -15 14 -7 -14 -17 -23 -22 -20 -4 3 -10 -15 -13 -40 l-6 -45
-24 39 -24 40 -13 -32 c-18 -44 -24 -40 -17 11 l6 42 -21 -25 c-11 -14 -26
-40 -32 -57 -11 -35 -29 -44 -29 -16 0 15 -2 14 -15 -3 -14 -18 -14 -18 -15 6
-1 37 -20 4 -20 -35 -1 -27 -2 -28 -14 -13 -7 10 -16 15 -19 11 -4 -3 -7 -1
-7 5 0 7 -7 12 -15 12 -14 0 -19 18 -29 108 -4 44 12 157 38 260 8 31 17 76
21 98 8 50 76 169 137 239 200 230 222 262 244 346 12 46 14 84 9 144 -5 65
-2 97 14 165 25 100 21 109 -49 102 -39 -4 -55 -1 -70 13 -30 27 -25 41 35
101 l55 56 -20 28 c-13 18 -42 37 -78 50 -31 12 -77 34 -100 50 -24 16 -49 31
-55 33 -7 2 -9 8 -5 12 6 6 65 -9 212 -56 33 -10 67 -19 76 -19 9 0 25 -9 35
-20 17 -19 18 -19 64 5 55 30 100 32 132 6 l24 -20 -24 -44 c-27 -50 -22 -74
11 -56 22 12 102 14 152 3 62 -13 127 -46 121 -62 -3 -8 0 -21 7 -29 15 -18
18 -95 5 -104 -15 -11 0 -39 21 -39 14 0 19 -7 19 -27 0 -16 3 -51 7 -80 7
-52 6 -53 -28 -75 -29 -19 -34 -27 -29 -48 3 -14 12 -32 19 -41 8 -8 14 -20
14 -26 0 -6 29 -32 64 -57 39 -28 74 -63 90 -90 14 -25 62 -77 106 -117 101
-92 109 -112 72 -193 -26 -58 -27 -69 -26 -206 0 -144 0 -146 66 -410 36 -146
80 -330 97 -410 17 -80 38 -174 47 -210 8 -36 12 -74 8 -84 -5 -14 -4 -17 5
-11 10 6 11 3 2 -12 -5 -11 -6 -24 -2 -29 9 -10 32 -154 26 -164 -2 -3 -6 -61
-9 -129 -3 -67 -8 -126 -11 -130 -2 -5 -24 -11 -47 -14 -26 -3 -49 -14 -58
-25 -8 -11 -28 -37 -44 -57 l-29 -38 -61 7 c-34 3 -82 8 -108 12 l-46 6 -12
-58 c-6 -33 -14 -67 -16 -76 -5 -17 54 -18 1150 -18 l1156 0 -1 23 c0 12 -8
67 -17 122 l-17 100 -90 -2 -90 -3 -50 49 c-33 33 -64 53 -92 61 -41 10 -43
12 -43 50 0 21 4 49 9 62 6 17 5 29 -5 43 -18 24 -18 35 1 35 17 0 20 27 4 32
-6 2 -14 28 -17 58 -4 47 -3 52 12 47 21 -8 23 -1 30 91 5 55 3 72 -5 66 -20
-12 -3 99 31 211 38 124 73 284 95 435 9 63 28 176 43 250 18 94 26 170 26
250 0 105 -2 120 -27 174 -15 32 -27 67 -27 78 0 34 28 74 82 119 68 57 94 85
119 128 11 20 52 60 90 90 38 30 69 59 69 66 0 7 7 18 15 25 25 21 18 61 -16
89 l-31 26 13 78 c10 59 17 77 29 77 27 0 31 12 14 37 -17 27 -11 77 13 105 8
9 12 21 9 27 -9 14 29 38 101 62 57 19 69 20 116 9 29 -7 64 -19 79 -26 26
-14 29 -12 119 76 50 50 94 89 96 87 2 -3 -26 -48 -62 -101 -36 -53 -65 -102
-65 -109 0 -6 43 32 95 86 52 54 95 102 95 108 0 5 5 9 12 9 7 0 34 21 60 47
50 50 62 49 28 -2 -25 -38 -25 -55 -2 -55 18 0 60 -36 51 -44 -15 -12 -99 -37
-109 -31 -6 4 -21 -6 -33 -22 -12 -15 -46 -57 -76 -92 l-53 -63 21 -38 c33
-58 46 -135 43 -248 -3 -84 1 -116 18 -167 34 -102 21 -91 329 -271 46 -27
108 -73 137 -103 l54 -53 0 721 0 721 -2400 0 -2400 0 0 -1800z m3200 -1001
c0 -5 -4 -9 -10 -9 -5 0 -10 7 -10 16 0 8 5 12 10 9 6 -3 10 -10 10 -16z"/>
<path d="M3860 2098 c0 -16 5 -28 10 -28 13 0 13 20 0 40 -8 12 -10 9 -10 -12z"/>
<path d="M3859 2009 c11 -30 29 -96 41 -147 30 -138 40 -157 99 -186 27 -14
52 -30 56 -36 3 -5 10 -10 15 -10 5 0 -2 24 -14 53 -36 80 -73 179 -81 212
-10 44 -74 155 -90 155 -7 0 -21 3 -29 6 -15 6 -14 0 3 -47z"/>
<path d="M966 1981 c-4 -7 -5 -15 -2 -18 9 -9 19 4 14 18 -4 11 -6 11 -12 0z"/>
<path d="M4130 1946 c0 -38 73 -354 100 -430 11 -33 27 -70 34 -82 8 -11 18
-39 22 -60 9 -52 15 -63 98 -174 110 -147 145 -212 163 -304 8 -45 26 -124 39
-177 28 -112 42 -249 26 -249 -6 0 -14 6 -18 12 -6 9 -10 6 -14 -8 -8 -32 -43
-14 -82 41 -35 49 -50 46 -24 -4 9 -16 16 -41 16 -54 0 -46 -19 -57 -118 -67
-51 -6 -102 -15 -113 -20 -10 -6 -52 -38 -91 -71 l-73 -61 -55 7 c-30 4 -59 8
-65 8 -13 3 -4 -98 21 -226 l6 -27 399 0 399 0 0 903 0 902 -58 38 c-32 20
-71 37 -85 37 -27 0 -27 0 -13 -35 8 -19 12 -35 8 -35 -4 0 -1 -4 6 -9 11 -7
11 -11 -2 -23 -13 -14 -12 -19 11 -52 13 -21 23 -39 21 -41 -2 -2 -36 19 -76
46 -40 28 -72 45 -72 39 0 -6 9 -28 20 -49 10 -21 17 -41 15 -43 -3 -2 -30 20
-61 50 -30 29 -58 51 -61 48 -4 -3 7 -18 23 -32 27 -24 27 -25 4 -13 -14 6
-64 50 -112 97 l-87 85 3 -37 c2 -20 6 -39 10 -43 3 -3 6 -11 6 -17 0 -6 -38
27 -85 74 -81 80 -85 83 -85 56z"/>
<path d="M3751 1870 c0 -8 8 -33 18 -55 11 -22 19 -33 19 -25 1 20 -36 99 -37
80z"/>
<path d="M1047 1765 c-60 -125 -79 -177 -68 -188 10 -10 43 37 88 124 18 34
23 58 21 95 l-3 49 -38 -80z"/>
<path d="M171 1584 c0 -11 3 -14 6 -6 3 7 2 16 -1 19 -3 4 -6 -2 -5 -13z"/>
<path d="M3742 200 c-12 -5 -29 -6 -39 -3 -14 6 -15 -1 -10 -57 4 -35 7 -80 7
-101 l0 -39 75 0 c41 0 75 3 75 8 0 4 -13 50 -28 102 -29 98 -37 107 -80 90z"/>
<path d="M1062 100 c-41 -10 -44 -13 -58 -61 l-12 -39 69 0 69 0 0 55 c0 60
-1 61 -68 45z"/>
</g>
</svg>
