<?xml version="1.0" standalone="no"?>
<!DOCTYPE svg PUBLIC "-//W3C//DTD SVG 20010904//EN"
 "http://www.w3.org/TR/2001/REC-SVG-20010904/DTD/svg10.dtd">
<svg version="1.0" xmlns="http://www.w3.org/2000/svg"
 width="480.000000pt" height="360.000000pt" viewBox="0 0 480.000000 360.000000"
 preserveAspectRatio="xMidYMid meet">
<metadata>
Created by potrace 1.16, written by Peter Selinger 2001-2019
</metadata>
<rect width="1" height="360" fill="#000000"/>
<rect x="479" width="1" height="360" fill="#000000"/>
<rect width="480" height="1" fill="#000000"/>
<rect y="359" width="480" height="1" fill="#000000"/>
<g transform="translate(0.000000,360.000000) scale(0.100000,-0.100000)"
fill="#000000" stroke="none">
<path d="M1510 2261 c0 -22 175 -159 290 -226 9 -6 42 -29 71 -51 30 -22 83
-61 119 -86 69 -48 254 -201 330 -272 25 -23 88 -87 140 -141 98 -104 186
-177 280 -233 31 -19 109 -78 175 -133 299 -249 410 -336 655 -511 113 -81
220 -163 238 -181 18 -19 51 -48 75 -63 70 -48 153 -112 167 -129 8 -9 34 -31
59 -48 25 -17 62 -44 82 -61 20 -17 66 -52 102 -79 l65 -47 221 0 221 0 0 244
0 244 -57 23 c-31 12 -93 42 -137 66 -110 59 -223 113 -385 185 -75 33 -143
66 -152 74 -8 8 -19 14 -23 14 -11 0 -224 122 -306 175 -36 23 -83 64 -104 91
-66 83 -193 167 -346 229 -116 47 -321 174 -435 270 -27 23 -93 74 -145 114
-52 40 -104 87 -117 104 -13 17 -42 43 -66 58 -23 14 -55 42 -69 61 -20 27
-36 36 -66 40 -21 3 -63 17 -94 32 -30 14 -61 26 -69 26 -8 0 -42 13 -76 29
-34 16 -64 27 -66 24 -3 -2 -19 3 -36 11 -30 16 -307 110 -413 140 -61 17
-128 21 -128 7z"/>
</g>
</svg>
