<?xml version="1.0" standalone="no"?>
<!DOCTYPE svg PUBLIC "-//W3C//DTD SVG 20010904//EN"
 "http://www.w3.org/TR/2001/REC-SVG-20010904/DTD/svg10.dtd">
<svg version="1.0" xmlns="http://www.w3.org/2000/svg"
 width="480.000000pt" height="360.000000pt" viewBox="0 0 480.000000 360.000000"
 preserveAspectRatio="xMidYMid meet">
<metadata>
Created by potrace 1.16, written by Peter Selinger 2001-2019
</metadata>
<rect width="1" height="360" fill="#000000"/>
<rect x="479" width="1" height="360" fill="#000000"/>
<rect width="480" height="1" fill="#000000"/>
<rect y="359" width="480" height="1" fill="#000000"/>
<g transform="translate(0.000000,360.000000) scale(0.100000,-0.100000)"
fill="#000000" stroke="none">
<path d="M0 1800 l0 -1800 661 0 661 0 -20 33 c-51 84 -186 338 -223 420 -159
354 -233 742 -234 1232 0 384 38 641 159 1059 l35 120 -45 39 c-38 33 -45 45
-42 70 4 37 41 62 103 71 48 6 203 -31 460 -110 215 -66 315 -106 349 -140 19
-20 66 -36 213 -75 309 -82 815 -209 834 -209 12 0 16 5 13 15 -5 11 -21 15
-60 15 -62 0 -69 13 -29 50 17 16 22 26 14 31 -8 4 1 13 22 24 63 33 109 76
213 203 57 70 132 154 168 187 204 192 219 204 274 224 30 12 63 21 72 21 10
0 33 11 52 23 43 29 157 73 229 88 79 17 184 6 261 -26 36 -15 98 -40 139 -55
40 -16 82 -37 93 -47 24 -21 61 -89 65 -118 14 -99 6 -138 -42 -210 -44 -67
-52 -101 -24 -108 17 -5 20 -11 15 -29 -4 -13 -8 -50 -10 -83 -2 -57 -1 -62
36 -107 41 -50 37 -59 -11 -33 -28 14 -29 14 -35 -18 -4 -18 -7 -42 -8 -54 0
-19 -3 -21 -19 -12 -30 16 -61 2 -53 -23 6 -21 6 -21 -22 1 -37 29 -50 14 -27
-35 15 -33 24 -39 60 -46 24 -4 63 -21 87 -38 48 -32 117 -50 197 -50 78 0
159 -43 199 -104 l20 -31 0 718 0 717 -2400 0 -2400 0 0 -1800z"/>
<path d="M1719 2634 c-14 -17 -156 -451 -182 -559 -50 -202 -70 -402 -71 -710
0 -442 39 -610 266 -1144 l93 -221 605 0 605 0 91 73 c50 39 140 110 199 157
112 88 277 246 355 339 25 29 50 59 55 65 6 6 34 40 63 75 52 62 53 64 35 83
-10 12 -103 98 -208 193 -281 254 -295 272 -295 365 0 81 63 185 226 372 27
32 29 39 12 71 -24 47 -28 57 -28 72 0 9 -4 14 -9 10 -5 -3 -12 3 -14 12 -4
15 -6 13 -13 -7 l-8 -25 -6 24 c-8 34 -23 36 -53 5 -14 -14 -31 -23 -37 -19
-5 3 -10 1 -10 -5 0 -6 -4 -9 -9 -6 -4 3 -5 24 -1 46 4 22 3 40 -1 40 -5 0 -9
-4 -9 -10 0 -5 -4 -10 -10 -10 -5 0 -10 9 -10 20 0 11 -4 20 -9 20 -11 0 -5
58 10 105 l10 30 -41 -40 c-46 -45 -50 -41 -15 18 23 41 21 78 -4 63 -18 -12
0 25 37 73 18 24 29 47 25 51 -4 4 -51 17 -103 30 -52 12 -100 23 -106 25 -7
2 -38 -10 -69 -27 -42 -22 -56 -26 -52 -14 3 8 2 18 -3 21 -6 4 -10 1 -10 -6
0 -7 -3 -9 -6 -6 -4 4 -19 -2 -34 -13 -33 -24 -47 -26 -30 -5 10 12 10 15 0
15 -8 0 -4 13 10 38 22 37 22 37 1 18 -21 -19 -21 -19 -19 4 3 21 -7 25 -207
76 -115 30 -354 93 -530 141 -271 74 -332 87 -398 88 -44 0 -83 -5 -88 -11z"/>
<path d="M3353 2479 c-34 -33 -57 -62 -50 -64 49 -14 97 -21 107 -15 7 4 10
31 8 73 l-3 66 -62 -60z"/>
<path d="M2955 2500 c3 -5 13 -10 21 -10 8 0 12 5 9 10 -3 6 -13 10 -21 10 -8
0 -12 -4 -9 -10z"/>
<path d="M3709 1444 c-46 -42 -86 -81 -88 -86 -3 -10 167 -188 179 -188 3 0
12 27 19 59 11 52 11 70 -3 133 -9 40 -17 92 -18 116 -1 23 -2 42 -3 42 -1 0
-39 -34 -86 -76z"/>
<path d="M4716 1231 c-16 -17 -16 -21 5 -55 18 -32 20 -45 14 -94 -5 -31 -8
-99 -8 -150 l0 -94 36 -36 37 -37 0 216 0 215 -28 27 c-33 32 -34 32 -56 8z"/>
</g>
</svg>
