<?xml version="1.0" standalone="no"?>
<!DOCTYPE svg PUBLIC "-//W3C//DTD SVG 20010904//EN"
 "http://www.w3.org/TR/2001/REC-SVG-20010904/DTD/svg10.dtd">
<svg version="1.0" xmlns="http://www.w3.org/2000/svg"
 width="480.000000pt" height="360.000000pt" viewBox="0 0 480.000000 360.000000"
 preserveAspectRatio="xMidYMid meet">
<metadata>
Created by potrace 1.16, written by Peter Selinger 2001-2019
</metadata>
<rect width="1" height="360" fill="#000000"/>
<rect x="479" width="1" height="360" fill="#000000"/>
<rect width="480" height="1" fill="#000000"/>
<rect y="359" width="480" height="1" fill="#000000"/>
<g transform="translate(0.000000,360.000000) scale(0.100000,-0.100000)"
fill="#000000" stroke="none">
<path d="M0 1800 l0 -1800 879 0 879 0 6 38 c16 87 131 481 163 556 76 177 84
209 82 346 -1 101 -5 132 -21 166 -21 46 -39 51 -110 31 -28 -7 -45 -21 -63
-51 -33 -55 -75 -104 -75 -89 0 7 9 36 20 65 11 29 20 54 20 54 0 1 -17 1 -37
0 -36 -1 -38 1 -38 29 0 29 -5 32 -105 72 -58 22 -143 49 -190 58 -90 18 -130
36 -130 60 0 8 -13 21 -29 30 -21 10 -28 20 -24 33 4 18 -4 20 -89 26 -154 12
-303 61 -357 120 -24 25 -24 26 -6 46 23 26 27 25 63 -5 37 -31 40 -31 34 1
-4 24 -3 25 16 15 12 -6 32 -9 44 -6 13 3 68 7 123 9 94 4 104 2 168 -27 65
-29 68 -29 87 -12 16 14 25 16 43 8 12 -5 38 -8 57 -6 28 4 50 -3 100 -33 36
-21 100 -53 143 -71 l78 -33 8 23 c4 12 11 45 15 74 4 29 13 71 21 94 8 23 15
54 15 69 0 15 10 42 23 61 13 19 34 60 47 92 23 54 23 58 6 70 -17 12 -17 19
-6 73 6 32 14 69 16 82 3 15 14 24 33 28 l29 6 7 122 c13 231 55 455 113 591
29 67 83 147 115 171 21 14 18 15 -33 8 -30 -3 -57 -7 -60 -7 -3 -1 -20 2 -38
6 -47 10 -57 43 -37 121 18 69 92 226 128 270 l23 29 48 -22 c27 -11 62 -21
79 -21 16 0 53 -13 81 -30 48 -27 162 -119 178 -143 5 -8 100 -27 143 -28 6 0
41 11 78 25 120 46 247 48 247 4 0 -11 -18 -92 -41 -180 l-41 -159 21 -44 c11
-24 23 -61 27 -83 9 -55 -20 -157 -61 -217 -19 -27 -41 -66 -50 -85 l-16 -35
5 50 4 50 -21 -25 c-12 -14 -29 -37 -38 -50 l-17 -25 -7 28 -8 28 -18 -41
c-15 -32 -19 -66 -19 -145 l0 -102 41 -7 c39 -6 41 -8 37 -38 -4 -27 3 -39 57
-97 108 -116 225 -300 225 -356 0 -11 -9 -33 -19 -49 -11 -16 -17 -34 -15 -40
2 -6 8 -58 13 -115 5 -57 13 -107 18 -112 12 -12 153 -29 301 -36 115 -5 135
-9 145 -25 7 -10 23 -18 37 -18 14 0 31 -5 37 -11 8 -8 19 -5 40 11 32 23 89
39 141 40 32 0 33 1 27 30 -8 38 3 38 45 0 51 -46 61 -38 38 27 -14 39 -5 53
20 30 14 -12 21 -14 29 -6 9 9 17 3 33 -22 21 -34 21 -69 0 -124 -13 -35 -89
-91 -169 -125 -63 -27 -83 -31 -143 -28 -65 3 -69 2 -75 -20 -4 -19 -10 -22
-33 -17 -18 4 -31 1 -40 -10 -15 -18 -76 -20 -117 -4 -44 17 -209 47 -298 54
-44 3 -97 8 -118 11 l-38 6 46 -92 c25 -51 44 -94 42 -96 -5 -5 -114 161 -141
214 -10 19 -20 31 -23 28 -3 -3 -13 -1 -23 4 -13 7 -27 1 -61 -30 l-44 -39 29
-30 c28 -30 28 -30 22 -123 -8 -104 -8 -106 101 -358 70 -161 173 -454 197
-562 l6 -28 850 0 850 0 0 1800 0 1800 -2400 0 -2400 0 0 -1800z m1193 693 c3
-10 8 -34 11 -54 4 -21 13 -42 20 -48 12 -10 16 -6 21 21 8 38 31 78 45 78 5
0 21 -17 35 -37 23 -35 25 -46 25 -153 0 -87 -4 -121 -15 -136 -18 -23 -20
-104 -2 -126 6 -9 21 -18 32 -20 23 -4 22 -35 -1 -80 -19 -37 -17 -67 6 -106
11 -18 20 -41 20 -50 0 -25 -35 -60 -68 -68 -15 -4 -38 -15 -52 -24 -14 -9
-49 -30 -78 -45 -52 -28 -53 -28 -89 -11 -27 13 -49 15 -88 11 -49 -7 -53 -5
-74 22 -17 21 -21 36 -17 62 4 25 -3 53 -24 102 -35 80 -40 139 -11 139 39 0
45 23 31 128 -15 117 -12 147 14 147 13 0 23 11 29 30 19 59 35 67 66 33 l20
-21 11 27 c5 15 10 36 10 46 0 34 20 72 41 77 11 3 26 21 34 39 15 36 41 45
48 17z"/>
<path d="M1051 2220 c0 -14 6 -36 15 -50 15 -25 15 -25 8 10 -9 48 -23 73 -23
40z"/>
<path d="M1010 1707 c0 -13 7 -30 15 -37 13 -11 15 -9 15 13 0 13 -7 30 -15
37 -13 11 -15 9 -15 -13z"/>
<path d="M2641 2260 c-13 -28 -9 -57 9 -68 18 -11 20 -10 20 8 0 11 -4 20 -9
20 -5 0 -12 10 -14 23 -2 12 -5 20 -6 17z"/>
<path d="M2786 1370 c-3 -8 -7 -37 -8 -65 -3 -46 -1 -50 21 -53 36 -6 39 8 15
73 -14 38 -24 54 -28 45z"/>
<path d="M1977 1269 c4 -13 8 -18 11 -10 2 7 -1 18 -6 23 -8 8 -9 4 -5 -13z"/>
<path d="M2030 1124 c0 -13 18 -39 24 -34 2 3 -2 14 -10 24 -8 11 -14 16 -14
10z"/>
</g>
</svg>
