<?xml version="1.0" standalone="no"?>
<!DOCTYPE svg PUBLIC "-//W3C//DTD SVG 20010904//EN"
 "http://www.w3.org/TR/2001/REC-SVG-20010904/DTD/svg10.dtd">
<svg version="1.0" xmlns="http://www.w3.org/2000/svg"
 width="480.000000pt" height="360.000000pt" viewBox="0 0 480.000000 360.000000"
 preserveAspectRatio="xMidYMid meet">
<metadata>
Created by potrace 1.16, written by Peter Selinger 2001-2019
</metadata>
<rect width="1" height="360" fill="#000000"/>
<rect x="479" width="1" height="360" fill="#000000"/>
<rect width="480" height="1" fill="#000000"/>
<rect y="359" width="480" height="1" fill="#000000"/>
<g transform="translate(0.000000,360.000000) scale(0.100000,-0.100000)"
fill="#000000" stroke="none">
<path d="M2237 3530 c-61 -16 -129 -56 -174 -102 -88 -92 -153 -243 -153 -358
0 -56 -3 -70 -22 -87 -39 -35 -71 -48 -118 -48 -42 0 -45 -2 -48 -28 -2 -16
-15 -36 -33 -49 -16 -12 -29 -30 -29 -41 0 -19 76 -122 123 -165 21 -20 29
-22 46 -13 17 9 22 8 32 -11 11 -20 7 -27 -47 -76 l-59 -55 54 7 c52 7 53 6
48 -16 -3 -13 -9 -43 -12 -68 l-6 -45 21 28 c12 15 25 27 30 27 5 0 11 -19 15
-42 4 -24 12 -54 17 -68 l10 -25 12 30 13 30 6 -49 c4 -29 16 -57 29 -71 l23
-24 11 37 12 37 1 -42 c1 -30 8 -50 26 -69 14 -15 26 -24 26 -20 2 10 5 19 19
56 l14 35 8 -30 c5 -17 6 -49 3 -72 -7 -52 1 -55 20 -9 11 26 20 34 35 31 13
-2 20 2 20 11 0 8 5 12 10 9 16 -10 13 -78 -3 -72 -30 11 -39 -8 -26 -52 14
-49 13 -50 -61 -77 -95 -35 -196 -87 -228 -117 l-34 -32 -23 30 c-13 16 -41
57 -61 92 -23 40 -45 65 -59 69 -13 3 -58 0 -102 -7 -106 -16 -253 -14 -337 6
-76 17 -165 59 -285 135 -44 27 -139 79 -212 116 -74 36 -146 75 -161 85 -37
27 -55 24 -128 -23 -143 -93 -308 -174 -423 -208 l-77 -23 0 -189 0 -188 35
22 c41 27 66 82 70 153 2 28 4 56 4 63 1 12 58 42 79 42 5 0 3 -28 -4 -62 -23
-111 -74 -404 -74 -427 0 -14 5 -21 13 -19 10 4 170 191 297 350 46 57 61 131
39 195 -21 64 -13 103 28 141 53 47 71 48 134 12 30 -18 64 -36 76 -41 23 -8
32 -29 13 -29 -15 0 -74 -56 -103 -97 -26 -38 -27 -46 -43 -297 -10 -164 -13
-266 -7 -279 9 -20 11 -19 35 14 14 19 50 77 81 129 30 52 82 142 116 200 72
123 75 149 36 294 -8 29 -7 29 26 22 74 -14 239 -121 239 -155 0 -11 -12 -24
-27 -30 -18 -8 -44 -38 -71 -82 l-42 -70 10 -252 c12 -281 16 -320 33 -314 11
3 52 89 185 384 l63 139 -20 83 c-11 45 -25 89 -32 97 -10 12 8 14 122 13 212
-1 266 -16 200 -55 -17 -10 -51 -52 -76 -92 -45 -73 -46 -76 -40 -136 3 -33
12 -162 20 -285 8 -123 18 -228 23 -233 14 -14 26 8 102 194 l72 177 34 -22
c19 -12 34 -26 34 -30 0 -16 -46 -70 -73 -84 -23 -11 -26 -17 -17 -28 7 -8 22
-17 33 -21 44 -13 45 -20 15 -107 -37 -102 -82 -278 -98 -379 l-13 -78 -71
-38 c-39 -21 -123 -72 -186 -113 -169 -110 -265 -169 -276 -169 -5 0 -22 19
-39 41 -16 22 -44 49 -62 60 -18 11 -51 43 -75 71 -61 73 -144 102 -168 59
-14 -27 -4 -47 36 -70 37 -22 43 -41 18 -65 -18 -19 -17 -19 -119 -21 -44 0
-104 -7 -134 -14 l-55 -14 -33 36 c-21 24 -33 47 -33 66 0 16 -7 34 -15 41
-17 14 -44 7 -49 -12 -2 -7 -13 -41 -24 -76 l-20 -62 33 -48 c19 -26 47 -72
63 -102 42 -78 62 -93 114 -88 38 4 46 1 69 -26 l27 -31 60 29 c60 29 61 29
103 12 58 -24 283 -76 325 -76 21 0 73 19 137 51 172 86 456 251 503 292 50
44 105 149 149 285 22 67 30 80 41 71 11 -9 16 -5 25 15 7 14 16 26 21 26 15
0 14 -281 -2 -383 -4 -26 -4 -50 0 -52 16 -10 -4 -93 -40 -165 -39 -79 -110
-253 -110 -270 0 -7 224 -10 660 -10 374 0 660 4 660 9 0 18 -53 147 -106 259
-49 104 -55 122 -50 162 3 25 0 97 -8 160 -7 64 -11 131 -9 150 11 102 15 122
22 114 4 -5 23 -49 41 -99 84 -229 105 -253 361 -393 301 -165 427 -225 482
-230 64 -5 224 20 311 49 l64 21 61 -33 c69 -38 89 -35 106 19 9 31 18 36 62
32 12 -1 31 3 41 9 24 13 53 72 56 114 2 18 17 53 35 78 35 52 38 73 16 121
-8 18 -19 52 -25 76 -6 24 -18 46 -26 49 -21 8 -44 -16 -44 -46 0 -15 -13 -45
-29 -67 l-29 -39 -134 2 c-159 3 -171 5 -186 38 -18 39 -15 52 18 72 35 20 47
48 30 68 -33 40 -119 1 -159 -71 -16 -28 -47 -65 -68 -82 -22 -17 -48 -47 -58
-66 -11 -20 -26 -36 -34 -36 -17 0 -87 39 -270 152 -79 49 -181 109 -226 134
l-83 44 -16 90 c-18 96 -74 299 -106 380 -26 66 -25 78 4 86 14 3 33 15 43 26
15 17 16 22 4 26 -8 3 -33 22 -55 43 l-41 38 43 39 c44 41 49 51 31 69 -6 6
-9 17 -7 23 2 7 41 -75 87 -182 88 -203 106 -238 121 -238 14 0 18 45 30 332
10 223 15 274 30 306 10 20 28 69 41 107 12 39 27 73 33 77 17 12 104 9 111
-2 4 -6 2 -17 -4 -24 -6 -7 -17 -48 -26 -91 l-15 -78 124 -252 c68 -139 129
-256 136 -260 7 -4 16 -2 21 6 5 8 9 137 9 288 l0 273 -46 70 c-26 38 -57 74
-70 80 -49 23 -26 60 85 135 64 43 147 77 156 63 3 -5 1 -18 -4 -28 -5 -10
-13 -53 -17 -95 l-7 -76 74 -116 c41 -63 106 -166 144 -228 42 -67 78 -113 89
-115 18 -4 19 1 13 74 -17 213 -38 441 -42 459 -6 28 -93 125 -121 136 -33 12
-30 25 9 45 17 9 51 30 74 45 23 16 50 29 60 29 10 0 39 -16 64 -34 39 -29 47
-40 52 -77 3 -24 1 -52 -5 -62 -5 -11 -8 -50 -6 -87 3 -53 9 -74 28 -98 52
-63 286 -337 304 -356 18 -18 20 -18 32 -1 7 10 12 21 9 24 -6 11 -95 440 -95
460 0 18 2 18 45 2 48 -17 60 -35 56 -86 -3 -52 31 -135 67 -163 l32 -25 0
190 0 189 -82 24 c-111 31 -274 104 -400 178 -130 77 -147 81 -190 49 -18 -13
-80 -50 -138 -82 -58 -31 -162 -95 -232 -141 -116 -77 -273 -162 -282 -153 -2
2 -14 63 -25 134 -19 115 -48 239 -66 286 -5 13 4 19 38 27 65 17 72 30 59
110 -6 37 -18 124 -27 193 -19 155 -36 209 -73 231 -34 20 -197 28 -228 10
-20 -11 -23 -8 -33 36 -29 114 -104 222 -195 280 -52 32 -151 66 -256 87 -47
9 -120 25 -163 36 -93 23 -217 32 -270 19z m842 -1148 c-23 -143 -22 -195 7
-300 6 -21 4 -23 -22 -21 -53 4 -59 0 -93 -63 -19 -35 -49 -87 -68 -116 l-34
-53 -47 41 c-52 47 -102 74 -209 114 -40 15 -75 32 -79 37 -5 9 25 149 33 149
2 0 3 -17 2 -37 -4 -77 -2 -80 27 -52 14 13 35 41 46 63 11 22 23 35 28 30 5
-5 10 -50 12 -99 3 -93 11 -96 24 -10 l8 50 6 -50 5 -50 14 60 c17 77 27 97
36 73 11 -28 21 -21 40 25 17 41 17 42 27 17 l10 -25 19 37 c26 50 32 52 54
12 10 -19 22 -34 27 -34 4 0 5 32 2 70 l-7 70 47 -6 c53 -8 59 3 16 31 -16 11
-30 26 -30 34 0 8 26 60 58 116 56 100 57 102 60 66 2 -20 -7 -100 -19 -179z
m-804 -48 c34 -24 124 -67 170 -80 30 -8 30 -8 -11 -12 -46 -3 -137 27 -179
60 -36 28 -23 35 17 8 l33 -22 -30 26 c-16 14 -35 26 -41 26 -6 0 -17 6 -23
14 -18 22 27 8 64 -20z m250 -184 c9 -15 -16 -43 -27 -32 -10 10 0 42 12 42 5
0 12 -5 15 -10z m591 -274 c-7 -12 -18 -56 -25 -98 -11 -71 -11 -80 8 -117 31
-59 26 -61 -22 -11 -23 25 -61 61 -83 80 l-42 35 71 88 71 89 17 -23 c14 -19
15 -26 5 -43z m-1381 -57 c28 -33 51 -63 53 -67 1 -4 -27 -39 -63 -77 -57 -62
-63 -66 -54 -38 8 25 7 52 -6 115 -9 46 -21 88 -26 95 -7 7 -6 18 2 31 16 26
29 18 94 -59z m1637 -6 c-2 -18 -8 -33 -13 -33 -11 0 -12 70 -2 97 6 16 8 15
13 -6 3 -14 4 -40 2 -58z"/>
</g>
</svg>
