<?xml version="1.0" standalone="no"?>
<!DOCTYPE svg PUBLIC "-//W3C//DTD SVG 20010904//EN"
 "http://www.w3.org/TR/2001/REC-SVG-20010904/DTD/svg10.dtd">
<svg version="1.0" xmlns="http://www.w3.org/2000/svg"
 width="480.000000pt" height="360.000000pt" viewBox="0 0 480.000000 360.000000"
 preserveAspectRatio="xMidYMid meet">
<metadata>
Created by potrace 1.16, written by Peter Selinger 2001-2019
</metadata>
<rect width="1" height="360" fill="#000000"/>
<rect x="479" width="1" height="360" fill="#000000"/>
<rect width="480" height="1" fill="#000000"/>
<rect y="359" width="480" height="1" fill="#000000"/>
<g transform="translate(0.000000,360.000000) scale(0.100000,-0.100000)"
fill="#000000" stroke="none">
<path d="M2115 1825 c-118 -19 -167 -32 -244 -67 -126 -56 -221 -150 -289
-284 l-30 -60 -84 12 c-203 31 -575 -3 -691 -62 -123 -64 -7 -323 282 -632 53
-57 124 -133 158 -170 40 -43 60 -72 57 -82 -4 -8 -23 -76 -44 -150 -20 -74
-45 -153 -54 -175 l-17 -40 20 25 c34 42 107 172 126 223 22 57 32 54 17 -5
-6 -24 -16 -89 -22 -146 -6 -56 -18 -124 -25 -150 -19 -61 -19 -62 9 -62 16 0
32 12 51 40 15 22 31 40 35 40 5 0 11 -18 15 -40 l7 -40 1054 0 1054 0 1 78
c0 76 1 76 14 41 7 -20 25 -55 40 -78 23 -35 33 -41 61 -41 19 0 34 2 34 4 0
2 -7 23 -15 46 -8 23 -30 108 -49 189 -19 80 -42 166 -50 190 l-16 43 40 46
c22 25 57 53 78 62 43 19 108 89 137 147 11 21 40 61 65 89 65 73 166 223 203
301 20 43 33 89 35 125 7 99 -24 124 -198 158 -196 38 -388 47 -566 24 l-51
-6 -26 44 c-109 186 -319 308 -612 353 -145 23 -399 28 -510 10z"/>
</g>
</svg>
