<?xml version="1.0" standalone="no"?>
<!DOCTYPE svg PUBLIC "-//W3C//DTD SVG 20010904//EN"
 "http://www.w3.org/TR/2001/REC-SVG-20010904/DTD/svg10.dtd">
<svg version="1.0" xmlns="http://www.w3.org/2000/svg"
 width="480.000000pt" height="360.000000pt" viewBox="0 0 480.000000 360.000000"
 preserveAspectRatio="xMidYMid meet">
<metadata>
Created by potrace 1.16, written by Peter Selinger 2001-2019
</metadata>
<rect width="1" height="360" fill="#000000"/>
<rect x="479" width="1" height="360" fill="#000000"/>
<rect width="480" height="1" fill="#000000"/>
<rect y="359" width="480" height="1" fill="#000000"/>
<g transform="translate(0.000000,360.000000) scale(0.100000,-0.100000)"
fill="#000000" stroke="none">
<path d="M1465 3590 c10 -16 76 -41 89 -33 6 4 40 8 76 8 36 1 73 5 83 9 14 7
17 3 17 -16 0 -15 -34 -69 -91 -144 -92 -121 -139 -199 -139 -231 0 -33 34
-75 72 -88 23 -8 40 -9 46 -3 6 6 18 6 32 -2 12 -6 30 -10 40 -7 11 3 26 -4
37 -15 15 -17 17 -42 19 -201 1 -161 4 -196 29 -302 41 -175 40 -175 19 -175
-41 0 -46 -14 -23 -66 43 -99 46 -87 -40 -137 -99 -58 -195 -146 -227 -208
-29 -58 -38 -98 -58 -256 -9 -67 -25 -162 -37 -212 l-21 -90 -76 6 c-89 6
-152 -12 -152 -45 0 -11 15 -53 34 -95 66 -145 68 -122 -18 -382 -80 -240
-123 -343 -293 -688 -57 -115 -103 -210 -103 -213 0 -2 474 -4 1053 -4 l1052
0 -6 112 c-4 62 -12 192 -19 288 -13 167 -12 180 8 280 17 83 78 308 109 400
3 11 8 9 18 -10 11 -22 11 -41 -2 -125 -24 -161 -8 -847 22 -932 3 -10 94 -13
410 -13 226 0 405 4 405 9 0 5 -7 25 -16 46 -10 25 -17 77 -19 154 -14 514
-19 601 -36 601 -4 0 -5 15 -2 34 3 19 1 36 -6 40 -6 4 -8 20 -4 36 3 17 0 36
-7 45 -7 8 -9 26 -5 44 3 17 2 32 -4 36 -6 3 -11 21 -11 39 0 19 -7 39 -16 47
-10 8 -13 21 -9 36 3 13 -1 36 -10 53 -8 16 -15 38 -15 50 0 18 -27 95 -78
225 -9 22 -24 50 -34 61 -11 12 -18 25 -16 30 5 16 -32 95 -47 100 -8 4 -15
15 -15 26 0 20 -60 140 -84 168 -8 8 -17 25 -20 38 -4 12 -16 27 -26 32 -11 6
-17 16 -14 23 2 7 -4 22 -16 32 -11 10 -20 24 -20 32 0 7 -7 24 -15 37 -8 12
-18 57 -21 99 -6 65 -5 77 8 77 23 0 43 27 30 43 -12 15 -46 380 -38 413 6 21
3 24 -19 24 -24 0 -25 2 -25 61 0 58 2 63 50 118 70 80 100 155 109 266 l7 90
49 54 c58 62 85 100 85 121 0 8 18 41 40 74 22 32 40 65 40 72 0 12 -173 14
-1071 14 -721 0 -1068 -3 -1064 -10z m1845 -565 c-11 -49 -50 -124 -75 -145
-26 -21 -18 39 11 95 32 61 65 108 70 102 3 -2 0 -26 -6 -52z m-450 -712 c0
-19 -27 -16 -34 3 -3 9 -6 28 -6 42 l0 27 20 -30 c11 -16 20 -36 20 -42z"/>
</g>
</svg>
