<?xml version="1.0" standalone="no"?>
<!DOCTYPE svg PUBLIC "-//W3C//DTD SVG 20010904//EN"
 "http://www.w3.org/TR/2001/REC-SVG-20010904/DTD/svg10.dtd">
<svg version="1.0" xmlns="http://www.w3.org/2000/svg"
 width="480.000000pt" height="360.000000pt" viewBox="0 0 480.000000 360.000000"
 preserveAspectRatio="xMidYMid meet">
<metadata>
Created by potrace 1.16, written by Peter Selinger 2001-2019
</metadata>
<rect width="1" height="360" fill="#000000"/>
<rect x="479" width="1" height="360" fill="#000000"/>
<rect width="480" height="1" fill="#000000"/>
<rect y="359" width="480" height="1" fill="#000000"/>
<g transform="translate(0.000000,360.000000) scale(0.100000,-0.100000)"
fill="#000000" stroke="none">
<path d="M1596 3573 c16 -58 12 -285 -7 -400 -30 -177 -133 -427 -217 -529
-15 -18 -45 -56 -67 -84 -45 -58 -232 -230 -250 -230 -7 0 -20 -10 -31 -21
-17 -19 -88 -60 -184 -105 -34 -16 -143 -52 -245 -80 -121 -34 -449 -36 -549
-3 -16 5 -33 9 -37 9 -5 0 -9 -479 -9 -1065 l0 -1065 1308 0 1307 0 28 162
c20 119 43 210 86 338 79 234 95 295 131 495 17 94 42 227 56 297 17 89 22
133 15 145 -8 15 -31 152 -31 183 0 4 -21 18 -46 30 -52 26 -84 70 -84 117 0
17 15 61 34 97 22 42 30 66 22 66 -15 0 -75 -19 -176 -55 l-74 -27 -18 22
c-10 12 -18 31 -18 41 0 23 -13 24 -44 4 -22 -15 -24 -14 -30 10 -4 14 -14 25
-24 25 -93 1 -260 26 -377 56 -77 20 -162 39 -190 43 -27 4 -64 15 -82 24 -40
21 -82 22 -111 1 -28 -19 -41 -10 -24 17 12 18 10 19 -30 13 -43 -7 -43 -7
-25 14 19 20 18 21 -13 24 l-32 3 27 29 c26 28 27 29 118 23 66 -3 112 -13
161 -31 53 -21 111 -31 253 -46 101 -11 192 -24 202 -30 13 -6 36 -7 71 0 63
12 70 16 70 41 0 23 3 23 41 4 29 -16 30 -16 40 15 13 36 40 39 126 14 41 -12
85 -15 164 -12 120 4 145 14 114 48 -17 19 -17 20 9 29 40 16 32 32 -12 25
-37 -6 -38 -4 -72 48 -19 29 -41 58 -50 65 -13 10 -12 14 8 35 12 14 22 27 22
30 0 5 -43 20 -64 22 -11 1 -46 65 -46 84 0 7 -4 11 -8 8 -28 -17 10 95 45
135 13 15 10 25 -21 88 -41 81 -46 126 -16 136 24 8 271 -59 315 -85 17 -10
48 -21 70 -25 90 -15 178 -93 214 -190 12 -31 25 -96 30 -143 7 -65 18 -105
43 -157 31 -67 33 -76 33 -187 l1 -116 62 -60 c64 -61 73 -84 47 -118 -18 -24
-19 -34 -1 -34 15 0 19 -48 5 -66 -6 -7 4 -40 27 -88 35 -77 35 -79 45 -274 5
-108 16 -225 24 -259 8 -34 15 -91 15 -126 0 -50 5 -70 21 -91 19 -24 19 -27
3 -33 -11 -4 -23 1 -36 16 -22 28 -24 11 -3 -30 9 -16 13 -34 10 -39 -12 -19
-43 9 -58 52 -9 24 -16 35 -16 25 -1 -10 8 -42 18 -72 14 -40 16 -55 7 -55 -6
0 -17 5 -24 12 -7 7 -12 9 -12 6 0 -12 88 -213 160 -368 58 -124 117 -281 146
-387 3 -10 103 -13 459 -13 l455 0 0 1800 0 1800 -1606 0 -1606 0 8 -27z"/>
<path d="M3457 1390 c-3 -13 -1 -33 6 -44 7 -13 11 -62 10 -126 -2 -115 3
-152 18 -129 12 19 11 95 -2 203 -13 102 -23 131 -32 96z"/>
</g>
</svg>
