<?xml version="1.0" standalone="no"?>
<!DOCTYPE svg PUBLIC "-//W3C//DTD SVG 20010904//EN"
 "http://www.w3.org/TR/2001/REC-SVG-20010904/DTD/svg10.dtd">
<svg version="1.0" xmlns="http://www.w3.org/2000/svg"
 width="480.000000pt" height="360.000000pt" viewBox="0 0 480.000000 360.000000"
 preserveAspectRatio="xMidYMid meet">
<metadata>
Created by potrace 1.16, written by Peter Selinger 2001-2019
</metadata>
<rect width="1" height="360" fill="#000000"/>
<rect x="479" width="1" height="360" fill="#000000"/>
<rect width="480" height="1" fill="#000000"/>
<rect y="359" width="480" height="1" fill="#000000"/>
<g transform="translate(0.000000,360.000000) scale(0.100000,-0.100000)"
fill="#000000" stroke="none">
<path d="M3966 3568 c15 -86 69 -178 105 -178 30 0 32 -20 8 -106 -12 -43 -23
-88 -26 -99 -3 -11 -13 -42 -23 -70 -10 -27 -23 -66 -30 -85 -6 -19 -23 -64
-36 -100 -30 -79 -82 -220 -101 -275 -7 -22 -29 -76 -48 -120 -119 -280 -184
-521 -190 -708 -4 -116 -17 -172 -41 -181 -19 -7 -196 33 -379 86 -77 23 -160
43 -185 45 -41 4 -50 1 -84 -31 -22 -19 -44 -37 -50 -39 -21 -8 3 -19 91 -42
80 -21 525 -124 600 -140 34 -7 48 -28 34 -52 -4 -9 -6 -24 -4 -33 10 -38 -64
-38 -470 -6 -166 14 -359 28 -428 31 l-126 7 -12 71 c-6 40 -25 123 -43 185
-31 113 -31 114 -13 165 16 48 16 59 1 152 -8 55 -18 114 -21 130 -5 25 -1 35
24 59 17 17 31 39 31 50 -1 32 -34 98 -63 125 -24 22 -32 23 -89 17 -97 -10
-113 -52 -57 -152 28 -50 29 -58 18 -91 -6 -20 -22 -51 -35 -71 -28 -41 -30
-68 -7 -94 18 -20 20 -66 3 -98 -14 -26 -54 -238 -75 -395 -9 -66 -20 -153
-25 -193 -17 -123 -14 -151 16 -162 14 -6 40 -10 59 -10 47 0 65 -9 76 -38 13
-33 -10 -58 -62 -67 -54 -9 -71 -41 -38 -68 21 -17 37 -19 149 -15 69 2 134 9
145 15 18 10 16 13 -22 28 -34 14 -45 25 -58 60 -9 23 -15 53 -13 66 3 23 6
24 77 21 l73 -3 -5 63 c-3 35 -11 100 -18 145 -7 45 -11 85 -8 88 3 2 21 0 40
-6 19 -5 104 -14 189 -19 85 -5 241 -17 347 -26 129 -11 256 -15 390 -12 230
6 283 18 397 92 80 53 125 65 158 42 12 -9 33 -16 45 -16 20 0 23 5 23 42 0
38 6 48 54 98 30 30 69 74 88 97 95 120 221 263 231 263 7 0 22 3 34 6 18 5
24 0 36 -27 8 -19 21 -40 30 -48 11 -9 17 -29 17 -57 0 -40 3 -46 40 -69 48
-31 52 -61 16 -133 -13 -26 -33 -80 -45 -119 -20 -68 -25 -75 -79 -114 -71
-52 -292 -268 -292 -286 0 -7 11 -13 25 -13 34 0 32 -18 -10 -73 -20 -26 -85
-118 -146 -204 -98 -140 -133 -194 -199 -308 -10 -16 -68 -118 -130 -225 -62
-107 -130 -220 -151 -252 -22 -32 -42 -64 -45 -73 -5 -13 59 -15 570 -15 l576
0 0 1800 0 1800 -420 0 -419 0 5 -32z m252 -830 c52 -108 103 -173 155 -199
23 -12 43 -23 45 -24 2 -2 -13 -35 -33 -74 -24 -47 -38 -91 -42 -129 -3 -31
-11 -68 -18 -82 -11 -20 -11 -30 1 -51 7 -15 20 -29 29 -32 35 -14 15 -52 -69
-135 -68 -66 -89 -94 -106 -140 -12 -31 -27 -64 -34 -72 -6 -8 -20 -41 -30
-72 -27 -81 -57 -107 -142 -119 -79 -11 -119 -5 -130 19 -4 9 -9 76 -12 149
-7 200 20 318 138 613 23 58 60 150 82 205 22 55 49 123 60 150 40 100 55 99
106 -7z m-321 -1244 c-3 -3 -12 -4 -19 -1 -8 3 -5 6 6 6 11 1 17 -2 13 -5z"/>
</g>
</svg>
