<?xml version="1.0" standalone="no"?>
<!DOCTYPE svg PUBLIC "-//W3C//DTD SVG 20010904//EN"
 "http://www.w3.org/TR/2001/REC-SVG-20010904/DTD/svg10.dtd">
<svg version="1.0" xmlns="http://www.w3.org/2000/svg"
 width="480.000000pt" height="360.000000pt" viewBox="0 0 480.000000 360.000000"
 preserveAspectRatio="xMidYMid meet">
<metadata>
Created by potrace 1.16, written by Peter Selinger 2001-2019
</metadata>
<rect width="1" height="360" fill="#000000"/>
<rect x="479" width="1" height="360" fill="#000000"/>
<rect width="480" height="1" fill="#000000"/>
<rect y="359" width="480" height="1" fill="#000000"/>
<g transform="translate(0.000000,360.000000) scale(0.100000,-0.100000)"
fill="#000000" stroke="none">
<path d="M0 1800 l0 -1800 543 0 542 0 12 27 c12 24 10 30 -14 55 -29 31 -58
42 -153 58 -86 15 -118 28 -125 50 -7 22 -59 68 -104 92 -45 25 -40 50 24 117
30 32 55 66 55 75 0 50 58 93 215 160 308 131 486 260 654 471 30 39 83 102
118 141 l62 71 -54 96 c-37 63 -55 106 -55 129 0 18 12 105 26 193 14 88 28
219 31 291 l6 132 -24 -4 c-13 -2 -42 -6 -64 -9 -39 -6 -40 -6 -17 11 33 25
27 30 -30 32 -45 1 -56 -3 -89 -32 -21 -20 -60 -41 -93 -50 -60 -18 -76 -36
-76 -86 0 -81 -53 -143 -138 -161 -32 -7 -63 -17 -69 -22 -7 -5 -13 -31 -13
-57 0 -79 -51 -120 -149 -120 -34 0 -34 0 -28 -40 7 -52 -13 -74 -57 -66 -17
4 -39 8 -49 9 -67 11 -147 289 -147 511 0 209 97 499 238 716 l49 75 -106 103
c-115 112 -102 112 56 0 l82 -58 85 84 c122 121 243 208 391 281 192 96 371
133 583 122 113 -6 166 -21 194 -54 11 -14 10 -15 -11 -8 -21 6 -22 5 -16 -17
4 -12 14 -35 21 -50 8 -15 14 -33 14 -41 0 -23 -32 -45 -70 -49 l-35 -3 0 -65
c-1 -85 -1 -83 -31 -119 -16 -19 -39 -33 -62 -37 -40 -7 -72 -29 -72 -50 0 -7
17 -23 38 -35 81 -49 124 -93 158 -161 40 -79 42 -106 12 -159 -23 -42 -77
-87 -65 -55 4 9 2 16 -3 16 -14 0 -33 -77 -34 -137 -1 -29 -3 -53 -5 -53 -2 0
-10 8 -18 18 -13 15 -14 15 -9 -9 5 -21 1 -28 -14 -32 -22 -6 -28 -37 -7 -37
7 0 22 7 34 15 12 8 24 11 27 6 9 -14 -23 -34 -55 -34 -32 0 -37 -8 -14 -27 8
-7 15 -22 15 -34 0 -13 34 -54 95 -113 61 -59 103 -109 115 -137 27 -61 152
-166 197 -166 13 0 40 -16 61 -35 21 -19 50 -39 64 -44 16 -6 28 -19 30 -33 4
-30 47 -53 82 -44 19 5 32 18 42 42 14 32 13 39 -3 72 -10 20 -35 48 -55 61
-72 46 -37 87 41 49 83 -41 113 -135 71 -218 -37 -72 -112 -99 -173 -61 l-34
21 -28 -29 c-15 -16 -40 -35 -56 -41 -16 -7 -29 -19 -29 -27 0 -8 -15 -21 -32
-29 -18 -8 -44 -22 -58 -29 -14 -8 -44 -15 -67 -15 -26 0 -45 -5 -50 -15 -5
-8 3 -122 18 -257 16 -146 32 -367 39 -553 10 -279 25 -576 29 -582 0 -2 539
-3 1196 -3 l1195 0 0 1800 0 1800 -2400 0 -2400 0 0 -1800z m702 1566 c-8 -14
-22 17 -22 50 0 17 3 34 8 38 8 9 22 -74 14 -88z m-246 55 c-8 -12 -46 -21
-46 -11 0 9 18 18 38 19 7 1 11 -3 8 -8z m3029 -101 c-23 -44 -30 -31 -8 15
10 20 19 32 21 26 2 -5 -4 -24 -13 -41z m1195 -255 c0 -3 -11 -10 -25 -15 -28
-11 -88 -2 -79 11 5 9 104 13 104 4z m-710 -169 c20 -61 -18 -118 -51 -75 -24
31 -24 44 2 80 26 37 35 37 49 -5z m-70 -156 c12 -8 12 -10 -3 -16 -23 -8 -89
5 -82 17 8 12 65 12 85 -1z m-3168 -192 c21 -23 36 -43 33 -46 -6 -6 -81 58
-89 76 -12 26 19 10 56 -30z m2708 -93 c7 -8 19 -15 26 -15 16 0 19 -26 4 -35
-22 -13 -10 -43 23 -56 l32 -13 -47 -4 c-29 -2 -58 3 -77 13 -35 18 -40 35
-11 35 18 0 19 5 13 45 -5 36 -3 45 9 45 9 0 21 -7 28 -15z m-2934 -100 c63
-12 126 -105 72 -105 -52 0 -99 21 -118 53 -25 41 -26 70 -2 63 9 -2 31 -7 48
-11z m2358 -81 c25 -25 33 -44 20 -44 -15 0 -64 43 -64 56 0 21 14 17 44 -12z
m-638 -192 c-13 -12 -18 9 -10 45 l8 38 4 -39 c2 -21 1 -41 -2 -44z m668 -1
c-11 -53 -38 -33 -36 26 2 49 13 60 28 30 8 -15 11 -38 8 -56z m1228 -68 c22
-20 25 -83 4 -83 -22 0 -45 43 -39 73 6 32 10 33 35 10z m-3574 -196 c3 -16
-31 -57 -48 -57 -16 0 -12 42 7 62 19 21 37 19 41 -5z m-174 -13 c9 -3 16 -17
16 -31 0 -35 -34 -27 -38 10 -4 29 -2 30 22 21z m3151 -124 c0 -17 -37 -25
-63 -15 -15 6 -15 8 3 21 24 18 60 14 60 -6z m-841 -236 c3 -9 6 -23 6 -32 -1
-15 -3 -14 -15 2 -17 22 -20 46 -6 46 5 0 12 -7 15 -16z m341 -55 c4 -6 5 -13
2 -15 -8 -8 -77 7 -77 17 0 13 67 11 75 -2z m-2030 -327 c11 -4 29 -13 40 -19
20 -13 20 -13 1 -28 -31 -24 -79 -19 -106 11 -21 21 -22 27 -10 34 17 11 45
11 75 2z m3574 -166 c31 -16 95 -85 87 -93 -11 -11 -146 84 -146 102 0 10 32
5 59 -9z m-500 -12 c10 -3 11 -8 4 -15 -12 -12 -75 1 -80 17 -3 10 43 9 76 -2z
m-3668 -120 c11 -32 -6 -97 -24 -91 -22 7 -31 53 -17 86 15 38 27 39 41 5z
m3787 -129 c9 -9 -20 -42 -52 -59 -31 -16 -45 -18 -93 -10 -31 5 -58 14 -60
21 -2 6 15 23 39 38 38 23 50 25 103 20 33 -4 61 -8 63 -10z"/>
<path d="M2047 2296 c-18 -20 -23 -22 -32 -10 -9 13 -13 13 -30 0 -16 -11 -17
-16 -6 -29 14 -18 67 -19 80 -3 6 7 14 24 20 39 13 35 -2 36 -32 3z"/>
<path d="M1617 2223 c-4 -3 -7 -11 -7 -17 0 -6 5 -5 12 2 6 6 9 14 7 17 -3 3
-9 2 -12 -2z"/>
<path d="M2336 1813 c-3 -3 -6 -13 -6 -22 0 -9 -10 -46 -22 -83 -12 -37 -20
-69 -17 -71 2 -2 34 1 71 6 70 11 78 19 78 74 0 22 -92 108 -104 96z"/>
<path d="M1125 10 c-3 -5 3 -10 15 -10 12 0 18 5 15 10 -3 6 -10 10 -15 10 -5
0 -12 -4 -15 -10z"/>
</g>
</svg>
