<?xml version="1.0" standalone="no"?>
<!DOCTYPE svg PUBLIC "-//W3C//DTD SVG 20010904//EN"
 "http://www.w3.org/TR/2001/REC-SVG-20010904/DTD/svg10.dtd">
<svg version="1.0" xmlns="http://www.w3.org/2000/svg"
 width="480.000000pt" height="360.000000pt" viewBox="0 0 480.000000 360.000000"
 preserveAspectRatio="xMidYMid meet">
<metadata>
Created by potrace 1.16, written by Peter Selinger 2001-2019
</metadata>
<rect width="1" height="360" fill="#000000"/>
<rect x="479" width="1" height="360" fill="#000000"/>
<rect width="480" height="1" fill="#000000"/>
<rect y="359" width="480" height="1" fill="#000000"/>
<g transform="translate(0.000000,360.000000) scale(0.100000,-0.100000)"
fill="#000000" stroke="none">
<path d="M2663 3310 c-27 -11 -28 -18 -8 -44 9 -11 15 -41 15 -69 0 -45 -3
-52 -48 -95 -62 -60 -96 -113 -118 -184 -10 -32 -22 -59 -28 -60 -6 -1 -24 -2
-41 -2 -60 -2 -30 -80 36 -93 18 -3 29 -12 29 -22 0 -29 -110 -128 -165 -148
-46 -17 -50 -22 -56 -58 -9 -51 4 -77 34 -70 16 4 29 -1 41 -14 24 -26 52 -26
90 -2 24 16 31 17 43 6 7 -8 13 -20 13 -29 0 -8 14 -35 31 -60 22 -34 37 -46
55 -46 13 0 24 -4 24 -10 0 -5 7 -10 15 -10 18 0 19 12 3 28 -17 17 -2 28 17
12 25 -20 18 -66 -15 -103 -16 -19 -30 -38 -30 -41 0 -4 16 -14 36 -22 l37
-15 -7 -105 c-10 -151 -12 -159 -52 -173 -19 -7 -38 -20 -44 -30 -5 -10 -22
-23 -37 -29 -81 -31 -351 -114 -410 -126 -37 -8 -138 -39 -223 -69 -85 -30
-213 -71 -284 -93 -102 -31 -130 -43 -139 -61 -5 -12 -27 -34 -49 -48 -42 -28
-60 -60 -108 -200 -15 -44 -46 -118 -67 -165 -44 -95 -59 -160 -43 -191 15
-27 37 -13 69 45 15 25 67 101 116 167 l90 122 7 -89 c4 -49 9 -153 11 -233 4
-118 8 -146 21 -153 16 -9 160 106 436 346 111 96 166 130 260 158 47 14 103
33 124 43 l39 16 -8 -43 c-13 -66 -9 -98 20 -171 26 -63 27 -71 14 -114 -9
-33 -31 -67 -73 -113 -40 -44 -78 -101 -110 -164 l-49 -98 26 -25 c14 -14 29
-23 35 -19 5 3 27 50 48 103 37 98 73 165 95 179 6 4 10 3 8 -2 -2 -5 -13 -31
-23 -58 l-20 -49 31 -27 c17 -15 36 -29 43 -32 10 -3 10 -9 1 -27 -11 -19 -10
-25 5 -35 16 -12 16 -15 -5 -45 -12 -17 -26 -31 -31 -31 -14 0 -20 -31 -10
-50 19 -36 67 3 119 95 12 21 9 -93 -10 -388 -5 -82 -9 -155 -9 -163 0 -12 83
-14 560 -14 l560 0 0 68 c0 41 10 104 26 162 14 52 29 131 34 175 4 44 11 87
14 95 3 8 12 82 21 163 15 147 15 150 -10 295 -31 178 -50 272 -76 374 -22 87
-25 70 44 220 l36 77 -29 15 c-16 8 -48 17 -70 21 -59 10 -63 24 -46 172 8 70
20 198 26 283 17 254 18 260 42 260 11 0 36 -7 55 -17 40 -19 53 -9 53 39 0
22 -7 31 -32 41 -38 16 -96 72 -108 103 -6 14 -2 43 11 84 47 153 14 265 -120
401 -90 90 -175 135 -319 168 -156 36 -249 37 -367 5 -18 -5 -21 -1 -22 32 -2
57 -51 93 -100 74z m-89 -2432 c-9 -72 -17 -76 -37 -22 -14 38 -14 45 -2 41 8
-4 16 2 20 14 13 40 26 18 19 -33z"/>
</g>
</svg>
