<?xml version="1.0" standalone="no"?>
<!DOCTYPE svg PUBLIC "-//W3C//DTD SVG 20010904//EN"
 "http://www.w3.org/TR/2001/REC-SVG-20010904/DTD/svg10.dtd">
<svg version="1.0" xmlns="http://www.w3.org/2000/svg"
 width="480.000000pt" height="360.000000pt" viewBox="0 0 480.000000 360.000000"
 preserveAspectRatio="xMidYMid meet">
<metadata>
Created by potrace 1.16, written by Peter Selinger 2001-2019
</metadata>
<rect width="1" height="360" fill="#000000"/>
<rect x="479" width="1" height="360" fill="#000000"/>
<rect width="480" height="1" fill="#000000"/>
<rect y="359" width="480" height="1" fill="#000000"/>
<g transform="translate(0.000000,360.000000) scale(0.100000,-0.100000)"
fill="#000000" stroke="none">
<path d="M2195 3136 c-74 -19 -99 -31 -139 -67 -49 -43 -66 -78 -66 -139 0
-32 -5 -52 -12 -54 -104 -29 -118 -40 -118 -90 0 -14 14 -41 30 -59 17 -19 30
-42 30 -50 0 -31 32 -112 57 -146 14 -18 40 -39 57 -46 44 -19 58 -37 95 -127
17 -40 18 -52 10 -83 l-9 -30 23 29 c26 33 47 28 47 -10 0 -13 5 -24 10 -24 6
0 10 5 10 11 0 6 9 9 20 6 10 -3 24 1 31 9 21 26 39 16 39 -21 0 -22 -5 -35
-13 -35 -13 0 -58 -63 -92 -129 -17 -34 -17 -118 0 -221 9 -55 -3 -64 -87 -62
-86 2 -135 -14 -153 -48 -46 -85 -56 -114 -50 -141 9 -39 38 -53 113 -52 49 0
66 5 76 19 12 16 18 17 55 5 23 -7 50 -21 59 -31 28 -31 42 -49 42 -54 0 -3
-62 -5 -137 -5 -76 1 -146 -2 -156 -6 -10 -4 -51 2 -94 15 -100 30 -186 25
-217 -11 -12 -14 -33 -30 -49 -37 -15 -6 -26 -15 -25 -19 1 -5 -2 -28 -6 -51
-5 -28 -4 -48 2 -54 7 -7 8 -17 2 -29 -11 -20 11 -49 37 -49 14 0 14 -2 0 -18
-23 -25 -22 -28 13 -41 20 -7 30 -17 30 -31 0 -11 6 -23 14 -26 22 -8 162 24
234 53 55 23 66 24 88 13 20 -11 46 -11 138 -2 62 7 132 12 155 12 48 0 48 4
6 -105 -21 -54 -38 -124 -49 -210 -10 -78 -67 -269 -102 -344 -28 -58 -91
-160 -161 -258 -42 -59 -44 -61 -73 -50 -24 9 -32 8 -49 -7 -11 -10 -23 -28
-27 -40 -4 -11 -15 -32 -24 -46 -22 -31 -80 -136 -80 -144 0 -3 466 -6 1036
-6 l1035 0 -7 23 c-17 55 -26 68 -85 113 -34 26 -106 90 -158 141 -102 99
-146 127 -162 102 -8 -11 -16 -7 -40 21 -42 48 -60 87 -103 215 -69 205 -167
421 -224 496 l-52 69 107 0 c322 0 490 169 412 412 -19 60 -93 189 -119 208
-18 14 -112 146 -159 225 -127 214 -208 311 -286 346 -22 10 -51 29 -65 43
l-23 26 24 0 c21 1 19 3 -14 21 -22 11 -37 23 -34 25 3 3 41 0 85 -7 94 -14
141 -4 77 16 -39 13 -39 13 34 11 73 -3 73 -3 50 15 -22 17 -23 19 -4 19 16 0
17 2 6 9 -8 5 -19 20 -25 34 -31 70 -209 249 -299 301 -53 31 -77 52 -104 94
-55 87 -100 117 -224 152 -83 23 -141 24 -214 6z"/>
</g>
</svg>
