<?xml version="1.0" standalone="no"?>
<!DOCTYPE svg PUBLIC "-//W3C//DTD SVG 20010904//EN"
 "http://www.w3.org/TR/2001/REC-SVG-20010904/DTD/svg10.dtd">
<svg version="1.0" xmlns="http://www.w3.org/2000/svg"
 width="480.000000pt" height="360.000000pt" viewBox="0 0 480.000000 360.000000"
 preserveAspectRatio="xMidYMid meet">
<metadata>
Created by potrace 1.16, written by Peter Selinger 2001-2019
</metadata>
<rect width="1" height="360" fill="#000000"/>
<rect x="479" width="1" height="360" fill="#000000"/>
<rect width="480" height="1" fill="#000000"/>
<rect y="359" width="480" height="1" fill="#000000"/>
<g transform="translate(0.000000,360.000000) scale(0.100000,-0.100000)"
fill="#000000" stroke="none">
<path d="M0 1800 l0 -1800 375 0 375 0 -46 82 c-55 100 -100 195 -164 346 -78
181 -127 251 -231 328 -37 27 -48 42 -51 67 -2 23 -10 35 -30 45 -19 9 -28 21
-28 37 0 25 7 29 71 39 61 11 62 21 17 131 -40 97 -42 103 -41 210 1 137 14
208 65 359 49 144 48 184 -3 270 -19 32 -39 66 -44 76 -6 10 -17 25 -24 33 -7
9 -11 26 -9 39 l5 23 10 -25 c10 -24 11 -24 18 15 10 55 14 59 36 39 12 -11
19 -13 19 -5 0 8 7 10 20 6 16 -5 20 -2 20 16 0 18 2 19 15 9 13 -10 17 -7 29
21 8 19 12 37 10 41 -3 5 -1 8 3 8 10 0 13 22 14 105 1 68 -20 180 -58 307
l-26 87 28 43 c15 24 45 57 66 73 30 24 37 36 36 60 -2 24 -8 31 -35 39 -17 5
-32 15 -32 22 0 21 -47 47 -75 42 -36 -7 -56 12 -62 60 -3 25 -10 41 -17 39
-14 -5 -58 41 -128 135 -33 43 -33 44 -10 50 13 4 26 28 41 76 27 83 24 94
-48 143 -45 31 -51 38 -51 72 0 34 -2 37 -30 37 l-30 0 0 -1800z m80 1491 c0
-2 -11 6 -24 18 -16 15 -22 29 -18 43 4 18 8 15 23 -18 11 -20 19 -40 19 -43z"/>
<path d="M3146 3077 l5 -39 -30 34 c-20 22 -31 28 -31 18 0 -9 5 -21 10 -26
11 -11 -22 -54 -43 -54 -7 0 -6 -4 3 -10 8 -5 15 -13 16 -17 0 -4 7 -21 15
-37 11 -23 11 -30 1 -34 -6 -2 -12 -8 -12 -14 0 -20 -82 -133 -101 -140 -11
-4 -19 -15 -17 -24 2 -11 -8 -21 -32 -29 -26 -9 -35 -18 -35 -35 0 -14 -9 -27
-23 -33 -39 -18 -28 -53 33 -109 l56 -51 -6 -71 c-10 -107 -25 -176 -51 -227
-13 -26 -26 -73 -28 -105 -5 -56 -5 -58 9 -33 14 26 45 47 45 30 0 -17 -24
-77 -36 -92 -21 -24 -17 -58 11 -91 14 -16 25 -35 25 -43 0 -7 15 -35 33 -61
18 -27 39 -62 47 -78 8 -16 34 -43 57 -59 25 -18 44 -41 47 -56 12 -58 17 -89
22 -146 5 -55 3 -67 -31 -138 -41 -87 -39 -97 22 -122 38 -16 42 -30 12 -45
-16 -9 -19 -18 -14 -37 4 -16 1 -31 -8 -42 -24 -27 -58 -93 -78 -150 -20 -56
-23 -71 -64 -321 -13 -80 -44 -237 -69 -349 -25 -113 -46 -213 -46 -223 0 -17
27 -18 586 -18 349 0 583 4 580 9 -4 5 -26 83 -50 173 -24 89 -58 213 -75 273
-18 61 -43 148 -56 195 -39 143 -75 241 -116 320 -21 41 -45 94 -53 117 -13
38 -13 42 4 58 37 33 103 247 116 371 5 46 2 76 -10 115 -10 28 -15 54 -12 56
3 3 19 0 35 -7 17 -7 48 -10 68 -7 25 3 58 -3 98 -18 188 -71 233 -87 272 -92
39 -5 45 -3 78 30 35 35 48 88 25 102 -25 16 -63 112 -64 162 -1 51 -1 51 36
62 76 23 114 119 72 179 l-16 23 38 -7 c76 -14 147 -55 225 -130 41 -41 81
-74 87 -74 7 0 26 21 42 47 l30 47 0 180 0 181 -40 33 -39 32 -34 -34 c-19
-19 -53 -46 -75 -60 -22 -14 -43 -30 -47 -36 -3 -5 -15 -10 -26 -10 -11 0 -31
-7 -44 -16 -35 -23 -183 -31 -209 -12 -15 12 -16 19 -8 35 6 11 8 24 4 28 -4
3 -7 11 -7 17 0 6 -7 14 -15 18 -8 4 -30 15 -48 25 -18 9 -42 15 -52 12 -11
-3 -25 1 -31 9 -10 12 -13 12 -24 -3 -7 -9 -23 -18 -36 -20 -34 -5 -59 -39
-59 -83 l0 -37 -88 -5 c-52 -3 -100 -12 -119 -22 -34 -17 -177 -23 -201 -8
-16 11 -27 73 -18 107 5 21 11 25 28 19 13 -4 18 -2 14 5 -7 10 7 41 32 72 7
9 16 49 21 88 l7 72 -34 40 -35 40 13 55 c8 34 22 61 34 70 20 13 20 16 5 42
-9 17 -22 26 -33 24 -10 -2 -35 10 -55 26 -47 38 -106 46 -142 20 l-26 -19
-84 39 c-73 33 -87 44 -104 79 -13 27 -24 39 -35 36 -12 -3 -22 7 -33 34 l-17
38 6 -38z m564 -917 c3 0 5 -17 5 -37 0 -21 4 -49 9 -62 8 -24 8 -24 -50 -17
-84 10 -128 23 -158 47 -24 19 -38 48 -17 35 5 -4 11 0 14 6 3 10 7 10 20 -1
15 -12 17 -11 17 7 0 28 29 36 53 15 18 -16 20 -16 14 -1 -8 23 -1 26 46 17
23 -4 44 -8 47 -9z m254 -21 c12 -12 -7 -69 -22 -69 -8 0 -34 -11 -57 -25 -38
-22 -44 -23 -63 -9 -17 11 -22 25 -22 58 0 23 3 46 8 50 8 9 147 4 156 -5z
m346 -49 c24 -24 26 -58 5 -66 -8 -4 -15 -10 -15 -15 0 -6 9 -5 21 1 25 14 32
9 23 -15 -6 -14 -14 -16 -43 -10 -20 4 -44 7 -54 8 -17 1 -17 2 -1 14 9 7 14
19 11 28 -10 24 4 75 19 75 8 0 23 -9 34 -20z"/>
</g>
</svg>
