<?xml version="1.0" standalone="no"?>
<!DOCTYPE svg PUBLIC "-//W3C//DTD SVG 20010904//EN"
 "http://www.w3.org/TR/2001/REC-SVG-20010904/DTD/svg10.dtd">
<svg version="1.0" xmlns="http://www.w3.org/2000/svg"
 width="480.000000pt" height="360.000000pt" viewBox="0 0 480.000000 360.000000"
 preserveAspectRatio="xMidYMid meet">
<metadata>
Created by potrace 1.16, written by Peter Selinger 2001-2019
</metadata>
<rect width="1" height="360" fill="#000000"/>
<rect x="479" width="1" height="360" fill="#000000"/>
<rect width="480" height="1" fill="#000000"/>
<rect y="359" width="480" height="1" fill="#000000"/>
<g transform="translate(0.000000,360.000000) scale(0.100000,-0.100000)"
fill="#000000" stroke="none">
<path d="M1416 2918 c-54 -19 -60 -19 -71 -4 -16 21 -49 21 -66 -1 -8 -9 -15
-39 -15 -67 -1 -28 -7 -78 -14 -111 -12 -58 -11 -62 15 -108 18 -31 30 -44 35
-37 6 9 9 9 15 0 4 -6 13 -9 21 -6 21 8 17 -18 -6 -39 -19 -18 -19 -18 19 -64
21 -25 43 -56 50 -69 9 -18 17 -21 39 -16 l27 7 -28 -27 c-15 -14 -32 -26 -36
-26 -10 0 -51 -44 -51 -55 0 -5 7 -16 16 -26 15 -17 13 -22 -34 -76 -81 -95
-103 -137 -109 -210 -6 -75 6 -106 48 -123 37 -16 40 -30 30 -121 -8 -72 -43
-157 -73 -175 -5 -3 -6 -18 -3 -34 4 -17 -3 -54 -20 -101 -17 -50 -22 -75 -14
-80 8 -4 3 -37 -15 -108 -14 -55 -37 -199 -51 -318 -14 -120 -36 -310 -50
-423 -14 -113 -30 -250 -36 -305 -6 -55 -14 -121 -19 -147 l-7 -48 494 0 c466
0 494 1 489 18 -11 40 -67 408 -81 542 -9 80 -22 183 -31 230 -20 114 -101
409 -135 493 -25 62 -26 67 -8 62 27 -9 24 0 -17 45 l-37 40 18 48 c9 26 41
86 71 133 67 107 68 127 13 234 -28 56 -39 89 -36 109 3 22 -1 30 -14 33 -17
5 -18 13 -13 72 5 53 2 77 -15 121 -12 30 -21 63 -21 73 0 10 -6 30 -14 45
-11 22 -12 31 -2 44 11 15 15 16 34 2 19 -13 22 -13 32 5 5 11 10 24 10 30 0
6 9 25 20 43 19 32 20 32 26 11 9 -35 19 -28 35 25 11 33 21 47 32 46 9 -1 17
1 17 5 0 14 -32 116 -50 161 -10 25 -21 57 -24 72 -4 15 -21 43 -39 61 -17 19
-49 52 -69 74 -62 66 -168 81 -282 41z"/>
</g>
</svg>
