<?xml version="1.0" standalone="no"?>
<!DOCTYPE svg PUBLIC "-//W3C//DTD SVG 20010904//EN"
 "http://www.w3.org/TR/2001/REC-SVG-20010904/DTD/svg10.dtd">
<svg version="1.0" xmlns="http://www.w3.org/2000/svg"
 width="480.000000pt" height="360.000000pt" viewBox="0 0 480.000000 360.000000"
 preserveAspectRatio="xMidYMid meet">
<metadata>
Created by potrace 1.16, written by Peter Selinger 2001-2019
</metadata>
<rect width="1" height="360" fill="#000000"/>
<rect x="479" width="1" height="360" fill="#000000"/>
<rect width="480" height="1" fill="#000000"/>
<rect y="359" width="480" height="1" fill="#000000"/>
<g transform="translate(0.000000,360.000000) scale(0.100000,-0.100000)"
fill="#000000" stroke="none">
<path d="M3495 3594 c6 -2 52 -7 103 -12 54 -6 100 -16 110 -24 45 -38 93 -42
577 -43 290 -1 479 2 493 8 16 8 22 19 22 44 l0 33 -657 -1 c-362 0 -653 -2
-648 -5z"/>
<path d="M2471 2284 c-156 -42 -318 -176 -399 -331 -46 -89 -88 -235 -98 -343
-9 -92 12 -226 45 -297 34 -70 170 -252 220 -294 150 -124 438 -144 678 -46
224 91 430 301 469 475 21 97 14 247 -16 346 -19 60 -32 79 -105 156 -51 54
-86 100 -90 118 -13 59 -159 174 -247 196 -42 10 -305 36 -357 35 -25 0 -70
-7 -100 -15z"/>
</g>
</svg>
