<?xml version="1.0" standalone="no"?>
<!DOCTYPE svg PUBLIC "-//W3C//DTD SVG 20010904//EN"
 "http://www.w3.org/TR/2001/REC-SVG-20010904/DTD/svg10.dtd">
<svg version="1.0" xmlns="http://www.w3.org/2000/svg"
 width="480.000000pt" height="360.000000pt" viewBox="0 0 480.000000 360.000000"
 preserveAspectRatio="xMidYMid meet">
<metadata>
Created by potrace 1.16, written by Peter Selinger 2001-2019
</metadata>
<rect width="1" height="360" fill="#000000"/>
<rect x="479" width="1" height="360" fill="#000000"/>
<rect width="480" height="1" fill="#000000"/>
<rect y="359" width="480" height="1" fill="#000000"/>
<g transform="translate(0.000000,360.000000) scale(0.100000,-0.100000)"
fill="#000000" stroke="none">
<path d="M0 1800 l0 -1800 524 0 525 0 124 183 c140 206 307 466 390 607 66
113 94 173 149 328 41 116 41 119 41 252 0 125 -17 375 -28 428 -7 28 -28 28
-54 1 -13 -14 -21 -17 -26 -9 -5 8 -14 7 -31 -5 -22 -14 -24 -14 -24 2 0 9 21
99 46 200 l46 184 -41 35 c-49 43 -128 158 -177 262 -20 42 -45 93 -55 113
-11 20 -19 45 -19 56 0 10 -5 24 -10 29 -7 7 -7 30 -3 64 7 47 12 56 36 64 32
12 66 1 258 -81 l126 -53 39 16 c21 9 55 31 75 49 50 45 151 92 238 110 125
26 151 23 331 -45 47 -18 95 -34 107 -37 13 -3 20 -10 17 -15 -3 -5 6 -22 20
-37 49 -51 69 -122 73 -265 l3 -129 -21 27 c-28 35 -40 33 -28 -6 16 -58 11
-154 -11 -193 -11 -20 -20 -47 -20 -62 0 -21 -2 -23 -15 -13 -22 19 -58 3 -51
-24 3 -11 1 -28 -4 -36 -7 -10 -10 -11 -10 -2 0 6 -5 12 -10 12 -7 0 -9 -19
-5 -52 14 -123 6 -111 108 -154 82 -33 100 -46 166 -113 107 -111 111 -116
111 -141 0 -13 20 -57 44 -99 25 -42 52 -103 61 -135 17 -60 17 -68 -1 -256
l-6 -65 46 -24 c25 -13 58 -35 72 -50 25 -25 25 -26 19 -142 -6 -86 -4 -125 6
-152 12 -33 11 -39 -7 -64 -18 -25 -20 -37 -13 -110 5 -61 12 -89 28 -109 26
-33 27 -50 1 -64 -17 -9 -20 -21 -20 -78 0 -37 3 -97 7 -134 l6 -68 823 0 824
0 0 1800 0 1800 -2400 0 -2400 0 0 -1800z"/>
<path d="M1962 40 c-6 -11 -18 -17 -25 -14 -7 2 -21 -2 -32 -10 -18 -14 -16
-15 39 -16 49 0 57 2 52 16 -3 9 -6 22 -6 30 0 20 -13 17 -28 -6z"/>
</g>
</svg>
