<?xml version="1.0" standalone="no"?>
<!DOCTYPE svg PUBLIC "-//W3C//DTD SVG 20010904//EN"
 "http://www.w3.org/TR/2001/REC-SVG-20010904/DTD/svg10.dtd">
<svg version="1.0" xmlns="http://www.w3.org/2000/svg"
 width="480.000000pt" height="360.000000pt" viewBox="0 0 480.000000 360.000000"
 preserveAspectRatio="xMidYMid meet">
<metadata>
Created by potrace 1.16, written by Peter Selinger 2001-2019
</metadata>
<rect width="1" height="360" fill="#000000"/>
<rect x="479" width="1" height="360" fill="#000000"/>
<rect width="480" height="1" fill="#000000"/>
<rect y="359" width="480" height="1" fill="#000000"/>
<g transform="translate(0.000000,360.000000) scale(0.100000,-0.100000)"
fill="#000000" stroke="none">
<path d="M2032 3159 c-342 -44 -691 -374 -801 -759 -28 -98 -37 -254 -22 -370
l13 -90 -31 -55 c-17 -30 -31 -57 -31 -60 0 -8 53 6 68 18 16 12 38 -6 46 -39
5 -17 -1 -38 -19 -68 -33 -57 -32 -66 5 -31 16 16 33 26 36 22 4 -3 8 -26 10
-50 2 -24 12 -86 24 -138 11 -51 20 -94 20 -96 0 -2 5 -3 10 -3 6 0 11 21 11
48 l1 47 9 -54 c5 -30 11 -57 14 -59 2 -2 10 11 18 29 l14 34 23 -53 c20 -47
24 -51 36 -35 8 10 13 13 14 6 0 -7 13 -27 29 -45 16 -18 40 -46 54 -62 l24
-30 -4 80 c-5 75 -4 78 11 57 9 -12 23 -20 31 -17 7 3 18 -4 25 -16 8 -15 18
-20 32 -17 25 7 58 -21 58 -49 0 -62 -57 -147 -129 -193 -81 -52 -77 -76 23
-142 65 -42 76 -59 76 -114 0 -16 9 -43 20 -60 36 -55 39 -60 44 -87 4 -15 15
-29 25 -33 12 -3 33 -39 57 -92 21 -47 47 -97 58 -111 18 -23 18 -26 3 -76
-24 -75 -21 -82 18 -47 36 31 51 39 40 21 -3 -5 -2 -10 3 -10 7 0 78 79 86 96
1 1 11 5 24 8 20 7 22 4 22 -28 0 -42 13 -46 36 -11 9 14 18 24 20 22 2 -1 -3
-45 -11 -97 -8 -52 -12 -96 -10 -99 3 -2 13 3 23 12 10 10 24 17 30 17 7 0 17
9 24 20 20 31 28 24 28 -24 0 -27 6 -48 16 -57 16 -13 48 -69 42 -73 -2 -1
-25 -17 -53 -34 -56 -36 -130 -100 -123 -107 2 -3 19 0 38 5 18 5 73 16 123
25 94 16 131 14 277 -21 44 -10 103 -14 184 -12 l119 3 22 65 c88 261 252 431
480 498 113 33 284 40 435 18 97 -14 339 -71 397 -93 12 -5 6 9 -18 43 -38 54
-99 157 -99 169 0 4 13 5 30 2 l30 -6 -45 60 c-99 134 -130 292 -105 539 17
169 -17 420 -80 591 -31 88 -105 214 -189 324 -95 126 -264 313 -339 375 -78
66 -228 170 -244 170 -5 0 -33 11 -62 24 -103 47 -283 86 -399 86 -47 0 -50 2
-133 85 -64 64 -105 95 -162 124 -138 69 -262 96 -380 80z"/>
</g>
</svg>
