<?xml version="1.0" standalone="no"?>
<!DOCTYPE svg PUBLIC "-//W3C//DTD SVG 20010904//EN"
 "http://www.w3.org/TR/2001/REC-SVG-20010904/DTD/svg10.dtd">
<svg version="1.0" xmlns="http://www.w3.org/2000/svg"
 width="480.000000pt" height="360.000000pt" viewBox="0 0 480.000000 360.000000"
 preserveAspectRatio="xMidYMid meet">
<metadata>
Created by potrace 1.16, written by Peter Selinger 2001-2019
</metadata>
<rect width="1" height="360" fill="#000000"/>
<rect x="479" width="1" height="360" fill="#000000"/>
<rect width="480" height="1" fill="#000000"/>
<rect y="359" width="480" height="1" fill="#000000"/>
<g transform="translate(0.000000,360.000000) scale(0.100000,-0.100000)"
fill="#000000" stroke="none">
<path d="M0 1800 l0 -1800 988 0 989 0 12 147 c30 363 52 570 71 653 13 59 20
126 20 196 0 59 5 136 12 171 10 54 9 79 -5 156 -9 51 -19 145 -21 210 -5 101
-9 127 -31 174 -44 91 -46 135 -14 285 42 203 83 294 161 364 24 20 38 34 32
31 -7 -4 -22 1 -35 11 -13 10 -38 24 -56 31 -17 7 -34 19 -37 27 -3 8 -17 14
-32 14 -22 0 -26 4 -21 23 2 12 8 30 11 39 12 27 -32 50 -74 38 -29 -8 -39 -6
-67 13 -18 12 -36 30 -39 40 -6 20 -20 22 -27 5 -9 -22 -7 123 2 194 7 51 17
78 41 112 l33 45 -32 55 c-17 31 -31 62 -31 70 0 14 70 56 93 56 7 0 24 -7 39
-14 15 -8 30 -12 32 -8 2 4 -2 38 -9 77 -8 38 -12 72 -9 74 2 2 14 -5 27 -17
13 -12 26 -22 29 -22 3 0 8 22 12 50 4 27 11 52 17 55 24 16 229 -149 244
-196 4 -12 35 -33 79 -54 61 -29 79 -44 119 -97 97 -130 147 -254 201 -493 16
-70 51 -171 97 -280 72 -173 119 -329 119 -394 -1 -20 -7 -70 -15 -111 -8 -41
-22 -127 -30 -190 -18 -136 -53 -243 -108 -325 l-39 -60 11 -80 c12 -83 28
-436 38 -842 l6 -233 998 0 999 0 0 1800 0 1800 -2400 0 -2400 0 0 -1800z"/>
<path d="M2095 1513 c9 -128 13 -147 31 -132 22 18 18 135 -6 187 -10 23 -22
42 -26 42 -3 0 -3 -44 1 -97z"/>
</g>
</svg>
