<?xml version="1.0" standalone="no"?>
<!DOCTYPE svg PUBLIC "-//W3C//DTD SVG 20010904//EN"
 "http://www.w3.org/TR/2001/REC-SVG-20010904/DTD/svg10.dtd">
<svg version="1.0" xmlns="http://www.w3.org/2000/svg"
 width="480.000000pt" height="360.000000pt" viewBox="0 0 480.000000 360.000000"
 preserveAspectRatio="xMidYMid meet">
<metadata>
Created by potrace 1.16, written by Peter Selinger 2001-2019
</metadata>
<rect width="1" height="360" fill="#000000"/>
<rect x="479" width="1" height="360" fill="#000000"/>
<rect width="480" height="1" fill="#000000"/>
<rect y="359" width="480" height="1" fill="#000000"/>
<g transform="translate(0.000000,360.000000) scale(0.100000,-0.100000)"
fill="#000000" stroke="none">
<path d="M0 1800 l0 -1800 361 2 360 3 79 175 c44 96 89 191 100 211 12 22 20
55 20 84 l0 47 -27 -18 c-39 -24 -48 -38 -83 -126 -18 -42 -40 -84 -51 -94
-18 -16 -19 -16 -19 10 0 59 33 295 51 368 10 42 19 90 19 107 l0 31 -30 -32
c-20 -22 -30 -28 -30 -17 0 17 76 259 110 349 11 30 16 56 12 58 -4 1 -6 17
-4 36 2 18 0 48 -6 68 -7 26 -4 60 14 144 28 129 25 120 126 399 62 173 82
242 94 325 58 416 127 561 331 700 73 50 84 54 168 64 83 10 90 13 93 35 3 18
-10 36 -52 76 -31 30 -56 60 -56 67 0 7 11 27 24 43 24 29 26 30 113 29 71 -1
101 -6 153 -27 47 -19 66 -23 69 -14 2 6 19 26 36 43 18 16 36 41 40 55 15 49
66 128 111 169 45 42 184 115 204 108 6 -2 -14 -21 -44 -43 -80 -57 -73 -63
31 -25 54 20 60 5 11 -24 -38 -22 -176 -159 -186 -185 -1 -3 34 -5 79 -3 128
5 167 -13 77 -36 -24 -6 -69 -22 -102 -35 -50 -21 -61 -31 -81 -69 l-23 -46
26 -24 c15 -14 50 -41 79 -62 60 -43 103 -90 103 -114 0 -9 -11 -30 -24 -47
-23 -29 -27 -30 -111 -30 -73 0 -88 -3 -97 -19 -8 -14 -4 -24 19 -49 47 -50
72 -91 97 -159 26 -67 44 -226 32 -274 -6 -24 -8 -25 -19 -10 -11 15 -15 12
-37 -23 -14 -22 -30 -41 -36 -41 -6 0 -19 -9 -28 -19 -9 -10 -25 -17 -35 -14
-9 2 -23 -3 -30 -11 -15 -18 -36 -22 -25 -4 8 13 -12 3 -38 -20 -25 -21 -23 0
3 32 26 33 12 34 -24 0 -19 -18 -26 -31 -21 -43 16 -38 16 -61 1 -61 -27 0
-43 -25 -76 -118 l-32 -89 52 -106 c31 -65 53 -123 55 -150 2 -23 10 -59 19
-79 8 -21 15 -48 15 -60 0 -18 -5 -14 -19 17 l-18 40 -7 -31 c-9 -41 19 -117
35 -94 7 11 8 7 3 -12 -3 -16 -3 -28 0 -28 3 0 59 30 123 66 65 36 135 71 155
77 l38 12 0 83 c0 149 43 222 131 222 85 0 129 -75 129 -217 l0 -81 66 -31
c37 -17 106 -54 155 -81 49 -28 91 -50 95 -50 3 0 3 12 0 28 -5 19 -4 23 3 12
8 -12 13 -7 26 22 17 43 18 57 5 78 -7 12 -12 7 -24 -20 -13 -29 -15 -31 -16
-12 0 12 7 39 16 60 8 20 17 58 19 84 3 32 22 82 56 150 l52 101 -17 46 c-10
25 -25 68 -34 95 -12 37 -22 51 -44 58 -30 11 -35 27 -17 60 8 16 8 22 -2 29
-15 9 -116 24 -136 21 -6 -1 -20 9 -31 23 -11 14 -27 25 -36 25 -9 0 -16 8
-16 18 0 27 -11 34 -25 15 -9 -13 -13 7 -18 98 -9 176 14 260 99 356 l45 52
-60 99 c-33 55 -78 140 -100 189 -47 103 -114 293 -107 300 2 3 53 -67 111
-156 59 -89 112 -164 117 -168 6 -3 8 -2 5 4 -12 20 48 62 102 73 30 5 55 10
57 10 13 0 -1 49 -29 108 -19 38 -34 84 -34 102 l0 33 34 -39 c78 -91 182
-235 214 -297 l34 -67 45 0 c96 0 155 -17 226 -64 83 -55 73 -47 140 -121 93
-102 145 -240 183 -485 33 -206 34 -211 125 -453 103 -277 129 -383 131 -532
1 -96 4 -118 28 -172 35 -81 107 -292 107 -312 -1 -10 -13 -2 -36 24 l-35 40
6 -35 c4 -19 19 -82 33 -140 l27 -105 71 -37 c47 -25 100 -66 162 -127 99 -97
142 -157 212 -294 l44 -87 118 0 118 0 0 1800 0 1800 -2400 0 -2400 0 0 -1800z"/>
<path d="M2720 2958 c0 -7 91 -141 111 -162 5 -5 24 1 46 15 21 13 50 31 66
38 32 17 32 17 10 67 l-16 39 -25 -57 c-14 -32 -33 -60 -43 -63 -26 -9 -57 3
-63 23 -7 19 -85 111 -86 100z"/>
<path d="M2104 1172 c-65 -48 -133 -95 -149 -106 -34 -21 -97 -87 -90 -94 2
-3 82 34 178 82 95 47 178 86 185 86 14 0 17 105 4 114 -4 3 -62 -34 -128 -82z"/>
<path d="M2562 1198 c3 -58 5 -62 32 -69 15 -4 96 -42 178 -84 83 -42 155 -74
160 -73 19 7 -73 87 -213 186 -80 56 -149 102 -153 102 -4 0 -6 -28 -4 -62z"/>
<path d="M2371 1075 c-11 -36 -21 -71 -21 -79 0 -26 -41 -65 -108 -102 -37
-20 -130 -76 -207 -124 -215 -134 -229 -140 -287 -115 -15 6 -18 1 -18 -32 0
-78 31 -261 71 -418 23 -88 44 -170 46 -182 l5 -23 589 0 588 0 6 33 c3 17 10
120 16 227 5 107 13 242 16 299 6 100 5 104 -13 96 -51 -24 -87 -11 -245 86
-85 53 -184 112 -221 133 -110 60 -124 76 -154 177 -15 49 -30 89 -34 89 -4 0
-17 -29 -29 -65z"/>
<path d="M3890 720 c0 -8 5 -22 10 -30 9 -13 10 -13 10 0 0 8 -5 22 -10 30 -9
13 -10 13 -10 0z"/>
<path d="M920 685 c-29 -75 -60 -169 -57 -172 2 -1 15 10 30 25 16 17 31 50
40 89 15 68 6 108 -13 58z"/>
<path d="M3910 609 c0 -18 25 -37 36 -27 8 8 -7 36 -22 42 -9 4 -14 -1 -14
-15z"/>
</g>
</svg>
