<?xml version="1.0" standalone="no"?>
<!DOCTYPE svg PUBLIC "-//W3C//DTD SVG 20010904//EN"
 "http://www.w3.org/TR/2001/REC-SVG-20010904/DTD/svg10.dtd">
<svg version="1.0" xmlns="http://www.w3.org/2000/svg"
 width="480.000000pt" height="360.000000pt" viewBox="0 0 480.000000 360.000000"
 preserveAspectRatio="xMidYMid meet">
<metadata>
Created by potrace 1.16, written by Peter Selinger 2001-2019
</metadata>
<rect width="1" height="360" fill="#000000"/>
<rect x="479" width="1" height="360" fill="#000000"/>
<rect width="480" height="1" fill="#000000"/>
<rect y="359" width="480" height="1" fill="#000000"/>
<g transform="translate(0.000000,360.000000) scale(0.100000,-0.100000)"
fill="#000000" stroke="none">
<path d="M0 1800 l0 -1800 344 0 343 0 7 52 c12 101 9 116 -21 120 -20 2 -29
12 -40 43 -12 35 -12 44 2 74 9 20 14 45 10 61 -4 18 -1 31 10 40 17 14 21 80
5 80 -13 0 -52 89 -44 101 3 5 12 9 20 9 11 0 14 14 14 60 0 52 3 62 24 75 29
20 43 78 56 248 6 65 16 130 24 146 9 16 38 49 65 74 l51 45 -71 26 c-38 14
-76 26 -83 26 -12 0 -67 -54 -104 -104 -12 -16 -22 -25 -22 -20 0 5 13 90 29
189 38 229 85 620 77 640 -3 8 -14 15 -24 15 -10 0 -63 18 -118 41 -54 22
-115 42 -134 42 -31 2 -35 5 -38 32 -1 17 -17 61 -34 98 -38 79 -32 91 41 83
38 -3 50 1 80 24 20 15 59 35 86 44 28 9 65 25 82 36 29 17 32 22 23 45 -16
42 -11 163 10 257 27 124 77 226 146 298 71 75 147 113 272 139 51 10 94 20
96 22 2 2 27 40 56 84 65 97 129 175 144 175 14 -1 95 -108 135 -182 18 -31
37 -61 44 -66 7 -5 48 -15 92 -22 179 -28 320 -111 430 -255 119 -155 164
-346 114 -480 l-21 -57 21 -50 c11 -27 37 -73 58 -101 l37 -50 -37 -33 c-29
-25 -37 -37 -33 -55 54 -242 72 -298 146 -454 72 -153 105 -205 129 -205 29 0
79 -47 86 -81 4 -17 4 -33 1 -36 -3 -3 -29 14 -58 39 -29 24 -60 49 -69 56
-13 9 -26 3 -75 -39 -83 -71 -95 -75 -161 -44 -30 14 -60 22 -67 18 -20 -13
-50 -14 -115 -3 -77 13 -90 7 -24 -13 66 -20 241 -109 281 -144 32 -28 32 -29
23 -83 -8 -48 -6 -60 18 -110 14 -30 26 -56 26 -57 0 -1 40 7 87 18 277 61
548 39 824 -67 341 -131 652 -411 840 -757 l59 -107 312 0 313 0 0 855 c0 470
-2 855 -3 855 -2 0 -28 -13 -58 -30 -55 -30 -99 -39 -99 -19 0 21 62 69 111
86 l49 18 0 917 0 918 -2400 0 -2400 0 0 -1800z m4660 1550 c0 -5 -4 -10 -10
-10 -5 0 -10 5 -10 10 0 6 5 10 10 10 6 0 10 -4 10 -10z m-800 -440 c13 -9 13
-10 0 -10 -8 0 -22 5 -30 10 -13 9 -13 10 0 10 8 0 22 -5 30 -10z m-652 -722
c8 -8 15 -8 28 3 24 20 44 -13 44 -73 0 -48 -37 -178 -50 -178 -14 0 -60 151
-60 198 0 55 14 74 38 50z m882 -1324 c0 -8 -7 -14 -15 -14 -15 0 -21 21 -9
33 10 9 24 -2 24 -19z"/>
</g>
</svg>
