<?xml version="1.0" standalone="no"?>
<!DOCTYPE svg PUBLIC "-//W3C//DTD SVG 20010904//EN"
 "http://www.w3.org/TR/2001/REC-SVG-20010904/DTD/svg10.dtd">
<svg version="1.0" xmlns="http://www.w3.org/2000/svg"
 width="480.000000pt" height="360.000000pt" viewBox="0 0 480.000000 360.000000"
 preserveAspectRatio="xMidYMid meet">
<metadata>
Created by potrace 1.16, written by Peter Selinger 2001-2019
</metadata>
<rect width="1" height="360" fill="#000000"/>
<rect x="479" width="1" height="360" fill="#000000"/>
<rect width="480" height="1" fill="#000000"/>
<rect y="359" width="480" height="1" fill="#000000"/>
<g transform="translate(0.000000,360.000000) scale(0.100000,-0.100000)"
fill="#000000" stroke="none">
<path d="M0 1800 l0 -1800 2400 0 2400 0 0 1800 0 1800 -1190 0 -1190 0 -1
-152 c-1 -84 -5 -225 -9 -313 -6 -142 -7 -126 -8 153 l-2 312 -1200 0 -1200 0
0 -1800z m2328 881 c7 -16 26 -47 41 -69 25 -34 36 -40 78 -46 62 -8 84 -24
140 -100 l45 -61 109 -12 c121 -14 244 -51 294 -89 26 -20 38 -41 58 -107 17
-52 23 -85 17 -91 -6 -6 -10 -18 -10 -28 0 -30 -38 -96 -62 -109 -14 -8 -47
-9 -95 -5 -72 6 -73 5 -87 -22 -38 -74 -142 -142 -219 -142 -21 0 -30 -7 -38
-26 -8 -22 -6 -29 11 -41 21 -15 27 -48 10 -58 -5 -3 -10 -1 -10 4 0 13 -26
15 -34 3 -9 -15 12 -85 34 -115 17 -22 23 -46 25 -98 2 -45 -1 -67 -8 -62 -16
10 1 -48 25 -81 13 -18 22 -47 23 -76 1 -25 8 -56 14 -68 20 -37 4 -24 -29 23
-39 57 -56 50 -29 -12 11 -26 16 -49 10 -52 -5 -3 -8 -23 -6 -44 1 -28 -1 -37
-12 -33 -26 10 -12 -29 63 -172 76 -144 76 -145 55 -161 -15 -12 -18 -20 -11
-31 22 -34 12 -49 -37 -55 -27 -4 -64 -18 -83 -31 -33 -22 -35 -26 -34 -76 1
-29 5 -72 9 -95 13 -71 -26 -93 -92 -53 -40 24 -42 51 -8 77 26 19 26 14 -1
111 -3 9 -16 6 -47 -13 -24 -14 -56 -25 -70 -25 -22 0 -27 -5 -27 -25 0 -14
11 -34 25 -47 36 -32 33 -62 -10 -83 -51 -24 -77 -17 -87 23 -5 20 -5 40 2 51
13 25 13 68 0 76 -5 3 -10 15 -10 26 0 15 -7 19 -33 19 -21 0 -49 12 -80 34
-48 34 -60 39 -145 51 -42 7 -43 7 -36 41 5 27 2 38 -11 48 -17 12 -17 16 -1
82 9 38 50 139 90 224 123 259 199 515 166 555 -10 12 -10 21 0 45 7 17 11 32
9 33 -2 2 -38 20 -79 40 -41 20 -83 42 -92 49 -13 10 -23 7 -55 -15 -22 -15
-48 -27 -59 -27 -24 0 -75 51 -102 103 -21 41 -20 49 16 137 6 14 13 37 16 52
14 64 121 162 263 239 24 13 31 25 37 60 4 24 14 70 23 101 13 50 22 62 61 88
48 32 46 24 51 163 1 35 13 34 29 -2z"/>
<path d="M3025 2108 c-50 -19 -125 -81 -125 -104 0 -25 104 -32 137 -9 24 17
60 113 47 124 -5 4 -31 -1 -59 -11z"/>
<path d="M2745 1955 c-76 -12 -156 -37 -182 -58 -10 -7 -6 -17 13 -43 23 -29
32 -34 68 -34 68 0 157 61 200 138 8 14 7 14 -99 -3z"/>
<path d="M1873 1858 c-30 -14 -29 -17 11 -61 39 -43 60 -46 101 -13 26 21 28
26 15 40 -18 22 -64 46 -87 45 -10 0 -28 -5 -40 -11z"/>
<path d="M2147 1831 c-95 -25 -100 -34 -39 -65 61 -31 74 -32 94 -8 16 18 32
92 20 91 -4 0 -37 -8 -75 -18z"/>
</g>
</svg>
