<?xml version="1.0" standalone="no"?>
<!DOCTYPE svg PUBLIC "-//W3C//DTD SVG 20010904//EN"
 "http://www.w3.org/TR/2001/REC-SVG-20010904/DTD/svg10.dtd">
<svg version="1.0" xmlns="http://www.w3.org/2000/svg"
 width="480.000000pt" height="360.000000pt" viewBox="0 0 480.000000 360.000000"
 preserveAspectRatio="xMidYMid meet">
<metadata>
Created by potrace 1.16, written by Peter Selinger 2001-2019
</metadata>
<rect width="1" height="360" fill="#000000"/>
<rect x="479" width="1" height="360" fill="#000000"/>
<rect width="480" height="1" fill="#000000"/>
<rect y="359" width="480" height="1" fill="#000000"/>
<g transform="translate(0.000000,360.000000) scale(0.100000,-0.100000)"
fill="#000000" stroke="none">
<path d="M0 1800 l0 -1800 910 0 910 0 20 32 c10 18 19 46 18 63 0 32 41 154
75 220 30 58 26 215 -8 295 -23 54 -23 60 -12 169 8 85 8 121 -1 145 -7 18
-12 42 -12 54 0 28 -12 28 -25 1 -15 -32 -28 -28 -37 9 -7 25 -4 49 12 97 13
38 18 73 14 89 -5 20 10 59 67 172 40 80 79 148 86 151 9 3 13 24 13 64 0 54
2 59 24 65 23 5 21 10 -48 78 -112 112 -149 207 -111 280 14 27 14 31 0 38
-20 12 -19 24 6 59 12 18 29 29 43 29 26 0 51 24 42 39 -4 5 -19 9 -34 9 -28
-1 -102 37 -102 53 0 5 4 9 9 9 5 0 14 14 20 30 12 35 21 37 46 10 10 -11 29
-20 43 -20 22 0 24 3 18 33 -36 168 -43 246 -26 278 15 28 31 24 89 -22 l52
-42 27 26 c30 29 107 66 136 67 10 0 45 28 77 61 l59 61 0 449 0 449 -1200 0
-1200 0 0 -1800z"/>
<path d="M2400 1345 l0 -1345 305 0 c168 0 305 3 305 7 0 3 -7 14 -16 24 -9
10 -17 39 -18 66 -2 30 -19 86 -46 148 -52 120 -57 166 -41 360 7 77 13 204
14 282 1 79 5 143 9 143 3 0 15 -16 27 -35 24 -42 38 -44 47 -9 13 51 -21 235
-57 306 -16 32 -38 82 -49 111 -11 30 -31 64 -45 77 -21 20 -25 33 -25 82 0
44 -4 58 -14 58 -33 0 -21 20 59 102 68 71 87 96 101 142 20 64 11 114 -31
164 -14 17 -25 35 -25 41 0 7 -16 21 -35 32 -39 23 -40 26 -20 53 12 16 19 18
40 8 21 -10 26 -9 35 9 16 28 9 75 -10 71 -8 -2 -30 -6 -49 -9 -29 -5 -33 -4
-27 13 3 10 12 59 21 108 25 147 18 226 -22 226 -9 0 -39 -20 -67 -44 l-51
-43 -40 34 c-22 19 -63 40 -95 49 -42 12 -66 27 -103 65 -26 27 -54 49 -62 49
-13 0 -15 -171 -15 -1345z m468 649 c99 -49 76 -139 -62 -250 -96 -77 -123
-71 -87 19 11 29 25 65 31 81 10 28 11 28 26 10 11 -14 17 -16 21 -6 4 10 9 9
24 -4 18 -16 19 -16 19 14 0 17 5 32 12 34 8 3 4 17 -12 45 -12 23 -20 48 -17
57 8 20 7 20 45 0z m-178 -272 c0 -7 -4 -10 -10 -7 -5 3 -10 16 -10 28 0 18 2
19 10 7 5 -8 10 -21 10 -28z m-140 -7 c0 -8 -4 -15 -10 -15 -5 0 -7 7 -4 15 4
8 8 15 10 15 2 0 4 -7 4 -15z m69 -35 l22 -40 -45 0 c-27 0 -46 5 -46 11 0 14
32 69 40 69 4 0 16 -18 29 -40z m221 -1165 c0 -36 -13 -47 -24 -20 -5 13 12
55 21 55 2 0 3 -16 3 -35z"/>
<path d="M1994 2006 c-3 -9 -12 -16 -19 -16 -22 0 -55 -51 -55 -85 0 -49 65
-129 160 -197 40 -29 60 -27 60 6 0 32 -20 87 -30 81 -5 -3 -18 11 -30 30 -25
40 -36 44 -45 15 -10 -30 -25 -24 -25 10 0 23 -4 28 -16 23 -15 -5 -15 -3 0
24 21 42 31 109 17 117 -6 4 -14 0 -17 -8z"/>
<path d="M2160 1734 c0 -8 5 -12 10 -9 6 3 10 10 10 16 0 5 -4 9 -10 9 -5 0
-10 -7 -10 -16z"/>
<path d="M2231 1692 c-26 -50 -26 -52 -2 -52 10 0 26 11 35 25 15 23 15 28 2
46 -14 21 -15 20 -35 -19z"/>
<path d="M1981 518 c1 -13 4 -33 7 -46 7 -22 7 -21 20 8 11 24 11 34 2 45 -18
22 -30 18 -29 -7z"/>
</g>
</svg>
