<?xml version="1.0" standalone="no"?>
<!DOCTYPE svg PUBLIC "-//W3C//DTD SVG 20010904//EN"
 "http://www.w3.org/TR/2001/REC-SVG-20010904/DTD/svg10.dtd">
<svg version="1.0" xmlns="http://www.w3.org/2000/svg"
 width="480.000000pt" height="360.000000pt" viewBox="0 0 480.000000 360.000000"
 preserveAspectRatio="xMidYMid meet">
<metadata>
Created by potrace 1.16, written by Peter Selinger 2001-2019
</metadata>
<rect width="1" height="360" fill="#000000"/>
<rect x="479" width="1" height="360" fill="#000000"/>
<rect width="480" height="1" fill="#000000"/>
<rect y="359" width="480" height="1" fill="#000000"/>
<g transform="translate(0.000000,360.000000) scale(0.100000,-0.100000)"
fill="#000000" stroke="none">
<path d="M0 1800 l0 -1800 2400 0 2400 0 0 754 0 754 -45 11 c-26 6 -67 30
-100 57 l-56 45 -145 -26 c-80 -15 -152 -24 -159 -21 -8 3 -29 30 -46 61 -24
42 -36 55 -48 50 -46 -18 -409 -118 -505 -139 -300 -67 -457 -58 -588 31 -50
34 -95 70 -337 267 -122 99 -262 206 -271 206 -18 0 -91 -86 -132 -157 -70
-118 -122 -173 -163 -173 -18 0 -38 -6 -44 -14 -10 -12 2 -15 69 -21 44 -4 82
-11 85 -15 3 -5 -1 -26 -10 -47 -8 -21 -19 -74 -24 -118 -6 -44 -18 -109 -27
-144 -21 -78 -11 -141 37 -239 17 -35 29 -64 27 -65 -79 -46 -159 -58 -219
-33 -18 7 -49 11 -68 9 -27 -4 -43 0 -61 15 -23 19 -24 21 -8 39 50 54 69 157
46 238 -6 22 -12 74 -12 115 -1 74 -1 75 -28 78 -34 4 -117 77 -134 119 -8 18
-14 46 -14 63 0 16 -4 30 -9 30 -11 0 -21 -50 -21 -104 0 -87 -38 -84 -81 8
-16 34 -36 72 -44 86 -38 64 0 199 85 305 97 120 136 148 410 282 251 123 286
123 580 1 80 -33 204 -80 275 -105 157 -54 291 -116 374 -172 l61 -42 137 66
c135 66 253 115 406 170 74 26 94 46 62 59 -38 14 -9 36 117 88 l133 55 16 59
c42 160 115 202 358 207 l121 2 0 352 0 352 -59 -3 c-32 -1 -65 -7 -73 -13 -8
-7 -38 -13 -68 -15 -50 -3 -55 -1 -58 20 -3 17 -10 22 -32 22 -16 0 -37 -8
-47 -18 -33 -34 -138 -64 -225 -65 -52 0 -82 4 -87 12 -13 20 -75 25 -90 7
-18 -21 -99 -22 -107 -1 -4 9 -17 14 -34 13 -15 -1 -46 6 -68 16 -33 15 -41
24 -45 53 -4 19 -1 43 6 53 14 24 3 37 -18 20 -23 -19 -64 3 -71 39 -4 20 -16
33 -40 45 -32 15 -189 16 -1859 16 l-1825 0 0 -1800z"/>
<path d="M2116 2011 c-6 -9 -36 -145 -36 -161 0 -4 12 -15 26 -25 21 -13 28
-14 41 -3 9 7 26 11 38 10 33 -4 47 21 53 93 l5 65 -36 15 c-41 17 -83 20 -91
6z"/>
<path d="M1935 1827 c-19 -29 -20 -39 -10 -112 8 -62 17 -90 40 -124 l30 -45
3 72 c3 72 3 72 31 72 42 0 91 11 91 21 0 4 -19 17 -42 27 -62 27 -108 69
-108 98 0 33 -11 30 -35 -9z"/>
</g>
</svg>
