<?xml version="1.0" standalone="no"?>
<!DOCTYPE svg PUBLIC "-//W3C//DTD SVG 20010904//EN"
 "http://www.w3.org/TR/2001/REC-SVG-20010904/DTD/svg10.dtd">
<svg version="1.0" xmlns="http://www.w3.org/2000/svg"
 width="480.000000pt" height="360.000000pt" viewBox="0 0 480.000000 360.000000"
 preserveAspectRatio="xMidYMid meet">
<metadata>
Created by potrace 1.16, written by Peter Selinger 2001-2019
</metadata>
<rect width="1" height="360" fill="#000000"/>
<rect x="479" width="1" height="360" fill="#000000"/>
<rect width="480" height="1" fill="#000000"/>
<rect y="359" width="480" height="1" fill="#000000"/>
<g transform="translate(0.000000,360.000000) scale(0.100000,-0.100000)"
fill="#000000" stroke="none">
<path d="M0 1800 l0 -1800 863 0 862 0 19 68 c10 37 77 243 148 459 103 311
138 405 170 454 38 60 40 65 33 118 l-7 56 -33 -90 c-49 -134 -70 -179 -116
-242 -41 -56 -300 -318 -367 -370 l-33 -26 -24 23 c-13 13 -29 38 -36 57 l-11
34 -44 -41 c-45 -41 -58 -47 -69 -31 -3 6 -19 3 -36 -7 -24 -13 -33 -14 -36
-5 -3 8 -14 11 -29 7 -34 -9 -31 15 7 52 17 16 36 38 41 49 6 11 -12 -1 -40
-28 -28 -26 -56 -47 -62 -47 -19 0 -10 25 22 60 49 56 109 153 100 162 -5 5
-27 2 -51 -8 -88 -35 -55 16 39 61 45 22 59 33 55 45 -4 12 48 74 172 204 160
169 181 195 204 254 14 37 37 90 51 117 14 28 30 66 36 87 9 32 7 38 -14 57
-13 12 -29 21 -34 21 -6 0 -10 7 -10 15 0 17 -25 20 -35 5 -15 -25 -26 -8 -20
30 5 32 4 40 -9 40 -8 0 -17 4 -20 9 -9 14 42 70 83 91 42 21 86 66 95 97 4
12 16 72 26 135 18 104 19 114 4 125 -17 12 -13 37 21 150 7 23 7 23 -29 8
-46 -20 -65 -19 -73 3 -4 9 -9 19 -12 22 -15 13 -36 60 -48 110 -8 30 -21 82
-29 115 -20 77 -20 100 0 130 16 24 21 25 112 25 56 0 122 -7 158 -16 52 -14
70 -14 124 -4 36 7 85 10 113 6 41 -6 62 -2 117 20 81 33 170 53 234 54 65 0
77 -20 73 -114 -5 -105 -12 -157 -23 -168 -6 -6 -8 -16 -6 -23 3 -7 -3 -30
-14 -52 -13 -26 -16 -46 -11 -63 12 -41 10 -60 -6 -60 -8 0 -17 -12 -21 -27
-3 -16 -21 -62 -39 -103 -28 -63 -34 -90 -37 -165 l-3 -89 45 -17 c76 -28 120
-59 125 -88 3 -14 15 -53 25 -86 11 -33 23 -82 26 -110 3 -27 15 -74 25 -103
10 -29 19 -71 19 -93 0 -48 0 -48 190 -186 80 -58 147 -111 149 -117 2 -6 19
-25 38 -42 40 -36 42 -48 8 -41 -18 3 -29 -1 -36 -14 -15 -28 11 -69 75 -118
31 -23 56 -46 56 -51 0 -13 -48 -36 -90 -43 -53 -10 -129 35 -155 91 -11 23
-24 41 -30 39 -16 -6 -54 -66 -65 -106 -6 -20 -16 -82 -22 -138 -11 -108 -16
-115 -56 -87 -13 9 -26 14 -29 11 -3 -3 21 -90 52 -194 32 -103 69 -227 83
-275 l26 -88 923 0 923 0 0 1800 0 1800 -2400 0 -2400 0 0 -1800z"/>
<path d="M2066 1478 c-11 -42 -6 -83 13 -114 10 -17 21 -40 24 -50 7 -30 7 97
-1 140 -8 45 -27 58 -36 24z"/>
<path d="M1339 543 c-13 -16 -12 -17 4 -4 16 13 21 21 13 21 -2 0 -10 -8 -17
-17z"/>
</g>
</svg>
