<?xml version="1.0" standalone="no"?>
<!DOCTYPE svg PUBLIC "-//W3C//DTD SVG 20010904//EN"
 "http://www.w3.org/TR/2001/REC-SVG-20010904/DTD/svg10.dtd">
<svg version="1.0" xmlns="http://www.w3.org/2000/svg"
 width="480.000000pt" height="360.000000pt" viewBox="0 0 480.000000 360.000000"
 preserveAspectRatio="xMidYMid meet">
<metadata>
Created by potrace 1.16, written by Peter Selinger 2001-2019
</metadata>
<rect width="1" height="360" fill="#000000"/>
<rect x="479" width="1" height="360" fill="#000000"/>
<rect width="480" height="1" fill="#000000"/>
<rect y="359" width="480" height="1" fill="#000000"/>
<g transform="translate(0.000000,360.000000) scale(0.100000,-0.100000)"
fill="#000000" stroke="none">
<path d="M2136 2558 c-10 -14 -16 -44 -16 -76 0 -40 -4 -54 -17 -59 -14 -6
-80 13 -145 42 -30 12 -22 -33 12 -72 17 -18 30 -39 30 -46 0 -7 -16 -24 -35
-40 -47 -38 -69 -113 -63 -218 8 -139 86 -262 203 -321 22 -11 61 -43 87 -71
41 -43 50 -49 76 -44 27 5 36 -1 97 -69 37 -41 80 -81 96 -89 16 -9 36 -29 44
-45 8 -16 25 -32 38 -35 14 -4 37 -32 65 -81 48 -84 105 -130 207 -164 33 -11
76 -27 95 -35 19 -7 98 -37 175 -65 77 -28 209 -84 292 -125 158 -77 216 -92
242 -61 7 8 38 17 69 19 94 8 251 36 275 48 40 21 57 42 57 71 0 37 -33 50
-106 42 -48 -6 -54 -5 -54 12 0 10 41 57 90 104 94 90 108 119 69 140 -11 6
-33 8 -50 5 -35 -8 -37 4 -5 42 38 46 47 71 40 108 -4 21 0 53 11 85 13 39 15
57 6 78 -5 15 -14 52 -20 82 -6 34 -16 59 -26 65 -10 5 -30 20 -45 32 -14 12
-40 25 -56 29 -16 4 -47 15 -69 25 -51 24 -112 24 -172 0 -26 -10 -77 -23
-113 -30 -36 -7 -121 -27 -190 -46 -125 -34 -370 -85 -370 -76 0 2 8 13 17 23
10 11 18 39 20 66 5 84 10 113 21 124 7 7 12 20 12 30 0 17 -6 18 -51 12 l-51
-7 4 29 c2 21 14 34 47 53 24 14 47 36 52 49 7 19 5 22 -17 22 -14 0 -33 -4
-42 -9 -9 -5 -43 -12 -75 -15 -48 -6 -58 -5 -63 9 -9 22 72 105 102 105 33 0
38 37 9 66 -13 13 -30 24 -38 24 -35 0 -78 -25 -98 -56 -11 -19 -24 -34 -27
-34 -4 0 -40 -27 -81 -61 -68 -55 -78 -60 -110 -54 -64 11 -135 34 -176 58
-32 18 -42 31 -53 72 -11 37 -12 53 -3 67 18 29 13 65 -12 85 -13 10 -44 50
-69 89 -42 66 -92 114 -116 114 -6 0 -18 -10 -26 -22z"/>
</g>
</svg>
