<?xml version="1.0" standalone="no"?>
<!DOCTYPE svg PUBLIC "-//W3C//DTD SVG 20010904//EN"
 "http://www.w3.org/TR/2001/REC-SVG-20010904/DTD/svg10.dtd">
<svg version="1.0" xmlns="http://www.w3.org/2000/svg"
 width="480.000000pt" height="360.000000pt" viewBox="0 0 480.000000 360.000000"
 preserveAspectRatio="xMidYMid meet">
<metadata>
Created by potrace 1.16, written by Peter Selinger 2001-2019
</metadata>
<rect width="1" height="360" fill="#000000"/>
<rect x="479" width="1" height="360" fill="#000000"/>
<rect width="480" height="1" fill="#000000"/>
<rect y="359" width="480" height="1" fill="#000000"/>
<g transform="translate(0.000000,360.000000) scale(0.100000,-0.100000)"
fill="#000000" stroke="none">
<path d="M2225 2691 c-144 -26 -235 -55 -360 -116 -135 -66 -194 -105 -355
-235 -274 -222 -494 -377 -636 -449 -137 -69 -247 -99 -434 -122 -128 -15
-153 -25 -85 -34 80 -10 246 -46 301 -65 73 -25 210 -96 344 -177 106 -64 158
-93 310 -176 30 -17 143 -80 250 -140 416 -234 615 -297 940 -297 178 0 289
16 413 59 176 61 393 188 637 375 347 265 433 321 564 366 80 27 217 50 303
50 115 0 114 10 -4 40 -174 45 -261 85 -489 227 -70 43 -567 336 -809 476
-128 74 -323 163 -409 187 -101 28 -244 50 -321 49 -33 0 -105 -9 -160 -18z
m298 -416 c135 -28 282 -132 349 -246 51 -86 71 -165 71 -274 0 -122 -23 -199
-90 -298 -78 -116 -193 -193 -331 -223 -84 -17 -130 -17 -214 0 -185 40 -337
175 -399 356 -33 96 -32 239 3 337 62 174 214 309 391 348 82 18 137 18 220 0z"/>
</g>
</svg>
