<?xml version="1.0" standalone="no"?>
<!DOCTYPE svg PUBLIC "-//W3C//DTD SVG 20010904//EN"
 "http://www.w3.org/TR/2001/REC-SVG-20010904/DTD/svg10.dtd">
<svg version="1.0" xmlns="http://www.w3.org/2000/svg"
 width="480.000000pt" height="360.000000pt" viewBox="0 0 480.000000 360.000000"
 preserveAspectRatio="xMidYMid meet">
<metadata>
Created by potrace 1.16, written by Peter Selinger 2001-2019
</metadata>
<rect width="1" height="360" fill="#000000"/>
<rect x="479" width="1" height="360" fill="#000000"/>
<rect width="480" height="1" fill="#000000"/>
<rect y="359" width="480" height="1" fill="#000000"/>
<g transform="translate(0.000000,360.000000) scale(0.100000,-0.100000)"
fill="#000000" stroke="none">
<path d="M0 1800 l0 -1800 2400 0 2400 0 0 1800 0 1800 -1025 0 c-564 0 -1025
-1 -1025 -2 0 -2 7 -28 15 -58 28 -103 14 -255 -31 -357 -31 -70 -75 -130
-188 -253 -97 -105 -130 -155 -141 -215 l-8 -40 -13 40 c-9 24 -62 97 -129
178 -178 212 -232 289 -255 365 -25 80 -28 211 -6 290 l14 52 -1004 0 -1004 0
0 -1800z m2310 776 c0 -7 7 -19 15 -26 8 -7 15 -19 15 -27 0 -8 10 -23 23 -34
17 -15 19 -20 8 -28 -9 -6 2 -11 35 -16 75 -11 108 -31 150 -92 62 -88 64 -89
141 -96 111 -9 293 -79 354 -136 25 -23 57 -167 41 -183 -8 -8 -15 -8 -26 1
-12 10 -17 3 -30 -42 -11 -38 -27 -64 -51 -86 -41 -36 -68 -38 -157 -15 -34 8
-64 12 -67 7 -4 -4 -24 -29 -44 -55 -38 -47 -122 -98 -163 -98 -52 0 -72 -32
-38 -61 12 -10 14 -23 9 -56 -5 -37 -2 -51 21 -91 19 -32 28 -61 29 -91 0 -52
12 -59 49 -30 25 20 27 26 21 66 -6 40 -4 44 12 41 10 -2 24 -16 31 -31 28
-57 -26 -137 -93 -137 -37 0 -58 20 -74 72 -7 20 -15 38 -19 40 -4 2 -18 18
-31 36 -13 18 -25 31 -28 29 -2 -3 9 -45 25 -94 16 -48 33 -117 37 -153 18
-167 47 -277 144 -539 35 -96 37 -111 15 -111 -14 0 -15 -7 -10 -39 5 -35 4
-39 -17 -40 -12 0 -57 -4 -99 -7 l-77 -6 -7 -56 c-5 -39 -3 -57 5 -60 21 -7
41 -33 41 -53 0 -37 -90 -75 -117 -48 -7 7 -23 7 -52 -1 -63 -17 -72 -5 -69
89 3 85 10 79 -75 65 -31 -5 -45 -1 -76 20 -21 15 -54 29 -72 32 -25 4 -41 15
-56 39 -15 23 -32 34 -58 39 -36 7 -37 8 -31 41 4 21 2 42 -6 54 -16 27 7 100
67 206 91 163 138 261 137 289 0 17 2 34 5 40 7 11 5 122 -3 149 -9 28 -27 20
-20 -9 5 -18 3 -24 -5 -18 -14 9 -6 90 19 190 22 88 19 144 -10 144 -25 0 -53
15 -104 57 -23 18 -44 33 -48 33 -5 0 -19 -9 -33 -20 -32 -25 -65 -26 -85 -2
-8 9 -23 47 -32 84 l-18 67 24 43 c32 58 142 192 182 223 17 13 57 36 88 50
68 31 73 37 87 103 17 83 35 116 85 158 25 21 46 46 46 56 0 9 4 19 10 23 5 3
9 20 9 38 0 66 1 77 11 77 6 0 10 -6 10 -14z"/>
<path d="M3034 2046 c-9 -24 3 -63 22 -70 23 -9 25 -4 16 39 -8 41 -28 57 -38
31z"/>
<path d="M2952 1924 c-77 -20 -152 -62 -152 -84 0 -4 30 -15 66 -24 54 -14 70
-14 91 -4 38 19 84 116 58 124 -5 1 -34 -4 -63 -12z"/>
<path d="M1808 1774 c-14 -15 -15 -21 -1 -60 16 -48 40 -57 77 -29 17 13 17
18 6 45 -11 27 -44 60 -60 60 -3 0 -13 -7 -22 -16z"/>
<path d="M2535 1781 c-58 -10 -64 -16 -55 -55 11 -50 17 -56 63 -56 49 0 135
45 160 84 10 14 17 28 17 31 0 7 -135 4 -185 -4z"/>
<path d="M2030 1723 c-65 -10 -72 -13 -60 -28 22 -26 103 -75 125 -75 18 0 24
7 29 38 12 76 6 81 -94 65z"/>
<path d="M2347 404 c-13 -13 -8 -72 7 -77 18 -7 26 1 26 28 0 25 -23 59 -33
49z"/>
</g>
</svg>
