<?xml version="1.0" standalone="no"?>
<!DOCTYPE svg PUBLIC "-//W3C//DTD SVG 20010904//EN"
 "http://www.w3.org/TR/2001/REC-SVG-20010904/DTD/svg10.dtd">
<svg version="1.0" xmlns="http://www.w3.org/2000/svg"
 width="480.000000pt" height="360.000000pt" viewBox="0 0 480.000000 360.000000"
 preserveAspectRatio="xMidYMid meet">
<metadata>
Created by potrace 1.16, written by Peter Selinger 2001-2019
</metadata>
<rect width="1" height="360" fill="#000000"/>
<rect x="479" width="1" height="360" fill="#000000"/>
<rect width="480" height="1" fill="#000000"/>
<rect y="359" width="480" height="1" fill="#000000"/>
<g transform="translate(0.000000,360.000000) scale(0.100000,-0.100000)"
fill="#000000" stroke="none">
<path d="M1589 2551 c-78 -24 -91 -61 -37 -106 45 -38 59 -42 277 -79 108 -19
210 -40 226 -47 29 -12 28 -13 -40 -20 -38 -4 -125 -12 -192 -18 -99 -8 -135
-15 -190 -40 -73 -31 -143 -84 -143 -105 0 -18 60 -46 99 -46 18 0 66 7 108
16 59 12 114 14 236 11 87 -3 161 -8 164 -11 4 -3 -2 -6 -12 -6 -10 0 -76 -24
-148 -52 -106 -43 -139 -61 -176 -98 -81 -79 -89 -122 -29 -144 20 -7 56 3
179 51 140 55 259 84 259 63 0 -5 -28 -31 -63 -59 -55 -45 -67 -60 -85 -114
-28 -79 -29 -123 -2 -137 32 -17 54 -4 110 60 89 103 138 138 226 160 44 11
94 20 111 20 20 0 79 -23 150 -59 132 -66 178 -77 356 -87 107 -5 118 -8 129
-27 6 -12 18 -28 27 -34 14 -11 14 -14 1 -23 -8 -5 -19 -11 -24 -13 -19 -6 6
-88 37 -121 30 -31 38 -34 112 -40 315 -27 681 -109 1240 -277 110 -33 224
-63 253 -66 l52 -6 0 386 0 386 -37 10 c-21 5 -108 26 -193 46 -444 106 -757
189 -1060 283 -69 21 -126 35 -128 30 -2 -4 -15 -5 -28 -2 -17 4 -37 -2 -65
-21 l-41 -26 -221 65 c-122 35 -301 83 -397 106 -96 23 -217 55 -268 71 -51
16 -106 29 -121 29 -15 0 -63 9 -107 21 -124 32 -403 79 -464 78 -30 0 -67 -4
-81 -8z"/>
</g>
</svg>
