<?xml version="1.0" standalone="no"?>
<!DOCTYPE svg PUBLIC "-//W3C//DTD SVG 20010904//EN"
 "http://www.w3.org/TR/2001/REC-SVG-20010904/DTD/svg10.dtd">
<svg version="1.0" xmlns="http://www.w3.org/2000/svg"
 width="480.000000pt" height="360.000000pt" viewBox="0 0 480.000000 360.000000"
 preserveAspectRatio="xMidYMid meet">
<metadata>
Created by potrace 1.16, written by Peter Selinger 2001-2019
</metadata>
<rect width="1" height="360" fill="#000000"/>
<rect x="479" width="1" height="360" fill="#000000"/>
<rect width="480" height="1" fill="#000000"/>
<rect y="359" width="480" height="1" fill="#000000"/>
<g transform="translate(0.000000,360.000000) scale(0.100000,-0.100000)"
fill="#000000" stroke="none">
<path d="M425 3533 c-10 -118 -16 -152 -25 -158 -5 -3 -32 -9 -61 -12 -46 -5
-50 -8 -43 -27 23 -69 14 -178 -41 -491 -37 -215 -55 -330 -55 -359 0 -14 -9
-35 -20 -46 -11 -11 -20 -30 -20 -43 0 -27 38 -67 64 -67 21 0 21 -4 -8 -180
-86 -530 -89 -553 -81 -646 6 -71 4 -86 -14 -120 -12 -21 -21 -43 -21 -47 0
-5 -14 -39 -31 -75 -26 -53 -29 -69 -20 -84 15 -25 15 -25 -19 -43 l-30 -16 0
-559 0 -560 2400 0 2400 0 -2 222 -3 223 -70 26 c-38 15 -119 35 -180 45 -60
10 -112 19 -114 21 -6 4 -28 154 -40 270 -6 60 -16 209 -21 333 -13 301 -36
398 -125 535 -95 147 -336 346 -535 441 -44 21 -80 44 -80 51 0 17 62 187 94
255 14 31 26 63 26 72 0 15 -22 18 -215 31 -49 4 -91 8 -92 9 -2 2 13 43 33
92 96 237 174 571 174 749 0 51 8 98 24 150 l24 75 -1633 0 -1633 0 -7 -67z
m1049 -808 c16 -24 14 -30 -29 -147 -76 -203 -88 -233 -99 -240 -12 -8 -56
-11 -56 -3 0 2 15 39 34 82 48 110 70 173 64 179 -9 8 56 153 68 154 1 0 9
-11 18 -25z m-717 -117 c-3 -8 -6 -5 -6 6 -1 11 2 17 5 13 3 -3 4 -12 1 -19z
m-147 -353 c13 -15 14 -14 -35 -30 -16 -5 -19 4 -9 29 8 20 28 21 44 1z m-118
-287 c-15 -15 -26 -4 -18 18 5 13 9 15 18 6 9 -9 9 -15 0 -24z"/>
</g>
</svg>
