<?xml version="1.0" standalone="no"?>
<!DOCTYPE svg PUBLIC "-//W3C//DTD SVG 20010904//EN"
 "http://www.w3.org/TR/2001/REC-SVG-20010904/DTD/svg10.dtd">
<svg version="1.0" xmlns="http://www.w3.org/2000/svg"
 width="480.000000pt" height="360.000000pt" viewBox="0 0 480.000000 360.000000"
 preserveAspectRatio="xMidYMid meet">
<metadata>
Created by potrace 1.16, written by Peter Selinger 2001-2019
</metadata>
<rect width="1" height="360" fill="#000000"/>
<rect x="479" width="1" height="360" fill="#000000"/>
<rect width="480" height="1" fill="#000000"/>
<rect y="359" width="480" height="1" fill="#000000"/>
<g transform="translate(0.000000,360.000000) scale(0.100000,-0.100000)"
fill="#000000" stroke="none">
<path d="M1510 2423 c-36 -7 -46 -20 -20 -28 17 -5 19 -9 9 -21 -10 -12 -8
-16 9 -21 22 -5 22 -5 -3 -25 -31 -24 -32 -60 -4 -87 22 -20 129 -68 259 -117
166 -61 173 -66 75 -53 -88 11 -254 10 -300 -1 -110 -29 -156 -60 -87 -60 25
0 25 -1 6 -15 -18 -14 -18 -14 9 -15 36 0 27 -16 -15 -24 -65 -13 -106 -86
-55 -100 12 -3 67 -6 122 -6 103 0 264 -17 278 -30 4 -4 -12 -10 -36 -13 -68
-10 -149 -43 -187 -79 -29 -26 -32 -33 -17 -36 20 -4 23 -18 5 -25 -7 -3 -2
-6 11 -6 22 -1 21 -4 -18 -43 -31 -31 -41 -48 -39 -67 3 -24 7 -26 48 -25 25
1 107 17 183 37 77 21 145 37 153 37 24 0 15 -14 -18 -31 -45 -22 -64 -62 -72
-154 -14 -138 -13 -140 10 -143 15 -2 46 18 100 67 99 89 135 106 256 122 87
11 99 11 122 -4 48 -32 176 -98 219 -113 51 -19 115 -30 222 -39 170 -15 255
-44 226 -79 -8 -9 -11 -41 -9 -88 l3 -73 100 -12 c406 -51 689 -120 1275 -309
219 -71 415 -124 461 -124 5 0 9 186 9 443 l0 442 -213 52 c-193 47 -264 63
-412 95 -27 6 -79 18 -115 28 -36 10 -92 24 -125 31 -79 16 -573 144 -650 168
-33 11 -72 22 -87 25 -14 3 -33 8 -41 11 -8 4 -28 -6 -46 -20 l-31 -27 -88 38
c-48 20 -126 56 -174 80 -48 24 -149 64 -224 90 -125 41 -144 51 -208 105 -80
67 -200 129 -250 129 -18 0 -45 -9 -59 -20 l-26 -20 -93 35 c-51 19 -98 35
-104 35 -7 0 -36 11 -65 25 -88 40 -224 68 -279 58z m550 -853 c-36 -11 -52
-11 -45 0 3 6 21 10 38 9 31 -1 31 -1 7 -9z"/>
</g>
</svg>
