<?xml version="1.0" standalone="no"?>
<!DOCTYPE svg PUBLIC "-//W3C//DTD SVG 20010904//EN"
 "http://www.w3.org/TR/2001/REC-SVG-20010904/DTD/svg10.dtd">
<svg version="1.0" xmlns="http://www.w3.org/2000/svg"
 width="480.000000pt" height="360.000000pt" viewBox="0 0 480.000000 360.000000"
 preserveAspectRatio="xMidYMid meet">
<metadata>
Created by potrace 1.16, written by Peter Selinger 2001-2019
</metadata>
<rect width="1" height="360" fill="#000000"/>
<rect x="479" width="1" height="360" fill="#000000"/>
<rect width="480" height="1" fill="#000000"/>
<rect y="359" width="480" height="1" fill="#000000"/>
<g transform="translate(0.000000,360.000000) scale(0.100000,-0.100000)"
fill="#000000" stroke="none">
<path d="M2550 3166 c0 -8 11 -23 23 -33 26 -20 47 -54 47 -76 0 -8 -18 -19
-42 -26 -27 -9 -61 -32 -98 -69 -46 -47 -59 -68 -73 -118 -9 -33 -17 -76 -17
-95 0 -44 -6 -50 -36 -39 -38 15 -31 -25 11 -67 20 -20 35 -43 33 -52 -2 -9
-38 -39 -80 -68 -62 -41 -88 -53 -125 -55 -42 -3 -48 -6 -45 -23 4 -24 49 -73
74 -81 12 -3 36 7 68 31 50 37 51 37 85 21 33 -16 34 -18 31 -65 -2 -27 0 -55
5 -63 6 -9 9 -10 9 0 0 23 15 11 49 -39 25 -36 40 -49 52 -46 22 6 25 -7 38
-163 14 -152 12 -318 -4 -350 -7 -14 -22 -34 -34 -44 -12 -11 -21 -29 -21 -42
0 -14 -20 -41 -57 -76 -32 -29 -94 -87 -138 -129 -44 -42 -100 -88 -125 -102
-25 -15 -100 -70 -165 -123 -66 -53 -180 -141 -252 -196 -73 -55 -133 -108
-133 -116 0 -9 -9 -25 -19 -36 -10 -12 -31 -45 -46 -74 l-28 -53 25 -27 c14
-15 23 -34 21 -42 -17 -54 -78 -211 -103 -267 -17 -37 -27 -70 -23 -74 5 -4
20 -10 34 -14 24 -6 31 1 98 101 39 59 86 136 103 171 17 35 35 60 39 56 4 -4
31 -62 59 -128 28 -66 55 -129 60 -140 5 -11 19 -45 31 -75 46 -113 59 -110
139 28 35 59 73 123 85 142 12 19 50 87 85 150 63 114 144 246 164 265 17 16
100 81 113 89 7 4 18 -4 26 -21 12 -24 12 -47 -3 -163 -9 -74 -21 -146 -27
-160 -5 -14 -13 -97 -16 -185 -4 -88 -10 -215 -13 -282 l-7 -123 566 0 567 0
1 83 c1 90 16 66 18 -30 l1 -53 149 0 148 0 8 98 c5 53 9 162 11 242 2 80 7
214 12 299 6 98 6 168 0 190 -43 159 -99 318 -175 501 -130 310 -140 343 -148
485 -9 172 -34 475 -42 510 l-6 30 25 -22 c22 -21 26 -22 46 -7 31 22 27 43
-10 59 -76 31 -112 122 -113 280 0 90 -3 106 -28 156 -52 101 -167 200 -272
231 -111 33 -325 59 -386 48 -72 -14 -73 -14 -92 19 -9 16 -32 36 -51 45 -43
20 -106 22 -106 2z"/>
</g>
</svg>
