<?xml version="1.0" standalone="no"?>
<!DOCTYPE svg PUBLIC "-//W3C//DTD SVG 20010904//EN"
 "http://www.w3.org/TR/2001/REC-SVG-20010904/DTD/svg10.dtd">
<svg version="1.0" xmlns="http://www.w3.org/2000/svg"
 width="480.000000pt" height="360.000000pt" viewBox="0 0 480.000000 360.000000"
 preserveAspectRatio="xMidYMid meet">
<metadata>
Created by potrace 1.16, written by Peter Selinger 2001-2019
</metadata>
<rect width="1" height="360" fill="#000000"/>
<rect x="479" width="1" height="360" fill="#000000"/>
<rect width="480" height="1" fill="#000000"/>
<rect y="359" width="480" height="1" fill="#000000"/>
<g transform="translate(0.000000,360.000000) scale(0.100000,-0.100000)"
fill="#000000" stroke="none">
<path d="M1955 3508 c-17 -241 -36 -452 -40 -456 -9 -10 -35 69 -46 140 -38
257 -45 276 -89 248 -11 -7 -15 -42 -18 -164 -3 -111 -8 -156 -16 -156 -7 0
-33 47 -60 103 -55 122 -98 179 -130 175 -33 -5 -31 -55 8 -255 42 -211 51
-282 42 -319 -10 -40 -25 -18 -46 68 -41 168 -72 275 -88 298 l-17 25 -3 -45
c-2 -24 1 -72 7 -105 6 -34 11 -88 11 -121 -1 -55 -2 -57 -14 -34 -7 14 -26
77 -40 140 -15 63 -34 138 -43 165 -19 62 -38 85 -28 35 4 -24 3 -30 -3 -21
-8 11 -11 10 -14 -5 -3 -14 -8 -8 -18 21 -17 52 -52 105 -67 105 -21 0 -15
-98 12 -201 36 -133 58 -240 51 -246 -3 -3 -12 -1 -19 5 -8 7 -16 10 -19 7 -2
-3 -18 13 -34 35 -27 37 -54 52 -54 30 0 -5 9 -33 20 -62 18 -49 38 -148 29
-148 -2 0 -26 7 -53 15 -27 8 -85 15 -129 15 -69 0 -88 -4 -141 -31 -33 -17
-68 -37 -76 -44 -28 -25 -164 -85 -215 -94 -27 -5 -90 -11 -140 -12 -65 -2
-138 -15 -265 -46 -96 -24 -183 -43 -192 -43 -17 0 -18 -67 -18 -1265 l0
-1265 1040 0 c1132 0 1052 -4 1030 54 -5 15 -17 26 -28 26 -51 0 -55 62 -11
146 65 123 117 194 141 194 13 0 29 -9 36 -20 11 -19 15 -19 34 -6 52 37 80
-43 38 -112 -11 -18 -20 -39 -20 -46 0 -7 -9 -25 -20 -39 -20 -25 -20 -29 -6
-79 8 -29 16 -66 18 -83 l3 -30 1273 -3 1272 -2 0 1240 0 1240 -92 0 c-52 1
-119 8 -153 17 -33 8 -118 19 -190 23 -137 9 -170 16 -260 55 -73 33 -124 44
-254 54 -123 10 -164 25 -277 100 -136 91 -186 89 -341 -11 -52 -33 -96 -58
-99 -55 -3 3 2 19 10 36 26 49 37 83 26 76 -13 -8 -13 -11 9 68 22 75 13 92
-12 22 -9 -25 -24 -66 -33 -91 -9 -25 -18 -44 -20 -42 -7 8 25 106 54 165 17
34 40 83 51 110 10 26 35 86 55 133 38 89 42 105 26 95 -13 -8 -45 -59 -94
-150 -61 -112 -75 -132 -96 -138 -25 -6 -29 6 -22 71 7 70 -8 67 -59 -13 -23
-36 -43 -64 -45 -63 -2 2 4 45 13 96 13 71 14 97 5 116 -6 14 -17 23 -24 21
-18 -7 -50 -59 -83 -135 -30 -68 -70 -130 -84 -130 -19 0 -18 47 5 168 27 145
51 368 41 378 -14 15 -37 -21 -62 -97 -21 -62 -33 -82 -53 -93 -15 -8 -36 -23
-46 -35 -25 -27 -29 -27 -45 9 -10 24 -17 29 -34 24 -19 -6 -20 -4 -13 62 4
38 12 100 19 138 7 38 11 84 9 102 -4 30 -8 34 -32 34 -22 0 -34 -10 -59 -47
-17 -26 -37 -64 -43 -85 -6 -21 -15 -38 -19 -38 -4 0 -10 38 -14 85 l-7 85
-248 0 -248 0 -7 -92z m635 -1282 c0 -2 -3 -11 -6 -20 -9 -23 -34 -20 -34 4 0
13 7 20 20 20 11 0 20 -2 20 -4z m-330 -241 c0 -14 -4 -25 -10 -25 -5 0 -10
11 -10 25 0 14 5 25 10 25 6 0 10 -11 10 -25z m200 -114 c0 -18 -18 -41 -32
-41 -11 0 -10 28 3 51 11 22 29 17 29 -10z m120 10 c0 -22 -16 -36 -24 -22 -8
12 3 41 15 41 5 0 9 -9 9 -19z m-190 -71 c0 -11 -4 -20 -10 -20 -5 0 -10 9
-10 20 0 11 5 20 10 20 6 0 10 -9 10 -20z m-272 -13 c7 -8 8 -18 1 -27 -8 -13
-11 -12 -24 4 -22 29 0 51 23 23z m192 4 c0 -20 -13 -41 -21 -35 -15 9 -10 44
6 44 8 0 15 -4 15 -9z m-280 -56 c16 -19 3 -40 -16 -24 -15 13 -19 39 -5 39 5
0 14 -7 21 -15z m150 -40 c0 -14 -4 -25 -9 -25 -12 0 -23 29 -15 41 10 18 24
9 24 -16z m-80 -11 c0 -16 -16 -19 -25 -4 -8 13 4 32 16 25 5 -4 9 -13 9 -21z
m-120 -34 c0 -11 -4 -20 -10 -20 -5 0 -10 2 -10 4 0 2 -3 11 -6 20 -4 11 -1
16 10 16 9 0 16 -8 16 -20z m390 -17 c-1 -17 -52 -66 -58 -56 -4 5 -15 12 -24
16 -22 8 -24 27 -3 27 8 0 15 -5 15 -12 0 -7 10 -2 22 10 22 21 48 30 48 15z
m78 -30 c-5 -25 -28 -28 -28 -4 0 12 6 21 16 21 9 0 14 -7 12 -17z m-258 -24
c0 -24 -23 -21 -28 4 -2 10 3 17 12 17 10 0 16 -9 16 -21z m-100 -19 c0 -11
-4 -20 -10 -20 -5 0 -10 2 -10 4 0 2 -3 11 -6 20 -4 11 -1 16 10 16 9 0 16 -8
16 -20z m350 -20 c0 -11 -6 -20 -14 -20 -9 0 -14 9 -13 20 1 11 7 20 14 20 7
0 13 -9 13 -20z m-286 -16 c4 -9 4 -19 2 -21 -8 -8 -26 8 -26 23 0 19 16 18
24 -2z m151 6 c4 -6 -5 -22 -19 -36 -25 -25 -46 -25 -46 0 0 13 36 44 52 45 4
1 10 -4 13 -9z m189 2 c2 -4 1 -14 -4 -22 -7 -11 -12 -12 -21 -3 -6 6 -8 16
-5 22 8 13 23 14 30 3z m-48 -43 c3 -6 -1 -18 -10 -27 -15 -15 -16 -14 -16 11
0 27 13 36 26 16z m-298 -82 c2 -10 -3 -17 -12 -17 -18 0 -29 16 -21 31 9 14
29 6 33 -14z m367 -7 c10 -16 -16 -43 -28 -31 -11 11 -2 41 12 41 5 0 13 -5
16 -10z m35 -10 c0 -11 -4 -20 -10 -20 -5 0 -10 9 -10 20 0 11 5 20 10 20 6 0
10 -9 10 -20z m-497 -55 c8 -18 -11 -31 -25 -17 -11 11 -3 32 12 32 4 0 10 -7
13 -15z m309 -30 c-12 -22 -27 -2 -18 22 5 12 10 13 17 6 7 -7 8 -17 1 -28z
m88 11 c0 -18 -26 -40 -34 -27 -9 14 4 41 20 41 8 0 14 -6 14 -14z m-360 -47
c0 -13 -38 -11 -46 2 -9 16 18 30 33 17 7 -6 13 -14 13 -19z m253 -45 c8 -8
-3 -34 -14 -34 -5 0 -9 9 -9 20 0 19 11 26 23 14z m75 -27 c-2 -18 2 -22 22
-22 21 0 25 -4 22 -24 -3 -34 -29 -60 -53 -54 -16 5 -19 14 -19 62 0 32 3 61
6 64 12 12 25 -4 22 -26z m86 -46 c3 -5 0 -14 -8 -20 -10 -9 -15 -8 -19 3 -9
22 15 37 27 17z m-144 -16 c0 -9 -12 -20 -27 -26 -16 -6 -36 -15 -45 -20 -25
-13 -38 -11 -38 5 0 21 -24 26 -54 11 -31 -16 -49 1 -22 21 24 17 86 16 86 -2
0 -18 14 -18 30 1 7 9 19 14 26 11 7 -3 16 -1 19 4 9 15 25 12 25 -5z m-60
-75 c0 -11 -7 -20 -15 -20 -15 0 -21 21 -8 33 12 13 23 7 23 -13z m116 9 c10
-17 -13 -36 -27 -22 -12 12 -4 33 11 33 5 0 12 -5 16 -11z m-66 -24 c0 -8 -7
-15 -15 -15 -16 0 -20 12 -8 23 11 12 23 8 23 -8z m-105 -40 c1 -17 4 -35 7
-40 3 -6 0 -19 -8 -30 -11 -14 -17 -16 -26 -7 -8 8 -8 15 1 26 8 10 9 16 1 21
-5 3 -10 20 -10 36 0 24 4 30 18 27 11 -2 17 -13 17 -33z m205 -80 c0 -8 -7
-15 -15 -15 -9 0 -12 6 -9 15 4 8 10 15 15 15 5 0 9 -7 9 -15z"/>
<path d="M1321 3264 c0 -11 3 -14 6 -6 3 7 2 16 -1 19 -3 4 -6 -2 -5 -13z"/>
</g>
</svg>
