<?xml version="1.0" standalone="no"?>
<!DOCTYPE svg PUBLIC "-//W3C//DTD SVG 20010904//EN"
 "http://www.w3.org/TR/2001/REC-SVG-20010904/DTD/svg10.dtd">
<svg version="1.0" xmlns="http://www.w3.org/2000/svg"
 width="480.000000pt" height="360.000000pt" viewBox="0 0 480.000000 360.000000"
 preserveAspectRatio="xMidYMid meet">
<metadata>
Created by potrace 1.16, written by Peter Selinger 2001-2019
</metadata>
<rect width="1" height="360" fill="#000000"/>
<rect x="479" width="1" height="360" fill="#000000"/>
<rect width="480" height="1" fill="#000000"/>
<rect y="359" width="480" height="1" fill="#000000"/>
<g transform="translate(0.000000,360.000000) scale(0.100000,-0.100000)"
fill="#000000" stroke="none">
<path d="M2020 3583 c0 -16 30 -130 59 -223 6 -19 21 -80 32 -135 18 -86 20
-121 15 -250 -7 -175 6 -268 54 -393 42 -109 40 -111 -132 -186 -43 -18 -85
-52 -165 -129 -60 -58 -141 -134 -182 -168 -117 -101 -127 -118 -166 -269 -44
-167 -65 -228 -126 -359 -27 -57 -49 -106 -49 -109 0 -3 7 -13 15 -22 13 -14
11 -22 -21 -71 -61 -92 -117 -129 -195 -129 -30 0 -45 -25 -29 -45 8 -10 6
-15 -9 -20 -35 -11 -38 -55 -4 -55 14 0 14 -2 -2 -20 -29 -32 -12 -54 34 -46
22 3 46 9 55 12 14 5 14 3 0 -26 -21 -42 -6 -60 31 -40 42 22 234 222 283 294
43 64 46 66 78 60 70 -13 79 0 115 156 19 85 46 168 121 379 l23 63 135 85
c80 50 155 105 184 136 27 29 69 73 94 100 48 51 121 90 200 108 45 11 52 10
81 -12 24 -18 31 -30 31 -56 0 -20 -4 -32 -10 -28 -5 3 -10 2 -10 -4 0 -5 5
-13 10 -16 21 -13 8 -24 -44 -39 -30 -9 -58 -21 -61 -26 -3 -5 -8 -49 -10 -97
-2 -48 -6 -98 -10 -110 -6 -18 -2 -22 24 -28 40 -9 39 -24 -3 -53 -65 -44
-216 -220 -216 -252 0 -9 -14 -29 -31 -46 -43 -41 -62 -81 -56 -120 4 -26 2
-33 -14 -37 -18 -5 -20 -11 -14 -69 5 -43 13 -68 26 -80 10 -9 19 -21 19 -26
0 -5 6 -15 13 -21 10 -8 49 11 166 80 121 72 155 88 166 79 20 -16 176 -3 237
20 l46 17 75 -43 c161 -93 304 -116 470 -73 45 11 87 24 92 28 6 5 21 11 35
14 14 4 44 22 66 41 53 45 70 101 84 271 17 199 39 269 111 356 22 26 39 49
39 53 0 11 -101 -34 -145 -64 -24 -16 -75 -59 -113 -94 -76 -69 -126 -101
-143 -90 -6 3 -32 38 -57 76 -26 39 -57 85 -69 104 -27 40 -27 41 53 159 89
131 214 334 235 380 27 59 25 75 -11 75 -24 0 -30 4 -30 20 0 17 -3 19 -17 11
-14 -7 -21 -5 -30 12 -7 12 -12 17 -13 10 0 -14 -31 -6 -42 10 -3 6 -26 -10
-51 -36 -25 -25 -48 -43 -50 -40 -3 2 -10 -5 -17 -16 -6 -12 -19 -21 -30 -21
-10 0 -25 -9 -33 -21 -10 -13 -23 -19 -39 -17 -20 3 -24 10 -32 70 -8 63 -6
71 22 132 17 35 48 91 69 123 92 137 161 277 187 380 14 56 26 114 26 130 0
15 12 60 26 98 13 39 33 100 44 138 l19 67 -220 0 c-120 0 -219 -4 -219 -8 0
-5 -6 -17 -14 -27 -13 -18 -14 -18 -10 10 l5 30 -15 -25 c-15 -25 -15 -25 -16
-2 l0 22 -515 0 c-484 0 -515 -1 -515 -17z m704 -75 c-3 -40 -11 -91 -17 -113
l-10 -40 -7 30 c-5 23 -8 11 -14 -50 -4 -44 -11 -98 -16 -120 -7 -34 -8 -28
-9 45 -1 47 -5 111 -7 143 -5 44 -2 64 11 85 26 41 65 92 71 92 2 0 1 -33 -2
-72z m-127 -175 c-3 -10 -5 -2 -5 17 0 19 2 27 5 18 2 -10 2 -26 0 -35z"/>
</g>
</svg>
