<?xml version="1.0" standalone="no"?>
<!DOCTYPE svg PUBLIC "-//W3C//DTD SVG 20010904//EN"
 "http://www.w3.org/TR/2001/REC-SVG-20010904/DTD/svg10.dtd">
<svg version="1.0" xmlns="http://www.w3.org/2000/svg"
 width="480.000000pt" height="360.000000pt" viewBox="0 0 480.000000 360.000000"
 preserveAspectRatio="xMidYMid meet">
<metadata>
Created by potrace 1.16, written by Peter Selinger 2001-2019
</metadata>
<rect width="1" height="360" fill="#000000"/>
<rect x="479" width="1" height="360" fill="#000000"/>
<rect width="480" height="1" fill="#000000"/>
<rect y="359" width="480" height="1" fill="#000000"/>
<g transform="translate(0.000000,360.000000) scale(0.100000,-0.100000)"
fill="#000000" stroke="none">
<path d="M0 1800 l0 -1800 586 0 585 0 -18 31 c-10 17 -29 39 -43 49 -24 17
-125 50 -200 65 -55 12 -112 41 -155 79 -43 38 -85 51 -215 62 -58 5 -81 12
-100 29 -14 13 -45 33 -69 45 -87 44 -90 67 -15 151 25 29 54 71 64 94 33 78
95 120 227 156 158 43 397 145 502 213 75 48 204 167 303 278 l60 68 -52 107
c-59 125 -59 112 -4 330 47 185 64 276 64 346 0 54 -2 58 -20 53 -11 -3 -29
-9 -40 -12 -20 -5 -28 10 -11 20 5 3 11 14 14 25 4 17 2 18 -20 10 -13 -5 -34
-9 -45 -9 -20 0 -21 1 -3 20 18 20 17 20 -19 20 -22 0 -35 4 -31 10 3 6 -3 10
-14 10 -24 0 -27 10 -9 28 9 9 6 12 -15 12 -31 0 -73 33 -62 49 9 15 -29 14
-91 -2 -58 -15 -124 -61 -124 -87 0 -60 -26 -125 -70 -172 -38 -42 -54 -52
-105 -64 -33 -7 -77 -14 -97 -14 -47 0 -71 -30 -62 -77 8 -43 -12 -100 -42
-120 -19 -12 -38 -14 -78 -9 l-53 6 1 -44 c1 -24 -2 -47 -6 -51 -4 -4 -25 6
-46 23 -35 28 -41 39 -55 109 -41 189 -46 303 -22 453 36 219 157 478 332 707
l64 84 -55 57 c-46 48 -89 100 -150 182 -20 26 47 -26 149 -117 l100 -89 45
33 c25 18 89 58 143 89 284 161 527 232 762 221 168 -8 372 -60 399 -102 33
-50 10 -109 -34 -85 -22 12 -40 6 -40 -14 0 -7 -9 -21 -20 -31 -11 -10 -20
-30 -20 -44 0 -60 -67 -121 -133 -121 -25 0 -113 -35 -120 -48 -3 -4 -7 -32
-11 -62 l-7 -55 48 -22 c26 -12 71 -42 99 -67 42 -37 56 -58 78 -120 25 -67
26 -79 16 -112 -7 -21 -29 -52 -49 -71 -39 -35 -57 -42 -47 -18 9 24 -9 17
-21 -7 -15 -30 -33 -110 -33 -145 -1 -24 -2 -25 -11 -10 -14 24 -28 21 -35 -7
-6 -25 -40 -41 -50 -24 -3 5 -17 7 -31 3 -15 -3 -22 -2 -19 4 4 5 2 12 -3 15
-5 3 -11 -6 -14 -20 -5 -30 15 -54 48 -54 16 0 29 -9 39 -27 8 -16 58 -71 111
-123 110 -108 121 -126 131 -201 5 -41 14 -62 37 -86 17 -18 38 -33 47 -33 22
0 153 -127 145 -140 -7 -11 32 -49 51 -50 27 -1 54 41 54 86 0 38 -6 51 -41
89 -61 66 -37 100 37 55 39 -25 74 -92 74 -144 0 -48 -36 -113 -72 -132 -35
-18 -79 -18 -104 1 -28 21 -42 18 -81 -15 -18 -16 -38 -30 -43 -30 -6 0 -10
-6 -10 -13 0 -12 -22 -26 -92 -59 -31 -14 -33 -28 -16 -95 9 -36 17 -48 39
-56 15 -6 30 -18 33 -26 3 -9 9 -22 12 -28 10 -22 -35 -14 -46 8 -7 11 -14 19
-16 16 -3 -2 2 -62 11 -133 8 -71 18 -230 21 -354 l6 -225 30 -26 c34 -29 33
-63 -3 -74 -18 -6 -20 -13 -15 -53 3 -26 9 -120 12 -210 l7 -162 1333 0 c734
0 1334 3 1334 6 0 3 -9 17 -20 31 -26 33 -26 77 0 103 19 19 20 33 20 440 0
361 -2 420 -15 420 -20 0 -65 22 -65 32 0 4 18 8 40 8 l40 0 0 1280 0 1280
-2400 0 -2400 0 0 -1800z m3014 1664 c23 -9 20 -29 -9 -48 -29 -19 -55 -20
-90 -4 -31 14 -31 22 -3 42 23 16 73 21 102 10z m139 -392 c21 -23 12 -34 -22
-26 -33 8 -45 19 -37 33 11 17 41 13 59 -7z m-1173 -196 c0 -15 -21 -26 -51
-26 -24 0 -25 16 -1 29 25 15 52 13 52 -3z m1104 -111 c-4 -8 -11 -15 -16 -15
-6 0 -5 6 2 15 7 8 14 15 16 15 2 0 1 -7 -2 -15z m-835 -61 c17 -4 31 -12 31
-19 0 -18 -55 -26 -88 -14 -26 10 -26 11 -8 25 23 16 23 16 65 8z m1195 -296
c24 -6 48 -20 55 -30 10 -16 7 -18 -26 -18 -35 0 -143 42 -143 55 0 9 68 5
114 -7z m-44 -508 c11 -7 6 -10 -22 -10 -20 0 -40 5 -43 10 -8 13 45 13 65 0z
m-3270 -70 c0 -9 -12 -13 -72 -25 -31 -6 -19 12 15 23 43 13 57 14 57 2z m943
-148 c33 -29 13 -102 -28 -102 -23 0 -37 39 -30 78 11 58 15 60 58 24z m3057
-153 c51 -22 72 -45 83 -90 6 -23 3 -28 -18 -33 -45 -11 -95 40 -120 122 -8
27 -6 27 55 1z m-1660 -171 c0 -11 -58 -10 -65 1 -3 5 5 17 17 26 21 14 24 14
35 -2 7 -9 13 -20 13 -25z m805 -218 c18 -35 6 -71 -31 -90 -32 -18 -58 3 -49
39 8 30 43 81 55 81 5 0 16 -13 25 -30z m741 -97 c39 -38 49 -44 63 -35 31 22
92 51 124 58 28 6 30 5 18 -9 -19 -24 -175 -100 -179 -88 -2 6 -26 27 -53 47
-29 21 -49 43 -49 55 0 31 27 22 76 -28z m-726 -190 c-8 -3 -22 -11 -30 -19
-11 -9 -34 -11 -78 -7 -71 7 -72 14 -4 24 58 8 132 9 112 2z m-830 -105 c0
-19 -18 -43 -25 -36 -4 3 -2 16 5 27 12 24 20 27 20 9z m-2160 -78 c13 -13 20
-33 20 -56 0 -31 -3 -35 -21 -32 -32 4 -59 47 -52 81 6 32 25 35 53 7z m3420
-121 c0 -12 -17 -11 -41 1 -30 17 -22 30 11 19 17 -6 30 -15 30 -20z m-3430
-16 c0 -57 -69 -92 -114 -58 -17 13 -17 17 -5 31 21 26 71 54 97 54 17 0 22
-6 22 -27z m81 -401 c14 -43 6 -51 -29 -25 -31 23 -49 56 -58 104 l-7 34 42
-39 c22 -22 46 -55 52 -74z"/>
<path d="M2027 1699 c-10 -28 -16 -53 -13 -56 12 -13 34 8 40 37 16 82 -1 94
-27 19z"/>
</g>
</svg>
