<?xml version="1.0" standalone="no"?>
<!DOCTYPE svg PUBLIC "-//W3C//DTD SVG 20010904//EN"
 "http://www.w3.org/TR/2001/REC-SVG-20010904/DTD/svg10.dtd">
<svg version="1.0" xmlns="http://www.w3.org/2000/svg"
 width="480.000000pt" height="360.000000pt" viewBox="0 0 480.000000 360.000000"
 preserveAspectRatio="xMidYMid meet">
<metadata>
Created by potrace 1.16, written by Peter Selinger 2001-2019
</metadata>
<rect width="1" height="360" fill="#000000"/>
<rect x="479" width="1" height="360" fill="#000000"/>
<rect width="480" height="1" fill="#000000"/>
<rect y="359" width="480" height="1" fill="#000000"/>
<g transform="translate(0.000000,360.000000) scale(0.100000,-0.100000)"
fill="#000000" stroke="none">
<path d="M1405 3217 c-146 -49 -275 -169 -356 -332 -35 -70 -42 -96 -48 -171
-9 -102 2 -154 51 -247 40 -74 147 -176 230 -216 61 -30 189 -55 234 -46 65
13 94 13 94 0 0 -7 -16 -19 -35 -25 -20 -7 -58 -27 -86 -46 -28 -19 -56 -34
-63 -34 -17 0 -113 -47 -120 -59 -4 -6 -2 -29 4 -51 10 -37 9 -44 -12 -68 -13
-16 -34 -51 -47 -80 -20 -42 -22 -54 -11 -67 17 -21 45 -19 61 5 14 21 15 20
69 -12 49 -30 55 -37 58 -71 2 -25 -3 -46 -17 -66 -15 -21 -19 -37 -14 -65 5
-31 9 -36 34 -36 32 0 28 11 55 -175 9 -60 19 -166 23 -233 5 -101 9 -126 24
-136 24 -18 24 -102 0 -129 -15 -15 -18 -38 -18 -114 0 -86 2 -96 23 -113 31
-26 32 -111 1 -131 -19 -13 -21 -24 -22 -113 0 -92 1 -100 22 -118 35 -28 41
-101 11 -133 -29 -31 -35 -127 -7 -133 14 -3 17 4 17 37 0 39 2 41 24 35 13
-3 27 -1 30 5 15 24 26 9 26 -34 0 -39 3 -45 21 -45 20 0 21 4 16 58 -5 42
-12 62 -28 75 -16 12 -23 32 -27 67 -4 43 -1 52 19 69 22 18 24 26 24 116 0
90 -2 98 -24 116 -18 14 -25 33 -29 67 -4 43 -2 50 22 65 25 17 26 22 26 100
0 99 -6 124 -31 132 -15 5 -19 16 -19 56 0 42 5 55 28 78 24 24 31 26 62 18
19 -5 104 -7 188 -4 114 4 150 2 145 -6 -4 -7 -22 -33 -41 -60 -45 -62 -81
-168 -92 -270 -11 -95 -13 -331 -3 -534 l6 -143 383 0 382 0 -13 28 c-7 15
-19 68 -26 118 -15 109 -5 177 41 269 41 85 138 221 145 204 2 -8 6 -54 7
-104 l3 -90 19 58 c19 55 29 67 40 48 10 -15 47 -204 41 -209 -3 -3 -1 -10 5
-17 10 -12 60 -248 60 -284 0 -21 1 -21 270 -21 l270 0 10 26 c15 38 12 124
-6 185 -20 67 -57 133 -142 252 -85 118 -87 133 -56 377 36 285 64 403 135
576 25 59 33 71 49 67 11 -3 22 -17 25 -33 11 -51 30 -56 67 -19 18 19 36 34
40 34 21 1 172 169 183 205 3 11 11 20 16 20 5 0 19 21 31 48 12 26 27 54 33
62 21 26 55 151 55 201 0 41 -4 51 -35 78 -88 77 -172 92 -268 48 -55 -25 -61
-26 -108 -14 -61 16 -69 7 131 142 80 54 160 110 179 126 l34 28 41 -24 c69
-39 96 -40 175 -6 40 17 94 33 121 37 90 12 86 49 -13 124 l-47 35 48 10 c26
6 53 15 60 19 22 13 12 36 -23 53 -19 9 -35 19 -34 22 0 3 70 68 155 145 85
76 154 143 154 148 0 29 -217 -73 -420 -197 -140 -86 -167 -102 -329 -195 -41
-23 -140 -70 -221 -104 l-147 -63 1 43 c1 28 -5 49 -18 62 -33 37 -115 41 -84
5 10 -13 6 -21 -25 -50 -26 -23 -44 -32 -57 -28 -12 4 -25 -2 -38 -15 l-19
-21 -47 21 c-86 36 -167 53 -231 46 -80 -8 -218 -37 -230 -48 -6 -6 1 -7 18
-3 41 11 33 -11 -10 -26 -20 -6 -46 -21 -57 -32 l-21 -19 23 7 c29 8 28 -6 -3
-35 -31 -29 -65 -118 -65 -168 1 -33 2 -35 14 -19 20 26 29 21 23 -12 -4 -19
-2 -31 6 -34 27 -10 -43 -26 -75 -16 -57 16 -61 13 -54 -31 3 -22 2 -40 -3
-40 -8 0 -81 75 -81 83 0 2 10 30 21 63 31 84 31 200 0 277 -51 130 -150 208
-289 229 -44 6 -72 15 -72 23 0 6 -8 19 -19 29 -12 11 -20 37 -24 74 -15 137
-75 247 -185 337 -91 75 -173 107 -287 111 -56 3 -105 -1 -130 -9z m260 -1047
c3 -5 2 -10 -4 -10 -5 0 -13 5 -16 10 -3 6 -2 10 4 10 5 0 13 -4 16 -10z m966
-17 c-8 -15 -10 -15 -11 -2 0 17 10 32 18 25 2 -3 -1 -13 -7 -23z m-838 -211
c10 -11 46 -33 80 -48 54 -25 74 -29 152 -29 87 0 94 2 179 43 l88 44 53 -36
c48 -31 54 -33 73 -20 27 19 38 1 14 -23 -19 -17 -28 -43 -39 -109 -4 -27 1
-35 46 -73 l50 -42 -43 -87 c-24 -48 -56 -116 -71 -152 -15 -36 -32 -71 -40
-78 -8 -9 -64 -16 -182 -23 -93 -5 -207 -16 -254 -24 -46 -8 -91 -15 -99 -15
-12 0 -22 33 -43 143 -32 170 -33 172 -7 190 21 14 20 15 -12 66 -24 39 -33
67 -36 112 -3 33 0 65 6 72 17 20 44 106 36 118 -10 17 28 -6 49 -29z m-423
-104 c0 -9 -50 -31 -57 -25 -2 3 4 18 14 36 16 28 19 29 31 14 6 -9 12 -21 12
-25z m249 -795 c2 -2 1 -6 -2 -9 -4 -4 -13 -1 -22 6 -12 10 -18 10 -30 0 -8
-7 -15 -8 -15 -2 0 5 -3 25 -6 43 l-7 34 39 -35 c21 -19 41 -36 43 -37z m11
-304 c0 -64 -9 -85 -26 -58 -3 6 -17 8 -30 5 -23 -6 -24 -5 -24 59 0 64 1 65
24 59 13 -3 27 -1 31 5 15 25 25 -4 25 -70z m0 -360 c0 -66 -1 -69 -19 -57
-15 9 -23 9 -34 0 -18 -16 -27 3 -27 58 0 53 9 73 25 60 10 -8 17 -7 27 3 22
24 28 10 28 -64z"/>
</g>
</svg>
