<?xml version="1.0" standalone="no"?>
<!DOCTYPE svg PUBLIC "-//W3C//DTD SVG 20010904//EN"
 "http://www.w3.org/TR/2001/REC-SVG-20010904/DTD/svg10.dtd">
<svg version="1.0" xmlns="http://www.w3.org/2000/svg"
 width="480.000000pt" height="360.000000pt" viewBox="0 0 480.000000 360.000000"
 preserveAspectRatio="xMidYMid meet">
<metadata>
Created by potrace 1.16, written by Peter Selinger 2001-2019
</metadata>
<rect width="1" height="360" fill="#000000"/>
<rect x="479" width="1" height="360" fill="#000000"/>
<rect width="480" height="1" fill="#000000"/>
<rect y="359" width="480" height="1" fill="#000000"/>
<g transform="translate(0.000000,360.000000) scale(0.100000,-0.100000)"
fill="#000000" stroke="none">
<path d="M2950 3569 c-49 -35 -197 -183 -230 -228 -24 -35 -10 -42 28 -15 30
21 28 12 -14 -46 -36 -51 -37 -64 -1 -32 19 16 20 16 14 -8 -4 -14 -9 -53 -12
-85 -6 -59 -6 -59 10 -32 21 37 29 34 21 -8 -4 -22 -3 -35 4 -35 5 0 10 -7 10
-16 0 -8 7 -22 15 -30 8 -9 15 -24 15 -35 0 -10 5 -19 10 -19 27 0 4 -24 -45
-45 -62 -28 -68 -44 -36 -96 15 -24 17 -36 8 -58 -6 -16 -7 -36 -2 -47 4 -10
9 -32 11 -49 7 -95 22 -159 39 -171 10 -8 41 -14 68 -14 52 0 53 0 32 -55 -7
-16 -6 -18 6 -7 18 17 30 15 23 -3 -4 -8 -2 -15 4 -15 5 0 15 7 22 15 23 28
30 15 30 -54 0 -67 -1 -69 -35 -96 -26 -19 -34 -32 -30 -46 5 -14 -9 -33 -54
-75 -34 -31 -80 -70 -104 -86 -50 -36 -62 -48 -161 -163 -42 -49 -76 -96 -75
-104 0 -11 2 -12 6 -3 9 24 22 1 13 -23 -5 -14 -6 -25 -1 -25 5 0 12 7 15 16
3 8 10 13 15 9 6 -3 14 3 20 12 28 49 5 -9 -49 -119 -77 -158 -94 -225 -85
-332 7 -87 9 -98 48 -251 14 -55 28 -128 32 -161 l7 -61 -34 -7 c-54 -10 -347
-8 -423 3 -124 18 -174 30 -214 51 -34 17 -42 27 -56 77 -14 47 -14 60 -4 80
11 20 10 28 -4 52 -26 44 -22 103 8 135 27 29 32 51 15 61 -8 5 -7 11 1 21 6
7 15 11 21 8 12 -8 54 21 56 38 1 7 4 24 7 38 5 18 -3 43 -24 84 -17 32 -31
70 -31 85 0 55 -51 91 -80 56 -9 -11 -33 -15 -87 -15 -181 0 -242 -83 -284
-390 -7 -47 -32 -152 -56 -235 -65 -225 -73 -271 -67 -399 7 -136 17 -184 59
-281 35 -81 45 -97 45 -74 1 10 4 10 14 -3 11 -15 9 -34 -15 -120 -15 -57 -31
-111 -34 -120 -7 -17 14 -18 359 -18 286 0 366 3 366 13 0 6 -4 28 -10 47 -14
50 -70 320 -70 336 0 28 78 37 174 19 87 -16 329 -71 352 -79 8 -3 4 -45 -13
-138 -13 -73 -27 -148 -30 -166 l-5 -32 607 0 606 0 -32 58 c-18 31 -80 131
-137 222 -95 150 -106 172 -118 241 -7 41 -24 100 -37 130 -34 78 -55 316 -37
415 21 115 23 117 75 110 l44 -7 -20 45 c-11 25 -22 74 -26 108 l-5 63 52 44
c53 45 80 90 80 136 0 14 5 25 10 25 6 0 10 -24 10 -52 0 -54 12 -89 24 -70 3
6 4 17 1 24 -3 8 3 26 14 39 18 21 22 22 31 9 16 -21 3 84 -21 179 -10 41 -19
85 -19 98 0 44 -41 187 -71 247 -37 75 -37 96 0 33 41 -71 55 -79 32 -19 -11
28 -19 52 -17 52 2 0 18 -22 36 -50 18 -27 34 -50 37 -50 3 0 3 15 1 34 -5 45
2 39 32 -23 24 -51 47 -70 35 -28 -6 18 -5 20 6 10 19 -18 29 -16 29 6 0 18 2
18 29 5 16 -8 43 -30 60 -49 17 -19 32 -35 34 -35 2 0 2 29 0 65 -3 63 -3 65
17 55 15 -8 20 -8 20 3 0 7 -5 18 -12 25 -7 7 -9 12 -5 12 3 0 23 -25 42 -56
34 -53 60 -71 35 -24 -15 29 -6 36 26 21 33 -15 39 -9 24 19 -9 17 -9 24 -1
30 8 4 0 24 -24 59 -20 29 -34 55 -32 57 3 3 28 -17 56 -45 28 -27 53 -45 56
-40 4 5 3 13 0 19 -7 12 -35 116 -35 132 0 7 5 6 15 -2 8 -7 15 -10 15 -8 0
11 -44 94 -77 146 -55 86 -55 118 5 297 64 192 70 250 43 421 -28 176 -63 254
-158 346 -37 36 -86 78 -107 92 l-39 26 -347 0 -347 0 -43 -31z m-123 -551
c-3 -7 -5 -2 -5 12 0 14 2 19 5 13 2 -7 2 -19 0 -25z m503 -678 c0 -5 -4 -10
-10 -10 -5 0 -10 5 -10 10 0 6 5 10 10 10 6 0 10 -4 10 -10z m45 -120 c3 -5 2
-10 -4 -10 -5 0 -13 5 -16 10 -3 6 -2 10 4 10 5 0 13 -4 16 -10z m-1933 -1872
c-7 -7 -12 -8 -12 -2 0 14 12 26 19 19 2 -3 -1 -11 -7 -17z"/>
</g>
</svg>
