<?xml version="1.0" standalone="no"?>
<!DOCTYPE svg PUBLIC "-//W3C//DTD SVG 20010904//EN"
 "http://www.w3.org/TR/2001/REC-SVG-20010904/DTD/svg10.dtd">
<svg version="1.0" xmlns="http://www.w3.org/2000/svg"
 width="480.000000pt" height="360.000000pt" viewBox="0 0 480.000000 360.000000"
 preserveAspectRatio="xMidYMid meet">
<metadata>
Created by potrace 1.16, written by Peter Selinger 2001-2019
</metadata>
<rect width="1" height="360" fill="#000000"/>
<rect x="479" width="1" height="360" fill="#000000"/>
<rect width="480" height="1" fill="#000000"/>
<rect y="359" width="480" height="1" fill="#000000"/>
<g transform="translate(0.000000,360.000000) scale(0.100000,-0.100000)"
fill="#000000" stroke="none">
<path d="M0 1800 l0 -1800 1055 0 c580 0 1055 3 1055 7 0 30 45 284 62 346 11
43 19 79 17 80 -2 1 -23 17 -46 35 -23 17 -45 32 -50 32 -4 0 -29 -29 -56 -64
-73 -97 -180 -196 -212 -196 -31 0 -85 49 -85 77 1 47 61 144 168 271 l53 63
-34 48 c-19 26 -40 64 -48 84 -11 32 -11 41 5 69 45 84 54 106 60 146 l6 42
-319 323 c-176 177 -323 325 -327 330 -4 4 17 32 47 63 39 39 59 53 73 50 12
-3 37 8 67 30 30 21 53 32 64 28 9 -4 37 5 66 20 27 15 54 24 59 21 6 -4 35 3
65 14 30 11 61 18 69 15 8 -3 31 0 53 6 64 18 288 22 388 7 50 -8 93 -11 98
-7 4 3 2 30 -4 59 l-11 53 -91 44 c-65 31 -99 43 -117 39 -24 -5 -28 -1 -49
49 -18 43 -29 57 -54 66 l-32 12 23 15 c26 18 27 31 8 67 -14 28 -4 119 16
144 21 25 0 21 -38 -8 -42 -31 -81 -39 -90 -16 -11 29 36 130 83 178 55 56 88
73 180 94 37 9 77 19 89 24 28 11 46 74 34 125 -5 22 -10 53 -10 69 0 40 -45
86 -82 86 -18 0 -40 -11 -60 -30 -94 -90 -286 40 -374 253 -18 45 -34 69 -48
73 -56 17 -128 130 -142 221 l-6 43 -789 0 -789 0 0 -1800z"/>
<path d="M4748 3553 c14 -26 32 -75 38 -108 l12 -60 1 108 1 107 -39 0 -40 0
27 -47z"/>
<path d="M1630 3584 c0 -19 24 -84 32 -84 12 0 10 13 -7 54 -14 33 -25 46 -25
30z"/>
<path d="M1760 3486 c0 -23 101 -115 157 -142 54 -27 133 -43 133 -28 -1 11
-59 52 -180 126 -101 62 -110 66 -110 44z"/>
<path d="M1802 3308 c15 -44 64 -134 94 -174 33 -42 92 -82 147 -99 45 -13 47
-13 89 15 24 17 53 30 65 30 12 0 24 4 28 9 7 13 -56 119 -90 151 -22 21 -29
22 -45 12 -52 -32 -166 -4 -257 64 -41 31 -44 30 -31 -8z"/>
<path d="M4761 2938 c-19 -79 -38 -165 -44 -191 l-10 -49 47 -46 46 -47 0 238
c0 130 -1 237 -3 237 -1 0 -18 -64 -36 -142z"/>
<path d="M2315 2953 c3 -10 9 -30 12 -45 3 -16 7 -28 9 -28 6 0 55 52 52 55
-7 6 -68 35 -74 35 -3 0 -3 -8 1 -17z"/>
<path d="M2167 2689 c-38 -11 -86 -28 -107 -39 -38 -19 -82 -66 -86 -93 -1 -6
-5 -20 -9 -29 -10 -26 -1 -23 65 22 33 23 97 58 142 80 76 37 97 53 98 73 0
11 -29 7 -103 -14z"/>
<path d="M2177 2592 c-92 -53 -96 -58 -48 -66 34 -5 48 -2 81 20 22 15 40 32
40 40 0 7 3 19 6 28 9 23 -4 20 -79 -22z"/>
<path d="M3347 2218 c-2 -7 2 -26 8 -43 7 -16 22 -78 35 -138 28 -129 26 -128
176 -104 56 10 111 17 123 17 11 0 21 4 21 9 0 17 -183 173 -259 223 -80 50
-97 56 -104 36z"/>
<path d="M3595 1894 c-33 -7 -86 -13 -118 -14 -51 0 -58 -2 -53 -17 8 -27 33
-205 46 -323 18 -178 99 -648 136 -795 19 -77 56 -212 81 -300 72 -253 103
-377 103 -412 l0 -33 505 0 505 0 0 490 0 490 -35 51 c-32 47 -75 160 -75 198
0 11 -22 27 -65 46 -36 16 -71 35 -77 42 -13 16 -49 16 -156 1 -73 -11 -92
-10 -149 5 -189 49 -325 200 -369 408 -16 74 -21 83 -70 129 -49 46 -56 50
-101 49 -26 -1 -75 -7 -108 -15z"/>
<path d="M3900 1771 c0 -5 9 -40 21 -77 43 -140 126 -240 247 -297 61 -29 75
-32 162 -31 142 0 143 1 72 81 -33 38 -75 95 -94 127 -28 50 -43 65 -96 94
-63 34 -269 112 -298 112 -7 0 -14 -4 -14 -9z"/>
<path d="M4738 1235 c-8 -8 16 -84 41 -131 l20 -39 1 83 c0 64 -3 82 -14 82
-8 0 -21 2 -28 5 -8 3 -17 3 -20 0z"/>
<path d="M3645 131 c3 -18 5 -55 5 -82 0 -37 4 -49 15 -49 18 0 19 -2 -5 90
-11 41 -17 60 -15 41z"/>
</g>
</svg>
