<?xml version="1.0" standalone="no"?>
<!DOCTYPE svg PUBLIC "-//W3C//DTD SVG 20010904//EN"
 "http://www.w3.org/TR/2001/REC-SVG-20010904/DTD/svg10.dtd">
<svg version="1.0" xmlns="http://www.w3.org/2000/svg"
 width="480.000000pt" height="360.000000pt" viewBox="0 0 480.000000 360.000000"
 preserveAspectRatio="xMidYMid meet">
<metadata>
Created by potrace 1.16, written by Peter Selinger 2001-2019
</metadata>
<rect width="1" height="360" fill="#000000"/>
<rect x="479" width="1" height="360" fill="#000000"/>
<rect width="480" height="1" fill="#000000"/>
<rect y="359" width="480" height="1" fill="#000000"/>
<g transform="translate(0.000000,360.000000) scale(0.100000,-0.100000)"
fill="#000000" stroke="none">
<path d="M1605 3423 c0 -197 -19 -333 -61 -435 -13 -32 -24 -62 -24 -68 0 -22
-92 -198 -134 -259 -117 -166 -295 -330 -434 -400 -33 -17 -63 -35 -67 -41 -3
-5 -38 -19 -78 -31 -40 -12 -76 -25 -82 -29 -23 -18 -192 -52 -302 -61 -138
-11 -314 0 -406 27 -16 5 -17 -50 -17 -1060 l0 -1066 1399 0 1398 0 7 132 c10
183 19 236 81 449 30 102 63 239 75 305 12 65 40 209 62 319 22 110 40 207 39
215 -12 214 -16 240 -39 256 -87 61 -85 146 8 263 16 20 36 61 44 91 9 30 30
75 46 99 17 25 28 51 25 58 -3 7 -8 19 -11 27 -3 9 3 17 15 21 36 11 23 26
-16 20 -37 -6 -39 -5 -72 50 -18 30 -37 55 -42 55 -14 0 -10 22 8 42 19 22 15
28 -28 37 -23 5 -37 16 -53 46 -11 22 -24 41 -27 43 -12 6 2 66 27 116 l26 51
-36 60 c-44 76 -51 108 -25 131 19 17 25 16 157 -15 75 -18 153 -41 174 -52
20 -10 48 -19 60 -19 42 -1 108 -38 161 -92 58 -59 86 -124 112 -259 8 -43 28
-101 45 -133 39 -70 47 -96 65 -214 9 -62 22 -108 40 -137 14 -25 41 -81 60
-125 30 -69 36 -99 45 -206 9 -120 11 -127 49 -191 57 -94 83 -177 80 -260 -1
-37 1 -98 6 -136 6 -58 5 -67 -9 -67 -11 0 -16 -9 -16 -30 0 -45 -17 -36 -37
20 -10 28 -23 50 -30 50 -7 0 -13 5 -13 10 0 6 -5 10 -11 10 -8 0 -10 -12 -6
-35 5 -33 5 -35 -16 -24 -12 6 -30 19 -41 28 -10 9 -21 15 -24 13 -3 -2 -15
21 -26 51 -48 125 -90 216 -96 206 -4 -6 -10 11 -13 38 -3 26 -26 86 -49 133
-24 47 -56 126 -73 175 -16 50 -31 91 -32 93 0 2 -13 -4 -27 -13 -21 -14 -23
-20 -13 -35 9 -16 7 -23 -10 -42 -17 -19 -19 -28 -11 -48 6 -14 11 -59 12
-100 1 -76 1 -76 67 -175 76 -115 93 -153 144 -325 67 -220 128 -361 288 -656
24 -45 68 -136 97 -203 l53 -121 363 0 364 0 0 1800 0 1800 -1598 0 -1598 0 1
-177z"/>
</g>
</svg>
