<?xml version="1.0" standalone="no"?>
<!DOCTYPE svg PUBLIC "-//W3C//DTD SVG 20010904//EN"
 "http://www.w3.org/TR/2001/REC-SVG-20010904/DTD/svg10.dtd">
<svg version="1.0" xmlns="http://www.w3.org/2000/svg"
 width="480.000000pt" height="360.000000pt" viewBox="0 0 480.000000 360.000000"
 preserveAspectRatio="xMidYMid meet">
<metadata>
Created by potrace 1.16, written by Peter Selinger 2001-2019
</metadata>
<rect width="1" height="360" fill="#000000"/>
<rect x="479" width="1" height="360" fill="#000000"/>
<rect width="480" height="1" fill="#000000"/>
<rect y="359" width="480" height="1" fill="#000000"/>
<g transform="translate(0.000000,360.000000) scale(0.100000,-0.100000)"
fill="#000000" stroke="none">
<path d="M0 1800 l0 -1800 1070 0 c1012 0 1070 1 1070 18 0 9 5 51 10 92 9 68
50 524 50 555 0 7 -16 22 -36 34 -19 12 -32 26 -29 32 4 6 -1 17 -11 24 -12 9
-15 18 -9 22 6 5 10 13 10 18 0 6 12 35 27 65 23 47 30 85 49 263 l22 208 -28
104 c-15 59 -25 118 -23 137 9 60 30 132 54 186 13 28 19 52 14 52 -20 0 -9
47 15 68 21 18 25 31 25 75 0 45 -4 57 -27 79 -16 14 -36 28 -46 31 -13 5 -16
13 -12 26 6 20 -16 36 -32 20 -5 -5 -26 8 -52 31 -24 22 -47 37 -52 34 -12 -7
-11 132 1 177 14 48 73 115 143 160 128 83 235 73 339 -31 31 -32 65 -75 76
-96 29 -57 70 -206 92 -330 10 -60 30 -161 45 -224 14 -63 30 -160 36 -215 5
-55 17 -154 25 -220 8 -66 16 -246 19 -400 11 -587 11 -593 75 -863 l32 -132
929 0 929 0 0 1069 0 1068 -57 18 c-159 49 -335 155 -470 281 -224 208 -345
429 -404 734 -19 101 -21 135 -16 273 l6 157 -1929 0 -1930 0 0 -1800z"/>
<path d="M2372 1985 c0 -16 2 -22 5 -12 2 9 2 23 0 30 -3 6 -5 -1 -5 -18z"/>
</g>
</svg>
