<?xml version="1.0" standalone="no"?>
<!DOCTYPE svg PUBLIC "-//W3C//DTD SVG 20010904//EN"
 "http://www.w3.org/TR/2001/REC-SVG-20010904/DTD/svg10.dtd">
<svg version="1.0" xmlns="http://www.w3.org/2000/svg"
 width="480.000000pt" height="360.000000pt" viewBox="0 0 480.000000 360.000000"
 preserveAspectRatio="xMidYMid meet">
<metadata>
Created by potrace 1.16, written by Peter Selinger 2001-2019
</metadata>
<rect width="1" height="360" fill="#000000"/>
<rect x="479" width="1" height="360" fill="#000000"/>
<rect width="480" height="1" fill="#000000"/>
<rect y="359" width="480" height="1" fill="#000000"/>
<g transform="translate(0.000000,360.000000) scale(0.100000,-0.100000)"
fill="#000000" stroke="none">
<path d="M1430 1800 l0 -1800 1685 0 1685 0 0 645 c0 631 0 645 -19 645 -17 0
-19 -7 -18 -58 1 -51 -2 -62 -25 -85 -15 -15 -32 -27 -38 -27 -5 0 -10 -7 -10
-15 0 -22 -10 -19 -43 13 -25 24 -29 25 -38 10 -6 -10 -20 -15 -39 -14 -20 1
-30 -2 -30 -12 0 -9 -6 -12 -15 -8 -9 3 -18 -1 -21 -9 -8 -21 -27 -19 -42 5
-7 11 -19 20 -28 20 -8 0 -12 -4 -9 -10 3 -5 4 -10 1 -10 -2 0 -15 17 -27 38
-13 20 -30 44 -40 52 -18 17 -114 66 -261 134 -84 39 -124 66 -184 124 -18 17
-22 16 -48 -14 -16 -19 -39 -30 -82 -39 -45 -9 -60 -16 -62 -31 -12 -74 -46
-100 -78 -59 -16 21 -26 25 -47 20 -21 -6 -28 -2 -41 24 -9 16 -16 46 -16 65
0 31 -7 40 -62 82 -46 35 -84 54 -141 70 -43 12 -79 24 -81 25 -48 66 -56 88
-41 123 6 13 5 17 -3 12 -6 -4 -22 0 -36 9 -13 9 -122 49 -241 90 -119 41
-223 79 -231 86 -23 19 -16 -1 19 -55 30 -47 66 -161 67 -214 0 -42 -33 -22
-49 28 -34 112 -46 134 -99 191 -70 76 -102 94 -125 72 -15 -15 -18 -15 -37 2
-20 18 -20 18 -20 -3 0 -36 -14 -25 -40 32 -21 46 -33 58 -77 80 -52 25 -75
55 -93 117 -13 43 6 51 70 27 30 -11 73 -25 95 -30 42 -11 58 -17 116 -48 47
-25 352 -141 506 -193 l122 -42 24 23 c13 12 28 22 34 22 5 0 40 30 77 68 72
72 86 105 88 195 1 42 7 60 32 92 17 22 34 43 39 46 5 4 -3 25 -17 48 -17 27
-27 58 -29 91 -2 28 -9 56 -15 62 -7 7 -12 18 -12 25 0 7 -22 52 -50 100 -49
86 -59 123 -40 153 8 12 13 13 30 2 16 -10 20 -10 20 0 0 7 7 21 15 32 12 15
22 17 61 11 l47 -7 -6 -64 c-6 -64 -6 -64 25 -80 31 -16 51 -15 125 7 57 17
104 2 170 -56 42 -37 55 -57 72 -108 20 -63 46 -227 39 -248 -8 -23 -45 31
-63 89 -28 89 -44 102 -70 53 -14 -29 -13 -33 30 -122 45 -93 52 -122 36 -148
-13 -20 -29 -5 -55 52 -13 29 -36 63 -51 77 l-28 25 7 -54 c7 -56 42 -210 49
-217 2 -2 10 7 17 21 7 14 21 25 31 25 20 0 31 -32 50 -135 10 -57 15 -65 103
-157 105 -109 73 -97 311 -118 152 -14 228 -34 321 -84 64 -36 78 -48 76 -65
-2 -13 2 -21 11 -21 10 0 13 -7 10 -18 -8 -31 29 -102 57 -109 l25 -7 -25 -6
c-24 -7 -24 -7 10 -18 19 -5 29 -11 21 -11 -11 -1 -10 -5 5 -16 10 -8 22 -15
27 -15 4 0 7 518 7 1150 l0 1150 -1685 0 -1685 0 0 -1800z"/>
<path d="M0 1830 c0 -345 2 -420 13 -420 29 0 129 40 170 69 241 166 248 515
13 692 -41 32 -154 79 -186 79 -6 0 -10 -153 -10 -420z"/>
<path d="M3460 1982 c-14 -25 -45 -61 -69 -80 -41 -31 -42 -33 -15 -27 60 13
120 38 136 56 13 16 15 26 7 49 -19 52 -32 53 -59 2z"/>
<path d="M3820 1783 c0 -4 5 -15 10 -23 8 -13 10 -13 10 2 0 9 -4 20 -10 23
-5 3 -10 3 -10 -2z"/>
</g>
</svg>
