<?xml version="1.0" standalone="no"?>
<!DOCTYPE svg PUBLIC "-//W3C//DTD SVG 20010904//EN"
 "http://www.w3.org/TR/2001/REC-SVG-20010904/DTD/svg10.dtd">
<svg version="1.0" xmlns="http://www.w3.org/2000/svg"
 width="480.000000pt" height="360.000000pt" viewBox="0 0 480.000000 360.000000"
 preserveAspectRatio="xMidYMid meet">
<metadata>
Created by potrace 1.16, written by Peter Selinger 2001-2019
</metadata>
<rect width="1" height="360" fill="#000000"/>
<rect x="479" width="1" height="360" fill="#000000"/>
<rect width="480" height="1" fill="#000000"/>
<rect y="359" width="480" height="1" fill="#000000"/>
<g transform="translate(0.000000,360.000000) scale(0.100000,-0.100000)"
fill="#000000" stroke="none">
<path d="M0 2600 l0 -1000 143 0 c162 0 376 22 457 46 30 9 87 33 125 54 167
91 394 133 725 134 244 1 391 -15 665 -70 258 -52 486 -115 763 -211 73 -25
134 -44 137 -41 10 10 37 229 48 402 12 183 12 190 -7 207 -42 40 -56 73 -56
136 0 62 29 162 72 246 l19 38 -22 47 c-46 93 -23 177 71 266 49 46 52 52 47
87 -3 26 0 42 9 50 8 6 14 24 14 38 0 28 29 79 30 52 0 -8 2 -12 5 -9 4 3 8
73 11 155 l6 150 -81 7 c-99 8 -149 24 -169 54 -14 21 -13 23 34 43 26 12 88
31 136 43 84 20 88 22 88 48 l0 28 -1635 0 -1635 0 0 -1000z"/>
<path d="M4775 3574 c16 -24 16 -26 -2 -40 -58 -46 -141 -72 -181 -57 -17 6
-43 3 -87 -12 -36 -12 -105 -28 -154 -35 l-89 -13 3 -41 c2 -22 4 -47 4 -54 1
-7 6 -10 11 -7 6 4 8 10 6 14 -3 4 -1 13 4 20 6 11 15 8 42 -13 19 -14 42 -26
51 -26 26 0 50 -57 43 -101 -9 -55 -81 -247 -101 -269 -16 -17 -20 -18 -38 -5
-27 19 -33 19 -40 1 -4 -10 9 -20 45 -33 136 -49 209 -185 162 -302 l-16 -40
37 -53 c19 -29 51 -75 70 -101 61 -86 69 -148 27 -220 l-27 -48 48 -146 c76
-232 91 -299 92 -393 0 -119 -11 -134 -172 -245 -72 -49 -152 -108 -178 -130
l-47 -40 37 -85 c49 -115 164 -342 216 -426 67 -110 228 -346 255 -373 2 -2 4
739 4 1647 l0 1652 -21 0 c-21 0 -21 -1 -4 -26z"/>
<path d="M4101 2003 c-18 -65 -41 -214 -41 -257 1 -78 49 -226 74 -226 9 0
171 121 200 150 4 4 -8 43 -27 87 -19 43 -52 118 -73 166 -37 88 -41 93 -101
111 -19 6 -23 2 -32 -31z"/>
<path d="M3351 1945 c-1 -6 -7 -62 -15 -125 -8 -63 -17 -160 -20 -215 l-5
-100 23 45 c37 70 49 148 41 257 -7 83 -22 169 -24 138z"/>
<path d="M1206 1629 c-218 -20 -353 -63 -480 -153 -105 -74 -178 -104 -301
-124 l-50 -8 1 -159 c1 -127 8 -201 33 -360 45 -282 108 -624 135 -730 l22
-90 1177 -3 1177 -2 0 37 c0 68 27 193 120 558 50 198 93 367 96 377 4 12 -4
18 -28 23 -84 19 -180 97 -208 169 -11 31 -1 80 27 123 17 26 17 26 -95 64
-643 221 -1196 315 -1626 278z"/>
<path d="M0 72 l0 -72 31 0 c26 0 30 3 24 18 -4 9 -16 40 -27 67 -11 28 -22
52 -24 54 -2 2 -4 -28 -4 -67z"/>
</g>
</svg>
