<?xml version="1.0" standalone="no"?>
<!DOCTYPE svg PUBLIC "-//W3C//DTD SVG 20010904//EN"
 "http://www.w3.org/TR/2001/REC-SVG-20010904/DTD/svg10.dtd">
<svg version="1.0" xmlns="http://www.w3.org/2000/svg"
 width="480.000000pt" height="360.000000pt" viewBox="0 0 480.000000 360.000000"
 preserveAspectRatio="xMidYMid meet">
<metadata>
Created by potrace 1.16, written by Peter Selinger 2001-2019
</metadata>
<rect width="1" height="360" fill="#000000"/>
<rect x="479" width="1" height="360" fill="#000000"/>
<rect width="480" height="1" fill="#000000"/>
<rect y="359" width="480" height="1" fill="#000000"/>
<g transform="translate(0.000000,360.000000) scale(0.100000,-0.100000)"
fill="#000000" stroke="none">
<path d="M358 3523 c-3 -43 1 -121 9 -173 7 -52 18 -164 23 -248 6 -85 15
-172 20 -195 12 -52 3 -60 -81 -76 -69 -14 -91 -41 -71 -86 6 -13 14 -54 18
-89 7 -65 21 -102 30 -79 3 7 11 10 18 7 8 -3 12 5 11 23 -2 60 26 123 56 123
3 0 0 -25 -7 -57 -15 -66 -16 -64 71 -169 61 -73 64 -79 43 -82 -13 -2 -28 -8
-33 -12 -6 -5 -29 -13 -50 -19 -146 -36 -215 -71 -245 -123 -19 -35 -7 -47 56
-59 36 -7 55 -17 76 -43 20 -24 39 -36 68 -41 33 -6 43 -14 66 -53 35 -59 78
-99 131 -122 53 -24 92 -14 142 33 52 50 82 67 113 67 16 0 28 4 28 9 0 11
-25 17 -103 27 -66 7 -75 18 -61 71 8 33 15 37 99 68 82 31 135 68 135 95 0
17 -52 70 -70 70 -10 0 -23 6 -29 14 -10 12 3 31 68 102 70 76 83 96 105 164
27 80 37 220 16 220 -5 0 -10 7 -10 15 0 22 -18 18 -25 -5 -7 -23 -25 -27 -25
-6 0 8 -4 17 -9 20 -16 10 -36 -4 -60 -43 -27 -43 -70 -77 -56 -44 36 88 8 61
-61 -59 -43 -74 -54 -87 -54 -65 0 44 -15 31 -34 -29 -10 -31 -19 -54 -22 -52
-7 7 45 209 66 256 18 40 19 48 6 60 -35 35 60 193 210 352 115 121 149 171
150 220 1 19 4 44 8 56 7 19 3 22 -31 27 -21 4 -187 7 -369 7 l-332 0 -4 -77z"/>
<path d="M2450 1800 l0 -1800 803 0 804 0 17 80 c9 43 21 114 26 158 10 93 15
117 41 198 15 48 17 67 9 89 -7 19 -14 24 -23 18 -26 -20 -140 -63 -167 -63
-35 0 -42 17 -40 102 1 109 2 107 -24 76 -12 -16 -25 -28 -28 -28 -3 0 1 26 9
58 8 31 16 71 18 87 7 72 28 182 40 210 7 17 38 61 69 99 62 75 119 177 114
205 -3 17 18 44 90 117 17 18 32 37 32 43 0 31 99 66 115 41 4 -6 21 -8 40 -4
21 4 44 0 65 -11 28 -15 31 -20 26 -49 -4 -22 0 -44 14 -71 11 -22 20 -51 20
-66 0 -28 -27 -59 -52 -59 -8 0 -29 -18 -47 -40 -18 -22 -41 -40 -51 -40 -32
0 -23 -23 21 -57 42 -32 109 -126 109 -152 0 -8 14 -36 31 -63 26 -40 35 -47
53 -42 38 11 77 74 45 74 -6 0 -9 6 -6 14 3 7 0 19 -6 25 -8 8 -8 11 2 11 7 0
9 5 5 11 -5 9 1 10 20 5 17 -4 25 -3 22 3 -4 5 -2 12 2 15 11 6 32 -60 32
-100 0 -16 7 -47 15 -69 21 -58 18 -119 -6 -168 -46 -91 -136 -167 -197 -167
l-35 0 6 -45 c4 -25 29 -111 56 -192 28 -82 55 -172 61 -200 l12 -53 94 0 94
0 0 1800 0 1800 -1175 0 -1175 0 0 -1800z"/>
<path d="M4274 904 c-3 -10 -11 -32 -17 -48 -15 -41 -15 -96 0 -96 8 0 13 14
13 38 0 20 5 54 11 75 11 39 5 66 -7 31z"/>
</g>
</svg>
