<?xml version="1.0" standalone="no"?>
<!DOCTYPE svg PUBLIC "-//W3C//DTD SVG 20010904//EN"
 "http://www.w3.org/TR/2001/REC-SVG-20010904/DTD/svg10.dtd">
<svg version="1.0" xmlns="http://www.w3.org/2000/svg"
 width="480.000000pt" height="360.000000pt" viewBox="0 0 480.000000 360.000000"
 preserveAspectRatio="xMidYMid meet">
<metadata>
Created by potrace 1.16, written by Peter Selinger 2001-2019
</metadata>
<rect width="1" height="360" fill="#000000"/>
<rect x="479" width="1" height="360" fill="#000000"/>
<rect width="480" height="1" fill="#000000"/>
<rect y="359" width="480" height="1" fill="#000000"/>
<g transform="translate(0.000000,360.000000) scale(0.100000,-0.100000)"
fill="#000000" stroke="none">
<path d="M0 2954 l0 -647 38 7 c20 4 118 9 217 13 285 9 578 -21 890 -93 83
-19 159 -37 169 -40 18 -6 19 -2 13 57 -4 34 -9 64 -10 66 -2 2 -22 -3 -44
-11 -56 -20 -153 -31 -153 -18 0 6 -10 12 -22 14 -68 9 9 163 145 291 l40 38
-17 175 c-21 207 -17 231 50 317 50 63 195 177 224 177 11 0 24 9 30 20 6 11
56 42 113 70 124 62 240 89 303 72 38 -11 152 -76 253 -144 l44 -29 46 19
c102 43 244 82 302 82 51 0 61 -3 75 -25 26 -40 -16 -117 -129 -232 l-92 -95
75 -70 c41 -39 90 -82 108 -96 18 -13 30 -27 28 -30 -3 -3 -13 1 -23 9 -15 12
-16 12 -10 -4 5 -14 2 -16 -19 -11 l-26 7 19 -39 c17 -36 24 -107 11 -120 -3
-3 -9 8 -13 23 -7 26 -8 25 -19 -22 -9 -38 -16 -49 -29 -47 -9 2 -17 -3 -17
-9 0 -7 -11 -27 -25 -45 -14 -18 -25 -37 -25 -42 0 -10 45 -51 90 -82 l22 -16
-34 -45 c-28 -36 -34 -51 -30 -81 3 -28 0 -39 -15 -49 -13 -8 -18 -19 -15 -35
2 -13 -1 -30 -7 -38 -7 -8 -19 -38 -29 -67 -12 -39 -24 -57 -44 -67 -20 -9
-29 -22 -33 -47 -3 -19 -8 -52 -11 -72 -8 -53 -29 -89 -64 -110 -16 -9 -30
-20 -30 -23 0 -3 60 -35 133 -72 73 -36 191 -98 261 -137 71 -39 132 -71 136
-71 4 0 13 7 20 15 22 26 59 17 107 -25 25 -22 52 -40 59 -40 8 0 31 -15 51
-34 21 -18 50 -36 64 -39 14 -4 43 -20 64 -37 21 -16 43 -30 50 -30 7 0 25
-10 40 -21 22 -18 26 -27 21 -54 -6 -31 -4 -34 121 -125 71 -52 165 -125 210
-162 76 -64 84 -69 116 -63 43 8 73 -6 81 -40 5 -20 12 -25 40 -25 35 0 66
-25 66 -52 0 -9 17 -25 38 -35 25 -12 38 -26 40 -43 2 -14 13 -35 24 -47 13
-14 19 -32 16 -52 -2 -26 10 -45 82 -128 100 -115 280 -354 330 -436 l34 -57
138 0 138 0 0 1800 0 1800 -2400 0 -2400 0 0 -646z"/>
<path d="M187 2069 c-53 -4 -117 -10 -142 -13 l-45 -7 0 -1025 0 -1024 919 0
920 0 7 46 c7 51 0 180 -22 389 -23 216 -40 301 -65 327 -39 42 -51 67 -45 92
3 14 1 28 -5 32 -9 5 -10 48 -6 157 7 141 -2 227 -23 227 -4 0 -11 -21 -17
-47 l-10 -48 -2 38 c-1 36 -20 53 -22 20 -1 -10 -5 -2 -10 17 -5 19 -8 89 -7
154 l2 119 -64 14 c-87 17 -173 61 -243 123 -72 65 -102 117 -118 203 -7 38
-17 74 -23 81 -23 27 -398 97 -626 116 -175 14 -241 16 -353 9z"/>
<path d="M2620 1334 c0 -3 14 -25 31 -50 16 -24 37 -61 45 -82 l15 -37 -30 35
c-17 19 -31 32 -31 29 -1 -19 62 -139 70 -134 11 7 13 66 3 143 -5 49 -9 55
-48 77 -42 25 -55 30 -55 19z"/>
<path d="M2630 1260 c6 -11 13 -20 16 -20 2 0 0 9 -6 20 -6 11 -13 20 -16 20
-2 0 0 -9 6 -20z"/>
<path d="M3186 929 l-38 -51 56 -57 c31 -31 56 -60 56 -64 0 -14 -71 -101
-106 -130 -19 -16 -34 -33 -34 -39 0 -14 214 -4 314 14 67 13 71 15 97 58 15
25 28 50 28 55 1 10 -45 48 -214 174 -55 40 -105 78 -111 82 -6 5 -25 -11 -48
-42z"/>
<path d="M3879 394 c-8 -10 -39 -37 -69 -60 -53 -43 -55 -45 -72 -124 -20 -95
-35 -127 -68 -151 -23 -18 -29 -18 -84 -3 -32 8 -110 35 -173 60 -142 54 -259
79 -478 98 -135 13 -172 13 -181 3 -39 -41 -124 -173 -124 -193 l0 -24 805 0
806 0 -43 57 c-63 85 -220 272 -265 316 -37 35 -41 37 -54 21z"/>
</g>
</svg>
