<?xml version="1.0" standalone="no"?>
<!DOCTYPE svg PUBLIC "-//W3C//DTD SVG 20010904//EN"
 "http://www.w3.org/TR/2001/REC-SVG-20010904/DTD/svg10.dtd">
<svg version="1.0" xmlns="http://www.w3.org/2000/svg"
 width="480.000000pt" height="360.000000pt" viewBox="0 0 480.000000 360.000000"
 preserveAspectRatio="xMidYMid meet">
<metadata>
Created by potrace 1.16, written by Peter Selinger 2001-2019
</metadata>
<rect width="1" height="360" fill="#000000"/>
<rect x="479" width="1" height="360" fill="#000000"/>
<rect width="480" height="1" fill="#000000"/>
<rect y="359" width="480" height="1" fill="#000000"/>
<g transform="translate(0.000000,360.000000) scale(0.100000,-0.100000)"
fill="#000000" stroke="none">
<path d="M2521 2779 c-253 -49 -506 -246 -628 -487 l-48 -94 0 -107 c0 -112 9
-141 61 -203 12 -15 28 -54 34 -85 20 -97 40 -139 96 -207 42 -51 70 -74 122
-100 208 -104 549 -87 810 40 120 58 210 144 237 224 32 96 8 323 -45 439 -35
73 -37 91 -12 91 10 0 27 7 39 15 12 9 26 14 30 13 19 -5 113 14 108 22 -3 4
1 11 7 14 7 3 -9 4 -36 2 -30 -2 -43 -1 -35 5 8 5 24 9 36 9 31 0 57 28 42 46
-18 22 -82 16 -171 -16 -45 -17 -83 -30 -85 -30 -1 0 -8 20 -14 44 -14 55 -46
103 -134 200 -135 149 -254 197 -414 165z m752 -446 c-7 -2 -21 -2 -30 0 -10
3 -4 5 12 5 17 0 24 -2 18 -5z"/>
</g>
</svg>
