<?xml version="1.0" standalone="no"?>
<!DOCTYPE svg PUBLIC "-//W3C//DTD SVG 20010904//EN"
 "http://www.w3.org/TR/2001/REC-SVG-20010904/DTD/svg10.dtd">
<svg version="1.0" xmlns="http://www.w3.org/2000/svg"
 width="480.000000pt" height="360.000000pt" viewBox="0 0 480.000000 360.000000"
 preserveAspectRatio="xMidYMid meet">
<metadata>
Created by potrace 1.16, written by Peter Selinger 2001-2019
</metadata>
<rect width="1" height="360" fill="#000000"/>
<rect x="479" width="1" height="360" fill="#000000"/>
<rect width="480" height="1" fill="#000000"/>
<rect y="359" width="480" height="1" fill="#000000"/>
<g transform="translate(0.000000,360.000000) scale(0.100000,-0.100000)"
fill="#000000" stroke="none">
<path d="M0 1800 l0 -1800 1053 0 1053 0 17 93 c10 50 20 115 22 142 3 28 12
128 21 223 9 95 13 176 9 180 -4 4 -10 1 -12 -6 -3 -7 -28 -45 -56 -84 -44
-61 -60 -75 -102 -91 -68 -26 -129 -17 -210 28 -48 27 -75 35 -112 35 -27 0
-54 -5 -61 -12 -9 -9 -21 -9 -51 0 -39 12 -39 13 -46 72 -6 52 -11 62 -36 77
-16 10 -29 20 -29 24 0 3 8 32 19 65 10 32 21 81 25 107 13 104 67 137 223
137 84 0 124 -12 166 -48 9 -8 19 -13 20 -11 25 30 150 244 202 344 37 72 71
135 75 140 4 6 13 34 20 64 14 58 50 107 106 142 34 21 35 22 32 83 -3 61 -3
61 -34 62 -40 1 -51 8 -70 47 -9 18 -27 45 -40 60 -13 16 -27 40 -31 55 -3 14
-18 36 -32 48 l-26 23 33 30 c33 31 35 54 4 49 -10 -1 -23 1 -29 5 -8 5 -13 3
-13 -3 0 -17 -39 14 -64 52 -13 18 -26 46 -30 63 -4 16 -12 33 -18 36 -6 4 -6
19 1 45 13 46 8 53 -19 29 -12 -11 -20 -13 -20 -6 0 18 75 162 109 209 38 52
133 123 189 141 23 8 42 19 42 26 0 24 -91 135 -136 166 -59 40 -109 59 -260
99 -172 46 -311 130 -344 210 -17 40 -4 55 65 75 109 31 259 9 413 -62 105
-49 177 -100 245 -173 31 -33 57 -57 57 -51 0 29 -55 181 -77 209 -16 22 -57
48 -126 81 -115 55 -137 80 -137 154 0 83 76 153 165 151 95 -2 235 -105 302
-222 58 -100 74 -172 94 -430 14 -174 7 -163 107 -176 135 -17 308 -144 351
-257 27 -73 53 -240 66 -432 26 -369 31 -397 127 -657 92 -251 144 -413 173
-539 14 -63 34 -130 45 -150 37 -74 43 -147 21 -277 -18 -104 -33 -197 -56
-351 l-7 -43 706 0 706 0 0 1800 0 1800 -2400 0 -2400 0 0 -1800z"/>
</g>
</svg>
