<?xml version="1.0" standalone="no"?>
<!DOCTYPE svg PUBLIC "-//W3C//DTD SVG 20010904//EN"
 "http://www.w3.org/TR/2001/REC-SVG-20010904/DTD/svg10.dtd">
<svg version="1.0" xmlns="http://www.w3.org/2000/svg"
 width="480.000000pt" height="360.000000pt" viewBox="0 0 480.000000 360.000000"
 preserveAspectRatio="xMidYMid meet">
<metadata>
Created by potrace 1.16, written by Peter Selinger 2001-2019
</metadata>
<rect width="1" height="360" fill="#000000"/>
<rect x="479" width="1" height="360" fill="#000000"/>
<rect width="480" height="1" fill="#000000"/>
<rect y="359" width="480" height="1" fill="#000000"/>
<g transform="translate(0.000000,360.000000) scale(0.100000,-0.100000)"
fill="#000000" stroke="none">
<path d="M2226 3588 c4 -7 22 -35 40 -63 84 -133 161 -312 204 -478 101 -384
80 -810 -56 -1137 -168 -402 -201 -557 -191 -899 6 -205 27 -332 86 -517 35
-108 146 -344 206 -436 l38 -58 1123 0 1124 0 0 1800 0 1800 -1291 0 c-1029 0
-1289 -3 -1283 -12z m1823 -1364 c87 -39 136 -86 176 -167 44 -91 53 -160 31
-247 -32 -125 -123 -221 -245 -260 -80 -25 -132 -25 -214 0 -123 38 -212 134
-244 265 -29 118 7 245 93 332 45 45 120 87 181 103 58 14 161 2 222 -26z"/>
<path d="M840 2159 c-120 -23 -230 -110 -287 -227 -37 -74 -38 -79 -38 -187 0
-108 1 -113 38 -187 129 -263 465 -315 665 -104 158 167 159 414 3 579 -102
108 -240 154 -381 126z"/>
</g>
</svg>
