<?xml version="1.0" standalone="no"?>
<!DOCTYPE svg PUBLIC "-//W3C//DTD SVG 20010904//EN"
 "http://www.w3.org/TR/2001/REC-SVG-20010904/DTD/svg10.dtd">
<svg version="1.0" xmlns="http://www.w3.org/2000/svg"
 width="480.000000pt" height="360.000000pt" viewBox="0 0 480.000000 360.000000"
 preserveAspectRatio="xMidYMid meet">
<metadata>
Created by potrace 1.16, written by Peter Selinger 2001-2019
</metadata>
<rect width="1" height="360" fill="#000000"/>
<rect x="479" width="1" height="360" fill="#000000"/>
<rect width="480" height="1" fill="#000000"/>
<rect y="359" width="480" height="1" fill="#000000"/>
<g transform="translate(0.000000,360.000000) scale(0.100000,-0.100000)"
fill="#000000" stroke="none">
<path d="M0 1800 l0 -1800 899 0 900 0 11 58 c22 106 121 436 157 522 80 192
86 216 84 335 -2 82 2 115 12 129 13 18 11 24 -22 69 -25 33 -37 43 -39 32 -3
-13 -6 -14 -19 -3 -14 11 -16 10 -11 -12 3 -14 9 -34 13 -45 6 -14 5 -17 -3
-10 -5 6 -23 41 -39 79 -33 78 -59 101 -48 42 8 -39 -9 -52 -18 -14 -6 20 -7
20 -41 -10 -41 -36 -89 -48 -129 -33 -16 6 -33 11 -38 11 -12 0 -58 -95 -61
-125 -1 -11 -4 21 -7 70 -5 74 -9 89 -21 85 -8 -2 -37 -4 -65 -5 l-50 0 0 35
0 35 -70 17 c-38 9 -83 20 -98 23 -18 4 -35 18 -48 40 -11 19 -29 37 -40 40
-11 4 -19 15 -19 29 0 22 -5 23 -89 30 -135 10 -260 49 -343 108 -31 21 -35
42 -14 64 19 19 22 18 63 -13 33 -26 35 -26 29 -6 -8 26 9 39 29 23 11 -9 23
-9 46 -1 18 6 46 11 62 11 30 0 30 0 11 21 -10 12 -27 24 -37 28 -30 11 -82
138 -78 191 5 80 3 114 -9 170 -10 50 -9 62 9 108 12 29 21 72 21 95 0 49 11
70 31 62 18 -7 32 18 49 88 16 59 25 66 51 33 12 -15 31 -26 44 -26 19 0 26
10 41 57 11 31 24 58 31 61 6 2 19 -9 29 -23 14 -21 17 -47 16 -131 -2 -78 2
-113 14 -135 l15 -30 27 35 c15 19 35 47 45 61 26 36 39 28 53 -36 20 -83 16
-125 -21 -234 -31 -93 -33 -101 -19 -133 19 -47 18 -65 -10 -120 -29 -58 -51
-77 -95 -86 -19 -3 -43 -13 -52 -22 -10 -9 -33 -20 -51 -24 l-33 -8 40 -1 c23
-1 65 -14 101 -33 61 -32 63 -32 83 -14 15 14 27 16 48 11 15 -4 42 -7 60 -6
22 2 49 -9 87 -33 80 -51 156 -88 170 -83 7 3 30 58 51 123 21 66 63 179 92
253 30 73 53 135 51 137 -2 1 -23 -2 -47 -8 -35 -9 -45 -8 -58 5 -14 14 -14
19 -1 54 9 21 18 55 22 76 4 21 13 40 19 43 7 2 34 -2 60 -10 36 -11 49 -11
52 -3 13 38 27 112 54 272 17 99 42 221 56 270 29 99 119 291 141 299 8 3 14
13 14 22 0 12 -6 15 -22 10 -13 -4 -56 -9 -96 -13 -86 -7 -112 8 -112 64 0 65
93 298 132 330 10 9 37 5 108 -16 112 -33 150 -51 250 -123 79 -56 73 -54 220
-59 19 -1 62 8 94 20 81 29 170 42 234 34 l54 -6 -6 -46 c-9 -71 -62 -274 -81
-314 -15 -33 -15 -37 1 -69 13 -23 18 -55 18 -106 -1 -68 -4 -80 -50 -168 -53
-104 -63 -117 -57 -76 l4 27 -26 -30 c-26 -29 -26 -32 -21 -130 5 -96 21 -203
31 -213 3 -3 23 3 46 13 51 23 59 14 59 -67 0 -42 -4 -59 -16 -66 -13 -7 -8
-26 40 -140 69 -163 74 -188 48 -237 l-19 -38 33 -115 c19 -63 36 -117 39
-120 3 -3 13 2 23 11 26 23 59 21 67 -3 4 -11 5 -44 4 -72 -3 -60 0 -64 136
-119 89 -36 115 -54 115 -79 0 -26 38 -36 195 -55 77 -9 144 -20 149 -25 6 -6
4 -16 -4 -25 -11 -13 -24 -15 -55 -10 -29 4 -45 2 -53 -8 -9 -10 9 -34 84
-110 103 -105 113 -130 56 -135 -19 -2 -32 -9 -32 -17 0 -8 -9 -19 -20 -25
-16 -9 -26 -4 -61 35 -46 50 -64 54 -29 7 13 -17 20 -38 17 -47 -10 -24 -36
-30 -51 -10 -12 17 -13 17 -18 -3 -12 -46 -36 -36 -121 49 -48 48 -93 105
-106 132 -20 41 -27 48 -45 42 -37 -12 -55 -7 -98 24 -121 88 -168 117 -288
180 -112 59 -130 66 -124 48 3 -12 14 -31 24 -42 27 -31 29 -46 19 -132 -10
-92 -10 -92 99 -349 63 -147 175 -478 187 -551 l7 -43 834 0 834 0 0 1800 0
1800 -2400 0 -2400 0 0 -1800z"/>
<path d="M2717 2307 c-4 -10 -7 -28 -7 -40 0 -12 -7 -31 -15 -41 -14 -19 -15
-18 -16 15 l-1 34 -10 -38 c-19 -72 26 -126 62 -74 13 18 14 33 5 92 -7 47
-13 64 -18 52z"/>
<path d="M2970 1336 c0 -13 7 -26 15 -30 16 -6 18 -2 9 32 -8 29 -24 28 -24
-2z"/>
<path d="M3705 740 c10 -11 20 -18 23 -16 5 6 -23 36 -34 36 -4 0 1 -9 11 -20z"/>
</g>
</svg>
