<?xml version="1.0" standalone="no"?>
<!DOCTYPE svg PUBLIC "-//W3C//DTD SVG 20010904//EN"
 "http://www.w3.org/TR/2001/REC-SVG-20010904/DTD/svg10.dtd">
<svg version="1.0" xmlns="http://www.w3.org/2000/svg"
 width="480.000000pt" height="360.000000pt" viewBox="0 0 480.000000 360.000000"
 preserveAspectRatio="xMidYMid meet">
<metadata>
Created by potrace 1.16, written by Peter Selinger 2001-2019
</metadata>
<rect width="1" height="360" fill="#000000"/>
<rect x="479" width="1" height="360" fill="#000000"/>
<rect width="480" height="1" fill="#000000"/>
<rect y="359" width="480" height="1" fill="#000000"/>
<g transform="translate(0.000000,360.000000) scale(0.100000,-0.100000)"
fill="#000000" stroke="none">
<path d="M2078 3543 c-95 -101 -163 -243 -174 -366 -7 -81 -14 -93 -84 -131
-42 -23 -55 -26 -84 -18 -40 12 -56 1 -56 -37 0 -17 -11 -35 -32 -52 l-32 -27
43 -56 c103 -133 146 -168 166 -136 9 14 35 -7 35 -27 0 -29 -31 -73 -75 -104
-24 -17 -42 -35 -40 -39 2 -4 25 -4 50 0 24 4 47 5 49 3 3 -4 -10 -85 -20
-115 -9 -28 9 -21 31 12 25 38 31 38 39 -2 3 -18 11 -50 17 -72 l11 -41 13 30
13 30 1 -32 c1 -46 20 -91 30 -74 6 10 11 4 16 -19 5 -24 10 -29 16 -19 7 11
9 10 9 -5 0 -12 5 -16 15 -12 9 3 15 0 15 -10 0 -8 5 -12 10 -9 6 3 10 24 10
46 0 54 20 41 21 -14 1 -41 1 -41 12 -14 18 45 27 31 27 -40 l1 -68 21 40 c27
52 26 51 50 36 19 -12 20 -11 16 13 -3 14 -1 26 3 26 5 0 9 -21 9 -46 0 -41
-2 -45 -20 -39 -27 9 -36 -17 -20 -55 17 -41 4 -54 -78 -81 -108 -35 -186 -74
-229 -113 l-41 -36 -62 96 -61 96 -92 -8 c-51 -5 -155 -9 -232 -9 -191 1 -217
10 -491 167 -84 48 -372 188 -387 188 -7 0 -37 -16 -66 -35 -129 -86 -273
-166 -358 -202 l-93 -38 1 -155 c1 -149 2 -153 15 -110 10 29 11 52 6 65 -7
14 -4 30 9 54 15 28 32 40 81 59 106 40 103 41 67 -19 l-32 -54 16 -274 c8
-150 20 -278 25 -283 15 -15 36 21 106 182 37 85 81 184 98 220 16 36 32 79
35 95 7 43 -14 146 -36 175 -14 19 -17 35 -12 69 5 39 12 48 63 84 l56 40 64
-37 c34 -21 70 -41 78 -45 26 -14 23 -40 -8 -75 -16 -18 -40 -62 -55 -99 l-26
-66 34 -173 c18 -95 41 -215 50 -266 23 -124 42 -134 70 -36 7 27 37 126 65
219 77 253 75 238 51 325 -12 41 -28 80 -36 86 -22 16 -19 44 5 44 33 0 90
-27 173 -83 68 -45 77 -55 77 -82 0 -19 -7 -35 -20 -43 -26 -16 -80 -136 -80
-177 0 -17 16 -103 35 -191 20 -87 45 -201 56 -251 20 -92 34 -117 49 -93 4 7
40 130 79 274 l70 262 -25 75 c-13 41 -33 81 -44 91 -11 9 -20 19 -20 22 0 8
222 8 299 -1 76 -7 85 -22 43 -66 -31 -32 -82 -144 -82 -179 0 -37 138 -516
157 -546 13 -22 12 -34 -16 -135 -16 -62 -37 -150 -46 -196 -8 -47 -16 -85
-18 -86 -1 -1 -31 -17 -67 -37 -36 -19 -144 -87 -240 -150 -96 -63 -194 -125
-218 -139 l-43 -24 -37 44 c-20 24 -53 56 -74 71 -20 15 -55 49 -76 77 -64 80
-172 100 -172 32 0 -23 7 -34 35 -50 39 -23 44 -47 16 -73 -14 -13 -42 -18
-117 -21 -55 -2 -121 -10 -149 -19 l-50 -15 -37 36 c-30 30 -38 44 -38 74 0
43 -23 68 -48 52 -10 -5 -25 -34 -34 -63 -10 -30 -22 -58 -28 -64 -19 -19 -10
-53 29 -107 21 -30 45 -70 53 -89 8 -19 28 -50 43 -69 27 -32 31 -33 79 -27
49 5 52 4 68 -24 21 -37 42 -38 111 -4 l54 27 79 -26 c91 -30 269 -67 323 -67
43 0 128 42 377 185 283 164 311 184 359 260 31 47 105 234 155 390 12 39 26
74 30 78 12 14 22 -340 12 -458 -5 -60 -8 -132 -7 -160 2 -39 -5 -65 -31 -116
-29 -59 -114 -256 -114 -265 0 -2 306 -4 680 -4 374 0 680 1 680 3 0 10 -75
185 -109 254 -49 101 -57 129 -41 148 10 12 10 33 2 92 -6 43 -14 100 -17 126
-8 57 4 247 15 247 4 0 22 -42 39 -92 18 -51 50 -130 71 -174 64 -132 102
-160 580 -415 l195 -104 110 1 c116 1 191 13 292 45 l63 21 69 -38 c69 -37 71
-37 91 -19 11 10 24 32 28 49 8 28 11 31 44 28 20 -2 46 2 57 8 30 16 69 99
61 130 -5 19 1 35 27 69 47 63 50 84 19 131 -14 22 -26 48 -26 59 0 62 -47 98
-75 58 -8 -12 -15 -35 -15 -51 0 -21 -11 -41 -36 -67 -33 -33 -39 -36 -67 -28
-18 5 -82 9 -143 9 -102 0 -112 2 -131 23 -11 12 -23 34 -27 48 -5 23 -1 28
24 39 54 22 54 90 0 90 -55 0 -102 -33 -138 -97 -18 -32 -46 -67 -62 -78 -15
-10 -42 -40 -59 -67 l-32 -48 -42 21 c-23 12 -121 70 -217 129 -212 130 -316
190 -327 190 -24 1 -35 27 -58 143 -14 69 -48 197 -76 283 -41 126 -49 158
-38 165 18 11 24 -2 38 -82 26 -136 41 -124 95 81 7 30 35 132 61 225 42 150
46 175 37 210 -9 34 -7 44 13 80 14 22 31 61 40 85 26 74 36 80 132 80 45 0
83 -3 83 -7 0 -3 -7 -14 -15 -23 -8 -9 -26 -50 -40 -90 l-25 -73 61 -201 c33
-111 71 -238 85 -283 26 -88 37 -104 52 -76 5 10 31 142 58 295 l47 276 -32
75 c-20 44 -44 83 -61 95 -21 16 -26 27 -23 47 8 40 136 134 226 166 33 11 39
11 47 -1 6 -9 4 -20 -5 -30 -16 -18 -55 -134 -55 -165 0 -17 63 -207 159 -480
41 -115 52 -104 76 78 9 72 19 141 21 152 2 11 9 56 14 100 25 185 26 167 -14
245 -19 39 -47 81 -61 92 -36 28 -32 51 13 72 20 10 56 31 80 47 24 16 47 29
51 29 4 0 36 -19 70 -42 55 -36 61 -44 56 -67 -3 -14 -1 -32 4 -40 6 -10 3
-23 -10 -40 -13 -18 -21 -51 -25 -102 -7 -83 -13 -66 104 -279 13 -25 51 -94
83 -155 112 -209 112 -208 103 149 l-7 281 -28 42 c-16 23 -29 44 -29 47 0 2
37 -10 81 -28 55 -22 86 -41 95 -57 12 -21 13 -15 14 63 l0 87 -55 20 c-85 32
-226 105 -348 181 -61 39 -120 70 -130 70 -10 0 -49 -17 -85 -39 -37 -21 -96
-52 -132 -68 -36 -16 -139 -74 -230 -129 -109 -65 -195 -109 -252 -129 -48
-16 -89 -27 -92 -24 -3 3 -3 22 1 43 6 38 6 38 20 15 12 -22 12 -19 7 31 -6
52 -38 255 -50 311 -5 23 -2 27 25 32 l31 6 -7 93 c-5 84 -3 99 18 148 20 46
24 72 24 155 0 120 -21 191 -68 231 -28 23 -38 26 -92 22 -61 -4 -136 -34
-175 -70 -28 -26 -40 -22 -40 15 0 44 -24 135 -52 194 -28 62 -128 161 -197
196 -29 15 -107 41 -172 57 -115 29 -124 30 -367 30 l-249 0 -55 -57z m1072
-875 c4 -99 2 -151 -9 -249 -8 -69 -12 -160 -9 -222 l6 -106 -50 -3 -51 -3
-46 -81 c-25 -44 -57 -95 -69 -113 l-24 -32 -39 35 c-59 54 -113 85 -212 122
-50 18 -94 37 -98 41 -8 8 17 133 29 145 4 4 6 -12 4 -36 -2 -24 -2 -54 0 -67
4 -24 5 -23 17 6 8 19 15 25 20 17 4 -7 18 9 36 44 33 63 34 62 56 -41 17 -84
28 -100 30 -45 1 25 5 59 9 75 6 23 8 12 10 -45 2 -74 2 -74 11 -30 5 25 12
56 15 70 l6 25 16 -30 17 -30 3 35 c5 67 35 115 44 73 3 -14 10 -8 28 21 21
35 25 37 34 21 6 -9 19 -27 28 -39 17 -20 17 -18 18 58 0 63 3 77 14 73 8 -3
31 -9 50 -13 41 -7 48 6 12 25 -31 17 -48 55 -40 89 4 15 31 66 60 114 30 48
54 92 54 98 0 15 20 12 20 -2z m-919 -243 c5 4 24 -5 42 -19 18 -14 54 -35 80
-46 26 -12 47 -25 47 -30 0 -5 12 -11 28 -13 17 -2 10 -5 -20 -6 -56 -1 -174
54 -172 82 1 9 -7 19 -17 22 -11 4 -19 14 -19 23 1 15 2 15 11 -1 6 -9 14 -15
20 -12z m309 -234 c0 -24 -26 -47 -33 -29 -5 16 10 48 23 48 6 0 10 -8 10 -19z
m571 -355 c-25 -53 -48 -96 -51 -96 -3 0 -21 13 -40 29 l-34 29 44 49 c25 27
58 65 74 83 25 31 29 33 40 18 10 -13 4 -34 -33 -112z m-1407 20 l66 -74 -31
-31 c-17 -17 -34 -31 -38 -31 -3 0 -20 30 -35 68 -16 37 -35 74 -42 82 -13 16
-9 60 6 60 4 0 37 -33 74 -74z m1422 -394 c-10 -10 -29 15 -21 28 6 9 10 8 17
-4 6 -10 7 -20 4 -24z m-1497 -154 c-1 -22 -27 -84 -28 -67 -2 29 11 79 20 79
5 0 9 -6 8 -12z m2885 -1018 c-7 -7 -19 -7 -35 -1 -23 9 -22 10 11 10 23 1 31
-2 24 -9z"/>
<path d="M2267 2379 c7 -7 15 -10 18 -7 3 3 -2 9 -12 12 -14 6 -15 5 -6 -5z"/>
</g>
</svg>
