<?xml version="1.0" standalone="no"?>
<!DOCTYPE svg PUBLIC "-//W3C//DTD SVG 20010904//EN"
 "http://www.w3.org/TR/2001/REC-SVG-20010904/DTD/svg10.dtd">
<svg version="1.0" xmlns="http://www.w3.org/2000/svg"
 width="480.000000pt" height="360.000000pt" viewBox="0 0 480.000000 360.000000"
 preserveAspectRatio="xMidYMid meet">
<metadata>
Created by potrace 1.16, written by Peter Selinger 2001-2019
</metadata>
<rect width="1" height="360" fill="#000000"/>
<rect x="479" width="1" height="360" fill="#000000"/>
<rect width="480" height="1" fill="#000000"/>
<rect y="359" width="480" height="1" fill="#000000"/>
<g transform="translate(0.000000,360.000000) scale(0.100000,-0.100000)"
fill="#000000" stroke="none">
<path d="M1258 2885 c-10 -13 -19 -44 -20 -68 -2 -25 -6 -43 -10 -40 -5 2 -8
3 -8 1 -1 -2 -3 -33 -6 -70 -5 -58 -3 -73 16 -104 16 -24 25 -32 30 -24 6 9
13 4 26 -15 14 -21 15 -31 6 -46 -6 -10 -8 -20 -4 -23 15 -9 92 -126 92 -139
0 -18 -21 -37 -41 -37 -9 0 -22 -7 -29 -15 -10 -13 -10 -19 4 -33 21 -25 20
-45 -4 -59 -28 -18 -101 -113 -94 -124 3 -5 -9 -26 -25 -47 -58 -71 -50 -133
20 -178 l42 -26 -6 -84 c-2 -46 -9 -90 -15 -97 -26 -32 -51 -88 -50 -114 1
-15 -11 -57 -25 -92 -19 -47 -23 -69 -16 -83 7 -12 5 -26 -4 -45 -58 -114
-127 -606 -157 -1113 -5 -91 -10 -175 -10 -187 l0 -23 470 0 c259 0 470 3 470
8 0 4 -9 79 -20 167 -11 88 -27 248 -35 355 -8 107 -17 218 -21 245 -9 82 -74
352 -110 464 -19 57 -34 105 -34 107 0 2 7 4 15 4 20 0 19 14 -1 31 -23 19
-14 68 37 179 25 57 42 109 42 130 0 19 -15 77 -32 128 -36 108 -37 117 -13
132 9 6 13 13 7 16 -34 16 -39 24 -37 79 1 45 -7 76 -38 152 -22 53 -44 99
-50 103 -19 12 0 38 27 38 24 0 42 15 58 46 3 8 7 7 11 -1 10 -21 34 -14 35
10 0 21 1 21 9 2 l8 -20 7 20 c4 11 10 29 15 40 20 48 22 63 21 110 -2 34 -12
67 -32 102 -16 29 -29 59 -29 67 0 23 -118 153 -155 170 -52 25 -228 15 -259
-15 -19 -17 -43 -10 -42 12 1 31 -16 33 -36 4z"/>
</g>
</svg>
