<?xml version="1.0" standalone="no"?>
<!DOCTYPE svg PUBLIC "-//W3C//DTD SVG 20010904//EN"
 "http://www.w3.org/TR/2001/REC-SVG-20010904/DTD/svg10.dtd">
<svg version="1.0" xmlns="http://www.w3.org/2000/svg"
 width="480.000000pt" height="360.000000pt" viewBox="0 0 480.000000 360.000000"
 preserveAspectRatio="xMidYMid meet">
<metadata>
Created by potrace 1.16, written by Peter Selinger 2001-2019
</metadata>
<rect width="1" height="360" fill="#000000"/>
<rect x="479" width="1" height="360" fill="#000000"/>
<rect width="480" height="1" fill="#000000"/>
<rect y="359" width="480" height="1" fill="#000000"/>
<g transform="translate(0.000000,360.000000) scale(0.100000,-0.100000)"
fill="#000000" stroke="none">
<path d="M2567 3286 c-4 -11 -13 -16 -23 -12 -9 3 -12 2 -9 -5 4 -6 -1 -17
-11 -24 -18 -13 -18 -14 -1 -15 27 0 21 -12 -41 -73 -43 -43 -66 -58 -90 -60
-18 -1 -32 -4 -32 -7 0 -3 14 -22 31 -43 26 -32 30 -43 24 -75 -3 -22 1 -70 9
-113 9 -40 16 -75 16 -77 0 -2 -30 -16 -66 -33 -62 -27 -66 -31 -52 -47 11
-13 15 -38 13 -102 -2 -55 2 -91 10 -103 7 -10 10 -36 7 -67 -2 -27 1 -62 7
-78 9 -22 9 -37 -4 -71 -21 -59 -19 -181 5 -402 17 -153 18 -192 8 -231 -10
-40 -9 -60 5 -120 9 -40 14 -85 10 -101 -3 -15 -1 -33 5 -40 7 -9 8 -25 1 -52
-12 -51 -12 -221 0 -243 6 -11 4 -25 -7 -44 -15 -25 -14 -29 2 -61 15 -27 16
-38 7 -55 -10 -19 -7 -27 25 -61 19 -22 63 -54 97 -71 66 -33 107 -66 107 -86
0 -7 -15 -24 -32 -38 -28 -22 -30 -28 -18 -36 18 -12 150 -13 150 -2 0 4 -15
23 -34 41 -30 30 -33 37 -29 74 8 58 17 68 53 54 32 -12 50 -3 32 15 -20 20
-14 43 18 73 19 18 28 35 25 46 -3 9 -1 28 6 42 14 32 -2 64 -37 73 -39 10
-24 25 46 46 81 24 109 38 121 59 14 27 -5 64 -40 79 -34 14 -50 53 -57 144
-15 202 -31 295 -55 321 -16 17 -10 21 62 50 59 23 73 33 85 60 20 49 -5 111
-84 209 -36 45 -89 122 -118 171 -29 50 -64 104 -78 121 -26 32 -32 54 -18 68
4 4 12 26 17 48 l10 41 35 -31 c19 -18 39 -32 45 -32 33 1 57 47 46 88 -5 17
-6 72 -1 124 9 103 3 118 -40 118 -23 0 -28 4 -28 28 0 31 16 55 31 45 7 -4 8
8 3 38 -24 142 -24 153 -5 187 23 41 24 56 2 48 -11 -5 -33 11 -74 56 -59 64
-71 88 -44 88 8 0 15 5 15 10 0 6 -7 10 -15 10 -13 0 -14 4 -5 20 7 14 7 20 0
20 -5 0 -10 -4 -10 -10 0 -17 -18 -11 -22 8 -3 16 -4 16 -11 -2z m141 -1718
c18 -68 32 -135 32 -150 0 -15 5 -38 11 -51 8 -18 7 -32 -4 -58 l-14 -35 -112
1 c-83 1 -115 5 -125 15 -21 22 -38 91 -25 106 6 8 6 21 -1 40 -13 33 0 218
17 247 2 4 46 7 96 7 l93 0 32 -122z m-120 -712 c2 -17 -1 -26 -10 -26 -15 0
-88 57 -88 69 0 4 21 3 48 -4 40 -10 47 -16 50 -39z"/>
<path d="M1066 3165 c-3 -9 -10 -14 -16 -10 -6 4 -7 -11 -3 -40 6 -46 5 -47
-52 -105 -47 -48 -63 -58 -82 -54 -17 5 -25 0 -34 -19 -10 -23 -8 -30 14 -56
22 -27 25 -37 20 -84 -5 -52 -5 -53 35 -81 26 -17 43 -38 47 -56 3 -16 13 -34
21 -41 18 -15 18 -29 0 -29 -16 0 -59 -54 -50 -63 8 -8 8 -126 -1 -175 -6 -40
-13 -48 -67 -83 -33 -21 -69 -41 -79 -44 -10 -4 -19 -11 -19 -16 0 -15 -57
-35 -120 -43 -30 -4 -60 -12 -68 -18 -19 -16 -102 26 -127 65 -19 29 -26 32
-65 31 -64 -2 -351 -71 -369 -88 -12 -13 -12 -20 0 -53 17 -43 10 -38 359
-222 113 -60 283 -150 379 -201 147 -78 181 -93 218 -92 l44 0 -6 -53 c-10
-80 0 -106 81 -207 66 -83 79 -105 75 -130 0 -4 13 -17 30 -29 36 -25 36 -26
-59 -89 -45 -30 -68 -53 -70 -68 -2 -13 -10 -26 -18 -29 -8 -3 -14 -18 -14
-33 0 -16 -7 -30 -15 -34 -8 -3 -15 -14 -15 -24 0 -13 -15 -25 -47 -40 -144
-63 -171 -73 -208 -78 -37 -5 -47 0 -139 67 -70 50 -108 72 -128 71 -15 0 -81
-22 -145 -48 -189 -75 -225 -92 -221 -107 2 -7 95 -91 208 -187 113 -95 239
-203 280 -239 41 -37 113 -99 160 -138 47 -39 114 -96 150 -127 83 -71 102
-72 213 -9 45 25 122 67 170 93 102 54 129 74 121 92 -3 7 -40 37 -82 67 -202
143 -263 193 -251 207 6 8 23 14 37 14 38 0 134 32 139 47 3 7 15 13 27 13 21
0 67 55 80 96 4 13 22 26 49 34 68 22 116 49 133 76 27 40 5 97 -63 161 -49
47 -54 55 -48 82 5 22 1 35 -13 49 -11 11 -27 44 -37 73 -23 70 -59 133 -107
185 -31 34 -37 46 -30 61 5 10 18 51 27 91 20 80 26 86 102 102 51 11 144 58
150 75 2 6 -31 69 -73 140 -42 72 -86 146 -96 165 -44 78 -62 106 -84 130 -20
22 -24 37 -25 105 -2 86 8 172 22 181 21 12 6 47 -46 105 -58 67 -60 89 -6 89
21 0 31 8 44 35 23 48 21 79 -8 150 -29 70 -30 84 -10 111 22 29 18 37 -28 58
-62 29 -86 53 -85 88 1 20 -9 40 -35 66 -19 20 -37 46 -39 56 -4 25 -24 31
-32 11z m-42 -957 c3 -7 7 -32 10 -55 6 -38 4 -43 -13 -43 -11 0 -23 -5 -26
-10 -3 -6 -26 -19 -51 -30 -44 -21 -138 -26 -165 -9 -21 12 -2 36 35 43 19 4
48 17 63 30 31 26 123 84 136 85 4 1 9 -5 11 -11z m-298 -98 c18 -7 24 -14 17
-21 -9 -9 -83 14 -83 26 0 9 38 5 66 -5z m247 -124 c4 -10 0 -12 -15 -8 -15 4
-17 7 -6 13 17 11 15 11 21 -5z m75 -11 c1 -1 0 -9 -4 -18 -5 -13 -10 -14 -30
-5 -25 11 -29 20 -17 31 5 6 41 0 51 -8z m296 -938 c-3 -9 -12 -13 -20 -10
-12 4 -11 8 3 18 21 16 26 14 17 -8z m-286 -247 c2 -14 8 -36 15 -49 10 -21 9
-26 -12 -39 -13 -9 -34 -33 -47 -54 -13 -21 -31 -38 -40 -38 -24 0 -135 90
-132 107 3 15 27 29 128 76 66 31 84 30 88 -3z"/>
<path d="M4144 3153 c2 -10 7 -28 11 -41 5 -17 -2 -37 -28 -76 -19 -29 -44
-71 -56 -93 -24 -47 -27 -50 -65 -57 -41 -7 -41 -11 -5 -48 31 -32 32 -37 34
-118 3 -96 13 -162 25 -155 4 3 10 -2 14 -10 6 -16 -4 -24 -41 -34 -15 -4 -28
-16 -31 -26 -13 -63 -13 -87 0 -103 8 -9 25 -36 38 -59 25 -46 24 -101 -4
-129 -32 -32 -39 -54 -22 -73 15 -17 14 -21 -19 -62 -19 -24 -44 -73 -56 -109
-27 -83 -93 -223 -130 -275 -15 -22 -30 -55 -34 -73 -6 -30 -3 -38 38 -76 34
-33 58 -46 103 -57 58 -14 59 -14 66 -58 7 -42 5 -46 -37 -95 -25 -28 -45 -58
-45 -67 0 -8 -13 -33 -30 -55 -16 -21 -30 -43 -30 -48 0 -5 -9 -28 -19 -50
-12 -27 -21 -74 -25 -137 l-5 -96 52 -34 c29 -19 69 -43 89 -53 59 -30 72 -49
59 -87 -8 -23 -8 -36 1 -52 20 -35 35 -105 27 -119 -26 -41 11 -85 74 -88 23
-1 51 -2 62 -2 29 -1 112 -24 178 -49 47 -18 62 -20 82 -11 33 15 34 52 3 52
-13 0 -57 12 -98 26 -41 14 -100 28 -130 32 -39 5 -55 11 -55 22 0 16 3 16
110 0 33 -5 89 -12 125 -15 36 -4 72 -9 80 -13 8 -3 22 -6 30 -7 8 -1 49 -18
90 -38 85 -42 89 -43 153 -21 33 11 47 21 47 34 0 11 8 23 17 29 17 9 16 11
-4 33 -12 13 -37 31 -55 40 -94 47 -141 68 -155 68 -20 0 -141 57 -172 82 -13
10 -32 18 -42 18 -28 0 -23 16 20 59 48 48 56 85 29 129 -28 45 -148 102 -196
93 -35 -6 -55 45 -28 71 7 8 16 34 19 59 2 24 17 73 32 108 18 42 30 92 34
142 4 43 9 80 11 82 3 2 34 23 70 47 36 24 70 50 77 59 17 22 16 72 -2 134 -9
29 -25 84 -36 122 -39 136 -63 210 -76 238 -13 25 -11 31 21 80 51 78 68 125
70 192 l1 60 34 -3 c18 -2 72 -23 119 -48 80 -41 91 -44 164 -44 l78 0 0 75
c0 74 0 75 -32 91 -18 10 -58 24 -88 32 -30 7 -74 19 -97 25 -24 5 -43 16 -43
23 0 10 141 190 221 281 16 19 26 39 23 48 -8 21 -13 17 -106 -98 -45 -56 -96
-118 -114 -137 -17 -19 -43 -48 -56 -64 l-25 -30 -25 27 c-22 23 -33 27 -82
27 -31 0 -56 1 -56 3 0 9 64 134 75 147 25 29 28 61 9 96 -18 33 -18 35 3 84
l22 51 -32 -6 c-18 -3 -41 0 -53 7 -12 7 -52 30 -89 52 -37 21 -68 44 -70 50
-2 6 -6 28 -10 49 -4 24 -11 37 -21 37 -10 0 -14 -6 -10 -17z m7 -1738 c3 -46
-29 -235 -42 -250 -5 -5 -9 -25 -9 -45 0 -53 -39 -120 -70 -120 -14 0 -41 -3
-61 -6 l-36 -6 -12 48 c-10 41 -10 50 2 59 8 6 22 26 30 45 8 19 29 51 47 70
91 101 101 117 111 181 5 34 13 67 16 72 10 16 21 -7 24 -48z m384 -835 c3 -5
-3 -10 -14 -10 -12 0 -21 5 -21 10 0 6 6 10 14 10 8 0 18 -4 21 -10z"/>
</g>
</svg>
