<?xml version="1.0" standalone="no"?>
<!DOCTYPE svg PUBLIC "-//W3C//DTD SVG 20010904//EN"
 "http://www.w3.org/TR/2001/REC-SVG-20010904/DTD/svg10.dtd">
<svg version="1.0" xmlns="http://www.w3.org/2000/svg"
 width="480.000000pt" height="360.000000pt" viewBox="0 0 480.000000 360.000000"
 preserveAspectRatio="xMidYMid meet">
<metadata>
Created by potrace 1.16, written by Peter Selinger 2001-2019
</metadata>
<rect width="1" height="360" fill="#000000"/>
<rect x="479" width="1" height="360" fill="#000000"/>
<rect width="480" height="1" fill="#000000"/>
<rect y="359" width="480" height="1" fill="#000000"/>
<g transform="translate(0.000000,360.000000) scale(0.100000,-0.100000)"
fill="#000000" stroke="none">
<path d="M0 3044 c0 -526 1 -556 18 -549 9 4 45 16 79 27 35 11 63 23 63 26 1
4 2 48 5 97 9 225 146 454 320 536 82 39 140 48 274 45 l114 -4 108 98 c103
94 188 160 206 160 13 0 50 -95 83 -210 28 -100 46 -130 78 -130 41 0 162 -80
243 -161 74 -72 94 -100 132 -180 53 -110 71 -194 65 -311 -2 -60 -9 -96 -26
-129 -36 -73 -26 -124 43 -220 l34 -48 -49 -30 c-32 -20 -50 -38 -50 -50 0
-29 29 -278 39 -343 6 -31 17 -68 26 -81 11 -17 12 -26 5 -29 -8 -2 -4 -34 15
-103 39 -150 54 -185 97 -225 28 -28 38 -45 38 -68 0 -18 -4 -32 -9 -32 -5 0
-25 22 -45 49 -57 77 -58 77 -118 46 -66 -34 -62 -29 -48 -54 10 -19 7 -23
-20 -34 l-30 -13 46 -62 c25 -34 48 -62 50 -62 3 0 58 29 122 65 64 35 149 76
187 90 39 14 79 30 90 35 43 21 237 59 351 70 204 18 425 -9 624 -76 256 -88
526 -274 682 -473 29 -36 63 -77 74 -90 12 -13 28 -35 35 -50 8 -14 31 -54 52
-88 35 -57 68 -129 128 -277 19 -47 19 -50 2 -60 -21 -13 -191 -85 -213 -91
-8 -2 -40 -15 -70 -29 l-55 -25 503 0 502 -1 0 445 c0 371 -2 445 -14 445 -40
0 -45 127 -5 137 19 5 19 28 19 1289 l0 1284 -2400 0 -2400 0 0 -556z m4005
441 c0 -25 -37 -32 -54 -11 -18 21 -4 38 27 34 19 -2 27 -9 27 -23z m-755
-405 c0 -5 -9 -10 -20 -10 -11 0 -20 5 -20 10 0 6 9 10 20 10 11 0 20 -4 20
-10z m-605 -460 c3 -5 1 -10 -4 -10 -6 0 -11 5 -11 10 0 6 2 10 4 10 3 0 8 -4
11 -10z m-19 -65 c9 -36 -42 -132 -90 -170 -28 -21 -40 -26 -43 -17 -3 7 -16
17 -29 22 -49 19 -17 100 62 160 50 38 91 40 100 5z m-38 -350 c4 -61 -27
-133 -70 -165 -39 -29 -54 -15 -70 61 -18 87 5 137 69 149 63 13 68 10 71 -45z
m1079 -1011 c-3 -3 -12 -4 -19 -1 -8 3 -5 6 6 6 11 1 17 -2 13 -5z"/>
<path d="M0 1954 c0 -119 2 -215 5 -212 9 9 144 423 139 427 -2 3 -14 -5 -27
-17 -29 -27 -41 -27 -83 -1 l-34 21 0 -218z"/>
<path d="M0 975 c0 -236 4 -404 9 -401 5 3 11 23 14 43 3 21 12 73 21 117 15
80 10 153 -15 217 -8 21 -6 37 11 77 12 28 29 57 38 65 42 37 342 178 422 199
47 12 87 23 89 25 14 10 -18 16 -76 13 -38 -2 -95 -4 -128 -5 -33 -1 -86 -12
-118 -24 -66 -24 -99 -20 -167 24 -19 12 -50 29 -67 39 l-33 17 0 -406z"/>
<path d="M2 460 c0 -14 2 -19 5 -12 2 6 2 18 0 25 -3 6 -5 1 -5 -13z"/>
<path d="M1715 125 l0 -125 28 0 c22 0 27 4 27 26 0 14 5 34 10 45 16 28 -5
127 -32 156 -12 13 -24 23 -27 23 -3 0 -6 -56 -6 -125z"/>
<path d="M0 68 c0 -39 2 -69 5 -67 8 8 10 139 3 139 -5 0 -8 -32 -8 -72z"/>
</g>
</svg>
