<?xml version="1.0" standalone="no"?>
<!DOCTYPE svg PUBLIC "-//W3C//DTD SVG 20010904//EN"
 "http://www.w3.org/TR/2001/REC-SVG-20010904/DTD/svg10.dtd">
<svg version="1.0" xmlns="http://www.w3.org/2000/svg"
 width="480.000000pt" height="360.000000pt" viewBox="0 0 480.000000 360.000000"
 preserveAspectRatio="xMidYMid meet">
<metadata>
Created by potrace 1.16, written by Peter Selinger 2001-2019
</metadata>
<rect width="1" height="360" fill="#000000"/>
<rect x="479" width="1" height="360" fill="#000000"/>
<rect width="480" height="1" fill="#000000"/>
<rect y="359" width="480" height="1" fill="#000000"/>
<g transform="translate(0.000000,360.000000) scale(0.100000,-0.100000)"
fill="#000000" stroke="none">
<path d="M1410 3280 c0 -5 18 -21 40 -35 49 -31 51 -45 4 -45 -63 0 -178 -22
-216 -41 -48 -24 -74 -59 -89 -120 l-13 -50 -41 7 c-41 6 -115 -15 -115 -33 0
-4 9 -19 20 -33 20 -26 27 -85 11 -94 -13 -8 25 -82 45 -90 10 -4 37 -19 60
-34 42 -27 42 -28 50 -101 10 -105 -9 -246 -40 -302 -16 -28 -27 -69 -32 -114
-4 -39 -15 -94 -26 -124 -23 -69 -23 -92 3 -143 14 -27 19 -51 15 -70 -3 -16
-41 -93 -85 -171 -43 -78 -89 -163 -102 -189 -22 -47 -23 -48 -5 -85 10 -21
19 -54 22 -75 8 -81 56 -128 131 -128 21 0 47 7 57 15 25 19 76 20 76 1 0 -19
-42 -170 -85 -306 -57 -181 -122 -408 -155 -542 -28 -114 -70 -333 -70 -364 0
-12 94 -14 570 -14 539 0 570 1 570 18 0 9 -13 177 -30 372 -41 493 -62 851
-61 1010 0 74 -6 184 -14 245 -8 60 -13 111 -11 113 2 2 14 -10 26 -25 l23
-28 -6 31 c-3 18 -9 43 -13 58 -5 22 -3 26 14 26 18 0 81 59 83 78 0 4 2 17 5
30 2 13 -11 52 -32 94 -20 39 -34 79 -31 88 2 10 33 61 67 114 45 70 60 100
52 108 -6 6 -73 54 -149 108 l-138 97 -3 63 c-2 35 1 67 6 72 7 7 3 34 -9 77
-23 78 -18 217 8 238 17 13 9 33 -12 33 -7 0 -31 21 -52 47 -21 25 -58 59 -82
74 -23 15 -59 47 -79 70 -37 43 -100 78 -139 79 -13 0 -23 -4 -23 -10z m-113
-837 c-12 -12 -19 5 -23 54 l-4 48 17 -47 c9 -27 13 -51 10 -55z"/>
</g>
</svg>
