<?xml version="1.0" standalone="no"?>
<!DOCTYPE svg PUBLIC "-//W3C//DTD SVG 20010904//EN"
 "http://www.w3.org/TR/2001/REC-SVG-20010904/DTD/svg10.dtd">
<svg version="1.0" xmlns="http://www.w3.org/2000/svg"
 width="480.000000pt" height="360.000000pt" viewBox="0 0 480.000000 360.000000"
 preserveAspectRatio="xMidYMid meet">
<metadata>
Created by potrace 1.16, written by Peter Selinger 2001-2019
</metadata>
<rect width="1" height="360" fill="#000000"/>
<rect x="479" width="1" height="360" fill="#000000"/>
<rect width="480" height="1" fill="#000000"/>
<rect y="359" width="480" height="1" fill="#000000"/>
<g transform="translate(0.000000,360.000000) scale(0.100000,-0.100000)"
fill="#000000" stroke="none">
<path d="M4000 2601 c0 -6 5 -20 12 -30 18 -30 3 -54 -32 -49 -23 3 -30 1 -30
-11 0 -17 -77 -71 -102 -71 -8 0 -23 -7 -34 -15 -10 -8 -29 -15 -41 -15 -28 0
-31 -38 -7 -75 14 -21 14 -30 4 -55 -9 -22 -9 -48 -1 -115 13 -92 8 -119 -16
-86 -19 28 -47 26 -70 -4 -13 -18 -33 -28 -77 -36 -53 -10 -60 -9 -80 10 -39
36 -119 24 -147 -23 -19 -31 -19 -31 5 -43 26 -14 36 -52 36 -150 0 -55 3 -64
25 -79 31 -20 74 -8 137 40 24 18 61 36 82 40 l39 7 -7 -33 c-4 -18 -9 -74
-13 -125 -5 -76 -3 -96 11 -117 16 -25 15 -28 -8 -63 -14 -21 -43 -81 -64
-134 -40 -98 -95 -192 -126 -218 -41 -34 -73 -95 -69 -128 9 -57 68 -94 245
-156 26 -9 33 -69 14 -119 -14 -36 -16 -73 -13 -222 3 -99 0 -194 -5 -212 -8
-30 -11 -32 -43 -27 -43 7 -132 -14 -144 -34 -12 -23 -2 -59 25 -84 28 -27 30
-38 7 -54 -14 -11 -15 -20 -7 -61 5 -27 12 -48 17 -46 4 1 25 2 47 2 34 0 42
4 50 25 5 14 11 25 13 25 2 0 23 -10 48 -22 41 -21 62 -23 299 -28 140 -3 259
-4 264 -1 5 2 0 11 -11 20 -10 9 -27 40 -37 69 -16 45 -17 60 -7 93 14 45 5
85 -33 164 -23 46 -23 52 -10 83 8 19 11 45 8 58 -3 12 2 53 11 91 18 70 17
91 -10 203 -8 36 -19 111 -24 166 -6 56 -19 130 -30 165 -12 35 -32 118 -46
184 -14 66 -35 139 -46 164 -23 53 -24 69 -3 92 13 15 14 24 4 53 -18 56 15
166 56 185 59 27 68 148 13 177 -32 16 -34 19 -19 37 55 68 43 64 245 97 105
17 198 33 208 36 23 7 22 18 -5 33 -19 9 -42 8 -121 -9 -54 -11 -127 -24 -162
-30 -35 -6 -70 -13 -78 -16 -11 -4 -15 11 -20 73 -4 67 -2 81 14 99 21 23 25
44 8 44 -6 0 -8 7 -5 16 4 11 1 14 -12 10 -13 -4 -30 11 -65 59 -46 63 -47 65
-32 89 9 14 15 35 13 47 -3 23 -48 60 -48 40z m458 -443 c-3 -7 -22 -16 -44
-19 -21 -4 -86 -14 -143 -23 -58 -9 -116 -19 -130 -23 -15 -3 -23 -3 -19 2 5
5 283 67 331 74 5 1 7 -5 5 -11z m-851 -176 c-24 -9 -39 -23 -43 -38 -6 -24
-24 -34 -24 -13 0 14 21 52 32 60 5 3 24 6 41 6 l32 0 -38 -15z m416 -1203
c32 -73 33 -78 27 -177 -3 -56 -9 -104 -13 -108 -3 -4 -2 -15 4 -25 7 -13 5
-27 -5 -46 -10 -20 -12 -49 -9 -100 7 -85 14 -82 -117 -57 -47 9 -95 18 -106
20 -29 5 -48 54 -38 96 4 18 7 56 5 83 -1 28 8 109 20 180 12 72 24 145 27
163 5 41 20 47 107 47 l66 0 32 -76z"/>
<path d="M2437 2527 c-4 -11 -12 -15 -19 -11 -7 5 -9 2 -5 -9 3 -9 1 -18 -6
-20 -9 -3 -9 -9 -1 -24 10 -16 4 -28 -43 -81 -46 -52 -59 -61 -79 -56 -20 5
-24 3 -24 -18 0 -14 11 -35 25 -48 21 -19 25 -31 23 -72 -2 -42 1 -52 21 -67
18 -14 22 -24 18 -42 -3 -12 -1 -29 5 -36 13 -17 6 -25 -35 -39 -25 -9 -31
-16 -29 -33 2 -12 -2 -29 -9 -37 -10 -12 -13 -12 -23 0 -19 25 -62 8 -82 -31
-14 -27 -16 -37 -6 -40 6 -3 12 -13 12 -24 0 -28 -73 -62 -117 -54 -38 7 -63
-7 -63 -35 0 -26 56 -97 91 -116 30 -15 33 -15 60 5 15 12 33 21 39 21 6 0 34
21 62 48 82 78 95 75 143 -30 l26 -57 -27 -42 c-14 -23 -40 -74 -56 -113 -17
-39 -46 -105 -65 -146 -50 -106 -73 -176 -80 -241 -5 -53 -4 -57 23 -76 16
-11 51 -28 77 -39 44 -17 47 -21 41 -44 -3 -14 -8 -65 -10 -114 -1 -49 -8
-101 -14 -117 -9 -20 -9 -33 0 -49 17 -33 -4 -76 -40 -84 -31 -6 -66 -56 -56
-81 8 -22 52 -46 124 -71 36 -12 68 -27 70 -33 5 -14 -79 -50 -135 -58 -23 -3
-50 -11 -59 -18 -15 -10 -14 -15 10 -53 33 -53 33 -75 -1 -102 -22 -17 -38
-20 -92 -18 -55 3 -66 0 -69 -14 -4 -20 51 -58 85 -58 13 0 32 13 48 34 26 34
34 37 162 67 40 10 58 10 78 1 50 -23 205 -9 205 18 0 5 9 12 21 15 11 4 28
22 37 41 11 23 26 37 46 42 45 12 43 31 -3 49 -39 15 -52 35 -31 48 6 3 10 19
10 34 0 16 9 36 21 47 40 36 42 52 11 82 -28 27 -53 108 -57 192 -1 19 -7 46
-12 60 -6 14 -12 50 -14 79 -4 51 -3 54 21 58 13 2 37 16 52 30 36 34 36 73 3
154 -30 76 -42 142 -50 289 -4 63 -13 136 -21 162 -14 43 -14 49 2 73 16 24
16 29 0 77 -18 57 -21 104 -6 113 6 3 10 16 10 29 0 13 13 41 29 63 30 41 28
73 -5 73 -22 0 -94 39 -94 50 0 6 5 19 10 30 6 11 14 29 20 40 10 19 1 85 -21
157 -8 25 -6 38 7 58 13 20 14 28 4 40 -8 9 -21 13 -31 10 -27 -9 -134 82
-119 100 8 9 8 15 0 20 -6 4 -9 13 -6 21 3 8 0 11 -9 8 -8 -3 -15 2 -17 13 -3
17 -4 17 -11 0z m78 -1613 c18 -7 72 -121 82 -174 8 -42 8 -144 -1 -165 -4
-12 -25 -15 -100 -15 -108 0 -107 -2 -101 105 4 54 40 228 52 248 5 9 45 9 68
1z m-187 -658 c3 -12 -1 -17 -10 -14 -7 3 -15 13 -16 22 -3 12 1 17 10 14 7
-3 15 -13 16 -22z"/>
<path d="M1028 2459 c-10 -10 -18 -30 -18 -44 0 -29 -21 -52 -98 -107 -43 -31
-56 -36 -76 -28 -40 15 -51 -10 -25 -55 20 -34 21 -41 10 -84 -14 -54 -9 -74
25 -96 16 -10 26 -29 30 -54 4 -24 18 -51 36 -69 28 -29 28 -31 8 -37 -24 -8
-40 -34 -42 -72 -1 -15 -5 -32 -8 -38 -4 -5 -10 -30 -13 -54 -3 -24 -11 -48
-19 -52 -7 -5 -47 -16 -88 -24 -41 -9 -91 -24 -110 -34 -19 -10 -66 -22 -105
-25 -38 -4 -79 -13 -90 -20 -17 -11 -24 -11 -38 -1 -9 7 -17 17 -17 23 0 7
-10 18 -23 26 -20 14 -39 13 -187 -9 -91 -14 -169 -25 -173 -25 -4 0 -7 -34
-5 -76 l3 -76 408 -164 c337 -136 416 -164 457 -164 28 0 50 -2 50 -4 0 -2 -9
-32 -20 -66 -25 -78 -25 -86 0 -133 l20 -38 -32 -47 c-48 -69 -45 -109 12
-167 25 -26 68 -64 97 -86 34 -27 54 -50 58 -70 4 -16 17 -37 29 -46 25 -20
24 -43 -2 -43 -27 -1 -133 -76 -153 -110 -11 -17 -19 -40 -19 -53 0 -20 -11
-25 -113 -50 -61 -15 -143 -36 -182 -47 -107 -29 -126 -27 -197 25 -37 27 -72
45 -88 44 -14 0 -92 -24 -174 -52 l-149 -52 -4 -42 c-2 -23 0 -44 6 -47 16
-10 605 -9 609 2 1 5 -9 17 -23 26 -14 9 -25 20 -25 24 0 13 93 51 182 73 99
26 118 20 118 -36 0 -18 7 -38 15 -45 8 -6 13 -21 12 -33 -2 -20 2 -20 168
-18 l170 2 45 40 c25 22 69 53 97 70 29 17 56 35 59 41 11 18 -18 67 -57 94
-28 19 -38 32 -33 43 22 50 17 69 -32 121 -26 28 -48 59 -49 70 -2 25 -24 50
-44 50 -9 1 -33 22 -54 48 -20 26 -59 73 -86 106 l-49 58 34 30 c33 29 35 29
86 19 42 -9 62 -9 102 3 28 8 62 17 76 20 31 6 108 55 114 73 9 21 -88 372
-119 434 -9 18 -29 47 -44 62 -23 26 -24 30 -10 41 15 10 14 17 -12 75 -30 67
-79 212 -82 246 -2 11 -15 39 -30 62 -15 24 -27 44 -27 47 0 2 10 6 23 10 50
12 70 87 51 187 -14 73 -11 92 23 130 12 15 10 17 -15 22 -39 8 -102 93 -91
122 12 32 10 42 -15 72 -13 15 -25 37 -27 47 -5 26 -20 28 -41 5z m-95 -903
c18 -39 12 -46 -46 -46 -18 0 -41 -7 -51 -15 -14 -11 -44 -15 -105 -14 -94 1
-149 12 -118 23 9 3 25 9 35 13 9 3 21 5 27 4 9 -2 34 5 185 53 25 8 48 15 51
15 3 1 13 -14 22 -33z m-378 -29 c33 -17 1 -19 -38 -2 -20 8 -37 18 -37 20 0
7 50 -5 75 -18z m465 -152 c0 -19 -11 -19 -36 0 -18 14 -18 14 9 15 17 0 27
-5 27 -15z"/>
</g>
</svg>
