<?xml version="1.0" standalone="no"?>
<!DOCTYPE svg PUBLIC "-//W3C//DTD SVG 20010904//EN"
 "http://www.w3.org/TR/2001/REC-SVG-20010904/DTD/svg10.dtd">
<svg version="1.0" xmlns="http://www.w3.org/2000/svg"
 width="480.000000pt" height="360.000000pt" viewBox="0 0 480.000000 360.000000"
 preserveAspectRatio="xMidYMid meet">
<metadata>
Created by potrace 1.16, written by Peter Selinger 2001-2019
</metadata>
<rect width="1" height="360" fill="#000000"/>
<rect x="479" width="1" height="360" fill="#000000"/>
<rect width="480" height="1" fill="#000000"/>
<rect y="359" width="480" height="1" fill="#000000"/>
<g transform="translate(0.000000,360.000000) scale(0.100000,-0.100000)"
fill="#000000" stroke="none">
<path d="M0 1800 l0 -1800 283 0 282 1 120 155 c134 174 161 224 146 263 -24
61 -30 114 -15 142 8 16 14 50 14 78 0 32 6 55 16 66 15 15 15 39 0 76 -5 11
-1 18 13 22 16 4 21 14 22 44 2 60 8 115 13 120 3 3 19 8 36 12 28 5 34 14 67
95 31 79 35 97 30 153 l-5 63 44 38 c23 21 70 49 104 63 57 23 59 24 33 31
-21 6 -41 2 -81 -18 -67 -34 -95 -29 -192 30 -41 25 -79 46 -85 46 -7 0 -44
-27 -83 -60 -40 -33 -74 -60 -77 -60 -9 0 16 53 45 94 58 80 142 336 195 591
18 88 31 162 28 165 -3 3 -8 -1 -10 -7 -9 -25 -51 -12 -179 53 -71 37 -131 69
-134 71 -2 2 4 19 14 37 17 32 17 36 0 83 -26 74 -17 86 58 81 55 -4 67 -1
103 22 22 15 57 33 77 39 50 16 63 33 47 62 -19 36 -5 199 26 304 35 120 88
218 155 285 98 100 198 142 378 160 51 5 100 14 108 21 9 7 29 33 46 58 17 25
47 63 66 84 l36 37 -872 0 -872 0 0 -1800z m80 866 c0 -3 -4 -8 -10 -11 -5 -3
-10 -1 -10 4 0 6 5 11 10 11 6 0 10 -2 10 -4z m210 -1740 c0 -45 -36 -60 -75
-32 -16 12 -17 16 -6 30 17 20 81 22 81 2z"/>
<path d="M1845 3539 c25 -34 54 -78 66 -98 19 -35 26 -39 86 -50 150 -28 272
-96 378 -213 63 -70 136 -208 160 -303 19 -76 19 -195 0 -240 -12 -30 -12 -41
-1 -73 17 -46 51 -105 89 -155 21 -27 27 -44 23 -62 -6 -25 -48 -60 -81 -67
-11 -2 -19 -10 -18 -18 1 -8 11 -86 22 -173 20 -157 21 -159 59 -205 65 -81
69 -87 52 -77 -8 4 -30 19 -47 32 -18 13 -33 21 -33 17 0 -4 16 -35 35 -70 19
-34 35 -65 35 -69 0 -3 -13 3 -30 15 -36 26 -36 33 -15 -137 10 -79 23 -138
35 -161 20 -37 27 -102 12 -102 -5 0 -14 12 -21 28 -22 49 -63 102 -80 102 -9
0 -48 -13 -86 -30 -83 -35 -109 -37 -154 -9 -23 14 -37 17 -44 10 -7 -7 9 -18
49 -36 32 -14 107 -49 167 -77 112 -54 114 -56 120 -128 2 -32 -1 -35 -26 -38
-26 -3 -27 -5 -14 -20 42 -46 71 -131 112 -318 4 -19 10 -21 50 -16 50 5 51 4
29 -39 -8 -17 -21 -62 -29 -101 -11 -59 -11 -77 0 -109 18 -51 61 -104 105
-130 l35 -21 -28 -14 c-15 -8 -27 -23 -27 -34 0 -10 -9 -26 -21 -34 -32 -22
-19 -41 24 -38 31 3 160 -17 219 -34 10 -3 19 3 23 17 8 25 25 24 159 -12 68
-18 90 -21 94 -11 7 21 64 13 147 -19 62 -24 84 -28 97 -20 27 17 41 14 118
-25 54 -27 78 -34 100 -29 29 6 87 -20 149 -67 14 -10 32 -16 45 -12 15 3 35
-6 66 -30 l45 -36 353 0 352 0 0 1800 0 1800 -1500 0 -1500 0 45 -61z m2393
-807 c3 -9 -3 -9 -20 -3 -13 4 -25 17 -27 27 -3 17 -2 17 20 3 13 -9 25 -21
27 -27z m-906 -394 c8 -28 8 -56 -1 -110 -12 -70 -31 -115 -31 -72 0 10 -12
51 -25 89 -14 39 -25 84 -25 101 0 28 3 30 35 30 32 0 36 -3 47 -38z"/>
</g>
</svg>
