<?xml version="1.0" standalone="no"?>
<!DOCTYPE svg PUBLIC "-//W3C//DTD SVG 20010904//EN"
 "http://www.w3.org/TR/2001/REC-SVG-20010904/DTD/svg10.dtd">
<svg version="1.0" xmlns="http://www.w3.org/2000/svg"
 width="480.000000pt" height="360.000000pt" viewBox="0 0 480.000000 360.000000"
 preserveAspectRatio="xMidYMid meet">
<metadata>
Created by potrace 1.16, written by Peter Selinger 2001-2019
</metadata>
<rect width="1" height="360" fill="#000000"/>
<rect x="479" width="1" height="360" fill="#000000"/>
<rect width="480" height="1" fill="#000000"/>
<rect y="359" width="480" height="1" fill="#000000"/>
<g transform="translate(0.000000,360.000000) scale(0.100000,-0.100000)"
fill="#000000" stroke="none">
<path d="M2542 2057 c-46 -38 -118 -62 -161 -54 -38 8 -53 -10 -42 -49 6 -22
2 -40 -16 -75 -23 -43 -23 -48 -10 -87 l15 -42 -28 0 c-14 0 -30 3 -34 8 -4 4
-26 12 -49 17 -31 8 -43 17 -47 35 -3 14 -11 26 -18 26 -7 1 -13 2 -14 3 -2 2
-16 4 -31 6 -24 3 -30 -1 -39 -26 -5 -16 -13 -29 -16 -29 -17 0 -72 41 -88 65
-37 57 -94 8 -94 -82 0 -30 5 -63 10 -74 15 -26 52 -24 79 5 13 13 31 26 42
29 15 4 19 0 19 -22 0 -15 5 -32 10 -37 8 -8 1 -40 -21 -104 -38 -114 -32
-140 28 -140 21 0 57 6 80 13 23 7 61 11 83 9 38 -4 39 -5 32 -31 -13 -49 -7
-184 11 -219 16 -32 15 -36 -3 -71 -10 -21 -31 -75 -45 -122 -56 -177 -67
-200 -121 -259 -40 -43 -55 -67 -60 -98 -11 -72 7 -97 102 -142 45 -22 91 -40
102 -40 17 0 19 -9 20 -82 1 -46 8 -110 15 -144 9 -40 10 -70 4 -88 -6 -19 -5
-35 3 -51 8 -14 10 -38 5 -64 l-7 -41 56 0 c31 0 56 2 56 4 0 2 -6 21 -13 42
-13 38 -19 385 -7 397 3 3 38 7 78 10 88 5 92 2 128 -126 25 -85 34 -228 20
-294 l-8 -33 66 0 c63 0 66 1 66 24 0 14 -5 37 -11 53 -7 15 -13 55 -15 88
-10 157 -22 243 -38 280 -13 29 -18 64 -17 129 0 49 -6 121 -14 160 -8 39 -24
134 -35 210 -12 89 -28 155 -42 185 -28 58 -29 67 -12 82 18 15 18 33 -2 70
-22 43 -5 91 39 110 22 10 40 30 61 71 32 64 36 106 12 123 -12 9 -16 28 -16
71 1 83 13 126 45 158 28 28 28 29 9 45 -35 28 -77 127 -68 158 18 67 -3 82
-54 40z m-277 -347 c11 -17 -5 -32 -21 -19 -8 6 -14 15 -14 20 0 12 27 11 35
-1z m52 -4 c-3 -8 1 -20 9 -26 8 -7 14 -21 14 -32 0 -14 -6 -19 -22 -16 -27 4
-35 36 -18 67 12 24 25 28 17 7z m-137 -90 c0 -12 -40 -46 -55 -46 -3 0 1 14
10 30 16 31 45 41 45 16z"/>
<path d="M1000 2062 c-9 -10 -14 -31 -12 -53 3 -34 -2 -41 -58 -90 -33 -30
-66 -54 -73 -54 -27 -1 -57 -17 -57 -32 0 -9 10 -31 21 -50 17 -26 20 -43 15
-74 -8 -48 5 -74 44 -94 19 -10 30 -23 30 -37 0 -12 8 -30 17 -40 15 -17 15
-20 -5 -38 -12 -12 -24 -33 -27 -48 -3 -15 -12 -40 -20 -55 -8 -16 -15 -33
-15 -37 0 -5 -14 -38 -31 -74 -32 -66 -56 -87 -184 -155 -22 -12 -52 -30 -66
-42 -18 -14 -46 -22 -90 -26 -35 -3 -75 -11 -89 -18 -32 -16 -60 -5 -80 31
-14 24 -24 29 -61 32 -24 1 -91 -6 -149 -16 l-105 -18 -3 -104 -2 -105 92 -39
c51 -22 192 -83 313 -137 121 -53 247 -108 280 -122 58 -24 60 -26 65 -68 5
-45 11 -50 82 -78 l26 -10 -24 -73 c-14 -40 -28 -92 -31 -115 -7 -51 12 -84
95 -166 l58 -58 93 3 92 3 -32 50 c-17 28 -40 74 -50 104 -10 29 -28 73 -40
97 -22 43 -22 44 -3 80 21 39 46 53 108 58 43 4 166 57 186 81 8 10 4 38 -19
117 -61 208 -112 351 -141 394 -29 41 -30 47 -24 116 3 40 11 91 19 113 33
100 33 206 0 215 -11 3 -21 16 -23 29 -2 13 1 21 6 17 5 -3 26 1 46 9 39 17
66 58 66 103 0 33 -28 131 -42 149 -6 8 -2 25 11 52 12 22 21 42 21 44 0 2
-18 10 -39 17 -50 16 -106 72 -97 95 6 15 -60 134 -74 134 -3 -1 -12 -8 -20
-17z m-151 -1007 c1 -14 -13 -29 -39 -45 -22 -14 -40 -28 -40 -32 0 -12 -138
-9 -145 2 -3 6 2 10 11 10 9 0 33 12 53 28 19 15 60 41 91 59 59 34 67 31 69
-22z m-249 -79 c0 -11 -19 -15 -25 -6 -3 5 1 10 9 10 9 0 16 -2 16 -4z m265
-107 c-3 -4 -12 -6 -20 -3 -8 4 -13 10 -10 15 3 4 12 6 20 3 8 -4 13 -10 10
-15z"/>
<path d="M4026 2011 c4 -28 3 -41 -5 -41 -6 0 -11 -8 -11 -18 0 -11 -9 -27
-21 -38 -11 -10 -37 -45 -57 -77 -30 -49 -39 -57 -58 -53 -33 9 -35 -14 -7
-52 22 -29 24 -41 20 -93 -2 -33 2 -85 9 -116 7 -31 11 -60 8 -65 -3 -4 0 -8
6 -8 20 0 -1 -20 -43 -40 -22 -11 -55 -20 -73 -20 -48 0 -64 -30 -84 -168
l-13 -83 29 -30 c32 -33 59 -37 87 -12 16 14 19 15 15 3 -3 -8 -11 -32 -18
-52 -12 -33 -12 -39 3 -56 22 -24 21 -37 -4 -71 -15 -21 -23 -58 -35 -162 -9
-84 -25 -169 -44 -229 -48 -152 -48 -151 -5 -199 27 -30 52 -45 91 -57 67 -19
79 -51 40 -109 -28 -41 -46 -95 -46 -137 0 -27 1 -28 58 -28 l58 0 36 63 c38
66 58 124 58 170 0 25 3 27 39 27 21 0 43 -6 49 -12 20 -25 42 -122 42 -185
l0 -63 61 0 62 0 -6 93 c-4 50 -9 119 -12 152 l-6 60 59 37 c46 29 61 45 66
69 8 40 -23 131 -81 239 -25 47 -65 121 -88 165 -23 44 -51 96 -63 115 l-21
35 45 70 c45 69 46 71 40 133 -4 50 -2 64 10 69 20 8 67 -13 153 -69 40 -26
83 -48 94 -48 11 0 51 11 89 25 38 14 77 25 87 25 10 0 24 6 30 14 20 24 69
30 96 12 33 -22 35 -21 35 18 0 22 -8 44 -22 59 -24 25 -88 62 -88 51 0 -4 -8
0 -17 8 -12 10 -34 15 -63 13 -29 -2 -63 5 -95 20 -27 12 -79 27 -115 34 -68
13 -120 35 -120 51 0 18 5 25 18 25 7 0 16 6 21 13 5 8 10 13 12 11 2 -1 24
10 49 26 25 15 62 39 83 52 22 14 36 27 33 30 -8 8 24 43 38 43 6 0 0 -9 -14
-20 -33 -26 -16 -25 26 1 36 22 39 26 25 48 -7 11 -19 7 -62 -21 -68 -44 -258
-154 -283 -164 -16 -6 -17 -4 -11 17 4 12 14 30 23 38 8 8 21 30 29 49 12 29
12 41 -2 88 -14 48 -14 57 0 83 8 17 15 42 15 57 0 21 -3 25 -17 19 -36 -15
-54 -9 -123 40 -44 32 -71 59 -75 75 -17 72 -21 84 -33 88 -9 3 -11 -6 -6 -37z"/>
</g>
</svg>
