<?xml version="1.0" standalone="no"?>
<!DOCTYPE svg PUBLIC "-//W3C//DTD SVG 20010904//EN"
 "http://www.w3.org/TR/2001/REC-SVG-20010904/DTD/svg10.dtd">
<svg version="1.0" xmlns="http://www.w3.org/2000/svg"
 width="480.000000pt" height="360.000000pt" viewBox="0 0 480.000000 360.000000"
 preserveAspectRatio="xMidYMid meet">
<metadata>
Created by potrace 1.16, written by Peter Selinger 2001-2019
</metadata>
<rect width="1" height="360" fill="#000000"/>
<rect x="479" width="1" height="360" fill="#000000"/>
<rect width="480" height="1" fill="#000000"/>
<rect y="359" width="480" height="1" fill="#000000"/>
<g transform="translate(0.000000,360.000000) scale(0.100000,-0.100000)"
fill="#000000" stroke="none">
<path d="M2573 1735 c-81 -22 -121 -42 -210 -101 -97 -65 -223 -195 -276 -285
-52 -88 -82 -188 -82 -274 0 -60 5 -81 33 -137 21 -43 48 -78 77 -103 38 -31
45 -42 45 -72 0 -49 55 -148 106 -190 107 -87 309 -114 499 -67 240 60 433
188 486 322 37 92 32 190 -14 329 -20 62 -37 118 -37 125 0 7 -12 35 -25 63
-13 27 -21 53 -16 58 5 5 26 14 47 22 47 16 56 41 18 51 -18 5 -41 0 -72 -15
-54 -27 -45 -33 -154 109 -76 98 -141 149 -218 170 -49 14 -145 11 -207 -5z"/>
</g>
</svg>
