<?xml version="1.0" standalone="no"?>
<!DOCTYPE svg PUBLIC "-//W3C//DTD SVG 20010904//EN"
 "http://www.w3.org/TR/2001/REC-SVG-20010904/DTD/svg10.dtd">
<svg version="1.0" xmlns="http://www.w3.org/2000/svg"
 width="480.000000pt" height="360.000000pt" viewBox="0 0 480.000000 360.000000"
 preserveAspectRatio="xMidYMid meet">
<metadata>
Created by potrace 1.16, written by Peter Selinger 2001-2019
</metadata>
<rect width="1" height="360" fill="#000000"/>
<rect x="479" width="1" height="360" fill="#000000"/>
<rect width="480" height="1" fill="#000000"/>
<rect y="359" width="480" height="1" fill="#000000"/>
<g transform="translate(0.000000,360.000000) scale(0.100000,-0.100000)"
fill="#000000" stroke="none">
<path d="M0 1800 l0 -1800 2400 0 2400 0 0 1800 0 1800 -731 0 -731 0 7 -132
c15 -282 -62 -564 -218 -801 -33 -51 -99 -130 -155 -185 -303 -302 -717 -433
-1142 -363 -174 29 -368 108 -492 201 -29 22 -55 40 -58 40 -10 0 -186 181
-217 222 -78 104 -96 132 -152 239 -34 64 -61 127 -61 140 0 13 -9 48 -19 77
-41 111 -54 212 -49 392 l3 170 -392 0 -393 0 0 -1800z"/>
</g>
</svg>
