<?xml version="1.0" standalone="no"?>
<!DOCTYPE svg PUBLIC "-//W3C//DTD SVG 20010904//EN"
 "http://www.w3.org/TR/2001/REC-SVG-20010904/DTD/svg10.dtd">
<svg version="1.0" xmlns="http://www.w3.org/2000/svg"
 width="480.000000pt" height="360.000000pt" viewBox="0 0 480.000000 360.000000"
 preserveAspectRatio="xMidYMid meet">
<metadata>
Created by potrace 1.16, written by Peter Selinger 2001-2019
</metadata>
<rect width="1" height="360" fill="#000000"/>
<rect x="479" width="1" height="360" fill="#000000"/>
<rect width="480" height="1" fill="#000000"/>
<rect y="359" width="480" height="1" fill="#000000"/>
<g transform="translate(0.000000,360.000000) scale(0.100000,-0.100000)"
fill="#000000" stroke="none">
<path d="M0 1800 l0 -1800 879 0 879 0 12 38 c35 109 81 198 115 221 19 13 35
31 35 40 0 9 5 57 10 106 21 203 40 443 40 503 0 48 -3 56 -40 92 -22 22 -40
44 -40 49 0 5 -9 12 -20 16 -18 6 -25 23 -44 105 -3 17 -21 34 -53 51 -33 18
-49 34 -55 54 -7 26 -1 35 52 91 37 39 60 71 60 85 0 12 -3 20 -6 16 -3 -3
-26 3 -50 13 -44 19 -44 19 -34 0 14 -26 13 -30 -8 -30 -19 0 -73 47 -109 95
l-23 30 20 -55 c24 -65 23 -63 8 -53 -7 4 -20 6 -28 5 -36 -6 -141 196 -160
306 -4 23 -9 44 -12 47 -3 3 -16 -10 -29 -30 -22 -31 -39 -45 -39 -29 0 3 14
36 30 74 39 88 40 113 4 76 -15 -14 -35 -26 -45 -26 -16 0 -15 8 12 83 81 222
138 341 210 438 76 103 197 193 361 269 60 28 98 51 98 60 0 30 -103 209 -171
295 -118 149 -243 235 -499 341 -93 38 -269 133 -332 177 l-66 47 -481 0 -481
0 0 -1800z"/>
<path d="M1887 3536 c77 -82 137 -161 202 -266 29 -47 50 -76 48 -65 -16 58
-83 269 -104 328 l-25 67 -90 0 -90 0 59 -64z"/>
<path d="M2540 3585 c0 -9 11 -91 24 -183 26 -175 39 -280 56 -447 7 -67 15
-104 25 -111 8 -6 44 -14 79 -18 142 -14 330 -83 434 -159 26 -19 74 -48 107
-65 33 -16 92 -55 130 -87 56 -45 79 -73 119 -143 84 -150 102 -193 156 -357
92 -283 165 -721 215 -1285 8 -96 21 -202 29 -235 13 -62 117 -419 135 -467
l11 -28 370 0 370 0 0 1800 0 1800 -1130 0 c-1011 0 -1130 -2 -1130 -15z"/>
<path d="M2224 850 c-12 -5 -25 -13 -28 -18 -6 -11 -26 -175 -21 -180 1 -2 26
14 53 35 38 28 50 43 47 58 -2 11 -7 41 -10 68 -7 50 -8 51 -41 37z"/>
</g>
</svg>
