<?xml version="1.0" standalone="no"?>
<!DOCTYPE svg PUBLIC "-//W3C//DTD SVG 20010904//EN"
 "http://www.w3.org/TR/2001/REC-SVG-20010904/DTD/svg10.dtd">
<svg version="1.0" xmlns="http://www.w3.org/2000/svg"
 width="480.000000pt" height="360.000000pt" viewBox="0 0 480.000000 360.000000"
 preserveAspectRatio="xMidYMid meet">
<metadata>
Created by potrace 1.16, written by Peter Selinger 2001-2019
</metadata>
<rect width="1" height="360" fill="#000000"/>
<rect x="479" width="1" height="360" fill="#000000"/>
<rect width="480" height="1" fill="#000000"/>
<rect y="359" width="480" height="1" fill="#000000"/>
<g transform="translate(0.000000,360.000000) scale(0.100000,-0.100000)"
fill="#000000" stroke="none">
<path d="M2320 2278 c-132 -11 -348 -49 -465 -83 -89 -26 -157 -52 -505 -194
-205 -84 -436 -160 -572 -190 -99 -21 -416 -61 -488 -61 -22 0 -40 -4 -40 -10
0 -5 6 -10 13 -10 38 0 343 -42 407 -56 85 -18 234 -58 277 -75 15 -6 136 -43
268 -84 132 -40 305 -93 385 -118 220 -68 276 -84 385 -106 141 -28 261 -43
324 -39 l54 3 -136 55 c-154 62 -147 55 -258 248 l-49 84 10 122 c5 66 13 135
16 151 7 35 64 113 148 205 65 71 71 73 275 119 l83 18 87 -34 c47 -18 100
-40 116 -47 17 -8 42 -17 57 -21 19 -5 36 -23 59 -63 17 -32 56 -94 85 -138
l53 -81 -9 -84 c-6 -46 -10 -116 -10 -154 l0 -71 -46 -44 c-25 -25 -72 -79
-105 -122 -46 -60 -66 -78 -91 -83 -101 -21 -244 -59 -253 -67 -14 -14 319 -1
441 17 223 34 411 95 827 269 342 143 438 165 829 192 54 3 95 10 92 15 -3 5
-18 9 -34 9 -59 0 -288 41 -393 71 -59 17 -206 64 -325 106 -749 260 -971 324
-1194 348 -160 16 -163 16 -318 3z"/>
</g>
</svg>
