<?xml version="1.0" standalone="no"?>
<!DOCTYPE svg PUBLIC "-//W3C//DTD SVG 20010904//EN"
 "http://www.w3.org/TR/2001/REC-SVG-20010904/DTD/svg10.dtd">
<svg version="1.0" xmlns="http://www.w3.org/2000/svg"
 width="480.000000pt" height="360.000000pt" viewBox="0 0 480.000000 360.000000"
 preserveAspectRatio="xMidYMid meet">
<metadata>
Created by potrace 1.16, written by Peter Selinger 2001-2019
</metadata>
<rect width="1" height="360" fill="#000000"/>
<rect x="479" width="1" height="360" fill="#000000"/>
<rect width="480" height="1" fill="#000000"/>
<rect y="359" width="480" height="1" fill="#000000"/>
<g transform="translate(0.000000,360.000000) scale(0.100000,-0.100000)"
fill="#000000" stroke="none">
<path d="M0 1800 l0 -1800 515 0 514 0 16 52 c8 28 15 67 15 85 l0 33 -66 0
c-36 0 -73 4 -83 10 -10 5 -24 30 -31 55 -16 56 -47 82 -108 90 -145 17 -175
25 -209 51 -32 25 -38 26 -74 15 -48 -14 -56 -10 -64 33 -5 25 0 46 20 85 14
28 23 56 20 61 -9 15 14 50 33 50 10 0 31 14 47 30 22 23 25 30 12 30 -26 0
-21 11 23 55 22 22 55 57 74 78 19 20 40 35 48 32 7 -3 36 15 63 40 48 43 49
45 20 39 -29 -6 -28 -5 25 52 30 32 58 60 62 62 9 5 128 148 165 201 32 45 32
45 13 63 -11 11 -20 23 -20 28 0 6 -9 10 -19 10 -13 0 -32 -23 -63 -77 -33
-59 -49 -78 -66 -79 -12 -1 -28 -7 -36 -13 -16 -14 -56 -6 -56 10 0 6 -5 7
-11 4 -6 -4 -9 -1 -8 6 1 8 -1 21 -5 31 -11 23 46 152 95 217 51 67 53 74 74
257 15 127 23 159 50 214 24 49 31 74 27 103 -2 20 -8 37 -12 37 -4 0 -24 -31
-44 -70 -22 -41 -42 -67 -49 -64 -12 4 -117 -151 -117 -173 0 -6 -7 -16 -15
-23 -18 -15 -19 -3 -4 37 5 15 11 42 13 61 l2 33 -22 -28 c-12 -15 -47 -69
-76 -120 -29 -51 -56 -92 -60 -93 -5 0 -8 17 -8 37 0 46 -15 34 -33 -27 -20
-71 -45 -58 -48 25 l0 30 -16 -32 c-18 -36 -38 -45 -30 -13 4 14 -8 6 -33 -22
l-39 -43 -1 30 c-1 27 -2 28 -14 13 -14 -19 -32 -25 -21 -8 3 6 2 10 -3 10 -5
0 -14 -11 -20 -25 l-12 -25 -30 32 c-28 29 -30 36 -24 77 11 78 53 242 67 265
8 11 22 46 32 76 28 88 57 124 260 325 189 186 193 191 213 255 11 36 23 97
26 135 8 84 20 123 58 193 39 73 32 92 -32 92 -38 0 -52 5 -64 21 -20 29 -11
45 39 74 23 14 50 34 60 45 29 32 4 64 -82 106 -49 23 -77 43 -83 59 -5 13
-14 26 -19 30 -6 3 -11 11 -11 17 0 16 45 1 160 -53 58 -27 111 -49 117 -49 6
0 20 -12 30 -26 19 -25 20 -25 81 -14 72 13 97 8 113 -23 10 -18 8 -24 -20
-48 -22 -18 -32 -34 -29 -49 3 -19 10 -22 68 -24 75 -2 137 -28 197 -82 21
-20 32 -32 24 -28 -10 5 -12 0 -6 -24 7 -34 -10 -112 -25 -112 -19 0 -10 -32
10 -37 18 -5 19 -11 15 -62 -3 -31 -7 -67 -8 -80 -1 -18 -11 -27 -37 -36 -33
-11 -35 -15 -33 -51 2 -29 10 -45 30 -62 16 -13 50 -42 76 -64 28 -23 57 -59
67 -83 10 -23 49 -73 88 -111 103 -102 107 -114 67 -198 -70 -149 -62 -259 55
-740 61 -251 112 -494 116 -551 3 -60 8 -91 23 -168 7 -31 9 -62 6 -67 -3 -6
-6 -54 -6 -107 0 -133 -6 -163 -33 -163 -43 0 -62 -12 -93 -60 -40 -60 -63
-67 -155 -52 -94 16 -153 15 -172 -3 -12 -12 -46 -107 -46 -129 0 -3 468 -6
1040 -6 779 0 1040 3 1040 12 0 13 -48 182 -61 217 -9 21 -13 22 -47 15 -73
-15 -103 -7 -152 40 -29 28 -60 48 -87 56 l-43 11 0 68 c0 50 -4 72 -16 82
-14 12 -14 14 0 25 15 11 15 14 0 47 -21 44 -13 110 13 100 14 -5 15 0 8 43
-4 27 -10 54 -15 59 -11 14 4 188 29 324 11 63 27 205 36 315 8 111 24 256 35
324 31 190 22 338 -25 418 -43 73 -35 97 67 198 38 37 80 90 93 116 22 43 73
94 152 150 13 9 23 31 27 56 6 40 5 41 -33 52 -36 11 -39 15 -45 61 -3 27 -4
56 0 65 3 9 1 16 -5 16 -22 0 -10 28 14 34 30 8 32 27 5 51 -17 15 -20 29 -18
78 2 53 6 62 35 88 64 55 111 73 197 74 l79 1 54 95 c73 126 84 137 77 73 -5
-42 -17 -85 -49 -169 -15 -38 13 -2 64 84 28 46 51 92 51 102 0 9 7 19 15 22
8 4 26 29 40 57 14 27 27 50 28 50 2 0 2 -20 1 -44 -2 -41 0 -45 24 -50 42
-10 82 -28 82 -36 0 -16 -74 -63 -100 -63 -23 0 -32 -11 -74 -94 l-48 -94 24
-27 c60 -65 95 -158 103 -277 13 -175 43 -240 213 -465 114 -149 163 -238 193
-345 12 -44 37 -114 57 -155 40 -85 55 -180 29 -180 -9 0 -19 -9 -22 -20 -8
-24 -23 -26 -32 -4 -4 12 -8 13 -14 3 -6 -10 -12 -10 -27 4 -25 23 -36 22 -29
-3 8 -33 -9 -23 -57 32 -45 52 -65 57 -26 8 21 -27 25 -40 11 -40 -5 0 -34 33
-64 74 -30 40 -64 76 -75 78 -19 5 -21 -1 -27 -76 -10 -121 -25 -196 -41 -196
-21 0 -18 -13 26 -101 25 -48 39 -88 35 -99 -4 -13 18 -49 72 -122 118 -156
138 -200 163 -353 11 -72 25 -155 30 -186 14 -77 -9 -241 -27 -191 -7 18 -23
4 -23 -20 0 -14 -5 -18 -16 -14 -9 3 -17 6 -19 6 -2 0 -11 22 -20 50 -24 71
-37 62 -15 -10 21 -70 13 -85 -43 -75 -62 12 -113 -11 -185 -81 -71 -69 -72
-70 -196 -64 -52 2 -58 0 -53 -16 3 -11 15 -62 26 -115 11 -53 25 -108 31
-123 l10 -26 430 0 430 0 0 1800 0 1800 -2400 0 -2400 0 0 -1800z"/>
<path d="M1081 2124 c-23 -29 -27 -44 -12 -44 15 0 52 58 42 64 -5 4 -19 -6
-30 -20z"/>
<path d="M1037 2033 c-4 -3 -7 -13 -7 -22 1 -13 3 -13 11 2 11 19 8 33 -4 20z"/>
<path d="M3768 2018 c-6 -17 3 -58 12 -58 13 0 21 35 14 54 -7 19 -21 21 -26
4z"/>
<path d="M3600 1908 c1 -75 34 -134 88 -158 44 -20 50 -17 28 12 -10 13 -15
15 -24 6 -9 -9 -12 -3 -12 27 0 25 -12 59 -35 102 -20 34 -38 63 -40 63 -3 0
-5 -24 -5 -52z"/>
<path d="M1151 1886 c-23 -24 -41 -79 -41 -126 0 -14 12 8 26 50 15 41 31 81
36 88 18 21 2 13 -21 -12z"/>
<path d="M3828 1855 c-7 -32 8 -43 16 -12 8 30 7 37 -3 37 -5 0 -11 -11 -13
-25z"/>
<path d="M1316 1840 c-10 -19 -40 -71 -67 -115 -56 -95 -65 -123 -43 -150 15
-20 16 -20 38 8 12 15 39 58 59 97 34 62 38 75 35 132 l-3 63 -19 -35z"/>
<path d="M3860 1766 c0 -20 31 -98 37 -93 6 7 -18 97 -28 103 -5 3 -9 -2 -9
-10z"/>
<path d="M4070 1630 c0 -27 5 -50 10 -50 6 0 10 23 10 50 0 28 -4 50 -10 50
-5 0 -10 -22 -10 -50z"/>
<path d="M1114 1426 c-17 -6 -32 -14 -34 -19 -6 -17 10 -68 20 -62 11 7 54 86
48 89 -2 1 -17 -3 -34 -8z"/>
<path d="M3132 810 c0 -14 2 -19 5 -12 2 6 2 18 0 25 -3 6 -5 1 -5 -13z"/>
<path d="M3630 180 c0 -109 44 -180 113 -180 44 0 45 -8 -7 121 -33 82 -35 83
-70 86 -34 2 -36 0 -36 -27z"/>
<path d="M1238 83 c-8 -10 -20 -33 -26 -50 l-11 -33 50 0 c47 0 49 1 49 28 0
15 3 37 6 50 6 19 3 22 -23 22 -17 0 -37 -8 -45 -17z"/>
</g>
</svg>
