<?xml version="1.0" standalone="no"?>
<!DOCTYPE svg PUBLIC "-//W3C//DTD SVG 20010904//EN"
 "http://www.w3.org/TR/2001/REC-SVG-20010904/DTD/svg10.dtd">
<svg version="1.0" xmlns="http://www.w3.org/2000/svg"
 width="480.000000pt" height="360.000000pt" viewBox="0 0 480.000000 360.000000"
 preserveAspectRatio="xMidYMid meet">
<metadata>
Created by potrace 1.16, written by Peter Selinger 2001-2019
</metadata>
<rect width="1" height="360" fill="#000000"/>
<rect x="479" width="1" height="360" fill="#000000"/>
<rect width="480" height="1" fill="#000000"/>
<rect y="359" width="480" height="1" fill="#000000"/>
<g transform="translate(0.000000,360.000000) scale(0.100000,-0.100000)"
fill="#000000" stroke="none">
<path d="M0 1800 l0 -1800 725 0 c635 0 725 2 725 15 0 8 11 101 24 207 14
106 28 227 31 268 4 41 13 112 21 156 l14 82 -30 57 c-51 96 -39 189 32 262
41 41 41 43 23 58 -11 8 -23 15 -27 15 -12 0 -9 86 4 117 30 72 37 117 22 140
-18 29 -18 58 1 77 9 8 21 30 27 48 16 47 28 59 50 52 18 -5 20 -3 13 34 -8
49 9 116 37 141 l21 20 -20 131 c-19 128 -19 132 0 145 14 10 22 38 33 116 9
57 27 132 41 167 l25 63 -56 222 c-31 122 -78 305 -106 407 -46 170 -50 193
-49 290 1 58 4 119 8 135 13 64 93 32 145 -59 16 -26 32 -85 46 -166 12 -69
30 -170 40 -225 76 -407 92 -490 96 -494 2 -2 4 248 4 557 l0 562 -960 0 -960
0 0 -1800z"/>
<path d="M1916 2168 c-3 -161 -8 -715 -11 -1231 l-6 -937 322 0 323 0 -37 38
-38 38 12 100 c7 54 18 106 25 114 12 12 20 8 62 -33 l49 -48 21 59 c12 32 22
71 22 85 0 24 -4 27 -51 33 -28 4 -52 12 -54 18 -2 6 -6 23 -9 37 -3 15 -23
51 -43 80 -36 51 -38 59 -45 154 -9 144 -23 269 -32 283 -9 16 4 62 18 62 23
0 35 22 26 46 -7 17 -5 28 7 39 14 14 14 17 -1 34 -21 23 -21 28 11 73 16 23
32 37 40 34 22 -9 26 21 10 63 -13 32 -14 41 -3 50 7 6 15 8 19 5 10 -11 19
37 8 50 -6 7 -18 32 -26 56 -8 24 -24 49 -34 56 -14 10 -20 32 -25 86 -12 115
-22 124 -116 102 -34 -8 -67 -11 -74 -7 -7 5 -36 36 -64 69 -83 101 -118 118
-186 89 -17 -8 -18 -7 -3 16 14 22 12 34 -13 141 -27 111 -27 119 -13 160 9
24 15 54 14 68 -2 39 -38 108 -66 126 -32 21 -32 33 -1 27 34 -7 44 16 16 39
-47 38 -47 37 -54 -274z m85 -336 c-13 -24 -41 -48 -41 -34 0 6 -3 17 -6 25
-5 14 1 17 49 26 4 0 3 -7 -2 -17z m356 -907 c6 10 15 15 21 11 10 -6 35 -77
29 -82 -6 -6 -107 28 -107 36 0 5 5 21 11 37 l11 28 12 -24 c12 -22 14 -23 23
-6z"/>
<path d="M1541 964 c-12 -15 -21 -38 -21 -51 0 -27 26 -83 39 -83 12 0 31 97
25 130 -8 37 -17 38 -43 4z"/>
<path d="M1621 809 c-11 -31 -10 -36 10 -51 12 -10 25 -18 30 -18 16 0 9 54
-10 79 l-18 24 -12 -34z"/>
<path d="M1585 658 c-3 -7 -14 -69 -25 -138 -15 -95 -20 -173 -20 -322 l0
-198 108 0 108 0 17 104 c22 133 21 143 -8 191 -56 92 -74 135 -89 208 -9 42
-16 85 -16 96 0 19 -46 71 -63 71 -4 0 -10 -6 -12 -12z"/>
</g>
</svg>
