<?xml version="1.0" standalone="no"?>
<!DOCTYPE svg PUBLIC "-//W3C//DTD SVG 20010904//EN"
 "http://www.w3.org/TR/2001/REC-SVG-20010904/DTD/svg10.dtd">
<svg version="1.0" xmlns="http://www.w3.org/2000/svg"
 width="480.000000pt" height="360.000000pt" viewBox="0 0 480.000000 360.000000"
 preserveAspectRatio="xMidYMid meet">
<metadata>
Created by potrace 1.16, written by Peter Selinger 2001-2019
</metadata>
<rect width="1" height="360" fill="#000000"/>
<rect x="479" width="1" height="360" fill="#000000"/>
<rect width="480" height="1" fill="#000000"/>
<rect y="359" width="480" height="1" fill="#000000"/>
<g transform="translate(0.000000,360.000000) scale(0.100000,-0.100000)"
fill="#000000" stroke="none">
<path d="M0 1800 l0 -1800 875 0 875 0 -3 22 c-2 19 9 28 53 50 89 45 200 76
314 89 l107 13 -7 45 c-12 84 -11 84 -116 45 -172 -64 -310 -104 -361 -104
-45 0 -54 4 -92 43 -29 29 -48 60 -60 99 -18 55 -18 60 0 135 10 43 33 130 52
193 33 109 34 116 19 142 -16 26 -15 30 28 117 l45 90 -21 48 c-19 42 -20 54
-10 100 14 65 70 162 159 273 78 96 131 132 228 150 34 6 66 15 73 19 7 4 15
84 22 217 11 203 11 214 -9 278 -34 110 -46 236 -32 328 7 44 11 81 9 82 -9 8
-272 30 -325 28 -35 -1 -63 1 -63 4 0 24 121 184 183 241 l45 42 -54 54 c-65
65 -68 84 -16 92 96 16 94 15 89 44 -48 275 -49 283 -38 294 10 9 19 4 43 -23
17 -19 63 -71 102 -115 40 -44 85 -96 100 -116 28 -36 29 -36 59 -21 36 18
149 28 397 36 211 7 359 -4 397 -29 20 -14 30 -15 50 -6 13 6 34 11 46 11 14
0 30 13 44 33 34 50 180 203 187 196 4 -3 2 -37 -4 -75 -17 -113 -26 -248 -18
-274 4 -14 9 -36 12 -50 5 -22 14 -27 85 -43 127 -28 273 -77 269 -89 -5 -14
-98 -50 -206 -79 -81 -22 -83 -23 -58 -36 31 -16 34 -38 7 -52 -24 -13 -193
-41 -248 -41 -39 0 -43 -2 -43 -26 0 -14 5 -35 12 -47 7 -13 13 -67 14 -132 1
-60 9 -216 18 -345 9 -129 16 -292 15 -361 l-2 -126 93 -179 c87 -167 94 -184
98 -249 3 -65 1 -73 -26 -115 l-30 -45 19 -74 c14 -54 16 -78 8 -93 -7 -14 -4
-57 11 -161 28 -178 29 -183 77 -194 34 -8 38 -12 41 -44 2 -20 -6 -58 -17
-86 -17 -43 -18 -60 -11 -119 5 -38 9 -77 10 -86 0 -17 37 -18 640 -18 l640 0
0 1800 0 1800 -2400 0 -2400 0 0 -1800z"/>
<path d="M2126 828 c-8 -18 -19 -57 -26 -86 -7 -29 -23 -66 -36 -82 -13 -15
-24 -30 -24 -33 0 -6 102 17 118 27 20 12 10 206 -10 206 -5 0 -15 -15 -22
-32z"/>
</g>
</svg>
