<?xml version="1.0" standalone="no"?>
<!DOCTYPE svg PUBLIC "-//W3C//DTD SVG 20010904//EN"
 "http://www.w3.org/TR/2001/REC-SVG-20010904/DTD/svg10.dtd">
<svg version="1.0" xmlns="http://www.w3.org/2000/svg"
 width="480.000000pt" height="360.000000pt" viewBox="0 0 480.000000 360.000000"
 preserveAspectRatio="xMidYMid meet">
<metadata>
Created by potrace 1.16, written by Peter Selinger 2001-2019
</metadata>
<rect width="1" height="360" fill="#000000"/>
<rect x="479" width="1" height="360" fill="#000000"/>
<rect width="480" height="1" fill="#000000"/>
<rect y="359" width="480" height="1" fill="#000000"/>
<g transform="translate(0.000000,360.000000) scale(0.100000,-0.100000)"
fill="#000000" stroke="none">
<path d="M3148 2951 c-13 -11 -44 -24 -68 -31 -98 -26 -172 -84 -291 -230 -42
-52 -89 -108 -104 -124 -14 -15 -25 -30 -23 -31 2 -2 22 10 46 26 23 15 42 24
42 19 0 -5 -11 -35 -25 -66 -27 -61 -31 -79 -15 -69 6 4 10 -11 11 -37 0 -45
16 -136 18 -105 2 28 18 20 25 -13 6 -35 26 -40 26 -7 1 21 2 21 25 -7 29 -37
21 -57 -35 -86 -45 -23 -49 -36 -19 -74 14 -18 20 -38 18 -64 -2 -40 5 -77 27
-135 8 -20 14 -48 14 -62 0 -33 35 -55 87 -55 40 0 43 -2 43 -27 0 -48 -14
-60 -51 -46 -35 13 -55 8 -28 -7 9 -5 26 -17 38 -27 l22 -18 -22 -88 c-19 -76
-25 -89 -53 -106 -45 -28 -73 -61 -80 -96 -8 -37 -73 -125 -106 -144 -24 -12
-30 -11 -78 19 -67 41 -88 36 -135 -32 -36 -50 -37 -51 -37 -23 0 43 27 200
44 259 11 37 13 62 6 91 -14 59 -12 267 5 545 18 309 22 347 46 447 22 95 16
123 -33 153 -47 28 -108 26 -142 -5 -30 -27 -32 -54 -14 -151 8 -48 8 -111 -1
-266 -23 -401 -43 -664 -52 -703 -6 -22 -12 -94 -14 -160 -2 -66 -11 -182 -19
-258 -9 -77 -16 -142 -16 -145 0 -17 -28 31 -123 218 -58 113 -115 211 -126
219 -18 11 -26 10 -63 -8 l-43 -21 -58 58 c-32 31 -79 87 -103 124 -25 37 -58
76 -73 87 -34 25 -175 66 -256 76 -33 4 -63 9 -68 12 -14 8 15 45 44 55 28 10
29 12 14 28 -14 16 -14 18 0 23 30 12 14 27 -27 27 -72 0 -86 -8 -114 -66 -30
-61 -30 -112 1 -212 25 -83 53 -105 185 -147 158 -51 190 -71 226 -140 32 -63
37 -51 -48 -111 -75 -52 -151 -200 -169 -331 -20 -143 10 -424 64 -595 22 -69
34 -87 127 -192 l102 -116 170 0 c164 0 170 1 189 22 l18 23 1 -22 c0 -22 3
-23 100 -23 l99 0 7 36 c3 19 3 58 0 86 -4 28 -4 87 0 132 7 79 8 82 82 191
41 60 84 120 95 133 l21 22 15 -63 c12 -45 32 -84 74 -141 66 -91 72 -109 88
-273 l12 -123 703 0 704 0 0 73 c-1 129 -18 357 -44 572 -14 116 -32 272 -41
348 l-15 138 30 159 c78 408 97 670 64 884 -17 114 -67 279 -96 315 -10 13
-25 47 -33 75 -41 140 -154 257 -310 323 -71 30 -211 54 -326 57 -62 1 -103 6
-111 14 -17 17 -42 15 -70 -7z m-1732 -1277 c13 -3 24 -10 24 -15 0 -14 -43
-10 -62 5 -22 17 -23 30 -2 22 9 -3 27 -9 40 -12z"/>
<path d="M1486 2578 c-9 -12 -16 -30 -16 -40 0 -15 -5 -14 -36 7 -20 14 -42
25 -48 26 -6 0 -19 2 -28 4 -27 5 -21 -19 16 -68 l35 -45 -28 -10 c-15 -5 -42
-28 -60 -51 l-33 -41 44 0 c23 1 61 7 83 15 49 18 45 18 45 0 0 -21 28 -75 39
-75 11 0 35 59 34 83 -2 14 2 17 15 12 40 -17 62 -17 62 -1 0 18 -34 56 -50
56 -20 0 -9 21 15 30 37 14 30 23 -11 15 -34 -6 -36 -5 -31 15 6 24 -10 90
-23 90 -5 0 -16 -10 -24 -22z"/>
</g>
</svg>
