<?xml version="1.0" standalone="no"?>
<!DOCTYPE svg PUBLIC "-//W3C//DTD SVG 20010904//EN"
 "http://www.w3.org/TR/2001/REC-SVG-20010904/DTD/svg10.dtd">
<svg version="1.0" xmlns="http://www.w3.org/2000/svg"
 width="480.000000pt" height="360.000000pt" viewBox="0 0 480.000000 360.000000"
 preserveAspectRatio="xMidYMid meet">
<metadata>
Created by potrace 1.16, written by Peter Selinger 2001-2019
</metadata>
<rect width="1" height="360" fill="#000000"/>
<rect x="479" width="1" height="360" fill="#000000"/>
<rect width="480" height="1" fill="#000000"/>
<rect y="359" width="480" height="1" fill="#000000"/>
<g transform="translate(0.000000,360.000000) scale(0.100000,-0.100000)"
fill="#000000" stroke="none">
<path d="M0 1800 l0 -1800 865 0 865 0 10 23 c5 12 26 62 48 112 22 50 56 142
77 205 52 160 112 318 137 360 29 49 26 97 -11 177 -18 37 -38 96 -45 130 -13
61 -13 63 9 77 21 14 28 14 70 0 25 -9 49 -13 53 -10 3 4 8 63 10 132 4 125 4
126 -17 120 -11 -3 -30 -9 -41 -12 -21 -6 -90 30 -90 47 0 5 9 9 20 9 11 0 20
5 20 10 0 6 -6 10 -13 10 -8 0 -21 8 -30 18 -14 15 -28 18 -72 14 -40 -3 -62
0 -80 12 -13 9 -34 16 -46 16 -11 0 -34 14 -50 31 l-28 30 -95 -7 c-92 -6 -95
-6 -120 19 -20 21 -26 36 -26 72 0 72 36 97 182 129 17 4 29 16 36 35 7 19 19
31 38 35 15 4 41 18 57 32 36 30 52 30 78 0 20 -23 24 -24 126 -18 l105 5 -17
-27 c-20 -30 -14 -31 49 -14 37 10 45 16 50 41 8 38 -2 53 -19 30 -12 -16 -13
-10 -8 39 7 68 -2 109 -21 102 -9 -3 -16 5 -19 23 -20 96 -24 108 -37 105 -10
-2 -12 17 -7 97 4 89 3 101 -14 117 -10 9 -22 33 -25 52 -6 29 -3 39 14 52 15
12 18 20 10 28 -7 7 -1 22 22 51 42 51 65 59 94 32 29 -27 36 -26 36 2 0 30
18 47 51 47 14 0 41 5 59 12 26 9 35 9 38 0 6 -20 20 -13 34 16 17 36 48 39
86 8 31 -27 57 -33 67 -16 12 19 43 10 103 -30 41 -27 62 -49 67 -68 11 -43
23 -52 52 -41 47 18 56 5 32 -42 -20 -39 -20 -44 -5 -78 21 -48 36 -148 36
-246 0 -44 4 -97 9 -117 5 -22 5 -38 0 -38 -5 0 -9 -8 -9 -17 -1 -17 -2 -17
-15 0 -13 18 -14 17 -17 -10 l-4 -28 -11 25 c-6 14 -14 34 -18 45 -5 16 -13 7
-42 -50 -20 -38 -38 -64 -40 -57 -3 7 -14 -1 -27 -20 -27 -40 -19 -48 46 -48
26 0 65 -6 85 -14 21 -8 50 -17 66 -20 46 -11 132 -118 179 -223 25 -57 20
-122 -13 -167 -25 -33 -25 -35 -19 -201 2 -54 -1 -90 -11 -110 -13 -27 -81
-87 -111 -98 -26 -9 -1 -15 106 -26 60 -6 111 -13 114 -15 2 -3 -2 -21 -9 -41
-15 -40 -46 -76 -137 -153 -34 -29 -62 -57 -62 -63 0 -5 -14 -38 -31 -74 l-31
-66 52 -147 c51 -143 75 -199 137 -312 l30 -55 906 -3 907 -2 0 1800 0 1800
-2400 0 -2400 0 0 -1800z"/>
<path d="M2236 1894 c-5 -13 -9 -14 -21 -4 -11 10 -17 5 -30 -26 -8 -20 -14
-38 -13 -40 2 -1 27 -4 56 -5 38 -2 57 2 68 13 18 18 9 42 -12 34 -9 -4 -18 4
-24 19 -11 29 -16 31 -24 9z"/>
<path d="M1964 1445 c-18 -15 -18 -15 10 -13 16 2 31 9 34 16 5 17 -20 15 -44
-3z"/>
</g>
</svg>
