<?xml version="1.0" standalone="no"?>
<!DOCTYPE svg PUBLIC "-//W3C//DTD SVG 20010904//EN"
 "http://www.w3.org/TR/2001/REC-SVG-20010904/DTD/svg10.dtd">
<svg version="1.0" xmlns="http://www.w3.org/2000/svg"
 width="480.000000pt" height="360.000000pt" viewBox="0 0 480.000000 360.000000"
 preserveAspectRatio="xMidYMid meet">
<metadata>
Created by potrace 1.16, written by Peter Selinger 2001-2019
</metadata>
<rect width="1" height="360" fill="#000000"/>
<rect x="479" width="1" height="360" fill="#000000"/>
<rect width="480" height="1" fill="#000000"/>
<rect y="359" width="480" height="1" fill="#000000"/>
<g transform="translate(0.000000,360.000000) scale(0.100000,-0.100000)"
fill="#000000" stroke="none">
<path d="M0 1800 l0 -1800 228 0 228 0 17 103 c27 162 22 291 -13 302 -10 3
-23 20 -29 37 -8 21 -15 29 -27 24 -20 -8 -54 10 -54 28 0 8 7 16 15 20 8 3
15 13 15 23 1 10 21 34 45 53 25 19 47 42 50 50 3 8 18 24 35 35 21 14 28 25
23 35 -15 31 -8 98 12 121 14 16 16 23 8 26 -25 9 -13 29 31 52 l44 24 -24 26
c-13 14 -24 32 -24 39 0 15 -38 71 -60 89 -13 10 -11 13 12 22 21 8 25 15 21
33 -5 19 -3 21 7 11 11 -10 18 -6 37 19 27 38 28 46 7 69 -14 16 -15 21 -1 48
9 17 18 44 22 60 3 16 13 35 21 42 8 6 14 18 14 26 0 7 11 36 25 63 14 27 25
60 25 73 0 23 18 38 173 141 68 46 81 67 50 84 -15 9 -15 16 -5 63 11 50 10
107 -3 205 -4 30 -2 44 10 54 8 7 18 30 21 50 4 26 14 42 31 51 14 7 33 25 44
40 12 17 35 31 63 38 46 11 106 55 186 134 61 61 78 68 164 66 73 -1 122 14
176 57 8 7 44 19 80 28 46 12 71 24 87 43 l23 28 -24 12 c-22 11 -23 15 -14
65 21 126 26 137 93 205 36 36 65 73 65 82 0 23 47 116 67 133 11 9 63 15 167
19 83 3 177 12 208 19 50 12 61 12 90 -3 18 -9 62 -26 98 -39 65 -24 70 -29
102 -103 18 -42 60 -61 90 -41 13 8 28 12 33 8 22 -16 36 -82 29 -140 -6 -54
-4 -60 17 -78 17 -13 24 -30 25 -54 2 -72 17 -180 25 -180 5 0 9 4 9 8 0 4 14
23 31 42 35 41 28 21 -11 -30 l-28 -35 28 -25 27 -25 34 44 c18 24 43 50 55
57 18 12 21 22 18 62 -3 42 -3 43 5 14 12 -46 17 -48 35 -13 16 29 106 137
106 126 0 -12 -125 -187 -136 -192 -7 -2 -10 -11 -7 -19 3 -9 -2 -14 -15 -14
-24 0 -62 -49 -62 -79 0 -15 -5 -21 -17 -19 -15 2 -18 -5 -19 -39 0 -24 3 -43
8 -43 4 0 8 12 8 28 0 19 3 23 9 13 5 -7 6 -21 4 -31 -3 -10 2 -30 10 -45 l14
-28 43 54 c23 30 47 56 52 58 13 4 -47 -85 -63 -95 -8 -5 -8 -8 0 -13 8 -5 3
-17 -14 -37 -24 -28 -34 -64 -16 -64 13 0 32 26 24 33 -3 4 -1 7 6 7 6 0 14
-7 18 -15 4 -12 11 -8 30 17 13 18 27 32 31 31 4 -1 6 5 6 13 -1 8 4 14 12 14
8 0 14 5 14 11 0 5 5 7 11 3 7 -4 -1 -18 -20 -38 -17 -18 -31 -39 -31 -48 0
-10 -12 -19 -31 -23 -35 -8 -51 -39 -36 -72 13 -29 21 -29 41 2 9 14 23 25 30
25 7 0 19 7 26 15 11 13 10 14 -4 9 -9 -3 -16 -3 -16 0 0 4 11 11 25 16 14 5
25 16 25 23 0 8 7 14 15 14 18 0 20 -18 4 -34 -8 -8 -8 -13 0 -18 18 -11 161
133 183 184 10 25 28 51 39 59 11 8 18 20 15 28 -3 8 -1 14 5 14 5 0 12 8 16
18 3 9 17 32 30 49 19 26 23 41 18 70 -5 34 -4 35 6 13 10 -23 11 -24 23 -8 7
10 15 15 18 13 12 -13 -20 -90 -55 -132 -26 -31 -34 -49 -26 -53 7 -5 2 -13
-17 -21 -15 -8 -29 -20 -32 -26 -5 -16 7 -11 106 40 l72 37 -5 73 c-4 60 -3
65 5 30 14 -65 27 -85 49 -74 18 10 75 70 82 88 3 4 20 22 38 38 l34 30 -23
-35 c-13 -19 -33 -45 -44 -58 -20 -22 -20 -23 -1 -17 19 6 19 5 2 -7 -11 -7
-41 -29 -68 -49 -28 -21 -63 -42 -79 -49 -17 -7 -30 -16 -30 -21 0 -11 50 -1
65 12 14 14 25 10 19 -6 -7 -18 -6 -18 35 -4 17 6 31 15 31 20 0 5 8 9 18 9 9
1 27 13 39 28 64 79 65 81 42 39 -12 -21 -19 -40 -17 -43 3 -2 34 9 69 26 35
16 70 30 77 30 7 0 10 4 7 10 -3 6 1 7 10 4 14 -6 14 -8 -2 -20 -10 -7 -21
-14 -25 -14 -17 0 -138 -62 -145 -73 -4 -7 -8 -18 -9 -25 -4 -21 -14 -27 -14
-9 0 20 -1 20 -57 7 -23 -5 -84 -16 -136 -24 -98 -15 -147 -36 -147 -65 -1 -9
-7 -33 -14 -53 -16 -45 -6 -48 40 -13 38 29 41 30 41 10 0 -8 -6 -15 -12 -15
-7 0 -52 -27 -101 -60 -49 -33 -97 -60 -107 -60 -10 0 -27 -5 -38 -10 -11 -6
-19 -7 -19 -1 0 17 -70 -7 -90 -30 -11 -13 -19 -27 -20 -31 0 -14 30 -8 36 6
3 8 13 12 25 9 14 -4 22 0 25 15 5 18 10 19 40 10 19 -5 44 -6 56 -2 13 4 18
2 14 -4 -3 -6 -21 -14 -39 -17 -46 -10 -57 -23 -57 -66 0 -38 1 -39 28 -33
l27 7 -33 -30 c-17 -17 -32 -39 -32 -50 1 -16 2 -16 13 -3 14 18 67 53 72 48
2 -2 -22 -23 -53 -48 -73 -58 -87 -98 -18 -50 58 39 141 76 192 86 45 8 82 25
139 64 30 21 45 41 58 78 19 55 22 137 7 176 -8 22 -7 26 9 26 10 0 23 -10 28
-22 10 -22 11 -20 23 19 7 23 17 40 22 37 5 -3 6 -14 3 -24 -4 -13 1 -22 14
-29 25 -14 49 8 58 50 3 16 9 27 13 24 4 -2 5 -16 2 -30 -5 -29 10 -33 36 -7
20 19 112 54 112 42 0 -4 -20 -15 -45 -26 -38 -15 -45 -22 -45 -46 0 -23 4
-28 23 -28 13 0 27 4 32 9 12 12 105 52 105 46 0 -3 -24 -17 -52 -32 -50 -25
-51 -27 -28 -33 21 -6 22 -8 8 -15 -9 -4 -21 -4 -26 -1 -6 3 -25 0 -42 -8 -30
-12 -31 -14 -14 -25 16 -9 14 -10 -11 -5 -23 4 -41 -2 -78 -26 -26 -18 -47
-35 -47 -39 0 -14 74 -41 135 -50 33 -5 52 -9 43 -10 -10 0 -18 -5 -18 -10 0
-5 -30 -1 -67 9 -91 24 -87 23 -98 20 -5 -2 -19 -3 -30 -4 -12 -1 -28 -15 -40
-38 -13 -26 -40 -48 -90 -77 -64 -37 -67 -40 -39 -41 18 0 61 15 98 33 69 35
92 32 31 -5 -20 -11 -34 -23 -31 -25 5 -6 93 45 102 58 3 5 13 9 22 9 12 0 7
-8 -15 -26 -18 -14 -33 -29 -33 -33 0 -3 26 -11 58 -17 51 -10 58 -9 70 8 19
26 76 78 81 73 2 -3 -13 -23 -33 -45 -46 -51 -50 -85 -4 -43 11 9 18 11 18 5
0 -7 12 -13 28 -13 20 -1 22 -3 7 -6 -49 -11 -51 -14 -26 -34 15 -12 22 -26
18 -39 -3 -10 1 -24 8 -30 10 -8 11 -20 4 -42 -11 -41 -4 -46 30 -26 16 8 34
12 41 8 8 -5 0 -12 -24 -20 -20 -6 -41 -20 -46 -30 -9 -17 -6 -19 27 -23 30
-3 26 -4 -17 -5 -75 -3 -187 -31 -195 -49 -4 -13 1 -14 31 -8 l36 6 -28 -37
c-16 -20 -29 -44 -29 -53 0 -9 -6 -15 -13 -13 -7 1 -15 -5 -19 -13 -3 -9 -18
-29 -34 -45 -50 -50 -37 -63 29 -29 31 16 97 39 146 52 l89 23 12 48 c7 26 20
55 30 64 17 16 17 16 10 -3 -4 -11 -10 -40 -13 -64 -5 -44 -5 -44 23 -37 44
11 77 37 69 55 -16 39 -16 61 0 61 10 0 15 -3 13 -7 -3 -5 -1 -17 4 -28 6 -13
7 0 3 35 -4 33 -14 63 -25 75 -10 11 -28 48 -40 82 -13 34 -28 64 -35 67 -6 2
-23 -2 -37 -9 -24 -12 -37 -11 -37 6 0 4 11 10 25 13 14 4 25 11 25 16 0 6 8
10 18 10 10 0 24 6 31 13 11 10 12 8 3 -9 -8 -15 -7 -26 3 -45 8 -13 18 -32
21 -41 3 -10 11 -18 18 -18 6 0 11 -14 11 -32 0 -17 6 -33 13 -35 6 -3 12 1
12 9 0 7 9 30 20 51 24 44 24 50 6 90 -26 60 -35 92 -41 142 -6 55 -1 49 30
-39 11 -33 26 -62 32 -64 18 -5 17 62 -1 96 -20 39 -32 107 -17 98 6 -4 11
-14 11 -22 0 -8 7 -31 16 -52 14 -33 17 -35 24 -17 5 11 9 48 9 83 1 39 5 61
11 57 20 -12 10 -162 -19 -305 -5 -25 -8 -47 -5 -49 2 -2 17 2 34 9 21 9 29
18 25 28 -4 10 0 12 11 8 8 -3 24 -1 35 4 26 14 24 2 -3 -19 l-21 -18 23 -48
c23 -48 23 -48 41 -27 9 12 24 22 31 22 24 0 54 40 94 125 20 44 39 74 42 67
2 -7 0 -18 -6 -25 -9 -12 -33 -77 -28 -77 1 0 17 20 35 45 17 24 45 52 62 62
18 11 33 29 36 45 3 15 10 25 15 22 5 -3 7 -13 4 -21 -4 -11 -2 -13 9 -9 8 3
15 1 15 -4 0 -6 -5 -10 -11 -10 -20 0 -60 -38 -48 -45 7 -5 -4 -16 -27 -29
-28 -15 -40 -29 -42 -49 l-3 -27 50 26 c31 15 57 37 66 54 19 37 19 46 0 30
-9 -7 -18 -10 -22 -6 -9 8 -1 15 24 19 12 1 28 9 37 16 24 20 32 4 8 -16 -11
-10 -23 -29 -27 -41 -6 -22 -6 -23 17 -11 12 7 29 12 36 11 7 -2 25 6 41 18
49 34 47 22 -4 -31 -46 -46 -101 -89 -150 -114 -21 -11 -32 -46 -34 -109 -1
-39 -1 -39 20 -20 32 29 40 50 29 78 -5 14 -5 28 -1 31 5 3 12 -13 16 -34 l7
-40 61 26 c34 15 71 33 82 40 23 15 35 17 35 4 0 -5 -39 -25 -87 -46 -91 -38
-123 -59 -123 -82 0 -7 -6 -13 -12 -14 -30 -2 -54 -6 -76 -13 -19 -6 -21 -10
-11 -22 10 -13 15 -12 36 7 12 13 23 18 23 12 0 -15 -31 -40 -64 -53 -25 -9
-27 -9 -17 4 9 11 8 15 -5 20 -22 8 -27 2 -20 -22 6 -17 20 -21 89 -28 l82 -8
-60 -8 c-38 -5 -61 -4 -63 2 -5 13 -42 13 -42 1 0 -5 8 -12 18 -14 15 -4 15
-5 -2 -6 -10 -1 -16 -6 -13 -13 18 -45 15 -47 -10 -5 l-28 48 -50 -7 c-27 -3
-63 -13 -78 -21 -15 -7 -32 -11 -37 -8 -6 3 -10 2 -10 -3 0 -6 -24 -16 -52
-22 -63 -15 -124 -38 -157 -59 -13 -8 -47 -23 -74 -33 -69 -24 -177 -90 -256
-155 -67 -56 -78 -67 -133 -134 -23 -27 -64 -52 -164 -99 -74 -35 -134 -69
-134 -76 0 -7 -6 -14 -12 -17 -7 -2 4 -8 25 -12 24 -5 49 -3 65 4 26 11 26 10
7 -4 -17 -14 -18 -17 -5 -25 8 -5 23 -10 33 -10 9 0 17 -7 17 -15 0 -18 0 -18
-36 0 -35 17 -80 21 -111 11 -18 -6 -22 -4 -17 8 7 18 -4 20 -25 7 -13 -8 -13
-12 -1 -26 12 -14 12 -18 -1 -26 -10 -6 -4 -8 18 -5 18 2 30 -1 27 -6 -3 -5 0
-17 7 -26 12 -15 12 -15 -7 0 -30 26 -52 24 -29 -2 10 -11 26 -20 35 -20 9 0
25 -7 36 -15 18 -14 17 -15 -10 -9 -26 6 -28 5 -22 -11 7 -18 6 -18 -12 -1
-19 16 -21 16 -41 -10 l-21 -27 0 36 c0 20 -4 38 -10 42 -5 3 -7 12 -4 19 7
19 -11 29 -23 13 -21 -26 -43 -113 -43 -167 0 -31 9 -101 21 -156 17 -82 20
-123 16 -239 -3 -77 -8 -150 -12 -162 l-7 -23 867 0 868 0 -6 78 c-7 100 -23
138 -64 157 -72 34 -83 100 -35 198 27 53 52 155 52 208 0 9 -9 19 -20 22 -11
3 -28 19 -37 36 -10 17 -24 31 -30 31 -7 0 -13 7 -13 15 0 10 10 15 30 15 27
0 33 6 51 47 27 63 29 85 12 105 -13 15 -17 15 -30 3 -24 -25 -36 -18 -30 18
4 26 1 36 -14 45 -25 16 -26 81 -2 102 43 37 70 50 100 50 l33 0 0 1235 0
1235 -2400 0 -2400 0 0 -1800z m1487 1704 c-9 -9 -28 6 -21 18 4 6 10 6 17 -1
6 -6 8 -13 4 -17z m2093 16 c0 -5 -5 -10 -11 -10 -5 0 -7 5 -4 10 3 6 8 10 11
10 2 0 4 -4 4 -10z m195 -60 c0 -8 -7 -16 -15 -17 -22 -4 -44 13 -35 26 10 17
50 9 50 -9z m-2482 -131 c-22 -23 -46 -18 -36 6 3 8 17 15 31 15 l26 0 -21
-21z m1507 -29 c0 -5 -7 -10 -15 -10 -8 0 -15 5 -15 10 0 6 7 10 15 10 8 0 15
-4 15 -10z m-1633 -154 c1 -1 4 -13 8 -29 6 -23 4 -27 -13 -27 -21 0 -52 34
-52 57 0 9 8 11 28 7 15 -4 28 -7 29 -8z m113 -41 c0 -8 -7 -15 -15 -15 -16 0
-20 12 -8 23 11 12 23 8 23 -8z m2000 -95 c0 -5 -4 -10 -10 -10 -5 0 -10 5
-10 10 0 6 5 10 10 10 6 0 10 -4 10 -10z m660 -71 c14 -25 6 -49 -14 -49 -17
0 -36 29 -36 54 0 23 37 20 50 -5z m349 7 c9 -11 10 -20 1 -35 -16 -32 -30
-25 -30 14 0 37 10 44 29 21z m-2819 -203 c-1 -33 -55 -51 -85 -29 -17 14 -18
17 -5 26 17 11 90 14 90 3z m2071 -70 c-12 -20 -14 -14 -5 12 4 9 9 14 11 11
3 -2 0 -13 -6 -23z m-401 -102 c-8 -5 -28 -11 -45 -14 l-30 -6 30 14 c34 16
72 21 45 6z m637 -7 c-3 -3 -12 -4 -19 -1 -8 3 -5 6 6 6 11 1 17 -2 13 -5z
m203 -353 c0 -5 -9 -7 -20 -4 -11 3 -20 7 -20 9 0 2 9 4 20 4 11 0 20 -4 20
-9z m-83 -57 c-3 -3 -12 -4 -19 -1 -8 3 -5 6 6 6 11 1 17 -2 13 -5z m180 -56
c-3 -8 -6 -5 -6 6 -1 11 2 17 5 13 3 -3 4 -12 1 -19z m238 -69 c0 -7 -8 -15
-17 -17 -18 -3 -25 18 -11 32 10 10 28 1 28 -15z m299 -43 c-21 -15 -30 -14
-19 3 3 6 14 11 23 11 13 0 13 -2 -4 -14z m-4136 -18 c-3 -7 -13 -15 -24 -17
-16 -3 -17 -1 -5 13 16 19 34 21 29 4z m4277 -18 c-3 -5 -12 -10 -18 -10 -7 0
-6 4 3 10 19 12 23 12 15 0z m-385 -54 c-17 -16 -120 -74 -105 -58 6 5 30 24
55 41 47 32 75 41 50 17z m388 -58 c-3 -7 -13 -15 -24 -17 -16 -3 -17 -1 -5
13 16 19 34 21 29 4z m-498 -108 c0 -5 -4 -10 -10 -10 -5 0 -10 5 -10 10 0 6
5 10 10 10 6 0 10 -4 10 -10z m330 -120 c-8 -5 -19 -10 -25 -10 -5 0 -3 5 5
10 8 5 20 10 25 10 6 0 3 -5 -5 -10z m-253 -538 c73 -46 79 -81 17 -96 -14 -4
-37 -21 -53 -38 -23 -26 -36 -32 -82 -35 l-54 -4 -27 46 c-38 62 -36 99 4 137
30 27 37 30 88 26 39 -3 69 -13 107 -36z m-4083 -77 c11 -8 15 -15 10 -15 -6
0 -19 7 -30 15 -10 8 -14 14 -9 14 6 0 19 -6 29 -14z m3306 -196 c0 -22 -40
-42 -65 -33 -22 9 -18 23 9 30 14 3 27 12 30 21 8 19 26 7 26 -18z m-190 -9
c0 -5 -5 -10 -11 -10 -5 0 -7 5 -4 10 3 6 8 10 11 10 2 0 4 -4 4 -10z"/>
<path d="M2835 2601 c-3 -5 -1 -12 5 -16 5 -3 10 1 10 9 0 18 -6 21 -15 7z"/>
<path d="M2840 2548 c0 -9 5 -20 10 -23 13 -8 13 5 0 25 -8 13 -10 13 -10 -2z"/>
<path d="M3488 2393 c6 -2 18 -2 25 0 6 3 1 5 -13 5 -14 0 -19 -2 -12 -5z"/>
<path d="M2913 2313 c-24 -45 -39 -130 -19 -114 7 6 11 24 8 41 -3 18 0 30 7
30 6 0 11 -8 11 -17 1 -11 9 -2 21 20 18 35 19 77 0 77 -4 0 -17 -17 -28 -37z"/>
<path d="M3306 2258 c-104 -112 -108 -131 -17 -81 44 23 52 33 72 85 12 32 19
61 17 64 -3 2 -36 -28 -72 -68z"/>
<path d="M3760 2270 c-8 -5 -11 -12 -8 -16 10 -9 38 3 38 16 0 12 -10 13 -30
0z"/>
<path d="M3712 2227 c-6 -6 -14 -25 -18 -41 -5 -23 -4 -27 7 -21 27 16 59 49
59 62 0 17 -34 17 -48 0z"/>
<path d="M2925 2200 c3 -5 8 -10 11 -10 2 0 4 5 4 10 0 6 -5 10 -11 10 -5 0
-7 -4 -4 -10z"/>
<path d="M3621 2164 c-23 -38 -26 -54 -12 -54 15 0 34 29 37 60 5 39 1 38 -25
-6z"/>
<path d="M2959 2124 c-19 -22 -58 -58 -86 -82 -43 -37 -52 -50 -55 -83 -5 -50
5 -68 26 -50 9 8 16 19 16 25 0 6 12 17 28 24 31 14 52 32 103 88 l37 39 -17
39 -17 38 -35 -38z"/>
<path d="M2930 2129 c0 -5 5 -7 10 -4 6 3 10 8 10 11 0 2 -4 4 -10 4 -5 0 -10
-5 -10 -11z"/>
<path d="M3136 2053 c-4 -5 -11 -8 -14 -8 -35 -3 -86 -37 -135 -92 -61 -67
-69 -90 -19 -54 17 12 33 21 38 21 4 0 -11 -13 -32 -28 -65 -47 -68 -55 -53
-108 8 -26 19 -48 24 -51 6 -2 40 12 75 30 59 32 65 38 82 88 10 30 16 65 13
79 -4 19 -3 22 5 10 16 -23 32 7 26 49 -3 19 -1 42 5 52 10 19 0 26 -15 12z"/>
<path d="M3331 1875 c-27 -23 -31 -25 -147 -87 -39 -20 -93 -58 -121 -85 -43
-40 -52 -56 -58 -95 -6 -37 -3 -51 11 -71 l19 -24 37 41 c25 28 37 36 38 24 0
-9 -4 -18 -9 -20 -4 -1 -12 -14 -16 -27 -6 -21 -5 -23 11 -16 11 4 36 14 57
22 58 21 132 60 146 77 7 9 17 14 21 11 15 -9 61 18 55 32 -16 41 -16 46 4 23
11 -14 21 -28 21 -32 0 -13 58 -9 63 5 4 10 6 10 6 0 1 -17 26 -16 61 2 22 11
30 12 33 2 3 -7 6 -5 6 6 1 9 9 17 18 17 9 0 34 17 55 37 21 20 38 32 38 25 0
-6 25 2 59 21 57 31 59 33 43 52 -16 19 -16 19 1 6 21 -17 41 -3 32 22 -7 16
-55 37 -87 37 -17 0 -15 -4 9 -26 31 -29 2 -12 -35 20 -21 19 -37 21 -184 22
-151 0 -162 -1 -187 -21z"/>
<path d="M4564 1819 c-59 -37 -59 -37 -52 -45 7 -7 78 37 97 60 19 23 12 20
-45 -15z"/>
<path d="M4421 1787 c-13 -21 -12 -21 5 -5 10 10 16 20 13 22 -3 3 -11 -5 -18
-17z"/>
<path d="M3806 1765 c-11 -8 -15 -15 -9 -15 19 0 43 12 43 21 0 13 -12 11 -34
-6z"/>
<path d="M4160 1752 l-22 -18 29 -47 c36 -59 55 -49 41 21 -13 60 -20 67 -48
44z"/>
<path d="M3794 1705 c-26 -25 -45 -47 -42 -50 3 -3 25 4 50 15 33 14 47 27 50
45 8 41 -8 38 -58 -10z"/>
<path d="M3740 1723 c-52 -19 -130 -57 -130 -64 0 -5 10 -9 23 -10 12 -1 39
-3 60 -4 20 -2 37 0 37 5 0 5 14 25 31 45 26 29 28 35 13 34 -11 0 -26 -3 -34
-6z"/>
<path d="M4115 1718 c-20 -66 -29 -158 -15 -158 3 0 22 15 44 33 l38 33 -26
52 c-27 54 -34 60 -41 40z"/>
<path d="M4444 1709 l-29 -19 26 0 c15 0 32 6 38 14 19 23 -3 26 -35 5z"/>
<path d="M4421 1670 c-19 -5 -44 -21 -57 -38 -15 -19 -39 -33 -68 -41 -58 -14
-75 -37 -20 -26 21 4 48 9 59 10 55 4 115 18 124 29 5 6 12 26 16 44 7 35 5
36 -54 22z"/>
<path d="M3566 1611 c-3 -5 -21 -12 -39 -15 -21 -4 -42 -18 -55 -36 -28 -38
-28 -40 9 -40 28 0 31 3 27 24 -5 24 17 45 31 30 3 -4 0 -9 -6 -11 -20 -7 -15
-33 6 -33 11 0 41 9 67 20 68 29 64 19 -6 -16 -55 -27 -78 -48 -47 -43 6 1 25
-3 42 -10 28 -11 31 -10 62 26 30 36 45 71 23 58 -5 -3 -10 3 -10 14 0 11 -9
25 -19 31 -24 12 -78 13 -85 1z"/>
<path d="M3453 1593 c-7 -2 -13 -11 -13 -20 0 -8 -3 -13 -7 -11 -5 2 -20 10
-35 17 -46 23 -93 2 -107 -47 -8 -27 -7 -32 8 -32 34 0 128 38 154 63 36 32
35 45 0 30z"/>
<path d="M4260 1540 c-13 -8 -12 -10 3 -10 9 0 17 5 17 10 0 12 -1 12 -20 0z"/>
<path d="M4313 1543 c-19 -7 -16 -21 7 -28 21 -7 50 9 50 26 0 10 -36 11 -57
2z"/>
<path d="M3245 1530 c-3 -5 -3 -15 1 -21 6 -11 23 6 24 24 0 10 -18 9 -25 -3z"/>
<path d="M4162 1500 c-61 -17 -105 -41 -71 -39 39 3 143 36 147 47 5 15 2 15
-76 -8z"/>
<path d="M3417 1493 c-9 -2 -15 -9 -12 -14 8 -13 -9 -11 -22 2 -8 8 -26 7 -67
-2 -56 -12 -57 -13 -50 -43 13 -63 45 -113 63 -101 6 3 11 10 11 14 0 18 44
105 47 94 2 -6 -10 -41 -26 -78 -32 -69 -39 -119 -20 -130 6 -4 13 3 16 15 4
14 8 18 13 10 9 -15 53 6 130 63 76 55 81 63 64 95 -8 15 -14 34 -14 42 0 28
-79 47 -133 33z"/>
<path d="M3130 1467 c-17 -9 -24 -20 -23 -36 2 -12 -1 -20 -6 -17 -4 3 -17 -4
-27 -15 -15 -17 -16 -24 -6 -53 7 -18 12 -44 12 -58 0 -38 20 -88 36 -88 8 0
14 -9 14 -19 0 -11 4 -22 9 -25 9 -6 148 49 165 64 12 12 -19 58 -47 70 -12 5
-49 35 -82 66 -58 55 -59 56 -14 26 25 -17 51 -38 59 -47 7 -9 26 -23 42 -31
l28 -14 -7 32 c-3 18 -19 48 -35 66 -15 18 -28 36 -28 40 0 13 -40 52 -53 52
-7 0 -23 -6 -37 -13z"/>
<path d="M3210 1471 c0 -10 39 -59 40 -49 0 17 -20 58 -30 58 -5 0 -10 -4 -10
-9z"/>
<path d="M3570 1461 c0 -17 12 -41 20 -41 15 0 21 33 8 42 -17 10 -28 10 -28
-1z"/>
<path d="M3824 1427 c-29 -11 -70 -37 -98 -62 -30 -28 -104 -73 -131 -79 -49
-11 -235 -109 -235 -123 0 -8 -6 -24 -14 -36 -19 -31 -21 -107 -3 -107 23 0
245 174 296 232 17 19 58 48 91 64 35 17 60 35 60 45 0 8 7 24 15 35 14 19 14
18 15 -3 0 -27 25 -31 33 -5 2 9 8 25 12 35 8 20 2 20 -41 4z"/>
<path d="M3895 1419 c-4 -6 -5 -13 -2 -16 7 -7 27 6 27 18 0 12 -17 12 -25 -2z"/>
<path d="M3665 1394 c-17 -8 -37 -21 -45 -28 -8 -7 -28 -18 -45 -25 -17 -8
-24 -16 -17 -18 22 -8 154 68 140 82 -2 2 -17 -3 -33 -11z"/>
<path d="M3235 1123 c-27 -14 -60 -35 -72 -46 -28 -25 -30 -50 -5 -44 9 3 28
8 42 11 14 3 36 22 50 41 14 19 31 35 38 35 6 0 12 7 12 15 0 20 -6 19 -65
-12z"/>
<path d="M3266 1085 c-13 -19 -13 -25 -3 -25 17 0 37 20 37 37 0 21 -16 15
-34 -12z"/>
<path d="M3268 1053 c-24 -6 -23 -23 2 -23 11 0 20 7 20 15 0 8 -1 14 -2 14
-2 -1 -11 -3 -20 -6z"/>
<path d="M3179 1013 c-49 -3 -58 -7 -63 -26 -4 -15 1 -28 17 -41 16 -14 17
-17 5 -13 -13 5 -19 0 -24 -19 -4 -14 -4 -27 -1 -30 5 -5 129 72 160 101 22
19 14 36 -16 33 -12 -1 -47 -3 -78 -5z"/>
<path d="M776 792 c9 -20 24 -53 34 -72 16 -31 16 -40 5 -74 -11 -30 -11 -43
-2 -58 10 -16 8 -23 -15 -43 -16 -13 -28 -29 -28 -36 0 -6 -9 -26 -19 -43 -12
-20 -23 -67 -30 -131 -10 -90 -9 -109 9 -185 11 -47 25 -100 31 -117 l11 -33
982 0 982 0 12 114 c7 62 12 131 12 153 0 27 12 63 36 108 32 59 39 85 50 184
7 64 10 119 6 122 -4 4 -38 19 -75 34 -62 24 -73 26 -114 15 -26 -6 -55 -18
-67 -26 -11 -7 -28 -14 -37 -14 -10 0 -36 -21 -58 -47 l-41 -48 -130 3 c-119
3 -134 1 -193 -23 -81 -32 -102 -31 -212 6 -78 26 -99 29 -153 24 -38 -4 -83
-2 -113 5 -46 11 -52 10 -72 -7 -12 -11 -37 -28 -54 -39 -28 -16 -37 -16 -67
-6 -24 9 -59 11 -109 6 -70 -6 -76 -5 -86 15 -7 11 -17 21 -22 21 -6 0 -24 11
-41 25 -16 14 -42 28 -56 31 -148 31 -272 74 -272 94 0 10 -74 62 -102 73 -16
6 -16 4 -2 -31z m1704 -492 c0 -5 -4 -10 -10 -10 -5 0 -10 5 -10 10 0 6 5 10
10 10 6 0 10 -4 10 -10z"/>
<path d="M2828 803 c-38 -6 -35 -16 8 -37 41 -19 43 -19 46 14 3 26 -7 30 -54
23z"/>
<path d="M3090 780 c0 -5 5 -10 10 -10 6 0 10 5 10 10 0 6 -4 10 -10 10 -5 0
-10 -4 -10 -10z"/>
<path d="M714 695 c-2 -26 10 -33 22 -14 3 6 0 17 -7 25 -12 11 -14 9 -15 -11z"/>
<path d="M3140 689 c0 -5 5 -7 10 -4 6 3 10 8 10 11 0 2 -4 4 -10 4 -5 0 -10
-5 -10 -11z"/>
</g>
</svg>
