<?xml version="1.0" standalone="no"?>
<!DOCTYPE svg PUBLIC "-//W3C//DTD SVG 20010904//EN"
 "http://www.w3.org/TR/2001/REC-SVG-20010904/DTD/svg10.dtd">
<svg version="1.0" xmlns="http://www.w3.org/2000/svg"
 width="480.000000pt" height="360.000000pt" viewBox="0 0 480.000000 360.000000"
 preserveAspectRatio="xMidYMid meet">
<metadata>
Created by potrace 1.16, written by Peter Selinger 2001-2019
</metadata>
<rect width="1" height="360" fill="#000000"/>
<rect x="479" width="1" height="360" fill="#000000"/>
<rect width="480" height="1" fill="#000000"/>
<rect y="359" width="480" height="1" fill="#000000"/>
<g transform="translate(0.000000,360.000000) scale(0.100000,-0.100000)"
fill="#000000" stroke="none">
<path d="M0 2469 l0 -1130 31 18 c17 10 57 42 89 71 76 68 114 83 230 89 152
8 183 -18 114 -93 -83 -91 -100 -106 -140 -125 -77 -34 -222 -36 -310 -2 -12
4 -14 -84 -14 -646 l0 -651 699 0 c609 0 700 2 711 15 7 8 18 15 24 15 7 0 10
16 8 45 -5 56 16 69 54 34 21 -20 25 -31 22 -66 l-3 -43 290 0 290 0 1 34 c0
35 20 70 34 61 4 -3 11 -25 14 -50 l7 -45 1325 0 1324 0 0 938 -1 937 -28 28
c-41 40 -54 77 -41 111 9 25 14 28 40 22 l30 -6 0 785 0 785 -1770 0 -1770 0
6 -37 c3 -25 1 -44 -8 -56 -13 -18 -16 -18 -61 4 -51 25 -55 33 -31 67 l15 22
-590 0 -591 0 0 -1131z m840 967 c16 -25 30 -53 30 -64 0 -30 -29 -92 -43 -92
-34 0 -87 65 -87 107 0 16 54 93 65 93 2 0 18 -20 35 -44z m367 12 c16 -22 7
-78 -18 -104 -26 -28 -55 -30 -105 -9 l-36 15 33 41 c44 56 106 83 126 57z
m393 -97 c0 -5 -15 -13 -32 -18 -18 -5 -32 -15 -30 -21 1 -7 -5 -12 -13 -12
-8 0 -15 5 -15 10 0 6 -13 10 -29 10 -32 0 -51 17 -29 25 20 8 132 22 141 18
4 -2 7 -8 7 -12z m156 -25 c15 -15 25 -59 16 -72 -4 -6 -17 -16 -30 -23 -31
-16 -70 3 -94 48 -21 38 -20 41 25 57 34 12 65 9 83 -10z m1407 -79 c5 -50 3
-60 -17 -82 -20 -21 -25 -23 -35 -11 -16 19 -3 132 17 152 21 21 29 8 35 -59z
m-1934 -28 c33 -12 42 -38 14 -41 -45 -4 -113 16 -113 33 0 4 15 10 33 12 17
2 32 5 33 5 1 1 15 -3 33 -9z m-270 -35 c3 -2 0 -9 -6 -15 -13 -13 -67 7 -58
22 6 10 53 5 64 -7z m2019 -166 c23 -18 43 -39 46 -46 7 -17 -44 -112 -60
-112 -39 0 -78 126 -53 172 13 25 21 23 67 -14z m-975 -169 c-20 -35 -34 -44
-82 -54 -46 -10 -38 10 23 52 63 43 84 44 59 2z m1232 -149 c3 -5 5 -10 3 -10
-2 0 -34 -11 -72 -25 -74 -27 -86 -29 -86 -17 0 11 62 43 102 52 46 11 46 11
53 0z m-2075 -191 c0 -23 -43 -43 -71 -34 -24 8 -24 18 -1 37 35 31 72 30 72
-3z m-683 -39 c34 -21 58 -55 48 -70 -8 -13 -48 -13 -77 1 -26 11 -61 66 -52
80 9 15 47 10 81 -11z m1579 -3 c2 -2 1 -13 -3 -25 -9 -35 -55 -55 -101 -42
-73 20 -78 39 -18 66 26 12 111 13 122 1z m1892 -209 c-7 -19 -102 -81 -106
-68 -5 14 16 39 53 62 34 21 59 24 53 6z m-1760 -547 c4 -28 -17 -45 -35 -29
-14 11 -17 40 -6 52 14 14 38 0 41 -23z m2112 -12 c-19 -17 -63 -58 -98 -91
-64 -62 -82 -70 -60 -27 39 74 126 149 172 149 18 -1 16 -5 -14 -31z m-4083
-81 c30 -28 30 -64 1 -74 -39 -12 -76 54 -46 84 16 16 18 16 45 -10z m1763
-38 c51 -34 78 -57 91 -82 15 -28 -6 -22 -33 10 -44 51 -51 54 -91 37 -51 -21
-80 -19 -107 9 -35 38 -21 56 42 56 42 0 63 -7 98 -30z m468 -68 c6 -20 18
-64 27 -97 9 -33 19 -68 22 -77 4 -15 -1 -18 -25 -18 -72 0 -128 150 -92 246
l11 27 23 -22 c13 -12 28 -38 34 -59z m-461 -116 c-19 -22 -44 -46 -56 -52
-13 -7 -28 -17 -34 -23 -18 -18 -26 -13 -19 12 3 12 30 46 60 75 44 43 57 51
68 41 12 -10 9 -18 -19 -53z m-1376 -24 c42 -54 0 -94 -54 -52 -26 21 -33 43
-21 73 8 21 51 9 75 -21z m1465 -152 l-14 -45 -1 54 c-1 30 5 70 12 90 l12 35
3 -45 c1 -24 -4 -64 -12 -89z m1904 50 c12 -8 9 -15 -20 -45 -46 -48 -80 -65
-130 -65 -54 0 -53 25 1 65 63 47 119 64 149 45z m-2581 -64 c14 -6 34 -26 44
-44 18 -30 18 -35 5 -49 -14 -13 -20 -12 -57 11 -37 24 -81 77 -81 99 0 10 55
0 89 -17z m1458 -99 c33 -23 60 -44 58 -45 -8 -8 -93 38 -125 68 -48 43 -13
31 67 -23z m909 -118 c-4 -48 -13 -109 -21 -134 -15 -51 -16 -49 48 -60 65
-11 40 -35 -36 -35 -53 0 -119 18 -112 31 4 5 17 9 31 9 23 0 24 3 24 68 0 65
17 157 40 217 11 28 12 29 22 11 7 -12 8 -51 4 -107z m-2589 -23 c22 -19 25
-27 16 -37 -15 -15 -53 -5 -84 21 -21 17 -22 21 -9 30 24 16 47 12 77 -14z
m3563 -40 c8 -24 8 -45 0 -77 -7 -24 -14 -56 -17 -71 -11 -56 -58 -17 -70 57
-5 29 0 48 18 81 29 53 53 57 69 10z m-3267 -62 c15 -16 -16 -42 -70 -58 -54
-16 -62 -17 -96 -2 -20 8 -37 19 -37 24 0 7 15 14 95 37 19 6 102 5 108 -1z
m1123 -104 c69 -24 90 -40 52 -40 -30 0 -128 39 -128 51 0 13 10 11 76 -11z
m-466 -53 c21 -9 22 -11 7 -14 -22 -6 -77 15 -77 29 0 9 22 5 70 -15z m1580
-103 c22 -9 40 -20 40 -25 0 -5 -14 -16 -30 -24 -29 -15 -34 -15 -85 9 -57 26
-68 41 -37 49 36 10 73 7 112 -9z m-2972 -126 c36 -25 43 -33 29 -36 -22 -4
-62 21 -77 48 -15 27 -6 25 48 -12z m3295 -12 c42 -18 86 -64 66 -70 -110 -33
-125 -34 -173 -13 -58 25 -57 44 4 74 54 26 61 27 103 9z m-3198 -85 c22 -10
47 -26 55 -35 19 -24 6 -33 -87 -65 -53 -18 -80 -22 -114 -17 -45 7 -109 38
-109 54 0 13 161 81 190 81 14 0 43 -8 65 -18z m500 -1 c-3 -5 -21 -10 -38
-10 -24 0 -28 3 -17 10 20 13 63 13 55 0z m413 -36 c19 -13 21 -18 10 -31 -10
-12 -26 -14 -81 -9 -103 10 -139 38 -62 49 67 9 112 6 133 -9z m971 -251 c-17
-20 -79 -47 -88 -37 -3 4 -1 8 4 10 6 2 26 12 45 23 45 24 56 25 39 4z"/>
</g>
</svg>
