<?xml version="1.0" standalone="no"?>
<!DOCTYPE svg PUBLIC "-//W3C//DTD SVG 20010904//EN"
 "http://www.w3.org/TR/2001/REC-SVG-20010904/DTD/svg10.dtd">
<svg version="1.0" xmlns="http://www.w3.org/2000/svg"
 width="480.000000pt" height="360.000000pt" viewBox="0 0 480.000000 360.000000"
 preserveAspectRatio="xMidYMid meet">
<metadata>
Created by potrace 1.16, written by Peter Selinger 2001-2019
</metadata>
<rect width="1" height="360" fill="#000000"/>
<rect x="479" width="1" height="360" fill="#000000"/>
<rect width="480" height="1" fill="#000000"/>
<rect y="359" width="480" height="1" fill="#000000"/>
<g transform="translate(0.000000,360.000000) scale(0.100000,-0.100000)"
fill="#000000" stroke="none">
<path d="M0 1800 l0 -1800 1070 0 c739 0 1070 3 1070 10 0 6 7 70 15 143 22
195 46 517 39 528 -3 5 -19 16 -35 24 -16 9 -27 20 -23 26 3 6 -2 17 -12 25
-14 11 -16 17 -6 20 6 3 10 10 7 14 -3 5 8 35 25 67 27 52 32 78 52 263 l21
205 -28 112 c-27 103 -28 117 -17 165 7 29 16 69 21 88 4 19 18 54 30 78 12
23 17 42 11 42 -18 0 -11 48 9 62 13 9 21 32 26 71 7 58 7 59 -26 87 -19 16
-40 29 -47 30 -8 0 -12 9 -10 23 2 18 -1 22 -22 19 -19 -1 -38 9 -67 38 -26
25 -43 35 -46 27 -3 -7 -6 30 -6 81 -1 115 10 143 88 214 111 102 216 126 323
74 59 -28 121 -94 158 -166 26 -52 67 -201 89 -325 11 -60 31 -157 45 -215 13
-58 29 -152 36 -210 6 -58 18 -159 26 -225 9 -68 19 -274 24 -475 5 -195 12
-383 15 -418 4 -46 3 -62 -6 -57 -7 5 -9 1 -5 -12 4 -11 13 -54 21 -95 7 -41
28 -133 45 -206 l32 -132 929 0 929 0 0 1069 0 1068 -57 18 c-159 49 -335 155
-470 281 -224 208 -345 429 -404 734 -19 101 -21 135 -16 273 l6 157 -1929 0
-1930 0 0 -1800z"/>
<path d="M2361 2003 c0 -5 4 -17 9 -28 8 -18 9 -17 9 8 1 15 -3 27 -9 27 -5 0
-10 -3 -9 -7z"/>
</g>
</svg>
