<?xml version="1.0" standalone="no"?>
<!DOCTYPE svg PUBLIC "-//W3C//DTD SVG 20010904//EN"
 "http://www.w3.org/TR/2001/REC-SVG-20010904/DTD/svg10.dtd">
<svg version="1.0" xmlns="http://www.w3.org/2000/svg"
 width="480.000000pt" height="360.000000pt" viewBox="0 0 480.000000 360.000000"
 preserveAspectRatio="xMidYMid meet">
<metadata>
Created by potrace 1.16, written by Peter Selinger 2001-2019
</metadata>
<rect width="1" height="360" fill="#000000"/>
<rect x="479" width="1" height="360" fill="#000000"/>
<rect width="480" height="1" fill="#000000"/>
<rect y="359" width="480" height="1" fill="#000000"/>
<g transform="translate(0.000000,360.000000) scale(0.100000,-0.100000)"
fill="#000000" stroke="none">
<path d="M0 1800 l0 -1800 2400 0 2400 0 0 1800 0 1800 -2400 0 -2400 0 0
-1800z m2112 896 c16 -20 18 -20 30 -4 31 40 139 52 179 19 21 -16 26 -17 56
-5 38 17 83 18 83 4 0 -6 -9 -20 -20 -32 -20 -21 -20 -22 3 -52 l23 -31 -37
-33 -37 -34 14 -51 c8 -29 14 -66 14 -84 0 -30 14 -52 44 -70 17 -11 96 -158
96 -179 0 -10 -20 -50 -45 -90 -25 -40 -43 -79 -39 -87 3 -8 -6 -38 -20 -66
l-26 -51 66 -116 c36 -64 67 -127 69 -140 1 -12 31 -71 67 -131 103 -171 112
-193 82 -193 -11 0 -14 -6 -8 -22 14 -45 11 -53 -20 -50 -18 2 -43 -6 -68 -23
-22 -15 -56 -28 -75 -30 -22 -1 -44 -13 -64 -33 l-29 -30 2 -190 c2 -204 -1
-222 -48 -222 -44 0 -83 67 -62 105 10 18 0 275 -11 275 -3 0 -24 -12 -46 -25
-47 -29 -74 -31 -120 -9 -19 8 -44 14 -56 12 -29 -4 -38 -41 -47 -193 l-7
-110 -34 -3 c-40 -4 -117 23 -125 44 -8 22 9 59 37 77 22 14 26 25 31 89 2 40
8 92 11 116 7 42 7 42 -24 42 -28 0 -31 3 -31 30 0 16 -7 33 -16 38 -22 12 -6
92 51 255 46 132 57 189 32 168 -31 -25 -35 15 -8 73 10 23 23 72 29 109 11
70 9 80 -34 174 -20 44 -18 51 20 67 29 12 35 21 46 66 8 32 10 77 6 116 -5
53 -3 71 14 104 11 22 31 47 45 56 21 14 25 24 25 68 0 63 -9 96 -24 96 -18 0
-59 47 -52 58 6 10 -40 62 -56 62 -5 0 -6 5 -3 10 3 6 18 10 33 10 46 0 56 13
49 61 -5 37 -4 41 6 25 7 -10 20 -28 29 -40z"/>
<path d="M2000 1629 c0 -5 5 -7 10 -4 6 3 10 8 10 11 0 2 -4 4 -10 4 -5 0 -10
-5 -10 -11z"/>
</g>
</svg>
