<?xml version="1.0" standalone="no"?>
<!DOCTYPE svg PUBLIC "-//W3C//DTD SVG 20010904//EN"
 "http://www.w3.org/TR/2001/REC-SVG-20010904/DTD/svg10.dtd">
<svg version="1.0" xmlns="http://www.w3.org/2000/svg"
 width="480.000000pt" height="360.000000pt" viewBox="0 0 480.000000 360.000000"
 preserveAspectRatio="xMidYMid meet">
<metadata>
Created by potrace 1.16, written by Peter Selinger 2001-2019
</metadata>
<rect width="1" height="360" fill="#000000"/>
<rect x="479" width="1" height="360" fill="#000000"/>
<rect width="480" height="1" fill="#000000"/>
<rect y="359" width="480" height="1" fill="#000000"/>
<g transform="translate(0.000000,360.000000) scale(0.100000,-0.100000)"
fill="#000000" stroke="none">
<path d="M2630 3571 c-50 -31 -100 -76 -100 -88 0 -4 -37 -8 -82 -8 -97 -1
-150 -16 -178 -52 l-21 -26 -27 30 c-15 17 -43 36 -62 43 -57 18 -190 24 -265
11 -96 -17 -249 -67 -267 -88 -34 -40 -27 -87 27 -183 8 -14 23 -43 33 -65 11
-22 27 -46 36 -54 9 -7 16 -23 16 -35 0 -13 11 -33 25 -46 14 -13 24 -29 21
-36 -5 -13 63 -84 81 -84 6 0 13 -29 15 -64 5 -61 56 -196 74 -196 3 0 3 7 0
16 -3 8 -2 13 3 10 14 -9 13 -127 -1 -144 -19 -22 -39 -295 -23 -304 14 -9 8
-99 -7 -109 -9 -6 -28 -35 -45 -69 -4 -8 -11 -19 -15 -25 -22 -25 -98 -135
-98 -141 0 -3 -11 -20 -25 -38 -14 -18 -25 -36 -25 -40 0 -4 -11 -22 -24 -39
-26 -35 -121 -225 -121 -243 0 -6 -5 -18 -11 -25 -16 -19 -37 -89 -30 -96 3
-4 1 -13 -6 -20 -7 -8 -13 -22 -14 -31 -2 -10 -8 -35 -14 -57 -6 -22 -13 -47
-14 -55 -2 -8 -6 -22 -9 -30 -4 -8 -11 -58 -17 -112 -5 -53 -12 -103 -16 -111
-3 -8 0 -18 6 -22 7 -5 8 -11 1 -19 -19 -23 -40 -386 -22 -386 6 0 11 -9 11
-20 0 -27 18 -25 42 5 26 33 49 32 77 -6 22 -30 24 -30 34 -13 6 11 17 25 24
33 8 7 13 25 13 40 -3 44 0 61 10 61 6 0 10 -6 10 -14 0 -8 8 -28 17 -45 18
-30 18 -31 -21 -105 -41 -81 -43 -99 -15 -215 10 -40 22 -60 45 -77 l31 -24
-13 -63 c-7 -34 -13 -70 -14 -79 0 -17 51 -18 934 -18 l934 0 7 30 c4 17 18
42 32 56 25 26 26 28 20 132 -5 92 -3 122 18 216 14 60 25 122 25 138 0 18
-27 81 -64 152 -65 121 -217 449 -231 496 -4 14 -30 82 -57 152 l-50 127 26
78 c17 50 23 80 16 87 -6 6 -29 4 -65 -6 -51 -14 -56 -14 -64 1 -13 26 -39
129 -60 240 -24 123 -47 162 -126 221 l-55 41 4 92 c3 51 6 128 7 172 l1 80
18 -100 c10 -55 26 -116 34 -135 16 -34 16 -30 11 105 -3 77 -10 184 -16 238
-11 102 -3 135 28 123 27 -11 71 6 82 30 16 35 -2 70 -93 194 -42 56 -75 104
-73 107 2 2 15 0 28 -5 39 -15 143 -23 159 -13 8 6 14 24 13 45 -1 20 3 36 9
36 5 0 6 9 3 20 -4 12 -2 26 4 33 5 7 8 46 5 92 -2 44 -4 94 -4 112 0 18 -5
44 -10 58 -6 15 -7 32 -3 38 9 14 5 48 -8 63 -4 5 -6 20 -2 32 l5 22 -223 0
-224 0 -45 -29z m-742 -1912 c-31 -20 -37 -8 -15 34 l22 42 3 -34 c2 -20 -2
-37 -10 -42z m-38 -203 c9 -12 11 -50 8 -148 -5 -133 -5 -133 -56 -258 -83
-204 -158 -380 -165 -386 -16 -16 8 447 26 496 3 8 8 26 12 40 3 14 13 50 21
80 9 30 17 62 18 70 1 8 10 32 19 52 9 21 17 44 17 53 0 8 8 24 17 34 16 20
17 20 43 1 15 -11 33 -26 40 -34z m1117 -163 c-3 -10 -5 -4 -5 12 0 17 2 24 5
18 2 -7 2 -21 0 -30z m10 -70 c-3 -10 -5 -2 -5 17 0 19 2 27 5 18 2 -10 2 -26
0 -35z"/>
</g>
</svg>
