<?xml version="1.0" standalone="no"?>
<!DOCTYPE svg PUBLIC "-//W3C//DTD SVG 20010904//EN"
 "http://www.w3.org/TR/2001/REC-SVG-20010904/DTD/svg10.dtd">
<svg version="1.0" xmlns="http://www.w3.org/2000/svg"
 width="480.000000pt" height="360.000000pt" viewBox="0 0 480.000000 360.000000"
 preserveAspectRatio="xMidYMid meet">
<metadata>
Created by potrace 1.16, written by Peter Selinger 2001-2019
</metadata>
<rect width="1" height="360" fill="#000000"/>
<rect x="479" width="1" height="360" fill="#000000"/>
<rect width="480" height="1" fill="#000000"/>
<rect y="359" width="480" height="1" fill="#000000"/>
<g transform="translate(0.000000,360.000000) scale(0.100000,-0.100000)"
fill="#000000" stroke="none">
<path d="M2167 2503 c-33 -4 -41 -9 -53 -38 -20 -49 -17 -89 9 -122 13 -15 31
-48 40 -72 15 -41 15 -45 0 -56 -9 -7 -13 -17 -9 -23 3 -6 -7 -26 -24 -45 -16
-19 -30 -38 -30 -42 0 -4 -9 -18 -20 -32 -27 -34 -25 -57 5 -81 32 -25 34 -83
5 -130 -11 -18 -18 -37 -15 -42 8 -13 -19 -64 -50 -94 -28 -28 -30 -43 -11
-69 10 -13 12 -27 5 -51 -16 -59 -59 -469 -59 -568 l0 -98 48 -24 c26 -13 73
-32 105 -42 56 -17 85 -43 72 -64 -11 -18 -71 -38 -132 -45 -81 -9 -93 -14
-93 -35 0 -19 44 -40 86 -40 13 0 27 -7 31 -15 12 -21 274 -26 321 -6 49 20
38 71 -16 71 -17 0 -27 9 -38 37 -8 21 -19 46 -25 56 -13 23 -16 20 54 42 74
23 81 38 68 149 -6 44 -18 166 -26 270 -12 133 -25 225 -46 305 -16 64 -29
123 -29 132 0 9 14 47 32 84 30 65 31 70 19 114 -7 25 -15 73 -17 106 -5 65
-28 140 -52 167 -16 19 -19 17 43 35 23 7 33 19 44 50 14 39 13 43 -14 97 -16
32 -46 73 -67 92 -40 36 -53 38 -161 27z m129 -625 c-16 -22 -16 -22 -16 8 0
37 11 50 22 29 6 -10 3 -23 -6 -37z"/>
<path d="M4705 1184 c-38 -13 -75 -30 -81 -37 -6 -6 -14 -34 -18 -60 -6 -47
-5 -48 26 -61 18 -8 36 -26 43 -42 11 -27 15 -29 68 -29 l57 0 0 128 c0 95 -3
127 -12 126 -7 0 -44 -11 -83 -25z"/>
</g>
</svg>
