<?xml version="1.0" standalone="no"?>
<!DOCTYPE svg PUBLIC "-//W3C//DTD SVG 20010904//EN"
 "http://www.w3.org/TR/2001/REC-SVG-20010904/DTD/svg10.dtd">
<svg version="1.0" xmlns="http://www.w3.org/2000/svg"
 width="480.000000pt" height="360.000000pt" viewBox="0 0 480.000000 360.000000"
 preserveAspectRatio="xMidYMid meet">
<metadata>
Created by potrace 1.16, written by Peter Selinger 2001-2019
</metadata>
<rect width="1" height="360" fill="#000000"/>
<rect x="479" width="1" height="360" fill="#000000"/>
<rect width="480" height="1" fill="#000000"/>
<rect y="359" width="480" height="1" fill="#000000"/>
<g transform="translate(0.000000,360.000000) scale(0.100000,-0.100000)"
fill="#000000" stroke="none">
<path d="M0 1800 l0 -1800 971 0 c651 0 968 3 964 10 -4 6 1 44 10 84 l17 74
-40 41 c-22 23 -48 64 -58 91 -10 28 -21 50 -25 50 -15 0 -39 83 -39 133 0 28
7 77 15 107 8 30 15 87 15 127 l0 72 -62 -26 c-37 -14 -86 -25 -118 -26 -55
-2 -55 -2 -58 29 -5 49 78 122 242 214 72 40 87 55 141 130 55 77 69 89 134
121 82 42 182 64 247 55 l44 -6 0 1160 0 1160 -1200 0 -1200 0 0 -1800z"/>
<path d="M2450 1271 c0 -9 -8 -11 -25 -7 l-25 6 0 -635 0 -635 250 0 c231 0
250 1 259 18 6 11 7 57 4 110 -6 87 -5 94 20 129 27 39 61 138 73 209 7 49
-16 138 -51 200 -19 31 -23 50 -18 78 3 20 8 35 12 33 3 -1 40 -19 81 -38 129
-61 170 -62 170 -4 0 58 -100 154 -250 239 -37 21 -75 52 -87 71 -29 43 -175
162 -231 187 -33 15 -55 18 -96 13 -49 -6 -55 -5 -70 16 -9 13 -16 17 -16 10z
m564 -426 c11 -8 16 -15 10 -15 -5 0 -18 7 -28 15 -11 8 -16 15 -10 15 5 0 18
-7 28 -15z"/>
<path d="M1825 890 c-3 -5 -1 -10 4 -10 6 0 11 5 11 10 0 6 -2 10 -4 10 -3 0
-8 -4 -11 -10z"/>
<path d="M2001 134 c0 -11 3 -14 6 -6 3 7 2 16 -1 19 -3 4 -6 -2 -5 -13z"/>
</g>
</svg>
