<?xml version="1.0" standalone="no"?>
<!DOCTYPE svg PUBLIC "-//W3C//DTD SVG 20010904//EN"
 "http://www.w3.org/TR/2001/REC-SVG-20010904/DTD/svg10.dtd">
<svg version="1.0" xmlns="http://www.w3.org/2000/svg"
 width="480.000000pt" height="360.000000pt" viewBox="0 0 480.000000 360.000000"
 preserveAspectRatio="xMidYMid meet">
<metadata>
Created by potrace 1.16, written by Peter Selinger 2001-2019
</metadata>
<rect width="1" height="360" fill="#000000"/>
<rect x="479" width="1" height="360" fill="#000000"/>
<rect width="480" height="1" fill="#000000"/>
<rect y="359" width="480" height="1" fill="#000000"/>
<g transform="translate(0.000000,360.000000) scale(0.100000,-0.100000)"
fill="#000000" stroke="none">
<path d="M0 1800 l0 -1800 2400 0 2400 0 0 831 0 832 -103 -7 c-110 -7 -216
-22 -226 -31 -3 -3 -8 -60 -11 -127 -6 -110 -9 -123 -30 -140 -34 -27 -68 -33
-119 -18 -25 7 -63 16 -85 20 -21 4 -42 14 -47 21 -5 8 -9 64 -9 126 0 75 -4
114 -12 119 -28 18 -312 22 -710 12 -557 -15 -893 1 -1102 54 -122 30 -427
146 -391 148 6 0 39 5 75 10 157 22 459 32 1262 39 665 6 861 11 873 21 11 9
15 32 15 84 0 39 3 101 6 138 6 64 8 68 38 78 17 6 69 13 116 17 76 5 88 3
110 -15 24 -20 25 -23 23 -155 -1 -110 2 -137 13 -141 16 -6 152 -22 252 -29
l62 -5 0 859 0 859 -2400 0 -2400 0 0 -1800z"/>
</g>
</svg>
