<?xml version="1.0" standalone="no"?>
<!DOCTYPE svg PUBLIC "-//W3C//DTD SVG 20010904//EN"
 "http://www.w3.org/TR/2001/REC-SVG-20010904/DTD/svg10.dtd">
<svg version="1.0" xmlns="http://www.w3.org/2000/svg"
 width="480.000000pt" height="360.000000pt" viewBox="0 0 480.000000 360.000000"
 preserveAspectRatio="xMidYMid meet">
<metadata>
Created by potrace 1.16, written by Peter Selinger 2001-2019
</metadata>
<rect width="1" height="360" fill="#000000"/>
<rect x="479" width="1" height="360" fill="#000000"/>
<rect width="480" height="1" fill="#000000"/>
<rect y="359" width="480" height="1" fill="#000000"/>
<g transform="translate(0.000000,360.000000) scale(0.100000,-0.100000)"
fill="#000000" stroke="none">
<path d="M1457 3309 c-9 -5 -21 -8 -26 -5 -5 3 -24 -5 -42 -19 -19 -13 -43
-29 -55 -34 -11 -5 -27 -23 -34 -40 -9 -24 -16 -29 -25 -21 -7 6 -15 7 -18 3
-10 -16 -37 -131 -37 -157 0 -15 -16 -50 -35 -79 -38 -57 -43 -77 -19 -77 12
0 15 -6 10 -20 -20 -64 -20 -63 -4 -58 12 5 17 -9 26 -68 6 -40 21 -99 32
-131 25 -73 25 -81 -5 -185 -25 -85 -56 -274 -47 -283 3 -3 11 0 17 5 10 8 21
-3 43 -44 35 -61 60 -85 48 -45 -14 43 -35 143 -31 147 2 2 15 -24 30 -57 15
-33 35 -66 43 -73 16 -13 15 -2 -5 67 -4 15 4 11 33 -16 22 -20 58 -49 82 -63
23 -14 42 -29 42 -33 0 -3 -11 -21 -25 -39 -14 -18 -25 -36 -25 -40 0 -4 14
-29 31 -57 27 -44 29 -53 19 -78 -7 -16 -24 -32 -41 -38 -62 -21 -239 -221
-239 -268 0 -8 -23 -40 -50 -71 -68 -77 -93 -131 -92 -201 0 -31 5 -68 10 -82
18 -45 62 -88 103 -101 24 -7 49 -23 61 -41 20 -28 21 -37 14 -176 -8 -181
-18 -234 -56 -291 -16 -25 -39 -65 -51 -90 -12 -25 -34 -59 -50 -75 -31 -33
-35 -52 -24 -130 6 -42 2 -65 -28 -147 l-35 -98 584 0 c367 0 584 4 584 10 0
20 76 169 144 284 83 140 89 135 57 -53 -12 -65 -21 -147 -21 -180 l0 -61 205
0 c113 0 205 3 205 6 0 4 -18 27 -41 51 -31 34 -39 48 -33 66 4 12 7 50 6 85
0 38 3 62 10 60 5 -2 33 -41 61 -87 44 -71 52 -92 52 -133 l0 -48 299 0 298 0
-6 68 c-4 37 -11 162 -16 277 -10 252 -20 285 -118 414 -61 79 -67 91 -74 151
-4 36 -7 88 -7 117 -1 46 1 51 19 46 28 -8 43 35 30 90 -15 64 -14 68 16 57
37 -14 38 -13 16 23 -18 30 -18 34 -3 76 20 56 37 62 45 17 13 -69 26 -49 26
40 l0 87 43 -7 c255 -38 501 -44 562 -15 27 13 30 20 33 64 10 159 -39 206
-362 342 -82 35 -155 68 -162 74 -7 6 -15 50 -18 107 -4 53 -9 129 -12 168
l-5 71 35 7 c52 10 86 64 92 145 7 101 -78 201 -171 201 -20 0 -46 6 -58 14
-37 24 -144 56 -235 71 -48 7 -105 20 -127 29 -22 8 -55 15 -74 16 -48 0 -116
-35 -149 -78 -25 -33 -27 -43 -28 -133 -1 -79 -5 -103 -21 -130 -12 -19 -47
-95 -78 -169 -31 -74 -61 -139 -65 -144 -11 -11 -250 -16 -250 -5 0 4 21 29
46 56 42 45 45 46 41 21 -2 -15 0 -25 4 -22 13 7 47 90 55 130 3 19 11 37 16
40 6 4 8 -1 5 -12 -3 -11 -8 -37 -12 -59 -4 -22 -9 -51 -12 -65 -7 -40 3 -21
47 89 55 140 72 213 60 268 -18 78 -115 264 -174 333 -31 36 -59 76 -62 90
-17 81 -27 101 -70 139 -29 25 -70 48 -112 62 -36 12 -86 35 -110 50 -77 49
-137 64 -242 63 -67 -1 -114 -7 -160 -23 -81 -26 -80 -26 -80 2 0 13 -10 33
-23 45 -27 25 -26 25 -50 11z m-127 -188 c0 -11 -29 -35 -35 -29 -10 9 7 38
21 38 8 0 14 -4 14 -9z m960 -962 c-5 -16 -7 -36 -4 -43 3 -7 -1 -18 -8 -23
-15 -13 -178 -22 -178 -11 0 5 5 8 11 8 6 0 26 12 44 26 19 14 37 25 42 25 4
0 14 10 21 22 11 21 12 20 6 -8 -3 -16 -7 -36 -10 -42 -7 -24 5 -13 36 32 36
52 52 58 40 14z m167 -534 c9 -25 -4 -29 -17 -6 -7 15 -7 21 0 21 6 0 13 -7
17 -15z m-367 -696 c25 -28 45 -54 45 -58 0 -17 -212 -388 -227 -397 -13 -8
-2 78 19 156 30 111 107 350 112 350 3 0 26 -23 51 -51z"/>
</g>
</svg>
