<?xml version="1.0" standalone="no"?>
<!DOCTYPE svg PUBLIC "-//W3C//DTD SVG 20010904//EN"
 "http://www.w3.org/TR/2001/REC-SVG-20010904/DTD/svg10.dtd">
<svg version="1.0" xmlns="http://www.w3.org/2000/svg"
 width="480.000000pt" height="360.000000pt" viewBox="0 0 480.000000 360.000000"
 preserveAspectRatio="xMidYMid meet">
<metadata>
Created by potrace 1.16, written by Peter Selinger 2001-2019
</metadata>
<rect width="1" height="360" fill="#000000"/>
<rect x="479" width="1" height="360" fill="#000000"/>
<rect width="480" height="1" fill="#000000"/>
<rect y="359" width="480" height="1" fill="#000000"/>
<g transform="translate(0.000000,360.000000) scale(0.100000,-0.100000)"
fill="#000000" stroke="none">
<path d="M0 3096 c0 -480 1 -504 18 -499 10 2 37 -2 61 -10 39 -14 45 -14 74
3 18 10 58 25 90 34 33 8 61 17 64 19 2 3 6 50 7 104 3 108 30 199 87 302 81
144 175 227 309 273 57 20 83 23 205 21 77 -1 172 -7 210 -15 l70 -13 65 46
c36 25 87 59 114 74 l49 29 18 -23 c11 -13 31 -61 45 -108 l27 -84 59 -29
c159 -79 274 -214 340 -400 13 -36 22 -93 25 -165 5 -95 2 -118 -16 -170 -11
-32 -21 -69 -21 -81 0 -20 51 -128 95 -201 l20 -32 -35 -36 c-18 -19 -41 -35
-50 -35 -26 0 -28 -7 -15 -63 7 -28 22 -96 35 -150 23 -102 56 -196 117 -334
28 -64 44 -87 69 -103 38 -22 74 -74 74 -107 0 -13 -1 -23 -3 -23 -1 0 -31 27
-66 60 -35 33 -70 60 -77 60 -6 0 -39 -20 -71 -44 -81 -61 -99 -64 -152 -25
-43 31 -101 59 -121 59 -5 0 -10 -7 -10 -16 0 -10 -6 -14 -14 -11 -9 4 -17 -2
-21 -13 -7 -24 1 -40 20 -40 8 0 36 -5 62 -10 39 -9 53 -18 76 -50 33 -47 34
-67 3 -81 l-23 -11 33 -55 c18 -30 50 -95 71 -144 l38 -90 46 6 c67 9 75 -5
53 -96 -15 -64 -16 -75 -3 -98 14 -24 85 -58 97 -47 2 3 -30 107 -73 232 -62
179 -75 228 -65 234 25 16 224 69 310 84 251 43 523 20 765 -64 167 -58 415
-191 415 -223 0 -11 -18 -43 -67 -123 -7 -10 -32 -53 -57 -94 -25 -41 -90
-147 -145 -235 -55 -88 -118 -191 -141 -230 -24 -38 -67 -109 -96 -156 -30
-47 -54 -89 -54 -93 0 -3 419 -6 930 -6 l930 0 0 1800 0 1800 -2400 0 -2400 0
0 -504z m3015 79 c0 -5 -15 -11 -34 -13 -31 -3 -33 -2 -21 13 14 17 55 17 55
0z m-465 -414 c0 -12 -20 -25 -27 -18 -7 7 6 27 18 27 5 0 9 -4 9 -9z m-231
-117 c40 -8 40 -31 -1 -41 -41 -11 -168 -4 -168 8 0 26 101 46 169 33z m2361
-539 c10 -12 9 -16 -4 -21 -22 -8 -46 2 -46 21 0 19 34 20 50 0z m-1835 -475
c3 -5 2 -10 -4 -10 -5 0 -13 5 -16 10 -3 6 -2 10 4 10 5 0 13 -4 16 -10z
m1625 -460 c0 -11 -14 -34 -30 -52 -29 -32 -31 -32 -45 -14 -19 25 -19 49 0
87 15 29 16 29 45 14 18 -9 30 -23 30 -35z"/>
<path d="M1 2451 c-1 -27 2 -32 11 -23 8 8 8 17 0 34 -10 22 -11 21 -11 -11z"/>
<path d="M1 1358 c1 -552 4 -994 7 -983 4 11 19 38 34 60 39 57 48 157 18 214
-20 40 -20 41 -1 41 21 0 31 19 31 60 0 20 6 31 19 35 21 6 25 16 36 75 3 19
16 64 27 99 17 54 19 69 9 102 -7 22 -18 39 -26 39 -10 0 -12 7 -6 28 24 82
48 100 311 228 l65 32 -55 16 c-99 28 -100 28 -146 -41 -43 -66 -57 -72 -44
-20 5 18 10 89 12 159 3 140 7 132 -51 110 -18 -7 -1 23 33 60 45 47 28 53
-21 7 -51 -47 -63 -42 -39 16 14 33 14 36 1 31 -19 -7 -19 4 -2 29 8 11 22 33
32 48 l18 29 -46 -7 c-26 -4 -47 -5 -47 -1 0 3 26 19 59 35 32 17 62 38 66 48
9 20 34 355 28 363 -2 3 -13 -6 -23 -20 -18 -23 -20 -24 -57 -11 -21 7 -81 38
-134 67 -52 30 -98 54 -102 54 -4 0 -7 -451 -6 -1002z"/>
<path d="M1566 1455 c-8 -8 -25 -15 -38 -15 -23 0 -74 -29 -53 -30 6 0 42 -9
80 -20 39 -11 76 -20 83 -20 19 0 16 86 -4 94 -26 10 -52 7 -68 -9z"/>
<path d="M2151 574 c-18 -23 -20 -35 -15 -83 6 -48 43 -135 74 -176 5 -5 42
-73 84 -150 84 -156 99 -160 36 -10 -5 11 -15 43 -23 70 -23 77 -123 364 -129
371 -3 3 -15 -7 -27 -22z"/>
<path d="M1750 225 c0 -44 -7 -107 -15 -140 -18 -76 -18 -85 0 -85 11 0 15 11
15 35 0 20 7 50 16 67 19 37 16 170 -4 190 -9 9 -12 -5 -12 -67z"/>
<path d="M0 153 c0 -53 2 -94 4 -92 5 4 46 167 46 180 0 5 -11 9 -25 9 -25 0
-25 0 -25 -97z"/>
</g>
</svg>
