<?xml version="1.0" standalone="no"?>
<!DOCTYPE svg PUBLIC "-//W3C//DTD SVG 20010904//EN"
 "http://www.w3.org/TR/2001/REC-SVG-20010904/DTD/svg10.dtd">
<svg version="1.0" xmlns="http://www.w3.org/2000/svg"
 width="480.000000pt" height="360.000000pt" viewBox="0 0 480.000000 360.000000"
 preserveAspectRatio="xMidYMid meet">
<metadata>
Created by potrace 1.16, written by Peter Selinger 2001-2019
</metadata>
<rect width="1" height="360" fill="#000000"/>
<rect x="479" width="1" height="360" fill="#000000"/>
<rect width="480" height="1" fill="#000000"/>
<rect y="359" width="480" height="1" fill="#000000"/>
<g transform="translate(0.000000,360.000000) scale(0.100000,-0.100000)"
fill="#000000" stroke="none">
<path d="M2586 3388 c-112 -113 -111 -109 -80 -202 l26 -77 -81 -85 c-85 -87
-110 -131 -135 -232 -25 -102 -28 -147 -11 -217 8 -36 15 -79 15 -96 0 -16 5
-29 10 -29 6 0 10 9 10 21 0 33 17 13 29 -36 14 -54 51 -121 51 -91 0 19 1 18
23 -2 13 -12 33 -22 46 -22 26 0 72 -22 90 -44 11 -13 9 -21 -9 -46 -29 -41
-23 -62 25 -76 27 -7 44 -20 55 -40 9 -16 26 -33 39 -39 14 -7 26 -25 34 -52
12 -44 23 -54 33 -28 9 23 22 9 35 -38 11 -39 12 -40 20 -19 5 13 15 22 21 19
7 -2 25 4 39 14 28 20 39 16 39 -13 0 -29 17 -13 24 24 l7 33 18 -45 18 -45
-94 -92 c-68 -67 -102 -93 -120 -93 -33 0 -79 -48 -92 -97 -6 -22 -17 -45 -24
-50 -6 -6 -104 -20 -217 -32 -113 -12 -212 -24 -221 -27 -9 -3 -30 6 -46 20
-16 13 -52 32 -81 41 -54 18 -63 17 -112 -14 -8 -6 -27 -12 -41 -15 -18 -4
-32 -18 -43 -41 -11 -23 -29 -40 -53 -50 -20 -8 -37 -14 -39 -13 -1 2 -51 93
-111 202 -100 185 -110 199 -138 202 -16 2 -34 10 -40 18 -20 26 -71 14 -114
-29 -22 -22 -41 -44 -41 -48 0 -5 45 -90 100 -190 56 -100 96 -183 90 -185
-16 -6 -12 -57 9 -117 12 -33 18 -69 14 -88 -3 -21 6 -67 27 -130 30 -93 33
-99 68 -113 38 -16 80 -38 195 -101 212 -118 211 -117 236 -162 33 -61 73 -98
239 -225 160 -122 164 -128 108 -195 -46 -55 -55 -111 -28 -177 11 -27 23 -66
27 -87 l6 -37 629 0 630 0 0 33 c0 52 -102 187 -141 187 -22 0 -24 7 -45 150
-27 189 -41 371 -32 425 13 87 -24 165 -71 150 -22 -7 -27 8 -15 52 6 21 6 21
37 3 21 -12 55 -19 97 -20 110 -4 113 -3 107 23 -6 21 -4 22 44 19 60 -5 88 3
71 20 -21 21 -13 28 27 28 63 0 100 10 99 29 -1 23 39 111 51 111 6 0 13 -28
17 -61 l7 -62 18 24 19 24 0 -27 c0 -15 -5 -39 -11 -55 -13 -34 -39 -196 -32
-203 3 -3 11 4 19 15 37 52 88 114 92 111 2 -2 -2 -21 -8 -43 -14 -47 -39
-255 -33 -266 3 -5 11 0 19 10 7 10 14 16 14 13 0 -3 3 -52 6 -110 3 -58 7
-106 9 -108 1 -1 19 22 40 53 21 30 39 54 40 53 1 -2 -6 -48 -15 -103 -9 -55
-15 -103 -13 -108 7 -12 40 10 83 55 22 23 40 39 40 36 0 -4 -9 -44 -20 -90
-26 -110 -26 -117 6 -87 l27 24 -7 -50 -6 -50 25 30 c14 17 25 24 25 18 0 -26
19 -12 25 20 8 35 64 151 70 145 2 -2 -2 -26 -11 -53 -12 -42 -25 -107 -59
-309 -4 -22 -2 -27 11 -22 12 4 14 1 9 -14 -6 -20 -2 -20 187 -20 l194 0 13
103 c17 131 33 171 26 62 -3 -44 -8 -99 -11 -122 -7 -43 -6 -43 25 -43 l31 0
0 840 c0 623 -3 840 -11 840 -19 0 -217 117 -303 178 -150 107 -310 274 -411
428 -36 55 -46 64 -51 48 -15 -45 -46 -104 -55 -104 -5 0 -29 -30 -53 -67 -40
-63 -146 -192 -237 -290 -22 -24 -76 -70 -120 -104 l-80 -61 -20 25 c-15 20
-20 46 -24 126 -4 93 -3 103 19 135 l23 35 16 -52 c10 -37 15 -44 16 -26 1 26
21 32 48 16 8 -5 13 24 18 99 l7 105 29 -27 c21 -20 29 -37 29 -63 1 -32 2
-34 14 -19 7 10 19 65 26 123 12 100 14 105 34 99 20 -6 19 -5 -4 21 -17 19
-21 29 -13 32 9 3 6 18 -11 51 -56 112 -107 247 -127 338 -40 185 -92 283
-190 359 -29 22 -71 57 -93 78 -53 48 -121 82 -226 110 l-85 23 -18 50 c-10
27 -24 54 -30 61 -17 17 -163 53 -215 53 -42 0 -49 -4 -116 -72z m2 -1074 c3
-28 3 -28 -12 -9 -19 24 -21 48 -3 43 6 -3 13 -18 15 -34z m790 -459 l-3 -30
-21 40 c-16 30 -19 44 -11 57 10 14 12 13 24 -10 8 -14 13 -40 11 -57z m-788
-337 c-22 -36 -26 -98 -9 -130 9 -16 4 -35 -25 -99 -39 -85 -66 -182 -66 -241
0 -21 -4 -38 -9 -38 -5 0 -26 21 -46 48 -21 26 -57 67 -81 92 -35 37 -45 57
-58 115 -9 39 -28 98 -42 133 -15 34 -25 65 -23 67 4 4 343 82 366 84 8 1 6
-10 -7 -31z m-630 -238 c6 -11 31 -43 55 -70 24 -27 49 -60 56 -72 15 -30 -43
24 -113 105 -42 48 -47 57 -29 57 11 0 25 -9 31 -20z m1900 -155 c0 -9 -6 -12
-15 -9 -8 4 -15 10 -15 15 0 5 7 9 15 9 8 0 15 -7 15 -15z m-466 -330 c14 -72
36 -282 36 -339 0 -74 -8 -67 -50 43 -31 79 -32 89 -26 170 12 158 26 202 40
126z"/>
</g>
</svg>
