<?xml version="1.0" standalone="no"?>
<!DOCTYPE svg PUBLIC "-//W3C//DTD SVG 20010904//EN"
 "http://www.w3.org/TR/2001/REC-SVG-20010904/DTD/svg10.dtd">
<svg version="1.0" xmlns="http://www.w3.org/2000/svg"
 width="480.000000pt" height="360.000000pt" viewBox="0 0 480.000000 360.000000"
 preserveAspectRatio="xMidYMid meet">
<metadata>
Created by potrace 1.16, written by Peter Selinger 2001-2019
</metadata>
<rect width="1" height="360" fill="#000000"/>
<rect x="479" width="1" height="360" fill="#000000"/>
<rect width="480" height="1" fill="#000000"/>
<rect y="359" width="480" height="1" fill="#000000"/>
<g transform="translate(0.000000,360.000000) scale(0.100000,-0.100000)"
fill="#000000" stroke="none">
<path d="M0 1800 l0 -1800 2400 0 2400 0 0 1800 0 1800 -2400 0 -2400 0 0
-1800z m2328 1011 c7 -1 11 -13 10 -33 -3 -31 -1 -33 35 -36 31 -3 45 3 79 32
50 43 93 53 165 36 48 -10 66 -22 134 -87 44 -42 79 -80 79 -84 0 -20 -48 -7
-94 26 -27 19 -55 35 -62 35 -10 0 -24 -42 -24 -75 0 -7 24 -23 54 -35 30 -12
72 -37 93 -55 34 -30 37 -35 25 -55 -15 -25 -10 -35 29 -55 16 -9 27 -20 24
-25 -4 -6 0 -10 7 -10 7 0 18 -11 25 -25 9 -21 9 -25 -5 -25 -12 0 -13 -3 -4
-12 16 -16 15 -29 -1 -22 -24 9 -34 -19 -28 -81 l6 -60 133 -25 c111 -20 132
-27 132 -42 0 -10 -1 -18 -2 -18 -2 0 -36 6 -75 14 -40 7 -73 12 -73 10 0 -2
20 -15 44 -29 l44 -26 137 26 c75 14 158 25 184 25 61 0 163 -27 174 -46 5 -8
12 -12 16 -9 5 2 9 -1 8 -8 -1 -33 4 -47 17 -47 8 0 17 -8 21 -19 4 -13 12
-17 30 -13 20 3 24 1 19 -12 -5 -12 -2 -15 12 -9 12 4 15 3 10 -5 -5 -8 0 -12
13 -12 12 0 21 -4 21 -10 0 -5 -7 -10 -15 -10 -15 0 -20 -21 -8 -34 14 -13 11
-36 -5 -36 -13 0 -12 -3 4 -15 19 -14 19 -14 0 -15 -20 0 -20 0 0 -15 18 -14
18 -14 -6 -15 -18 0 -21 -3 -11 -9 22 -14 -24 -24 -49 -11 -16 9 -24 8 -37 -5
-9 -9 -27 -21 -41 -26 -14 -6 -22 -15 -19 -23 7 -17 -43 -17 -64 0 -8 6 -23
14 -34 18 -16 6 -14 1 9 -23 42 -43 23 -39 -29 7 -47 42 -77 51 -245 77 -104
15 -144 26 -181 46 -21 11 -157 15 -167 4 -2 -2 2 -21 8 -44 19 -70 -22 -112
-65 -65 -22 24 -24 24 -30 5 -3 -10 -12 -25 -20 -31 -26 -22 -44 5 -47 73 -3
61 -3 61 -38 69 -19 4 -79 2 -133 -4 -108 -13 -130 -8 -135 33 -5 32 -18 44
-50 45 -72 4 -345 24 -402 30 -71 6 -73 -5 -5 -26 52 -16 165 -70 165 -79 -1
-31 -21 -29 -116 13 -54 24 -127 54 -161 66 l-62 22 -27 -21 c-31 -24 -61 -15
-66 21 -3 20 -11 24 -63 30 -76 9 -97 19 -114 52 -28 51 -30 51 339 12 74 -8
208 -20 298 -27 l163 -12 29 28 c16 15 49 68 74 118 39 77 44 93 33 106 -8 9
-22 46 -31 82 -16 61 -20 67 -57 83 -50 22 -61 57 -28 92 44 47 110 19 95 -41
-3 -13 -1 -27 5 -31 6 -3 17 -22 25 -40 14 -34 34 -46 34 -21 0 8 7 29 16 46
20 41 6 86 -24 77 -13 -4 -25 3 -40 24 -12 16 -22 33 -22 38 0 5 -35 32 -77
59 -125 81 -140 105 -111 173 15 34 17 36 64 34 27 -1 55 -2 62 -3z"/>
<path d="M2704 2307 c-6 -17 12 -67 25 -67 5 0 17 12 26 27 17 25 17 27 -1 40
-23 17 -43 17 -50 0z"/>
<path d="M2472 2174 c-16 -32 -42 -82 -58 -111 -16 -28 -25 -55 -21 -59 12
-12 77 26 131 78 l48 47 -22 38 c-43 72 -45 72 -78 7z"/>
<path d="M2846 2102 c-7 -12 62 -49 108 -58 54 -10 40 9 -30 41 -59 27 -70 29
-78 17z"/>
</g>
</svg>
