<?xml version="1.0" standalone="no"?>
<!DOCTYPE svg PUBLIC "-//W3C//DTD SVG 20010904//EN"
 "http://www.w3.org/TR/2001/REC-SVG-20010904/DTD/svg10.dtd">
<svg version="1.0" xmlns="http://www.w3.org/2000/svg"
 width="480.000000pt" height="360.000000pt" viewBox="0 0 480.000000 360.000000"
 preserveAspectRatio="xMidYMid meet">
<metadata>
Created by potrace 1.16, written by Peter Selinger 2001-2019
</metadata>
<rect width="1" height="360" fill="#000000"/>
<rect x="479" width="1" height="360" fill="#000000"/>
<rect width="480" height="1" fill="#000000"/>
<rect y="359" width="480" height="1" fill="#000000"/>
<g transform="translate(0.000000,360.000000) scale(0.100000,-0.100000)"
fill="#000000" stroke="none">
<path d="M1604 3413 c0 -272 -25 -385 -135 -608 -53 -108 -137 -227 -222 -314
-77 -79 -224 -194 -294 -230 -34 -17 -64 -35 -68 -41 -3 -5 -38 -19 -78 -31
-40 -12 -76 -25 -82 -29 -23 -18 -192 -52 -302 -61 -138 -11 -314 0 -406 27
-16 5 -17 -50 -17 -1060 l0 -1066 1503 0 1503 0 12 87 c7 49 17 133 22 188 10
102 21 156 65 300 41 137 74 283 100 455 14 91 37 213 50 271 23 102 23 111
11 229 -10 103 -16 126 -31 134 -51 29 -75 64 -75 108 0 50 25 109 65 156 15
19 36 63 46 98 11 40 30 79 49 100 34 39 36 47 16 67 -12 11 -11 15 5 25 29
19 22 33 -8 17 -30 -16 -21 -20 -113 66 -10 9 -24 19 -31 21 -11 4 -10 10 6
27 16 19 17 24 5 31 -8 6 -29 10 -46 10 -33 0 -74 35 -74 63 0 10 -6 14 -14
11 -11 -4 -12 6 -4 53 4 32 13 69 18 81 9 21 4 31 -45 83 -64 69 -77 105 -49
126 16 12 46 14 164 8 257 -12 322 -20 375 -46 92 -45 137 -104 200 -263 15
-38 33 -76 41 -84 62 -62 105 -165 123 -296 7 -49 22 -99 42 -138 74 -147 85
-206 97 -513 8 -226 6 -271 -18 -330 -12 -30 -26 -55 -31 -55 -5 0 -6 7 -3 15
4 8 2 15 -3 15 -9 0 -53 -91 -53 -111 0 -5 -11 -26 -24 -46 l-25 -36 30 -81
c43 -117 112 -256 227 -460 56 -99 121 -226 144 -283 l43 -103 243 0 242 0 0
1800 0 1800 -1598 0 -1597 0 -1 -187z"/>
<path d="M3545 2200 c3 -5 11 -10 16 -10 6 0 7 5 4 10 -3 6 -11 10 -16 10 -6
0 -7 -4 -4 -10z"/>
<path d="M3669 1708 c0 -2 -2 -19 -5 -38 -2 -19 -11 -40 -20 -47 -13 -10 -14
-23 -6 -92 6 -45 8 -91 5 -102 -7 -24 83 -162 99 -153 20 13 3 202 -28 322
-16 61 -32 112 -36 112 -5 0 -8 -1 -9 -2z"/>
<path d="M3990 1515 c0 -5 5 -17 10 -25 5 -8 10 -10 10 -5 0 6 -5 17 -10 25
-5 8 -10 11 -10 5z"/>
</g>
</svg>
