<?xml version="1.0" standalone="no"?>
<!DOCTYPE svg PUBLIC "-//W3C//DTD SVG 20010904//EN"
 "http://www.w3.org/TR/2001/REC-SVG-20010904/DTD/svg10.dtd">
<svg version="1.0" xmlns="http://www.w3.org/2000/svg"
 width="480.000000pt" height="360.000000pt" viewBox="0 0 480.000000 360.000000"
 preserveAspectRatio="xMidYMid meet">
<metadata>
Created by potrace 1.16, written by Peter Selinger 2001-2019
</metadata>
<rect width="1" height="360" fill="#000000"/>
<rect x="479" width="1" height="360" fill="#000000"/>
<rect width="480" height="1" fill="#000000"/>
<rect y="359" width="480" height="1" fill="#000000"/>
<g transform="translate(0.000000,360.000000) scale(0.100000,-0.100000)"
fill="#000000" stroke="none">
<path d="M2872 3479 c-118 -15 -227 -60 -263 -108 -19 -26 -24 -28 -54 -18
-47 14 -147 -8 -176 -39 -27 -29 -36 -30 -44 -5 -9 30 -70 46 -175 45 -80 0
-110 -6 -192 -33 -54 -19 -104 -38 -113 -45 -24 -17 -35 -70 -21 -98 7 -12 31
-57 53 -98 22 -41 52 -98 67 -126 39 -75 62 -96 96 -89 27 6 27 6 23 -42 -4
-41 0 -58 31 -117 38 -73 45 -119 22 -145 -17 -20 -30 -258 -14 -263 6 -2 13
-28 16 -57 4 -42 0 -61 -16 -90 -12 -21 -27 -62 -33 -91 -20 -91 -59 -160 -93
-160 -7 0 -23 -11 -36 -25 -19 -20 -22 -31 -17 -72 5 -48 3 -56 -46 -163 -29
-63 -78 -200 -122 -340 -10 -30 -28 -72 -41 -92 -16 -25 -24 -52 -24 -83 0
-25 -9 -78 -20 -117 -33 -119 -29 -141 35 -206 43 -43 55 -62 55 -86 0 -52 29
-228 47 -284 20 -67 61 -112 100 -112 57 0 56 -24 -4 -161 -30 -68 -57 -132
-60 -141 -5 -17 34 -18 732 -18 697 0 736 1 731 18 -10 34 -25 106 -22 109 2
2 15 -15 30 -37 19 -28 25 -47 20 -65 -4 -15 -2 -25 5 -25 6 0 11 7 11 15 0 8
17 22 38 30 76 31 95 121 72 327 -11 95 -16 191 -21 394 0 17 10 63 24 102
l24 70 -79 164 c-44 89 -96 197 -115 238 -39 84 -122 333 -123 367 0 12 9 46
20 74 23 58 16 75 -30 63 -61 -16 -64 -14 -82 66 -10 41 -22 108 -29 147 -6
45 -20 86 -34 107 -13 19 -32 67 -43 108 -21 76 -21 100 -1 54 7 -14 15 -26
19 -26 4 0 -8 48 -26 107 -38 117 -39 150 -5 88 25 -46 25 -42 -8 104 -22 99
-26 140 -13 142 4 1 22 2 41 4 34 3 61 26 61 52 0 22 -29 73 -76 136 -47 63
-57 94 -26 82 30 -11 106 -16 119 -7 18 12 24 57 30 207 7 191 7 192 -30 236
-30 36 -36 39 -82 38 -27 -1 -79 -5 -113 -10z m-643 -1112 c1 -16 -3 -26 -9
-22 -5 3 -10 25 -9 48 0 33 2 38 9 22 5 -11 9 -33 9 -48z m-27 -109 c-15 -15
-24 -6 -16 16 5 12 10 14 17 7 8 -8 8 -14 -1 -23z m717 6 c3 -16 1 -17 -13 -5
-19 16 -21 34 -3 29 6 -3 14 -13 16 -24z m5 -641 c2 -10 7 -52 11 -93 11 -138
45 -439 51 -455 9 -24 -9 -17 -29 11 -15 19 -16 28 -7 39 9 11 8 19 -3 36 -9
12 -13 27 -10 34 2 8 -2 49 -11 92 -28 141 -38 242 -31 298 6 55 19 71 29 38z
m-908 -1227 c-14 -31 -26 -61 -26 -66 0 -13 -17 -13 -24 -1 -7 10 64 135 71
127 2 -2 -7 -29 -21 -60z"/>
</g>
</svg>
