<?xml version="1.0" standalone="no"?>
<!DOCTYPE svg PUBLIC "-//W3C//DTD SVG 20010904//EN"
 "http://www.w3.org/TR/2001/REC-SVG-20010904/DTD/svg10.dtd">
<svg version="1.0" xmlns="http://www.w3.org/2000/svg"
 width="480.000000pt" height="360.000000pt" viewBox="0 0 480.000000 360.000000"
 preserveAspectRatio="xMidYMid meet">
<metadata>
Created by potrace 1.16, written by Peter Selinger 2001-2019
</metadata>
<rect width="1" height="360" fill="#000000"/>
<rect x="479" width="1" height="360" fill="#000000"/>
<rect width="480" height="1" fill="#000000"/>
<rect y="359" width="480" height="1" fill="#000000"/>
<g transform="translate(0.000000,360.000000) scale(0.100000,-0.100000)"
fill="#000000" stroke="none">
<path d="M1914 3576 c21 -115 28 -237 23 -384 -7 -182 -26 -294 -71 -401 -14
-36 -26 -68 -26 -73 0 -14 -89 -191 -123 -243 -112 -174 -315 -369 -502 -482
-11 -6 -49 -26 -85 -44 -36 -17 -76 -37 -90 -44 -14 -7 -45 -18 -69 -25 -24
-6 -50 -18 -58 -26 -8 -8 -27 -14 -42 -14 -28 0 -55 -4 -224 -36 -64 -11 -113
-14 -175 -9 -48 3 -109 8 -137 10 -27 2 -84 11 -125 21 -41 9 -93 20 -115 24
-22 4 -52 11 -67 15 l-28 7 0 -936 0 -936 2155 0 c1185 0 2155 3 2155 6 0 3
-7 33 -16 66 -21 82 -17 100 100 433 69 194 91 279 111 423 9 62 35 190 60
285 l44 174 -8 128 c-6 98 -11 130 -22 133 -30 10 -89 80 -89 105 0 39 36 128
65 161 14 17 28 41 30 55 17 87 29 119 56 146 31 33 36 51 17 58 -10 3 -10 7
-1 19 17 20 6 29 -24 17 -27 -10 -39 -5 -115 50 -38 27 -45 37 -36 48 16 20
-1 33 -50 40 -51 7 -116 66 -108 98 2 11 7 45 11 75 l6 55 -53 42 c-29 23 -61
55 -70 71 -38 63 11 76 323 87 170 6 201 5 228 -9 l31 -17 0 426 0 425 -1445
0 -1445 0 4 -24z"/>
</g>
</svg>
