<?xml version="1.0" standalone="no"?>
<!DOCTYPE svg PUBLIC "-//W3C//DTD SVG 20010904//EN"
 "http://www.w3.org/TR/2001/REC-SVG-20010904/DTD/svg10.dtd">
<svg version="1.0" xmlns="http://www.w3.org/2000/svg"
 width="480.000000pt" height="360.000000pt" viewBox="0 0 480.000000 360.000000"
 preserveAspectRatio="xMidYMid meet">
<metadata>
Created by potrace 1.16, written by Peter Selinger 2001-2019
</metadata>
<rect width="1" height="360" fill="#000000"/>
<rect x="479" width="1" height="360" fill="#000000"/>
<rect width="480" height="1" fill="#000000"/>
<rect y="359" width="480" height="1" fill="#000000"/>
<g transform="translate(0.000000,360.000000) scale(0.100000,-0.100000)"
fill="#000000" stroke="none">
<path d="M0 2355 l0 -1245 23 5 c31 7 168 23 257 30 71 6 155 14 495 50 83 9
200 23 260 31 101 14 375 44 396 44 5 0 9 49 9 108 0 91 6 130 36 248 19 76
47 173 61 214 43 129 167 342 335 579 l89 125 -78 80 c-130 134 -124 113 -59
202 31 42 56 82 56 89 0 12 81 91 181 177 239 205 448 414 490 491 9 16 -54
17 -1271 17 l-1280 0 0 -1245z"/>
<path d="M3435 3474 c-55 -68 -108 -135 -119 -147 -41 -49 -217 -287 -270
-366 -60 -90 -146 -253 -191 -361 -44 -107 -163 -337 -203 -393 -64 -89 -72
-97 -101 -90 -29 7 -191 85 -224 108 -12 8 -26 15 -32 15 -6 0 -23 -37 -38
-83 -30 -92 -60 -145 -131 -227 -53 -62 -116 -182 -116 -222 0 -20 10 -34 40
-55 38 -27 58 -53 41 -53 -5 0 -24 13 -42 30 -19 16 -37 30 -41 30 -19 0 -4
-20 44 -59 47 -38 50 -42 23 -35 l-30 7 27 -22 c18 -15 40 -21 75 -21 67 0 93
-9 93 -31 0 -24 -23 -35 -106 -54 l-66 -16 -55 33 c-30 18 -63 41 -74 51 -10
10 -19 14 -19 10 0 -15 51 -139 65 -157 22 -30 92 -35 305 -24 107 5 319 10
470 11 268 2 800 -10 830 -18 8 -2 78 -12 155 -20 77 -9 214 -32 305 -51 380
-81 457 -94 708 -119 l42 -5 0 884 0 884 -22 6 c-35 9 -35 9 -41 -36 -3 -24
-15 -115 -27 -203 -47 -359 -82 -489 -161 -591 -78 -101 -277 -291 -365 -349
-46 -30 -84 -59 -84 -65 0 -18 -130 -147 -161 -160 -24 -10 -35 -10 -54 0 -20
10 -33 11 -64 2 -49 -15 -108 -15 -117 -1 -3 6 12 37 35 70 22 32 41 62 41 68
0 5 18 30 40 55 21 26 43 52 47 59 4 6 21 19 38 27 20 11 30 23 30 39 0 13 9
29 20 35 53 28 85 52 85 62 0 6 9 19 19 28 32 29 57 103 107 316 53 231 53
249 1 327 -46 69 -91 96 -145 89 -79 -11 -127 -39 -158 -92 -39 -69 -73 -103
-110 -110 -42 -8 -71 2 -90 31 -22 33 -11 63 66 179 73 109 141 189 311 362
120 122 119 116 37 152 -27 12 -48 26 -48 32 0 21 97 215 143 288 l47 72 -343
-1 -342 0 -100 -125z"/>
<path d="M2000 1606 c0 -3 9 -10 20 -16 11 -6 20 -8 20 -6 0 3 -9 10 -20 16
-11 6 -20 8 -20 6z"/>
<path d="M1611 1348 c-1 -20 4 -40 10 -43 18 -12 20 0 5 41 l-15 39 0 -37z"/>
<path d="M0 430 l0 -430 2400 0 2400 0 0 315 0 314 -32 6 c-132 22 -187 27
-290 26 -64 0 -177 -8 -250 -17 -257 -30 -315 -34 -573 -34 -274 0 -832 24
-925 40 -30 5 -158 16 -285 25 -444 30 -623 45 -980 79 -480 46 -694 63 -1030
81 -55 4 -163 10 -240 15 -77 6 -152 10 -167 10 l-28 0 0 -430z"/>
</g>
</svg>
