<?xml version="1.0" standalone="no"?>
<!DOCTYPE svg PUBLIC "-//W3C//DTD SVG 20010904//EN"
 "http://www.w3.org/TR/2001/REC-SVG-20010904/DTD/svg10.dtd">
<svg version="1.0" xmlns="http://www.w3.org/2000/svg"
 width="480.000000pt" height="360.000000pt" viewBox="0 0 480.000000 360.000000"
 preserveAspectRatio="xMidYMid meet">
<metadata>
Created by potrace 1.16, written by Peter Selinger 2001-2019
</metadata>
<rect width="1" height="360" fill="#000000"/>
<rect x="479" width="1" height="360" fill="#000000"/>
<rect width="480" height="1" fill="#000000"/>
<rect y="359" width="480" height="1" fill="#000000"/>
<g transform="translate(0.000000,360.000000) scale(0.100000,-0.100000)"
fill="#000000" stroke="none">
<path d="M1378 3239 c-21 -10 -42 -28 -48 -40 -11 -19 -13 -19 -24 -4 -11 15
-13 15 -23 -7 -5 -12 -16 -48 -23 -78 -9 -34 -25 -67 -43 -87 -25 -27 -28 -35
-17 -47 7 -9 9 -23 6 -32 -3 -9 -2 -32 3 -53 5 -20 15 -68 21 -107 11 -68 10
-73 -21 -150 -25 -62 -68 -201 -69 -223 0 -2 7 -1 15 3 10 4 22 -9 40 -42 l24
-47 -4 65 c-3 44 -2 55 3 35 9 -31 30 -75 36 -75 2 0 2 8 -1 19 -9 37 13 29
70 -25 31 -30 60 -53 65 -53 23 4 23 -4 -4 -32 l-29 -30 27 -49 28 -50 -53
-39 c-85 -64 -167 -159 -167 -194 0 -11 -22 -43 -49 -72 -103 -108 -91 -232
28 -288 l46 -22 3 -75 c2 -41 -1 -110 -7 -153 -8 -66 -15 -88 -45 -131 -20
-29 -36 -57 -36 -63 0 -5 -11 -22 -25 -37 -25 -27 -32 -69 -16 -95 6 -9 2 -33
-9 -65 -82 -226 -80 -219 -65 -243 14 -21 13 -25 -13 -55 -54 -63 -91 -205
-61 -235 12 -12 12 -7 -31 -248 -11 -61 -20 -111 -20 -112 0 -2 268 -3 595 -3
403 0 595 3 595 10 0 18 -108 443 -125 489 l-15 43 39 59 c22 33 43 68 46 79
5 16 10 18 26 10 23 -13 21 -14 24 32 2 37 9 46 72 93 8 6 27 56 44 112 35
120 72 210 163 390 76 153 81 184 39 269 -15 30 -58 94 -96 141 -63 79 -68 88
-57 109 18 33 6 52 -45 74 l-45 19 0 53 c0 99 -74 179 -199 214 -59 17 -96 43
-73 51 15 6 16 39 2 48 -8 5 -8 11 0 20 17 21 48 25 55 7 4 -12 12 -8 34 19
28 33 29 33 24 8 -7 -36 16 -49 35 -21 16 24 42 30 42 10 1 -7 10 -2 21 12 12
14 26 25 31 25 20 0 88 167 88 216 0 74 -68 245 -123 306 -11 12 -24 46 -28
74 -10 61 -34 91 -102 126 -27 13 -71 40 -98 60 -55 39 -151 73 -208 73 -20 0
-60 -6 -89 -14 -52 -13 -52 -13 -65 13 -16 33 -66 38 -119 10z m-38 -109 c0
-5 -5 -10 -11 -10 -5 0 -7 5 -4 10 3 6 8 10 11 10 2 0 4 -4 4 -10z m564 -1548
c16 2 30 -4 39 -17 13 -17 18 -18 41 -7 24 11 31 9 66 -19 44 -36 47 -18 -30
-189 -28 -63 -80 -163 -116 -222 -35 -58 -64 -115 -65 -125 -1 -37 -26 -86
-47 -94 -28 -10 -38 6 -22 36 11 20 7 34 -25 104 l-36 82 16 77 c18 88 76 279
105 348 17 38 23 44 35 34 7 -6 25 -10 39 -8z"/>
<path d="M3134 2559 c-47 -13 -94 -71 -94 -116 0 -20 7 -44 15 -54 15 -15 13
-23 -21 -92 -42 -84 -46 -87 -139 -87 -172 -1 -299 -46 -347 -123 -54 -85 -42
-135 44 -198 48 -35 168 -97 241 -124 49 -19 58 -35 33 -68 -11 -14 -12 -27
-4 -54 5 -19 7 -46 4 -58 -8 -32 4 -115 17 -112 6 1 15 -10 21 -25 8 -23 6
-30 -12 -45 -12 -10 -41 -65 -66 -123 -24 -58 -74 -170 -111 -250 -83 -180
-103 -231 -154 -398 -52 -169 -53 -207 -6 -258 19 -21 35 -47 35 -57 0 -45 25
-100 60 -131 35 -32 132 -76 167 -76 13 0 14 -7 9 -39 -3 -22 -9 -46 -12 -55
-6 -14 35 -16 424 -16 l431 0 -39 117 c-21 65 -52 170 -70 233 -18 63 -38 130
-46 148 -12 29 -11 37 1 56 13 19 13 32 1 96 -8 41 -13 77 -10 79 3 3 48 -38
102 -91 53 -52 111 -102 128 -110 30 -15 33 -14 58 8 32 30 36 30 36 -3 0 -33
-9 -47 -32 -56 -19 -7 -25 -27 -7 -27 5 0 8 -4 4 -10 -3 -5 6 -17 21 -26 23
-16 30 -16 67 -3 56 20 78 53 84 130 4 47 0 76 -12 109 -10 25 -17 59 -16 75
1 17 2 45 4 63 2 39 12 32 -198 132 -82 40 -155 79 -161 88 -7 10 -18 35 -25
57 -7 22 -30 80 -51 130 -33 78 -37 93 -27 117 9 22 7 39 -11 93 -20 61 -21
67 -6 90 20 31 20 54 0 83 -8 12 -14 27 -12 33 2 6 62 12 158 14 177 3 246 19
293 66 28 29 29 33 23 91 -7 70 -28 109 -92 168 -41 38 -231 139 -261 140 -16
0 -21 22 -25 103 -3 66 -2 68 29 87 76 46 49 166 -46 206 -18 8 -43 14 -55 14
-11 1 -46 9 -76 20 -30 11 -74 19 -97 20 -23 0 -52 4 -65 9 -44 16 -73 19
-104 10z m-155 -1626 c47 -143 48 -160 16 -224 -15 -30 -36 -66 -47 -81 -17
-25 -17 -27 -2 -36 16 -9 16 -13 -1 -60 -11 -29 -20 -50 -22 -49 -1 2 -10 55
-18 118 -9 63 -25 134 -36 159 -16 35 -19 56 -14 98 7 54 33 141 55 183 12 21
14 21 25 5 7 -9 27 -60 44 -113z m-103 -610 c-3 -10 -10 -40 -16 -68 -19 -89
-17 -86 -50 -67 -28 16 -70 77 -70 101 0 6 6 11 14 11 8 0 17 -15 20 -36 9
-45 29 -40 37 9 6 41 6 39 34 55 29 16 37 15 31 -5z"/>
</g>
</svg>
