<?xml version="1.0" standalone="no"?>
<!DOCTYPE svg PUBLIC "-//W3C//DTD SVG 20010904//EN"
 "http://www.w3.org/TR/2001/REC-SVG-20010904/DTD/svg10.dtd">
<svg version="1.0" xmlns="http://www.w3.org/2000/svg"
 width="480.000000pt" height="360.000000pt" viewBox="0 0 480.000000 360.000000"
 preserveAspectRatio="xMidYMid meet">
<metadata>
Created by potrace 1.16, written by Peter Selinger 2001-2019
</metadata>
<rect width="1" height="360" fill="#000000"/>
<rect x="479" width="1" height="360" fill="#000000"/>
<rect width="480" height="1" fill="#000000"/>
<rect y="359" width="480" height="1" fill="#000000"/>
<g transform="translate(0.000000,360.000000) scale(0.100000,-0.100000)"
fill="#000000" stroke="none">
<path d="M0 1800 l0 -1800 710 0 c391 0 710 2 710 4 0 2 -9 23 -20 47 -11 24
-20 54 -20 66 0 23 -1 22 163 70 10 3 77 8 148 12 70 4 131 10 134 13 4 3 -1
20 -9 37 -9 16 -16 48 -16 70 0 22 -7 66 -15 98 -8 32 -18 82 -22 111 -6 50
-23 74 -23 31 0 -43 -33 -162 -50 -179 -10 -10 -23 -26 -29 -36 -21 -35 12
379 49 621 16 105 19 135 14 135 -3 0 -28 -17 -57 -39 -125 -93 -207 -118
-283 -86 -33 14 -38 13 -63 -4 -14 -10 -54 -34 -88 -54 l-63 -36 -30 25 -30
25 -97 -44 c-325 -149 -470 -150 -543 -7 -34 66 -97 460 -107 661 -6 125 -5
127 30 235 19 60 43 147 52 194 9 47 30 119 46 160 25 63 43 89 112 161 l82
86 85 16 c158 31 192 32 245 8 43 -19 47 -24 42 -48 -4 -20 2 -36 19 -56 29
-35 40 -75 27 -96 -6 -9 -31 -19 -60 -22 -27 -4 -58 -11 -69 -16 -10 -6 -35
-13 -54 -17 -19 -3 -47 -16 -63 -29 -24 -20 -28 -31 -34 -102 -7 -92 -27 -146
-72 -192 -35 -37 -37 -50 -16 -131 14 -55 47 -292 61 -434 4 -38 9 -68 11 -68
2 0 37 18 78 41 53 29 75 46 75 60 0 14 22 29 88 59 117 54 114 51 126 95 18
63 48 77 183 87 65 5 163 17 218 28 55 11 109 21 120 22 14 2 22 15 28 47 l9
43 -65 66 c-98 101 -226 277 -259 356 -27 65 -28 71 -16 132 10 58 17 69 62
112 28 26 85 67 126 92 41 24 77 45 79 47 12 8 -22 30 -42 26 -33 -7 -103 47
-110 86 -5 24 -12 31 -30 31 -36 0 -47 17 -31 49 8 15 22 35 31 43 17 14 153
94 213 125 l26 12 -33 101 c-31 95 -32 103 -18 131 9 16 18 29 20 29 3 0 48
-20 101 -45 94 -44 95 -44 104 -22 5 12 22 54 37 92 17 40 35 70 43 71 8 0 28
6 43 13 16 6 32 9 37 6 5 -3 12 -46 16 -96 6 -78 9 -89 23 -83 9 4 86 9 171
12 129 3 175 0 274 -17 108 -20 121 -20 142 -6 29 19 71 19 104 0 14 -8 35
-14 46 -15 12 0 42 -11 65 -25 31 -17 60 -25 99 -26 82 -1 142 -12 168 -30
l22 -16 -87 -87 -87 -87 53 -29 c50 -27 138 -96 222 -172 24 -21 38 -44 40
-63 4 -35 7 -35 -97 3 l-80 29 -27 -23 c-16 -14 -56 -29 -104 -39 -43 -9 -96
-22 -118 -28 l-40 -12 -8 -148 c-8 -140 -7 -159 22 -340 80 -493 67 -440 137
-553 85 -137 121 -210 135 -273 14 -66 6 -108 -29 -157 l-28 -39 18 -60 c12
-36 17 -73 13 -92 -3 -18 1 -58 8 -90 8 -32 22 -94 31 -138 20 -97 65 -237 80
-247 6 -4 11 -27 12 -50 0 -42 13 -110 34 -190 l11 -38 754 0 755 0 0 1800 0
1800 -2400 0 -2400 0 0 -1800z"/>
<path d="M1743 2293 c-49 -46 -73 -103 -63 -147 4 -20 15 -46 23 -59 62 -89
93 -130 101 -131 5 -1 16 19 24 44 14 40 13 53 -1 125 -10 44 -17 91 -17 105
-1 14 -9 40 -19 58 l-17 33 -31 -28z"/>
<path d="M2873 387 c2 -71 4 -77 22 -75 25 4 23 32 -5 103 l-19 50 2 -78z"/>
</g>
</svg>
