<?xml version="1.0" standalone="no"?>
<!DOCTYPE svg PUBLIC "-//W3C//DTD SVG 20010904//EN"
 "http://www.w3.org/TR/2001/REC-SVG-20010904/DTD/svg10.dtd">
<svg version="1.0" xmlns="http://www.w3.org/2000/svg"
 width="480.000000pt" height="360.000000pt" viewBox="0 0 480.000000 360.000000"
 preserveAspectRatio="xMidYMid meet">
<metadata>
Created by potrace 1.16, written by Peter Selinger 2001-2019
</metadata>
<rect width="1" height="360" fill="#000000"/>
<rect x="479" width="1" height="360" fill="#000000"/>
<rect width="480" height="1" fill="#000000"/>
<rect y="359" width="480" height="1" fill="#000000"/>
<g transform="translate(0.000000,360.000000) scale(0.100000,-0.100000)"
fill="#000000" stroke="none">
<path d="M2231 3565 c-8 -22 -9 -40 -3 -52 5 -10 13 -45 17 -79 5 -47 3 -64
-8 -76 -8 -8 -25 -34 -38 -59 -19 -36 -24 -65 -28 -165 -6 -120 -12 -140 -52
-174 -21 -18 -107 -146 -136 -204 -50 -98 -86 -216 -67 -216 4 0 24 17 45 37
25 24 48 37 66 38 l28 0 5 90 c4 77 10 100 39 155 34 66 66 108 76 98 3 -3 12
-32 21 -64 8 -32 26 -70 38 -84 17 -18 22 -31 16 -45 -4 -11 -10 -50 -14 -87
l-6 -67 39 -21 c48 -24 59 -41 67 -112 6 -50 4 -55 -19 -71 -40 -26 -42 -60
-7 -133 16 -35 30 -67 30 -70 0 -4 -18 -42 -40 -85 -36 -71 -43 -109 -19 -109
5 0 9 -8 9 -19 0 -11 -27 -41 -64 -72 -34 -30 -67 -65 -73 -79 -18 -46 -191
-285 -258 -357 -58 -64 -81 -79 -198 -138 -273 -139 -339 -208 -494 -520 -21
-41 -24 -58 -19 -105 4 -30 9 -91 13 -134 5 -64 12 -89 34 -125 16 -25 29 -49
29 -54 0 -27 64 -60 149 -76 35 -7 152 -44 260 -83 108 -38 225 -79 260 -90
l63 -21 22 28 c27 33 62 29 53 -6 -9 -34 32 -42 159 -30 60 6 115 11 122 11 7
0 12 -15 12 -39 0 -33 -6 -44 -37 -70 l-38 -30 230 -1 231 0 11 43 c7 23 15
66 19 95 8 61 -2 57 166 70 64 6 121 13 128 17 6 4 8 20 4 41 -5 28 -3 34 11
34 10 0 33 -11 51 -25 40 -30 49 -31 93 -4 18 11 75 42 126 69 164 88 201 113
317 217 124 112 129 120 146 256 8 61 7 70 -13 97 -31 41 -104 96 -178 132
-322 157 -313 150 -397 268 -37 51 -209 348 -255 440 -10 19 -34 55 -54 80
-104 127 -140 232 -122 351 6 37 11 70 11 73 0 3 7 6 15 6 8 0 15 5 15 11 0 8
5 7 15 -1 29 -24 40 4 39 93 -2 110 -35 245 -66 268 -22 18 -22 19 -6 46 37
62 60 121 65 168 5 44 2 55 -21 82 -31 37 -32 48 -5 92 l21 34 -26 21 c-25 20
-27 27 -35 165 -10 155 -6 182 33 212 19 15 38 46 84 142 2 4 -33 7 -77 7 -65
0 -81 -3 -81 -15 0 -8 -4 -15 -9 -15 -5 0 -14 7 -21 15 -9 10 -32 15 -75 15
-54 0 -63 -3 -68 -20 -3 -11 -10 -20 -16 -20 -6 0 -15 9 -21 20 -10 19 -21 20
-168 20 l-158 0 -13 -35z"/>
</g>
</svg>
