<?xml version="1.0" standalone="no"?>
<!DOCTYPE svg PUBLIC "-//W3C//DTD SVG 20010904//EN"
 "http://www.w3.org/TR/2001/REC-SVG-20010904/DTD/svg10.dtd">
<svg version="1.0" xmlns="http://www.w3.org/2000/svg"
 width="480.000000pt" height="360.000000pt" viewBox="0 0 480.000000 360.000000"
 preserveAspectRatio="xMidYMid meet">
<metadata>
Created by potrace 1.16, written by Peter Selinger 2001-2019
</metadata>
<rect width="1" height="360" fill="#000000"/>
<rect x="479" width="1" height="360" fill="#000000"/>
<rect width="480" height="1" fill="#000000"/>
<rect y="359" width="480" height="1" fill="#000000"/>
<g transform="translate(0.000000,360.000000) scale(0.100000,-0.100000)"
fill="#000000" stroke="none">
<path d="M3292 3460 c-52 -16 -102 -36 -112 -45 -10 -9 -23 -44 -30 -80 -7
-36 -17 -68 -24 -73 -6 -5 -42 -15 -81 -21 -104 -18 -182 -60 -262 -140 -79
-79 -117 -143 -132 -221 -6 -30 -13 -66 -17 -80 l-6 -25 21 25 c22 26 27 17
12 -22 -5 -13 -12 -48 -15 -78 -6 -51 -6 -53 9 -36 15 19 15 19 15 -2 0 -41
33 -93 62 -99 21 -4 28 -11 28 -29 0 -13 1 -27 2 -31 2 -5 -15 -17 -36 -28
-22 -11 -41 -26 -43 -32 -2 -6 11 -29 30 -50 28 -30 34 -44 30 -66 -4 -18 1
-34 12 -47 10 -11 15 -23 12 -26 -3 -4 -1 -16 4 -27 6 -11 16 -40 23 -65 15
-61 29 -68 116 -56 89 12 96 6 106 -99 6 -74 6 -79 -16 -94 -13 -9 -59 -48
-104 -88 -44 -40 -93 -75 -107 -78 -34 -9 -89 -71 -89 -100 0 -13 -14 -36 -31
-53 -41 -38 -70 -104 -68 -153 2 -23 -4 -49 -14 -65 -9 -14 -17 -32 -17 -40 0
-24 -67 -214 -84 -238 -9 -12 -13 -32 -9 -48 14 -71 -21 -24 -99 133 -81 163
-86 177 -97 269 -6 53 -16 109 -21 123 -20 52 -22 52 170 58 175 6 235 15 194
31 -10 4 -104 13 -209 21 l-190 15 -25 29 c-47 54 -133 87 -175 65 -15 -8 -40
-14 -56 -14 -20 0 -35 -9 -50 -30 -27 -36 -77 -54 -144 -51 -71 2 -86 -11 -40
-38 20 -11 48 -21 63 -21 23 0 30 -7 46 -48 26 -63 34 -72 67 -72 16 0 29 -4
29 -8 0 -5 20 -40 44 -78 30 -47 51 -96 66 -154 12 -47 44 -143 71 -214 28
-70 48 -130 45 -133 -12 -13 -69 33 -102 83 -20 30 -60 73 -88 93 -158 118
-204 167 -379 407 l-171 236 -38 -5 c-34 -5 -40 -2 -55 24 -18 30 -37 37 -48
19 -5 -8 -11 -7 -21 1 -11 9 -15 7 -19 -7 -4 -11 -15 -37 -26 -59 -10 -22 -19
-44 -19 -49 0 -4 54 -82 119 -172 109 -150 119 -167 114 -198 -4 -26 2 -49 25
-94 17 -33 30 -73 30 -89 -1 -33 61 -176 90 -209 10 -13 37 -25 63 -29 24 -4
64 -18 90 -30 25 -13 91 -39 147 -59 137 -47 159 -60 181 -105 26 -50 86 -103
264 -231 81 -58 146 -109 147 -114 0 -5 -15 -26 -34 -47 -50 -54 -56 -110 -22
-185 14 -31 26 -69 26 -85 l0 -29 630 0 630 0 0 33 c0 51 -102 187 -141 187
-20 0 -22 7 -50 190 -14 92 -23 206 -24 313 -4 178 -11 208 -55 222 -19 6 -27
34 -14 47 3 4 22 -5 41 -18 31 -21 47 -24 120 -24 l85 0 -6 26 -7 25 62 -7 62
-7 -7 26 c-6 25 -4 26 51 32 32 3 64 7 72 8 8 1 22 27 33 57 10 30 25 61 32
69 13 12 15 9 20 -20 3 -19 7 -50 9 -69 l3 -35 13 27 c8 16 18 28 24 28 11 0
5 -44 -16 -115 -18 -64 -32 -175 -20 -174 4 0 28 27 52 60 24 33 45 58 47 56
2 -2 -3 -35 -10 -73 -8 -38 -17 -107 -21 -154 l-6 -85 24 29 24 29 -5 -112
c-3 -67 -1 -116 5 -122 7 -7 21 7 43 41 18 28 35 49 37 46 3 -2 0 -28 -5 -58
-18 -93 -24 -148 -15 -148 14 0 71 45 94 74 12 15 23 25 25 23 3 -2 -5 -42
-16 -88 -26 -111 -26 -118 6 -88 l26 24 -7 -50 -6 -50 25 30 c22 26 26 27 26
10 0 -27 15 -8 30 40 15 48 60 139 65 133 2 -2 -2 -26 -11 -53 -17 -60 -54
-266 -54 -308 0 -25 2 -28 15 -17 10 9 15 9 15 1 0 -8 56 -11 188 -11 l188 0
14 83 c11 63 15 256 17 834 l3 753 -51 27 c-266 145 -482 334 -627 551 -30 45
-59 79 -62 75 -4 -4 -13 -24 -19 -45 -7 -20 -24 -48 -38 -62 -14 -15 -44 -54
-67 -88 -69 -104 -74 -97 -82 142 -6 137 -4 179 11 250 29 138 23 207 -30 357
-51 139 -85 198 -168 285 l-54 57 10 50 c9 49 9 50 -34 100 -53 63 -138 121
-176 120 -15 0 -70 -13 -121 -29z m-545 -872 c-3 -7 -5 -2 -5 12 0 14 2 19 5
13 2 -7 2 -19 0 -25z m-30 0 c-3 -8 -6 -5 -6 6 -1 11 2 17 5 13 3 -3 4 -12 1
-19z m1029 -679 c3 -6 -1 -18 -10 -27 -15 -15 -16 -14 -16 11 0 27 13 36 26
16z m-126 -114 c0 -8 -4 -17 -10 -20 -6 -4 -10 5 -10 20 0 15 4 24 10 20 6 -3
10 -12 10 -20z m-36 -24 c3 -5 -1 -14 -9 -21 -13 -10 -15 -9 -15 9 0 21 14 28
24 12z m-114 -23 c0 23 18 12 25 -15 5 -22 2 -32 -16 -46 -23 -19 -23 -19 -35
15 -7 18 -13 42 -13 52 -1 18 0 18 19 1 11 -10 20 -13 20 -7z m424 -654 c9
-24 4 -25 -24 -4 -24 19 -24 20 -4 20 12 0 25 -7 28 -16z m-480 -436 c18 -141
21 -267 7 -253 -5 6 -24 48 -41 93 l-32 84 11 96 c22 175 32 172 55 -20z"/>
<path d="M4792 30 c0 -19 2 -27 5 -17 2 9 2 25 0 35 -3 9 -5 1 -5 -18z"/>
</g>
</svg>
