<?xml version="1.0" standalone="no"?>
<!DOCTYPE svg PUBLIC "-//W3C//DTD SVG 20010904//EN"
 "http://www.w3.org/TR/2001/REC-SVG-20010904/DTD/svg10.dtd">
<svg version="1.0" xmlns="http://www.w3.org/2000/svg"
 width="480.000000pt" height="360.000000pt" viewBox="0 0 480.000000 360.000000"
 preserveAspectRatio="xMidYMid meet">
<metadata>
Created by potrace 1.16, written by Peter Selinger 2001-2019
</metadata>
<rect width="1" height="360" fill="#000000"/>
<rect x="479" width="1" height="360" fill="#000000"/>
<rect width="480" height="1" fill="#000000"/>
<rect y="359" width="480" height="1" fill="#000000"/>
<g transform="translate(0.000000,360.000000) scale(0.100000,-0.100000)"
fill="#000000" stroke="none">
<path d="M4760 3593 c0 -5 9 -19 20 -33 l20 -25 0 33 c0 25 -4 32 -20 32 -11
0 -20 -3 -20 -7z"/>
<path d="M4786 3458 c-3 -13 -1 -27 4 -32 7 -7 10 1 10 22 0 37 -5 41 -14 10z"/>
<path d="M1616 3101 c-10 -11 -16 -30 -14 -43 1 -14 -5 -36 -14 -50 -13 -20
-14 -29 -5 -40 20 -24 74 -58 94 -58 25 -1 68 -26 56 -33 -26 -16 -140 -32
-609 -86 -92 -11 -161 -35 -168 -59 -2 -10 -7 -39 -11 -65 -6 -44 -4 -49 14
-54 21 -5 21 -6 -3 -28 -20 -18 -23 -30 -21 -76 l3 -54 64 -16 63 -16 0 -54
c0 -52 1 -54 37 -71 42 -20 174 -42 190 -32 8 5 9 -10 5 -50 l-6 -56 42 -21
c26 -14 76 -25 144 -32 112 -12 117 -15 88 -71 -8 -15 -15 -36 -15 -45 0 -9
-6 -23 -12 -29 -15 -15 4 -31 37 -32 11 0 38 -12 60 -25 22 -14 50 -25 61 -25
12 0 29 -11 38 -24 10 -16 36 -31 71 -42 50 -16 73 -17 228 -7 192 11 204 15
380 124 43 27 86 49 95 49 27 0 269 -150 462 -286 36 -25 81 -56 100 -70 19
-13 49 -34 67 -46 220 -157 294 -208 298 -208 3 0 11 -5 18 -10 28 -25 125
-84 167 -102 25 -11 63 -28 85 -38 72 -32 157 -61 229 -76 89 -19 166 -14 421
31 105 18 192 32 194 30 4 -4 -17 -967 -24 -1107 l-5 -98 140 0 140 0 0 1150
c0 633 -3 1150 -7 1150 -13 0 -73 -39 -73 -48 0 -4 -14 -16 -31 -26 -39 -23
-69 -72 -69 -113 0 -32 -2 -33 -39 -33 -22 0 -52 5 -68 11 -15 6 -42 13 -59
15 -29 3 -32 -1 -43 -37 -8 -28 -19 -41 -36 -45 -20 -5 -25 -12 -25 -40 0 -42
-14 -49 -171 -93 l-116 -33 -89 72 c-148 120 -568 391 -1195 770 -114 69 -139
80 -265 114 -76 20 -172 52 -214 71 -41 18 -104 41 -140 50 -84 20 -102 28
-240 92 -105 50 -231 93 -271 93 -9 0 -24 -9 -33 -19z"/>
<path d="M1774 1409 c-230 -7 -416 -22 -498 -41 l-48 -11 6 -47 c10 -73 44
-170 78 -220 17 -25 55 -63 86 -85 87 -64 101 -88 115 -200 10 -93 12 -97 41
-113 61 -32 348 -18 433 21 29 13 38 47 25 86 -8 23 -6 44 11 98 18 60 28 75
85 128 78 73 108 118 127 192 17 65 20 133 5 133 -5 0 -21 12 -35 28 -23 25
-33 27 -119 32 -51 3 -192 2 -312 -1z"/>
</g>
</svg>
