<?xml version="1.0" standalone="no"?>
<!DOCTYPE svg PUBLIC "-//W3C//DTD SVG 20010904//EN"
 "http://www.w3.org/TR/2001/REC-SVG-20010904/DTD/svg10.dtd">
<svg version="1.0" xmlns="http://www.w3.org/2000/svg"
 width="480.000000pt" height="360.000000pt" viewBox="0 0 480.000000 360.000000"
 preserveAspectRatio="xMidYMid meet">
<metadata>
Created by potrace 1.16, written by Peter Selinger 2001-2019
</metadata>
<rect width="1" height="360" fill="#000000"/>
<rect x="479" width="1" height="360" fill="#000000"/>
<rect width="480" height="1" fill="#000000"/>
<rect y="359" width="480" height="1" fill="#000000"/>
<g transform="translate(0.000000,360.000000) scale(0.100000,-0.100000)"
fill="#000000" stroke="none">
<path d="M0 1800 l0 -1800 1061 0 1061 0 -7 173 c-8 216 -18 291 -60 433 -75
256 -71 390 19 533 15 23 23 47 19 60 -3 13 8 45 31 86 35 64 36 66 15 73 -20
8 -17 11 28 49 27 23 58 57 68 77 18 33 18 36 2 54 -18 19 -23 62 -8 62 5 0
30 23 57 51 27 28 65 59 85 69 40 21 35 5 55 185 l6 55 -33 -2 c-30 -3 -35 1
-55 42 -12 25 -29 52 -38 59 -9 7 -16 19 -16 26 0 7 -6 18 -14 24 -8 7 -18 26
-21 42 -4 16 -20 39 -36 51 -37 27 -36 35 3 68 l32 27 -26 31 c-23 28 -28 30
-39 15 -12 -14 -15 -12 -26 13 -11 27 -12 28 -13 5 0 -39 -26 -7 -41 50 -11
43 -15 48 -25 34 -11 -14 -14 -10 -20 32 -5 26 -7 64 -6 83 l3 35 -27 -40 -26
-40 7 40 c19 113 128 319 206 390 96 87 316 155 499 155 188 0 274 -37 406
-172 105 -108 117 -124 145 -204 74 -209 93 -400 79 -788 -6 -159 -13 -292
-15 -296 -2 -3 9 -152 26 -330 19 -214 30 -410 33 -579 3 -141 10 -363 17
-493 l13 -238 688 0 688 0 0 1800 0 1800 -2400 0 -2400 0 0 -1800z"/>
</g>
</svg>
