<?xml version="1.0" standalone="no"?>
<!DOCTYPE svg PUBLIC "-//W3C//DTD SVG 20010904//EN"
 "http://www.w3.org/TR/2001/REC-SVG-20010904/DTD/svg10.dtd">
<svg version="1.0" xmlns="http://www.w3.org/2000/svg"
 width="480.000000pt" height="360.000000pt" viewBox="0 0 480.000000 360.000000"
 preserveAspectRatio="xMidYMid meet">
<metadata>
Created by potrace 1.16, written by Peter Selinger 2001-2019
</metadata>
<rect width="1" height="360" fill="#000000"/>
<rect x="479" width="1" height="360" fill="#000000"/>
<rect width="480" height="1" fill="#000000"/>
<rect y="359" width="480" height="1" fill="#000000"/>
<g transform="translate(0.000000,360.000000) scale(0.100000,-0.100000)"
fill="#000000" stroke="none">
<path d="M0 1800 l0 -1800 880 0 880 0 0 55 0 54 -29 -5 c-39 -8 -70 14 -106
76 -24 40 -37 52 -67 61 l-38 10 0 61 c0 45 -5 67 -18 82 -10 12 -24 44 -31
72 -17 70 -6 93 156 353 151 240 183 299 167 309 -6 4 -18 22 -26 39 -16 31
-15 34 12 71 27 38 100 186 100 203 0 5 -9 8 -21 6 -35 -4 -60 42 -72 132 -6
44 -14 81 -19 81 -4 0 -8 -5 -8 -12 0 -6 -11 -1 -24 11 l-24 23 -4 -28 c-3
-28 -5 -26 -32 25 -24 47 -27 63 -24 124 2 48 -1 72 -9 74 -7 3 -15 -11 -19
-33 -8 -41 -17 -32 -28 28 -8 44 4 93 41 175 15 32 28 68 29 79 4 33 49 100
123 184 101 114 122 145 194 284 37 70 67 129 67 130 0 1 -16 10 -35 20 -49
27 -39 42 23 38 50 -4 54 -2 112 49 l60 52 48 -11 c38 -8 48 -8 55 4 12 21 27
17 27 -6 0 -33 26 -34 66 -3 33 25 36 25 23 5 -8 -12 -17 -22 -21 -22 -5 0 -8
-7 -8 -15 0 -8 18 -24 39 -35 39 -20 44 -26 56 -87 3 -17 13 -37 21 -44 9 -8
13 -22 9 -38 -5 -22 0 -29 32 -46 56 -31 56 -49 -1 -43 -37 4 -46 3 -46 -10 0
-8 -13 -28 -30 -43 -30 -29 -60 -38 -60 -18 0 5 -5 7 -11 3 -7 -4 -9 -21 -5
-45 5 -34 4 -39 -13 -39 -22 0 -31 -19 -31 -65 0 -26 8 -39 44 -69 24 -20 48
-36 53 -36 19 0 73 -67 79 -100 4 -19 13 -46 21 -60 7 -14 13 -31 13 -38 0 -7
11 -35 25 -62 35 -69 32 -102 -16 -182 -22 -38 -43 -81 -45 -96 -3 -14 -17
-48 -31 -74 -30 -54 -28 -109 5 -176 37 -73 145 -429 132 -434 -4 -2 -11 -14
-15 -27 -7 -21 -5 -23 18 -17 22 5 26 2 37 -40 11 -38 11 -47 -1 -54 -11 -7
-3 -42 44 -182 32 -95 67 -195 78 -221 l19 -48 -29 -10 -30 -11 19 -48 19 -49
-25 11 c-22 10 -28 8 -50 -15 -30 -32 -37 -33 -115 -7 -93 32 -99 25 -99 -110
0 -62 4 -111 10 -115 6 -3 10 -17 10 -31 l0 -24 1135 0 1135 0 0 1800 0 1800
-2400 0 -2400 0 0 -1800z"/>
<path d="M2403 1846 c-2 -85 1 -126 7 -120 6 6 26 46 44 91 l34 80 -41 39 -42
39 -2 -129z"/>
<path d="M1986 1803 c-20 -60 -20 -89 1 -97 25 -10 33 5 40 77 5 57 3 67 -10
67 -9 0 -21 -18 -31 -47z"/>
<path d="M2155 184 c-65 -38 -91 -48 -142 -52 l-61 -4 -12 -47 c-7 -25 -14
-54 -17 -63 -4 -17 11 -18 206 -18 197 0 211 1 211 18 0 10 5 23 11 29 7 7 7
33 0 87 -6 43 -11 82 -11 87 0 5 -24 9 -53 9 -44 0 -65 -7 -132 -46z"/>
</g>
</svg>
