<?xml version="1.0" standalone="no"?>
<!DOCTYPE svg PUBLIC "-//W3C//DTD SVG 20010904//EN"
 "http://www.w3.org/TR/2001/REC-SVG-20010904/DTD/svg10.dtd">
<svg version="1.0" xmlns="http://www.w3.org/2000/svg"
 width="480.000000pt" height="360.000000pt" viewBox="0 0 480.000000 360.000000"
 preserveAspectRatio="xMidYMid meet">
<metadata>
Created by potrace 1.16, written by Peter Selinger 2001-2019
</metadata>
<rect width="1" height="360" fill="#000000"/>
<rect x="479" width="1" height="360" fill="#000000"/>
<rect width="480" height="1" fill="#000000"/>
<rect y="359" width="480" height="1" fill="#000000"/>
<g transform="translate(0.000000,360.000000) scale(0.100000,-0.100000)"
fill="#000000" stroke="none">
<path d="M1400 3377 c-54 -26 -122 -94 -140 -138 -11 -27 -11 -40 2 -88 l15
-56 -94 -83 c-52 -46 -107 -105 -123 -130 -45 -71 -88 -216 -82 -279 2 -29 8
-53 12 -53 4 0 13 -12 19 -27 6 -16 22 -46 36 -68 14 -22 28 -47 32 -55 3 -8
18 -26 31 -40 18 -18 26 -21 30 -12 3 10 11 7 31 -11 14 -13 38 -27 54 -31 23
-5 27 -3 28 16 1 20 3 19 15 -9 15 -36 9 -63 -25 -102 -25 -28 -21 -35 29 -61
21 -11 41 -28 45 -39 3 -10 41 -55 85 -99 l78 -81 43 21 c39 18 44 19 54 4 7
-9 17 -16 24 -16 6 0 11 -10 11 -23 0 -16 -14 -35 -42 -58 -24 -18 -63 -52
-88 -74 -25 -23 -67 -49 -93 -59 -40 -15 -52 -26 -71 -64 -14 -26 -43 -65 -66
-87 -63 -61 -84 -107 -77 -177 5 -54 2 -64 -31 -123 -21 -35 -40 -65 -45 -65
-4 0 -12 12 -19 28 -6 15 -34 74 -61 132 -30 62 -66 161 -88 240 -20 74 -40
143 -44 152 -9 23 1 24 215 38 96 6 186 14 199 17 61 15 -26 26 -228 31 -214
4 -216 4 -267 32 -28 16 -75 35 -104 44 -52 16 -55 15 -107 -9 -30 -13 -66
-34 -80 -45 -14 -11 -41 -20 -59 -20 -29 0 -36 5 -61 53 -35 65 -41 66 -215
37 -100 -17 -136 -20 -154 -11 l-24 11 0 -160 0 -159 136 -256 c109 -204 143
-261 168 -275 36 -22 196 -138 269 -195 29 -23 54 -53 60 -70 25 -84 29 -89
297 -365 75 -78 81 -87 76 -118 -3 -20 -23 -53 -50 -83 -50 -55 -56 -84 -30
-124 13 -19 15 -37 9 -80 l-6 -55 730 0 c610 0 731 2 731 14 0 20 -60 91 -111
131 -33 26 -64 39 -108 47 l-61 12 0 75 c0 92 30 280 66 416 39 149 40 162 13
191 -15 16 -33 24 -55 24 -28 0 -34 -5 -42 -33 -6 -17 -13 -66 -16 -107 -9
-130 -68 -410 -86 -410 -4 0 -24 48 -45 108 l-37 107 12 85 c6 47 21 128 34
180 l22 95 82 -3 c74 -2 83 -1 80 15 -2 14 3 17 35 14 35 -2 49 10 27 24 -26
16 -3 21 75 17 90 -5 104 3 63 33 -15 11 -19 19 -11 22 7 2 10 10 7 18 -6 15
24 35 51 35 11 0 15 -5 12 -14 -4 -10 -1 -13 9 -9 10 3 14 -2 14 -18 1 -22 2
-23 14 -6 19 24 26 21 26 -10 1 -16 11 -40 23 -56 l23 -27 13 35 c12 34 30 49
27 22 0 -6 4 -13 9 -14 6 -1 13 -17 16 -35 l6 -33 13 30 c13 29 14 29 18 7 2
-13 -1 -36 -7 -50 -22 -58 -33 -152 -20 -182 8 -16 18 -26 26 -23 15 6 16 -13
3 -77 -5 -27 -5 -49 1 -54 5 -6 9 -26 9 -45 1 -38 4 -36 37 16 9 14 10 -4 6
-82 l-5 -100 27 -15 c24 -13 26 -18 21 -55 -4 -27 -1 -46 9 -59 15 -19 15 -19
42 5 15 13 35 33 45 44 18 19 19 18 12 -67 -6 -79 -5 -88 11 -88 13 0 16 -6
11 -25 -9 -37 6 -30 34 15 l25 41 8 -33 c10 -42 10 -44 2 -100 l-8 -48 952 0
951 0 0 126 0 126 -109 166 c-71 110 -110 180 -114 204 -7 46 0 48 34 5 14
-17 45 -43 69 -56 l43 -24 -6 75 c-4 42 -11 87 -17 102 -7 20 4 12 44 -31 l54
-58 0 104 0 103 -62 82 c-34 44 -98 137 -141 206 -82 129 -173 253 -330 450
-141 176 -227 264 -282 288 -77 33 -213 52 -373 52 -261 0 -499 33 -632 86
-35 14 -99 44 -142 67 -71 37 -83 48 -119 104 -36 59 -41 62 -57 48 -23 -21
-31 -19 -77 14 -52 38 -93 37 -93 -1 0 -15 -5 -39 -10 -55 -12 -31 -132 -212
-141 -213 -3 0 -6 32 -6 71 l0 70 40 -7 40 -6 -22 38 c-23 39 -26 49 -36 134
l-6 45 20 -22 c41 -48 34 -15 -20 91 -17 32 -41 91 -54 130 -46 138 -102 291
-119 325 -19 35 -118 168 -175 233 -50 57 -109 94 -192 121 l-73 24 -14 54
c-7 30 -19 59 -25 66 -13 13 -198 63 -232 63 -11 0 -40 -10 -65 -23z m870
-1360 c0 -7 9 -20 20 -30 37 -32 29 -48 -110 -211 -35 -42 -69 -76 -75 -76 -5
0 -18 7 -28 14 -16 12 -17 21 -8 72 5 33 14 72 20 88 10 25 15 28 40 23 21 -4
31 -2 35 9 5 12 10 13 28 3 13 -7 26 -16 29 -21 3 -6 9 23 13 63 4 41 10 77
13 81 6 11 23 0 23 -15z m-1670 -287 c0 -5 -4 -10 -10 -10 -5 0 -10 5 -10 10
0 6 5 10 10 10 6 0 10 -4 10 -10z m-9 -90 c22 0 29 -5 29 -19 0 -10 20 -46 44
-78 59 -81 62 -88 70 -164 3 -38 30 -137 60 -228 29 -88 49 -161 44 -161 -5 0
-29 12 -54 26 -33 20 -55 44 -86 98 -23 39 -48 78 -55 87 -12 14 -8 18 26 34
22 9 41 25 44 35 2 9 -37 94 -89 191 -52 96 -94 178 -94 183 0 4 7 5 16 2 9
-3 29 -6 45 -6z"/>
</g>
</svg>
