<?xml version="1.0" standalone="no"?>
<!DOCTYPE svg PUBLIC "-//W3C//DTD SVG 20010904//EN"
 "http://www.w3.org/TR/2001/REC-SVG-20010904/DTD/svg10.dtd">
<svg version="1.0" xmlns="http://www.w3.org/2000/svg"
 width="480.000000pt" height="360.000000pt" viewBox="0 0 480.000000 360.000000"
 preserveAspectRatio="xMidYMid meet">
<metadata>
Created by potrace 1.16, written by Peter Selinger 2001-2019
</metadata>
<rect width="1" height="360" fill="#000000"/>
<rect x="479" width="1" height="360" fill="#000000"/>
<rect width="480" height="1" fill="#000000"/>
<rect y="359" width="480" height="1" fill="#000000"/>
<g transform="translate(0.000000,360.000000) scale(0.100000,-0.100000)"
fill="#000000" stroke="none">
<path d="M3179 3513 c-16 -24 -31 -37 -43 -35 -12 2 -21 -7 -29 -27 -11 -30
-36 -41 -101 -41 -73 -1 -70 -28 10 -75 48 -28 51 -38 29 -92 -19 -46 -19 -46
10 -39 22 6 25 3 26 -21 2 -37 -1 -57 -10 -63 -3 -3 -12 -16 -19 -30 -34 -65
-45 -82 -73 -102 -16 -12 -29 -27 -29 -32 0 -6 -22 -35 -48 -65 -26 -30 -46
-57 -46 -60 1 -3 -19 -18 -45 -32 -35 -19 -52 -23 -70 -17 -15 5 -28 5 -35 -2
-5 -5 -23 -10 -38 -10 -31 0 -33 -4 -17 -49 14 -41 0 -59 -52 -67 -44 -7 -43
-6 -27 -37 6 -12 14 -29 18 -37 4 -8 43 -44 86 -79 165 -134 178 -147 169
-167 -5 -10 -9 -23 -10 -29 -1 -5 -7 -43 -14 -84 -17 -94 -11 -302 9 -326 7
-9 17 -42 21 -72 8 -56 25 -79 90 -118 40 -24 168 -115 183 -131 24 -24 11
-32 -80 -49 -43 -8 -100 -24 -126 -35 -26 -11 -57 -20 -69 -20 -65 0 -153 -24
-175 -47 -16 -17 -39 -27 -81 -33 -98 -14 -140 -41 -160 -104 -6 -19 -19 -32
-43 -40 -19 -7 -48 -20 -65 -29 -16 -9 -52 -27 -80 -40 -27 -13 -56 -31 -64
-40 -23 -29 -41 -19 -65 36 -26 57 -68 220 -87 331 -11 68 -22 86 -67 116 -18
11 -24 27 -27 64 -6 72 -17 79 -107 69 -72 -9 -77 -8 -119 19 -24 15 -60 33
-79 39 -19 7 -63 30 -99 51 -87 53 -149 77 -189 70 -61 -9 -52 -50 22 -97 25
-16 47 -34 50 -41 3 -7 -15 -22 -42 -36 -46 -24 -49 -24 -136 -11 -73 11 -106
22 -175 59 -137 74 -179 77 -127 9 14 -18 26 -38 26 -43 0 -16 171 -163 218
-186 26 -13 68 -35 93 -50 64 -37 134 -56 204 -56 l60 0 0 -43 c0 -33 8 -54
38 -95 20 -29 37 -54 37 -57 0 -3 11 -22 24 -43 23 -37 76 -160 76 -177 0 -5
8 -27 18 -49 25 -56 42 -103 53 -151 17 -68 47 -105 108 -134 79 -36 190 -41
297 -11 127 35 409 151 431 178 9 11 16 12 25 5 23 -18 108 -25 159 -13 46 11
51 11 82 -13 33 -25 33 -25 45 -158 7 -74 15 -145 16 -159 7 -56 39 -172 78
-280 30 -83 41 -132 42 -175 l1 -60 -75 -7 c-220 -20 -273 -20 -375 0 -87 18
-104 18 -133 6 -35 -14 -79 -9 -185 20 -28 8 -126 35 -217 61 -91 25 -239 66
-330 92 -91 25 -221 61 -290 80 -325 90 -350 101 -350 160 0 87 -104 131 -278
119 -106 -7 -172 -14 -537 -56 -50 -5 -136 -15 -192 -21 l-103 -12 0 -243 0
-244 2244 0 2244 0 17 43 c36 85 29 275 -15 422 -45 151 -85 273 -94 287 -7
13 -3 30 18 72 40 80 39 136 -4 221 -31 62 -33 69 -20 98 24 59 24 123 0 164
-12 21 -23 56 -25 78 -2 30 -8 41 -21 43 -90 13 -152 32 -227 69 -54 27 -120
50 -168 60 -60 12 -79 20 -75 30 10 26 141 223 148 223 4 0 5 -21 1 -47 -4
-34 -3 -44 5 -39 7 4 12 13 12 19 0 7 9 25 20 42 l19 29 9 -24 c8 -22 11 -17
17 35 4 33 13 85 21 116 18 73 18 157 -1 237 -18 76 -93 261 -146 360 -41 77
-45 100 -30 148 5 16 20 63 32 104 12 41 29 83 37 92 22 26 18 68 -9 89 -20
15 -26 15 -43 4 -25 -18 -48 -6 -76 41 -16 25 -28 34 -41 31 -10 -3 -35 1 -56
9 -21 7 -73 13 -117 14 -76 0 -80 1 -179 58 -56 31 -115 64 -131 72 -30 16
-54 45 -45 55 11 10 164 -48 219 -83 30 -20 63 -35 73 -33 10 1 30 -5 44 -14
32 -21 40 -13 53 54 14 75 13 136 -4 150 -27 22 -127 50 -207 57 -63 5 -83 10
-86 23 -3 14 -16 16 -74 13 -72 -4 -98 5 -100 37 0 9 -8 33 -17 54 l-17 39
-26 -39z m691 -1878 c0 -18 -4 -23 -15 -19 -17 7 -17 7 -9 28 9 24 24 19 24
-9z"/>
</g>
</svg>
