<?xml version="1.0" standalone="no"?>
<!DOCTYPE svg PUBLIC "-//W3C//DTD SVG 20010904//EN"
 "http://www.w3.org/TR/2001/REC-SVG-20010904/DTD/svg10.dtd">
<svg version="1.0" xmlns="http://www.w3.org/2000/svg"
 width="480.000000pt" height="360.000000pt" viewBox="0 0 480.000000 360.000000"
 preserveAspectRatio="xMidYMid meet">
<metadata>
Created by potrace 1.16, written by Peter Selinger 2001-2019
</metadata>
<rect width="1" height="360" fill="#000000"/>
<rect x="479" width="1" height="360" fill="#000000"/>
<rect width="480" height="1" fill="#000000"/>
<rect y="359" width="480" height="1" fill="#000000"/>
<g transform="translate(0.000000,360.000000) scale(0.100000,-0.100000)"
fill="#000000" stroke="none">
<path d="M2089 3065 c-91 -33 -159 -96 -202 -186 -44 -94 -60 -165 -55 -246
l5 -74 -33 -27 c-19 -15 -48 -29 -66 -32 -23 -4 -37 -13 -46 -33 -7 -15 -26
-34 -43 -42 -16 -9 -29 -19 -29 -23 0 -9 55 -76 98 -121 21 -21 39 -32 51 -28
13 3 24 -7 41 -39 22 -39 23 -45 9 -71 -7 -15 -30 -44 -51 -64 -39 -40 -39
-49 -1 -49 21 0 23 -3 17 -22 -3 -13 -13 -36 -21 -51 -20 -40 -12 -42 26 -6
18 16 35 28 37 26 2 -2 10 -20 17 -41 16 -47 28 -47 42 1 l11 38 37 -80 c25
-51 41 -75 46 -67 5 9 11 4 20 -15 13 -27 14 -27 21 -7 11 27 30 40 30 21 0
-22 28 -29 38 -10 8 12 11 10 20 -16 16 -44 23 -38 16 12 -4 24 -3 38 2 34 12
-12 34 -89 28 -99 -12 -19 -86 -41 -199 -59 -68 -11 -140 -29 -165 -42 -40
-20 -50 -32 -93 -117 -26 -52 -56 -124 -67 -160 l-21 -65 -64 -23 c-64 -24
-85 -23 -85 3 0 20 -24 25 -128 25 -246 1 -305 27 -569 254 -44 38 -129 97
-189 131 l-109 61 -3 45 c-6 84 -3 87 -206 -135 -55 -59 -135 -137 -178 -174
l-78 -65 0 -229 0 -229 38 3 c34 3 41 9 95 88 32 47 68 96 82 109 23 23 25 24
49 7 14 -9 40 -43 56 -76 17 -33 35 -60 40 -60 5 0 12 17 15 38 10 63 22 82
51 82 60 0 185 -106 199 -169 3 -17 10 -31 15 -31 4 0 39 14 76 32 135 63 214
49 329 -57 33 -30 66 -55 74 -55 8 0 78 43 156 95 144 96 289 172 348 182 23
3 40 -1 60 -17 l28 -23 -26 -27 c-32 -33 -30 -62 5 -70 17 -4 24 -12 22 -24
-2 -10 5 -24 15 -31 15 -11 17 -25 13 -107 -13 -245 -6 -273 78 -309 l42 -18
0 -75 c0 -65 -3 -77 -20 -86 -10 -6 -23 -9 -28 -8 -14 5 -82 -36 -79 -47 2 -5
16 -16 31 -24 32 -15 70 -90 59 -117 -4 -10 -26 -50 -50 -88 -24 -39 -43 -74
-43 -78 0 -4 243 -8 539 -8 l540 0 -14 33 c-18 43 -19 140 -3 195 12 42 12 42
-28 85 -34 35 -46 61 -73 149 -33 106 -33 110 -26 230 l8 123 18 -70 c10 -38
24 -92 30 -118 6 -26 22 -61 36 -77 21 -25 32 -30 69 -30 48 0 94 19 132 53
29 26 30 98 3 205 -28 112 -35 180 -21 197 6 8 9 19 6 24 -4 5 1 14 11 20 19
10 33 2 142 -86 36 -29 75 -53 85 -53 11 0 33 11 50 24 120 91 194 87 333 -18
59 -45 83 -51 83 -22 0 53 128 110 235 104 l60 -3 5 -44 5 -45 29 42 c77 112
138 91 242 -84 29 -50 61 -97 70 -104 13 -11 31 -12 98 -2 125 18 163 15 276
-23 57 -19 110 -35 117 -35 9 0 13 19 13 68 l0 67 -111 90 c-228 185 -454 427
-596 640 -74 110 -110 146 -123 125 -5 -8 -10 -25 -10 -37 0 -30 -26 -44 -147
-83 -69 -21 -145 -56 -240 -111 -183 -104 -241 -124 -363 -123 -132 0 -208 18
-221 51 -16 42 -88 158 -125 202 -44 51 -87 74 -190 99 -99 25 -189 59 -203
76 -13 15 -2 53 25 89 15 21 16 21 10 -15 -4 -22 -3 -38 3 -38 5 0 7 -10 4
-22 -4 -23 -4 -22 19 2 13 14 30 37 39 50 21 31 33 21 31 -25 -1 -19 1 -35 3
-35 3 0 20 23 37 52 l32 52 14 -35 c10 -23 16 -29 20 -19 3 8 8 17 12 20 4 3
15 20 24 39 l18 33 39 -38 c42 -41 45 -41 28 3 -6 15 -15 41 -20 57 -8 28 -8
29 30 23 50 -6 72 6 42 24 -24 15 -71 89 -71 112 0 8 8 21 19 31 16 15 19 15
31 1 22 -26 30 -17 24 28 -5 34 -2 45 14 60 19 17 20 17 36 -8 20 -30 41 -32
56 -6 16 30 12 76 -9 102 -18 24 -61 103 -61 114 0 7 77 -42 113 -71 16 -13
32 -24 36 -24 13 0 31 89 31 154 l0 63 92 2 c58 1 95 6 99 13 9 14 -7 49 -27
61 -16 9 -43 67 -74 161 -18 56 -22 82 -17 137 5 65 5 69 -16 74 -23 6 -87
-22 -144 -62 -17 -13 -35 -23 -39 -23 -4 0 -17 -8 -28 -19 -42 -38 -58 -34
-96 26 -71 112 -161 154 -388 183 -179 23 -320 25 -373 5z"/>
</g>
</svg>
