<?xml version="1.0" standalone="no"?>
<!DOCTYPE svg PUBLIC "-//W3C//DTD SVG 20010904//EN"
 "http://www.w3.org/TR/2001/REC-SVG-20010904/DTD/svg10.dtd">
<svg version="1.0" xmlns="http://www.w3.org/2000/svg"
 width="480.000000pt" height="360.000000pt" viewBox="0 0 480.000000 360.000000"
 preserveAspectRatio="xMidYMid meet">
<metadata>
Created by potrace 1.16, written by Peter Selinger 2001-2019
</metadata>
<rect width="1" height="360" fill="#000000"/>
<rect x="479" width="1" height="360" fill="#000000"/>
<rect width="480" height="1" fill="#000000"/>
<rect y="359" width="480" height="1" fill="#000000"/>
<g transform="translate(0.000000,360.000000) scale(0.100000,-0.100000)"
fill="#000000" stroke="none">
<path d="M0 2755 c0 -669 3 -845 13 -845 6 0 66 7 132 14 357 42 576 104 875
247 91 43 177 79 191 79 34 0 374 -336 546 -541 72 -85 156 -178 188 -206 96
-86 211 -132 388 -154 129 -16 135 -13 186 86 24 47 64 118 91 158 51 79 176
202 200 199 19 -3 22 35 3 42 -7 3 -10 -1 -6 -10 3 -7 0 -14 -6 -14 -6 0 -11
8 -11 17 0 13 -3 14 -12 5 -7 -7 -19 -12 -27 -12 -10 0 -3 13 20 37 29 33 30
35 4 12 -43 -37 -61 -42 -60 -15 0 11 4 27 9 34 14 22 -1 26 -36 9 -37 -18
-47 -15 -28 8 10 12 10 15 -3 15 -9 0 -17 10 -19 23 -3 19 7 44 55 141 7 15 5
23 -9 33 -10 7 -23 13 -29 13 -29 0 -31 22 -8 67 12 26 23 52 23 60 0 20 -38
53 -54 47 -8 -3 -24 0 -36 6 -34 18 -36 3 -4 -32 16 -18 21 -26 12 -19 -9 7
-21 10 -26 7 -6 -3 -15 1 -22 9 -7 8 -17 12 -22 9 -5 -3 -23 7 -40 22 l-30 29
6 -25 c7 -25 7 -25 -17 4 -14 15 -30 47 -38 70 -19 61 -20 62 -41 25 -18 -32
-19 -32 -13 -6 7 33 -8 35 -50 7 -38 -25 -66 -25 -99 1 -14 11 -31 17 -37 14
-14 -10 -59 34 -59 58 0 21 43 67 105 112 22 16 60 51 83 76 l41 45 -39 65
c-22 35 -40 74 -40 87 0 23 15 32 131 80 16 6 29 21 33 38 23 91 87 185 181
264 179 153 329 201 547 175 236 -27 338 -73 475 -212 132 -134 165 -247 127
-440 l-17 -82 28 -48 c43 -73 101 -135 153 -164 53 -29 63 -56 37 -96 l-17
-25 -26 25 c-17 16 -45 27 -76 32 l-49 7 22 -30 c27 -39 27 -44 -5 -31 -36 13
-39 7 -11 -27 24 -29 44 -74 32 -74 -3 0 -24 9 -46 21 -53 27 -67 20 -36 -16
20 -25 22 -32 11 -43 -7 -6 -18 -12 -24 -12 -7 0 -9 -8 -5 -21 7 -20 6 -20
-24 -5 -41 21 -64 21 -57 -1 17 -58 28 -115 22 -120 -3 -3 -23 5 -43 19 -32
22 -93 45 -93 36 0 -8 29 -106 36 -123 7 -18 6 -19 -10 -5 -10 8 -25 15 -33
16 -9 2 -38 24 -64 50 -40 40 -49 45 -55 30 -3 -9 -4 -31 -1 -49 5 -28 4 -29
-6 -13 -7 10 -20 28 -30 40 -18 21 -18 21 -14 -18 3 -33 2 -36 -10 -20 -7 10
-13 26 -13 36 0 10 -4 18 -10 18 -16 0 -11 -57 6 -75 9 -9 26 -15 38 -14 35 2
36 0 19 -43 l-16 -41 29 -24 c16 -13 53 -32 82 -43 164 -62 183 -80 268 -257
85 -177 55 -160 257 -142 67 6 151 19 187 28 54 14 78 16 144 7 140 -17 313
15 420 78 l51 31 3 1008 2 1007 -2400 0 -2400 0 0 -845z"/>
<path d="M1160 2090 c-8 -6 -44 -26 -80 -46 -36 -20 -66 -38 -68 -39 -1 -1 4
-15 12 -30 11 -21 12 -34 5 -48 -8 -15 -5 -27 15 -56 15 -21 36 -77 48 -124
l21 -86 -42 -108 c-23 -59 -51 -128 -61 -153 -11 -25 -43 -106 -71 -180 -28
-74 -60 -152 -71 -174 -18 -34 -21 -37 -35 -24 -11 12 -21 94 -43 349 l-29
334 55 92 c30 51 63 94 74 98 19 6 26 25 15 37 -3 3 -39 -9 -80 -27 -41 -17
-118 -44 -172 -59 -54 -15 -109 -30 -122 -34 -39 -11 -47 -53 -18 -95 14 -20
32 -72 41 -119 l17 -83 -131 -305 c-72 -168 -137 -311 -144 -319 -8 -7 -19
-10 -24 -7 -16 10 -21 61 -37 388 l-15 297 40 63 c60 96 70 109 95 118 17 7
21 14 18 34 -6 32 -1 31 -211 9 l-163 -17 4 -66 c2 -36 11 -104 21 -152 16
-86 16 -89 -4 -127 -20 -39 -20 -56 -20 -736 l0 -695 1154 0 1155 0 11 58 c19
98 49 203 85 302 27 74 42 142 65 305 16 116 38 253 49 305 10 52 16 98 14
103 -2 4 -13 7 -24 7 -11 0 -28 4 -38 10 -17 8 -15 13 20 50 59 62 54 67 -55
66 l-95 -1 25 -26 c16 -17 33 -57 49 -117 l25 -92 -106 -307 c-59 -170 -111
-314 -116 -320 -14 -18 -26 -16 -32 5 -6 17 -41 274 -73 533 l-16 135 43 80
c23 43 54 89 67 100 33 28 24 59 -24 79 -39 16 -211 65 -230 65 -8 0 -4 -29
13 -92 27 -98 26 -115 -1 -188 -9 -25 -54 -153 -100 -286 -96 -279 -112 -312
-129 -267 -4 9 -25 163 -47 343 l-41 326 46 92 c34 67 54 96 76 107 25 13 30
22 30 50 0 39 -24 81 -111 196 -64 85 -161 177 -167 159 -2 -6 2 -19 10 -28
16 -19 48 -141 48 -183 0 -29 -213 -623 -231 -645 -6 -8 -15 -14 -20 -14 -12
0 -26 63 -34 150 -3 41 -17 179 -30 307 l-25 232 47 87 c26 47 60 95 75 106
16 10 28 28 28 38 0 10 5 22 11 25 6 4 -22 41 -68 89 -43 45 -92 98 -110 119
-33 39 -39 41 -63 27z"/>
<path d="M3039 2029 c-8 -15 -8 -24 0 -32 13 -13 16 -10 25 26 8 32 -8 36 -25
6z"/>
<path d="M2957 1899 c-21 -28 -36 -54 -33 -56 3 -3 22 3 43 13 39 19 52 49 36
78 -7 12 -17 4 -46 -35z"/>
<path d="M4685 1419 c-138 -23 -193 -40 -210 -65 -15 -24 -15 -26 12 -52 18
-17 39 -59 57 -112 l29 -86 -46 -159 c-143 -493 -141 -486 -163 -443 -6 13
-33 131 -58 263 -26 132 -51 262 -56 288 -6 26 -10 60 -10 74 0 35 66 162 99
191 l26 23 -55 -5 c-30 -3 -119 -8 -197 -12 l-143 -7 0 -25 c0 -14 7 -33 15
-42 8 -9 29 -57 45 -105 l30 -89 -39 -130 c-22 -72 -45 -151 -51 -176 -12 -47
-51 -180 -77 -263 -8 -26 -21 -47 -28 -47 -18 0 -27 35 -60 225 -15 83 -29
152 -32 155 -7 7 5 -198 19 -325 10 -96 6 -309 -8 -437 l-7 -58 512 0 511 0 0
318 1 317 -63 312 -62 313 37 75 c37 75 44 96 30 94 -5 -1 -30 -5 -58 -10z"/>
<path d="M3788 1303 c-36 -25 -37 -27 -23 -54 l15 -28 30 30 c17 17 30 41 30
55 0 29 -5 29 -52 -3z"/>
</g>
</svg>
