<?xml version="1.0" standalone="no"?>
<!DOCTYPE svg PUBLIC "-//W3C//DTD SVG 20010904//EN"
 "http://www.w3.org/TR/2001/REC-SVG-20010904/DTD/svg10.dtd">
<svg version="1.0" xmlns="http://www.w3.org/2000/svg"
 width="480.000000pt" height="360.000000pt" viewBox="0 0 480.000000 360.000000"
 preserveAspectRatio="xMidYMid meet">
<metadata>
Created by potrace 1.16, written by Peter Selinger 2001-2019
</metadata>
<rect width="1" height="360" fill="#000000"/>
<rect x="479" width="1" height="360" fill="#000000"/>
<rect width="480" height="1" fill="#000000"/>
<rect y="359" width="480" height="1" fill="#000000"/>
<g transform="translate(0.000000,360.000000) scale(0.100000,-0.100000)"
fill="#000000" stroke="none">
<path d="M2219 3579 c-14 -27 -9 -31 95 -59 134 -37 438 -141 486 -166 l45
-24 -50 6 c-61 8 -285 53 -297 60 -13 8 -9 -11 12 -57 11 -24 20 -52 20 -63 0
-15 -4 -13 -22 10 -38 52 -91 103 -100 98 -4 -3 -5 1 -2 9 3 10 -15 19 -64 34
-67 19 -69 19 -64 1 6 -24 40 -48 69 -48 12 0 25 -5 29 -11 3 -6 17 -9 30 -6
22 4 40 -14 27 -27 -4 -3 -42 -6 -86 -6 -78 0 -79 0 -66 -21 8 -11 97 -63 199
-116 102 -53 214 -113 250 -134 91 -53 290 -193 280 -197 -5 -2 -84 33 -176
77 -92 45 -168 81 -170 81 -2 0 -4 -24 -6 -52 l-3 -53 -36 76 -36 75 -74 24
c-41 12 -80 25 -87 28 -21 8 -3 -51 21 -68 37 -26 221 -175 261 -210 121 -107
118 -107 -46 6 -112 76 -145 96 -112 67 18 -16 50 -65 131 -201 39 -63 25 -56
-36 20 -32 40 -75 91 -95 113 -32 35 -36 37 -30 15 10 -36 17 -306 9 -348 -6
-35 -8 -32 -39 64 -47 144 -55 155 -54 70 1 -48 13 -112 40 -205 21 -74 38
-139 38 -144 0 -5 9 -16 20 -25 19 -16 21 -35 29 -236 5 -120 13 -222 18 -226
4 -4 30 -13 57 -19 27 -7 94 -30 150 -52 56 -22 128 -47 161 -54 116 -28 281
-15 509 40 53 13 61 13 90 -3 17 -9 60 -19 96 -22 l64 -5 9 -42 c6 -34 16 -48
48 -70 88 -61 92 -65 76 -75 -8 -4 -62 -13 -119 -18 -116 -12 -230 -29 -237
-35 -5 -6 4 -8 104 -35 44 -12 131 -38 193 -57 103 -32 121 -35 185 -29 40 4
99 13 132 21 33 7 92 18 130 25 39 6 90 15 115 20 25 6 81 14 125 20 44 5 123
16 175 25 52 8 110 15 128 15 l32 0 0 1070 0 1070 -1285 0 -1284 0 -12 -21z"/>
<path d="M2236 3425 c9 -14 20 -25 25 -25 5 0 2 11 -7 25 -9 14 -20 25 -25 25
-5 0 -2 -11 7 -25z"/>
<path d="M0 3219 c0 -84 2 -86 42 -51 10 8 18 26 18 40 0 26 -38 92 -52 92 -5
0 -8 -36 -8 -81z"/>
<path d="M2125 2840 c-4 -6 6 -22 22 -36 35 -30 42 -15 9 20 -15 17 -27 23
-31 16z"/>
<path d="M1750 2830 c20 -13 33 -13 25 0 -3 6 -14 10 -23 10 -15 0 -15 -2 -2
-10z"/>
<path d="M1781 2807 c2 -2 22 -14 44 -26 l40 -23 -24 26 c-14 14 -33 26 -44
26 -11 0 -18 -1 -16 -3z"/>
<path d="M1671 2751 c8 -11 56 -73 108 -140 l95 -120 16 27 c9 15 40 45 69 67
28 21 51 42 51 46 0 10 -79 38 -145 51 -33 7 -76 22 -96 34 -20 13 -53 30 -74
38 -36 16 -37 15 -24 -3z"/>
<path d="M2010 2718 c-22 -37 -15 -51 31 -62 23 -5 28 -2 33 19 7 29 -12 75
-31 75 -7 0 -22 -15 -33 -32z"/>
<path d="M2258 2734 c-5 -4 -8 -18 -8 -31 0 -20 5 -23 38 -25 20 -1 55 -2 76
-4 21 -1 35 1 29 4 -5 4 -12 15 -16 24 -5 13 -17 16 -56 14 -36 -1 -51 2 -53
12 -2 8 -6 10 -10 6z"/>
<path d="M1942 2713 c6 -7 14 -13 19 -13 5 0 9 6 9 13 0 7 -9 13 -19 13 -15 0
-17 -3 -9 -13z"/>
<path d="M2097 2708 c-8 -29 3 -50 22 -43 9 4 33 9 54 12 45 7 44 9 -21 32
-50 18 -50 18 -55 -1z"/>
<path d="M1530 2424 c0 -15 76 -193 113 -264 9 -17 22 -26 45 -28 18 -2 32 0
33 5 2 21 10 53 26 110 l18 63 -23 16 c-14 10 -21 22 -18 31 4 9 -4 25 -19 39
-52 48 -56 19 -9 -63 28 -48 10 -50 -24 -4 -12 16 -44 44 -72 62 -27 18 -50
36 -50 41 0 4 -4 8 -10 8 -5 0 -10 -7 -10 -16z"/>
<path d="M539 1629 c-30 -39 -65 -86 -79 -104 -125 -160 -220 -297 -255 -364
-17 -34 -37 -181 -26 -192 3 -4 27 -9 52 -12 53 -7 72 4 209 121 96 82 300
292 300 309 0 7 14 28 31 48 31 35 33 65 5 65 -14 0 -136 142 -136 158 0 9
-33 42 -41 42 -3 0 -30 -32 -60 -71z"/>
<path d="M2495 1473 c-3 -14 -4 -27 -3 -29 12 -11 243 -103 352 -139 107 -36
163 -48 301 -64 94 -12 194 -21 224 -21 l54 0 -24 18 c-52 40 -301 154 -389
179 -114 31 -219 51 -330 62 -63 7 -129 13 -147 16 -27 3 -32 0 -38 -22z"/>
<path d="M3172 35 c-7 -14 -12 -28 -12 -30 0 -3 39 -5 88 -4 l87 1 -60 28
c-75 36 -89 36 -103 5z"/>
</g>
</svg>
