<?xml version="1.0" standalone="no"?>
<!DOCTYPE svg PUBLIC "-//W3C//DTD SVG 20010904//EN"
 "http://www.w3.org/TR/2001/REC-SVG-20010904/DTD/svg10.dtd">
<svg version="1.0" xmlns="http://www.w3.org/2000/svg"
 width="480.000000pt" height="360.000000pt" viewBox="0 0 480.000000 360.000000"
 preserveAspectRatio="xMidYMid meet">
<metadata>
Created by potrace 1.16, written by Peter Selinger 2001-2019
</metadata>
<rect width="1" height="360" fill="#000000"/>
<rect x="479" width="1" height="360" fill="#000000"/>
<rect width="480" height="1" fill="#000000"/>
<rect y="359" width="480" height="1" fill="#000000"/>
<g transform="translate(0.000000,360.000000) scale(0.100000,-0.100000)"
fill="#000000" stroke="none">
<path d="M3505 3541 c-39 -32 -95 -87 -124 -122 -30 -35 -70 -75 -90 -88 -77
-50 -163 -144 -193 -211 -31 -68 -60 -100 -168 -189 -36 -29 -104 -91 -151
-137 -82 -80 -121 -105 -103 -66 4 9 9 38 12 64 3 43 1 51 -28 79 -27 27 -36
31 -67 26 -44 -8 -50 -13 -37 -35 16 -26 -9 -76 -49 -101 -25 -15 -51 -21 -93
-21 -65 -1 -109 -17 -239 -90 -64 -36 -75 -46 -56 -48 22 -4 22 -5 -13 -37
-32 -29 -51 -65 -26 -50 14 9 12 -8 -5 -41 -21 -41 -19 -123 4 -158 17 -25 20
-26 29 -11 8 15 10 11 16 -20 8 -43 -2 -55 -47 -55 -35 0 -45 -24 -23 -60 17
-29 12 -64 -8 -57 -6 2 -14 21 -18 43 -24 141 -134 254 -283 291 -58 14 -76
15 -129 4 -33 -7 -83 -25 -109 -42 -63 -38 -85 -32 -167 45 -104 99 -161 127
-297 146 -231 31 -446 -75 -533 -266 -44 -93 -60 -171 -60 -284 0 -282 142
-474 385 -519 108 -20 239 -9 308 25 30 16 32 13 15 -19 -6 -12 -10 -38 -10
-59 1 -20 -3 -40 -8 -43 -15 -9 -12 -51 4 -65 15 -12 23 -6 60 45 14 20 15 20
22 1 10 -26 38 -53 60 -58 15 -3 21 -25 36 -143 16 -131 16 -142 1 -175 -13
-26 -18 -65 -19 -147 -1 -106 -3 -114 -31 -157 -33 -50 -58 -151 -48 -195 6
-30 -20 -111 -37 -111 -25 0 -75 -168 -59 -199 11 -19 -6 -91 -20 -91 -14 0
-38 -43 -53 -93 -14 -47 -14 -47 10 -47 17 0 24 6 24 19 0 22 4 26 44 35 27 7
28 6 24 -24 -4 -24 -1 -30 13 -30 23 0 29 21 26 101 -2 61 1 69 30 102 18 20
38 61 48 94 9 32 18 66 21 76 3 10 0 24 -6 32 -17 20 5 83 40 116 42 39 75
174 50 204 -17 20 5 102 36 139 23 26 26 27 58 15 29 -11 45 -10 98 5 56 15
174 73 278 134 l36 21 -4 -97 c-3 -80 1 -118 24 -217 15 -66 28 -129 29 -140
1 -11 5 -35 9 -54 9 -39 -2 -51 -52 -51 -22 0 -31 4 -26 11 4 7 0 10 -10 7
-10 -1 -16 -7 -14 -12 2 -5 -19 -16 -47 -24 l-50 -15 45 -9 c86 -15 83 -26
-14 -58 -30 -9 -35 -15 -26 -25 7 -8 9 -18 6 -23 -3 -5 6 -14 20 -21 25 -11
25 -13 10 -34 -19 -27 -66 -126 -66 -139 0 -5 10 -6 23 -2 l22 6 -22 -24 c-26
-27 -29 -39 -10 -35 7 1 12 -8 11 -25 -1 -18 3 -25 12 -21 17 6 18 -9 2 -25
-9 -9 101 -12 495 -12 279 0 507 3 507 6 0 4 -8 13 -17 20 -10 7 -15 15 -12
18 11 11 38 -5 44 -25 6 -18 17 -19 208 -17 l201 3 73 160 c118 257 130 317
90 433 -36 103 -91 173 -391 493 l-179 191 56 108 c71 137 197 440 238 572 27
86 34 99 44 85 7 -9 15 -14 18 -11 3 4 17 -6 30 -22 28 -32 51 -28 69 13 7 15
20 33 28 40 8 6 12 15 8 18 -4 4 1 15 11 24 27 23 61 118 90 254 15 69 6 232
-16 270 -25 42 -71 67 -136 74 -67 7 -114 -13 -174 -74 -23 -24 -49 -43 -58
-43 -21 0 -1 28 105 155 41 50 99 122 128 161 30 42 62 74 76 78 13 3 43 26
67 52 24 25 70 63 102 85 31 22 57 44 57 48 0 5 -18 16 -40 25 -23 9 -43 22
-46 29 -5 14 77 158 165 292 25 39 48 73 49 78 5 11 -36 8 -43 -3 -3 -5 -13
-10 -21 -10 -8 0 -12 5 -9 10 11 17 2 11 -70 -49z m-1445 -1611 c0 -16 8 -37
19 -47 18 -18 18 -20 -6 -113 -13 -52 -33 -149 -44 -215 -15 -84 -27 -126 -40
-141 -11 -11 -68 -47 -127 -79 -59 -32 -141 -79 -183 -105 l-76 -47 -22 102
c-26 126 -26 129 0 147 l21 14 -26 38 c-29 44 -51 114 -47 153 1 8 24 10 79 6
198 -13 369 112 428 315 7 23 24 2 24 -28z m-690 -1020 c-28 -6 -37 13 -25 58
6 26 6 26 29 -14 l22 -39 -26 -5z m1616 -303 l81 -61 -24 -55 c-14 -31 -45
-110 -70 -176 -24 -66 -50 -136 -57 -155 -10 -24 -21 -36 -37 -38 -13 -2 -29
-8 -35 -13 -7 -6 -16 -3 -25 7 -7 9 -32 29 -56 45 -24 17 -43 38 -43 48 0 10
-9 30 -20 44 -22 28 -39 158 -40 310 0 73 24 270 36 289 3 5 51 -35 107 -88
55 -52 138 -123 183 -157z m-1646 54 c0 -10 -3 -33 -6 -50 -6 -26 -11 -31 -35
-31 -24 0 -29 4 -29 24 0 46 18 76 45 76 18 0 25 -5 25 -19z m-95 -339 c-9
-48 -11 -51 -34 -45 -10 3 -22 0 -25 -6 -13 -21 -28 -11 -22 14 15 61 24 72
56 73 32 1 32 0 25 -36z m1514 -191 c7 -5 11 -14 7 -19 -9 -15 -36 -4 -36 14
0 16 9 18 29 5z"/>
</g>
</svg>
