<?xml version="1.0" standalone="no"?>
<!DOCTYPE svg PUBLIC "-//W3C//DTD SVG 20010904//EN"
 "http://www.w3.org/TR/2001/REC-SVG-20010904/DTD/svg10.dtd">
<svg version="1.0" xmlns="http://www.w3.org/2000/svg"
 width="480.000000pt" height="360.000000pt" viewBox="0 0 480.000000 360.000000"
 preserveAspectRatio="xMidYMid meet">
<metadata>
Created by potrace 1.16, written by Peter Selinger 2001-2019
</metadata>
<rect width="1" height="360" fill="#000000"/>
<rect x="479" width="1" height="360" fill="#000000"/>
<rect width="480" height="1" fill="#000000"/>
<rect y="359" width="480" height="1" fill="#000000"/>
<g transform="translate(0.000000,360.000000) scale(0.100000,-0.100000)"
fill="#000000" stroke="none">
<path d="M0 1800 l0 -1800 334 0 335 0 21 30 c12 17 25 57 31 93 14 98 13 105
-18 109 -38 4 -60 65 -44 119 6 20 11 50 11 67 0 17 5 34 10 37 16 10 12 65
-5 71 -8 4 -15 14 -15 23 0 9 -7 29 -15 45 -19 36 -19 34 7 38 21 3 23 9 23
63 1 65 8 85 30 85 8 0 17 12 21 28 3 15 12 52 20 83 8 31 14 85 15 120 1 125
11 155 69 214 30 30 52 56 49 58 -2 2 -41 20 -86 40 l-83 36 -66 -67 c-72 -71
-71 -72 -39 38 40 140 134 694 120 708 -12 13 -268 90 -281 85 -21 -8 -42 14
-37 40 3 14 -11 48 -36 92 -26 43 -37 73 -31 79 5 5 31 10 58 10 37 1 56 7 80
28 18 15 58 34 89 43 32 9 70 26 84 36 27 19 27 20 22 112 -14 257 111 514
291 598 56 25 90 34 226 57 40 7 49 14 87 67 23 33 64 85 91 115 l49 55 29
-34 c29 -34 121 -168 127 -185 2 -5 32 -11 68 -14 248 -15 510 -232 582 -481
25 -87 26 -212 2 -269 -23 -57 -16 -98 35 -182 22 -38 40 -73 40 -78 0 -6 -14
-22 -31 -36 l-30 -26 25 -133 c35 -181 48 -220 91 -272 20 -25 32 -45 28 -45
-5 0 -14 5 -21 12 -26 26 -23 -5 6 -51 17 -28 26 -51 20 -53 -6 -2 8 -42 30
-91 32 -67 46 -88 66 -93 34 -8 56 -35 63 -78 7 -46 -6 -46 -44 -1 -17 19 -41
44 -55 54 l-25 20 -74 -50 c-41 -27 -83 -49 -94 -49 -11 0 -39 10 -62 22 -37
20 -44 21 -68 8 l-26 -14 88 -46 c164 -85 154 -74 152 -155 -1 -60 3 -80 31
-140 18 -38 42 -109 55 -158 12 -48 24 -89 27 -92 3 -3 22 2 42 10 20 9 41 13
46 10 5 -3 -2 -26 -15 -50 -29 -56 -42 -145 -26 -183 19 -43 85 -111 126 -127
43 -19 42 -34 -5 -50 -26 -9 -37 -20 -43 -42 -10 -32 -1 -62 65 -236 l29 -77
1065 0 1064 0 0 1800 0 1800 -2400 0 -2400 0 0 -1800z m910 1770 c0 -5 -4 -10
-10 -10 -5 0 -10 5 -10 10 0 6 5 10 10 10 6 0 10 -4 10 -10z m3504 -195 c32
-48 12 -93 -26 -59 -33 31 -40 51 -22 68 21 22 29 20 48 -9z m-666 -617 c18
-18 14 -28 -10 -28 -30 0 -52 15 -44 29 9 15 39 14 54 -1z m-1118 -537 c0 -13
-26 -21 -66 -21 -32 0 -42 8 -27 23 10 10 93 8 93 -2z m50 -271 c0 -5 -4 -10
-10 -10 -5 0 -10 5 -10 10 0 6 5 10 10 10 6 0 10 -4 10 -10z m185 -710 c0 -16
-28 -25 -52 -16 -12 5 -13 9 -3 22 16 18 55 15 55 -6z"/>
<path d="M1009 1311 l-24 -20 42 11 c24 6 40 14 37 19 -9 14 -30 10 -55 -10z"/>
</g>
</svg>
