<?xml version="1.0" standalone="no"?>
<!DOCTYPE svg PUBLIC "-//W3C//DTD SVG 20010904//EN"
 "http://www.w3.org/TR/2001/REC-SVG-20010904/DTD/svg10.dtd">
<svg version="1.0" xmlns="http://www.w3.org/2000/svg"
 width="480.000000pt" height="360.000000pt" viewBox="0 0 480.000000 360.000000"
 preserveAspectRatio="xMidYMid meet">
<metadata>
Created by potrace 1.16, written by Peter Selinger 2001-2019
</metadata>
<rect width="1" height="360" fill="#000000"/>
<rect x="479" width="1" height="360" fill="#000000"/>
<rect width="480" height="1" fill="#000000"/>
<rect y="359" width="480" height="1" fill="#000000"/>
<g transform="translate(0.000000,360.000000) scale(0.100000,-0.100000)"
fill="#000000" stroke="none">
<path d="M1825 3580 c8 -25 -15 -45 -106 -91 l-71 -36 -44 16 c-54 19 -64 10
-64 -56 0 -35 -5 -46 -30 -65 -16 -12 -30 -29 -30 -37 0 -30 198 -271 222
-271 6 0 19 7 29 16 10 9 23 13 28 9 14 -8 14 -42 1 -50 -6 -4 -8 -14 -5 -24
6 -20 -13 -42 -78 -91 -25 -19 -47 -39 -47 -44 0 -5 29 -6 66 -3 l66 6 -6 -39
c-3 -22 -9 -58 -12 -80 -8 -50 5 -51 38 -4 14 20 28 32 31 27 2 -4 12 -43 21
-85 18 -80 29 -95 41 -55 8 26 11 18 20 -48 6 -44 8 -48 20 -31 12 16 15 14
26 -23 14 -47 29 -54 30 -13 0 15 4 36 8 47 6 15 11 8 20 -35 23 -99 23 -99
36 -55 11 35 13 36 14 13 1 -29 21 -50 21 -22 0 13 3 14 14 5 11 -9 15 -9 20
1 3 7 3 -12 0 -44 -7 -71 9 -83 32 -23 9 25 18 45 20 45 1 0 15 -5 30 -10 26
-10 26 -10 21 20 -4 17 -2 30 3 30 6 0 10 -23 10 -51 l0 -50 -32 3 c-28 3 -33
0 -30 -17 15 -101 15 -102 -4 -109 -11 -5 -64 -24 -119 -43 -126 -44 -168 -66
-227 -114 -26 -21 -51 -39 -56 -39 -4 0 -37 47 -71 104 -35 59 -71 108 -82
111 -10 4 -59 2 -107 -4 -183 -21 -274 -23 -379 -7 -128 19 -189 44 -368 150
-79 47 -211 119 -294 160 -83 41 -161 82 -173 90 -38 27 -66 18 -174 -51
l-104 -68 0 -286 0 -285 109 -158 c154 -221 161 -228 161 -148 0 101 -32 499
-42 526 -7 16 -44 61 -83 101 -90 91 -95 117 -33 167 76 62 91 69 115 55 147
-84 152 -88 155 -120 2 -22 -3 -40 -19 -57 -16 -19 -25 -48 -34 -115 l-12 -90
38 -75 c75 -151 219 -416 243 -448 14 -19 28 -30 33 -25 5 5 13 143 19 307
l10 297 -47 71 c-26 39 -60 80 -75 91 -61 45 -9 47 87 3 39 -17 157 -96 183
-121 2 -1 5 -15 8 -31 3 -16 7 -31 10 -33 2 -3 -9 -19 -26 -36 -24 -25 -34
-49 -49 -124 -20 -92 -20 -95 -2 -135 10 -23 56 -126 101 -231 120 -277 138
-315 150 -315 18 0 27 40 38 175 7 72 19 204 27 294 l15 163 -42 80 c-24 44
-54 89 -68 100 l-25 21 185 -6 c102 -3 195 -9 207 -12 38 -12 36 -35 -5 -74
-34 -31 -42 -48 -62 -129 l-22 -93 27 -77 c32 -92 81 -226 140 -383 l43 -115
-44 -135 c-40 -123 -83 -294 -99 -395 -6 -39 -10 -44 -68 -73 -56 -27 -228
-133 -412 -252 -131 -86 -184 -118 -226 -140 -41 -21 -43 -21 -56 -3 -40 57
-81 102 -117 129 -22 17 -60 56 -85 89 -47 60 -105 94 -162 95 -30 1 -59 -27
-59 -56 0 -23 35 -58 68 -68 27 -8 28 -21 2 -63 -26 -43 -58 -54 -136 -46
l-64 7 0 -182 0 -181 434 0 434 0 229 131 c366 211 406 243 476 377 19 37 63
146 97 242 34 96 72 204 86 240 21 57 24 60 19 25 -14 -103 -16 -188 -7 -280
7 -70 6 -149 -2 -260 -7 -88 -11 -186 -10 -218 3 -52 -1 -68 -41 -148 -25 -49
-45 -93 -45 -99 0 -7 241 -10 731 -10 l730 0 -7 23 c-3 12 -25 58 -47 102 -51
102 -61 144 -40 167 13 15 14 26 4 80 -21 111 -29 251 -21 338 5 47 9 101 10
120 1 28 9 12 44 -85 55 -155 101 -259 138 -312 57 -84 134 -135 504 -331
l192 -102 446 0 446 0 0 190 0 190 -73 -6 c-89 -8 -127 8 -157 66 -11 21 -20
44 -20 49 0 5 17 18 37 28 48 23 65 63 38 93 -24 27 -65 25 -125 -5 -43 -22
-55 -35 -84 -94 -24 -46 -51 -82 -86 -111 -28 -23 -62 -62 -76 -86 -21 -36
-30 -43 -46 -38 -27 8 -208 111 -413 233 -93 56 -212 123 -263 148 -67 32 -93
51 -96 67 -3 11 -12 66 -22 121 -9 55 -36 170 -61 255 -35 123 -42 160 -33
178 5 12 56 145 112 295 71 191 103 288 105 327 4 49 6 75 11 118 1 6 6 12 11
12 5 0 7 -18 4 -40 -3 -22 -2 -40 3 -40 15 1 60 73 67 105 3 17 15 51 26 78
20 46 22 47 63 47 24 0 61 3 83 7 l40 6 -26 -31 c-15 -17 -44 -61 -64 -98
l-38 -68 22 -303 c12 -167 24 -310 27 -318 8 -19 18 -19 33 -1 23 27 261 551
262 576 2 54 -29 171 -54 204 -18 23 -25 44 -24 69 2 32 9 40 87 96 85 60 213
121 228 107 4 -4 -6 -17 -22 -29 -16 -11 -51 -54 -78 -96 l-49 -74 7 -296 c4
-163 10 -300 15 -306 15 -16 32 10 180 275 l142 255 -7 88 c-5 69 -11 96 -28
120 -13 19 -23 47 -24 68 0 35 3 39 65 73 36 20 78 43 92 52 25 16 27 16 85
-24 91 -63 95 -68 88 -87 -4 -9 -7 -25 -8 -35 -1 -10 -16 -29 -35 -42 -19 -13
-56 -51 -82 -85 -47 -61 -47 -62 -53 -160 -4 -54 -11 -152 -16 -218 -17 -214
-18 -232 -11 -244 4 -6 14 -9 22 -6 14 6 21 15 146 196 l73 107 0 324 0 324
-80 52 c-119 78 -123 79 -189 39 -31 -18 -99 -53 -151 -77 -100 -45 -179 -89
-321 -175 -120 -74 -204 -115 -278 -136 -36 -10 -66 -17 -68 -16 -1 2 0 28 4
57 5 47 8 51 16 32 16 -36 29 -25 23 21 -5 35 -30 211 -52 363 -6 37 -4 42 16
47 21 5 22 9 14 49 -17 85 -11 162 18 205 77 116 108 255 88 391 -7 42 -18 92
-25 110 l-14 32 -182 0 -182 0 -43 -44 -44 -43 0 43 0 44 -766 0 c-756 0 -765
0 -759 -20z m1505 -638 c0 -42 -7 -133 -15 -202 -18 -149 -20 -315 -6 -389 6
-29 11 -56 11 -58 0 -3 -30 -2 -68 2 -80 8 -74 12 -154 -125 -31 -52 -65 -106
-76 -120 l-20 -25 -59 56 c-60 57 -146 104 -280 154 -85 31 -85 32 -48 145
l24 75 -6 -82 c-4 -58 -2 -83 6 -83 6 0 13 11 17 25 4 15 13 25 24 25 11 0 28
19 45 53 38 72 41 74 49 25 4 -24 14 -76 24 -117 l17 -75 7 40 c4 21 7 59 8
84 1 25 5 54 10 65 5 12 6 -28 3 -95 -3 -63 -3 -112 1 -109 4 3 13 46 22 95
15 84 34 134 34 87 0 -11 6 -23 14 -26 10 -4 16 6 20 33 3 22 12 51 18 66 l12
26 11 -32 11 -32 28 51 c15 28 29 51 31 51 2 0 16 -20 32 -45 32 -51 47 -58
39 -17 -10 54 -17 142 -12 150 3 4 32 4 65 -2 33 -5 64 -6 68 -2 5 5 2 11 -5
13 -7 3 -25 15 -39 27 -21 18 -25 31 -26 76 -1 50 4 63 55 145 30 50 63 105
72 123 9 18 21 30 26 27 6 -4 10 -41 10 -83z m-1130 -225 c0 -16 -18 3 -23 25
-6 22 -5 22 8 4 8 -11 15 -24 15 -29z m54 -10 c46 -34 98 -63 139 -76 20 -7
37 -17 37 -22 0 -5 10 -9 23 -9 12 0 29 -5 37 -10 23 -15 -55 -12 -116 4 -50
13 -138 59 -150 78 -13 21 6 19 38 -5 37 -27 58 -40 58 -35 0 2 -25 21 -55 43
-50 36 -66 55 -48 55 3 0 20 -10 37 -23z m336 -290 c0 -24 -35 -53 -45 -37 -8
13 24 72 35 65 6 -4 10 -16 10 -28z m700 -298 c9 -16 8 -24 -4 -37 -8 -10 -33
-54 -55 -100 -23 -45 -44 -82 -47 -82 -5 0 -43 24 -73 46 -3 3 159 194 165
194 2 0 8 -9 14 -21z m-1698 -85 c37 -43 68 -84 68 -90 0 -11 -58 -70 -63 -63
-1 2 -16 33 -32 68 -17 36 -40 80 -53 99 -23 34 -22 77 1 69 7 -2 42 -39 79
-83z"/>
<path d="M2331 2626 c4 -4 21 -11 39 -16 20 -6 30 -6 24 -1 -10 11 -72 27 -63
17z"/>
</g>
</svg>
