<?xml version="1.0" standalone="no"?>
<!DOCTYPE svg PUBLIC "-//W3C//DTD SVG 20010904//EN"
 "http://www.w3.org/TR/2001/REC-SVG-20010904/DTD/svg10.dtd">
<svg version="1.0" xmlns="http://www.w3.org/2000/svg"
 width="480.000000pt" height="360.000000pt" viewBox="0 0 480.000000 360.000000"
 preserveAspectRatio="xMidYMid meet">
<metadata>
Created by potrace 1.16, written by Peter Selinger 2001-2019
</metadata>
<rect width="1" height="360" fill="#000000"/>
<rect x="479" width="1" height="360" fill="#000000"/>
<rect width="480" height="1" fill="#000000"/>
<rect y="359" width="480" height="1" fill="#000000"/>
<g transform="translate(0.000000,360.000000) scale(0.100000,-0.100000)"
fill="#000000" stroke="none">
<path d="M4085 3556 c-7 -41 -2 -130 11 -216 18 -115 79 -145 207 -100 42 15
63 18 76 10 22 -11 50 -83 61 -155 7 -45 5 -56 -22 -104 -38 -68 -29 -79 46
-55 70 22 85 16 178 -78 49 -49 79 -91 108 -150 23 -45 43 -84 46 -87 2 -2 4
217 4 487 l0 492 -354 0 -355 0 -6 -44z"/>
<path d="M2864 2895 c-34 -34 -71 -116 -89 -200 -37 -174 -106 -483 -114 -515
-20 -79 -72 -235 -81 -244 -6 -6 -18 -2 -32 11 -45 40 -160 113 -194 122 -36
10 -129 0 -178 -19 -36 -13 -64 -48 -81 -101 -15 -44 -19 -48 -63 -59 -118
-29 -201 -98 -217 -180 -4 -19 -20 -49 -36 -65 -39 -42 -101 -188 -107 -252
-3 -39 0 -60 13 -79 23 -35 94 -66 133 -58 27 5 32 3 36 -17 3 -13 17 -82 31
-154 33 -169 121 -474 173 -597 54 -129 86 -176 239 -345 l128 -141 593 -1
594 -1 -50 57 c-79 92 -436 488 -541 601 -137 148 -130 130 -83 242 94 220
115 371 93 661 -12 163 -27 224 -67 276 l-27 36 12 121 c16 162 39 290 117
656 16 74 22 130 19 157 -6 40 -9 43 -47 54 -23 6 -50 22 -60 35 -27 33 -80
33 -114 -1z"/>
</g>
</svg>
