<?xml version="1.0" standalone="no"?>
<!DOCTYPE svg PUBLIC "-//W3C//DTD SVG 20010904//EN"
 "http://www.w3.org/TR/2001/REC-SVG-20010904/DTD/svg10.dtd">
<svg version="1.0" xmlns="http://www.w3.org/2000/svg"
 width="480.000000pt" height="360.000000pt" viewBox="0 0 480.000000 360.000000"
 preserveAspectRatio="xMidYMid meet">
<metadata>
Created by potrace 1.16, written by Peter Selinger 2001-2019
</metadata>
<rect width="1" height="360" fill="#000000"/>
<rect x="479" width="1" height="360" fill="#000000"/>
<rect width="480" height="1" fill="#000000"/>
<rect y="359" width="480" height="1" fill="#000000"/>
<g transform="translate(0.000000,360.000000) scale(0.100000,-0.100000)"
fill="#000000" stroke="none">
<path d="M0 1800 l0 -1800 795 0 795 0 0 1800 0 1800 -795 0 -795 0 0 -1800z"/>
<path d="M2148 3516 l4 -85 -44 -11 c-73 -19 -78 -21 -79 -33 -2 -29 -9 -53
-25 -83 -18 -32 -17 -35 5 -91 13 -32 45 -94 71 -138 65 -110 106 -192 140
-285 16 -44 39 -98 51 -122 20 -39 21 -51 14 -157 -4 -64 -11 -124 -17 -134
-9 -18 -23 -19 -249 -16 -169 3 -239 1 -239 -7 0 -6 -9 -22 -21 -35 -36 -41
-51 -96 -24 -85 22 8 19 -17 -4 -31 -20 -13 -34 -50 -21 -58 10 -6 67 58 82
91 7 15 23 26 44 30 39 7 407 -11 424 -21 16 -10 2 -25 -23 -25 -38 0 -107
-29 -148 -62 -90 -73 -51 -132 118 -176 77 -20 84 -28 114 -144 21 -85 32 -98
79 -98 46 0 51 7 80 95 39 119 40 121 116 134 86 15 140 38 164 68 23 30 18
47 -33 100 -39 41 -65 55 -119 67 -35 8 -38 41 -5 50 12 3 103 9 203 13 l181
6 42 -61 c23 -34 48 -62 56 -62 23 0 18 21 -12 52 -21 22 -23 28 -10 28 23 0
21 15 -10 88 -26 58 -30 62 -53 56 -14 -4 -110 -8 -213 -9 l-189 -2 5 26 c5
25 5 25 -9 6 -16 -21 -16 -23 0 95 2 14 0 34 -4 45 l-8 20 -7 -20 c-21 -61
-22 -62 -34 -18 -6 23 -16 45 -21 48 -18 11 -10 66 14 108 14 23 37 74 52 112
39 99 77 166 154 275 37 52 78 115 90 139 21 41 21 49 10 100 -20 93 -22 96
-83 110 -31 7 -67 23 -81 36 -25 23 -26 29 -22 90 l5 65 -40 0 c-34 0 -39 -3
-39 -22 0 -13 -5 -40 -11 -60 -8 -32 -14 -38 -37 -38 -15 1 -38 7 -52 15 -33
19 -72 19 -118 -1 -24 -10 -51 -13 -78 -9 -40 6 -42 8 -53 51 -6 25 -9 49 -6
55 4 5 -12 9 -37 9 l-43 0 3 -84z"/>
<path d="M3210 1800 l0 -1800 795 0 795 0 0 1800 0 1800 -795 0 -795 0 0
-1800z"/>
</g>
</svg>
