<?xml version="1.0" standalone="no"?>
<!DOCTYPE svg PUBLIC "-//W3C//DTD SVG 20010904//EN"
 "http://www.w3.org/TR/2001/REC-SVG-20010904/DTD/svg10.dtd">
<svg version="1.0" xmlns="http://www.w3.org/2000/svg"
 width="480.000000pt" height="360.000000pt" viewBox="0 0 480.000000 360.000000"
 preserveAspectRatio="xMidYMid meet">
<metadata>
Created by potrace 1.16, written by Peter Selinger 2001-2019
</metadata>
<rect width="1" height="360" fill="#000000"/>
<rect x="479" width="1" height="360" fill="#000000"/>
<rect width="480" height="1" fill="#000000"/>
<rect y="359" width="480" height="1" fill="#000000"/>
<g transform="translate(0.000000,360.000000) scale(0.100000,-0.100000)"
fill="#000000" stroke="none">
<path d="M0 2625 l0 -975 33 0 c62 0 744 55 1059 85 1028 98 1746 262 2333
533 72 33 153 73 180 88 173 94 273 150 295 165 14 9 61 36 105 59 77 40 83
42 186 46 l107 3 119 -117 c65 -64 163 -157 218 -207 55 -49 114 -104 132
-121 l33 -32 0 724 0 724 -2400 0 -2400 0 0 -975z"/>
<path d="M4059 2280 c-30 -22 -59 -43 -65 -48 -6 -5 -29 -21 -52 -36 -23 -14
-42 -29 -42 -32 0 -3 11 -15 24 -25 33 -26 42 -73 22 -104 -9 -13 -16 -26 -16
-27 0 -2 25 -21 55 -43 30 -22 58 -49 61 -60 4 -11 33 -85 66 -165 67 -161 68
-173 29 -314 -11 -39 -43 -168 -71 -286 -113 -484 -144 -606 -153 -618 -8 -10
-24 -12 -58 -7 -47 7 -47 7 -54 -27 -4 -18 -18 -53 -32 -77 l-26 -44 -17 24
c-20 26 -37 86 -111 399 -28 118 -70 296 -94 395 -24 99 -55 230 -70 291 l-26
112 62 162 c50 132 68 169 96 193 18 16 31 32 29 35 -3 2 -52 -18 -108 -45
-182 -89 -242 -112 -418 -163 -121 -35 -125 -37 -127 -66 -1 -16 -8 -39 -14
-51 -14 -26 -2 -46 43 -69 35 -18 60 -66 116 -224 54 -153 57 -171 42 -212 -6
-18 -15 -55 -20 -83 -4 -27 -17 -90 -29 -140 -12 -49 -28 -124 -35 -166 -8
-41 -21 -98 -29 -125 -8 -27 -25 -94 -37 -149 -25 -111 -77 -348 -85 -383 -4
-15 -13 -22 -30 -22 -13 0 -27 -4 -30 -10 -10 -16 -25 -12 -25 7 0 15 -2 15
-14 -3 -8 -11 -18 -33 -21 -47 l-7 -27 1006 0 1006 0 0 352 c0 193 -2 349 -5
347 -2 -3 -11 -34 -19 -70 -39 -169 -39 -169 -112 -169 l-53 0 -12 -42 c-12
-46 -48 -118 -60 -118 -12 0 -47 93 -69 185 -44 187 -84 350 -161 665 -44 179
-78 334 -75 345 2 11 14 45 26 75 12 30 36 93 53 139 26 71 37 88 73 115 38
27 43 36 44 69 0 30 7 45 29 66 l28 27 -69 59 c-38 33 -114 108 -169 168 -56
59 -109 107 -118 107 -10 0 -42 -18 -72 -40z"/>
<path d="M2565 1693 c-16 -3 -576 -112 -662 -129 -20 -4 -22 -8 -17 -48 5 -32
2 -50 -12 -71 l-18 -28 39 -33 c22 -19 43 -34 46 -34 9 0 28 -45 56 -130 13
-41 28 -79 33 -85 4 -5 17 -40 28 -77 15 -52 18 -75 10 -105 -5 -21 -20 -85
-32 -143 -62 -277 -118 -525 -141 -620 -13 -58 -27 -124 -31 -147 l-7 -43 427
0 c234 0 426 3 426 8 0 6 -168 726 -246 1052 l-35 145 57 165 c56 163 65 180
127 225 l27 20 -21 43 c-12 23 -24 41 -28 41 -3 -1 -15 -3 -26 -6z"/>
<path d="M1341 1495 c-68 -7 -219 -18 -335 -24 -266 -15 -253 -12 -248 -55 2
-18 -1 -43 -7 -54 -9 -17 -4 -25 42 -60 45 -34 55 -49 79 -113 15 -41 43 -117
63 -170 37 -102 41 -128 26 -175 -5 -16 -25 -99 -45 -184 -20 -85 -59 -254
-87 -375 -29 -121 -54 -235 -56 -252 l-5 -33 402 0 402 0 -6 23 c-3 12 -22 87
-41 167 -19 80 -63 267 -99 415 -35 149 -71 295 -79 326 -12 45 -12 63 -2 90
6 19 29 84 50 144 57 165 61 171 120 216 46 34 53 44 45 59 -6 10 -10 30 -10
44 0 24 -3 26 -42 25 -24 -1 -99 -7 -167 -14z"/>
<path d="M0 728 l0 -728 216 0 c201 0 215 1 210 18 -3 9 -53 208 -111 442
l-106 424 27 76 c104 290 111 303 182 350 22 15 23 16 6 48 -13 27 -14 39 -5
58 6 14 11 28 11 32 0 4 -97 7 -215 8 l-215 1 0 -729z"/>
</g>
</svg>
