<?xml version="1.0" standalone="no"?>
<!DOCTYPE svg PUBLIC "-//W3C//DTD SVG 20010904//EN"
 "http://www.w3.org/TR/2001/REC-SVG-20010904/DTD/svg10.dtd">
<svg version="1.0" xmlns="http://www.w3.org/2000/svg"
 width="480.000000pt" height="360.000000pt" viewBox="0 0 480.000000 360.000000"
 preserveAspectRatio="xMidYMid meet">
<metadata>
Created by potrace 1.16, written by Peter Selinger 2001-2019
</metadata>
<rect width="1" height="360" fill="#000000"/>
<rect x="479" width="1" height="360" fill="#000000"/>
<rect width="480" height="1" fill="#000000"/>
<rect y="359" width="480" height="1" fill="#000000"/>
<g transform="translate(0.000000,360.000000) scale(0.100000,-0.100000)"
fill="#000000" stroke="none">
<path d="M4022 3588 c3 -7 15 -44 28 -83 13 -38 34 -99 47 -135 l23 -65 -39
-145 -39 -145 -228 -227 c-232 -229 -285 -277 -339 -306 -16 -8 -111 -41 -210
-73 -99 -31 -192 -62 -207 -68 -31 -12 -118 -124 -118 -151 0 -36 40 -30 89
14 16 14 21 15 15 5 -5 -9 -43 -47 -84 -84 -133 -120 -158 -145 -190 -196 -52
-80 -21 -101 59 -42 l33 26 -13 -24 c-7 -13 -21 -36 -33 -52 -18 -25 -24 -27
-67 -21 -31 4 -66 1 -105 -11 -55 -16 -59 -16 -69 0 -15 25 -127 170 -186 240
-49 59 -50 60 -43 113 5 39 3 57 -8 70 -29 33 -32 45 -10 33 31 -16 41 -14 54
14 10 22 8 28 -16 52 -15 15 -42 59 -60 97 -18 39 -47 84 -64 100 -28 26 -33
27 -48 15 -22 -18 -44 -71 -44 -103 0 -49 -79 -39 -157 20 -17 13 -36 24 -41
24 -16 0 -1 -42 30 -84 15 -21 28 -45 28 -52 0 -6 -15 -21 -34 -32 -65 -39
-108 -144 -108 -267 -1 -92 11 -131 89 -299 47 -101 75 -178 98 -271 18 -71
50 -173 73 -225 22 -52 43 -110 47 -127 3 -18 12 -36 18 -40 7 -5 25 -28 42
-53 22 -34 30 -41 33 -27 3 14 7 16 18 6 8 -6 14 -19 14 -28 0 -24 51 -24 57
0 6 22 14 24 31 7 9 -9 12 -7 12 10 0 15 5 20 15 16 12 -5 15 3 15 35 0 37 2
41 25 41 14 0 25 -6 25 -12 0 -7 18 -55 41 -107 22 -51 47 -112 55 -135 64
-173 90 -262 120 -406 29 -142 37 -168 59 -185 14 -12 25 -30 25 -41 0 -11 6
-28 13 -37 10 -15 17 -16 46 -6 20 7 56 9 94 5 57 -6 68 -4 125 26 62 31 63
31 98 15 47 -23 66 -21 93 7 19 20 22 32 17 58 -6 31 -3 35 26 46 17 6 34 10
36 8 2 -3 -33 -77 -77 -165 l-82 -161 816 0 815 0 0 1800 0 1800 -391 0 c-309
0 -390 -3 -387 -12z m74 -1340 c-45 -180 -345 -1070 -366 -1083 -5 -3 -29 8
-54 25 -61 41 -163 87 -336 150 -80 29 -188 71 -240 95 -52 23 -126 52 -165
65 -91 29 -205 89 -205 107 0 8 -16 21 -36 29 -47 20 -42 45 10 56 32 7 46 4
82 -17 57 -33 85 -32 112 5 16 21 31 30 51 30 33 0 93 38 135 83 l28 32 -24
-45 c-41 -75 -74 -178 -60 -192 18 -18 52 11 192 171 119 137 190 205 190 184
0 -17 -72 -114 -129 -175 -95 -102 -143 -193 -113 -212 16 -9 70 38 188 162
64 67 126 128 137 134 20 10 21 10 7 -9 -8 -11 -37 -47 -63 -79 -61 -75 -107
-152 -107 -182 0 -22 1 -22 31 -6 17 9 57 43 88 76 31 34 124 129 207 212 152
152 205 220 262 333 25 49 49 76 118 133 48 39 88 69 91 66 2 -2 -12 -69 -31
-148z m-1111 -244 c-62 -52 -89 -65 -42 -20 27 25 54 46 60 46 7 -1 -1 -12
-18 -26z m49 -102 c-44 -42 -93 -94 -108 -115 -28 -38 -48 -44 -54 -15 -3 14
83 96 183 176 73 57 61 32 -21 -46z"/>
</g>
</svg>
