<?xml version="1.0" standalone="no"?>
<!DOCTYPE svg PUBLIC "-//W3C//DTD SVG 20010904//EN"
 "http://www.w3.org/TR/2001/REC-SVG-20010904/DTD/svg10.dtd">
<svg version="1.0" xmlns="http://www.w3.org/2000/svg"
 width="480.000000pt" height="360.000000pt" viewBox="0 0 480.000000 360.000000"
 preserveAspectRatio="xMidYMid meet">
<metadata>
Created by potrace 1.16, written by Peter Selinger 2001-2019
</metadata>
<rect width="1" height="360" fill="#000000"/>
<rect x="479" width="1" height="360" fill="#000000"/>
<rect width="480" height="1" fill="#000000"/>
<rect y="359" width="480" height="1" fill="#000000"/>
<g transform="translate(0.000000,360.000000) scale(0.100000,-0.100000)"
fill="#000000" stroke="none">
<path d="M1990 2599 c-14 -6 -37 -8 -52 -5 -23 4 -30 1 -42 -22 -7 -15 -16
-50 -20 -79 -6 -47 -4 -54 23 -84 17 -18 28 -36 25 -40 -2 -4 9 -31 26 -59 16
-28 30 -53 30 -55 0 -2 -10 -5 -22 -7 -18 -2 -23 -9 -23 -34 0 -18 -11 -43
-27 -63 -16 -18 -28 -37 -28 -43 0 -5 -9 -21 -20 -35 -28 -36 -27 -89 3 -104
12 -7 25 -17 29 -23 13 -18 9 -93 -6 -128 -7 -18 -21 -58 -30 -88 -8 -30 -27
-91 -40 -135 -50 -160 -96 -508 -99 -743 l-2 -155 59 -33 c33 -18 62 -32 65
-31 3 1 15 -4 26 -10 11 -6 47 -18 79 -27 57 -14 76 -27 76 -53 0 -26 -49 -42
-168 -56 -142 -17 -166 -29 -138 -71 11 -18 34 -30 74 -41 31 -9 66 -20 77
-25 11 -5 71 -10 133 -13 68 -2 117 -8 124 -15 30 -30 129 -4 166 43 35 45 29
61 -33 84 -31 12 -60 21 -64 21 -7 0 -27 46 -42 99 -3 9 11 18 41 26 25 6 64
21 86 33 36 18 42 27 46 59 3 21 1 65 -3 98 -5 34 -17 169 -28 300 -19 219
-36 328 -75 472 -7 28 -17 57 -21 63 -4 7 -3 22 2 33 6 12 21 66 34 121 l23
98 -23 64 c-13 36 -20 72 -16 84 4 11 2 20 -4 20 -6 0 -11 17 -11 38 0 22 -14
66 -34 107 -19 38 -32 73 -30 77 3 4 22 11 43 14 44 7 58 28 68 99 4 35 1 50
-16 73 -11 17 -21 35 -21 41 0 5 -21 33 -47 61 -43 45 -53 51 -98 55 -27 3
-61 0 -75 -6z m144 -747 c-4 -12 -10 -22 -15 -22 -11 0 -12 44 -2 54 12 11 23
-9 17 -32z"/>
</g>
</svg>
