<?xml version="1.0" standalone="no"?>
<!DOCTYPE svg PUBLIC "-//W3C//DTD SVG 20010904//EN"
 "http://www.w3.org/TR/2001/REC-SVG-20010904/DTD/svg10.dtd">
<svg version="1.0" xmlns="http://www.w3.org/2000/svg"
 width="480.000000pt" height="360.000000pt" viewBox="0 0 480.000000 360.000000"
 preserveAspectRatio="xMidYMid meet">
<metadata>
Created by potrace 1.16, written by Peter Selinger 2001-2019
</metadata>
<rect width="1" height="360" fill="#000000"/>
<rect x="479" width="1" height="360" fill="#000000"/>
<rect width="480" height="1" fill="#000000"/>
<rect y="359" width="480" height="1" fill="#000000"/>
<g transform="translate(0.000000,360.000000) scale(0.100000,-0.100000)"
fill="#000000" stroke="none">
<path d="M2246 3493 c67 -316 55 -608 -36 -883 -27 -81 -108 -261 -134 -295
-13 -16 -31 -47 -40 -67 -10 -20 -24 -39 -31 -42 -8 -3 -21 -21 -29 -40 -18
-44 -17 -43 -146 -178 -97 -102 -140 -138 -209 -179 -82 -48 -130 -81 -135
-94 -3 -8 -11 -15 -19 -15 -7 0 -38 -13 -68 -29 -79 -43 -278 -121 -309 -121
-15 0 -49 -6 -76 -14 -229 -63 -560 -50 -833 33 -57 18 -114 39 -125 47 -11 8
-28 14 -38 14 -17 0 -18 -41 -18 -815 l0 -815 2226 0 c1778 0 2224 3 2217 13
-4 6 -9 26 -10 42 -1 17 -5 48 -9 71 -7 48 30 177 96 339 96 232 150 406 150
480 0 20 5 45 11 56 6 12 21 62 34 112 13 51 37 135 53 187 30 93 30 98 22
215 -8 110 -11 121 -32 135 -13 8 -35 27 -50 42 -45 43 -35 119 28 210 30 42
54 135 61 231 4 61 3 67 -15 67 -11 0 -25 7 -33 16 -7 9 -33 29 -57 46 -32 22
-41 33 -33 41 6 6 11 14 11 17 0 11 -50 30 -79 30 -18 0 -37 10 -56 31 -27 31
-28 35 -22 111 l6 79 -64 61 c-74 69 -84 101 -37 120 15 6 92 13 172 15 80 2
160 6 178 9 l32 5 0 409 0 410 -1288 0 -1288 0 22 -107z"/>
</g>
</svg>
