<?xml version="1.0" standalone="no"?>
<!DOCTYPE svg PUBLIC "-//W3C//DTD SVG 20010904//EN"
 "http://www.w3.org/TR/2001/REC-SVG-20010904/DTD/svg10.dtd">
<svg version="1.0" xmlns="http://www.w3.org/2000/svg"
 width="480.000000pt" height="360.000000pt" viewBox="0 0 480.000000 360.000000"
 preserveAspectRatio="xMidYMid meet">
<metadata>
Created by potrace 1.16, written by Peter Selinger 2001-2019
</metadata>
<rect width="1" height="360" fill="#000000"/>
<rect x="479" width="1" height="360" fill="#000000"/>
<rect width="480" height="1" fill="#000000"/>
<rect y="359" width="480" height="1" fill="#000000"/>
<g transform="translate(0.000000,360.000000) scale(0.100000,-0.100000)"
fill="#000000" stroke="none">
<path d="M0 2900 c0 -385 2 -700 5 -700 3 0 14 19 24 43 19 45 91 117 116 117
9 0 19 -10 24 -22 6 -16 21 -26 52 -33 54 -13 64 -43 25 -69 -15 -9 -26 -23
-26 -31 0 -18 -16 -28 -59 -34 -53 -9 -61 -33 -23 -69 26 -24 34 -27 43 -16
30 37 103 2 196 -94 81 -82 118 -150 128 -231 7 -52 86 -206 230 -451 18 -30
58 -104 90 -163 l58 -109 41 39 c22 22 63 56 89 77 27 21 46 44 43 51 -6 17
11 32 107 94 67 44 77 54 77 79 0 71 69 111 246 143 63 11 133 27 156 35 22 8
82 19 132 24 117 13 125 16 132 47 4 14 4 95 0 179 -8 178 -37 303 -81 355
-14 18 -40 58 -56 90 -16 33 -31 59 -33 59 -1 0 -17 -7 -34 -16 -50 -25 -67
-16 -67 35 0 40 -3 44 -40 63 -88 44 -136 117 -77 119 l27 0 -22 16 c-31 21
-29 33 14 75 40 37 86 64 164 97 l46 19 -53 106 c-54 109 -73 171 -57 187 5 5
51 -21 118 -69 l108 -78 51 52 c34 34 68 57 101 69 28 9 59 21 70 25 73 30
276 48 355 32 42 -8 47 -7 77 21 35 33 50 35 161 24 62 -6 63 -6 126 38 95 67
99 64 91 -47 -8 -114 -19 -160 -51 -215 l-25 -43 33 8 c48 10 280 6 373 -7 88
-13 111 -25 74 -40 -36 -15 -204 -60 -250 -67 l-40 -7 30 -31 c49 -50 36 -125
-23 -140 -17 -4 -23 -11 -20 -20 6 -15 -51 -56 -114 -83 -25 -11 -32 -18 -27
-31 65 -164 138 -428 165 -602 5 -30 18 -104 30 -165 11 -60 29 -164 40 -230
16 -95 28 -137 59 -199 29 -57 41 -95 46 -144 3 -37 17 -110 30 -162 39 -154
70 -430 46 -416 -5 3 -12 21 -15 40 -10 54 -33 35 -38 -32 -5 -62 15 -140 38
-149 8 -3 14 -18 14 -34 0 -16 13 -79 29 -141 16 -62 32 -125 35 -141 l6 -27
730 0 730 0 0 1800 0 1800 -2400 0 -2400 0 0 -700z"/>
<path d="M1816 2217 c3 -10 9 -15 12 -12 3 3 0 11 -7 18 -10 9 -11 8 -5 -6z"/>
<path d="M185 1982 c10 -17 29 -35 43 -42 54 -24 31 19 -29 54 l-32 19 18 -31z"/>
<path d="M0 880 l0 -880 710 0 c453 0 710 4 710 10 0 16 161 88 246 111 43 11
129 23 191 26 61 3 117 9 124 13 17 11 2 103 -16 96 -7 -2 -16 2 -19 10 -3 8
-15 14 -26 14 -24 0 -24 1 -2 48 19 42 20 57 5 127 -17 78 -31 158 -31 180 0
40 -32 371 -42 430 -5 33 -10 61 -10 63 0 11 -24 -7 -80 -58 -36 -33 -68 -60
-71 -60 -3 0 -16 -9 -29 -20 -34 -30 -86 -41 -137 -30 -43 10 -43 10 -128 -55
l-85 -66 -29 20 c-16 12 -32 21 -35 21 -3 0 -37 -20 -76 -45 -163 -104 -310
-165 -402 -165 -75 0 -116 18 -157 66 -54 66 -277 528 -356 739 -14 39 -37 86
-51 106 -22 33 -185 179 -198 179 -3 0 -6 -396 -6 -880z"/>
</g>
</svg>
