<?xml version="1.0" standalone="no"?>
<!DOCTYPE svg PUBLIC "-//W3C//DTD SVG 20010904//EN"
 "http://www.w3.org/TR/2001/REC-SVG-20010904/DTD/svg10.dtd">
<svg version="1.0" xmlns="http://www.w3.org/2000/svg"
 width="480.000000pt" height="360.000000pt" viewBox="0 0 480.000000 360.000000"
 preserveAspectRatio="xMidYMid meet">
<metadata>
Created by potrace 1.16, written by Peter Selinger 2001-2019
</metadata>
<rect width="1" height="360" fill="#000000"/>
<rect x="479" width="1" height="360" fill="#000000"/>
<rect width="480" height="1" fill="#000000"/>
<rect y="359" width="480" height="1" fill="#000000"/>
<g transform="translate(0.000000,360.000000) scale(0.100000,-0.100000)"
fill="#000000" stroke="none">
<path d="M0 1800 l0 -1800 453 0 453 0 12 76 c7 42 10 80 6 85 -3 5 -36 9 -73
9 -80 0 -97 10 -114 69 -18 63 -44 78 -161 90 -79 8 -103 15 -122 32 -22 20
-26 21 -69 9 -25 -7 -47 -11 -48 -9 -1 2 -7 18 -14 36 -9 27 -7 39 13 83 13
29 24 60 24 70 0 28 11 50 25 50 7 0 24 12 39 27 20 19 23 28 14 34 -9 6 -6
14 12 33 13 15 28 26 32 26 14 0 33 23 33 41 0 22 53 82 65 74 6 -4 30 10 53
31 50 45 58 59 26 49 -22 -7 -23 -7 -9 11 8 10 46 53 85 94 96 102 133 149
199 254 50 79 63 118 35 100 -5 -3 -16 -1 -23 5 -8 7 -20 10 -27 9 -9 -2 -19
17 -28 53 l-14 56 63 159 c34 87 65 165 68 173 3 9 1 12 -6 8 -6 -4 -18 -31
-28 -60 -9 -28 -39 -99 -67 -157 -76 -161 -77 -167 -57 -220 10 -25 20 -66 24
-92 7 -43 5 -48 -12 -48 -11 0 -26 10 -35 23 -23 33 -45 14 -91 -80 -35 -69
-46 -83 -83 -101 l-44 -21 -11 25 c-17 37 5 166 39 223 14 25 39 69 54 96 30
53 52 116 94 278 14 54 41 132 61 173 19 41 34 85 32 97 -4 20 -5 20 -17 -8
-31 -70 -145 -304 -147 -302 -2 1 6 34 17 72 27 97 19 102 -20 11 -19 -42 -38
-79 -42 -82 -5 -3 -6 2 -3 10 12 32 -6 15 -26 -24 -11 -22 -22 -40 -24 -40 -2
0 5 39 15 86 11 48 18 92 15 98 -5 14 -68 -121 -92 -199 -17 -53 -19 -56 -24
-30 -3 15 -10 30 -16 32 -12 4 -34 -39 -34 -67 0 -32 -18 -23 -31 15 -15 41
-25 44 -33 10 -9 -37 -27 -31 -19 8 6 28 5 31 -9 19 -9 -7 -24 -28 -33 -47
-17 -38 -35 -46 -35 -17 -1 16 -2 16 -14 -1 -14 -18 -14 -18 -19 0 -4 19 -7
16 -22 -33 -5 -14 -8 -14 -25 6 -10 12 -24 19 -29 15 -29 -17 6 319 37 358 5
7 15 37 22 67 23 100 58 151 218 314 200 204 237 272 229 411 -3 68 0 93 24
169 41 127 43 120 -43 116 -41 -1 -49 2 -64 25 l-18 27 57 55 c31 30 57 61 57
68 0 24 -35 53 -90 76 -70 29 -161 93 -138 97 17 3 171 -43 241 -72 20 -9 37
-13 37 -9 0 4 13 -5 28 -20 l29 -28 44 21 c55 25 101 26 122 2 22 -25 21 -45
-3 -67 -24 -21 -28 -70 -6 -62 41 16 91 18 134 7 60 -17 162 -67 162 -81 0 -5
-4 -7 -10 -4 -14 9 -13 -1 5 -35 13 -25 13 -34 0 -76 -14 -48 -10 -63 20 -64
6 0 10 -34 10 -81 l0 -81 -35 -17 c-30 -14 -35 -21 -32 -46 5 -44 23 -66 97
-120 46 -34 74 -64 90 -95 13 -25 45 -65 72 -89 26 -24 62 -57 80 -73 47 -42
51 -83 16 -149 -27 -53 -28 -58 -27 -209 l0 -155 58 -220 c91 -346 158 -653
161 -730 1 -27 7 -74 13 -104 8 -34 10 -102 6 -185 -8 -197 -7 -192 -57 -199
-30 -4 -49 -14 -65 -34 -73 -90 -67 -87 -130 -77 -31 4 -88 8 -126 8 l-69 1
-17 -73 -17 -72 1129 0 c1071 0 1129 1 1124 18 -2 9 -14 62 -26 117 -12 55
-28 107 -36 115 -12 12 -25 12 -81 3 -99 -16 -124 -9 -177 48 -34 37 -52 49
-74 49 -43 0 -54 19 -51 92 2 35 -1 71 -5 81 -6 12 -4 17 8 17 20 0 21 18 1
39 -25 29 -21 122 6 106 12 -8 16 7 23 87 4 43 3 68 -3 68 -6 0 -7 -7 -4 -17
4 -11 3 -14 -5 -9 -17 10 -7 74 44 276 23 96 52 245 64 330 11 85 35 229 52
320 36 195 36 326 -1 402 -39 83 -41 92 -21 135 11 24 37 54 68 77 53 39 103
94 122 138 7 14 45 51 86 83 80 63 112 112 94 145 -6 11 -17 20 -24 20 -29 0
-47 36 -40 80 4 24 7 57 8 74 1 24 6 32 24 34 26 4 27 11 7 38 -19 25 -19 62
0 98 8 15 13 32 10 36 -14 23 120 90 181 90 22 0 63 -7 90 -15 l49 -15 20 27
c39 54 137 163 145 163 13 0 -41 -116 -78 -170 -17 -25 -27 -46 -22 -48 15 -5
160 165 160 187 0 6 9 16 20 23 11 7 34 32 51 55 38 50 55 47 34 -4 -8 -20
-14 -37 -13 -37 33 -12 78 -42 78 -52 0 -20 -78 -57 -105 -50 -19 5 -30 -6
-76 -75 -30 -45 -58 -87 -63 -94 -6 -8 -1 -23 14 -45 13 -18 33 -67 45 -109
19 -63 22 -92 17 -172 -10 -196 17 -247 238 -459 113 -108 194 -195 249 -269
45 -60 88 -112 96 -115 13 -5 15 101 15 839 l0 845 -2400 0 -2400 0 0 -1800z"/>
<path d="M3706 1959 c-10 -51 -7 -75 15 -133 18 -49 26 -58 66 -76 25 -11 49
-20 53 -20 6 0 -112 245 -125 258 -1 1 -5 -12 -9 -29z"/>
<path d="M4286 1913 c15 -35 22 -81 40 -285 6 -64 4 -79 -10 -93 -9 -9 -16
-25 -16 -36 0 -32 -17 -13 -36 39 -9 26 -23 54 -31 62 -21 23 -17 -38 5 -75
67 -109 74 -130 80 -213 5 -78 8 -88 47 -145 85 -125 113 -189 125 -284 6 -48
18 -117 26 -153 18 -73 30 -230 20 -255 -5 -14 -9 -15 -21 -5 -12 10 -15 9
-15 -9 0 -11 -6 -21 -14 -21 -17 0 -62 51 -71 80 -6 20 -25 28 -25 12 0 -5 6
-30 14 -56 8 -27 12 -54 10 -61 -4 -9 -33 -16 -82 -20 -99 -9 -125 -21 -201
-89 -57 -50 -68 -56 -107 -56 -52 0 -51 5 -28 -146 l17 -104 393 0 394 0 0
895 c0 590 -3 895 -10 895 -5 0 -10 -5 -10 -11 0 -8 -11 -9 -32 -5 -31 5 -32
5 -14 -9 28 -21 13 -29 -30 -15 -27 9 -38 9 -43 1 -9 -14 -60 6 -109 42 -18
14 -48 31 -65 38 -45 17 -163 88 -178 105 -6 8 -18 14 -25 14 -12 0 -11 -7 2
-37z"/>
<path d="M1153 1822 c-18 -37 -51 -102 -75 -144 l-43 -76 24 -26 c18 -19 28
-23 37 -15 28 23 104 164 110 205 6 44 -3 124 -14 124 -4 -1 -21 -31 -39 -68z"/>
<path d="M3934 1853 c9 -18 18 -33 20 -33 9 0 -8 41 -22 52 -13 11 -12 8 2
-19z"/>
<path d="M3931 1815 c0 -5 9 -28 19 -50 17 -36 19 -38 19 -14 1 15 -8 37 -19
50 -10 13 -19 20 -19 14z"/>
<path d="M3996 1734 c-16 -43 -6 -72 36 -103 23 -17 43 -29 45 -27 5 4 -65
146 -71 146 -2 0 -7 -7 -10 -16z"/>
<path d="M1040 1488 c0 -19 2 -20 10 -8 13 19 13 30 0 30 -5 0 -10 -10 -10
-22z"/>
<path d="M3740 222 c-19 -9 -38 -20 -41 -25 -10 -14 13 -162 28 -179 12 -14
32 -18 80 -18 34 0 63 3 63 7 0 24 -76 233 -85 232 -5 0 -26 -8 -45 -17z"/>
<path d="M1180 105 c-8 -2 -31 -6 -51 -9 -31 -6 -37 -11 -47 -45 -7 -21 -12
-41 -12 -45 0 -3 29 -6 65 -6 l65 0 0 55 c0 30 -1 54 -2 54 -2 -1 -10 -3 -18
-4z"/>
</g>
</svg>
