<?xml version="1.0" standalone="no"?>
<!DOCTYPE svg PUBLIC "-//W3C//DTD SVG 20010904//EN"
 "http://www.w3.org/TR/2001/REC-SVG-20010904/DTD/svg10.dtd">
<svg version="1.0" xmlns="http://www.w3.org/2000/svg"
 width="480.000000pt" height="360.000000pt" viewBox="0 0 480.000000 360.000000"
 preserveAspectRatio="xMidYMid meet">
<metadata>
Created by potrace 1.16, written by Peter Selinger 2001-2019
</metadata>
<rect width="1" height="360" fill="#000000"/>
<rect x="479" width="1" height="360" fill="#000000"/>
<rect width="480" height="1" fill="#000000"/>
<rect y="359" width="480" height="1" fill="#000000"/>
<g transform="translate(0.000000,360.000000) scale(0.100000,-0.100000)"
fill="#000000" stroke="none">
<path d="M0 3030 l0 -571 29 -57 c38 -73 99 -152 132 -171 38 -21 69 -8 146
63 l70 65 24 -25 c35 -37 294 -231 341 -255 69 -35 91 -15 188 179 33 67 64
122 67 122 3 0 38 -12 77 -26 124 -45 337 -95 412 -97 58 -2 76 2 93 17 33 30
35 72 7 161 -25 79 -134 310 -176 372 l-21 32 33 17 c49 25 185 112 246 157
62 47 72 74 44 119 -29 47 -240 233 -374 330 l-23 16 35 39 c20 21 44 48 54
61 l19 22 -711 0 -712 0 0 -570z"/>
<path d="M2735 3589 c-33 -11 -133 -29 -328 -59 -141 -22 -181 -39 -197 -83
-15 -44 -12 -81 15 -202 67 -295 177 -514 347 -691 148 -154 310 -257 404
-258 80 -1 102 25 199 237 32 70 62 127 67 127 6 0 8 -58 5 -154 -7 -246 6
-285 109 -331 102 -46 354 -64 514 -36 211 37 367 114 548 272 148 130 301
335 323 435 11 47 10 56 -7 86 -23 39 -108 97 -304 207 -205 115 -317 198
-459 339 l-124 122 -541 -1 c-317 0 -553 -5 -571 -10z"/>
<path d="M3695 1836 c-36 -39 -116 -172 -165 -279 -18 -37 -35 -67 -39 -67 -4
0 -55 18 -114 40 -137 52 -326 105 -422 120 -89 13 -144 7 -174 -21 -57 -54 1
-263 159 -567 l58 -113 -50 -25 c-68 -35 -253 -148 -305 -187 -23 -18 -47 -44
-53 -59 -10 -23 -8 -32 18 -70 54 -76 309 -312 414 -382 26 -17 48 -33 48 -36
0 -3 -34 -43 -75 -90 -41 -46 -75 -88 -75 -92 0 -5 108 -8 240 -8 l240 0 0 25
c0 16 -11 36 -27 50 -111 97 -135 121 -153 152 l-20 35 21 5 c17 5 20 11 15
36 -6 30 -4 28 49 -26 50 -51 75 -68 75 -51 0 3 -17 27 -38 53 -73 87 -100
149 -102 229 0 45 17 38 56 -24 40 -62 107 -139 112 -126 1 5 -13 36 -32 68
-19 33 -54 103 -76 158 -39 93 -45 125 -18 98 21 -21 28 -13 28 28 0 22 4 40
8 40 4 0 23 -16 42 -35 43 -45 53 -44 34 1 -14 34 -11 74 5 74 4 0 34 -20 65
-45 32 -25 62 -45 67 -45 10 0 1 27 -18 55 -27 40 -11 36 53 -15 36 -28 68
-50 70 -48 2 3 -16 27 -41 54 -50 55 -55 68 -22 58 58 -18 118 -57 172 -114
33 -34 80 -81 104 -104 24 -22 56 -68 72 -101 16 -32 42 -72 57 -88 29 -32
174 -107 205 -107 10 0 66 -20 125 -44 59 -24 132 -47 162 -50 30 -4 101 -16
158 -28 56 -11 104 -19 105 -17 1 2 16 24 33 49 58 84 72 181 34 223 -34 36
-36 65 -6 96 l26 27 0 366 0 367 -47 3 c-46 3 -46 3 -63 53 -39 116 -119 247
-181 300 -56 46 -88 34 -209 -78 l-62 -58 -46 43 c-84 79 -338 275 -387 300
-64 33 -74 32 -110 -6z"/>
<path d="M286 1795 c-50 -76 -110 -341 -111 -485 0 -159 41 -247 180 -394 36
-38 64 -71 61 -73 -2 -2 -42 15 -87 38 -104 52 -200 85 -273 94 l-56 7 0 -219
0 -220 88 -17 c137 -28 203 -48 209 -63 15 -37 -72 -128 -204 -216 l-93 -61 0
-75 c0 -66 3 -78 21 -89 24 -15 37 -9 115 59 124 108 269 199 316 199 31 0 48
-40 48 -116 0 -39 3 -92 6 -118 l7 -46 264 0 263 0 -6 27 c-3 16 -29 85 -57
156 -27 70 -48 130 -45 132 3 3 34 -25 69 -62 119 -125 208 -190 320 -232 51
-20 74 -21 425 -21 357 0 372 1 389 20 16 18 16 21 1 44 -17 27 -224 230 -346
341 -215 195 -338 259 -502 259 -47 0 -84 4 -82 8 3 4 10 8 15 8 23 0 218 116
279 165 72 58 90 75 138 128 66 74 160 238 225 392 33 79 90 202 137 296 55
111 57 119 25 119 -27 0 -419 -139 -599 -213 -270 -110 -427 -231 -572 -444
-25 -38 -47 -69 -48 -70 0 -1 -1 47 -1 105 0 121 -10 149 -99 270 -61 82 -367
392 -388 392 -9 0 -23 -11 -32 -25z"/>
</g>
</svg>
