<?xml version="1.0" standalone="no"?>
<!DOCTYPE svg PUBLIC "-//W3C//DTD SVG 20010904//EN"
 "http://www.w3.org/TR/2001/REC-SVG-20010904/DTD/svg10.dtd">
<svg version="1.0" xmlns="http://www.w3.org/2000/svg"
 width="480.000000pt" height="360.000000pt" viewBox="0 0 480.000000 360.000000"
 preserveAspectRatio="xMidYMid meet">
<metadata>
Created by potrace 1.16, written by Peter Selinger 2001-2019
</metadata>
<rect width="1" height="360" fill="#000000"/>
<rect x="479" width="1" height="360" fill="#000000"/>
<rect width="480" height="1" fill="#000000"/>
<rect y="359" width="480" height="1" fill="#000000"/>
<g transform="translate(0.000000,360.000000) scale(0.100000,-0.100000)"
fill="#000000" stroke="none">
<path d="M2324 2306 c-68 -31 -106 -75 -154 -172 -69 -142 -96 -349 -64 -485
5 -23 1 -28 -37 -43 -24 -10 -59 -34 -78 -53 -19 -20 -37 -31 -39 -25 -2 6
-17 30 -34 53 l-30 42 -277 -7 c-548 -15 -925 -36 -1205 -67 -103 -12 -207
-19 -230 -17 -25 3 -65 20 -97 40 -30 19 -60 38 -66 42 -10 6 -13 -158 -13
-803 l0 -811 1125 0 c619 0 1125 4 1125 8 0 40 -95 629 -142 875 -26 140 -29
170 -18 177 27 17 114 22 248 15 157 -8 357 13 426 44 49 22 126 82 235 182
75 69 85 83 125 174 23 55 53 120 66 145 21 41 22 54 18 165 -3 87 -10 131
-23 158 -9 20 -20 37 -22 37 -10 0 -43 -43 -43 -56 0 -37 -20 -14 -49 58 -37
89 -85 145 -164 191 -42 24 -47 30 -41 50 15 41 10 81 -8 85 -10 2 -18 -3 -18
-10 0 -8 -6 -23 -14 -34 -12 -15 -17 -17 -27 -6 -7 6 -25 12 -40 12 -14 0 -46
9 -70 19 -45 19 -186 41 -269 41 -26 0 -66 -10 -96 -24z"/>
</g>
</svg>
