<?xml version="1.0" standalone="no"?>
<!DOCTYPE svg PUBLIC "-//W3C//DTD SVG 20010904//EN"
 "http://www.w3.org/TR/2001/REC-SVG-20010904/DTD/svg10.dtd">
<svg version="1.0" xmlns="http://www.w3.org/2000/svg"
 width="480.000000pt" height="360.000000pt" viewBox="0 0 480.000000 360.000000"
 preserveAspectRatio="xMidYMid meet">
<metadata>
Created by potrace 1.16, written by Peter Selinger 2001-2019
</metadata>
<rect width="1" height="360" fill="#000000"/>
<rect x="479" width="1" height="360" fill="#000000"/>
<rect width="480" height="1" fill="#000000"/>
<rect y="359" width="480" height="1" fill="#000000"/>
<g transform="translate(0.000000,360.000000) scale(0.100000,-0.100000)"
fill="#000000" stroke="none">
<path d="M0 2640 c0 -633 3 -960 10 -960 6 0 10 -9 10 -20 0 -11 -4 -20 -10
-20 -7 0 -10 -280 -10 -820 l0 -820 703 0 703 0 -4 40 c-7 72 47 61 63 -12 l7
-28 1664 0 1664 0 0 789 c0 692 -2 790 -15 795 -8 3 -15 10 -15 15 0 6 7 8 15
5 13 -5 15 109 15 995 l0 1001 -2043 0 c-1549 0 -2046 -3 -2055 -12 -9 -9 -18
-9 -37 0 -18 8 -122 12 -345 12 l-320 0 0 -960z m770 701 c0 -8 -52 -31 -71
-31 -22 0 -6 18 24 28 42 13 47 14 47 3z m266 -46 c-22 -16 -106 -21 -106 -6
0 12 25 18 80 20 42 0 44 -1 26 -14z m1074 -114 c0 -5 -20 -18 -45 -30 -52
-24 -135 -39 -135 -24 0 13 65 41 120 52 62 12 60 12 60 2z m1490 -43 c0 -7
-20 -34 -44 -60 -30 -33 -52 -48 -69 -48 -56 0 -34 44 46 90 58 33 67 36 67
18z m-2490 -398 c21 -13 7 -22 -45 -27 -51 -6 -62 9 -17 25 35 13 44 14 62 2z
m1050 -5 c17 -9 30 -19 30 -24 0 -13 -49 -31 -86 -31 -37 0 -94 24 -94 40 0
30 101 40 150 15z m-1973 -184 c30 -21 60 -98 45 -113 -18 -18 -74 23 -104 77
-14 27 -24 53 -22 57 7 11 54 -1 81 -21z m3937 -257 c13 -5 14 -9 5 -20 -13
-16 -55 -19 -64 -4 -15 24 21 39 59 24z m-1904 -452 c0 -23 -29 -64 -41 -57
-10 7 -12 58 -2 68 14 14 43 7 43 -11z m-253 -113 c25 -8 93 -76 93 -92 0 -9
-62 -27 -91 -27 -15 0 -40 5 -54 12 -29 13 -69 82 -61 104 6 17 69 19 113 3z
m978 -26 c-4 -10 -22 -58 -41 -108 -18 -49 -42 -112 -53 -140 -11 -27 -23 -62
-26 -77 -9 -46 -25 -32 -25 22 0 107 35 207 97 278 38 43 61 55 48 25z m-829
-48 c16 -39 18 -65 5 -65 -5 0 -16 21 -25 47 -19 55 -19 53 -5 53 5 0 17 -16
25 -35z m2518 -13 c3 -5 -14 -30 -37 -56 -44 -50 -115 -86 -172 -86 l-29 0 48
49 c27 27 67 57 90 66 22 9 48 21 56 25 20 11 38 12 44 2z m-4154 -173 c12
-22 5 -95 -11 -104 -5 -4 -21 6 -35 20 -20 20 -24 32 -19 53 13 53 45 69 65
31z m1825 -140 c-20 -56 -77 -159 -89 -159 -14 0 -35 33 -36 55 0 26 50 105
66 105 7 0 22 9 35 20 35 29 40 25 24 -21z m-445 -2 c0 -20 -28 -73 -45 -87
-8 -7 -15 -19 -15 -27 0 -12 16 -14 93 -9 l92 6 -70 -20 c-79 -22 -137 -25
-167 -9 -19 10 -20 13 -6 23 8 6 23 27 33 46 19 38 64 90 77 90 4 0 8 -6 8
-13z m-622 -200 c12 -11 22 -29 22 -40 0 -17 -5 -19 -32 -13 -18 4 -46 20 -63
37 -25 25 -28 31 -15 39 20 12 60 2 88 -23z m1720 1 c5 -7 28 -46 51 -87 40
-72 41 -73 14 -56 -16 10 -34 26 -41 34 -21 26 -52 89 -52 106 0 18 14 20 28
3z m1678 -84 c-3 -13 -23 -62 -46 -108 -61 -123 -120 -171 -120 -96 0 15 -7
30 -15 34 -8 3 -15 18 -15 33 0 34 44 103 66 103 20 0 87 35 103 54 18 21 32
10 27 -20z m-3438 -23 c20 -10 46 -29 57 -41 l20 -23 -25 8 c-39 11 -103 49
-108 63 -5 17 13 15 56 -7z m2877 -337 c70 -42 82 -53 65 -65 -33 -21 -118 10
-210 79 -2 2 2 7 10 12 22 14 90 1 135 -26z m-1942 -13 c18 -18 -66 -14 -89 5
-18 14 -16 15 29 11 27 -3 54 -10 60 -16z m-553 -21 c0 -5 -23 -16 -52 -25
-61 -18 -58 -17 -58 -6 0 12 61 40 88 41 12 0 22 -4 22 -10z m1012 -12 c-16
-16 -127 -17 -143 0 -10 10 4 12 71 12 66 0 81 -3 72 -12z m246 -123 c4 -43
-14 -116 -30 -126 -5 -4 -23 6 -39 20 -33 30 -31 51 11 114 32 48 54 45 58 -8z
m1095 -54 c29 -27 48 -53 44 -57 -4 -4 -31 -9 -60 -11 -45 -4 -58 0 -104 29
-48 31 -69 60 -57 80 3 4 32 8 65 8 59 0 62 -1 112 -49z m-3423 -144 c0 -7 9
-29 19 -50 13 -25 15 -37 7 -37 -15 0 -46 62 -46 91 0 11 5 17 10 14 6 -3 10
-12 10 -18z m460 -22 c32 -17 57 -53 43 -64 -109 -94 -156 -108 -237 -73 -25
12 -46 27 -46 34 0 7 17 24 36 38 20 14 50 37 67 52 37 32 91 37 137 13z
m3327 -36 c38 -14 93 -52 93 -64 0 -14 -117 -55 -155 -55 -16 0 -54 11 -83 25
-65 30 -66 49 -2 81 49 25 102 30 147 13z m-2530 -71 c21 -43 8 -58 -51 -58
-56 0 -96 20 -96 49 0 22 44 40 95 38 32 -2 42 -7 52 -29z"/>
</g>
</svg>
