<?xml version="1.0" standalone="no"?>
<!DOCTYPE svg PUBLIC "-//W3C//DTD SVG 20010904//EN"
 "http://www.w3.org/TR/2001/REC-SVG-20010904/DTD/svg10.dtd">
<svg version="1.0" xmlns="http://www.w3.org/2000/svg"
 width="480.000000pt" height="360.000000pt" viewBox="0 0 480.000000 360.000000"
 preserveAspectRatio="xMidYMid meet">
<metadata>
Created by potrace 1.16, written by Peter Selinger 2001-2019
</metadata>
<rect width="1" height="360" fill="#000000"/>
<rect x="479" width="1" height="360" fill="#000000"/>
<rect width="480" height="1" fill="#000000"/>
<rect y="359" width="480" height="1" fill="#000000"/>
<g transform="translate(0.000000,360.000000) scale(0.100000,-0.100000)"
fill="#000000" stroke="none">
<path d="M0 1800 l0 -1800 1380 0 c759 0 1380 4 1380 9 0 22 -41 488 -50 571
-17 148 -39 269 -61 337 -22 66 -66 135 -98 152 -11 6 -78 24 -150 40 -72 17
-150 38 -173 49 -44 19 -122 100 -209 216 l-44 59 -3 116 -4 116 32 43 c17 23
43 50 59 60 15 9 52 39 81 65 52 47 53 49 42 81 -15 42 -15 46 3 46 8 0 19 -9
25 -20 14 -27 25 -25 70 10 57 45 119 70 176 70 107 0 187 -43 274 -147 56
-67 83 -118 111 -208 39 -125 25 -218 -41 -265 -16 -12 -30 -25 -30 -30 0 -5
20 -28 45 -51 66 -61 103 -133 171 -337 l60 -184 71 84 c123 145 123 145 123
267 0 115 -4 104 80 225 l41 60 -28 37 c-15 20 -41 53 -57 73 l-29 37 22 22
c11 13 21 28 21 35 0 18 -33 82 -42 82 -4 0 -20 -18 -34 -40 -15 -22 -29 -40
-31 -40 -3 0 -2 16 1 35 l7 34 -68 -39 c-92 -54 -112 -53 -164 12 -22 29 -50
57 -62 63 -18 9 -21 18 -19 56 3 42 0 49 -34 78 -20 18 -47 37 -60 43 -23 11
-29 25 -48 110 -4 17 -21 35 -50 52 -48 28 -65 58 -46 81 6 8 32 26 56 40 24
14 44 33 44 41 0 17 -70 114 -83 114 -10 0 1 -39 15 -57 7 -9 7 -13 0 -13 -6
0 -17 -3 -26 -6 -10 -4 -16 -1 -16 9 0 8 -7 20 -15 27 -13 11 -15 8 -15 -16
l0 -28 -24 33 c-20 27 -25 30 -28 14 -9 -39 -108 152 -108 207 0 20 -83 89
-108 90 -21 0 -171 123 -183 150 -12 29 -168 155 -191 155 -25 0 -298 247
-298 269 0 6 -14 29 -31 51 -25 34 -27 40 -13 45 29 11 -30 69 -77 76 -31 5
-49 17 -84 58 -29 33 -43 57 -39 68 3 10 -2 21 -15 27 -11 6 -25 27 -32 46
l-13 35 -678 0 -678 0 0 -1800z"/>
<path d="M2500 3590 c18 -12 157 -12 185 0 13 6 -19 9 -90 9 -74 1 -105 -2
-95 -9z"/>
<path d="M4734 3226 c-14 -11 -23 -39 -34 -111 -18 -110 -19 -109 59 -121 l41
-7 0 127 c0 125 0 126 -23 126 -13 0 -32 -6 -43 -14z"/>
</g>
</svg>
