<?xml version="1.0" standalone="no"?>
<!DOCTYPE svg PUBLIC "-//W3C//DTD SVG 20010904//EN"
 "http://www.w3.org/TR/2001/REC-SVG-20010904/DTD/svg10.dtd">
<svg version="1.0" xmlns="http://www.w3.org/2000/svg"
 width="480.000000pt" height="360.000000pt" viewBox="0 0 480.000000 360.000000"
 preserveAspectRatio="xMidYMid meet">
<metadata>
Created by potrace 1.16, written by Peter Selinger 2001-2019
</metadata>
<rect width="1" height="360" fill="#000000"/>
<rect x="479" width="1" height="360" fill="#000000"/>
<rect width="480" height="1" fill="#000000"/>
<rect y="359" width="480" height="1" fill="#000000"/>
<g transform="translate(0.000000,360.000000) scale(0.100000,-0.100000)"
fill="#000000" stroke="none">
<path d="M1598 3553 c12 -80 5 -302 -12 -400 -18 -99 -96 -322 -127 -362 -11
-13 -19 -28 -19 -33 0 -17 -102 -160 -164 -231 -55 -62 -109 -110 -229 -204
-100 -78 -360 -185 -514 -213 -119 -21 -418 -12 -511 16 l-22 6 0 -1066 0
-1066 1303 0 1303 0 13 83 c29 185 55 290 110 452 67 194 88 280 131 525 17
96 39 218 50 269 13 63 16 99 9 107 -5 6 -14 50 -20 97 l-12 86 -46 23 c-96
48 -111 116 -52 230 17 32 31 60 31 63 0 11 -36 3 -141 -31 -132 -42 -160 -42
-174 4 -9 31 -28 42 -40 22 -11 -18 -31 -11 -43 15 -11 23 -17 25 -75 25 -35
0 -99 9 -143 20 -124 31 -365 109 -409 132 -22 11 -53 27 -69 36 -23 12 -36
12 -64 4 -39 -12 -52 -8 -34 10 20 20 13 27 -23 21 -38 -6 -48 9 -17 26 14 9
13 10 -10 11 -31 0 -36 14 -14 36 33 33 171 8 284 -51 58 -31 95 -41 240 -65
95 -16 188 -34 206 -41 48 -17 118 -2 131 29 6 14 15 20 25 16 39 -16 47 -14
58 11 14 31 29 31 157 1 75 -17 221 -21 243 -7 12 7 12 12 0 30 -11 19 -11 24
5 35 28 22 20 35 -17 29 -31 -5 -36 -2 -52 28 -9 19 -20 36 -23 39 -3 3 -17
20 -30 39 l-24 34 24 19 c24 18 24 19 5 33 -11 8 -27 15 -37 15 -17 0 -49 55
-49 85 0 9 -4 14 -8 11 -13 -8 -7 45 8 74 7 14 23 39 35 55 l22 30 -28 60
c-33 69 -38 132 -12 142 20 8 227 -59 303 -97 30 -16 75 -34 100 -40 34 -9 60
-27 106 -74 53 -54 62 -69 78 -130 9 -37 20 -105 23 -150 4 -56 15 -102 35
-148 24 -57 28 -81 28 -155 l0 -89 70 -63 c77 -68 90 -96 65 -134 -12 -18 -13
-26 -4 -29 16 -5 22 -47 9 -63 -7 -8 3 -36 31 -91 39 -78 40 -83 64 -294 13
-118 28 -228 35 -245 6 -16 15 -66 20 -110 6 -64 12 -83 30 -97 20 -16 20 -18
5 -25 -10 -3 -26 -1 -36 6 -25 15 -24 0 1 -32 25 -31 25 -37 2 -37 -22 0 -47
25 -61 60 -7 18 -10 20 -10 7 -1 -10 8 -35 19 -57 26 -51 26 -64 1 -50 -11 5
-27 7 -36 4 -9 -4 -24 1 -35 11 -19 17 -19 16 0 -31 30 -79 114 -270 174 -394
30 -63 74 -172 98 -242 l42 -128 458 0 458 0 0 1800 0 1800 -1605 0 -1605 0 8
-47z"/>
<path d="M3438 1554 c-13 -20 -28 -202 -19 -226 5 -13 12 -52 15 -88 7 -62 42
-196 56 -213 3 -4 12 26 18 66 12 70 11 82 -22 248 -19 96 -36 185 -38 199 -2
15 -6 21 -10 14z"/>
</g>
</svg>
