<?xml version="1.0" standalone="no"?>
<!DOCTYPE svg PUBLIC "-//W3C//DTD SVG 20010904//EN"
 "http://www.w3.org/TR/2001/REC-SVG-20010904/DTD/svg10.dtd">
<svg version="1.0" xmlns="http://www.w3.org/2000/svg"
 width="480.000000pt" height="360.000000pt" viewBox="0 0 480.000000 360.000000"
 preserveAspectRatio="xMidYMid meet">
<metadata>
Created by potrace 1.16, written by Peter Selinger 2001-2019
</metadata>
<rect width="1" height="360" fill="#000000"/>
<rect x="479" width="1" height="360" fill="#000000"/>
<rect width="480" height="1" fill="#000000"/>
<rect y="359" width="480" height="1" fill="#000000"/>
<g transform="translate(0.000000,360.000000) scale(0.100000,-0.100000)"
fill="#000000" stroke="none">
<path d="M4456 1018 c-112 -273 -188 -448 -195 -448 -23 1 -36 24 -36 63 0 32
-9 57 -29 87 -27 42 -28 44 -13 82 23 58 9 82 -32 56 -20 -12 -37 -7 -154 47
-50 23 -61 34 -77 71 -11 24 -26 44 -34 44 -12 0 -13 -4 -1 -28 18 -35 14 -63
-19 -136 -15 -33 -29 -70 -32 -82 -3 -12 -16 -25 -29 -28 -25 -6 -45 -48 -26
-54 36 -12 54 -41 62 -100 5 -34 20 -88 33 -120 26 -60 22 -81 -12 -63 -24 13
-32 -2 -32 -57 0 -33 5 -61 25 -149 3 -12 25 -33 50 -47 39 -23 47 -34 60 -81
9 -30 14 -59 10 -65 -4 -7 51 -10 163 -10 146 0 171 2 176 16 11 28 5 138 -9
178 -28 78 22 106 187 106 l97 0 47 41 c26 23 61 48 78 56 50 24 77 66 83 129
5 49 3 58 -13 67 -10 6 -29 10 -41 10 -13 -1 -32 -1 -43 -2 -11 -1 -20 -7 -20
-14 0 -6 -12 -18 -28 -24 -23 -11 -229 -58 -297 -68 -11 -2 -20 -4 -20 -5 0
-1 -10 -3 -21 -4 -43 -5 -23 65 90 329 59 138 115 265 123 282 15 32 12 63 -4
63 -5 0 -35 -64 -67 -142z m-281 -558 c3 -5 1 -10 -4 -10 -6 0 -11 5 -11 10 0
6 2 10 4 10 3 0 8 -4 11 -10z"/>
<path d="M2445 1113 c10 -21 -5 -36 -22 -21 -14 11 -15 10 -9 -10 5 -15 3 -22
-6 -22 -7 0 -2 -7 10 -16 l22 -15 -45 -56 c-25 -30 -45 -59 -45 -64 0 -5 -9
-9 -20 -9 -11 0 -20 -5 -20 -11 0 -5 -5 -7 -11 -3 -17 10 5 -28 28 -48 16 -15
19 -30 17 -103 -1 -47 2 -85 7 -85 10 0 12 -43 3 -76 -3 -11 -19 -25 -35 -31
-38 -15 -38 -39 2 -120 20 -41 41 -69 59 -78 32 -16 66 -100 56 -138 -3 -12 1
-29 11 -39 19 -21 12 -39 -42 -106 -19 -24 -35 -48 -35 -53 0 -5 79 -9 186 -9
155 0 185 2 181 14 -23 60 -30 97 -19 108 17 17 15 174 -2 231 l-14 46 32 -6
c17 -3 58 -19 90 -35 l59 -30 26 20 c32 23 38 55 16 88 -15 23 -14 25 19 55
48 42 72 106 56 153 -12 39 -43 66 -73 66 -10 0 -32 -14 -49 -30 -24 -24 -37
-30 -64 -27 -18 2 -42 11 -52 20 -10 9 -32 20 -49 23 -24 5 -34 2 -47 -17 -21
-31 -29 -19 -21 30 4 27 11 38 20 35 11 -4 11 3 3 38 -5 24 -14 53 -20 65 -8
16 -6 28 8 52 17 29 17 31 -1 51 -11 12 -29 19 -45 18 -16 -1 -44 11 -73 32
-49 35 -55 45 -34 54 10 5 10 7 0 12 -7 3 -13 12 -13 20 0 9 -5 12 -11 9 -6
-4 -17 1 -25 11 -9 11 -13 13 -9 7z"/>
<path d="M1020 965 c-7 -8 -19 -15 -27 -15 -10 0 -13 -6 -9 -16 12 -30 -23
-72 -99 -118 -65 -39 -79 -44 -96 -33 -15 9 -22 9 -34 -4 -14 -14 -14 -18 0
-45 20 -39 19 -55 -6 -107 l-21 -43 31 -51 c19 -30 31 -64 31 -84 0 -19 7 -47
15 -63 8 -15 15 -30 15 -32 0 -2 -39 -4 -86 -4 -97 0 -125 10 -197 70 -58 47
-106 59 -142 36 -13 -9 -54 -20 -90 -25 -72 -10 -95 -23 -95 -52 0 -13 7 -19
24 -19 14 0 28 4 31 10 7 11 48 13 83 4 16 -5 21 -12 17 -24 -7 -22 12 -37 28
-21 6 6 17 11 24 11 22 0 80 -43 97 -71 12 -19 22 -26 36 -22 12 3 20 0 20 -7
0 -7 8 -9 19 -5 11 3 22 1 26 -5 4 -6 13 -9 20 -6 8 3 24 -3 37 -13 13 -10 33
-21 46 -25 36 -12 54 -58 44 -114 -5 -26 -7 -53 -4 -60 3 -9 51 -12 183 -12
l179 0 0 33 c-1 17 -4 50 -9 72 -8 41 7 96 29 110 10 6 -3 27 -61 97 l-26 32
41 22 c36 19 42 28 50 68 7 33 6 67 -3 112 l-13 66 33 34 c29 30 31 34 13 34
-24 0 -42 19 -74 76 -21 39 -21 43 -5 67 20 30 15 52 -20 90 -18 19 -24 34
-20 47 8 24 -16 28 -35 5z"/>
</g>
</svg>
