<?xml version="1.0" standalone="no"?>
<!DOCTYPE svg PUBLIC "-//W3C//DTD SVG 20010904//EN"
 "http://www.w3.org/TR/2001/REC-SVG-20010904/DTD/svg10.dtd">
<svg version="1.0" xmlns="http://www.w3.org/2000/svg"
 width="480.000000pt" height="360.000000pt" viewBox="0 0 480.000000 360.000000"
 preserveAspectRatio="xMidYMid meet">
<metadata>
Created by potrace 1.16, written by Peter Selinger 2001-2019
</metadata>
<rect width="1" height="360" fill="#000000"/>
<rect x="479" width="1" height="360" fill="#000000"/>
<rect width="480" height="1" fill="#000000"/>
<rect y="359" width="480" height="1" fill="#000000"/>
<g transform="translate(0.000000,360.000000) scale(0.100000,-0.100000)"
fill="#000000" stroke="none">
<path d="M2172 1799 c-170 -22 -333 -94 -430 -189 -33 -32 -68 -72 -78 -89
-21 -36 -27 -37 -102 -12 -71 23 -151 37 -315 52 -143 14 -179 6 -214 -47 -35
-54 -10 -293 48 -461 17 -50 18 -64 8 -115 -13 -67 -16 -62 98 -206 96 -121
116 -156 110 -190 -9 -52 -49 -207 -67 -265 -10 -31 -15 -57 -11 -57 13 0 66
81 95 144 14 32 28 57 31 54 3 -2 1 -29 -5 -59 -5 -30 -14 -83 -20 -119 -6
-36 -17 -85 -25 -110 -7 -25 -16 -64 -19 -87 -8 -58 10 -57 60 4 22 26 45 54
52 62 11 14 13 6 9 -47 l-5 -62 1045 0 1045 0 -7 128 c-3 70 -8 137 -11 149
-6 33 14 28 22 -5 14 -56 58 -128 111 -180 30 -29 58 -51 61 -48 3 3 -2 23
-10 43 -19 45 -64 190 -113 362 l-35 124 36 64 c19 35 49 90 65 123 l29 59 56
-30 c78 -41 144 -41 185 0 25 25 29 37 29 85 0 88 -38 161 -111 212 -45 31
-47 44 -23 156 23 109 23 214 -1 263 -31 61 -69 71 -208 56 -240 -26 -268 -32
-375 -68 l-44 -15 -59 60 c-74 77 -127 113 -244 168 -191 89 -433 123 -663 93z
m1600 -832 c32 -30 61 -84 52 -98 -16 -27 -144 25 -144 57 0 8 7 30 15 50 16
39 26 38 77 -9z"/>
</g>
</svg>
