<?xml version="1.0" standalone="no"?>
<!DOCTYPE svg PUBLIC "-//W3C//DTD SVG 20010904//EN"
 "http://www.w3.org/TR/2001/REC-SVG-20010904/DTD/svg10.dtd">
<svg version="1.0" xmlns="http://www.w3.org/2000/svg"
 width="480.000000pt" height="360.000000pt" viewBox="0 0 480.000000 360.000000"
 preserveAspectRatio="xMidYMid meet">
<metadata>
Created by potrace 1.16, written by Peter Selinger 2001-2019
</metadata>
<rect width="1" height="360" fill="#000000"/>
<rect x="479" width="1" height="360" fill="#000000"/>
<rect width="480" height="1" fill="#000000"/>
<rect y="359" width="480" height="1" fill="#000000"/>
<g transform="translate(0.000000,360.000000) scale(0.100000,-0.100000)"
fill="#000000" stroke="none">
<path d="M0 1800 l0 -1800 2400 0 2400 0 0 1800 0 1800 -2400 0 -2400 0 0
-1800z m2608 1010 c50 -30 92 -58 92 -62 0 -14 -70 -8 -101 8 -17 8 -42 14
-57 12 -23 -3 -27 -8 -30 -40 -4 -42 6 -50 84 -66 72 -16 126 -49 122 -76 -2
-17 4 -23 35 -30 20 -5 37 -13 37 -18 0 -4 9 -8 20 -8 11 0 19 -4 18 -9 -2 -5
6 -17 17 -26 19 -16 19 -16 -10 -10 l-30 7 25 -27 c17 -18 19 -24 8 -20 -10 4
-24 0 -34 -10 -9 -9 -23 -14 -30 -11 -8 3 -20 9 -28 12 -9 3 -17 -3 -21 -16
-4 -14 -12 -19 -22 -16 -8 3 -27 9 -41 12 -26 6 -27 6 -7 -10 20 -17 19 -17
-5 -10 -26 8 -68 9 -76 2 -7 -8 32 -112 43 -115 6 -2 21 12 33 32 22 35 65 65
94 65 18 0 22 -15 31 -97 8 -70 3 -67 125 -78 126 -11 140 -15 140 -37 0 -14
-5 -18 -15 -14 -21 8 -145 20 -145 14 0 -3 28 -15 63 -28 34 -12 67 -27 74
-32 7 -6 44 -3 100 6 48 9 145 16 216 16 110 0 127 -2 127 -16 0 -9 6 -14 13
-11 8 3 13 -4 12 -20 0 -15 8 -30 20 -37 11 -6 23 -16 28 -23 4 -7 14 -10 23
-6 8 3 23 -4 33 -16 10 -11 26 -21 35 -21 13 0 12 -4 -5 -21 -17 -17 -18 -23
-8 -29 14 -9 22 -40 9 -40 -4 0 -6 -11 -5 -25 3 -20 -1 -25 -18 -25 -20 0 -20
0 -2 -14 18 -13 18 -14 -3 -20 -12 -4 -30 -2 -41 3 -26 15 -31 14 -31 -5 0
-10 -5 -14 -16 -10 -8 3 -13 2 -10 -3 3 -5 -8 -14 -24 -21 -28 -12 -29 -14
-13 -25 15 -11 12 -13 -22 -11 -22 1 -56 10 -75 20 l-35 17 35 -31 c44 -39 36
-38 -32 3 -54 33 -86 41 -278 72 -58 10 -120 28 -160 46 -68 32 -136 45 -158
30 -11 -6 -11 -16 -2 -47 25 -83 -7 -139 -54 -95 -24 22 -24 22 -30 3 -4 -11
-14 -26 -22 -33 -24 -20 -38 5 -44 79 -4 57 -8 67 -22 64 -10 -2 -26 1 -35 6
-11 6 -52 5 -106 -3 -126 -17 -149 -11 -151 44 -1 23 -6 27 -46 33 -25 3 -106
9 -180 12 -131 6 -134 6 -92 -10 43 -16 47 -21 34 -41 -6 -9 -26 -6 -84 12
-41 13 -117 31 -168 40 -86 15 -94 15 -111 -1 -11 -9 -19 -13 -19 -8 0 5 -4 3
-9 -5 -9 -14 -18 -7 -59 43 -8 10 -28 16 -51 16 -58 0 -100 19 -117 52 -25 49
-20 50 181 27 97 -10 473 -45 567 -52 55 -3 59 -2 92 32 52 54 120 179 106
196 -6 7 -16 46 -23 86 -11 69 -14 74 -39 79 -35 6 -68 35 -68 58 0 20 34 55
63 65 24 9 57 -26 57 -60 0 -16 7 -37 15 -47 14 -19 15 -19 35 -1 31 28 22 93
-11 80 -16 -6 -77 51 -66 62 4 3 -7 12 -25 19 -148 55 -224 105 -212 139 6 14
15 16 51 11 l45 -6 -31 35 c-34 40 -38 57 -16 75 16 13 35 6 35 -14 0 -10 12
-12 43 -9 50 6 79 -15 52 -37 -25 -21 -18 -37 14 -32 19 3 41 18 61 44 44 54
80 69 160 65 59 -2 74 -8 158 -57z"/>
<path d="M2375 2218 c-9 -24 -27 -56 -39 -73 -30 -40 -56 -90 -56 -110 0 -9 9
-15 24 -15 17 0 42 20 85 66 34 37 61 74 61 82 0 18 -41 92 -51 92 -4 0 -14
-19 -24 -42z"/>
<path d="M2750 2150 c0 -12 103 -43 128 -38 9 2 -10 13 -44 26 -67 24 -84 27
-84 12z"/>
</g>
</svg>
