<?xml version="1.0" standalone="no"?>
<!DOCTYPE svg PUBLIC "-//W3C//DTD SVG 20010904//EN"
 "http://www.w3.org/TR/2001/REC-SVG-20010904/DTD/svg10.dtd">
<svg version="1.0" xmlns="http://www.w3.org/2000/svg"
 width="480.000000pt" height="360.000000pt" viewBox="0 0 480.000000 360.000000"
 preserveAspectRatio="xMidYMid meet">
<metadata>
Created by potrace 1.16, written by Peter Selinger 2001-2019
</metadata>
<rect width="1" height="360" fill="#000000"/>
<rect x="479" width="1" height="360" fill="#000000"/>
<rect width="480" height="1" fill="#000000"/>
<rect y="359" width="480" height="1" fill="#000000"/>
<g transform="translate(0.000000,360.000000) scale(0.100000,-0.100000)"
fill="#000000" stroke="none">
<path d="M1486 2879 c-36 -13 -61 -17 -65 -10 -3 5 -18 12 -31 16 -35 8 -80
-37 -63 -64 8 -13 6 -30 -9 -72 -26 -73 -17 -132 31 -191 15 -19 47 -25 36 -8
-3 6 1 10 9 10 22 0 20 -33 -4 -55 -19 -17 -19 -18 25 -74 24 -31 51 -64 60
-73 8 -10 12 -19 8 -20 -5 0 -12 -2 -18 -3 -5 -2 -15 -3 -21 -4 -7 0 -19 -13
-29 -27 -15 -24 -15 -27 0 -51 18 -27 14 -53 -8 -53 -35 0 -177 -195 -177
-243 0 -40 21 -77 52 -93 40 -21 48 -49 38 -135 -9 -74 -49 -171 -80 -196 -12
-9 -12 -16 -4 -30 15 -25 -29 -154 -68 -199 -16 -18 -30 -43 -30 -56 -1 -13
-8 -31 -17 -41 -11 -13 -12 -20 -3 -29 9 -9 18 -6 38 13 l27 24 -18 -28 c-14
-21 -15 -30 -6 -41 9 -11 10 -29 2 -73 -19 -100 -90 -672 -100 -803 -6 -69
-13 -158 -17 -197 l-7 -73 495 0 495 0 -29 157 c-15 87 -40 246 -54 353 -14
107 -34 237 -45 289 -33 149 -108 397 -153 503 -6 13 -3 15 15 11 17 -5 10 8
-34 61 -32 36 -57 69 -57 72 0 3 21 35 46 71 l47 65 -6 144 c-5 139 -5 144 15
155 l21 11 -22 17 -21 16 21 68 21 67 -36 110 c-20 60 -36 113 -36 117 0 4 16
13 35 19 30 9 37 9 45 -5 7 -12 10 -6 16 26 3 24 13 48 20 54 8 6 14 19 14 28
1 14 2 14 11 -1 16 -28 25 -21 39 28 9 33 17 44 28 39 22 -8 9 45 -34 130 -19
40 -32 79 -29 87 6 15 -15 43 -118 157 -49 54 -155 66 -261 30z"/>
<path d="M3172 2135 c-40 -12 -78 -27 -85 -33 -6 -5 -23 -13 -37 -17 -70 -21
-96 -104 -44 -142 18 -13 27 -31 30 -58 5 -40 4 -40 -66 -88 -39 -27 -85 -68
-102 -92 l-31 -44 -36 21 c-20 12 -69 46 -110 75 -77 55 -92 57 -106 12 -6
-18 -8 -18 -28 -4 -27 19 -51 19 -44 1 10 -27 -20 -39 -81 -33 -31 3 -63 7
-71 8 -7 2 -15 -1 -18 -7 -7 -20 77 -65 138 -74 78 -11 82 -15 63 -52 -9 -17
-12 -34 -7 -38 4 -4 39 -13 77 -19 101 -17 267 -82 430 -167 170 -88 182 -99
169 -151 -8 -33 -5 -44 24 -92 18 -30 42 -80 54 -110 20 -54 20 -58 4 -110
-12 -38 -14 -56 -6 -60 7 -5 1 -26 -19 -63 -16 -30 -57 -150 -90 -265 -33
-116 -71 -242 -86 -282 -14 -39 -24 -78 -20 -86 9 -24 104 -62 176 -70 76 -9
87 -16 96 -61 l6 -34 134 0 134 0 11 44 c10 39 15 46 43 51 17 4 55 13 85 21
60 17 59 13 22 116 -19 52 -29 107 -62 353 -6 44 -19 117 -30 162 -10 46 -16
90 -12 99 3 9 -4 57 -15 107 -12 51 -31 144 -42 207 -12 63 -28 125 -36 138
-22 33 -7 47 111 102 126 59 284 106 400 119 70 8 94 15 107 31 9 11 36 27 59
35 24 9 51 23 61 32 22 20 24 53 3 53 -8 0 -15 5 -15 10 0 6 -26 10 -59 10
-63 0 -81 11 -60 36 18 22 2 30 -21 9 -19 -17 -20 -16 -51 9 l-31 26 -37 -22
c-20 -12 -54 -34 -76 -48 -22 -15 -78 -45 -125 -68 -47 -22 -132 -66 -189 -97
l-104 -57 6 41 c3 23 1 44 -4 47 -19 11 -10 63 14 75 91 47 181 147 179 200
-3 97 -143 164 -293 139 -64 -10 -64 -10 -91 20 -24 26 -27 36 -22 73 6 39 3
46 -21 65 -34 27 -60 27 -153 -3z"/>
</g>
</svg>
