<?xml version="1.0" standalone="no"?>
<!DOCTYPE svg PUBLIC "-//W3C//DTD SVG 20010904//EN"
 "http://www.w3.org/TR/2001/REC-SVG-20010904/DTD/svg10.dtd">
<svg version="1.0" xmlns="http://www.w3.org/2000/svg"
 width="480.000000pt" height="360.000000pt" viewBox="0 0 480.000000 360.000000"
 preserveAspectRatio="xMidYMid meet">
<metadata>
Created by potrace 1.16, written by Peter Selinger 2001-2019
</metadata>
<rect width="1" height="360" fill="#000000"/>
<rect x="479" width="1" height="360" fill="#000000"/>
<rect width="480" height="1" fill="#000000"/>
<rect y="359" width="480" height="1" fill="#000000"/>
<g transform="translate(0.000000,360.000000) scale(0.100000,-0.100000)"
fill="#000000" stroke="none">
<path d="M0 1800 l0 -1800 270 0 270 0 5 23 c8 35 33 272 40 377 17 257 15
292 -21 309 -13 6 -24 16 -24 22 0 7 -7 20 -15 29 -13 14 -9 25 31 95 53 92
62 133 70 325 6 126 5 142 -20 231 -29 109 -33 183 -11 236 8 19 15 45 15 57
0 12 9 39 19 60 16 30 18 44 10 64 -8 21 -7 29 7 39 10 7 21 13 26 13 4 0 8
30 8 66 0 70 -13 91 -68 114 -13 6 -22 15 -20 22 2 6 -17 23 -44 36 -69 34
-98 73 -98 131 0 83 26 149 80 201 77 75 132 102 215 108 61 4 79 1 126 -21
54 -26 108 -80 149 -149 28 -48 77 -213 95 -321 9 -51 29 -150 45 -222 16 -71
36 -182 45 -245 8 -63 22 -151 30 -195 17 -100 32 -229 45 -410 6 -77 20 -214
30 -305 27 -227 28 -217 -20 -231 -22 -7 -40 -16 -40 -21 0 -18 65 -308 87
-385 l14 -53 1725 0 1724 0 0 1135 0 1135 -52 -25 c-29 -14 -69 -34 -88 -44
-19 -10 -62 -26 -95 -36 -33 -9 -80 -23 -105 -31 -208 -62 -468 -54 -720 23
-30 9 -62 20 -70 24 -288 140 -389 220 -573 451 -99 124 -184 330 -221 533
-25 136 -27 162 -21 292 l7 143 -1431 0 -1431 0 0 -1800z"/>
</g>
</svg>
