<?xml version="1.0" standalone="no"?>
<!DOCTYPE svg PUBLIC "-//W3C//DTD SVG 20010904//EN"
 "http://www.w3.org/TR/2001/REC-SVG-20010904/DTD/svg10.dtd">
<svg version="1.0" xmlns="http://www.w3.org/2000/svg"
 width="480.000000pt" height="360.000000pt" viewBox="0 0 480.000000 360.000000"
 preserveAspectRatio="xMidYMid meet">
<metadata>
Created by potrace 1.16, written by Peter Selinger 2001-2019
</metadata>
<rect width="1" height="360" fill="#000000"/>
<rect x="479" width="1" height="360" fill="#000000"/>
<rect width="480" height="1" fill="#000000"/>
<rect y="359" width="480" height="1" fill="#000000"/>
<g transform="translate(0.000000,360.000000) scale(0.100000,-0.100000)"
fill="#000000" stroke="none">
<path d="M2361 1889 c-50 -20 -80 -51 -99 -102 -26 -69 -32 -122 -13 -122 9 0
14 -12 15 -35 1 -27 -5 -41 -26 -58 -40 -34 -43 -56 -15 -105 13 -23 22 -47
20 -54 -2 -6 2 -22 10 -35 26 -41 28 -84 6 -112 -11 -14 -38 -63 -60 -108 -22
-46 -55 -108 -75 -139 -41 -66 -67 -182 -53 -232 20 -68 64 -130 119 -168 30
-21 67 -40 82 -43 27 -5 28 -8 28 -64 0 -53 3 -61 32 -87 45 -40 109 -75 138
-75 49 1 63 23 64 99 1 66 -1 72 -33 105 l-34 35 29 11 c104 38 112 47 126
138 8 57 7 90 -6 167 -9 53 -23 114 -30 136 l-14 39 52 27 c46 25 51 32 54 66
2 24 -3 48 -14 65 -10 15 -17 42 -16 63 2 20 -5 62 -14 95 -9 32 -17 69 -16
82 0 18 -5 22 -33 22 -18 0 -38 -7 -45 -15 -22 -26 -26 -17 -29 61 -1 42 -7
84 -13 94 -10 15 -7 22 18 43 25 22 29 32 28 72 -1 55 -24 91 -80 122 -42 24
-66 27 -103 12z"/>
<path d="M2281 524 c0 -11 3 -14 6 -6 3 7 2 16 -1 19 -3 4 -6 -2 -5 -13z"/>
</g>
</svg>
