<?xml version="1.0" standalone="no"?>
<!DOCTYPE svg PUBLIC "-//W3C//DTD SVG 20010904//EN"
 "http://www.w3.org/TR/2001/REC-SVG-20010904/DTD/svg10.dtd">
<svg version="1.0" xmlns="http://www.w3.org/2000/svg"
 width="480.000000pt" height="360.000000pt" viewBox="0 0 480.000000 360.000000"
 preserveAspectRatio="xMidYMid meet">
<metadata>
Created by potrace 1.16, written by Peter Selinger 2001-2019
</metadata>
<rect width="1" height="360" fill="#000000"/>
<rect x="479" width="1" height="360" fill="#000000"/>
<rect width="480" height="1" fill="#000000"/>
<rect y="359" width="480" height="1" fill="#000000"/>
<g transform="translate(0.000000,360.000000) scale(0.100000,-0.100000)"
fill="#000000" stroke="none">
<path d="M1598 3568 c11 -56 7 -319 -7 -398 -25 -150 -130 -411 -199 -499 -15
-18 -31 -41 -37 -50 -35 -59 -252 -272 -294 -289 -7 -3 -23 -14 -36 -26 -47
-44 -212 -117 -380 -169 -130 -40 -323 -53 -485 -33 -63 8 -125 18 -138 22
l-22 6 0 -1066 0 -1066 1323 0 1323 0 29 153 c18 94 47 205 78 292 118 339
113 318 207 800 28 139 30 166 21 215 -5 30 -13 83 -17 118 -6 60 -8 64 -44
82 -61 31 -83 66 -77 123 2 26 2 47 0 47 -2 0 -22 -13 -45 -30 -52 -38 -72
-38 -100 0 l-22 30 -23 -22 c-24 -22 -33 -19 -46 16 -2 5 -33 3 -71 -4 -85
-16 -181 -9 -336 25 -111 25 -265 36 -289 21 -16 -10 -14 -26 3 -26 30 0 25
-18 -10 -35 -32 -15 -37 -15 -59 -1 -64 42 -63 111 0 155 35 24 37 24 218 17
100 -4 235 -11 300 -17 106 -9 122 -8 155 8 27 13 38 25 40 44 3 23 8 27 35
25 24 -1 32 4 35 19 7 36 21 40 130 40 99 0 112 2 172 31 36 17 78 34 93 38
25 6 27 9 16 22 -11 13 -10 18 4 25 24 14 22 32 -2 19 -32 -17 -43 -12 -104
44 -53 49 -57 57 -47 76 14 27 10 31 -32 33 -33 2 -88 44 -88 67 0 6 -4 9 -9
6 -19 -12 -22 54 -5 113 l16 60 -51 57 c-60 65 -73 100 -45 121 19 15 14 15
402 -3 141 -6 222 -63 286 -198 13 -28 27 -67 31 -87 4 -20 27 -63 51 -95 66
-89 78 -133 79 -309 1 -129 6 -165 29 -255 21 -79 26 -117 22 -155 -20 -157
-23 -279 -9 -324 9 -29 13 -86 12 -156 -1 -60 3 -142 10 -182 6 -40 8 -92 5
-116 -9 -64 42 -212 179 -517 36 -80 84 -205 108 -277 l44 -133 438 0 437 0 0
1800 0 1800 -1604 0 -1604 0 6 -32z"/>
</g>
</svg>
