<?xml version="1.0" standalone="no"?>
<!DOCTYPE svg PUBLIC "-//W3C//DTD SVG 20010904//EN"
 "http://www.w3.org/TR/2001/REC-SVG-20010904/DTD/svg10.dtd">
<svg version="1.0" xmlns="http://www.w3.org/2000/svg"
 width="480.000000pt" height="360.000000pt" viewBox="0 0 480.000000 360.000000"
 preserveAspectRatio="xMidYMid meet">
<metadata>
Created by potrace 1.16, written by Peter Selinger 2001-2019
</metadata>
<rect width="1" height="360" fill="#000000"/>
<rect x="479" width="1" height="360" fill="#000000"/>
<rect width="480" height="1" fill="#000000"/>
<rect y="359" width="480" height="1" fill="#000000"/>
<g transform="translate(0.000000,360.000000) scale(0.100000,-0.100000)"
fill="#000000" stroke="none">
<path d="M0 2785 l0 -815 858 0 c999 0 902 -12 902 111 0 62 -6 86 -35 155
-22 52 -38 106 -41 146 -5 56 -3 67 19 99 22 33 24 44 20 115 -7 141 -3 129
-48 126 -34 -3 -45 2 -69 27 l-29 30 34 30 c40 37 51 38 90 10 l29 -20 2 53
c0 29 0 64 -1 77 -2 25 24 61 44 61 18 0 4 73 -68 357 l-63 248 -822 3 -822 2
0 -815z"/>
<path d="M1725 3580 c10 -31 106 -381 115 -419 5 -18 18 -59 30 -91 18 -47 27
-59 48 -63 35 -7 42 -1 42 33 0 40 65 86 107 75 44 -10 72 -33 88 -71 13 -33
16 -34 31 -20 25 25 70 20 106 -13 32 -29 33 -30 34 -123 1 -52 6 -110 12
-129 21 -70 23 -89 8 -83 -26 10 -24 -33 4 -85 l28 -50 -29 15 -29 15 19 -43
c10 -24 29 -67 42 -96 25 -57 59 -88 59 -54 0 29 38 72 64 72 13 0 54 -22 92
-49 150 -106 273 -241 334 -368 l30 -63 920 0 920 0 0 815 0 815 -1541 0
c-1531 0 -1540 0 -1534 -20z"/>
<path d="M2254 2168 c4 -35 7 -82 9 -105 1 -28 10 -50 26 -67 22 -24 31 -26
104 -26 69 0 81 3 98 23 38 46 26 71 -70 150 -90 75 -110 87 -146 87 -27 0
-27 0 -21 -62z"/>
<path d="M0 950 l0 -950 2400 0 2400 0 0 950 0 950 -907 -2 -908 -3 -3 -27
c-2 -16 -8 -28 -13 -28 -5 0 -9 -9 -9 -20 0 -33 -17 -27 -116 42 -22 15 -54
30 -71 34 -28 5 -34 3 -44 -18 -12 -27 -66 -58 -99 -58 -11 0 -29 -6 -40 -12
-27 -17 -48 -3 -78 50 -23 41 -25 42 -78 42 -30 0 -54 -3 -54 -6 0 -3 16 -22
35 -42 20 -20 51 -68 70 -106 29 -57 35 -80 35 -132 0 -35 -4 -64 -9 -64 -4 0
-16 20 -25 45 -17 45 -43 75 -33 39 3 -11 9 -35 13 -54 6 -31 5 -33 -10 -21
-14 11 -16 11 -16 -3 0 -9 35 -54 79 -100 111 -119 131 -186 91 -305 -30 -91
-88 -180 -163 -253 -56 -55 -67 -70 -59 -85 35 -67 17 -159 -37 -187 -41 -22
-114 -21 -132 2 -25 31 -39 61 -39 86 0 33 -13 40 -53 27 -17 -5 -65 -15 -104
-21 l-73 -12 15 -29 c9 -16 20 -66 25 -111 6 -46 17 -134 26 -195 16 -105 16
-116 0 -157 -26 -67 -90 -82 -144 -32 -61 55 -78 154 -55 321 11 81 5 167 -14
186 -5 5 -63 14 -129 19 -145 12 -250 44 -324 100 -103 77 -150 184 -150 343
0 229 78 364 264 455 47 23 96 44 110 48 14 3 30 12 36 19 18 22 98 209 93
218 -2 4 -386 7 -854 7 l-849 0 0 -950z"/>
</g>
</svg>
