<?xml version="1.0" standalone="no"?>
<!DOCTYPE svg PUBLIC "-//W3C//DTD SVG 20010904//EN"
 "http://www.w3.org/TR/2001/REC-SVG-20010904/DTD/svg10.dtd">
<svg version="1.0" xmlns="http://www.w3.org/2000/svg"
 width="480.000000pt" height="360.000000pt" viewBox="0 0 480.000000 360.000000"
 preserveAspectRatio="xMidYMid meet">
<metadata>
Created by potrace 1.16, written by Peter Selinger 2001-2019
</metadata>
<rect width="1" height="360" fill="#000000"/>
<rect x="479" width="1" height="360" fill="#000000"/>
<rect width="480" height="1" fill="#000000"/>
<rect y="359" width="480" height="1" fill="#000000"/>
<g transform="translate(0.000000,360.000000) scale(0.100000,-0.100000)"
fill="#000000" stroke="none">
<path d="M0 1800 l0 -1800 874 0 873 0 7 52 c12 87 114 432 168 566 43 106 49
128 39 149 -6 13 -11 37 -11 53 0 33 -28 110 -40 110 -4 0 -12 -17 -18 -37 -5
-21 -10 -30 -11 -20 -1 24 -21 22 -21 -3 0 -25 -16 -26 -28 -2 -10 20 -28 129
-37 225 -5 46 -11 67 -20 67 -7 0 -73 24 -147 54 -73 30 -167 62 -208 71 -153
35 -152 35 -163 65 -6 17 -21 31 -34 35 -16 4 -23 13 -23 29 0 22 -4 23 -92
29 -153 9 -281 51 -350 115 l-28 26 22 23 21 23 33 -25 c39 -30 44 -31 38 -7
-4 15 4 17 77 19 45 2 84 5 87 8 8 7 -29 45 -44 45 -19 0 -37 37 -23 46 7 4
-4 20 -29 43 l-41 37 1 125 c1 68 5 130 11 136 5 7 7 27 4 45 -3 19 3 57 13
88 10 30 20 69 22 85 3 27 7 30 36 30 35 0 52 17 52 50 0 12 9 38 20 60 15 30
20 59 20 121 0 89 8 144 21 144 11 0 29 -97 27 -146 -1 -24 4 -49 11 -58 13
-15 16 -13 38 24 27 45 34 44 57 -2 19 -36 20 -101 5 -182 -10 -58 -3 -86 25
-86 13 1 47 68 61 125 6 22 15 40 20 39 6 0 19 -16 30 -35 28 -48 34 -234 10
-299 -9 -25 -20 -80 -24 -122 -8 -74 -10 -80 -54 -127 -28 -29 -50 -65 -57
-90 -9 -35 -18 -45 -55 -62 -25 -12 -45 -23 -45 -24 0 -2 30 -20 67 -39 l67
-36 23 22 c20 19 24 19 45 6 17 -10 30 -12 49 -5 23 9 39 4 103 -32 69 -38
238 -111 256 -111 4 0 10 12 13 28 4 15 13 50 22 77 16 55 10 50 -40 -32 -26
-42 -30 -45 -33 -25 -7 42 38 163 125 336 l85 170 28 235 c43 360 60 444 117
583 29 72 51 107 101 159 l34 37 -66 -5 c-60 -5 -69 -4 -92 18 -22 20 -25 30
-20 62 4 21 18 66 31 100 29 71 123 224 142 232 8 2 38 -6 68 -19 30 -14 62
-22 72 -20 24 6 84 -35 177 -122 72 -67 79 -72 132 -77 44 -5 73 -1 128 18 73
24 166 36 211 28 34 -7 33 -27 -11 -201 l-36 -143 26 -58 c45 -101 31 -215
-38 -310 -20 -27 -36 -53 -36 -58 0 -5 -7 -18 -16 -29 -14 -18 -15 -16 -9 24
7 54 -8 53 -38 -3 -28 -51 -29 -52 -34 -37 -8 22 -21 13 -42 -31 -27 -56 -32
-230 -6 -221 8 4 26 3 40 0 20 -5 25 -12 25 -40 0 -27 11 -45 58 -94 65 -66
185 -232 208 -287 18 -44 18 -95 0 -120 -12 -18 -12 -38 1 -140 8 -66 19 -124
24 -129 13 -14 232 -54 336 -62 79 -6 95 -10 114 -30 12 -13 30 -24 40 -24 10
0 25 -7 34 -16 14 -15 19 -15 58 1 34 14 59 16 130 10 48 -3 102 -11 119 -16
21 -6 36 -5 45 2 16 14 28 -11 20 -41 -7 -28 18 -26 45 5 27 31 37 31 67 0 23
-25 23 -26 5 -47 -39 -43 -163 -80 -315 -94 -57 -5 -89 -2 -131 10 -70 20 -66
20 -70 -6 -3 -19 -8 -23 -37 -20 -21 1 -41 -4 -53 -14 -17 -16 -24 -15 -126
19 -59 20 -178 49 -265 65 -202 37 -213 46 -277 237 l-27 80 -32 -132 c-17
-75 -29 -143 -25 -157 3 -13 17 -35 31 -47 24 -23 24 -27 18 -116 -8 -106 -2
-129 81 -319 66 -150 176 -456 201 -557 l18 -77 858 0 857 0 0 1800 0 1800
-2400 0 -2400 0 0 -1800z"/>
<path d="M2641 2204 c0 -11 3 -14 6 -6 3 7 2 16 -1 19 -3 4 -6 -2 -5 -13z"/>
<path d="M1262 2118 c-16 -16 -16 -98 1 -98 22 0 37 16 46 47 14 48 -16 82
-47 51z"/>
<path d="M3865 1140 c-3 -5 1 -10 9 -10 9 0 16 5 16 10 0 6 -4 10 -9 10 -6 0
-13 -4 -16 -10z"/>
</g>
</svg>
