<?xml version="1.0" standalone="no"?>
<!DOCTYPE svg PUBLIC "-//W3C//DTD SVG 20010904//EN"
 "http://www.w3.org/TR/2001/REC-SVG-20010904/DTD/svg10.dtd">
<svg version="1.0" xmlns="http://www.w3.org/2000/svg"
 width="480.000000pt" height="360.000000pt" viewBox="0 0 480.000000 360.000000"
 preserveAspectRatio="xMidYMid meet">
<metadata>
Created by potrace 1.16, written by Peter Selinger 2001-2019
</metadata>
<rect width="1" height="360" fill="#000000"/>
<rect x="479" width="1" height="360" fill="#000000"/>
<rect width="480" height="1" fill="#000000"/>
<rect y="359" width="480" height="1" fill="#000000"/>
<g transform="translate(0.000000,360.000000) scale(0.100000,-0.100000)"
fill="#000000" stroke="none">
<path d="M3220 2999 c-106 -16 -205 -80 -266 -175 -12 -18 -18 -47 -19 -87 0
-65 -2 -68 -70 -86 -128 -34 -165 -47 -165 -56 0 -6 29 -30 65 -53 61 -39 65
-43 54 -64 -16 -30 -4 -149 20 -196 21 -41 67 -86 98 -96 11 -4 31 -18 44 -32
l24 -26 -37 -34 -37 -34 34 -27 c19 -16 35 -35 35 -44 0 -9 7 -22 15 -29 7 -6
28 -36 45 -66 17 -30 38 -58 48 -61 9 -3 29 -14 43 -24 18 -12 40 -17 72 -15
35 3 47 0 47 -10 0 -8 6 -14 14 -14 19 0 30 -35 17 -57 -5 -10 -19 -27 -30
-37 -20 -18 -22 -18 -98 2 -105 27 -240 52 -284 52 -27 0 -44 -8 -65 -29 -28
-28 -32 -29 -169 -35 -186 -10 -178 -11 -248 28 -34 18 -116 62 -182 96 -66
35 -152 82 -191 106 -39 24 -95 53 -124 64 -82 32 -190 99 -245 151 -27 26
-75 59 -106 73 -56 26 -95 34 -85 17 12 -20 -23 -33 -55 -22 -18 6 -60 11 -94
11 -59 0 -63 -2 -69 -26 -9 -35 1 -62 25 -69 18 -6 15 -10 -20 -27 -23 -11
-41 -25 -41 -32 1 -21 27 -46 50 -46 20 0 22 -4 17 -33 -8 -54 1 -60 67 -43
76 20 92 13 55 -24 -28 -27 -39 -70 -19 -70 5 0 25 11 44 24 30 20 42 23 73
16 40 -9 232 -101 233 -111 1 -25 82 -83 180 -131 119 -58 229 -123 363 -214
42 -29 94 -58 115 -63 73 -19 315 -32 527 -30 129 2 219 -1 225 -7 5 -5 12
-75 16 -154 4 -109 11 -163 29 -220 21 -69 22 -81 11 -145 l-12 -70 -75 -18
c-153 -37 -373 -80 -494 -96 -52 -7 -90 -19 -109 -32 -38 -28 -71 -27 -104 4
-68 64 -247 64 -317 0 -11 -10 -32 -24 -46 -31 -25 -13 -26 -18 -25 -81 2 -37
6 -74 11 -82 5 -7 8 -26 7 -40 -2 -14 4 -31 13 -39 8 -7 18 -30 21 -52 5 -26
15 -45 30 -55 18 -11 22 -21 18 -39 -10 -41 11 -54 86 -54 67 0 198 28 255 54
114 53 139 57 157 22 l13 -23 150 42 c83 24 247 62 365 84 227 44 281 58 291
74 4 5 15 -2 24 -17 15 -23 17 -41 12 -114 -4 -48 -15 -116 -26 -151 -11 -36
-19 -66 -17 -68 1 -2 266 -2 587 -1 l584 3 -122 125 c-67 69 -152 150 -187
180 -36 30 -65 59 -65 64 -1 6 4 5 11 -2 17 -17 26 -15 33 8 5 16 15 20 48 20
142 0 318 43 418 103 l54 32 3 381 2 380 -30 29 c-16 16 -30 36 -30 44 0 32
-45 87 -172 213 -76 74 -142 131 -157 134 -14 3 -34 8 -44 11 -10 3 -62 48
-115 100 -54 52 -114 103 -134 114 -45 23 -61 44 -27 35 18 -4 17 -2 -5 8
l-29 13 46 7 c32 5 56 2 83 -9 46 -19 51 -15 19 15 -30 28 -31 37 -7 42 12 2
7 10 -22 28 -39 24 -36 41 3 20 12 -6 21 -8 21 -5 0 3 -48 60 -107 126 -60 67
-121 137 -137 156 l-29 34 17 51 c9 28 16 65 16 83 0 83 -78 226 -165 303 -57
50 -129 84 -247 117 -78 22 -230 47 -263 44 -5 -1 -35 -5 -65 -10z"/>
</g>
</svg>
