<?xml version="1.0" standalone="no"?>
<!DOCTYPE svg PUBLIC "-//W3C//DTD SVG 20010904//EN"
 "http://www.w3.org/TR/2001/REC-SVG-20010904/DTD/svg10.dtd">
<svg version="1.0" xmlns="http://www.w3.org/2000/svg"
 width="480.000000pt" height="360.000000pt" viewBox="0 0 480.000000 360.000000"
 preserveAspectRatio="xMidYMid meet">
<metadata>
Created by potrace 1.16, written by Peter Selinger 2001-2019
</metadata>
<rect width="1" height="360" fill="#000000"/>
<rect x="479" width="1" height="360" fill="#000000"/>
<rect width="480" height="1" fill="#000000"/>
<rect y="359" width="480" height="1" fill="#000000"/>
<g transform="translate(0.000000,360.000000) scale(0.100000,-0.100000)"
fill="#000000" stroke="none">
<path d="M0 1800 l0 -1800 890 0 890 0 0 23 c0 12 7 35 15 51 12 23 16 72 19
215 2 170 5 192 28 258 26 73 27 113 2 134 -11 9 -14 41 -14 128 0 93 5 135
26 211 77 286 94 353 91 357 -2 2 -51 -3 -108 -12 -88 -13 -107 -19 -126 -41
-27 -29 -29 -49 -8 -58 33 -12 7 -33 -52 -42 -25 -3 -53 28 -53 61 -1 15 -4
11 -15 -12 -20 -47 -29 -41 -21 13 l6 47 -96 -7 c-53 -4 -101 -9 -105 -12 -5
-3 -10 -22 -10 -42 l-2 -37 -6 40 -6 40 -67 5 c-57 4 -72 9 -95 32 -17 18 -24
31 -18 37 6 5 59 14 119 19 97 8 111 12 127 33 12 16 15 29 8 40 -14 27 15 45
47 30 35 -16 30 -55 -8 -59 -16 -2 -28 -7 -28 -12 0 -16 55 -19 130 -7 71 11
77 14 121 62 79 86 83 80 -106 176 -91 46 -165 86 -165 90 0 20 14 39 28 39 9
0 88 -36 175 -81 87 -44 160 -79 161 -77 2 1 25 44 51 93 26 50 61 114 76 144
24 45 29 66 29 127 0 69 2 74 38 121 53 66 172 169 215 186 19 7 19 9 -8 37
-15 15 -33 26 -41 23 -8 -3 -18 6 -26 24 -22 51 -41 75 -48 63 -4 -7 -17 6
-34 33 -35 61 -36 141 -2 195 80 125 223 188 336 149 28 -10 44 -10 80 1 63
19 155 10 224 -21 60 -28 76 -49 58 -78 -7 -11 -8 -20 -2 -24 18 -11 10 -47
-18 -84 -16 -20 -39 -53 -51 -74 -13 -20 -32 -42 -44 -49 -21 -11 -20 -11 9
-34 16 -13 23 -24 15 -24 -11 0 -11 -3 0 -16 11 -13 9 -14 -16 -8 -25 6 -28 5
-22 -15 3 -13 1 -19 -5 -15 -6 4 -14 1 -18 -6 -5 -8 -22 -13 -40 -13 -23 0
-29 -4 -25 -15 4 -11 -1 -13 -21 -8 -17 5 -23 3 -19 -4 8 -13 -11 -13 -38 1
-22 12 -22 12 -4 -9 18 -20 18 -21 -10 -24 -23 -2 -16 -7 42 -26 73 -25 182
-84 233 -127 17 -14 34 -40 38 -57 14 -64 43 -115 106 -183 35 -38 92 -107
127 -152 35 -46 68 -83 73 -83 15 0 128 -112 128 -127 0 -11 5 -10 26 3 32 22
47 8 48 -45 1 -45 -9 -35 516 -466 107 -88 209 -172 225 -186 17 -15 158 -133
315 -264 415 -346 497 -422 472 -447 -11 -11 -103 57 -263 195 -53 45 -152
129 -219 187 -132 113 -196 167 -421 357 -243 205 -429 361 -548 461 l-114 96
-30 -17 c-33 -20 -57 -9 -57 25 0 15 -5 18 -20 13 -12 -4 -20 -2 -20 5 0 6
-12 15 -26 20 -19 7 -24 15 -19 29 4 13 0 20 -15 24 -12 3 -18 11 -15 19 5 12
-150 166 -263 262 -31 27 -35 17 -10 -32 11 -24 18 -45 15 -49 -18 -17 -172
139 -182 185 -3 16 -17 40 -31 52 l-24 23 0 -44 c-1 -24 -7 -73 -15 -109 -8
-36 -14 -90 -15 -120 0 -43 -5 -59 -20 -73 -23 -19 -26 -46 -7 -69 11 -15 18
-15 77 -3 328 72 364 77 376 60 16 -22 27 -86 17 -96 -7 -7 -381 -79 -409 -79
-14 0 55 -108 96 -150 40 -40 62 -52 188 -98 178 -65 209 -72 269 -61 26 5 53
7 59 5 21 -8 22 -79 2 -156 -18 -71 -24 -82 -58 -121 -8 -9 -23 -29 -33 -43
-9 -14 -33 -33 -52 -42 -19 -8 -45 -30 -59 -48 -14 -18 -50 -46 -81 -61 -31
-16 -58 -33 -61 -37 -3 -4 -15 -8 -28 -8 -13 0 -42 -14 -66 -31 -23 -17 -58
-33 -77 -36 -39 -7 -38 -2 -8 -108 10 -39 18 -115 22 -215 4 -125 9 -166 27
-212 l21 -58 1068 0 1067 0 0 1800 0 1800 -2400 0 -2400 0 0 -1800z m3859
1680 c20 -6 60 -36 101 -77 70 -72 100 -132 100 -200 0 -45 -23 -99 -49 -112
-11 -6 -25 -28 -30 -49 -13 -48 -73 -107 -130 -127 -57 -20 -150 -19 -203 1
-86 34 -171 142 -177 227 -1 21 3 61 9 88 7 28 10 52 8 54 -2 2 -62 -2 -133
-10 -153 -17 -344 -19 -414 -4 -96 20 -176 95 -196 184 -7 29 -6 28 25 -13 83
-109 202 -116 590 -30 154 34 391 76 435 77 17 1 45 -3 64 -9z m-1155 -106 c0
-22 -3 -48 -7 -58 -11 -27 -45 -2 -53 39 -7 41 9 67 40 63 18 -3 21 -10 20
-44z m1360 -390 c9 -3 16 -12 16 -20 0 -14 -60 -64 -78 -64 -32 0 8 89 40 90
3 0 13 -3 22 -6z m-1034 -294 c0 -5 -7 -10 -15 -10 -8 0 -15 5 -15 10 0 6 7
10 15 10 8 0 15 -4 15 -10z m-2215 -407 c60 -69 67 -81 52 -105 -11 -18 -12
-40 -6 -98 18 -174 24 -196 78 -270 28 -38 51 -73 51 -77 -1 -12 -49 -44 -78
-52 l-27 -8 3 -174 c2 -120 8 -192 19 -232 20 -71 10 -87 -38 -63 -42 21 -46
20 -53 -10 -9 -35 26 -84 62 -84 19 0 23 -3 15 -11 -10 -10 -144 -35 -447 -84
-77 -12 -190 -18 -318 -16 -26 1 -38 6 -38 15 0 22 131 58 245 68 124 10 282
31 288 38 2 3 7 17 11 32 5 24 3 27 -34 33 -22 4 -42 11 -46 16 -3 5 4 35 16
66 21 56 55 258 45 273 -2 4 -18 10 -35 13 -35 7 -39 30 -14 78 20 39 15 73
-11 77 -54 10 -85 80 -45 102 11 6 20 16 20 23 0 7 13 31 28 53 16 21 43 64
60 96 27 50 29 58 16 69 -10 8 -13 21 -8 38 3 14 8 57 10 96 2 61 6 73 29 92
34 30 126 33 150 6z m2185 -118 c0 -20 -71 -84 -87 -78 -38 15 11 93 58 93 19
0 29 -5 29 -15z m242 -223 c24 -24 -98 -44 -132 -22 -13 9 -12 13 5 26 23 18
108 15 127 -4z m1018 -78 c0 -9 -7 -14 -17 -12 -25 5 -28 28 -4 28 12 0 21 -6
21 -16z"/>
<path d="M722 1188 c-7 -7 -12 -27 -12 -46 0 -26 4 -33 18 -30 12 2 18 15 20
46 3 43 -4 52 -26 30z"/>
<path d="M2064 1878 c-21 -12 -45 -43 -69 -91 -21 -40 -48 -85 -60 -102 -12
-16 -22 -44 -23 -61 0 -27 5 -33 44 -52 24 -12 50 -22 56 -22 14 0 37 31 38
51 0 9 7 22 15 29 25 20 18 47 -15 59 -35 12 -36 14 -11 55 23 37 63 136 59
146 -2 3 -17 -2 -34 -12z"/>
<path d="M1860 1495 c-11 -13 -8 -15 18 -15 17 0 34 5 37 10 3 6 2 10 -4 10
-5 0 -16 2 -24 5 -7 3 -20 -1 -27 -10z"/>
<path d="M1783 1485 c-7 -21 -2 -25 25 -18 18 4 20 8 11 19 -15 18 -28 18 -36
-1z"/>
<path d="M2005 541 c-2 -5 -19 -98 -36 -207 -17 -109 -33 -202 -36 -207 -3 -4
-2 -35 2 -68 l7 -59 279 0 279 0 2 43 c2 56 4 43 -45 282 -39 193 -44 210 -62
207 -69 -10 -172 -23 -185 -23 -18 0 -169 29 -187 35 -7 3 -15 1 -18 -3z"/>
</g>
</svg>
