<?xml version="1.0" standalone="no"?>
<!DOCTYPE svg PUBLIC "-//W3C//DTD SVG 20010904//EN"
 "http://www.w3.org/TR/2001/REC-SVG-20010904/DTD/svg10.dtd">
<svg version="1.0" xmlns="http://www.w3.org/2000/svg"
 width="480.000000pt" height="360.000000pt" viewBox="0 0 480.000000 360.000000"
 preserveAspectRatio="xMidYMid meet">
<metadata>
Created by potrace 1.16, written by Peter Selinger 2001-2019
</metadata>
<rect width="1" height="360" fill="#000000"/>
<rect x="479" width="1" height="360" fill="#000000"/>
<rect width="480" height="1" fill="#000000"/>
<rect y="359" width="480" height="1" fill="#000000"/>
<g transform="translate(0.000000,360.000000) scale(0.100000,-0.100000)"
fill="#000000" stroke="none">
<path d="M0 1800 l0 -1800 903 0 902 0 30 47 c16 26 53 77 82 113 29 36 53 69
53 74 0 5 -40 50 -88 100 -101 104 -127 145 -147 228 l-13 59 24 10 c36 13 93
11 201 -7 52 -9 96 -14 99 -11 11 10 -62 346 -87 401 -8 16 -23 26 -45 31 -22
4 -54 25 -93 63 -77 74 -92 120 -92 288 0 254 86 394 244 394 25 0 27 3 27 40
0 45 -11 51 -35 18 -17 -23 -17 -23 -10 7 22 91 12 245 -16 245 -7 0 -8 14 -4
39 5 30 1 51 -16 88 l-23 48 -4 -37 c-2 -23 3 -47 12 -60 28 -40 17 -40 -28
-1 -25 22 -64 45 -87 52 -76 23 -135 86 -153 164 -4 18 -12 27 -20 24 -14 -5
-14 -6 -3 123 2 25 11 61 20 80 9 19 30 74 46 122 l29 87 -34 20 c-19 11 -34
27 -34 35 0 8 18 37 39 64 39 49 39 49 22 78 -10 16 -29 35 -42 42 -14 7 -31
22 -37 33 -12 18 -9 22 32 39 71 32 103 35 127 14 17 -15 22 -16 29 -4 5 8 6
34 3 57 -3 24 -2 43 4 43 5 0 24 -16 43 -35 19 -19 40 -35 47 -35 7 0 28 14
46 30 40 35 62 38 76 11 6 -10 23 -22 38 -26 53 -13 198 -36 293 -46 147 -14
236 -49 353 -138 84 -63 118 -101 167 -183 49 -82 78 -195 85 -338 10 -186 11
-187 62 -223 l45 -32 -41 -8 -40 -8 16 -52 c8 -29 19 -60 24 -69 15 -28 11
-42 -7 -27 -15 12 -16 10 -10 -19 10 -42 1 -41 -24 6 -19 34 -21 28 -3 -14 4
-12 2 -15 -8 -12 -26 9 -39 -18 -33 -69 l6 -48 -21 30 c-11 17 -21 35 -21 42
0 6 -5 15 -12 19 -8 5 -9 -6 -5 -40 9 -63 -5 -51 -28 25 -18 59 -19 61 -27 33
-5 -16 -6 -55 -3 -87 7 -63 -3 -69 -25 -17 -16 39 -31 39 -23 -1 6 -30 5 -30
-16 -18 -11 8 -21 19 -21 26 0 6 -5 15 -11 19 -8 5 -9 -5 -4 -34 8 -50 0 -68
-23 -50 -15 12 -16 11 -2 -6 13 -16 24 -17 105 -11 87 6 91 6 113 -18 15 -16
40 -27 67 -32 25 -3 66 -21 92 -39 53 -35 145 -76 174 -76 15 0 19 -8 19 -39
0 -39 15 -55 43 -47 6 3 25 7 40 11 27 5 28 4 23 -22 -6 -25 -2 -31 28 -47 19
-10 37 -25 41 -34 3 -8 -6 -47 -19 -86 -14 -39 -26 -84 -28 -101 -3 -27 -7
-30 -48 -35 -40 -4 -45 -8 -50 -35 -9 -42 -29 -76 -58 -99 -22 -18 -24 -24
-18 -77 5 -52 3 -61 -20 -88 -28 -33 -27 -57 2 -158 12 -42 20 -52 42 -58 48
-12 61 -31 50 -73 -6 -20 -18 -54 -28 -75 -18 -37 -18 -38 4 -65 37 -43 58
-92 52 -117 -6 -22 -3 -24 58 -30 89 -10 93 -14 72 -68 -25 -66 -70 -130 -163
-229 -46 -49 -83 -93 -83 -99 0 -5 299 -9 790 -9 l790 0 0 1800 0 1800 -2400
0 -2400 0 0 -1800z"/>
<path d="M2040 1938 c0 -60 10 -108 23 -108 13 0 3 128 -12 143 -8 8 -11 -1
-11 -35z"/>
<path d="M2101 1869 c-6 -18 -11 -36 -11 -40 0 -10 94 -10 130 0 22 6 58 56
48 66 -7 8 -93 -26 -104 -41 -10 -12 -14 -10 -22 16 -14 39 -27 38 -41 -1z"/>
</g>
</svg>
