<?xml version="1.0" standalone="no"?>
<!DOCTYPE svg PUBLIC "-//W3C//DTD SVG 20010904//EN"
 "http://www.w3.org/TR/2001/REC-SVG-20010904/DTD/svg10.dtd">
<svg version="1.0" xmlns="http://www.w3.org/2000/svg"
 width="480.000000pt" height="360.000000pt" viewBox="0 0 480.000000 360.000000"
 preserveAspectRatio="xMidYMid meet">
<metadata>
Created by potrace 1.16, written by Peter Selinger 2001-2019
</metadata>
<rect width="1" height="360" fill="#000000"/>
<rect x="479" width="1" height="360" fill="#000000"/>
<rect width="480" height="1" fill="#000000"/>
<rect y="359" width="480" height="1" fill="#000000"/>
<g transform="translate(0.000000,360.000000) scale(0.100000,-0.100000)"
fill="#000000" stroke="none">
<path d="M0 1800 l0 -1800 1400 0 c770 0 1400 3 1400 6 0 4 -9 22 -20 40 -26
42 -37 142 -44 423 -7 233 -22 399 -38 419 -15 18 -100 40 -203 52 -49 6 -105
15 -123 20 -65 17 -235 176 -245 228 -3 16 -9 62 -13 103 l-6 74 41 53 c23 28
48 52 55 52 14 0 66 61 66 77 0 4 -9 19 -20 33 -11 14 -20 28 -20 33 0 16 26
5 46 -20 l22 -28 49 46 c26 25 57 50 67 56 16 9 16 13 5 31 -12 19 -10 25 18
54 27 29 53 69 53 81 0 7 -91 44 -127 52 -37 7 -43 -4 -16 -31 17 -17 16 -17
-12 -9 -17 4 -40 9 -53 10 -12 1 -34 12 -48 26 l-27 24 7 -27 c9 -40 -17 -26
-55 29 -30 43 -71 69 -90 57 -15 -9 -152 36 -169 56 -18 21 -155 64 -183 56
-11 -3 -29 0 -39 5 -10 6 -31 12 -46 14 -48 6 -176 57 -205 81 -16 13 -33 24
-38 24 -5 0 -9 6 -9 14 0 10 -14 14 -50 14 -68 0 -146 30 -181 69 -25 30 -31
32 -54 21 -17 -7 -32 -8 -46 -2 -21 10 -20 12 22 44 64 49 68 53 38 46 -19 -4
-37 1 -62 18 -19 13 -43 26 -54 28 -13 3 -4 11 31 29 26 13 49 29 49 34 0 6
-17 19 -39 30 l-39 19 44 8 c24 4 45 9 48 11 2 2 -6 24 -17 48 -24 54 -24 69
-3 180 23 119 35 133 113 134 38 0 64 -5 68 -12 6 -10 17 -9 45 6 20 10 65 24
100 31 56 10 80 9 186 -9 190 -32 254 -69 237 -138 -19 -76 -19 -79 9 -91 36
-17 46 -15 97 13 57 32 159 63 261 79 45 8 107 21 138 30 51 15 58 21 75 59
10 23 53 94 95 157 56 85 99 137 169 201 88 83 99 89 219 137 166 65 308 87
571 87 174 0 191 -2 280 -29 101 -30 233 -95 315 -156 282 -208 381 -261 678
-370 l77 -29 0 345 0 344 -2400 0 -2400 0 0 -1800z"/>
<path d="M3807 2908 c-13 -11 -14 -21 -7 -58 4 -25 13 -112 20 -195 11 -154
18 -175 58 -175 31 0 856 -197 907 -216 13 -5 15 30 15 266 0 160 -4 269 -9
266 -5 -4 -56 -16 -113 -27 -184 -37 -273 -24 -518 81 -145 62 -311 89 -353
58z"/>
<path d="M2888 1465 c-26 -18 -52 -35 -58 -37 -6 -2 -4 -22 6 -53 18 -60 12
-104 -22 -144 l-24 -29 39 -31 c38 -30 101 -136 101 -168 0 -8 5 -11 11 -7 11
6 8 53 -7 115 -4 21 2 34 35 69 23 24 41 53 41 65 0 18 -32 82 -70 142 -12 19
-12 24 3 41 14 15 15 25 8 46 -6 14 -12 26 -13 25 -2 -1 -24 -16 -50 -34z"/>
<path d="M4330 835 c0 -2 21 -18 48 -36 53 -36 82 -64 82 -78 0 -5 12 -19 26
-30 31 -24 20 -27 -22 -7 -76 37 -80 32 -29 -33 26 -33 54 -66 61 -72 8 -6 14
-17 14 -24 0 -6 11 -24 24 -40 l24 -28 17 34 c37 73 104 122 184 135 l41 7 0
48 c0 33 -4 49 -12 49 -7 0 -24 3 -38 6 -24 6 -24 6 -5 -9 31 -24 14 -28 -50
-10 -33 8 -73 15 -89 15 -16 0 -46 6 -65 15 -58 24 -211 67 -211 58z"/>
<path d="M4302 575 c51 -97 118 -251 158 -362 30 -84 57 -123 85 -123 9 0 12
44 11 190 l-1 190 -85 53 c-47 29 -110 69 -140 90 -30 20 -58 37 -61 37 -4 0
11 -34 33 -75z"/>
<path d="M3167 83 c-2 -5 -7 -25 -11 -45 l-7 -38 41 0 c22 0 40 2 40 5 0 8
-50 85 -55 85 -2 0 -6 -3 -8 -7z"/>
</g>
</svg>
