<?xml version="1.0" standalone="no"?>
<!DOCTYPE svg PUBLIC "-//W3C//DTD SVG 20010904//EN"
 "http://www.w3.org/TR/2001/REC-SVG-20010904/DTD/svg10.dtd">
<svg version="1.0" xmlns="http://www.w3.org/2000/svg"
 width="480.000000pt" height="360.000000pt" viewBox="0 0 480.000000 360.000000"
 preserveAspectRatio="xMidYMid meet">
<metadata>
Created by potrace 1.16, written by Peter Selinger 2001-2019
</metadata>
<rect width="1" height="360" fill="#000000"/>
<rect x="479" width="1" height="360" fill="#000000"/>
<rect width="480" height="1" fill="#000000"/>
<rect y="359" width="480" height="1" fill="#000000"/>
<g transform="translate(0.000000,360.000000) scale(0.100000,-0.100000)"
fill="#000000" stroke="none">
<path d="M911 3223 c-6 -21 -11 -58 -11 -83 l0 -45 -45 -1 c-25 -1 -49 -5 -53
-9 -9 -9 54 -65 74 -65 12 0 10 -7 -10 -31 -40 -47 -13 -68 37 -29 34 27 47
25 47 -5 0 -14 5 -25 10 -25 6 0 10 14 10 31 0 26 3 30 18 23 9 -4 34 -9 55
-12 47 -5 50 15 8 51 l-30 24 25 12 c22 10 64 65 64 84 0 13 -44 7 -87 -13
l-43 -19 0 30 c0 25 -44 119 -55 119 -2 0 -9 -17 -14 -37z"/>
<path d="M3275 2956 c-22 -13 -59 -26 -83 -30 -87 -13 -192 -83 -304 -203 -35
-37 -79 -82 -97 -100 -40 -38 -36 -41 19 -13 22 11 42 20 45 20 3 0 -10 -29
-30 -63 -36 -66 -42 -83 -25 -72 7 4 9 -21 5 -77 -6 -75 -5 -81 9 -64 14 17
15 16 21 -18 9 -46 21 -54 30 -19 6 26 7 27 17 8 6 -11 16 -23 21 -27 13 -8
-39 -56 -65 -60 -38 -6 -45 -33 -20 -77 18 -32 20 -44 11 -63 -8 -18 -7 -40 2
-84 6 -32 14 -78 16 -101 6 -53 20 -65 90 -74 30 -4 57 -9 59 -12 2 -2 1 -18
-2 -36 -7 -34 -10 -34 -71 -15 -10 3 -3 -8 18 -28 l36 -33 -26 -87 c-25 -84
-28 -89 -73 -117 -50 -32 -68 -56 -68 -92 0 -12 -27 -64 -60 -115 -75 -115
-78 -124 -51 -124 12 0 21 -3 21 -7 0 -14 -45 -73 -54 -70 -20 6 -66 163 -76
258 -12 116 -44 267 -69 325 -16 34 -17 45 -6 70 8 19 12 81 12 169 1 209 62
716 103 848 35 112 6 167 -92 175 -47 3 -56 1 -77 -22 -26 -28 -27 -38 -17
-159 9 -102 -86 -864 -113 -915 -6 -11 -12 -36 -12 -54 -1 -24 -4 -18 -11 25
-8 43 -14 57 -27 57 -22 0 -41 -19 -41 -41 0 -9 -6 -22 -14 -28 -7 -6 -16 -28
-20 -49 -3 -21 -17 -53 -31 -72 -14 -18 -25 -41 -25 -50 0 -9 -12 -27 -26 -41
-24 -23 -26 -28 -20 -88 8 -77 13 -87 87 -177 l58 -71 -25 -139 c-70 -390 -96
-520 -119 -583 -14 -38 -25 -90 -25 -119 0 -45 -3 -50 -25 -56 -13 -3 -41 -21
-61 -38 -31 -27 -35 -36 -29 -62 12 -58 1 -148 -23 -184 -8 -13 -16 -37 -17
-53 l-2 -29 1129 0 1128 0 0 44 c0 79 -20 299 -45 481 -54 409 -68 556 -56
610 22 100 81 472 91 574 27 278 -8 582 -85 716 -12 22 -25 57 -29 79 -27 145
-161 295 -326 362 -75 30 -202 60 -295 70 -51 5 -73 12 -83 25 -17 25 -29 24
-77 -5z m-874 -1917 c12 -29 11 -33 -10 -50 -13 -11 -27 -17 -31 -14 -9 5 10
95 20 95 4 0 13 -14 21 -31z"/>
</g>
</svg>
