<?xml version="1.0" standalone="no"?>
<!DOCTYPE svg PUBLIC "-//W3C//DTD SVG 20010904//EN"
 "http://www.w3.org/TR/2001/REC-SVG-20010904/DTD/svg10.dtd">
<svg version="1.0" xmlns="http://www.w3.org/2000/svg"
 width="480.000000pt" height="360.000000pt" viewBox="0 0 480.000000 360.000000"
 preserveAspectRatio="xMidYMid meet">
<metadata>
Created by potrace 1.16, written by Peter Selinger 2001-2019
</metadata>
<rect width="1" height="360" fill="#000000"/>
<rect x="479" width="1" height="360" fill="#000000"/>
<rect width="480" height="1" fill="#000000"/>
<rect y="359" width="480" height="1" fill="#000000"/>
<g transform="translate(0.000000,360.000000) scale(0.100000,-0.100000)"
fill="#000000" stroke="none">
<path d="M3390 3557 c-174 -86 -276 -226 -325 -445 -13 -57 -26 -106 -28 -108
-2 -2 -30 1 -63 7 -113 22 -302 -5 -317 -44 -3 -7 1 -30 8 -51 13 -38 13 -38
-27 -74 -43 -38 -81 -112 -94 -177 -7 -41 3 -55 44 -55 15 0 22 -6 22 -19 0
-15 10 -20 49 -25 47 -6 50 -8 64 -49 8 -23 19 -60 23 -82 9 -39 10 -40 49
-40 31 0 52 -9 91 -37 45 -33 51 -42 70 -110 19 -67 20 -86 12 -228 -15 -272
-14 -751 1 -932 l15 -167 -26 -38 c-15 -21 -31 -57 -37 -80 -6 -22 -20 -52
-30 -65 l-20 -23 -43 42 c-59 58 -144 106 -236 136 -144 46 -161 50 -175 44
-15 -6 -67 43 -67 63 0 6 13 34 29 63 17 28 58 135 92 237 55 166 119 319 200
479 l29 56 -31 28 c-18 15 -37 27 -43 27 -24 0 -75 -67 -126 -165 -76 -144
-130 -225 -149 -225 -10 0 -30 14 -47 31 -63 67 -154 81 -207 31 -13 -12 -33
-22 -45 -22 -49 0 -73 -23 -114 -107 -35 -72 -39 -87 -30 -108 6 -13 23 -27
38 -31 23 -6 25 -10 20 -38 -29 -144 -31 -363 -3 -443 7 -21 58 -99 113 -173
55 -74 109 -149 121 -165 l21 -30 -33 -130 c-18 -72 -42 -172 -53 -222 l-19
-93 1344 0 1343 0 0 1719 0 1720 -55 45 c-30 24 -82 61 -114 80 l-59 36 -548
0 -549 0 -85 -43z m12 -1964 c67 -64 100 -80 143 -69 20 5 25 3 25 -11 0 -24
-59 -51 -139 -64 -36 -5 -68 -12 -73 -15 -4 -3 -8 -1 -8 3 0 5 -15 16 -33 26
-18 10 -38 26 -45 37 -6 11 -14 77 -18 147 l-6 128 44 -60 c25 -33 74 -88 110
-122z"/>
</g>
</svg>
