<?xml version="1.0" standalone="no"?>
<!DOCTYPE svg PUBLIC "-//W3C//DTD SVG 20010904//EN"
 "http://www.w3.org/TR/2001/REC-SVG-20010904/DTD/svg10.dtd">
<svg version="1.0" xmlns="http://www.w3.org/2000/svg"
 width="480.000000pt" height="360.000000pt" viewBox="0 0 480.000000 360.000000"
 preserveAspectRatio="xMidYMid meet">
<metadata>
Created by potrace 1.16, written by Peter Selinger 2001-2019
</metadata>
<rect width="1" height="360" fill="#000000"/>
<rect x="479" width="1" height="360" fill="#000000"/>
<rect width="480" height="1" fill="#000000"/>
<rect y="359" width="480" height="1" fill="#000000"/>
<g transform="translate(0.000000,360.000000) scale(0.100000,-0.100000)"
fill="#000000" stroke="none">
<path d="M2639 3523 c-9 -10 -19 -26 -22 -35 -5 -14 -18 -18 -55 -18 -45 0
-52 -3 -85 -42 -20 -23 -37 -52 -37 -64 0 -12 -7 -27 -15 -34 -25 -21 -14
-136 14 -145 33 -10 6 -218 -32 -242 -6 -4 -8 0 -4 10 4 10 10 24 14 34 5 14
1 15 -26 10 -96 -19 -192 -169 -176 -275 5 -33 17 -53 57 -92 l50 -50 -31 -35
c-17 -19 -34 -48 -37 -63 -9 -38 -23 -52 -50 -52 -15 0 -24 -6 -24 -15 0 -8
-4 -23 -9 -33 -34 -62 -51 -111 -44 -128 3 -10 22 -38 41 -61 30 -37 40 -43
74 -43 22 0 48 5 58 10 29 16 34 -6 11 -44 -25 -40 -27 -69 -5 -87 20 -16 16
-57 -19 -194 -14 -55 -31 -147 -38 -204 -13 -112 -10 -104 -134 -281 -51 -73
-89 -147 -100 -200 -12 -58 -28 -80 -134 -190 -127 -132 -172 -212 -178 -322
-5 -81 9 -128 49 -165 24 -22 131 -58 146 -49 5 3 26 -3 46 -14 21 -10 71 -27
112 -36 65 -15 80 -16 107 -5 18 8 50 16 72 19 35 4 38 3 27 -11 -21 -25 1
-29 141 -26 l131 4 32 -150 c17 -82 35 -162 39 -177 l7 -28 143 0 144 0 7 48
c4 26 21 121 39 212 l32 165 59 14 c97 22 211 57 364 111 151 53 318 108 406
133 36 11 55 12 62 5 7 -7 20 -4 40 11 17 11 36 21 44 21 8 0 24 9 36 20 12
11 28 20 37 20 19 0 32 10 91 68 l44 43 -20 29 c-31 44 -27 60 11 40 17 -9 19
-7 19 17 0 15 -5 46 -12 68 -6 22 -11 47 -9 57 3 20 -97 98 -170 132 -30 14
-103 56 -162 93 -59 37 -149 92 -200 122 -154 91 -267 169 -316 219 -26 26
-94 93 -152 149 -144 139 -164 170 -164 247 1 54 40 314 49 324 2 2 23 -6 47
-16 82 -37 199 -49 199 -21 0 5 13 9 30 9 36 0 54 25 70 95 14 63 8 86 -30
108 -16 10 -30 24 -31 30 0 20 -117 89 -160 94 -22 3 -42 9 -44 13 -2 4 5 30
17 58 21 49 21 56 9 144 -12 82 -12 93 3 103 22 17 20 45 -3 45 -21 0 -68 50
-82 87 -4 12 -29 54 -54 92 -25 37 -45 77 -45 88 0 11 -10 33 -22 48 -19 24
-26 27 -65 22 l-44 -5 7 54 c9 78 -20 106 -126 119 -47 6 -58 4 -71 -12z
m-246 -728 c20 -43 21 -45 5 -45 -21 1 -65 42 -50 47 6 3 12 11 12 19 0 25 16
15 33 -21z m237 -19 c0 -3 -4 -8 -10 -11 -5 -3 -10 -1 -10 4 0 6 5 11 10 11 6
0 10 -2 10 -4z m-90 -752 c0 -38 -9 -64 -21 -64 -5 0 -9 30 -9 68 1 61 2 65
15 48 8 -11 15 -34 15 -52z"/>
</g>
</svg>
