<?xml version="1.0" standalone="no"?>
<!DOCTYPE svg PUBLIC "-//W3C//DTD SVG 20010904//EN"
 "http://www.w3.org/TR/2001/REC-SVG-20010904/DTD/svg10.dtd">
<svg version="1.0" xmlns="http://www.w3.org/2000/svg"
 width="480.000000pt" height="360.000000pt" viewBox="0 0 480.000000 360.000000"
 preserveAspectRatio="xMidYMid meet">
<metadata>
Created by potrace 1.16, written by Peter Selinger 2001-2019
</metadata>
<rect width="1" height="360" fill="#000000"/>
<rect x="479" width="1" height="360" fill="#000000"/>
<rect width="480" height="1" fill="#000000"/>
<rect y="359" width="480" height="1" fill="#000000"/>
<g transform="translate(0.000000,360.000000) scale(0.100000,-0.100000)"
fill="#000000" stroke="none">
<path d="M0 3247 l0 -353 58 -17 c160 -50 329 -178 430 -329 47 -71 73 -121
86 -164 6 -20 2 -22 -68 -29 -46 -4 -80 -12 -87 -21 -6 -8 -20 -12 -30 -9 -10
3 -40 10 -66 15 -148 29 -268 55 -305 66 -17 5 -18 -32 -18 -684 l0 -689 53 9
c28 5 79 18 112 28 51 16 197 34 350 43 35 2 40 5 43 29 3 23 -3 31 -32 45
-20 9 -36 24 -36 32 0 9 11 51 25 93 24 74 50 313 37 346 -2 6 -16 12 -31 12
-16 0 -37 10 -50 24 l-23 25 21 27 c11 15 21 34 21 43 0 8 6 33 14 56 15 43
46 172 46 193 0 6 -6 12 -14 12 -24 0 -26 15 -12 61 8 24 17 65 21 91 7 54 36
83 90 94 44 8 108 -25 125 -65 7 -17 16 -31 20 -31 19 0 17 -32 -4 -57 -21
-26 -22 -33 -15 -98 14 -125 23 -150 64 -186 21 -19 51 -42 67 -52 27 -16 28
-19 13 -39 -8 -13 -15 -35 -15 -50 0 -29 -17 -37 -37 -17 -14 14 -53 -5 -53
-25 0 -19 57 -352 69 -406 15 -63 14 -90 -3 -90 -8 0 -21 8 -28 18 -16 23 -55
45 -67 38 -5 -3 -11 -18 -14 -33 -4 -23 1 -34 29 -59 19 -18 34 -36 34 -40 0
-29 -133 -54 -380 -74 -58 -4 -152 -15 -210 -25 -58 -9 -133 -15 -168 -13
l-62 3 0 -497 0 -498 890 0 890 0 27 58 c21 47 27 79 34 187 4 72 15 159 23
195 9 36 16 68 16 71 0 4 -24 14 -52 24 -29 9 -58 22 -63 30 -6 7 -19 14 -30
16 -11 3 -23 17 -28 34 -5 17 -13 38 -18 47 -24 47 0 201 47 302 13 28 19 52
14 54 -9 3 -148 -68 -177 -91 -10 -7 -9 -17 2 -45 20 -47 10 -54 -11 -8 -19
39 -35 43 -74 21 -39 -22 -123 -19 -145 5 -20 22 -26 18 120 94 75 39 80 43
80 74 0 43 20 54 61 35 32 -16 33 -16 131 40 54 31 106 64 115 74 22 24 78
150 71 157 -15 15 -66 5 -82 -16 -23 -27 -47 -19 -55 20 -7 27 -10 29 -89 41
-147 22 -362 63 -379 72 -22 12 -23 32 -4 48 11 9 24 10 53 1 37 -10 385 -70
409 -70 7 0 19 12 26 27 21 43 36 41 71 -10 7 -11 30 -20 52 -23 39 -5 41 -3
73 45 19 27 36 68 39 89 5 35 2 42 -18 53 -13 7 -30 18 -37 26 -14 13 -29 16
-72 14 -28 -2 -63 30 -75 67 -4 14 3 45 19 86 14 36 23 71 20 79 -3 9 -1 25 5
36 9 15 8 25 0 39 -13 21 2 58 57 133 19 26 34 50 34 53 0 14 44 66 56 66 6 0
16 6 22 13 8 10 -16 30 -106 87 -131 85 -471 311 -577 385 -129 90 -254 202
-203 183 8 -4 159 -102 334 -220 404 -269 454 -301 461 -295 3 3 -5 14 -16 24
-12 9 -21 22 -21 29 0 6 -9 19 -19 28 -46 42 -34 127 29 207 61 76 217 128
302 100 29 -10 42 -8 79 8 74 32 155 46 185 32 23 -10 26 -16 21 -47 -9 -55 1
-88 34 -106 34 -20 37 -48 10 -86 -10 -15 -30 -50 -44 -79 -15 -28 -38 -60
-53 -72 -27 -21 -29 -47 -9 -95 7 -16 5 -18 -8 -13 -9 3 -17 2 -17 -3 0 -6
-11 -10 -25 -10 -14 0 -25 -5 -25 -11 0 -6 -7 -9 -15 -5 -8 3 -15 1 -15 -4 0
-5 -16 -8 -35 -6 -44 3 -44 -6 0 -27 19 -9 35 -20 35 -25 0 -7 31 -22 138 -62
27 -11 39 -26 66 -84 19 -39 37 -80 40 -91 5 -19 122 -95 145 -95 5 0 23 -16
40 -36 l31 -35 29 20 c16 12 36 21 45 21 14 0 66 -65 66 -82 0 -4 -33 -29 -72
-56 -40 -27 -93 -62 -118 -79 -25 -17 -98 -65 -162 -108 -65 -42 -118 -81
-118 -86 0 -20 31 -69 44 -69 7 0 80 -7 162 -15 82 -8 237 -19 344 -25 107 -6
199 -15 204 -20 15 -15 -11 -37 -59 -49 -61 -15 -216 -14 -439 4 -104 9 -190
14 -192 12 -2 -2 13 -31 34 -65 39 -64 305 -372 322 -372 5 0 14 -9 20 -20 9
-17 5 -31 -21 -78 -35 -62 -67 -102 -82 -102 -5 0 -22 -11 -39 -25 -16 -14
-40 -25 -53 -25 -13 0 -40 -11 -60 -24 -20 -14 -39 -26 -44 -28 -4 -2 -2 -41
5 -88 7 -47 13 -128 13 -181 1 -81 5 -106 27 -155 20 -46 23 -63 15 -76 -6
-10 -11 -29 -11 -43 l0 -25 1065 0 1065 0 0 1153 c0 896 -3 1156 -12 1165 -10
10 -10 17 0 32 9 15 12 167 12 635 l0 615 -947 0 -948 0 45 -29 c42 -28 49
-29 112 -22 143 15 247 -57 296 -205 17 -49 19 -69 11 -117 -12 -75 -12 -70
-10 -83 0 -6 21 -37 46 -69 25 -32 43 -60 41 -63 -7 -7 -68 33 -95 62 l-24 26
-44 -45 c-115 -116 -312 -137 -412 -43 -44 41 -85 133 -102 228 -18 98 -87
237 -115 232 -78 -14 -81 -14 -108 10 -21 18 -29 36 -33 71 l-6 47 -1253 0
-1254 0 0 -353z m4146 -18 c10 -17 -13 -36 -27 -22 -12 12 -4 33 11 33 5 0 12
-5 16 -11z m-706 -517 c24 -20 20 -42 -7 -42 -21 0 -53 29 -53 47 0 19 34 16
60 -5z m300 -2 c0 -5 -4 -10 -9 -10 -6 0 -13 5 -16 10 -3 6 1 10 9 10 9 0 16
-4 16 -10z m768 -52 c-7 -19 -66 -34 -80 -20 -8 8 -5 14 13 21 35 14 71 13 67
-1z m-1858 -349 c0 -5 -7 -9 -15 -9 -15 0 -20 12 -9 23 8 8 24 -1 24 -14z
m1738 -1061 c-3 -7 -13 -15 -24 -17 -16 -3 -17 -1 -5 13 16 19 34 21 29 4z"/>
<path d="M2800 3492 c0 -16 6 -37 14 -48 14 -18 15 -18 45 10 37 35 39 52 9
60 -51 13 -68 8 -68 -22z"/>
<path d="M2370 1979 c0 -35 38 -182 61 -239 l31 -74 -26 -21 c-29 -23 -35 -55
-9 -55 15 0 149 85 249 158 36 27 41 34 40 68 -1 37 -5 42 -73 88 -65 44 -77
49 -125 47 -50 -1 -86 6 -130 24 -10 4 -18 6 -18 4z"/>
<path d="M640 1169 c0 -20 21 -49 35 -49 20 0 19 25 -1 44 -18 18 -34 21 -34
5z"/>
<path d="M2396 518 c-23 -13 -138 -28 -250 -32 -92 -3 -95 -5 -120 -103 -10
-38 -32 -120 -49 -183 -19 -70 -31 -132 -29 -158 l3 -42 299 0 c281 0 299 1
293 18 -3 9 -13 22 -21 29 -11 9 -14 25 -9 68 4 44 -2 86 -28 193 -18 75 -37
155 -42 176 -9 44 -19 51 -47 34z"/>
</g>
</svg>
