<?xml version="1.0" standalone="no"?>
<!DOCTYPE svg PUBLIC "-//W3C//DTD SVG 20010904//EN"
 "http://www.w3.org/TR/2001/REC-SVG-20010904/DTD/svg10.dtd">
<svg version="1.0" xmlns="http://www.w3.org/2000/svg"
 width="480.000000pt" height="360.000000pt" viewBox="0 0 480.000000 360.000000"
 preserveAspectRatio="xMidYMid meet">
<metadata>
Created by potrace 1.16, written by Peter Selinger 2001-2019
</metadata>
<rect width="1" height="360" fill="#000000"/>
<rect x="479" width="1" height="360" fill="#000000"/>
<rect width="480" height="1" fill="#000000"/>
<rect y="359" width="480" height="1" fill="#000000"/>
<g transform="translate(0.000000,360.000000) scale(0.100000,-0.100000)"
fill="#000000" stroke="none">
<path d="M2529 3368 c-109 -121 -106 -114 -73 -207 l28 -80 -60 -63 c-33 -35
-73 -84 -87 -109 -59 -100 -85 -296 -52 -389 8 -23 15 -55 15 -71 0 -15 5 -31
10 -34 6 -4 10 5 10 19 0 44 16 29 29 -27 7 -29 24 -66 38 -82 24 -29 24 -29
18 -5 l-7 25 27 -28 c19 -20 30 -25 35 -17 5 9 9 9 14 1 4 -6 11 -9 16 -6 5 3
27 -6 50 -21 l40 -27 -21 -37 c-12 -21 -19 -45 -16 -53 3 -8 25 -19 50 -25 36
-10 47 -18 55 -42 8 -20 18 -30 31 -30 16 0 23 -10 32 -45 14 -54 26 -65 35
-30 8 34 22 23 36 -32 10 -42 12 -44 23 -24 6 12 14 19 17 16 4 -4 18 1 32 10
27 18 46 13 46 -11 0 -8 5 -14 10 -14 6 0 10 11 10 23 0 30 9 39 24 24 35 -35
29 -48 -66 -144 -69 -69 -99 -93 -118 -93 -33 0 -77 -45 -95 -96 -13 -39 -13
-39 -72 -42 -32 -1 -134 -12 -227 -22 l-168 -20 -29 24 c-27 23 -60 37 -120
50 -18 4 -35 -1 -52 -14 -14 -11 -34 -20 -44 -20 -21 0 -63 -39 -63 -59 0 -12
-80 -51 -92 -45 -6 4 -76 130 -187 336 -18 34 -32 48 -47 48 -12 0 -32 9 -46
20 -19 15 -28 16 -37 7 -9 -9 -14 -9 -21 2 -7 12 -18 4 -54 -35 -25 -27 -45
-51 -45 -54 -1 -3 44 -86 98 -185 61 -110 96 -184 90 -189 -15 -16 -10 -62 10
-117 11 -29 18 -64 15 -82 -6 -35 36 -185 61 -223 9 -14 33 -28 57 -34 24 -6
61 -24 83 -39 22 -16 88 -54 148 -85 149 -78 146 -76 172 -127 13 -25 36 -59
52 -75 20 -22 307 -255 330 -269 9 -5 -21 -72 -46 -100 -40 -46 -49 -97 -27
-155 10 -25 20 -56 22 -70 3 -14 7 -35 10 -48 l4 -22 630 0 630 0 0 33 c0 52
-102 187 -141 187 -21 0 -23 7 -43 140 -26 168 -43 379 -39 460 4 66 2 78 -18
103 -17 23 -28 28 -49 24 -25 -5 -27 -4 -23 21 8 51 10 52 50 31 28 -14 58
-19 120 -19 l83 0 -6 25 c-6 25 -5 25 56 25 56 0 61 2 55 19 -6 21 12 27 95
33 23 2 34 8 32 17 -4 20 18 83 37 104 15 18 16 18 22 -5 4 -12 8 -43 8 -68
l1 -45 21 25 20 25 -5 -35 c-3 -19 -12 -64 -20 -100 -9 -36 -16 -85 -16 -108
l0 -44 46 61 c50 67 69 84 61 55 -18 -61 -27 -110 -37 -198 -6 -54 -8 -101 -6
-104 3 -2 15 11 26 29 l22 34 -5 -55 c-3 -30 -2 -86 1 -124 l7 -70 35 52 c19
28 39 52 43 52 5 0 6 -4 3 -9 -8 -13 -36 -194 -31 -199 8 -8 84 47 101 73 9
14 18 24 20 22 2 -2 -5 -39 -16 -83 -11 -43 -20 -88 -20 -99 1 -19 1 -19 19 3
28 32 33 28 26 -25 l-6 -48 25 30 c22 26 26 27 26 11 0 -30 15 -7 29 44 11 37
71 156 71 140 0 -3 -9 -37 -20 -75 -24 -84 -64 -315 -55 -323 3 -4 10 0 15 8
14 21 13 -6 0 -31 -10 -18 -5 -19 187 -19 l199 0 12 117 c7 65 18 122 24 128
10 10 10 -4 -9 -187 l-6 -58 37 0 36 0 0 838 0 838 -32 12 c-48 17 -236 132
-320 195 -133 101 -289 266 -376 401 l-45 69 -24 -53 c-13 -29 -32 -59 -43
-67 -10 -7 -35 -40 -55 -74 -64 -104 -251 -311 -349 -385 -63 -48 -91 -64 -94
-54 -3 7 -15 23 -28 35 -21 19 -24 32 -24 91 0 92 9 139 29 161 10 10 16 25
14 33 -2 8 4 -1 12 -20 36 -80 34 -78 34 -47 1 25 3 26 24 15 12 -7 26 -17 30
-23 4 -6 7 -1 6 10 -4 55 2 215 9 214 14 -1 55 -61 62 -92 6 -31 7 -30 19 23
7 30 15 88 18 128 5 59 8 70 19 61 19 -15 18 -4 -2 26 -9 13 -13 29 -10 34 4
6 -22 68 -58 138 -45 90 -73 163 -94 245 -50 192 -92 255 -239 369 -129 100
-177 125 -288 147 l-90 18 -18 49 c-10 28 -24 55 -30 62 -16 15 -153 43 -214
43 -47 0 -50 -2 -114 -72z m46 -1073 l6 -30 -20 23 c-11 13 -17 30 -14 38 8
20 20 6 28 -31z m779 -361 c3 -9 6 -32 6 -52 l0 -37 -19 30 c-12 20 -15 34 -9
42 5 7 7 17 3 23 -3 5 -2 10 3 10 6 0 13 -7 16 -16z m-750 -389 c-31 -41 -43
-116 -26 -163 6 -17 7 -34 3 -38 -14 -17 -71 -160 -81 -204 -5 -25 -10 -62
-10 -82 0 -45 -11 -48 -35 -10 -10 15 -44 59 -76 99 -50 62 -61 83 -75 145 -9
40 -27 97 -40 127 -13 29 -24 59 -24 65 0 7 56 23 143 41 78 16 162 34 187 41
64 17 64 18 34 -21z m-637 -237 c6 -13 34 -50 62 -83 54 -62 66 -89 28 -58
-27 22 -147 150 -147 158 0 3 11 5 23 5 15 0 28 -9 34 -22z m1883 -178 c0 -5
-4 -10 -10 -10 -5 0 -10 5 -10 10 0 6 5 10 10 10 6 0 10 -4 10 -10z m-436
-482 c18 -155 21 -257 7 -242 -5 5 -24 45 -41 89 -31 76 -32 84 -26 175 3 52
9 113 13 135 l6 40 13 -30 c7 -17 19 -92 28 -167z"/>
</g>
</svg>
