<?xml version="1.0" standalone="no"?>
<!DOCTYPE svg PUBLIC "-//W3C//DTD SVG 20010904//EN"
 "http://www.w3.org/TR/2001/REC-SVG-20010904/DTD/svg10.dtd">
<svg version="1.0" xmlns="http://www.w3.org/2000/svg"
 width="480.000000pt" height="360.000000pt" viewBox="0 0 480.000000 360.000000"
 preserveAspectRatio="xMidYMid meet">
<metadata>
Created by potrace 1.16, written by Peter Selinger 2001-2019
</metadata>
<rect width="1" height="360" fill="#000000"/>
<rect x="479" width="1" height="360" fill="#000000"/>
<rect width="480" height="1" fill="#000000"/>
<rect y="359" width="480" height="1" fill="#000000"/>
<g transform="translate(0.000000,360.000000) scale(0.100000,-0.100000)"
fill="#000000" stroke="none">
<path d="M0 1800 l0 -1800 779 0 779 0 -13 58 c-18 82 -21 87 -71 112 -49 26
-52 34 -26 63 12 15 14 21 5 24 -18 6 -16 28 2 43 12 10 14 24 9 55 -8 54 2
71 96 174 83 91 177 171 289 246 102 69 198 167 319 325 56 74 131 171 166
216 63 80 79 121 81 204 0 24 -2 25 -90 30 -88 5 -141 22 -130 40 3 5 27 19
53 30 92 41 122 89 122 197 0 46 -7 82 -20 112 -11 24 -28 76 -38 115 -23 88
-13 130 39 163 56 36 89 64 89 76 0 6 -10 1 -22 -10 -13 -11 -37 -23 -54 -26
-26 -5 -33 -2 -37 13 -4 14 -11 17 -27 13 -18 -5 -21 -3 -15 7 6 10 4 12 -8 7
-25 -9 -81 46 -74 72 4 17 1 21 -19 21 -26 0 -30 10 -12 28 7 7 9 12 5 12 -3
0 13 18 36 40 36 35 38 39 16 31 -15 -5 -29 -7 -32 -4 -3 3 -12 -4 -19 -16
-20 -32 -31 -25 -13 9 9 18 35 40 65 55 51 26 139 110 161 154 36 71 122 142
205 167 49 16 54 16 120 -4 71 -22 128 -62 192 -134 26 -29 37 -54 50 -116
l16 -79 -25 -24 c-35 -36 -74 -66 -65 -51 11 18 0 15 -51 -14 -36 -22 -44 -31
-40 -50 3 -16 -4 -28 -25 -44 -15 -11 -28 -30 -28 -41 0 -13 -5 -19 -13 -16
-7 3 -21 -1 -30 -8 -10 -7 -28 -10 -40 -7 -20 5 -21 4 -7 -13 8 -10 31 -28 50
-40 59 -37 100 -86 115 -139 9 -28 27 -68 41 -89 63 -96 62 -141 -7 -259 -45
-77 -50 -119 -17 -142 12 -9 30 -16 38 -16 9 0 27 -11 40 -25 13 -14 30 -25
37 -25 7 0 18 -10 24 -22 13 -29 140 -109 154 -98 6 5 21 1 35 -10 35 -27 45
-25 26 5 -20 30 -20 30 29 5 21 -11 57 -42 79 -69 62 -75 121 -115 216 -146
47 -15 103 -36 125 -48 78 -39 220 -133 300 -198 257 -210 448 -360 483 -378
13 -7 22 -15 19 -17 -2 -2 -43 14 -92 37 -48 22 -109 48 -134 58 -491 192
-649 273 -794 407 -78 73 -111 90 -217 108 -36 6 -35 2 17 -31 14 -10 15 -14
5 -21 -16 -11 -66 -2 -142 25 -30 11 -72 23 -93 27 -29 5 -46 18 -75 56 -33
43 -68 67 -81 55 -2 -3 5 -62 17 -133 24 -142 33 -220 62 -567 12 -132 25
-269 30 -305 5 -36 10 -109 10 -162 l0 -98 925 0 925 0 0 1800 0 1800 -2400 0
-2400 0 0 -1800z m625 1720 c3 -5 -1 -10 -9 -10 -9 0 -16 5 -16 10 0 6 4 10 9
10 6 0 13 -4 16 -10z m1658 -69 c-3 -12 -9 -21 -14 -21 -11 0 -12 64 -2 74 11
10 22 -29 16 -53z m80 -88 c-7 -2 -19 -2 -25 0 -7 3 -2 5 12 5 14 0 19 -2 13
-5z m-2125 -31 c23 -19 34 -39 39 -66 l6 -39 -32 19 c-43 25 -71 61 -71 90 0
31 17 30 58 -4z m2128 -29 c16 -38 10 -93 -12 -100 -16 -5 -37 65 -30 103 9
44 23 43 42 -3z m-111 -454 c16 -16 -20 -41 -60 -41 -47 0 -61 13 -45 42 10
19 17 21 53 16 23 -4 46 -11 52 -17z m1420 -169 c4 -6 -7 -10 -27 -9 -27 0
-30 2 -13 9 27 12 33 12 40 0z m445 -603 c0 -6 -9 -2 -20 8 -11 10 -20 23 -20
28 0 6 9 2 20 -8 11 -10 20 -23 20 -28z m127 -132 c2 -7 -12 -9 -37 -7 -22 2
-40 8 -40 14 0 12 73 6 77 -7z m-3274 -134 c12 -1 8 -18 -5 -24 -19 -7 -60 11
-53 23 3 5 16 8 28 6 12 -3 25 -5 30 -5z m1215 -44 c3 -12 -3 -17 -22 -17 -25
0 -35 18 -19 34 12 12 38 2 41 -17z m-493 -59 c-15 -67 -51 -109 -69 -80 -8
14 19 81 40 97 29 22 36 18 29 -17z m-449 -593 c16 -39 19 -85 5 -85 -12 0
-31 56 -31 91 0 38 8 36 26 -6z m-866 -133 c0 -12 -22 -32 -36 -32 -7 0 -25 5
-41 11 -22 8 -24 12 -13 19 18 12 90 13 90 2z m2850 -168 c16 -42 13 -56 -9
-42 -24 15 -54 65 -46 78 10 16 44 -7 55 -36z m-2 -410 c39 -11 25 -27 -19
-21 -52 7 -77 27 -33 27 16 0 39 -3 52 -6z m1331 -181 c32 -39 32 -53 0 -53
-31 0 -57 18 -74 50 -20 39 -20 40 14 40 22 0 38 -10 60 -37z"/>
<path d="M3140 1355 c7 -9 15 -13 17 -11 7 7 -7 26 -19 26 -6 0 -6 -6 2 -15z"/>
<path d="M3080 1230 c0 -5 7 -10 16 -10 8 0 12 5 9 10 -3 6 -10 10 -16 10 -5
0 -9 -4 -9 -10z"/>
</g>
</svg>
