<?xml version="1.0" standalone="no"?>
<!DOCTYPE svg PUBLIC "-//W3C//DTD SVG 20010904//EN"
 "http://www.w3.org/TR/2001/REC-SVG-20010904/DTD/svg10.dtd">
<svg version="1.0" xmlns="http://www.w3.org/2000/svg"
 width="480.000000pt" height="360.000000pt" viewBox="0 0 480.000000 360.000000"
 preserveAspectRatio="xMidYMid meet">
<metadata>
Created by potrace 1.16, written by Peter Selinger 2001-2019
</metadata>
<rect width="1" height="360" fill="#000000"/>
<rect x="479" width="1" height="360" fill="#000000"/>
<rect width="480" height="1" fill="#000000"/>
<rect y="359" width="480" height="1" fill="#000000"/>
<g transform="translate(0.000000,360.000000) scale(0.100000,-0.100000)"
fill="#000000" stroke="none">
<path d="M0 3396 l0 -205 37 -31 c48 -40 172 -100 206 -100 36 0 43 18 58 146
13 116 3 270 -23 356 l-11 38 -134 0 -133 0 0 -204z"/>
<path d="M1285 3574 c-9 -14 -14 -28 -12 -31 5 -5 97 45 97 53 0 2 -15 4 -34
4 -25 0 -38 -6 -51 -26z"/>
<path d="M1375 3570 c-11 -17 -57 -59 -103 -95 -45 -36 -86 -73 -89 -82 -4
-10 -20 -28 -35 -41 -32 -27 -36 -42 -11 -42 10 0 -5 -19 -40 -51 -31 -28 -57
-59 -57 -68 0 -10 -13 -30 -30 -46 -16 -16 -28 -30 -26 -32 2 -3 23 6 47 18
24 12 57 25 73 30 l29 8 -24 -26 c-13 -15 -48 -52 -76 -82 -29 -30 -53 -61
-53 -69 0 -7 -9 -25 -20 -39 -11 -14 -20 -34 -20 -45 0 -10 -7 -21 -15 -24 -8
-4 -15 -13 -15 -22 0 -9 -10 -26 -22 -39 -12 -13 -18 -26 -14 -30 4 -4 46 -7
92 -6 l85 2 -61 -45 c-44 -32 -62 -53 -67 -74 -3 -17 -19 -42 -35 -55 -34 -29
-25 -31 52 -10 30 8 56 12 58 10 2 -2 -5 -14 -17 -26 -12 -13 -21 -29 -21 -36
0 -7 -3 -13 -7 -13 -5 0 -31 -22 -58 -48 -69 -65 -126 -108 -152 -116 -13 -4
-23 -15 -23 -25 0 -10 -9 -26 -20 -36 -26 -23 -15 -31 55 -40 27 -4 58 -11 68
-17 16 -8 16 -11 -5 -51 -12 -23 -23 -49 -24 -57 0 -9 -7 -26 -14 -39 -13 -25
-14 -25 36 -4 13 5 12 -52 -1 -101 -7 -27 -7 -28 16 -16 45 25 234 142 292
182 31 21 57 35 57 31 0 -5 -15 -47 -34 -93 -59 -146 -58 -169 4 -105 57 59
58 62 -12 -163 -15 -51 -28 -101 -28 -112 0 -20 1 -20 31 -5 31 16 31 16 24
-7 -4 -13 -14 -35 -21 -50 -18 -34 -18 -38 2 -38 14 0 15 -8 9 -55 -6 -51 -5
-55 15 -55 11 0 43 11 70 25 28 14 50 22 50 18 0 -5 -11 -26 -25 -48 -36 -59
-33 -69 20 -63 44 5 45 5 45 -23 0 -20 -20 -55 -66 -114 -37 -47 -64 -89 -61
-92 3 -3 31 7 63 21 98 45 108 34 33 -39 -28 -28 -55 -58 -61 -68 -8 -16 -7
-18 11 -12 30 9 26 -7 -10 -41 -17 -16 -35 -37 -40 -46 -8 -15 -4 -15 46 2 31
11 89 37 130 59 41 22 75 35 75 30 0 -19 -22 -54 -60 -94 -20 -22 -47 -57 -59
-79 l-22 -39 41 7 c46 7 52 -5 22 -45 -33 -44 -73 -118 -97 -184 -31 -81 -31
-94 -2 -67 13 12 28 22 34 22 6 0 39 30 73 68 l61 67 -37 -75 c-39 -80 -84
-202 -84 -231 0 -9 -38 -62 -85 -118 -47 -55 -85 -103 -85 -106 0 -14 205 111
220 135 3 4 16 11 28 15 22 6 23 5 17 -17 -4 -12 -14 -36 -22 -51 -8 -16 -12
-31 -9 -34 3 -3 -8 -31 -23 -62 -16 -31 -32 -67 -36 -81 -7 -22 -6 -23 9 -11
37 31 13 -12 -39 -67 -30 -33 -55 -63 -55 -67 0 -18 165 24 216 56 l35 21 -7
-28 c-4 -16 -11 -37 -16 -46 -8 -17 9 -18 284 -18 l294 0 41 122 c22 68 64
184 93 258 84 219 260 726 260 752 0 6 33 51 73 102 41 50 84 106 96 124 25
36 41 41 41 12 0 -33 14 -23 49 34 18 30 41 62 52 72 20 18 20 18 10 -7 -5
-14 -28 -57 -51 -94 -111 -182 -160 -277 -150 -290 8 -10 7 -22 -5 -44 -22
-43 -1 -41 48 7 37 35 39 35 34 12 -3 -14 -9 -47 -13 -75 l-6 -50 31 30 c17
16 48 53 68 82 20 29 37 53 39 53 1 0 -8 -33 -21 -72 -13 -40 -26 -93 -29
-118 l-7 -45 26 30 25 30 0 -34 0 -33 20 23 19 24 1 -90 c0 -55 4 -85 9 -76 7
11 9 11 13 0 3 -8 15 2 32 26 28 39 28 40 22 10 -3 -16 -12 -51 -20 -78 -8
-26 -12 -47 -8 -47 4 0 20 16 35 35 38 48 51 45 45 -10 -7 -54 3 -57 32 -9 12
19 24 33 27 31 2 -3 -3 -31 -11 -63 -22 -83 -18 -83 51 5 17 22 17 3 -1 -68
-22 -87 -29 -154 -17 -146 7 4 11 -4 11 -22 1 -27 1 -27 16 -8 9 11 36 55 61
98 24 42 49 77 54 77 11 0 11 -49 0 -142 -7 -66 -7 -67 12 -50 20 17 20 16 14
-76 -4 -57 -3 -91 2 -87 6 3 24 30 41 60 17 30 35 55 38 55 4 0 8 -40 9 -88 1
-71 15 -151 30 -171 1 -2 11 7 22 20 20 24 20 24 21 2 0 -27 14 -37 29 -20 16
20 41 191 41 284 0 128 28 121 55 -12 21 -103 29 -129 77 -247 38 -92 42 -98
69 -98 16 0 29 3 29 8 0 19 -33 207 -50 287 -19 90 -46 264 -74 489 -9 65 -23
223 -31 350 -29 430 -117 1378 -136 1471 -21 100 -102 245 -211 380 -233 288
-261 323 -312 400 -30 44 -69 110 -87 148 l-33 67 -651 0 -650 0 -20 -30z"/>
</g>
</svg>
