<?xml version="1.0" standalone="no"?>
<!DOCTYPE svg PUBLIC "-//W3C//DTD SVG 20010904//EN"
 "http://www.w3.org/TR/2001/REC-SVG-20010904/DTD/svg10.dtd">
<svg version="1.0" xmlns="http://www.w3.org/2000/svg"
 width="480.000000pt" height="360.000000pt" viewBox="0 0 480.000000 360.000000"
 preserveAspectRatio="xMidYMid meet">
<metadata>
Created by potrace 1.16, written by Peter Selinger 2001-2019
</metadata>
<rect width="1" height="360" fill="#000000"/>
<rect x="479" width="1" height="360" fill="#000000"/>
<rect width="480" height="1" fill="#000000"/>
<rect y="359" width="480" height="1" fill="#000000"/>
<g transform="translate(0.000000,360.000000) scale(0.100000,-0.100000)"
fill="#000000" stroke="none">
<path d="M0 1800 l0 -1800 960 0 959 0 10 38 c6 20 11 43 11 50 0 8 25 89 55
180 53 162 54 168 40 207 -17 48 -19 89 -4 116 8 16 7 25 -5 38 -15 16 -15 22
-1 62 40 113 116 419 126 506 6 54 14 102 19 108 22 27 28 89 19 185 -9 97 -9
101 16 140 14 22 25 42 25 45 0 17 -27 -1 -71 -47 l-49 -52 -28 21 c-50 37
-39 72 33 104 22 10 69 22 105 28 52 8 69 16 87 38 19 23 31 28 87 31 57 4 65
2 75 -16 12 -23 48 -36 143 -53 68 -11 118 -38 118 -64 0 -23 -22 -63 -36 -69
-8 -3 -23 4 -34 16 -34 37 -40 12 -25 -123 10 -98 19 -137 39 -177 30 -60 31
-63 11 -55 -14 5 -15 -6 -9 -78 6 -87 41 -221 113 -431 37 -111 39 -119 22
-130 -15 -10 -18 -27 -18 -83 0 -45 -6 -81 -16 -102 -16 -30 -15 -35 27 -161
24 -72 47 -145 51 -164 4 -18 11 -50 16 -70 l10 -38 959 0 960 0 0 1800 0
1800 -2400 0 -2400 0 0 -1800z"/>
</g>
</svg>
