<?xml version="1.0" standalone="no"?>
<!DOCTYPE svg PUBLIC "-//W3C//DTD SVG 20010904//EN"
 "http://www.w3.org/TR/2001/REC-SVG-20010904/DTD/svg10.dtd">
<svg version="1.0" xmlns="http://www.w3.org/2000/svg"
 width="480.000000pt" height="360.000000pt" viewBox="0 0 480.000000 360.000000"
 preserveAspectRatio="xMidYMid meet">
<metadata>
Created by potrace 1.16, written by Peter Selinger 2001-2019
</metadata>
<rect width="1" height="360" fill="#000000"/>
<rect x="479" width="1" height="360" fill="#000000"/>
<rect width="480" height="1" fill="#000000"/>
<rect y="359" width="480" height="1" fill="#000000"/>
<g transform="translate(0.000000,360.000000) scale(0.100000,-0.100000)"
fill="#000000" stroke="none">
<path d="M0 3366 c0 -129 4 -246 10 -260 6 -17 6 -26 0 -26 -13 0 -13 -145 0
-190 7 -23 7 -36 0 -38 -5 -2 -10 -21 -10 -43 0 -32 4 -41 23 -49 19 -8 10
-15 -15 -11 -5 0 -8 -618 -8 -1374 l0 -1375 2400 0 2400 0 0 865 0 865 -23 0
c-23 0 -47 17 -47 32 0 4 16 8 35 8 l35 0 0 915 0 915 -2400 0 -2400 0 0 -234z
m3366 208 c-3 -9 -6 -24 -6 -34 0 -12 -12 -21 -40 -28 -51 -13 -52 -1 -3 44
40 37 59 44 49 18z m-1556 -164 c0 -29 -29 -53 -46 -39 -20 17 -17 34 9 52 26
17 37 13 37 -13z m-1525 -50 c17 -19 15 -50 -4 -50 -11 0 -51 40 -51 50 0 25
32 25 55 0z m2560 -22 c18 -8 22 -14 13 -20 -29 -18 -108 -2 -108 22 0 14 64
12 95 -2z m442 -194 c89 -17 130 -48 140 -108 l6 -36 -54 0 c-72 0 -125 16
-144 43 -31 44 -32 125 -1 114 8 -3 32 -9 53 -13z m-3123 -49 c8 -8 19 -15 25
-15 16 0 13 -18 -3 -27 -8 -4 -16 -21 -18 -38 -4 -39 -28 -43 -64 -11 -28 23
-28 25 -11 43 9 11 14 22 11 26 -4 3 -4 13 -1 22 8 19 41 19 61 0z m219 -66
c7 0 1 -4 -11 -10 -26 -10 -46 -3 -36 12 3 6 13 8 21 5 8 -3 20 -6 26 -7z
m3336 -38 c41 -57 18 -82 -32 -36 -30 29 -29 27 -21 49 9 24 30 19 53 -13z
m-451 -101 c22 -33 29 -60 15 -60 -12 1 -63 72 -63 87 0 23 23 10 48 -27z
m-755 -94 c-3 -36 -20 -54 -52 -58 -19 -2 -26 3 -31 22 -9 34 25 72 60 68 21
-3 25 -8 23 -32z m67 -46 c0 -11 -4 -20 -9 -20 -14 0 -41 41 -35 52 9 14 44
-12 44 -32z m-865 0 c10 -11 15 -23 12 -26 -8 -8 -57 23 -57 36 0 17 26 11 45
-10z m2109 -5 c16 -24 22 -85 9 -85 -21 0 -53 47 -53 77 0 40 20 44 44 8z
m-840 -31 c13 -49 -31 -73 -54 -29 -19 35 1 81 29 66 10 -6 22 -22 25 -37z
m-326 -1 c-4 -20 -45 -30 -60 -15 -16 16 1 32 33 32 24 0 30 -4 27 -17z
m-1560 -24 c2 -23 2 -23 -13 -5 -18 24 -20 39 -2 34 6 -3 13 -15 15 -29z
m1734 15 c20 -10 27 -19 20 -26 -12 -12 -75 18 -67 32 8 13 11 13 47 -6z
m-1772 -133 c7 -14 6 -27 -5 -48 -8 -15 -15 -34 -15 -42 0 -20 -61 -6 -82 20
-10 12 -18 34 -18 50 0 33 0 32 33 20 19 -8 27 -6 31 5 8 20 44 17 56 -5z
m245 -38 c-11 -49 -32 -70 -69 -75 -44 -5 -45 6 -6 60 22 31 37 42 56 42 24 0
25 -3 19 -27z m475 -59 c0 -40 -21 -46 -44 -12 -19 27 -21 59 -3 77 18 18 47
-22 47 -65z m1484 44 c9 -12 16 -37 16 -55 0 -26 -4 -33 -20 -33 -32 0 -60 36
-60 75 0 30 3 35 24 35 14 0 32 -10 40 -22z m-3125 -33 c26 -30 39 -55 28 -55
-2 0 -23 20 -47 45 -29 30 -39 45 -28 45 9 0 30 -16 47 -35z m1414 -11 c38
-18 57 -44 68 -91 8 -40 1 -41 -61 -9 -53 27 -89 78 -70 101 16 19 22 19 63
-1z m-525 -178 c-3 -15 -5 -15 -22 -3 -13 9 -17 20 -12 32 6 17 8 17 22 3 9
-9 14 -23 12 -32z m1328 -3 c3 -16 7 -34 10 -40 4 -16 -8 -17 -24 -1 -14 14
-16 68 -2 68 5 0 12 -12 16 -27z m-428 -35 c21 -23 42 -69 42 -92 0 -8 -17
-16 -41 -20 -22 -4 -50 -13 -62 -21 -24 -16 -67 -10 -67 9 0 7 9 22 21 34 13
15 18 29 14 43 -4 11 -4 31 -1 45 9 33 63 34 94 2z m1576 -19 c25 -23 46 -45
46 -49 0 -9 -46 -30 -66 -30 -9 0 -29 16 -46 35 -25 27 -35 32 -49 25 -10 -6
-28 -10 -41 -10 l-23 1 25 19 c14 11 32 26 40 35 26 27 65 18 114 -26z m-740
-31 c17 -24 22 -68 8 -68 -18 0 -64 59 -59 74 9 23 33 20 51 -6z m-224 -57 c0
-10 -9 -30 -21 -45 -17 -21 -24 -24 -35 -15 -19 15 -18 64 2 83 19 20 54 5 54
-23z m-1632 -57 c-10 -50 -23 -74 -39 -74 -12 0 0 87 18 130 14 32 16 33 23
14 5 -12 4 -43 -2 -70z m2348 4 c-17 -10 -56 4 -79 27 -32 31 -17 35 38 8 40
-20 51 -29 41 -35z m-266 15 c0 -38 -10 -73 -21 -73 -10 0 -12 83 -2 93 14 14
23 6 23 -20z m1420 -109 c0 -19 -46 -83 -70 -97 -36 -22 -40 -21 -40 3 0 31
20 65 48 83 27 16 62 23 62 11z m-3996 -50 c9 -3 16 -17 16 -31 0 -14 9 -37
21 -51 l21 -27 -37 -3 c-28 -3 -43 2 -61 19 -29 27 -30 39 -4 46 11 3 17 9 14
15 -6 9 2 38 10 38 2 0 11 -3 20 -6z m4194 -95 c35 -18 43 -25 38 -43 -3 -13
2 -29 16 -43 23 -24 20 -27 -37 -36 -30 -5 -95 25 -95 44 0 16 24 99 29 99 3
0 24 -10 49 -21z m-1308 -30 c42 -24 71 -69 44 -69 -48 0 -115 54 -99 80 8 14
12 13 55 -11z m758 -54 c18 -40 14 -100 -9 -139 -24 -41 -35 -45 -44 -17 -13
40 -9 100 9 140 22 48 29 50 44 16z m-2729 -117 c23 -25 28 -36 20 -50 -5 -10
-20 -18 -33 -18 -19 0 -24 7 -30 38 -12 74 -4 80 43 30z m1533 5 c29 -28 35
-43 18 -43 -14 0 -60 46 -60 60 0 16 12 12 42 -17z m597 1 c41 -34 39 -44 -9
-44 -31 0 -43 5 -56 25 -31 48 14 62 65 19z m-369 -82 c0 -15 -24 -32 -44 -32
-28 0 -50 15 -42 29 8 12 86 15 86 3z m-2141 -31 c8 -5 12 -18 8 -30 -3 -12
-1 -23 4 -27 5 -3 1 -16 -8 -30 -14 -21 -22 -25 -47 -20 -43 9 -53 22 -33 44
9 10 17 25 17 33 0 31 32 47 59 30z m1979 -13 c26 -26 -71 -62 -107 -39 -11 7
-9 13 8 30 23 23 79 29 99 9z m-2484 -40 c3 -7 7 -34 10 -60 5 -40 2 -52 -18
-75 -21 -24 -26 -26 -41 -13 -18 15 -16 59 6 128 10 32 36 44 43 20z m2336
-40 c39 -24 28 -34 -25 -24 -36 7 -50 20 -40 36 9 15 26 12 65 -12z m954 -7
c6 -10 -37 -31 -64 -31 -11 0 -20 4 -20 10 0 22 72 41 84 21z m340 -33 c9 -12
16 -30 16 -40 0 -14 -6 -16 -32 -11 -51 9 -64 25 -48 62 10 25 15 29 31 21 10
-6 25 -20 33 -32z m-1474 -63 c7 -30 10 -58 7 -61 -10 -10 -51 82 -44 100 12
29 24 17 37 -39z m1708 25 c23 -10 42 -23 42 -28 0 -5 -21 -17 -47 -25 -42
-14 -49 -14 -70 0 -25 16 -31 58 -10 66 22 10 42 7 85 -13z m-1472 -5 c8 -19
-13 -45 -36 -45 -18 0 -30 25 -23 48 6 17 52 15 59 -3z m1499 -134 c5 -9 -3
-13 -57 -27 -19 -4 -18 -2 7 15 34 23 41 25 50 12z m-2406 -42 c34 -12 40 -24
15 -33 -34 -13 -94 -3 -94 15 0 5 10 9 23 10 21 0 21 1 2 9 -20 8 -20 9 1 9
12 1 35 -4 53 -10z m1356 -10 c5 -5 -1 -9 -17 -9 -14 0 -32 7 -39 17 -13 15
-11 16 16 9 17 -4 34 -12 40 -17z m-660 -81 c29 -13 33 -33 9 -42 -21 -8 -64
19 -64 39 0 18 20 19 55 3z m1727 -25 c22 -20 24 -59 2 -67 -17 -7 -60 18 -68
40 -15 40 30 59 66 27z m-1877 -65 c21 -10 25 -16 20 -37 -10 -40 -39 -65 -68
-57 -29 7 -41 40 -25 70 20 37 34 42 73 24z m1249 -261 c19 -26 19 -27 1 -67
-19 -42 -32 -50 -41 -25 -4 8 -15 15 -25 15 -22 0 -45 41 -36 64 6 15 56 45
71 42 6 -1 19 -14 30 -29z m953 -2 c44 -19 73 -43 73 -62 0 -17 -86 25 -114
56 -23 25 -9 27 41 6z m-3771 -30 c29 -29 33 -38 24 -55 -20 -38 -68 -11 -57
32 3 11 2 30 -4 40 -15 28 -2 22 37 -17z m2338 -117 c5 -9 7 -20 4 -23 -7 -7
-88 36 -88 46 0 13 74 -7 84 -23z m1404 -223 c4 -43 -11 -66 -30 -47 -7 7 -20
12 -30 12 -26 0 -22 17 9 51 35 36 47 33 51 -16z"/>
</g>
</svg>
