<?xml version="1.0" standalone="no"?>
<!DOCTYPE svg PUBLIC "-//W3C//DTD SVG 20010904//EN"
 "http://www.w3.org/TR/2001/REC-SVG-20010904/DTD/svg10.dtd">
<svg version="1.0" xmlns="http://www.w3.org/2000/svg"
 width="480.000000pt" height="360.000000pt" viewBox="0 0 480.000000 360.000000"
 preserveAspectRatio="xMidYMid meet">
<metadata>
Created by potrace 1.16, written by Peter Selinger 2001-2019
</metadata>
<rect width="1" height="360" fill="#000000"/>
<rect x="479" width="1" height="360" fill="#000000"/>
<rect width="480" height="1" fill="#000000"/>
<rect y="359" width="480" height="1" fill="#000000"/>
<g transform="translate(0.000000,360.000000) scale(0.100000,-0.100000)"
fill="#000000" stroke="none">
<path d="M2158 2055 c-231 -38 -395 -127 -492 -268 -22 -32 -42 -57 -45 -57
-3 0 -28 7 -55 15 -107 33 -221 45 -411 45 -210 0 -249 -9 -293 -65 -77 -98
55 -408 318 -743 36 -46 78 -101 93 -121 l28 -37 -30 -107 c-16 -59 -39 -128
-51 -153 -11 -26 -18 -49 -16 -51 8 -8 76 95 106 160 37 81 69 108 41 35 -5
-13 -16 -77 -26 -143 -9 -66 -30 -157 -45 -202 -16 -46 -25 -83 -20 -83 8 0
70 65 108 115 19 24 25 27 33 15 5 -8 7 -31 4 -50 -5 -30 -22 -164 -40 -317
l-5 -43 1066 0 1066 0 -6 38 c-18 127 -18 152 0 145 14 -5 16 -2 11 28 -9 45
-27 300 -26 364 l0 50 21 -55 c31 -81 74 -145 126 -189 25 -22 48 -38 50 -36
3 2 -11 37 -31 77 -19 40 -52 134 -72 208 -20 74 -43 149 -50 167 -13 31 -12
34 38 100 29 37 57 73 62 79 6 6 26 31 45 57 40 52 49 56 76 26 32 -36 101
-79 127 -79 13 0 32 9 42 20 16 17 17 26 6 77 -6 31 -27 85 -46 120 -19 35
-35 70 -35 77 0 7 11 33 24 57 47 86 97 228 102 291 7 78 -15 120 -79 148 -36
17 -66 20 -228 20 -197 0 -311 -13 -429 -51 l-64 -21 -44 52 c-111 128 -284
222 -502 271 -116 26 -338 33 -452 14z m1637 -912 c30 -58 29 -61 -4 -23 -30
34 -39 60 -23 60 5 0 17 -17 27 -37z"/>
</g>
</svg>
