<?xml version="1.0" standalone="no"?>
<!DOCTYPE svg PUBLIC "-//W3C//DTD SVG 20010904//EN"
 "http://www.w3.org/TR/2001/REC-SVG-20010904/DTD/svg10.dtd">
<svg version="1.0" xmlns="http://www.w3.org/2000/svg"
 width="480.000000pt" height="360.000000pt" viewBox="0 0 480.000000 360.000000"
 preserveAspectRatio="xMidYMid meet">
<metadata>
Created by potrace 1.16, written by Peter Selinger 2001-2019
</metadata>
<rect width="1" height="360" fill="#000000"/>
<rect x="479" width="1" height="360" fill="#000000"/>
<rect width="480" height="1" fill="#000000"/>
<rect y="359" width="480" height="1" fill="#000000"/>
<g transform="translate(0.000000,360.000000) scale(0.100000,-0.100000)"
fill="#000000" stroke="none">
<path d="M0 1800 l0 -1800 2400 0 2400 0 0 650 0 650 -75 -7 c-59 -5 -79 -3
-99 10 -32 21 -50 75 -38 119 l8 33 -88 11 c-100 13 -128 30 -128 78 0 24 14
45 60 95 79 83 78 112 -5 97 -34 -7 -34 -8 -20 -30 14 -21 13 -24 -3 -39 -22
-20 -153 -55 -216 -58 -55 -3 -81 17 -98 75 -6 23 -14 44 -18 49 -3 4 -46 -4
-96 -17 -49 -14 -163 -43 -254 -66 -186 -46 -225 -56 -395 -100 -109 -29 -166
-43 -380 -95 -38 -9 -97 -25 -130 -35 -33 -10 -78 -21 -100 -25 -22 -4 -53
-11 -70 -15 -16 -5 -49 -14 -72 -20 -31 -8 -42 -16 -45 -33 -2 -17 -10 -22
-35 -24 -17 0 -44 -11 -60 -23 -16 -11 -42 -22 -58 -23 -48 -4 -69 -48 -64
-137 0 -8 0 -65 -2 -127 -1 -93 -5 -115 -19 -128 -19 -17 -64 -12 -77 8 -4 6
-6 75 -6 154 l1 143 -38 -20 c-46 -23 -85 -25 -120 -5 -14 8 -35 14 -46 15
-19 0 -23 -9 -34 -67 -6 -38 -11 -93 -11 -124 1 -71 -12 -84 -72 -75 -49 8
-87 30 -87 51 0 7 14 23 30 35 29 21 30 24 30 105 l0 83 -62 -19 c-72 -21 -88
-23 -88 -9 0 6 8 10 18 10 9 0 24 5 32 11 15 10 8 9 -51 -7 -22 -6 -42 46 -69
178 -31 149 -72 520 -60 532 6 6 10 44 11 85 0 97 15 251 33 366 51 307 75
404 182 730 73 222 116 332 175 448 21 42 39 84 39 92 0 13 -120 15 -1015 15
l-1015 0 0 -1800z"/>
<path d="M3260 3597 c0 -2 286 -282 635 -623 457 -444 642 -619 658 -619 12 0
73 7 135 14 l112 14 0 608 0 609 -770 0 c-423 0 -770 -1 -770 -3z"/>
</g>
</svg>
