<?xml version="1.0" standalone="no"?>
<!DOCTYPE svg PUBLIC "-//W3C//DTD SVG 20010904//EN"
 "http://www.w3.org/TR/2001/REC-SVG-20010904/DTD/svg10.dtd">
<svg version="1.0" xmlns="http://www.w3.org/2000/svg"
 width="480.000000pt" height="360.000000pt" viewBox="0 0 480.000000 360.000000"
 preserveAspectRatio="xMidYMid meet">
<metadata>
Created by potrace 1.16, written by Peter Selinger 2001-2019
</metadata>
<rect width="1" height="360" fill="#000000"/>
<rect x="479" width="1" height="360" fill="#000000"/>
<rect width="480" height="1" fill="#000000"/>
<rect y="359" width="480" height="1" fill="#000000"/>
<g transform="translate(0.000000,360.000000) scale(0.100000,-0.100000)"
fill="#000000" stroke="none">
<path d="M0 2925 l0 -675 25 10 c16 6 25 6 25 0 0 -5 -11 -12 -25 -16 l-25 -6
0 -749 0 -749 26 10 c14 6 51 10 83 10 32 0 79 7 106 14 26 8 72 18 102 22 61
7 68 16 56 65 -8 28 -15 35 -47 42 -21 5 -40 15 -43 22 -2 8 11 37 29 67 49
77 82 196 78 283 -1 39 -2 94 -2 124 2 60 -9 81 -43 81 -15 0 -28 11 -40 34
-19 34 -19 35 0 56 23 25 43 77 85 214 19 64 20 70 4 87 -12 13 -15 28 -10 54
4 20 9 67 11 104 4 77 15 101 58 126 46 27 135 15 164 -22 12 -15 31 -37 43
-49 24 -26 25 -42 3 -66 -16 -18 -16 -22 -1 -66 15 -40 15 -47 2 -56 -12 -10
-11 -21 11 -85 14 -41 25 -83 25 -94 0 -10 31 -49 70 -86 39 -37 70 -74 70
-82 0 -21 -58 -79 -79 -79 -10 0 -23 -6 -28 -12 -16 -21 2 -392 23 -463 30
-110 31 -105 -9 -105 -26 0 -39 6 -47 20 -13 24 -53 28 -44 5 4 -8 1 -22 -6
-30 -18 -21 30 -83 68 -87 41 -5 33 -21 -18 -34 -192 -51 -600 -135 -662 -138
l-38 -1 0 -312 0 -313 296 0 c267 0 296 2 290 16 -3 9 -9 27 -12 40 -3 13 -8
24 -10 24 -2 0 -38 -12 -81 -26 -52 -17 -102 -27 -149 -27 -62 -1 -76 2 -113
26 -32 21 -41 34 -39 50 2 18 25 30 138 70 74 27 159 57 189 68 66 23 65 22
51 49 -9 17 -18 20 -43 16 l-32 -6 27 13 c23 11 24 15 13 30 -9 13 -18 15 -35
9 -12 -5 -35 -6 -52 -4 -27 4 -29 7 -26 40 2 25 10 40 24 47 12 6 29 16 37 23
10 9 28 11 51 6 31 -5 36 -10 36 -34 0 -15 -7 -33 -15 -40 -19 -16 -19 -20 9
-53 l23 -28 32 30 c57 53 71 35 20 -24 -18 -20 -30 -37 -28 -39 13 -10 580
242 975 434 l242 117 32 104 c18 57 33 110 34 117 0 7 -30 26 -68 43 -72 31
-71 31 -97 -13 -12 -22 -48 -23 -56 -2 -3 9 2 31 11 51 19 41 17 46 -26 63
-150 59 -732 339 -757 365 -12 11 -11 18 6 47 24 42 56 46 108 13 113 -70 675
-335 711 -335 7 0 22 16 34 35 37 59 84 40 62 -25 -11 -30 -10 -31 49 -61 34
-17 63 -29 65 -27 2 3 -15 40 -37 84 -154 297 -144 273 -142 346 1 41 12 95
27 140 45 130 63 213 53 243 -21 63 36 170 133 250 27 22 73 60 102 84 29 24
53 51 53 60 1 28 13 38 60 51 56 16 61 24 40 57 -13 20 -19 23 -26 12 -6 -10
-13 -3 -26 26 -16 37 -17 38 -21 15 -2 -14 -10 -29 -18 -33 -8 -4 -14 -15 -14
-22 0 -21 -13 -18 -28 6 -10 15 -20 19 -38 15 -13 -4 -24 -3 -23 1 1 5 1 22 0
38 l-1 30 -18 -22 c-16 -22 -17 -16 -12 130 6 164 22 230 93 375 36 76 126
162 219 213 56 30 71 34 138 33 88 0 153 -26 238 -93 30 -24 55 -41 56 -39 15
18 166 371 166 387 0 8 -214 11 -695 11 -611 0 -695 -2 -695 -15 0 -8 -6 -15
-14 -15 -8 0 -16 7 -20 15 -5 13 -96 15 -741 15 l-735 0 0 -675z m175 595 c4
-6 1 -17 -5 -26 -10 -11 -16 -12 -26 -3 -11 9 -11 15 -3 25 14 17 25 18 34 4z
m623 -49 c3 -8 -1 -12 -9 -9 -7 2 -15 10 -17 17 -3 8 1 12 9 9 7 -2 15 -10 17
-17z m416 -537 c9 -3 16 -10 16 -15 0 -14 -34 -11 -56 6 -19 14 -19 14 3 15
12 0 28 -3 37 -6z"/>
<path d="M2960 3548 c0 -64 13 -113 51 -195 16 -34 29 -66 29 -71 0 -14 -42
-48 -86 -70 -25 -13 -44 -30 -47 -44 -4 -13 -9 -97 -12 -188 -8 -187 -19 -230
-71 -273 -19 -16 -34 -34 -34 -40 0 -7 -15 -50 -34 -96 l-33 -84 -7 47 c-4 25
-11 46 -15 46 -4 0 -15 -18 -24 -40 -18 -46 -34 -52 -39 -14 l-3 26 -44 -39
-45 -40 45 -11 c51 -14 63 -21 72 -44 3 -9 23 -24 44 -34 21 -10 57 -32 79
-50 23 -18 70 -43 105 -55 105 -35 144 -84 179 -221 7 -26 18 -52 24 -57 19
-15 373 -60 511 -64 139 -5 182 -16 237 -62 25 -21 33 -23 51 -14 116 61 559
331 652 397 32 23 63 42 70 42 6 0 22 11 35 25 35 38 82 50 119 30 l31 -16 0
631 0 630 -920 0 -920 0 0 -52z m968 -160 c-3 -7 -11 -13 -18 -13 -7 0 -15 6
-17 13 -3 7 4 12 17 12 13 0 20 -5 18 -12z m95 -805 c9 -9 -12 -33 -29 -33
-17 0 -18 27 -1 33 18 8 23 8 30 0z m-1229 -132 c8 -12 -21 -34 -34 -26 -8 5
-8 11 1 21 13 16 25 18 33 5z m986 -215 c0 -8 -4 -17 -9 -21 -12 -7 -24 12
-16 25 9 15 25 12 25 -4z"/>
<path d="M2270 2555 c-15 -39 -23 -75 -17 -75 5 0 47 86 47 96 0 2 -5 4 -10 4
-6 0 -15 -11 -20 -25z"/>
<path d="M4654 2190 c-5 -5 -38 -24 -74 -43 -36 -19 -135 -77 -220 -129 -85
-52 -207 -125 -270 -163 -141 -83 -148 -89 -143 -119 6 -28 -20 -82 -56 -117
-14 -14 -39 -42 -54 -62 -22 -29 -35 -37 -60 -37 -46 0 -80 26 -73 55 3 13 0
27 -8 34 -26 22 -27 -7 -2 -66 22 -53 23 -59 9 -75 -25 -28 -44 -22 -88 29
l-42 47 -29 -19 c-16 -11 -38 -25 -49 -30 -11 -6 -65 -35 -120 -65 -55 -29
-107 -57 -115 -62 -8 -4 -27 -12 -42 -18 -18 -6 -28 -17 -28 -29 0 -16 -43
-42 -212 -127 -117 -58 -218 -111 -225 -116 -9 -7 -8 -18 3 -44 8 -19 26 -70
39 -113 14 -43 31 -83 38 -88 6 -5 71 -32 142 -60 72 -28 182 -71 245 -96 145
-56 255 -96 549 -196 129 -44 238 -84 244 -90 16 -16 -1 -41 -40 -58 -35 -15
-46 -15 -133 0 -52 9 -160 37 -240 62 -136 44 -561 200 -664 244 -28 13 -46
16 -46 9 0 -6 27 -54 59 -107 89 -144 261 -492 261 -528 0 -10 166 -13 795
-13 l795 0 0 1037 0 1036 -31 -44 c-65 -92 -178 -185 -193 -160 -3 4 8 36 25
71 62 132 96 293 53 250z m-289 -491 c10 -15 -1 -23 -20 -15 -9 3 -13 10 -10
16 8 13 22 13 30 -1z m-898 -1326 c-9 -9 -20 -13 -24 -9 -4 4 1 14 11 22 25
18 35 8 13 -13z"/>
<path d="M2697 1803 c-12 -172 -6 -278 19 -365 4 -13 -2 -16 -28 -15 -31 2
-33 0 -45 -48 -8 -32 -9 -53 -3 -59 6 -6 10 -23 10 -38 0 -15 3 -28 7 -28 9 0
208 102 337 172 76 42 111 57 119 49 7 -7 18 -5 36 8 14 10 40 25 56 33 17 8
50 26 75 40 25 14 86 47 135 73 50 26 93 49 97 51 4 3 1 19 -7 37 l-13 32
-235 5 -235 5 -54 38 c-30 20 -66 37 -81 37 -27 0 -78 16 -87 28 -3 4 -18 12
-35 18 -16 6 -37 15 -46 18 -14 6 -17 -7 -22 -91z m263 -343 c0 -5 -7 -10 -16
-10 -8 0 -12 5 -9 10 3 6 10 10 16 10 5 0 9 -4 9 -10z"/>
<path d="M2052 1771 c-15 -15 -39 -48 -54 -73 -28 -45 -28 -45 -10 -86 9 -23
20 -42 24 -42 9 0 64 146 73 193 9 44 2 46 -33 8z"/>
<path d="M550 933 c-6 -15 -12 -33 -15 -40 -2 -6 -19 -13 -37 -15 -65 -6 -32
-78 36 -78 l34 0 8 68 c11 88 11 85 -3 89 -7 3 -18 -8 -23 -24z"/>
<path d="M1605 514 c-246 -119 -533 -243 -750 -324 -207 -77 -250 -94 -258
-101 -5 -3 -3 -25 4 -48 l12 -41 479 0 c374 0 479 3 482 13 2 6 33 106 69 222
82 261 99 323 95 333 -2 5 -61 -20 -133 -54z"/>
</g>
</svg>
