<?xml version="1.0" standalone="no"?>
<!DOCTYPE svg PUBLIC "-//W3C//DTD SVG 20010904//EN"
 "http://www.w3.org/TR/2001/REC-SVG-20010904/DTD/svg10.dtd">
<svg version="1.0" xmlns="http://www.w3.org/2000/svg"
 width="480.000000pt" height="360.000000pt" viewBox="0 0 480.000000 360.000000"
 preserveAspectRatio="xMidYMid meet">
<metadata>
Created by potrace 1.16, written by Peter Selinger 2001-2019
</metadata>
<rect width="1" height="360" fill="#000000"/>
<rect x="479" width="1" height="360" fill="#000000"/>
<rect width="480" height="1" fill="#000000"/>
<rect y="359" width="480" height="1" fill="#000000"/>
<g transform="translate(0.000000,360.000000) scale(0.100000,-0.100000)"
fill="#000000" stroke="none">
<path d="M0 1800 l0 -1800 2400 0 2400 0 0 1800 0 1800 -2400 0 -2400 0 0
-1800z m2446 1103 l35 -28 -41 -37 c-70 -63 -21 -83 57 -23 42 32 51 35 112
34 36 0 81 -6 98 -12 34 -12 183 -126 183 -139 0 -16 -47 -7 -85 17 -39 24
-89 33 -98 18 -3 -5 -8 -22 -11 -40 -7 -30 -6 -31 33 -38 56 -9 100 -42 128
-95 14 -26 38 -52 56 -62 18 -9 28 -17 23 -18 -6 0 4 -12 22 -26 17 -15 29
-31 26 -35 -3 -5 -10 -7 -15 -3 -6 3 -7 -5 -3 -22 6 -21 4 -26 -7 -22 -32 12
-44 -14 -41 -88 l4 -72 41 -6 c154 -24 227 -50 204 -72 -3 -3 -36 2 -72 11
-37 9 -69 14 -72 12 -2 -3 27 -17 64 -32 l69 -27 120 22 c84 16 140 21 189 17
77 -6 138 -24 129 -38 -3 -5 4 -9 16 -9 12 0 18 -5 15 -10 -10 -17 5 -49 26
-55 10 -4 16 -11 13 -17 -5 -8 3 -9 24 -5 25 5 30 3 25 -8 -4 -11 -1 -13 13
-8 12 4 15 3 10 -5 -4 -8 2 -16 16 -21 17 -7 19 -10 6 -10 -18 -1 -25 -31 -11
-45 10 -10 12 -36 3 -36 -5 0 -7 -11 -4 -25 3 -18 0 -25 -11 -25 -9 0 -14 -4
-11 -9 12 -18 -18 -30 -43 -16 -21 11 -27 10 -45 -10 -12 -12 -29 -25 -40 -28
-14 -6 -16 -10 -7 -21 10 -12 6 -14 -23 -11 -20 2 -46 11 -58 19 -39 27 -50
17 -16 -14 46 -41 29 -38 -22 5 -47 40 -107 59 -230 75 -110 15 -166 28 -215
53 -50 25 -169 31 -159 7 4 -8 9 -38 11 -67 5 -44 3 -53 -16 -62 -17 -9 -24
-8 -41 9 -11 11 -20 26 -20 33 0 6 -8 -4 -18 -23 -9 -19 -25 -36 -34 -38 -20
-4 -27 18 -31 93 -2 48 -3 49 -37 57 -19 4 -79 2 -133 -4 -108 -13 -130 -8
-135 33 -5 32 -18 44 -50 45 -15 1 -92 7 -171 13 -184 15 -207 3 -78 -42 19
-7 21 -15 9 -34 -6 -10 -27 -6 -85 17 -76 29 -221 70 -249 70 -8 0 -23 -8 -34
-18 -24 -23 -40 -18 -59 19 -13 24 -22 29 -53 29 -64 0 -111 18 -127 50 -8 16
-15 31 -15 35 0 10 132 5 253 -10 159 -19 448 -45 513 -45 44 0 54 4 81 33 17
17 49 69 72 113 39 77 41 83 27 110 -8 16 -20 55 -27 86 -11 51 -16 60 -47 75
-65 33 -67 63 -9 107 24 18 27 18 51 2 18 -11 26 -25 26 -45 0 -35 42 -132 48
-111 2 8 10 29 18 47 17 38 3 83 -25 76 -20 -5 -63 49 -55 70 3 9 -3 16 -15
20 -12 3 -25 16 -30 30 -5 14 -27 38 -48 53 -57 41 -92 86 -93 116 0 36 11 40
46 17 16 -10 32 -19 35 -19 3 0 4 23 1 52 -4 42 -2 54 14 65 25 19 66 10 110
-24z"/>
<path d="M2724 2357 c11 -44 25 -77 33 -77 5 0 22 17 40 38 30 37 30 39 12 50
-24 15 -32 15 -23 0 5 -8 2 -9 -12 -4 -51 21 -57 20 -50 -7z"/>
<path d="M2507 2218 c-13 -29 -38 -75 -55 -102 -70 -109 -19 -134 71 -36 71
76 75 90 42 145 -14 25 -28 45 -30 45 -2 0 -14 -24 -28 -52z"/>
<path d="M2890 2151 c0 -10 41 -27 85 -36 21 -5 13 1 -23 19 -60 29 -62 30
-62 17z"/>
</g>
</svg>
