<?xml version="1.0" standalone="no"?>
<!DOCTYPE svg PUBLIC "-//W3C//DTD SVG 20010904//EN"
 "http://www.w3.org/TR/2001/REC-SVG-20010904/DTD/svg10.dtd">
<svg version="1.0" xmlns="http://www.w3.org/2000/svg"
 width="480.000000pt" height="360.000000pt" viewBox="0 0 480.000000 360.000000"
 preserveAspectRatio="xMidYMid meet">
<metadata>
Created by potrace 1.16, written by Peter Selinger 2001-2019
</metadata>
<rect width="1" height="360" fill="#000000"/>
<rect x="479" width="1" height="360" fill="#000000"/>
<rect width="480" height="1" fill="#000000"/>
<rect y="359" width="480" height="1" fill="#000000"/>
<g transform="translate(0.000000,360.000000) scale(0.100000,-0.100000)"
fill="#000000" stroke="none">
<path d="M1480 3568 c0 -22 -10 -42 -32 -65 -27 -28 -30 -36 -21 -55 14 -30
161 -215 201 -251 29 -28 30 -28 56 -11 34 22 58 6 38 -26 -16 -26 -15 -30 4
-30 23 0 -26 -56 -92 -104 -29 -22 -50 -44 -47 -49 3 -6 33 -7 71 -4 l65 6 -7
-44 c-3 -25 -9 -66 -12 -92 l-6 -48 40 45 40 45 7 -30 c12 -55 38 -150 42
-154 2 -3 9 4 17 14 12 17 14 14 21 -33 7 -52 20 -68 28 -34 3 13 7 10 16 -13
28 -73 28 -73 36 -17 4 28 10 52 14 52 5 0 16 -36 25 -80 10 -44 21 -80 26
-80 4 0 6 9 3 20 -3 11 -2 32 2 47 5 21 8 24 16 12 5 -7 9 -25 10 -39 1 -25 1
-24 14 5 14 29 14 29 15 5 0 -20 2 -22 10 -10 7 10 10 -6 10 -55 0 -76 8 -76
35 -2 16 44 19 46 35 32 26 -23 38 -18 43 18 2 21 4 14 5 -22 l2 -53 -30 5
c-16 4 -32 2 -35 -2 -3 -5 0 -32 7 -60 15 -66 11 -69 -117 -111 -129 -42 -225
-91 -279 -141 l-43 -39 -25 37 c-13 21 -41 68 -61 104 -60 108 -55 105 -205
86 -245 -32 -438 -15 -584 51 -38 17 -129 67 -203 112 -75 45 -198 111 -273
148 -75 36 -158 78 -183 94 -58 35 -72 35 -132 -2 l-47 -30 0 -81 c0 -87 -2
-85 56 -42 l31 23 84 -50 c46 -27 87 -51 91 -52 3 -2 8 -17 9 -35 3 -23 -3
-39 -20 -57 -24 -25 -49 -128 -50 -203 -1 -34 257 -583 290 -618 13 -13 22
-16 29 -9 6 6 17 144 27 336 l15 325 -42 69 c-23 38 -58 83 -77 101 -48 44
-35 56 35 32 59 -20 136 -66 210 -126 36 -29 42 -40 42 -72 0 -26 -7 -44 -21
-57 -30 -27 -36 -42 -58 -140 l-20 -88 110 -275 c124 -309 149 -363 166 -369
7 -2 17 7 21 20 5 13 24 169 42 348 l33 325 -43 80 c-23 44 -54 90 -69 103
l-26 24 190 -6 c105 -3 202 -8 217 -12 43 -10 42 -32 -2 -73 -33 -30 -45 -51
-66 -121 -15 -47 -27 -96 -27 -110 0 -14 46 -166 103 -338 63 -193 100 -321
97 -335 -3 -12 -24 -80 -47 -152 -22 -71 -53 -192 -68 -268 l-28 -137 -62 -30
c-34 -16 -200 -115 -367 -220 -168 -105 -322 -198 -342 -208 l-36 -17 -21 30
c-27 38 -91 102 -140 139 -21 15 -53 53 -73 83 -37 59 -95 94 -157 97 l-31 1
-3 -61 c-3 -59 -2 -62 23 -68 14 -4 25 -11 25 -17 0 -20 -29 -79 -39 -79 -7 0
-11 -56 -11 -165 l0 -165 441 0 441 0 176 101 c233 134 334 202 384 258 67 77
126 207 233 519 29 84 56 156 60 160 4 4 4 -6 -1 -23 -4 -16 -9 -163 -10 -325
-5 -511 -7 -539 -44 -616 -17 -36 -30 -68 -27 -70 2 -2 340 -3 750 -2 l746 3
-39 92 c-40 93 -50 143 -29 143 8 0 10 17 5 57 -27 216 -32 304 -24 393 14
160 14 161 68 10 62 -175 90 -238 139 -308 63 -89 127 -132 484 -323 l129 -69
459 0 459 0 0 164 c0 155 -1 166 -20 179 -22 15 -60 82 -60 104 0 7 18 22 40
33 37 19 40 23 40 64 0 31 -5 46 -16 50 -33 13 -81 5 -129 -22 -43 -23 -55
-38 -90 -104 -29 -55 -53 -86 -85 -110 -25 -19 -58 -57 -75 -86 -19 -32 -37
-51 -48 -52 -22 0 -137 63 -460 252 -130 76 -272 156 -315 176 l-77 38 -11 82
c-17 114 -40 217 -80 350 -28 93 -32 117 -23 134 27 51 221 647 225 693 9 102
12 121 23 145 9 20 10 14 5 -35 l-6 -60 26 30 c14 17 25 34 26 38 0 5 7 15 15
23 8 9 15 24 15 34 0 11 11 44 24 75 24 53 26 55 64 55 22 0 61 3 88 7 l49 6
-36 -34 c-19 -19 -53 -68 -74 -110 l-39 -76 28 -319 c27 -301 35 -354 55 -354
16 0 28 24 94 175 36 83 95 218 131 300 l66 150 -20 100 c-16 80 -26 105 -49
130 -26 26 -28 35 -22 70 5 35 15 47 76 93 39 29 97 65 130 81 105 50 165 51
96 2 -16 -12 -52 -56 -79 -99 l-51 -79 11 -319 c5 -175 14 -323 18 -328 5 -5
15 -6 23 -3 13 5 170 293 276 505 l42 84 -12 95 c-10 74 -18 102 -36 123 -14
17 -23 41 -23 62 0 33 5 37 87 86 94 56 107 60 141 36 l22 -15 0 84 0 83 -35
17 c-43 21 -64 21 -91 3 -11 -8 -110 -59 -219 -114 -110 -55 -229 -119 -265
-143 -139 -90 -368 -195 -386 -176 -2 2 1 28 7 56 10 48 12 51 26 34 13 -16
13 -8 8 72 -4 50 -17 154 -29 232 -22 142 -22 143 -2 162 17 18 18 24 8 59 -7
22 -12 70 -12 107 0 61 3 72 35 115 74 101 114 222 115 348 l0 42 -1240 0
-1240 0 0 -32z m1915 -543 c-4 -60 -13 -164 -21 -230 -18 -157 -18 -255 2
-350 9 -42 13 -79 10 -82 -3 -3 -34 0 -69 7 -48 9 -70 9 -86 1 -11 -6 -52 -65
-90 -129 -38 -65 -77 -124 -85 -131 -14 -11 -25 -5 -77 43 -65 60 -171 119
-280 155 -36 12 -74 28 -85 35 -18 14 -18 16 4 82 12 38 25 85 30 104 7 25 8
6 4 -62 -3 -65 -1 -98 5 -98 6 0 14 11 17 25 4 15 14 25 24 25 12 0 29 22 52
70 18 38 36 67 40 65 4 -2 10 -32 14 -66 3 -34 10 -67 16 -74 5 -7 13 -34 17
-61 6 -42 8 -45 14 -24 4 14 8 50 9 80 5 116 18 116 20 0 l2 -115 18 98 c10
55 21 101 23 104 3 2 8 -5 12 -17 10 -33 27 -19 40 34 14 54 35 83 35 49 0
-41 20 -34 47 16 16 28 30 51 33 51 3 -1 18 -21 33 -47 15 -25 31 -43 35 -39
3 4 5 47 3 95 l-3 89 66 -5 c75 -6 84 4 33 35 -32 19 -34 23 -36 82 -2 59 1
66 58 158 33 54 67 114 77 135 17 36 19 37 32 20 11 -14 12 -42 7 -128z
m-1215 -185 c0 -13 -1 -13 -10 0 -5 8 -10 22 -10 30 0 13 1 13 10 0 5 -8 10
-22 10 -30z m87 -30 c33 -22 85 -49 116 -61 31 -12 57 -26 57 -30 0 -5 10 -9
23 -9 12 0 29 -5 37 -11 23 -16 -95 -4 -154 16 -70 24 -150 75 -137 88 7 7 21
0 45 -20 33 -30 132 -71 143 -60 3 3 -15 11 -39 18 -43 13 -85 37 -122 71 -11
10 -26 18 -33 18 -7 0 -13 5 -13 10 0 17 16 11 77 -30z m333 -279 c0 -11 2
-26 5 -33 4 -9 -4 -19 -20 -26 -29 -13 -32 -5 -14 47 12 34 29 42 29 12z m740
-386 c-9 -11 -34 -58 -55 -105 -21 -47 -40 -87 -41 -89 -1 -1 -20 10 -41 25
-21 16 -40 29 -42 31 -6 4 149 191 162 196 7 2 17 -6 23 -17 9 -17 7 -25 -6
-41z m-1795 -46 l77 -91 -33 -34 c-18 -19 -36 -34 -40 -34 -3 0 -25 40 -47 89
-23 48 -48 93 -56 100 -11 9 -11 17 -2 36 6 14 14 25 18 25 3 0 41 -41 83 -91z"/>
<path d="M0 2114 l0 -286 57 -90 c60 -95 89 -121 100 -92 7 19 -25 531 -37
586 -6 30 -102 168 -117 168 -2 0 -3 -129 -3 -286z"/>
<path d="M4753 2344 c-47 -57 -43 -33 -79 -457 -22 -255 -15 -267 81 -130 l45
64 -2 287 -3 286 -42 -50z"/>
</g>
</svg>
