<?xml version="1.0" standalone="no"?>
<!DOCTYPE svg PUBLIC "-//W3C//DTD SVG 20010904//EN"
 "http://www.w3.org/TR/2001/REC-SVG-20010904/DTD/svg10.dtd">
<svg version="1.0" xmlns="http://www.w3.org/2000/svg"
 width="480.000000pt" height="360.000000pt" viewBox="0 0 480.000000 360.000000"
 preserveAspectRatio="xMidYMid meet">
<metadata>
Created by potrace 1.16, written by Peter Selinger 2001-2019
</metadata>
<rect width="1" height="360" fill="#000000"/>
<rect x="479" width="1" height="360" fill="#000000"/>
<rect width="480" height="1" fill="#000000"/>
<rect y="359" width="480" height="1" fill="#000000"/>
<g transform="translate(0.000000,360.000000) scale(0.100000,-0.100000)"
fill="#000000" stroke="none">
<path d="M2605 2853 c-300 -39 -492 -114 -594 -230 -54 -61 -78 -110 -92 -189
l-11 -66 -56 -25 c-35 -17 -86 -29 -140 -34 -115 -12 -156 -24 -189 -58 -43
-43 -90 -57 -146 -43 -64 17 -126 15 -133 -2 -8 -21 20 -69 61 -104 l35 -32
-30 -31 c-16 -18 -30 -37 -30 -43 0 -20 44 -83 93 -135 l48 -50 -17 -32 c-26
-50 -103 -168 -151 -232 -24 -33 -43 -61 -41 -62 2 -2 26 11 53 30 33 21 52
29 57 22 4 -7 11 -7 22 2 14 12 16 10 15 -15 0 -16 -6 -60 -13 -99 -14 -78
-11 -97 13 -93 12 3 24 -21 51 -102 57 -166 90 -200 90 -92 l0 57 34 -40 c19
-22 42 -60 52 -85 47 -124 63 -152 81 -142 13 8 21 4 35 -13 25 -32 23 -36
-23 -68 -22 -15 -43 -35 -46 -43 -10 -27 33 -101 76 -130 32 -20 42 -34 46
-63 3 -20 10 -55 15 -77 8 -33 5 -57 -15 -126 -13 -46 -34 -105 -45 -132 -12
-26 -19 -50 -15 -54 3 -3 38 29 76 71 69 75 89 90 89 65 0 -7 13 -41 30 -76
26 -56 29 -68 20 -105 -11 -49 -7 -56 20 -32 18 16 22 17 54 1 19 -9 46 -16
62 -16 38 0 155 19 179 30 28 12 78 19 68 10 -4 -4 -25 -13 -46 -20 -29 -9
-42 -21 -53 -45 -10 -25 -25 -37 -57 -50 -24 -9 -57 -25 -73 -36 -29 -19 -20
-19 862 -19 l892 0 8 38 c10 45 11 63 20 277 5 128 3 201 -9 295 -25 194 -31
324 -18 348 6 12 36 40 66 62 33 24 57 51 61 67 9 35 -17 81 -70 126 l-43 36
-6 138 c-3 78 -12 163 -21 195 -15 56 -15 58 11 125 22 58 27 88 31 199 5 142
-10 219 -62 338 -127 287 -479 536 -847 601 -76 14 -259 18 -334 8z m-841
-1917 c-10 -40 -29 -26 -32 23 l-3 43 21 -20 c16 -15 19 -26 14 -46z"/>
</g>
</svg>
