<?xml version="1.0" standalone="no"?>
<!DOCTYPE svg PUBLIC "-//W3C//DTD SVG 20010904//EN"
 "http://www.w3.org/TR/2001/REC-SVG-20010904/DTD/svg10.dtd">
<svg version="1.0" xmlns="http://www.w3.org/2000/svg"
 width="480.000000pt" height="360.000000pt" viewBox="0 0 480.000000 360.000000"
 preserveAspectRatio="xMidYMid meet">
<metadata>
Created by potrace 1.16, written by Peter Selinger 2001-2019
</metadata>
<rect width="1" height="360" fill="#000000"/>
<rect x="479" width="1" height="360" fill="#000000"/>
<rect width="480" height="1" fill="#000000"/>
<rect y="359" width="480" height="1" fill="#000000"/>
<g transform="translate(0.000000,360.000000) scale(0.100000,-0.100000)"
fill="#000000" stroke="none">
<path d="M0 1800 l0 -1800 1943 0 c1931 0 1944 0 1962 20 24 27 104 27 164 0
40 -19 66 -20 388 -20 l344 0 -3 723 -4 722 -24 66 -25 66 -75 -30 c-115 -46
-190 -36 -278 38 -16 14 -37 25 -45 25 -8 0 -64 -11 -125 -25 -61 -14 -118
-25 -127 -25 -8 0 -31 25 -50 55 -20 30 -37 55 -38 55 -2 0 -63 -20 -137 -45
-252 -86 -490 -142 -609 -144 -53 -1 -150 23 -205 51 -24 12 -136 118 -275
259 -128 132 -240 239 -247 239 -8 0 -39 -35 -71 -77 -56 -77 -97 -123 -111
-123 -14 -1 -64 -51 -58 -58 4 -3 36 -7 71 -7 36 -1 68 -4 71 -8 4 -4 2 -24
-5 -44 -16 -53 -34 -195 -35 -278 -1 -58 4 -80 28 -129 l29 -59 -26 -22 c-23
-20 -24 -24 -10 -38 15 -14 11 -18 -43 -42 -51 -23 -68 -26 -119 -20 -33 3
-73 6 -90 5 -16 0 -43 5 -58 11 -25 11 -26 13 -12 29 8 9 24 43 35 74 20 58
20 58 0 140 -14 55 -21 124 -23 219 l-4 137 31 0 c40 0 76 10 76 20 0 5 -12
15 -27 22 -16 8 -49 27 -75 42 l-48 28 0 -34 c0 -25 -3 -29 -10 -18 -7 11 -10
3 -10 -30 -1 -44 -1 -44 -15 -20 -14 24 -14 24 -15 3 0 -12 9 -42 20 -68 41
-96 19 -110 -60 -37 -43 39 -53 55 -61 96 -14 79 -26 78 -36 -3 -3 -29 -14
-62 -23 -74 -17 -21 -18 -20 -54 53 -47 97 -50 166 -8 255 43 89 138 183 237
233 107 53 305 136 379 157 79 23 180 16 261 -19 33 -14 56 -25 50 -26 -14 0
93 -57 290 -154 99 -49 205 -110 253 -145 45 -34 87 -61 92 -61 6 0 29 12 53
27 55 35 261 132 359 169 43 16 78 33 78 38 0 5 -7 17 -16 27 -18 21 -16 22
128 84 l86 37 7 47 c8 62 54 133 98 155 59 27 131 36 365 45 216 8 224 9 248
32 21 20 25 30 20 59 -4 19 -13 93 -22 164 -19 164 -45 240 -93 283 -20 18
-39 33 -43 33 -4 0 -19 20 -34 45 -14 25 -29 43 -33 41 -4 -3 -40 -8 -80 -11
-40 -3 -84 -10 -97 -15 -14 -6 -41 -10 -60 -10 -28 0 -34 4 -34 21 0 18 -4 20
-26 15 -14 -4 -45 -15 -68 -25 -73 -33 -108 -41 -182 -41 -59 0 -74 3 -74 15
0 19 -10 19 -82 -1 -53 -15 -60 -15 -82 0 -14 9 -35 16 -46 16 -12 0 -35 7
-52 16 -29 15 -30 18 -26 70 4 51 4 54 -16 48 -36 -11 -38 -10 -55 21 -10 17
-35 39 -56 50 -44 24 -63 64 -64 138 l-1 47 -1725 0 -1725 0 0 -1800z"/>
<path d="M4792 2725 c0 -16 2 -22 5 -12 2 9 2 23 0 30 -3 6 -5 -1 -5 -18z"/>
<path d="M2221 1998 c-7 -24 -14 -48 -17 -54 -8 -18 52 -56 76 -49 18 6 40 58
40 97 0 18 -47 48 -73 48 -9 0 -20 -18 -26 -42z"/>
<path d="M2030 1856 c0 -31 6 -34 13 -6 3 11 1 23 -4 26 -5 3 -9 -6 -9 -20z"/>
</g>
</svg>
