<?xml version="1.0" standalone="no"?>
<!DOCTYPE svg PUBLIC "-//W3C//DTD SVG 20010904//EN"
 "http://www.w3.org/TR/2001/REC-SVG-20010904/DTD/svg10.dtd">
<svg version="1.0" xmlns="http://www.w3.org/2000/svg"
 width="480.000000pt" height="360.000000pt" viewBox="0 0 480.000000 360.000000"
 preserveAspectRatio="xMidYMid meet">
<metadata>
Created by potrace 1.16, written by Peter Selinger 2001-2019
</metadata>
<rect width="1" height="360" fill="#000000"/>
<rect x="479" width="1" height="360" fill="#000000"/>
<rect width="480" height="1" fill="#000000"/>
<rect y="359" width="480" height="1" fill="#000000"/>
<g transform="translate(0.000000,360.000000) scale(0.100000,-0.100000)"
fill="#000000" stroke="none">
<path d="M2940 3534 c-19 -7 -49 -13 -67 -13 -44 -1 -90 -43 -104 -94 -18 -67
-7 -183 24 -250 l26 -57 -63 -29 c-207 -94 -379 -285 -412 -458 -21 -114 -45
-192 -67 -219 -23 -30 -5 -32 23 -2 l20 22 0 -27 c0 -15 5 -27 10 -27 6 0 10
-32 10 -77 0 -67 2 -74 14 -58 12 17 14 15 30 -26 l16 -44 -5 40 -4 40 12 -32
c15 -39 47 -75 47 -53 0 13 2 13 10 0 5 -8 13 -15 18 -15 5 0 24 -15 42 -32
19 -18 35 -31 37 -29 2 2 -3 21 -12 41 -20 50 -11 58 12 11 14 -31 18 -34 24
-19 6 15 8 14 14 -10 11 -42 -3 -94 -36 -131 -36 -41 -31 -59 22 -83 30 -13
41 -25 49 -51 5 -19 28 -52 53 -76 24 -22 56 -61 70 -86 24 -41 25 -50 17
-105 -7 -54 -6 -62 12 -76 17 -13 19 -23 14 -52 -4 -24 -3 -36 6 -39 7 -3 20
-42 29 -89 l17 -84 -23 -60 c-13 -33 -34 -88 -45 -122 l-22 -61 -41 19 c-52
23 -89 24 -129 3 l-31 -16 5 -86 c6 -101 5 -105 -44 -161 l-36 -43 -55 54
c-119 117 -210 194 -259 220 -28 14 -56 35 -61 45 -5 10 -19 28 -30 40 -17 19
-20 37 -22 120 -1 118 -23 190 -71 238 -41 41 -90 51 -189 37 -38 -5 -73 -8
-77 -5 -5 2 -8 22 -8 44 0 28 -4 39 -12 36 -8 -2 -13 -22 -13 -52 l0 -48 -68
-22 c-37 -12 -86 -35 -109 -51 -39 -27 -45 -37 -66 -114 -23 -81 -23 -87 -8
-136 9 -28 16 -62 16 -76 0 -47 30 -111 84 -178 58 -72 96 -93 220 -125 32 -8
60 -16 62 -18 1 -1 -11 -41 -27 -87 -34 -95 -59 -241 -59 -341 0 -36 -8 -99
-19 -140 -10 -41 -22 -93 -26 -117 l-7 -42 513 2 513 3 19 92 c25 118 42 113
34 -8 l-6 -89 639 0 639 0 -21 47 c-24 56 -36 170 -19 200 7 14 28 25 63 33
94 20 184 69 131 70 -13 1 -7 9 20 31 20 17 37 35 37 40 0 5 -27 9 -59 9 -49
0 -78 -8 -171 -50 -62 -28 -114 -50 -115 -50 -2 0 -6 28 -10 63 -4 34 -12 73
-17 87 -5 14 -11 48 -12 75 -2 28 -8 73 -14 101 -11 50 -50 244 -59 299 -3 17
-9 38 -14 47 -13 25 -11 68 4 68 18 -1 47 -25 47 -41 0 -8 13 -41 29 -74 24
-51 29 -57 35 -38 4 11 14 24 22 27 14 6 14 9 -2 34 -14 21 -21 62 -30 182 -6
85 -8 161 -4 168 4 8 19 -19 38 -70 18 -47 39 -93 48 -104 15 -19 16 -19 8 1
-4 11 -7 31 -6 45 1 14 -6 70 -14 125 -29 198 -28 211 9 95 35 -112 91 -241
120 -281 13 -17 16 -18 13 -6 -14 46 -47 221 -44 236 2 9 21 -16 45 -59 43
-77 90 -140 79 -108 -12 37 -26 237 -36 513 -12 318 -28 482 -66 651 -28 126
-83 299 -125 393 -16 36 -32 83 -35 105 -8 58 -32 130 -60 180 -42 76 -136
178 -187 204 -60 31 -173 41 -232 20 -37 -13 -44 -13 -81 6 -23 12 -76 53
-118 93 -42 40 -98 85 -122 100 -25 15 -61 40 -79 56 -36 30 -36 30 -85 11z
m102 -1991 c-14 -12 -28 -21 -30 -19 -1 2 0 34 4 72 l7 69 23 -50 23 -50 -27
-22z"/>
</g>
</svg>
