<?xml version="1.0" standalone="no"?>
<!DOCTYPE svg PUBLIC "-//W3C//DTD SVG 20010904//EN"
 "http://www.w3.org/TR/2001/REC-SVG-20010904/DTD/svg10.dtd">
<svg version="1.0" xmlns="http://www.w3.org/2000/svg"
 width="480.000000pt" height="360.000000pt" viewBox="0 0 480.000000 360.000000"
 preserveAspectRatio="xMidYMid meet">
<metadata>
Created by potrace 1.16, written by Peter Selinger 2001-2019
</metadata>
<rect width="1" height="360" fill="#000000"/>
<rect x="479" width="1" height="360" fill="#000000"/>
<rect width="480" height="1" fill="#000000"/>
<rect y="359" width="480" height="1" fill="#000000"/>
<g transform="translate(0.000000,360.000000) scale(0.100000,-0.100000)"
fill="#000000" stroke="none">
<path d="M0 1800 l0 -1800 680 0 680 0 -46 42 c-55 51 -61 63 -117 274 -44
164 -75 244 -154 388 -35 64 -38 76 -38 150 0 80 14 134 42 168 13 15 6 21
-75 62 -114 60 -153 99 -192 195 -17 42 -35 86 -40 98 -5 12 -28 32 -50 43
-62 31 -80 54 -80 99 l0 39 -73 12 c-106 18 -158 49 -194 119 -30 55 -7 114
53 142 24 10 50 19 59 19 54 0 82 57 64 135 -16 70 -95 155 -145 155 -13 0
-27 7 -32 16 -5 8 -20 21 -33 27 -22 11 -25 20 -31 102 -7 110 -19 164 -49
232 -20 47 -21 55 -9 97 18 67 64 134 96 142 15 4 47 -1 79 -11 29 -10 59 -16
67 -13 8 4 20 26 27 50 10 35 9 52 -3 93 -9 28 -16 59 -16 71 0 27 -91 104
-123 104 -74 0 -89 131 -22 194 53 50 72 134 67 294 l-2 62 -195 0 -195 0 0
-1800z"/>
<path d="M1320 3552 c0 -67 21 -95 66 -86 27 5 45 0 90 -26 l57 -32 55 17 c42
14 62 15 87 8 18 -6 38 -7 45 -3 12 8 60 131 60 155 0 13 -35 15 -230 15
l-230 0 0 -48z"/>
<path d="M1992 3498 c-7 -57 -12 -128 -12 -159 0 -63 26 -149 44 -149 7 0 22
19 34 43 12 24 34 50 49 57 16 8 51 38 78 67 28 29 58 53 66 53 17 0 64 -79
80 -133 10 -35 -8 -139 -42 -233 -10 -28 -21 -95 -25 -150 -3 -54 -13 -111
-20 -126 -8 -16 -14 -58 -14 -102 0 -59 6 -91 31 -157 30 -77 31 -87 25 -172
-3 -49 -11 -96 -16 -103 -15 -17 4 -28 27 -16 23 12 140 -5 171 -24 22 -14 29
-12 120 43 80 48 97 63 104 89 5 22 16 34 32 38 45 11 41 59 -9 92 -33 22 -40
80 -25 201 15 118 4 185 -40 253 -43 66 -48 70 -79 70 -15 0 -36 9 -46 20 -10
11 -24 20 -31 20 -15 0 -86 40 -95 53 -10 14 2 50 24 75 21 22 21 24 5 84
l-17 61 34 104 c19 57 45 124 59 148 14 24 26 46 26 49 0 3 -118 6 -263 6
l-263 0 -12 -102z"/>
<path d="M2650 3596 c0 -2 7 -17 15 -32 8 -16 15 -49 15 -74 1 -63 38 -136 67
-132 23 3 102 -48 117 -76 25 -49 81 -122 93 -122 21 0 91 47 103 70 22 41 30
126 24 247 l-7 123 -214 0 c-117 0 -213 -2 -213 -4z"/>
<path d="M4214 3563 c4 -21 11 -74 15 -118 10 -98 41 -175 70 -175 14 0 27
-13 41 -40 34 -67 71 -44 49 30 -10 34 -9 43 14 84 14 25 28 69 32 98 4 29 13
63 21 76 48 76 97 -60 60 -166 -8 -23 -14 -55 -14 -71 1 -17 -7 -40 -17 -51
-17 -18 -17 -25 -5 -78 16 -72 15 -143 -5 -256 -9 -52 -15 -149 -15 -235 0
-80 -5 -166 -10 -191 -6 -25 -13 -56 -16 -68 -2 -13 -17 -36 -33 -50 -19 -19
-35 -54 -54 -118 -15 -50 -27 -102 -27 -115 0 -27 -24 -67 -52 -87 -15 -11
-18 -28 -18 -105 -1 -149 -24 -183 -222 -312 -59 -38 -107 -72 -108 -75 0 -3
30 -11 66 -17 146 -25 172 -141 42 -183 -21 -6 -38 -15 -38 -20 0 -14 -97
-153 -131 -188 -39 -40 -108 -77 -175 -93 -27 -7 -50 -13 -52 -14 -1 -1 10
-24 25 -51 23 -40 28 -61 28 -114 -1 -57 -8 -83 -59 -200 -65 -153 -81 -208
-130 -445 -20 -94 -38 -180 -42 -192 l-6 -23 676 0 676 0 0 1800 0 1800 -296
0 -297 0 7 -37z"/>
<path d="M506 3515 c-16 -16 -20 -36 -32 -140 -13 -125 7 -216 58 -262 17 -15
44 -40 60 -55 16 -16 33 -28 38 -28 4 0 26 18 49 41 33 33 46 40 65 35 34 -8
50 11 76 91 24 73 29 218 10 268 -10 25 -12 26 -65 20 -38 -5 -60 -4 -70 5 -9
7 -27 10 -45 6 -21 -4 -40 1 -63 14 -39 24 -60 25 -81 5z"/>
<path d="M2605 3310 c-3 -5 -1 -10 4 -10 6 0 11 5 11 10 0 6 -2 10 -4 10 -3 0
-8 -4 -11 -10z"/>
<path d="M4162 2293 c-12 -2 -29 -14 -37 -27 -13 -19 -13 -26 3 -57 21 -44 86
-86 107 -69 29 24 27 60 -6 111 -17 27 -34 48 -38 48 -3 -1 -16 -4 -29 -6z"/>
<path d="M2980 1404 c0 -22 7 -93 15 -159 7 -66 21 -217 30 -335 15 -200 24
-247 39 -222 3 5 10 79 15 163 6 88 17 173 26 198 20 57 19 87 -3 119 -36 54
-81 158 -87 204 -3 25 -13 52 -20 58 -13 11 -15 6 -15 -26z"/>
<path d="M1734 1379 c-44 -47 -79 -69 -115 -73 -24 -2 -38 -11 -49 -30 -16
-29 -62 -57 -77 -47 -5 3 -15 15 -21 26 -6 11 -12 15 -12 8 0 -7 21 -42 46
-78 68 -98 84 -149 95 -305 6 -74 13 -138 17 -142 4 -4 28 -2 54 4 54 13 52 9
63 153 9 117 45 437 51 458 6 19 -4 57 -15 57 -4 0 -20 -14 -37 -31z"/>
<path d="M1624 15 c-19 -14 -18 -14 4 -15 13 0 22 6 22 15 0 19 -1 19 -26 0z"/>
</g>
</svg>
