<?xml version="1.0" standalone="no"?>
<!DOCTYPE svg PUBLIC "-//W3C//DTD SVG 20010904//EN"
 "http://www.w3.org/TR/2001/REC-SVG-20010904/DTD/svg10.dtd">
<svg version="1.0" xmlns="http://www.w3.org/2000/svg"
 width="480.000000pt" height="360.000000pt" viewBox="0 0 480.000000 360.000000"
 preserveAspectRatio="xMidYMid meet">
<metadata>
Created by potrace 1.16, written by Peter Selinger 2001-2019
</metadata>
<rect width="1" height="360" fill="#000000"/>
<rect x="479" width="1" height="360" fill="#000000"/>
<rect width="480" height="1" fill="#000000"/>
<rect y="359" width="480" height="1" fill="#000000"/>
<g transform="translate(0.000000,360.000000) scale(0.100000,-0.100000)"
fill="#000000" stroke="none">
<path d="M1026 3588 c-3 -7 -7 -35 -10 -61 -3 -26 -20 -82 -36 -125 -30 -73
-31 -79 -21 -151 10 -77 61 -327 81 -391 16 -54 12 -95 -19 -236 -34 -149 -56
-305 -47 -337 4 -12 21 -40 40 -61 26 -30 38 -37 52 -31 11 4 37 9 59 11 36 4
48 -1 108 -47 37 -29 70 -62 73 -73 3 -12 -2 -41 -11 -65 -20 -57 -19 -73 7
-129 12 -26 22 -63 22 -83 1 -33 -8 -45 -90 -125 -111 -109 -174 -196 -223
-311 -20 -48 -54 -110 -75 -137 -151 -198 -138 -450 29 -536 56 -29 82 -65 91
-130 11 -68 -14 -421 -36 -501 l-18 -69 418 0 417 0 6 57 c6 55 69 325 101
437 19 63 36 82 64 67 28 -15 72 -84 72 -114 0 -29 -57 -162 -145 -339 l-53
-108 819 0 819 0 0 28 c0 64 -51 190 -112 279 -70 103 -80 136 -86 280 -5 127
-4 136 17 164 17 22 24 53 31 122 22 209 33 250 69 262 21 6 35 43 45 114 13
88 30 95 163 67 131 -28 354 -56 442 -56 103 0 127 12 141 73 10 46 -4 166
-24 206 -36 69 -154 152 -408 286 -168 89 -176 99 -188 211 -5 49 -10 156 -10
238 l0 148 54 50 c38 34 60 64 70 96 20 58 20 154 0 221 -24 81 -106 161 -165
161 -12 0 -70 22 -128 49 -58 27 -140 57 -181 66 -113 26 -170 41 -220 60
-107 40 -220 -25 -266 -152 -8 -23 -13 -82 -14 -146 0 -85 -4 -116 -19 -145
-16 -31 -109 -280 -153 -406 -7 -22 -25 -52 -40 -68 l-28 -30 -181 6 c-100 3
-183 7 -185 9 -14 14 15 38 62 53 43 13 57 14 69 4 25 -20 142 65 183 133 59
98 112 268 112 362 0 122 -99 369 -226 560 -39 59 -56 96 -65 143 -6 34 -24
82 -40 107 l-29 45 -590 0 c-464 0 -591 -3 -594 -12z"/>
</g>
</svg>
