<?xml version="1.0" standalone="no"?>
<!DOCTYPE svg PUBLIC "-//W3C//DTD SVG 20010904//EN"
 "http://www.w3.org/TR/2001/REC-SVG-20010904/DTD/svg10.dtd">
<svg version="1.0" xmlns="http://www.w3.org/2000/svg"
 width="480.000000pt" height="360.000000pt" viewBox="0 0 480.000000 360.000000"
 preserveAspectRatio="xMidYMid meet">
<metadata>
Created by potrace 1.16, written by Peter Selinger 2001-2019
</metadata>
<rect width="1" height="360" fill="#000000"/>
<rect x="479" width="1" height="360" fill="#000000"/>
<rect width="480" height="1" fill="#000000"/>
<rect y="359" width="480" height="1" fill="#000000"/>
<g transform="translate(0.000000,360.000000) scale(0.100000,-0.100000)"
fill="#000000" stroke="none">
<path d="M861 3553 c-5 -27 -13 -77 -16 -113 -12 -124 -18 -136 -81 -159 -30
-12 -57 -21 -61 -21 -3 0 -45 -16 -92 -36 -99 -43 -141 -76 -141 -114 0 -37
54 -114 106 -152 24 -17 44 -35 44 -40 0 -4 -17 -18 -37 -32 -43 -27 -191
-143 -243 -192 -19 -17 -47 -42 -61 -55 -35 -32 -42 -65 -18 -82 13 -9 17 -21
13 -40 -4 -25 -2 -27 30 -27 24 0 38 6 48 23 28 41 173 177 238 222 36 24 75
45 88 45 20 0 22 -4 22 -60 0 -45 4 -61 17 -69 13 -7 15 -12 5 -23 -13 -17 -3
-137 23 -267 35 -171 -3 -325 -121 -483 -52 -72 -65 -94 -98 -171 -19 -45
-134 -222 -186 -287 -95 -119 -164 -245 -189 -345 -7 -27 -26 -74 -42 -104
-32 -61 -36 -102 -15 -158 8 -21 20 -63 26 -94 17 -86 54 -115 479 -376 36
-22 67 -33 92 -33 56 0 85 -29 92 -92 3 -29 15 -73 26 -98 11 -25 21 -62 21
-82 l0 -38 195 0 c168 0 196 2 202 16 9 25 -18 64 -59 85 -21 11 -44 29 -52
42 -13 21 -52 186 -44 191 2 2 28 8 58 14 64 12 65 11 74 -62 3 -28 12 -74 21
-102 l15 -52 120 -66 119 -66 218 0 218 0 46 63 c26 34 71 100 100 147 53 83
54 84 57 52 2 -18 -6 -69 -17 -114 -12 -45 -21 -97 -21 -115 l0 -33 99 0 c55
0 102 4 105 9 9 13 9 46 0 129 -10 99 14 427 33 470 16 34 96 111 148 143 17
11 42 19 58 19 32 0 35 -16 12 -80 -21 -59 -19 -146 5 -198 10 -23 39 -70 64
-105 24 -34 49 -80 54 -102 9 -34 32 -230 32 -272 0 -11 125 -13 700 -13 l700
0 6 27 c16 64 -7 380 -49 663 -38 262 -42 301 -41 480 0 136 5 222 17 285 56
308 61 633 14 835 -28 120 -70 236 -96 265 -10 11 -30 51 -46 89 -38 92 -129
190 -223 239 -116 61 -171 71 -405 72 -188 1 -209 0 -224 -17 -9 -10 -22 -18
-30 -18 -8 0 -38 -11 -68 -25 -66 -32 -147 -116 -234 -245 -35 -52 -75 -107
-89 -122 -37 -40 -22 -43 28 -6 35 26 42 29 37 13 -30 -77 -40 -119 -29 -123
7 -2 12 -18 13 -35 0 -18 7 -54 14 -82 11 -42 13 -45 14 -20 l2 30 20 -37 c22
-42 40 -51 32 -15 -5 21 -4 20 22 -6 23 -25 26 -32 17 -52 -6 -13 -24 -31 -40
-39 -43 -22 -45 -40 -11 -83 25 -30 29 -44 24 -70 -3 -18 0 -42 6 -55 29 -55
33 -65 44 -107 12 -49 22 -57 77 -66 36 -6 37 -7 31 -38 -8 -44 -15 -49 -52
-36 -47 16 -47 6 -1 -25 22 -14 40 -28 40 -31 0 -5 -30 -136 -36 -156 -2 -8
-24 -29 -48 -46 -30 -21 -48 -43 -56 -70 -17 -51 -25 -60 -82 -89 l-47 -24
-53 50 c-29 27 -59 50 -67 50 -25 0 -76 -46 -116 -104 -21 -31 -40 -55 -41
-53 -5 5 26 219 37 258 9 29 9 59 1 121 -25 175 -9 806 24 979 17 86 17 87 -5
117 -41 58 -140 67 -181 15 -24 -31 -25 -51 -4 -140 15 -61 15 -107 4 -458 -6
-214 -16 -424 -21 -465 -6 -41 -14 -184 -18 -317 -9 -258 -10 -261 -62 -288
-27 -14 -28 -14 -65 38 -108 151 -369 487 -379 487 -6 0 -22 -11 -35 -25 -13
-14 -29 -24 -36 -23 -23 6 -128 137 -218 273 -51 77 -113 163 -137 192 -24 28
-52 65 -62 81 l-17 30 37 12 c21 7 42 16 46 20 11 10 -41 50 -64 50 -23 0 -23
3 -4 41 15 29 12 55 -5 44 -19 -11 -18 14 2 79 11 37 27 70 34 73 10 4 12 21
8 76 -6 64 -3 79 21 137 15 36 31 95 35 132 6 53 17 83 58 155 80 139 92 181
83 269 -6 50 -17 88 -35 119 l-27 45 68 0 c37 0 79 6 93 13 22 11 25 19 26 70
1 57 1 59 -48 105 -61 58 -70 61 -166 63 -57 1 -93 -5 -137 -21 -86 -31 -95
-30 -114 7 l-16 33 -107 0 -106 0 -11 -47z m-191 -468 c0 -9 -7 -29 -15 -45
-11 -21 -12 -36 -5 -54 7 -18 6 -26 -2 -26 -35 0 -52 95 -22 124 20 20 44 21
44 1z"/>
</g>
</svg>
