<?xml version="1.0" standalone="no"?>
<!DOCTYPE svg PUBLIC "-//W3C//DTD SVG 20010904//EN"
 "http://www.w3.org/TR/2001/REC-SVG-20010904/DTD/svg10.dtd">
<svg version="1.0" xmlns="http://www.w3.org/2000/svg"
 width="480.000000pt" height="360.000000pt" viewBox="0 0 480.000000 360.000000"
 preserveAspectRatio="xMidYMid meet">
<metadata>
Created by potrace 1.16, written by Peter Selinger 2001-2019
</metadata>
<rect width="1" height="360" fill="#000000"/>
<rect x="479" width="1" height="360" fill="#000000"/>
<rect width="480" height="1" fill="#000000"/>
<rect y="359" width="480" height="1" fill="#000000"/>
<g transform="translate(0.000000,360.000000) scale(0.100000,-0.100000)"
fill="#000000" stroke="none">
<path d="M253 3553 c-60 -73 -166 -220 -212 -296 l-41 -67 0 -350 c0 -193 3
-350 6 -350 3 0 38 32 76 70 122 122 322 244 498 303 263 89 492 106 740 53
69 -15 139 -33 155 -41 17 -7 57 -24 90 -36 217 -81 460 -283 613 -508 85
-124 171 -327 197 -461 59 -307 103 -431 218 -616 165 -262 471 -496 764 -583
275 -81 582 -79 833 7 114 39 314 137 373 184 27 21 52 38 55 38 4 0 46 38 95
84 l87 83 0 1055 0 1054 -78 120 c-44 65 -111 161 -151 212 l-72 92 -2103 0
-2104 0 -39 -47z m3587 -1272 c111 -57 168 -150 177 -293 5 -80 4 -93 -18
-136 -13 -26 -49 -72 -81 -103 -89 -87 -193 -109 -328 -69 -57 17 -75 28 -123
78 -65 69 -87 127 -89 240 -1 59 4 80 26 124 34 66 41 75 91 114 80 62 122 74
230 70 48 -2 84 -10 115 -25z"/>
<path d="M1060 1991 c-80 -11 -139 -41 -201 -102 -69 -68 -100 -133 -107 -221
-18 -252 137 -422 382 -420 94 1 173 40 249 122 66 71 97 144 97 230 0 168
-68 289 -200 355 -74 37 -136 47 -220 36z"/>
<path d="M4774 368 c-27 -53 -126 -197 -193 -281 -33 -42 -61 -79 -61 -82 0
-3 63 -5 140 -5 l140 0 0 200 c0 110 -2 200 -5 200 -2 0 -12 -15 -21 -32z"/>
<path d="M0 197 l0 -197 141 0 141 0 -68 87 c-38 48 -101 137 -141 197 l-73
110 0 -197z"/>
</g>
</svg>
