<?xml version="1.0" standalone="no"?>
<!DOCTYPE svg PUBLIC "-//W3C//DTD SVG 20010904//EN"
 "http://www.w3.org/TR/2001/REC-SVG-20010904/DTD/svg10.dtd">
<svg version="1.0" xmlns="http://www.w3.org/2000/svg"
 width="480.000000pt" height="360.000000pt" viewBox="0 0 480.000000 360.000000"
 preserveAspectRatio="xMidYMid meet">
<metadata>
Created by potrace 1.16, written by Peter Selinger 2001-2019
</metadata>
<rect width="1" height="360" fill="#000000"/>
<rect x="479" width="1" height="360" fill="#000000"/>
<rect width="480" height="1" fill="#000000"/>
<rect y="359" width="480" height="1" fill="#000000"/>
<g transform="translate(0.000000,360.000000) scale(0.100000,-0.100000)"
fill="#000000" stroke="none">
<path d="M0 1800 l0 -1800 238 0 239 0 69 87 c98 123 109 142 123 197 10 41
10 51 -3 65 -9 9 -21 39 -27 67 -10 43 -9 55 5 82 11 21 15 44 11 65 -5 25 -2
37 13 50 21 19 18 58 -6 104 -16 28 -15 30 6 36 21 5 32 44 32 109 0 34 4 40
29 49 25 9 31 19 40 58 5 25 19 68 30 94 18 41 18 49 6 53 -11 5 -15 22 -15
60 0 52 2 55 42 84 59 43 78 79 79 153 3 159 0 190 -13 184 -7 -3 -30 -12 -50
-21 -21 -9 -38 -14 -38 -11 0 3 17 29 37 57 l36 53 -46 -45 c-51 -48 -55 -45
-32 19 14 41 10 52 -13 29 -21 -21 -14 10 14 57 l25 44 -37 3 -38 3 50 31 c62
38 74 72 81 235 l6 117 -54 11 c-58 12 -231 61 -238 67 -2 2 4 21 13 42 l17
38 -31 51 c-23 36 -31 60 -28 84 3 34 3 34 64 39 47 4 68 11 93 33 19 15 51
37 73 48 37 19 38 21 31 57 -29 134 59 401 174 531 111 126 221 169 458 178
l160 6 105 101 c58 56 119 112 135 124 l30 21 -947 1 -948 0 0 -1800z"/>
<path d="M1950 3595 c0 -3 8 -22 19 -43 10 -20 26 -64 35 -97 57 -200 52 -190
116 -229 82 -51 192 -172 235 -259 69 -141 93 -310 59 -410 -15 -46 -15 -48 9
-92 14 -24 31 -61 37 -82 7 -21 24 -60 37 -87 25 -49 25 -49 5 -75 -10 -14
-29 -27 -41 -29 -11 -2 -21 -6 -21 -10 0 -4 17 -56 37 -117 70 -205 235 -494
297 -520 33 -14 66 -46 84 -81 18 -34 2 -36 -37 -5 -20 16 -58 39 -83 52 l-47
23 -65 -62 c-77 -74 -108 -80 -175 -32 -23 17 -62 40 -87 53 -39 18 -46 19
-54 7 -8 -13 -11 -12 -23 4 -17 24 -37 13 -37 -20 0 -13 -4 -32 -9 -42 -6 -9
-13 -30 -17 -47 -6 -26 -8 -22 -15 34 -5 35 -10 66 -13 68 -2 3 -42 -15 -88
-40 -95 -53 -104 -41 82 -102 158 -51 184 -63 223 -99 27 -25 35 -41 41 -84 4
-29 2 -60 -3 -70 -7 -13 -2 -33 20 -78 16 -33 39 -100 51 -150 l22 -91 43 5
c50 5 51 4 22 -81 -11 -34 -21 -87 -22 -118 -2 -49 2 -63 29 -100 17 -24 48
-52 67 -61 39 -19 41 -42 5 -51 -16 -5 -19 -11 -14 -31 5 -19 1 -29 -16 -40
l-22 -16 18 -70 c10 -39 28 -103 41 -143 l22 -72 1042 -3 1041 -2 0 1800 0
1800 -1425 0 c-784 0 -1425 -2 -1425 -5z m510 -59 c-18 -23 -50 -20 -50 4 0
27 31 43 49 25 12 -11 12 -17 1 -29z m1758 -1072 c30 -21 28 -34 -7 -34 -35 0
-56 21 -39 38 15 15 19 15 46 -4z m-1183 -694 c-3 -5 -10 -10 -16 -10 -5 0 -9
5 -9 10 0 6 7 10 16 10 8 0 12 -4 9 -10z m474 -73 c12 -16 5 -27 -18 -27 -9 0
-29 -7 -45 -15 -34 -18 -36 -18 -36 -5 0 17 51 60 70 60 10 0 23 -6 29 -13z
m-701 -114 c2 -8 -6 -13 -22 -13 -26 0 -40 12 -29 24 11 11 46 2 51 -11z m582
-583 c12 -8 12 -10 -3 -16 -22 -8 -50 3 -42 16 8 12 25 13 45 0z"/>
<path d="M955 1359 c-11 -17 1 -21 15 -4 8 9 8 15 2 15 -6 0 -14 -5 -17 -11z"/>
<path d="M2176 184 c-23 -23 -19 -35 30 -78 l44 -39 0 67 0 66 -29 0 c-16 0
-37 -7 -45 -16z"/>
</g>
</svg>
