<?xml version="1.0" standalone="no"?>
<!DOCTYPE svg PUBLIC "-//W3C//DTD SVG 20010904//EN"
 "http://www.w3.org/TR/2001/REC-SVG-20010904/DTD/svg10.dtd">
<svg version="1.0" xmlns="http://www.w3.org/2000/svg"
 width="480.000000pt" height="360.000000pt" viewBox="0 0 480.000000 360.000000"
 preserveAspectRatio="xMidYMid meet">
<metadata>
Created by potrace 1.16, written by Peter Selinger 2001-2019
</metadata>
<rect width="1" height="360" fill="#000000"/>
<rect x="479" width="1" height="360" fill="#000000"/>
<rect width="480" height="1" fill="#000000"/>
<rect y="359" width="480" height="1" fill="#000000"/>
<g transform="translate(0.000000,360.000000) scale(0.100000,-0.100000)"
fill="#000000" stroke="none">
<path d="M0 2629 l0 -971 28 18 c84 54 181 134 289 237 67 64 126 117 130 117
15 0 400 -175 468 -213 261 -146 301 -160 435 -159 68 0 123 7 194 26 54 14
102 24 106 21 3 -2 39 -13 79 -24 l73 -20 23 25 c12 13 53 67 90 119 74 105
128 150 225 189 36 15 76 35 89 45 22 17 23 20 11 57 -7 21 -23 50 -36 64 -14
14 -33 35 -43 47 -18 22 -18 22 -25 -63 -7 -99 -25 -147 -26 -74 l-2 45 -11
-30 c-11 -28 -12 -26 -17 40 -6 77 -12 72 -30 -22 -13 -64 -37 -91 -27 -30 8
51 -24 236 -40 230 -8 -3 -19 9 -29 33 -17 41 -16 41 -51 -13 -10 -15 -12 -11
-12 30 l-1 47 -40 -20 c-55 -28 -56 -26 -17 23 37 45 57 79 57 96 0 16 -46 13
-60 -4 -10 -13 -17 -12 -51 5 -23 12 -48 18 -62 15 -16 -4 -29 1 -47 21 l-25
26 25 17 c55 35 130 115 156 166 l28 53 -17 54 c-21 67 -21 112 -2 203 22 102
67 188 122 230 90 69 221 98 344 77 43 -8 77 -8 104 -2 74 18 235 13 310 -11
87 -26 167 -99 210 -188 28 -60 29 -60 44 -38 53 77 138 58 254 -57 66 -64 77
-89 111 -236 8 -36 18 -75 22 -87 5 -18 -1 -26 -30 -44 -22 -13 -36 -29 -36
-40 0 -11 -7 -33 -15 -50 -11 -20 -13 -35 -6 -47 14 -26 47 -164 65 -270 18
-104 15 -128 -36 -277 -34 -101 -43 -116 -64 -108 -10 4 -14 -3 -14 -26 0 -17
-4 -31 -10 -31 -5 0 -10 -7 -10 -16 0 -8 -5 -12 -10 -9 -5 3 -10 15 -10 26 0
10 -4 19 -10 19 -5 0 -11 15 -11 33 l-2 32 -6 -34 c-10 -54 -28 -49 -37 11 -7
53 -7 53 -16 20 -12 -45 -24 -33 -31 30 -4 29 -21 94 -39 143 -29 80 -32 102
-32 193 0 65 -4 102 -10 102 -6 0 -22 3 -35 7 -23 6 -23 4 -17 -30 5 -25 3
-37 -5 -37 -6 0 -9 -8 -6 -20 9 -35 -11 -32 -35 4 -13 20 -26 36 -29 36 -3 0
-11 -12 -18 -27 -9 -20 -15 -23 -20 -14 -5 7 -11 9 -13 5 -14 -25 -42 -125
-48 -174 -7 -52 -7 -53 -15 -23 -10 45 -20 34 -35 -37 -17 -81 -29 -85 -25 -8
l4 63 -11 -62 c-18 -102 -31 -76 -26 48 l6 110 -23 -33 c-13 -18 -34 -43 -48
-54 -30 -26 -45 -91 -25 -110 7 -7 54 -33 103 -58 108 -55 117 -63 180 -146
134 -174 139 -180 168 -180 16 0 57 8 92 17 61 16 65 16 136 -5 230 -66 326
-51 588 91 125 67 167 87 366 172 72 31 136 58 142 61 7 4 69 -49 140 -118
114 -109 295 -258 315 -258 5 0 8 446 8 990 l0 990 -2400 0 -2400 0 0 -971z"/>
<path d="M2950 2586 c-41 -92 -40 -119 7 -151 l38 -25 8 23 c12 31 3 195 -11
209 -9 9 -19 -5 -42 -56z"/>
<path d="M3021 2234 c0 -11 3 -14 6 -6 3 7 2 16 -1 19 -3 4 -6 -2 -5 -13z"/>
<path d="M3252 1998 c-1 -25 -5 -55 -8 -65 -5 -17 -5 -17 6 0 6 9 9 39 7 65
l-3 47 -2 -47z"/>
<path d="M404 1845 c-45 -53 -46 -56 -29 -75 10 -11 15 -26 11 -35 -4 -10 2
-19 18 -26 13 -6 40 -41 61 -78 l37 -66 -37 -225 c-20 -124 -40 -236 -46 -249
-17 -42 -13 -51 -155 336 l-37 102 17 63 c10 35 26 75 37 91 28 39 14 33 -44
-19 -28 -25 -86 -69 -129 -97 -58 -38 -78 -57 -78 -74 0 -13 8 -24 20 -28 26
-8 90 -123 90 -162 0 -32 -57 -416 -66 -445 -9 -30 -23 -20 -48 34 l-24 53 -1
-472 -1 -473 879 0 879 0 21 83 c42 158 92 303 142 407 43 90 50 112 47 155
-2 28 1 98 5 157 6 66 5 113 -1 124 -8 14 -10 10 -16 -19 -8 -44 -23 -55 -40
-31 -13 17 -14 16 -21 -6 -10 -31 -78 -104 -140 -150 -100 -74 -429 -282 -489
-310 -70 -32 -183 -78 -306 -125 -79 -30 -90 -32 -155 -25 -138 16 -358 131
-293 152 7 3 33 1 58 -4 64 -13 138 -2 263 39 87 28 110 39 119 59 16 35 0 47
-40 32 -27 -11 -34 -10 -49 4 -14 15 -14 19 -2 34 24 29 75 44 151 44 64 -1
97 -8 159 -34 12 -5 74 38 221 157 l204 163 -94 229 -94 228 12 66 c7 36 20
78 31 93 33 48 18 58 -86 58 -51 0 -113 -3 -139 -6 -42 -6 -45 -9 -33 -23 29
-34 67 -115 67 -142 0 -32 -57 -424 -66 -451 -7 -23 -21 -23 -33 1 -6 10 -44
113 -86 228 l-75 210 21 69 c11 38 29 78 38 89 28 33 15 61 -54 110 -53 38
-200 115 -219 115 -3 0 -6 -7 -6 -15 0 -8 4 -15 8 -15 4 0 24 -33 45 -72 l36
-73 -40 -235 c-22 -129 -44 -239 -50 -244 -6 -6 -12 -6 -18 0 -5 5 -44 111
-86 236 l-77 226 22 69 c13 37 28 75 35 83 18 22 28 70 15 70 -6 0 -52 20
-101 45 -49 25 -96 45 -104 45 -7 0 -35 -25 -61 -55z"/>
<path d="M4223 1826 c-107 -54 -118 -69 -84 -109 8 -10 27 -48 41 -86 l27 -68
-54 -204 c-81 -314 -88 -332 -108 -299 -8 13 -105 480 -105 507 0 27 44 130
67 155 49 54 -64 17 -189 -62 -79 -49 -93 -62 -95 -86 -1 -16 6 -38 16 -49 10
-11 28 -49 40 -83 l23 -64 -72 -241 c-40 -133 -77 -251 -82 -261 -10 -18 -11
-18 -20 -1 -12 20 -88 455 -88 502 0 38 54 163 72 164 7 1 -21 7 -62 15 -170
29 -263 9 -211 -47 18 -19 41 -107 41 -155 0 -12 -20 -69 -44 -126 -112 -267
-137 -331 -129 -338 20 -17 293 -209 312 -220 15 -7 44 -9 86 -5 103 11 261
-35 279 -82 3 -7 -2 -19 -10 -28 -13 -13 -19 -13 -50 0 -30 12 -36 12 -40 0
-11 -27 17 -54 98 -98 94 -51 181 -77 259 -77 78 0 91 -12 55 -49 -31 -33 -54
-42 -154 -61 -54 -11 -74 -10 -145 5 -91 19 -124 34 -241 108 -44 27 -102 57
-130 67 -70 24 -153 66 -346 177 -229 132 -261 158 -301 238 l-32 65 -20 -32
c-17 -28 -18 -41 -11 -98 5 -36 9 -96 9 -135 1 -63 7 -81 52 -175 58 -120 89
-206 134 -373 l31 -117 879 0 879 0 -2 398 -3 397 -62 223 c-35 123 -63 231
-63 241 0 28 41 123 65 151 39 45 31 65 -46 116 -38 25 -93 68 -123 95 -52 48
-86 67 -53 31 10 -10 29 -47 43 -82 l25 -63 -56 -231 c-59 -245 -69 -276 -85
-276 -5 0 -16 24 -24 53 -28 101 -106 436 -106 455 0 32 42 125 70 157 15 17
25 36 23 43 -3 7 3 22 12 32 17 18 16 22 -25 72 -23 29 -47 56 -53 59 -7 3
-58 -17 -114 -45z"/>
<path d="M1570 1570 c-13 -8 -12 -12 7 -25 12 -9 38 -44 57 -78 l35 -63 -20
-209 c-11 -116 -19 -222 -17 -237 l3 -27 40 28 c37 25 40 31 47 87 7 68 31
168 56 233 11 32 13 46 5 48 -20 7 -63 44 -63 54 0 6 14 24 30 41 l30 30 -20
25 c-11 14 -20 40 -20 58 0 31 -1 32 -52 39 -72 8 -100 7 -118 -4z"/>
<path d="M3107 1563 c-56 -4 -57 -5 -51 -29 5 -18 0 -34 -15 -54 -16 -23 -19
-34 -11 -54 5 -13 16 -28 25 -33 22 -13 9 -40 -26 -59 -16 -8 -29 -19 -29 -24
0 -5 11 -55 25 -112 14 -57 25 -128 25 -158 l0 -55 52 -28 51 -29 -7 103 c-3
56 -9 161 -13 233 l-6 131 33 58 c18 32 44 65 57 74 42 28 -4 42 -110 36z"/>
</g>
</svg>
