<?xml version="1.0" standalone="no"?>
<!DOCTYPE svg PUBLIC "-//W3C//DTD SVG 20010904//EN"
 "http://www.w3.org/TR/2001/REC-SVG-20010904/DTD/svg10.dtd">
<svg version="1.0" xmlns="http://www.w3.org/2000/svg"
 width="480.000000pt" height="360.000000pt" viewBox="0 0 480.000000 360.000000"
 preserveAspectRatio="xMidYMid meet">
<metadata>
Created by potrace 1.16, written by Peter Selinger 2001-2019
</metadata>
<rect width="1" height="360" fill="#000000"/>
<rect x="479" width="1" height="360" fill="#000000"/>
<rect width="480" height="1" fill="#000000"/>
<rect y="359" width="480" height="1" fill="#000000"/>
<g transform="translate(0.000000,360.000000) scale(0.100000,-0.100000)"
fill="#000000" stroke="none">
<path d="M1843 2804 c-3 -9 1 -37 10 -63 63 -176 104 -465 72 -501 -13 -14
-12 -25 6 -85 19 -64 41 -97 70 -107 16 -5 42 -148 29 -163 -11 -14 5 -82 26
-106 20 -22 17 -34 -11 -47 -34 -16 -31 -27 7 -38 32 -10 33 -11 56 -119 15
-72 23 -151 25 -230 l2 -120 -25 0 c-25 0 -26 -3 -22 -54 1 -11 14 -33 28 -50
26 -31 26 -32 21 -174 -5 -157 -11 -205 -27 -221 -11 -11 -13 -49 -4 -96 8
-40 138 -170 171 -170 12 0 29 -10 37 -22 11 -16 18 -18 28 -10 7 5 30 13 51
17 29 6 46 17 68 48 16 22 29 49 29 60 0 15 3 17 13 9 10 -9 11 1 6 51 -6 66
-4 81 11 57 5 -8 12 -11 16 -7 4 4 0 15 -8 24 -31 35 -26 66 19 107 77 69 100
155 67 247 -12 36 -13 50 -3 81 17 51 6 141 -24 214 -23 53 -27 82 -34 231 -9
196 -8 207 17 200 16 -4 17 -1 9 21 -5 14 -9 60 -7 101 1 42 -1 85 -6 95 -8
16 -6 18 8 13 13 -5 11 1 -8 24 -31 36 -29 22 -30 189 -1 117 -4 141 -24 180
-25 53 -94 110 -133 110 -62 0 -129 -49 -177 -130 -17 -29 -19 -43 -12 -74 4
-20 16 -43 26 -50 15 -11 13 -12 -15 -8 -21 3 -38 -1 -51 -13 -23 -21 -40 -12
-40 21 0 36 -17 63 -46 74 -13 5 -27 18 -31 27 -3 10 -14 27 -23 38 -18 21
-59 177 -88 335 -17 91 -19 95 -45 98 -18 2 -29 -2 -34 -14z m355 -719 c2 -2
-1 -12 -7 -24 -9 -15 -7 -31 9 -71 31 -79 28 -95 -20 -97 -70 -4 -85 8 -104
81 -9 36 -16 71 -16 78 0 27 117 55 138 33z m-3 -472 c-4 -31 -10 -66 -15 -77
-6 -18 -9 -16 -19 19 -6 22 -14 57 -17 78 -6 36 -6 37 26 37 l32 0 -7 -57z"/>
</g>
</svg>
