<?xml version="1.0" standalone="no"?>
<!DOCTYPE svg PUBLIC "-//W3C//DTD SVG 20010904//EN"
 "http://www.w3.org/TR/2001/REC-SVG-20010904/DTD/svg10.dtd">
<svg version="1.0" xmlns="http://www.w3.org/2000/svg"
 width="480.000000pt" height="360.000000pt" viewBox="0 0 480.000000 360.000000"
 preserveAspectRatio="xMidYMid meet">
<metadata>
Created by potrace 1.16, written by Peter Selinger 2001-2019
</metadata>
<rect width="1" height="360" fill="#000000"/>
<rect x="479" width="1" height="360" fill="#000000"/>
<rect width="480" height="1" fill="#000000"/>
<rect y="359" width="480" height="1" fill="#000000"/>
<g transform="translate(0.000000,360.000000) scale(0.100000,-0.100000)"
fill="#000000" stroke="none">
<path d="M1315 2860 c-10 -22 -29 -47 -42 -55 -19 -13 -22 -19 -13 -30 8 -10
8 -15 0 -20 -6 -4 -9 -14 -6 -22 10 -24 -13 -93 -50 -153 -37 -60 -59 -120
-43 -120 5 0 15 -15 23 -32 11 -25 15 -28 15 -13 2 19 2 19 12 1 9 -15 13 -16
20 -5 7 11 14 8 30 -13 11 -15 38 -37 60 -50 47 -26 51 -48 10 -48 -16 0 -37
-7 -45 -16 -15 -14 -15 -18 1 -45 l17 -28 -61 -56 c-34 -31 -65 -66 -69 -78
-3 -12 -19 -35 -34 -52 -59 -62 -62 -126 -7 -170 18 -14 38 -30 45 -36 9 -7
11 -32 6 -92 -6 -80 -29 -139 -72 -189 -9 -11 -12 -27 -8 -42 4 -15 -4 -51
-19 -94 -14 -38 -25 -78 -25 -88 -1 -11 -7 -30 -14 -44 -9 -15 -11 -31 -6 -40
5 -9 0 -46 -10 -88 -10 -40 -28 -144 -40 -230 -12 -86 -30 -211 -40 -277 -11
-66 -28 -214 -39 -330 -12 -116 -23 -231 -27 -257 l-6 -48 481 0 c265 0 481 1
481 3 0 1 -11 79 -25 172 -13 94 -31 258 -40 365 -17 211 -44 364 -101 560
-20 69 -36 134 -36 145 1 41 42 193 76 280 20 49 36 104 36 120 0 17 -11 70
-25 119 -19 65 -23 91 -15 101 7 8 7 15 1 19 -5 3 -7 15 -4 25 3 10 0 22 -6
26 -8 4 -9 27 -5 69 6 59 4 66 -40 153 -25 50 -50 94 -56 98 -17 11 -11 25 12
25 12 0 32 9 44 21 26 24 45 18 37 -11 -5 -19 -3 -20 23 -8 16 6 35 19 42 27
10 12 12 12 12 1 0 -25 51 59 57 93 3 20 -6 67 -22 122 -15 50 -29 108 -32
130 -4 30 -20 55 -67 108 -71 80 -108 102 -191 112 -33 4 -68 11 -78 17 -12 6
-27 4 -49 -6 -38 -19 -38 -19 -38 -1 0 27 -17 16 -35 -25z m295 -542 c0 -16
-3 -19 -11 -11 -6 6 -8 16 -5 22 11 17 16 13 16 -11z"/>
<path d="M3538 2169 c-39 -40 -187 -169 -194 -169 -2 0 -37 9 -76 20 -40 11
-79 20 -88 20 -25 0 -72 -43 -65 -61 3 -8 39 -42 81 -74 50 -40 71 -62 64 -69
-18 -18 -11 -71 12 -96 19 -20 19 -24 6 -34 -24 -18 -18 -104 10 -126 21 -17
21 -19 6 -63 -13 -39 -20 -46 -50 -52 -30 -5 -38 -13 -58 -58 -12 -29 -55
-101 -94 -160 -40 -60 -72 -113 -72 -117 0 -5 16 -64 35 -132 26 -91 42 -128
60 -143 42 -35 48 -68 30 -169 -8 -50 -19 -136 -25 -191 -6 -55 -15 -125 -22
-156 -10 -50 -9 -58 8 -82 10 -14 29 -31 42 -38 19 -11 22 -21 24 -78 1 -36 1
-83 0 -103 l-2 -38 69 0 69 0 7 42 c21 135 50 142 75 21 l13 -63 73 0 73 0 6
48 c3 26 7 53 8 61 1 8 24 19 50 26 87 22 87 20 39 212 -50 202 -76 353 -67
392 3 16 17 36 30 45 13 8 29 32 35 53 7 21 30 73 51 115 22 43 39 91 39 108
0 17 -20 77 -44 133 -25 56 -56 134 -71 174 -25 71 -25 72 -9 137 22 86 30 92
83 57 61 -40 117 -65 135 -58 8 3 18 22 22 42 6 32 1 43 -45 105 -28 39 -51
77 -51 85 0 7 22 69 50 137 27 68 50 133 50 145 0 56 -155 173 -240 181 -45 4
-52 2 -82 -29z m51 -1050 c1 -14 -56 -65 -64 -57 -3 3 3 40 22 128 5 24 6 23
23 -15 10 -22 19 -47 19 -56z m-383 46 c-4 -14 -11 -25 -16 -25 -13 0 -13 16
1 42 14 26 23 16 15 -17z"/>
</g>
</svg>
