<?xml version="1.0" standalone="no"?>
<!DOCTYPE svg PUBLIC "-//W3C//DTD SVG 20010904//EN"
 "http://www.w3.org/TR/2001/REC-SVG-20010904/DTD/svg10.dtd">
<svg version="1.0" xmlns="http://www.w3.org/2000/svg"
 width="480.000000pt" height="360.000000pt" viewBox="0 0 480.000000 360.000000"
 preserveAspectRatio="xMidYMid meet">
<metadata>
Created by potrace 1.16, written by Peter Selinger 2001-2019
</metadata>
<rect width="1" height="360" fill="#000000"/>
<rect x="479" width="1" height="360" fill="#000000"/>
<rect width="480" height="1" fill="#000000"/>
<rect y="359" width="480" height="1" fill="#000000"/>
<g transform="translate(0.000000,360.000000) scale(0.100000,-0.100000)"
fill="#000000" stroke="none">
<path d="M0 1800 l0 -1800 846 0 c802 0 846 1 839 18 -33 86 -107 428 -150
687 -73 454 -98 762 -99 1245 0 477 29 804 110 1225 24 127 82 388 91 413 4 9
-163 12 -816 12 l-821 0 0 -1800z"/>
<path d="M3176 3438 c-147 -423 -247 -787 -291 -1060 -44 -280 -59 -552 -59
-1073 0 -409 3 -496 22 -675 27 -260 65 -499 98 -612 5 -17 58 -18 930 -18
l924 0 0 1800 0 1800 -784 0 -784 0 -56 -162z"/>
</g>
</svg>
