<?xml version="1.0" standalone="no"?>
<!DOCTYPE svg PUBLIC "-//W3C//DTD SVG 20010904//EN"
 "http://www.w3.org/TR/2001/REC-SVG-20010904/DTD/svg10.dtd">
<svg version="1.0" xmlns="http://www.w3.org/2000/svg"
 width="480.000000pt" height="360.000000pt" viewBox="0 0 480.000000 360.000000"
 preserveAspectRatio="xMidYMid meet">
<metadata>
Created by potrace 1.16, written by Peter Selinger 2001-2019
</metadata>
<rect width="1" height="360" fill="#000000"/>
<rect x="479" width="1" height="360" fill="#000000"/>
<rect width="480" height="1" fill="#000000"/>
<rect y="359" width="480" height="1" fill="#000000"/>
<g transform="translate(0.000000,360.000000) scale(0.100000,-0.100000)"
fill="#000000" stroke="none">
<path d="M2617 3259 c-10 -6 -29 -28 -42 -50 -24 -37 -28 -39 -75 -39 -28 0
-50 -4 -50 -9 0 -5 11 -23 25 -39 14 -17 25 -34 25 -39 0 -5 -13 -30 -30 -56
-25 -39 -27 -49 -15 -53 8 -4 15 -10 15 -14 0 -5 -37 -35 -82 -66 -46 -32 -96
-68 -111 -81 -25 -20 -35 -22 -87 -16 -49 5 -64 2 -94 -16 -20 -13 -44 -33
-55 -47 -10 -13 -29 -24 -42 -24 -50 0 -52 -12 -11 -91 22 -41 53 -97 70 -125
l30 -52 -23 -34 c-30 -44 -45 -100 -45 -168 0 -53 5 -67 59 -170 16 -31 17
-44 8 -103 -9 -58 -8 -73 7 -105 16 -33 19 -35 31 -19 12 16 13 16 19 -5 5
-14 9 -18 13 -10 11 26 30 9 62 -55 28 -57 34 -64 43 -49 9 16 14 12 38 -30
l27 -48 -26 -33 c-27 -35 -57 -46 -148 -58 -43 -6 -58 -13 -83 -41 -34 -39
-36 -51 -15 -81 14 -20 12 -23 -37 -63 -61 -49 -75 -67 -91 -120 -7 -23 -44
-79 -87 -131 l-75 -91 -155 7 c-85 4 -184 7 -220 6 -36 0 -84 0 -108 -1 -35 0
-49 -6 -77 -34 -33 -34 -37 -35 -172 -51 -154 -19 -192 -35 -257 -107 -57 -63
-68 -83 -64 -120 3 -28 6 -33 28 -31 14 1 42 3 63 5 38 2 39 3 34 35 -5 26 -1
36 16 48 39 28 197 12 224 -23 8 -10 22 -13 43 -8 21 4 39 0 56 -11 23 -15 28
-15 52 -1 24 14 31 14 60 2 28 -11 45 -11 120 2 48 8 157 19 242 23 172 9 196
16 275 80 27 22 52 37 56 33 3 -4 11 -37 17 -73 7 -37 27 -111 45 -166 18 -55
31 -105 29 -111 -4 -13 -76 -15 -107 -3 -17 7 -21 3 -30 -33 -10 -41 -10 -41
-65 -48 -103 -12 -305 -9 -353 6 -43 13 -119 8 -147 -9 -8 -5 -713 170 -800
198 -31 11 -36 18 -47 62 -22 88 -67 102 -274 86 -80 -6 -169 -14 -197 -18
l-52 -6 0 -383 0 -384 1538 1 c955 0 1525 4 1505 10 -17 5 -41 22 -53 37 -11
15 -40 52 -64 82 -65 83 -77 140 -30 140 21 0 78 76 97 127 33 92 31 318 -4
480 -8 37 -5 48 21 98 38 73 39 128 3 210 -38 86 -36 126 9 173 59 61 51 79
-61 123 -52 21 -106 47 -120 59 -15 11 -43 28 -64 37 -42 18 -43 30 -4 53 15
8 40 35 57 58 43 60 49 45 10 -24 l-32 -57 41 35 c69 59 178 215 204 292 33
97 15 252 -45 383 -28 62 -28 66 -12 91 9 15 37 47 63 71 36 36 42 46 29 49
-22 4 -22 4 3 53 11 23 19 43 16 45 -2 2 -18 -12 -36 -31 -17 -19 -35 -35 -40
-35 -5 0 -3 24 5 53 18 69 18 70 -13 53 -51 -25 -82 -18 -115 28 -16 22 -44
57 -61 76 -141 156 -177 200 -177 219 0 11 3 21 6 21 17 0 103 -68 129 -101
26 -34 72 -69 89 -69 3 0 15 21 26 48 12 26 26 57 32 68 5 12 8 30 6 40 -5 27
-84 83 -135 97 -25 6 -49 19 -54 29 -5 10 -27 19 -54 24 -48 7 -52 12 -57 83
-3 38 -14 46 -41 30z m107 -1579 c7 -24 6 -24 -8 -6 -9 11 -16 27 -16 35 0 21
16 2 24 -29z m-364 1 c0 -6 -4 -13 -10 -16 -5 -3 -10 1 -10 9 0 9 5 16 10 16
6 0 10 -4 10 -9z"/>
<path d="M4761 1784 c-37 -47 -44 -96 -22 -157 10 -30 23 -63 29 -73 8 -14 6
-25 -9 -46 -17 -23 -18 -33 -9 -65 5 -21 19 -49 30 -63 l20 -25 0 228 c0 133
-4 227 -9 227 -5 0 -19 -12 -30 -26z"/>
<path d="M4783 313 c-4 -10 -20 -36 -35 -58 -70 -98 -99 -149 -116 -200 l-19
-55 94 0 93 0 0 165 c0 91 -2 165 -5 165 -3 0 -9 -8 -12 -17z"/>
</g>
</svg>
