<?xml version="1.0" standalone="no"?>
<!DOCTYPE svg PUBLIC "-//W3C//DTD SVG 20010904//EN"
 "http://www.w3.org/TR/2001/REC-SVG-20010904/DTD/svg10.dtd">
<svg version="1.0" xmlns="http://www.w3.org/2000/svg"
 width="480.000000pt" height="360.000000pt" viewBox="0 0 480.000000 360.000000"
 preserveAspectRatio="xMidYMid meet">
<metadata>
Created by potrace 1.16, written by Peter Selinger 2001-2019
</metadata>
<rect width="1" height="360" fill="#000000"/>
<rect x="479" width="1" height="360" fill="#000000"/>
<rect width="480" height="1" fill="#000000"/>
<rect y="359" width="480" height="1" fill="#000000"/>
<g transform="translate(0.000000,360.000000) scale(0.100000,-0.100000)"
fill="#000000" stroke="none">
<path d="M0 1800 l0 -1800 2400 0 2400 0 0 1800 0 1800 -1124 0 -1124 0 0 -87
c0 -179 -30 -333 -99 -501 -22 -54 -37 -111 -41 -152 l-5 -65 -14 60 c-7 33
-22 83 -33 110 -11 28 -39 111 -61 185 -40 128 -42 143 -47 293 l-4 157 -1124
0 -1124 0 0 -1800z m2495 883 c10 -21 28 -46 40 -56 19 -16 19 -18 2 -31 -16
-12 -12 -15 43 -21 72 -8 102 -30 161 -116 22 -33 43 -59 47 -59 59 -2 203
-24 253 -39 67 -21 149 -80 149 -107 0 -8 18 -34 40 -57 l39 -43 -9 -64 c-5
-35 -18 -75 -28 -89 -23 -31 -65 -38 -97 -17 -37 24 -50 20 -71 -26 -26 -58
-59 -95 -105 -118 -50 -26 -107 -25 -191 2 -52 17 -73 20 -86 12 -23 -15 -17
-69 14 -116 22 -35 23 -43 1 -39 -15 3 4 -83 28 -124 27 -48 30 -66 20 -122
-9 -50 -48 -85 -60 -55 -6 14 -8 13 -17 -8 -16 -43 25 -164 137 -396 75 -156
91 -208 76 -238 -6 -12 -12 -34 -13 -51 -3 -25 -8 -30 -38 -36 -19 -4 -45 -20
-60 -37 -14 -17 -39 -32 -58 -36 -18 -3 -48 -17 -66 -31 -18 -14 -40 -25 -48
-25 -24 0 -30 -29 -16 -83 9 -34 9 -53 2 -65 -14 -22 -51 -27 -81 -11 -18 10
-26 10 -35 1 -34 -34 -128 12 -114 56 4 11 16 24 27 27 38 12 13 97 -38 126
-26 16 -147 36 -186 31 -17 -2 -17 15 -1 66 2 8 -5 16 -16 19 -11 3 -20 10
-20 17 0 6 23 70 51 141 65 166 118 357 101 363 -7 2 -12 20 -12 39 0 27 3 34
15 30 10 -4 16 3 19 26 3 18 12 74 21 126 19 117 19 130 0 151 -12 13 -13 23
-5 44 14 38 13 49 -5 42 -21 -8 -42 43 -23 56 7 4 16 8 21 8 21 0 2 28 -29 43
-35 17 -36 17 -66 -8 -35 -30 -62 -37 -114 -33 -32 2 -44 10 -72 48 -19 25
-41 46 -48 48 -11 3 -13 19 -8 75 9 125 12 133 67 193 50 56 216 174 243 174
18 0 23 11 43 95 21 86 39 117 86 148 19 12 35 29 35 37 0 9 6 24 13 35 6 11
12 41 12 67 0 27 2 48 5 48 3 0 14 -17 25 -37z"/>
<path d="M3235 2119 c-4 -6 -14 -8 -22 -5 -21 8 -68 -19 -92 -53 l-21 -29 34
-21 c48 -30 71 -27 89 12 26 54 35 135 12 96z"/>
<path d="M2943 1965 c-80 -12 -223 -68 -209 -82 12 -13 121 -43 154 -43 53 0
118 44 148 102 23 44 30 42 -93 23z"/>
<path d="M2000 1871 c0 -22 63 -101 85 -107 28 -7 115 29 115 48 0 7 -20 25
-44 41 -34 21 -55 27 -100 27 -31 0 -56 -4 -56 -9z"/>
<path d="M2292 1819 c2 -6 8 -10 13 -10 5 0 11 4 13 10 2 6 -4 11 -13 11 -9 0
-15 -5 -13 -11z"/>
<path d="M2477 563 c-4 -3 -7 -26 -7 -50 0 -32 4 -43 15 -43 21 0 28 23 21 65
-7 34 -15 42 -29 28z"/>
</g>
</svg>
