<?xml version="1.0" standalone="no"?>
<!DOCTYPE svg PUBLIC "-//W3C//DTD SVG 20010904//EN"
 "http://www.w3.org/TR/2001/REC-SVG-20010904/DTD/svg10.dtd">
<svg version="1.0" xmlns="http://www.w3.org/2000/svg"
 width="480.000000pt" height="360.000000pt" viewBox="0 0 480.000000 360.000000"
 preserveAspectRatio="xMidYMid meet">
<metadata>
Created by potrace 1.16, written by Peter Selinger 2001-2019
</metadata>
<rect width="1" height="360" fill="#000000"/>
<rect x="479" width="1" height="360" fill="#000000"/>
<rect width="480" height="1" fill="#000000"/>
<rect y="359" width="480" height="1" fill="#000000"/>
<g transform="translate(0.000000,360.000000) scale(0.100000,-0.100000)"
fill="#000000" stroke="none">
<path d="M0 2173 c0 -1344 1 -1426 17 -1403 23 34 35 41 51 28 15 -13 10 -52
-16 -113 -21 -52 -20 -52 -37 -29 -13 17 -14 -21 -15 -318 l0 -338 501 0 c453
0 501 2 495 16 -3 9 -6 25 -6 35 0 27 -111 78 -185 86 -32 3 -109 0 -172 -7
-91 -11 -124 -11 -157 -1 -22 6 -81 22 -131 35 -140 37 -132 30 -142 134 -5
57 -9 66 -42 93 -20 16 -46 32 -58 35 -23 6 -27 14 -23 47 1 11 -8 26 -19 34
-30 20 -27 29 19 54 43 24 46 30 29 60 -17 32 11 54 120 95 261 100 430 216
585 403 l64 77 -9 115 c-5 63 -11 119 -13 125 -6 17 -53 23 -98 11 -33 -8 -51
-7 -92 8 -97 34 -198 101 -271 181 -85 92 -92 106 -111 197 -31 144 -34 181
-24 263 53 428 351 775 755 882 182 48 316 51 500 12 123 -26 145 -35 263
-108 85 -53 109 -73 137 -117 52 -80 81 -151 99 -240 22 -110 20 -154 -8 -207
-13 -25 -27 -73 -31 -109 -4 -35 -17 -86 -29 -114 -22 -49 -34 -62 -106 -123
-22 -18 -42 -49 -53 -80 -22 -62 -75 -124 -133 -158 -49 -29 -50 -31 -29 -58
16 -21 19 -56 9 -93 -8 -29 -151 -143 -180 -143 -24 0 -54 24 -54 42 0 6 -9
-1 -20 -15 -19 -24 -18 -57 1 -57 5 0 9 -13 9 -29 0 -16 12 -54 26 -86 50
-109 64 -240 80 -770 3 -110 9 -204 12 -209 9 -16 3 -138 -9 -152 -6 -7 -22
-14 -37 -16 -26 -3 -26 -5 -27 -75 l0 -73 1568 0 1567 0 0 21 c0 21 4 21 62
16 40 -3 66 -11 74 -21 7 -10 26 -16 53 -16 l41 0 0 1800 0 1800 -525 0 c-329
0 -525 -4 -525 -10 0 -5 -18 -15 -40 -21 -37 -11 -43 -10 -70 9 l-29 22 -832
0 -832 0 -23 -25 c-13 -14 -30 -25 -39 -25 -9 0 -15 9 -15 25 l0 25 -935 0
-935 0 0 -1427z m2660 1217 c0 -6 -25 -21 -56 -35 -64 -28 -64 -28 -64 -16 0
9 96 61 112 61 4 0 8 -5 8 -10z m515 -64 c19 -8 35 -19 35 -24 0 -16 -95 -42
-152 -42 -32 0 -58 4 -58 8 0 15 35 41 76 56 50 19 58 19 99 2z m-1179 -391
c7 -18 -12 -45 -32 -45 -14 0 -20 41 -7 53 11 12 33 7 39 -8z m1399 -174 c7
-12 -44 -53 -56 -45 -13 8 -11 21 7 38 17 18 40 21 49 7z m-1155 -830 c0 -14
-55 -33 -86 -29 l-29 3 30 17 c32 18 85 24 85 9z m540 -276 c0 -19 -11 -19
-35 -2 -24 18 -11 41 16 27 10 -6 19 -17 19 -25z m1050 -48 c0 -36 -18 -66
-64 -108 -39 -35 -44 -35 -57 -3 -20 55 40 144 99 144 18 0 22 -5 22 -33z
m-650 -96 c0 -5 -16 -18 -36 -30 -37 -22 -84 -28 -84 -11 0 6 11 10 25 10 14
0 34 9 45 20 21 21 50 27 50 11z m-160 -119 c0 -29 -24 -72 -41 -72 -13 0 -11
74 3 88 21 21 38 14 38 -16z m-2213 -69 c4 -12 -34 -29 -44 -19 -3 3 -3 12 1
21 7 18 37 17 43 -2z m2833 -108 c0 -21 -93 -106 -104 -95 -16 16 3 56 41 83
43 30 63 34 63 12z m-442 -27 c12 -18 19 -34 16 -37 -7 -7 -54 41 -54 56 0 23
17 14 38 -19z m-2800 -70 c-5 -15 -52 -23 -76 -13 -14 5 -14 7 -2 15 23 15 82
12 78 -2z m4179 -165 c5 -15 -44 -36 -64 -29 -20 8 -16 26 10 36 28 11 49 9
54 -7z m-1523 -102 c19 -16 56 -83 56 -100 0 -5 -9 -7 -20 -4 -25 7 -114 109
-106 122 8 12 46 2 70 -18z m-286 -197 c-9 -9 -27 -14 -44 -12 l-29 4 25 11
c14 7 34 12 45 12 18 1 18 0 3 -15z m1789 -46 c42 -15 38 -27 -13 -45 -29 -10
-45 -11 -63 -3 l-25 11 30 24 c35 29 29 28 71 13z m-1453 -319 c-18 -36 -52
-59 -86 -59 -57 0 -22 62 52 93 42 17 55 5 34 -34z m-1476 -12 c14 -33 22 -71
21 -102 -1 -61 -20 -137 -35 -142 -22 -7 -76 75 -82 123 -4 43 19 118 51 162
15 20 21 15 45 -41z m816 -114 c-6 -21 -73 -68 -82 -58 -7 7 66 75 80 75 3 0
4 -8 2 -17z m-684 -51 c0 -5 -23 -21 -51 -37 -58 -31 -64 -15 -9 23 34 22 60
29 60 14z"/>
<path d="M1005 1400 c-4 -6 -3 -16 3 -22 6 -6 12 -6 17 2 4 6 3 16 -3 22 -6 6
-12 6 -17 -2z"/>
<path d="M1160 41 l0 -41 65 0 c56 0 65 2 65 18 0 36 -25 54 -78 60 l-52 5 0
-42z"/>
</g>
</svg>
