<?xml version="1.0" standalone="no"?>
<!DOCTYPE svg PUBLIC "-//W3C//DTD SVG 20010904//EN"
 "http://www.w3.org/TR/2001/REC-SVG-20010904/DTD/svg10.dtd">
<svg version="1.0" xmlns="http://www.w3.org/2000/svg"
 width="480.000000pt" height="360.000000pt" viewBox="0 0 480.000000 360.000000"
 preserveAspectRatio="xMidYMid meet">
<metadata>
Created by potrace 1.16, written by Peter Selinger 2001-2019
</metadata>
<rect width="1" height="360" fill="#000000"/>
<rect x="479" width="1" height="360" fill="#000000"/>
<rect width="480" height="1" fill="#000000"/>
<rect y="359" width="480" height="1" fill="#000000"/>
<g transform="translate(0.000000,360.000000) scale(0.100000,-0.100000)"
fill="#000000" stroke="none">
<path d="M0 1800 l0 -1800 828 0 827 0 -45 39 c-36 32 -43 42 -32 52 22 23 13
38 -59 106 -83 79 -94 95 -77 122 10 16 2 30 -62 111 -66 83 -72 93 -61 114
11 20 6 33 -50 121 -52 84 -60 101 -50 117 10 16 4 37 -37 126 -36 78 -47 111
-40 122 7 11 1 45 -21 115 -17 55 -30 120 -30 145 1 25 -6 83 -15 130 -13 70
-15 136 -11 355 3 243 6 281 29 377 13 58 22 115 19 126 -3 11 10 60 28 109
18 48 33 107 33 129 1 28 17 74 50 139 35 70 45 100 36 105 -15 9 -8 23 68
137 46 69 53 85 42 98 -15 18 -6 33 66 115 81 93 77 85 62 110 -12 20 -8 26
52 82 110 102 200 178 210 178 13 0 228 -253 555 -654 44 -54 141 -171 215
-260 145 -175 417 -506 448 -545 l19 -24 87 16 c49 9 100 24 114 34 14 10 43
28 66 41 l40 23 30 -22 c28 -21 33 -22 135 -11 65 7 178 9 291 6 128 -4 254
-1 410 10 251 18 535 43 593 52 l37 6 0 724 0 724 -2400 0 -2400 0 0 -1800z"/>
<path d="M3698 1537 c-46 -35 -117 -83 -158 -107 -41 -24 -90 -57 -108 -72
-18 -15 -38 -29 -45 -30 -7 0 -17 -2 -23 -2 -7 -1 -20 -12 -30 -24 -23 -27
-77 -41 -160 -42 -66 0 -77 7 -88 53 -4 16 -13 27 -24 28 -9 0 -43 4 -75 8
-69 8 -57 19 -189 -169 -198 -282 -518 -733 -670 -947 -87 -122 -158 -224
-158 -227 0 -3 637 -6 1415 -6 l1415 0 0 785 c0 432 -1 785 -2 785 -2 0 -120
7 -263 15 -143 8 -371 15 -507 15 l-247 0 -83 -63z"/>
</g>
</svg>
