<?xml version="1.0" standalone="no"?>
<!DOCTYPE svg PUBLIC "-//W3C//DTD SVG 20010904//EN"
 "http://www.w3.org/TR/2001/REC-SVG-20010904/DTD/svg10.dtd">
<svg version="1.0" xmlns="http://www.w3.org/2000/svg"
 width="480.000000pt" height="360.000000pt" viewBox="0 0 480.000000 360.000000"
 preserveAspectRatio="xMidYMid meet">
<metadata>
Created by potrace 1.16, written by Peter Selinger 2001-2019
</metadata>
<rect width="1" height="360" fill="#000000"/>
<rect x="479" width="1" height="360" fill="#000000"/>
<rect width="480" height="1" fill="#000000"/>
<rect y="359" width="480" height="1" fill="#000000"/>
<g transform="translate(0.000000,360.000000) scale(0.100000,-0.100000)"
fill="#000000" stroke="none">
<path d="M2290 1800 l0 -1800 1255 0 1255 0 0 1218 0 1217 -48 19 c-26 11 -71
37 -99 58 l-53 38 -45 -21 c-37 -17 -58 -21 -104 -16 l-57 5 -15 -42 c-10 -29
-20 -42 -35 -44 -12 -2 -30 -12 -40 -23 -25 -28 -41 -23 -49 14 -4 17 -13 40
-20 50 -7 10 -10 36 -7 67 3 29 0 50 -5 50 -6 0 -32 16 -58 37 -46 35 -75 44
-207 67 -28 5 -38 12 -38 26 0 10 -6 25 -12 32 -7 8 -20 27 -30 43 -16 30 -28
35 -258 110 -51 17 -72 19 -50 5 23 -14 -16 -53 -41 -40 -26 14 -31 12 -20 -9
14 -25 2 -35 -20 -15 -10 9 -15 23 -12 32 5 11 2 14 -10 9 -17 -6 -128 47
-172 82 -54 43 -94 52 -115 26 -11 -14 -15 -14 -32 2 -14 13 -21 14 -27 5 -4
-8 -15 4 -28 32 -18 36 -30 47 -70 61 -26 10 -55 25 -64 34 -18 18 -59 123
-59 152 0 25 12 24 100 -6 40 -14 83 -25 95 -25 11 0 30 -7 42 -15 12 -9 66
-32 120 -51 123 -45 544 -184 555 -184 35 0 228 222 228 262 0 9 4 19 9 23 5
3 8 27 6 54 -3 42 0 52 22 72 39 37 43 59 21 104 -11 22 -30 50 -41 63 l-20
22 -874 0 -873 0 0 -1800z"/>
<path d="M4476 3573 c10 -16 29 -45 43 -66 18 -28 26 -55 28 -98 2 -33 10 -73
18 -89 18 -35 19 -44 3 -34 -10 6 -10 4 0 -8 7 -9 12 -20 11 -24 -1 -5 1 -17
5 -26 10 -23 0 -51 -15 -43 -6 5 -10 0 -8 -11 1 -11 -1 -26 -4 -34 -3 -8 -8
-32 -12 -52 -5 -31 -2 -39 17 -51 104 -63 178 -111 206 -133 l32 -27 0 362 0
361 -124 0 -124 0 5 -62 c4 -60 3 -62 -12 -43 -9 11 -25 39 -36 63 -10 23 -25
42 -34 42 -14 0 -14 -3 1 -27z"/>
<path d="M4147 3100 c-20 -39 -14 -52 12 -24 13 13 16 25 12 38 -7 18 -10 16
-24 -14z"/>
<path d="M4705 2876 c10 -14 21 -23 26 -20 13 8 12 10 -17 29 l-25 16 16 -25z"/>
<path d="M593 2226 c-241 -90 -347 -389 -217 -612 35 -60 120 -136 189 -170
54 -26 72 -29 176 -33 165 -5 262 26 355 111 57 53 80 91 110 184 28 90 30
134 8 217 -22 87 -56 148 -114 206 -91 91 -176 121 -334 120 -90 0 -123 -4
-173 -23z"/>
</g>
</svg>
