<?xml version="1.0" standalone="no"?>
<!DOCTYPE svg PUBLIC "-//W3C//DTD SVG 20010904//EN"
 "http://www.w3.org/TR/2001/REC-SVG-20010904/DTD/svg10.dtd">
<svg version="1.0" xmlns="http://www.w3.org/2000/svg"
 width="480.000000pt" height="360.000000pt" viewBox="0 0 480.000000 360.000000"
 preserveAspectRatio="xMidYMid meet">
<metadata>
Created by potrace 1.16, written by Peter Selinger 2001-2019
</metadata>
<rect width="1" height="360" fill="#000000"/>
<rect x="479" width="1" height="360" fill="#000000"/>
<rect width="480" height="1" fill="#000000"/>
<rect y="359" width="480" height="1" fill="#000000"/>
<g transform="translate(0.000000,360.000000) scale(0.100000,-0.100000)"
fill="#000000" stroke="none">
<path d="M3657 3543 c-25 -32 -54 -69 -66 -82 -11 -13 -18 -27 -16 -31 3 -5
-8 -49 -25 -100 -16 -50 -35 -131 -42 -180 l-11 -89 -54 -47 c-30 -25 -67 -69
-83 -97 -27 -49 -35 -55 -127 -96 -102 -47 -193 -100 -193 -114 0 -4 -28 -5
-62 -2 -35 3 -69 2 -76 -3 -41 -28 -55 -309 -19 -378 26 -50 90 -66 168 -42
34 10 42 9 59 -7 26 -24 45 -92 31 -109 -18 -22 34 -39 76 -25 48 15 75 -6
133 -103 37 -62 52 -79 84 -92 27 -11 44 -12 57 -6 64 35 93 -28 109 -240 6
-85 15 -200 20 -255 9 -112 4 -534 -8 -635 -7 -62 -9 -66 -44 -85 -21 -11 -38
-26 -38 -32 0 -7 -19 -32 -42 -55 -30 -30 -79 -58 -177 -103 -75 -34 -152 -72
-171 -83 -45 -28 -52 -28 -102 6 -58 38 -150 38 -265 -1 l-82 -28 -73 78
c-100 107 -396 414 -476 493 l-65 65 -9 115 c-10 136 -22 177 -98 330 -59 117
-76 139 -129 168 -27 16 -196 162 -381 331 -120 109 -207 171 -241 171 -37 0
-46 -20 -28 -63 18 -45 37 -68 158 -192 86 -87 241 -266 241 -278 0 -1 -32 0
-71 1 -114 6 -159 -24 -159 -105 0 -31 -4 -43 -15 -43 -28 0 -84 -60 -91 -98
-4 -20 -13 -46 -20 -57 -9 -13 -14 -49 -14 -106 0 -107 18 -139 79 -139 20 0
42 5 48 11 8 8 21 -6 49 -48 122 -186 259 -359 398 -503 82 -85 228 -246 323
-357 l174 -203 1255 0 1254 0 0 1800 0 1800 -549 0 -550 0 -44 -57z m577
-2364 c8 -17 -17 -326 -32 -399 -7 -30 -12 -35 -40 -38 -40 -4 -35 -29 -72
345 -27 274 -34 256 58 177 42 -37 81 -75 86 -85z"/>
</g>
</svg>
