<?xml version="1.0" standalone="no"?>
<!DOCTYPE svg PUBLIC "-//W3C//DTD SVG 20010904//EN"
 "http://www.w3.org/TR/2001/REC-SVG-20010904/DTD/svg10.dtd">
<svg version="1.0" xmlns="http://www.w3.org/2000/svg"
 width="480.000000pt" height="360.000000pt" viewBox="0 0 480.000000 360.000000"
 preserveAspectRatio="xMidYMid meet">
<metadata>
Created by potrace 1.16, written by Peter Selinger 2001-2019
</metadata>
<rect width="1" height="360" fill="#000000"/>
<rect x="479" width="1" height="360" fill="#000000"/>
<rect width="480" height="1" fill="#000000"/>
<rect y="359" width="480" height="1" fill="#000000"/>
<g transform="translate(0.000000,360.000000) scale(0.100000,-0.100000)"
fill="#000000" stroke="none">
<path d="M0 1800 l0 -1800 625 0 c344 0 625 1 625 3 0 1 9 45 19 96 14 71 16
98 7 107 -6 7 -29 35 -51 64 l-40 51 -55 -6 c-175 -17 -184 -17 -223 3 l-37
20 -47 -61 c-59 -79 -134 -157 -150 -157 -18 0 -27 20 -34 80 -3 30 -9 62 -13
71 -5 13 5 23 46 44 71 37 74 39 101 99 26 55 30 58 137 91 30 9 74 27 97 41
54 31 151 120 166 153 9 19 12 93 9 276 -7 485 -7 506 12 570 59 202 146 406
211 494 32 45 34 51 24 81 -15 41 3 103 38 136 54 50 148 21 188 -56 9 -18 26
-31 45 -35 68 -15 206 -140 370 -335 30 -36 57 -67 60 -70 11 -10 117 -140
178 -219 89 -114 102 -112 219 37 121 153 301 360 383 440 87 86 148 130 196
143 22 7 39 20 49 39 19 36 73 78 111 86 70 14 138 -79 117 -158 -10 -38 -9
-43 21 -83 73 -96 176 -346 217 -525 22 -100 24 -237 5 -361 -10 -65 -10 -115
-3 -205 7 -87 7 -130 -2 -165 -10 -39 -10 -53 4 -85 33 -79 150 -169 275 -211
l85 -28 27 -55 c23 -48 35 -59 91 -90 l65 -34 -4 -56 c-9 -99 -14 -120 -31
-120 -19 0 -86 68 -168 170 -38 48 -61 69 -63 59 -7 -38 -97 -49 -221 -28 -63
11 -65 11 -82 -12 -10 -13 -27 -36 -38 -50 -18 -23 -20 -37 -15 -115 3 -49 7
-99 10 -112 l4 -22 620 0 620 0 0 1800 0 1800 -2400 0 -2400 0 0 -1800z"/>
</g>
</svg>
