<?xml version="1.0" standalone="no"?>
<!DOCTYPE svg PUBLIC "-//W3C//DTD SVG 20010904//EN"
 "http://www.w3.org/TR/2001/REC-SVG-20010904/DTD/svg10.dtd">
<svg version="1.0" xmlns="http://www.w3.org/2000/svg"
 width="480.000000pt" height="360.000000pt" viewBox="0 0 480.000000 360.000000"
 preserveAspectRatio="xMidYMid meet">
<metadata>
Created by potrace 1.16, written by Peter Selinger 2001-2019
</metadata>
<rect width="1" height="360" fill="#000000"/>
<rect x="479" width="1" height="360" fill="#000000"/>
<rect width="480" height="1" fill="#000000"/>
<rect y="359" width="480" height="1" fill="#000000"/>
<g transform="translate(0.000000,360.000000) scale(0.100000,-0.100000)"
fill="#000000" stroke="none">
<path d="M2686 3221 c-32 -11 -82 -36 -111 -55 -28 -20 -61 -36 -72 -36 -25 0
-47 -25 -40 -44 3 -8 -10 -46 -30 -85 -31 -62 -36 -86 -45 -187 -9 -96 -8
-118 3 -125 8 -5 20 -7 27 -4 6 2 12 1 12 -3 0 -4 12 -20 26 -37 19 -22 24
-25 20 -10 -5 17 -3 17 14 -4 11 -13 23 -21 27 -18 7 8 63 -20 63 -31 0 -5 -7
-17 -15 -28 -19 -26 -19 -41 3 -48 9 -3 49 -35 87 -71 67 -62 97 -77 110 -55
11 18 25 11 26 -12 0 -19 3 -17 16 12 l16 35 9 -26 c10 -29 -13 -63 -82 -123
-90 -79 -190 -193 -190 -217 0 -5 11 -3 25 3 14 6 25 16 25 21 0 6 2 8 5 5 3
-3 -16 -52 -42 -109 -57 -127 -63 -176 -34 -287 12 -45 21 -86 21 -92 0 -6
-39 10 -87 34 -49 24 -136 58 -196 76 -95 29 -109 37 -122 63 -8 17 -13 38
-10 47 3 10 -1 23 -10 30 -19 16 -19 69 0 94 8 11 13 28 10 37 -3 10 1 19 10
23 8 3 20 17 25 32 9 22 6 32 -14 58 -13 18 -31 49 -40 69 -16 38 -35 47 -55
23 -6 -7 -29 -16 -52 -19 -22 -3 -51 -12 -64 -21 -47 -31 -57 -60 -67 -189 -5
-67 -16 -165 -26 -217 -26 -149 -15 -370 18 -370 5 0 14 -18 20 -40 6 -22 16
-40 21 -40 7 0 8 -7 4 -17 -24 -61 -106 -345 -110 -379 -5 -46 2 -52 61 -60
51 -6 83 -29 140 -97 31 -37 71 -73 95 -85 65 -32 77 -11 34 58 -14 22 -25 44
-25 49 0 11 50 21 111 21 26 0 51 5 55 11 3 6 16 8 29 5 14 -4 28 0 36 11 22
26 19 145 -7 293 -13 74 -28 167 -33 205 -6 39 -13 84 -17 101 -5 25 -2 32 18
41 20 9 37 1 134 -63 l110 -73 12 -78 c14 -85 15 -76 -56 -388 -17 -71 -35
-173 -42 -225 -16 -127 -60 -305 -115 -469 -25 -74 -43 -136 -41 -138 1 -2
320 -2 709 -1 l705 3 -50 85 c-80 136 -119 219 -228 490 -122 304 -118 294
-236 491 -52 85 -94 165 -94 177 0 12 -10 47 -22 79 -18 48 -21 80 -22 191 -1
108 2 136 14 145 8 7 14 22 12 35 -6 40 17 123 43 154 14 16 25 38 25 49 0 11
5 17 10 14 6 -3 10 -17 10 -31 0 -13 4 -24 10 -24 5 0 7 6 4 14 -3 8 4 16 19
20 14 3 27 12 30 18 11 30 -70 295 -108 350 -14 20 -25 39 -25 42 0 12 21 5
40 -14 19 -19 19 -19 26 16 5 25 9 32 15 22 7 -10 9 -9 9 6 0 15 3 16 15 6 13
-11 17 -8 26 19 9 24 14 29 24 21 11 -9 12 -3 8 30 -5 36 -4 40 12 34 18 -7
18 4 -1 69 -5 16 -3 17 15 8 26 -14 26 -14 1 44 -25 59 -25 67 1 35 l20 -25
-7 25 c-3 14 -21 57 -38 95 -18 39 -43 113 -55 165 -31 128 -58 177 -140 256
-115 110 -129 117 -246 121 -79 2 -112 -1 -159 -16z"/>
</g>
</svg>
