<?xml version="1.0" standalone="no"?>
<!DOCTYPE svg PUBLIC "-//W3C//DTD SVG 20010904//EN"
 "http://www.w3.org/TR/2001/REC-SVG-20010904/DTD/svg10.dtd">
<svg version="1.0" xmlns="http://www.w3.org/2000/svg"
 width="480.000000pt" height="360.000000pt" viewBox="0 0 480.000000 360.000000"
 preserveAspectRatio="xMidYMid meet">
<metadata>
Created by potrace 1.16, written by Peter Selinger 2001-2019
</metadata>
<rect width="1" height="360" fill="#000000"/>
<rect x="479" width="1" height="360" fill="#000000"/>
<rect width="480" height="1" fill="#000000"/>
<rect y="359" width="480" height="1" fill="#000000"/>
<g transform="translate(0.000000,360.000000) scale(0.100000,-0.100000)"
fill="#000000" stroke="none">
<path d="M0 1800 l0 -1800 868 0 868 0 77 143 c113 211 215 433 203 444 -3 4
-18 -21 -33 -55 -35 -83 -54 -82 -96 3 -46 91 -60 168 -52 283 4 66 12 107 21
116 20 20 130 30 244 22 111 -8 110 -8 110 74 0 86 -45 188 -137 311 -64 85
-67 87 -129 104 -49 13 -71 26 -98 55 -44 49 -52 86 -32 152 26 86 90 144 189
173 56 16 71 30 43 41 -13 5 -23 24 -40 78 -6 18 -7 18 -20 1 -13 -18 -14 -18
-20 3 -4 12 -12 20 -17 17 -5 -4 -9 -1 -9 5 0 6 -4 9 -9 6 -11 -7 -20 60 -9
77 4 6 8 44 8 82 1 39 5 90 10 115 9 45 9 45 -41 94 -52 52 -58 63 -34 72 8 4
15 16 15 29 0 35 23 48 75 41 46 -7 57 1 30 24 -26 21 -17 46 35 94 52 49 70
55 90 31 22 -26 48 -17 69 24 25 49 62 64 121 49 23 -6 44 -17 46 -24 14 -47
13 -47 43 -16 35 38 65 33 94 -15 14 -24 24 -32 36 -28 47 19 78 17 106 -7
l28 -25 -13 -62 c-12 -55 -11 -63 4 -80 17 -18 17 -21 1 -55 -18 -38 -18 -45
15 -146 12 -36 25 -78 30 -94 13 -39 3 -47 -21 -17 l-19 23 0 -41 c0 -23 9
-59 20 -81 23 -45 27 -71 8 -52 -19 19 -25 14 -21 -20 l4 -33 -18 28 c-23 35
-30 34 -38 -3 -4 -17 -11 -30 -17 -30 -6 0 -8 -11 -4 -27 l7 -28 -20 25 -19
24 -7 -37 c-9 -46 -2 -65 27 -76 13 -5 43 -30 68 -55 24 -25 51 -46 60 -46 25
0 71 -35 60 -46 -6 -6 7 -25 35 -53 41 -40 45 -49 45 -91 0 -38 5 -51 30 -75
17 -16 28 -35 25 -43 -2 -7 33 -59 80 -115 108 -130 116 -152 81 -238 -14 -36
-26 -71 -26 -78 0 -6 20 -34 45 -60 43 -46 53 -69 38 -84 -3 -4 -17 0 -31 9
-49 32 -67 -4 -31 -63 13 -21 18 -38 13 -43 -5 -5 -34 -10 -64 -10 -58 0 -65
0 -145 1 -27 0 -55 5 -62 11 -25 20 -24 0 2 -63 15 -35 47 -154 72 -264 35
-156 45 -222 46 -300 l2 -100 943 -3 942 -2 0 1800 0 1800 -2400 0 -2400 0 0
-1800z"/>
<path d="M2487 1850 c-3 -11 -1 -20 4 -20 5 0 9 9 9 20 0 11 -2 20 -4 20 -2 0
-6 -9 -9 -20z"/>
<path d="M2447 1843 c-4 -3 -7 -11 -7 -17 0 -6 5 -5 12 2 6 6 9 14 7 17 -3 3
-9 2 -12 -2z"/>
<path d="M2155 1830 c3 -5 8 -10 11 -10 2 0 4 5 4 10 0 6 -5 10 -11 10 -5 0
-7 -4 -4 -10z"/>
<path d="M2816 1099 c-10 -96 11 -105 38 -17 12 43 12 48 -3 62 -10 9 -20 16
-23 16 -3 0 -8 -27 -12 -61z"/>
</g>
</svg>
