<?xml version="1.0" standalone="no"?>
<!DOCTYPE svg PUBLIC "-//W3C//DTD SVG 20010904//EN"
 "http://www.w3.org/TR/2001/REC-SVG-20010904/DTD/svg10.dtd">
<svg version="1.0" xmlns="http://www.w3.org/2000/svg"
 width="480.000000pt" height="360.000000pt" viewBox="0 0 480.000000 360.000000"
 preserveAspectRatio="xMidYMid meet">
<metadata>
Created by potrace 1.16, written by Peter Selinger 2001-2019
</metadata>
<rect width="1" height="360" fill="#000000"/>
<rect x="479" width="1" height="360" fill="#000000"/>
<rect width="480" height="1" fill="#000000"/>
<rect y="359" width="480" height="1" fill="#000000"/>
<g transform="translate(0.000000,360.000000) scale(0.100000,-0.100000)"
fill="#000000" stroke="none">
<path d="M1953 2615 c-18 -8 -33 -19 -33 -26 0 -7 15 -35 34 -63 18 -28 79
-141 135 -251 72 -144 99 -206 95 -223 -4 -12 -1 -29 5 -36 10 -11 9 -25 -3
-61 -20 -58 -20 -83 0 -164 27 -109 36 -121 92 -121 26 0 57 7 68 15 21 14 23
11 54 -57 34 -74 39 -107 20 -162 -52 -157 -79 -546 -46 -660 l17 -58 -25 -33
c-15 -19 -26 -36 -26 -40 0 -3 11 -23 25 -45 37 -59 7 -53 -72 15 -38 32 -69
52 -78 49 -27 -11 -14 -28 48 -70 58 -38 106 -91 127 -141 5 -13 22 -31 38
-40 39 -25 99 -72 138 -110 20 -20 44 -33 58 -33 18 0 45 -20 93 -69 81 -82
153 -165 178 -203 l17 -28 260 0 c228 0 259 2 254 15 -4 12 0 14 19 9 15 -4
25 -2 25 5 0 6 -4 11 -10 11 -5 0 -21 20 -35 44 -26 44 -77 94 -125 123 -14 8
-37 31 -50 51 -14 20 -72 97 -130 172 -119 152 -128 167 -199 303 -44 86 -49
101 -40 125 6 15 12 70 12 122 2 84 -1 102 -25 153 l-27 58 35 31 c19 17 47
54 62 82 26 49 27 57 27 206 0 141 -2 159 -23 197 -12 23 -22 58 -22 77 0 19
-4 45 -9 58 -26 67 -32 120 -35 303 -2 184 -4 204 -26 255 -46 109 -127 180
-203 180 -56 0 -156 -58 -204 -118 -37 -46 -43 -59 -43 -101 0 -31 5 -53 15
-61 8 -7 15 -18 15 -24 0 -7 18 -25 40 -42 45 -33 46 -36 24 -69 -12 -19 -25
-25 -51 -25 -31 0 -36 -4 -50 -39 l-16 -40 -26 19 c-14 10 -43 21 -64 25 -37
6 -38 7 -129 188 -50 100 -102 211 -115 247 -24 64 -39 90 -52 90 -3 -1 -21
-7 -38 -15z m496 -860 c0 -27 3 -60 6 -72 14 -44 -10 -22 -33 30 -27 62 -27
65 -5 119 l17 43 8 -35 c4 -19 7 -57 7 -85z m280 -1450 c33 -22 41 -23 96 -16
39 6 62 5 66 -2 10 -15 33 -127 27 -132 -12 -12 -248 135 -248 154 0 9 11 21
19 21 3 0 21 -11 40 -25z"/>
</g>
</svg>
