<?xml version="1.0" standalone="no"?>
<!DOCTYPE svg PUBLIC "-//W3C//DTD SVG 20010904//EN"
 "http://www.w3.org/TR/2001/REC-SVG-20010904/DTD/svg10.dtd">
<svg version="1.0" xmlns="http://www.w3.org/2000/svg"
 width="480.000000pt" height="360.000000pt" viewBox="0 0 480.000000 360.000000"
 preserveAspectRatio="xMidYMid meet">
<metadata>
Created by potrace 1.16, written by Peter Selinger 2001-2019
</metadata>
<rect width="1" height="360" fill="#000000"/>
<rect x="479" width="1" height="360" fill="#000000"/>
<rect width="480" height="1" fill="#000000"/>
<rect y="359" width="480" height="1" fill="#000000"/>
<g transform="translate(0.000000,360.000000) scale(0.100000,-0.100000)"
fill="#000000" stroke="none">
<path d="M0 1800 l0 -1800 1040 0 1039 0 11 38 c5 20 24 100 41 177 79 360
102 460 106 471 3 8 -11 15 -35 19 -105 17 -123 146 -36 261 20 26 33 34 52
32 46 -6 50 -30 14 -102 -18 -35 -29 -71 -26 -80 7 -19 8 -20 43 -2 24 13 30
25 44 98 26 131 26 147 -3 161 -48 23 -160 292 -160 383 0 92 27 179 67 214
40 35 41 43 51 295 l7 170 33 0 c37 0 37 10 -1 38 l-26 20 -116 -28 c-129 -31
-188 -29 -257 6 -82 42 -174 170 -196 275 -7 34 -9 36 -16 17 -9 -27 -38 -30
-57 -6 -14 16 -17 99 -10 235 3 52 6 60 37 83 53 41 170 92 274 120 82 22 115
26 240 26 80 0 177 -5 215 -10 39 -6 96 -11 129 -11 107 0 128 12 282 161 84
81 159 145 187 158 85 41 214 49 336 19 34 -9 45 -8 51 3 12 19 5 26 -35 33
-19 4 -35 10 -35 13 0 15 71 73 90 73 16 0 20 6 20 30 0 21 9 36 35 57 19 15
40 40 46 55 12 28 56 64 67 53 3 -3 0 -27 -7 -53 -15 -51 -15 -55 -5 -93 4
-21 0 -32 -20 -51 l-27 -24 21 -19 c30 -27 26 -130 -5 -105 -9 8 -15 8 -20 1
-4 -7 -12 -7 -25 1 -14 9 -23 9 -30 2 -8 -8 -1 -18 27 -34 103 -60 190 -152
224 -236 7 -17 14 -124 18 -259 l6 -230 29 -43 c16 -24 77 -83 135 -132 208
-174 301 -288 370 -454 16 -39 35 -98 42 -132 11 -56 11 -67 -10 -132 -18 -54
-22 -88 -20 -144 4 -68 3 -73 -17 -76 -33 -5 -82 48 -90 97 -4 28 -12 41 -22
41 -9 0 -59 -25 -113 -55 -110 -63 -144 -72 -219 -56 -154 33 -300 156 -357
300 -13 34 -13 35 3 16 15 -18 16 -18 10 -2 -3 10 -6 20 -6 23 0 10 -76 34
-106 34 -35 0 -323 -48 -336 -56 -5 -3 -8 -45 -8 -94 0 -66 12 -150 50 -337
93 -461 107 -615 75 -827 -8 -55 -15 -119 -15 -142 0 -24 -4 -65 -9 -91 -5
-26 -12 -81 -15 -120 l-6 -73 865 0 865 0 0 1800 0 1800 -2400 0 -2400 0 0
-1800z"/>
<path d="M1680 2680 c6 -11 15 -20 20 -20 16 0 11 27 -6 34 -24 9 -26 8 -14
-14z"/>
<path d="M1640 2619 c0 -41 0 -42 20 -24 15 13 17 22 10 36 -19 35 -30 31 -30
-12z"/>
<path d="M1724 2510 c24 -150 129 -291 239 -321 36 -9 54 -8 127 13 84 23 85
24 82 54 -2 24 2 33 20 42 21 10 21 11 3 11 -11 1 -35 -8 -54 -20 -46 -28 -59
-13 -38 43 10 24 17 47 17 51 0 12 -80 58 -150 87 -43 18 -77 26 -98 22 -22
-3 -45 3 -74 20 -77 44 -82 44 -74 -2z"/>
<path d="M2141 2341 c-10 -17 -9 -21 3 -21 20 0 31 19 18 32 -7 7 -14 3 -21
-11z"/>
<path d="M2351 2050 c-15 -45 -52 -318 -48 -357 4 -35 36 -79 48 -66 10 12 30
256 28 350 -2 95 -11 119 -28 73z"/>
<path d="M2975 1923 c11 -134 17 -173 23 -173 10 0 179 29 241 41 l54 11 -99
65 c-88 58 -204 123 -219 123 -3 0 -3 -30 0 -67z"/>
<path d="M2460 1859 c0 -21 20 -25 38 -7 18 18 15 26 -13 26 -18 0 -25 -6 -25
-19z"/>
<path d="M3553 1712 c-39 -2 -63 -7 -63 -14 0 -26 82 -147 129 -191 106 -99
194 -112 319 -47 42 22 90 48 106 59 l29 19 -51 26 c-29 14 -59 38 -69 52 -39
61 -227 106 -400 96z"/>
<path d="M2290 1603 c0 -3 7 -14 16 -24 17 -19 10 -43 -11 -35 -7 2 -15 -3
-18 -12 -3 -9 -8 -25 -12 -34 -5 -13 -2 -15 14 -11 29 7 43 27 51 73 5 30 4
40 -7 44 -20 8 -33 7 -33 -1z"/>
<path d="M4211 1553 c1 -34 2 -35 9 -13 11 36 11 50 0 50 -5 0 -10 -17 -9 -37z"/>
<path d="M4196 1488 c-3 -13 -5 -32 -5 -43 1 -11 5 -2 10 19 10 42 6 62 -5 24z"/>
</g>
</svg>
