<?xml version="1.0" standalone="no"?>
<!DOCTYPE svg PUBLIC "-//W3C//DTD SVG 20010904//EN"
 "http://www.w3.org/TR/2001/REC-SVG-20010904/DTD/svg10.dtd">
<svg version="1.0" xmlns="http://www.w3.org/2000/svg"
 width="480.000000pt" height="360.000000pt" viewBox="0 0 480.000000 360.000000"
 preserveAspectRatio="xMidYMid meet">
<metadata>
Created by potrace 1.16, written by Peter Selinger 2001-2019
</metadata>
<rect width="1" height="360" fill="#000000"/>
<rect x="479" width="1" height="360" fill="#000000"/>
<rect width="480" height="1" fill="#000000"/>
<rect y="359" width="480" height="1" fill="#000000"/>
<g transform="translate(0.000000,360.000000) scale(0.100000,-0.100000)"
fill="#000000" stroke="none">
<path d="M2915 3524 c-93 -16 -225 -77 -239 -111 -9 -19 -16 -21 -62 -16 -67
7 -147 -12 -177 -43 l-24 -24 -10 23 c-15 32 -72 47 -179 47 -95 0 -129 -6
-241 -46 -69 -24 -73 -28 -85 -65 -11 -39 -7 -57 23 -109 5 -8 14 -26 20 -40
38 -90 101 -208 119 -225 18 -16 25 -17 54 -7 44 16 43 16 38 -18 -8 -57 8
-158 31 -186 23 -30 25 -101 3 -119 -7 -5 -13 -32 -15 -60 -1 -27 -6 -81 -11
-119 -7 -54 -6 -72 4 -80 8 -6 16 -33 20 -59 4 -37 1 -57 -14 -88 -12 -22 -28
-72 -37 -112 -8 -39 -20 -77 -25 -84 -5 -6 -26 -14 -47 -18 -78 -13 -109 -92
-61 -157 l21 -29 -31 -82 c-34 -88 -98 -202 -216 -383 -77 -118 -83 -138 -63
-204 10 -34 8 -43 -26 -113 -54 -108 -42 -154 47 -191 20 -9 39 -19 42 -24 2
-4 16 -66 31 -136 39 -194 81 -270 151 -270 27 0 36 -5 40 -21 4 -16 -66 -229
-111 -337 -7 -17 32 -18 729 -18 554 0 736 3 736 12 0 6 -21 76 -46 156 -25
79 -43 146 -41 148 3 3 17 -17 32 -43 16 -26 52 -84 82 -127 47 -69 54 -84 48
-113 -4 -20 -2 -33 5 -33 5 0 10 16 10 35 0 28 4 35 19 35 85 0 101 96 54 319
-17 83 -27 160 -27 226 -1 55 -5 128 -10 161 -8 58 -7 65 22 115 25 45 29 58
19 74 -6 11 -60 123 -119 249 -88 187 -114 253 -143 363 l-34 134 20 52 c11
29 25 57 31 64 18 22 -2 33 -57 33 -42 0 -55 4 -59 18 -8 27 -24 130 -31 202
-9 86 -28 124 -82 157 -78 49 -90 61 -73 73 11 7 17 5 24 -10 5 -11 13 -20 17
-20 4 0 -5 32 -22 71 -35 87 -38 118 -4 64 30 -48 33 -39 5 15 -20 39 -29 79
-11 52 4 -8 11 40 14 115 4 70 10 140 13 155 6 27 11 30 65 42 14 3 31 17 39
30 11 22 10 30 -13 68 -14 24 -39 60 -56 82 -17 21 -31 48 -31 60 0 20 4 21
64 18 56 -3 66 -1 75 16 6 11 8 21 6 24 -3 3 1 27 9 54 10 33 13 89 11 174 -3
138 -10 180 -31 180 -8 0 -14 6 -14 14 0 30 -81 34 -215 10z m-655 -1213 c0
-16 -12 -41 -20 -41 -4 0 -5 11 -2 25 4 23 22 36 22 16z m710 -816 c10 -170
36 -418 47 -440 2 -5 -13 10 -35 35 -29 32 -37 48 -30 57 5 7 6 22 2 35 -4 13
-8 37 -9 53 -1 17 -7 67 -14 112 -18 123 -4 360 20 336 4 -4 13 -89 19 -188z
m-935 -1064 c-18 -55 -30 -69 -39 -46 -5 14 44 109 52 100 2 -2 -4 -26 -13
-54z"/>
</g>
</svg>
