<?xml version="1.0" standalone="no"?>
<!DOCTYPE svg PUBLIC "-//W3C//DTD SVG 20010904//EN"
 "http://www.w3.org/TR/2001/REC-SVG-20010904/DTD/svg10.dtd">
<svg version="1.0" xmlns="http://www.w3.org/2000/svg"
 width="480.000000pt" height="360.000000pt" viewBox="0 0 480.000000 360.000000"
 preserveAspectRatio="xMidYMid meet">
<metadata>
Created by potrace 1.16, written by Peter Selinger 2001-2019
</metadata>
<rect width="1" height="360" fill="#000000"/>
<rect x="479" width="1" height="360" fill="#000000"/>
<rect width="480" height="1" fill="#000000"/>
<rect y="359" width="480" height="1" fill="#000000"/>
<g transform="translate(0.000000,360.000000) scale(0.100000,-0.100000)"
fill="#000000" stroke="none">
<path d="M3 3558 c14 -96 76 -329 93 -347 9 -11 58 -16 181 -23 226 -11 431
-33 597 -64 163 -31 180 -33 204 -27 18 4 30 -2 52 -25 18 -20 41 -33 66 -37
141 -22 224 -58 272 -120 11 -14 30 -62 42 -107 22 -81 23 -137 8 -287 -3 -21
3 -26 32 -34 210 -55 176 -97 -92 -115 -70 -5 -130 -11 -134 -14 -3 -3 -1 -32
5 -64 16 -83 13 -202 -5 -264 -25 -83 -82 -170 -129 -194 -60 -32 -64 -51 -71
-416 l-7 -320 75 -73 c107 -104 125 -144 149 -331 27 -211 11 -317 -60 -399
l-30 -33 6 -132 6 -132 1769 0 1768 0 0 1800 0 1800 -2401 0 -2402 0 6 -42z"/>
<path d="M738 1565 c23 -8 58 -11 78 -8 55 9 20 23 -56 22 l-65 -1 43 -13z"/>
</g>
</svg>
