<?xml version="1.0" standalone="no"?>
<!DOCTYPE svg PUBLIC "-//W3C//DTD SVG 20010904//EN"
 "http://www.w3.org/TR/2001/REC-SVG-20010904/DTD/svg10.dtd">
<svg version="1.0" xmlns="http://www.w3.org/2000/svg"
 width="480.000000pt" height="360.000000pt" viewBox="0 0 480.000000 360.000000"
 preserveAspectRatio="xMidYMid meet">
<metadata>
Created by potrace 1.16, written by Peter Selinger 2001-2019
</metadata>
<rect width="1" height="360" fill="#000000"/>
<rect x="479" width="1" height="360" fill="#000000"/>
<rect width="480" height="1" fill="#000000"/>
<rect y="359" width="480" height="1" fill="#000000"/>
<g transform="translate(0.000000,360.000000) scale(0.100000,-0.100000)"
fill="#000000" stroke="none">
<path d="M2761 3572 c-29 -15 -74 -47 -99 -70 -43 -42 -47 -44 -117 -47 -83
-4 -126 -22 -171 -72 l-31 -35 -61 31 c-34 17 -101 43 -149 57 -78 24 -103 27
-213 25 -184 -3 -198 -3 -223 -1 -14 2 -43 -12 -71 -34 -26 -20 -60 -39 -74
-42 -32 -8 -69 -39 -86 -74 -21 -41 -12 -133 17 -172 14 -18 34 -51 45 -73 41
-81 164 -180 304 -247 26 -13 48 -28 48 -34 0 -7 -13 -40 -30 -75 -60 -129
-69 -193 -60 -405 5 -130 13 -206 25 -244 12 -37 15 -70 11 -105 -5 -37 -3
-46 4 -32 18 28 26 20 50 -43 24 -65 36 -78 25 -28 l-7 31 43 -35 c24 -20 58
-43 75 -51 17 -9 36 -23 43 -31 7 -9 17 -13 23 -10 5 3 16 0 25 -8 15 -11 16
-10 10 10 -4 16 -2 22 6 18 121 -52 160 -66 165 -61 4 4 -1 11 -11 16 -23 13
-22 28 2 22 22 -6 31 -62 31 -193 0 -93 -7 -114 -34 -104 -16 6 -18 3 -12 -32
3 -21 7 -144 8 -271 2 -172 6 -233 15 -233 6 0 15 4 18 10 8 13 55 -38 55 -60
0 -54 157 -430 168 -401 2 8 -1 113 -8 234 l-12 220 23 18 c22 16 23 20 12 51
-13 33 -20 438 -9 456 3 5 -6 14 -19 20 -15 7 -25 20 -25 32 0 25 12 26 27 1
6 -10 31 -28 55 -40 86 -43 91 -51 92 -150 0 -49 4 -87 9 -84 4 2 7 0 7 -5 0
-5 9 -8 21 -8 18 1 27 -15 58 -104 21 -58 52 -133 69 -167 18 -34 32 -70 32
-79 0 -10 -17 -32 -39 -50 -73 -63 -79 -88 -74 -296 4 -128 0 -228 -11 -332
-9 -82 -16 -157 -16 -167 0 -18 25 -19 800 -19 440 0 800 2 800 5 0 12 -100
367 -145 513 -21 69 -14 76 15 15 13 -26 34 -62 46 -80 13 -17 24 -41 24 -53
0 -11 14 -46 30 -77 17 -31 30 -61 30 -68 0 -7 20 -62 45 -121 25 -60 45 -115
45 -121 0 -10 29 -13 110 -13 61 0 110 4 110 9 0 15 -120 276 -139 302 -11 14
-24 42 -29 62 -6 21 -31 71 -56 112 -25 42 -48 85 -51 96 -6 18 -108 198 -171
301 -16 26 -51 85 -78 130 -28 46 -60 97 -73 114 -13 17 -23 34 -23 39 0 4
-13 29 -28 54 -16 25 -31 54 -35 65 -7 18 -6 18 20 1 16 -9 55 -45 88 -79 66
-67 125 -113 125 -97 0 6 -9 25 -20 43 -11 18 -20 39 -20 46 0 6 -26 53 -57
102 -127 198 -126 195 -8 82 59 -57 109 -102 111 -99 2 2 -18 37 -44 78 -67
101 -116 189 -109 196 3 3 27 -13 54 -35 26 -22 59 -45 73 -52 l24 -13 -17 27
c-10 15 -15 31 -12 36 3 5 -17 48 -46 95 -45 75 -96 185 -85 185 1 0 24 -27
51 -61 26 -33 49 -58 52 -56 2 3 -8 33 -22 68 -26 61 -61 173 -120 379 -159
558 -279 822 -456 1007 -32 33 -59 70 -59 81 0 10 -14 46 -31 80 -53 108 -208
226 -367 280 -47 17 -86 22 -160 22 -86 0 -103 -3 -151 -28z m230 -2133 c5 13
53 -60 94 -141 l19 -38 -26 -54 c-15 -30 -50 -80 -77 -110 -28 -31 -62 -73
-75 -95 -46 -72 -49 -68 -66 84 -13 122 -13 145 4 145 17 0 27 33 15 51 -5 8
-9 38 -9 67 0 48 4 56 42 98 l42 45 17 -32 c9 -18 18 -27 20 -20z m1169 -837
c0 -15 -2 -15 -10 -2 -13 20 -13 33 0 25 6 -3 10 -14 10 -23z"/>
</g>
</svg>
