<?xml version="1.0" standalone="no"?>
<!DOCTYPE svg PUBLIC "-//W3C//DTD SVG 20010904//EN"
 "http://www.w3.org/TR/2001/REC-SVG-20010904/DTD/svg10.dtd">
<svg version="1.0" xmlns="http://www.w3.org/2000/svg"
 width="480.000000pt" height="360.000000pt" viewBox="0 0 480.000000 360.000000"
 preserveAspectRatio="xMidYMid meet">
<metadata>
Created by potrace 1.16, written by Peter Selinger 2001-2019
</metadata>
<rect width="1" height="360" fill="#000000"/>
<rect x="479" width="1" height="360" fill="#000000"/>
<rect width="480" height="1" fill="#000000"/>
<rect y="359" width="480" height="1" fill="#000000"/>
<g transform="translate(0.000000,360.000000) scale(0.100000,-0.100000)"
fill="#000000" stroke="none">
<path d="M3026 3578 c-3 -13 -5 -32 -5 -43 0 -19 1 -18 11 3 6 12 15 22 20 22
5 0 8 -10 7 -22 -1 -13 -1 -40 -1 -62 2 -33 4 -37 17 -26 12 10 15 9 15 -8 0
-11 3 -33 6 -50 6 -29 4 -31 -37 -43 -24 -7 -50 -17 -56 -22 -18 -13 -16 -44
4 -77 14 -25 15 -34 4 -68 -8 -22 -10 -45 -6 -51 3 -7 9 -58 11 -114 4 -71 9
-106 20 -118 10 -11 12 -19 5 -24 -26 -15 -8 -24 20 -10 21 12 43 14 70 10 21
-4 39 -9 39 -12 0 -2 -11 -19 -25 -37 -38 -50 -30 -60 19 -26 50 34 70 38 62
13 -20 -69 -17 -90 11 -62 7 7 13 -6 18 -46 6 -55 5 -59 -24 -89 -17 -18 -31
-39 -31 -48 0 -17 -115 -133 -195 -197 -51 -39 -216 -231 -228 -263 -9 -25 2
-22 29 7 29 32 32 31 27 -2 l-5 -28 20 24 c40 49 29 0 -24 -115 -85 -183 -96
-217 -97 -319 -2 -78 4 -110 40 -240 42 -148 63 -276 63 -386 l0 -57 -136 -98
c-230 -167 -326 -234 -392 -271 -62 -35 -66 -35 -168 -35 -158 2 -168 5 -192
60 -10 26 -38 68 -62 95 -23 26 -35 44 -26 41 23 -9 20 6 -8 35 -38 41 -38 85
0 126 22 24 25 32 15 47 -14 22 -7 38 17 38 24 1 46 20 64 55 15 29 15 33 -14
90 -16 33 -34 64 -39 69 -5 6 -9 21 -9 33 0 31 -25 79 -45 87 -22 8 -21 8 -40
-11 -11 -11 -39 -18 -83 -20 -193 -12 -251 -88 -291 -383 -14 -105 -35 -204
-65 -306 -24 -83 -50 -186 -57 -228 -14 -90 -7 -295 12 -369 l13 -47 87 0 c83
0 88 1 92 23 l4 22 2 -22 c0 -13 7 -23 14 -23 8 0 11 17 9 60 -2 36 2 80 12
108 8 26 20 97 26 157 12 125 29 226 40 238 4 5 10 -23 14 -62 6 -56 4 -75 -8
-93 -23 -32 -20 -55 9 -74 l26 -17 -26 -27 c-30 -32 -32 -51 -5 -75 24 -22 25
-38 5 -55 -21 -17 -19 -43 4 -64 16 -14 18 -23 10 -49 -5 -18 -9 -35 -9 -39 0
-5 133 -8 296 -8 l296 0 -7 30 c-6 28 -4 30 62 63 155 78 498 216 509 204 2
-2 -5 -51 -17 -108 -12 -57 -24 -123 -26 -147 l-5 -42 721 0 721 0 -41 83
c-52 104 -82 154 -241 408 -128 203 -129 206 -132 270 -2 61 -41 169 -67 184
-5 4 -9 27 -9 53 0 26 -5 96 -12 155 -9 84 -9 126 1 190 18 118 21 127 42 127
21 0 25 21 9 51 -8 14 -6 45 10 116 20 90 23 98 64 134 24 21 49 52 56 69 8
19 18 29 26 26 9 -4 14 2 14 17 0 18 2 19 10 7 5 -8 10 -27 10 -42 0 -18 5
-28 15 -28 8 0 15 7 15 15 0 9 7 18 15 21 18 7 20 76 4 143 -6 26 -6 48 -1 53
5 5 3 30 -4 59 -10 38 -10 55 -2 68 9 14 7 30 -5 67 -15 47 -14 72 2 45 10
-16 31 -6 31 14 0 7 7 16 16 19 17 7 54 -9 54 -24 0 -4 19 -23 42 -41 l41 -33
-6 61 c-6 53 -4 61 8 57 21 -8 19 3 -10 53 -44 73 -19 47 40 -43 60 -93 79
-105 46 -28 -12 26 -19 49 -16 52 3 3 26 -9 52 -27 33 -23 44 -28 39 -15 -4
10 -2 20 4 24 6 4 -1 22 -19 46 -16 21 -32 50 -36 63 -8 26 -7 26 62 -21 23
-15 44 -28 46 -28 3 0 -2 28 -10 63 -8 34 -16 73 -18 87 -1 14 -19 60 -39 102
-20 43 -44 106 -53 141 -19 73 -20 70 84 317 l48 115 0 140 c0 77 -4 157 -8
178 l-8 37 -658 0 -659 0 -6 -22z m1244 -1030 c0 -6 -9 1 -20 15 -11 14 -20
29 -20 34 1 11 40 -37 40 -49z"/>
</g>
</svg>
