<?xml version="1.0" standalone="no"?>
<!DOCTYPE svg PUBLIC "-//W3C//DTD SVG 20010904//EN"
 "http://www.w3.org/TR/2001/REC-SVG-20010904/DTD/svg10.dtd">
<svg version="1.0" xmlns="http://www.w3.org/2000/svg"
 width="480.000000pt" height="360.000000pt" viewBox="0 0 480.000000 360.000000"
 preserveAspectRatio="xMidYMid meet">
<metadata>
Created by potrace 1.16, written by Peter Selinger 2001-2019
</metadata>
<rect width="1" height="360" fill="#000000"/>
<rect x="479" width="1" height="360" fill="#000000"/>
<rect width="480" height="1" fill="#000000"/>
<rect y="359" width="480" height="1" fill="#000000"/>
<g transform="translate(0.000000,360.000000) scale(0.100000,-0.100000)"
fill="#000000" stroke="none">
<path d="M2185 3150 c-161 -23 -268 -136 -311 -328 -16 -71 -15 -156 1 -195
11 -25 -68 -97 -106 -97 -23 0 -30 -6 -35 -27 -4 -16 -20 -39 -36 -53 l-30
-25 70 -68 c68 -65 94 -79 107 -56 8 12 55 -52 55 -74 0 -19 -55 -102 -79
-119 -24 -17 -18 -28 16 -28 27 0 28 -8 8 -57 -21 -49 -11 -53 29 -14 l34 33
14 -44 c18 -52 29 -54 41 -8 l9 35 25 -50 c41 -81 54 -99 63 -85 6 9 11 7 20
-10 10 -18 14 -20 21 -9 5 8 9 28 10 44 1 24 3 25 6 7 5 -23 37 -47 52 -38 5
3 12 -4 16 -17 7 -18 9 -14 14 23 l6 45 18 -50 c14 -40 15 -52 4 -62 -13 -13
-84 -31 -232 -58 -105 -20 -155 -43 -189 -87 -35 -47 -102 -184 -128 -264 -12
-38 -27 -72 -32 -76 -18 -13 -36 -9 -43 10 -11 28 -24 32 -123 32 -131 1 -225
16 -288 46 -53 26 -133 87 -270 208 -40 35 -105 83 -145 107 -180 105 -162 89
-158 142 1 26 -2 47 -7 47 -18 0 -68 -48 -158 -152 -106 -121 -249 -251 -367
-333 l-86 -60 0 -140 0 -140 89 -45 c72 -36 93 -43 107 -34 19 11 43 43 125
158 69 96 105 88 153 -32 10 -23 21 -42 25 -42 9 0 27 51 32 90 2 21 9 26 39
28 66 6 199 -117 199 -183 0 -21 8 -20 96 22 62 30 91 38 135 38 64 0 97 -18
191 -104 30 -28 62 -51 69 -51 8 0 50 26 94 57 149 106 283 182 363 207 35 11
40 -20 8 -53 -33 -34 -33 -57 -1 -65 14 -4 25 -12 25 -18 0 -6 7 -19 16 -29
15 -16 15 -28 0 -143 -28 -218 -22 -247 56 -287 28 -14 54 -20 84 -17 l44 3 0
-82 c0 -76 -2 -82 -22 -88 -34 -10 -88 -38 -88 -47 0 -4 11 -15 24 -23 30 -20
62 -93 47 -108 -7 -7 -7 -16 0 -28 7 -14 -3 -42 -41 -118 -27 -55 -50 -103
-50 -106 0 -3 259 -5 575 -5 316 0 575 2 575 5 0 3 -23 51 -51 107 l-51 101
26 57 c14 32 26 66 26 75 0 10 -20 37 -44 59 -37 34 -49 55 -70 119 -21 68
-22 77 -8 71 41 -18 107 -15 147 8 64 38 71 59 57 180 -25 217 -25 232 -3 252
12 11 21 25 21 32 0 7 12 16 27 21 l28 10 -28 25 c-78 73 15 25 158 -81 60
-45 117 -81 126 -81 9 0 36 15 60 33 121 93 193 89 332 -17 26 -20 51 -36 56
-36 5 0 18 17 28 37 26 54 111 95 202 97 l66 1 -3 -42 c-2 -26 1 -43 7 -43 6
0 11 4 11 10 0 5 16 28 36 50 69 76 112 49 191 -116 24 -51 50 -98 59 -105 13
-10 28 -10 87 0 135 25 157 24 242 -3 44 -14 83 -26 88 -26 4 0 7 40 7 89 l0
88 -177 179 c-184 185 -265 286 -404 502 -45 71 -84 122 -92 120 -6 -3 -18
-22 -25 -43 -7 -22 -15 -41 -17 -43 -2 -2 -57 -23 -122 -46 -72 -26 -158 -67
-220 -104 -214 -130 -275 -152 -411 -151 -100 0 -237 20 -251 35 -4 5 -20 39
-35 76 -15 37 -42 91 -59 120 -42 69 -100 100 -245 133 -109 24 -202 59 -202
76 0 18 28 77 41 84 8 6 10 4 5 -4 -9 -14 1 -81 12 -81 4 0 17 16 30 35 22 35
40 45 39 23 -1 -33 4 -58 11 -58 4 0 18 18 32 39 13 22 27 38 32 35 4 -3 11
10 16 28 l9 33 8 -27 c10 -38 28 -35 44 7 l12 35 37 -37 c41 -42 52 -32 28 28
-23 57 -21 62 22 55 53 -9 73 7 38 29 -31 21 -76 93 -76 122 0 30 26 49 45 33
22 -18 29 -6 17 29 -9 25 -7 34 8 53 l19 23 21 -22 c11 -13 25 -23 30 -23 16
0 30 37 30 78 0 32 -8 50 -40 88 -22 27 -40 52 -40 57 0 15 61 -28 101 -70
l39 -42 16 37 c11 27 15 59 12 120 l-4 82 35 -2 c20 -1 41 -5 47 -10 6 -4 33
-9 60 -10 63 -4 70 19 22 65 -48 46 -110 203 -109 277 0 30 -2 63 -5 72 -6 21
-71 35 -86 20 -6 -6 -17 -8 -24 -5 -7 3 -25 -5 -40 -16 -15 -12 -33 -21 -40
-21 -8 0 -23 -9 -33 -19 -36 -36 -58 -30 -99 23 -42 56 -116 110 -170 126 -83
24 -411 43 -507 30z"/>
</g>
</svg>
