<?xml version="1.0" standalone="no"?>
<!DOCTYPE svg PUBLIC "-//W3C//DTD SVG 20010904//EN"
 "http://www.w3.org/TR/2001/REC-SVG-20010904/DTD/svg10.dtd">
<svg version="1.0" xmlns="http://www.w3.org/2000/svg"
 width="480.000000pt" height="360.000000pt" viewBox="0 0 480.000000 360.000000"
 preserveAspectRatio="xMidYMid meet">
<metadata>
Created by potrace 1.16, written by Peter Selinger 2001-2019
</metadata>
<rect width="1" height="360" fill="#000000"/>
<rect x="479" width="1" height="360" fill="#000000"/>
<rect width="480" height="1" fill="#000000"/>
<rect y="359" width="480" height="1" fill="#000000"/>
<g transform="translate(0.000000,360.000000) scale(0.100000,-0.100000)"
fill="#000000" stroke="none">
<path d="M2105 2972 c-42 -26 -136 -34 -187 -16 -84 29 -157 7 -233 -72 -51
-52 -69 -83 -79 -134 -3 -19 -22 -67 -41 -106 -68 -137 -101 -319 -110 -599
-3 -104 -8 -214 -11 -242 -3 -29 -1 -53 3 -53 5 0 19 17 32 38 l22 37 -6 -69
c-8 -82 3 -81 35 4 12 33 25 60 27 60 3 0 2 -24 -1 -52 -9 -78 8 -94 31 -29
l18 52 5 -103 5 -103 18 35 17 35 -6 -60 c-12 -115 -11 -120 14 -123 21 -3 23
-8 20 -60 -3 -52 -5 -57 -28 -60 -82 -9 -92 -26 -25 -43 l45 -11 0 -182 c0
-99 -5 -198 -10 -218 -28 -100 -69 -335 -75 -432 -5 -73 -15 -132 -31 -180
-22 -63 -64 -245 -64 -275 0 -8 124 -11 425 -11 l425 0 -5 23 c-11 49 -25 182
-25 233 0 38 4 56 14 60 8 3 18 20 22 37 3 18 16 49 28 69 18 31 19 42 10 77
-6 22 -7 46 -3 53 6 10 9 9 13 -2 103 -334 136 -418 196 -505 l31 -45 212 0
212 0 50 28 c96 54 128 74 164 98 l36 24 6 -40 c10 -76 39 -60 39 23 0 47 14
63 25 28 7 -22 45 -59 45 -44 0 6 -7 27 -16 48 -13 32 -13 39 -1 54 22 25 28
76 17 154 -31 217 -123 523 -214 714 l-54 111 66 12 c92 16 123 31 155 77 31
45 67 160 67 213 -1 59 -33 116 -80 140 -32 16 -41 26 -37 41 6 23 -18 26 -27
4 -5 -13 -10 -14 -27 -4 -28 14 -125 4 -156 -17 -53 -34 -85 -148 -64 -230 10
-40 10 -49 -5 -65 -13 -14 -20 -16 -34 -6 -16 9 -43 -1 -162 -60 -79 -39 -174
-89 -212 -111 l-69 -40 -79 71 c-81 73 -86 83 -105 187 -5 25 -14 45 -21 45
-17 0 -102 115 -102 139 0 11 -9 30 -21 42 -20 21 -20 25 -8 99 7 43 19 79 26
82 9 3 10 27 6 89 -4 53 -2 84 4 84 5 0 15 11 21 25 8 17 20 25 37 25 26 0 46
27 28 39 -17 10 -35 52 -29 66 3 8 15 19 27 25 20 11 21 10 16 -9 -4 -18 -3
-19 16 -9 12 6 25 15 28 20 3 5 18 10 32 12 28 3 67 44 67 69 0 24 28 47 48
40 15 -6 15 -5 3 10 -8 10 -16 56 -21 115 -8 114 -35 183 -105 260 -35 38 -45
58 -45 84 0 24 -9 44 -31 67 -17 19 -34 44 -39 56 -5 12 -29 39 -54 60 -56 45
-107 55 -151 27z m-51 -1035 c11 -8 19 -32 23 -70 l6 -58 -37 22 c-34 20 -37
25 -32 52 3 16 6 38 6 48 0 22 9 24 34 6z"/>
</g>
</svg>
