<?xml version="1.0" standalone="no"?>
<!DOCTYPE svg PUBLIC "-//W3C//DTD SVG 20010904//EN"
 "http://www.w3.org/TR/2001/REC-SVG-20010904/DTD/svg10.dtd">
<svg version="1.0" xmlns="http://www.w3.org/2000/svg"
 width="480.000000pt" height="360.000000pt" viewBox="0 0 480.000000 360.000000"
 preserveAspectRatio="xMidYMid meet">
<metadata>
Created by potrace 1.16, written by Peter Selinger 2001-2019
</metadata>
<rect width="1" height="360" fill="#000000"/>
<rect x="479" width="1" height="360" fill="#000000"/>
<rect width="480" height="1" fill="#000000"/>
<rect y="359" width="480" height="1" fill="#000000"/>
<g transform="translate(0.000000,360.000000) scale(0.100000,-0.100000)"
fill="#000000" stroke="none">
<path d="M0 2784 l0 -815 333 3 333 3 37 41 c42 47 126 94 210 118 88 26 93
32 138 221 10 43 12 68 5 88 -7 18 -7 33 -1 41 44 59 44 59 46 196 3 163 11
202 50 257 28 40 29 44 15 65 -26 36 -1 114 44 140 23 13 30 24 30 47 0 16 5
33 10 36 6 3 10 21 10 38 0 29 4 34 43 47 48 17 49 18 39 193 l-5 97 -668 0
-669 0 0 -816z"/>
<path d="M1805 3551 c-6 -45 -3 -55 27 -107 32 -54 37 -58 103 -81 56 -19 82
-22 127 -17 l56 6 25 -38 c16 -26 37 -43 63 -53 151 -52 276 -144 329 -243 15
-29 50 -86 77 -126 27 -40 58 -98 69 -129 16 -48 42 -203 35 -210 -3 -4 -76
79 -169 192 -95 116 -184 191 -307 257 -36 19 -116 63 -177 97 -62 34 -128 65
-147 68 -32 5 -35 3 -38 -23 -3 -26 -7 -29 -48 -34 -49 -6 -63 -26 -35 -54 20
-20 35 -20 108 -1 103 27 131 22 183 -31 54 -57 128 -205 143 -288 11 -60 5
-157 -11 -188 -5 -10 -23 -25 -41 -34 -44 -24 -292 -32 -389 -14 l-69 13 -23
-27 c-21 -28 -22 -28 -58 -13 -49 20 -72 57 -64 100 7 36 -11 60 -63 87 -22
11 -27 10 -43 -10 -22 -27 -23 -42 -3 -80 9 -17 13 -30 10 -30 -3 0 2 -14 10
-30 16 -32 68 -70 95 -70 8 0 47 -16 86 -36 l71 -37 87 28 c74 23 98 27 159
22 40 -3 94 -15 122 -27 31 -14 80 -24 130 -27 74 -5 134 -23 136 -41 8 -59 6
-99 -6 -129 -8 -19 -15 -49 -15 -65 0 -37 -33 -102 -62 -122 -12 -9 -18 -19
-14 -23 4 -5 559 -9 1232 -11 l1224 -2 0 -35 0 -35 -1272 -2 -1273 -3 -40 -27
c-23 -15 -62 -32 -88 -37 -26 -5 -51 -12 -54 -15 -4 -4 47 -60 112 -126 65
-66 116 -122 112 -126 -3 -4 -33 -8 -66 -9 -64 -3 -115 -23 -216 -87 -89 -56
-88 -54 -69 -90 9 -17 19 -63 23 -102 4 -39 20 -101 34 -138 31 -81 25 -93
-56 -103 -44 -6 -61 -3 -93 14 -21 12 -46 21 -55 21 -9 0 -28 10 -43 21 -21
17 -26 27 -21 46 13 53 25 177 17 185 -10 10 -202 -11 -216 -23 -12 -10 53
-107 119 -179 28 -30 70 -80 93 -111 37 -50 42 -62 42 -110 0 -43 6 -63 25
-89 29 -39 33 -87 8 -105 -9 -7 -26 -41 -37 -76 -17 -50 -28 -67 -52 -81 -30
-18 -35 -18 -72 -2 -61 24 -76 54 -77 147 0 48 6 99 17 130 24 76 22 95 -13
125 -18 14 -38 41 -45 58 -8 18 -35 52 -61 76 -27 23 -78 74 -116 112 l-67 69
-65 -7 c-109 -11 -287 24 -418 83 -170 76 -227 236 -162 455 14 49 23 91 20
95 -4 3 -141 7 -306 9 l-299 3 0 -951 0 -950 2400 0 2400 0 0 1800 0 1800
-1494 0 -1494 0 -7 -49z"/>
</g>
</svg>
