<?xml version="1.0" standalone="no"?>
<!DOCTYPE svg PUBLIC "-//W3C//DTD SVG 20010904//EN"
 "http://www.w3.org/TR/2001/REC-SVG-20010904/DTD/svg10.dtd">
<svg version="1.0" xmlns="http://www.w3.org/2000/svg"
 width="480.000000pt" height="360.000000pt" viewBox="0 0 480.000000 360.000000"
 preserveAspectRatio="xMidYMid meet">
<metadata>
Created by potrace 1.16, written by Peter Selinger 2001-2019
</metadata>
<rect width="1" height="360" fill="#000000"/>
<rect x="479" width="1" height="360" fill="#000000"/>
<rect width="480" height="1" fill="#000000"/>
<rect y="359" width="480" height="1" fill="#000000"/>
<g transform="translate(0.000000,360.000000) scale(0.100000,-0.100000)"
fill="#000000" stroke="none">
<path d="M1235 3549 c-102 -67 -157 -112 -210 -177 l-44 -53 -14 23 c-8 13
-40 67 -71 120 -31 53 -66 104 -78 112 -28 20 -66 20 -165 1 -238 -47 -454
-75 -580 -75 l-73 0 0 -98 0 -99 152 -6 c128 -5 155 -9 165 -24 7 -9 13 -20
13 -24 0 -3 -38 -29 -84 -58 l-84 -51 -51 -148 c-28 -81 -59 -167 -67 -192
l-16 -45 86 -309 c48 -171 85 -315 82 -322 -3 -7 -25 -21 -49 -32 -24 -11 -47
-24 -51 -30 -7 -12 41 -55 111 -101 50 -32 51 -34 78 -127 14 -52 25 -107 23
-122 l-3 -27 90 3 c50 2 162 8 250 12 88 5 331 16 540 25 209 8 472 20 585 26
116 6 751 13 1462 16 l1256 5 28 101 c25 92 32 106 71 141 50 46 52 57 19 83
l-25 18 90 325 c49 179 89 339 89 356 0 26 -82 280 -120 371 -5 12 -47 45 -94
73 -86 53 -96 69 -55 90 28 15 128 12 145 -4 18 -19 18 -40 -1 -56 -8 -7 -15
-19 -15 -27 0 -12 3 -13 13 -4 8 6 17 8 20 5 3 -4 14 12 23 35 10 27 21 40 30
37 7 -3 15 0 18 7 3 8 9 5 18 -8 7 -11 13 -22 13 -25 1 -3 7 -52 15 -110 7
-58 17 -112 21 -120 5 -8 9 79 9 194 0 183 -2 207 -15 196 -18 -15 -68 -5 -62
13 2 7 16 16 31 22 21 7 29 6 36 -5 7 -10 10 7 10 53 l0 67 -94 0 c-90 0 -95
-1 -98 -22 -4 -27 -1 -27 -236 3 -85 10 -214 19 -290 19 l-138 0 -46 -77 c-25
-43 -67 -115 -93 -161 l-47 -82 -81 72 c-45 40 -90 83 -100 95 -10 12 -55 52
-100 88 l-81 65 -1042 0 -1041 0 -78 -51z m2949 -255 c3 -9 6 -24 6 -33 0 -10
9 -26 20 -36 20 -18 19 -18 -14 -55 -19 -21 -37 -47 -41 -59 -8 -27 -11 -27
-78 10 l-57 31 47 59 c43 55 88 98 104 99 4 0 10 -7 13 -16z m-3551 -35 c26
-12 137 -140 137 -158 0 -6 -24 -29 -52 -52 l-53 -41 -22 50 c-12 28 -36 61
-53 73 -35 27 -36 33 -10 59 11 11 20 33 20 50 0 34 0 34 33 19z"/>
<path d="M2120 1409 c-522 -11 -932 -26 -1709 -62 l-254 -12 -33 -85 c-18 -47
-53 -151 -78 -233 l-46 -147 0 -435 0 -435 287 2 286 3 58 130 c32 72 91 212
131 312 40 100 76 177 79 170 4 -7 9 -82 13 -167 3 -85 9 -221 12 -302 l7
-148 1513 0 1514 0 -1 37 c-1 54 21 355 28 373 2 8 29 -45 59 -119 29 -74 70
-169 90 -213 l37 -78 344 0 343 0 0 143 c0 247 -27 464 -86 702 -49 197 -161
536 -184 559 -13 13 -1852 17 -2410 5z"/>
</g>
</svg>
