<?xml version="1.0" standalone="no"?>
<!DOCTYPE svg PUBLIC "-//W3C//DTD SVG 20010904//EN"
 "http://www.w3.org/TR/2001/REC-SVG-20010904/DTD/svg10.dtd">
<svg version="1.0" xmlns="http://www.w3.org/2000/svg"
 width="480.000000pt" height="360.000000pt" viewBox="0 0 480.000000 360.000000"
 preserveAspectRatio="xMidYMid meet">
<metadata>
Created by potrace 1.16, written by Peter Selinger 2001-2019
</metadata>
<rect width="1" height="360" fill="#000000"/>
<rect x="479" width="1" height="360" fill="#000000"/>
<rect width="480" height="1" fill="#000000"/>
<rect y="359" width="480" height="1" fill="#000000"/>
<g transform="translate(0.000000,360.000000) scale(0.100000,-0.100000)"
fill="#000000" stroke="none">
<path d="M0 2337 l0 -1263 108 12 c59 7 170 17 247 24 77 6 174 15 215 20 41
5 169 14 285 20 308 15 314 16 333 52 10 16 46 75 82 131 36 56 69 107 73 114
4 7 -17 23 -58 44 -36 18 -70 39 -76 46 -15 17 83 199 157 293 7 8 43 53 80
100 181 226 322 481 519 940 53 124 109 248 125 275 24 42 70 171 70 195 0 4
-18 15 -41 25 -55 25 -112 92 -142 168 l-25 62 -976 3 -976 2 0 -1263z"/>
<path d="M2991 3523 c-13 -43 -39 -127 -58 -188 -19 -60 -59 -200 -89 -310
-50 -182 -62 -213 -133 -345 -291 -545 -401 -821 -466 -1165 -17 -92 -47 -203
-69 -257 -9 -21 -16 -41 -16 -46 0 -5 80 -12 178 -16 357 -14 724 -44 957 -80
67 -10 93 -11 101 -2 7 6 29 81 49 166 42 176 43 239 3 318 -38 78 -80 81
-186 13 -56 -37 -65 -47 -100 -123 -43 -92 -62 -112 -108 -121 -80 -15 -86 49
-20 189 53 111 97 177 240 359 146 187 211 260 269 301 26 19 45 39 42 44 -4
6 -30 25 -58 43 -76 49 -84 61 -65 100 29 61 131 212 194 287 264 317 370 473
559 823 l47 87 -624 0 -623 0 -24 -77z"/>
<path d="M4762 2628 c-16 -40 -42 -111 -57 -158 -110 -334 -133 -393 -207
-522 l-62 -108 -41 0 c-23 0 -64 7 -91 15 -27 8 -51 15 -54 15 -3 0 -5 -84 -6
-188 -1 -321 -23 -400 -166 -596 -32 -44 -58 -83 -58 -88 0 -4 10 -10 23 -13
83 -18 298 -72 382 -95 178 -51 333 -90 354 -90 l21 0 0 950 c0 523 -2 950 -4
950 -2 0 -18 -33 -34 -72z"/>
<path d="M1081 681 c-11 -11 -25 -39 -31 -62 -21 -78 -65 -128 -111 -129 -50
0 -60 32 -45 144 l9 59 -239 -7 c-132 -3 -335 -11 -451 -18 l-213 -12 0 -328
0 -328 2400 0 2400 0 0 144 c0 128 -2 144 -17 149 -323 94 -522 135 -908 188
-140 19 -361 51 -482 69 -28 4 -84 7 -124 5 -66 -3 -119 8 -119 25 0 9 -151
28 -315 40 -71 5 -143 12 -160 15 -41 7 -458 35 -622 42 l-132 6 -6 -37 c-4
-20 -5 -45 -2 -55 2 -10 1 -53 -3 -95 -8 -86 -22 -105 -77 -106 -59 0 -73 26
-73 134 0 101 -13 131 -29 69 -53 -201 -61 -241 -61 -317 0 -106 -15 -131 -74
-123 -54 7 -80 38 -72 87 17 108 37 344 31 368 -6 25 -8 26 -20 9 -19 -26 -55
-271 -55 -375 0 -134 -21 -174 -88 -166 -83 11 -92 35 -63 181 17 86 21 137
19 248 l-3 140 -37 -79 c-55 -115 -83 -198 -107 -318 -32 -163 -66 -228 -119
-228 -45 0 -64 34 -70 123 -3 62 1 87 31 182 31 98 57 187 88 308 7 28 7 42
-2 53 -15 19 -25 18 -48 -5z"/>
</g>
</svg>
