<?xml version="1.0" standalone="no"?>
<!DOCTYPE svg PUBLIC "-//W3C//DTD SVG 20010904//EN"
 "http://www.w3.org/TR/2001/REC-SVG-20010904/DTD/svg10.dtd">
<svg version="1.0" xmlns="http://www.w3.org/2000/svg"
 width="480.000000pt" height="360.000000pt" viewBox="0 0 480.000000 360.000000"
 preserveAspectRatio="xMidYMid meet">
<metadata>
Created by potrace 1.16, written by Peter Selinger 2001-2019
</metadata>
<rect width="1" height="360" fill="#000000"/>
<rect x="479" width="1" height="360" fill="#000000"/>
<rect width="480" height="1" fill="#000000"/>
<rect y="359" width="480" height="1" fill="#000000"/>
<g transform="translate(0.000000,360.000000) scale(0.100000,-0.100000)"
fill="#000000" stroke="none">
<path d="M2020 3588 c0 -14 49 -206 75 -298 46 -164 54 -229 43 -360 -8 -92
-8 -147 1 -213 10 -79 50 -207 72 -232 27 -29 -16 -63 -121 -95 -57 -17 -81
-33 -170 -111 -58 -50 -139 -118 -180 -149 -119 -92 -145 -124 -170 -210 -53
-182 -75 -243 -138 -373 l-67 -138 23 -18 23 -17 -20 -18 c-12 -11 -32 -38
-46 -62 -31 -53 -79 -83 -144 -91 -51 -6 -82 -25 -61 -38 16 -10 12 -22 -10
-28 -25 -6 -28 -47 -3 -47 15 0 15 -1 0 -18 -31 -34 -22 -45 36 -40 l54 4 -13
-25 c-20 -38 -2 -50 43 -26 51 28 215 186 270 261 l46 63 49 -2 c32 -1 52 3
57 11 5 8 23 69 40 135 18 67 59 190 92 272 l59 150 58 30 c147 77 253 148
299 201 70 80 117 112 212 140 l84 26 23 -24 c13 -12 26 -38 30 -55 5 -27 3
-33 -11 -33 -14 0 -15 -3 -5 -15 14 -16 16 -15 -55 -37 -45 -15 -52 -31 -54
-135 0 -34 -5 -65 -11 -68 -17 -11 -11 -35 9 -35 11 0 23 -5 26 -11 8 -12 -32
-59 -50 -59 -28 0 -205 -192 -205 -222 0 -9 -9 -23 -21 -32 -40 -28 -72 -86
-66 -121 5 -27 2 -34 -15 -38 -16 -5 -19 -11 -14 -29 3 -13 6 -38 6 -55 0 -18
8 -41 18 -51 10 -10 21 -26 25 -35 9 -24 35 -21 97 14 193 108 223 121 249
109 26 -12 114 -7 212 11 53 11 57 10 101 -20 133 -90 255 -126 379 -112 108
12 221 48 264 84 52 42 72 98 90 245 23 190 45 253 120 342 20 24 32 46 26 48
-22 7 -144 -62 -223 -127 -116 -95 -151 -111 -165 -73 -4 9 -28 51 -55 93 -26
42 -48 87 -48 101 0 16 21 53 53 94 63 83 180 247 231 325 44 67 52 112 19
117 -13 2 -25 14 -30 29 -8 24 -10 24 -25 9 -20 -19 -29 -21 -26 -4 2 6 -6 14
-17 16 -11 2 -22 8 -25 13 -9 14 -49 -2 -55 -22 -4 -10 -11 -19 -17 -19 -6 0
-27 -12 -47 -27 -20 -15 -42 -28 -49 -28 -7 0 -21 -10 -30 -22 -27 -35 -42
-15 -48 63 -7 82 5 115 88 244 104 162 164 287 188 395 13 55 38 138 56 185
39 103 60 178 69 248 l7 52 -190 0 -191 0 -46 -75 c-50 -79 -61 -91 -45 -49
17 43 11 41 -20 -6 l-31 -45 3 88 3 87 -497 0 c-392 0 -498 -3 -498 -12z m685
-170 c-4 -40 -11 -77 -15 -83 -4 -5 -10 -29 -14 -53 -3 -23 -12 -66 -19 -95
l-12 -52 -6 80 c-4 44 -10 99 -14 121 -7 38 -4 46 34 98 23 31 44 56 47 56 3
0 3 -33 -1 -72z"/>
</g>
</svg>
