<?xml version="1.0" standalone="no"?>
<!DOCTYPE svg PUBLIC "-//W3C//DTD SVG 20010904//EN"
 "http://www.w3.org/TR/2001/REC-SVG-20010904/DTD/svg10.dtd">
<svg version="1.0" xmlns="http://www.w3.org/2000/svg"
 width="480.000000pt" height="360.000000pt" viewBox="0 0 480.000000 360.000000"
 preserveAspectRatio="xMidYMid meet">
<metadata>
Created by potrace 1.16, written by Peter Selinger 2001-2019
</metadata>
<rect width="1" height="360" fill="#000000"/>
<rect x="479" width="1" height="360" fill="#000000"/>
<rect width="480" height="1" fill="#000000"/>
<rect y="359" width="480" height="1" fill="#000000"/>
<g transform="translate(0.000000,360.000000) scale(0.100000,-0.100000)"
fill="#000000" stroke="none">
<path d="M2552 3569 c-9 -17 -34 -52 -55 -78 -40 -50 -67 -122 -67 -183 0 -20
11 -68 25 -104 15 -39 23 -76 19 -88 -3 -12 -32 -77 -64 -146 -32 -69 -64
-144 -71 -168 -14 -47 -23 -58 -60 -67 -22 -5 -33 1 -70 40 -24 26 -58 53 -75
61 -28 12 -32 18 -36 65 -5 45 -11 58 -42 86 -38 35 -63 40 -99 21 -41 -21
-63 -64 -28 -53 16 5 23 -4 40 -50 24 -65 25 -69 9 -94 -10 -16 -7 -24 15 -50
24 -29 26 -38 24 -105 -3 -70 -5 -76 -45 -122 -24 -28 -45 -64 -48 -84 -4 -19
-19 -62 -34 -95 -26 -60 -45 -145 -31 -145 4 0 12 12 18 28 l11 27 1 -35 c2
-48 31 -108 72 -148 l34 -33 5 26 5 26 26 -28 c49 -52 52 -67 19 -98 -17 -16
-30 -32 -30 -37 0 -5 16 -16 35 -25 19 -9 35 -24 35 -34 0 -9 9 -28 21 -43 21
-27 38 -143 39 -270 0 -53 -3 -62 -35 -97 -19 -22 -35 -43 -35 -49 0 -5 -11
-26 -25 -46 -18 -27 -25 -50 -25 -86 0 -34 -9 -66 -31 -109 -62 -125 -79 -252
-48 -386 5 -24 7 -49 4 -54 -4 -5 -27 -9 -52 -9 -44 0 -45 1 -38 27 44 178 23
281 -80 383 l-53 52 14 34 c20 49 17 70 -13 94 -40 31 -82 24 -110 -19 l-24
-35 -102 0 c-89 -1 -109 -4 -160 -28 -76 -36 -170 -126 -204 -197 -24 -49 -28
-68 -28 -147 l0 -92 -65 -28 c-77 -34 -193 -139 -232 -211 -101 -186 -87 -397
35 -520 l41 -43 327 0 327 0 37 42 c89 103 143 265 130 387 l-6 56 27 -62 c19
-46 31 -63 45 -63 25 0 24 -15 -1 -37 -11 -10 -29 -25 -39 -35 -11 -9 -30 -48
-42 -87 -21 -65 -22 -72 -6 -88 15 -17 15 -21 -3 -59 -10 -23 -24 -44 -31 -47
-8 -3 3 -6 23 -6 35 -1 38 1 49 39 9 29 19 42 37 47 17 4 31 21 48 57 13 28
24 56 24 62 0 6 10 24 21 38 19 24 20 32 10 65 -17 59 -14 78 13 85 14 3 31
18 38 33 17 35 41 40 67 14 29 -29 30 -132 1 -168 -11 -14 -20 -34 -20 -44 0
-11 -13 -38 -30 -61 -16 -22 -30 -46 -30 -53 0 -6 -11 -17 -25 -23 -34 -16
-52 -56 -35 -77 11 -13 85 -15 605 -15 l592 0 33 97 c31 95 32 102 27 223 -6
146 -20 201 -137 552 -89 264 -97 301 -81 349 6 19 18 73 26 122 8 48 24 120
35 160 47 176 63 303 63 507 0 144 -4 214 -17 268 -20 90 -20 85 5 77 23 -8
20 3 -9 38 -28 32 -6 27 31 -8 21 -19 47 -35 60 -35 23 0 24 2 26 109 1 66 -2
112 -9 116 -5 3 -10 19 -10 35 0 49 -63 178 -124 256 -62 79 -107 104 -182
104 -35 0 -75 -5 -90 -10 -15 -6 -29 -9 -31 -6 -3 2 0 29 6 58 7 30 15 119 20
198 10 153 17 182 58 242 30 45 23 62 -23 55 l-34 -6 0 50 0 49 -55 0 c-52 0
-57 -2 -73 -31z m-392 -794 c20 -24 6 -28 -15 -5 -10 11 -13 20 -8 20 6 0 16
-7 23 -15z m655 -2471 c-14 -29 -25 -58 -25 -63 0 -6 -5 -11 -11 -11 -7 0 -9
9 -6 22 7 25 -13 75 -41 104 -19 20 -21 33 -19 132 l2 110 62 -121 63 -121
-25 -52z m-1019 -50 c13 5 15 1 9 -21 -3 -16 -16 -48 -27 -73 -18 -38 -22 -42
-25 -22 -5 24 -28 30 -36 10 -3 -8 -6 -5 -6 5 -1 10 9 41 20 68 17 39 24 47
35 38 8 -6 21 -8 30 -5z m164 -129 c0 -16 -6 -25 -15 -25 -18 0 -18 5 -5 31
14 26 20 24 20 -6z"/>
</g>
</svg>
