<?xml version="1.0" standalone="no"?>
<!DOCTYPE svg PUBLIC "-//W3C//DTD SVG 20010904//EN"
 "http://www.w3.org/TR/2001/REC-SVG-20010904/DTD/svg10.dtd">
<svg version="1.0" xmlns="http://www.w3.org/2000/svg"
 width="480.000000pt" height="360.000000pt" viewBox="0 0 480.000000 360.000000"
 preserveAspectRatio="xMidYMid meet">
<metadata>
Created by potrace 1.16, written by Peter Selinger 2001-2019
</metadata>
<rect width="1" height="360" fill="#000000"/>
<rect x="479" width="1" height="360" fill="#000000"/>
<rect width="480" height="1" fill="#000000"/>
<rect y="359" width="480" height="1" fill="#000000"/>
<g transform="translate(0.000000,360.000000) scale(0.100000,-0.100000)"
fill="#000000" stroke="none">
<path d="M2353 1661 c-10 -10 -43 -29 -73 -42 -82 -34 -207 -132 -226 -177
-35 -84 -38 -124 -15 -200 36 -119 150 -226 299 -281 l83 -30 72 29 c109 44
126 54 200 122 58 54 72 73 93 131 33 94 32 134 -8 240 -18 46 -167 152 -252
177 -39 12 -79 28 -90 36 -28 19 -62 17 -83 -5z"/>
</g>
</svg>
