<?xml version="1.0" standalone="no"?>
<!DOCTYPE svg PUBLIC "-//W3C//DTD SVG 20010904//EN"
 "http://www.w3.org/TR/2001/REC-SVG-20010904/DTD/svg10.dtd">
<svg version="1.0" xmlns="http://www.w3.org/2000/svg"
 width="480.000000pt" height="360.000000pt" viewBox="0 0 480.000000 360.000000"
 preserveAspectRatio="xMidYMid meet">
<metadata>
Created by potrace 1.16, written by Peter Selinger 2001-2019
</metadata>
<rect width="1" height="360" fill="#000000"/>
<rect x="479" width="1" height="360" fill="#000000"/>
<rect width="480" height="1" fill="#000000"/>
<rect y="359" width="480" height="1" fill="#000000"/>
<g transform="translate(0.000000,360.000000) scale(0.100000,-0.100000)"
fill="#000000" stroke="none">
<path d="M2105 2546 c-436 -43 -732 -109 -1150 -257 -265 -94 -769 -261 -873
-289 l-82 -22 0 -193 0 -193 113 -30 c61 -17 213 -56 337 -87 124 -31 339 -88
478 -126 717 -198 1077 -249 1657 -236 582 13 923 90 1740 394 171 64 347 127
393 141 l82 26 0 161 0 161 -237 73 c-1128 350 -1410 427 -1717 467 -160 21
-569 26 -741 10z m690 -397 l71 -39 23 -72 c13 -40 44 -113 68 -163 l45 -90
-26 -85 c-14 -47 -32 -125 -41 -175 -8 -49 -21 -92 -28 -96 -20 -12 -98 -77
-181 -153 l-76 -68 -178 -16 -179 -16 -91 55 c-197 118 -207 126 -250 215 -22
44 -52 120 -66 168 l-27 88 16 91 c8 51 28 126 43 169 26 72 33 81 120 162 52
47 98 86 102 86 5 0 24 13 42 29 35 30 16 27 298 50 l75 6 85 -53 c47 -30 117
-71 155 -93z"/>
<path d="M2079 2143 l-24 -27 33 23 c32 23 39 31 24 31 -5 0 -19 -12 -33 -27z"/>
<path d="M1917 1913 c-2 -4 -7 -24 -11 -43 l-6 -35 15 39 c13 35 15 61 2 39z"/>
<path d="M1911 1584 c-1 -16 40 -107 45 -101 3 2 -6 29 -20 58 -13 30 -25 49
-25 43z"/>
<path d="M2105 1310 c7 -11 65 -43 65 -36 0 2 -16 13 -36 25 -19 12 -32 16
-29 11z"/>
</g>
</svg>
