<?xml version="1.0" standalone="no"?>
<!DOCTYPE svg PUBLIC "-//W3C//DTD SVG 20010904//EN"
 "http://www.w3.org/TR/2001/REC-SVG-20010904/DTD/svg10.dtd">
<svg version="1.0" xmlns="http://www.w3.org/2000/svg"
 width="480.000000pt" height="360.000000pt" viewBox="0 0 480.000000 360.000000"
 preserveAspectRatio="xMidYMid meet">
<metadata>
Created by potrace 1.16, written by Peter Selinger 2001-2019
</metadata>
<rect width="1" height="360" fill="#000000"/>
<rect x="479" width="1" height="360" fill="#000000"/>
<rect width="480" height="1" fill="#000000"/>
<rect y="359" width="480" height="1" fill="#000000"/>
<g transform="translate(0.000000,360.000000) scale(0.100000,-0.100000)"
fill="#000000" stroke="none">
<path d="M0 1800 l0 -1800 2400 0 2400 0 0 989 0 988 -46 7 c-26 3 -69 6 -95
6 -48 0 -49 -1 -49 -31 0 -65 -10 -70 -115 -63 -84 6 -98 5 -135 -15 -32 -17
-52 -20 -88 -16 -26 4 -76 8 -112 10 -63 4 -137 12 -172 19 -9 2 -105 0 -215
-5 -109 -5 -282 -9 -385 -10 -183 -2 -189 -1 -240 25 -29 14 -71 41 -93 60
l-40 34 23 25 c42 44 122 81 192 88 39 3 173 -3 335 -17 149 -13 330 -29 404
-35 148 -13 137 -16 181 50 11 16 33 26 75 36 33 7 74 18 90 24 17 6 124 12
255 13 l225 3 3 708 2 707 -2400 0 -2400 0 0 -1800z"/>
</g>
</svg>
