<?xml version="1.0" standalone="no"?>
<!DOCTYPE svg PUBLIC "-//W3C//DTD SVG 20010904//EN"
 "http://www.w3.org/TR/2001/REC-SVG-20010904/DTD/svg10.dtd">
<svg version="1.0" xmlns="http://www.w3.org/2000/svg"
 width="480.000000pt" height="360.000000pt" viewBox="0 0 480.000000 360.000000"
 preserveAspectRatio="xMidYMid meet">
<metadata>
Created by potrace 1.16, written by Peter Selinger 2001-2019
</metadata>
<rect width="1" height="360" fill="#000000"/>
<rect x="479" width="1" height="360" fill="#000000"/>
<rect width="480" height="1" fill="#000000"/>
<rect y="359" width="480" height="1" fill="#000000"/>
<g transform="translate(0.000000,360.000000) scale(0.100000,-0.100000)"
fill="#000000" stroke="none">
<path d="M0 1800 l0 -1800 2400 0 2400 0 0 1800 0 1800 -2400 0 -2400 0 0
-1800z m2151 860 c5 0 9 4 9 10 0 35 127 53 169 24 17 -12 35 -15 72 -10 61 8
80 -1 50 -23 -20 -16 -21 -19 -8 -50 14 -32 13 -35 -13 -60 l-28 -26 11 -79
c11 -71 15 -81 41 -97 30 -18 105 -139 106 -170 0 -9 -23 -51 -51 -94 -43 -66
-48 -80 -35 -87 14 -8 13 -15 -9 -64 l-25 -56 42 -71 c24 -40 51 -81 61 -92
12 -13 17 -29 13 -46 -4 -20 4 -41 32 -80 46 -65 132 -204 132 -211 0 -3 -10
-8 -22 -12 -18 -4 -20 -8 -10 -18 22 -22 15 -48 -13 -48 -14 0 -43 -11 -65
-25 -23 -14 -54 -28 -70 -32 -17 -3 -45 -22 -63 -42 l-33 -37 3 -158 c1 -91
-2 -167 -8 -178 -6 -12 -21 -18 -44 -18 -46 0 -73 37 -56 78 10 26 12 262 1
262 -3 0 -16 -9 -30 -20 -30 -23 -84 -26 -132 -6 -74 31 -86 11 -97 -168 -7
-122 -14 -129 -95 -102 -30 11 -57 25 -60 31 -9 24 5 50 35 67 28 17 29 20 29
92 0 41 5 78 10 81 6 3 10 17 10 31 0 19 -5 24 -25 24 -20 0 -25 5 -25 25 0
14 -7 28 -15 31 -26 10 -17 63 35 213 52 151 62 204 35 181 -12 -10 -15 -9
-15 8 0 11 7 39 15 62 8 23 12 46 9 52 -3 5 -1 46 6 91 11 76 10 86 -8 129
-21 48 -19 57 20 71 24 9 41 82 35 151 -6 67 11 112 57 155 21 20 26 34 26 74
0 45 -4 52 -44 91 -35 34 -43 48 -39 69 4 19 -1 28 -16 36 -26 15 -27 31 -2
31 39 0 51 11 52 49 l1 36 15 -37 c9 -21 20 -38 24 -38z"/>
<path d="M2450 2174 c0 -22 2 -25 15 -14 12 10 13 16 4 26 -16 20 -19 18 -19
-12z"/>
</g>
</svg>
