<?xml version="1.0" standalone="no"?>
<!DOCTYPE svg PUBLIC "-//W3C//DTD SVG 20010904//EN"
 "http://www.w3.org/TR/2001/REC-SVG-20010904/DTD/svg10.dtd">
<svg version="1.0" xmlns="http://www.w3.org/2000/svg"
 width="480.000000pt" height="360.000000pt" viewBox="0 0 480.000000 360.000000"
 preserveAspectRatio="xMidYMid meet">
<metadata>
Created by potrace 1.16, written by Peter Selinger 2001-2019
</metadata>
<rect width="1" height="360" fill="#000000"/>
<rect x="479" width="1" height="360" fill="#000000"/>
<rect width="480" height="1" fill="#000000"/>
<rect y="359" width="480" height="1" fill="#000000"/>
<g transform="translate(0.000000,360.000000) scale(0.100000,-0.100000)"
fill="#000000" stroke="none">
<path d="M0 2664 l0 -937 41 7 c23 4 141 15 263 26 374 33 627 23 837 -34 155
-42 232 -37 453 28 116 35 150 38 113 12 -25 -19 -21 -26 16 -26 22 0 46 12
76 35 25 20 56 38 70 41 79 18 103 26 108 40 3 8 19 14 38 14 18 0 45 10 61
23 28 21 35 22 219 19 374 -5 1214 -46 1280 -62 53 -13 135 -13 172 1 23 7 35
21 47 52 27 71 15 111 -13 45 l-14 -33 -4 30 c-5 36 -29 56 -58 49 -20 -5 -23
-1 -28 39 -6 44 -42 117 -57 117 -4 0 -17 16 -29 35 -11 19 -33 40 -48 46 -58
22 -89 56 -108 116 -10 32 -22 61 -27 64 -9 6 39 145 78 220 52 103 157 178
309 220 98 27 173 21 260 -19 76 -36 178 -121 215 -179 29 -45 80 -192 80
-228 0 -10 4 -32 9 -49 6 -17 18 -58 27 -91 9 -33 21 -66 27 -72 5 -7 10 -26
12 -41 1 -16 5 -33 8 -39 4 -6 -1 -10 -10 -9 -14 1 -21 -15 -34 -74 -9 -41
-14 -91 -12 -110 4 -33 4 -34 -11 -16 -9 11 -16 23 -16 28 0 4 -4 8 -10 8 -5
0 -10 -16 -10 -35 0 -39 -6 -43 -26 -17 -12 16 -13 15 -14 -5 0 -14 10 -27 27
-35 18 -9 29 -24 34 -46 4 -18 25 -54 48 -80 22 -26 53 -67 68 -90 16 -24 47
-66 70 -93 54 -63 68 -91 87 -170 8 -36 26 -87 39 -114 14 -28 50 -102 80
-165 l55 -115 1 1303 1 1302 -2400 0 -2400 0 0 -936z m4660 196 c0 -5 -9 -10
-21 -10 -11 0 -17 5 -14 10 3 6 13 10 21 10 8 0 14 -4 14 -10z m49 -36 c30
-22 14 -39 -22 -23 -14 6 -28 18 -31 25 -7 19 24 18 53 -2z m35 -423 c27 -29
28 -29 8 -40 -30 -16 -63 -14 -84 6 -23 20 -23 39 0 52 28 17 47 13 76 -18z
m-3581 -347 c6 -7 -13 -36 -63 -94 -28 -34 -90 -53 -90 -28 0 26 60 99 93 113
36 16 51 18 60 9z"/>
<path d="M3600 2220 c0 -11 5 -20 10 -20 6 0 10 9 10 20 0 11 -4 20 -10 20 -5
0 -10 -9 -10 -20z"/>
<path d="M2060 1630 c-18 -11 -12 -14 73 -30 81 -16 112 -46 138 -131 21 -68
21 -71 4 -134 -37 -135 -158 -218 -265 -180 -52 18 -80 41 -80 65 0 33 22 41
82 28 47 -10 62 -9 100 5 82 32 121 131 83 212 -19 38 -64 55 -148 55 -47 0
-57 -3 -71 -25 -21 -32 -39 -32 -84 4 -36 28 -127 55 -146 44 -5 -4 -2 -9 8
-13 35 -12 20 -25 -34 -30 l-55 -6 55 -26 55 -26 -55 -2 -55 -1 35 -20 35 -20
-49 6 c-28 3 -116 28 -197 55 -171 58 -202 60 -364 28 -209 -42 -491 -30 -903
37 -118 19 -215 35 -218 35 -2 0 -4 -351 -4 -780 l0 -780 1808 0 1807 0 29 78
c70 187 130 301 222 422 42 55 42 56 23 79 -25 31 -24 47 6 77 14 14 25 36 25
49 0 20 -6 25 -37 30 -55 9 -102 25 -109 36 -3 5 8 36 25 69 58 117 47 226
-43 416 -25 52 -52 125 -62 163 -17 73 -39 106 -80 121 -32 12 -342 54 -569
77 -228 22 -676 25 -812 4 -83 -12 -95 -12 -117 3 -29 18 -35 19 -56 6z m869
-876 c25 -31 28 -84 6 -84 -18 0 -45 50 -45 85 0 32 13 32 39 -1z m-2726 -394
c-14 -13 -75 -30 -107 -30 -28 0 -29 1 -14 17 10 9 37 19 60 23 46 7 75 2 61
-10z"/>
<path d="M4615 802 c-47 -6 -57 -20 -49 -66 3 -23 15 -53 25 -68 11 -14 19
-40 19 -56 0 -20 16 -54 47 -99 26 -37 69 -108 95 -158 l47 -90 1 205 0 205
-78 65 c-63 54 -82 64 -107 62z"/>
</g>
</svg>
