<?xml version="1.0" standalone="no"?>
<!DOCTYPE svg PUBLIC "-//W3C//DTD SVG 20010904//EN"
 "http://www.w3.org/TR/2001/REC-SVG-20010904/DTD/svg10.dtd">
<svg version="1.0" xmlns="http://www.w3.org/2000/svg"
 width="480.000000pt" height="360.000000pt" viewBox="0 0 480.000000 360.000000"
 preserveAspectRatio="xMidYMid meet">
<metadata>
Created by potrace 1.16, written by Peter Selinger 2001-2019
</metadata>
<rect width="1" height="360" fill="#000000"/>
<rect x="479" width="1" height="360" fill="#000000"/>
<rect width="480" height="1" fill="#000000"/>
<rect y="359" width="480" height="1" fill="#000000"/>
<g transform="translate(0.000000,360.000000) scale(0.100000,-0.100000)"
fill="#000000" stroke="none">
<path d="M0 1800 l0 -1800 865 0 864 0 17 33 c9 17 51 88 92 157 97 160 106
180 131 277 12 45 24 90 27 100 4 10 -7 2 -24 -17 -29 -34 -30 -35 -50 -16
-20 17 -52 92 -86 201 -22 70 -38 192 -30 233 l7 35 141 -7 c77 -3 152 -7 166
-9 24 -2 25 0 28 66 4 87 -17 171 -68 272 -63 124 -67 128 -121 116 -140 -33
-235 -2 -258 84 -5 21 -17 32 -45 42 -57 19 -66 30 -66 82 0 71 27 107 90 120
28 6 63 11 78 11 15 0 47 10 72 21 57 26 139 28 176 4 43 -28 54 0 41 98 -6
41 -13 57 -24 57 -8 0 -17 10 -20 21 -6 21 -7 21 -20 3 -23 -32 -34 1 -27 81
5 62 4 68 -8 51 -13 -16 -13 -10 -7 53 4 39 11 81 14 92 6 17 -4 33 -44 73
l-51 52 20 42 c22 44 42 52 82 31 28 -15 33 -5 13 25 -16 25 -16 26 25 75 42
50 77 71 89 55 3 -5 14 -15 23 -22 15 -12 19 -10 34 21 22 45 58 61 119 52 38
-6 48 -12 56 -33 l10 -26 25 32 c32 40 58 41 96 0 25 -27 32 -30 49 -20 31 20
78 14 104 -13 20 -19 25 -34 25 -75 0 -43 3 -53 20 -57 25 -7 25 -10 0 -66
l-20 -46 30 -103 c17 -57 33 -111 36 -120 4 -13 1 -16 -10 -12 -21 8 -20 4 9
-62 28 -63 30 -73 13 -56 -19 19 -26 14 -20 -13 5 -27 -15 -34 -36 -13 -9 9
-13 7 -18 -6 -5 -14 -9 -15 -15 -4 -13 19 -29 -8 -29 -49 0 -23 -4 -31 -14
-27 -17 6 -28 -20 -20 -51 4 -17 15 -24 44 -29 29 -4 47 -17 76 -51 22 -25 77
-72 124 -103 105 -72 133 -110 125 -167 -5 -33 -3 -44 14 -59 12 -11 21 -29
21 -41 0 -11 31 -66 69 -121 73 -106 97 -160 87 -199 -4 -14 -27 -50 -53 -81
-37 -47 -44 -60 -34 -73 24 -34 24 -44 0 -63 -13 -10 -37 -30 -54 -43 -16 -14
-45 -34 -62 -45 -18 -11 -33 -24 -33 -30 0 -16 -56 -40 -95 -40 -19 0 -35 -1
-35 -3 0 -2 11 -32 26 -68 14 -35 29 -82 33 -104 5 -22 30 -112 56 -200 32
-107 48 -183 50 -230 2 -38 4 -76 4 -82 1 -10 196 -13 941 -13 l940 0 0 1800
0 1800 -2400 0 -2400 0 0 -1800z"/>
<path d="M2120 1856 c0 -26 13 -40 46 -50 18 -6 24 -1 33 26 8 21 8 35 1 42
-7 7 -10 5 -10 -6 0 -25 -28 -30 -40 -8 -15 27 -30 25 -30 -4z"/>
<path d="M2468 1863 c-21 -23 -7 -43 29 -43 16 0 23 6 23 20 0 25 -20 27 -21
3 -1 -10 -4 -5 -8 11 -6 28 -6 28 -23 9z"/>
<path d="M2778 1128 c-8 -57 -13 -105 -11 -108 3 -3 11 4 19 15 8 11 29 25 46
31 18 6 41 23 52 37 l20 27 -49 50 c-27 28 -52 50 -55 50 -4 0 -13 -46 -22
-102z"/>
</g>
</svg>
