<?xml version="1.0" standalone="no"?>
<!DOCTYPE svg PUBLIC "-//W3C//DTD SVG 20010904//EN"
 "http://www.w3.org/TR/2001/REC-SVG-20010904/DTD/svg10.dtd">
<svg version="1.0" xmlns="http://www.w3.org/2000/svg"
 width="480.000000pt" height="360.000000pt" viewBox="0 0 480.000000 360.000000"
 preserveAspectRatio="xMidYMid meet">
<metadata>
Created by potrace 1.16, written by Peter Selinger 2001-2019
</metadata>
<rect width="1" height="360" fill="#000000"/>
<rect x="479" width="1" height="360" fill="#000000"/>
<rect width="480" height="1" fill="#000000"/>
<rect y="359" width="480" height="1" fill="#000000"/>
<g transform="translate(0.000000,360.000000) scale(0.100000,-0.100000)"
fill="#000000" stroke="none">
<path d="M1853 2743 c-18 -7 -16 -28 8 -74 36 -71 140 -369 133 -380 -3 -6 -1
-28 6 -49 10 -32 10 -45 -2 -82 -15 -42 -14 -46 7 -88 26 -51 51 -76 80 -82
23 -4 65 -124 69 -198 2 -25 6 -57 10 -72 6 -21 4 -27 -11 -30 -13 -3 -8 -9
24 -26 54 -28 58 -50 32 -187 -31 -169 -32 -188 -15 -239 21 -61 21 -59 -19
-52 -35 7 -75 -6 -75 -25 0 -5 18 -32 40 -60 22 -28 40 -59 40 -70 0 -10 15
-36 34 -56 43 -49 56 -75 76 -148 13 -52 20 -63 52 -80 20 -11 41 -30 47 -42
11 -25 17 -274 7 -291 -7 -12 23 -82 36 -82 4 0 8 -7 8 -15 0 -7 6 -18 13 -22
7 -4 19 -23 26 -41 14 -33 26 -41 34 -19 5 15 37 -9 37 -29 0 -21 57 -55 101
-59 53 -6 112 19 143 60 26 34 35 88 16 100 -16 10 -11 25 6 18 14 -5 15 -1 9
25 -6 27 -4 31 10 25 15 -5 16 -3 6 16 -7 12 -9 25 -6 30 3 5 1 21 -5 35 -10
27 -2 34 18 14 19 -19 27 0 9 20 -10 10 -17 23 -17 29 0 5 -27 39 -60 74 -33
35 -76 93 -96 128 -33 58 -36 67 -25 96 14 38 14 135 1 193 -7 30 -7 63 1 107
11 66 -1 143 -35 219 -16 34 -26 172 -28 361 0 88 4 132 16 164 15 41 15 46 0
62 -13 15 -15 30 -11 70 5 38 2 57 -10 76 -11 16 -13 27 -6 31 15 10 16 196 2
262 -9 46 -20 64 -64 108 -59 59 -89 65 -161 33 -93 -42 -158 -192 -104 -238
31 -27 25 -50 -16 -57 -30 -6 -38 -3 -54 16 -10 13 -30 24 -46 26 -16 1 -33 9
-39 19 -5 9 -20 26 -32 38 -12 12 -31 41 -41 66 -22 50 -96 273 -112 337 -11
42 -28 51 -67 35z m385 -757 c15 -34 34 -145 28 -162 -3 -8 -16 -14 -29 -14
-21 0 -27 11 -55 90 -22 65 -28 92 -19 95 7 2 19 6 27 8 29 10 37 7 48 -17z"/>
</g>
</svg>
