<?xml version="1.0" standalone="no"?>
<!DOCTYPE svg PUBLIC "-//W3C//DTD SVG 20010904//EN"
 "http://www.w3.org/TR/2001/REC-SVG-20010904/DTD/svg10.dtd">
<svg version="1.0" xmlns="http://www.w3.org/2000/svg"
 width="480.000000pt" height="360.000000pt" viewBox="0 0 480.000000 360.000000"
 preserveAspectRatio="xMidYMid meet">
<metadata>
Created by potrace 1.16, written by Peter Selinger 2001-2019
</metadata>
<rect width="1" height="360" fill="#000000"/>
<rect x="479" width="1" height="360" fill="#000000"/>
<rect width="480" height="1" fill="#000000"/>
<rect y="359" width="480" height="1" fill="#000000"/>
<g transform="translate(0.000000,360.000000) scale(0.100000,-0.100000)"
fill="#000000" stroke="none">
<path d="M1486 3591 c-3 -5 -11 -41 -18 -80 -23 -137 32 -306 138 -421 62 -66
114 -100 194 -125 30 -10 59 -21 63 -25 16 -14 -56 -23 -167 -22 -66 1 -115
-3 -123 -10 -7 -5 -17 -27 -23 -48 -8 -28 -21 -45 -47 -61 -57 -36 -103 -79
-103 -99 0 -20 23 -43 33 -33 23 22 107 -130 107 -195 0 -15 -9 -51 -20 -80
-27 -72 -27 -75 17 -67 l36 6 -6 -73 c-5 -55 -3 -81 8 -102 21 -39 19 -105 -2
-129 -25 -26 -33 -185 -11 -201 20 -15 21 -121 2 -137 -21 -17 -20 -205 1
-213 18 -7 22 -132 4 -138 -29 -10 -21 -186 11 -216 23 -22 37 -127 19 -148
-14 -17 -14 -123 0 -173 6 -19 17 -41 26 -51 19 -20 36 -109 25 -130 -37 -73
-54 -153 -61 -295 -6 -141 -9 -155 -43 -235 l-35 -85 171 -3 c94 -1 173 0 175
2 3 2 -5 18 -17 34 -19 26 -23 45 -25 132 l-2 102 51 38 c55 42 103 102 155
193 18 32 35 56 37 54 2 -2 20 -114 39 -248 19 -134 38 -259 40 -276 l6 -33
548 0 549 0 5 387 c5 350 23 642 42 673 6 10 64 40 78 40 16 0 109 73 166 130
74 75 125 145 157 213 26 58 26 58 15 185 -6 70 -17 148 -26 172 -8 24 -12 46
-8 50 5 3 54 25 110 49 l102 43 60 -41 c33 -23 65 -41 70 -41 6 0 29 -16 51
-36 65 -59 46 -22 -32 61 l-71 76 46 -22 c51 -25 65 -22 45 10 -10 17 -10 25
0 41 21 34 15 76 -15 99 -48 39 -116 50 -287 50 -149 -1 -162 -3 -209 -26 -48
-24 -51 -25 -63 -8 -12 16 -8 23 31 57 35 31 49 52 61 95 14 48 21 57 52 70
21 8 48 25 60 36 31 28 62 89 62 121 0 38 53 92 96 99 39 7 96 45 120 82 10
16 17 55 20 111 4 84 3 86 -14 70 -14 -11 -28 -14 -51 -10 -32 7 -33 6 -19
-15 8 -14 10 -24 3 -29 -157 -109 -197 -133 -211 -121 -17 14 -46 -5 -38 -26
4 -9 -26 -35 -85 -74 -79 -52 -95 -59 -114 -50 -34 15 -75 -4 -83 -38 -3 -15
-7 -33 -9 -40 -4 -12 -109 -93 -122 -93 -4 0 -42 18 -84 40 -133 69 -225 83
-396 58 -86 -12 -101 -21 -57 -32 l27 -7 -34 -25 c-18 -13 -52 -29 -74 -35
-28 -8 -35 -13 -23 -18 14 -5 8 -17 -33 -73 -28 -38 -42 -65 -32 -61 15 6 15
5 0 -17 -21 -30 -22 -47 -2 -30 13 11 15 8 15 -19 0 -40 -19 -47 -65 -25 -31
15 -38 15 -46 3 -5 -8 -6 -26 -3 -42 4 -20 -1 -35 -20 -58 -14 -17 -26 -37
-26 -44 0 -8 -13 -40 -30 -72 -16 -31 -30 -69 -30 -83 0 -26 53 -114 98 -162
24 -26 24 -28 8 -53 -9 -14 -18 -25 -20 -25 -2 0 -55 36 -117 80 -118 85 -196
133 -319 196 l-75 39 -7 81 c-6 79 -52 346 -64 378 -4 11 3 19 21 26 l26 10
-19 28 c-28 40 -62 109 -62 127 0 9 8 18 18 22 9 3 38 26 63 50 l45 44 33 -50
c38 -60 97 -112 160 -143 39 -20 62 -23 156 -23 l110 0 35 -48 c39 -53 58 -57
108 -27 36 22 39 35 17 87 -22 53 -19 66 30 124 63 74 86 125 92 212 6 80 -7
157 -38 217 -20 40 -85 104 -142 139 -22 13 -36 29 -33 36 2 7 -1 21 -9 31
-10 15 -10 25 0 54 35 99 40 202 14 303 l-10 37 -474 0 c-261 0 -476 -4 -479
-9z m41 -927 c-2 -2 -19 1 -37 8 l-33 11 34 31 34 30 3 -38 c2 -21 2 -40 -1
-42z m2383 12 c0 -2 -8 -10 -17 -17 -16 -13 -17 -12 -4 4 13 16 21 21 21 13z
m-239 -248 c-19 -31 -61 -68 -61 -54 0 7 70 86 77 86 3 0 -4 -15 -16 -32z
m-176 -218 c-10 -11 -20 -18 -23 -15 -3 3 3 14 13 25 10 11 20 18 23 15 3 -3
-3 -14 -13 -25z m-1880 -287 c6 -40 5 -43 -15 -43 -20 0 -22 4 -16 31 3 17 6
41 6 52 0 34 17 6 25 -40z m134 -230 c48 -48 258 -202 419 -308 63 -42 71 -50
59 -64 -46 -56 -150 -174 -193 -221 -71 -75 -188 -212 -253 -293 -29 -37 -56
-66 -58 -63 -3 3 2 12 11 21 29 29 10 207 -24 225 -27 15 -38 110 -16 142 27
38 16 199 -15 219 -20 12 -24 113 -5 140 22 31 23 176 1 205 -8 10 -14 39 -15
64 l0 45 19 -31 c10 -17 42 -53 70 -81z m-132 65 c-3 -7 -5 -2 -5 12 0 14 2
19 5 13 2 -7 2 -19 0 -25z m24 -121 c17 5 19 -1 19 -40 0 -63 -7 -79 -30 -67
-10 6 -25 7 -33 4 -11 -4 -14 6 -12 48 3 71 3 70 21 60 9 -5 25 -7 35 -5z m29
-406 l0 -57 -34 0 c-31 0 -35 3 -40 36 -12 70 -9 78 27 82 17 2 35 2 40 0 4
-2 7 -29 7 -61z m34 -328 c12 -78 9 -90 -26 -96 -18 -2 -35 -3 -37 -1 -3 3 -7
31 -9 63 -4 59 -4 59 24 64 16 2 32 5 35 6 4 0 9 -16 13 -36z m66 -696 c0 -18
-5 -23 -24 -22 -26 0 -49 15 -24 15 9 0 18 7 22 15 8 23 26 18 26 -8z"/>
</g>
</svg>
