<?xml version="1.0" standalone="no"?>
<!DOCTYPE svg PUBLIC "-//W3C//DTD SVG 20010904//EN"
 "http://www.w3.org/TR/2001/REC-SVG-20010904/DTD/svg10.dtd">
<svg version="1.0" xmlns="http://www.w3.org/2000/svg"
 width="480.000000pt" height="360.000000pt" viewBox="0 0 480.000000 360.000000"
 preserveAspectRatio="xMidYMid meet">
<metadata>
Created by potrace 1.16, written by Peter Selinger 2001-2019
</metadata>
<rect width="1" height="360" fill="#000000"/>
<rect x="479" width="1" height="360" fill="#000000"/>
<rect width="480" height="1" fill="#000000"/>
<rect y="359" width="480" height="1" fill="#000000"/>
<g transform="translate(0.000000,360.000000) scale(0.100000,-0.100000)"
fill="#000000" stroke="none">
<path d="M0 2670 c0 -511 4 -930 8 -930 16 0 270 89 357 124 50 21 176 82 281
137 105 54 201 99 214 99 12 0 49 -23 83 -53 34 -30 129 -105 211 -168 83 -63
213 -174 289 -247 250 -239 333 -295 487 -326 94 -19 547 -16 542 3 -3 17 62
155 113 237 73 117 161 182 328 242 49 18 97 37 108 43 27 14 24 45 -7 66 -15
10 -53 42 -85 72 l-58 53 2 -103 c2 -131 -13 -163 -29 -64 l-11 70 -2 -62 c0
-34 -5 -64 -9 -67 -5 -3 -14 29 -20 70 -15 98 -22 107 -43 58 l-18 -39 0 60
c-1 70 -24 168 -40 173 -7 2 -24 15 -40 27 -23 20 -30 22 -42 11 -8 -8 -27
-17 -43 -20 -25 -6 -28 -5 -21 11 4 10 10 37 12 61 l6 42 -39 0 -39 0 44 26
c40 24 43 29 36 58 -3 17 -9 46 -12 64 -3 17 -8 32 -12 32 -3 0 -19 -12 -36
-27 -34 -29 -31 -1 -24 -303 3 -135 3 -135 -34 -233 -20 -54 -40 -122 -43
-152 -7 -58 -26 -73 -39 -32 -6 19 -8 15 -14 -20 -8 -44 -21 -69 -21 -39 0 9
-4 14 -10 11 -6 -4 -11 14 -11 47 l-2 53 -7 -60 c-4 -32 -13 -61 -19 -63 -6
-2 -11 -13 -12 -25 -1 -19 -3 -18 -14 8 -11 24 -14 26 -15 10 l-1 -20 -8 20
c-5 11 -14 58 -21 105 -13 78 -14 82 -21 50 -5 -19 -6 -51 -3 -70 8 -53 -10
-19 -47 91 -35 102 -42 190 -26 322 9 67 8 69 -12 62 -30 -9 -26 11 8 36 20
14 35 39 46 78 29 92 83 195 126 237 l39 38 -116 37 c-65 21 -126 47 -137 58
l-21 20 28 88 c56 176 55 175 130 249 80 79 182 137 227 128 43 -9 78 -46 97
-100 l18 -52 29 57 c16 31 59 86 95 122 116 117 195 139 500 139 294 0 383
-24 463 -123 94 -115 148 -328 114 -440 l-15 -48 35 -32 c46 -41 63 -82 78
-182 7 -44 15 -87 19 -96 5 -13 -5 -25 -38 -50 -51 -36 -55 -52 -26 -89 25
-32 25 -50 1 -43 -15 4 -18 0 -14 -20 4 -20 1 -24 -19 -22 -18 1 -27 12 -42
53 -18 49 -36 61 -36 23 0 -25 -48 -183 -59 -194 -6 -6 -12 14 -16 49 -4 33
-9 67 -11 77 -10 32 -23 17 -26 -30 l-3 -48 -13 29 c-7 16 -14 27 -16 25 -3
-2 -16 -49 -30 -104 -14 -55 -34 -126 -45 -157 -23 -67 -31 -58 95 -108 163
-65 198 -97 278 -260 34 -69 67 -140 74 -158 l11 -32 86 0 c47 0 120 7 161 15
58 13 87 14 131 5 75 -13 258 -13 325 1 29 7 77 22 105 35 l53 23 0 1100 0
1101 -2400 0 -2400 0 0 -930z"/>
<path d="M3385 1980 c-4 -6 -2 -17 4 -23 15 -15 25 -2 13 19 -7 12 -11 13 -17
4z"/>
<path d="M722 1873 c-91 -57 -92 -57 -76 -81 9 -14 14 -35 11 -51 -5 -20 1
-32 27 -56 25 -22 42 -54 65 -121 l32 -92 -86 -338 c-48 -186 -91 -346 -96
-356 -6 -11 -16 -17 -22 -15 -14 4 -27 52 -112 425 l-64 283 35 92 c23 60 46
102 65 120 22 21 28 31 20 41 -8 9 -32 2 -106 -35 -91 -45 -325 -129 -359
-129 -9 0 -16 -8 -16 -18 0 -10 -5 -23 -12 -30 -9 -9 -4 -19 23 -44 23 -23 45
-60 68 -121 l34 -88 -77 -302 -77 -302 1 -327 0 -328 1219 0 1218 0 6 187 c4
121 11 207 21 242 34 121 47 328 26 419 -12 52 -12 70 -1 110 24 85 25 92 7
92 -9 0 -21 12 -27 27 -8 23 -6 29 23 55 l33 29 -79 -5 c-43 -3 -131 -6 -195
-6 l-116 -1 33 -28 c25 -21 40 -50 63 -119 l31 -92 -77 -322 c-43 -178 -82
-331 -87 -340 -14 -28 -26 -21 -38 20 -23 80 -140 616 -140 640 0 45 61 192
87 209 72 47 -32 98 -242 119 -61 6 -68 5 -58 -7 7 -8 26 -54 43 -102 l30 -86
-76 -318 c-82 -342 -98 -393 -115 -376 -12 12 -159 641 -159 680 0 46 60 188
91 215 24 20 32 36 34 65 2 33 -4 46 -54 103 -31 36 -76 85 -101 110 -80 81
-233 172 -162 97 12 -12 35 -63 52 -112 l32 -90 -82 -325 c-82 -329 -96 -380
-110 -380 -15 0 -31 59 -103 381 l-74 326 34 89 c19 50 47 102 64 119 16 17
29 40 29 51 0 11 5 25 10 30 8 8 -6 24 -45 53 -31 24 -87 72 -124 107 -38 35
-77 64 -88 64 -11 0 -61 -26 -111 -57z"/>
<path d="M4620 1240 c-73 -13 -108 -24 -117 -36 -18 -24 -17 -30 11 -52 14
-11 42 -60 65 -115 l40 -97 -80 -322 c-44 -178 -84 -330 -89 -338 -21 -33 -41
25 -119 347 l-80 333 35 82 c19 46 46 94 60 109 13 14 24 27 24 30 0 2 -95 5
-210 6 -209 3 -210 3 -210 -19 0 -12 8 -31 18 -42 10 -12 34 -61 52 -110 l33
-90 -63 -269 c-60 -259 -62 -271 -50 -326 6 -31 14 -118 17 -193 l6 -138 418
0 419 0 0 370 0 371 -41 161 -40 162 22 60 c12 34 29 78 39 99 l18 37 -36 -1
c-21 0 -84 -9 -142 -19z"/>
<path d="M2697 178 c-8 -30 -1 -35 12 -9 6 11 7 22 2 25 -5 3 -11 -4 -14 -16z"/>
</g>
</svg>
