<?xml version="1.0" standalone="no"?>
<!DOCTYPE svg PUBLIC "-//W3C//DTD SVG 20010904//EN"
 "http://www.w3.org/TR/2001/REC-SVG-20010904/DTD/svg10.dtd">
<svg version="1.0" xmlns="http://www.w3.org/2000/svg"
 width="480.000000pt" height="360.000000pt" viewBox="0 0 480.000000 360.000000"
 preserveAspectRatio="xMidYMid meet">
<metadata>
Created by potrace 1.16, written by Peter Selinger 2001-2019
</metadata>
<rect width="1" height="360" fill="#000000"/>
<rect x="479" width="1" height="360" fill="#000000"/>
<rect width="480" height="1" fill="#000000"/>
<rect y="359" width="480" height="1" fill="#000000"/>
<g transform="translate(0.000000,360.000000) scale(0.100000,-0.100000)"
fill="#000000" stroke="none">
<path d="M0 1800 l0 -1800 884 0 c985 0 896 -7 896 71 l0 39 -44 0 c-37 0 -48
5 -72 34 -16 18 -37 47 -46 65 -10 19 -33 38 -54 47 l-36 15 6 52 c5 44 2 60
-19 101 -28 55 -32 101 -11 149 7 18 51 91 98 163 101 154 193 309 213 359 12
28 13 35 2 35 -7 0 -20 16 -29 35 -15 34 -15 37 7 68 25 35 105 193 105 208 0
4 -7 6 -16 2 -22 -8 -63 34 -68 71 -3 17 -8 61 -11 98 l-6 67 34 14 c34 15 34
15 50 118 9 57 15 105 13 107 -2 2 -19 -29 -36 -68 -37 -78 -51 -86 -26 -14
15 44 15 46 -2 31 -9 -9 -30 -40 -47 -71 -16 -30 -38 -57 -47 -59 -10 -3 -18
-12 -18 -21 0 -9 -5 -16 -12 -16 -6 0 -22 -10 -35 -22 -21 -20 -23 -20 -17 -4
6 15 4 17 -7 10 -26 -16 -49 -15 -50 4 0 11 -6 5 -16 -15 -24 -47 -37 -41 -29
14 6 46 6 46 -14 28 -30 -28 -26 -1 15 84 38 78 48 133 13 66 -12 -22 -23 -34
-26 -27 -8 25 20 111 58 175 21 36 44 83 50 103 9 26 53 79 141 169 108 111
135 144 169 213 22 45 40 85 40 90 0 4 16 34 35 66 19 32 35 60 35 61 0 1 -19
15 -41 30 -51 33 -41 49 25 36 l47 -9 57 55 c56 53 58 54 103 49 42 -6 47 -4
53 16 7 22 8 21 22 -10 21 -48 40 -50 81 -11 26 25 32 28 24 12 -6 -12 -16
-25 -21 -28 -21 -13 -9 -33 31 -50 43 -20 59 -40 59 -77 0 -13 7 -33 15 -44 8
-10 15 -32 15 -49 0 -24 8 -34 40 -53 54 -31 52 -46 -5 -40 -36 5 -45 2 -45
-10 0 -24 -57 -72 -86 -72 -24 0 -26 -3 -20 -31 5 -25 2 -32 -13 -36 -14 -4
-20 -16 -23 -51 -4 -40 -1 -51 21 -75 14 -16 40 -36 56 -44 52 -26 85 -65 92
-105 3 -21 10 -41 14 -44 5 -3 9 -14 9 -25 0 -11 14 -46 30 -79 40 -79 38
-110 -10 -191 -22 -37 -40 -74 -40 -83 0 -8 -16 -45 -35 -82 -41 -78 -44 -55
35 -269 26 -71 55 -161 64 -200 10 -38 24 -87 32 -108 16 -44 17 -50 5 -43 -9
6 -24 -34 -16 -42 3 -3 11 1 19 7 13 11 18 7 31 -24 19 -46 19 -71 1 -78 -11
-4 -8 -21 14 -85 15 -44 37 -115 49 -159 11 -44 32 -107 45 -139 26 -64 26
-71 -10 -84 -22 -9 -23 -10 -9 -44 20 -46 20 -46 -14 -40 -23 5 -32 2 -40 -15
-21 -37 -45 -43 -96 -21 -26 11 -60 20 -76 20 l-29 0 3 -120 c1 -66 5 -120 9
-120 5 0 8 -11 8 -25 l0 -25 1125 0 1125 0 0 1800 0 1800 -2400 0 -2400 0 0
-1800z"/>
<path d="M2420 1839 c0 -66 4 -118 8 -115 5 3 24 44 42 91 l33 86 -34 29 c-19
16 -37 29 -41 30 -5 0 -8 -54 -8 -121z"/>
<path d="M2021 1860 c-6 -25 -16 -55 -21 -68 -14 -33 -12 -68 4 -81 10 -8 16
-8 24 1 15 19 23 107 13 153 l-8 40 -12 -45z"/>
<path d="M1850 1219 c0 -5 5 -7 10 -4 6 3 10 8 10 11 0 2 -4 4 -10 4 -5 0 -10
-5 -10 -11z"/>
<path d="M2142 180 c-55 -30 -108 -51 -128 -52 -19 -1 -38 -6 -42 -12 -9 -12
-32 -87 -32 -105 0 -8 60 -11 211 -11 203 0 210 1 204 19 -4 12 0 23 9 28 13
7 13 19 4 83 -6 41 -16 81 -21 88 -5 7 -31 12 -61 12 -42 0 -67 -9 -144 -50z"/>
</g>
</svg>
