<?xml version="1.0" standalone="no"?>
<!DOCTYPE svg PUBLIC "-//W3C//DTD SVG 20010904//EN"
 "http://www.w3.org/TR/2001/REC-SVG-20010904/DTD/svg10.dtd">
<svg version="1.0" xmlns="http://www.w3.org/2000/svg"
 width="480.000000pt" height="360.000000pt" viewBox="0 0 480.000000 360.000000"
 preserveAspectRatio="xMidYMid meet">
<metadata>
Created by potrace 1.16, written by Peter Selinger 2001-2019
</metadata>
<rect width="1" height="360" fill="#000000"/>
<rect x="479" width="1" height="360" fill="#000000"/>
<rect width="480" height="1" fill="#000000"/>
<rect y="359" width="480" height="1" fill="#000000"/>
<g transform="translate(0.000000,360.000000) scale(0.100000,-0.100000)"
fill="#000000" stroke="none">
<path d="M0 1800 l0 -1800 237 0 c130 0 234 2 232 4 -2 2 -37 9 -77 14 -101
14 -112 26 -112 119 0 60 -4 77 -20 93 -25 25 -25 29 0 55 16 17 22 41 27 96
4 57 11 82 30 107 26 35 213 180 334 259 179 117 267 199 425 394 55 68 103
129 107 135 3 6 -3 53 -13 105 -11 52 -20 113 -20 136 0 36 -4 44 -30 60 -39
23 -38 39 4 64 33 19 34 22 43 107 12 101 6 115 -38 89 -60 -34 -129 -15 -244
67 -27 20 -56 36 -63 36 -18 0 -29 12 -91 98 -48 66 -54 79 -63 150 -29 225
56 515 211 723 99 130 272 275 421 349 25 12 46 23 47 24 1 1 -9 35 -23 75
-14 40 -24 75 -22 77 2 2 23 -27 46 -64 l41 -68 98 32 c360 118 710 71 1028
-136 93 -61 98 -67 152 -158 91 -155 107 -299 41 -365 -21 -22 -32 -45 -38
-83 -20 -123 -79 -204 -167 -229 -51 -15 -54 -18 -87 -83 -19 -37 -51 -84 -72
-106 -47 -46 -126 -86 -174 -86 -60 0 -107 -19 -139 -56 -35 -39 -38 -59 -15
-92 12 -18 19 -21 30 -11 24 20 41 2 65 -68 32 -93 31 -173 -2 -237 -23 -47
-28 -51 -116 -86 -51 -20 -99 -43 -107 -50 -10 -8 -28 -10 -51 -6 -42 8 -78
56 -96 129 -19 78 -34 52 -33 -57 1 -83 4 -100 22 -119 14 -15 18 -27 13 -36
-6 -8 2 -43 20 -92 49 -134 53 -213 40 -678 -10 -367 -10 -425 4 -489 8 -41
15 -89 15 -108 l0 -34 1490 0 1490 0 0 715 0 715 -55 0 c-30 0 -55 4 -55 9 0
6 25 18 55 27 l55 18 0 1058 0 1058 -2400 0 -2400 0 0 -1800z m2661 1590 c44
-24 3 -67 -52 -55 -35 8 -47 29 -29 50 14 17 53 20 81 5z m2040 -110 c11 0 17
-4 14 -10 -8 -13 -82 -13 -90 -1 -6 11 23 21 43 15 8 -2 23 -4 33 -4z m-1355
-176 c11 -7 16 -14 13 -18 -8 -8 -89 51 -89 65 0 6 13 0 29 -13 15 -12 37 -28
47 -34z m-286 41 c0 -14 -29 -65 -56 -100 -25 -33 -30 -47 -27 -76 7 -56 -14
-58 -23 -2 -5 32 -3 48 5 51 6 2 11 10 11 18 0 26 63 114 82 114 4 0 8 -2 8
-5z m1385 -316 c7 -7 -7 -8 -45 -3 -78 10 -101 27 -25 19 33 -3 64 -10 70 -16z
m-1727 -809 c64 0 67 -20 6 -33 -48 -11 -119 6 -128 29 -5 14 -1 16 31 10 21
-3 62 -6 91 -6z m792 -150 c11 -7 7 -10 -17 -10 -17 0 -35 5 -38 10 -8 13 35
13 55 0z m-1090 -174 c0 -8 -5 -18 -11 -22 -6 -3 -17 -20 -25 -38 l-13 -31 -1
42 c0 30 5 45 18 52 24 14 32 13 32 -3z m1593 -122 c20 -3 37 -10 37 -15 0
-12 -52 -11 -84 1 -29 11 -36 34 -8 26 9 -3 34 -8 55 -12z m87 -190 c-8 -8
-23 -20 -34 -25 -15 -7 -13 -3 7 15 31 29 47 35 27 10z m-3516 -93 c24 -9 12
-17 -44 -30 -65 -15 -99 7 -42 27 32 12 60 13 86 3z m2637 -317 c10 -13 10
-17 -2 -25 -30 -19 -57 -3 -45 26 7 20 30 19 47 -1z m783 -377 c50 -28 62 -53
20 -43 -40 10 -74 34 -74 51 0 19 6 18 54 -8z m-739 -227 c19 -37 19 -37 -6
-50 -38 -21 -69 36 -37 68 18 18 26 15 43 -18z m57 -228 c15 -15 0 -32 -28
-32 -34 0 -64 17 -64 37 0 13 8 15 41 10 23 -3 46 -10 51 -15z m1118 -3 c33
-19 78 -74 68 -84 -2 -3 -29 -2 -59 2 -42 5 -60 13 -81 36 -16 16 -28 35 -28
42 0 8 12 16 28 18 15 2 29 5 31 6 2 0 20 -8 41 -20z"/>
<path d="M1899 1919 l-57 -29 20 -88 c10 -48 23 -91 28 -96 4 -4 29 4 54 19
47 27 53 46 25 80 -4 6 -11 30 -15 52 -6 40 -5 41 16 36 17 -5 21 -3 16 8 -3
8 -9 22 -12 32 -8 21 -7 21 -75 -14z"/>
<path d="M1310 1530 c0 -16 5 -30 10 -30 6 0 10 14 10 30 0 17 -4 30 -10 30
-5 0 -10 -13 -10 -30z"/>
<path d="M743 3 c15 -2 37 -2 50 0 12 2 0 4 -28 4 -27 0 -38 -2 -22 -4z"/>
</g>
</svg>
