<?xml version="1.0" standalone="no"?>
<!DOCTYPE svg PUBLIC "-//W3C//DTD SVG 20010904//EN"
 "http://www.w3.org/TR/2001/REC-SVG-20010904/DTD/svg10.dtd">
<svg version="1.0" xmlns="http://www.w3.org/2000/svg"
 width="480.000000pt" height="360.000000pt" viewBox="0 0 480.000000 360.000000"
 preserveAspectRatio="xMidYMid meet">
<metadata>
Created by potrace 1.16, written by Peter Selinger 2001-2019
</metadata>
<rect width="1" height="360" fill="#000000"/>
<rect x="479" width="1" height="360" fill="#000000"/>
<rect width="480" height="1" fill="#000000"/>
<rect y="359" width="480" height="1" fill="#000000"/>
<g transform="translate(0.000000,360.000000) scale(0.100000,-0.100000)"
fill="#000000" stroke="none">
<path d="M2423 3014 c-25 -25 -25 -28 -19 -113 6 -67 1 -129 -18 -271 -14
-102 -34 -264 -46 -360 -24 -199 -26 -210 -45 -210 -7 0 -23 -9 -36 -19 -21
-17 -24 -28 -25 -93 0 -40 -8 -93 -17 -118 -24 -65 -22 -128 4 -156 l21 -23
-62 -333 c-79 -422 -117 -599 -142 -668 -11 -30 -23 -88 -27 -128 -7 -67 -18
-91 -43 -92 -4 0 -23 -14 -43 -31 -35 -31 -48 -80 -25 -94 6 -4 6 -15 0 -31
-6 -14 -10 -36 -10 -48 0 -23 -24 -87 -56 -152 -9 -18 -14 -40 -12 -50 3 -18
40 -19 1157 -22 l1154 -2 -7 147 c-4 82 -18 249 -31 373 -13 124 -31 299 -40
390 l-16 165 30 145 c91 441 115 655 94 869 -12 128 -42 260 -73 321 -10 19
-25 63 -34 97 -21 85 -46 130 -106 196 -102 112 -260 183 -467 212 -72 11
-110 20 -116 30 -11 20 -33 19 -71 -4 -17 -10 -51 -22 -76 -26 -98 -15 -164
-59 -309 -202 -117 -116 -130 -132 -93 -113 24 12 46 19 49 16 3 -3 -9 -31
-26 -62 -22 -40 -28 -60 -20 -65 8 -5 10 -27 5 -73 -4 -43 -3 -66 4 -66 5 0
10 8 11 18 0 9 5 1 10 -18 18 -64 20 -67 30 -42 8 22 9 22 27 5 26 -25 11 -50
-44 -73 -48 -21 -53 -34 -28 -81 10 -21 13 -40 8 -62 -4 -18 -6 -36 -4 -42 2
-5 5 -23 7 -40 10 -92 20 -146 29 -155 6 -6 37 -14 70 -18 58 -7 59 -8 56 -37
-5 -44 -17 -51 -57 -32 -45 22 -45 6 0 -24 39 -27 39 -22 4 -139 -17 -56 -25
-69 -54 -84 -57 -31 -80 -62 -80 -109 0 -37 -3 -42 -25 -45 -23 -2 -30 8 -79
115 -38 82 -63 153 -82 238 -33 148 -43 172 -108 260 -28 38 -51 79 -51 90 0
114 85 665 119 775 25 78 26 102 6 139 -28 54 -128 69 -172 25z m68 -1507 c21
-21 50 -59 63 -86 26 -50 61 -170 52 -178 -11 -11 -115 -30 -138 -26 -31 6
-63 -31 -79 -91 -32 -118 41 -558 125 -748 8 -17 6 -17 -28 -3 -41 17 -89 19
-116 5 -13 -7 -42 -3 -101 11 -46 12 -85 23 -87 24 -2 2 4 20 12 40 10 23 16
67 16 114 0 42 7 119 15 171 15 98 121 640 150 768 l17 72 29 -17 c17 -10 48
-35 70 -56z"/>
</g>
</svg>
