<?xml version="1.0" standalone="no"?>
<!DOCTYPE svg PUBLIC "-//W3C//DTD SVG 20010904//EN"
 "http://www.w3.org/TR/2001/REC-SVG-20010904/DTD/svg10.dtd">
<svg version="1.0" xmlns="http://www.w3.org/2000/svg"
 width="480.000000pt" height="360.000000pt" viewBox="0 0 480.000000 360.000000"
 preserveAspectRatio="xMidYMid meet">
<metadata>
Created by potrace 1.16, written by Peter Selinger 2001-2019
</metadata>
<rect width="1" height="360" fill="#000000"/>
<rect x="479" width="1" height="360" fill="#000000"/>
<rect width="480" height="1" fill="#000000"/>
<rect y="359" width="480" height="1" fill="#000000"/>
<g transform="translate(0.000000,360.000000) scale(0.100000,-0.100000)"
fill="#000000" stroke="none">
<path d="M1854 3105 c-77 -55 -90 -59 -200 -57 -100 2 -102 2 -150 -31 -65
-45 -131 -141 -139 -204 -4 -26 -21 -82 -40 -123 -81 -183 -114 -382 -122
-728 -6 -284 -1 -313 42 -221 l25 54 0 -80 c0 -44 4 -75 9 -70 4 6 21 58 36
118 15 59 29 107 29 107 1 0 0 -47 -2 -105 -3 -74 -1 -105 7 -105 6 0 14 14
18 30 10 53 20 32 27 -57 3 -48 10 -91 15 -96 5 -5 14 14 21 43 7 28 19 54 26
57 8 3 14 20 14 40 0 19 4 32 9 29 17 -11 19 -72 5 -144 -16 -78 -12 -97 17
-89 17 5 19 -1 19 -64 l0 -69 -32 -1 c-18 0 -42 -4 -53 -8 -18 -8 -16 -10 15
-24 19 -9 43 -18 53 -21 15 -5 17 -23 17 -191 0 -153 -3 -198 -20 -259 -30
-114 -59 -289 -69 -421 -6 -90 -14 -131 -30 -162 -23 -45 -71 -204 -71 -234 0
-18 15 -19 435 -19 l435 0 -6 109 c-7 104 -6 109 15 120 11 7 21 19 21 28 0 9
12 41 26 71 23 49 25 59 15 98 -6 24 -9 54 -6 67 3 12 -3 115 -14 227 -11 113
-19 219 -17 235 2 17 4 38 4 48 4 37 22 14 22 -27 0 -60 17 -67 26 -11 3 25
10 47 14 50 13 8 47 -93 58 -175 6 -41 14 -113 17 -160 30 -416 63 -559 151
-644 l37 -36 117 0 c114 0 121 1 263 49 134 45 147 48 147 30 0 -30 23 -22 48
16 27 42 35 43 50 9 15 -31 32 -23 32 16 0 22 7 33 28 44 57 29 99 148 132
377 11 74 20 184 20 244 0 103 -26 303 -50 384 -5 19 -9 35 -7 36 1 1 38 8 82
15 127 20 155 39 205 145 68 147 50 273 -47 319 -38 18 -41 23 -37 51 5 29 5
29 -10 11 -9 -11 -16 -23 -16 -27 0 -5 -16 -1 -37 7 -47 20 -145 5 -180 -28
-44 -42 -69 -194 -43 -264 9 -22 8 -31 -4 -43 -14 -13 -17 -13 -35 3 -19 17
-24 17 -133 -4 -156 -29 -321 -68 -394 -91 l-61 -20 -137 71 c-75 40 -144 83
-155 96 -10 13 -27 47 -37 75 -11 28 -25 54 -32 57 -7 2 -31 -13 -53 -34 -21
-21 -40 -36 -43 -33 -9 11 -36 69 -36 80 0 7 -16 36 -35 65 -34 52 -35 54 -29
124 4 39 13 78 21 85 8 9 13 37 13 76 0 57 3 66 31 95 17 18 37 43 43 56 6 13
21 24 33 26 12 2 27 10 34 19 11 12 10 17 -4 24 -9 6 -24 24 -33 41 -15 29
-14 31 8 55 23 24 23 24 28 4 5 -21 5 -21 32 3 14 14 38 28 52 32 14 3 26 12
26 19 0 7 7 15 15 19 10 3 15 19 15 44 0 38 19 69 33 55 11 -11 8 6 -7 35 -7
15 -16 54 -20 87 -9 87 -57 173 -140 253 -41 40 -72 79 -78 98 -5 20 -25 45
-52 65 -26 20 -51 50 -59 71 -17 43 -95 98 -138 98 -15 0 -49 -16 -75 -35z
m56 -1235 c0 -5 -4 -10 -10 -10 -5 0 -10 5 -10 10 0 6 5 10 10 10 6 0 10 -4
10 -10z m337 -827 c-3 -10 -5 -4 -5 12 0 17 2 24 5 18 2 -7 2 -21 0 -30z"/>
</g>
</svg>
