<?xml version="1.0" standalone="no"?>
<!DOCTYPE svg PUBLIC "-//W3C//DTD SVG 20010904//EN"
 "http://www.w3.org/TR/2001/REC-SVG-20010904/DTD/svg10.dtd">
<svg version="1.0" xmlns="http://www.w3.org/2000/svg"
 width="480.000000pt" height="360.000000pt" viewBox="0 0 480.000000 360.000000"
 preserveAspectRatio="xMidYMid meet">
<metadata>
Created by potrace 1.16, written by Peter Selinger 2001-2019
</metadata>
<rect width="1" height="360" fill="#000000"/>
<rect x="479" width="1" height="360" fill="#000000"/>
<rect width="480" height="1" fill="#000000"/>
<rect y="359" width="480" height="1" fill="#000000"/>
<g transform="translate(0.000000,360.000000) scale(0.100000,-0.100000)"
fill="#000000" stroke="none">
<path d="M0 1800 l0 -1800 719 0 719 0 12 53 c7 28 21 77 30 107 10 30 27 89
39 130 45 151 114 346 136 385 26 46 60 224 56 298 -1 27 3 72 10 101 11 50
10 55 -12 86 -20 26 -24 44 -24 99 0 57 5 78 37 142 54 107 111 189 175 253
l56 55 -6 98 c-4 54 -7 168 -7 254 l0 157 -45 50 -45 50 0 85 0 85 -31 6 c-17
3 -57 6 -88 7 -68 0 -126 18 -126 39 0 8 17 23 37 33 30 15 46 34 79 97 22 43
57 95 76 115 l36 37 -18 52 c-10 28 -42 100 -71 159 -76 153 -72 188 12 114
27 -23 74 -61 104 -84 30 -23 65 -52 78 -63 23 -22 25 -22 77 -6 122 39 560
78 647 57 l53 -12 45 53 c24 29 78 88 119 131 59 61 80 77 103 77 23 0 28 -4
24 -17 -3 -10 -13 -65 -21 -123 -18 -119 -41 -223 -55 -249 -8 -17 -2 -19 73
-24 119 -9 347 -59 347 -76 0 -10 -49 -32 -169 -74 -52 -19 -89 -37 -82 -41
37 -23 -30 -63 -148 -87 -35 -8 -66 -20 -69 -28 -3 -7 2 -37 12 -65 24 -73 54
-225 67 -341 6 -55 12 -102 15 -106 2 -4 8 -40 14 -80 12 -87 62 -288 85 -342
8 -20 46 -68 83 -105 72 -71 132 -173 132 -224 0 -16 13 -54 29 -86 15 -31 31
-70 35 -87 7 -28 7 -29 -12 -12 -34 31 -31 18 19 -75 147 -272 259 -544 259
-627 0 -20 -11 -10 -58 55 -32 43 -75 107 -96 142 -22 34 -41 60 -44 58 -2 -3
19 -53 48 -113 55 -114 85 -204 66 -197 -6 3 -24 23 -40 44 -17 22 -32 40 -36
40 -6 0 3 -101 18 -210 5 -36 8 -67 6 -68 -1 -2 -13 12 -26 32 -17 27 -30 36
-51 36 -22 0 -27 -4 -24 -17 11 -38 18 -93 12 -93 -3 0 -16 7 -29 15 -23 15
-23 15 -48 -52 -14 -38 -28 -76 -33 -86 -7 -16 33 -17 754 -17 l761 0 0 1800
0 1800 -2400 0 -2400 0 0 -1800z"/>
<path d="M2101 1868 c-1 -80 5 -112 20 -102 13 8 9 104 -6 144 -13 34 -13 34
-14 -42z"/>
<path d="M1977 860 c-3 -8 -8 -26 -10 -40 -3 -14 -15 -61 -27 -105 -26 -93
-49 -194 -50 -214 0 -10 16 -12 74 -9 41 2 78 6 81 10 4 4 -5 71 -19 150 -40
214 -42 225 -49 208z"/>
<path d="M1713 110 l-51 -110 104 0 c141 0 142 5 46 153 -25 37 -45 67 -46 67
-1 0 -25 -49 -53 -110z"/>
</g>
</svg>
