<?xml version="1.0" standalone="no"?>
<!DOCTYPE svg PUBLIC "-//W3C//DTD SVG 20010904//EN"
 "http://www.w3.org/TR/2001/REC-SVG-20010904/DTD/svg10.dtd">
<svg version="1.0" xmlns="http://www.w3.org/2000/svg"
 width="480.000000pt" height="360.000000pt" viewBox="0 0 480.000000 360.000000"
 preserveAspectRatio="xMidYMid meet">
<metadata>
Created by potrace 1.16, written by Peter Selinger 2001-2019
</metadata>
<rect width="1" height="360" fill="#000000"/>
<rect x="479" width="1" height="360" fill="#000000"/>
<rect width="480" height="1" fill="#000000"/>
<rect y="359" width="480" height="1" fill="#000000"/>
<g transform="translate(0.000000,360.000000) scale(0.100000,-0.100000)"
fill="#000000" stroke="none">
<path d="M400 3588 c0 -7 7 -49 15 -93 8 -44 19 -159 25 -255 6 -96 16 -199
21 -228 6 -30 9 -56 6 -58 -2 -3 -46 -8 -98 -12 l-93 -7 -15 -38 c-13 -35 -13
-40 6 -65 11 -15 23 -52 26 -84 8 -62 24 -108 40 -108 5 0 7 9 4 20 -4 16 -2
18 13 10 32 -17 45 -12 25 10 -17 18 -17 20 -2 14 20 -7 23 6 5 24 -9 9 -9 12
3 12 9 0 6 7 -10 19 -20 15 -22 21 -12 39 7 12 16 22 21 22 4 0 15 3 24 6 20
8 50 -60 37 -84 -5 -10 -8 -36 -7 -59 2 -34 13 -54 62 -115 32 -40 62 -75 65
-78 12 -10 22 -53 10 -46 -6 4 -27 -5 -47 -20 -34 -26 -42 -28 -148 -29 -125
-2 -179 -19 -206 -67 -20 -38 -7 -58 59 -84 28 -11 61 -30 74 -42 12 -11 43
-30 69 -41 36 -15 49 -27 54 -48 26 -118 65 -177 144 -216 67 -34 96 -28 175
32 65 50 123 75 151 64 8 -3 14 -1 14 4 0 16 -44 31 -109 39 -34 4 -64 11 -67
16 -10 16 17 108 35 117 9 5 61 16 116 26 144 25 147 27 133 67 -16 48 -24 55
-69 62 -22 3 -42 13 -45 20 -10 26 48 119 124 203 68 74 100 123 179 274 29
56 36 99 17 99 -8 0 -14 10 -14 21 0 20 -1 21 -25 5 -22 -15 -25 -15 -25 -1 0
14 -2 14 -24 0 -19 -13 -25 -13 -28 -3 -4 11 -8 10 -21 -1 -15 -12 -17 -9 -17
28 0 50 -12 53 -29 6 -16 -45 -27 -45 -25 1 1 19 0 33 -3 30 -12 -12 -43 16
-43 39 0 41 -19 38 -39 -7 -10 -24 -30 -67 -43 -97 l-25 -53 -5 72 c-3 43 -11
77 -20 86 -13 13 -13 22 -1 70 23 91 76 172 206 316 36 40 84 97 107 126 l42
52 -396 0 c-310 0 -396 -3 -396 -12z m415 -730 c-15 -62 -32 -117 -36 -123
-14 -14 -11 1 15 105 33 127 38 142 44 136 2 -3 -8 -56 -23 -118z"/>
<path d="M2660 1800 l0 -1800 744 0 743 0 7 48 c3 26 18 86 32 134 25 81 27
118 6 118 -5 0 -29 -15 -53 -33 -76 -58 -107 -73 -126 -61 -25 16 -55 80 -61
130 -3 29 -9 44 -19 44 -9 0 -12 7 -9 17 11 40 27 173 21 182 -3 6 1 27 10 47
8 20 14 39 12 40 -2 2 -34 -9 -73 -25 -78 -32 -154 -46 -154 -28 0 7 -19 13
-46 14 -26 1 -49 4 -51 7 -7 7 7 47 15 42 4 -2 18 2 32 10 l25 15 -25 -6 -25
-6 24 20 c26 23 24 25 -13 11 -21 -8 -14 5 40 70 81 99 124 133 238 194 145
78 164 92 191 147 21 41 24 53 14 65 -10 12 -8 18 11 32 13 9 27 19 30 22 4 3
34 41 67 85 82 108 93 117 132 109 17 -4 34 -10 36 -15 3 -4 30 -5 60 -2 42 4
60 2 81 -12 23 -15 26 -22 20 -55 -5 -30 0 -48 19 -82 14 -23 25 -57 25 -73 0
-34 -24 -75 -44 -75 -7 0 -36 -24 -64 -54 -37 -39 -58 -53 -71 -49 -30 8 -15
-35 18 -52 15 -7 66 -58 115 -112 48 -54 98 -106 111 -116 24 -17 24 -17 44
20 10 21 23 55 29 76 9 31 8 39 -4 44 -8 3 -13 11 -10 18 2 7 2 16 -1 19 -4 3
-8 17 -9 31 -2 22 0 24 22 19 l24 -6 0 1316 0 1316 -1070 0 -1070 0 0 -1800z"/>
<path d="M4332 696 c-12 -36 -22 -84 -22 -108 l0 -42 21 20 c15 16 22 36 23
75 2 30 7 69 11 87 13 57 -9 34 -33 -32z"/>
<path d="M4780 551 c-6 -12 -25 -22 -52 -26 -24 -3 -58 -9 -75 -12 l-33 -5 0
-82 c0 -130 19 -310 39 -368 l18 -53 61 -3 62 -3 0 286 c0 157 -2 285 -5 285
-2 0 -9 -9 -15 -19z"/>
</g>
</svg>
