<?xml version="1.0" standalone="no"?>
<!DOCTYPE svg PUBLIC "-//W3C//DTD SVG 20010904//EN"
 "http://www.w3.org/TR/2001/REC-SVG-20010904/DTD/svg10.dtd">
<svg version="1.0" xmlns="http://www.w3.org/2000/svg"
 width="480.000000pt" height="360.000000pt" viewBox="0 0 480.000000 360.000000"
 preserveAspectRatio="xMidYMid meet">
<metadata>
Created by potrace 1.16, written by Peter Selinger 2001-2019
</metadata>
<rect width="1" height="360" fill="#000000"/>
<rect x="479" width="1" height="360" fill="#000000"/>
<rect width="480" height="1" fill="#000000"/>
<rect y="359" width="480" height="1" fill="#000000"/>
<g transform="translate(0.000000,360.000000) scale(0.100000,-0.100000)"
fill="#000000" stroke="none">
<path d="M2020 3130 c-68 -23 -106 -64 -115 -122 -5 -32 -13 -47 -28 -53 -32
-14 -51 -61 -55 -136 -5 -85 14 -124 99 -202 62 -57 64 -58 67 -33 4 30 9 32
40 10 29 -20 28 -33 -9 -63 -38 -32 -63 -111 -63 -195 0 -51 4 -62 26 -80 28
-23 58 -85 58 -120 0 -12 -16 -78 -35 -146 -20 -68 -33 -130 -30 -138 3 -8 0
-33 -6 -56 -18 -65 -14 -98 17 -124 17 -15 36 -22 51 -19 20 4 23 0 23 -25 0
-53 -22 -172 -41 -223 -10 -28 -34 -65 -53 -83 -40 -37 -96 -135 -96 -168 0
-12 7 -27 16 -34 11 -10 14 -23 9 -52 -9 -49 11 -131 36 -154 17 -16 21 -16
62 0 23 9 53 16 67 16 16 0 48 23 97 71 41 40 77 69 80 65 10 -10 56 -207 55
-236 -1 -14 15 -91 35 -173 l36 -147 -26 -28 c-60 -64 -44 -124 41 -148 69
-20 113 -12 146 26 34 41 45 114 20 141 -10 11 -21 41 -25 67 -3 26 -14 80
-23 120 -9 40 -16 89 -16 108 0 19 -7 51 -16 72 -16 38 -49 220 -41 228 2 2
56 1 120 -2 90 -6 117 -10 117 -21 0 -8 7 -28 16 -44 19 -37 39 -132 54 -253
16 -133 50 -181 112 -157 45 17 54 70 29 167 -18 68 -51 216 -51 230 0 2 16 4
35 4 19 0 67 7 107 15 40 8 94 17 120 20 34 4 49 11 53 25 3 10 17 25 30 34
35 23 31 46 -14 96 -30 33 -37 48 -31 61 6 9 6 29 1 45 -12 39 -201 234 -227
234 -11 0 -52 29 -91 65 -64 59 -122 136 -212 282 -18 29 -46 66 -63 82 l-31
30 59 26 c69 30 99 56 125 107 24 48 24 108 0 159 -11 22 -22 52 -26 67 -10
45 -99 165 -138 187 -20 11 -46 34 -59 50 -20 27 -39 45 -72 67 -6 4 2 31 19
69 36 81 44 172 20 220 -27 53 -43 66 -103 86 -34 10 -66 28 -79 44 -50 59
-126 73 -223 39z m51 -1356 c-4 -47 -7 -54 -27 -54 -15 0 -14 23 3 83 9 34 28
12 24 -29z"/>
</g>
</svg>
