<?xml version="1.0" standalone="no"?>
<!DOCTYPE svg PUBLIC "-//W3C//DTD SVG 20010904//EN"
 "http://www.w3.org/TR/2001/REC-SVG-20010904/DTD/svg10.dtd">
<svg version="1.0" xmlns="http://www.w3.org/2000/svg"
 width="480.000000pt" height="360.000000pt" viewBox="0 0 480.000000 360.000000"
 preserveAspectRatio="xMidYMid meet">
<metadata>
Created by potrace 1.16, written by Peter Selinger 2001-2019
</metadata>
<rect width="1" height="360" fill="#000000"/>
<rect x="479" width="1" height="360" fill="#000000"/>
<rect width="480" height="1" fill="#000000"/>
<rect y="359" width="480" height="1" fill="#000000"/>
<g transform="translate(0.000000,360.000000) scale(0.100000,-0.100000)"
fill="#000000" stroke="none">
<path d="M0 3113 c0 -486 0 -487 22 -510 14 -15 26 -48 34 -96 7 -39 17 -96
22 -124 5 -29 6 -53 3 -53 -4 0 -21 25 -39 55 -18 30 -35 55 -38 55 -2 0 -4
-549 -4 -1220 l0 -1220 1201 0 1201 0 -6 28 c-2 15 -7 47 -10 72 -7 60 -43
328 -62 460 -15 107 -40 263 -50 312 -8 38 15 37 120 -6 115 -48 191 -66 305
-73 121 -7 145 0 270 85 150 101 162 113 187 169 13 29 28 53 33 53 18 0 71
97 87 160 32 124 -3 282 -80 364 l-27 28 27 29 c27 28 27 30 11 47 -17 16 -19
15 -40 -11 l-22 -27 -70 63 c-83 75 -105 88 -208 116 -155 42 -232 20 -336
-98 -104 -117 -152 -230 -167 -389 l-7 -72 -36 -6 c-49 -9 -111 -34 -111 -45
0 -26 -21 -2 -41 47 -19 44 -31 60 -62 75 -36 19 -54 19 -315 14 -375 -7 -728
-23 -897 -41 -77 -8 -165 -17 -195 -20 l-55 -5 -125 91 -125 90 -21 73 c-11
39 -44 126 -73 192 -69 157 -69 157 -27 111 20 -22 36 -37 36 -34 0 3 -29 63
-64 132 l-64 127 18 92 c11 51 27 155 36 232 9 77 21 146 27 153 5 6 18 12 29
12 17 0 19 4 13 23 -16 49 -64 411 -58 439 5 27 4 30 -14 24 -26 -8 -39 8 -48
62 -7 41 -6 43 27 57 48 19 65 42 50 63 -26 36 -23 43 42 106 36 35 73 80 81
100 8 20 18 36 20 36 3 0 -2 -17 -10 -37 -15 -36 -61 -92 -97 -121 -23 -17
-46 -58 -26 -47 37 22 98 74 141 119 26 28 43 41 37 29 -22 -48 -8 -45 21 4
20 35 35 50 45 46 9 -3 14 2 14 16 0 12 7 35 15 51 l16 30 -281 0 -280 0 0
-487z m150 -848 c6 -39 12 -83 15 -100 3 -19 -10 -1 -34 49 -38 78 -42 106
-15 106 8 0 14 5 14 12 0 30 10 -4 20 -67z"/>
</g>
</svg>
