<?xml version="1.0" standalone="no"?>
<!DOCTYPE svg PUBLIC "-//W3C//DTD SVG 20010904//EN"
 "http://www.w3.org/TR/2001/REC-SVG-20010904/DTD/svg10.dtd">
<svg version="1.0" xmlns="http://www.w3.org/2000/svg"
 width="480.000000pt" height="360.000000pt" viewBox="0 0 480.000000 360.000000"
 preserveAspectRatio="xMidYMid meet">
<metadata>
Created by potrace 1.16, written by Peter Selinger 2001-2019
</metadata>
<rect width="1" height="360" fill="#000000"/>
<rect x="479" width="1" height="360" fill="#000000"/>
<rect width="480" height="1" fill="#000000"/>
<rect y="359" width="480" height="1" fill="#000000"/>
<g transform="translate(0.000000,360.000000) scale(0.100000,-0.100000)"
fill="#000000" stroke="none">
<path d="M2193 2362 c-18 -9 -33 -23 -33 -29 0 -7 -4 -13 -10 -13 -14 0 -38
-41 -72 -122 -48 -115 -59 -157 -68 -253 -31 -336 -41 -382 -92 -404 -18 -7
-60 -40 -94 -73 -55 -53 -63 -58 -86 -49 -14 5 -29 15 -33 21 -4 6 -17 9 -30
6 -15 -4 -25 -1 -29 9 -3 8 -11 15 -17 15 -11 0 -8 -23 8 -67 6 -17 5 -17 -13
-1 -15 13 -21 14 -31 4 -7 -8 -8 -18 -2 -27 14 -22 10 -33 -6 -19 -17 14 -20
3 -6 -20 6 -8 7 -19 3 -25 -4 -5 -7 -28 -7 -50 l0 -40 -787 -3 -788 -2 0 -610
0 -610 843 0 842 0 3 96 c3 112 16 137 93 174 39 19 60 22 122 18 l76 -3 -5
115 c-12 300 -12 302 -37 329 -33 36 -63 88 -81 141 -17 48 -22 190 -7 190 4
0 12 28 15 63 12 107 12 107 62 107 31 0 56 -8 84 -26 32 -21 46 -25 75 -20
41 8 43 19 21 99 -8 29 -20 78 -26 109 -10 49 -15 58 -41 67 -16 5 -32 17 -36
26 -6 18 13 121 28 145 5 8 12 22 16 30 21 50 88 151 108 164 32 21 42 20 50
-4 l6 -20 26 20 c28 22 43 19 43 -10 0 -11 5 -31 12 -45 12 -26 11 -28 -55
-172 -7 -16 -5 -52 6 -125 26 -167 28 -196 19 -202 -11 -7 14 -102 31 -125 14
-17 92 -9 136 14 18 9 41 13 55 9 13 -3 34 -1 45 6 17 9 29 6 65 -15 35 -21
46 -34 59 -76 12 -36 14 -56 7 -69 -5 -10 -7 -31 -4 -47 3 -15 1 -47 -4 -70
-12 -51 -68 -140 -94 -149 -18 -5 -63 -90 -98 -184 -7 -19 -49 -108 -93 -198
l-80 -163 12 -62 c7 -34 15 -79 18 -99 l5 -38 1239 0 1239 0 0 610 0 610 -977
2 c-538 1 -988 2 -1000 2 -27 0 -29 22 -12 89 5 23 9 66 7 96 l-3 53 -32 -46
c-30 -42 -63 -61 -63 -36 0 5 -6 7 -13 4 -22 -8 -107 35 -107 55 0 10 -9 26
-20 36 -11 10 -20 24 -20 32 0 7 -7 13 -15 13 -10 0 -15 -10 -15 -31 0 -37
-16 -69 -34 -69 -8 0 -19 -7 -26 -15 -7 -8 -16 -12 -21 -10 -4 3 -8 77 -8 164
-1 147 -12 252 -31 276 -4 6 -10 30 -13 55 -31 271 -60 395 -108 460 -26 34
-48 37 -96 12z"/>
</g>
</svg>
