<?xml version="1.0" standalone="no"?>
<!DOCTYPE svg PUBLIC "-//W3C//DTD SVG 20010904//EN"
 "http://www.w3.org/TR/2001/REC-SVG-20010904/DTD/svg10.dtd">
<svg version="1.0" xmlns="http://www.w3.org/2000/svg"
 width="480.000000pt" height="360.000000pt" viewBox="0 0 480.000000 360.000000"
 preserveAspectRatio="xMidYMid meet">
<metadata>
Created by potrace 1.16, written by Peter Selinger 2001-2019
</metadata>
<rect width="1" height="360" fill="#000000"/>
<rect x="479" width="1" height="360" fill="#000000"/>
<rect width="480" height="1" fill="#000000"/>
<rect y="359" width="480" height="1" fill="#000000"/>
<g transform="translate(0.000000,360.000000) scale(0.100000,-0.100000)"
fill="#000000" stroke="none">
<path d="M0 2799 l0 -802 38 6 c108 17 127 19 112 8 -8 -6 -45 -20 -82 -32
-74 -24 -92 -45 -30 -36 20 3 61 9 90 13 46 6 57 12 88 49 37 46 52 54 156 80
38 10 68 20 68 24 0 4 9 17 20 29 17 18 28 21 60 16 33 -5 44 -2 77 24 50 40
112 56 188 47 33 -4 220 -11 415 -15 594 -15 1049 -35 1243 -57 l57 -6 0 31
c0 26 -3 30 -17 25 -17 -6 -17 -5 0 14 19 22 23 53 6 53 -6 0 -8 7 -5 17 4 9
1 20 -6 25 -20 12 -25 10 -31 -12 -3 -13 -11 -18 -20 -14 -10 3 -17 -1 -19
-13 -2 -12 -12 -1 -30 37 -21 44 -28 51 -34 37 -5 -15 -9 -16 -15 -5 -6 9 -9
4 -9 -15 0 -42 -17 -24 -35 39 -12 41 -20 54 -30 50 -19 -7 -48 48 -40 74 3
10 1 21 -5 25 -6 3 -8 10 -5 15 3 5 0 12 -6 16 -8 4 -9 3 -5 -4 3 -6 -2 -16
-13 -22 -18 -9 -20 -6 -23 22 -2 27 -7 33 -25 32 -17 0 -23 5 -23 21 0 13 -12
44 -27 71 -25 44 -28 59 -28 144 0 93 1 97 49 197 48 100 50 102 150 180 112
88 128 96 237 117 110 22 185 11 279 -42 25 -14 67 -38 93 -52 142 -80 201
-196 233 -464 8 -67 23 -150 34 -186 22 -73 25 -94 10 -85 -6 4 -10 -9 -10
-32 0 -53 -10 -83 -26 -83 -9 0 -14 -11 -14 -27 -1 -35 -35 -92 -79 -128 l-33
-29 7 35 c7 33 7 34 -12 16 -43 -38 -53 -16 -28 67 24 79 17 98 -9 23 -26 -77
-42 -100 -55 -78 -6 8 -11 9 -15 3 -3 -6 -1 -14 6 -19 13 -8 18 -9 39 -12 5 0
8 -5 4 -10 -3 -6 11 -22 30 -38 20 -15 54 -54 77 -85 41 -56 67 -74 34 -24
-26 41 -19 40 42 -6 31 -24 103 -74 160 -112 107 -70 173 -130 199 -181 27
-51 28 -149 3 -250 -13 -50 -28 -99 -33 -110 -16 -29 -9 -203 10 -242 8 -18
19 -33 23 -33 4 0 30 -18 56 -40 40 -33 56 -40 93 -40 l44 0 -6 -35 c-3 -19
-17 -57 -31 -85 l-26 -51 26 -102 c23 -88 25 -113 19 -182 -12 -119 -10 -142
23 -277 17 -67 36 -150 42 -183 6 -33 15 -73 19 -90 l7 -30 537 -3 537 -2 0
1800 0 1800 -1915 0 c-1476 0 -1914 -3 -1912 -12 1 -6 -6 -14 -15 -16 -11 -2
-18 2 -18 12 0 14 -49 16 -470 16 l-470 0 0 -801z m805 731 c3 -5 1 -10 -4
-10 -6 0 -11 5 -11 10 0 6 2 10 4 10 3 0 8 -4 11 -10z m3220 -120 c3 -5 2 -10
-4 -10 -5 0 -13 5 -16 10 -3 6 -2 10 4 10 5 0 13 -4 16 -10z m-3491 -259 c12
-19 -52 -55 -80 -44 -13 5 -12 9 7 29 22 24 63 32 73 15z m414 -2 c-2 -6 -7
-10 -11 -10 -4 1 -16 1 -27 1 -11 0 -20 5 -20 10 0 6 14 10 31 10 17 0 29 -5
27 -11z m2522 -109 c0 -13 -20 -13 -40 0 -12 8 -9 10 13 10 15 0 27 -4 27 -10z
m1218 -200 c23 0 42 -4 42 -10 0 -11 -98 -14 -124 -4 -23 9 -7 27 18 20 11 -3
40 -6 64 -6z m-3363 -491 c16 -16 -30 -10 -51 6 -18 14 -17 15 11 9 17 -4 34
-11 40 -15z m3078 -1007 c-2 -12 -9 -38 -17 -57 -14 -33 -17 -35 -66 -35 -59
0 -67 11 -45 63 16 38 53 58 105 54 20 -2 24 -7 23 -25z"/>
<path d="M2216 2565 c-3 -9 -2 -24 2 -32 8 -13 10 -13 16 2 3 9 2 24 -2 32 -8
13 -10 13 -16 -2z"/>
<path d="M58 1888 c-66 -22 -75 -38 -22 -38 38 0 66 12 98 41 19 19 19 19 0
18 -10 0 -45 -10 -76 -21z"/>
<path d="M1256 1835 c-239 -19 -466 -56 -466 -75 0 -4 23 -10 51 -14 100 -13
177 -76 228 -185 23 -49 26 -69 26 -156 0 -87 -4 -107 -26 -155 -36 -76 -108
-153 -166 -178 -26 -11 -77 -23 -113 -26 -36 -3 -66 -5 -66 -6 -1 0 -5 -11 -8
-25 -9 -34 -18 -31 -41 11 -10 19 -30 41 -45 49 -14 7 -34 22 -44 34 -16 17
-17 25 -8 46 21 46 49 55 129 43 62 -10 78 -9 120 7 64 24 91 49 120 115 20
44 24 64 19 102 -14 103 -72 181 -146 193 -69 12 -203 10 -228 -4 -12 -6 -29
-27 -37 -47 -18 -45 -34 -50 -81 -25 -100 52 -128 62 -225 75 -84 11 -117 12
-174 2 l-70 -12 82 -12 c93 -15 143 -30 143 -43 0 -11 12 -9 -114 -22 -60 -7
-111 -17 -113 -23 -2 -6 37 -21 94 -35 132 -33 134 -49 2 -42 -85 5 -101 4
-97 -8 3 -8 33 -22 68 -31 34 -9 65 -20 68 -23 8 -8 -59 -6 -100 4 l-38 9 0
-628 c0 -576 1 -628 16 -626 9 0 19 -5 22 -13 3 -10 -1 -12 -17 -8 -20 5 -21
1 -21 -49 l0 -54 1173 0 1172 0 51 78 c29 42 66 103 82 134 56 103 141 235
210 325 129 167 134 176 122 207 -8 22 -6 37 10 73 11 26 18 55 14 66 -6 18
-13 18 -108 12 -87 -6 -104 -5 -115 9 -19 22 -6 99 26 148 79 126 43 318 -100
532 -32 48 -70 113 -84 143 -15 32 -34 58 -47 63 -22 8 -212 28 -276 28 -19 1
-66 5 -105 10 -127 18 -585 22 -769 7z m-76 -536 c0 -16 -20 -49 -30 -49 -5 0
-4 13 1 30 11 29 29 41 29 19z m-545 -534 c-16 -8 -39 -14 -50 -14 -18 0 -17
1 5 14 14 8 36 14 50 14 24 -1 24 -1 -5 -14z"/>
<path d="M126 1774 c-5 -14 -4 -15 9 -4 17 14 19 20 6 20 -5 0 -12 -7 -15 -16z"/>
</g>
</svg>
