<?xml version="1.0" standalone="no"?>
<!DOCTYPE svg PUBLIC "-//W3C//DTD SVG 20010904//EN"
 "http://www.w3.org/TR/2001/REC-SVG-20010904/DTD/svg10.dtd">
<svg version="1.0" xmlns="http://www.w3.org/2000/svg"
 width="480.000000pt" height="360.000000pt" viewBox="0 0 480.000000 360.000000"
 preserveAspectRatio="xMidYMid meet">
<metadata>
Created by potrace 1.16, written by Peter Selinger 2001-2019
</metadata>
<rect width="1" height="360" fill="#000000"/>
<rect x="479" width="1" height="360" fill="#000000"/>
<rect width="480" height="1" fill="#000000"/>
<rect y="359" width="480" height="1" fill="#000000"/>
<g transform="translate(0.000000,360.000000) scale(0.100000,-0.100000)"
fill="#000000" stroke="none">
<path d="M1234 3531 c-54 -38 -110 -81 -124 -96 l-25 -27 30 8 c17 4 50 13 75
20 25 8 49 14 53 14 4 0 -32 -33 -80 -74 -48 -40 -99 -85 -112 -100 l-24 -26
48 0 49 0 -74 -46 c-79 -49 -110 -73 -110 -84 0 -12 84 -30 142 -30 l53 -1
-60 -31 c-72 -36 -97 -57 -91 -74 3 -7 -3 -16 -13 -19 -10 -3 -29 -17 -42 -31
l-24 -27 64 7 c58 7 63 6 52 -8 -18 -21 -11 -20 55 9 31 14 68 25 83 25 20 -1
12 -7 -36 -30 -130 -60 -306 -189 -261 -190 7 -1 -22 -19 -64 -40 -43 -22 -82
-48 -87 -59 -9 -16 0 -22 77 -56 48 -21 89 -40 91 -41 1 -2 -12 -39 -30 -83
-18 -44 -30 -84 -26 -87 3 -4 18 1 33 11 l26 17 -7 -34 -6 -33 51 55 50 55
-56 -118 c-32 -64 -55 -119 -52 -122 5 -5 226 128 298 179 25 18 50 36 57 40
11 6 -8 -76 -51 -219 -9 -27 -14 -51 -12 -53 2 -2 27 21 55 50 52 54 59 52 41
-12 -6 -19 -12 -66 -15 -105 -2 -38 -8 -104 -14 -145 -11 -77 -14 -170 -7
-170 3 0 17 5 31 10 26 10 27 9 21 -16 -20 -78 -19 -83 6 -93 22 -8 26 -17 32
-75 8 -81 21 -116 41 -116 20 0 101 55 108 72 11 28 6 -23 -8 -89 -9 -37 -17
-77 -20 -89 -6 -27 32 -46 74 -38 28 6 30 4 37 -30 5 -31 1 -46 -28 -94 -37
-61 -78 -139 -78 -148 0 -4 11 1 25 10 14 9 25 14 25 10 0 -3 12 1 26 11 14 9
28 14 31 12 2 -3 -13 -34 -36 -68 -42 -67 -45 -85 -10 -53 15 13 11 1 -15 -41
-19 -32 -34 -61 -32 -63 3 -2 13 1 24 7 12 6 30 11 41 11 11 0 50 23 87 52 43
33 65 44 60 32 -4 -10 -10 -26 -14 -34 -3 -8 6 -4 21 9 35 32 34 20 -4 -35
-29 -43 -60 -105 -74 -151 -5 -18 -2 -23 10 -23 12 0 15 -5 10 -17 -23 -57
-44 -128 -54 -179 -7 -33 -14 -70 -17 -84 l-6 -25 24 23 c14 12 29 22 35 22 6
0 20 12 31 27 20 27 20 27 3 -63 -16 -86 -22 -98 -103 -220 -47 -71 -84 -131
-82 -133 2 -3 17 7 32 21 15 14 48 35 73 47 26 11 67 43 92 71 44 49 45 50 50
23 3 -15 -2 -45 -10 -67 -8 -23 -23 -71 -33 -109 l-19 -67 358 0 359 0 21 113
c39 210 149 629 170 651 20 19 20 19 0 -43 -10 -35 -19 -75 -19 -89 1 -27 1
-27 36 13 19 22 74 92 122 155 117 154 115 152 100 115 -7 -16 -34 -71 -60
-121 -50 -98 -82 -184 -93 -249 -5 -35 -4 -38 7 -23 23 27 40 -27 33 -104 l-6
-63 26 48 c14 26 27 47 29 47 2 0 0 -19 -5 -42 -12 -64 -11 -65 21 -28 31 37
38 31 19 -17 -6 -15 -17 -48 -24 -72 l-14 -44 41 39 41 39 -6 -42 c-3 -24 -2
-43 1 -43 4 0 23 25 42 55 19 30 37 55 41 55 8 0 -7 -122 -20 -153 -6 -16 -11
-36 -10 -45 0 -14 3 -13 16 5 27 40 31 25 12 -54 -24 -99 -24 -103 4 -103 15
0 29 11 41 30 15 26 84 80 101 80 4 0 4 -8 2 -17 -3 -10 -8 -35 -12 -55 l-6
-38 211 0 210 0 0 23 c0 12 -7 123 -15 247 -9 139 -15 406 -15 700 -1 261 -5
696 -10 965 -8 479 -9 492 -33 585 -40 148 -64 199 -210 449 -137 235 -238
463 -263 595 l-6 36 -762 0 -763 0 -99 -69z m1380 -2411 c-6 -30 9 -43 19 -17
3 7 6 4 6 -7 1 -18 -68 -121 -75 -113 -6 6 14 107 27 140 15 36 30 35 23 -3z"/>
</g>
</svg>
