<?xml version="1.0" standalone="no"?>
<!DOCTYPE svg PUBLIC "-//W3C//DTD SVG 20010904//EN"
 "http://www.w3.org/TR/2001/REC-SVG-20010904/DTD/svg10.dtd">
<svg version="1.0" xmlns="http://www.w3.org/2000/svg"
 width="480.000000pt" height="360.000000pt" viewBox="0 0 480.000000 360.000000"
 preserveAspectRatio="xMidYMid meet">
<metadata>
Created by potrace 1.16, written by Peter Selinger 2001-2019
</metadata>
<rect width="1" height="360" fill="#000000"/>
<rect x="479" width="1" height="360" fill="#000000"/>
<rect width="480" height="1" fill="#000000"/>
<rect y="359" width="480" height="1" fill="#000000"/>
<g transform="translate(0.000000,360.000000) scale(0.100000,-0.100000)"
fill="#000000" stroke="none">
<path d="M0 1800 l0 -1800 609 0 608 0 50 78 c176 273 238 380 276 484 13 34
47 108 75 163 28 55 79 174 114 265 l63 165 0 290 c-1 160 -4 307 -8 328 -8
38 -32 51 -43 22 -4 -8 -17 -15 -31 -15 -13 0 -33 -5 -44 -10 -14 -8 -19 -7
-19 1 0 10 57 221 107 402 4 12 -12 35 -45 71 -87 92 -200 288 -247 429 -22
65 -12 130 21 146 14 6 30 11 36 11 6 0 84 -37 173 -82 l162 -82 44 14 c24 8
66 34 93 59 95 84 256 138 385 129 42 -3 115 -21 196 -49 150 -51 143 -48 126
-58 -10 -7 -7 -13 13 -26 24 -16 65 -75 52 -75 -3 0 2 -19 10 -42 20 -59 29
-179 16 -217 -7 -21 -8 -40 -2 -56 12 -31 3 -32 -27 -3 -27 26 -30 13 -8 -47
27 -75 19 -118 -40 -214 -5 -9 -18 -15 -28 -13 -27 5 -45 -15 -39 -43 2 -14 0
-31 -6 -38 -6 -8 -6 -34 0 -78 l10 -66 72 -32 c89 -39 168 -105 235 -194 28
-37 51 -71 51 -74 0 -3 21 -34 46 -69 25 -36 57 -90 72 -122 28 -60 29 -67 19
-327 l-2 -49 52 -26 c29 -14 64 -35 78 -48 l26 -23 -6 -117 c-4 -64 -11 -142
-17 -172 -13 -68 -12 -45 -10 -342 l2 -248 765 0 765 0 0 1800 0 1800 -1180 0
-1180 0 0 -28 c0 -25 -3 -28 -40 -29 -38 -2 -40 0 -40 28 l0 29 -1180 0 -1180
0 0 -1800z"/>
</g>
</svg>
