<?xml version="1.0" standalone="no"?>
<!DOCTYPE svg PUBLIC "-//W3C//DTD SVG 20010904//EN"
 "http://www.w3.org/TR/2001/REC-SVG-20010904/DTD/svg10.dtd">
<svg version="1.0" xmlns="http://www.w3.org/2000/svg"
 width="480.000000pt" height="360.000000pt" viewBox="0 0 480.000000 360.000000"
 preserveAspectRatio="xMidYMid meet">
<metadata>
Created by potrace 1.16, written by Peter Selinger 2001-2019
</metadata>
<rect width="1" height="360" fill="#000000"/>
<rect x="479" width="1" height="360" fill="#000000"/>
<rect width="480" height="1" fill="#000000"/>
<rect y="359" width="480" height="1" fill="#000000"/>
<g transform="translate(0.000000,360.000000) scale(0.100000,-0.100000)"
fill="#000000" stroke="none">
<path d="M0 3120 l0 -479 43 19 c23 11 49 20 57 20 8 0 31 4 50 10 l35 10 0
82 c1 218 150 474 329 565 93 47 240 65 370 43 66 -11 68 -10 128 46 23 22 78
68 121 102 l78 62 -605 0 -606 0 0 -480z m920 395 c0 -8 -7 -15 -15 -15 -8 0
-15 7 -15 15 0 8 7 15 15 15 8 0 15 -7 15 -15z"/>
<path d="M1300 3590 c0 -6 7 -24 15 -39 8 -16 26 -75 40 -133 15 -57 30 -109
33 -114 4 -5 32 -20 62 -34 80 -37 191 -129 244 -203 138 -193 184 -427 112
-568 l-28 -57 22 -58 c12 -32 38 -81 57 -108 33 -46 35 -52 22 -75 -8 -13 -31
-33 -51 -44 -43 -22 -43 -16 -24 -167 35 -276 104 -541 154 -593 32 -33 52
-75 52 -108 0 -30 -12 -22 -59 41 -25 33 -53 62 -62 65 -16 5 -143 -57 -154
-75 -3 -4 2 -13 10 -20 22 -18 18 -35 -11 -49 -25 -11 -25 -13 -10 -34 18 -25
70 -116 112 -197 l29 -55 51 3 c30 2 55 -1 59 -7 3 -6 1 -45 -6 -85 -15 -88
-11 -96 59 -122 85 -31 102 -65 61 -118 -35 -45 -20 -90 75 -235 45 -69 118
-188 161 -263 l77 -138 1199 0 1199 0 0 1800 0 1800 -1750 0 c-1215 0 -1750
-3 -1750 -10z m3374 -626 c25 -10 19 -22 -9 -16 -14 2 -22 8 -19 13 6 11 8 11
28 3z m-244 -358 c0 -30 -26 -54 -42 -38 -9 9 -9 18 0 37 15 32 42 33 42 1z
m-766 -205 c3 -5 -3 -11 -14 -14 -22 -6 -37 8 -18 16 20 8 26 8 32 -2z m-1436
-868 c-4 -21 -36 -29 -51 -14 -9 9 -8 14 3 21 25 16 52 12 48 -7z m2120 -955
c-6 -18 -28 -21 -28 -4 0 9 7 16 16 16 9 0 14 -5 12 -12z"/>
<path d="M0 1559 c0 -685 2 -770 15 -759 8 7 15 24 16 39 0 14 8 57 18 96 18
68 18 71 -1 138 -19 69 -19 69 2 113 20 40 32 48 164 118 79 41 173 85 210 98
36 13 64 27 63 33 -3 6 -35 9 -79 7 -73 -4 -78 -2 -168 44 l-93 47 -51 -55
c-28 -31 -57 -63 -65 -72 -21 -27 -23 -13 -6 35 11 33 75 385 75 415 0 2 -10
4 -22 5 l-23 0 23 11 c26 13 25 12 53 168 34 190 38 214 44 240 6 23 6 24 -13
7 -25 -23 -34 -22 -97 13 -30 17 -56 30 -59 30 -4 0 -6 -347 -6 -771z"/>
<path d="M1701 244 c-1 -61 -8 -129 -19 -173 l-18 -71 38 0 39 0 -7 46 c-4 29
-2 60 6 84 17 50 5 161 -20 192 -18 22 -18 21 -19 -78z"/>
</g>
</svg>
