<?xml version="1.0" standalone="no"?>
<!DOCTYPE svg PUBLIC "-//W3C//DTD SVG 20010904//EN"
 "http://www.w3.org/TR/2001/REC-SVG-20010904/DTD/svg10.dtd">
<svg version="1.0" xmlns="http://www.w3.org/2000/svg"
 width="480.000000pt" height="360.000000pt" viewBox="0 0 480.000000 360.000000"
 preserveAspectRatio="xMidYMid meet">
<metadata>
Created by potrace 1.16, written by Peter Selinger 2001-2019
</metadata>
<rect width="1" height="360" fill="#000000"/>
<rect x="479" width="1" height="360" fill="#000000"/>
<rect width="480" height="1" fill="#000000"/>
<rect y="359" width="480" height="1" fill="#000000"/>
<g transform="translate(0.000000,360.000000) scale(0.100000,-0.100000)"
fill="#000000" stroke="none">
<path d="M0 1800 l0 -1800 195 0 c107 0 195 2 195 5 0 3 -11 27 -25 54 -59
118 -127 364 -160 578 -48 322 -46 832 6 1198 21 151 68 397 97 514 l19 73
-41 29 c-65 46 -94 79 -111 124 -22 56 -7 112 42 160 60 58 198 96 231 63 26
-26 14 -69 -30 -110 -23 -21 -38 -41 -35 -45 11 -10 419 -100 582 -128 200
-34 283 -34 416 2 98 26 116 28 304 28 165 0 221 -4 318 -23 305 -58 567 -152
895 -323 85 -43 155 -79 157 -79 2 0 6 19 10 42 6 31 19 54 51 87 24 24 44 54
44 65 0 12 9 41 20 65 11 24 20 44 20 46 0 1 -15 5 -32 8 -52 8 -88 25 -88 41
0 27 57 63 119 75 58 12 62 14 100 69 21 31 52 85 69 118 53 104 88 123 262
145 154 19 381 -4 428 -44 23 -18 55 -75 96 -167 l37 -86 99 -17 c112 -19 174
-41 168 -59 -7 -22 -69 -47 -166 -67 -51 -10 -94 -20 -96 -22 -2 -2 4 -44 14
-93 10 -49 16 -96 13 -104 -10 -24 -62 -76 -70 -69 -3 4 -19 -5 -35 -20 -15
-15 -28 -24 -28 -20 0 4 -13 1 -29 -8 -23 -11 -30 -12 -34 -2 -2 6 -15 -9 -27
-34 -30 -61 -23 -79 31 -79 34 0 47 -6 73 -34 103 -109 55 -289 -84 -312 -62
-10 -65 -12 -46 -33 9 -10 16 -23 14 -29 -2 -6 19 -26 47 -44 27 -18 55 -44
61 -57 7 -13 20 -29 29 -34 13 -7 16 -21 14 -60 -4 -50 -2 -54 42 -97 24 -25
59 -53 77 -62 18 -10 40 -32 50 -50 9 -18 49 -67 88 -108 81 -85 94 -106 94
-150 0 -21 18 -62 53 -118 83 -135 130 -226 186 -362 29 -69 56 -134 61 -145
5 -11 9 703 9 1643 l1 1662 -2400 0 -2400 0 0 -1800z"/>
<path d="M1537 2359 c-37 -5 -109 -25 -160 -45 -51 -20 -105 -40 -122 -45 -57
-18 -170 -27 -237 -20 l-68 7 -24 -75 c-44 -137 -64 -223 -95 -416 -87 -537
-131 -913 -131 -1108 0 -146 31 -401 66 -549 l26 -108 984 0 984 0 13 33 c38
90 95 191 147 263 144 195 177 249 195 323 16 68 17 182 1 198 -3 3 -27 -12
-52 -33 -102 -84 -116 -88 -164 -47 -44 37 -78 93 -95 160 -19 74 -20 71 14
102 15 14 52 71 81 126 53 98 54 100 55 190 0 73 5 98 23 133 26 48 93 145
104 150 4 2 5 9 2 17 -6 15 27 85 62 132 43 57 42 59 -136 164 -454 266 -869
416 -1240 449 -129 11 -138 11 -233 -1z"/>
<path d="M3778 852 c-94 -145 -93 -206 6 -585 14 -54 31 -136 38 -182 l12 -85
418 0 c348 0 418 2 418 14 0 27 -81 265 -123 363 -77 178 -216 406 -257 422
-64 26 -120 33 -164 22 -108 -27 -210 -7 -268 51 -21 21 -39 38 -40 38 -2 0
-20 -26 -40 -58z"/>
</g>
</svg>
