<?xml version="1.0" standalone="no"?>
<!DOCTYPE svg PUBLIC "-//W3C//DTD SVG 20010904//EN"
 "http://www.w3.org/TR/2001/REC-SVG-20010904/DTD/svg10.dtd">
<svg version="1.0" xmlns="http://www.w3.org/2000/svg"
 width="480.000000pt" height="360.000000pt" viewBox="0 0 480.000000 360.000000"
 preserveAspectRatio="xMidYMid meet">
<metadata>
Created by potrace 1.16, written by Peter Selinger 2001-2019
</metadata>
<rect width="1" height="360" fill="#000000"/>
<rect x="479" width="1" height="360" fill="#000000"/>
<rect width="480" height="1" fill="#000000"/>
<rect y="359" width="480" height="1" fill="#000000"/>
<g transform="translate(0.000000,360.000000) scale(0.100000,-0.100000)"
fill="#000000" stroke="none">
<path d="M1411 2908 c-50 -19 -55 -19 -66 -4 -30 41 -110 -10 -83 -53 9 -15 8
-29 -5 -71 -27 -84 -23 -115 30 -204 3 -4 8 -4 12 1 3 5 17 7 29 4 l24 -6 -21
-27 c-24 -31 -26 -44 -7 -51 7 -3 28 -28 46 -56 32 -49 40 -55 68 -52 6 1 12
-1 12 -4 0 -8 -39 -45 -48 -45 -5 0 -20 -12 -35 -27 -25 -28 -26 -28 -8 -52
19 -24 19 -24 -34 -87 -89 -104 -130 -213 -106 -277 6 -15 27 -37 47 -49 l36
-21 -4 -86 c-4 -69 -10 -96 -32 -139 -16 -29 -32 -55 -37 -57 -4 -3 -6 -18 -3
-33 3 -16 -5 -55 -20 -97 -17 -48 -22 -73 -15 -81 7 -9 2 -42 -15 -106 -31
-116 -41 -170 -71 -405 -13 -103 -45 -329 -70 -500 -25 -172 -45 -315 -45
-318 0 -3 226 -5 503 -5 l503 0 -23 143 c-13 78 -34 239 -48 357 -14 118 -32
251 -40 296 -19 103 -88 353 -125 455 -28 78 -28 79 -7 79 18 0 15 6 -23 45
-40 41 -42 46 -29 62 9 10 25 41 37 70 11 29 41 84 66 123 30 46 46 82 46 102
0 18 -19 67 -46 116 -35 65 -44 92 -40 114 5 23 2 28 -15 28 -17 0 -19 6 -17
58 1 36 -6 82 -20 127 -13 39 -27 84 -32 101 -6 17 -10 38 -10 47 0 18 25 23
35 7 12 -19 21 -9 50 55 l29 65 12 -27 11 -28 13 30 c7 17 16 40 21 52 6 16
14 21 25 16 14 -5 15 -1 9 28 -4 19 -18 63 -32 99 -14 36 -28 83 -33 105 -5
24 -20 50 -37 65 -16 15 -41 42 -57 62 -58 77 -189 101 -305 56z"/>
</g>
</svg>
