<?xml version="1.0" standalone="no"?>
<!DOCTYPE svg PUBLIC "-//W3C//DTD SVG 20010904//EN"
 "http://www.w3.org/TR/2001/REC-SVG-20010904/DTD/svg10.dtd">
<svg version="1.0" xmlns="http://www.w3.org/2000/svg"
 width="480.000000pt" height="360.000000pt" viewBox="0 0 480.000000 360.000000"
 preserveAspectRatio="xMidYMid meet">
<metadata>
Created by potrace 1.16, written by Peter Selinger 2001-2019
</metadata>
<rect width="1" height="360" fill="#000000"/>
<rect x="479" width="1" height="360" fill="#000000"/>
<rect width="480" height="1" fill="#000000"/>
<rect y="359" width="480" height="1" fill="#000000"/>
<g transform="translate(0.000000,360.000000) scale(0.100000,-0.100000)"
fill="#000000" stroke="none">
<path d="M2335 1563 c-169 -22 -397 -108 -514 -195 l-53 -40 -56 11 c-30 6
-99 11 -151 11 -218 0 -409 -94 -638 -313 -97 -94 -263 -287 -310 -362 -67
-106 -131 -220 -162 -288 -49 -108 -101 -292 -101 -357 l0 -30 299 0 299 0 64
97 c105 159 156 248 255 443 87 172 113 216 113 196 0 -16 -32 -131 -39 -141
-20 -26 -64 -152 -92 -259 -16 -66 -37 -135 -45 -154 -8 -19 -14 -40 -14 -46
0 -19 71 86 107 159 l34 70 -6 -80 c-4 -44 -15 -123 -26 -177 -10 -53 -19 -99
-19 -102 0 -3 505 -6 1121 -6 l1122 0 -6 90 c-6 94 4 111 23 39 6 -22 25 -60
42 -84 27 -38 37 -45 66 -45 29 0 33 3 27 17 -12 28 -45 137 -45 147 0 5 24
-29 53 -75 l52 -84 343 -3 343 -2 -7 72 c-12 138 -65 294 -161 478 -70 137
-166 277 -280 412 -240 285 -504 415 -771 381 -48 -6 -94 -14 -102 -17 -9 -4
-25 2 -37 14 -67 62 -256 154 -391 190 -125 33 -246 45 -337 33z"/>
</g>
</svg>
