<?xml version="1.0" standalone="no"?>
<!DOCTYPE svg PUBLIC "-//W3C//DTD SVG 20010904//EN"
 "http://www.w3.org/TR/2001/REC-SVG-20010904/DTD/svg10.dtd">
<svg version="1.0" xmlns="http://www.w3.org/2000/svg"
 width="480.000000pt" height="360.000000pt" viewBox="0 0 480.000000 360.000000"
 preserveAspectRatio="xMidYMid meet">
<metadata>
Created by potrace 1.16, written by Peter Selinger 2001-2019
</metadata>
<rect width="1" height="360" fill="#000000"/>
<rect x="479" width="1" height="360" fill="#000000"/>
<rect width="480" height="1" fill="#000000"/>
<rect y="359" width="480" height="1" fill="#000000"/>
<g transform="translate(0.000000,360.000000) scale(0.100000,-0.100000)"
fill="#000000" stroke="none">
<path d="M0 2670 c0 -511 1 -930 3 -930 1 0 50 16 108 35 202 65 341 125 599
260 69 36 138 65 153 65 19 0 43 -14 75 -43 26 -24 108 -90 182 -147 170 -131
176 -136 345 -296 173 -164 242 -219 324 -256 106 -49 174 -58 417 -57 121 1
228 0 238 -2 16 -3 21 4 28 33 4 21 22 66 39 100 84 166 160 253 269 308 l63
32 -7 76 c-3 42 -11 81 -16 86 -8 8 -9 -15 -4 -73 9 -110 -8 -101 -25 14 -7
47 -16 85 -21 85 -4 0 -14 -17 -23 -37 l-15 -38 0 55 c2 90 -19 166 -50 186
-15 10 -32 24 -38 33 -9 12 -15 13 -26 4 -7 -7 -26 -17 -42 -23 l-28 -10 7 37
c3 21 9 48 12 60 4 20 0 22 -39 25 l-43 3 43 25 c43 24 44 25 37 70 -11 82
-11 82 -51 57 l-34 -22 3 -215 2 -215 -33 -78 c-18 -43 -38 -109 -44 -148 -13
-72 -23 -85 -37 -46 -8 19 -10 17 -16 -21 -8 -42 -25 -68 -25 -37 0 9 -4 13
-10 10 -6 -4 -7 6 -4 25 4 19 2 30 -5 30 -6 0 -11 -17 -11 -40 0 -29 -4 -40
-15 -40 -9 0 -12 -6 -9 -15 4 -8 1 -15 -5 -15 -11 0 -15 12 -12 40 1 12 -2 11
-13 -3 -12 -16 -15 -12 -25 46 -6 35 -11 72 -11 83 0 10 -5 26 -11 34 -7 11
-9 -3 -7 -52 2 -38 1 -65 -3 -60 -15 14 -59 144 -73 215 -14 69 -11 168 10
260 5 26 4 28 -15 22 -29 -9 -26 6 8 39 17 16 34 47 41 74 18 73 78 190 121
237 l39 42 -103 31 c-111 34 -167 63 -167 87 0 8 19 69 41 135 34 100 50 130
87 171 44 50 131 113 185 137 76 33 137 2 167 -87 l18 -53 33 63 c45 85 135
174 212 209 79 36 178 50 365 50 275 0 379 -26 460 -114 51 -55 86 -123 112
-217 22 -81 26 -198 9 -248 -11 -31 -10 -34 25 -62 46 -39 74 -103 80 -187 2
-37 7 -76 11 -88 5 -17 -2 -28 -34 -53 -47 -37 -49 -50 -19 -98 l21 -35 -22 7
c-21 6 -23 5 -17 -22 6 -26 4 -30 -16 -28 -18 1 -27 13 -42 53 -10 29 -22 52
-26 52 -5 0 -11 -17 -15 -38 -10 -60 -50 -185 -61 -189 -5 -2 -10 23 -12 55
-1 31 -5 65 -8 75 -10 32 -23 17 -26 -30 l-3 -48 -13 30 c-16 36 -24 26 -42
-55 -7 -30 -26 -95 -42 -143 -17 -49 -26 -92 -22 -96 5 -4 56 -26 112 -49 156
-62 191 -93 261 -232 32 -63 66 -136 76 -162 l18 -48 93 0 c51 0 124 7 162 15
62 13 80 13 147 0 149 -29 306 -10 424 50 l51 25 0 1090 0 1090 -2400 0 -2400
0 0 -930z"/>
<path d="M2863 1903 c-5 -65 -8 -120 -6 -122 4 -6 124 38 151 55 36 23 27 49
-28 84 -28 18 -63 48 -79 67 l-28 34 -10 -118z"/>
<path d="M3377 1983 c-12 -11 -8 -23 8 -23 8 0 15 7 15 15 0 16 -12 20 -23 8z"/>
<path d="M727 1879 c-94 -59 -97 -62 -81 -80 12 -13 15 -29 11 -54 -3 -19 -3
-35 1 -35 26 0 63 -58 91 -143 l31 -93 -86 -339 c-47 -187 -92 -348 -99 -358
-13 -18 -14 -18 -26 4 -11 22 -129 521 -151 645 -11 58 -10 65 21 145 19 48
46 96 62 111 30 29 35 43 20 52 -5 3 -55 -16 -112 -43 -100 -47 -238 -99 -325
-121 -35 -9 -42 -15 -48 -42 -5 -27 -2 -35 24 -57 20 -18 41 -55 64 -117 l34
-90 -79 -305 -79 -304 0 -327 0 -328 1213 0 1214 0 6 178 c4 120 13 208 26
268 11 49 25 143 31 209 11 104 10 128 -4 181 -21 80 -20 103 4 159 21 48 19
65 -5 65 -8 0 -18 12 -21 26 -5 20 -1 31 20 50 14 14 26 27 26 31 0 3 -28 2
-62 -1 -35 -3 -118 -7 -185 -8 -68 -1 -123 -4 -123 -7 0 -3 11 -14 25 -26 27
-21 85 -162 85 -205 0 -37 -149 -653 -160 -664 -7 -7 -14 -6 -21 1 -7 7 -45
159 -86 339 l-74 326 32 89 c22 61 41 97 61 114 25 21 27 27 17 48 -9 21 -25
27 -107 45 -54 12 -122 24 -154 27 l-56 6 23 -58 c56 -138 57 -117 -24 -460
-40 -169 -81 -326 -91 -348 l-17 -40 -12 25 c-7 14 -45 171 -85 349 l-74 324
34 91 c23 62 43 99 63 116 22 18 31 35 33 62 2 33 -5 46 -57 108 -74 90 -159
168 -224 208 -50 31 -70 27 -32 -6 10 -10 32 -58 50 -107 l31 -91 -86 -339
c-47 -187 -90 -346 -96 -353 -7 -8 -15 -9 -20 -4 -6 6 -45 164 -87 352 l-78
342 34 92 c23 62 43 99 64 116 16 14 29 34 29 45 0 11 4 26 9 34 7 11 -3 24
-37 50 -26 19 -84 68 -128 108 -45 40 -85 73 -91 73 -5 0 -53 -27 -106 -61z"/>
<path d="M2402 1880 c0 -14 2 -19 5 -12 2 6 2 18 0 25 -3 6 -5 1 -5 -13z"/>
<path d="M2301 1714 c0 -11 3 -14 6 -6 3 7 2 16 -1 19 -3 4 -6 -2 -5 -13z"/>
<path d="M4632 1254 c-110 -17 -137 -27 -151 -53 -9 -16 -6 -23 14 -39 15 -12
42 -59 65 -115 l40 -95 -75 -308 c-78 -318 -91 -364 -106 -364 -5 0 -14 10
-19 23 -14 32 -160 635 -160 661 0 37 56 159 89 193 17 18 31 34 31 35 0 2
-97 4 -215 4 -211 1 -215 1 -215 -19 0 -11 9 -30 19 -41 11 -12 35 -62 54
-112 l35 -90 -60 -250 c-48 -203 -58 -259 -54 -304 3 -30 9 -128 12 -218 l6
-162 429 0 429 0 0 337 0 337 -50 199 -51 198 36 95 c19 52 35 97 35 99 0 7
-36 4 -138 -11z"/>
<path d="M2687 183 c-5 -26 -4 -26 9 -8 16 22 18 35 5 35 -5 0 -11 -12 -14
-27z"/>
</g>
</svg>
