<?xml version="1.0" standalone="no"?>
<!DOCTYPE svg PUBLIC "-//W3C//DTD SVG 20010904//EN"
 "http://www.w3.org/TR/2001/REC-SVG-20010904/DTD/svg10.dtd">
<svg version="1.0" xmlns="http://www.w3.org/2000/svg"
 width="480.000000pt" height="360.000000pt" viewBox="0 0 480.000000 360.000000"
 preserveAspectRatio="xMidYMid meet">
<metadata>
Created by potrace 1.16, written by Peter Selinger 2001-2019
</metadata>
<rect width="1" height="360" fill="#000000"/>
<rect x="479" width="1" height="360" fill="#000000"/>
<rect width="480" height="1" fill="#000000"/>
<rect y="359" width="480" height="1" fill="#000000"/>
<g transform="translate(0.000000,360.000000) scale(0.100000,-0.100000)"
fill="#000000" stroke="none">
<path d="M2663 3409 c-116 -100 -119 -106 -94 -182 11 -34 21 -69 23 -78 2 -9
-26 -41 -69 -78 -88 -77 -117 -118 -149 -211 -42 -120 -48 -179 -27 -287 14
-77 19 -90 26 -71 9 22 10 21 19 -12 19 -68 40 -120 49 -120 5 0 9 6 9 13 0 6
9 1 19 -12 10 -13 23 -21 29 -17 6 3 13 2 17 -3 3 -6 11 -8 18 -5 7 2 27 -10
45 -29 l32 -33 -24 -33 c-31 -41 -25 -58 26 -73 29 -9 43 -19 53 -44 7 -18 22
-35 33 -39 13 -3 27 -24 38 -53 22 -58 23 -60 33 -43 12 19 28 6 36 -29 7 -31
25 -42 25 -14 0 9 6 14 13 11 6 -2 23 4 36 14 29 23 41 24 41 5 0 -30 20 -26
28 6 l9 33 10 -25 c28 -68 30 -63 -74 -164 -71 -70 -105 -96 -124 -96 -33 0
-77 -46 -90 -94 -15 -55 -41 -76 -91 -76 -24 0 -123 -9 -221 -21 l-178 -21
-22 20 c-50 46 -161 68 -186 38 -7 -8 -28 -17 -47 -21 -28 -5 -39 -13 -49 -39
-10 -22 -28 -40 -55 -54 l-41 -20 -23 37 c-12 20 -63 109 -111 199 -75 136
-93 162 -112 162 -13 0 -31 8 -41 18 -9 9 -31 17 -49 17 -25 0 -40 -10 -73
-47 l-42 -48 101 -182 c69 -123 98 -185 91 -192 -16 -16 -11 -57 14 -117 16
-39 20 -62 14 -73 -11 -20 -4 -55 30 -156 31 -92 32 -94 84 -109 24 -7 70 -30
103 -50 33 -21 106 -61 163 -90 56 -29 111 -65 122 -79 11 -15 35 -47 53 -72
20 -26 99 -95 195 -168 118 -89 162 -129 162 -144 0 -11 -15 -38 -34 -59 -50
-54 -56 -110 -22 -185 14 -31 26 -69 26 -85 l0 -29 630 0 630 0 0 33 c0 52
-102 187 -141 187 -20 0 -21 4 -50 190 -15 91 -22 191 -24 308 -2 157 -5 177
-23 200 -13 18 -28 26 -46 25 -23 -2 -25 1 -19 30 3 18 7 33 8 35 2 2 18 -6
36 -17 27 -17 51 -21 116 -21 76 0 108 10 83 25 -5 3 -10 11 -10 17 0 7 21 9
65 5 66 -6 82 2 53 31 -9 9 -3 12 27 12 22 0 56 3 76 6 33 6 37 10 48 55 13
51 36 83 52 74 5 -4 9 -32 9 -63 l0 -57 21 25 20 25 -5 -40 c-3 -22 -12 -80
-21 -129 -9 -49 -15 -96 -13 -104 2 -9 23 11 53 51 28 37 53 67 57 67 3 0 0
-20 -7 -43 -14 -46 -35 -201 -35 -252 l0 -30 20 25 20 25 0 -107 c0 -59 4
-109 9 -113 6 -3 24 15 41 40 18 26 34 44 37 41 3 -2 0 -28 -5 -58 -19 -97
-24 -148 -13 -148 5 0 35 24 67 53 35 31 55 44 50 32 -15 -40 -39 -165 -33
-172 4 -3 16 5 27 18 l20 24 -6 -55 -5 -55 22 29 c21 26 23 27 29 10 5 -14 13
-2 29 46 12 36 33 83 47 105 15 22 23 32 20 22 -27 -83 -81 -375 -71 -386 3
-2 12 4 20 15 17 22 20 12 5 -17 -10 -18 -5 -19 184 -19 l194 0 6 48 c3 26 9
74 12 107 6 51 8 56 16 35 6 -16 5 -48 -1 -86 -16 -89 -14 -104 9 -104 20 0
20 7 20 838 l0 837 -73 37 c-256 132 -491 339 -640 566 -23 34 -44 62 -48 62
-3 0 -11 -18 -18 -41 -7 -22 -27 -57 -45 -77 -18 -20 -45 -56 -59 -79 -23 -37
-115 -149 -170 -208 -11 -11 -31 -35 -45 -54 -29 -37 -189 -161 -208 -161 -31
0 -36 29 -29 150 4 66 11 120 17 120 5 0 6 6 3 13 -4 6 1 3 9 -7 9 -11 16 -30
16 -42 0 -13 5 -26 10 -29 6 -3 10 1 10 9 0 19 38 16 50 -3 4 -8 11 35 15 98
4 61 10 111 14 111 19 0 51 -49 51 -78 0 -86 35 12 55 151 6 49 13 55 33 35 7
-7 12 -8 12 -2 0 6 -9 19 -20 29 -19 17 -29 52 -12 41 5 -3 -16 56 -46 130
-38 96 -60 170 -77 261 -40 215 -69 270 -212 400 -112 103 -167 137 -269 169
l-83 25 -16 55 c-13 47 -21 57 -56 75 -42 21 -154 49 -199 49 -17 0 -52 -24
-107 -71z m-50 -1061 c4 -12 4 -24 1 -27 -6 -7 -24 20 -24 37 0 21 17 13 23
-10z m795 -527 l-3 -46 -28 59 c-33 72 -29 102 9 61 21 -22 24 -35 22 -74z
m-813 -301 c-16 -31 -20 -116 -6 -139 6 -9 -5 -42 -30 -96 -41 -87 -69 -186
-69 -247 0 -21 -3 -38 -7 -38 -5 0 -22 20 -40 43 -18 23 -56 67 -84 97 -45 48
-54 65 -70 131 -10 41 -27 99 -39 129 -11 29 -17 56 -13 60 4 4 84 24 177 44
94 20 172 39 175 41 15 16 19 1 6 -25z m-605 -281 c76 -100 90 -122 90 -132 0
-14 -54 38 -132 126 -59 66 -60 67 -32 66 23 0 38 -12 74 -60z m1888 -126 c5
-18 -10 -16 -34 2 -18 15 -18 15 5 13 14 -2 26 -9 29 -15z m-463 -467 c17
-150 19 -255 6 -240 -5 5 -24 47 -42 94 l-32 85 11 108 c19 177 33 165 57 -47z"/>
</g>
</svg>
