<?xml version="1.0" standalone="no"?>
<!DOCTYPE svg PUBLIC "-//W3C//DTD SVG 20010904//EN"
 "http://www.w3.org/TR/2001/REC-SVG-20010904/DTD/svg10.dtd">
<svg version="1.0" xmlns="http://www.w3.org/2000/svg"
 width="480.000000pt" height="360.000000pt" viewBox="0 0 480.000000 360.000000"
 preserveAspectRatio="xMidYMid meet">
<metadata>
Created by potrace 1.16, written by Peter Selinger 2001-2019
</metadata>
<rect width="1" height="360" fill="#000000"/>
<rect x="479" width="1" height="360" fill="#000000"/>
<rect width="480" height="1" fill="#000000"/>
<rect y="359" width="480" height="1" fill="#000000"/>
<g transform="translate(0.000000,360.000000) scale(0.100000,-0.100000)"
fill="#000000" stroke="none">
<path d="M0 1800 l0 -1800 1155 0 c1148 0 1155 0 1155 20 0 11 -4 21 -10 21
-5 1 -14 3 -20 4 -5 1 -23 3 -39 4 -19 1 -30 7 -34 20 -3 11 -20 26 -39 34
-18 8 -65 45 -105 83 -84 82 -93 106 -93 250 0 76 -4 105 -14 114 -8 6 -12 18
-9 27 3 8 0 19 -7 23 -13 8 -6 27 110 295 26 61 51 133 54 160 l7 50 -20 -25
c-28 -35 -26 -20 15 95 20 55 44 125 54 155 21 65 74 349 67 357 -17 16 -164
-225 -192 -314 -9 -29 -21 -53 -26 -53 -5 0 -14 -10 -19 -22 l-9 -23 0 25 c-1
31 -11 20 -50 -50 -26 -47 -31 -51 -31 -28 0 53 31 173 57 218 27 47 126 184
152 210 36 37 121 182 121 207 0 28 -16 40 -76 57 -19 6 -21 14 -22 74 0 89 3
99 40 106 17 3 38 15 46 27 8 11 22 19 34 17 16 -2 23 4 30 27 62 213 94 265
205 339 23 15 44 34 46 41 12 28 19 291 9 315 -7 19 -24 30 -67 44 -72 22 -79
40 -32 83 33 30 43 33 95 33 65 0 108 -22 146 -73 27 -37 32 -130 12 -238 -24
-129 -26 -124 47 -142 34 -9 72 -19 83 -22 19 -6 28 6 75 96 70 134 168 238
244 260 72 20 132 17 157 -9 17 -17 19 -27 14 -66 -8 -50 -46 -91 -94 -102
-63 -15 -112 -55 -187 -155 -41 -56 -75 -108 -75 -116 0 -8 19 -48 41 -89 36
-65 41 -81 37 -122 -5 -50 -61 -199 -109 -292 -16 -31 -32 -83 -38 -120 -8
-63 -8 -66 20 -98 36 -41 69 -104 69 -133 0 -13 -18 -39 -45 -63 -29 -27 -45
-50 -45 -66 0 -47 64 -299 128 -500 17 -52 36 -115 42 -140 18 -64 32 -113 38
-130 3 -8 4 -21 3 -29 -2 -8 2 -24 7 -35 22 -44 105 -317 98 -323 -3 -3 -1
-12 5 -20 8 -9 8 -17 1 -26 -9 -10 -6 -31 11 -81 l22 -67 -21 -17 c-35 -30
-45 -49 -38 -76 l6 -26 804 0 804 0 0 1800 0 1800 -2400 0 -2400 0 0 -1800z"/>
<path d="M2170 435 c-1 -5 -3 -53 -3 -106 -2 -88 0 -96 15 -88 25 13 31 11 25
-10 -4 -16 -1 -18 17 -12 30 11 31 43 3 104 -13 28 -31 68 -40 87 -9 19 -16
31 -17 25z"/>
</g>
</svg>
