<?xml version="1.0" standalone="no"?>
<!DOCTYPE svg PUBLIC "-//W3C//DTD SVG 20010904//EN"
 "http://www.w3.org/TR/2001/REC-SVG-20010904/DTD/svg10.dtd">
<svg version="1.0" xmlns="http://www.w3.org/2000/svg"
 width="480.000000pt" height="360.000000pt" viewBox="0 0 480.000000 360.000000"
 preserveAspectRatio="xMidYMid meet">
<metadata>
Created by potrace 1.16, written by Peter Selinger 2001-2019
</metadata>
<rect width="1" height="360" fill="#000000"/>
<rect x="479" width="1" height="360" fill="#000000"/>
<rect width="480" height="1" fill="#000000"/>
<rect y="359" width="480" height="1" fill="#000000"/>
<g transform="translate(0.000000,360.000000) scale(0.100000,-0.100000)"
fill="#000000" stroke="none">
<path d="M0 3249 l0 -351 70 59 c38 32 101 82 139 110 38 29 111 99 161 155
125 140 254 274 320 331 l55 47 -373 0 -372 0 0 -351z"/>
<path d="M3187 3470 c147 -145 208 -224 315 -409 144 -249 237 -585 238 -858
0 -56 5 -124 11 -152 11 -54 25 -63 86 -50 41 9 89 -15 109 -54 12 -22 15 -53
12 -121 -6 -161 -62 -243 -331 -475 -63 -55 -116 -109 -127 -132 -11 -21 -29
-43 -40 -49 -11 -6 -20 -16 -20 -22 0 -7 -11 -23 -24 -37 -14 -15 -31 -39 -40
-55 -21 -41 -204 -240 -288 -314 -69 -60 -305 -210 -398 -253 -83 -38 -279
-107 -381 -134 -151 -40 -461 -51 -679 -24 -79 9 -364 87 -420 114 -54 26
-153 55 -170 50 -19 -6 -43 -58 -54 -115 -5 -31 -2 -40 32 -75 21 -22 68 -61
106 -88 81 -57 83 -75 11 -94 -113 -29 -202 -3 -294 85 -54 53 -60 64 -89 157
-22 69 -35 136 -41 217 -6 64 -17 132 -25 151 -8 19 -63 87 -122 151 -59 65
-123 138 -141 164 -18 26 -46 66 -63 90 -16 23 -30 47 -30 52 0 4 -10 21 -23
37 -13 15 -43 69 -66 118 -107 224 -158 414 -186 700 -9 88 -24 198 -34 245
-19 85 -19 81 -20 -1102 l-1 -1188 2400 0 2400 0 0 1800 0 1800 -872 0 -873 0
132 -130z"/>
</g>
</svg>
