<?xml version="1.0" standalone="no"?>
<!DOCTYPE svg PUBLIC "-//W3C//DTD SVG 20010904//EN"
 "http://www.w3.org/TR/2001/REC-SVG-20010904/DTD/svg10.dtd">
<svg version="1.0" xmlns="http://www.w3.org/2000/svg"
 width="480.000000pt" height="360.000000pt" viewBox="0 0 480.000000 360.000000"
 preserveAspectRatio="xMidYMid meet">
<metadata>
Created by potrace 1.16, written by Peter Selinger 2001-2019
</metadata>
<rect width="1" height="360" fill="#000000"/>
<rect x="479" width="1" height="360" fill="#000000"/>
<rect width="480" height="1" fill="#000000"/>
<rect y="359" width="480" height="1" fill="#000000"/>
<g transform="translate(0.000000,360.000000) scale(0.100000,-0.100000)"
fill="#000000" stroke="none">
<path d="M4047 3593 c-4 -3 -7 -12 -7 -20 0 -20 45 -16 71 7 l24 19 -41 1
c-22 0 -44 -3 -47 -7z"/>
<path d="M4143 3573 c-28 -39 -53 -89 -53 -108 0 -32 35 -13 109 60 l76 75
-56 0 c-49 0 -58 -3 -76 -27z"/>
<path d="M4288 3583 c-33 -39 -90 -142 -83 -152 14 -23 39 -8 127 79 l90 90
-59 0 c-45 0 -64 -4 -75 -17z"/>
<path d="M4428 3575 c-10 -13 -18 -26 -18 -29 0 -3 -11 -22 -25 -42 -29 -43
-31 -59 -9 -68 10 -4 41 21 97 79 l82 85 -55 0 c-46 -1 -58 -4 -72 -25z"/>
<path d="M4618 3593 c7 -3 16 -2 19 1 4 3 -2 6 -13 5 -11 0 -14 -3 -6 -6z"/>
<path d="M4778 3593 c7 -3 16 -2 19 1 4 3 -2 6 -13 5 -11 0 -14 -3 -6 -6z"/>
<path d="M2276 3218 c-9 -13 -16 -43 -16 -70 0 -26 -5 -50 -11 -53 -15 -10
-68 14 -122 57 -54 42 -73 48 -57 18 6 -11 8 -20 5 -20 -3 0 12 -24 35 -53 22
-30 40 -59 40 -64 0 -6 -20 -23 -44 -37 -109 -64 -137 -269 -59 -425 40 -77
261 -299 285 -285 5 3 28 -12 51 -33 23 -21 64 -56 91 -78 71 -57 86 -73 86
-89 0 -8 12 -21 27 -28 21 -10 30 -28 48 -88 12 -41 29 -88 37 -105 22 -41
109 -123 253 -241 172 -139 279 -239 370 -343 43 -50 88 -94 99 -97 12 -4 31
-16 44 -27 l22 -21 44 22 c24 12 58 22 76 22 18 0 54 12 80 26 43 23 53 25 81
15 58 -20 87 -14 124 27 19 20 35 44 35 53 0 20 -25 42 -67 59 -18 7 -31 16
-28 20 2 4 26 15 52 25 45 17 112 77 113 101 0 6 -6 17 -14 23 -12 10 -12 20
1 69 11 43 26 69 63 108 32 33 52 66 60 95 6 24 23 69 37 99 21 44 26 73 28
145 l2 90 -46 45 c-25 24 -77 60 -116 80 l-70 35 -170 -3 c-93 -2 -206 -7
-250 -13 -44 -5 -148 -9 -231 -9 -126 0 -153 3 -158 15 -3 8 -12 15 -21 15
-27 0 -16 17 18 27 l32 10 -40 17 c-22 10 -34 20 -27 23 18 7 15 23 -5 23 -10
1 2 11 27 22 l45 22 -35 6 c-42 6 -31 15 30 24 25 4 52 11 60 17 11 7 -18 9
-100 6 -64 -3 -134 -1 -157 5 l-43 10 24 19 c18 14 42 19 93 20 77 1 115 9
113 24 -1 6 20 20 47 32 l48 22 -58 0 c-51 1 -59 4 -69 26 -6 14 -23 28 -37
31 -46 10 -51 13 -45 29 10 24 -6 18 -47 -20 -21 -19 -49 -37 -62 -40 -33 -9
-217 39 -291 75 -34 16 -77 43 -98 59 -33 28 -36 34 -31 71 4 25 1 46 -7 55
-11 13 -10 18 2 28 29 23 28 44 -4 73 -16 16 -43 56 -59 89 -27 55 -93 135
-110 135 -5 0 -15 -10 -23 -22z"/>
<path d="M4746 2921 c-27 -64 -93 -206 -147 -316 -91 -186 -144 -283 -294
-540 -86 -148 -185 -349 -192 -389 -5 -32 -3 -36 22 -42 24 -6 33 -2 57 24 47
54 46 43 -11 -80 -56 -122 -62 -142 -76 -243 -21 -147 -24 -139 50 -149 17 -2
66 -11 110 -19 44 -9 132 -25 195 -37 63 -12 145 -27 182 -34 l68 -14 17 37
c11 22 26 37 40 39 16 2 24 12 28 35 3 18 4 440 3 938 l-3 906 -49 -116z"/>
</g>
</svg>
