<?xml version="1.0" standalone="no"?>
<!DOCTYPE svg PUBLIC "-//W3C//DTD SVG 20010904//EN"
 "http://www.w3.org/TR/2001/REC-SVG-20010904/DTD/svg10.dtd">
<svg version="1.0" xmlns="http://www.w3.org/2000/svg"
 width="480.000000pt" height="360.000000pt" viewBox="0 0 480.000000 360.000000"
 preserveAspectRatio="xMidYMid meet">
<metadata>
Created by potrace 1.16, written by Peter Selinger 2001-2019
</metadata>
<rect width="1" height="360" fill="#000000"/>
<rect x="479" width="1" height="360" fill="#000000"/>
<rect width="480" height="1" fill="#000000"/>
<rect y="359" width="480" height="1" fill="#000000"/>
<g transform="translate(0.000000,360.000000) scale(0.100000,-0.100000)"
fill="#000000" stroke="none">
<path d="M0 2345 c0 -1236 0 -1255 19 -1255 11 0 97 9 192 20 247 29 556 57
763 70 98 6 188 15 201 20 15 6 29 25 40 57 35 95 86 193 150 287 36 53 65
101 65 108 0 7 -32 30 -70 51 -39 20 -70 42 -70 47 0 6 10 27 23 48 13 20 31
54 41 75 19 41 96 146 160 218 265 296 332 400 575 888 75 152 148 296 163
321 14 25 31 67 37 93 9 38 41 196 41 204 0 1 -524 2 -1165 3 l-1165 1 0
-1256z"/>
<path d="M3117 3583 c-3 -10 -26 -112 -52 -228 -77 -346 -100 -415 -169 -510
-12 -16 -55 -86 -95 -155 -41 -69 -95 -161 -121 -205 -73 -124 -188 -358 -236
-482 -24 -61 -63 -185 -88 -275 -25 -90 -57 -193 -71 -230 -23 -63 -111 -248
-118 -248 -2 0 -30 14 -62 30 -32 17 -62 30 -67 30 -4 0 -8 -17 -8 -37 l0 -38
97 4 c144 5 724 -17 903 -34 245 -24 416 -44 433 -51 24 -9 74 67 98 150 42
140 99 372 99 402 0 66 -42 160 -82 180 -41 21 -77 17 -143 -18 -73 -38 -89
-55 -128 -136 -16 -35 -41 -72 -55 -82 -28 -22 -91 -27 -110 -8 -33 33 3 130
104 283 95 143 374 470 441 516 23 16 40 35 37 42 -2 6 -34 29 -70 50 -76 45
-76 39 1 167 56 92 87 135 261 361 142 185 262 365 343 517 l12 22 -575 0
c-539 0 -575 -1 -579 -17z"/>
<path d="M4761 2415 c-31 -96 -61 -160 -129 -275 -46 -79 -60 -82 -177 -46
-46 14 -87 26 -93 26 -5 0 -12 -84 -15 -207 -10 -365 -23 -404 -216 -653 -58
-75 -86 -98 -183 -154 -28 -17 -30 -20 -13 -23 17 -4 136 -30 280 -63 22 -5
114 -27 205 -49 268 -65 340 -81 361 -81 19 0 19 18 19 810 0 446 -2 810 -4
810 -3 0 -18 -43 -35 -95z"/>
<path d="M143 713 l-143 -4 0 -354 0 -355 2400 0 2400 0 0 189 0 189 -107 26
c-185 44 -469 81 -843 111 -190 15 -248 21 -455 51 -273 38 -534 61 -1205 104
-85 6 -165 12 -176 15 -28 6 -40 -9 -62 -81 -14 -46 -23 -61 -43 -68 -58 -20
-129 27 -129 86 0 57 -10 79 -34 76 -42 -6 -53 -81 -46 -322 2 -78 0 -91 -18
-109 -19 -18 -25 -19 -60 -9 -21 6 -48 22 -60 34 -22 25 -22 30 1 378 2 29 -1
35 -18 35 -31 0 -48 -109 -40 -265 9 -169 8 -207 -1 -260 -8 -41 -12 -45 -40
-48 -40 -4 -85 33 -112 91 -18 39 -19 48 -7 147 8 58 14 157 14 221 l1 117
-25 4 c-14 3 -31 0 -39 -6 -27 -22 -77 -154 -106 -284 -43 -189 -93 -292 -141
-292 -34 0 -49 39 -49 125 0 81 11 131 69 322 17 56 31 109 31 118 0 24 -25
28 -59 11 -37 -20 -70 -20 -95 -1 -17 13 -72 15 -340 13 -177 -1 -385 -4 -463
-5z"/>
</g>
</svg>
