<?xml version="1.0" standalone="no"?>
<!DOCTYPE svg PUBLIC "-//W3C//DTD SVG 20010904//EN"
 "http://www.w3.org/TR/2001/REC-SVG-20010904/DTD/svg10.dtd">
<svg version="1.0" xmlns="http://www.w3.org/2000/svg"
 width="480.000000pt" height="360.000000pt" viewBox="0 0 480.000000 360.000000"
 preserveAspectRatio="xMidYMid meet">
<metadata>
Created by potrace 1.16, written by Peter Selinger 2001-2019
</metadata>
<rect width="1" height="360" fill="#000000"/>
<rect x="479" width="1" height="360" fill="#000000"/>
<rect width="480" height="1" fill="#000000"/>
<rect y="359" width="480" height="1" fill="#000000"/>
<g transform="translate(0.000000,360.000000) scale(0.100000,-0.100000)"
fill="#000000" stroke="none">
<path d="M0 2724 c0 -541 3 -873 9 -870 17 11 75 202 87 286 3 25 8 54 9 65 2
11 4 36 5 55 2 54 15 16 45 -135 14 -71 30 -141 35 -155 6 -14 12 -35 15 -48
9 -46 99 -261 151 -359 148 -278 427 -643 1072 -1405 l133 -158 1619 0 1620 0
0 1505 0 1505 -27 0 c-16 0 -80 13 -143 29 -221 56 -380 75 -380 46 0 -7 -8
-19 -17 -24 -16 -10 -15 -13 11 -33 16 -13 50 -35 77 -50 35 -19 45 -29 36
-36 -13 -10 -193 -92 -203 -92 -4 0 -38 -21 -77 -47 -59 -39 -80 -48 -129 -51
-62 -5 -70 -12 -37 -33 20 -14 16 -18 -78 -81 -115 -78 -177 -133 -168 -148 4
-6 -27 -45 -69 -88 -51 -51 -72 -78 -64 -84 9 -5 5 -15 -13 -35 -36 -38 -63
-83 -51 -83 5 0 31 12 58 26 47 26 46 23 -41 -59 -49 -47 -85 -86 -79 -87 6 0
37 9 69 20 78 27 89 26 73 -2 -7 -13 -11 -29 -10 -35 2 -7 -2 -23 -9 -35 -10
-19 -7 -18 21 7 36 33 36 31 0 -39 -24 -48 -25 -48 -66 -43 -84 9 -170 60
-265 157 -57 58 -96 90 -110 90 -12 0 -38 -17 -59 -38 -30 -29 -40 -50 -49
-97 -7 -33 -20 -85 -29 -115 -15 -47 -23 -58 -59 -78 -23 -13 -68 -27 -100
-32 -85 -14 -111 -44 -134 -156 -20 -91 -45 -135 -102 -178 -28 -21 -57 -23
-146 -11 -61 9 -82 -5 -73 -50 3 -20 -11 -41 -85 -117 -162 -168 -166 -200
-55 -433 73 -155 126 -297 138 -375 7 -45 7 -45 -91 85 -92 122 -163 214 -175
225 -3 3 -21 25 -40 50 -19 25 -70 88 -114 140 -172 203 -226 260 -522 555
-149 149 -279 282 -288 297 -14 21 -19 67 -27 210 -5 101 -20 254 -34 343 -15
88 -30 185 -35 215 -5 30 -22 123 -39 205 -16 83 -41 211 -55 285 -15 74 -36
175 -46 223 -25 109 -26 175 -5 184 9 3 40 -1 70 -10 63 -18 81 -10 91 41 l7
32 -526 0 -526 0 -1 -876z m3725 -606 c-44 -73 -132 -168 -154 -168 -14 0 94
162 139 209 55 57 63 37 15 -41z"/>
<path d="M1360 3594 c0 -4 25 -46 57 -93 77 -118 244 -282 348 -343 89 -51
199 -99 351 -151 195 -67 193 -65 235 -277 28 -146 35 -169 61 -197 17 -17 30
-42 30 -55 0 -12 -1 -40 -2 -62 -3 -68 50 -88 80 -30 11 20 12 29 1 45 -12 21
-7 74 9 84 5 3 44 10 87 15 108 14 139 26 151 58 6 15 14 99 17 187 4 88 12
169 17 180 17 31 49 54 160 113 302 159 460 295 579 497 l21 35 -1101 0 c-606
0 -1101 -3 -1101 -6z"/>
</g>
</svg>
