<?xml version="1.0" standalone="no"?>
<!DOCTYPE svg PUBLIC "-//W3C//DTD SVG 20010904//EN"
 "http://www.w3.org/TR/2001/REC-SVG-20010904/DTD/svg10.dtd">
<svg version="1.0" xmlns="http://www.w3.org/2000/svg"
 width="480.000000pt" height="360.000000pt" viewBox="0 0 480.000000 360.000000"
 preserveAspectRatio="xMidYMid meet">
<metadata>
Created by potrace 1.16, written by Peter Selinger 2001-2019
</metadata>
<rect width="1" height="360" fill="#000000"/>
<rect x="479" width="1" height="360" fill="#000000"/>
<rect width="480" height="1" fill="#000000"/>
<rect y="359" width="480" height="1" fill="#000000"/>
<g transform="translate(0.000000,360.000000) scale(0.100000,-0.100000)"
fill="#000000" stroke="none">
<path d="M0 1800 l0 -1800 2400 0 2400 0 0 1800 0 1800 -2400 0 -2400 0 0
-1800z m2342 948 c-3 -38 -3 -38 36 -38 28 0 45 7 61 24 40 43 87 59 148 52
63 -7 94 -22 143 -65 19 -18 54 -43 78 -57 23 -14 42 -30 42 -35 0 -18 -66 -8
-105 16 -40 24 -85 33 -85 16 0 -5 -3 -23 -6 -40 -6 -30 -5 -32 52 -57 77 -33
126 -79 118 -110 -5 -20 1 -26 40 -45 52 -24 58 -30 62 -70 3 -20 -1 -29 -11
-29 -8 0 -15 -4 -15 -10 0 -5 -3 -9 -7 -9 -33 5 -36 -1 -30 -73 3 -39 10 -74
14 -79 9 -8 132 -35 206 -44 39 -5 47 -10 47 -27 0 -16 -5 -19 -22 -15 -13 3
-45 8 -73 11 l-50 6 40 -20 c50 -24 64 -24 199 0 60 11 135 20 166 20 79 0
170 -19 170 -36 0 -8 6 -14 14 -14 7 0 16 -13 20 -30 3 -18 12 -30 21 -30 8 0
15 -7 15 -16 0 -12 6 -15 26 -10 19 5 25 3 21 -6 -2 -8 11 -20 32 -30 28 -13
31 -17 14 -17 -23 -1 -25 -19 -6 -43 7 -8 8 -19 3 -28 -5 -8 -6 -18 -4 -22 3
-4 0 -8 -7 -8 -8 0 -8 -4 1 -15 10 -12 9 -15 -4 -15 -10 0 -15 -4 -11 -9 9
-15 -32 -23 -55 -11 -17 9 -24 6 -46 -15 -25 -25 -36 -29 -64 -25 -8 1 -5 -6
9 -18 l25 -19 -35 5 c-19 3 -45 13 -58 23 -40 32 -47 21 -10 -17 l34 -37 -53
41 c-61 48 -82 54 -253 80 -69 11 -147 29 -173 40 -44 20 -49 20 -72 6 -15
-10 -38 -15 -63 -12 l-38 3 1 -49 c1 -37 -3 -51 -17 -60 -15 -9 -22 -6 -42 16
l-23 27 -12 -30 c-13 -31 -44 -39 -54 -13 -3 9 -6 40 -6 69 l0 53 -57 7 c-32
3 -90 1 -130 -4 -92 -14 -123 -4 -123 38 0 16 -4 32 -8 35 -9 5 -227 22 -402
31 l-115 6 69 -26 c38 -14 71 -25 73 -25 2 0 3 -7 3 -16 0 -9 17 -23 40 -32
22 -9 40 -23 40 -30 0 -23 -29 -24 -62 -4 -56 34 -237 122 -252 122 -8 0 -28
-8 -44 -17 -25 -14 -32 -15 -46 -4 -9 7 -16 22 -16 32 0 14 -11 19 -57 24 -32
3 -69 11 -83 18 -25 13 -49 61 -37 73 4 4 57 2 119 -4 341 -34 522 -51 600
-56 l86 -6 27 32 c40 48 119 209 106 218 -6 3 -19 38 -29 76 -16 63 -20 70
-54 86 -39 19 -63 50 -55 72 3 7 21 23 41 34 36 21 36 22 56 2 11 -11 20 -33
20 -48 0 -16 10 -48 22 -73 18 -37 23 -41 27 -24 3 11 15 33 25 48 24 35 9 78
-25 74 -17 -1 -27 8 -43 39 -15 29 -40 53 -87 83 -81 52 -132 103 -127 127 2
11 11 18 21 18 20 -2 22 7 6 23 -25 25 -2 40 63 39 l63 -1 -3 -37z"/>
<path d="M2788 2293 c6 -2 18 -2 25 0 6 3 1 5 -13 5 -14 0 -19 -2 -12 -5z"/>
<path d="M2720 2275 c11 -13 10 -14 -5 -8 -15 5 -17 3 -12 -11 4 -10 7 -22 7
-27 0 -17 29 -9 40 12 9 17 8 23 -7 35 -24 18 -39 18 -23 -1z"/>
<path d="M2471 2149 c-17 -35 -43 -85 -58 -111 -22 -36 -25 -50 -16 -59 9 -9
19 -6 45 11 49 34 118 102 118 117 0 7 -13 34 -29 60 l-29 47 -31 -65z"/>
<path d="M2840 2069 c0 -11 87 -53 133 -63 51 -12 27 10 -45 42 -80 35 -88 37
-88 21z"/>
</g>
</svg>
