<?xml version="1.0" standalone="no"?>
<!DOCTYPE svg PUBLIC "-//W3C//DTD SVG 20010904//EN"
 "http://www.w3.org/TR/2001/REC-SVG-20010904/DTD/svg10.dtd">
<svg version="1.0" xmlns="http://www.w3.org/2000/svg"
 width="480.000000pt" height="360.000000pt" viewBox="0 0 480.000000 360.000000"
 preserveAspectRatio="xMidYMid meet">
<metadata>
Created by potrace 1.16, written by Peter Selinger 2001-2019
</metadata>
<rect width="1" height="360" fill="#000000"/>
<rect x="479" width="1" height="360" fill="#000000"/>
<rect width="480" height="1" fill="#000000"/>
<rect y="359" width="480" height="1" fill="#000000"/>
<g transform="translate(0.000000,360.000000) scale(0.100000,-0.100000)"
fill="#000000" stroke="none">
<path d="M0 3096 l0 -504 63 -11 c34 -6 126 -16 203 -22 175 -15 264 -5 455
50 286 83 529 90 953 29 124 -17 404 -76 448 -93 11 -4 18 0 21 12 3 10 11 41
18 68 17 69 40 98 99 126 43 20 52 30 61 62 5 20 8 41 5 46 -3 4 -25 11 -48
14 -76 11 -120 27 -114 42 3 8 -5 16 -20 19 -28 7 -29 16 -8 61 23 48 147 138
296 214 22 11 30 28 52 115 46 178 64 238 75 249 6 6 11 15 11 19 0 4 -578 8
-1285 8 l-1285 0 0 -504z"/>
<path d="M3689 3582 c20 -38 38 -44 123 -41 133 4 280 -8 326 -26 58 -24 84
-58 71 -93 -23 -61 -124 -137 -275 -209 -52 -24 -94 -50 -94 -57 0 -19 75
-199 108 -261 24 -43 26 -51 11 -42 -11 7 -19 15 -19 19 0 5 -5 8 -10 8 -7 0
-7 -6 0 -20 11 -20 -3 -30 -15 -10 -15 23 -35 9 -35 -24 0 -50 -35 -127 -55
-120 -8 3 -15 10 -15 15 0 18 -17 9 -30 -16 -7 -13 -17 -22 -21 -19 -5 3 -33
-7 -64 -22 -44 -22 -55 -32 -55 -51 0 -28 15 -59 42 -89 26 -29 14 -51 -40
-77 -33 -16 -48 -30 -55 -52 -5 -16 -16 -37 -24 -46 -7 -9 -18 -45 -24 -80
-17 -112 -55 -211 -100 -258 -25 -27 -35 -17 101 -98 52 -31 168 -102 257
-160 146 -94 164 -102 188 -93 42 16 60 12 111 -24 27 -19 72 -50 99 -69 28
-19 61 -46 74 -61 14 -14 32 -26 40 -26 9 0 37 -17 63 -38 26 -20 62 -46 80
-57 30 -19 33 -25 33 -72 l0 -51 110 -95 c61 -52 128 -113 150 -136 21 -22 43
-41 47 -41 4 0 8 587 8 1305 l0 1305 -560 0 c-541 0 -560 -1 -551 -18z"/>
<path d="M979 2380 c-94 -11 -201 -43 -310 -91 -207 -91 -307 -113 -518 -110
-99 1 -137 -2 -143 -11 -4 -7 -8 -498 -8 -1090 l0 -1078 1264 0 1265 0 19 53
c41 109 45 136 38 292 -18 453 -21 557 -21 848 0 174 -3 317 -7 317 -13 0 -9
28 4 32 9 3 9 6 1 11 -8 5 -18 -12 -29 -48 -10 -30 -22 -54 -28 -52 -26 9 -29
37 -13 118 15 78 98 395 111 429 5 13 -6 15 -66 15 -62 0 -81 5 -128 30 -30
17 -83 57 -118 89 -62 58 -66 60 -210 103 -411 123 -820 176 -1103 143z"/>
<path d="M3600 1485 c0 -8 20 -60 45 -116 44 -98 52 -126 25 -94 -26 31 -27
12 -4 -77 13 -51 24 -110 24 -130 0 -53 14 -54 45 -3 14 25 40 62 57 81 30 34
31 36 20 87 -6 29 -14 75 -17 103 -6 46 -11 55 -48 82 -45 32 -101 64 -129 75
-12 4 -18 1 -18 -8z"/>
<path d="M4334 956 c-3 -8 13 -41 35 -73 51 -75 64 -109 51 -133 -5 -10 -40
-45 -76 -79 l-67 -61 134 0 c129 0 134 1 144 23 6 12 22 41 35 65 l25 44 -60
56 c-33 32 -84 77 -114 102 -29 25 -59 51 -66 58 -18 16 -34 15 -41 -2z"/>
<path d="M3725 168 c-48 -51 -101 -110 -117 -130 l-30 -38 504 1 c372 0 497 3
478 11 -14 6 -63 29 -110 50 -193 90 -277 121 -427 158 -86 22 -169 40 -184
40 -21 0 -46 -20 -114 -92z"/>
<path d="M4778 240 c-9 -6 -19 -29 -23 -53 -4 -23 -18 -73 -31 -112 -13 -38
-24 -71 -24 -72 0 -2 23 -3 50 -3 l50 0 0 125 c0 69 -1 125 -2 125 -2 0 -10
-5 -20 -10z"/>
</g>
</svg>
