<?xml version="1.0" standalone="no"?>
<!DOCTYPE svg PUBLIC "-//W3C//DTD SVG 20010904//EN"
 "http://www.w3.org/TR/2001/REC-SVG-20010904/DTD/svg10.dtd">
<svg version="1.0" xmlns="http://www.w3.org/2000/svg"
 width="480.000000pt" height="360.000000pt" viewBox="0 0 480.000000 360.000000"
 preserveAspectRatio="xMidYMid meet">
<metadata>
Created by potrace 1.16, written by Peter Selinger 2001-2019
</metadata>
<rect width="1" height="360" fill="#000000"/>
<rect x="479" width="1" height="360" fill="#000000"/>
<rect width="480" height="1" fill="#000000"/>
<rect y="359" width="480" height="1" fill="#000000"/>
<g transform="translate(0.000000,360.000000) scale(0.100000,-0.100000)"
fill="#000000" stroke="none">
<path d="M1605 2894 c-11 -3 -40 -12 -63 -19 -39 -13 -46 -13 -68 1 -22 15
-26 15 -50 -1 -22 -14 -25 -22 -20 -48 3 -19 -2 -56 -13 -92 -10 -33 -15 -61
-10 -63 5 -2 9 -11 9 -20 0 -9 9 -32 21 -51 14 -24 25 -32 39 -28 29 8 35 -12
12 -35 l-20 -21 39 -49 c21 -28 39 -54 39 -59 0 -5 9 -9 21 -9 17 0 12 -8 -27
-43 -46 -42 -47 -43 -31 -68 16 -24 15 -26 -43 -89 -33 -35 -60 -69 -60 -76 0
-6 -7 -17 -15 -24 -9 -7 -14 -19 -11 -26 3 -8 -1 -28 -8 -46 -19 -48 -4 -94
41 -120 l36 -22 -6 -73 c-4 -58 -12 -84 -39 -130 -20 -36 -33 -73 -34 -98 -1
-22 -12 -62 -23 -89 -14 -32 -18 -52 -11 -56 6 -4 1 -40 -15 -103 -22 -89 -65
-352 -100 -617 -7 -58 -21 -199 -30 -315 -8 -116 -20 -246 -25 -290 -6 -44
-10 -87 -10 -97 0 -17 27 -18 475 -18 459 0 475 1 475 19 0 10 -16 126 -35
257 -19 132 -44 327 -55 434 -12 107 -28 227 -37 265 -24 108 -102 385 -117
414 -12 22 -12 27 3 38 14 10 11 17 -28 57 l-45 45 39 88 38 88 -16 115 -17
115 23 17 22 17 -21 15 c-22 15 -22 17 -6 75 15 58 15 63 -7 143 -13 46 -30
94 -38 106 -8 13 -12 26 -9 30 3 3 6 2 6 -2 0 -4 9 -2 19 4 14 7 22 7 26 0 10
-16 25 -1 25 25 0 27 46 83 52 64 7 -20 26 -1 33 31 4 16 14 34 22 39 13 7 14
14 3 47 -7 21 -23 60 -36 86 -13 26 -24 59 -24 73 0 16 -12 38 -33 58 -19 18
-41 44 -50 59 -31 49 -145 88 -212 72z"/>
</g>
</svg>
