<?xml version="1.0" standalone="no"?>
<!DOCTYPE svg PUBLIC "-//W3C//DTD SVG 20010904//EN"
 "http://www.w3.org/TR/2001/REC-SVG-20010904/DTD/svg10.dtd">
<svg version="1.0" xmlns="http://www.w3.org/2000/svg"
 width="480.000000pt" height="360.000000pt" viewBox="0 0 480.000000 360.000000"
 preserveAspectRatio="xMidYMid meet">
<metadata>
Created by potrace 1.16, written by Peter Selinger 2001-2019
</metadata>
<rect width="1" height="360" fill="#000000"/>
<rect x="479" width="1" height="360" fill="#000000"/>
<rect width="480" height="1" fill="#000000"/>
<rect y="359" width="480" height="1" fill="#000000"/>
<g transform="translate(0.000000,360.000000) scale(0.100000,-0.100000)"
fill="#000000" stroke="none">
<path d="M0 2904 l0 -695 108 8 c260 20 602 3 880 -42 l143 -24 46 35 c25 19
59 38 75 41 28 5 28 6 22 57 -4 28 -8 53 -10 55 -2 2 -23 -2 -48 -8 -55 -14
-136 -14 -136 -1 0 5 -10 9 -23 7 -18 -2 -23 4 -25 30 -5 53 41 126 155 243
l63 66 -10 81 c-28 224 -27 272 5 340 36 73 213 233 258 233 8 0 26 11 41 25
54 50 218 118 331 138 60 11 121 -12 245 -94 67 -43 125 -79 129 -79 5 0 70
20 145 45 159 52 241 60 276 25 25 -25 25 -34 -5 -97 -15 -34 -58 -88 -117
-149 l-93 -96 110 -106 c61 -58 100 -100 88 -93 -19 10 -22 9 -17 -4 7 -18 0
-19 -27 -5 -23 13 -23 11 -3 -39 8 -21 14 -58 12 -82 l-3 -44 -16 35 -16 35
-7 -52 c-9 -58 -26 -81 -27 -36 0 26 -2 25 -15 -12 -8 -21 -24 -49 -36 -62
-18 -19 -20 -27 -10 -48 6 -13 29 -36 52 -50 22 -14 40 -30 40 -36 0 -6 -14
-27 -31 -47 -25 -28 -30 -41 -26 -68 4 -25 0 -37 -18 -54 -13 -13 -21 -29 -18
-40 3 -10 -2 -29 -11 -42 -8 -13 -22 -43 -31 -67 -8 -25 -24 -50 -34 -57 -13
-9 -20 -31 -24 -78 -9 -100 -48 -156 -118 -171 -29 -7 -29 -8 -14 -25 9 -10
31 -24 48 -31 65 -26 423 -191 445 -206 21 -13 26 -13 41 1 28 25 68 19 124
-19 28 -19 57 -35 64 -35 6 0 25 -11 41 -25 17 -14 49 -32 72 -40 23 -8 54
-23 69 -34 15 -11 40 -23 55 -27 34 -8 59 -44 54 -80 -3 -24 8 -33 117 -103
66 -43 167 -112 225 -155 101 -74 107 -77 147 -71 48 7 80 -6 92 -38 6 -16 17
-22 42 -23 36 -2 69 -33 69 -64 0 -12 10 -21 30 -25 32 -7 50 -30 50 -63 0
-11 7 -25 15 -32 8 -7 15 -26 15 -42 0 -25 20 -51 109 -144 119 -123 269 -306
371 -452 l65 -92 92 0 93 0 0 1800 0 1800 -2400 0 -2400 0 0 -696z"/>
<path d="M1271 2184 c0 -11 3 -14 6 -6 3 7 2 16 -1 19 -3 4 -6 -2 -5 -13z"/>
<path d="M110 1955 c-8 -2 -36 -7 -62 -10 l-48 -6 0 -970 0 -969 908 0 909 0
11 39 c7 21 12 65 12 97 0 99 -29 357 -55 486 -22 114 -27 125 -59 155 -51 47
-69 79 -62 107 3 14 1 28 -5 32 -9 5 -10 50 -5 163 6 168 -5 264 -19 163 -8
-53 -25 -55 -25 -4 0 23 -19 32 -21 10 0 -7 -7 12 -16 42 -11 41 -14 84 -10
166 l5 111 -61 11 c-130 24 -276 127 -339 239 -33 58 -22 54 -228 88 -209 36
-326 46 -565 50 -137 2 -257 2 -265 0z"/>
<path d="M2629 1303 c5 -10 16 -27 25 -38 21 -28 22 2 0 33 -18 27 -39 30 -25
5z"/>
<path d="M2642 1213 c38 -83 53 -101 43 -53 -6 28 -60 120 -71 120 -2 0 11
-30 28 -67z"/>
<path d="M3144 965 l-32 -54 42 -38 c22 -20 49 -48 59 -60 19 -23 18 -24 -9
-60 -16 -21 -45 -54 -66 -75 -21 -21 -38 -40 -38 -43 0 -18 379 17 393 36 32
46 57 92 52 98 -10 18 -354 252 -367 251 -2 -1 -17 -25 -34 -55z"/>
<path d="M3823 411 c-72 -66 -72 -67 -88 -146 -18 -88 -33 -121 -64 -149 -21
-19 -22 -19 -99 1 -42 11 -123 37 -179 57 -133 48 -217 63 -415 76 -90 5 -182
12 -205 15 l-42 4 -53 -72 c-52 -72 -53 -73 -50 -135 l4 -62 844 0 c464 0 844
3 844 6 0 21 -272 330 -370 421 l-55 51 -72 -67z"/>
</g>
</svg>
