<?xml version="1.0" standalone="no"?>
<!DOCTYPE svg PUBLIC "-//W3C//DTD SVG 20010904//EN"
 "http://www.w3.org/TR/2001/REC-SVG-20010904/DTD/svg10.dtd">
<svg version="1.0" xmlns="http://www.w3.org/2000/svg"
 width="480.000000pt" height="360.000000pt" viewBox="0 0 480.000000 360.000000"
 preserveAspectRatio="xMidYMid meet">
<metadata>
Created by potrace 1.16, written by Peter Selinger 2001-2019
</metadata>
<rect width="1" height="360" fill="#000000"/>
<rect x="479" width="1" height="360" fill="#000000"/>
<rect width="480" height="1" fill="#000000"/>
<rect y="359" width="480" height="1" fill="#000000"/>
<g transform="translate(0.000000,360.000000) scale(0.100000,-0.100000)"
fill="#000000" stroke="none">
<path d="M0 1800 l0 -1800 121 0 121 0 -6 63 c-3 34 -11 136 -16 227 -6 91
-15 217 -20 280 -5 63 -10 211 -10 328 0 213 11 308 52 457 6 22 10 92 9 155
-3 143 20 245 84 372 125 250 380 474 733 645 213 102 294 117 513 95 255 -26
595 -131 585 -180 -6 -33 -17 -50 -36 -55 -16 -4 -11 -12 28 -55 37 -40 52
-67 71 -129 13 -43 26 -93 28 -111 6 -40 -13 -89 -47 -122 -44 -41 -63 -79
-50 -95 17 -21 88 -32 139 -23 65 12 74 0 66 -84 -7 -68 -7 -68 29 -108 41
-46 41 -44 21 -100 -23 -66 -20 -85 20 -109 35 -20 36 -22 29 -68 -4 -32 -1
-63 10 -93 9 -25 16 -53 16 -62 0 -25 -88 -95 -144 -115 -60 -22 -109 -69
-124 -122 -15 -49 -15 -76 0 -101 10 -15 9 -30 -5 -73 -34 -108 -16 -140 97
-181 78 -28 154 -33 251 -16 46 7 55 5 112 -26 89 -50 93 -58 54 -98 -23 -23
-28 -35 -19 -39 19 -7 210 -150 298 -223 41 -34 125 -100 185 -147 l110 -86
748 -1 747 0 0 1800 0 1800 -2400 0 -2400 0 0 -1800z"/>
</g>
</svg>
