<?xml version="1.0" standalone="no"?>
<!DOCTYPE svg PUBLIC "-//W3C//DTD SVG 20010904//EN"
 "http://www.w3.org/TR/2001/REC-SVG-20010904/DTD/svg10.dtd">
<svg version="1.0" xmlns="http://www.w3.org/2000/svg"
 width="480.000000pt" height="360.000000pt" viewBox="0 0 480.000000 360.000000"
 preserveAspectRatio="xMidYMid meet">
<metadata>
Created by potrace 1.16, written by Peter Selinger 2001-2019
</metadata>
<rect width="1" height="360" fill="#000000"/>
<rect x="479" width="1" height="360" fill="#000000"/>
<rect width="480" height="1" fill="#000000"/>
<rect y="359" width="480" height="1" fill="#000000"/>
<g transform="translate(0.000000,360.000000) scale(0.100000,-0.100000)"
fill="#000000" stroke="none">
<path d="M0 2785 l0 -815 118 0 c64 0 123 4 131 9 8 5 15 22 17 38 7 71 16
116 35 169 82 233 211 342 409 345 121 2 164 23 140 69 -11 21 -5 44 22 79 15
20 18 43 18 139 0 127 11 180 48 231 20 27 23 37 14 50 -28 38 -33 65 -21 108
19 70 88 95 142 53 33 -26 65 -25 101 4 22 19 26 27 19 42 -6 11 -9 36 -8 57
1 33 -2 40 -22 48 -14 5 -35 9 -49 9 -14 0 -36 12 -50 27 l-26 28 49 10 48 10
3 53 3 52 -570 0 -571 0 0 -815z"/>
<path d="M1618 3575 c2 -15 18 -39 34 -55 l29 -29 -26 -7 c-30 -7 -31 -18 -5
-44 13 -13 33 -20 58 -20 21 0 47 -7 59 -15 19 -13 20 -19 11 -61 -8 -36 -7
-49 3 -59 72 -67 257 -224 455 -386 325 -267 414 -361 491 -514 44 -87 67
-204 57 -295 -4 -36 -8 -74 -9 -85 -1 -11 3 -23 9 -27 6 -4 413 -8 904 -8
l892 0 0 -35 0 -35 -1399 0 c-891 0 -1402 -4 -1406 -10 -3 -5 14 -33 37 -62
42 -52 101 -160 111 -206 7 -31 -14 -49 -78 -63 -30 -7 -96 -33 -147 -59 l-93
-47 -1 -47 c-1 -25 -5 -53 -8 -62 -4 -9 11 -55 35 -106 38 -84 40 -91 25 -106
-18 -18 -104 -21 -178 -7 l-38 7 0 -59 c0 -57 2 -61 46 -106 25 -26 44 -52 42
-59 -3 -7 -20 -16 -39 -21 -45 -12 -56 -22 -65 -60 -18 -84 -64 -118 -128 -97
-60 20 -77 55 -75 157 1 49 8 97 15 108 6 11 15 39 19 62 6 41 5 44 -29 63
-19 12 -46 40 -59 63 -14 23 -45 56 -69 73 -110 80 -119 84 -172 84 -180 1
-360 73 -511 203 -77 67 -155 224 -155 313 0 20 -6 34 -16 38 -9 3 -67 6 -130
6 l-114 0 0 -950 0 -950 2400 0 2400 0 0 1800 0 1800 -1416 0 c-941 0 -1413
-3 -1409 -10 3 -5 21 -10 38 -10 l32 -1 -30 -15 c-16 -9 -40 -27 -51 -41 -21
-25 -22 -25 -93 -12 -39 7 -71 16 -71 20 0 4 13 12 29 17 15 5 31 19 34 31 5
21 2 21 -123 21 l-127 0 5 -25z m149 -61 c-3 -3 -12 -4 -19 -1 -8 3 -5 6 6 6
11 1 17 -2 13 -5z"/>
<path d="M1907 2910 c-7 -85 -33 -130 -82 -147 -22 -7 -109 -18 -195 -24 -125
-9 -174 -17 -252 -41 -114 -36 -120 -47 -65 -119 26 -34 44 -46 97 -64 36 -12
83 -31 105 -42 71 -37 94 -37 196 -2 83 29 106 33 194 32 271 -2 315 -7 315
-35 0 -7 16 -24 35 -37 19 -13 35 -28 35 -32 0 -5 -11 -27 -24 -48 -21 -33
-24 -47 -20 -103 4 -66 4 -66 -36 -101 -21 -20 -57 -45 -80 -57 -46 -23 -50
-37 -16 -50 33 -12 40 -27 19 -39 -42 -25 16 -31 287 -31 151 0 280 4 286 8 9
5 0 38 -30 112 -83 209 -202 374 -428 596 -203 198 -299 284 -317 284 -15 0
-19 -11 -24 -60z"/>
<path d="M1266 1351 l-49 -6 34 -34 c43 -42 89 -63 107 -49 6 6 12 30 12 54 0
49 4 48 -104 35z"/>
</g>
</svg>
