<?xml version="1.0" standalone="no"?>
<!DOCTYPE svg PUBLIC "-//W3C//DTD SVG 20010904//EN"
 "http://www.w3.org/TR/2001/REC-SVG-20010904/DTD/svg10.dtd">
<svg version="1.0" xmlns="http://www.w3.org/2000/svg"
 width="480.000000pt" height="360.000000pt" viewBox="0 0 480.000000 360.000000"
 preserveAspectRatio="xMidYMid meet">
<metadata>
Created by potrace 1.16, written by Peter Selinger 2001-2019
</metadata>
<rect width="1" height="360" fill="#000000"/>
<rect x="479" width="1" height="360" fill="#000000"/>
<rect width="480" height="1" fill="#000000"/>
<rect y="359" width="480" height="1" fill="#000000"/>
<g transform="translate(0.000000,360.000000) scale(0.100000,-0.100000)"
fill="#000000" stroke="none">
<path d="M0 1800 l0 -1800 875 0 c500 0 875 4 875 9 0 5 20 38 45 74 32 47 45
76 45 101 0 37 39 151 90 262 l32 69 -6 200 c-3 110 -9 235 -12 278 -7 76 -7
77 -35 77 -38 0 -46 33 -31 120 9 54 9 67 -4 81 -24 26 -16 74 31 197 31 81
54 125 74 144 24 21 30 36 33 75 l3 48 53 9 53 9 -6 41 c-4 23 -16 60 -27 82
-19 40 -23 42 -72 46 -38 3 -65 13 -102 38 -160 110 -228 226 -177 300 29 41
55 58 127 81 68 22 68 22 63 55 -8 45 3 115 19 121 12 4 41 -23 81 -76 10 -14
12 -14 19 4 20 54 77 115 136 144 53 27 72 31 140 31 l78 0 0 -1310 0 -1310
325 0 c179 0 325 4 325 8 0 5 -20 37 -44 73 -32 48 -44 78 -48 115 -3 27 -24
97 -46 155 -41 103 -42 108 -42 225 0 65 7 213 14 329 8 116 12 222 9 238 -8
39 3 33 27 -14 12 -22 26 -39 33 -36 22 7 31 65 19 115 -6 26 -14 72 -16 102
-2 30 -16 82 -31 115 -15 33 -36 83 -47 112 -11 30 -33 64 -51 79 -24 20 -33
37 -37 72 -5 46 -6 47 -48 54 -23 4 -46 9 -51 12 -14 9 13 94 39 121 27 29 42
31 60 10 17 -21 30 -19 30 4 0 11 9 22 19 26 26 8 129 77 167 112 87 79 108
163 57 224 -27 32 -113 79 -145 79 -25 0 -29 14 -19 63 12 50 4 117 -13 117
-6 0 -29 -22 -51 -50 -22 -27 -43 -50 -47 -50 -3 0 -11 15 -17 33 -6 17 -29
53 -51 79 -50 58 -112 83 -232 93 l-88 7 0 489 0 489 -1200 0 -1200 0 0 -1800z
m2968 444 c31 -15 58 -38 67 -53 12 -25 12 -31 -6 -60 -17 -29 -62 -65 -140
-114 l-29 -19 6 34 c3 18 14 59 25 91 26 78 26 127 -1 127 -11 0 -20 5 -20 10
0 18 45 11 98 -16z m-348 -486 c0 -13 -8 -18 -28 -18 -40 0 -44 8 -19 42 20
27 23 28 34 12 7 -10 13 -26 13 -36z m40 7 c0 -8 -4 -15 -10 -15 -5 0 -10 7
-10 15 0 8 5 15 10 15 6 0 10 -7 10 -15z m170 -1155 c0 -40 -13 -53 -24 -25
-5 13 11 65 21 65 1 0 3 -18 3 -40z"/>
<path d="M1853 2272 c-98 -40 -106 -79 -33 -155 l49 -52 32 32 32 31 -31 16
c-32 16 -62 52 -62 72 0 7 16 18 35 24 24 8 35 18 35 31 0 23 -3 23 -57 1z"/>
<path d="M2192 1788 c-25 -25 -7 -48 38 -48 30 0 34 19 9 41 -26 22 -31 23
-47 7z"/>
<path d="M2147 1770 c-3 -11 -1 -20 4 -20 5 0 9 9 9 20 0 11 -2 20 -4 20 -2 0
-6 -9 -9 -20z"/>
<path d="M1990 677 c0 -48 2 -87 4 -87 2 0 16 20 30 45 l27 44 -31 42 -30 42
0 -86z"/>
</g>
</svg>
