<?xml version="1.0" standalone="no"?>
<!DOCTYPE svg PUBLIC "-//W3C//DTD SVG 20010904//EN"
 "http://www.w3.org/TR/2001/REC-SVG-20010904/DTD/svg10.dtd">
<svg version="1.0" xmlns="http://www.w3.org/2000/svg"
 width="480.000000pt" height="360.000000pt" viewBox="0 0 480.000000 360.000000"
 preserveAspectRatio="xMidYMid meet">
<metadata>
Created by potrace 1.16, written by Peter Selinger 2001-2019
</metadata>
<rect width="1" height="360" fill="#000000"/>
<rect x="479" width="1" height="360" fill="#000000"/>
<rect width="480" height="1" fill="#000000"/>
<rect y="359" width="480" height="1" fill="#000000"/>
<g transform="translate(0.000000,360.000000) scale(0.100000,-0.100000)"
fill="#000000" stroke="none">
<path d="M0 1800 l0 -1800 1768 0 1767 1 37 117 c21 64 47 151 59 192 11 41
38 125 60 185 22 61 41 116 42 124 1 9 -21 22 -63 35 -61 20 -65 23 -64 51 1
17 18 56 38 89 44 72 62 130 71 221 6 54 16 86 46 142 56 104 73 183 65 318
-7 130 -33 235 -62 245 -10 4 -71 10 -134 13 -63 4 -163 13 -221 21 -58 9
-228 20 -378 26 -259 10 -329 19 -317 39 3 5 -1 14 -9 21 -8 7 -13 16 -10 20
3 4 -2 10 -10 14 -8 3 -15 12 -15 20 0 12 -36 14 -230 13 -192 -2 -232 0 -244
13 -10 10 -12 20 -6 30 7 12 41 16 169 19 142 3 162 1 178 -14 15 -16 29 -17
118 -10 182 13 537 16 695 5 463 -31 455 -32 448 62 -5 64 -6 65 -86 130 -46
37 -9 175 65 245 l36 35 -18 36 c-32 63 -77 102 -167 148 -92 46 -158 97 -158
120 0 22 50 36 100 30 66 -9 143 -52 203 -113 28 -29 59 -53 69 -53 9 0 20 -5
23 -10 11 -17 23 -1 18 23 -9 44 -27 68 -80 107 -58 44 -73 78 -53 116 11 19
21 24 54 24 54 0 100 -29 136 -87 36 -57 49 -99 64 -217 l11 -89 81 -41 c45
-23 88 -47 97 -55 48 -39 84 -183 107 -424 6 -60 17 -125 25 -145 7 -21 25
-71 40 -112 14 -41 43 -110 63 -152 34 -74 35 -80 24 -125 -9 -38 -9 -66 3
-138 8 -49 20 -119 26 -155 11 -69 3 -377 -10 -395 -5 -5 -14 -32 -20 -59 -15
-63 -41 -99 -86 -120 -40 -19 -55 -48 -55 -104 0 -20 -7 -62 -16 -92 -9 -31
-18 -117 -21 -198 l-6 -142 267 0 266 0 0 1800 0 1800 -2400 0 -2400 0 0
-1800z"/>
<path d="M3991 574 c-12 -15 -21 -31 -21 -37 0 -6 -8 -29 -19 -51 -10 -23 -52
-113 -92 -201 -40 -88 -85 -183 -101 -212 -15 -28 -28 -56 -28 -62 0 -8 55
-11 174 -11 l175 0 6 52 c3 29 2 118 -4 198 -6 80 -11 181 -11 225 0 44 -3 90
-6 103 -9 31 -47 29 -73 -4z"/>
</g>
</svg>
