<?xml version="1.0" standalone="no"?>
<!DOCTYPE svg PUBLIC "-//W3C//DTD SVG 20010904//EN"
 "http://www.w3.org/TR/2001/REC-SVG-20010904/DTD/svg10.dtd">
<svg version="1.0" xmlns="http://www.w3.org/2000/svg"
 width="480.000000pt" height="360.000000pt" viewBox="0 0 480.000000 360.000000"
 preserveAspectRatio="xMidYMid meet">
<metadata>
Created by potrace 1.16, written by Peter Selinger 2001-2019
</metadata>
<rect width="1" height="360" fill="#000000"/>
<rect x="479" width="1" height="360" fill="#000000"/>
<rect width="480" height="1" fill="#000000"/>
<rect y="359" width="480" height="1" fill="#000000"/>
<g transform="translate(0.000000,360.000000) scale(0.100000,-0.100000)"
fill="#000000" stroke="none">
<path d="M0 1800 l0 -1800 2400 0 2400 0 0 1800 0 1800 -2400 0 -2400 0 0
-1800z m2471 612 c-1 -64 -6 -146 -12 -181 -5 -35 -7 -66 -4 -69 3 -3 72 -10
153 -14 81 -4 157 -10 170 -13 24 -6 127 -137 164 -210 56 -108 75 -286 43
-408 -26 -99 -102 -227 -136 -227 -4 0 -31 -45 -60 -101 -123 -240 -184 -301
-320 -323 -25 -5 -39 -14 -47 -31 -11 -23 -16 -25 -87 -25 -72 0 -78 2 -103
30 -17 18 -48 36 -78 45 -108 32 -148 78 -233 273 -35 79 -59 119 -87 144 -37
35 -39 38 -42 112 -7 135 35 290 113 420 19 32 35 66 35 75 0 9 29 45 65 80
35 34 67 71 70 81 3 11 14 21 24 25 9 3 38 29 63 58 54 63 65 114 40 183 -24
63 -8 77 94 80 75 2 78 3 93 32 21 39 71 95 79 88 3 -3 4 -59 3 -124z"/>
</g>
</svg>
