<?xml version="1.0" standalone="no"?>
<!DOCTYPE svg PUBLIC "-//W3C//DTD SVG 20010904//EN"
 "http://www.w3.org/TR/2001/REC-SVG-20010904/DTD/svg10.dtd">
<svg version="1.0" xmlns="http://www.w3.org/2000/svg"
 width="480.000000pt" height="360.000000pt" viewBox="0 0 480.000000 360.000000"
 preserveAspectRatio="xMidYMid meet">
<metadata>
Created by potrace 1.16, written by Peter Selinger 2001-2019
</metadata>
<rect width="1" height="360" fill="#000000"/>
<rect x="479" width="1" height="360" fill="#000000"/>
<rect width="480" height="1" fill="#000000"/>
<rect y="359" width="480" height="1" fill="#000000"/>
<g transform="translate(0.000000,360.000000) scale(0.100000,-0.100000)"
fill="#000000" stroke="none">
<path d="M1377 3589 c-15 -9 -16 -14 -6 -25 10 -12 8 -18 -7 -29 -18 -14 -18
-16 -1 -29 20 -15 109 -33 212 -43 55 -5 62 -8 49 -20 -24 -24 -17 -60 16 -85
26 -19 28 -23 14 -31 -14 -8 -13 -10 3 -23 16 -12 16 -13 2 -14 -9 0 -19 -6
-22 -14 -9 -24 82 -43 233 -50 143 -6 306 -32 420 -66 19 -5 66 -10 105 -10
132 0 147 -20 58 -77 -139 -89 -322 -166 -510 -213 -53 -13 -103 -54 -103 -84
0 -15 -9 -27 -25 -34 -29 -13 -29 -15 -12 -62 17 -47 26 -60 42 -60 27 0 148
-61 187 -95 56 -47 101 -55 324 -55 l198 0 110 55 c61 30 142 75 180 100 38
25 73 45 78 45 19 0 319 -160 490 -261 152 -91 208 -125 263 -160 99 -64 300
-177 362 -205 32 -14 90 -34 128 -45 39 -12 93 -27 120 -35 101 -29 217 -29
373 1 l142 27 0 630 0 629 -354 175 -353 174 -1349 0 c-924 -1 -1355 -4 -1367
-11z"/>
<path d="M1770 659 c-170 -16 -274 -39 -373 -82 -37 -16 -53 -30 -68 -61 -23
-48 -24 -70 -4 -147 35 -134 87 -206 210 -290 36 -24 68 -52 71 -61 5 -17 30
-18 329 -18 l323 0 6 26 c4 15 51 70 105 123 82 81 101 106 124 162 39 99 52
189 36 246 -11 39 -18 48 -54 64 -79 35 -204 49 -419 48 -110 -1 -239 -5 -286
-10z"/>
</g>
</svg>
