<?xml version="1.0" standalone="no"?>
<!DOCTYPE svg PUBLIC "-//W3C//DTD SVG 20010904//EN"
 "http://www.w3.org/TR/2001/REC-SVG-20010904/DTD/svg10.dtd">
<svg version="1.0" xmlns="http://www.w3.org/2000/svg"
 width="480.000000pt" height="360.000000pt" viewBox="0 0 480.000000 360.000000"
 preserveAspectRatio="xMidYMid meet">
<metadata>
Created by potrace 1.16, written by Peter Selinger 2001-2019
</metadata>
<rect width="1" height="360" fill="#000000"/>
<rect x="479" width="1" height="360" fill="#000000"/>
<rect width="480" height="1" fill="#000000"/>
<rect y="359" width="480" height="1" fill="#000000"/>
<g transform="translate(0.000000,360.000000) scale(0.100000,-0.100000)"
fill="#000000" stroke="none">
<path d="M0 2295 c0 -1240 1 -1305 18 -1297 9 6 42 13 72 17 30 4 80 19 110
32 45 20 84 27 208 36 147 11 153 12 148 32 -3 11 -6 25 -6 32 0 6 -14 14 -31
18 -17 4 -33 14 -36 22 -3 8 4 47 16 86 36 121 48 287 20 287 -12 0 -11 37 1
45 18 11 11 46 -15 76 -27 33 -26 66 6 129 10 19 27 72 39 118 21 78 22 84 5
96 -16 12 -16 14 0 46 10 19 19 57 20 86 4 71 17 90 74 109 46 15 51 15 87 -2
26 -13 45 -33 65 -70 l28 -52 -21 -26 c-15 -19 -19 -35 -15 -60 3 -19 2 -37
-3 -40 -6 -3 -7 -40 -4 -83 l6 -77 52 -50 c61 -58 70 -76 54 -109 -8 -19 -21
-26 -59 -31 -41 -6 -49 -10 -49 -28 0 -24 103 -365 120 -396 14 -28 13 -71 -3
-71 -8 0 -26 14 -41 31 -35 39 -60 35 -64 -11 -4 -41 24 -100 47 -100 64 0
176 79 141 100 -7 4 -9 16 -5 29 7 24 13 25 49 11 33 -12 33 -38 1 -46 -25 -6
-52 -31 -43 -40 9 -8 191 77 491 228 237 120 277 144 277 163 0 12 11 44 25
70 14 26 24 49 22 52 -3 2 -16 -2 -30 -8 -41 -19 -60 -5 -53 36 4 19 3 35 -2
35 -6 0 -177 93 -341 186 -41 24 -46 34 -27 59 12 17 18 18 33 8 99 -64 350
-203 369 -203 8 0 -5 72 -16 85 -4 6 -14 33 -23 62 -15 52 -14 52 19 122 18
39 40 98 48 133 13 56 20 68 78 123 94 88 140 126 168 139 43 19 52 38 27 58
-26 21 -37 22 -37 6 -1 -14 -34 -58 -44 -58 -3 0 -6 8 -6 18 0 9 -9 23 -20 30
-18 11 -20 10 -20 -10 -1 -21 -2 -21 -11 -5 -6 9 -14 15 -19 12 -9 -6 -24 107
-23 170 3 84 70 200 147 251 93 61 154 63 247 5 l49 -30 85 129 c102 153 125
170 125 90 0 -23 11 -53 30 -83 36 -57 37 -67 7 -96 -17 -15 -27 -42 -36 -94
-15 -86 -31 -137 -44 -137 -5 0 -25 10 -44 21 -19 12 -36 19 -39 16 -3 -3 0
-42 6 -88 8 -60 8 -85 1 -87 -6 -2 -11 -10 -11 -18 0 -8 -4 -14 -10 -14 -5 0
-10 8 -10 17 0 24 -17 4 -25 -29 -10 -39 6 -36 66 12 54 43 71 49 134 49 22 0
50 0 62 0 13 1 86 26 162 56 77 30 146 55 152 55 6 0 69 16 139 35 107 30 134
34 169 26 33 -7 45 -6 61 8 10 9 73 88 139 176 66 88 128 169 138 180 31 34
44 66 33 80 -5 6 -7 15 -3 18 3 4 0 7 -7 7 -7 0 -70 59 -139 130 -83 85 -134
130 -147 130 -15 0 -32 -17 -57 -57 -43 -70 -67 -93 -134 -128 -188 -97 -405
30 -421 247 l-5 68 -1348 0 -1349 0 0 -1305z m1140 1166 c0 -15 -27 -32 -57
-34 -39 -3 -38 26 2 34 45 10 55 10 55 0z m560 -412 c17 -31 7 -43 -19 -22
-14 11 -21 25 -17 31 11 18 24 14 36 -9z m1226 -184 c9 -22 -3 -45 -20 -39
-17 6 -29 32 -20 45 8 14 34 11 40 -6z m-1694 -427 c-17 -17 -47 14 -38 38 6
16 8 16 29 -4 17 -17 19 -24 9 -34z"/>
<path d="M3480 3596 c0 -2 20 -25 44 -52 24 -27 68 -82 98 -123 76 -107 92
-116 169 -104 99 16 198 -13 207 -61 3 -13 -5 -16 -42 -16 -31 0 -70 -11 -119
-34 -40 -18 -82 -36 -94 -40 -20 -6 -80 -53 -105 -81 -5 -5 -34 -44 -65 -85
-32 -41 -60 -77 -63 -80 -6 -5 -68 -86 -121 -159 l-26 -35 28 -36 c34 -42 52
-107 27 -97 -10 3 -20 -3 -27 -21 -9 -19 -14 -23 -21 -13 -4 8 -13 10 -19 7
-7 -5 -11 1 -11 15 0 12 -7 31 -16 40 -16 18 -18 17 -45 -18 -16 -20 -29 -39
-29 -43 0 -3 11 -17 25 -30 33 -31 32 -50 -3 -50 -25 0 -30 -5 -41 -42 -7 -24
-21 -59 -31 -78 -10 -19 -24 -50 -32 -67 -7 -18 -18 -33 -24 -33 -7 0 -17 -15
-23 -32 -7 -18 -22 -49 -35 -68 -13 -19 -27 -53 -32 -75 -4 -24 -9 -33 -11
-22 -3 10 -10 16 -16 14 -16 -5 -15 -43 1 -40 6 2 12 -4 12 -12 0 -8 -9 -15
-21 -15 -15 0 -26 -14 -45 -57 -14 -31 -38 -73 -53 -93 -15 -19 -35 -61 -44
-92 -13 -42 -22 -56 -32 -51 -21 8 -45 -15 -45 -44 0 -43 -62 -149 -81 -137
-4 2 -18 -18 -30 -45 -12 -28 -27 -55 -35 -61 -7 -6 -10 -17 -8 -25 3 -7 -2
-15 -12 -17 -22 -4 32 -32 166 -87 257 -106 250 -102 230 -126 -16 -19 -88
-20 -155 -1 -83 23 -236 80 -287 107 -28 15 -34 10 -10 -7 15 -10 21 -22 17
-34 -4 -11 2 -26 13 -37 11 -10 32 -40 48 -68 15 -27 31 -52 34 -55 15 -13
100 -147 100 -157 0 -7 -13 -28 -30 -46 -16 -19 -30 -39 -30 -43 -1 -22 -115
-108 -134 -101 -8 3 -23 -2 -34 -11 -11 -9 -28 -22 -38 -27 -19 -12 -18 -16
41 -185 27 -80 45 -207 45 -330 0 -56 5 -86 20 -115 11 -22 20 -45 20 -52 0
-11 205 -13 1075 -13 l1075 0 0 1800 0 1800 -660 0 c-363 0 -660 -2 -660 -4z
m580 -236 c0 -5 -4 -10 -10 -10 -5 0 -10 5 -10 10 0 6 5 10 10 10 6 0 10 -4
10 -10z m198 -338 c2 -7 -6 -12 -17 -12 -21 0 -27 11 -14 24 9 9 26 2 31 -12z
m114 -244 c-7 -7 -12 -8 -12 -2 0 6 3 14 7 17 3 4 9 5 12 2 2 -3 -1 -11 -7
-17z m308 -38 c0 -5 -7 -10 -16 -10 -8 0 -12 5 -9 10 3 6 10 10 16 10 5 0 9
-4 9 -10z m50 -385 c13 -15 7 -45 -9 -45 -18 0 -54 37 -47 48 10 17 41 15 56
-3z m-1285 -435 c-3 -5 -10 -10 -16 -10 -5 0 -9 5 -9 10 0 6 7 10 16 10 8 0
12 -4 9 -10z m748 -887 c-7 -2 -19 -2 -25 0 -7 3 -2 5 12 5 14 0 19 -2 13 -5z
m-719 -122 c7 -10 -22 -37 -30 -28 -9 8 3 37 15 37 5 0 12 -4 15 -9z"/>
<path d="M3152 2652 l-23 -18 34 -16 c34 -16 35 -16 56 13 14 19 17 29 9 29
-7 0 -22 2 -33 5 -11 3 -30 -3 -43 -13z"/>
<path d="M3000 2585 c-52 -24 -101 -44 -109 -44 -7 -1 -56 -19 -107 -42 -81
-35 -94 -44 -94 -65 0 -13 -4 -24 -10 -24 -5 0 -24 -13 -42 -29 -32 -27 -94
-52 -168 -67 -40 -7 -110 -41 -110 -52 0 -4 7 -29 16 -57 11 -36 16 -98 17
-227 2 -175 2 -177 -20 -187 -27 -12 -27 -19 -9 -86 14 -47 72 -194 81 -203 6
-7 28 20 45 53 17 34 32 59 78 127 18 25 32 51 32 56 0 5 7 15 16 23 8 7 27
36 41 63 14 28 29 53 33 56 3 3 28 39 55 80 26 41 57 85 68 98 11 12 17 22 14
22 -4 0 0 8 9 18 8 9 25 32 37 50 12 17 50 73 85 123 34 49 62 92 62 95 0 4
39 56 96 129 36 45 39 64 15 86 -12 12 -20 27 -17 35 8 21 -11 16 -114 -31z"/>
<path d="M2265 2497 c-29 -48 -29 -49 1 -45 26 3 29 8 32 41 4 46 -7 47 -33 4z"/>
<path d="M2317 2497 c-11 -29 -9 -43 4 -30 6 6 9 19 7 29 -3 18 -4 18 -11 1z"/>
<path d="M1979 2082 c-25 -26 -58 -52 -67 -52 -5 0 -20 -13 -35 -28 l-28 -29
18 -123 c12 -91 22 -129 36 -143 25 -25 46 -18 68 22 10 19 23 39 29 45 14 14
13 46 -3 46 -7 0 -21 6 -30 13 -15 11 -14 17 13 71 25 48 30 71 30 127 0 72
-4 79 -31 51z"/>
<path d="M1754 1394 c-244 -128 -520 -260 -646 -310 -120 -48 -148 -62 -149
-79 -1 -17 -2 -17 -6 -2 -5 21 -1 20 -53 2 -65 -23 -112 -20 -140 10 -13 14
-35 25 -49 25 -28 0 -135 -17 -321 -52 -80 -15 -157 -22 -252 -22 l-138 -1 0
-482 0 -483 885 0 886 0 5 30 c4 16 12 34 18 39 9 8 9 35 -1 118 -16 127 -10
251 18 371 26 115 25 127 -11 142 -17 7 -36 20 -43 29 -7 9 -19 16 -27 16 -8
0 -18 14 -23 30 -5 17 -13 44 -18 62 -14 47 3 129 76 353 79 244 78 240 67
240 -5 0 -40 -16 -78 -36z"/>
<path d="M635 1150 c-4 -6 3 -23 16 -36 30 -32 86 -31 81 1 -5 27 -11 32 -53
40 -24 4 -39 3 -44 -5z"/>
<path d="M2185 644 c-9 -13 -18 -14 -65 -6 -36 7 -59 7 -67 0 -6 -5 -22 -8
-35 -6 -32 4 -42 -33 -63 -227 -9 -88 -22 -198 -30 -245 -8 -53 -10 -91 -4
-102 5 -9 9 -26 9 -37 0 -21 4 -21 279 -21 l278 0 7 37 c4 27 -6 86 -34 203
-64 265 -79 320 -100 367 l-19 43 -54 -6 c-36 -4 -57 -3 -61 5 -10 16 -29 14
-41 -5z"/>
</g>
</svg>
