<?xml version="1.0" standalone="no"?>
<!DOCTYPE svg PUBLIC "-//W3C//DTD SVG 20010904//EN"
 "http://www.w3.org/TR/2001/REC-SVG-20010904/DTD/svg10.dtd">
<svg version="1.0" xmlns="http://www.w3.org/2000/svg"
 width="480.000000pt" height="360.000000pt" viewBox="0 0 480.000000 360.000000"
 preserveAspectRatio="xMidYMid meet">
<metadata>
Created by potrace 1.16, written by Peter Selinger 2001-2019
</metadata>
<rect width="1" height="360" fill="#000000"/>
<rect x="479" width="1" height="360" fill="#000000"/>
<rect width="480" height="1" fill="#000000"/>
<rect y="359" width="480" height="1" fill="#000000"/>
<g transform="translate(0.000000,360.000000) scale(0.100000,-0.100000)"
fill="#000000" stroke="none">
<path d="M0 1800 l0 -1800 1014 0 c958 0 1015 1 1020 18 13 45 56 526 56 629
0 37 -4 44 -30 58 -16 9 -30 21 -30 27 0 6 -7 20 -17 30 -15 16 -15 18 0 18
10 0 14 6 11 14 -3 8 9 39 26 70 28 50 34 73 51 218 24 211 24 226 -6 339 -28
108 -31 174 -10 226 8 19 15 44 15 55 0 10 9 36 20 58 16 31 18 44 9 67 -8 22
-7 30 7 40 10 7 21 13 26 13 4 0 8 30 8 66 0 70 -13 91 -67 114 -15 6 -20 15
-16 29 4 17 1 21 -20 19 -15 -1 -44 12 -77 37 l-52 40 4 81 c6 106 34 157 126
224 83 61 168 87 227 71 97 -27 168 -89 220 -191 29 -57 70 -199 86 -295 6
-38 26 -137 44 -220 19 -82 36 -177 39 -210 3 -33 15 -148 25 -255 11 -107 22
-325 26 -485 4 -159 10 -325 14 -368 3 -42 3 -81 -2 -86 -8 -8 22 -165 66
-351 l23 -95 982 -3 982 -2 0 1070 0 1070 -21 0 c-79 0 -339 132 -476 242 -51
40 -184 182 -234 248 -90 119 -165 285 -217 479 -14 53 -17 108 -17 279 l0
212 -1917 0 -1918 0 0 -1800z"/>
</g>
</svg>
