<?xml version="1.0" standalone="no"?>
<!DOCTYPE svg PUBLIC "-//W3C//DTD SVG 20010904//EN"
 "http://www.w3.org/TR/2001/REC-SVG-20010904/DTD/svg10.dtd">
<svg version="1.0" xmlns="http://www.w3.org/2000/svg"
 width="480.000000pt" height="360.000000pt" viewBox="0 0 480.000000 360.000000"
 preserveAspectRatio="xMidYMid meet">
<metadata>
Created by potrace 1.16, written by Peter Selinger 2001-2019
</metadata>
<rect width="1" height="360" fill="#000000"/>
<rect x="479" width="1" height="360" fill="#000000"/>
<rect width="480" height="1" fill="#000000"/>
<rect y="359" width="480" height="1" fill="#000000"/>
<g transform="translate(0.000000,360.000000) scale(0.100000,-0.100000)"
fill="#000000" stroke="none">
<path d="M0 2655 c0 -520 2 -945 4 -945 2 0 37 19 78 41 107 61 219 145 338
253 58 53 111 96 118 96 13 0 252 -112 357 -167 28 -14 98 -55 157 -90 130
-78 185 -102 263 -119 85 -19 134 -17 260 7 l110 21 85 -25 c62 -18 89 -22 98
-14 7 6 44 51 82 101 91 122 104 133 223 191 l102 50 -3 50 c-4 55 -26 91 -42
66 -6 -11 -9 -7 -12 14 -4 41 -26 43 -32 3 -3 -18 -9 -58 -14 -88 -9 -53 -9
-54 -11 -15 l-3 40 -13 -30 c-14 -29 -14 -27 -15 45 l-2 75 -18 -68 c-21 -79
-30 -94 -30 -48 0 33 -28 180 -37 194 -3 5 -9 3 -14 -4 -5 -9 -13 -2 -25 24
-10 20 -21 37 -24 37 -4 0 -13 -12 -21 -27 l-14 -28 -3 48 c-3 52 -7 54 -40
31 -38 -26 -35 -10 10 55 l42 61 -21 22 -22 21 -12 -26 c-15 -32 -34 -34 -74
-7 -16 11 -37 20 -46 20 -9 0 -27 9 -40 20 l-24 21 30 22 c54 40 124 115 145
156 20 40 20 43 4 107 -14 56 -15 78 -6 139 24 155 78 242 186 298 59 31 65
32 201 34 77 1 188 5 246 9 117 8 183 -3 260 -42 58 -29 132 -110 155 -170
l17 -45 27 26 c52 50 137 21 235 -81 44 -47 85 -131 85 -178 0 -12 7 -45 15
-72 19 -64 19 -81 -2 -88 -10 -3 -28 -25 -41 -49 -21 -40 -22 -45 -8 -79 22
-51 77 -331 67 -337 -4 -4 -11 -27 -14 -53 -11 -83 -72 -242 -88 -232 -5 3
-17 -13 -27 -35 l-18 -40 -12 31 c-9 26 -14 29 -26 19 -12 -10 -16 -6 -25 26
-6 21 -11 47 -12 58 0 13 -4 8 -10 -13 -13 -46 -25 -33 -32 35 -4 32 -18 89
-31 127 -16 45 -27 105 -32 168 l-7 98 -28 0 c-26 0 -29 -3 -23 -25 5 -21 3
-24 -11 -18 -16 5 -17 2 -11 -33 l7 -39 -31 33 c-17 19 -33 32 -34 30 -2 -1
-8 -13 -15 -25 -6 -12 -17 -20 -24 -18 -13 6 -47 -95 -47 -140 0 -14 -4 -25
-10 -25 -5 0 -10 8 -10 17 0 31 -18 0 -33 -57 l-15 -55 -2 55 -2 55 -12 -55
-11 -55 -5 100 c-5 95 -6 99 -19 72 -8 -16 -26 -34 -41 -42 -18 -9 -29 -27
-38 -60 -16 -60 -6 -73 93 -122 105 -53 116 -63 220 -198 107 -139 106 -139
210 -112 45 12 56 11 105 -6 69 -24 189 -47 244 -47 74 0 157 29 346 119 102
49 219 101 260 116 41 15 110 43 153 62 l79 35 156 -154 c135 -133 315 -278
344 -278 4 0 8 466 8 1035 l0 1035 -2400 0 -2400 0 0 -945z"/>
<path d="M2961 2586 c-39 -86 -40 -127 -5 -155 15 -12 33 -21 40 -21 18 0 28
77 20 153 -11 98 -20 102 -55 23z"/>
<path d="M3031 2254 c0 -11 3 -14 6 -6 3 7 2 16 -1 19 -3 4 -6 -2 -5 -13z"/>
<path d="M3242 2010 c0 -14 2 -19 5 -12 2 6 2 18 0 25 -3 6 -5 1 -5 -13z"/>
<path d="M492 1927 c-47 -47 -51 -55 -38 -67 9 -7 16 -21 16 -31 0 -10 10 -25
23 -33 12 -9 37 -44 56 -79 l34 -64 -26 -244 c-15 -134 -31 -247 -36 -252 -14
-14 -29 16 -101 204 -39 101 -78 201 -86 221 -15 34 -15 42 1 105 10 37 24 75
32 84 29 35 9 25 -69 -34 -46 -34 -104 -73 -130 -87 -54 -28 -62 -54 -27 -86
11 -10 35 -44 53 -76 l32 -57 -32 -246 c-17 -136 -36 -251 -42 -257 -14 -14
-19 -3 -87 182 -32 85 -59 157 -61 159 -2 2 -4 -282 -4 -632 l0 -637 879 0
878 0 31 108 c17 59 41 143 53 187 26 96 66 200 115 297 29 57 35 79 30 107
-3 20 -1 74 5 120 7 49 8 118 4 170 l-8 86 -42 -90 c-23 -50 -56 -107 -74
-128 -32 -35 -249 -187 -448 -310 -55 -35 -131 -71 -190 -91 -54 -19 -132 -49
-173 -67 -65 -28 -86 -33 -155 -33 -55 0 -100 7 -146 23 -126 42 -226 121
-144 113 132 -12 202 -6 287 21 89 30 125 55 115 81 -5 12 -11 13 -36 3 -26
-9 -34 -9 -48 6 -16 15 -16 18 1 36 35 38 186 54 253 26 19 -8 41 -15 48 -15
6 0 94 68 196 151 101 83 213 171 249 195 l66 44 12 71 c7 40 27 114 44 166
l31 95 -31 25 c-18 13 -32 29 -32 34 0 5 14 22 32 39 l31 30 -23 25 c-18 19
-22 32 -17 58 l5 34 -60 7 c-128 13 -158 4 -120 -37 11 -13 25 -51 32 -89 l12
-67 -56 -154 c-122 -333 -139 -366 -150 -295 -6 36 -34 375 -38 448 -2 51 35
128 81 168 39 34 15 42 -132 42 l-128 0 18 -24 c10 -13 27 -48 38 -79 l18 -55
-45 -247 c-26 -136 -49 -249 -52 -253 -15 -14 -31 30 -92 251 l-65 237 21 69
c12 38 29 76 39 85 31 28 15 63 -53 113 -61 46 -150 94 -196 108 l-25 7 26
-28 c15 -16 38 -51 52 -79 l25 -50 -29 -245 c-16 -135 -32 -251 -34 -259 -12
-30 -34 18 -115 242 l-82 228 17 67 c9 37 22 74 29 82 8 8 16 27 18 42 4 23 0
29 -26 40 -17 6 -61 29 -98 50 -37 21 -71 38 -76 38 -4 0 -31 -24 -60 -53z"/>
<path d="M4244 1830 c-6 -6 -46 -26 -90 -45 -44 -19 -80 -41 -82 -50 -2 -9 3
-31 11 -48 9 -18 20 -58 26 -90 l11 -59 -103 -189 c-56 -104 -107 -189 -113
-189 -14 0 -21 70 -30 280 l-6 155 42 58 c22 31 45 57 51 57 5 0 9 5 9 11 0
14 -30 5 -125 -41 -96 -45 -165 -94 -165 -117 0 -9 7 -25 16 -34 9 -10 24 -47
34 -82 18 -63 17 -65 -2 -108 -10 -24 -44 -105 -75 -179 -31 -74 -63 -143 -72
-153 -15 -17 -15 -17 -22 1 -4 10 -20 106 -35 214 l-28 195 37 65 36 65 -82
12 c-108 15 -177 14 -177 -1 0 -7 11 -23 24 -37 13 -15 33 -45 46 -68 l23 -42
-27 -201 c-34 -255 -37 -264 -72 -192 -26 55 -124 292 -137 330 -14 42 3 130
33 172 12 17 18 34 15 40 -3 5 -42 10 -86 10 l-79 0 0 -33 c0 -21 -8 -41 -20
-52 -20 -18 -20 -18 5 -51 29 -37 23 -67 -15 -79 -24 -8 -25 -29 -4 -127 8
-40 17 -102 18 -138 l4 -64 62 -38 c34 -21 115 -76 180 -123 200 -143 205
-146 268 -138 74 8 201 -21 244 -57 29 -24 31 -29 18 -45 -13 -16 -34 -16 -72
0 -27 11 -23 -27 5 -52 57 -53 248 -123 336 -123 58 0 67 -12 40 -49 -31 -42
-81 -54 -199 -49 -114 6 -165 23 -287 95 -50 30 -125 67 -166 82 -126 47 -462
233 -533 295 -48 42 -71 80 -99 166 -17 54 -34 85 -32 59 1 -8 -2 -43 -7 -79
-5 -46 -3 -92 8 -155 9 -57 12 -93 6 -99 -16 -16 -12 -28 44 -147 63 -135 74
-164 133 -374 25 -88 47 -168 50 -178 5 -16 56 -17 884 -17 l879 0 0 353 c0
220 -4 357 -10 363 -6 6 -6 22 0 44 14 50 13 637 -1 646 -6 3 -18 -1 -27 -10
-13 -12 -14 -18 -4 -28 7 -7 12 -41 12 -83 l0 -71 -135 -165 c-75 -90 -142
-165 -150 -167 -20 -4 -19 -2 14 231 l28 197 47 46 c26 25 58 49 72 54 23 9
35 50 15 50 -12 0 -117 79 -181 136 -28 26 -53 44 -57 41 -3 -4 0 -13 7 -22 7
-8 15 -46 18 -83 l4 -68 -112 -170 c-130 -197 -137 -205 -146 -180 -4 9 -2
111 4 227 l10 209 44 50 c24 27 53 52 66 56 12 3 22 13 22 22 0 8 7 23 15 32
13 14 9 22 -30 73 -45 57 -62 66 -81 47z"/>
<path d="M0 1570 c0 -19 3 -21 12 -12 9 9 9 15 0 24 -9 9 -12 7 -12 -12z"/>
</g>
</svg>
