<?xml version="1.0" standalone="no"?>
<!DOCTYPE svg PUBLIC "-//W3C//DTD SVG 20010904//EN"
 "http://www.w3.org/TR/2001/REC-SVG-20010904/DTD/svg10.dtd">
<svg version="1.0" xmlns="http://www.w3.org/2000/svg"
 width="480.000000pt" height="360.000000pt" viewBox="0 0 480.000000 360.000000"
 preserveAspectRatio="xMidYMid meet">
<metadata>
Created by potrace 1.16, written by Peter Selinger 2001-2019
</metadata>
<rect width="1" height="360" fill="#000000"/>
<rect x="479" width="1" height="360" fill="#000000"/>
<rect width="480" height="1" fill="#000000"/>
<rect y="359" width="480" height="1" fill="#000000"/>
<g transform="translate(0.000000,360.000000) scale(0.100000,-0.100000)"
fill="#000000" stroke="none">
<path d="M0 1800 l0 -1800 923 1 c887 1 920 1 863 18 -74 21 -104 48 -112 99
-12 75 -42 111 -131 160 -50 28 -85 54 -89 66 -4 12 -14 26 -22 32 -12 9 -5
17 37 47 l50 37 -16 28 c-9 16 -14 36 -10 45 9 23 191 146 371 250 179 103
286 195 421 361 40 50 107 132 149 181 42 50 76 93 76 97 0 4 -13 22 -29 41
-16 18 -33 46 -37 63 -9 39 -22 54 -48 54 -27 0 -66 27 -66 45 0 8 19 23 43
33 23 11 52 30 64 43 43 47 54 163 29 310 -8 46 -17 105 -21 132 -3 26 -11 47
-18 47 -8 0 -8 3 1 12 20 20 14 25 -30 32 -30 5 -38 10 -29 16 12 7 12 10 0
22 -8 8 -22 17 -33 21 -12 5 -17 14 -13 27 4 15 0 20 -14 20 -10 0 -20 6 -20
13 -1 6 -2 19 -3 27 -1 8 7 25 18 37 20 24 10 33 -12 11 -9 -9 -15 -9 -23 -1
-9 9 -4 18 17 38 l29 26 -27 -5 c-16 -4 -28 -2 -28 4 0 5 3 10 8 10 4 0 23 14
42 31 l35 30 -39 -16 c-22 -8 -41 -13 -43 -11 -10 9 51 45 87 51 28 5 49 18
75 46 19 21 35 45 35 53 0 26 79 103 138 134 122 65 242 34 349 -91 45 -51 80
-166 63 -206 -20 -48 -107 -116 -94 -73 4 12 -1 10 -15 -7 -21 -23 -28 -51
-13 -51 4 0 51 11 103 25 107 28 156 31 184 11 11 -7 55 -32 98 -55 43 -22 92
-54 109 -71 45 -46 60 -51 93 -34 41 21 149 16 203 -9 36 -17 43 -24 40 -46
-2 -18 -12 -29 -31 -35 -37 -13 -55 4 -39 38 13 30 2 36 -72 36 -62 0 -76 -11
-76 -61 0 -21 -4 -41 -10 -44 -17 -10 -11 -25 8 -18 13 5 12 1 -6 -19 -12 -13
-20 -27 -17 -30 9 -9 -40 -36 -78 -43 -42 -8 -50 -16 -67 -70 -17 -53 -146
-179 -229 -223 l-62 -33 7 28 c13 51 72 184 97 217 14 18 46 48 71 67 44 33
45 36 46 87 0 56 -13 92 -32 92 -7 0 -38 18 -69 40 -62 44 -90 48 -154 24 -22
-8 -80 -28 -128 -44 -48 -16 -92 -32 -97 -35 -10 -6 34 -70 127 -184 29 -36
60 -84 69 -108 17 -43 17 -46 -4 -88 -12 -25 -35 -63 -51 -85 -39 -55 -63
-196 -38 -233 10 -16 14 -37 10 -63 -3 -21 5 -95 16 -164 12 -69 26 -152 31
-185 17 -102 39 -353 45 -510 3 -82 13 -212 21 -289 17 -163 18 -260 4 -251
-5 3 -10 -1 -10 -9 0 -14 92 -16 900 -16 l900 0 0 1800 0 1800 -2400 0 -2400
0 0 -1800z m4085 1670 c-3 -5 -13 -10 -21 -10 -8 0 -14 5 -14 10 0 6 9 10 21
10 11 0 17 -4 14 -10z m415 -144 c0 -20 -19 -31 -32 -18 -6 6 -7 15 -4 21 10
16 36 13 36 -3z m-3206 -99 c12 -9 17 -23 14 -47 -3 -33 -5 -35 -37 -33 -18 0
-41 9 -50 18 -15 15 -14 16 14 13 28 -3 30 -1 27 30 -4 35 4 39 32 19z m-450
-80 c-10 -26 -22 -20 -16 9 3 15 8 22 14 16 5 -5 6 -16 2 -25z m756 -147 c0
-16 -35 -29 -50 -20 -12 7 -9 11 10 19 33 13 40 13 40 1z m-952 -614 c7 -32
-6 -48 -28 -36 -21 11 -36 52 -25 70 9 15 49 -11 53 -34z m432 -46 c0 -40 -18
-60 -56 -60 -14 0 -16 7 -11 37 6 37 28 63 54 63 8 0 13 -14 13 -40z m881 -23
c-8 -8 -11 -4 -11 14 0 33 14 47 18 19 2 -12 -1 -27 -7 -33z m-711 -157 c0
-23 -7 -33 -30 -45 -28 -14 -30 -14 -30 2 0 14 46 73 57 73 2 0 3 -13 3 -30z
m-745 -424 c-7 -41 -14 -44 -36 -17 -19 23 -26 81 -12 95 4 4 18 -5 31 -21 17
-20 21 -36 17 -57z m1751 -580 c-3 -14 -11 -26 -16 -26 -11 0 -13 30 -4 55 10
26 28 1 20 -29z m-506 -265 c0 -11 -4 -22 -8 -25 -14 -9 -35 12 -29 28 9 23
37 20 37 -3z m1828 -206 c4 -33 -12 -49 -37 -36 -20 11 -28 41 -14 55 14 14
48 1 51 -19z m-323 -56 c5 -6 2 -9 -10 -9 -34 0 -65 12 -59 22 7 11 54 2 69
-13z m-1965 -207 c0 -13 -3 -12 -15 4 -19 25 -19 40 0 24 8 -7 15 -20 15 -28z"/>
<path d="M2800 2103 c0 -6 8 -17 18 -24 16 -13 16 -13 2 6 -8 11 -16 22 -17
24 -2 2 -3 0 -3 -6z"/>
</g>
</svg>
