<?xml version="1.0" standalone="no"?>
<!DOCTYPE svg PUBLIC "-//W3C//DTD SVG 20010904//EN"
 "http://www.w3.org/TR/2001/REC-SVG-20010904/DTD/svg10.dtd">
<svg version="1.0" xmlns="http://www.w3.org/2000/svg"
 width="480.000000pt" height="360.000000pt" viewBox="0 0 480.000000 360.000000"
 preserveAspectRatio="xMidYMid meet">
<metadata>
Created by potrace 1.16, written by Peter Selinger 2001-2019
</metadata>
<rect width="1" height="360" fill="#000000"/>
<rect x="479" width="1" height="360" fill="#000000"/>
<rect width="480" height="1" fill="#000000"/>
<rect y="359" width="480" height="1" fill="#000000"/>
<g transform="translate(0.000000,360.000000) scale(0.100000,-0.100000)"
fill="#000000" stroke="none">
<path d="M0 2286 l0 -1314 88 27 c123 39 190 74 263 140 102 90 139 116 234
164 376 187 903 265 1538 227 179 -11 460 -37 488 -46 36 -10 68 16 125 103
70 106 130 233 178 370 19 56 42 116 51 133 14 28 15 56 5 268 l-11 237 -39
37 c-43 41 -65 96 -56 138 5 28 3 29 -48 40 -107 22 -175 115 -163 224 7 66
23 99 77 153 33 33 53 44 98 53 31 6 74 11 95 10 39 -1 39 0 32 32 -12 63 -17
69 -66 93 -28 15 -49 32 -49 41 0 9 -13 32 -30 51 -17 18 -30 37 -30 41 0 5
-57 8 -127 9 -147 0 -193 14 -193 58 l0 25 -1230 0 -1230 0 0 -1314z"/>
<path d="M3930 3570 c-7 -17 -27 -43 -46 -59 -39 -35 -35 -43 14 -29 20 6 74
8 119 5 73 -4 87 -8 137 -42 57 -38 66 -50 44 -58 -8 -3 -6 -8 7 -13 11 -4 31
-16 44 -26 l24 -18 -37 0 c-39 0 -45 -12 -22 -45 7 -11 19 -38 26 -60 7 -22
37 -92 67 -157 81 -174 83 -229 14 -325 l-20 -28 25 -150 c13 -82 28 -159 34
-170 5 -11 12 -31 16 -45 4 -14 66 -83 138 -155 143 -141 197 -204 239 -277
15 -26 32 -50 37 -53 7 -4 10 294 10 864 l0 871 -429 0 -429 0 -12 -30z"/>
<path d="M3313 2597 c-18 -8 -23 -19 -23 -46 -1 -20 -5 -147 -10 -283 -10
-273 -6 -256 -103 -493 -50 -121 -85 -245 -89 -314 -3 -42 -1 -45 27 -53 43
-11 397 -98 400 -98 2 0 6 22 10 49 4 26 13 60 20 75 29 55 29 93 1 127 -31
37 -32 50 -6 74 24 21 36 61 44 140 4 33 20 116 36 185 67 287 65 308 -35 350
-130 54 -148 73 -209 214 -19 43 -35 79 -37 80 -2 2 -14 -1 -26 -7z"/>
<path d="M1450 1300 c-280 -22 -609 -103 -810 -201 -81 -39 -159 -101 -215
-170 -78 -95 -130 -139 -208 -178 -79 -40 -77 -32 -32 -176 32 -100 55 -157
150 -376 42 -96 79 -180 82 -187 4 -9 315 -12 1508 -12 l1503 0 6 27 c3 16 13
129 21 251 9 123 22 272 30 330 32 232 59 471 54 477 -10 9 -219 66 -359 96
-125 28 -136 29 -147 13 -7 -9 -14 -21 -16 -27 -2 -6 -32 -4 -82 6 -44 9 -102
19 -130 22 -90 11 -106 17 -138 45 -30 26 -44 29 -187 45 -174 20 -844 29
-1030 15z"/>
</g>
</svg>
