<?xml version="1.0" standalone="no"?>
<!DOCTYPE svg PUBLIC "-//W3C//DTD SVG 20010904//EN"
 "http://www.w3.org/TR/2001/REC-SVG-20010904/DTD/svg10.dtd">
<svg version="1.0" xmlns="http://www.w3.org/2000/svg"
 width="480.000000pt" height="360.000000pt" viewBox="0 0 480.000000 360.000000"
 preserveAspectRatio="xMidYMid meet">
<metadata>
Created by potrace 1.16, written by Peter Selinger 2001-2019
</metadata>
<rect width="1" height="360" fill="#000000"/>
<rect x="479" width="1" height="360" fill="#000000"/>
<rect width="480" height="1" fill="#000000"/>
<rect y="359" width="480" height="1" fill="#000000"/>
<g transform="translate(0.000000,360.000000) scale(0.100000,-0.100000)"
fill="#000000" stroke="none">
<path d="M0 2260 c0 -1270 1 -1340 18 -1340 9 0 91 9 182 20 91 10 293 28 450
40 391 29 363 25 385 63 78 133 195 269 273 317 26 16 53 39 60 50 12 20 9 26
-47 77 -34 30 -61 60 -61 66 1 26 126 165 266 295 268 249 394 408 739 937 32
50 71 106 85 125 25 32 28 49 39 175 7 77 13 165 14 195 l2 54 -58 8 c-32 4
-74 15 -94 24 -49 24 -142 112 -188 179 l-38 55 -1014 0 -1013 0 0 -1340z"/>
<path d="M3186 3573 c-3 -16 -12 -75 -21 -133 -30 -196 -86 -525 -112 -655
-43 -222 -51 -237 -231 -477 -195 -259 -372 -523 -440 -655 -27 -54 -76 -163
-107 -243 -62 -156 -120 -283 -157 -342 -12 -20 -21 -39 -18 -41 3 -3 97 -10
210 -16 113 -7 279 -19 369 -27 90 -8 167 -11 171 -7 4 4 38 78 76 163 43 96
87 178 116 217 27 34 48 68 48 75 0 7 -16 24 -35 38 -47 34 -78 78 -78 110 0
30 82 209 118 256 14 18 25 36 25 41 0 4 14 28 30 53 171 253 290 523 450
1020 50 157 104 323 120 369 l28 83 -40 99 -40 99 -238 0 -238 0 -6 -27z"/>
<path d="M4634 3578 c4 -13 10 -100 13 -195 7 -200 8 -197 -107 -443 -144
-308 -193 -422 -272 -624 -115 -297 -142 -402 -218 -851 -11 -63 -45 -173 -76
-243 -21 -47 -30 -56 -73 -74 l-49 -21 5 -91 c3 -50 8 -124 12 -165 l6 -75 65
-17 c280 -72 401 -106 580 -162 113 -36 222 -72 243 -80 l37 -16 0 1540 0
1539 -86 0 c-85 0 -86 0 -80 -22z"/>
<path d="M1925 530 c-26 -29 -83 -37 -118 -16 -38 21 -49 21 -109 -10 -63 -32
-112 -34 -142 -5 -29 28 -35 27 -96 -14 -66 -44 -102 -46 -140 -5 l-29 31 -66
-46 c-36 -25 -72 -45 -79 -45 -28 0 -81 46 -91 79 l-10 34 -140 -6 c-159 -7
-547 -40 -738 -62 -71 -8 -137 -15 -148 -15 -18 0 -19 -10 -19 -225 l0 -225
2400 0 c2354 0 2400 0 2400 19 0 23 -65 48 -378 146 -342 107 -917 244 -957
229 -8 -4 -30 0 -48 9 -17 8 -46 17 -64 20 -27 5 -35 2 -58 -28 -29 -38 -51
-43 -96 -20 -19 11 -32 26 -36 45 -8 41 -35 39 -56 -5 -9 -19 -25 -35 -34 -36
-69 -4 -110 19 -119 66 -5 29 -11 34 -42 39 -140 22 -742 66 -903 66 -53 0
-69 -4 -84 -20z"/>
</g>
</svg>
