<?xml version="1.0" standalone="no"?>
<!DOCTYPE svg PUBLIC "-//W3C//DTD SVG 20010904//EN"
 "http://www.w3.org/TR/2001/REC-SVG-20010904/DTD/svg10.dtd">
<svg version="1.0" xmlns="http://www.w3.org/2000/svg"
 width="480.000000pt" height="360.000000pt" viewBox="0 0 480.000000 360.000000"
 preserveAspectRatio="xMidYMid meet">
<metadata>
Created by potrace 1.16, written by Peter Selinger 2001-2019
</metadata>
<rect width="1" height="360" fill="#000000"/>
<rect x="479" width="1" height="360" fill="#000000"/>
<rect width="480" height="1" fill="#000000"/>
<rect y="359" width="480" height="1" fill="#000000"/>
<g transform="translate(0.000000,360.000000) scale(0.100000,-0.100000)"
fill="#000000" stroke="none">
<path d="M1874 2815 c-4 -9 -2 -34 4 -58 6 -23 18 -111 28 -194 13 -121 14
-156 4 -168 -6 -8 -12 -37 -12 -65 1 -29 -4 -50 -10 -50 -17 0 -2 -65 32 -137
23 -51 30 -79 30 -129 0 -34 -4 -66 -10 -69 -11 -7 -4 -57 15 -100 7 -16 16
-79 19 -140 4 -60 9 -125 13 -144 3 -21 1 -36 -6 -41 -8 -5 -12 -45 -13 -126
0 -68 -6 -140 -14 -169 -8 -27 -21 -81 -30 -120 -9 -38 -24 -89 -35 -112 -10
-23 -21 -56 -24 -73 -3 -17 -11 -40 -18 -52 -9 -16 -9 -22 1 -25 6 -3 12 -10
12 -16 0 -17 121 -127 139 -127 9 0 22 -9 28 -20 12 -17 15 -18 40 -5 16 8 36
12 46 9 9 -3 17 0 17 6 0 6 4 9 9 5 6 -3 15 5 22 17 15 30 47 60 57 54 4 -2 8
16 9 41 1 25 7 49 14 54 10 6 10 13 1 33 -6 15 -7 28 -2 31 12 7 30 -27 30
-58 0 -31 20 -47 73 -59 82 -19 133 -20 164 -5 75 39 117 170 86 268 -13 39
-14 54 -5 75 18 39 14 87 -14 161 -38 101 -42 124 -56 292 -12 151 -12 154 9
171 16 13 23 33 28 93 4 42 11 74 16 71 16 -10 9 36 -11 75 -10 22 -22 54 -25
72 -3 19 -10 57 -15 84 -5 28 -12 75 -15 105 -9 72 -37 131 -86 174 -33 31
-46 36 -88 36 -58 0 -100 -25 -148 -88 -26 -34 -33 -53 -33 -87 0 -40 -3 -45
-35 -61 -51 -24 -65 -14 -65 45 0 39 -4 53 -21 64 -42 30 -57 78 -73 243 -9
87 -13 169 -10 182 4 12 1 29 -6 37 -16 19 -59 19 -66 0z m247 -695 c13 -8 25
-7 40 0 30 17 35 5 13 -35 -16 -31 -17 -39 -5 -67 15 -37 26 -88 18 -88 -2 0
-23 6 -45 14 -23 8 -56 13 -74 10 -50 -8 -65 10 -73 88 l-6 67 33 10 c45 13
76 13 99 1z m-76 -307 c-23 -56 -35 -63 -35 -22 0 36 14 59 37 59 11 0 10 -8
-2 -37z m130 -185 c-3 -18 -10 -73 -15 -122 -6 -49 -17 -101 -25 -117 -20 -38
-19 -45 15 -118 17 -35 28 -66 26 -68 -3 -3 -18 -2 -34 2 -36 7 -47 31 -62
130 -16 103 -31 168 -43 183 -5 7 -7 30 -4 52 3 22 1 43 -4 46 -5 3 -9 14 -9
25 0 17 7 19 80 19 l81 0 -6 -32z m25 -609 c0 -5 -4 -9 -10 -9 -5 0 -10 7 -10
16 0 8 5 12 10 9 6 -3 10 -10 10 -16z"/>
</g>
</svg>
