<?xml version="1.0" standalone="no"?>
<!DOCTYPE svg PUBLIC "-//W3C//DTD SVG 20010904//EN"
 "http://www.w3.org/TR/2001/REC-SVG-20010904/DTD/svg10.dtd">
<svg version="1.0" xmlns="http://www.w3.org/2000/svg"
 width="480.000000pt" height="360.000000pt" viewBox="0 0 480.000000 360.000000"
 preserveAspectRatio="xMidYMid meet">
<metadata>
Created by potrace 1.16, written by Peter Selinger 2001-2019
</metadata>
<rect width="1" height="360" fill="#000000"/>
<rect x="479" width="1" height="360" fill="#000000"/>
<rect width="480" height="1" fill="#000000"/>
<rect y="359" width="480" height="1" fill="#000000"/>
<g transform="translate(0.000000,360.000000) scale(0.100000,-0.100000)"
fill="#000000" stroke="none">
<path d="M1651 3390 c-18 -4 -44 -21 -58 -37 -22 -26 -23 -34 -18 -102 4 -41
9 -79 12 -84 3 -4 7 -36 9 -69 3 -34 8 -66 13 -72 4 -6 13 -30 20 -53 11 -39
19 -46 51 -45 3 0 24 3 47 7 l43 7 -7 -33 c-3 -19 -24 -60 -45 -93 -21 -32
-38 -65 -38 -72 0 -26 14 -46 37 -55 22 -8 24 -14 20 -42 -4 -17 -11 -86 -17
-152 -6 -66 -13 -125 -15 -132 -2 -7 0 -15 5 -18 6 -4 10 0 10 7 1 7 7 27 15
43 13 27 14 19 10 -90 -5 -107 -4 -117 8 -90 l14 30 7 -38 c7 -39 -4 -67 -28
-67 -6 0 -22 -17 -35 -37 -20 -31 -25 -58 -35 -172 l-11 -135 -30 -7 c-16 -4
-42 -10 -56 -13 -36 -8 -44 -34 -21 -65 43 -58 53 -89 43 -129 -5 -20 -15 -71
-21 -112 -12 -78 -33 -122 -197 -420 -35 -63 -63 -124 -63 -134 0 -11 12 -39
26 -63 l25 -44 -15 -69 c-22 -93 -21 -198 1 -222 15 -17 15 -26 -8 -136 -15
-73 -24 -151 -24 -209 0 -83 2 -94 24 -117 14 -14 35 -26 47 -26 13 0 24 -7
27 -18 3 -11 5 -8 6 9 0 15 8 32 17 40 24 20 137 185 199 291 30 51 55 89 55
85 0 -5 -27 -101 -60 -213 -33 -112 -60 -208 -60 -214 0 -7 239 -10 700 -10
537 0 700 3 700 12 0 7 -23 84 -51 172 l-51 161 21 65 c12 36 30 111 41 166
17 90 23 105 55 137 40 40 42 54 18 142 -16 60 -16 67 0 118 23 74 22 88 -17
165 -50 100 -142 321 -187 450 l-39 113 25 39 c43 69 25 125 -44 136 -21 3
-44 10 -51 14 -7 4 -18 46 -25 92 -7 46 -20 100 -29 120 -18 37 -75 89 -120
109 -30 14 -32 26 -10 58 16 22 16 24 0 33 -29 16 -13 151 29 242 18 39 39 77
48 84 24 20 40 107 33 178 l-7 64 26 -10 c42 -16 69 -12 85 13 28 43 46 82 59
127 7 25 17 54 22 65 42 100 58 175 39 175 -6 0 -10 9 -10 21 0 24 -38 42
-138 65 -134 32 -298 12 -344 -41 l-22 -25 -23 22 c-32 30 -160 39 -197 15
-22 -15 -24 -14 -35 9 -30 67 -288 117 -430 84z m289 -1916 c9 -41 10 -90 4
-159 -4 -55 -8 -121 -9 -147 0 -26 -4 -50 -7 -53 -16 -17 -35 273 -28 445 l1
35 13 -31 c8 -18 20 -58 26 -90z"/>
</g>
</svg>
