<?xml version="1.0" standalone="no"?>
<!DOCTYPE svg PUBLIC "-//W3C//DTD SVG 20010904//EN"
 "http://www.w3.org/TR/2001/REC-SVG-20010904/DTD/svg10.dtd">
<svg version="1.0" xmlns="http://www.w3.org/2000/svg"
 width="480.000000pt" height="360.000000pt" viewBox="0 0 480.000000 360.000000"
 preserveAspectRatio="xMidYMid meet">
<metadata>
Created by potrace 1.16, written by Peter Selinger 2001-2019
</metadata>
<rect width="1" height="360" fill="#000000"/>
<rect x="479" width="1" height="360" fill="#000000"/>
<rect width="480" height="1" fill="#000000"/>
<rect y="359" width="480" height="1" fill="#000000"/>
<g transform="translate(0.000000,360.000000) scale(0.100000,-0.100000)"
fill="#000000" stroke="none">
<path d="M2702 3265 c-61 -17 -104 -38 -149 -71 -17 -13 -45 -24 -62 -24 -30
0 -50 -27 -36 -49 3 -5 -8 -31 -25 -57 -47 -74 -70 -147 -78 -247 -9 -118 -9
-112 6 -109 6 1 12 -6 12 -15 0 -15 2 -15 9 -4 7 11 14 4 30 -27 25 -48 47
-67 37 -31 -7 23 -6 23 8 5 8 -10 17 -24 20 -30 3 -8 7 -7 14 2 7 10 11 10 22
-3 7 -9 18 -14 25 -12 17 7 16 -35 -2 -62 -15 -23 -15 -25 8 -42 24 -18 45
-37 66 -61 6 -7 32 -33 58 -58 43 -41 48 -43 75 -33 25 9 30 9 30 -3 0 -23 16
-16 28 12 14 30 32 23 32 -13 0 -33 -56 -102 -125 -154 -66 -50 -214 -224
-164 -193 8 4 9 -1 4 -17 -7 -21 -6 -22 9 -10 29 24 26 7 -14 -79 -22 -47 -45
-109 -51 -138 -11 -54 -9 -66 38 -270 l5 -23 -58 27 c-150 67 -212 91 -249 98
-22 4 -64 15 -93 24 -45 14 -57 22 -73 54 -11 21 -17 43 -14 49 4 5 0 21 -9
34 -20 31 -20 74 0 103 8 12 13 31 9 41 -4 14 0 21 15 26 12 4 26 18 31 33 8
22 5 33 -20 69 -17 24 -33 54 -37 68 -3 13 -12 29 -19 35 -13 11 -45 4 -45
-10 0 -4 -21 -10 -47 -14 -116 -15 -150 -71 -163 -264 -4 -70 -17 -171 -29
-224 -24 -113 -26 -143 -17 -257 7 -82 16 -112 43 -139 7 -7 13 -22 13 -32 0
-29 11 -50 26 -50 23 0 17 -36 -36 -226 -62 -218 -66 -258 -34 -279 14 -9 34
-13 51 -9 20 4 33 1 42 -10 8 -9 19 -16 27 -16 7 0 39 -29 70 -65 50 -56 129
-115 154 -115 22 0 17 37 -10 81 -16 27 -30 51 -30 53 0 6 114 26 145 24 36
-1 97 21 124 46 30 27 19 140 -39 426 -46 227 -48 246 -32 258 9 7 22 10 30 7
15 -6 272 -173 272 -177 0 -2 5 -30 10 -63 10 -62 -2 -163 -35 -280 -13 -45
-42 -177 -65 -295 -4 -25 -13 -88 -19 -140 -6 -52 -26 -150 -44 -217 l-34
-123 654 0 c359 0 653 2 653 6 0 3 -8 24 -19 47 -48 107 -85 197 -161 387 -91
229 -135 318 -251 501 -48 76 -79 136 -79 152 0 15 -9 50 -20 79 -28 75 -45
242 -30 312 6 31 16 58 21 62 6 3 8 12 5 20 -10 25 24 145 50 179 13 17 24 41
24 53 0 23 20 42 21 20 3 -52 14 -67 29 -39 6 12 15 19 20 16 14 -9 30 30 24
61 -16 96 -85 304 -113 343 -29 40 -27 55 4 35 14 -9 25 -23 25 -30 0 -10 6
-8 20 6 11 11 20 26 20 34 0 8 3 22 6 30 6 15 8 15 19 -1 11 -15 14 -13 26 20
10 29 16 34 26 25 11 -9 13 -4 7 32 -7 41 -6 42 16 35 20 -6 22 -5 16 11 -4
11 -10 35 -14 54 -5 32 -4 34 12 21 27 -23 28 -7 1 53 -30 67 -33 97 -4 44 11
-21 22 -38 25 -38 10 0 -6 52 -41 130 -18 41 -41 113 -50 160 -20 103 -41 172
-68 219 -28 50 -177 194 -224 216 -52 25 -218 31 -291 10z"/>
</g>
</svg>
