<?xml version="1.0" standalone="no"?>
<!DOCTYPE svg PUBLIC "-//W3C//DTD SVG 20010904//EN"
 "http://www.w3.org/TR/2001/REC-SVG-20010904/DTD/svg10.dtd">
<svg version="1.0" xmlns="http://www.w3.org/2000/svg"
 width="480.000000pt" height="360.000000pt" viewBox="0 0 480.000000 360.000000"
 preserveAspectRatio="xMidYMid meet">
<metadata>
Created by potrace 1.16, written by Peter Selinger 2001-2019
</metadata>
<rect width="1" height="360" fill="#000000"/>
<rect x="479" width="1" height="360" fill="#000000"/>
<rect width="480" height="1" fill="#000000"/>
<rect y="359" width="480" height="1" fill="#000000"/>
<g transform="translate(0.000000,360.000000) scale(0.100000,-0.100000)"
fill="#000000" stroke="none">
<path d="M0 1800 l0 -1800 1070 0 1070 0 0 44 c0 44 0 44 -50 61 -55 18 -60
30 -32 77 17 30 17 31 -5 45 -13 9 -23 21 -23 27 0 6 22 50 49 98 64 113 111
298 111 433 0 149 -19 313 -49 433 -34 138 -33 204 3 294 14 35 26 73 26 84 0
10 14 45 30 77 17 31 27 57 23 57 -5 0 -9 18 -9 41 -1 36 2 43 35 63 58 38 74
62 82 124 8 70 0 87 -80 170 -59 60 -61 63 -46 86 14 21 14 24 -1 36 -13 11
-17 11 -23 1 -12 -19 -47 2 -66 39 -17 33 -27 40 -19 13 3 -10 -2 -7 -10 7 -8
14 -15 33 -16 44 0 15 -3 16 -15 6 -13 -11 -15 -7 -15 30 0 51 25 151 50 201
11 20 42 57 70 82 132 119 343 170 465 113 96 -45 151 -98 199 -194 24 -48 49
-106 55 -127 17 -67 40 -243 51 -395 5 -80 25 -245 45 -366 21 -132 39 -291
45 -395 5 -96 14 -219 20 -274 14 -145 16 -378 6 -728 l-9 -307 881 0 882 0 0
1800 0 1800 -2400 0 -2400 0 0 -1800z"/>
</g>
</svg>
