<?xml version="1.0" standalone="no"?>
<!DOCTYPE svg PUBLIC "-//W3C//DTD SVG 20010904//EN"
 "http://www.w3.org/TR/2001/REC-SVG-20010904/DTD/svg10.dtd">
<svg version="1.0" xmlns="http://www.w3.org/2000/svg"
 width="480.000000pt" height="360.000000pt" viewBox="0 0 480.000000 360.000000"
 preserveAspectRatio="xMidYMid meet">
<metadata>
Created by potrace 1.16, written by Peter Selinger 2001-2019
</metadata>
<rect width="1" height="360" fill="#000000"/>
<rect x="479" width="1" height="360" fill="#000000"/>
<rect width="480" height="1" fill="#000000"/>
<rect y="359" width="480" height="1" fill="#000000"/>
<g transform="translate(0.000000,360.000000) scale(0.100000,-0.100000)"
fill="#000000" stroke="none">
<path d="M0 2178 l0 -1423 122 5 123 5 6 65 c12 119 10 238 -4 243 -8 3 -3 22
18 67 37 77 49 90 84 90 16 0 44 7 64 15 33 14 35 16 39 77 3 35 1 69 -4 75
-17 21 -2 40 44 55 38 13 43 19 46 47 2 18 -1 38 -6 44 -7 8 -3 21 14 42 24
30 24 30 30 8 4 -13 10 -23 15 -23 5 0 9 -7 9 -15 0 -8 -4 -15 -10 -15 -14 0
-12 -62 3 -81 7 -9 23 -20 37 -24 40 -12 51 -25 40 -45 -6 -10 -10 -46 -10
-79 0 -56 2 -60 30 -74 16 -8 47 -18 68 -22 38 -6 40 -9 67 -76 18 -48 24 -73
17 -82 -8 -10 -18 -213 -14 -269 2 -15 12 -18 57 -18 l55 0 0 98 0 98 57 92
c32 51 62 91 67 89 5 -2 31 -41 57 -88 46 -80 48 -87 49 -162 0 -53 4 -79 13
-82 12 -5 558 -35 626 -35 28 0 45 -12 105 -70 40 -38 76 -70 80 -70 5 0 6 91
5 202 l-4 203 50 72 c28 40 53 72 57 73 4 0 29 -34 56 -76 l49 -75 -5 -520 -5
-519 1302 0 1301 0 0 1800 0 1800 -2400 0 -2400 0 0 -1422z m3110 460 c11 -18
20 -50 20 -70 0 -21 7 -55 16 -77 l16 -40 101 -23 c55 -13 102 -28 104 -34 6
-19 -44 -67 -74 -69 -15 -1 -41 -3 -58 -3 l-29 -2 38 -39 c23 -23 33 -40 26
-43 -9 -3 -4 -20 15 -58 22 -44 24 -52 9 -39 -33 29 -48 27 -68 -5 -17 -28
-20 -29 -26 -12 -6 18 -7 18 -13 2 -4 -10 -7 -29 -7 -42 0 -14 -5 -34 -10 -45
-14 -24 -12 -24 42 6 36 20 150 65 165 65 1 0 3 -11 3 -24 0 -33 -19 -85 -48
-129 -14 -20 -23 -39 -21 -41 2 -3 73 -6 157 -8 152 -3 152 -3 127 -22 -24
-17 -25 -19 -8 -31 10 -6 31 -15 46 -19 22 -5 27 -11 22 -25 -5 -16 3 -21 45
-31 53 -13 67 -30 25 -30 -33 0 -32 -16 3 -34 16 -8 34 -22 41 -30 12 -14 8
-15 -30 -12 -24 3 -47 2 -52 -1 -5 -3 6 -21 25 -41 30 -32 31 -34 10 -29 -23
5 -23 5 -6 -15 17 -18 18 -20 1 -29 -24 -14 -4 -43 45 -65 44 -20 51 -38 12
-28 -19 5 -25 4 -20 -5 10 -16 1 -14 -45 10 -23 11 -43 18 -46 16 -10 -11 23
-47 49 -52 51 -12 42 -26 -11 -19 -38 5 -51 3 -51 -6 0 -9 -7 -8 -25 4 -28 19
-35 20 -35 6 0 -5 10 -12 23 -15 26 -7 56 -45 35 -45 -7 0 -22 7 -32 15 -38
28 -43 17 -20 -40 5 -13 -8 -6 -40 22 -27 24 -52 41 -56 38 -13 -8 -18 -53 -7
-64 8 -8 8 -11 0 -11 -6 0 -16 -12 -21 -27 -10 -26 -10 -26 -11 -5 -1 13 -5
21 -10 17 -5 -3 -11 7 -13 22 -2 18 -10 29 -23 32 -11 2 -35 14 -55 27 l-35
24 -6 -39 c-7 -50 -24 -71 -58 -71 -43 0 -53 14 -68 91 -11 58 -20 80 -45 106
-50 51 -64 45 -88 -39 -12 -40 -25 -84 -29 -98 -19 -61 -81 -21 -89 57 -4 42
-8 50 -38 64 l-33 16 6 -29 c7 -35 -14 -39 -23 -3 -3 13 -16 27 -27 31 -36 11
-49 25 -36 40 6 7 8 18 4 24 -11 18 -25 11 -25 -15 0 -14 -4 -25 -9 -25 -16 0
-31 27 -25 45 5 11 1 21 -10 27 -9 5 -21 21 -27 35 -13 35 4 53 53 53 30 0 46
7 68 29 16 15 45 36 64 45 20 9 36 25 36 34 1 9 7 34 14 55 18 49 4 104 -32
134 -17 13 -28 32 -29 50 0 15 -4 47 -8 70 -6 34 -3 49 13 77 12 20 17 38 11
41 -5 4 -9 24 -9 46 0 47 -23 96 -47 101 -10 2 -29 1 -43 -3 -68 -20 -77 -19
-88 6 -11 23 -9 26 48 52 33 15 60 30 60 33 0 4 -11 12 -25 18 -38 18 -30 30
13 19 49 -13 87 10 112 68 10 23 32 58 50 79 29 32 37 36 81 36 45 0 51 -3 69
-32z"/>
<path d="M3540 1890 c0 -5 5 -10 11 -10 5 0 7 5 4 10 -3 6 -8 10 -11 10 -2 0
-4 -4 -4 -10z"/>
<path d="M2865 1670 c-3 -5 -2 -10 4 -10 5 0 13 5 16 10 3 6 2 10 -4 10 -5 0
-13 -4 -16 -10z"/>
</g>
</svg>
