<?xml version="1.0" standalone="no"?>
<!DOCTYPE svg PUBLIC "-//W3C//DTD SVG 20010904//EN"
 "http://www.w3.org/TR/2001/REC-SVG-20010904/DTD/svg10.dtd">
<svg version="1.0" xmlns="http://www.w3.org/2000/svg"
 width="480.000000pt" height="360.000000pt" viewBox="0 0 480.000000 360.000000"
 preserveAspectRatio="xMidYMid meet">
<metadata>
Created by potrace 1.16, written by Peter Selinger 2001-2019
</metadata>
<rect width="1" height="360" fill="#000000"/>
<rect x="479" width="1" height="360" fill="#000000"/>
<rect width="480" height="1" fill="#000000"/>
<rect y="359" width="480" height="1" fill="#000000"/>
<g transform="translate(0.000000,360.000000) scale(0.100000,-0.100000)"
fill="#000000" stroke="none">
<path d="M1 2183 c0 -984 3 -1410 11 -1393 121 293 149 496 95 685 -15 49 -25
91 -23 93 2 2 34 -26 71 -62 44 -43 81 -70 112 -80 54 -19 141 -20 198 -2 38
11 40 14 39 51 -1 44 -11 72 -82 215 -44 90 -103 162 -172 210 l-22 15 41 51
c43 55 255 212 384 285 89 51 96 64 77 148 -16 68 -25 81 -56 81 -23 0 -36 -9
-118 -80 -84 -73 -292 -220 -312 -220 -6 0 -17 -7 -24 -15 -15 -18 -40 -20
-40 -4 0 17 62 137 107 205 40 61 191 264 241 323 l29 35 13 -25 c17 -32 44
-54 114 -90 45 -24 61 -28 67 -18 6 11 11 10 26 -2 18 -16 91 -59 99 -59 2 0
4 16 4 35 0 19 2 35 5 35 2 0 26 -8 52 -19 26 -10 59 -21 73 -24 24 -6 25 -5
22 38 -4 48 8 58 40 33 14 -11 15 -24 8 -93 -4 -44 -11 -92 -15 -107 -8 -31
-4 -33 27 -17 21 11 21 10 15 -55 -3 -36 -4 -66 -2 -66 3 0 19 19 35 42 31 43
65 61 56 30 -3 -9 -8 -39 -11 -67 l-6 -50 26 30 27 30 -17 -35 c-10 -19 -23
-42 -30 -50 -11 -13 -21 -48 -38 -140 -2 -8 -7 -28 -11 -43 -10 -33 -2 -45 19
-27 21 17 19 8 -15 -94 -17 -49 -30 -92 -30 -94 0 -3 14 7 32 24 24 23 29 25
23 9 -14 -36 -23 -89 -25 -140 -4 -78 -2 -88 15 -81 12 4 14 0 8 -22 -3 -15
-12 -42 -20 -59 -15 -38 -10 -40 51 -14 45 20 45 20 51 0 5 -16 0 -53 -21
-144 -1 -5 -5 -19 -10 -30 -5 -15 2 -12 27 13 19 17 38 32 41 32 9 0 -11 -60
-26 -80 -25 -34 -47 -81 -41 -90 11 -17 -13 -79 -46 -121 l-33 -41 35 7 c19 4
47 13 62 20 27 14 28 13 24 -13 -3 -15 -10 -40 -16 -55 -16 -40 -14 -52 6 -36
15 13 16 11 9 -16 -6 -26 8 -15 98 74 97 97 133 121 107 73 -6 -11 -7 -31 -2
-48 5 -17 3 -45 -3 -69 -16 -55 -10 -78 17 -69 19 6 20 5 10 -8 -7 -8 -11 -17
-8 -20 3 -3 -1 -11 -10 -18 -18 -15 -20 -43 -3 -38 7 3 22 -5 33 -16 24 -23
24 -22 -33 -116 -30 -48 -27 -55 11 -27 17 13 39 28 47 32 13 8 13 7 1 -8 -7
-9 -10 -17 -5 -17 4 0 -3 -12 -17 -27 -15 -17 -18 -24 -8 -21 12 5 15 -1 14
-28 -1 -29 2 -33 18 -28 16 5 16 2 -6 -33 -13 -21 -27 -44 -32 -52 -4 -8 17 0
47 17 32 18 63 30 72 26 14 -5 12 -12 -10 -50 -26 -44 -21 -54 17 -34 17 10
19 8 16 -18 -2 -16 -13 -45 -25 -64 -25 -40 -28 -55 -10 -41 7 6 22 12 33 15
19 5 19 0 -12 -91 -18 -52 -30 -97 -28 -100 3 -2 19 8 35 24 17 16 30 24 30
18 0 -6 9 -13 20 -16 16 -4 20 -14 20 -49 0 -24 -5 -49 -11 -55 -8 -8 -8 -21
1 -47 6 -20 9 -40 5 -46 -4 -7 136 -10 428 -10 l435 0 12 63 c6 34 18 94 25
132 70 362 127 730 174 1122 6 46 19 99 29 119 l19 37 6 -59 c4 -42 1 -79 -13
-129 -18 -67 -18 -171 1 -160 4 3 9 -9 11 -27 l3 -33 20 33 c21 36 40 43 30
12 -5 -14 -2 -20 9 -20 10 0 16 -9 16 -22 0 -20 1 -20 19 -4 22 20 41 14 41
-12 1 -13 6 -10 24 11 l23 29 7 -27 c7 -26 8 -27 21 -9 13 18 14 17 21 -13 3
-18 19 -47 35 -64 16 -18 29 -37 29 -43 0 -6 5 -5 12 2 19 19 28 14 29 -15 0
-26 1 -26 16 10 14 34 33 50 33 28 0 -15 63 -77 67 -65 2 6 10 20 19 30 13 18
14 16 8 -18 -5 -31 -2 -41 20 -63 14 -14 26 -35 26 -45 0 -23 10 -26 28 -8 9
9 12 8 12 -4 0 -40 21 -24 35 27 17 58 35 73 35 29 0 -14 8 -38 19 -52 10 -15
22 -37 25 -50 4 -12 11 -20 16 -17 5 3 13 -2 18 -12 8 -14 12 -12 27 18 13 23
20 29 23 19 9 -30 64 -110 72 -105 5 3 15 -2 23 -10 22 -21 27 -19 28 13 1 17
3 21 6 9 3 -10 10 -16 16 -14 7 2 21 -3 31 -12 18 -15 19 -14 12 39 -3 30 -19
98 -36 150 -16 52 -30 100 -30 105 0 6 16 -17 36 -50 41 -67 63 -96 136 -173
45 -47 81 -70 62 -40 -8 13 12 3 40 -21 18 -15 18 -15 11 7 -7 25 -45 92 -125
222 -53 87 -211 397 -225 441 -15 46 -204 488 -286 667 -16 35 -29 65 -29 67
0 3 -15 37 -34 77 -18 40 -50 111 -71 158 -51 115 -134 279 -157 313 -47 67
-179 143 -348 200 -307 105 -461 174 -595 267 -76 52 -262 245 -331 342 -42
59 -64 102 -74 142 -13 54 -14 56 -46 56 -18 0 -48 -9 -67 -20 -47 -28 -217
-76 -217 -61 0 13 20 36 20 24 0 -7 5 -13 11 -13 6 0 9 14 7 33 -3 31 -5 32
-50 35 -45 3 -48 1 -48 -21 0 -13 -5 -37 -10 -54 -9 -25 -16 -29 -53 -31 -23
-2 -50 -5 -60 -8 -9 -3 -17 -3 -17 1 0 12 40 84 50 90 5 3 10 10 10 16 0 5
-239 9 -620 9 l-620 0 1 -1417z m956 1327 c-8 -37 -3 -38 26 -4 l23 26 1 -41
c2 -33 -1 -41 -16 -41 -10 0 -39 -3 -65 -6 l-46 -7 0 41 c0 22 5 44 11 48 8 5
10 -2 6 -22 l-5 -29 25 33 c32 40 47 41 40 2z m98 -50 c-3 -5 -12 -7 -20 -4
-12 5 -12 10 -4 27 10 18 12 19 21 4 5 -10 6 -21 3 -27z"/>
<path d="M1260 3580 c0 -11 5 -20 10 -20 6 0 10 9 10 20 0 11 -4 20 -10 20 -5
0 -10 -9 -10 -20z"/>
</g>
</svg>
