<?xml version="1.0" standalone="no"?>
<!DOCTYPE svg PUBLIC "-//W3C//DTD SVG 20010904//EN"
 "http://www.w3.org/TR/2001/REC-SVG-20010904/DTD/svg10.dtd">
<svg version="1.0" xmlns="http://www.w3.org/2000/svg"
 width="480.000000pt" height="360.000000pt" viewBox="0 0 480.000000 360.000000"
 preserveAspectRatio="xMidYMid meet">
<metadata>
Created by potrace 1.16, written by Peter Selinger 2001-2019
</metadata>
<rect width="1" height="360" fill="#000000"/>
<rect x="479" width="1" height="360" fill="#000000"/>
<rect width="480" height="1" fill="#000000"/>
<rect y="359" width="480" height="1" fill="#000000"/>
<g transform="translate(0.000000,360.000000) scale(0.100000,-0.100000)"
fill="#000000" stroke="none">
<path d="M2325 3220 c-134 -8 -213 -39 -274 -105 -77 -83 -131 -235 -131 -365
0 -37 -5 -73 -12 -83 -7 -9 -53 -46 -103 -82 -72 -52 -97 -65 -127 -65 -46 0
-53 -11 -28 -43 11 -14 20 -40 20 -59 0 -37 15 -59 36 -51 7 2 50 -25 94 -61
45 -36 89 -66 97 -66 11 0 13 -7 8 -32 l-7 -33 23 22 24 21 27 -44 27 -43 -32
-48 c-18 -26 -47 -58 -66 -70 -40 -27 -26 -37 39 -31 46 4 48 -2 25 -78 -8
-27 -15 -51 -15 -53 0 -3 14 8 31 25 l32 29 -6 -42 c-3 -24 -2 -43 2 -43 4 0
17 23 29 52 22 52 22 52 38 29 9 -12 18 -40 21 -62 3 -21 10 -39 14 -39 5 0 9
5 9 11 0 5 4 8 9 4 6 -3 14 2 19 11 8 14 14 9 37 -30 15 -25 30 -46 34 -46 4
0 2 30 -5 68 -9 48 -9 62 0 49 6 -10 28 -45 49 -78 20 -33 42 -57 47 -54 6 3
10 -1 10 -9 0 -25 -17 -29 -158 -37 -74 -5 -160 -16 -191 -25 -61 -17 -80 -35
-211 -187 l-75 -87 -53 0 c-29 0 -62 -5 -73 -11 -43 -22 -132 63 -271 259 -59
82 -107 136 -165 185 l-81 69 5 54 c5 49 4 54 -14 54 -20 0 -56 -35 -139 -135
-139 -168 -250 -269 -444 -400 -191 -130 -200 -145 -84 -145 88 0 116 -14 179
-86 60 -67 94 -85 121 -63 9 7 38 46 65 86 28 40 53 73 58 73 5 0 14 -29 21
-65 7 -36 16 -65 21 -65 13 0 47 58 54 92 9 37 27 35 76 -9 51 -46 86 -106 95
-160 3 -24 10 -43 13 -43 4 0 34 9 66 21 122 43 198 11 291 -121 30 -44 60
-80 65 -80 6 0 24 7 40 16 17 8 32 14 34 12 2 -2 0 -22 -5 -44 -5 -22 -16 -93
-25 -157 -12 -92 -12 -128 -4 -169 16 -72 32 -93 95 -124 83 -40 137 -26 186
51 l20 30 -7 -80 c-8 -99 -34 -229 -46 -233 -5 -2 -9 -10 -9 -17 0 -20 -79
-142 -96 -149 -8 -3 -14 -12 -14 -21 0 -13 67 -15 590 -15 583 0 590 0 590 20
0 19 -11 32 -57 68 -18 14 -22 29 -25 92 l-3 74 42 7 c46 8 93 30 111 51 6 8
16 48 22 89 15 100 50 278 61 306 6 17 17 23 37 23 33 0 52 16 52 43 0 11 8
25 17 32 15 11 15 15 -6 48 -22 36 -21 57 3 57 7 0 31 16 53 35 23 19 48 35
56 35 8 0 66 -26 128 -58 103 -52 154 -84 363 -229 33 -24 69 -43 79 -43 10 0
45 18 78 41 33 22 81 48 105 56 42 14 49 14 98 -5 60 -23 141 -73 204 -126 52
-43 60 -44 68 -11 9 36 66 82 126 100 74 23 196 30 242 15 l36 -12 -4 -69 c-2
-38 -1 -69 3 -69 3 0 21 18 39 40 l32 39 0 464 c0 437 -1 465 -18 480 -30 27
-40 20 -48 -29 -4 -26 -15 -54 -26 -63 -10 -9 -76 -32 -146 -53 -130 -37 -162
-51 -402 -174 -74 -38 -169 -78 -210 -89 -105 -28 -232 -25 -385 9 -66 14
-131 26 -145 26 -30 0 -50 -17 -50 -42 0 -19 -13 -22 -70 -18 -66 4 -77 14
-85 72 -3 29 -16 88 -27 130 -33 126 -92 176 -254 213 -72 17 -231 93 -255
121 -7 10 -9 15 -2 11 14 -9 33 22 33 52 0 12 4 21 10 21 5 0 7 -13 3 -31 -6
-29 -5 -30 15 -18 11 7 18 19 15 26 -3 7 0 13 6 13 6 0 11 -4 11 -9 0 -5 11
-11 25 -13 22 -5 26 0 39 41 l14 46 1 -57 c1 -32 5 -58 9 -58 4 0 18 19 30 43
l22 42 -3 -37 c-2 -21 0 -38 3 -38 3 0 23 36 45 79 42 87 51 91 86 33 l22 -37
9 28 10 27 34 -21 c38 -23 42 -17 16 26 -10 17 -24 45 -30 64 l-12 34 40 -7
c43 -7 54 6 21 24 -27 14 -61 72 -61 105 0 15 9 38 19 51 11 13 17 32 15 42
-2 9 13 53 35 97 l39 80 -38 36 c-36 35 -70 112 -56 127 4 3 35 -7 71 -21 36
-15 72 -27 80 -27 9 0 23 -4 33 -9 38 -20 90 -41 136 -53 54 -14 52 -16 109
76 36 58 44 105 24 145 -9 19 -12 33 -6 37 10 6 19 7 129 19 85 9 94 11 98 24
2 7 -8 26 -24 42 -31 33 -63 84 -94 149 -11 25 -25 53 -30 62 -25 45 -36 99
-33 160 4 78 -9 99 -60 93 -72 -9 -107 -17 -113 -26 -3 -5 -13 -9 -23 -9 -9 0
-22 -5 -29 -12 -6 -6 -22 -13 -34 -15 -13 -2 -46 -19 -74 -38 -28 -19 -56 -35
-62 -35 -6 0 -27 -14 -47 -31 -20 -18 -38 -29 -42 -25 -3 3 -12 1 -20 -5 -10
-9 -18 -5 -35 17 -70 91 -184 156 -315 179 -82 15 -232 17 -418 5z m-327
-1035 c-3 -3 -9 2 -12 12 -6 14 -5 15 5 6 7 -7 10 -15 7 -18z m331 -374 c8
-14 7 -22 -4 -31 -13 -11 -15 -8 -15 19 0 36 5 39 19 12z"/>
</g>
</svg>
