<?xml version="1.0" standalone="no"?>
<!DOCTYPE svg PUBLIC "-//W3C//DTD SVG 20010904//EN"
 "http://www.w3.org/TR/2001/REC-SVG-20010904/DTD/svg10.dtd">
<svg version="1.0" xmlns="http://www.w3.org/2000/svg"
 width="480.000000pt" height="360.000000pt" viewBox="0 0 480.000000 360.000000"
 preserveAspectRatio="xMidYMid meet">
<metadata>
Created by potrace 1.16, written by Peter Selinger 2001-2019
</metadata>
<rect width="1" height="360" fill="#000000"/>
<rect x="479" width="1" height="360" fill="#000000"/>
<rect width="480" height="1" fill="#000000"/>
<rect y="359" width="480" height="1" fill="#000000"/>
<g transform="translate(0.000000,360.000000) scale(0.100000,-0.100000)"
fill="#000000" stroke="none">
<path d="M2266 3058 c-9 -12 -16 -41 -16 -63 0 -58 -17 -79 -54 -65 -16 6 -45
23 -65 39 -57 44 -61 45 -61 18 0 -13 13 -44 30 -68 29 -43 39 -79 21 -79 -20
0 -75 -57 -92 -95 -24 -55 -33 -157 -20 -229 16 -89 53 -158 114 -218 158
-154 220 -204 237 -193 16 10 44 -11 90 -70 25 -30 62 -68 83 -82 21 -15 45
-40 53 -55 8 -16 26 -33 38 -38 15 -5 29 -23 36 -47 22 -67 57 -127 97 -165
21 -20 141 -94 268 -164 238 -130 308 -174 435 -268 41 -31 86 -59 100 -63 14
-3 35 -13 48 -21 21 -14 26 -13 52 7 16 12 51 24 77 27 27 4 64 17 83 30 26
17 60 25 129 33 102 11 135 26 145 66 8 33 -13 79 -39 83 -87 13 -87 32 2 92
71 48 91 78 79 124 -5 19 -15 28 -36 33 -38 7 -38 18 5 72 28 34 35 53 35 86
0 23 9 62 20 87 20 46 20 37 -6 215 -3 20 -13 37 -27 44 -12 6 -32 21 -45 32
-12 11 -37 26 -55 33 -17 7 -58 22 -90 35 -57 22 -59 22 -128 5 -38 -9 -118
-23 -177 -31 -59 -7 -156 -23 -217 -33 -165 -30 -288 -37 -303 -19 -9 11 -10
22 -2 41 5 15 10 45 10 67 0 22 7 56 15 76 18 43 7 63 -35 63 -30 0 -53 20
-42 36 4 5 24 20 45 33 41 25 48 54 17 71 -12 6 -20 21 -20 35 0 39 -39 73
-91 78 -41 4 -47 2 -61 -23 -8 -15 -41 -44 -72 -65 l-57 -37 -85 15 c-86 16
-190 58 -231 93 -24 20 -32 86 -18 152 6 29 3 38 -23 65 -16 18 -42 55 -56 84
-28 56 -77 118 -107 133 -14 8 -21 5 -33 -12z"/>
<path d="M4730 2422 c-69 -125 -107 -221 -96 -248 5 -13 14 -15 41 -10 46 9
46 -1 -6 -111 -47 -99 -79 -194 -79 -236 0 -19 7 -30 23 -36 21 -8 172 1 182
11 3 3 4 172 3 376 l-3 371 -65 -117z"/>
</g>
</svg>
