<?xml version="1.0" standalone="no"?>
<!DOCTYPE svg PUBLIC "-//W3C//DTD SVG 20010904//EN"
 "http://www.w3.org/TR/2001/REC-SVG-20010904/DTD/svg10.dtd">
<svg version="1.0" xmlns="http://www.w3.org/2000/svg"
 width="480.000000pt" height="360.000000pt" viewBox="0 0 480.000000 360.000000"
 preserveAspectRatio="xMidYMid meet">
<metadata>
Created by potrace 1.16, written by Peter Selinger 2001-2019
</metadata>
<rect width="1" height="360" fill="#000000"/>
<rect x="479" width="1" height="360" fill="#000000"/>
<rect width="480" height="1" fill="#000000"/>
<rect y="359" width="480" height="1" fill="#000000"/>
<g transform="translate(0.000000,360.000000) scale(0.100000,-0.100000)"
fill="#000000" stroke="none">
<path d="M0 1800 l0 -1800 1043 1 c877 1 1036 3 1002 14 -22 8 -47 14 -57 14
-25 1 -145 55 -146 66 -1 6 -11 23 -23 39 -19 25 -26 28 -64 24 -34 -4 -42 -2
-41 10 0 9 -11 22 -26 30 -36 17 -35 31 5 84 28 37 31 47 23 70 -8 24 -5 34
21 70 38 54 153 155 303 266 167 124 268 230 382 402 53 80 135 197 182 260
103 137 110 165 44 174 -39 6 -129 27 -136 31 -1 1 9 27 23 57 30 65 40 130
31 192 -9 55 -12 54 -84 -27 -52 -57 -52 -58 -37 -87 19 -36 19 -61 1 -85 -10
-14 -12 -39 -9 -95 5 -63 2 -87 -17 -138 -22 -61 -32 -72 -45 -52 -5 8 -12 7
-22 -2 -14 -11 -15 -10 -8 12 15 48 24 94 18 100 -3 3 -8 -1 -10 -8 -7 -20
-55 -73 -60 -68 -3 3 4 20 16 39 11 19 21 44 21 56 0 21 -1 21 -26 5 -19 -13
-28 -14 -37 -5 -8 8 -8 11 1 11 39 0 69 79 37 97 -22 13 -65 104 -65 140 0 26
16 52 83 130 45 54 89 105 97 113 8 8 32 37 54 63 31 38 37 52 31 74 -4 16 -6
57 -6 92 0 57 -3 67 -26 89 l-26 24 7 -40 c6 -41 -1 -47 -31 -29 -8 5 -13 4
-13 -2 0 -6 -4 -11 -10 -11 -5 0 -10 5 -10 10 0 6 -12 29 -26 51 -24 38 -26
53 -32 198 -13 300 -11 308 86 409 54 56 77 73 117 84 l50 15 3 48 c2 26 11
59 20 73 36 55 102 234 102 277 0 12 7 39 15 59 15 36 15 37 -4 26 -11 -5 -27
-20 -37 -33 l-16 -22 5 25 c2 14 8 34 12 44 6 13 5 17 -2 13 -6 -4 -14 0 -17
9 -4 11 7 32 29 59 19 24 35 46 35 49 0 3 -614 6 -1365 6 l-1365 0 0 -1800z
m200 1765 c0 -9 -7 -18 -16 -22 -18 -7 -39 11 -30 26 11 17 46 13 46 -4z m140
-175 c0 -5 -4 -10 -10 -10 -5 0 -10 5 -10 10 0 6 5 10 10 10 6 0 10 -4 10 -10z
m0 -265 c0 -8 -4 -15 -10 -15 -5 0 -10 7 -10 15 0 8 5 15 10 15 6 0 10 -7 10
-15z m1420 -249 c0 -3 -4 -8 -10 -11 -5 -3 -10 -1 -10 4 0 6 5 11 10 11 6 0
10 -2 10 -4z m-1670 -86 c0 -13 -48 -32 -69 -27 -11 2 -7 8 14 20 35 19 55 21
55 7z m-20 -269 c0 -18 -21 -64 -26 -58 -9 8 6 67 17 67 5 0 9 -4 9 -9z m1897
-549 c16 -9 15 -11 -9 -17 -28 -7 -98 11 -98 25 0 21 64 16 107 -8z m-984
-563 c4 -14 -1 -21 -20 -26 -29 -7 -56 6 -61 30 -6 31 73 28 81 -4z m-583 -78
c-1 -16 -23 -51 -33 -51 -13 0 -16 36 -6 68 11 33 13 34 25 17 8 -10 14 -26
14 -34z m141 -328 c-7 -15 -23 -36 -36 -46 -25 -18 -25 -18 -25 6 0 26 16 50
45 65 26 14 30 8 16 -25z m1591 -35 c-6 -6 -15 -8 -19 -4 -4 4 -1 11 7 16 19
12 27 3 12 -12z m-1112 -413 c0 -8 -82 -47 -87 -41 -7 6 58 46 75 46 6 0 12
-2 12 -5z m-833 -132 c-14 -15 -29 -24 -33 -21 -3 4 6 19 21 33 14 15 29 24
33 21 3 -4 -6 -19 -21 -33z"/>
<path d="M2980 3518 c0 -83 -27 -222 -29 -150 -1 41 -17 42 -25 1 -9 -47 -63
-136 -107 -178 -41 -38 -48 -61 -26 -80 28 -22 39 -88 26 -147 -12 -54 -12
-55 18 -87 56 -60 72 -88 83 -145 6 -31 13 -67 16 -79 3 -17 0 -21 -10 -17
-11 4 -16 -4 -19 -28 -8 -58 -7 -100 3 -119 7 -12 6 -27 -2 -45 l-13 -27 -6
24 c-7 22 -7 22 -8 -6 -2 -27 -3 -28 -15 -12 -17 22 -26 22 -26 -3 0 -11 -5
-20 -11 -20 -8 0 -9 -13 -5 -40 5 -33 4 -38 -9 -34 -11 5 -14 0 -13 -17 1 -13
-2 -34 -6 -45 -5 -18 0 -26 28 -44 19 -11 47 -35 62 -53 14 -18 59 -66 99
-108 107 -112 113 -143 58 -309 -25 -76 -26 -87 -16 -154 7 -52 17 -80 32 -95
16 -16 19 -26 12 -40 -7 -12 -1 -65 20 -177 52 -276 88 -513 109 -712 11 -106
34 -261 51 -345 17 -83 29 -168 27 -189 l-4 -38 763 0 763 0 0 1800 0 1800
-910 0 -910 0 0 -82z m1230 -1458 c0 -6 -8 -25 -17 -43 -14 -26 -18 -29 -21
-13 -2 10 2 29 9 42 13 25 29 32 29 14z"/>
</g>
</svg>
