<?xml version="1.0" standalone="no"?>
<!DOCTYPE svg PUBLIC "-//W3C//DTD SVG 20010904//EN"
 "http://www.w3.org/TR/2001/REC-SVG-20010904/DTD/svg10.dtd">
<svg version="1.0" xmlns="http://www.w3.org/2000/svg"
 width="480.000000pt" height="360.000000pt" viewBox="0 0 480.000000 360.000000"
 preserveAspectRatio="xMidYMid meet">
<metadata>
Created by potrace 1.16, written by Peter Selinger 2001-2019
</metadata>
<rect width="1" height="360" fill="#000000"/>
<rect x="479" width="1" height="360" fill="#000000"/>
<rect width="480" height="1" fill="#000000"/>
<rect y="359" width="480" height="1" fill="#000000"/>
<g transform="translate(0.000000,360.000000) scale(0.100000,-0.100000)"
fill="#000000" stroke="none">
<path d="M0 1800 l0 -1800 966 0 966 0 -9 53 c-14 89 -6 313 15 442 12 66 24
156 27 200 4 44 13 108 20 142 12 58 11 63 -9 82 -20 21 -21 31 -20 239 0 190
3 227 22 295 21 75 21 107 -1 107 -15 0 -131 -42 -142 -52 -5 -4 -38 -8 -73
-8 -57 0 -67 3 -93 29 -16 16 -29 40 -29 53 0 13 41 91 90 172 50 81 90 150
90 153 0 3 -10 13 -22 23 l-22 17 38 20 38 20 -107 87 -108 88 -21 -27 -22
-28 -26 32 c-15 17 -34 55 -42 85 -19 64 -36 82 -65 67 -32 -17 -61 -14 -61 8
0 11 -9 21 -21 24 -19 5 -21 11 -16 46 5 40 5 40 -68 95 -81 61 -76 48 -96
233 -15 135 -10 152 51 171 23 7 45 10 48 7 3 -3 -2 -19 -11 -34 -24 -40 -22
-53 7 -45 14 3 34 3 46 -1 17 -5 19 -10 9 -21 -6 -8 -17 -14 -24 -14 -13 0
-45 -42 -45 -59 0 -6 6 -8 13 -5 17 6 67 -33 67 -51 0 -9 -6 -12 -15 -9 -24
10 -17 -10 14 -40 27 -25 35 -28 72 -22 30 5 48 2 66 -9 13 -9 32 -13 43 -10
22 7 51 -43 43 -74 -7 -27 32 -50 114 -68 73 -15 87 -26 71 -56 -12 -24 -21
-16 144 -125 75 -50 139 -96 143 -102 15 -24 57 -31 117 -19 32 6 61 16 64 21
9 14 42 182 37 188 -2 2 -8 -2 -12 -9 -12 -19 -31 -4 -31 24 0 13 -6 30 -12
37 -21 22 -15 136 9 183 25 47 75 96 122 120 29 14 32 20 26 43 -18 73 -17 79
6 96 30 20 77 21 100 0 17 -15 19 -13 44 35 17 34 32 51 44 51 27 0 81 -48 81
-71 0 -23 18 -24 44 -4 30 23 46 18 53 -16 6 -34 33 -49 87 -49 57 0 102 -78
91 -155 -7 -46 2 -73 39 -113 11 -13 22 -33 23 -45 16 -144 16 -149 -23 -257
-41 -117 -51 -176 -36 -219 12 -34 5 -46 -16 -28 -12 9 -16 9 -19 -1 -3 -6 -8
-10 -13 -7 -5 3 -15 -14 -24 -37 l-16 -43 5 64 c3 35 2 62 -1 59 -3 -4 -18
-46 -33 -95 l-28 -88 -7 63 c-8 64 -26 86 -26 31 0 -19 -4 -28 -11 -23 -14 8
-29 -14 -29 -43 0 -13 -6 -23 -12 -23 -9 0 -13 -20 -14 -63 -1 -84 -30 -175
-114 -359 -38 -84 -70 -161 -70 -172 0 -43 112 -171 231 -264 55 -43 68 -59
79 -97 7 -25 25 -63 40 -83 33 -47 31 -101 -7 -180 l-25 -54 50 -186 c28 -103
58 -222 68 -265 l18 -77 923 0 923 0 0 1800 0 1800 -2400 0 -2400 0 0 -1800z"/>
<path d="M2540 902 c6 -13 14 -21 18 -18 3 4 -2 14 -12 24 -18 16 -18 16 -6
-6z"/>
<path d="M2615 800 c3 -5 8 -10 11 -10 2 0 4 5 4 10 0 6 -5 10 -11 10 -5 0 -7
-4 -4 -10z"/>
<path d="M2650 759 c0 -18 31 -111 35 -107 6 6 -17 103 -26 113 -6 5 -9 3 -9
-6z"/>
</g>
</svg>
