<?xml version="1.0" standalone="no"?>
<!DOCTYPE svg PUBLIC "-//W3C//DTD SVG 20010904//EN"
 "http://www.w3.org/TR/2001/REC-SVG-20010904/DTD/svg10.dtd">
<svg version="1.0" xmlns="http://www.w3.org/2000/svg"
 width="480.000000pt" height="360.000000pt" viewBox="0 0 480.000000 360.000000"
 preserveAspectRatio="xMidYMid meet">
<metadata>
Created by potrace 1.16, written by Peter Selinger 2001-2019
</metadata>
<rect width="1" height="360" fill="#000000"/>
<rect x="479" width="1" height="360" fill="#000000"/>
<rect width="480" height="1" fill="#000000"/>
<rect y="359" width="480" height="1" fill="#000000"/>
<g transform="translate(0.000000,360.000000) scale(0.100000,-0.100000)"
fill="#000000" stroke="none">
<path d="M1677 2717 c-35 -28 -55 -247 -33 -365 18 -93 36 -133 112 -249 76
-114 84 -138 84 -239 0 -69 -4 -91 -19 -113 -11 -15 -24 -50 -29 -79 -14 -76
5 -106 93 -154 141 -76 498 -175 593 -165 62 7 79 26 87 103 6 56 14 75 53
132 44 63 47 65 50 39 3 -25 7 -28 35 -25 25 2 33 8 35 26 6 41 54 52 219 52
160 0 291 21 376 58 107 47 192 167 189 267 -2 62 -26 142 -54 171 -43 48
-120 62 -210 39 -23 -6 -29 -3 -39 17 -8 19 -34 33 -112 62 -197 72 -842 279
-981 315 -44 12 -105 30 -135 40 -31 11 -105 31 -166 46 -60 14 -115 28 -122
30 -6 2 -18 -2 -26 -8z m1738 -643 c29 -31 32 -64 8 -102 -52 -84 -116 -122
-254 -151 -100 -20 -219 -36 -219 -28 0 2 26 25 58 50 32 25 78 71 102 101
l43 56 31 -36 31 -36 24 19 c20 16 22 23 12 41 -33 61 8 112 91 112 40 0 53
-5 73 -26z"/>
</g>
</svg>
