<?xml version="1.0" standalone="no"?>
<!DOCTYPE svg PUBLIC "-//W3C//DTD SVG 20010904//EN"
 "http://www.w3.org/TR/2001/REC-SVG-20010904/DTD/svg10.dtd">
<svg version="1.0" xmlns="http://www.w3.org/2000/svg"
 width="480.000000pt" height="360.000000pt" viewBox="0 0 480.000000 360.000000"
 preserveAspectRatio="xMidYMid meet">
<metadata>
Created by potrace 1.16, written by Peter Selinger 2001-2019
</metadata>
<rect width="1" height="360" fill="#000000"/>
<rect x="479" width="1" height="360" fill="#000000"/>
<rect width="480" height="1" fill="#000000"/>
<rect y="359" width="480" height="1" fill="#000000"/>
<g transform="translate(0.000000,360.000000) scale(0.100000,-0.100000)"
fill="#000000" stroke="none">
<path d="M0 3392 l0 -208 83 -12 c45 -7 105 -16 132 -21 45 -8 53 -7 75 13 68
61 103 69 151 35 31 -22 38 -54 18 -91 -16 -30 -6 -31 45 -2 45 25 54 26 139
21 98 -5 131 -13 121 -29 -3 -5 3 -19 13 -31 24 -27 45 -95 32 -103 -16 -9 1
-24 27 -24 18 0 24 -5 24 -23 0 -13 4 -27 8 -33 5 -5 16 -28 25 -50 16 -41 15
-42 -9 -65 -13 -12 -24 -33 -24 -45 0 -36 54 -89 134 -134 52 -28 78 -50 91
-74 20 -37 73 -85 140 -128 56 -36 84 -64 91 -93 7 -27 5 -36 -21 -125 -14
-47 -14 -72 -5 -175 16 -165 37 -261 124 -561 42 -143 85 -293 97 -334 12 -41
34 -109 50 -150 32 -85 43 -126 58 -220 15 -89 18 -327 5 -340 -6 -6 -28 -13
-50 -17 -31 -4 -49 -17 -89 -61 l-50 -55 -88 13 c-48 7 -108 9 -132 6 -43 -7
-44 -8 -49 -49 -3 -23 -7 -84 -10 -135 l-5 -92 521 0 520 0 -5 27 c-2 16 -16
67 -31 116 -17 58 -26 111 -26 157 0 40 -9 102 -20 142 -25 92 -25 145 0 183
28 42 26 71 -4 79 -32 8 -49 0 -61 -27 -15 -34 -42 -32 -78 6 -18 18 -39 36
-48 40 -9 3 -19 18 -22 34 -3 15 -15 59 -26 98 -18 60 -22 104 -26 344 -5 298
-6 321 -37 546 -13 100 -18 172 -14 215 4 36 6 85 6 110 -1 64 -38 207 -66
257 -29 51 -38 112 -26 175 5 26 6 102 2 175 -10 158 9 371 40 458 19 55 28
102 49 254 4 30 5 90 3 133 l-5 78 -898 0 -899 0 0 -208z"/>
<path d="M0 2589 l0 -563 37 45 c21 24 63 71 94 104 123 131 141 151 168 190
55 78 65 177 30 290 -14 46 -20 91 -19 148 1 45 1 86 1 91 -1 4 -13 1 -27 -9
-40 -26 -89 -23 -120 5 -31 30 -28 64 11 122 14 21 25 44 25 51 0 24 -33 44
-101 60 -36 9 -73 19 -82 23 -16 6 -17 -37 -17 -557z"/>
<path d="M741 2023 c-6 -21 -11 -45 -11 -53 -1 -11 -3 -11 -11 3 -10 18 -11
18 -25 0 -7 -10 -14 -27 -14 -39 0 -24 -25 -104 -82 -262 -37 -103 -40 -116
-29 -151 14 -47 14 -72 1 -107 -10 -24 -12 -25 -28 -11 -9 8 -28 18 -42 22
-30 7 -69 -29 -90 -85 -8 -19 -27 -48 -44 -63 -34 -33 -40 -28 -57 52 -12 60
-6 113 16 131 19 16 19 34 -1 51 -11 9 -15 26 -12 55 4 56 -11 43 -53 -44 -29
-60 -33 -64 -37 -39 -2 15 -8 27 -14 27 -11 0 -2 113 12 140 4 8 10 27 14 43
8 33 -12 37 -39 7 -10 -11 -21 -17 -25 -15 -5 3 -41 -31 -81 -75 -39 -44 -74
-78 -77 -76 -6 6 30 66 40 66 4 0 8 8 8 17 0 13 -7 10 -30 -12 l-30 -29 0
-788 0 -788 368 0 369 0 12 113 c7 61 15 122 18 134 8 33 -29 47 -126 48 -91
0 -88 -2 -116 69 l-15 39 -75 -6 c-44 -3 -77 -1 -81 4 -3 6 -16 3 -32 -7 -24
-16 -26 -16 -39 2 -15 21 -16 53 -2 113 7 30 6 47 -1 57 -9 10 -5 22 14 51 14
21 26 47 26 60 0 26 64 157 97 196 13 16 23 34 23 40 0 7 9 18 20 25 12 7 17
18 13 29 -4 10 -2 14 5 9 6 -4 10 1 9 11 0 10 32 76 73 147 41 72 101 191 133
265 57 131 59 138 48 179 -15 57 -14 83 4 109 12 18 15 54 13 197 -2 97 -4
176 -5 176 -1 0 -7 -17 -12 -37z"/>
<path d="M890 1979 c0 -27 -5 -81 -11 -120 -6 -38 -9 -74 -7 -80 7 -20 68 107
68 140 0 35 -28 111 -41 111 -5 0 -9 -23 -9 -51z"/>
<path d="M470 1659 c0 -2 -7 -25 -15 -51 -8 -27 -10 -48 -5 -48 9 0 32 92 24
99 -2 2 -4 2 -4 0z"/>
<path d="M370 1534 c0 -21 4 -33 10 -29 6 3 10 19 10 36 0 16 -4 29 -10 29 -5
0 -10 -16 -10 -36z"/>
<path d="M410 1551 c-6 -12 -7 -21 -1 -21 10 0 24 30 17 37 -2 3 -9 -5 -16
-16z"/>
<path d="M953 220 c-12 -5 -24 -17 -27 -27 -19 -63 -46 -170 -46 -180 0 -15
116 -18 139 -4 11 7 13 26 7 93 -11 133 -16 141 -73 118z"/>
</g>
</svg>
