<?xml version="1.0" standalone="no"?>
<!DOCTYPE svg PUBLIC "-//W3C//DTD SVG 20010904//EN"
 "http://www.w3.org/TR/2001/REC-SVG-20010904/DTD/svg10.dtd">
<svg version="1.0" xmlns="http://www.w3.org/2000/svg"
 width="480.000000pt" height="360.000000pt" viewBox="0 0 480.000000 360.000000"
 preserveAspectRatio="xMidYMid meet">
<metadata>
Created by potrace 1.16, written by Peter Selinger 2001-2019
</metadata>
<rect width="1" height="360" fill="#000000"/>
<rect x="479" width="1" height="360" fill="#000000"/>
<rect width="480" height="1" fill="#000000"/>
<rect y="359" width="480" height="1" fill="#000000"/>
<g transform="translate(0.000000,360.000000) scale(0.100000,-0.100000)"
fill="#000000" stroke="none">
<path d="M1915 2952 c-27 -15 -54 -33 -58 -40 -5 -7 -38 -46 -74 -85 -80 -89
-132 -157 -167 -220 -34 -62 -33 -71 5 -52 45 24 46 11 2 -28 -150 -136 -146
-132 -134 -156 7 -12 30 -29 52 -37 21 -9 39 -17 39 -18 0 -1 -7 -25 -14 -52
-30 -102 -48 -237 -42 -319 9 -141 27 -186 41 -105 4 22 10 40 14 40 12 0 23
-125 15 -166 -10 -52 11 -41 26 14 15 53 35 84 28 39 -8 -44 8 -40 22 5 11 38
13 41 25 25 12 -17 14 -17 29 4 8 13 17 21 19 18 2 -2 9 -31 16 -63 18 -80 53
-158 59 -131 2 11 8 24 13 30 15 15 11 -56 -6 -113 -17 -57 -14 -72 16 -72 16
0 19 -7 19 -47 0 -66 -7 -74 -54 -63 -43 9 -104 -6 -88 -22 6 -6 36 -15 68
-21 l59 -12 3 -51 c2 -30 -10 -113 -28 -200 -48 -233 -72 -437 -68 -599 2
-109 -1 -153 -14 -200 -10 -33 -26 -104 -36 -157 l-19 -98 692 0 693 0 68 64
69 63 16 -36 17 -36 10 27 c6 15 8 43 5 62 -7 43 0 45 32 9 30 -36 41 -24 20
21 -14 29 -15 39 -5 51 32 39 -17 285 -106 534 -46 128 -144 339 -187 402
l-24 36 70 16 c48 11 80 25 99 44 71 68 109 230 71 303 -10 19 -35 46 -55 59
-27 18 -38 32 -39 50 l0 26 -16 -22 c-13 -19 -19 -21 -36 -12 -29 16 -125 4
-156 -19 -52 -39 -68 -123 -49 -261 3 -27 -22 -45 -77 -56 -21 -4 -56 -34
-113 -93 l-83 -87 3 60 c2 73 -27 166 -79 251 -19 33 -37 68 -38 79 -2 11 -17
45 -35 74 l-32 55 19 70 c10 39 26 77 35 85 9 8 15 18 12 22 -2 4 0 54 5 111
6 65 6 107 0 113 -15 15 -10 61 7 76 9 8 27 12 39 11 35 -5 91 57 110 120 19
67 19 163 -1 225 l-16 50 41 44 c22 24 43 52 47 62 3 9 9 17 13 17 11 0 39 76
47 127 9 56 -3 68 -84 93 -134 42 -317 36 -377 -12 -22 -17 -29 -19 -36 -7 -5
8 -9 17 -9 20 0 12 -55 29 -115 35 -42 4 -68 13 -88 30 -38 32 -88 31 -152 -4z
m444 -1052 c-6 -37 -4 -57 7 -78 7 -15 14 -42 14 -60 l0 -32 -69 56 c-53 44
-68 61 -63 75 6 15 96 85 113 88 3 1 2 -22 -2 -49z"/>
</g>
</svg>
