<?xml version="1.0" standalone="no"?>
<!DOCTYPE svg PUBLIC "-//W3C//DTD SVG 20010904//EN"
 "http://www.w3.org/TR/2001/REC-SVG-20010904/DTD/svg10.dtd">
<svg version="1.0" xmlns="http://www.w3.org/2000/svg"
 width="480.000000pt" height="360.000000pt" viewBox="0 0 480.000000 360.000000"
 preserveAspectRatio="xMidYMid meet">
<metadata>
Created by potrace 1.16, written by Peter Selinger 2001-2019
</metadata>
<rect width="1" height="360" fill="#000000"/>
<rect x="479" width="1" height="360" fill="#000000"/>
<rect width="480" height="1" fill="#000000"/>
<rect y="359" width="480" height="1" fill="#000000"/>
<g transform="translate(0.000000,360.000000) scale(0.100000,-0.100000)"
fill="#000000" stroke="none">
<path d="M0 2770 c0 -823 0 -830 20 -830 26 0 26 -16 0 -32 -20 -13 -20 -24
-20 -960 l0 -948 248 0 247 1 49 66 c67 90 97 205 58 218 -13 4 -23 23 -31 60
-10 46 -10 58 4 86 10 19 15 44 12 63 -3 21 1 37 14 52 18 20 18 21 -1 74 -25
68 -25 76 0 83 17 4 20 14 20 60 0 64 7 87 26 87 7 0 18 19 24 43 6 23 18 63
26 89 18 55 13 68 -23 68 -22 0 -24 3 -19 28 24 96 25 98 89 144 61 43 64 48
75 103 17 84 15 170 -8 278 -31 153 -29 147 -61 147 -15 0 -44 8 -63 17 -28
13 -33 19 -25 30 7 7 9 25 6 41 -3 15 3 51 13 82 11 30 19 77 20 104 0 45 -4
53 -50 102 -129 137 -193 401 -141 587 25 92 77 164 180 251 204 172 339 251
480 281 42 9 120 27 173 41 53 13 106 24 118 24 12 0 29 4 39 10 17 8 17 15 5
87 -19 118 -23 163 -15 163 10 0 39 -33 155 -178 56 -70 128 -147 168 -180 83
-67 154 -164 199 -270 50 -121 80 -159 141 -177 64 -19 115 -19 148 0 38 22
64 18 95 -15 16 -16 39 -30 52 -30 28 0 29 -14 4 -102 -20 -74 -44 -118 -65
-118 -7 0 -25 9 -39 20 -47 37 -77 22 -52 -26 8 -16 15 -38 15 -49 0 -11 4
-27 10 -35 6 -9 5 -17 -1 -21 -6 -3 -13 -25 -16 -48 -6 -47 -39 -119 -51 -111
-4 3 -8 -12 -10 -32 -3 -40 -10 -46 -29 -27 -9 9 -10 7 -6 -10 6 -24 -12 -29
-21 -5 -5 13 -9 14 -21 4 -8 -7 -15 -19 -15 -26 0 -8 -6 -14 -13 -14 -8 0 -19
-11 -25 -24 -10 -23 -9 -36 18 -155 8 -31 7 -47 -1 -57 -8 -10 -3 -28 25 -79
19 -36 32 -65 28 -65 -5 0 -23 16 -42 35 -23 23 -37 32 -44 25 -7 -7 4 -31 33
-71 36 -54 63 -119 49 -119 -3 0 -31 9 -63 20 -32 11 -62 20 -66 20 -5 0 -17
-17 -28 -38 -22 -43 -55 -62 -109 -62 -21 0 -47 -7 -59 -15 -12 -8 -39 -19
-60 -23 -31 -6 -39 -12 -41 -35 -3 -20 2 -29 20 -37 27 -12 338 -103 456 -134
66 -17 89 -29 119 -58 35 -35 36 -38 20 -56 -20 -22 -22 -71 -4 -96 13 -17 16
-17 83 7 157 56 262 72 479 71 165 0 217 -4 295 -21 354 -79 677 -272 904
-543 40 -47 83 -101 97 -120 39 -56 149 -242 149 -252 0 -5 -105 -61 -232
-123 l-233 -114 448 0 447 -1 0 1800 0 1800 -2400 0 -2400 0 0 -830z m4610
-60 c12 -7 12 -12 3 -21 -9 -9 -16 -9 -28 1 -29 24 -9 42 25 20z m-1700 -619
c48 -25 50 -53 7 -80 -27 -16 -40 -19 -58 -12 -34 13 -109 69 -109 81 0 31
109 39 160 11z m-2441 -52 c-19 -12 -24 -2 -8 17 9 11 14 13 17 4 3 -7 -2 -16
-9 -21z m4257 -393 c10 -8 16 -17 12 -21 -11 -11 -48 5 -48 21 0 18 11 18 36
0z m-546 -306 c0 -5 -5 -10 -11 -10 -5 0 -7 5 -4 10 3 6 8 10 11 10 2 0 4 -4
4 -10z m31 -83 c-1 -12 -15 -9 -19 4 -3 6 1 10 8 8 6 -3 11 -8 11 -12z"/>
<path d="M2125 113 c-8 -32 -20 -68 -25 -81 -6 -13 -10 -25 -10 -27 0 -3 28
-5 61 -5 l62 0 -8 73 c-7 77 -17 97 -46 97 -13 0 -22 -15 -34 -57z"/>
</g>
</svg>
