<?xml version="1.0" standalone="no"?>
<!DOCTYPE svg PUBLIC "-//W3C//DTD SVG 20010904//EN"
 "http://www.w3.org/TR/2001/REC-SVG-20010904/DTD/svg10.dtd">
<svg version="1.0" xmlns="http://www.w3.org/2000/svg"
 width="480.000000pt" height="360.000000pt" viewBox="0 0 480.000000 360.000000"
 preserveAspectRatio="xMidYMid meet">
<metadata>
Created by potrace 1.16, written by Peter Selinger 2001-2019
</metadata>
<rect width="1" height="360" fill="#000000"/>
<rect x="479" width="1" height="360" fill="#000000"/>
<rect width="480" height="1" fill="#000000"/>
<rect y="359" width="480" height="1" fill="#000000"/>
<g transform="translate(0.000000,360.000000) scale(0.100000,-0.100000)"
fill="#000000" stroke="none">
<path d="M0 1800 l0 -1800 1008 0 1008 0 12 157 c6 87 21 207 32 268 18 92 20
119 11 164 -14 70 -14 137 1 200 9 40 9 60 -2 93 -7 24 -14 86 -16 138 -11
292 -14 321 -41 368 l-27 45 -30 -39 c-95 -120 -164 -174 -224 -174 -16 0 -77
18 -136 40 -97 37 -218 69 -319 85 -29 5 -43 14 -57 38 -11 18 -30 35 -42 38
-19 4 -23 11 -20 41 l3 36 -114 36 c-92 29 -123 43 -161 77 -50 44 -96 122
-96 163 0 61 34 77 48 24 l8 -33 7 30 c10 44 43 83 58 68 8 -8 8 -20 -1 -47
-8 -25 -8 -41 -1 -53 10 -17 10 -17 11 0 0 22 27 64 45 70 10 4 13 -8 12 -53
-1 -32 1 -61 4 -65 4 -3 20 8 37 25 47 47 62 39 37 -22 -5 -13 1 -19 32 -27
21 -6 58 -25 81 -42 l43 -32 22 21 c19 18 24 19 41 7 11 -9 30 -12 48 -8 23 5
56 -7 146 -50 65 -31 147 -67 184 -81 l68 -25 41 72 c23 40 57 97 75 128 23
38 34 70 34 95 0 46 13 63 100 134 79 64 87 76 87 118 0 39 39 92 106 142 39
29 47 41 47 67 0 31 -1 32 -35 26 -33 -5 -40 -1 -85 43 -28 27 -50 55 -50 62
0 7 -13 21 -30 30 -34 19 -36 25 -15 42 19 16 19 41 -1 66 -14 18 -15 18 -4
-4 17 -35 7 -36 -25 -2 -16 17 -39 30 -52 30 -28 0 -82 56 -83 86 0 28 -10 36
-28 21 -13 -10 -15 -9 -8 8 4 11 16 53 27 94 29 109 62 179 103 221 l37 38
-16 77 c-8 42 -13 80 -10 84 11 19 111 22 153 5 64 -25 82 -15 124 68 21 40
49 86 62 103 22 27 26 29 49 16 24 -13 29 -11 64 18 20 17 42 31 48 31 28 0
122 -128 171 -233 27 -60 32 -132 9 -157 -14 -15 -11 -21 25 -58 49 -52 101
-159 134 -277 28 -102 34 -137 75 -435 26 -195 33 -228 80 -357 28 -78 51
-145 51 -149 0 -4 16 -39 35 -78 40 -83 65 -172 65 -235 l0 -46 -27 40 c-25
37 -26 38 -35 16 -13 -37 -8 -112 13 -169 25 -70 24 -111 -6 -213 -40 -139
-56 -217 -64 -318 -8 -90 -10 -95 -41 -121 -31 -26 -32 -28 -40 -136 -5 -60
-15 -129 -24 -154 -17 -47 -20 -154 -10 -259 l7 -61 973 0 974 0 0 1800 0
1800 -2400 0 -2400 0 0 -1800z"/>
<path d="M2086 1163 c10 -100 22 -132 23 -63 1 69 -9 130 -21 130 -5 0 -6 -29
-2 -67z"/>
</g>
</svg>
