<?xml version="1.0" standalone="no"?>
<!DOCTYPE svg PUBLIC "-//W3C//DTD SVG 20010904//EN"
 "http://www.w3.org/TR/2001/REC-SVG-20010904/DTD/svg10.dtd">
<svg version="1.0" xmlns="http://www.w3.org/2000/svg"
 width="480.000000pt" height="360.000000pt" viewBox="0 0 480.000000 360.000000"
 preserveAspectRatio="xMidYMid meet">
<metadata>
Created by potrace 1.16, written by Peter Selinger 2001-2019
</metadata>
<rect width="1" height="360" fill="#000000"/>
<rect x="479" width="1" height="360" fill="#000000"/>
<rect width="480" height="1" fill="#000000"/>
<rect y="359" width="480" height="1" fill="#000000"/>
<g transform="translate(0.000000,360.000000) scale(0.100000,-0.100000)"
fill="#000000" stroke="none">
<path d="M0 1800 l0 -1800 1070 0 c739 0 1070 3 1070 10 0 6 7 70 15 143 22
195 46 517 39 528 -3 5 -19 16 -35 24 -16 9 -27 20 -23 26 3 6 -2 17 -12 25
-14 11 -16 17 -6 20 6 3 10 10 6 15 -3 5 8 33 25 62 28 49 32 68 52 262 l23
209 -29 113 c-27 103 -28 117 -17 165 7 29 16 69 21 88 4 19 18 54 30 78 12
23 17 42 11 42 -17 0 -11 48 9 62 12 9 20 32 25 70 7 53 6 58 -21 83 -15 15
-39 31 -52 36 -18 7 -21 12 -12 23 14 17 3 27 -23 20 -15 -3 -33 6 -64 36 -23
22 -43 35 -43 28 -1 -7 -5 12 -10 42 -16 108 5 172 81 244 173 165 358 139
480 -67 28 -46 76 -212 95 -327 9 -52 29 -149 45 -215 16 -66 33 -167 40 -225
6 -58 18 -152 26 -210 9 -62 19 -246 24 -445 5 -187 12 -378 15 -424 4 -51 2
-86 -3 -90 -11 -7 -3 -48 54 -298 l36 -153 929 0 929 0 0 1069 0 1068 -57 18
c-159 49 -335 155 -470 281 -224 208 -345 429 -404 734 -19 101 -21 135 -16
273 l6 157 -1929 0 -1930 0 0 -1800z"/>
<path d="M2360 2003 c0 -10 5 -25 10 -33 8 -12 10 -9 10 12 0 15 -4 30 -10 33
-5 3 -10 -2 -10 -12z"/>
</g>
</svg>
