<?xml version="1.0" standalone="no"?>
<!DOCTYPE svg PUBLIC "-//W3C//DTD SVG 20010904//EN"
 "http://www.w3.org/TR/2001/REC-SVG-20010904/DTD/svg10.dtd">
<svg version="1.0" xmlns="http://www.w3.org/2000/svg"
 width="480.000000pt" height="360.000000pt" viewBox="0 0 480.000000 360.000000"
 preserveAspectRatio="xMidYMid meet">
<metadata>
Created by potrace 1.16, written by Peter Selinger 2001-2019
</metadata>
<rect width="1" height="360" fill="#000000"/>
<rect x="479" width="1" height="360" fill="#000000"/>
<rect width="480" height="1" fill="#000000"/>
<rect y="359" width="480" height="1" fill="#000000"/>
<g transform="translate(0.000000,360.000000) scale(0.100000,-0.100000)"
fill="#000000" stroke="none">
<path d="M0 2175 l0 -1425 104 0 c61 0 107 4 111 10 4 6 9 69 12 141 5 105 3
133 -8 139 -11 7 -8 21 16 70 31 65 48 80 88 80 13 0 39 7 57 16 l32 17 -4 79
-5 80 43 18 c44 19 64 51 45 74 -8 9 -7 22 5 45 15 31 34 34 34 5 0 -8 5 -14
10 -14 6 0 10 -7 10 -15 0 -8 -4 -15 -10 -15 -13 0 -13 -46 0 -70 5 -10 24
-21 41 -25 33 -8 48 -30 30 -48 -6 -6 -11 -36 -11 -67 0 -55 0 -56 38 -73 21
-9 47 -17 58 -17 10 0 24 -4 30 -8 20 -12 63 -129 52 -140 -5 -5 -12 -68 -15
-141 l-6 -131 31 0 32 0 0 88 0 88 50 81 c28 45 55 85 59 88 5 3 32 -35 60
-84 47 -82 51 -93 51 -154 l0 -66 43 -5 c43 -5 501 -26 570 -26 34 0 47 -8
106 -65 37 -36 74 -65 81 -65 11 0 12 35 7 184 l-7 184 47 71 c26 39 52 71 58
71 5 0 28 -28 49 -61 39 -60 61 -144 51 -194 -2 -11 -7 -217 -10 -458 l-7
-437 1386 0 1386 0 0 1800 0 1800 -2400 0 -2400 0 0 -1425z m3159 675 c26 -13
45 -64 33 -86 -7 -12 -4 -34 10 -75 21 -63 15 -60 141 -80 45 -7 81 -18 84
-25 7 -18 -27 -62 -57 -72 l-25 -9 28 -25 c32 -30 34 -38 7 -31 -12 3 -20 0
-20 -6 0 -7 -5 -9 -10 -6 -6 4 -17 1 -26 -5 -11 -10 -12 -16 -3 -26 9 -11 7
-14 -9 -14 -16 0 -20 -5 -17 -21 3 -15 0 -19 -10 -15 -8 3 -15 0 -15 -6 0 -7
-4 -7 -14 1 -12 10 -15 0 -18 -63 -2 -42 -1 -75 2 -73 50 29 178 87 191 87 15
0 17 -6 12 -37 -3 -21 -15 -55 -25 -76 -11 -22 -17 -42 -13 -45 10 -10 76 -11
120 -2 21 5 44 5 50 1 5 -5 35 -5 65 -1 74 10 78 5 21 -29 -22 -13 -4 -30 45
-42 32 -8 42 -15 35 -22 -22 -22 -10 -29 71 -41 31 -4 30 -14 -1 -21 -43 -9
-46 -21 -8 -36 17 -7 40 -21 51 -30 17 -17 17 -17 -18 -15 -53 5 -64 -16 -26
-48 30 -25 31 -26 8 -26 -23 -1 -23 -1 -3 -16 19 -15 18 -16 -15 -10 -33 5
-34 5 -7 -5 15 -6 27 -15 27 -20 0 -4 -6 -6 -14 -3 -11 4 -13 0 -9 -15 4 -15
18 -25 49 -32 24 -6 44 -16 44 -21 0 -6 -9 -8 -20 -5 -10 3 -21 0 -23 -6 -2
-7 -13 -7 -36 1 -26 9 -36 9 -47 -2 -21 -21 -18 -23 31 -31 59 -8 50 -24 -10
-17 -41 4 -45 3 -38 -13 4 -13 3 -16 -5 -11 -7 4 -12 3 -12 -3 0 -5 6 -11 13
-14 6 -2 9 -7 5 -11 -3 -4 -20 0 -38 9 -37 19 -46 15 -31 -13 21 -39 11 -46
-22 -14 -18 18 -43 32 -56 32 -20 0 -23 -4 -19 -30 3 -17 1 -30 -3 -30 -4 0
-12 -12 -17 -27 -9 -25 -10 -26 -11 -5 -1 12 -6 22 -11 22 -6 0 -10 8 -8 17 2
13 -14 24 -62 44 -36 15 -68 28 -72 28 -5 1 -8 -21 -8 -48 0 -60 -28 -101 -70
-101 -15 0 -33 6 -39 13 -8 10 -41 150 -41 173 0 9 -80 40 -87 36 -6 -4 -21
-43 -34 -87 -32 -114 -42 -123 -84 -80 -18 18 -25 35 -25 65 0 36 -2 40 -25
40 -14 0 -28 7 -31 15 -8 20 -22 19 -26 -1 -2 -12 -14 -7 -54 25 -52 41 -64
43 -64 9 0 -16 -3 -17 -20 -8 -16 9 -18 15 -10 29 8 15 5 22 -15 35 -17 11
-25 26 -25 45 0 27 3 30 49 36 41 6 51 11 61 35 14 33 64 82 104 101 59 28 68
161 12 187 -17 7 -25 21 -29 49 -4 21 -9 55 -13 76 -4 27 -1 50 11 77 20 45
16 102 -13 162 -19 41 -43 50 -87 32 -44 -19 -61 -17 -73 10 -10 23 -8 26 54
52 68 30 76 39 44 49 -19 6 -48 45 -34 45 3 0 19 -9 35 -20 24 -18 31 -19 49
-8 11 7 20 21 20 30 0 10 6 18 14 18 8 0 25 19 39 43 44 73 73 97 118 97 22 0
48 -4 58 -10z"/>
<path d="M2916 1845 c-23 -17 -13 -34 11 -19 19 12 29 34 16 34 -4 0 -17 -7
-27 -15z"/>
<path d="M3665 1650 c3 -5 15 -10 26 -10 11 0 17 5 14 10 -3 6 -15 10 -26 10
-11 0 -17 -4 -14 -10z"/>
</g>
</svg>
