<?xml version="1.0" standalone="no"?>
<!DOCTYPE svg PUBLIC "-//W3C//DTD SVG 20010904//EN"
 "http://www.w3.org/TR/2001/REC-SVG-20010904/DTD/svg10.dtd">
<svg version="1.0" xmlns="http://www.w3.org/2000/svg"
 width="480.000000pt" height="360.000000pt" viewBox="0 0 480.000000 360.000000"
 preserveAspectRatio="xMidYMid meet">
<metadata>
Created by potrace 1.16, written by Peter Selinger 2001-2019
</metadata>
<rect width="1" height="360" fill="#000000"/>
<rect x="479" width="1" height="360" fill="#000000"/>
<rect width="480" height="1" fill="#000000"/>
<rect y="359" width="480" height="1" fill="#000000"/>
<g transform="translate(0.000000,360.000000) scale(0.100000,-0.100000)"
fill="#000000" stroke="none">
<path d="M0 1800 l0 -1800 606 0 c481 0 605 3 601 13 -3 6 -52 111 -110 232
-127 268 -145 319 -129 373 14 44 77 146 134 215 24 27 44 65 50 90 6 27 23
56 48 82 26 27 45 59 56 94 29 100 143 186 294 222 30 7 71 23 90 34 19 12 57
30 83 40 34 13 46 22 42 33 -3 8 -8 105 -11 216 -4 154 -10 219 -25 279 -21
80 -40 256 -31 289 4 16 -2 18 -56 18 -81 0 -230 27 -267 49 -26 15 -36 16
-78 5 -29 -7 -49 -8 -53 -3 -11 19 67 121 185 242 43 44 69 77 60 77 -29 0
-199 129 -199 151 0 4 21 11 48 15 26 3 54 8 64 10 9 1 37 6 62 9 26 4 48 10
50 14 2 3 -5 47 -15 96 -20 95 -25 195 -10 195 4 0 68 -63 140 -140 126 -133
134 -139 154 -125 60 38 271 68 572 81 189 8 263 -3 294 -42 l20 -25 44 25
c24 14 49 38 56 54 24 52 122 221 133 228 8 5 9 -7 4 -42 -3 -27 -1 -96 5
-154 11 -93 15 -108 40 -133 16 -15 31 -44 35 -63 8 -41 13 -44 139 -73 134
-31 165 -41 165 -51 0 -12 -213 -120 -235 -120 -28 0 -15 -17 25 -33 105 -41
0 -105 -263 -162 -25 -5 -27 -8 -15 -22 10 -12 13 -69 14 -237 1 -122 7 -264
13 -316 27 -223 33 -332 21 -378 -16 -65 -6 -93 43 -124 84 -54 141 -136 207
-300 61 -153 59 -240 -6 -317 -32 -37 -34 -44 -26 -74 7 -24 5 -46 -5 -76 -15
-45 -14 -69 18 -363 l12 -108 853 0 854 0 0 1800 0 1800 -2400 0 -2400 0 0
-1800z"/>
<path d="M2335 1670 c-11 -5 -47 -9 -80 -10 -56 -2 -58 -3 -28 -12 36 -12 91
-4 119 17 21 16 18 18 -11 5z"/>
<path d="M1620 710 c-8 -5 -38 -10 -66 -10 -42 0 -58 -6 -89 -30 -21 -17 -50
-33 -64 -36 -49 -10 -102 -28 -107 -36 -3 -4 38 -141 91 -303 l96 -295 71 0
71 0 -7 38 c-18 109 -17 282 3 457 11 99 24 190 27 203 7 24 -2 28 -26 12z"/>
</g>
</svg>
