<?xml version="1.0" standalone="no"?>
<!DOCTYPE svg PUBLIC "-//W3C//DTD SVG 20010904//EN"
 "http://www.w3.org/TR/2001/REC-SVG-20010904/DTD/svg10.dtd">
<svg version="1.0" xmlns="http://www.w3.org/2000/svg"
 width="480.000000pt" height="360.000000pt" viewBox="0 0 480.000000 360.000000"
 preserveAspectRatio="xMidYMid meet">
<metadata>
Created by potrace 1.16, written by Peter Selinger 2001-2019
</metadata>
<rect width="1" height="360" fill="#000000"/>
<rect x="479" width="1" height="360" fill="#000000"/>
<rect width="480" height="1" fill="#000000"/>
<rect y="359" width="480" height="1" fill="#000000"/>
<g transform="translate(0.000000,360.000000) scale(0.100000,-0.100000)"
fill="#000000" stroke="none">
<path d="M0 1800 l0 -1800 999 0 c944 0 1000 1 1005 18 2 9 8 60 11 112 4 52
17 156 30 231 19 109 21 146 13 180 -5 25 -8 97 -5 164 4 91 2 134 -10 179
-12 43 -14 63 -5 76 6 11 8 31 2 53 -4 19 -5 96 -2 171 5 138 -2 165 -29 113
-25 -45 -84 -107 -124 -128 l-41 -22 -130 26 c-72 15 -184 30 -249 33 -106 7
-120 10 -138 30 -28 32 -67 38 -110 18 -34 -16 -43 -16 -159 0 -68 9 -161 16
-208 14 -72 -3 -85 -1 -88 14 -2 10 5 19 18 23 16 5 19 12 14 27 -6 19 -3 20
31 14 20 -4 43 -10 52 -13 12 -5 14 -1 8 15 -5 17 -2 22 12 22 11 0 24 -5 30
-11 15 -15 95 6 118 31 21 23 10 30 -60 37 -67 7 -87 25 -53 47 15 10 62 17
138 22 104 5 120 4 164 -15 l50 -22 21 27 c18 23 24 25 43 15 17 -9 27 -9 44
3 21 13 29 13 78 -6 79 -29 224 -67 285 -74 l53 -6 12 38 c7 20 33 83 57 138
37 84 43 104 34 123 -15 33 4 67 87 155 l67 71 -2 57 c-2 54 0 61 36 102 22
24 57 57 80 72 37 26 63 77 47 93 -3 3 -24 -2 -46 -11 l-42 -17 -54 55 c-30
29 -54 59 -54 65 0 6 -13 17 -30 26 -33 17 -38 36 -15 55 38 31 9 70 -59 77
-34 4 -46 11 -60 34 -10 16 -21 27 -25 24 -5 -2 -11 14 -15 36 -6 35 -9 39
-21 29 -10 -8 -15 -9 -15 -2 0 21 80 256 95 279 8 12 42 40 74 63 58 39 59 41
50 72 -13 47 -11 98 4 99 6 0 32 2 57 4 25 2 51 -1 57 -7 17 -14 43 -3 43 18
0 29 39 149 55 169 15 20 15 20 35 -4 l21 -24 35 42 c20 22 44 41 54 41 23 0
106 -108 157 -205 30 -57 37 -81 38 -127 0 -32 3 -58 7 -58 16 0 79 -64 100
-103 81 -144 123 -318 163 -662 13 -117 22 -149 86 -325 76 -209 114 -353 125
-481 5 -66 4 -78 -7 -74 -11 4 -18 -10 -27 -52 -15 -69 -15 -74 -6 -136 5 -33
2 -60 -9 -90 -9 -23 -23 -67 -31 -97 -8 -30 -28 -93 -45 -140 -16 -47 -37
-127 -45 -179 -10 -60 -23 -102 -34 -115 -16 -17 -21 -51 -31 -191 -13 -190
-14 -262 -5 -318 l7 -37 993 0 994 0 0 1800 0 1800 -2400 0 -2400 0 0 -1800z"/>
<path d="M2083 1135 c0 -27 2 -38 4 -22 2 15 2 37 0 50 -2 12 -4 0 -4 -28z"/>
</g>
</svg>
