<?xml version="1.0" standalone="no"?>
<!DOCTYPE svg PUBLIC "-//W3C//DTD SVG 20010904//EN"
 "http://www.w3.org/TR/2001/REC-SVG-20010904/DTD/svg10.dtd">
<svg version="1.0" xmlns="http://www.w3.org/2000/svg"
 width="480.000000pt" height="360.000000pt" viewBox="0 0 480.000000 360.000000"
 preserveAspectRatio="xMidYMid meet">
<metadata>
Created by potrace 1.16, written by Peter Selinger 2001-2019
</metadata>
<rect width="1" height="360" fill="#000000"/>
<rect x="479" width="1" height="360" fill="#000000"/>
<rect width="480" height="1" fill="#000000"/>
<rect y="359" width="480" height="1" fill="#000000"/>
<g transform="translate(0.000000,360.000000) scale(0.100000,-0.100000)"
fill="#000000" stroke="none">
<path d="M0 2759 c0 -557 3 -838 10 -834 6 3 10 14 10 24 0 44 60 149 110 194
29 24 67 66 86 92 37 53 135 121 258 179 42 20 78 36 82 36 3 0 20 6 37 14 18
8 79 33 137 56 58 23 132 56 165 72 108 55 227 159 317 280 53 72 109 112 195
139 48 16 75 30 79 41 11 36 -7 76 -47 103 -67 47 -48 74 39 56 50 -10 64 -9
107 7 47 17 50 21 48 51 -1 22 -12 44 -31 65 -34 35 -82 104 -82 117 0 5 6 9
14 9 7 0 19 7 26 15 11 13 9 20 -9 39 -13 13 -18 27 -13 30 6 3 13 -1 16 -10
4 -9 9 -14 12 -11 3 3 -1 18 -10 35 -8 16 -12 32 -9 36 4 3 -343 6 -770 6
l-777 0 0 -841z"/>
<path d="M1560 3595 c0 -2 24 -31 54 -64 31 -36 70 -97 96 -150 24 -50 49 -92
57 -95 16 -6 17 -49 2 -77 -15 -30 32 -80 109 -114 52 -23 63 -31 60 -49 -2
-17 -9 -21 -36 -18 -47 3 -101 -24 -109 -56 -4 -18 -2 -27 8 -31 26 -8 121
-106 142 -146 11 -22 28 -73 38 -113 14 -64 15 -73 2 -68 -10 4 -13 2 -10 -8
4 -10 1 -13 -7 -10 -8 3 -16 -5 -20 -20 -8 -33 -109 -90 -104 -59 2 11 -3 18
-12 18 -18 0 -27 -62 -11 -78 19 -19 12 -46 -14 -53 -13 -3 -27 -15 -30 -25
-4 -10 -10 -19 -14 -19 -5 0 -22 -14 -39 -31 -31 -31 -47 -34 -94 -14 -34 14
-18 -15 46 -82 62 -67 96 -125 96 -166 0 -29 44 -146 91 -242 47 -95 49 -135
13 -211 -24 -52 -25 -57 -11 -87 21 -42 9 -61 -47 -77 -41 -11 -45 -15 -51
-51 -4 -22 -2 -54 5 -74 7 -22 9 -53 5 -78 -11 -65 -10 -148 3 -309 7 -81 12
-270 12 -420 0 -201 4 -294 15 -351 8 -43 15 -99 15 -123 l0 -44 619 0 618 0
6 93 c7 110 23 192 79 389 l41 148 -28 147 c-21 110 -30 198 -36 343 -5 107
-12 217 -16 245 -7 44 -11 50 -33 50 -17 0 -26 6 -28 20 -1 11 -5 40 -8 64 -4
26 -1 52 6 66 11 20 8 29 -19 69 -48 69 -55 97 -40 159 6 28 22 68 34 87 26
42 80 189 90 245 10 58 31 93 96 162 69 72 79 102 25 76 l-34 -16 -51 43 c-28
24 -51 47 -51 52 0 5 -11 13 -25 18 -29 11 -31 19 -8 58 16 29 13 62 -7 62 -5
0 -10 -7 -10 -15 0 -13 -4 -14 -20 -5 -11 6 -24 9 -29 6 -12 -8 -59 45 -66 77
-8 31 -21 35 -28 10 -3 -10 -3 7 0 37 6 62 43 178 68 216 14 22 120 107 144
116 5 2 3 32 -5 68 -29 130 -42 206 -48 270 l-6 65 23 -47 c13 -25 35 -61 48
-80 14 -18 33 -61 44 -96 10 -34 20 -61 21 -59 7 7 -18 143 -30 168 -8 17 -10
31 -4 37 5 5 3 36 -7 81 -9 39 -15 76 -13 82 2 7 19 -14 38 -45 28 -45 39 -56
55 -52 72 17 115 18 121 3 8 -21 -11 -78 -43 -123 l-25 -38 17 -60 c30 -107
29 -106 79 -106 52 0 160 -37 211 -71 19 -13 60 -55 91 -92 54 -65 118 -119
196 -165 47 -27 219 -84 318 -106 41 -9 89 -21 105 -26 65 -20 217 -50 252
-50 36 0 198 -25 236 -36 16 -5 17 25 17 525 l0 531 -1620 0 c-891 0 -1620 -2
-1620 -5z"/>
<path d="M4745 2501 c3 -5 -4 -12 -15 -16 -35 -11 -21 -47 35 -89 l35 -27 0
70 0 71 -31 0 c-16 0 -28 -4 -24 -9z"/>
<path d="M3520 2361 c0 -5 -7 -17 -16 -26 -15 -15 -15 -17 4 -31 29 -20 40
-62 51 -191 8 -103 12 -117 40 -155 17 -23 31 -52 31 -64 0 -17 11 -27 45 -40
29 -13 46 -27 50 -41 9 -36 -15 -111 -47 -145 l-29 -31 22 -65 c20 -59 20 -69
8 -121 -9 -40 -22 -65 -46 -88 -28 -27 -32 -36 -24 -51 15 -28 65 -48 148 -61
121 -19 188 -37 265 -74 85 -41 181 -102 223 -141 72 -68 118 -98 245 -161 74
-37 137 -72 138 -76 2 -5 9 -9 16 -9 7 0 45 -23 84 -50 l72 -51 0 573 -1 573
-24 28 c-25 28 -45 29 -45 1 0 -8 -7 -14 -15 -14 -9 0 -15 9 -15 23 0 36 -38
90 -60 84 -11 -3 -26 3 -37 15 -24 27 -323 168 -355 168 -7 0 4 -16 25 -36 39
-37 44 -53 10 -36 -10 6 -29 15 -43 21 -14 6 -38 20 -55 30 -16 10 -41 22 -53
26 -22 6 -23 5 -12 -15 14 -25 12 -25 -55 21 -53 36 -139 71 -299 123 -72 24
-154 55 -183 69 -58 30 -63 31 -63 18z"/>
<path d="M1380 2292 c-8 -4 -50 -31 -92 -59 -42 -29 -81 -53 -85 -53 -12 0
-172 -99 -207 -127 -16 -14 -47 -47 -68 -74 -40 -49 -68 -67 -48 -29 24 44
-30 12 -97 -58 -58 -61 -78 -64 -43 -6 l23 36 -24 -12 c-13 -7 -72 -63 -131
-124 -59 -61 -110 -108 -113 -104 -8 7 30 82 65 128 75 99 5 45 -135 -104 -54
-58 -104 -106 -110 -106 -5 0 -16 -9 -23 -20 -24 -39 -31 -19 -12 38 20 57 20
57 0 33 -11 -13 -20 -29 -20 -35 0 -7 -17 -32 -38 -56 -35 -38 -40 -40 -47
-24 -14 34 -14 65 1 99 8 19 14 37 14 40 0 3 -28 -16 -63 -43 -34 -26 -77 -54
-95 -61 l-32 -13 0 -749 c0 -412 2 -749 4 -749 2 0 16 18 31 40 15 22 32 37
38 33 5 -3 7 -1 3 5 -3 6 -2 13 4 17 5 3 10 -1 10 -11 0 -15 2 -15 22 -2 12 8
24 21 26 29 3 9 -2 8 -17 -5 -18 -16 -21 -17 -21 -3 0 8 21 36 47 60 84 78
245 207 259 207 8 0 14 4 14 8 0 4 20 21 45 36 25 16 45 32 45 36 0 4 37 33
83 64 45 31 100 70 123 86 79 57 234 212 331 333 54 67 102 127 108 133 26 29
101 119 112 134 10 13 6 21 -21 42 -55 44 -70 135 -37 226 l20 53 -40 37 c-53
50 -62 105 -25 149 14 16 23 33 19 37 -3 3 7 6 23 6 27 0 30 5 48 60 10 33 24
60 32 60 17 0 21 16 33 130 14 121 24 156 56 185 14 13 25 31 25 40 0 8 -1 15
-2 14 -2 0 -10 -3 -18 -7z"/>
<path d="M3600 1800 c0 -34 25 -90 40 -90 16 0 50 58 44 74 -6 17 -54 46 -74
46 -5 0 -10 -14 -10 -30z"/>
<path d="M1180 1730 l-33 -31 28 -29 c44 -46 55 -40 55 30 0 33 -4 60 -9 60
-5 0 -24 -14 -41 -30z"/>
<path d="M1266 1743 c-4 -9 -2 -21 4 -27 7 -7 10 -2 10 17 0 31 -5 34 -14 10z"/>
<path d="M18 1668 c-10 -12 -18 -34 -18 -48 0 -24 1 -24 21 9 25 41 22 71 -3
39z"/>
</g>
</svg>
