<?xml version="1.0" standalone="no"?>
<!DOCTYPE svg PUBLIC "-//W3C//DTD SVG 20010904//EN"
 "http://www.w3.org/TR/2001/REC-SVG-20010904/DTD/svg10.dtd">
<svg version="1.0" xmlns="http://www.w3.org/2000/svg"
 width="480.000000pt" height="360.000000pt" viewBox="0 0 480.000000 360.000000"
 preserveAspectRatio="xMidYMid meet">
<metadata>
Created by potrace 1.16, written by Peter Selinger 2001-2019
</metadata>
<rect width="1" height="360" fill="#000000"/>
<rect x="479" width="1" height="360" fill="#000000"/>
<rect width="480" height="1" fill="#000000"/>
<rect y="359" width="480" height="1" fill="#000000"/>
<g transform="translate(0.000000,360.000000) scale(0.100000,-0.100000)"
fill="#000000" stroke="none">
<path d="M0 1800 l0 -1800 858 0 c676 1 853 3 840 13 -9 7 -70 48 -134 92
-119 80 -155 112 -229 199 -42 50 -89 81 -106 71 -14 -9 -74 24 -176 98 -155
111 -360 224 -533 294 -36 14 -92 43 -125 64 -33 20 -87 53 -121 73 -92 53
-135 101 -162 176 -12 36 -22 79 -22 97 0 54 44 157 93 219 52 66 115 197 158
324 119 360 270 629 720 1277 35 51 93 142 128 202 35 60 77 126 93 145 44 54
139 117 283 190 l130 66 -847 0 -848 0 0 -1800z"/>
<path d="M2920 3591 c0 -5 6 -14 14 -20 13 -11 28 -57 41 -128 9 -46 -14 -55
-120 -47 l-85 7 1 -49 c1 -72 8 -85 81 -174 114 -136 236 -410 256 -570 29
-237 -88 -459 -274 -521 -58 -20 -92 -24 -209 -25 -106 -1 -170 -7 -265 -26
-69 -14 -156 -31 -195 -38 -99 -18 -192 -48 -198 -64 -3 -7 7 -30 21 -51 26
-35 27 -43 25 -144 0 -58 -3 -119 -5 -136 l-3 -30 140 -1 c77 -1 187 -9 244
-18 58 -9 118 -16 135 -16 38 0 270 58 426 106 141 44 209 80 370 197 69 50
150 105 180 122 38 21 60 42 71 65 24 51 81 271 119 455 38 186 67 304 80 325
23 36 68 -36 69 -112 1 -20 -3 -58 -9 -85 -5 -26 -24 -122 -40 -213 -29 -158
-30 -167 -15 -217 l15 -51 118 1 c113 2 119 1 187 -31 80 -38 152 -106 189
-181 15 -28 32 -90 41 -147 9 -54 17 -99 18 -101 2 -1 14 8 27 20 14 13 48 41
76 62 28 22 79 64 113 93 34 29 66 50 71 47 4 -3 35 9 69 26 75 39 76 43 67
266 -6 155 -5 164 14 180 20 17 20 28 20 625 l0 608 -940 0 c-533 0 -940 -4
-940 -9z"/>
<path d="M4789 1755 c-4 -3 -55 -26 -113 -50 -92 -38 -165 -81 -226 -133 -55
-47 -104 -82 -115 -82 -7 0 -27 -38 -45 -87 -76 -210 -202 -388 -555 -783
-179 -200 -279 -325 -383 -478 l-93 -137 767 -3 c422 -1 769 -1 771 1 2 2 2
399 1 881 -2 483 -6 875 -9 871z"/>
<path d="M2687 1543 c-9 -2 -15 -9 -12 -14 9 -14 51 -11 65 6 10 13 9 15 -11
14 -13 -1 -32 -3 -42 -6z"/>
<path d="M1500 1453 c0 -41 27 -104 48 -111 18 -6 14 66 -6 107 -24 50 -42 51
-42 4z"/>
</g>
</svg>
