<?xml version="1.0" standalone="no"?>
<!DOCTYPE svg PUBLIC "-//W3C//DTD SVG 20010904//EN"
 "http://www.w3.org/TR/2001/REC-SVG-20010904/DTD/svg10.dtd">
<svg version="1.0" xmlns="http://www.w3.org/2000/svg"
 width="480.000000pt" height="360.000000pt" viewBox="0 0 480.000000 360.000000"
 preserveAspectRatio="xMidYMid meet">
<metadata>
Created by potrace 1.16, written by Peter Selinger 2001-2019
</metadata>
<rect width="1" height="360" fill="#000000"/>
<rect x="479" width="1" height="360" fill="#000000"/>
<rect width="480" height="1" fill="#000000"/>
<rect y="359" width="480" height="1" fill="#000000"/>
<g transform="translate(0.000000,360.000000) scale(0.100000,-0.100000)"
fill="#000000" stroke="none">
<path d="M1125 3573 c13 -53 98 -238 122 -267 13 -16 35 -51 49 -77 13 -27 26
-49 28 -49 2 0 -5 26 -16 57 -25 77 -20 98 12 53 24 -34 25 -42 28 -208 l3
-174 -29 7 c-44 9 -62 -17 -39 -57 9 -16 15 -33 13 -37 -3 -4 -10 -147 -16
-317 -10 -279 -13 -312 -31 -336 -23 -33 -23 -33 -1 -35 9 -1 31 -3 47 -5 l30
-3 3 -224 3 -224 -35 -51 c-44 -66 -69 -117 -94 -192 -11 -34 -41 -91 -67
-128 -27 -38 -44 -74 -41 -82 3 -9 -7 -26 -27 -44 -46 -40 -109 -144 -101
-165 5 -11 -4 -26 -29 -46 -34 -28 -127 -175 -127 -200 0 -7 -10 -26 -23 -43
-42 -56 -110 -190 -112 -224 -2 -19 -16 -47 -33 -67 -35 -39 -50 -77 -33 -83
18 -6 13 -18 -29 -67 -22 -25 -41 -54 -42 -63 -1 -9 -2 -24 -3 -32 0 -8 -9
-27 -19 -43 -13 -19 -17 -38 -13 -62 3 -19 2 -37 -4 -40 -5 -4 -14 -15 -19
-26 -11 -19 13 -19 2156 -19 l2166 0 -5 43 c-3 23 -12 68 -21 99 -16 54 -16
59 4 117 17 53 20 86 20 255 l0 195 -47 7 c-25 4 -85 4 -132 0 -161 -14 -143
-20 -168 56 -56 166 -102 367 -138 598 -22 139 -42 212 -78 285 -34 68 -125
164 -209 219 l-56 38 -7 81 c-14 176 -36 380 -61 565 -24 184 -29 275 -10 210
20 -70 134 -333 144 -333 6 0 18 -9 25 -20 10 -13 4 32 -19 140 -19 88 -50
254 -69 369 -20 114 -47 269 -61 344 -13 74 -21 139 -17 143 15 13 71 20 78
10 8 -14 68 -14 82 0 8 8 13 8 17 0 13 -21 31 -11 64 37 25 37 32 58 32 95 l0
47 -1526 0 -1526 0 7 -27z m635 -999 c0 -8 -14 -60 -31 -116 -17 -57 -32 -119
-33 -138 -3 -42 -27 -100 -49 -119 -10 -7 -17 -23 -17 -34 0 -16 -3 -18 -11
-10 -8 8 -7 81 5 275 9 144 19 280 22 302 l6 38 54 -92 c30 -51 54 -98 54
-106z m-159 -490 c23 -21 13 -50 -26 -74 -30 -18 -61 -71 -49 -83 2 -2 -3 -10
-12 -18 -16 -13 -17 -11 -11 21 4 19 9 55 12 80 12 86 14 90 42 90 14 0 34 -7
44 -16z m2333 -130 c3 -8 2 -12 -4 -9 -6 3 -10 10 -10 16 0 14 7 11 14 -7z"/>
</g>
</svg>
