<?xml version="1.0" standalone="no"?>
<!DOCTYPE svg PUBLIC "-//W3C//DTD SVG 20010904//EN"
 "http://www.w3.org/TR/2001/REC-SVG-20010904/DTD/svg10.dtd">
<svg version="1.0" xmlns="http://www.w3.org/2000/svg"
 width="480.000000pt" height="360.000000pt" viewBox="0 0 480.000000 360.000000"
 preserveAspectRatio="xMidYMid meet">
<metadata>
Created by potrace 1.16, written by Peter Selinger 2001-2019
</metadata>
<rect width="1" height="360" fill="#000000"/>
<rect x="479" width="1" height="360" fill="#000000"/>
<rect width="480" height="1" fill="#000000"/>
<rect y="359" width="480" height="1" fill="#000000"/>
<g transform="translate(0.000000,360.000000) scale(0.100000,-0.100000)"
fill="#000000" stroke="none">
<path d="M0 3016 c0 -550 1 -584 18 -582 11 1 17 -6 17 -19 0 -13 -6 -20 -17
-19 -17 2 -18 -61 -18 -1197 l0 -1199 329 0 328 0 36 54 c21 32 40 75 45 106
9 47 8 53 -9 57 -13 4 -24 23 -35 58 -13 47 -13 57 0 89 9 21 13 50 9 71 -3
20 -1 41 6 49 9 11 8 24 -4 57 -28 76 -28 76 -5 82 19 5 21 11 18 64 l-3 58
-33 -3 c-41 -4 -86 27 -112 78 -29 58 -26 91 13 115 40 25 54 54 67 136 5 35
14 89 20 119 11 61 70 513 70 537 0 13 -3 13 -15 3 -12 -10 -21 -10 -45 0 -39
16 -45 27 -27 48 18 21 50 151 50 203 0 32 -8 47 -45 87 -54 57 -93 137 -120
245 -16 65 -19 101 -15 186 9 199 63 281 284 431 171 117 268 166 382 192 47
11 124 31 170 45 47 14 117 27 157 30 l72 6 -5 108 c-4 62 -2 109 3 109 11 -1
96 -109 156 -199 23 -35 81 -103 129 -152 90 -91 146 -179 174 -272 8 -27 28
-72 45 -101 25 -44 39 -57 81 -75 63 -28 88 -29 163 -7 l60 18 34 -41 c18 -23
41 -41 49 -41 13 0 14 -8 9 -41 -13 -79 -73 -199 -100 -199 -7 0 -25 10 -40
21 -39 30 -50 14 -31 -47 8 -27 15 -50 15 -51 0 -1 -7 0 -15 3 -11 5 -14 -2
-13 -28 1 -21 -9 -52 -26 -81 -29 -48 -40 -60 -29 -29 3 9 3 14 -1 10 -9 -7
-14 -33 -15 -72 -1 -23 -4 -26 -15 -17 -11 9 -15 7 -21 -11 -7 -22 -7 -22 -12
-3 -10 46 -12 48 -29 34 -36 -30 -58 -92 -59 -166 0 -40 3 -73 6 -73 14 0 18
-31 8 -48 -9 -14 -6 -29 15 -70 29 -58 21 -68 -18 -21 -14 17 -30 28 -34 25
-5 -3 -17 -27 -27 -53 -32 -88 -67 -153 -94 -175 -24 -19 -34 -20 -129 -14
l-103 6 3 -42 3 -43 125 -22 c69 -12 172 -35 230 -52 58 -17 114 -31 125 -31
24 -1 58 -44 53 -68 -2 -13 -11 -16 -36 -14 -39 4 -41 -7 -6 -39 14 -13 39
-50 55 -81 32 -62 44 -74 62 -60 25 20 136 55 247 78 175 36 387 32 585 -11
173 -38 414 -152 560 -266 184 -143 353 -340 451 -525 26 -49 53 -98 61 -109
7 -11 13 -27 13 -36 0 -18 -12 -24 -155 -81 -55 -22 -102 -42 -104 -44 -2 -2
179 -4 402 -4 l407 0 0 1800 0 1800 -2400 0 -2400 0 0 -584z m4168 -145 c3 -8
-1 -12 -9 -9 -7 2 -15 10 -17 17 -3 8 1 12 9 9 7 -2 15 -10 17 -17z m-924
-713 c20 -23 36 -51 36 -62 0 -17 -5 -14 -32 16 -18 19 -54 44 -80 56 -27 11
-48 23 -48 26 0 3 20 6 44 6 40 0 48 -4 80 -42z m1066 -308 c0 -5 -4 -10 -10
-10 -5 0 -10 5 -10 10 0 6 5 10 10 10 6 0 10 -4 10 -10z"/>
<path d="M1220 1329 c0 -5 5 -7 10 -4 6 3 10 8 10 11 0 2 -4 4 -10 4 -5 0 -10
-5 -10 -11z"/>
<path d="M747 816 c-4 -10 -5 -21 -2 -24 9 -9 17 6 13 25 -3 17 -4 17 -11 -1z"/>
</g>
</svg>
