<?xml version="1.0" standalone="no"?>
<!DOCTYPE svg PUBLIC "-//W3C//DTD SVG 20010904//EN"
 "http://www.w3.org/TR/2001/REC-SVG-20010904/DTD/svg10.dtd">
<svg version="1.0" xmlns="http://www.w3.org/2000/svg"
 width="480.000000pt" height="360.000000pt" viewBox="0 0 480.000000 360.000000"
 preserveAspectRatio="xMidYMid meet">
<metadata>
Created by potrace 1.16, written by Peter Selinger 2001-2019
</metadata>
<rect width="1" height="360" fill="#000000"/>
<rect x="479" width="1" height="360" fill="#000000"/>
<rect width="480" height="1" fill="#000000"/>
<rect y="359" width="480" height="1" fill="#000000"/>
<g transform="translate(0.000000,360.000000) scale(0.100000,-0.100000)"
fill="#000000" stroke="none">
<path d="M1690 3583 c0 -5 16 -21 35 -36 29 -23 35 -34 35 -67 0 -74 -62 -113
-140 -86 l-25 8 22 -24 23 -24 -56 -39 c-31 -22 -75 -54 -98 -70 -84 -61 -100
-69 -141 -66 -22 1 -44 7 -49 12 -24 23 -53 8 -85 -42 -36 -59 -37 -61 -12
-83 10 -9 33 -48 50 -86 l33 -70 -28 -57 c-37 -80 -43 -143 -15 -181 11 -17
21 -34 21 -39 0 -4 11 -21 25 -38 18 -21 23 -24 19 -10 -5 15 -4 17 4 10 16
-14 54 -167 45 -176 -5 -4 -33 -16 -63 -27 -30 -11 -80 -30 -110 -42 -30 -11
-98 -36 -150 -55 -52 -18 -126 -46 -165 -60 -78 -30 -154 -55 -167 -55 -4 0
-8 10 -8 23 0 18 -8 26 -35 35 -20 5 -48 7 -63 3 -60 -16 -78 -8 -168 74 -85
79 -214 220 -214 236 0 4 21 6 48 2 61 -7 169 34 200 77 31 41 45 112 32 160
-15 57 -71 131 -122 163 l-45 28 -77 -14 c-83 -16 -117 -33 -143 -75 -30 -46
-43 -56 -56 -43 -6 6 -19 11 -29 11 -17 0 -18 -60 -18 -1430 l0 -1430 60 0
c59 0 60 1 61 28 2 65 -3 124 -16 179 -13 56 -13 59 8 75 12 9 42 22 67 29 25
7 54 18 65 25 11 7 36 15 55 19 36 8 90 32 175 80 84 48 117 77 136 122 10 24
25 46 34 49 29 12 37 41 20 81 -21 49 -43 72 -140 143 -137 100 -196 197 -358
585 -11 28 -42 83 -69 124 -54 84 -59 114 -23 151 l25 26 -16 170 c-9 93 -22
183 -29 201 l-13 31 56 14 c52 13 123 10 138 -5 3 -3 -3 -19 -15 -36 -29 -40
-42 -112 -25 -136 12 -16 14 -17 20 -2 9 24 50 21 68 -4 14 -21 16 -21 88 -7
49 10 77 12 86 5 12 -10 93 -164 105 -202 16 -49 54 -133 70 -155 17 -24 23
-25 130 -27 61 -1 120 -2 131 -3 10 0 32 13 49 29 16 17 33 31 38 31 4 0 11
10 15 22 15 50 88 82 114 51 8 -10 43 -33 78 -50 48 -26 75 -33 118 -33 74 0
106 -19 144 -84 28 -50 30 -60 25 -113 -6 -53 -5 -60 18 -82 14 -12 30 -20 36
-16 7 4 11 -5 11 -24 0 -16 -5 -33 -11 -37 -6 -3 -9 -14 -6 -23 2 -10 -11 -33
-35 -56 -48 -49 -90 -118 -161 -269 -62 -130 -135 -256 -249 -433 -60 -94 -85
-144 -107 -215 -37 -119 -51 -180 -51 -223 l0 -35 695 0 695 0 0 33 c0 18 4
37 9 42 12 13 -11 175 -39 270 -11 39 -27 144 -35 235 -32 352 -50 452 -99
549 -29 56 -27 90 4 126 30 34 32 58 15 207 -18 173 -29 230 -60 328 -29 90
-45 183 -45 265 0 72 -33 152 -74 178 -15 10 -24 22 -21 28 4 5 9 7 13 5 4 -2
20 6 36 19 22 18 33 41 52 116 13 52 24 106 24 120 0 16 7 30 18 34 16 7 15 8
-3 15 -19 7 -19 7 1 18 31 17 294 112 310 112 8 0 11 -6 8 -15 -5 -11 1 -15
21 -15 23 0 25 -3 16 -14 -15 -18 -3 -26 32 -19 38 7 44 27 18 59 l-21 27 21
15 20 14 -22 24 c-12 13 -27 24 -32 24 -5 0 -20 9 -33 19 -25 20 -37 18 -107
-20 -36 -20 -238 -99 -252 -99 -18 0 -40 80 -36 128 0 7 22 35 47 62 45 48 45
49 29 74 -10 14 -25 26 -35 26 -22 0 -34 31 -24 63 6 21 5 20 -23 -5 -36 -34
-43 -35 -43 -4 0 39 -18 76 -33 70 -8 -3 -26 11 -43 33 -15 20 -56 69 -90 108
-58 66 -61 72 -43 83 29 18 47 53 54 104 6 42 4 49 -22 75 -15 16 -39 36 -53
44 -30 19 -80 32 -80 22z m698 -839 c3 -19 -13 -27 -135 -73 -141 -52 -163
-58 -163 -42 0 19 13 41 24 41 6 0 61 23 121 50 118 53 148 57 153 24z m-1020
-385 c-2 -7 -35 -22 -73 -35 -39 -13 -79 -28 -90 -33 -11 -5 -38 -15 -60 -22
-22 -6 -48 -15 -57 -20 -10 -5 -29 -9 -43 -9 -15 0 -24 -4 -20 -10 4 -6 3 -10
-2 -9 -4 1 -19 -2 -33 -8 -14 -6 -43 -13 -65 -17 -37 -6 -36 -4 20 20 33 14
71 30 85 34 25 9 110 41 210 80 106 42 134 48 128 29z m20 -62 c3 -12 -4 -17
-23 -17 -14 0 -35 -5 -46 -11 -11 -5 -30 -9 -42 -7 -18 3 -16 6 18 22 22 10
47 22 55 26 20 12 34 7 38 -13z m73 13 c6 0 7 -4 4 -10 -10 -16 -45 -12 -45 6
0 11 5 14 16 10 9 -3 20 -6 25 -6z m-319 -110 c-15 -22 -34 -42 -43 -45 -9 -3
-19 -13 -21 -23 -3 -10 -27 -25 -56 -35 -32 -11 -59 -28 -72 -47 -12 -17 -26
-28 -31 -25 -21 13 -75 -7 -94 -36 -11 -16 -23 -29 -27 -29 -6 0 -28 87 -28
110 0 6 9 10 20 10 12 0 17 5 14 14 -4 10 15 21 63 39 134 50 288 105 295 106
4 1 -5 -17 -20 -39z"/>
</g>
</svg>
