<?xml version="1.0" standalone="no"?>
<!DOCTYPE svg PUBLIC "-//W3C//DTD SVG 20010904//EN"
 "http://www.w3.org/TR/2001/REC-SVG-20010904/DTD/svg10.dtd">
<svg version="1.0" xmlns="http://www.w3.org/2000/svg"
 width="480.000000pt" height="360.000000pt" viewBox="0 0 480.000000 360.000000"
 preserveAspectRatio="xMidYMid meet">
<metadata>
Created by potrace 1.16, written by Peter Selinger 2001-2019
</metadata>
<rect width="1" height="360" fill="#000000"/>
<rect x="479" width="1" height="360" fill="#000000"/>
<rect width="480" height="1" fill="#000000"/>
<rect y="359" width="480" height="1" fill="#000000"/>
<g transform="translate(0.000000,360.000000) scale(0.100000,-0.100000)"
fill="#000000" stroke="none">
<path d="M0 2711 l0 -889 233 -5 c188 -4 258 -10 372 -30 451 -82 919 -137
1380 -163 l290 -16 210 35 c247 42 265 47 265 81 0 13 3 31 6 39 3 10 -3 20
-16 27 -21 11 -130 36 -205 46 -22 3 -47 12 -55 19 -11 10 -28 12 -53 8 -42
-6 -77 16 -77 49 0 11 27 48 60 82 33 35 60 66 60 69 0 4 -11 7 -25 7 -52 0
-40 51 25 107 57 49 236 254 288 328 l46 67 2 129 c2 95 -1 139 -12 164 -8 19
-14 48 -14 64 0 38 -19 81 -37 81 -7 0 -13 5 -13 11 0 5 -10 9 -22 7 -16 -2
-28 7 -45 31 -16 24 -53 49 -129 88 -58 30 -111 52 -118 50 -20 -8 -78 -213
-97 -347 -23 -153 -23 -204 -4 -351 15 -110 14 -118 -5 -173 -41 -119 -38
-223 7 -276 14 -17 23 -33 20 -36 -13 -13 -69 30 -89 69 -21 38 -23 56 -24
202 0 111 -5 184 -17 238 -36 167 -16 455 47 677 14 47 22 97 19 112 -4 19 -1
30 10 34 19 7 105 -36 149 -75 31 -26 148 -91 165 -91 12 0 48 61 63 105 29
90 109 165 145 135 10 -8 33 -10 75 -5 50 6 67 3 103 -14 101 -49 131 -224 43
-247 -23 -5 -46 -40 -46 -69 0 -8 -4 -15 -10 -15 -23 0 -7 -20 36 -45 36 -21
51 -25 68 -18 26 13 106 -12 106 -33 0 -8 3 -14 6 -14 10 0 297 -60 317 -66
22 -7 22 -31 -3 -71 -13 -22 -27 -33 -42 -33 -13 0 -72 21 -133 46 -171 71
-190 76 -211 52 -12 -12 -17 -32 -16 -56 1 -23 -6 -50 -19 -72 -26 -41 -27
-134 -3 -161 8 -8 14 -26 14 -38 0 -26 19 -65 68 -138 18 -28 31 -56 28 -62
-4 -6 3 -47 14 -92 28 -110 36 -199 20 -229 -12 -22 -14 -22 -25 -7 -27 37
-35 18 -32 -80 2 -77 -2 -105 -15 -132 -10 -19 -18 -35 -18 -36 0 -5 260 65
516 139 346 100 384 108 544 111 l135 2 83 119 c121 174 156 218 195 238 43
24 64 16 83 -31 35 -82 24 -104 -281 -548 -385 -562 -519 -720 -853 -1010
-161 -139 -230 -187 -307 -214 l-70 -23 -65 30 c-36 18 -84 47 -106 66 -38 32
-45 34 -149 44 -164 15 -322 74 -498 188 l-68 45 -132 -12 c-181 -15 -424 5
-603 51 -43 11 -89 20 -104 20 -15 0 -110 -25 -211 -56 -228 -70 -316 -94
-345 -94 -38 0 -223 69 -338 127 -131 65 -246 139 -336 214 -64 53 -66 54
-143 59 l-77 5 0 -627 0 -628 2400 0 2400 0 0 1800 0 1800 -2400 0 -2400 0 0
-889z"/>
<path d="M2680 3149 c0 -5 5 -7 10 -4 6 3 10 8 10 11 0 2 -4 4 -10 4 -5 0 -10
-5 -10 -11z"/>
</g>
</svg>
