<?xml version="1.0" standalone="no"?>
<!DOCTYPE svg PUBLIC "-//W3C//DTD SVG 20010904//EN"
 "http://www.w3.org/TR/2001/REC-SVG-20010904/DTD/svg10.dtd">
<svg version="1.0" xmlns="http://www.w3.org/2000/svg"
 width="480.000000pt" height="360.000000pt" viewBox="0 0 480.000000 360.000000"
 preserveAspectRatio="xMidYMid meet">
<metadata>
Created by potrace 1.16, written by Peter Selinger 2001-2019
</metadata>
<rect width="1" height="360" fill="#000000"/>
<rect x="479" width="1" height="360" fill="#000000"/>
<rect width="480" height="1" fill="#000000"/>
<rect y="359" width="480" height="1" fill="#000000"/>
<g transform="translate(0.000000,360.000000) scale(0.100000,-0.100000)"
fill="#000000" stroke="none">
<path d="M1265 3570 c8 -37 1 -37 -41 -5 -18 14 -37 25 -43 25 -14 0 -14 -25
-1 -49 8 -17 1 -21 -60 -41 -64 -20 -70 -21 -92 -6 -12 9 -26 16 -30 16 -4 0
-17 -27 -29 -60 -25 -68 -31 -75 -79 -87 -21 -6 -35 -16 -34 -25 1 -8 23 -47
49 -87 26 -39 45 -74 42 -78 -3 -3 -32 18 -65 46 -52 45 -82 62 -82 46 0 -3
12 -23 26 -45 14 -21 23 -44 19 -50 -13 -21 33 -144 67 -181 19 -20 33 -41 32
-45 -1 -5 -5 -21 -8 -36 -6 -25 -11 -28 -49 -28 -38 0 -44 3 -64 39 -17 29
-41 49 -90 75 -59 32 -77 36 -133 36 -36 -1 -112 -13 -170 -27 -89 -22 -111
-31 -143 -62 -21 -20 -45 -48 -53 -63 -8 -16 -21 -28 -29 -28 -7 0 -17 -10
-20 -21 -4 -12 -19 -32 -33 -44 -25 -21 -25 -23 -12 -70 8 -27 22 -57 32 -67
10 -10 18 -29 18 -43 0 -39 27 -96 64 -135 54 -57 100 -128 155 -245 29 -61
60 -125 69 -144 37 -75 156 -101 307 -66 36 9 70 13 76 10 5 -4 18 -23 28 -43
27 -52 59 -78 111 -92 25 -7 66 -21 91 -32 41 -17 50 -27 73 -77 14 -31 36
-97 49 -146 23 -85 23 -94 11 -165 -7 -41 -13 -85 -14 -97 0 -25 36 -64 54
-58 6 3 19 -7 29 -21 18 -24 18 -26 2 -38 -9 -6 -18 -28 -19 -48 -2 -24 -15
-51 -39 -80 -61 -74 -103 -175 -181 -433 -91 -304 -131 -426 -185 -569 -23
-60 -41 -113 -41 -117 0 -5 379 -9 851 -9 l850 0 -28 50 c-15 28 -61 94 -101
148 -115 153 -210 360 -302 662 -31 101 -73 197 -110 250 -9 14 -20 48 -24 75
-6 49 -5 52 29 85 l35 34 0 220 c0 272 -12 380 -49 462 -27 58 -28 61 -10 72
10 7 27 29 36 49 15 30 26 39 68 50 28 8 62 27 76 42 23 23 41 30 113 40 107
15 205 44 240 72 15 11 36 40 47 62 50 99 123 209 184 277 36 40 66 80 67 89
0 9 2 29 3 45 2 28 9 37 51 61 14 9 15 15 5 32 -6 12 -11 34 -11 49 0 15 -7
35 -15 44 -18 20 -9 57 15 65 10 3 37 -2 59 -11 84 -34 167 -2 191 72 14 40 7
64 -27 104 -36 43 -83 42 -117 -3 -14 -18 -30 -44 -36 -57 l-10 -25 5 27 c6
32 -9 76 -30 84 -9 4 -33 -10 -61 -35 -26 -23 -57 -41 -69 -41 -19 0 -23 7
-28 52 -4 28 -12 55 -18 59 -17 10 -49 -1 -62 -22 -7 -11 -21 -19 -33 -19 -34
0 -54 -30 -47 -73 4 -30 2 -37 -10 -37 -17 0 -34 60 -22 79 12 21 -5 51 -29
51 -34 0 -48 -22 -40 -64 5 -31 4 -36 -13 -36 -25 0 -43 -19 -43 -46 0 -12 -6
-26 -13 -32 -7 -7 -82 -34 -166 -62 -141 -47 -160 -51 -258 -53 l-105 -2 -20
64 c-19 62 -57 133 -78 146 -12 7 1 36 29 64 25 25 37 102 17 116 -8 6 -18 35
-22 64 -8 61 -31 94 -86 122 -35 18 -44 19 -65 8 -19 -10 -30 -10 -54 -1 -16
7 -44 17 -61 23 -18 6 -50 20 -70 30 -41 21 -89 24 -119 9 -13 -7 -19 -7 -19
0 0 5 -14 10 -31 10 -29 0 -30 -2 -24 -30z m1179 -658 c15 -17 15 -22 1 -63
-30 -84 -137 -267 -170 -291 -18 -14 -142 -8 -178 7 -20 8 -60 15 -89 15 l-53
1 35 19 c19 11 43 19 53 20 10 0 37 9 60 19 24 11 74 31 111 45 38 15 96 38
128 53 63 28 68 39 43 96 -6 14 -2 20 15 24 18 5 21 11 18 39 -5 38 2 42 26
16z m-1506 -114 c-3 -8 -26 -14 -56 -16 -43 -3 -51 -1 -46 12 8 20 108 23 102
4z m59 -145 c54 -116 93 -210 93 -224 0 -7 -7 -8 -17 -4 -10 4 -50 11 -90 17
-80 11 -118 0 -173 -52 -17 -16 -44 -33 -60 -39 -28 -9 -31 -8 -47 22 -21 38
-36 80 -64 167 -12 36 -25 75 -30 88 -18 46 -12 62 25 62 19 0 62 9 97 19 73
22 103 27 175 30 l51 1 40 -87z m153 -252 c0 -11 -3 -11 -15 -1 -8 7 -15 24
-15 39 l1 26 14 -25 c8 -14 14 -31 15 -39z"/>
</g>
</svg>
