<?xml version="1.0" standalone="no"?>
<!DOCTYPE svg PUBLIC "-//W3C//DTD SVG 20010904//EN"
 "http://www.w3.org/TR/2001/REC-SVG-20010904/DTD/svg10.dtd">
<svg version="1.0" xmlns="http://www.w3.org/2000/svg"
 width="480.000000pt" height="360.000000pt" viewBox="0 0 480.000000 360.000000"
 preserveAspectRatio="xMidYMid meet">
<metadata>
Created by potrace 1.16, written by Peter Selinger 2001-2019
</metadata>
<rect width="1" height="360" fill="#000000"/>
<rect x="479" width="1" height="360" fill="#000000"/>
<rect width="480" height="1" fill="#000000"/>
<rect y="359" width="480" height="1" fill="#000000"/>
<g transform="translate(0.000000,360.000000) scale(0.100000,-0.100000)"
fill="#000000" stroke="none">
<path d="M369 3581 c-8 -10 -39 -50 -70 -87 -81 -101 -179 -245 -243 -359
l-56 -100 0 -1239 0 -1240 62 -105 c81 -140 161 -257 245 -361 l69 -85 432 -3
c238 -1 432 -1 432 0 0 2 -8 26 -19 53 -10 28 -29 102 -41 165 -20 102 -22
133 -17 285 6 167 10 191 60 360 99 339 384 653 737 813 139 63 339 112 459
112 72 0 276 43 366 76 114 43 241 110 323 171 133 98 280 251 369 384 55 82
131 252 157 349 34 127 59 354 51 450 -10 106 -40 266 -62 325 l-19 50 -1611
3 c-1568 2 -1611 2 -1624 -17z m2106 -215 c100 -47 173 -157 182 -271 4 -61 1
-78 -22 -130 -56 -125 -135 -183 -271 -200 -59 -8 -168 17 -199 45 -11 9 -30
23 -43 29 -14 8 -39 45 -63 94 -33 69 -39 90 -39 148 0 139 97 269 220 297 86
19 180 14 235 -12z"/>
<path d="M4494 3518 c90 -113 201 -276 258 -378 l48 -85 0 273 0 272 -186 0
-185 0 65 -82z"/>
<path d="M2365 877 c-139 -37 -229 -134 -259 -281 -31 -148 52 -313 194 -387
40 -22 58 -24 165 -23 140 0 183 15 251 86 117 122 144 261 79 406 -32 73
-114 153 -184 184 -58 25 -178 32 -246 15z"/>
<path d="M4751 445 c-54 -99 -137 -221 -235 -345 l-75 -95 176 -3 c97 -1 178
-1 180 1 2 2 2 121 1 263 l-3 259 -44 -80z"/>
</g>
</svg>
