<?xml version="1.0" standalone="no"?>
<!DOCTYPE svg PUBLIC "-//W3C//DTD SVG 20010904//EN"
 "http://www.w3.org/TR/2001/REC-SVG-20010904/DTD/svg10.dtd">
<svg version="1.0" xmlns="http://www.w3.org/2000/svg"
 width="480.000000pt" height="360.000000pt" viewBox="0 0 480.000000 360.000000"
 preserveAspectRatio="xMidYMid meet">
<metadata>
Created by potrace 1.16, written by Peter Selinger 2001-2019
</metadata>
<rect width="1" height="360" fill="#000000"/>
<rect x="479" width="1" height="360" fill="#000000"/>
<rect width="480" height="1" fill="#000000"/>
<rect y="359" width="480" height="1" fill="#000000"/>
<g transform="translate(0.000000,360.000000) scale(0.100000,-0.100000)"
fill="#000000" stroke="none">
<path d="M2240 3555 c-115 -33 -189 -99 -259 -235 -47 -91 -71 -171 -71 -239
0 -45 -3 -52 -32 -74 -54 -40 -81 -51 -128 -51 -41 -1 -45 -3 -48 -28 -2 -15
-17 -38 -34 -53 l-30 -25 27 -36 c108 -142 144 -171 172 -143 8 8 15 4 27 -12
14 -21 14 -25 -6 -60 -11 -21 -40 -52 -64 -70 -24 -18 -44 -35 -44 -37 0 -2
24 -1 54 2 l54 7 -9 -43 c-4 -24 -8 -54 -9 -68 0 -24 1 -24 23 7 23 35 37 42
37 20 0 -7 7 -38 16 -68 16 -52 17 -53 27 -29 11 23 12 22 15 -20 3 -40 22
-84 22 -51 0 7 5 9 10 6 6 -3 10 -15 10 -25 0 -27 19 -35 34 -15 12 16 14 15
21 -16 l7 -34 8 33 c12 50 20 50 21 1 l1 -44 13 30 13 30 6 -25 c3 -14 7 -41
9 -60 l3 -35 23 50 c20 45 24 48 35 33 18 -25 24 -22 18 8 -3 19 -1 25 7 20 6
-4 11 -25 11 -46 0 -32 -4 -39 -22 -42 -24 -3 -25 -10 -13 -64 7 -29 5 -32
-42 -51 -26 -11 -66 -26 -88 -33 -64 -20 -137 -60 -172 -92 -17 -17 -36 -27
-42 -24 -6 4 -34 46 -63 93 l-52 85 -66 -6 c-359 -33 -457 -15 -685 124 -107
65 -414 212 -433 206 -9 -3 -62 -35 -117 -71 -112 -74 -290 -164 -377 -191
l-58 -18 0 -153 c0 -84 2 -153 4 -153 9 0 66 115 67 134 1 43 33 79 87 97 l52
18 -20 -27 c-15 -20 -28 -79 -51 -237 -41 -277 -45 -325 -28 -325 8 0 41 39
74 86 33 46 104 146 158 221 l98 137 -4 86 c-3 47 -7 109 -9 137 l-4 53 54 40
c30 22 59 40 64 40 5 0 39 -18 75 -40 37 -22 70 -40 75 -40 17 0 7 -40 -12
-50 -11 -6 -38 -38 -61 -72 l-42 -61 5 -276 c3 -165 9 -284 15 -296 10 -17 11
-17 24 6 13 25 77 161 176 378 l57 123 -13 71 c-6 40 -17 81 -24 92 -21 32
-10 56 21 49 79 -17 224 -112 235 -153 4 -15 -3 -26 -23 -41 -15 -10 -44 -51
-64 -90 l-37 -70 30 -281 c16 -155 32 -284 36 -287 11 -11 32 24 64 108 31 83
45 121 111 300 18 47 36 94 42 106 12 25 -22 166 -46 193 -9 10 -13 21 -9 24
3 4 58 7 122 7 211 0 264 -16 207 -61 -15 -12 -44 -56 -66 -98 -36 -72 -38
-80 -29 -126 5 -28 27 -152 49 -278 21 -125 42 -232 45 -237 9 -14 25 -12 30
3 2 6 16 51 31 100 27 88 38 100 73 78 12 -8 8 -28 -22 -118 -42 -127 -79
-269 -97 -370 l-13 -71 -56 -30 c-31 -16 -135 -81 -231 -144 -96 -64 -193
-126 -215 -138 l-41 -23 -121 121 c-99 98 -129 122 -159 128 -45 8 -69 -5 -69
-37 0 -16 11 -30 32 -44 40 -25 43 -58 8 -81 -20 -13 -39 -15 -85 -11 -42 5
-80 1 -134 -13 l-75 -19 -35 33 c-28 25 -36 40 -36 67 0 39 -15 59 -42 59 -13
0 -22 -15 -33 -55 -9 -30 -21 -57 -26 -60 -20 -13 -8 -64 30 -116 21 -30 50
-77 65 -106 31 -62 55 -77 110 -70 38 5 43 3 58 -24 21 -36 33 -36 102 -2 l54
26 79 -26 c43 -14 130 -36 194 -48 113 -22 118 -22 162 -5 61 23 422 225 525
293 125 83 151 125 237 381 27 78 51 139 55 135 31 -35 45 -314 23 -446 -6
-32 -6 -60 -2 -63 14 -8 -1 -84 -26 -134 -27 -53 -109 -245 -119 -277 l-7 -23
670 0 c369 0 671 1 671 3 0 11 -53 138 -107 255 -58 126 -65 145 -54 165 10
18 9 50 -3 153 -10 89 -12 152 -6 203 4 41 6 80 3 88 -3 7 -1 13 5 13 5 0 30
-58 56 -128 54 -149 108 -237 174 -285 59 -43 256 -154 479 -268 146 -76 179
-89 220 -89 69 0 228 27 302 52 l64 21 69 -34 c78 -38 96 -34 113 22 9 32 12
34 48 31 58 -5 108 51 109 121 0 19 15 54 34 84 39 59 42 85 14 120 -11 14
-20 37 -20 50 0 31 -27 83 -43 83 -22 0 -37 -23 -37 -57 0 -25 -10 -44 -37
-74 -36 -38 -40 -39 -73 -29 -19 6 -75 10 -125 8 -107 -2 -130 4 -150 42 -21
40 -19 45 20 69 25 15 35 27 35 45 0 27 -25 46 -50 39 -61 -18 -90 -38 -113
-82 -14 -25 -48 -67 -76 -93 -28 -26 -57 -61 -66 -78 l-16 -31 -75 41 c-41 22
-136 80 -212 127 -75 47 -175 107 -222 132 -70 38 -86 51 -91 76 -4 17 -20 83
-34 148 -22 98 -79 285 -110 359 -5 11 0 18 17 23 13 4 30 14 40 22 20 18 20
18 52 -87 30 -99 41 -119 55 -105 6 6 27 107 46 225 62 369 61 356 40 393 -16
31 -16 35 -1 65 9 17 16 36 16 43 0 6 10 31 21 54 16 33 29 44 52 49 34 7 167
8 167 2 0 -3 -8 -20 -18 -38 -11 -18 -25 -63 -31 -100 -13 -66 -13 -67 22
-145 19 -43 70 -159 112 -258 43 -99 81 -184 86 -190 25 -26 31 23 50 375 l10
206 -43 71 c-24 39 -53 76 -64 81 -44 21 -37 50 24 98 74 60 199 121 214 106
9 -9 9 -18 0 -34 -6 -13 -16 -57 -23 -99 l-11 -75 80 -145 c43 -79 101 -184
127 -234 90 -171 98 -163 90 93 -11 357 -11 358 -46 405 -17 23 -50 59 -73 80
-34 32 -38 40 -26 48 67 42 151 89 160 89 6 0 37 -17 68 -39 l57 -38 -2 -49
c-2 -27 -6 -68 -9 -92 -15 -101 -9 -111 187 -336 100 -113 185 -206 190 -206
17 0 9 48 -40 257 -27 114 -53 224 -56 245 l-7 36 44 -16 c44 -15 70 -49 73
-93 1 -15 42 -79 51 -79 2 0 4 58 4 128 l0 128 -67 24 c-109 38 -259 111 -385
188 -118 73 -149 83 -177 58 -9 -8 -72 -42 -141 -76 -69 -35 -179 -97 -245
-138 -66 -41 -148 -88 -182 -104 -64 -30 -164 -61 -172 -53 -2 3 1 19 6 37 6
18 11 25 12 16 1 -10 5 -18 11 -18 5 0 7 12 5 28 -3 15 -14 89 -25 165 l-20
139 21 17 c17 14 19 20 10 44 -17 44 -13 101 9 129 41 53 62 128 63 223 1 177
-48 255 -161 255 -56 0 -165 -42 -191 -73 -21 -26 -34 -20 -29 14 6 41 -32
175 -65 232 -35 59 -115 128 -193 167 -35 17 -114 42 -176 56 -62 14 -149 33
-193 44 -118 28 -210 33 -275 15z m890 -1004 c0 -38 -7 -133 -16 -211 -12
-111 -13 -157 -5 -205 6 -34 11 -65 11 -69 0 -5 -20 -5 -44 -2 -42 7 -46 5
-69 -26 -13 -18 -40 -62 -60 -98 -61 -111 -59 -109 -102 -72 -55 49 -101 75
-195 112 -114 45 -113 44 -104 104 10 78 25 101 17 29 -6 -66 5 -83 25 -37 7
14 17 22 22 19 5 -3 20 14 32 39 12 26 25 46 28 46 3 0 11 -26 18 -57 30 -138
28 -135 36 -55 5 39 11 74 15 76 3 2 5 -35 4 -82 -2 -90 0 -87 22 37 6 30 8
31 19 16 15 -21 21 -14 30 37 7 38 26 62 26 34 0 -25 14 -19 33 14 10 17 22
30 26 30 4 0 16 -16 27 -35 10 -19 22 -35 26 -35 3 0 4 34 1 76 -6 72 -5 76
13 71 43 -12 84 -18 84 -12 0 3 -13 18 -30 32 -49 41 -43 84 32 203 34 55 65
97 70 94 4 -3 8 -36 8 -73z m-900 -173 c0 7 22 -3 50 -22 27 -19 66 -40 85
-46 19 -6 35 -15 35 -20 0 -5 15 -11 33 -13 25 -3 22 -4 -14 -5 -53 -2 -116
17 -161 49 -23 17 -27 24 -16 30 9 6 7 9 -9 9 -13 0 -23 2 -23 4 0 2 -3 13 -6
23 -5 16 -4 16 10 -1 9 -11 16 -14 16 -8z m296 -219 c3 -6 -1 -18 -10 -27 -15
-15 -16 -14 -16 11 0 27 13 36 26 16z m601 -239 c8 -11 9 -21 3 -25 -14 -9
-62 -167 -57 -187 7 -25 0 -23 -39 11 -18 16 -40 34 -50 39 -19 11 -22 6 64
115 30 37 57 67 61 67 3 0 12 -9 18 -20z m-1408 -87 c33 -38 61 -73 61 -78 0
-6 -17 -28 -38 -48 l-38 -37 -21 52 c-12 29 -25 64 -28 78 -4 14 -15 34 -24
44 -12 14 -13 20 -3 23 6 3 12 11 12 19 0 26 18 14 79 -53z m1588 25 c-3 -8
-6 -5 -6 6 -1 11 2 17 5 13 3 -3 4 -12 1 -19z m-158 -411 c10 -31 15 -57 10
-57 -11 0 -79 68 -79 80 0 9 42 42 47 36 2 -1 11 -28 22 -59z m-1479 16 c0
-11 -35 -63 -42 -63 -11 0 -10 8 4 46 7 20 16 30 25 27 7 -3 13 -7 13 -10z
m2757 -1149 c-3 -3 -12 -4 -19 -1 -8 3 -5 6 6 6 11 1 17 -2 13 -5z"/>
</g>
</svg>
