<?xml version="1.0" standalone="no"?>
<!DOCTYPE svg PUBLIC "-//W3C//DTD SVG 20010904//EN"
 "http://www.w3.org/TR/2001/REC-SVG-20010904/DTD/svg10.dtd">
<svg version="1.0" xmlns="http://www.w3.org/2000/svg"
 width="480.000000pt" height="360.000000pt" viewBox="0 0 480.000000 360.000000"
 preserveAspectRatio="xMidYMid meet">
<metadata>
Created by potrace 1.16, written by Peter Selinger 2001-2019
</metadata>
<rect width="1" height="360" fill="#000000"/>
<rect x="479" width="1" height="360" fill="#000000"/>
<rect width="480" height="1" fill="#000000"/>
<rect y="359" width="480" height="1" fill="#000000"/>
<g transform="translate(0.000000,360.000000) scale(0.100000,-0.100000)"
fill="#000000" stroke="none">
<path d="M629 3523 c-277 -291 -450 -573 -581 -946 l-43 -122 -3 -635 -3 -635
47 -170 c86 -314 188 -588 324 -867 l71 -148 126 0 126 0 -76 77 c-152 155
-308 370 -405 561 -66 128 -147 331 -162 407 -6 33 -16 82 -22 108 -6 26 -10
103 -11 170 -1 322 124 632 352 870 139 146 375 287 557 333 32 8 77 20 99 26
22 6 126 11 230 12 179 0 196 -1 289 -28 123 -35 213 -71 294 -119 35 -20 65
-37 68 -37 3 0 46 -33 97 -73 196 -156 313 -319 416 -575 94 -235 319 -473
568 -601 250 -128 539 -170 811 -117 87 16 284 90 362 134 105 60 230 158 295
231 16 19 37 42 45 50 102 105 213 320 267 521 l28 105 3 773 3 772 -230 0
c-204 0 -230 -2 -224 -15 3 -9 37 -80 75 -158 66 -134 111 -240 180 -422 34
-90 68 -195 63 -195 -2 0 -34 55 -71 123 -128 234 -253 407 -414 573 l-91 94
-1693 0 -1693 0 -74 -77z m3006 -1046 c63 -32 106 -78 133 -143 52 -126 33
-233 -60 -324 -140 -138 -366 -101 -455 74 -35 68 -43 175 -18 239 22 58 106
140 170 166 68 29 161 24 230 -12z"/>
<path d="M1170 1677 c-66 -27 -140 -97 -172 -164 -18 -38 -23 -65 -23 -133 0
-75 4 -93 31 -150 51 -105 101 -148 202 -174 130 -34 222 -9 317 88 74 75 101
146 93 248 -9 105 -77 224 -150 262 -18 10 -44 24 -58 32 -40 22 -174 17 -240
-9z"/>
<path d="M4771 1088 c-104 -366 -317 -727 -605 -1025 l-60 -63 347 0 347 0 0
585 c0 322 -1 585 -3 585 -1 0 -13 -37 -26 -82z"/>
</g>
</svg>
