<?xml version="1.0" standalone="no"?>
<!DOCTYPE svg PUBLIC "-//W3C//DTD SVG 20010904//EN"
 "http://www.w3.org/TR/2001/REC-SVG-20010904/DTD/svg10.dtd">
<svg version="1.0" xmlns="http://www.w3.org/2000/svg"
 width="480.000000pt" height="360.000000pt" viewBox="0 0 480.000000 360.000000"
 preserveAspectRatio="xMidYMid meet">
<metadata>
Created by potrace 1.16, written by Peter Selinger 2001-2019
</metadata>
<rect width="1" height="360" fill="#000000"/>
<rect x="479" width="1" height="360" fill="#000000"/>
<rect width="480" height="1" fill="#000000"/>
<rect y="359" width="480" height="1" fill="#000000"/>
<g transform="translate(0.000000,360.000000) scale(0.100000,-0.100000)"
fill="#000000" stroke="none">
<path d="M0 1799 l0 -1800 42 3 c40 3 43 5 54 43 25 89 25 92 5 98 -11 2 -27
19 -35 36 -15 28 -15 33 -1 55 8 13 13 30 10 38 -3 8 8 30 28 50 25 26 37 52
45 94 15 75 15 93 -3 128 -14 26 -14 31 0 46 8 9 15 33 15 53 0 30 4 37 19 37
10 0 23 6 28 13 18 21 48 170 44 219 -2 43 0 49 23 59 30 14 32 22 12 38 -10
8 -16 9 -21 1 -14 -23 -26 -9 -20 22 12 56 30 80 86 113 51 29 54 34 57 74 l3
43 -27 -21 c-15 -12 -29 -20 -31 -18 -2 2 4 21 13 43 45 106 54 220 31 379
-10 67 -15 80 -32 83 -11 1 -41 12 -68 24 -45 21 -46 22 -30 41 10 10 18 33
19 50 1 18 13 59 27 92 15 34 27 79 27 104 0 37 -6 50 -40 88 -48 51 -72 103
-101 216 -17 67 -20 102 -17 197 10 238 76 328 376 509 173 104 267 136 459
153 76 6 172 12 213 13 85 0 87 2 89 86 2 72 13 139 22 133 5 -3 57 -78 115
-167 59 -89 130 -187 158 -217 60 -65 105 -147 137 -245 12 -38 33 -92 46
-118 21 -43 32 -52 91 -79 64 -29 68 -30 121 -17 53 13 54 13 77 -14 13 -15
37 -30 54 -33 37 -8 39 -29 9 -111 -35 -94 -52 -103 -102 -55 -28 27 -29 27
-43 7 -16 -22 -10 -99 9 -123 8 -11 7 -16 -6 -23 -9 -6 -17 -21 -17 -34 0 -14
-10 -47 -22 -75 -21 -48 -37 -64 -39 -37 -1 23 -18 -28 -18 -57 -1 -23 -4 -26
-15 -17 -11 10 -17 8 -25 -6 -10 -17 -10 -17 -11 0 0 26 -18 21 -38 -11 -9
-16 -22 -27 -27 -25 -25 8 -34 -35 -25 -123 6 -60 6 -92 -1 -101 -12 -13 11
-99 37 -140 21 -34 5 -28 -38 13 l-37 37 -26 -59 c-36 -78 -43 -95 -49 -119
-4 -12 -25 -28 -52 -39 -40 -16 -54 -17 -114 -7 -111 18 -110 18 -110 -34 0
-40 3 -47 28 -56 33 -13 442 -115 494 -124 24 -3 49 -18 73 -43 47 -49 54 -76
25 -108 -21 -21 -22 -27 -10 -49 7 -14 17 -25 22 -25 5 0 35 14 68 30 262 132
639 164 952 79 204 -55 446 -182 591 -311 35 -31 73 -65 84 -75 41 -35 175
-197 226 -272 61 -90 189 -340 183 -356 -2 -7 -50 -29 -105 -50 -56 -20 -101
-39 -101 -41 0 -2 205 -4 455 -4 l455 0 0 1800 0 1800 -360 0 c-233 0 -360 -4
-360 -10 0 -5 -9 -10 -20 -10 -11 0 -20 5 -20 10 0 7 -680 10 -2020 10 l-2020
0 0 -1801z m4610 1656 c0 -8 -4 -15 -9 -15 -13 0 -22 16 -14 24 11 11 23 6 23
-9z m-1930 -585 c0 -5 -4 -10 -10 -10 -5 0 -10 5 -10 10 0 6 5 10 10 10 6 0
10 -4 10 -10z m387 -660 c7 -19 10 -51 7 -70 -6 -41 -42 -106 -74 -135 -22
-20 -22 -20 -36 0 -12 16 -18 17 -33 8 -10 -7 -22 -9 -25 -6 -13 13 -5 79 15
120 25 52 97 125 118 121 9 -2 22 -19 28 -38z m-2972 -73 c53 -13 63 -23 43
-43 -20 -20 -53 -14 -91 17 -31 24 -38 55 -9 44 9 -4 35 -12 57 -18z m4555
-957 c0 -5 -7 -10 -15 -10 -8 0 -15 5 -15 10 0 6 7 10 15 10 8 0 15 -4 15 -10z"/>
<path d="M1789 138 c0 -13 -4 -49 -8 -81 -5 -41 -4 -57 5 -57 6 0 14 10 18 23
10 36 7 137 -4 137 -5 0 -10 -10 -11 -22z"/>
</g>
</svg>
