<?xml version="1.0" standalone="no"?>
<!DOCTYPE svg PUBLIC "-//W3C//DTD SVG 20010904//EN"
 "http://www.w3.org/TR/2001/REC-SVG-20010904/DTD/svg10.dtd">
<svg version="1.0" xmlns="http://www.w3.org/2000/svg"
 width="480.000000pt" height="360.000000pt" viewBox="0 0 480.000000 360.000000"
 preserveAspectRatio="xMidYMid meet">
<metadata>
Created by potrace 1.16, written by Peter Selinger 2001-2019
</metadata>
<rect width="1" height="360" fill="#000000"/>
<rect x="479" width="1" height="360" fill="#000000"/>
<rect width="480" height="1" fill="#000000"/>
<rect y="359" width="480" height="1" fill="#000000"/>
<g transform="translate(0.000000,360.000000) scale(0.100000,-0.100000)"
fill="#000000" stroke="none">
<path d="M0 1800 l0 -1800 2400 0 2400 0 0 1800 0 1800 -2400 0 -2400 0 0
-1800z m1766 -113 l2 -52 69 -9 c49 -6 98 -4 173 7 58 9 107 14 109 11 9 -9
11 -110 3 -122 -7 -11 -24 -11 -86 -3 -89 13 -235 14 -253 3 -6 -4 -13 -30
-15 -57 -3 -50 -3 -50 -38 -50 -32 0 -36 3 -41 35 -4 19 -7 27 -8 17 -1 -21
-29 -52 -38 -43 -4 3 -8 25 -11 49 -2 23 -6 44 -9 47 -2 3 -105 4 -226 2 -290
-3 -449 10 -558 46 -53 18 -78 31 -70 36 7 5 196 12 420 17 223 5 415 11 426
13 17 4 20 13 20 58 0 55 16 70 23 21 5 -38 12 -42 13 -7 l1 29 8 -30 8 -30 1
37 c1 32 4 37 29 40 38 5 46 -6 48 -65z"/>
</g>
</svg>
