<?xml version="1.0" standalone="no"?>
<!DOCTYPE svg PUBLIC "-//W3C//DTD SVG 20010904//EN"
 "http://www.w3.org/TR/2001/REC-SVG-20010904/DTD/svg10.dtd">
<svg version="1.0" xmlns="http://www.w3.org/2000/svg"
 width="480.000000pt" height="360.000000pt" viewBox="0 0 480.000000 360.000000"
 preserveAspectRatio="xMidYMid meet">
<metadata>
Created by potrace 1.16, written by Peter Selinger 2001-2019
</metadata>
<rect width="1" height="360" fill="#000000"/>
<rect x="479" width="1" height="360" fill="#000000"/>
<rect width="480" height="1" fill="#000000"/>
<rect y="359" width="480" height="1" fill="#000000"/>
<g transform="translate(0.000000,360.000000) scale(0.100000,-0.100000)"
fill="#000000" stroke="none">
<path d="M0 2662 l0 -937 78 -18 c42 -9 86 -20 97 -22 16 -5 23 2 36 33 14 33
20 39 48 39 17 0 31 -6 31 -12 0 -6 18 -26 39 -43 32 -26 49 -32 86 -32 57 0
137 38 153 74 6 14 16 26 22 26 13 0 13 -33 -1 -47 -13 -13 -1 -83 15 -83 31
0 468 -31 511 -36 28 -3 84 -14 125 -24 41 -11 145 -31 232 -46 l156 -27 27
20 c26 19 31 19 91 4 63 -14 65 -14 79 6 20 28 76 53 119 53 49 0 115 -28 231
-98 100 -59 100 -59 214 -71 l114 -11 70 39 c63 35 70 42 71 70 1 33 -5 37
-35 21 -22 -12 -69 8 -91 39 -7 10 -34 29 -58 42 -25 13 -57 36 -72 51 -15 16
-37 28 -51 28 -40 0 -51 22 -31 64 16 33 16 37 1 54 -11 12 -45 23 -99 31 -86
14 -137 37 -163 74 -13 18 -17 20 -25 7 -7 -11 -11 -8 -20 15 -7 17 -16 40
-21 53 -12 31 -27 28 -43 -10 -12 -30 -13 -20 -9 102 4 153 19 280 36 319 6
14 27 50 45 80 l34 53 -37 74 c-42 83 -42 113 3 141 15 9 43 29 62 44 59 44
77 46 112 7 16 -18 36 -45 44 -60 l14 -28 85 53 c52 32 96 69 114 95 35 47 40
49 71 24 20 -16 29 -17 94 -6 114 20 195 1 358 -82 180 -92 223 -136 307 -305
69 -141 88 -164 123 -154 27 8 120 65 130 79 4 6 9 8 12 5 3 -3 -8 -22 -25
-43 -34 -40 -32 -56 4 -39 35 17 77 33 84 33 4 0 -10 -15 -30 -33 -20 -18 -37
-35 -37 -39 0 -4 32 2 71 13 40 11 76 18 82 16 11 -3 -116 -87 -133 -87 -5 0
-10 -4 -10 -10 0 -5 1 -10 3 -10 1 0 35 9 74 19 90 23 87 11 -5 -20 -74 -25
-65 -38 11 -15 53 16 61 9 17 -16 -35 -20 -40 -38 -7 -31 16 3 18 2 8 -5 -11
-8 -11 -10 0 -14 9 -4 4 -10 -13 -18 -39 -18 -35 -30 10 -31 l37 -1 -30 -9
c-16 -4 -52 -14 -80 -21 -61 -16 -71 -38 -17 -38 l37 -1 -27 -17 c-33 -20 -36
-45 -8 -65 18 -13 13 -15 -63 -31 -45 -9 -121 -18 -169 -19 -49 -1 -88 -5 -88
-8 0 -6 92 -21 195 -33 17 -1 -19 -4 -80 -4 -60 -1 -146 5 -190 13 -95 17
-105 18 -105 6 0 -11 57 -34 166 -66 64 -19 72 -24 44 -24 -19 0 -53 4 -75 9
-22 5 -41 7 -43 6 -2 -2 14 -14 35 -27 l38 -24 -32 -3 c-37 -4 -74 13 -133 63
-38 32 -45 34 -53 20 -7 -13 -1 -24 24 -46 34 -29 34 -29 6 -19 -26 9 -28 9
-22 -12 4 -13 23 -39 43 -58 20 -19 36 -39 34 -44 -2 -5 7 -5 20 -1 13 4 83 9
156 12 157 6 160 5 192 -93 33 -98 65 -125 190 -164 132 -41 188 -69 228 -115
32 -35 35 -44 47 -120 5 -28 18 -51 45 -77 22 -22 40 -50 44 -70 5 -26 22 -46
81 -93 41 -33 78 -61 83 -63 16 -5 43 29 37 48 -4 12 6 25 34 43 33 22 48 26
83 21 35 -5 48 -2 67 15 13 12 30 21 37 21 8 0 32 -24 55 -52 22 -29 70 -84
106 -123 74 -79 94 -118 98 -190 1 -27 11 -80 21 -116 22 -79 13 -99 -43 -99
-26 0 -42 8 -63 30 -15 17 -32 30 -38 30 -5 0 -28 -28 -50 -63 -23 -34 -66
-87 -97 -117 l-56 -55 -74 0 c-69 -1 -77 -3 -105 -30 -42 -40 -90 -140 -90
-187 l0 -38 355 0 355 0 0 1800 0 1800 -2400 0 -2400 0 0 -938z"/>
<path d="M3583 2143 c9 -2 23 -2 30 0 6 3 -1 5 -18 5 -16 0 -22 -2 -12 -5z"/>
<path d="M3370 1953 c-58 -11 -40 -23 33 -23 75 0 101 11 55 24 -25 6 -48 6
-88 -1z"/>
<path d="M2273 1906 c0 -24 46 -92 47 -68 0 13 -37 92 -44 92 -2 0 -3 -11 -3
-24z"/>
<path d="M0 736 l0 -736 1299 0 1298 0 7 92 c11 156 7 276 -10 336 -11 38 -15
74 -10 115 l6 58 -72 102 c-102 144 -204 264 -240 283 -27 14 -47 15 -133 8
-55 -5 -154 -9 -220 -9 -136 0 -165 9 -203 65 -25 38 -62 59 -104 60 -34 0
-67 31 -75 70 -4 22 -13 32 -32 36 -14 4 -82 22 -151 41 -69 19 -178 41 -243
48 -108 12 -365 65 -495 102 -52 15 -54 14 -78 -8 -19 -18 -23 -29 -19 -51 10
-41 -5 -34 -55 28 -73 90 -109 95 -234 28 -48 -25 -89 -44 -92 -41 -3 3 4 23
15 46 12 22 21 42 21 44 0 3 -26 4 -57 4 -32 -1 -73 2 -90 7 l-33 9 0 -737z"/>
<path d="M3670 681 c0 -38 71 -266 88 -283 6 -6 47 2 102 19 90 28 93 30 95
61 2 25 -2 32 -18 34 -15 2 -27 17 -38 48 -19 52 -16 66 18 83 l24 13 -41 29
c-37 26 -43 27 -79 17 -52 -16 -93 -15 -117 3 -29 22 -34 18 -34 -24z"/>
<path d="M2836 32 l-49 -27 63 -3 c34 -2 65 -1 68 2 7 8 -15 56 -25 56 -5 0
-30 -13 -57 -28z"/>
</g>
</svg>
