<?xml version="1.0" standalone="no"?>
<!DOCTYPE svg PUBLIC "-//W3C//DTD SVG 20010904//EN"
 "http://www.w3.org/TR/2001/REC-SVG-20010904/DTD/svg10.dtd">
<svg version="1.0" xmlns="http://www.w3.org/2000/svg"
 width="480.000000pt" height="360.000000pt" viewBox="0 0 480.000000 360.000000"
 preserveAspectRatio="xMidYMid meet">
<metadata>
Created by potrace 1.16, written by Peter Selinger 2001-2019
</metadata>
<rect width="1" height="360" fill="#000000"/>
<rect x="479" width="1" height="360" fill="#000000"/>
<rect width="480" height="1" fill="#000000"/>
<rect y="359" width="480" height="1" fill="#000000"/>
<g transform="translate(0.000000,360.000000) scale(0.100000,-0.100000)"
fill="#000000" stroke="none">
<path d="M325 3567 c-29 -70 -30 -162 -2 -307 14 -74 28 -160 32 -190 3 -30
15 -103 26 -162 20 -102 20 -111 5 -177 -20 -89 -20 -150 0 -179 14 -21 68
-212 61 -218 -1 -2 -36 -14 -77 -27 -92 -31 -133 -52 -136 -70 -1 -8 -5 -24
-8 -35 -9 -27 6 -32 144 -46 l115 -12 -2 -27 c-1 -22 2 -27 22 -27 17 0 32
-15 64 -65 35 -56 44 -65 70 -65 62 0 84 27 96 120 8 61 19 80 45 80 23 0 54
36 47 55 -4 8 -3 15 1 15 16 0 112 93 112 108 0 9 -12 26 -27 36 -23 17 -43
21 -146 25 -27 1 -13 59 34 140 41 70 49 91 24 71 -20 -16 -19 -6 5 63 24 67
27 167 6 167 -9 0 -12 7 -9 20 4 15 0 20 -16 20 -11 0 -21 4 -21 10 0 6 -9 6
-26 0 -33 -13 -37 -13 -28 3 4 6 -2 4 -13 -5 -24 -21 -40 -24 -24 -4 10 11 9
15 -4 18 -13 2 -10 13 15 66 43 92 83 146 180 247 111 114 154 173 139 191 -7
9 -7 19 0 33 17 30 14 54 -5 47 -9 -3 -27 3 -41 14 -14 11 -39 20 -54 20 -19
0 -43 13 -70 38 l-42 37 -239 3 -238 4 -15 -35z"/>
<path d="M2400 1800 l0 -1800 835 0 c802 0 835 1 844 19 25 46 52 177 62 299
5 73 17 154 24 180 19 62 18 82 -5 110 l-19 23 -67 -40 c-37 -23 -76 -41 -86
-41 -20 0 -38 36 -38 76 0 13 -4 24 -10 24 -5 0 -10 9 -10 20 0 23 -10 26 -29
8 -11 -11 -12 -8 -6 12 7 22 6 23 -9 11 -14 -12 -16 -10 -16 12 0 14 -4 29
-10 32 -5 3 -10 1 -10 -4 0 -6 -4 -11 -10 -11 -26 0 6 168 45 237 27 50 23 54
-17 16 -15 -15 -28 -22 -28 -16 0 5 39 48 86 94 80 78 114 126 114 164 0 8 -7
15 -15 15 -20 0 -19 12 5 42 16 21 17 30 8 60 -19 62 -6 82 75 122 39 20 81
36 92 36 11 0 42 16 69 35 27 19 55 35 61 35 30 0 61 -106 40 -140 -3 -6 3
-31 15 -55 24 -49 27 -38 -38 -151 l-32 -58 65 -61 c74 -71 99 -118 89 -173
l-7 -37 25 22 c27 26 34 63 12 63 -10 0 -14 8 -12 23 2 18 9 22 37 22 20 0 37
-6 42 -15 12 -24 39 -152 39 -188 0 -50 -33 -105 -99 -162 -44 -39 -62 -61
-71 -94 -13 -48 -12 -55 50 -256 41 -130 60 -220 60 -277 l0 -33 125 0 125 0
0 1800 0 1800 -1200 0 -1200 0 0 -1800z"/>
</g>
</svg>
