<?xml version="1.0" standalone="no"?>
<!DOCTYPE svg PUBLIC "-//W3C//DTD SVG 20010904//EN"
 "http://www.w3.org/TR/2001/REC-SVG-20010904/DTD/svg10.dtd">
<svg version="1.0" xmlns="http://www.w3.org/2000/svg"
 width="480.000000pt" height="360.000000pt" viewBox="0 0 480.000000 360.000000"
 preserveAspectRatio="xMidYMid meet">
<metadata>
Created by potrace 1.16, written by Peter Selinger 2001-2019
</metadata>
<rect width="1" height="360" fill="#000000"/>
<rect x="479" width="1" height="360" fill="#000000"/>
<rect width="480" height="1" fill="#000000"/>
<rect y="359" width="480" height="1" fill="#000000"/>
<g transform="translate(0.000000,360.000000) scale(0.100000,-0.100000)"
fill="#000000" stroke="none">
<path d="M0 1800 l0 -1800 948 0 948 0 42 94 c23 52 42 105 42 118 0 37 -11
68 -25 68 -16 0 -35 44 -35 78 1 15 7 50 14 77 12 43 11 50 -1 53 -8 2 -25 29
-39 60 -23 51 -25 65 -20 140 6 75 4 85 -16 113 -30 40 -38 166 -14 234 8 26
12 45 8 43 -126 -66 -164 -76 -190 -50 -49 49 23 171 160 273 77 57 96 79 174
196 18 29 49 63 66 77 86 65 243 107 310 84 l28 -10 0 -824 0 -824 250 0 250
0 2 168 c1 92 0 213 -1 270 -3 105 4 132 37 132 42 0 51 59 26 166 -14 60 -14
70 0 99 18 36 22 149 7 187 l-9 24 55 -28 c66 -33 94 -35 117 -9 21 23 15 62
-17 126 -23 47 -132 158 -199 203 -26 18 -54 48 -65 69 -19 39 -154 162 -208
191 -16 8 -66 19 -110 22 -44 4 -92 12 -107 18 l-28 12 0 975 0 975 -1200 0
-1200 0 0 -1800z m2983 -619 c16 -15 37 -38 48 -53 19 -26 19 -26 -1 -21 -32
9 -110 83 -110 105 0 23 7 19 63 -31z"/>
<path d="M1795 1178 c-64 -58 -59 -73 10 -33 43 26 65 51 65 74 0 21 -19 11
-75 -41z"/>
<path d="M1991 424 c0 -11 3 -14 6 -6 3 7 2 16 -1 19 -3 4 -6 -2 -5 -13z"/>
<path d="M2001 298 c0 -27 4 -48 9 -48 11 0 11 21 0 65 -7 27 -8 25 -9 -17z"/>
</g>
</svg>
