<?xml version="1.0" standalone="no"?>
<!DOCTYPE svg PUBLIC "-//W3C//DTD SVG 20010904//EN"
 "http://www.w3.org/TR/2001/REC-SVG-20010904/DTD/svg10.dtd">
<svg version="1.0" xmlns="http://www.w3.org/2000/svg"
 width="480.000000pt" height="360.000000pt" viewBox="0 0 480.000000 360.000000"
 preserveAspectRatio="xMidYMid meet">
<metadata>
Created by potrace 1.16, written by Peter Selinger 2001-2019
</metadata>
<rect width="1" height="360" fill="#000000"/>
<rect x="479" width="1" height="360" fill="#000000"/>
<rect width="480" height="1" fill="#000000"/>
<rect y="359" width="480" height="1" fill="#000000"/>
<g transform="translate(0.000000,360.000000) scale(0.100000,-0.100000)"
fill="#000000" stroke="none">
<path d="M0 1800 l0 -1800 1375 0 c1278 0 1375 1 1375 17 0 9 -7 53 -14 97 -8
45 -31 182 -51 304 -71 439 -141 681 -212 727 -13 9 -80 27 -150 40 -219 42
-253 61 -369 206 -93 117 -94 119 -94 251 l0 118 43 42 c24 24 76 71 115 106
l72 63 -15 29 c-19 37 -1 51 28 22 l21 -21 45 33 c77 56 105 66 179 66 99 0
153 -22 228 -93 71 -66 124 -147 154 -237 46 -136 40 -206 -25 -278 l-45 -50
61 -63 c79 -83 126 -163 194 -334 30 -77 60 -151 65 -164 10 -23 11 -23 42 20
17 24 73 87 123 139 51 52 97 105 104 117 6 12 11 45 11 73 0 28 5 82 11 119
10 58 20 80 70 150 l58 81 -53 63 c-50 60 -53 65 -40 88 19 34 17 51 -10 88
l-25 33 -15 -29 c-8 -16 -22 -36 -32 -44 -15 -13 -16 -11 -12 24 2 20 0 37 -5
37 -5 0 -28 -12 -53 -26 -53 -31 -129 -55 -149 -48 -8 3 -32 34 -54 69 -22 35
-49 66 -61 70 -21 7 -24 14 -20 53 2 31 -16 50 -62 69 -27 11 -40 23 -44 42
-16 71 -27 92 -57 107 -41 21 -77 54 -77 70 0 8 25 32 55 54 57 42 66 57 41
66 -8 3 -34 31 -58 62 -29 37 -44 50 -46 39 -2 -9 4 -27 14 -42 14 -22 14 -25
1 -19 -11 4 -17 -2 -19 -18 -4 -21 -5 -20 -19 12 -9 19 -23 41 -32 49 -15 12
-16 10 -11 -20 l5 -34 -29 34 c-30 33 -30 33 -34 10 -3 -20 -11 -12 -46 49
-24 40 -46 89 -49 108 -6 35 -34 64 -62 64 -23 0 -198 122 -209 146 -12 25
-187 146 -213 148 -11 1 -39 17 -65 36 -180 138 -232 185 -286 253 -31 38 -34
53 -15 60 8 3 3 14 -16 34 -21 23 -40 32 -75 36 -41 4 -53 12 -90 54 -26 28
-41 55 -38 65 2 10 -6 23 -21 33 -13 9 -29 30 -35 46 l-10 29 -634 0 -634 0 0
-1800z"/>
<path d="M4699 3423 c-18 -4 -25 -30 -35 -135 l-7 -67 39 -9 c22 -6 54 -13 72
-17 l32 -7 0 121 0 121 -42 -1 c-24 -1 -50 -3 -59 -6z"/>
<path d="M3470 15 c-11 -13 -9 -15 15 -15 16 0 25 5 23 12 -7 19 -24 20 -38 3z"/>
</g>
</svg>
