<?xml version="1.0" standalone="no"?>
<!DOCTYPE svg PUBLIC "-//W3C//DTD SVG 20010904//EN"
 "http://www.w3.org/TR/2001/REC-SVG-20010904/DTD/svg10.dtd">
<svg version="1.0" xmlns="http://www.w3.org/2000/svg"
 width="480.000000pt" height="360.000000pt" viewBox="0 0 480.000000 360.000000"
 preserveAspectRatio="xMidYMid meet">
<metadata>
Created by potrace 1.16, written by Peter Selinger 2001-2019
</metadata>
<rect width="1" height="360" fill="#000000"/>
<rect x="479" width="1" height="360" fill="#000000"/>
<rect width="480" height="1" fill="#000000"/>
<rect y="359" width="480" height="1" fill="#000000"/>
<g transform="translate(0.000000,360.000000) scale(0.100000,-0.100000)"
fill="#000000" stroke="none">
<path d="M0 3050 l0 -550 43 -1 c23 -1 87 -4 142 -8 113 -8 244 7 345 38 254
78 485 98 790 70 193 -17 509 -74 660 -119 43 -12 40 -13 40 5 0 42 25 119 47
146 14 16 47 41 74 54 42 22 49 30 57 67 11 52 8 58 -26 59 -51 1 -117 23
-117 39 0 8 -8 14 -16 12 -9 -1 -22 4 -29 13 -34 41 82 154 234 228 40 19 77
41 83 48 6 8 23 59 38 114 60 229 66 245 111 291 l43 44 -1259 0 -1260 0 0
-550z"/>
<path d="M3486 3588 c5 -7 27 -39 50 -70 l42 -58 179 -4 c196 -5 243 -14 285
-56 27 -27 28 -31 15 -62 -20 -49 -117 -122 -244 -185 -75 -37 -113 -61 -113
-72 0 -20 79 -212 110 -266 15 -27 17 -35 6 -26 -10 9 -16 9 -16 2 0 -6 -11
-8 -30 -5 -28 6 -29 5 -29 -27 1 -19 -9 -56 -21 -84 -21 -45 -24 -47 -31 -27
-11 30 -19 28 -51 -10 -22 -26 -30 -30 -37 -19 -8 12 -14 10 -39 -10 -16 -13
-38 -29 -48 -35 -16 -9 -17 -15 -6 -51 6 -22 21 -48 32 -58 34 -31 25 -54 -29
-77 -41 -18 -50 -27 -60 -59 -8 -28 -19 -41 -36 -45 -27 -7 -43 -44 -69 -165
-9 -41 -31 -101 -47 -133 -17 -32 -29 -59 -27 -61 2 -2 71 -43 153 -92 83 -50
196 -120 253 -157 102 -66 103 -66 158 -60 50 6 58 5 92 -23 20 -16 62 -47 92
-68 30 -21 58 -44 63 -51 4 -7 34 -27 67 -45 33 -17 60 -36 60 -40 0 -5 18
-18 40 -29 55 -28 75 -61 62 -100 -11 -29 -9 -31 96 -119 59 -49 121 -104 137
-121 17 -18 56 -54 88 -81 45 -38 66 -49 93 -49 21 0 42 -8 54 -20 20 -20 20
-20 20 1355 l0 1375 -661 0 c-525 0 -659 -3 -653 -12z"/>
<path d="M815 2316 c-100 -16 -159 -35 -302 -97 -151 -65 -252 -90 -395 -96
l-118 -6 0 -1058 0 -1059 1214 0 1215 0 22 70 23 70 -18 512 c-11 324 -15 571
-10 669 8 173 -1 218 -28 152 -9 -21 -20 -47 -24 -58 -6 -18 -8 -18 -11 -2 -3
9 -8 15 -12 13 -24 -15 67 393 116 522 5 13 0 14 -34 9 -74 -12 -212 49 -278
123 -29 32 -56 44 -206 90 -177 55 -390 103 -569 130 -183 27 -471 35 -585 16z"/>
<path d="M3496 1339 c49 -114 53 -130 24 -104 -23 21 -25 12 -6 -41 7 -22 19
-69 26 -106 7 -38 16 -68 21 -68 5 0 9 4 9 9 0 5 20 33 44 62 44 53 44 55 35
104 -4 28 -12 72 -16 100 -8 48 -11 52 -77 97 -107 74 -113 68 -60 -53z"/>
<path d="M4157 917 c-13 -21 -12 -25 15 -57 36 -43 68 -105 68 -129 0 -11 -30
-49 -66 -84 l-65 -65 123 -4 c68 -2 129 -2 136 0 7 2 28 31 48 64 34 59 34 61
17 81 -25 28 -246 217 -254 217 -4 0 -13 -10 -22 -23z"/>
<path d="M4755 304 c-22 -20 -65 -50 -95 -68 -52 -31 -55 -34 -67 -91 -6 -33
-19 -79 -27 -102 l-15 -43 124 0 125 0 0 170 c0 94 -1 170 -2 170 -2 -1 -21
-17 -43 -36z"/>
<path d="M3550 120 l-112 -120 458 0 c281 0 454 4 448 9 -16 17 -251 120 -328
145 -41 14 -128 36 -193 51 -65 14 -128 28 -139 30 -17 4 -45 -20 -134 -115z"/>
</g>
</svg>
