<?xml version="1.0" standalone="no"?>
<!DOCTYPE svg PUBLIC "-//W3C//DTD SVG 20010904//EN"
 "http://www.w3.org/TR/2001/REC-SVG-20010904/DTD/svg10.dtd">
<svg version="1.0" xmlns="http://www.w3.org/2000/svg"
 width="480.000000pt" height="360.000000pt" viewBox="0 0 480.000000 360.000000"
 preserveAspectRatio="xMidYMid meet">
<metadata>
Created by potrace 1.16, written by Peter Selinger 2001-2019
</metadata>
<rect width="1" height="360" fill="#000000"/>
<rect x="479" width="1" height="360" fill="#000000"/>
<rect width="480" height="1" fill="#000000"/>
<rect y="359" width="480" height="1" fill="#000000"/>
<g transform="translate(0.000000,360.000000) scale(0.100000,-0.100000)"
fill="#000000" stroke="none">
<path d="M1470 2880 c-30 -10 -57 -15 -60 -10 -3 5 -17 11 -30 15 -19 5 -31 0
-49 -19 -21 -22 -23 -29 -12 -49 10 -19 8 -30 -10 -71 -30 -70 -14 -149 41
-193 18 -15 33 -17 25 -3 -3 6 1 10 9 10 23 0 20 -34 -5 -56 -20 -18 -20 -19
-2 -34 10 -8 31 -35 48 -59 16 -24 35 -45 42 -48 20 -8 15 -23 -8 -23 -39 0
-79 -77 -49 -95 18 -11 11 -35 -13 -44 -28 -11 -93 -82 -110 -119 -6 -15 -22
-42 -34 -61 -40 -60 -24 -120 51 -181 17 -15 17 -23 7 -102 -7 -64 -18 -102
-41 -145 -17 -32 -35 -62 -40 -67 -5 -5 -4 -16 2 -25 7 -12 2 -37 -21 -96 -17
-45 -26 -81 -21 -83 12 -4 13 -39 1 -46 -13 -8 -43 -105 -36 -116 3 -5 -3 -72
-14 -147 -64 -442 -111 -854 -111 -979 l0 -34 485 0 c267 0 485 4 485 9 0 4
-5 33 -10 62 -19 99 -49 312 -65 459 -8 80 -25 192 -36 250 -23 119 -98 391
-129 469 -24 62 -25 72 -5 65 24 -10 18 1 -35 62 -27 31 -50 62 -50 68 0 6 18
34 39 63 22 28 44 60 50 71 14 26 14 109 0 209 -10 75 -10 78 12 96 l22 18
-20 14 c-22 15 -21 42 5 107 13 31 -2 100 -43 203 -29 72 -30 75 -10 75 8 0
15 5 15 12 0 9 3 9 12 0 9 -9 16 -8 30 4 16 15 18 15 24 0 11 -30 23 -16 26
32 3 42 6 47 29 50 22 3 28 10 35 45 7 31 14 41 26 39 14 -2 15 2 7 30 -5 18
-23 62 -41 97 -18 35 -31 75 -30 88 3 17 -7 34 -30 56 -19 18 -47 49 -63 70
-16 21 -45 47 -66 58 -50 25 -155 25 -229 -1z"/>
<path d="M3220 2150 c-8 -5 -23 -10 -33 -10 -28 0 -159 -59 -185 -83 -31 -29
-28 -97 5 -112 23 -10 33 -32 33 -75 0 -19 -9 -30 -37 -45 -40 -22 -131 -106
-154 -144 l-15 -24 -70 45 c-38 25 -88 60 -111 77 l-42 32 -17 -28 c-10 -15
-19 -30 -20 -32 -2 -1 -13 4 -26 13 -30 21 -36 20 -40 -6 -3 -22 -7 -23 -85
-22 -54 1 -83 -3 -83 -10 0 -20 94 -64 153 -71 60 -8 65 -13 47 -59 -5 -14 -5
-28 -1 -31 5 -3 46 -12 92 -21 102 -19 265 -83 430 -168 152 -79 165 -91 152
-143 -8 -32 -6 -43 12 -68 12 -16 36 -63 54 -104 l34 -73 -19 -61 c-13 -43
-15 -62 -7 -64 7 -3 1 -25 -17 -62 -28 -55 -65 -178 -90 -291 -6 -30 -28 -122
-48 -204 l-36 -149 23 -18 c13 -11 31 -19 42 -19 10 0 20 -4 23 -9 3 -4 37
-11 76 -15 l70 -7 12 -45 12 -44 133 0 132 0 11 40 c13 47 14 47 81 60 29 6
57 14 62 19 6 6 3 29 -7 58 -9 26 -21 100 -27 163 -17 199 -40 375 -54 431 -8
29 -12 64 -9 76 4 13 -3 58 -14 101 -11 42 -23 104 -26 137 -8 75 -40 201 -56
220 -19 23 4 43 106 91 112 52 307 111 394 119 99 9 119 15 125 35 3 10 30 28
61 41 66 26 92 63 59 82 -11 7 -47 12 -80 12 l-60 0 3 34 c3 34 2 34 -18 16
-20 -18 -21 -18 -43 3 -31 29 -40 28 -111 -16 -34 -22 -131 -74 -216 -116 -85
-43 -159 -81 -165 -86 -19 -15 -86 -50 -95 -50 -14 0 -12 16 4 32 10 11 11 19
4 32 -8 13 -7 21 3 26 10 7 10 12 0 23 -8 11 -9 17 -1 22 6 3 8 10 5 15 -3 4
10 18 28 29 108 66 167 135 167 193 0 31 -8 46 -42 82 -34 34 -54 46 -96 55
-64 13 -124 14 -177 1 -38 -9 -42 -8 -67 22 -23 27 -26 37 -21 73 5 37 2 44
-22 63 -29 23 -79 29 -105 12z"/>
</g>
</svg>
