<?xml version="1.0" standalone="no"?>
<!DOCTYPE svg PUBLIC "-//W3C//DTD SVG 20010904//EN"
 "http://www.w3.org/TR/2001/REC-SVG-20010904/DTD/svg10.dtd">
<svg version="1.0" xmlns="http://www.w3.org/2000/svg"
 width="480.000000pt" height="360.000000pt" viewBox="0 0 480.000000 360.000000"
 preserveAspectRatio="xMidYMid meet">
<metadata>
Created by potrace 1.16, written by Peter Selinger 2001-2019
</metadata>
<rect width="1" height="360" fill="#000000"/>
<rect x="479" width="1" height="360" fill="#000000"/>
<rect width="480" height="1" fill="#000000"/>
<rect y="359" width="480" height="1" fill="#000000"/>
<g transform="translate(0.000000,360.000000) scale(0.100000,-0.100000)"
fill="#000000" stroke="none">
<path d="M0 1800 l0 -1800 345 0 c190 0 345 2 345 5 0 2 -31 60 -69 127 -93
167 -147 277 -220 446 -59 137 -78 211 -32 127 100 -184 240 -366 423 -547
l159 -158 1447 0 1447 0 105 94 c325 290 570 689 684 1115 56 210 70 327 70
591 1 312 -23 470 -109 720 -37 109 -38 108 -10 -25 54 -260 -20 -620 -172
-839 -106 -152 -193 -239 -328 -327 -113 -73 -118 -76 -221 -119 -226 -95
-517 -104 -758 -25 -103 34 -254 112 -336 174 -143 108 -293 290 -354 431 -76
172 -179 315 -309 424 -265 224 -592 325 -903 281 -597 -85 -1022 -571 -1024
-1173 -1 -67 -2 -75 -14 -59 -21 27 -53 214 -67 384 -25 295 24 659 126 943
39 106 134 303 196 407 114 188 301 411 463 552 l60 51 -472 0 -472 0 0 -1800z
m1446 -185 c143 -42 236 -232 177 -362 -24 -52 -79 -113 -127 -142 -34 -20
-55 -24 -126 -25 -76 -1 -90 2 -133 28 -55 33 -87 71 -117 141 -66 150 25 326
187 364 56 13 84 13 139 -4z"/>
<path d="M3974 3497 c244 -228 440 -512 553 -799 38 -98 40 -76 3 33 -81 234
-249 603 -362 796 l-43 73 -130 0 -130 0 109 -103z"/>
<path d="M3334 2556 c-187 -82 -254 -286 -150 -459 35 -57 106 -111 169 -128
24 -7 74 -9 116 -6 66 5 81 10 130 45 63 44 100 94 125 166 27 82 21 140 -22
226 -60 119 -144 171 -279 170 -32 -1 -72 -7 -89 -14z"/>
</g>
</svg>
