<?xml version="1.0" standalone="no"?>
<!DOCTYPE svg PUBLIC "-//W3C//DTD SVG 20010904//EN"
 "http://www.w3.org/TR/2001/REC-SVG-20010904/DTD/svg10.dtd">
<svg version="1.0" xmlns="http://www.w3.org/2000/svg"
 width="480.000000pt" height="360.000000pt" viewBox="0 0 480.000000 360.000000"
 preserveAspectRatio="xMidYMid meet">
<metadata>
Created by potrace 1.16, written by Peter Selinger 2001-2019
</metadata>
<rect width="1" height="360" fill="#000000"/>
<rect x="479" width="1" height="360" fill="#000000"/>
<rect width="480" height="1" fill="#000000"/>
<rect y="359" width="480" height="1" fill="#000000"/>
<g transform="translate(0.000000,360.000000) scale(0.100000,-0.100000)"
fill="#000000" stroke="none">
<path d="M3960 2463 c0 -3 8 -15 17 -25 22 -25 6 -53 -31 -53 -17 1 -26 -5
-26 -15 0 -16 -16 -28 -99 -73 -29 -16 -62 -26 -72 -24 -12 3 -19 0 -19 -8 0
-7 -5 -15 -10 -17 -6 -2 1 -23 14 -48 19 -35 22 -50 14 -70 -5 -13 -6 -56 -3
-95 l7 -70 -39 0 c-36 0 -38 -2 -41 -32 -2 -19 -9 -33 -16 -33 -7 0 -26 -6
-42 -14 -16 -8 -66 -19 -112 -26 -81 -12 -84 -12 -98 9 -17 24 -24 25 -76 10
-26 -7 -43 -19 -53 -39 -19 -36 -19 -40 0 -40 8 0 22 -12 32 -27 9 -16 25 -37
34 -48 10 -11 33 -49 52 -85 32 -62 36 -65 73 -68 34 -2 47 4 98 45 60 49 105
78 111 71 2 -2 -5 -56 -16 -120 -19 -109 -19 -119 -4 -148 15 -29 15 -33 0
-57 -9 -14 -34 -77 -55 -139 -21 -64 -63 -158 -94 -212 -30 -53 -58 -104 -61
-113 -3 -9 3 -36 14 -61 25 -51 79 -90 158 -113 59 -17 61 -22 53 -115 -8 -94
2 -386 14 -412 4 -10 3 -39 -3 -65 l-12 -48 -57 0 c-84 -1 -112 -10 -112 -40
0 -13 5 -27 11 -30 6 -4 179 -8 385 -10 l374 -3 0 25 c0 13 -12 45 -27 70 -22
37 -27 60 -28 117 -1 39 -6 80 -12 91 -6 11 -16 65 -22 121 -6 55 -22 134 -35
175 -14 41 -28 90 -31 110 -6 34 -5 37 32 56 28 15 39 27 41 48 4 31 5 28 -67
175 -28 58 -67 152 -86 208 -19 57 -46 124 -60 149 -27 49 -31 69 -14 75 6 2
15 33 20 68 21 149 21 149 59 168 42 21 60 53 60 109 0 36 -5 45 -32 64 -18
12 -34 23 -36 25 -2 1 10 15 25 32 24 26 41 33 123 48 92 17 135 33 95 35 -16
1 -15 3 5 9 14 4 34 8 44 9 20 1 20 1 0 -14 -18 -13 -16 -14 24 -15 47 0 66
21 40 46 -13 14 -29 12 -137 -10 -67 -14 -126 -26 -131 -26 -6 0 -8 15 -4 38
3 22 0 54 -10 81 -14 43 -14 45 10 74 13 15 24 32 24 37 0 19 -13 40 -21 35
-13 -9 -50 19 -93 70 -28 34 -35 50 -27 58 16 16 13 73 -5 91 -16 16 -34 21
-34 9z m287 -499 c-3 -3 -12 -4 -19 -1 -8 3 -5 6 6 6 11 1 17 -2 13 -5z m-50
-10 c-3 -3 -12 -4 -19 -1 -8 3 -5 6 6 6 11 1 17 -2 13 -5z m-643 -162 c-7 -15
-24 -40 -37 -56 l-24 -30 -16 25 c-9 13 -19 36 -22 50 -6 25 -4 26 47 36 29 5
56 8 60 6 3 -2 0 -16 -8 -31z m446 -1135 c32 -70 89 -283 99 -368 4 -31 13
-64 20 -73 11 -13 12 -24 2 -55 -6 -21 -11 -57 -11 -81 0 -41 -1 -42 -27 -37
-16 3 -75 13 -133 23 -58 9 -115 18 -127 20 -45 8 -52 44 -47 244 2 102 9 223
16 269 l13 84 57 12 c32 6 61 14 64 18 4 4 16 7 26 7 14 0 27 -18 48 -63z"/>
<path d="M2450 2345 c0 -9 -4 -13 -10 -10 -5 3 -10 -3 -10 -14 0 -12 -6 -21
-12 -21 -9 0 -8 -4 2 -10 12 -8 3 -21 -49 -74 -51 -51 -68 -63 -78 -54 -10 8
-17 8 -26 -1 -8 -8 -7 -19 8 -44 14 -23 19 -47 17 -85 -3 -48 0 -55 27 -80 23
-19 31 -35 31 -59 0 -26 3 -31 17 -26 10 4 14 2 10 -4 -10 -15 -71 -43 -96
-43 -12 0 -30 -9 -41 -20 -25 -25 -47 -26 -55 0 -8 24 -61 23 -90 -3 -17 -15
-18 -20 -6 -39 22 -35 -7 -53 -82 -52 -34 1 -71 3 -82 5 -17 4 -20 -1 -19 -37
1 -87 96 -173 114 -103 10 36 40 80 51 73 5 -3 7 -27 3 -53 -5 -36 -2 -50 9
-60 18 -14 45 -3 116 53 43 33 46 33 70 18 32 -21 41 -32 41 -56 0 -10 12 -44
26 -76 l26 -57 -31 -54 c-16 -30 -55 -117 -85 -194 -30 -77 -68 -169 -85 -205
-56 -118 -38 -163 85 -208 l59 -21 -1 -158 c-2 -208 1 -193 -31 -193 -47 0
-102 -20 -113 -40 -28 -52 4 -81 135 -125 33 -11 60 -24 60 -30 0 -18 -53 -35
-142 -47 -48 -6 -92 -14 -96 -18 -10 -9 10 -58 37 -88 14 -15 31 -22 58 -22
41 0 45 5 23 34 -8 11 -15 28 -15 38 0 16 7 19 48 16 l47 -3 -2 -42 -2 -43
170 0 170 0 47 46 c44 44 46 48 28 58 -28 16 -66 53 -66 65 0 6 21 30 46 54
56 54 55 75 -3 102 -50 23 -64 50 -69 137 -2 35 -5 77 -8 93 -3 17 -7 54 -9
83 -4 51 -3 52 23 52 16 0 42 13 64 33 34 30 37 36 38 88 0 36 -13 101 -35
180 -20 68 -43 164 -52 214 -9 49 -26 111 -37 138 -20 46 -20 48 -2 68 16 18
16 23 4 57 -22 61 -29 133 -13 139 22 9 84 113 81 136 -2 14 -14 25 -33 31
-16 6 -31 11 -33 12 -2 1 4 14 14 29 13 20 14 29 5 38 -16 16 -13 32 4 17 12
-10 15 -9 15 4 0 10 -5 27 -11 38 -6 11 -20 52 -30 90 -18 64 -18 72 -4 88 24
26 18 47 -14 53 -37 8 -131 114 -112 127 10 5 10 9 2 15 -7 3 -9 15 -6 26 5
15 3 17 -11 12 -11 -4 -15 -3 -10 5 3 6 2 13 -4 17 -5 3 -10 -1 -10 -10z m39
-1650 c23 -24 49 -152 47 -235 l-1 -85 -62 0 c-67 0 -86 10 -84 46 1 13 2 40
2 59 1 55 21 193 30 210 8 18 53 21 68 5z"/>
<path d="M1022 2273 c-12 -14 -20 -29 -17 -33 20 -32 -110 -153 -167 -156 -42
-2 -44 -9 -20 -60 17 -34 20 -50 12 -64 -19 -36 -12 -74 20 -100 16 -14 31
-34 33 -45 7 -34 37 -95 47 -95 6 0 10 -4 10 -10 0 -5 -6 -10 -13 -10 -20 0
-50 -37 -44 -54 3 -8 0 -19 -7 -25 -7 -6 -18 -28 -25 -48 -6 -21 -17 -45 -24
-54 -12 -16 -161 -69 -192 -69 -8 0 -18 -6 -22 -13 -11 -18 -81 -37 -137 -37
-26 0 -56 -4 -66 -10 -15 -8 -23 -3 -45 26 -31 41 -15 40 -220 9 -162 -24
-146 -13 -143 -107 l3 -82 395 -159 c301 -122 405 -160 438 -159 23 0 42 -3
42 -7 0 -5 -16 -38 -35 -75 -19 -37 -35 -78 -35 -92 0 -24 22 -53 55 -71 15
-9 13 -15 -20 -62 -46 -63 -55 -118 -29 -160 11 -16 62 -62 114 -101 122 -93
140 -110 140 -131 0 -10 -11 -20 -27 -24 -74 -18 -191 -148 -167 -186 2 -4
129 -6 281 -7 263 0 303 4 303 29 0 18 -61 77 -99 93 -25 12 -42 27 -45 41 -3
13 -21 34 -39 46 -39 27 -66 59 -67 78 0 8 -22 36 -49 61 -26 25 -60 68 -74
96 -14 28 -38 66 -53 83 -25 30 -26 33 -10 49 12 12 35 17 84 18 99 0 184 20
270 62 100 48 101 55 26 204 -31 62 -72 154 -91 203 -19 50 -48 107 -64 127
-18 23 -29 49 -29 68 0 17 -11 52 -24 78 -24 48 -38 135 -36 225 0 26 -4 47
-9 47 -11 0 -41 51 -41 70 0 5 9 10 20 10 11 0 23 7 27 16 3 8 12 13 19 10 20
-8 44 33 44 75 0 19 -9 63 -20 97 -21 64 -19 84 14 112 24 19 19 27 -19 34
-48 9 -97 78 -89 127 5 28 1 39 -24 62 -19 18 -28 35 -25 47 8 29 -11 30 -35
3z m-133 -902 c13 -39 3 -53 -34 -49 -11 1 -33 -6 -48 -16 -23 -16 -40 -18
-103 -13 -41 4 -87 13 -102 21 l-27 14 40 7 c41 7 208 61 235 75 18 11 24 5
39 -39z"/>
<path d="M828 13 c7 -3 16 -2 19 1 4 3 -2 6 -13 5 -11 0 -14 -3 -6 -6z"/>
</g>
</svg>
