<?xml version="1.0" standalone="no"?>
<!DOCTYPE svg PUBLIC "-//W3C//DTD SVG 20010904//EN"
 "http://www.w3.org/TR/2001/REC-SVG-20010904/DTD/svg10.dtd">
<svg version="1.0" xmlns="http://www.w3.org/2000/svg"
 width="480.000000pt" height="360.000000pt" viewBox="0 0 480.000000 360.000000"
 preserveAspectRatio="xMidYMid meet">
<metadata>
Created by potrace 1.16, written by Peter Selinger 2001-2019
</metadata>
<rect width="1" height="360" fill="#000000"/>
<rect x="479" width="1" height="360" fill="#000000"/>
<rect width="480" height="1" fill="#000000"/>
<rect y="359" width="480" height="1" fill="#000000"/>
<g transform="translate(0.000000,360.000000) scale(0.100000,-0.100000)"
fill="#000000" stroke="none">
<path d="M1604 3413 c0 -272 -25 -385 -135 -608 -53 -108 -137 -227 -222 -314
-77 -80 -232 -200 -297 -232 -32 -15 -61 -33 -65 -38 -3 -6 -38 -20 -78 -32
-40 -12 -76 -25 -82 -29 -23 -18 -192 -52 -302 -61 -138 -11 -314 0 -406 27
-16 5 -17 -50 -17 -1060 l0 -1066 2001 0 c1900 0 2000 1 1995 18 -11 38 -26
181 -25 251 0 41 16 159 35 262 18 102 45 285 60 405 14 121 36 278 50 351 19
106 22 141 14 180 -5 26 -12 78 -16 115 -5 62 -7 67 -35 78 -41 17 -79 66 -79
101 0 40 22 91 65 149 22 30 40 71 49 111 12 52 22 70 52 97 29 25 35 35 26
44 -9 9 -8 16 5 30 20 23 9 36 -17 20 -32 -20 -53 -14 -111 29 -36 27 -54 47
-54 62 0 25 -41 49 -68 41 -20 -6 -67 30 -67 52 0 8 -6 11 -16 7 -12 -5 -15
-1 -11 13 3 10 8 48 12 84 l6 65 -56 48 c-31 27 -63 60 -72 74 -16 24 -16 26
5 44 24 19 45 22 329 40 l182 11 74 -34 c57 -27 85 -49 128 -99 54 -62 119
-158 119 -174 0 -4 29 -38 65 -76 68 -73 107 -138 136 -229 17 -53 17 -34 18
688 l1 742 -1598 0 -1597 0 -1 -187z"/>
<path d="M4609 1728 c-1 -2 -2 -20 -3 -40 -2 -21 -10 -46 -18 -55 -14 -16 -14
-26 0 -97 14 -72 14 -85 0 -138 l-15 -59 32 -42 c17 -23 37 -53 44 -66 26 -49
35 -6 36 172 0 167 -1 174 -29 245 -25 62 -43 92 -47 80z"/>
<path d="M4767 1216 c-4 -10 -5 -21 -2 -24 9 -9 17 6 13 25 -3 17 -4 17 -11
-1z"/>
<path d="M4735 1144 c-17 -42 -19 -54 -6 -54 5 0 16 18 25 40 19 47 19 50 6
50 -5 0 -17 -16 -25 -36z"/>
<path d="M4762 1028 c-7 -9 -3 -29 13 -68 l24 -55 1 52 c0 44 -3 51 -16 46
-14 -5 -15 -3 -5 15 13 24 0 30 -17 10z"/>
</g>
</svg>
