<?xml version="1.0" standalone="no"?>
<!DOCTYPE svg PUBLIC "-//W3C//DTD SVG 20010904//EN"
 "http://www.w3.org/TR/2001/REC-SVG-20010904/DTD/svg10.dtd">
<svg version="1.0" xmlns="http://www.w3.org/2000/svg"
 width="480.000000pt" height="360.000000pt" viewBox="0 0 480.000000 360.000000"
 preserveAspectRatio="xMidYMid meet">
<metadata>
Created by potrace 1.16, written by Peter Selinger 2001-2019
</metadata>
<rect width="1" height="360" fill="#000000"/>
<rect x="479" width="1" height="360" fill="#000000"/>
<rect width="480" height="1" fill="#000000"/>
<rect y="359" width="480" height="1" fill="#000000"/>
<g transform="translate(0.000000,360.000000) scale(0.100000,-0.100000)"
fill="#000000" stroke="none">
<path d="M0 1800 l0 -1800 2400 0 2400 0 0 1800 0 1800 -1145 0 -1145 0 0
-122 c0 -150 -18 -271 -64 -449 -20 -73 -36 -154 -37 -179 -1 -40 -3 -36 -19
40 -9 47 -31 141 -48 210 -40 164 -55 277 -50 400 l3 100 -1147 0 -1148 0 0
-1800z m2505 883 c11 -21 27 -46 37 -56 9 -9 15 -24 12 -32 -5 -11 1 -15 23
-15 16 0 49 -10 73 -22 40 -21 60 -42 125 -131 19 -26 28 -29 119 -38 55 -5
114 -16 133 -24 34 -15 137 -84 211 -143 l43 -34 -7 -61 c-7 -69 -27 -127 -44
-127 -6 0 -24 7 -40 15 l-29 15 -29 -57 c-37 -76 -97 -123 -155 -123 -23 0
-71 9 -106 20 -45 14 -67 17 -76 10 -35 -29 -115 -114 -115 -122 0 -6 9 -21
20 -35 21 -27 26 -53 11 -53 -5 0 -12 6 -15 13 -3 6 -3 -6 0 -28 3 -22 16 -59
30 -82 13 -23 24 -52 23 -65 0 -13 -1 -47 -1 -75 1 -50 -10 -69 -21 -40 -9 20
-27 -13 -27 -50 0 -17 -3 -38 -6 -47 -4 -11 -1 -16 10 -16 18 0 22 -40 5 -57
-10 -10 -1 -30 142 -309 41 -82 61 -166 41 -178 -6 -3 -8 -21 -5 -39 5 -31 3
-33 -41 -45 -33 -9 -49 -19 -60 -41 -10 -19 -26 -30 -48 -35 -18 -3 -50 -18
-70 -31 -21 -14 -49 -25 -62 -25 -34 0 -38 -11 -24 -65 9 -33 9 -51 2 -63 -14
-22 -51 -27 -81 -11 -18 10 -26 10 -35 1 -18 -18 -63 -14 -92 9 -34 26 -33 43
3 70 42 31 29 74 -33 107 -28 14 -131 32 -193 34 -26 0 -26 1 -13 47 8 29 7
34 -11 38 -23 6 -23 8 36 153 71 175 103 294 125 474 6 50 23 125 37 168 l26
78 -28 21 c-27 22 -29 37 -10 82 6 15 4 18 -11 15 -24 -4 -32 38 -11 55 14 12
30 57 20 57 -3 0 -19 -10 -36 -22 -22 -16 -50 -24 -94 -26 l-63 -4 -48 52
c-42 45 -51 51 -68 42 -32 -17 -41 -2 -48 86 -8 99 0 118 83 201 75 75 154
135 213 161 49 21 50 24 68 105 17 75 37 109 86 144 25 18 44 40 44 51 0 10 6
25 13 32 6 7 12 34 11 61 0 26 2 47 5 47 4 0 15 -17 26 -37z"/>
<path d="M3230 2145 c-7 -8 -19 -15 -26 -15 -13 0 -44 -48 -44 -68 0 -5 12
-15 28 -23 15 -7 30 -15 34 -17 11 -6 25 31 33 86 7 53 -1 66 -25 37z"/>
<path d="M3020 1996 c-66 -15 -120 -37 -163 -68 l-31 -22 60 -18 c32 -10 74
-18 93 -18 56 0 113 49 143 122 9 22 -18 23 -102 4z"/>
<path d="M1973 1918 c4 -62 9 -74 26 -63 19 11 12 71 -10 96 l-20 24 4 -57z"/>
<path d="M2660 1866 c0 -8 5 -27 10 -42 l11 -27 35 34 c35 34 35 34 12 41 -41
11 -68 9 -68 -6z"/>
<path d="M2058 1864 c-26 -8 -23 -15 27 -64 39 -38 51 -44 84 -44 41 1 131 39
131 55 0 5 -19 18 -42 30 -42 22 -159 35 -200 23z"/>
<path d="M2470 510 c0 -28 4 -40 14 -40 22 0 28 17 21 50 -10 46 -35 38 -35
-10z"/>
</g>
</svg>
