<?xml version="1.0" standalone="no"?>
<!DOCTYPE svg PUBLIC "-//W3C//DTD SVG 20010904//EN"
 "http://www.w3.org/TR/2001/REC-SVG-20010904/DTD/svg10.dtd">
<svg version="1.0" xmlns="http://www.w3.org/2000/svg"
 width="480.000000pt" height="360.000000pt" viewBox="0 0 480.000000 360.000000"
 preserveAspectRatio="xMidYMid meet">
<metadata>
Created by potrace 1.16, written by Peter Selinger 2001-2019
</metadata>
<rect width="1" height="360" fill="#000000"/>
<rect x="479" width="1" height="360" fill="#000000"/>
<rect width="480" height="1" fill="#000000"/>
<rect y="359" width="480" height="1" fill="#000000"/>
<g transform="translate(0.000000,360.000000) scale(0.100000,-0.100000)"
fill="#000000" stroke="none">
<path d="M0 1800 l0 -1800 155 0 c125 0 155 3 155 14 0 24 47 46 99 46 42 0
53 -4 74 -30 l26 -30 788 0 788 1 -108 28 c-201 53 -372 159 -420 263 -23 49
-22 129 2 177 11 21 46 61 77 90 317 290 1184 292 1513 4 121 -106 132 -225
31 -337 -85 -92 -202 -154 -385 -201 l-90 -24 800 -1 799 0 22 26 c13 14 24
25 26 24 2 -1 20 1 42 5 44 9 106 -15 106 -40 0 -13 23 -15 150 -15 l150 0 0
1800 0 1800 -2400 0 -2400 0 0 -1800z m2722 -505 c11 -15 10 -83 -2 -104 -14
-27 -64 -45 -87 -33 -36 20 -47 55 -31 104 18 52 48 72 87 55 14 -6 29 -16 33
-22z m-603 0 c8 -8 16 -36 19 -63 4 -44 2 -51 -23 -70 -72 -57 -140 11 -105
104 20 51 71 64 109 29z m1174 -47 c11 -8 20 -33 23 -63 5 -42 2 -55 -16 -77
-28 -37 -77 -38 -109 -4 -19 21 -22 31 -16 65 13 76 70 114 118 79z m-1759
-27 c10 -11 20 -37 23 -59 5 -34 1 -45 -20 -66 -30 -30 -57 -33 -92 -10 -20
13 -25 25 -25 59 0 24 4 55 10 69 8 22 16 26 48 26 26 0 45 -7 56 -19z m2339
-124 c23 -18 29 -32 33 -77 5 -47 3 -58 -15 -77 -25 -26 -85 -31 -113 -9 -50
38 -40 154 15 176 35 14 50 11 80 -13z m-2861 -35 c21 -21 27 -95 11 -130 -26
-56 -100 -56 -129 -1 -14 27 -14 38 -3 78 17 66 26 74 72 68 22 -3 44 -10 49
-15z m3307 -229 c15 -13 23 -35 27 -75 6 -54 5 -58 -24 -87 -41 -41 -91 -43
-127 -4 -28 31 -31 67 -12 123 19 56 92 79 136 43z m-3695 -38 c21 -22 36 -70
36 -116 0 -9 -12 -28 -26 -43 -36 -35 -82 -35 -124 1 -31 25 -32 29 -28 86 4
47 9 64 27 78 34 28 87 25 115 -6z m3896 -285 c0 -5 8 -10 19 -10 29 0 38 -19
46 -93 l7 -67 -40 -40 c-22 -22 -49 -40 -61 -40 -36 0 -77 27 -93 60 -20 42
-3 147 27 164 10 6 25 17 33 24 16 14 62 16 62 2z m-4165 -60 c52 -12 65 -32
65 -103 0 -54 -3 -62 -34 -93 -29 -29 -41 -34 -79 -34 -37 0 -49 5 -66 26 -35
44 -21 136 29 189 26 28 29 28 85 15z"/>
<path d="M2305 569 c-66 -8 -160 -42 -189 -67 -24 -23 -46 -66 -46 -93 0 -33
68 -92 131 -112 102 -33 186 -40 283 -24 189 33 273 120 200 207 -63 74 -213
110 -379 89z"/>
</g>
</svg>
