<?xml version="1.0" standalone="no"?>
<!DOCTYPE svg PUBLIC "-//W3C//DTD SVG 20010904//EN"
 "http://www.w3.org/TR/2001/REC-SVG-20010904/DTD/svg10.dtd">
<svg version="1.0" xmlns="http://www.w3.org/2000/svg"
 width="480.000000pt" height="360.000000pt" viewBox="0 0 480.000000 360.000000"
 preserveAspectRatio="xMidYMid meet">
<metadata>
Created by potrace 1.16, written by Peter Selinger 2001-2019
</metadata>
<rect width="1" height="360" fill="#000000"/>
<rect x="479" width="1" height="360" fill="#000000"/>
<rect width="480" height="1" fill="#000000"/>
<rect y="359" width="480" height="1" fill="#000000"/>
<g transform="translate(0.000000,360.000000) scale(0.100000,-0.100000)"
fill="#000000" stroke="none">
<path d="M0 1800 l0 -1800 211 0 c211 0 211 0 241 25 16 14 34 25 39 25 16 0
9 -17 -14 -33 -20 -15 56 -16 868 -16 878 0 890 0 854 19 -19 10 -78 31 -130
46 -139 39 -143 42 -174 126 -15 40 -36 83 -47 94 -11 12 -66 43 -123 69 -67
31 -107 55 -115 71 -14 25 -57 44 -101 44 -18 0 -29 5 -29 13 0 14 89 77 108
77 5 0 15 6 21 14 10 11 8 16 -8 21 -12 3 -28 13 -36 22 -14 13 -13 17 7 33
30 23 137 76 273 135 323 140 383 182 580 409 l60 69 0 199 c0 180 -2 199 -17
204 -26 8 -22 20 10 39 39 23 70 72 94 147 17 55 19 84 15 220 -2 106 -8 162
-16 172 -7 8 -10 19 -7 24 3 5 -5 7 -18 5 -23 -5 -42 19 -30 38 3 5 -6 9 -20
9 -25 0 -26 1 -22 62 l4 61 -19 -24 c-10 -13 -19 -28 -19 -33 0 -5 -7 -2 -16
5 -13 10 -15 24 -10 63 4 41 12 56 46 88 42 41 44 45 60 152 13 86 38 134 92
181 93 81 207 100 312 52 l56 -26 72 85 c93 109 102 115 161 102 27 -5 58 -6
71 -1 14 4 63 45 110 91 47 45 90 82 96 82 28 0 2 -40 -76 -118 -54 -53 -83
-90 -80 -99 3 -8 -1 -24 -9 -36 -17 -25 -20 -41 -5 -32 6 3 10 2 10 -4 0 -5
-8 -15 -17 -21 -13 -8 -15 -13 -5 -17 21 -8 -34 -52 -79 -62 -38 -9 -78 -44
-125 -110 -11 -16 -23 -80 -23 -134 -1 -16 -5 -26 -10 -22 -17 10 -21 -12 -23
-104 -1 -50 -5 -96 -9 -103 -7 -10 -9 -10 -9 1 0 10 -3 11 -13 2 -8 -6 -16 -8
-19 -6 -3 3 -13 -7 -23 -22 -21 -32 -47 -53 -57 -47 -4 2 -9 0 -13 -5 -3 -6
-12 -8 -20 -4 -8 3 -15 3 -15 0 0 -15 31 -76 46 -88 33 -28 144 -207 159 -257
19 -62 12 -97 -39 -192 -34 -62 -35 -68 -29 -140 4 -52 11 -81 24 -95 11 -13
16 -29 13 -42 -3 -12 5 -86 19 -165 14 -79 35 -204 47 -278 29 -184 102 -554
144 -730 54 -228 60 -269 42 -289 -9 -10 -16 -23 -16 -29 0 -9 186 -12 760
-12 l760 0 0 1800 0 1800 -2400 0 -2400 0 0 -1800z m715 1559 c5 -6 3 -9 -7
-9 -24 0 -48 11 -48 22 0 10 39 1 55 -13z m73 -81 c-5 -32 -28 -35 -28 -4 0
17 5 26 16 26 10 0 14 -7 12 -22z m-588 -167 c0 -13 -29 -35 -37 -28 -7 8 15
37 28 37 5 0 9 -4 9 -9z m770 -26 c0 -21 -28 -31 -43 -16 -9 9 -8 14 3 21 22
14 40 12 40 -5z m-380 -486 c0 -17 -40 -49 -60 -49 -28 0 -25 26 6 55 21 19
30 22 40 14 8 -6 14 -15 14 -20z m929 -131 c-7 -13 -14 -18 -16 -11 -3 7 1 22
8 35 7 13 14 18 16 11 3 -7 -1 -22 -8 -35z m-1449 -68 c11 -20 4 -70 -9 -70
-15 0 -33 48 -26 69 8 26 21 27 35 1z m579 -48 c-12 -32 -28 -52 -41 -52 -11
0 -1 36 18 68 20 30 36 19 23 -16z m-488 -83 c5 -10 7 -29 4 -42 -5 -19 -13
-23 -48 -24 -26 0 -31 1 -14 4 30 5 34 15 13 32 -16 14 -29 58 -21 71 8 12 52
-16 66 -41z m4529 -499 c0 -37 -27 -93 -40 -85 -14 8 -12 59 2 90 16 35 38 32
38 -5z m-2255 -50 c-3 -5 -24 -10 -46 -10 -24 0 -38 4 -34 10 3 6 24 10 46 10
24 0 38 -4 34 -10z m-820 -401 c7 -10 -21 -49 -35 -49 -3 0 -15 6 -25 14 -16
12 -17 16 -6 30 15 18 56 21 66 5z m-435 -309 c0 -23 -36 -63 -49 -55 -13 7
-1 48 17 63 22 17 32 15 32 -8z m-385 -142 c4 -16 3 -28 -2 -28 -12 0 -33 44
-33 68 0 14 2 14 14 2 8 -8 18 -27 21 -42z m766 -611 l-23 -22 17 28 c10 15
20 25 23 22 3 -3 -5 -16 -17 -28z"/>
<path d="M2650 1592 c0 -44 11 -92 22 -92 14 0 5 113 -9 118 -9 2 -13 -7 -13
-26z"/>
</g>
</svg>
