<?xml version="1.0" standalone="no"?>
<!DOCTYPE svg PUBLIC "-//W3C//DTD SVG 20010904//EN"
 "http://www.w3.org/TR/2001/REC-SVG-20010904/DTD/svg10.dtd">
<svg version="1.0" xmlns="http://www.w3.org/2000/svg"
 width="480.000000pt" height="360.000000pt" viewBox="0 0 480.000000 360.000000"
 preserveAspectRatio="xMidYMid meet">
<metadata>
Created by potrace 1.16, written by Peter Selinger 2001-2019
</metadata>
<rect width="1" height="360" fill="#000000"/>
<rect x="479" width="1" height="360" fill="#000000"/>
<rect width="480" height="1" fill="#000000"/>
<rect y="359" width="480" height="1" fill="#000000"/>
<g transform="translate(0.000000,360.000000) scale(0.100000,-0.100000)"
fill="#000000" stroke="none">
<path d="M1598 3568 c11 -56 7 -319 -7 -398 -25 -150 -130 -411 -199 -499 -15
-18 -31 -41 -37 -50 -38 -64 -272 -291 -301 -291 -6 0 -19 -9 -29 -20 -47 -52
-221 -127 -430 -186 -96 -27 -297 -37 -430 -20 -66 8 -130 18 -143 22 l-22 6
0 -1066 0 -1066 1319 0 1319 0 6 38 c43 250 56 303 112 459 73 207 102 306
130 451 14 75 41 211 59 302 19 96 30 171 25 180 -4 8 -13 59 -20 112 -12 94
-13 97 -42 107 -16 6 -43 25 -59 42 -23 25 -29 40 -29 78 0 25 7 59 15 75 9
16 13 31 11 33 -2 3 -41 -14 -86 -36 -90 -44 -112 -43 -130 5 -11 28 -22 30
-40 9 -16 -20 -29 -19 -37 3 -10 27 -17 28 -105 19 -71 -8 -107 -5 -248 18
-202 34 -350 47 -368 32 -10 -8 -9 -13 3 -27 19 -21 19 -34 0 -26 -8 3 -15 1
-15 -4 0 -21 -47 -9 -73 18 -34 35 -34 72 -3 109 38 45 88 56 209 43 56 -5
189 -14 294 -20 215 -11 265 -4 271 37 3 19 9 22 39 20 32 -2 37 2 43 23 7 27
-3 26 185 19 56 -3 87 2 152 25 76 26 81 29 70 47 -12 20 -5 30 28 42 6 3 7 7
4 10 -3 4 -19 2 -35 -4 -27 -10 -32 -8 -89 48 l-60 59 18 32 19 32 -29 1 c-15
1 -32 1 -37 0 -13 -3 -56 40 -56 56 0 8 -6 16 -13 19 -21 8 -19 70 3 123 l21
49 -50 69 c-71 98 -66 123 24 123 67 -1 243 -25 278 -39 16 -6 51 -11 78 -11
51 0 107 -22 165 -65 41 -32 91 -128 110 -216 10 -47 29 -93 51 -126 59 -91
66 -123 65 -273 0 -119 3 -145 26 -220 23 -73 27 -104 27 -215 0 -71 6 -148
13 -170 6 -22 16 -116 22 -208 5 -92 15 -205 22 -251 9 -67 9 -97 -2 -154 -7
-39 -9 -78 -5 -89 4 -10 7 -25 6 -34 -2 -18 67 -187 162 -400 37 -81 83 -199
104 -263 l38 -116 442 0 443 0 0 1800 0 1800 -1604 0 -1604 0 6 -32z"/>
</g>
</svg>
