<?xml version="1.0" standalone="no"?>
<!DOCTYPE svg PUBLIC "-//W3C//DTD SVG 20010904//EN"
 "http://www.w3.org/TR/2001/REC-SVG-20010904/DTD/svg10.dtd">
<svg version="1.0" xmlns="http://www.w3.org/2000/svg"
 width="480.000000pt" height="360.000000pt" viewBox="0 0 480.000000 360.000000"
 preserveAspectRatio="xMidYMid meet">
<metadata>
Created by potrace 1.16, written by Peter Selinger 2001-2019
</metadata>
<rect width="1" height="360" fill="#000000"/>
<rect x="479" width="1" height="360" fill="#000000"/>
<rect width="480" height="1" fill="#000000"/>
<rect y="359" width="480" height="1" fill="#000000"/>
<g transform="translate(0.000000,360.000000) scale(0.100000,-0.100000)"
fill="#000000" stroke="none">
<path d="M4278 3568 c-46 -30 -48 -31 -190 -33 -157 -2 -216 -15 -377 -81
-259 -107 -447 -293 -481 -475 -15 -76 -49 -111 -172 -174 -98 -50 -114 -55
-175 -56 -101 -1 -114 -7 -145 -66 -41 -79 -41 -120 -2 -125 21 -2 30 -13 45
-52 10 -27 28 -60 41 -73 19 -21 30 -23 86 -21 35 1 66 6 68 10 3 4 16 8 28 8
19 0 25 -7 30 -39 3 -22 3 -47 0 -55 -3 -9 -2 -16 4 -16 6 0 16 -15 23 -32
l13 -33 4 30 c3 27 5 26 26 -25 12 -30 28 -54 34 -52 7 1 15 -5 18 -13 10 -25
22 -17 17 13 -5 26 -4 26 32 -13 33 -37 35 -38 22 -10 -8 17 -12 35 -10 41 2
6 -3 17 -12 24 -8 7 -15 19 -15 28 0 18 59 -57 60 -75 0 -7 11 -20 25 -29 13
-9 27 -24 30 -35 8 -23 -23 -69 -59 -89 -38 -20 -32 -41 22 -75 38 -24 48 -36
50 -61 2 -18 12 -40 23 -50 10 -9 19 -26 19 -36 0 -10 7 -21 15 -25 9 -3 24
-21 34 -41 17 -34 17 -37 0 -83 -21 -54 -12 -64 19 -21 17 22 23 25 33 15 7
-7 27 -13 44 -13 30 0 30 -1 27 -40 -2 -22 -2 -40 1 -40 2 0 20 25 38 55 18
30 37 55 41 55 4 0 12 -18 18 -40 6 -22 19 -44 29 -49 15 -8 24 -1 56 49 22
33 41 60 44 60 3 0 16 -27 29 -59 26 -69 22 -113 -16 -153 -19 -21 -23 -34
-19 -57 6 -28 3 -33 -41 -58 -26 -15 -67 -40 -91 -56 l-44 -30 -81 12 c-117
16 -163 14 -176 -6 -8 -13 -13 -14 -16 -5 -8 18 -39 15 -59 -8 -18 -19 -17
-43 1 -121 6 -26 4 -27 -43 -33 -30 -4 -68 -1 -103 8 -30 8 -57 12 -59 10 -3
-2 1 -27 8 -55 7 -27 12 -51 10 -53 -2 -1 -47 -17 -99 -36 -105 -36 -225 -92
-254 -118 -21 -20 -16 -25 -93 93 -49 76 -413 550 -461 601 -16 18 -42 39 -58
47 -34 17 -230 73 -293 82 -25 4 -70 16 -100 27 -83 29 -333 38 -380 13 -25
-12 -71 -19 -168 -24 -73 -4 -138 -12 -143 -17 -14 -14 3 -90 30 -144 11 -21
46 -61 79 -90 47 -41 62 -61 75 -103 9 -30 14 -65 10 -83 -7 -39 7 -50 73 -56
40 -4 56 -11 75 -33 l24 -27 169 10 c94 6 181 12 194 14 21 3 39 -19 140 -169
64 -95 170 -258 236 -364 133 -212 209 -302 313 -372 87 -58 109 -67 180 -68
71 -2 135 11 340 68 89 25 165 43 169 40 9 -9 9 -80 -1 -214 l-8 -123 493 0
494 0 39 140 c21 77 42 143 47 146 12 7 258 -14 323 -28 72 -15 161 -57 233
-111 l63 -47 0 637 c0 350 -2 634 -5 632 -2 -3 -25 -93 -50 -200 -60 -258 -66
-274 -130 -347 -30 -35 -55 -67 -55 -72 0 -5 -28 6 -62 25 l-63 34 -6 103 c-7
127 -41 245 -131 463 -25 61 -34 105 -20 105 5 0 13 -11 16 -25 4 -14 11 -23
15 -20 5 3 18 -6 29 -20 26 -33 30 -32 34 11 l3 36 39 -38 38 -37 -6 54 c-4
30 -10 73 -13 97 -3 23 -1 42 3 42 14 0 58 -41 103 -97 63 -78 75 -72 67 27
-6 75 -5 80 13 80 12 0 21 8 23 20 3 18 7 17 47 -15 48 -39 63 -43 59 -19 -2
11 5 18 21 21 35 5 36 8 10 44 l-23 32 22 -5 22 -6 0 969 0 969 -237 0 -238
-1 -47 -31z"/>
</g>
</svg>
