<?xml version="1.0" standalone="no"?>
<!DOCTYPE svg PUBLIC "-//W3C//DTD SVG 20010904//EN"
 "http://www.w3.org/TR/2001/REC-SVG-20010904/DTD/svg10.dtd">
<svg version="1.0" xmlns="http://www.w3.org/2000/svg"
 width="480.000000pt" height="360.000000pt" viewBox="0 0 480.000000 360.000000"
 preserveAspectRatio="xMidYMid meet">
<metadata>
Created by potrace 1.16, written by Peter Selinger 2001-2019
</metadata>
<rect width="1" height="360" fill="#000000"/>
<rect x="479" width="1" height="360" fill="#000000"/>
<rect width="480" height="1" fill="#000000"/>
<rect y="359" width="480" height="1" fill="#000000"/>
<g transform="translate(0.000000,360.000000) scale(0.100000,-0.100000)"
fill="#000000" stroke="none">
<path d="M2 3238 c3 -355 3 -363 23 -363 13 0 21 -8 23 -22 3 -17 -3 -24 -22
-29 l-26 -6 0 -455 c0 -284 4 -461 10 -473 7 -13 7 -21 0 -25 -7 -4 -10 -325
-10 -936 l0 -929 1541 0 c1031 0 1538 3 1534 10 -3 6 1 13 10 16 12 5 13 9 5
14 -7 4 2 10 22 14 34 7 58 -10 58 -41 0 -11 150 -13 815 -13 l815 0 0 1800 0
1800 -2112 0 c-1524 0 -2115 -3 -2124 -11 -10 -8 -22 -8 -45 0 -18 6 -82 11
-143 11 l-111 0 1 -42 c0 -23 6 -44 12 -46 7 -2 12 -17 12 -34 0 -26 -2 -29
-15 -18 -8 7 -15 18 -15 26 0 7 -8 15 -19 19 -10 3 -26 13 -34 23 -14 16 -15
21 -2 45 l14 27 -110 0 -109 0 2 -362z m2073 301 c0 -18 -32 -24 -51 -8 -10 8
-11 15 -3 25 13 16 54 3 54 -17z m-1416 8 c6 -8 8 -17 5 -20 -8 -7 -54 14 -54
25 0 13 36 9 49 -5z m3049 -153 c31 -9 28 -30 -7 -45 -17 -8 -27 -18 -24 -26
3 -7 -2 -13 -11 -13 -9 0 -16 5 -16 12 0 6 -8 20 -17 31 -17 18 -17 19 2 33
20 15 38 17 73 8z m-3398 -25 c0 -5 -11 -9 -25 -9 -28 0 -34 16 -7 23 20 4 32
-1 32 -14z m-135 -44 c0 -30 -39 -27 -43 3 -3 20 0 23 20 20 15 -2 23 -10 23
-23z m3465 -1 c0 -4 -9 -21 -20 -39 -15 -25 -29 -34 -55 -37 -39 -4 -39 -4
-25 23 14 26 100 71 100 53z m-674 -70 c33 -16 47 -44 22 -44 -22 0 -79 40
-73 50 8 13 11 13 51 -6z m-1926 -182 c0 -24 -2 -25 -15 -11 -9 9 -13 23 -9
32 9 24 24 11 24 -21z m-656 -4 c18 -25 21 -58 6 -58 -10 0 -40 52 -40 70 0
17 18 11 34 -12z m1591 -103 c0 -25 -37 -32 -54 -11 -18 21 -4 38 27 34 19 -2
27 -9 27 -23z m-478 -112 c25 -16 27 -22 17 -48 -6 -15 -53 -45 -72 -45 -19 0
-61 75 -55 98 5 21 10 23 47 16 22 -3 51 -13 63 -21z m2189 -24 c48 -29 70
-114 40 -154 -12 -16 -17 -17 -44 -6 -59 25 -90 111 -56 159 19 27 19 27 60 1z
m-1058 -29 c19 -12 32 -28 32 -40 0 -17 -3 -19 -17 -12 -11 7 -21 6 -29 -3
-18 -17 -62 -7 -70 17 -6 20 20 58 40 58 6 0 26 -9 44 -20z m-1674 -52 c7 -37
-5 -56 -23 -34 -12 14 -5 66 9 66 4 0 10 -14 14 -32z m2288 -25 c22 -20 25
-83 3 -83 -19 0 -35 31 -35 69 0 35 6 38 32 14z m-1376 -3 c14 -14 5 -70 -12
-70 -22 0 -36 37 -24 60 12 22 21 25 36 10z m828 -17 c8 -20 1 -27 -19 -20 -8
4 -15 15 -15 26 0 24 25 19 34 -6z m-1047 -15 c57 -60 53 -113 -5 -78 -32 20
-52 54 -52 91 0 28 22 23 57 -13z m2240 -29 c18 -35 17 -79 -3 -79 -9 0 -18 9
-21 20 -3 11 -9 20 -13 20 -15 0 -22 41 -9 56 16 19 31 14 46 -17z m-817 -64
c0 -20 -36 -59 -47 -52 -20 13 -25 58 -8 84 l16 24 20 -22 c10 -12 19 -28 19
-34z m-136 12 c14 -20 17 -30 9 -38 -15 -15 -53 23 -53 52 0 26 18 21 44 -14z
m-1850 -69 c-12 -40 -45 -78 -66 -78 -17 0 -19 4 -14 26 11 41 39 73 64 74 20
0 22 -4 16 -22z m-557 -70 c4 -7 8 -30 8 -50 1 -34 -1 -38 -25 -38 -48 0 -67
46 -32 81 20 21 38 24 49 7z m3273 -59 c9 -16 9 -28 0 -50 -21 -50 -50 -32
-50 30 0 45 30 57 50 20z m-1762 -12 c12 -12 23 -34 24 -47 3 -23 -1 -25 -44
-28 -39 -3 -49 1 -62 20 -9 12 -16 35 -16 50 0 26 3 28 38 28 27 0 45 -7 60
-23z m362 -18 c0 -16 -5 -29 -10 -29 -13 0 -29 41 -23 57 9 22 33 1 33 -28z
m-502 -1 c19 -19 14 -38 -11 -38 -30 0 -62 24 -53 38 9 16 49 15 64 0z m1474
-45 c18 -17 26 -93 9 -93 -4 0 -20 9 -35 21 -19 15 -26 30 -26 55 0 39 21 46
52 17z m-708 -119 c20 -20 20 -48 1 -64 -13 -10 -19 -10 -35 5 -23 20 -26 45
-8 63 16 16 23 15 42 -4z m210 -33 c21 -23 18 -65 -5 -69 -19 -3 -44 49 -35
73 7 20 19 19 40 -4z m176 -60 c0 -14 -25 -30 -57 -37 -23 -4 -34 -15 -47 -45
-19 -42 -43 -48 -39 -10 4 31 33 67 68 85 33 16 75 21 75 7z m135 -112 c9 -13
-21 -22 -50 -15 -18 5 -25 13 -25 30 0 12 3 26 6 29 7 7 59 -26 69 -44z m317
24 c43 -49 46 -96 7 -108 -34 -11 -69 30 -69 82 0 38 2 43 23 43 13 0 31 -8
39 -17z m-2874 -10 c7 -11 4 -26 -10 -49 -28 -48 -45 -59 -63 -44 -22 18 -19
35 16 75 35 39 44 42 57 18z m501 -12 c23 -32 19 -61 -9 -61 -22 0 -37 18 -38
45 -1 52 17 58 47 16z m-71 -69 c7 -49 -56 -80 -81 -41 -8 13 -6 24 7 44 22
34 69 32 74 -3z m2011 -168 c12 -15 21 -37 21 -50 0 -22 -2 -23 -27 -12 -47
20 -55 31 -44 61 13 34 24 34 50 1z m1581 16 c0 -19 -82 -100 -101 -100 -27 0
-28 11 -5 55 15 29 29 42 51 46 46 10 55 10 55 -1z m-1896 -105 c20 -30 20
-45 1 -45 -18 0 -49 45 -40 60 10 16 21 12 39 -15z m1476 -25 c0 -27 -58 -90
-82 -90 -18 0 -20 4 -14 32 8 41 43 78 73 78 16 0 23 -6 23 -20z m-1405 -65
c0 -5 -17 -11 -37 -13 -36 -3 -47 5 -31 22 11 10 68 3 68 -9z m373 -1 c15 -10
22 -24 20 -37 -2 -18 -10 -22 -38 -22 -29 0 -36 4 -38 23 -3 22 13 52 27 52 4
0 17 -7 29 -16z m-364 -44 c16 -15 -5 -30 -44 -30 -47 0 -58 13 -28 34 21 15
53 13 72 -4z m-149 -22 c13 -20 14 -23 1 -26 -17 -4 -66 26 -66 39 0 19 49 8
65 -13z m-175 -85 c0 -42 -15 -42 -36 -2 -13 26 -14 37 -4 58 l12 26 14 -25
c7 -14 13 -40 14 -57z m1430 48 c15 -29 12 -57 -10 -101 -24 -47 -36 -56 -55
-40 -21 18 -18 62 7 115 24 48 41 56 58 26z m366 1 c19 -16 64 -93 64 -110 0
-11 -90 -6 -101 5 -6 6 -6 27 1 57 6 26 8 52 5 57 -10 15 8 10 31 -9z m-2593
-40 c25 -22 21 -32 -13 -32 -37 0 -80 38 -59 51 17 10 48 2 72 -19z m970 -19
c13 -12 -15 -33 -44 -33 -31 0 -36 9 -17 28 13 13 50 16 61 5z m1790 -50 c16
-10 5 -23 -30 -32 -30 -9 -38 -8 -49 7 -19 26 2 44 40 36 17 -3 34 -8 39 -11z
m-962 -33 c29 -16 23 -28 -15 -36 -46 -8 -62 2 -40 27 20 22 28 23 55 9z
m-2771 -67 c19 -32 20 -38 6 -51 -31 -31 -55 23 -37 86 3 8 12 -2 31 -35z
m3027 -54 c7 -13 10 -25 7 -28 -9 -10 -59 37 -62 59 -4 23 -3 23 20 8 12 -8
28 -26 35 -39z m-1277 -24 c13 -16 6 -35 -14 -35 -21 0 -49 26 -42 38 10 17
41 15 56 -3z m2072 -22 c10 -9 18 -20 18 -24 0 -10 -82 -49 -103 -49 -21 0
-22 16 -2 24 8 3 15 14 15 24 0 40 40 54 72 25z m-2279 -12 c15 -15 -7 -58
-32 -66 -23 -7 -71 20 -71 41 0 34 75 53 103 25z m795 -3 c7 -7 12 -16 12 -20
0 -13 -37 -9 -49 5 -20 24 14 38 37 15z m837 -34 c40 -37 33 -48 -27 -40 -55
8 -72 16 -50 23 6 3 12 15 12 28 0 29 27 24 65 -11z m-31 -100 c28 -11 17 -24
-19 -24 -26 0 -33 3 -29 15 6 16 22 19 48 9z m31 -174 c11 -35 -5 -50 -51 -50
-48 0 -53 7 -26 32 9 9 23 24 30 32 15 18 39 11 47 -14z m-1125 -129 c15 -29
-4 -36 -40 -14 -38 22 -38 33 0 33 19 0 33 -7 40 -19z m451 -5 c9 -18 7 -30
-5 -55 -19 -36 -14 -35 -60 -16 -28 12 -36 21 -36 40 0 16 7 28 18 31 9 3 24
9 32 14 25 15 40 11 51 -14z m809 -176 c20 -20 28 -60 12 -60 -12 0 -62 57
-62 70 0 17 29 11 50 -10z m628 -192 c7 -7 12 -21 12 -32 0 -18 -1 -19 -20 -1
-20 18 -27 45 -12 45 4 0 13 -5 20 -12z m-448 -125 c0 -42 -15 -57 -54 -59
-46 -1 -47 16 -3 56 40 37 57 38 57 3z"/>
</g>
</svg>
