<?xml version="1.0" standalone="no"?>
<!DOCTYPE svg PUBLIC "-//W3C//DTD SVG 20010904//EN"
 "http://www.w3.org/TR/2001/REC-SVG-20010904/DTD/svg10.dtd">
<svg version="1.0" xmlns="http://www.w3.org/2000/svg"
 width="480.000000pt" height="360.000000pt" viewBox="0 0 480.000000 360.000000"
 preserveAspectRatio="xMidYMid meet">
<metadata>
Created by potrace 1.16, written by Peter Selinger 2001-2019
</metadata>
<rect width="1" height="360" fill="#000000"/>
<rect x="479" width="1" height="360" fill="#000000"/>
<rect width="480" height="1" fill="#000000"/>
<rect y="359" width="480" height="1" fill="#000000"/>
<g transform="translate(0.000000,360.000000) scale(0.100000,-0.100000)"
fill="#000000" stroke="none">
<path d="M0 3109 c0 -464 1 -491 17 -484 10 4 45 15 78 24 l60 16 6 95 c6 110
17 153 65 257 114 251 283 355 552 340 l105 -6 115 102 c63 56 126 112 141
124 l26 22 -582 0 -583 1 0 -491z m950 401 c0 -11 -4 -20 -10 -20 -5 0 -10 9
-10 20 0 11 5 20 10 20 6 0 10 -9 10 -20z"/>
<path d="M1259 3558 c10 -24 33 -99 52 -166 l33 -124 71 -34 c136 -65 253
-182 320 -317 81 -164 95 -330 40 -455 l-28 -62 22 -51 c11 -28 37 -73 57
-101 l37 -49 -29 -31 c-16 -16 -39 -34 -51 -39 -13 -5 -23 -16 -23 -26 0 -32
30 -306 40 -373 6 -36 13 -82 15 -103 2 -21 14 -88 25 -150 18 -95 26 -117 51
-143 31 -32 47 -89 34 -121 -5 -15 -11 -10 -31 27 -13 25 -36 60 -51 78 l-29
33 -52 -26 c-56 -28 -61 -35 -37 -55 21 -18 19 -29 -10 -40 -14 -5 -25 -13
-25 -17 0 -5 16 -31 36 -58 20 -28 53 -84 74 -127 22 -42 45 -78 52 -81 7 -2
24 0 38 5 13 5 35 7 47 3 27 -6 30 -35 9 -113 -13 -52 -13 -53 12 -72 13 -11
43 -25 66 -31 76 -20 92 -52 56 -111 -36 -60 -28 -87 69 -211 33 -43 104 -155
157 -248 l97 -169 1199 0 1198 0 0 1800 0 1800 -1780 0 -1779 0 18 -42z m3471
-618 c11 -7 7 -10 -18 -10 -20 0 -31 4 -27 10 8 13 26 13 45 0z m-1700 -10 c0
-5 -4 -10 -9 -10 -6 0 -13 5 -16 10 -3 6 1 10 9 10 9 0 16 -4 16 -10z m1455
-327 c-8 -36 -20 -47 -39 -40 -25 10 2 67 31 67 11 0 13 -7 8 -27z m-750 -203
c-3 -5 -15 -10 -26 -10 -11 0 -17 5 -14 10 3 6 15 10 26 10 11 0 17 -4 14 -10z
m-1467 -883 c3 -14 -4 -17 -32 -17 -39 0 -47 13 -18 29 24 15 46 9 50 -12z
m2122 -946 c0 -14 -18 -23 -30 -16 -6 4 -8 11 -5 16 8 12 35 12 35 0z"/>
<path d="M0 2003 c0 -152 2 -274 4 -272 12 12 148 540 141 547 -3 3 -16 -5
-30 -18 l-25 -24 -45 22 -45 22 0 -277z"/>
<path d="M17 1482 c-15 -16 -17 -45 -16 -208 0 -176 1 -186 15 -150 8 22 22
48 31 58 19 21 301 170 356 188 44 14 46 23 11 39 -20 9 -35 9 -61 0 -61 -20
-121 -7 -206 44 -84 51 -106 56 -130 29z"/>
<path d="M1 926 c-1 -88 1 -157 3 -155 5 5 38 160 38 174 -1 26 -15 83 -27
110 -12 27 -13 12 -14 -129z"/>
<path d="M1684 311 c22 -35 10 -218 -19 -293 -6 -15 -1 -18 34 -18 l40 0 0 53
c0 28 3 63 8 76 12 30 -3 138 -23 169 -8 12 -21 22 -30 22 -8 0 -13 -4 -10 -9z"/>
</g>
</svg>
