<?xml version="1.0" standalone="no"?>
<!DOCTYPE svg PUBLIC "-//W3C//DTD SVG 20010904//EN"
 "http://www.w3.org/TR/2001/REC-SVG-20010904/DTD/svg10.dtd">
<svg version="1.0" xmlns="http://www.w3.org/2000/svg"
 width="480.000000pt" height="360.000000pt" viewBox="0 0 480.000000 360.000000"
 preserveAspectRatio="xMidYMid meet">
<metadata>
Created by potrace 1.16, written by Peter Selinger 2001-2019
</metadata>
<rect width="1" height="360" fill="#000000"/>
<rect x="479" width="1" height="360" fill="#000000"/>
<rect width="480" height="1" fill="#000000"/>
<rect y="359" width="480" height="1" fill="#000000"/>
<g transform="translate(0.000000,360.000000) scale(0.100000,-0.100000)"
fill="#000000" stroke="none">
<path d="M3298 3462 c-59 -15 -113 -33 -120 -40 -7 -7 -21 -45 -32 -84 l-21
-73 -79 -12 c-151 -23 -227 -63 -328 -172 -68 -73 -98 -131 -102 -195 -2 -23
-9 -53 -16 -67 l-13 -24 27 24 c30 28 31 26 12 -20 -19 -47 -29 -119 -16 -119
5 0 10 7 10 15 0 8 4 15 10 15 5 0 7 -13 5 -29 -2 -19 4 -36 19 -52 12 -13 27
-33 34 -44 10 -18 11 -17 12 12 0 52 17 47 24 -8 8 -60 -5 -81 -60 -99 -42
-14 -43 -29 -3 -71 24 -26 30 -39 25 -61 -3 -17 2 -46 15 -75 11 -26 23 -66
26 -91 9 -68 21 -74 123 -66 57 4 90 3 94 -4 3 -6 9 -51 13 -102 l6 -91 -39
-32 c-21 -17 -67 -58 -102 -91 -35 -33 -77 -65 -95 -71 -35 -11 -77 -66 -77
-100 0 -48 -18 -47 -191 9 -90 30 -173 55 -183 57 -11 2 -31 26 -46 54 -21 39
-39 56 -79 77 -46 24 -59 27 -119 21 -40 -4 -86 -16 -116 -31 -47 -24 -50 -24
-98 -8 -56 18 -78 20 -78 8 0 -14 54 -60 74 -64 15 -2 23 -19 36 -72 15 -63
19 -70 50 -82 51 -21 95 -119 115 -256 9 -56 31 -159 50 -228 60 -217 72 -269
67 -274 -11 -12 -81 29 -127 74 -36 34 -95 71 -210 130 -172 88 -155 75 -464
363 -109 102 -127 115 -151 110 -15 -3 -31 0 -34 6 -5 8 -13 8 -26 1 -11 -6
-25 -9 -31 -8 -12 3 -82 -109 -77 -122 3 -5 102 -99 250 -237 41 -38 55 -58
51 -72 -6 -23 15 -65 56 -110 17 -19 31 -45 31 -58 0 -31 12 -53 74 -137 56
-76 73 -86 134 -79 23 3 62 -2 89 -10 26 -9 98 -23 160 -32 142 -20 168 -29
191 -69 28 -47 90 -94 247 -186 77 -45 142 -84 145 -87 3 -2 -3 -9 -13 -14
-48 -27 -65 -157 -27 -214 11 -16 20 -45 20 -62 l0 -33 635 0 635 0 0 21 c0
12 -7 37 -17 56 -22 48 -113 145 -129 139 -7 -3 -16 -1 -19 4 -20 32 -57 359
-59 514 l-2 169 -28 24 c-16 14 -35 21 -45 18 -15 -4 -17 0 -13 25 2 16 5 30
6 30 1 0 19 -9 41 -20 28 -14 58 -20 105 -19 71 0 112 11 92 23 -27 16 -9 26
48 26 56 0 60 1 57 23 -2 20 3 22 53 25 79 4 87 8 64 33 -18 20 -18 21 1 35
11 8 20 22 20 31 0 9 5 18 11 20 7 2 14 -16 18 -47 4 -28 11 -48 16 -45 6 4
10 13 10 21 0 8 4 14 9 14 16 0 19 -37 5 -69 -16 -39 -47 -197 -42 -213 3 -7
18 8 35 33 17 24 40 52 51 62 19 18 19 18 1 -58 -10 -42 -20 -113 -24 -158
l-6 -82 21 38 c11 20 23 37 26 37 3 0 2 -56 -2 -125 -7 -135 -2 -151 35 -91
40 64 50 63 36 -1 -24 -109 -27 -143 -11 -143 8 0 39 23 69 50 l55 50 -24 -92
c-31 -120 -30 -127 2 -97 24 22 26 22 21 4 -24 -82 -16 -100 18 -42 l19 32 6
-25 c7 -29 11 -23 35 49 18 55 54 125 61 118 2 -2 -7 -39 -20 -83 -13 -43 -31
-124 -40 -179 -10 -55 -19 -107 -20 -116 -3 -15 18 -17 209 -18 l212 -2 13 93
c7 51 17 98 23 103 10 10 7 -42 -9 -147 l-7 -48 62 0 61 0 0 825 c0 653 -3
825 -12 825 -20 0 -235 130 -318 191 -154 115 -312 285 -405 438 l-39 64 -24
-51 c-14 -28 -35 -56 -46 -62 -12 -6 -34 -29 -50 -52 -26 -36 -30 -39 -37 -22
-4 10 -8 34 -8 53 -1 19 -10 88 -22 155 -17 100 -18 131 -10 182 18 99 13 183
-13 267 -13 42 -27 91 -31 109 -14 61 -64 145 -125 209 -45 48 -59 69 -55 84
21 76 17 99 -22 146 -43 52 -140 129 -163 128 -8 0 -63 -12 -122 -27z m507
-1248 c8 -65 17 -125 20 -134 2 -8 0 -22 -5 -29 -7 -12 -10 -8 -15 15 -4 16
-14 56 -22 89 -8 33 -14 80 -14 104 0 44 9 86 17 78 3 -2 11 -58 19 -123z m-6
-199 c0 -5 -6 -1 -14 9 -8 11 -15 27 -15 35 1 17 29 -26 29 -44z m-129 -134
c0 -10 -7 -24 -15 -31 -17 -14 -20 -3 -9 37 7 26 24 21 24 -6z m-164 -122 c7
-11 -22 -47 -30 -38 -8 7 5 49 15 49 4 0 11 -5 15 -11z m-86 -66 c0 -24 -17
-13 -30 16 -6 17 -8 36 -4 43 5 8 12 3 20 -17 7 -17 13 -36 14 -42z m-1057
-78 c34 -8 100 -21 147 -30 47 -9 87 -18 89 -21 2 -2 -3 -12 -12 -22 -9 -9
-21 -39 -27 -66 -6 -27 -20 -62 -32 -78 -16 -24 -19 -39 -15 -81 5 -51 3 -54
-53 -132 -47 -66 -57 -86 -53 -110 9 -57 -22 -1 -62 113 -21 59 -48 128 -61
153 -20 40 -22 59 -21 167 2 139 -5 132 100 107z m1037 -997 c7 -73 10 -154 8
-181 l-3 -47 -39 97 -39 98 12 115 c7 63 16 119 19 125 12 19 30 -74 42 -207z"/>
</g>
</svg>
