<?xml version="1.0" standalone="no"?>
<!DOCTYPE svg PUBLIC "-//W3C//DTD SVG 20010904//EN"
 "http://www.w3.org/TR/2001/REC-SVG-20010904/DTD/svg10.dtd">
<svg version="1.0" xmlns="http://www.w3.org/2000/svg"
 width="480.000000pt" height="360.000000pt" viewBox="0 0 480.000000 360.000000"
 preserveAspectRatio="xMidYMid meet">
<metadata>
Created by potrace 1.16, written by Peter Selinger 2001-2019
</metadata>
<rect width="1" height="360" fill="#000000"/>
<rect x="479" width="1" height="360" fill="#000000"/>
<rect width="480" height="1" fill="#000000"/>
<rect y="359" width="480" height="1" fill="#000000"/>
<g transform="translate(0.000000,360.000000) scale(0.100000,-0.100000)"
fill="#000000" stroke="none">
<path d="M0 1800 l0 -1800 884 0 884 0 13 38 c6 20 16 43 21 49 6 7 9 54 7
105 -6 157 1 263 21 344 11 42 20 79 20 81 0 2 -14 9 -30 15 -17 5 -35 19 -41
29 -5 10 -16 19 -24 19 -28 0 -16 134 20 215 44 99 114 347 139 493 7 38 12
38 -124 11 -293 -57 -560 -82 -616 -57 -22 10 -42 44 -31 54 2 2 44 9 93 15
49 5 98 12 109 14 27 6 44 45 32 74 -14 31 2 45 36 32 33 -13 35 -38 3 -50
-13 -5 -26 -16 -29 -24 -9 -24 66 -19 233 14 85 17 157 33 159 35 2 2 -1 9 -7
16 -5 7 -12 26 -14 41 -3 26 -13 33 -118 77 -240 100 -275 118 -278 139 -6 38
26 35 126 -12 53 -25 140 -63 193 -85 l97 -39 25 25 c22 21 28 23 41 12 9 -7
16 -22 16 -33 0 -21 1 -20 26 5 l27 26 -77 103 c-42 56 -79 112 -82 124 -3 13
5 48 19 81 13 32 27 79 31 103 10 66 30 95 106 157 39 31 70 60 70 64 0 4 18
15 40 25 23 10 43 22 45 25 2 4 -10 20 -27 36 -20 19 -29 23 -25 12 11 -32
-13 -29 -33 4 l-20 33 -1 -40 c0 -22 -3 -33 -6 -25 -3 8 -14 22 -24 30 -25 21
-69 144 -69 195 0 44 52 158 94 203 59 66 176 99 245 69 34 -15 36 -14 85 23
90 67 194 108 242 96 22 -6 24 -10 18 -46 -5 -28 0 -58 16 -104 l23 -65 -43
-95 c-52 -116 -61 -126 -100 -103 -15 9 -31 17 -34 17 -3 0 -6 -20 -6 -44 0
-75 -12 -137 -25 -132 -7 2 -19 -4 -28 -15 -17 -19 -38 -26 -36 -11 1 4 1 14
0 22 -1 12 -4 11 -12 -3 -6 -9 -14 -15 -18 -12 -5 2 -8 -3 -7 -13 1 -17 28
-33 116 -70 82 -35 77 -36 103 22 41 89 121 132 161 87 10 -11 37 -57 60 -103
23 -46 53 -101 65 -123 13 -22 44 -75 68 -118 25 -43 70 -101 99 -129 30 -28
57 -61 60 -73 3 -11 15 -25 27 -30 28 -13 35 -60 11 -86 -12 -13 -14 -22 -7
-31 11 -13 39 -64 101 -178 52 -98 130 -217 189 -292 29 -37 53 -70 53 -73 0
-4 9 -19 21 -33 36 -47 229 -345 229 -354 0 -5 11 -24 25 -42 14 -18 25 -39
25 -47 0 -8 22 -37 49 -63 27 -27 47 -54 44 -61 -2 -7 0 -16 6 -20 6 -3 11
-15 11 -26 0 -10 5 -19 11 -19 5 0 17 -17 26 -37 8 -21 23 -43 33 -50 20 -14
50 -68 50 -89 0 -7 14 -22 30 -34 21 -15 29 -27 25 -40 -7 -22 7 -59 32 -85
23 -24 37 -68 20 -62 -7 2 -20 -7 -30 -20 -10 -13 -23 -23 -28 -23 -20 0 -55
50 -146 210 -26 47 -53 94 -60 105 -7 11 -18 31 -25 45 -7 14 -39 69 -70 123
-32 54 -58 101 -58 104 0 3 -15 31 -34 62 -19 31 -85 146 -147 256 -61 110
-132 236 -157 280 -25 44 -54 96 -64 115 -10 19 -24 44 -31 54 -6 11 -36 58
-66 105 -30 47 -58 88 -62 91 -5 3 -17 26 -28 51 -18 41 -24 46 -47 41 -31 -6
-44 10 -44 56 0 22 -5 32 -15 32 -9 0 -15 9 -15 25 0 15 -6 25 -14 25 -8 0
-16 6 -19 13 -3 7 -47 31 -98 52 -52 21 -118 54 -148 72 -36 24 -61 33 -76 29
-12 -3 -49 3 -80 14 -32 11 -59 19 -61 18 -3 -5 16 -292 20 -305 3 -6 -4 -19
-15 -29 -18 -16 -27 -73 -13 -86 4 -5 232 51 440 108 18 5 24 0 32 -28 19 -64
21 -78 7 -78 -8 0 -21 -7 -30 -16 -19 -19 -74 -33 -128 -34 -35 0 -256 -45
-264 -54 -8 -7 47 -141 62 -152 17 -12 250 -89 455 -149 69 -20 129 -41 134
-46 19 -17 -16 -39 -64 -39 -46 0 -212 42 -385 98 -49 16 -91 25 -93 21 -2 -4
15 -44 38 -89 65 -133 101 -294 81 -367 -6 -23 -16 -45 -21 -48 -6 -4 -17 -21
-24 -39 -11 -26 -54 -68 -94 -92 -2 -1 10 -41 27 -88 35 -98 51 -209 51 -346
0 -76 4 -104 20 -135 11 -22 20 -47 20 -57 0 -17 49 -18 1075 -18 l1075 0 0
1389 0 1389 -21 5 c-23 6 -17 27 7 27 12 0 14 58 14 395 l0 395 -533 0 -533 0
1 -42 c0 -24 -4 -62 -8 -84 l-8 -42 68 -23 c96 -32 194 -77 221 -101 42 -40
18 -118 -38 -118 -15 0 -61 -16 -101 -35 -62 -29 -84 -35 -142 -35 -85 0 -123
16 -190 78 -51 49 -53 50 -127 54 -48 3 -89 12 -115 25 -95 49 -185 182 -185
275 l0 48 -1555 0 -1555 0 0 -1800z m4185 1727 c0 -26 -20 -25 -23 2 -3 16 1
22 10 19 7 -3 13 -12 13 -21z m-1907 -289 c14 -14 16 -98 3 -98 -31 0 -61 70
-41 95 15 18 22 19 38 3z m1352 -368 c0 -25 -46 -74 -60 -65 -26 16 6 85 41
85 12 0 19 -7 19 -20z m-885 -160 c3 -5 -1 -10 -10 -10 -9 0 -13 5 -10 10 3 6
8 10 10 10 2 0 7 -4 10 -10z m-1080 -90 c20 -22 14 -50 -12 -50 -26 0 -48 37
-32 56 15 19 23 18 44 -6z m-889 -331 c12 -4 36 -29 54 -55 28 -41 30 -50 19
-70 -9 -18 -9 -29 1 -53 13 -32 7 -51 -16 -51 -18 0 -18 -9 1 -53 8 -20 15
-52 15 -72 0 -43 19 -83 71 -149 22 -27 39 -54 39 -61 0 -20 -36 -46 -74 -52
-19 -3 -40 -11 -44 -17 -5 -6 -2 -61 9 -132 20 -138 31 -187 61 -262 27 -68
16 -82 -40 -53 -23 12 -43 21 -46 21 -3 0 -8 -15 -12 -34 -7 -38 16 -80 49
-91 27 -10 20 -24 -15 -29 -18 -3 -73 -13 -123 -21 -49 -9 -155 -27 -235 -41
-174 -30 -433 -44 -445 -24 -12 20 18 36 81 44 31 3 70 14 87 23 19 10 70 20
127 24 100 7 190 17 228 25 18 4 22 11 22 40 0 35 -3 37 -52 48 -34 8 -34 17
-4 108 14 40 28 108 32 150 6 68 5 78 -10 84 -15 6 -16 16 -11 70 7 61 6 65
-24 99 -31 35 -40 68 -22 80 12 7 61 109 95 195 21 57 24 76 20 151 -6 109 4
134 58 159 41 18 54 18 104 -1z m3039 -339 c3 -5 -1 -10 -9 -10 -9 0 -16 5
-16 10 0 6 4 10 9 10 6 0 13 -4 16 -10z m-1305 -26 c0 -15 -64 -95 -82 -102
-13 -6 -9 47 7 78 8 15 20 30 27 33 27 11 48 7 48 -9z m2169 -848 c9 -10 9
-16 1 -21 -16 -10 -40 2 -40 20 0 19 24 20 39 1z m-734 -706 c3 -5 1 -10 -4
-10 -6 0 -11 5 -11 10 0 6 2 10 4 10 3 0 8 -4 11 -10z"/>
<path d="M660 1150 c0 -33 27 -53 63 -48 18 2 22 10 24 41 l2 37 -44 0 c-43 0
-45 -1 -45 -30z"/>
<path d="M2220 2415 c-11 -13 -11 -18 2 -32 24 -23 37 -12 23 20 -10 25 -13
27 -25 12z"/>
<path d="M2566 2327 c-43 -38 -47 -44 -32 -56 9 -8 28 -35 43 -61 15 -27 41
-56 57 -65 17 -10 71 -45 120 -78 l88 -59 -26 43 c-15 24 -34 58 -42 74 -26
55 -139 238 -149 241 -5 2 -32 -16 -59 -39z"/>
<path d="M2004 1996 c-4 -17 -12 -25 -20 -22 -17 6 -74 -22 -81 -41 -3 -8 -1
-24 5 -36 6 -12 23 -49 38 -82 l26 -60 28 60 c24 51 28 70 25 129 -4 75 -11
92 -21 52z"/>
<path d="M2000 1701 c16 -32 30 -34 30 -7 0 19 -5 26 -20 26 -17 0 -19 -3 -10
-19z"/>
<path d="M1810 1525 c-10 -12 -10 -15 1 -15 26 0 59 12 59 21 0 15 -47 10 -60
-6z"/>
<path d="M2290 575 c-31 -18 -102 -19 -118 -3 -10 10 -15 10 -22 -2 -10 -16
-76 -16 -96 1 -9 7 -20 5 -37 -6 -22 -14 -27 -29 -37 -103 -7 -48 -22 -150
-34 -227 -12 -77 -20 -161 -18 -187 l4 -48 278 0 277 0 6 50 c5 37 -3 89 -28
203 -19 83 -42 186 -51 227 -22 100 -29 113 -55 99 -13 -7 -24 -7 -32 -1 -8 7
-20 6 -37 -3z"/>
<path d="M3950 120 c0 -5 5 -10 11 -10 5 0 7 5 4 10 -3 6 -8 10 -11 10 -2 0
-4 -4 -4 -10z"/>
</g>
</svg>
