<?xml version="1.0" standalone="no"?>
<!DOCTYPE svg PUBLIC "-//W3C//DTD SVG 20010904//EN"
 "http://www.w3.org/TR/2001/REC-SVG-20010904/DTD/svg10.dtd">
<svg version="1.0" xmlns="http://www.w3.org/2000/svg"
 width="480.000000pt" height="360.000000pt" viewBox="0 0 480.000000 360.000000"
 preserveAspectRatio="xMidYMid meet">
<metadata>
Created by potrace 1.16, written by Peter Selinger 2001-2019
</metadata>
<rect width="1" height="360" fill="#000000"/>
<rect x="479" width="1" height="360" fill="#000000"/>
<rect width="480" height="1" fill="#000000"/>
<rect y="359" width="480" height="1" fill="#000000"/>
<g transform="translate(0.000000,360.000000) scale(0.100000,-0.100000)"
fill="#000000" stroke="none">
<path d="M1598 3568 c11 -56 7 -319 -7 -398 -25 -150 -130 -411 -199 -499 -15
-18 -31 -41 -37 -50 -38 -64 -272 -291 -301 -291 -6 0 -19 -9 -29 -20 -47 -52
-221 -127 -430 -186 -96 -27 -297 -37 -430 -20 -66 8 -130 18 -143 22 l-22 6
0 -1066 0 -1066 1320 0 1320 0 0 26 c0 80 56 323 111 484 68 200 99 314 129
485 11 66 34 188 51 272 21 105 27 158 21 170 -5 10 -15 58 -22 108 -6 49 -12
90 -13 91 -1 0 -17 6 -35 14 -82 32 -106 122 -57 214 13 25 20 46 14 46 -5 0
-53 -18 -105 -41 -53 -22 -103 -39 -112 -37 -10 2 -24 18 -32 35 -16 36 -31
41 -50 18 -18 -21 -27 -19 -34 10 -6 25 -8 25 -114 25 -83 0 -144 7 -258 31
-82 17 -183 34 -224 38 -41 3 -81 10 -88 14 -8 5 -23 2 -38 -7 -20 -14 -23
-20 -13 -37 15 -28 7 -33 -18 -9 -21 19 -21 19 -26 -2 -6 -20 -8 -20 -29 -6
-13 8 -24 25 -26 37 -2 11 -8 21 -13 21 -21 0 -6 40 26 68 44 39 106 49 200
33 39 -7 158 -20 265 -29 301 -24 340 -22 340 24 0 21 3 25 18 19 44 -19 60
-17 64 5 6 40 29 46 110 27 96 -23 144 -22 239 5 78 21 79 22 62 41 -17 19
-17 20 5 34 27 19 30 38 3 23 -34 -18 -46 -11 -100 56 -49 61 -52 67 -37 83
15 16 24 52 10 38 -4 -3 -19 0 -34 8 -15 8 -30 12 -32 10 -3 -3 -13 12 -24 32
-10 21 -22 40 -26 41 -15 7 -7 56 18 112 l26 58 -41 69 c-26 42 -41 78 -39 93
3 22 9 25 45 28 48 3 207 -28 296 -58 31 -11 67 -20 80 -20 39 -1 104 -37 155
-87 56 -54 85 -120 102 -230 7 -44 26 -98 53 -152 l42 -84 1 -136 c1 -75 2
-141 3 -147 1 -7 19 -34 41 -60 44 -54 48 -69 24 -103 -10 -14 -13 -26 -7 -30
16 -10 22 -52 11 -71 -9 -13 -4 -34 20 -92 30 -71 31 -82 37 -259 4 -101 13
-222 20 -269 8 -48 11 -114 8 -152 -4 -48 -2 -72 7 -83 7 -9 10 -18 7 -21 -11
-11 -37 5 -47 28 l-9 23 0 -22 c-1 -12 4 -34 9 -49 7 -17 7 -31 1 -38 -10 -12
44 -148 158 -392 59 -127 131 -324 131 -358 0 -15 41 -16 450 -16 l450 0 0
1800 0 1800 -1604 0 -1604 0 6 -32z"/>
</g>
</svg>
