<?xml version="1.0" standalone="no"?>
<!DOCTYPE svg PUBLIC "-//W3C//DTD SVG 20010904//EN"
 "http://www.w3.org/TR/2001/REC-SVG-20010904/DTD/svg10.dtd">
<svg version="1.0" xmlns="http://www.w3.org/2000/svg"
 width="480.000000pt" height="360.000000pt" viewBox="0 0 480.000000 360.000000"
 preserveAspectRatio="xMidYMid meet">
<metadata>
Created by potrace 1.16, written by Peter Selinger 2001-2019
</metadata>
<rect width="1" height="360" fill="#000000"/>
<rect x="479" width="1" height="360" fill="#000000"/>
<rect width="480" height="1" fill="#000000"/>
<rect y="359" width="480" height="1" fill="#000000"/>
<g transform="translate(0.000000,360.000000) scale(0.100000,-0.100000)"
fill="#000000" stroke="none">
<path d="M0 2130 l0 -1470 109 0 c86 0 110 3 114 14 11 29 10 317 -1 328 -8 8
0 33 28 87 21 43 44 82 52 87 7 6 31 12 53 13 22 2 47 9 56 17 8 8 20 14 26
14 15 0 22 131 9 153 -16 25 2 47 54 66 34 12 45 23 51 45 5 19 4 35 -3 43 -8
10 -6 22 8 48 19 35 44 47 44 21 0 -7 7 -19 15 -26 14 -12 14 -15 0 -30 -17
-18 -21 -80 -5 -80 6 0 10 -6 10 -14 0 -7 20 -19 46 -26 40 -11 45 -16 39 -34
-4 -12 -10 -55 -12 -97 -5 -76 -5 -76 21 -83 14 -3 26 -11 26 -16 0 -6 15 -10
33 -10 56 0 77 -19 109 -99 25 -65 27 -75 14 -90 -11 -12 -15 -51 -16 -169
l-1 -152 68 0 69 0 2 78 c2 59 9 88 28 127 46 89 116 196 128 192 6 -2 36 -46
66 -98 53 -92 55 -96 60 -189 l5 -95 100 -6 c55 -4 221 -7 369 -8 l268 -1 82
-80 c45 -44 86 -80 91 -80 4 0 5 103 2 229 l-7 229 56 86 c32 48 62 85 67 83
6 -2 35 -41 65 -88 l54 -84 -7 -482 -7 -483 1181 0 1181 0 0 1800 0 1800
-2400 0 -2400 0 0 -1470z m3138 763 c20 -25 22 -35 11 -68 -2 -5 7 -40 19 -76
l23 -66 107 -22 c129 -26 145 -37 111 -80 -13 -16 -29 -30 -36 -30 -19 -1 -22
-25 -5 -43 14 -17 13 -18 -16 -18 -47 0 -65 -9 -51 -27 10 -11 8 -15 -10 -20
-18 -4 -22 -11 -18 -29 2 -13 0 -24 -5 -24 -5 0 -19 -9 -31 -20 -17 -17 -21
-32 -22 -85 -1 -36 1 -64 4 -62 75 40 180 87 194 87 17 0 19 -5 14 -41 -3 -23
-17 -64 -31 -91 -14 -27 -26 -51 -26 -53 0 -2 30 -2 68 1 37 3 111 6 165 7
l98 2 -32 -26 -32 -26 24 -16 c13 -8 39 -18 57 -22 30 -6 46 -25 21 -25 -6 0
-9 -5 -7 -12 4 -12 107 -40 120 -32 5 3 8 1 8 -5 0 -6 -16 -13 -35 -17 -49 -9
-53 -22 -10 -39 31 -13 75 -48 75 -59 0 -2 -20 1 -45 7 -67 15 -78 -2 -32 -48
29 -29 32 -35 16 -35 -10 0 -19 -4 -19 -10 0 -5 5 -10 10 -10 6 0 10 -4 10
-10 0 -5 -13 -7 -30 -3 -37 7 -39 -4 -4 -17 14 -6 22 -15 19 -20 -4 -6 -11 -8
-16 -5 -5 3 -6 -1 -3 -9 3 -9 10 -16 14 -16 19 0 104 -43 93 -47 -7 -2 -21 1
-32 7 -14 7 -21 7 -21 0 0 -5 5 -10 10 -10 6 0 10 -4 10 -10 0 -5 -24 -1 -52
10 -67 25 -68 25 -55 -5 8 -16 23 -27 45 -31 62 -12 48 -27 -18 -19 -48 6 -61
4 -55 -5 4 -7 2 -16 -6 -21 -11 -7 -10 -11 6 -23 16 -12 17 -15 4 -16 -8 0
-24 7 -35 15 -18 13 -54 21 -54 11 0 -3 9 -21 21 -40 12 -20 19 -36 16 -36 -3
0 -27 18 -52 40 -52 45 -75 50 -76 18 -2 -39 -5 -52 -18 -86 l-14 -34 -12 29
c-7 15 -17 40 -23 55 -7 17 -22 30 -39 34 -15 4 -37 13 -48 20 -34 24 -43 18
-35 -26 13 -70 -45 -129 -99 -101 -28 16 -36 34 -51 123 -11 65 -17 79 -41 97
-16 12 -39 22 -51 24 -21 2 -26 -7 -51 -88 -34 -110 -39 -119 -64 -123 -30 -4
-61 41 -69 99 -4 31 -11 49 -20 49 -17 0 -34 31 -34 62 -1 20 -2 21 -11 6 -6
-12 -6 -24 0 -36 5 -10 6 -24 2 -31 -6 -9 -13 -4 -26 16 -20 30 -55 62 -68 63
-5 0 -11 -9 -14 -20 -3 -11 -11 -20 -18 -20 -15 0 -28 28 -19 42 3 5 -4 20
-16 33 -32 34 -25 79 13 83 20 2 34 13 45 34 28 51 60 85 107 113 25 14 45 33
45 43 1 9 7 28 14 41 9 16 11 34 6 50 -5 14 -11 38 -14 54 -5 19 -13 27 -29
27 -38 0 -44 12 -51 101 -6 82 -6 88 18 116 22 26 23 33 15 83 -17 99 -20 102
-113 95 -80 -6 -81 -6 -100 21 -19 27 -19 27 0 41 10 8 39 24 63 34 43 19 43
20 26 39 -20 22 -10 25 30 10 23 -9 32 -6 57 15 16 14 33 25 37 25 4 0 17 24
30 54 26 63 63 116 92 132 38 20 101 9 127 -23z"/>
<path d="M2858 1814 c-16 -8 -28 -19 -28 -25 0 -18 32 -5 48 19 17 26 16 26
-20 6z"/>
<path d="M3640 1591 c0 -5 14 -14 31 -20 39 -13 39 -13 39 -2 0 5 -14 14 -31
20 -39 13 -39 13 -39 2z"/>
</g>
</svg>
