<?xml version="1.0" standalone="no"?>
<!DOCTYPE svg PUBLIC "-//W3C//DTD SVG 20010904//EN"
 "http://www.w3.org/TR/2001/REC-SVG-20010904/DTD/svg10.dtd">
<svg version="1.0" xmlns="http://www.w3.org/2000/svg"
 width="480.000000pt" height="360.000000pt" viewBox="0 0 480.000000 360.000000"
 preserveAspectRatio="xMidYMid meet">
<metadata>
Created by potrace 1.16, written by Peter Selinger 2001-2019
</metadata>
<rect width="1" height="360" fill="#000000"/>
<rect x="479" width="1" height="360" fill="#000000"/>
<rect width="480" height="1" fill="#000000"/>
<rect y="359" width="480" height="1" fill="#000000"/>
<g transform="translate(0.000000,360.000000) scale(0.100000,-0.100000)"
fill="#000000" stroke="none">
<path d="M0 1800 l0 -1800 865 0 c827 0 865 1 865 18 0 20 0 21 130 417 124
379 147 440 190 510 l38 60 5 168 c7 196 2 238 -26 245 -20 5 -20 5 -1 19 19
14 19 15 -1 11 -11 -2 -25 -18 -33 -40 -13 -34 -12 -40 8 -82 30 -58 24 -116
-24 -261 -47 -141 -86 -211 -159 -291 -74 -81 -390 -334 -417 -334 -12 0 -26
12 -36 31 l-16 31 -26 -25 c-42 -38 -80 -60 -97 -53 -8 3 -27 0 -41 -6 -20 -9
-27 -9 -33 1 -5 8 -17 11 -30 6 -33 -10 -26 10 21 63 l43 47 -49 -43 c-79 -69
-83 -31 -5 55 37 41 79 111 79 134 0 11 -13 10 -85 -7 l-30 -7 23 25 c12 14
45 35 72 48 33 16 49 29 47 40 -1 10 75 98 188 217 154 162 193 209 208 249 9
27 35 78 56 114 33 54 37 68 28 87 -5 13 -16 23 -24 23 -7 0 -13 7 -13 15 0
20 -19 19 -43 -2 -20 -18 -20 -17 -14 17 3 19 8 43 12 53 6 13 2 17 -19 17
-32 0 -32 5 -1 46 14 18 25 40 25 48 0 9 13 18 36 22 45 8 90 46 103 87 12 36
51 251 51 279 0 10 -7 18 -15 18 -20 0 -19 21 5 104 11 38 18 71 16 73 -1 2
-18 -3 -37 -11 -22 -9 -40 -11 -50 -5 -22 11 -61 81 -78 139 -7 25 -17 55 -22
68 -5 13 -9 34 -9 47 0 13 -4 26 -9 29 -16 11 -19 71 -4 109 l15 37 89 0 c58
0 120 -7 173 -21 78 -19 86 -20 135 -5 42 12 63 13 102 5 45 -10 55 -8 102 14
68 31 136 52 220 67 60 11 70 11 86 -4 31 -28 39 -96 27 -211 -3 -27 -7 -63
-9 -80 -2 -16 -8 -40 -15 -52 -8 -14 -10 -44 -7 -80 3 -32 2 -52 -1 -45 -11
22 -22 12 -29 -25 -3 -21 -19 -67 -35 -103 l-28 -64 -5 34 c-2 19 -5 -25 -5
-98 l-2 -133 38 -15 c77 -30 125 -60 134 -84 6 -14 21 -49 35 -78 13 -29 29
-81 35 -115 5 -34 19 -77 29 -95 11 -19 24 -63 29 -100 5 -36 15 -69 22 -73
47 -27 305 -239 314 -258 7 -12 17 -28 23 -34 17 -17 13 -37 -7 -37 -11 0 -24
-12 -31 -27 -12 -25 -9 -29 49 -85 34 -32 68 -58 76 -58 41 0 -16 -42 -73 -55
-24 -5 -45 -1 -80 17 -38 19 -50 32 -67 70 -16 40 -22 45 -37 37 -44 -23 -81
-122 -94 -252 -4 -37 -11 -70 -16 -73 -5 -3 -23 5 -40 16 -16 12 -32 20 -35
18 -4 -5 49 -200 117 -430 l44 -148 928 0 927 0 0 1800 0 1800 -2400 0 -2400
0 0 -1800z"/>
</g>
</svg>
