<?xml version="1.0" standalone="no"?>
<!DOCTYPE svg PUBLIC "-//W3C//DTD SVG 20010904//EN"
 "http://www.w3.org/TR/2001/REC-SVG-20010904/DTD/svg10.dtd">
<svg version="1.0" xmlns="http://www.w3.org/2000/svg"
 width="480.000000pt" height="360.000000pt" viewBox="0 0 480.000000 360.000000"
 preserveAspectRatio="xMidYMid meet">
<metadata>
Created by potrace 1.16, written by Peter Selinger 2001-2019
</metadata>
<rect width="1" height="360" fill="#000000"/>
<rect x="479" width="1" height="360" fill="#000000"/>
<rect width="480" height="1" fill="#000000"/>
<rect y="359" width="480" height="1" fill="#000000"/>
<g transform="translate(0.000000,360.000000) scale(0.100000,-0.100000)"
fill="#000000" stroke="none">
<path d="M2570 3593 c-8 -3 -35 -25 -60 -48 -62 -59 -148 -117 -168 -113 -31
5 -42 -12 -42 -62 0 -40 -5 -54 -26 -73 -25 -23 -25 -25 -10 -54 8 -17 12 -33
9 -37 -3 -3 18 -31 47 -62 l52 -55 -6 -87 c-3 -48 -8 -132 -11 -186 -2 -55 -8
-102 -12 -106 -8 -7 -64 -17 -225 -41 -40 -6 -93 -15 -116 -20 -24 -5 -87 -16
-140 -24 -114 -16 -253 -39 -411 -65 l-114 -20 -42 39 c-44 40 -59 46 -162 56
-43 5 -63 3 -63 -4 0 -6 -16 -11 -36 -11 -27 0 -37 -5 -41 -20 -3 -10 -15 -22
-27 -25 -48 -14 -66 -28 -54 -42 9 -11 7 -18 -5 -31 -11 -10 -17 -12 -17 -4 0
7 -4 12 -10 12 -16 0 -11 -37 6 -44 13 -5 14 -9 4 -21 -18 -22 -3 -35 40 -35
30 0 45 -7 67 -30 15 -17 38 -30 50 -30 26 0 93 -55 93 -76 0 -8 -7 -14 -14
-14 -29 0 3 -56 77 -136 91 -98 152 -182 233 -320 29 -49 87 -89 146 -99 93
-17 268 62 460 208 26 20 43 26 61 22 36 -9 97 10 152 49 71 51 89 29 36 -44
-38 -53 -58 -140 -76 -337 -8 -88 -22 -200 -30 -247 -17 -99 -11 -123 44 -164
25 -18 29 -26 22 -45 -5 -13 -7 -34 -4 -48 2 -15 -9 -51 -30 -94 -56 -115 -78
-250 -107 -645 -6 -85 -15 -191 -21 -234 -5 -44 -9 -90 -9 -103 l0 -23 831 0
830 0 -28 37 c-15 21 -74 86 -131 145 -134 137 -202 229 -294 397 -40 74 -75
140 -77 145 -6 19 -52 119 -91 197 -50 100 -78 144 -133 204 -33 36 -47 61
-52 91 -7 51 0 72 37 104 27 23 30 32 38 120 5 52 18 131 29 175 11 44 21 105
21 136 0 60 26 134 57 161 10 9 36 25 58 36 28 14 50 37 74 76 l33 56 -1 128
c-2 163 -7 181 -53 197 -38 13 -68 36 -68 54 0 5 16 45 36 88 20 43 47 105 59
138 l23 60 123 22 c159 27 430 70 494 78 129 17 143 39 64 106 l-51 43 -57
-13 c-31 -7 -83 -19 -116 -26 -83 -18 -404 -82 -434 -87 -23 -3 -27 4 -58 95
l-33 99 28 36 c16 21 27 43 25 50 -3 6 9 35 27 63 36 59 35 71 -4 32 l-27 -27
11 30 c6 16 11 30 11 31 0 2 6 18 14 37 19 45 19 44 -7 48 -16 2 -30 18 -46
51 -17 38 -26 47 -41 42 -12 -4 -25 4 -42 27 -36 48 -59 69 -68 63 -5 -2 -15
2 -22 11 -28 34 -78 44 -214 44 -106 0 -135 -3 -145 -15 -7 -8 -20 -15 -30
-15 -10 0 -23 7 -30 15 -12 15 -51 19 -80 8z m1288 -696 c-3 -22 -18 -26 -408
-92 -174 -30 -170 -30 -170 -7 0 17 28 24 213 61 116 23 239 48 272 55 73 15
97 11 93 -17z m-1508 -252 c0 -14 -67 -35 -160 -50 -58 -9 -139 -22 -180 -30
-41 -7 -113 -19 -160 -25 -47 -6 -113 -18 -147 -26 -34 -8 -74 -14 -88 -14
-14 0 -24 -4 -21 -8 3 -5 -36 -14 -87 -21 -108 -15 -111 -15 -114 -4 -2 5 27
15 64 22 38 7 100 19 138 26 188 36 722 132 743 134 6 1 12 -1 12 -4z m-47
-147 c14 -66 14 -68 -7 -74 -11 -4 -53 -8 -92 -8 -75 -1 -99 -12 -114 -52 -6
-15 -23 -25 -57 -33 -78 -20 -131 -56 -144 -99 -8 -29 -27 -49 -85 -92 -41
-30 -84 -65 -96 -77 -12 -13 -27 -23 -34 -23 -23 0 -80 87 -149 225 -53 107
-72 136 -93 143 -20 7 -23 11 -12 16 8 3 159 31 335 62 176 30 365 64 420 74
55 9 103 15 107 11 4 -3 14 -37 21 -73z"/>
<path d="M61 3239 c-5 -13 -21 -35 -35 -48 l-26 -24 0 -1584 0 -1583 216 0
216 0 -6 28 c-3 15 -10 72 -17 126 -6 55 -30 177 -54 271 -24 94 -55 243 -70
331 -33 206 -56 279 -109 357 -32 46 -42 71 -39 89 4 18 -2 29 -21 42 -14 9
-26 21 -26 26 0 5 25 17 55 25 30 9 55 20 55 25 0 4 -21 59 -46 122 -55 134
-68 229 -40 288 34 70 56 104 90 139 19 20 42 52 50 71 8 19 26 46 40 59 31
30 33 55 5 74 -22 16 -12 31 11 16 26 -16 31 -10 14 17 l-17 26 38 -16 c51
-22 51 -21 17 18 -22 25 -29 41 -25 57 6 22 6 22 30 -6 13 -15 27 -25 30 -21
10 9 -18 68 -64 132 -54 77 -70 123 -74 211 -3 64 -1 74 25 111 15 23 44 53
63 68 l35 26 -32 29 c-17 16 -38 29 -45 29 -38 0 -107 68 -142 140 -3 8 -26
45 -50 82 -23 37 -38 70 -33 73 23 14 29 42 14 70 -12 23 -12 35 -3 63 9 28 9
37 -4 50 -15 14 -17 13 -26 -9z"/>
</g>
</svg>
