<?xml version="1.0" standalone="no"?>
<!DOCTYPE svg PUBLIC "-//W3C//DTD SVG 20010904//EN"
 "http://www.w3.org/TR/2001/REC-SVG-20010904/DTD/svg10.dtd">
<svg version="1.0" xmlns="http://www.w3.org/2000/svg"
 width="480.000000pt" height="360.000000pt" viewBox="0 0 480.000000 360.000000"
 preserveAspectRatio="xMidYMid meet">
<metadata>
Created by potrace 1.16, written by Peter Selinger 2001-2019
</metadata>
<rect width="1" height="360" fill="#000000"/>
<rect x="479" width="1" height="360" fill="#000000"/>
<rect width="480" height="1" fill="#000000"/>
<rect y="359" width="480" height="1" fill="#000000"/>
<g transform="translate(0.000000,360.000000) scale(0.100000,-0.100000)"
fill="#000000" stroke="none">
<path d="M0 1800 l0 -1800 1013 0 1013 0 28 57 c26 54 82 308 101 463 12 100
-11 353 -46 490 -27 109 -30 138 -27 225 4 88 8 107 36 162 18 34 32 75 32 90
0 16 17 57 38 93 37 64 44 104 27 144 -7 15 1 27 36 58 24 21 60 50 80 64 33
22 37 31 48 94 14 89 14 100 -4 100 -8 0 -24 15 -35 33 -25 42 -41 64 -62 89
-10 12 -18 27 -18 34 0 7 -12 25 -27 38 l-27 25 27 29 c26 27 26 29 10 52 -17
24 -17 24 -23 3 -8 -31 -46 -12 -67 34 -23 50 -23 50 -32 34 -6 -9 -11 5 -16
40 -7 47 -9 51 -20 35 -12 -16 -14 -15 -17 11 -8 63 69 230 137 298 90 90 256
149 420 149 131 -1 188 -22 278 -105 80 -73 99 -103 138 -216 48 -140 57 -225
54 -523 -2 -205 1 -309 16 -460 23 -231 42 -571 34 -620 -2 -19 2 -107 9 -195
15 -163 15 -661 0 -772 l-7 -53 827 0 826 0 0 1800 0 1800 -2400 0 -2400 0 0
-1800z"/>
</g>
</svg>
