<?xml version="1.0" standalone="no"?>
<!DOCTYPE svg PUBLIC "-//W3C//DTD SVG 20010904//EN"
 "http://www.w3.org/TR/2001/REC-SVG-20010904/DTD/svg10.dtd">
<svg version="1.0" xmlns="http://www.w3.org/2000/svg"
 width="480.000000pt" height="360.000000pt" viewBox="0 0 480.000000 360.000000"
 preserveAspectRatio="xMidYMid meet">
<metadata>
Created by potrace 1.16, written by Peter Selinger 2001-2019
</metadata>
<rect width="1" height="360" fill="#000000"/>
<rect x="479" width="1" height="360" fill="#000000"/>
<rect width="480" height="1" fill="#000000"/>
<rect y="359" width="480" height="1" fill="#000000"/>
<g transform="translate(0.000000,360.000000) scale(0.100000,-0.100000)"
fill="#000000" stroke="none">
<path d="M0 3503 c0 -55 4 -93 9 -87 4 5 26 34 49 64 22 30 53 70 67 88 l26
32 -75 0 -76 0 0 -97z"/>
<path d="M4605 3563 c9 -20 19 -41 24 -47 29 -38 106 -337 122 -479 24 -208
-20 -473 -117 -707 -26 -64 -111 -210 -150 -258 -15 -18 -40 -52 -55 -75 -38
-58 -179 -192 -268 -256 -94 -67 -257 -151 -369 -190 -254 -88 -536 -98 -817
-30 -175 43 -404 151 -509 239 -11 10 -46 39 -76 65 -197 167 -476 291 -736
325 -127 17 -383 8 -499 -18 -112 -25 -264 -76 -330 -109 -27 -14 -63 -33 -80
-41 -96 -49 -274 -191 -345 -277 -19 -22 -53 -60 -76 -85 -89 -96 -239 -401
-273 -555 -6 -27 -15 -72 -22 -100 -17 -79 -24 -351 -10 -431 31 -179 71 -318
127 -450 l36 -84 2232 0 c2114 0 2232 1 2243 17 6 10 41 58 77 108 l66 90 0
1593 0 1592 -72 100 c-66 93 -74 100 -105 100 l-33 0 15 -37z m-3036 -2458
c71 -18 150 -73 200 -138 91 -120 77 -303 -35 -426 -59 -66 -122 -93 -230 -99
-88 -4 -93 -3 -152 28 -126 67 -202 184 -202 310 0 71 20 125 74 203 32 46 54
64 101 88 96 47 162 56 244 34z"/>
<path d="M3196 3179 c-98 -24 -195 -108 -247 -214 -33 -69 -39 -194 -13 -277
34 -105 131 -206 242 -252 65 -27 188 -27 265 -1 127 43 232 180 246 320 12
132 -26 232 -124 323 -84 77 -149 106 -250 109 -44 1 -98 -2 -119 -8z"/>
<path d="M0 107 l0 -107 81 0 81 0 -39 48 c-22 26 -58 74 -81 106 l-42 59 0
-106z"/>
</g>
</svg>
