<?xml version="1.0" standalone="no"?>
<!DOCTYPE svg PUBLIC "-//W3C//DTD SVG 20010904//EN"
 "http://www.w3.org/TR/2001/REC-SVG-20010904/DTD/svg10.dtd">
<svg version="1.0" xmlns="http://www.w3.org/2000/svg"
 width="480.000000pt" height="360.000000pt" viewBox="0 0 480.000000 360.000000"
 preserveAspectRatio="xMidYMid meet">
<metadata>
Created by potrace 1.16, written by Peter Selinger 2001-2019
</metadata>
<rect width="1" height="360" fill="#000000"/>
<rect x="479" width="1" height="360" fill="#000000"/>
<rect width="480" height="1" fill="#000000"/>
<rect y="359" width="480" height="1" fill="#000000"/>
<g transform="translate(0.000000,360.000000) scale(0.100000,-0.100000)"
fill="#000000" stroke="none">
<path d="M2835 3481 c-8 -14 12 -41 29 -41 19 0 106 -58 106 -71 0 -8 -18 -9
-58 -4 -76 9 -226 -17 -303 -51 -88 -40 -135 -97 -168 -209 -17 -59 -18 -60
-52 -57 -24 2 -49 -6 -88 -30 -72 -44 -79 -56 -57 -103 17 -35 17 -40 2 -71
-8 -19 -21 -34 -27 -34 -6 0 -1 -12 10 -26 12 -15 25 -43 31 -64 9 -33 20 -43
90 -84 l80 -46 0 -81 c0 -70 -25 -288 -35 -297 -8 -8 -115 31 -109 40 4 6 1 8
-7 5 -8 -3 -45 -15 -83 -27 -38 -12 -81 -30 -95 -41 -14 -10 -83 -37 -153 -59
l-127 -41 -64 15 c-35 8 -183 35 -328 60 -249 42 -270 44 -364 35 -55 -5 -120
-14 -143 -19 -24 -6 -49 -7 -55 -2 -7 4 -29 14 -51 21 -31 11 -40 11 -46 1
-14 -23 11 -70 57 -108 49 -41 90 -58 164 -68 27 -4 52 -10 54 -14 3 -4 -11
-57 -31 -116 -41 -125 -78 -274 -70 -281 3 -3 100 15 215 40 341 76 434 90
521 81 124 -13 191 -3 394 61 61 20 115 35 121 35 5 0 11 -14 13 -32 2 -18 8
-38 14 -45 6 -7 7 -29 3 -53 -10 -58 2 -113 37 -164 33 -50 32 -90 -1 -120
-10 -9 -37 -58 -60 -109 -63 -137 -84 -177 -103 -194 -22 -19 -23 -43 -4 -43
19 0 62 56 77 98 11 33 27 40 46 21 8 -8 5 -24 -9 -60 -20 -49 -21 -50 -2 -63
26 -19 31 -14 45 49 12 53 13 55 46 55 20 0 41 8 53 20 18 18 19 32 17 141
l-2 121 30 24 c17 13 34 24 39 24 9 0 4 -148 -15 -435 -19 -292 -115 -763
-214 -1052 -3 -10 122 -13 606 -13 l611 0 -6 58 c-3 31 -13 179 -22 327 -17
295 -31 407 -71 560 -24 86 -27 120 -28 248 0 81 1 147 2 147 1 0 7 -27 14
-60 6 -33 16 -60 20 -60 5 0 9 6 10 13 0 6 7 -10 14 -36 33 -120 33 -47 0 151
-6 31 -5 32 32 32 56 0 109 41 139 107 21 47 17 86 -16 192 -24 75 -27 97 -18
115 6 11 56 88 110 169 54 81 96 152 93 157 -3 5 -93 69 -200 142 l-195 132 0
57 c0 32 -5 104 -11 159 -10 95 -10 105 12 165 18 53 20 67 10 79 -17 20 -6
106 13 106 20 0 40 27 26 35 -19 12 -10 32 20 41 30 9 30 10 14 32 -8 12 -39
36 -68 52 -31 18 -66 49 -85 75 -18 25 -57 64 -86 86 -29 22 -56 51 -59 64 -9
37 -54 84 -107 111 -58 29 -133 42 -144 25z m-252 -1214 c-12 -20 -23 10 -22
61 l1 57 13 -55 c7 -30 11 -58 8 -63z"/>
<path d="M3335 1190 c3 -5 8 -10 11 -10 2 0 4 5 4 10 0 6 -5 10 -11 10 -5 0
-7 -4 -4 -10z"/>
</g>
</svg>
