<?xml version="1.0" standalone="no"?>
<!DOCTYPE svg PUBLIC "-//W3C//DTD SVG 20010904//EN"
 "http://www.w3.org/TR/2001/REC-SVG-20010904/DTD/svg10.dtd">
<svg version="1.0" xmlns="http://www.w3.org/2000/svg"
 width="480.000000pt" height="360.000000pt" viewBox="0 0 480.000000 360.000000"
 preserveAspectRatio="xMidYMid meet">
<metadata>
Created by potrace 1.16, written by Peter Selinger 2001-2019
</metadata>
<rect width="1" height="360" fill="#000000"/>
<rect x="479" width="1" height="360" fill="#000000"/>
<rect width="480" height="1" fill="#000000"/>
<rect y="359" width="480" height="1" fill="#000000"/>
<g transform="translate(0.000000,360.000000) scale(0.100000,-0.100000)"
fill="#000000" stroke="none">
<path d="M2868 3319 c-10 -5 -18 -19 -18 -30 0 -49 -175 -326 -242 -383 -40
-35 -48 -65 -23 -86 12 -10 21 -10 41 -1 32 14 34 14 34 -2 0 -8 -9 -22 -19
-31 -26 -23 -166 -77 -221 -85 l-45 -6 -3 -45 c-3 -65 6 -74 75 -73 58 2 58 1
93 -44 41 -54 42 -56 66 -110 18 -39 44 -65 44 -43 0 19 17 10 28 -15 6 -14
18 -25 26 -25 15 0 26 -21 26 -49 0 -10 -12 -28 -26 -42 l-25 -24 24 -20 c25
-20 25 -21 16 -125 -8 -90 -12 -108 -31 -123 -16 -13 -31 -17 -57 -12 -20 3
-110 10 -200 15 -90 6 -200 17 -245 24 -170 30 -292 39 -456 33 -146 -4 -166
-7 -180 -24 -9 -12 -34 -22 -64 -26 -68 -10 -122 -39 -227 -124 -50 -40 -120
-89 -155 -108 -82 -46 -101 -73 -83 -115 14 -30 27 -37 45 -21 8 8 101 45 241
97 35 12 92 39 129 60 50 28 68 34 77 25 13 -13 14 -50 8 -356 -1 -104 1 -189
6 -188 4 1 67 40 138 88 139 93 214 134 310 170 58 22 68 23 340 18 154 -3
282 -7 284 -9 6 -6 -98 -314 -155 -457 -19 -48 -33 -91 -29 -96 3 -5 35 -21
73 -35 37 -15 73 -30 80 -34 21 -14 1 -46 -63 -97 -33 -27 -78 -66 -100 -88
-22 -21 -50 -43 -63 -48 -30 -11 -40 -39 -19 -51 9 -4 14 -15 11 -23 -15 -37
37 -5 118 73 l56 55 35 -34 35 -34 -18 -70 c-17 -68 -17 -70 1 -87 11 -9 15
-18 9 -20 -10 -3 -26 -171 -33 -350 l-5 -108 504 0 c346 0 504 3 504 11 0 18
-31 152 -47 202 -14 46 -14 50 15 130 16 45 35 107 42 137 7 30 21 71 31 90
11 20 22 65 26 100 4 41 17 84 35 118 31 59 37 140 17 217 -6 22 -14 90 -19
150 -9 122 -6 131 67 222 41 52 36 66 -34 103 -69 36 -69 18 2 480 8 52 18
132 22 178 l6 83 36 15 c20 8 44 13 55 10 21 -5 56 13 56 31 0 6 -19 26 -41
44 -23 18 -56 53 -74 78 l-33 45 33 66 c84 166 62 264 -103 458 -57 67 -150
137 -230 174 -154 70 -354 99 -452 65 -24 -9 -45 -15 -47 -14 -1 2 5 24 15 49
16 44 15 48 -2 67 -22 24 -24 24 -48 10z"/>
</g>
</svg>
