<?xml version="1.0" standalone="no"?>
<!DOCTYPE svg PUBLIC "-//W3C//DTD SVG 20010904//EN"
 "http://www.w3.org/TR/2001/REC-SVG-20010904/DTD/svg10.dtd">
<svg version="1.0" xmlns="http://www.w3.org/2000/svg"
 width="480.000000pt" height="360.000000pt" viewBox="0 0 480.000000 360.000000"
 preserveAspectRatio="xMidYMid meet">
<metadata>
Created by potrace 1.16, written by Peter Selinger 2001-2019
</metadata>
<rect width="1" height="360" fill="#000000"/>
<rect x="479" width="1" height="360" fill="#000000"/>
<rect width="480" height="1" fill="#000000"/>
<rect y="359" width="480" height="1" fill="#000000"/>
<g transform="translate(0.000000,360.000000) scale(0.100000,-0.100000)"
fill="#000000" stroke="none">
<path d="M2730 3586 c0 -34 57 -150 102 -207 l28 -37 -88 -27 c-309 -95 -541
-343 -601 -641 -15 -75 -49 -155 -79 -186 -21 -23 -23 -28 -8 -28 9 0 28 11
42 25 14 14 28 25 31 25 3 0 3 -23 -1 -51 -5 -34 -4 -49 4 -44 6 4 10 -20 10
-72 1 -72 2 -76 15 -53 13 24 14 24 20 5 4 -11 13 -36 20 -55 l14 -35 1 30 c1
29 1 29 24 -15 14 -27 30 -44 39 -44 9 1 19 -7 22 -17 4 -11 11 -19 16 -19 6
0 7 5 4 10 -3 6 -1 10 5 10 6 0 16 -11 22 -25 6 -14 17 -25 25 -25 7 0 13 -4
13 -9 0 -5 7 -12 16 -15 12 -5 14 -1 9 17 -4 16 -1 14 12 -8 l17 -30 7 30 c6
28 7 27 8 -12 1 -54 -13 -90 -51 -129 -40 -42 -34 -63 27 -94 43 -23 51 -31
60 -70 11 -45 21 -55 68 -65 23 -5 26 -9 21 -29 -4 -19 1 -31 25 -52 17 -15
45 -48 61 -74 24 -38 30 -57 30 -104 0 -32 -4 -66 -10 -76 -11 -21 9 -34 36
-23 14 5 16 1 10 -30 -4 -20 -2 -44 3 -54 5 -10 21 -76 36 -148 l25 -130 -37
-33 c-21 -19 -54 -47 -75 -63 l-36 -29 -32 54 c-17 31 -51 76 -75 101 -25 25
-52 60 -61 78 -9 17 -33 55 -54 82 -37 50 -37 50 -32 131 11 203 -62 369 -174
390 -36 7 -186 -1 -229 -12 -21 -5 -24 -1 -30 46 -10 70 -31 61 -28 -11 l3
-55 -90 -33 c-50 -18 -93 -38 -96 -43 -3 -5 -23 -19 -43 -33 -31 -19 -40 -33
-50 -72 -7 -26 -19 -74 -28 -105 -15 -55 -15 -61 5 -125 11 -37 23 -86 27
-108 11 -65 38 -115 108 -196 52 -61 77 -81 121 -100 31 -12 56 -27 56 -31 0
-5 -11 -30 -24 -56 -59 -118 -84 -236 -92 -442 -4 -90 -13 -173 -25 -219 -10
-41 -19 -85 -19 -98 l0 -23 328 0 327 0 47 98 c26 53 65 121 86 149 l39 52 -5
-149 -5 -150 901 0 c495 0 903 4 906 9 3 4 27 16 53 26 55 20 163 86 163 99 0
4 -16 5 -35 2 -19 -4 -35 -3 -35 2 0 5 16 30 35 55 19 25 35 49 35 53 0 3 -26
3 -57 -1 -51 -6 -69 -15 -151 -77 -87 -65 -161 -107 -188 -108 -13 0 -99 173
-115 233 -6 23 -15 47 -20 53 -5 6 -7 18 -4 26 7 18 -72 345 -91 375 -8 12
-11 28 -9 36 3 7 -1 30 -10 50 -9 22 -11 37 -5 37 5 0 10 8 10 18 1 15 2 14
12 -3 16 -29 18 -31 27 -17 6 9 12 3 21 -20 20 -51 90 -192 101 -203 13 -14 3
147 -15 224 -8 35 -18 94 -21 130 l-6 66 31 -55 c37 -66 56 -86 46 -50 -63
222 -68 249 -72 360 -3 93 -1 108 7 80 28 -89 85 -231 117 -290 49 -89 114
-192 118 -187 2 2 -14 58 -35 124 -34 105 -64 248 -48 233 2 -3 36 -52 75
-110 38 -58 80 -114 92 -125 l23 -20 -6 20 c-25 80 -51 254 -68 450 -42 496
-51 584 -75 715 -54 290 -116 492 -219 710 -36 74 -69 155 -76 180 -30 122
-169 301 -275 355 -50 25 -71 30 -134 30 -41 0 -87 -3 -101 -7 -24 -7 -32 -1
-80 57 l-54 65 -332 0 c-276 0 -333 -2 -333 -14z m330 -2118 c0 -4 -9 -12 -20
-18 -19 -10 -20 -8 -20 32 l0 43 20 -25 c11 -14 20 -28 20 -32z"/>
</g>
</svg>
