<?xml version="1.0" standalone="no"?>
<!DOCTYPE svg PUBLIC "-//W3C//DTD SVG 20010904//EN"
 "http://www.w3.org/TR/2001/REC-SVG-20010904/DTD/svg10.dtd">
<svg version="1.0" xmlns="http://www.w3.org/2000/svg"
 width="480.000000pt" height="360.000000pt" viewBox="0 0 480.000000 360.000000"
 preserveAspectRatio="xMidYMid meet">
<metadata>
Created by potrace 1.16, written by Peter Selinger 2001-2019
</metadata>
<rect width="1" height="360" fill="#000000"/>
<rect x="479" width="1" height="360" fill="#000000"/>
<rect width="480" height="1" fill="#000000"/>
<rect y="359" width="480" height="1" fill="#000000"/>
<g transform="translate(0.000000,360.000000) scale(0.100000,-0.100000)"
fill="#000000" stroke="none">
<path d="M4400 3579 c6 -11 59 -69 116 -129 105 -108 105 -109 91 -137 -8 -15
-17 -41 -21 -57 -6 -24 -4 -28 10 -22 15 6 16 0 10 -48 -5 -47 -4 -55 9 -50
10 4 15 0 15 -12 1 -50 70 -156 143 -223 l26 -24 1 362 0 361 -205 0 c-205 0
-206 0 -195 -21z"/>
<path d="M1831 3226 c-20 -24 6 -58 80 -106 69 -45 118 -79 161 -113 19 -14
15 -13 -17 3 -22 11 -43 20 -48 20 -4 0 -26 11 -48 26 -51 32 -196 47 -217 22
-10 -13 -7 -21 22 -46 l35 -31 -27 -3 c-24 -3 -20 -7 38 -36 l65 -33 -55 5
c-30 3 -50 3 -43 0 7 -3 10 -18 6 -38 -4 -27 -1 -37 18 -51 15 -11 17 -15 7
-12 -35 12 -18 -18 20 -35 l37 -16 -30 -1 -30 -2 37 -19 c34 -18 36 -23 31
-53 -6 -38 15 -67 48 -67 10 0 19 -4 19 -10 0 -5 -11 -10 -25 -10 -14 0 -25
-4 -25 -10 0 -5 3 -10 7 -10 36 0 179 -36 218 -56 60 -29 125 -80 125 -98 0
-26 106 -113 185 -150 109 -52 162 -90 167 -120 3 -14 1 -29 -3 -33 -5 -5 -10
-24 -11 -42 -3 -39 -25 -29 187 -90 178 -51 277 -82 293 -91 20 -11 49 -23
209 -89 68 -28 125 -51 127 -51 3 0 53 -23 113 -51 102 -49 204 -79 265 -79
32 0 33 -2 14 -38 -8 -16 -22 -57 -31 -92 -9 -35 -29 -80 -45 -100 -15 -19
-33 -53 -39 -75 -6 -22 -20 -53 -31 -70 -22 -34 -25 -72 -7 -96 15 -20 174
-125 211 -138 27 -11 33 -25 16 -36 -5 -3 -10 -32 -10 -64 0 -51 3 -59 21 -64
19 -5 20 -12 17 -84 l-3 -78 59 -32 c66 -35 142 -48 321 -58 146 -8 155 -14
155 -105 0 -67 1 -70 30 -85 16 -8 42 -15 59 -15 35 0 212 -27 259 -39 l32 -9
-2 516 -3 517 -162 30 c-89 17 -164 33 -166 35 -2 3 -8 23 -11 44 l-7 39 103
-7 c57 -3 136 -9 176 -13 l72 -6 -2 344 -3 344 -60 17 c-33 9 -81 17 -107 17
-42 1 -53 -4 -88 -35 l-40 -36 -128 10 c-70 6 -167 14 -217 17 -125 8 -235 25
-265 40 -14 7 -156 57 -315 110 -280 94 -661 233 -717 261 -36 19 -44 18 -69
-7 l-21 -21 -41 28 c-23 15 -69 53 -102 84 -33 31 -117 103 -187 160 -71 56
-128 106 -128 110 0 4 -28 26 -62 49 -35 22 -101 68 -148 102 -138 99 -241
139 -269 105z"/>
</g>
</svg>
