<?xml version="1.0" standalone="no"?>
<!DOCTYPE svg PUBLIC "-//W3C//DTD SVG 20010904//EN"
 "http://www.w3.org/TR/2001/REC-SVG-20010904/DTD/svg10.dtd">
<svg version="1.0" xmlns="http://www.w3.org/2000/svg"
 width="480.000000pt" height="360.000000pt" viewBox="0 0 480.000000 360.000000"
 preserveAspectRatio="xMidYMid meet">
<metadata>
Created by potrace 1.16, written by Peter Selinger 2001-2019
</metadata>
<rect width="1" height="360" fill="#000000"/>
<rect x="479" width="1" height="360" fill="#000000"/>
<rect width="480" height="1" fill="#000000"/>
<rect y="359" width="480" height="1" fill="#000000"/>
<g transform="translate(0.000000,360.000000) scale(0.100000,-0.100000)"
fill="#000000" stroke="none">
<path d="M0 1800 l0 -1800 889 0 889 0 6 22 c4 13 22 85 41 160 20 76 60 214
90 307 30 92 55 173 55 178 0 5 -12 15 -26 22 -22 10 -30 9 -43 -3 -23 -21
-109 -26 -127 -9 -40 40 -28 118 26 177 22 24 37 45 34 49 -3 3 27 78 66 167
90 206 139 353 149 455 5 44 7 83 5 87 -4 7 10 79 22 114 6 17 4 16 -18 -4
-40 -37 -41 -9 -1 37 34 40 36 48 50 158 8 64 13 139 11 167 -3 45 -5 51 -24
49 -12 -1 -31 8 -43 20 -23 25 -101 223 -101 256 0 11 11 28 25 37 22 14 43
16 143 10 64 -4 128 -6 142 -5 14 0 72 2 130 4 58 1 128 9 157 18 28 8 87 19
131 22 74 7 80 6 94 -14 20 -28 15 -71 -19 -181 -26 -84 -54 -130 -79 -130
-21 0 -23 -14 -12 -58 11 -42 4 -97 -11 -88 -20 13 -29 -45 -23 -153 5 -110 6
-113 33 -134 19 -13 29 -30 29 -46 0 -45 18 -254 27 -311 6 -39 35 -104 98
-225 50 -94 89 -178 88 -188 -2 -9 12 -37 31 -62 42 -54 54 -111 32 -153 -18
-35 -35 -49 -45 -36 -3 5 -21 10 -40 10 -23 1 -41 9 -53 24 -24 30 -23 50 2
43 28 -8 26 27 -3 55 -31 29 -37 28 -37 -11 0 -17 -4 -46 -9 -64 -8 -27 1 -64
55 -230 35 -109 75 -252 89 -318 14 -66 32 -144 41 -172 l16 -53 909 0 909 0
0 1800 0 1800 -2400 0 -2400 0 0 -1800z"/>
<path d="M1880 740 c0 -11 5 -20 10 -20 6 0 10 9 10 20 0 11 -4 20 -10 20 -5
0 -10 -9 -10 -20z"/>
</g>
</svg>
