<?xml version="1.0" standalone="no"?>
<!DOCTYPE svg PUBLIC "-//W3C//DTD SVG 20010904//EN"
 "http://www.w3.org/TR/2001/REC-SVG-20010904/DTD/svg10.dtd">
<svg version="1.0" xmlns="http://www.w3.org/2000/svg"
 width="480.000000pt" height="360.000000pt" viewBox="0 0 480.000000 360.000000"
 preserveAspectRatio="xMidYMid meet">
<metadata>
Created by potrace 1.16, written by Peter Selinger 2001-2019
</metadata>
<rect width="1" height="360" fill="#000000"/>
<rect x="479" width="1" height="360" fill="#000000"/>
<rect width="480" height="1" fill="#000000"/>
<rect y="359" width="480" height="1" fill="#000000"/>
<g transform="translate(0.000000,360.000000) scale(0.100000,-0.100000)"
fill="#000000" stroke="none">
<path d="M0 3261 l0 -340 30 10 c49 18 58 4 13 -20 l-43 -21 0 -1445 0 -1445
653 1 c402 0 643 4 629 9 -24 10 -37 38 -53 112 -15 66 -54 102 -174 158 -73
34 -109 57 -131 84 -24 31 -42 41 -94 54 -57 16 -65 20 -72 48 -4 18 -18 35
-33 42 -14 6 -25 16 -25 22 0 12 78 70 94 70 6 0 17 4 24 9 12 7 12 12 0 30
-11 18 -11 25 2 49 23 41 98 75 290 132 398 117 460 143 598 248 84 64 277
245 322 302 l30 38 -25 39 c-39 60 -43 63 -90 63 -47 0 -56 9 -29 30 8 8 26
32 39 54 23 40 24 44 14 145 -10 93 -15 110 -48 165 -68 112 -76 165 -36 247
25 52 25 75 -1 65 -7 -3 -17 2 -22 11 -6 9 -12 12 -16 5 -11 -18 -56 10 -56
36 0 19 -3 21 -19 13 -29 -16 -35 25 -10 66 21 34 16 46 -7 16 -13 -17 -13
-17 -14 1 0 20 0 20 -15 0 -14 -19 -14 -19 -15 1 0 11 15 43 34 71 27 41 86
164 86 181 0 2 -6 3 -14 3 -8 0 -16 6 -19 13 -3 9 -12 8 -35 -6 -28 -16 -35
-16 -65 -4 -22 10 -43 31 -61 61 -30 52 -36 54 -54 26 -27 -44 -60 -15 -77 67
-4 22 0 44 16 75 172 340 530 576 961 632 59 8 111 17 115 19 13 8 289 -20
373 -38 246 -51 441 -156 615 -332 46 -46 102 -111 125 -145 35 -53 40 -67 40
-118 0 -60 -12 -77 -41 -59 -23 14 -29 11 -44 -25 -8 -19 -31 -47 -50 -62
l-36 -27 -50 27 -50 28 -53 -55 c-69 -69 -102 -77 -177 -42 -70 32 -83 31
-116 -6 -55 -61 -124 -77 -209 -47 -60 21 -62 22 -120 3 -32 -10 -68 -24 -79
-31 -11 -8 -29 -14 -41 -14 -11 0 -29 -10 -40 -22 -10 -12 -14 -19 -8 -15 8 4
11 -21 12 -81 1 -48 4 -118 7 -157 3 -38 10 -191 16 -340 7 -201 14 -276 24
-292 18 -27 28 -189 13 -213 -26 -42 28 -108 78 -96 47 12 79 99 54 145 -14
27 13 60 37 45 30 -18 44 -56 40 -105 -13 -160 -230 -202 -270 -52 -7 28 -19
48 -31 52 -26 10 -110 -10 -133 -32 -11 -9 -25 -17 -32 -17 -9 0 -11 -10 -7
-32 46 -264 81 -790 81 -1236 l0 -112 1137 0 1138 0 0 1800 0 1800 -2400 0
-2400 0 0 -339z m2928 313 c30 -21 30 -48 0 -39 -32 10 -68 34 -68 45 0 15 43
12 68 -6z m-2782 -108 c18 -14 18 -15 -11 -21 -17 -4 -36 -8 -43 -11 -7 -2
-25 1 -40 7 -26 10 -26 11 -8 25 25 18 77 18 102 0z m3244 -94 c0 -11 -6 -8
-20 8 -11 13 -20 28 -20 33 0 6 9 2 20 -8 11 -10 20 -25 20 -33z m410 -87 c0
-23 -95 -44 -134 -29 -13 5 -24 34 -13 34 1 0 19 6 41 14 42 14 106 3 106 -19z
m-3650 -95 c0 -5 -9 -10 -20 -10 -11 0 -20 -7 -20 -15 0 -21 -27 -30 -45 -15
-23 19 -18 30 14 30 17 0 33 5 36 10 3 6 13 10 21 10 8 0 14 -4 14 -10z m1013
-66 c3 -3 1 -19 -5 -35 -10 -29 -46 -47 -67 -34 -15 8 -14 48 1 63 12 12 60
17 71 6z m2902 -64 c9 -10 19 -41 22 -67 l4 -48 -19 25 c-11 13 -23 36 -25 50
-3 14 -9 33 -12 43 -9 23 8 22 30 -3z m-60 -10 c3 -5 -3 -10 -14 -10 -11 0
-23 5 -26 10 -3 6 3 10 14 10 11 0 23 -4 26 -10z m456 -23 c-10 -9 -11 -8 -5
6 3 10 9 15 12 12 3 -3 0 -11 -7 -18z m-3141 -87 c-6 -11 -15 -18 -20 -15 -6
4 -3 20 7 38 13 24 18 28 21 15 2 -9 -2 -26 -8 -38z m-940 -282 c0 -12 -14
-10 -28 4 -19 19 -14 29 8 16 11 -7 20 -16 20 -20z m1054 -435 c-20 -15 -54
-17 -54 -4 0 5 15 18 33 28 27 17 33 17 36 4 2 -8 -5 -21 -15 -28z m2353 15
c37 -30 -9 -77 -61 -64 -26 6 -28 18 -10 75 5 14 49 8 71 -11z m-3197 -18 c0
-16 -23 -60 -32 -60 -20 0 -23 2 -20 18 7 32 52 69 52 42z m285 -210 c3 -5 -3
-10 -14 -10 -12 0 -21 5 -21 10 0 6 6 10 14 10 8 0 18 -4 21 -10z m468 -99 c8
-8 -1 -11 -30 -11 -50 0 -75 8 -67 22 8 13 82 4 97 -11z m2791 -610 c-32 -49
-52 -55 -28 -8 16 30 45 59 52 52 2 -2 -9 -22 -24 -44z m-2944 -161 c-8 -5
-24 -9 -35 -9 l-20 0 20 9 c11 5 27 9 35 9 13 1 13 0 0 -9z m2064 -58 c35 -24
37 -27 18 -30 -26 -4 -114 38 -120 57 -7 22 56 5 102 -27z m-1798 -17 c-11 -8
-27 -15 -35 -15 -10 1 -7 6 9 15 33 19 50 18 26 0z m3178 -50 c3 -8 1 -15 -4
-15 -6 0 -10 7 -10 15 0 8 2 15 4 15 2 0 6 -7 10 -15z m-4349 -180 c32 -24 53
-65 33 -65 -31 0 -88 56 -88 85 0 12 26 3 55 -20z m3729 -124 c24 -26 12 -45
-17 -30 -29 16 -39 32 -24 41 18 11 22 10 41 -11z m-3734 -161 c0 -16 -37 -30
-79 -30 -45 0 -54 15 -18 30 30 12 97 12 97 0z m688 -262 c4 -21 -37 -35 -49
-17 -6 9 -3 18 8 27 21 15 37 11 41 -10z m-638 -127 c0 -11 -67 -71 -80 -71
-19 0 -10 18 25 49 36 31 55 39 55 22z"/>
<path d="M2450 2582 c0 -31 -52 -112 -72 -112 -6 0 -22 -10 -35 -22 l-23 -21
0 24 c-1 23 -1 23 -15 5 -8 -11 -15 -29 -15 -40 0 -11 -7 -27 -16 -37 -9 -10
-18 -36 -21 -58 -5 -39 -23 -59 -23 -26 0 22 -18 18 -31 -6 -9 -17 -13 -19
-20 -8 -4 7 -11 10 -15 6 -4 -4 -13 -2 -21 5 -10 8 -17 8 -26 -1 -16 -16 3
-45 33 -49 13 -2 69 -43 124 -91 56 -48 118 -100 139 -116 62 -49 80 -86 75
-156 l-4 -59 33 0 c33 0 38 -8 35 -51 -2 -19 55 -32 65 -16 8 14 8 189 -1 519
l-8 278 -46 30 c-28 18 -58 30 -79 30 -30 0 -33 -3 -33 -28z"/>
<path d="M2426 1652 c-14 -13 -4 -30 22 -35 15 -3 39 -9 55 -13 15 -3 27 -2
27 3 0 11 -97 53 -104 45z"/>
</g>
</svg>
