<?xml version="1.0" standalone="no"?>
<!DOCTYPE svg PUBLIC "-//W3C//DTD SVG 20010904//EN"
 "http://www.w3.org/TR/2001/REC-SVG-20010904/DTD/svg10.dtd">
<svg version="1.0" xmlns="http://www.w3.org/2000/svg"
 width="480.000000pt" height="360.000000pt" viewBox="0 0 480.000000 360.000000"
 preserveAspectRatio="xMidYMid meet">
<metadata>
Created by potrace 1.16, written by Peter Selinger 2001-2019
</metadata>
<rect width="1" height="360" fill="#000000"/>
<rect x="479" width="1" height="360" fill="#000000"/>
<rect width="480" height="1" fill="#000000"/>
<rect y="359" width="480" height="1" fill="#000000"/>
<g transform="translate(0.000000,360.000000) scale(0.100000,-0.100000)"
fill="#000000" stroke="none">
<path d="M0 2889 l0 -711 32 6 c18 4 146 9 283 12 270 7 468 -7 700 -46 l120
-21 19 23 c25 31 97 78 120 78 17 0 18 5 12 52 -4 29 -9 54 -11 57 -2 2 -24
-2 -49 -8 -54 -13 -136 -15 -136 -2 0 5 -9 7 -20 4 -15 -4 -21 1 -26 23 -11
43 35 120 133 224 l85 90 -15 164 c-16 172 -12 226 20 276 45 70 224 220 263
220 8 0 25 11 37 23 29 32 158 93 245 117 133 37 170 27 349 -91 l106 -70 124
41 c181 61 288 66 311 15 18 -41 -28 -119 -137 -228 l-94 -95 109 -106 c60
-58 106 -106 104 -106 -3 0 -15 5 -27 12 -20 10 -21 10 -8 -5 15 -19 8 -22
-20 -7 -24 13 -25 3 -4 -46 10 -24 13 -50 8 -78 l-6 -41 -12 28 -11 28 -14
-51 c-7 -27 -18 -50 -23 -50 -5 0 -7 9 -4 20 8 30 -1 24 -18 -12 -8 -18 -24
-45 -36 -60 l-22 -26 21 -30 c12 -16 35 -35 52 -42 39 -16 38 -40 -1 -85 -25
-28 -30 -41 -26 -64 5 -22 0 -34 -17 -50 -15 -14 -22 -30 -19 -42 3 -11 -1
-27 -9 -37 -9 -9 -21 -35 -28 -57 -7 -22 -23 -51 -35 -65 -16 -18 -24 -43 -29
-88 -3 -34 -12 -76 -21 -91 -17 -34 -60 -67 -99 -77 l-27 -7 26 -27 c14 -15
59 -40 98 -55 40 -16 146 -64 235 -107 l164 -78 26 20 c30 24 47 20 117 -26
27 -19 57 -34 66 -34 8 0 26 -11 39 -25 12 -13 39 -30 59 -36 44 -15 150 -68
174 -88 10 -8 17 -28 17 -47 0 -31 7 -38 128 -117 70 -46 172 -116 227 -155
98 -71 100 -72 147 -66 39 5 53 3 68 -11 11 -10 20 -24 20 -32 0 -8 11 -13 28
-13 38 0 69 -24 77 -60 5 -21 13 -30 26 -30 26 0 59 -35 59 -64 0 -13 7 -29
15 -36 8 -7 15 -25 15 -40 0 -21 23 -51 100 -132 126 -132 259 -292 363 -435
l81 -113 88 0 88 0 0 1800 0 1800 -2400 0 -2400 0 0 -711z"/>
<path d="M195 1935 c-11 -2 -59 -7 -107 -10 l-88 -7 0 -959 0 -959 914 0 913
0 13 58 c10 50 9 88 -9 258 -12 109 -32 251 -44 316 -21 106 -26 119 -56 143
-40 34 -64 80 -56 106 4 11 1 26 -5 34 -8 9 -10 66 -8 182 2 124 0 173 -10
188 l-13 20 2 -20 c3 -49 -2 -95 -11 -95 -5 0 -10 13 -10 29 0 32 -20 54 -21
24 0 -10 -7 2 -15 27 -12 35 -14 74 -10 171 l6 126 -53 7 c-112 15 -291 135
-342 230 -17 32 -26 37 -85 50 -92 21 -307 53 -430 66 -110 11 -441 22 -475
15z"/>
<path d="M2641 1295 c0 -5 6 -19 14 -29 8 -11 15 -15 15 -10 0 6 -7 19 -15 30
-8 10 -14 15 -14 9z"/>
<path d="M2620 1267 c0 -13 69 -150 70 -137 0 31 -20 82 -44 111 -14 17 -26
29 -26 26z"/>
<path d="M3149 954 l-32 -56 57 -55 c31 -29 56 -60 56 -67 0 -7 -27 -43 -60
-79 -33 -36 -60 -68 -60 -71 0 -17 237 2 366 29 11 3 35 27 52 54 l31 50 -67
49 c-67 49 -254 172 -291 191 -17 10 -23 4 -52 -45z"/>
<path d="M3855 426 c-22 -23 -53 -51 -68 -62 -24 -17 -31 -31 -42 -97 -16 -91
-41 -148 -73 -163 -32 -16 -93 -3 -237 50 -176 65 -272 81 -605 101 l-95 6
-52 -70 c-50 -67 -53 -74 -53 -131 l0 -60 851 0 851 0 -28 37 c-97 130 -377
434 -397 432 -7 0 -30 -20 -52 -43z"/>
</g>
</svg>
