<?xml version="1.0" standalone="no"?>
<!DOCTYPE svg PUBLIC "-//W3C//DTD SVG 20010904//EN"
 "http://www.w3.org/TR/2001/REC-SVG-20010904/DTD/svg10.dtd">
<svg version="1.0" xmlns="http://www.w3.org/2000/svg"
 width="480.000000pt" height="360.000000pt" viewBox="0 0 480.000000 360.000000"
 preserveAspectRatio="xMidYMid meet">
<metadata>
Created by potrace 1.16, written by Peter Selinger 2001-2019
</metadata>
<rect width="1" height="360" fill="#000000"/>
<rect x="479" width="1" height="360" fill="#000000"/>
<rect width="480" height="1" fill="#000000"/>
<rect y="359" width="480" height="1" fill="#000000"/>
<g transform="translate(0.000000,360.000000) scale(0.100000,-0.100000)"
fill="#000000" stroke="none">
<path d="M0 2624 l0 -976 38 27 c87 65 134 106 250 218 68 67 128 117 135 114
6 -3 95 -42 196 -86 100 -44 242 -113 313 -152 268 -149 359 -164 596 -103 89
23 96 24 139 9 25 -9 64 -18 87 -21 l41 -5 65 92 c116 164 169 211 281 253 25
10 58 27 73 40 26 20 27 24 17 61 -11 41 -1 60 27 50 25 -9 11 31 -18 48 l-29
18 -12 -41 c-15 -50 -29 -52 -29 -2 0 20 -5 44 -10 52 -8 12 -10 10 -10 -9 0
-16 -4 -21 -15 -17 -11 4 -15 -1 -15 -18 0 -13 -3 -39 -7 -57 -8 -34 -8 -33
-14 16 -5 47 -6 48 -16 25 -9 -19 -12 -21 -12 -7 -1 10 -5 15 -11 12 -5 -3
-10 -1 -10 4 0 21 -16 11 -27 -16 -11 -28 -11 -27 -12 12 -1 50 -23 127 -29
103 -6 -30 -18 -20 -36 27 -10 25 -20 45 -23 45 -3 0 -13 -10 -24 -22 l-18
-23 -1 54 c0 44 -3 52 -16 47 -62 -24 -82 -15 -44 19 33 30 66 88 52 93 -7 2
-12 10 -12 18 0 18 -14 18 -30 -1 -7 -8 -18 -15 -24 -15 -6 0 -49 30 -95 66
l-83 66 21 22 c12 12 21 34 21 48 0 23 5 27 38 33 28 4 53 20 86 53 42 41 47
50 42 77 -24 116 -10 236 39 342 32 72 104 146 168 174 47 20 76 23 282 31
252 10 311 5 402 -38 73 -35 165 -136 194 -214 l22 -60 24 24 c18 18 39 25 86
30 34 3 81 9 103 12 96 14 126 -46 130 -256 1 -80 7 -158 13 -173 17 -44 13
-63 -15 -76 -20 -9 -25 -17 -21 -34 3 -12 21 -85 40 -162 43 -174 50 -208 37
-200 -6 4 -10 -10 -10 -32 -1 -34 -12 -80 -50 -208 -7 -22 -19 -49 -26 -60
-13 -18 -14 -18 -14 -2 0 10 -4 15 -10 12 -5 -3 -10 -14 -10 -24 0 -10 -9 -28
-20 -41 -11 -13 -20 -18 -20 -11 0 7 -4 9 -10 6 -6 -4 -10 6 -10 21 0 26 -1
26 -13 9 -13 -17 -15 -15 -22 16 -4 19 -9 37 -10 42 -1 4 -3 17 -5 30 -1 16
-5 12 -14 -18 -12 -37 -13 -38 -19 -15 -4 14 -11 54 -17 89 -6 35 -20 86 -31
114 -11 27 -24 84 -29 125 -6 41 -11 76 -12 78 -2 1 -21 4 -43 5 -45 4 -44 6
-31 -86 l7 -50 -29 32 -28 33 -18 -37 c-13 -28 -20 -33 -26 -23 -11 18 -16 13
-27 -28 -4 -18 -13 -33 -18 -32 -5 1 -13 -7 -17 -17 -6 -16 -7 -16 -14 5 -11
36 -20 26 -40 -45 l-19 -68 -5 40 -5 40 -10 -45 -9 -45 -6 65 -6 65 -13 -33
c-9 -22 -16 -30 -21 -22 -6 9 -10 7 -18 -6 -9 -16 -11 -15 -19 13 -8 31 -9 32
-33 20 -34 -17 -40 -48 -8 -45 24 3 27 -8 17 -72 -4 -22 7 -30 106 -81 119
-63 133 -75 259 -237 55 -71 85 -102 100 -102 12 0 53 7 93 17 71 16 72 16
180 -10 166 -41 278 -35 408 22 28 12 111 55 185 96 74 40 191 97 260 126 69
28 146 62 172 75 26 13 55 24 64 24 9 0 69 -51 133 -113 97 -94 162 -151 279
-240 9 -8 12 188 12 972 l0 981 -2400 0 -2400 0 0 -976z"/>
<path d="M2980 2719 c0 -8 -14 -50 -31 -94 -35 -92 -33 -132 8 -173 23 -23 26
-24 35 -8 15 27 16 262 1 277 -11 11 -13 10 -13 -2z"/>
<path d="M3021 2334 c0 -11 3 -14 6 -6 3 7 2 16 -1 19 -3 4 -6 -2 -5 -13z"/>
<path d="M2310 2246 c16 -16 113 -19 149 -4 32 13 29 13 -62 13 -60 0 -93 -3
-87 -9z"/>
<path d="M2063 2215 c0 -22 2 -30 4 -17 2 12 2 30 0 40 -3 9 -5 -1 -4 -23z"/>
<path d="M3251 2044 c0 -11 3 -14 6 -6 3 7 2 16 -1 19 -3 4 -6 -2 -5 -13z"/>
<path d="M376 1824 c-48 -58 -53 -69 -36 -79 6 -3 10 -16 10 -28 0 -11 11 -32
23 -46 13 -15 34 -54 46 -87 l23 -62 -26 -78 c-51 -162 -128 -379 -138 -391
-24 -29 -32 -7 -58 148 -5 35 -21 122 -33 192 l-24 128 28 60 c30 63 27 74
-11 34 -13 -14 -59 -49 -102 -77 -71 -48 -78 -56 -78 -85 0 -18 5 -33 10 -33
12 0 70 -123 70 -148 0 -10 -18 -70 -40 -135 l-40 -118 0 -509 0 -510 879 0
879 0 22 83 c36 137 70 236 128 365 39 88 53 130 49 150 -3 15 -1 73 5 130 8
75 8 109 0 125 -7 12 -17 36 -23 52 l-10 30 -35 -70 c-19 -38 -51 -87 -72
-109 -39 -40 -420 -298 -532 -360 -36 -19 -96 -46 -135 -60 -38 -13 -119 -45
-180 -71 -108 -45 -111 -46 -192 -41 -58 4 -104 15 -160 37 -176 71 -223 145
-68 109 48 -11 157 7 263 43 80 28 112 50 112 78 0 16 -8 18 -52 16 -43 -2
-53 1 -56 15 -6 29 52 56 137 64 65 6 85 4 139 -15 77 -27 50 -41 284 150 95
77 205 162 244 187 l70 47 12 81 c7 44 23 118 37 165 30 102 30 106 5 114 -11
4 -28 17 -36 31 -15 22 -15 25 15 55 l31 31 -20 25 c-11 14 -20 40 -20 58 l0
33 -69 7 c-74 7 -111 1 -111 -18 0 -7 8 -17 18 -23 10 -7 31 -42 47 -79 l28
-67 -32 -146 c-18 -81 -37 -169 -43 -197 -23 -108 -34 -140 -48 -140 -14 0
-20 17 -103 315 l-44 155 24 70 c14 39 34 77 46 87 19 14 19 18 7 33 -13 16
-30 17 -148 13 -73 -3 -136 -8 -139 -12 -3 -3 -1 -12 6 -20 6 -7 22 -44 34
-82 l23 -68 -72 -234 c-41 -129 -76 -237 -79 -240 -15 -15 -29 34 -72 245
l-47 231 29 68 c16 37 38 76 50 86 39 34 22 64 -71 125 -97 63 -176 98 -200
89 -15 -6 -15 -8 -2 -24 15 -17 58 -135 58 -159 0 -16 -146 -437 -162 -467
-11 -20 -12 -20 -24 9 -6 17 -28 128 -48 249 l-37 219 21 51 c12 28 34 67 49
86 47 62 48 60 -66 118 -57 28 -108 52 -113 52 -5 0 -29 -25 -54 -56z"/>
<path d="M4253 1827 c-109 -54 -121 -70 -83 -104 27 -26 91 -154 86 -173 -3
-8 -7 -37 -11 -65 -9 -77 -55 -397 -61 -422 -11 -52 -37 -12 -74 112 -10 33
-44 132 -75 219 l-56 159 17 56 c9 31 26 71 36 88 11 18 17 37 14 42 -13 20
-108 -20 -214 -90 -88 -58 -107 -91 -71 -117 11 -7 35 -45 55 -83 l35 -70 -21
-132 c-67 -418 -66 -412 -87 -385 -6 7 -20 42 -31 78 -11 36 -46 145 -77 244
l-57 178 17 62 c9 33 25 73 36 88 l19 27 -48 8 c-77 13 -239 10 -254 -5 -11
-11 -9 -16 9 -30 12 -9 34 -50 48 -90 l26 -72 -36 -158 c-30 -134 -69 -292
-89 -367 -5 -16 9 -31 70 -75 182 -131 160 -121 246 -114 132 11 288 -39 288
-91 0 -31 -25 -38 -62 -19 -38 20 -57 7 -41 -28 13 -29 170 -111 251 -133 33
-8 92 -15 131 -15 54 0 71 -3 71 -14 0 -25 -92 -73 -172 -90 -66 -15 -89 -15
-160 -5 -90 13 -106 19 -247 103 -52 30 -117 63 -145 72 -62 20 -148 66 -371
197 -192 113 -253 165 -285 239 l-22 51 -20 -44 c-19 -41 -19 -50 -8 -131 6
-48 9 -100 5 -116 -4 -21 9 -59 53 -157 61 -135 95 -231 132 -372 l22 -83 879
0 879 0 0 540 0 539 -26 58 c-14 32 -30 70 -34 85 -10 34 16 146 41 174 11 11
19 34 19 51 0 27 -8 36 -67 74 -38 24 -87 61 -110 83 -49 44 -54 37 -18 -25
17 -30 25 -59 25 -91 0 -86 -51 -472 -64 -486 -16 -16 -22 -1 -131 290 l-77
206 21 70 c12 38 31 79 41 90 11 12 20 31 20 43 0 12 7 30 16 40 14 16 11 21
-32 70 -26 30 -52 57 -58 60 -6 4 -57 -16 -113 -44z"/>
<path d="M3069 1548 c-1 -2 -2 -18 -4 -37 -2 -18 -12 -42 -23 -54 -19 -19 -20
-21 -4 -46 9 -14 22 -30 29 -34 19 -12 0 -43 -37 -62 -29 -15 -29 -15 -15 -56
17 -47 43 -183 47 -249 4 -45 4 -45 98 -108 140 -93 130 -90 114 -34 -24 83
-104 453 -104 482 0 37 36 129 61 156 35 38 25 44 -71 44 -49 0 -90 -1 -91 -2z"/>
</g>
</svg>
