<?xml version="1.0" standalone="no"?>
<!DOCTYPE svg PUBLIC "-//W3C//DTD SVG 20010904//EN"
 "http://www.w3.org/TR/2001/REC-SVG-20010904/DTD/svg10.dtd">
<svg version="1.0" xmlns="http://www.w3.org/2000/svg"
 width="480.000000pt" height="360.000000pt" viewBox="0 0 480.000000 360.000000"
 preserveAspectRatio="xMidYMid meet">
<metadata>
Created by potrace 1.16, written by Peter Selinger 2001-2019
</metadata>
<rect width="1" height="360" fill="#000000"/>
<rect x="479" width="1" height="360" fill="#000000"/>
<rect width="480" height="1" fill="#000000"/>
<rect y="359" width="480" height="1" fill="#000000"/>
<g transform="translate(0.000000,360.000000) scale(0.100000,-0.100000)"
fill="#000000" stroke="none">
<path d="M0 1800 l0 -1800 270 0 270 0 0 136 c0 173 -15 240 -86 374 -210 401
-256 532 -309 880 -22 146 -31 502 -16 670 14 158 56 379 107 568 l36 134 -38
39 c-34 34 -36 41 -26 63 13 29 62 42 125 32 126 -20 506 -152 546 -190 26
-25 179 -71 594 -181 127 -33 140 -35 162 -21 27 18 78 95 158 237 96 174 198
295 255 305 70 12 128 32 166 57 67 46 144 70 226 71 65 1 84 -3 141 -31 60
-30 219 -138 219 -149 0 -3 -4 -3 -8 0 -4 2 -14 1 -21 -3 -11 -7 -10 -13 2
-32 17 -28 16 -111 -1 -117 -7 -2 -12 -10 -12 -17 0 -8 -9 -19 -20 -25 -30
-16 -24 -39 15 -56 33 -14 44 -32 28 -48 -5 -4 -9 -29 -9 -54 -3 -123 -4 -129
-27 -154 -18 -19 -31 -24 -55 -22 -31 4 -43 -8 -22 -21 18 -11 10 -23 -12 -17
-17 4 -20 2 -15 -12 4 -10 7 -21 7 -25 0 -17 88 -63 136 -71 70 -12 121 -39
169 -92 l40 -44 130 -23 c462 -81 529 -91 539 -81 15 15 47 12 66 -5 15 -14
18 -13 30 10 16 29 54 34 69 8 7 -14 12 -15 24 -5 15 13 47 6 47 -10 0 -5 9
-7 19 -3 15 4 24 -1 35 -22 12 -24 15 -26 21 -10 10 25 44 21 56 -7 10 -22 22
-25 168 -45 172 -23 568 -71 588 -71 10 0 13 169 13 840 l0 840 -2400 0 -2400
0 0 -1800z"/>
<path d="M757 2521 c-36 -97 -103 -323 -126 -426 -61 -265 -66 -746 -11 -978
27 -115 74 -248 174 -495 47 -117 86 -219 86 -227 0 -8 -22 -84 -50 -170 -27
-85 -52 -171 -56 -190 l-6 -35 313 0 314 1 33 48 c45 66 352 376 492 497 241
207 311 277 414 413 125 167 119 156 111 191 -4 20 -29 46 -88 92 -129 100
-217 178 -238 212 -39 64 -17 152 75 298 37 58 51 90 45 99 -17 27 -9 86 16
123 26 39 31 56 16 56 -5 0 -12 -11 -15 -25 -8 -33 -21 -25 -30 17 l-7 33 -15
-27 c-9 -17 -20 -25 -29 -22 -9 4 -21 -6 -33 -26 -13 -20 -21 -27 -24 -18 -4
11 -8 10 -22 -2 -16 -13 -18 -12 -14 10 2 16 -1 24 -10 22 -7 -1 -15 5 -18 13
-5 13 -10 12 -26 -7 l-19 -22 7 42 c8 49 -11 59 -21 12 -4 -16 -11 -32 -16
-36 -6 -3 -7 5 -3 22 5 19 4 25 -5 20 -16 -10 -14 5 9 49 34 67 22 73 -30 17
-28 -29 -50 -48 -50 -42 0 6 16 42 36 81 l35 71 -33 -7 -33 -7 43 41 c23 23
42 46 42 51 0 13 -37 13 -44 1 -3 -5 -23 -19 -43 -31 -21 -12 -33 -16 -26 -10
6 7 9 19 6 26 -4 11 -11 8 -31 -11 -28 -29 -44 -33 -35 -8 5 11 3 14 -6 8 -10
-6 -11 -3 -2 14 9 16 9 21 0 19 -7 -2 -13 8 -13 21 -1 23 -9 27 -101 49 -55
13 -136 34 -180 47 -410 121 -595 168 -662 170 l-72 2 -24 -66z"/>
<path d="M2997 2073 c-20 -19 -2 -61 80 -184 39 -58 47 -78 58 -155 8 -49 14
-89 15 -89 0 -1 73 23 163 52 89 29 208 66 263 83 56 17 104 36 107 44 3 8 0
41 -6 75 -11 57 -14 61 -42 66 -141 24 -603 107 -616 110 -8 3 -18 2 -22 -2z"/>
<path d="M4023 1888 c-5 -7 -22 -35 -37 -61 -36 -63 -121 -147 -187 -185 -64
-36 -440 -192 -536 -222 -80 -25 -129 -21 -199 16 -40 21 -45 22 -39 7 16 -36
17 -71 3 -99 -8 -17 -13 -57 -13 -97 2 -65 3 -70 42 -110 46 -47 57 -77 38
-104 -19 -27 39 -137 133 -255 82 -102 157 -230 149 -252 -4 -11 -16 -12 -53
-5 -26 5 -49 7 -51 5 -2 -2 10 -55 26 -117 26 -97 81 -370 81 -400 0 -5 277
-9 710 -9 l710 0 0 875 c0 481 -2 875 -4 875 -2 0 -100 20 -218 44 -117 25
-280 56 -363 71 -82 14 -157 28 -166 31 -9 2 -21 -1 -26 -8z"/>
<path d="M2335 1593 l-40 -45 60 -56 60 -56 6 39 c4 22 3 49 -2 60 -5 11 -13
39 -19 63 -6 23 -14 42 -18 41 -4 0 -25 -21 -47 -46z"/>
</g>
</svg>
