<?xml version="1.0" standalone="no"?>
<!DOCTYPE svg PUBLIC "-//W3C//DTD SVG 20010904//EN"
 "http://www.w3.org/TR/2001/REC-SVG-20010904/DTD/svg10.dtd">
<svg version="1.0" xmlns="http://www.w3.org/2000/svg"
 width="480.000000pt" height="360.000000pt" viewBox="0 0 480.000000 360.000000"
 preserveAspectRatio="xMidYMid meet">
<metadata>
Created by potrace 1.16, written by Peter Selinger 2001-2019
</metadata>
<rect width="1" height="360" fill="#000000"/>
<rect x="479" width="1" height="360" fill="#000000"/>
<rect width="480" height="1" fill="#000000"/>
<rect y="359" width="480" height="1" fill="#000000"/>
<g transform="translate(0.000000,360.000000) scale(0.100000,-0.100000)"
fill="#000000" stroke="none">
<path d="M2830 3590 c0 -24 52 -136 85 -181 23 -33 31 -51 23 -53 -181 -48
-219 -63 -334 -133 -101 -61 -192 -148 -263 -254 -67 -97 -80 -128 -111 -250
-22 -89 -51 -152 -88 -191 -14 -16 -22 -28 -18 -28 16 0 66 31 76 47 9 14 10
5 5 -37 -4 -40 -3 -51 5 -40 8 11 9 -11 5 -75 l-6 -90 19 24 19 24 12 -49 c18
-73 32 -89 26 -29 -5 48 -4 49 6 15 18 -56 43 -100 50 -88 4 7 11 4 18 -8 9
-14 14 -15 18 -6 7 18 33 -5 33 -30 0 -11 5 -16 11 -13 6 4 17 -1 25 -11 12
-15 16 -16 21 -5 4 10 9 8 19 -10 13 -24 13 -24 14 9 0 20 4 31 10 27 29 -18
-2 -120 -53 -173 -36 -38 -32 -52 24 -89 54 -36 59 -42 59 -72 0 -32 21 -54
65 -68 25 -9 30 -15 28 -41 -2 -22 3 -34 21 -46 13 -8 40 -42 60 -74 38 -63
48 -131 25 -174 -12 -22 5 -42 28 -33 16 5 27 -11 13 -20 -13 -8 -13 -45 -1
-45 5 0 12 -12 15 -27 58 -314 62 -272 -33 -346 l-59 -47 -31 55 c-17 31 -49
73 -70 94 -22 22 -47 56 -57 76 -10 21 -34 60 -55 87 l-37 49 5 83 c13 204
-61 371 -173 392 -37 7 -191 -1 -230 -12 -19 -5 -22 0 -28 46 -10 72 -32 62
-29 -13 l2 -56 -69 -22 c-37 -12 -79 -29 -93 -38 -119 -79 -108 -64 -142 -209
-16 -70 -16 -75 4 -145 11 -39 27 -101 36 -136 13 -52 26 -76 79 -140 79 -95
90 -103 149 -125 26 -10 47 -19 47 -20 0 -2 -16 -37 -35 -79 -53 -114 -75
-219 -81 -387 -4 -92 -14 -189 -30 -266 -13 -67 -24 -124 -24 -128 0 -3 142
-6 315 -6 l315 0 49 98 c47 94 138 229 147 219 3 -2 0 -24 -5 -48 -6 -24 -11
-95 -11 -156 l0 -113 900 0 c541 0 900 4 900 9 0 5 22 17 48 25 55 19 162 83
162 98 0 6 -12 7 -30 3 -40 -9 -39 5 5 62 19 25 34 47 33 49 -2 1 -30 -1 -63
-5 -53 -6 -70 -14 -151 -74 -89 -65 -178 -112 -194 -102 -4 3 -25 40 -45 82
-40 82 -61 151 -75 243 -10 61 -35 171 -56 242 -8 26 -14 53 -14 62 0 8 -5 27
-12 43 -6 15 -13 46 -14 68 -2 22 -6 50 -9 63 -7 28 11 29 20 1 4 -11 13 -18
20 -15 8 3 28 -28 58 -92 25 -53 53 -106 62 -117 15 -19 16 -16 10 45 -4 36
-8 81 -10 100 -1 19 -10 73 -19 120 -9 47 -16 96 -16 110 1 24 1 24 12 5 59
-110 84 -136 54 -59 -38 98 -59 210 -61 334 -2 73 0 117 5 105 5 -11 9 -29 9
-40 2 -38 80 -222 136 -321 89 -155 100 -158 54 -14 -34 108 -64 238 -55 247
1 2 23 -30 49 -70 59 -94 128 -187 138 -187 4 0 3 15 -2 33 -27 93 -50 267
-64 482 -8 132 -20 301 -25 375 -31 384 -107 703 -239 999 -27 62 -58 139 -67
169 -21 72 -56 142 -109 217 -59 83 -100 119 -170 152 -53 25 -71 28 -150 27
l-91 -1 -48 64 -49 63 -328 0 c-217 0 -329 -3 -329 -10z m240 -2091 c9 -15 8
-24 -1 -35 -24 -29 -39 -3 -23 40 8 21 11 20 24 -5z"/>
</g>
</svg>
