<?xml version="1.0" standalone="no"?>
<!DOCTYPE svg PUBLIC "-//W3C//DTD SVG 20010904//EN"
 "http://www.w3.org/TR/2001/REC-SVG-20010904/DTD/svg10.dtd">
<svg version="1.0" xmlns="http://www.w3.org/2000/svg"
 width="480.000000pt" height="360.000000pt" viewBox="0 0 480.000000 360.000000"
 preserveAspectRatio="xMidYMid meet">
<metadata>
Created by potrace 1.16, written by Peter Selinger 2001-2019
</metadata>
<rect width="1" height="360" fill="#000000"/>
<rect x="479" width="1" height="360" fill="#000000"/>
<rect width="480" height="1" fill="#000000"/>
<rect y="359" width="480" height="1" fill="#000000"/>
<g transform="translate(0.000000,360.000000) scale(0.100000,-0.100000)"
fill="#000000" stroke="none">
<path d="M0 1800 l0 -1800 1504 0 1504 0 -3 92 c-2 51 -4 101 -4 110 -1 10
-18 25 -43 36 -24 11 -61 33 -84 50 -38 28 -42 34 -54 106 -14 84 -9 164 16
225 12 30 13 44 5 59 -12 23 -2 123 25 243 9 41 20 95 24 120 5 25 16 63 25
85 55 125 72 181 60 198 -7 9 -18 16 -25 16 -8 0 -10 10 -6 32 3 18 10 60 15
93 6 33 22 96 36 140 31 93 41 179 27 216 -9 22 -19 27 -62 33 -57 8 -100 40
-100 76 0 15 -5 20 -17 18 -14 -3 -22 -28 -39 -131 -25 -146 -53 -214 -119
-281 -58 -60 -118 -88 -253 -120 -135 -31 -145 -32 -138 -8 6 19 -1 24 -66 51
-48 19 -32 31 41 31 37 0 96 3 131 7 46 4 61 3 56 -5 -10 -17 48 -5 110 23
106 47 166 143 200 322 l21 114 -21 9 c-44 16 -227 40 -359 47 l-135 6 -7 -41
c-10 -61 -21 -66 -135 -59 -88 4 -103 3 -124 -14 -25 -20 -56 -25 -56 -11 0 5
-44 9 -97 10 -54 0 -131 6 -171 12 -52 8 -164 8 -395 2 -316 -9 -435 -4 -481
20 -39 21 -126 93 -126 104 0 14 78 66 134 89 56 24 164 21 471 -9 149 -15
314 -30 368 -33 l97 -6 38 40 c34 37 43 41 102 48 36 4 88 13 115 21 66 18
442 24 645 11 85 -6 167 -7 183 -4 l27 7 -22 33 c-12 17 -35 46 -51 63 l-29
32 52 11 c28 6 73 11 100 11 27 0 51 3 53 8 3 4 -2 41 -10 82 -14 74 -14 79
13 173 4 13 -1 17 -20 17 -42 0 -30 27 19 46 37 14 67 16 158 12 135 -6 147
-3 147 26 0 13 9 35 20 49 11 14 20 30 20 36 0 26 105 121 135 121 3 0 5 -612
5 -1360 0 -1202 -2 -1360 -15 -1360 -12 0 -15 -18 -15 -100 0 -82 3 -100 15
-100 12 0 15 17 15 95 0 87 2 95 19 95 11 0 23 5 26 10 9 15 45 12 45 -4 0 -8
21 -55 46 -105 l45 -91 200 0 c109 0 199 2 199 5 0 10 -80 255 -104 319 -26
69 -25 90 7 91 7 0 43 16 81 35 50 25 72 43 81 64 12 27 10 34 -33 100 -25 39
-69 93 -98 119 -36 33 -51 55 -49 68 2 11 -7 43 -20 72 -33 69 -33 89 0 81 14
-3 25 -4 25 -1 0 3 -15 41 -33 84 -60 140 -58 145 28 62 41 -40 75 -78 75 -86
0 -14 123 -258 142 -280 6 -7 20 -13 31 -13 11 0 28 -7 38 -16 11 -10 23 -13
31 -8 7 5 21 7 31 6 11 -2 17 3 17 17 0 14 6 21 20 21 11 0 20 5 20 10 0 6
-31 44 -69 85 -72 78 -83 101 -98 227 -8 67 29 284 77 443 0 1 42 -3 93 -8 99
-9 152 0 179 30 9 10 37 90 62 178 25 88 56 193 70 233 l25 74 -23 21 c-13 12
-36 30 -51 41 -15 10 -41 48 -58 85 -17 36 -54 95 -82 131 -28 36 -66 90 -84
121 -17 32 -38 60 -47 63 -23 9 -29 -24 -10 -58 13 -23 5 -18 -34 22 -28 29
-56 52 -61 52 -6 0 -19 -10 -28 -21 -13 -16 -23 -20 -40 -14 -13 4 -20 12 -17
20 2 7 -2 22 -11 34 -20 29 -1 56 28 40 11 -5 24 -7 29 -4 15 9 12 32 -5 39
-8 3 -15 16 -15 29 0 27 -17 47 -41 47 -13 0 -17 10 -17 48 -2 71 -31 224 -48
249 -19 30 -30 29 -63 -6 -26 -27 -31 -29 -68 -21 -63 15 -91 27 -133 61 -38
31 -38 31 -125 24 -77 -7 -88 -10 -97 -31 -9 -20 -71 -54 -98 -54 -6 0 -10
123 -10 335 l0 335 -1725 0 -1725 0 0 -1800z m4097 598 c15 -20 13 -58 -3 -83
-15 -23 -14 -24 43 -49 40 -18 66 -38 83 -64 14 -20 42 -54 63 -76 35 -35 37
-41 28 -68 -6 -17 -8 -34 -5 -39 9 -16 -20 -9 -51 11 l-29 19 -24 -22 c-16
-15 -33 -21 -54 -18 -17 1 -28 -1 -25 -6 6 -9 -215 1 -232 11 -6 4 -11 21 -11
37 0 36 -21 46 -138 61 -54 7 -81 15 -77 22 3 6 8 19 11 29 8 22 34 22 34 0 0
-13 3 -14 12 -5 16 16 28 15 28 -3 0 -8 5 -15 10 -15 6 0 10 6 10 13 0 6 5 19
10 27 9 13 13 11 29 -10 l19 -24 7 39 c4 22 12 49 17 60 14 28 117 125 133
125 7 0 23 9 36 20 27 22 62 26 76 8z m173 -553 c0 -29 0 -29 -48 -10 -29 13
-34 18 -22 25 8 5 27 10 43 10 22 0 27 -4 27 -25z m-510 -169 c34 -31 44 -34
116 -39 44 -3 88 -5 99 -5 28 0 113 -50 125 -73 6 -10 24 -26 40 -34 17 -9 30
-24 30 -33 0 -10 -18 -65 -39 -123 -22 -57 -45 -122 -52 -145 -12 -37 -14 -40
-36 -30 -12 6 -23 14 -23 18 0 3 -15 15 -33 25 -48 29 -302 268 -327 309 -16
24 -20 43 -15 61 6 26 61 103 72 103 3 0 22 -15 43 -34z m-119 -370 c5 -6 9
-17 9 -25 -1 -13 -4 -12 -15 3 -8 11 -14 31 -14 45 1 21 2 22 6 6 3 -11 9 -24
14 -29z m76 -108 c-3 -8 -6 -5 -6 6 -1 11 2 17 5 13 3 -3 4 -12 1 -19z m363
-239 c0 -11 5 -29 10 -40 17 -30 -6 -23 -29 10 -26 37 -27 51 -1 51 14 0 20
-7 20 -21z"/>
<path d="M3039 2601 c-25 -25 -29 -37 -29 -83 0 -59 21 -142 43 -172 10 -14
21 -17 40 -12 15 3 27 12 27 19 0 7 13 26 30 42 29 28 29 28 10 52 -23 29 -19
43 20 65 39 22 38 34 -5 59 -19 12 -35 27 -35 34 0 7 -7 16 -16 19 -32 12 -56
5 -85 -23z"/>
<path d="M3148 2237 c-34 -27 -36 -40 -6 -35 14 2 24 13 29 31 4 15 7 27 6 27
-1 -1 -14 -11 -29 -23z"/>
</g>
</svg>
