<?xml version="1.0" standalone="no"?>
<!DOCTYPE svg PUBLIC "-//W3C//DTD SVG 20010904//EN"
 "http://www.w3.org/TR/2001/REC-SVG-20010904/DTD/svg10.dtd">
<svg version="1.0" xmlns="http://www.w3.org/2000/svg"
 width="480.000000pt" height="360.000000pt" viewBox="0 0 480.000000 360.000000"
 preserveAspectRatio="xMidYMid meet">
<metadata>
Created by potrace 1.16, written by Peter Selinger 2001-2019
</metadata>
<rect width="1" height="360" fill="#000000"/>
<rect x="479" width="1" height="360" fill="#000000"/>
<rect width="480" height="1" fill="#000000"/>
<rect y="359" width="480" height="1" fill="#000000"/>
<g transform="translate(0.000000,360.000000) scale(0.100000,-0.100000)"
fill="#000000" stroke="none">
<path d="M1594 3544 c-9 -74 10 -178 49 -274 24 -59 44 -89 96 -140 36 -36 92
-79 123 -95 32 -17 58 -32 58 -35 0 -3 -28 -7 -62 -8 -34 -2 -65 -5 -69 -7 -3
-3 -37 2 -75 10 -83 17 -107 7 -123 -52 -8 -30 -20 -43 -53 -61 -24 -12 -60
-38 -81 -57 -37 -34 -38 -37 -24 -58 8 -12 24 -23 36 -25 28 -4 67 -72 85
-151 15 -62 14 -66 -10 -122 -32 -78 -32 -91 2 -78 15 5 30 7 33 3 3 -3 7 -47
7 -97 1 -51 5 -115 9 -144 6 -44 4 -56 -15 -81 -30 -41 -41 -178 -16 -213 19
-27 13 -109 -11 -145 -18 -28 -22 -189 -5 -206 16 -16 16 -135 0 -140 -18 -6
-24 -203 -7 -224 17 -21 19 -124 3 -149 -19 -27 -19 -194 0 -220 17 -23 11
-114 -10 -162 -19 -43 -19 -191 1 -213 18 -20 6 -114 -21 -155 -21 -32 -34
-215 -15 -215 6 0 11 -7 11 -16 0 -12 10 -14 46 -12 66 4 82 29 90 138 6 72 4
89 -10 102 -13 14 -15 28 -10 75 4 32 14 66 23 77 24 27 29 207 7 225 -23 19
-22 128 1 153 25 28 26 197 1 225 -25 27 -25 119 0 146 24 27 25 196 1 223
-23 27 -24 123 -1 140 13 10 18 32 20 109 3 62 0 101 -7 108 -6 6 -11 36 -11
66 1 52 2 54 15 36 88 -119 157 -183 443 -413 83 -67 152 -125 152 -128 0 -3
-44 -69 -99 -147 -268 -385 -375 -577 -411 -739 -18 -79 -8 -188 25 -300 29
-96 31 -98 60 -98 24 0 48 18 128 95 54 52 99 95 101 95 2 0 9 -35 15 -77 7
-43 15 -86 17 -95 5 -17 40 -18 548 -18 l543 0 7 52 c5 37 10 48 16 38 6 -8
10 -25 10 -37 0 -41 11 -53 46 -53 19 0 34 4 34 8 0 50 -34 502 -46 616 -14
126 -14 167 -4 260 12 115 26 146 62 146 10 0 18 5 18 10 0 6 10 10 23 10 12
0 37 14 56 30 18 17 38 30 42 30 17 0 176 166 215 225 64 96 68 111 60 243 -5
88 -13 131 -31 177 -14 33 -21 63 -17 66 4 4 58 28 120 53 l113 46 66 -45 c36
-25 72 -45 79 -45 8 0 32 -16 54 -36 28 -26 40 -32 40 -20 0 8 -36 52 -79 96
-44 44 -78 80 -76 80 1 0 22 -9 46 -20 24 -11 53 -20 63 -20 18 0 19 1 1 20
-15 17 -16 24 -7 46 26 55 12 84 -55 118 -50 25 -170 37 -240 24 -32 -6 -92
-12 -134 -13 -56 -1 -89 -8 -123 -25 -43 -20 -49 -21 -63 -8 -13 14 -10 20 27
54 28 27 47 56 59 94 14 42 23 56 43 61 62 16 138 113 138 174 0 30 47 69 100
84 99 29 132 76 136 194 2 71 -5 93 -22 66 -4 -6 -20 -8 -40 -4 -32 6 -47 -6
-24 -20 20 -13 8 -25 -92 -88 -76 -49 -106 -63 -115 -55 -18 15 -41 3 -45 -24
-2 -16 -27 -37 -87 -74 -74 -45 -88 -51 -125 -47 -48 6 -76 -13 -76 -50 0 -30
-7 -38 -64 -77 -48 -32 -49 -32 -75 -16 -14 9 -63 35 -108 58 -95 46 -206 64
-328 53 -38 -4 -82 -7 -96 -6 -17 1 -26 -4 -26 -14 0 -10 10 -15 29 -15 15 0
28 -3 28 -7 0 -10 -85 -49 -125 -59 -21 -5 -25 -8 -12 -11 9 -3 17 -6 17 -9 0
-2 -22 -34 -50 -71 -27 -38 -45 -69 -40 -71 5 -2 2 -15 -7 -29 -17 -25 -17
-26 7 -18 19 6 22 4 17 -10 -4 -9 -7 -25 -7 -36 0 -24 -36 -26 -68 -3 -32 22
-55 3 -47 -40 5 -25 1 -36 -19 -55 -16 -15 -26 -35 -26 -52 0 -16 -10 -37 -22
-49 -13 -12 -23 -24 -23 -28 0 -4 -9 -27 -19 -50 -19 -43 -19 -43 1 -85 12
-23 46 -73 77 -112 31 -38 56 -73 56 -77 0 -21 -32 -1 -110 68 -102 92 -215
176 -332 251 -84 53 -88 57 -88 92 -1 43 -23 226 -45 365 -8 55 -15 101 -15
103 0 1 9 3 19 3 26 0 34 15 17 29 -20 17 -68 130 -62 147 3 8 13 14 21 14 9
0 30 14 47 30 16 17 33 30 36 30 4 0 17 -23 30 -50 29 -63 113 -149 173 -178
25 -12 86 -28 135 -35 l89 -13 30 -58 c41 -80 51 -84 104 -50 41 28 43 31 38
69 -3 22 -9 50 -12 62 -6 17 8 36 73 100 63 62 83 90 101 137 34 93 38 170 12
256 -20 63 -30 80 -88 139 -78 78 -86 110 -48 194 28 66 55 172 55 221 0 20
-5 57 -11 82 l-11 44 -498 0 -499 0 -7 -56z m-37 -801 c-5 -4 -44 12 -57 24
-2 2 9 15 25 28 l30 23 3 -35 c2 -19 1 -37 -1 -40z m2123 -363 c-23 -32 -39
-45 -46 -37 -5 5 51 67 61 67 3 0 -3 -13 -15 -30z m-170 -194 c0 -2 -8 -10
-17 -17 -16 -13 -17 -12 -4 4 13 16 21 21 21 13z m-1891 -198 c5 -18 11 -43
15 -54 6 -19 3 -22 -19 -20 -27 1 -32 21 -19 85 8 37 13 35 23 -11z m10 -170
c-1 -13 -5 -34 -9 -48 -7 -20 -8 -16 -9 23 -1 26 4 47 9 47 6 0 10 -10 9 -22z
m21 -163 c0 -7 -3 -33 -6 -58 -6 -45 -7 -46 -38 -40 -17 3 -32 7 -34 9 -2 1
-1 26 3 56 l7 54 34 -4 c19 -2 34 -10 34 -17z m-43 -247 c-2 -18 -4 -6 -4 27
0 33 2 48 4 33 2 -15 2 -42 0 -60z m31 -157 c-3 -55 -4 -56 -33 -56 -30 0 -30
1 -33 61 l-3 60 36 -4 36 -4 -3 -57z m-41 -208 c-2 -16 -4 -3 -4 27 0 30 2 43
4 28 2 -16 2 -40 0 -55z m41 -159 l3 -60 -36 0 -35 0 0 61 0 60 32 -1 33 -1 3
-59z m-41 -216 c-2 -18 -4 -4 -4 32 0 36 2 50 4 33 2 -18 2 -48 0 -65z m36
-174 c-4 -33 -10 -44 -20 -40 -8 3 -23 1 -34 -4 -18 -10 -19 -7 -19 54 l0 65
33 3 c40 4 49 -14 40 -78z m-43 -171 c-1 -32 -4 -43 -9 -33 -8 14 -4 80 5 80
2 0 4 -21 4 -47z m16 -207 c-6 -39 -9 -41 -41 -42 -39 -1 -39 1 -29 79 5 32
10 44 20 40 7 -2 21 0 31 6 15 8 19 6 21 -17 2 -14 1 -44 -2 -66z"/>
</g>
</svg>
