<?xml version="1.0" standalone="no"?>
<!DOCTYPE svg PUBLIC "-//W3C//DTD SVG 20010904//EN"
 "http://www.w3.org/TR/2001/REC-SVG-20010904/DTD/svg10.dtd">
<svg version="1.0" xmlns="http://www.w3.org/2000/svg"
 width="480.000000pt" height="360.000000pt" viewBox="0 0 480.000000 360.000000"
 preserveAspectRatio="xMidYMid meet">
<metadata>
Created by potrace 1.16, written by Peter Selinger 2001-2019
</metadata>
<rect width="1" height="360" fill="#000000"/>
<rect x="479" width="1" height="360" fill="#000000"/>
<rect width="480" height="1" fill="#000000"/>
<rect y="359" width="480" height="1" fill="#000000"/>
<g transform="translate(0.000000,360.000000) scale(0.100000,-0.100000)"
fill="#000000" stroke="none">
<path d="M0 2266 l0 -1334 37 9 c21 4 52 15 69 23 21 11 84 19 202 25 94 5
176 12 182 16 8 5 9 60 1 93 -1 1 -17 2 -36 2 -24 0 -38 5 -42 16 -6 17 11
159 43 351 9 56 14 109 11 118 -4 8 -17 15 -30 15 -45 0 -61 38 -30 72 9 10
17 26 18 36 1 9 8 42 17 72 39 137 49 199 38 220 -15 27 3 183 25 216 17 27
86 48 124 39 41 -10 71 -34 87 -68 8 -18 20 -40 26 -49 10 -14 9 -21 -6 -37
-14 -16 -17 -30 -13 -58 5 -27 2 -42 -10 -55 -14 -15 -14 -24 -5 -57 7 -21 12
-51 12 -67 0 -21 13 -40 48 -74 26 -25 59 -52 72 -61 24 -16 24 -17 7 -36 -12
-14 -15 -29 -11 -51 7 -36 -8 -43 -37 -16 -17 15 -20 15 -44 0 -24 -16 -25
-21 -20 -64 17 -131 48 -306 67 -380 23 -94 17 -117 -25 -89 -14 9 -37 17 -52
19 -23 2 -30 -2 -38 -27 -8 -24 -7 -31 8 -40 10 -5 31 -22 47 -38 26 -25 28
-29 14 -43 -9 -8 -16 -17 -16 -19 0 -17 498 224 789 382 162 88 158 83 181
227 6 39 13 78 16 87 3 10 -21 33 -73 69 -148 103 -313 231 -313 244 0 16 21
36 38 36 7 0 43 -24 80 -53 136 -109 274 -200 282 -187 4 7 11 39 14 72 6 49
16 72 62 139 56 83 84 136 104 201 14 45 35 67 135 143 44 33 91 72 106 87 14
15 38 30 52 33 41 11 51 28 36 69 -10 27 -16 33 -26 24 -7 -6 -13 -22 -13 -36
0 -14 -3 -22 -7 -19 -3 4 -14 0 -23 -8 -15 -14 -18 -14 -30 0 -7 8 -19 15 -26
15 -9 0 -14 11 -14 30 0 28 -2 29 -26 19 l-27 -10 7 68 c5 54 17 90 58 173
116 234 279 310 437 204 19 -13 36 -22 38 -20 2 2 -2 27 -8 56 -10 45 -9 54 5
68 14 14 21 14 48 4 17 -6 34 -10 36 -8 2 3 6 40 9 84 3 44 10 86 14 94 15 23
29 -11 29 -73 0 -30 7 -79 16 -108 20 -67 15 -86 -37 -145 l-42 -48 33 -66
c35 -69 40 -105 27 -182 l-7 -45 47 0 c27 0 58 6 70 13 12 6 29 9 37 6 9 -3
82 23 163 60 82 36 186 76 233 90 47 13 117 36 155 51 39 15 98 34 132 43 59
15 64 15 118 -6 l57 -20 42 37 c22 20 84 73 136 116 52 43 124 107 160 142 99
95 118 111 140 118 27 9 78 -12 85 -35 15 -47 -52 -120 -112 -120 -30 0 -50
-12 -121 -72 -47 -40 -113 -96 -146 -124 -34 -29 -76 -65 -95 -81 l-35 -30 22
-30 c26 -36 28 -51 7 -59 -8 -3 -17 -14 -20 -25 -4 -11 -15 -19 -29 -19 -12 0
-26 -3 -30 -7 -4 -5 -11 -8 -14 -9 -4 0 -16 -4 -26 -9 -11 -5 -31 -4 -49 3
-42 16 -47 8 -24 -38 28 -57 12 -71 -46 -43 l-43 21 -155 -122 c-425 -331
-507 -394 -539 -416 -19 -13 -37 -27 -40 -31 -4 -6 -146 -110 -242 -178 -27
-19 -38 -36 -43 -63 -4 -21 -4 -42 0 -47 3 -6 -8 -17 -25 -26 -29 -15 -30 -17
-26 -73 3 -31 11 -73 19 -92 8 -19 27 -84 42 -145 l26 -110 82 -49 c137 -83
357 -206 448 -251 93 -47 115 -66 105 -91 -5 -14 -16 -16 -63 -11 -63 7 -199
69 -383 175 -57 33 -106 59 -108 57 -3 -2 14 -35 36 -73 21 -38 56 -114 77
-168 21 -54 41 -103 45 -109 4 -5 12 -31 19 -58 12 -50 4 -83 -25 -100 -8 -4
-21 -22 -30 -40 -23 -43 -53 -70 -111 -98 -26 -13 -49 -24 -51 -25 -1 -1 7
-23 19 -50 40 -91 68 -185 80 -264 l12 -80 1049 0 1048 0 0 1800 0 1800 -345
0 -345 0 6 -25 c5 -19 2 -25 -11 -25 -13 0 -16 6 -13 25 5 24 3 25 -48 25
l-54 0 0 -49 c0 -29 -11 -81 -26 -122 l-26 -73 28 -24 c23 -20 35 -23 71 -18
53 7 58 -10 12 -48 -37 -32 -76 -33 -130 -6 l-40 21 -76 -38 c-97 -48 -172
-55 -254 -24 -99 38 -164 125 -204 274 l-18 67 -52 0 c-37 0 -60 6 -78 20 -25
20 -40 20 -1611 20 l-1586 0 0 -1334z m730 1001 c0 -18 -30 -44 -54 -49 -33
-5 -29 20 6 42 39 23 48 25 48 7z m3444 -355 c2 -4 1 -14 -4 -22 -7 -11 -12
-12 -21 -3 -6 6 -8 16 -5 22 8 13 23 14 30 3z m-2889 -52 c8 0 15 -4 15 -10 0
-5 -6 -10 -14 -10 -16 0 -66 45 -66 59 0 6 11 -1 25 -14 13 -14 31 -25 40 -25z
m3215 -180 c0 -5 -7 -10 -16 -10 -8 0 -12 5 -9 10 3 6 10 10 16 10 5 0 9 -4 9
-10z m222 -567 c25 -22 23 -33 -7 -33 -13 0 -29 8 -34 19 -18 32 10 42 41 14z"/>
<path d="M3355 2623 c-55 -25 -127 -56 -160 -69 -33 -12 -102 -43 -153 -68
-84 -41 -92 -48 -87 -69 5 -18 0 -26 -22 -37 -15 -8 -39 -27 -54 -41 -16 -17
-55 -36 -110 -53 -204 -63 -202 -62 -205 -243 l-1 -122 56 41 c85 63 291 220
436 334 72 56 155 121 186 145 31 24 94 73 140 109 45 36 87 68 92 71 10 7 0
50 -11 48 -4 0 -52 -21 -107 -46z"/>
<path d="M2666 2545 c-8 -8 -21 -15 -30 -15 -14 0 -46 -36 -46 -53 0 -4 25 11
55 34 30 23 55 43 55 45 0 9 -20 3 -34 -11z"/>
<path d="M2510 2439 c-29 -25 -31 -29 -14 -29 23 0 58 33 53 48 -2 6 -20 -3
-39 -19z"/>
<path d="M2066 1970 c-22 -17 -44 -30 -49 -30 -5 0 -28 -20 -52 -45 -36 -36
-48 -59 -65 -122 -12 -43 -23 -85 -26 -95 -3 -11 12 -27 53 -52 l57 -36 23 22
c13 12 23 26 23 31 0 5 12 23 26 40 l26 31 -23 18 c-51 39 -51 35 -13 92 33
50 80 176 66 176 -4 0 -25 -14 -46 -30z"/>
<path d="M1816 1527 c-22 -59 -21 -61 26 -34 52 29 55 38 19 60 l-28 17 -17
-43z"/>
<path d="M1728 1285 c-20 -8 -56 -25 -80 -38 -221 -127 -588 -304 -822 -397
l-108 -43 5 -31 c3 -17 9 -40 13 -50 5 -13 4 -17 -4 -12 -6 4 -16 25 -22 47
-9 33 -15 39 -28 33 -43 -18 -133 -36 -157 -30 -29 7 -68 43 -60 55 2 5 52 28
110 51 102 41 131 68 69 63 -193 -16 -383 -36 -442 -48 -40 -9 -102 -16 -137
-18 l-65 -2 0 -432 0 -433 891 0 892 0 -6 44 c-8 54 7 189 29 278 l17 66 -29
26 c-16 13 -48 35 -71 47 -23 12 -56 36 -72 53 -17 17 -37 36 -45 43 -20 17
-19 132 1 198 9 28 55 136 103 240 90 197 126 283 119 289 -14 11 -70 12 -101
1z m-290 -310 c2 -65 0 -76 -17 -85 -28 -14 -31 -13 -31 16 0 47 30 144 44
144 0 0 2 -34 4 -75z"/>
<path d="M573 1103 c-19 -7 -16 -38 7 -58 19 -17 20 -17 30 10 17 45 2 64 -37
48z"/>
<path d="M715 960 c-3 -6 1 -7 9 -4 18 7 21 14 7 14 -6 0 -13 -4 -16 -10z"/>
<path d="M2001 337 c-7 -19 -41 -283 -41 -322 0 -13 39 -15 278 -15 l279 0
-37 138 c-20 75 -44 153 -52 172 -15 35 -16 35 -74 34 -32 -1 -79 -5 -103 -9
-34 -6 -51 -4 -78 10 -26 14 -36 16 -45 7 -13 -13 -60 -16 -72 -5 -17 17 -47
12 -55 -10z"/>
</g>
</svg>
