<?xml version="1.0" standalone="no"?>
<!DOCTYPE svg PUBLIC "-//W3C//DTD SVG 20010904//EN"
 "http://www.w3.org/TR/2001/REC-SVG-20010904/DTD/svg10.dtd">
<svg version="1.0" xmlns="http://www.w3.org/2000/svg"
 width="480.000000pt" height="360.000000pt" viewBox="0 0 480.000000 360.000000"
 preserveAspectRatio="xMidYMid meet">
<metadata>
Created by potrace 1.16, written by Peter Selinger 2001-2019
</metadata>
<rect width="1" height="360" fill="#000000"/>
<rect x="479" width="1" height="360" fill="#000000"/>
<rect width="480" height="1" fill="#000000"/>
<rect y="359" width="480" height="1" fill="#000000"/>
<g transform="translate(0.000000,360.000000) scale(0.100000,-0.100000)"
fill="#000000" stroke="none">
<path d="M770 3520 c-63 -44 -126 -88 -140 -97 -52 -37 -227 -164 -272 -198
-25 -19 -49 -35 -53 -35 -4 0 -37 -22 -74 -48 -96 -71 -207 -142 -220 -142 -8
0 -11 -403 -11 -1500 l0 -1500 1664 0 1664 0 16 24 c8 13 32 55 52 93 20 37
40 73 45 79 5 6 21 33 35 60 14 27 29 51 33 54 10 8 46 63 72 110 13 24 85
137 160 250 339 513 413 659 439 865 35 276 -57 538 -314 897 -39 54 -75 99
-206 258 -241 290 -267 326 -261 363 1 10 -4 17 -15 17 -21 0 -139 57 -263
128 -52 29 -142 78 -200 109 -58 31 -110 59 -116 63 -5 4 -64 36 -130 70 -66
35 -160 85 -209 112 l-89 48 -746 0 -746 0 -115 -80z m1454 -1275 c174 -49
214 -56 244 -41 16 8 34 22 41 30 17 20 32 21 25 1 -12 -31 7 -65 59 -100 28
-20 119 -89 201 -153 l149 -117 34 -90 c18 -49 61 -150 95 -224 38 -85 57
-139 52 -146 -77 -102 -107 -178 -107 -274 0 -69 -2 -76 -33 -106 -47 -47
-145 -121 -199 -149 -62 -33 -110 -42 -151 -27 -32 12 -67 4 -84 -18 -3 -4
-32 -19 -66 -34 -191 -84 -357 -51 -445 89 -28 44 -29 44 -83 41 -54 -2 -55
-3 -77 -47 -32 -65 -64 -147 -120 -304 -57 -161 -93 -237 -152 -321 -34 -48
-51 -63 -87 -75 -25 -8 -63 -26 -84 -39 l-39 -24 -79 42 -80 43 -47 -46 c-27
-26 -56 -46 -69 -46 -28 0 -56 42 -48 74 4 15 0 29 -12 39 -24 22 -97 47 -137
47 -49 0 -57 17 -50 98 8 72 1 97 -37 139 -15 16 -20 38 -22 90 -1 37 -8 82
-15 98 -12 26 -12 36 1 65 9 19 28 66 44 103 15 38 35 72 45 77 9 6 57 19 106
30 48 11 99 23 112 26 20 4 22 7 10 15 -12 8 -11 11 4 20 9 5 17 15 17 21 0 6
8 20 18 31 9 11 11 17 4 13 -7 -4 -20 -5 -30 -1 -12 5 -6 11 26 27 23 12 39
24 37 27 -3 2 14 18 37 34 24 16 36 27 27 24 -9 -3 -26 1 -37 9 -11 8 -29 11
-39 8 -12 -5 -15 -4 -8 4 6 5 19 12 30 14 11 2 20 8 20 13 0 6 4 16 8 23 5 6
6 16 3 20 -3 5 5 17 16 27 17 14 25 15 39 7 12 -8 24 -8 43 1 31 14 33 36 6
70 -34 43 -50 93 -50 154 0 36 4 53 9 45 6 -11 13 -7 30 14 31 40 47 99 33
128 -14 32 3 167 27 212 11 19 21 30 23 23 6 -19 104 38 136 79 69 88 109 122
141 122 17 0 57 6 89 14 31 8 102 24 157 36 55 12 111 25 125 30 30 11 96 5
164 -15z"/>
<path d="M1455 1965 c-50 -31 -65 -51 -65 -87 l0 -29 44 45 c49 50 83 96 70
96 -5 0 -27 -12 -49 -25z"/>
<path d="M1367 1648 c-15 -29 -35 -65 -44 -80 -16 -25 -16 -30 0 -82 10 -30
24 -59 31 -63 7 -5 16 -16 19 -26 5 -14 13 -17 29 -11 47 14 50 22 46 124 -3
76 -9 104 -29 143 l-25 47 -27 -52z"/>
<path d="M2788 981 c-67 -22 -160 -79 -155 -95 8 -25 66 -17 141 20 42 20 76
40 76 45 0 5 5 9 11 9 6 0 22 9 36 20 l26 20 -39 -1 c-22 0 -65 -8 -96 -18z"/>
<path d="M2091 879 c36 -52 53 -67 92 -81 60 -22 188 -25 237 -5 19 8 44 17
54 21 16 6 9 12 -39 37 -95 51 -187 77 -292 85 l-97 7 45 -64z"/>
</g>
</svg>
