<?xml version="1.0" standalone="no"?>
<!DOCTYPE svg PUBLIC "-//W3C//DTD SVG 20010904//EN"
 "http://www.w3.org/TR/2001/REC-SVG-20010904/DTD/svg10.dtd">
<svg version="1.0" xmlns="http://www.w3.org/2000/svg"
 width="480.000000pt" height="360.000000pt" viewBox="0 0 480.000000 360.000000"
 preserveAspectRatio="xMidYMid meet">
<metadata>
Created by potrace 1.16, written by Peter Selinger 2001-2019
</metadata>
<rect width="1" height="360" fill="#000000"/>
<rect x="479" width="1" height="360" fill="#000000"/>
<rect width="480" height="1" fill="#000000"/>
<rect y="359" width="480" height="1" fill="#000000"/>
<g transform="translate(0.000000,360.000000) scale(0.100000,-0.100000)"
fill="#000000" stroke="none">
<path d="M0 1800 l0 -1800 1025 0 1025 0 0 23 c0 12 -7 82 -16 156 -18 142
-18 145 21 601 16 187 17 190 46 348 10 57 19 146 19 199 0 53 5 113 11 133 9
28 8 52 0 96 -7 33 -16 115 -21 184 -11 142 -12 151 -42 242 l-22 67 23 113
c13 62 32 135 42 161 31 77 86 155 134 189 44 31 57 52 16 26 -17 -10 -25 -10
-39 0 -9 6 -28 17 -41 22 -13 6 -29 17 -35 25 -6 7 -20 15 -31 17 -13 3 -19
10 -17 23 10 63 6 68 -48 55 -33 -8 -74 13 -90 47 -7 16 -15 23 -17 15 -12
-33 -23 8 -23 86 0 99 16 144 73 204 l35 37 -19 38 c-21 40 -21 40 26 68 15 9
15 15 -5 68 -12 32 -20 61 -17 63 3 3 24 -12 48 -33 31 -28 40 -33 36 -18 -26
89 -29 106 -23 112 16 16 157 -86 199 -144 15 -22 35 -34 72 -43 76 -19 119
-44 164 -97 60 -70 83 -120 146 -307 61 -183 57 -174 167 -386 42 -80 88 -182
103 -227 23 -72 25 -90 18 -142 -5 -32 -6 -91 -2 -130 6 -56 4 -84 -12 -138
-10 -37 -19 -70 -19 -72 0 -2 -6 -1 -14 2 -22 9 -47 -27 -53 -75 -7 -49 -38
-118 -54 -118 -6 0 -8 7 -5 16 4 9 -14 -4 -39 -29 -40 -41 -44 -48 -35 -74 10
-33 27 -384 40 -833 11 -387 15 -449 37 -517 l17 -53 998 0 998 0 0 1800 0
1800 -2400 0 -2400 0 0 -1800z"/>
<path d="M2133 1757 c4 -104 18 -153 33 -114 11 29 -2 150 -19 187 -17 35 -17
34 -14 -73z"/>
<path d="M2668 1557 c-15 -31 -15 -35 2 -56 l17 -24 6 37 c3 21 3 46 -1 57 -7
18 -9 17 -24 -14z"/>
</g>
</svg>
