<?xml version="1.0" standalone="no"?>
<!DOCTYPE svg PUBLIC "-//W3C//DTD SVG 20010904//EN"
 "http://www.w3.org/TR/2001/REC-SVG-20010904/DTD/svg10.dtd">
<svg version="1.0" xmlns="http://www.w3.org/2000/svg"
 width="480.000000pt" height="360.000000pt" viewBox="0 0 480.000000 360.000000"
 preserveAspectRatio="xMidYMid meet">
<metadata>
Created by potrace 1.16, written by Peter Selinger 2001-2019
</metadata>
<rect width="1" height="360" fill="#000000"/>
<rect x="479" width="1" height="360" fill="#000000"/>
<rect width="480" height="1" fill="#000000"/>
<rect y="359" width="480" height="1" fill="#000000"/>
<g transform="translate(0.000000,360.000000) scale(0.100000,-0.100000)"
fill="#000000" stroke="none">
<path d="M676 3585 c-11 -8 -43 -21 -72 -30 -122 -35 -208 -217 -174 -366 40
-177 81 -269 121 -269 9 0 22 -13 29 -31 9 -20 25 -35 51 -46 22 -8 39 -19 39
-23 0 -5 -42 -71 -93 -147 -111 -164 -262 -412 -254 -419 7 -7 120 48 133 66
9 11 11 -7 8 -75 -3 -86 13 -172 48 -265 l9 -24 21 32 c21 34 33 40 41 20 7
-20 47 -237 53 -293 l6 -50 19 24 c10 13 19 33 19 45 0 23 20 61 20 39 0 -7
12 -13 26 -13 15 0 40 -14 62 -35 20 -19 41 -35 45 -35 4 0 19 -25 33 -55 14
-30 28 -55 30 -55 3 0 2 5 -1 10 -3 6 -4 10 -1 10 3 0 25 -28 50 -63 25 -34
55 -72 66 -82 l22 -20 -16 39 c-20 48 -20 48 2 44 12 -2 18 5 20 22 1 14 5 36
8 50 l6 25 12 -30 c11 -26 12 -19 8 58 -8 157 45 429 126 648 47 125 65 161
104 212 l30 37 -21 45 c-26 56 -27 97 -1 151 l21 42 -25 37 c-35 51 -66 138
-66 185 0 90 57 241 124 325 17 22 39 51 48 65 9 14 24 35 34 47 11 11 26 31
34 44 8 12 26 36 40 53 60 73 103 66 -386 66 -367 -1 -442 -3 -458 -15z"/>
<path d="M1610 3562 c0 -20 -8 -67 -19 -103 -34 -119 -34 -152 -1 -309 16 -80
30 -161 30 -180 0 -39 -41 -134 -71 -166 -20 -21 -20 -23 -3 -55 10 -19 20
-51 23 -73 6 -35 10 -40 56 -57 92 -34 184 -127 427 -430 69 -87 147 -188 174
-225 26 -38 68 -93 93 -123 25 -29 53 -62 62 -74 16 -19 17 -19 53 19 20 21
71 86 114 143 95 129 302 388 395 496 87 101 169 170 227 192 51 19 60 28 60
61 0 12 9 40 19 61 l20 38 -33 49 c-64 96 -68 134 -30 297 30 128 34 247 10
314 -8 24 -18 70 -22 103 l-7 60 -788 0 -789 0 0 -38z"/>
<path d="M3308 3498 c178 -232 223 -317 242 -449 12 -86 -1 -146 -51 -223 -31
-50 -31 -50 -13 -80 25 -41 25 -131 0 -171 l-18 -31 37 -54 c47 -70 75 -134
119 -268 63 -197 106 -412 106 -537 0 -33 -10 -116 -22 -185 -23 -126 -26
-181 -19 -345 2 -49 1 -126 -3 -170 l-8 -80 39 -60 c61 -93 179 -207 233 -225
39 -13 48 -22 70 -67 34 -71 50 -87 157 -158 2 -1 -3 -16 -9 -33 -9 -24 -9
-35 -1 -43 8 -8 6 -19 -8 -43 -10 -17 -19 -39 -19 -48 0 -14 -8 -16 -44 -14
-25 1 -51 7 -58 14 -7 6 -29 43 -48 81 -18 39 -36 71 -39 71 -3 0 -13 -15 -21
-33 l-15 -32 -135 1 c-83 0 -143 5 -156 12 -18 9 -24 9 -34 -3 -9 -11 -7 -46
9 -158 12 -80 21 -150 21 -156 0 -8 64 -11 220 -11 l220 0 -6 28 c-3 15 -10
40 -15 56 -8 26 -7 28 14 22 12 -3 27 -6 33 -6 6 0 21 -22 33 -50 l22 -50 124
0 125 0 0 26 c0 14 4 23 10 19 13 -8 13 -12 -5 149 -8 75 -15 171 -14 214 0
42 -3 86 -7 97 -22 59 12 -7 69 -135 97 -217 146 -320 151 -320 3 0 -8 32 -24
70 -53 128 -162 422 -158 426 2 2 35 -8 74 -21 113 -40 116 -34 27 58 -135
141 -188 229 -208 350 -23 137 -27 194 -26 397 0 212 6 252 37 255 10 1 38 5
62 9 59 11 92 -5 124 -59 32 -52 43 -54 124 -24 116 44 172 127 161 240 -8 95
-52 172 -163 286 -73 76 -104 118 -140 188 -51 98 -88 155 -129 197 l-25 28
29 57 c46 92 82 219 88 314 12 186 -79 459 -233 697 l-54 82 -465 0 -466 0 79
-102z"/>
<path d="M1038 1192 c-31 -20 -59 -44 -62 -54 -6 -24 37 -74 85 -98 21 -11 40
-20 41 -20 2 0 4 47 5 105 1 58 -1 105 -5 104 -4 0 -33 -17 -64 -37z"/>
</g>
</svg>
