<?xml version="1.0" standalone="no"?>
<!DOCTYPE svg PUBLIC "-//W3C//DTD SVG 20010904//EN"
 "http://www.w3.org/TR/2001/REC-SVG-20010904/DTD/svg10.dtd">
<svg version="1.0" xmlns="http://www.w3.org/2000/svg"
 width="480.000000pt" height="360.000000pt" viewBox="0 0 480.000000 360.000000"
 preserveAspectRatio="xMidYMid meet">
<metadata>
Created by potrace 1.16, written by Peter Selinger 2001-2019
</metadata>
<rect width="1" height="360" fill="#000000"/>
<rect x="479" width="1" height="360" fill="#000000"/>
<rect width="480" height="1" fill="#000000"/>
<rect y="359" width="480" height="1" fill="#000000"/>
<g transform="translate(0.000000,360.000000) scale(0.100000,-0.100000)"
fill="#000000" stroke="none">
<path d="M0 1800 l0 -1800 969 0 968 0 56 173 c55 167 56 174 42 212 -17 49
-19 90 -4 117 8 16 8 24 -4 35 -13 13 -12 22 4 74 73 235 130 479 130 561 0
10 11 26 23 36 13 10 27 33 31 52 6 29 5 33 -7 23 -11 -10 -14 -2 -16 50 -6
158 -9 181 -24 191 -11 6 -21 3 -37 -13 -27 -27 -54 -16 -69 28 -18 52 16 75
130 86 74 8 118 22 118 40 0 17 83 37 117 29 15 -4 42 -17 60 -30 22 -15 56
-25 101 -29 78 -9 132 -28 132 -48 0 -8 -3 -29 -6 -46 -7 -35 -27 -40 -56 -14
-17 15 -20 15 -34 1 -12 -11 -13 -21 -6 -34 5 -11 15 -47 22 -81 9 -44 20 -69
41 -89 34 -33 40 -61 10 -44 -29 15 -30 13 -15 -27 9 -28 11 -68 7 -144 -7
-119 -7 -118 90 -412 50 -153 51 -159 33 -173 -16 -11 -19 -25 -17 -86 1 -47
-4 -82 -13 -100 -13 -24 -10 -38 36 -182 l50 -156 969 0 969 0 0 1800 0 1800
-2400 0 -2400 0 0 -1800z"/>
</g>
</svg>
