<?xml version="1.0" standalone="no"?>
<!DOCTYPE svg PUBLIC "-//W3C//DTD SVG 20010904//EN"
 "http://www.w3.org/TR/2001/REC-SVG-20010904/DTD/svg10.dtd">
<svg version="1.0" xmlns="http://www.w3.org/2000/svg"
 width="480.000000pt" height="360.000000pt" viewBox="0 0 480.000000 360.000000"
 preserveAspectRatio="xMidYMid meet">
<metadata>
Created by potrace 1.16, written by Peter Selinger 2001-2019
</metadata>
<rect width="1" height="360" fill="#000000"/>
<rect x="479" width="1" height="360" fill="#000000"/>
<rect width="480" height="1" fill="#000000"/>
<rect y="359" width="480" height="1" fill="#000000"/>
<g transform="translate(0.000000,360.000000) scale(0.100000,-0.100000)"
fill="#000000" stroke="none">
<path d="M1471 2881 c-46 -16 -57 -17 -79 -5 -28 14 -56 5 -79 -25 -9 -12 -9
-21 2 -37 9 -13 10 -26 4 -35 -5 -8 -16 -36 -24 -62 -13 -46 -13 -51 9 -101
13 -30 30 -57 37 -62 23 -14 38 -13 32 2 -4 10 0 12 11 8 21 -8 20 -27 -3 -55
-18 -23 -18 -23 32 -86 28 -35 55 -63 59 -63 17 0 -3 -20 -20 -21 -9 0 -27
-13 -39 -28 -20 -25 -21 -30 -8 -55 15 -29 10 -56 -10 -56 -17 0 -101 -91
-110 -119 -4 -13 -18 -39 -31 -58 -40 -59 -26 -123 41 -181 17 -15 24 -29 21
-45 -3 -12 -8 -49 -11 -82 -6 -56 -39 -136 -73 -177 -10 -11 -11 -22 -4 -34 7
-12 1 -40 -19 -97 -21 -59 -26 -83 -17 -88 9 -6 8 -17 -4 -46 -30 -72 -32 -78
-33 -118 -1 -22 -9 -92 -18 -155 -50 -343 -85 -632 -112 -927 l-6 -73 490 0
c398 0 491 2 491 13 0 7 -9 60 -19 118 -22 120 -43 267 -66 459 -28 237 -100
524 -180 712 -5 13 -2 15 17 10 20 -5 18 0 -17 44 -70 86 -68 80 -54 106 6 13
36 54 65 92 64 82 68 112 29 225 -25 74 -23 102 7 114 9 3 6 10 -8 21 -20 14
-21 20 -12 53 23 85 21 125 -12 213 -17 46 -35 89 -40 95 -5 6 -3 18 5 28 10
14 14 15 18 5 4 -11 7 -10 15 1 7 10 11 10 17 1 5 -8 12 -7 26 6 15 13 22 14
33 5 13 -11 15 -5 18 36 3 43 5 48 25 46 18 -2 23 4 31 40 6 30 13 42 25 41 9
-1 17 0 17 2 0 14 -52 129 -69 153 -12 16 -21 42 -21 58 0 20 -13 43 -42 75
-24 25 -54 58 -68 73 -14 16 -39 34 -57 42 -45 18 -148 16 -212 -6z"/>
<path d="M3170 2141 c-168 -62 -190 -78 -190 -140 0 -22 8 -36 30 -53 24 -17
30 -29 30 -59 0 -34 -5 -41 -47 -70 -65 -43 -110 -86 -139 -132 l-24 -37 -33
16 c-17 9 -70 42 -116 72 -79 53 -84 55 -97 38 -7 -11 -15 -23 -17 -29 -2 -6
-16 -3 -34 7 -41 20 -46 20 -38 -3 10 -31 -18 -43 -96 -40 -44 1 -74 -2 -76
-8 -8 -22 88 -65 154 -71 l65 -5 -7 -42 -6 -43 83 -11 c116 -17 292 -78 444
-154 150 -75 168 -91 159 -138 -4 -28 4 -53 45 -133 55 -109 58 -126 34 -186
-12 -29 -13 -44 -5 -53 8 -10 7 -19 -4 -34 -29 -41 -58 -133 -105 -333 -27
-113 -57 -230 -68 -260 -23 -66 -15 -93 32 -110 17 -7 40 -16 51 -20 11 -5 46
-12 78 -15 l57 -6 12 -45 12 -44 131 0 131 0 15 47 c14 47 14 47 80 64 103 25
101 22 65 113 -15 38 -29 101 -36 166 -18 179 -40 332 -56 394 -9 35 -12 62
-6 68 5 5 0 47 -14 106 -13 53 -32 148 -44 210 -11 63 -27 124 -35 136 -14 20
-13 24 2 39 61 54 366 147 538 164 67 7 81 11 89 29 6 13 25 25 51 32 44 12
95 46 95 65 0 20 -51 37 -106 37 -56 0 -73 12 -53 36 16 20 5 28 -20 14 -17
-9 -26 -7 -50 11 l-30 22 -70 -42 c-38 -23 -116 -63 -172 -87 -57 -25 -156
-72 -221 -106 -64 -34 -120 -60 -123 -57 -8 8 26 109 37 109 5 0 4 9 -2 20 -7
13 -7 20 -1 20 6 0 8 6 6 13 -3 6 12 22 33 34 57 32 137 108 156 147 22 46 13
76 -34 125 -50 51 -111 66 -236 58 l-93 -6 -21 34 c-16 27 -19 39 -11 54 22
41 -26 102 -79 100 -14 0 -59 -13 -100 -28z"/>
</g>
</svg>
