<?xml version="1.0" standalone="no"?>
<!DOCTYPE svg PUBLIC "-//W3C//DTD SVG 20010904//EN"
 "http://www.w3.org/TR/2001/REC-SVG-20010904/DTD/svg10.dtd">
<svg version="1.0" xmlns="http://www.w3.org/2000/svg"
 width="480.000000pt" height="360.000000pt" viewBox="0 0 480.000000 360.000000"
 preserveAspectRatio="xMidYMid meet">
<metadata>
Created by potrace 1.16, written by Peter Selinger 2001-2019
</metadata>
<rect width="1" height="360" fill="#000000"/>
<rect x="479" width="1" height="360" fill="#000000"/>
<rect width="480" height="1" fill="#000000"/>
<rect y="359" width="480" height="1" fill="#000000"/>
<g transform="translate(0.000000,360.000000) scale(0.100000,-0.100000)"
fill="#000000" stroke="none">
<path d="M0 1800 l0 -1800 1375 0 c997 0 1375 3 1375 11 0 6 -16 129 -35 273
-58 431 -101 646 -150 748 -46 96 -55 101 -198 129 -168 32 -224 54 -291 118
-32 31 -85 91 -117 134 -66 89 -76 124 -65 245 8 89 22 113 104 176 31 24 72
60 91 80 31 32 33 38 23 61 -22 48 -7 62 25 25 10 -11 20 -20 24 -20 3 0 26
16 50 35 88 70 214 83 315 35 134 -65 265 -285 266 -446 1 -69 -10 -93 -60
-147 l-36 -37 43 -42 c89 -87 148 -198 231 -440 l34 -97 71 77 c174 188 186
203 180 234 -4 15 -1 70 6 121 12 82 18 99 57 157 25 36 51 73 60 82 17 20 16
22 -55 100 l-43 47 20 34 21 35 -22 36 c-11 20 -25 36 -29 36 -5 0 -18 -16
-30 -35 -28 -45 -43 -45 -34 0 l6 36 -76 -41 c-109 -57 -130 -54 -179 26 -14
23 -39 51 -56 63 -25 18 -29 26 -24 54 4 28 0 37 -25 58 -16 13 -43 31 -59 40
-25 14 -32 25 -37 63 -8 49 -15 58 -76 98 -49 33 -52 67 -6 92 19 10 44 28 55
40 l19 21 -54 60 c-52 58 -83 71 -50 21 18 -28 21 -40 7 -31 -6 3 -14 -2 -19
-12 -9 -14 -12 -12 -26 20 -17 42 -40 51 -30 12 9 -35 -8 -31 -31 8 l-19 32
-6 -25 c-6 -23 -9 -20 -42 37 -38 65 -68 140 -68 172 0 19 -39 51 -63 51 -21
0 -181 118 -191 141 -12 25 -203 162 -216 154 -5 -3 -29 12 -53 35 -24 22 -48
40 -52 40 -14 0 -205 172 -205 184 0 7 -13 25 -30 41 -33 32 -39 55 -13 55 13
0 9 9 -17 35 -24 25 -45 36 -77 41 -36 5 -51 15 -88 57 -29 33 -43 58 -39 69
3 11 -3 21 -16 28 -12 6 -25 22 -30 36 l-10 24 -655 0 -655 0 0 -1800z"/>
<path d="M4742 3370 c-47 -11 -50 -16 -62 -95 -17 -119 -16 -121 33 -129 23
-4 52 -9 65 -13 22 -5 22 -5 22 121 0 136 3 131 -58 116z"/>
<path d="M4756 913 c36 -81 44 -86 44 -26 0 43 -4 53 -25 67 -41 27 -45 18
-19 -41z"/>
</g>
</svg>
