<?xml version="1.0" standalone="no"?>
<!DOCTYPE svg PUBLIC "-//W3C//DTD SVG 20010904//EN"
 "http://www.w3.org/TR/2001/REC-SVG-20010904/DTD/svg10.dtd">
<svg version="1.0" xmlns="http://www.w3.org/2000/svg"
 width="480.000000pt" height="360.000000pt" viewBox="0 0 480.000000 360.000000"
 preserveAspectRatio="xMidYMid meet">
<metadata>
Created by potrace 1.16, written by Peter Selinger 2001-2019
</metadata>
<rect width="1" height="360" fill="#000000"/>
<rect x="479" width="1" height="360" fill="#000000"/>
<rect width="480" height="1" fill="#000000"/>
<rect y="359" width="480" height="1" fill="#000000"/>
<g transform="translate(0.000000,360.000000) scale(0.100000,-0.100000)"
fill="#000000" stroke="none">
<path d="M1538 3558 c-30 -59 -38 -220 -13 -304 24 -85 76 -171 137 -230 60
-58 101 -83 173 -109 28 -10 54 -22 58 -26 15 -12 -74 -23 -185 -21 -117 2
-119 1 -137 -65 -3 -13 -38 -47 -76 -76 -71 -53 -87 -82 -52 -98 9 -5 25 -13
35 -18 9 -4 29 -32 44 -62 35 -69 36 -127 3 -194 -23 -47 -31 -75 -21 -75 3 0
16 4 30 10 20 7 26 6 30 -8 8 -27 8 -308 0 -403 -6 -81 -5 -88 16 -109 19 -19
22 -29 16 -73 -3 -29 -12 -54 -20 -59 -21 -12 -36 -71 -36 -140 0 -45 4 -61
21 -77 19 -17 20 -26 14 -68 -4 -27 -16 -58 -28 -71 -18 -20 -23 -38 -26 -113
-2 -75 0 -93 14 -109 25 -27 16 -115 -13 -136 -36 -25 -50 -208 -18 -226 11
-6 16 -23 16 -58 0 -57 -7 -80 -26 -80 -19 0 -34 -63 -34 -142 0 -77 6 -98 27
-98 13 0 15 -10 9 -62 -4 -41 -12 -67 -22 -75 -18 -13 -33 -75 -34 -140 0 -36
3 -43 20 -43 17 0 20 7 20 43 0 64 8 86 31 80 10 -3 26 0 34 7 12 10 15 7 21
-14 3 -15 3 -46 0 -71 -7 -41 -5 -45 13 -45 19 0 21 6 21 80 0 68 -3 83 -20
97 -30 26 -28 111 4 146 41 45 48 214 9 236 -24 13 -11 106 19 138 19 21 23
37 26 122 4 92 3 99 -16 105 -18 6 -20 13 -15 59 3 35 11 58 24 69 27 23 39
70 39 150 0 57 -3 69 -21 82 -19 13 -21 21 -15 62 3 28 15 57 27 70 40 43 51
166 19 207 -11 14 -20 37 -20 51 0 24 2 23 48 -20 55 -53 209 -157 412 -278
80 -48 149 -91 154 -96 14 -14 -10 -59 -38 -71 -13 -6 -30 -23 -37 -38 -7 -14
-28 -52 -47 -83 -28 -47 -33 -64 -30 -100 3 -33 -3 -59 -27 -113 -41 -90 -54
-149 -85 -385 -15 -112 18 -251 82 -340 10 -14 21 -53 24 -88 l7 -62 541 2
541 3 7 60 c10 78 11 514 2 626 -9 117 20 333 49 360 11 10 24 16 29 13 4 -3
11 2 14 10 3 9 15 16 26 16 45 0 200 138 284 252 72 99 79 129 66 282 -6 72
-18 148 -27 168 l-15 38 32 13 c18 7 70 28 115 47 l81 33 54 -35 c29 -19 64
-41 78 -48 14 -7 37 -24 53 -38 54 -51 26 -1 -38 65 -36 37 -65 69 -65 71 0 1
16 -5 36 -13 20 -8 43 -15 52 -15 13 0 12 3 -3 20 -15 17 -16 24 -7 46 45 97
-25 142 -233 151 -212 9 -216 8 -274 -21 -43 -22 -55 -25 -62 -14 -11 17 -11
38 -1 38 24 0 82 76 93 122 12 46 17 51 66 74 59 28 95 77 112 152 12 57 34
79 93 97 105 31 140 78 144 198 l2 78 -22 -14 c-15 -10 -27 -12 -39 -5 -23 12
-42 1 -27 -17 17 -20 8 -29 -90 -95 -71 -47 -96 -60 -122 -58 -28 3 -33 0 -31
-18 2 -17 -16 -33 -86 -78 -77 -49 -92 -55 -124 -49 -45 7 -74 -14 -83 -62 -4
-25 -19 -42 -65 -74 l-59 -41 -40 25 c-134 85 -305 115 -462 83 -62 -13 -72
-22 -35 -32 21 -5 20 -7 -13 -30 -30 -20 -111 -51 -115 -43 -1 1 -9 22 -18 46
l-17 44 28 34 c85 105 102 131 116 183 46 163 -11 324 -144 410 -33 21 -49 38
-46 47 3 7 1 22 -6 32 -8 14 -7 29 7 67 10 28 19 92 22 151 5 88 2 112 -17
173 l-23 70 -448 0 -449 0 -22 -42z m12 -904 c0 -34 -1 -36 -27 -29 -39 9 -39
12 -13 40 32 34 40 32 40 -11z m2344 11 c-4 -8 -11 -15 -16 -15 -6 0 -5 6 2
15 7 8 14 15 16 15 2 0 1 -7 -2 -15z m-1857 -205 c75 -67 121 -83 243 -88
l105 -4 30 -46 c46 -69 56 -72 108 -29 25 20 51 37 57 37 6 0 -9 -30 -35 -66
-30 -44 -43 -69 -35 -74 8 -5 6 -11 -5 -20 -19 -16 -20 -31 0 -24 11 5 15 -1
15 -24 0 -41 -8 -44 -57 -22 -23 10 -44 16 -47 12 -3 -3 -6 -23 -6 -45 0 -30
-6 -46 -25 -63 -14 -13 -25 -33 -25 -45 0 -12 -6 -30 -13 -38 -29 -34 -57
-119 -48 -143 10 -26 91 -139 127 -178 22 -25 23 -25 4 -49 l-18 -25 -98 65
c-174 115 -404 239 -444 239 -6 0 -10 30 -10 75 0 75 -26 343 -36 378 -4 13 3
20 26 28 28 10 30 13 16 28 -21 23 -56 108 -56 137 0 16 8 28 23 33 12 5 40
27 61 50 l40 41 27 -49 c15 -27 49 -68 76 -91z m1633 -19 c0 -14 -50 -71 -62
-71 -5 0 5 18 22 40 33 41 40 47 40 31z m-199 -244 c-13 -12 -20 -15 -16 -7
14 26 28 41 33 35 3 -3 -5 -16 -17 -28z m-1811 -657 c0 -65 -9 -93 -26 -79 -7
6 -23 9 -36 7 -21 -3 -23 0 -20 37 5 76 8 82 47 81 35 -1 35 -1 35 -46z m-70
-310 c13 -7 21 -7 25 0 4 6 11 8 16 4 11 -7 1 -124 -12 -138 -6 -6 -9 -5 -9 3
0 10 -9 12 -31 7 l-32 -6 7 52 c3 29 6 61 6 71 0 20 4 21 30 7z m-8 -362 c7 7
16 12 21 12 13 0 2 -129 -12 -143 -8 -8 -11 -8 -11 1 0 16 -32 15 -49 0 -11
-11 -12 -1 -7 56 8 81 13 91 32 75 11 -9 18 -9 26 -1z m-7 -485 c-5 -20 -8
-21 -24 -11 -15 9 -23 9 -35 -1 -18 -15 -20 -8 -17 54 4 67 11 82 35 78 13 -3
27 1 32 9 11 15 18 -94 9 -129z"/>
</g>
</svg>
