<?xml version="1.0" standalone="no"?>
<!DOCTYPE svg PUBLIC "-//W3C//DTD SVG 20010904//EN"
 "http://www.w3.org/TR/2001/REC-SVG-20010904/DTD/svg10.dtd">
<svg version="1.0" xmlns="http://www.w3.org/2000/svg"
 width="480.000000pt" height="360.000000pt" viewBox="0 0 480.000000 360.000000"
 preserveAspectRatio="xMidYMid meet">
<metadata>
Created by potrace 1.16, written by Peter Selinger 2001-2019
</metadata>
<rect width="1" height="360" fill="#000000"/>
<rect x="479" width="1" height="360" fill="#000000"/>
<rect width="480" height="1" fill="#000000"/>
<rect y="359" width="480" height="1" fill="#000000"/>
<g transform="translate(0.000000,360.000000) scale(0.100000,-0.100000)"
fill="#000000" stroke="none">
<path d="M0 1800 l0 -1800 1061 0 1061 0 -7 197 c-8 234 -15 287 -60 453 -46
168 -58 244 -50 310 8 62 36 142 71 203 13 23 24 56 24 72 0 17 14 53 30 80
33 56 37 75 15 75 -22 0 -19 7 25 47 23 20 50 49 62 65 l20 29 -21 15 c-11 8
-21 23 -21 33 0 20 128 139 174 161 28 14 32 21 38 75 4 33 10 81 13 107 l6
48 -38 -3 c-35 -2 -39 1 -56 38 -11 22 -28 49 -38 61 -11 11 -16 24 -12 27 4
4 -3 14 -15 23 -12 8 -22 24 -22 36 0 11 -13 33 -30 48 -37 34 -38 48 -4 75
30 24 28 43 -12 90 -18 20 -22 23 -15 8 14 -28 14 -28 -9 -30 -15 -1 -20 5
-21 25 -2 25 -2 25 -6 4 -9 -46 -37 -5 -59 83 l-7 30 -7 -25 c-6 -22 -8 -19
-18 25 -6 28 -8 64 -5 80 l5 30 -22 -33 c-13 -18 -24 -31 -26 -29 -7 6 24 113
49 169 64 145 159 254 264 303 135 64 356 98 490 76 111 -19 183 -59 277 -154
107 -106 129 -138 154 -217 72 -230 86 -381 70 -795 -11 -303 -10 -316 16
-600 16 -184 30 -425 37 -660 6 -203 13 -434 16 -513 l5 -142 699 0 699 0 0
1800 0 1800 -2400 0 -2400 0 0 -1800z"/>
</g>
</svg>
