<?xml version="1.0" standalone="no"?>
<!DOCTYPE svg PUBLIC "-//W3C//DTD SVG 20010904//EN"
 "http://www.w3.org/TR/2001/REC-SVG-20010904/DTD/svg10.dtd">
<svg version="1.0" xmlns="http://www.w3.org/2000/svg"
 width="480.000000pt" height="360.000000pt" viewBox="0 0 480.000000 360.000000"
 preserveAspectRatio="xMidYMid meet">
<metadata>
Created by potrace 1.16, written by Peter Selinger 2001-2019
</metadata>
<rect width="1" height="360" fill="#000000"/>
<rect x="479" width="1" height="360" fill="#000000"/>
<rect width="480" height="1" fill="#000000"/>
<rect y="359" width="480" height="1" fill="#000000"/>
<g transform="translate(0.000000,360.000000) scale(0.100000,-0.100000)"
fill="#000000" stroke="none">
<path d="M2540 2311 c-63 -21 -135 -48 -159 -60 -64 -33 -136 -105 -175 -175
-19 -34 -55 -80 -79 -102 -25 -23 -56 -61 -69 -85 -20 -39 -23 -57 -22 -159 0
-153 25 -247 109 -417 73 -147 132 -232 213 -310 100 -94 226 -132 362 -108
122 22 165 45 293 162 75 68 102 76 135 37 47 -56 144 -154 151 -154 4 0 16 9
26 20 18 20 17 22 -54 92 -40 39 -80 82 -88 95 -15 23 -14 26 23 65 52 55 71
72 119 104 133 89 193 269 146 445 -40 155 -120 266 -272 379 -140 104 -270
166 -411 195 -96 21 -118 19 -248 -24z"/>
</g>
</svg>
