<?xml version="1.0" standalone="no"?>
<!DOCTYPE svg PUBLIC "-//W3C//DTD SVG 20010904//EN"
 "http://www.w3.org/TR/2001/REC-SVG-20010904/DTD/svg10.dtd">
<svg version="1.0" xmlns="http://www.w3.org/2000/svg"
 width="480.000000pt" height="360.000000pt" viewBox="0 0 480.000000 360.000000"
 preserveAspectRatio="xMidYMid meet">
<metadata>
Created by potrace 1.16, written by Peter Selinger 2001-2019
</metadata>
<rect width="1" height="360" fill="#000000"/>
<rect x="479" width="1" height="360" fill="#000000"/>
<rect width="480" height="1" fill="#000000"/>
<rect y="359" width="480" height="1" fill="#000000"/>
<g transform="translate(0.000000,360.000000) scale(0.100000,-0.100000)"
fill="#000000" stroke="none">
<path d="M1 3128 c0 -465 0 -472 18 -429 20 49 63 101 84 101 21 0 158 77 188
106 14 13 28 24 32 24 4 0 28 16 54 36 27 19 55 41 64 47 20 16 42 30 106 67
29 17 78 50 110 73 232 171 389 260 748 428 39 19 31 19 -682 19 l-723 0 1
-472z"/>
<path d="M3731 3523 c28 -43 64 -96 79 -118 35 -52 156 -273 181 -331 33 -78
22 -214 -17 -214 -9 0 -39 20 -65 45 -26 25 -52 45 -57 45 -12 0 -22 -100 -17
-170 2 -30 11 -109 20 -175 32 -224 7 -501 -66 -726 -43 -136 -149 -323 -238
-425 -92 -105 -246 -208 -376 -252 -70 -23 -95 -26 -205 -26 -91 0 -136 5
-168 17 -144 56 -207 203 -153 364 34 101 44 496 16 604 -31 120 -51 138 -106
98 -27 -19 -35 -19 -116 -10 -49 5 -110 17 -136 26 -56 19 -94 17 -89 -5 2 -8
6 -46 9 -85 6 -82 -15 -154 -98 -331 l-50 -107 1 -101 c3 -268 74 -453 235
-613 69 -68 99 -89 176 -126 52 -25 117 -52 144 -61 177 -57 545 -76 667 -35
136 45 328 169 500 322 110 97 324 348 362 425 9 17 20 32 25 32 5 0 33 36 62
80 53 79 64 87 82 59 18 -28 -98 -232 -223 -390 -19 -24 -93 -106 -165 -182
-143 -152 -175 -192 -175 -219 0 -23 40 -23 125 -3 73 18 166 19 234 3 57 -13
101 -58 126 -129 25 -70 18 -105 -46 -245 -23 -52 -23 -54 -3 -54 19 0 115
-30 129 -41 14 -10 97 -39 114 -39 8 0 37 -11 65 -24 28 -14 69 -26 91 -29 22
-2 47 -7 56 -11 17 -7 52 23 107 92 l32 41 0 1550 0 1551 -560 0 -560 0 51
-77z"/>
<path d="M1586 2633 c-50 -8 -215 -188 -192 -210 3 -3 20 5 38 18 18 13 77 46
132 74 88 45 156 95 156 117 0 8 -81 9 -134 1z"/>
<path d="M0 1242 l0 -1242 556 0 c441 0 554 3 548 13 -4 6 -36 56 -72 110 -67
101 -97 154 -181 317 -142 277 -229 548 -346 1080 -36 163 -70 272 -106 336
-29 51 -102 131 -173 189 -25 20 -46 52 -66 100 -57 139 -138 317 -149 328 -8
8 -11 -319 -11 -1231z"/>
<path d="M2031 1518 c-1 -16 4 -28 9 -28 12 0 12 8 0 35 -8 18 -9 17 -9 -7z"/>
<path d="M4045 324 c-16 -8 -50 -32 -75 -53 -114 -94 -310 -205 -438 -246 -29
-10 -52 -19 -52 -21 0 -2 297 -4 660 -4 l660 0 0 99 0 98 -102 12 c-105 12
-319 31 -350 31 -10 0 -25 8 -35 19 -10 10 -37 22 -60 26 -24 4 -73 18 -109
31 -37 13 -67 24 -68 24 -1 0 -14 -7 -31 -16z"/>
</g>
</svg>
