<?xml version="1.0" standalone="no"?>
<!DOCTYPE svg PUBLIC "-//W3C//DTD SVG 20010904//EN"
 "http://www.w3.org/TR/2001/REC-SVG-20010904/DTD/svg10.dtd">
<svg version="1.0" xmlns="http://www.w3.org/2000/svg"
 width="480.000000pt" height="360.000000pt" viewBox="0 0 480.000000 360.000000"
 preserveAspectRatio="xMidYMid meet">
<metadata>
Created by potrace 1.16, written by Peter Selinger 2001-2019
</metadata>
<rect width="1" height="360" fill="#000000"/>
<rect x="479" width="1" height="360" fill="#000000"/>
<rect width="480" height="1" fill="#000000"/>
<rect y="359" width="480" height="1" fill="#000000"/>
<g transform="translate(0.000000,360.000000) scale(0.100000,-0.100000)"
fill="#000000" stroke="none">
<path d="M4660 3595 c0 -3 25 -19 55 -36 31 -17 62 -41 70 -52 14 -20 15 -18
15 36 l0 57 -70 0 c-38 0 -70 -2 -70 -5z"/>
<path d="M909 3583 c-2 -5 -22 -18 -44 -29 -76 -36 -53 -83 73 -145 l87 -44
-60 -5 c-48 -4 -72 -13 -117 -43 -32 -21 -58 -41 -58 -46 0 -24 107 -70 170
-71 8 -1 47 -16 85 -35 61 -29 66 -33 40 -34 -17 -1 -45 -5 -62 -10 -37 -11
-133 -88 -133 -106 0 -25 84 -44 257 -60 39 -4 80 -13 90 -21 17 -13 17 -13
-5 -14 -42 0 -161 -105 -162 -142 0 -24 35 -23 181 3 l116 20 79 -20 c60 -15
85 -27 102 -48 85 -102 147 -153 221 -183 113 -47 178 -80 201 -105 20 -21 20
-27 10 -76 -23 -111 -38 -96 170 -167 312 -106 555 -207 966 -401 98 -45 164
-71 187 -71 19 0 49 -3 67 -6 l32 -7 -7 -61 c-4 -34 -19 -96 -33 -139 l-27
-79 29 -23 c44 -35 224 -112 335 -142 89 -25 107 -27 251 -23 271 7 383 5 408
-9 21 -11 22 -17 20 -111 -2 -57 1 -103 7 -109 6 -5 84 -19 174 -30 90 -12
181 -24 202 -27 l39 -7 0 827 c0 783 -1 827 -17 822 -10 -2 -130 -7 -268 -11
-137 -4 -266 -11 -286 -16 -21 -5 -53 -26 -72 -46 -36 -36 -66 -47 -210 -73
-26 -5 -62 -13 -80 -19 -17 -6 -79 -20 -137 -32 -58 -12 -127 -28 -153 -36
-44 -14 -53 -14 -85 0 -62 27 -294 123 -352 147 -30 12 -73 30 -95 40 -22 10
-69 30 -105 45 -36 15 -201 94 -368 176 -319 157 -315 156 -356 110 -33 -37
-35 -36 -247 102 -41 26 -123 84 -184 128 -60 44 -130 92 -155 106 -25 14 -64
39 -87 54 -23 16 -45 29 -49 29 -4 0 -51 29 -104 65 -190 126 -466 246 -481
208z"/>
</g>
</svg>
