<?xml version="1.0" standalone="no"?>
<!DOCTYPE svg PUBLIC "-//W3C//DTD SVG 20010904//EN"
 "http://www.w3.org/TR/2001/REC-SVG-20010904/DTD/svg10.dtd">
<svg version="1.0" xmlns="http://www.w3.org/2000/svg"
 width="480.000000pt" height="360.000000pt" viewBox="0 0 480.000000 360.000000"
 preserveAspectRatio="xMidYMid meet">
<metadata>
Created by potrace 1.16, written by Peter Selinger 2001-2019
</metadata>
<rect width="1" height="360" fill="#000000"/>
<rect x="479" width="1" height="360" fill="#000000"/>
<rect width="480" height="1" fill="#000000"/>
<rect y="359" width="480" height="1" fill="#000000"/>
<g transform="translate(0.000000,360.000000) scale(0.100000,-0.100000)"
fill="#000000" stroke="none">
<path d="M0 1800 l0 -1800 93 0 92 0 38 111 c31 93 36 114 25 128 -30 37 -40
63 -29 74 15 15 14 23 -4 41 -14 14 -13 17 14 31 17 8 42 30 56 49 31 41 53
144 39 184 -5 15 -8 50 -6 79 3 50 4 52 35 55 30 3 32 6 54 81 12 43 36 109
54 147 33 73 32 94 -6 84 -22 -5 -23 -4 -16 28 14 60 28 74 141 139 60 35 110
66 110 69 0 4 -10 11 -23 17 -24 11 -82 11 -163 -2 -75 -11 -110 5 -209 95
-96 89 -118 96 -205 65 -61 -21 -81 -19 -45 5 17 11 36 20 43 20 35 0 255 209
326 310 36 51 90 156 119 230 39 99 41 110 23 110 -9 0 -16 -4 -16 -10 0 -20
-37 -9 -82 23 -83 59 -167 132 -167 144 -1 7 12 19 28 28 35 17 44 42 36 88
-5 24 -2 39 12 56 16 19 24 22 57 16 20 -4 42 -13 49 -19 8 -9 24 -7 69 7 l58
19 0 78 c0 189 126 422 287 532 30 21 84 47 119 58 116 35 382 26 584 -20 36
-9 53 -8 82 5 37 15 38 15 54 -11 10 -14 49 -41 88 -61 104 -52 223 -174 271
-277 63 -137 85 -269 64 -384 -9 -45 -7 -61 11 -110 12 -31 28 -74 36 -96 8
-21 21 -51 29 -67 20 -38 19 -83 -3 -102 -21 -19 -48 -22 -57 -7 -10 16 -44
11 -54 -8 -6 -10 -11 -91 -12 -179 l-2 -161 30 -43 c53 -79 52 -87 -4 -36 -34
30 -38 14 -14 -49 12 -31 18 -60 15 -63 -4 -3 -9 0 -11 7 -3 6 -12 12 -20 12
-13 0 -15 -10 -10 -62 5 -62 5 -62 -7 -23 l-13 40 -7 -55 c-4 -30 -12 -71 -16
-90 -10 -39 7 -104 41 -151 24 -34 24 -51 -1 -74 -25 -23 -25 -39 -1 -79 19
-32 60 -157 83 -256 l13 -55 43 3 c56 5 62 -13 29 -86 -39 -88 -50 -138 -36
-164 15 -29 47 -58 77 -69 34 -13 37 -35 8 -70 -14 -17 -26 -40 -26 -52 0 -12
-7 -31 -15 -41 -16 -21 -15 -35 15 -150 11 -44 20 -81 20 -83 0 -1 392 -3 870
-3 l870 0 0 43 c0 78 65 146 181 188 32 12 64 28 70 35 6 8 19 14 29 14 9 0
25 9 35 20 10 11 22 20 26 20 9 0 95 57 117 77 37 35 101 82 128 96 26 14 34
14 43 3 54 -65 6 -305 -90 -441 l-38 -55 134 0 135 0 0 552 c0 496 -2 553 -16
570 -16 16 -16 18 0 24 15 6 16 106 16 1230 l0 1224 -2400 0 -2400 0 0 -1800z
m4045 1731 c3 -5 1 -13 -5 -16 -15 -9 -43 3 -35 15 8 13 32 13 40 1z m-3517
-505 c3 -12 -1 -17 -10 -14 -7 3 -15 13 -16 22 -3 12 1 17 10 14 7 -3 15 -13
16 -22z m1832 -1376 c0 -5 -4 -10 -10 -10 -5 0 -10 5 -10 10 0 6 5 10 10 10 6
0 10 -4 10 -10z m480 -290 c0 -6 -7 -13 -15 -16 -20 -8 -48 3 -40 16 8 13 55
13 55 0z"/>
<path d="M1932 1282 c-39 -21 -33 -32 20 -32 38 0 43 5 32 34 -8 20 -11 20
-52 -2z"/>
<path d="M1846 88 c-3 -18 -9 -45 -12 -60 -4 -16 -2 -28 3 -28 6 0 13 25 17
56 7 63 2 83 -8 32z"/>
</g>
</svg>
