<?xml version="1.0" standalone="no"?>
<!DOCTYPE svg PUBLIC "-//W3C//DTD SVG 20010904//EN"
 "http://www.w3.org/TR/2001/REC-SVG-20010904/DTD/svg10.dtd">
<svg version="1.0" xmlns="http://www.w3.org/2000/svg"
 width="480.000000pt" height="360.000000pt" viewBox="0 0 480.000000 360.000000"
 preserveAspectRatio="xMidYMid meet">
<metadata>
Created by potrace 1.16, written by Peter Selinger 2001-2019
</metadata>
<rect width="1" height="360" fill="#000000"/>
<rect x="479" width="1" height="360" fill="#000000"/>
<rect width="480" height="1" fill="#000000"/>
<rect y="359" width="480" height="1" fill="#000000"/>
<g transform="translate(0.000000,360.000000) scale(0.100000,-0.100000)"
fill="#000000" stroke="none">
<path d="M4131 3398 c-50 -29 -63 -32 -175 -38 -67 -4 -130 -11 -141 -17 -42
-23 -58 -52 -59 -103 l-1 -50 -85 -68 c-87 -69 -104 -98 -79 -128 7 -9 52 -36
100 -60 89 -44 228 -159 212 -174 -4 -4 -72 -33 -150 -64 -137 -54 -146 -56
-236 -56 -115 0 -234 -20 -353 -59 -87 -28 -92 -29 -145 -15 -64 18 -208 10
-252 -12 -25 -13 -35 -12 -107 10 -122 39 -298 61 -384 49 -67 -9 -73 -8 -106
14 -29 19 -48 23 -109 23 -61 0 -93 7 -172 36 -92 33 -99 38 -110 71 -13 42
-61 99 -100 118 -15 8 -52 18 -83 21 -53 6 -58 9 -140 94 -48 48 -86 95 -86
104 0 29 -38 92 -71 121 -29 24 -38 26 -83 21 -83 -10 -96 -10 -219 8 -157 22
-183 9 -65 -34 108 -39 180 -80 241 -139 67 -64 133 -154 142 -197 14 -59 18
-66 45 -75 16 -6 43 -33 66 -67 54 -79 176 -205 235 -243 32 -20 51 -41 55
-58 13 -53 51 -74 93 -52 13 8 33 0 83 -30 70 -41 118 -104 118 -152 0 -13 13
-43 30 -65 17 -24 27 -48 24 -57 -4 -9 9 -39 31 -71 20 -31 34 -58 31 -61 -3
-3 2 -20 11 -37 12 -23 17 -60 17 -141 2 -101 4 -117 35 -190 l33 -80 8 -309
c5 -170 12 -346 15 -391 l7 -83 -40 -27 c-44 -29 -82 -78 -107 -138 -19 -47
-22 -194 -7 -327 7 -52 12 -123 12 -157 l0 -63 800 0 800 0 0 23 c0 12 -5 120
-10 239 -12 236 -16 253 -76 341 -32 47 -35 56 -30 102 3 27 8 100 11 160 12
217 26 392 41 523 14 110 15 152 5 251 -17 178 -17 173 22 166 30 -6 36 -3 60
29 15 19 27 41 27 49 0 8 7 17 15 21 8 3 15 17 15 30 0 15 8 30 20 36 12 6 26
33 36 68 9 31 24 65 32 75 10 11 16 34 15 58 -2 29 3 41 18 49 14 8 19 21 19
53 0 24 5 48 11 54 5 5 18 25 27 44 12 23 38 46 82 71 156 91 253 162 324 240
59 64 153 188 236 313 78 116 88 131 139 185 l52 55 -3 93 -3 93 -80 -39
c-109 -53 -153 -89 -309 -250 -38 -40 -73 -72 -77 -72 -4 0 -4 29 -2 64 6 67
-11 212 -29 251 -7 15 -27 29 -59 39 -26 9 -49 16 -51 16 -2 0 -27 -15 -57
-32z m-2450 -598 c31 -25 12 -26 -21 0 -14 11 -20 20 -14 20 7 0 22 -9 35 -20z"/>
</g>
</svg>
