<?xml version="1.0" standalone="no"?>
<!DOCTYPE svg PUBLIC "-//W3C//DTD SVG 20010904//EN"
 "http://www.w3.org/TR/2001/REC-SVG-20010904/DTD/svg10.dtd">
<svg version="1.0" xmlns="http://www.w3.org/2000/svg"
 width="480.000000pt" height="360.000000pt" viewBox="0 0 480.000000 360.000000"
 preserveAspectRatio="xMidYMid meet">
<metadata>
Created by potrace 1.16, written by Peter Selinger 2001-2019
</metadata>
<rect width="1" height="360" fill="#000000"/>
<rect x="479" width="1" height="360" fill="#000000"/>
<rect width="480" height="1" fill="#000000"/>
<rect y="359" width="480" height="1" fill="#000000"/>
<g transform="translate(0.000000,360.000000) scale(0.100000,-0.100000)"
fill="#000000" stroke="none">
<path d="M1455 3320 c-3 -5 -12 -7 -21 -3 -9 3 -31 -8 -54 -26 -21 -17 -44
-31 -50 -31 -6 0 -18 -17 -27 -37 -9 -21 -18 -32 -20 -25 -14 37 -33 -5 -54
-118 -7 -39 -23 -82 -41 -107 -29 -43 -36 -73 -17 -73 11 0 8 -25 -7 -64 -4
-10 -1 -16 8 -16 11 0 20 -25 32 -85 9 -47 25 -106 35 -133 l19 -48 -28 -106
c-15 -58 -33 -149 -40 -202 -12 -93 -9 -126 10 -96 5 8 10 12 12 10 2 -3 21
-31 42 -63 41 -64 56 -70 32 -13 -8 19 -17 57 -21 83 l-6 48 26 -50 c31 -61
69 -111 61 -80 -22 86 -25 84 35 32 52 -46 77 -60 63 -34 -4 6 4 1 19 -12 l26
-23 -21 -29 c-12 -16 -25 -29 -30 -29 -17 0 -7 -38 23 -85 26 -41 29 -52 20
-72 -6 -13 -23 -28 -37 -33 -61 -24 -244 -228 -244 -273 0 -11 -23 -44 -50
-73 -67 -71 -90 -122 -90 -205 0 -55 4 -72 29 -111 24 -38 39 -50 81 -65 78
-27 84 -46 76 -218 -8 -177 -22 -237 -74 -315 -23 -34 -42 -69 -42 -76 0 -8
-16 -31 -35 -51 -37 -40 -45 -84 -25 -137 8 -21 2 -47 -29 -134 -21 -59 -42
-115 -46 -125 -7 -16 25 -17 576 -17 l584 0 38 93 c33 81 195 372 203 364 2
-1 -7 -39 -18 -82 -31 -116 -31 -252 1 -322 l23 -53 524 0 c413 0 524 3 524
13 0 6 -7 52 -15 102 -9 50 -20 193 -25 318 -12 295 -15 304 -119 445 l-61 82
-4 107 c-5 106 2 137 27 127 9 -3 11 13 9 57 -4 58 -3 61 17 54 26 -8 26 2 1
40 -11 17 -20 37 -19 45 0 10 2 11 6 3 9 -23 21 -14 27 20 3 19 13 42 20 53
16 21 18 18 31 -40 9 -41 19 -23 16 30 l-3 45 84 -8 c215 -20 431 2 491 50 22
17 28 31 29 63 1 56 -12 124 -28 155 -34 68 -172 150 -372 224 -106 39 -118
45 -124 71 -11 47 -28 246 -22 255 3 5 15 9 28 9 45 0 83 67 82 142 -2 82 -89
178 -161 178 -18 0 -58 12 -89 26 -31 14 -93 32 -139 40 -45 9 -103 22 -128
30 -26 8 -74 14 -106 14 -74 0 -116 -25 -151 -90 -19 -37 -22 -54 -17 -93 6
-51 -3 -94 -36 -162 -10 -22 -36 -83 -57 -135 l-39 -95 -87 -5 c-83 -5 -87 -4
-81 15 3 11 11 41 18 67 7 26 16 50 20 54 10 10 8 -33 -2 -78 -5 -21 -6 -38
-2 -38 9 0 79 225 87 282 8 58 -6 101 -59 193 -22 39 -54 94 -71 124 -17 30
-52 77 -77 105 -35 38 -48 62 -54 96 -15 94 -65 143 -184 187 -42 15 -96 40
-121 55 -114 70 -245 73 -442 11 -14 -4 -18 1 -18 21 0 40 -18 66 -45 66 -13
0 -26 -4 -30 -10z m-125 -179 c0 -5 -7 -14 -15 -21 -12 -10 -15 -10 -15 2 0 8
3 18 7 21 9 10 23 9 23 -2z m994 -958 c-6 -21 -40 -41 -51 -29 -3 2 5 19 17
36 24 34 43 29 34 -7z m83 -20 c-3 -3 -13 -3 -21 -1 -15 3 -15 6 1 28 l18 25
3 -23 c2 -13 1 -26 -1 -29z m-372 28 c3 -5 1 -12 -5 -16 -5 -3 -10 1 -10 9 0
18 6 21 15 7z m112 -5 c-3 -7 -1 -18 5 -24 13 -13 -6 -42 -28 -42 -17 0 -17 0
1 44 14 33 34 54 22 22z m-623 -132 c3 -8 2 -12 -4 -9 -6 3 -10 10 -10 16 0
14 7 11 14 -7z m953 -400 c15 -4 22 -12 19 -20 -3 -7 -10 -41 -17 -76 -20
-108 -25 -122 -38 -126 -11 -4 -12 2 -7 19 16 56 17 126 2 172 -13 43 -13 48
1 43 8 -3 26 -9 40 -12z m37 -489 c4 -20 13 -35 21 -35 7 0 16 -10 18 -22 2
-13 5 -3 6 20 1 54 24 53 29 0 2 -26 -3 -43 -22 -64 -13 -16 -26 -27 -28 -24
-15 18 -48 114 -48 140 0 40 16 31 24 -15z m-441 -198 c64 -65 65 -52 -14
-198 -40 -74 -90 -165 -113 -204 -35 -60 -41 -66 -44 -46 -6 37 15 131 63 286
50 161 62 195 70 195 3 0 20 -15 38 -33z m699 -614 c64 -104 78 -135 78 -169
0 -20 -22 -76 -35 -92 -3 -3 -63 59 -112 117 -13 14 -23 32 -23 40 0 40 25
191 31 191 4 0 32 -39 61 -87z"/>
</g>
</svg>
