<?xml version="1.0" standalone="no"?>
<!DOCTYPE svg PUBLIC "-//W3C//DTD SVG 20010904//EN"
 "http://www.w3.org/TR/2001/REC-SVG-20010904/DTD/svg10.dtd">
<svg version="1.0" xmlns="http://www.w3.org/2000/svg"
 width="480.000000pt" height="360.000000pt" viewBox="0 0 480.000000 360.000000"
 preserveAspectRatio="xMidYMid meet">
<metadata>
Created by potrace 1.16, written by Peter Selinger 2001-2019
</metadata>
<rect width="1" height="360" fill="#000000"/>
<rect x="479" width="1" height="360" fill="#000000"/>
<rect width="480" height="1" fill="#000000"/>
<rect y="359" width="480" height="1" fill="#000000"/>
<g transform="translate(0.000000,360.000000) scale(0.100000,-0.100000)"
fill="#000000" stroke="none">
<path d="M0 1800 l0 -1800 913 1 c710 0 908 3 893 12 -52 31 -116 101 -129
140 -12 36 -12 49 -1 87 18 60 19 58 -18 73 -68 29 -78 71 -38 156 30 63 32
86 13 154 -2 10 -51 49 -108 87 -103 69 -136 104 -224 233 -44 64 -79 153
-100 251 l-17 80 -56 15 c-68 19 -73 23 -50 43 9 8 53 50 97 92 76 73 135 107
135 76 0 -19 74 -4 150 31 49 22 81 47 132 102 109 119 187 219 194 252 13 61
45 132 73 164 38 43 55 33 47 -25 -3 -24 -2 -44 4 -44 19 0 21 -41 3 -70 -9
-16 -21 -30 -25 -30 -4 0 -8 -6 -8 -14 0 -18 -31 -30 -40 -16 -11 18 -32 -43
-26 -76 12 -61 -55 -194 -143 -287 -62 -66 -199 -149 -298 -181 -38 -13 -53
-23 -53 -36 0 -31 48 -163 66 -179 15 -15 16 -14 10 4 -15 40 -29 135 -22 142
4 4 39 -27 78 -70 100 -111 385 -319 628 -459 l94 -54 14 -55 c7 -29 17 -58
22 -63 5 -5 6 -43 3 -85 -4 -59 -2 -79 9 -88 16 -14 161 -73 177 -73 7 0 0 21
-14 47 -14 27 -25 53 -25 59 0 6 -14 42 -31 79 -54 119 -89 225 -129 385 -67
274 -94 501 -58 508 10 2 19 -6 24 -20 27 -88 213 -331 354 -465 l75 -71 85
-8 c50 -4 131 -2 194 4 60 7 112 9 115 7 12 -13 -30 -61 -101 -117 l-78 -62
27 -22 c16 -13 49 -34 74 -48 46 -25 46 -26 64 -6 14 16 15 23 6 34 -9 11 -10
20 -1 35 9 18 17 20 48 15 36 -5 39 -3 128 88 50 51 125 139 168 196 42 56 79
102 83 102 3 0 42 -39 86 -86 l81 -86 45 5 c38 4 51 12 81 47 25 30 40 39 53
35 31 -13 18 -48 -39 -106 l-56 -56 103 -93 c57 -51 126 -107 154 -124 103
-67 136 -121 120 -203 -16 -88 -67 -146 -173 -199 -122 -61 -283 -37 -511 75
-68 34 -133 61 -144 61 -11 0 -46 -24 -77 -54 -58 -56 -127 -94 -187 -103 -19
-3 -46 -17 -59 -29 -37 -38 -75 -32 -123 19 -22 23 -41 45 -41 50 0 13 -29 7
-70 -14 -44 -23 -38 -24 -106 26 -9 6 -17 6 -25 -2 -8 -8 -8 -35 2 -102 l13
-91 1133 0 1133 0 0 1800 0 1800 -2400 0 -2400 0 0 -1800z m2668 -294 c155
-95 316 -167 473 -210 31 -9 59 -22 62 -29 7 -19 -49 -188 -76 -228 -18 -27
-32 -35 -67 -41 -75 -11 -219 -8 -330 7 -58 8 -108 15 -112 15 -8 0 -54 98
-79 169 -11 31 -19 81 -19 117 0 97 34 254 55 254 3 0 45 -24 93 -54z"/>
<path d="M3835 420 c-27 -27 -53 -50 -57 -50 -4 0 -30 -13 -57 -29 -27 -17
-72 -38 -100 -48 -28 -10 -51 -21 -51 -24 0 -9 66 -19 126 -19 63 0 164 47
196 93 27 37 32 120 8 124 -8 2 -37 -19 -65 -47z"/>
</g>
</svg>
