<?xml version="1.0" standalone="no"?>
<!DOCTYPE svg PUBLIC "-//W3C//DTD SVG 20010904//EN"
 "http://www.w3.org/TR/2001/REC-SVG-20010904/DTD/svg10.dtd">
<svg version="1.0" xmlns="http://www.w3.org/2000/svg"
 width="480.000000pt" height="360.000000pt" viewBox="0 0 480.000000 360.000000"
 preserveAspectRatio="xMidYMid meet">
<metadata>
Created by potrace 1.16, written by Peter Selinger 2001-2019
</metadata>
<rect width="1" height="360" fill="#000000"/>
<rect x="479" width="1" height="360" fill="#000000"/>
<rect width="480" height="1" fill="#000000"/>
<rect y="359" width="480" height="1" fill="#000000"/>
<g transform="translate(0.000000,360.000000) scale(0.100000,-0.100000)"
fill="#000000" stroke="none">
<path d="M0 1800 l0 -1800 308 0 308 0 120 173 c65 94 142 197 169 227 28 30
57 68 64 84 14 35 247 326 350 439 39 42 71 81 71 85 0 10 76 54 109 64 13 4
47 2 76 -4 48 -9 57 -8 88 11 19 11 42 21 51 21 23 0 32 28 51 149 9 57 30
146 47 197 l30 92 -36 117 c-72 235 -72 276 3 332 48 37 88 42 127 17 13 -9
26 -15 29 -13 13 14 27 167 34 389 10 298 15 318 84 351 54 26 73 21 92 -25
32 -75 43 -195 38 -391 -3 -104 -1 -205 4 -224 l9 -34 68 134 c137 269 189
340 295 406 45 28 87 30 96 4 7 -23 -28 -117 -89 -240 -80 -158 -207 -493
-193 -507 2 -3 69 60 148 139 143 143 227 205 321 238 41 14 68 2 68 -30 0
-30 -71 -125 -169 -226 -54 -55 -109 -118 -123 -140 -75 -119 -87 -140 -83
-143 2 -3 34 8 71 22 191 77 345 111 418 92 79 -20 -24 -107 -221 -187 -94
-38 -218 -105 -255 -137 -10 -8 -20 -31 -24 -51 -19 -117 -61 -265 -92 -326
-39 -79 -120 -191 -181 -250 -23 -21 -41 -44 -41 -50 0 -6 23 -33 51 -60 160
-155 316 -378 353 -504 21 -72 20 -85 -7 -117 -24 -27 -24 -28 -6 -73 l17 -46
1076 -3 1076 -2 0 1280 0 1280 -74 0 c-62 0 -79 4 -110 25 -20 14 -43 25 -51
25 -8 0 -15 3 -15 8 0 10 -58 42 -76 42 -8 0 -35 19 -59 41 -25 23 -45 36 -45
28 0 -7 -22 8 -48 34 -27 27 -54 47 -60 45 -12 -3 -142 130 -142 145 0 5 -24
35 -53 68 -30 32 -65 80 -78 106 -13 27 -27 50 -30 53 -4 3 -13 25 -20 50 -7
25 -15 47 -19 50 -3 3 -15 26 -27 53 -20 40 -23 64 -23 157 l0 110 -1935 0
-1935 0 0 -1800z"/>
</g>
</svg>
