<?xml version="1.0" standalone="no"?>
<!DOCTYPE svg PUBLIC "-//W3C//DTD SVG 20010904//EN"
 "http://www.w3.org/TR/2001/REC-SVG-20010904/DTD/svg10.dtd">
<svg version="1.0" xmlns="http://www.w3.org/2000/svg"
 width="480.000000pt" height="360.000000pt" viewBox="0 0 480.000000 360.000000"
 preserveAspectRatio="xMidYMid meet">
<metadata>
Created by potrace 1.16, written by Peter Selinger 2001-2019
</metadata>
<rect width="1" height="360" fill="#000000"/>
<rect x="479" width="1" height="360" fill="#000000"/>
<rect width="480" height="1" fill="#000000"/>
<rect y="359" width="480" height="1" fill="#000000"/>
<g transform="translate(0.000000,360.000000) scale(0.100000,-0.100000)"
fill="#000000" stroke="none">
<path d="M1682 1783 c-68 -73 -89 -159 -53 -218 10 -17 24 -48 31 -69 17 -54
71 -110 125 -131 54 -20 89 -74 79 -123 -7 -36 25 -104 70 -148 17 -17 39 -43
50 -58 22 -33 88 -65 133 -66 24 0 37 -8 54 -32 23 -32 146 -158 155 -158 3 0
15 7 28 15 23 15 25 15 55 -35 40 -65 65 -154 49 -179 -22 -36 39 -181 77
-181 6 0 26 -18 44 -40 17 -22 40 -40 49 -40 9 0 41 11 71 25 57 27 58 27 75
-7 12 -24 173 -97 216 -98 65 0 94 71 40 96 -14 6 -47 22 -74 35 -80 40 -84
88 -17 206 21 38 56 112 77 167 21 54 44 100 51 103 14 5 154 -100 220 -165
75 -74 131 -67 224 30 69 72 79 147 22 156 -12 2 -55 -11 -96 -29 l-76 -31
-58 45 c-32 25 -69 57 -82 71 -14 14 -34 26 -46 26 -12 0 -30 9 -39 19 -19 21
-19 20 141 188 12 13 28 23 36 23 9 0 16 16 20 45 9 63 2 75 -44 75 -29 0 -44
7 -63 27 -23 24 -31 27 -95 25 -41 0 -82 -7 -100 -16 -17 -9 -38 -16 -47 -16
-10 0 -36 -11 -58 -24 -51 -30 -196 -74 -256 -77 -53 -3 -159 8 -216 22 -67
17 -250 216 -229 249 3 4 55 27 116 51 60 23 116 51 123 61 37 53 -43 105
-144 93 -34 -4 -65 -14 -72 -22 -31 -38 -174 -122 -208 -122 -22 0 -23 1 -7
10 13 8 17 18 13 33 -11 43 -56 113 -109 169 -53 55 -55 56 -89 46 -24 -6 -45
-6 -63 1 -45 17 -66 11 -103 -27z m592 -775 c8 -34 -7 -37 -28 -6 -12 16 -13
25 -4 35 13 17 23 8 32 -29z"/>
</g>
</svg>
