<?xml version="1.0" standalone="no"?>
<!DOCTYPE svg PUBLIC "-//W3C//DTD SVG 20010904//EN"
 "http://www.w3.org/TR/2001/REC-SVG-20010904/DTD/svg10.dtd">
<svg version="1.0" xmlns="http://www.w3.org/2000/svg"
 width="480.000000pt" height="360.000000pt" viewBox="0 0 480.000000 360.000000"
 preserveAspectRatio="xMidYMid meet">
<metadata>
Created by potrace 1.16, written by Peter Selinger 2001-2019
</metadata>
<rect width="1" height="360" fill="#000000"/>
<rect x="479" width="1" height="360" fill="#000000"/>
<rect width="480" height="1" fill="#000000"/>
<rect y="359" width="480" height="1" fill="#000000"/>
<g transform="translate(0.000000,360.000000) scale(0.100000,-0.100000)"
fill="#000000" stroke="none">
<path d="M1955 2826 c-27 -14 -60 -33 -71 -43 -28 -23 -54 -75 -54 -107 0 -14
-15 -49 -32 -78 -36 -59 -42 -120 -18 -193 13 -39 105 -188 119 -193 16 -5 31
26 35 69 2 24 7 45 12 46 5 1 21 -9 36 -22 24 -21 26 -29 18 -51 -6 -14 -10
-42 -10 -62 0 -20 -7 -55 -14 -78 -8 -22 -18 -67 -21 -100 -6 -50 -4 -66 14
-99 15 -29 21 -58 21 -106 0 -56 4 -70 25 -93 27 -30 69 -34 84 -9 8 16 12 16
47 1 22 -10 53 -20 69 -23 l30 -6 0 -247 0 -247 -32 -90 c-18 -49 -33 -100
-33 -113 0 -12 -10 -72 -21 -132 -12 -60 -19 -120 -15 -135 4 -14 29 -48 55
-76 39 -40 54 -49 70 -44 15 4 21 2 21 -8 0 -20 14 -24 116 -38 57 -7 89 -8
96 -1 6 6 42 8 89 5 48 -4 83 -2 91 5 16 13 127 42 162 42 32 0 54 -41 85
-153 12 -43 30 -95 40 -115 10 -20 22 -52 26 -69 8 -40 56 -93 83 -93 28 0 83
20 115 42 50 35 31 123 -45 200 -10 10 -21 36 -24 58 -4 23 -18 52 -34 69 -22
22 -60 114 -60 144 0 2 17 16 38 29 24 17 44 41 56 69 47 117 134 239 225 318
34 29 61 56 61 60 0 3 -31 39 -70 80 -57 59 -69 77 -64 96 8 33 -20 57 -104
89 -50 19 -81 26 -101 21 -25 -5 -43 2 -108 46 -43 29 -103 74 -134 100 -48
42 -55 52 -51 78 2 16 -3 54 -12 84 -9 30 -16 63 -16 74 0 10 -43 83 -94 163
-77 118 -93 148 -84 163 7 14 4 28 -16 58 -35 52 -154 149 -184 149 -56 0 -75
34 -52 95 l10 27 31 -26 c17 -14 34 -26 39 -26 13 0 -1 191 -16 225 -31 66
-128 140 -177 134 -12 -2 -42 11 -66 29 -56 40 -113 43 -186 8z m655 -986 c16
-38 9 -46 -19 -23 -15 12 -20 24 -16 36 10 25 21 21 35 -13z"/>
</g>
</svg>
