<?xml version="1.0" standalone="no"?>
<!DOCTYPE svg PUBLIC "-//W3C//DTD SVG 20010904//EN"
 "http://www.w3.org/TR/2001/REC-SVG-20010904/DTD/svg10.dtd">
<svg version="1.0" xmlns="http://www.w3.org/2000/svg"
 width="480.000000pt" height="360.000000pt" viewBox="0 0 480.000000 360.000000"
 preserveAspectRatio="xMidYMid meet">
<metadata>
Created by potrace 1.16, written by Peter Selinger 2001-2019
</metadata>
<rect width="1" height="360" fill="#000000"/>
<rect x="479" width="1" height="360" fill="#000000"/>
<rect width="480" height="1" fill="#000000"/>
<rect y="359" width="480" height="1" fill="#000000"/>
<g transform="translate(0.000000,360.000000) scale(0.100000,-0.100000)"
fill="#000000" stroke="none">
<path d="M0 1800 l0 -1800 367 0 368 0 45 44 c25 24 83 77 129 118 47 40 85
78 85 83 1 6 -34 13 -78 17 -120 11 -227 51 -275 102 -24 26 -24 27 -5 41 61
46 160 107 239 147 106 54 191 67 287 45 32 -8 62 -10 70 -6 10 7 8 9 -5 9
-10 0 -15 5 -12 10 4 7 13 6 27 -1 17 -9 28 -7 60 11 34 19 51 22 109 18 124
-9 83 7 -49 19 -122 11 -185 28 -194 53 -1 5 -42 20 -90 32 -49 13 -88 26 -88
29 0 7 320 169 333 169 5 0 21 9 36 19 15 11 40 23 57 27 16 4 40 15 54 24 14
10 39 20 55 24 44 8 366 10 393 1 22 -7 28 1 14 21 -4 6 -56 14 -121 17 -95 6
-117 10 -132 26 -19 20 -32 23 -189 42 -165 20 -171 40 -27 99 56 24 134 56
172 73 39 16 99 39 135 52 83 30 98 50 102 140 l3 69 -35 8 c-19 5 -73 12
-120 16 l-85 7 25 26 c16 16 67 39 136 63 93 32 111 42 120 64 21 53 33 98 39
152 10 78 35 111 133 176 53 35 71 74 34 74 -10 0 -39 13 -65 30 -26 16 -50
30 -52 30 -3 0 -5 -12 -5 -26 0 -33 -24 -27 -28 7 -6 42 -21 45 -37 6 -8 -20
-19 -37 -23 -37 -4 0 -5 28 -4 61 4 63 -10 76 -23 20 -3 -16 -17 -43 -30 -61
l-25 -33 6 64 c9 89 -8 144 -49 165 -18 9 -53 36 -78 61 -40 39 -49 43 -67 34
-28 -15 -27 -15 -71 25 -31 27 -44 33 -58 26 -35 -18 -85 -31 -98 -26 -13 5
-25 35 -25 66 0 10 11 19 29 23 36 8 170 145 201 205 20 39 20 46 9 94 -21 84
-16 212 10 271 46 105 144 167 289 185 45 6 96 17 114 24 80 34 258 29 383
-11 54 -17 118 -59 142 -92 18 -27 25 -26 63 5 17 15 50 30 73 35 36 7 47 4
80 -19 94 -64 178 -194 217 -336 18 -65 20 -83 10 -107 -17 -40 -96 -68 -216
-76 -61 -4 -94 -10 -94 -18 0 -6 20 -35 45 -64 50 -59 54 -71 25 -78 -12 -3
-27 -18 -36 -34 -17 -33 -29 -36 -43 -11 -9 15 -10 15 -11 -5 0 -14 12 -31 31
-45 l31 -23 -27 -5 -26 -5 -4 -165 c-3 -102 -1 -157 5 -145 6 14 9 15 9 5 1
-13 2 -13 12 0 8 11 12 12 16 3 2 -7 13 -13 23 -13 11 0 30 -11 44 -25 14 -14
34 -25 45 -25 43 0 326 -61 365 -79 35 -17 38 -19 16 -20 -14 -1 -37 -8 -52
-15 -15 -8 -52 -18 -82 -21 -94 -12 -87 -28 22 -53 193 -46 265 -69 259 -86
-2 -6 -18 -12 -36 -14 -27 -3 -30 -6 -20 -18 6 -8 16 -14 21 -14 19 0 198 -74
198 -82 0 -4 -5 -8 -12 -8 -6 0 13 -12 42 -27 62 -32 73 -49 35 -59 -39 -10
-183 -9 -230 0 -22 5 -79 10 -126 11 -79 2 -90 5 -133 33 -26 18 -56 32 -67
32 -11 0 -28 4 -37 9 -9 4 -32 11 -51 15 l-34 6 7 -52 c15 -114 14 -147 -5
-153 -10 -3 -21 -16 -25 -27 -11 -35 -95 -132 -125 -145 -26 -11 -27 -14 -18
-45 6 -18 13 -41 16 -50 9 -29 -21 -21 -63 17 -62 57 -68 51 -59 -67 14 -202
6 -356 -21 -410 -19 -37 -19 -37 26 -105 41 -60 98 -210 120 -313 18 -86 35
-132 111 -302 l34 -77 943 -1 942 0 0 1800 0 1800 -2400 0 -2400 0 0 -1800z
m1118 -1167 c2 -8 -6 -13 -22 -13 -26 0 -40 12 -29 24 11 11 46 2 51 -11z"/>
<path d="M1896 643 c-21 -11 -43 -14 -81 -9 -51 6 -54 5 -119 -45 -54 -42 -64
-54 -54 -66 6 -8 14 -33 18 -56 4 -23 11 -51 15 -61 6 -13 5 -17 -3 -12 -11 6
-38 -31 -29 -40 3 -3 42 42 88 99 46 57 110 123 141 148 31 24 57 47 58 52 0
9 0 9 -34 -10z"/>
<path d="M1560 263 c-19 -12 -39 -26 -45 -30 -73 -57 -118 -62 -230 -28 -99
30 -100 30 -192 -31 -28 -19 -54 -34 -58 -34 -3 0 -21 -11 -39 -25 -18 -14
-36 -25 -40 -25 -4 0 -41 -20 -84 -45 l-77 -45 393 0 c307 0 392 3 392 13 0 6
-9 25 -19 41 -21 31 -18 56 20 153 29 71 23 85 -21 56z"/>
<path d="M1916 235 c-3 -8 -2 -23 1 -32 6 -15 7 -15 14 3 11 27 11 44 0 44 -5
0 -11 -7 -15 -15z"/>
<path d="M1870 80 c0 -5 12 -10 28 -10 21 0 24 2 12 10 -20 13 -40 13 -40 0z"/>
</g>
</svg>
