<?xml version="1.0" standalone="no"?>
<!DOCTYPE svg PUBLIC "-//W3C//DTD SVG 20010904//EN"
 "http://www.w3.org/TR/2001/REC-SVG-20010904/DTD/svg10.dtd">
<svg version="1.0" xmlns="http://www.w3.org/2000/svg"
 width="480.000000pt" height="360.000000pt" viewBox="0 0 480.000000 360.000000"
 preserveAspectRatio="xMidYMid meet">
<metadata>
Created by potrace 1.16, written by Peter Selinger 2001-2019
</metadata>
<rect width="1" height="360" fill="#000000"/>
<rect x="479" width="1" height="360" fill="#000000"/>
<rect width="480" height="1" fill="#000000"/>
<rect y="359" width="480" height="1" fill="#000000"/>
<g transform="translate(0.000000,360.000000) scale(0.100000,-0.100000)"
fill="#000000" stroke="none">
<path d="M0 1800 l0 -1800 2400 0 2400 0 0 1800 0 1800 -1290 0 c-710 0 -1290
-4 -1290 -8 0 -5 21 -69 46 -143 50 -148 118 -300 158 -352 34 -44 33 -51 -5
-43 -66 13 -255 146 -374 263 -76 74 -245 264 -245 275 0 4 -405 8 -900 8
l-900 0 0 -1800z m2434 -761 c30 -23 33 -45 10 -77 -29 -42 -94 -19 -94 33 0
22 34 65 51 65 3 0 18 -9 33 -21z"/>
</g>
</svg>
