<?xml version="1.0" standalone="no"?>
<!DOCTYPE svg PUBLIC "-//W3C//DTD SVG 20010904//EN"
 "http://www.w3.org/TR/2001/REC-SVG-20010904/DTD/svg10.dtd">
<svg version="1.0" xmlns="http://www.w3.org/2000/svg"
 width="480.000000pt" height="360.000000pt" viewBox="0 0 480.000000 360.000000"
 preserveAspectRatio="xMidYMid meet">
<metadata>
Created by potrace 1.16, written by Peter Selinger 2001-2019
</metadata>
<rect width="1" height="360" fill="#000000"/>
<rect x="479" width="1" height="360" fill="#000000"/>
<rect width="480" height="1" fill="#000000"/>
<rect y="359" width="480" height="1" fill="#000000"/>
<g transform="translate(0.000000,360.000000) scale(0.100000,-0.100000)"
fill="#000000" stroke="none">
<path d="M0 2785 l0 -815 38 16 c322 140 427 159 857 159 222 0 317 -5 405
-18 63 -9 134 -20 158 -23 l42 -7 0 36 c0 60 34 123 82 154 24 15 45 28 46 29
2 2 5 23 5 49 2 42 0 46 -18 41 -54 -15 -126 -18 -155 -6 -16 7 -30 14 -30 17
0 36 79 133 163 200 l38 30 0 162 c0 189 5 205 81 277 54 51 175 131 190 126
5 -1 23 8 41 21 66 49 215 97 297 97 55 0 93 -21 216 -117 62 -48 95 -68 105
-63 8 5 59 20 114 35 168 46 244 34 216 -33 -13 -30 -130 -149 -186 -189 -26
-18 -28 -24 -18 -44 6 -13 45 -63 86 -110 l75 -86 -34 3 c-19 1 -34 1 -34 -1
0 -2 5 -16 10 -30 6 -15 7 -45 3 -68 -6 -38 -7 -39 -16 -16 l-9 24 -12 -30
c-6 -17 -31 -49 -55 -71 -38 -35 -42 -43 -32 -61 6 -12 24 -31 41 -43 16 -12
30 -25 30 -30 0 -5 -13 -23 -30 -40 -19 -20 -30 -41 -30 -60 0 -16 -4 -32 -10
-35 -19 -12 -60 -112 -71 -171 -5 -33 -15 -72 -21 -89 -15 -41 -66 -94 -106
-112 -33 -14 -33 -14 -15 -36 39 -50 96 -90 182 -127 50 -22 109 -49 132 -60
37 -20 42 -20 58 -6 26 24 48 19 136 -29 84 -47 94 -51 190 -93 80 -35 85 -39
85 -77 0 -31 6 -36 98 -90 53 -32 146 -92 206 -133 102 -71 111 -75 138 -64
36 13 72 2 88 -28 6 -11 21 -20 34 -20 23 0 56 -28 56 -47 0 -6 16 -20 35 -32
20 -12 35 -28 35 -39 0 -11 9 -31 21 -46 11 -14 17 -31 14 -36 -4 -6 53 -73
127 -148 200 -204 359 -411 508 -659 l74 -123 63 0 63 0 0 1800 0 1800 -2400
0 -2400 0 0 -815z"/>
<path d="M590 1915 c-223 -27 -301 -52 -467 -148 l-123 -71 0 -848 0 -848 893
0 892 0 92 138 c123 182 146 234 147 331 2 178 -46 588 -76 638 -10 17 -19 44
-19 60 -1 78 -1 114 2 181 3 84 -8 105 -40 73 -12 -12 -24 -21 -27 -21 -3 0
-3 44 0 98 3 53 7 131 8 172 l3 75 -44 2 c-28 1 -72 15 -125 41 -204 101 -785
167 -1116 127z"/>
<path d="M3151 1164 c-12 -19 -21 -41 -21 -47 0 -7 20 -33 45 -57 25 -24 45
-50 45 -57 0 -7 -26 -38 -57 -69 l-56 -57 114 6 c63 3 142 11 177 17 57 11 66
16 88 51 13 21 24 40 24 42 0 11 -313 207 -329 207 -5 0 -18 -16 -30 -36z"/>
<path d="M3757 693 c-52 -49 -59 -62 -68 -112 -14 -75 -44 -135 -75 -149 -31
-15 -72 -6 -209 44 -130 46 -204 60 -404 74 -109 8 -175 17 -195 27 l-29 15
-43 -48 c-39 -44 -43 -54 -43 -99 0 -64 13 -167 41 -322 l21 -123 845 0 844 0
-23 38 c-121 200 -277 398 -458 577 -72 72 -135 131 -139 132 -4 2 -33 -23
-65 -54z"/>
</g>
</svg>
