<?xml version="1.0" standalone="no"?>
<!DOCTYPE svg PUBLIC "-//W3C//DTD SVG 20010904//EN"
 "http://www.w3.org/TR/2001/REC-SVG-20010904/DTD/svg10.dtd">
<svg version="1.0" xmlns="http://www.w3.org/2000/svg"
 width="480.000000pt" height="360.000000pt" viewBox="0 0 480.000000 360.000000"
 preserveAspectRatio="xMidYMid meet">
<metadata>
Created by potrace 1.16, written by Peter Selinger 2001-2019
</metadata>
<rect width="1" height="360" fill="#000000"/>
<rect x="479" width="1" height="360" fill="#000000"/>
<rect width="480" height="1" fill="#000000"/>
<rect y="359" width="480" height="1" fill="#000000"/>
<g transform="translate(0.000000,360.000000) scale(0.100000,-0.100000)"
fill="#000000" stroke="none">
<path d="M1498 3573 c-20 -48 -22 -214 -3 -280 48 -165 161 -287 318 -345 31
-11 57 -24 57 -28 0 -12 -130 -20 -203 -13 -78 7 -101 -6 -111 -62 -5 -26 -17
-40 -54 -64 -26 -16 -60 -43 -76 -60 -23 -24 -26 -32 -17 -50 7 -12 20 -21 30
-21 26 0 59 -40 81 -99 25 -65 25 -117 0 -172 -28 -62 -26 -71 13 -67 l32 3 1
-80 c1 -44 5 -108 9 -143 6 -50 4 -66 -8 -80 -10 -10 -18 -47 -23 -94 -5 -63
-4 -82 10 -102 23 -35 22 -125 -1 -142 -26 -18 -33 -194 -9 -213 22 -18 22
-123 1 -141 -11 -9 -15 -35 -15 -105 0 -78 3 -96 20 -115 24 -27 28 -123 7
-145 -8 -8 -12 -30 -11 -56 2 -24 3 -65 3 -91 1 -35 7 -53 25 -73 29 -31 45
-127 25 -151 -8 -10 -10 -34 -4 -87 11 -97 10 -120 -7 -209 -17 -86 -43 -127
-134 -205 -30 -25 -60 -55 -65 -65 -9 -17 -4 -18 69 -18 l79 0 12 53 c15 67
44 115 77 128 33 12 34 11 45 -48 5 -26 14 -67 20 -91 l12 -43 66 3 66 3 3 35
c4 42 -16 150 -30 168 -13 15 -19 10 69 61 67 40 138 105 174 161 16 24 16 24
27 -38 6 -35 21 -137 34 -227 l23 -165 537 0 c397 0 538 3 538 11 0 7 -9 43
-21 81 -19 66 -20 79 -9 221 6 84 17 202 25 262 8 61 17 137 20 170 3 33 13
112 22 175 14 101 19 118 41 137 14 12 29 20 33 17 4 -2 10 0 14 6 3 5 14 10
24 10 9 0 30 13 46 30 16 17 34 30 39 30 18 0 166 160 207 223 56 86 63 115
56 231 -6 88 -15 139 -42 222 -6 18 2 24 67 49 40 15 90 37 111 47 l39 19 37
-24 c20 -13 57 -34 81 -47 25 -12 57 -34 73 -48 16 -15 27 -20 27 -13 0 8 -31
45 -70 82 -38 38 -68 69 -66 69 2 0 23 -7 46 -15 23 -8 44 -15 46 -15 11 0 2
24 -12 35 -13 9 -14 16 -5 33 20 38 14 79 -17 100 -46 33 -100 41 -271 40
-152 0 -168 -2 -212 -24 -55 -28 -65 -29 -73 -8 -4 11 7 28 35 53 28 25 46 53
59 91 15 46 24 58 57 73 21 11 49 29 62 40 29 27 60 93 61 128 0 33 46 77 96
90 50 14 100 51 120 91 10 19 17 63 19 110 3 75 2 79 -14 64 -12 -11 -27 -14
-49 -10 -33 7 -41 -3 -20 -24 9 -9 9 -15 3 -20 -166 -115 -196 -132 -214 -123
-21 12 -48 -10 -36 -28 3 -6 -35 -37 -84 -70 -82 -54 -93 -59 -130 -54 -49 7
-67 -5 -75 -53 -6 -28 -19 -43 -68 -79 l-60 -44 -47 30 c-121 74 -285 104
-432 79 -73 -13 -114 -30 -72 -30 12 0 24 -4 28 -9 7 -12 -43 -48 -81 -57 -40
-9 -48 -15 -34 -24 9 -6 -1 -27 -36 -76 -27 -37 -43 -65 -36 -60 17 10 15 -9
-3 -24 -19 -16 -19 -31 0 -24 11 5 15 -1 15 -25 0 -35 -18 -40 -60 -16 -34 18
-50 3 -50 -46 0 -28 -6 -42 -20 -51 -11 -7 -20 -23 -20 -35 0 -12 -7 -28 -15
-37 -8 -8 -15 -21 -15 -28 0 -7 -9 -28 -20 -46 -32 -51 -26 -74 44 -167 36
-47 67 -89 70 -94 3 -5 -2 -19 -12 -31 l-18 -23 -82 61 c-111 82 -248 166
-359 220 l-93 45 0 61 c0 33 -11 131 -25 216 -14 85 -26 163 -28 174 -1 10 7
23 18 30 11 6 22 12 24 13 2 2 -3 11 -12 21 -39 43 -72 152 -47 152 6 0 33 21
61 47 27 25 51 44 52 42 2 -2 13 -20 25 -40 32 -52 114 -126 169 -151 38 -17
69 -22 149 -22 110 -1 119 -5 155 -62 24 -40 49 -43 97 -14 36 22 39 35 17 87
-8 19 -15 42 -15 50 0 8 25 45 55 81 66 80 88 140 89 242 0 140 -43 225 -155
301 -45 30 -59 46 -59 64 0 13 -4 26 -9 29 -5 3 0 34 11 68 30 97 34 184 12
267 l-18 71 -468 0 -468 0 -12 -27z m42 -883 c0 -43 -4 -46 -47 -29 l-28 10
33 30 c18 16 34 29 37 29 3 0 5 -18 5 -40z m2370 -14 c0 -2 -8 -10 -17 -17
-16 -13 -17 -12 -4 4 13 16 21 21 21 13z m-230 -235 c0 -14 -60 -75 -67 -68
-3 4 7 22 23 41 29 35 44 44 44 27z m-190 -236 c-7 -8 -17 -15 -23 -15 -5 0
-2 9 8 20 21 23 35 19 15 -5z m-1881 -322 c1 -14 -5 -23 -14 -23 -11 0 -15 11
-15 43 0 24 3 47 8 51 7 8 19 -31 21 -71z m-2 -160 c-2 -16 -4 -5 -4 22 0 28
2 40 4 28 2 -13 2 -35 0 -50z m81 11 c45 -61 145 -138 375 -290 108 -71 196
-133 197 -138 0 -11 -72 -103 -275 -346 -94 -113 -188 -230 -210 -260 -42 -59
-74 -97 -76 -89 0 2 -6 30 -13 62 -11 48 -10 59 2 69 11 10 13 34 10 111 -3
86 -6 101 -25 115 -28 22 -36 119 -13 147 23 28 21 186 -2 212 -25 27 -25 119
-1 146 14 15 18 37 18 106 0 54 -5 94 -12 102 -15 19 -29 99 -17 99 5 -1 24
-21 42 -46z m-48 -165 c0 -61 -6 -75 -26 -58 -8 6 -21 9 -29 5 -12 -4 -15 5
-15 53 l0 58 35 -1 35 -1 0 -56z m-2 -353 l-3 -59 -33 -1 -32 -1 0 61 0 61 35
-1 36 -1 -3 -59z m25 -378 l2 -53 -35 4 c-19 1 -36 4 -36 4 -1 1 -4 28 -7 59
l-4 57 31 3 c39 4 46 -7 49 -74z m-3 -312 c0 -8 -4 -17 -9 -20 -10 -7 -23 19
-14 28 11 11 23 6 23 -8z m119 -358 c5 -13 12 -38 16 -55 5 -26 3 -33 -9 -33
-8 0 -22 -12 -30 -27 l-14 -28 -10 25 c-5 14 -13 44 -17 68 -5 33 -4 42 8 42
8 0 20 7 27 15 16 20 19 19 29 -7z"/>
</g>
</svg>
