<?xml version="1.0" standalone="no"?>
<!DOCTYPE svg PUBLIC "-//W3C//DTD SVG 20010904//EN"
 "http://www.w3.org/TR/2001/REC-SVG-20010904/DTD/svg10.dtd">
<svg version="1.0" xmlns="http://www.w3.org/2000/svg"
 width="480.000000pt" height="360.000000pt" viewBox="0 0 480.000000 360.000000"
 preserveAspectRatio="xMidYMid meet">
<metadata>
Created by potrace 1.16, written by Peter Selinger 2001-2019
</metadata>
<rect width="1" height="360" fill="#000000"/>
<rect x="479" width="1" height="360" fill="#000000"/>
<rect width="480" height="1" fill="#000000"/>
<rect y="359" width="480" height="1" fill="#000000"/>
<g transform="translate(0.000000,360.000000) scale(0.100000,-0.100000)"
fill="#000000" stroke="none">
<path d="M0 1800 l0 -1800 985 0 985 0 6 28 c14 60 34 131 59 212 21 66 25 88
16 102 -18 29 -25 103 -12 138 8 25 8 35 -3 46 -15 15 -12 38 21 134 31 93 87
318 95 385 4 39 9 79 10 90 2 12 11 33 21 48 20 31 23 75 5 82 -14 6 -19 197
-5 211 12 12 8 34 -9 41 -8 3 -26 -4 -40 -18 -29 -27 -54 -18 -65 22 -13 53
21 73 148 84 62 6 75 11 91 32 15 20 30 27 70 31 45 4 58 1 92 -23 30 -20 59
-30 122 -37 46 -6 89 -15 96 -21 14 -11 16 -65 2 -87 -7 -12 -13 -12 -33 -1
-31 17 -51 6 -42 -23 3 -11 13 -47 20 -78 9 -34 25 -67 40 -83 30 -30 28 -51
-4 -47 -19 3 -22 0 -16 -17 11 -35 22 -121 16 -121 -4 0 -5 -35 -3 -77 4 -78
41 -231 103 -417 33 -102 34 -109 14 -126 -11 -9 -13 -29 -11 -78 2 -44 -2
-80 -12 -105 -14 -37 -13 -43 21 -160 20 -67 37 -131 39 -142 3 -20 12 -20
991 -23 l987 -2 0 1800 0 1800 -2400 0 -2400 0 0 -1800z"/>
</g>
</svg>
