<?xml version="1.0" standalone="no"?>
<!DOCTYPE svg PUBLIC "-//W3C//DTD SVG 20010904//EN"
 "http://www.w3.org/TR/2001/REC-SVG-20010904/DTD/svg10.dtd">
<svg version="1.0" xmlns="http://www.w3.org/2000/svg"
 width="480.000000pt" height="360.000000pt" viewBox="0 0 480.000000 360.000000"
 preserveAspectRatio="xMidYMid meet">
<metadata>
Created by potrace 1.16, written by Peter Selinger 2001-2019
</metadata>
<rect width="1" height="360" fill="#000000"/>
<rect x="479" width="1" height="360" fill="#000000"/>
<rect width="480" height="1" fill="#000000"/>
<rect y="359" width="480" height="1" fill="#000000"/>
<g transform="translate(0.000000,360.000000) scale(0.100000,-0.100000)"
fill="#000000" stroke="none">
<path d="M2597 3386 c-4 -10 -10 -16 -13 -13 -9 9 -41 -27 -36 -40 2 -7 -1
-13 -8 -13 -6 0 -40 -11 -75 -26 -53 -20 -68 -23 -86 -14 -29 16 -39 2 -30
-40 6 -28 2 -45 -18 -83 -22 -44 -23 -52 -12 -80 23 -58 23 -65 4 -76 -14 -7
-33 -5 -69 6 -69 22 -79 29 -76 46 3 16 -36 32 -78 32 -21 0 -26 -5 -28 -32
-2 -18 -7 -33 -11 -33 -26 0 -82 34 -101 60 -28 39 -55 38 -81 -2 -35 -57 -9
-178 39 -178 10 0 32 16 51 35 34 36 65 47 54 19 -3 -8 0 -25 6 -37 10 -18 7
-36 -13 -97 -31 -91 -32 -102 -6 -125 19 -18 23 -17 100 4 44 12 84 20 89 17
4 -3 22 -1 39 3 l31 9 -21 -39 c-17 -34 -20 -50 -14 -106 4 -35 13 -83 21
-106 12 -36 12 -44 -5 -76 -10 -20 -32 -77 -49 -127 -45 -133 -67 -181 -91
-194 -34 -18 -80 -90 -80 -124 0 -66 73 -136 180 -171 47 -16 48 -16 43 -53
-3 -20 1 -64 8 -97 7 -33 13 -82 14 -110 0 -27 4 -58 9 -68 4 -9 5 -28 2 -41
-6 -23 -11 -24 -96 -28 -94 -3 -111 -11 -125 -56 -11 -36 67 -106 142 -128 68
-19 91 -35 71 -51 -7 -6 -53 -25 -103 -42 -49 -18 -95 -37 -102 -42 -9 -8 -3
-22 24 -61 36 -49 36 -50 16 -69 -13 -13 -39 -22 -76 -26 -31 -3 -57 -9 -57
-13 0 -3 14 -17 32 -30 l31 -23 21 25 c12 14 49 40 84 57 54 27 70 31 110 26
26 -4 60 -11 76 -17 25 -10 30 -9 45 11 28 37 95 61 171 61 52 0 73 4 93 20
14 11 29 20 35 20 15 0 42 35 42 56 0 11 -16 35 -35 54 -42 40 -43 62 -10 127
l25 48 -15 82 c-8 45 -15 94 -15 110 0 62 -19 180 -35 218 -14 32 -16 55 -10
120 5 66 2 99 -15 170 -11 49 -27 136 -35 193 -9 64 -25 127 -41 163 -25 56
-26 60 -10 78 14 16 15 24 5 64 -16 58 -3 111 29 115 25 4 63 50 85 104 16 37
12 77 -7 90 -15 10 -16 60 -3 151 9 62 16 82 34 97 28 22 28 23 1 53 -13 14
-34 53 -46 86 -20 51 -22 64 -11 77 13 16 19 64 8 64 -4 0 -9 8 -11 18 -3 15
-4 15 -11 -2z m-319 -433 c2 -9 -8 -13 -31 -13 -21 0 -41 -7 -52 -20 -27 -30
-38 -13 -13 21 19 25 28 29 57 27 19 -2 36 -9 39 -15z m78 -20 c4 -13 4 -27 0
-30 -9 -10 -46 28 -46 48 0 26 39 12 46 -18z m-176 -69 c0 -8 -42 -46 -46 -42
-9 9 21 55 33 51 7 -3 13 -7 13 -9z m430 -5 c0 -5 -4 -9 -10 -9 -5 0 -10 7
-10 16 0 8 5 12 10 9 6 -3 10 -10 10 -16z m-94 -1110 c14 -11 63 -165 63 -199
1 -78 -1 -119 -8 -150 -8 -39 -10 -40 -128 -25 -70 9 -82 24 -83 105 0 25 -1
61 -2 80 -1 19 -1 73 0 120 l2 86 73 -4 c39 -2 77 -8 83 -13z m-120 -691 c23
-23 9 -38 -35 -38 -21 0 -55 -7 -74 -15 -49 -20 -61 -19 -97 11 -23 20 -28 29
-20 40 23 27 199 29 226 2z"/>
<path d="M958 3267 c-13 -10 -15 -21 -9 -54 8 -41 7 -43 -48 -97 -45 -45 -61
-54 -79 -49 -18 4 -24 1 -29 -16 -3 -11 -9 -21 -14 -21 -16 0 -10 -20 16 -54
19 -25 25 -45 25 -83 0 -52 21 -84 57 -89 20 -3 34 -25 28 -43 -3 -7 2 -19 11
-26 15 -11 15 -14 0 -38 -10 -14 -16 -36 -15 -49 2 -13 -5 -37 -14 -54 -9 -17
-14 -34 -12 -36 3 -3 -8 -32 -24 -65 -24 -49 -42 -69 -95 -107 -36 -25 -73
-49 -83 -53 -10 -3 -27 -17 -38 -30 -16 -19 -35 -26 -94 -34 -41 -5 -82 -15
-91 -24 -14 -13 -19 -12 -47 5 -17 10 -37 31 -45 47 -19 41 -73 42 -230 3
l-128 -32 0 -87 c0 -83 1 -87 28 -102 15 -9 198 -116 407 -238 369 -217 381
-223 425 -218 25 2 52 8 61 11 15 7 15 1 -2 -61 -21 -76 -24 -115 -9 -144 6
-10 62 -62 126 -115 63 -52 112 -99 110 -103 -3 -4 -35 -25 -72 -47 -36 -21
-79 -55 -96 -76 -28 -35 -29 -40 -17 -73 10 -25 10 -38 2 -46 -9 -9 -263 -88
-340 -106 -17 -4 -44 12 -107 61 -47 36 -92 66 -100 66 -33 0 -386 -149 -386
-163 0 -10 95 -101 330 -314 85 -77 240 -218 345 -312 176 -160 191 -172 220
-167 40 9 385 206 399 229 13 22 8 27 -219 201 -182 140 -196 153 -174 167 8
5 21 6 29 2 8 -4 49 -9 91 -11 77 -3 149 15 149 37 0 6 11 11 25 11 14 0 40
15 65 38 45 43 53 89 24 130 -19 27 -9 43 37 62 31 13 59 55 59 87 0 10 -7 28
-15 41 -11 15 -14 33 -10 56 6 30 3 38 -39 78 -26 24 -48 54 -51 67 -5 29 -23
51 -42 51 -8 0 -20 15 -28 33 -8 19 -21 39 -29 47 -9 7 -16 21 -16 31 0 10
-20 56 -43 103 -31 60 -41 89 -35 100 12 22 61 46 95 46 15 0 62 17 103 38 56
28 76 43 78 60 2 12 -27 97 -64 190 -80 199 -108 258 -141 293 -23 25 -24 33
-20 95 5 61 20 181 27 209 6 25 -2 48 -24 68 -41 39 -37 58 18 87 62 31 74 62
56 134 -7 28 -22 70 -34 94 -20 42 -20 43 -1 77 18 35 18 35 -5 60 -14 15 -35
25 -52 25 -31 0 -77 42 -78 71 0 8 -13 33 -29 55 -16 21 -32 49 -35 62 -8 25
-14 27 -38 9z m-73 -984 c31 -73 30 -81 -7 -97 -18 -9 -49 -25 -68 -37 -47
-29 -125 -35 -174 -14 -37 16 -38 17 -20 36 19 21 70 49 89 49 6 0 40 22 76
50 35 27 70 50 76 50 7 0 20 -17 28 -37z m-315 -83 c11 -7 12 -12 4 -20 -9 -9
-20 -8 -43 4 -17 9 -31 19 -31 21 0 9 55 5 70 -5z m275 -150 c5 -8 11 -8 20 0
17 14 45 2 45 -21 0 -10 -3 -19 -7 -19 -16 0 -93 35 -93 43 0 11 28 8 35 -3z
m113 -1203 c2 -45 -3 -70 -22 -112 -24 -53 -26 -55 -65 -55 -33 0 -52 9 -108
52 -64 49 -82 66 -83 78 0 20 214 101 255 97 17 -2 20 -10 23 -60z"/>
<path d="M4100 3191 c0 -30 -8 -48 -38 -82 -20 -24 -54 -65 -74 -90 -25 -31
-48 -48 -68 -52 -37 -8 -37 -19 -5 -61 22 -29 24 -37 14 -62 -14 -37 -13 -202
0 -218 13 -15 -6 -34 -55 -59 -35 -18 -63 -47 -45 -47 6 0 11 -4 11 -10 0 -5
-16 -10 -35 -10 -29 0 -39 -6 -55 -32 -11 -18 -23 -44 -25 -58 -3 -14 -12 -47
-21 -73 -14 -44 -14 -51 0 -72 8 -13 28 -26 43 -30 15 -3 37 -18 47 -32 19
-25 19 -26 -12 -87 -17 -35 -36 -93 -42 -136 -15 -91 -44 -189 -70 -233 -10
-17 -22 -50 -25 -72 -5 -35 -2 -45 26 -79 18 -21 51 -46 74 -56 36 -15 43 -24
49 -55 6 -32 4 -42 -18 -64 -14 -14 -32 -46 -41 -71 -9 -25 -22 -55 -30 -67
-30 -46 -49 -119 -50 -203 -2 -91 3 -106 54 -158 17 -17 31 -37 31 -44 0 -16
51 -72 100 -109 21 -15 31 -30 26 -37 -10 -16 -100 -56 -161 -71 -62 -15 -72
-24 -58 -53 18 -38 160 -184 192 -198 32 -13 81 -7 81 11 0 5 -37 45 -82 88
-102 97 -102 111 4 108 72 -2 75 -4 116 -45 23 -23 50 -42 60 -42 10 0 27 -7
38 -15 10 -8 36 -15 56 -15 29 0 52 -11 95 -44 32 -23 68 -48 81 -55 31 -16
194 -20 181 -4 -7 7 -6 14 1 18 14 8 30 -3 30 -21 0 -31 32 -74 68 -93 52 -26
132 -37 132 -18 0 8 -7 21 -17 28 -9 8 -34 37 -56 64 -22 28 -80 83 -131 123
-50 41 -95 80 -99 88 -4 8 -15 14 -24 14 -8 0 -38 25 -65 55 -28 30 -79 71
-114 92 -37 22 -63 44 -62 52 2 8 20 20 40 27 40 13 97 69 98 94 0 34 -41 81
-94 107 -69 33 -89 70 -63 115 10 17 14 39 11 52 -3 12 4 46 15 74 17 42 21
75 21 167 l0 115 43 29 c93 64 100 83 72 190 -14 56 -86 221 -144 331 -32 61
-31 67 29 135 33 37 48 78 48 128 0 21 2 41 5 43 13 13 63 -13 117 -62 88 -78
112 -89 174 -76 28 6 74 14 101 18 28 4 61 11 75 16 17 7 27 5 35 -4 10 -14
59 -38 75 -38 13 0 13 57 0 65 -5 3 -7 12 -4 19 5 14 -44 56 -67 56 -7 0 -21
8 -31 17 -11 10 -40 18 -69 20 -40 2 -59 9 -85 32 -19 17 -53 35 -76 41 -24 6
-53 15 -66 20 -13 6 -27 8 -31 6 -15 -10 -36 14 -37 44 -1 24 5 35 25 48 14 9
28 19 31 22 3 3 21 17 40 30 19 14 40 28 45 33 23 18 149 97 155 97 15 0 18
28 6 46 -12 16 -14 16 -32 0 -41 -37 -104 -82 -233 -167 -110 -72 -137 -86
-153 -78 -20 11 -16 29 6 29 7 0 21 18 31 39 9 22 30 52 46 67 23 22 29 36 29
72 0 24 -5 52 -10 62 -8 15 -5 28 15 60 14 22 23 45 20 49 -3 5 -21 9 -41 9
-26 0 -43 7 -59 25 -13 13 -44 41 -70 63 -43 35 -47 41 -41 72 5 35 -7 72 -24
72 -6 0 -10 -17 -10 -39z m-68 -1716 c11 -36 0 -252 -13 -277 -6 -12 -6 -25
-1 -35 7 -12 4 -28 -9 -53 l-20 -37 -87 -7 c-97 -7 -103 -5 -124 65 -9 32 -7
44 15 91 14 29 43 74 64 98 61 70 73 92 73 132 0 48 20 68 61 59 25 -5 35 -14
41 -36z"/>
</g>
</svg>
