<?xml version="1.0" standalone="no"?>
<!DOCTYPE svg PUBLIC "-//W3C//DTD SVG 20010904//EN"
 "http://www.w3.org/TR/2001/REC-SVG-20010904/DTD/svg10.dtd">
<svg version="1.0" xmlns="http://www.w3.org/2000/svg"
 width="480.000000pt" height="360.000000pt" viewBox="0 0 480.000000 360.000000"
 preserveAspectRatio="xMidYMid meet">
<metadata>
Created by potrace 1.16, written by Peter Selinger 2001-2019
</metadata>
<rect width="1" height="360" fill="#000000"/>
<rect x="479" width="1" height="360" fill="#000000"/>
<rect width="480" height="1" fill="#000000"/>
<rect y="359" width="480" height="1" fill="#000000"/>
<g transform="translate(0.000000,360.000000) scale(0.100000,-0.100000)"
fill="#000000" stroke="none">
<path d="M0 1854 l0 -1745 38 -54 37 -54 1308 -1 c719 0 1307 4 1307 8 0 4
-16 24 -36 43 -64 60 -200 237 -241 313 -52 96 -121 273 -139 356 -8 36 -19
83 -25 105 -17 67 -23 347 -10 444 28 192 79 354 158 500 72 132 108 210 131
281 83 255 99 464 56 740 -23 151 -54 248 -132 410 -77 160 -122 227 -233 342
l-56 58 -1081 0 -1082 0 0 -1746z m1327 980 c97 -42 164 -119 198 -227 24 -79
17 -155 -25 -236 -90 -180 -278 -247 -461 -165 -117 53 -207 203 -197 328 8
99 86 229 169 282 52 32 92 42 181 43 63 1 89 -4 135 -25z"/>
<path d="M4750 3593 c1 -5 12 -21 25 -38 l25 -30 0 38 c0 33 -3 37 -25 37 -14
0 -25 -3 -25 -7z"/>
<path d="M3488 1465 c-194 -48 -328 -255 -296 -460 13 -84 41 -142 96 -198
129 -132 316 -163 476 -79 76 40 126 95 179 196 30 58 32 67 31 166 0 86 -4
113 -22 150 -35 74 -94 142 -152 177 -102 61 -196 76 -312 48z"/>
<path d="M4740 55 c-52 -52 -53 -55 -28 -55 19 0 33 10 49 33 13 17 27 35 32
38 5 4 7 14 5 23 -2 13 -17 3 -58 -39z"/>
</g>
</svg>
