<?xml version="1.0" standalone="no"?>
<!DOCTYPE svg PUBLIC "-//W3C//DTD SVG 20010904//EN"
 "http://www.w3.org/TR/2001/REC-SVG-20010904/DTD/svg10.dtd">
<svg version="1.0" xmlns="http://www.w3.org/2000/svg"
 width="480.000000pt" height="360.000000pt" viewBox="0 0 480.000000 360.000000"
 preserveAspectRatio="xMidYMid meet">
<metadata>
Created by potrace 1.16, written by Peter Selinger 2001-2019
</metadata>
<rect width="1" height="360" fill="#000000"/>
<rect x="479" width="1" height="360" fill="#000000"/>
<rect width="480" height="1" fill="#000000"/>
<rect y="359" width="480" height="1" fill="#000000"/>
<g transform="translate(0.000000,360.000000) scale(0.100000,-0.100000)"
fill="#000000" stroke="none">
<path d="M1784 3578 c14 -55 28 -260 22 -333 -13 -156 -17 -190 -28 -225 -6
-19 -13 -47 -14 -62 -2 -15 -15 -55 -29 -87 -14 -33 -25 -65 -25 -71 0 -20
-68 -157 -115 -230 -47 -74 -60 -90 -120 -155 -16 -17 -48 -52 -70 -76 -59
-64 -221 -199 -239 -199 -4 0 -25 -13 -48 -30 -22 -16 -45 -30 -50 -30 -5 0
-30 -12 -55 -27 -93 -54 -204 -87 -423 -125 -145 -25 -337 -14 -495 29 -11 3
-37 8 -58 10 l-37 5 0 -986 0 -986 2125 0 c1169 0 2125 3 2125 6 0 3 -7 31
-16 62 -21 72 -12 124 62 356 82 255 102 341 130 541 16 121 23 157 65 320 27
104 28 116 19 215 -5 58 -9 114 -10 125 0 13 -15 30 -40 45 -22 14 -47 40 -56
58 -14 30 -14 37 0 80 9 26 33 73 55 104 26 39 40 72 45 108 5 39 15 60 43 90
29 33 33 43 23 55 -9 11 -10 18 -1 28 16 20 3 27 -26 16 -26 -10 -68 6 -93 36
-7 9 -27 23 -42 31 -24 13 -27 18 -17 30 17 21 2 32 -55 43 -33 6 -57 18 -78
40 l-31 31 12 72 12 72 -72 67 c-122 113 -101 126 230 141 l238 11 76 -40 77
-40 0 448 0 449 -1511 0 -1511 0 6 -22z"/>
</g>
</svg>
