<?xml version="1.0" standalone="no"?>
<!DOCTYPE svg PUBLIC "-//W3C//DTD SVG 20010904//EN"
 "http://www.w3.org/TR/2001/REC-SVG-20010904/DTD/svg10.dtd">
<svg version="1.0" xmlns="http://www.w3.org/2000/svg"
 width="480.000000pt" height="360.000000pt" viewBox="0 0 480.000000 360.000000"
 preserveAspectRatio="xMidYMid meet">
<metadata>
Created by potrace 1.16, written by Peter Selinger 2001-2019
</metadata>
<rect width="1" height="360" fill="#000000"/>
<rect x="479" width="1" height="360" fill="#000000"/>
<rect width="480" height="1" fill="#000000"/>
<rect y="359" width="480" height="1" fill="#000000"/>
<g transform="translate(0.000000,360.000000) scale(0.100000,-0.100000)"
fill="#000000" stroke="none">
<path d="M0 1800 l0 -1800 2400 0 2400 0 0 1800 0 1800 -2400 0 -2400 0 0
-1800z m2356 69 c39 -44 90 -10 114 76 14 49 30 60 30 19 0 -47 22 -115 42
-125 33 -18 55 -1 92 71 21 39 39 70 41 70 3 0 2 -34 -2 -75 -4 -53 -2 -79 7
-90 25 -30 50 -17 92 50 23 36 43 63 45 61 2 -1 -4 -31 -12 -65 -17 -65 -17
-112 0 -117 6 -2 30 24 54 57 45 62 64 73 37 21 -48 -93 -66 -176 -22 -101 10
17 20 28 23 25 3 -2 -12 -34 -34 -71 -60 -105 -63 -110 -74 -169 -11 -53 -6
-128 9 -124 15 4 80 -31 115 -61 60 -54 80 -94 74 -154 -2 -28 -10 -53 -16
-55 -6 -2 -11 -9 -11 -16 0 -34 -132 -114 -245 -149 -62 -20 -237 -47 -298
-47 -63 0 -266 27 -330 44 -150 40 -249 106 -281 187 -20 50 -15 81 23 141 33
52 138 119 152 97 11 -19 23 75 16 133 -4 28 -20 77 -37 110 -23 44 -30 67
-25 88 4 19 -1 45 -15 77 l-21 48 39 -44 c50 -58 66 -50 59 28 -3 31 -8 67
-12 81 -6 28 -6 27 40 -43 28 -42 50 -55 73 -41 13 9 18 28 20 94 l3 83 28
-59 c34 -72 61 -98 91 -89 25 8 50 60 50 104 0 64 13 68 31 7 10 -32 25 -66
35 -77z"/>
</g>
</svg>
