<?xml version="1.0" standalone="no"?>
<!DOCTYPE svg PUBLIC "-//W3C//DTD SVG 20010904//EN"
 "http://www.w3.org/TR/2001/REC-SVG-20010904/DTD/svg10.dtd">
<svg version="1.0" xmlns="http://www.w3.org/2000/svg"
 width="480.000000pt" height="360.000000pt" viewBox="0 0 480.000000 360.000000"
 preserveAspectRatio="xMidYMid meet">
<metadata>
Created by potrace 1.16, written by Peter Selinger 2001-2019
</metadata>
<rect width="1" height="360" fill="#000000"/>
<rect x="479" width="1" height="360" fill="#000000"/>
<rect width="480" height="1" fill="#000000"/>
<rect y="359" width="480" height="1" fill="#000000"/>
<g transform="translate(0.000000,360.000000) scale(0.100000,-0.100000)"
fill="#000000" stroke="none">
<path d="M0 1800 l0 -1800 334 0 335 0 11 58 c6 31 13 64 16 73 3 10 -3 18
-14 21 -27 7 -57 101 -41 129 6 12 9 40 6 63 -3 33 1 46 19 66 23 25 23 27 8
70 -8 25 -20 49 -25 54 -14 15 -11 23 12 29 20 5 22 10 16 66 -6 55 -11 64
-48 98 -81 73 -93 124 -38 156 43 24 56 66 63 212 11 225 27 457 36 544 5 47
8 87 6 89 -3 2 -15 -4 -29 -13 -20 -13 -29 -14 -51 -4 -29 14 -31 20 -14 37 7
7 17 31 24 55 7 23 19 67 28 99 19 66 13 89 -34 133 -97 91 -157 355 -116 514
36 139 107 219 304 344 191 121 264 153 414 181 46 9 110 25 143 37 38 13 86
21 137 22 l78 1 0 111 c0 60 4 116 8 122 9 15 49 -39 171 -232 46 -71 100
-148 121 -170 47 -48 114 -165 130 -226 7 -24 25 -69 42 -100 25 -49 36 -60
81 -80 55 -24 125 -29 203 -14 39 7 43 6 60 -24 12 -20 26 -31 41 -31 29 0 29
-5 -3 -98 -42 -126 -59 -141 -115 -101 -17 12 -37 18 -48 14 -17 -5 -17 -9 -6
-58 7 -28 16 -60 20 -70 5 -13 3 -16 -7 -12 -12 5 -17 -4 -21 -37 -3 -23 -12
-47 -19 -53 -8 -5 -17 -18 -21 -28 -4 -10 -12 -15 -17 -12 -6 4 -9 3 -8 -2 1
-4 -1 -25 -5 -45 -6 -29 -11 -36 -24 -31 -9 4 -14 2 -10 -3 3 -6 2 -16 -4 -24
-7 -12 -9 -11 -9 5 0 11 -4 26 -9 34 -8 12 -12 12 -27 0 -11 -8 -21 -23 -22
-34 -2 -11 -12 -29 -22 -40 -14 -16 -16 -32 -13 -85 3 -36 10 -71 16 -78 7 -9
6 -20 -2 -36 -11 -20 -9 -30 13 -75 15 -28 24 -51 21 -51 -3 0 -21 17 -40 37
l-33 36 -17 -39 c-9 -21 -22 -56 -28 -77 -7 -21 -28 -59 -48 -85 l-35 -47
-112 1 -112 2 0 -39 c0 -42 -11 -37 130 -59 36 -5 132 -25 215 -44 128 -28
152 -37 169 -59 24 -32 15 -57 -20 -57 l-27 0 27 -32 c14 -18 36 -51 47 -73
12 -22 23 -41 24 -43 1 -1 40 12 86 29 244 91 558 103 822 33 440 -118 799
-419 1025 -862 35 -67 61 -126 58 -131 -3 -5 -33 -19 -66 -31 -33 -12 -60 -24
-60 -26 0 -2 158 -4 350 -4 l350 0 0 1800 0 1800 -2400 0 -2400 0 0 -1800z
m266 1373 c-7 -7 -26 7 -26 19 0 6 6 6 15 -2 9 -7 13 -15 11 -17z m2972 -1007
c15 -8 38 -27 52 -42 l25 -28 -33 27 c-19 15 -51 30 -73 33 -22 4 -42 11 -45
15 -8 14 44 10 74 -5z"/>
<path d="M1241 1311 c-14 -4 -27 -13 -29 -20 -4 -11 0 -12 14 -6 11 4 29 10
42 12 12 3 25 9 28 14 6 10 -19 10 -55 0z"/>
<path d="M1165 1280 c-3 -5 -2 -10 4 -10 5 0 13 5 16 10 3 6 2 10 -4 10 -5 0
-13 -4 -16 -10z"/>
</g>
</svg>
