<?xml version="1.0" standalone="no"?>
<!DOCTYPE svg PUBLIC "-//W3C//DTD SVG 20010904//EN"
 "http://www.w3.org/TR/2001/REC-SVG-20010904/DTD/svg10.dtd">
<svg version="1.0" xmlns="http://www.w3.org/2000/svg"
 width="480.000000pt" height="360.000000pt" viewBox="0 0 480.000000 360.000000"
 preserveAspectRatio="xMidYMid meet">
<metadata>
Created by potrace 1.16, written by Peter Selinger 2001-2019
</metadata>
<rect width="1" height="360" fill="#000000"/>
<rect x="479" width="1" height="360" fill="#000000"/>
<rect width="480" height="1" fill="#000000"/>
<rect y="359" width="480" height="1" fill="#000000"/>
<g transform="translate(0.000000,360.000000) scale(0.100000,-0.100000)"
fill="#000000" stroke="none">
<path d="M2900 3583 c0 -25 54 -136 86 -178 l26 -34 -29 -6 c-120 -25 -171
-42 -259 -85 -97 -47 -218 -133 -275 -196 -40 -43 -119 -163 -141 -213 -11
-23 -29 -74 -39 -113 -24 -85 -58 -154 -94 -191 -41 -40 -6 -36 41 6 l37 32
-7 -29 c-15 -62 -18 -92 -7 -76 10 15 9 -19 -4 -130 l-4 -35 19 24 c22 25 21
25 40 -46 13 -52 24 -56 18 -9 -2 19 0 32 4 30 4 -3 8 -14 8 -24 0 -27 36 -85
42 -68 3 8 11 2 21 -17 11 -20 16 -24 17 -12 0 28 20 19 27 -13 3 -18 11 -29
19 -28 7 2 20 -6 28 -17 12 -15 16 -16 16 -5 0 9 6 5 15 -10 14 -25 14 -25 15
15 0 27 3 36 9 26 10 -16 6 -67 -8 -103 -5 -13 -26 -40 -46 -60 -45 -45 -42
-62 23 -103 39 -25 48 -36 50 -65 4 -44 24 -66 68 -74 35 -7 37 -11 34 -58 -1
-17 5 -30 17 -37 11 -5 36 -38 57 -73 36 -60 38 -66 33 -131 -4 -64 -3 -68 19
-73 19 -5 21 -9 11 -24 -9 -15 -8 -23 6 -38 9 -10 17 -27 17 -38 0 -10 11 -73
25 -138 15 -77 21 -125 15 -136 -10 -19 -118 -105 -124 -99 -2 2 -11 19 -21
38 -9 19 -36 55 -60 80 -23 25 -57 74 -74 108 -17 34 -44 77 -60 95 -28 32
-28 35 -21 113 16 182 -40 344 -133 389 -38 18 -169 22 -244 7 -46 -9 -53 -3
-53 49 0 34 -13 45 -30 26 -8 -11 -9 -25 -1 -53 6 -20 7 -40 3 -44 -4 -4 -32
-14 -62 -24 -72 -23 -121 -48 -144 -74 -11 -12 -25 -21 -32 -21 -21 0 -40 -46
-60 -142 l-18 -87 34 -135 c33 -136 33 -136 95 -209 81 -94 102 -112 147 -126
21 -7 40 -16 43 -21 3 -4 -11 -41 -29 -81 -57 -124 -78 -237 -106 -575 -5 -61
-14 -131 -19 -155 -6 -24 -11 -54 -11 -66 l0 -23 299 0 299 0 46 94 c42 84
130 215 155 230 5 4 5 -9 0 -32 -5 -20 -12 -94 -16 -164 l-6 -128 71 0 c51 0
72 4 72 13 0 9 2 9 8 -1 7 -10 175 -12 818 -10 l809 3 71 32 c75 33 144 73
144 85 0 4 -14 8 -31 10 l-31 3 36 45 c20 25 36 49 36 54 0 5 -27 6 -60 2 -52
-6 -73 -16 -164 -77 -57 -38 -123 -76 -145 -84 l-41 -14 -26 52 c-29 56 -73
201 -78 257 -2 19 -13 70 -25 113 -11 42 -21 85 -21 95 0 9 -6 29 -13 43 -8
14 -17 44 -21 68 -3 23 -10 50 -15 59 -5 9 -15 44 -21 77 -7 33 -16 72 -21 88
-15 51 9 28 27 -25 14 -43 19 -49 24 -33 7 19 8 19 15 2 4 -10 13 -16 20 -14
7 3 34 -42 70 -116 72 -149 76 -140 40 103 -14 95 -25 181 -25 190 0 8 17 -15
37 -52 20 -37 38 -66 40 -64 2 1 -10 54 -27 117 -41 155 -49 221 -41 309 5 41
9 63 10 48 2 -50 81 -248 136 -345 59 -104 102 -165 90 -128 -38 116 -74 251
-80 300 l-7 60 58 -92 c66 -105 139 -193 128 -155 -33 123 -47 239 -69 605
-27 441 -42 575 -86 782 -39 181 -79 310 -144 465 -29 69 -61 154 -70 190 -38
148 -146 304 -255 367 -51 30 -133 46 -193 39 l-52 -7 -50 70 -50 71 -322 0
c-301 0 -323 -1 -323 -17z m177 -2082 c10 -15 9 -22 -2 -31 -12 -10 -15 -9
-15 3 0 8 -3 22 -6 31 -9 22 9 20 23 -3z"/>
</g>
</svg>
