<?xml version="1.0" standalone="no"?>
<!DOCTYPE svg PUBLIC "-//W3C//DTD SVG 20010904//EN"
 "http://www.w3.org/TR/2001/REC-SVG-20010904/DTD/svg10.dtd">
<svg version="1.0" xmlns="http://www.w3.org/2000/svg"
 width="480.000000pt" height="360.000000pt" viewBox="0 0 480.000000 360.000000"
 preserveAspectRatio="xMidYMid meet">
<metadata>
Created by potrace 1.16, written by Peter Selinger 2001-2019
</metadata>
<rect width="1" height="360" fill="#000000"/>
<rect x="479" width="1" height="360" fill="#000000"/>
<rect width="480" height="1" fill="#000000"/>
<rect y="359" width="480" height="1" fill="#000000"/>
<g transform="translate(0.000000,360.000000) scale(0.100000,-0.100000)"
fill="#000000" stroke="none">
<path d="M0 2559 c0 -947 1 -1040 16 -1028 13 10 17 10 25 -2 13 -21 11 -28
-16 -55 l-25 -25 0 -724 0 -725 943 0 c925 1 941 1 907 20 -19 10 -52 41 -73
69 -40 52 -45 54 -151 78 -33 7 -41 14 -51 43 -8 24 -23 41 -48 55 -20 11 -37
25 -37 31 0 15 60 94 72 94 5 0 9 15 8 33 -3 59 0 65 66 131 84 85 189 158
344 241 143 77 239 142 323 218 53 47 58 55 51 81 -7 28 -8 28 -22 10 -13 -18
-14 -17 -8 11 3 17 10 47 15 68 11 47 3 46 -32 -4 -34 -49 -48 -44 -18 6 11
20 21 45 21 55 0 18 -1 18 -29 2 -17 -9 -33 -13 -38 -8 -4 5 -2 11 6 14 50 18
64 76 33 140 -10 20 -17 46 -16 57 2 11 7 65 12 120 9 90 14 107 51 173 57 99
52 112 -39 112 -94 0 -160 26 -240 97 -40 35 -98 71 -150 96 -47 21 -95 48
-108 60 l-22 21 31 13 c17 7 50 13 73 13 52 1 142 21 231 54 39 14 90 26 115
27 25 1 55 8 67 15 l22 14 -24 36 c-29 43 -33 103 -9 139 20 31 11 100 -12 91
-18 -7 -18 3 0 23 19 21 22 54 12 113 -12 69 -1 98 65 176 84 99 140 126 247
120 94 -6 159 -36 219 -101 51 -55 60 -72 82 -155 10 -37 21 -75 26 -84 4 -11
3 -18 -3 -18 -6 0 -14 9 -17 21 -14 43 -24 0 -27 -111 -2 -63 1 -126 6 -139 6
-18 5 -22 -5 -18 -8 2 -23 -3 -33 -12 -16 -13 -18 -13 -11 -1 7 13 6 13 -7 2
-12 -10 -17 -10 -20 -1 -2 7 -14 -4 -26 -25 -32 -54 -22 -77 72 -154 99 -81
193 -177 213 -216 20 -39 13 -104 -22 -190 -27 -67 -27 -70 -16 -160 9 -66 18
-97 33 -113 15 -16 18 -29 14 -50 -4 -16 0 -61 9 -101 46 -218 86 -500 95
-667 6 -99 15 -252 22 -340 6 -88 13 -197 15 -242 l5 -83 794 0 794 0 0 1800
0 1800 -2400 0 -2400 0 0 -1041z m60 901 c0 -5 -9 -10 -21 -10 -11 0 -17 5
-14 10 3 6 13 10 21 10 8 0 14 -4 14 -10z m1370 -558 c0 -5 -7 -17 -15 -28
-14 -19 -14 -19 -15 2 0 11 3 24 7 27 9 10 23 9 23 -1z m133 -805 c18 -8 38
-21 46 -30 12 -15 11 -17 -10 -17 -27 0 -89 35 -89 50 0 14 14 13 53 -3z
m-916 -556 c10 -17 9 -20 -15 -24 -32 -6 -62 8 -62 28 0 23 62 20 77 -4z
m3158 -11 c7 -12 -2 -12 -30 0 -19 8 -19 9 2 9 12 1 25 -3 28 -9z m-2007 -472
c-5 -15 -58 -24 -58 -10 0 15 12 22 38 22 14 0 22 -5 20 -12z m-1674 -60 c-7
-26 -33 -58 -46 -58 -18 0 -7 50 14 64 31 22 41 20 32 -6z m4481 -178 c3 -5
-1 -10 -9 -10 -9 0 -16 5 -16 10 0 6 4 10 9 10 6 0 13 -4 16 -10z m-4555 -98
c0 -10 -22 -32 -32 -32 -5 0 -3 9 4 20 13 20 28 27 28 12z m535 -57 c-16 -7
-32 -11 -35 -9 -7 8 24 24 45 23 15 0 13 -4 -10 -14z m685 -439 c0 -8 -61 -48
-66 -43 -3 2 10 14 28 26 35 22 38 23 38 17z"/>
<path d="M2340 2321 c0 -17 5 -31 10 -31 6 0 10 11 10 24 0 14 -4 28 -10 31
-6 4 -10 -7 -10 -24z"/>
<path d="M2498 1711 c-36 -50 -48 -102 -45 -198 2 -72 0 -84 -21 -105 -20 -22
-22 -31 -16 -99 5 -61 2 -85 -16 -137 -34 -96 -31 -95 91 43 185 209 219 265
161 265 -31 0 -136 37 -140 49 -2 7 5 33 16 59 15 35 19 60 15 100 -3 29 -8
54 -12 56 -3 2 -18 -12 -33 -33z"/>
</g>
</svg>
