<?xml version="1.0" standalone="no"?>
<!DOCTYPE svg PUBLIC "-//W3C//DTD SVG 20010904//EN"
 "http://www.w3.org/TR/2001/REC-SVG-20010904/DTD/svg10.dtd">
<svg version="1.0" xmlns="http://www.w3.org/2000/svg"
 width="480.000000pt" height="360.000000pt" viewBox="0 0 480.000000 360.000000"
 preserveAspectRatio="xMidYMid meet">
<metadata>
Created by potrace 1.16, written by Peter Selinger 2001-2019
</metadata>
<rect width="1" height="360" fill="#000000"/>
<rect x="479" width="1" height="360" fill="#000000"/>
<rect width="480" height="1" fill="#000000"/>
<rect y="359" width="480" height="1" fill="#000000"/>
<g transform="translate(0.000000,360.000000) scale(0.100000,-0.100000)"
fill="#000000" stroke="none">
<path d="M2337 2463 c-33 -4 -41 -9 -53 -38 -20 -48 -18 -69 11 -111 31 -45
43 -86 27 -92 -7 -2 -12 -14 -12 -27 0 -13 -5 -27 -10 -30 -16 -10 -60 -82
-60 -98 0 -8 9 -22 21 -33 23 -21 22 -55 -4 -134 -35 -105 -63 -309 -75 -545
-5 -93 -6 -177 -1 -186 9 -17 42 -33 98 -47 25 -6 37 -16 44 -35 12 -37 -2
-52 -64 -67 -30 -7 -53 -20 -60 -31 -11 -22 -4 -39 15 -39 8 0 20 -7 27 -16
12 -14 32 -16 144 -11 128 4 165 11 165 28 0 5 -12 11 -27 14 -16 4 -34 10
-42 14 -15 8 -41 82 -41 119 0 29 38 44 91 36 31 -5 40 -3 45 11 12 31 -59
471 -104 640 -13 47 -16 80 -11 99 5 16 8 70 8 120 0 50 3 99 7 109 3 10 -1
38 -11 63 -18 49 -10 74 25 74 31 0 41 81 16 129 -21 41 -83 91 -109 89 -12
-1 -39 -3 -60 -5z"/>
<path d="M4741 1930 c-29 -58 -92 -162 -140 -233 -47 -70 -92 -138 -99 -152
-7 -13 -36 -48 -65 -78 -48 -50 -62 -57 -174 -96 -67 -24 -128 -50 -135 -60
-8 -9 -20 -38 -26 -65 -12 -45 -11 -51 7 -70 15 -16 22 -41 26 -96 11 -129 7
-124 71 -116 46 5 61 3 94 -16 l40 -23 37 20 c33 18 78 71 153 180 28 40 73
100 95 128 22 25 63 22 69 -5 24 -113 29 -163 29 -293 0 -146 -14 -302 -34
-377 -15 -59 -88 -135 -189 -199 -66 -42 -244 -112 -368 -145 -145 -39 -180
-46 -360 -66 l-114 -12 -19 -38 c-24 -47 -24 -80 0 -102 17 -15 49 -16 372
-12 460 7 454 7 592 0 106 -5 120 -3 145 15 16 11 34 37 41 58 9 29 11 264 9
998 l-3 960 -54 -105z"/>
</g>
</svg>
