<?xml version="1.0" standalone="no"?>
<!DOCTYPE svg PUBLIC "-//W3C//DTD SVG 20010904//EN"
 "http://www.w3.org/TR/2001/REC-SVG-20010904/DTD/svg10.dtd">
<svg version="1.0" xmlns="http://www.w3.org/2000/svg"
 width="480.000000pt" height="360.000000pt" viewBox="0 0 480.000000 360.000000"
 preserveAspectRatio="xMidYMid meet">
<metadata>
Created by potrace 1.16, written by Peter Selinger 2001-2019
</metadata>
<rect width="1" height="360" fill="#000000"/>
<rect x="479" width="1" height="360" fill="#000000"/>
<rect width="480" height="1" fill="#000000"/>
<rect y="359" width="480" height="1" fill="#000000"/>
<g transform="translate(0.000000,360.000000) scale(0.100000,-0.100000)"
fill="#000000" stroke="none">
<path d="M0 1800 l0 -1800 587 0 c322 0 584 3 580 6 -3 3 -41 10 -84 15 -105
13 -157 32 -216 80 -62 49 -80 53 -170 44 -114 -11 -138 -10 -202 15 -81 32
-115 56 -115 84 0 12 11 51 25 85 l26 63 -26 33 -25 34 28 19 c23 18 45 61 75
153 12 36 72 66 182 92 76 18 142 42 214 79 155 77 236 143 357 288 57 69 120
144 139 167 19 23 35 46 35 51 0 6 -20 57 -45 115 -25 58 -45 117 -45 130 0
13 16 86 36 163 57 222 62 245 73 329 5 44 13 89 17 99 6 16 4 18 -12 11 -10
-4 -30 -10 -44 -13 -24 -5 -23 -4 8 23 18 15 37 36 43 48 11 19 10 19 -20 -3
-18 -12 -46 -23 -63 -24 -23 -2 -42 -14 -72 -48 -69 -77 -108 -96 -230 -112
-112 -15 -121 -20 -132 -66 -13 -59 -31 -94 -57 -114 -29 -21 -29 -21 -192
-13 l-40 2 3 -42 c1 -23 -2 -44 -8 -48 -5 -3 -37 6 -71 21 -67 30 -69 34 -99
154 -60 241 -18 537 111 778 60 114 166 271 248 372 33 41 61 79 61 85 0 6
-19 33 -43 60 -60 69 -130 166 -124 171 5 6 102 -87 166 -159 l42 -48 90 52
c186 107 449 205 620 230 109 16 289 6 409 -21 52 -12 105 -24 117 -25 34 -5
136 -57 155 -80 19 -22 43 -84 35 -91 -2 -2 -16 0 -30 5 -35 13 -39 4 -26 -60
20 -98 -29 -159 -125 -159 -48 0 -62 -19 -70 -93 -10 -91 -66 -180 -133 -211
-1 -1 7 -27 18 -59 22 -65 20 -79 -15 -120 -14 -16 -27 -34 -30 -40 -3 -9 -7
-9 -13 0 -13 18 -86 -58 -78 -79 4 -10 -4 -26 -19 -41 -14 -15 -26 -38 -26
-52 0 -18 -5 -25 -19 -25 -11 0 -23 -5 -26 -10 -3 -6 -17 -7 -31 -4 -26 7 -32
-9 -11 -30 11 -12 35 -40 136 -160 176 -208 266 -307 285 -312 26 -6 126 -115
126 -137 0 -21 35 -48 53 -42 24 10 40 60 32 101 -4 23 -19 48 -42 69 -56 52
-28 87 38 48 56 -33 86 -138 59 -208 -24 -63 -99 -95 -145 -61 -17 12 -23 10
-56 -16 -20 -16 -39 -38 -42 -49 -3 -11 -14 -19 -25 -19 -11 0 -22 -6 -25 -14
-6 -16 -66 -36 -106 -36 -44 0 -50 -25 -25 -104 35 -112 44 -208 44 -489 1
-191 5 -278 15 -321 8 -33 20 -110 26 -170 l13 -111 40 -30 c40 -30 94 -110
82 -122 -3 -3 -33 1 -66 9 l-60 15 0 -54 0 -53 1365 0 1365 0 0 105 c0 119 2
117 -86 90 -27 -8 -50 -15 -52 -15 -1 0 2 9 7 19 12 22 92 71 115 71 15 0 16
158 16 1665 l0 1665 -2400 0 -2400 0 0 -1800z m3348 1504 c29 -20 28 -32 -3
-44 -41 -16 -117 22 -100 50 10 15 78 12 103 -6z m-704 -205 c14 -11 26 -26
26 -33 0 -12 -61 -36 -90 -36 -23 0 -101 43 -97 54 4 13 71 34 108 35 15 1 38
-8 53 -20z m1026 -241 c0 -6 -7 -5 -15 2 -8 7 -15 17 -15 22 0 6 7 5 15 -2 8
-7 15 -17 15 -22z m-1340 -132 c0 -15 -48 -51 -57 -42 -8 7 30 55 45 56 6 0
12 -6 12 -14z m1240 -407 c0 -13 -70 -43 -79 -33 -3 4 -1 9 5 11 6 2 20 10 30
18 23 17 44 19 44 4z m-940 -80 c-42 -28 -90 -47 -137 -54 -60 -8 -67 2 -23
28 46 27 198 52 160 26z m1368 -315 c34 -10 29 -38 -5 -30 -16 4 -45 9 -65 12
-21 4 -35 10 -32 15 6 10 68 12 102 3z m-3588 -394 c11 -7 1 -10 -35 -9 -37 0
-45 3 -30 9 27 12 47 12 65 0z m2270 -235 c20 -24 5 -28 -21 -6 -19 16 -20 20
-8 21 9 0 22 -7 29 -15z m165 -154 c-3 -6 -11 -11 -17 -11 -6 0 -6 6 2 15 14
17 26 13 15 -4z m1693 -201 c53 -19 39 -34 -25 -26 -96 11 -173 28 -173 39 0
13 153 3 198 -13z m-898 -207 c0 -20 -43 -43 -68 -36 -31 8 -27 32 11 64 l32
27 12 -21 c7 -12 12 -28 13 -34z m-700 -229 c0 -8 -4 -12 -10 -9 -5 3 -10 13
-10 21 0 8 5 12 10 9 6 -3 10 -13 10 -21z m1674 -79 c35 -15 41 -35 10 -35
-24 0 -75 30 -69 40 8 13 16 13 59 -5z m-1943 -56 c42 -29 38 -89 -6 -89 -28
0 -55 39 -55 80 0 36 19 39 61 9z m1384 -131 c14 -6 25 -18 25 -26 0 -20 -53
-9 -87 18 l-26 20 31 0 c17 0 43 -5 57 -12z m-3528 -139 c3 -57 -55 -89 -101
-56 -30 22 -1 59 64 80 25 8 35 2 37 -24z"/>
<path d="M2004 1814 c-3 -11 -19 -52 -35 -93 l-28 -73 37 6 c74 14 72 12 72
80 0 50 -4 67 -20 81 -19 17 -20 17 -26 -1z"/>
</g>
</svg>
