<?xml version="1.0" standalone="no"?>
<!DOCTYPE svg PUBLIC "-//W3C//DTD SVG 20010904//EN"
 "http://www.w3.org/TR/2001/REC-SVG-20010904/DTD/svg10.dtd">
<svg version="1.0" xmlns="http://www.w3.org/2000/svg"
 width="480.000000pt" height="360.000000pt" viewBox="0 0 480.000000 360.000000"
 preserveAspectRatio="xMidYMid meet">
<metadata>
Created by potrace 1.16, written by Peter Selinger 2001-2019
</metadata>
<rect width="1" height="360" fill="#000000"/>
<rect x="479" width="1" height="360" fill="#000000"/>
<rect width="480" height="1" fill="#000000"/>
<rect y="359" width="480" height="1" fill="#000000"/>
<g transform="translate(0.000000,360.000000) scale(0.100000,-0.100000)"
fill="#000000" stroke="none">
<path d="M0 1800 l0 -1800 2400 0 2400 0 0 114 0 114 -67 49 c-67 49 -122 88
-208 148 -24 17 -96 69 -162 116 -65 47 -217 156 -338 243 -121 87 -249 180
-285 207 -306 226 -333 249 -366 298 -62 91 -169 388 -189 523 -11 70 3 78
138 78 172 0 371 -29 482 -71 59 -22 74 -34 574 -479 195 -173 369 -328 388
-343 l33 -28 0 1315 0 1316 -2400 0 -2400 0 0 -1800z"/>
</g>
</svg>
