<?xml version="1.0" standalone="no"?>
<!DOCTYPE svg PUBLIC "-//W3C//DTD SVG 20010904//EN"
 "http://www.w3.org/TR/2001/REC-SVG-20010904/DTD/svg10.dtd">
<svg version="1.0" xmlns="http://www.w3.org/2000/svg"
 width="480.000000pt" height="360.000000pt" viewBox="0 0 480.000000 360.000000"
 preserveAspectRatio="xMidYMid meet">
<metadata>
Created by potrace 1.16, written by Peter Selinger 2001-2019
</metadata>
<rect width="1" height="360" fill="#000000"/>
<rect x="479" width="1" height="360" fill="#000000"/>
<rect width="480" height="1" fill="#000000"/>
<rect y="359" width="480" height="1" fill="#000000"/>
<g transform="translate(0.000000,360.000000) scale(0.100000,-0.100000)"
fill="#000000" stroke="none">
<path d="M0 1800 l0 -1800 990 0 c785 0 990 3 990 13 0 47 33 290 50 372 18
84 20 120 14 225 -4 83 -2 139 5 167 10 35 9 53 -4 97 -9 30 -15 65 -14 78 3
37 -1 72 -10 86 -11 18 -178 -56 -285 -127 -50 -32 -85 -49 -95 -45 -46 19
-49 17 -80 -47 -16 -35 -47 -90 -68 -122 -28 -45 -37 -68 -36 -98 2 -42 -14
-52 -37 -24 -19 23 -31 18 -24 -9 9 -35 -12 -41 -42 -11 -23 23 -26 32 -21 68
4 30 3 37 -4 25 -6 -10 -13 -41 -16 -68 -3 -28 -9 -53 -14 -55 -4 -3 -17 7
-29 22 -17 21 -20 35 -15 63 3 19 8 46 11 60 2 14 -10 -4 -26 -40 -34 -70 -48
-84 -67 -68 -24 20 -13 63 47 183 59 119 71 150 48 127 -16 -16 -43 -15 -58 3
-18 22 11 51 78 81 61 27 172 111 172 130 0 7 9 16 21 19 11 4 33 19 48 34 21
20 52 34 114 49 99 24 290 97 312 119 21 21 19 98 -5 161 -28 74 -25 141 11
242 52 148 89 274 89 308 0 26 11 45 52 88 28 30 66 63 83 74 35 22 57 77 26
64 -71 -29 -69 -29 -98 -2 -16 14 -40 33 -55 43 -16 9 -28 23 -28 30 0 8 -16
19 -35 25 -38 13 -42 24 -20 54 34 46 2 78 -72 74 -38 -1 -49 2 -61 20 -8 12
-20 22 -27 22 -7 0 -16 16 -19 35 -8 40 -21 46 -29 13 -4 -12 -9 -20 -11 -17
-7 7 10 112 36 224 19 83 24 93 74 146 l54 56 -26 62 c-14 35 -23 68 -22 73 5
13 75 38 108 38 14 0 35 -7 46 -15 12 -8 24 -11 28 -8 3 3 6 48 6 100 0 51 3
93 7 93 4 0 19 -12 35 -27 l27 -26 11 29 c27 73 33 84 51 84 26 0 151 -121
199 -192 22 -33 45 -77 51 -98 8 -27 20 -42 40 -50 67 -28 113 -78 175 -190
65 -116 107 -257 159 -537 23 -126 35 -162 109 -335 46 -106 98 -242 116 -303
30 -102 32 -117 27 -210 -4 -55 -11 -117 -17 -138 -6 -22 -13 -98 -14 -170 -2
-116 -6 -146 -35 -244 -35 -117 -52 -144 -45 -70 3 41 2 38 -17 -35 -6 -22
-16 -38 -24 -38 -15 0 -27 -35 -44 -134 -6 -33 -18 -70 -26 -82 -17 -27 -32
-347 -21 -466 l8 -78 984 0 984 0 0 1800 0 1800 -2400 0 -2400 0 0 -1800z"/>
<path d="M2070 1058 c0 -7 5 -20 10 -28 8 -12 10 -9 10 13 0 15 -4 27 -10 27
-5 0 -10 -6 -10 -12z"/>
<path d="M2961 904 c0 -11 3 -14 6 -6 3 7 2 16 -1 19 -3 4 -6 -2 -5 -13z"/>
</g>
</svg>
