<?xml version="1.0" standalone="no"?>
<!DOCTYPE svg PUBLIC "-//W3C//DTD SVG 20010904//EN"
 "http://www.w3.org/TR/2001/REC-SVG-20010904/DTD/svg10.dtd">
<svg version="1.0" xmlns="http://www.w3.org/2000/svg"
 width="480.000000pt" height="360.000000pt" viewBox="0 0 480.000000 360.000000"
 preserveAspectRatio="xMidYMid meet">
<metadata>
Created by potrace 1.16, written by Peter Selinger 2001-2019
</metadata>
<rect width="1" height="360" fill="#000000"/>
<rect x="479" width="1" height="360" fill="#000000"/>
<rect width="480" height="1" fill="#000000"/>
<rect y="359" width="480" height="1" fill="#000000"/>
<g transform="translate(0.000000,360.000000) scale(0.100000,-0.100000)"
fill="#000000" stroke="none">
<path d="M0 1800 l0 -1800 1339 0 1339 0 -15 53 c-36 122 -37 123 -90 77 -18
-17 -37 -30 -42 -30 -15 0 -29 24 -46 75 -10 28 -23 57 -30 65 -21 25 -25 91
-15 250 l10 152 -45 51 c-34 39 -47 64 -56 107 -24 119 -40 176 -54 189 -11
11 -17 7 -40 -29 -32 -50 -55 -113 -55 -148 0 -18 -18 -43 -58 -83 l-59 -57 5
-180 c4 -173 4 -182 -17 -208 -11 -14 -21 -33 -21 -40 0 -22 -42 -103 -57
-108 -7 -3 -19 7 -28 24 -19 37 -51 56 -70 40 -7 -6 -16 -34 -20 -61 -4 -29
-13 -53 -21 -56 -8 -3 -14 -10 -14 -17 -1 -36 -5 -36 -436 -11 -230 13 -436
26 -456 29 -40 4 -98 40 -98 60 0 10 151 213 169 226 4 3 35 44 68 91 58 81
63 90 74 170 11 77 10 89 -10 153 -24 76 -28 204 -11 341 5 44 11 204 14 355
2 151 11 367 20 480 8 113 20 284 26 380 6 96 18 200 26 230 15 53 91 180 161
267 30 37 33 46 27 80 -15 82 -59 123 -133 123 -54 0 -81 16 -81 49 0 37 44
76 103 91 118 30 217 75 217 98 0 4 -46 20 -101 36 -141 40 -309 134 -309 172
0 25 39 47 72 39 101 -21 144 -4 120 49 l-12 26 -645 0 -645 0 0 -1800z"/>
<path d="M1506 3555 c24 -25 44 -50 44 -55 0 -14 33 -12 53 3 9 6 19 31 23 55
l7 42 -86 0 -86 0 45 -45z"/>
<path d="M1786 3578 c-10 -40 -7 -88 7 -88 6 0 28 10 47 22 19 11 64 36 100
54 l65 34 -106 0 c-102 0 -107 -1 -113 -22z"/>
<path d="M2055 3553 c-31 -80 -119 -159 -252 -226 -28 -15 -54 -31 -57 -35 -9
-15 121 -44 229 -52 121 -10 132 -14 140 -51 8 -37 -3 -51 -57 -74 -71 -31
-88 -52 -88 -106 0 -65 6 -76 54 -98 22 -10 84 -61 137 -112 116 -113 138
-159 146 -309 6 -97 -12 -207 -52 -320 -9 -25 -15 -80 -16 -134 0 -50 -6 -149
-12 -219 -7 -71 -10 -130 -7 -132 4 -2 19 5 36 16 36 23 76 24 155 2 44 -12
68 -26 90 -51 17 -19 31 -33 33 -31 1 2 17 60 36 129 18 69 45 161 60 205 22
64 29 105 33 205 5 102 13 149 43 255 42 150 52 173 106 238 l40 48 -23 82
c-33 115 -33 334 -1 452 12 43 27 84 32 89 6 6 10 18 10 27 0 23 24 41 45 33
14 -6 16 -15 11 -58 -3 -28 -9 -120 -12 -205 -7 -166 9 -278 45 -323 16 -19
19 -20 47 -5 44 23 208 40 269 28 139 -27 221 -76 309 -183 21 -27 42 -48 47
-48 11 0 121 137 152 191 33 56 34 79 3 116 -39 47 -96 147 -96 169 0 40 72
56 171 40 l46 -8 16 59 c10 33 17 68 17 79 0 52 45 31 55 -25 9 -51 34 -77 86
-85 32 -5 53 -18 86 -50 54 -54 55 -78 5 -109 -20 -13 -43 -36 -51 -51 -21
-38 -44 -32 -87 19 -20 25 -39 43 -42 40 -3 -2 -19 -49 -37 -102 -53 -158
-105 -245 -217 -361 l-61 -62 11 -43 c6 -23 13 -53 16 -66 6 -31 -10 -238 -29
-363 -8 -54 -22 -142 -30 -195 -47 -312 -57 -379 -76 -483 -12 -63 -29 -149
-39 -190 -12 -48 -21 -131 -24 -230 -5 -154 -11 -188 -56 -315 -18 -49 -20
-73 -15 -130 7 -78 18 -103 70 -166 43 -51 66 -65 143 -85 32 -8 66 -21 77
-28 11 -7 38 -19 60 -25 79 -25 171 -63 232 -97 l61 -34 361 0 361 0 0 1800 0
1800 -1364 0 -1363 0 -18 -47z"/>
<path d="M2686 2162 c-4 -13 -5 -26 -2 -29 10 -11 18 4 14 29 l-4 23 -8 -23z"/>
<path d="M2196 1539 c-8 -41 0 -49 15 -15 9 18 9 30 2 37 -7 7 -12 0 -17 -22z"/>
<path d="M2490 1483 c0 -22 2 -25 10 -13 13 20 13 40 0 40 -5 0 -10 -12 -10
-27z"/>
</g>
</svg>
