<?xml version="1.0" standalone="no"?>
<!DOCTYPE svg PUBLIC "-//W3C//DTD SVG 20010904//EN"
 "http://www.w3.org/TR/2001/REC-SVG-20010904/DTD/svg10.dtd">
<svg version="1.0" xmlns="http://www.w3.org/2000/svg"
 width="480.000000pt" height="360.000000pt" viewBox="0 0 480.000000 360.000000"
 preserveAspectRatio="xMidYMid meet">
<metadata>
Created by potrace 1.16, written by Peter Selinger 2001-2019
</metadata>
<rect width="1" height="360" fill="#000000"/>
<rect x="479" width="1" height="360" fill="#000000"/>
<rect width="480" height="1" fill="#000000"/>
<rect y="359" width="480" height="1" fill="#000000"/>
<g transform="translate(0.000000,360.000000) scale(0.100000,-0.100000)"
fill="#000000" stroke="none">
<path d="M0 1800 l0 -1800 2400 0 2400 0 0 150 c0 98 -4 150 -10 150 -6 0 -35
16 -65 35 -56 35 -105 99 -105 135 0 34 39 101 98 168 47 53 56 69 54 98 -2
18 4 50 13 70 11 28 15 77 15 212 l0 176 -36 -74 c-33 -69 -37 -74 -49 -56
-12 16 -17 17 -30 6 -29 -24 -16 16 50 151 l65 134 0 250 c0 206 -3 257 -16
292 -16 41 -18 42 -88 58 -88 19 -231 35 -312 35 l-61 0 -9 -42 -9 -43 -115
-5 c-90 -4 -121 -9 -142 -24 -21 -13 -35 -16 -55 -10 -16 4 -62 9 -103 10 -41
1 -100 7 -130 12 -30 6 -95 9 -145 7 -337 -12 -613 -17 -678 -10 -65 6 -85 12
-130 42 -79 53 -91 67 -79 89 6 11 38 36 72 56 91 54 138 55 550 19 190 -17
369 -33 398 -35 33 -3 56 0 62 7 52 65 57 68 130 88 131 36 546 48 797 23 l62
-7 1 717 0 716 -2400 0 -2400 0 0 -1800z"/>
</g>
</svg>
