<?xml version="1.0" standalone="no"?>
<!DOCTYPE svg PUBLIC "-//W3C//DTD SVG 20010904//EN"
 "http://www.w3.org/TR/2001/REC-SVG-20010904/DTD/svg10.dtd">
<svg version="1.0" xmlns="http://www.w3.org/2000/svg"
 width="480.000000pt" height="360.000000pt" viewBox="0 0 480.000000 360.000000"
 preserveAspectRatio="xMidYMid meet">
<metadata>
Created by potrace 1.16, written by Peter Selinger 2001-2019
</metadata>
<rect width="1" height="360" fill="#000000"/>
<rect x="479" width="1" height="360" fill="#000000"/>
<rect width="480" height="1" fill="#000000"/>
<rect y="359" width="480" height="1" fill="#000000"/>
<g transform="translate(0.000000,360.000000) scale(0.100000,-0.100000)"
fill="#000000" stroke="none">
<path d="M0 1800 l0 -1800 2400 0 2400 0 0 1800 0 1800 -2400 0 -2400 0 0
-1800z m2350 -82 c13 -38 19 -43 45 -43 26 0 31 6 46 45 l17 45 7 -30 c18 -84
49 -99 81 -40 10 19 22 35 26 35 5 0 8 -20 8 -45 0 -48 24 -73 41 -43 4 8 17
26 29 39 l20 24 -7 -30 c-18 -77 -2 -105 32 -56 26 39 30 32 10 -15 -10 -24
-12 -40 -6 -42 6 -2 -3 -27 -20 -57 -28 -50 -30 -58 -27 -150 l3 -97 -33 -28
c-107 -89 -383 -82 -472 12 -20 21 -21 30 -16 103 5 66 2 90 -14 135 -11 30
-22 72 -25 94 -4 33 -3 36 11 25 27 -22 40 4 27 54 l-12 42 29 -35 c24 -29 32
-33 47 -24 13 8 17 22 15 60 l-3 49 23 -40 c32 -55 63 -59 84 -10 8 21 13 44
10 51 -3 8 -2 14 2 14 4 0 14 -19 22 -42z"/>
</g>
</svg>
