<?xml version="1.0" standalone="no"?>
<!DOCTYPE svg PUBLIC "-//W3C//DTD SVG 20010904//EN"
 "http://www.w3.org/TR/2001/REC-SVG-20010904/DTD/svg10.dtd">
<svg version="1.0" xmlns="http://www.w3.org/2000/svg"
 width="480.000000pt" height="360.000000pt" viewBox="0 0 480.000000 360.000000"
 preserveAspectRatio="xMidYMid meet">
<metadata>
Created by potrace 1.16, written by Peter Selinger 2001-2019
</metadata>
<rect width="1" height="360" fill="#000000"/>
<rect x="479" width="1" height="360" fill="#000000"/>
<rect width="480" height="1" fill="#000000"/>
<rect y="359" width="480" height="1" fill="#000000"/>
<g transform="translate(0.000000,360.000000) scale(0.100000,-0.100000)"
fill="#000000" stroke="none">
<path d="M0 1800 l0 -1800 291 0 c159 0 288 3 286 8 -38 62 -153 331 -197 462
-63 184 -125 279 -228 350 -42 28 -51 39 -47 58 4 22 -4 33 -48 69 -29 23 -9
51 42 58 85 11 84 9 32 159 -36 105 -41 202 -16 335 15 79 70 239 100 293 35
61 8 174 -60 253 -22 24 -25 36 -20 65 8 44 9 44 35 30 18 -9 24 -9 30 0 4 7
13 9 19 6 7 -5 11 1 11 13 0 23 16 29 23 9 7 -21 44 66 58 136 10 53 10 84 0
159 -11 87 -40 220 -55 257 -8 20 55 103 100 131 24 14 34 28 34 45 0 13 0 27
0 32 0 4 -14 11 -31 15 -22 6 -29 12 -25 24 11 27 -14 43 -64 43 -40 0 -48 3
-58 25 -7 14 -12 42 -12 61 0 30 -3 34 -19 29 -15 -5 -31 11 -80 77 -54 74
-77 119 -52 104 12 -8 24 9 56 82 l28 63 -27 28 c-15 16 -43 37 -62 47 -30 16
-35 23 -31 47 2 15 0 27 -5 27 -4 0 -8 -810 -8 -1800z"/>
<path d="M2964 3073 l6 -28 -20 24 c-24 28 -37 22 -20 -9 12 -23 12 -24 -30
-49 -12 -8 -12 -12 -1 -25 7 -9 10 -16 7 -16 -4 0 1 -14 11 -30 11 -20 14 -33
8 -38 -6 -4 -19 -24 -30 -45 -11 -21 -35 -56 -52 -77 -18 -21 -33 -43 -33 -48
0 -5 -16 -17 -35 -27 -27 -12 -34 -21 -30 -35 4 -12 -3 -24 -19 -37 -13 -11
-26 -30 -28 -44 -2 -20 7 -30 53 -61 31 -20 60 -41 64 -48 14 -23 4 -204 -15
-284 -11 -43 -20 -100 -20 -127 0 -26 -4 -51 -10 -54 -18 -11 -10 -66 14 -98
13 -18 26 -44 30 -59 3 -14 17 -39 30 -55 13 -15 30 -44 39 -64 15 -37 54 -71
94 -83 26 -8 37 -41 54 -158 11 -75 10 -80 -17 -145 -15 -38 -32 -74 -37 -81
-7 -9 3 -18 36 -32 57 -26 67 -39 39 -58 -14 -9 -22 -25 -22 -42 0 -15 -8 -38
-18 -51 -61 -80 -86 -155 -123 -372 -31 -182 -70 -369 -113 -547 -13 -52 -27
-112 -30 -132 l-7 -38 596 0 597 0 -20 33 c-19 30 -65 179 -91 297 -7 30 -17
69 -22 85 -8 30 -24 94 -78 325 -32 138 -67 237 -105 302 -14 24 -29 63 -35
87 -8 38 -7 46 9 60 35 31 88 241 96 381 5 80 3 100 -13 130 l-18 35 90 -1
c71 -1 115 -9 211 -37 197 -58 219 -59 267 -11 32 32 36 80 8 115 -31 41 -48
82 -54 134 -3 28 -9 58 -12 67 -5 12 -1 20 11 24 47 14 87 40 100 65 21 41 17
92 -8 124 l-22 28 57 -6 c80 -10 162 -50 228 -114 65 -61 82 -64 115 -16 48
72 57 262 18 367 -18 46 -27 57 -64 70 -8 3 -25 13 -37 22 -21 15 -23 15 -30
-4 -11 -28 -97 -117 -130 -136 -58 -31 -163 -66 -200 -66 -54 0 -79 19 -64 48
9 18 8 26 -11 47 -12 14 -28 23 -36 20 -7 -3 -23 1 -35 7 -26 15 -99 19 -108
6 -3 -5 -21 -17 -40 -26 -31 -15 -34 -21 -37 -67 -2 -27 -9 -53 -15 -57 -7 -4
-33 -8 -59 -8 -26 0 -57 -4 -70 -9 -13 -5 -46 -19 -75 -30 -66 -27 -187 -30
-197 -5 -8 21 -8 99 1 107 3 4 13 1 21 -5 11 -10 13 -8 11 7 -3 23 9 64 24 84
21 25 26 123 8 145 -8 10 -9 15 -1 18 6 2 -5 21 -24 44 -33 39 -34 42 -25 89
5 27 14 54 19 59 23 23 7 70 -25 71 -18 1 -75 35 -75 45 0 18 -82 11 -115 -10
l-33 -20 -87 27 c-51 16 -90 34 -93 43 -11 29 -37 56 -53 52 -11 -2 -20 7 -27
27 -14 38 -26 41 -18 4z m868 -848 c7 -3 13 -19 12 -38 -1 -25 -6 -33 -24 -35
-12 -2 -36 -12 -54 -23 -44 -27 -74 -25 -86 7 -13 34 -13 37 11 68 17 22 28
26 74 26 29 0 59 -2 67 -5z m-242 -44 c0 -24 9 -51 25 -75 24 -35 24 -36 4
-36 -61 0 -166 25 -205 48 -42 26 -55 42 -34 42 6 0 10 8 10 17 0 13 3 14 12
5 16 -16 28 -15 28 2 0 16 34 31 50 21 5 -3 10 -1 10 4 0 6 21 11 50 11 l50 0
0 -39z m591 29 c24 -13 25 -61 2 -82 -25 -21 -83 -40 -83 -27 0 6 9 13 19 16
17 4 19 11 14 54 -6 53 5 62 48 39z m49 -78 c0 -10 -21 -32 -31 -32 -4 0 -5 9
-2 20 5 19 33 29 33 12z m-1408 -104 c-15 -15 -26 -4 -18 18 5 13 9 15 18 6 9
-9 9 -15 0 -24z"/>
</g>
</svg>
