<?xml version="1.0" standalone="no"?>
<!DOCTYPE svg PUBLIC "-//W3C//DTD SVG 20010904//EN"
 "http://www.w3.org/TR/2001/REC-SVG-20010904/DTD/svg10.dtd">
<svg version="1.0" xmlns="http://www.w3.org/2000/svg"
 width="480.000000pt" height="360.000000pt" viewBox="0 0 480.000000 360.000000"
 preserveAspectRatio="xMidYMid meet">
<metadata>
Created by potrace 1.16, written by Peter Selinger 2001-2019
</metadata>
<rect width="1" height="360" fill="#000000"/>
<rect x="479" width="1" height="360" fill="#000000"/>
<rect width="480" height="1" fill="#000000"/>
<rect y="359" width="480" height="1" fill="#000000"/>
<g transform="translate(0.000000,360.000000) scale(0.100000,-0.100000)"
fill="#000000" stroke="none">
<path d="M2110 3582 c0 -20 29 -52 48 -52 16 0 20 -9 37 -96 9 -43 21 -83 26
-89 5 -5 9 -19 9 -30 0 -18 -9 -23 -47 -31 -37 -7 -47 -13 -45 -26 2 -14 -5
-18 -35 -18 -21 0 -49 0 -63 -1 -14 -1 -71 0 -127 2 -56 2 -105 0 -109 -4 -4
-4 -3 -27 3 -52 8 -35 7 -47 -3 -56 -36 -30 17 -190 64 -197 41 -6 75 -132 91
-349 6 -74 16 -134 26 -152 8 -17 14 -31 13 -31 -2 0 -32 9 -66 20 -105 33
-177 22 -233 -36 -28 -28 -33 -43 -37 -91 -3 -48 2 -72 28 -138 18 -44 45
-122 62 -173 29 -94 69 -155 109 -167 25 -8 17 -21 -31 -45 -63 -32 -78 -115
-36 -205 40 -88 120 -135 171 -101 49 32 71 11 85 -79 6 -38 15 -74 20 -80 5
-7 14 -40 19 -76 11 -77 23 -108 47 -131 16 -14 21 -14 32 -2 7 8 10 14 6 14
-3 0 -1 6 5 14 10 11 8 16 -6 24 -24 14 -36 142 -15 158 12 9 13 17 3 45 -18
57 -30 133 -21 144 4 5 12 39 19 74 12 72 28 99 37 63 13 -46 26 -21 22 38 -2
33 -1 60 4 60 4 0 8 55 8 123 0 84 5 136 16 167 10 29 13 59 9 87 -3 23 -3 76
1 118 6 66 12 85 42 129 19 28 75 130 123 228 81 161 91 177 122 187 43 15
119 114 111 146 -3 13 4 37 17 59 25 43 28 126 6 179 -31 72 -114 137 -175
137 -24 0 -24 1 -9 18 13 15 18 49 24 155 l6 137 -99 0 -99 -1 28 -24 c30 -26
32 -44 13 -120 l-12 -50 -12 45 c-7 25 -19 69 -28 98 l-15 52 -95 0 c-85 0
-94 -2 -94 -18z"/>
</g>
</svg>
