<?xml version="1.0" standalone="no"?>
<!DOCTYPE svg PUBLIC "-//W3C//DTD SVG 20010904//EN"
 "http://www.w3.org/TR/2001/REC-SVG-20010904/DTD/svg10.dtd">
<svg version="1.0" xmlns="http://www.w3.org/2000/svg"
 width="480.000000pt" height="360.000000pt" viewBox="0 0 480.000000 360.000000"
 preserveAspectRatio="xMidYMid meet">
<metadata>
Created by potrace 1.16, written by Peter Selinger 2001-2019
</metadata>
<rect width="1" height="360" fill="#000000"/>
<rect x="479" width="1" height="360" fill="#000000"/>
<rect width="480" height="1" fill="#000000"/>
<rect y="359" width="480" height="1" fill="#000000"/>
<g transform="translate(0.000000,360.000000) scale(0.100000,-0.100000)"
fill="#000000" stroke="none">
<path d="M1603 3523 c18 -165 -10 -393 -69 -558 -98 -274 -217 -432 -487 -642
-100 -78 -360 -185 -514 -213 -119 -21 -418 -12 -511 16 l-22 6 0 -1066 0
-1066 1324 0 1323 0 23 133 c29 173 41 220 105 417 62 191 83 275 120 490 14
85 35 204 46 263 12 60 18 119 14 130 -4 12 -12 60 -19 107 -11 83 -12 85 -46
101 -19 10 -48 31 -64 47 -26 28 -28 35 -24 90 3 44 12 72 32 102 15 23 25 45
21 48 -3 3 -50 -18 -105 -46 -55 -29 -108 -52 -119 -52 -11 0 -30 14 -44 31
-22 28 -26 30 -46 17 -20 -11 -24 -11 -39 7 -15 17 -30 20 -112 21 -90 0 -103
3 -250 58 -85 32 -175 63 -200 69 -25 6 -60 21 -79 33 -38 26 -74 20 -79 -13
-2 -15 -11 -20 -33 -21 -69 -2 -73 97 -5 139 47 29 103 24 187 -16 53 -25 125
-45 249 -71 96 -20 180 -40 185 -45 18 -14 100 15 103 37 6 29 20 40 34 26 20
-20 38 -14 49 17 6 16 16 32 24 34 7 3 48 1 90 -5 77 -10 279 1 305 17 8 5 6
13 -7 27 -17 19 -17 20 7 38 20 15 22 20 10 25 -9 3 -26 4 -39 3 -20 -3 -31 9
-68 72 l-45 74 23 19 c21 17 21 18 3 32 -10 8 -26 15 -35 15 -19 0 -44 48 -54
102 -6 31 -2 44 29 92 20 31 36 59 36 63 0 3 -12 35 -26 70 -14 36 -24 76 -22
90 6 50 26 50 159 2 68 -24 139 -55 158 -68 20 -13 57 -30 83 -37 51 -16 148
-97 173 -144 21 -41 35 -111 45 -227 5 -60 16 -116 26 -135 25 -48 44 -126 44
-183 0 -60 1 -61 72 -113 70 -51 72 -55 74 -120 1 -30 6 -58 12 -64 7 -7 7
-16 0 -27 -8 -13 -3 -28 21 -66 17 -27 34 -64 37 -84 4 -19 2 -117 -5 -217
-10 -141 -10 -191 -1 -225 7 -24 16 -84 20 -133 5 -65 12 -93 24 -101 21 -16
20 -25 -3 -25 -11 0 -27 10 -35 22 -20 28 -21 8 -1 -39 26 -61 15 -71 -29 -27
-30 31 -32 27 -11 -23 18 -42 15 -49 -13 -34 -62 33 -36 -47 117 -369 93 -194
140 -309 162 -398 l13 -52 438 0 438 0 0 1800 0 1800 -1603 0 -1603 0 9 -77z"/>
</g>
</svg>
