<?xml version="1.0" standalone="no"?>
<!DOCTYPE svg PUBLIC "-//W3C//DTD SVG 20010904//EN"
 "http://www.w3.org/TR/2001/REC-SVG-20010904/DTD/svg10.dtd">
<svg version="1.0" xmlns="http://www.w3.org/2000/svg"
 width="480.000000pt" height="360.000000pt" viewBox="0 0 480.000000 360.000000"
 preserveAspectRatio="xMidYMid meet">
<metadata>
Created by potrace 1.16, written by Peter Selinger 2001-2019
</metadata>
<rect width="1" height="360" fill="#000000"/>
<rect x="479" width="1" height="360" fill="#000000"/>
<rect width="480" height="1" fill="#000000"/>
<rect y="359" width="480" height="1" fill="#000000"/>
<g transform="translate(0.000000,360.000000) scale(0.100000,-0.100000)"
fill="#000000" stroke="none">
<path d="M4503 3555 c-116 -27 -229 -72 -300 -118 -53 -35 -140 -120 -249
-242 -40 -44 -74 -77 -78 -74 -3 3 -1 48 5 100 14 109 6 188 -19 195 -9 3 -25
10 -35 15 -14 8 -30 3 -69 -22 -46 -30 -60 -33 -158 -40 -120 -8 -161 -23
-185 -69 -14 -27 -14 -34 0 -66 23 -55 19 -68 -32 -110 -103 -84 -105 -93 -24
-123 41 -15 81 -41 126 -82 l66 -60 -48 -21 c-26 -11 -91 -41 -143 -65 -63
-30 -122 -49 -176 -58 -45 -7 -122 -26 -170 -41 -77 -23 -107 -27 -219 -28
-102 -1 -136 -5 -155 -17 -22 -14 -29 -14 -65 -2 -55 20 -238 53 -292 53 -24
0 -75 -5 -113 -11 -64 -11 -70 -10 -96 10 -23 18 -39 22 -93 20 -93 -3 -180
26 -200 66 -9 16 -35 49 -58 71 -34 35 -53 45 -109 57 -61 14 -71 21 -113 68
-25 29 -54 73 -63 97 -31 82 -94 129 -157 117 -54 -10 -88 -10 -180 -1 -104
11 -108 -6 -10 -44 35 -14 78 -33 94 -42 73 -40 185 -179 185 -230 0 -19 10
-35 35 -54 19 -14 57 -56 84 -93 56 -75 105 -124 171 -170 29 -21 47 -42 50
-59 6 -29 37 -43 50 -22 5 9 28 0 81 -30 83 -48 124 -88 132 -128 3 -15 16
-43 30 -63 34 -51 42 -101 21 -141 -32 -61 -24 -165 21 -301 22 -64 44 -116
50 -114 5 2 22 -12 37 -32 33 -43 34 -70 13 -232 -8 -63 -19 -182 -24 -266
l-10 -152 -41 -41 c-81 -81 -94 -147 -66 -351 8 -57 19 -187 25 -289 6 -102
14 -215 17 -252 l7 -68 738 0 c721 0 739 0 739 19 0 11 -11 101 -25 200 -14
100 -29 243 -35 318 -19 272 -25 289 -138 407 -53 56 -59 71 -43 122 5 16 17
81 26 144 10 63 26 156 37 205 81 375 81 389 11 594 -5 14 -4 14 8 -1 18 -21
89 -58 112 -58 25 0 56 39 57 71 0 18 7 28 20 32 12 3 18 11 15 19 -3 8 5 23
19 35 15 13 27 37 31 65 4 23 14 51 23 61 9 10 16 36 17 58 0 22 6 44 13 48 6
4 13 26 15 49 3 23 9 47 15 55 13 15 19 104 9 133 -6 17 5 28 66 72 41 28 96
73 122 99 54 54 167 205 235 314 102 164 121 190 197 266 58 59 104 94 181
137 81 46 101 60 92 71 -8 9 -8 15 0 20 12 7 14 25 3 24 -5 0 -54 -11 -110
-24z m-2822 -745 c31 -25 12 -26 -21 0 -14 11 -20 20 -14 20 7 0 22 -9 35 -20z"/>
</g>
</svg>
