<?xml version="1.0" standalone="no"?>
<!DOCTYPE svg PUBLIC "-//W3C//DTD SVG 20010904//EN"
 "http://www.w3.org/TR/2001/REC-SVG-20010904/DTD/svg10.dtd">
<svg version="1.0" xmlns="http://www.w3.org/2000/svg"
 width="480.000000pt" height="360.000000pt" viewBox="0 0 480.000000 360.000000"
 preserveAspectRatio="xMidYMid meet">
<metadata>
Created by potrace 1.16, written by Peter Selinger 2001-2019
</metadata>
<rect width="1" height="360" fill="#000000"/>
<rect x="479" width="1" height="360" fill="#000000"/>
<rect width="480" height="1" fill="#000000"/>
<rect y="359" width="480" height="1" fill="#000000"/>
<g transform="translate(0.000000,360.000000) scale(0.100000,-0.100000)"
fill="#000000" stroke="none">
<path d="M0 2320 l0 -1280 73 6 c39 4 92 15 117 26 33 14 85 22 188 29 179 12
187 15 187 65 0 35 -3 39 -33 45 -45 9 -48 15 -33 52 36 91 51 141 67 232 10
55 18 118 19 140 0 38 -1 39 -41 47 -23 5 -50 18 -59 28 -18 19 -18 21 2 43
11 12 23 33 26 47 15 60 56 207 66 231 11 30 6 39 -21 39 -21 0 -23 13 -6 43
7 12 13 46 14 76 2 64 16 92 55 115 50 29 138 3 159 -47 6 -12 15 -30 22 -39
9 -13 9 -22 1 -40 -19 -38 -23 -97 -9 -136 7 -20 16 -62 19 -92 6 -52 10 -58
67 -111 64 -60 69 -69 45 -89 -8 -7 -15 -21 -15 -31 0 -15 -6 -19 -32 -17 -18
2 -33 -1 -33 -7 6 -135 39 -365 61 -427 8 -22 14 -47 14 -54 0 -22 -48 -17
-60 6 -15 29 -46 25 -54 -6 -5 -20 1 -35 29 -69 l36 -44 -38 -10 c-37 -10
-103 -20 -398 -62 -256 -36 -305 -41 -371 -37 l-64 3 0 -498 0 -497 882 2 882
3 7 32 c3 18 11 39 16 45 7 9 6 45 -3 108 -16 119 -17 251 -3 321 6 30 11 60
12 67 1 7 -21 21 -52 32 -86 31 -92 40 -86 131 2 44 13 125 24 181 11 57 22
144 25 193 4 50 9 109 12 133 6 50 2 51 -72 17 -29 -13 -98 -40 -151 -59 -196
-68 -213 -76 -213 -97 0 -11 5 -29 10 -40 7 -12 7 -19 1 -19 -5 0 -15 16 -23
36 -10 29 -16 34 -33 29 -69 -21 -100 -25 -128 -15 -31 10 -56 36 -57 57 0 6
45 26 100 44 133 43 138 47 105 83 -33 36 -30 70 7 74 20 2 31 -4 44 -23 17
-25 17 -28 1 -37 -21 -11 -22 -24 -2 -32 14 -5 101 26 260 92 135 57 165 73
165 93 0 18 -6 21 -73 34 -9 2 -24 -6 -32 -18 -12 -18 -19 -20 -33 -10 -9 6
-16 20 -15 31 3 24 5 24 -157 58 -158 32 -317 71 -330 79 -15 9 -12 55 5 61 8
3 36 -1 62 -9 50 -16 239 -61 307 -73 35 -6 37 -5 28 12 -13 26 -6 130 13 184
9 25 26 56 39 70 13 14 56 72 95 129 69 99 71 104 55 122 -10 11 -19 42 -22
72 -4 47 -1 56 32 99 20 26 46 50 58 54 44 13 47 23 19 52 -15 15 -33 36 -39
47 -10 17 -13 18 -22 5 -9 -13 -11 -13 -20 0 -5 8 -10 27 -10 42 0 36 -9 58
-23 52 -11 -3 -48 63 -62 111 -3 11 -33 40 -66 65 -34 25 -69 52 -80 60 -10 8
-35 29 -56 45 -20 17 -40 29 -45 28 -4 -2 -8 1 -8 6 0 4 -17 20 -37 34 -21 14
-51 37 -68 52 -16 15 -45 39 -64 53 -19 15 -48 38 -65 52 -17 14 -56 44 -86
67 -95 72 -302 294 -288 309 3 3 48 -30 99 -73 52 -43 110 -90 129 -104 19
-15 44 -35 55 -45 22 -21 149 -125 200 -164 18 -14 88 -70 156 -125 68 -55
149 -118 179 -141 l55 -41 45 50 c62 70 152 112 240 112 40 0 77 -6 97 -16 28
-15 37 -15 84 -3 70 18 135 18 192 -2 56 -19 63 -28 44 -57 -27 -41 -30 -81
-7 -102 11 -10 20 -24 20 -30 0 -15 -115 -155 -144 -174 -12 -8 -22 -15 -24
-17 -2 -1 2 -20 8 -42 11 -34 10 -42 -5 -60 -10 -11 -24 -18 -31 -15 -8 3 -14
1 -14 -5 0 -5 12 -12 28 -15 42 -8 77 -41 90 -84 10 -31 24 -45 78 -78 67 -41
265 -236 247 -242 -14 -5 -127 50 -169 82 -18 14 -45 43 -61 64 -15 21 -42 49
-60 61 l-33 22 -29 -31 c-24 -25 -37 -31 -71 -31 -41 0 -42 -1 -35 -27 4 -16
15 -64 25 -108 14 -64 49 -160 77 -207 2 -5 -7 -13 -21 -20 -27 -11 -36 -51
-16 -63 6 -3 10 -15 10 -26 0 -21 20 -25 48 -9 25 14 475 230 479 230 8 0 43
-67 43 -83 0 -17 -97 -68 -420 -219 -36 -17 -67 -32 -69 -34 -9 -8 33 -76 52
-84 29 -12 340 -56 537 -76 85 -8 158 -17 162 -20 14 -9 -4 -32 -33 -45 -40
-16 -242 -7 -453 21 -87 11 -161 18 -164 15 -5 -5 2 -22 32 -73 7 -12 35 -50
62 -84 27 -33 67 -84 89 -113 22 -29 57 -73 79 -99 33 -39 37 -51 32 -78 -3
-18 -9 -52 -12 -75 -6 -37 -16 -51 -68 -96 -65 -58 -132 -97 -165 -97 -20 0
-20 0 0 -47 28 -65 45 -147 59 -278 8 -84 17 -122 37 -159 20 -38 23 -53 15
-66 -6 -10 -8 -36 -5 -59 l6 -41 1138 0 1139 0 0 1800 0 1800 -332 0 -333 0
-1 -74 c-1 -59 -6 -85 -27 -129 -38 -77 -96 -138 -163 -172 -57 -29 -64 -30
-199 -30 -77 0 -175 5 -218 12 -55 8 -99 8 -155 1 -42 -6 -140 -11 -217 -12
-122 -1 -149 2 -212 23 -90 29 -149 84 -217 202 -37 64 -51 79 -64 74 -9 -4
-36 -9 -58 -12 -35 -5 -44 -2 -58 18 -9 13 -16 40 -16 61 l0 38 -1265 0 -1265
0 0 -1280z m4018 848 c-6 -18 -28 -21 -28 -4 0 9 7 16 16 16 9 0 14 -5 12 -12z
m-883 -489 c18 -18 18 -20 3 -35 -20 -20 -41 -13 -63 20 -31 47 14 59 60 15z
m457 6 c0 -5 -5 -11 -11 -13 -6 -2 -11 4 -11 13 0 9 5 15 11 13 6 -2 11 -8 11
-13z m518 -150 c-7 -8 -28 -15 -46 -15 -24 0 -34 5 -34 15 0 11 12 15 46 15
40 0 45 -2 34 -15z m-1743 -162 c-9 -9 -20 -12 -28 -8 -9 6 -8 11 6 21 23 17
42 6 22 -13z m2107 -102 c16 -17 15 -19 -8 -35 -32 -21 -100 -21 -120 0 -9 8
-16 17 -16 19 0 2 7 11 16 19 23 23 106 21 128 -3z m-1894 -26 c0 -8 -4 -15
-9 -15 -13 0 -22 16 -14 24 11 11 23 6 23 -9z m1697 -1060 c-4 -8 -11 -15 -17
-15 -14 0 -13 27 3 33 16 6 21 1 14 -18z m360 -756 c17 -17 3 -59 -22 -65 -23
-6 -78 17 -90 36 -19 31 83 58 112 29z"/>
<path d="M2936 3562 c32 -22 68 -49 78 -60 25 -29 75 -28 193 2 85 22 223 78
223 90 0 4 -124 6 -277 6 l-276 0 59 -38z"/>
<path d="M2800 3542 c0 -27 98 -72 158 -72 24 0 24 1 8 19 -37 41 -166 82
-166 53z"/>
<path d="M1686 1891 c-67 -67 -69 -70 -62 -109 4 -25 0 -55 -9 -82 -20 -56
-19 -60 10 -60 20 0 25 -5 25 -24 0 -30 15 -42 65 -50 39 -7 41 -6 58 30 10
20 20 56 24 80 5 40 3 44 -21 55 -30 14 -30 15 -12 92 12 51 9 117 -6 133 -2
2 -35 -28 -72 -65z"/>
<path d="M610 1881 c0 -12 5 -21 10 -21 6 0 10 6 10 14 0 8 -4 18 -10 21 -5 3
-10 -3 -10 -14z"/>
<path d="M1520 1606 c0 -9 6 -16 14 -16 8 0 21 -3 30 -6 9 -3 16 -2 16 4 0 5
-8 12 -17 16 -10 3 -24 9 -30 12 -8 3 -13 -1 -13 -10z"/>
<path d="M721 1217 c-8 -10 -28 -17 -48 -17 -41 0 -51 -20 -26 -54 19 -26 71
-42 85 -28 5 5 8 33 6 62 -3 47 -5 51 -17 37z"/>
<path d="M2093 572 c-12 -9 -34 -11 -69 -7 -37 4 -54 2 -62 -8 -7 -8 -19 -90
-27 -183 -8 -93 -18 -188 -21 -212 -4 -24 -1 -69 7 -102 l13 -60 239 0 238 0
-7 23 c-3 12 -12 29 -20 37 -12 15 -22 83 -14 105 2 6 -17 73 -41 150 -25 77
-54 169 -64 205 l-18 66 -68 -1 c-41 0 -76 -5 -86 -13z"/>
</g>
</svg>
