<?xml version="1.0" standalone="no"?>
<!DOCTYPE svg PUBLIC "-//W3C//DTD SVG 20010904//EN"
 "http://www.w3.org/TR/2001/REC-SVG-20010904/DTD/svg10.dtd">
<svg version="1.0" xmlns="http://www.w3.org/2000/svg"
 width="480.000000pt" height="360.000000pt" viewBox="0 0 480.000000 360.000000"
 preserveAspectRatio="xMidYMid meet">
<metadata>
Created by potrace 1.16, written by Peter Selinger 2001-2019
</metadata>
<rect width="1" height="360" fill="#000000"/>
<rect x="479" width="1" height="360" fill="#000000"/>
<rect width="480" height="1" fill="#000000"/>
<rect y="359" width="480" height="1" fill="#000000"/>
<g transform="translate(0.000000,360.000000) scale(0.100000,-0.100000)"
fill="#000000" stroke="none">
<path d="M1355 3576 c-54 -82 -72 -235 -40 -339 56 -186 208 -327 384 -358 34
-6 60 -13 58 -16 -13 -12 -138 -30 -182 -26 -73 7 -101 -7 -116 -59 -9 -32
-29 -58 -76 -102 -56 -51 -64 -63 -61 -90 3 -26 7 -31 30 -31 37 0 70 -35 113
-121 39 -78 39 -77 19 -188 -7 -39 -7 -39 21 -32 l28 7 -7 -63 c-4 -35 -14
-94 -22 -131 -8 -38 -14 -89 -14 -115 -1 -46 -12 -112 -43 -242 -8 -36 -21
-100 -27 -143 -6 -43 -20 -104 -31 -135 -11 -31 -29 -102 -40 -157 -11 -55
-31 -134 -44 -175 -13 -41 -31 -111 -39 -155 -8 -44 -24 -119 -35 -166 -20
-80 -36 -223 -47 -399 -3 -52 2 -116 18 -208 l23 -132 69 0 68 0 -7 37 c-5 21
-9 58 -10 83 -1 25 -8 86 -15 137 -7 52 -10 125 -7 170 22 276 27 314 61 438
20 72 36 139 36 150 0 10 20 91 44 180 67 246 116 480 141 673 4 29 12 52 19
52 6 0 22 -29 35 -65 29 -83 92 -168 171 -229 64 -50 273 -176 468 -281 61
-33 111 -65 112 -72 0 -6 -14 -14 -30 -18 -17 -4 -38 -19 -48 -33 -9 -15 -32
-40 -51 -57 -36 -32 -61 -80 -61 -118 0 -13 -14 -42 -31 -63 -50 -63 -99 -171
-115 -251 -18 -94 -17 -246 1 -483 8 -102 15 -200 15 -217 l0 -33 375 0 376 0
-8 68 c-13 112 -9 273 9 312 l15 35 13 -30 c65 -147 132 -289 157 -330 l29
-50 172 -3 172 -2 0 70 c0 40 4 70 10 70 6 0 10 -8 10 -17 0 -10 6 -41 12 -70
15 -62 41 -73 52 -22 18 93 0 397 -38 629 -26 155 -27 184 -12 317 19 169 95
427 96 324 0 -27 3 -31 14 -22 16 13 26 -4 26 -45 0 -42 26 -39 101 12 155
107 331 339 369 489 12 46 11 55 -8 95 -26 58 -102 143 -146 164 -19 9 -57 16
-85 16 -28 0 -51 4 -51 9 0 5 19 16 43 26 23 9 93 46 156 82 113 64 116 65
152 53 26 -9 55 -10 91 -5 29 5 83 8 120 7 37 -1 69 1 71 5 12 20 -17 55 -68
84 -57 32 -60 48 -8 49 34 0 53 11 53 30 0 22 32 49 89 75 24 10 40 24 37 30
-2 7 1 18 7 25 10 9 -8 11 -83 8 -73 -4 -117 -12 -190 -37 -52 -18 -130 -38
-172 -46 -51 -9 -100 -26 -145 -50 -142 -78 -140 -78 -239 -83 -95 -5 -119 4
-74 28 30 16 70 93 77 149 5 46 8 51 40 62 101 33 155 146 102 213 -23 29 -69
35 -89 11 -10 -12 -9 -15 4 -15 24 0 13 -13 -55 -70 -45 -38 -66 -49 -83 -44
-24 6 -63 -27 -52 -45 4 -5 -14 -24 -40 -42 -35 -26 -54 -33 -81 -30 -27 2
-42 -3 -64 -25 -16 -15 -29 -38 -29 -51 0 -28 -10 -29 -58 -4 -59 30 -162 61
-203 61 -21 0 -62 -6 -92 -14 -34 -9 -78 -12 -120 -9 -47 4 -67 2 -67 -6 0 -6
6 -11 13 -12 6 0 -3 -7 -20 -15 -43 -18 -42 -24 5 -18 l37 5 -43 -23 c-24 -13
-40 -27 -36 -30 3 -4 -6 -21 -20 -39 -37 -44 -71 -110 -52 -103 10 4 13 -6 11
-44 -2 -39 1 -49 12 -48 8 1 19 9 24 17 7 11 9 9 9 -8 0 -30 -33 -46 -84 -40
-100 13 -91 16 -91 -28 0 -27 -8 -50 -23 -69 -12 -17 -20 -36 -17 -45 3 -8 0
-18 -6 -22 -7 -4 -17 -22 -24 -40 -7 -19 -19 -48 -26 -66 l-13 -32 82 -84 c45
-47 82 -87 82 -90 0 -3 -9 -26 -20 -51 l-19 -46 -93 62 c-126 84 -281 169
-397 218 -53 23 -102 44 -110 49 -8 4 -21 34 -28 67 -14 63 -39 138 -97 297
-40 110 -42 117 -22 117 8 0 16 7 20 15 3 8 1 15 -4 15 -5 0 -28 23 -50 51
-40 51 -52 89 -26 89 13 0 86 86 86 102 0 19 17 5 45 -36 34 -50 114 -109 177
-132 49 -17 158 -20 208 -4 64 19 86 13 124 -31 39 -46 60 -48 109 -8 33 25
33 37 2 100 l-26 50 39 62 c73 117 90 219 54 334 -35 112 -87 169 -200 222
-29 14 -52 31 -52 39 0 9 -7 23 -14 31 -12 13 -13 25 -5 61 15 62 6 193 -17
260 l-19 55 -447 3 -447 2 -16 -24z m95 -972 c0 -34 -1 -36 -27 -29 -16 4 -30
9 -33 12 -5 4 46 53 56 53 2 0 4 -16 4 -36z m2145 -233 c-8 -17 -20 -31 -26
-31 -10 0 3 32 24 58 17 22 19 5 2 -27z m-2015 -263 c0 -5 -4 -8 -10 -8 -5 0
-10 10 -10 23 0 18 2 19 10 7 5 -8 10 -18 10 -22z m5 -100 c8 -22 -11 -73 -28
-76 -14 -3 -17 4 -17 36 0 21 3 42 7 45 11 11 33 8 38 -5z m-25 -172 c0 -36
-14 -76 -26 -76 -8 0 -14 6 -15 13 -2 20 3 61 8 70 8 12 33 8 33 -7z m-33
-198 c-6 -47 -11 -53 -33 -44 -13 5 -15 14 -11 43 11 66 53 67 44 1z m-39
-171 c-11 -48 -13 -51 -27 -42 -24 14 -2 99 22 89 12 -4 13 -14 5 -47z m-35
-162 c-3 -45 -15 -60 -38 -51 -14 5 -16 14 -10 44 9 47 13 54 33 50 13 -3 16
-13 15 -43z m-48 -174 c-8 -43 -21 -59 -36 -44 -17 17 7 94 27 86 12 -4 14
-14 9 -42z m-39 -136 c4 -8 3 -31 0 -50 -6 -29 -11 -35 -33 -35 -24 0 -25 2
-18 38 10 56 38 81 51 47z m-41 -175 c10 -16 -17 -90 -33 -90 -11 0 -13 9 -8
42 4 22 9 45 12 50 7 11 21 10 29 -2z m-25 -189 c0 -51 -13 -81 -34 -81 -19 0
-22 5 -18 38 5 54 9 62 32 62 13 0 20 -7 20 -19z m-27 -185 c8 -20 -6 -69 -21
-74 -13 -4 -18 69 -5 81 10 11 20 8 26 -7z m5 -220 c3 -41 1 -47 -15 -44 -19
3 -30 55 -19 85 12 29 31 6 34 -41z m14 -153 c0 -10 2 -25 3 -33 2 -23 -7 -34
-16 -19 -12 19 -11 69 1 69 6 0 11 -8 12 -17z"/>
</g>
</svg>
