<?xml version="1.0" standalone="no"?>
<!DOCTYPE svg PUBLIC "-//W3C//DTD SVG 20010904//EN"
 "http://www.w3.org/TR/2001/REC-SVG-20010904/DTD/svg10.dtd">
<svg version="1.0" xmlns="http://www.w3.org/2000/svg"
 width="480.000000pt" height="360.000000pt" viewBox="0 0 480.000000 360.000000"
 preserveAspectRatio="xMidYMid meet">
<metadata>
Created by potrace 1.16, written by Peter Selinger 2001-2019
</metadata>
<rect width="1" height="360" fill="#000000"/>
<rect x="479" width="1" height="360" fill="#000000"/>
<rect width="480" height="1" fill="#000000"/>
<rect y="359" width="480" height="1" fill="#000000"/>
<g transform="translate(0.000000,360.000000) scale(0.100000,-0.100000)"
fill="#000000" stroke="none">
<path d="M1352 2872 c-13 -23 -34 -48 -47 -54 -27 -12 -31 -23 -15 -33 6 -4 7
-13 1 -23 -4 -9 -6 -22 -4 -29 5 -14 -29 -83 -68 -138 -34 -49 -63 -115 -49
-115 5 0 16 -13 25 -30 14 -28 45 -42 45 -21 0 5 23 -13 52 -41 29 -28 54 -45
56 -39 3 8 9 6 17 -6 15 -21 3 -43 -24 -43 -10 0 -25 -6 -36 -13 -17 -13 -17
-15 1 -47 16 -28 17 -34 4 -38 -23 -7 -120 -110 -120 -127 0 -8 -16 -35 -35
-61 -57 -75 -46 -133 34 -174 23 -12 23 -15 19 -95 -5 -66 -12 -94 -34 -136
-16 -30 -35 -58 -42 -62 -8 -6 -11 -19 -7 -36 4 -18 -4 -54 -20 -100 -15 -40
-24 -79 -21 -87 3 -8 0 -34 -8 -57 -7 -23 -14 -52 -14 -65 0 -13 -6 -47 -11
-75 -19 -92 -89 -686 -105 -887 -9 -107 -19 -205 -22 -217 l-6 -23 481 0 c264
0 481 2 481 5 0 2 -13 89 -30 193 -16 103 -39 276 -50 382 -22 208 -71 431
-136 625 -39 116 -39 115 -17 115 14 0 13 3 -5 23 -12 13 -22 30 -22 39 0 8
16 62 35 119 38 113 41 154 21 267 -7 40 -10 75 -6 77 13 8 19 60 8 73 -8 9
-6 27 7 65 l17 52 -36 104 c-20 57 -43 112 -51 121 -11 12 -12 19 -3 28 8 8 8
15 -1 26 -8 10 -9 16 -1 21 18 11 28 -3 22 -32 -5 -25 -4 -27 12 -14 9 8 19
11 23 7 3 -3 15 2 26 11 15 14 19 15 15 3 -8 -26 14 -39 39 -23 16 10 23 11
23 4 0 -26 40 11 60 55 27 62 25 84 -11 189 -16 50 -30 105 -29 123 1 27 -11
46 -66 108 -77 86 -100 100 -175 110 -30 4 -59 11 -65 15 -13 10 -72 1 -80
-12 -10 -16 -23 -9 -26 14 -3 19 -7 16 -26 -21z"/>
<path d="M3404 2109 l-102 -101 -65 11 c-35 6 -77 11 -92 11 -32 0 -85 -44
-85 -70 0 -17 65 -83 118 -119 23 -16 32 -30 32 -51 0 -16 6 -35 13 -42 16
-16 20 -124 5 -151 -7 -14 -7 -17 1 -13 6 4 18 0 27 -9 24 -23 6 -60 -60 -129
-52 -55 -110 -144 -175 -270 l-25 -49 46 -131 c37 -108 50 -133 71 -144 14 -7
29 -21 32 -31 3 -11 -13 -111 -35 -223 -33 -158 -49 -216 -73 -260 -36 -67
-37 -66 54 -111 l64 -32 3 -98 3 -97 73 0 73 0 15 78 c13 73 16 77 39 74 37
-6 46 -18 53 -72 11 -81 9 -80 92 -80 l74 0 0 46 c0 65 11 80 67 89 96 14 103
29 64 149 -38 117 -57 191 -86 337 -21 106 -22 123 -10 153 8 18 21 38 29 45
17 14 20 28 36 186 l11 110 -57 135 c-31 74 -56 142 -55 150 5 71 21 174 29
182 5 5 29 1 59 -11 27 -10 69 -22 94 -26 53 -8 67 3 76 59 5 33 1 40 -57 101
l-63 65 39 133 c21 72 38 141 36 152 -4 27 -46 69 -116 116 -50 34 -66 39
-114 39 l-55 0 -103 -101z m-223 -962 c-8 -8 -14 -8 -22 0 -9 9 -7 19 7 40
l19 28 3 -29 c2 -16 -1 -33 -7 -39z m359 8 c0 -8 -4 -17 -10 -20 -6 -4 -10 5
-10 20 0 15 4 24 10 20 6 -3 10 -12 10 -20z"/>
</g>
</svg>
