<?xml version="1.0" standalone="no"?>
<!DOCTYPE svg PUBLIC "-//W3C//DTD SVG 20010904//EN"
 "http://www.w3.org/TR/2001/REC-SVG-20010904/DTD/svg10.dtd">
<svg version="1.0" xmlns="http://www.w3.org/2000/svg"
 width="480.000000pt" height="360.000000pt" viewBox="0 0 480.000000 360.000000"
 preserveAspectRatio="xMidYMid meet">
<metadata>
Created by potrace 1.16, written by Peter Selinger 2001-2019
</metadata>
<rect width="1" height="360" fill="#000000"/>
<rect x="479" width="1" height="360" fill="#000000"/>
<rect width="480" height="1" fill="#000000"/>
<rect y="359" width="480" height="1" fill="#000000"/>
<g transform="translate(0.000000,360.000000) scale(0.100000,-0.100000)"
fill="#000000" stroke="none">
<path d="M3833 3537 c-33 -34 -77 -89 -97 -120 -21 -32 -50 -66 -66 -76 -16
-9 -79 -25 -139 -35 -107 -18 -114 -18 -176 -1 -87 23 -123 15 -170 -36 -35
-39 -95 -150 -95 -176 0 -7 8 -13 18 -13 16 0 20 -13 29 -95 14 -136 23 -144
176 -160 l59 -7 -6 -34 c-5 -26 -3 -34 7 -34 9 0 19 -19 27 -47 20 -81 29 -97
45 -83 11 9 16 7 26 -11 l12 -22 12 23 13 23 7 -24 c4 -13 19 -42 33 -63 l25
-40 -24 -17 c-94 -70 -94 -70 -43 -120 33 -31 35 -38 30 -76 -5 -37 -2 -45 20
-62 19 -15 24 -26 19 -41 -4 -12 -2 -26 3 -33 6 -7 17 -38 25 -70 9 -33 22
-66 31 -75 12 -15 13 -20 1 -42 -19 -33 -18 -40 3 -40 10 0 33 16 52 35 32 33
72 46 84 26 3 -5 -1 -28 -9 -51 -14 -39 -21 -94 -8 -62 2 6 11 12 19 12 9 0
12 -5 8 -12 -4 -7 9 5 28 27 34 38 35 39 43 17 4 -15 12 -21 21 -18 8 3 17 -1
20 -9 9 -23 18 -18 32 18 9 22 15 28 21 19 6 -10 10 -10 21 3 28 34 38 14 51
-109 9 -87 9 -91 -17 -127 -17 -25 -24 -45 -19 -57 9 -29 -3 -32 -69 -17 -86
20 -176 18 -220 -6 -20 -10 -49 -19 -65 -19 -16 0 -31 -6 -34 -12 -3 -10 -7
-10 -20 0 -20 17 -47 9 -87 -25 -18 -15 -30 -34 -30 -49 0 -32 -35 -67 -61
-59 -11 4 -19 2 -19 -4 0 -16 -36 -13 -70 4 -28 15 -30 14 -30 -4 0 -10 -7
-21 -15 -25 -10 -3 -14 -15 -11 -35 2 -16 0 -34 -4 -41 -4 -6 -58 -24 -121
-40 -63 -17 -156 -45 -208 -63 l-93 -32 -67 71 c-63 68 -91 95 -256 240 -276
244 -405 349 -455 371 -63 28 -55 23 -146 85 -51 34 -88 51 -144 63 -41 9
-100 27 -130 40 -68 30 -107 38 -293 65 -120 17 -158 19 -199 11 -76 -17 -90
-27 -86 -64 2 -26 9 -34 36 -43 l33 -10 -69 -17 c-39 -9 -77 -17 -85 -17 -9 0
-28 -5 -43 -12 -24 -11 -26 -16 -20 -55 5 -38 3 -43 -14 -43 -25 0 -26 -35 -4
-111 14 -46 28 -66 95 -129 87 -83 111 -130 102 -198 -8 -61 -1 -63 295 -64
l257 -2 72 33 72 34 116 -114 c64 -63 189 -185 278 -273 207 -203 311 -276
475 -336 56 -20 74 -22 185 -17 67 3 207 15 311 26 104 11 190 20 191 18 3 -4
-13 -534 -20 -649 l-7 -118 524 0 525 0 27 128 c14 70 40 179 57 243 l31 117
131 8 c73 5 147 8 165 7 l32 -2 -2 251 -3 251 -30 16 -30 15 -1 115 c-1 120
-19 200 -73 324 -12 27 -20 58 -20 70 1 17 2 18 6 5 9 -34 22 -18 25 30 3 39
6 47 24 50 16 2 28 -7 44 -32 25 -41 26 -41 46 -22 12 12 14 162 14 1020 l0
1006 -453 0 -454 0 -60 -63z m-2670 -1484 c-7 -2 -19 -2 -25 0 -7 3 -2 5 12 5
14 0 19 -2 13 -5z"/>
</g>
</svg>
