<?xml version="1.0" standalone="no"?>
<!DOCTYPE svg PUBLIC "-//W3C//DTD SVG 20010904//EN"
 "http://www.w3.org/TR/2001/REC-SVG-20010904/DTD/svg10.dtd">
<svg version="1.0" xmlns="http://www.w3.org/2000/svg"
 width="480.000000pt" height="360.000000pt" viewBox="0 0 480.000000 360.000000"
 preserveAspectRatio="xMidYMid meet">
<metadata>
Created by potrace 1.16, written by Peter Selinger 2001-2019
</metadata>
<rect width="1" height="360" fill="#000000"/>
<rect x="479" width="1" height="360" fill="#000000"/>
<rect width="480" height="1" fill="#000000"/>
<rect y="359" width="480" height="1" fill="#000000"/>
<g transform="translate(0.000000,360.000000) scale(0.100000,-0.100000)"
fill="#000000" stroke="none">
<path d="M0 1800 l0 -1800 1075 0 1075 0 0 118 c0 75 7 158 20 227 14 74 20
152 20 244 0 89 7 177 20 254 30 180 28 208 -23 280 -10 14 -26 47 -36 73
l-17 48 -56 -3 c-60 -3 -103 13 -126 46 -18 27 -186 366 -187 378 0 5 -17 15
-37 22 -54 18 -82 49 -73 81 3 15 10 43 14 62 14 60 23 80 37 80 8 0 19 11 25
24 6 13 20 27 30 29 26 7 119 -7 145 -21 27 -15 73 -68 85 -99 5 -13 19 -27
32 -32 16 -6 41 -44 81 -120 31 -61 59 -111 61 -111 2 0 2 37 -1 83 -6 82 7
190 41 346 13 62 14 87 4 149 -23 157 28 268 178 383 l53 41 0 147 c0 104 -4
152 -13 165 -9 13 -45 22 -137 36 -69 11 -156 30 -195 43 -72 25 -145 63 -145
76 0 13 44 48 85 67 77 36 248 14 369 -47 80 -40 111 -71 138 -136 20 -48 24
-53 47 -48 15 3 67 6 116 7 106 3 144 -13 169 -71 27 -64 27 -79 6 -197 l-21
-116 28 -35 c15 -18 42 -52 60 -73 43 -54 57 -125 49 -264 -3 -61 -8 -199 -12
-306 -6 -195 -6 -195 25 -314 17 -65 49 -155 71 -200 22 -45 40 -88 40 -95 0
-7 7 -28 16 -47 9 -19 14 -37 11 -40 -6 -7 5 -34 98 -239 40 -88 91 -216 114
-284 36 -111 119 -427 136 -522 16 -85 -51 -43 -87 53 -11 32 -23 56 -25 54
-4 -4 19 -126 34 -178 4 -17 46 -18 694 -18 l689 0 0 1800 0 1800 -2400 0
-2400 0 0 -1800z"/>
<path d="M2570 2711 l0 -101 65 0 65 0 0 55 c0 38 -4 55 -13 55 -7 0 -36 21
-65 46 l-52 46 0 -101z"/>
</g>
</svg>
