<?xml version="1.0" standalone="no"?>
<!DOCTYPE svg PUBLIC "-//W3C//DTD SVG 20010904//EN"
 "http://www.w3.org/TR/2001/REC-SVG-20010904/DTD/svg10.dtd">
<svg version="1.0" xmlns="http://www.w3.org/2000/svg"
 width="480.000000pt" height="360.000000pt" viewBox="0 0 480.000000 360.000000"
 preserveAspectRatio="xMidYMid meet">
<metadata>
Created by potrace 1.16, written by Peter Selinger 2001-2019
</metadata>
<rect width="1" height="360" fill="#000000"/>
<rect x="479" width="1" height="360" fill="#000000"/>
<rect width="480" height="1" fill="#000000"/>
<rect y="359" width="480" height="1" fill="#000000"/>
<g transform="translate(0.000000,360.000000) scale(0.100000,-0.100000)"
fill="#000000" stroke="none">
<path d="M4106 3033 c5 -43 2 -54 -29 -105 -19 -32 -40 -70 -46 -86 -7 -16
-24 -33 -41 -39 -38 -14 -38 -33 0 -61 27 -20 30 -28 30 -75 0 -29 9 -80 19
-114 11 -35 16 -64 13 -64 -4 -1 -14 -1 -23 0 -24 3 -32 -106 -12 -184 16 -63
33 -85 69 -85 30 0 39 -50 17 -97 -15 -33 -15 -36 0 -48 24 -17 21 -27 -19
-66 -19 -18 -63 -88 -97 -154 -35 -66 -83 -151 -109 -190 -65 -100 -68 -124
-23 -179 20 -24 47 -47 60 -50 19 -5 25 -13 25 -34 -1 -53 -17 -97 -49 -131
-37 -40 -52 -66 -75 -137 -9 -29 -26 -60 -36 -69 -11 -10 -20 -30 -20 -45 0
-15 -6 -33 -14 -39 -21 -18 -27 -71 -16 -131 12 -63 29 -85 79 -101 20 -7 54
-26 75 -43 22 -16 53 -38 69 -46 48 -26 78 -127 56 -192 -11 -35 -10 -42 24
-110 45 -91 51 -98 112 -134 111 -65 181 -74 173 -23 -2 15 -20 26 -68 42 -59
20 -68 27 -105 80 -75 107 -55 162 51 145 31 -5 64 -13 74 -18 9 -5 48 -14 86
-20 50 -8 90 -23 144 -54 97 -56 110 -59 184 -51 56 5 62 9 62 28 -1 16 5 21
24 22 19 0 24 5 22 20 -4 28 -37 53 -139 105 -49 25 -96 52 -107 60 -10 8 -36
24 -59 35 -66 33 -68 47 -14 99 26 24 47 52 47 60 0 25 -62 88 -105 107 -22 9
-76 20 -120 24 -44 4 -86 12 -92 17 -18 14 -16 49 3 62 8 7 18 31 21 55 3 24
18 69 33 100 30 62 50 142 50 200 0 44 9 53 65 69 22 6 61 25 87 41 67 42 71
67 25 156 -39 74 -61 152 -72 250 -4 33 -14 84 -23 112 -14 48 -14 54 0 70 9
10 19 38 23 63 4 25 14 72 22 105 14 55 14 64 -3 113 -14 41 -15 55 -5 65 14
14 106 15 198 3 55 -8 69 -6 117 15 l56 24 0 72 0 71 -82 7 c-46 4 -114 6
-153 5 -38 -2 -82 -2 -98 -1 l-27 1 37 58 c21 31 40 59 43 62 13 11 50 78 50
90 0 33 -30 -1 -136 -157 -29 -43 -41 -53 -64 -53 -26 0 -27 2 -26 44 1 30 5
42 14 39 7 -3 12 3 12 15 0 12 5 24 10 27 16 10 11 55 -11 100 -20 39 -20 44
-5 79 22 54 21 57 -21 51 -31 -5 -53 1 -119 33 -79 39 -81 41 -93 86 -15 62
-34 60 -25 -1z m60 -1654 c32 -11 37 -70 14 -149 -10 -36 -22 -83 -26 -105 -4
-22 -13 -52 -20 -67 -8 -15 -14 -41 -14 -57 0 -17 -9 -48 -20 -69 -20 -37 -23
-39 -120 -62 -55 -12 -101 -21 -103 -19 -41 72 -51 100 -39 117 6 9 23 40 36
67 13 28 56 92 95 143 44 57 80 114 91 148 11 30 22 59 25 64 6 10 37 6 81
-11z m390 -880 c19 -11 34 -23 34 -26 0 -3 -18 -3 -40 0 -43 6 -73 24 -64 38
9 15 35 10 70 -12z"/>
<path d="M2790 3045 c0 -12 -5 -15 -16 -11 -11 4 -15 2 -11 -8 3 -8 -1 -20 -9
-27 -12 -10 -12 -14 -2 -20 7 -4 10 -10 8 -12 -3 -2 -26 -20 -51 -40 -38 -31
-52 -36 -77 -31 -24 5 -32 2 -41 -14 -9 -17 -7 -28 8 -52 18 -31 18 -33 -1
-98 -11 -37 -27 -75 -35 -84 -11 -13 -13 -21 -5 -30 5 -7 12 -33 13 -58 4 -43
3 -45 -29 -55 -54 -18 -55 -24 -11 -113 44 -90 45 -120 8 -174 -18 -25 -17
-58 2 -58 14 0 11 -37 -5 -68 -8 -15 -23 -72 -34 -128 -12 -55 -39 -150 -60
-210 -50 -137 -56 -168 -38 -202 19 -37 56 -68 88 -76 26 -6 27 -9 23 -54 -6
-59 -19 -140 -35 -215 -9 -47 -17 -60 -36 -67 -13 -5 -24 -17 -24 -27 1 -23
37 -64 73 -83 16 -8 42 -34 58 -58 28 -42 29 -45 13 -63 -23 -25 -11 -47 28
-51 21 -2 36 -10 43 -24 18 -37 34 -52 85 -78 66 -34 177 -37 229 -5 26 15 43
19 72 14 58 -10 65 3 22 40 -36 31 -37 34 -21 52 10 10 19 30 20 43 3 23 -1
25 -58 32 -59 6 -134 31 -134 43 0 10 52 55 64 55 7 0 27 13 45 28 29 24 33
33 27 55 -8 32 -59 67 -97 67 -38 0 -55 25 -42 59 6 17 6 36 1 51 -6 15 -5 42
3 73 6 27 9 70 5 96 l-6 48 39 18 c50 22 101 71 101 96 0 11 -18 57 -40 104
-22 46 -54 135 -70 197 -17 62 -44 141 -60 175 -25 54 -27 63 -14 81 8 11 31
26 52 32 20 7 45 20 55 29 18 15 20 14 36 -5 9 -12 27 -26 39 -33 18 -10 25
-8 42 9 11 11 18 25 15 30 -3 5 -1 11 4 14 13 8 20 -18 22 -77 1 -26 6 -50 11
-53 20 -13 138 88 138 117 0 14 -7 19 -27 19 -68 1 -153 66 -145 112 2 10 -2
18 -8 18 -6 0 -9 4 -6 9 9 13 -39 52 -57 46 -24 -10 -56 28 -50 59 4 21 2 26
-16 26 -29 0 -99 31 -83 37 6 3 12 11 12 18 0 8 21 34 46 59 40 40 44 48 39
78 -5 28 -2 39 20 62 l27 29 -29 23 c-15 13 -32 24 -38 24 -5 1 -29 26 -53 57
-42 52 -43 55 -26 74 16 18 16 19 -1 19 -15 0 -16 2 -4 17 12 15 12 16 -4 10
-10 -4 -16 -3 -12 2 3 5 1 12 -5 16 -5 3 -10 -1 -10 -10z m-38 -1605 c13 -58
15 -220 4 -235 -15 -19 -151 -31 -161 -14 -5 6 -8 42 -8 78 0 52 6 81 28 130
30 66 47 79 99 77 26 -1 31 -6 38 -36z"/>
<path d="M1131 2926 c-7 -9 -20 -16 -28 -16 -10 0 -13 -6 -8 -17 21 -53 13
-73 -55 -133 -53 -47 -71 -57 -91 -53 -39 7 -45 -22 -13 -60 23 -28 25 -36 19
-87 -6 -56 -6 -57 28 -83 20 -15 38 -39 42 -55 3 -16 19 -42 35 -57 l30 -28
-39 -18 c-46 -20 -56 -42 -56 -123 l0 -59 -76 -26 c-42 -14 -83 -31 -91 -38
-18 -16 -96 -33 -161 -35 -65 -2 -146 34 -165 74 -7 16 -23 30 -35 33 -21 6
-332 -56 -383 -76 -29 -10 -32 -53 -7 -88 21 -31 889 -461 930 -461 15 0 43 4
61 9 23 7 32 6 32 -2 0 -26 -23 -93 -37 -109 -8 -9 -13 -25 -12 -35 2 -10 -7
-44 -19 -76 -12 -32 -22 -68 -22 -80 0 -35 35 -66 124 -107 55 -26 90 -49 109
-74 l28 -36 -22 -30 c-13 -16 -31 -32 -41 -36 -24 -7 -41 -40 -33 -64 4 -13 1
-22 -9 -26 -10 -4 -16 -18 -16 -36 0 -27 -6 -32 -84 -69 -46 -21 -91 -39 -99
-39 -9 0 -49 -13 -90 -30 -42 -16 -84 -30 -95 -30 -10 0 -70 36 -133 80 -92
65 -119 80 -139 75 -33 -9 -331 -123 -350 -135 -11 -7 -12 -14 -4 -27 6 -10
136 -123 290 -251 153 -128 319 -266 367 -307 l88 -75 171 0 172 0 90 46 c107
54 136 78 118 96 -7 7 -63 49 -124 93 -62 44 -111 84 -111 90 1 5 23 17 50 26
26 9 62 24 78 33 17 9 39 16 50 16 12 0 26 5 33 12 13 13 15 82 3 113 -13 32
5 53 59 64 102 22 180 77 180 126 0 20 -70 74 -124 95 -33 12 -76 77 -76 116
0 17 -7 37 -15 44 -8 7 -15 24 -15 37 0 17 -16 40 -48 71 -27 26 -51 52 -53
57 -2 6 -21 21 -42 34 l-37 23 20 26 c64 87 70 91 165 107 59 10 102 24 127
40 21 14 42 25 48 25 5 0 17 11 26 25 21 32 13 62 -30 123 -33 46 -99 170
-129 244 -9 21 -32 53 -51 73 -28 27 -35 41 -30 59 3 13 -3 52 -14 87 -15 49
-18 77 -12 119 9 66 7 71 -41 137 -44 59 -47 69 -20 78 11 3 26 24 35 46 15
37 15 45 0 97 -9 31 -24 69 -32 84 -15 26 -15 29 6 57 12 17 22 34 22 39 0 4
-19 17 -42 27 -57 25 -79 52 -72 89 5 23 -1 35 -32 67 -21 21 -43 51 -49 65
-9 24 -12 25 -24 10z m-81 -885 c0 -5 16 -32 35 -61 36 -54 37 -70 5 -70 -10
0 -21 -4 -24 -9 -14 -23 -74 -21 -129 4 -31 13 -73 32 -94 41 l-38 16 25 11
c14 5 28 9 33 8 4 0 36 12 70 28 94 43 117 50 117 32z m13 -1388 c4 -2 7 -12
7 -21 0 -10 6 -26 13 -37 28 -42 26 -51 -19 -89 l-45 -38 -79 54 c-85 57 -98
81 -57 108 47 31 144 44 180 23z"/>
<path d="M3110 779 l-25 -10 33 -30 c35 -32 47 -34 89 -18 37 14 45 30 26 51
-18 20 -81 23 -123 7z"/>
</g>
</svg>
