<?xml version="1.0" standalone="no"?>
<!DOCTYPE svg PUBLIC "-//W3C//DTD SVG 20010904//EN"
 "http://www.w3.org/TR/2001/REC-SVG-20010904/DTD/svg10.dtd">
<svg version="1.0" xmlns="http://www.w3.org/2000/svg"
 width="480.000000pt" height="360.000000pt" viewBox="0 0 480.000000 360.000000"
 preserveAspectRatio="xMidYMid meet">
<metadata>
Created by potrace 1.16, written by Peter Selinger 2001-2019
</metadata>
<rect width="1" height="360" fill="#000000"/>
<rect x="479" width="1" height="360" fill="#000000"/>
<rect width="480" height="1" fill="#000000"/>
<rect y="359" width="480" height="1" fill="#000000"/>
<g transform="translate(0.000000,360.000000) scale(0.100000,-0.100000)"
fill="#000000" stroke="none">
<path d="M0 1800 l0 -1800 769 0 c832 0 781 -3 781 50 0 20 -41 30 -131 30
-72 0 -117 16 -215 77 -44 27 -106 59 -139 72 -33 12 -80 30 -105 40 -35 13
-58 33 -105 93 -51 64 -70 80 -128 107 -37 17 -70 37 -73 45 -8 22 -9 68 -1
108 5 21 4 46 -2 56 -14 25 -3 38 47 53 l43 12 -5 45 c-4 38 -1 48 20 67 14
13 45 28 70 34 61 16 228 83 320 129 47 24 106 66 162 117 107 98 392 385 392
395 0 4 -8 14 -18 24 -17 14 -22 15 -45 3 -14 -8 -35 -25 -46 -38 -27 -32 -26
-18 8 108 15 60 33 127 38 150 l11 42 -37 -24 c-20 -14 -63 -36 -96 -49 -98
-41 -137 -63 -120 -70 34 -13 -1 -66 -44 -66 -13 0 -34 -9 -48 -20 -14 -11
-31 -20 -37 -20 -29 -1 -66 -50 -73 -96 -5 -40 -8 -44 -18 -31 -13 18 -25 13
-25 -11 0 -7 -9 -25 -19 -38 -16 -20 -20 -21 -25 -8 -3 9 -6 25 -6 36 0 20 -1
20 -18 5 -20 -19 -32 -22 -32 -8 0 11 129 234 140 241 4 3 22 32 39 65 18 33
42 67 54 76 12 9 78 40 147 68 69 29 128 56 133 60 8 8 33 97 42 151 4 25 23
54 68 101 l62 67 19 145 19 146 -27 31 c-29 35 -31 48 -14 85 14 32 8 38 -50
45 -56 6 -58 21 -6 36 21 6 44 21 53 35 8 13 25 35 38 50 22 24 22 29 13 100
-5 40 -10 78 -10 82 0 5 10 7 22 5 14 -2 29 -18 42 -45 12 -24 30 -45 41 -48
11 -2 84 -9 163 -14 l142 -10 64 34 c63 35 96 44 96 25 0 -12 -38 -87 -62
-122 -24 -35 -23 -38 15 -39 42 0 139 -31 139 -44 0 -5 -23 -17 -50 -25 -27
-8 -47 -20 -45 -26 2 -7 -14 -14 -38 -18 -37 -6 -40 -9 -35 -29 4 -12 17 -62
30 -110 26 -96 50 -131 121 -172 46 -27 90 -36 340 -70 220 -31 240 -36 240
-61 0 -13 8 -20 25 -22 14 -2 43 -8 65 -14 35 -9 38 -11 18 -19 -11 -4 -74
-13 -140 -20 -110 -11 -130 -10 -303 15 -102 15 -193 29 -203 32 -17 5 -17 2
3 -38 12 -23 38 -59 57 -79 24 -25 33 -43 29 -55 -9 -31 77 -111 164 -154 41
-20 91 -46 110 -58 20 -13 51 -22 73 -22 22 0 69 -14 110 -33 69 -32 73 -35
86 -82 l14 -49 -28 -21 c-16 -11 -39 -30 -50 -42 -23 -24 -35 -21 -35 8 0 18
-9 22 -67 34 -17 3 -50 20 -72 36 -23 16 -73 43 -113 60 -40 17 -92 40 -114
50 -23 10 -63 37 -89 59 -72 63 -93 74 -108 61 -19 -15 -115 -3 -155 20 -69
40 -82 24 -82 -101 0 -103 1 -104 91 -91 42 6 96 8 124 3 59 -9 57 6 30 -199
-4 -23 -15 -53 -27 -68 -11 -14 -19 -27 -17 -29 2 -1 24 -11 49 -21 72 -31
160 -99 214 -165 15 -19 45 -53 65 -75 20 -22 41 -46 45 -53 9 -15 -61 -112
-81 -112 -14 0 -116 89 -146 127 -24 30 -44 30 -25 0 8 -12 18 -44 22 -70 7
-43 13 -53 73 -102 52 -43 78 -57 122 -65 203 -41 268 -82 320 -201 23 -53 37
-164 21 -174 -14 -8 -13 -51 2 -92 11 -31 10 -35 -22 -68 -20 -21 -51 -40 -75
-46 -22 -5 -103 -41 -180 -79 -131 -64 -274 -120 -309 -120 -23 0 -30 -20 -12
-39 9 -10 16 -27 16 -39 l0 -22 1155 0 1155 0 0 1800 0 1800 -2400 0 -2400 0
0 -1800z"/>
<path d="M1872 2358 c-21 -21 -13 -38 18 -38 20 0 30 5 30 15 0 21 -34 37 -48
23z"/>
<path d="M1738 1708 c-20 -46 -18 -53 11 -43 21 6 26 33 13 67 -5 13 -11 7
-24 -24z"/>
<path d="M1779 78 c-9 -7 -19 -28 -23 -45 l-5 -33 268 0 269 0 7 31 c4 17 5
32 3 34 -1 2 -102 6 -223 9 -121 4 -233 9 -250 12 -17 3 -37 0 -46 -8z"/>
</g>
</svg>
