<?xml version="1.0" standalone="no"?>
<!DOCTYPE svg PUBLIC "-//W3C//DTD SVG 20010904//EN"
 "http://www.w3.org/TR/2001/REC-SVG-20010904/DTD/svg10.dtd">
<svg version="1.0" xmlns="http://www.w3.org/2000/svg"
 width="480.000000pt" height="360.000000pt" viewBox="0 0 480.000000 360.000000"
 preserveAspectRatio="xMidYMid meet">
<metadata>
Created by potrace 1.16, written by Peter Selinger 2001-2019
</metadata>
<rect width="1" height="360" fill="#000000"/>
<rect x="479" width="1" height="360" fill="#000000"/>
<rect width="480" height="1" fill="#000000"/>
<rect y="359" width="480" height="1" fill="#000000"/>
<g transform="translate(0.000000,360.000000) scale(0.100000,-0.100000)"
fill="#000000" stroke="none">
<path d="M1390 2810 c-14 -4 -44 -5 -66 -3 -54 7 -84 -20 -84 -75 0 -51 65
-181 127 -253 55 -65 177 -211 266 -318 99 -120 235 -311 276 -389 11 -21 11
-23 -6 -19 -183 51 -350 21 -428 -76 -28 -36 -30 -45 -30 -118 l0 -79 -50 -29
c-27 -16 -63 -41 -79 -57 -37 -38 -76 -116 -76 -154 0 -17 -7 -74 -16 -128
-11 -65 -14 -132 -11 -204 5 -119 15 -145 70 -179 33 -20 40 -20 169 -3 l47 6
67 -104 c86 -131 378 -518 438 -581 l46 -47 722 2 722 3 -270 242 c-148 133
-298 268 -334 301 l-65 60 -7 228 c-7 238 -11 269 -55 394 -37 108 -205 446
-250 505 -40 52 -81 78 -148 95 -26 6 -47 20 -60 39 -11 16 -65 76 -120 133
-55 57 -122 130 -150 163 -27 33 -98 112 -157 177 -93 103 -131 147 -248 292
-67 83 -183 187 -205 185 -5 -1 -21 -4 -35 -9z"/>
</g>
</svg>
