<?xml version="1.0" standalone="no"?>
<!DOCTYPE svg PUBLIC "-//W3C//DTD SVG 20010904//EN"
 "http://www.w3.org/TR/2001/REC-SVG-20010904/DTD/svg10.dtd">
<svg version="1.0" xmlns="http://www.w3.org/2000/svg"
 width="480.000000pt" height="360.000000pt" viewBox="0 0 480.000000 360.000000"
 preserveAspectRatio="xMidYMid meet">
<metadata>
Created by potrace 1.16, written by Peter Selinger 2001-2019
</metadata>
<rect width="1" height="360" fill="#000000"/>
<rect x="479" width="1" height="360" fill="#000000"/>
<rect width="480" height="1" fill="#000000"/>
<rect y="359" width="480" height="1" fill="#000000"/>
<g transform="translate(0.000000,360.000000) scale(0.100000,-0.100000)"
fill="#000000" stroke="none">
<path d="M1186 3577 c-182 -135 -295 -233 -348 -299 l-30 -39 78 56 c189 134
408 204 641 206 236 1 453 -69 643 -210 289 -213 442 -532 427 -890 -5 -135
-13 -175 -59 -316 -36 -107 -81 -193 -158 -300 -198 -275 -255 -584 -169 -929
25 -104 114 -284 182 -368 229 -284 556 -432 922 -414 165 7 347 60 492 141
24 13 43 20 43 15 0 -12 -97 -99 -169 -150 -124 -89 -184 -79 507 -80 l612 0
0 773 0 772 -80 -153 c-137 -265 -353 -592 -493 -746 -40 -44 -39 -25 1 34 30
43 141 271 175 360 36 93 73 222 104 368 24 118 26 145 27 387 1 280 -8 358
-70 576 -132 475 -432 899 -838 1187 l-59 42 -1176 -1 -1176 0 -29 -22z m2156
-2195 c95 -42 168 -141 168 -229 0 -99 -68 -202 -159 -240 -49 -22 -167 -21
-208 0 -39 21 -100 81 -120 121 -8 16 -19 55 -23 88 -16 113 39 214 145 265
59 28 126 27 197 -5z"/>
<path d="M631 3051 c-104 -116 -254 -314 -336 -442 -118 -186 -168 -272 -250
-431 l-45 -88 0 -1045 0 -1045 605 0 c333 0 605 2 605 5 0 2 -63 52 -139 110
-77 58 -179 147 -227 198 -281 297 -479 676 -559 1069 -55 275 -51 620 12 873
8 33 18 78 23 100 18 84 94 285 150 397 56 112 107 194 177 287 35 45 57 81
50 81 -3 0 -32 -31 -66 -69z"/>
<path d="M1435 2689 c-147 -59 -210 -222 -141 -364 32 -65 78 -105 153 -134
78 -30 137 -27 209 9 103 52 163 159 150 268 -12 100 -77 193 -162 228 -48 20
-149 17 -209 -7z"/>
</g>
</svg>
