<?xml version="1.0" standalone="no"?>
<!DOCTYPE svg PUBLIC "-//W3C//DTD SVG 20010904//EN"
 "http://www.w3.org/TR/2001/REC-SVG-20010904/DTD/svg10.dtd">
<svg version="1.0" xmlns="http://www.w3.org/2000/svg"
 width="480.000000pt" height="360.000000pt" viewBox="0 0 480.000000 360.000000"
 preserveAspectRatio="xMidYMid meet">
<metadata>
Created by potrace 1.16, written by Peter Selinger 2001-2019
</metadata>
<rect width="1" height="360" fill="#000000"/>
<rect x="479" width="1" height="360" fill="#000000"/>
<rect width="480" height="1" fill="#000000"/>
<rect y="359" width="480" height="1" fill="#000000"/>
<g transform="translate(0.000000,360.000000) scale(0.100000,-0.100000)"
fill="#000000" stroke="none">
<path d="M2341 1601 c-55 -22 -77 -52 -92 -120 -12 -56 -6 -120 16 -185 14
-39 13 -40 -24 -87 -21 -26 -53 -60 -71 -75 -38 -32 -80 -115 -80 -159 0 -54
50 -183 95 -243 40 -56 46 -59 104 -72 84 -18 207 -8 266 20 25 12 58 38 73
58 23 30 27 45 26 96 0 79 -22 132 -89 216 -62 78 -80 112 -72 134 5 13 12 14
32 6 29 -11 63 1 80 29 6 9 10 39 11 66 0 28 4 76 9 108 7 49 5 60 -10 78 -11
11 -24 18 -31 15 -7 -3 -18 2 -24 9 -7 8 -16 12 -21 10 -4 -3 -15 10 -25 30
-22 46 -69 85 -102 84 -15 0 -47 -8 -71 -18z m199 -155 c0 -3 -4 -8 -10 -11
-5 -3 -10 -1 -10 4 0 6 5 11 10 11 6 0 10 -2 10 -4z"/>
</g>
</svg>
