<?xml version="1.0" standalone="no"?>
<!DOCTYPE svg PUBLIC "-//W3C//DTD SVG 20010904//EN"
 "http://www.w3.org/TR/2001/REC-SVG-20010904/DTD/svg10.dtd">
<svg version="1.0" xmlns="http://www.w3.org/2000/svg"
 width="480.000000pt" height="360.000000pt" viewBox="0 0 480.000000 360.000000"
 preserveAspectRatio="xMidYMid meet">
<metadata>
Created by potrace 1.16, written by Peter Selinger 2001-2019
</metadata>
<rect width="1" height="360" fill="#000000"/>
<rect x="479" width="1" height="360" fill="#000000"/>
<rect width="480" height="1" fill="#000000"/>
<rect y="359" width="480" height="1" fill="#000000"/>
<g transform="translate(0.000000,360.000000) scale(0.100000,-0.100000)"
fill="#000000" stroke="none">
<path d="M2956 3415 c-26 -40 -42 -55 -54 -51 -128 37 -143 29 -82 -43 l42
-50 -31 -51 c-17 -28 -31 -55 -31 -60 0 -16 34 -12 84 10 25 10 48 15 51 11 2
-5 -10 -15 -27 -22 -17 -7 -63 -38 -102 -69 -39 -30 -115 -88 -168 -128 -54
-41 -98 -78 -98 -84 0 -6 -13 -8 -33 -4 -18 3 -48 1 -65 -5 -30 -10 -34 -9
-53 15 -17 21 -24 24 -35 15 -8 -6 -14 -21 -13 -33 5 -61 1 -68 -38 -64 -35 3
-38 1 -34 -22 4 -29 27 -69 117 -199 l65 -95 -29 -65 c-17 -36 -40 -109 -52
-161 -20 -85 -21 -111 -15 -245 7 -172 19 -228 46 -220 13 4 26 -9 53 -53 54
-89 71 -98 42 -21 -13 35 -27 73 -31 84 -5 12 7 4 30 -20 20 -22 53 -57 73
-77 l36 -38 -25 -26 c-17 -18 -31 -24 -48 -21 -16 3 -48 -7 -89 -29 -41 -22
-77 -34 -103 -34 -48 0 -103 -22 -117 -46 -6 -11 -33 -24 -64 -31 -29 -7 -61
-15 -70 -17 -49 -13 -78 -45 -78 -86 0 -13 -4 -19 -11 -14 -6 4 -47 -10 -90
-32 -43 -21 -81 -35 -84 -32 -4 3 8 53 24 111 31 103 31 105 14 150 -16 44
-16 47 1 66 19 21 13 40 -28 88 -14 17 -16 26 -8 36 6 7 11 33 11 58 -1 24 9
70 21 103 18 47 20 60 9 67 -23 14 -4 20 30 8 18 -6 34 -9 37 -6 3 3 -11 23
-30 45 l-36 39 28 6 c16 3 54 4 85 1 33 -2 57 0 57 5 0 19 -100 108 -132 118
-35 10 -134 -13 -165 -38 -19 -16 -92 -125 -106 -159 -5 -14 -13 -72 -16 -130
l-6 -104 -55 -29 c-30 -15 -59 -32 -63 -36 -4 -4 -2 -26 6 -48 13 -39 13 -41
-15 -72 -32 -36 -34 -50 -12 -151 16 -74 15 -132 -2 -350 -6 -71 -5 -77 20
-107 32 -38 83 -63 128 -63 89 0 477 130 486 162 5 22 8 22 31 -1 15 -15 28
-18 65 -14 52 6 54 2 31 -62 -19 -53 -19 -176 0 -267 14 -63 80 -312 92 -344
2 -6 -8 -16 -22 -22 -14 -7 -31 -26 -37 -43 l-11 -31 -66 4 -67 3 -1 -38 c-1
-22 -4 -41 -5 -43 -7 -6 -224 -24 -298 -24 -41 0 -104 7 -140 16 -40 9 -84 13
-115 9 -45 -6 -92 7 -476 129 -234 75 -442 143 -462 151 -30 12 -37 21 -42 52
-9 57 -27 86 -65 106 -30 16 -52 18 -165 13 -71 -2 -181 -10 -242 -17 l-113
-12 0 -318 0 -319 1610 0 1611 0 -16 30 c-8 16 -18 49 -21 72 l-6 43 49 17
c56 20 100 76 134 173 30 86 38 147 48 358 l9 189 30 31 c58 60 75 137 51 233
-15 59 11 154 54 201 17 18 28 36 24 39 -4 4 -2 13 5 21 13 17 17 14 -61 53
-36 18 -101 55 -145 83 -45 28 -110 61 -145 73 -81 28 -107 63 -82 109 l16 30
3 -27 c5 -38 32 -45 55 -14 22 31 37 33 37 6 0 -31 14 -24 51 28 30 41 34 44
37 25 5 -31 14 -29 34 8 10 17 22 28 28 24 5 -3 12 4 15 17 40 179 46 225 34
302 -15 105 -37 199 -60 262 -21 55 -21 58 -4 93 9 20 42 71 72 115 72 103
112 216 56 160 -17 -17 -18 -17 -21 5 -3 20 -8 22 -37 17 -33 -7 -35 -5 -60
44 -18 35 -31 50 -45 50 -11 0 -46 14 -77 32 -49 28 -89 65 -221 207 -29 30
-43 71 -25 71 3 0 34 -16 69 -35 67 -38 124 -87 169 -147 15 -21 32 -38 37
-38 10 0 78 143 78 164 0 8 -19 31 -42 52 -38 35 -76 55 -170 93 -16 6 -28 17
-28 26 0 8 -5 15 -11 15 -6 0 -35 7 -64 15 l-53 16 -7 52 c-11 82 -17 84 -59
22z"/>
</g>
</svg>
