<?xml version="1.0" standalone="no"?>
<!DOCTYPE svg PUBLIC "-//W3C//DTD SVG 20010904//EN"
 "http://www.w3.org/TR/2001/REC-SVG-20010904/DTD/svg10.dtd">
<svg version="1.0" xmlns="http://www.w3.org/2000/svg"
 width="480.000000pt" height="360.000000pt" viewBox="0 0 480.000000 360.000000"
 preserveAspectRatio="xMidYMid meet">
<metadata>
Created by potrace 1.16, written by Peter Selinger 2001-2019
</metadata>
<rect width="1" height="360" fill="#000000"/>
<rect x="479" width="1" height="360" fill="#000000"/>
<rect width="480" height="1" fill="#000000"/>
<rect y="359" width="480" height="1" fill="#000000"/>
<g transform="translate(0.000000,360.000000) scale(0.100000,-0.100000)"
fill="#000000" stroke="none">
<path d="M3664 3354 c37 -36 9 -90 -45 -86 -21 2 -27 -1 -23 -12 3 -9 -17 -27
-58 -53 -100 -63 -142 -83 -159 -72 -36 22 -39 -3 -8 -63 21 -41 21 -43 3 -76
-21 -39 -21 -75 -2 -187 10 -61 17 -81 31 -83 9 -2 17 -8 17 -13 0 -12 -92
-12 -126 1 -23 9 -31 7 -50 -11 -30 -28 -141 -42 -131 -17 12 33 -86 49 -166
27 -26 -7 -44 -21 -57 -42 -25 -41 -26 -60 -2 -53 34 11 50 -23 58 -119 7
-101 20 -125 68 -125 36 0 107 31 152 65 27 20 114 46 114 34 0 -2 -7 -26 -15
-53 -17 -57 -20 -237 -5 -267 9 -15 6 -26 -10 -49 -11 -16 -41 -75 -66 -132
-45 -101 -109 -208 -124 -208 -4 0 -26 -24 -48 -52 -77 -102 -63 -175 46 -242
50 -30 119 -63 140 -66 34 -6 41 -55 17 -132 -14 -49 -15 -305 -1 -340 4 -9 1
-29 -8 -46 -14 -27 -21 -30 -79 -34 -87 -7 -119 -24 -135 -72 -12 -38 -8 -53
36 -138 2 -5 -8 -12 -22 -18 -22 -8 -26 -16 -28 -52 0 -24 0 -52 1 -62 1 -10
-8 -34 -19 -53 -11 -19 -20 -38 -20 -42 0 -13 49 -31 83 -31 27 0 34 5 44 33
24 69 40 107 46 114 4 3 20 -3 36 -15 16 -12 50 -27 76 -33 33 -8 50 -19 57
-35 6 -13 14 -24 18 -24 4 0 15 -18 25 -39 l18 -40 -34 -43 c-19 -24 -42 -49
-51 -56 -31 -23 -22 -59 22 -88 52 -34 56 -75 10 -99 -16 -8 -33 -15 -37 -15
-5 1 -9 -8 -11 -20 -3 -19 2 -20 85 -20 95 0 133 14 133 50 0 11 13 34 28 52
16 18 32 49 36 68 9 49 42 80 85 80 81 0 183 48 161 76 -13 15 -5 34 14 34 8
0 16 14 20 31 7 36 -12 78 -50 108 -26 21 -27 22 -21 118 2 54 11 113 19 131
16 36 11 88 -16 157 -18 47 -20 91 -5 101 6 3 8 20 5 38 -4 18 1 55 10 86 9
29 13 65 10 79 -33 158 -43 237 -34 255 15 28 10 152 -8 206 -9 25 -31 117
-49 205 -20 97 -42 176 -55 198 l-23 38 23 24 c21 22 22 28 12 63 -19 64 21
183 69 202 38 16 59 57 59 112 0 51 -4 57 -52 87 -21 12 -38 24 -38 25 0 2 18
17 39 34 42 34 68 39 376 72 106 12 162 31 150 50 -4 6 -15 10 -26 10 -13 0
-18 4 -13 11 5 9 -2 10 -22 6 -43 -10 -281 -47 -341 -54 l-51 -6 15 47 c13 38
14 57 4 103 -9 47 -9 60 4 80 9 13 20 23 25 23 6 0 10 11 10 24 0 18 -8 27
-30 35 -16 5 -30 16 -30 22 0 7 -21 44 -46 81 l-45 68 25 31 c14 17 26 36 26
43 0 23 -41 66 -61 66 -19 0 -19 -1 -5 -16z m474 -586 c-4 -12 -278 -55 -362
-57 -63 -2 -13 9 153 33 96 14 177 28 179 31 11 10 34 5 30 -7z m-1218 -118
c0 -5 -5 -10 -11 -10 -5 0 -7 5 -4 10 3 6 8 10 11 10 2 0 4 -4 4 -10z m270
-10 c-8 -5 -24 -10 -35 -10 -17 0 -17 2 -5 10 8 5 24 10 35 10 17 0 17 -2 5
-10z m386 -1348 c34 -97 43 -176 29 -272 -3 -25 -9 -81 -13 -125 -4 -44 -10
-85 -14 -91 -5 -7 -35 -3 -95 12 -48 13 -97 23 -109 23 -33 1 -58 36 -56 79 1
20 2 60 3 87 0 53 33 255 51 318 6 20 16 41 22 47 10 8 95 18 135 16 7 -1 27
-40 47 -94z"/>
<path d="M1830 3331 c0 -20 -2 -21 -15 -11 -9 8 -15 9 -15 2 0 -6 5 -14 11
-18 7 -4 7 -10 1 -16 -7 -7 -7 -16 1 -28 9 -16 2 -29 -47 -84 -37 -43 -65 -66
-79 -66 -56 -1 -58 -40 -7 -93 24 -24 27 -34 22 -72 -4 -41 -2 -47 29 -76 19
-18 33 -37 31 -42 -2 -6 2 -21 9 -33 17 -32 5 -52 -36 -60 -42 -8 -50 -17 -35
-45 10 -18 8 -25 -16 -50 -19 -20 -37 -29 -54 -28 -39 3 -90 -12 -90 -27 0 -8
-4 -14 -10 -14 -15 0 -12 -21 7 -42 39 -43 -43 -107 -138 -108 -55 0 -79 -20
-58 -47 32 -44 96 -106 123 -120 36 -19 54 -4 62 53 9 65 12 69 32 50 10 -9
28 -16 40 -16 20 0 87 50 105 77 11 18 44 16 50 -1 3 -8 24 -20 47 -27 51 -15
89 -63 72 -88 -70 -98 -222 -500 -222 -587 0 -33 28 -59 98 -94 51 -26 62 -35
55 -48 -4 -10 -9 -66 -10 -127 -3 -145 -3 -144 0 -185 2 -31 -2 -36 -35 -52
-40 -19 -68 -61 -68 -102 0 -32 70 -90 134 -112 50 -17 58 -24 48 -40 -10 -15
-113 -61 -153 -69 -19 -3 -47 -11 -62 -17 -32 -12 -32 -11 -1 -111 l17 -58
-24 -25 c-40 -43 -70 -54 -134 -47 -49 5 -60 3 -71 -12 -19 -26 -18 -32 12
-60 19 -18 38 -25 66 -25 34 0 41 4 60 36 20 35 53 55 162 99 37 14 42 14 95
-6 86 -32 213 -13 246 37 8 13 22 24 30 24 9 0 25 20 37 44 17 35 29 46 59 55
32 10 39 16 39 37 0 19 -8 28 -35 40 -37 15 -44 34 -20 54 8 7 18 31 22 53 4
25 18 54 38 76 47 52 52 77 23 109 -18 20 -29 51 -41 117 -9 50 -30 123 -47
164 -16 40 -30 75 -30 77 0 3 19 13 43 23 51 22 94 61 107 97 12 32 -2 91 -36
149 -32 55 -52 139 -64 273 -6 62 -17 132 -25 155 -19 54 -19 66 1 88 15 16
14 22 -10 73 -14 30 -26 65 -26 79 0 37 28 122 50 150 32 40 25 52 -45 82 -36
15 -68 32 -71 37 -3 5 3 31 15 57 19 46 20 52 6 119 -8 39 -20 83 -27 97 -9
20 -8 31 7 59 10 18 16 40 12 48 -3 8 -29 23 -59 32 -63 21 -138 66 -138 84 0
6 6 12 13 12 7 0 5 4 -4 10 -9 5 -20 22 -23 36 -5 20 -10 24 -19 15 -8 -8 -14
-6 -24 11 l-12 23 -1 -24z m209 -1849 c75 -109 95 -174 71 -237 -10 -27 -10
-27 -88 -20 -115 10 -121 16 -117 117 3 73 14 145 31 201 3 9 15 17 27 17 16
-1 37 -22 76 -78z m-269 -672 c0 -23 -25 -27 -33 -6 -7 16 1 26 20 26 7 0 13
-9 13 -20z"/>
<path d="M103 3200 c-13 -10 -22 -28 -21 -41 4 -58 -3 -74 -42 -102 l-40 -28
0 -233 c0 -222 1 -234 20 -251 13 -11 18 -25 14 -34 -11 -27 -13 -154 -3 -173
7 -13 5 -21 -11 -30 -16 -10 -20 -23 -20 -71 0 -54 1 -57 19 -47 33 17 48 11
54 -20 4 -16 24 -49 46 -73 l40 -43 -62 1 c-107 1 -97 34 -97 -305 l0 -298 61
19 c63 20 79 18 79 -7 0 -8 7 -26 16 -40 16 -24 16 -26 -15 -64 -36 -45 -51
-80 -51 -119 0 -41 76 -108 217 -191 l123 -72 -59 -40 c-83 -55 -124 -103
-131 -152 -5 -37 -8 -41 -40 -48 -19 -3 -52 -11 -72 -17 -21 -6 -53 -15 -72
-20 -43 -11 -56 -19 -56 -36 0 -23 27 -24 84 -4 69 24 73 24 87 -2 8 -17 8
-32 -1 -61 -10 -34 -9 -43 4 -57 22 -24 21 -26 -27 -60 -23 -17 -53 -49 -67
-71 -13 -21 -33 -40 -44 -42 -29 -4 -34 -34 -35 -200 -1 -131 1 -148 17 -156
26 -14 317 -10 317 5 0 6 -44 57 -97 112 -54 56 -98 108 -98 115 0 8 10 14 23
14 38 0 148 22 204 42 39 13 70 35 113 79 33 33 60 68 61 78 0 18 116 125 186
170 50 34 63 51 63 87 0 31 -44 116 -61 116 -6 0 -7 14 -4 34 10 49 -1 73 -46
101 -33 21 -59 52 -101 119 -4 6 -9 23 -13 38 -3 18 -14 30 -29 34 -12 3 -39
28 -60 55 -20 27 -55 62 -77 78 l-39 29 58 -5 c92 -8 270 58 349 130 17 15 21
27 16 51 -21 116 -149 409 -208 475 -18 20 -35 49 -39 66 -4 16 -25 65 -46
110 -21 44 -52 114 -70 155 -17 41 -44 99 -61 129 -35 66 -36 74 -5 94 50 33
54 137 10 248 -15 36 -14 39 11 79 25 40 26 42 8 55 -10 8 -31 17 -48 21 -36
8 -104 81 -105 112 0 33 -58 142 -75 142 -8 0 -15 6 -15 14 0 23 -13 26 -37 6z
m117 -1292 c0 -30 -22 -90 -35 -94 -8 -3 -29 6 -48 20 -19 14 -48 31 -65 37
-42 15 -40 27 6 34 20 4 42 8 47 10 28 9 95 4 95 -7z"/>
</g>
</svg>
