<?xml version="1.0" standalone="no"?>
<!DOCTYPE svg PUBLIC "-//W3C//DTD SVG 20010904//EN"
 "http://www.w3.org/TR/2001/REC-SVG-20010904/DTD/svg10.dtd">
<svg version="1.0" xmlns="http://www.w3.org/2000/svg"
 width="480.000000pt" height="360.000000pt" viewBox="0 0 480.000000 360.000000"
 preserveAspectRatio="xMidYMid meet">
<metadata>
Created by potrace 1.16, written by Peter Selinger 2001-2019
</metadata>
<rect width="1" height="360" fill="#000000"/>
<rect x="479" width="1" height="360" fill="#000000"/>
<rect width="480" height="1" fill="#000000"/>
<rect y="359" width="480" height="1" fill="#000000"/>
<g transform="translate(0.000000,360.000000) scale(0.100000,-0.100000)"
fill="#000000" stroke="none">
<path d="M1683 1894 c-18 -20 -43 -53 -53 -75 -20 -39 -27 -123 -11 -133 5 -3
11 -29 13 -58 7 -82 31 -123 91 -153 28 -14 61 -25 73 -25 28 0 57 -67 49
-114 -7 -35 35 -146 54 -146 6 0 19 -17 30 -39 28 -54 73 -89 126 -96 41 -7
47 -11 74 -60 17 -29 41 -65 53 -78 13 -14 33 -39 46 -56 28 -37 48 -39 96 -6
l36 24 16 -30 c32 -63 44 -114 45 -191 1 -126 18 -176 80 -247 59 -67 68 -70
147 -45 49 16 51 16 74 -5 54 -51 112 -82 142 -77 71 14 72 44 4 113 l-52 52
46 41 c28 24 51 55 59 78 6 20 17 44 24 52 12 14 32 51 78 148 16 31 25 41 37
36 36 -16 174 -54 196 -54 13 0 47 -11 75 -25 29 -13 79 -30 113 -36 34 -7 68
-16 77 -20 9 -5 35 -12 57 -17 40 -9 41 -9 58 27 20 41 44 159 44 213 0 27 -6
40 -19 48 -40 21 -65 11 -117 -46 -59 -64 -62 -64 -183 -8 -55 26 -77 32 -87
23 -10 -8 -30 -1 -83 26 -39 21 -71 40 -71 44 0 13 29 101 41 123 6 13 36 54
66 91 51 64 56 67 87 62 23 -5 36 -2 45 9 26 31 -9 145 -51 167 -40 21 -146
-2 -297 -66 -98 -41 -246 -76 -331 -77 -41 0 -115 7 -164 16 -83 16 -93 21
-143 66 -48 44 -163 186 -163 201 0 4 28 18 63 32 34 15 94 39 132 55 53 22
72 35 79 55 13 35 -4 53 -68 72 -35 11 -68 14 -106 9 -47 -6 -61 -12 -98 -50
-73 -73 -202 -130 -202 -89 0 9 7 18 15 21 21 8 19 28 -11 106 -20 53 -36 76
-73 107 -44 37 -50 39 -86 31 -23 -5 -46 -5 -56 1 -38 20 -80 10 -116 -27z
m581 -808 c4 -25 18 -66 31 -92 13 -27 23 -50 20 -52 -12 -12 -115 121 -115
149 0 17 40 50 51 43 4 -2 10 -24 13 -48z"/>
</g>
</svg>
