<?xml version="1.0" standalone="no"?>
<!DOCTYPE svg PUBLIC "-//W3C//DTD SVG 20010904//EN"
 "http://www.w3.org/TR/2001/REC-SVG-20010904/DTD/svg10.dtd">
<svg version="1.0" xmlns="http://www.w3.org/2000/svg"
 width="480.000000pt" height="360.000000pt" viewBox="0 0 480.000000 360.000000"
 preserveAspectRatio="xMidYMid meet">
<metadata>
Created by potrace 1.16, written by Peter Selinger 2001-2019
</metadata>
<rect width="1" height="360" fill="#000000"/>
<rect x="479" width="1" height="360" fill="#000000"/>
<rect width="480" height="1" fill="#000000"/>
<rect y="359" width="480" height="1" fill="#000000"/>
<g transform="translate(0.000000,360.000000) scale(0.100000,-0.100000)"
fill="#000000" stroke="none">
<path d="M0 1800 l0 -1800 2400 0 2400 0 0 754 0 754 -52 -14 c-29 -7 -62 -14
-74 -14 -22 0 -61 38 -90 88 -10 17 -23 32 -28 32 -5 0 -104 -31 -221 -70
-589 -193 -794 -211 -987 -89 -29 18 -169 148 -312 289 -142 140 -265 262
-273 270 -14 12 -19 11 -40 -15 -13 -17 -51 -82 -83 -145 -32 -63 -75 -134
-95 -157 -35 -42 -38 -43 -97 -43 -43 0 -59 -3 -56 -12 3 -8 33 -15 81 -18 42
-4 82 -11 88 -17 8 -8 7 -25 -6 -63 -9 -28 -21 -86 -25 -128 -4 -42 -15 -95
-23 -117 -33 -83 -10 -232 48 -317 l26 -38 -55 -25 c-60 -28 -160 -34 -199
-13 -12 6 -41 10 -65 9 -30 -1 -53 5 -73 20 l-29 20 23 32 c56 75 73 195 42
282 -10 27 -13 58 -9 95 l6 55 -57 40 c-67 46 -79 62 -95 134 -17 72 -32 47
-24 -39 4 -51 2 -69 -10 -85 -16 -20 -17 -19 -46 15 -16 19 -37 53 -46 76 -10
26 -22 41 -32 40 -48 -3 -56 131 -15 239 31 83 123 215 192 277 49 43 346 228
444 276 69 33 172 41 252 17 32 -9 140 -57 239 -107 100 -50 237 -115 305
-144 138 -60 237 -115 323 -181 31 -23 60 -43 63 -43 4 0 39 20 79 45 79 49
367 189 464 226 65 25 87 54 63 83 -16 20 2 32 153 102 l131 61 16 76 c22 106
78 179 162 210 16 6 17 35 17 418 l0 411 -27 -7 c-15 -3 -32 -13 -38 -22 -6
-8 -45 -26 -86 -40 -60 -19 -91 -23 -161 -21 -59 2 -88 6 -88 14 0 21 -67 27
-94 8 -30 -19 -101 -11 -110 12 -3 8 -17 14 -31 14 -32 0 -115 55 -115 75 0
13 -261 15 -2025 15 l-2025 0 0 -1800z"/>
<path d="M2361 1949 c-4 -13 -12 -60 -16 -105 -7 -78 -6 -81 15 -87 12 -3 31
0 42 6 16 9 22 9 25 0 4 -10 11 -9 33 2 39 20 50 43 50 103 0 69 -21 93 -88
100 -47 4 -52 3 -61 -19z"/>
<path d="M2183 1747 c-19 -32 -19 -36 -4 -122 17 -93 25 -115 43 -115 7 0 9
17 5 49 -6 48 -5 49 25 55 17 3 40 6 52 6 12 0 31 6 42 14 18 14 16 16 -38 40
-57 25 -88 56 -88 88 0 28 -16 21 -37 -15z"/>
</g>
</svg>
