<?xml version="1.0" standalone="no"?>
<!DOCTYPE svg PUBLIC "-//W3C//DTD SVG 20010904//EN"
 "http://www.w3.org/TR/2001/REC-SVG-20010904/DTD/svg10.dtd">
<svg version="1.0" xmlns="http://www.w3.org/2000/svg"
 width="480.000000pt" height="360.000000pt" viewBox="0 0 480.000000 360.000000"
 preserveAspectRatio="xMidYMid meet">
<metadata>
Created by potrace 1.16, written by Peter Selinger 2001-2019
</metadata>
<rect width="1" height="360" fill="#000000"/>
<rect x="479" width="1" height="360" fill="#000000"/>
<rect width="480" height="1" fill="#000000"/>
<rect y="359" width="480" height="1" fill="#000000"/>
<g transform="translate(0.000000,360.000000) scale(0.100000,-0.100000)"
fill="#000000" stroke="none">
<path d="M1266 2847 c-17 -17 -26 -37 -26 -57 0 -41 -1 -43 -10 -55 -4 -5 -10
-37 -14 -70 -5 -50 -3 -66 14 -92 12 -20 25 -30 33 -27 8 3 22 -6 32 -22 15
-23 15 -28 2 -41 -13 -14 -11 -20 20 -62 20 -25 40 -56 46 -69 6 -13 16 -20
24 -17 7 3 21 8 30 12 10 4 1 -10 -20 -30 -20 -21 -48 -42 -62 -47 -28 -11
-32 -31 -10 -50 20 -17 19 -37 -4 -49 -23 -13 -91 -104 -91 -122 0 -8 -14 -34
-30 -59 -53 -80 -36 -149 43 -179 26 -10 27 -13 27 -86 0 -62 -5 -84 -26 -125
-14 -28 -30 -53 -35 -55 -4 -3 -6 -18 -3 -33 4 -17 -4 -52 -20 -92 -14 -36
-25 -76 -24 -90 0 -14 -14 -65 -31 -114 -34 -97 -59 -210 -121 -561 -38 -216
-90 -580 -90 -632 l0 -23 490 0 c460 0 490 1 490 18 0 9 -4 55 -10 102 -5 47
-17 211 -25 365 -9 160 -23 325 -34 385 -25 137 -77 344 -102 398 -19 44 -19
44 2 49 19 5 19 7 -7 34 -26 27 -27 30 -15 71 7 24 33 86 58 138 52 108 52
110 -8 262 -28 71 -30 79 -15 93 21 21 20 32 -3 40 -22 7 -32 37 -24 75 3 19
-6 53 -31 108 -20 44 -36 83 -36 88 0 4 -10 18 -22 31 l-22 23 29 30 c25 26
30 28 40 13 11 -14 12 -14 18 2 4 10 13 15 22 11 9 -3 15 1 15 10 0 9 15 31
33 49 31 31 33 37 33 102 -1 52 -7 77 -24 106 -12 22 -22 44 -21 50 3 25 -2
38 -18 55 -10 9 -36 39 -58 66 -81 99 -186 111 -347 41 -14 -5 -18 -2 -18 11
0 11 -4 25 -9 33 -7 11 -14 9 -35 -12z"/>
<path d="M3365 167 c-47 -27 -60 -57 -51 -120 l7 -47 199 0 c223 0 220 -1 220
74 0 56 -32 84 -115 101 -108 23 -211 20 -260 -8z"/>
</g>
</svg>
