<?xml version="1.0" standalone="no"?>
<!DOCTYPE svg PUBLIC "-//W3C//DTD SVG 20010904//EN"
 "http://www.w3.org/TR/2001/REC-SVG-20010904/DTD/svg10.dtd">
<svg version="1.0" xmlns="http://www.w3.org/2000/svg"
 width="480.000000pt" height="360.000000pt" viewBox="0 0 480.000000 360.000000"
 preserveAspectRatio="xMidYMid meet">
<metadata>
Created by potrace 1.16, written by Peter Selinger 2001-2019
</metadata>
<rect width="1" height="360" fill="#000000"/>
<rect x="479" width="1" height="360" fill="#000000"/>
<rect width="480" height="1" fill="#000000"/>
<rect y="359" width="480" height="1" fill="#000000"/>
<g transform="translate(0.000000,360.000000) scale(0.100000,-0.100000)"
fill="#000000" stroke="none">
<path d="M1642 3535 c18 -35 34 -62 36 -60 11 11 43 -48 52 -95 9 -47 5 -255
-6 -308 -4 -19 -9 -23 -29 -18 -38 10 -55 -2 -45 -30 6 -15 4 -89 -5 -201 -8
-98 -19 -233 -25 -301 -6 -79 -15 -131 -26 -146 -14 -23 -14 -25 8 -32 26 -9
24 -9 56 1 22 6 22 5 22 -72 0 -75 21 -271 36 -328 5 -19 -1 -42 -19 -78 -37
-73 -54 -148 -78 -331 -11 -87 -27 -174 -37 -194 -14 -31 -23 -38 -60 -44
-109 -18 -225 -102 -257 -184 -13 -35 -16 -65 -13 -127 5 -79 17 -114 63 -180
10 -14 10 -25 2 -48 -9 -23 -9 -32 1 -37 8 -6 2 -19 -23 -45 -19 -20 -36 -43
-36 -50 -1 -6 -3 -22 -4 -35 -1 -12 -10 -31 -20 -42 -12 -13 -15 -27 -11 -45
5 -20 0 -34 -19 -56 -15 -19 -25 -43 -25 -62 0 -18 -11 -49 -26 -70 -14 -21
-23 -45 -20 -53 3 -8 -6 -30 -19 -50 -14 -20 -25 -49 -25 -63 0 -15 -5 -32
-12 -39 -12 -12 -38 -79 -38 -99 0 -10 287 -13 1403 -13 l1404 0 6 93 c4 50
18 155 31 232 34 196 40 206 74 133 15 -32 22 -73 26 -163 4 -66 9 -159 12
-207 l6 -88 399 0 399 0 0 195 c0 171 -3 203 -21 257 -34 102 -35 145 -5 219
24 60 26 77 26 213 l0 148 -140 -4 -140 -3 -10 30 c-47 148 -92 381 -116 594
-26 238 -57 307 -182 401 -69 52 -202 124 -284 155 -27 10 -48 20 -48 23 0 8
70 132 75 132 2 0 14 -18 26 -40 30 -53 34 -44 9 19 -11 28 -20 67 -20 87 0
22 -6 37 -15 41 -9 3 -25 23 -36 44 -21 42 -62 204 -56 222 2 6 23 -19 48 -56
53 -80 68 -87 29 -14 l-28 52 3 190 2 190 56 168 c31 93 62 197 68 233 7 43
16 64 25 64 8 0 14 -4 14 -10 0 -13 47 -13 56 1 3 6 17 8 30 5 17 -5 26 -1 34
13 5 11 10 22 10 25 0 3 -585 6 -1300 6 l-1300 0 32 -65z m347 -882 c7 -65 16
-156 21 -203 7 -57 6 -98 -1 -123 -6 -21 -7 -52 -4 -68 5 -24 1 -36 -24 -65
-17 -19 -31 -41 -31 -49 0 -8 -28 -33 -61 -56 l-62 -42 6 44 c4 24 10 79 13
121 8 94 19 113 56 99 34 -13 40 -5 23 28 -11 23 -10 53 11 221 13 107 24 201
24 208 0 7 4 11 9 8 5 -3 14 -59 20 -123z m1821 -166 c0 -4 -12 -7 -27 -5 -25
3 -28 8 -31 43 l-2 40 30 -35 c16 -19 30 -38 30 -43z"/>
</g>
</svg>
