<?xml version="1.0" standalone="no"?>
<!DOCTYPE svg PUBLIC "-//W3C//DTD SVG 20010904//EN"
 "http://www.w3.org/TR/2001/REC-SVG-20010904/DTD/svg10.dtd">
<svg version="1.0" xmlns="http://www.w3.org/2000/svg"
 width="480.000000pt" height="360.000000pt" viewBox="0 0 480.000000 360.000000"
 preserveAspectRatio="xMidYMid meet">
<metadata>
Created by potrace 1.16, written by Peter Selinger 2001-2019
</metadata>
<rect width="1" height="360" fill="#000000"/>
<rect x="479" width="1" height="360" fill="#000000"/>
<rect width="480" height="1" fill="#000000"/>
<rect y="359" width="480" height="1" fill="#000000"/>
<g transform="translate(0.000000,360.000000) scale(0.100000,-0.100000)"
fill="#000000" stroke="none">
<path d="M0 1800 l0 -1800 873 0 873 0 34 88 c60 158 98 221 154 257 66 42 80
59 104 122 11 29 34 75 51 103 29 47 31 56 31 148 0 132 -8 172 -32 172 -26 0
-62 38 -94 101 -14 30 -54 81 -88 115 -52 51 -64 69 -72 110 -8 45 -13 51 -58
75 -76 42 -77 52 -13 118 61 61 84 103 64 119 -7 5 -30 15 -52 22 -22 7 -48
19 -57 28 -28 24 -22 -4 8 -44 15 -19 23 -34 18 -34 -15 0 -85 53 -95 73 -18
32 -21 11 -4 -28 21 -51 12 -55 -19 -8 -26 38 -36 31 -15 -10 8 -18 6 -17 -13
5 -93 107 -140 188 -163 283 l-12 50 -19 -32 c-29 -50 -36 -39 -12 20 12 28
24 77 26 107 l3 55 -31 -38 c-17 -20 -41 -42 -52 -48 -18 -10 -20 -9 -13 7 4
11 27 72 50 136 92 249 187 411 283 481 26 19 72 54 102 77 57 44 197 118 263
139 20 7 37 17 37 23 0 20 -91 172 -148 246 -92 122 -193 187 -422 272 -173
64 -324 141 -428 220 l-94 70 -484 0 -484 0 0 -1800z"/>
<path d="M1875 3555 c28 -24 69 -65 93 -92 50 -56 50 -42 0 70 l-31 67 -56 0
-56 -1 50 -44z"/>
<path d="M2410 3593 c0 -5 9 -46 20 -93 28 -121 36 -160 83 -395 l42 -210 110
-12 c61 -6 139 -18 175 -26 88 -21 219 -77 280 -121 27 -19 78 -48 112 -64 61
-28 125 -73 193 -137 76 -70 230 -427 285 -660 11 -49 34 -142 50 -205 29
-117 91 -434 155 -796 39 -224 51 -265 122 -415 28 -57 87 -184 133 -281 l83
-178 274 0 273 0 0 1800 0 1800 -1195 0 c-657 0 -1195 -3 -1195 -7z"/>
<path d="M1815 1603 c15 -32 25 -42 25 -24 0 5 -9 19 -20 32 l-21 24 16 -32z"/>
</g>
</svg>
