<?xml version="1.0" standalone="no"?>
<!DOCTYPE svg PUBLIC "-//W3C//DTD SVG 20010904//EN"
 "http://www.w3.org/TR/2001/REC-SVG-20010904/DTD/svg10.dtd">
<svg version="1.0" xmlns="http://www.w3.org/2000/svg"
 width="480.000000pt" height="360.000000pt" viewBox="0 0 480.000000 360.000000"
 preserveAspectRatio="xMidYMid meet">
<metadata>
Created by potrace 1.16, written by Peter Selinger 2001-2019
</metadata>
<rect width="1" height="360" fill="#000000"/>
<rect x="479" width="1" height="360" fill="#000000"/>
<rect width="480" height="1" fill="#000000"/>
<rect y="359" width="480" height="1" fill="#000000"/>
<g transform="translate(0.000000,360.000000) scale(0.100000,-0.100000)"
fill="#000000" stroke="none">
<path d="M0 1800 l0 -1800 890 0 c490 0 890 3 890 7 0 4 -12 19 -26 34 -41 43
-42 92 -3 164 27 51 32 71 34 140 2 67 11 109 59 255 80 245 85 258 117 319
32 60 35 77 17 83 -9 3 -7 20 6 66 14 52 35 231 36 310 0 30 -14 28 -28 -4
-14 -30 -94 -68 -126 -60 -13 3 -35 15 -51 28 -27 21 -27 24 -22 91 5 57 4 66
-6 52 -12 -16 -16 -15 -52 6 -22 12 -50 31 -63 43 -35 31 -69 36 -120 15 -33
-14 -34 -13 -61 20 -16 20 -33 31 -39 27 -7 -4 -52 -12 -102 -17 -50 -6 -109
-17 -132 -25 -49 -17 -48 -17 -71 0 -15 12 -16 18 -7 35 9 17 7 26 -11 51 -13
16 -20 32 -17 35 3 3 26 0 52 -7 37 -10 50 -10 64 0 9 7 64 36 121 64 95 48
105 56 122 94 15 36 23 43 51 46 51 5 108 -10 140 -37 33 -28 65 -32 93 -12
15 12 23 11 54 -4 42 -20 47 -18 66 27 8 19 33 63 56 98 39 59 43 62 65 52 13
-6 27 -19 30 -29 5 -17 12 -18 67 -11 34 5 78 8 97 7 l36 -2 2 107 c1 100 0
105 -14 80 -16 -31 -38 -38 -31 -10 15 53 18 95 7 102 -9 6 -9 13 -1 28 14 27
14 102 0 102 -6 0 -9 -9 -6 -19 4 -17 2 -18 -14 -8 -10 6 -19 22 -19 34 0 38
-11 55 -26 42 -16 -13 -17 -8 -5 23 6 13 13 49 16 80 4 39 15 70 35 100 17 24
30 52 30 62 0 11 9 30 21 42 20 21 20 23 4 54 -28 55 -6 90 72 114 17 6 29 1
47 -19 l24 -26 21 46 c17 38 24 46 38 40 10 -4 32 -12 48 -17 41 -15 55 -27
55 -49 0 -25 9 -24 45 5 36 29 60 21 70 -24 8 -38 30 -50 69 -39 42 12 60 4
97 -42 25 -32 32 -51 35 -97 3 -58 26 -92 61 -92 11 0 13 -6 8 -22 -4 -13 -5
-39 -3 -58 7 -76 -2 -190 -21 -279 -12 -55 -17 -99 -12 -108 8 -16 -8 -63 -21
-63 -5 0 -14 15 -21 33 l-14 32 -7 -37 c-4 -21 -10 -38 -14 -38 -4 0 -16 -20
-27 -44 -16 -35 -22 -41 -32 -30 -7 7 -13 19 -13 27 0 8 -6 20 -14 26 -11 10
-16 8 -21 -9 -3 -11 -10 -18 -15 -15 -5 3 -11 1 -15 -4 -3 -6 3 -15 14 -20 19
-11 29 -41 38 -123 3 -34 -2 -68 -21 -125 -48 -148 -129 -468 -134 -531 l-5
-63 41 -40 c23 -21 85 -62 139 -89 54 -28 123 -67 153 -88 62 -42 70 -64 50
-155 -13 -64 -91 -184 -138 -212 -32 -20 -32 -21 -26 -75 16 -144 34 -212 90
-339 l59 -131 937 0 938 0 0 1800 0 1800 -2400 0 -2400 0 0 -1800z"/>
<path d="M2267 2115 c-4 -11 -6 -55 -5 -97 2 -85 6 -90 56 -64 32 17 90 76 75
76 -6 0 -13 9 -16 20 -6 25 -24 26 -29 3 -3 -13 -10 -5 -25 26 -14 30 -23 40
-28 30 -7 -10 -10 -8 -15 7 -7 19 -7 19 -13 -1z"/>
</g>
</svg>
