<?xml version="1.0" standalone="no"?>
<!DOCTYPE svg PUBLIC "-//W3C//DTD SVG 20010904//EN"
 "http://www.w3.org/TR/2001/REC-SVG-20010904/DTD/svg10.dtd">
<svg version="1.0" xmlns="http://www.w3.org/2000/svg"
 width="480.000000pt" height="360.000000pt" viewBox="0 0 480.000000 360.000000"
 preserveAspectRatio="xMidYMid meet">
<metadata>
Created by potrace 1.16, written by Peter Selinger 2001-2019
</metadata>
<rect width="1" height="360" fill="#000000"/>
<rect x="479" width="1" height="360" fill="#000000"/>
<rect width="480" height="1" fill="#000000"/>
<rect y="359" width="480" height="1" fill="#000000"/>
<g transform="translate(0.000000,360.000000) scale(0.100000,-0.100000)"
fill="#000000" stroke="none">
<path d="M0 1800 l0 -1800 1671 0 1670 0 -6 73 c-11 132 -12 137 -53 155 -20
10 -63 35 -94 56 -51 34 -59 44 -74 95 -20 70 -15 159 15 227 17 37 21 60 16
94 -3 29 2 79 16 140 11 52 24 114 28 137 4 23 12 48 18 55 6 7 15 35 22 62 7
27 21 67 33 89 31 62 59 149 53 167 -3 9 -17 22 -30 28 -33 15 -32 30 7 82 18
24 39 51 46 61 8 10 18 65 24 124 9 97 9 108 -8 126 -15 16 -16 24 -6 39 15
24 6 29 -60 37 -74 8 -98 25 -99 71 l-1 37 -13 -30 c-7 -16 -16 -70 -19 -120
-18 -232 -96 -344 -323 -462 -126 -66 -146 -73 -136 -48 3 9 -2 22 -13 30 -11
7 -17 15 -14 17 16 11 102 48 113 48 23 0 152 72 185 103 49 47 97 116 116
167 14 38 49 279 41 288 -8 10 -232 43 -356 53 -165 14 -169 13 -169 -43 0
-40 -25 -48 -141 -48 -91 0 -105 -2 -126 -21 -19 -19 -25 -20 -39 -8 -20 17
-101 20 -669 22 l-450 2 -47 24 c-26 13 -67 40 -90 62 l-43 38 30 25 c17 13
54 37 84 53 51 26 62 28 170 27 64 0 266 -15 449 -33 184 -17 342 -29 352 -26
11 3 22 15 25 26 13 39 34 47 258 89 55 10 447 12 671 3 l148 -6 -7 24 c-8 25
-38 65 -67 87 -10 7 -18 16 -18 21 0 10 108 31 163 31 l46 0 -6 93 c-4 73 -2
100 11 131 20 49 21 46 -14 46 -40 0 -39 25 1 39 17 6 86 13 152 16 67 4 127
8 133 10 6 2 14 18 18 35 7 39 61 114 116 164 l40 36 0 340 0 340 -1875 0
-1875 0 0 -1800z m2755 -400 c4 -6 -7 -10 -27 -9 -27 0 -30 2 -13 9 27 12 33
12 40 0z m-105 -35 c-7 -8 -17 -12 -22 -9 -6 4 -5 10 3 15 22 14 33 10 19 -6z"/>
<path d="M3961 3010 c-41 -6 -60 -15 -82 -39 -15 -17 -35 -31 -44 -31 -10 0
-32 -7 -51 -16 l-34 -16 0 -1363 c0 -1223 2 -1363 16 -1369 8 -3 26 1 39 10
34 22 57 10 78 -39 10 -23 29 -66 44 -94 l25 -53 205 0 c190 0 204 1 199 18
-3 9 -19 60 -35 112 -16 52 -41 128 -55 169 -30 87 -31 91 -11 91 8 0 50 18
93 41 109 56 113 72 51 164 -26 39 -70 92 -98 120 -38 36 -51 57 -51 78 0 15
-9 45 -19 66 -20 39 -61 153 -61 170 0 16 59 -9 115 -47 39 -27 51 -31 53 -19
2 9 -2 25 -7 36 -16 28 -14 39 9 46 25 8 26 40 3 60 -10 9 -74 60 -143 114
-156 121 -210 174 -234 228 -17 39 -18 48 -6 104 9 42 25 77 53 114 l40 54 44
-38 c45 -40 75 -49 194 -54 54 -2 146 -44 152 -69 3 -10 21 -25 41 -35 20 -9
36 -24 36 -33 0 -14 -27 -111 -91 -324 -27 -88 -23 -212 9 -301 12 -32 22 -62
22 -65 0 -13 -41 -8 -47 6 -8 21 -23 17 -23 -6 0 -38 32 -90 56 -90 13 0 34
-12 47 -26 20 -21 30 -25 55 -19 17 3 33 13 36 22 4 8 -9 47 -28 87 -48 99
-60 171 -53 324 4 99 11 146 32 217 15 50 33 110 40 134 7 25 16 46 21 48 6 2
46 -1 89 -5 128 -14 115 -60 115 403 l0 403 -23 29 c-13 15 -40 54 -60 86 -41
64 -72 77 -65 26 l5 -30 -21 24 c-12 14 -33 33 -48 42 -25 16 -27 15 -38 -4
-6 -12 -17 -21 -25 -21 -8 0 -15 -4 -15 -10 0 -5 -9 -2 -20 7 -11 10 -20 25
-20 34 0 9 -7 22 -15 29 -30 25 -6 60 26 39 20 -12 26 -11 33 7 4 9 1 23 -6
31 -7 8 -12 27 -13 41 0 23 -5 27 -32 30 -31 3 -32 4 -38 70 -10 108 -33 213
-51 233 -22 24 -41 24 -49 0 -3 -10 -13 -26 -23 -34 -16 -15 -23 -14 -77 6
-33 12 -80 37 -104 55 -46 34 -62 36 -160 22z m485 -608 c16 -10 27 -69 15
-77 -24 -14 -8 -36 50 -65 39 -20 66 -42 77 -62 9 -17 34 -48 55 -69 38 -38
39 -41 32 -89 -4 -28 -9 -50 -11 -50 -3 0 -22 11 -42 25 -45 30 -50 31 -78 4
-21 -20 -33 -21 -160 -20 -75 1 -145 6 -155 12 -12 6 -19 21 -19 40 0 36 -20
45 -134 61 -45 5 -82 11 -84 13 -1 1 2 14 7 29 11 28 31 35 31 11 0 -8 5 -15
10 -15 6 0 10 5 10 10 0 19 19 10 26 -12 6 -20 8 -19 21 13 l14 34 19 -22 c17
-22 37 -32 26 -15 -15 25 19 87 86 153 38 38 73 67 77 65 4 -3 20 4 37 15 30
19 70 25 90 11z m176 -561 c-4 -28 -6 -29 -31 -18 -46 19 -56 30 -34 38 10 4
30 8 44 8 23 1 25 -2 21 -28z"/>
<path d="M3383 2595 c-44 -31 -47 -129 -8 -232 16 -41 18 -42 40 -30 24 12 75
73 75 90 0 4 -7 15 -15 23 -23 23 -18 41 15 61 17 9 30 21 30 27 0 5 -15 24
-32 42 -36 37 -70 43 -105 19z"/>
<path d="M3751 14 c0 -11 3 -14 6 -6 3 7 2 16 -1 19 -3 4 -6 -2 -5 -13z"/>
</g>
</svg>
