<?xml version="1.0" standalone="no"?>
<!DOCTYPE svg PUBLIC "-//W3C//DTD SVG 20010904//EN"
 "http://www.w3.org/TR/2001/REC-SVG-20010904/DTD/svg10.dtd">
<svg version="1.0" xmlns="http://www.w3.org/2000/svg"
 width="480.000000pt" height="360.000000pt" viewBox="0 0 480.000000 360.000000"
 preserveAspectRatio="xMidYMid meet">
<metadata>
Created by potrace 1.16, written by Peter Selinger 2001-2019
</metadata>
<rect width="1" height="360" fill="#000000"/>
<rect x="479" width="1" height="360" fill="#000000"/>
<rect width="480" height="1" fill="#000000"/>
<rect y="359" width="480" height="1" fill="#000000"/>
<g transform="translate(0.000000,360.000000) scale(0.100000,-0.100000)"
fill="#000000" stroke="none">
<path d="M1977 3050 c-65 -41 -128 -56 -176 -41 -54 16 -117 14 -156 -5 -70
-33 -156 -141 -170 -214 -4 -19 -26 -75 -50 -125 -43 -90 -84 -237 -105 -380
-10 -70 -32 -546 -25 -553 2 -2 15 17 30 42 29 50 36 56 31 29 -2 -10 -7 -43
-11 -73 -9 -72 6 -58 44 40 l28 73 -5 -83 c-5 -95 6 -100 35 -17 l18 52 5
-115 c4 -92 7 -111 16 -95 6 11 14 32 18 48 3 15 10 27 15 27 5 0 12 14 16 30
4 17 11 30 17 30 12 0 4 -105 -13 -183 -13 -54 -6 -82 17 -73 13 5 14 -4 12
-56 l-3 -63 -38 -6 c-54 -9 -55 -16 -8 -37 l43 -17 -2 -195 c-1 -180 -3 -203
-31 -312 -46 -184 -60 -263 -68 -398 -6 -87 -16 -150 -34 -207 -14 -45 -29
-103 -32 -128 l-7 -45 432 0 432 0 -5 33 c-4 17 -9 75 -13 128 -6 92 -6 96 15
102 11 3 21 13 21 22 0 10 12 44 27 77 24 54 25 62 13 97 -7 22 -10 52 -7 68
3 15 -4 124 -15 241 -19 206 -19 265 2 232 6 -8 10 -25 10 -37 0 -13 6 -23 14
-23 19 0 49 -103 101 -350 72 -343 116 -474 184 -553 l33 -37 182 0 182 0 118
50 c65 28 120 50 123 50 2 0 1 -9 -2 -20 -3 -11 -3 -30 1 -42 l7 -22 18 23
c11 13 19 31 19 41 0 25 10 50 21 50 5 0 9 -6 9 -14 0 -8 9 -24 21 -37 l20
-24 -5 46 c-4 40 -2 49 18 68 36 34 46 94 46 273 -1 270 -30 470 -100 676 -20
59 -25 84 -17 87 7 2 41 9 77 15 107 19 142 46 185 144 27 61 42 165 31 209
-9 37 -53 86 -93 102 -29 12 -33 17 -24 33 15 28 0 37 -20 11 -14 -19 -19 -20
-39 -9 -15 8 -42 10 -78 6 -96 -11 -124 -38 -147 -143 -15 -66 -15 -77 -1
-125 14 -49 14 -54 -1 -65 -13 -10 -20 -10 -33 2 -14 13 -29 11 -125 -14 -141
-37 -330 -98 -376 -122 -36 -18 -36 -18 -70 5 -19 13 -73 47 -122 75 -91 55
-102 68 -131 159 -10 28 -21 52 -24 52 -4 0 -22 -9 -41 -21 l-35 -21 -18 24
c-9 12 -23 39 -29 58 -7 19 -23 51 -36 71 -22 33 -23 40 -14 104 6 37 15 73
20 78 6 6 11 43 11 82 0 61 3 75 21 91 12 10 25 29 30 42 6 14 17 22 33 22 13
0 29 7 36 15 10 12 7 20 -14 46 -26 31 -26 39 2 72 21 24 35 21 21 -4 -12 -24
-14 -24 52 17 20 13 39 20 42 18 12 -13 52 43 57 81 4 31 10 40 23 38 13 -1
16 4 12 15 -4 10 -11 57 -16 106 -11 114 -50 198 -130 278 -40 41 -58 67 -62
92 -3 21 -17 45 -33 59 -15 13 -34 43 -43 68 -12 33 -29 52 -65 77 -60 40 -89
40 -149 2z m-8 -1162 c1 -32 -2 -38 -20 -38 -18 0 -20 4 -14 48 9 68 16 82 25
52 5 -14 8 -42 9 -62z"/>
</g>
</svg>
