<?xml version="1.0" standalone="no"?>
<!DOCTYPE svg PUBLIC "-//W3C//DTD SVG 20010904//EN"
 "http://www.w3.org/TR/2001/REC-SVG-20010904/DTD/svg10.dtd">
<svg version="1.0" xmlns="http://www.w3.org/2000/svg"
 width="480.000000pt" height="360.000000pt" viewBox="0 0 480.000000 360.000000"
 preserveAspectRatio="xMidYMid meet">
<metadata>
Created by potrace 1.16, written by Peter Selinger 2001-2019
</metadata>
<rect width="1" height="360" fill="#000000"/>
<rect x="479" width="1" height="360" fill="#000000"/>
<rect width="480" height="1" fill="#000000"/>
<rect y="359" width="480" height="1" fill="#000000"/>
<g transform="translate(0.000000,360.000000) scale(0.100000,-0.100000)"
fill="#000000" stroke="none">
<path d="M0 1800 l0 -1800 884 0 883 0 7 50 c10 78 123 465 160 550 18 41 45
113 61 158 25 77 27 92 20 177 -5 69 -3 98 7 114 11 18 10 25 -4 48 -26 43
-41 35 -54 -27 l-11 -55 -8 51 c-10 71 -19 83 -43 61 -22 -20 -78 -23 -89 -3
-4 7 -19 16 -33 19 -14 3 -79 27 -145 55 -66 27 -154 57 -195 67 -151 35 -148
34 -158 64 -6 18 -20 31 -37 35 -20 5 -25 12 -23 29 3 21 -2 23 -102 33 -135
14 -221 37 -291 80 -67 40 -78 60 -50 88 l21 20 22 -21 c39 -34 48 -37 45 -11
-1 16 2 22 13 19 21 -7 65 -5 85 2 14 6 12 10 -12 31 -26 22 -27 27 -16 56 13
35 6 64 -27 110 -23 33 -27 100 -6 100 7 0 19 7 26 15 11 13 10 28 -3 84 -10
38 -17 89 -17 114 0 40 4 48 27 59 31 15 39 28 53 87 13 49 21 47 35 -12 16
-64 30 -54 49 36 4 15 22 45 41 65 19 20 41 46 48 56 20 28 37 11 37 -37 0
-23 4 -49 10 -57 10 -17 13 -15 25 24 6 16 18 34 28 40 15 9 23 4 52 -29 45
-51 50 -70 50 -183 0 -85 -2 -95 -22 -112 -32 -25 -30 -68 2 -80 21 -8 25 -16
25 -47 0 -21 -7 -47 -15 -57 -19 -25 -19 -59 0 -96 14 -27 14 -32 0 -54 -9
-13 -28 -28 -43 -34 -83 -30 -149 -43 -206 -41 -47 2 -69 -2 -80 -13 -14 -14
-13 -16 7 -22 12 -3 47 -6 78 -6 38 0 75 -8 113 -25 54 -24 58 -24 82 -8 20
13 30 14 44 5 10 -6 34 -8 54 -5 29 4 47 -1 93 -28 71 -42 217 -109 237 -109
22 0 81 193 66 219 -23 43 -11 72 75 190 27 37 32 61 13 61 -34 1 -37 14 -25
94 12 78 13 80 47 91 19 7 36 18 37 26 1 8 7 94 13 193 18 319 83 546 184 651
l41 43 -78 -5 c-94 -7 -117 7 -117 68 0 65 79 251 135 317 l26 31 45 -20 c25
-10 59 -19 75 -19 49 0 108 -36 224 -136 60 -51 74 -57 175 -65 8 -1 49 11 90
26 90 33 205 44 234 22 19 -14 18 -18 -19 -168 -21 -85 -41 -161 -46 -170 -5
-10 1 -34 16 -65 43 -87 28 -216 -35 -303 -17 -23 -36 -54 -42 -69 l-11 -27
-6 35 -6 35 -32 -43 -31 -42 -10 27 -9 28 -17 -40 c-14 -33 -16 -57 -11 -136
4 -53 10 -100 13 -105 4 -5 20 -15 36 -22 23 -10 27 -17 22 -37 -5 -18 -2 -27
9 -31 8 -4 15 -12 15 -18 0 -7 16 -28 36 -47 19 -18 62 -73 95 -121 114 -167
139 -235 103 -286 -13 -19 -14 -37 -4 -140 6 -64 15 -121 19 -125 13 -13 167
-35 304 -42 101 -6 130 -11 140 -24 7 -9 29 -22 50 -28 34 -10 43 -9 80 12 26
16 67 27 110 31 37 4 70 11 73 15 3 5 18 2 34 -6 41 -21 50 -19 50 15 0 33 11
38 30 15 10 -12 15 -13 21 -4 6 10 11 10 23 0 39 -33 1 -135 -65 -177 -154
-97 -218 -117 -298 -94 -29 8 -36 7 -48 -10 -11 -15 -19 -17 -37 -10 -19 7
-28 4 -42 -11 -21 -24 -31 -23 -159 15 -49 14 -157 35 -240 45 -82 11 -158 22
-167 26 -29 11 -31 -16 -9 -103 32 -122 24 -126 -21 -12 -10 24 -11 24 -18 5
-8 -18 -9 -18 -9 5 -1 34 -34 117 -54 137 -14 15 -20 15 -42 3 -29 -15 -33
-51 -9 -70 30 -25 34 -46 24 -132 -10 -84 -10 -85 29 -184 22 -54 54 -130 72
-169 41 -89 161 -427 185 -522 l18 -73 848 0 848 0 0 1800 0 1800 -2400 0
-2400 0 0 -1800z"/>
<path d="M2660 2221 c-14 -27 -13 -41 5 -41 10 0 15 10 15 30 0 35 -5 38 -20
11z"/>
<path d="M2788 1335 c-20 -65 -19 -82 4 -88 12 -4 23 -5 24 -4 2 1 -3 27 -10
57 -9 40 -14 50 -18 35z"/>
<path d="M3817 1224 c-8 -8 1 -24 14 -24 5 0 9 7 9 15 0 15 -12 20 -23 9z"/>
<path d="M2050 1100 c0 -5 5 -10 11 -10 5 0 7 5 4 10 -3 6 -8 10 -11 10 -2 0
-4 -4 -4 -10z"/>
</g>
</svg>
