<?xml version="1.0" standalone="no"?>
<!DOCTYPE svg PUBLIC "-//W3C//DTD SVG 20010904//EN"
 "http://www.w3.org/TR/2001/REC-SVG-20010904/DTD/svg10.dtd">
<svg version="1.0" xmlns="http://www.w3.org/2000/svg"
 width="480.000000pt" height="360.000000pt" viewBox="0 0 480.000000 360.000000"
 preserveAspectRatio="xMidYMid meet">
<metadata>
Created by potrace 1.16, written by Peter Selinger 2001-2019
</metadata>
<rect width="1" height="360" fill="#000000"/>
<rect x="479" width="1" height="360" fill="#000000"/>
<rect width="480" height="1" fill="#000000"/>
<rect y="359" width="480" height="1" fill="#000000"/>
<g transform="translate(0.000000,360.000000) scale(0.100000,-0.100000)"
fill="#000000" stroke="none">
<path d="M0 1800 l0 -1800 858 0 859 0 11 49 c11 48 10 51 -22 100 -57 84 -58
187 -4 263 16 23 17 34 9 63 -12 43 0 89 31 122 l22 24 -27 25 c-15 14 -27 32
-27 40 0 8 -7 29 -16 46 -13 25 -14 35 -4 54 11 19 9 27 -11 55 l-23 32 22 38
c12 21 22 48 22 61 0 38 25 66 55 61 24 -5 25 -4 25 48 1 75 18 110 60 124 35
12 35 12 41 86 4 41 7 129 8 197 1 120 1 123 26 134 17 8 28 24 36 52 32 127
45 160 76 207 l34 52 -16 141 c-8 78 -20 184 -25 236 -6 52 -20 185 -31 295
-12 110 -19 229 -16 265 4 64 46 203 66 223 15 15 53 -24 90 -92 36 -68 36
-65 56 -595 9 -209 16 -380 18 -381 1 0 14 -9 30 -18 l27 -17 0 805 0 805
-1130 0 -1130 0 0 -1800z"/>
<path d="M2200 1950 c0 -5 9 -14 21 -20 11 -6 24 -21 29 -33 7 -18 9 -14 9 21
1 40 0 42 -29 42 -16 0 -30 -4 -30 -10z"/>
<path d="M2262 1810 c0 -14 2 -19 5 -12 2 6 2 18 0 25 -3 6 -5 1 -5 -13z"/>
<path d="M2236 1707 c-16 -29 -17 -45 -8 -152 9 -115 9 -121 -11 -143 -17 -18
-30 -23 -62 -20 l-40 3 -3 -48 c-4 -53 3 -57 37 -22 25 27 62 41 86 31 13 -5
15 -89 15 -681 l0 -675 216 0 216 0 -27 32 c-27 32 -27 34 -20 128 13 165 11
194 -18 250 -30 57 -32 68 -17 90 9 13 11 13 19 0 18 -26 22 -3 7 33 -16 39
-13 47 18 47 18 0 17 2 -8 29 l-28 29 32 61 c26 48 38 61 56 61 l23 0 -24 52
c-25 53 -24 68 1 68 8 0 14 2 14 4 0 17 -57 124 -72 137 -14 11 -22 34 -27 79
-10 82 -30 99 -115 102 -33 0 -66 2 -73 2 -6 1 -47 35 -89 76 l-78 75 3 193
c2 105 1 192 -1 192 -3 0 -13 -15 -22 -33z m353 -1336 c10 -20 21 -49 25 -65
6 -25 5 -28 -11 -21 -32 14 -97 35 -125 40 -26 5 -27 6 -14 42 13 38 36 57 36
29 0 -24 19 -19 32 9 14 30 30 20 57 -34z"/>
<path d="M1720 348 c-24 -40 -26 -100 -3 -139 22 -36 29 -36 36 -1 18 88 19
148 3 161 -13 11 -18 8 -36 -21z"/>
<path d="M1781 242 c-9 -58 -10 -87 -3 -94 7 -7 12 9 17 53 11 106 1 135 -14
41z"/>
<path d="M1818 208 c-4 -76 2 -111 18 -96 11 12 9 171 -2 175 -8 3 -13 -23
-16 -79z"/>
<path d="M1757 73 c-2 -4 -8 -23 -12 -41 -6 -28 -4 -32 14 -32 20 0 26 14 21
50 -2 20 -16 34 -23 23z"/>
<path d="M1810 16 c0 -9 7 -16 16 -16 17 0 14 22 -4 28 -7 2 -12 -3 -12 -12z"/>
</g>
</svg>
