<?xml version="1.0" standalone="no"?>
<!DOCTYPE svg PUBLIC "-//W3C//DTD SVG 20010904//EN"
 "http://www.w3.org/TR/2001/REC-SVG-20010904/DTD/svg10.dtd">
<svg version="1.0" xmlns="http://www.w3.org/2000/svg"
 width="480.000000pt" height="360.000000pt" viewBox="0 0 480.000000 360.000000"
 preserveAspectRatio="xMidYMid meet">
<metadata>
Created by potrace 1.16, written by Peter Selinger 2001-2019
</metadata>
<rect width="1" height="360" fill="#000000"/>
<rect x="479" width="1" height="360" fill="#000000"/>
<rect width="480" height="1" fill="#000000"/>
<rect y="359" width="480" height="1" fill="#000000"/>
<g transform="translate(0.000000,360.000000) scale(0.100000,-0.100000)"
fill="#000000" stroke="none">
<path d="M1192 3588 c-7 -7 -12 -18 -12 -25 0 -6 -16 -15 -36 -19 -42 -8 -144
-96 -144 -125 0 -31 31 -99 50 -109 24 -13 16 -81 -16 -127 -12 -18 -25 -50
-29 -71 -7 -42 29 -239 51 -284 23 -44 16 -83 -27 -168 -22 -45 -43 -98 -46
-118 -2 -20 -9 -49 -15 -64 -6 -15 -7 -43 -4 -63 5 -27 13 -36 34 -41 15 -3
48 -10 74 -16 l47 -11 10 -62 c24 -136 4 -194 -109 -320 -180 -202 -208 -231
-285 -288 -130 -96 -194 -122 -335 -131 -98 -6 -270 -49 -340 -83 l-55 -28 -3
-171 -2 -172 51 -41 c28 -23 60 -41 70 -41 11 0 19 -5 19 -10 0 -6 19 -30 41
-53 23 -23 74 -83 114 -133 82 -102 117 -134 166 -154 19 -7 50 -26 71 -42 20
-15 56 -35 79 -43 48 -17 46 -17 334 -19 l200 -1 41 27 c23 15 58 30 79 34
l38 7 -7 -43 c-4 -24 1 -100 10 -177 l17 -135 -26 -24 c-43 -40 -53 -112 -31
-221 l4 -23 268 0 267 1 41 52 c23 29 70 94 104 145 34 50 64 92 66 92 8 0 -7
-110 -22 -160 -8 -25 -14 -64 -14 -87 l0 -43 99 0 c82 0 100 3 105 16 3 9 3
71 0 138 -7 136 10 393 30 441 7 16 44 59 81 94 124 115 197 119 150 8 -17
-41 -20 -126 -6 -175 6 -18 29 -61 52 -94 66 -97 76 -129 90 -285 l12 -143
684 0 683 0 7 27 c5 16 7 122 7 238 -1 165 -7 251 -28 400 -14 105 -30 220
-34 258 -11 85 3 503 22 667 44 369 42 520 -8 730 -25 106 -75 241 -100 269
-8 9 -30 51 -51 93 -77 160 -218 254 -425 285 -102 16 -120 16 -238 0 -70 -8
-140 -13 -155 -10 -20 4 -34 0 -50 -15 -12 -11 -46 -30 -74 -42 -66 -28 -161
-126 -228 -236 -26 -43 -63 -103 -81 -131 -19 -29 -34 -55 -34 -58 0 -3 15 5
33 19 19 15 36 26 39 26 4 0 0 -21 -8 -47 -16 -54 -18 -93 -4 -93 6 0 10 -12
11 -27 1 -40 24 -98 38 -98 7 0 19 -9 27 -20 13 -17 16 -18 24 -5 8 13 13 12
31 -7 21 -21 21 -23 5 -47 -9 -14 -27 -33 -41 -42 -32 -21 -32 -54 0 -84 17
-16 25 -34 25 -57 0 -18 4 -41 9 -51 5 -9 18 -35 29 -57 11 -22 23 -55 27 -73
7 -35 30 -52 70 -52 25 0 26 -2 20 -32 -12 -53 -11 -53 -75 -30 -11 4 -10 0 4
-16 10 -12 27 -24 38 -28 18 -5 19 -12 13 -52 -18 -122 -24 -139 -67 -169 -25
-17 -49 -44 -60 -70 -10 -24 -21 -43 -23 -43 -3 0 -26 15 -52 34 -27 18 -100
63 -164 100 -65 37 -122 72 -128 80 -41 49 -33 786 11 1044 13 80 6 110 -36
137 -38 25 -112 22 -142 -6 -35 -32 -37 -52 -18 -127 15 -60 16 -105 10 -412
-7 -385 -14 -510 -29 -510 -29 0 -245 175 -253 205 -3 13 -33 45 -66 71 -80
62 -163 165 -188 232 -18 48 -19 62 -10 145 15 123 36 234 54 288 9 24 16 51
16 59 0 28 63 179 77 184 7 3 42 -1 76 -8 107 -24 224 -39 242 -32 14 5 16 14
12 43 -4 20 -2 44 4 55 6 10 7 27 4 37 -5 15 -13 18 -50 13 -53 -6 -230 25
-244 42 -16 19 -2 106 16 106 8 0 41 -7 72 -15 89 -23 236 -44 413 -60 89 -8
204 -19 254 -26 50 -7 103 -9 118 -5 23 6 25 9 13 27 -10 17 -9 22 6 33 23 17
8 30 -65 55 -41 14 -85 19 -179 20 -142 1 -314 15 -444 38 -97 16 -271 68
-280 83 -3 5 -1 19 5 30 10 18 8 20 -19 20 -28 0 -30 3 -37 48 -10 72 -33 169
-50 213 l-16 39 -192 0 c-136 0 -196 -4 -204 -12z m1788 -1918 c0 -16 -4 -30
-10 -30 -5 0 -10 14 -10 30 0 17 5 30 10 30 6 0 10 -13 10 -30z"/>
</g>
</svg>
