<?xml version="1.0" standalone="no"?>
<!DOCTYPE svg PUBLIC "-//W3C//DTD SVG 20010904//EN"
 "http://www.w3.org/TR/2001/REC-SVG-20010904/DTD/svg10.dtd">
<svg version="1.0" xmlns="http://www.w3.org/2000/svg"
 width="480.000000pt" height="360.000000pt" viewBox="0 0 480.000000 360.000000"
 preserveAspectRatio="xMidYMid meet">
<metadata>
Created by potrace 1.16, written by Peter Selinger 2001-2019
</metadata>
<rect width="1" height="360" fill="#000000"/>
<rect x="479" width="1" height="360" fill="#000000"/>
<rect width="480" height="1" fill="#000000"/>
<rect y="359" width="480" height="1" fill="#000000"/>
<g transform="translate(0.000000,360.000000) scale(0.100000,-0.100000)"
fill="#000000" stroke="none">
<path d="M0 2274 c0 -1258 1 -1325 18 -1320 9 3 31 8 47 12 17 4 50 16 75 27
30 13 81 23 150 28 237 18 237 18 222 74 -6 23 -16 31 -38 35 -25 5 -29 10
-28 35 0 17 8 57 18 90 23 81 34 255 16 255 -10 0 -11 15 -6 64 4 42 3 67 -4
71 -6 4 -15 17 -20 30 -9 23 -2 49 37 135 32 71 64 180 57 191 -11 19 18 201
35 218 9 9 36 23 60 31 40 13 46 12 80 -6 31 -16 55 -48 87 -112 4 -7 -2 -23
-13 -35 -20 -22 -21 -47 -15 -218 2 -58 9 -71 86 -165 27 -33 34 -68 15 -79
-5 -4 -31 -10 -57 -14 l-47 -7 2 -39 c2 -67 53 -276 86 -353 36 -87 30 -101
-33 -73 -24 11 -47 18 -51 15 -4 -2 -10 -17 -14 -34 -5 -21 -1 -37 16 -59 13
-17 29 -31 36 -31 7 0 13 -4 13 -9 0 -11 -66 -26 -175 -41 -44 -6 -134 -22
-200 -35 -184 -36 -272 -47 -368 -43 l-87 3 0 -457 0 -458 938 0 937 0 41 38
c29 26 60 75 103 160 33 67 61 128 61 135 0 7 58 82 130 167 71 85 130 159
130 164 0 4 -7 5 -15 2 -9 -3 -68 -22 -133 -41 -176 -54 -165 -48 -159 -101 2
-25 1 -42 -3 -37 -5 4 -10 24 -12 43 -2 25 -7 34 -18 31 -8 -2 -43 -6 -77 -8
-56 -5 -63 -4 -88 21 -30 30 -27 41 12 50 16 4 65 18 111 32 l83 25 -25 30
c-21 24 -24 34 -16 50 13 23 43 25 64 3 21 -20 20 -41 -1 -53 -31 -17 -5 -25
38 -12 23 7 112 40 199 73 l158 60 26 49 27 49 -23 9 c-55 20 -65 21 -78 6
-29 -35 -86 -4 -78 42 2 13 -32 31 -147 80 -82 35 -165 70 -183 78 -26 11 -33
20 -30 37 5 33 32 33 101 0 34 -16 111 -48 170 -72 l108 -43 20 22 c28 30 60
24 79 -16 14 -29 71 -63 107 -63 16 0 98 88 120 128 l18 34 -27 22 -28 21 24
48 c16 31 27 73 31 125 4 42 13 91 21 109 19 41 18 46 -11 73 -31 29 -34 90
-6 136 20 33 13 64 -15 64 -11 0 -13 6 -9 20 9 29 -12 50 -49 50 -20 0 -43 11
-65 31 -33 31 -34 32 -28 95 l6 64 -57 0 c-279 -1 -1132 -55 -1252 -80 -73
-15 -83 -14 -69 11 24 46 194 89 424 108 72 6 182 15 245 21 63 5 183 12 265
15 83 3 215 7 295 10 211 8 230 12 242 46 10 29 23 38 30 19 2 -5 25 1 52 15
27 14 57 25 67 25 10 0 54 14 99 30 85 31 153 39 166 18 4 -7 7 -33 5 -58 -3
-57 11 -71 76 -75 27 -2 68 -9 93 -15 25 -6 58 -11 73 -11 40 1 97 -56 97 -96
0 -27 -24 -110 -51 -180 -10 -26 -12 -27 -19 -8 -5 11 -9 66 -9 121 -1 90 -3
102 -19 106 -28 8 -65 -13 -102 -54 l-32 -38 21 -26 c12 -15 21 -38 21 -52 0
-14 8 -50 17 -79 17 -54 17 -55 -7 -101 -14 -26 -49 -71 -79 -99 l-53 -53 7
-193 c3 -106 10 -206 13 -223 l7 -31 210 93 c115 52 210 94 212 94 10 0 53
-104 46 -111 -8 -8 -97 -46 -388 -166 -60 -25 -113 -49 -118 -52 -4 -4 2 -35
14 -69 l21 -62 95 -30 c52 -17 181 -53 287 -81 257 -67 263 -71 211 -105 -20
-13 -39 -15 -90 -10 -69 7 -239 49 -376 92 -44 14 -83 24 -85 21 -8 -8 60
-100 130 -175 39 -42 94 -104 121 -137 28 -33 69 -78 93 -99 31 -29 42 -46 42
-68 0 -71 -103 -201 -178 -224 -29 -9 125 -12 706 -13 l742 -1 0 1800 0 1800
-695 0 c-539 0 -700 -3 -715 -12 -17 -11 -22 -10 -29 0 -5 9 -29 12 -80 10
l-71 -3 64 -107 c166 -276 301 -441 396 -485 166 -77 248 -120 331 -176 197
-133 245 -163 274 -173 33 -10 45 -45 25 -70 -32 -37 -134 -1 -291 103 -86 57
-123 74 -190 92 -197 51 -240 65 -305 101 -81 45 -206 151 -285 241 -66 76
-160 202 -182 245 -28 54 -41 60 -100 41 -118 -37 -132 -39 -198 -34 -82 7
-151 40 -202 96 -40 44 -80 115 -70 125 4 3 -552 6 -1235 6 l-1242 0 0 -1326z
m4466 1229 c-11 -11 -19 6 -11 24 8 17 8 17 12 0 3 -10 2 -21 -1 -24z m250
-2000 c-10 -10 -19 5 -10 18 6 11 8 11 12 0 2 -7 1 -15 -2 -18z"/>
<path d="M580 1116 c0 -3 8 -21 17 -41 15 -32 20 -35 60 -35 l44 0 -3 38 -3
37 -57 3 c-32 2 -58 1 -58 -2z"/>
<path d="M2107 66 c-26 -30 -47 -57 -47 -60 0 -3 78 -6 173 -5 118 0 165 3
148 10 -13 5 -35 18 -50 28 -17 13 -36 17 -54 14 -22 -4 -29 -1 -33 13 -5 19
-55 54 -78 54 -7 0 -33 -24 -59 -54z"/>
<path d="M2425 10 c-3 -5 3 -10 15 -10 12 0 18 5 15 10 -3 6 -10 10 -15 10 -5
0 -12 -4 -15 -10z"/>
</g>
</svg>
