<?xml version="1.0" standalone="no"?>
<!DOCTYPE svg PUBLIC "-//W3C//DTD SVG 20010904//EN"
 "http://www.w3.org/TR/2001/REC-SVG-20010904/DTD/svg10.dtd">
<svg version="1.0" xmlns="http://www.w3.org/2000/svg"
 width="480.000000pt" height="360.000000pt" viewBox="0 0 480.000000 360.000000"
 preserveAspectRatio="xMidYMid meet">
<metadata>
Created by potrace 1.16, written by Peter Selinger 2001-2019
</metadata>
<rect width="1" height="360" fill="#000000"/>
<rect x="479" width="1" height="360" fill="#000000"/>
<rect width="480" height="1" fill="#000000"/>
<rect y="359" width="480" height="1" fill="#000000"/>
<g transform="translate(0.000000,360.000000) scale(0.100000,-0.100000)"
fill="#000000" stroke="none">
<path d="M2503 3362 c-45 -42 -86 -87 -92 -98 -8 -17 -5 -39 11 -95 l22 -73
-34 -25 c-83 -64 -150 -135 -175 -189 -69 -144 -83 -274 -40 -360 14 -28 25
-54 25 -60 0 -5 6 -12 14 -15 7 -3 16 -18 19 -34 6 -30 39 -75 53 -72 10 2 31
-5 82 -27 35 -15 37 -13 21 18 -17 32 -2 33 25 2 32 -37 32 -62 1 -108 -14
-20 -25 -41 -25 -46 0 -4 21 -16 46 -26 34 -13 49 -25 56 -46 6 -15 14 -28 20
-28 5 0 38 -30 73 -66 48 -50 69 -65 87 -62 13 2 30 -5 38 -14 14 -17 18 -16
55 17 l40 35 9 -45 8 -46 -88 -84 c-66 -62 -96 -84 -116 -85 -40 0 -96 -53
-104 -98 -4 -21 -20 -52 -39 -72 -46 -49 -55 -71 -55 -134 0 -30 -6 -70 -14
-88 -7 -18 -18 -51 -24 -73 -18 -72 -63 -190 -77 -204 -12 -12 -18 -4 -45 55
-18 38 -53 116 -80 174 -26 58 -56 139 -65 180 -10 41 -30 103 -46 137 -15 35
-24 65 -20 67 4 3 81 18 171 35 201 37 243 49 234 63 -8 12 -167 5 -337 -16
l-108 -14 -65 34 c-76 40 -129 44 -167 14 -14 -11 -31 -20 -37 -20 -7 0 -26
-15 -44 -34 -58 -64 -70 -58 -155 86 -82 136 -99 150 -159 127 -15 -7 -47 -11
-72 -10 -40 2 -50 -3 -79 -33 l-34 -35 107 -180 c97 -162 107 -182 101 -214
-5 -25 0 -52 19 -99 14 -35 26 -79 26 -96 0 -31 53 -186 71 -209 6 -6 35 -19
64 -28 30 -8 57 -20 60 -25 3 -5 54 -35 113 -66 175 -93 200 -111 212 -153 17
-64 63 -123 189 -240 67 -63 126 -122 132 -132 14 -28 -8 -107 -40 -145 -16
-17 -34 -54 -41 -82 -10 -45 -9 -55 9 -97 12 -26 21 -60 21 -76 l0 -29 650 0
c623 0 650 1 650 18 0 45 -111 174 -152 176 -20 1 -24 8 -31 56 -26 177 -35
311 -33 458 3 150 2 165 -17 188 -16 21 -27 25 -54 22 -34 -4 -35 -3 -29 26 8
38 12 42 30 27 18 -15 133 -26 180 -17 31 6 36 10 31 27 -6 17 -1 19 55 19 59
0 60 0 54 25 -6 24 -5 25 49 25 62 0 90 7 81 21 -9 15 27 99 42 99 10 0 14
-14 14 -44 0 -46 16 -69 31 -45 19 31 19 -3 1 -63 -28 -88 -38 -173 -22 -183
8 -5 17 -1 22 10 6 9 24 31 40 49 22 23 28 26 23 11 -3 -11 -13 -68 -21 -127
-16 -126 -10 -160 25 -125 10 10 11 -6 5 -80 -5 -69 -4 -96 6 -108 11 -14 16
-12 42 17 l29 33 -6 -35 c-15 -83 -17 -128 -7 -134 6 -3 31 10 57 30 26 19 48
34 50 32 2 -2 -3 -32 -11 -67 -16 -67 -13 -96 10 -88 9 4 12 -2 8 -19 -2 -14
0 -24 7 -24 7 0 9 -6 6 -12 -4 -7 7 2 24 20 23 24 31 28 31 15 0 -28 16 -2 30
49 7 26 20 53 28 60 13 11 15 10 9 -5 -13 -34 -37 -141 -50 -227 -12 -69 -12
-87 -1 -97 10 -10 84 -13 333 -13 l321 0 0 819 0 819 -77 17 c-43 9 -102 24
-132 32 -111 31 -327 184 -470 332 -56 58 -186 227 -210 274 -8 15 -18 27 -22
27 -3 0 -18 -25 -33 -55 -14 -31 -33 -58 -42 -62 -9 -3 -39 -42 -68 -87 -29
-45 -59 -88 -67 -96 -8 -8 -60 -68 -116 -132 -91 -103 -159 -168 -201 -192 -8
-5 -23 1 -38 15 -28 26 -31 71 -13 176 10 57 13 63 35 63 14 0 36 -11 50 -25
l25 -25 6 32 c5 27 7 29 14 13 7 -18 8 -18 8 3 1 12 8 25 17 29 13 5 15 15 10
49 -3 24 -1 46 4 49 5 3 10 -7 12 -22 4 -31 28 -44 28 -14 0 27 17 36 37 19
15 -12 14 -10 0 19 -20 38 -22 65 -4 62 35 -4 39 1 18 34 -11 18 -19 43 -18
55 1 19 5 22 29 17 34 -8 35 -4 3 43 -26 38 -16 61 10 26 8 -11 15 -16 15 -13
0 13 -63 134 -86 165 -33 45 -50 91 -88 244 -48 197 -69 235 -196 361 -117
115 -188 159 -291 179 l-56 11 -16 59 c-10 36 -24 63 -36 69 -25 14 -194 51
-228 51 -21 0 -49 -20 -110 -78z m735 -1494 l3 -33 -22 22 c-19 18 -20 24 -10
37 18 21 26 14 29 -26z m-1442 -400 c9 -18 34 -52 55 -75 63 -69 95 -159 38
-108 -19 18 -112 164 -125 198 -11 31 15 18 32 -15z m1909 -368 c3 -6 -1 -7
-9 -4 -18 7 -21 14 -7 14 6 0 13 -4 16 -10z m-456 -357 c14 -94 24 -333 13
-333 -19 0 -62 135 -62 192 0 72 20 208 30 208 5 0 13 -30 19 -67z m1343 -530
c-3 -16 -7 -22 -10 -15 -4 13 4 42 11 42 2 0 2 -12 -1 -27z"/>
</g>
</svg>
