<?xml version="1.0" standalone="no"?>
<!DOCTYPE svg PUBLIC "-//W3C//DTD SVG 20010904//EN"
 "http://www.w3.org/TR/2001/REC-SVG-20010904/DTD/svg10.dtd">
<svg version="1.0" xmlns="http://www.w3.org/2000/svg"
 width="480.000000pt" height="360.000000pt" viewBox="0 0 480.000000 360.000000"
 preserveAspectRatio="xMidYMid meet">
<metadata>
Created by potrace 1.16, written by Peter Selinger 2001-2019
</metadata>
<rect width="1" height="360" fill="#000000"/>
<rect x="479" width="1" height="360" fill="#000000"/>
<rect width="480" height="1" fill="#000000"/>
<rect y="359" width="480" height="1" fill="#000000"/>
<g transform="translate(0.000000,360.000000) scale(0.100000,-0.100000)"
fill="#000000" stroke="none">
<path d="M0 1800 l0 -1800 1035 0 c683 0 1035 3 1035 10 0 6 -4 10 -9 10 -19
0 -23 41 -7 59 16 17 12 24 -61 107 -113 128 -116 134 -96 156 15 17 12 24
-49 115 -88 134 -91 139 -77 161 10 15 1 39 -50 141 -49 99 -59 126 -49 138
13 16 13 15 -48 181 -27 71 -32 97 -24 112 6 11 7 28 1 42 -17 47 -52 232 -47
251 2 11 0 56 -5 101 -16 128 -11 505 7 620 9 54 14 112 11 129 -2 17 12 84
33 156 26 92 34 133 27 148 -7 15 4 49 43 144 40 97 49 128 41 141 -14 22 -7
38 67 168 55 96 59 107 45 122 -18 20 -23 10 81 157 63 90 78 121 56 121 -18
0 -11 36 11 56 11 10 25 27 30 36 9 17 -39 18 -996 18 l-1005 0 0 -1800z"/>
<path d="M2561 3508 c46 -50 116 -126 154 -168 167 -184 383 -420 445 -485 37
-38 113 -122 170 -185 57 -63 135 -149 174 -190 39 -41 127 -137 195 -212 68
-76 126 -138 128 -138 3 0 51 7 107 16 118 19 160 34 188 69 25 32 94 66 116
58 9 -4 29 -15 44 -25 32 -22 58 -22 190 -3 126 19 229 23 286 12 l42 -9 0
676 0 676 -1161 0 -1161 0 83 -92z"/>
<path d="M4725 1528 c-33 -27 -103 -75 -155 -105 -52 -31 -120 -71 -152 -89
-31 -19 -65 -34 -76 -34 -12 0 -23 -9 -27 -19 -10 -31 -27 -40 -116 -57 -136
-26 -194 -7 -205 68 l-7 38 -81 0 c-44 0 -91 3 -103 6 -18 5 -29 -6 -72 -68
-62 -90 -272 -399 -446 -656 -71 -105 -194 -287 -273 -402 l-143 -210 965 0
966 0 0 790 c0 435 -3 790 -7 789 -5 0 -35 -23 -68 -51z"/>
</g>
</svg>
