<?xml version="1.0" standalone="no"?>
<!DOCTYPE svg PUBLIC "-//W3C//DTD SVG 20010904//EN"
 "http://www.w3.org/TR/2001/REC-SVG-20010904/DTD/svg10.dtd">
<svg version="1.0" xmlns="http://www.w3.org/2000/svg"
 width="480.000000pt" height="360.000000pt" viewBox="0 0 480.000000 360.000000"
 preserveAspectRatio="xMidYMid meet">
<metadata>
Created by potrace 1.16, written by Peter Selinger 2001-2019
</metadata>
<rect width="1" height="360" fill="#000000"/>
<rect x="479" width="1" height="360" fill="#000000"/>
<rect width="480" height="1" fill="#000000"/>
<rect y="359" width="480" height="1" fill="#000000"/>
<g transform="translate(0.000000,360.000000) scale(0.100000,-0.100000)"
fill="#000000" stroke="none">
<path d="M0 2961 l0 -640 63 18 c125 36 220 44 492 38 305 -6 525 -36 803
-112 51 -14 100 -25 107 -25 7 0 16 14 20 30 10 44 46 82 103 109 47 22 50 26
60 72 5 27 6 51 3 53 -3 2 -28 7 -56 11 -27 4 -54 11 -60 15 -5 5 -21 10 -34
12 -13 1 -29 11 -35 20 -26 41 49 121 201 212 35 20 65 41 67 45 9 14 69 256
72 289 5 58 42 118 101 163 62 46 190 106 243 112 19 3 49 12 65 20 45 23 224
57 302 57 38 0 94 -7 124 -16 57 -17 81 -38 229 -201 l65 -71 90 10 c170 19
295 1 335 -47 34 -40 -57 -127 -225 -215 -44 -23 -81 -45 -83 -49 -2 -7 59
-139 117 -253 23 -45 9 -50 -32 -10 l-30 27 6 -49 c2 -26 1 -65 -5 -85 -17
-66 -18 -68 -32 -43 l-12 23 -21 -23 c-11 -13 -25 -32 -31 -43 -6 -11 -12 -14
-12 -7 0 6 -6 12 -12 12 -19 -1 -78 -58 -78 -75 0 -23 24 -67 49 -89 25 -23
18 -35 -41 -72 -24 -15 -38 -32 -38 -45 0 -11 -11 -31 -24 -43 -20 -21 -24
-37 -28 -118 -7 -116 -36 -197 -82 -233 -18 -14 -40 -25 -49 -25 -10 0 -17 -4
-17 -8 0 -5 79 -56 176 -113 96 -57 189 -113 206 -123 28 -18 32 -18 58 -3 40
24 45 22 98 -27 26 -24 56 -46 68 -50 12 -4 34 -20 50 -36 16 -17 45 -37 64
-46 19 -8 46 -26 60 -38 14 -13 44 -33 67 -45 44 -22 57 -45 48 -83 -5 -20 10
-36 113 -121 66 -53 152 -126 192 -162 62 -55 78 -65 110 -65 35 0 70 -23 70
-46 0 -5 21 -16 48 -24 39 -12 49 -20 56 -47 7 -22 18 -34 35 -38 36 -9 51
-24 51 -50 0 -12 9 -33 21 -46 15 -18 19 -32 14 -57 -5 -29 1 -41 63 -120 80
-102 184 -245 231 -319 l33 -53 94 0 94 0 0 1800 0 1800 -2400 0 -2400 0 0
-639z"/>
<path d="M320 2123 c-83 -8 -170 -26 -242 -50 l-78 -26 0 -1023 0 -1024 990 0
990 0 0 43 c0 23 -7 184 -15 357 -7 173 -17 407 -20 520 -7 269 -15 371 -26
364 -5 -3 -9 -14 -9 -25 0 -21 -16 -26 -23 -6 -3 6 -8 -3 -12 -20 -4 -18 -11
-33 -16 -33 -29 0 29 371 75 481 6 13 -3 17 -52 21 -35 4 -80 17 -113 33 -52
27 -174 120 -213 164 -22 24 -90 51 -235 92 -365 103 -766 156 -1001 132z"/>
<path d="M2863 1249 c-1 -12 16 -57 38 -101 43 -89 46 -103 24 -94 -17 6 -20
-11 -5 -34 7 -12 12 -12 22 -2 9 9 12 38 10 95 -3 105 -5 109 -50 135 -38 21
-38 21 -39 1z"/>
<path d="M3413 817 l-31 -42 54 -58 c30 -32 54 -64 54 -71 0 -8 -30 -45 -66
-84 l-65 -71 27 -7 c28 -7 220 2 274 13 24 4 39 18 61 52 16 25 28 53 28 61 0
21 -271 250 -295 250 -6 0 -24 -19 -41 -43z"/>
<path d="M4053 257 c-10 -12 -37 -37 -61 -55 -24 -20 -44 -45 -47 -60 -6 -28
-22 -94 -31 -124 -5 -17 9 -18 195 -18 l201 0 -47 63 c-75 99 -174 217 -183
217 -5 0 -17 -10 -27 -23z"/>
<path d="M2938 83 c-24 -32 -48 -64 -52 -70 -6 -10 66 -13 346 -12 l353 1 -50
23 c-80 38 -211 72 -362 94 -194 29 -183 31 -235 -36z"/>
</g>
</svg>
