<?xml version="1.0" standalone="no"?>
<!DOCTYPE svg PUBLIC "-//W3C//DTD SVG 20010904//EN"
 "http://www.w3.org/TR/2001/REC-SVG-20010904/DTD/svg10.dtd">
<svg version="1.0" xmlns="http://www.w3.org/2000/svg"
 width="480.000000pt" height="360.000000pt" viewBox="0 0 480.000000 360.000000"
 preserveAspectRatio="xMidYMid meet">
<metadata>
Created by potrace 1.16, written by Peter Selinger 2001-2019
</metadata>
<rect width="1" height="360" fill="#000000"/>
<rect x="479" width="1" height="360" fill="#000000"/>
<rect width="480" height="1" fill="#000000"/>
<rect y="359" width="480" height="1" fill="#000000"/>
<g transform="translate(0.000000,360.000000) scale(0.100000,-0.100000)"
fill="#000000" stroke="none">
<path d="M910 3537 c-137 -80 -246 -153 -400 -268 -109 -80 -265 -203 -280
-219 -3 -3 -56 -46 -117 -95 l-113 -90 0 -1432 0 -1433 1488 0 1487 0 95 87
c559 513 828 830 995 1168 186 379 239 773 154 1159 -27 120 -99 366 -149 506
-77 213 -92 265 -97 335 -5 67 -4 73 23 104 l28 34 -36 -7 c-51 -9 -109 6
-287 76 -86 34 -201 78 -256 100 l-100 38 -1165 0 -1165 -1 -105 -62z m1723
-1177 c200 -98 228 -115 248 -148 34 -54 146 -208 201 -275 73 -89 77 -99 66
-192 -9 -73 -3 -180 19 -351 5 -42 4 -42 -54 -82 -106 -73 -185 -174 -189
-241 -2 -46 -33 -71 -142 -116 -148 -60 -283 -80 -352 -51 -24 10 -43 11 -69
4 -142 -37 -276 -35 -363 4 -61 28 -124 80 -133 109 -4 10 -9 19 -13 19 -6 0
-49 -64 -148 -220 -72 -114 -95 -148 -116 -172 -12 -14 -32 -38 -42 -53 -25
-34 -46 -44 -120 -62 -120 -28 -115 -28 -149 5 l-32 31 -25 -19 c-51 -40 -106
-13 -97 46 5 31 4 32 -39 43 -24 6 -44 16 -44 21 0 6 -20 19 -45 30 -25 11
-45 25 -45 31 0 7 -16 26 -37 43 -35 31 -36 33 -35 102 1 42 -5 87 -15 116
-16 44 -15 50 2 107 11 36 16 74 12 95 -4 23 -1 39 8 46 7 6 30 40 51 76 53
91 77 106 174 109 69 3 84 7 124 34 53 37 96 75 96 86 0 4 -12 5 -27 2 -26 -5
-26 -4 -8 9 13 10 15 14 4 14 -14 1 5 19 41 40 13 8 12 11 -4 23 -18 13 -18
14 6 33 l25 19 -18 52 c-31 90 -34 154 -10 200 13 26 29 43 45 47 34 8 76 65
83 113 3 21 17 51 31 68 14 16 33 48 42 70 19 44 86 111 92 93 5 -15 83 13
127 45 16 12 52 38 78 57 l48 35 180 5 c99 3 217 7 262 8 l81 2 225 -110z"/>
<path d="M1624 2279 c-23 -11 -44 -29 -47 -40 -3 -10 -3 -19 -1 -19 6 0 114
72 114 76 0 9 -29 2 -66 -17z"/>
<path d="M1428 1984 c-68 -64 -78 -82 -78 -141 0 -60 13 -100 41 -126 18 -17
19 -17 30 10 7 15 18 42 25 58 24 56 35 120 32 182 l-3 62 -47 -45z"/>
<path d="M1887 1092 c-58 -65 155 -205 298 -197 11 1 33 2 49 3 l29 2 -24 26
c-37 40 -165 124 -228 149 -86 34 -106 37 -124 17z"/>
<path d="M2550 980 c-101 -24 -120 -31 -120 -41 0 -14 68 -22 128 -15 56 6
119 23 177 46 28 11 28 13 10 20 -33 14 -115 9 -195 -10z"/>
</g>
</svg>
