<?xml version="1.0" standalone="no"?>
<!DOCTYPE svg PUBLIC "-//W3C//DTD SVG 20010904//EN"
 "http://www.w3.org/TR/2001/REC-SVG-20010904/DTD/svg10.dtd">
<svg version="1.0" xmlns="http://www.w3.org/2000/svg"
 width="480.000000pt" height="360.000000pt" viewBox="0 0 480.000000 360.000000"
 preserveAspectRatio="xMidYMid meet">
<metadata>
Created by potrace 1.16, written by Peter Selinger 2001-2019
</metadata>
<rect width="1" height="360" fill="#000000"/>
<rect x="479" width="1" height="360" fill="#000000"/>
<rect width="480" height="1" fill="#000000"/>
<rect y="359" width="480" height="1" fill="#000000"/>
<g transform="translate(0.000000,360.000000) scale(0.100000,-0.100000)"
fill="#000000" stroke="none">
<path d="M644 3583 c3 -10 15 -49 26 -86 12 -37 45 -121 73 -185 l52 -117 0
-249 c0 -157 -4 -250 -10 -251 -83 -23 -129 -43 -170 -74 -27 -20 -79 -55
-115 -77 -94 -57 -140 -106 -140 -148 0 -19 4 -37 9 -40 17 -11 64 -100 89
-166 13 -36 30 -81 37 -100 8 -19 14 -54 15 -76 0 -43 29 -119 30 -79 1 18 2
17 15 -5 8 -14 14 -33 15 -42 0 -32 18 -19 25 18 8 43 20 35 34 -21 8 -35 10
-37 16 -17 9 28 21 28 36 1 6 -11 36 -32 66 -46 52 -24 58 -25 116 -13 34 7
83 24 109 37 35 17 64 23 111 23 58 0 67 -3 103 -34 106 -91 214 -115 354 -81
114 28 149 68 174 197 19 99 49 171 94 226 35 42 35 44 12 38 -36 -11 -140
-64 -175 -91 -53 -39 -68 -39 -90 1 l-19 35 88 87 c96 93 146 177 146 242 -1
44 -14 66 -72 118 -39 36 -54 44 -100 48 -74 7 -98 13 -98 23 0 5 19 41 42 81
39 68 41 73 24 85 -17 13 -17 18 -2 90 21 100 22 224 1 231 -8 3 -17 26 -21
50 -4 30 -11 44 -21 44 -13 0 -14 10 -10 55 5 54 5 55 -19 49 -21 -5 -24 -3
-24 19 0 18 -7 27 -25 31 -24 6 -25 11 -24 59 1 29 -4 69 -10 90 l-13 37 -379
0 c-358 0 -380 -1 -375 -17z m619 -333 c-3 -11 -9 -23 -14 -26 -10 -6 -12 39
-3 49 12 12 22 -3 17 -23z m-295 -746 c28 -4 52 -11 52 -15 0 -5 -7 -9 -15 -9
-8 0 -19 -9 -25 -21 -7 -11 -14 -18 -17 -15 -10 9 -58 -34 -63 -57 -4 -15 -16
-24 -35 -27 -22 -4 -35 -15 -50 -45 -12 -22 -30 -44 -41 -49 -10 -5 -35 -29
-53 -53 l-34 -44 -12 34 c-7 20 -24 56 -39 80 l-26 46 22 15 c12 9 26 16 30
16 17 0 128 72 167 109 45 43 53 45 139 35z"/>
<path d="M3550 1800 l0 -1800 429 0 430 0 55 83 c31 46 63 103 71 127 17 49
20 94 5 85 -13 -8 -13 -2 1 28 13 28 -4 128 -25 149 -8 9 -12 46 -11 112 1 72
-2 99 -12 103 -9 4 -13 32 -13 103 0 76 -5 109 -20 144 -19 46 -19 47 0 66 11
11 25 20 30 20 21 0 76 -28 106 -53 32 -27 68 -35 79 -17 3 5 33 17 65 26 l60
17 0 1303 0 1304 -625 0 -625 0 0 -1800z"/>
</g>
</svg>
