<?xml version="1.0" standalone="no"?>
<!DOCTYPE svg PUBLIC "-//W3C//DTD SVG 20010904//EN"
 "http://www.w3.org/TR/2001/REC-SVG-20010904/DTD/svg10.dtd">
<svg version="1.0" xmlns="http://www.w3.org/2000/svg"
 width="480.000000pt" height="360.000000pt" viewBox="0 0 480.000000 360.000000"
 preserveAspectRatio="xMidYMid meet">
<metadata>
Created by potrace 1.16, written by Peter Selinger 2001-2019
</metadata>
<rect width="1" height="360" fill="#000000"/>
<rect x="479" width="1" height="360" fill="#000000"/>
<rect width="480" height="1" fill="#000000"/>
<rect y="359" width="480" height="1" fill="#000000"/>
<g transform="translate(0.000000,360.000000) scale(0.100000,-0.100000)"
fill="#000000" stroke="none">
<path d="M0 2795 c0 -675 2 -805 14 -805 96 0 1296 89 1686 126 220 20 722 74
736 78 9 4 38 133 34 153 -1 5 -39 20 -86 34 -46 15 -91 32 -99 39 -9 7 -57
17 -106 21 -69 5 -103 14 -142 34 -43 22 -59 25 -98 20 -30 -4 -70 -1 -114 10
-89 23 -173 17 -193 -13 -16 -24 -44 -29 -59 -9 -14 18 -15 85 -2 139 6 29 31
75 60 114 55 75 67 103 48 115 -7 4 -16 6 -20 3 -10 -6 -17 54 -7 68 4 7 8 25
8 40 0 37 89 167 170 248 61 60 125 106 430 306 36 23 74 52 84 63 l19 21
-531 0 c-293 0 -532 -3 -532 -7 0 -5 11 -44 25 -88 32 -102 31 -123 -5 -194
-55 -110 -73 -176 -73 -275 0 -157 52 -249 160 -283 29 -9 53 -20 53 -25 0 -4
-27 -8 -60 -8 -214 0 -358 253 -309 538 14 82 2 145 -52 260 l-38 82 -501 0
-500 0 0 -805z"/>
<path d="M3000 3594 c0 -3 26 -42 59 -87 75 -104 90 -136 84 -170 -5 -23 -13
-30 -49 -39 -36 -10 -43 -15 -39 -32 7 -27 10 -172 7 -313 -2 -102 -4 -115
-24 -135 -13 -13 -32 -36 -43 -53 -13 -19 -29 -30 -44 -30 -40 0 -59 -40 -72
-149 -6 -54 -9 -127 -6 -162 4 -58 3 -63 -17 -66 -11 -2 -27 -15 -34 -30 -7
-15 -21 -30 -32 -33 -19 -6 -30 -55 -12 -55 11 1 223 36 357 60 121 22 290 59
660 145 110 25 288 67 395 91 107 25 288 71 403 102 l207 57 0 452 0 453 -900
0 c-495 0 -900 -3 -900 -6z"/>
<path d="M4750 1483 c-89 -115 -268 -311 -420 -460 -169 -167 -198 -187 -395
-258 -55 -20 -113 -43 -130 -50 -16 -7 -61 -23 -98 -35 -44 -14 -93 -41 -134
-72 -191 -146 -357 -199 -803 -253 -113 -14 -239 -33 -280 -41 -41 -9 -133
-26 -204 -38 -120 -21 -134 -22 -220 -8 -73 11 -117 11 -221 3 -257 -22 -301
-22 -427 -6 -360 47 -898 197 -1188 330 -69 31 -149 68 -177 81 l-53 24 0
-350 0 -350 2400 0 2400 0 0 770 c0 424 -1 770 -3 770 -1 0 -22 -26 -47 -57z"/>
</g>
</svg>
