<?xml version="1.0" standalone="no"?>
<!DOCTYPE svg PUBLIC "-//W3C//DTD SVG 20010904//EN"
 "http://www.w3.org/TR/2001/REC-SVG-20010904/DTD/svg10.dtd">
<svg version="1.0" xmlns="http://www.w3.org/2000/svg"
 width="480.000000pt" height="360.000000pt" viewBox="0 0 480.000000 360.000000"
 preserveAspectRatio="xMidYMid meet">
<metadata>
Created by potrace 1.16, written by Peter Selinger 2001-2019
</metadata>
<rect width="1" height="360" fill="#000000"/>
<rect x="479" width="1" height="360" fill="#000000"/>
<rect width="480" height="1" fill="#000000"/>
<rect y="359" width="480" height="1" fill="#000000"/>
<g transform="translate(0.000000,360.000000) scale(0.100000,-0.100000)"
fill="#000000" stroke="none">
<path d="M0 1800 l0 -1800 984 0 985 0 5 43 c12 96 47 337 61 411 12 62 13 98
5 160 -7 62 -6 96 4 146 12 56 12 74 0 128 -8 35 -12 67 -9 72 27 44 -90 -48
-160 -126 -51 -57 -61 -64 -95 -64 -44 0 -62 -18 -79 -80 -7 -25 -25 -67 -39
-95 -38 -76 -44 -110 -21 -139 26 -34 24 -39 -16 -34 -27 3 -32 1 -23 -9 17
-20 -4 -35 -37 -27 -17 4 -32 18 -41 38 l-15 31 5 -30 c2 -16 7 -40 11 -52 11
-34 -17 -29 -55 8 -23 24 -31 40 -30 63 3 56 -2 52 -10 -7 -8 -65 -18 -81 -43
-71 -23 8 -22 95 2 194 18 75 18 75 -3 85 -38 19 -30 42 37 107 74 72 147 163
147 184 0 7 11 21 24 29 13 9 27 27 30 40 5 18 24 34 69 56 75 38 203 120 275
178 49 39 53 45 46 74 -3 18 -22 64 -42 102 -54 107 -56 182 -9 328 39 122 73
237 81 279 8 37 77 121 129 157 25 17 47 37 50 46 8 19 2 19 -34 -2 -24 -14
-33 -15 -47 -5 -9 7 -38 26 -64 42 -25 17 -48 37 -51 44 -3 8 -19 17 -36 21
-34 7 -38 20 -16 49 36 47 -2 87 -70 75 -33 -6 -46 -3 -77 18 -23 15 -39 36
-43 54 -7 30 -25 40 -25 15 0 -8 -4 -17 -8 -20 -21 -13 20 283 45 322 8 13 30
41 49 62 l35 39 -31 71 c-17 40 -29 74 -26 78 8 7 72 32 103 39 13 3 34 -2 49
-12 14 -9 28 -15 30 -12 3 2 0 44 -6 92 -6 48 -9 89 -6 92 2 2 20 -10 39 -27
l35 -30 7 49 c4 27 13 58 20 68 12 17 16 15 70 -21 71 -50 182 -169 206 -221
15 -33 29 -45 76 -68 74 -35 81 -40 134 -113 95 -129 155 -285 215 -559 33
-154 45 -188 124 -365 92 -205 105 -238 138 -360 22 -82 35 -210 21 -210 -5 0
-9 -16 -9 -36 0 -19 -5 -45 -11 -56 -6 -12 -13 -83 -14 -162 -3 -145 -15 -205
-66 -324 -16 -36 -22 -43 -30 -32 -7 12 -10 11 -15 -7 -4 -13 -10 -21 -14 -18
-14 9 -20 -10 -41 -117 -11 -57 -26 -113 -34 -125 -12 -18 -15 -72 -15 -288
l0 -265 985 0 985 0 0 1800 0 1800 -2400 0 -2400 0 0 -1800z"/>
</g>
</svg>
