<?xml version="1.0" standalone="no"?>
<!DOCTYPE svg PUBLIC "-//W3C//DTD SVG 20010904//EN"
 "http://www.w3.org/TR/2001/REC-SVG-20010904/DTD/svg10.dtd">
<svg version="1.0" xmlns="http://www.w3.org/2000/svg"
 width="480.000000pt" height="360.000000pt" viewBox="0 0 480.000000 360.000000"
 preserveAspectRatio="xMidYMid meet">
<metadata>
Created by potrace 1.16, written by Peter Selinger 2001-2019
</metadata>
<rect width="1" height="360" fill="#000000"/>
<rect x="479" width="1" height="360" fill="#000000"/>
<rect width="480" height="1" fill="#000000"/>
<rect y="359" width="480" height="1" fill="#000000"/>
<g transform="translate(0.000000,360.000000) scale(0.100000,-0.100000)"
fill="#000000" stroke="none">
<path d="M2115 3076 c-64 -20 -97 -41 -146 -93 -85 -87 -122 -194 -117 -335
l3 -87 -40 -41 c-27 -28 -47 -40 -67 -40 -21 0 -31 -6 -38 -25 -5 -14 -22 -36
-36 -49 l-27 -23 67 -64 c76 -72 81 -75 101 -59 11 9 19 4 40 -28 l26 -40 -21
-50 c-12 -27 -35 -62 -51 -78 -35 -34 -37 -46 -5 -38 33 8 38 -7 21 -56 -20
-58 -20 -59 20 -20 19 18 37 32 39 29 2 -2 12 -22 21 -44 l17 -40 15 35 15 35
25 -50 c14 -27 34 -61 44 -74 l19 -24 1 24 0 24 11 -23 c13 -26 32 -24 34 4 3
38 5 39 19 9 7 -16 14 -25 14 -18 2 19 39 3 45 -20 5 -19 8 -20 16 -7 8 12 9
9 7 -10 -5 -35 -38 -48 -169 -66 -144 -19 -204 -39 -240 -78 -33 -36 -82 -150
-107 -249 -17 -67 -21 -73 -52 -84 -57 -20 -86 -16 -93 11 -8 34 -33 39 -127
25 -110 -16 -259 -7 -329 20 -59 22 -130 65 -287 173 -61 42 -140 85 -208 113
-113 46 -139 66 -129 97 8 27 -5 58 -21 51 -8 -3 -71 -75 -139 -162 -68 -86
-161 -192 -205 -236 l-81 -80 0 -246 0 -247 32 -7 c37 -9 44 -1 113 117 106
181 147 191 231 58 l28 -45 9 45 c16 81 22 90 64 90 79 -1 195 -77 214 -140 7
-22 14 -40 15 -40 2 0 29 16 60 36 157 101 227 100 346 -5 25 -23 55 -41 66
-41 11 0 77 38 146 85 134 90 247 151 334 180 64 20 83 11 64 -30 -16 -35 -15
-43 8 -50 14 -4 20 -15 20 -35 0 -19 8 -35 26 -47 25 -19 26 -21 30 -168 l4
-150 37 -32 36 -33 -12 -72 c-21 -119 -21 -119 -79 -138 -28 -9 -59 -23 -68
-31 -15 -12 -14 -15 9 -34 32 -26 54 -90 37 -110 -10 -12 -10 -18 -1 -29 10
-12 1 -34 -44 -112 -30 -53 -54 -98 -52 -100 2 -2 252 -3 554 -2 l551 3 -28
63 -29 62 30 63 c16 34 29 69 29 77 0 8 -17 31 -37 53 l-38 38 1 132 c4 332 9
447 21 447 15 0 17 -9 44 -150 24 -131 44 -186 70 -200 10 -6 39 -10 66 -10
56 0 118 35 134 76 12 33 12 124 -2 219 -6 42 -9 79 -6 81 2 2 37 -28 78 -66
41 -38 81 -70 89 -70 8 0 40 18 72 40 128 90 207 86 328 -17 21 -18 43 -33 48
-33 6 0 19 16 30 34 32 54 146 101 227 94 l40 -3 0 -52 c0 -29 4 -53 9 -54 5
0 20 17 35 40 15 22 39 50 55 62 47 37 72 14 151 -137 26 -49 53 -95 60 -103
11 -11 32 -7 129 24 113 37 117 37 178 25 35 -6 97 -23 138 -36 41 -13 81 -24
88 -24 8 0 12 15 12 44 0 34 -5 47 -22 59 -13 8 -32 23 -43 34 -11 10 -40 34
-65 53 -227 174 -437 396 -587 620 -72 107 -107 148 -116 133 -2 -4 -8 -22
-11 -39 -9 -41 -29 -58 -96 -79 -97 -31 -170 -65 -259 -120 -204 -126 -310
-158 -447 -134 -72 13 -79 16 -76 36 11 82 -135 316 -228 363 -21 11 -87 31
-147 45 -114 27 -213 67 -213 85 0 18 27 64 50 85 l22 20 -7 -38 c-5 -25 -4
-37 4 -37 7 0 9 -4 6 -10 -3 -5 -2 -10 4 -10 5 0 20 17 32 37 l23 36 10 -31
c16 -45 23 -47 41 -13 16 33 30 39 38 19 2 -7 8 9 12 36 l8 49 14 -26 c17 -34
22 -34 34 3 10 28 29 42 29 21 0 -12 59 -55 66 -48 3 3 -4 22 -15 43 -30 56
-28 62 24 56 51 -5 56 2 21 29 -22 18 -82 108 -74 113 1 1 11 8 21 15 14 11
20 11 33 0 15 -12 16 -10 10 19 -6 24 -2 41 15 68 l22 37 19 -27 c23 -31 43
-33 58 -7 18 35 11 79 -19 113 -25 29 -61 89 -61 102 0 5 60 -26 122 -63 20
-12 38 -18 41 -14 16 30 29 111 25 158 l-5 55 31 1 c17 1 36 0 41 -1 6 -1 15
-2 20 -1 38 4 55 8 61 13 3 4 12 4 20 1 26 -10 17 54 -9 72 -51 33 -119 214
-116 309 1 31 0 59 -4 62 -6 6 -74 -23 -94 -41 -6 -5 -28 -21 -48 -35 -20 -14
-51 -37 -68 -51 -54 -44 -69 -44 -97 3 -14 22 -46 58 -72 79 -77 61 -140 79
-333 95 -206 17 -277 17 -330 0z m72 -1228 c-3 -8 -6 -5 -6 6 -1 11 2 17 5 13
3 -3 4 -12 1 -19z"/>
</g>
</svg>
