<?xml version="1.0" standalone="no"?>
<!DOCTYPE svg PUBLIC "-//W3C//DTD SVG 20010904//EN"
 "http://www.w3.org/TR/2001/REC-SVG-20010904/DTD/svg10.dtd">
<svg version="1.0" xmlns="http://www.w3.org/2000/svg"
 width="480.000000pt" height="360.000000pt" viewBox="0 0 480.000000 360.000000"
 preserveAspectRatio="xMidYMid meet">
<metadata>
Created by potrace 1.16, written by Peter Selinger 2001-2019
</metadata>
<rect width="1" height="360" fill="#000000"/>
<rect x="479" width="1" height="360" fill="#000000"/>
<rect width="480" height="1" fill="#000000"/>
<rect y="359" width="480" height="1" fill="#000000"/>
<g transform="translate(0.000000,360.000000) scale(0.100000,-0.100000)"
fill="#000000" stroke="none">
<path d="M1502 2884 c-29 -7 -66 -21 -82 -29 -27 -14 -30 -14 -40 5 -14 27
-42 25 -68 -3 -19 -20 -21 -28 -11 -55 7 -21 7 -36 0 -50 -6 -11 -13 -44 -17
-74 -6 -48 -3 -60 20 -97 15 -23 31 -39 36 -36 5 3 12 0 16 -6 4 -8 9 -7 15 2
6 11 9 9 15 -5 4 -11 0 -25 -14 -38 l-20 -21 35 -36 c19 -20 41 -48 49 -63 8
-16 19 -28 24 -28 22 0 8 -19 -16 -22 -36 -4 -63 -51 -46 -78 20 -32 14 -47
-25 -67 -22 -11 -50 -38 -69 -68 -18 -27 -43 -62 -54 -78 -51 -65 -46 -143 11
-173 44 -22 52 -47 44 -131 -7 -71 -43 -163 -80 -202 -10 -10 -10 -19 -3 -30
15 -25 -46 -184 -78 -201 -13 -8 -27 -25 -30 -39 -3 -14 -12 -39 -21 -54 -11
-22 -12 -32 -4 -40 9 -9 17 -6 31 13 11 14 20 20 20 14 0 -5 -6 -16 -13 -23
-10 -10 -8 -16 9 -27 19 -13 21 -20 14 -52 -5 -20 -14 -82 -20 -137 -6 -55
-22 -188 -35 -295 -13 -107 -29 -274 -35 -370 -6 -96 -13 -201 -16 -232 l-7
-58 492 0 c464 0 492 1 487 18 -12 41 -77 421 -96 562 -29 217 -115 545 -184
704 -17 38 -17 39 3 33 12 -3 21 -3 21 -1 0 2 -23 29 -50 59 -57 62 -57 53 8
155 l35 55 -7 143 c-5 122 -4 143 9 148 19 8 19 24 0 38 -12 9 -12 19 -4 51
23 85 22 101 -15 210 -32 94 -35 108 -21 121 8 9 19 12 25 9 5 -3 10 -1 10 6
0 7 10 9 30 6 28 -6 30 -4 30 22 0 27 39 90 40 64 0 -30 21 -9 32 32 7 28 18
45 29 47 15 3 11 15 -23 93 -22 50 -42 102 -45 116 -3 15 -39 62 -81 106 -69
72 -82 82 -130 92 -64 13 -64 13 -130 -5z"/>
<path d="M3190 2149 c-102 -36 -175 -71 -192 -93 -28 -34 -23 -78 12 -109 24
-22 30 -35 30 -67 0 -22 -4 -40 -9 -40 -5 0 -36 -20 -70 -45 -54 -40 -113
-105 -124 -138 -5 -16 -50 6 -148 70 -41 26 -79 51 -86 56 -8 5 -18 -3 -28
-23 -16 -30 -17 -31 -40 -16 -38 25 -57 21 -49 -10 l7 -26 -64 2 c-35 1 -75 2
-88 1 l-24 -1 24 -26 c34 -36 72 -54 116 -54 73 0 83 -8 81 -53 l-3 -41 90
-13 c119 -17 249 -61 420 -143 157 -75 180 -94 170 -139 -5 -23 4 -51 44 -133
56 -113 58 -125 36 -189 -10 -28 -12 -46 -5 -53 6 -6 3 -20 -10 -42 -28 -44
-53 -119 -101 -302 -22 -86 -54 -196 -70 -245 -16 -50 -27 -98 -24 -107 10
-30 112 -70 181 -70 50 0 71 -17 80 -65 l6 -35 133 0 133 0 11 45 c6 25 17 47
24 49 6 2 43 12 80 21 77 20 77 21 43 112 -17 46 -26 101 -51 313 -9 74 -24
171 -35 215 -10 44 -16 91 -13 105 2 14 -5 59 -16 100 -12 41 -21 87 -21 103
0 44 -30 178 -50 224 -17 39 -17 43 -2 57 28 24 180 86 282 113 108 29 180 41
262 42 45 1 62 6 77 22 11 12 40 25 65 30 45 8 77 30 89 63 4 10 1 19 -8 22
-8 4 -12 10 -9 15 6 10 7 10 -68 12 -63 2 -81 12 -55 31 16 13 24 36 11 36 -3
0 -19 -9 -35 -21 l-30 -21 -20 26 c-11 14 -29 26 -40 26 -11 0 -54 -20 -97
-45 -42 -25 -106 -56 -142 -70 -36 -14 -122 -54 -192 -89 -71 -35 -130 -60
-133 -56 -3 5 0 20 6 34 9 20 9 29 -1 41 -9 11 -9 15 -1 15 9 0 9 5 1 20 -7
13 -7 20 -1 20 6 0 8 6 6 13 -3 6 12 22 32 34 64 36 151 121 163 158 22 67
-38 142 -133 166 -47 11 -173 8 -208 -6 -21 -8 -76 72 -60 88 31 31 -13 95
-69 101 -19 3 -60 -4 -90 -15z m-35 -669 c3 -5 2 -10 -4 -10 -5 0 -13 5 -16
10 -3 6 -2 10 4 10 5 0 13 -4 16 -10z"/>
</g>
</svg>
