<?xml version="1.0" standalone="no"?>
<!DOCTYPE svg PUBLIC "-//W3C//DTD SVG 20010904//EN"
 "http://www.w3.org/TR/2001/REC-SVG-20010904/DTD/svg10.dtd">
<svg version="1.0" xmlns="http://www.w3.org/2000/svg"
 width="480.000000pt" height="360.000000pt" viewBox="0 0 480.000000 360.000000"
 preserveAspectRatio="xMidYMid meet">
<metadata>
Created by potrace 1.16, written by Peter Selinger 2001-2019
</metadata>
<rect width="1" height="360" fill="#000000"/>
<rect x="479" width="1" height="360" fill="#000000"/>
<rect width="480" height="1" fill="#000000"/>
<rect y="359" width="480" height="1" fill="#000000"/>
<g transform="translate(0.000000,360.000000) scale(0.100000,-0.100000)"
fill="#000000" stroke="none">
<path d="M0 2268 l0 -1332 35 34 34 33 153 -7 c216 -10 363 -22 433 -35 129
-24 695 -78 1312 -124 l172 -13 85 96 c90 99 138 167 186 260 15 30 46 80 69
110 23 30 41 60 41 66 0 6 -13 14 -29 17 -17 4 -35 15 -41 26 -5 11 -17 94
-26 183 -8 90 -18 176 -22 192 -9 32 -25 40 -105 51 -38 5 -57 15 -93 49 -41
40 -44 46 -44 95 0 48 3 56 35 83 28 26 32 34 24 50 -6 11 -8 22 -6 25 3 2 11
-5 17 -17 l12 -22 20 22 c26 28 65 42 98 35 59 -13 130 -151 103 -200 -8 -13
-2 -29 22 -66 18 -26 35 -53 37 -59 7 -21 78 54 78 82 0 14 6 31 14 37 15 13
10 55 -11 88 -8 12 -12 31 -8 43 8 24 1 25 -56 5 -43 -16 -44 -15 -61 7 -34
46 -64 81 -91 107 l-28 27 21 19 c19 17 19 19 4 37 -18 19 -44 24 -44 8 0 -6
-9 -6 -24 0 -13 5 -27 6 -30 3 -3 -3 -13 8 -23 25 -10 17 -37 39 -63 51 -25
12 -65 32 -90 45 -25 14 -69 35 -98 47 -30 13 -68 39 -85 59 -17 19 -38 34
-46 32 -22 -3 -83 62 -70 75 6 6 5 14 -6 23 -19 16 -19 30 1 30 11 0 14 6 9
20 -8 25 -8 25 145 -4 69 -13 126 -23 128 -21 2 2 -17 15 -42 30 -25 15 -56
39 -68 54 -29 34 -55 144 -42 179 14 39 29 36 43 -8 6 -22 13 -40 15 -40 2 0
20 7 39 15 52 21 159 20 186 -3 l22 -17 -31 -68 c-39 -82 -36 -123 8 -113 15
3 60 9 100 13 l73 6 50 67 c59 79 125 131 194 154 107 36 304 30 407 -11 24
-9 89 -52 144 -94 56 -43 128 -95 160 -115 125 -79 164 -106 164 -115 0 -5
-40 -9 -88 -9 -86 0 -91 1 -191 50 -90 45 -109 51 -154 48 l-52 -3 -3 -102 -3
-102 43 -11 c125 -32 309 -95 349 -121 53 -34 129 -107 129 -125 0 -6 -7 -14
-15 -18 -8 -3 -15 -15 -15 -26 0 -11 -7 -23 -15 -26 -47 -19 10 -57 135 -90
90 -24 95 -34 20 -34 -95 -1 -51 -22 49 -24 93 -3 119 -14 76 -32 l-30 -12 25
-10 c14 -5 41 -17 60 -26 l35 -16 -54 5 -53 6 28 -25 c33 -29 19 -34 -29 -11
l-32 16 30 -23 c44 -33 78 -68 72 -74 -3 -3 -31 8 -62 25 -78 42 -80 39 -9
-11 32 -23 61 -43 63 -45 2 -2 2 -5 -1 -8 -3 -3 -32 3 -64 14 -83 28 -139 42
-128 32 5 -5 32 -23 59 -40 55 -34 50 -39 -15 -16 -53 19 -56 19 -39 -2 13
-15 12 -15 -18 0 -37 20 -47 21 -37 6 7 -11 -25 -5 -54 11 -8 4 -25 5 -37 2
-21 -3 -23 -8 -18 -33 5 -25 3 -29 -13 -26 -11 1 -41 17 -69 35 l-50 33 38
-34 c46 -43 48 -55 3 -28 -24 15 -35 18 -38 9 -3 -8 -13 -6 -34 8 -41 29 -184
95 -184 85 0 -4 9 -16 20 -26 13 -11 16 -21 10 -25 -7 -4 2 -34 24 -81 19 -41
43 -101 54 -134 11 -33 27 -64 35 -69 20 -13 47 0 47 21 0 10 11 41 24 70 32
67 66 86 166 88 41 2 105 6 141 10 l66 7 19 -38 c16 -33 19 -61 19 -191 l0
-153 50 -9 c436 -85 555 -114 577 -143 9 -12 18 -32 18 -44 0 -11 6 -29 14
-39 14 -19 17 -19 172 9 88 15 174 30 191 33 l33 5 0 1244 0 1244 -2400 0
-2400 0 0 -1332z"/>
<path d="M2675 1353 c-32 -114 -54 -156 -148 -278 -76 -97 -117 -174 -117
-217 0 -24 4 -28 28 -28 35 0 79 28 194 121 117 96 180 162 208 217 l22 43
-32 62 c-29 53 -115 177 -124 177 -2 0 -16 -44 -31 -97z"/>
<path d="M3585 1130 c3 -5 11 -10 16 -10 6 0 7 5 4 10 -3 6 -11 10 -16 10 -6
0 -7 -4 -4 -10z"/>
<path d="M3687 1115 c-17 -24 -17 -25 12 -39 34 -18 167 -56 195 -56 29 0 13
12 -94 68 l-95 51 -18 -24z"/>
<path d="M3945 1124 c11 -9 61 -42 111 -74 l91 -58 97 20 c53 12 96 24 96 28
0 10 -377 102 -408 100 -4 -1 2 -8 13 -16z"/>
<path d="M0 463 l0 -463 1745 0 1746 0 -24 43 c-14 23 -30 60 -37 82 -17 55
-70 156 -79 150 -4 -2 -13 -30 -20 -62 -25 -113 -69 -174 -106 -143 -22 18
-55 97 -55 132 0 18 -3 50 -6 70 -6 36 -8 38 -63 49 -31 6 -80 18 -109 27 -49
14 -69 14 -238 -3 -192 -18 -286 -17 -322 6 -44 27 -66 131 -37 175 17 26 17
27 -11 50 -19 15 -37 22 -51 19 -12 -3 -25 0 -28 6 -5 6 -12 4 -20 -8 -11 -15
-15 -16 -31 -3 -13 12 -18 12 -21 3 -5 -15 -33 -18 -33 -4 0 14 -54 20 -340
36 -459 25 -477 26 -451 15 19 -8 22 -13 13 -22 -7 -7 -12 -20 -12 -30 0 -10
-4 -18 -9 -18 -5 0 -11 -7 -14 -15 -5 -13 94 -104 200 -184 l28 -21 -21 -17
c-11 -10 -31 -35 -43 -55 -13 -21 -25 -38 -28 -38 -2 0 -48 40 -101 90 -97 89
-167 141 -252 184 -71 37 -291 115 -366 131 l-69 14 -31 -30 c-28 -27 -35 -29
-54 -19 -21 11 -22 10 -15 -19 6 -30 6 -31 -18 -22 -18 7 -28 6 -39 -5 -13
-14 -19 -14 -50 -1 -29 12 -36 21 -41 51 -3 20 -3 51 0 70 6 40 17 37 -209 61
-175 19 -197 29 -242 114 l-35 66 -1 -462z"/>
<path d="M4020 344 c0 -8 -6 -21 -13 -27 -7 -7 -30 -28 -50 -46 -29 -27 -40
-32 -49 -23 -19 19 -62 14 -76 -9 -12 -19 -21 -21 -98 -17 -81 3 -85 2 -79
-17 20 -67 29 -147 18 -175 l-11 -30 569 0 569 0 0 93 0 94 -162 23 c-290 40
-460 80 -558 130 -47 24 -60 25 -60 4z"/>
</g>
</svg>
