<?xml version="1.0" standalone="no"?>
<!DOCTYPE svg PUBLIC "-//W3C//DTD SVG 20010904//EN"
 "http://www.w3.org/TR/2001/REC-SVG-20010904/DTD/svg10.dtd">
<svg version="1.0" xmlns="http://www.w3.org/2000/svg"
 width="480.000000pt" height="360.000000pt" viewBox="0 0 480.000000 360.000000"
 preserveAspectRatio="xMidYMid meet">
<metadata>
Created by potrace 1.16, written by Peter Selinger 2001-2019
</metadata>
<rect width="1" height="360" fill="#000000"/>
<rect x="479" width="1" height="360" fill="#000000"/>
<rect width="480" height="1" fill="#000000"/>
<rect y="359" width="480" height="1" fill="#000000"/>
<g transform="translate(0.000000,360.000000) scale(0.100000,-0.100000)"
fill="#000000" stroke="none">
<path d="M0 1800 l0 -1800 660 0 660 0 0 48 c0 82 29 234 60 312 16 41 43 135
61 207 27 116 37 143 81 210 27 43 89 119 138 168 l87 90 -33 180 c-101 550
-113 603 -156 690 -43 85 -81 110 -206 131 -146 26 -224 70 -261 150 -18 38
-23 65 -22 138 0 180 48 294 147 352 42 25 51 26 132 21 71 -4 105 -12 185
-45 118 -48 187 -93 258 -171 174 -188 227 -326 274 -708 12 -98 55 -514 55
-534 0 -4 26 0 58 8 31 8 113 17 182 20 104 5 143 2 234 -16 60 -12 109 -21
111 -19 1 2 10 86 19 188 37 394 81 564 167 648 167 162 601 173 929 24 86
-40 199 -144 244 -226 55 -99 89 -261 67 -319 -9 -23 -17 -27 -49 -27 -22 0
-84 13 -139 30 -107 32 -442 162 -610 237 -67 30 -108 43 -122 38 -55 -17 -77
-97 -111 -400 -11 -104 -28 -232 -36 -283 l-16 -93 28 -41 c16 -22 52 -60 81
-86 86 -72 160 -187 209 -321 23 -64 57 -152 76 -196 44 -102 62 -212 53 -322
l-7 -83 656 0 656 0 0 1800 0 1800 -2400 0 -2400 0 0 -1800z"/>
</g>
</svg>
