<?xml version="1.0" standalone="no"?>
<!DOCTYPE svg PUBLIC "-//W3C//DTD SVG 20010904//EN"
 "http://www.w3.org/TR/2001/REC-SVG-20010904/DTD/svg10.dtd">
<svg version="1.0" xmlns="http://www.w3.org/2000/svg"
 width="480.000000pt" height="360.000000pt" viewBox="0 0 480.000000 360.000000"
 preserveAspectRatio="xMidYMid meet">
<metadata>
Created by potrace 1.16, written by Peter Selinger 2001-2019
</metadata>
<rect width="1" height="360" fill="#000000"/>
<rect x="479" width="1" height="360" fill="#000000"/>
<rect width="480" height="1" fill="#000000"/>
<rect y="359" width="480" height="1" fill="#000000"/>
<g transform="translate(0.000000,360.000000) scale(0.100000,-0.100000)"
fill="#000000" stroke="none">
<path d="M0 2179 l0 -1421 132 7 c73 4 135 9 138 12 2 2 8 73 11 156 6 129 5
154 -8 164 -13 10 -10 21 24 85 35 68 41 73 73 76 49 4 108 33 114 57 10 36 6
105 -7 126 -10 17 -9 22 8 35 11 8 31 18 45 21 14 3 31 10 38 16 15 12 16 59
0 75 -9 9 -8 16 5 30 9 10 17 24 17 30 0 7 7 12 15 12 8 0 15 -6 15 -14 0 -7
7 -19 15 -26 14 -12 14 -15 0 -30 -33 -36 -6 -104 46 -115 34 -8 48 -30 30
-48 -6 -6 -11 -39 -11 -74 0 -62 0 -63 38 -81 20 -11 53 -22 73 -26 35 -6 38
-11 68 -83 22 -54 28 -79 20 -84 -8 -4 -14 -59 -17 -149 -4 -115 -2 -144 9
-151 16 -10 83 -12 126 -3 l29 6 1 108 2 109 58 93 c32 51 63 93 68 93 5 0 33
-42 62 -94 52 -92 53 -95 53 -177 0 -79 1 -84 23 -88 12 -3 153 -12 312 -21
160 -8 304 -18 320 -20 21 -4 53 -27 100 -75 38 -39 73 -70 78 -70 4 0 7 96 5
213 l-2 212 52 77 c29 43 56 78 60 78 4 0 29 -35 56 -78 l50 -77 -3 -532 -3
-533 1231 0 1231 0 0 1800 0 1800 -2400 0 -2400 0 0 -1421z m3070 604 c15 -19
20 -37 17 -58 -4 -27 17 -110 32 -127 4 -4 49 -16 100 -27 51 -10 97 -25 102
-32 11 -18 -6 -45 -41 -66 -35 -20 -37 -28 -10 -43 30 -16 24 -28 -14 -28 -46
0 -62 -10 -40 -26 16 -12 16 -13 0 -19 -10 -4 -22 -5 -27 -1 -5 3 -4 -7 1 -22
9 -22 8 -25 -5 -20 -8 3 -15 0 -15 -6 0 -7 -5 -6 -15 2 -13 11 -15 4 -15 -57
0 -40 -5 -74 -12 -81 -20 -20 -1 -14 37 13 39 26 135 65 161 65 21 0 10 -49
-26 -117 l-28 -53 91 0 c51 0 115 -3 144 -6 52 -7 52 -7 30 -25 l-22 -18 50
-22 c28 -12 44 -24 38 -26 -22 -8 -14 -21 15 -27 15 -4 40 -12 56 -18 l29 -12
-34 -12 -34 -11 36 -18 c40 -19 74 -61 42 -52 -51 15 -83 18 -83 8 0 -6 14
-26 31 -46 17 -19 26 -35 21 -35 -6 0 -14 5 -17 10 -3 6 -11 10 -17 10 -6 0
-1 -11 12 -25 l23 -25 -22 0 c-19 0 -21 -3 -11 -15 6 -8 9 -18 6 -24 -3 -5 14
-17 39 -27 51 -19 74 -41 32 -30 -14 3 -27 2 -29 -4 -2 -7 -17 -5 -42 5 -44
19 -52 15 -36 -14 6 -12 21 -21 35 -21 13 0 27 -5 31 -11 5 -9 -7 -10 -46 -5
-45 6 -52 5 -47 -8 4 -9 1 -16 -5 -16 -9 0 -9 -3 0 -12 24 -24 11 -29 -24 -8
-43 27 -54 19 -30 -20 23 -39 13 -38 -31 5 -20 19 -42 35 -49 35 -15 0 -29
-43 -19 -59 3 -6 2 -11 -2 -11 -5 0 -14 -12 -20 -27 -10 -26 -11 -26 -12 -5
-1 12 -6 22 -12 22 -6 0 -9 6 -6 14 7 16 -11 36 -32 36 -9 0 -27 9 -41 20 -34
27 -36 26 -32 -18 7 -69 -60 -119 -101 -74 -8 9 -21 46 -27 82 -6 35 -16 72
-21 82 -12 22 -66 51 -83 45 -7 -3 -21 -36 -31 -74 -32 -118 -46 -136 -86
-105 -14 12 -23 33 -26 64 -4 36 -11 48 -29 57 -13 6 -24 17 -24 26 0 8 -4 15
-8 15 -5 0 -7 -15 -5 -32 l4 -33 -20 25 c-11 14 -21 28 -21 33 0 4 -6 7 -14 7
-8 0 -22 7 -30 16 -15 14 -16 14 -16 -5 0 -23 -1 -24 -24 -15 -11 4 -14 13
-10 29 4 17 0 26 -16 35 -16 9 -20 19 -18 43 3 29 7 32 43 38 21 4 41 12 43
18 7 22 56 74 86 92 65 39 78 185 20 211 -26 12 -26 12 -30 48 -1 14 -6 46 -9
72 -6 36 -4 53 8 71 12 19 14 39 10 83 -9 93 -12 96 -94 88 -63 -6 -72 -5 -89
14 -20 21 -19 21 5 40 13 11 38 25 55 32 29 12 41 30 20 30 -5 0 -10 4 -10 10
0 5 13 7 29 4 41 -8 88 29 116 91 12 28 34 65 49 83 24 28 34 32 76 32 41 0
52 -4 70 -27z"/>
<path d="M2815 1800 c-3 -5 1 -10 9 -10 9 0 16 5 16 10 0 6 -4 10 -9 10 -6 0
-13 -4 -16 -10z"/>
<path d="M3530 1590 c0 -5 4 -10 9 -10 5 0 18 -3 28 -6 16 -5 16 -4 -1 10 -23
18 -36 20 -36 6z"/>
</g>
</svg>
