<?xml version="1.0" standalone="no"?>
<!DOCTYPE svg PUBLIC "-//W3C//DTD SVG 20010904//EN"
 "http://www.w3.org/TR/2001/REC-SVG-20010904/DTD/svg10.dtd">
<svg version="1.0" xmlns="http://www.w3.org/2000/svg"
 width="480.000000pt" height="360.000000pt" viewBox="0 0 480.000000 360.000000"
 preserveAspectRatio="xMidYMid meet">
<metadata>
Created by potrace 1.16, written by Peter Selinger 2001-2019
</metadata>
<rect width="1" height="360" fill="#000000"/>
<rect x="479" width="1" height="360" fill="#000000"/>
<rect width="480" height="1" fill="#000000"/>
<rect y="359" width="480" height="1" fill="#000000"/>
<g transform="translate(0.000000,360.000000) scale(0.100000,-0.100000)"
fill="#000000" stroke="none">
<path d="M0 1800 l0 -1800 2400 0 2400 0 0 1800 0 1800 -1079 0 -1078 0 -5
-127 c-7 -153 -33 -245 -111 -380 -104 -183 -108 -193 -114 -249 l-6 -56 -17
55 c-10 30 -26 70 -38 89 -51 84 -166 328 -183 390 -13 46 -19 101 -19 173 l0
105 -1075 0 -1075 0 0 -1800z m2462 869 c9 -9 14 -20 11 -23 -3 -3 8 -16 23
-30 24 -21 26 -25 11 -26 -38 0 -4 -20 36 -20 58 0 112 -34 167 -105 l46 -60
100 -11 c105 -12 140 -24 269 -89 101 -51 115 -71 118 -162 2 -76 -11 -109
-35 -85 -20 20 -37 14 -44 -15 -11 -46 -42 -100 -69 -121 -40 -32 -79 -36
-157 -17 l-71 18 -56 -61 c-31 -34 -76 -71 -101 -83 -57 -29 -55 -26 -40 -44
7 -8 14 -35 15 -59 2 -25 17 -70 35 -104 27 -53 30 -66 24 -112 -4 -28 -13
-54 -20 -57 -10 -4 -12 -20 -9 -61 4 -40 2 -51 -4 -37 -13 27 -13 13 0 -64 17
-98 70 -193 174 -311 84 -96 91 -108 76 -132 -10 -16 -9 -24 5 -45 16 -25 16
-27 -2 -40 -10 -7 -23 -13 -30 -13 -7 0 -22 -13 -34 -30 -12 -16 -30 -30 -41
-30 -27 0 -57 -16 -102 -56 -39 -36 -61 -40 -117 -24 -31 9 -37 7 -53 -12 -12
-16 -16 -33 -12 -53 16 -83 17 -96 5 -110 -17 -21 -53 -19 -94 6 -44 26 -45
42 -6 71 49 35 36 84 -29 118 l-39 19 -13 -30 c-10 -26 -10 -38 4 -77 23 -64
22 -82 -5 -82 -13 0 -32 -3 -43 -6 -11 -3 -29 1 -40 9 -19 14 -19 16 0 70 24
72 11 112 -41 122 -19 3 -44 3 -54 0 -18 -6 -20 -1 -20 34 0 31 -4 41 -16 41
-24 0 -12 77 41 285 24 94 51 224 60 290 9 66 20 136 24 156 14 62 2 141 -26
170 -20 22 -22 30 -13 54 14 37 6 62 -14 45 -12 -9 -17 -7 -25 9 -6 11 -26 23
-45 26 -18 4 -55 24 -81 46 -48 40 -69 47 -80 29 -9 -14 -51 -12 -62 3 -18 23
-44 138 -38 166 13 61 193 251 280 296 32 17 59 35 60 40 1 6 10 44 19 86 15
66 22 81 59 116 23 23 57 48 75 57 17 9 32 19 32 22 0 2 -9 0 -19 -6 -11 -5
-22 -10 -25 -10 -10 0 -6 39 4 45 6 3 7 17 4 30 -3 12 -1 26 5 30 6 3 9 18 6
33 -5 25 -5 25 7 8 7 -11 21 -27 30 -37z"/>
<path d="M3184 2179 c-21 -24 -20 -55 3 -81 28 -31 43 -22 43 26 0 47 -7 76
-20 76 -4 0 -15 -9 -26 -21z"/>
<path d="M3054 2041 c-65 -18 -119 -48 -148 -80 -18 -20 -17 -20 10 -26 16 -4
42 -11 58 -16 46 -14 67 -11 103 17 27 21 73 96 73 120 0 8 -36 2 -96 -15z"/>
<path d="M1958 1856 c18 -62 26 -73 47 -56 32 26 9 96 -34 102 l-28 4 15 -50z"/>
<path d="M2636 1892 c-3 -5 -1 -26 5 -48 18 -69 15 -66 56 -49 37 15 113 81
113 97 0 11 -167 10 -174 0z"/>
<path d="M2121 1836 c-19 -7 -36 -17 -38 -23 -6 -16 102 -83 134 -83 40 0 48
9 50 61 2 41 -1 48 -20 53 -34 9 -89 6 -126 -8z"/>
</g>
</svg>
