<?xml version="1.0" standalone="no"?>
<!DOCTYPE svg PUBLIC "-//W3C//DTD SVG 20010904//EN"
 "http://www.w3.org/TR/2001/REC-SVG-20010904/DTD/svg10.dtd">
<svg version="1.0" xmlns="http://www.w3.org/2000/svg"
 width="480.000000pt" height="360.000000pt" viewBox="0 0 480.000000 360.000000"
 preserveAspectRatio="xMidYMid meet">
<metadata>
Created by potrace 1.16, written by Peter Selinger 2001-2019
</metadata>
<rect width="1" height="360" fill="#000000"/>
<rect x="479" width="1" height="360" fill="#000000"/>
<rect width="480" height="1" fill="#000000"/>
<rect y="359" width="480" height="1" fill="#000000"/>
<g transform="translate(0.000000,360.000000) scale(0.100000,-0.100000)"
fill="#000000" stroke="none">
<path d="M3487 3552 c-20 -26 -54 -78 -74 -116 l-36 -70 21 -14 c19 -13 22
-24 23 -96 1 -141 29 -181 134 -191 88 -9 105 -14 105 -29 0 -8 7 -22 17 -31
9 -9 24 -45 32 -78 15 -57 19 -62 45 -62 16 -1 32 -8 37 -18 6 -9 15 -17 22
-17 7 -1 22 -22 34 -47 l21 -46 -43 -45 -44 -46 39 -43 c35 -37 40 -48 40 -91
0 -37 5 -54 21 -68 14 -12 18 -25 14 -41 -3 -13 1 -33 9 -46 8 -12 17 -42 21
-67 4 -24 14 -54 21 -66 12 -18 12 -26 -1 -57 -18 -44 -19 -50 -3 -41 7 5 20
9 30 9 9 1 33 16 53 33 59 53 79 36 56 -46 -9 -30 0 -44 14 -22 11 17 23 11
27 -12 3 -23 3 -23 28 5 13 15 30 25 37 23 8 -3 13 3 14 17 1 22 1 22 7 -1 4
-13 12 -22 17 -20 6 2 11 -7 13 -19 5 -31 18 -29 36 5 13 24 19 28 50 24 41
-5 42 -10 49 -145 4 -72 2 -79 -21 -102 -14 -14 -22 -32 -20 -42 4 -17 -4 -18
-113 -15 -117 4 -119 3 -173 -27 -36 -21 -67 -31 -95 -31 -24 0 -41 -5 -41
-11 0 -8 -5 -8 -15 1 -34 28 -139 -38 -149 -95 -4 -19 -11 -35 -15 -35 -5 0
-11 -9 -14 -20 -6 -24 -37 -26 -97 -5 -54 19 -64 19 -56 -1 4 -10 -3 -23 -20
-36 -20 -17 -25 -27 -20 -49 6 -31 2 -33 -124 -64 -36 -9 -120 -35 -187 -57
l-122 -41 -83 74 c-109 98 -195 167 -418 335 -296 223 -512 378 -553 397 -20
9 -82 28 -137 41 -54 14 -117 34 -139 45 -22 11 -102 34 -178 51 -76 17 -160
37 -187 45 -51 16 -203 20 -222 7 -6 -4 -14 -23 -18 -43 -9 -48 7 -60 89 -67
66 -5 90 -16 58 -26 -76 -22 -255 -52 -424 -71 -60 -6 -119 -36 -119 -59 0
-28 59 -66 101 -66 40 0 40 0 34 -33 -7 -38 22 -84 57 -89 20 -3 21 -8 19 -76
-4 -130 29 -203 135 -291 64 -54 99 -123 89 -180 -5 -29 -2 -43 14 -62 17 -21
28 -24 104 -27 113 -5 287 14 307 33 11 12 12 21 3 44 -8 23 -7 41 7 83 l17
53 80 11 c59 9 100 22 152 49 l71 37 47 -38 c27 -22 136 -118 244 -214 107
-96 228 -204 267 -238 121 -109 283 -206 420 -253 79 -27 185 -26 427 5 110
14 215 26 234 28 l34 3 2 -175 c3 -166 -8 -466 -21 -612 l-6 -68 585 0 584 0
17 89 c14 80 16 263 16 1800 l0 1711 -637 0 -638 -1 -38 -47z"/>
</g>
</svg>
