<?xml version="1.0" standalone="no"?>
<!DOCTYPE svg PUBLIC "-//W3C//DTD SVG 20010904//EN"
 "http://www.w3.org/TR/2001/REC-SVG-20010904/DTD/svg10.dtd">
<svg version="1.0" xmlns="http://www.w3.org/2000/svg"
 width="480.000000pt" height="360.000000pt" viewBox="0 0 480.000000 360.000000"
 preserveAspectRatio="xMidYMid meet">
<metadata>
Created by potrace 1.16, written by Peter Selinger 2001-2019
</metadata>
<rect width="1" height="360" fill="#000000"/>
<rect x="479" width="1" height="360" fill="#000000"/>
<rect width="480" height="1" fill="#000000"/>
<rect y="359" width="480" height="1" fill="#000000"/>
<g transform="translate(0.000000,360.000000) scale(0.100000,-0.100000)"
fill="#000000" stroke="none">
<path d="M1917 3060 c-21 -11 -44 -19 -52 -18 -21 5 -101 -122 -181 -286 -41
-83 -74 -155 -74 -160 0 -8 18 -5 54 10 14 5 17 4 11 -5 -4 -8 -3 -16 4 -20 6
-4 -17 -32 -60 -70 -87 -78 -106 -105 -89 -126 17 -21 69 -45 96 -45 13 0 25
-3 28 -8 2 -4 -9 -55 -26 -112 -36 -127 -43 -209 -27 -315 14 -99 24 -120 34
-77 13 60 24 42 19 -30 l-5 -73 37 109 c29 86 39 105 47 91 8 -16 7 -46 -9
-162 -10 -73 11 -48 42 47 16 49 32 90 35 90 3 0 9 -21 12 -47 3 -27 22 -97
42 -158 32 -95 36 -119 31 -176 -2 -38 0 -71 5 -76 6 -6 9 -28 7 -49 -3 -38
-4 -39 -37 -36 -43 5 -101 -6 -101 -18 0 -10 56 -28 100 -32 24 -3 25 -6 28
-85 2 -58 -3 -109 -18 -170 -79 -331 -107 -605 -77 -749 8 -36 10 -73 5 -90
-7 -26 -38 -197 -38 -209 0 -3 296 -5 659 -5 578 0 660 2 671 15 11 14 15 14
32 -2 17 -15 21 -15 28 -3 6 8 10 35 10 60 l1 45 22 -27 c32 -39 48 -37 36 4
-5 17 -14 35 -20 38 -8 5 -6 16 5 38 21 40 20 70 -3 183 -58 275 -208 679
-296 795 l-24 31 85 23 c94 24 108 37 159 139 39 79 41 181 3 238 -14 22 -40
46 -58 53 -26 11 -30 17 -26 37 7 24 -11 33 -20 9 -4 -10 -21 -12 -73 -8 -115
8 -158 -26 -181 -143 -11 -56 -6 -106 14 -155 7 -18 -58 -74 -78 -67 -8 3 -17
22 -20 42 -4 20 -24 69 -45 110 -21 41 -36 76 -34 79 3 3 -5 21 -17 41 -23 36
-23 38 -6 105 9 37 16 75 16 83 0 9 9 22 20 30 18 12 19 19 9 113 -6 54 -8
111 -5 126 3 17 0 28 -9 32 -11 4 -15 21 -14 63 0 32 3 52 6 46 2 -7 11 -13
18 -13 26 0 90 80 107 133 21 66 23 180 2 239 l-15 46 49 61 c56 69 100 151
108 202 9 52 6 92 -8 100 -50 31 -307 44 -408 20 -30 -8 -64 -22 -76 -32 -20
-19 -21 -19 -42 11 -25 33 -73 50 -146 50 -40 0 -55 5 -84 31 -69 61 -131 73
-195 39z m578 -1147 c3 -54 10 -107 15 -118 10 -23 23 -115 17 -115 -3 0 -41
37 -86 81 -81 81 -81 82 -71 117 8 32 93 132 111 132 4 0 10 -44 14 -97z"/>
</g>
</svg>
