<?xml version="1.0" standalone="no"?>
<!DOCTYPE svg PUBLIC "-//W3C//DTD SVG 20010904//EN"
 "http://www.w3.org/TR/2001/REC-SVG-20010904/DTD/svg10.dtd">
<svg version="1.0" xmlns="http://www.w3.org/2000/svg"
 width="480.000000pt" height="360.000000pt" viewBox="0 0 480.000000 360.000000"
 preserveAspectRatio="xMidYMid meet">
<metadata>
Created by potrace 1.16, written by Peter Selinger 2001-2019
</metadata>
<rect width="1" height="360" fill="#000000"/>
<rect x="479" width="1" height="360" fill="#000000"/>
<rect width="480" height="1" fill="#000000"/>
<rect y="359" width="480" height="1" fill="#000000"/>
<g transform="translate(0.000000,360.000000) scale(0.100000,-0.100000)"
fill="#000000" stroke="none">
<path d="M0 2901 l0 -698 23 4 c17 3 28 -2 41 -21 10 -16 26 -26 41 -26 13 0
31 -7 40 -16 15 -15 15 -18 -1 -35 -9 -11 -23 -19 -31 -19 -7 0 -13 -9 -13
-20 0 -22 -28 -40 -63 -40 -14 0 -28 -7 -31 -16 -7 -17 33 -128 65 -180 21
-35 59 -56 79 -44 13 8 0 25 -63 77 -32 27 -34 53 -8 77 38 34 130 -20 218
-129 66 -81 78 -107 88 -198 6 -57 9 -60 114 -175 59 -64 171 -191 250 -282
79 -91 147 -169 152 -174 5 -5 28 13 53 41 25 28 68 68 96 89 37 28 50 45 50
64 0 20 14 34 66 70 98 66 114 84 114 123 0 58 64 98 210 132 41 10 118 30
170 46 52 15 147 35 210 44 63 9 117 19 119 21 2 2 -6 39 -18 81 -25 92 -45
188 -61 298 -11 78 -24 109 -63 150 -10 11 -37 51 -59 89 -36 61 -40 74 -34
112 3 25 2 44 -4 44 -5 0 -33 -9 -61 -20 -58 -23 -84 -20 -76 10 6 22 -7 35
-45 44 -15 3 -38 16 -52 29 -25 21 -25 23 -9 55 12 26 34 42 98 72 45 22 86
40 92 40 18 0 63 59 57 75 -3 7 4 18 15 25 21 11 21 11 -6 63 -40 79 -114 310
-102 322 6 6 46 -28 113 -94 l104 -104 33 26 c98 72 231 107 444 114 141 5
163 8 182 25 20 18 28 19 103 11 45 -5 84 -5 86 -1 3 5 56 43 117 84 105 70
112 73 115 51 4 -34 -53 -247 -81 -304 l-26 -49 107 4 c134 5 388 -36 379 -62
-4 -11 -190 -69 -264 -81 -24 -4 -43 -10 -43 -14 0 -3 14 -14 30 -23 30 -17
37 -41 22 -66 -15 -22 -109 -78 -166 -97 -44 -15 -56 -24 -56 -40 0 -11 16
-81 34 -155 34 -136 41 -172 76 -425 11 -77 32 -192 46 -255 57 -252 76 -296
236 -543 149 -230 205 -363 113 -267 -16 17 -33 30 -39 30 -5 0 -18 8 -29 17
-19 17 -19 16 2 -24 11 -23 54 -121 95 -216 88 -208 134 -360 177 -580 l13
-67 608 0 608 0 0 1800 0 1800 -2400 0 -2400 0 0 -699z"/>
<path d="M1840 2195 c0 -8 4 -15 10 -15 5 0 7 7 4 15 -4 8 -8 15 -10 15 -2 0
-4 -7 -4 -15z"/>
<path d="M0 763 l0 -763 720 0 720 0 -12 25 c-15 33 -10 37 82 75 103 43 192
60 348 67 155 7 148 -2 108 141 -38 137 -56 245 -66 412 -14 210 -32 390 -40
395 -4 2 -31 -20 -60 -50 -30 -30 -60 -55 -67 -55 -6 0 -16 -6 -20 -14 -18
-30 -74 -48 -132 -42 l-56 6 -77 -65 c-42 -36 -80 -65 -84 -65 -4 0 -18 9 -30
21 l-23 21 -107 -72 c-174 -116 -318 -180 -403 -180 -53 1 -114 32 -166 86
-101 104 -396 488 -479 623 -28 47 -74 110 -103 140 l-52 56 -1 -762z"/>
<path d="M3410 255 c0 -19 16 -85 36 -145 32 -100 37 -110 59 -110 l24 0 -19
53 c-10 28 -32 85 -49 126 -17 41 -31 80 -31 87 0 7 -4 16 -10 19 -6 4 -10 -8
-10 -30z"/>
<path d="M3352 80 c24 -93 33 -100 17 -14 -13 77 -19 94 -29 94 -4 0 1 -36 12
-80z"/>
</g>
</svg>
