<?xml version="1.0" standalone="no"?>
<!DOCTYPE svg PUBLIC "-//W3C//DTD SVG 20010904//EN"
 "http://www.w3.org/TR/2001/REC-SVG-20010904/DTD/svg10.dtd">
<svg version="1.0" xmlns="http://www.w3.org/2000/svg"
 width="480.000000pt" height="360.000000pt" viewBox="0 0 480.000000 360.000000"
 preserveAspectRatio="xMidYMid meet">
<metadata>
Created by potrace 1.16, written by Peter Selinger 2001-2019
</metadata>
<rect width="1" height="360" fill="#000000"/>
<rect x="479" width="1" height="360" fill="#000000"/>
<rect width="480" height="1" fill="#000000"/>
<rect y="359" width="480" height="1" fill="#000000"/>
<g transform="translate(0.000000,360.000000) scale(0.100000,-0.100000)"
fill="#000000" stroke="none">
<path d="M1330 3301 c0 -5 19 -20 42 -33 63 -35 60 -48 -9 -48 -166 -1 -255
-46 -284 -141 l-16 -54 -69 -6 c-67 -6 -104 -15 -104 -26 0 -16 44 -73 56 -73
18 0 18 -24 0 -43 -11 -11 -12 -21 -3 -51 10 -30 26 -47 78 -82 l66 -45 6 -77
c3 -42 3 -109 -1 -148 -6 -61 -12 -77 -40 -108 -17 -20 -33 -42 -33 -49 -1 -7
-3 -23 -5 -37 -2 -14 -6 -94 -9 -178 -3 -84 -10 -173 -15 -197 -5 -24 -54
-135 -107 -245 l-97 -201 19 -36 c11 -20 20 -55 21 -79 3 -71 46 -117 120
-127 35 -5 74 18 74 44 0 15 6 17 38 12 20 -3 39 -7 41 -9 5 -4 -13 -78 -92
-384 -92 -360 -152 -643 -172 -822 l-6 -58 565 0 c311 0 566 3 566 8 0 19 -33
360 -65 667 -56 536 -62 626 -51 707 7 51 6 107 -3 192 -8 67 -15 141 -17 165
-3 43 -3 43 18 25 21 -19 21 -19 14 19 -4 21 -10 45 -13 53 -3 9 2 14 17 14
30 0 78 54 86 98 6 31 1 48 -31 108 l-37 71 66 101 c36 55 66 105 66 110 0 6
-57 50 -126 99 -69 48 -137 97 -151 107 -24 18 -25 23 -24 125 1 58 -1 154 -5
214 -6 104 -5 108 18 126 l23 19 -30 14 c-17 7 -57 39 -90 71 -33 32 -85 83
-115 112 -30 30 -72 61 -92 70 -42 17 -88 20 -88 6z m-110 -818 c0 -7 -4 -13
-10 -13 -5 0 -10 12 -10 28 0 21 2 24 10 12 5 -8 10 -21 10 -27z"/>
</g>
</svg>
