<?xml version="1.0" standalone="no"?>
<!DOCTYPE svg PUBLIC "-//W3C//DTD SVG 20010904//EN"
 "http://www.w3.org/TR/2001/REC-SVG-20010904/DTD/svg10.dtd">
<svg version="1.0" xmlns="http://www.w3.org/2000/svg"
 width="480.000000pt" height="360.000000pt" viewBox="0 0 480.000000 360.000000"
 preserveAspectRatio="xMidYMid meet">
<metadata>
Created by potrace 1.16, written by Peter Selinger 2001-2019
</metadata>
<rect width="1" height="360" fill="#000000"/>
<rect x="479" width="1" height="360" fill="#000000"/>
<rect width="480" height="1" fill="#000000"/>
<rect y="359" width="480" height="1" fill="#000000"/>
<g transform="translate(0.000000,360.000000) scale(0.100000,-0.100000)"
fill="#000000" stroke="none">
<path d="M0 1800 l0 -1800 989 0 990 0 5 42 c3 24 10 86 16 139 5 52 19 140
30 195 18 84 20 119 14 229 -4 87 -2 144 5 172 10 35 9 53 -5 99 -9 30 -13 65
-10 77 5 19 -11 107 -20 107 -2 0 -45 -15 -96 -34 -98 -35 -154 -62 -227 -108
-46 -29 -85 -36 -96 -18 -12 20 -26 9 -45 -35 -10 -24 -42 -78 -70 -119 -36
-55 -50 -85 -50 -110 0 -46 -14 -53 -45 -22 l-25 25 0 -29 c0 -34 -19 -39 -43
-12 -19 21 -21 49 -7 87 5 14 6 24 1 21 -11 -7 -41 -93 -41 -118 0 -24 -12
-23 -35 2 -22 24 -22 62 0 115 14 31 14 37 3 27 -8 -6 -21 -30 -28 -52 -7 -21
-24 -50 -37 -62 -24 -23 -25 -23 -39 -4 -23 32 -25 29 79 210 32 54 56 101 54
102 -2 2 -18 -2 -35 -8 -42 -16 -61 0 -45 35 8 17 32 32 78 50 73 29 171 91
186 119 5 10 16 18 25 18 8 0 27 12 41 26 21 21 50 32 132 49 101 22 218 58
278 87 24 11 29 21 33 63 3 33 -1 71 -13 110 -24 76 -18 157 19 251 47 124 84
248 84 288 0 35 7 46 63 101 34 33 72 67 83 75 12 8 25 28 28 44 l7 28 -34
-21 c-44 -27 -61 -26 -84 2 -10 13 -33 32 -50 42 -18 11 -33 25 -33 33 0 7
-16 20 -35 28 -39 16 -41 20 -20 48 36 48 4 85 -69 82 -40 -2 -51 2 -63 21 -8
13 -19 20 -24 17 -10 -6 -13 2 -24 51 -6 27 -8 28 -19 12 -7 -9 -15 -17 -18
-17 -6 0 28 180 48 249 13 43 29 68 69 109 l52 52 -24 67 c-13 37 -20 70 -15
75 21 21 119 33 148 18 13 -8 26 -11 28 -9 3 3 6 43 7 91 2 106 9 120 40 84
12 -14 26 -26 29 -26 4 0 15 20 24 44 26 67 36 71 82 35 94 -74 214 -237 214
-291 0 -11 16 -26 45 -39 59 -28 104 -81 159 -188 69 -135 103 -254 156 -556
18 -100 34 -150 101 -307 99 -234 137 -365 140 -473 2 -100 1 -108 -18 -175
-9 -30 -15 -82 -14 -115 4 -129 -41 -353 -83 -410 -13 -18 -14 -18 -10 10 4
26 2 25 -11 -9 -8 -21 -19 -44 -24 -50 -5 -6 -17 -49 -25 -96 -9 -46 -23 -95
-32 -108 -12 -18 -16 -68 -21 -235 -3 -117 -3 -234 1 -260 l7 -47 985 0 984 0
0 1800 0 1800 -2400 0 -2400 0 0 -1800z"/>
<path d="M2071 1068 c0 -7 4 -22 9 -33 7 -17 9 -15 9 13 1 17 -3 32 -9 32 -5
0 -10 -6 -9 -12z"/>
</g>
</svg>
