<?xml version="1.0" standalone="no"?>
<!DOCTYPE svg PUBLIC "-//W3C//DTD SVG 20010904//EN"
 "http://www.w3.org/TR/2001/REC-SVG-20010904/DTD/svg10.dtd">
<svg version="1.0" xmlns="http://www.w3.org/2000/svg"
 width="480.000000pt" height="360.000000pt" viewBox="0 0 480.000000 360.000000"
 preserveAspectRatio="xMidYMid meet">
<metadata>
Created by potrace 1.16, written by Peter Selinger 2001-2019
</metadata>
<rect width="1" height="360" fill="#000000"/>
<rect x="479" width="1" height="360" fill="#000000"/>
<rect width="480" height="1" fill="#000000"/>
<rect y="359" width="480" height="1" fill="#000000"/>
<g transform="translate(0.000000,360.000000) scale(0.100000,-0.100000)"
fill="#000000" stroke="none">
<path d="M0 2242 l0 -1359 87 13 c47 7 145 18 217 23 72 6 147 13 166 16 19 3
134 12 254 20 121 8 220 16 221 18 2 1 37 54 80 117 84 126 146 195 215 242
48 33 90 72 90 85 0 4 -28 36 -62 70 l-62 62 25 34 c52 73 118 142 233 244
311 276 432 421 784 938 53 77 106 154 118 172 22 32 23 41 40 276 l7 87 -55
0 c-43 0 -64 6 -100 29 -71 45 -146 151 -181 254 -6 16 -65 17 -1042 17
l-1035 0 0 -1358z"/>
<path d="M3201 3513 c-27 -191 -112 -694 -135 -793 -39 -172 -55 -203 -182
-361 -384 -476 -542 -723 -672 -1049 -43 -108 -99 -218 -138 -271 -18 -25 -31
-49 -27 -53 3 -3 36 -6 72 -6 69 0 486 -26 559 -35 23 -3 62 -8 87 -11 l46 -5
63 133 c35 73 72 153 83 178 11 25 45 78 76 119 l56 75 -64 62 c-46 44 -65 69
-65 87 0 30 100 233 135 275 14 17 25 33 25 36 0 4 31 53 68 109 192 288 304
538 517 1147 12 36 42 121 67 190 l44 125 -30 67 -31 68 -271 0 -271 0 -12
-87z"/>
<path d="M4769 3115 c-109 -207 -266 -521 -314 -625 -31 -69 -64 -138 -72
-155 -32 -67 -113 -277 -146 -380 -34 -107 -52 -178 -103 -415 -30 -137 -54
-216 -102 -328 -36 -85 -51 -101 -116 -116 -23 -6 -27 -11 -22 -29 4 -12 9
-88 13 -170 l6 -147 36 -9 c20 -5 110 -28 201 -51 153 -38 385 -106 568 -166
41 -13 77 -23 79 -21 2 2 2 602 1 1333 l-3 1329 -26 -50z"/>
<path d="M1871 484 c-40 -28 -82 -31 -123 -6 -29 17 -30 17 -88 -15 -75 -42
-130 -44 -165 -7 l-24 26 -57 -41 c-69 -49 -112 -54 -149 -16 -14 13 -25 29
-25 35 0 7 -29 -11 -64 -39 -69 -55 -92 -61 -137 -34 -25 15 -35 31 -53 86 -4
13 -16 17 -48 17 -66 0 -631 -47 -794 -66 l-144 -17 0 -204 0 -203 2388 0
2387 1 -50 20 c-106 42 -497 160 -730 219 -155 39 -387 90 -411 90 -7 0 -24
-20 -39 -45 -14 -25 -37 -52 -50 -61 -21 -14 -26 -14 -54 1 -18 9 -43 37 -59
65 -15 27 -29 50 -33 50 -3 0 -13 -24 -23 -52 -30 -86 -41 -98 -87 -98 -42 0
-72 22 -111 80 l-16 25 -12 -33 c-19 -53 -91 -56 -155 -7 -27 20 -34 33 -39
79 -5 35 -3 63 4 76 6 12 10 23 8 26 -13 13 -452 50 -748 64 -269 12 -258 13
-299 -16z"/>
</g>
</svg>
