<?xml version="1.0" standalone="no"?>
<!DOCTYPE svg PUBLIC "-//W3C//DTD SVG 20010904//EN"
 "http://www.w3.org/TR/2001/REC-SVG-20010904/DTD/svg10.dtd">
<svg version="1.0" xmlns="http://www.w3.org/2000/svg"
 width="480.000000pt" height="360.000000pt" viewBox="0 0 480.000000 360.000000"
 preserveAspectRatio="xMidYMid meet">
<metadata>
Created by potrace 1.16, written by Peter Selinger 2001-2019
</metadata>
<rect width="1" height="360" fill="#000000"/>
<rect x="479" width="1" height="360" fill="#000000"/>
<rect width="480" height="1" fill="#000000"/>
<rect y="359" width="480" height="1" fill="#000000"/>
<g transform="translate(0.000000,360.000000) scale(0.100000,-0.100000)"
fill="#000000" stroke="none">
<path d="M0 1800 l0 -1800 999 0 999 0 -17 43 c-14 36 -16 96 -16 445 0 385
-1 403 -19 408 -18 6 -18 17 -13 248 5 222 17 330 42 390 5 11 4 17 -1 15 -5
-2 -44 -21 -87 -42 -105 -51 -145 -52 -192 -7 -24 24 -35 43 -35 63 0 17 33
93 78 181 42 83 76 159 74 169 -2 10 -13 17 -27 17 -30 0 -42 18 -18 26 36 11
63 28 63 37 0 14 -183 215 -197 216 -6 1 -13 -4 -15 -11 -3 -8 -11 -9 -24 -3
-10 5 -26 9 -34 9 -12 1 -16 17 -18 71 -5 118 -37 179 -81 156 -11 -6 -31 -11
-45 -11 -20 0 -26 5 -26 21 0 12 8 23 20 26 11 3 20 13 20 22 0 9 5 22 10 27
7 7 2 32 -15 77 -16 43 -25 88 -25 124 0 54 2 58 46 100 59 54 87 56 136 7 47
-45 53 -66 32 -99 -25 -39 -51 -50 -59 -25 -3 11 -11 20 -16 20 -16 0 -10 -26
12 -46 11 -10 27 -34 35 -52 13 -32 16 -34 48 -28 46 9 54 -7 22 -49 -14 -18
-26 -36 -26 -38 0 -7 49 -24 108 -38 61 -15 86 -44 58 -65 -16 -11 -15 -14 6
-37 13 -14 67 -64 122 -112 54 -47 109 -99 122 -114 20 -25 35 -30 106 -39 90
-11 98 -8 98 37 l0 24 -25 -23 c-28 -26 -30 -24 -14 17 6 15 15 53 20 83 5 30
11 69 15 85 5 24 4 28 -7 17 -20 -19 -25 -15 -38 28 -6 22 -15 40 -19 40 -4 0
-8 32 -9 72 -4 114 28 170 137 242 19 13 33 29 32 37 -23 93 -11 112 67 107
l56 -3 24 48 c13 26 30 47 39 47 24 0 82 -49 82 -71 0 -23 11 -24 49 -4 32 16
46 8 53 -30 3 -17 12 -21 58 -23 33 -2 62 -10 73 -20 28 -25 47 -79 47 -133 0
-39 8 -60 40 -112 57 -91 70 -157 46 -248 -10 -39 -29 -97 -42 -130 -26 -63
-31 -133 -12 -174 14 -31 6 -40 -21 -23 -25 15 -37 4 -48 -45 -10 -49 -22 -39
-18 15 l5 53 -15 -46 c-9 -25 -24 -64 -35 -85 l-19 -39 -1 35 c0 27 -3 31 -10
20 -9 -13 -12 -13 -21 3 -16 28 -28 20 -35 -23 -4 -22 -10 -40 -14 -40 -5 0
-9 -26 -9 -58 -1 -76 -22 -155 -78 -282 -122 -282 -127 -295 -124 -347 1 -16
7 -23 22 -23 12 0 42 -11 68 -24 25 -14 71 -35 101 -47 96 -40 118 -59 140
-119 11 -30 31 -76 45 -103 16 -29 25 -63 25 -90 0 -54 -23 -133 -46 -158 -17
-18 -15 -27 39 -197 31 -97 68 -220 83 -272 14 -52 27 -101 29 -108 4 -9 194
-12 910 -12 l905 0 0 1800 0 1800 -2400 0 -2400 0 0 -1800z"/>
<path d="M2290 2089 c0 -5 5 -7 10 -4 6 3 10 8 10 11 0 2 -4 4 -10 4 -5 0 -10
-5 -10 -11z"/>
<path d="M2330 2080 c0 -5 5 -10 10 -10 6 0 10 5 10 10 0 6 -4 10 -10 10 -5 0
-10 -4 -10 -10z"/>
<path d="M2752 1950 c0 -14 2 -19 5 -12 2 6 2 18 0 25 -3 6 -5 1 -5 -13z"/>
</g>
</svg>
