<?xml version="1.0" standalone="no"?>
<!DOCTYPE svg PUBLIC "-//W3C//DTD SVG 20010904//EN"
 "http://www.w3.org/TR/2001/REC-SVG-20010904/DTD/svg10.dtd">
<svg version="1.0" xmlns="http://www.w3.org/2000/svg"
 width="480.000000pt" height="360.000000pt" viewBox="0 0 480.000000 360.000000"
 preserveAspectRatio="xMidYMid meet">
<metadata>
Created by potrace 1.16, written by Peter Selinger 2001-2019
</metadata>
<rect width="1" height="360" fill="#000000"/>
<rect x="479" width="1" height="360" fill="#000000"/>
<rect width="480" height="1" fill="#000000"/>
<rect y="359" width="480" height="1" fill="#000000"/>
<g transform="translate(0.000000,360.000000) scale(0.100000,-0.100000)"
fill="#000000" stroke="none">
<path d="M1620 3590 c0 -6 7 -24 15 -39 21 -42 33 -104 45 -237 6 -65 17 -150
25 -189 36 -177 45 -256 45 -420 0 -93 -5 -188 -11 -210 -6 -22 -37 -75 -69
-117 -37 -50 -74 -116 -105 -190 -26 -62 -77 -168 -112 -234 -64 -122 -64
-122 -83 -268 -26 -199 -36 -252 -65 -337 -32 -92 -31 -101 5 -122 23 -14 30
-25 28 -45 0 -15 2 -45 6 -67 6 -35 3 -47 -26 -90 -47 -73 -59 -96 -52 -106
10 -17 33 -9 65 23 36 37 36 37 8 -59 -9 -30 -10 -46 -3 -53 19 -19 42 1 65
56 13 30 26 50 29 44 3 -6 2 -44 -3 -86 -7 -59 -6 -79 4 -85 7 -4 17 -5 21 -3
19 12 39 67 45 124 7 76 22 73 46 -7 18 -62 50 -107 70 -100 15 5 10 43 -13
116 -9 31 -21 71 -25 89 -6 30 -5 32 19 32 35 0 33 21 -5 64 -43 50 -48 96
-15 129 22 23 26 35 26 89 1 107 62 431 93 493 21 41 57 96 68 105 15 11 120
198 133 235 61 174 53 159 180 308 13 15 31 27 41 27 14 0 14 -4 -5 -30 -16
-22 -19 -34 -11 -47 13 -24 -13 -73 -39 -73 -22 0 -65 -73 -56 -95 6 -18 -27
-105 -46 -119 -24 -18 -66 -116 -79 -186 -7 -36 -18 -83 -24 -105 -10 -31 -10
-43 0 -60 11 -16 11 -29 -1 -70 -15 -58 -9 -109 19 -147 16 -22 18 -30 8 -42
-11 -13 -8 -19 13 -39 14 -13 26 -29 26 -35 0 -19 61 -69 100 -82 67 -22 96
-9 209 97 l103 97 106 27 c59 14 121 33 139 42 41 22 57 21 145 -2 203 -54
368 -23 540 103 97 71 120 143 98 313 -19 144 -14 284 13 358 11 33 27 66 34
73 18 19 16 24 -7 17 -18 -6 -20 -3 -14 21 8 32 5 31 -80 -35 -39 -30 -79 -77
-119 -136 -67 -99 -112 -145 -141 -145 -17 0 -119 85 -138 115 -4 6 11 50 33
99 21 49 39 93 39 100 1 6 9 29 20 51 11 22 19 50 20 61 0 12 6 39 14 61 9 24
13 74 12 129 -2 133 -35 179 -150 209 -32 8 -61 17 -64 19 -2 3 19 34 48 70
36 47 50 71 45 85 -7 24 37 141 70 185 24 31 84 172 99 230 l6 26 -740 0
c-510 0 -740 -3 -740 -10z"/>
<path d="M4320 1800 l0 -1800 240 0 240 0 0 1800 0 1800 -240 0 -240 0 0
-1800z"/>
</g>
</svg>
