<?xml version="1.0" standalone="no"?>
<!DOCTYPE svg PUBLIC "-//W3C//DTD SVG 20010904//EN"
 "http://www.w3.org/TR/2001/REC-SVG-20010904/DTD/svg10.dtd">
<svg version="1.0" xmlns="http://www.w3.org/2000/svg"
 width="480.000000pt" height="360.000000pt" viewBox="0 0 480.000000 360.000000"
 preserveAspectRatio="xMidYMid meet">
<metadata>
Created by potrace 1.16, written by Peter Selinger 2001-2019
</metadata>
<rect width="1" height="360" fill="#000000"/>
<rect x="479" width="1" height="360" fill="#000000"/>
<rect width="480" height="1" fill="#000000"/>
<rect y="359" width="480" height="1" fill="#000000"/>
<g transform="translate(0.000000,360.000000) scale(0.100000,-0.100000)"
fill="#000000" stroke="none">
<path d="M2706 3503 c-34 -480 -116 -924 -347 -1878 -152 -632 -234 -1102
-264 -1527 l-7 -98 1108 0 1108 0 -92 45 c-106 51 -279 165 -460 301 -70 53
-131 101 -137 106 -16 15 33 50 115 82 122 47 319 144 374 183 60 44 156 133
156 145 0 4 -24 8 -54 8 -52 0 -177 35 -241 68 -60 30 -164 105 -159 113 3 5
14 9 26 9 17 0 20 4 15 30 -4 16 -2 32 3 35 10 6 85 -29 94 -44 3 -5 14 -7 24
-4 19 4 38 -12 57 -51 11 -22 45 -33 113 -35 54 -1 55 17 1 21 -51 4 -75 31
-46 53 35 26 193 32 264 10 17 -6 24 -1 38 29 10 20 20 36 24 36 4 0 91 -36
194 -79 l187 -79 0 1309 0 1309 -1044 0 -1043 0 -7 -97z"/>
<path d="M0 3115 l0 -275 93 -46 c86 -43 277 -165 376 -241 24 -18 54 -33 66
-33 13 0 43 20 71 45 26 25 52 45 57 45 5 0 40 -9 78 -21 60 -18 88 -20 231
-17 182 3 221 14 226 59 4 34 -30 49 -111 49 -64 0 -94 10 -83 28 10 17 53 20
149 10 71 -7 96 -14 110 -29 14 -15 26 -19 47 -14 23 5 31 1 50 -25 12 -17 40
-43 62 -58 23 -15 52 -35 66 -44 34 -23 55 -13 50 24 -3 21 0 32 14 39 10 5
18 17 18 26 0 21 -62 78 -111 104 -22 11 -64 42 -93 68 -30 27 -65 52 -78 56
-12 4 -34 15 -48 25 -14 10 -63 34 -110 54 -83 36 -87 37 -200 35 l-114 -3 -8
31 c-12 45 -34 59 -141 87 -147 39 -283 96 -480 201 -98 52 -180 95 -183 95
-2 0 -4 -124 -4 -275z"/>
</g>
</svg>
