<?xml version="1.0" standalone="no"?>
<!DOCTYPE svg PUBLIC "-//W3C//DTD SVG 20010904//EN"
 "http://www.w3.org/TR/2001/REC-SVG-20010904/DTD/svg10.dtd">
<svg version="1.0" xmlns="http://www.w3.org/2000/svg"
 width="480.000000pt" height="360.000000pt" viewBox="0 0 480.000000 360.000000"
 preserveAspectRatio="xMidYMid meet">
<metadata>
Created by potrace 1.16, written by Peter Selinger 2001-2019
</metadata>
<rect width="1" height="360" fill="#000000"/>
<rect x="479" width="1" height="360" fill="#000000"/>
<rect width="480" height="1" fill="#000000"/>
<rect y="359" width="480" height="1" fill="#000000"/>
<g transform="translate(0.000000,360.000000) scale(0.100000,-0.100000)"
fill="#000000" stroke="none">
<path d="M0 1800 l0 -1800 232 2 232 3 38 53 c34 50 44 80 63 192 5 30 3 36
-17 45 -33 14 -46 81 -25 132 8 21 13 50 10 64 -3 17 2 31 16 43 23 21 26 37
12 64 -11 22 -31 85 -31 99 0 6 9 13 20 16 17 4 20 14 20 66 0 49 3 62 19 71
13 6 24 29 31 67 7 32 20 79 30 105 20 52 11 72 -27 62 -20 -5 -20 -3 -12 43
13 68 12 67 72 112 45 32 58 50 70 88 24 73 29 140 18 226 -10 73 -48 247 -57
256 -2 2 -10 -2 -19 -9 -12 -10 -24 -10 -60 0 -44 12 -55 23 -35 35 5 3 10 23
10 43 0 20 9 64 20 96 33 98 28 129 -30 190 -97 103 -155 279 -148 450 8 181
56 265 230 403 180 143 261 193 363 226 65 21 369 87 400 87 13 0 26 3 28 8 3
4 -1 39 -8 77 -17 92 -24 165 -16 165 8 0 80 -84 174 -202 42 -53 95 -110 119
-126 100 -70 198 -199 237 -313 24 -72 65 -133 98 -148 14 -7 53 -18 86 -26
52 -12 65 -12 95 1 49 20 75 18 101 -10 15 -16 29 -22 46 -18 33 6 33 -13 0
-117 -31 -96 -47 -106 -107 -66 -37 24 -42 25 -56 11 -13 -13 -13 -20 -4 -38
22 -42 42 -123 32 -126 -6 -2 -10 -16 -10 -30 0 -32 -30 -122 -47 -139 -9 -10
-12 -9 -16 5 -3 9 -5 -3 -6 -27 -1 -33 -4 -42 -15 -38 -8 3 -17 1 -20 -6 -3
-9 -7 -8 -14 2 -9 12 -13 12 -26 2 -9 -8 -16 -20 -16 -28 0 -8 -4 -12 -9 -9
-5 3 -16 -5 -25 -19 -16 -25 -13 -58 14 -164 6 -24 6 -39 -2 -48 -9 -11 -3
-30 24 -83 20 -39 33 -70 30 -70 -3 0 -23 16 -43 36 -35 34 -38 35 -48 17 -8
-16 -3 -30 25 -71 19 -29 39 -64 44 -78 10 -25 9 -25 -22 -19 -18 4 -47 13
-65 21 -32 13 -33 12 -54 -26 -26 -45 -46 -57 -118 -64 -29 -3 -58 -10 -65
-15 -6 -5 -28 -12 -49 -16 -35 -7 -38 -10 -35 -39 3 -29 8 -33 68 -53 71 -24
429 -128 470 -137 14 -3 41 -21 59 -40 33 -34 34 -37 18 -54 -25 -27 -21 -77
9 -122 15 -22 28 -40 30 -40 1 0 29 11 61 25 111 47 339 79 513 71 184 -8 235
-13 297 -31 30 -9 69 -18 85 -20 35 -4 200 -65 273 -101 244 -118 459 -294
610 -498 31 -42 83 -123 116 -179 55 -96 58 -103 41 -118 -9 -9 -82 -47 -162
-85 -80 -38 -163 -79 -185 -91 l-40 -23 418 0 417 0 0 1800 0 1800 -2400 0
-2400 0 0 -1800z m2430 1216 c0 -3 -4 -8 -10 -11 -5 -3 -10 -1 -10 4 0 6 5 11
10 11 6 0 10 -2 10 -4z m2228 -324 c3 -9 -3 -13 -19 -10 -12 1 -24 9 -27 16
-3 9 3 13 19 10 12 -1 24 -9 27 -16z m-1740 -622 c23 -10 42 -23 42 -28 0 -5
-11 -19 -25 -32 l-25 -23 -77 29 c-43 16 -77 34 -77 39 2 16 47 35 84 35 19 0
54 -9 78 -20z m-2408 -40 c0 -5 -9 -14 -20 -20 -16 -8 -20 -8 -20 4 0 13 13
23 33 25 4 1 7 -3 7 -9z m-426 -98 c8 -13 -54 -46 -66 -34 -6 6 -2 15 13 26
26 18 45 20 53 8z m4661 -305 c11 -9 14 -16 7 -21 -15 -9 -42 4 -42 20 0 18
11 18 35 1z m-485 -377 c0 -5 -6 -10 -14 -10 -8 0 -18 5 -21 10 -3 6 3 10 14
10 12 0 21 -4 21 -10z"/>
<path d="M2076 168 c-16 -50 -46 -157 -46 -162 0 -3 29 -6 65 -6 l65 0 0 64
c0 63 0 64 -40 90 -29 19 -42 23 -44 14z"/>
</g>
</svg>
