<?xml version="1.0" standalone="no"?>
<!DOCTYPE svg PUBLIC "-//W3C//DTD SVG 20010904//EN"
 "http://www.w3.org/TR/2001/REC-SVG-20010904/DTD/svg10.dtd">
<svg version="1.0" xmlns="http://www.w3.org/2000/svg"
 width="480.000000pt" height="360.000000pt" viewBox="0 0 480.000000 360.000000"
 preserveAspectRatio="xMidYMid meet">
<metadata>
Created by potrace 1.16, written by Peter Selinger 2001-2019
</metadata>
<rect width="1" height="360" fill="#000000"/>
<rect x="479" width="1" height="360" fill="#000000"/>
<rect width="480" height="1" fill="#000000"/>
<rect y="359" width="480" height="1" fill="#000000"/>
<g transform="translate(0.000000,360.000000) scale(0.100000,-0.100000)"
fill="#000000" stroke="none">
<path d="M0 1800 l0 -1800 885 0 884 0 10 38 c6 20 24 89 40 152 29 111 136
454 148 473 3 5 -2 5 -13 -1 -13 -7 -26 -6 -46 4 -25 13 -31 13 -53 -2 -35
-23 -75 -26 -102 -9 -16 11 -23 12 -26 2 -3 -9 -9 -7 -22 5 -15 14 -16 26 -10
82 6 64 8 67 55 103 27 21 48 43 47 48 -1 6 40 94 91 197 115 230 136 300 138
463 1 82 7 134 18 164 l17 45 -24 -22 c-56 -53 -54 -8 3 53 24 26 31 45 44
138 9 59 16 139 16 177 0 70 0 70 -25 64 -25 -6 -65 17 -65 38 0 4 -9 27 -20
51 -55 121 -69 177 -51 205 14 23 156 37 239 23 46 -8 78 -9 85 -3 19 15 181
24 194 11 8 -8 24 -7 60 6 27 10 92 19 149 22 95 5 102 4 116 -16 12 -16 13
-34 6 -81 -4 -34 -13 -71 -20 -83 -7 -12 -11 -26 -10 -31 2 -5 -3 -16 -11 -25
-7 -9 -19 -29 -27 -44 -9 -18 -25 -30 -43 -34 -26 -5 -27 -8 -20 -37 11 -44
10 -126 -2 -127 -24 -1 -34 -48 -35 -156 l0 -112 35 -27 c24 -18 35 -34 35
-53 0 -66 19 -329 26 -356 4 -16 54 -102 111 -189 63 -97 103 -166 100 -177
-3 -11 11 -32 38 -59 53 -52 73 -111 55 -164 -13 -40 -30 -48 -30 -14 l0 22
-16 -22 c-19 -28 -63 -29 -98 -1 -31 24 -34 43 -6 34 33 -10 25 27 -14 64 -33
32 -33 32 -40 9 -3 -13 -6 -36 -6 -53 -1 -16 -7 -47 -14 -68 -14 -37 -12 -45
49 -228 35 -105 71 -227 80 -272 8 -45 23 -115 32 -154 l16 -73 913 0 914 0 0
1800 0 1800 -2400 0 -2400 0 0 -1800z"/>
<path d="M1837 710 c-4 -15 0 -20 14 -20 21 0 22 1 13 24 -8 22 -21 20 -27 -4z"/>
</g>
</svg>
