<?xml version="1.0" standalone="no"?>
<!DOCTYPE svg PUBLIC "-//W3C//DTD SVG 20010904//EN"
 "http://www.w3.org/TR/2001/REC-SVG-20010904/DTD/svg10.dtd">
<svg version="1.0" xmlns="http://www.w3.org/2000/svg"
 width="480.000000pt" height="360.000000pt" viewBox="0 0 480.000000 360.000000"
 preserveAspectRatio="xMidYMid meet">
<metadata>
Created by potrace 1.16, written by Peter Selinger 2001-2019
</metadata>
<rect width="1" height="360" fill="#000000"/>
<rect x="479" width="1" height="360" fill="#000000"/>
<rect width="480" height="1" fill="#000000"/>
<rect y="359" width="480" height="1" fill="#000000"/>
<g transform="translate(0.000000,360.000000) scale(0.100000,-0.100000)"
fill="#000000" stroke="none">
<path d="M1765 3570 c-17 -11 -24 -20 -15 -20 11 -1 10 -4 -5 -16 -17 -13 -20
-25 -18 -82 3 -77 30 -248 44 -274 5 -9 9 -31 9 -48 0 -17 5 -41 12 -53 6 -12
13 -38 15 -57 2 -19 10 -41 17 -50 7 -8 16 -22 19 -31 7 -20 73 -32 99 -18 29
16 34 3 13 -39 -12 -24 -20 -67 -23 -128 -4 -83 -2 -95 22 -140 14 -27 26 -44
26 -39 0 22 20 -22 20 -44 0 -14 12 -63 26 -110 26 -84 26 -88 15 -211 -7 -69
-14 -152 -17 -185 -7 -95 -18 -116 -83 -164 -33 -23 -64 -55 -70 -69 -5 -15
-13 -97 -17 -183 -3 -86 -9 -161 -13 -166 -3 -5 -28 -15 -56 -22 -57 -14 -71
-24 -90 -61 -20 -38 -5 -92 39 -140 41 -46 41 -42 21 -214 -14 -114 -22 -144
-64 -245 -122 -293 -221 -551 -221 -580 0 -21 11 -43 35 -70 26 -29 35 -47 35
-75 l0 -36 825 0 c529 0 825 3 825 10 0 5 -14 44 -32 87 -22 55 -32 97 -34
143 -4 104 -4 106 -44 290 -63 290 -64 298 -50 408 7 53 14 111 15 127 2 28 5
30 41 27 22 -2 44 -8 51 -14 27 -22 47 -168 78 -577 24 -311 28 -351 41 -456
l5 -45 330 0 329 0 0 30 c0 16 9 68 20 115 11 47 20 99 20 116 0 18 -44 115
-114 252 -62 122 -131 265 -152 317 -36 89 -145 292 -209 388 l-28 43 16 53
c26 82 23 108 -20 150 -27 26 -49 37 -82 42 -25 4 -51 11 -58 16 -7 6 -35 56
-62 111 -44 91 -75 150 -102 197 -5 8 -11 20 -13 25 -7 18 -37 398 -31 403 2
3 9 -8 15 -24 14 -39 62 -134 70 -139 3 -2 -2 35 -12 83 -23 117 -51 303 -45
309 3 2 19 5 36 5 18 1 39 10 52 24 29 31 22 74 -31 182 -26 52 -40 94 -38
111 l3 28 55 -19 c87 -31 109 -33 125 -12 8 11 12 27 9 37 -4 11 0 17 11 17
11 0 15 5 11 15 -3 9 1 18 9 21 17 7 55 121 55 168 0 18 6 36 13 39 8 3 12 22
12 48 0 29 5 49 17 61 12 12 16 26 12 42 -3 13 -1 27 5 30 14 9 3 68 -15 82
-8 6 -12 18 -9 26 3 8 -3 22 -13 31 -22 20 -200 64 -296 73 -155 14 -366 -45
-366 -103 0 -16 -16 -17 -26 -2 -30 49 -245 70 -298 28 -20 -15 -26 -17 -26
-6 0 46 -105 109 -245 147 -61 16 -118 23 -240 26 -147 4 -162 2 -190 -16z"/>
</g>
</svg>
