<?xml version="1.0" standalone="no"?>
<!DOCTYPE svg PUBLIC "-//W3C//DTD SVG 20010904//EN"
 "http://www.w3.org/TR/2001/REC-SVG-20010904/DTD/svg10.dtd">
<svg version="1.0" xmlns="http://www.w3.org/2000/svg"
 width="480.000000pt" height="360.000000pt" viewBox="0 0 480.000000 360.000000"
 preserveAspectRatio="xMidYMid meet">
<metadata>
Created by potrace 1.16, written by Peter Selinger 2001-2019
</metadata>
<rect width="1" height="360" fill="#000000"/>
<rect x="479" width="1" height="360" fill="#000000"/>
<rect width="480" height="1" fill="#000000"/>
<rect y="359" width="480" height="1" fill="#000000"/>
<g transform="translate(0.000000,360.000000) scale(0.100000,-0.100000)"
fill="#000000" stroke="none">
<path d="M3366 3446 c-114 -27 -126 -36 -145 -120 -15 -66 -21 -70 -126 -80
-126 -13 -188 -43 -301 -148 -68 -64 -113 -138 -114 -188 -1 -14 -7 -36 -15
-50 -23 -40 -17 -54 10 -23 l24 28 -18 -55 c-24 -70 -33 -120 -22 -120 4 0 13
10 19 23 9 20 11 17 11 -21 1 -26 5 -41 11 -37 6 4 10 -6 10 -22 0 -22 2 -25
10 -13 8 12 10 11 10 -7 0 -12 5 -25 10 -28 6 -4 10 8 10 29 0 20 5 36 10 36
6 0 10 -22 10 -50 0 -27 1 -53 2 -57 1 -5 -20 -19 -45 -32 -54 -27 -59 -46
-21 -82 21 -20 25 -30 20 -58 -3 -19 -1 -40 5 -47 6 -7 12 -23 15 -36 17 -104
26 -135 41 -145 10 -8 49 -13 99 -13 51 0 86 -4 90 -11 4 -7 9 -53 12 -103 l5
-92 -39 -29 c-22 -16 -66 -55 -99 -86 -33 -31 -71 -60 -85 -64 -39 -11 -79
-55 -91 -100 -6 -22 -26 -56 -44 -75 -38 -39 -55 -77 -55 -122 0 -16 -9 -43
-21 -59 -16 -23 -20 -40 -17 -72 5 -51 -7 -83 -61 -160 -28 -39 -41 -67 -39
-84 7 -64 -22 -23 -71 99 -30 73 -62 147 -72 164 -14 23 -19 51 -19 100 0 38
-5 98 -10 133 -6 35 -10 65 -8 66 2 1 66 -4 143 -11 168 -16 235 -17 235 -5 0
14 -25 21 -207 56 l-171 32 -54 55 c-62 63 -122 88 -163 70 -14 -7 -41 -12
-59 -12 -19 0 -39 -7 -47 -16 -7 -8 -29 -24 -50 -35 -33 -16 -44 -17 -93 -7
-31 6 -60 8 -64 4 -9 -10 36 -44 72 -54 24 -6 31 -16 43 -57 21 -71 27 -79 58
-85 43 -8 108 -136 130 -254 9 -49 38 -159 66 -244 27 -85 48 -157 45 -159
-10 -10 -84 47 -111 87 -16 23 -61 64 -100 91 -38 27 -108 76 -155 108 -47 32
-101 79 -120 103 -19 25 -84 105 -145 177 -60 73 -123 150 -139 172 -24 31
-34 37 -53 33 -18 -5 -32 0 -51 18 -18 17 -38 25 -59 25 -28 0 -34 -5 -44 -36
-7 -20 -20 -48 -31 -63 l-18 -26 59 -74 c32 -40 92 -113 134 -163 63 -75 75
-94 70 -117 -4 -19 5 -45 31 -92 20 -35 36 -77 36 -93 0 -28 53 -141 91 -194
15 -21 31 -29 67 -34 26 -4 77 -17 114 -30 37 -13 95 -31 130 -40 131 -33 178
-55 198 -94 26 -52 84 -102 246 -213 169 -116 176 -123 145 -145 -51 -35 -68
-152 -31 -208 11 -16 20 -47 20 -67 l0 -38 635 0 635 0 0 29 c0 32 -67 139
-107 171 -14 11 -33 20 -43 20 -14 0 -20 19 -33 103 -30 188 -47 368 -45 472
3 97 2 105 -21 129 -14 14 -32 26 -41 26 -13 0 -16 6 -12 25 5 30 7 30 39 5
22 -17 41 -20 119 -20 93 0 106 4 82 28 -9 9 3 12 55 12 61 0 82 9 57 25 -24
15 -6 25 43 26 64 1 107 12 90 22 -10 6 -9 18 4 50 32 84 53 89 53 14 0 -64 6
-73 31 -44 l18 22 1 -28 c0 -16 -4 -37 -10 -47 -14 -26 -43 -201 -35 -208 4
-4 15 4 24 18 26 41 84 97 77 76 -7 -20 -31 -172 -40 -251 -5 -49 -5 -49 12
-29 9 12 22 29 27 39 7 11 9 -22 7 -109 -2 -69 0 -126 5 -126 4 0 22 20 38 45
17 24 33 45 36 45 3 0 0 -28 -7 -63 -22 -116 -24 -137 -9 -137 7 0 38 22 68
50 l54 49 -23 -97 c-30 -120 -30 -121 2 -91 l26 24 -7 -50 -7 -50 26 30 c20
24 25 26 26 12 0 -33 18 -8 35 48 16 56 54 130 62 121 3 -3 -2 -27 -12 -55
-13 -39 -64 -295 -65 -323 0 -4 94 -7 209 -8 l209 -1 6 23 c3 13 6 37 7 53 0
17 5 39 10 50 6 14 8 -2 5 -52 l-5 -73 30 0 29 0 0 829 0 829 -74 41 c-273
150 -517 374 -656 605 l-23 38 -18 -46 c-9 -25 -37 -67 -62 -92 l-45 -46 -7
59 c-4 32 -14 99 -23 148 -17 97 -17 100 -7 250 7 93 5 109 -25 220 -35 134
-70 203 -143 287 -47 54 -49 59 -38 89 19 56 13 81 -34 141 -50 64 -123 118
-157 117 -13 0 -68 -11 -122 -23z m494 -1244 c12 -119 12 -135 -3 -149 -14
-14 -16 -12 -26 26 -6 22 -16 60 -22 83 -11 44 -8 94 12 162 16 58 24 32 39
-122z m-160 -331 c0 -6 -4 -13 -10 -16 -5 -3 -10 1 -10 9 0 9 5 16 10 16 6 0
10 -4 10 -9z m-170 -131 c0 -5 -5 -10 -11 -10 -5 0 -7 5 -4 10 3 6 8 10 11 10
2 0 4 -4 4 -10z m-90 -26 c11 -29 3 -54 -11 -33 -9 15 -12 59 -4 59 3 0 10
-12 15 -26z m415 -605 c11 -17 -1 -21 -15 -4 -8 9 -8 15 -2 15 6 0 14 -5 17
-11z m-456 -374 c13 -66 27 -335 18 -335 -3 0 -18 33 -33 73 -15 39 -31 77
-36 84 -9 11 -2 93 18 227 8 49 18 34 33 -49z"/>
</g>
</svg>
