<?xml version="1.0" standalone="no"?>
<!DOCTYPE svg PUBLIC "-//W3C//DTD SVG 20010904//EN"
 "http://www.w3.org/TR/2001/REC-SVG-20010904/DTD/svg10.dtd">
<svg version="1.0" xmlns="http://www.w3.org/2000/svg"
 width="480.000000pt" height="360.000000pt" viewBox="0 0 480.000000 360.000000"
 preserveAspectRatio="xMidYMid meet">
<metadata>
Created by potrace 1.16, written by Peter Selinger 2001-2019
</metadata>
<rect width="1" height="360" fill="#000000"/>
<rect x="479" width="1" height="360" fill="#000000"/>
<rect width="480" height="1" fill="#000000"/>
<rect y="359" width="480" height="1" fill="#000000"/>
<g transform="translate(0.000000,360.000000) scale(0.100000,-0.100000)"
fill="#000000" stroke="none">
<path d="M0 2709 c0 -844 1 -891 18 -886 139 46 262 67 512 87 235 18 646 39
910 45 140 4 287 8 325 10 39 2 433 4 876 4 l806 1 6 48 c3 26 11 60 18 76 11
24 17 27 43 22 43 -9 64 -33 68 -75 3 -35 4 -36 43 -33 22 1 57 3 77 3 20 0
40 4 43 9 3 6 25 10 49 10 24 0 56 6 72 14 50 25 92 9 134 -53 20 -29 43 -57
51 -61 8 -5 115 -14 238 -21 212 -12 225 -11 235 5 74 123 144 201 234 261
l42 28 0 698 0 699 -2400 0 -2400 0 0 -891z m4170 357 c0 -13 -20 -26 -41 -26
-16 0 -9 28 9 33 29 8 32 7 32 -7z"/>
<path d="M3590 1743 c-1 -66 -27 -117 -63 -121 -38 -5 -64 29 -70 91 -2 26 -7
51 -11 55 -13 13 -1737 15 -2121 3 -384 -13 -1022 -45 -1195 -61 -58 -5 -111
-9 -117 -10 -10 0 -13 -177 -13 -850 l0 -850 2400 0 2400 0 0 386 0 387 -36
39 c-47 53 -74 113 -73 168 0 51 19 113 43 139 20 22 20 47 -1 114 l-16 55
-56 12 c-31 7 -105 35 -166 62 -293 134 -292 133 -495 192 -63 19 -150 49
-193 67 -67 27 -88 43 -140 101 -34 37 -65 68 -69 68 -5 0 -8 -21 -8 -47z"/>
<path d="M4100 1783 c0 -19 363 -154 376 -140 1 1 6 30 9 63 l7 61 -68 6
c-161 15 -324 19 -324 10z"/>
</g>
</svg>
