<?xml version="1.0" standalone="no"?>
<!DOCTYPE svg PUBLIC "-//W3C//DTD SVG 20010904//EN"
 "http://www.w3.org/TR/2001/REC-SVG-20010904/DTD/svg10.dtd">
<svg version="1.0" xmlns="http://www.w3.org/2000/svg"
 width="480.000000pt" height="360.000000pt" viewBox="0 0 480.000000 360.000000"
 preserveAspectRatio="xMidYMid meet">
<metadata>
Created by potrace 1.16, written by Peter Selinger 2001-2019
</metadata>
<rect width="1" height="360" fill="#000000"/>
<rect x="479" width="1" height="360" fill="#000000"/>
<rect width="480" height="1" fill="#000000"/>
<rect y="359" width="480" height="1" fill="#000000"/>
<g transform="translate(0.000000,360.000000) scale(0.100000,-0.100000)"
fill="#000000" stroke="none">
<path d="M1730 3593 c1 -35 23 -151 35 -190 47 -143 176 -307 286 -364 63 -32
135 -31 185 2 21 14 57 32 79 39 22 7 60 28 84 46 41 31 45 33 56 16 7 -9 15
-27 19 -39 4 -13 12 -23 17 -23 14 0 10 64 -6 86 -16 21 -20 50 -7 56 4 2 25
28 48 58 94 127 117 195 95 278 l-12 42 -439 0 c-242 0 -440 -3 -440 -7z"/>
</g>
</svg>
