<?xml version="1.0" standalone="no"?>
<!DOCTYPE svg PUBLIC "-//W3C//DTD SVG 20010904//EN"
 "http://www.w3.org/TR/2001/REC-SVG-20010904/DTD/svg10.dtd">
<svg version="1.0" xmlns="http://www.w3.org/2000/svg"
 width="480.000000pt" height="360.000000pt" viewBox="0 0 480.000000 360.000000"
 preserveAspectRatio="xMidYMid meet">
<metadata>
Created by potrace 1.16, written by Peter Selinger 2001-2019
</metadata>
<rect width="1" height="360" fill="#000000"/>
<rect x="479" width="1" height="360" fill="#000000"/>
<rect width="480" height="1" fill="#000000"/>
<rect y="359" width="480" height="1" fill="#000000"/>
<g transform="translate(0.000000,360.000000) scale(0.100000,-0.100000)"
fill="#000000" stroke="none">
<path d="M0 1800 l0 -1800 960 0 961 0 -1 1141 c-1 628 1 1144 5 1147 3 3 20
1 38 -5 17 -6 90 -14 162 -18 129 -7 130 -7 90 -22 -66 -25 -80 -33 -124 -75
-32 -31 -41 -48 -41 -73 0 -56 75 -106 197 -130 41 -8 48 -18 68 -95 23 -90
38 -110 80 -110 42 0 61 19 76 73 6 23 18 58 25 78 14 34 18 37 84 48 120 22
201 79 185 131 -13 40 -79 103 -134 127 -33 15 -50 28 -45 33 5 5 61 14 124
19 63 6 129 12 145 13 l30 3 3 -1142 2 -1143 125 0 125 0 0 55 c0 30 7 74 14
97 19 57 36 160 36 225 0 28 5 55 11 59 8 4 9 25 5 61 -5 42 0 81 25 180 28
113 37 134 87 207 56 81 169 223 208 261 11 11 97 105 191 208 202 223 305
372 348 508 43 138 66 242 54 254 -5 5 -34 12 -64 15 l-54 5 89 149 c64 106
92 165 101 205 6 31 15 69 20 85 14 45 11 56 -16 56 l-24 0 2 198 c1 147 5
203 15 215 11 13 9 24 -14 69 -14 29 -37 67 -50 84 -34 46 -39 78 -19 140 21
67 39 78 127 78 62 0 70 -3 135 -46 58 -39 73 -55 101 -112 19 -36 37 -66 40
-66 13 0 95 31 126 47 17 9 60 26 96 38 l65 22 3 152 3 151 -956 0 -955 0 0
-588 c0 -457 -3 -592 -13 -605 -22 -30 -122 -50 -207 -41 -41 5 -81 8 -88 7
-9 -1 -11 8 -8 28 3 16 9 43 12 59 7 37 -12 40 -28 5 l-11 -25 -15 37 c-8 21
-17 62 -19 92 -4 46 0 65 32 135 92 200 117 247 184 340 94 132 108 169 91
244 -14 63 -39 92 -79 92 -14 0 -44 12 -65 26 l-39 26 7 57 c3 31 9 68 12 84
6 26 5 27 -40 27 l-46 0 0 -37 c0 -59 -18 -113 -38 -113 -9 0 -36 7 -60 17
-40 15 -47 15 -96 0 -65 -21 -110 -22 -126 -2 -6 8 -14 41 -17 75 l-6 60 -45
0 c-43 0 -44 -1 -38 -27 3 -16 9 -60 12 -100 l7 -72 -62 -17 c-52 -15 -62 -21
-67 -43 -3 -14 -12 -41 -21 -59 -16 -31 -16 -37 2 -90 11 -31 36 -81 55 -112
64 -98 108 -183 144 -277 19 -50 45 -111 57 -134 20 -40 21 -54 16 -156 -3
-61 -10 -120 -15 -129 -18 -33 -265 -27 -334 8 -17 8 -18 47 -18 608 l0 600
-960 0 -960 0 0 -1800z"/>
<path d="M4392 1188 c-13 -17 -62 -122 -62 -134 0 -11 48 70 66 114 15 33 13
41 -4 20z"/>
<path d="M4265 960 c-3 -5 -1 -10 4 -10 6 0 11 5 11 10 0 6 -2 10 -4 10 -3 0
-8 -4 -11 -10z"/>
<path d="M4176 819 c-14 -23 -25 -43 -23 -46 2 -2 16 15 31 38 15 22 26 43 23
45 -2 2 -16 -15 -31 -37z"/>
<path d="M4095 698 c-22 -34 -47 -72 -55 -85 -8 -12 -20 -23 -25 -23 -6 0 -16
-9 -23 -20 -7 -11 -19 -20 -27 -20 -8 0 -15 -9 -15 -20 0 -11 -6 -20 -12 -20
-12 -1 -56 -65 -175 -256 -29 -46 -63 -96 -77 -111 -14 -15 -39 -53 -56 -85
l-31 -59 127 3 c98 2 128 6 132 17 3 8 0 11 -6 8 -5 -4 -12 2 -15 13 -3 11 -2
18 3 15 11 -6 21 21 14 39 -3 7 4 39 15 70 11 31 15 56 10 56 -5 0 -9 7 -9 16
0 15 78 176 116 241 59 97 100 170 107 188 4 11 19 34 32 52 26 33 30 43 18
43 -5 -1 -26 -28 -48 -62z"/>
<path d="M4231 69 c-17 -33 -31 -63 -31 -65 0 -2 16 -4 35 -4 28 0 35 4 35 19
0 10 7 35 15 54 20 48 19 54 -6 31 -21 -19 -22 -19 -15 4 13 39 -1 24 -33 -39z"/>
<path d="M3402 43 c-28 -35 -28 -43 2 -43 17 0 26 7 30 26 10 40 -7 48 -32 17z"/>
</g>
</svg>
