<?xml version="1.0" standalone="no"?>
<!DOCTYPE svg PUBLIC "-//W3C//DTD SVG 20010904//EN"
 "http://www.w3.org/TR/2001/REC-SVG-20010904/DTD/svg10.dtd">
<svg version="1.0" xmlns="http://www.w3.org/2000/svg"
 width="480.000000pt" height="360.000000pt" viewBox="0 0 480.000000 360.000000"
 preserveAspectRatio="xMidYMid meet">
<metadata>
Created by potrace 1.16, written by Peter Selinger 2001-2019
</metadata>
<rect width="1" height="360" fill="#000000"/>
<rect x="479" width="1" height="360" fill="#000000"/>
<rect width="480" height="1" fill="#000000"/>
<rect y="359" width="480" height="1" fill="#000000"/>
<g transform="translate(0.000000,360.000000) scale(0.100000,-0.100000)"
fill="#000000" stroke="none">
<path d="M2852 3562 c-36 -41 -29 -52 17 -27 39 20 39 13 -2 -38 -57 -70 -58
-85 -4 -39 20 18 21 18 2 -33 -8 -22 -14 -60 -15 -84 l0 -43 21 23 c16 19 19
20 15 6 -9 -29 5 -97 20 -97 8 0 14 -10 14 -24 0 -14 5 -28 10 -31 26 -16 -5
-50 -61 -65 -51 -14 -56 -29 -28 -79 20 -37 21 -44 9 -80 -9 -29 -10 -44 -2
-53 5 -7 10 -24 10 -38 1 -71 16 -171 28 -181 7 -6 10 -17 7 -26 -5 -13 -3
-14 17 -3 20 10 110 7 110 -5 0 -2 -10 -20 -21 -40 l-22 -36 29 7 c16 4 38 13
49 20 30 21 36 17 29 -21 -4 -23 -2 -35 5 -35 6 0 11 -19 11 -47 0 -40 -4 -50
-31 -73 -19 -15 -32 -36 -33 -51 -1 -23 -64 -88 -206 -209 -52 -44 -220 -236
-220 -252 0 -4 5 -8 10 -8 6 0 10 5 10 10 0 6 5 10 10 10 6 0 10 -12 10 -27 1
-24 2 -25 11 -10 5 9 17 17 24 17 8 0 15 5 15 12 0 6 2 9 5 6 3 -3 -26 -72
-64 -154 -38 -82 -74 -173 -81 -203 -17 -73 -8 -155 34 -309 37 -132 56 -259
56 -374 l0 -66 -37 -13 c-21 -6 -42 -15 -48 -19 -20 -15 -372 -130 -415 -136
-51 -6 -277 21 -295 36 -7 6 -15 25 -19 42 -3 17 -16 50 -28 74 -17 36 -19 46
-8 59 10 13 8 22 -15 55 -32 47 -29 76 15 132 25 31 27 38 15 48 -23 19 -18
33 10 28 25 -5 46 12 73 59 17 32 16 43 -18 109 -17 32 -33 77 -35 99 -9 63
-55 97 -84 61 -8 -9 -38 -14 -93 -15 -185 -4 -245 -79 -294 -369 -13 -81 -45
-213 -69 -293 -69 -227 -78 -283 -67 -457 9 -129 14 -157 42 -229 l32 -83 39
0 39 0 1 68 0 67 16 -50 c23 -76 33 -77 34 -5 1 64 1 64 10 22 5 -26 4 -53 -1
-68 -6 -14 -10 -27 -10 -30 0 -2 142 -4 316 -4 l316 0 -8 43 c-16 87 -14 90
44 109 60 19 245 44 406 54 l109 7 -7 -63 c-4 -34 -11 -73 -17 -87 -5 -13 -9
-33 -9 -44 0 -19 14 -19 645 -19 l646 0 -27 47 c-15 27 -85 139 -154 249 -106
169 -126 207 -122 232 5 34 -7 75 -48 172 -23 54 -29 91 -39 210 -11 143 -10
165 11 289 l11 63 43 -5 c24 -2 44 -3 44 0 0 2 -9 30 -20 63 -21 63 -27 121
-16 156 3 11 31 41 60 67 34 29 59 60 66 82 13 40 34 42 36 4 2 -42 4 -47 18
-52 10 -4 12 4 10 36 -2 28 -1 37 5 28 8 -12 12 -12 25 -2 21 18 20 35 -8 171
-16 75 -21 119 -14 127 6 7 5 27 -3 55 -7 24 -12 52 -11 62 1 10 -6 32 -14 47
-17 34 -18 40 -1 36 13 -2 13 0 2 52 -10 49 9 32 46 -40 31 -62 43 -65 62 -16
10 27 40 14 91 -41 25 -26 46 -45 49 -42 2 3 1 31 -2 63 -6 51 -5 57 11 57 10
0 18 6 18 13 0 6 14 -9 31 -35 17 -27 35 -48 40 -48 12 0 12 1 -6 43 -8 20
-15 39 -15 41 0 7 63 -27 71 -37 16 -22 15 36 -2 65 -31 56 -50 100 -46 104 2
3 28 -14 56 -37 29 -22 55 -39 57 -36 2 2 -6 41 -19 85 -24 81 -23 94 2 70 7
-7 -7 21 -31 62 -90 154 -99 204 -59 315 116 323 117 327 91 515 -17 122 -28
164 -72 283 l-10 27 -606 -1 -607 -1 -33 -36z m-1342 -3337 c0 -3 -4 -13 -9
-23 -5 -9 -14 -28 -19 -42 -10 -23 -11 -22 -11 16 -1 22 2 44 6 47 7 8 33 9
33 2z"/>
</g>
</svg>
