<?xml version="1.0" standalone="no"?>
<!DOCTYPE svg PUBLIC "-//W3C//DTD SVG 20010904//EN"
 "http://www.w3.org/TR/2001/REC-SVG-20010904/DTD/svg10.dtd">
<svg version="1.0" xmlns="http://www.w3.org/2000/svg"
 width="480.000000pt" height="360.000000pt" viewBox="0 0 480.000000 360.000000"
 preserveAspectRatio="xMidYMid meet">
<metadata>
Created by potrace 1.16, written by Peter Selinger 2001-2019
</metadata>
<rect width="1" height="360" fill="#000000"/>
<rect x="479" width="1" height="360" fill="#000000"/>
<rect width="480" height="1" fill="#000000"/>
<rect y="359" width="480" height="1" fill="#000000"/>
<g transform="translate(0.000000,360.000000) scale(0.100000,-0.100000)"
fill="#000000" stroke="none">
<path d="M0 1800 l0 -1800 2085 0 c1147 0 2085 2 2085 4 0 4 -104 455 -123
531 -19 80 -29 49 118 400 62 149 115 279 119 290 3 12 40 45 82 75 41 29 77
58 80 62 3 5 -4 24 -17 44 -26 43 -29 98 -7 141 9 17 13 34 10 37 -3 3 -64 6
-136 6 -418 1 -1307 49 -1746 96 -297 31 -513 77 -484 103 49 45 370 80 1269
141 754 50 1191 81 1301 90 65 5 129 10 142 10 l22 0 0 785 0 785 -2400 0
-2400 0 0 -1800z"/>
</g>
</svg>
