<?xml version="1.0" standalone="no"?>
<!DOCTYPE svg PUBLIC "-//W3C//DTD SVG 20010904//EN"
 "http://www.w3.org/TR/2001/REC-SVG-20010904/DTD/svg10.dtd">
<svg version="1.0" xmlns="http://www.w3.org/2000/svg"
 width="480.000000pt" height="360.000000pt" viewBox="0 0 480.000000 360.000000"
 preserveAspectRatio="xMidYMid meet">
<metadata>
Created by potrace 1.16, written by Peter Selinger 2001-2019
</metadata>
<rect width="1" height="360" fill="#000000"/>
<rect x="479" width="1" height="360" fill="#000000"/>
<rect width="480" height="1" fill="#000000"/>
<rect y="359" width="480" height="1" fill="#000000"/>
<g transform="translate(0.000000,360.000000) scale(0.100000,-0.100000)"
fill="#000000" stroke="none">
<path d="M1810 3563 c-351 -96 -518 -180 -670 -336 -72 -73 -59 -79 -147 76
-30 53 -67 107 -82 118 -30 24 -41 24 -261 -14 -199 -35 -484 -60 -576 -52
l-74 7 0 -98 0 -99 212 -1 c193 -1 212 -3 225 -19 7 -11 13 -22 13 -25 0 -4
-36 -28 -79 -54 -55 -32 -82 -55 -89 -74 -5 -15 -32 -90 -60 -167 -28 -77 -52
-153 -53 -170 -1 -16 33 -165 75 -329 42 -164 76 -302 76 -305 0 -3 -15 -14
-33 -24 l-32 -19 52 -46 c43 -39 54 -56 64 -97 6 -27 18 -71 26 -97 l15 -48
46 1 c26 0 115 4 197 9 83 5 321 16 530 25 209 8 472 20 585 26 114 6 744 13
1418 16 l1213 5 9 24 c6 13 17 54 25 91 9 37 19 71 24 77 5 6 9 22 9 36 0 14
37 171 81 348 45 178 81 335 81 348 0 21 -91 277 -125 348 -13 29 -10 49 16
98 9 17 13 18 20 7 6 -10 9 -11 9 -1 0 24 15 12 31 -25 18 -42 32 -113 31
-157 0 -19 5 -30 18 -33 10 -3 22 -17 26 -31 7 -27 8 -27 14 8 7 35 7 34 15
-18 6 -39 11 -52 22 -48 9 4 16 -4 20 -24 7 -40 26 -26 21 15 -2 19 0 31 4 29
4 -3 8 -4 8 -2 0 2 8 57 16 123 9 66 18 204 21 308 l5 187 -23 0 -24 1 23 18
c16 14 22 30 22 60 l0 41 -175 0 -175 0 0 -90 c0 -69 -3 -92 -14 -96 -17 -6
-245 20 -360 41 -43 8 -104 15 -135 15 -73 0 -82 -10 -190 -197 -45 -79 -86
-145 -91 -148 -4 -3 -68 52 -142 122 -171 164 -244 209 -453 279 -84 28 -100
36 -99 53 0 18 -5 21 -47 21 -26 0 -49 -5 -51 -10 -2 -7 -15 -7 -38 0 -21 6
-204 10 -465 9 l-430 -2 -125 -34z m2870 -232 c0 -12 -28 -22 -34 -12 -3 5 -3
11 1 15 9 9 33 7 33 -3z m-220 -172 c0 -22 5 -50 11 -61 9 -17 -1 -14 -59 18
-60 33 -69 41 -62 59 5 15 19 21 51 25 24 3 47 4 52 2 4 -2 7 -21 7 -43z
m-376 -21 c3 -17 14 -40 23 -50 15 -17 15 -20 -13 -49 -16 -16 -36 -48 -45
-70 -8 -22 -18 -40 -22 -40 -4 0 -34 15 -67 34 l-59 33 31 40 c50 63 121 134
134 134 6 0 14 -14 18 -32z m-3258 -102 l65 -81 -53 -47 c-29 -26 -57 -47 -61
-45 -5 1 -19 29 -32 62 -14 33 -36 69 -50 80 -29 24 -31 37 -10 55 8 7 17 27
21 45 6 32 8 33 31 22 13 -6 53 -47 89 -91z"/>
<path d="M3150 3580 c0 -24 15 -27 24 -4 9 22 8 24 -9 24 -8 0 -15 -9 -15 -20z"/>
<path d="M3292 3580 c0 -14 2 -19 5 -12 2 6 2 18 0 25 -3 6 -5 1 -5 -13z"/>
<path d="M2330 1413 c-254 -4 -937 -24 -1170 -34 -207 -9 -643 -26 -768 -31
-61 -2 -58 3 -105 -130 -84 -231 -154 -503 -185 -713 l-17 -120 -42 -20 -43
-19 0 -173 0 -173 334 0 333 0 58 122 c49 104 92 209 219 533 l24 60 6 -55 c8
-82 21 -408 21 -542 l0 -118 1393 0 1394 0 -2 82 c-2 46 2 144 8 218 6 74 11
148 12 165 0 45 12 23 78 -141 34 -83 79 -190 102 -238 l41 -86 389 0 390 0 0
153 0 152 -92 35 -93 35 -11 125 c-14 150 -52 340 -99 490 -7 25 -30 99 -50
165 -21 66 -51 153 -67 193 l-30 72 -941 -2 c-518 -1 -1007 -3 -1087 -5z"/>
</g>
</svg>
