<?xml version="1.0" standalone="no"?>
<!DOCTYPE svg PUBLIC "-//W3C//DTD SVG 20010904//EN"
 "http://www.w3.org/TR/2001/REC-SVG-20010904/DTD/svg10.dtd">
<svg version="1.0" xmlns="http://www.w3.org/2000/svg"
 width="480.000000pt" height="360.000000pt" viewBox="0 0 480.000000 360.000000"
 preserveAspectRatio="xMidYMid meet">
<metadata>
Created by potrace 1.16, written by Peter Selinger 2001-2019
</metadata>
<rect width="1" height="360" fill="#000000"/>
<rect x="479" width="1" height="360" fill="#000000"/>
<rect width="480" height="1" fill="#000000"/>
<rect y="359" width="480" height="1" fill="#000000"/>
<g transform="translate(0.000000,360.000000) scale(0.100000,-0.100000)"
fill="#000000" stroke="none">
<path d="M2820 3568 c-51 -84 -39 -205 36 -374 3 -7 -11 -17 -33 -24 -100 -32
-281 -153 -346 -233 -48 -59 -113 -166 -126 -207 -6 -19 -17 -69 -25 -112 -15
-79 -43 -145 -70 -167 -9 -8 -16 -18 -16 -23 0 -11 41 10 58 31 11 14 13 10 8
-22 -4 -34 -3 -37 11 -26 14 12 15 5 8 -69 -5 -57 -4 -82 4 -82 6 0 11 10 11
22 0 30 12 15 32 -40 16 -40 18 -43 15 -15 -2 18 0 30 5 27 4 -3 8 -11 8 -18
0 -7 9 -23 20 -36 18 -21 20 -21 20 -4 1 18 1 18 11 2 5 -10 16 -18 24 -18 7
0 16 -8 20 -17 3 -10 19 -29 36 -42 l30 -23 -21 53 c-28 75 -24 85 7 19 18
-37 27 -49 30 -37 6 24 23 11 23 -19 0 -35 -27 -95 -57 -126 l-27 -28 23 -24
c13 -13 33 -27 46 -30 16 -4 27 -18 37 -48 8 -27 22 -47 36 -53 12 -5 22 -15
22 -22 0 -7 11 -23 25 -35 14 -12 37 -41 50 -65 26 -43 26 -50 10 -155 -3 -21
1 -28 16 -33 18 -6 20 -12 15 -46 -4 -23 -2 -39 4 -39 10 0 11 -3 35 -131 l17
-86 -40 -115 c-21 -63 -42 -120 -45 -125 -4 -6 -29 1 -63 18 -67 34 -102 36
-137 9 -26 -21 -26 -23 -20 -113 5 -89 5 -94 -20 -122 l-25 -29 -86 131 c-82
126 -124 173 -152 173 -7 0 -25 17 -40 38 -16 20 -37 47 -47 59 -17 19 -20 39
-22 135 -2 163 -32 233 -112 274 -42 22 -77 23 -195 9 l-47 -6 -6 46 c-4 25
-11 45 -16 45 -11 0 -18 -35 -16 -74 2 -28 -2 -31 -68 -56 -38 -14 -89 -38
-112 -53 -36 -23 -45 -35 -58 -84 -9 -32 -21 -73 -27 -91 -7 -25 -6 -49 5 -95
9 -34 21 -88 27 -120 9 -47 23 -72 72 -133 66 -82 79 -91 188 -125 41 -13 77
-24 79 -26 2 -1 -10 -33 -27 -70 -52 -113 -81 -233 -92 -374 -5 -71 -18 -160
-29 -197 -11 -37 -22 -79 -25 -94 l-6 -28 509 0 c477 0 510 1 515 18 2 9 10
51 17 92 7 41 15 81 19 89 9 17 40 -105 40 -159 l0 -40 651 0 651 0 -9 33 c-4
17 -8 63 -8 101 l0 69 81 22 c45 11 94 29 110 39 25 17 26 20 11 31 -15 10
-13 15 18 45 19 19 35 38 35 43 0 5 -26 7 -57 4 -43 -3 -87 -18 -166 -56 -59
-28 -112 -51 -117 -51 -5 0 -12 21 -16 47 -3 27 -13 64 -21 82 -7 19 -11 41
-9 48 3 8 -1 42 -10 76 -9 34 -19 85 -24 112 -5 28 -23 109 -40 180 -44 181
-44 181 -27 188 11 4 21 -10 38 -56 12 -34 32 -82 43 -107 l21 -45 3 48 c2 30
8 50 18 54 19 7 18 32 -3 56 -14 15 -21 50 -29 155 -11 142 -6 202 14 152 52
-131 65 -160 74 -160 8 0 5 18 -9 56 -2 7 0 15 6 18 6 4 6 18 1 37 -8 28 -21
105 -35 214 -3 23 12 -10 33 -75 36 -109 128 -307 138 -298 2 3 -5 38 -15 79
-22 85 -36 169 -28 169 2 0 23 -31 46 -69 38 -62 81 -114 81 -97 0 3 -6 48
-14 99 -8 50 -17 211 -21 357 -14 610 -58 885 -193 1195 -19 44 -40 110 -48
148 -17 89 -72 192 -146 272 -67 73 -106 97 -190 115 -48 11 -66 10 -122 -4
-36 -9 -68 -16 -71 -16 -4 0 -57 48 -118 108 -62 59 -138 124 -169 145 l-56
37 -126 0 -126 0 -20 -32z m240 -2040 c-41 -33 -46 -24 -33 67 l6 48 25 -48
24 -49 -22 -18z"/>
</g>
</svg>
