<?xml version="1.0" standalone="no"?>
<!DOCTYPE svg PUBLIC "-//W3C//DTD SVG 20010904//EN"
 "http://www.w3.org/TR/2001/REC-SVG-20010904/DTD/svg10.dtd">
<svg version="1.0" xmlns="http://www.w3.org/2000/svg"
 width="480.000000pt" height="360.000000pt" viewBox="0 0 480.000000 360.000000"
 preserveAspectRatio="xMidYMid meet">
<metadata>
Created by potrace 1.16, written by Peter Selinger 2001-2019
</metadata>
<rect width="1" height="360" fill="#000000"/>
<rect x="479" width="1" height="360" fill="#000000"/>
<rect width="480" height="1" fill="#000000"/>
<rect y="359" width="480" height="1" fill="#000000"/>
<g transform="translate(0.000000,360.000000) scale(0.100000,-0.100000)"
fill="#000000" stroke="none">
<path d="M0 2609 c0 -900 1 -991 16 -985 9 3 110 6 226 6 l211 0 -6 36 c-8 50
7 84 37 84 27 0 36 -16 36 -65 0 -18 6 -37 13 -43 20 -17 147 -24 217 -12 114
19 105 23 108 -44 4 -70 -6 -79 -61 -60 -40 14 -201 19 -244 8 -17 -5 -23 -17
-30 -58 -7 -43 -12 -52 -32 -54 -29 -5 -41 12 -41 59 0 24 -5 39 -16 43 -9 3
-110 6 -225 6 l-209 0 0 -765 0 -765 2400 0 2400 0 0 1800 0 1800 -2400 0
-2400 0 0 -991z"/>
</g>
</svg>
