<?xml version="1.0" standalone="no"?>
<!DOCTYPE svg PUBLIC "-//W3C//DTD SVG 20010904//EN"
 "http://www.w3.org/TR/2001/REC-SVG-20010904/DTD/svg10.dtd">
<svg version="1.0" xmlns="http://www.w3.org/2000/svg"
 width="480.000000pt" height="360.000000pt" viewBox="0 0 480.000000 360.000000"
 preserveAspectRatio="xMidYMid meet">
<metadata>
Created by potrace 1.16, written by Peter Selinger 2001-2019
</metadata>
<rect width="1" height="360" fill="#000000"/>
<rect x="479" width="1" height="360" fill="#000000"/>
<rect width="480" height="1" fill="#000000"/>
<rect y="359" width="480" height="1" fill="#000000"/>
<g transform="translate(0.000000,360.000000) scale(0.100000,-0.100000)"
fill="#000000" stroke="none">
<path d="M0 1800 l0 -1800 1255 0 c875 0 1255 3 1255 11 0 5 -4 29 -10 52 -5
23 -14 82 -21 130 -11 84 -12 87 -29 72 -22 -20 -33 -6 -25 28 5 19 2 25 -14
30 -16 4 -23 -4 -41 -44 -18 -44 -40 -65 -40 -39 0 6 -9 10 -20 10 -11 0 -20
-6 -20 -12 0 -9 -3 -8 -10 2 -7 11 -12 12 -21 3 -6 -6 -18 -9 -25 -6 -8 3 -14
1 -14 -5 0 -16 -33 -24 -42 -10 -4 7 -8 24 -8 37 0 20 -2 22 -16 10 -15 -13
-84 -24 -84 -14 0 3 7 22 15 42 21 50 18 65 -5 22 -20 -37 -50 -69 -50 -51 0
5 7 26 15 45 19 45 19 58 1 51 -26 -10 -28 16 -5 83 16 50 19 71 11 83 -11 18
-3 55 58 272 17 63 19 84 11 115 -6 21 -11 54 -11 73 0 20 -9 53 -20 75 -11
22 -20 47 -20 57 0 9 -6 32 -14 50 -38 90 -46 160 -24 201 18 35 75 92 201
200 72 62 120 111 124 127 4 14 1 84 -7 155 -7 72 -15 184 -17 251 -5 119 -4
122 25 181 40 79 75 119 139 160 50 32 53 36 53 76 0 51 17 168 31 221 16 61
107 149 202 196 71 36 87 40 153 40 83 0 96 -10 75 -57 -15 -33 -96 -106 -175
-158 -146 -97 -165 -123 -156 -215 l5 -55 67 -12 c37 -7 80 -19 97 -27 38 -20
132 -126 124 -140 -4 -6 -6 -25 -4 -43 1 -21 -6 -47 -19 -68 -12 -20 -23 -48
-25 -63 -1 -15 -12 -63 -24 -107 -25 -93 -17 -136 29 -160 15 -8 30 -20 32
-26 4 -11 152 38 246 82 l44 19 -37 48 c-19 26 -45 68 -57 93 -15 33 -31 52
-55 63 -23 11 -33 22 -29 31 3 8 -2 19 -11 24 -15 8 -15 11 -3 26 12 14 10 17
-8 22 -62 16 17 82 99 83 38 0 90 -39 117 -88 19 -33 29 -42 50 -42 34 0 38
-4 88 -65 88 -108 134 -182 134 -214 0 -92 -94 -162 -352 -262 -49 -19 -88
-38 -88 -44 0 -5 10 -21 21 -35 82 -101 158 -236 173 -305 6 -27 1 -23 -56 38
-64 68 -88 81 -88 50 -1 -10 -14 11 -29 47 -39 88 -93 182 -108 187 -7 3 -2
-20 14 -53 30 -67 29 -79 -30 -250 -51 -147 -55 -193 -23 -287 14 -43 37 -94
50 -115 40 -63 167 -175 239 -212 37 -18 67 -36 67 -40 0 -4 -19 -13 -42 -20
-63 -18 -161 -64 -181 -84 -15 -15 -17 -29 -12 -90 5 -64 12 -240 14 -398 l1
-58 845 0 845 0 0 1800 0 1800 -2400 0 -2400 0 0 -1800z"/>
<path d="M2780 415 c-5 -35 1 -339 6 -377 5 -36 8 -38 41 -38 l35 0 -6 53
c-11 86 -74 384 -76 362z"/>
</g>
</svg>
