<?xml version="1.0" standalone="no"?>
<!DOCTYPE svg PUBLIC "-//W3C//DTD SVG 20010904//EN"
 "http://www.w3.org/TR/2001/REC-SVG-20010904/DTD/svg10.dtd">
<svg version="1.0" xmlns="http://www.w3.org/2000/svg"
 width="480.000000pt" height="360.000000pt" viewBox="0 0 480.000000 360.000000"
 preserveAspectRatio="xMidYMid meet">
<metadata>
Created by potrace 1.16, written by Peter Selinger 2001-2019
</metadata>
<rect width="1" height="360" fill="#000000"/>
<rect x="479" width="1" height="360" fill="#000000"/>
<rect width="480" height="1" fill="#000000"/>
<rect y="359" width="480" height="1" fill="#000000"/>
<g transform="translate(0.000000,360.000000) scale(0.100000,-0.100000)"
fill="#000000" stroke="none">
<path d="M2424 983 c-10 -16 -13 -16 -30 -3 -15 11 -16 11 -6 0 17 -19 15 -30
-5 -30 -15 0 -15 -1 0 -18 16 -17 14 -21 -31 -63 -26 -25 -64 -54 -84 -64 -45
-23 -47 -35 -13 -79 29 -38 33 -95 11 -147 -12 -28 -12 -35 -1 -44 40 -30 20
-95 -30 -95 -28 0 -38 -31 -19 -59 11 -15 13 -34 8 -71 -4 -33 -3 -55 5 -64 7
-8 11 -32 10 -53 -5 -73 2 -118 20 -143 17 -22 22 -23 46 -12 33 15 40 11 25
-17 -11 -21 -10 -21 128 -21 l140 0 17 27 c10 16 33 41 51 56 39 32 41 53 19
136 -7 30 -11 66 -8 81 3 15 0 37 -6 49 -9 17 -9 26 4 43 8 13 15 26 15 30 0
4 -30 21 -66 38 l-65 29 23 32 c20 27 23 40 20 116 -2 49 2 99 10 118 11 33
10 36 -18 60 -16 14 -35 25 -41 25 -7 0 -31 16 -53 36 -38 35 -40 38 -24 55
16 18 16 19 -1 19 -15 0 -16 2 -4 16 12 15 11 16 -8 10 -15 -5 -22 -2 -25 9
-3 13 -5 13 -14 -2z"/>
<path d="M4004 891 c22 -24 18 -60 -8 -75 -10 -6 -30 -21 -45 -34 -14 -13 -54
-37 -88 -55 -35 -17 -65 -39 -69 -49 -3 -10 -12 -18 -20 -18 -22 0 -17 -28 12
-65 20 -27 23 -38 15 -54 -15 -28 -14 -80 5 -134 18 -53 33 -68 69 -71 14 0
25 -4 25 -8 0 -8 -108 -67 -136 -74 -21 -5 -21 -10 -17 -107 2 -56 4 -112 4
-124 l-1 -23 452 0 452 0 -22 22 c-19 19 -34 23 -87 24 -105 1 -102 16 16 71
57 27 135 62 172 78 37 17 63 31 58 33 -5 2 -40 -11 -77 -28 -37 -16 -69 -29
-71 -27 -2 2 33 21 77 41 44 21 80 42 80 47 0 5 -2 9 -4 9 -2 0 -79 -35 -172
-79 -152 -71 -171 -77 -189 -64 -11 7 -36 18 -56 23 -23 6 -40 19 -47 35 -6
13 -27 35 -46 47 -27 17 -35 29 -33 48 2 23 -3 26 -50 34 -57 10 -62 18 -37
54 25 37 32 76 23 130 -9 47 -8 52 16 76 27 27 37 89 11 67 -12 -10 -13 -8 -9
9 4 15 2 19 -9 15 -15 -6 -42 14 -125 90 -44 40 -44 40 -29 70 9 17 16 33 16
38 0 13 -40 47 -57 47 -15 0 -15 -2 1 -19z m616 -732 c-19 -13 -120 -59 -129
-59 -9 1 122 69 134 69 6 1 3 -4 -5 -10z"/>
<path d="M865 888 c-5 -11 -18 -18 -35 -18 -20 0 -28 -5 -26 -16 1 -8 7 -19
12 -22 5 -4 9 -20 9 -36 -1 -38 -95 -133 -146 -146 -21 -6 -39 -17 -42 -24 -3
-8 10 -35 29 -59 31 -39 34 -48 24 -67 -25 -46 16 -144 56 -134 14 3 26 -7 42
-33 22 -35 23 -38 7 -50 -10 -6 -42 -17 -72 -23 -71 -15 -97 -40 -87 -83 5
-18 9 -57 9 -87 1 -30 2 -63 3 -72 2 -17 20 -18 232 -18 l230 0 16 25 c12 18
14 35 9 65 -6 34 -3 43 15 58 25 21 20 42 -18 65 -15 9 -45 33 -66 52 l-39 35
28 40 c38 55 44 128 17 191 -20 46 -20 46 0 77 20 33 17 72 -6 72 -7 0 -27 7
-45 16 -22 11 -29 19 -22 28 5 6 11 25 13 41 3 27 -2 32 -55 60 -33 17 -65 42
-72 55 -12 22 -14 23 -20 8z"/>
</g>
</svg>
