<?xml version="1.0" standalone="no"?>
<!DOCTYPE svg PUBLIC "-//W3C//DTD SVG 20010904//EN"
 "http://www.w3.org/TR/2001/REC-SVG-20010904/DTD/svg10.dtd">
<svg version="1.0" xmlns="http://www.w3.org/2000/svg"
 width="480.000000pt" height="360.000000pt" viewBox="0 0 480.000000 360.000000"
 preserveAspectRatio="xMidYMid meet">
<metadata>
Created by potrace 1.16, written by Peter Selinger 2001-2019
</metadata>
<rect width="1" height="360" fill="#000000"/>
<rect x="479" width="1" height="360" fill="#000000"/>
<rect width="480" height="1" fill="#000000"/>
<rect y="359" width="480" height="1" fill="#000000"/>
<g transform="translate(0.000000,360.000000) scale(0.100000,-0.100000)"
fill="#000000" stroke="none">
<path d="M0 2844 c0 -601 3 -754 12 -748 7 4 21 14 30 22 18 15 40 8 37 -11
-1 -7 1 -20 6 -30 13 -30 -9 -42 -50 -30 l-35 11 0 -1029 0 -1029 1493 1
c1147 0 1486 3 1466 12 -31 14 -59 36 -59 47 0 4 14 10 32 14 41 8 83 -26 67
-55 -9 -18 16 -19 896 -19 l905 0 0 1800 0 1800 -313 0 -312 0 -15 -22 c-8
-13 -17 -34 -20 -47 -3 -13 -9 -26 -15 -27 -12 -4 -55 61 -55 82 0 12 -273 14
-2035 14 l-2035 0 0 -756z m3214 713 c9 -34 7 -44 -10 -61 -25 -25 -42 -19
-53 20 -11 41 -6 61 17 67 26 5 39 -2 46 -26z m-1070 -3 c19 -7 21 -31 4 -37
-23 -7 -48 5 -48 24 0 19 16 24 44 13z m-1717 -38 c-4 -9 -14 -12 -26 -9 -28
7 -27 21 2 25 28 5 31 3 24 -16z m3608 -2 c23 -15 23 -17 9 -39 -8 -13 -14
-32 -12 -42 6 -35 -35 -26 -62 14 -34 52 -34 52 -14 68 25 19 49 19 79 -1z
m-3767 -16 c18 -18 14 -38 -7 -38 -23 0 -35 15 -27 35 7 18 18 19 34 3z m3399
-259 l28 -11 -24 -19 c-18 -14 -19 -19 -7 -19 18 0 21 -21 6 -36 -5 -5 -11
-19 -13 -31 -5 -34 -14 -37 -40 -16 -19 15 -23 23 -15 36 5 10 6 22 2 29 -4 6
-3 8 4 4 6 -3 13 -2 17 4 3 5 -1 10 -9 10 -16 0 -40 35 -32 48 7 12 53 13 83
1z m-3157 -72 c0 -18 -5 -27 -12 -25 -15 5 -30 58 -22 78 8 23 34 -17 34 -53z
m530 18 c0 -14 -4 -25 -9 -25 -12 0 -19 21 -13 38 8 21 22 13 22 -13z m1970
-7 c25 -27 26 -48 1 -48 -20 0 -51 35 -51 57 0 20 27 15 50 -9z m-2830 -132
c0 -8 -4 -18 -10 -21 -5 -3 -10 -15 -10 -25 0 -19 -32 -36 -50 -25 -19 12 -9
40 23 62 39 26 47 27 47 9z m1871 -57 c27 -27 13 -44 -24 -30 -17 7 -27 18
-27 31 0 26 24 26 51 -1z m-452 -95 c35 -17 57 -54 48 -77 -8 -22 -61 -28 -96
-11 -36 18 -37 21 -14 69 19 40 19 40 62 19z m-639 -34 c0 -40 -15 -54 -26
-25 -8 20 4 65 16 65 6 0 10 -18 10 -40z m1708 -113 c18 -14 15 -37 -6 -37
-10 0 -22 -4 -28 -10 -14 -14 -52 -1 -60 22 -3 12 1 27 11 38 14 16 21 17 43
7 15 -6 33 -15 40 -20z m-983 -20 c27 -23 41 -86 20 -93 -20 -7 -56 33 -64 68
-13 54 1 62 44 25z m219 17 c17 -7 21 -41 7 -63 -12 -19 -41 -6 -41 18 0 19 9
51 15 51 2 0 10 -3 19 -6z m794 -82 c4 -24 -7 -29 -26 -10 -18 18 -15 40 6 36
9 -2 18 -13 20 -26z m1048 -13 c19 -11 35 -28 35 -37 1 -9 3 -31 5 -48 2 -17
-2 -39 -10 -49 -11 -15 -17 -16 -49 -6 -61 20 -86 97 -47 139 25 27 25 27 66
1z m-2592 -5 c23 -9 20 -19 -15 -59 -19 -22 -40 -35 -55 -35 -35 0 -30 27 12
66 39 38 36 36 58 28z m2068 -21 c22 -20 25 -83 3 -83 -19 0 -35 31 -35 69 0
35 6 38 32 14z m-2624 -39 c2 -1 0 -18 -3 -38 -6 -28 -12 -36 -29 -36 -47 0
-62 49 -23 80 17 14 25 16 37 7 8 -6 16 -12 18 -13z m2352 -33 c5 -11 10 -30
10 -43 -1 -23 -1 -23 -25 5 -14 15 -25 35 -25 43 0 21 28 17 40 -5z m113 -13
c15 -23 0 -68 -22 -68 -22 0 -32 36 -19 69 9 24 26 24 41 -1z m851 -16 c3 -5
8 -32 12 -60 5 -43 4 -52 -8 -52 -18 0 -44 80 -35 105 7 16 23 20 31 7z
m-2013 -109 c36 -21 37 -33 3 -33 -26 0 -54 20 -54 39 0 16 18 13 51 -6z m196
-41 c18 -43 7 -57 -41 -48 -38 7 -66 38 -66 72 0 49 84 30 107 -24z m321 14
c5 -26 -16 -45 -28 -26 -5 8 -10 23 -10 33 0 24 34 18 38 -7z m1346 -128 c-1
-43 -18 -68 -45 -68 -22 0 -24 18 -9 71 8 29 15 36 33 35 19 -1 22 -7 21 -38z
m-364 -80 c0 -26 -4 -48 -9 -48 -18 0 -41 45 -41 81 0 45 8 54 32 32 13 -11
18 -30 18 -65z m-690 -10 c13 -25 13 -29 -1 -44 -35 -34 -83 12 -59 56 15 27
40 22 60 -12z m-1986 -37 c10 -15 -27 -71 -51 -77 -47 -12 -57 22 -18 61 24
25 59 33 69 16z m2177 -28 c18 -32 18 -33 -4 -47 -12 -7 -37 -16 -56 -20 l-33
-6 16 25 c9 13 16 35 16 48 0 49 34 49 61 0z m-1815 10 c17 -22 18 -105 2
-121 -20 -20 -48 -14 -60 14 -10 22 -10 28 4 38 11 8 15 20 11 34 -11 46 17
69 43 35z m1834 -95 c0 -22 -26 -58 -42 -58 -13 0 -9 29 8 55 20 31 34 32 34
3z m196 -36 c6 -4 14 -17 18 -29 5 -16 2 -25 -14 -33 -28 -15 -50 3 -50 41 0
29 20 38 46 21z m348 -53 c14 -7 32 -27 41 -46 16 -34 16 -36 -6 -59 -28 -30
-36 -30 -66 -2 -25 24 -32 85 -11 106 15 15 12 14 42 1z m-480 -194 c32 -48 7
-79 -40 -49 -28 19 -29 23 -8 52 19 28 28 28 48 -3z m-275 -91 c8 -16 18 -30
23 -32 13 -6 9 -29 -5 -35 -7 -3 -24 -3 -38 0 -24 4 -28 23 -20 91 2 22 25 8
40 -24z m1807 -25 c11 -19 -83 -99 -115 -99 -18 0 -12 19 16 57 36 46 83 67
99 42z m-1386 -83 c13 -24 13 -28 0 -36 -8 -5 -27 -10 -42 -10 -22 0 -28 5
-28 22 0 25 28 60 44 55 6 -2 18 -16 26 -31z m-324 -8 c4 -6 -3 -19 -14 -30
-23 -23 -72 -18 -72 7 0 33 68 52 86 23z m1318 16 c9 -3 16 -14 16 -24 0 -21
-63 -80 -85 -80 -23 0 -18 40 11 77 26 34 32 37 58 27z m-1474 -29 c20 -21 21
-25 7 -30 -19 -8 -67 22 -67 41 0 22 35 16 60 -11z m-982 3 c20 -20 14 -38
-15 -38 -26 0 -63 25 -63 42 0 13 64 10 78 -4z m806 -41 c7 -26 6 -41 -1 -48
-17 -17 -47 34 -39 67 9 35 29 25 40 -19z m-1737 -56 c7 -28 -13 -44 -40 -30
-14 8 -17 17 -11 42 3 18 9 36 12 41 6 11 31 -22 39 -53z m1891 -7 c-4 -20
-40 -35 -58 -24 -23 14 -3 40 30 40 24 0 31 -4 28 -16z m1247 -74 c7 -31 -12
-77 -40 -100 -15 -12 -19 -12 -31 5 -21 28 -17 66 12 108 29 43 48 39 59 -13z
m351 -36 c18 -31 29 -40 58 -45 47 -8 56 -17 32 -35 -26 -18 -50 -18 -67 2
-15 18 -65 46 -76 42 -9 -4 -24 82 -17 94 9 15 47 -16 70 -58z m-805 -14 c26
-15 24 -26 -8 -37 -46 -16 -71 5 -41 35 15 15 24 15 49 2z m-966 -77 c8 -23
-10 -37 -39 -29 -30 7 -33 18 -11 40 18 17 41 12 50 -11z m-241 -15 c24 -38
-26 -71 -70 -47 -28 15 -30 26 -7 51 20 23 61 20 77 -4z m1426 -14 c15 -38 12
-56 -7 -52 -21 4 -44 45 -36 64 8 23 33 16 43 -12z m-619 -44 c28 -16 23 -32
-8 -28 -17 2 -29 10 -31 21 -4 19 10 22 39 7z m737 -76 c12 -8 20 -19 17 -24
-3 -5 -1 -11 5 -15 23 -14 7 -25 -40 -25 -27 0 -50 4 -50 10 0 5 7 7 16 3 14
-5 16 -1 10 30 -8 42 4 48 42 21z m656 -23 c17 -19 17 -20 -6 -34 -58 -37
-144 -48 -95 -13 9 7 17 21 17 30 0 15 29 34 56 35 6 1 19 -8 28 -18z m-685
-74 c14 -17 4 -27 -26 -27 -25 0 -26 1 -17 24 7 20 28 21 43 3z m31 -172 c21
-25 3 -52 -38 -58 -52 -6 -58 5 -22 42 36 35 43 37 60 16z m-1100 -39 c0 -34
-11 -38 -48 -16 -43 26 -40 40 8 40 36 0 40 -3 40 -24z m418 -28 c17 -17 14
-49 -7 -77 -14 -19 -21 -21 -37 -13 -10 6 -27 13 -37 16 -30 10 -17 48 23 68
43 21 43 21 58 6z m766 -261 c11 -31 6 -40 -18 -31 -20 8 -45 54 -39 72 7 19
46 -8 57 -41z m580 -209 c5 -9 7 -20 3 -25 -11 -10 -41 11 -45 31 -5 23 26 18
42 -6z m-356 -115 c-3 -37 -4 -38 -42 -38 -23 0 -41 5 -44 13 -2 6 2 12 8 12
7 0 21 11 32 25 30 38 50 33 46 -12z m556 -75 c8 -13 7 -21 -1 -29 -16 -16
-43 5 -43 33 0 24 28 21 44 -4z"/>
</g>
</svg>
