<?xml version="1.0" standalone="no"?>
<!DOCTYPE svg PUBLIC "-//W3C//DTD SVG 20010904//EN"
 "http://www.w3.org/TR/2001/REC-SVG-20010904/DTD/svg10.dtd">
<svg version="1.0" xmlns="http://www.w3.org/2000/svg"
 width="480.000000pt" height="360.000000pt" viewBox="0 0 480.000000 360.000000"
 preserveAspectRatio="xMidYMid meet">
<metadata>
Created by potrace 1.16, written by Peter Selinger 2001-2019
</metadata>
<rect width="1" height="360" fill="#000000"/>
<rect x="479" width="1" height="360" fill="#000000"/>
<rect width="480" height="1" fill="#000000"/>
<rect y="359" width="480" height="1" fill="#000000"/>
<g transform="translate(0.000000,360.000000) scale(0.100000,-0.100000)"
fill="#000000" stroke="none">
<path d="M0 1800 l0 -1800 190 0 191 0 -7 53 c-8 62 -24 91 -64 112 -34 18
-34 15 -18 66 10 35 9 42 -10 62 l-20 22 24 30 c19 24 22 37 18 66 -4 26 -1
44 12 64 17 25 222 195 309 255 143 99 255 205 379 360 142 177 131 148 118
313 -7 78 -11 189 -10 246 l3 105 -57 16 c-31 10 -84 34 -118 55 -41 25 -68
35 -83 31 -27 -7 -72 21 -129 82 -64 69 -81 97 -101 177 -10 38 -23 89 -29
113 -9 34 -8 62 6 143 65 370 282 667 604 828 l74 36 -6 40 -6 40 21 -27 c25
-34 34 -34 132 -3 305 97 646 58 918 -106 96 -57 117 -76 204 -177 56 -64 65
-81 79 -144 18 -80 20 -141 7 -167 -6 -10 -15 -54 -20 -99 -6 -45 -18 -97 -27
-114 -20 -41 -54 -78 -69 -78 -27 0 -63 -43 -84 -98 -39 -108 -125 -181 -231
-197 -50 -8 -75 -27 -127 -98 -19 -26 -55 -59 -79 -73 -24 -14 -44 -28 -44
-30 0 -2 20 -50 45 -106 48 -108 52 -145 20 -194 -19 -29 -209 -125 -232 -117
-38 13 -64 50 -84 116 -30 97 -44 83 -42 -42 1 -88 4 -106 21 -124 14 -15 19
-31 15 -48 -3 -15 3 -42 15 -65 56 -111 74 -299 71 -764 -1 -239 3 -389 11
-457 l13 -103 1499 0 1498 0 0 1800 0 1800 -2400 0 -2400 0 0 -1800z m2505
1688 c54 -25 18 -77 -43 -62 -41 10 -52 33 -27 58 19 19 35 20 70 4z m1865
-149 c60 -13 66 -29 9 -29 -45 0 -83 16 -74 31 8 11 4 11 65 -2z m-1216 -78
c17 -17 25 -31 19 -31 -15 0 -61 38 -74 62 -9 17 -8 18 8 10 10 -6 31 -24 47
-41z m-134 -15 c0 -19 -100 -117 -111 -110 -13 7 7 43 49 87 37 38 62 48 62
23z m-192 -161 c25 -55 4 -98 -22 -47 -14 27 -12 72 4 72 4 0 12 -11 18 -25z
m1357 -275 c15 -6 9 -9 -25 -9 -25 0 -54 4 -65 9 -15 6 -9 9 25 9 25 0 54 -4
65 -9z m-1833 -795 c7 -30 5 -40 -9 -50 -25 -19 -33 -10 -33 39 0 69 29 77 42
11z m908 -45 c24 -8 24 -8 -5 -9 -16 0 -37 4 -45 9 -12 8 -11 10 5 9 11 -1 31
-5 45 -9z m-910 -60 c25 -6 55 -12 68 -15 34 -8 26 -23 -18 -30 -48 -8 -106 9
-120 36 -13 23 0 24 70 9z m1452 -364 c10 -1 21 -5 24 -9 9 -9 -58 -9 -80 -1
-27 10 -18 24 12 18 15 -3 35 -6 44 -8z m856 -21 c15 -15 -97 -55 -155 -55
-56 0 -37 25 42 57 29 12 100 11 113 -2z m-892 -210 c-15 -23 -36 -34 -36 -18
0 10 43 54 48 48 3 -2 -3 -16 -12 -30z m-3417 -14 c18 -11 7 -16 -61 -31 -55
-11 -78 -8 -78 9 0 24 108 41 139 22z m2741 -176 c10 -12 9 -16 -4 -21 -9 -3
-23 -3 -32 0 -13 5 -14 9 -4 21 7 8 16 15 20 15 4 0 13 -7 20 -15z m748 -334
c50 -37 59 -51 33 -51 -21 0 -91 55 -91 71 0 16 16 10 58 -20z m-598 -130 c17
-33 12 -51 -15 -51 -30 0 -41 20 -25 49 13 26 26 27 40 2z m-65 -394 c25 -19
11 -37 -29 -37 -35 0 -62 21 -51 40 9 14 58 13 80 -3z m801 -59 c32 -22 64
-66 64 -87 0 -32 -82 11 -114 59 -36 55 -10 69 50 28z"/>
<path d="M1865 1880 c-3 -5 1 -10 9 -10 9 0 16 5 16 10 0 6 -4 10 -9 10 -6 0
-13 -4 -16 -10z"/>
<path d="M1800 1871 c0 -18 33 -156 39 -163 3 -4 17 1 30 11 l24 19 -20 39
c-11 21 -24 53 -28 71 -4 22 -12 32 -26 32 -10 0 -19 -4 -19 -9z"/>
</g>
</svg>
