<?xml version="1.0" standalone="no"?>
<!DOCTYPE svg PUBLIC "-//W3C//DTD SVG 20010904//EN"
 "http://www.w3.org/TR/2001/REC-SVG-20010904/DTD/svg10.dtd">
<svg version="1.0" xmlns="http://www.w3.org/2000/svg"
 width="480.000000pt" height="360.000000pt" viewBox="0 0 480.000000 360.000000"
 preserveAspectRatio="xMidYMid meet">
<metadata>
Created by potrace 1.16, written by Peter Selinger 2001-2019
</metadata>
<rect width="1" height="360" fill="#000000"/>
<rect x="479" width="1" height="360" fill="#000000"/>
<rect width="480" height="1" fill="#000000"/>
<rect y="359" width="480" height="1" fill="#000000"/>
<g transform="translate(0.000000,360.000000) scale(0.100000,-0.100000)"
fill="#000000" stroke="none">
<path d="M2666 2845 c-32 -34 -71 -89 -86 -122 -16 -34 -34 -63 -41 -65 -8 -3
-13 -42 -16 -134 -2 -71 -4 -139 -4 -151 0 -13 -1 -48 0 -78 0 -30 0 -61 -1
-69 -1 -7 10 -42 25 -77 14 -35 28 -72 31 -83 5 -14 13 -17 38 -14 33 5 102
-12 136 -33 17 -11 31 -10 81 4 83 23 109 22 213 -13 80 -27 102 -30 211 -30
153 0 305 -29 395 -74 70 -36 171 -112 223 -168 33 -35 58 -52 85 -59 60 -13
68 -11 89 24 10 17 25 38 32 45 7 7 22 43 33 80 20 62 20 75 9 167 l-11 100
41 86 c38 82 41 93 46 200 3 63 2 143 -2 179 -8 65 -8 65 -41 66 -24 0 -41 10
-66 37 -35 38 -50 45 -61 27 -4 -6 -43 -29 -87 -51 -215 -108 -353 -106 -544
11 -65 39 -99 53 -175 68 -105 22 -185 57 -241 108 -38 34 -49 38 -127 49 -24
3 -53 12 -64 20 -36 25 -60 15 -121 -50z"/>
</g>
</svg>
