<?xml version="1.0" standalone="no"?>
<!DOCTYPE svg PUBLIC "-//W3C//DTD SVG 20010904//EN"
 "http://www.w3.org/TR/2001/REC-SVG-20010904/DTD/svg10.dtd">
<svg version="1.0" xmlns="http://www.w3.org/2000/svg"
 width="480.000000pt" height="360.000000pt" viewBox="0 0 480.000000 360.000000"
 preserveAspectRatio="xMidYMid meet">
<metadata>
Created by potrace 1.16, written by Peter Selinger 2001-2019
</metadata>
<rect width="1" height="360" fill="#000000"/>
<rect x="479" width="1" height="360" fill="#000000"/>
<rect width="480" height="1" fill="#000000"/>
<rect y="359" width="480" height="1" fill="#000000"/>
<g transform="translate(0.000000,360.000000) scale(0.100000,-0.100000)"
fill="#000000" stroke="none">
<path d="M2915 3513 c-97 -24 -120 -38 -140 -80 -36 -75 -30 -180 16 -278 12
-25 20 -47 18 -48 -2 -2 -24 -12 -49 -22 -197 -84 -382 -286 -415 -457 -31
-159 -37 -178 -60 -212 -27 -40 -21 -47 13 -16 l22 21 0 -26 c0 -14 4 -24 10
-20 5 3 10 -28 12 -77 3 -72 5 -80 15 -58 l11 25 8 -33 c9 -45 29 -55 21 -11
-5 27 -5 30 4 16 6 -11 9 -33 6 -50 -3 -18 -3 -26 -1 -20 4 9 11 10 25 3 14
-8 19 -7 19 2 0 9 3 9 8 2 14 -21 93 -87 97 -82 3 3 -2 22 -10 43 -21 48 -14
55 11 10 10 -19 22 -35 27 -35 4 0 5 5 1 12 -5 7 -3 8 6 3 23 -14 7 -101 -28
-143 -35 -45 -30 -65 22 -82 27 -9 38 -20 47 -48 7 -20 33 -57 59 -82 71 -69
91 -113 81 -186 -7 -53 -6 -60 11 -73 15 -10 19 -21 14 -44 -4 -19 -1 -36 7
-46 8 -9 21 -52 29 -95 15 -77 15 -80 -7 -130 -12 -28 -30 -76 -40 -106 -10
-30 -21 -59 -25 -64 -5 -5 -29 -1 -56 8 -63 21 -86 20 -119 -6 -27 -21 -27
-22 -21 -108 l7 -87 -41 -51 c-22 -29 -44 -52 -49 -52 -4 0 -28 17 -52 38
-153 134 -283 232 -305 232 -13 0 -24 4 -24 8 0 4 -14 27 -31 50 -29 39 -30
47 -33 146 -2 93 -5 111 -32 162 -46 92 -106 113 -255 90 l-47 -7 -7 47 c-8
57 -27 46 -29 -18 l-1 -43 -63 -20 c-80 -26 -139 -63 -151 -95 -6 -14 -18 -54
-27 -89 -16 -59 -16 -68 -1 -130 9 -36 19 -85 23 -109 4 -32 21 -62 66 -118
65 -83 98 -102 223 -133 39 -10 70 -22 70 -27 -1 -5 -13 -45 -27 -89 -31 -94
-48 -206 -48 -309 0 -40 -8 -106 -19 -147 -10 -41 -22 -95 -25 -122 l-7 -47
512 2 513 3 7 35 c29 147 32 155 39 135 5 -11 6 -55 3 -97 l-6 -78 637 0 636
0 -22 42 c-18 36 -22 60 -23 138 l0 95 60 15 c68 17 145 49 145 61 0 4 -6 9
-12 12 -8 2 -1 14 20 31 17 15 32 32 32 37 0 5 -25 9 -56 9 -44 0 -78 -10
-171 -50 -63 -28 -116 -49 -117 -48 -4 6 -28 164 -32 211 -2 27 -9 67 -15 90
-5 23 -12 58 -14 77 -2 19 -15 91 -30 160 -40 189 -43 200 -38 200 2 0 16 -6
32 -14 17 -10 32 -28 39 -53 7 -21 21 -49 33 -62 19 -23 21 -23 37 -8 15 16
15 19 0 45 -10 18 -17 66 -22 152 -4 69 -9 144 -12 168 -10 68 8 49 46 -49 19
-50 38 -93 42 -95 13 -8 9 66 -12 191 -19 119 -24 173 -15 163 3 -2 18 -51 35
-107 25 -84 111 -281 123 -281 2 0 -7 48 -19 107 -13 60 -24 122 -24 138 0 26
7 18 51 -55 62 -105 73 -117 66 -70 -6 37 -20 265 -37 620 -17 362 -68 610
-180 875 -21 50 -43 119 -50 155 -6 36 -26 91 -42 123 -46 86 -135 187 -191
215 -60 31 -173 41 -232 20 -37 -13 -44 -13 -81 6 -22 12 -76 53 -120 92 -67
59 -229 177 -237 173 -1 -1 -29 -8 -62 -16z m126 -1970 l-26 -21 -3 46 c-2 25
0 57 3 71 7 25 8 23 30 -24 l22 -50 -26 -22z"/>
</g>
</svg>
