<?xml version="1.0" standalone="no"?>
<!DOCTYPE svg PUBLIC "-//W3C//DTD SVG 20010904//EN"
 "http://www.w3.org/TR/2001/REC-SVG-20010904/DTD/svg10.dtd">
<svg version="1.0" xmlns="http://www.w3.org/2000/svg"
 width="480.000000pt" height="360.000000pt" viewBox="0 0 480.000000 360.000000"
 preserveAspectRatio="xMidYMid meet">
<metadata>
Created by potrace 1.16, written by Peter Selinger 2001-2019
</metadata>
<rect width="1" height="360" fill="#000000"/>
<rect x="479" width="1" height="360" fill="#000000"/>
<rect width="480" height="1" fill="#000000"/>
<rect y="359" width="480" height="1" fill="#000000"/>
<g transform="translate(0.000000,360.000000) scale(0.100000,-0.100000)"
fill="#000000" stroke="none">
<path d="M0 2465 c0 -624 3 -1135 8 -1135 4 0 27 14 51 30 l44 30 22 -20 c47
-45 57 -203 25 -390 -11 -63 -23 -160 -26 -215 -8 -125 -9 -126 126 94 165
267 222 336 351 423 118 79 121 -12 7 -205 -88 -149 -165 -296 -231 -442 -72
-160 -71 -161 39 -54 179 174 374 333 471 383 41 21 89 21 97 0 12 -31 -39
-101 -162 -224 -116 -115 -277 -308 -267 -318 2 -3 42 11 87 31 162 69 350 96
432 62 20 -8 36 -20 36 -25 0 -5 -19 -28 -42 -50 -45 -43 -120 -83 -178 -95
-89 -18 -222 -70 -290 -113 l-74 -47 -31 -93 -31 -92 1503 0 c1000 0 1502 3
1498 10 -3 6 -13 10 -21 10 -8 0 -22 4 -32 9 -9 5 -30 14 -47 21 -16 7 -38 16
-47 21 -10 5 -23 9 -30 9 -7 0 -25 7 -41 15 -15 8 -52 19 -83 24 -56 11 -92
27 -277 124 -59 31 -116 57 -127 57 -11 0 -27 8 -37 19 -10 10 -55 38 -100 61
-46 23 -83 46 -83 51 0 5 -18 16 -40 25 -22 9 -40 20 -40 24 0 5 -29 23 -64
40 -35 18 -74 43 -87 56 -12 13 -28 24 -36 24 -7 0 -30 16 -50 36 -21 20 -70
62 -110 94 -39 32 -85 72 -102 89 -17 17 -34 31 -39 31 -11 0 -141 127 -162
158 -8 12 -21 22 -30 22 -8 0 -23 14 -32 30 -10 17 -25 33 -35 37 -10 4 -22
11 -28 15 -58 46 -72 55 -88 61 -9 4 -22 18 -27 32 -5 14 -15 25 -22 25 -9 0
-8 3 2 10 10 6 11 10 3 10 -17 0 -53 73 -53 105 0 14 -11 38 -25 53 -14 15
-25 31 -25 37 0 6 -8 18 -17 27 -39 38 -51 54 -55 73 -1 11 -13 38 -26 60 -13
22 -32 60 -44 85 -11 25 -25 47 -29 48 -5 2 -7 7 -4 12 3 4 -2 13 -10 20 -8 7
-15 17 -15 22 0 6 -9 23 -21 39 -11 16 -18 29 -14 29 3 0 -1 13 -10 30 -8 16
-15 40 -15 53 0 12 -13 41 -30 63 -16 23 -36 65 -44 95 -22 82 -36 120 -61
169 -13 25 -28 72 -35 105 -7 33 -20 76 -30 95 -10 19 -26 67 -34 105 -9 39
-18 77 -21 85 -11 35 -67 302 -81 390 -14 90 -33 367 -34 493 l0 57 -410 0
-410 0 0 -1135z"/>
</g>
</svg>
