<?xml version="1.0" standalone="no"?>
<!DOCTYPE svg PUBLIC "-//W3C//DTD SVG 20010904//EN"
 "http://www.w3.org/TR/2001/REC-SVG-20010904/DTD/svg10.dtd">
<svg version="1.0" xmlns="http://www.w3.org/2000/svg"
 width="480.000000pt" height="360.000000pt" viewBox="0 0 480.000000 360.000000"
 preserveAspectRatio="xMidYMid meet">
<metadata>
Created by potrace 1.16, written by Peter Selinger 2001-2019
</metadata>
<rect width="1" height="360" fill="#000000"/>
<rect x="479" width="1" height="360" fill="#000000"/>
<rect width="480" height="1" fill="#000000"/>
<rect y="359" width="480" height="1" fill="#000000"/>
<g transform="translate(0.000000,360.000000) scale(0.100000,-0.100000)"
fill="#000000" stroke="none">
<path d="M0 2625 c0 -536 4 -975 8 -975 22 0 388 43 562 65 631 83 788 100
1127 121 306 19 764 14 962 -11 68 -8 216 -36 330 -61 382 -86 514 -74 1073
97 270 82 348 102 348 89 0 -5 -15 -13 -32 -19 -26 -9 -30 -14 -18 -21 13 -8
13 -10 -2 -10 -9 0 -20 -5 -24 -11 -5 -8 21 -9 92 -4 l99 7 37 43 c45 51 82
70 171 85 l67 12 0 784 0 784 -2400 0 -2400 0 0 -975z"/>
<path d="M4431 1833 c-23 -10 -31 -17 -22 -22 16 -10 -3 -26 -55 -46 l-39 -15
44 4 c36 4 53 13 90 50 47 47 42 56 -18 29z"/>
<path d="M4439 1639 c-32 -34 -36 -49 -16 -49 16 0 39 24 56 58 18 33 -5 28
-40 -9z"/>
<path d="M0 711 l0 -711 2400 0 2400 0 -2 667 -3 668 -26 12 c-26 13 -121 33
-244 53 -38 6 -113 10 -165 8 l-95 -3 45 -12 c132 -37 185 -62 168 -79 -8 -7
-161 -33 -243 -41 l-70 -6 80 -24 c100 -30 214 -74 221 -84 10 -16 -73 -21
-161 -10 -55 7 -100 8 -114 3 -22 -8 -19 -10 25 -21 47 -13 194 -68 204 -78 3
-3 -6 -2 -20 1 -14 4 -38 8 -55 10 -33 4 -145 37 -380 111 -200 62 -356 102
-463 116 -119 16 -291 6 -437 -26 -316 -69 -465 -85 -798 -85 -472 0 -834 34
-1647 155 -162 24 -351 51 -420 60 -69 8 -142 18 -162 21 l-38 6 0 -711z"/>
</g>
</svg>
