<?xml version="1.0" standalone="no"?>
<!DOCTYPE svg PUBLIC "-//W3C//DTD SVG 20010904//EN"
 "http://www.w3.org/TR/2001/REC-SVG-20010904/DTD/svg10.dtd">
<svg version="1.0" xmlns="http://www.w3.org/2000/svg"
 width="480.000000pt" height="360.000000pt" viewBox="0 0 480.000000 360.000000"
 preserveAspectRatio="xMidYMid meet">
<metadata>
Created by potrace 1.16, written by Peter Selinger 2001-2019
</metadata>
<rect width="1" height="360" fill="#000000"/>
<rect x="479" width="1" height="360" fill="#000000"/>
<rect width="480" height="1" fill="#000000"/>
<rect y="359" width="480" height="1" fill="#000000"/>
<g transform="translate(0.000000,360.000000) scale(0.100000,-0.100000)"
fill="#000000" stroke="none">
<path d="M1347 3580 c3 -11 10 -20 15 -20 6 0 8 -13 4 -31 -4 -24 -2 -35 11
-44 14 -10 15 -16 5 -27 -9 -11 -9 -19 2 -33 8 -11 12 -25 9 -31 -9 -25 36
-35 120 -29 45 3 93 8 106 11 23 5 24 3 18 -35 -3 -27 -26 -69 -75 -138 -83
-117 -112 -172 -112 -211 0 -32 36 -86 51 -76 6 3 15 2 22 -4 7 -5 36 -8 66
-7 l53 1 -6 -40 c-8 -56 -24 -310 -30 -496 -6 -142 -5 -153 9 -128 8 15 26 80
40 145 14 65 28 123 30 128 2 6 5 -60 5 -145 0 -85 1 -179 3 -209 l2 -55 -62
-35 c-153 -88 -199 -158 -233 -356 -19 -118 -63 -294 -81 -327 -7 -13 -15 -15
-32 -9 -47 18 -141 23 -161 8 -19 -14 -18 -17 17 -116 20 -57 37 -112 37 -124
0 -12 -36 -116 -80 -232 -79 -208 -207 -478 -356 -750 -42 -76 -78 -145 -81
-152 -4 -11 193 -13 1046 -13 l1051 0 -6 83 c-3 45 -12 122 -20 172 -21 135
-18 373 5 463 11 41 22 76 24 78 3 3 8 -70 11 -163 7 -196 34 -578 42 -611 l6
-22 449 0 c424 0 449 1 449 18 0 10 -7 27 -15 39 -8 12 -11 23 -6 25 14 5 -19
281 -38 315 -6 12 -7 23 -2 25 5 2 5 24 -1 53 -5 28 -11 73 -13 100 -3 28 -12
82 -20 120 -9 39 -18 84 -21 100 -3 17 -10 38 -16 48 -5 10 -7 21 -4 24 3 3
-2 19 -10 35 -8 16 -13 35 -11 41 2 7 0 21 -6 31 -5 11 -16 48 -23 84 -7 36
-21 73 -31 84 -9 10 -17 28 -19 41 -3 30 -28 95 -75 193 -21 46 -39 86 -39 90
0 4 -11 21 -24 38 -13 17 -23 33 -23 36 0 12 -43 88 -57 99 -9 8 -16 20 -16
27 0 8 -22 48 -50 90 -27 41 -50 79 -50 83 0 4 -9 16 -20 26 -11 10 -20 23
-20 30 0 7 -9 20 -20 30 -11 10 -20 26 -20 36 0 10 -9 23 -20 29 -11 6 -20 19
-20 28 0 10 -5 23 -11 29 -5 5 -9 30 -7 54 3 37 7 45 26 47 19 3 21 6 11 18
-9 11 -13 72 -13 215 -1 193 -2 199 -21 199 -19 0 -20 5 -17 78 4 71 7 83 49
150 24 39 47 72 50 72 12 0 -10 -77 -33 -120 l-25 -45 26 25 c14 13 40 53 57
88 27 55 32 76 36 168 4 94 7 106 26 116 37 20 106 100 106 124 0 12 3 24 8
26 18 8 71 88 66 101 -3 8 12 35 35 61 23 26 42 54 42 62 3 26 4 29 32 65 15
20 27 39 27 42 0 4 -486 7 -1079 7 -1074 0 -1079 0 -1074 -20z m1192 -1302 c5
-13 11 -34 15 -48 l7 -25 -20 24 c-12 13 -21 34 -21 47 0 30 8 31 19 2z m736
-1227 c9 -27 23 -55 30 -61 8 -7 12 -17 9 -22 -5 -8 26 -151 44 -198 3 -8 5
-18 4 -22 -1 -4 3 -20 10 -35 11 -28 13 -39 22 -118 3 -22 8 -52 11 -67 15
-61 -13 -21 -72 100 -58 118 -63 134 -73 229 -6 56 -15 128 -20 159 -7 40 -6
62 1 71 7 7 13 13 14 13 2 0 11 -22 20 -49z"/>
</g>
</svg>
