<?xml version="1.0" standalone="no"?>
<!DOCTYPE svg PUBLIC "-//W3C//DTD SVG 20010904//EN"
 "http://www.w3.org/TR/2001/REC-SVG-20010904/DTD/svg10.dtd">
<svg version="1.0" xmlns="http://www.w3.org/2000/svg"
 width="480.000000pt" height="360.000000pt" viewBox="0 0 480.000000 360.000000"
 preserveAspectRatio="xMidYMid meet">
<metadata>
Created by potrace 1.16, written by Peter Selinger 2001-2019
</metadata>
<rect width="1" height="360" fill="#000000"/>
<rect x="479" width="1" height="360" fill="#000000"/>
<rect width="480" height="1" fill="#000000"/>
<rect y="359" width="480" height="1" fill="#000000"/>
<g transform="translate(0.000000,360.000000) scale(0.100000,-0.100000)"
fill="#000000" stroke="none">
<path d="M0 1800 l0 -1800 2400 0 2400 0 0 1800 0 1800 -2400 0 -2400 0 0
-1800z m2586 919 c38 -25 79 -52 92 -58 12 -6 22 -16 22 -21 0 -17 -52 -11
-106 11 -69 29 -86 22 -82 -33 l3 -41 69 -23 c89 -29 122 -53 118 -88 -2 -14
1 -26 7 -26 5 0 22 -5 38 -12 15 -6 34 -10 41 -9 6 1 12 -5 12 -12 0 -8 7 -18
16 -21 13 -5 14 -9 4 -21 -9 -10 -9 -15 -1 -15 6 0 11 -4 11 -10 0 -5 -9 -10
-20 -10 -11 0 -20 -4 -20 -9 0 -13 -35 -20 -53 -9 -12 6 -22 3 -37 -12 -18
-18 -26 -20 -51 -11 -21 7 -28 7 -23 0 6 -10 -11 -8 -55 9 -16 6 -12 -20 15
-83 l16 -38 39 45 c40 47 86 69 100 47 4 -7 10 -43 14 -80 7 -66 8 -67 38 -73
28 -5 208 -25 230 -26 4 0 7 -9 7 -21 0 -18 -4 -20 -37 -15 -143 21 -173 13
-50 -14 38 -9 57 -18 57 -28 0 -11 8 -13 33 -8 183 37 395 47 405 18 2 -6 10
-12 18 -12 7 0 11 -6 8 -14 -5 -13 6 -28 51 -64 9 -8 25 -12 35 -9 11 3 18 0
17 -7 -1 -6 3 -11 8 -10 6 1 18 -7 28 -18 15 -16 15 -19 2 -24 -19 -8 -19 -30
0 -38 12 -4 13 -11 7 -23 -5 -10 -8 -31 -6 -46 2 -23 0 -27 -13 -23 -14 6 -14
4 -2 -11 8 -9 9 -14 2 -10 -6 4 -13 2 -15 -5 -3 -8 -14 -7 -38 5 -40 21 -38
21 -36 0 0 -10 -15 -26 -36 -38 -25 -14 -34 -25 -28 -31 15 -15 -38 -9 -85 11
l-40 16 40 -36 c43 -40 34 -37 -33 8 -50 34 -70 39 -241 67 -68 11 -152 32
-186 45 -43 17 -81 25 -124 25 -61 0 -63 -1 -57 -22 16 -53 18 -98 6 -113 -17
-21 -36 -19 -59 7 l-20 21 -10 -26 c-11 -29 -32 -35 -49 -14 -6 7 -12 40 -14
72 -3 56 -4 60 -26 57 -13 -2 -29 1 -36 7 -8 7 -31 7 -72 1 -132 -22 -194 -8
-179 39 7 23 -5 32 -48 36 -123 10 -321 24 -323 22 -1 -1 -4 -10 -6 -21 -2
-13 8 -22 42 -36 49 -19 58 -31 37 -49 -11 -9 -29 -4 -84 23 -39 19 -111 47
-161 62 -86 26 -93 26 -110 11 -10 -10 -22 -14 -25 -10 -4 3 -7 1 -7 -5 0 -23
-21 -12 -40 22 -19 30 -25 34 -83 40 -52 5 -66 10 -84 33 -48 59 -29 68 109
53 302 -32 484 -50 581 -56 l107 -7 35 39 c19 21 50 69 70 106 l36 67 -15 48
c-9 26 -20 67 -26 89 -8 34 -15 43 -39 47 -34 7 -61 32 -61 56 0 21 36 56 67
65 25 8 53 -24 53 -61 0 -12 8 -36 18 -52 l18 -29 23 33 c30 44 23 94 -13 88
-17 -4 -29 3 -45 22 -11 15 -21 34 -21 41 0 8 -9 14 -19 14 -11 0 -23 5 -26
10 -4 6 -34 23 -68 39 -73 35 -117 74 -117 103 0 19 4 20 42 14 l42 -7 -20 23
c-30 33 -35 44 -28 62 8 20 33 21 40 2 4 -11 12 -13 30 -6 13 5 31 7 39 5 51
-16 49 -13 31 -40 -22 -33 -21 -35 18 -35 28 0 40 7 62 36 42 54 68 65 155 62
71 -3 79 -6 145 -49z"/>
<path d="M2365 2133 c-8 -21 -19 -45 -25 -53 -64 -99 -84 -150 -57 -150 18 0
131 95 146 124 12 22 11 30 -13 70 -15 25 -29 46 -31 46 -3 0 -11 -17 -20 -37z"/>
<path d="M2736 2051 c-8 -12 86 -43 116 -39 17 2 7 9 -38 26 -69 25 -71 25
-78 13z"/>
</g>
</svg>
