<?xml version="1.0" standalone="no"?>
<!DOCTYPE svg PUBLIC "-//W3C//DTD SVG 20010904//EN"
 "http://www.w3.org/TR/2001/REC-SVG-20010904/DTD/svg10.dtd">
<svg version="1.0" xmlns="http://www.w3.org/2000/svg"
 width="480.000000pt" height="360.000000pt" viewBox="0 0 480.000000 360.000000"
 preserveAspectRatio="xMidYMid meet">
<metadata>
Created by potrace 1.16, written by Peter Selinger 2001-2019
</metadata>
<rect width="1" height="360" fill="#000000"/>
<rect x="479" width="1" height="360" fill="#000000"/>
<rect width="480" height="1" fill="#000000"/>
<rect y="359" width="480" height="1" fill="#000000"/>
<g transform="translate(0.000000,360.000000) scale(0.100000,-0.100000)"
fill="#000000" stroke="none">
<path d="M3833 3341 c15 -39 -4 -61 -52 -61 -26 0 -32 -3 -21 -10 8 -5 12 -10
10 -12 -23 -17 -95 -62 -139 -88 -38 -22 -57 -28 -64 -21 -35 35 -52 -23 -21
-68 16 -22 16 -27 -1 -73 -13 -37 -16 -64 -11 -116 10 -98 16 -122 32 -122 8
0 14 -5 14 -11 0 -11 -71 -7 -126 7 -15 4 -27 -2 -42 -21 -21 -26 -26 -28
-106 -40 -37 -6 -46 -4 -46 8 0 30 -27 40 -82 31 -44 -8 -56 -15 -75 -43 -28
-41 -29 -51 -4 -51 30 0 48 -39 56 -120 9 -97 17 -110 61 -110 41 0 57 8 137
66 85 63 98 60 76 -21 -6 -22 -17 -77 -23 -122 -10 -67 -10 -86 1 -107 12 -24
12 -30 -5 -54 -11 -15 -40 -68 -66 -119 -34 -66 -71 -117 -132 -183 -83 -91
-84 -92 -84 -144 0 -45 5 -58 35 -94 35 -40 141 -102 177 -102 10 0 18 -4 18
-10 0 -5 8 -10 19 -10 26 0 32 -42 15 -102 -21 -68 -24 -122 -13 -185 7 -39 7
-64 -2 -91 -9 -27 -9 -37 0 -40 15 -5 14 -43 -3 -64 -10 -13 -28 -18 -67 -18
-102 0 -169 -31 -169 -77 0 -26 23 -78 47 -105 8 -9 12 -21 9 -27 -3 -5 -11
-33 -16 -61 -5 -28 -19 -64 -30 -80 -27 -38 -25 -46 11 -59 61 -21 72 -15 104
54 17 36 35 65 41 65 6 0 19 -9 29 -20 9 -10 39 -26 65 -35 41 -14 51 -23 74
-66 14 -28 26 -56 26 -63 0 -6 -18 -33 -40 -60 -22 -26 -40 -50 -40 -53 0 -16
25 -44 55 -62 20 -12 35 -28 35 -39 0 -22 -27 -48 -55 -54 -18 -3 -20 -12 -22
-76 -1 -68 10 -102 23 -67 4 9 28 27 55 40 64 33 119 82 119 107 0 11 11 34
24 51 14 18 28 46 31 62 14 60 31 75 84 75 27 0 70 9 95 20 38 16 46 24 46 45
0 14 7 36 15 49 23 35 10 73 -36 103 -44 29 -48 42 -19 68 11 10 20 24 20 32
0 8 12 35 26 60 32 54 33 84 3 176 -19 58 -20 75 -11 100 6 16 8 35 4 41 -4 6
-7 63 -8 126 0 72 -7 140 -17 180 -19 74 -22 136 -7 145 22 14 10 108 -29 223
-22 64 -42 135 -46 157 -13 73 -37 150 -58 179 -19 27 -19 30 -3 56 9 16 16
41 16 56 0 39 30 146 47 166 8 9 26 19 39 22 30 8 54 58 54 115 0 35 -4 42
-37 62 -21 12 -40 24 -41 25 -2 1 15 20 38 41 40 35 51 39 164 60 66 12 160
27 208 34 95 13 119 26 90 52 -16 14 -33 12 -200 -20 -100 -20 -185 -33 -188
-30 -3 3 0 15 6 27 12 22 10 102 -4 131 -5 12 3 28 24 53 32 36 32 61 -1 53
-12 -3 -20 2 -25 17 -4 11 -26 51 -50 88 -24 37 -39 70 -34 73 6 4 17 20 26
36 14 28 14 33 -1 55 -8 13 -22 24 -29 24 -12 0 -12 -6 -3 -29z m431 -501 c-9
-9 -90 -26 -244 -49 -41 -7 -86 -14 -100 -17 -14 -3 -21 -2 -17 3 10 9 298 70
342 72 19 1 26 -2 19 -9z m-876 -146 c-11 -10 -108 -32 -108 -24 0 4 21 12 48
18 61 13 66 13 60 6z m-258 -14 c0 -5 -4 -10 -10 -10 -5 0 -10 5 -10 10 0 6 5
10 10 10 6 0 10 -4 10 -10z m174 -51 c-10 -21 -19 -28 -26 -21 -13 13 7 52 28
52 13 0 12 -4 -2 -31z m433 -1182 c34 -89 58 -230 48 -278 -4 -17 -2 -36 5
-44 9 -10 8 -21 -4 -44 -9 -16 -16 -55 -16 -85 l0 -54 -92 28 c-51 15 -114 30
-140 34 -31 5 -51 14 -58 25 -9 18 -6 177 5 256 3 22 15 82 26 132 24 105 14
99 174 111 16 2 26 -13 52 -81z"/>
<path d="M2080 3319 c0 -5 -5 -7 -11 -3 -8 4 -9 0 -4 -15 4 -12 2 -21 -4 -21
-8 0 -7 -7 1 -20 11 -18 6 -26 -46 -79 -36 -37 -69 -61 -85 -63 -37 -4 -39
-40 -6 -80 22 -26 25 -38 20 -66 -8 -41 12 -75 55 -97 21 -11 30 -23 30 -40 0
-16 6 -25 15 -25 8 0 15 -3 15 -8 0 -9 -90 -42 -114 -42 -18 0 -21 -21 -5 -37
7 -7 1 -18 -21 -37 -26 -21 -35 -24 -52 -15 -30 16 -83 2 -103 -27 -16 -24
-15 -27 1 -45 14 -16 15 -21 3 -35 -22 -27 -74 -44 -132 -44 -67 0 -81 -12
-61 -53 24 -44 94 -117 115 -117 13 0 22 15 33 54 16 53 36 83 36 53 0 -23 27
-40 53 -33 12 3 40 20 62 39 42 35 57 36 90 6 11 -10 32 -22 47 -28 28 -11 75
-86 59 -95 -16 -10 -52 -99 -112 -275 -86 -253 -90 -267 -77 -297 10 -21 88
-75 140 -96 14 -6 15 -13 7 -40 -6 -21 -5 -53 1 -89 7 -39 7 -65 0 -84 -7 -20
-7 -31 1 -41 14 -17 5 -44 -15 -44 -29 0 -84 -33 -95 -57 -6 -13 -11 -37 -11
-53 0 -31 38 -63 128 -109 50 -26 57 -57 15 -67 -16 -3 -39 -9 -53 -14 -14 -5
-50 -11 -80 -15 -81 -9 -86 -13 -70 -72 7 -26 17 -52 21 -57 16 -18 9 -42 -17
-67 -24 -22 -33 -24 -110 -22 -81 3 -84 2 -84 -20 0 -34 28 -67 57 -67 15 0
41 14 63 34 24 21 62 41 107 55 83 25 98 25 178 6 83 -20 178 -10 213 21 14
13 31 24 38 24 8 0 28 19 45 43 17 23 41 48 55 55 13 7 24 17 24 22 0 13 -30
40 -44 40 -8 0 -19 6 -26 14 -9 12 -6 24 15 60 15 25 30 46 34 46 4 0 26 17
49 38 59 54 58 86 -3 113 -53 24 -61 36 -70 114 -4 33 -12 68 -17 78 -19 37
-36 117 -24 117 33 0 89 24 121 53 54 48 57 93 12 193 -47 106 -63 156 -91
287 -13 62 -31 125 -39 141 -16 29 -11 56 13 71 6 4 0 26 -15 55 -14 27 -25
58 -25 68 0 20 22 66 64 130 35 55 31 74 -19 90 -53 17 -62 28 -43 49 8 10 13
24 11 31 -3 6 0 12 5 12 14 0 8 61 -9 95 -9 17 -22 56 -29 87 -11 50 -11 60 4
82 9 14 16 30 16 35 0 11 -71 51 -89 51 -6 0 -31 14 -56 32 -33 23 -44 37 -39
50 7 24 -14 61 -32 54 -8 -3 -14 1 -14 9 0 8 -4 15 -10 15 -5 0 -10 -5 -10
-11z m120 -1677 c0 -5 16 -35 36 -68 20 -32 41 -75 48 -95 12 -34 12 -96 1
-107 -2 -2 -34 -1 -70 3 -64 6 -101 26 -89 47 4 6 8 47 9 92 4 97 17 136 45
136 11 0 20 -4 20 -8z m-214 -632 c11 0 14 -10 12 -37 -4 -53 -33 -57 -54 -8
-16 39 -11 60 13 51 8 -3 21 -6 29 -6z"/>
<path d="M524 3186 c-3 -9 -13 -16 -21 -16 -11 0 -14 -7 -10 -21 13 -48 -4
-79 -71 -130 -47 -35 -71 -48 -89 -45 -15 3 -26 -1 -30 -10 -3 -8 -11 -14 -19
-14 -19 0 -18 -4 12 -52 23 -35 26 -49 20 -92 -5 -45 -3 -53 21 -78 15 -15 32
-28 39 -28 14 0 27 -28 18 -41 -3 -6 6 -28 21 -49 21 -31 26 -45 20 -67 -4
-15 -9 -37 -11 -48 -2 -11 -5 -31 -7 -45 -3 -14 -5 -31 -6 -38 -1 -15 -86 -54
-156 -71 -27 -7 -59 -21 -71 -32 -13 -13 -47 -23 -102 -31 l-82 -11 0 -258 0
-258 154 -105 c170 -117 184 -121 282 -91 51 15 92 20 81 8 -4 -3 0 -14 8 -24
15 -15 13 -22 -24 -79 -72 -111 -50 -157 114 -245 136 -72 160 -88 145 -93
-47 -16 -167 -133 -156 -151 11 -17 -25 -41 -59 -41 -50 0 -229 -37 -317 -65
-42 -14 -82 -25 -88 -25 -5 0 -27 16 -49 35 -22 20 -49 35 -63 35 l-25 0 -1
-311 0 -310 26 -28 c15 -16 76 -80 135 -143 l109 -114 241 -2 c178 -1 248 1
264 11 100 57 134 79 142 96 12 21 19 13 -156 163 -49 43 -102 90 -116 105
-15 16 -49 46 -76 68 -51 41 -72 87 -30 64 24 -12 112 -6 203 15 47 11 63 21
103 66 31 35 52 69 60 99 8 29 22 53 40 66 25 18 112 59 155 72 9 3 24 21 33
40 23 47 10 91 -45 157 -22 27 -44 54 -48 61 -4 6 -28 24 -55 39 -29 17 -49
37 -53 52 -4 14 -15 29 -25 35 -11 5 -19 18 -19 29 0 28 -11 50 -25 50 -7 0
-32 24 -56 53 -23 28 -49 57 -56 63 -11 10 -11 13 2 18 8 3 21 3 29 0 7 -3 58
7 112 21 93 25 195 75 224 110 20 24 7 99 -24 140 -15 20 -59 102 -98 183 -39
81 -84 162 -100 180 -15 18 -28 39 -28 48 0 8 -15 45 -34 82 -19 38 -49 111
-66 162 -18 52 -41 111 -51 132 -25 50 -25 53 16 78 24 15 36 31 41 55 7 38
-9 122 -32 171 -15 31 -14 35 8 74 l23 41 -24 20 c-13 10 -31 19 -41 19 -22 0
-80 64 -80 88 0 24 -67 155 -85 165 -10 5 -17 3 -21 -7z m-64 -932 c0 -23 10
-51 30 -79 17 -24 30 -45 30 -47 0 -2 -29 -4 -65 -5 -44 -1 -70 -7 -81 -17
-28 -28 -92 -19 -166 23 l-68 38 23 20 c24 22 56 37 73 35 5 -1 48 14 95 33
112 46 129 46 129 -1z m-366 -40 c9 -3 16 -10 16 -15 0 -14 -24 -11 -46 6 -16
12 -17 14 -2 15 9 0 23 -3 32 -6z m506 -228 c0 -8 -4 -26 -10 -40 l-9 -25 -55
27 c-60 28 -61 38 -6 45 70 8 80 7 80 -7z m-60 -1125 c15 -29 12 -71 -5 -77
-24 -9 -18 -33 10 -40 14 -3 25 -9 25 -11 0 -3 -17 -25 -37 -48 -21 -24 -46
-55 -56 -69 -27 -39 -63 -34 -118 17 -25 23 -71 65 -102 93 -60 55 -68 71 -39
80 9 3 28 11 42 17 52 23 177 55 222 56 37 1 49 -3 58 -18z"/>
</g>
</svg>
