<?xml version="1.0" standalone="no"?>
<!DOCTYPE svg PUBLIC "-//W3C//DTD SVG 20010904//EN"
 "http://www.w3.org/TR/2001/REC-SVG-20010904/DTD/svg10.dtd">
<svg version="1.0" xmlns="http://www.w3.org/2000/svg"
 width="480.000000pt" height="360.000000pt" viewBox="0 0 480.000000 360.000000"
 preserveAspectRatio="xMidYMid meet">
<metadata>
Created by potrace 1.16, written by Peter Selinger 2001-2019
</metadata>
<rect width="1" height="360" fill="#000000"/>
<rect x="479" width="1" height="360" fill="#000000"/>
<rect width="480" height="1" fill="#000000"/>
<rect y="359" width="480" height="1" fill="#000000"/>
<g transform="translate(0.000000,360.000000) scale(0.100000,-0.100000)"
fill="#000000" stroke="none">
<path d="M1587 3367 c-27 -32 -28 -34 -22 -132 8 -146 13 -193 27 -218 6 -12
11 -23 10 -24 -1 -2 -2 -4 -1 -5 0 -2 2 -13 3 -26 5 -39 19 -46 78 -34 29 6
57 7 61 3 4 -4 -17 -45 -48 -91 -30 -46 -55 -90 -55 -98 0 -29 22 -51 56 -58
l36 -7 -7 -186 c-5 -125 -4 -183 3 -176 6 6 12 19 15 30 3 11 6 -25 7 -80 2
-90 3 -96 13 -65 l11 35 4 -35 c3 -28 -1 -38 -20 -50 -90 -58 -107 -97 -108
-247 0 -109 -10 -133 -53 -133 -33 0 -77 -23 -77 -41 0 -5 16 -33 35 -61 26
-37 34 -58 31 -77 -3 -14 -13 -70 -22 -124 -16 -96 -19 -103 -140 -318 -68
-121 -124 -228 -124 -239 0 -11 12 -38 26 -60 l27 -40 -17 -83 c-22 -112 -21
-185 3 -211 18 -20 18 -24 -6 -141 -13 -66 -24 -159 -26 -207 -2 -74 1 -90 19
-115 13 -17 32 -29 50 -31 16 -2 32 -9 36 -15 5 -7 8 -4 8 9 0 12 6 27 14 33
12 10 128 181 180 264 23 38 30 29 16 -20 -6 -21 -26 -95 -45 -166 l-33 -127
694 0 c385 0 694 4 694 9 0 4 -23 75 -50 155 l-50 148 20 25 c26 34 47 103 70
237 16 90 24 114 44 130 48 42 54 78 23 164 -14 39 -13 49 4 115 l18 72 -40
85 c-58 120 -157 353 -184 430 -12 36 -28 77 -36 93 -11 24 -10 32 9 66 12 21
22 55 22 75 0 30 -5 40 -32 56 -18 11 -42 20 -53 20 -37 0 -47 17 -61 94 -17
97 -37 139 -88 182 l-41 34 0 143 c0 78 -3 145 -7 148 -12 8 27 91 52 114 32
29 53 117 46 186 -4 33 -5 59 -3 59 2 0 18 -5 36 -11 27 -9 35 -8 51 6 27 24
63 90 79 145 7 25 17 53 22 62 5 10 9 26 9 36 0 10 3 22 7 26 10 10 31 76 29
89 -2 7 -6 20 -9 30 -4 9 -9 23 -11 31 -5 15 -72 37 -174 57 -120 23 -293 -6
-307 -51 -6 -18 -8 -17 -40 4 -40 27 -126 40 -175 26 -46 -13 -48 -13 -55 10
-8 24 -110 74 -183 89 -29 6 -101 11 -160 11 l-107 0 -28 -33z"/>
</g>
</svg>
