<?xml version="1.0" standalone="no"?>
<!DOCTYPE svg PUBLIC "-//W3C//DTD SVG 20010904//EN"
 "http://www.w3.org/TR/2001/REC-SVG-20010904/DTD/svg10.dtd">
<svg version="1.0" xmlns="http://www.w3.org/2000/svg"
 width="480.000000pt" height="360.000000pt" viewBox="0 0 480.000000 360.000000"
 preserveAspectRatio="xMidYMid meet">
<metadata>
Created by potrace 1.16, written by Peter Selinger 2001-2019
</metadata>
<rect width="1" height="360" fill="#000000"/>
<rect x="479" width="1" height="360" fill="#000000"/>
<rect width="480" height="1" fill="#000000"/>
<rect y="359" width="480" height="1" fill="#000000"/>
<g transform="translate(0.000000,360.000000) scale(0.100000,-0.100000)"
fill="#000000" stroke="none">
<path d="M0 1800 l0 -1800 1065 0 c736 0 1065 3 1065 10 0 6 7 70 15 143 22
195 46 517 39 528 -3 5 -19 16 -35 24 -16 9 -27 20 -23 26 3 6 -2 17 -12 25
-14 11 -16 17 -6 20 6 3 10 10 6 15 -3 5 9 33 25 63 26 44 34 75 45 167 32
252 31 296 0 417 -26 101 -27 114 -16 163 7 30 16 70 21 89 4 19 18 54 30 78
12 23 17 42 11 42 -18 0 -11 48 10 63 14 9 21 30 26 71 7 55 6 59 -22 82 -16
14 -40 29 -53 34 -19 9 -21 13 -11 25 10 12 9 16 -3 21 -9 3 -21 3 -27 -1 -5
-3 -30 10 -53 29 -24 20 -46 34 -49 31 -11 -11 -17 110 -8 157 13 64 19 74 84
136 109 103 220 130 327 79 57 -28 123 -97 159 -167 26 -51 67 -201 86 -310 8
-52 29 -148 45 -214 15 -65 33 -166 39 -225 7 -58 18 -160 26 -225 11 -88 15
-219 15 -499 -1 -405 0 -414 55 -662 13 -60 32 -138 41 -172 l16 -63 933 0
934 0 0 1069 0 1068 -57 18 c-159 49 -335 155 -470 281 -222 206 -346 432
-404 734 -19 100 -21 135 -16 273 l6 157 -1929 0 -1930 0 0 -1800z"/>
<path d="M2362 1980 c0 -14 2 -19 5 -12 2 6 2 18 0 25 -3 6 -5 1 -5 -13z"/>
</g>
</svg>
