<?xml version="1.0" standalone="no"?>
<!DOCTYPE svg PUBLIC "-//W3C//DTD SVG 20010904//EN"
 "http://www.w3.org/TR/2001/REC-SVG-20010904/DTD/svg10.dtd">
<svg version="1.0" xmlns="http://www.w3.org/2000/svg"
 width="480.000000pt" height="360.000000pt" viewBox="0 0 480.000000 360.000000"
 preserveAspectRatio="xMidYMid meet">
<metadata>
Created by potrace 1.16, written by Peter Selinger 2001-2019
</metadata>
<rect width="1" height="360" fill="#000000"/>
<rect x="479" width="1" height="360" fill="#000000"/>
<rect width="480" height="1" fill="#000000"/>
<rect y="359" width="480" height="1" fill="#000000"/>
<g transform="translate(0.000000,360.000000) scale(0.100000,-0.100000)"
fill="#000000" stroke="none">
<path d="M0 2180 l0 -1420 123 0 c67 0 127 4 134 8 8 5 15 58 19 161 6 126 5
154 -7 162 -11 7 -7 22 24 84 30 60 41 75 59 75 46 0 118 33 124 57 7 27 1
111 -10 135 -6 14 0 21 31 34 21 9 45 20 53 24 18 8 26 58 12 72 -7 7 -3 22
10 44 19 33 38 37 38 9 0 -7 6 -15 13 -18 10 -3 10 -9 0 -26 -29 -47 -5 -105
48 -116 33 -8 48 -30 30 -48 -6 -6 -11 -39 -11 -74 l0 -63 44 -20 c25 -11 54
-20 65 -20 29 0 45 -21 71 -90 18 -48 21 -66 12 -83 -12 -26 -23 -212 -15
-263 6 -34 6 -34 57 -33 100 2 99 0 97 114 l-2 100 58 94 c32 52 63 96 68 98
6 2 36 -43 68 -100 56 -100 57 -105 57 -180 l0 -77 28 0 c15 0 166 -9 336 -19
l308 -19 72 -71 c39 -39 75 -71 79 -71 5 0 7 94 5 208 l-3 208 50 77 c28 42
55 77 60 77 6 0 32 -34 58 -77 l48 -76 -3 -528 -3 -529 1248 0 1247 0 0 1800
0 1800 -2400 0 -2400 0 0 -1420z m3044 590 c30 -11 60 -64 52 -94 -3 -12 3
-44 12 -72 l18 -49 93 -20 c117 -25 133 -42 81 -86 -19 -16 -42 -29 -52 -29
-20 0 -24 -15 -7 -26 8 -5 8 -9 -1 -14 -9 -5 -5 -19 14 -48 31 -50 33 -61 5
-36 -16 14 -24 16 -37 7 -9 -6 -16 -16 -15 -21 3 -14 -25 -23 -33 -11 -4 6
-11 6 -20 -2 -11 -9 -13 -24 -8 -59 4 -29 2 -56 -5 -69 -11 -20 -8 -20 41 8
29 16 77 36 106 45 45 13 54 13 58 1 7 -18 -12 -80 -37 -121 -19 -32 -19 -32
3 -38 13 -3 66 -6 118 -7 52 0 106 -4 120 -8 l25 -7 -22 -8 c-33 -11 -29 -19
25 -45 26 -13 41 -26 35 -28 -26 -9 -12 -20 42 -33 60 -14 73 -30 25 -30 -37
0 -39 -16 -3 -33 25 -11 63 -42 63 -51 0 -2 -21 1 -47 5 -25 5 -49 7 -51 4 -3
-3 10 -23 28 -46 27 -34 29 -39 10 -29 -12 6 -24 9 -27 7 -2 -3 5 -11 18 -18
21 -11 22 -12 5 -25 -28 -20 -11 -51 41 -74 48 -21 56 -38 10 -21 -22 8 -25 8
-20 -5 5 -13 0 -12 -36 2 -23 9 -44 14 -47 12 -11 -12 10 -37 37 -43 51 -11
45 -26 -9 -19 -41 5 -50 3 -56 -11 -3 -10 -1 -24 5 -31 15 -18 -2 -18 -27 1
-10 8 -27 15 -37 15 -18 0 -18 -2 2 -35 22 -38 13 -49 -12 -12 -8 12 -29 30
-46 40 l-30 18 -7 -26 c-3 -14 -4 -32 0 -40 3 -8 1 -15 -4 -15 -6 0 -10 -9
-10 -19 0 -11 -4 -23 -10 -26 -5 -3 -10 3 -10 14 0 12 -4 21 -9 21 -5 0 -7 9
-4 20 4 16 -1 21 -25 26 -17 4 -39 15 -48 25 -27 30 -39 23 -40 -22 0 -31 -6
-46 -23 -60 -52 -42 -85 -14 -105 90 -11 59 -19 78 -42 97 -56 46 -67 36 -104
-93 -18 -65 -24 -73 -45 -73 -30 0 -55 34 -55 75 0 37 -6 45 -47 68 -43 24
-44 23 -28 -24 17 -47 18 -59 7 -59 -4 0 -15 19 -23 41 -13 35 -22 45 -60 59
-36 15 -44 22 -44 43 0 15 -8 32 -18 39 -10 7 -19 26 -20 42 -2 26 2 31 32 37
19 4 42 17 52 30 9 12 41 36 70 54 46 27 54 37 65 75 6 25 13 50 14 55 2 6 0
27 -4 48 -6 27 -16 42 -37 53 -24 12 -29 21 -29 54 0 21 -5 51 -10 65 -10 28
-6 43 31 104 11 18 11 25 2 28 -7 3 -13 21 -13 42 0 67 -32 84 -122 66 -33 -7
-40 -4 -57 16 -24 29 -17 38 49 69 39 18 47 26 35 32 -25 15 -18 29 10 18 39
-15 87 23 120 92 28 61 84 118 115 118 10 0 30 -4 44 -10z"/>
<path d="M3554 1535 c11 -8 25 -15 30 -15 6 0 2 7 -8 15 -11 8 -25 15 -30 15
-6 0 -2 -7 8 -15z"/>
</g>
</svg>
