<?xml version="1.0" standalone="no"?>
<!DOCTYPE svg PUBLIC "-//W3C//DTD SVG 20010904//EN"
 "http://www.w3.org/TR/2001/REC-SVG-20010904/DTD/svg10.dtd">
<svg version="1.0" xmlns="http://www.w3.org/2000/svg"
 width="480.000000pt" height="360.000000pt" viewBox="0 0 480.000000 360.000000"
 preserveAspectRatio="xMidYMid meet">
<metadata>
Created by potrace 1.16, written by Peter Selinger 2001-2019
</metadata>
<rect width="1" height="360" fill="#000000"/>
<rect x="479" width="1" height="360" fill="#000000"/>
<rect width="480" height="1" fill="#000000"/>
<rect y="359" width="480" height="1" fill="#000000"/>
<g transform="translate(0.000000,360.000000) scale(0.100000,-0.100000)"
fill="#000000" stroke="none">
<path d="M2318 1714 c-15 -8 -32 -22 -37 -32 -19 -36 -49 -138 -49 -167 0 -35
15 -68 28 -60 5 3 6 -18 4 -47 -4 -40 -1 -61 14 -87 l19 -35 -29 -40 c-44 -61
-104 -162 -143 -241 -28 -56 -35 -81 -35 -129 0 -96 15 -129 81 -181 33 -25
64 -45 69 -45 6 0 10 -4 10 -9 0 -5 13 -11 29 -14 21 -5 30 -13 34 -35 7 -35
26 -42 120 -42 99 0 129 19 120 77 -3 18 -1 39 6 47 6 7 21 50 32 96 l21 82
-22 62 c-13 33 -34 84 -47 111 -14 28 -33 74 -43 103 -18 49 -18 52 -1 43 10
-6 23 -17 31 -25 20 -25 77 -20 106 10 23 22 25 31 20 67 -8 53 -8 71 0 124 7
48 -11 113 -31 113 -7 0 -15 8 -17 18 -2 13 -9 8 -26 -20 -12 -20 -21 -42 -20
-50 2 -8 -9 -14 -33 -16 -33 -3 -36 -1 -47 35 -22 73 -23 83 -13 83 12 0 61
80 61 100 0 27 -44 98 -67 109 -34 15 -113 13 -145 -5z m192 -384 c0 -5 -8
-10 -17 -10 -15 0 -16 2 -3 10 19 12 20 12 20 0z m-10 -90 c0 -5 -2 -10 -4
-10 -3 0 -8 5 -11 10 -3 6 -1 10 4 10 6 0 11 -4 11 -10z"/>
</g>
</svg>
