<?xml version="1.0" standalone="no"?>
<!DOCTYPE svg PUBLIC "-//W3C//DTD SVG 20010904//EN"
 "http://www.w3.org/TR/2001/REC-SVG-20010904/DTD/svg10.dtd">
<svg version="1.0" xmlns="http://www.w3.org/2000/svg"
 width="480.000000pt" height="360.000000pt" viewBox="0 0 480.000000 360.000000"
 preserveAspectRatio="xMidYMid meet">
<metadata>
Created by potrace 1.16, written by Peter Selinger 2001-2019
</metadata>
<rect width="1" height="360" fill="#000000"/>
<rect x="479" width="1" height="360" fill="#000000"/>
<rect width="480" height="1" fill="#000000"/>
<rect y="359" width="480" height="1" fill="#000000"/>
<g transform="translate(0.000000,360.000000) scale(0.100000,-0.100000)"
fill="#000000" stroke="none">
<path d="M3919 3424 c-83 -55 -168 -126 -284 -236 -33 -31 -78 -70 -100 -86
-22 -16 -67 -58 -100 -93 -36 -39 -115 -102 -199 -158 -76 -51 -169 -120 -206
-152 -49 -42 -73 -56 -88 -52 -18 4 -20 11 -15 56 7 70 -20 107 -77 107 -37 0
-66 -20 -42 -28 17 -5 15 -33 -4 -60 -14 -20 -23 -22 -114 -22 -109 0 -150
-12 -325 -95 l-30 -14 35 5 35 5 -34 -28 c-19 -15 -46 -38 -60 -51 l-26 -23
33 16 c37 18 41 11 12 -20 -26 -28 -45 -119 -36 -170 7 -37 9 -38 21 -21 13
18 14 17 20 -7 9 -36 3 -61 -17 -65 -12 -2 -19 5 -23 25 -27 136 -50 185 -122
257 -78 78 -197 113 -298 87 -38 -9 -48 -9 -60 3 -8 8 -18 16 -23 18 -5 1 -28
43 -51 92 -55 114 -122 183 -223 231 -240 113 -455 75 -604 -107 -129 -157
-188 -399 -138 -568 45 -150 182 -272 362 -320 53 -14 194 -14 241 0 19 5 36
8 37 7 5 -5 -89 -101 -131 -135 -36 -29 -39 -34 -27 -53 12 -19 10 -25 -15
-53 -58 -64 -65 -74 -58 -95 10 -32 36 -25 76 21 l36 42 34 -20 c44 -26 47
-49 12 -86 -20 -22 -24 -32 -15 -35 7 -3 18 -16 23 -30 5 -14 18 -27 29 -30
12 -3 20 -14 20 -27 0 -11 7 -84 15 -160 10 -97 21 -152 36 -183 11 -24 23
-62 26 -84 4 -27 13 -45 29 -56 16 -10 25 -28 30 -59 6 -40 4 -47 -21 -70 -27
-25 -28 -28 -22 -103 7 -93 12 -105 41 -119 19 -9 25 -20 28 -59 3 -41 0 -51
-19 -66 -26 -21 -29 -60 -13 -148 7 -38 18 -60 35 -74 17 -15 27 -35 31 -68 6
-42 4 -50 -15 -63 -18 -13 -21 -25 -21 -80 0 -57 2 -64 20 -64 19 0 20 4 14
56 -7 56 -7 56 15 43 20 -12 24 -12 36 5 14 18 15 18 25 -8 5 -15 10 -43 10
-62 0 -24 5 -34 15 -34 11 0 15 12 15 44 0 59 -16 101 -44 114 -18 8 -24 21
-29 58 -4 43 -2 51 20 72 24 22 25 27 19 95 -10 100 -15 117 -41 127 -37 14
-48 107 -15 128 17 10 20 22 19 85 -1 91 -9 120 -36 132 -16 7 -22 20 -25 55
-4 40 -1 49 26 76 25 24 45 32 101 42 39 6 119 27 180 46 60 19 110 34 112 32
1 -1 -7 -27 -18 -57 -31 -81 -34 -180 -10 -369 12 -91 24 -228 27 -305 6 -123
5 -142 -10 -154 -9 -7 -16 -26 -16 -41 0 -15 -7 -33 -16 -41 -8 -7 -24 -29
-34 -49 -10 -20 -30 -44 -44 -54 -14 -9 -26 -21 -26 -26 0 -6 169 -10 466 -10
307 0 463 3 459 10 -3 6 -2 10 4 10 5 0 13 -4 16 -10 4 -6 151 -10 409 -10
l404 0 6 35 c10 49 -10 106 -70 208 -52 87 -61 120 -14 50 14 -20 37 -49 51
-64 15 -15 34 -38 43 -50 8 -13 18 -21 20 -18 3 3 -16 36 -41 75 -49 72 -83
132 -83 147 0 11 10 1 94 -101 38 -45 73 -82 77 -82 5 0 -27 51 -71 113 -50
69 -82 125 -85 147 -8 48 -31 139 -44 175 -7 17 -48 142 -91 278 -78 241 -81
254 -95 410 -8 89 -15 205 -15 259 0 103 26 333 41 358 7 13 8 12 9 -2 0 -10
4 -18 8 -18 5 0 14 -11 20 -25 6 -14 19 -25 28 -25 15 0 53 37 54 52 0 4 12
20 26 35 33 35 64 84 64 101 0 7 9 25 19 40 11 15 29 59 41 97 11 39 26 84 31
102 14 45 13 151 -3 198 -15 46 -55 71 -130 81 -70 10 -111 -2 -184 -52 -52
-35 -72 -44 -92 -39 l-25 6 34 36 c19 19 90 92 159 161 124 125 125 126 173
128 37 1 58 8 90 33 23 17 75 47 115 66 51 26 72 41 72 54 0 21 -48 55 -93 66
-40 10 -42 23 -7 43 18 9 42 25 54 34 19 17 20 19 4 31 -15 12 -9 24 64 123
45 60 98 129 120 153 37 43 46 61 30 61 -5 0 -47 -25 -93 -56z m-2369 -1434
c8 -5 11 -12 7 -16 -4 -4 -15 0 -24 9 -18 18 -8 23 17 7z m696 -42 c-7 -50 -2
-59 42 -82 29 -15 33 -21 27 -44 -4 -15 -22 -92 -41 -171 -18 -79 -41 -152
-50 -162 -33 -36 -104 -67 -260 -114 -87 -26 -183 -58 -213 -71 -30 -13 -55
-23 -56 -22 -1 2 -12 57 -23 123 l-20 120 31 29 c26 25 28 30 14 38 -35 19
-74 135 -57 167 5 9 14 37 21 64 6 26 13 47 14 47 1 0 24 -12 51 -27 45 -26
57 -28 159 -28 104 0 114 2 177 33 45 22 83 50 115 87 60 68 78 71 69 13z
m189 -317 c-7 -32 -25 -43 -25 -15 0 19 20 57 27 51 3 -3 2 -19 -2 -36z m-905
-607 c0 -8 -4 -12 -10 -9 -5 3 -10 10 -10 16 0 5 5 9 10 9 6 0 10 -7 10 -16z
m1313 -172 c14 -15 34 -51 43 -80 19 -57 37 -71 27 -19 l-6 32 29 -26 c16 -15
43 -40 61 -55 30 -28 64 -92 118 -226 14 -34 25 -69 25 -77 -1 -9 -29 -63 -64
-121 -60 -99 -65 -105 -93 -102 -32 3 -44 -10 -49 -58 -1 -14 -7 -38 -13 -54
l-12 -29 -37 38 c-20 20 -54 48 -74 61 -22 14 -38 32 -38 43 0 10 -8 29 -18
42 -28 36 -32 65 -33 227 -1 101 4 168 15 215 17 74 73 217 85 217 4 0 19 -12
34 -28z m-1234 -134 c1 -56 -10 -76 -23 -42 -6 15 -8 15 -25 0 -17 -16 -19
-16 -25 6 -16 60 -1 164 17 116 3 -10 10 -8 23 5 18 17 19 17 26 -5 3 -13 6
-49 7 -80z m25 -270 c7 -27 7 -148 -1 -130 -2 6 -13 12 -23 12 -10 0 -20 -6
-23 -12 -9 -27 -20 4 -25 72 l-5 71 27 -7 c16 -4 26 -2 26 5 0 20 18 11 24
-11z m1882 -268 c27 -60 34 -81 26 -76 -13 8 -92 144 -92 158 0 18 47 -40 66
-82z m-711 -80 c11 -17 -5 -32 -21 -19 -8 6 -14 15 -14 20 0 12 27 11 35 -1z
m-842 -30 c-3 -11 -9 -20 -14 -20 -10 0 -11 12 -3 34 9 22 23 10 17 -14z"/>
</g>
</svg>
