<?xml version="1.0" standalone="no"?>
<!DOCTYPE svg PUBLIC "-//W3C//DTD SVG 20010904//EN"
 "http://www.w3.org/TR/2001/REC-SVG-20010904/DTD/svg10.dtd">
<svg version="1.0" xmlns="http://www.w3.org/2000/svg"
 width="480.000000pt" height="360.000000pt" viewBox="0 0 480.000000 360.000000"
 preserveAspectRatio="xMidYMid meet">
<metadata>
Created by potrace 1.16, written by Peter Selinger 2001-2019
</metadata>
<rect width="1" height="360" fill="#000000"/>
<rect x="479" width="1" height="360" fill="#000000"/>
<rect width="480" height="1" fill="#000000"/>
<rect y="359" width="480" height="1" fill="#000000"/>
<g transform="translate(0.000000,360.000000) scale(0.100000,-0.100000)"
fill="#000000" stroke="none">
<path d="M2820 3315 c-77 -28 -106 -58 -116 -121 -7 -46 18 -168 37 -180 19
-11 6 -25 -73 -78 -151 -99 -270 -249 -296 -371 -6 -27 -14 -78 -18 -113 -3
-34 -16 -83 -29 -107 -24 -48 -22 -55 7 -28 17 15 18 15 18 -8 0 -17 3 -20 9
-11 11 17 21 -31 21 -102 1 -49 1 -50 15 -26 8 14 14 20 15 14 0 -5 7 -19 16
-30 14 -18 15 -18 10 6 -4 18 -2 16 10 -8 10 -23 20 -32 30 -28 8 3 17 -1 20
-9 4 -8 9 -13 14 -10 4 2 20 -9 35 -25 39 -40 48 -38 30 8 l-15 37 25 -30 c14
-17 25 -24 25 -16 0 22 10 7 16 -23 5 -28 -17 -90 -43 -118 -20 -22 -6 -42 43
-63 18 -7 35 -23 39 -37 4 -12 29 -44 56 -70 45 -44 49 -51 49 -95 0 -27 -4
-65 -9 -86 -7 -30 -6 -39 7 -46 12 -7 14 -19 9 -54 -5 -37 -3 -46 11 -49 13
-4 21 -24 30 -79 12 -74 12 -74 -22 -154 -35 -83 -38 -86 -92 -64 -17 6 -42 9
-57 6 -45 -12 -57 -33 -58 -105 -1 -37 -4 -76 -7 -88 -4 -11 -36 -53 -72 -92
l-66 -72 -74 29 c-99 39 -405 131 -433 131 -13 0 -33 14 -50 35 -24 31 -29 48
-36 135 -10 110 -33 167 -84 204 -29 21 -45 22 -192 13 -28 -2 -30 1 -33 36
-2 20 -7 37 -13 37 -10 0 -11 -6 -13 -59 -1 -32 -4 -35 -54 -52 -79 -27 -130
-59 -140 -88 -33 -93 -42 -140 -31 -167 6 -16 15 -57 19 -92 9 -69 31 -108
103 -184 35 -36 56 -48 117 -66 41 -12 99 -24 128 -28 29 -4 54 -9 56 -13 2
-3 -5 -46 -15 -96 -10 -49 -22 -142 -27 -205 -6 -68 -20 -152 -36 -205 -14
-49 -26 -105 -26 -122 l0 -33 1185 0 c652 0 1185 3 1185 8 0 4 -25 57 -57 117
-50 99 -56 117 -60 185 -2 41 0 81 5 87 4 7 33 17 63 23 75 14 131 40 124 58
-3 8 6 23 20 34 37 29 31 38 -27 38 -37 0 -79 -11 -138 -35 -46 -19 -86 -32
-88 -30 -2 2 -10 37 -17 77 -21 115 -42 223 -70 358 -14 69 -24 139 -22 155
l3 30 8 -32 c9 -37 42 -76 59 -70 22 7 18 36 -8 71 -33 44 -65 143 -65 202 0
25 7 75 17 111 l16 66 31 -86 c30 -83 55 -128 43 -77 -3 14 -9 45 -12 70 -5
39 -4 42 6 25 7 -11 19 -26 26 -33 7 -7 13 -17 13 -22 0 -15 60 -143 65 -138
3 3 0 28 -6 57 -16 74 -8 80 29 21 18 -29 34 -51 37 -49 2 2 -1 93 -7 203 -8
156 -8 200 2 206 7 4 9 16 6 26 -3 11 -10 127 -16 259 -5 132 -15 272 -20 310
-25 176 -80 374 -131 476 -16 31 -33 86 -38 122 -5 38 -21 88 -38 119 -36 67
-145 184 -197 210 -57 29 -141 34 -205 13 -48 -16 -55 -16 -92 -1 -21 9 -47
16 -57 16 -9 0 -42 20 -72 46 -55 45 -185 115 -211 113 -8 -1 -43 -11 -79 -24z
m225 -1665 l23 -46 -49 -43 -50 -43 6 79 c9 115 13 128 31 112 9 -7 26 -34 39
-59z"/>
</g>
</svg>
