<?xml version="1.0" standalone="no"?>
<!DOCTYPE svg PUBLIC "-//W3C//DTD SVG 20010904//EN"
 "http://www.w3.org/TR/2001/REC-SVG-20010904/DTD/svg10.dtd">
<svg version="1.0" xmlns="http://www.w3.org/2000/svg"
 width="480.000000pt" height="360.000000pt" viewBox="0 0 480.000000 360.000000"
 preserveAspectRatio="xMidYMid meet">
<metadata>
Created by potrace 1.16, written by Peter Selinger 2001-2019
</metadata>
<rect width="1" height="360" fill="#000000"/>
<rect x="479" width="1" height="360" fill="#000000"/>
<rect width="480" height="1" fill="#000000"/>
<rect y="359" width="480" height="1" fill="#000000"/>
<g transform="translate(0.000000,360.000000) scale(0.100000,-0.100000)"
fill="#000000" stroke="none">
<path d="M0 2634 l0 -967 163 7 c398 16 799 42 1187 76 452 40 998 104 1013
119 6 6 17 88 30 220 2 20 -5 26 -53 42 -30 10 -62 19 -72 19 -9 0 -18 5 -20
11 -5 15 -115 39 -148 32 -34 -6 -138 23 -165 46 -30 27 -115 52 -137 40 -20
-11 -192 33 -218 56 -8 7 -37 15 -65 18 -34 3 -55 12 -67 27 -14 17 -24 20
-51 15 -24 -5 -38 -2 -50 9 -18 18 -82 21 -122 6 -22 -9 -26 -8 -22 4 3 8 2
16 -3 18 -6 2 -3 15 4 30 15 27 14 28 -27 39 -70 19 -111 45 -169 107 -102
111 -141 260 -119 451 8 60 10 127 7 148 -4 21 -29 85 -56 143 -27 58 -62 137
-77 175 l-28 70 -368 3 -367 2 0 -966z"/>
<path d="M1070 3593 c0 -5 23 -82 52 -172 l52 -163 -21 -57 c-11 -31 -38 -94
-59 -141 -37 -82 -39 -89 -39 -190 0 -58 6 -123 12 -145 27 -89 97 -160 184
-187 33 -9 42 -7 100 25 35 19 84 41 109 47 52 14 160 69 160 82 0 5 -12 13
-26 18 -14 6 -28 19 -31 30 -6 23 -16 25 -43 8 -15 -10 -22 -9 -37 4 -10 8
-23 13 -30 11 -16 -6 -25 13 -18 37 8 26 113 100 206 146 132 65 335 205 534
369 71 58 165 160 165 180 0 6 -22 32 -48 58 l-48 47 -587 0 c-323 0 -587 -3
-587 -7z"/>
<path d="M2893 3586 c3 -7 1 -18 -5 -24 -13 -13 48 -135 111 -222 86 -119 120
-190 91 -190 -5 0 -10 -9 -10 -20 0 -12 -7 -20 -16 -20 -14 0 -16 -8 -10 -47
3 -27 10 -79 15 -118 5 -38 12 -126 16 -195 l7 -126 -33 -41 c-19 -22 -40 -49
-47 -59 -9 -14 -14 -16 -18 -6 -11 24 -59 63 -61 50 -6 -34 -33 -364 -33 -404
0 -38 -4 -46 -25 -54 -14 -5 -27 -20 -31 -35 -3 -14 -12 -25 -20 -25 -8 0 -24
-5 -37 -12 -12 -6 -29 -14 -37 -18 -9 -4 -16 -24 -18 -54 -3 -42 -1 -47 15
-42 10 2 65 14 123 26 148 31 805 197 1030 261 58 17 258 77 445 134 187 57
366 111 398 120 l57 16 0 560 0 559 -956 0 c-808 0 -955 -2 -951 -14z"/>
<path d="M4760 1162 c-56 -73 -235 -285 -263 -310 -14 -13 -55 -31 -90 -40
-60 -15 -77 -27 -189 -123 -138 -119 -184 -146 -314 -184 -207 -60 -289 -69
-655 -70 -377 -1 -311 10 -574 -96 -313 -125 -564 -222 -716 -276 l-164 -58
1499 -3 c825 -1 1501 -1 1503 1 2 2 2 274 1 604 l-3 601 -35 -46z"/>
</g>
</svg>
