<?xml version="1.0" standalone="no"?>
<!DOCTYPE svg PUBLIC "-//W3C//DTD SVG 20010904//EN"
 "http://www.w3.org/TR/2001/REC-SVG-20010904/DTD/svg10.dtd">
<svg version="1.0" xmlns="http://www.w3.org/2000/svg"
 width="480.000000pt" height="360.000000pt" viewBox="0 0 480.000000 360.000000"
 preserveAspectRatio="xMidYMid meet">
<metadata>
Created by potrace 1.16, written by Peter Selinger 2001-2019
</metadata>
<rect width="1" height="360" fill="#000000"/>
<rect x="479" width="1" height="360" fill="#000000"/>
<rect width="480" height="1" fill="#000000"/>
<rect y="359" width="480" height="1" fill="#000000"/>
<g transform="translate(0.000000,360.000000) scale(0.100000,-0.100000)"
fill="#000000" stroke="none">
<path d="M0 2664 c0 -745 3 -934 13 -928 29 18 152 108 170 124 28 27 265 142
427 208 159 65 247 112 309 165 63 56 141 159 188 252 14 28 45 77 69 110 57
80 209 228 259 254 48 23 184 45 235 37 33 -5 38 -3 48 20 7 14 12 38 12 53 0
27 -40 92 -73 120 -13 10 -14 18 -6 32 13 26 22 24 102 -17 59 -30 73 -34 94
-25 13 6 43 11 66 11 36 0 44 4 60 31 9 17 30 36 45 41 18 7 38 28 53 57 59
112 142 170 267 184 46 6 54 -3 20 -22 -22 -11 -22 -11 4 -6 49 9 30 -11 -26
-28 -44 -14 -71 -34 -142 -103 -49 -47 -80 -82 -69 -78 34 13 191 17 213 5 34
-18 21 -46 -24 -49 -21 -1 -70 -7 -107 -13 -64 -10 -70 -14 -93 -50 -13 -21
-29 -39 -35 -39 -6 0 1 -14 15 -30 14 -17 30 -48 36 -68 8 -30 22 -44 75 -77
36 -22 65 -42 65 -45 0 -4 -6 -14 -13 -25 -12 -16 -18 -16 -47 -7 -70 25 -135
9 -160 -38 -9 -17 -2 -30 42 -82 82 -97 101 -150 106 -290 3 -99 2 -118 -11
-118 -10 0 -13 -8 -9 -26 3 -19 1 -25 -7 -20 -6 4 -11 17 -12 29 0 21 -1 21
-12 3 -25 -39 -59 -76 -67 -71 -4 3 -19 -4 -33 -15 -30 -24 -49 -26 -41 -5 5
13 2 14 -21 5 -23 -9 -26 -8 -21 5 6 17 -2 19 -23 6 -13 -8 -14 -22 -8 -90 1
-19 -4 -26 -23 -31 -17 -4 -26 -14 -28 -30 -5 -46 -44 -225 -52 -240 -5 -9 2
-35 20 -70 16 -31 35 -82 43 -113 8 -30 24 -69 36 -86 21 -29 39 -91 28 -91
-4 0 -13 12 -21 28 -10 17 -15 21 -16 11 0 -9 -9 -28 -21 -42 -15 -21 -19 -34
-13 -62 9 -49 21 -52 45 -10 25 41 35 41 19 0 -6 -15 -9 -29 -8 -30 2 -2 59
22 128 52 68 30 140 57 159 61 34 7 56 32 28 32 -7 0 -22 9 -33 21 -16 17 -16
22 -4 29 8 6 18 10 22 10 16 0 38 34 38 58 0 15 7 40 15 56 19 35 19 33 -6 39
-18 5 -19 8 -9 28 11 20 10 21 -14 17 -38 -7 -31 20 11 45 26 15 41 17 75 10
30 -6 56 -4 84 5 35 12 46 11 78 -2 38 -16 49 -46 16 -46 -13 0 -18 -5 -14
-15 4 -10 0 -15 -14 -15 -30 0 -33 -13 -12 -46 11 -16 23 -50 26 -75 5 -40 11
-48 38 -60 38 -17 40 -39 3 -57 -30 -14 -28 -32 4 -32 16 0 260 -98 293 -118
5 -3 6 2 3 11 -18 45 -17 49 4 20 31 -42 45 -41 52 2 5 27 0 44 -21 76 -25 38
-27 39 -36 20 -5 -12 -13 -21 -17 -21 -13 0 12 72 36 105 13 16 26 46 30 65 4
19 16 56 27 82 20 46 20 46 -1 130 -11 45 -24 116 -27 157 -5 53 -12 78 -26
91 -16 15 -18 24 -11 51 5 19 7 42 5 52 -4 18 -32 24 -32 6 0 -6 -9 -8 -22 -3
-13 4 -32 8 -43 10 -11 1 -29 6 -39 10 -15 6 -17 4 -11 -7 5 -8 -4 -3 -19 11
-16 14 -36 41 -47 60 -17 33 -19 34 -25 13 -23 -82 -40 87 -20 208 18 111 40
152 131 246 41 43 75 79 75 80 0 2 -16 37 -36 78 l-35 76 -20 -25 c-11 -14
-26 -26 -33 -26 -8 0 -39 32 -70 70 l-57 71 28 27 c15 15 38 34 51 42 l23 15
-36 84 c-19 46 -34 86 -31 88 2 3 27 -26 55 -63 28 -37 51 -64 51 -61 0 3 -9
26 -20 51 -11 25 -29 66 -40 91 -10 25 -16 45 -11 45 22 0 230 -291 326 -455
10 -17 14 -17 60 -2 80 26 129 30 217 18 116 -17 154 -39 262 -149 106 -109
147 -161 195 -245 45 -80 120 -171 172 -211 59 -44 135 -67 389 -117 156 -30
251 -55 345 -89 72 -26 145 -50 163 -53 l32 -6 0 794 0 795 -2400 0 -2400 0 0
-936z"/>
<path d="M1650 1952 c0 -13 30 -52 41 -52 18 0 8 28 -16 44 -14 9 -25 13 -25
8z"/>
<path d="M3108 1935 c-37 -20 -47 -38 -28 -50 11 -7 74 48 69 61 -2 5 -21 0
-41 -11z"/>
<path d="M2385 1620 c-3 -5 0 -17 8 -25 13 -12 16 -12 20 0 7 17 -18 41 -28
25z"/>
<path d="M3627 1470 c3 -19 12 -53 19 -75 8 -22 14 -48 14 -59 0 -15 5 -17 31
-12 17 3 40 6 50 6 11 0 19 7 19 15 0 14 -14 19 -70 28 -24 4 -24 4 3 6 15 0
27 4 27 9 0 4 -23 32 -50 62 l-49 55 6 -35z"/>
<path d="M4735 1490 l-30 -7 33 -8 c18 -4 35 -12 38 -16 10 -18 24 -8 24 16 0
27 -10 29 -65 15z"/>
<path d="M1860 1462 c0 -26 11 -34 27 -21 20 17 16 39 -7 39 -13 0 -20 -7 -20
-18z"/>
<path d="M2900 1469 c0 -19 21 -50 31 -44 5 4 9 17 9 31 0 17 -5 24 -20 24
-11 0 -20 -5 -20 -11z"/>
<path d="M4770 1419 c-13 -7 -13 -9 0 -9 12 0 12 -2 2 -9 -11 -7 -10 -10 3
-15 24 -9 25 -8 25 13 0 25 -12 32 -30 20z"/>
<path d="M1136 1378 c-16 -22 -15 -35 2 -24 9 5 24 46 17 46 -2 0 -11 -10 -19
-22z"/>
<path d="M4765 1320 c3 -5 13 -10 21 -10 8 0 14 5 14 10 0 6 -9 10 -21 10 -11
0 -17 -4 -14 -10z"/>
<path d="M3735 1277 c-48 -18 -59 -27 -57 -42 1 -11 5 -38 9 -59 l6 -39 111 7
c61 4 114 10 119 15 4 4 -1 15 -12 25 -17 15 -27 16 -68 8 -26 -5 -70 -6 -98
-2 -47 7 -46 7 30 9 107 2 114 7 69 59 -19 23 -39 42 -42 41 -4 0 -34 -10 -67
-22z m33 -124 c-10 -2 -26 -2 -35 0 -10 3 -2 5 17 5 19 0 27 -2 18 -5z"/>
<path d="M4043 1247 c-14 -22 -13 -48 1 -53 8 -3 36 1 62 8 l48 14 -52 21
c-38 16 -54 19 -59 10z"/>
<path d="M4260 1258 c15 -17 205 -122 335 -186 83 -40 141 -70 130 -66 -11 3
-80 26 -153 50 -73 25 -184 67 -245 94 -152 67 -152 67 -228 32 -35 -16 -72
-32 -82 -36 -13 -4 -17 -12 -12 -27 7 -20 6 -21 -13 -7 -19 13 -32 11 -123
-19 -57 -18 -114 -33 -128 -33 -51 0 -53 -8 -49 -136 3 -105 7 -125 30 -170
38 -73 74 -112 111 -119 17 -4 59 -18 92 -30 33 -12 101 -34 150 -48 50 -14
121 -43 158 -63 88 -49 269 -221 347 -329 79 -110 142 -165 186 -165 l34 0 0
548 0 547 -133 44 c-72 23 -154 51 -182 61 -95 35 -238 71 -225 58z"/>
<path d="M33 1214 c-22 -9 -33 -21 -33 -34 0 -28 11 -25 56 15 41 36 32 43
-23 19z"/>
<path d="M796 1194 c-27 -20 -72 -48 -100 -62 l-51 -26 50 -8 c28 -5 75 -5
105 -1 32 4 45 8 32 11 -13 2 -32 11 -42 20 -18 15 -18 16 7 29 31 16 36 16
27 1 -4 -7 4 -3 18 10 17 15 24 30 21 43 -7 25 -10 24 -67 -17z"/>
<path d="M986 1195 c-32 -42 -25 -43 70 -13 l69 21 -40 13 c-61 19 -70 17 -99
-21z"/>
<path d="M2070 1128 c-85 -50 -177 -99 -205 -109 -46 -16 -50 -20 -53 -53 -2
-24 1 -36 10 -36 7 0 89 24 183 54 93 30 182 57 197 60 29 7 31 14 42 124 4
37 2 52 -7 51 -7 0 -82 -41 -167 -91z"/>
<path d="M2558 1153 c6 -95 13 -109 59 -116 21 -3 113 -31 206 -60 92 -30 167
-51 167 -46 0 26 -99 104 -215 171 -121 70 -210 118 -218 118 -1 0 -1 -30 1
-67z"/>
<path d="M3960 1202 c0 -5 6 -16 13 -25 10 -14 15 -14 30 -2 18 13 18 14 -2
24 -23 13 -41 14 -41 3z"/>
<path d="M43 1140 c-30 -13 -43 -25 -43 -40 0 -11 1 -20 3 -20 2 0 28 18 57
40 58 43 51 51 -17 20z"/>
<path d="M342 1046 c-218 -138 -284 -177 -289 -172 -3 2 16 25 42 50 26 25 44
46 41 46 -3 0 -35 -14 -71 -32 l-65 -32 0 -453 0 -453 283 0 283 0 137 228
c75 125 166 263 202 307 36 44 88 107 115 140 70 83 90 142 90 263 l0 97 -147
1 c-122 1 -166 6 -253 27 l-105 26 -50 -31 c-27 -17 -104 -65 -170 -106 -129
-79 -175 -105 -175 -98 0 3 55 48 123 100 186 145 208 167 140 139 -6 -2 -13
2 -15 10 -2 11 -34 -5 -116 -57z"/>
<path d="M2355 959 c-22 -49 -50 -99 -62 -110 -11 -12 -52 -32 -90 -46 -37
-13 -152 -60 -254 -104 -102 -43 -197 -79 -210 -79 -13 0 -39 9 -57 20 l-34
21 7 -78 c13 -159 44 -307 107 -516 l20 -67 653 0 653 0 6 27 c3 16 7 46 10
68 7 51 46 510 46 542 l0 25 -34 -21 c-18 -12 -44 -21 -56 -21 -13 0 -107 36
-209 79 -102 44 -217 91 -254 104 -38 14 -79 34 -91 46 -12 11 -39 61 -60 111
-22 49 -42 90 -45 90 -4 0 -24 -41 -46 -91z"/>
</g>
</svg>
