<?xml version="1.0" standalone="no"?>
<!DOCTYPE svg PUBLIC "-//W3C//DTD SVG 20010904//EN"
 "http://www.w3.org/TR/2001/REC-SVG-20010904/DTD/svg10.dtd">
<svg version="1.0" xmlns="http://www.w3.org/2000/svg"
 width="480.000000pt" height="360.000000pt" viewBox="0 0 480.000000 360.000000"
 preserveAspectRatio="xMidYMid meet">
<metadata>
Created by potrace 1.16, written by Peter Selinger 2001-2019
</metadata>
<rect width="1" height="360" fill="#000000"/>
<rect x="479" width="1" height="360" fill="#000000"/>
<rect width="480" height="1" fill="#000000"/>
<rect y="359" width="480" height="1" fill="#000000"/>
<g transform="translate(0.000000,360.000000) scale(0.100000,-0.100000)"
fill="#000000" stroke="none">
<path d="M0 2682 l0 -918 29 -17 c35 -20 86 -21 162 -3 76 17 138 55 183 110
21 26 42 46 48 46 6 0 20 8 30 17 15 14 40 17 126 18 123 2 178 19 205 64 32
54 15 163 -32 210 -10 10 -23 25 -27 34 -17 28 -95 86 -129 96 -19 5 -47 19
-61 30 -15 12 -37 21 -49 21 -12 0 -28 7 -35 15 -7 8 -27 17 -46 21 -18 3 -39
12 -45 20 -9 11 -15 12 -26 3 -7 -7 -16 -9 -19 -6 -11 11 9 29 54 48 45 20 46
20 131 0 47 -11 133 -25 190 -31 99 -11 109 -14 199 -66 51 -30 113 -70 136
-89 24 -19 51 -35 61 -35 10 0 45 -23 76 -50 49 -42 62 -49 78 -41 28 16 32
37 20 107 -11 61 -13 66 -50 85 -21 10 -39 26 -39 33 0 8 -35 30 -77 51 -43
20 -108 57 -145 82 -57 39 -89 52 -195 79 -163 43 -207 52 -268 60 -41 5 -57
13 -87 45 -45 47 -47 71 -17 155 12 32 22 80 22 107 0 26 4 47 9 47 5 0 6 5 3
10 -4 6 0 21 9 34 21 32 25 82 7 78 -11 -2 -13 6 -8 37 3 23 1 41 -5 43 -33
11 84 245 164 328 l39 40 -311 0 -310 0 0 -918z"/>
<path d="M2400 1800 l0 -1800 914 0 914 0 6 36 c4 19 32 123 62 231 30 107 54
211 54 231 l0 36 -34 -37 c-61 -67 -71 -45 -32 74 13 41 23 75 21 77 -2 2 -21
-13 -44 -33 l-40 -36 9 29 8 30 -105 -51 c-78 -38 -119 -52 -161 -55 -71 -5
-89 11 -127 113 -33 90 -28 103 79 187 81 64 139 128 115 128 -19 0 10 29 50
51 64 35 165 100 189 122 13 12 32 38 43 59 16 32 17 37 3 49 -33 27 -64 95
-58 126 4 18 1 33 -5 37 -37 23 27 75 129 107 98 30 118 41 131 71 8 19 19 28
34 28 28 0 91 -45 138 -100 30 -35 34 -46 25 -58 -9 -10 -23 -12 -51 -8 -44 7
-46 14 25 -90 26 -39 48 -74 48 -77 0 -3 -16 -4 -35 -2 -40 3 -42 -6 -25 -80
5 -23 11 -86 14 -140 6 -120 23 -190 66 -270 18 -33 34 -62 36 -64 2 -2 4 644
4 1437 l0 1442 -1200 0 -1200 0 0 -1800z"/>
</g>
</svg>
