<?xml version="1.0" standalone="no"?>
<!DOCTYPE svg PUBLIC "-//W3C//DTD SVG 20010904//EN"
 "http://www.w3.org/TR/2001/REC-SVG-20010904/DTD/svg10.dtd">
<svg version="1.0" xmlns="http://www.w3.org/2000/svg"
 width="480.000000pt" height="360.000000pt" viewBox="0 0 480.000000 360.000000"
 preserveAspectRatio="xMidYMid meet">
<metadata>
Created by potrace 1.16, written by Peter Selinger 2001-2019
</metadata>
<rect width="1" height="360" fill="#000000"/>
<rect x="479" width="1" height="360" fill="#000000"/>
<rect width="480" height="1" fill="#000000"/>
<rect y="359" width="480" height="1" fill="#000000"/>
<g transform="translate(0.000000,360.000000) scale(0.100000,-0.100000)"
fill="#000000" stroke="none">
<path d="M0 1800 l0 -1800 338 0 339 0 58 138 c31 75 73 171 91 213 37 83 47
132 18 91 -23 -33 -33 -27 -27 20 5 32 3 39 -7 33 -8 -5 -11 -4 -6 3 3 6 9 32
12 59 3 26 9 52 14 58 4 5 13 51 20 100 6 50 22 117 36 151 13 33 24 67 24 75
0 8 5 20 12 27 6 6 9 15 5 18 -8 8 -102 -62 -159 -117 -49 -47 -128 -100 -139
-93 -5 3 -29 -7 -54 -21 -57 -34 -58 -21 -3 27 35 30 39 38 23 38 -11 0 -34
-8 -51 -19 -17 -10 -41 -22 -54 -26 -20 -6 -22 -4 -17 14 7 28 -10 27 -58 -6
-28 -18 -35 -20 -23 -7 9 10 18 26 20 34 2 8 8 18 13 23 16 12 -28 2 -53 -12
-22 -12 -23 -11 -12 9 11 21 11 21 -17 4 -28 -18 -28 -18 -10 2 21 25 22 38 2
30 -13 -4 -14 -2 -5 14 6 11 14 20 19 20 13 0 111 103 111 117 0 7 -5 22 -12
32 -12 20 -13 18 47 156 12 28 25 60 29 72 4 11 13 27 21 33 8 7 15 19 15 27
0 8 10 29 23 46 12 18 29 48 38 67 9 19 55 84 103 143 47 60 86 110 86 113 0
2 34 44 75 93 41 49 75 92 75 95 0 3 15 27 34 53 75 106 113 205 152 403 40
205 76 272 230 425 93 94 122 107 248 111 93 3 102 5 113 26 24 44 16 82 -27
131 -73 82 -45 108 57 52 63 -35 69 -36 104 -25 20 7 52 10 71 6 31 -6 35 -3
50 27 9 20 29 39 47 47 22 9 37 27 55 64 49 105 117 173 215 212 47 18 65 12
35 -12 -16 -13 -16 -15 -2 -10 39 12 23 -13 -30 -48 -47 -31 -158 -147 -170
-178 -2 -4 13 -1 33 8 22 9 56 13 83 11 38 -3 43 -5 25 -11 -30 -11 -29 -24 1
-19 13 3 27 0 30 -6 4 -6 -21 -19 -65 -32 -71 -22 -109 -47 -109 -72 0 -8 -9
-22 -20 -32 -25 -23 -25 -31 0 -62 11 -14 24 -42 30 -63 8 -30 21 -44 70 -74
60 -37 70 -52 49 -73 -7 -7 -24 -7 -56 3 -68 21 -90 17 -130 -20 l-37 -33 48
-54 c26 -30 61 -83 79 -119 30 -62 32 -71 31 -179 0 -79 -4 -116 -12 -119 -7
-2 -12 -13 -12 -25 -1 -21 -2 -21 -14 -4 -12 16 -15 14 -40 -23 -14 -22 -34
-40 -44 -40 -9 0 -26 -7 -36 -15 -25 -19 -40 -19 -33 -1 4 10 0 12 -15 8 -11
-2 -23 0 -27 7 -4 6 -15 9 -24 5 -19 -7 -23 -59 -7 -84 6 -10 4 -20 -7 -33
-28 -31 -16 -257 28 -507 25 -143 39 -200 49 -200 16 0 200 91 200 98 0 5 13
22 29 38 26 26 30 39 33 96 2 36 10 73 17 82 16 19 12 20 -24 6 -26 -10 -27
-9 -20 17 10 43 35 61 100 73 133 25 142 25 175 -8 33 -33 38 -52 15 -52 -8 0
-15 -7 -15 -15 0 -9 -7 -18 -15 -21 -11 -5 -12 -11 -4 -25 5 -10 14 -44 20
-75 13 -68 60 -121 140 -157 l54 -24 21 51 c29 68 69 196 88 276 27 113 50
319 38 344 -6 14 -7 28 -1 37 15 24 10 76 -11 100 l-19 24 3 -32 c4 -35 -3
-39 -37 -22 -15 9 -22 9 -25 1 -2 -8 -11 -7 -26 3 -12 8 -26 12 -29 8 -10 -9
-43 24 -57 58 -15 35 -25 37 -35 7 -14 -48 -27 45 -23 164 6 146 25 189 133
305 l75 81 -27 50 c-15 28 -30 49 -33 47 -4 -2 -30 23 -60 56 l-53 61 16 34
c17 34 16 35 -28 134 -24 55 -41 100 -36 100 4 0 24 -23 45 -50 56 -74 60 -70
20 17 -46 100 -47 103 -41 103 4 0 34 -33 68 -72 35 -40 72 -77 83 -83 10 -5
36 -41 56 -80 19 -38 54 -98 75 -131 22 -34 45 -70 50 -79 10 -17 13 -17 65 1
40 14 81 19 150 18 149 -1 167 -9 286 -131 139 -142 173 -207 209 -398 33
-177 73 -288 143 -393 30 -46 60 -89 66 -95 6 -7 39 -46 72 -87 34 -41 110
-129 169 -195 59 -66 115 -131 124 -145 8 -14 21 -28 27 -32 16 -10 104 -144
104 -158 0 -5 5 -10 11 -10 7 0 9 -9 6 -21 -5 -20 15 -54 25 -43 3 2 11 -2 18
-11 10 -12 10 -15 -1 -15 -9 -1 -7 -6 6 -16 17 -12 18 -16 5 -24 -10 -6 4 -17
56 -42 72 -34 85 -54 47 -73 -24 -12 -19 -26 15 -44 37 -19 25 -32 -15 -16
-33 14 -38 14 -52 0 -15 -14 -14 -18 9 -35 32 -25 18 -25 -50 0 -67 25 -67 25
-46 1 10 -11 16 -24 15 -29 -6 -14 -105 14 -167 48 -29 16 -51 23 -49 17 2 -7
37 -29 78 -50 78 -40 110 -63 74 -54 -135 35 -281 103 -419 196 -21 14 -46 31
-55 36 -9 6 -29 20 -44 32 -28 23 -58 30 -56 16 0 -5 14 -46 30 -93 59 -166
90 -293 88 -349 -3 -64 -4 -64 152 -110 166 -49 237 -97 377 -254 57 -65 154
-228 168 -284 6 -22 10 -23 110 -23 l104 0 0 1800 0 1800 -2400 0 -2400 0 0
-1800z m4410 -600 c0 -5 -4 -10 -10 -10 -5 0 -10 5 -10 10 0 6 5 10 10 10 6 0
10 -4 10 -10z m-3990 -185 c-7 -9 -15 -13 -19 -10 -3 3 1 10 9 15 21 14 24 12
10 -5z"/>
<path d="M1650 1955 c0 -3 22 -29 49 -59 45 -49 50 -52 55 -33 14 53 8 67 -28
67 -18 0 -39 7 -46 15 -12 14 -30 20 -30 10z"/>
<path d="M3126 1951 c-14 -23 -49 -30 -73 -15 -22 14 -23 13 -23 -13 0 -16 -3
-45 -7 -67 -3 -22 -2 -37 3 -35 21 9 116 119 112 131 -3 9 -6 9 -12 -1z"/>
<path d="M2133 1170 c-56 -33 -104 -64 -108 -70 -3 -5 -3 -30 0 -55 l7 -44 37
18 c36 18 82 34 133 45 31 7 41 40 36 118 l-3 48 -102 -60z"/>
<path d="M2560 1161 c0 -50 4 -74 16 -85 29 -29 46 -17 63 46 15 55 12 62 -40
88 l-39 20 0 -69z"/>
<path d="M2355 979 c-22 -59 -48 -107 -60 -115 -11 -7 -83 -40 -159 -73 -77
-34 -143 -67 -148 -73 -4 -7 -12 -38 -19 -68 -17 -89 -77 -230 -164 -385 -31
-56 -30 -47 9 98 29 109 32 130 12 104 -13 -17 -14 -16 -19 3 -3 11 -1 20 4
20 5 0 9 8 9 18 -1 14 -4 13 -20 -7 -16 -19 -20 -20 -20 -6 0 9 8 33 17 53 11
24 13 37 6 39 -6 2 -8 13 -5 25 4 18 2 20 -27 13 -22 -5 -39 -2 -56 9 -51 34
-51 35 -19 -197 14 -102 56 -285 90 -389 l16 -48 638 0 638 0 6 43 c3 23 13
137 21 253 8 116 18 243 21 283 7 78 5 80 -45 55 -30 -15 -36 -15 -79 1 -26
10 -81 34 -122 55 -41 20 -87 40 -102 44 -30 7 -30 8 -33 -74 -4 -115 -5 -120
-20 -120 -10 0 -15 -11 -16 -32 -1 -24 -3 -27 -6 -10 -6 32 -20 27 -26 -10
-22 -144 -40 -246 -46 -263 -9 -22 -17 75 -31 374 -5 109 -12 204 -15 212 -3
8 -27 26 -54 41 -43 24 -51 33 -80 105 -18 43 -35 88 -38 101 -3 12 -8 22 -12
22 -3 0 -24 -46 -46 -101z"/>
<path d="M2815 1058 c-19 -52 -13 -60 72 -93 45 -18 84 -30 87 -27 9 9 -55 76
-100 105 -50 31 -53 32 -59 15z"/>
<path d="M1836 1001 c-16 -18 -21 -52 -10 -64 13 -13 44 19 44 45 0 35 -13 42
-34 19z"/>
</g>
</svg>
