<?xml version="1.0" standalone="no"?>
<!DOCTYPE svg PUBLIC "-//W3C//DTD SVG 20010904//EN"
 "http://www.w3.org/TR/2001/REC-SVG-20010904/DTD/svg10.dtd">
<svg version="1.0" xmlns="http://www.w3.org/2000/svg"
 width="480.000000pt" height="360.000000pt" viewBox="0 0 480.000000 360.000000"
 preserveAspectRatio="xMidYMid meet">
<metadata>
Created by potrace 1.16, written by Peter Selinger 2001-2019
</metadata>
<rect width="1" height="360" fill="#000000"/>
<rect x="479" width="1" height="360" fill="#000000"/>
<rect width="480" height="1" fill="#000000"/>
<rect y="359" width="480" height="1" fill="#000000"/>
<g transform="translate(0.000000,360.000000) scale(0.100000,-0.100000)"
fill="#000000" stroke="none">
<path d="M1605 3423 c0 -247 -20 -351 -112 -568 -46 -107 -131 -239 -212 -328
-91 -101 -242 -222 -333 -268 -31 -16 -59 -33 -63 -39 -3 -5 -38 -19 -78 -31
-40 -12 -76 -25 -82 -29 -23 -18 -192 -52 -302 -61 -138 -11 -314 0 -406 27
-16 5 -17 -50 -17 -1060 l0 -1066 1355 0 c938 0 1355 3 1355 10 0 6 7 72 16
147 18 159 40 245 123 483 45 131 76 247 122 465 64 298 69 343 53 497 -5 51
-9 60 -38 78 -18 11 -41 35 -51 54 -16 30 -17 39 -5 80 7 26 31 72 53 103 22
30 48 83 59 116 11 36 33 76 54 99 20 23 33 46 30 54 -3 8 -9 21 -12 30 -5 10
0 17 15 21 38 10 24 29 -19 25 -34 -4 -41 -1 -49 20 -5 13 -16 30 -25 37 -9 7
-16 19 -16 26 0 7 -7 15 -15 19 -8 3 -15 12 -15 20 0 7 7 16 15 20 26 10 16
34 -17 41 -37 9 -67 41 -68 72 0 12 -4 25 -10 28 -17 11 -11 40 21 101 l31 58
-37 73 c-20 41 -35 84 -33 96 3 20 9 22 63 22 68 -1 207 -37 277 -71 26 -13
55 -24 65 -24 35 -1 99 -38 149 -87 58 -58 85 -126 104 -261 7 -51 22 -106 42
-147 31 -68 47 -155 48 -268 0 -32 6 -70 14 -85 7 -15 28 -70 46 -122 29 -86
32 -108 34 -226 2 -129 2 -131 34 -179 55 -83 75 -163 76 -300 1 -66 4 -125 9
-132 11 -17 -2 -43 -19 -36 -12 4 -14 0 -9 -19 4 -16 1 -29 -8 -37 -18 -14
-21 -10 -36 47 -7 25 -18 42 -26 42 -8 0 -15 5 -15 10 0 6 -4 10 -10 10 -5 0
-10 -13 -10 -30 0 -36 -3 -36 -41 -9 -16 11 -29 17 -29 12 0 -18 -21 25 -35
75 -17 57 -82 203 -95 212 -4 3 -10 28 -13 57 -6 49 -24 93 -39 93 -4 0 -10
-20 -13 -44 -6 -39 -3 -50 22 -88 52 -77 82 -153 127 -322 57 -207 96 -313
203 -546 79 -171 112 -250 157 -373 l18 -47 409 0 409 0 0 1800 0 1800 -1598
0 -1598 0 1 -177z"/>
</g>
</svg>
