<?xml version="1.0" standalone="no"?>
<!DOCTYPE svg PUBLIC "-//W3C//DTD SVG 20010904//EN"
 "http://www.w3.org/TR/2001/REC-SVG-20010904/DTD/svg10.dtd">
<svg version="1.0" xmlns="http://www.w3.org/2000/svg"
 width="480.000000pt" height="360.000000pt" viewBox="0 0 480.000000 360.000000"
 preserveAspectRatio="xMidYMid meet">
<metadata>
Created by potrace 1.16, written by Peter Selinger 2001-2019
</metadata>
<rect width="1" height="360" fill="#000000"/>
<rect x="479" width="1" height="360" fill="#000000"/>
<rect width="480" height="1" fill="#000000"/>
<rect y="359" width="480" height="1" fill="#000000"/>
<g transform="translate(0.000000,360.000000) scale(0.100000,-0.100000)"
fill="#000000" stroke="none">
<path d="M1778 1828 c-2 -975 -1 -1785 1 -1800 l3 -28 1509 0 1509 0 0 1800 0
1800 -1509 0 -1510 0 -3 -1772z m1677 315 c34 -12 69 -38 112 -81 34 -34 84
-79 110 -99 26 -20 51 -42 55 -49 6 -9 19 -8 59 7 64 25 75 18 19 -11 -23 -12
-40 -23 -38 -26 8 -7 316 45 341 58 20 10 61 -7 52 -22 -3 -5 9 -19 27 -30 18
-11 33 -25 33 -32 0 -7 11 -13 25 -13 19 0 25 -6 27 -25 1 -14 4 -34 6 -45 6
-27 -10 -45 -40 -45 -19 0 -23 -4 -19 -18 4 -12 -3 -21 -25 -31 -18 -8 -34
-22 -36 -31 -4 -16 -15 -18 -96 -14 -129 6 -183 12 -251 31 -45 13 -61 14 -64
5 -2 -7 -22 -35 -44 -63 -44 -56 -87 -79 -147 -79 -31 0 -49 -7 -75 -31 -29
-25 -51 -33 -118 -44 -136 -22 -239 9 -325 98 -50 52 -74 88 -93 140 l-10 27
-152 0 c-83 0 -165 4 -182 10 -17 5 -52 12 -78 15 -43 6 -48 9 -48 31 0 21 5
24 35 24 19 0 54 6 77 14 24 8 105 17 182 20 76 4 142 8 146 11 4 2 10 24 14
47 8 50 65 147 108 183 39 33 100 64 158 81 59 18 191 11 255 -13z"/>
<path d="M172 2230 c-59 -21 -115 -52 -149 -83 -23 -20 -23 -22 -23 -317 0
-295 0 -297 22 -317 98 -89 251 -125 383 -89 70 18 111 41 168 95 60 56 87 97
117 179 33 89 26 219 -17 312 -85 185 -315 286 -501 220z"/>
</g>
</svg>
