<?xml version="1.0" standalone="no"?>
<!DOCTYPE svg PUBLIC "-//W3C//DTD SVG 20010904//EN"
 "http://www.w3.org/TR/2001/REC-SVG-20010904/DTD/svg10.dtd">
<svg version="1.0" xmlns="http://www.w3.org/2000/svg"
 width="480.000000pt" height="360.000000pt" viewBox="0 0 480.000000 360.000000"
 preserveAspectRatio="xMidYMid meet">
<metadata>
Created by potrace 1.16, written by Peter Selinger 2001-2019
</metadata>
<rect width="1" height="360" fill="#000000"/>
<rect x="479" width="1" height="360" fill="#000000"/>
<rect width="480" height="1" fill="#000000"/>
<rect y="359" width="480" height="1" fill="#000000"/>
<g transform="translate(0.000000,360.000000) scale(0.100000,-0.100000)"
fill="#000000" stroke="none">
<path d="M0 1800 l0 -1800 2070 0 c1965 0 2070 1 2070 18 0 9 13 55 29 102 28
81 36 130 45 266 l4 60 -82 27 c-45 15 -86 27 -90 27 -4 0 -13 -15 -21 -34
-31 -73 -285 -382 -338 -411 -32 -17 -40 -17 -94 -5 -41 10 -68 24 -92 47 -55
55 -44 81 104 269 22 28 51 66 65 84 14 19 39 50 56 70 16 19 44 55 62 79 30
42 30 45 16 73 -17 33 -6 58 27 58 21 0 34 16 19 25 -16 10 -2 25 37 41 27 12
32 18 24 28 -9 11 -3 20 26 44 32 26 36 32 24 46 -21 25 -6 44 43 57 33 8 46
17 50 34 7 26 62 102 124 170 51 56 62 76 62 109 0 26 -17 65 -34 78 -28 20
-179 30 -342 24 -96 -4 -174 -4 -174 0 0 4 8 12 17 19 16 12 12 15 -29 27 -35
10 -78 11 -175 6 -83 -5 -212 -3 -371 7 -134 8 -325 15 -425 15 l-182 0 -75
-54 c-41 -30 -95 -73 -119 -95 -27 -26 -53 -41 -68 -41 -14 0 -35 -11 -47 -23
-17 -19 -37 -25 -89 -31 -70 -7 -107 3 -107 29 0 18 -31 35 -63 35 -19 0 -38
-19 -88 -88 -35 -48 -120 -163 -189 -257 -70 -93 -165 -222 -212 -285 -299
-405 -349 -470 -360 -470 -19 0 -95 45 -165 98 -54 40 -62 51 -58 72 5 21 -5
36 -54 84 -50 50 -59 63 -55 86 5 21 -4 37 -40 80 -47 55 -49 60 -47 96 1 12
-16 50 -39 85 -31 48 -39 69 -35 90 4 18 -3 45 -25 88 -18 34 -30 73 -29 89 2
15 -7 59 -19 97 -12 39 -21 86 -20 105 1 19 -4 64 -10 100 -21 118 -7 460 24
564 8 27 14 65 14 83 0 18 11 61 25 95 14 34 25 74 25 90 0 16 14 56 31 90 17
34 32 73 33 87 1 15 22 55 46 91 26 38 43 74 42 88 -1 17 15 43 53 84 41 46
53 66 49 82 -4 16 6 32 38 62 46 43 162 134 172 134 5 0 132 -151 253 -301
103 -128 344 -426 392 -484 28 -33 95 -116 151 -185 55 -69 108 -133 116 -143
8 -10 22 -16 32 -13 9 2 43 10 74 16 31 6 62 18 68 26 7 7 20 14 29 14 9 0 27
7 39 16 21 14 25 14 49 -1 21 -14 60 -18 232 -21 193 -4 374 5 743 37 72 6
180 8 250 4 206 -11 220 -10 258 13 19 12 50 22 68 22 39 0 41 14 5 34 -16 8
-23 15 -18 15 20 1 269 -79 279 -89 5 -5 56 -10 116 -10 l105 0 13 53 c22 96
18 112 -37 154 -28 21 -49 42 -47 48 1 5 20 19 42 30 l39 20 3 97 3 96 -33 7
c-30 7 -115 47 -288 136 -64 34 -65 34 -72 85 -8 54 -47 143 -72 163 -13 11
-11 17 15 44 35 37 68 126 61 163 -5 30 20 119 55 188 l24 48 -55 -31 c-45
-26 -145 -61 -174 -61 -21 0 -8 42 19 60 16 12 29 30 29 41 0 17 -3 18 -22 8
l-22 -12 18 29 c28 45 143 144 166 144 8 0 10 9 5 28 -4 15 -13 54 -21 87 -7
33 -18 61 -24 63 -7 3 -22 14 -33 25 -17 17 -28 19 -76 13 -166 -20 -168 -20
-204 3 l-34 21 -1792 0 -1791 0 0 -1800z"/>
<path d="M4003 3480 c3 -27 11 -58 17 -69 10 -20 11 -20 58 2 26 12 53 27 60
34 14 14 12 16 -82 57 l-59 26 6 -50z"/>
<path d="M4141 3375 c-94 -39 -96 -40 -86 -54 4 -7 34 4 83 29 136 69 138 80
3 25z"/>
<path d="M4194 3316 c-49 -22 -50 -34 -1 -25 23 4 45 8 50 9 13 0 8 30 -5 30
-7 -1 -27 -7 -44 -14z"/>
<path d="M3966 3275 c-16 -14 -33 -25 -37 -25 -5 0 -13 -9 -19 -20 -18 -33 5
-23 57 25 50 46 50 64 -1 20z"/>
</g>
</svg>
