<?xml version="1.0" standalone="no"?>
<!DOCTYPE svg PUBLIC "-//W3C//DTD SVG 20010904//EN"
 "http://www.w3.org/TR/2001/REC-SVG-20010904/DTD/svg10.dtd">
<svg version="1.0" xmlns="http://www.w3.org/2000/svg"
 width="480.000000pt" height="360.000000pt" viewBox="0 0 480.000000 360.000000"
 preserveAspectRatio="xMidYMid meet">
<metadata>
Created by potrace 1.16, written by Peter Selinger 2001-2019
</metadata>
<rect width="1" height="360" fill="#000000"/>
<rect x="479" width="1" height="360" fill="#000000"/>
<rect width="480" height="1" fill="#000000"/>
<rect y="359" width="480" height="1" fill="#000000"/>
<g transform="translate(0.000000,360.000000) scale(0.100000,-0.100000)"
fill="#000000" stroke="none">
<path d="M895 3563 c14 -79 29 -110 84 -166 31 -32 76 -67 102 -78 38 -17 119
-94 119 -113 0 -3 20 -38 45 -78 l45 -72 97 -32 c104 -33 198 -82 262 -135
l38 -33 -49 -49 c-44 -44 -175 -117 -211 -117 -7 0 -18 -4 -26 -9 -11 -7 -9
-19 13 -67 17 -37 23 -61 17 -67 -6 -6 -7 -23 -4 -38 6 -34 -14 -47 -46 -29
-20 10 -21 8 -22 -32 -1 -50 -2 -59 -24 -150 -15 -61 -20 -68 -42 -68 -20 0
-29 -11 -54 -66 -24 -53 -33 -64 -44 -54 -11 9 -19 1 -40 -43 -21 -45 -29 -54
-45 -50 -11 3 -20 13 -20 22 -1 13 -2 13 -12 -3 -12 -22 -5 -98 17 -173 11
-37 32 -70 75 -117 86 -95 82 -132 -24 -196 -50 -31 -76 -62 -76 -93 0 -22
-58 -77 -80 -77 -40 0 -60 -18 -60 -55 0 -48 -14 -79 -58 -127 -21 -24 -46
-60 -55 -80 -43 -93 -88 -118 -217 -118 -41 0 -86 -3 -99 -7 -22 -6 -23 -10
-18 -58 8 -83 41 -148 95 -186 26 -19 103 -89 172 -158 69 -68 146 -137 171
-152 25 -16 74 -61 109 -101 35 -40 100 -109 144 -154 45 -44 95 -104 111
-132 l30 -52 1106 0 1105 0 30 37 c16 21 59 73 97 116 38 44 83 112 103 154
35 72 35 75 18 94 -48 53 14 216 116 307 101 90 136 134 145 184 6 34 3 41
-37 85 -24 26 -57 70 -73 97 -15 27 -52 73 -81 103 -30 29 -63 72 -75 96 -12
23 -43 63 -70 88 -69 63 -67 78 21 199 77 106 82 120 74 211 -4 54 -11 79 -19
79 -7 0 -27 29 -44 65 -16 36 -36 65 -44 65 -8 0 -27 16 -42 36 -21 28 -30 33
-37 23 -6 -11 -14 -7 -33 16 -13 16 -27 41 -30 55 -3 14 -14 40 -25 57 -15 25
-27 32 -56 35 -36 3 -36 4 -38 47 -2 25 -8 47 -15 49 -7 2 -20 12 -29 22 -9 9
-35 20 -56 23 -51 8 -110 48 -142 96 -31 48 -42 53 -89 40 -57 -16 -83 -5 -95
40 -8 29 -7 48 5 80 9 25 12 59 9 84 -5 40 -4 44 50 97 31 30 56 61 56 68 0
21 -72 8 -132 -23 -82 -43 -77 -26 69 235 35 63 69 124 76 134 77 125 126 199
158 237 22 26 39 52 39 58 0 20 63 71 88 71 13 0 30 -7 38 -15 21 -21 26 -19
52 20 l22 35 -1320 0 -1321 0 6 -37z m2157 -764 c-31 -28 -62 -38 -62 -20 0 5
12 17 28 27 61 42 84 38 34 -7z"/>
</g>
</svg>
