<?xml version="1.0" standalone="no"?>
<!DOCTYPE svg PUBLIC "-//W3C//DTD SVG 20010904//EN"
 "http://www.w3.org/TR/2001/REC-SVG-20010904/DTD/svg10.dtd">
<svg version="1.0" xmlns="http://www.w3.org/2000/svg"
 width="480.000000pt" height="360.000000pt" viewBox="0 0 480.000000 360.000000"
 preserveAspectRatio="xMidYMid meet">
<metadata>
Created by potrace 1.16, written by Peter Selinger 2001-2019
</metadata>
<rect width="1" height="360" fill="#000000"/>
<rect x="479" width="1" height="360" fill="#000000"/>
<rect width="480" height="1" fill="#000000"/>
<rect y="359" width="480" height="1" fill="#000000"/>
<g transform="translate(0.000000,360.000000) scale(0.100000,-0.100000)"
fill="#000000" stroke="none">
<path d="M0 1800 l0 -1800 953 1 c930 1 951 1 892 18 -79 24 -113 42 -152 83
-46 49 -60 104 -40 164 16 48 16 48 -19 124 -30 65 -40 78 -67 86 -19 5 -37
20 -45 36 -11 23 -9 35 13 94 30 80 26 89 -52 103 -64 13 -243 100 -301 148
-51 42 -184 191 -219 246 -51 81 -83 156 -93 222 -11 64 -10 75 12 135 26 73
62 104 85 73 7 -9 13 -31 13 -49 0 -18 4 -35 9 -38 4 -3 11 -18 14 -34 11 -54
69 -160 122 -225 46 -55 68 -73 146 -111 51 -26 94 -44 97 -41 3 3 -18 28 -46
57 -53 53 -81 102 -100 171 -16 56 9 48 76 -24 61 -66 135 -125 222 -179 112
-69 368 -204 455 -240 61 -26 94 -46 102 -62 46 -91 53 -112 53 -166 0 -73 14
-92 70 -99 40 -5 70 -24 70 -44 0 -5 -28 -9 -62 -11 l-63 -3 75 -19 c41 -11
109 -20 150 -20 l74 -1 23 -85 c45 -167 47 -178 34 -194 -21 -25 -137 -75
-220 -96 -76 -18 -70 -19 1222 -19 l1297 -1 0 1800 0 1800 -2400 0 -2400 0 0
-1800z m1331 974 c82 -41 197 -183 228 -280 15 -46 9 -64 -20 -64 -28 0 -134
-38 -203 -73 -53 -26 -163 -99 -176 -117 -10 -14 -156 -134 -192 -157 -50 -34
-62 -24 -54 46 10 104 7 474 -5 528 -9 39 -9 56 0 66 14 17 133 65 192 76 68
14 177 2 230 -25z m1497 -1162 c128 -112 272 -184 432 -217 48 -9 55 -14 58
-36 2 -14 -7 -52 -19 -84 l-21 -58 -76 7 c-150 12 -362 108 -457 206 -40 41
-40 42 -40 118 0 58 5 85 18 105 9 15 20 27 23 27 3 0 40 -30 82 -68z m-262
-249 c20 -92 142 -404 169 -432 9 -9 139 -31 222 -37 50 -4 97 -11 105 -15 18
-13 -20 -46 -116 -98 -42 -23 -78 -46 -81 -52 -8 -12 70 -129 132 -198 l49
-55 71 60 c39 32 126 106 193 163 l123 105 -103 32 c-119 38 -138 51 -120 84
8 14 17 19 28 15 9 -4 41 -13 71 -21 47 -12 61 -12 101 0 57 17 116 53 188
114 l54 46 31 -17 c54 -28 173 -67 204 -67 19 0 55 17 98 45 37 26 74 44 82
41 79 -31 -97 -169 -282 -222 -33 -9 -62 -18 -63 -19 -9 -8 93 -131 183 -220
66 -65 128 -116 178 -145 42 -25 77 -50 77 -55 0 -6 -7 -20 -15 -33 -13 -17
-14 -26 -4 -43 6 -13 9 -38 5 -61 -25 -153 -204 -265 -347 -216 -73 25 -215
147 -294 255 -44 60 -61 70 -84 49 -11 -10 -21 -12 -31 -6 -32 21 -83 11 -117
-22 -18 -18 -33 -37 -33 -44 0 -7 27 -29 60 -49 66 -40 88 -68 71 -89 -21 -25
-158 -87 -217 -98 -44 -8 -74 -7 -118 2 -54 11 -214 87 -278 131 -14 11 -42
19 -62 19 -39 0 -59 21 -112 118 -16 29 -36 55 -45 57 -17 6 -96 102 -117 142
-20 36 -14 65 25 128 l37 60 7 185 c10 237 28 450 40 472 14 26 28 22 35 -9z"/>
<path d="M3597 367 c40 -66 102 -141 136 -163 85 -56 220 -35 268 43 12 19 19
36 17 38 -2 2 -25 -2 -50 -10 -26 -7 -57 -11 -70 -8 -68 16 -156 46 -224 78
-87 40 -88 40 -77 22z"/>
</g>
</svg>
