<?xml version="1.0" standalone="no"?>
<!DOCTYPE svg PUBLIC "-//W3C//DTD SVG 20010904//EN"
 "http://www.w3.org/TR/2001/REC-SVG-20010904/DTD/svg10.dtd">
<svg version="1.0" xmlns="http://www.w3.org/2000/svg"
 width="480.000000pt" height="360.000000pt" viewBox="0 0 480.000000 360.000000"
 preserveAspectRatio="xMidYMid meet">
<metadata>
Created by potrace 1.16, written by Peter Selinger 2001-2019
</metadata>
<rect width="1" height="360" fill="#000000"/>
<rect x="479" width="1" height="360" fill="#000000"/>
<rect width="480" height="1" fill="#000000"/>
<rect y="359" width="480" height="1" fill="#000000"/>
<g transform="translate(0.000000,360.000000) scale(0.100000,-0.100000)"
fill="#000000" stroke="none">
<path d="M3009 3098 c-51 -50 -159 -174 -159 -184 0 -5 -10 -14 -21 -19 -19
-8 -28 -4 -62 29 -75 71 -206 111 -322 96 -423 -54 -435 -58 -518 -150 -81
-90 -117 -258 -83 -389 l17 -65 -53 -53 c-38 -39 -60 -53 -80 -53 -24 0 -28
-4 -28 -28 0 -16 -7 -37 -15 -48 -21 -27 -18 -43 8 -54 12 -5 49 -27 82 -49
69 -47 80 -49 96 -20 11 21 11 21 39 -6 40 -39 45 -76 16 -134 -14 -26 -32
-53 -40 -60 -27 -22 -18 -32 21 -25 34 6 36 6 29 -17 -3 -13 -9 -37 -12 -54
l-5 -30 35 39 c35 38 37 39 51 20 8 -10 17 -27 20 -36 4 -10 10 -18 15 -18 12
0 20 28 14 48 -5 14 -4 15 5 2 6 -8 11 -37 12 -65 l1 -50 10 35 10 35 29 -33
c33 -37 44 -40 36 -12 -7 28 3 25 30 -7 l22 -28 1 25 c0 20 2 22 10 10 7 -12
10 -8 10 15 l1 30 30 -33 c17 -19 29 -39 27 -45 -7 -21 -75 -48 -169 -67 -162
-33 -195 -47 -244 -103 -52 -60 -102 -149 -126 -227 -17 -55 -17 -55 -60 -58
-61 -5 -165 15 -224 42 -60 27 -138 89 -260 205 -56 53 -127 108 -185 142
l-95 57 3 51 c2 41 0 51 -13 51 -9 0 -76 -58 -148 -128 -226 -220 -345 -304
-722 -508 -39 -21 -40 -23 -43 -81 l-3 -59 113 4 c123 4 125 4 285 -89 41 -24
41 -24 63 -4 12 11 50 56 85 100 103 132 141 139 194 31 36 -73 45 -74 56 -4
11 65 63 76 138 28 53 -33 107 -102 107 -136 0 -36 16 -37 83 -5 35 17 87 35
115 41 44 10 57 9 97 -9 25 -11 75 -50 111 -86 41 -41 72 -64 80 -61 8 3 59
37 112 74 53 38 114 79 134 91 37 22 53 17 42 -13 -4 -10 1 -25 11 -36 15 -17
17 -31 11 -95 -3 -41 -9 -109 -12 -150 -6 -65 -4 -78 12 -96 47 -52 135 -72
197 -45 16 8 17 -2 17 -122 l0 -130 -36 -21 c-30 -18 -34 -24 -24 -36 14 -17
6 -90 -12 -112 -8 -10 -7 -26 2 -58 11 -40 30 -62 30 -34 0 5 5 7 10 4 7 -4 7
-12 0 -25 -5 -10 -10 -23 -10 -29 0 -8 159 -11 520 -11 286 0 520 2 520 5 0 3
-18 35 -39 70 l-40 65 24 43 c14 23 25 51 25 62 0 19 -75 108 -98 116 -9 3
-42 132 -42 164 0 6 16 9 38 7 46 -4 121 33 140 68 13 25 13 42 -5 272 -3 42
-2 85 2 95 5 10 7 23 6 29 0 6 13 15 31 21 39 11 40 35 2 70 -28 25 -31 43 -8
43 23 0 161 -57 224 -93 30 -17 98 -59 152 -94 53 -35 103 -63 111 -63 9 0 37
19 64 42 53 46 115 77 153 78 33 0 122 -42 170 -80 21 -17 42 -30 46 -30 5 0
17 18 27 40 15 32 30 45 80 69 34 16 86 33 115 37 l52 7 0 -52 c0 -28 4 -51
10 -51 5 0 19 18 30 39 22 43 64 81 89 81 25 0 62 -46 101 -125 35 -72 66
-115 83 -115 5 0 54 14 108 31 l99 32 0 135 0 135 -133 136 c-90 92 -159 176
-217 260 -139 203 -148 210 -167 138 -13 -47 -14 -48 -140 -97 -45 -17 -111
-50 -147 -73 -319 -204 -315 -202 -491 -199 -71 1 -161 4 -200 5 -66 2 -69 1
-75 -23 -5 -20 -12 -25 -35 -25 -27 0 -31 6 -65 90 -40 101 -101 214 -128 238
-29 26 -98 46 -230 68 -123 20 -172 34 -172 51 0 14 20 49 41 72 19 20 19 20
20 -5 1 -23 1 -23 14 6 l13 30 4 -40 3 -40 23 42 c15 29 27 41 37 37 10 -4 13
-14 9 -30 -13 -51 14 -21 41 46 15 39 31 70 35 70 4 0 12 -11 18 -25 15 -34
28 -32 36 6 l6 31 27 -20 c58 -40 65 -35 33 22 -17 29 -30 56 -30 59 0 4 18 7
40 7 47 0 50 9 12 37 -32 23 -77 87 -87 123 -6 20 -5 23 6 13 18 -18 42 -16
35 2 -4 12 17 80 30 94 2 2 11 -2 19 -9 26 -21 50 11 50 66 0 35 -5 48 -20 56
-11 6 -39 30 -62 53 -45 44 -57 72 -25 60 27 -10 151 -35 177 -35 21 0 24 5
30 63 4 37 2 73 -4 90 -6 16 -11 34 -11 40 0 12 44 37 66 37 7 0 35 11 63 26
60 30 66 55 21 83 -38 23 -136 134 -161 184 -11 20 -25 63 -32 94 -7 31 -18
58 -23 60 -6 2 -26 -11 -45 -29z m-412 -1300 c-3 -8 -6 -5 -6 6 -1 11 2 17 5
13 3 -3 4 -12 1 -19z"/>
</g>
</svg>
