<?xml version="1.0" standalone="no"?>
<!DOCTYPE svg PUBLIC "-//W3C//DTD SVG 20010904//EN"
 "http://www.w3.org/TR/2001/REC-SVG-20010904/DTD/svg10.dtd">
<svg version="1.0" xmlns="http://www.w3.org/2000/svg"
 width="480.000000pt" height="360.000000pt" viewBox="0 0 480.000000 360.000000"
 preserveAspectRatio="xMidYMid meet">
<metadata>
Created by potrace 1.16, written by Peter Selinger 2001-2019
</metadata>
<rect width="1" height="360" fill="#000000"/>
<rect x="479" width="1" height="360" fill="#000000"/>
<rect width="480" height="1" fill="#000000"/>
<rect y="359" width="480" height="1" fill="#000000"/>
<g transform="translate(0.000000,360.000000) scale(0.100000,-0.100000)"
fill="#000000" stroke="none">
<path d="M0 2820 c0 -429 2 -780 5 -780 3 0 29 13 58 29 100 56 315 132 553
196 191 52 330 135 445 268 91 104 278 286 323 314 42 27 182 55 250 51 46 -3
66 19 66 73 0 28 -9 46 -40 82 -72 82 -49 104 55 53 61 -30 77 -35 100 -26 14
5 45 10 68 10 37 0 44 4 55 28 7 16 23 35 37 42 18 10 31 31 44 74 48 151 72
185 194 261 l32 20 -28 -38 c-30 -39 -29 -44 6 -25 17 9 14 1 -14 -33 -69 -85
-135 -216 -97 -193 6 4 37 9 67 11 l56 3 -29 -23 -29 -23 37 4 c20 2 36 2 36
-1 0 -3 -34 -22 -75 -42 -53 -25 -75 -41 -75 -54 0 -10 -11 -35 -25 -55 l-25
-37 25 -33 c14 -18 25 -42 25 -53 0 -23 18 -40 82 -76 54 -31 60 -39 52 -61
-5 -14 -18 -15 -85 -10 -77 7 -78 7 -109 -24 l-31 -32 59 -71 c83 -97 106
-161 106 -296 1 -80 -2 -103 -13 -103 -9 0 -11 -8 -7 -25 4 -14 2 -25 -4 -25
-5 0 -10 9 -10 21 0 28 -14 21 -42 -21 -13 -19 -33 -37 -43 -39 -11 -2 -26 -8
-34 -14 -18 -15 -43 -18 -34 -5 4 7 -2 9 -15 6 -15 -4 -22 -2 -22 8 0 21 -28
17 -40 -7 -9 -15 -9 -28 0 -50 16 -37 7 -59 -23 -59 -14 0 -31 -7 -38 -17 -8
-9 -30 -23 -49 -31 -19 -8 -47 -23 -62 -34 -17 -12 -36 -17 -48 -13 -33 10
-23 -12 35 -80 79 -93 164 -272 150 -316 -3 -10 1 -34 10 -54 8 -21 15 -54 14
-74 -1 -30 -2 -32 -8 -12 -8 30 -29 39 -37 16 -10 -24 24 -125 41 -125 8 0 77
25 154 55 77 30 149 55 160 55 17 0 20 10 26 88 6 90 25 148 61 192 29 35 35
57 18 64 -25 10 -15 25 25 36 68 18 194 -21 164 -51 -9 -9 -6 -21 17 -53 33
-45 50 -117 50 -207 0 -56 1 -59 28 -65 15 -3 89 -30 164 -60 131 -51 139 -53
158 -37 25 22 37 97 19 119 -11 13 -14 12 -26 -13 -13 -27 -13 -26 -8 21 3 27
10 55 16 62 6 7 12 37 14 66 3 59 70 207 121 267 16 19 42 49 57 67 27 32 24
50 -7 38 -8 -3 -30 5 -48 19 -18 14 -45 29 -61 32 -15 4 -32 15 -37 25 -5 10
-26 21 -46 24 -31 6 -35 10 -29 29 16 52 16 66 0 93 -9 16 -14 22 -12 14 6
-24 -15 -39 -41 -29 -13 5 -28 6 -33 3 -6 -3 -16 0 -24 6 -8 6 -18 9 -24 6 -9
-6 -64 50 -74 76 -3 10 -8 8 -20 -7 -25 -33 -33 108 -12 220 20 110 47 158
137 247 l69 68 -26 56 c-23 48 -30 55 -49 50 -17 -4 -34 7 -80 53 -54 55 -57
60 -44 82 7 12 23 32 36 43 l23 21 -36 83 c-19 46 -35 90 -35 99 0 8 21 -10
46 -41 26 -31 49 -55 51 -53 2 3 -12 41 -32 85 -41 93 -42 102 -14 76 34 -31
179 -209 195 -239 44 -85 119 -208 130 -212 7 -2 36 3 65 11 92 28 256 13 339
-29 26 -14 112 -89 201 -177 184 -181 193 -189 263 -229 65 -36 171 -54 376
-63 195 -9 358 -25 410 -41 25 -7 64 -15 88 -18 l42 -5 0 639 0 639 -2400 0
-2400 0 0 -780z"/>
<path d="M3529 1873 c22 -37 37 -50 66 -56 30 -7 29 -7 -14 33 -46 42 -69 52
-52 23z"/>
<path d="M1201 1779 c-27 -22 -23 -36 7 -20 20 10 38 41 24 41 -4 -1 -18 -10
-31 -21z"/>
<path d="M2375 1665 c-24 -23 -34 -65 -16 -65 5 0 14 -14 20 -31 9 -26 13 -29
31 -19 11 6 20 20 20 30 0 11 5 29 12 39 9 15 9 25 0 45 -15 33 -36 33 -67 1z"/>
<path d="M3638 1683 c7 -3 16 -2 19 1 4 3 -2 6 -13 5 -11 0 -14 -3 -6 -6z"/>
<path d="M3696 1671 c5 -5 40 -5 79 -1 l70 7 -79 2 c-47 0 -76 -3 -70 -8z"/>
<path d="M3783 1643 c15 -2 39 -2 55 0 15 2 2 4 -28 4 -30 0 -43 -2 -27 -4z"/>
<path d="M4597 1573 c55 -20 187 -63 196 -63 4 0 7 16 7 35 0 35 0 35 -47 36
-27 0 -81 2 -121 3 -72 3 -72 2 -35 -11z"/>
<path d="M3628 1574 c-3 -2 8 -68 24 -146 38 -194 48 -281 48 -430 0 -149 17
-210 78 -277 36 -40 41 -42 202 -82 253 -62 265 -67 463 -220 39 -30 104 -88
142 -128 66 -69 86 -85 178 -140 l37 -23 0 665 0 666 -57 10 c-32 6 -103 20
-158 30 -136 27 -269 45 -286 39 -9 -3 5 -18 39 -43 29 -20 51 -39 49 -41 -2
-3 -34 7 -70 21 -37 14 -67 21 -67 16 0 -5 20 -31 45 -57 24 -27 43 -49 41
-51 -5 -6 -202 101 -268 144 -34 23 -46 25 -205 28 -92 2 -182 8 -200 13 -17
6 -33 8 -35 6z"/>
<path d="M1159 1515 c-7 -6 -272 -71 -326 -80 -31 -5 -57 -20 -95 -53 -29 -26
-55 -50 -56 -55 -2 -4 -13 -12 -23 -18 -20 -10 -20 -9 -4 21 9 18 14 34 11 37
-3 3 -24 -6 -47 -22 l-42 -27 21 29 c12 16 28 36 36 43 9 7 14 16 11 20 -9 14
-61 -3 -220 -72 -152 -67 -206 -93 -355 -171 l-65 -34 -3 -567 -2 -566 218 0
219 0 54 63 c29 34 66 76 82 92 38 40 49 55 177 230 59 83 152 197 205 255 53
59 108 129 123 160 26 53 27 62 28 215 1 158 6 207 45 399 18 91 20 114 8 101z"/>
<path d="M2390 1375 c-10 -12 -12 -45 -7 -137 l5 -121 -48 -111 c-26 -61 -59
-122 -72 -136 -14 -14 -60 -37 -104 -52 -43 -15 -135 -50 -204 -78 -229 -95
-247 -99 -304 -75 -18 8 -19 4 -12 -76 9 -100 28 -234 61 -426 14 -78 25 -147
25 -152 0 -8 220 -11 710 -11 l710 0 0 198 c0 108 3 262 7 341 l6 143 -32 -17
c-42 -21 -45 -20 -266 70 -99 40 -198 78 -220 85 -100 32 -113 44 -168 158
l-52 107 0 142 c-1 145 -9 180 -35 148z"/>
<path d="M123 1319 l-123 -61 0 -49 0 -48 75 52 c41 28 75 56 75 60 0 5 -4 5
-10 2 -5 -3 -10 -1 -10 4 0 6 9 11 21 11 11 0 18 4 15 9 -3 5 17 23 44 41 49
31 58 40 43 40 -5 0 -63 -28 -130 -61z"/>
<path d="M2155 1203 c-16 -8 -84 -46 -150 -83 -66 -37 -141 -75 -167 -85 -41
-15 -48 -22 -48 -45 0 -27 1 -28 38 -19 20 5 82 23 137 39 55 17 127 38 160
46 33 9 63 21 67 27 10 16 10 137 1 137 -5 -1 -21 -8 -38 -17z"/>
<path d="M2601 1173 c2 -88 7 -94 84 -113 39 -10 124 -34 190 -54 66 -20 123
-36 126 -36 4 0 10 8 14 17 7 20 -26 53 -54 53 -9 0 -77 34 -151 76 -117 66
-193 104 -206 104 -2 0 -4 -21 -3 -47z"/>
</g>
</svg>
