<?xml version="1.0" standalone="no"?>
<!DOCTYPE svg PUBLIC "-//W3C//DTD SVG 20010904//EN"
 "http://www.w3.org/TR/2001/REC-SVG-20010904/DTD/svg10.dtd">
<svg version="1.0" xmlns="http://www.w3.org/2000/svg"
 width="480.000000pt" height="360.000000pt" viewBox="0 0 480.000000 360.000000"
 preserveAspectRatio="xMidYMid meet">
<metadata>
Created by potrace 1.16, written by Peter Selinger 2001-2019
</metadata>
<rect width="1" height="360" fill="#000000"/>
<rect x="479" width="1" height="360" fill="#000000"/>
<rect width="480" height="1" fill="#000000"/>
<rect y="359" width="480" height="1" fill="#000000"/>
<g transform="translate(0.000000,360.000000) scale(0.100000,-0.100000)"
fill="#000000" stroke="none">
<path d="M1840 3584 c0 -9 18 -54 40 -101 39 -84 40 -87 34 -169 -6 -72 -4
-87 12 -111 37 -55 42 -77 34 -157 -4 -42 -10 -79 -13 -82 -3 -3 -14 -1 -24 4
-28 14 -44 4 -37 -24 8 -30 -33 -387 -71 -616 -4 -24 -1 -28 30 -34 35 -6 35
-7 35 -58 0 -28 7 -107 15 -176 13 -109 13 -127 0 -147 -23 -34 -52 -155 -75
-307 -11 -76 -20 -144 -20 -151 0 -28 -28 -46 -90 -56 -75 -12 -156 -47 -186
-81 -51 -57 -59 -80 -59 -163 0 -90 26 -162 84 -227 l31 -36 -45 -139 c-25
-76 -45 -142 -45 -146 0 -7 -168 -402 -234 -549 l-26 -58 1264 0 1264 0 7 73
c10 118 35 254 71 397 19 74 37 136 40 139 19 20 23 -52 17 -316 l-6 -293 436
0 c410 0 437 1 437 18 0 24 -64 338 -94 465 -43 178 -37 208 75 364 71 98 76
128 26 178 -37 37 -88 51 -223 61 -46 4 -87 11 -90 15 -16 27 -57 320 -68 501
-19 286 -29 312 -158 411 -66 50 -248 147 -277 147 -15 0 -15 -1 19 73 36 77
41 97 31 134 -6 24 -13 29 -52 33 -41 5 -46 8 -72 57 -57 107 -44 212 56 453
70 169 130 355 147 457 12 77 23 94 38 66 9 -16 11 -16 35 0 14 9 33 14 41 11
21 -8 56 65 56 116 l0 40 -1205 0 c-1099 0 -1205 -1 -1205 -16z m2093 -362
c-3 -23 -10 -42 -14 -42 -11 0 -11 7 2 53 13 49 19 44 12 -11z m-63 -792 c10
-18 8 -20 -20 -20 -23 0 -30 4 -30 20 0 13 7 20 20 20 10 0 24 -9 30 -20z
m-1754 -195 c4 -23 1 -46 -10 -69 -9 -19 -16 -39 -16 -45 0 -6 -4 -11 -9 -11
-5 0 -17 -7 -26 -16 -9 -9 -18 -14 -21 -12 -2 3 1 40 7 84 8 56 18 84 31 96
25 23 36 16 44 -27z"/>
</g>
</svg>
