<?xml version="1.0" standalone="no"?>
<!DOCTYPE svg PUBLIC "-//W3C//DTD SVG 20010904//EN"
 "http://www.w3.org/TR/2001/REC-SVG-20010904/DTD/svg10.dtd">
<svg version="1.0" xmlns="http://www.w3.org/2000/svg"
 width="480.000000pt" height="360.000000pt" viewBox="0 0 480.000000 360.000000"
 preserveAspectRatio="xMidYMid meet">
<metadata>
Created by potrace 1.16, written by Peter Selinger 2001-2019
</metadata>
<rect width="1" height="360" fill="#000000"/>
<rect x="479" width="1" height="360" fill="#000000"/>
<rect width="480" height="1" fill="#000000"/>
<rect y="359" width="480" height="1" fill="#000000"/>
<g transform="translate(0.000000,360.000000) scale(0.100000,-0.100000)"
fill="#000000" stroke="none">
<path d="M4298 3538 c-66 -76 -187 -180 -236 -204 -20 -9 -84 -34 -142 -54
-184 -65 -257 -99 -287 -135 -35 -42 -83 -119 -83 -134 0 -24 51 -10 90 25 22
20 40 32 40 26 0 -5 -53 -62 -117 -127 -155 -154 -229 -265 -178 -265 29 0 70
28 130 90 33 34 69 66 80 72 11 5 -10 -19 -46 -54 -94 -90 -167 -218 -125
-218 19 0 58 33 178 147 114 108 161 140 109 74 -18 -23 -49 -53 -68 -68 -19
-14 -54 -57 -79 -96 -35 -54 -42 -72 -33 -83 13 -16 42 1 127 78 73 66 89 63
55 -7 -21 -42 -24 -58 -16 -66 9 -9 20 -6 47 14 19 15 36 27 39 27 2 0 2 -13
-1 -30 -11 -73 47 -19 240 224 101 127 157 183 141 140 -11 -32 -34 -66 -93
-139 -122 -151 -170 -241 -140 -260 17 -10 74 39 137 118 32 39 93 108 137
152 66 68 75 74 56 40 -13 -22 -31 -49 -41 -60 -9 -11 -40 -55 -68 -99 -51
-78 -65 -126 -36 -126 18 0 99 81 172 173 31 39 85 99 118 132 34 33 87 93
120 133 32 40 59 71 62 69 2 -2 -22 -76 -53 -163 -30 -87 -94 -269 -141 -404
-47 -135 -95 -274 -108 -310 -27 -77 -103 -262 -144 -351 -16 -35 -43 -94 -59
-131 -17 -38 -34 -68 -39 -68 -15 0 -35 17 -46 40 -7 13 -24 31 -38 39 -14 9
-47 31 -74 48 -27 18 -62 35 -79 37 -114 17 -353 46 -416 51 -41 4 -129 15
-195 25 -66 10 -143 21 -172 25 -43 6 -61 15 -112 59 -33 29 -83 68 -111 87
-27 19 -50 37 -50 42 0 17 35 5 69 -25 75 -67 135 -113 145 -113 6 0 10 8 10
18 -2 20 7 22 25 5 10 -11 11 -9 5 7 -7 18 -6 19 11 5 11 -9 16 -10 11 -2 -12
19 5 14 33 -10 39 -35 9 5 -52 69 -46 47 -54 73 -24 73 7 0 17 12 23 28 15 39
-1 78 -36 91 -21 7 -28 15 -24 25 8 20 -4 20 -50 1 -60 -25 -124 -28 -154 -7
-15 10 -71 43 -124 72 -54 29 -123 76 -153 103 -53 47 -55 50 -49 88 5 28 2
46 -10 64 -16 25 -16 26 0 23 11 -2 23 7 31 22 11 23 9 28 -21 60 -18 19 -42
57 -52 84 -10 26 -39 69 -63 94 l-44 46 -23 -28 c-17 -19 -24 -39 -24 -71 0
-35 -4 -45 -20 -50 -23 -7 -118 36 -145 65 -45 50 -41 -7 6 -79 16 -25 29 -48
29 -51 0 -4 -18 -19 -39 -33 -26 -18 -48 -45 -68 -84 -26 -53 -28 -67 -28
-168 0 -104 2 -114 32 -175 38 -78 74 -121 247 -304 159 -169 232 -242 279
-279 27 -21 38 -39 46 -77 15 -68 67 -156 158 -265 122 -146 244 -330 328
-494 33 -63 58 -99 77 -110 15 -9 28 -21 28 -27 0 -5 6 -18 13 -28 12 -17 16
-17 50 -2 40 16 172 23 225 11 28 -6 38 -3 63 21 33 31 36 54 13 88 -14 23
-14 25 8 31 13 4 45 28 72 53 30 28 51 41 54 34 2 -7 -17 -61 -43 -121 -44
-102 -46 -110 -33 -141 l13 -32 43 46 c47 51 51 48 22 -19 -11 -26 -20 -59
-20 -75 0 -15 -12 -61 -26 -102 -43 -121 -74 -230 -74 -258 0 -18 8 -31 23
-38 22 -12 95 -54 182 -104 l48 -28 513 0 514 0 0 1800 0 1800 -224 0 -225 0
-53 -62z m-1710 -1328 c53 -31 63 -44 38 -53 -12 -5 -126 66 -126 79 0 12 41
0 88 -26z"/>
</g>
</svg>
