<?xml version="1.0" standalone="no"?>
<!DOCTYPE svg PUBLIC "-//W3C//DTD SVG 20010904//EN"
 "http://www.w3.org/TR/2001/REC-SVG-20010904/DTD/svg10.dtd">
<svg version="1.0" xmlns="http://www.w3.org/2000/svg"
 width="480.000000pt" height="360.000000pt" viewBox="0 0 480.000000 360.000000"
 preserveAspectRatio="xMidYMid meet">
<metadata>
Created by potrace 1.16, written by Peter Selinger 2001-2019
</metadata>
<rect width="1" height="360" fill="#000000"/>
<rect x="479" width="1" height="360" fill="#000000"/>
<rect width="480" height="1" fill="#000000"/>
<rect y="359" width="480" height="1" fill="#000000"/>
<g transform="translate(0.000000,360.000000) scale(0.100000,-0.100000)"
fill="#000000" stroke="none">
<path d="M1150 2675 c0 -3 15 -19 33 -36 28 -26 29 -29 9 -24 -39 11 -108 13
-164 4 -52 -8 -96 -41 -110 -80 -4 -11 -10 -10 -28 6 l-23 20 6 -25 c4 -14 10
-42 13 -63 4 -20 11 -40 15 -43 16 -9 10 -40 -15 -76 -21 -32 -22 -37 -9 -61
8 -16 22 -27 35 -27 20 0 21 -3 15 -81 -4 -69 -9 -85 -30 -108 -37 -38 -48
-75 -52 -166 -3 -83 -17 -162 -37 -199 -6 -11 -41 -66 -78 -121 -36 -55 -70
-105 -74 -112 -4 -7 3 -22 16 -35 17 -17 21 -31 19 -64 -3 -50 26 -84 71 -84
23 0 28 4 28 24 0 13 -10 30 -22 39 -34 22 -15 31 36 17 24 -7 50 -9 56 -5 9
5 11 -1 7 -21 -3 -16 -8 -47 -11 -69 -3 -22 -26 -164 -50 -315 -25 -151 -52
-329 -61 -395 -9 -66 -23 -141 -30 -167 -11 -36 -11 -50 -1 -63 13 -18 72 -34
124 -35 37 0 41 -13 11 -38 -27 -23 -51 -75 -47 -104 3 -20 9 -23 56 -26 65
-4 95 13 118 66 15 35 14 50 -2 130 -4 21 -2 43 6 57 7 13 10 33 7 44 -5 20
-1 21 76 21 45 0 92 3 104 6 27 7 43 -20 47 -79 1 -23 6 -50 11 -60 5 -13 1
-27 -14 -47 -11 -16 -21 -34 -21 -39 0 -5 -8 -23 -17 -41 -17 -30 -17 -32 1
-45 11 -9 42 -15 68 -15 39 0 54 5 74 25 23 23 25 32 22 87 l-3 61 50 13 c58
15 89 46 82 84 -49 264 -95 600 -122 890 -8 91 -18 186 -21 213 -6 41 -4 47
11 47 16 0 16 1 0 26 -13 20 -16 40 -13 76 6 55 13 67 30 50 22 -22 75 -14 97
14 26 33 26 64 1 114 -27 53 -26 67 15 127 19 29 35 57 35 62 0 5 -39 35 -86
66 l-86 56 3 57 c2 31 -1 78 -5 104 -6 36 -5 52 8 70 9 12 16 36 16 53 0 33
-31 108 -49 119 -6 4 -17 21 -26 39 -20 42 -125 111 -125 82z"/>
</g>
</svg>
