<?xml version="1.0" standalone="no"?>
<!DOCTYPE svg PUBLIC "-//W3C//DTD SVG 20010904//EN"
 "http://www.w3.org/TR/2001/REC-SVG-20010904/DTD/svg10.dtd">
<svg version="1.0" xmlns="http://www.w3.org/2000/svg"
 width="480.000000pt" height="360.000000pt" viewBox="0 0 480.000000 360.000000"
 preserveAspectRatio="xMidYMid meet">
<metadata>
Created by potrace 1.16, written by Peter Selinger 2001-2019
</metadata>
<rect width="1" height="360" fill="#000000"/>
<rect x="479" width="1" height="360" fill="#000000"/>
<rect width="480" height="1" fill="#000000"/>
<rect y="359" width="480" height="1" fill="#000000"/>
<g transform="translate(0.000000,360.000000) scale(0.100000,-0.100000)"
fill="#000000" stroke="none">
<path d="M0 3218 l1 -383 63 125 c119 236 269 456 423 618 7 7 13 15 13 18 0
2 -112 4 -250 4 l-250 0 0 -382z"/>
<path d="M4368 3508 c90 -108 125 -158 175 -249 98 -178 135 -327 144 -572 5
-137 3 -187 -11 -265 -19 -104 -88 -310 -117 -353 -10 -15 -23 -37 -29 -50
-47 -111 -211 -305 -345 -408 -22 -17 -51 -40 -63 -51 -13 -11 -29 -20 -35
-20 -7 0 -30 -14 -51 -30 -22 -17 -46 -30 -54 -30 -8 0 -26 -6 -40 -14 -89
-46 -213 -84 -361 -111 -93 -17 -256 -16 -376 1 -55 9 -235 61 -293 85 -167
70 -313 168 -427 288 -277 290 -360 358 -530 434 -233 104 -321 122 -575 121
-208 0 -279 -11 -423 -61 -83 -28 -224 -101 -317 -164 -76 -51 -250 -220 -306
-299 -235 -325 -313 -750 -210 -1145 9 -32 16 -64 16 -69 0 -24 -34 28 -85
129 l-55 110 0 -392 0 -393 253 0 c176 1 247 4 234 11 -9 5 -17 15 -17 21 0 6
10 2 23 -10 l23 -22 1881 0 1881 0 69 78 c150 167 296 385 392 585 l61 126 0
1020 0 1021 -77 153 c-105 207 -378 617 -410 617 -20 0 -12 -12 55 -92z
m-2800 -2205 c54 -27 113 -88 148 -153 27 -50 27 -200 0 -250 -40 -73 -80
-115 -139 -145 -52 -27 -69 -30 -145 -30 -106 0 -149 20 -215 97 -72 85 -82
111 -82 208 0 73 4 92 27 135 40 77 126 140 223 166 48 13 125 0 183 -28z"/>
<path d="M3258 2915 c-102 -29 -195 -127 -234 -245 -54 -165 58 -372 232 -429
79 -26 121 -26 201 -1 112 35 203 125 233 231 19 65 12 172 -14 230 -33 74
-115 162 -180 194 -65 32 -168 40 -238 20z"/>
</g>
</svg>
