<?xml version="1.0" standalone="no"?>
<!DOCTYPE svg PUBLIC "-//W3C//DTD SVG 20010904//EN"
 "http://www.w3.org/TR/2001/REC-SVG-20010904/DTD/svg10.dtd">
<svg version="1.0" xmlns="http://www.w3.org/2000/svg"
 width="480.000000pt" height="360.000000pt" viewBox="0 0 480.000000 360.000000"
 preserveAspectRatio="xMidYMid meet">
<metadata>
Created by potrace 1.16, written by Peter Selinger 2001-2019
</metadata>
<rect width="1" height="360" fill="#000000"/>
<rect x="479" width="1" height="360" fill="#000000"/>
<rect width="480" height="1" fill="#000000"/>
<rect y="359" width="480" height="1" fill="#000000"/>
<g transform="translate(0.000000,360.000000) scale(0.100000,-0.100000)"
fill="#000000" stroke="none">
<path d="M311 3596 c14 -15 550 -125 739 -152 172 -25 359 -15 510 26 167 45
283 60 465 60 333 0 739 -71 1089 -190 102 -34 124 -37 133 -15 8 22 3 25 -70
40 -79 16 -121 37 -143 70 -14 21 -14 26 1 48 8 13 13 31 10 39 -4 9 6 29 20
47 l27 31 -1393 0 c-766 0 -1390 -2 -1388 -4z"/>
<path d="M4780 3213 c-35 -11 -60 -27 -60 -38 0 -7 18 -24 40 -39 l40 -26 0
55 c0 30 -1 55 -2 54 -2 0 -10 -3 -18 -6z"/>
<path d="M1820 3180 c-100 -13 -181 -36 -345 -101 -213 -85 -330 -102 -576
-85 l-116 8 -41 -119 c-80 -226 -135 -457 -211 -883 -104 -578 -166 -951 -195
-1170 -39 -290 -66 -597 -66 -752 l0 -78 1468 0 1467 0 25 37 c14 20 30 41 35
47 13 14 52 67 99 135 52 74 103 182 117 250 9 43 9 119 0 331 -22 515 -24
792 -8 938 9 74 14 139 11 145 -2 7 -13 18 -23 24 -18 11 -21 8 -34 -30 l-15
-42 -1 42 c-1 34 -4 41 -16 37 -11 -5 -13 -2 -9 10 4 10 1 16 -7 16 -40 0 24
285 98 439 23 49 31 77 25 83 -6 6 -32 14 -59 19 -26 5 -81 25 -121 46 -131
66 -249 223 -292 392 -15 59 -21 68 -52 83 -44 21 -289 90 -418 117 -257 55
-581 82 -740 61z"/>
<path d="M4743 2582 c-29 -30 -52 -56 -50 -57 1 -1 26 -18 55 -39 l52 -38 0
96 c0 53 -1 96 -2 95 -2 0 -27 -26 -55 -57z"/>
<path d="M4738 1953 c-24 -6 -23 -8 22 -83 l40 -65 0 78 c0 83 -3 86 -62 70z"/>
<path d="M4765 276 c-37 -41 -99 -54 -184 -38 -31 5 -58 8 -60 6 -3 -3 23
-165 36 -222 5 -21 9 -22 124 -22 l119 0 0 155 c0 85 -1 155 -2 155 -2 0 -17
-15 -33 -34z"/>
</g>
</svg>
