<?xml version="1.0" standalone="no"?>
<!DOCTYPE svg PUBLIC "-//W3C//DTD SVG 20010904//EN"
 "http://www.w3.org/TR/2001/REC-SVG-20010904/DTD/svg10.dtd">
<svg version="1.0" xmlns="http://www.w3.org/2000/svg"
 width="480.000000pt" height="360.000000pt" viewBox="0 0 480.000000 360.000000"
 preserveAspectRatio="xMidYMid meet">
<metadata>
Created by potrace 1.16, written by Peter Selinger 2001-2019
</metadata>
<rect width="1" height="360" fill="#000000"/>
<rect x="479" width="1" height="360" fill="#000000"/>
<rect width="480" height="1" fill="#000000"/>
<rect y="359" width="480" height="1" fill="#000000"/>
<g transform="translate(0.000000,360.000000) scale(0.100000,-0.100000)"
fill="#000000" stroke="none">
<path d="M0 2888 l1 -713 35 90 c20 50 41 104 49 120 78 178 91 192 56 58 -74
-283 -104 -580 -82 -823 55 -603 291 -1099 720 -1512 l111 -108 1519 0 1519 0
109 107 c192 190 334 378 443 588 29 55 57 106 62 113 6 7 8 15 5 18 -3 3 -13
-9 -23 -28 -25 -49 -146 -207 -191 -249 -172 -162 -416 -286 -637 -324 -112
-19 -287 -19 -391 0 -153 27 -340 104 -486 199 -56 37 -199 175 -254 246 -91
118 -164 280 -206 455 -20 85 -24 124 -23 255 1 168 20 280 67 402 70 178 90
279 90 453 -1 247 -67 471 -197 664 -20 29 -36 55 -36 58 0 8 -68 82 -140 152
-63 61 -161 135 -197 148 -10 3 -29 14 -43 23 -30 19 -162 75 -240 101 -148
48 -444 51 -622 5 -210 -54 -400 -162 -565 -320 -24 -22 -43 -36 -43 -31 0 17
99 165 163 244 33 42 116 131 183 199 l121 122 -438 0 -439 0 0 -712z m1427
-393 c68 -20 143 -88 173 -156 43 -102 14 -232 -69 -313 -40 -39 -130 -76
-184 -76 -96 0 -204 66 -248 152 -32 62 -35 152 -9 221 36 96 90 147 181 171
70 19 95 19 156 1z"/>
<path d="M4074 3458 c257 -259 425 -519 544 -844 194 -529 187 -1126 -19
-1652 -16 -40 -29 -78 -29 -85 1 -22 109 205 170 358 17 44 38 93 46 108 12
24 14 197 14 1143 l0 1114 -434 0 -433 0 141 -142z"/>
<path d="M3390 1681 c-137 -45 -230 -168 -230 -305 0 -164 114 -287 281 -302
154 -15 277 72 323 226 23 76 20 131 -10 203 -49 118 -135 178 -264 183 -41 2
-86 0 -100 -5z"/>
<path d="M4550 849 c0 -5 5 -7 10 -4 6 3 10 8 10 11 0 2 -4 4 -10 4 -5 0 -10
-5 -10 -11z"/>
</g>
</svg>
