<?xml version="1.0" standalone="no"?>
<!DOCTYPE svg PUBLIC "-//W3C//DTD SVG 20010904//EN"
 "http://www.w3.org/TR/2001/REC-SVG-20010904/DTD/svg10.dtd">
<svg version="1.0" xmlns="http://www.w3.org/2000/svg"
 width="480.000000pt" height="360.000000pt" viewBox="0 0 480.000000 360.000000"
 preserveAspectRatio="xMidYMid meet">
<metadata>
Created by potrace 1.16, written by Peter Selinger 2001-2019
</metadata>
<rect width="1" height="360" fill="#000000"/>
<rect x="479" width="1" height="360" fill="#000000"/>
<rect width="480" height="1" fill="#000000"/>
<rect y="359" width="480" height="1" fill="#000000"/>
<g transform="translate(0.000000,360.000000) scale(0.100000,-0.100000)"
fill="#000000" stroke="none">
<path d="M2257 3176 c-51 -19 -76 -42 -98 -93 -11 -26 -29 -48 -48 -58 -17 -8
-35 -24 -41 -34 -13 -25 -13 -81 0 -81 6 0 10 -22 10 -48 0 -39 7 -59 41 -111
37 -58 41 -68 37 -112 -5 -47 4 -65 16 -34 10 27 26 16 26 -17 0 -24 3 -29 10
-18 7 12 12 11 31 -5 16 -14 23 -16 26 -7 5 12 23 7 23 -7 0 -13 -64 -75 -107
-105 -23 -15 -50 -40 -59 -55 -9 -14 -23 -30 -30 -34 -8 -4 -28 -37 -45 -73
-29 -61 -31 -68 -19 -103 9 -29 10 -50 1 -93 l-12 -55 -61 -7 c-33 -3 -86 -6
-117 -6 -46 0 -61 -5 -86 -26 -16 -14 -37 -31 -46 -38 -8 -6 -26 -25 -39 -43
-30 -42 -22 -85 27 -135 40 -41 57 -45 87 -23 15 11 17 22 12 53 l-6 40 43 6
c23 3 93 9 156 12 l113 7 29 40 c16 22 39 67 50 99 12 32 27 57 33 55 17 -6
55 -128 56 -179 0 -26 5 -58 11 -72 10 -21 7 -32 -18 -73 -16 -26 -49 -106
-72 -178 -62 -194 -137 -326 -248 -440 -46 -48 -53 -51 -70 -34 -22 22 -57 4
-100 -51 -65 -83 -86 -127 -78 -166 4 -26 0 -42 -19 -71 -14 -21 -28 -51 -32
-68 -4 -16 -14 -39 -24 -50 -37 -43 -40 -59 -19 -103 11 -22 36 -51 55 -64 18
-12 34 -25 34 -28 0 -3 7 -13 15 -24 13 -17 18 -17 45 -6 25 11 40 10 93 -5
34 -9 74 -28 90 -43 22 -21 36 -26 70 -24 98 6 176 3 195 -7 27 -14 37 -100
17 -148 -8 -20 -15 -51 -15 -70 0 -31 -3 -35 -21 -30 -12 3 -34 -4 -57 -20
-20 -14 -59 -36 -87 -50 -55 -28 -70 -44 -52 -55 7 -4 121 -8 255 -8 l242 0 0
98 c0 54 -7 122 -15 152 -22 83 -23 81 48 80 86 -2 127 4 162 22 17 9 76 24
130 33 107 18 165 37 165 54 0 6 14 11 30 11 17 0 48 12 70 26 31 21 40 33 40
55 0 20 4 27 14 23 8 -3 44 13 80 35 36 22 76 43 88 47 30 9 95 61 108 85 12
21 -4 59 -47 116 -20 26 -22 34 -12 51 10 16 10 26 0 50 -15 36 -169 188 -229
226 -58 37 -131 152 -202 321 -61 145 -109 248 -126 266 -13 15 -9 17 39 22
145 15 247 110 247 229 0 45 -30 119 -76 191 -24 37 -61 98 -81 135 -101 185
-167 267 -239 297 -23 9 -34 21 -34 34 0 28 4 27 58 -18 26 -21 61 -41 79 -43
27 -4 32 -1 36 21 6 29 -12 137 -38 226 -17 58 -41 87 -169 205 -9 8 -30 32
-47 52 -46 56 -119 88 -198 88 -37 -1 -83 -7 -104 -14z"/>
</g>
</svg>
