<?xml version="1.0" standalone="no"?>
<!DOCTYPE svg PUBLIC "-//W3C//DTD SVG 20010904//EN"
 "http://www.w3.org/TR/2001/REC-SVG-20010904/DTD/svg10.dtd">
<svg version="1.0" xmlns="http://www.w3.org/2000/svg"
 width="480.000000pt" height="360.000000pt" viewBox="0 0 480.000000 360.000000"
 preserveAspectRatio="xMidYMid meet">
<metadata>
Created by potrace 1.16, written by Peter Selinger 2001-2019
</metadata>
<rect width="1" height="360" fill="#000000"/>
<rect x="479" width="1" height="360" fill="#000000"/>
<rect width="480" height="1" fill="#000000"/>
<rect y="359" width="480" height="1" fill="#000000"/>
<g transform="translate(0.000000,360.000000) scale(0.100000,-0.100000)"
fill="#000000" stroke="none">
<path d="M1805 3563 c41 -298 -28 -607 -195 -871 -135 -214 -336 -385 -580
-494 -134 -59 -185 -74 -344 -94 -209 -27 -403 -5 -595 65 -47 17 -86 31 -88
31 -2 0 -3 -495 -3 -1100 l0 -1100 1813 0 1814 0 23 102 c30 137 40 166 122
353 102 232 161 385 214 547 26 79 69 189 97 245 50 100 51 103 32 117 -25 18
-94 11 -112 -12 -7 -9 -13 -26 -13 -39 0 -13 -9 -48 -19 -79 -11 -30 -23 -76
-27 -101 -7 -48 -29 -67 -49 -40 -10 14 -13 14 -28 -4 -9 -10 -17 -26 -17 -34
0 -7 -5 -17 -10 -20 -20 -12 -56 23 -89 85 -31 58 -34 70 -34 156 0 82 4 99
31 158 30 63 30 68 25 178 -5 112 -4 114 32 213 30 80 39 121 45 205 4 58 11
121 15 140 12 56 62 159 95 196 16 19 30 40 30 47 0 20 67 155 96 192 43 57
131 108 228 134 75 20 115 24 262 25 149 1 175 -1 190 -16 26 -25 11 -58 -57
-125 l-61 -60 16 -53 c9 -30 16 -64 16 -76 0 -28 -47 -84 -87 -104 -15 -8 -64
-50 -108 -92 -60 -60 -86 -78 -107 -78 -21 0 -28 -5 -28 -20 0 -16 9 -21 49
-26 27 -3 61 -14 76 -24 41 -27 93 -107 115 -176 10 -34 30 -85 44 -113 15
-28 28 -65 30 -83 2 -21 11 -35 25 -42 25 -11 27 -22 5 -34 -14 -8 -12 -12 14
-28 43 -25 45 -36 18 -97 -13 -28 -26 -60 -29 -69 -5 -13 -17 -18 -44 -18 -26
0 -45 -8 -65 -27 -33 -32 -35 -57 -7 -98 39 -58 87 -161 132 -285 25 -69 55
-145 66 -170 l20 -45 0 1398 1 1397 -1500 0 -1500 0 5 -37z"/>
</g>
</svg>
