<?xml version="1.0" standalone="no"?>
<!DOCTYPE svg PUBLIC "-//W3C//DTD SVG 20010904//EN"
 "http://www.w3.org/TR/2001/REC-SVG-20010904/DTD/svg10.dtd">
<svg version="1.0" xmlns="http://www.w3.org/2000/svg"
 width="480.000000pt" height="360.000000pt" viewBox="0 0 480.000000 360.000000"
 preserveAspectRatio="xMidYMid meet">
<metadata>
Created by potrace 1.16, written by Peter Selinger 2001-2019
</metadata>
<rect width="1" height="360" fill="#000000"/>
<rect x="479" width="1" height="360" fill="#000000"/>
<rect width="480" height="1" fill="#000000"/>
<rect y="359" width="480" height="1" fill="#000000"/>
<g transform="translate(0.000000,360.000000) scale(0.100000,-0.100000)"
fill="#000000" stroke="none">
<path d="M3920 3534 c-35 -53 -41 -67 -29 -75 24 -15 38 -10 84 32 25 23 45
39 45 36 0 -11 -113 -139 -174 -197 -60 -58 -136 -165 -136 -193 0 -12 8 -17
25 -17 19 0 51 24 115 87 50 47 93 84 96 81 3 -3 -20 -28 -50 -55 -81 -72
-173 -223 -136 -223 25 0 60 27 173 138 65 63 121 112 124 109 10 -10 -24 -53
-72 -94 -56 -47 -133 -169 -117 -185 14 -14 70 23 130 86 77 81 149 130 97 66
-7 -8 -27 -42 -44 -74 -28 -53 -30 -61 -15 -69 13 -7 31 5 83 57 37 36 69 66
73 66 4 0 6 -12 5 -26 -5 -73 51 -21 219 203 64 84 130 163 147 175 l30 22
-29 -53 c-16 -28 -46 -73 -66 -99 -126 -159 -181 -267 -147 -288 14 -8 116 97
191 196 31 41 82 100 114 130 64 62 61 55 -47 -103 -72 -105 -98 -162 -81
-179 13 -13 77 45 153 141 33 42 73 93 89 113 29 36 30 40 30 147 l0 111 -418
0 -418 0 -44 -66z"/>
<path d="M4772 3263 c-65 -186 -166 -476 -182 -523 -84 -254 -267 -652 -448
-974 l-50 -88 3 73 c2 41 7 87 11 103 6 24 2 33 -28 60 -19 18 -37 37 -39 42
-4 9 -56 41 -134 83 -20 10 -61 16 -125 17 -401 8 -561 13 -568 18 -5 3 -54 6
-110 7 -56 1 -99 5 -97 9 3 5 -6 17 -20 28 l-25 20 23 6 c12 3 34 6 50 6 40 0
33 14 -20 38 -47 20 -47 21 -13 17 175 -20 174 -17 -15 45 -71 24 -134 46
-138 50 -21 19 49 19 111 1 95 -28 118 -30 114 -8 -2 12 4 18 20 19 13 1 30 2
38 4 8 1 23 2 33 3 34 2 16 16 -42 33 -56 17 -60 20 -63 50 -2 26 -10 37 -38
51 -20 10 -34 23 -32 32 3 17 -23 21 -33 5 -9 -15 -73 -40 -101 -40 -32 0
-203 63 -273 100 -32 17 -74 45 -95 62 -34 28 -37 34 -35 77 1 26 -1 53 -5 59
-4 7 0 19 8 28 23 23 20 47 -10 75 -15 13 -39 51 -54 84 -24 53 -91 135 -111
135 -17 0 -39 -53 -39 -95 0 -29 -5 -48 -13 -51 -20 -7 -97 29 -137 64 -37 33
-57 33 -40 1 6 -10 8 -19 5 -19 -4 0 9 -22 29 -49 20 -27 36 -54 36 -60 0 -6
-13 -17 -30 -26 -44 -23 -68 -52 -91 -114 -39 -106 -24 -255 39 -356 32 -53
222 -245 242 -245 9 0 26 -13 38 -29 21 -29 112 -108 210 -184 46 -36 50 -41
65 -115 10 -42 29 -98 45 -124 15 -25 88 -109 162 -185 217 -222 295 -315 414
-491 16 -23 40 -45 53 -48 13 -4 30 -19 39 -35 8 -16 17 -29 19 -29 3 0 22 9
42 20 21 11 52 20 69 20 17 0 46 5 64 11 24 9 45 9 86 -1 l55 -13 34 33 c42
40 44 65 9 101 l-26 27 34 11 c58 19 123 106 164 219 20 55 80 140 91 128 2
-1 -19 -50 -47 -108 -27 -59 -55 -127 -62 -152 -11 -41 -10 -48 6 -64 17 -16
20 -15 62 31 24 27 44 47 44 44 0 -2 -14 -37 -31 -78 -17 -41 -51 -153 -75
-248 l-45 -175 23 -17 c13 -10 47 -25 77 -35 30 -9 66 -23 80 -30 14 -8 33
-14 42 -14 9 0 18 -3 22 -6 4 -5 86 -35 197 -74 14 -5 48 -17 76 -28 l52 -20
15 40 c13 32 20 39 38 36 19 -2 25 3 32 36 9 38 10 38 50 32 22 -4 43 -9 47
-11 4 -2 3 -26 -1 -52 -16 -96 -26 -89 121 -88 l130 0 0 1433 c0 787 -2 1432
-4 1432 -2 0 -13 -26 -24 -57z m-2082 -868 c22 -13 23 -14 5 -14 -11 0 -29 6
-39 14 -26 20 0 20 34 0z m1355 -794 c-19 -38 -28 -41 -14 -5 13 35 20 46 26
41 2 -3 -3 -19 -12 -36z"/>
</g>
</svg>
