<?xml version="1.0" standalone="no"?>
<!DOCTYPE svg PUBLIC "-//W3C//DTD SVG 20010904//EN"
 "http://www.w3.org/TR/2001/REC-SVG-20010904/DTD/svg10.dtd">
<svg version="1.0" xmlns="http://www.w3.org/2000/svg"
 width="480.000000pt" height="360.000000pt" viewBox="0 0 480.000000 360.000000"
 preserveAspectRatio="xMidYMid meet">
<metadata>
Created by potrace 1.16, written by Peter Selinger 2001-2019
</metadata>
<rect width="1" height="360" fill="#000000"/>
<rect x="479" width="1" height="360" fill="#000000"/>
<rect width="480" height="1" fill="#000000"/>
<rect y="359" width="480" height="1" fill="#000000"/>
<g transform="translate(0.000000,360.000000) scale(0.100000,-0.100000)"
fill="#000000" stroke="none">
<path d="M1100 3592 c0 -4 12 -39 26 -77 42 -112 42 -112 -2 -124 -177 -45
-297 -42 -449 12 -55 19 -115 38 -133 41 -47 8 -121 -10 -226 -57 -101 -45
-185 -66 -263 -67 l-53 0 0 -1660 0 -1660 2400 0 2400 0 0 1660 0 1660 -26
-10 c-45 -18 -88 -11 -154 25 -147 79 -191 97 -262 106 -103 14 -207 38 -250
60 -98 50 -169 60 -231 34 -19 -8 -75 -47 -124 -86 -168 -136 -240 -150 -394
-73 -26 13 -52 24 -58 24 -18 0 -31 37 -25 69 5 21 3 31 -6 31 -9 0 -11 13 -6
50 l7 50 -1086 0 c-597 0 -1085 -3 -1085 -8z m1558 -850 c2 -15 -2 -22 -12
-22 -11 0 -16 9 -16 26 0 31 23 28 28 -4z m-520 -164 c-4 -27 -23 -34 -32 -13
-8 21 1 35 20 35 10 0 14 -8 12 -22z m162 -223 c0 -14 -3 -25 -8 -25 -11 0
-32 37 -25 44 15 15 33 4 33 -19z m200 -74 c-1 -17 -17 -29 -29 -21 -19 11 -6
41 14 34 8 -3 15 -9 15 -13z m185 -150 c-9 -16 -25 -3 -18 15 4 10 9 12 15 6
6 -6 7 -15 3 -21z m-641 3 c9 -22 8 -24 -9 -24 -8 0 -15 9 -15 20 0 24 15 27
24 4z m-165 -13 c6 -10 7 -21 4 -25 -9 -8 -33 14 -33 30 0 20 18 17 29 -5z
m64 -2 c3 -13 1 -19 -6 -16 -15 5 -22 37 -9 37 5 0 12 -9 15 -21z m595 -31
c-6 -18 -28 -21 -28 -4 0 9 7 16 16 16 9 0 14 -5 12 -12z m-68 -18 c0 -21 -15
-27 -25 -10 -7 12 2 30 16 30 5 0 9 -9 9 -20z m-410 -11 c0 -18 -2 -19 -15 -9
-15 12 -12 30 6 30 5 0 9 -10 9 -21z m-222 -22 c2 -10 -3 -17 -12 -17 -9 0
-16 2 -16 4 0 2 -3 12 -6 21 -5 13 -2 16 12 13 10 -2 20 -11 22 -21z m296 4
c3 -5 -1 -14 -8 -20 -16 -13 -32 2 -21 19 8 12 22 13 29 1z m176 -27 c0 -8 -4
-14 -10 -14 -5 0 -10 9 -10 21 0 11 5 17 10 14 6 -3 10 -13 10 -21z m228 -21
c-4 -22 -22 -20 -26 1 -2 10 3 16 13 16 10 0 15 -7 13 -17z m-604 -29 c4 -9 4
-19 2 -21 -8 -8 -26 8 -26 23 0 19 16 18 24 -2z m286 1 c0 -8 -4 -15 -10 -15
-5 0 -10 7 -10 15 0 8 5 15 10 15 6 0 10 -7 10 -15z m-38 -40 c-12 -22 -27 -2
-18 22 5 12 10 13 17 6 7 -7 8 -17 1 -28z m83 15 c0 -7 -6 -15 -12 -17 -8 -3
-13 4 -13 17 0 13 5 20 13 18 6 -3 12 -11 12 -18z m113 3 c-4 -22 -22 -20 -26
1 -2 10 3 16 13 16 10 0 15 -7 13 -17z m152 2 c9 -11 10 -19 3 -26 -14 -14
-53 6 -53 26 0 20 34 19 50 0z m-552 -18 c2 -12 -1 -15 -12 -11 -19 7 -22 38
-3 32 6 -3 13 -12 15 -21z m550 -80 c2 -10 -3 -17 -12 -17 -10 0 -16 9 -16 21
0 24 23 21 28 -4z m132 -11 c0 -7 -6 -19 -14 -25 -11 -9 -15 -7 -19 8 -3 11
-2 22 1 25 11 11 32 6 32 -8z m30 -61 c0 -8 -4 -15 -10 -15 -5 0 -10 7 -10 15
0 8 5 15 10 15 6 0 10 -7 10 -15z m-610 -39 c0 -20 -19 -31 -32 -18 -6 6 -7
15 -4 21 10 16 36 13 36 -3z m310 -51 c0 -8 -4 -15 -10 -15 -5 0 -10 7 -10 15
0 8 5 15 10 15 6 0 10 -7 10 -15z m180 -5 c0 -11 -4 -20 -9 -20 -11 0 -22 26
-14 34 12 12 23 5 23 -14z m6 -41 c9 -16 -12 -33 -31 -25 -14 5 -15 9 -5 21
15 18 26 19 36 4z m-647 -39 c6 0 11 -9 11 -20 0 -11 -5 -20 -11 -20 -6 0 -13
9 -16 20 -3 11 -11 20 -19 20 -17 0 -27 17 -18 32 5 8 13 5 25 -10 9 -12 22
-22 28 -22z m161 -99 c0 -24 -25 -34 -40 -16 -15 18 -5 35 21 35 12 0 19 -7
19 -19z m584 3 c10 -26 7 -34 -12 -34 -25 0 -31 7 -25 31 6 23 28 25 37 3z
m-102 -36 c-9 -9 -12 -7 -12 12 0 19 3 21 12 12 9 -9 9 -15 0 -24z m-640 -10
c-15 -15 -26 -4 -18 18 5 13 9 15 18 6 9 -9 9 -15 0 -24z m458 11 c0 -5 -7 -9
-15 -9 -15 0 -20 12 -9 23 8 8 24 -1 24 -14z m410 12 c0 -12 -20 -25 -27 -18
-7 7 6 27 18 27 5 0 9 -4 9 -9z m-742 -69 c4 -27 -14 -29 -28 -3 -14 27 -13
33 8 29 9 -2 18 -13 20 -26z m480 6 c-6 -18 -28 -21 -28 -4 0 9 7 16 16 16 9
0 14 -5 12 -12z m-363 -18 c11 -17 -5 -32 -21 -19 -7 6 -11 15 -8 20 7 12 21
11 29 -1z m375 -34 c0 -8 -4 -17 -9 -21 -12 -7 -24 12 -16 25 9 15 25 12 25
-4z m70 -13 c-1 -14 -27 -43 -39 -43 -15 0 -14 23 1 38 13 13 38 16 38 5z
m-380 -47 c0 -37 -15 -55 -32 -38 -8 8 -8 15 1 25 6 8 9 22 5 31 -4 11 -1 16
10 16 12 0 16 -9 16 -34z m-300 9 c20 -24 -2 -41 -24 -20 -16 16 -14 35 3 35
5 0 14 -7 21 -15z m340 -6 c0 -11 -4 -17 -10 -14 -5 3 -10 13 -10 21 0 8 5 14
10 14 6 0 10 -9 10 -21z m162 -19 c2 -17 -2 -26 -14 -28 -14 -3 -18 3 -18 26
0 50 25 53 32 2z m-272 -1 c0 -24 -23 -21 -28 4 -2 10 3 17 12 17 10 0 16 -9
16 -21z m180 4 c0 -5 -4 -14 -9 -22 -8 -12 -12 -12 -25 -2 -23 19 -20 31 9 31
14 0 25 -3 25 -7z m59 -72 c-3 -6 -10 -7 -18 -2 -7 5 -10 14 -6 21 9 14 29 -2
24 -19z m-441 1 c2 -7 -3 -12 -12 -12 -9 0 -16 7 -16 16 0 17 22 14 28 -4z
m592 -12 c0 -11 -7 -20 -15 -20 -8 0 -15 9 -15 20 0 11 7 20 15 20 8 0 15 -9
15 -20z m-220 -6 c0 -9 -5 -14 -12 -12 -18 6 -21 28 -4 28 9 0 16 -7 16 -16z
m350 2 c0 -8 -7 -16 -15 -20 -15 -5 -21 14 -8 27 11 12 23 8 23 -7z m-559 -11
c-1 -15 -24 -12 -29 3 -3 9 2 13 12 10 10 -1 17 -7 17 -13z m589 -15 c0 -5 -6
-13 -14 -17 -8 -4 -14 -17 -13 -27 1 -10 -4 -21 -12 -24 -11 -4 -12 2 -7 24 8
32 24 54 37 54 5 0 9 -4 9 -10z m-556 -47 c-21 -15 -36 -13 -42 7 -3 9 2 11
16 8 13 -4 23 0 28 11 5 13 7 13 12 2 2 -8 -4 -20 -14 -28z m-66 4 c2 -10 -3
-17 -11 -17 -16 0 -30 24 -19 34 10 10 27 1 30 -17z m342 -71 c0 -2 -3 -11 -6
-20 -9 -23 -24 -20 -24 4 0 11 7 20 15 20 8 0 15 -2 15 -4z m-230 -47 c0 -15
-4 -19 -16 -15 -9 3 -18 6 -20 6 -2 0 -4 7 -4 15 0 8 9 15 20 15 14 0 20 -7
20 -21z m368 9 c-3 -7 -12 -14 -21 -16 -12 -2 -15 1 -11 12 7 19 38 22 32 4z
m172 -8 c0 -9 -25 -20 -46 -20 -20 0 -17 28 4 32 21 5 42 -1 42 -12z m-374
-47 c-3 -51 -28 -69 -34 -24 -5 35 6 71 23 71 11 0 13 -12 11 -47z m304 -9 c0
-8 -7 -14 -15 -14 -15 0 -21 21 -9 33 10 9 24 -2 24 -19z m-200 -15 c0 -5 -7
-9 -15 -9 -15 0 -20 12 -9 23 8 8 24 -1 24 -14z m-240 -19 c0 -11 -7 -20 -15
-20 -15 0 -21 21 -8 33 12 13 23 7 23 -13z m-40 -21 c0 -11 -4 -17 -10 -14 -5
3 -10 13 -10 21 0 8 5 14 10 14 6 0 10 -9 10 -21z m145 -20 c0 -7 -8 -15 -17
-17 -18 -3 -25 18 -11 32 10 10 28 1 28 -15z m-145 -25 c0 -9 -7 -14 -17 -12
-25 5 -28 28 -4 28 12 0 21 -6 21 -16z m78 4 c-7 -19 -38 -22 -38 -4 0 10 9
16 21 16 12 0 19 -5 17 -12z m149 -24 c1 -5 -2 -16 -7 -24 -12 -20 -33 0 -24
24 7 17 25 17 31 0z m-232 -27 c24 -18 12 -36 -20 -29 -31 5 -42 21 -24 33 19
12 22 11 44 -4z m98 -14 c9 -9 -13 -34 -24 -27 -14 8 -11 34 4 34 8 0 17 -3
20 -7z m87 -46 c0 -19 -27 -53 -35 -45 -12 12 4 58 20 58 8 0 15 -6 15 -13z
m96 -8 c10 -17 -13 -36 -27 -22 -12 12 -4 33 11 33 5 0 12 -5 16 -11z m-258
-81 c-7 -19 -38 -22 -38 -4 0 10 9 16 21 16 12 0 19 -5 17 -12z m122 -33 c0
-8 -4 -15 -10 -15 -5 0 -10 7 -10 15 0 8 5 15 10 15 6 0 10 -7 10 -15z m110 0
c0 -8 -4 -15 -10 -15 -5 0 -10 7 -10 15 0 8 5 15 10 15 6 0 10 -7 10 -15z
m112 -27 c-15 -15 -26 -4 -18 18 5 13 9 15 18 6 9 -9 9 -15 0 -24z m-232 -16
c0 -13 -12 -22 -22 -16 -10 6 -1 24 13 24 5 0 9 -4 9 -8z m80 -53 c0 -5 -7 -9
-15 -9 -15 0 -20 12 -9 23 8 8 24 -1 24 -14z m-76 -39 c-6 -6 -15 -6 -24 0
-13 9 -13 11 0 20 18 11 39 -5 24 -20z m-50 -31 c-8 -14 -34 -11 -34 4 0 8 3
17 7 20 9 9 34 -13 27 -24z m61 -9 c0 -22 -29 -18 -33 3 -3 14 1 18 15 15 10
-2 18 -10 18 -18z"/>
</g>
</svg>
