<?xml version="1.0" standalone="no"?>
<!DOCTYPE svg PUBLIC "-//W3C//DTD SVG 20010904//EN"
 "http://www.w3.org/TR/2001/REC-SVG-20010904/DTD/svg10.dtd">
<svg version="1.0" xmlns="http://www.w3.org/2000/svg"
 width="480.000000pt" height="360.000000pt" viewBox="0 0 480.000000 360.000000"
 preserveAspectRatio="xMidYMid meet">
<metadata>
Created by potrace 1.16, written by Peter Selinger 2001-2019
</metadata>
<rect width="1" height="360" fill="#000000"/>
<rect x="479" width="1" height="360" fill="#000000"/>
<rect width="480" height="1" fill="#000000"/>
<rect y="359" width="480" height="1" fill="#000000"/>
<g transform="translate(0.000000,360.000000) scale(0.100000,-0.100000)"
fill="#000000" stroke="none">
<path d="M1351 3586 c-21 -25 12 -38 93 -35 41 2 77 1 80 -2 3 -2 -2 -53 -11
-112 -8 -59 -12 -111 -8 -115 4 -4 26 15 50 43 24 27 46 48 48 45 3 -3 12 -36
22 -75 29 -123 46 -175 56 -175 5 0 9 12 9 26 0 42 18 18 25 -34 9 -66 20 -82
29 -41 8 41 17 30 40 -43 9 -32 21 -58 27 -58 5 0 10 21 11 48 0 26 2 52 3 57
2 6 3 16 4 23 3 35 20 -8 41 -103 13 -58 27 -105 32 -105 4 0 8 26 9 58 1 90
14 109 24 32 7 -60 9 -63 19 -37 5 15 16 25 22 23 9 -3 14 9 17 37 2 23 4 -15
5 -85 1 -71 6 -128 11 -128 9 0 51 91 51 112 0 7 12 -1 27 -17 24 -25 28 -27
31 -12 3 14 7 16 18 6 8 -6 14 -20 14 -31 0 -15 -3 -17 -19 -8 -31 16 -61 12
-61 -7 0 -10 7 -40 15 -68 12 -39 13 -51 3 -61 -7 -6 -78 -33 -158 -58 -176
-58 -284 -112 -361 -183 l-58 -54 -15 23 c-8 13 -39 66 -69 118 -30 52 -67
104 -81 115 -26 19 -27 19 -179 -3 -106 -15 -199 -22 -307 -22 -257 0 -377 36
-623 183 -67 40 -148 88 -179 105 l-58 32 0 -87 1 -88 77 -37 c42 -20 111 -62
153 -94 72 -55 75 -59 74 -97 -1 -35 -6 -43 -41 -67 -32 -23 -45 -43 -73 -111
-18 -46 -37 -93 -41 -104 -5 -11 -11 -28 -14 -37 -4 -15 90 -439 125 -562 l11
-39 75 7 c42 3 86 6 98 6 17 0 27 10 38 38 20 51 127 474 127 504 0 14 -16 71
-36 129 -26 76 -45 114 -71 140 l-34 36 158 7 c149 6 359 -4 382 -19 22 -13
10 -33 -41 -67 -51 -34 -55 -39 -105 -161 l-51 -127 44 -217 c25 -120 51 -223
57 -230 9 -9 50 -10 172 -3 509 29 1100 44 1781 45 680 0 720 1 710 17 -8 13
-7 21 1 29 10 10 14 8 19 -7 4 -10 12 -22 18 -26 6 -4 70 -8 143 -8 118 0 133
2 142 18 12 22 74 352 97 517 23 169 38 188 35 45 l-1 -45 19 25 c52 66 60 79
66 116 4 21 14 58 22 80 14 39 18 42 60 48 71 9 133 7 133 -5 0 -6 -13 -23
-28 -37 -41 -39 -118 -261 -104 -300 5 -15 31 -115 57 -222 26 -107 54 -205
61 -218 14 -21 21 -22 124 -22 105 0 111 1 119 23 8 21 34 124 97 388 l27 116
-25 64 c-15 35 -36 90 -48 121 -18 46 -31 63 -66 85 -26 17 -42 33 -39 41 3 8
5 26 5 41 0 23 13 38 80 87 44 32 109 74 145 92 l65 33 0 85 0 84 -39 -20
c-22 -11 -92 -51 -157 -90 -64 -39 -147 -86 -183 -104 -74 -37 -189 -81 -196
-75 -2 3 1 25 6 49 6 25 13 69 17 99 8 59 27 78 38 36 13 -51 20 -5 12 77 -16
173 -39 365 -47 408 -5 25 -15 78 -22 118 l-12 72 -252 0 -251 0 -20 -152
c-13 -109 -19 -209 -18 -348 1 -175 4 -204 26 -288 14 -51 23 -94 19 -96 -3
-2 -61 3 -129 12 -89 11 -129 12 -146 4 -13 -6 -44 -46 -71 -94 -26 -46 -68
-116 -93 -157 l-46 -73 -52 55 c-107 113 -224 180 -419 241 -111 35 -121 47
-90 108 9 18 23 63 31 100 9 38 17 68 19 68 3 0 1 -52 -2 -115 -6 -116 1 -142
25 -89 7 14 16 22 22 19 11 -7 43 41 89 134 18 35 34 61 36 59 2 -2 8 -41 14
-86 6 -46 15 -91 21 -100 9 -15 10 -15 16 5 9 33 24 18 25 -25 0 -20 4 -46 8
-57 9 -22 15 13 26 155 13 153 24 149 22 -7 -1 -83 1 -154 5 -158 3 -3 11 27
17 67 16 99 23 125 28 111 7 -20 23 -15 35 12 8 18 17 24 30 19 16 -5 18 1 18
46 0 32 4 49 10 45 6 -3 10 -22 10 -41 0 -61 13 -46 95 113 13 26 14 25 49
-46 48 -94 61 -93 53 7 -3 42 -3 102 0 132 l5 55 68 -9 c56 -8 71 -7 90 7 22
15 22 16 -34 47 -77 44 -116 96 -85 115 6 4 17 -2 25 -14 12 -16 19 -19 33
-12 16 9 17 16 8 66 -8 45 -8 61 3 78 7 12 22 37 33 55 l19 32 -1090 0 c-909
0 -1091 -2 -1101 -14z m759 -140 c-1 -19 -2 -19 -15 4 -20 35 -19 62 0 36 8
-11 15 -29 15 -40z m224 -101 c42 -19 76 -36 76 -39 0 -8 -84 15 -123 35 -23
12 -61 37 -84 55 -23 19 -48 34 -57 34 -9 0 -16 8 -16 21 0 18 8 15 64 -26 35
-25 98 -61 140 -80z m-103 14 c47 -36 131 -65 214 -74 105 -11 123 -24 35 -24
-86 -1 -153 15 -227 52 -69 36 -129 87 -112 98 8 4 22 1 35 -9 12 -9 37 -29
55 -43z m-84 -391 c-2 -13 -4 -5 -4 17 -1 22 1 32 4 23 2 -10 2 -28 0 -40z
m512 -62 c1 -12 -4 -16 -14 -12 -8 3 -18 -2 -23 -11 -6 -10 -11 -12 -16 -4 -4
6 3 32 15 58 l22 48 7 -30 c4 -16 8 -38 9 -49z m950 -435 c9 -6 6 -18 -13 -45
-13 -20 -37 -73 -51 -117 -15 -44 -30 -79 -33 -77 -4 2 -34 21 -67 43 l-61 40
79 95 c104 124 109 128 123 95 6 -15 16 -30 23 -34z m-2358 2 c19 -21 59 -66
89 -101 l53 -63 -54 -55 c-29 -29 -56 -51 -60 -46 -3 4 -19 45 -35 92 -16 46
-39 97 -52 112 -22 25 -22 29 -8 44 9 8 16 24 16 35 0 28 12 24 51 -18z"/>
<path d="M1 2468 l0 -233 35 135 36 135 -33 98 c-18 53 -34 97 -36 97 -2 0 -3
-105 -2 -232z"/>
<path d="M4776 2607 c-18 -53 -18 -56 2 -138 l20 -84 1 138 c1 75 0 137 -2
137 -2 0 -11 -24 -21 -53z"/>
<path d="M2144 1409 c-461 -10 -1016 -28 -1098 -35 l-68 -6 6 -40 c8 -50 34
-101 46 -93 15 9 12 -4 -20 -99 -45 -133 -77 -257 -104 -404 -13 -74 -26 -135
-28 -137 -2 -2 -57 -31 -122 -65 -65 -33 -262 -147 -437 -252 l-319 -192 0
-43 0 -43 468 0 468 0 75 51 c94 64 121 90 174 164 77 109 139 248 255 575 34
96 62 176 63 177 1 1 2 -78 2 -175 1 -97 2 -224 4 -282 4 -107 -16 -467 -26
-483 -3 -5 1 -13 8 -18 8 -5 420 -9 917 -9 l902 0 0 33 c0 17 -4 59 -10 92 -8
53 -32 313 -31 340 1 53 22 280 26 283 2 3 7 -1 9 -9 153 -441 231 -573 403
-690 l72 -49 511 0 510 0 0 38 0 38 -157 90 c-87 49 -167 94 -178 100 -22 12
-170 95 -255 143 -82 47 -335 171 -348 171 -6 0 -13 15 -16 33 -3 17 -12 77
-21 132 -26 166 -118 497 -175 630 l-19 45 -578 -2 c-318 -1 -727 -5 -909 -9z"/>
<path d="M3718 1415 c-8 -9 10 -91 27 -124 20 -40 34 -47 50 -25 11 15 35 116
35 147 0 8 -104 9 -112 2z"/>
</g>
</svg>
