<?xml version="1.0" standalone="no"?>
<!DOCTYPE svg PUBLIC "-//W3C//DTD SVG 20010904//EN"
 "http://www.w3.org/TR/2001/REC-SVG-20010904/DTD/svg10.dtd">
<svg version="1.0" xmlns="http://www.w3.org/2000/svg"
 width="480.000000pt" height="360.000000pt" viewBox="0 0 480.000000 360.000000"
 preserveAspectRatio="xMidYMid meet">
<metadata>
Created by potrace 1.16, written by Peter Selinger 2001-2019
</metadata>
<rect width="1" height="360" fill="#000000"/>
<rect x="479" width="1" height="360" fill="#000000"/>
<rect width="480" height="1" fill="#000000"/>
<rect y="359" width="480" height="1" fill="#000000"/>
<g transform="translate(0.000000,360.000000) scale(0.100000,-0.100000)"
fill="#000000" stroke="none">
<path d="M0 2180 l0 -1420 125 0 c125 0 125 0 135 26 14 35 13 287 -1 301 -7
7 0 31 25 81 33 66 39 72 73 77 21 4 54 13 73 20 l35 13 -1 91 -1 91 36 11
c47 15 58 24 65 55 5 18 2 30 -9 38 -15 11 -15 13 -1 25 9 8 16 20 16 27 0 8
7 14 15 14 8 0 15 -6 15 -14 0 -8 6 -16 13 -19 9 -3 10 -9 0 -26 -28 -46 -3
-105 48 -116 34 -8 48 -30 30 -48 -6 -6 -11 -39 -11 -72 0 -57 2 -63 28 -75
15 -8 47 -19 72 -25 43 -10 45 -12 73 -80 21 -53 25 -74 18 -90 -6 -11 -12
-81 -13 -155 l-3 -135 70 0 70 0 1 102 1 103 58 95 c32 53 62 94 68 92 5 -1
34 -45 63 -96 53 -91 54 -94 54 -172 0 -43 1 -79 3 -79 1 -1 153 -9 336 -20
l335 -19 71 -71 c39 -38 74 -70 78 -70 4 0 7 95 7 210 l0 211 50 74 c28 41 52
75 54 75 2 0 27 -36 56 -81 l53 -80 -7 -525 -7 -524 1266 0 1265 0 0 1800 0
1800 -2400 0 -2400 0 0 -1420z m3060 545 c32 -16 43 -40 45 -100 1 -22 9 -56
17 -76 15 -34 18 -36 116 -58 55 -13 103 -28 105 -35 7 -18 -50 -76 -74 -76
-28 0 -23 -17 13 -51 29 -26 30 -29 12 -29 -12 0 -35 -5 -53 -11 -31 -11 -32
-12 -14 -32 18 -19 17 -20 -4 -8 -25 13 -41 -2 -24 -23 8 -10 5 -12 -12 -12
-12 1 -25 6 -29 11 -4 6 -5 -18 -2 -51 5 -41 3 -64 -5 -68 -6 -4 -11 -12 -11
-17 0 -6 14 -1 30 11 35 25 142 70 166 70 25 0 12 -72 -24 -130 -17 -27 -29
-50 -27 -52 2 -2 35 -1 72 2 37 4 104 4 147 2 l80 -5 -29 -22 -28 -23 52 -18
c46 -17 67 -34 41 -34 -5 0 -10 -4 -10 -8 0 -5 25 -14 55 -21 55 -12 66 -31
19 -31 -32 0 -31 -13 3 -31 15 -8 36 -23 47 -33 19 -19 18 -19 -34 -12 -59 8
-59 8 -6 -51 18 -22 18 -23 2 -23 -15 0 -16 -3 -6 -15 11 -13 8 -15 -16 -15
-28 0 -28 0 -7 -15 12 -9 20 -21 17 -29 -3 -8 10 -17 36 -26 47 -16 68 -37 26
-26 -18 4 -25 3 -21 -4 9 -14 -10 -13 -52 5 -45 19 -45 19 -32 -8 6 -14 26
-28 47 -35 36 -11 35 -11 -19 -7 l-56 3 3 -34 2 -34 -28 15 c-44 23 -53 19
-35 -15 23 -44 19 -46 -25 -6 -53 47 -74 48 -68 1 2 -19 0 -35 -4 -35 -5 0
-13 -10 -18 -22 -7 -18 -9 -19 -9 -5 -1 9 -5 17 -11 17 -5 0 -10 9 -10 19 0
14 -16 27 -56 45 -31 14 -57 26 -58 26 0 0 -1 -19 -2 -41 0 -31 -6 -46 -23
-60 -52 -42 -94 -6 -105 91 -6 50 -12 65 -39 90 -58 54 -69 45 -107 -87 -18
-65 -24 -73 -45 -73 -30 0 -55 35 -55 77 0 18 -7 38 -15 45 -9 7 -25 22 -35
32 -22 22 -40 15 -21 -8 7 -8 11 -25 9 -37 -2 -19 -11 -11 -46 44 -24 37 -45
67 -48 67 -2 0 -9 -11 -14 -25 -14 -38 -34 -32 -27 9 5 28 2 35 -19 45 -17 8
-24 19 -24 40 0 29 18 41 65 41 12 0 39 18 60 41 22 22 52 47 68 55 17 9 27
23 27 37 1 12 7 35 14 52 18 42 -1 103 -38 122 -21 11 -26 20 -25 46 2 18 -4
48 -11 68 -12 34 -11 40 14 83 15 25 22 46 16 46 -5 0 -10 20 -10 44 0 77 -34
98 -127 78 -33 -7 -43 -6 -43 3 0 7 -8 16 -17 19 -21 8 -12 18 56 55 52 28 53
30 32 42 -32 20 -25 28 13 17 47 -15 76 9 123 96 52 97 100 124 163 91z"/>
<path d="M2842 1738 c-14 -14 -16 -28 -2 -28 5 0 14 9 20 20 12 22 1 27 -18 8z"/>
<path d="M3535 1510 c7 -12 65 -30 65 -21 0 5 -6 13 -12 18 -16 12 -60 15 -53
3z"/>
</g>
</svg>
