<?xml version="1.0" standalone="no"?>
<!DOCTYPE svg PUBLIC "-//W3C//DTD SVG 20010904//EN"
 "http://www.w3.org/TR/2001/REC-SVG-20010904/DTD/svg10.dtd">
<svg version="1.0" xmlns="http://www.w3.org/2000/svg"
 width="480.000000pt" height="360.000000pt" viewBox="0 0 480.000000 360.000000"
 preserveAspectRatio="xMidYMid meet">
<metadata>
Created by potrace 1.16, written by Peter Selinger 2001-2019
</metadata>
<rect width="1" height="360" fill="#000000"/>
<rect x="479" width="1" height="360" fill="#000000"/>
<rect width="480" height="1" fill="#000000"/>
<rect y="359" width="480" height="1" fill="#000000"/>
<g transform="translate(0.000000,360.000000) scale(0.100000,-0.100000)"
fill="#000000" stroke="none">
<path d="M0 1800 l0 -1800 168 0 168 0 32 118 c35 128 38 153 20 149 -6 -1
-20 16 -31 37 -18 37 -18 42 -3 67 9 15 13 35 9 44 -4 12 4 26 26 46 27 23 34
38 41 89 7 51 6 69 -10 106 -15 34 -16 44 -6 44 9 0 16 19 21 55 5 46 10 56
29 61 18 4 25 20 45 104 l23 99 -20 40 c-20 38 -20 42 -5 88 9 26 21 55 28 63
7 9 10 23 5 35 -7 19 -7 19 -17 0 -6 -11 -18 -45 -28 -75 -37 -114 -103 -222
-145 -235 -29 -9 -57 11 -80 55 -35 69 -20 140 29 140 24 0 68 35 86 69 29 56
127 494 138 614 4 44 3 49 -20 58 -14 5 -46 7 -72 4 -25 -3 -53 -1 -61 4 -12
8 -12 13 4 30 10 11 15 24 12 30 -4 6 4 27 16 48 43 69 78 155 78 187 0 12
-18 43 -39 69 -67 80 -111 227 -111 369 0 209 78 340 275 460 221 135 333 180
485 198 52 6 123 15 156 20 34 6 83 10 110 10 27 0 54 4 60 8 9 5 9 33 3 101
-5 52 -6 97 -3 100 8 8 54 -48 134 -166 45 -65 87 -114 118 -137 27 -20 66
-55 86 -78 48 -55 112 -185 132 -268 15 -62 46 -127 68 -143 6 -4 46 -18 89
-31 63 -20 84 -23 113 -14 31 8 39 7 59 -12 17 -16 32 -21 54 -18 28 4 31 2
31 -22 0 -32 -28 -130 -42 -147 -16 -19 -38 -16 -74 12 -40 31 -40 31 -74 2
-25 -22 -26 -26 -14 -48 7 -13 16 -42 19 -64 4 -22 9 -48 12 -59 3 -12 1 -16
-6 -12 -6 4 -13 -5 -17 -21 -11 -52 -16 -65 -37 -100 -13 -22 -22 -30 -27 -23
-8 13 -19 -20 -20 -60 -1 -23 -2 -24 -14 -7 -13 17 -14 17 -20 0 -7 -17 -8
-17 -17 0 -14 25 -25 21 -39 -14 -8 -18 -16 -26 -20 -19 -4 7 -12 3 -21 -12
-15 -24 -18 -134 -5 -176 5 -13 3 -29 -4 -36 -8 -11 -6 -26 8 -62 11 -27 23
-58 27 -69 5 -13 -6 -7 -33 19 l-40 38 -26 -50 c-14 -28 -26 -56 -26 -62 0
-10 -10 -24 -64 -87 -28 -33 -32 -34 -85 -32 -31 2 -61 0 -67 -3 -6 -4 -20 -1
-30 7 -36 27 -54 19 -54 -25 0 -45 -6 -43 133 -60 49 -6 130 -22 180 -35 51
-13 114 -26 140 -30 42 -7 50 -12 66 -44 23 -45 18 -61 -21 -61 l-29 0 36 -45
c24 -29 56 -94 91 -182 61 -156 77 -189 90 -186 5 1 23 8 41 15 18 6 35 9 39
5 4 -3 -3 -29 -15 -56 -11 -27 -21 -59 -21 -70 0 -30 20 -36 36 -12 14 19 25
21 121 21 79 0 111 4 123 15 14 12 29 12 124 -1 96 -13 109 -13 120 0 10 13
23 12 105 -10 52 -14 98 -27 102 -30 5 -2 17 1 27 7 16 10 37 6 122 -25 60
-21 111 -34 122 -30 13 4 51 -10 110 -41 49 -25 96 -44 103 -41 8 3 54 -22
103 -55 50 -32 96 -59 104 -59 8 0 48 -29 89 -65 41 -35 79 -65 86 -65 6 0 23
-15 38 -33 15 -17 55 -62 88 -98 59 -63 157 -205 157 -228 0 -8 102 -11 350
-11 l350 0 0 1800 0 1800 -2400 0 -2400 0 0 -1800z m2153 1589 c48 -13 40 -25
-26 -40 -46 -10 -58 -9 -87 6 -32 17 -33 18 -15 31 22 17 76 18 128 3z m-2053
-109 c0 -5 -4 -10 -9 -10 -6 0 -13 5 -16 10 -3 6 1 10 9 10 9 0 16 -4 16 -10z
m3277 -1146 c3 -9 2 -24 -4 -33 -14 -22 -103 -70 -120 -64 -7 3 -20 0 -27 -6
-21 -18 -27 2 -11 33 15 28 55 65 84 78 30 13 71 8 78 -8z"/>
<path d="M964 1460 c3 -14 6 -31 6 -38 0 -7 5 -10 10 -7 14 9 12 28 -6 51 -15
18 -15 18 -10 -6z"/>
<path d="M1020 1450 c-13 -23 -10 -24 43 -8 32 10 36 13 21 19 -33 13 -53 10
-64 -11z"/>
<path d="M686 1314 c-9 -24 -8 -25 13 -12 11 7 17 16 15 20 -8 13 -21 9 -28
-8z"/>
<path d="M640 1279 c0 -5 5 -7 10 -4 6 3 10 8 10 11 0 2 -4 4 -10 4 -5 0 -10
-5 -10 -11z"/>
<path d="M560 1239 c0 -5 5 -7 10 -4 6 3 10 8 10 11 0 2 -4 4 -10 4 -5 0 -10
-5 -10 -11z"/>
<path d="M884 516 c-8 -35 6 -98 24 -104 10 -3 11 8 6 50 -9 71 -20 92 -30 54z"/>
<path d="M907 305 c-20 -112 -20 -110 -55 -110 l-32 0 0 -97 0 -98 63 0 62 0
-8 103 c-4 56 -11 134 -15 172 -8 68 -8 69 -15 30z"/>
</g>
</svg>
