<?xml version="1.0" standalone="no"?>
<!DOCTYPE svg PUBLIC "-//W3C//DTD SVG 20010904//EN"
 "http://www.w3.org/TR/2001/REC-SVG-20010904/DTD/svg10.dtd">
<svg version="1.0" xmlns="http://www.w3.org/2000/svg"
 width="480.000000pt" height="360.000000pt" viewBox="0 0 480.000000 360.000000"
 preserveAspectRatio="xMidYMid meet">
<metadata>
Created by potrace 1.16, written by Peter Selinger 2001-2019
</metadata>
<rect width="1" height="360" fill="#000000"/>
<rect x="479" width="1" height="360" fill="#000000"/>
<rect width="480" height="1" fill="#000000"/>
<rect y="359" width="480" height="1" fill="#000000"/>
<g transform="translate(0.000000,360.000000) scale(0.100000,-0.100000)"
fill="#000000" stroke="none">
<path d="M0 1800 l0 -1800 493 0 c480 1 491 1 470 19 -14 12 -47 21 -90 26
-93 9 -150 30 -195 71 -43 39 -77 43 -196 22 -65 -11 -69 -10 -112 15 -25 14
-65 31 -90 37 -105 28 -123 56 -90 140 11 28 20 64 20 79 0 16 6 31 14 34 8 3
22 32 31 64 28 96 93 144 445 328 85 44 172 92 193 106 75 52 199 164 292 266
l95 103 -29 80 c-16 44 -33 104 -36 135 -4 30 -13 60 -21 66 -21 17 -17 37 11
62 21 18 27 36 34 92 5 39 7 71 6 73 -2 2 -12 -1 -23 -7 -38 -20 -101 -12
-185 24 -86 37 -107 41 -124 24 -16 -16 -60 10 -129 80 -59 59 -61 62 -88 166
-30 115 -30 175 -1 346 52 298 243 585 505 761 41 28 79 54 83 58 5 4 -2 27
-14 51 -13 24 -33 68 -45 97 -28 68 -9 53 53 -42 26 -39 48 -73 50 -75 1 -2
42 14 91 37 111 51 270 96 397 113 283 35 603 -50 800 -213 77 -64 98 -92 118
-153 29 -89 32 -130 10 -146 -16 -11 -21 -30 -25 -99 -4 -59 -12 -99 -27 -127
-24 -48 -30 -52 -91 -74 -44 -15 -46 -17 -71 -93 -48 -141 -126 -218 -234
-231 -67 -9 -96 -30 -126 -93 -13 -26 -46 -69 -74 -97 l-50 -50 47 -85 c26
-47 61 -96 77 -110 17 -14 43 -53 58 -85 l28 -60 3 39 c2 26 -5 54 -24 92 -29
58 -24 82 14 70 35 -11 62 -83 62 -162 0 -79 -17 -114 -56 -114 -13 0 -24 -6
-24 -14 0 -7 -15 -33 -34 -56 -32 -41 -43 -46 -167 -87 -73 -24 -144 -43 -157
-43 -14 0 -40 11 -59 26 -18 14 -33 21 -33 15 0 -18 23 -61 33 -61 5 0 7 -13
3 -31 -4 -19 2 -54 14 -92 39 -119 46 -236 26 -450 -18 -182 -18 -197 -2 -287
9 -52 21 -196 26 -320 5 -124 12 -233 15 -242 7 -17 85 -18 1456 -18 l1449 0
0 685 0 685 -30 0 c-16 0 -30 5 -30 10 0 6 14 10 30 10 l30 0 0 1105 0 1105
-2400 0 -2400 0 0 -1800z m2751 1501 c13 -11 21 -22 18 -26 -12 -12 -74 -16
-89 -5 -13 9 -12 13 9 30 29 25 33 25 62 1z m806 -243 c32 -22 44 -48 23 -48
-17 0 -60 31 -71 51 -14 26 6 25 48 -3z m-657 -112 c0 -7 -5 -28 -11 -47 -6
-19 -13 -41 -15 -49 -5 -13 -6 -13 -15 0 -15 24 9 110 31 110 6 0 10 -6 10
-14z m1610 -138 c40 -16 4 -22 -46 -8 -51 15 -61 35 -11 25 17 -4 43 -12 57
-17z m-1560 -36 c-1 -9 -7 -28 -14 -41 -12 -22 -13 -21 -10 15 3 56 3 56 14
49 6 -3 10 -14 10 -23z m-310 -277 c19 -23 9 -25 -25 -4 -26 17 -27 19 -9 19
12 0 27 -7 34 -15z m520 -206 c0 -15 -58 -39 -95 -39 -43 0 -98 30 -71 39 26
9 166 9 166 0z m1008 -575 c29 -8 25 -38 -5 -42 -26 -4 -93 23 -93 37 0 12 61
14 98 5z m-580 -82 c2 -7 -3 -12 -12 -12 -9 0 -16 7 -16 16 0 17 22 14 28 -4z
m847 -71 c-16 -14 -55 -23 -55 -12 0 9 20 17 50 20 8 1 10 -2 5 -8z m-1795
-108 c0 -5 -15 -18 -33 -30 -17 -13 -46 -34 -64 -49 -48 -38 -62 -25 -22 20
40 47 119 85 119 59z m-1810 -142 c0 -6 -5 -13 -11 -16 -15 -10 -61 4 -54 15
8 13 65 13 65 1z m-417 -199 c20 -20 37 -39 37 -43 0 -3 -17 -13 -37 -22 -87
-36 -128 -30 -172 24 -21 27 -22 33 -11 54 15 28 38 34 100 28 34 -4 54 -14
83 -41z m2914 -227 c5 -15 -21 -44 -39 -45 -12 0 -9 35 4 48 16 16 27 15 35
-3z m749 -505 c13 0 24 -4 24 -10 0 -5 -18 -10 -40 -10 -30 0 -40 4 -40 16 0
11 5 14 16 10 9 -3 27 -6 40 -6z m-652 -224 c30 -25 28 -46 -3 -46 -24 0 -55
35 -48 55 8 20 17 19 51 -9z m-174 -56 c0 -9 -9 -25 -21 -36 -21 -19 -21 -18
-40 5 -23 29 -24 49 -2 73 16 18 17 18 40 -4 13 -12 23 -29 23 -38z"/>
<path d="M1949 2046 c-2 -3 -30 -6 -62 -7 -69 -3 -72 -13 -27 -108 22 -45 29
-73 25 -92 -7 -29 11 -136 26 -160 6 -11 24 -6 91 26 46 22 87 42 91 46 4 3 1
24 -7 45 -21 58 -28 94 -16 94 18 0 11 23 -30 92 -32 52 -46 68 -64 68 -12 0
-25 -2 -27 -4z"/>
<path d="M1382 1535 c6 -14 15 -25 20 -25 4 0 8 11 8 25 0 18 -5 25 -20 25
-17 0 -18 -3 -8 -25z"/>
</g>
</svg>
