<?xml version="1.0" standalone="no"?>
<!DOCTYPE svg PUBLIC "-//W3C//DTD SVG 20010904//EN"
 "http://www.w3.org/TR/2001/REC-SVG-20010904/DTD/svg10.dtd">
<svg version="1.0" xmlns="http://www.w3.org/2000/svg"
 width="480.000000pt" height="360.000000pt" viewBox="0 0 480.000000 360.000000"
 preserveAspectRatio="xMidYMid meet">
<metadata>
Created by potrace 1.16, written by Peter Selinger 2001-2019
</metadata>
<rect width="1" height="360" fill="#000000"/>
<rect x="479" width="1" height="360" fill="#000000"/>
<rect width="480" height="1" fill="#000000"/>
<rect y="359" width="480" height="1" fill="#000000"/>
<g transform="translate(0.000000,360.000000) scale(0.100000,-0.100000)"
fill="#000000" stroke="none">
<path d="M915 3517 c-186 -109 -162 -94 -395 -249 -113 -76 -275 -191 -360
-256 l-155 -118 -3 -1447 -2 -1447 1363 0 1364 0 190 129 c162 110 316 218
373 264 8 7 35 28 60 47 241 187 522 457 673 644 259 325 462 703 539 1005 55
217 60 283 67 836 l6 510 27 57 c15 32 38 69 52 83 l25 25 -1842 -1 -1842 -1
-140 -81z m1420 -866 c50 -11 158 -30 240 -41 83 -12 159 -28 170 -35 11 -7
54 -43 95 -80 41 -37 127 -107 190 -155 l115 -87 24 -99 c12 -54 49 -165 81
-246 l59 -147 -49 -98 c-54 -107 -90 -230 -90 -304 0 -58 -18 -80 -85 -104
-72 -26 -203 -93 -242 -123 -18 -15 -35 -39 -38 -53 -15 -66 -68 -84 -273 -95
-120 -7 -208 6 -285 41 -39 18 -70 25 -109 24 -112 -3 -218 28 -284 84 -18 15
-36 27 -41 27 -6 0 -32 -32 -59 -71 -27 -39 -61 -88 -76 -109 -36 -51 -69 -67
-178 -86 -88 -15 -90 -15 -120 6 -16 12 -30 25 -30 30 0 5 -15 10 -32 12 -28
2 -35 9 -44 38 -6 19 -18 36 -25 38 -49 15 -82 39 -99 72 -10 20 -40 54 -67
75 -26 22 -51 44 -55 50 -4 5 -6 65 -4 133 2 104 6 127 23 150 23 31 43 86 43
116 0 35 112 150 171 175 47 21 56 22 120 11 67 -12 70 -11 88 11 10 13 27 38
37 57 17 32 17 34 -5 78 -21 42 -23 55 -17 149 8 148 2 138 155 249 22 16 47
44 56 62 9 20 35 44 68 63 28 18 72 45 98 62 25 16 78 39 117 50 40 11 110 36
155 54 45 19 89 34 97 34 9 1 56 -8 105 -18z"/>
<path d="M1660 2335 c-8 -12 -35 -34 -60 -51 -67 -45 -86 -79 -94 -174 -4 -45
-5 -84 -3 -87 9 -8 135 190 157 246 24 62 24 99 0 66z"/>
<path d="M1517 1824 c-12 -24 -13 -33 -5 -28 30 17 46 37 41 50 -8 22 -18 17
-36 -22z"/>
<path d="M1866 1234 c-16 -20 -29 -43 -30 -52 -1 -18 150 -98 202 -106 l33 -6
-18 31 c-20 34 -141 169 -151 169 -4 0 -20 -16 -36 -36z"/>
<path d="M2266 1062 c-38 -17 81 -44 213 -50 136 -5 152 5 53 34 -62 18 -236
29 -266 16z"/>
</g>
</svg>
