<?xml version="1.0" standalone="no"?>
<!DOCTYPE svg PUBLIC "-//W3C//DTD SVG 20010904//EN"
 "http://www.w3.org/TR/2001/REC-SVG-20010904/DTD/svg10.dtd">
<svg version="1.0" xmlns="http://www.w3.org/2000/svg"
 width="480.000000pt" height="360.000000pt" viewBox="0 0 480.000000 360.000000"
 preserveAspectRatio="xMidYMid meet">
<metadata>
Created by potrace 1.16, written by Peter Selinger 2001-2019
</metadata>
<rect width="1" height="360" fill="#000000"/>
<rect x="479" width="1" height="360" fill="#000000"/>
<rect width="480" height="1" fill="#000000"/>
<rect y="359" width="480" height="1" fill="#000000"/>
<g transform="translate(0.000000,360.000000) scale(0.100000,-0.100000)"
fill="#000000" stroke="none">
<path d="M0 2175 l0 -1426 113 3 112 3 9 133 c7 101 6 139 -4 156 -10 20 -8
31 19 83 30 61 44 73 85 73 13 0 38 7 56 16 l32 17 -4 80 -5 80 43 19 c47 20
70 62 43 79 -12 7 -11 13 3 36 22 37 31 38 45 7 9 -20 9 -30 0 -44 -18 -29 2
-72 43 -92 l35 -18 -3 -77 -3 -78 31 -17 c17 -10 42 -18 54 -18 33 0 51 -19
76 -84 19 -47 21 -62 12 -77 -8 -12 -12 -66 -12 -144 l0 -125 33 0 33 0 1 90
c1 86 2 93 41 158 22 37 49 78 60 91 l19 24 51 -90 c49 -86 52 -94 52 -162 0
-46 4 -71 11 -71 7 0 156 -7 333 -16 l321 -15 67 -67 c37 -36 71 -62 75 -58 4
4 8 92 8 196 l0 187 45 67 c25 36 48 66 52 66 5 0 29 -32 54 -72 l46 -72 -7
-508 -8 -508 1367 0 1366 0 0 1800 0 1800 -2400 0 -2400 0 0 -1425z m3151 609
c18 -20 24 -37 25 -77 0 -29 8 -68 16 -88 15 -35 18 -36 108 -55 50 -10 99
-24 108 -31 15 -12 14 -16 -16 -43 -18 -16 -41 -30 -52 -30 -18 0 -19 -2 -8
-22 7 -13 22 -29 32 -37 18 -14 17 -15 -20 -26 -29 -8 -38 -16 -36 -29 3 -14
-1 -17 -16 -14 -23 6 -24 -11 -2 -38 12 -14 12 -16 1 -9 -8 4 -27 9 -42 11
l-29 4 5 -57 c3 -34 0 -61 -6 -70 -17 -20 -6 -16 56 21 63 38 142 69 149 57 8
-12 -14 -94 -35 -129 -25 -43 -24 -44 9 -41 15 2 32 0 39 -4 6 -4 22 -3 36 2
14 5 58 8 98 6 41 -1 82 2 92 7 11 5 17 5 17 -1 0 -6 -14 -18 -30 -26 -38 -20
-31 -32 25 -46 36 -9 44 -15 42 -32 -2 -18 6 -23 53 -33 51 -10 53 -18 6 -26
-29 -4 -24 -22 10 -33 26 -9 53 -31 54 -45 0 -4 -15 -4 -34 -2 -44 5 -54 -13
-25 -44 13 -14 17 -24 10 -24 -8 0 -11 -6 -7 -15 4 -10 -1 -15 -17 -16 -22 0
-22 0 2 -10 20 -8 21 -12 10 -25 -10 -13 -10 -17 2 -25 8 -5 21 -9 29 -9 8 0
26 -7 40 -15 24 -14 24 -14 3 -15 -12 0 -24 -4 -28 -9 -3 -6 -19 -4 -40 5 -43
18 -49 18 -41 -1 3 -8 0 -15 -7 -15 -25 0 19 -20 45 -20 15 0 30 -5 34 -11 5
-9 -6 -10 -39 -5 -39 6 -47 4 -56 -12 -7 -13 -7 -23 2 -32 10 -10 7 -11 -13
-6 -14 4 -36 10 -49 13 -23 6 -23 6 -6 -21 26 -40 9 -44 -28 -8 -18 18 -43 32
-56 32 -21 0 -23 -4 -18 -30 4 -16 2 -32 -3 -35 -6 -3 -10 -15 -10 -26 0 -32
-16 -21 -26 18 -8 35 -14 40 -73 61 -35 12 -66 20 -70 17 -3 -3 -4 -24 -2 -45
2 -31 -3 -45 -23 -65 -44 -44 -87 -25 -100 45 -23 122 -26 127 -67 145 -24 11
-43 15 -48 9 -5 -5 -21 -48 -35 -97 -21 -69 -30 -87 -46 -87 -27 0 -60 47 -60
86 0 29 -5 36 -32 47 -23 10 -35 11 -40 3 -4 -7 -18 0 -38 19 -16 16 -30 25
-30 20 0 -5 -7 1 -16 13 -19 27 -34 28 -34 3 0 -24 -11 -32 -29 -22 -8 5 -11
17 -7 29 5 14 -1 28 -19 46 -14 14 -25 32 -25 40 0 20 31 36 69 36 24 0 34 7
46 30 18 35 47 64 96 95 25 16 39 35 47 64 16 53 2 112 -30 126 -17 7 -25 22
-30 55 -4 25 -10 59 -13 76 -5 21 -1 42 10 64 20 39 14 126 -13 177 -16 32
-35 37 -82 20 -8 -3 -27 -8 -42 -11 -24 -5 -28 -3 -28 15 0 16 -4 20 -17 15
-16 -6 -16 -5 -3 8 8 8 37 23 65 34 27 11 50 23 52 28 2 5 -11 17 -28 27 -39
22 -31 34 11 17 49 -20 99 8 128 70 35 75 74 110 126 110 33 0 48 -6 67 -26z"/>
<path d="M2898 1806 c-10 -7 -18 -16 -18 -20 0 -13 28 -5 45 14 21 24 1 28
-27 6z"/>
<path d="M2910 1660 c0 -19 3 -21 12 -12 9 9 9 15 0 24 -9 9 -12 7 -12 -12z"/>
<path d="M3640 1601 c0 -5 11 -11 25 -13 28 -6 34 6 9 16 -22 8 -34 7 -34 -3z"/>
</g>
</svg>
