<?xml version="1.0" standalone="no"?>
<!DOCTYPE svg PUBLIC "-//W3C//DTD SVG 20010904//EN"
 "http://www.w3.org/TR/2001/REC-SVG-20010904/DTD/svg10.dtd">
<svg version="1.0" xmlns="http://www.w3.org/2000/svg"
 width="480.000000pt" height="360.000000pt" viewBox="0 0 480.000000 360.000000"
 preserveAspectRatio="xMidYMid meet">
<metadata>
Created by potrace 1.16, written by Peter Selinger 2001-2019
</metadata>
<rect width="1" height="360" fill="#000000"/>
<rect x="479" width="1" height="360" fill="#000000"/>
<rect width="480" height="1" fill="#000000"/>
<rect y="359" width="480" height="1" fill="#000000"/>
<g transform="translate(0.000000,360.000000) scale(0.100000,-0.100000)"
fill="#000000" stroke="none">
<path d="M0 1800 l0 -1800 920 0 c729 0 920 3 921 13 2 64 14 109 59 217 28
69 57 137 63 152 8 20 8 82 -1 235 -11 183 -14 210 -31 223 -44 35 -61 99 -46
172 6 30 3 42 -14 64 -26 33 -25 43 31 204 22 63 42 122 45 131 2 9 -8 31 -25
51 -32 36 -102 174 -102 201 0 9 -12 18 -32 22 -71 15 -118 62 -118 119 0 34
54 111 101 146 24 17 90 53 147 81 88 44 109 58 139 100 43 60 103 93 209 115
61 13 81 13 105 4 l29 -12 0 -1119 0 -1119 280 0 280 0 -4 53 c-2 29 -21 95
-42 147 l-37 95 8 255 c8 238 14 418 15 430 0 3 10 -10 21 -27 25 -39 34 -41
50 -12 11 22 10 39 -10 184 -10 70 -87 273 -116 305 -13 14 -10 24 19 80 18
36 38 86 45 113 l14 47 46 0 c68 0 132 35 150 82 19 52 8 81 -51 144 -55 58
-134 111 -208 140 -25 9 -56 28 -70 41 -45 43 -164 126 -192 134 -16 4 -43 6
-61 3 -17 -2 -54 2 -82 9 l-50 13 -3 682 -2 682 -1200 0 -1200 0 0 -1800z
m2945 104 c55 -36 115 -96 115 -115 0 -13 -44 -29 -81 -29 -30 0 -33 3 -43 53
-4 15 -17 37 -29 50 -12 12 -27 37 -34 55 -14 40 -7 39 72 -14z m-118 -1486
c-3 -8 -6 -5 -6 6 -1 11 2 17 5 13 3 -3 4 -12 1 -19z"/>
<path d="M1848 1908 c-80 -52 -115 -92 -99 -112 7 -8 33 -17 58 -21 55 -8 73
7 73 61 0 17 9 43 21 58 11 14 19 33 17 42 -2 12 -17 6 -70 -28z"/>
<path d="M1992 640 c0 -14 2 -19 5 -12 2 6 2 18 0 25 -3 6 -5 1 -5 -13z"/>
<path d="M2001 520 c0 -50 1 -53 14 -36 8 10 12 23 9 28 -4 5 -10 22 -14 36
-7 22 -8 16 -9 -28z"/>
</g>
</svg>
