<?xml version="1.0" standalone="no"?>
<!DOCTYPE svg PUBLIC "-//W3C//DTD SVG 20010904//EN"
 "http://www.w3.org/TR/2001/REC-SVG-20010904/DTD/svg10.dtd">
<svg version="1.0" xmlns="http://www.w3.org/2000/svg"
 width="480.000000pt" height="360.000000pt" viewBox="0 0 480.000000 360.000000"
 preserveAspectRatio="xMidYMid meet">
<metadata>
Created by potrace 1.16, written by Peter Selinger 2001-2019
</metadata>
<rect width="1" height="360" fill="#000000"/>
<rect x="479" width="1" height="360" fill="#000000"/>
<rect width="480" height="1" fill="#000000"/>
<rect y="359" width="480" height="1" fill="#000000"/>
<g transform="translate(0.000000,360.000000) scale(0.100000,-0.100000)"
fill="#000000" stroke="none">
<path d="M3513 3422 c40 -44 -1 -114 -55 -96 -20 6 -21 5 -10 -8 10 -13 -1
-24 -75 -74 -109 -74 -141 -88 -160 -73 -9 8 -17 9 -24 2 -7 -7 -1 -28 18 -67
26 -55 27 -57 10 -85 -20 -34 -25 -97 -10 -126 6 -11 13 -45 17 -77 8 -74 14
-88 40 -89 19 0 19 -1 -4 -11 -14 -5 -54 -7 -91 -4 -56 5 -69 3 -83 -13 -14
-15 -38 -19 -144 -25 -70 -4 -135 -9 -145 -12 -11 -4 -29 7 -49 28 -18 18 -51
42 -73 53 l-40 20 -72 -20 c-64 -18 -74 -24 -96 -61 -25 -42 -21 -69 9 -57 8
3 17 -2 20 -11 4 -11 19 -16 49 -16 41 0 47 -4 97 -61 111 -129 111 -129 165
-129 28 0 76 9 107 20 l57 19 -6 -27 c-4 -20 0 -34 14 -49 20 -21 12 -43 -15
-43 -7 0 0 -14 16 -32 24 -26 31 -29 44 -19 8 7 18 22 21 32 5 14 14 19 28 17
19 -3 24 -13 34 -81 6 -43 17 -93 23 -112 10 -30 8 -38 -14 -72 -14 -21 -39
-74 -57 -118 -29 -74 -96 -215 -155 -327 -14 -26 -28 -71 -30 -100 -7 -72 20
-109 117 -163 84 -46 91 -61 65 -140 -19 -55 -20 -142 -4 -247 9 -59 9 -87 0
-115 -10 -31 -9 -40 5 -55 16 -18 14 -47 -5 -99 -8 -20 -21 -28 -66 -38 -68
-15 -89 -41 -88 -106 0 -39 27 -105 42 -105 15 0 90 -74 83 -81 -5 -5 -35 -2
-68 5 -127 29 -157 30 -197 3 -20 -14 -47 -28 -59 -32 -55 -17 -85 -45 -108
-100 -23 -54 -23 -56 -5 -70 26 -20 104 -20 104 0 0 29 32 81 63 100 92 58 85
56 147 46 32 -5 80 -21 107 -35 26 -14 53 -26 60 -26 18 0 33 -33 33 -71 0
-18 8 -41 17 -52 17 -18 17 -20 -8 -40 -26 -23 -54 -75 -44 -85 10 -10 310
-11 342 -1 21 7 50 7 85 0 29 -5 58 -6 63 -1 6 4 26 13 45 19 55 18 76 37 60
56 -15 18 -6 47 13 39 15 -5 27 22 27 64 0 31 -43 86 -87 112 -30 17 -34 25
-30 48 3 15 10 55 17 89 8 43 9 72 2 91 -7 21 -6 37 4 62 16 38 12 73 -18 172
-17 58 -19 72 -8 98 7 16 9 41 6 56 -4 15 0 47 9 75 18 52 17 73 -5 236 l-12
93 27 46 c25 43 27 53 21 114 -3 37 -13 87 -22 111 -16 46 -34 139 -59 303 -9
57 -23 114 -35 133 -25 43 -25 61 1 89 21 22 21 24 5 64 -15 38 -15 46 0 103
18 71 36 103 62 111 27 9 42 49 42 110 0 47 -4 57 -32 85 -17 17 -35 31 -40
31 -4 0 -8 6 -8 14 0 20 30 26 175 32 121 5 194 19 179 33 -3 3 -10 7 -15 7
-5 1 -13 2 -19 3 -5 0 -10 8 -10 17 0 13 -7 15 -32 11 -18 -4 -70 -9 -115 -13
l-81 -6 24 49 c28 55 34 146 14 197 -10 26 -8 33 18 60 32 35 32 55 -2 76 -22
14 -136 172 -136 189 0 4 9 16 20 26 35 32 25 87 -21 110 -38 20 -46 19 -26
-3z m277 -721 c0 -11 -60 -21 -129 -21 -69 0 -58 13 17 21 90 10 112 10 112 0z
m-1294 -48 c-11 -11 -17 4 -9 23 7 18 8 18 11 1 2 -10 1 -21 -2 -24z m443 -7
c-9 -8 -99 -13 -99 -5 0 5 23 9 52 9 28 0 49 -2 47 -4z m5 -24 c3 -5 -20 -20
-50 -35 -43 -21 -59 -25 -74 -17 -31 16 -24 38 13 44 104 17 105 17 111 8z
m446 -1328 c0 -1 13 -46 29 -101 31 -103 40 -213 27 -318 -4 -27 -10 -94 -14
-147 -4 -53 -10 -99 -12 -102 -9 -8 -195 35 -211 50 -27 24 -43 97 -30 135 8
23 8 43 0 71 -5 21 -8 47 -5 56 3 9 8 53 11 97 3 44 8 87 10 95 2 8 6 33 9 55
10 94 15 99 86 107 26 3 100 4 100 2z"/>
<path d="M1670 3369 c0 -21 -1 -22 -20 -4 -21 19 -28 7 -8 -13 9 -9 9 -15 1
-23 -9 -9 -8 -15 3 -27 13 -12 13 -17 1 -31 -7 -9 -35 -42 -62 -74 -35 -43
-54 -57 -67 -53 -16 4 -17 2 -7 -10 10 -12 7 -14 -21 -12 -18 2 -35 -2 -37 -8
-2 -5 14 -30 36 -54 36 -41 39 -48 34 -86 -3 -28 0 -51 12 -73 13 -26 14 -35
4 -47 -10 -12 -9 -13 7 -8 16 6 17 5 7 -7 -7 -7 -13 -24 -13 -37 0 -18 4 -22
19 -17 12 4 21 0 25 -12 3 -10 9 -24 12 -30 4 -8 -8 -15 -34 -19 -58 -9 -65
-16 -52 -49 13 -35 -11 -68 -44 -59 -30 7 -75 -18 -93 -52 -14 -27 -13 -30 13
-51 27 -21 27 -22 11 -47 -24 -36 -88 -66 -140 -66 -27 0 -49 -6 -57 -15 -25
-30 18 -94 99 -146 69 -44 111 -35 111 23 0 24 4 28 27 28 22 0 44 16 95 71
65 69 67 70 86 51 10 -10 25 -21 34 -24 8 -4 27 -30 42 -59 l28 -52 -21 -26
c-12 -14 -46 -75 -76 -136 -30 -60 -77 -150 -105 -200 -46 -81 -85 -189 -91
-255 -5 -50 10 -67 92 -107 l80 -38 -8 -35 c-4 -19 -8 -82 -9 -140 -1 -58 -5
-122 -9 -143 -4 -23 -3 -42 4 -50 20 -24 -6 -86 -43 -104 -38 -17 -66 -59 -66
-96 0 -42 77 -97 180 -128 52 -16 59 -39 16 -50 -16 -5 -41 -19 -55 -33 -14
-14 -52 -37 -83 -51 -32 -15 -58 -30 -58 -35 0 -15 42 -123 56 -145 12 -18 8
-25 -36 -72 -47 -50 -49 -51 -104 -51 -62 1 -89 -14 -84 -46 4 -30 83 -68 123
-60 42 9 52 19 59 62 7 42 59 88 135 118 42 17 45 16 107 -6 65 -23 114 -21
114 3 0 8 21 20 48 28 34 10 51 22 60 41 7 16 21 32 31 38 11 5 24 23 29 40 8
22 23 36 57 50 58 25 62 67 8 84 -25 8 -30 35 -10 55 7 7 13 43 14 89 1 42 5
116 8 163 5 64 3 102 -9 148 -9 35 -16 73 -16 85 0 12 -5 27 -11 33 -6 6 -18
41 -28 79 -10 38 -22 76 -25 85 -5 12 2 20 25 29 17 7 45 32 61 54 26 37 29
46 23 91 -4 27 -13 73 -22 100 -9 31 -17 123 -22 245 -6 155 -11 202 -25 228
-17 32 -16 35 3 72 l20 39 -25 56 c-14 30 -26 70 -26 87 0 57 20 137 42 168
24 34 21 60 -7 60 -31 1 -147 66 -134 75 26 16 49 86 40 119 -5 17 -9 48 -9
69 0 22 -7 54 -16 73 -15 32 -15 35 5 67 12 19 21 37 21 40 0 10 -57 37 -79
37 -11 0 -26 6 -33 13 -7 6 -35 30 -62 51 -42 34 -46 41 -33 51 14 10 14 13
-4 29 -12 9 -18 24 -15 32 4 12 2 12 -14 4 -16 -8 -20 -8 -20 4 0 8 -4 18 -10
21 -6 3 -10 -4 -10 -16z m204 -1988 c31 -54 56 -110 56 -123 0 -13 7 -33 15
-45 13 -18 13 -31 4 -75 -6 -29 -15 -57 -20 -62 -10 -11 -177 -8 -200 4 -25
14 -41 67 -28 92 6 11 8 31 4 45 -7 30 23 232 38 251 5 6 24 12 42 12 31 0 36
-5 89 -99z"/>
<path d="M0 2710 c0 -121 2 -220 5 -220 2 0 16 12 30 27 21 24 25 37 25 88 0
58 -5 81 -31 172 -12 39 -11 43 15 78 27 35 27 37 10 56 -9 10 -25 19 -36 19
-17 0 -18 -13 -18 -220z"/>
<path d="M0 1658 c0 -740 1 -787 17 -792 10 -3 31 -16 47 -29 l29 -23 -47 -30
-46 -29 2 -347 c2 -192 6 -348 10 -348 4 0 10 5 13 10 3 6 15 10 26 10 28 0
138 97 154 137 8 18 19 33 24 33 6 0 41 30 78 66 38 36 91 81 120 100 54 35
93 77 93 101 0 27 -40 93 -71 115 -27 20 -29 26 -24 59 8 45 -13 81 -56 99
-18 8 -32 22 -36 39 -3 14 -19 45 -35 68 -15 23 -28 53 -28 67 0 27 -23 56
-45 56 -7 0 -23 16 -35 35 -12 19 -48 58 -80 87 l-59 53 57 2 c100 5 298 86
364 150 43 42 43 53 -3 170 -66 167 -186 378 -234 409 -15 10 -24 23 -21 31 8
20 -160 410 -203 473 -7 10 -11 -231 -11 -772z"/>
</g>
</svg>
