<?xml version="1.0" standalone="no"?>
<!DOCTYPE svg PUBLIC "-//W3C//DTD SVG 20010904//EN"
 "http://www.w3.org/TR/2001/REC-SVG-20010904/DTD/svg10.dtd">
<svg version="1.0" xmlns="http://www.w3.org/2000/svg"
 width="480.000000pt" height="360.000000pt" viewBox="0 0 480.000000 360.000000"
 preserveAspectRatio="xMidYMid meet">
<metadata>
Created by potrace 1.16, written by Peter Selinger 2001-2019
</metadata>
<rect width="1" height="360" fill="#000000"/>
<rect x="479" width="1" height="360" fill="#000000"/>
<rect width="480" height="1" fill="#000000"/>
<rect y="359" width="480" height="1" fill="#000000"/>
<g transform="translate(0.000000,360.000000) scale(0.100000,-0.100000)"
fill="#000000" stroke="none">
<path d="M0 1800 l0 -1800 924 0 924 0 32 94 31 94 -16 128 c-8 71 -18 145
-21 166 l-5 36 -50 -20 c-47 -20 -50 -20 -68 -4 -24 21 -45 107 -37 142 6 23
10 25 39 19 18 -4 42 -14 55 -22 43 -27 50 -14 45 94 -2 54 -11 131 -19 172
-8 40 -14 95 -14 122 0 27 -2 49 -4 49 -2 0 -17 -7 -32 -15 -60 -31 -145 -12
-201 45 -24 25 -39 60 -72 178 -30 102 -58 176 -93 241 -38 69 -51 104 -51
135 1 56 9 93 27 121 15 23 14 24 -34 54 -58 36 -68 53 -78 128 -7 56 -7 57
-66 91 -32 19 -61 43 -63 53 -3 10 -8 17 -12 15 -4 -3 -5 19 -4 47 6 93 2 138
-14 180 -15 37 -15 41 2 53 10 7 23 35 31 63 10 41 10 56 -3 97 -8 27 -20 65
-25 84 -6 19 -21 52 -35 72 -43 63 -73 188 -85 350 -7 107 -7 156 1 179 6 18
11 58 11 90 0 32 5 70 10 84 10 27 11 27 36 10 15 -10 35 -14 49 -11 33 8 152
127 160 159 l7 27 -641 0 -641 0 0 -1800z"/>
<path d="M1950 3568 c0 -18 5 -67 11 -108 5 -41 16 -134 24 -207 8 -73 20
-141 26 -151 16 -25 58 -40 91 -31 20 5 35 1 62 -19 20 -14 36 -31 36 -37 0
-7 17 -24 38 -37 34 -23 45 -25 110 -20 45 3 82 0 101 -8 27 -11 34 -9 83 22
l53 35 2 77 c3 87 8 103 29 85 20 -16 31 -2 16 21 -21 34 -10 127 16 137 8 4
26 -7 44 -26 16 -17 31 -31 33 -31 3 0 21 25 41 56 40 64 45 102 23 210 l-13
64 -413 0 -413 0 0 -32z"/>
<path d="M2950 3559 c-16 -57 -8 -72 27 -57 36 16 43 26 43 66 0 29 -3 32 -30
32 -26 0 -30 -5 -40 -41z"/>
<path d="M3700 3594 c0 -4 14 -29 31 -57 66 -107 74 -200 34 -392 -14 -66 -25
-141 -25 -167 0 -52 -9 -64 -35 -44 -14 10 -25 10 -50 2 -37 -13 -65 -34 -65
-48 0 -6 -13 -26 -30 -45 -35 -40 -36 -47 -11 -106 13 -30 28 -48 49 -56 37
-15 48 -10 57 27 8 37 40 77 54 68 16 -10 14 -76 -4 -110 -18 -34 -19 -75 -3
-127 9 -32 8 -52 -7 -114 -10 -43 -15 -91 -12 -112 8 -50 -13 -97 -52 -112
-34 -15 -37 -22 -19 -51 18 -29 2 -50 -65 -82 -39 -19 -57 -34 -57 -46 0 -63
-50 -139 -116 -178 -17 -10 -17 -12 4 -39 33 -42 30 -126 -7 -214 -38 -90 -56
-152 -91 -327 -31 -150 -44 -187 -77 -216 -30 -28 -89 -48 -138 -48 -48 0 -51
-3 -46 -64 2 -18 -1 -26 -8 -21 -6 3 -11 19 -11 35 0 35 -17 83 -27 77 -5 -3
-4 -54 1 -114 5 -63 5 -142 0 -188 -8 -75 -9 -77 -12 -30 -5 83 -19 72 -28
-22 -4 -48 -8 -92 -9 -98 0 -11 10 -11 78 6 42 10 51 9 68 -7 21 -19 21 -23
-7 -121 -17 -62 -33 -67 -94 -28 -51 32 -68 32 -76 -2 -4 -16 -15 -61 -25
-102 -26 -101 -24 -144 10 -237 l29 -79 946 -3 946 -2 0 1800 0 1800 -550 0
c-302 0 -550 -3 -550 -6z"/>
<path d="M3048 2063 c-14 -4 -12 -11 14 -54 28 -44 32 -47 44 -31 7 9 14 31
14 48 0 40 -21 51 -72 37z"/>
<path d="M2952 2023 c-31 -20 -42 -34 -44 -57 -5 -50 11 -319 19 -327 5 -4 18
-3 30 1 17 7 22 19 27 67 3 32 12 87 20 123 14 64 12 220 -3 220 -4 0 -26 -12
-49 -27z"/>
<path d="M1818 1971 c-49 -10 -66 -25 -78 -73 -10 -33 -8 -46 9 -82 12 -23 25
-66 31 -96 13 -67 18 -73 57 -60 28 10 31 15 37 72 11 108 7 248 -6 247 -7 -1
-30 -5 -50 -8z"/>
<path d="M1932 503 c-18 -32 -16 -51 4 -31 9 8 14 24 12 34 -4 18 -5 17 -16
-3z"/>
</g>
</svg>
