<?xml version="1.0" standalone="no"?>
<!DOCTYPE svg PUBLIC "-//W3C//DTD SVG 20010904//EN"
 "http://www.w3.org/TR/2001/REC-SVG-20010904/DTD/svg10.dtd">
<svg version="1.0" xmlns="http://www.w3.org/2000/svg"
 width="480.000000pt" height="360.000000pt" viewBox="0 0 480.000000 360.000000"
 preserveAspectRatio="xMidYMid meet">
<metadata>
Created by potrace 1.16, written by Peter Selinger 2001-2019
</metadata>
<rect width="1" height="360" fill="#000000"/>
<rect x="479" width="1" height="360" fill="#000000"/>
<rect width="480" height="1" fill="#000000"/>
<rect y="359" width="480" height="1" fill="#000000"/>
<g transform="translate(0.000000,360.000000) scale(0.100000,-0.100000)"
fill="#000000" stroke="none">
<path d="M2765 2797 c-121 -41 -210 -118 -245 -213 l-21 -60 -82 -17 c-45 -9
-115 -25 -156 -36 -41 -12 -102 -21 -136 -21 -33 0 -86 -7 -118 -15 -233 -61
-637 -392 -820 -672 -91 -139 -126 -225 -148 -361 -13 -83 -6 -142 24 -209 12
-27 60 -38 113 -28 28 5 158 61 215 92 4 2 18 -27 32 -65 14 -38 34 -83 45
-101 19 -31 20 -31 26 -9 3 13 6 43 6 68 l0 45 26 -30 c14 -16 41 -64 61 -105
71 -150 73 -154 88 -130 7 11 45 -30 45 -47 -1 -4 -19 -20 -41 -36 -22 -15
-42 -34 -46 -43 -11 -29 35 -108 77 -132 32 -18 40 -29 45 -60 3 -20 10 -54
16 -75 12 -44 -12 -142 -61 -258 -16 -38 -26 -69 -23 -69 3 0 41 37 84 82 l78
83 35 -77 c32 -71 35 -82 27 -125 -5 -27 -8 -49 -7 -50 1 -2 13 8 25 21 l23
24 20 -20 c19 -19 29 -20 97 -14 42 3 86 9 99 12 21 6 22 5 12 -20 -5 -15 -10
-50 -10 -77 l0 -49 835 0 c459 0 835 4 835 8 0 5 -14 48 -30 98 -36 103 -36
139 -2 138 26 -1 27 7 7 46 -14 28 -14 30 3 30 10 0 42 -20 71 -45 54 -46 71
-52 53 -18 -6 10 -27 65 -47 123 -51 144 -58 287 -25 500 31 200 31 441 0 590
-11 58 -21 115 -21 128 1 15 -3 21 -11 16 -8 -5 -9 5 -6 34 4 27 2 45 -7 52
-7 5 -15 31 -19 56 -8 64 -62 183 -139 309 -7 10 -45 69 -86 130 -170 251
-279 383 -374 452 -29 20 -72 54 -97 75 -68 56 -131 80 -224 84 -51 3 -96 -1
-121 -9z m-1001 -1829 c7 -12 6 -25 -3 -44 -10 -22 -14 -25 -22 -13 -5 7 -9
29 -9 47 0 35 15 39 34 10z"/>
</g>
</svg>
