<?xml version="1.0" standalone="no"?>
<!DOCTYPE svg PUBLIC "-//W3C//DTD SVG 20010904//EN"
 "http://www.w3.org/TR/2001/REC-SVG-20010904/DTD/svg10.dtd">
<svg version="1.0" xmlns="http://www.w3.org/2000/svg"
 width="480.000000pt" height="360.000000pt" viewBox="0 0 480.000000 360.000000"
 preserveAspectRatio="xMidYMid meet">
<metadata>
Created by potrace 1.16, written by Peter Selinger 2001-2019
</metadata>
<rect width="1" height="360" fill="#000000"/>
<rect x="479" width="1" height="360" fill="#000000"/>
<rect width="480" height="1" fill="#000000"/>
<rect y="359" width="480" height="1" fill="#000000"/>
<g transform="translate(0.000000,360.000000) scale(0.100000,-0.100000)"
fill="#000000" stroke="none">
<path d="M0 2802 l0 -797 328 -5 c180 -2 390 -3 467 -2 77 1 389 2 694 2 364
0 559 4 567 11 9 8 2 48 -32 182 -48 185 -77 289 -98 352 -24 72 -45 149 -61
225 -9 41 -31 147 -49 236 -19 89 -61 241 -94 340 -34 98 -64 196 -67 217 l-7
37 -824 0 -824 0 0 -798z"/>
<path d="M1780 3593 c0 -14 47 -193 95 -363 26 -91 55 -194 65 -230 15 -57 61
-222 186 -669 19 -69 39 -130 44 -136 5 -6 23 -10 39 -7 29 4 30 6 36 71 6 72
22 114 46 119 8 1 35 -11 59 -27 25 -17 51 -31 57 -31 7 0 25 14 40 30 37 41
64 39 103 -10 37 -47 62 -49 70 -5 4 23 15 35 48 52 45 23 76 19 128 -14 18
-11 27 -10 70 11 115 55 264 90 367 84 64 -3 81 -8 143 -45 129 -77 204 -152
204 -205 0 -16 -9 -47 -20 -71 -21 -45 -41 -133 -32 -142 8 -7 794 -6 1055 2
l217 6 0 794 0 793 -1510 0 c-830 0 -1510 -3 -1510 -7z"/>
<path d="M150 1893 c-25 -2 -69 -5 -97 -9 l-53 -5 0 -940 0 -939 1306 0 1306
0 -7 32 c-12 57 -40 103 -61 99 -50 -10 -85 -3 -109 19 -29 28 -78 178 -70
213 9 34 -7 41 -120 60 -210 36 -295 109 -423 365 -44 88 -89 189 -102 226
-27 83 -30 184 -7 251 51 148 232 285 400 302 34 3 65 10 68 15 5 8 -42 259
-56 296 -7 19 -386 15 -695 -8 -317 -24 -417 -24 -700 -4 -118 8 -267 17 -330
20 -63 2 -135 5 -160 7 -25 1 -65 1 -90 0z"/>
<path d="M3230 1880 c-208 -5 -215 -6 -213 -25 3 -26 -111 -139 -182 -181 -28
-16 -12 -60 34 -88 89 -56 103 -122 40 -180 -27 -24 -38 -27 -71 -23 -39 5
-40 5 -33 -21 11 -44 36 -91 59 -110 48 -39 129 -139 155 -191 76 -149 79
-283 11 -424 l-21 -42 22 -17 c12 -10 27 -18 35 -18 17 0 37 -37 28 -53 -4 -6
-21 -29 -37 -49 -29 -36 -29 -39 -16 -72 8 -18 48 -113 89 -210 l75 -176 798
0 797 0 0 939 0 938 -117 6 c-144 7 -1156 5 -1453 -3z"/>
<path d="M2710 407 c-38 -8 -56 -17 -58 -29 -2 -9 13 -67 32 -127 20 -61 41
-142 48 -181 l12 -70 178 0 177 0 -16 38 c-74 181 -128 300 -141 314 -11 13
-24 16 -51 12 -31 -5 -40 -1 -65 25 -32 34 -36 34 -116 18z"/>
</g>
</svg>
