<?xml version="1.0" standalone="no"?>
<!DOCTYPE svg PUBLIC "-//W3C//DTD SVG 20010904//EN"
 "http://www.w3.org/TR/2001/REC-SVG-20010904/DTD/svg10.dtd">
<svg version="1.0" xmlns="http://www.w3.org/2000/svg"
 width="480.000000pt" height="360.000000pt" viewBox="0 0 480.000000 360.000000"
 preserveAspectRatio="xMidYMid meet">
<metadata>
Created by potrace 1.16, written by Peter Selinger 2001-2019
</metadata>
<rect width="1" height="360" fill="#000000"/>
<rect x="479" width="1" height="360" fill="#000000"/>
<rect width="480" height="1" fill="#000000"/>
<rect y="359" width="480" height="1" fill="#000000"/>
<g transform="translate(0.000000,360.000000) scale(0.100000,-0.100000)"
fill="#000000" stroke="none">
<path d="M347 3583 c-11 -41 -6 -241 7 -321 9 -48 20 -148 26 -222 6 -74 13
-162 16 -196 6 -56 4 -61 -19 -77 -21 -13 -37 -36 -96 -137 -5 -8 -14 -32 -20
-52 -10 -32 -9 -42 8 -76 33 -65 55 -64 85 6 11 23 22 42 26 42 18 0 50 -50
60 -95 12 -55 5 -141 -13 -152 -7 -4 -20 -9 -30 -10 -10 -2 -29 -10 -43 -19
-13 -9 -27 -14 -31 -11 -11 12 -79 -32 -91 -58 -15 -32 -11 -34 83 -37 40 -2
69 -7 68 -13 0 -5 3 -18 9 -28 7 -15 20 -18 58 -16 49 3 49 3 115 -69 73 -78
105 -90 153 -56 22 15 23 20 16 104 -4 57 -3 90 4 94 6 3 9 21 6 39 -5 30 -2
34 55 66 33 19 75 46 93 62 l33 27 -21 20 c-22 21 -57 22 -107 3 -31 -12 -33
-7 -16 52 5 21 30 60 55 88 44 49 58 73 29 49 -23 -19 -18 1 12 45 18 27 21
35 8 25 -17 -14 -18 -13 -11 10 27 97 38 151 32 167 -7 16 -9 16 -26 -7 l-19
-25 2 40 c1 22 -2 41 -7 42 -5 1 -12 7 -17 14 -6 10 -13 9 -30 -6 -17 -15 -21
-16 -17 -5 8 22 -34 20 -59 -2 -24 -22 -33 -23 -33 -3 0 8 -7 15 -15 15 -22 0
-19 10 23 87 58 104 93 152 193 259 104 113 147 177 130 198 -8 9 -7 18 4 32
18 24 19 44 1 44 -7 0 -20 7 -27 16 -10 12 -23 14 -52 10 -26 -5 -45 -2 -60 9
-12 8 -42 15 -67 15 -26 0 -55 7 -66 15 -15 11 -59 14 -216 15 -179 0 -197 -2
-201 -17z"/>
<path d="M2400 1800 l0 -1800 833 2 832 3 34 90 c28 77 34 109 41 223 5 73 14
158 21 188 10 44 10 59 -1 79 -17 32 -23 32 -73 -9 -67 -53 -88 -62 -103 -41
-17 23 -28 116 -20 165 6 37 -4 54 -19 30 -3 -5 -15 -10 -26 -10 -16 0 -13 7
20 42 40 41 49 68 13 35 -20 -19 -37 -23 -27 -7 3 6 1 10 -5 10 -18 0 -68 -29
-73 -42 -3 -10 -7 -10 -17 -1 -11 10 -11 15 1 29 13 16 12 17 -6 9 -11 -4 -28
-7 -37 -7 -68 4 -69 4 -57 18 9 11 8 14 -5 14 -16 0 -16 2 -2 22 20 28 21 44
2 29 -34 -28 -24 14 20 86 25 42 47 84 48 92 2 9 48 40 105 71 85 45 107 62
122 92 19 38 19 38 -1 38 -29 0 -25 15 10 40 26 19 30 27 30 70 0 45 3 50 48
88 45 38 92 59 118 54 6 -1 36 9 67 23 31 13 63 22 72 19 24 -10 30 -54 12
-87 -16 -27 -16 -30 8 -61 30 -40 33 -89 6 -108 -10 -7 -26 -31 -35 -53 -9
-22 -25 -47 -36 -55 -18 -14 -16 -17 39 -65 80 -69 101 -102 101 -156 0 -82
18 -106 60 -79 12 7 11 12 -8 28 -44 39 -17 85 35 60 47 -24 88 -187 63 -252
-14 -37 -75 -100 -135 -141 -52 -34 -54 -36 -48 -73 3 -20 25 -93 49 -162 51
-148 74 -239 74 -297 l0 -43 125 0 125 0 0 1800 0 1800 -1200 0 -1200 0 0
-1800z"/>
</g>
</svg>
