<?xml version="1.0" standalone="no"?>
<!DOCTYPE svg PUBLIC "-//W3C//DTD SVG 20010904//EN"
 "http://www.w3.org/TR/2001/REC-SVG-20010904/DTD/svg10.dtd">
<svg version="1.0" xmlns="http://www.w3.org/2000/svg"
 width="480.000000pt" height="360.000000pt" viewBox="0 0 480.000000 360.000000"
 preserveAspectRatio="xMidYMid meet">
<metadata>
Created by potrace 1.16, written by Peter Selinger 2001-2019
</metadata>
<rect width="1" height="360" fill="#000000"/>
<rect x="479" width="1" height="360" fill="#000000"/>
<rect width="480" height="1" fill="#000000"/>
<rect y="359" width="480" height="1" fill="#000000"/>
<g transform="translate(0.000000,360.000000) scale(0.100000,-0.100000)"
fill="#000000" stroke="none">
<path d="M0 2860 l0 -740 26 -16 c25 -17 31 -16 157 19 l132 36 84 -25 c46
-13 94 -24 108 -24 14 0 55 -13 91 -29 171 -75 245 -65 430 57 49 32 57 34
105 29 387 -45 631 -62 687 -47 l43 11 -6 62 c-7 81 -64 277 -123 419 -26 62
-47 127 -47 143 0 17 16 93 36 170 21 77 37 153 37 169 0 50 -121 256 -210
356 -32 36 -34 55 -14 128 l6 22 -771 0 -771 0 0 -740z"/>
<path d="M1986 3584 c-28 -16 -28 -18 -23 -77 16 -199 325 -1172 394 -1241 13
-13 81 -42 165 -71 134 -45 151 -48 270 -53 69 -2 141 -2 160 2 21 4 63 32
115 77 46 39 87 68 92 65 5 -4 19 -35 31 -70 27 -81 54 -111 121 -130 141 -40
477 -41 769 -1 58 8 213 28 345 46 132 17 246 36 252 43 16 15 56 146 94 306
l29 125 0 386 0 386 -117 23 c-172 33 -265 56 -383 95 -58 19 -154 49 -215 67
l-110 33 -980 2 c-873 2 -983 1 -1009 -13z"/>
<path d="M3715 1870 c-30 -5 -78 -24 -120 -49 -38 -22 -75 -41 -81 -41 -20 0
-114 -52 -114 -63 0 -11 -41 -7 -195 22 -60 11 -143 23 -184 27 l-74 7 5 -29
c24 -133 53 -245 71 -275 33 -55 215 -242 230 -236 15 5 40 138 35 182 -2 22
-14 37 -45 58 -50 33 -64 69 -38 97 16 18 30 20 119 17 111 -2 156 13 156 54
0 40 100 63 150 34 36 -21 46 -19 67 14 25 39 110 109 156 128 45 18 44 32 -4
49 -38 14 -62 15 -134 4z"/>
<path d="M194 1809 c-44 -29 -100 -69 -126 -91 -44 -37 -47 -42 -53 -103 -9
-80 16 -237 53 -344 39 -111 29 -148 -50 -177 -17 -6 -18 -30 -18 -309 0 -259
2 -304 15 -309 22 -8 55 -67 55 -97 0 -14 -16 -47 -35 -72 l-35 -46 0 -130 0
-131 26 0 c14 0 56 13 92 29 37 16 96 39 132 52 l66 22 48 -23 c26 -13 55 -37
64 -52 l16 -28 308 0 308 0 0 33 c0 18 6 41 13 51 12 17 19 15 102 -33 l89
-51 578 0 c635 0 599 -4 555 61 -12 19 -44 70 -70 114 -93 156 -130 211 -218
328 -80 107 -196 227 -219 227 -20 0 -20 42 0 87 64 142 116 311 146 478 16
89 44 389 44 477 0 70 -11 78 -83 65 -307 -55 -569 -113 -672 -148 -93 -32
-239 -96 -297 -130 -86 -51 -94 -52 -130 -20 -55 46 -118 86 -233 145 -60 31
-159 83 -220 116 -67 36 -122 60 -141 60 -21 0 -58 -17 -110 -51z"/>
<path d="M4370 1766 c-74 -26 -110 -43 -110 -54 0 -4 21 -25 46 -46 69 -58 87
-107 88 -236 0 -125 -14 -181 -52 -206 -54 -38 -257 -14 -427 50 -37 15 -71
24 -74 20 -3 -3 -5 -28 -4 -55 2 -39 -1 -49 -14 -49 -11 0 -14 -6 -10 -22 4
-12 1 -28 -5 -35 -10 -12 -9 -26 7 -68 7 -16 6 -18 -6 -7 -22 20 -42 15 -29
-8 9 -17 7 -19 -17 -19 -43 2 -96 -16 -137 -43 -34 -24 -36 -27 -21 -42 9 -9
32 -16 51 -16 72 0 116 -82 81 -149 -18 -36 -74 -62 -118 -55 -29 5 -37 2 -43
-12 -7 -17 6 -40 78 -134 39 -51 71 -138 86 -237 13 -80 -3 -181 -43 -278
l-25 -60 555 -3 c306 -1 559 0 562 4 3 3 6 375 6 827 0 711 -2 826 -15 851
-11 22 -32 35 -88 57 -144 55 -220 61 -322 25z"/>
<path d="M3345 1160 c-4 -6 -25 -22 -47 -36 -33 -21 -37 -28 -27 -40 10 -13
14 -13 33 1 12 8 38 22 59 31 39 17 48 38 21 48 -22 9 -32 8 -39 -4z"/>
<path d="M2687 996 c-7 -18 7 -29 41 -32 22 -3 23 -1 9 19 -18 27 -42 33 -50
13z"/>
</g>
</svg>
