<?xml version="1.0" standalone="no"?>
<!DOCTYPE svg PUBLIC "-//W3C//DTD SVG 20010904//EN"
 "http://www.w3.org/TR/2001/REC-SVG-20010904/DTD/svg10.dtd">
<svg version="1.0" xmlns="http://www.w3.org/2000/svg"
 width="480.000000pt" height="360.000000pt" viewBox="0 0 480.000000 360.000000"
 preserveAspectRatio="xMidYMid meet">
<metadata>
Created by potrace 1.16, written by Peter Selinger 2001-2019
</metadata>
<rect width="1" height="360" fill="#000000"/>
<rect x="479" width="1" height="360" fill="#000000"/>
<rect width="480" height="1" fill="#000000"/>
<rect y="359" width="480" height="1" fill="#000000"/>
<g transform="translate(0.000000,360.000000) scale(0.100000,-0.100000)"
fill="#000000" stroke="none">
<path d="M0 1800 l0 -1800 2400 0 2400 0 0 1800 0 1800 -1356 0 c-1286 0
-1355 -1 -1350 -17 3 -10 17 -65 31 -123 88 -352 169 -604 249 -776 52 -112
70 -184 46 -184 -5 0 -19 18 -30 40 -12 23 -38 52 -63 67 -258 165 -553 503
-787 901 l-54 92 -743 0 -743 0 0 -1800z m2443 378 c15 -23 -6 -68 -33 -68
-28 0 -46 40 -30 69 13 26 47 25 63 -1z"/>
</g>
</svg>
