<?xml version="1.0" standalone="no"?>
<!DOCTYPE svg PUBLIC "-//W3C//DTD SVG 20010904//EN"
 "http://www.w3.org/TR/2001/REC-SVG-20010904/DTD/svg10.dtd">
<svg version="1.0" xmlns="http://www.w3.org/2000/svg"
 width="480.000000pt" height="360.000000pt" viewBox="0 0 480.000000 360.000000"
 preserveAspectRatio="xMidYMid meet">
<metadata>
Created by potrace 1.16, written by Peter Selinger 2001-2019
</metadata>
<rect width="1" height="360" fill="#000000"/>
<rect x="479" width="1" height="360" fill="#000000"/>
<rect width="480" height="1" fill="#000000"/>
<rect y="359" width="480" height="1" fill="#000000"/>
<g transform="translate(0.000000,360.000000) scale(0.100000,-0.100000)"
fill="#000000" stroke="none">
<path d="M2711 3205 c-24 -7 -69 -31 -99 -52 -30 -20 -64 -37 -76 -38 -15 0
-22 -7 -24 -25 -2 -14 -16 -53 -33 -87 -24 -50 -32 -83 -39 -169 -7 -78 -6
-111 2 -121 8 -11 13 -11 19 -2 4 8 12 1 23 -19 18 -35 39 -52 30 -25 -5 15
-3 15 13 -3 10 -11 23 -19 29 -17 6 2 22 -5 35 -16 22 -18 23 -21 9 -46 -14
-25 -13 -29 3 -39 9 -6 45 -37 80 -69 56 -52 65 -57 94 -52 27 5 32 3 27 -10
-3 -8 -2 -15 4 -15 5 0 13 11 16 25 7 29 26 25 26 -5 0 -10 -55 -74 -125 -146
-76 -77 -125 -134 -125 -146 0 -17 2 -18 15 -8 28 23 25 4 -10 -74 -58 -123
-64 -199 -25 -300 12 -34 -1 -34 -59 -1 -23 14 -88 41 -144 60 -55 19 -101 36
-102 37 -13 16 -25 50 -20 58 3 5 -2 25 -12 45 -16 34 -16 38 0 68 10 18 15
40 12 49 -4 10 1 17 13 20 32 9 32 42 1 90 -16 23 -29 48 -29 54 0 6 -6 17
-14 23 -12 10 -20 9 -38 -2 -13 -8 -39 -18 -58 -21 -46 -8 -87 -47 -99 -94 -5
-20 -12 -90 -15 -155 -3 -65 -11 -139 -17 -165 -22 -89 -9 -323 16 -314 12 4
23 -25 24 -59 1 -15 -26 -99 -60 -188 -34 -89 -58 -165 -55 -168 3 -3 1 -14
-4 -23 -12 -23 27 -51 59 -43 11 3 32 -2 46 -11 13 -9 31 -16 40 -16 8 0 15
-6 15 -12 1 -21 104 -141 124 -144 10 -1 23 -7 29 -13 32 -32 36 12 7 70 -12
22 -18 44 -14 50 3 6 32 9 65 8 32 -1 62 0 65 4 4 4 17 4 29 1 52 -13 62 72
34 286 -10 74 -21 176 -25 226 -6 89 -6 92 16 99 17 5 41 -6 106 -49 l84 -56
2 -68 c5 -119 0 -170 -26 -275 -49 -198 -56 -234 -71 -345 -23 -176 -74 -362
-171 -618 -30 -80 -54 -147 -54 -150 0 -2 340 -4 755 -4 l755 0 -36 73 c-20
39 -70 130 -112 201 -91 157 -128 237 -228 488 -92 233 -129 309 -228 468 -42
67 -76 133 -76 146 0 14 -7 41 -16 62 -18 42 -30 224 -20 296 6 36 11 46 27
46 21 0 26 15 8 26 -21 13 -2 104 28 136 19 20 29 25 34 16 6 -9 10 -8 15 5 3
9 14 17 24 17 11 0 22 4 25 10 7 12 -48 223 -75 284 -10 24 -23 47 -29 50 -6
4 -11 14 -11 23 0 14 3 14 25 -1 14 -9 25 -13 25 -9 0 5 5 1 11 -7 8 -11 9 -6
4 20 -5 26 -4 31 4 20 9 -12 11 -11 11 9 0 18 3 21 13 12 11 -8 16 -5 25 15 7
14 16 22 22 19 6 -4 7 6 4 25 -5 23 -3 30 10 30 19 0 19 4 7 48 -10 33 -4 41
17 20 19 -19 15 7 -8 52 -25 50 -25 59 0 29 28 -35 25 -17 -15 69 -20 42 -45
115 -57 162 -28 117 -52 163 -122 237 -91 98 -130 117 -246 120 -62 2 -110 -2
-139 -12z"/>
</g>
</svg>
