<?xml version="1.0" standalone="no"?>
<!DOCTYPE svg PUBLIC "-//W3C//DTD SVG 20010904//EN"
 "http://www.w3.org/TR/2001/REC-SVG-20010904/DTD/svg10.dtd">
<svg version="1.0" xmlns="http://www.w3.org/2000/svg"
 width="480.000000pt" height="360.000000pt" viewBox="0 0 480.000000 360.000000"
 preserveAspectRatio="xMidYMid meet">
<metadata>
Created by potrace 1.16, written by Peter Selinger 2001-2019
</metadata>
<rect width="1" height="360" fill="#000000"/>
<rect x="479" width="1" height="360" fill="#000000"/>
<rect width="480" height="1" fill="#000000"/>
<rect y="359" width="480" height="1" fill="#000000"/>
<g transform="translate(0.000000,360.000000) scale(0.100000,-0.100000)"
fill="#000000" stroke="none">
<path d="M0 1800 l0 -1800 1055 0 c836 0 1056 3 1059 13 2 6 11 64 21 127 9
63 30 166 46 228 35 137 36 156 10 147 -12 -4 -23 0 -28 10 -8 13 -15 13 -59
2 -39 -10 -60 -24 -90 -58 -21 -24 -65 -70 -97 -101 -50 -51 -63 -58 -97 -58
-30 0 -43 6 -59 26 -12 15 -21 36 -21 47 0 33 36 97 99 176 49 61 58 78 50 93
-6 10 -41 105 -79 211 -160 451 -156 441 -214 491 -29 24 -65 62 -80 85 l-28
41 25 97 c25 92 25 99 9 114 -14 14 -176 116 -449 284 -35 21 -68 44 -74 51
-15 18 27 148 45 141 8 -3 22 13 34 39 12 24 27 44 34 44 7 0 23 18 36 40 12
22 28 40 35 40 7 0 25 18 40 40 16 22 32 38 36 36 4 -3 23 10 41 29 19 19 39
35 46 35 6 0 17 7 24 16 24 28 185 106 275 133 84 25 253 45 305 36 28 -5 46
-1 75 16 21 13 80 35 129 49 l91 26 23 50 c13 27 37 63 53 80 28 29 29 34 23
88 -4 31 -10 58 -13 60 -4 3 -41 -2 -84 -10 -116 -22 -142 -12 -247 94 -85 87
-140 173 -170 267 -14 42 -48 95 -62 95 -4 0 -8 -10 -8 -23 0 -28 -17 -47 -43
-47 -17 0 -19 5 -14 43 4 26 -1 64 -11 99 l-17 58 -837 0 -838 0 0 -1800z"/>
<path d="M1845 3523 c8 -56 26 -79 80 -104 42 -19 130 -26 139 -10 7 10 -57
59 -158 120 l-68 42 7 -48z"/>
<path d="M1890 3356 c0 -2 8 -24 19 -48 45 -104 180 -244 246 -255 50 -8 145
6 152 23 7 20 -58 152 -108 219 -37 49 -46 56 -68 50 -70 -16 -157 -17 -195
-1 -41 17 -46 18 -46 12z"/>
<path d="M2375 2983 c4 -21 8 -39 10 -41 5 -5 55 21 55 29 0 4 -16 17 -36 28
l-36 22 7 -38z"/>
<path d="M4782 2743 c-10 -31 -9 -40 3 -52 13 -14 15 -9 15 37 0 29 -1 52 -3
52 -2 0 -9 -17 -15 -37z"/>
<path d="M2148 2672 c-42 -14 -75 -29 -72 -34 3 -5 14 -6 24 -3 11 3 28 1 40
-5 33 -18 101 26 88 58 -1 5 -38 -2 -80 -16z"/>
<path d="M3290 2290 c0 -5 5 -10 11 -10 5 0 7 5 4 10 -3 6 -8 10 -11 10 -2 0
-4 -4 -4 -10z"/>
<path d="M3365 2196 l-36 -44 20 -73 c10 -41 22 -86 25 -101 4 -18 16 -30 38
-38 34 -12 314 -34 345 -28 25 6 -178 207 -279 276 l-77 52 -36 -44z"/>
<path d="M2044 2073 c-47 -51 -63 -70 -103 -123 -19 -25 -54 -71 -79 -102
l-45 -58 29 -62 c24 -55 28 -76 30 -168 2 -104 2 -107 54 -220 58 -127 162
-330 170 -330 3 0 17 25 31 55 25 50 26 57 13 92 -7 21 -13 49 -14 62 0 24 1
24 69 17 l69 -6 51 74 c28 41 49 80 46 88 -2 7 -9 83 -15 168 -6 85 -17 223
-23 305 l-12 150 -94 48 c-51 26 -104 47 -118 47 -16 0 -37 -13 -59 -37z"/>
<path d="M3390 1894 c0 -41 56 -401 75 -479 23 -97 106 -489 121 -570 10 -57
79 -247 177 -490 46 -116 95 -243 108 -283 l23 -72 453 0 453 0 0 480 0 480
-30 41 c-37 52 -68 134 -76 205 -10 86 -18 88 -254 92 -248 3 -288 15 -400
118 -93 87 -141 182 -160 316 -17 116 -30 124 -267 143 -98 8 -188 17 -200 21
-13 3 -23 3 -23 -2z"/>
<path d="M3904 1762 c3 -10 13 -44 21 -77 43 -166 147 -279 304 -330 47 -15
76 -17 200 -11 79 3 147 9 150 12 9 8 -152 161 -234 222 -83 61 -217 130 -335
172 -100 35 -113 37 -106 12z"/>
<path d="M4735 1240 c-8 -13 18 -107 43 -155 l21 -40 1 103 0 102 -29 0 c-17
0 -33 -4 -36 -10z"/>
<path d="M3787 19 c4 -13 8 -18 11 -10 2 7 -1 18 -6 23 -8 8 -9 4 -5 -13z"/>
</g>
</svg>
