<?xml version="1.0" standalone="no"?>
<!DOCTYPE svg PUBLIC "-//W3C//DTD SVG 20010904//EN"
 "http://www.w3.org/TR/2001/REC-SVG-20010904/DTD/svg10.dtd">
<svg version="1.0" xmlns="http://www.w3.org/2000/svg"
 width="480.000000pt" height="360.000000pt" viewBox="0 0 480.000000 360.000000"
 preserveAspectRatio="xMidYMid meet">
<metadata>
Created by potrace 1.16, written by Peter Selinger 2001-2019
</metadata>
<rect width="1" height="360" fill="#000000"/>
<rect x="479" width="1" height="360" fill="#000000"/>
<rect width="480" height="1" fill="#000000"/>
<rect y="359" width="480" height="1" fill="#000000"/>
<g transform="translate(0.000000,360.000000) scale(0.100000,-0.100000)"
fill="#000000" stroke="none">
<path d="M1890 3559 c0 -22 -11 -80 -25 -129 -32 -113 -32 -172 1 -257 29 -77
28 -90 -12 -273 -14 -63 -28 -126 -30 -138 l-5 -24 -19 25 c-11 14 -37 32 -59
40 -39 16 -51 32 -51 70 0 58 -81 126 -133 113 -29 -7 -67 -42 -67 -62 0 -7 8
-10 18 -7 15 3 24 -6 40 -46 25 -57 27 -82 10 -100 -11 -10 -8 -17 14 -34 32
-26 50 -68 37 -88 -5 -8 -9 -31 -9 -52 0 -31 -8 -48 -41 -85 -48 -55 -78 -114
-79 -157 0 -16 -8 -52 -19 -80 -30 -81 -34 -98 -22 -91 7 5 11 -7 11 -36 1
-36 2 -40 11 -24 10 16 14 14 36 -25 30 -54 69 -95 105 -114 24 -12 28 -11 28
1 0 12 5 12 33 -2 20 -10 27 -11 20 -3 -21 21 -15 34 7 14 28 -26 25 -59 -11
-99 -35 -41 -33 -51 15 -60 28 -5 37 -14 50 -46 22 -56 20 -63 -14 -45 -40 21
-44 20 -84 -22 l-35 -37 -65 23 c-53 19 -81 22 -143 19 -180 -9 -308 -124
-333 -298 -7 -53 -14 -67 -42 -91 -18 -15 -45 -28 -60 -29 -166 -2 -333 -117
-423 -291 -43 -83 -47 -98 -52 -182 -4 -78 -2 -102 17 -156 56 -165 205 -304
394 -365 96 -32 171 -33 259 -6 129 40 273 180 318 308 6 18 15 32 20 32 18 0
49 -40 49 -63 0 -32 23 -60 46 -55 17 3 19 11 16 61 -3 43 0 57 10 57 24 -1
47 -26 62 -70 13 -39 13 -46 0 -61 -12 -14 -12 -21 0 -56 25 -71 55 -121 77
-128 29 -10 59 -82 46 -115 -8 -20 -5 -35 12 -67 26 -52 26 -65 1 -88 -12 -11
-20 -28 -18 -39 3 -21 6 -21 595 -24 l592 -2 10 52 c78 388 62 454 -214 865
-125 185 -145 220 -151 265 l-7 51 35 -39 c19 -21 42 -53 51 -70 9 -17 23 -31
31 -31 37 0 144 -122 230 -263 25 -41 63 -95 85 -120 27 -29 59 -88 97 -175
30 -71 68 -155 83 -185 35 -68 121 -203 127 -197 3 2 -4 37 -15 78 -12 40 -19
74 -18 75 2 2 22 -23 45 -55 47 -64 102 -120 102 -104 0 5 -7 32 -15 59 -8 27
-15 51 -15 53 0 9 70 -74 71 -84 1 -5 0 -19 -1 -29 -1 -10 10 -48 25 -82 l27
-64 64 0 c60 0 64 2 70 25 10 39 -31 124 -82 171 -24 23 -44 48 -44 54 0 9 7
7 20 -5 13 -12 20 -14 20 -5 0 10 4 9 16 -1 15 -12 16 -11 9 11 -12 38 -12 48
-1 22 5 -12 13 -22 18 -22 10 0 11 -5 -13 102 -16 68 -40 128 -88 222 l-66
128 -112 94 c-113 95 -144 126 -106 106 11 -6 25 -18 33 -27 7 -8 30 -25 51
-37 22 -12 39 -25 39 -29 0 -4 14 -12 31 -18 19 -7 28 -15 23 -22 -4 -8 -3 -9
5 -5 7 5 28 -3 49 -16 46 -31 90 -54 77 -40 -5 5 -45 34 -87 65 -79 56 -193
155 -187 162 2 2 45 -22 94 -52 181 -112 219 -110 48 2 -180 118 -406 305
-389 322 3 4 33 -15 67 -41 65 -51 89 -64 89 -49 0 5 -54 86 -121 179 -143
200 -161 233 -229 429 -76 217 -166 440 -251 622 l-38 83 28 -21 c37 -28 67
-19 65 18 0 16 -2 30 -3 33 -1 3 -4 25 -7 50 -13 128 -112 303 -230 408 -65
58 -94 67 -191 59 -76 -6 -116 -35 -130 -96 -8 -28 -11 -4 -17 119 -5 85 -9
178 -9 205 0 57 25 213 43 263 17 46 2 61 -43 43 -57 -23 -61 -20 -71 37 l-10
52 -58 0 -58 0 0 -41z m-64 -2091 c15 -44 23 -86 19 -98 -9 -29 -21 -17 -28
29 -5 38 -39 117 -74 172 -16 25 -15 28 7 59 l24 33 13 -59 c7 -32 25 -94 39
-136z m-6 -438 c0 -15 -3 -42 -6 -59 -6 -27 -11 -31 -40 -31 -18 0 -45 5 -61
11 -29 11 -73 47 -73 60 0 5 19 21 43 37 23 17 53 48 67 70 l25 40 23 -50 c12
-28 22 -63 22 -78z m21 -420 c42 -22 81 -46 87 -53 17 -20 42 -136 42 -196 0
-37 -6 -64 -21 -87 l-21 -34 -33 25 c-41 32 -63 79 -46 99 22 26 -22 142 -71
186 -32 30 -51 100 -27 100 8 0 48 -18 90 -40z m872 -98 l46 -47 -14 -47 c-8
-27 -17 -76 -21 -110 l-7 -62 -22 26 c-19 22 -24 43 -29 120 -4 51 -9 110 -12
131 -3 20 -2 37 3 37 5 0 30 -21 56 -48z m-915 -59 c11 -26 20 -48 19 -49 -1
-1 -16 -4 -33 -7 -29 -6 -32 -3 -48 35 -8 23 -15 42 -13 42 1 1 11 6 22 13 30
18 31 17 53 -34z m112 -255 c0 -7 -9 -26 -19 -42 l-19 -29 -16 32 c-16 30 -16
31 3 31 11 0 23 5 26 10 9 14 25 12 25 -2z m20 -57 c0 -6 -4 -13 -10 -16 -5
-3 -10 1 -10 9 0 9 5 16 10 16 6 0 10 -4 10 -9z m1710 -47 c12 -31 6 -44 -20
-44 -20 0 -40 27 -40 54 0 28 49 20 60 -10z"/>
</g>
</svg>
