<?xml version="1.0" standalone="no"?>
<!DOCTYPE svg PUBLIC "-//W3C//DTD SVG 20010904//EN"
 "http://www.w3.org/TR/2001/REC-SVG-20010904/DTD/svg10.dtd">
<svg version="1.0" xmlns="http://www.w3.org/2000/svg"
 width="480.000000pt" height="360.000000pt" viewBox="0 0 480.000000 360.000000"
 preserveAspectRatio="xMidYMid meet">
<metadata>
Created by potrace 1.16, written by Peter Selinger 2001-2019
</metadata>
<rect width="1" height="360" fill="#000000"/>
<rect x="479" width="1" height="360" fill="#000000"/>
<rect width="480" height="1" fill="#000000"/>
<rect y="359" width="480" height="1" fill="#000000"/>
<g transform="translate(0.000000,360.000000) scale(0.100000,-0.100000)"
fill="#000000" stroke="none">
<path d="M0 2709 l0 -891 23 5 c214 47 374 62 937 92 525 27 959 36 1832 34
477 0 871 2 876 5 5 3 12 26 15 51 4 24 13 61 22 81 14 33 17 35 47 29 56 -13
75 -32 83 -81 l6 -46 77 7 c42 4 83 12 90 17 7 6 33 8 59 5 36 -4 52 -1 73 14
21 16 35 18 69 13 37 -6 48 -14 75 -52 60 -88 63 -90 151 -96 44 -3 144 -8
223 -12 l142 -7 0 862 0 861 -2400 0 -2400 0 0 -891z m4258 409 c-5 -15 -58
-24 -58 -9 0 9 20 17 48 20 8 0 12 -5 10 -11z"/>
<path d="M3840 1703 c0 -38 -7 -76 -17 -98 -15 -31 -21 -35 -53 -35 -51 0 -74
28 -80 98 -5 51 -7 56 -33 63 -15 4 -375 11 -800 14 -1048 10 -1810 -10 -2759
-71 l-98 -6 0 -834 0 -834 2400 0 2400 0 0 653 0 652 -93 42 c-141 64 -239 99
-385 138 -123 32 -224 69 -311 113 -18 9 -64 50 -102 92 l-69 75 0 -62z"/>
<path d="M4410 1736 c23 -21 341 -136 378 -136 8 0 12 20 12 68 l0 69 -152 6
c-230 10 -255 10 -238 -7z"/>
</g>
</svg>
