<?xml version="1.0" standalone="no"?>
<!DOCTYPE svg PUBLIC "-//W3C//DTD SVG 20010904//EN"
 "http://www.w3.org/TR/2001/REC-SVG-20010904/DTD/svg10.dtd">
<svg version="1.0" xmlns="http://www.w3.org/2000/svg"
 width="480.000000pt" height="360.000000pt" viewBox="0 0 480.000000 360.000000"
 preserveAspectRatio="xMidYMid meet">
<metadata>
Created by potrace 1.16, written by Peter Selinger 2001-2019
</metadata>
<rect width="1" height="360" fill="#000000"/>
<rect x="479" width="1" height="360" fill="#000000"/>
<rect width="480" height="1" fill="#000000"/>
<rect y="359" width="480" height="1" fill="#000000"/>
<g transform="translate(0.000000,360.000000) scale(0.100000,-0.100000)"
fill="#000000" stroke="none">
<path d="M0 1800 l0 -1800 828 0 828 0 13 53 c29 115 120 313 194 421 22 32
60 102 85 155 50 106 117 215 150 245 12 11 22 23 22 29 0 5 9 21 20 36 18 26
19 38 11 188 -4 87 -11 165 -15 171 -4 7 -16 12 -27 12 -15 0 -28 18 -53 73
-19 39 -43 78 -55 85 -12 7 -21 19 -21 27 0 8 -9 19 -20 25 -13 7 -20 21 -20
40 0 45 -18 73 -58 96 -47 25 -45 47 10 93 33 29 68 82 68 105 0 7 -59 33 -88
39 -25 6 -22 -4 12 -41 l21 -24 -30 8 c-16 3 -37 12 -45 18 -34 25 -59 35 -62
25 -2 -6 -19 5 -39 24 -39 38 -77 126 -86 200 -6 52 -12 56 -38 27 -27 -30
-29 -17 -6 29 27 52 26 57 -4 37 -14 -9 -25 -12 -25 -6 0 18 80 203 124 286
107 201 214 287 457 368 55 19 102 36 105 38 7 7 -103 304 -133 361 -45 83
-164 192 -305 280 l-125 77 -847 0 -846 0 0 -1800z"/>
<path d="M2564 3583 c13 -43 38 -215 61 -422 13 -124 28 -228 32 -231 5 -4 43
-12 85 -18 155 -23 286 -84 392 -181 33 -32 77 -67 97 -79 20 -12 60 -55 90
-94 42 -57 62 -96 86 -173 77 -239 114 -491 133 -895 28 -626 29 -640 64 -767
19 -65 64 -212 101 -328 37 -116 77 -250 89 -300 l23 -90 491 -3 492 -2 0
1800 0 1800 -1121 0 c-1062 0 -1120 -1 -1115 -17z"/>
</g>
</svg>
