<?xml version="1.0" standalone="no"?>
<!DOCTYPE svg PUBLIC "-//W3C//DTD SVG 20010904//EN"
 "http://www.w3.org/TR/2001/REC-SVG-20010904/DTD/svg10.dtd">
<svg version="1.0" xmlns="http://www.w3.org/2000/svg"
 width="480.000000pt" height="360.000000pt" viewBox="0 0 480.000000 360.000000"
 preserveAspectRatio="xMidYMid meet">
<metadata>
Created by potrace 1.16, written by Peter Selinger 2001-2019
</metadata>
<rect width="1" height="360" fill="#000000"/>
<rect x="479" width="1" height="360" fill="#000000"/>
<rect width="480" height="1" fill="#000000"/>
<rect y="359" width="480" height="1" fill="#000000"/>
<g transform="translate(0.000000,360.000000) scale(0.100000,-0.100000)"
fill="#000000" stroke="none">
<path d="M0 1800 l0 -1800 2400 0 2400 0 0 193 0 192 -62 50 c-34 28 -73 57
-88 66 -31 19 -171 49 -365 78 -255 38 -279 43 -373 73 -51 16 -109 39 -128
50 l-35 21 -20 -21 c-15 -16 -27 -20 -49 -15 -22 4 -36 0 -50 -12 -14 -13 -37
-17 -92 -18 -40 0 -84 3 -97 8 -20 6 -23 4 -18 -11 46 -148 49 -213 12 -249
-55 -56 -132 -12 -174 99 -11 30 -29 70 -39 90 l-19 35 -17 -74 c-19 -79 -53
-129 -81 -119 -28 11 -55 79 -55 137 0 30 -3 69 -6 86 -6 27 -11 31 -37 31
-17 0 -39 7 -48 16 -19 18 -44 16 -349 -16 -153 -17 -210 0 -231 69 -9 30 -9
47 1 76 11 34 10 38 -11 53 -25 17 -57 21 -78 8 -7 -5 -18 -3 -24 3 -7 7 -14
7 -25 -1 -10 -9 -15 -9 -21 0 -5 8 -114 18 -326 31 -279 18 -322 18 -335 6
-21 -22 -6 -32 101 -69 61 -22 95 -39 97 -50 2 -9 -1 -16 -7 -16 -6 0 -11 -9
-11 -20 0 -12 -9 -30 -19 -42 l-20 -21 -48 23 c-190 90 -394 158 -614 204 -53
11 -58 11 -83 -10 -14 -13 -26 -28 -26 -34 0 -8 -11 -9 -30 -5 -19 4 -36 2
-45 -5 -28 -23 -75 22 -75 73 0 14 -6 30 -14 36 -8 7 -78 19 -157 27 -161 17
-192 31 -229 104 -26 52 -25 61 9 94 29 27 33 28 103 23 180 -13 337 -29 378
-37 71 -15 631 -69 979 -95 l316 -23 68 71 c74 78 116 138 165 232 18 33 46
79 63 102 34 45 33 73 -1 73 -29 0 -36 25 -55 183 -9 77 -20 149 -25 161 -6
18 -21 25 -72 34 -52 9 -69 18 -95 47 -18 19 -33 43 -33 54 0 11 -3 27 -6 35
-4 11 6 28 30 51 25 23 34 39 30 52 -5 15 -4 15 4 3 9 -12 13 -12 30 3 11 10
35 20 53 23 28 5 39 1 63 -22 44 -45 59 -82 52 -130 -4 -29 -1 -46 8 -54 8 -6
22 -27 31 -46 l16 -35 34 28 c18 15 40 47 50 70 15 39 15 44 -1 75 -10 18 -17
43 -15 55 2 22 2 22 -39 6 l-42 -17 -37 45 c-20 24 -47 54 -61 67 -24 23 -25
24 -5 38 24 18 11 29 -44 39 -20 4 -45 15 -56 24 -11 10 -36 24 -55 31 -19 7
-44 21 -55 30 -11 10 -54 33 -95 52 -73 33 -98 52 -99 73 0 6 -10 12 -22 13
-29 5 -60 42 -53 65 3 9 1 17 -5 17 -6 0 -11 7 -11 15 0 8 5 15 11 15 6 0 8 7
5 16 -6 15 -1 16 36 11 24 -4 59 -9 78 -13 l35 -7 -53 47 c-60 55 -73 87 -47
116 23 26 40 25 59 -2 15 -22 17 -22 45 -5 19 11 50 17 89 17 110 0 134 -24
92 -92 -11 -18 -20 -41 -20 -51 0 -16 7 -18 73 -12 106 9 109 10 147 65 71
101 171 150 305 150 141 0 226 -31 340 -124 37 -31 112 -84 166 -119 54 -34
99 -65 99 -69 0 -12 -69 -21 -113 -15 -23 3 -78 24 -121 47 -91 47 -155 60
-174 37 -9 -10 -12 -41 -10 -93 l3 -77 125 -42 c158 -53 199 -74 263 -136 47
-46 50 -52 35 -63 -10 -7 -18 -21 -18 -30 0 -9 -7 -16 -16 -16 -40 0 1 -27
102 -67 l109 -44 -65 6 c-59 5 -63 4 -46 -9 10 -9 44 -20 75 -27 31 -6 67 -15
81 -19 23 -8 22 -8 -10 -9 l-35 -1 48 -30 c51 -33 65 -60 17 -35 -43 22 -53
19 -33 -12 17 -26 17 -27 0 -14 -23 18 -21 5 4 -31 30 -41 13 -57 -38 -35 -21
8 -51 18 -68 21 l-30 6 28 -24 c38 -35 34 -40 -14 -15 -33 17 -41 18 -36 5 4
-11 -6 -9 -40 10 -61 32 -84 32 -55 1 12 -13 22 -26 22 -30 0 -14 -36 -6 -89
18 -71 34 -91 26 -23 -9 28 -14 52 -29 52 -32 0 -3 -4 -3 -9 1 -10 6 -73 15
-131 19 -19 1 -52 10 -74 19 l-38 17 14 -23 c8 -12 29 -62 47 -112 18 -49 38
-93 44 -97 24 -15 35 -7 47 36 16 56 48 87 102 97 24 4 74 13 111 20 108 21
116 8 122 -191 l4 -125 28 -7 c47 -13 232 -37 373 -49 111 -9 138 -14 153 -30
10 -11 16 -23 13 -28 -3 -5 4 -21 15 -35 12 -15 19 -29 17 -32 -3 -2 -29 1
-59 6 -62 12 -303 40 -307 36 -3 -4 114 -74 163 -98 27 -14 39 -14 119 3 349
71 518 87 709 66 l67 -8 0 1141 0 1140 -2400 0 -2400 0 0 -1800z"/>
<path d="M2645 1608 c-2 -7 -13 -43 -24 -80 -25 -82 -44 -121 -86 -173 -79
-100 -135 -189 -135 -218 0 -28 2 -29 35 -24 19 3 41 12 48 19 8 7 42 33 77
58 82 57 175 144 201 187 27 43 22 62 -42 157 -54 82 -67 94 -74 74z"/>
<path d="M3380 1352 c0 -13 123 -76 185 -95 59 -18 198 -30 190 -17 -9 15
-185 100 -206 100 -10 0 -21 5 -24 10 -10 16 -47 12 -60 -7 -11 -15 -16 -16
-41 -3 -16 8 -32 16 -36 18 -5 2 -8 -1 -8 -6z"/>
<path d="M4755 451 c21 -22 40 -41 42 -41 2 0 3 10 3 23 0 16 -9 27 -32 37
-18 7 -37 15 -43 18 -5 2 8 -14 30 -37z"/>
</g>
</svg>
