<?xml version="1.0" standalone="no"?>
<!DOCTYPE svg PUBLIC "-//W3C//DTD SVG 20010904//EN"
 "http://www.w3.org/TR/2001/REC-SVG-20010904/DTD/svg10.dtd">
<svg version="1.0" xmlns="http://www.w3.org/2000/svg"
 width="480.000000pt" height="360.000000pt" viewBox="0 0 480.000000 360.000000"
 preserveAspectRatio="xMidYMid meet">
<metadata>
Created by potrace 1.16, written by Peter Selinger 2001-2019
</metadata>
<rect width="1" height="360" fill="#000000"/>
<rect x="479" width="1" height="360" fill="#000000"/>
<rect width="480" height="1" fill="#000000"/>
<rect y="359" width="480" height="1" fill="#000000"/>
<g transform="translate(0.000000,360.000000) scale(0.100000,-0.100000)"
fill="#000000" stroke="none">
<path d="M0 2438 c1 -1071 2 -1161 17 -1133 9 17 35 62 58 101 56 91 138 256
186 369 l37 89 -36 32 c-36 31 -36 31 -15 43 14 7 24 25 28 49 4 20 15 64 26
97 22 69 17 97 -23 143 -122 141 -149 443 -57 625 43 84 130 158 284 243 211
115 278 141 415 154 275 27 321 30 345 24 14 -3 25 -5 25 -3 1 2 5 50 9 107 5
57 12 106 15 109 8 9 37 -30 121 -164 47 -76 95 -139 125 -165 86 -76 164
-214 191 -338 6 -26 22 -72 37 -101 24 -48 36 -58 94 -88 73 -37 83 -38 180
-27 l66 8 21 -41 c12 -23 27 -41 33 -41 6 0 4 -8 -5 -18 -10 -10 -17 -23 -17
-28 -1 -20 -107 -159 -124 -162 -10 -2 -31 8 -46 23 l-28 27 4 -43 c3 -24 7
-52 9 -61 2 -10 -1 -18 -5 -18 -5 0 -16 -24 -24 -54 -15 -52 -55 -115 -56 -88
0 28 -18 0 -24 -40 -7 -40 -8 -42 -21 -24 -14 18 -15 18 -24 -5 -7 -17 -10
-19 -10 -6 -1 24 -17 21 -35 -5 -11 -15 -16 -18 -16 -8 -1 11 -6 8 -20 -8 -16
-19 -19 -39 -19 -144 0 -75 5 -135 13 -157 7 -20 17 -45 21 -56 4 -12 -10 -3
-34 23 l-42 42 -27 -57 c-34 -72 -85 -147 -114 -168 -27 -19 -75 -19 -151 -1
l-58 14 3 -36 3 -36 130 -18 c72 -10 168 -29 215 -43 47 -13 102 -27 123 -31
29 -5 44 -15 58 -38 25 -41 24 -55 -6 -66 -31 -12 -31 -14 -1 -53 25 -33 105
-192 124 -246 12 -35 7 -35 116 13 145 64 372 102 561 93 361 -17 681 -158
966 -424 55 -52 227 -266 255 -318 6 -11 29 -54 52 -95 22 -41 53 -105 67
-142 l27 -68 389 0 389 0 0 1800 0 1800 -2400 0 -2400 0 0 -1162z m1708 853
c16 -9 16 -10 -1 -17 -60 -23 -194 1 -155 28 16 11 132 3 156 -11z m1634
-1188 c34 -36 41 -77 25 -133 -11 -37 -17 -45 -35 -43 -14 2 -22 -3 -22 -12 0
-26 -29 -16 -45 15 -24 47 -16 122 20 176 20 30 26 30 57 -3z m478 -213 c0 -5
-5 -10 -11 -10 -5 0 -7 5 -4 10 3 6 8 10 11 10 2 0 4 -4 4 -10z"/>
<path d="M852 1438 c-11 -24 -18 -45 -16 -47 1 -1 25 5 53 14 47 15 50 18 39
38 -26 50 -52 48 -76 -5z"/>
<path d="M790 1428 c0 -36 4 -48 15 -48 18 0 18 5 0 55 l-14 40 -1 -47z"/>
<path d="M543 1398 c-7 -7 -26 -45 -44 -83 -23 -51 -33 -65 -38 -53 -5 15 -10
14 -40 -14 -19 -18 -29 -34 -23 -36 17 -5 170 76 182 97 14 27 -20 110 -37 89z"/>
<path d="M750 1385 c0 -8 5 -15 10 -15 6 0 10 7 10 15 0 8 -4 15 -10 15 -5 0
-10 -7 -10 -15z"/>
<path d="M655 1359 c-10 -15 3 -25 16 -12 7 7 7 13 1 17 -6 3 -14 1 -17 -5z"/>
<path d="M249 1339 c-1 -8 -1 -21 0 -30 3 -28 -26 -42 -69 -35 l-39 6 -47 -72
c-26 -40 -57 -86 -70 -101 l-24 -29 0 -539 0 -539 58 0 59 0 27 92 c15 51 29
101 32 110 3 11 -2 18 -17 20 -14 2 -26 16 -36 40 -14 35 -14 39 5 63 12 15
18 33 15 41 -3 8 10 31 30 53 29 32 35 48 41 104 6 56 4 71 -14 107 -22 42
-22 43 -2 38 23 -6 32 8 32 52 0 18 9 35 24 47 15 12 32 46 50 104 31 104 31
104 6 154 -19 37 -19 42 -5 79 9 21 26 52 39 70 28 37 39 66 26 66 -6 0 -10
-6 -10 -14 0 -8 -3 -17 -7 -19 -5 -3 -7 16 -5 41 3 43 1 48 -25 59 -15 7 -38
20 -50 29 -18 13 -23 14 -24 3z"/>
<path d="M670 432 c0 -37 19 -92 32 -92 5 0 7 8 5 18 -3 9 -8 34 -12 54 -7 46
-25 60 -25 20z"/>
<path d="M697 270 c-4 -8 -12 -42 -19 -75 -13 -58 -15 -60 -48 -65 l-35 -5 -3
-62 -3 -63 71 0 72 0 -7 83 c-12 139 -21 203 -28 187z"/>
</g>
</svg>
