<?xml version="1.0" standalone="no"?>
<!DOCTYPE svg PUBLIC "-//W3C//DTD SVG 20010904//EN"
 "http://www.w3.org/TR/2001/REC-SVG-20010904/DTD/svg10.dtd">
<svg version="1.0" xmlns="http://www.w3.org/2000/svg"
 width="480.000000pt" height="360.000000pt" viewBox="0 0 480.000000 360.000000"
 preserveAspectRatio="xMidYMid meet">
<metadata>
Created by potrace 1.16, written by Peter Selinger 2001-2019
</metadata>
<rect width="1" height="360" fill="#000000"/>
<rect x="479" width="1" height="360" fill="#000000"/>
<rect width="480" height="1" fill="#000000"/>
<rect y="359" width="480" height="1" fill="#000000"/>
<g transform="translate(0.000000,360.000000) scale(0.100000,-0.100000)"
fill="#000000" stroke="none">
<path d="M2030 3371 c0 -6 23 -25 50 -42 58 -35 64 -53 18 -44 -46 8 -224 -22
-276 -47 -48 -23 -84 -70 -103 -136 l-12 -42 -47 6 c-36 5 -58 1 -94 -14 -25
-12 -46 -25 -46 -29 0 -5 15 -24 34 -42 29 -28 39 -32 65 -26 33 7 41 -4 16
-25 -8 -7 -13 -16 -10 -20 3 -5 -4 -11 -15 -15 -18 -6 -20 -12 -14 -43 8 -46
14 -54 74 -92 33 -21 56 -29 70 -25 30 9 40 -28 47 -176 6 -126 6 -128 -20
-158 -46 -55 -68 -134 -78 -276 -8 -119 -25 -212 -44 -247 -5 -7 -47 -65 -95
-128 -118 -156 -130 -177 -130 -230 0 -46 36 -138 68 -174 35 -38 92 -58 151
-54 49 4 59 9 88 43 18 21 33 34 33 29 0 -24 -42 -328 -55 -399 -44 -241 -114
-816 -115 -942 l0 -23 487 0 486 0 -6 193 c-6 181 -12 264 -52 685 -21 219
-23 342 -7 462 17 130 17 128 9 190 -6 41 -5 51 4 40 8 -12 10 -10 5 10 -36
176 -41 275 -11 220 14 -24 14 -24 8 13 -4 26 -1 43 9 55 34 38 108 215 108
255 0 33 12 59 55 128 30 48 55 89 55 93 0 12 -294 226 -311 226 -14 0 -18 12
-24 73 -8 89 -8 93 6 195 10 77 10 84 -7 98 -18 14 -18 15 1 29 62 44 60 42
45 61 -9 10 -11 19 -5 21 50 17 42 36 -22 53 -38 11 -61 27 -110 79 -35 36
-73 81 -85 100 -13 19 -45 46 -73 62 -57 31 -125 48 -125 30z"/>
</g>
</svg>
