<?xml version="1.0" standalone="no"?>
<!DOCTYPE svg PUBLIC "-//W3C//DTD SVG 20010904//EN"
 "http://www.w3.org/TR/2001/REC-SVG-20010904/DTD/svg10.dtd">
<svg version="1.0" xmlns="http://www.w3.org/2000/svg"
 width="480.000000pt" height="360.000000pt" viewBox="0 0 480.000000 360.000000"
 preserveAspectRatio="xMidYMid meet">
<metadata>
Created by potrace 1.16, written by Peter Selinger 2001-2019
</metadata>
<rect width="1" height="360" fill="#000000"/>
<rect x="479" width="1" height="360" fill="#000000"/>
<rect width="480" height="1" fill="#000000"/>
<rect y="359" width="480" height="1" fill="#000000"/>
<g transform="translate(0.000000,360.000000) scale(0.100000,-0.100000)"
fill="#000000" stroke="none">
<path d="M2588 3363 c-98 -99 -99 -101 -68 -202 l20 -63 -46 -42 c-26 -22 -53
-45 -61 -49 -28 -17 -93 -131 -114 -199 -33 -111 -34 -189 -5 -288 14 -50 25
-74 25 -57 1 32 21 37 21 5 0 -13 12 -48 27 -78 20 -41 27 -50 31 -36 4 19 5
19 21 -2 9 -12 26 -23 38 -25 12 -2 26 -6 29 -10 4 -4 14 -7 21 -7 11 0 9 7
-6 26 -12 15 -21 31 -21 36 0 13 89 -84 90 -96 0 -6 -12 -27 -26 -48 -31 -45
-24 -62 32 -73 28 -5 38 -13 50 -41 8 -19 21 -34 28 -34 8 0 41 -27 74 -60 32
-33 66 -60 74 -60 9 0 19 -8 23 -17 6 -15 10 -11 20 17 11 33 12 33 19 13 11
-34 24 -28 32 13 7 37 7 37 20 13 12 -23 13 -23 21 -4 6 16 9 11 14 -25 l7
-45 -86 -87 c-65 -67 -93 -88 -113 -88 -47 0 -109 -67 -109 -118 0 -10 -9 -27
-21 -38 -12 -10 -32 -38 -46 -62 -23 -38 -25 -51 -20 -109 4 -57 1 -74 -23
-129 -29 -63 -52 -136 -68 -209 l-8 -40 -33 65 c-19 36 -51 94 -71 131 -22 36
-48 102 -60 150 -12 46 -35 115 -52 152 -16 38 -28 70 -26 71 2 1 62 15 133
30 199 41 270 60 267 71 -3 13 -78 9 -279 -16 l-162 -20 -53 30 c-79 44 -115
48 -157 17 -19 -15 -43 -26 -52 -26 -9 0 -26 -16 -38 -35 -11 -19 -27 -35 -36
-35 -8 0 -24 -6 -36 -12 -17 -11 -22 -10 -29 2 -5 8 -51 85 -103 170 -51 85
-97 154 -103 153 -6 -1 -26 2 -46 6 -20 5 -42 5 -49 0 -7 -4 -19 -3 -26 3 -10
8 -23 0 -53 -33 -22 -25 -37 -50 -34 -59 3 -8 50 -90 105 -181 86 -143 99
-170 89 -186 -10 -15 -7 -33 15 -96 14 -42 23 -81 20 -87 -8 -12 9 -77 42
-160 32 -83 35 -86 88 -99 25 -6 69 -26 98 -45 28 -18 95 -54 147 -79 122 -58
147 -78 161 -130 10 -35 39 -69 171 -198 l160 -156 -7 -48 c-5 -30 -18 -59
-36 -80 -53 -60 -63 -124 -29 -190 11 -22 20 -59 20 -82 l0 -43 635 0 635 0 0
28 c0 55 -100 189 -146 196 -16 2 -22 20 -36 107 -33 200 -50 381 -43 469 5
75 3 89 -14 117 -15 23 -28 33 -46 33 -26 0 -31 13 -19 57 l6 22 30 -22 c25
-19 43 -22 113 -22 90 1 105 6 85 30 -11 13 -4 15 59 15 68 0 71 1 61 19 -5
11 -10 22 -10 24 0 2 32 8 70 11 63 7 88 18 59 28 -13 4 30 100 49 106 8 2 13
-9 14 -35 0 -21 2 -42 3 -48 2 -5 3 -17 4 -25 1 -10 7 -6 16 10 12 23 14 23
21 7 3 -10 1 -30 -5 -43 -13 -29 -44 -214 -37 -221 2 -2 18 15 35 39 47 66 85
107 76 83 -14 -43 -33 -154 -39 -230 l-7 -80 21 24 20 23 0 -111 c0 -64 4
-111 10 -111 5 0 23 21 40 46 18 25 34 43 37 40 3 -2 0 -28 -5 -58 -22 -111
-23 -138 -8 -138 8 0 36 20 63 45 l50 44 -22 -94 c-13 -52 -20 -95 -17 -95 3
0 16 10 29 22 l23 22 -6 -50 -5 -49 19 23 c20 22 39 31 27 12 -3 -6 -2 -10 4
-10 6 0 15 19 22 43 9 37 65 147 74 147 2 0 -5 -28 -16 -62 -20 -66 -59 -279
-59 -319 1 -23 1 -23 15 -5 19 25 19 15 1 -29 l-15 -35 198 0 197 0 13 121
c13 128 18 149 32 149 13 0 11 -23 -6 -113 -8 -43 -15 -96 -15 -118 0 -39 0
-39 40 -39 l40 0 0 838 0 837 -83 42 c-265 136 -503 342 -643 557 -27 42 -52
76 -55 76 -3 0 -11 -18 -18 -41 -7 -22 -26 -55 -43 -72 -17 -18 -50 -62 -73
-98 -63 -97 -267 -330 -332 -379 l-56 -42 -22 24 c-20 20 -24 38 -30 136 -7
112 -7 114 14 107 16 -5 21 -2 21 12 1 16 3 15 20 -6 11 -13 20 -29 20 -37 0
-8 5 -14 10 -14 6 0 10 4 10 9 0 5 9 13 20 16 18 6 20 15 20 118 l1 112 24
-28 c16 -18 25 -40 25 -62 0 -19 5 -37 10 -40 6 -3 10 4 10 15 0 16 5 20 15
16 18 -6 19 -1 5 25 -8 13 -7 25 2 42 7 12 11 47 9 80 -3 56 4 68 27 45 24
-24 21 -1 -4 33 -44 59 -50 77 -14 44 l32 -30 -32 65 c-18 36 -47 86 -66 111
-25 35 -40 74 -64 175 -61 246 -86 290 -242 427 -96 84 -199 147 -240 147 -11
0 -39 5 -63 11 -41 10 -45 14 -61 63 -9 28 -21 56 -26 63 -9 12 -118 38 -203
48 l-50 6 -87 -88z m969 -1355 c-3 -8 -6 -5 -6 6 -1 11 2 17 5 13 3 -3 4 -12
1 -19z m-173 -101 c18 -47 22 -142 6 -132 -5 3 -10 14 -10 23 0 10 -11 37 -24
62 -19 35 -22 49 -13 67 15 33 22 29 41 -20z m-1407 -494 c10 -16 41 -56 70
-91 83 -99 62 -96 -39 6 -75 75 -90 94 -78 102 23 15 28 12 47 -17z m1873
-273 c0 -5 -4 -10 -10 -10 -5 0 -10 5 -10 10 0 6 5 10 10 10 6 0 10 -4 10 -10z
m-450 -400 c13 -85 26 -330 17 -330 -3 0 -20 37 -37 82 -31 80 -32 87 -26 188
11 183 24 200 46 60z"/>
</g>
</svg>
