<?xml version="1.0" standalone="no"?>
<!DOCTYPE svg PUBLIC "-//W3C//DTD SVG 20010904//EN"
 "http://www.w3.org/TR/2001/REC-SVG-20010904/DTD/svg10.dtd">
<svg version="1.0" xmlns="http://www.w3.org/2000/svg"
 width="480.000000pt" height="360.000000pt" viewBox="0 0 480.000000 360.000000"
 preserveAspectRatio="xMidYMid meet">
<metadata>
Created by potrace 1.16, written by Peter Selinger 2001-2019
</metadata>
<rect width="1" height="360" fill="#000000"/>
<rect x="479" width="1" height="360" fill="#000000"/>
<rect width="480" height="1" fill="#000000"/>
<rect y="359" width="480" height="1" fill="#000000"/>
<g transform="translate(0.000000,360.000000) scale(0.100000,-0.100000)"
fill="#000000" stroke="none">
<path d="M0 1800 l0 -1800 2133 0 2133 0 46 117 c26 65 58 154 72 198 26 84
45 135 91 249 27 66 28 69 10 82 -10 8 -25 14 -32 14 -23 0 -93 40 -93 53 0
16 23 49 70 103 36 43 73 137 69 177 -5 43 14 110 52 191 51 109 72 249 63
418 -8 142 -3 138 -155 109 -153 -29 -292 -44 -354 -39 -45 4 -68 13 -123 50
-37 25 -96 62 -132 83 -36 21 -73 47 -83 57 -10 10 -38 23 -63 29 -47 12 -84
52 -84 92 0 10 -11 29 -25 43 -14 14 -23 29 -20 34 3 5 -5 16 -17 24 -34 24
-11 41 38 27 22 -6 55 -11 75 -11 63 0 95 -11 133 -46 20 -19 43 -34 51 -34 8
0 44 -21 82 -47 157 -108 166 -113 210 -113 24 0 98 11 165 25 68 14 159 32
203 41 128 25 133 28 125 74 -10 55 -34 86 -75 100 -38 13 -55 40 -55 88 0 45
43 154 74 184 34 35 30 48 -32 119 -30 33 -74 63 -162 110 -131 68 -160 97
-135 133 12 15 24 18 77 14 75 -4 137 -32 199 -88 49 -45 97 -73 110 -64 15 9
-24 65 -56 81 -69 35 -84 77 -44 127 47 59 146 9 194 -99 24 -55 51 -129 58
-160 3 -11 5 222 6 518 l1 537 -2400 0 -2400 0 0 -1800z m3223 156 c3 -8 4
-22 3 -32 -3 -18 -44 -19 -1313 -19 -1100 0 -1313 2 -1327 14 -19 16 -7 37 27
44 12 2 603 5 1313 6 1096 1 1293 -1 1297 -13z"/>
<path d="M4764 582 c-5 -4 -60 -106 -121 -227 -61 -121 -127 -247 -147 -279
-20 -33 -36 -63 -36 -68 0 -4 77 -8 170 -8 l170 0 0 295 c0 300 -1 311 -36
287z"/>
</g>
</svg>
