<?xml version="1.0" standalone="no"?>
<!DOCTYPE svg PUBLIC "-//W3C//DTD SVG 20010904//EN"
 "http://www.w3.org/TR/2001/REC-SVG-20010904/DTD/svg10.dtd">
<svg version="1.0" xmlns="http://www.w3.org/2000/svg"
 width="480.000000pt" height="360.000000pt" viewBox="0 0 480.000000 360.000000"
 preserveAspectRatio="xMidYMid meet">
<metadata>
Created by potrace 1.16, written by Peter Selinger 2001-2019
</metadata>
<rect width="1" height="360" fill="#000000"/>
<rect x="479" width="1" height="360" fill="#000000"/>
<rect width="480" height="1" fill="#000000"/>
<rect y="359" width="480" height="1" fill="#000000"/>
<g transform="translate(0.000000,360.000000) scale(0.100000,-0.100000)"
fill="#000000" stroke="none">
<path d="M0 1800 l0 -1800 784 0 784 0 12 31 c8 17 51 97 97 178 80 139 183
342 183 360 0 11 45 115 69 161 10 19 24 66 30 103 11 63 10 70 -10 98 -20 29
-20 31 -4 65 17 35 16 36 -7 52 -15 11 -43 17 -83 17 -74 0 -135 27 -135 59 0
21 -31 88 -64 139 -19 27 -18 29 7 95 15 37 29 83 33 102 7 42 34 75 95 117
47 33 215 111 284 133 22 7 49 16 60 20 11 4 36 38 55 75 38 73 62 95 136 122
48 18 49 19 74 96 15 42 29 79 31 82 3 2 11 -17 18 -43 7 -26 18 -58 25 -72 8
-14 12 -30 10 -35 -3 -6 22 -23 54 -37 72 -33 93 -57 121 -135 22 -60 24 -62
74 -78 29 -9 106 -42 172 -75 141 -69 193 -114 205 -182 5 -25 25 -71 44 -104
l35 -59 -15 -60 c-19 -72 -29 -92 -62 -128 -26 -27 -52 -36 -52 -17 0 6 -5 10
-10 10 -6 0 -24 10 -41 22 l-29 22 -28 -31 c-15 -17 -42 -49 -59 -71 -53 -66
-192 -121 -224 -90 -8 8 -47 33 -87 57 -72 42 -74 42 -110 28 -36 -15 -37 -17
-35 -61 2 -25 -2 -46 -7 -46 -13 0 -6 -98 8 -112 17 -17 15 -123 -2 -137 -8
-7 -17 -23 -20 -37 -4 -13 -15 -33 -26 -44 -13 -13 -20 -34 -20 -60 0 -23 -5
-40 -11 -40 -8 0 -10 -18 -6 -57 6 -52 5 -55 -7 -34 -11 19 -14 21 -19 7 -10
-26 46 -234 88 -323 l38 -83 1173 0 1174 0 0 1800 0 1800 -421 -2 -422 -3 -37
-90 c-84 -201 -240 -427 -409 -594 -142 -138 -327 -249 -595 -356 -177 -70
-279 -119 -317 -153 -19 -17 -47 -57 -63 -91 -16 -33 -32 -59 -34 -56 -3 3 -7
22 -9 42 -7 62 -34 111 -210 375 -92 139 -170 257 -172 262 -2 5 -35 57 -73
115 -94 144 -171 306 -204 426 -14 55 -28 106 -30 113 -3 9 -192 12 -904 12
l-900 0 0 -1800z"/>
<path d="M1729 1188 c22 -62 32 -76 61 -90 38 -19 86 -23 109 -9 12 7 10 17
-12 53 -14 23 -36 53 -49 65 -27 25 -88 53 -117 53 -18 0 -17 -4 8 -72z"/>
<path d="M3086 1235 c-49 -17 -90 -47 -94 -68 -5 -23 71 -71 98 -62 21 7 49
59 64 118 8 32 -6 34 -68 12z"/>
<path d="M2655 1093 c-11 -2 -45 -11 -75 -20 l-54 -15 79 -44 c87 -48 136 -55
196 -30 37 16 106 82 96 92 -18 18 -184 30 -242 17z"/>
</g>
</svg>
