<?xml version="1.0" standalone="no"?>
<!DOCTYPE svg PUBLIC "-//W3C//DTD SVG 20010904//EN"
 "http://www.w3.org/TR/2001/REC-SVG-20010904/DTD/svg10.dtd">
<svg version="1.0" xmlns="http://www.w3.org/2000/svg"
 width="480.000000pt" height="360.000000pt" viewBox="0 0 480.000000 360.000000"
 preserveAspectRatio="xMidYMid meet">
<metadata>
Created by potrace 1.16, written by Peter Selinger 2001-2019
</metadata>
<rect width="1" height="360" fill="#000000"/>
<rect x="479" width="1" height="360" fill="#000000"/>
<rect width="480" height="1" fill="#000000"/>
<rect y="359" width="480" height="1" fill="#000000"/>
<g transform="translate(0.000000,360.000000) scale(0.100000,-0.100000)"
fill="#000000" stroke="none">
<path d="M2285 2467 c-9 -5 -28 -7 -42 -4 -21 4 -28 -1 -44 -37 -24 -52 -24
-68 0 -97 10 -14 24 -43 31 -66 7 -23 17 -40 21 -37 5 3 9 0 9 -6 0 -6 -7 -13
-15 -16 -8 -4 -15 -14 -15 -24 0 -10 -20 -44 -45 -76 -25 -31 -45 -63 -45 -71
0 -7 9 -22 21 -34 17 -17 20 -30 16 -67 -7 -72 -35 -138 -63 -151 -13 -6 -30
-22 -36 -37 -11 -23 -9 -28 11 -44 13 -9 21 -22 17 -28 -13 -22 -77 -433 -83
-537 l-6 -110 54 -28 c30 -15 79 -32 111 -38 41 -8 58 -16 61 -31 7 -27 -25
-45 -108 -58 -111 -19 -115 -20 -115 -35 0 -14 57 -35 97 -35 12 0 26 -8 32
-18 8 -15 25 -17 119 -16 166 1 259 34 193 68 -16 9 -36 16 -44 16 -13 0 -55
87 -46 94 2 2 31 11 64 22 l60 19 -1 55 c-2 133 -45 489 -70 580 -35 132 -36
146 -3 215 27 59 28 62 15 113 -9 31 -10 54 -5 58 5 3 6 11 2 17 -4 7 -8 30
-8 52 0 22 -10 59 -21 82 -18 36 -19 45 -8 54 8 6 22 9 32 7 15 -4 23 5 36 42
17 48 17 48 -8 97 -47 89 -122 138 -171 110z m66 -580 c-8 -8 -11 -5 -11 9 0
27 14 41 18 19 2 -9 -1 -22 -7 -28z"/>
<path d="M4624 1230 c-205 -62 -230 -74 -238 -113 -13 -64 -8 -83 26 -98 20
-9 35 -24 38 -39 6 -23 10 -25 60 -22 48 3 55 1 76 -25 18 -23 26 -26 40 -17
10 6 22 24 27 40 16 49 54 91 102 110 l45 19 0 98 c0 53 -3 97 -7 97 -5 -1
-80 -23 -169 -50z"/>
</g>
</svg>
