<?xml version="1.0" standalone="no"?>
<!DOCTYPE svg PUBLIC "-//W3C//DTD SVG 20010904//EN"
 "http://www.w3.org/TR/2001/REC-SVG-20010904/DTD/svg10.dtd">
<svg version="1.0" xmlns="http://www.w3.org/2000/svg"
 width="480.000000pt" height="360.000000pt" viewBox="0 0 480.000000 360.000000"
 preserveAspectRatio="xMidYMid meet">
<metadata>
Created by potrace 1.16, written by Peter Selinger 2001-2019
</metadata>
<rect width="1" height="360" fill="#000000"/>
<rect x="479" width="1" height="360" fill="#000000"/>
<rect width="480" height="1" fill="#000000"/>
<rect y="359" width="480" height="1" fill="#000000"/>
<g transform="translate(0.000000,360.000000) scale(0.100000,-0.100000)"
fill="#000000" stroke="none">
<path d="M1490 2926 c-25 -7 -55 -16 -67 -20 -12 -4 -24 -2 -28 4 -11 17 -61
11 -80 -10 -15 -17 -16 -24 -6 -43 10 -18 8 -29 -8 -64 -28 -56 -28 -89 -2
-149 17 -38 29 -53 47 -57 20 -3 22 -2 13 9 -7 9 -7 14 -1 14 5 0 15 -7 22
-15 11 -13 9 -20 -9 -38 -24 -26 -27 -43 -8 -50 7 -3 26 -24 42 -48 16 -24 36
-50 44 -57 14 -11 13 -13 -4 -18 -11 -3 -31 -20 -44 -36 -23 -28 -24 -33 -10
-56 14 -26 13 -28 -48 -88 -82 -82 -118 -157 -110 -228 5 -43 12 -56 43 -83
39 -35 43 -53 30 -154 -5 -40 -18 -72 -46 -114 -29 -44 -37 -63 -30 -76 7 -12
1 -39 -21 -94 -21 -50 -28 -80 -21 -84 7 -4 5 -28 -8 -74 -10 -37 -28 -129
-40 -205 -11 -75 -38 -247 -60 -382 -21 -135 -41 -290 -45 -345 -7 -106 -32
-318 -41 -347 -5 -17 24 -18 506 -18 l512 0 -6 27 c-21 105 -69 418 -86 568
-23 198 -74 425 -144 637 -39 118 -41 128 -23 128 15 0 8 12 -34 61 l-52 61
43 88 43 88 -13 122 c-13 119 -13 122 8 142 21 21 21 21 1 37 -20 16 -20 18
-5 61 9 25 16 62 16 82 0 39 -45 194 -62 216 -8 9 -6 12 6 12 9 0 16 6 16 13
0 8 3 7 10 -3 7 -12 12 -12 29 4 19 17 21 17 27 2 11 -29 24 -17 24 23 0 22 5
43 10 46 6 3 10 21 11 38 0 30 1 31 10 9 13 -34 32 -22 42 26 6 30 12 39 22
35 24 -9 18 17 -25 102 -22 44 -40 92 -40 107 0 18 -14 41 -42 71 -24 25 -58
60 -76 79 -53 56 -135 71 -232 44z"/>
<path d="M3220 2255 c-111 -33 -162 -54 -182 -72 -33 -29 -20 -109 21 -125 11
-4 23 -120 13 -133 -4 -5 -23 -17 -42 -26 -61 -29 -148 -100 -165 -136 -24
-49 -16 -101 18 -127 25 -18 40 -21 125 -18 53 1 110 3 127 5 23 1 30 -3 33
-18 5 -33 24 -65 39 -65 7 0 13 -6 13 -12 0 -9 4 -8 10 2 8 13 10 12 10 -3 0
-10 -8 -20 -17 -24 -10 -3 -29 -14 -43 -23 -44 -29 -203 -108 -293 -144 -31
-13 -43 -26 -67 -78 -43 -90 -40 -118 16 -178 61 -65 102 -77 176 -53 44 15
56 24 71 55 22 45 13 92 -27 135 l-27 28 21 17 c39 32 170 99 180 93 5 -3 10
-21 10 -40 0 -18 11 -53 25 -76 14 -24 34 -73 46 -108 21 -62 21 -66 5 -118
-9 -29 -14 -58 -11 -63 4 -6 -4 -30 -18 -53 -13 -23 -45 -98 -71 -167 -26 -69
-81 -194 -123 -277 l-77 -153 24 -25 c24 -26 135 -72 185 -77 28 -3 31 -7 38
-55 7 -43 5 -58 -12 -92 -12 -22 -21 -43 -21 -46 0 -3 40 -5 89 -5 l89 0 10
33 c6 17 13 58 17 90 10 89 29 68 33 -36 l3 -87 67 0 68 0 19 91 20 91 85 25
c46 13 90 29 97 35 18 15 16 43 -7 88 -11 22 -43 149 -70 282 -28 134 -55 258
-61 276 -7 22 -8 37 -1 44 6 6 3 34 -9 81 -19 76 -37 266 -20 213 14 -40 37
-63 112 -107 95 -57 164 -53 235 13 29 27 31 32 23 73 -10 52 -30 95 -55 116
-10 8 -61 18 -129 25 -106 10 -114 12 -156 46 -24 19 -58 43 -74 52 -18 10
-43 40 -58 70 -30 57 -34 78 -13 70 8 -3 17 4 21 18 11 31 13 132 3 138 -4 4
23 23 61 43 83 45 142 90 159 123 12 22 11 30 -6 62 -33 64 -69 77 -207 76
l-121 0 -32 53 c-27 42 -31 56 -22 72 16 31 12 51 -19 82 -35 35 -58 36 -161
4z"/>
</g>
</svg>
