<?xml version="1.0" standalone="no"?>
<!DOCTYPE svg PUBLIC "-//W3C//DTD SVG 20010904//EN"
 "http://www.w3.org/TR/2001/REC-SVG-20010904/DTD/svg10.dtd">
<svg version="1.0" xmlns="http://www.w3.org/2000/svg"
 width="480.000000pt" height="360.000000pt" viewBox="0 0 480.000000 360.000000"
 preserveAspectRatio="xMidYMid meet">
<metadata>
Created by potrace 1.16, written by Peter Selinger 2001-2019
</metadata>
<rect width="1" height="360" fill="#000000"/>
<rect x="479" width="1" height="360" fill="#000000"/>
<rect width="480" height="1" fill="#000000"/>
<rect y="359" width="480" height="1" fill="#000000"/>
<g transform="translate(0.000000,360.000000) scale(0.100000,-0.100000)"
fill="#000000" stroke="none">
<path d="M0 1800 l0 -1800 865 0 c476 0 865 2 865 5 0 9 -86 54 -158 84 -100
40 -108 49 -117 129 -9 86 -15 97 -76 128 -56 28 -56 36 7 75 23 14 33 27 30
38 -18 61 -17 66 13 84 16 9 76 50 133 90 57 39 167 110 245 156 91 54 170
109 219 155 84 77 376 413 401 460 8 15 17 52 20 81 l5 52 -47 6 c-26 4 -60 7
-75 7 -15 0 -38 8 -51 19 l-23 18 57 38 c68 45 81 63 98 138 10 48 10 70 -1
125 -7 37 -19 81 -26 98 -7 17 -18 60 -24 97 -10 56 -10 71 4 98 9 18 16 33
16 34 0 0 -16 -1 -35 -3 -21 -3 -35 0 -35 7 0 6 3 11 8 11 12 0 75 41 70 46
-3 2 -20 -2 -39 -9 -40 -16 -77 -3 -71 26 2 9 -3 17 -10 17 -13 0 -53 55 -53
75 0 6 -4 16 -9 24 -6 9 -4 18 7 26 21 15 22 25 1 25 -23 0 -13 34 11 38 29 4
65 24 65 35 0 5 -16 7 -35 5 -34 -4 -35 -3 -18 14 10 10 43 22 73 28 63 12
115 45 180 113 61 65 156 111 230 111 99 1 195 -65 258 -176 28 -49 32 -64 32
-132 0 -42 -4 -76 -9 -76 -5 0 -23 -13 -41 -30 -32 -30 -55 -38 -62 -21 -1 4
-23 0 -47 -10 -34 -15 -42 -23 -38 -39 4 -15 -5 -24 -40 -42 -25 -13 -48 -28
-50 -35 -3 -7 -14 -13 -24 -13 -10 0 -19 -5 -19 -10 0 -17 19 -23 229 -70 168
-38 161 -34 374 -196 32 -24 50 -46 54 -65 7 -37 17 -43 45 -28 85 45 238 -71
238 -181 0 -38 -23 -56 -45 -34 -9 9 -14 23 -11 30 3 8 8 20 11 27 9 21 -37
80 -80 104 -51 29 -53 29 -66 -3 -7 -21 -6 -31 6 -44 8 -9 15 -32 16 -51 0
-32 1 -32 11 -12 16 34 28 28 21 -9 -6 -30 -5 -32 10 -19 15 12 17 10 17 -23
0 -24 -12 -54 -35 -90 -39 -61 -42 -82 -20 -141 29 -82 18 -174 -50 -410 -39
-138 -51 -163 -59 -124 -2 13 -14 67 -25 119 -41 190 -46 324 -15 411 20 59
18 88 -13 155 -19 43 -27 77 -28 124 -3 86 -17 120 -50 120 -18 0 -45 17 -83
53 -116 109 -142 125 -211 133 -71 8 -69 13 -17 -64 39 -58 33 -108 -24 -199
-31 -48 -47 -88 -56 -138 -21 -106 -19 -115 31 -167 25 -26 45 -51 45 -56 0
-4 19 -19 43 -32 64 -35 108 -70 101 -81 -4 -6 -14 -3 -25 7 -36 32 -31 6 14
-73 48 -85 63 -123 49 -123 -12 0 -36 29 -50 64 -7 16 -15 26 -19 23 -3 -3 4
-24 16 -47 11 -22 21 -51 21 -63 0 -15 -12 -2 -41 46 -46 77 -68 89 -39 21 13
-30 17 -51 11 -61 -7 -13 -11 -8 -20 20 -15 45 -41 69 -41 38 0 -20 -9 -25
-38 -22 -9 2 -12 -4 -8 -16 5 -17 26 -165 26 -184 0 -5 15 -9 33 -10 29 -1 30
-2 7 -8 -17 -4 -26 -15 -28 -31 -2 -14 11 -164 29 -335 17 -171 34 -354 36
-407 l5 -98 909 0 909 0 0 1800 0 1800 -1454 0 c-1420 0 -1454 0 -1449 -19 8
-30 -16 -35 -29 -7 l-11 26 -794 0 c-698 0 -793 -2 -793 -15 0 -8 -7 -15 -15
-15 -9 0 -18 7 -21 15 -5 12 -28 15 -120 15 l-114 0 0 -1800z m4430 1561 c0
-12 -29 -35 -36 -28 -11 10 5 37 21 37 8 0 15 -4 15 -9z m-2715 -135 c10 -15
15 -40 13 -68 l-3 -43 -22 35 c-23 35 -31 100 -13 100 5 0 17 -11 25 -24z
m-488 -118 c-3 -8 -6 -5 -6 6 -1 11 2 17 5 13 3 -3 4 -12 1 -19z m457 -88 c13
-13 -3 -30 -29 -30 -26 0 -58 26 -50 40 6 10 65 2 79 -10z m336 -115 c-14 -16
-40 -20 -40 -6 0 10 17 19 39 20 11 1 11 -2 1 -14z m227 -707 c-3 -7 -5 -2 -5
12 0 14 2 19 5 13 2 -7 2 -19 0 -25z m-1409 10 c15 -15 16 -48 1 -48 -23 0
-49 22 -49 40 0 23 29 27 48 8z m2856 -9 c27 -13 43 -49 20 -49 -16 0 -54 35
-54 50 0 13 3 13 34 -1z m114 -81 c31 -31 -3 -39 -39 -8 l-24 19 26 1 c14 0
30 -5 37 -12z m-2457 -46 c-3 -43 -25 -72 -54 -72 -17 0 -18 5 -13 38 7 36 52
90 64 77 4 -3 5 -23 3 -43z m309 -71 c0 -18 -34 -51 -52 -51 -14 0 -8 33 9 52
21 24 43 23 43 -1z m-875 -525 c14 -33 11 -96 -5 -96 -20 0 -37 79 -24 114 9
23 13 20 29 -18z m3183 -982 c14 -10 22 -25 22 -45 0 -25 -4 -30 -21 -27 -28
4 -64 51 -56 72 8 20 26 20 55 0z m-398 -34 c12 -8 12 -10 -5 -10 -11 0 -27 5
-35 10 -12 8 -12 10 5 10 11 0 27 -5 35 -10z"/>
<path d="M2460 2260 c-13 -8 -12 -10 3 -10 9 0 17 5 17 10 0 12 -1 12 -20 0z"/>
<path d="M2860 1143 c0 -10 4 -24 9 -32 13 -21 24 5 11 29 -13 25 -20 26 -20
3z"/>
</g>
</svg>
