<?xml version="1.0" standalone="no"?>
<!DOCTYPE svg PUBLIC "-//W3C//DTD SVG 20010904//EN"
 "http://www.w3.org/TR/2001/REC-SVG-20010904/DTD/svg10.dtd">
<svg version="1.0" xmlns="http://www.w3.org/2000/svg"
 width="480.000000pt" height="360.000000pt" viewBox="0 0 480.000000 360.000000"
 preserveAspectRatio="xMidYMid meet">
<metadata>
Created by potrace 1.16, written by Peter Selinger 2001-2019
</metadata>
<rect width="1" height="360" fill="#000000"/>
<rect x="479" width="1" height="360" fill="#000000"/>
<rect width="480" height="1" fill="#000000"/>
<rect y="359" width="480" height="1" fill="#000000"/>
<g transform="translate(0.000000,360.000000) scale(0.100000,-0.100000)"
fill="#000000" stroke="none">
<path d="M0 1800 l0 -1800 1289 0 1289 0 -8 33 c-15 53 -80 640 -90 805 -5 84
-12 157 -15 162 -3 5 -10 56 -14 112 -5 57 -18 141 -29 188 -12 47 -29 119
-38 160 -9 41 -33 116 -53 165 l-36 90 1 155 c0 109 5 175 17 223 24 95 22
108 -18 147 -22 21 -35 44 -35 59 0 36 -22 76 -42 76 -25 0 -57 35 -68 74 -18
67 -12 120 21 179 26 46 30 62 25 97 -5 32 -3 45 10 55 13 11 14 25 9 67 l-7
54 29 -3 c27 -3 28 -1 28 42 l0 45 43 3 c32 2 59 -5 105 -27 34 -17 93 -40
132 -52 63 -19 77 -29 150 -103 84 -84 149 -177 252 -356 33 -58 79 -134 102
-170 49 -75 132 -243 155 -313 9 -26 16 -70 16 -98 0 -28 7 -76 16 -106 11
-36 14 -73 10 -111 -3 -31 -7 -75 -9 -97 -2 -22 -8 -49 -14 -61 -7 -11 -9 -38
-6 -60 4 -29 1 -43 -11 -53 -9 -7 -16 -22 -16 -32 0 -23 -44 -95 -61 -101 -8
-3 -3 -20 13 -53 26 -52 40 -103 58 -220 6 -38 26 -158 45 -265 41 -237 80
-481 96 -612 l11 -98 724 0 724 0 0 1800 0 1800 -2400 0 -2400 0 0 -1800z"/>
</g>
</svg>
