<?xml version="1.0" standalone="no"?>
<!DOCTYPE svg PUBLIC "-//W3C//DTD SVG 20010904//EN"
 "http://www.w3.org/TR/2001/REC-SVG-20010904/DTD/svg10.dtd">
<svg version="1.0" xmlns="http://www.w3.org/2000/svg"
 width="480.000000pt" height="360.000000pt" viewBox="0 0 480.000000 360.000000"
 preserveAspectRatio="xMidYMid meet">
<metadata>
Created by potrace 1.16, written by Peter Selinger 2001-2019
</metadata>
<rect width="1" height="360" fill="#000000"/>
<rect x="479" width="1" height="360" fill="#000000"/>
<rect width="480" height="1" fill="#000000"/>
<rect y="359" width="480" height="1" fill="#000000"/>
<g transform="translate(0.000000,360.000000) scale(0.100000,-0.100000)"
fill="#000000" stroke="none">
<path d="M1566 2589 c-2 -8 -8 -36 -12 -64 -7 -39 -13 -50 -26 -49 -24 2 -23
-27 1 -33 20 -5 21 -2 -18 -112 -22 -64 -82 -152 -128 -188 -22 -18 -53 -51
-69 -74 l-29 -42 -85 7 c-47 3 -102 9 -123 12 -37 7 -40 5 -117 -73 -44 -44
-80 -84 -80 -89 0 -6 7 -19 15 -30 14 -19 14 -19 30 4 18 24 35 21 35 -7 0 -9
6 -26 14 -36 13 -18 17 -17 118 8 57 14 111 29 120 32 26 10 13 -73 -25 -161
-30 -70 -206 -622 -252 -789 -9 -33 -30 -104 -48 -158 -24 -74 -29 -102 -21
-115 6 -9 39 -24 75 -33 l64 -16 -30 -14 c-59 -27 -103 -69 -110 -106 -4 -22
-2 -40 7 -50 19 -23 110 -11 181 23 63 31 60 23 61 154 1 41 5 81 9 88 5 7 31
12 68 12 l59 0 0 -57 c0 -36 5 -62 15 -73 14 -15 13 -22 -10 -63 -35 -62 -46
-102 -32 -116 16 -16 108 -13 130 4 20 14 36 70 37 123 0 29 3 32 33 32 18 0
44 10 59 23 32 26 33 29 22 269 -7 162 -1 248 37 558 22 179 50 285 79 300 10
5 26 31 36 57 9 27 23 55 30 63 6 8 22 35 34 60 12 25 30 54 39 65 10 11 29
40 43 65 15 25 35 54 45 65 10 11 28 33 41 49 21 27 21 30 6 47 -13 15 -15 26
-8 51 9 31 13 33 59 38 46 5 50 7 50 32 0 15 6 33 13 39 18 19 15 52 -6 66
-17 10 -30 44 -47 126 -3 15 -13 31 -23 34 -9 3 -25 13 -34 21 -17 15 -40 18
-174 29 -58 4 -77 2 -99 -13 -26 -17 -28 -17 -41 1 -10 14 -14 15 -18 4z"/>
</g>
</svg>
