<?xml version="1.0" standalone="no"?>
<!DOCTYPE svg PUBLIC "-//W3C//DTD SVG 20010904//EN"
 "http://www.w3.org/TR/2001/REC-SVG-20010904/DTD/svg10.dtd">
<svg version="1.0" xmlns="http://www.w3.org/2000/svg"
 width="480.000000pt" height="360.000000pt" viewBox="0 0 480.000000 360.000000"
 preserveAspectRatio="xMidYMid meet">
<metadata>
Created by potrace 1.16, written by Peter Selinger 2001-2019
</metadata>
<rect width="1" height="360" fill="#000000"/>
<rect x="479" width="1" height="360" fill="#000000"/>
<rect width="480" height="1" fill="#000000"/>
<rect y="359" width="480" height="1" fill="#000000"/>
<g transform="translate(0.000000,360.000000) scale(0.100000,-0.100000)"
fill="#000000" stroke="none">
<path d="M0 1800 l0 -1800 870 0 c852 0 870 0 870 19 0 13 15 28 42 43 54 30
70 79 43 137 -15 34 -15 59 -6 261 10 209 9 224 -7 236 -17 11 -17 19 -4 116
l15 103 -41 40 c-55 55 -63 107 -33 217 52 197 117 297 217 333 27 10 53 22
58 26 8 7 22 155 41 436 7 106 2 144 -37 273 -14 48 -19 88 -16 155 l2 90 -74
6 c-41 4 -110 7 -152 8 -84 1 -108 7 -108 26 0 17 120 174 173 227 l44 43 -44
55 c-58 74 -57 86 12 95 30 3 55 8 55 11 0 2 -12 68 -26 145 -16 85 -22 145
-17 150 11 11 64 -40 175 -171 l81 -96 51 17 c111 38 639 55 731 24 25 -9 51
-13 57 -9 6 4 28 7 48 6 31 -2 41 4 67 36 44 55 202 196 210 188 4 -4 0 -44
-10 -89 -9 -45 -19 -109 -22 -142 -4 -33 -14 -84 -22 -113 -10 -31 -12 -57 -7
-62 5 -5 39 -14 75 -19 78 -13 272 -67 313 -88 16 -8 25 -18 19 -24 -11 -11
-194 -67 -245 -75 -45 -8 -57 -20 -28 -29 12 -4 19 -12 17 -18 -6 -19 -65 -35
-183 -49 -109 -14 -109 -14 -115 -43 -3 -17 0 -46 7 -65 37 -100 48 -229 49
-577 l2 -342 24 -33 c55 -73 199 -328 210 -372 15 -61 7 -127 -21 -166 l-22
-32 21 -72 c13 -42 19 -84 16 -101 -7 -32 32 -228 63 -316 17 -51 21 -55 60
-63 54 -13 60 -33 33 -114 -20 -59 -20 -66 -6 -148 8 -48 15 -88 15 -90 0 -2
284 -4 630 -4 l630 0 0 1800 0 1800 -2400 0 -2400 0 0 -1800z"/>
<path d="M2215 170 c-17 -7 -15 -9 13 -9 17 -1 32 4 32 9 0 12 -17 12 -45 0z"/>
</g>
</svg>
