<?xml version="1.0" standalone="no"?>
<!DOCTYPE svg PUBLIC "-//W3C//DTD SVG 20010904//EN"
 "http://www.w3.org/TR/2001/REC-SVG-20010904/DTD/svg10.dtd">
<svg version="1.0" xmlns="http://www.w3.org/2000/svg"
 width="480.000000pt" height="360.000000pt" viewBox="0 0 480.000000 360.000000"
 preserveAspectRatio="xMidYMid meet">
<metadata>
Created by potrace 1.16, written by Peter Selinger 2001-2019
</metadata>
<rect width="1" height="360" fill="#000000"/>
<rect x="479" width="1" height="360" fill="#000000"/>
<rect width="480" height="1" fill="#000000"/>
<rect y="359" width="480" height="1" fill="#000000"/>
<g transform="translate(0.000000,360.000000) scale(0.100000,-0.100000)"
fill="#000000" stroke="none">
<path d="M0 3121 l0 -479 35 -44 c79 -98 272 -326 438 -514 83 -95 91 -102
134 -108 25 -3 740 -6 1589 -6 l1544 0 0 -35 0 -35 -1502 0 c-827 0 -1526 -3
-1554 -6 l-51 -6 47 -52 c167 -181 297 -392 336 -545 28 -111 0 -238 -78 -352
-30 -45 -102 -98 -115 -85 -4 3 -10 50 -14 103 -9 116 -19 166 -58 276 -59
167 -170 376 -288 541 -24 34 -51 73 -60 88 -16 24 -25 27 -101 34 -88 7 -288
1 -298 -9 -3 -3 8 -34 24 -69 17 -35 35 -88 41 -119 14 -67 64 -137 161 -223
75 -67 118 -124 150 -198 25 -58 27 -108 7 -183 -9 -34 -10 -62 -4 -85 13 -50
1 -77 -45 -106 -55 -35 -181 -50 -233 -28 -19 8 -50 14 -70 14 l-35 0 0 -445
0 -445 2400 0 2400 0 0 883 0 883 -48 13 c-111 28 -155 81 -147 176 3 33 7
105 10 159 3 69 9 104 20 116 10 11 15 36 15 72 0 31 3 64 6 73 8 19 95 65
124 65 20 0 20 4 20 580 l0 580 -2400 0 -2400 0 0 -479z"/>
<path d="M0 2175 l0 -205 133 1 c72 1 143 4 156 8 23 6 21 9 -40 86 -35 45
-104 133 -153 198 -49 64 -90 117 -92 117 -2 0 -4 -92 -4 -205z"/>
<path d="M4793 2010 c0 -30 2 -43 4 -27 2 15 2 39 0 55 -2 15 -4 2 -4 -28z"/>
</g>
</svg>
