<?xml version="1.0" standalone="no"?>
<!DOCTYPE svg PUBLIC "-//W3C//DTD SVG 20010904//EN"
 "http://www.w3.org/TR/2001/REC-SVG-20010904/DTD/svg10.dtd">
<svg version="1.0" xmlns="http://www.w3.org/2000/svg"
 width="480.000000pt" height="360.000000pt" viewBox="0 0 480.000000 360.000000"
 preserveAspectRatio="xMidYMid meet">
<metadata>
Created by potrace 1.16, written by Peter Selinger 2001-2019
</metadata>
<rect width="1" height="360" fill="#000000"/>
<rect x="479" width="1" height="360" fill="#000000"/>
<rect width="480" height="1" fill="#000000"/>
<rect y="359" width="480" height="1" fill="#000000"/>
<g transform="translate(0.000000,360.000000) scale(0.100000,-0.100000)"
fill="#000000" stroke="none">
<path d="M0 1800 l0 -1800 2400 0 2400 0 0 849 0 849 -26 6 c-15 4 -29 5 -32
1 -3 -3 0 -5 6 -5 7 0 12 -5 12 -12 0 -6 -3 -9 -6 -5 -8 8 -33 -16 -27 -26 3
-5 -5 -8 -18 -7 -40 4 -47 1 -54 -19 -4 -13 -12 -17 -33 -13 -26 4 -26 4 -7
-11 20 -15 19 -15 -6 -22 -18 -4 -40 0 -67 14 -59 30 -72 26 -24 -8 39 -29 60
-51 47 -51 -4 0 -39 21 -78 47 -80 51 -135 66 -390 104 -174 25 -269 57 -359
120 -18 14 -44 19 -86 19 l-60 0 10 -34 c6 -20 8 -64 3 -111 -6 -65 -11 -82
-35 -108 l-28 -32 -29 21 c-24 18 -29 31 -36 90 -12 96 -22 118 -50 109 -47
-15 -78 -17 -90 -6 -10 8 -38 7 -103 -4 -114 -19 -154 -19 -182 1 -24 17 -29
53 -10 72 7 7 10 12 7 12 -2 1 -31 4 -64 7 -33 4 -100 7 -150 7 -87 1 -90 0
-93 -23 -4 -23 -5 -23 -85 -17 -45 4 -131 16 -191 28 -101 20 -109 20 -118 5
-7 -13 -13 -15 -29 -7 -15 9 -19 7 -19 -5 0 -8 -3 -15 -8 -15 -16 0 -52 32
-52 46 0 17 -40 34 -81 34 -43 0 -86 25 -105 61 -26 52 -6 56 166 39 191 -20
597 -50 665 -50 l70 1 44 54 c24 29 56 76 71 103 15 28 37 63 49 78 30 39 27
67 -9 81 -30 11 -30 12 -30 90 0 89 -6 102 -51 117 -18 6 -41 23 -52 38 l-20
27 27 35 c15 20 34 36 42 36 7 0 14 4 14 9 0 8 -59 26 -115 34 -47 7 -139 45
-152 64 -20 26 -16 42 12 49 31 8 31 7 0 38 -25 25 -25 27 -10 56 9 16 20 30
26 30 6 0 33 -18 59 -40 l47 -40 62 31 c43 22 69 43 86 69 48 76 119 110 227
110 46 0 77 -9 150 -41 51 -22 103 -44 116 -49 69 -29 -30 -49 -118 -24 -79
22 -93 12 -84 -59 5 -38 11 -48 28 -51 11 -2 59 -14 106 -27 58 -15 110 -21
163 -20 55 1 76 -2 72 -9 -10 -15 26 -40 48 -34 9 3 24 -2 33 -10 14 -15 14
-16 -5 -16 -26 0 -26 -1 0 -44 l21 -36 -32 0 c-17 0 -29 -4 -26 -9 3 -5 -13
-9 -36 -9 -22 -1 -44 -6 -48 -12 -4 -7 -32 -15 -61 -19 l-54 -7 50 -8 c28 -4
55 -9 60 -10 16 -5 -92 -26 -130 -26 -41 0 -53 -15 -24 -30 38 -21 12 -21 -47
-1 -32 12 -59 19 -61 18 -4 -4 67 -170 78 -181 5 -6 9 2 9 20 0 48 32 90 79
101 41 11 41 11 49 -21 8 -30 10 -31 54 -28 29 2 49 -1 54 -9 4 -7 7 -44 6
-82 l-2 -69 62 6 c202 18 238 18 238 2 0 -23 -19 -31 -95 -36 l-70 -5 93 -24
c81 -20 92 -26 87 -42 -10 -31 16 -32 127 -9 122 26 438 41 462 21 7 -6 22 -9
32 -5 18 5 18 5 0 -10 -11 -9 -26 -16 -33 -16 -7 0 -10 -6 -7 -15 4 -8 17 -15
31 -15 13 0 22 -4 19 -9 -6 -10 20 -35 38 -37 6 -1 21 -5 34 -9 18 -6 20 -10
11 -21 -12 -15 -2 -18 25 -8 14 6 16 86 16 810 l0 804 -2400 0 -2400 0 0
-1800z"/>
<path d="M3127 2553 c-11 -10 -8 -43 3 -43 9 0 30 31 30 44 0 8 -25 7 -33 -1z"/>
<path d="M3219 2175 c-7 -17 -34 -60 -60 -96 -41 -55 -69 -107 -69 -125 0 -15
26 4 73 54 105 109 117 133 87 172 l-18 24 -13 -29z"/>
<path d="M3710 2139 c-7 -11 -7 -20 0 -24 19 -12 106 -16 145 -7 39 9 40 9 14
20 -14 5 -53 14 -88 19 -55 9 -63 8 -71 -8z"/>
<path d="M3965 2080 c-3 -5 3 -10 14 -10 12 0 21 5 21 10 0 6 -6 10 -14 10 -8
0 -18 -4 -21 -10z"/>
</g>
</svg>
