<?xml version="1.0" standalone="no"?>
<!DOCTYPE svg PUBLIC "-//W3C//DTD SVG 20010904//EN"
 "http://www.w3.org/TR/2001/REC-SVG-20010904/DTD/svg10.dtd">
<svg version="1.0" xmlns="http://www.w3.org/2000/svg"
 width="480.000000pt" height="360.000000pt" viewBox="0 0 480.000000 360.000000"
 preserveAspectRatio="xMidYMid meet">
<metadata>
Created by potrace 1.16, written by Peter Selinger 2001-2019
</metadata>
<rect width="1" height="360" fill="#000000"/>
<rect x="479" width="1" height="360" fill="#000000"/>
<rect width="480" height="1" fill="#000000"/>
<rect y="359" width="480" height="1" fill="#000000"/>
<g transform="translate(0.000000,360.000000) scale(0.100000,-0.100000)"
fill="#000000" stroke="none">
<path d="M0 1800 l0 -1800 2400 0 2400 0 0 1800 0 1800 -1824 0 -1824 0 -6
-24 c-8 -33 -44 -350 -52 -461 -3 -49 -8 -103 -10 -120 -12 -86 -16 -669 -5
-831 24 -360 67 -717 122 -1019 63 -342 199 -783 304 -987 50 -97 54 -108 35
-108 -11 0 -20 -7 -20 -14 0 -22 -50 -3 -135 52 -77 49 -106 73 -208 169 -72
68 -262 287 -287 331 -8 15 -33 56 -56 92 -108 174 -154 255 -217 385 -321
658 -534 1508 -588 2353 -7 100 -16 182 -21 182 -4 0 -8 -810 -8 -1800z"/>
</g>
</svg>
