<?xml version="1.0" standalone="no"?>
<!DOCTYPE svg PUBLIC "-//W3C//DTD SVG 20010904//EN"
 "http://www.w3.org/TR/2001/REC-SVG-20010904/DTD/svg10.dtd">
<svg version="1.0" xmlns="http://www.w3.org/2000/svg"
 width="480.000000pt" height="360.000000pt" viewBox="0 0 480.000000 360.000000"
 preserveAspectRatio="xMidYMid meet">
<metadata>
Created by potrace 1.16, written by Peter Selinger 2001-2019
</metadata>
<rect width="1" height="360" fill="#000000"/>
<rect x="479" width="1" height="360" fill="#000000"/>
<rect width="480" height="1" fill="#000000"/>
<rect y="359" width="480" height="1" fill="#000000"/>
<g transform="translate(0.000000,360.000000) scale(0.100000,-0.100000)"
fill="#000000" stroke="none">
<path d="M0 1800 l0 -1800 384 0 384 0 6 28 c2 15 7 48 11 74 6 47 6 47 -27
53 -18 3 -64 4 -103 3 l-70 -3 -20 41 c-36 75 -40 77 -123 70 -62 -6 -77 -4
-93 10 -18 16 -20 16 -37 1 -26 -24 -39 -21 -50 12 -8 22 -7 46 3 88 8 34 10
59 4 61 -15 6 -11 24 11 47 11 11 21 30 23 40 6 29 17 57 33 85 9 14 24 45 36
70 11 25 28 54 38 65 10 11 39 61 65 110 27 50 58 106 70 125 44 71 124 239
183 385 99 247 93 223 79 306 l-13 74 -18 -70 c-30 -113 -37 -110 -31 10 3 61
8 128 11 150 4 39 4 39 -9 15 -8 -14 -20 -50 -26 -80 -6 -30 -32 -118 -57
-196 -44 -136 -45 -143 -30 -172 17 -32 24 -111 12 -130 -11 -17 -34 -15 -45
5 -13 25 -36 3 -55 -54 -20 -57 -20 -63 -1 -63 20 0 19 -10 -1 -25 -15 -10
-15 -14 -1 -40 14 -28 14 -30 -11 -42 -33 -18 -41 -9 -58 69 -28 125 -28 130
5 209 32 76 38 109 21 109 -5 0 -10 9 -10 19 0 11 -5 23 -10 26 -7 4 -9 -2 -6
-17 3 -12 7 -41 11 -63 l6 -40 -31 33 c-20 21 -30 43 -30 63 0 44 -16 27 -31
-33 -10 -44 -14 -49 -19 -29 -5 23 -7 21 -24 -17 -21 -47 -33 -52 -45 -19 -9
22 -9 22 -16 -5 -4 -16 -11 -25 -17 -22 -5 3 -7 12 -4 20 3 7 1 16 -4 19 -5 3
-7 -13 -6 -35 3 -42 -7 -62 -18 -34 -4 9 -9 14 -12 11 -4 -3 -13 0 -20 8 -8 7
-19 15 -25 17 -18 6 -41 138 -34 195 3 28 8 110 10 182 4 153 14 186 132 404
127 237 136 275 103 439 -18 90 -20 118 -12 185 5 43 11 85 13 93 4 16 -2 16
-71 4 -27 -4 -42 -1 -63 16 -37 29 -34 57 13 114 22 26 40 51 40 55 0 24 -43
53 -149 100 -66 30 -121 58 -121 62 0 4 24 1 53 -6 53 -14 147 -37 227 -56 25
-6 50 -16 57 -21 8 -6 25 1 54 21 55 40 105 42 140 5 l24 -25 -22 -40 c-25
-46 -18 -54 31 -34 46 20 138 19 207 -1 58 -17 85 -34 54 -34 -16 0 -15 -4 10
-30 16 -16 26 -33 22 -36 -3 -3 -1 -17 4 -31 6 -17 6 -30 -2 -39 -14 -17 -3
-35 19 -32 16 3 17 0 43 -106 11 -48 11 -49 -20 -78 -17 -16 -31 -32 -31 -36
0 -4 11 -24 25 -43 13 -20 22 -39 20 -41 -3 -3 27 -26 66 -53 46 -31 77 -61
89 -85 11 -21 47 -62 81 -92 112 -96 129 -116 129 -154 0 -19 -10 -54 -22 -77
-31 -61 -31 -261 0 -397 34 -146 232 -741 277 -830 38 -78 74 -252 81 -397 8
-149 5 -157 -56 -167 -26 -4 -45 -15 -57 -32 -10 -14 -28 -38 -41 -54 l-24
-30 -121 2 c-173 2 -170 4 -182 -105 l-6 -57 735 0 736 0 0 28 c0 50 22 106
55 139 32 32 33 32 124 31 50 0 94 -5 97 -9 12 -19 44 -7 69 25 19 25 31 62
46 138 10 57 28 140 39 184 21 86 26 164 11 180 -5 5 -21 47 -37 94 -29 84
-29 87 -28 310 1 124 5 246 9 272 7 44 5 49 -50 131 -31 47 -65 107 -75 134
-16 43 -17 52 -4 88 7 22 14 51 14 65 0 50 -110 175 -186 211 -28 14 -58 43
-100 99 -32 44 -63 80 -69 80 -11 1 -38 36 -112 145 -27 39 -53 75 -59 80 -5
6 -23 30 -39 55 -30 46 -102 120 -118 120 -4 0 -14 15 -22 34 -20 47 -62 79
-143 110 -108 41 -160 111 -168 223 -3 41 -19 78 -80 190 -84 154 -94 189 -94
346 l0 97 -865 0 -865 0 0 -1800z"/>
<path d="M4363 2142 c-40 -6 -62 -47 -60 -110 1 -47 -4 -64 -26 -97 -16 -23
-27 -53 -27 -73 0 -37 36 -105 74 -141 l23 -22 64 36 c155 89 179 107 179 138
0 11 -14 64 -31 118 -31 99 -56 145 -65 122 -8 -19 -39 -16 -58 6 -20 22 -41
28 -73 23z"/>
<path d="M4765 1915 c-29 -28 -31 -47 -9 -69 31 -31 44 -20 44 39 0 30 -2 55
-5 55 -3 0 -17 -11 -30 -25z"/>
<path d="M1580 783 c0 -4 5 -15 10 -23 8 -13 10 -13 10 2 0 9 -4 20 -10 23 -5
3 -10 3 -10 -2z"/>
<path d="M4742 560 c0 -73 -5 -115 -18 -162 -6 -20 -34 -24 -35 -5 0 6 -6 1
-12 -13 -16 -34 -26 -40 -72 -40 -80 -1 -114 -16 -181 -80 l-64 -62 -113 7
c-107 6 -114 5 -157 -18 -52 -28 -55 -37 -45 -123 l7 -64 374 0 374 0 0 304
c0 167 -3 311 -6 320 -3 9 -17 16 -29 16 -23 0 -23 -3 -23 -80z"/>
<path d="M3792 153 c-6 -16 -13 -56 -17 -91 l-6 -62 67 0 c52 0 65 3 61 14 -3
7 -15 45 -26 84 -19 62 -33 82 -61 82 -4 0 -12 -12 -18 -27z"/>
<path d="M973 93 c-16 -3 -25 -15 -33 -41 -5 -20 -10 -40 -10 -44 0 -5 27 -8
60 -8 l60 0 0 34 c0 64 -10 72 -77 59z"/>
</g>
</svg>
