<?xml version="1.0" standalone="no"?>
<!DOCTYPE svg PUBLIC "-//W3C//DTD SVG 20010904//EN"
 "http://www.w3.org/TR/2001/REC-SVG-20010904/DTD/svg10.dtd">
<svg version="1.0" xmlns="http://www.w3.org/2000/svg"
 width="480.000000pt" height="360.000000pt" viewBox="0 0 480.000000 360.000000"
 preserveAspectRatio="xMidYMid meet">
<metadata>
Created by potrace 1.16, written by Peter Selinger 2001-2019
</metadata>
<rect width="1" height="360" fill="#000000"/>
<rect x="479" width="1" height="360" fill="#000000"/>
<rect width="480" height="1" fill="#000000"/>
<rect y="359" width="480" height="1" fill="#000000"/>
<g transform="translate(0.000000,360.000000) scale(0.100000,-0.100000)"
fill="#000000" stroke="none">
<path d="M2258 3533 c-23 -62 -27 -68 -56 -71 -27 -3 -34 2 -55 35 -14 23 -44
49 -70 63 -42 23 -47 23 -64 8 -11 -10 -28 -14 -45 -11 -44 9 -74 -4 -88 -37
-15 -36 -9 -123 11 -165 12 -25 21 -30 54 -33 62 -4 71 -9 52 -30 -25 -27 -47
-99 -47 -152 0 -56 28 -141 73 -224 51 -94 57 -115 42 -172 -6 -27 -15 -69
-19 -93 l-7 -43 73 3 73 4 7 -110 c5 -84 15 -137 42 -225 39 -123 41 -146 26
-212 -5 -24 -12 -56 -16 -73 -4 -21 -47 -72 -143 -170 -76 -77 -142 -147 -147
-156 -12 -23 -118 -113 -179 -153 -28 -19 -111 -54 -187 -80 -147 -49 -283
-108 -344 -150 -99 -67 -184 -177 -184 -239 0 -13 -14 -44 -30 -69 -17 -25
-37 -67 -45 -93 -12 -42 -12 -52 1 -77 9 -16 35 -42 60 -56 24 -15 68 -42 97
-60 103 -66 315 -162 356 -162 8 0 23 7 32 16 17 15 21 15 51 1 18 -8 42 -17
53 -19 12 -2 21 -13 23 -26 2 -13 12 -24 25 -27 45 -10 229 -25 411 -35 104
-5 191 -11 193 -13 5 -6 -16 -228 -23 -238 -3 -5 -16 -9 -30 -9 -30 0 -74 -41
-74 -70 0 -12 5 -41 11 -66 l11 -44 404 0 403 0 11 38 c20 72 22 109 11 272
-6 97 -7 168 -2 173 5 5 105 11 223 14 117 2 222 8 233 13 44 19 123 39 176
45 62 8 56 0 109 120 61 135 63 142 38 176 l-22 29 20 28 c20 26 20 29 4 93
-10 37 -36 105 -58 152 -50 103 -129 181 -252 248 -45 24 -98 57 -118 73 -50
39 -182 99 -267 121 -47 12 -79 28 -98 47 l-29 28 9 88 c4 48 7 166 6 262 -2
148 -7 192 -29 290 -32 136 -78 255 -128 329 -53 79 -48 98 37 115 21 5 27 12
27 34 0 15 6 34 12 40 23 23 -12 32 -110 31 -53 -1 -98 3 -104 9 -15 15 -1 45
18 38 9 -3 34 -9 57 -12 23 -3 53 -10 67 -15 14 -5 67 -15 119 -23 90 -13 94
-13 130 8 22 12 36 27 33 34 -2 8 1 25 8 38 20 37 -1 54 -68 54 -81 0 -283 20
-308 30 -14 5 -24 21 -28 44 -4 21 -19 45 -37 60 -32 27 -33 52 -4 76 21 18
19 28 -7 32 -22 3 -23 9 -30 116 -3 62 -14 144 -23 183 l-17 69 -158 0 -157 0
-25 -67z m212 -75 c0 -13 -5 -30 -10 -38 -14 -22 -30 0 -23 33 6 33 33 37 33
5z"/>
</g>
</svg>
