<?xml version="1.0" standalone="no"?>
<!DOCTYPE svg PUBLIC "-//W3C//DTD SVG 20010904//EN"
 "http://www.w3.org/TR/2001/REC-SVG-20010904/DTD/svg10.dtd">
<svg version="1.0" xmlns="http://www.w3.org/2000/svg"
 width="480.000000pt" height="360.000000pt" viewBox="0 0 480.000000 360.000000"
 preserveAspectRatio="xMidYMid meet">
<metadata>
Created by potrace 1.16, written by Peter Selinger 2001-2019
</metadata>
<rect width="1" height="360" fill="#000000"/>
<rect x="479" width="1" height="360" fill="#000000"/>
<rect width="480" height="1" fill="#000000"/>
<rect y="359" width="480" height="1" fill="#000000"/>
<g transform="translate(0.000000,360.000000) scale(0.100000,-0.100000)"
fill="#000000" stroke="none">
<path d="M0 1800 l0 -1800 1274 0 c1152 0 1274 2 1280 16 3 9 6 28 6 43 0 14
9 34 20 44 57 48 -13 89 -128 75 -57 -8 -83 -6 -127 6 -49 15 -58 15 -84 1
-90 -46 -101 24 -40 250 42 154 66 217 117 315 25 47 48 90 52 95 15 20 100
193 100 204 0 6 -6 11 -13 11 -23 0 -16 99 10 140 25 41 69 168 60 176 -3 3
-29 7 -57 8 -46 2 -53 0 -63 -21 -10 -23 -53 -49 -91 -55 -14 -2 -22 5 -28 27
-5 17 -14 40 -20 52 -13 26 6 105 28 124 17 14 18 33 3 61 -11 21 -12 21 -24
-8 l-13 -29 -12 30 c-8 17 -14 72 -14 130 0 89 3 111 33 195 19 52 38 99 42
105 5 5 9 16 9 25 -1 13 -2 13 -13 -1 -16 -20 -67 -54 -67 -44 0 16 55 102
107 167 62 78 79 114 129 276 20 64 47 141 60 171 13 29 24 57 24 61 0 4 -18
14 -41 23 -47 19 -44 34 10 43 20 3 47 14 60 23 l22 17 -58 59 -58 60 33 3
c18 2 58 -5 90 -14 70 -21 79 -20 118 17 33 32 71 32 59 0 -4 -9 -7 -20 -8
-25 -1 -5 30 -14 68 -21 39 -7 82 -16 98 -20 23 -6 27 -4 27 13 0 34 18 35 25
1 4 -17 14 -33 23 -35 10 -3 32 -12 50 -21 31 -16 32 -17 32 -84 0 -58 3 -70
20 -79 35 -19 22 -30 -35 -30 l-55 0 0 -35 c0 -20 -11 -57 -25 -84 -16 -30
-31 -83 -39 -137 -13 -88 -13 -89 10 -117 25 -30 29 -42 39 -120 6 -46 8 -48
33 -43 15 3 45 8 67 12 55 8 77 15 71 21 -6 6 38 87 62 116 19 22 38 22 46 0
4 -10 14 -31 22 -47 32 -58 -24 -206 -79 -206 -7 0 -46 -16 -86 -35 -39 -19
-83 -35 -96 -35 -37 0 -40 -33 -16 -159 12 -60 21 -123 20 -138 -1 -15 14 -66
33 -113 20 -47 55 -159 78 -250 23 -91 59 -216 80 -278 31 -90 37 -118 29
-138 -12 -32 -1 -54 16 -31 10 14 14 11 24 -24 7 -23 15 -48 18 -58 5 -13 3
-14 -8 -3 -41 38 -70 -20 -75 -151 -5 -116 -29 -214 -56 -231 -11 -7 -18 -23
-18 -42 0 -40 -35 -86 -49 -65 -8 13 -18 10 -63 -14 -52 -29 -103 -35 -187
-23 -21 3 -27 -4 -42 -46 -10 -27 -21 -62 -24 -77 l-7 -29 991 0 991 0 0 1800
0 1800 -2400 0 -2400 0 0 -1800z"/>
<path d="M2861 2301 c-8 -14 -7 -22 4 -31 13 -11 15 -8 15 19 0 36 -5 39 -19
12z"/>
<path d="M2661 1764 c0 -11 3 -14 6 -6 3 7 2 16 -1 19 -3 4 -6 -2 -5 -13z"/>
</g>
</svg>
