<?xml version="1.0" standalone="no"?>
<!DOCTYPE svg PUBLIC "-//W3C//DTD SVG 20010904//EN"
 "http://www.w3.org/TR/2001/REC-SVG-20010904/DTD/svg10.dtd">
<svg version="1.0" xmlns="http://www.w3.org/2000/svg"
 width="480.000000pt" height="360.000000pt" viewBox="0 0 480.000000 360.000000"
 preserveAspectRatio="xMidYMid meet">
<metadata>
Created by potrace 1.16, written by Peter Selinger 2001-2019
</metadata>
<rect width="1" height="360" fill="#000000"/>
<rect x="479" width="1" height="360" fill="#000000"/>
<rect width="480" height="1" fill="#000000"/>
<rect y="359" width="480" height="1" fill="#000000"/>
<g transform="translate(0.000000,360.000000) scale(0.100000,-0.100000)"
fill="#000000" stroke="none">
<path d="M0 1800 l0 -1800 1039 0 1038 0 5 103 c3 56 15 163 26 237 22 138 53
434 52 504 0 27 -11 55 -37 97 -21 32 -42 58 -46 58 -5 1 -32 -18 -60 -42 -62
-52 -119 -89 -169 -113 -32 -15 -45 -15 -94 -6 -90 19 -93 23 -170 241 -58
164 -80 211 -97 211 -8 0 -26 9 -41 21 -20 15 -26 29 -26 58 0 20 -5 42 -11
48 -7 7 -3 26 15 64 13 30 32 78 41 107 17 52 44 78 71 68 8 -3 25 -1 38 5 42
19 166 -60 166 -107 0 -7 15 -24 33 -38 33 -25 36 -33 79 -181 6 -22 13 -42
14 -44 5 -6 269 226 304 267 19 23 51 61 71 85 l37 42 -13 70 c-12 60 -52 166
-98 255 -8 15 -10 38 -6 58 3 18 3 35 -2 38 -5 3 -7 10 -3 15 3 6 -4 7 -20 3
-16 -4 -26 -2 -26 5 0 6 -15 31 -34 56 -53 68 -57 119 -16 201 52 106 128 187
216 231 l76 37 -6 36 c-8 52 -41 74 -140 94 -103 20 -211 62 -278 108 -58 40
-67 62 -39 92 46 49 158 59 282 26 90 -24 95 -24 78 -4 -22 27 -80 50 -189 78
-127 31 -241 85 -271 127 -22 31 -22 32 -4 63 39 66 75 86 151 86 124 0 300
-77 400 -175 70 -69 94 -122 118 -259 9 -51 24 -99 36 -116 11 -16 31 -53 45
-83 23 -53 25 -54 72 -61 79 -10 134 -34 205 -86 58 -43 73 -60 107 -128 72
-142 86 -213 106 -530 8 -130 17 -253 21 -272 6 -34 69 -198 121 -310 28 -62
72 -191 101 -295 14 -51 18 -94 16 -159 -3 -68 2 -112 21 -190 13 -55 31 -139
39 -186 15 -81 66 -467 66 -496 0 -12 113 -14 695 -14 l695 0 0 1800 0 1800
-2400 0 -2400 0 0 -1800z"/>
<path d="M2360 1815 c0 -19 5 -35 10 -35 6 0 10 16 10 35 0 19 -4 35 -10 35
-5 0 -10 -16 -10 -35z"/>
</g>
</svg>
