<?xml version="1.0" standalone="no"?>
<!DOCTYPE svg PUBLIC "-//W3C//DTD SVG 20010904//EN"
 "http://www.w3.org/TR/2001/REC-SVG-20010904/DTD/svg10.dtd">
<svg version="1.0" xmlns="http://www.w3.org/2000/svg"
 width="480.000000pt" height="360.000000pt" viewBox="0 0 480.000000 360.000000"
 preserveAspectRatio="xMidYMid meet">
<metadata>
Created by potrace 1.16, written by Peter Selinger 2001-2019
</metadata>
<rect width="1" height="360" fill="#000000"/>
<rect x="479" width="1" height="360" fill="#000000"/>
<rect width="480" height="1" fill="#000000"/>
<rect y="359" width="480" height="1" fill="#000000"/>
<g transform="translate(0.000000,360.000000) scale(0.100000,-0.100000)"
fill="#000000" stroke="none">
<path d="M0 1800 l0 -1800 897 2 897 3 12 60 c22 108 121 431 162 527 63 149
85 227 83 288 -3 78 -7 88 -36 82 -14 -2 -28 -8 -31 -13 -9 -16 -34 -10 -34 9
0 9 -7 25 -15 36 -13 18 -15 17 -31 -18 -10 -20 -20 -36 -23 -36 -3 0 -26 34
-50 75 -24 41 -45 75 -47 75 -2 0 3 -19 11 -41 19 -52 20 -78 3 -61 -15 15
-32 16 -23 2 3 -5 3 -10 -2 -10 -18 1 -33 18 -54 65 l-22 49 -31 -35 c-82 -91
-106 -117 -141 -149 l-38 -35 41 60 c43 62 52 84 29 69 -7 -5 -1 1 13 13 14
13 21 23 17 23 -5 0 1 12 12 26 12 15 21 32 21 40 0 7 6 14 13 17 6 2 -1 10
-18 18 -36 16 -45 27 -38 46 9 23 -87 58 -270 98 -17 3 -36 18 -48 39 -11 19
-29 36 -39 39 -13 3 -20 14 -20 30 0 23 -3 24 -89 30 -154 11 -325 72 -366
130 -13 19 -13 23 5 39 24 22 34 23 50 2 8 -8 22 -20 33 -25 16 -9 18 -8 13 9
-8 25 10 38 30 21 11 -9 20 -9 40 0 14 6 43 11 66 11 l40 0 -22 18 c-24 20
-60 103 -60 140 0 13 -6 22 -15 22 -8 0 -29 13 -47 29 -33 30 -33 30 -31 117
2 48 8 114 13 146 8 43 8 73 -1 117 l-13 59 47 69 c26 38 47 74 47 80 0 14 39
63 50 63 12 0 30 -67 30 -112 0 -42 8 -68 21 -68 12 0 55 86 64 127 9 44 22
49 52 22 37 -35 51 -68 59 -137 3 -35 11 -65 15 -68 5 -3 9 1 9 10 0 8 11 28
25 44 22 27 25 39 24 101 -1 51 3 78 15 96 35 53 61 19 44 -57 -5 -23 -14
-108 -18 -188 -5 -80 -12 -166 -15 -191 -6 -40 -4 -49 16 -68 20 -18 24 -32
24 -79 0 -54 -3 -61 -53 -124 -30 -38 -58 -68 -63 -68 -12 0 -49 -79 -49 -104
0 -13 12 -28 31 -38 38 -22 48 -22 71 -1 14 12 23 14 41 6 12 -6 36 -8 53 -6
24 4 51 -7 120 -46 48 -28 93 -50 98 -48 6 2 16 28 22 58 6 30 36 107 67 172
31 64 52 115 46 112 -8 -6 -63 -81 -135 -189 -24 -35 -54 -63 -54 -50 0 5 9
27 21 48 29 54 16 57 -15 3 -14 -24 -36 -53 -47 -63 -21 -19 -22 -19 -15 1 35
113 86 199 182 305 165 183 205 267 275 580 44 192 64 264 102 357 26 65 77
146 112 176 20 18 20 19 0 12 -11 -4 -55 -9 -98 -12 -93 -7 -117 7 -117 67 0
68 103 324 135 337 8 3 36 -2 62 -11 25 -9 57 -16 71 -16 38 0 139 -53 229
-121 85 -63 83 -63 213 -70 8 0 53 13 100 30 70 25 101 31 173 31 l87 0 0 -28
c0 -40 -68 -313 -84 -337 -12 -18 -11 -26 5 -55 13 -25 18 -57 19 -111 0 -81
-11 -127 -43 -172 -11 -16 -30 -50 -43 -75 l-24 -47 0 39 0 39 -32 -44 c-33
-44 -33 -44 -36 -16 -2 15 -8 27 -13 27 -18 0 -26 -44 -34 -168 -6 -102 -5
-123 6 -121 8 2 26 0 42 -4 20 -6 27 -13 27 -33 0 -32 14 -58 61 -114 46 -55
159 -285 166 -339 4 -30 0 -48 -16 -74 -18 -30 -21 -49 -21 -159 l0 -125 69
-31 c74 -33 219 -85 290 -103 29 -7 56 -23 77 -46 20 -22 41 -35 56 -34 12 0
92 3 176 7 127 5 152 4 152 -8 0 -23 -22 -38 -55 -38 -31 0 -75 -24 -75 -40 0
-15 119 -98 187 -131 34 -16 65 -34 68 -40 9 -14 -14 -39 -35 -39 -10 0 -20
-10 -23 -21 -5 -19 -11 -21 -51 -17 -36 4 -49 2 -63 -14 -11 -12 -26 -18 -40
-15 -14 2 -29 -3 -39 -14 -22 -25 -38 -24 -103 6 -65 31 -143 94 -171 141 -23
36 -39 41 -69 22 -15 -9 -29 -5 -82 24 -119 66 -188 99 -306 143 -87 33 -125
53 -144 75 l-27 31 -6 -25 c-8 -31 1 -55 32 -84 23 -22 24 -26 18 -120 -8
-108 -3 -125 97 -347 41 -93 160 -439 188 -547 l12 -48 833 0 834 0 0 1800 0
1800 -2400 0 -2400 0 0 -1800z"/>
<path d="M900 2160 c0 -10 9 -24 20 -30 21 -11 27 1 14 34 -9 23 -34 20 -34
-4z"/>
<path d="M2092 1140 c0 -14 2 -19 5 -12 2 6 2 18 0 25 -3 6 -5 1 -5 -13z"/>
</g>
</svg>
