<?xml version="1.0" standalone="no"?>
<!DOCTYPE svg PUBLIC "-//W3C//DTD SVG 20010904//EN"
 "http://www.w3.org/TR/2001/REC-SVG-20010904/DTD/svg10.dtd">
<svg version="1.0" xmlns="http://www.w3.org/2000/svg"
 width="480.000000pt" height="360.000000pt" viewBox="0 0 480.000000 360.000000"
 preserveAspectRatio="xMidYMid meet">
<metadata>
Created by potrace 1.16, written by Peter Selinger 2001-2019
</metadata>
<rect width="1" height="360" fill="#000000"/>
<rect x="479" width="1" height="360" fill="#000000"/>
<rect width="480" height="1" fill="#000000"/>
<rect y="359" width="480" height="1" fill="#000000"/>
<g transform="translate(0.000000,360.000000) scale(0.100000,-0.100000)"
fill="#000000" stroke="none">
<path d="M0 3109 c0 -317 3 -488 10 -484 5 3 33 -1 61 -9 46 -14 54 -14 82 1
18 9 59 24 92 33 l60 17 7 104 c7 107 43 230 89 305 10 17 19 35 19 39 0 4
-22 5 -50 1 l-50 -7 0 40 c0 70 5 74 60 46 27 -14 51 -29 54 -34 3 -5 39 23
78 63 76 75 147 117 230 135 67 15 260 14 358 -2 47 -8 87 -11 90 -7 10 14
147 108 195 134 l50 26 19 -42 c10 -24 28 -77 40 -118 l21 -75 70 -35 c137
-69 274 -234 327 -395 30 -92 34 -301 5 -350 -9 -16 -17 -40 -17 -52 0 -32 28
-98 72 -172 24 -39 36 -71 33 -82 -10 -30 -65 -70 -86 -64 -23 8 -22 12 -5
-72 20 -94 63 -217 97 -283 46 -86 154 -227 196 -253 34 -22 93 -77 82 -77 -2
0 -40 16 -84 35 -44 19 -86 35 -93 35 -7 0 -39 -24 -71 -54 -98 -91 -134 -101
-214 -66 -26 12 -71 22 -102 23 -47 3 -55 0 -55 -14 0 -14 14 -21 60 -30 52
-10 66 -18 95 -52 41 -47 43 -60 13 -81 l-22 -15 54 -103 c29 -57 59 -110 66
-119 8 -8 14 -28 14 -43 0 -28 1 -28 48 -21 69 9 80 -6 58 -83 -24 -87 -18
-119 24 -137 75 -33 85 -41 88 -68 2 -16 -5 -38 -18 -54 -35 -44 -20 -116 50
-238 55 -97 124 -224 170 -313 l22 -42 1204 0 1204 0 0 1800 0 1800 -2400 0
-2400 0 0 -491z m818 403 c2 -7 -3 -12 -12 -12 -9 0 -16 7 -16 16 0 17 22 14
28 -4z m3742 -507 l25 -14 -32 -1 c-31 0 -49 11 -36 24 9 8 14 7 43 -9z m-296
-374 c4 -5 2 -21 -4 -36 -12 -32 -47 -31 -42 0 7 36 34 57 46 36z m-26 -2033
c-6 -18 -28 -21 -28 -4 0 9 7 16 16 16 9 0 14 -5 12 -12z"/>
<path d="M0 2475 c1 -26 2 -28 11 -12 8 14 8 22 0 30 -8 8 -11 3 -11 -18z"/>
<path d="M1 1383 c1 -554 4 -999 6 -989 3 10 18 40 33 65 29 49 50 171 33 194
-5 7 -15 25 -21 41 -11 25 -11 28 4 22 22 -8 34 10 34 51 0 23 6 33 19 38 22
7 26 17 36 85 4 25 16 68 26 95 24 63 24 72 -1 120 -39 76 -13 116 119 186 59
31 96 56 89 60 -7 4 -12 38 -14 81 -3 115 -3 120 -14 113 -6 -4 -10 18 -10 59
0 36 -2 66 -4 66 -2 0 -25 -9 -51 -21 -25 -11 -49 -18 -52 -15 -3 3 14 29 39
58 77 92 73 96 -15 15 -32 -30 -67 -52 -67 -42 0 3 9 24 21 47 17 34 18 40 5
35 -23 -9 -20 9 9 51 14 20 25 40 25 44 0 5 -19 8 -42 8 l-43 0 55 29 c87 45
89 50 94 245 5 160 4 167 -13 152 -34 -31 -51 -25 -293 111 -5 2 -7 -449 -7
-1004z"/>
<path d="M410 1433 c-22 -60 -21 -94 4 -74 19 16 172 71 196 71 11 0 20 5 20
10 0 6 -8 10 -18 10 -11 0 -45 9 -77 20 -92 32 -100 29 -125 -37z"/>
<path d="M656 1455 c-11 -8 -15 -15 -9 -15 19 0 43 12 43 21 0 13 -12 11 -34
-6z"/>
<path d="M1545 1452 c-45 -3 -70 -10 -63 -17 4 -4 154 -45 165 -45 1 0 3 10 3
23 0 27 -44 43 -105 39z"/>
<path d="M1750 250 c0 -65 -14 -153 -36 -227 -5 -19 -2 -23 18 -23 21 0 23 3
20 40 -2 23 3 58 12 80 20 51 21 159 1 186 -13 17 -14 12 -15 -56z"/>
<path d="M0 179 c0 -55 2 -99 4 -99 3 0 46 172 46 185 0 1 -11 5 -25 7 l-25 5
0 -98z"/>
</g>
</svg>
