<?xml version="1.0" standalone="no"?>
<!DOCTYPE svg PUBLIC "-//W3C//DTD SVG 20010904//EN"
 "http://www.w3.org/TR/2001/REC-SVG-20010904/DTD/svg10.dtd">
<svg version="1.0" xmlns="http://www.w3.org/2000/svg"
 width="480.000000pt" height="360.000000pt" viewBox="0 0 480.000000 360.000000"
 preserveAspectRatio="xMidYMid meet">
<metadata>
Created by potrace 1.16, written by Peter Selinger 2001-2019
</metadata>
<rect width="1" height="360" fill="#000000"/>
<rect x="479" width="1" height="360" fill="#000000"/>
<rect width="480" height="1" fill="#000000"/>
<rect y="359" width="480" height="1" fill="#000000"/>
<g transform="translate(0.000000,360.000000) scale(0.100000,-0.100000)"
fill="#000000" stroke="none">
<path d="M2000 3596 c0 -3 -7 -88 -15 -190 -12 -150 -33 -642 -35 -831 -1 -58
-16 -24 -24 55 -7 62 -27 110 -45 110 -14 0 -29 -56 -36 -132 -7 -69 -12 -77
-33 -56 -9 9 -15 4 -26 -23 -9 -19 -24 -45 -34 -58 l-19 -24 -7 29 c-7 29 -49
128 -89 211 -21 45 -53 64 -69 42 -12 -18 -1 -180 17 -249 8 -30 13 -56 11
-58 -8 -8 -44 56 -60 108 -21 63 -35 93 -36 71 0 -11 -3 -11 -15 -1 -13 11
-14 1 -10 -76 3 -49 11 -112 19 -140 7 -29 10 -57 7 -63 -10 -15 -70 115 -115
247 -41 121 -46 129 -57 111 -9 -16 -4 -51 23 -146 27 -93 20 -116 -22 -71
-22 25 -29 29 -30 16 0 -10 -7 -18 -15 -18 -19 0 -20 7 10 -86 38 -119 40
-113 -77 -168 -98 -46 -129 -56 -328 -106 -47 -12 -116 -33 -153 -46 -67 -24
-74 -24 -403 -24 l-334 0 0 -1015 0 -1015 941 0 942 0 -6 36 c-4 22 1 54 13
87 10 29 24 71 31 94 7 24 20 56 30 73 17 27 24 30 70 30 27 0 59 -5 70 -10
17 -9 19 -7 19 16 0 15 -4 41 -10 58 -5 17 -15 57 -21 89 -10 53 -14 60 -45
73 -24 10 -34 21 -34 37 0 43 23 103 67 177 85 141 109 162 135 121 11 -19 14
-19 39 -4 23 14 30 14 43 4 22 -19 20 -84 -4 -131 -11 -22 -20 -46 -20 -54 0
-8 -7 -22 -17 -31 -18 -18 -18 -15 23 -223 8 -40 12 -89 8 -110 -11 -70 4 -86
103 -112 146 -39 342 -125 343 -151 0 -9 7 -22 15 -29 12 -10 13 -16 4 -26
-10 -12 150 -14 1025 -14 l1036 0 0 1015 0 1015 -534 0 c-526 0 -535 0 -593
22 -32 12 -79 36 -105 54 -62 42 -152 71 -263 84 -49 6 -111 18 -136 27 l-45
16 6 41 c4 23 18 66 33 96 38 80 49 112 36 105 -5 -4 -15 -18 -20 -32 -5 -14
-12 -23 -15 -20 -3 3 22 62 55 131 34 69 61 131 61 137 0 19 -48 -30 -89 -91
-96 -144 -186 -241 -206 -222 -3 3 -5 36 -5 74 0 65 -1 68 -19 58 -30 -16 -41
-12 -41 13 0 30 -6 36 -30 30 -14 -4 -31 -34 -57 -104 -21 -54 -41 -99 -45
-99 -5 0 -8 14 -8 31 0 26 -3 29 -20 24 -17 -5 -20 -2 -20 23 0 16 6 65 14
108 18 97 25 292 11 296 -5 2 -19 -29 -30 -69 -19 -71 -20 -72 -56 -78 -28 -5
-44 -16 -61 -41 -13 -18 -26 -34 -30 -34 -4 0 -16 -9 -27 -21 -10 -11 -21 -17
-24 -12 -3 5 2 64 11 133 22 178 22 224 -2 228 -25 5 -69 -45 -92 -104 -9 -25
-20 -41 -24 -37 -5 4 -13 100 -19 213 -7 113 -16 280 -21 372 -6 92 -10 179
-10 193 l0 25 -190 0 c-104 0 -190 -2 -190 -4z m1111 -1293 c-9 -16 -10 -16
-11 -1 0 9 3 25 7 35 7 16 8 17 11 1 2 -10 -1 -25 -7 -35z m-601 -442 c0 -11
-4 -22 -9 -25 -11 -7 -23 22 -15 35 9 16 24 10 24 -10z m0 -200 c0 -17 -12
-41 -21 -41 -10 0 -12 33 -2 43 9 10 23 9 23 -2z m-232 -33 c-6 -18 -28 -21
-28 -4 0 9 7 16 16 16 9 0 14 -5 12 -12z m130 -12 c5 -26 -16 -45 -28 -26 -5
8 -10 23 -10 33 0 24 34 18 38 -7z m-60 -31 c-3 -30 -22 -28 -26 3 -2 15 2 22
12 22 11 0 15 -8 14 -25z m-176 -96 c-9 -23 -9 -23 -16 5 -8 32 3 56 15 33 5
-8 5 -26 1 -38z m-51 -22 c-1 -4 -1 -15 -1 -24 0 -15 -2 -16 -10 -3 -13 20
-13 43 1 38 6 -2 10 -7 10 -11z m193 -78 c-22 -25 -33 -24 -43 4 -11 29 -4 39
19 27 14 -8 19 -5 25 13 l8 22 4 -23 c3 -14 -3 -32 -13 -43z m-90 32 c4 -5 2
-20 -2 -32 l-9 -23 -12 22 c-12 22 -8 42 9 42 5 0 11 -4 14 -9z m-62 -16 c0
-5 -5 -11 -11 -13 -6 -2 -11 4 -11 13 0 9 5 15 11 13 6 -2 11 -8 11 -13z m-77
-15 c11 -17 -5 -32 -21 -19 -7 6 -11 15 -8 20 7 12 21 11 29 -1z m337 -70 l22
-20 -27 -28 c-15 -15 -27 -38 -27 -50 0 -12 -4 -22 -10 -22 -5 0 -8 21 -6 48
2 26 4 57 5 70 1 27 15 28 43 2z m-262 -4 c0 -8 -4 -18 -10 -21 -5 -3 -10 -4
-10 -1 0 2 -3 11 -6 20 -4 11 -1 16 10 16 9 0 16 -6 16 -14z m160 -5 c0 -6 -4
-13 -10 -16 -5 -3 -10 1 -10 9 0 9 5 16 10 16 6 0 10 -4 10 -9z m-80 -57 c0
-10 -7 -14 -22 -12 -32 5 -35 28 -4 28 17 0 26 -5 26 -16z m70 -16 c-1 -16
-28 -53 -34 -47 -2 2 -7 16 -11 32 -6 24 -5 27 19 27 14 0 26 -6 26 -12z m153
-75 c9 -9 -13 -34 -24 -27 -14 8 -11 34 4 34 8 0 17 -3 20 -7z m-245 -25 c-6
-18 -28 -21 -28 -4 0 9 7 16 16 16 9 0 14 -5 12 -12z m-50 -65 c-16 -15 -18
-15 -24 0 -3 9 -3 25 0 34 6 15 8 15 24 0 15 -16 15 -18 0 -34z m167 -3 c-5
-8 -11 -8 -17 -2 -6 6 -7 16 -3 22 5 8 11 8 17 2 6 -6 7 -16 3 -22z m-23 -92
c-15 -15 -26 -4 -18 18 5 13 9 15 18 6 9 -9 9 -15 0 -24z"/>
</g>
</svg>
