<?xml version="1.0" standalone="no"?>
<!DOCTYPE svg PUBLIC "-//W3C//DTD SVG 20010904//EN"
 "http://www.w3.org/TR/2001/REC-SVG-20010904/DTD/svg10.dtd">
<svg version="1.0" xmlns="http://www.w3.org/2000/svg"
 width="480.000000pt" height="360.000000pt" viewBox="0 0 480.000000 360.000000"
 preserveAspectRatio="xMidYMid meet">
<metadata>
Created by potrace 1.16, written by Peter Selinger 2001-2019
</metadata>
<rect width="1" height="360" fill="#000000"/>
<rect x="479" width="1" height="360" fill="#000000"/>
<rect width="480" height="1" fill="#000000"/>
<rect y="359" width="480" height="1" fill="#000000"/>
<g transform="translate(0.000000,360.000000) scale(0.100000,-0.100000)"
fill="#000000" stroke="none">
<path d="M4740 3461 c-98 -38 -253 -127 -303 -174 -77 -73 -140 -122 -176
-136 -35 -15 -41 -31 -11 -31 27 0 25 -16 -4 -51 -15 -18 -22 -36 -19 -48 3
-13 -6 -36 -26 -62 -23 -32 -28 -46 -20 -55 8 -10 8 -22 0 -45 -24 -68 -13
-171 28 -271 l15 -38 21 20 c25 24 41 25 49 5 10 -26 -44 -75 -104 -94 -65
-21 -74 -43 -40 -104 20 -35 21 -44 11 -78 -9 -29 -9 -54 0 -101 6 -35 11 -97
10 -138 -3 -89 3 -97 93 -125 54 -16 58 -19 53 -44 -5 -23 -65 -153 -103 -223
-9 -17 -37 -38 -70 -54 -62 -29 -100 -71 -159 -175 -44 -77 -72 -104 -117
-114 -21 -6 -31 -1 -55 26 -78 91 -95 107 -125 123 -30 16 -37 17 -69 3 -26
-11 -43 -29 -68 -76 -49 -92 -94 -135 -166 -155 -33 -10 -85 -27 -115 -37 -30
-11 -84 -29 -120 -39 -36 -11 -117 -40 -180 -65 -63 -25 -120 -45 -125 -45 -6
0 -29 -9 -50 -20 -22 -12 -83 -36 -135 -55 -235 -84 -489 -188 -675 -275 -125
-58 -152 -70 -163 -70 -5 0 -21 -9 -36 -21 -23 -18 -26 -27 -26 -84 0 -83 49
-265 71 -265 5 0 9 -8 10 -17 0 -10 14 -38 29 -63 16 -25 45 -78 64 -117 l35
-73 1415 0 1416 0 0 1740 c0 957 -3 1740 -7 1740 -5 -1 -28 -9 -53 -19z m-260
-1776 c0 -8 -4 -15 -10 -15 -5 0 -10 7 -10 15 0 8 5 15 10 15 6 0 10 -7 10
-15z m-857 -1010 c-7 -286 -7 -389 1 -449 11 -90 -3 -86 -67 20 -141 232 -158
304 -93 392 20 27 50 55 66 62 17 7 35 21 41 32 6 12 19 18 32 16 20 -3 22 -8
20 -73z"/>
<path d="M980 627 c-144 -84 -170 -114 -211 -237 -41 -127 -38 -173 25 -345
l14 -40 419 -3 420 -2 11 25 c6 14 16 25 21 25 5 0 26 23 46 50 26 35 34 54
27 63 -5 6 -13 23 -17 37 -4 14 -13 39 -20 55 -7 17 -16 47 -20 69 -8 48 -47
86 -89 86 -18 0 -37 -5 -43 -11 -16 -16 -56 13 -98 72 -79 110 -229 189 -358
189 -63 -1 -79 -5 -127 -33z"/>
</g>
</svg>
