<?xml version="1.0" standalone="no"?>
<!DOCTYPE svg PUBLIC "-//W3C//DTD SVG 20010904//EN"
 "http://www.w3.org/TR/2001/REC-SVG-20010904/DTD/svg10.dtd">
<svg version="1.0" xmlns="http://www.w3.org/2000/svg"
 width="480.000000pt" height="360.000000pt" viewBox="0 0 480.000000 360.000000"
 preserveAspectRatio="xMidYMid meet">
<metadata>
Created by potrace 1.16, written by Peter Selinger 2001-2019
</metadata>
<rect width="1" height="360" fill="#000000"/>
<rect x="479" width="1" height="360" fill="#000000"/>
<rect width="480" height="1" fill="#000000"/>
<rect y="359" width="480" height="1" fill="#000000"/>
<g transform="translate(0.000000,360.000000) scale(0.100000,-0.100000)"
fill="#000000" stroke="none">
<path d="M1603 3523 c10 -93 2 -255 -18 -375 -17 -94 -96 -318 -126 -357 -11
-13 -19 -28 -19 -33 0 -17 -102 -160 -164 -231 -57 -65 -130 -129 -234 -206
-118 -87 -349 -183 -509 -211 -120 -21 -418 -12 -511 16 l-22 6 0 -1066 0
-1066 1320 0 1320 0 0 28 c0 83 54 335 104 489 70 213 88 286 126 508 17 99
40 227 51 284 15 76 18 110 11 126 -6 13 -16 60 -23 104 l-11 82 -39 16 c-93
37 -116 128 -59 232 32 58 37 81 18 81 -21 0 -98 -26 -165 -54 -86 -36 -121
-35 -136 4 -12 33 -19 35 -47 20 -16 -8 -22 -6 -36 15 -15 23 -22 25 -88 25
-59 0 -95 8 -212 49 -77 27 -161 58 -186 69 -25 11 -61 23 -79 27 -19 4 -56
21 -82 37 -44 28 -53 30 -105 24 -45 -5 -54 -4 -44 6 20 20 14 28 -18 22 -36
-8 -39 7 -7 30 l22 17 -27 -6 c-15 -3 -30 0 -33 5 -11 17 35 50 69 50 58 0
160 -31 225 -67 49 -27 104 -45 230 -74 91 -21 180 -43 196 -49 17 -7 48 -9
74 -5 36 5 45 12 54 35 10 28 12 28 39 14 27 -14 29 -14 38 11 14 36 31 39
123 22 106 -20 278 -30 297 -18 12 8 12 13 -4 30 -17 19 -17 20 3 33 34 21 27
40 -13 33 -33 -7 -34 -5 -70 59 -20 36 -41 68 -47 72 -7 4 0 17 16 34 l26 27
-38 16 c-39 15 -63 49 -63 88 0 11 -4 18 -9 15 -12 -8 -6 37 9 65 7 13 24 39
37 57 l25 33 -26 70 c-41 111 -31 150 36 131 69 -20 243 -93 262 -110 12 -10
46 -26 78 -35 46 -14 67 -29 116 -82 55 -59 62 -70 76 -137 8 -40 18 -113 21
-163 4 -56 14 -107 26 -135 11 -25 24 -81 30 -125 9 -77 10 -81 51 -115 100
-83 121 -108 115 -139 -3 -16 -1 -45 4 -66 7 -25 7 -40 0 -49 -8 -10 -2 -28
24 -71 43 -71 43 -74 54 -315 5 -107 15 -208 21 -225 6 -16 15 -65 20 -108 6
-60 13 -84 30 -102 21 -22 21 -25 6 -31 -10 -4 -25 1 -36 11 -16 15 -20 15
-20 3 0 -8 7 -23 15 -34 19 -25 19 -44 0 -44 -9 0 -24 14 -33 31 -33 59 -42
63 -21 9 30 -79 32 -90 21 -90 -5 0 -15 7 -22 15 -10 12 -16 13 -26 4 -11 -9
-18 -8 -31 2 -15 13 -16 11 -9 -13 10 -43 91 -229 152 -349 66 -133 118 -257
155 -369 l27 -85 446 -3 446 -2 0 1800 0 1800 -1603 0 -1603 0 9 -77z"/>
<path d="M3458 1623 c-15 -26 -51 -259 -49 -317 1 -22 15 -69 30 -105 16 -36
34 -83 41 -103 6 -21 15 -38 20 -38 14 0 23 127 17 219 -4 47 -13 142 -22 210
-14 115 -25 156 -37 134z"/>
</g>
</svg>
