<?xml version="1.0" standalone="no"?>
<!DOCTYPE svg PUBLIC "-//W3C//DTD SVG 20010904//EN"
 "http://www.w3.org/TR/2001/REC-SVG-20010904/DTD/svg10.dtd">
<svg version="1.0" xmlns="http://www.w3.org/2000/svg"
 width="480.000000pt" height="360.000000pt" viewBox="0 0 480.000000 360.000000"
 preserveAspectRatio="xMidYMid meet">
<metadata>
Created by potrace 1.16, written by Peter Selinger 2001-2019
</metadata>
<rect width="1" height="360" fill="#000000"/>
<rect x="479" width="1" height="360" fill="#000000"/>
<rect width="480" height="1" fill="#000000"/>
<rect y="359" width="480" height="1" fill="#000000"/>
<g transform="translate(0.000000,360.000000) scale(0.100000,-0.100000)"
fill="#000000" stroke="none">
<path d="M2154 2974 c7 -27 -1 -26 -37 4 -9 8 -20 12 -24 8 -4 -3 3 -13 15
-22 25 -17 29 -44 7 -44 -8 0 -15 -4 -15 -10 0 -5 6 -10 14 -10 21 0 30 -20
17 -33 -6 -6 -11 -18 -11 -28 0 -26 -46 -69 -75 -69 l-27 0 21 -34 c12 -18 21
-38 21 -45 0 -14 -37 -15 -45 -1 -3 6 -17 10 -30 10 -22 0 -23 -2 -12 -31 10
-26 9 -32 -5 -40 -13 -7 -16 -17 -11 -39 3 -18 0 -36 -7 -45 -10 -12 -8 -21
15 -51 15 -20 43 -43 62 -50 19 -8 35 -20 37 -27 2 -7 20 -64 40 -127 19 -63
40 -146 46 -184 13 -82 9 -86 -66 -84 -64 1 -70 -3 -77 -47 -4 -26 0 -45 13
-68 11 -18 20 -44 20 -58 0 -15 7 -32 14 -39 8 -6 23 -33 32 -58 24 -65 57
-97 119 -117 42 -13 55 -22 64 -46 6 -16 16 -41 21 -57 6 -15 16 -56 24 -92
11 -56 11 -71 -2 -108 l-14 -44 36 -30 c39 -32 44 -49 22 -67 -8 -7 -12 -20
-9 -31 3 -13 -7 -34 -32 -62 -62 -73 -92 -146 -155 -378 -74 -272 -155 -458
-255 -585 -17 -22 -43 -61 -58 -87 l-28 -48 681 0 680 0 0 49 c0 79 -26 208
-86 418 -30 109 -71 254 -90 323 -19 69 -53 164 -75 212 -22 48 -38 92 -35 97
4 5 2 20 -3 34 -8 21 -5 27 18 45 l28 21 7 168 c8 206 -6 309 -54 386 -30 48
-30 49 -8 44 75 -18 116 -18 154 -1 32 14 68 18 194 18 179 1 203 9 244 79
l25 42 -61 119 c-33 66 -73 155 -88 198 l-28 79 38 24 c89 56 106 126 45 191
-19 20 -34 39 -32 41 2 2 35 4 73 6 60 2 77 -2 130 -29 128 -66 161 -65 189 3
27 65 11 175 -42 281 -37 73 -78 107 -139 116 -57 7 -65 1 -88 -71 -10 -28
-26 -63 -37 -77 -10 -13 -19 -27 -19 -30 0 -13 -36 -44 -93 -80 -42 -27 -67
-36 -90 -34 -28 3 -32 7 -32 31 1 15 -5 27 -11 27 -7 0 -14 7 -18 15 -4 12
-20 14 -76 10 -73 -5 -94 -11 -86 -24 3 -4 -9 -18 -25 -31 -32 -23 -34 -40
-13 -116 4 -17 -4 -24 -54 -47 -33 -14 -73 -39 -88 -55 -33 -33 -98 -67 -112
-58 -5 3 -7 36 -5 73 5 75 -9 123 -51 168 -23 25 -23 27 -9 57 12 23 13 32 3
38 -9 5 -10 22 -5 58 7 50 6 52 -25 70 -17 11 -53 22 -79 26 -25 3 -56 12 -66
20 -11 7 -35 16 -54 20 -30 5 -39 2 -67 -25 -27 -26 -38 -30 -75 -27 -31 2
-46 9 -54 23 -5 11 -19 21 -30 23 -11 2 -29 14 -40 28 -27 31 -39 31 -31 -2z
m1178 -461 c33 -30 14 -85 -39 -112 -19 -10 -23 -9 -23 5 0 9 9 18 20 21 23 6
25 19 5 53 -8 14 -14 31 -15 38 0 17 30 15 52 -5z m-305 -93 c1 -12 -7 -22
-20 -26 -12 -4 -39 -20 -59 -36 l-37 -29 -7 25 c-9 37 1 55 38 71 49 21 83 19
85 -5z m343 16 c0 -3 -4 -8 -10 -11 -5 -3 -10 -1 -10 4 0 6 5 11 10 11 6 0 10
-2 10 -4z m-542 -106 l19 -40 -45 -30 c-25 -16 -49 -30 -53 -30 -14 0 -40 46
-45 82 -6 32 -4 35 27 45 62 20 75 16 97 -27z m205 -225 c1 -5 -10 -11 -25
-13 -16 -2 -28 1 -28 7 0 20 49 26 53 6z m119 -53 c11 -11 8 -12 -17 -6 -48
11 -63 22 -27 20 17 -1 37 -7 44 -14z"/>
<path d="M4305 2123 c-30 -3 -90 -16 -157 -34 -26 -7 -43 -19 -53 -39 -19 -37
-19 -50 1 -50 11 0 14 -9 12 -37 -3 -33 -7 -38 -38 -46 -39 -10 -63 -27 -38
-27 8 0 32 -7 52 -15 20 -8 39 -14 42 -13 4 2 10 -7 15 -19 5 -13 15 -23 24
-23 28 0 42 -59 69 -280 13 -105 16 -116 42 -136 35 -29 97 -44 176 -44 73 0
105 8 246 56 l102 36 0 204 c0 142 -3 204 -11 204 -21 0 -79 -67 -73 -84 4 -9
1 -16 -6 -16 -22 0 -130 -52 -130 -63 0 -8 -3 -8 -10 -1 -16 16 -17 154 -1
163 7 5 48 11 92 15 110 9 139 16 139 34 0 11 -8 13 -37 9 -87 -14 -208 -19
-198 -9 8 8 177 32 225 32 6 0 10 11 10 25 0 29 -5 30 -132 14 l-88 -10 -25
28 c-22 24 -25 36 -22 76 2 26 1 47 -2 48 -18 3 -200 4 -226 2z"/>
</g>
</svg>
