<?xml version="1.0" standalone="no"?>
<!DOCTYPE svg PUBLIC "-//W3C//DTD SVG 20010904//EN"
 "http://www.w3.org/TR/2001/REC-SVG-20010904/DTD/svg10.dtd">
<svg version="1.0" xmlns="http://www.w3.org/2000/svg"
 width="480.000000pt" height="360.000000pt" viewBox="0 0 480.000000 360.000000"
 preserveAspectRatio="xMidYMid meet">
<metadata>
Created by potrace 1.16, written by Peter Selinger 2001-2019
</metadata>
<rect width="1" height="360" fill="#000000"/>
<rect x="479" width="1" height="360" fill="#000000"/>
<rect width="480" height="1" fill="#000000"/>
<rect y="359" width="480" height="1" fill="#000000"/>
<g transform="translate(0.000000,360.000000) scale(0.100000,-0.100000)"
fill="#000000" stroke="none">
<path d="M0 2665 l0 -934 143 49 c179 61 331 125 472 200 183 97 232 120 250
120 9 0 45 -24 78 -53 34 -30 136 -112 227 -183 91 -71 234 -195 317 -276 162
-156 249 -224 328 -258 107 -46 244 -60 430 -45 50 4 106 4 125 -1 42 -11 123
-6 115 6 -8 14 38 120 92 211 87 147 167 209 362 283 52 19 101 42 109 49 21
22 7 49 -42 80 -25 16 -59 44 -75 63 -17 19 -33 34 -36 34 -3 0 -5 -42 -6 -92
-1 -126 -13 -165 -23 -80 -13 107 -26 128 -22 35 2 -46 0 -83 -4 -83 -5 0 -14
33 -20 73 -17 99 -24 110 -44 64 -20 -49 -27 -47 -20 6 3 23 -1 70 -10 107
-13 53 -22 70 -53 96 -33 28 -40 30 -54 18 -8 -8 -28 -14 -43 -14 -25 0 -27 3
-22 23 4 12 10 37 13 56 l6 34 -36 -7 c-24 -4 -37 -3 -37 4 0 5 4 10 8 10 4 0
22 12 40 28 l32 27 -17 60 c-9 33 -18 62 -19 63 -1 2 -17 -7 -34 -20 l-32 -23
6 -205 c7 -203 6 -206 -19 -275 -14 -38 -32 -95 -40 -125 -39 -146 -35 -137
-50 -110 -13 24 -13 23 -20 -23 -4 -26 -11 -50 -16 -52 -7 -5 -11 13 -22 105
-1 14 -6 -5 -11 -42 -4 -38 -12 -68 -17 -68 -5 0 -9 -7 -9 -16 0 -23 -20 -6
-21 19 -1 17 -2 18 -6 5 -10 -38 -21 -14 -33 70 -17 121 -31 147 -27 48 5 -89
0 -85 -44 35 -42 115 -53 197 -39 299 6 47 12 92 13 100 1 10 -5 14 -20 12
-33 -5 -28 13 10 42 24 18 38 42 51 83 28 88 77 183 114 220 31 31 35 53 9 53
-32 0 -180 54 -204 74 l-27 24 21 63 c12 35 27 87 33 114 25 108 107 207 222
270 105 57 186 16 208 -105 l6 -35 22 48 c52 115 158 215 277 259 57 22 75 23
330 23 294 0 314 -3 404 -57 128 -77 225 -328 190 -490 -16 -77 -15 -87 17
-114 35 -29 74 -118 74 -167 0 -22 6 -56 12 -75 12 -33 12 -35 -30 -70 -48
-42 -51 -60 -20 -109 l21 -35 -23 7 c-20 7 -22 5 -18 -19 4 -20 2 -26 -8 -22
-8 3 -14 1 -14 -4 0 -27 -18 -3 -39 52 -28 71 -22 78 -62 -72 -32 -120 -44
-129 -53 -40 -4 40 -10 78 -13 86 -11 29 -22 12 -26 -38 -3 -41 -5 -48 -11
-30 -11 28 -24 28 -30 0 -19 -91 -33 -144 -57 -216 l-28 -83 42 -18 c23 -10
73 -30 110 -46 38 -15 93 -46 124 -69 50 -37 61 -52 113 -161 32 -66 67 -141
78 -166 l19 -45 90 3 c49 1 121 9 160 16 59 11 85 11 150 1 144 -24 267 -15
380 28 l53 19 0 1115 0 1114 -2400 0 -2400 0 0 -935z"/>
<path d="M3403 1975 c-17 -19 -16 -22 7 -28 16 -4 20 0 20 19 0 27 -9 30 -27
9z"/>
<path d="M769 1897 c-30 -18 -73 -46 -97 -61 -40 -27 -42 -30 -26 -47 12 -13
15 -28 10 -49 -5 -26 -1 -35 27 -60 25 -22 41 -52 66 -122 l32 -94 -82 -330
c-82 -333 -100 -394 -118 -394 -16 0 -20 17 -157 614 l-25 109 37 96 c25 66
46 104 66 122 25 21 28 27 16 37 -12 9 -26 6 -69 -17 -85 -46 -301 -127 -385
-145 -25 -6 -33 -13 -38 -38 -5 -26 -1 -37 23 -62 31 -33 91 -172 91 -212 0
-14 -31 -150 -70 -304 l-70 -279 0 -331 0 -330 1224 0 1223 0 6 173 c3 113 11
193 22 232 9 33 23 124 31 202 13 127 13 148 -1 201 -20 78 -19 101 5 164 11
29 20 54 20 54 0 1 -9 4 -20 7 -11 3 -24 16 -29 29 -8 19 -4 27 22 50 18 14
30 28 27 31 -3 2 -70 0 -150 -5 -80 -5 -164 -7 -187 -4 -24 3 -43 3 -43 0 0
-3 15 -20 33 -37 22 -22 41 -58 61 -117 l29 -86 -78 -324 c-43 -179 -82 -333
-87 -343 -25 -48 -31 -28 -123 380 l-65 292 36 93 c21 55 45 101 60 113 32 27
23 61 -20 74 -89 28 -286 58 -286 43 0 -6 4 -13 9 -17 5 -3 22 -42 36 -86 20
-60 26 -93 22 -123 -8 -59 -147 -637 -158 -658 -23 -44 -33 -21 -78 182 -17
74 -49 216 -71 315 l-41 179 33 94 c25 74 39 100 66 122 19 16 32 34 30 42 -3
7 -2 22 2 33 13 36 -169 237 -275 304 -58 37 -77 40 -46 7 23 -25 81 -173 81
-210 0 -35 -161 -683 -174 -702 -13 -17 -14 -16 -25 4 -13 24 -161 661 -161
692 0 38 62 186 91 215 16 17 29 41 29 52 0 12 5 25 10 28 17 11 11 22 -27 47
-21 14 -78 62 -127 107 -49 44 -94 81 -101 81 -6 0 -36 -15 -66 -33z"/>
<path d="M2426 1905 c-3 -8 -1 -15 4 -15 6 0 10 7 10 15 0 8 -2 15 -4 15 -2 0
-6 -7 -10 -15z"/>
<path d="M3431 1854 c0 -11 3 -14 6 -6 3 7 2 16 -1 19 -3 4 -6 -2 -5 -13z"/>
<path d="M4651 1227 c-102 -20 -115 -25 -123 -46 -7 -20 -4 -29 20 -50 18 -16
44 -62 66 -117 l36 -91 -80 -329 c-45 -181 -87 -335 -95 -343 -12 -13 -16 -11
-25 15 -7 16 -48 174 -91 352 l-80 324 36 86 c21 51 47 96 62 109 15 12 25 24
23 26 -3 3 -101 7 -217 9 l-213 5 0 -22 c0 -12 9 -30 19 -39 10 -10 35 -61 55
-114 l36 -97 -63 -268 -64 -268 13 -72 c7 -40 13 -123 13 -184 l1 -113 410 0
410 0 0 423 0 422 -26 102 -27 102 27 65 c31 79 35 136 9 135 -10 0 -69 -11
-132 -22z"/>
<path d="M2710 161 c0 -5 -3 -18 -6 -28 -5 -16 -4 -16 10 1 18 23 20 36 6 36
-5 0 -10 -4 -10 -9z"/>
</g>
</svg>
