<?xml version="1.0" standalone="no"?>
<!DOCTYPE svg PUBLIC "-//W3C//DTD SVG 20010904//EN"
 "http://www.w3.org/TR/2001/REC-SVG-20010904/DTD/svg10.dtd">
<svg version="1.0" xmlns="http://www.w3.org/2000/svg"
 width="480.000000pt" height="360.000000pt" viewBox="0 0 480.000000 360.000000"
 preserveAspectRatio="xMidYMid meet">
<metadata>
Created by potrace 1.16, written by Peter Selinger 2001-2019
</metadata>
<rect width="1" height="360" fill="#000000"/>
<rect x="479" width="1" height="360" fill="#000000"/>
<rect width="480" height="1" fill="#000000"/>
<rect y="359" width="480" height="1" fill="#000000"/>
<g transform="translate(0.000000,360.000000) scale(0.100000,-0.100000)"
fill="#000000" stroke="none">
<path d="M0 1800 l0 -1800 610 0 609 0 -38 82 c-21 46 -67 141 -101 213 -132
275 -135 296 -61 419 28 44 68 103 90 130 38 45 45 59 42 79 -3 16 28 63 63
96 20 19 36 43 36 52 0 36 40 107 79 141 59 51 125 84 216 108 44 12 86 27 94
33 8 7 41 24 75 38 l61 26 0 189 c0 179 -1 193 -27 269 -32 94 -48 183 -51
280 l-2 70 -35 2 c-103 8 -229 27 -263 40 -26 11 -54 14 -87 10 -27 -3 -52 -2
-55 3 -7 11 103 157 183 241 l63 67 -54 31 c-69 39 -142 104 -134 118 4 6 49
18 102 28 52 9 97 20 100 25 2 4 -4 53 -15 109 -42 214 -27 219 139 50 132
-135 115 -128 231 -94 102 29 384 48 636 42 266 -6 238 -16 309 103 77 130 90
132 97 13 5 -75 10 -95 34 -131 28 -43 45 -51 136 -67 33 -6 36 -9 23 -22 -18
-18 -20 -82 -2 -87 6 -2 44 -9 82 -15 39 -7 89 -17 111 -22 30 -8 48 -8 63 0
11 6 32 9 46 5 28 -7 34 -24 9 -24 -30 0 11 -28 47 -32 l34 -4 -30 -14 c-16
-8 -38 -22 -47 -31 -29 -29 -128 -53 -164 -40 -42 15 -44 15 -45 -16 0 -16 -3
-22 -6 -15 -6 14 -63 17 -63 2 0 -5 9 -10 21 -10 38 0 56 -17 51 -48 -3 -23
-14 -34 -50 -52 l-47 -24 30 -6 c28 -6 29 -7 8 -14 -12 -4 -38 -4 -58 0 -22 4
-64 -1 -110 -11 l-75 -18 0 -36 c0 -20 -5 -102 -10 -183 -8 -121 -7 -154 5
-188 15 -43 35 -335 35 -522 0 -95 2 -107 18 -112 11 -4 25 -18 32 -31 8 -14
30 -38 49 -52 20 -15 44 -38 54 -50 26 -32 37 -29 37 10 0 20 5 34 13 34 6 0
20 4 30 8 14 6 17 2 17 -28 0 -31 -3 -34 -21 -30 -19 5 -21 3 -15 -25 4 -18 3
-33 -3 -37 -14 -8 -14 -45 -1 -45 6 0 10 7 10 15 0 15 21 21 32 10 3 -4 1 -25
-4 -47 -11 -49 4 -94 33 -103 11 -4 26 -20 35 -37 13 -25 14 -39 5 -72 -5 -22
-13 -57 -17 -76 -4 -19 -20 -52 -36 -73 -36 -45 -47 -105 -55 -285 -3 -77 -1
-135 6 -155 7 -17 14 -71 18 -119 l6 -88 808 0 809 0 0 1800 0 1800 -2400 0
-2400 0 0 -1800z m3221 998 c10 -13 18 -26 19 -30 0 -14 -78 8 -97 28 -11 10
-9 13 9 17 44 8 50 7 69 -15z m27 -93 c3 -3 3 -8 -1 -11 -7 -7 -67 18 -67 28
0 7 59 -7 68 -17z m296 -65 c7 -7 -1 -10 -21 -10 -40 0 -65 9 -57 22 7 11 63
3 78 -12z m-226 -167 l29 -17 -33 -23 c-38 -25 -68 -21 -59 8 4 13 1 21 -10
25 -13 6 -14 8 -3 15 20 13 43 11 76 -8z m-85 -98 c1 -5 -11 -12 -27 -13 -27
-3 -28 -2 -16 13 14 17 40 17 43 0z m-151 -1127 c-15 -15 -52 1 -52 23 0 19 1
19 31 3 21 -10 28 -19 21 -26z m198 -234 c0 -7 -5 -16 -11 -20 -13 -8 -34 11
-26 23 9 14 37 12 37 -3z m77 -96 c16 -20 24 -66 14 -72 -16 -10 -41 24 -41
55 0 31 11 37 27 17z m-44 -648 c1 -33 -2 -54 -10 -57 -17 -6 -26 33 -18 84 9
59 25 44 28 -27z"/>
<path d="M3350 2599 c0 -4 -13 -10 -30 -14 -16 -4 -30 -11 -30 -16 0 -12 25
-12 48 0 9 5 25 12 35 15 24 7 22 25 -3 23 -11 -1 -20 -4 -20 -8z"/>
<path d="M1560 694 c-8 -3 -37 -16 -65 -29 -27 -13 -78 -31 -112 -41 -35 -9
-63 -21 -63 -25 0 -5 9 -32 20 -61 11 -29 38 -123 60 -208 50 -199 64 -246 83
-293 l16 -37 62 0 c54 0 60 2 55 17 -4 10 -12 65 -18 123 -10 101 -7 172 19
498 5 60 4 62 -19 61 -12 0 -30 -3 -38 -5z"/>
</g>
</svg>
