<?xml version="1.0" standalone="no"?>
<!DOCTYPE svg PUBLIC "-//W3C//DTD SVG 20010904//EN"
 "http://www.w3.org/TR/2001/REC-SVG-20010904/DTD/svg10.dtd">
<svg version="1.0" xmlns="http://www.w3.org/2000/svg"
 width="480.000000pt" height="360.000000pt" viewBox="0 0 480.000000 360.000000"
 preserveAspectRatio="xMidYMid meet">
<metadata>
Created by potrace 1.16, written by Peter Selinger 2001-2019
</metadata>
<rect width="1" height="360" fill="#000000"/>
<rect x="479" width="1" height="360" fill="#000000"/>
<rect width="480" height="1" fill="#000000"/>
<rect y="359" width="480" height="1" fill="#000000"/>
<g transform="translate(0.000000,360.000000) scale(0.100000,-0.100000)"
fill="#000000" stroke="none">
<path d="M2275 3160 c-90 -8 -139 -26 -195 -70 -91 -72 -152 -221 -155 -381
-1 -52 -5 -100 -9 -107 -4 -7 -42 -39 -85 -72 -62 -47 -84 -58 -105 -54 -38 7
-46 -2 -34 -37 8 -23 7 -37 -2 -54 -11 -20 -11 -27 0 -40 7 -8 18 -15 25 -15
7 0 47 -27 90 -60 43 -33 82 -60 88 -60 6 0 22 10 35 23 l25 22 -7 -30 c-4
-16 -10 -41 -12 -55 l-5 -25 25 28 c14 15 27 27 30 27 8 0 22 -55 18 -75 -5
-32 -75 -128 -102 -142 -21 -10 -22 -13 -7 -19 9 -3 33 -4 52 -2 41 5 42 -2
20 -74 -8 -27 -10 -48 -6 -48 5 0 24 20 42 45 19 24 38 45 43 45 5 0 6 -30 3
-67 -6 -61 -5 -66 8 -49 8 11 15 26 15 35 0 11 6 9 23 -7 13 -12 27 -19 30
-15 4 3 8 -9 8 -28 1 -19 3 -26 6 -16 7 27 36 20 61 -16 l23 -32 -6 55 c-7 61
-4 59 45 -20 13 -22 28 -40 32 -40 4 0 8 28 8 62 0 48 3 59 12 50 19 -19 23
-125 6 -140 -8 -6 -77 -19 -154 -27 -222 -23 -236 -30 -349 -173 -160 -201
-143 -185 -184 -178 -63 10 -173 72 -228 128 -29 29 -92 100 -140 157 -51 61
-124 132 -173 171 l-85 66 -5 54 c-3 29 -10 55 -17 57 -6 2 -53 -44 -104 -104
-186 -217 -286 -305 -551 -481 -129 -86 -156 -108 -146 -118 2 -2 50 -6 106
-9 119 -5 142 -15 225 -91 85 -79 79 -81 191 79 33 46 52 65 58 59 6 -6 18
-39 27 -74 9 -35 21 -62 26 -62 6 1 19 27 30 58 24 70 43 72 115 15 53 -42
100 -120 100 -168 0 -18 4 -22 18 -16 192 79 259 59 395 -118 15 -21 35 -37
43 -37 9 0 47 21 86 46 67 43 107 51 94 19 -26 -69 -76 -309 -76 -366 0 -62 3
-72 30 -103 30 -33 101 -66 144 -66 33 0 86 38 102 73 14 31 15 28 10 -53 -7
-102 -31 -200 -54 -218 -9 -7 -17 -18 -17 -25 0 -19 -55 -120 -75 -139 -11
-10 -16 -25 -13 -38 5 -20 10 -20 584 -20 423 0 580 3 585 11 4 7 -2 30 -14
53 -11 23 -23 49 -26 59 -3 9 -16 21 -29 26 -31 12 -37 29 -37 105 l0 63 42 1
c57 3 101 18 126 45 17 18 23 48 37 177 24 234 23 229 61 245 21 9 34 21 36
37 2 15 11 24 25 26 25 4 22 19 -11 66 -21 28 -21 29 -2 40 11 6 37 26 58 45
l39 34 77 -33 c96 -42 184 -91 338 -191 66 -44 126 -79 132 -79 7 0 41 20 77
45 92 62 132 73 199 52 29 -10 88 -41 130 -70 113 -76 108 -73 112 -62 29 76
124 125 260 133 97 5 127 -6 118 -43 -3 -14 -3 -41 0 -61 l7 -36 65 69 64 68
0 366 0 365 -48 54 c-53 59 -72 60 -72 4 0 -46 -26 -70 -97 -89 -133 -37 -216
-71 -363 -149 -183 -97 -195 -103 -280 -127 -108 -32 -189 -34 -330 -9 -218
38 -206 38 -231 -5 -22 -37 -22 -37 -73 -30 -28 3 -54 9 -58 13 -4 4 -18 51
-32 103 -49 194 -83 228 -281 274 -101 24 -208 66 -248 97 -17 13 -17 15 2 61
11 26 22 47 25 47 2 0 2 -19 0 -43 l-4 -42 23 48 c23 49 37 53 37 10 0 -33 16
-28 30 10 l13 32 12 -50 12 -50 26 53 c15 28 30 52 33 52 4 0 3 -20 0 -45 -4
-25 -5 -45 -1 -45 3 0 23 35 43 78 22 45 43 77 50 74 7 -2 19 -17 28 -33 16
-32 34 -31 34 2 0 24 18 24 50 -1 40 -31 42 -24 10 37 -33 62 -30 73 24 73
l30 0 -31 33 c-62 66 -81 118 -48 131 8 3 15 14 15 24 0 10 21 61 46 112 l46
94 -39 35 c-42 38 -63 69 -63 95 0 21 23 20 67 -4 21 -11 46 -20 55 -20 10 0
26 -4 36 -9 41 -22 116 -52 141 -57 26 -5 29 -2 54 58 28 65 36 152 18 187 -8
15 -5 17 27 17 49 0 173 14 184 20 15 10 8 49 -11 61 -35 22 -99 131 -146 248
-4 11 -9 53 -11 93 -2 40 -6 77 -9 82 -11 18 -135 -1 -135 -21 0 -4 -6 -6 -14
-3 -7 3 -20 -2 -29 -10 -9 -9 -22 -16 -29 -16 -13 0 -106 -58 -160 -99 -14
-12 -32 -21 -40 -21 -8 0 -19 -5 -25 -11 -7 -7 -27 7 -66 48 -62 65 -149 114
-235 132 -57 12 -357 13 -487 1z"/>
</g>
</svg>
