<?xml version="1.0" standalone="no"?>
<!DOCTYPE svg PUBLIC "-//W3C//DTD SVG 20010904//EN"
 "http://www.w3.org/TR/2001/REC-SVG-20010904/DTD/svg10.dtd">
<svg version="1.0" xmlns="http://www.w3.org/2000/svg"
 width="480.000000pt" height="360.000000pt" viewBox="0 0 480.000000 360.000000"
 preserveAspectRatio="xMidYMid meet">
<metadata>
Created by potrace 1.16, written by Peter Selinger 2001-2019
</metadata>
<rect width="1" height="360" fill="#000000"/>
<rect x="479" width="1" height="360" fill="#000000"/>
<rect width="480" height="1" fill="#000000"/>
<rect y="359" width="480" height="1" fill="#000000"/>
<g transform="translate(0.000000,360.000000) scale(0.100000,-0.100000)"
fill="#000000" stroke="none">
<path d="M0 3240 l0 -359 40 -83 c22 -45 40 -88 40 -95 0 -26 63 -209 77 -225
20 -22 2 -48 -33 -48 -13 0 -33 -4 -46 -9 -13 -5 -35 -12 -50 -15 l-28 -6 0
-144 0 -143 78 -22 c42 -13 85 -25 94 -28 10 -2 18 -9 18 -15 0 -6 -9 -8 -22
-3 -13 3 -57 9 -98 11 l-75 5 35 -20 c48 -27 73 -51 119 -120 62 -91 83 -104
159 -98 85 6 157 44 204 106 50 65 87 81 188 81 98 0 135 16 157 67 34 83 -41
194 -177 263 -43 21 -81 36 -84 33 -3 -4 -14 1 -23 9 -10 8 -30 18 -45 22 -16
3 -28 11 -28 17 0 8 -5 8 -15 -1 -14 -11 -35 -6 -35 9 0 4 21 17 48 29 42 20
54 21 107 12 33 -5 100 -10 148 -10 99 0 124 -10 242 -100 33 -26 85 -60 116
-78 50 -28 60 -31 88 -21 25 9 31 17 32 42 1 18 2 43 3 57 1 22 -11 31 -100
75 -56 28 -128 70 -160 95 -56 42 -65 45 -189 67 -71 12 -153 23 -181 23 -42
0 -55 5 -76 28 -37 40 -41 89 -14 170 13 37 33 86 45 109 28 56 27 72 -5 42
l-26 -24 7 36 c4 21 3 39 -3 43 -21 13 30 157 86 241 53 80 95 126 200 216 59
51 114 98 122 106 12 11 -65 13 -463 13 l-477 0 0 -360z m110 -269 c-1 -13
-29 45 -29 59 0 8 6 0 14 -19 8 -18 15 -36 15 -40z"/>
<path d="M2400 1800 l0 -1800 889 0 c839 0 890 1 895 18 3 9 8 35 12 57 7 47
63 272 98 397 13 48 20 88 15 90 -5 2 -5 17 1 38 10 36 4 78 -10 64 -4 -5 -16
-34 -26 -64 -18 -54 -18 -55 -24 -23 l-5 33 -24 -36 c-16 -22 -27 -31 -31 -23
-6 8 -9 8 -14 0 -15 -23 -24 -10 -15 21 14 49 13 50 -38 18 -70 -45 -111 -56
-131 -36 -15 15 -13 23 28 107 25 50 51 95 57 101 24 20 13 25 -35 15 -51 -11
-107 -3 -97 13 4 6 -11 10 -36 10 -37 0 -40 2 -28 17 13 15 11 16 -11 10 -24
-6 -26 -4 -27 33 -2 37 2 42 60 89 121 97 125 100 101 101 -11 0 -34 -11 -50
-25 -35 -30 -42 -26 -17 11 18 27 17 28 -5 22 -44 -12 -21 10 41 37 157 69
225 110 252 152 14 21 14 28 0 70 -9 25 -25 57 -35 71 -19 24 -20 26 -3 45 23
25 86 57 113 57 35 0 123 41 157 73 32 30 34 30 65 15 42 -20 128 -96 128
-113 0 -16 -22 -25 -66 -25 -19 0 -34 -2 -34 -5 0 -3 18 -41 40 -85 43 -86 48
-105 25 -97 -22 9 -24 -2 -13 -73 5 -36 11 -87 13 -115 5 -72 34 -187 51 -206
7 -8 14 -34 14 -57 0 -32 10 -59 40 -108 44 -73 47 -82 26 -98 -13 -10 -13
-23 0 -101 7 -49 22 -121 33 -160 19 -70 19 -65 20 1598 l1 1667 -1200 0
-1200 0 0 -1800z"/>
</g>
</svg>
