<?xml version="1.0" standalone="no"?>
<!DOCTYPE svg PUBLIC "-//W3C//DTD SVG 20010904//EN"
 "http://www.w3.org/TR/2001/REC-SVG-20010904/DTD/svg10.dtd">
<svg version="1.0" xmlns="http://www.w3.org/2000/svg"
 width="480.000000pt" height="360.000000pt" viewBox="0 0 480.000000 360.000000"
 preserveAspectRatio="xMidYMid meet">
<metadata>
Created by potrace 1.16, written by Peter Selinger 2001-2019
</metadata>
<rect width="1" height="360" fill="#000000"/>
<rect x="479" width="1" height="360" fill="#000000"/>
<rect width="480" height="1" fill="#000000"/>
<rect y="359" width="480" height="1" fill="#000000"/>
<g transform="translate(0.000000,360.000000) scale(0.100000,-0.100000)"
fill="#000000" stroke="none">
<path d="M2783 3218 c-68 -7 -139 -35 -189 -73 -18 -14 -41 -25 -51 -25 -26 0
-43 -19 -43 -47 0 -13 -11 -45 -24 -71 -29 -57 -46 -142 -46 -229 0 -60 4 -69
32 -64 4 0 15 -13 24 -31 11 -21 18 -27 24 -18 5 9 11 7 22 -9 8 -11 17 -18
20 -15 3 3 17 2 32 -2 29 -7 33 -29 11 -58 -16 -21 -4 -46 22 -46 7 0 16 -6
19 -14 3 -8 31 -34 62 -59 43 -33 62 -42 77 -37 15 6 22 2 26 -14 6 -19 8 -18
19 11 13 35 30 35 30 0 0 -13 -29 -49 -78 -96 -86 -83 -182 -196 -182 -213 0
-6 9 -3 20 7 33 30 33 11 2 -52 -64 -126 -74 -209 -37 -313 8 -22 11 -40 6
-40 -4 0 -32 13 -62 29 -30 16 -98 44 -152 62 -81 28 -102 39 -113 62 -8 15
-12 32 -9 36 3 5 -3 23 -12 39 -17 29 -17 32 0 67 10 20 15 40 12 45 -3 5 6
20 20 34 32 32 31 35 -5 81 -16 21 -30 43 -30 50 0 24 -29 39 -53 27 -12 -6
-37 -14 -55 -17 -45 -9 -90 -49 -102 -93 -5 -20 -10 -74 -10 -118 0 -45 -9
-135 -21 -200 -15 -87 -19 -139 -14 -194 7 -82 22 -140 35 -140 5 0 12 -16 16
-36 5 -28 -4 -65 -51 -190 -31 -86 -59 -173 -61 -194 -4 -34 -2 -38 25 -50 16
-6 34 -9 40 -6 20 13 87 -39 144 -111 32 -41 62 -71 68 -67 6 3 19 -2 30 -12
15 -14 22 -15 31 -6 10 10 6 24 -15 64 -20 37 -25 54 -17 62 6 6 48 11 95 11
54 0 88 4 97 13 20 20 19 135 -2 297 -35 270 -36 291 -11 304 18 10 33 3 109
-49 l89 -60 3 -63 c6 -120 2 -164 -24 -268 -49 -200 -56 -237 -72 -350 -24
-179 -69 -342 -177 -641 l-46 -128 749 0 c510 0 750 3 750 10 0 15 -39 91
-115 220 -103 175 -156 287 -251 526 -103 262 -112 281 -220 455 -51 82 -84
146 -84 163 0 15 -7 43 -15 64 -40 93 -34 361 6 336 6 -3 7 10 3 33 -8 51 10
114 41 143 16 15 25 19 25 10 0 -10 5 -9 18 3 10 10 26 17 36 17 14 0 16 6 10
38 -13 72 -75 266 -95 293 -29 42 -24 53 15 30 l34 -21 8 42 c4 24 9 37 11 31
7 -20 19 -15 32 14 10 22 14 24 22 12 6 -9 7 0 3 29 -6 37 -4 42 10 36 19 -7
19 -1 7 44 -10 33 -4 41 17 20 19 -19 15 7 -9 53 -23 46 -19 66 5 22 29 -54
16 -1 -19 73 -19 42 -46 118 -60 171 -14 53 -37 118 -52 145 -28 52 -133 157
-182 183 -42 21 -127 32 -198 23z"/>
</g>
</svg>
