<?xml version="1.0" standalone="no"?>
<!DOCTYPE svg PUBLIC "-//W3C//DTD SVG 20010904//EN"
 "http://www.w3.org/TR/2001/REC-SVG-20010904/DTD/svg10.dtd">
<svg version="1.0" xmlns="http://www.w3.org/2000/svg"
 width="480.000000pt" height="360.000000pt" viewBox="0 0 480.000000 360.000000"
 preserveAspectRatio="xMidYMid meet">
<metadata>
Created by potrace 1.16, written by Peter Selinger 2001-2019
</metadata>
<rect width="1" height="360" fill="#000000"/>
<rect x="479" width="1" height="360" fill="#000000"/>
<rect width="480" height="1" fill="#000000"/>
<rect y="359" width="480" height="1" fill="#000000"/>
<g transform="translate(0.000000,360.000000) scale(0.100000,-0.100000)"
fill="#000000" stroke="none">
<path d="M1606 3462 c6 -118 3 -160 -16 -283 -12 -79 -29 -154 -36 -166 -8
-12 -14 -29 -14 -37 0 -49 -118 -269 -197 -369 -21 -27 -48 -63 -61 -80 -13
-18 -25 -31 -27 -30 -3 1 -27 -22 -56 -52 -104 -110 -391 -275 -514 -295 -30
-5 -62 -13 -72 -18 -88 -46 -443 -49 -596 -6 -16 5 -17 -50 -17 -1060 l0
-1066 1338 0 1338 0 23 123 c33 182 56 262 121 435 70 188 86 249 154 589 33
162 50 267 44 276 -4 9 -15 62 -24 119 l-16 103 -45 28 c-24 15 -49 27 -55 27
-7 0 -22 10 -36 23 -23 21 -24 21 -37 3 -8 -10 -16 -24 -18 -30 -3 -7 -12 -4
-25 8 -20 18 -22 18 -74 -12 -29 -16 -65 -32 -80 -36 -29 -6 -291 56 -341 81
-23 11 -35 12 -64 2 -19 -6 -52 -9 -73 -6 -51 7 -84 -24 -41 -38 27 -8 23 -44
-6 -51 -34 -9 -70 20 -84 67 -16 53 1 85 62 117 68 35 149 31 504 -22 34 -5
44 -2 68 19 23 20 26 28 17 44 -11 22 -8 25 33 35 26 6 28 10 22 38 -9 37 -3
41 90 69 84 25 140 56 177 97 15 18 46 36 70 43 24 7 47 16 51 19 5 4 -27 36
-70 70 -61 50 -77 68 -75 86 3 27 -29 49 -61 40 -22 -5 -67 29 -67 52 0 6 -7
12 -15 12 -18 0 -18 2 -4 92 l11 71 -66 66 c-71 72 -83 105 -43 120 12 5 126
11 252 15 228 6 230 6 280 -17 93 -44 146 -104 197 -223 14 -34 44 -85 66
-114 70 -93 85 -144 87 -306 2 -97 7 -155 18 -190 9 -27 24 -82 33 -122 15
-67 15 -82 1 -165 -21 -123 -30 -206 -26 -242 2 -16 3 -75 4 -130 0 -83 -4
-110 -24 -157 l-23 -58 42 -146 c57 -202 86 -280 183 -501 82 -184 123 -290
147 -380 l11 -43 424 0 425 0 0 1800 0 1800 -1600 0 -1601 0 7 -138z"/>
</g>
</svg>
