<?xml version="1.0" standalone="no"?>
<!DOCTYPE svg PUBLIC "-//W3C//DTD SVG 20010904//EN"
 "http://www.w3.org/TR/2001/REC-SVG-20010904/DTD/svg10.dtd">
<svg version="1.0" xmlns="http://www.w3.org/2000/svg"
 width="480.000000pt" height="360.000000pt" viewBox="0 0 480.000000 360.000000"
 preserveAspectRatio="xMidYMid meet">
<metadata>
Created by potrace 1.16, written by Peter Selinger 2001-2019
</metadata>
<rect width="1" height="360" fill="#000000"/>
<rect x="479" width="1" height="360" fill="#000000"/>
<rect width="480" height="1" fill="#000000"/>
<rect y="359" width="480" height="1" fill="#000000"/>
<g transform="translate(0.000000,360.000000) scale(0.100000,-0.100000)"
fill="#000000" stroke="none">
<path d="M0 1800 l0 -1800 610 0 c336 0 610 2 610 6 0 13 -72 33 -145 39 -111
10 -177 29 -229 64 -70 48 -92 53 -229 52 -125 -1 -130 0 -170 27 -23 16 -64
37 -92 47 -27 10 -62 31 -77 45 -29 30 -28 54 6 134 22 52 20 62 -10 93 -27
27 -27 28 19 54 13 7 17 18 13 33 -3 14 1 25 13 33 10 6 23 32 30 57 12 50 44
78 111 96 183 49 242 68 351 111 69 28 160 73 202 100 70 45 317 272 337 309
6 11 -2 43 -26 101 -61 145 -60 135 -4 374 40 167 49 229 38 242 -15 19 -82
16 -108 -5 -12 -10 -34 -42 -48 -72 -21 -44 -36 -60 -72 -78 -40 -21 -53 -23
-120 -17 -146 14 -141 15 -165 -30 -19 -36 -24 -40 -54 -37 -49 4 -156 67
-196 117 -33 40 -37 51 -52 162 -47 358 90 714 400 1040 l99 103 -60 87 c-32
49 -65 99 -72 112 l-13 24 31 -24 c16 -13 56 -57 87 -96 32 -40 62 -73 67 -73
5 0 36 15 67 34 163 95 399 177 584 202 100 14 136 15 226 5 139 -15 253 -44
370 -94 62 -26 109 -39 134 -38 27 1 37 -3 37 -14 0 -8 -9 -15 -20 -15 -25 0
-25 -5 1 -47 15 -23 18 -37 11 -42 -11 -7 -3 -55 24 -142 18 -58 17 -60 -1
-52 -9 3 -21 -2 -28 -11 -7 -10 -32 -20 -56 -23 -47 -6 -61 -26 -61 -87 0
-115 -72 -206 -181 -227 -34 -7 -70 -20 -79 -29 -10 -10 -27 -49 -39 -88 -12
-39 -36 -90 -54 -114 -40 -53 -122 -104 -182 -112 -24 -4 -47 -11 -50 -15 -2
-5 43 -71 101 -147 58 -77 138 -183 178 -236 41 -56 83 -102 99 -109 29 -12
117 -120 117 -143 0 -7 6 -18 13 -25 22 -18 37 8 37 66 0 44 -5 58 -30 86 -34
39 -36 49 -15 67 24 20 79 -29 99 -87 20 -57 20 -94 2 -138 -24 -58 -69 -75
-128 -50 -13 5 -22 -2 -37 -27 -11 -18 -23 -36 -28 -41 -64 -60 -69 -63 -169
-80 -127 -22 -135 -32 -104 -122 45 -127 53 -204 55 -515 1 -163 7 -327 14
-365 11 -72 19 -212 20 -367 l1 -88 1066 0 c707 0 1063 3 1059 10 -4 6 10 10
34 10 22 0 43 -4 46 -10 4 -6 113 -10 296 -10 l289 0 0 1800 0 1800 -2400 0
-2400 0 0 -1800z m3501 1384 c35 -17 34 -38 -2 -42 -17 -2 -34 7 -54 28 l-29
30 28 0 c15 0 41 -7 57 -16z m-520 -384 c30 0 22 -17 -12 -29 -56 -19 -149 -8
-126 15 9 10 88 23 105 18 8 -2 22 -4 33 -4z m1059 -5 c16 -19 1 -19 -24 0
-16 12 -17 15 -4 15 8 0 21 -7 28 -15z m-1469 -142 c-8 -15 -10 -15 -11 -2 0
17 10 32 18 25 2 -3 -1 -13 -7 -23z m-267 -84 c15 -12 25 -24 22 -26 -5 -5
-76 35 -76 43 0 11 30 2 54 -17z m1584 -521 c-5 -15 -57 -29 -80 -22 -28 9
-21 22 15 27 62 7 69 7 65 -5z m-1168 -197 c0 -13 -177 -88 -186 -78 -11 11
77 60 129 73 28 7 53 13 55 13 1 1 2 -3 2 -8z m1649 -227 c8 -8 -4 -12 -43
-15 -41 -4 -63 15 -29 24 18 5 64 -1 72 -9z m-4198 -145 c47 -16 69 -37 90
-87 11 -24 19 -45 19 -47 0 -9 -64 -12 -94 -4 -39 11 -61 37 -76 88 -16 58 -1
70 61 50z m479 -69 c0 -5 -16 -10 -35 -10 -19 0 -35 5 -35 10 0 6 16 10 35 10
19 0 35 -4 35 -10z m2450 -399 c0 -13 -29 -35 -37 -28 -7 8 15 37 28 37 5 0 9
-4 9 -9z m750 -481 c0 -14 -38 -32 -58 -28 -13 3 -10 8 13 20 36 19 45 21 45
8z m-640 -155 c7 -14 10 -28 6 -32 -9 -9 -36 25 -36 44 0 21 16 15 30 -12z
m-250 -181 c0 -12 -8 -30 -17 -39 -15 -16 -18 -15 -34 7 -21 27 -24 51 -8 80
11 20 11 20 35 -3 13 -12 24 -33 24 -45z m-690 31 c0 -17 -9 -29 -30 -40 -41
-21 -50 -19 -50 15 0 31 20 49 58 50 17 0 22 -6 22 -25z"/>
<path d="M1677 2283 c-14 -13 -6 -36 17 -54 14 -11 28 -30 32 -42 4 -12 10
-24 13 -27 4 -3 29 -32 56 -64 28 -33 65 -76 84 -95 48 -51 91 -121 91 -149 0
-13 -13 -57 -30 -99 -47 -117 -46 -117 57 -82 47 16 87 30 89 32 2 1 -3 37
-10 79 -13 76 -14 76 -156 264 -79 104 -155 201 -168 217 -24 25 -60 35 -75
20z"/>
<path d="M1470 1510 c0 -5 4 -10 9 -10 6 0 13 5 16 10 3 6 -1 10 -9 10 -9 0
-16 -4 -16 -10z"/>
</g>
</svg>
