<?xml version="1.0" standalone="no"?>
<!DOCTYPE svg PUBLIC "-//W3C//DTD SVG 20010904//EN"
 "http://www.w3.org/TR/2001/REC-SVG-20010904/DTD/svg10.dtd">
<svg version="1.0" xmlns="http://www.w3.org/2000/svg"
 width="480.000000pt" height="360.000000pt" viewBox="0 0 480.000000 360.000000"
 preserveAspectRatio="xMidYMid meet">
<metadata>
Created by potrace 1.16, written by Peter Selinger 2001-2019
</metadata>
<rect width="1" height="360" fill="#000000"/>
<rect x="479" width="1" height="360" fill="#000000"/>
<rect width="480" height="1" fill="#000000"/>
<rect y="359" width="480" height="1" fill="#000000"/>
<g transform="translate(0.000000,360.000000) scale(0.100000,-0.100000)"
fill="#000000" stroke="none">
<path d="M0 2750 c0 -467 1 -850 3 -850 1 0 37 7 80 15 101 19 101 19 43 -9
-57 -28 -50 -37 19 -26 28 4 58 4 68 -1 14 -8 28 1 71 45 29 30 64 57 77 60
146 32 174 42 184 64 8 19 17 22 61 22 43 0 57 5 83 29 17 16 42 31 56 34 31
5 738 -7 1225 -23 385 -12 578 -24 675 -41 50 -10 68 -10 77 -1 19 19 21 111
3 129 -13 13 -15 13 -15 -1 0 -28 -18 -17 -25 14 -8 37 -18 38 -31 3 -10 -28
-10 -27 -28 25 -16 49 -36 70 -36 38 0 -7 -7 -19 -15 -26 -11 -9 -15 -9 -15
-1 0 7 -4 10 -9 6 -16 -9 -30 29 -42 110 -6 42 -14 87 -19 98 l-9 22 0 -22
c-1 -17 -5 -21 -18 -16 -11 4 -14 3 -9 -5 4 -7 2 -12 -3 -12 -6 0 -11 5 -11
11 0 16 -42 48 -63 49 -12 0 -17 6 -15 19 2 11 -11 33 -32 54 -44 42 -60 92
-60 184 0 58 5 80 32 134 49 99 92 162 137 199 138 117 144 120 260 149 93 23
156 26 216 10 47 -13 204 -91 246 -122 81 -59 144 -229 178 -481 6 -44 23
-114 36 -155 21 -63 24 -85 18 -130 -9 -59 -29 -79 -35 -34 l-4 28 -8 -30 c-4
-16 -21 -58 -37 -93 -27 -57 -32 -62 -44 -46 -12 17 -13 16 -19 -4 -4 -11 -12
-19 -19 -16 -7 2 -18 -6 -26 -18 -12 -20 -12 -23 5 -33 10 -5 54 -44 99 -86
44 -41 100 -89 125 -105 75 -48 185 -131 224 -167 65 -62 91 -165 71 -282 -9
-52 -55 -197 -66 -209 -5 -6 -9 -24 -9 -42 0 -31 27 -58 130 -126 195 -130
226 -154 247 -198 13 -25 34 -54 48 -65 19 -16 25 -30 25 -58 0 -21 9 -64 20
-97 31 -92 40 -315 12 -308 -4 1 -21 -6 -39 -15 -63 -34 -78 -3 -89 184 -8
132 -6 130 -98 149 -38 8 -69 22 -94 43 -21 19 -33 25 -30 15 5 -11 0 -18 -18
-22 -32 -8 -30 -19 12 -96 69 -127 173 -430 200 -583 l6 -37 409 0 409 0 0
1800 0 1800 -2400 0 -2400 0 0 -850z m150 826 c0 -15 -16 -30 -42 -39 -24 -9
-30 6 -12 31 17 24 54 30 54 8z m400 -80 c0 -2 -7 -9 -15 -16 -12 -10 -15 -10
-15 4 0 9 7 16 15 16 8 0 15 -2 15 -4z m850 -336 c13 -9 12 -12 -4 -25 -22
-17 -66 -20 -66 -6 0 10 39 41 50 41 3 0 12 -5 20 -10z m475 0 c-3 -5 -15 -10
-25 -10 -10 0 -22 5 -25 10 -4 6 7 10 25 10 18 0 29 -4 25 -10z m2510 -40 c3
-5 -3 -10 -14 -10 -12 0 -21 5 -21 10 0 6 6 10 14 10 8 0 18 -4 21 -10z
m-3049 -111 c4 -8 1 -8 -14 0 -12 6 -24 16 -28 22 -4 8 -1 8 14 0 12 -6 24
-16 28 -22z m744 -579 c0 -13 -20 -13 -40 0 -12 8 -9 10 13 10 15 0 27 -4 27
-10z m1776 -911 c14 -28 19 -59 9 -59 -14 0 -62 30 -81 52 -25 26 -38 63 -29
78 9 14 84 -38 101 -71z m799 -70 c4 -5 0 -18 -8 -27 -8 -9 -18 -27 -21 -39
-13 -40 -53 -63 -113 -63 -67 0 -75 15 -36 67 30 41 46 54 78 65 33 10 93 9
100 -3z"/>
<path d="M3142 2192 c-20 -37 -21 -43 -7 -49 25 -9 37 10 33 53 l-3 39 -23
-43z"/>
<path d="M113 1830 c-71 -10 -84 -16 -77 -35 12 -29 154 3 154 35 0 11 -1 11
-77 0z"/>
<path d="M1415 1779 c-266 -16 -559 -51 -578 -69 -5 -4 11 -11 35 -15 59 -10
88 -26 132 -75 59 -65 79 -121 80 -220 1 -114 -25 -181 -103 -259 -91 -92
-193 -120 -312 -85 -106 32 -138 82 -79 125 22 16 33 17 100 8 102 -15 150 -2
211 60 59 59 76 122 54 198 -29 96 -101 133 -258 133 -82 0 -91 -4 -116 -51
-22 -41 -51 -48 -88 -21 -56 39 -96 54 -190 68 -104 15 -253 19 -253 6 0 -4
26 -13 58 -20 111 -23 123 -62 19 -63 -92 -1 -113 -13 -51 -28 59 -14 124 -41
124 -52 0 -14 -39 -20 -86 -13 -34 5 -45 4 -40 -5 4 -6 15 -11 24 -11 9 0 35
-9 57 -19 40 -18 40 -18 13 -23 -16 -3 -28 -1 -28 4 0 5 -4 6 -10 3 -8 -5 -46
2 -112 21 -17 5 -18 -32 -18 -685 l0 -691 1303 0 1302 0 30 58 c98 189 151
272 282 447 78 104 82 111 68 132 -20 31 -19 60 5 90 11 14 20 41 20 59 0 29
-4 34 -32 39 -18 3 -46 5 -63 4 -69 -6 -124 2 -146 20 l-22 18 22 37 c12 20
26 36 31 36 4 0 22 22 39 48 27 43 31 58 31 118 0 121 -49 254 -138 376 -27
37 -62 98 -77 135 -33 84 -39 91 -84 102 -133 35 -908 75 -1156 60z m655 -384
c0 -12 -24 -55 -32 -55 -11 0 -10 17 2 41 9 17 30 27 30 14z m-385 -45 c3 -5
1 -10 -4 -10 -6 0 -11 5 -11 10 0 6 2 10 4 10 3 0 8 -4 11 -10z m-1421 -45 c3
-8 1 -15 -3 -15 -5 0 -11 7 -15 15 -3 8 -1 15 3 15 5 0 11 -7 15 -15z m1056
-14 c12 -23 13 -98 2 -105 -15 -9 -43 65 -37 95 8 34 20 37 35 10z m146 -390
c-8 -12 -46 -21 -46 -11 0 5 8 11 18 13 29 8 33 7 28 -2z"/>
<path d="M181 1726 c-8 -9 -11 -19 -7 -23 9 -9 29 13 24 27 -2 8 -8 7 -17 -4z"/>
<path d="M4090 430 c0 -47 4 -49 26 -15 13 20 14 28 4 40 -21 25 -30 17 -30
-25z"/>
</g>
</svg>
