<?xml version="1.0" standalone="no"?>
<!DOCTYPE svg PUBLIC "-//W3C//DTD SVG 20010904//EN"
 "http://www.w3.org/TR/2001/REC-SVG-20010904/DTD/svg10.dtd">
<svg version="1.0" xmlns="http://www.w3.org/2000/svg"
 width="480.000000pt" height="360.000000pt" viewBox="0 0 480.000000 360.000000"
 preserveAspectRatio="xMidYMid meet">
<metadata>
Created by potrace 1.16, written by Peter Selinger 2001-2019
</metadata>
<rect width="1" height="360" fill="#000000"/>
<rect x="479" width="1" height="360" fill="#000000"/>
<rect width="480" height="1" fill="#000000"/>
<rect y="359" width="480" height="1" fill="#000000"/>
<g transform="translate(0.000000,360.000000) scale(0.100000,-0.100000)"
fill="#000000" stroke="none">
<path d="M713 3528 c-326 -316 -579 -781 -680 -1253 -28 -128 -28 -135 -28
-475 0 -338 1 -348 28 -478 63 -308 186 -605 354 -862 94 -143 170 -238 292
-362 l95 -98 248 0 248 0 -14 23 c-32 48 -106 258 -122 343 -20 110 -20 346 0
459 30 171 113 355 228 505 51 66 173 182 245 233 154 108 352 190 523 216 78
12 152 15 367 12 263 -3 456 51 657 184 38 25 71 45 73 45 8 0 82 68 168 155
163 163 271 373 310 602 43 253 9 516 -94 737 l-41 86 -1391 0 -1391 0 -75
-72z m1910 -313 c50 -21 103 -69 135 -124 24 -41 27 -56 27 -136 -1 -84 -3
-94 -33 -141 -36 -58 -99 -112 -145 -125 -49 -14 -160 -11 -208 6 -54 20 -125
86 -151 142 -10 23 -21 71 -25 106 -5 56 -2 72 21 123 41 90 101 144 181 165
42 11 155 2 198 -16z"/>
<path d="M4132 3491 c175 -180 308 -364 415 -571 106 -206 190 -442 227 -635
8 -44 17 -89 19 -100 3 -11 5 303 6 698 l1 717 -386 0 -387 0 105 -109z"/>
<path d="M4785 1374 c-22 -179 -108 -440 -214 -654 -124 -248 -247 -422 -445
-627 l-89 -93 382 0 381 0 0 715 c0 393 -2 715 -4 715 -2 0 -7 -25 -11 -56z"/>
<path d="M2198 940 c-72 -22 -148 -92 -188 -175 -21 -42 -24 -63 -22 -127 5
-179 121 -302 297 -315 142 -11 249 47 308 166 29 59 32 74 31 147 -1 71 -5
88 -34 143 -62 116 -157 172 -293 170 -40 0 -84 -4 -99 -9z"/>
</g>
</svg>
