<?xml version="1.0" standalone="no"?>
<!DOCTYPE svg PUBLIC "-//W3C//DTD SVG 20010904//EN"
 "http://www.w3.org/TR/2001/REC-SVG-20010904/DTD/svg10.dtd">
<svg version="1.0" xmlns="http://www.w3.org/2000/svg"
 width="480.000000pt" height="360.000000pt" viewBox="0 0 480.000000 360.000000"
 preserveAspectRatio="xMidYMid meet">
<metadata>
Created by potrace 1.16, written by Peter Selinger 2001-2019
</metadata>
<rect width="1" height="360" fill="#000000"/>
<rect x="479" width="1" height="360" fill="#000000"/>
<rect width="480" height="1" fill="#000000"/>
<rect y="359" width="480" height="1" fill="#000000"/>
<g transform="translate(0.000000,360.000000) scale(0.100000,-0.100000)"
fill="#000000" stroke="none">
<path d="M0 1800 l0 -1800 2400 0 2400 0 0 1800 0 1800 -2400 0 -2400 0 0
-1800z m2203 1000 c9 -13 20 -18 31 -14 9 3 32 3 52 -1 38 -7 39 -8 18 -74 -7
-23 -6 -24 42 -19 44 4 56 11 101 56 58 58 88 67 194 60 76 -6 87 -12 237
-123 45 -33 81 -63 82 -67 1 -19 -76 -5 -130 22 -63 32 -98 38 -104 18 -3 -7
-7 -32 -10 -56 -7 -48 -13 -43 102 -83 35 -12 79 -35 98 -50 19 -15 40 -30 47
-32 8 -3 5 -14 -10 -35 -13 -17 -23 -36 -23 -42 0 -6 22 -20 49 -32 34 -13 48
-25 44 -34 -3 -9 2 -14 16 -14 12 0 21 -6 21 -14 0 -8 7 -16 15 -20 8 -3 15
-10 15 -16 0 -6 -5 -8 -11 -4 -8 4 -9 -3 -4 -26 7 -31 6 -32 -19 -26 -34 8
-40 -15 -29 -125 l8 -84 63 -17 c34 -9 109 -24 166 -34 95 -15 105 -19 109
-40 5 -29 12 -29 -129 -3 -64 11 -118 19 -120 17 -2 -2 27 -21 63 -43 l67 -38
181 32 c195 34 309 39 430 17 57 -10 69 -15 67 -29 -2 -12 4 -17 21 -17 21 0
23 -4 19 -26 -4 -20 3 -32 27 -55 18 -16 40 -29 49 -29 21 -1 54 -25 45 -33
-8 -9 46 -29 58 -21 5 3 9 1 9 -4 0 -5 -9 -12 -20 -15 -24 -6 -26 -39 -5 -57
13 -11 13 -15 3 -21 -10 -7 -10 -9 0 -9 6 0 12 -4 12 -10 0 -5 -7 -10 -15 -10
-9 0 -12 -6 -9 -15 4 -9 1 -15 -7 -15 -7 0 -5 -6 7 -14 27 -20 11 -30 -27 -17
-42 14 -49 8 -9 -9 16 -7 30 -15 30 -19 0 -12 -74 -5 -99 8 -22 12 -24 12 -18
-8 4 -17 1 -21 -20 -21 -13 0 -21 -4 -18 -10 3 -5 1 -10 -5 -10 -6 0 -8 -5 -5
-10 3 -6 -4 -10 -18 -10 -35 0 -41 -12 -15 -33 l23 -19 -25 7 c-14 4 -34 7
-44 6 -11 0 -31 9 -46 19 -15 11 -40 24 -56 30 -27 10 -26 8 16 -36 51 -53 39
-49 -36 11 -45 37 -63 44 -155 63 -57 12 -140 26 -184 32 -93 12 -138 24 -202
51 l-46 19 -43 -20 c-24 -12 -51 -21 -61 -20 -67 7 -70 4 -69 -61 1 -69 -12
-87 -57 -75 -18 4 -30 17 -38 41 -7 19 -16 35 -19 35 -4 0 -12 -18 -19 -41
-27 -90 -81 -49 -81 61 l0 68 -65 7 c-37 4 -112 1 -174 -6 -99 -11 -112 -11
-135 5 -19 12 -26 25 -26 50 0 41 -17 57 -61 56 -19 0 -79 4 -134 9 -160 15
-343 21 -319 11 16 -6 20 -15 17 -32 -3 -19 5 -29 43 -53 26 -16 51 -33 56
-36 10 -6 -11 -59 -23 -59 -4 0 -50 29 -102 64 -93 63 -168 97 -259 118 -42
10 -50 9 -61 -5 -27 -38 -97 -28 -97 14 0 25 -24 35 -103 43 -37 4 -79 12 -93
18 -31 14 -57 62 -49 88 9 28 43 27 490 -23 127 -14 307 -31 400 -37 l170 -12
45 50 c25 28 54 68 65 89 11 21 34 63 52 93 l33 55 -22 17 c-16 12 -27 41 -42
110 l-21 93 -40 13 c-55 18 -75 39 -75 78 0 23 6 37 20 44 11 6 17 16 14 22
-4 6 -3 8 4 4 6 -3 23 -1 37 6 25 11 30 10 52 -16 17 -20 23 -38 21 -61 -1
-18 3 -39 9 -46 6 -8 18 -31 26 -51 17 -39 43 -54 32 -18 -4 14 2 30 19 51 28
33 31 53 16 94 -9 23 -12 24 -31 14 -20 -10 -26 -7 -55 27 -19 23 -31 46 -28
56 3 12 -3 18 -25 23 -17 4 -33 11 -36 16 -3 4 -36 25 -73 46 -113 62 -160
112 -147 154 5 15 11 16 31 9 29 -11 30 -10 4 20 -26 30 -25 42 6 74 32 31 39
32 57 6z m-433 -1280 c0 -5 -5 -10 -11 -10 -5 0 -7 5 -4 10 3 6 8 10 11 10 2
0 4 -4 4 -10z"/>
<path d="M2815 2179 l30 -31 -32 16 c-38 19 -39 17 -14 -49 18 -47 51 -74 51
-42 0 8 11 25 25 39 l24 24 -57 38 -57 37 30 -32z"/>
<path d="M2925 2170 c3 -5 1 -10 -6 -10 -7 0 -10 -2 -7 -5 7 -8 38 5 38 16 0
5 -7 9 -16 9 -8 0 -12 -4 -9 -10z"/>
<path d="M2526 2006 c-9 -21 -16 -42 -16 -47 0 -4 -25 -45 -55 -90 -100 -146
-82 -181 41 -81 39 31 84 74 99 95 l27 38 -18 35 c-11 19 -29 47 -40 62 l-22
27 -16 -39z"/>
<path d="M2999 1866 c13 -16 91 -50 136 -60 20 -4 7 7 -40 34 -71 40 -119 53
-96 26z"/>
</g>
</svg>
