<?xml version="1.0" standalone="no"?>
<!DOCTYPE svg PUBLIC "-//W3C//DTD SVG 20010904//EN"
 "http://www.w3.org/TR/2001/REC-SVG-20010904/DTD/svg10.dtd">
<svg version="1.0" xmlns="http://www.w3.org/2000/svg"
 width="480.000000pt" height="360.000000pt" viewBox="0 0 480.000000 360.000000"
 preserveAspectRatio="xMidYMid meet">
<metadata>
Created by potrace 1.16, written by Peter Selinger 2001-2019
</metadata>
<rect width="1" height="360" fill="#000000"/>
<rect x="479" width="1" height="360" fill="#000000"/>
<rect width="480" height="1" fill="#000000"/>
<rect y="359" width="480" height="1" fill="#000000"/>
<g transform="translate(0.000000,360.000000) scale(0.100000,-0.100000)"
fill="#000000" stroke="none">
<path d="M0 2277 c0 -1016 3 -1326 12 -1335 9 -9 9 -12 0 -12 -9 0 -12 -110
-12 -465 l0 -465 743 0 c738 0 742 1 717 20 -14 11 -28 20 -32 20 -4 0 -62 25
-130 55 -111 49 -129 61 -183 119 -39 42 -84 77 -130 101 -93 50 -95 52 -95
90 0 22 -7 38 -22 49 -23 15 -23 16 -3 32 11 9 39 24 63 35 44 19 49 28 32 60
-14 25 8 59 57 86 21 11 117 46 213 78 218 71 355 137 453 214 66 52 369 383
384 418 4 11 -13 37 -71 104 -7 9 -20 19 -27 21 -11 4 -10 9 4 25 16 18 16 28
8 89 -6 38 -15 112 -21 164 -9 75 -16 103 -37 133 -35 51 -62 132 -56 171 2
17 13 46 24 65 22 36 18 67 -6 57 -8 -3 -15 -1 -15 5 0 6 -6 9 -14 6 -8 -3
-28 -1 -45 6 -22 8 -31 18 -31 34 0 18 -6 23 -25 23 -23 0 -24 2 -13 25 13 30
5 43 -17 25 -39 -32 -4 50 47 108 20 24 42 60 49 80 6 21 25 63 41 95 25 51
28 63 19 89 -6 17 -11 43 -11 57 0 14 -7 39 -16 56 -12 24 -13 38 -4 80 20 87
30 103 119 177 47 39 92 79 99 87 6 8 12 11 12 7 0 -4 12 1 28 12 97 69 317
150 481 177 107 18 280 17 398 -3 35 -6 56 -5 63 2 8 8 15 6 23 -5 7 -9 28
-20 47 -24 125 -27 296 -101 407 -176 l74 -50 -7 63 c-5 52 -4 61 7 51 7 -7
13 -36 13 -67 l1 -54 97 -93 c97 -94 171 -194 242 -324 37 -67 38 -71 34 -155
-4 -77 -7 -91 -40 -145 -46 -76 -69 -91 -102 -69 -23 14 -27 14 -51 -2 -14 -9
-30 -25 -36 -35 -10 -20 -82 -59 -107 -59 -8 0 -36 12 -62 27 l-49 27 -43 -30
c-47 -34 -98 -54 -135 -54 -28 0 -94 32 -112 54 -18 22 -54 20 -104 -6 -58
-29 -140 -30 -189 -1 -35 20 -37 20 -52 4 -9 -10 -16 -29 -16 -43 0 -26 -15
-44 -54 -63 -19 -10 -33 -45 -51 -130 -92 -433 -91 -424 -77 -446 10 -16 10
-30 -2 -70 -9 -28 -13 -63 -10 -79 5 -22 1 -31 -15 -42 -34 -21 -29 -80 10
-112 33 -28 59 -32 92 -14 34 18 45 38 53 96 5 39 10 52 23 52 28 0 41 -22 41
-68 0 -120 -135 -192 -237 -126 -53 35 -73 71 -73 132 0 48 -2 51 -32 61 -39
12 -88 10 -88 -4 0 -5 5 -28 10 -50 5 -22 18 -112 29 -200 11 -88 29 -218 40
-290 18 -115 28 -171 61 -330 8 -38 37 -150 94 -365 14 -52 26 -105 26 -117
l0 -23 1035 0 1035 0 0 1800 0 1800 -1825 0 -1825 0 -10 -25 c-7 -19 -17 -25
-40 -25 -25 0 -30 4 -30 25 l0 25 -535 0 -535 0 0 -1323z m3042 1238 c18 -29
35 -45 47 -45 37 0 30 -16 -15 -38 -48 -23 -80 -27 -103 -13 -12 8 -8 13 18
28 33 19 34 24 15 91 -11 37 9 25 38 -23z m-912 -35 c0 -21 -47 -76 -56 -67
-7 6 12 45 34 70 19 22 22 21 22 -3z m-976 -198 c9 -15 -6 -52 -20 -52 -15 0
-18 18 -8 44 7 17 20 21 28 8z m2750 -108 c-23 -54 -30 -24 -7 31 12 31 19 39
21 26 2 -10 -4 -36 -14 -57z m-2776 -271 c5 -18 -23 -16 -39 3 -11 14 -10 15
11 12 13 -1 25 -9 28 -15z m392 -108 c0 -15 -6 -25 -14 -25 -22 0 -30 19 -16
35 18 22 30 18 30 -10z m-1430 -45 c8 -15 8 -20 -3 -20 -14 0 -37 19 -37 32 0
16 30 7 40 -12z m1091 -390 c-24 -20 -61 -27 -61 -12 0 12 40 31 65 31 19 0
19 -1 -4 -19z m-1053 -177 c-2 -10 -11 -19 -21 -21 -16 -3 -17 -1 -7 17 13 25
33 28 28 4z m867 -63 c16 -7 13 -9 -17 -9 -21 -1 -38 4 -38 9 0 12 27 12 55 0z
m3586 -341 l24 -20 -35 5 c-19 4 -41 13 -50 21 -13 13 -11 15 12 15 14 0 36
-9 49 -21z m-1071 -305 c0 -16 -27 -43 -42 -44 -12 0 -9 35 4 48 17 17 38 15
38 -4z m1088 -26 c22 -22 14 -74 -13 -92 -23 -15 -25 -15 -40 6 -20 29 -19 40
6 72 23 29 30 31 47 14z m-3368 -13 c0 -8 -102 -57 -108 -51 -7 7 -5 9 38 35
32 19 70 28 70 16z m-450 -239 c0 -2 -7 -7 -16 -10 -8 -3 -12 -2 -9 4 6 10 25
14 25 6z m3360 -67 c0 -10 -4 -19 -10 -19 -5 0 -10 12 -10 26 0 14 4 23 10 19
6 -3 10 -15 10 -26z m-3970 -176 c12 -11 -29 -23 -63 -19 -46 5 -57 14 -37 27
14 8 88 3 100 -8z m3328 -251 c2 -14 -2 -22 -12 -22 -19 0 -29 17 -22 36 8 22
30 12 34 -14z m-2795 -186 c7 -18 -1 -26 -28 -26 -29 0 -37 10 -24 27 15 17
45 17 52 -1z m-437 -421 c-23 -17 -42 -19 -50 -6 -7 11 11 19 44 20 24 0 24 0
6 -14z"/>
<path d="M2456 2379 c-11 -7 -41 -9 -76 -5 l-57 7 -41 -45 c-23 -25 -42 -51
-42 -57 0 -8 -5 -7 -16 2 -14 11 -18 11 -28 -3 -11 -15 -13 -15 -23 0 -11 15
-12 15 -12 -3 -1 -14 11 -25 42 -38 47 -19 117 -72 117 -89 0 -6 -6 -5 -15 2
-30 25 -24 3 7 -26 18 -16 26 -21 19 -11 -8 9 -11 21 -7 25 4 4 13 0 19 -8 7
-8 39 -37 72 -65 32 -27 70 -60 84 -73 15 -13 28 -19 34 -13 4 4 13 41 18 81
9 77 28 117 78 164 36 34 39 52 11 61 -11 3 -42 28 -70 56 -50 50 -77 59 -114
38z"/>
<path d="M2701 1924 c0 -11 3 -14 6 -6 3 7 2 16 -1 19 -3 4 -6 -2 -5 -13z"/>
<path d="M2687 1880 c-7 -28 -6 -32 9 -22 6 4 8 16 4 26 -6 18 -7 18 -13 -4z"/>
<path d="M2676 1825 c-4 -11 -11 -27 -15 -35 -11 -21 -82 -24 -126 -6 -21 9
-39 16 -41 16 -14 0 -32 -67 -33 -124 -1 -39 -4 -73 -6 -77 -3 -4 1 -12 9 -18
15 -13 138 -5 167 10 18 9 64 204 56 236 -4 16 -5 16 -11 -2z"/>
</g>
</svg>
