<?xml version="1.0" standalone="no"?>
<!DOCTYPE svg PUBLIC "-//W3C//DTD SVG 20010904//EN"
 "http://www.w3.org/TR/2001/REC-SVG-20010904/DTD/svg10.dtd">
<svg version="1.0" xmlns="http://www.w3.org/2000/svg"
 width="480.000000pt" height="360.000000pt" viewBox="0 0 480.000000 360.000000"
 preserveAspectRatio="xMidYMid meet">
<metadata>
Created by potrace 1.16, written by Peter Selinger 2001-2019
</metadata>
<rect width="1" height="360" fill="#000000"/>
<rect x="479" width="1" height="360" fill="#000000"/>
<rect width="480" height="1" fill="#000000"/>
<rect y="359" width="480" height="1" fill="#000000"/>
<g transform="translate(0.000000,360.000000) scale(0.100000,-0.100000)"
fill="#000000" stroke="none">
<path d="M0 1800 l0 -1800 299 0 300 0 107 132 107 132 -10 61 c-9 50 -7 68 7
105 10 27 15 63 13 91 -3 27 0 50 6 54 6 3 11 17 11 30 0 13 5 25 11 27 7 2 3
19 -11 45 -27 53 -25 116 5 121 31 6 64 42 75 81 29 110 100 588 100 675 0 29
-29 42 -60 26 -15 -8 -27 -7 -50 5 -33 17 -34 18 -21 43 20 35 81 230 81 256
0 19 -15 41 -54 79 -118 115 -190 357 -157 532 25 136 98 230 311 398 150 118
195 143 375 204 175 59 262 82 313 83 17 0 32 3 32 8 0 4 -7 64 -17 134 -9 70
-13 131 -9 135 8 9 2 17 166 -198 69 -90 158 -196 196 -236 49 -50 83 -96 109
-150 58 -115 105 -192 124 -197 97 -27 166 -30 244 -11 18 5 38 3 53 -5 18
-10 30 -11 49 -2 14 7 29 12 32 12 8 0 -3 -149 -12 -172 -8 -21 -55 -24 -88
-7 -16 9 -22 9 -25 0 -2 -6 -16 -11 -30 -11 -15 0 -36 -7 -46 -15 -18 -14 -18
-15 -2 -40 10 -15 30 -58 46 -96 23 -58 25 -69 12 -64 -14 4 -17 -3 -17 -43 0
-33 -6 -54 -17 -66 -10 -10 -18 -25 -18 -34 0 -15 -2 -15 -10 -2 -7 11 -10 -2
-10 -44 0 -49 -2 -57 -14 -47 -11 10 -15 8 -19 -6 -3 -15 -6 -13 -15 10 -6 15
-16 27 -20 27 -5 0 -23 -27 -40 -61 -29 -58 -30 -62 -20 -127 6 -37 16 -70 21
-73 5 -4 7 -22 3 -40 -6 -34 1 -54 39 -114 20 -30 20 -30 0 -15 -11 8 -30 23
-42 33 -12 11 -26 16 -31 13 -5 -3 -17 -34 -27 -68 -26 -94 -60 -165 -87 -180
-15 -8 -61 -13 -133 -13 l-110 0 -3 -40 c-1 -22 2 -46 6 -53 5 -7 72 -29 148
-48 76 -19 187 -50 246 -69 59 -19 113 -35 121 -35 7 0 29 -14 49 -30 l36 -30
64 14 c71 17 305 24 418 14 41 -4 109 -14 150 -24 41 -9 91 -20 110 -24 63
-13 264 -97 359 -150 261 -145 505 -392 654 -662 20 -36 37 -71 37 -78 0 -6
-42 -31 -92 -55 -51 -23 -140 -66 -198 -94 l-105 -51 388 0 387 0 0 1019 c0
806 -3 1021 -13 1025 -9 5 -9 7 1 12 9 4 12 169 12 775 l0 769 -2400 0 -2400
0 0 -1800z m4450 944 c0 -9 -7 -14 -17 -12 -25 5 -28 28 -4 28 12 0 21 -6 21
-16z m-1480 -464 c41 -21 76 -71 66 -96 -4 -10 -26 -13 -93 -11 -76 2 -88 4
-91 20 -9 44 29 107 63 107 9 0 34 -9 55 -20z m-2210 -548 c0 -42 -5 -84 -11
-92 -8 -12 -9 -12 -7 5 1 11 -8 39 -20 62 -12 23 -22 51 -22 61 0 20 39 53 53
45 4 -2 7 -39 7 -81z m3881 12 c11 -14 10 -15 -11 -12 -13 1 -25 9 -28 16 -5
17 23 15 39 -4z m124 -165 c10 -15 -1 -23 -20 -15 -9 3 -13 10 -10 16 8 13 22
13 30 -1z m-715 -199 c0 -5 -7 -10 -15 -10 -8 0 -15 5 -15 10 0 6 7 10 15 10
8 0 15 -4 15 -10z m-30 -106 c0 -8 -5 -12 -10 -9 -6 4 -8 11 -5 16 9 14 15 11
15 -7z m-3540 -1014 c0 -20 -75 -78 -86 -67 -8 8 68 97 78 91 4 -3 8 -14 8
-24z"/>
<path d="M2502 2195 c0 -16 2 -22 5 -12 2 9 2 23 0 30 -3 6 -5 -1 -5 -18z"/>
</g>
</svg>
