<?xml version="1.0" standalone="no"?>
<!DOCTYPE svg PUBLIC "-//W3C//DTD SVG 20010904//EN"
 "http://www.w3.org/TR/2001/REC-SVG-20010904/DTD/svg10.dtd">
<svg version="1.0" xmlns="http://www.w3.org/2000/svg"
 width="480.000000pt" height="360.000000pt" viewBox="0 0 480.000000 360.000000"
 preserveAspectRatio="xMidYMid meet">
<metadata>
Created by potrace 1.16, written by Peter Selinger 2001-2019
</metadata>
<rect width="1" height="360" fill="#000000"/>
<rect x="479" width="1" height="360" fill="#000000"/>
<rect width="480" height="1" fill="#000000"/>
<rect y="359" width="480" height="1" fill="#000000"/>
<g transform="translate(0.000000,360.000000) scale(0.100000,-0.100000)"
fill="#000000" stroke="none">
<path d="M0 1800 l0 -1800 1000 0 c550 0 1000 2 1000 3 0 2 -7 18 -16 35 -27
55 -37 159 -30 312 11 252 25 474 32 511 5 31 3 39 -17 53 -24 16 -24 18 -24
209 1 191 13 311 41 390 9 25 11 44 5 50 -6 6 -40 -3 -88 -21 -44 -17 -103
-34 -131 -38 -51 -6 -53 -6 -93 34 -32 33 -39 46 -34 64 7 24 77 159 135 262
l34 59 -26 22 -25 22 42 22 c24 12 54 35 68 49 l25 27 -123 101 -123 102 -20
-20 c-18 -19 -21 -19 -45 -3 -22 14 -28 26 -42 78 -2 4 -3 16 -4 26 0 10 -15
33 -31 51 -26 28 -35 32 -65 27 -28 -5 -40 -1 -55 15 -25 27 -25 29 1 62 l21
26 -50 58 c-81 94 -87 117 -48 185 13 23 29 59 36 79 13 43 71 98 103 98 49 0
69 -12 63 -35 -4 -14 0 -28 9 -35 19 -16 20 -40 1 -40 -7 0 -19 7 -26 15 -7 8
-20 15 -29 15 -14 -1 -14 -2 2 -14 10 -8 21 -31 24 -51 6 -36 5 -37 -16 -26
-11 7 -21 16 -21 21 0 6 -10 10 -22 10 -19 -1 -9 -14 55 -73 42 -40 77 -79 77
-86 0 -8 7 -11 19 -8 14 3 20 -2 24 -21 3 -14 1 -36 -4 -49 -7 -19 -4 -24 24
-37 18 -8 39 -14 47 -14 25 1 99 -22 105 -33 4 -5 1 -16 -5 -24 -6 -8 -9 -19
-5 -25 4 -6 61 -47 127 -91 65 -44 136 -95 156 -114 44 -39 188 -101 193 -82
7 35 25 173 22 176 -2 3 -9 -1 -15 -7 -19 -19 -25 -14 -32 28 -3 22 -10 40
-14 40 -4 0 -8 30 -9 68 -2 56 2 75 25 117 15 28 46 63 72 82 25 18 53 38 62
45 15 11 16 18 6 55 -10 37 -10 45 7 63 19 21 89 29 100 10 13 -21 33 -8 59
40 15 28 29 50 32 50 32 0 90 -61 82 -87 -4 -16 9 -17 42 -3 38 16 60 7 60
-23 0 -22 6 -25 52 -30 82 -10 127 -72 113 -156 -6 -37 10 -79 50 -131 17 -22
35 -92 35 -137 0 -21 -18 -93 -40 -158 -42 -125 -48 -167 -28 -210 14 -30 5
-43 -18 -24 -18 15 -29 2 -51 -61 -11 -32 -12 -30 -7 33 6 76 0 87 -16 25 -33
-135 -33 -133 -43 -107 -5 13 -11 37 -12 52 -2 16 -8 34 -15 40 -9 9 -11 2 -5
-32 7 -41 6 -43 -14 -36 -18 5 -21 2 -21 -24 0 -16 -4 -33 -10 -36 -5 -3 -10
1 -10 10 0 12 -4 14 -17 6 -15 -8 -17 -21 -15 -74 4 -79 -29 -185 -117 -374
-33 -70 -63 -140 -67 -156 -10 -41 13 -84 62 -118 24 -16 44 -34 44 -38 0 -5
23 -30 52 -57 101 -94 125 -122 132 -151 4 -15 23 -53 42 -85 40 -65 41 -79
13 -153 l-20 -55 32 -87 c61 -167 127 -368 139 -426 l13 -57 899 0 898 0 0
1800 0 1800 -2400 0 -2400 0 0 -1800z"/>
<path d="M2033 1964 c-9 -25 12 -37 53 -30 l37 7 -32 20 c-38 23 -50 24 -58 3z"/>
<path d="M2510 943 c0 -5 9 -18 20 -28 11 -10 20 -14 20 -8 0 5 -9 18 -20 28
-11 10 -20 14 -20 8z"/>
<path d="M2657 757 c-3 -8 10 -54 28 -103 18 -49 45 -147 60 -219 42 -209 94
-391 95 -335 0 42 -65 317 -114 479 -31 101 -58 186 -60 188 -2 2 -6 -2 -9
-10z"/>
</g>
</svg>
