<?xml version="1.0" standalone="no"?>
<!DOCTYPE svg PUBLIC "-//W3C//DTD SVG 20010904//EN"
 "http://www.w3.org/TR/2001/REC-SVG-20010904/DTD/svg10.dtd">
<svg version="1.0" xmlns="http://www.w3.org/2000/svg"
 width="480.000000pt" height="360.000000pt" viewBox="0 0 480.000000 360.000000"
 preserveAspectRatio="xMidYMid meet">
<metadata>
Created by potrace 1.16, written by Peter Selinger 2001-2019
</metadata>
<rect width="1" height="360" fill="#000000"/>
<rect x="479" width="1" height="360" fill="#000000"/>
<rect width="480" height="1" fill="#000000"/>
<rect y="359" width="480" height="1" fill="#000000"/>
<g transform="translate(0.000000,360.000000) scale(0.100000,-0.100000)"
fill="#000000" stroke="none">
<path d="M0 2629 c0 -924 1 -971 18 -958 55 42 138 114 217 190 50 47 100 91
111 97 21 11 49 0 344 -135 30 -14 124 -63 208 -110 212 -118 240 -127 387
-128 96 0 138 5 211 24 l92 24 81 -23 c74 -22 82 -22 94 -8 6 9 39 54 72 100
96 133 145 175 278 241 124 61 128 66 107 123 -9 23 -8 29 5 37 15 8 14 11 -6
25 -20 14 -23 14 -34 -1 -18 -25 -25 -21 -25 17 0 38 -14 55 -24 30 -3 -8 -10
-13 -15 -10 -4 3 -11 -24 -14 -60 -8 -86 -26 -118 -28 -49 l-1 50 -13 -30
c-14 -30 -14 -30 -15 24 0 45 -2 52 -14 42 -8 -7 -20 -35 -27 -64 l-13 -52 -7
91 c-8 106 -17 144 -29 123 -6 -9 -16 4 -33 42 l-24 54 -13 -27 c-19 -41 -30
-34 -30 17 0 25 -2 45 -5 45 -3 0 -22 -7 -42 -15 -49 -20 -53 -11 -15 28 38
39 57 94 41 114 -16 18 -27 16 -34 -7 -3 -11 -13 -20 -20 -20 -8 0 -53 25
-100 56 l-87 56 26 27 c14 15 26 32 26 38 0 6 16 17 35 23 35 12 95 72 122
123 13 26 13 33 -1 68 -20 49 -20 127 -2 216 28 134 79 217 164 271 77 50 138
62 317 63 364 4 366 4 428 -20 106 -42 200 -135 232 -232 l16 -47 29 29 c37
37 69 37 137 -1 31 -18 67 -30 88 -30 69 0 95 -53 116 -235 6 -54 18 -116 26
-137 19 -46 9 -62 -47 -79 l-38 -12 24 -54 c28 -62 56 -160 79 -278 9 -44 18
-88 21 -97 4 -12 0 -18 -11 -18 -12 0 -14 -6 -9 -26 4 -14 1 -45 -6 -67 -26
-88 -54 -163 -74 -200 -17 -32 -21 -35 -27 -20 -6 14 -9 12 -14 -14 -4 -18
-11 -30 -16 -27 -5 3 -9 -7 -10 -23 0 -27 -1 -27 -11 -5 -11 21 -15 24 -40 26
-8 1 -17 28 -24 66 -11 64 -11 65 -20 31 -15 -52 -29 -48 -32 9 -1 27 -18 98
-37 157 -28 83 -36 126 -38 189 -2 82 -2 82 -30 87 -19 2 -31 -1 -34 -10 -3
-8 -12 -12 -21 -8 -13 5 -14 -3 -8 -52 l6 -58 -30 33 -31 33 -16 -38 c-9 -21
-18 -32 -20 -25 -8 22 -21 12 -34 -25 -16 -52 -20 -57 -30 -42 -6 10 -9 2 -9
-21 0 -50 -15 -70 -25 -33 l-7 28 -10 -25 c-5 -14 -14 -46 -19 -72 -15 -68
-28 -68 -24 -1 l4 58 -13 -60 c-17 -81 -31 -50 -23 53 l5 77 -18 -40 c-10 -22
-19 -32 -19 -22 -1 21 -21 23 -21 1 0 -10 -6 -13 -17 -10 -10 3 -25 1 -33 -4
-13 -8 -13 -11 2 -22 15 -11 16 -19 5 -55 -13 -51 -7 -58 93 -98 93 -38 152
-78 202 -140 25 -29 68 -80 96 -112 28 -32 58 -67 66 -78 15 -20 4 -22 150 16
37 10 57 9 127 -9 244 -61 347 -38 664 148 66 38 163 89 215 111 52 23 130 59
173 81 92 46 81 49 197 -59 87 -81 238 -203 251 -203 5 0 9 391 9 950 l0 950
-2400 0 -2400 0 0 -971z"/>
<path d="M3005 2665 c-39 -94 -65 -174 -65 -197 0 -18 9 -33 30 -48 53 -37 60
-25 59 97 -1 59 -5 122 -9 138 -6 27 -8 28 -15 10z"/>
<path d="M2330 2150 c19 -12 107 -13 114 -1 3 4 -25 9 -62 9 -46 1 -62 -2 -52
-8z"/>
<path d="M3291 1964 c0 -11 3 -14 6 -6 3 7 2 16 -1 19 -3 4 -6 -2 -5 -13z"/>
<path d="M4298 1798 c-80 -41 -98 -55 -98 -73 0 -12 6 -28 14 -35 8 -6 27 -47
41 -90 l26 -79 -51 -148 c-28 -82 -65 -188 -82 -238 -39 -114 -47 -130 -60
-117 -10 10 -87 464 -88 515 0 31 42 121 73 154 11 13 18 26 14 29 -10 11
-167 -69 -234 -120 -68 -50 -79 -78 -45 -109 10 -9 29 -50 41 -90 l24 -74 -73
-229 c-78 -244 -89 -274 -101 -274 -15 0 -20 21 -55 222 -19 112 -39 225 -44
251 -9 45 -8 52 30 126 l39 78 -46 7 c-91 12 -230 7 -243 -9 -10 -13 -8 -18
12 -35 26 -20 68 -120 68 -161 0 -19 -100 -421 -125 -504 -5 -16 1 -22 27 -31
18 -6 83 -28 145 -49 l112 -38 83 26 c89 28 241 57 298 57 42 0 84 -20 88 -41
1 -9 -6 -26 -16 -40 -18 -21 -22 -22 -47 -11 -23 11 -31 10 -51 -3 -52 -34
-13 -64 128 -98 126 -30 207 -34 288 -13 35 9 59 11 65 5 12 -12 -23 -79 -45
-87 -8 -3 -26 -17 -40 -30 -14 -13 -66 -43 -115 -66 -76 -37 -104 -45 -175
-51 -91 -7 -142 2 -285 51 -38 13 -121 35 -182 49 -163 35 -507 132 -559 157
-25 11 -58 37 -74 57 -42 53 -95 158 -111 221 l-14 55 -7 -50 c-10 -81 -8
-184 6 -265 14 -73 12 -105 -4 -95 -14 9 5 -44 63 -170 56 -122 117 -289 117
-319 0 -15 73 -16 885 -16 l885 0 -1 418 c0 229 -4 453 -9 497 -5 44 -15 140
-21 212 -13 130 -12 133 9 172 30 54 32 195 3 210 -10 6 -49 35 -86 66 -38 30
-69 54 -71 52 -2 -1 6 -31 16 -66 11 -34 20 -72 20 -83 0 -34 -174 -493 -191
-504 -16 -10 -26 38 -59 287 l-33 245 38 68 c20 37 48 74 61 83 13 8 24 25 24
37 0 12 5 27 11 33 9 9 0 26 -36 67 -26 31 -55 56 -64 55 -9 0 -60 -23 -113
-51z"/>
<path d="M323 1773 c-35 -38 -49 -61 -43 -67 6 -6 10 -22 10 -37 0 -17 9 -32
25 -43 14 -9 41 -48 61 -87 l35 -71 -43 -260 c-23 -143 -46 -265 -50 -271 -15
-25 -33 18 -114 263 l-83 250 24 70 c13 39 21 70 18 70 -3 0 -22 -14 -42 -30
-40 -34 -43 -36 -88 -68 l-33 -23 0 -89 c0 -62 5 -100 16 -124 16 -32 16 -43
0 -158 -13 -100 -16 -214 -16 -611 l0 -487 881 2 882 3 33 101 c17 55 56 152
85 215 42 91 53 126 55 174 2 33 6 119 10 191 4 72 3 153 -1 180 l-8 49 -26
-80 c-20 -62 -30 -79 -43 -77 -12 2 -25 -12 -42 -46 -39 -76 -95 -120 -206
-160 -431 -155 -433 -156 -535 -172 -38 -7 -95 -18 -125 -25 -148 -34 -191
-38 -282 -22 -64 12 -107 27 -165 59 -123 67 -227 178 -196 209 4 4 49 -1 98
-12 141 -31 360 -14 401 32 16 18 16 20 0 38 -13 15 -26 18 -52 14 -20 -3 -40
-1 -49 7 -21 18 -19 57 4 70 28 14 107 12 139 -4 15 -7 52 -19 82 -26 30 -7
78 -24 105 -37 98 -48 95 -48 239 14 72 31 136 60 142 65 8 6 4 37 -12 110
-13 57 -39 173 -59 259 l-35 156 26 69 c14 38 34 78 45 90 10 11 19 25 19 31
0 11 -152 29 -167 20 -5 -3 -37 -7 -71 -8 -55 -2 -78 -11 -53 -21 15 -6 71
-127 71 -154 0 -15 -11 -88 -25 -163 -14 -75 -35 -185 -46 -246 -21 -112 -31
-137 -48 -120 -6 6 -42 123 -82 262 l-73 252 24 76 c13 41 32 83 42 92 10 9
18 28 18 42 0 22 -14 36 -77 78 -83 55 -177 103 -205 103 -13 0 -11 -10 16
-55 64 -106 64 -89 16 -363 -51 -300 -49 -292 -65 -292 -16 0 -29 36 -111 304
l-66 220 22 65 c12 36 31 78 41 93 34 49 27 59 -88 115 l-107 53 -53 -57z"/>
<path d="M3123 1493 c-11 -2 -24 -14 -27 -26 -3 -12 -19 -30 -36 -40 -16 -10
-30 -23 -30 -29 0 -6 20 -31 44 -54 48 -45 47 -53 -7 -73 -15 -6 -27 -15 -27
-20 0 -5 16 -64 35 -130 19 -66 37 -151 41 -188 4 -38 11 -73 16 -80 9 -12
167 -67 174 -61 2 2 -9 56 -25 119 -16 63 -43 177 -61 255 l-33 141 27 69 c15
38 36 77 48 86 11 10 17 22 13 28 -6 10 -107 12 -152 3z"/>
<path d="M1510 1479 c0 -7 9 -22 20 -34 10 -11 31 -51 44 -88 25 -64 25 -69
11 -124 -48 -191 -105 -436 -102 -440 2 -1 38 11 79 28 l76 32 12 76 c7 42 26
121 42 176 45 152 45 141 4 160 -20 10 -36 22 -36 28 0 5 19 28 41 49 l41 40
-30 31 c-16 18 -32 41 -34 52 -3 18 -12 20 -86 23 -60 2 -82 -1 -82 -9z"/>
</g>
</svg>
