<?xml version="1.0" standalone="no"?>
<!DOCTYPE svg PUBLIC "-//W3C//DTD SVG 20010904//EN"
 "http://www.w3.org/TR/2001/REC-SVG-20010904/DTD/svg10.dtd">
<svg version="1.0" xmlns="http://www.w3.org/2000/svg"
 width="480.000000pt" height="360.000000pt" viewBox="0 0 480.000000 360.000000"
 preserveAspectRatio="xMidYMid meet">
<metadata>
Created by potrace 1.16, written by Peter Selinger 2001-2019
</metadata>
<rect width="1" height="360" fill="#000000"/>
<rect x="479" width="1" height="360" fill="#000000"/>
<rect width="480" height="1" fill="#000000"/>
<rect y="359" width="480" height="1" fill="#000000"/>
<g transform="translate(0.000000,360.000000) scale(0.100000,-0.100000)"
fill="#000000" stroke="none">
<path d="M0 1800 l0 -1800 863 0 862 0 57 172 c32 95 80 247 108 338 59 187
94 271 146 342 26 37 34 57 30 76 -3 15 -2 79 3 142 6 88 5 117 -5 126 -8 6
-9 15 -3 25 16 26 9 28 -26 8 -28 -17 -38 -19 -50 -9 -26 22 -47 4 -40 -33 4
-19 1 -54 -5 -78 -14 -54 -98 -222 -140 -285 -52 -75 -144 -167 -220 -219
-188 -131 -311 -229 -368 -294 -65 -73 -113 -107 -138 -97 -8 3 -26 0 -41 -7
-21 -9 -27 -9 -31 1 -2 7 -13 10 -28 6 -36 -9 -30 12 23 75 l47 56 -51 -47
c-29 -27 -55 -48 -58 -48 -18 0 1 45 36 86 43 52 102 162 93 176 -8 12 -68 10
-82 -4 -9 -9 -15 -9 -24 0 -16 16 -4 27 69 66 34 19 58 38 59 50 1 10 14 30
27 45 54 58 341 388 362 416 13 17 40 60 60 98 37 67 37 67 20 103 l-17 36
-22 -21 c-12 -12 -25 -21 -28 -21 -8 0 8 68 27 112 8 21 15 39 15 42 0 2 -17
-2 -37 -9 -62 -22 -56 11 12 65 64 50 176 162 191 193 16 30 64 254 64 298 0
24 -4 29 -25 29 -14 0 -25 2 -25 4 0 2 11 47 25 100 14 53 25 100 25 106 0 5
-13 4 -32 -2 -29 -10 -33 -9 -63 25 -43 48 -93 151 -134 275 -23 69 -26 98
-11 136 9 25 11 26 107 26 54 0 130 -8 168 -16 111 -26 129 -27 178 -10 25 8
85 20 134 26 48 6 117 20 153 30 36 10 93 24 128 30 35 6 69 13 77 16 17 7 63
-40 72 -74 4 -15 7 -49 8 -77 0 -27 3 -52 7 -55 4 -3 4 -21 -1 -40 -9 -42 -8
-115 3 -190 8 -50 7 -53 -7 -35 -14 18 -15 15 -27 -40 -6 -33 -18 -69 -25 -81
-8 -12 -17 -37 -20 -58 -7 -36 -20 -47 -27 -24 -3 8 -9 4 -17 -10 -9 -18 -9
-44 0 -121 l12 -99 41 -12 c80 -24 166 -77 166 -104 0 -5 11 -26 24 -45 14
-20 36 -76 51 -125 14 -49 34 -103 44 -120 11 -17 25 -63 31 -101 l12 -70 92
-85 c188 -175 216 -205 216 -234 0 -16 -11 -41 -25 -58 -14 -16 -25 -37 -25
-45 0 -33 44 -86 87 -105 49 -22 52 -29 21 -58 -53 -49 -169 6 -184 87 -3 18
-9 35 -13 38 -12 7 -80 -54 -98 -88 -9 -18 -24 -61 -32 -97 -17 -67 -20 -69
-67 -55 -20 6 -20 3 12 -112 18 -65 52 -194 77 -288 l44 -170 942 -3 941 -2 0
1800 0 1800 -2400 0 -2400 0 0 -1800z"/>
</g>
</svg>
