<?xml version="1.0" standalone="no"?>
<!DOCTYPE svg PUBLIC "-//W3C//DTD SVG 20010904//EN"
 "http://www.w3.org/TR/2001/REC-SVG-20010904/DTD/svg10.dtd">
<svg version="1.0" xmlns="http://www.w3.org/2000/svg"
 width="480.000000pt" height="360.000000pt" viewBox="0 0 480.000000 360.000000"
 preserveAspectRatio="xMidYMid meet">
<metadata>
Created by potrace 1.16, written by Peter Selinger 2001-2019
</metadata>
<rect width="1" height="360" fill="#000000"/>
<rect x="479" width="1" height="360" fill="#000000"/>
<rect width="480" height="1" fill="#000000"/>
<rect y="359" width="480" height="1" fill="#000000"/>
<g transform="translate(0.000000,360.000000) scale(0.100000,-0.100000)"
fill="#000000" stroke="none">
<path d="M0 2640 c0 -528 3 -960 6 -960 14 0 212 123 275 170 37 28 111 90
165 140 104 94 128 105 171 75 12 -9 89 -46 170 -83 81 -38 195 -97 253 -132
251 -152 339 -171 576 -123 80 16 83 16 155 -5 41 -12 81 -22 89 -22 15 0 65
58 142 166 40 55 107 104 176 128 24 9 57 23 73 33 29 17 30 20 23 68 -7 58
-21 80 -39 65 -9 -8 -14 -2 -19 22 -10 50 -27 21 -36 -62 -8 -77 -20 -105 -20
-49 0 26 -3 30 -10 19 -7 -11 -10 -5 -11 25 -1 76 -14 81 -28 11 -7 -36 -18
-69 -24 -73 -6 -4 -8 4 -5 21 9 48 -28 207 -46 200 -7 -3 -20 12 -30 32 l-17
37 -20 -29 -19 -29 0 43 c0 47 1 46 -35 30 -39 -18 -40 -4 -1 47 39 50 44 76
21 95 -12 10 -17 7 -26 -14 -15 -31 -31 -33 -75 -5 -19 11 -38 18 -43 15 -5
-4 -22 4 -36 17 l-27 23 48 39 c87 71 134 135 134 182 0 18 -5 53 -12 78 -17
63 2 186 42 269 37 78 88 126 166 156 56 22 73 23 329 24 l270 1 57 -28 c66
-32 127 -97 159 -168 13 -27 24 -49 25 -49 2 0 14 11 28 25 14 14 37 25 51 25
42 0 106 -39 167 -101 60 -62 70 -83 104 -243 17 -78 17 -79 -3 -96 -11 -9
-30 -34 -40 -55 -18 -35 -19 -42 -7 -71 7 -18 25 -90 39 -161 15 -70 29 -139
32 -152 4 -15 2 -22 -4 -18 -6 4 -13 -14 -16 -46 -8 -78 -50 -195 -80 -223
-14 -13 -28 -33 -32 -44 -9 -27 -25 -26 -26 3 0 21 -1 21 -9 2 l-9 -20 0 20
c-1 16 -3 17 -11 5 -12 -19 -16 -13 -28 40 -9 38 -11 42 -17 22 -12 -37 -22
-25 -29 33 -3 30 -18 85 -32 123 -19 49 -28 94 -33 167 l-6 100 -28 3 c-25 3
-27 1 -21 -22 5 -22 3 -25 -11 -19 -16 6 -17 2 -12 -33 l6 -39 -30 33 c-17 19
-32 32 -33 30 -2 -1 -9 -14 -16 -27 -9 -17 -14 -20 -20 -11 -4 7 -10 8 -12 4
-12 -20 -37 -112 -41 -144 -3 -35 -3 -35 -14 -10 -13 28 -14 26 -37 -60 l-14
-55 -2 55 -2 55 -12 -55 -11 -55 -5 100 c-5 97 -5 99 -21 72 -8 -16 -26 -34
-39 -40 -17 -9 -27 -25 -33 -55 -5 -24 -6 -50 -3 -57 2 -7 35 -28 73 -45 128
-60 161 -87 239 -194 40 -56 81 -111 91 -124 l18 -23 71 17 c69 17 72 16 140
-4 159 -48 265 -51 375 -13 30 10 117 50 194 89 131 66 459 202 486 202 7 0
80 -67 163 -148 98 -97 187 -174 255 -220 57 -40 108 -72 113 -72 4 0 8 470 8
1045 l0 1045 -2400 0 -2400 0 0 -960z"/>
<path d="M2946 2559 c-37 -85 -35 -124 7 -149 17 -11 35 -20 40 -20 4 0 7 45
7 99 0 150 -12 166 -54 70z"/>
<path d="M3220 2006 c0 -8 5 -18 10 -21 6 -3 10 1 10 9 0 8 -4 18 -10 21 -5 3
-10 -1 -10 -9z"/>
<path d="M520 1915 c-42 -43 -52 -57 -42 -67 7 -7 12 -23 12 -37 0 -14 9 -34
19 -45 11 -12 27 -51 37 -89 18 -65 18 -69 0 -115 -10 -26 -31 -85 -48 -132
-16 -47 -36 -98 -43 -115 -8 -16 -21 -52 -30 -80 -9 -27 -23 -60 -31 -72 -30
-48 -31 -47 -69 267 -22 180 -20 222 10 270 14 22 25 42 25 45 0 3 -24 -12
-52 -33 -29 -21 -75 -51 -101 -67 -61 -35 -76 -68 -48 -105 21 -29 39 -86 43
-135 2 -34 -165 -463 -188 -481 -12 -9 -14 -86 -14 -468 l0 -456 879 0 878 0
31 93 c17 50 42 138 56 194 23 91 89 262 134 348 24 47 34 345 12 385 -10 20
-14 16 -44 -47 -48 -99 -74 -125 -230 -227 -262 -172 -354 -224 -486 -270 -69
-24 -156 -56 -195 -71 -59 -22 -79 -25 -130 -20 -95 10 -228 59 -277 103 -33
28 -21 35 50 27 37 -5 87 -8 112 -7 65 3 227 59 245 85 19 27 6 41 -28 28 -56
-21 -80 24 -31 56 39 25 186 31 238 9 48 -20 32 -29 243 140 87 70 190 147
229 172 l71 47 11 67 c7 37 26 110 42 162 l31 96 -33 29 -33 30 32 33 32 33
-21 28 c-14 19 -19 37 -15 56 6 27 3 29 -31 35 -57 9 -150 7 -157 -4 -3 -5 1
-20 10 -34 9 -13 19 -56 22 -94 6 -70 6 -70 -47 -169 -29 -54 -71 -132 -93
-173 -68 -128 -87 -160 -99 -160 -15 0 -1 477 15 506 33 59 71 107 88 111 11
3 18 11 16 17 -4 11 -277 22 -277 11 0 -3 6 -18 14 -33 7 -15 17 -53 21 -85 6
-55 4 -65 -45 -180 -28 -67 -57 -135 -65 -152 -7 -16 -26 -59 -41 -95 -28 -66
-49 -98 -59 -88 -3 3 -12 115 -19 249 l-14 244 34 62 c19 34 46 70 61 81 26
19 26 21 11 44 -30 46 -258 181 -276 163 -3 -3 1 -18 10 -33 9 -15 22 -58 28
-95 l12 -67 -82 -223 c-45 -122 -88 -228 -95 -236 -21 -21 -31 11 -39 116 -4
51 -9 108 -11 125 -2 18 -9 81 -15 139 -12 107 -12 107 15 162 15 30 40 69 56
87 37 40 37 55 -3 69 -17 6 -62 29 -100 51 -39 22 -71 40 -72 40 -1 0 -26 -25
-56 -55z"/>
<path d="M4214 1830 c-6 -6 -46 -26 -90 -45 -43 -19 -80 -39 -82 -45 -2 -6 4
-20 14 -31 10 -11 32 -45 50 -76 27 -48 30 -61 23 -97 -4 -22 -15 -84 -24
-136 -26 -149 -46 -240 -55 -245 -4 -3 -13 1 -19 8 -9 12 -66 159 -76 197 -2
8 -17 53 -34 99 -17 46 -31 94 -31 107 0 21 17 68 41 116 17 33 11 50 -13 43
-83 -25 -258 -127 -258 -150 0 -8 9 -20 21 -28 22 -16 89 -115 89 -132 0 -37
-41 -398 -45 -406 -12 -18 -26 -8 -41 27 -9 20 -47 102 -86 183 -68 142 -70
147 -64 205 3 32 13 73 21 89 8 17 14 31 13 32 -2 1 -39 7 -83 13 -141 21
-232 12 -170 -16 13 -6 41 -35 63 -64 32 -42 41 -64 45 -108 2 -30 13 -130 23
-222 10 -92 15 -170 11 -174 -11 -12 -26 7 -151 194 -116 174 -126 191 -126
235 0 25 7 67 16 92 22 65 11 74 -82 73 l-74 -1 0 -28 c0 -16 -9 -38 -22 -51
-19 -19 -20 -22 -5 -33 9 -7 14 -15 10 -18 -3 -4 0 -13 6 -21 13 -16 6 -56 -9
-56 -5 0 -15 -6 -23 -14 -12 -12 -11 -27 5 -102 10 -49 18 -107 18 -129 0 -62
10 -84 43 -102 17 -9 94 -61 170 -115 l138 -100 62 27 c51 23 79 29 172 33
l111 5 38 -41 c50 -52 69 -47 60 17 -4 25 -11 52 -16 59 -14 17 10 15 42 -3
36 -21 41 -19 35 14 -7 43 9 46 49 10 25 -21 36 -40 36 -58 0 -39 -47 -127
-83 -156 -18 -14 -37 -29 -42 -33 -6 -5 -24 -17 -40 -28 -17 -10 -39 -27 -49
-36 -27 -24 -59 -25 -286 -10 -152 10 -146 7 -388 144 -183 103 -209 131 -248
263 l-18 60 -9 -40 c-5 -22 -5 -85 -1 -140 4 -55 8 -127 8 -160 1 -46 9 -75
35 -125 52 -104 90 -206 127 -340 19 -68 44 -155 56 -192 l22 -68 878 0 878 0
-1 638 c-1 350 -5 621 -9 602 -12 -54 -57 -206 -86 -292 -26 -78 -39 -98 -54
-82 -12 13 -104 364 -103 394 1 35 48 133 71 147 25 15 18 57 -12 71 -12 5
-56 37 -99 71 -42 34 -77 59 -77 56 0 -3 9 -22 20 -42 11 -21 20 -45 20 -55 0
-9 -16 -81 -36 -160 -19 -79 -39 -161 -44 -183 -12 -58 -21 -76 -34 -72 -10 3
-47 108 -112 319 l-27 87 23 61 c12 33 33 70 46 83 13 12 24 28 24 36 0 8 6
22 14 30 12 14 9 23 -28 71 -43 56 -63 69 -82 50z"/>
<path d="M17 1569 c-9 -5 -17 -19 -17 -31 0 -19 1 -19 25 3 36 35 32 51 -8 28z"/>
<path d="M4730 1407 c0 -9 4 -19 10 -22 5 -3 21 -30 34 -58 l25 -52 0 61 c1
50 -2 63 -16 67 -10 2 -26 8 -35 12 -13 5 -18 2 -18 -8z"/>
<path d="M3651 781 c-20 -13 -4 -31 29 -31 16 0 32 5 36 11 7 12 -13 29 -36
29 -8 0 -21 -4 -29 -9z"/>
</g>
</svg>
