<?xml version="1.0" standalone="no"?>
<!DOCTYPE svg PUBLIC "-//W3C//DTD SVG 20010904//EN"
 "http://www.w3.org/TR/2001/REC-SVG-20010904/DTD/svg10.dtd">
<svg version="1.0" xmlns="http://www.w3.org/2000/svg"
 width="480.000000pt" height="360.000000pt" viewBox="0 0 480.000000 360.000000"
 preserveAspectRatio="xMidYMid meet">
<metadata>
Created by potrace 1.16, written by Peter Selinger 2001-2019
</metadata>
<rect width="1" height="360" fill="#000000"/>
<rect x="479" width="1" height="360" fill="#000000"/>
<rect width="480" height="1" fill="#000000"/>
<rect y="359" width="480" height="1" fill="#000000"/>
<g transform="translate(0.000000,360.000000) scale(0.100000,-0.100000)"
fill="#000000" stroke="none">
<path d="M0 1800 l0 -1800 2400 0 2400 0 0 1800 0 1800 -2400 0 -2400 0 0
-1800z m1868 594 c32 -22 46 -52 32 -69 -7 -8 -7 -15 -1 -19 5 -3 71 -9 148
-13 76 -3 147 -9 157 -13 17 -6 19 -15 17 -63 -2 -56 -2 -57 26 -57 125 0 645
-60 823 -95 152 -29 414 -91 454 -107 36 -15 48 -44 97 -236 50 -198 50 -216
2 -240 -47 -24 -249 -77 -368 -97 -193 -32 -625 -16 -935 36 -113 19 -471 99
-595 134 -27 8 -79 21 -115 31 -121 31 -178 67 -343 219 -65 59 -105 104 -117
132 -11 24 -37 67 -60 96 -63 84 -50 163 14 86 29 -34 38 -32 55 10 25 59 51
64 309 59 l232 -4 0 41 c-1 36 -5 43 -44 67 -23 15 -50 30 -59 34 -9 3 -17 11
-17 16 0 10 35 8 119 -8 26 -5 37 -3 47 11 12 16 82 64 94 65 3 0 16 -7 28
-16z m-378 -36 c11 -7 8 -8 -10 -4 -14 3 -33 6 -42 6 -10 0 -18 5 -18 10 0 11
45 3 70 -12z"/>
<path d="M1902 2247 c-7 -19 -21 -37 -32 -40 -35 -9 -22 -24 26 -31 26 -3 87
-6 135 -6 l89 0 0 30 c0 40 -31 70 -72 70 -18 0 -56 3 -83 6 -50 6 -50 6 -63
-29z"/>
</g>
</svg>
