<?xml version="1.0" standalone="no"?>
<!DOCTYPE svg PUBLIC "-//W3C//DTD SVG 20010904//EN"
 "http://www.w3.org/TR/2001/REC-SVG-20010904/DTD/svg10.dtd">
<svg version="1.0" xmlns="http://www.w3.org/2000/svg"
 width="480.000000pt" height="360.000000pt" viewBox="0 0 480.000000 360.000000"
 preserveAspectRatio="xMidYMid meet">
<metadata>
Created by potrace 1.16, written by Peter Selinger 2001-2019
</metadata>
<rect width="1" height="360" fill="#000000"/>
<rect x="479" width="1" height="360" fill="#000000"/>
<rect width="480" height="1" fill="#000000"/>
<rect y="359" width="480" height="1" fill="#000000"/>
<g transform="translate(0.000000,360.000000) scale(0.100000,-0.100000)"
fill="#000000" stroke="none">
<path d="M0 3486 l0 -115 27 -3 c39 -4 42 -28 4 -28 l-31 0 0 -1670 0 -1670
767 0 c683 0 765 2 746 15 -12 8 -48 21 -80 29 -87 20 -100 30 -107 76 -3 22
-9 58 -12 80 -5 34 -13 45 -46 66 -38 25 -39 26 -22 45 9 10 14 19 10 19 -4 0
0 10 8 22 12 16 14 36 10 75 l-7 52 119 122 c122 124 176 166 299 234 138 76
247 168 392 332 216 244 204 224 160 265 -20 19 -40 52 -48 76 -11 38 -15 43
-36 37 -24 -6 -86 15 -97 34 -5 7 16 21 52 37 52 22 61 30 66 57 9 54 -3 257
-20 345 -22 110 -15 152 30 202 42 46 45 56 14 38 -21 -11 -87 -37 -97 -38 -2
0 0 7 3 16 4 11 -1 18 -14 21 -11 3 -20 9 -20 14 0 5 -6 9 -14 9 -8 0 -16 7
-20 15 -3 8 -13 15 -21 15 -9 0 -13 5 -10 10 3 6 1 10 -5 10 -6 0 -8 5 -5 11
4 6 -3 21 -16 35 -12 13 -17 24 -10 24 6 0 15 8 18 18 4 9 16 24 28 34 31 25
9 34 -25 9 -17 -12 -30 -18 -30 -13 0 22 44 63 81 73 21 7 39 16 39 21 0 4 6
8 14 8 8 0 29 19 47 43 19 23 36 44 40 47 3 3 18 28 32 55 31 61 118 148 169
170 85 35 204 7 298 -70 75 -62 88 -84 116 -199 5 -21 4 -27 -5 -22 -7 5 -11
-1 -11 -17 0 -25 -44 -71 -70 -73 -55 -5 -93 -42 -73 -72 7 -12 -3 -28 -43
-69 -50 -52 -54 -54 -91 -47 l-38 7 25 -28 c14 -15 46 -38 72 -51 56 -28 95
-76 114 -140 8 -26 21 -55 30 -65 22 -25 56 -118 49 -139 -3 -11 15 -57 46
-116 58 -111 76 -138 117 -182 15 -16 39 -44 53 -61 13 -17 28 -31 32 -31 12
0 -3 41 -20 59 -13 12 -13 15 1 23 9 5 33 8 53 6 36 -3 38 -2 35 25 -2 22 1
27 20 26 13 0 32 -4 43 -8 11 -5 25 -5 31 0 11 9 99 -31 176 -82 34 -21 84
-39 170 -59 155 -37 189 -50 436 -172 187 -92 227 -118 186 -118 -9 0 -94 -31
-189 -69 -217 -88 -319 -117 -470 -137 -96 -12 -135 -22 -197 -51 -64 -30 -77
-40 -80 -62 -4 -36 -43 -37 -43 -1 0 14 -4 24 -10 24 -84 -12 -105 -12 -105 0
0 8 8 17 17 20 15 6 15 8 3 16 -8 6 -29 10 -47 10 -66 0 -82 24 -35 52 l27 17
-40 16 c-85 33 -91 46 -40 77 34 19 36 23 20 34 -12 9 -24 10 -43 3 -30 -12
-98 -10 -125 3 -9 5 -21 7 -25 4 -5 -3 -3 -51 4 -108 7 -57 20 -193 28 -303 9
-110 24 -283 34 -385 9 -102 17 -222 17 -268 l0 -82 983 0 982 0 0 1800 0
1800 -2400 0 -2400 0 0 -114z m94 58 c3 -8 2 -14 -2 -14 -10 0 -32 22 -32 32
0 12 28 -2 34 -18z m4316 2 c0 -12 -114 -77 -131 -74 -16 2 -9 11 37 41 48 31
94 48 94 33z m-3811 -139 c6 -8 8 -16 5 -20 -10 -9 -34 4 -34 19 0 18 14 18
29 1z m1076 -167 c3 -6 -1 -7 -9 -4 -18 7 -21 14 -7 14 6 0 13 -4 16 -10z
m-703 -187 c-42 -53 -82 -89 -82 -74 0 17 38 71 64 93 38 32 49 20 18 -19z
m2216 -285 c-7 -19 -38 -22 -38 -4 0 10 9 16 21 16 12 0 19 -5 17 -12z m-2748
-125 c0 -27 -28 -51 -55 -45 -48 9 -24 62 27 62 19 0 28 -5 28 -17z m3878 -74
c1 -8 -7 -29 -18 -47 -19 -31 -47 -48 -109 -67 -23 -7 -24 -6 -17 26 8 41 47
83 89 97 39 12 51 10 55 -9z m-3748 1 c0 -13 -87 -52 -107 -48 -30 6 -25 27 9
42 38 17 98 21 98 6z m3881 -146 c6 -8 9 -17 6 -20 -16 -16 -87 34 -87 61 0
11 7 10 34 -6 19 -11 40 -27 47 -35z m-241 -9 c0 -13 7 -43 16 -65 12 -30 14
-44 6 -52 -9 -9 -16 -2 -27 25 -17 41 -20 117 -5 117 6 0 10 -11 10 -25z
m-3106 -11 c7 -28 -7 -54 -30 -54 -17 0 -19 51 -2 68 18 18 25 15 32 -14z
m-333 -615 c25 -13 15 -29 -17 -29 -32 0 -66 18 -59 31 8 12 51 12 76 -2z m7
-241 c12 -12 17 -78 6 -78 -3 0 -14 5 -25 10 -19 11 -24 35 -13 64 7 19 16 20
32 4z m2932 -48 c0 -11 -4 -20 -10 -20 -5 0 -10 9 -10 20 0 11 5 20 10 20 6 0
10 -9 10 -20z m-1698 -162 c-7 -7 -12 -8 -12 -2 0 6 3 14 7 17 3 4 9 5 12 2 2
-3 -1 -11 -7 -17z m56 -45 c2 -8 -6 -13 -22 -13 -28 0 -43 15 -24 23 20 8 41
3 46 -10z m1546 -525 c-7 -11 -54 -10 -54 1 0 5 13 9 30 9 16 -1 27 -5 24 -10z"/>
<path d="M2670 1574 c0 -87 1 -91 30 -119 17 -16 30 -34 30 -40 0 -11 118 -65
140 -65 19 0 10 22 -42 96 -29 41 -67 96 -85 122 -18 26 -41 58 -52 72 l-20
25 -1 -91z"/>
</g>
</svg>
