<?xml version="1.0" standalone="no"?>
<!DOCTYPE svg PUBLIC "-//W3C//DTD SVG 20010904//EN"
 "http://www.w3.org/TR/2001/REC-SVG-20010904/DTD/svg10.dtd">
<svg version="1.0" xmlns="http://www.w3.org/2000/svg"
 width="480.000000pt" height="360.000000pt" viewBox="0 0 480.000000 360.000000"
 preserveAspectRatio="xMidYMid meet">
<metadata>
Created by potrace 1.16, written by Peter Selinger 2001-2019
</metadata>
<rect width="1" height="360" fill="#000000"/>
<rect x="479" width="1" height="360" fill="#000000"/>
<rect width="480" height="1" fill="#000000"/>
<rect y="359" width="480" height="1" fill="#000000"/>
<g transform="translate(0.000000,360.000000) scale(0.100000,-0.100000)"
fill="#000000" stroke="none">
<path d="M0 2634 c0 -626 3 -964 10 -962 37 12 212 151 316 250 74 70 133 118
145 118 11 0 42 -11 69 -25 27 -14 106 -50 175 -80 68 -30 144 -65 167 -78 24
-13 88 -50 143 -80 140 -79 201 -99 316 -105 80 -3 113 0 200 22 l104 26 63
-20 c110 -34 107 -36 206 98 93 125 139 164 238 203 29 11 64 28 77 38 20 16
22 23 16 60 -4 23 -13 47 -21 54 -8 7 -27 25 -43 41 l-28 28 -7 -93 c-8 -104
-25 -144 -27 -64 -1 28 -3 41 -6 30 -10 -41 -25 -41 -19 0 3 22 2 54 -2 70 -9
29 -10 27 -22 -30 -18 -89 -26 -95 -33 -24 -11 113 -28 188 -41 183 -7 -3 -20
11 -29 31 -15 31 -37 48 -37 27 0 -5 -7 -17 -15 -28 -15 -18 -16 -16 -13 29 2
26 2 47 0 47 -1 0 -21 -9 -42 -20 -22 -11 -40 -18 -40 -14 0 3 13 23 29 43 35
44 51 75 51 95 0 23 -35 19 -52 -5 l-14 -22 -43 22 c-24 13 -50 20 -58 16 -18
-6 -63 20 -63 36 0 6 33 42 73 79 41 38 84 89 97 114 22 41 23 49 12 91 -29
107 -10 255 46 359 64 117 247 188 409 158 39 -7 77 -5 145 6 75 12 108 13
171 4 148 -21 231 -78 296 -200 22 -42 41 -71 41 -64 0 23 52 62 82 62 40 0
95 -30 156 -85 69 -62 99 -116 117 -206 8 -41 19 -89 26 -107 13 -39 7 -59
-23 -71 -15 -6 -29 -26 -41 -59 -17 -50 -17 -53 3 -114 29 -92 72 -322 60
-326 -6 -2 -10 -19 -10 -38 0 -35 -51 -200 -72 -234 -7 -11 -19 -18 -25 -15
-8 3 -13 -5 -13 -20 0 -14 -4 -25 -10 -25 -5 0 -10 -10 -11 -22 -1 -20 -2 -19
-9 5 -5 16 -13 34 -18 40 -6 7 -12 21 -15 32 -4 17 -5 16 -6 -5 -2 -29 -21
-66 -21 -40 0 8 -5 33 -11 55 l-11 39 -12 -29 c-12 -29 -13 -29 -26 40 -7 39
-23 96 -37 128 -28 68 -43 170 -35 245 4 47 3 52 -16 52 -11 0 -28 3 -37 6
-14 6 -15 2 -10 -30 5 -24 3 -36 -4 -36 -6 0 -11 -9 -11 -20 0 -29 -16 -25
-37 10 -21 37 -29 38 -37 5 -4 -16 -13 -25 -22 -23 -19 4 -49 -69 -59 -144 -7
-49 -8 -50 -20 -28 -13 24 -13 23 -24 -20 -26 -103 -31 -108 -27 -30 3 47 1
66 -4 50 -4 -14 -9 -41 -9 -60 -1 -19 -6 -42 -11 -50 -7 -10 -10 19 -10 92 l0
107 -45 -44 c-26 -26 -49 -61 -56 -85 -15 -49 -13 -50 108 -112 99 -49 123
-72 233 -216 58 -76 91 -111 105 -112 11 0 51 9 89 19 61 17 73 18 108 5 60
-21 194 -44 258 -44 99 0 158 20 358 122 105 54 237 116 293 138 55 22 123 52
149 65 27 14 58 25 70 25 12 0 58 -38 117 -98 129 -129 263 -241 341 -286 9
-6 12 196 12 993 l0 1001 -2400 0 -2400 0 0 -966z"/>
<path d="M2950 2585 c-39 -87 -37 -121 9 -152 32 -21 36 -22 44 -7 13 23 4
201 -11 216 -9 9 -19 -5 -42 -57z"/>
<path d="M3253 2000 c0 -30 2 -43 4 -27 2 15 2 39 0 55 -2 15 -4 2 -4 -28z"/>
<path d="M426 1866 c-51 -59 -52 -61 -31 -82 8 -8 12 -21 9 -29 -3 -8 5 -19
20 -27 14 -7 44 -40 66 -72 l42 -60 -11 -245 c-7 -136 -16 -250 -22 -256 -7
-7 -16 -2 -29 15 -11 14 -20 28 -20 31 0 4 -32 74 -71 155 -128 267 -119 240
-99 323 10 39 23 78 29 85 6 7 8 16 5 19 -4 4 -30 -14 -58 -39 -27 -25 -85
-69 -128 -97 -84 -54 -94 -74 -52 -101 14 -10 43 -45 65 -79 40 -61 40 -61 35
-142 -3 -44 -8 -152 -11 -240 -3 -88 -9 -163 -14 -168 -12 -12 -24 7 -86 131
-31 62 -58 112 -61 112 -2 0 -4 -247 -4 -550 l0 -550 879 0 879 0 21 83 c39
150 98 321 144 420 l46 98 7 193 c4 106 4 206 -1 222 -7 27 -9 24 -39 -52 -55
-143 -79 -167 -341 -341 -228 -151 -305 -195 -392 -228 -48 -18 -135 -52 -192
-75 -102 -41 -107 -43 -185 -37 -85 7 -185 41 -265 91 -70 44 -57 54 72 52
103 -1 120 2 210 32 92 32 127 52 127 73 0 5 0 12 0 17 0 4 -22 7 -47 7 -61 0
-70 25 -21 55 42 25 188 28 245 5 19 -8 41 -15 48 -15 16 0 399 308 403 324 1
6 -38 112 -89 235 -86 213 -90 226 -80 265 5 23 13 55 16 71 4 17 14 38 22 47
40 44 -29 65 -175 54 -89 -8 -104 -12 -86 -24 5 -4 25 -31 44 -61 33 -53 34
-58 32 -140 -3 -118 -22 -392 -28 -413 -9 -30 -20 -20 -49 45 -16 34 -40 89
-55 122 -15 33 -48 107 -74 165 l-47 105 15 74 c9 41 22 81 30 90 30 33 14 73
-50 118 -66 47 -164 98 -209 109 l-30 7 26 -29 c14 -16 39 -51 57 -79 l31 -50
-9 -161 c-12 -229 -22 -334 -30 -339 -11 -7 -35 25 -53 70 -8 22 -35 83 -60
135 -111 236 -109 230 -102 295 4 32 14 75 23 95 37 81 38 79 -77 137 -58 29
-108 53 -112 53 -4 0 -28 -24 -53 -54z"/>
<path d="M4203 1820 c-109 -52 -112 -58 -78 -115 7 -11 20 -50 30 -86 l17 -66
-25 -69 c-58 -158 -150 -390 -159 -401 -28 -34 -32 -16 -54 202 -30 310 -30
295 0 352 14 28 37 64 52 80 14 15 21 29 15 31 -19 6 -132 -46 -210 -97 -66
-44 -79 -56 -79 -79 0 -15 6 -34 13 -42 13 -15 45 -124 45 -153 0 -19 -177
-457 -193 -475 -24 -30 -27 -15 -56 382 l-10 130 36 60 c20 34 41 64 47 68 21
14 -5 19 -128 25 -117 6 -128 5 -141 -13 -12 -17 -11 -22 5 -39 12 -13 23 -48
30 -92 l11 -72 -87 -188 c-47 -103 -93 -200 -100 -215 l-14 -27 112 -78 c266
-185 243 -174 317 -167 124 11 287 -50 268 -100 -7 -18 -39 -21 -68 -6 -24 13
-36 -9 -20 -38 24 -45 247 -142 326 -142 53 0 95 -11 95 -26 0 -7 -16 -25 -35
-40 -50 -38 -175 -54 -272 -34 -88 17 -110 27 -238 104 -59 36 -123 70 -143
77 -93 30 -510 262 -576 320 -23 21 -51 56 -61 78 -10 23 -22 41 -27 41 -5 0
-15 15 -23 33 -13 30 -14 31 -15 7 -1 -14 -3 -36 -5 -50 -2 -14 4 -72 12 -129
12 -81 13 -105 4 -111 -9 -5 6 -50 58 -166 44 -100 86 -215 112 -309 23 -82
44 -158 46 -168 5 -16 56 -17 884 -17 l879 0 -1 503 c0 376 -3 496 -11 477 -7
-14 -19 -43 -28 -65 -9 -22 -25 -60 -35 -85 -10 -25 -23 -49 -28 -55 -18 -21
-35 28 -42 123 -4 53 -8 111 -10 127 -2 17 -9 82 -15 147 l-12 116 37 58 c20
31 46 65 58 74 40 33 32 54 -41 102 -37 25 -93 69 -125 98 -32 29 -60 50 -64
47 -3 -4 -1 -13 5 -20 7 -7 21 -44 33 -81 l21 -68 -32 -82 c-17 -44 -44 -112
-60 -151 -16 -38 -43 -107 -60 -152 -39 -103 -55 -118 -69 -66 -6 21 -11 49
-11 63 0 14 -10 114 -21 222 l-22 197 42 70 c22 38 50 73 61 76 12 4 20 15 20
27 0 12 7 29 15 38 13 14 9 22 -31 73 -25 31 -51 57 -57 56 -7 0 -58 -23 -114
-49z"/>
<path d="M1570 1579 c0 -6 10 -19 23 -29 13 -10 37 -45 54 -77 l31 -58 -13
-165 c-8 -91 -16 -196 -20 -233 l-5 -68 39 22 c36 20 41 28 46 68 8 64 35 176
57 240 19 58 19 58 -13 75 -43 22 -46 42 -11 77 l32 31 -20 25 c-11 14 -20 40
-20 58 0 30 -3 33 -37 39 -62 10 -143 7 -143 -5z"/>
<path d="M3069 1563 c-10 -2 -16 -15 -16 -34 0 -17 -9 -39 -20 -51 -20 -19
-20 -22 -4 -49 9 -16 19 -29 24 -29 21 0 3 -41 -26 -59 l-33 -20 23 -93 c13
-51 26 -124 28 -163 4 -69 4 -69 45 -94 l42 -24 -8 231 -7 231 33 51 c18 28
43 59 57 70 14 10 22 24 18 30 -6 10 -123 12 -156 3z"/>
</g>
</svg>
