<?xml version="1.0" standalone="no"?>
<!DOCTYPE svg PUBLIC "-//W3C//DTD SVG 20010904//EN"
 "http://www.w3.org/TR/2001/REC-SVG-20010904/DTD/svg10.dtd">
<svg version="1.0" xmlns="http://www.w3.org/2000/svg"
 width="480.000000pt" height="360.000000pt" viewBox="0 0 480.000000 360.000000"
 preserveAspectRatio="xMidYMid meet">
<metadata>
Created by potrace 1.16, written by Peter Selinger 2001-2019
</metadata>
<rect width="1" height="360" fill="#000000"/>
<rect x="479" width="1" height="360" fill="#000000"/>
<rect width="480" height="1" fill="#000000"/>
<rect y="359" width="480" height="1" fill="#000000"/>
<g transform="translate(0.000000,360.000000) scale(0.100000,-0.100000)"
fill="#000000" stroke="none">
<path d="M2225 2399 c-229 -33 -432 -98 -609 -193 -454 -244 -685 -346 -891
-394 -73 -17 -392 -62 -442 -62 -7 0 -13 -3 -13 -8 0 -4 62 -16 138 -25 240
-32 349 -62 607 -169 66 -27 167 -67 225 -88 58 -21 191 -72 295 -113 433
-172 630 -217 955 -217 393 1 631 73 1152 352 351 187 483 227 812 244 129 7
151 17 61 28 -81 9 -244 44 -325 70 -82 26 -131 46 -540 220 -421 180 -712
294 -818 321 -224 57 -389 66 -607 34z m315 -157 c155 -41 277 -148 340 -299
59 -140 43 -323 -37 -445 -94 -143 -210 -216 -378 -239 -107 -14 -178 1 -298
64 -187 98 -289 322 -243 535 60 284 338 457 616 384z"/>
</g>
</svg>
