<?xml version="1.0" standalone="no"?>
<!DOCTYPE svg PUBLIC "-//W3C//DTD SVG 20010904//EN"
 "http://www.w3.org/TR/2001/REC-SVG-20010904/DTD/svg10.dtd">
<svg version="1.0" xmlns="http://www.w3.org/2000/svg"
 width="480.000000pt" height="360.000000pt" viewBox="0 0 480.000000 360.000000"
 preserveAspectRatio="xMidYMid meet">
<metadata>
Created by potrace 1.16, written by Peter Selinger 2001-2019
</metadata>
<rect width="1" height="360" fill="#000000"/>
<rect x="479" width="1" height="360" fill="#000000"/>
<rect width="480" height="1" fill="#000000"/>
<rect y="359" width="480" height="1" fill="#000000"/>
<g transform="translate(0.000000,360.000000) scale(0.100000,-0.100000)"
fill="#000000" stroke="none">
<path d="M0 2130 l0 -1470 33 -1 c17 -1 70 -3 117 -4 47 -1 98 -8 113 -14 53
-21 813 -98 1397 -141 223 -16 415 -30 426 -30 14 0 52 35 116 108 110 124
174 214 228 321 21 42 56 101 79 131 45 60 51 80 22 80 -10 0 -29 8 -41 18
-19 15 -23 32 -31 137 -22 284 -30 359 -39 371 -6 6 -41 14 -79 18 -119 12
-198 79 -208 179 -5 48 -3 55 25 82 16 17 37 36 47 44 12 9 14 16 6 24 -6 6
-11 18 -11 26 0 11 4 10 20 -4 20 -18 21 -18 41 4 46 49 109 54 161 11 65 -54
111 -183 77 -217 -8 -8 -1 -25 24 -62 20 -28 39 -60 42 -71 6 -19 10 -18 52
17 37 30 44 41 40 62 -3 16 2 39 14 58 l20 32 -26 51 c-15 29 -23 59 -20 70 9
28 -8 31 -51 10 -54 -28 -69 -25 -94 16 -12 19 -33 42 -46 51 -13 8 -24 20
-24 27 0 6 -14 23 -32 38 l-33 26 25 27 25 27 -24 19 c-28 23 -53 25 -45 4 5
-13 2 -13 -29 0 -19 8 -37 12 -40 8 -4 -3 -16 11 -27 30 -16 27 -33 40 -70 52
-26 9 -61 27 -76 41 -16 13 -49 31 -74 40 -114 41 -187 85 -201 121 -6 16 -17
23 -36 23 -35 0 -113 77 -88 86 19 8 20 24 0 24 -8 0 -19 9 -25 20 -9 17 -8
20 8 20 29 0 34 11 15 33 -18 20 -17 20 27 14 25 -4 105 -18 178 -31 72 -13
132 -21 132 -17 0 3 -24 21 -53 39 -69 43 -97 84 -95 142 0 25 -3 65 -7 90 -7
42 -5 48 26 80 l33 35 8 -45 c16 -95 13 -91 56 -73 69 29 262 0 270 -41 2 -10
-15 -40 -38 -67 -44 -53 -70 -96 -70 -118 0 -10 8 -12 33 -7 17 4 68 11 112
16 74 7 81 10 105 41 165 219 242 259 490 259 215 0 267 -19 460 -171 63 -50
147 -111 185 -136 106 -68 175 -124 169 -135 -4 -7 -44 -9 -104 -6 -103 5
-109 7 -284 99 -34 18 -81 33 -111 36 -68 7 -73 -2 -76 -138 -2 -102 -1 -104
22 -111 13 -4 76 -22 139 -39 261 -69 324 -97 409 -178 72 -68 84 -97 46 -111
-21 -8 -25 -13 -16 -24 8 -10 5 -18 -14 -36 -13 -13 -22 -26 -20 -31 7 -10
100 -37 173 -50 31 -6 66 -13 77 -16 l20 -6 -20 -8 c-11 -4 -49 -8 -85 -9 -55
-1 -61 -3 -42 -12 15 -8 45 -8 97 -2 57 7 72 7 64 -2 -15 -19 4 -25 53 -18
l43 7 -19 -21 c-19 -22 -19 -22 20 -37 21 -9 53 -23 69 -30 29 -14 29 -15 5
-14 -14 0 -49 4 -77 8 -29 4 -53 6 -53 5 0 -2 25 -20 56 -39 31 -20 54 -38 52
-41 -3 -2 -30 7 -62 21 -31 14 -59 25 -62 25 -4 0 26 -21 65 -47 40 -26 67
-49 61 -51 -5 -2 -71 21 -145 52 -74 31 -138 56 -143 56 -4 -1 38 -24 93 -53
95 -50 215 -124 215 -133 0 -8 -69 7 -150 32 -41 13 -75 22 -77 20 -2 -1 21
-19 50 -40 49 -35 50 -38 21 -32 -18 3 -44 8 -59 12 -20 5 -26 4 -21 -5 10
-16 5 -14 -56 14 -29 14 -62 25 -72 25 -20 0 -20 0 0 -15 18 -14 17 -15 -11
-9 -16 3 -47 10 -69 16 -21 5 -40 8 -42 6 -2 -2 29 -22 68 -43 40 -21 67 -40
61 -42 -6 -2 -41 3 -78 12 -92 21 -102 20 -67 -10 17 -14 43 -47 58 -73 15
-26 28 -48 28 -49 1 -1 38 4 81 12 130 23 157 21 186 -17 23 -32 24 -37 24
-226 l0 -192 35 -10 c73 -21 381 -80 525 -101 83 -11 160 -27 173 -35 l22 -14
0 1370 0 1370 -2400 0 -2400 0 0 -1470z"/>
<path d="M3502 1562 c23 -28 116 -82 142 -82 50 0 32 17 -60 57 -56 24 -90 35
-82 25z"/>
<path d="M3353 1488 c18 -40 44 -102 57 -138 27 -76 34 -86 60 -93 16 -4 21 1
26 21 19 87 37 133 64 162 16 18 30 34 30 35 0 2 -17 9 -37 16 -21 6 -65 25
-97 40 -33 16 -62 29 -65 29 -2 0 8 -14 25 -32 l29 -31 -57 31 c-32 18 -60 32
-63 32 -2 0 10 -33 28 -72z"/>
<path d="M2771 1197 c-6 -16 -11 -33 -11 -38 0 -5 -16 -58 -35 -118 -29 -90
-45 -122 -95 -187 -162 -213 -200 -276 -200 -330 0 -26 2 -26 45 -22 35 4 62
18 118 60 39 30 104 77 142 106 90 65 187 165 215 220 l22 43 -32 62 c-30 56
-86 140 -139 207 l-20 25 -10 -28z"/>
<path d="M3802 848 c5 -13 75 -58 92 -58 10 0 -46 44 -78 62 -14 8 -17 7 -14
-4z"/>
<path d="M3990 810 c-5 -10 -17 -25 -25 -34 -14 -14 -12 -17 17 -32 59 -31
172 -65 268 -80 52 -9 108 -18 123 -21 30 -6 147 24 147 37 0 4 -39 15 -87 25
-146 29 -239 54 -338 90 -91 33 -95 33 -105 15z"/>
<path d="M4680 730 c0 -5 -6 -10 -14 -10 -8 0 -17 -4 -20 -9 -4 -5 2 -8 11 -6
10 2 36 7 57 10 29 5 36 9 25 16 -19 12 -59 11 -59 -1z"/>
<path d="M0 175 l0 -175 487 0 488 0 -75 44 c-148 86 -343 179 -423 201 l-58
17 -45 -38 c-27 -21 -49 -33 -52 -27 -4 6 -17 15 -30 22 l-23 12 16 -37 c21
-51 20 -54 -20 -41 -29 9 -38 7 -55 -8 -19 -18 -24 -18 -63 -5 l-42 15 0 55
c1 30 4 67 9 82 9 31 -5 42 -71 52 l-43 6 0 -175z"/>
<path d="M1015 245 c28 -13 75 -31 105 -40 30 -9 67 -23 82 -31 27 -14 27 -16
13 -38 -8 -12 -12 -26 -8 -29 3 -4 -1 -13 -10 -20 -21 -16 -13 -28 44 -60 l46
-27 557 0 558 0 -6 24 c-3 14 3 40 18 69 l23 46 -36 25 c-42 28 -108 32 -128
7 -12 -14 -15 -14 -29 4 -15 20 -15 20 -29 1 -13 -18 -16 -18 -32 -4 -23 20
-63 26 -263 38 -91 5 -241 14 -335 19 -93 6 -253 15 -355 21 -102 6 -203 13
-225 15 l-40 4 50 -24z"/>
</g>
</svg>
