<?xml version="1.0" standalone="no"?>
<!DOCTYPE svg PUBLIC "-//W3C//DTD SVG 20010904//EN"
 "http://www.w3.org/TR/2001/REC-SVG-20010904/DTD/svg10.dtd">
<svg version="1.0" xmlns="http://www.w3.org/2000/svg"
 width="480.000000pt" height="360.000000pt" viewBox="0 0 480.000000 360.000000"
 preserveAspectRatio="xMidYMid meet">
<metadata>
Created by potrace 1.16, written by Peter Selinger 2001-2019
</metadata>
<rect width="1" height="360" fill="#000000"/>
<rect x="479" width="1" height="360" fill="#000000"/>
<rect width="480" height="1" fill="#000000"/>
<rect y="359" width="480" height="1" fill="#000000"/>
<g transform="translate(0.000000,360.000000) scale(0.100000,-0.100000)"
fill="#000000" stroke="none">
<path d="M1685 3581 c-108 -48 -314 -63 -515 -36 -63 8 -117 12 -121 8 -27
-27 -166 -453 -208 -639 -94 -406 -274 -1289 -325 -1599 -72 -427 -106 -782
-106 -1106 l0 -209 1529 0 1529 0 17 27 c10 16 75 105 145 198 141 188 179
250 209 342 30 89 29 195 -8 878 -11 192 -4 341 25 548 14 98 15 122 4 145
l-13 27 -13 -44 c-18 -60 -28 -67 -48 -36 -13 19 -21 24 -30 16 -9 -8 -11 -1
-9 27 l4 37 -16 -27 c-9 -16 -17 -28 -18 -28 -1 0 -1 24 -1 52 2 107 75 348
130 431 l26 39 -41 38 c-31 30 -55 41 -99 50 -31 6 -71 16 -89 21 -48 15 -111
83 -143 152 -131 289 -145 368 -86 480 l33 64 -136 51 c-75 27 -156 56 -181
62 -25 6 -71 20 -102 31 -54 18 -93 19 -680 18 -575 0 -626 -2 -663 -18z"/>
</g>
</svg>
