<?xml version="1.0" standalone="no"?>
<!DOCTYPE svg PUBLIC "-//W3C//DTD SVG 20010904//EN"
 "http://www.w3.org/TR/2001/REC-SVG-20010904/DTD/svg10.dtd">
<svg version="1.0" xmlns="http://www.w3.org/2000/svg"
 width="480.000000pt" height="360.000000pt" viewBox="0 0 480.000000 360.000000"
 preserveAspectRatio="xMidYMid meet">
<metadata>
Created by potrace 1.16, written by Peter Selinger 2001-2019
</metadata>
<rect width="1" height="360" fill="#000000"/>
<rect x="479" width="1" height="360" fill="#000000"/>
<rect width="480" height="1" fill="#000000"/>
<rect y="359" width="480" height="1" fill="#000000"/>
<g transform="translate(0.000000,360.000000) scale(0.100000,-0.100000)"
fill="#000000" stroke="none">
<path d="M1260 3590 c0 -5 5 -10 11 -10 7 0 9 -11 5 -30 -4 -21 -1 -32 8 -36
7 -3 13 -17 13 -32 1 -76 15 -84 139 -78 l97 6 -6 -39 c-3 -24 -27 -70 -70
-132 -102 -149 -112 -176 -81 -224 15 -23 62 -41 95 -36 9 1 27 -3 42 -8 22
-9 26 -17 32 -75 7 -60 -18 -295 -44 -423 -12 -59 1 -46 34 36 15 39 31 71 35
71 11 0 -47 -350 -68 -409 -3 -11 -2 -13 6 -6 6 6 22 44 36 85 21 62 26 70 31
49 9 -35 -10 -112 -32 -127 -10 -7 -45 -32 -78 -56 -87 -62 -108 -106 -139
-294 -14 -84 -35 -188 -47 -233 l-23 -81 -35 8 c-20 5 -61 8 -91 9 -69 0 -72
-9 -31 -116 17 -44 31 -97 31 -116 0 -20 -34 -136 -76 -257 -68 -197 -98 -265
-278 -628 l-202 -408 1413 0 c777 0 1413 2 1413 5 0 3 -9 23 -20 45 -23 46
-25 69 -7 94 13 17 16 17 49 -13 20 -17 39 -31 43 -31 4 0 5 16 2 36 -5 29 -3
35 8 30 11 -4 14 1 11 17 -3 12 -5 22 -6 22 -4 0 -10 52 -10 79 0 15 -5 35
-12 44 -7 8 -14 25 -15 36 -5 56 -55 255 -69 278 -5 7 -9 27 -10 44 0 16 -8
45 -17 63 -9 19 -14 37 -11 42 8 13 -78 292 -98 316 -5 7 -7 17 -3 23 4 6 -1
23 -11 38 -10 15 -19 34 -19 42 -1 8 -2 25 -3 37 -1 12 -14 35 -28 52 -14 17
-23 35 -19 41 3 5 0 20 -7 32 -7 13 -13 49 -13 80 0 55 -2 59 -47 105 -27 27
-48 53 -48 59 0 6 -9 19 -20 29 -11 10 -20 28 -20 39 0 12 -10 37 -23 56 -29
44 -50 95 -76 187 -13 43 -35 90 -57 119 l-36 47 8 76 c8 69 11 76 32 79 18 3
22 8 16 20 -5 9 -10 101 -12 205 -3 177 -5 187 -23 187 -17 0 -19 8 -19 71 0
63 4 78 37 137 51 91 55 64 8 -53 -8 -19 -8 -19 12 -2 56 49 100 189 89 283
-5 48 -4 52 13 47 25 -6 99 61 119 107 7 19 24 49 36 65 12 17 30 50 40 74 9
24 26 55 37 69 10 14 19 32 19 41 0 10 14 36 31 59 l31 42 -1011 0 c-667 0
-1011 -3 -1011 -10z m327 -2457 c15 -129 9 -241 -26 -428 -18 -99 -36 -207
-40 -240 -4 -33 -13 -71 -20 -84 -10 -19 -11 -28 -1 -46 10 -20 9 -27 -11 -55
-16 -21 -25 -27 -27 -17 -2 8 6 95 17 193 11 98 30 296 42 439 12 143 26 270
30 283 15 39 27 24 36 -45z"/>
</g>
</svg>
