<?xml version="1.0" standalone="no"?>
<!DOCTYPE svg PUBLIC "-//W3C//DTD SVG 20010904//EN"
 "http://www.w3.org/TR/2001/REC-SVG-20010904/DTD/svg10.dtd">
<svg version="1.0" xmlns="http://www.w3.org/2000/svg"
 width="480.000000pt" height="360.000000pt" viewBox="0 0 480.000000 360.000000"
 preserveAspectRatio="xMidYMid meet">
<metadata>
Created by potrace 1.16, written by Peter Selinger 2001-2019
</metadata>
<rect width="1" height="360" fill="#000000"/>
<rect x="479" width="1" height="360" fill="#000000"/>
<rect width="480" height="1" fill="#000000"/>
<rect y="359" width="480" height="1" fill="#000000"/>
<g transform="translate(0.000000,360.000000) scale(0.100000,-0.100000)"
fill="#000000" stroke="none">
<path d="M0 2170 c0 -1359 1 -1430 18 -1422 9 5 51 12 92 15 41 3 95 10 120
16 25 6 63 14 85 19 38 7 40 9 42 49 3 40 2 41 -42 52 -34 8 -45 16 -45 31 0
10 4 21 10 25 40 25 118 266 124 385 6 98 -1 120 -35 120 -20 0 -35 10 -55 35
l-27 36 20 22 c20 22 63 142 63 175 0 10 7 40 16 66 14 39 14 52 4 71 -7 14
-10 37 -6 57 3 19 2 48 -4 64 -16 48 8 121 51 156 33 27 40 29 90 22 55 -7 72
-19 127 -93 22 -29 23 -33 9 -55 -14 -21 -13 -27 4 -66 20 -44 20 -44 -1 -60
l-20 -15 27 -80 c38 -114 38 -114 109 -174 35 -29 64 -58 64 -65 -1 -22 -50
-71 -82 -82 l-33 -11 3 -154 c3 -173 16 -289 37 -350 22 -62 20 -79 -11 -79
-16 0 -36 11 -52 30 -32 36 -42 38 -42 6 0 -14 -4 -28 -10 -31 -15 -10 -12
-17 21 -52 18 -20 40 -33 55 -33 13 0 24 -4 24 -9 0 -11 -40 -25 -135 -46 -38
-9 -124 -29 -190 -45 -159 -38 -404 -82 -416 -75 -5 4 -9 -118 -9 -309 l0
-316 274 0 274 0 -17 48 c-9 26 -16 48 -17 50 0 1 -27 -7 -60 -19 -37 -13 -95
-23 -155 -26 l-97 -6 -37 35 c-25 22 -36 40 -32 50 3 9 55 33 124 56 140 48
254 89 260 96 7 6 -23 60 -42 76 -10 8 -34 13 -60 11 -35 -2 -44 1 -47 16 -8
36 12 68 53 85 37 16 44 16 71 2 23 -12 28 -19 22 -37 -3 -12 -12 -29 -19 -37
-11 -13 -9 -20 10 -45 l24 -29 30 28 c16 15 37 26 46 24 15 -3 14 -6 -6 -29
-56 -60 -56 -61 17 -33 115 43 371 150 486 203 37 16 82 37 101 44 76 32 381
176 502 237 l130 65 32 95 c18 52 33 98 33 102 0 7 -127 68 -142 68 -5 0 -20
-13 -34 -30 -43 -50 -78 -12 -50 55 l16 36 -148 71 c-81 39 -224 113 -318 164
-95 52 -201 109 -235 126 -74 38 -85 63 -45 103 14 14 32 25 40 25 8 0 43 -19
78 -43 82 -56 175 -107 442 -240 208 -104 220 -109 233 -91 27 37 53 64 62 64
5 0 14 -7 21 -15 12 -14 11 -29 -5 -67 -5 -12 2 -21 25 -33 18 -9 34 -14 37
-11 3 3 -23 72 -58 153 -61 142 -64 151 -63 228 0 67 5 93 34 160 38 91 50
143 55 233 6 105 30 141 185 279 30 27 68 59 85 70 18 13 30 30 30 44 0 19 10
27 59 44 47 16 60 25 61 42 1 19 -3 22 -26 19 -22 -3 -30 3 -45 33 l-18 36 -4
-32 c-2 -18 -7 -33 -13 -33 -5 0 -9 -7 -9 -15 0 -22 -18 -18 -31 6 -9 17 -13
19 -20 8 -7 -11 -9 -9 -10 6 0 11 -3 14 -6 8 -10 -25 -23 -12 -23 22 0 19 -4
35 -10 35 -5 0 -10 -4 -10 -10 0 -5 -4 -10 -9 -10 -7 0 -12 74 -12 207 0 24
14 85 32 135 63 186 110 254 234 342 74 53 111 66 187 66 94 0 181 -38 270
-118 l27 -24 14 34 c8 19 18 46 22 59 4 13 19 46 32 73 26 51 93 229 93 246 0
6 -546 10 -1465 10 l-1465 0 0 -1430z m220 1370 c0 -13 -7 -20 -20 -20 -22 0
-28 25 -7 33 22 10 27 7 27 -13z m650 -37 c0 -20 -24 -11 -28 10 -2 12 1 15
12 11 9 -3 16 -13 16 -21z m486 -578 c18 -14 18 -14 -7 -15 -14 0 -34 7 -45
15 -18 14 -18 14 7 15 14 0 34 -7 45 -15z"/>
<path d="M2980 3543 c0 -64 17 -128 50 -192 12 -25 20 -56 18 -74 -2 -27 -12
-37 -58 -65 -30 -17 -58 -39 -63 -47 -8 -14 -11 -174 -5 -305 3 -90 -16 -137
-68 -168 -31 -19 -44 -34 -44 -49 0 -12 -4 -24 -9 -27 -5 -3 -17 -35 -26 -71
-10 -35 -22 -62 -27 -59 -5 3 -8 11 -7 17 4 29 -2 67 -9 67 -5 0 -17 -18 -27
-40 -19 -42 -45 -54 -45 -20 0 19 -4 18 -41 -12 l-41 -33 43 -13 c24 -6 51
-21 59 -31 8 -11 40 -29 70 -42 30 -12 68 -33 83 -46 16 -13 41 -23 56 -23 48
0 130 -30 165 -60 18 -16 51 -66 72 -110 29 -59 47 -83 69 -94 40 -19 352 -42
522 -38 140 4 178 -5 254 -59 l30 -21 52 28 c105 57 554 327 614 370 34 24 68
44 76 44 7 0 23 10 35 23 l22 23 0 592 0 592 -910 0 -910 0 0 -57z m1000 -123
c0 -5 -9 -10 -20 -10 -11 0 -20 5 -20 10 0 6 9 10 20 10 11 0 20 -4 20 -10z
m70 -816 c0 -8 -4 -12 -10 -9 -5 3 -10 10 -10 16 0 5 5 9 10 9 6 0 10 -7 10
-16z m60 -8 c0 -3 -4 -8 -10 -11 -5 -3 -10 -1 -10 4 0 6 5 11 10 11 6 0 10 -2
10 -4z m-1263 -141 c-4 -8 -11 -15 -17 -15 -14 0 -13 27 3 33 16 6 21 1 14
-18z m1013 -192 c0 -14 -19 -38 -25 -32 -8 8 5 39 16 39 5 0 9 -3 9 -7z"/>
<path d="M2251 2574 c0 -11 3 -14 6 -6 3 7 2 16 -1 19 -3 4 -6 -2 -5 -13z"/>
<path d="M4705 2218 c-49 -27 -171 -98 -270 -157 -99 -59 -222 -131 -273 -161
-86 -49 -93 -55 -87 -79 7 -31 -32 -97 -73 -125 -15 -10 -36 -32 -47 -49 -43
-66 -130 -58 -130 13 0 18 -6 35 -12 37 -24 8 -26 -29 -4 -73 26 -54 26 -66 2
-88 -24 -22 -40 -14 -85 40 -26 31 -41 42 -49 36 -21 -17 -306 -168 -483 -256
-47 -24 -62 -36 -60 -51 1 -16 -34 -37 -194 -117 -107 -54 -195 -101 -195
-105 1 -5 15 -51 32 -103 17 -52 36 -114 42 -137 8 -31 18 -44 39 -51 22 -9
186 -79 320 -138 162 -71 288 -122 507 -204 360 -135 347 -128 304 -169 -43
-39 -160 -25 -360 45 -111 38 -449 174 -616 247 -57 25 -103 40 -103 35 0 -5
25 -50 55 -99 30 -49 93 -169 141 -266 47 -98 92 -193 101 -210 l16 -33 789 0
788 0 0 1135 c0 624 -1 1135 -2 1134 -2 0 -43 -23 -93 -51z m-210 -518 c8 -13
-5 -13 -25 0 -13 8 -13 10 2 10 9 0 20 -4 23 -10z"/>
<path d="M2737 1943 c-3 -5 -10 -87 -17 -183 -10 -132 -10 -192 -1 -247 17
-107 16 -110 -18 -105 -28 4 -30 2 -42 -52 -11 -50 -10 -59 3 -73 15 -14 30
-8 175 67 87 45 165 89 174 96 9 8 30 13 47 12 16 -1 36 3 44 9 14 12 211 119
403 219 111 58 120 65 118 90 -1 15 -6 31 -11 36 -5 5 -75 3 -158 -4 -245 -19
-282 -18 -353 16 -33 16 -61 33 -61 37 0 4 -15 3 -34 -2 -26 -7 -45 -5 -78 6
-23 9 -61 21 -83 26 -22 6 -54 21 -72 35 -17 13 -34 21 -36 17z m291 -465 c-6
-18 -28 -21 -28 -4 0 9 7 16 16 16 9 0 14 -5 12 -12z"/>
<path d="M3732 1811 c4 -13 18 -16 19 -4 0 4 -5 9 -11 12 -7 2 -11 -2 -8 -8z"/>
<path d="M2085 1786 c-16 -11 -47 -46 -69 -79 l-38 -58 14 -52 c8 -29 19 -52
24 -51 15 2 71 124 89 193 9 35 15 64 13 66 -2 1 -16 -8 -33 -19z"/>
<path d="M2043 1395 c7 -43 11 -50 26 -40 19 11 12 54 -10 66 -21 11 -22 10
-16 -26z"/>
<path d="M552 948 c-7 -7 -12 -19 -12 -28 0 -30 -33 -51 -68 -44 -28 6 -32 4
-32 -14 0 -32 47 -64 89 -60 l36 3 11 70 c14 84 7 104 -24 73z"/>
<path d="M1565 523 c-257 -121 -492 -221 -705 -298 -328 -118 -322 -116 -317
-145 3 -14 10 -37 16 -53 l11 -27 501 2 501 3 18 70 c10 39 34 114 53 167 20
53 51 150 71 215 19 65 38 126 41 136 4 9 3 17 -1 16 -5 -1 -90 -39 -189 -86z"/>
</g>
</svg>
