<?xml version="1.0" standalone="no"?>
<!DOCTYPE svg PUBLIC "-//W3C//DTD SVG 20010904//EN"
 "http://www.w3.org/TR/2001/REC-SVG-20010904/DTD/svg10.dtd">
<svg version="1.0" xmlns="http://www.w3.org/2000/svg"
 width="480.000000pt" height="360.000000pt" viewBox="0 0 480.000000 360.000000"
 preserveAspectRatio="xMidYMid meet">
<metadata>
Created by potrace 1.16, written by Peter Selinger 2001-2019
</metadata>
<rect width="1" height="360" fill="#000000"/>
<rect x="479" width="1" height="360" fill="#000000"/>
<rect width="480" height="1" fill="#000000"/>
<rect y="359" width="480" height="1" fill="#000000"/>
<g transform="translate(0.000000,360.000000) scale(0.100000,-0.100000)"
fill="#000000" stroke="none">
<path d="M1823 3528 c-13 -6 -23 -17 -23 -25 0 -7 -6 -13 -14 -13 -17 0 -28
-34 -26 -85 3 -99 6 -131 13 -143 5 -7 4 -19 -3 -26 -6 -9 -8 -25 -3 -43 4
-15 6 -35 5 -44 -2 -9 3 -29 9 -45 7 -16 11 -37 10 -46 -1 -10 3 -18 9 -18 7
0 10 -6 7 -12 -2 -7 0 -24 4 -37 9 -23 11 -23 85 -16 l76 7 -7 -34 c-4 -18
-27 -64 -51 -103 -25 -38 -47 -80 -51 -92 -8 -34 21 -73 56 -73 37 0 44 -10
65 -101 16 -64 17 -90 9 -170 -11 -106 -8 -129 13 -102 13 16 14 14 8 -22 -3
-22 -10 -56 -15 -75 -12 -47 -11 -50 6 -50 27 0 18 -49 -11 -60 -28 -11 -92
-56 -112 -80 -30 -36 -40 -72 -51 -180 -6 -63 -16 -132 -21 -152 -11 -37 -12
-38 -56 -38 -25 0 -54 -5 -65 -10 -28 -15 -25 -67 8 -114 32 -48 32 -69 -2
-209 -35 -143 -37 -150 -150 -382 -148 -304 -165 -342 -165 -364 0 -11 14 -28
36 -41 27 -18 34 -27 30 -44 -15 -60 -18 -257 -5 -322 7 -38 13 -71 12 -74 0
-3 -4 -24 -8 -47 l-7 -43 955 0 954 0 18 110 c15 92 21 113 39 122 38 19 85
71 97 105 14 43 5 92 -30 162 l-28 56 18 55 c10 30 19 66 19 79 0 13 -29 78
-64 145 -58 111 -85 181 -101 261 -9 47 -37 139 -46 150 -5 6 -11 30 -15 53
-4 23 -11 45 -15 48 -5 3 -9 15 -9 26 0 19 -14 55 -53 135 -7 17 -7 34 2 63
15 50 5 71 -50 106 -22 13 -42 33 -45 42 -8 23 -91 186 -126 245 -15 26 -28
52 -28 56 0 5 -6 13 -13 19 -7 6 -14 31 -16 56 -1 35 2 47 17 55 17 9 18 17
11 66 -4 31 -9 95 -11 142 -2 57 -7 87 -15 90 -9 3 -13 27 -13 67 0 38 4 56 9
47 6 -10 16 -1 37 35 27 45 29 57 29 152 0 87 2 101 15 95 8 -3 31 -8 50 -10
31 -4 37 -1 55 29 11 18 19 36 17 41 -1 4 2 7 8 7 11 0 60 99 60 122 0 9 7 21
15 28 8 7 15 18 15 24 0 6 13 36 29 67 31 62 46 109 33 109 -4 0 -12 14 -17
31 -8 26 -20 36 -67 54 -120 49 -203 63 -328 55 -138 -8 -172 -21 -196 -78 -1
-2 -14 10 -30 26 -48 47 -175 60 -258 26 -15 -6 -18 -4 -13 8 12 34 -92 96
-213 127 -94 23 -286 35 -317 19z m1030 -2658 l4 -125 -24 100 c-30 126 -41
336 -23 427 24 126 24 131 43 -402z m12 -258 c-9 -10 -25 42 -19 61 7 19 9 16
15 -18 4 -22 5 -42 4 -43z"/>
</g>
</svg>
