<?xml version="1.0" standalone="no"?>
<!DOCTYPE svg PUBLIC "-//W3C//DTD SVG 20010904//EN"
 "http://www.w3.org/TR/2001/REC-SVG-20010904/DTD/svg10.dtd">
<svg version="1.0" xmlns="http://www.w3.org/2000/svg"
 width="480.000000pt" height="360.000000pt" viewBox="0 0 480.000000 360.000000"
 preserveAspectRatio="xMidYMid meet">
<metadata>
Created by potrace 1.16, written by Peter Selinger 2001-2019
</metadata>
<rect width="1" height="360" fill="#000000"/>
<rect x="479" width="1" height="360" fill="#000000"/>
<rect width="480" height="1" fill="#000000"/>
<rect y="359" width="480" height="1" fill="#000000"/>
<g transform="translate(0.000000,360.000000) scale(0.100000,-0.100000)"
fill="#000000" stroke="none">
<path d="M0 1800 l0 -1800 2400 0 2400 0 0 1778 0 1777 -58 22 -57 22 -1872 1
c-1665 0 -1878 -2 -1932 -16 -55 -14 -67 -14 -122 0 -49 13 -126 16 -410 16
l-349 0 0 -1800z m2690 1398 c0 -17 -20 -47 -20 -31 0 6 -3 18 -6 27 -4 11 -1
16 10 16 9 0 16 -6 16 -12z m-720 -100 c1 -2 3 -21 6 -43 l5 -40 -20 25 c-24
30 -27 60 -6 60 8 0 15 -1 15 -2z m283 -304 c9 -10 -12 -46 -24 -39 -14 9 -11
45 4 45 8 0 17 -3 20 -6z m237 -154 c-12 -22 -25 -26 -35 -10 -9 15 4 30 26
30 17 0 18 -3 9 -20z m-740 -217 c0 -20 -18 -16 -30 7 -15 28 -1 49 17 25 7
-11 13 -25 13 -32z m-110 -4 c7 -11 10 -23 7 -25 -6 -6 -37 25 -37 37 0 17 19
9 30 -12z m180 -15 c0 -8 -4 -12 -10 -9 -5 3 -10 13 -10 21 0 8 5 12 10 9 6
-3 10 -13 10 -21z m170 -3 c0 -5 3 -16 6 -25 4 -11 1 -16 -10 -16 -10 0 -16 9
-16 25 0 14 5 25 10 25 6 0 10 -4 10 -9z m-40 -22 c0 -11 -4 -17 -10 -14 -5 3
-10 13 -10 21 0 8 5 14 10 14 6 0 10 -9 10 -21z m283 -15 c9 -9 -4 -35 -14
-28 -5 3 -9 12 -9 20 0 14 12 19 23 8z m257 -25 c0 -10 -4 -19 -9 -19 -12 0
-23 29 -15 41 8 14 24 0 24 -22z m308 -1 c-6 -18 -28 -21 -28 -4 0 9 7 16 16
16 9 0 14 -5 12 -12z m-708 -33 c0 -8 6 -24 12 -35 10 -15 10 -22 0 -32 -10
-10 -17 -8 -34 9 -19 19 -20 26 -10 48 13 28 32 34 32 10z m435 -4 c-3 -11 -1
-22 5 -26 15 -9 12 -35 -5 -35 -8 0 -15 8 -15 18 0 9 -3 27 -6 40 -5 16 -2 22
11 22 12 0 15 -5 10 -19z m75 -26 c0 -24 -5 -35 -15 -35 -17 0 -20 23 -5 51
15 27 20 24 20 -16z m-780 -24 c0 -10 7 -24 15 -31 8 -7 15 -19 15 -27 0 -13
-3 -13 -16 -2 -20 17 -45 65 -37 73 12 12 23 6 23 -13z m385 -1 c3 -5 1 -18
-4 -27 -6 -10 -11 -13 -11 -6 0 6 -3 18 -6 27 -7 17 11 22 21 6z m145 -4 c0
-8 -4 -18 -10 -21 -5 -3 -10 -4 -10 -1 0 2 -3 11 -6 20 -4 11 -1 16 10 16 9 0
16 -6 16 -14z m324 -14 c2 -4 -2 -15 -9 -25 -11 -16 -13 -16 -19 -1 -10 25 14
48 28 26z m-101 -88 c3 -4 2 -16 -4 -26 -13 -24 -35 -9 -26 16 7 17 19 21 30
10z m209 -86 c-15 -15 -26 -4 -18 18 5 13 9 15 18 6 9 -9 9 -15 0 -24z m-772
-83 c0 -28 -24 -34 -34 -9 -8 20 1 34 20 34 8 0 14 -10 14 -25z m-281 -41 c10
-23 10 -26 -4 -20 -9 3 -19 6 -21 6 -2 0 -4 9 -4 20 0 28 15 25 29 -6z m693
-9 c-12 -22 -27 -2 -18 22 5 12 10 13 17 6 7 -7 8 -17 1 -28z m243 5 c4 -12 1
-28 -6 -36 -12 -14 -14 -14 -26 2 -7 10 -13 26 -13 36 0 25 37 23 45 -2z
m-766 -52 c10 -28 -12 -46 -35 -28 -24 21 -15 46 19 49 4 1 11 -9 16 -21z
m-109 -49 c0 -24 -23 -21 -28 4 -2 10 3 17 12 17 10 0 16 -9 16 -21z m857 -87
c-14 -17 -22 0 -12 26 5 14 7 14 15 2 5 -9 4 -20 -3 -28z m-742 -3 c4 -11 4
-23 1 -26 -8 -9 -47 28 -40 38 10 16 33 9 39 -12z m955 -43 c0 -18 -27 -39
-40 -31 -7 4 -7 12 0 26 12 22 40 26 40 5z m130 -14 c0 -13 -12 -22 -22 -16
-10 6 -1 24 13 24 5 0 9 -4 9 -8z m-570 -37 c0 -8 -6 -15 -14 -15 -17 0 -28
14 -19 24 12 12 33 6 33 -9z m-380 -17 c0 -17 3 -19 12 -10 16 16 25 15 32 -4
11 -29 -4 -33 -44 -12 -43 23 -53 48 -20 48 14 0 20 -7 20 -22z m-212 -12 c3
-13 -1 -17 -14 -14 -11 2 -20 11 -22 22 -3 13 1 17 14 14 11 -2 20 -11 22 -22z
m812 -31 c0 -8 -7 -15 -15 -15 -16 0 -20 12 -8 23 11 12 23 8 23 -8z m-162
-17 c-4 -27 -28 -36 -28 -10 0 20 8 32 22 32 5 0 8 -10 6 -22z m249 3 c7 6 20
8 29 5 13 -5 14 -9 4 -21 -7 -9 -20 -15 -29 -13 -9 1 -22 -1 -28 -5 -21 -13
-34 2 -22 25 8 14 14 17 22 9 7 -7 14 -7 24 0z m-951 -16 c10 -26 0 -37 -20
-22 -11 8 -16 19 -12 25 10 16 26 15 32 -3z m417 -29 c6 -15 -1 -26 -15 -26
-4 0 -8 9 -8 20 0 23 15 27 23 6z m77 -6 c0 -21 -15 -27 -25 -10 -7 12 2 30
16 30 5 0 9 -9 9 -20z m380 11 c0 -13 -26 -32 -33 -24 -8 7 11 33 24 33 5 0 9
-4 9 -9z m-440 -71 c0 -11 -7 -20 -15 -20 -8 0 -15 9 -15 20 0 11 7 20 15 20
8 0 15 -9 15 -20z m128 -8 c3 -17 -2 -22 -18 -22 -25 0 -38 29 -19 41 20 13
34 6 37 -19z m140 1 c-5 -25 -28 -28 -28 -4 0 12 6 21 16 21 9 0 14 -7 12 -17z
m-680 -71 c2 -7 -3 -12 -12 -12 -9 0 -16 7 -16 16 0 17 22 14 28 -4z m648 7
c8 -14 -11 -33 -25 -25 -11 7 -4 36 9 36 5 0 12 -5 16 -11z m434 -3 c0 -2 3
-11 6 -19 7 -18 -27 -32 -37 -16 -10 16 0 39 17 39 8 0 14 -2 14 -4z m-792
-28 c-6 -18 -28 -21 -28 -4 0 9 7 16 16 16 9 0 14 -5 12 -12z m277 2 c3 -6 -1
-13 -10 -16 -19 -8 -30 0 -20 15 8 14 22 14 30 1z m310 -20 c0 -8 -8 -16 -17
-18 -13 -2 -18 3 -18 18 0 15 5 20 18 18 9 -2 17 -10 17 -18z m-677 -33 c2
-12 -3 -17 -17 -17 -12 0 -21 6 -21 13 0 31 32 34 38 4z m889 -4 c4 -11 -26
-27 -35 -19 -2 3 -2 12 2 21 6 18 27 16 33 -2z m-167 -38 c0 -16 -27 -32 -37
-22 -3 4 -3 13 0 22 8 20 37 20 37 0z m-254 -52 c-5 -12 -10 -13 -18 -5 -8 8
-8 15 3 28 15 18 25 4 15 -23z m-296 12 c0 -8 -4 -15 -10 -15 -5 0 -10 7 -10
15 0 8 5 15 10 15 6 0 10 -7 10 -15z m-27 -32 c7 -35 -8 -52 -28 -33 -17 17
-10 60 10 60 7 0 15 -12 18 -27z m264 -9 c8 -21 -13 -42 -28 -27 -13 13 -5 43
11 43 6 0 13 -7 17 -16z m517 -13 c10 -16 -5 -41 -25 -41 -21 0 -25 20 -7 38
14 14 25 15 32 3z m-54 -61 c0 -14 -20 -22 -37 -16 -12 5 -13 9 -3 21 11 14
40 10 40 -5z m-480 -20 c0 -12 7 -20 16 -20 9 0 14 -7 12 -17 -4 -24 -27 -28
-35 -6 -3 10 -12 21 -19 26 -16 9 -7 37 12 37 8 0 14 -9 14 -20z m170 -15 c0
-8 -7 -15 -15 -15 -8 0 -15 7 -15 15 0 8 7 15 15 15 8 0 15 -7 15 -15z m-180
-66 c0 -12 -29 -24 -37 -16 -3 4 -3 13 0 21 6 16 37 11 37 -5z m136 10 c10
-17 -13 -36 -27 -22 -12 12 -4 33 11 33 5 0 12 -5 16 -11z m-316 -45 c0 -16
-16 -19 -25 -4 -8 13 4 32 16 25 5 -4 9 -13 9 -21z m72 -29 c0 -5 -5 -11 -11
-13 -6 -2 -11 4 -11 13 0 9 5 15 11 13 6 -2 11 -8 11 -13z m-172 -31 c0 -16
-16 -19 -25 -4 -8 13 4 32 16 25 5 -4 9 -13 9 -21z m200 -20 c0 -8 -9 -14 -20
-14 -19 0 -27 19 -14 33 10 9 34 -4 34 -19z m-100 -9 c0 -8 -6 -15 -14 -15
-17 0 -28 14 -19 24 12 12 33 6 33 -9z m230 -9 c0 -14 -5 -28 -10 -31 -13 -8
-24 20 -16 40 9 24 26 17 26 -9z m-315 -26 c0 -22 -29 -18 -33 3 -3 14 1 18
15 15 10 -2 18 -10 18 -18z m181 9 c10 -17 -13 -36 -27 -22 -12 12 -4 33 11
33 5 0 12 -5 16 -11z m331 -53 c-4 -9 -11 -16 -17 -16 -17 0 -24 31 -9 41 18
11 34 -5 26 -25z m-457 -11 c0 -8 -7 -15 -15 -15 -8 0 -15 7 -15 15 0 8 7 15
15 15 8 0 15 -7 15 -15z m354 -43 c2 -4 1 -14 -4 -22 -7 -11 -12 -12 -21 -3
-6 6 -8 16 -5 22 8 13 23 14 30 3z m-104 -27 c0 -8 -7 -15 -15 -15 -16 0 -20
12 -8 23 11 12 23 8 23 -8z m180 -40 c0 -8 -7 -15 -15 -15 -8 0 -15 7 -15 15
0 8 7 15 15 15 8 0 15 -7 15 -15z m-240 -31 c0 -8 -7 -14 -15 -14 -15 0 -21
21 -9 33 10 9 24 -2 24 -19z m-170 -5 c0 -4 -9 -13 -21 -20 -30 -16 -52 6 -26
26 19 14 47 10 47 -6z m220 -18 c0 -14 -48 -42 -55 -31 -7 11 35 51 47 44 4
-3 8 -9 8 -13z m378 1 c3 -9 -2 -13 -14 -10 -9 1 -19 9 -22 16 -3 9 2 13 14
10 9 -1 19 -9 22 -16z m-508 -23 c0 -5 -4 -9 -10 -9 -5 0 -10 7 -10 16 0 8 5
12 10 9 6 -3 10 -10 10 -16z m61 -32 c-13 -13 -26 -3 -16 12 3 6 11 8 17 5 6
-4 6 -10 -1 -17z m124 -8 c0 -7 -8 -15 -17 -17 -18 -3 -25 18 -11 32 10 10 28
1 28 -15z m130 6 c0 -5 -19 -11 -42 -13 -40 -3 -53 5 -36 22 11 10 78 3 78 -9z
m-119 -46 c10 -17 -13 -36 -27 -22 -12 12 -4 33 11 33 5 0 12 -5 16 -11z
m-110 -44 c0 -5 4 -18 9 -28 11 -27 -35 -61 -50 -36 -4 5 0 18 9 28 15 17 15
19 1 24 -8 4 -15 11 -15 17 0 14 45 9 46 -5z m134 7 c0 -12 -39 -42 -55 -42
-25 0 -18 38 8 43 38 7 47 7 47 -1z m-285 -69 c-4 -10 -10 -28 -12 -40 -6 -28
-33 -30 -33 -3 0 11 5 20 11 20 5 0 7 5 4 10 -9 14 3 30 22 30 11 0 13 -5 8
-17z m300 -3 c0 -8 -7 -16 -15 -17 -22 -4 -44 13 -35 26 10 17 50 9 50 -9z
m-95 -64 c0 -8 -4 -17 -9 -21 -12 -7 -24 12 -16 25 9 15 25 12 25 -4z m-165
-6 c9 -15 -14 -40 -36 -40 -24 0 -26 37 -1 43 28 8 31 7 37 -3z m175 -87 c0
-18 -26 -16 -55 3 -20 13 -23 20 -14 35 9 19 11 18 39 -3 17 -12 30 -28 30
-35z m-162 15 c-6 -18 -28 -21 -28 -4 0 9 7 16 16 16 9 0 14 -5 12 -12z m79
-4 c8 -20 -13 -42 -27 -28 -12 12 -3 44 11 44 5 0 12 -7 16 -16z"/>
</g>
</svg>
