<?xml version="1.0" standalone="no"?>
<!DOCTYPE svg PUBLIC "-//W3C//DTD SVG 20010904//EN"
 "http://www.w3.org/TR/2001/REC-SVG-20010904/DTD/svg10.dtd">
<svg version="1.0" xmlns="http://www.w3.org/2000/svg"
 width="480.000000pt" height="360.000000pt" viewBox="0 0 480.000000 360.000000"
 preserveAspectRatio="xMidYMid meet">
<metadata>
Created by potrace 1.16, written by Peter Selinger 2001-2019
</metadata>
<rect width="1" height="360" fill="#000000"/>
<rect x="479" width="1" height="360" fill="#000000"/>
<rect width="480" height="1" fill="#000000"/>
<rect y="359" width="480" height="1" fill="#000000"/>
<g transform="translate(0.000000,360.000000) scale(0.100000,-0.100000)"
fill="#000000" stroke="none">
<path d="M3960 1136 c0 -8 5 -18 10 -21 14 -9 12 -56 -2 -52 -7 1 -12 -6 -13
-15 0 -22 -87 -157 -102 -157 -6 -1 -9 -10 -5 -23 5 -23 5 -23 -16 -4 -22 19
-22 19 -22 -1 0 -10 13 -31 28 -46 26 -25 28 -33 24 -80 -3 -40 3 -70 26 -132
16 -44 35 -80 42 -80 8 0 15 -6 18 -12 5 -17 -27 -16 -62 2 -15 8 -32 13 -36
10 -14 -8 -8 -177 7 -212 7 -18 13 -45 13 -61 0 -41 40 -76 79 -69 25 5 30 3
35 -18 4 -14 4 -35 1 -48 -4 -15 -1 -28 9 -36 19 -16 21 -52 4 -69 -10 -10 23
-12 156 -10 l168 3 3 123 c2 85 -1 138 -10 169 -12 39 -12 49 1 68 19 29 85
48 138 39 22 -4 110 -7 194 -8 l152 -1 0 68 c0 77 -9 87 -66 69 -25 -7 -45 -7
-81 4 -25 8 -74 14 -107 14 -56 0 -174 15 -182 23 -3 3 115 304 161 408 27 61
32 93 14 87 -6 -2 -42 -80 -79 -173 -130 -328 -126 -320 -162 -323 -62 -5 -79
5 -75 41 3 17 10 46 16 62 27 66 21 109 -20 166 -9 12 -8 24 6 52 24 51 15 71
-30 63 -31 -6 -45 -1 -110 41 -67 44 -75 52 -81 88 -6 41 -20 65 -35 65 -5 0
-9 -6 -9 -14z"/>
<path d="M2467 1093 c5 -13 2 -15 -11 -10 -14 6 -17 3 -12 -10 4 -9 1 -20 -6
-25 -10 -6 -10 -10 1 -17 22 -14 -72 -131 -105 -131 -34 0 -41 -26 -14 -55 21
-22 21 -27 11 -112 -15 -120 -14 -143 4 -143 10 0 15 -10 15 -28 0 -25 -5 -29
-45 -40 -34 -9 -45 -17 -45 -31 0 -26 68 -139 91 -152 27 -14 26 -102 -2 -148
-19 -31 -19 -34 -3 -52 18 -20 16 -42 -10 -101 l-16 -38 180 0 180 0 -10 26
c-6 15 -19 39 -30 54 -25 35 -25 33 5 105 13 33 25 70 25 83 0 17 10 27 35 38
19 8 35 19 35 24 0 19 26 9 78 -30 29 -22 58 -40 64 -40 6 0 22 10 35 22 13
12 23 16 23 10 0 -7 12 -12 26 -12 54 0 118 110 98 168 -10 29 -9 28 -105 16
-58 -7 -82 5 -115 57 -28 45 -66 68 -86 51 -21 -17 -107 -6 -139 17 -16 12
-29 27 -29 33 0 7 5 6 15 -2 13 -11 15 -7 15 25 0 25 8 47 25 67 27 32 32 67
14 100 -9 17 -7 28 11 59 l21 39 -23 2 c-13 0 -28 2 -34 2 -6 1 -39 27 -74 59
-51 48 -60 60 -50 72 10 12 10 15 1 15 -8 0 -10 8 -5 22 6 20 5 21 -10 9 -14
-12 -16 -11 -16 3 0 9 -4 16 -10 16 -5 0 -6 -8 -3 -17z m453 -739 c0 -14 -2
-14 -15 0 -8 8 -19 27 -25 43 l-10 28 25 -28 c14 -15 25 -35 25 -43z"/>
<path d="M866 955 c-3 -8 -11 -14 -18 -13 -7 2 -11 -4 -9 -12 4 -14 4 -31 0
-66 -1 -9 -29 -41 -62 -72 -43 -42 -67 -57 -88 -58 -16 0 -36 -7 -45 -16 -14
-14 -13 -19 10 -53 30 -43 30 -47 14 -91 -14 -40 0 -76 38 -92 14 -7 27 -26
35 -51 7 -22 23 -50 35 -62 32 -30 30 -36 -9 -43 -19 -3 -42 -12 -52 -19 -23
-18 -55 -102 -55 -147 0 -64 -25 -81 -194 -128 -17 -5 -32 -14 -34 -20 -3 -9
74 -12 316 -12 l320 0 6 37 c24 143 24 146 -2 198 -13 28 -31 58 -40 68 -16
18 -8 51 12 47 14 -3 56 71 56 98 0 12 -12 59 -26 103 l-27 80 22 29 c21 29
29 66 12 56 -4 -3 -17 1 -27 9 -10 8 -27 15 -36 15 -25 0 -57 51 -51 82 4 20
-3 35 -31 64 -20 21 -36 48 -36 61 0 26 -25 31 -34 8z"/>
<path d="M0 50 l0 -50 82 0 c78 0 81 1 60 16 -12 8 -29 31 -37 50 -13 32 -17
34 -59 34 l-46 0 0 -50z"/>
</g>
</svg>
