<?xml version="1.0" standalone="no"?>
<!DOCTYPE svg PUBLIC "-//W3C//DTD SVG 20010904//EN"
 "http://www.w3.org/TR/2001/REC-SVG-20010904/DTD/svg10.dtd">
<svg version="1.0" xmlns="http://www.w3.org/2000/svg"
 width="480.000000pt" height="360.000000pt" viewBox="0 0 480.000000 360.000000"
 preserveAspectRatio="xMidYMid meet">
<metadata>
Created by potrace 1.16, written by Peter Selinger 2001-2019
</metadata>
<rect width="1" height="360" fill="#000000"/>
<rect x="479" width="1" height="360" fill="#000000"/>
<rect width="480" height="1" fill="#000000"/>
<rect y="359" width="480" height="1" fill="#000000"/>
<g transform="translate(0.000000,360.000000) scale(0.100000,-0.100000)"
fill="#000000" stroke="none">
<path d="M0 1800 l0 -1800 895 0 c845 0 895 1 895 17 0 10 11 52 24 93 13 41
31 107 40 145 9 39 41 152 73 253 63 202 62 214 -4 191 -21 -8 -41 -18 -45
-23 -10 -15 -53 19 -67 52 -16 38 -1 97 35 135 14 15 23 34 20 42 -3 8 23 90
58 182 85 226 131 379 149 493 8 52 18 103 22 114 7 16 6 17 -14 6 -13 -6 -25
-9 -28 -6 -7 7 25 56 36 56 5 0 13 12 19 28 15 40 34 254 27 296 -6 31 -10 35
-30 30 -19 -5 -27 2 -48 38 -14 23 -40 85 -58 136 -38 111 -34 135 28 145 60
10 123 8 188 -7 40 -10 64 -11 72 -5 6 6 56 10 110 9 66 -2 114 3 148 14 28 8
82 18 121 22 65 6 74 4 93 -15 25 -25 24 -45 -14 -181 -25 -89 -50 -130 -79
-130 -11 0 -13 -13 -9 -58 4 -45 2 -62 -11 -74 -13 -13 -16 -39 -16 -129 0
-103 2 -115 22 -136 26 -28 47 -100 48 -165 0 -74 35 -236 68 -318 17 -41 51
-122 76 -179 35 -80 43 -108 34 -118 -8 -11 -5 -20 16 -42 37 -39 51 -101 32
-145 -15 -35 -50 -63 -60 -47 -3 4 -19 11 -35 14 -19 4 -36 17 -45 34 -31 58
-15 -12 48 -211 36 -111 74 -245 85 -299 11 -55 30 -135 42 -178 l21 -79 909
0 909 0 0 1800 0 1800 -2400 0 -2400 0 0 -1800z"/>
<path d="M2780 853 c0 -32 22 -59 40 -48 17 10 12 30 -15 55 l-25 23 0 -30z"/>
<path d="M1915 798 c-4 -10 -4 -26 0 -35 8 -17 8 -17 12 0 3 9 3 25 0 35 -4
16 -4 16 -12 0z"/>
</g>
</svg>
