<?xml version="1.0" standalone="no"?>
<!DOCTYPE svg PUBLIC "-//W3C//DTD SVG 20010904//EN"
 "http://www.w3.org/TR/2001/REC-SVG-20010904/DTD/svg10.dtd">
<svg version="1.0" xmlns="http://www.w3.org/2000/svg"
 width="480.000000pt" height="360.000000pt" viewBox="0 0 480.000000 360.000000"
 preserveAspectRatio="xMidYMid meet">
<metadata>
Created by potrace 1.16, written by Peter Selinger 2001-2019
</metadata>
<rect width="1" height="360" fill="#000000"/>
<rect x="479" width="1" height="360" fill="#000000"/>
<rect width="480" height="1" fill="#000000"/>
<rect y="359" width="480" height="1" fill="#000000"/>
<g transform="translate(0.000000,360.000000) scale(0.100000,-0.100000)"
fill="#000000" stroke="none">
<path d="M0 2660 l0 -940 43 0 c23 0 80 5 127 10 567 66 968 65 1230 -4 184
-48 244 -45 490 25 94 26 155 39 167 34 15 -6 12 -9 -17 -18 l-35 -10 38 -10
c34 -8 42 -7 60 12 18 18 19 21 5 21 -12 0 -7 10 19 35 25 24 40 32 47 25 20
-20 156 1 156 25 0 9 18 16 47 21 27 4 60 16 75 27 32 24 70 24 506 7 133 -6
353 -14 490 -20 305 -12 500 -26 659 -46 98 -13 133 -13 178 -4 31 6 58 17 59
23 2 7 8 27 14 45 8 24 8 40 0 57 -13 29 -24 24 -41 -17 l-12 -29 -20 50 c-11
28 -22 51 -25 51 -3 0 -15 -15 -27 -33 l-23 -32 0 41 c0 47 -25 151 -44 179
-8 11 -17 39 -21 63 -8 50 -20 61 -29 26 -5 -17 -1 -35 9 -50 24 -37 -1 -28
-32 11 -15 20 -47 45 -71 56 -51 25 -69 49 -88 121 -23 87 -18 114 40 233 82
168 190 261 354 306 120 33 181 25 332 -44 69 -31 128 -57 133 -57 4 0 7 169
7 375 l0 375 -2400 0 -2400 0 0 -940z m1805 -512 c-8 -28 -60 -78 -80 -78 -25
0 -17 34 16 68 38 39 74 44 64 10z"/>
<path d="M2010 1690 c-13 -8 -13 -10 2 -10 9 0 20 5 23 10 8 13 -5 13 -25 0z"/>
<path d="M2446 1623 c-12 -12 -6 -21 19 -25 14 -3 25 -2 25 1 0 10 -37 30 -44
24z"/>
<path d="M2675 1615 c-71 -8 -139 -14 -150 -15 -14 -1 -8 -7 20 -20 84 -38
125 -109 125 -217 -1 -187 -178 -324 -327 -252 -49 24 -66 60 -40 87 14 14 24
14 85 2 81 -15 124 -5 165 38 95 99 62 240 -61 257 -108 15 -143 11 -164 -18
-24 -33 -29 -33 -77 -1 -42 27 -135 53 -191 53 l-35 0 38 -16 c42 -17 49 -33
13 -33 -13 0 -38 -3 -56 -7 l-33 -6 54 -26 54 -25 -42 -4 c-46 -3 -56 -16 -23
-27 11 -3 20 -10 20 -15 0 -17 -78 0 -195 44 -120 44 -247 76 -305 76 -17 0
-92 -12 -168 -26 -223 -42 -527 -33 -917 27 -134 20 -402 66 -442 74 l-23 5 0
-785 0 -785 2114 0 2114 0 26 54 c38 78 112 188 190 284 l67 82 -20 27 c-33
40 -23 75 27 102 16 8 22 21 22 44 0 52 -17 64 -95 71 -83 7 -115 15 -115 28
0 5 11 24 24 41 13 18 33 51 45 74 44 89 17 230 -81 413 -28 52 -61 130 -74
174 -13 43 -29 85 -35 92 -29 35 -307 78 -774 119 -310 28 -548 31 -760 10z
m505 -766 c0 -16 -5 -29 -10 -29 -15 0 -34 46 -26 65 10 26 36 -1 36 -36z
m-2620 -228 c0 -11 -25 -21 -51 -21 -21 0 -26 16 -6 23 21 9 57 7 57 -2z"/>
</g>
</svg>
