<?xml version="1.0" standalone="no"?>
<!DOCTYPE svg PUBLIC "-//W3C//DTD SVG 20010904//EN"
 "http://www.w3.org/TR/2001/REC-SVG-20010904/DTD/svg10.dtd">
<svg version="1.0" xmlns="http://www.w3.org/2000/svg"
 width="480.000000pt" height="360.000000pt" viewBox="0 0 480.000000 360.000000"
 preserveAspectRatio="xMidYMid meet">
<metadata>
Created by potrace 1.16, written by Peter Selinger 2001-2019
</metadata>
<rect width="1" height="360" fill="#000000"/>
<rect x="479" width="1" height="360" fill="#000000"/>
<rect width="480" height="1" fill="#000000"/>
<rect y="359" width="480" height="1" fill="#000000"/>
<g transform="translate(0.000000,360.000000) scale(0.100000,-0.100000)"
fill="#000000" stroke="none">
<path d="M0 1800 l0 -1800 908 0 907 1 19 25 c10 14 20 46 21 70 2 23 25 94
51 156 47 112 47 114 45 213 -2 74 -8 112 -23 145 -18 41 -19 58 -13 177 6
109 5 135 -8 153 -8 12 -13 30 -10 41 3 10 1 19 -5 19 -5 0 -12 -9 -15 -21 -7
-28 -28 -20 -40 15 -7 21 -4 44 11 91 13 39 19 76 16 97 -5 27 3 51 38 118 25
47 50 101 58 120 7 19 26 49 43 66 25 28 28 38 25 79 -3 46 1 53 40 71 2 1
-28 33 -65 71 -108 107 -148 213 -108 283 19 33 19 37 -5 43 -11 3 -20 9 -20
14 0 17 61 75 73 70 17 -6 51 19 42 32 -3 6 -17 11 -31 11 -33 0 -126 53 -101
58 9 2 17 12 17 22 0 9 6 23 14 30 12 9 21 7 43 -10 36 -26 68 -18 58 14 -13
45 -35 183 -35 219 0 46 15 77 37 77 9 0 37 -17 63 -39 l45 -38 37 32 c34 29
71 45 138 59 14 3 38 23 54 45 15 21 39 45 52 52 l24 12 0 454 0 453 -1200 0
-1200 0 0 -1800z"/>
<path d="M2400 1345 l0 -1345 305 0 c168 0 305 3 305 7 0 3 -7 15 -17 25 -9
10 -17 37 -18 60 -2 43 -41 161 -76 230 -22 42 -26 192 -9 308 5 36 10 143 12
237 2 95 6 173 9 173 3 0 14 -16 25 -35 20 -37 38 -45 48 -19 18 47 -15 216
-64 324 -21 47 -41 95 -45 106 -3 12 -20 42 -37 65 -26 35 -32 54 -33 94 0 45
-2 50 -23 53 -22 3 -16 12 57 86 86 89 120 148 121 209 0 58 -57 156 -110 189
l-30 18 22 25 c16 19 25 22 35 14 20 -17 40 -4 47 32 8 43 -5 55 -44 39 -18
-8 -35 -9 -40 -4 -5 5 0 57 11 124 22 123 20 193 -4 217 -18 18 -30 13 -86
-39 -47 -44 -51 -45 -77 -17 -24 26 -78 54 -124 64 -23 5 -50 24 -80 56 -88
94 -80 222 -80 -1296z m478 645 c19 0 42 -43 42 -81 0 -27 -9 -50 -32 -80 -37
-47 -151 -139 -174 -139 -21 0 -16 36 15 113 24 60 29 66 41 52 9 -11 16 -13
23 -6 7 7 17 5 30 -6 18 -17 19 -17 12 20 -6 32 -5 36 9 31 21 -8 20 -3 -5 50
-13 25 -19 51 -15 61 6 16 8 17 24 1 10 -9 24 -16 30 -16z m-195 -257 c5 -26
4 -26 -9 -8 -15 21 -19 49 -5 41 5 -3 11 -18 14 -33z m-137 -30 c-10 -10 -19
5 -10 18 6 11 8 11 12 0 2 -7 1 -15 -2 -18z m64 -13 c11 -21 20 -42 20 -45 0
-7 -75 -6 -83 1 -6 6 29 84 38 84 3 0 14 -18 25 -40z m225 -1188 c-6 -23 -8
-24 -16 -9 -7 11 -6 24 2 39 15 28 24 9 14 -30z"/>
<path d="M1992 2008 c-5 -5 -21 -15 -33 -22 -30 -15 -48 -63 -38 -101 10 -38
67 -105 132 -156 60 -48 87 -51 87 -9 0 34 -19 81 -31 74 -4 -2 -18 14 -31 36
-13 22 -26 40 -29 40 -3 0 -12 -12 -20 -27 l-13 -28 -4 33 c-2 20 -9 32 -18
32 -13 0 -13 4 -1 28 30 59 30 131 -1 100z"/>
<path d="M2160 1744 c0 -8 5 -12 10 -9 6 4 8 11 5 16 -9 14 -15 11 -15 -7z"/>
<path d="M2227 1693 c-24 -48 -7 -65 23 -23 19 27 20 34 9 45 -12 12 -17 8
-32 -22z"/>
<path d="M1981 539 c1 -13 4 -36 8 -51 l6 -28 17 29 c16 28 15 30 -8 52 l-24
22 1 -24z"/>
</g>
</svg>
