<?xml version="1.0" standalone="no"?>
<!DOCTYPE svg PUBLIC "-//W3C//DTD SVG 20010904//EN"
 "http://www.w3.org/TR/2001/REC-SVG-20010904/DTD/svg10.dtd">
<svg version="1.0" xmlns="http://www.w3.org/2000/svg"
 width="480.000000pt" height="360.000000pt" viewBox="0 0 480.000000 360.000000"
 preserveAspectRatio="xMidYMid meet">
<metadata>
Created by potrace 1.16, written by Peter Selinger 2001-2019
</metadata>
<rect width="1" height="360" fill="#000000"/>
<rect x="479" width="1" height="360" fill="#000000"/>
<rect width="480" height="1" fill="#000000"/>
<rect y="359" width="480" height="1" fill="#000000"/>
<g transform="translate(0.000000,360.000000) scale(0.100000,-0.100000)"
fill="#000000" stroke="none">
<path d="M0 1800 l0 -1800 2400 0 2400 0 0 1800 0 1800 -2400 0 -2400 0 0
-1800z m1667 861 c17 -9 28 -10 32 -3 16 26 47 4 79 -56 21 -39 44 -68 63 -77
16 -9 29 -21 29 -28 0 -12 227 -233 286 -280 22 -17 24 -17 72 27 87 77 167
91 268 46 83 -36 348 -219 389 -268 69 -83 71 -329 4 -469 -28 -57 -106 -143
-130 -143 -18 0 -8 -30 52 -148 45 -91 64 -120 75 -115 10 4 15 0 14 -8 -7
-45 37 -110 101 -149 47 -30 56 -59 9 -35 -16 8 -31 15 -35 15 -13 0 -3 -49
20 -98 14 -30 25 -60 25 -68 0 -25 -16 -15 -34 22 -20 43 -34 38 -17 -5 7 -16
11 -40 9 -53 -3 -21 -4 -20 -19 12 -40 89 -40 89 -34 42 3 -24 6 -46 8 -50 1
-4 -2 -9 -8 -10 -5 -2 -18 18 -28 45 l-17 48 5 -58 c6 -69 -9 -69 -26 -2 -15
60 -29 48 -22 -20 7 -71 -2 -71 -17 1 -13 60 -26 62 -32 4 -2 -24 -8 -4 -17
62 -12 78 -18 99 -33 104 -19 6 -25 24 -8 24 6 0 10 11 10 25 0 17 -8 29 -25
37 -19 9 -22 14 -15 29 8 13 0 38 -30 100 -22 46 -40 89 -40 96 0 7 -9 30 -21
53 -17 32 -29 42 -62 50 -98 24 -124 34 -172 64 -54 36 -130 106 -185 174 -27
34 -45 45 -80 53 -25 5 -75 21 -112 35 l-68 26 0 66 c1 41 6 74 14 85 13 17
17 16 67 -22 29 -22 56 -38 61 -35 15 9 9 177 -7 198 -8 11 -15 29 -15 40 0
34 -53 108 -115 161 -31 28 -83 74 -115 104 -47 42 -64 52 -83 48 -19 -5 -23
-3 -22 20 0 34 -28 52 -56 35 -18 -12 -20 -11 -17 9 2 18 -7 25 -57 45 -33 12
-78 26 -100 31 l-40 7 50 6 c38 5 45 8 30 14 -11 4 -36 15 -55 23 -49 23 -14
30 47 9 65 -22 64 -14 -2 19 -30 16 -55 34 -55 41 0 14 18 10 83 -21 17 -8 23
-10 13 -3 -10 7 -31 23 -45 35 -23 19 -24 22 -7 23 10 0 33 -8 50 -19 38 -23
76 -35 76 -24 0 5 -20 19 -45 33 -25 14 -45 28 -45 32 0 11 14 10 26 -1 5 -6
26 -17 47 -26 33 -14 37 -14 37 0 0 8 -16 23 -35 32 -19 9 -35 20 -35 25 0 5
14 1 31 -9 17 -10 43 -24 56 -32z"/>
</g>
</svg>
