<?xml version="1.0" standalone="no"?>
<!DOCTYPE svg PUBLIC "-//W3C//DTD SVG 20010904//EN"
 "http://www.w3.org/TR/2001/REC-SVG-20010904/DTD/svg10.dtd">
<svg version="1.0" xmlns="http://www.w3.org/2000/svg"
 width="480.000000pt" height="360.000000pt" viewBox="0 0 480.000000 360.000000"
 preserveAspectRatio="xMidYMid meet">
<metadata>
Created by potrace 1.16, written by Peter Selinger 2001-2019
</metadata>
<rect width="1" height="360" fill="#000000"/>
<rect x="479" width="1" height="360" fill="#000000"/>
<rect width="480" height="1" fill="#000000"/>
<rect y="359" width="480" height="1" fill="#000000"/>
<g transform="translate(0.000000,360.000000) scale(0.100000,-0.100000)"
fill="#000000" stroke="none">
<path d="M0 1800 l0 -1800 870 0 c479 0 870 1 870 3 0 63 116 452 177 595 l44
103 -16 152 c-8 84 -17 162 -20 175 l-5 22 -46 -24 c-69 -37 -78 -29 -90 75
l-7 62 52 -6 c59 -7 55 -18 38 117 l-12 89 -59 -77 c-75 -97 -115 -126 -178
-126 -64 0 -85 22 -152 155 -31 61 -81 141 -111 180 -55 67 -56 71 -53 123 l3
54 -72 18 c-87 23 -140 49 -187 93 -43 41 -45 63 -9 101 l26 29 139 -7 c114
-6 138 -5 138 6 0 8 -5 19 -11 25 -5 5 -18 25 -27 43 -11 23 -29 38 -52 45
-19 7 -41 23 -47 36 -17 33 -16 118 2 169 32 90 13 186 -42 212 -39 18 -42 73
-10 159 22 59 27 64 58 70 19 3 39 8 45 12 6 3 54 9 107 12 l97 6 21 -35 c11
-20 24 -36 27 -36 4 0 16 23 27 52 23 59 70 102 85 78 5 -8 10 -41 10 -73 0
-43 -4 -59 -15 -64 -21 -7 -45 -56 -45 -88 0 -32 16 -65 33 -65 7 0 29 -17 51
-36 38 -36 38 -37 34 -100 -3 -47 -10 -71 -26 -91 -46 -57 -52 -71 -63 -129
-6 -32 -19 -68 -29 -79 -10 -11 -31 -37 -47 -58 -20 -27 -45 -45 -87 -62 -32
-13 -64 -21 -72 -18 -26 10 -13 -12 23 -39 40 -31 49 -33 88 -18 20 8 29 6 45
-10 11 -11 20 -23 20 -27 0 -5 14 -16 30 -25 32 -18 43 -40 66 -128 8 -30 19
-59 23 -63 5 -5 23 18 41 50 25 44 33 68 31 101 -2 40 2 47 65 112 61 64 73
85 35 61 -9 -6 -22 -6 -33 0 -15 8 -18 22 -18 77 0 92 12 107 77 99 l50 -6 26
192 c15 106 32 239 37 297 17 167 55 296 103 349 21 23 21 24 2 16 -41 -17
-68 -11 -75 15 -6 24 -9 25 -67 22 -34 -2 -71 -1 -82 3 -28 9 -36 61 -21 143
14 75 64 230 78 244 6 6 46 -1 108 -20 123 -37 157 -51 264 -110 81 -45 88
-47 155 -44 39 1 76 -1 83 -6 9 -6 37 0 80 19 106 44 233 77 326 85 101 8 96
17 71 -131 -9 -49 -21 -120 -26 -156 -13 -77 -13 -78 -57 -103 l-34 -18 -59
31 c-32 17 -59 28 -59 23 0 -4 14 -27 30 -51 58 -86 78 -229 44 -322 -14 -39
-14 -70 -4 -269 6 -124 15 -228 18 -232 4 -4 26 1 48 11 23 11 53 17 68 14 25
-5 26 -8 26 -73 0 -38 -3 -75 -6 -84 -7 -19 -35 -21 -52 -4 -6 6 -14 9 -17 6
-3 -2 27 -47 66 -98 68 -90 71 -96 66 -139 -3 -36 3 -66 32 -139 40 -105 34
-105 94 -2 20 35 44 61 65 72 18 9 42 24 51 32 17 16 22 16 60 0 41 -16 41
-16 86 14 40 26 56 30 149 37 110 7 176 -4 176 -30 0 -7 3 -20 6 -29 5 -12 -2
-18 -25 -22 -22 -5 -31 -12 -31 -26 0 -18 5 -19 35 -14 31 6 36 4 45 -19 6
-15 10 -28 10 -30 0 -14 -60 -38 -162 -63 -64 -17 -124 -34 -134 -40 -9 -5
-25 -29 -33 -53 -14 -37 -27 -50 -83 -84 -67 -41 -111 -77 -184 -157 -26 -28
-53 -47 -73 -51 -41 -9 -104 17 -135 54 -28 33 -36 36 -36 13 0 -9 -5 -34 -12
-55 -9 -32 -16 -39 -37 -39 -14 0 -35 7 -45 15 -34 26 -43 17 -56 -57 -7 -40
-16 -93 -20 -118 -9 -50 16 -133 93 -304 41 -92 181 -500 193 -561 l6 -35 859
0 859 0 0 1800 0 1800 -2400 0 -2400 0 0 -1800z m3558 769 c59 -202 52 -188
118 -243 63 -52 83 -86 102 -172 12 -56 1 -113 -42 -214 -72 -166 -74 -169
-103 -175 -29 -6 -126 -32 -154 -41 -27 -9 -102 57 -132 116 -23 44 -27 63
-23 98 3 25 1 53 -6 65 -6 12 -22 62 -35 111 -26 100 -21 120 23 91 33 -22 44
-8 36 47 -4 33 -1 43 23 69 16 16 35 29 42 29 8 0 21 17 30 38 8 20 23 48 33
62 9 14 20 46 24 72 4 25 14 52 22 59 8 7 12 19 9 26 -3 9 0 13 7 11 7 -3 19
-24 26 -49z m-2419 -238 c16 -11 6 -51 -14 -51 -16 0 -29 35 -20 50 8 12 16
12 34 1z"/>
<path d="M3631 1601 c-9 -6 -10 -11 -2 -15 13 -8 31 1 31 15 0 11 -11 11 -29
0z"/>
<path d="M2781 1310 c-7 -49 -17 -90 -22 -90 -13 0 -11 -27 2 -35 6 -4 13 -5
15 -2 7 7 27 208 21 213 -2 2 -10 -36 -16 -86z"/>
<path d="M2854 1303 c-12 -99 -11 -128 6 -124 8 2 32 6 53 8 20 3 37 7 37 10
0 7 -80 163 -84 163 -3 0 -8 -26 -12 -57z"/>
<path d="M2746 1103 c-11 -11 -6 -23 9 -23 8 0 15 4 15 9 0 13 -16 22 -24 14z"/>
<path d="M1992 875 c-1 -12 -7 -26 -13 -32 -6 -6 -9 -28 -7 -49 l4 -39 12 29
c7 17 11 48 9 70 -2 23 -4 32 -5 21z"/>
</g>
</svg>
