<?xml version="1.0" standalone="no"?>
<!DOCTYPE svg PUBLIC "-//W3C//DTD SVG 20010904//EN"
 "http://www.w3.org/TR/2001/REC-SVG-20010904/DTD/svg10.dtd">
<svg version="1.0" xmlns="http://www.w3.org/2000/svg"
 width="480.000000pt" height="360.000000pt" viewBox="0 0 480.000000 360.000000"
 preserveAspectRatio="xMidYMid meet">
<metadata>
Created by potrace 1.16, written by Peter Selinger 2001-2019
</metadata>
<rect width="1" height="360" fill="#000000"/>
<rect x="479" width="1" height="360" fill="#000000"/>
<rect width="480" height="1" fill="#000000"/>
<rect y="359" width="480" height="1" fill="#000000"/>
<g transform="translate(0.000000,360.000000) scale(0.100000,-0.100000)"
fill="#000000" stroke="none">
<path d="M1451 3291 c-8 -5 -20 -7 -28 -4 -8 3 -32 -9 -53 -26 -21 -17 -44
-31 -50 -31 -6 0 -18 -16 -26 -36 -14 -33 -16 -35 -28 -19 -18 25 -23 13 -41
-94 -12 -66 -25 -106 -46 -139 -33 -52 -36 -67 -14 -76 12 -4 14 -10 5 -25
-12 -24 -13 -64 -1 -56 11 6 16 -10 27 -75 3 -25 17 -78 31 -117 l24 -73 -35
-112 c-28 -90 -66 -248 -66 -272 0 -2 8 -2 18 1 14 3 24 -8 42 -47 25 -54 58
-93 47 -55 -15 50 -26 113 -26 145 l1 35 13 -41 c15 -47 43 -104 51 -104 4 0
4 14 2 30 -6 38 1 38 38 -1 34 -36 70 -59 59 -37 -3 7 10 -5 29 -27 40 -45 44
-62 19 -80 -17 -12 -17 -15 -1 -47 10 -18 25 -45 35 -60 15 -24 15 -30 3 -53
-8 -15 -29 -33 -47 -40 -70 -30 -233 -217 -233 -268 0 -10 -25 -45 -56 -78
-69 -75 -87 -116 -87 -196 1 -90 50 -162 123 -178 50 -11 70 -51 70 -143 0
-122 -19 -282 -39 -328 -10 -22 -32 -60 -50 -84 -17 -24 -31 -49 -31 -56 0 -8
-15 -31 -34 -52 -39 -43 -42 -56 -32 -132 6 -47 3 -67 -23 -142 -17 -47 -31
-89 -31 -92 0 -3 260 -6 578 -6 l577 0 33 74 c54 119 186 335 190 309 2 -12
-6 -86 -18 -165 -12 -81 -18 -159 -15 -180 l7 -38 204 0 c112 0 204 3 204 6 0
3 -16 24 -36 48 -33 39 -35 48 -40 125 -6 103 5 103 64 0 35 -61 42 -83 42
-126 l0 -53 301 0 302 0 -7 53 c-3 28 -11 153 -16 277 -7 137 -16 245 -25 276
-8 29 -39 85 -69 127 -53 74 -54 78 -55 144 0 37 -5 92 -10 122 -16 78 -14 88
12 87 19 -1 22 4 21 39 0 22 -4 54 -9 72 -7 29 -5 31 14 26 21 -5 21 -5 5 24
-15 26 -16 34 -3 73 16 49 39 65 39 28 0 -13 7 -33 15 -44 13 -17 14 -10 15
77 0 108 4 114 62 99 59 -16 280 -41 408 -47 119 -5 126 -4 153 17 27 22 28
24 21 89 -13 129 -36 148 -369 296 l-160 72 -6 50 c-4 28 -8 110 -10 184 l-4
134 27 3 c35 4 85 61 94 107 11 62 -1 123 -33 163 -44 55 -92 84 -128 79 -18
-3 -42 2 -60 13 -41 25 -187 67 -260 76 -33 3 -73 13 -89 21 -45 23 -162 14
-204 -15 -44 -32 -74 -93 -73 -151 1 -25 2 -61 2 -79 0 -18 -8 -47 -19 -65
-11 -17 -48 -97 -82 -177 -35 -80 -68 -151 -75 -158 -8 -9 -50 -12 -164 -10
l-152 3 34 40 35 40 -2 -37 c-2 -21 -1 -38 1 -38 3 0 25 21 50 48 43 46 44 46
39 17 l-6 -30 18 21 c10 12 29 55 42 95 27 86 39 78 16 -11 -19 -72 -19 -77
-7 -64 19 19 94 221 104 279 9 50 8 70 -5 106 -49 137 -105 241 -176 323 -36
42 -51 70 -55 98 -6 46 -46 110 -82 134 -14 9 -56 28 -93 41 -37 13 -87 37
-112 53 -76 47 -135 63 -240 63 -76 1 -110 -5 -168 -24 -39 -14 -74 -23 -77
-21 -3 3 -5 15 -5 27 0 22 -28 55 -46 55 -5 0 -15 -4 -23 -9z m-144 -208 c-21
-22 -32 -11 -17 17 9 16 15 19 23 11 8 -8 7 -16 -6 -28z m902 -960 c-10 -39
-13 -41 -52 -45 -23 -3 -43 -4 -45 -3 -9 6 41 53 53 49 8 -3 21 6 31 21 22 34
25 28 13 -22z m-734 -93 c10 -11 13 -20 7 -20 -6 0 -16 9 -22 20 -6 11 -9 20
-7 20 2 0 12 -9 22 -20z m983 -365 c6 -6 -9 -45 -17 -45 -7 0 -31 43 -31 56 0
5 41 -5 48 -11z m-366 -745 c26 -27 48 -51 48 -54 0 -5 -102 -186 -177 -314
-31 -51 -57 -91 -60 -88 -8 7 15 130 38 211 39 133 92 295 97 295 3 0 27 -22
54 -50z"/>
</g>
</svg>
