<?xml version="1.0" standalone="no"?>
<!DOCTYPE svg PUBLIC "-//W3C//DTD SVG 20010904//EN"
 "http://www.w3.org/TR/2001/REC-SVG-20010904/DTD/svg10.dtd">
<svg version="1.0" xmlns="http://www.w3.org/2000/svg"
 width="480.000000pt" height="360.000000pt" viewBox="0 0 480.000000 360.000000"
 preserveAspectRatio="xMidYMid meet">
<metadata>
Created by potrace 1.16, written by Peter Selinger 2001-2019
</metadata>
<rect width="1" height="360" fill="#000000"/>
<rect x="479" width="1" height="360" fill="#000000"/>
<rect width="480" height="1" fill="#000000"/>
<rect y="359" width="480" height="1" fill="#000000"/>
<g transform="translate(0.000000,360.000000) scale(0.100000,-0.100000)"
fill="#000000" stroke="none">
<path d="M1605 3423 c0 -247 -20 -351 -112 -568 -103 -241 -316 -472 -563
-605 -103 -56 -290 -122 -400 -140 -137 -23 -408 -15 -513 16 -16 5 -17 -50
-17 -1060 l0 -1066 1334 0 1333 0 17 107 c25 158 60 288 111 420 67 172 100
284 140 471 19 92 47 222 62 290 23 108 25 138 20 245 -5 104 -8 123 -23 132
-10 5 -33 24 -51 42 -26 25 -33 39 -33 70 0 45 26 105 64 150 15 18 36 60 48
95 13 39 36 79 59 105 41 44 47 61 28 80 -13 13 -4 33 17 33 8 0 14 6 14 13 0
9 -12 11 -40 9 -34 -4 -41 -1 -49 20 -5 13 -16 30 -25 37 -9 7 -16 20 -16 28
0 7 -7 16 -15 19 -8 4 -15 12 -15 19 0 7 7 15 15 19 25 9 17 33 -17 46 -40 16
-67 47 -68 78 0 13 -4 20 -10 17 -27 -17 17 115 49 148 5 5 -9 43 -31 84 -41
79 -45 109 -16 127 21 12 245 -42 323 -78 28 -13 69 -29 92 -35 50 -14 133
-77 160 -123 30 -48 51 -122 62 -215 6 -49 20 -102 34 -130 41 -83 50 -135 44
-250 -4 -88 -2 -115 14 -162 43 -124 52 -189 45 -326 l-6 -131 30 -55 c47 -87
64 -169 55 -264 -4 -44 -7 -108 -6 -142 1 -49 -2 -63 -13 -63 -8 0 -17 -15
-20 -35 -9 -46 -21 -37 -40 29 -20 69 -56 87 -56 29 0 -12 -4 -23 -9 -23 -22
0 59 -234 170 -493 85 -197 124 -300 149 -394 l11 -43 429 0 430 0 0 1800 0
1800 -1598 0 -1598 0 1 -177z"/>
</g>
</svg>
