<?xml version="1.0" standalone="no"?>
<!DOCTYPE svg PUBLIC "-//W3C//DTD SVG 20010904//EN"
 "http://www.w3.org/TR/2001/REC-SVG-20010904/DTD/svg10.dtd">
<svg version="1.0" xmlns="http://www.w3.org/2000/svg"
 width="480.000000pt" height="360.000000pt" viewBox="0 0 480.000000 360.000000"
 preserveAspectRatio="xMidYMid meet">
<metadata>
Created by potrace 1.16, written by Peter Selinger 2001-2019
</metadata>
<rect width="1" height="360" fill="#000000"/>
<rect x="479" width="1" height="360" fill="#000000"/>
<rect width="480" height="1" fill="#000000"/>
<rect y="359" width="480" height="1" fill="#000000"/>
<g transform="translate(0.000000,360.000000) scale(0.100000,-0.100000)"
fill="#000000" stroke="none">
<path d="M0 1800 l0 -1800 2400 0 2400 0 0 1800 0 1800 -1788 0 -1789 0 -11
-122 c-75 -785 -2 -1748 184 -2458 59 -225 153 -495 210 -607 46 -90 51 -105
34 -100 -12 3 -23 -1 -28 -10 -21 -36 -213 96 -365 252 -222 227 -446 579
-606 955 -18 41 -39 89 -46 105 -71 158 -193 536 -260 805 -98 389 -145 653
-185 1035 -17 156 -10 145 -85 145 l-65 0 0 -1800z"/>
</g>
</svg>
