<?xml version="1.0" standalone="no"?>
<!DOCTYPE svg PUBLIC "-//W3C//DTD SVG 20010904//EN"
 "http://www.w3.org/TR/2001/REC-SVG-20010904/DTD/svg10.dtd">
<svg version="1.0" xmlns="http://www.w3.org/2000/svg"
 width="480.000000pt" height="360.000000pt" viewBox="0 0 480.000000 360.000000"
 preserveAspectRatio="xMidYMid meet">
<metadata>
Created by potrace 1.16, written by Peter Selinger 2001-2019
</metadata>
<rect width="1" height="360" fill="#000000"/>
<rect x="479" width="1" height="360" fill="#000000"/>
<rect width="480" height="1" fill="#000000"/>
<rect y="359" width="480" height="1" fill="#000000"/>
<g transform="translate(0.000000,360.000000) scale(0.100000,-0.100000)"
fill="#000000" stroke="none">
<path d="M2593 3203 c-19 -7 -16 -29 7 -44 11 -8 26 -31 35 -51 l15 -37 -53
-39 c-102 -76 -139 -132 -158 -236 -7 -42 -15 -66 -23 -63 -37 14 -55 17 -59
10 -11 -17 25 -71 59 -89 19 -10 34 -23 34 -28 0 -43 -140 -174 -196 -183 -20
-3 -38 -12 -41 -19 -7 -18 15 -54 33 -54 8 0 17 -7 20 -15 8 -21 12 -20 79 20
74 45 90 40 100 -28 5 -37 9 -47 14 -33 6 16 13 9 39 -37 29 -52 43 -62 78
-58 24 3 22 -364 -2 -444 -6 -17 -33 -54 -72 -98 -19 -22 -297 -174 -422 -231
-41 -19 -104 -51 -140 -72 -97 -54 -203 -111 -312 -165 -59 -29 -98 -54 -98
-63 0 -9 -12 -23 -26 -33 -14 -9 -38 -35 -52 -57 -21 -33 -27 -54 -27 -106 -1
-58 -7 -78 -58 -184 -74 -154 -85 -190 -64 -210 15 -15 47 -12 47 3 0 4 24 39
53 78 28 39 78 111 111 158 41 61 61 83 66 74 4 -8 29 -113 55 -234 26 -121
47 -221 48 -222 23 -20 89 44 243 233 27 33 78 96 113 140 111 136 181 203
253 240 37 19 70 34 73 34 2 0 14 -18 26 -41 11 -23 39 -61 61 -85 40 -43 40
-45 36 -106 -3 -44 -15 -84 -38 -133 -28 -60 -34 -86 -41 -180 -4 -60 -8 -119
-8 -130 -1 -13 10 -25 29 -33 36 -17 37 -27 5 -74 -14 -20 -25 -43 -25 -50 0
-20 21 -38 43 -38 17 0 18 -6 12 -67 -3 -38 -9 -80 -11 -96 l-6 -27 525 0 525
0 7 23 8 22 4 -22 c4 -23 7 -23 151 -23 l147 0 -1 202 c-1 112 2 219 7 239 5
20 11 101 14 180 l5 144 -41 150 c-23 83 -77 249 -121 370 -44 121 -80 227
-80 235 -1 8 6 39 15 69 9 30 16 55 14 56 -1 1 -17 8 -35 17 l-33 15 0 332 c0
183 2 336 6 339 4 4 19 -8 34 -27 l28 -34 21 24 c29 31 28 44 -7 58 -41 18
-97 80 -111 125 -10 31 -10 53 0 112 24 138 -1 220 -97 324 -99 108 -185 146
-406 182 -108 18 -140 20 -191 11 -33 -6 -68 -14 -76 -17 -12 -5 -19 3 -29 29
-20 55 -88 89 -138 68z m-89 -2618 c-9 -19 -20 -58 -25 -87 -7 -45 -8 -40 -4
33 2 51 11 103 22 130 l18 44 3 -42 c2 -25 -4 -57 -14 -78z"/>
</g>
</svg>
