<?xml version="1.0" standalone="no"?>
<!DOCTYPE svg PUBLIC "-//W3C//DTD SVG 20010904//EN"
 "http://www.w3.org/TR/2001/REC-SVG-20010904/DTD/svg10.dtd">
<svg version="1.0" xmlns="http://www.w3.org/2000/svg"
 width="480.000000pt" height="360.000000pt" viewBox="0 0 480.000000 360.000000"
 preserveAspectRatio="xMidYMid meet">
<metadata>
Created by potrace 1.16, written by Peter Selinger 2001-2019
</metadata>
<rect width="1" height="360" fill="#000000"/>
<rect x="479" width="1" height="360" fill="#000000"/>
<rect width="480" height="1" fill="#000000"/>
<rect y="359" width="480" height="1" fill="#000000"/>
<g transform="translate(0.000000,360.000000) scale(0.100000,-0.100000)"
fill="#000000" stroke="none">
<path d="M2617 2816 c-6 -15 -10 -16 -22 -6 -10 8 -15 9 -15 2 0 -6 5 -14 11
-17 6 -5 4 -12 -8 -21 -17 -12 -17 -13 0 -14 9 0 17 -6 17 -13 0 -17 -77 -99
-107 -116 -28 -14 -29 -32 -4 -55 13 -12 21 -36 25 -74 3 -31 6 -61 6 -67 1
-5 0 -33 0 -61 -2 -41 -8 -58 -30 -83 -32 -34 -31 -43 9 -138 16 -36 31 -55
52 -63 22 -10 32 -23 43 -60 8 -27 12 -57 10 -67 -3 -11 2 -25 10 -32 22 -18
20 -25 -13 -63 -16 -19 -46 -69 -66 -113 -54 -115 -98 -180 -175 -260 -76 -79
-86 -101 -70 -150 8 -25 22 -39 54 -54 23 -12 49 -21 57 -21 27 0 28 -11 2
-68 -14 -33 -30 -96 -37 -152 -7 -52 -18 -106 -25 -119 -7 -12 -10 -32 -7 -44
3 -11 -1 -48 -9 -81 -21 -86 -19 -159 3 -179 17 -16 134 -47 176 -47 12 0 30
-6 40 -13 18 -13 18 -15 1 -40 -42 -64 16 -100 255 -157 67 -16 100 -29 126
-49 17 -14 41 -21 69 -21 47 0 78 -25 89 -74 6 -24 11 -28 34 -23 46 9 83 27
78 36 -3 5 -28 14 -55 21 -56 13 -81 41 -81 89 0 26 7 34 40 51 22 11 40 24
40 29 0 8 -89 51 -105 51 -4 0 -31 16 -60 36 -54 35 -54 36 -52 83 3 59 -36
124 -87 145 -28 12 -35 21 -41 55 -4 27 -3 47 5 56 8 9 9 29 5 53 -4 26 0 60
11 98 12 43 15 79 11 138 -5 69 -3 83 15 106 11 15 29 67 40 116 26 117 22
383 -7 452 -17 41 -17 46 -1 78 10 21 14 49 11 72 -2 20 -7 67 -10 105 -5 66
-5 67 19 67 13 0 45 -9 71 -20 61 -26 77 -25 105 5 22 24 23 28 11 58 -24 60
-24 63 13 88 67 45 88 138 41 184 -34 35 -68 32 -106 -10 -26 -28 -37 -33 -58
-29 -14 4 -31 13 -37 20 -6 8 -25 17 -41 20 -24 5 -33 1 -46 -20 -10 -14 -22
-26 -27 -26 -13 0 -13 57 0 65 15 9 12 52 -5 86 -14 27 -14 32 0 51 8 13 15
30 15 40 0 24 -47 55 -62 40 -7 -7 -25 0 -60 26 -42 30 -48 37 -35 47 13 9 11
13 -13 24 -16 6 -30 20 -32 29 -3 15 -4 15 -11 -2z m21 -1601 c40 -7 76 -16
79 -19 8 -8 9 -237 1 -331 -8 -101 -9 -103 -86 -109 -37 -4 -94 -10 -126 -16
-32 -5 -62 -7 -67 -5 -4 3 -15 28 -24 55 -15 47 -16 53 -1 75 9 13 16 39 16
56 0 36 49 200 82 272 16 35 26 46 37 41 9 -3 49 -12 89 -19z m350 -761 c12
-4 22 -13 22 -20 0 -8 -10 -19 -22 -24 -13 -6 -31 -15 -40 -22 -14 -10 -21 -8
-42 17 -19 22 -22 32 -14 42 11 14 57 17 96 7z"/>
<path d="M2650 2809 c0 -5 5 -7 10 -4 6 3 10 8 10 11 0 2 -4 4 -10 4 -5 0 -10
-5 -10 -11z"/>
<path d="M1218 2751 c-9 -13 -21 -20 -27 -16 -7 4 -11 -5 -11 -25 0 -43 -13
-64 -57 -91 -21 -12 -48 -31 -60 -42 -20 -18 -26 -19 -50 -8 -23 11 -29 10
-39 -3 -9 -13 -7 -25 8 -56 19 -38 19 -42 4 -80 -22 -55 -20 -73 8 -99 16 -15
27 -39 31 -72 6 -43 11 -50 42 -66 46 -23 47 -36 3 -47 -56 -13 -68 -38 -74
-157 -8 -152 -15 -171 -89 -224 -34 -25 -77 -55 -94 -68 -49 -36 -144 -43
-222 -17 -140 47 -166 59 -183 90 -21 38 -27 38 -240 3 l-168 -28 0 -65 0 -65
148 -62 c81 -34 276 -118 435 -186 269 -116 290 -124 330 -117 23 5 43 7 45 5
2 -1 -8 -14 -22 -28 -14 -15 -26 -30 -26 -35 0 -19 61 -92 90 -107 30 -16 36
-29 43 -100 3 -22 19 -78 37 -125 19 -47 35 -107 38 -135 2 -27 11 -59 19 -72
17 -26 7 -47 -29 -59 -60 -19 -168 -120 -153 -144 3 -6 28 -10 56 -10 27 0 49
-2 49 -5 0 -4 -7 -20 -16 -37 -15 -29 -15 -53 1 -90 5 -13 1 -20 -17 -27 -14
-5 -67 -30 -118 -55 -145 -71 -139 -71 -272 20 -165 113 -170 117 -201 142
-16 12 -39 22 -52 22 -27 0 -364 -115 -378 -129 -28 -28 21 -79 240 -254 20
-16 50 -18 360 -18 186 0 342 0 348 1 5 0 4 5 -3 12 -41 41 29 53 73 12 27
-25 29 -25 165 -22 137 3 139 3 177 34 21 16 47 49 59 73 18 36 32 48 104 85
96 49 131 85 110 111 -18 22 -113 69 -172 85 -33 8 -48 18 -48 29 0 9 -7 26
-15 38 -13 19 -16 37 -15 112 0 13 -4 29 -9 35 -5 6 -16 40 -25 76 -15 68 -41
131 -76 191 l-22 36 36 56 c37 57 42 61 119 71 21 3 52 12 70 22 18 9 48 25
68 35 20 10 49 33 64 50 31 38 28 64 -14 118 -40 51 -84 133 -125 229 -19 46
-51 101 -71 123 l-37 41 21 22 c20 21 20 25 7 63 -8 22 -24 88 -35 146 -17 81
-19 110 -11 129 9 20 7 31 -13 67 l-25 44 29 40 c33 45 37 96 18 188 -10 46
-9 54 10 80 27 36 26 39 -4 39 -18 0 -23 4 -19 15 4 8 2 15 -3 15 -5 0 -21 17
-34 38 -24 36 -25 40 -10 70 14 31 14 33 -18 66 -17 18 -35 46 -40 61 l-7 29
-16 -23z m-153 -1018 c-28 -20 -41 -16 -20 7 10 11 22 17 28 13 6 -4 3 -12 -8
-20z m35 -127 c0 -10 -24 -73 -32 -83 -7 -9 -16 -9 -39 1 -17 7 -30 17 -29 22
2 17 100 76 100 60z m174 -1098 c33 -47 17 -65 -59 -71 -40 -3 -43 22 -6 61
35 38 45 39 65 10z m-233 -309 c35 -25 36 -39 4 -69 -22 -20 -35 -23 -112 -24
-80 -1 -88 1 -88 18 0 14 21 30 75 57 41 22 79 39 83 39 5 0 22 -9 38 -21z"/>
<path d="M4025 2670 c17 -18 17 -21 1 -46 -14 -21 -23 -24 -44 -19 -21 5 -24
4 -14 -8 10 -12 2 -22 -45 -57 -32 -24 -68 -53 -81 -66 -19 -20 -26 -22 -42
-12 -14 9 -22 10 -31 1 -8 -8 -3 -22 20 -53 25 -35 29 -46 19 -63 -13 -24 -3
-164 13 -201 7 -14 17 -22 24 -20 7 3 16 1 19 -5 7 -11 -96 -26 -120 -17 -10
4 -25 -1 -36 -10 -10 -10 -33 -19 -50 -21 -18 -2 -37 -8 -42 -13 -11 -11 -106
-13 -154 -4 -21 4 -34 15 -42 34 -6 15 -24 40 -40 55 l-29 28 -52 -19 c-29
-10 -60 -30 -70 -44 -19 -25 -29 -65 -18 -65 4 0 16 -8 26 -17 13 -12 33 -17
58 -15 37 2 41 -1 83 -60 27 -40 53 -65 69 -69 22 -6 136 19 184 40 13 6 17 2
17 -16 1 -70 11 -130 26 -153 17 -26 17 -27 -3 -32 -21 -5 -21 -6 4 -30 20
-21 27 -23 40 -13 8 7 15 21 15 31 0 37 30 18 47 -30 12 -32 10 -36 -15 -66
-16 -17 -52 -70 -81 -117 -28 -47 -86 -125 -127 -173 -103 -120 -113 -150 -68
-205 17 -19 67 -50 133 -81 58 -28 113 -54 121 -58 25 -13 23 -51 -4 -105 -16
-33 -28 -76 -32 -121 -3 -38 -12 -86 -19 -105 -8 -23 -10 -42 -4 -52 6 -10 3
-26 -6 -46 -13 -25 -24 -31 -78 -42 -72 -14 -97 -32 -97 -71 0 -36 37 -66 134
-110 42 -19 76 -40 76 -47 0 -9 -7 -11 -22 -6 -13 4 -57 15 -98 24 -74 16 -76
16 -150 -7 -76 -24 -139 -70 -126 -92 4 -5 23 -13 42 -17 31 -6 39 -3 63 23
15 16 48 38 75 48 42 16 53 17 98 5 28 -7 79 -25 113 -41 49 -22 65 -35 73
-59 6 -16 16 -30 21 -30 20 0 11 -20 -12 -31 -27 -12 -61 -64 -52 -79 8 -13
268 -13 281 0 6 6 23 6 49 -1 46 -13 117 -7 170 15 29 12 35 20 30 35 -3 11
-1 22 5 26 23 14 10 54 -27 80 -21 14 -43 25 -49 25 -16 0 -44 34 -44 53 0 9
20 36 45 60 25 25 45 49 45 55 0 26 -52 68 -105 86 -31 11 -65 31 -75 44 -25
31 -36 90 -21 105 6 6 11 23 11 38 0 16 10 45 23 66 18 31 23 58 27 147 l5
110 35 9 c19 5 44 20 56 35 20 24 20 29 7 79 -7 29 -27 86 -42 126 -16 39 -39
128 -51 195 -12 68 -26 136 -32 150 -14 34 -11 64 9 79 14 11 14 18 3 57 -18
65 -5 153 27 186 22 21 24 32 21 72 l-5 48 99 0 c75 0 99 3 96 13 -9 25 -54
37 -143 37 -91 0 -144 17 -129 42 4 6 9 6 15 -3 21 -35 99 92 99 162 0 24 -5
57 -12 75 -10 29 -9 36 15 68 15 19 27 37 27 39 0 7 -22 3 -37 -6 -7 -5 -17 1
-24 15 -6 13 -34 49 -61 81 -47 54 -49 59 -34 76 29 32 15 91 -23 91 -11 0
-10 -4 4 -20z m183 -647 c-15 -2 -42 -2 -60 0 -18 2 -6 4 27 4 33 0 48 -2 33
-4z m-688 -12 c0 -12 -29 -23 -41 -15 -18 10 -9 24 16 24 14 0 25 -4 25 -9z
m434 -1069 c25 -88 27 -129 11 -197 -8 -38 -18 -81 -21 -95 -3 -14 -12 -38
-19 -55 -7 -16 -11 -43 -8 -59 l6 -28 -73 5 c-88 6 -101 16 -77 58 9 17 17 45
17 64 0 18 18 84 41 146 23 63 45 128 50 144 7 24 15 30 38 32 21 1 31 -3 35
-15z"/>
</g>
</svg>
