<?xml version="1.0" standalone="no"?>
<!DOCTYPE svg PUBLIC "-//W3C//DTD SVG 20010904//EN"
 "http://www.w3.org/TR/2001/REC-SVG-20010904/DTD/svg10.dtd">
<svg version="1.0" xmlns="http://www.w3.org/2000/svg"
 width="480.000000pt" height="360.000000pt" viewBox="0 0 480.000000 360.000000"
 preserveAspectRatio="xMidYMid meet">
<metadata>
Created by potrace 1.16, written by Peter Selinger 2001-2019
</metadata>
<rect width="1" height="360" fill="#000000"/>
<rect x="479" width="1" height="360" fill="#000000"/>
<rect width="480" height="1" fill="#000000"/>
<rect y="359" width="480" height="1" fill="#000000"/>
<g transform="translate(0.000000,360.000000) scale(0.100000,-0.100000)"
fill="#000000" stroke="none">
<path d="M0 1800 l0 -1800 869 0 869 0 8 33 c7 32 204 655 219 692 14 34 -3
12 -93 -121 -49 -72 -95 -130 -106 -132 -30 -6 -64 36 -76 95 -9 43 -14 52
-25 43 -7 -6 -16 -22 -19 -35 -4 -14 -13 -25 -21 -25 -15 0 -18 10 -16 40 0 8
-7 0 -16 -17 -9 -18 -23 -33 -30 -33 -18 0 -16 34 3 71 8 17 13 33 10 36 -3 4
-17 -19 -32 -50 -14 -32 -29 -57 -34 -57 -18 0 -19 34 0 72 28 59 17 58 -25
-1 -35 -49 -55 -63 -55 -41 0 14 48 108 72 143 22 31 18 47 -7 27 -12 -10 -19
-10 -27 -2 -17 17 7 40 78 72 46 20 63 33 62 47 -1 14 104 163 243 343 11 14
27 50 35 80 8 30 22 75 30 99 17 54 18 85 2 110 -9 15 -9 28 0 59 14 47 15 92
2 112 -7 12 -12 8 -21 -17 -6 -18 -15 -31 -19 -28 -12 8 -1 72 21 124 11 24
19 45 19 47 0 2 -16 -6 -35 -18 -20 -11 -38 -18 -41 -15 -10 10 15 46 51 73
19 14 43 40 53 58 22 35 66 250 57 273 -3 9 0 42 6 75 7 32 9 61 5 65 -3 4
-16 -3 -29 -15 -32 -30 -40 -28 -69 16 -26 41 -38 68 -64 154 -19 66 -9 108
31 126 46 21 147 35 214 29 45 -4 72 -2 80 6 16 16 201 23 211 8 5 -9 23 -8
71 5 75 21 223 23 268 4 17 -6 33 -20 35 -29 7 -20 -28 -159 -43 -174 -6 -6
-11 -19 -11 -29 0 -9 -6 -21 -12 -25 -7 -4 -18 -17 -24 -28 -6 -11 -21 -21
-32 -23 -20 -3 -21 -5 -8 -35 27 -66 29 -152 2 -147 -4 0 -21 -17 -37 -40 -28
-38 -30 -49 -36 -153 l-6 -113 41 -18 c58 -26 87 -60 88 -104 1 -46 23 -290
32 -357 l7 -51 155 -134 c100 -86 155 -140 155 -153 0 -14 15 -25 53 -41 61
-25 103 -57 83 -64 -7 -2 -24 1 -37 9 -42 22 -38 2 12 -61 27 -34 56 -72 64
-85 27 -45 0 -39 -50 10 -53 52 -67 54 -25 3 14 -16 25 -36 25 -44 0 -26 -25
-13 -60 31 -19 24 -36 42 -38 40 -3 -3 7 -20 22 -39 14 -19 26 -39 26 -45 0
-21 -27 -10 -49 20 -13 17 -25 28 -28 25 -3 -3 0 -13 7 -21 9 -11 10 -19 3
-26 -9 -9 -56 34 -111 105 -12 16 -25 26 -28 23 -4 -4 -13 -58 -20 -122 -16
-140 -29 -191 -51 -204 -15 -8 -11 -27 40 -188 32 -99 65 -216 75 -261 l17
-82 917 0 918 0 0 1800 0 1800 -2400 0 -2400 0 0 -1800z"/>
</g>
</svg>
