<?xml version="1.0" standalone="no"?>
<!DOCTYPE svg PUBLIC "-//W3C//DTD SVG 20010904//EN"
 "http://www.w3.org/TR/2001/REC-SVG-20010904/DTD/svg10.dtd">
<svg version="1.0" xmlns="http://www.w3.org/2000/svg"
 width="480.000000pt" height="360.000000pt" viewBox="0 0 480.000000 360.000000"
 preserveAspectRatio="xMidYMid meet">
<metadata>
Created by potrace 1.16, written by Peter Selinger 2001-2019
</metadata>
<rect width="1" height="360" fill="#000000"/>
<rect x="479" width="1" height="360" fill="#000000"/>
<rect width="480" height="1" fill="#000000"/>
<rect y="359" width="480" height="1" fill="#000000"/>
<g transform="translate(0.000000,360.000000) scale(0.100000,-0.100000)"
fill="#000000" stroke="none">
<path d="M1700 3552 c0 -60 31 -186 61 -244 12 -24 60 -81 106 -127 46 -46 83
-85 81 -87 -2 -1 -21 1 -43 6 -22 5 -62 10 -90 10 -27 0 -87 9 -132 21 -95 25
-101 23 -130 -46 -12 -30 -25 -46 -42 -50 -35 -9 -149 -78 -156 -94 -8 -20 23
-64 41 -57 22 9 59 -58 89 -162 29 -102 29 -127 -4 -211 -11 -30 -19 -57 -16
-59 2 -3 18 1 35 8 17 7 33 10 36 7 3 -3 0 -39 -6 -80 -11 -65 -10 -78 5 -110
19 -41 13 -116 -13 -156 -21 -31 -29 -184 -12 -216 16 -29 8 -138 -11 -162
-19 -22 -26 -233 -9 -233 17 0 5 -128 -16 -169 -8 -16 -17 -71 -21 -123 -5
-76 -3 -97 9 -109 13 -12 14 -26 6 -75 -5 -32 -16 -72 -24 -87 -23 -41 -41
-213 -25 -238 16 -27 4 -132 -19 -162 -33 -42 -46 -207 -20 -242 10 -12 -11
-122 -28 -153 -7 -12 -15 -51 -19 -87 l-6 -65 27 0 c23 0 26 4 26 34 0 29 4
36 31 45 18 6 34 11 35 11 2 0 4 -20 4 -45 0 -42 2 -45 26 -45 25 0 25 1 23
63 -1 35 -8 69 -15 78 -11 12 -12 27 -3 75 6 32 15 64 20 70 13 16 39 141 39
191 0 23 -5 45 -11 49 -18 11 -2 131 21 162 33 47 46 213 19 248 -12 15 6 155
21 164 30 18 43 227 15 250 -19 16 -9 137 14 163 22 26 30 234 10 242 -10 4
-13 22 -11 70 2 37 8 63 13 59 5 -3 21 -27 34 -54 39 -78 163 -217 403 -457
123 -122 222 -226 220 -230 -20 -46 -59 -94 -86 -107 -22 -11 -39 -30 -52 -59
-10 -23 -30 -57 -44 -75 -13 -19 -27 -53 -31 -75 -4 -23 -47 -123 -95 -222
-128 -259 -181 -433 -172 -562 l3 -43 776 0 775 0 -7 143 c-3 78 -10 178 -16
222 -13 111 -11 182 6 320 20 152 21 155 56 162 16 3 32 10 35 14 3 5 13 9 24
9 10 0 21 7 24 16 4 10 13 13 26 9 15 -5 33 3 65 29 24 20 48 36 53 36 33 0
241 200 299 288 61 92 69 126 54 229 -16 117 -46 190 -93 234 -49 46 -43 62
30 89 32 11 98 37 148 56 l90 35 80 -54 c63 -44 93 -58 144 -67 35 -6 76 -20
91 -31 26 -19 59 -26 59 -12 0 15 -90 120 -149 174 -74 66 -65 74 31 29 59
-28 108 -39 108 -23 0 4 -11 18 -24 32 -13 15 -26 39 -28 55 -3 29 -1 31 74
55 43 15 78 31 78 37 0 16 -61 41 -128 54 -48 8 -82 7 -163 -5 -56 -8 -132
-15 -168 -15 -35 0 -90 -6 -120 -14 -31 -8 -87 -22 -126 -32 -38 -9 -83 -23
-99 -32 -27 -13 -118 -13 -131 0 -3 2 4 22 14 44 14 28 32 45 65 62 53 25 103
94 113 154 6 43 20 57 60 64 131 21 200 106 177 217 -8 37 -13 42 -47 50 -43
10 -56 4 -37 -18 7 -9 11 -17 9 -19 -2 -2 -48 -27 -102 -56 -85 -45 -102 -51
-122 -42 -19 9 -28 8 -39 -4 -8 -8 -13 -21 -10 -29 8 -20 -146 -96 -170 -83
-50 28 -118 -4 -131 -61 -3 -15 -15 -32 -26 -39 -19 -12 -29 -8 -95 38 -119
83 -197 115 -279 116 -38 1 -119 4 -180 8 -60 3 -104 3 -97 0 20 -9 14 -21
-15 -29 l-28 -8 25 -7 c23 -6 23 -7 5 -12 -11 -4 -37 -9 -57 -13 -37 -6 -54
-25 -22 -25 10 0 -8 -28 -50 -79 -62 -74 -79 -100 -56 -86 6 3 10 2 10 -4 0
-5 -4 -13 -10 -16 -17 -11 -11 -23 10 -18 17 5 18 2 10 -28 -13 -43 -12 -52 0
-44 14 9 13 -8 -2 -23 -17 -17 -38 -15 -83 8 -22 11 -45 20 -52 20 -15 0 -27
-42 -20 -70 4 -15 -4 -27 -28 -46 -27 -21 -35 -34 -37 -67 -2 -33 -8 -44 -31
-56 -17 -10 -35 -32 -44 -56 -27 -70 -27 -97 -1 -135 13 -19 41 -59 61 -89 20
-29 37 -58 37 -64 0 -6 -51 41 -112 104 -140 142 -298 280 -365 317 -9 6 -17
41 -24 108 -5 54 -26 178 -45 275 -18 96 -34 183 -34 192 0 12 8 17 26 17 14
0 24 3 22 8 -1 4 -23 40 -47 79 -24 40 -41 79 -38 87 3 7 19 16 36 19 18 4 31
13 31 22 0 32 28 14 35 -22 3 -21 17 -60 29 -88 55 -118 129 -182 271 -233 79
-28 80 -29 93 -73 7 -24 18 -61 24 -82 15 -51 31 -62 53 -37 10 11 28 20 39
20 36 0 43 12 52 89 l9 75 75 44 c41 24 92 60 113 80 97 93 142 275 102 409
-8 28 -35 77 -58 110 -58 78 -58 120 -2 195 82 111 115 204 115 329 l0 59
-555 0 -555 0 0 -48z m-188 -643 c-2 -19 -5 -36 -7 -37 -5 -5 -75 21 -75 28 0
10 65 50 75 47 5 -2 8 -19 7 -38z m2279 -667 c-12 -22 -51 -58 -51 -47 0 9 50
65 57 65 2 0 -1 -8 -6 -18z m-2214 -174 c6 -7 13 -27 16 -44 3 -18 9 -44 13
-59 7 -28 6 -28 -16 -12 -12 8 -29 13 -38 10 -13 -5 -14 1 -9 42 4 26 7 54 7
61 0 17 14 18 27 2z m-6 -285 c-8 -14 -10 -5 -11 38 0 31 3 59 8 63 11 12 14
-82 3 -101z m29 -147 c0 -65 -7 -75 -47 -69 -30 5 -33 9 -33 38 0 18 3 46 6
62 5 26 9 28 40 25 34 -4 34 -4 34 -56z m-40 -193 c0 -27 -5 -55 -10 -63 -7
-11 -10 3 -10 48 0 35 4 62 10 62 6 0 10 -21 10 -47z m20 -202 c0 -72 -6 -81
-51 -81 l-40 0 6 53 c9 75 11 77 50 77 l35 0 0 -49z m-46 -183 c-11 -78 -16
-98 -25 -98 -8 0 -6 46 7 108 6 29 22 20 18 -10z m9 -221 c-9 -81 -9 -82 -50
-82 l-38 0 3 45 c5 69 10 78 45 82 44 5 46 3 40 -45z m-58 -221 c-4 -31 -12
-56 -17 -56 -10 0 -3 94 9 113 11 18 14 -4 8 -57z m1 -231 c-3 -11 -13 -21
-23 -21 -10 -1 -26 -4 -35 -9 -15 -6 -18 -2 -18 31 0 62 9 84 36 84 12 0 26 6
31 13 9 14 17 -66 9 -98z m-55 -202 c-8 -14 -10 -8 -11 28 0 25 3 49 8 53 11
12 14 -62 3 -81z"/>
</g>
</svg>
