<?xml version="1.0" standalone="no"?>
<!DOCTYPE svg PUBLIC "-//W3C//DTD SVG 20010904//EN"
 "http://www.w3.org/TR/2001/REC-SVG-20010904/DTD/svg10.dtd">
<svg version="1.0" xmlns="http://www.w3.org/2000/svg"
 width="480.000000pt" height="360.000000pt" viewBox="0 0 480.000000 360.000000"
 preserveAspectRatio="xMidYMid meet">
<metadata>
Created by potrace 1.16, written by Peter Selinger 2001-2019
</metadata>
<rect width="1" height="360" fill="#000000"/>
<rect x="479" width="1" height="360" fill="#000000"/>
<rect width="480" height="1" fill="#000000"/>
<rect y="359" width="480" height="1" fill="#000000"/>
<g transform="translate(0.000000,360.000000) scale(0.100000,-0.100000)"
fill="#000000" stroke="none">
<path d="M0 1800 l0 -1800 880 0 880 0 0 50 c0 44 -3 50 -21 50 -32 0 -53 15
-85 62 -35 53 -53 67 -80 68 -33 0 -44 20 -44 79 0 43 -5 60 -23 80 -13 15
-29 49 -36 77 -10 44 -10 57 5 95 19 46 140 253 204 349 40 59 120 202 120
214 0 4 -4 5 -9 2 -5 -3 -16 13 -25 36 -17 41 -17 41 12 82 36 51 102 182 102
203 0 13 -3 13 -15 3 -35 -29 -84 42 -85 125 -1 31 -20 113 -32 130 -3 6 -9
27 -13 48 -4 21 -13 41 -20 44 -15 5 -55 93 -55 120 0 10 10 52 21 93 11 41
22 88 24 103 5 45 59 145 121 227 54 71 117 177 158 265 11 22 30 56 43 75 26
38 28 50 12 50 -19 0 -71 42 -62 50 4 5 30 5 57 0 53 -8 51 -9 154 88 16 14
24 14 74 3 29 -7 40 -5 50 6 11 14 13 13 18 -7 9 -37 53 -46 90 -20 16 12 30
17 30 12 0 -5 -10 -17 -22 -26 -16 -12 -19 -18 -10 -22 36 -16 72 -57 72 -84
0 -15 9 -39 20 -53 14 -18 19 -34 14 -51 -4 -18 -1 -26 13 -30 10 -4 29 -16
42 -27 31 -26 14 -40 -35 -29 -29 7 -34 5 -34 -11 0 -10 -4 -19 -9 -19 -5 0
-12 -9 -16 -19 -7 -23 -55 -38 -65 -21 -13 21 -23 -8 -16 -46 6 -29 4 -34 -12
-34 -21 0 -32 -25 -32 -72 0 -19 12 -36 44 -62 23 -20 48 -36 53 -36 20 0 72
-70 79 -105 3 -19 10 -38 15 -41 5 -3 9 -13 9 -23 0 -11 14 -49 31 -85 39 -82
36 -108 -20 -200 -23 -36 -41 -75 -41 -87 0 -23 -34 -94 -50 -104 -16 -10 -2
-66 45 -190 23 -60 54 -155 69 -210 15 -55 34 -117 42 -138 17 -46 17 -48 2
-44 -7 1 -14 -8 -16 -21 -3 -18 1 -22 19 -20 18 3 25 -5 37 -41 13 -40 13 -45
-2 -53 -11 -6 -14 -14 -7 -26 5 -9 30 -77 56 -151 25 -73 57 -158 71 -188 30
-69 30 -81 -1 -93 -24 -9 -24 -10 -10 -44 21 -49 19 -57 -9 -50 -15 3 -27 1
-33 -8 -23 -37 -38 -39 -106 -17 -60 20 -66 20 -96 5 l-31 -17 0 -102 c1 -71
5 -108 15 -120 7 -11 11 -25 8 -33 -4 -12 160 -14 1131 -14 l1136 0 0 1800 0
1800 -2400 0 -2400 0 0 -1800z"/>
<path d="M2399 1863 c-1 -62 -2 -117 -3 -123 -1 -5 4 -10 9 -11 9 -1 75 144
75 165 0 5 -18 26 -40 46 l-40 37 -1 -114z"/>
<path d="M2007 1875 c-4 -16 -11 -58 -15 -93 -8 -60 -3 -80 17 -68 13 9 22
116 13 156 l-9 35 -6 -30z"/>
<path d="M1826 1231 c-4 -7 -5 -15 -2 -18 9 -9 19 4 14 18 -4 11 -6 11 -12 0z"/>
<path d="M2224 207 c-23 -12 -65 -35 -95 -51 -47 -25 -61 -28 -115 -23 l-62 5
-16 -64 c-9 -35 -16 -66 -16 -69 0 -3 95 -5 210 -5 l210 0 0 24 c0 13 4 26 10
28 7 2 6 33 -1 91 l-12 87 -36 -1 c-20 0 -55 -10 -77 -22z"/>
</g>
</svg>
