<?xml version="1.0" standalone="no"?>
<!DOCTYPE svg PUBLIC "-//W3C//DTD SVG 20010904//EN"
 "http://www.w3.org/TR/2001/REC-SVG-20010904/DTD/svg10.dtd">
<svg version="1.0" xmlns="http://www.w3.org/2000/svg"
 width="480.000000pt" height="360.000000pt" viewBox="0 0 480.000000 360.000000"
 preserveAspectRatio="xMidYMid meet">
<metadata>
Created by potrace 1.16, written by Peter Selinger 2001-2019
</metadata>
<rect width="1" height="360" fill="#000000"/>
<rect x="479" width="1" height="360" fill="#000000"/>
<rect width="480" height="1" fill="#000000"/>
<rect y="359" width="480" height="1" fill="#000000"/>
<g transform="translate(0.000000,360.000000) scale(0.100000,-0.100000)"
fill="#000000" stroke="none">
<path d="M2880 3293 c0 -5 18 -28 41 -53 22 -25 44 -53 50 -62 12 -22 -4 -24
-21 -3 -24 29 -165 65 -253 65 -100 0 -163 -26 -220 -89 -29 -32 -42 -40 -50
-32 -16 16 -103 13 -138 -4 l-30 -16 31 -39 c32 -40 39 -44 74 -40 14 1 10 -6
-15 -30 l-34 -31 23 -16 c29 -20 28 -25 -10 -69 -29 -32 -30 -38 -18 -57 71
-112 79 -130 75 -171 -2 -22 -7 -109 -10 -193 -3 -104 -10 -167 -21 -200 -21
-61 -23 -122 -5 -195 13 -54 12 -66 -18 -217 -31 -160 -41 -257 -19 -181 l11
35 8 -29 c4 -15 4 -65 -1 -110 -13 -110 -13 -156 1 -136 7 11 8 -2 4 -45 -3
-33 -8 -82 -10 -110 -3 -27 -12 -158 -20 -290 -8 -132 -23 -359 -34 -505 -11
-146 -23 -311 -26 -367 l-7 -103 536 0 c295 0 536 3 536 8 -1 55 -83 452 -150
727 -56 229 -111 549 -125 727 l-6 77 37 16 c49 20 49 20 62 -24 14 -46 48
-91 69 -91 8 0 13 3 11 8 -2 4 -16 31 -31 60 -15 29 -39 85 -53 125 -15 40
-30 77 -34 82 -12 15 -23 83 -16 100 5 13 13 11 45 -15 23 -19 55 -34 80 -37
37 -5 44 -2 80 34 59 58 62 95 16 177 -38 67 -38 86 -4 86 11 0 42 21 69 46
40 38 49 51 44 70 -4 16 -2 24 6 24 9 0 10 11 6 38 -5 26 -19 48 -48 74 -23
20 -45 35 -48 33 -3 -2 -63 41 -133 95 -93 72 -132 97 -147 93 -18 -5 -20 -1
-20 39 0 34 7 55 31 89 53 74 71 90 85 78 19 -16 32 -3 27 25 -4 20 1 26 31
37 39 14 45 29 21 49 -8 7 -13 16 -10 20 7 11 -52 60 -93 77 -39 16 -58 56
-43 90 11 24 3 60 -23 110 -24 48 -126 153 -147 153 -10 0 -19 -3 -19 -7z"/>
</g>
</svg>
