<?xml version="1.0" standalone="no"?>
<!DOCTYPE svg PUBLIC "-//W3C//DTD SVG 20010904//EN"
 "http://www.w3.org/TR/2001/REC-SVG-20010904/DTD/svg10.dtd">
<svg version="1.0" xmlns="http://www.w3.org/2000/svg"
 width="480.000000pt" height="360.000000pt" viewBox="0 0 480.000000 360.000000"
 preserveAspectRatio="xMidYMid meet">
<metadata>
Created by potrace 1.16, written by Peter Selinger 2001-2019
</metadata>
<rect width="1" height="360" fill="#000000"/>
<rect x="479" width="1" height="360" fill="#000000"/>
<rect width="480" height="1" fill="#000000"/>
<rect y="359" width="480" height="1" fill="#000000"/>
<g transform="translate(0.000000,360.000000) scale(0.100000,-0.100000)"
fill="#000000" stroke="none">
<path d="M955 3091 c-9 -16 40 -47 122 -76 252 -91 426 -204 552 -360 107
-132 141 -187 151 -248 5 -31 16 -73 26 -92 16 -35 75 -90 121 -114 13 -6 55
-55 95 -109 146 -197 263 -318 436 -452 28 -22 52 -47 52 -56 0 -34 44 -96
101 -144 58 -48 62 -50 122 -50 34 0 67 -4 74 -8 13 -8 45 -84 42 -98 -6 -18
13 -53 35 -68 18 -11 22 -21 19 -40 -7 -32 12 -80 49 -128 17 -22 26 -42 22
-52 -3 -9 0 -23 7 -32 7 -9 13 -24 14 -34 1 -10 20 -40 43 -68 23 -27 42 -59
42 -70 0 -11 7 -25 15 -32 8 -7 15 -9 15 -5 0 4 6 2 14 -4 8 -7 12 -20 9 -31
-6 -22 84 -148 142 -199 38 -33 38 -34 26 -75 -21 -71 -41 -237 -41 -343 l0
-103 770 0 770 0 0 880 0 880 -23 14 c-28 19 -182 46 -261 46 -88 0 -234 -24
-286 -47 -44 -19 -46 -19 -105 0 -159 50 -448 90 -611 85 l-93 -3 -35 34 c-44
43 -103 51 -174 26 -49 -18 -49 -18 -123 10 -241 89 -320 120 -376 146 -60 29
-62 30 -73 82 -16 77 -47 122 -127 185 -56 44 -112 62 -192 62 l-66 0 -172
178 c-94 97 -176 188 -181 202 -5 14 -17 50 -26 80 -39 122 -121 190 -231 190
-38 0 -76 -8 -103 -20 -34 -15 -48 -17 -70 -9 -46 18 -201 47 -332 64 -144 17
-177 19 -185 6z m1505 -856 c20 -24 6 -28 -15 -5 -10 11 -13 20 -8 20 6 0 16
-7 23 -15z"/>
</g>
</svg>
