<?xml version="1.0" standalone="no"?>
<!DOCTYPE svg PUBLIC "-//W3C//DTD SVG 20010904//EN"
 "http://www.w3.org/TR/2001/REC-SVG-20010904/DTD/svg10.dtd">
<svg version="1.0" xmlns="http://www.w3.org/2000/svg"
 width="480.000000pt" height="360.000000pt" viewBox="0 0 480.000000 360.000000"
 preserveAspectRatio="xMidYMid meet">
<metadata>
Created by potrace 1.16, written by Peter Selinger 2001-2019
</metadata>
<rect width="1" height="360" fill="#000000"/>
<rect x="479" width="1" height="360" fill="#000000"/>
<rect width="480" height="1" fill="#000000"/>
<rect y="359" width="480" height="1" fill="#000000"/>
<g transform="translate(0.000000,360.000000) scale(0.100000,-0.100000)"
fill="#000000" stroke="none">
<path d="M200 1730 c19 -4 85 -13 145 -19 134 -15 285 -49 425 -94 137 -45
530 -188 745 -272 245 -96 362 -133 516 -165 197 -41 346 -54 539 -47 372 14
557 73 1125 361 223 114 301 148 382 169 98 27 339 56 468 58 33 0 69 4 80 9
12 5 -57 9 -175 9 -313 1 -441 -24 -785 -154 -351 -133 -572 -198 -824 -241
-67 -11 -115 -26 -170 -55 -181 -92 -370 -87 -541 16 -30 18 -82 38 -115 45
-80 16 -310 75 -410 105 -108 32 -207 59 -420 111 -99 25 -245 63 -325 84 -80
22 -183 46 -230 54 -97 17 -328 36 -409 35 -51 -1 -53 -2 -21 -9z"/>
</g>
</svg>
