<?xml version="1.0" standalone="no"?>
<!DOCTYPE svg PUBLIC "-//W3C//DTD SVG 20010904//EN"
 "http://www.w3.org/TR/2001/REC-SVG-20010904/DTD/svg10.dtd">
<svg version="1.0" xmlns="http://www.w3.org/2000/svg"
 width="480.000000pt" height="360.000000pt" viewBox="0 0 480.000000 360.000000"
 preserveAspectRatio="xMidYMid meet">
<metadata>
Created by potrace 1.16, written by Peter Selinger 2001-2019
</metadata>
<rect width="1" height="360" fill="#000000"/>
<rect x="479" width="1" height="360" fill="#000000"/>
<rect width="480" height="1" fill="#000000"/>
<rect y="359" width="480" height="1" fill="#000000"/>
<g transform="translate(0.000000,360.000000) scale(0.100000,-0.100000)"
fill="#000000" stroke="none">
<path d="M0 1800 l0 -1800 870 0 869 0 7 38 c16 90 136 457 176 535 10 21 32
76 48 122 26 73 30 97 30 193 0 110 0 110 30 135 17 14 30 30 30 36 0 12 -76
51 -98 51 -15 0 -14 -72 3 -270 10 -105 -10 -49 -35 102 -13 75 -27 143 -31
150 -7 10 -17 9 -48 -8 -50 -27 -66 -18 -80 46 -17 72 -16 73 32 67 23 -3 52
-9 65 -13 l24 -7 -8 109 c-3 60 -8 111 -10 113 -1 1 -13 -4 -26 -13 -46 -33
-139 -12 -175 40 -11 16 -34 72 -52 124 -18 52 -44 114 -57 138 -13 23 -36 62
-50 87 -29 51 -40 100 -26 118 14 18 24 67 13 67 -5 0 -26 15 -45 34 -31 29
-36 40 -36 79 0 47 -6 55 -75 93 -41 23 -25 74 22 74 13 0 58 -14 98 -31 41
-17 82 -29 92 -27 25 4 43 -10 43 -31 0 -10 7 -24 15 -31 13 -10 19 -10 33 4
28 24 38 20 51 -24 14 -48 27 -57 51 -35 17 16 23 15 93 -9 42 -14 78 -26 80
-26 3 0 8 28 11 63 22 240 38 456 40 537 3 109 26 196 68 254 15 22 26 41 24
43 -2 3 -29 -10 -60 -27 -37 -21 -64 -30 -79 -26 -30 7 -51 -7 -44 -30 55
-184 61 -251 28 -314 -29 -56 -52 -157 -45 -199 5 -32 2 -42 -17 -61 -55 -52
-119 -61 -224 -32 -56 16 -60 19 -61 47 -1 45 -20 73 -54 80 -67 15 -90 93
-45 159 26 39 31 56 16 56 -5 0 -7 17 -4 38 3 25 -1 50 -11 71 -27 51 -31 120
-11 187 21 73 40 97 66 83 29 -15 52 -67 45 -101 -6 -32 8 -68 27 -68 17 0 17
221 0 241 -34 42 -33 200 1 238 l19 21 20 -32 c16 -27 18 -43 13 -105 -3 -40
-2 -73 3 -73 12 0 22 57 15 85 -6 24 20 85 36 85 13 0 37 -39 45 -73 4 -15 11
-30 16 -32 12 -8 49 70 49 105 l0 30 81 -5 c106 -7 179 -26 312 -82 80 -34
111 -43 120 -34 14 14 92 15 117 1 14 -7 40 1 113 35 53 25 120 54 150 64 62
22 243 48 254 38 8 -9 22 -182 22 -288 1 -105 -6 -113 -105 -115 -67 -2 -85 2
-121 22 -46 26 -57 20 -22 -12 42 -37 58 -95 78 -280 11 -99 25 -273 31 -389
6 -115 13 -212 16 -214 2 -3 20 3 39 12 20 9 54 17 75 17 29 0 40 4 40 15 0
17 25 20 35 5 11 -18 23 -10 30 19 9 41 31 58 55 43 17 -10 24 -6 55 25 l35
37 -42 14 c-31 10 -54 12 -90 4 -56 -11 -91 2 -96 36 -3 16 2 22 15 22 11 0
24 -5 30 -11 13 -13 36 -3 28 12 -4 5 -16 9 -28 9 -26 0 -87 52 -87 73 0 8 7
21 16 28 18 14 15 66 -8 140 -8 30 -15 38 -28 34 -10 -3 -25 -2 -34 1 -15 6
-16 15 -11 58 7 52 21 80 35 71 5 -3 6 19 3 49 -10 93 8 126 49 89 10 -9 21
-14 24 -10 18 18 23 89 13 170 -9 69 -9 97 1 130 7 23 14 47 15 52 2 6 4 -2 4
-17 1 -15 6 -39 12 -55 l11 -28 17 21 c12 15 27 20 54 20 33 -1 39 -5 44 -28
3 -15 14 -30 25 -34 33 -10 41 -50 23 -125 -8 -37 -15 -78 -15 -90 0 -21 1
-22 20 -4 11 10 25 35 30 55 11 40 52 76 82 72 10 -2 23 9 33 27 8 17 19 31
24 31 20 0 27 -66 15 -130 -5 -25 -11 -31 -26 -27 -22 6 -38 -19 -38 -62 0
-21 11 -43 34 -68 49 -56 55 -131 18 -233 -15 -41 -44 -100 -64 -132 -21 -31
-44 -75 -52 -97 -16 -48 -11 -51 70 -26 86 26 134 16 134 -27 0 -12 -18 -27
-56 -45 -50 -23 -55 -29 -49 -51 9 -36 -12 -88 -47 -115 -26 -21 -29 -27 -19
-45 20 -38 13 -104 -20 -172 -36 -75 -60 -152 -85 -265 -26 -124 -48 -154
-125 -175 -47 -13 -94 2 -136 42 l-33 32 0 -133 c0 -102 3 -131 12 -127 45 18
89 28 102 23 13 -5 15 -15 10 -49 -14 -91 -32 -105 -94 -73 -35 18 -34 20 -35
-65 -1 -149 -5 -223 -11 -217 -4 4 -13 65 -20 137 -12 120 -23 160 -44 160 -4
0 -11 -10 -15 -22 -6 -20 -8 -20 -12 -6 -5 20 -12 22 -32 9 -12 -7 -10 -14 8
-36 19 -25 21 -40 21 -141 0 -122 2 -127 105 -374 35 -82 165 -465 165 -485 0
-13 108 -15 865 -15 l865 0 0 1800 0 1800 -2400 0 -2400 0 0 -1800z"/>
<path d="M1752 3033 c-5 -10 -12 -47 -16 -82 -6 -62 -5 -63 12 -48 10 10 24
17 30 17 13 0 15 35 6 93 -7 40 -18 47 -32 20z"/>
<path d="M3165 3020 c-3 -5 -1 -10 4 -10 6 0 11 5 11 10 0 6 -2 10 -4 10 -3 0
-8 -4 -11 -10z"/>
<path d="M2930 2655 c0 -8 5 -15 10 -15 6 0 10 7 10 15 0 8 -4 15 -10 15 -5 0
-10 -7 -10 -15z"/>
<path d="M1940 1334 c0 -71 4 -135 8 -142 13 -20 43 -3 37 22 -3 11 -12 70
-21 131 -8 60 -17 112 -20 114 -2 2 -4 -54 -4 -125z"/>
<path d="M2001 1273 c-1 -40 3 -73 8 -73 18 0 19 15 6 80 l-13 65 -1 -72z"/>
<path d="M2840 1189 c0 -22 4 -38 8 -35 8 5 4 76 -4 76 -2 0 -4 -18 -4 -41z"/>
</g>
</svg>
