<?xml version="1.0" standalone="no"?>
<!DOCTYPE svg PUBLIC "-//W3C//DTD SVG 20010904//EN"
 "http://www.w3.org/TR/2001/REC-SVG-20010904/DTD/svg10.dtd">
<svg version="1.0" xmlns="http://www.w3.org/2000/svg"
 width="480.000000pt" height="360.000000pt" viewBox="0 0 480.000000 360.000000"
 preserveAspectRatio="xMidYMid meet">
<metadata>
Created by potrace 1.16, written by Peter Selinger 2001-2019
</metadata>
<rect width="1" height="360" fill="#000000"/>
<rect x="479" width="1" height="360" fill="#000000"/>
<rect width="480" height="1" fill="#000000"/>
<rect y="359" width="480" height="1" fill="#000000"/>
<g transform="translate(0.000000,360.000000) scale(0.100000,-0.100000)"
fill="#000000" stroke="none">
<path d="M3004 3573 c4 -16 22 -61 42 -100 19 -40 34 -76 33 -80 -1 -5 -41
-15 -89 -25 -149 -28 -317 -111 -426 -210 -83 -76 -177 -206 -204 -280 -48
-137 -76 -195 -113 -235 -45 -49 -29 -60 23 -17 17 15 33 24 35 22 3 -3 -2
-27 -10 -54 -18 -59 -17 -57 -5 -49 9 6 5 -98 -6 -135 -2 -8 4 -4 14 9 23 28
28 22 37 -46 9 -66 21 -69 18 -5 l-2 47 13 -40 c7 -22 17 -50 21 -63 4 -13 13
-21 21 -18 7 3 16 -4 19 -15 7 -22 21 -25 28 -6 3 6 8 -3 12 -20 4 -18 12 -33
18 -33 6 0 18 -7 28 -16 16 -15 17 -13 9 22 -12 54 -4 55 10 3 17 -64 24 -69
31 -24 l6 40 2 -42 c2 -58 -13 -91 -60 -134 -47 -43 -46 -69 1 -94 45 -23 60
-44 60 -81 0 -37 29 -74 58 -74 10 0 28 -7 41 -16 19 -14 22 -23 18 -50 -4
-26 0 -39 21 -62 15 -16 42 -54 61 -83 32 -52 33 -56 22 -103 -12 -50 -6 -65
26 -66 7 0 11 -14 10 -32 0 -18 9 -96 21 -173 29 -187 29 -188 -15 -236 l-38
-40 -55 68 c-31 37 -70 99 -88 137 -18 38 -49 92 -69 119 -35 49 -35 52 -24
99 27 117 -11 307 -76 379 -47 52 -85 62 -225 57 -128 -3 -127 -3 -128 60 0
15 -5 22 -12 19 -8 -2 -13 -23 -13 -52 l0 -48 -84 -33 c-46 -18 -98 -46 -115
-62 -17 -16 -38 -32 -47 -35 -18 -6 -38 -56 -62 -157 l-15 -65 38 -137 c31
-114 44 -146 75 -185 74 -92 118 -132 167 -150 26 -9 48 -21 48 -25 0 -5 -11
-31 -25 -58 -32 -63 -59 -165 -85 -316 -11 -66 -29 -147 -41 -180 -24 -66 -37
-242 -25 -338 l7 -56 292 0 292 1 29 63 c29 67 107 196 117 196 3 0 4 -59 1
-130 l-5 -130 67 0 c59 0 66 2 66 20 0 26 16 26 23 0 5 -20 14 -20 761 -20
745 0 758 0 824 21 68 22 182 78 182 91 0 4 -14 8 -30 10 l-30 3 40 45 c21 25
39 48 40 53 0 14 -101 7 -133 -9 -18 -9 -75 -42 -127 -74 -125 -75 -144 -80
-166 -39 -8 17 -14 39 -11 49 3 10 -4 54 -15 97 -10 43 -23 101 -28 128 -6 28
-21 95 -35 150 -15 55 -32 123 -39 151 -7 27 -17 57 -22 65 -10 16 -12 27 -20
133 -8 98 12 102 34 8 8 -34 19 -62 23 -62 5 0 6 8 2 18 -6 16 -5 16 14 -1 11
-9 22 -15 25 -12 3 3 27 -44 53 -104 55 -129 80 -161 71 -90 -4 24 -13 105
-22 179 -8 74 -17 152 -21 173 -3 20 -3 37 1 37 3 0 22 -32 42 -71 19 -39 37
-69 38 -68 2 2 -9 56 -25 119 -36 148 -48 238 -40 325 l6 70 8 -44 c20 -111
141 -390 202 -466 l16 -20 -4 20 c-3 11 -18 70 -35 130 -17 61 -33 137 -37
170 l-6 60 30 -53 c40 -71 141 -222 148 -222 3 0 3 17 -1 38 -39 221 -43 262
-56 582 -26 636 -67 889 -201 1245 -27 72 -58 165 -69 208 -45 178 -165 341
-283 385 -39 15 -81 22 -127 22 l-69 0 -51 75 -51 75 -315 0 -316 0 6 -27z"/>
</g>
</svg>
