<?xml version="1.0" standalone="no"?>
<!DOCTYPE svg PUBLIC "-//W3C//DTD SVG 20010904//EN"
 "http://www.w3.org/TR/2001/REC-SVG-20010904/DTD/svg10.dtd">
<svg version="1.0" xmlns="http://www.w3.org/2000/svg"
 width="480.000000pt" height="360.000000pt" viewBox="0 0 480.000000 360.000000"
 preserveAspectRatio="xMidYMid meet">
<metadata>
Created by potrace 1.16, written by Peter Selinger 2001-2019
</metadata>
<rect width="1" height="360" fill="#000000"/>
<rect x="479" width="1" height="360" fill="#000000"/>
<rect width="480" height="1" fill="#000000"/>
<rect y="359" width="480" height="1" fill="#000000"/>
<g transform="translate(0.000000,360.000000) scale(0.100000,-0.100000)"
fill="#000000" stroke="none">
<path d="M0 2625 l0 -976 33 6 c34 5 110 11 672 50 1680 117 2461 234 3193
480 275 93 600 236 825 363 l77 44 0 504 0 504 -2400 0 -2400 0 0 -975z"/>
<path d="M4595 2044 c-71 -56 -409 -188 -615 -241 -32 -8 -35 -12 -38 -47 -2
-21 -10 -49 -18 -61 -14 -21 -13 -24 17 -46 61 -46 99 -87 99 -107 0 -12 4
-23 9 -26 5 -3 12 -18 16 -33 3 -15 15 -46 26 -70 10 -23 19 -47 19 -52 0 -6
8 -25 18 -43 26 -48 52 -120 52 -146 0 -12 -20 -100 -44 -195 -24 -94 -65
-262 -90 -372 -26 -110 -57 -234 -68 -275 -11 -41 -24 -91 -29 -110 -29 -124
-48 -206 -48 -212 -1 -5 202 -8 449 -8 l450 0 -1 138 c0 75 -3 131 -6 125 -10
-26 -30 -12 -51 35 -12 26 -67 229 -121 452 -55 223 -125 506 -155 629 -31
124 -56 232 -56 241 0 10 31 95 69 190 55 135 78 182 107 211 40 41 43 49 9
23z"/>
<path d="M3375 1725 c-60 -13 -229 -47 -375 -76 -146 -29 -266 -53 -268 -54
-1 -1 2 -24 7 -51 8 -42 6 -52 -12 -78 l-21 -29 57 -51 c47 -42 60 -61 73
-106 9 -30 26 -80 39 -110 12 -30 35 -95 50 -143 l27 -89 -25 -111 c-14 -62
-33 -137 -41 -167 -9 -30 -19 -73 -22 -95 -5 -38 -51 -245 -96 -435 -11 -47
-22 -95 -25 -107 l-5 -23 426 0 c358 0 426 2 426 14 0 8 -18 90 -40 182 -21
93 -82 354 -135 579 -53 226 -97 417 -98 425 0 8 30 94 67 190 63 165 70 178
118 221 l51 47 -16 35 c-10 19 -17 40 -17 46 0 15 -18 13 -145 -14z"/>
<path d="M2145 1524 c-71 -7 -251 -20 -400 -29 -148 -9 -272 -18 -274 -21 -3
-3 -4 -22 -2 -44 1 -21 -3 -49 -10 -61 -10 -20 -8 -25 17 -43 95 -68 101 -79
201 -378 l36 -108 -32 -127 c-18 -71 -36 -146 -41 -168 -5 -22 -18 -85 -30
-140 -12 -55 -32 -143 -45 -195 -32 -133 -45 -189 -45 -200 0 -6 144 -10 400
-10 220 0 400 4 400 8 0 7 -50 225 -175 757 -19 82 -35 163 -35 180 0 17 18
82 41 145 22 63 52 147 65 186 23 64 31 75 84 115 58 43 70 61 50 74 -5 3 -10
22 -10 41 0 40 11 39 -195 18z"/>
<path d="M0 761 l0 -761 520 0 c351 0 520 3 520 10 0 6 -25 117 -56 248 -111
469 -134 567 -134 586 0 10 30 102 66 205 68 193 78 208 159 267 28 20 28 21
12 44 -19 27 -23 85 -7 95 33 20 -2 26 -152 24 -215 -2 -711 19 -875 37 l-53
6 0 -761z"/>
</g>
</svg>
