<?xml version="1.0" standalone="no"?>
<!DOCTYPE svg PUBLIC "-//W3C//DTD SVG 20010904//EN"
 "http://www.w3.org/TR/2001/REC-SVG-20010904/DTD/svg10.dtd">
<svg version="1.0" xmlns="http://www.w3.org/2000/svg"
 width="480.000000pt" height="360.000000pt" viewBox="0 0 480.000000 360.000000"
 preserveAspectRatio="xMidYMid meet">
<metadata>
Created by potrace 1.16, written by Peter Selinger 2001-2019
</metadata>
<rect width="1" height="360" fill="#000000"/>
<rect x="479" width="1" height="360" fill="#000000"/>
<rect width="480" height="1" fill="#000000"/>
<rect y="359" width="480" height="1" fill="#000000"/>
<g transform="translate(0.000000,360.000000) scale(0.100000,-0.100000)"
fill="#000000" stroke="none">
<path d="M1325 3531 c-276 -117 -603 -276 -816 -397 -148 -83 -355 -206 -431
-256 l-78 -51 0 -1413 0 -1414 830 0 830 0 118 31 c1064 277 1929 670 2602
1181 174 132 196 151 312 256 l106 97 1 1018 1 1017 -1657 0 -1658 -1 -160
-68z m1503 -798 c15 -10 65 -48 112 -85 46 -37 130 -93 186 -123 56 -31 110
-65 119 -75 10 -11 28 -61 42 -112 14 -54 51 -148 89 -224 35 -73 64 -139 64
-147 0 -8 -13 -45 -30 -81 -49 -109 -71 -195 -76 -291 -6 -107 -16 -125 -87
-161 -131 -67 -206 -128 -260 -213 -48 -76 -129 -93 -427 -92 -230 1 -276 9
-390 66 -87 44 -142 92 -168 149 l-21 43 -106 1 c-67 0 -111 5 -120 12 -8 7
-29 37 -46 66 -17 30 -48 68 -68 85 -24 19 -43 45 -50 69 -6 22 -30 60 -51 85
-29 33 -40 55 -40 78 0 46 36 166 57 191 10 12 29 43 43 70 22 44 102 136 118
136 4 0 13 13 20 28 6 16 32 52 57 81 24 29 53 75 62 103 14 39 26 54 55 69
20 10 63 43 95 72 32 30 87 71 123 91 36 21 88 55 117 77 l52 39 143 -12 c121
-10 159 -9 248 4 58 9 106 16 108 17 1 1 15 -7 30 -16z"/>
<path d="M1801 2257 c-44 -54 -41 -68 11 -48 20 7 27 19 32 52 4 23 5 43 3 45
-2 2 -23 -20 -46 -49z"/>
<path d="M2020 1376 c0 -25 39 -82 73 -107 51 -37 183 -102 198 -97 18 6 -126
134 -194 172 -60 34 -77 41 -77 32z"/>
<path d="M2530 1166 c-43 -13 -38 -14 100 -15 109 0 140 2 126 10 -29 18 -175
20 -226 5z"/>
</g>
</svg>
