<?xml version="1.0" standalone="no"?>
<!DOCTYPE svg PUBLIC "-//W3C//DTD SVG 20010904//EN"
 "http://www.w3.org/TR/2001/REC-SVG-20010904/DTD/svg10.dtd">
<svg version="1.0" xmlns="http://www.w3.org/2000/svg"
 width="480.000000pt" height="360.000000pt" viewBox="0 0 480.000000 360.000000"
 preserveAspectRatio="xMidYMid meet">
<metadata>
Created by potrace 1.16, written by Peter Selinger 2001-2019
</metadata>
<rect width="1" height="360" fill="#000000"/>
<rect x="479" width="1" height="360" fill="#000000"/>
<rect width="480" height="1" fill="#000000"/>
<rect y="359" width="480" height="1" fill="#000000"/>
<g transform="translate(0.000000,360.000000) scale(0.100000,-0.100000)"
fill="#000000" stroke="none">
<path d="M2552 3354 c-92 -99 -94 -105 -61 -203 l22 -63 -76 -75 c-84 -82
-116 -139 -141 -247 -24 -103 -23 -161 4 -254 22 -74 25 -81 36 -61 11 21 12
20 18 -13 3 -19 16 -55 28 -79 19 -38 23 -41 26 -21 l3 23 20 -25 c10 -13 27
-23 37 -21 9 1 22 -1 28 -6 6 -5 19 -10 30 -12 58 -12 69 -36 34 -80 -31 -39
-25 -54 29 -72 39 -13 52 -22 60 -46 5 -16 16 -29 24 -29 8 0 40 -25 71 -55
30 -30 60 -55 66 -55 6 0 13 -7 16 -15 9 -22 24 -18 24 5 0 24 8 25 37 5 21
-15 22 -14 29 21 6 32 8 35 19 21 7 -10 17 -17 24 -17 6 0 11 -15 11 -32 0
-28 -13 -46 -85 -118 -69 -68 -92 -85 -117 -86 -39 -2 -82 -46 -97 -98 -5 -20
-25 -54 -44 -76 -45 -53 -60 -105 -47 -163 9 -42 7 -52 -26 -124 -20 -43 -44
-114 -53 -157 l-17 -80 -49 90 c-27 49 -58 105 -70 124 -12 19 -34 81 -48 136
-14 56 -36 125 -50 153 l-24 51 36 9 c20 5 97 20 171 35 167 32 210 44 210 58
0 11 -34 9 -309 -18 -151 -15 -153 -15 -175 5 -24 23 -97 51 -131 51 -12 0
-30 -9 -40 -20 -10 -11 -29 -20 -41 -20 -14 0 -32 -12 -46 -31 -27 -35 -106
-75 -122 -59 -5 5 -51 80 -101 167 -62 105 -98 157 -111 159 -122 17 -126 16
-166 -23 -21 -20 -38 -42 -38 -48 0 -5 47 -90 104 -187 57 -98 100 -180 95
-184 -15 -9 -10 -67 11 -113 11 -24 20 -65 20 -92 0 -27 7 -66 16 -87 9 -20
22 -58 30 -83 17 -55 25 -63 82 -79 24 -6 69 -27 100 -47 31 -20 90 -52 131
-71 126 -58 146 -75 180 -146 27 -55 51 -82 181 -201 82 -75 150 -144 150
-153 0 -34 -22 -97 -37 -106 -21 -11 -53 -85 -53 -121 0 -17 9 -48 20 -70 11
-22 20 -59 20 -82 l0 -43 635 0 635 0 0 26 c0 14 -7 41 -16 60 -24 49 -101
132 -127 136 -20 3 -23 13 -39 113 -34 220 -49 379 -43 465 6 75 4 89 -15 119
-17 26 -26 32 -46 28 -26 -5 -31 12 -18 60 l6 22 30 -22 c25 -19 43 -22 113
-22 90 1 105 6 85 30 -11 13 -4 15 59 15 68 0 71 1 61 19 -5 11 -10 22 -10 24
0 2 32 8 71 11 57 6 68 10 59 21 -8 10 -6 25 12 61 32 67 48 68 48 5 0 -53 13
-73 29 -44 18 34 24 -12 7 -59 -16 -45 -41 -196 -33 -204 2 -3 26 25 52 61 27
36 50 64 52 62 2 -2 -3 -35 -11 -73 -17 -79 -31 -234 -23 -234 4 0 13 12 21
28 14 25 15 19 16 -96 0 -81 3 -121 10 -117 6 4 27 30 46 58 27 39 35 45 30
26 -8 -36 -26 -160 -26 -182 0 -15 3 -16 21 -7 11 7 38 29 60 51 45 45 45 43
19 -66 -10 -44 -16 -82 -13 -85 2 -3 13 6 24 19 25 31 31 24 18 -23 -13 -47
-4 -59 21 -26 11 14 20 19 20 13 0 -28 18 -11 30 30 15 52 59 141 66 134 3 -3
-4 -36 -15 -74 -20 -70 -51 -238 -51 -279 0 -17 4 -22 16 -17 15 5 15 3 0 -25
-9 -17 -16 -33 -16 -37 0 -3 90 -5 200 -5 l200 0 0 37 c0 58 22 217 31 227 18
19 20 -24 5 -97 -9 -42 -16 -97 -16 -122 l0 -45 40 0 40 0 -1 838 0 837 -71
35 c-40 19 -132 75 -206 124 -165 108 -343 281 -437 424 -33 50 -63 92 -66 92
-3 0 -11 -18 -18 -41 -7 -22 -26 -55 -43 -72 -17 -18 -50 -61 -73 -97 -65
-100 -258 -320 -327 -372 l-62 -47 -23 21 c-23 21 -29 48 -37 172 -3 61 -2 69
15 73 10 3 19 12 19 19 0 8 4 14 8 14 10 0 32 -45 32 -65 0 -8 5 -15 10 -15 6
0 10 9 10 19 0 14 5 18 20 14 19 -5 20 0 20 112 0 108 1 116 17 104 21 -18 43
-70 44 -106 l1 -28 11 28 c6 15 14 27 18 27 3 0 4 11 1 25 -2 13 -1 33 3 42 4
10 7 35 6 55 -2 21 0 47 4 58 5 17 9 19 21 9 27 -22 24 -2 -6 37 -34 45 -39
65 -10 39 39 -35 14 20 -58 129 -37 56 -51 92 -78 197 -60 232 -97 296 -236
409 -139 113 -170 129 -312 162 -58 13 -60 14 -75 60 -9 26 -22 53 -29 60 -18
18 -96 37 -182 44 l-76 7 -82 -89z m-20 -1038 c10 -19 8 -18 -16 3 -14 14 -26
29 -26 34 0 13 29 -12 42 -37z m843 -396 c9 -17 15 -53 14 -87 l0 -58 -14 37
c-7 20 -21 47 -30 61 -10 16 -14 34 -9 51 8 34 20 33 39 -4z m-1525 -388 c0
-15 -2 -15 -10 -2 -13 20 -13 33 0 25 6 -3 10 -14 10 -23z m131 -124 c6 -13
31 -45 54 -73 45 -53 81 -115 67 -115 -9 0 -202 194 -202 204 0 3 16 6 35 6
25 0 37 -6 46 -22z m1864 -268 c3 -5 1 -10 -4 -10 -6 0 -11 5 -11 10 0 6 2 10
4 10 3 0 8 -4 11 -10z m-445 -391 c12 -73 26 -339 17 -339 -3 0 -20 37 -37 82
-30 79 -32 88 -26 178 11 184 24 207 46 79z"/>
</g>
</svg>
