<?xml version="1.0" standalone="no"?>
<!DOCTYPE svg PUBLIC "-//W3C//DTD SVG 20010904//EN"
 "http://www.w3.org/TR/2001/REC-SVG-20010904/DTD/svg10.dtd">
<svg version="1.0" xmlns="http://www.w3.org/2000/svg"
 width="480.000000pt" height="360.000000pt" viewBox="0 0 480.000000 360.000000"
 preserveAspectRatio="xMidYMid meet">
<metadata>
Created by potrace 1.16, written by Peter Selinger 2001-2019
</metadata>
<rect width="1" height="360" fill="#000000"/>
<rect x="479" width="1" height="360" fill="#000000"/>
<rect width="480" height="1" fill="#000000"/>
<rect y="359" width="480" height="1" fill="#000000"/>
<g transform="translate(0.000000,360.000000) scale(0.100000,-0.100000)"
fill="#000000" stroke="none">
<path d="M3050 3578 c-97 -30 -183 -96 -301 -230 -70 -79 -80 -100 -39 -78 33
18 35 5 6 -33 -31 -41 -34 -57 -5 -31 21 19 21 19 16 -11 -4 -16 -9 -52 -12
-80 l-6 -50 21 25 21 25 -6 -37 c-4 -24 -2 -38 5 -38 5 0 10 -7 10 -16 0 -8 5
-12 10 -9 6 3 10 -3 10 -14 0 -11 5 -31 11 -45 15 -32 0 -53 -44 -64 -47 -12
-56 -35 -31 -80 17 -29 19 -43 12 -65 -6 -15 -6 -35 -2 -45 4 -9 9 -28 10 -42
11 -108 28 -179 43 -181 3 0 29 -3 56 -6 60 -6 63 -8 47 -33 -16 -26 -15 -33
4 -26 12 4 15 2 10 -9 -7 -20 0 -19 36 7 l31 21 -5 -73 c-4 -46 -11 -76 -19
-81 -37 -23 -43 -30 -44 -52 -2 -29 -56 -88 -150 -159 -75 -58 -246 -251 -244
-277 0 -10 2 -12 6 -3 10 25 22 11 17 -20 l-5 -33 15 25 c8 14 15 19 16 12 0
-7 5 -10 10 -7 16 10 12 -1 -39 -103 -102 -202 -106 -292 -27 -586 14 -54 26
-114 26 -134 l0 -35 -157 7 c-188 7 -414 44 -480 78 -42 21 -48 29 -63 80 -16
51 -16 58 -2 72 15 14 14 20 -5 60 -18 37 -20 50 -12 81 6 20 20 46 31 57 17
17 19 24 9 40 -12 20 -6 42 10 33 19 -13 46 7 63 46 l18 40 -30 62 c-16 34
-32 77 -36 96 -11 58 -64 96 -80 56 -4 -11 -22 -15 -68 -15 -84 0 -131 -14
-175 -53 -60 -53 -88 -134 -113 -327 -6 -47 -31 -153 -55 -236 -39 -137 -65
-251 -67 -293 0 -9 2 -65 6 -126 7 -115 19 -174 41 -209 7 -12 21 -43 30 -69
11 -30 23 -46 31 -43 7 3 15 -1 17 -8 4 -10 -51 -232 -77 -313 l-7 -23 380 0
c264 0 381 3 381 11 0 6 -12 56 -26 112 -54 213 -84 371 -71 379 30 19 117 5
299 -48 106 -30 197 -59 202 -64 9 -9 -29 -270 -43 -300 -5 -8 -11 -32 -14
-53 l-6 -37 605 0 c332 0 604 2 604 4 0 13 -214 366 -271 448 -11 15 -19 44
-19 70 0 24 -12 69 -27 103 -53 124 -70 399 -31 524 10 32 12 33 49 27 43 -7
47 0 25 42 -19 36 -30 113 -21 151 4 20 18 38 41 52 40 25 84 88 84 121 0 13
5 30 10 38 7 11 10 -3 10 -47 0 -34 4 -64 9 -67 12 -8 22 20 15 39 -5 11 -2
13 12 8 12 -4 15 -3 10 5 -4 7 -1 12 8 12 22 0 21 70 -3 173 -11 45 -31 131
-45 192 -14 60 -37 132 -51 158 -34 67 -31 82 5 25 17 -27 32 -48 35 -48 3 0
-4 23 -14 50 -11 28 -18 50 -16 50 1 0 18 -25 36 -55 36 -60 55 -71 45 -27 -5
23 -3 21 19 -13 14 -22 25 -44 25 -48 0 -5 4 -6 10 -2 5 3 6 13 3 23 -5 14 -3
15 8 5 18 -17 29 -16 29 3 0 25 40 6 83 -40 l37 -41 -2 63 c-3 62 -3 63 21 57
19 -5 22 -3 17 11 -5 14 -4 15 9 4 8 -7 15 -18 15 -24 0 -6 10 -22 21 -36 l21
-25 -6 27 c-5 23 -3 27 11 25 10 -1 24 -6 31 -10 16 -11 15 8 -3 43 -14 26
-14 29 0 24 22 -9 19 2 -15 51 -16 24 -30 46 -30 50 0 14 63 -42 77 -68 14
-28 41 -32 34 -6 -1 8 -9 38 -17 67 -18 67 -18 75 1 68 8 -3 15 -4 15 -2 0 7
-36 76 -72 137 -54 92 -53 126 8 304 45 132 48 146 48 245 0 135 -25 273 -67
359 -41 85 -168 208 -274 264 l-71 37 -213 -1 c-185 -1 -223 -4 -279 -21z
m-243 -590 c-3 -8 -6 -5 -6 6 -1 11 2 17 5 13 3 -3 4 -12 1 -19z m493 -669 c0
-5 -4 -9 -10 -9 -5 0 -10 7 -10 16 0 8 5 12 10 9 6 -3 10 -10 10 -16z m40
-119 c0 -5 -2 -10 -4 -10 -3 0 -8 5 -11 10 -3 6 -1 10 4 10 6 0 11 -4 11 -10z"/>
</g>
</svg>
