<?xml version="1.0" standalone="no"?>
<!DOCTYPE svg PUBLIC "-//W3C//DTD SVG 20010904//EN"
 "http://www.w3.org/TR/2001/REC-SVG-20010904/DTD/svg10.dtd">
<svg version="1.0" xmlns="http://www.w3.org/2000/svg"
 width="480.000000pt" height="360.000000pt" viewBox="0 0 480.000000 360.000000"
 preserveAspectRatio="xMidYMid meet">
<metadata>
Created by potrace 1.16, written by Peter Selinger 2001-2019
</metadata>
<rect width="1" height="360" fill="#000000"/>
<rect x="479" width="1" height="360" fill="#000000"/>
<rect width="480" height="1" fill="#000000"/>
<rect y="359" width="480" height="1" fill="#000000"/>
<g transform="translate(0.000000,360.000000) scale(0.100000,-0.100000)"
fill="#000000" stroke="none">
<path d="M0 1800 l0 -1800 659 0 659 0 12 68 c14 83 74 210 105 222 13 5 25
21 29 37 4 15 24 61 44 101 26 52 34 75 25 80 -18 11 -33 59 -33 106 0 100 66
197 184 275 39 25 74 48 78 51 4 3 -1 24 -12 45 -20 43 -23 56 -21 96 1 22 10
30 50 48 27 11 58 21 68 21 43 1 47 13 45 132 -1 62 -10 183 -18 268 -24 227
-13 312 52 410 l36 54 -23 146 c-25 156 -27 160 -108 220 -28 21 -34 32 -34
65 -1 22 2 53 6 68 7 27 6 28 -20 23 -68 -13 -129 -16 -143 -7 -20 14 -11 20
77 51 l78 27 18 87 17 87 -33 42 c-39 49 -97 133 -97 141 0 14 23 3 93 -44
l74 -51 89 30 c76 26 178 47 321 67 24 4 51 26 118 99 85 93 115 113 115 77 0
-25 -47 -250 -56 -263 -5 -8 5 -9 37 -3 71 14 269 3 269 -14 0 -4 -39 -27 -87
-51 l-88 -44 45 -10 c42 -8 43 -10 25 -23 -11 -8 -44 -22 -72 -30 l-53 -15 39
-72 c21 -40 50 -106 65 -147 28 -84 72 -292 87 -415 10 -81 41 -186 85 -283
74 -163 98 -239 107 -344 6 -58 -3 -73 -22 -40 -9 15 -10 14 -11 -6 0 -20 -2
-21 -15 -10 -43 39 -45 40 -45 20 0 -10 8 -36 19 -58 45 -95 83 -191 115 -288
20 -63 20 -66 -4 -37 l-20 23 -15 -36 c-20 -47 -19 -51 10 -126 32 -80 31 -89
-1 -51 -14 17 -29 31 -33 31 -3 0 -14 -23 -24 -51 -36 -101 -75 -112 -164 -45
-32 24 -59 43 -61 41 -2 -1 17 -44 42 -94 24 -50 68 -151 96 -223 69 -180 89
-216 133 -246 39 -26 41 -32 10 -36 -10 -2 -17 -7 -15 -12 2 -8 36 -124 48
-166 5 -17 58 -18 925 -18 l919 0 0 1800 0 1800 -2400 0 -2400 0 0 -1800z"/>
<path d="M2138 2122 c-11 -2 -18 -13 -18 -28 0 -29 15 -31 30 -3 14 25 10 36
-12 31z"/>
<path d="M2090 2088 c0 -9 5 -20 10 -23 13 -8 13 5 0 25 -8 13 -10 13 -10 -2z"/>
<path d="M2860 161 c0 -11 4 -22 9 -25 4 -3 6 6 3 19 -5 30 -12 33 -12 6z"/>
<path d="M2910 21 c0 -12 6 -21 15 -21 8 0 15 4 15 9 0 5 -7 14 -15 21 -13 10
-15 9 -15 -9z"/>
</g>
</svg>
