<?xml version="1.0" standalone="no"?>
<!DOCTYPE svg PUBLIC "-//W3C//DTD SVG 20010904//EN"
 "http://www.w3.org/TR/2001/REC-SVG-20010904/DTD/svg10.dtd">
<svg version="1.0" xmlns="http://www.w3.org/2000/svg"
 width="480.000000pt" height="360.000000pt" viewBox="0 0 480.000000 360.000000"
 preserveAspectRatio="xMidYMid meet">
<metadata>
Created by potrace 1.16, written by Peter Selinger 2001-2019
</metadata>
<rect width="1" height="360" fill="#000000"/>
<rect x="479" width="1" height="360" fill="#000000"/>
<rect width="480" height="1" fill="#000000"/>
<rect y="359" width="480" height="1" fill="#000000"/>
<g transform="translate(0.000000,360.000000) scale(0.100000,-0.100000)"
fill="#000000" stroke="none">
<path d="M1 3103 c1 -310 4 -481 10 -454 11 57 58 157 94 199 51 60 148 125
316 209 183 91 272 109 581 118 94 3 173 7 175 9 2 2 12 52 22 112 11 60 23
120 29 134 l9 25 22 -35 c12 -19 66 -123 120 -230 54 -108 115 -221 135 -252
20 -32 49 -97 66 -145 45 -134 87 -227 109 -241 10 -7 50 -24 87 -37 55 -19
81 -23 129 -18 58 5 62 4 78 -21 10 -14 24 -26 32 -26 21 0 19 -8 -11 -44 -14
-17 -43 -59 -65 -93 -21 -35 -45 -63 -53 -63 -8 0 -28 12 -45 26 -37 31 -55
25 -40 -13 9 -25 9 -137 0 -127 -3 2 -13 -22 -24 -53 -23 -68 -35 -86 -53 -79
-9 3 -18 -9 -25 -34 -14 -45 -17 -47 -34 -23 -11 15 -13 15 -19 -5 -4 -12 -14
-22 -22 -22 -8 0 -14 -5 -14 -10 0 -6 -6 -5 -14 2 -12 11 -12 17 0 40 8 15 14
35 13 45 0 10 -11 -4 -25 -32 -21 -45 -24 -63 -24 -180 0 -112 4 -140 25 -200
l24 -70 -47 53 -47 53 -28 -47 c-20 -34 -27 -54 -22 -72 5 -21 4 -24 -8 -14
-12 10 -19 5 -40 -25 -61 -88 -104 -122 -121 -94 -6 9 -41 18 -108 27 -33 5
-38 3 -38 -15 0 -29 20 -36 160 -56 69 -9 170 -30 225 -46 55 -16 107 -29 116
-29 23 0 79 -59 79 -83 0 -10 -9 -21 -20 -24 -11 -3 -20 -7 -20 -9 0 -2 24
-41 54 -86 29 -46 63 -101 74 -123 11 -22 29 -48 40 -58 20 -18 22 -18 89 22
38 23 73 41 78 41 4 0 42 13 84 29 162 63 236 75 461 75 190 0 213 -2 315 -27
279 -70 495 -191 711 -400 154 -148 309 -376 375 -552 l20 -55 405 0 404 0 0
1800 0 1800 -2400 0 -2400 0 1 -497z m3809 38 c0 -6 -4 -13 -10 -16 -5 -3 -10
1 -10 9 0 9 5 16 10 16 6 0 10 -4 10 -9z m-468 -1050 c30 -19 52 -44 67 -73
25 -53 29 -103 6 -94 -10 4 -19 -3 -25 -19 -26 -67 -130 62 -130 161 0 64 13
68 82 25z m368 -191 c0 -5 -4 -10 -10 -10 -5 0 -10 5 -10 10 0 6 5 10 10 10 6
0 10 -4 10 -10z"/>
<path d="M1 1982 c-1 -260 3 -441 8 -438 8 6 101 247 101 264 0 4 -14 16 -32
26 -28 17 -29 20 -15 31 10 7 17 25 17 41 0 16 11 56 25 89 35 87 33 120 -14
183 -41 54 -67 119 -81 200 -4 27 -8 -138 -9 -396z"/>
<path d="M750 1340 c0 -5 5 -10 10 -10 6 0 10 5 10 10 0 6 -4 10 -10 10 -5 0
-10 -4 -10 -10z"/>
<path d="M461 1266 c-8 -9 -11 -19 -7 -23 9 -9 29 13 24 27 -2 8 -8 7 -17 -4z"/>
<path d="M318 1206 c-36 -27 -54 -35 -72 -30 -19 4 -29 -1 -51 -30 -15 -20
-25 -39 -22 -42 7 -7 146 58 176 82 13 11 22 28 20 38 -3 15 -11 13 -51 -18z"/>
<path d="M135 1196 c-8 -39 -29 -49 -78 -35 -17 5 -38 9 -44 9 -10 0 -13 -98
-12 -462 l0 -463 23 51 c30 65 43 159 25 181 -8 8 -19 31 -25 49 -11 33 -11
34 16 34 26 0 28 3 32 51 3 28 10 54 17 58 29 18 35 152 10 244 -12 45 0 92
36 147 28 42 45 97 25 85 -9 -6 -11 2 -5 33 8 50 -11 67 -20 18z"/>
<path d="M1778 85 c-6 -83 -3 -99 12 -75 11 17 11 93 1 130 -5 18 -9 1 -13
-55z"/>
<path d="M23 122 c-21 -3 -23 -9 -23 -63 0 -51 2 -59 19 -59 16 0 20 10 26 61
4 33 6 61 4 63 -2 1 -14 0 -26 -2z"/>
<path d="M492 20 c0 -14 2 -19 5 -12 2 6 2 18 0 25 -3 6 -5 1 -5 -13z"/>
</g>
</svg>
