<?xml version="1.0" standalone="no"?>
<!DOCTYPE svg PUBLIC "-//W3C//DTD SVG 20010904//EN"
 "http://www.w3.org/TR/2001/REC-SVG-20010904/DTD/svg10.dtd">
<svg version="1.0" xmlns="http://www.w3.org/2000/svg"
 width="480.000000pt" height="360.000000pt" viewBox="0 0 480.000000 360.000000"
 preserveAspectRatio="xMidYMid meet">
<metadata>
Created by potrace 1.16, written by Peter Selinger 2001-2019
</metadata>
<rect width="1" height="360" fill="#000000"/>
<rect x="479" width="1" height="360" fill="#000000"/>
<rect width="480" height="1" fill="#000000"/>
<rect y="359" width="480" height="1" fill="#000000"/>
<g transform="translate(0.000000,360.000000) scale(0.100000,-0.100000)"
fill="#000000" stroke="none">
<path d="M3585 3020 c-49 -25 -114 -111 -151 -200 -168 -408 -202 -486 -282
-645 -70 -140 -84 -165 -92 -165 -3 1 -24 25 -48 54 -73 92 -97 103 -242 111
-120 6 -126 6 -160 -17 -19 -13 -46 -44 -60 -70 -27 -51 -29 -52 -169 -64
-103 -9 -180 -56 -214 -131 -8 -18 -18 -23 -47 -23 -46 0 -78 -32 -154 -153
-87 -139 -100 -200 -59 -264 22 -34 85 -64 120 -57 l28 5 1 -183 c2 -268 34
-533 90 -726 58 -203 120 -333 210 -437 l46 -55 772 0 771 1 -327 325 c-181
179 -328 332 -328 339 0 7 6 20 14 27 7 8 21 28 29 45 9 17 23 37 30 45 36 36
95 143 122 223 49 142 105 465 105 606 0 87 -17 134 -64 178 -14 14 -26 35
-26 49 0 46 71 258 170 507 17 44 38 101 45 128 7 26 26 71 43 100 16 28 32
65 36 80 4 16 17 45 31 65 25 39 55 144 55 192 l0 28 -85 -5 c-63 -4 -85 -2
-85 7 0 26 -32 78 -56 89 -30 14 -22 15 -69 -9z"/>
</g>
</svg>
