<?xml version="1.0" standalone="no"?>
<!DOCTYPE svg PUBLIC "-//W3C//DTD SVG 20010904//EN"
 "http://www.w3.org/TR/2001/REC-SVG-20010904/DTD/svg10.dtd">
<svg version="1.0" xmlns="http://www.w3.org/2000/svg"
 width="480.000000pt" height="360.000000pt" viewBox="0 0 480.000000 360.000000"
 preserveAspectRatio="xMidYMid meet">
<metadata>
Created by potrace 1.16, written by Peter Selinger 2001-2019
</metadata>
<rect width="1" height="360" fill="#000000"/>
<rect x="479" width="1" height="360" fill="#000000"/>
<rect width="480" height="1" fill="#000000"/>
<rect y="359" width="480" height="1" fill="#000000"/>
<g transform="translate(0.000000,360.000000) scale(0.100000,-0.100000)"
fill="#000000" stroke="none">
<path d="M2943 3563 c4 -21 24 -73 45 -115 22 -43 37 -80 34 -83 -3 -3 -13 -5
-23 -5 -27 0 -168 -50 -229 -80 -76 -39 -186 -118 -240 -173 -82 -83 -157
-204 -181 -292 -34 -124 -58 -180 -96 -224 -39 -46 -27 -54 24 -15 l34 26 -6
-39 c-4 -21 -9 -47 -12 -58 l-5 -20 16 20 c16 19 16 19 12 -15 -15 -110 -16
-130 -8 -130 6 0 13 12 17 28 7 25 9 23 22 -28 18 -70 33 -85 27 -29 -3 33 -2
39 5 24 5 -11 10 -28 10 -38 1 -19 28 -52 43 -52 5 0 13 -6 17 -14 5 -7 14
-10 20 -7 6 4 16 -3 22 -16 6 -13 22 -31 36 -42 l25 -19 -6 34 -7 34 20 -40
19 -40 1 35 c1 30 3 32 12 17 7 -11 8 -37 4 -64 -5 -35 -17 -57 -52 -94 -46
-49 -46 -49 -27 -70 10 -12 35 -29 55 -40 32 -16 38 -25 45 -66 9 -45 12 -48
54 -63 42 -15 45 -18 47 -54 0 -25 7 -43 17 -48 9 -5 28 -27 41 -48 20 -31 25
-53 25 -100 0 -34 -5 -70 -10 -81 -10 -17 -7 -20 19 -25 27 -6 30 -10 29 -43
-1 -39 37 -296 47 -311 15 -24 -30 -117 -83 -172 -30 -32 -59 -58 -63 -58 -5
0 -12 12 -15 28 -9 35 -52 98 -99 142 -20 19 -47 55 -60 80 -13 25 -42 69 -64
99 -23 30 -39 62 -36 70 2 9 7 54 10 100 8 146 -40 288 -114 334 -32 20 -49
22 -168 22 l-131 0 -7 43 c-9 61 -31 49 -28 -15 l2 -51 -77 -27 c-42 -15 -93
-39 -112 -54 -19 -15 -45 -33 -57 -40 -22 -11 -33 -39 -63 -168 -11 -48 -9
-64 15 -165 34 -143 51 -179 131 -266 52 -57 74 -74 117 -87 28 -10 55 -21 60
-24 4 -4 -13 -50 -37 -102 -61 -127 -84 -230 -96 -429 -6 -91 -20 -207 -30
-258 -11 -51 -20 -95 -20 -97 0 -3 173 -5 383 -5 l384 0 18 55 c11 30 23 55
27 55 4 0 8 -25 8 -55 l0 -55 65 0 65 0 0 38 c0 27 3 33 10 22 5 -8 10 -25 10
-37 l0 -23 749 0 c623 0 750 2 760 14 6 7 33 19 59 26 54 14 172 70 172 82 0
4 -8 8 -18 8 -34 0 -32 12 9 61 l41 49 -59 0 c-55 0 -68 -5 -181 -70 -67 -38
-133 -72 -146 -76 -21 -5 -24 -1 -35 40 -6 24 -16 48 -21 51 -6 3 -7 17 -4 30
7 28 -11 115 -33 162 -8 17 -13 35 -10 40 3 5 -10 72 -29 149 -20 76 -40 157
-45 179 -6 21 -13 44 -18 50 -4 5 -8 23 -9 38 -1 15 -6 37 -12 47 -5 10 -10
35 -10 55 0 32 2 35 19 26 10 -6 22 -27 27 -48 l8 -38 6 35 7 35 15 -35 c9
-19 26 -48 39 -64 12 -15 38 -60 57 -100 46 -92 49 -74 23 136 -12 90 -21 173
-21 184 0 10 16 -9 35 -45 40 -74 63 -103 46 -58 -33 87 -64 258 -66 369 -2
68 1 115 6 112 5 -3 9 -15 9 -28 0 -65 119 -349 188 -446 28 -40 29 -52 -17
125 -31 119 -48 231 -31 205 6 -8 33 -52 60 -98 52 -87 100 -155 106 -149 2 2
-5 55 -15 118 -24 144 -29 201 -41 539 -21 543 -73 843 -206 1167 -30 72 -59
155 -65 184 -36 166 -169 341 -297 389 -45 17 -74 21 -139 18 l-81 -3 -52 68
-51 67 -311 0 -311 0 6 -37z m168 -2076 c-8 -8 -11 -3 -11 19 1 25 2 27 11 11
8 -14 8 -22 0 -30z"/>
</g>
</svg>
