<?xml version="1.0" standalone="no"?>
<!DOCTYPE svg PUBLIC "-//W3C//DTD SVG 20010904//EN"
 "http://www.w3.org/TR/2001/REC-SVG-20010904/DTD/svg10.dtd">
<svg version="1.0" xmlns="http://www.w3.org/2000/svg"
 width="480.000000pt" height="360.000000pt" viewBox="0 0 480.000000 360.000000"
 preserveAspectRatio="xMidYMid meet">
<metadata>
Created by potrace 1.16, written by Peter Selinger 2001-2019
</metadata>
<rect width="1" height="360" fill="#000000"/>
<rect x="479" width="1" height="360" fill="#000000"/>
<rect width="480" height="1" fill="#000000"/>
<rect y="359" width="480" height="1" fill="#000000"/>
<g transform="translate(0.000000,360.000000) scale(0.100000,-0.100000)"
fill="#000000" stroke="none">
<path d="M3147 3578 c-10 -17 -39 -30 -101 -47 -109 -29 -167 -70 -294 -207
-86 -92 -102 -121 -53 -94 28 15 26 6 -11 -48 l-32 -46 32 22 31 22 -10 -32
c-5 -18 -9 -53 -9 -78 1 -45 1 -45 16 -20 15 25 15 24 9 -13 -4 -26 -3 -37 4
-32 6 3 11 -1 11 -11 0 -10 7 -25 16 -35 9 -10 17 -33 17 -51 2 -30 -1 -34
-40 -46 -23 -7 -44 -19 -46 -27 -3 -7 4 -30 15 -51 16 -30 18 -44 11 -64 -6
-17 -6 -35 0 -51 5 -13 10 -33 11 -44 10 -146 28 -175 103 -175 31 0 43 -4 43
-14 0 -8 -4 -18 -10 -21 -19 -12 -10 -26 12 -19 20 6 21 5 9 -10 -23 -28 -5
-28 28 -1 l31 27 0 -39 c0 -78 -10 -108 -42 -126 -23 -13 -29 -22 -25 -38 4
-16 -7 -33 -52 -74 -31 -30 -81 -71 -109 -93 -49 -36 -190 -191 -212 -232 -15
-27 -12 -34 6 -19 15 12 16 11 9 -11 -4 -14 -10 -31 -12 -37 -9 -24 6 -13 21
15 9 15 16 20 16 12 0 -12 4 -11 15 4 25 33 17 13 -40 -102 -77 -156 -89 -205
-82 -322 3 -52 15 -129 27 -170 30 -108 54 -219 49 -224 -16 -16 -517 71 -606
106 -50 19 -53 22 -71 78 -15 48 -16 60 -5 64 18 7 16 30 -6 71 -23 43 -15 94
20 131 18 19 20 27 11 36 -7 7 -12 20 -12 31 0 14 5 17 20 12 25 -8 50 10 50
36 0 11 5 19 10 19 17 0 11 35 -16 86 -14 27 -31 69 -37 93 -7 24 -22 50 -34
58 -19 13 -24 12 -42 -6 -17 -17 -34 -21 -88 -21 -159 0 -218 -79 -253 -340
-10 -74 -34 -193 -54 -264 -58 -202 -65 -249 -60 -366 6 -120 19 -190 44 -234
10 -17 23 -49 30 -71 17 -53 21 -60 31 -44 6 10 10 9 15 -6 5 -13 -10 -92 -42
-218 -28 -108 -48 -199 -46 -202 11 -11 782 -5 782 6 0 6 -18 80 -41 165 -70
268 -99 408 -86 416 36 23 146 -6 390 -101 96 -38 106 -45 102 -64 -3 -12 -14
-78 -25 -146 -12 -69 -23 -128 -26 -132 -2 -4 -9 -29 -14 -56 -5 -26 -12 -58
-16 -70 l-6 -23 606 0 c333 0 606 3 606 6 0 12 -76 142 -185 319 -94 150 -113
188 -118 231 -3 29 -18 80 -32 115 -45 105 -62 354 -32 464 14 50 14 50 52 47
34 -4 37 -2 30 15 -4 10 -15 43 -23 74 -21 75 -7 124 44 158 38 27 79 94 70
117 -3 8 -2 12 3 9 5 -3 12 3 14 12 3 10 5 -3 6 -29 0 -25 4 -53 7 -62 9 -23
27 -20 19 3 -8 28 5 53 26 48 38 -10 34 35 -27 293 -19 80 -41 162 -49 183
-10 25 -11 36 -4 31 12 -7 10 11 -7 63 -3 10 7 -3 23 -29 30 -51 42 -59 44
-30 0 9 10 -3 22 -28 18 -37 22 -41 25 -23 2 15 8 20 19 16 8 -3 18 -1 22 5
12 20 49 1 77 -39 15 -21 29 -39 33 -39 3 0 6 27 6 60 -1 58 0 59 24 53 19 -5
22 -3 16 8 -7 12 -6 12 7 1 9 -7 21 -26 28 -42 7 -17 17 -30 22 -30 5 0 4 9
-2 20 -9 17 -8 20 8 20 10 0 23 -5 30 -12 15 -15 16 0 2 37 -9 23 -8 26 5 21
22 -8 19 9 -11 60 -34 58 -16 57 26 -3 19 -26 36 -41 38 -35 2 7 8 10 12 7 5
-3 3 7 -5 21 -8 15 -12 31 -9 36 3 5 0 24 -6 44 -14 42 -9 50 22 33 l23 -12
-23 25 c-12 13 -19 27 -16 31 3 3 -15 44 -40 90 -26 48 -46 98 -46 115 0 17
20 95 45 174 41 126 70 271 60 288 -2 3 -11 57 -20 120 -25 170 -57 233 -168
338 -127 119 -226 165 -384 178 -46 4 -83 11 -83 15 0 5 -22 9 -49 9 -39 0
-52 -4 -64 -22z m-347 -612 c0 -3 -4 -8 -10 -11 -5 -3 -10 -1 -10 4 0 6 5 11
10 11 6 0 10 -2 10 -4z m465 -666 c3 -5 1 -10 -4 -10 -6 0 -11 5 -11 10 0 6 2
10 4 10 3 0 8 -4 11 -10z m40 -110 c3 -5 1 -10 -4 -10 -6 0 -11 5 -11 10 0 6
2 10 4 10 3 0 8 -4 11 -10z m125 -138 c-1 -14 -40 43 -40 58 0 8 9 0 20 -18
11 -18 20 -36 20 -40z m-1943 -1524 c-3 -8 -6 -5 -6 6 -1 11 2 17 5 13 3 -3 4
-12 1 -19z"/>
</g>
</svg>
