<?xml version="1.0" standalone="no"?>
<!DOCTYPE svg PUBLIC "-//W3C//DTD SVG 20010904//EN"
 "http://www.w3.org/TR/2001/REC-SVG-20010904/DTD/svg10.dtd">
<svg version="1.0" xmlns="http://www.w3.org/2000/svg"
 width="480.000000pt" height="360.000000pt" viewBox="0 0 480.000000 360.000000"
 preserveAspectRatio="xMidYMid meet">
<metadata>
Created by potrace 1.16, written by Peter Selinger 2001-2019
</metadata>
<rect width="1" height="360" fill="#000000"/>
<rect x="479" width="1" height="360" fill="#000000"/>
<rect width="480" height="1" fill="#000000"/>
<rect y="359" width="480" height="1" fill="#000000"/>
<g transform="translate(0.000000,360.000000) scale(0.100000,-0.100000)"
fill="#000000" stroke="none">
<path d="M0 3299 l0 -301 56 -58 c31 -32 65 -70 77 -85 61 -76 287 -221 307
-198 4 4 21 54 39 110 73 235 151 357 299 466 62 46 137 80 224 101 74 19 112
11 123 -25 4 -13 20 -40 36 -62 16 -22 29 -44 29 -49 0 -5 14 -39 31 -76 64
-137 69 -149 69 -163 0 -8 9 -40 20 -72 39 -118 93 -355 97 -432 5 -76 4 -81
-21 -104 -35 -33 -33 -49 7 -55 121 -18 346 -46 365 -46 12 0 22 -3 22 -6 0
-8 -73 -73 -82 -74 -21 0 -3 -19 33 -36 41 -18 41 -18 83 6 67 38 146 101 146
117 0 8 12 25 26 38 18 17 24 30 19 44 -4 14 0 21 14 26 11 3 37 18 58 32 45
30 90 57 154 89 54 27 119 29 119 2 0 -9 -4 -19 -9 -22 -4 -3 -11 -27 -14 -53
-3 -26 -12 -61 -21 -77 -8 -16 -18 -46 -21 -68 -4 -21 -11 -36 -16 -32 -19 11
-8 -83 16 -131 48 -97 34 -109 -118 -102 -99 4 -125 10 -227 47 -177 64 -164
62 -233 36 -34 -13 -84 -34 -112 -46 l-50 -21 69 -29 c38 -16 76 -36 85 -44 9
-8 46 -28 82 -44 36 -17 68 -36 71 -44 3 -8 34 -20 71 -27 62 -12 67 -12 128
14 123 52 459 148 679 194 147 31 515 100 590 111 47 6 106 16 131 21 95 17
324 31 442 26 105 -5 188 -15 335 -43 21 -4 60 2 116 20 99 31 131 33 122 10
-5 -14 0 -15 39 -10 36 6 45 4 45 -8 0 -8 -6 -17 -12 -19 -7 -3 1 -6 17 -6 17
-1 36 4 43 11 6 6 14 10 16 7 9 -9 -6 -49 -18 -49 -13 0 -76 -61 -76 -73 0 -4
16 -7 35 -7 28 0 33 -3 28 -17 -5 -13 -3 -15 13 -8 10 4 42 11 69 15 28 4 69
13 92 20 l43 13 0 774 0 773 -2400 0 -2400 0 0 -301z"/>
<path d="M4755 1903 c-18 -14 -18 -15 -1 -9 15 5 17 2 13 -14 -4 -15 0 -20 14
-20 14 0 19 7 19 30 0 34 -14 38 -45 13z"/>
<path d="M4787 1830 c3 -11 7 -20 9 -20 2 0 4 9 4 20 0 11 -4 20 -9 20 -5 0
-7 -9 -4 -20z"/>
<path d="M2014 833 c-19 -57 -80 -164 -110 -194 -20 -19 -40 -44 -45 -57 -5
-13 -14 -20 -20 -17 -5 4 -22 4 -37 0 l-27 -7 28 -14 c47 -25 22 -35 -70 -29
-55 4 -83 3 -79 -4 12 -19 -40 -23 -201 -16 -90 4 -163 3 -163 -1 0 -5 14 -36
32 -70 l32 -62 -34 -28 c-19 -16 -41 -36 -49 -45 -26 -27 -57 -39 -99 -39 -46
0 -93 31 -193 129 -131 128 -159 150 -196 160 -44 12 -330 42 -448 47 -44 3
-129 13 -190 24 -60 11 -117 20 -127 20 -17 0 -18 -19 -18 -315 l0 -315 2400
0 2400 0 0 184 c0 159 -2 185 -16 190 -19 7 -37 -2 -29 -15 9 -14 -32 -11 -98
8 -50 14 -60 14 -68 2 -7 -12 -22 -10 -96 9 -113 29 -143 8 -38 -27 75 -25
219 -83 267 -107 34 -17 46 -29 45 -44 -1 -11 -2 -20 -3 -20 -1 0 -71 25 -155
56 -169 62 -377 134 -385 134 -3 0 7 -16 22 -35 39 -52 11 -43 -44 14 -41 43
-59 53 -142 80 -52 17 -122 33 -155 36 -244 20 -323 30 -420 50 -60 13 -181
33 -269 45 -401 53 -738 130 -1004 230 -88 33 -168 60 -176 60 -9 0 -19 -8
-22 -17z"/>
<path d="M4775 651 c-11 -5 -29 -18 -39 -30 -19 -21 -19 -21 12 -33 17 -7 35
-21 41 -32 7 -17 10 -7 10 42 1 34 0 62 -1 61 -2 0 -12 -4 -23 -8z"/>
<path d="M4640 549 c0 -5 10 -9 23 -9 12 0 46 -11 75 -25 65 -30 62 -30 62 -6
0 16 -9 21 -47 26 -27 4 -63 11 -80 15 -20 5 -33 5 -33 -1z"/>
<path d="M4260 425 c90 -30 107 -31 59 -6 -20 11 -58 22 -85 25 -47 5 -46 4
26 -19z"/>
</g>
</svg>
