<?xml version="1.0" standalone="no"?>
<!DOCTYPE svg PUBLIC "-//W3C//DTD SVG 20010904//EN"
 "http://www.w3.org/TR/2001/REC-SVG-20010904/DTD/svg10.dtd">
<svg version="1.0" xmlns="http://www.w3.org/2000/svg"
 width="480.000000pt" height="360.000000pt" viewBox="0 0 480.000000 360.000000"
 preserveAspectRatio="xMidYMid meet">
<metadata>
Created by potrace 1.16, written by Peter Selinger 2001-2019
</metadata>
<rect width="1" height="360" fill="#000000"/>
<rect x="479" width="1" height="360" fill="#000000"/>
<rect width="480" height="1" fill="#000000"/>
<rect y="359" width="480" height="1" fill="#000000"/>
<g transform="translate(0.000000,360.000000) scale(0.100000,-0.100000)"
fill="#000000" stroke="none">
<path d="M0 3441 l0 -159 62 14 c48 11 306 32 416 34 8 0 11 8 7 23 -9 44 -14
93 -16 170 l-2 77 -233 0 -234 0 0 -159z"/>
<path d="M480 3592 c0 -4 30 -37 66 -72 36 -36 98 -103 137 -148 42 -49 86
-90 106 -98 60 -25 169 -104 215 -155 67 -74 135 -189 166 -279 15 -44 45
-102 66 -130 32 -41 49 -54 107 -76 114 -44 141 -47 230 -28 l80 17 26 -31
c14 -18 32 -32 39 -32 21 0 13 -18 -16 -39 -16 -11 -52 -58 -81 -106 -29 -47
-58 -86 -64 -86 -7 -1 -23 -2 -37 -3 -19 -1 -24 -6 -23 -21 7 -61 4 -99 -11
-185 -17 -91 -32 -122 -48 -97 -4 7 -15 -7 -28 -36 -12 -26 -25 -45 -29 -42
-10 6 -40 -36 -59 -80 l-12 -30 5 29 c5 24 3 27 -11 22 -13 -5 -15 -2 -9 16
14 44 17 88 7 88 -20 0 -43 -105 -33 -152 5 -24 15 -95 21 -158 10 -98 17
-126 47 -185 19 -38 39 -76 45 -82 6 -7 7 -13 2 -13 -5 0 -37 28 -71 62 l-62
62 -11 -28 c-5 -15 -10 -34 -10 -42 0 -8 -5 -14 -11 -14 -11 0 -9 -40 6 -100
6 -25 6 -25 -16 3 l-22 28 -28 -53 c-39 -72 -68 -95 -128 -103 -28 -4 -54 -11
-57 -17 -4 -7 -9 -7 -13 0 -3 6 -29 14 -57 17 -47 7 -51 6 -62 -19 -19 -43
-15 -75 11 -85 12 -4 72 -14 132 -21 144 -16 187 -24 325 -59 63 -17 126 -32
140 -35 17 -4 34 -19 48 -45 30 -52 29 -79 -3 -87 -30 -7 -30 -9 -6 -42 24
-35 103 -194 126 -255 10 -26 21 -50 25 -52 4 -3 59 20 122 50 151 72 319 122
487 145 164 22 238 24 379 10 424 -43 802 -214 1134 -513 58 -52 126 -120 153
-151 l47 -56 419 0 419 0 0 1800 0 1800 -2160 0 c-1188 0 -2160 -4 -2160 -8z
m1986 -1224 c57 -68 102 -218 92 -310 l-4 -33 -53 55 c-89 91 -125 189 -105
289 8 41 34 41 70 -1z m-350 -232 c12 -33 -52 -105 -93 -106 -24 0 -48 33 -39
55 5 15 92 64 114 65 7 0 15 -6 18 -14z"/>
<path d="M360 1089 c0 -5 5 -7 10 -4 6 3 10 8 10 11 0 2 -4 4 -10 4 -5 0 -10
-5 -10 -11z"/>
<path d="M335 1080 c-3 -5 -1 -10 4 -10 6 0 11 5 11 10 0 6 -2 10 -4 10 -3 0
-8 -4 -11 -10z"/>
<path d="M230 1060 c0 -11 4 -20 9 -20 5 0 7 9 4 20 -3 11 -7 20 -9 20 -2 0
-4 -9 -4 -20z"/>
</g>
</svg>
