<?xml version="1.0" standalone="no"?>
<!DOCTYPE svg PUBLIC "-//W3C//DTD SVG 20010904//EN"
 "http://www.w3.org/TR/2001/REC-SVG-20010904/DTD/svg10.dtd">
<svg version="1.0" xmlns="http://www.w3.org/2000/svg"
 width="480.000000pt" height="360.000000pt" viewBox="0 0 480.000000 360.000000"
 preserveAspectRatio="xMidYMid meet">
<metadata>
Created by potrace 1.16, written by Peter Selinger 2001-2019
</metadata>
<rect width="1" height="360" fill="#000000"/>
<rect x="479" width="1" height="360" fill="#000000"/>
<rect width="480" height="1" fill="#000000"/>
<rect y="359" width="480" height="1" fill="#000000"/>
<g transform="translate(0.000000,360.000000) scale(0.100000,-0.100000)"
fill="#000000" stroke="none">
<path d="M0 2650 c0 -619 3 -950 10 -950 5 0 173 18 372 39 514 56 665 65 960
58 263 -6 360 -17 538 -62 52 -13 109 -27 125 -30 49 -12 209 -6 296 11 44 8
149 36 232 61 102 30 173 46 214 47 72 1 69 -11 -6 -23 -70 -11 -76 -21 -13
-21 29 0 52 -4 52 -10 0 -21 25 -8 82 45 32 30 69 57 81 60 12 2 57 12 100 21
67 14 80 20 88 41 9 23 13 25 58 21 41 -4 51 -1 71 19 12 13 33 26 46 29 13 4
103 1 199 -5 96 -6 230 -11 297 -11 68 0 195 -7 283 -15 88 -8 250 -19 360
-25 110 -5 235 -12 278 -15 l77 -6 0 835 0 836 -2400 0 -2400 0 0 -950z"/>
<path d="M2710 1711 c-14 -4 -20 -10 -15 -13 10 -6 55 7 55 17 0 6 -7 5 -40
-4z"/>
<path d="M2740 1609 c0 -5 5 -7 10 -4 6 3 10 8 10 11 0 2 -4 4 -10 4 -5 0 -10
-5 -10 -11z"/>
<path d="M3483 1588 c-103 -10 -126 -20 -77 -32 40 -10 110 -82 139 -143 36
-76 44 -171 20 -244 -10 -30 -21 -58 -26 -63 -5 -6 -9 -17 -9 -25 0 -9 -29
-44 -64 -78 -83 -80 -148 -103 -241 -84 -102 21 -161 86 -119 132 21 23 52 24
137 4 56 -13 70 -13 113 0 121 36 187 178 135 290 -37 81 -73 96 -263 110 -98
8 -124 -1 -135 -44 l-8 -29 -65 38 c-71 41 -204 71 -316 69 l-59 0 59 -22 c83
-31 82 -44 -3 -53 -39 -3 -69 -10 -66 -14 2 -4 32 -17 65 -29 59 -22 75 -43
34 -46 -10 -1 -27 -6 -37 -12 -17 -9 -16 -11 12 -23 17 -7 29 -16 26 -20 -7
-12 -82 5 -175 40 -314 118 -452 139 -640 100 -383 -81 -771 -66 -1544 59
-166 27 -318 51 -339 54 l-37 6 0 -765 0 -764 2400 0 2400 0 0 770 c0 609 -3
770 -12 770 -7 0 -123 12 -258 26 -203 21 -305 26 -595 29 -192 2 -396 -1
-452 -7z m67 -548 c0 -5 -4 -10 -10 -10 -5 0 -10 5 -10 10 0 6 5 10 10 10 6 0
10 -4 10 -10z"/>
</g>
</svg>
