<?xml version="1.0" standalone="no"?>
<!DOCTYPE svg PUBLIC "-//W3C//DTD SVG 20010904//EN"
 "http://www.w3.org/TR/2001/REC-SVG-20010904/DTD/svg10.dtd">
<svg version="1.0" xmlns="http://www.w3.org/2000/svg"
 width="480.000000pt" height="360.000000pt" viewBox="0 0 480.000000 360.000000"
 preserveAspectRatio="xMidYMid meet">
<metadata>
Created by potrace 1.16, written by Peter Selinger 2001-2019
</metadata>
<rect width="1" height="360" fill="#000000"/>
<rect x="479" width="1" height="360" fill="#000000"/>
<rect width="480" height="1" fill="#000000"/>
<rect y="359" width="480" height="1" fill="#000000"/>
<g transform="translate(0.000000,360.000000) scale(0.100000,-0.100000)"
fill="#000000" stroke="none">
<path d="M2265 2264 c-344 -49 -465 -81 -786 -209 -523 -208 -695 -254 -1079
-291 -102 -10 -189 -21 -194 -26 -6 -5 -2 -8 10 -8 58 0 375 -44 469 -65 61
-14 207 -54 325 -90 898 -270 926 -277 1205 -310 154 -18 145 -17 145 -7 0 8
-157 63 -223 78 -20 5 -41 26 -76 78 -26 39 -66 98 -89 131 l-42 60 0 151 0
152 96 128 c89 120 99 130 143 142 25 7 94 29 153 48 l108 35 37 -20 c21 -10
79 -31 128 -46 131 -39 130 -38 165 -104 18 -33 57 -88 86 -122 30 -35 54 -66
54 -71 0 -5 -5 -41 -11 -80 -8 -54 -8 -90 1 -145 l11 -72 -63 -74 c-35 -41
-76 -99 -93 -128 -26 -47 -36 -56 -75 -67 -134 -39 -210 -65 -210 -73 0 -21
328 3 489 36 174 36 386 106 666 220 398 161 505 186 897 210 60 4 106 11 102
16 -3 5 -18 9 -34 9 -41 0 -268 38 -369 61 -46 11 -246 73 -445 139 -930 306
-942 309 -1261 315 -115 2 -223 1 -240 -1z"/>
</g>
</svg>
