<?xml version="1.0" standalone="no"?>
<!DOCTYPE svg PUBLIC "-//W3C//DTD SVG 20010904//EN"
 "http://www.w3.org/TR/2001/REC-SVG-20010904/DTD/svg10.dtd">
<svg version="1.0" xmlns="http://www.w3.org/2000/svg"
 width="480.000000pt" height="360.000000pt" viewBox="0 0 480.000000 360.000000"
 preserveAspectRatio="xMidYMid meet">
<metadata>
Created by potrace 1.16, written by Peter Selinger 2001-2019
</metadata>
<rect width="1" height="360" fill="#000000"/>
<rect x="479" width="1" height="360" fill="#000000"/>
<rect width="480" height="1" fill="#000000"/>
<rect y="359" width="480" height="1" fill="#000000"/>
<g transform="translate(0.000000,360.000000) scale(0.100000,-0.100000)"
fill="#000000" stroke="none">
<path d="M0 1800 l0 -1800 2400 0 2400 0 0 1800 0 1800 -2400 0 -2400 0 0
-1800z m3121 859 c-14 -42 4 -27 31 24 20 37 23 39 26 19 2 -13 -1 -28 -6 -35
-26 -34 -20 -48 7 -17 35 41 40 27 10 -31 -28 -56 -19 -72 14 -24 30 44 35 36
12 -18 -17 -42 -18 -47 -6 -47 5 0 18 15 30 33 11 17 21 27 21 20 0 -7 -13
-32 -29 -55 -25 -37 -27 -44 -13 -49 11 -4 12 -8 3 -13 -6 -4 -9 -15 -6 -25 4
-13 -10 -24 -61 -49 -40 -20 -68 -41 -71 -52 -3 -11 -9 -21 -14 -21 -5 -1 -14
-2 -19 -3 -13 -1 -80 -66 -80 -76 0 -4 -40 -42 -89 -84 -49 -43 -97 -89 -107
-103 -16 -26 -16 -26 39 -79 68 -64 85 -95 93 -166 5 -44 2 -64 -17 -108 -24
-55 -117 -197 -170 -258 -16 -18 -29 -36 -29 -40 0 -4 -16 -25 -35 -46 -55
-62 -106 -82 -217 -85 -218 -6 -376 70 -444 212 -10 20 -22 37 -27 37 -22 0
-247 -116 -247 -127 0 -8 -13 -13 -31 -13 -25 0 -44 -13 -95 -65 -35 -36 -69
-65 -75 -65 -7 0 -5 8 6 20 10 11 15 26 11 35 -7 19 -43 14 -113 -16 -54 -23
-66 -7 -16 21 l38 20 -55 -6 c-65 -8 -60 7 11 31 l44 15 -52 -6 c-67 -6 -69
10 -5 29 l47 15 -54 1 c-63 1 -63 8 0 19 58 10 56 27 -4 28 -64 2 -69 10 -12
18 53 8 59 23 13 29 -22 3 -15 5 22 6 84 2 130 11 130 27 0 16 16 19 25 4 10
-17 43 -11 58 10 9 13 20 18 31 14 10 -4 29 -1 44 6 81 37 111 50 153 64 83
29 134 68 147 114 14 47 64 116 122 168 27 25 40 45 40 63 0 49 44 113 96 141
38 21 53 37 73 81 l26 54 60 0 c60 0 95 -11 95 -29 0 -6 -15 -25 -32 -44 l-33
-33 25 -19 c45 -35 61 -35 87 -1 17 22 33 31 54 31 42 0 118 56 232 172 73 74
98 105 94 119 -4 16 0 19 24 19 35 0 48 23 30 53 -12 18 -11 19 8 14 17 -4 24
3 42 41 11 26 25 68 30 95 12 54 31 65 22 12 -8 -47 3 -44 25 8 14 35 17 38
20 19 2 -13 -1 -37 -7 -53z"/>
</g>
</svg>
