<?xml version="1.0" standalone="no"?>
<!DOCTYPE svg PUBLIC "-//W3C//DTD SVG 20010904//EN"
 "http://www.w3.org/TR/2001/REC-SVG-20010904/DTD/svg10.dtd">
<svg version="1.0" xmlns="http://www.w3.org/2000/svg"
 width="480.000000pt" height="360.000000pt" viewBox="0 0 480.000000 360.000000"
 preserveAspectRatio="xMidYMid meet">
<metadata>
Created by potrace 1.16, written by Peter Selinger 2001-2019
</metadata>
<rect width="1" height="360" fill="#000000"/>
<rect x="479" width="1" height="360" fill="#000000"/>
<rect width="480" height="1" fill="#000000"/>
<rect y="359" width="480" height="1" fill="#000000"/>
<g transform="translate(0.000000,360.000000) scale(0.100000,-0.100000)"
fill="#000000" stroke="none">
<path d="M0 1800 l0 -1800 388 0 387 0 51 73 c56 78 104 167 104 192 0 21 -63
20 -96 -1 -16 -11 -29 -13 -35 -7 -16 16 14 44 87 83 52 27 70 42 73 60 1 14
55 88 120 165 320 386 341 413 341 459 l0 40 -30 -29 c-28 -27 -30 -27 -30 -8
0 11 7 40 15 63 19 55 19 59 -5 53 -11 -3 -20 -1 -20 5 0 23 45 89 100 147 73
78 166 203 190 258 26 58 50 212 50 321 0 80 -2 87 -17 81 -33 -13 -73 -12
-73 2 0 13 54 215 65 245 6 15 3 16 -25 8 -35 -10 -66 3 -76 32 -3 10 -10 18
-15 18 -5 0 -9 6 -9 14 0 7 -6 19 -13 25 -8 6 -27 43 -42 83 -16 40 -32 77
-37 83 -4 5 -8 19 -8 30 0 12 -8 37 -17 56 -20 40 -22 124 -5 157 10 18 21 22
57 22 75 0 197 -21 275 -46 l75 -25 86 35 c94 38 176 56 251 56 27 0 57 4 67
10 10 5 59 15 109 21 91 12 91 12 111 -12 11 -13 20 -29 21 -36 0 -6 5 -13 11
-15 7 -2 13 -35 14 -83 2 -44 4 -80 5 -80 1 0 3 -13 5 -28 2 -16 8 -34 13 -40
6 -7 15 -39 21 -71 13 -68 14 -142 2 -113 -11 30 -28 1 -36 -63 -4 -30 -11
-62 -16 -72 -5 -10 -13 -27 -19 -38 -5 -11 -10 -29 -10 -40 0 -24 -15 -26 -24
-3 -9 23 -20 6 -34 -52 -10 -39 -9 -65 1 -119 l13 -69 67 -23 c159 -54 217
-131 257 -339 6 -33 20 -78 30 -100 10 -22 21 -74 25 -115 l7 -75 154 -156
c172 -174 176 -183 123 -244 -27 -30 -31 -41 -26 -71 8 -46 22 -63 74 -85 47
-20 53 -37 25 -62 -27 -25 -81 -21 -124 8 -26 18 -41 38 -53 75 l-17 50 -26
-19 c-48 -35 -81 -75 -107 -134 l-25 -58 20 -67 c15 -51 90 -407 90 -428 0 -2
425 -4 945 -4 l945 0 0 1800 0 1800 -2400 0 -2400 0 0 -1800z"/>
<path d="M2010 1029 c-18 -15 -33 -19 -56 -16 -39 7 -63 -16 -88 -83 -23 -59
-108 -217 -164 -305 -68 -106 -144 -195 -235 -275 -45 -40 -127 -114 -182
-165 -55 -51 -124 -113 -153 -139 l-53 -46 348 2 348 3 71 240 c39 132 81 265
93 296 23 60 76 154 119 209 26 33 27 39 22 114 -5 78 -5 78 -24 57 -15 -16
-22 -18 -28 -9 -6 10 -19 2 -48 -29 -23 -24 -43 -43 -45 -43 -2 0 21 41 51 92
30 51 54 98 54 105 0 16 0 16 -30 -8z"/>
<path d="M865 40 c-21 -22 -34 -40 -28 -40 6 0 26 18 43 40 17 22 30 40 28 40
-2 0 -22 -18 -43 -40z"/>
</g>
</svg>
