<?xml version="1.0" standalone="no"?>
<!DOCTYPE svg PUBLIC "-//W3C//DTD SVG 20010904//EN"
 "http://www.w3.org/TR/2001/REC-SVG-20010904/DTD/svg10.dtd">
<svg version="1.0" xmlns="http://www.w3.org/2000/svg"
 width="480.000000pt" height="360.000000pt" viewBox="0 0 480.000000 360.000000"
 preserveAspectRatio="xMidYMid meet">
<metadata>
Created by potrace 1.16, written by Peter Selinger 2001-2019
</metadata>
<rect width="1" height="360" fill="#000000"/>
<rect x="479" width="1" height="360" fill="#000000"/>
<rect width="480" height="1" fill="#000000"/>
<rect y="359" width="480" height="1" fill="#000000"/>
<g transform="translate(0.000000,360.000000) scale(0.100000,-0.100000)"
fill="#000000" stroke="none">
<path d="M2753 3305 c-69 -15 -139 -44 -183 -75 -19 -14 -37 -19 -53 -15 -30
8 -60 -19 -52 -45 4 -12 -10 -44 -39 -89 -48 -74 -71 -140 -81 -231 -3 -30 -8
-72 -12 -94 -3 -27 -2 -36 6 -32 7 5 11 -2 11 -16 1 -22 1 -22 14 -5 13 17 16
15 36 -30 19 -41 23 -45 29 -28 8 19 8 19 22 -3 8 -12 21 -22 30 -22 9 0 22
-7 29 -15 15 -18 35 -20 24 -3 -4 6 -3 8 4 4 14 -8 8 -37 -15 -77 -13 -23 -15
-33 -6 -36 19 -7 63 -44 63 -53 0 -13 121 -125 134 -124 6 1 22 4 34 8 22 7
23 6 17 -16 -8 -23 -7 -23 13 -4 12 10 24 27 27 37 10 30 22 22 27 -18 3 -26
-1 -40 -14 -52 -10 -8 -18 -21 -18 -27 0 -12 -59 -68 -124 -117 -40 -31 -166
-174 -166 -190 0 -5 7 -3 16 4 15 12 16 11 9 -9 -6 -22 -5 -23 14 -12 20 10
20 8 -5 -47 -76 -166 -77 -170 -71 -273 3 -52 15 -123 26 -157 11 -36 15 -63
9 -63 -6 0 -65 25 -132 55 -67 30 -146 59 -176 65 -30 6 -83 20 -116 31 -54
17 -63 24 -79 58 -9 22 -14 44 -10 50 3 6 -3 24 -14 40 -27 37 -26 65 0 102
17 24 18 33 9 44 -10 12 -7 17 13 26 14 6 30 22 36 36 10 21 8 31 -9 57 -11
17 -29 50 -40 72 -28 57 -45 71 -68 52 -9 -9 -38 -19 -64 -22 -25 -4 -61 -17
-79 -29 -57 -39 -70 -73 -85 -235 -7 -81 -25 -201 -39 -267 -21 -101 -25 -136
-20 -220 6 -93 27 -185 44 -185 4 0 12 -20 19 -45 7 -25 15 -44 19 -43 5 0 15
-2 25 -6 14 -7 10 -30 -39 -214 -63 -239 -69 -287 -39 -319 16 -16 28 -20 54
-16 25 5 37 2 43 -10 5 -8 22 -18 37 -22 18 -3 46 -26 73 -59 49 -59 134 -120
155 -112 21 8 17 41 -11 82 -14 20 -25 40 -25 44 0 14 110 41 143 35 24 -5 37
-2 46 9 8 9 25 16 39 16 34 0 71 43 72 83 2 59 -17 190 -50 332 -17 77 -38
173 -45 214 -8 41 -17 82 -20 92 -5 14 1 22 18 30 23 10 38 2 171 -85 117 -77
147 -102 151 -124 3 -15 10 -40 15 -55 10 -31 -9 -147 -53 -322 -36 -141 -63
-284 -77 -395 -6 -52 -18 -122 -25 -155 -8 -33 -13 -61 -11 -62 2 -2 287 -2
633 -1 l631 3 -69 175 c-141 357 -170 418 -305 635 -52 84 -94 162 -94 174 0
13 -12 57 -26 99 -23 66 -27 93 -28 212 0 82 3 146 10 161 6 13 18 61 27 107
11 57 23 92 40 112 14 15 28 46 32 67 6 34 8 36 20 20 7 -9 10 -28 8 -41 -8
-38 15 -40 37 -4 11 18 20 26 20 18 0 -10 3 -11 11 -3 8 8 8 27 -1 69 -22 107
-81 288 -111 343 -17 29 -28 55 -26 58 9 9 57 -29 58 -46 0 -12 2 -11 9 4 6
13 9 15 9 5 2 -26 19 9 27 54 6 38 7 39 19 17 12 -23 12 -22 30 16 10 21 20
32 22 26 3 -7 9 -13 14 -13 5 0 4 11 -1 25 -13 35 -3 57 23 49 17 -5 19 -3 13
12 -5 11 -10 37 -13 59 l-6 40 22 -19 c27 -24 27 -19 -5 55 -27 65 -26 92 1
39 37 -71 21 5 -25 120 -12 30 -32 115 -45 188 -28 159 -50 209 -139 311 -69
79 -145 137 -192 145 -16 3 -53 10 -83 16 -66 12 -80 12 -158 -5z m504 -1097
c-3 -7 -5 -2 -5 12 0 14 2 19 5 13 2 -7 2 -19 0 -25z m4 -491 c-10 -9 -11 -8
-5 6 3 10 9 15 12 12 3 -3 0 -11 -7 -18z m-1502 -681 c-9 -8 -10 -7 -5 7 3 10
7 24 7 30 1 7 3 4 6 -7 3 -10 -1 -23 -8 -30z"/>
</g>
</svg>
