<?xml version="1.0" standalone="no"?>
<!DOCTYPE svg PUBLIC "-//W3C//DTD SVG 20010904//EN"
 "http://www.w3.org/TR/2001/REC-SVG-20010904/DTD/svg10.dtd">
<svg version="1.0" xmlns="http://www.w3.org/2000/svg"
 width="480.000000pt" height="360.000000pt" viewBox="0 0 480.000000 360.000000"
 preserveAspectRatio="xMidYMid meet">
<metadata>
Created by potrace 1.16, written by Peter Selinger 2001-2019
</metadata>
<rect width="1" height="360" fill="#000000"/>
<rect x="479" width="1" height="360" fill="#000000"/>
<rect width="480" height="1" fill="#000000"/>
<rect y="359" width="480" height="1" fill="#000000"/>
<g transform="translate(0.000000,360.000000) scale(0.100000,-0.100000)"
fill="#000000" stroke="none">
<path d="M3413 3435 c32 -31 34 -58 6 -86 -16 -16 -29 -20 -51 -15 -26 5 -29
4 -18 -9 7 -9 11 -17 9 -19 -2 -2 -42 -30 -89 -63 -102 -72 -142 -89 -167 -70
-17 12 -33 0 -26 -21 4 -9 17 -34 30 -54 27 -44 28 -55 7 -97 -18 -35 -16 -69
12 -194 19 -88 16 -96 -41 -97 -16 0 -55 -7 -85 -16 -65 -19 -180 -32 -302
-35 l-87 -1 -45 46 c-25 25 -54 46 -64 46 -10 0 -23 5 -29 11 -8 8 -20 7 -44
-4 -19 -9 -53 -21 -77 -28 -37 -11 -47 -20 -68 -60 -29 -59 -29 -63 -4 -56 13
3 24 -1 31 -14 8 -17 17 -18 63 -13 53 6 56 5 113 -39 32 -24 73 -61 90 -80
43 -47 84 -55 185 -33 44 10 82 15 84 13 8 -7 6 -60 -4 -102 -9 -42 7 -95 29
-95 15 0 0 -20 -21 -28 -17 -6 -16 -10 10 -42 l29 -35 32 38 c24 29 37 37 57
35 28 -3 35 -14 70 -104 l19 -52 -28 -33 c-15 -18 -53 -94 -84 -168 -31 -75
-64 -152 -75 -171 -50 -94 -72 -148 -85 -209 -14 -66 -14 -66 13 -110 20 -32
44 -53 97 -81 69 -37 70 -38 69 -76 -1 -21 -6 -57 -13 -79 -15 -57 -14 -174 4
-260 11 -54 13 -80 5 -94 -14 -27 -13 -63 4 -87 13 -18 12 -27 -2 -76 -16 -54
-18 -56 -56 -61 -52 -7 -89 -36 -97 -76 -12 -58 8 -101 78 -168 37 -36 61 -68
57 -74 -7 -11 -21 -10 -129 10 -84 16 -141 12 -243 -17 -54 -16 -106 -33 -115
-38 -17 -10 -97 -112 -97 -125 0 -14 71 -40 102 -37 32 3 38 10 58 63 8 22 24
36 63 53 29 13 62 29 75 35 52 25 197 2 265 -41 32 -22 37 -30 37 -64 0 -78
-19 -73 326 -71 170 1 314 5 321 7 8 3 13 22 13 45 0 32 -6 44 -37 71 -20 18
-51 39 -70 46 -24 11 -33 20 -33 39 0 13 5 27 10 30 5 3 10 15 10 26 0 10 4
19 10 19 15 0 40 56 40 91 0 22 -9 42 -27 61 -21 22 -24 31 -15 40 20 20 14
85 -15 169 -24 72 -25 82 -13 118 7 22 10 47 6 57 -3 9 3 50 15 92 18 64 19
81 9 121 -6 25 -14 80 -17 121 -5 74 -4 76 31 122 33 43 36 52 36 116 0 48 -9
95 -29 159 -16 50 -39 155 -51 234 -14 93 -30 163 -46 198 l-25 54 22 30 c20
28 21 31 6 77 -14 43 -14 54 0 115 13 57 22 74 57 106 40 37 41 40 39 99 -1
53 -6 65 -39 105 -22 27 -33 49 -28 55 5 5 59 11 119 15 111 7 169 20 159 36
-3 5 -14 9 -25 9 -11 0 -18 4 -14 9 11 19 -16 22 -91 11 -43 -5 -78 -9 -80 -7
-2 1 10 29 26 61 34 66 39 134 16 199 -13 36 -13 39 15 68 37 40 38 68 1 75
-19 4 -38 22 -64 62 -21 31 -49 74 -64 94 l-26 37 21 27 c41 52 21 104 -50
124 l-34 10 28 -25z m240 -752 c17 -10 -22 -22 -77 -22 -31 -1 -46 3 -40 8 14
14 100 25 117 14z m-1339 -38 c-4 -8 -8 -15 -10 -15 -2 0 -4 7 -4 15 0 8 4 15
10 15 5 0 7 -7 4 -15z m513 -11 c-3 -3 -12 -4 -19 -1 -8 3 -5 6 6 6 11 1 17
-2 13 -5z m-94 -11 c-13 -2 -33 -2 -45 0 -13 2 -3 4 22 4 25 0 35 -2 23 -4z
m42 -33 c-49 -23 -81 -25 -88 -6 -6 16 18 22 88 24 l40 1 -40 -19z m526 -1379
c3 -3 17 -55 32 -116 29 -120 34 -220 16 -325 -6 -36 -10 -95 -10 -131 1 -36
-3 -77 -8 -92 l-10 -25 -53 14 c-29 7 -65 14 -79 14 -15 0 -38 9 -52 20 -33
26 -55 113 -39 158 7 22 7 42 0 68 -9 33 -7 92 7 249 7 84 16 141 23 152 15
24 153 35 173 14z"/>
<path d="M1591 3408 c-1 -30 -10 -35 -29 -16 -9 9 -12 9 -12 1 0 -7 5 -15 10
-18 16 -10 2 -25 -23 -26 -19 0 -19 -2 6 -11 15 -5 27 -14 27 -20 0 -5 -30
-45 -67 -89 -55 -63 -72 -77 -90 -73 -13 2 -23 0 -23 -5 0 -5 -9 -7 -20 -4
-24 6 -26 -9 -5 -27 55 -46 63 -77 66 -250 1 -25 4 -47 7 -50 4 -3 13 -20 19
-39 11 -30 10 -37 -3 -52 -9 -10 -21 -15 -28 -13 -23 9 -40 -24 -28 -51 10
-22 9 -25 -13 -31 -16 -4 -32 -20 -42 -42 -17 -35 -16 -35 9 -56 25 -20 26
-23 13 -52 -13 -32 -37 -44 -90 -44 -63 -1 -95 -26 -95 -76 0 -19 77 -102 111
-120 56 -28 112 -13 133 36 11 26 115 145 121 138 1 -2 21 -40 43 -84 l41 -81
-28 -39 c-16 -22 -56 -93 -90 -159 -35 -66 -68 -127 -75 -135 -34 -39 -106
-173 -120 -221 -34 -120 -24 -144 71 -184 104 -43 104 -44 81 -118 -16 -51
-18 -77 -13 -150 4 -57 2 -99 -5 -123 -9 -26 -9 -39 -1 -47 29 -29 -3 -118
-49 -137 -35 -15 -60 -55 -60 -98 0 -25 9 -35 48 -61 27 -17 84 -41 127 -54
43 -12 80 -27 82 -33 2 -7 -10 -17 -27 -23 -38 -13 -170 -147 -170 -172 0 -10
8 -24 19 -31 10 -7 28 -32 40 -55 12 -24 26 -43 31 -43 20 0 9 -38 -16 -55
-20 -13 -25 -23 -21 -43 7 -35 -16 -51 -74 -52 -81 0 -103 -41 -46 -84 22 -16
43 -21 88 -21 74 1 96 18 78 59 -11 23 -10 33 6 62 18 34 108 114 127 114 5 0
38 -11 73 -26 51 -20 69 -23 85 -14 22 12 26 25 10 35 -5 3 -10 10 -10 15 0 9
10 15 96 59 37 19 51 34 66 70 11 25 34 58 51 73 28 24 30 29 19 52 -7 16 -20
26 -32 26 -24 0 -27 26 -6 56 12 17 13 37 6 105 -4 46 -6 87 -4 91 23 37 4
245 -32 341 -8 20 -14 50 -14 65 0 15 -11 53 -24 85 l-24 58 36 27 c48 36 70
90 66 155 -2 29 -8 160 -13 292 -7 201 -11 246 -27 278 -18 37 -18 39 1 73 18
33 18 37 2 82 -36 104 -40 132 -21 159 12 20 15 38 10 77 -5 45 -3 53 15 64
34 22 18 41 -65 77 -43 19 -81 36 -83 39 -3 3 6 19 21 36 24 29 32 51 26 75
-1 6 -4 43 -6 84 -2 41 -8 79 -14 85 -15 15 -12 43 6 71 22 33 13 51 -33 65
-67 22 -202 155 -144 143 16 -4 14 17 -3 23 -21 8 -28 34 -15 50 10 12 9 13
-5 8 -9 -3 -16 -10 -16 -15 0 -20 -19 -7 -28 19 l-10 27 -1 -27z m189 -2082
c70 -146 93 -275 59 -327 -14 -20 -22 -22 -114 -20 -54 1 -106 6 -115 11 -23
12 -41 76 -30 106 5 13 7 37 4 53 -7 33 32 249 48 269 7 8 29 12 55 10 l45 -2
48 -100z"/>
<path d="M0 1566 c0 -410 1 -427 18 -422 10 4 70 29 133 56 137 60 202 115
193 163 -5 30 -91 210 -123 257 -9 14 -23 38 -30 55 -26 60 -124 196 -152 211
-16 8 -29 16 -29 17 0 1 4 16 9 34 7 24 6 35 -5 44 -12 10 -14 -48 -14 -415z"/>
<path d="M2 553 c2 -508 -4 -483 91 -395 29 26 77 66 107 88 30 22 72 53 93
68 20 15 44 38 53 51 23 35 4 83 -52 134 -31 30 -44 49 -44 69 0 35 -33 88
-59 97 -13 4 -24 21 -32 48 -6 23 -24 63 -40 88 -16 25 -29 59 -29 75 0 34
-16 54 -42 54 -11 0 -24 13 -32 33 -13 28 -15 -17 -14 -410z"/>
</g>
</svg>
