<?xml version="1.0" standalone="no"?>
<!DOCTYPE svg PUBLIC "-//W3C//DTD SVG 20010904//EN"
 "http://www.w3.org/TR/2001/REC-SVG-20010904/DTD/svg10.dtd">
<svg version="1.0" xmlns="http://www.w3.org/2000/svg"
 width="480.000000pt" height="360.000000pt" viewBox="0 0 480.000000 360.000000"
 preserveAspectRatio="xMidYMid meet">
<metadata>
Created by potrace 1.16, written by Peter Selinger 2001-2019
</metadata>
<rect width="1" height="360" fill="#000000"/>
<rect x="479" width="1" height="360" fill="#000000"/>
<rect width="480" height="1" fill="#000000"/>
<rect y="359" width="480" height="1" fill="#000000"/>
<g transform="translate(0.000000,360.000000) scale(0.100000,-0.100000)"
fill="#000000" stroke="none">
<path d="M2524 3347 c-56 -59 -84 -96 -84 -111 0 -13 11 -54 25 -91 l26 -68
-75 -77 c-46 -47 -84 -96 -96 -126 -50 -115 -66 -273 -37 -355 8 -24 20 -60
25 -79 9 -33 10 -33 11 -7 2 43 15 32 34 -31 10 -31 27 -68 38 -82 l20 -25 -7
30 -7 30 23 -28 c12 -15 30 -27 39 -26 9 1 29 -3 44 -9 16 -7 32 -12 36 -12 4
0 16 -6 26 -14 18 -13 18 -15 -8 -59 -30 -51 -25 -62 33 -73 22 -5 38 -17 52
-40 11 -19 26 -34 33 -34 19 0 58 -39 74 -75 8 -18 16 -25 18 -17 4 10 9 9 24
-4 10 -9 19 -23 19 -31 0 -20 17 -15 23 7 3 13 10 18 21 14 9 -3 16 -1 16 5 0
20 17 12 25 -11 7 -24 9 -21 20 27 6 27 8 28 17 11 7 -13 12 -15 18 -6 5 7 10
-2 14 -23 6 -35 4 -39 -85 -126 -71 -70 -99 -91 -120 -91 -33 0 -84 -54 -94
-102 -4 -18 -23 -51 -42 -73 -45 -53 -59 -102 -46 -161 10 -43 8 -52 -24 -121
-19 -41 -42 -111 -52 -155 -19 -89 -18 -89 -71 7 -18 33 -45 80 -61 105 -15
25 -37 85 -48 133 -12 48 -32 115 -46 149 -14 34 -25 63 -25 64 0 1 24 7 53
12 28 6 104 20 167 32 153 28 190 39 190 52 0 11 -18 11 -300 -13 l-145 -11
-39 26 c-37 25 -94 46 -127 46 -9 0 -28 -9 -42 -20 -14 -11 -35 -20 -46 -20
-13 0 -29 -12 -40 -32 -19 -30 -71 -58 -115 -61 -14 -2 -40 36 -113 163 -87
153 -96 165 -123 166 -17 1 -36 6 -43 12 -8 7 -18 7 -27 2 -9 -5 -19 -5 -26 1
-9 7 -25 -3 -58 -35 l-45 -46 96 -167 c52 -93 100 -174 106 -181 7 -9 7 -16
-1 -24 -17 -17 -15 -41 9 -106 12 -31 20 -75 20 -98 -2 -40 48 -203 69 -229 6
-7 32 -18 58 -25 26 -7 61 -23 77 -34 17 -12 91 -53 165 -91 129 -68 136 -73
160 -121 41 -81 55 -97 206 -229 79 -70 144 -132 144 -139 0 -29 -24 -92 -37
-100 -21 -11 -53 -85 -53 -121 0 -17 9 -48 20 -70 11 -22 20 -59 20 -82 l0
-43 635 0 635 0 0 26 c0 14 -7 41 -16 60 -24 49 -101 132 -126 136 -19 3 -24
13 -35 83 -34 212 -53 413 -47 500 6 83 5 92 -16 118 -18 23 -29 28 -49 24
-25 -5 -26 -4 -23 34 2 21 7 39 10 39 3 0 26 -10 50 -21 37 -18 55 -21 114
-16 79 7 86 10 68 32 -11 13 -4 15 60 15 l72 0 -16 25 c-16 25 -16 25 12 25
65 0 122 13 113 24 -18 22 29 124 50 110 5 -3 9 -27 9 -55 0 -50 11 -63 29
-31 18 32 25 -14 8 -56 -16 -39 -43 -199 -35 -207 2 -2 26 25 53 60 27 36 50
63 52 61 2 -2 -3 -32 -11 -67 -8 -35 -18 -104 -21 -154 -6 -83 -5 -88 9 -71 9
11 17 25 18 30 1 6 5 -45 8 -114 l5 -125 44 60 c36 50 42 55 36 30 -12 -50
-25 -138 -25 -168 l0 -28 31 18 c17 10 44 34 60 53 34 41 35 39 9 -68 -26
-108 -25 -111 9 -78 l29 28 -9 -38 c-14 -63 -11 -72 16 -39 14 17 25 24 25 18
0 -28 18 -10 30 30 13 46 59 141 65 135 2 -2 -7 -44 -20 -93 -24 -94 -56 -287
-48 -295 2 -2 9 2 14 10 9 12 10 11 6 -5 -3 -11 -8 -28 -12 -37 -7 -17 6 -18
194 -18 l201 0 0 37 c0 58 22 217 31 227 18 19 20 -24 5 -97 -9 -42 -16 -97
-16 -122 l0 -45 40 0 40 0 0 840 c0 633 -3 840 -12 840 -19 0 -238 129 -328
193 -117 85 -301 273 -375 385 -33 50 -63 92 -66 92 -3 0 -11 -19 -18 -41 -7
-23 -25 -53 -39 -68 -15 -14 -46 -55 -70 -91 -67 -102 -270 -331 -340 -384
-35 -26 -65 -46 -66 -44 -1 1 -14 18 -29 36 -25 32 -27 39 -27 138 0 86 3 104
15 104 8 0 15 7 15 15 0 30 19 14 33 -27 11 -30 16 -36 16 -20 1 25 4 26 32
12 22 -12 22 -17 19 123 -1 53 2 97 7 97 18 0 53 -60 53 -90 0 -16 5 -30 10
-30 6 0 10 7 10 15 0 8 7 15 16 15 13 0 14 3 6 13 -8 10 -8 39 0 105 10 84 13
90 30 81 25 -13 23 -2 -7 33 -28 33 -34 58 -8 37 14 -12 14 -10 -2 21 -9 19
-39 71 -66 115 -35 59 -56 110 -79 193 -50 187 -77 244 -145 315 -135 141
-277 228 -389 241 -76 8 -90 17 -104 63 -23 76 -45 88 -200 101 l-84 8 -84
-89z m-26 -1022 c-3 -3 -9 2 -12 12 -6 14 -5 15 5 6 7 -7 10 -15 7 -18z m82
-26 c0 -6 -4 -7 -10 -4 -5 3 -10 11 -10 16 0 6 5 7 10 4 6 -3 10 -11 10 -16z
m785 -375 c8 -20 15 -57 15 -82 l0 -45 -30 59 c-16 32 -25 61 -20 62 6 2 10
12 10 23 0 29 8 23 25 -17z m-1511 -400 c4 -14 18 -43 31 -64 19 -31 29 -38
50 -35 18 2 31 -5 43 -22 9 -13 35 -48 58 -76 44 -56 74 -108 74 -129 0 -28
-201 188 -245 263 -49 83 -51 89 -31 89 8 0 17 -12 20 -26z m1991 -384 c3 -5
1 -10 -4 -10 -6 0 -11 5 -11 10 0 6 2 10 4 10 3 0 8 -4 11 -10z m-455 -340
c10 -37 40 -321 40 -379 0 -37 -15 -16 -50 74 -31 76 -32 85 -26 175 6 94 16
170 22 170 2 0 8 -18 14 -40z"/>
</g>
</svg>
