<?xml version="1.0" standalone="no"?>
<!DOCTYPE svg PUBLIC "-//W3C//DTD SVG 20010904//EN"
 "http://www.w3.org/TR/2001/REC-SVG-20010904/DTD/svg10.dtd">
<svg version="1.0" xmlns="http://www.w3.org/2000/svg"
 width="480.000000pt" height="360.000000pt" viewBox="0 0 480.000000 360.000000"
 preserveAspectRatio="xMidYMid meet">
<metadata>
Created by potrace 1.16, written by Peter Selinger 2001-2019
</metadata>
<rect width="1" height="360" fill="#000000"/>
<rect x="479" width="1" height="360" fill="#000000"/>
<rect width="480" height="1" fill="#000000"/>
<rect y="359" width="480" height="1" fill="#000000"/>
<g transform="translate(0.000000,360.000000) scale(0.100000,-0.100000)"
fill="#000000" stroke="none">
<path d="M3335 3576 c-85 -30 -152 -66 -190 -105 -25 -24 -33 -27 -55 -19 -14
5 -67 9 -119 9 -93 -1 -106 -4 -203 -53 -13 -6 -21 -2 -33 22 -52 101 -370
137 -650 75 -105 -23 -135 -34 -157 -55 -31 -32 -48 -98 -27 -110 10 -7 10
-12 1 -23 -10 -11 -9 -17 3 -27 9 -8 13 -21 9 -33 -6 -19 8 -58 33 -88 8 -9
13 -20 12 -25 -5 -27 5 -48 37 -84 28 -30 34 -43 26 -53 -9 -10 0 -24 35 -60
25 -26 42 -47 37 -47 -18 0 -34 -90 -34 -188 0 -122 44 -312 72 -312 11 0 7
-30 -13 -102 -8 -32 -14 -39 -32 -36 -19 3 -22 -3 -29 -47 -9 -55 -70 -300
-82 -327 -6 -12 -2 -17 16 -20 23 -3 23 -5 24 -133 1 -146 10 -226 28 -250 9
-13 16 9 34 122 28 178 43 229 65 225 13 -2 17 4 17 25 1 36 76 303 90 317 13
13 13 29 1 21 -18 -10 -22 14 -8 47 l14 33 17 -34 c10 -18 16 -45 13 -60 -2
-14 -16 -84 -31 -154 -14 -71 -26 -155 -26 -188 0 -45 -5 -67 -21 -89 -19 -24
-21 -38 -16 -88 5 -59 4 -61 -30 -94 -36 -34 -74 -102 -68 -122 2 -6 17 -56
34 -111 25 -81 51 -201 51 -237 0 -3 -20 -18 -45 -33 -52 -30 -93 -86 -102
-138 -6 -41 13 -65 99 -124 53 -36 58 -51 61 -213 l2 -95 -163 -245 -164 -245
793 -3 c436 -1 794 0 796 2 2 2 -15 80 -37 172 -41 164 -42 173 -37 294 3 69
14 157 23 195 12 45 18 103 17 163 -1 94 7 108 27 47 9 -28 8 -46 -4 -89 -24
-81 -21 -113 13 -147 16 -16 36 -29 44 -29 10 0 13 -7 10 -20 -3 -11 0 -40 6
-65 6 -25 13 -80 16 -123 2 -42 11 -124 21 -182 14 -92 19 -134 23 -202 1 -16
14 -18 131 -18 l130 0 -6 58 c-3 31 -10 74 -14 95 -4 21 -6 46 -3 57 3 11 2
28 -2 37 -10 22 -16 76 -15 122 0 18 -5 40 -11 48 -7 7 -9 17 -5 21 14 13 45
-38 50 -81 23 -177 36 -298 36 -325 l0 -32 316 0 316 0 -6 28 c-2 15 -8 54
-11 87 -14 133 -55 239 -150 390 -134 212 -191 290 -249 346 l-66 64 6 78 c8
89 -1 107 -71 138 -39 17 -117 19 -156 4 -25 -10 -47 20 -140 187 -68 123 -98
166 -157 226 l-73 74 15 33 c9 18 16 44 16 58 0 25 -23 57 -41 57 -10 0 -13
63 -3 73 9 9 29 -14 42 -48 9 -25 11 -26 11 -8 1 12 16 98 35 190 19 92 40
205 46 251 10 63 16 82 29 83 9 1 51 1 94 0 74 -1 81 1 108 28 16 16 29 38 29
48 -1 34 -46 128 -128 264 -45 76 -82 140 -82 143 0 4 13 0 28 -8 61 -31 139
-56 177 -56 35 0 42 4 53 29 7 15 10 35 7 43 -4 9 0 18 9 21 9 4 12 14 9 27
-3 12 1 28 11 39 16 18 17 63 1 104 -4 9 -3 17 3 17 18 0 22 31 11 73 -8 30
-8 46 2 63 9 19 9 26 0 38 -7 8 -10 19 -7 25 4 5 1 21 -6 36 -9 21 -9 28 1 34
9 6 8 18 -4 55 -9 26 -13 55 -10 66 3 10 1 21 -5 25 -6 4 -26 37 -45 74 -31
62 -38 69 -77 81 -24 6 -113 14 -198 16 -144 4 -160 2 -225 -20z"/>
</g>
</svg>
