<?xml version="1.0" standalone="no"?>
<!DOCTYPE svg PUBLIC "-//W3C//DTD SVG 20010904//EN"
 "http://www.w3.org/TR/2001/REC-SVG-20010904/DTD/svg10.dtd">
<svg version="1.0" xmlns="http://www.w3.org/2000/svg"
 width="480.000000pt" height="360.000000pt" viewBox="0 0 480.000000 360.000000"
 preserveAspectRatio="xMidYMid meet">
<metadata>
Created by potrace 1.16, written by Peter Selinger 2001-2019
</metadata>
<rect width="1" height="360" fill="#000000"/>
<rect x="479" width="1" height="360" fill="#000000"/>
<rect width="480" height="1" fill="#000000"/>
<rect y="359" width="480" height="1" fill="#000000"/>
<g transform="translate(0.000000,360.000000) scale(0.100000,-0.100000)"
fill="#000000" stroke="none">
<path d="M4770 2400 c-14 -4 -49 -8 -77 -9 -58 -1 -64 -8 -32 -37 l21 -19 -47
-10 -48 -11 39 -30 c21 -17 69 -51 107 -78 l67 -47 0 125 c0 70 -1 126 -2 125
-2 -1 -14 -5 -28 -9z"/>
<path d="M3210 1560 c-15 -29 7 -53 96 -105 35 -21 67 -42 70 -47 9 -14 -35
-56 -70 -67 -48 -15 -87 -19 -289 -36 -196 -16 -237 -25 -237 -49 0 -49 46
-76 170 -101 47 -9 130 -29 185 -45 106 -31 341 -95 388 -106 15 -3 27 -11 27
-18 0 -6 25 -65 56 -131 30 -66 61 -138 69 -160 31 -95 75 -248 99 -350 28
-114 39 -133 97 -170 42 -27 188 -75 228 -75 74 0 268 69 520 185 93 42 131
55 153 51 l28 -5 0 344 0 345 -45 0 c-40 0 -47 -4 -82 -45 -26 -31 -45 -45
-63 -45 -14 0 -50 -13 -80 -28 -44 -22 -59 -36 -78 -74 -20 -42 -35 -54 -125
-107 -101 -59 -102 -60 -113 -38 -19 36 -44 173 -59 314 -15 146 -26 175 -82
212 -33 21 -35 25 -28 59 14 69 12 97 -7 94 -10 -1 -32 5 -50 15 -35 18 -127
19 -160 2 -13 -7 -38 1 -95 29 -43 22 -91 42 -108 46 -16 4 -82 31 -145 61
-93 44 -129 56 -186 61 -67 6 -73 5 -84 -16z"/>
<path d="M2340 15 l-65 -13 135 0 c75 0 126 3 115 7 -38 15 -120 18 -185 6z"/>
</g>
</svg>
