<?xml version="1.0" standalone="no"?>
<!DOCTYPE svg PUBLIC "-//W3C//DTD SVG 20010904//EN"
 "http://www.w3.org/TR/2001/REC-SVG-20010904/DTD/svg10.dtd">
<svg version="1.0" xmlns="http://www.w3.org/2000/svg"
 width="480.000000pt" height="360.000000pt" viewBox="0 0 480.000000 360.000000"
 preserveAspectRatio="xMidYMid meet">
<metadata>
Created by potrace 1.16, written by Peter Selinger 2001-2019
</metadata>
<rect width="1" height="360" fill="#000000"/>
<rect x="479" width="1" height="360" fill="#000000"/>
<rect width="480" height="1" fill="#000000"/>
<rect y="359" width="480" height="1" fill="#000000"/>
<g transform="translate(0.000000,360.000000) scale(0.100000,-0.100000)"
fill="#000000" stroke="none">
<path d="M22 3565 l-22 -35 0 -1732 0 -1732 22 -33 23 -33 953 0 952 0 -6 28
c-4 15 -17 50 -30 78 -12 28 -37 109 -55 180 -32 124 -34 136 -33 314 1 196
11 271 58 430 87 297 271 569 501 743 201 153 329 292 431 474 151 267 212
517 201 828 -7 190 -31 305 -96 463 l-25 62 -1426 0 -1425 0 -23 -35z m1698
-288 c101 -47 173 -141 200 -260 15 -65 5 -148 -26 -213 -24 -50 -99 -123
-165 -159 -49 -27 -62 -30 -149 -30 -88 0 -100 2 -163 34 -53 27 -78 47 -111
90 -59 79 -68 104 -73 206 -5 81 -3 96 20 145 39 86 141 177 231 206 62 21
170 12 236 -19z"/>
<path d="M4776 3578 c10 -13 20 -25 21 -27 2 -2 3 8 3 22 0 21 -5 27 -22 27
-21 0 -21 0 -2 -22z"/>
<path d="M3073 1030 c-104 -37 -204 -127 -250 -225 -25 -54 -28 -70 -27 -160
1 -87 4 -107 28 -157 103 -217 364 -301 564 -181 151 91 224 224 208 381 -8
78 -52 176 -104 234 -99 110 -281 157 -419 108z"/>
<path d="M4780 15 c-10 -12 -10 -15 4 -15 9 0 16 7 16 15 0 8 -2 15 -4 15 -2
0 -9 -7 -16 -15z"/>
</g>
</svg>
