<?xml version="1.0" standalone="no"?>
<!DOCTYPE svg PUBLIC "-//W3C//DTD SVG 20010904//EN"
 "http://www.w3.org/TR/2001/REC-SVG-20010904/DTD/svg10.dtd">
<svg version="1.0" xmlns="http://www.w3.org/2000/svg"
 width="480.000000pt" height="360.000000pt" viewBox="0 0 480.000000 360.000000"
 preserveAspectRatio="xMidYMid meet">
<metadata>
Created by potrace 1.16, written by Peter Selinger 2001-2019
</metadata>
<rect width="1" height="360" fill="#000000"/>
<rect x="479" width="1" height="360" fill="#000000"/>
<rect width="480" height="1" fill="#000000"/>
<rect y="359" width="480" height="1" fill="#000000"/>
<g transform="translate(0.000000,360.000000) scale(0.100000,-0.100000)"
fill="#000000" stroke="none">
<path d="M0 2963 c0 -605 1 -635 18 -621 51 45 151 74 167 47 11 -16 -3 -55
-31 -89 -16 -18 -23 -35 -18 -40 14 -14 355 -20 546 -10 193 11 235 20 361 80
184 87 427 122 710 102 l165 -12 61 60 c58 56 69 79 55 114 -5 12 -18 14 -68
9 -100 -9 -110 28 -29 101 20 17 48 39 64 49 31 20 34 35 45 186 6 93 7 95 47
138 67 73 318 183 417 183 43 0 89 -28 167 -101 57 -54 66 -56 158 -34 76 19
126 19 151 1 19 -14 19 -15 -2 -43 -11 -15 -49 -50 -85 -77 -35 -27 -66 -53
-67 -58 -2 -4 19 -36 47 -71 46 -55 49 -62 33 -72 -10 -5 -16 -18 -14 -28 5
-23 -6 -68 -16 -65 -11 3 -82 -64 -82 -79 0 -7 11 -23 25 -35 30 -26 31 -39 5
-63 -11 -10 -20 -24 -20 -32 0 -7 -13 -37 -30 -66 -16 -28 -32 -71 -36 -94 -3
-22 -19 -60 -35 -84 -15 -24 -27 -44 -26 -45 1 -1 58 -24 126 -52 103 -42 128
-49 147 -40 20 9 41 2 141 -46 65 -31 125 -61 133 -65 8 -4 17 -18 20 -31 5
-21 52 -53 262 -179 23 -13 31 -14 48 -3 30 18 61 15 67 -7 3 -14 15 -21 37
-23 23 -2 32 -8 34 -25 2 -14 11 -23 25 -25 16 -2 23 -11 25 -31 2 -15 12 -32
23 -37 14 -8 18 -17 13 -34 -4 -19 6 -32 56 -76 77 -66 230 -244 320 -370 37
-52 118 -179 179 -281 133 -222 150 -241 225 -247 66 -5 88 -25 116 -105 25
-70 27 -173 4 -205 -19 -28 -46 -28 -101 -1 -108 52 -201 169 -371 466 -60
106 -136 229 -168 274 -73 101 -232 279 -307 343 l-56 48 -40 -39 c-34 -33
-40 -46 -46 -96 -11 -89 -15 -91 -175 -84 -119 5 -151 3 -265 -19 -195 -38
-211 -39 -239 -20 -36 23 -42 21 -76 -28 -39 -57 -38 -75 5 -330 25 -147 41
-285 55 -488 11 -156 23 -300 26 -320 l6 -38 934 0 934 0 0 1800 0 1800 -2400
0 -2400 0 0 -637z"/>
<path d="M1380 2263 c-176 -28 -241 -51 -363 -131 -86 -56 -141 -77 -249 -95
l-73 -13 -12 -89 c-31 -242 0 -1056 52 -1362 28 -163 92 -382 154 -525 l20
-48 459 0 459 0 16 42 c9 24 35 101 57 173 132 419 141 439 277 643 132 200
137 214 129 382 -3 74 -15 205 -25 290 -11 85 -22 199 -26 253 -4 53 -11 100
-16 103 -5 3 -9 -4 -9 -15 0 -12 -4 -21 -9 -21 -17 0 -21 32 -11 98 5 37 10
83 12 103 l4 37 -52 5 c-67 7 -106 28 -176 95 l-58 55 -112 13 c-103 12 -388
17 -448 7z"/>
<path d="M0 1059 l0 -1059 244 0 243 0 -67 134 c-109 217 -191 494 -250 844
-50 296 -63 478 -57 805 4 218 3 287 -6 287 -7 0 -33 11 -59 24 l-48 23 0
-1058z"/>
<path d="M2815 1948 c15 -48 59 -118 68 -109 14 14 -2 90 -24 112 -27 27 -52
25 -44 -3z"/>
<path d="M3186 1768 c-14 -20 -13 -24 20 -60 l35 -39 -18 -31 c-10 -17 -51
-60 -90 -96 -40 -36 -71 -67 -69 -70 13 -12 193 40 298 88 40 17 78 58 78 83
0 5 -109 73 -192 120 l-47 27 -15 -22z"/>
</g>
</svg>
