<?xml version="1.0" standalone="no"?>
<!DOCTYPE svg PUBLIC "-//W3C//DTD SVG 20010904//EN"
 "http://www.w3.org/TR/2001/REC-SVG-20010904/DTD/svg10.dtd">
<svg version="1.0" xmlns="http://www.w3.org/2000/svg"
 width="480.000000pt" height="360.000000pt" viewBox="0 0 480.000000 360.000000"
 preserveAspectRatio="xMidYMid meet">
<metadata>
Created by potrace 1.16, written by Peter Selinger 2001-2019
</metadata>
<rect width="1" height="360" fill="#000000"/>
<rect x="479" width="1" height="360" fill="#000000"/>
<rect width="480" height="1" fill="#000000"/>
<rect y="359" width="480" height="1" fill="#000000"/>
<g transform="translate(0.000000,360.000000) scale(0.100000,-0.100000)"
fill="#000000" stroke="none">
<path d="M2890 3499 c-119 -15 -256 -77 -267 -120 -4 -15 -11 -18 -27 -12 -51
17 -172 -5 -201 -37 -18 -20 -18 -20 -40 4 -30 33 -119 50 -209 41 -70 -6
-240 -56 -272 -79 -25 -19 -29 -87 -6 -127 10 -19 44 -84 76 -144 76 -148 77
-149 123 -142 l38 6 -3 -55 c-3 -46 1 -65 28 -117 26 -52 31 -69 25 -104 -3
-24 -10 -43 -16 -43 -5 0 -9 -30 -10 -67 0 -38 -4 -94 -8 -127 -5 -42 -4 -59
5 -63 7 -2 15 -30 19 -62 5 -48 3 -63 -15 -93 -11 -20 -26 -67 -34 -104 -17
-93 -29 -111 -76 -124 -22 -6 -46 -20 -55 -33 -18 -26 -20 -76 -3 -112 9 -19
8 -31 -2 -52 -8 -16 -14 -33 -15 -39 0 -6 -5 -18 -11 -25 -7 -8 -15 -25 -18
-39 -4 -14 -11 -34 -16 -45 -5 -11 -25 -65 -45 -120 -21 -58 -61 -139 -96
-193 -63 -99 -65 -108 -48 -175 11 -40 10 -46 -16 -87 -19 -29 -30 -63 -33
-95 l-4 -50 59 -55 60 -55 7 -72 c4 -39 16 -108 26 -152 33 -136 70 -189 136
-194 40 -3 41 -24 5 -104 -33 -77 -91 -221 -91 -228 0 -3 333 -5 740 -5 407 0
740 1 740 3 0 1 -13 46 -29 100 -15 53 -25 97 -20 97 4 0 10 -8 13 -18 3 -9
22 -41 41 -71 20 -30 35 -64 33 -75 -3 -27 16 -33 20 -6 2 12 11 20 22 20 35
0 69 42 80 96 9 52 1 180 -21 296 -9 51 -20 248 -20 350 0 20 11 61 25 91 l24
56 -115 243 c-113 238 -193 456 -193 527 0 16 9 50 20 76 11 26 20 51 20 56 0
5 -27 9 -59 9 l-59 0 -15 68 c-9 37 -18 96 -22 132 -13 114 -39 156 -124 199
-38 20 -61 55 -46 69 4 4 10 2 12 -4 2 -6 10 -20 18 -30 12 -16 16 -17 24 -5
7 11 10 9 16 -8 3 -11 11 -21 16 -21 12 0 13 -2 -16 75 -27 72 -27 98 0 45 26
-51 27 -29 2 41 -14 35 -27 78 -31 94 l-6 30 16 -28 c8 -16 17 -27 20 -25 2 3
-3 42 -12 89 -19 108 -25 177 -14 184 4 3 25 7 46 10 34 4 73 34 74 57 0 4
-27 47 -60 96 -33 48 -60 94 -60 100 0 9 17 11 64 6 58 -6 65 -5 75 14 6 11 8
28 5 36 -3 9 -1 16 6 16 7 0 9 8 5 19 -3 11 -1 22 4 25 6 4 9 67 7 156 l-2
150 -34 35 c-30 31 -39 35 -84 34 -28 -1 -80 -5 -116 -10z m-672 -1232 c-13
-26 -22 -14 -14 20 6 20 10 23 16 13 5 -8 4 -22 -2 -33z m726 -699 c14 -168
37 -395 47 -452 6 -32 8 -60 6 -62 -2 -3 -16 13 -30 35 -16 23 -22 42 -16 48
5 5 5 20 0 38 -23 72 -54 316 -49 387 8 128 32 131 42 6z m-928 -1174 c-18
-43 -26 -54 -31 -42 -6 16 42 114 52 105 2 -3 -7 -31 -21 -63z"/>
</g>
</svg>
