<?xml version="1.0" standalone="no"?>
<!DOCTYPE svg PUBLIC "-//W3C//DTD SVG 20010904//EN"
 "http://www.w3.org/TR/2001/REC-SVG-20010904/DTD/svg10.dtd">
<svg version="1.0" xmlns="http://www.w3.org/2000/svg"
 width="480.000000pt" height="360.000000pt" viewBox="0 0 480.000000 360.000000"
 preserveAspectRatio="xMidYMid meet">
<metadata>
Created by potrace 1.16, written by Peter Selinger 2001-2019
</metadata>
<rect width="1" height="360" fill="#000000"/>
<rect x="479" width="1" height="360" fill="#000000"/>
<rect width="480" height="1" fill="#000000"/>
<rect y="359" width="480" height="1" fill="#000000"/>
<g transform="translate(0.000000,360.000000) scale(0.100000,-0.100000)"
fill="#000000" stroke="none">
<path d="M1664 3568 c3 -18 22 -66 42 -107 29 -58 58 -95 128 -165 50 -49 82
-86 71 -82 -30 11 -123 28 -180 31 -27 2 -84 15 -125 29 -41 14 -82 26 -91 26
-20 0 -41 -30 -58 -82 -11 -32 -19 -39 -64 -54 -68 -22 -167 -81 -167 -100 0
-29 21 -54 45 -54 37 0 71 -60 104 -181 44 -160 44 -156 16 -238 -34 -100 -33
-103 10 -85 19 7 37 14 41 14 3 0 2 -28 -2 -62 -9 -76 -6 -158 7 -174 5 -6 9
-40 8 -75 -1 -47 -7 -71 -23 -92 -17 -24 -21 -46 -24 -138 -3 -81 -1 -109 8
-109 18 0 3 -136 -22 -188 -17 -36 -20 -62 -20 -150 3 -260 2 -276 -13 -292
-20 -22 -35 -107 -35 -201 0 -53 4 -79 11 -79 17 0 3 -165 -16 -193 -17 -27
-37 -192 -29 -238 4 -19 11 -43 17 -53 12 -23 9 -186 -3 -201 -15 -18 -25
-108 -22 -192 l4 -83 93 0 94 0 7 56 c10 86 0 210 -19 232 -26 28 -23 146 4
207 28 63 34 259 8 278 -12 10 -14 27 -11 87 2 43 10 82 18 90 33 39 53 260
25 294 -17 20 -7 153 14 176 32 36 50 251 23 278 -9 9 -12 36 -9 80 5 101 13
105 55 26 20 -38 58 -98 85 -134 69 -92 329 -380 484 -536 91 -93 127 -136
121 -145 -34 -59 -91 -122 -115 -131 -20 -7 -36 -25 -54 -63 -15 -29 -37 -68
-50 -86 -14 -18 -30 -48 -36 -68 -7 -20 -52 -102 -101 -184 -98 -162 -174
-312 -217 -429 l-11 -28 875 0 c481 0 875 3 875 8 0 4 -5 57 -10 118 -10 102
-9 124 15 262 23 139 65 272 85 272 4 0 10 -9 13 -20 4 -15 12 -19 40 -17 20
1 44 10 54 20 13 11 23 13 29 7 7 -7 16 -4 29 10 11 12 31 20 50 20 18 0 38 7
45 15 7 8 18 15 26 15 7 0 21 8 31 19 10 10 30 21 44 24 14 4 46 25 71 47 26
22 52 40 60 40 7 0 37 25 66 55 29 30 59 55 67 55 15 0 136 151 170 213 37 67
39 99 15 175 -27 82 -74 173 -103 200 -34 31 -92 60 -134 67 -63 11 -73 16
-73 35 0 37 33 57 130 80 52 12 152 41 221 65 l125 42 84 -63 c79 -60 149 -94
192 -94 17 0 18 15 18 250 0 146 -4 250 -9 250 -5 0 -60 -11 -123 -24 -62 -14
-158 -30 -213 -36 -55 -6 -125 -20 -155 -31 -61 -21 -266 -46 -293 -36 -16 6
-16 9 -2 36 8 17 15 36 15 43 0 28 21 41 75 49 34 4 73 18 96 33 43 29 79 90
79 133 0 51 -56 112 -102 113 -20 0 -24 -15 -8 -25 21 -13 8 -26 -62 -58 -101
-47 -116 -51 -145 -36 -29 16 -56 3 -61 -29 -2 -14 -20 -27 -58 -42 -54 -22
-56 -22 -95 -5 -33 15 -45 16 -78 7 -21 -7 -44 -19 -51 -27 -11 -13 -17 -11
-50 19 -52 46 -153 114 -208 139 -26 11 -82 24 -127 28 -44 4 -122 14 -173 23
-94 17 -160 18 -117 2 11 -4 27 -10 35 -13 26 -8 -7 -20 -95 -34 -72 -12 -77
-14 -52 -23 l28 -10 -93 -94 c-67 -67 -86 -92 -68 -87 l25 8 -20 -23 -20 -23
29 7 c24 6 27 5 19 -6 -15 -20 -44 -98 -35 -98 12 1 42 27 42 37 0 6 7 16 15
23 14 11 14 10 6 -14 -29 -73 -40 -86 -79 -86 -21 0 -56 11 -81 25 -67 39 -76
34 -83 -50 -2 -21 -13 -36 -38 -53 -28 -19 -37 -34 -46 -74 -12 -51 -25 -68
-57 -68 -10 0 -22 -10 -27 -22 -5 -13 -18 -36 -29 -53 -33 -47 -26 -80 33
-179 30 -50 58 -104 62 -121 4 -16 4 -28 2 -25 -3 3 -24 28 -48 55 -79 94
-295 306 -388 382 -51 42 -94 85 -97 97 -2 11 -6 55 -10 96 -3 41 -26 176 -51
300 -25 124 -46 229 -47 235 -1 5 13 11 31 13 17 2 32 7 32 13 0 5 -4 9 -9 9
-15 0 -83 124 -85 155 -1 27 2 30 31 33 21 2 30 7 27 16 -5 12 34 31 44 22 2
-2 10 -32 18 -65 19 -85 57 -155 117 -219 62 -64 109 -94 207 -127 40 -14 81
-32 90 -40 10 -9 23 -43 29 -75 23 -114 51 -155 78 -111 6 10 26 21 44 25 47
9 59 23 59 70 0 96 9 115 64 143 134 68 205 136 259 251 30 64 32 73 32 192 0
116 -2 129 -28 181 -15 31 -42 76 -60 100 -47 62 -45 120 5 181 59 72 98 140
118 207 11 35 20 65 20 67 0 2 -277 4 -616 4 l-616 0 6 -32z m-261 -535 c-3
-27 -7 -50 -9 -52 -4 -5 -94 31 -94 38 0 10 86 61 102 61 4 0 5 -21 1 -47z
m106 -1023 c15 -70 15 -98 -1 -82 -7 7 -22 12 -35 12 -21 0 -23 5 -23 48 0 26
3 57 6 69 10 38 41 11 53 -47z m2421 66 c0 -2 -8 -10 -17 -17 -16 -13 -17 -12
-4 4 13 16 21 21 21 13z m-2448 -338 c-9 -36 -22 -17 -22 31 0 74 13 97 21 36
3 -27 4 -58 1 -67z m16 -110 c10 3 12 -8 7 -50 -10 -88 -14 -100 -31 -94 -9 3
-27 6 -41 6 -26 0 -26 0 -20 65 8 81 10 85 45 76 15 -4 33 -6 40 -3z m-48
-275 c0 -56 -9 -93 -21 -93 -10 0 -12 48 -3 103 9 52 24 46 24 -10z m10 -247
c0 -79 -6 -87 -54 -79 l-38 6 6 65 c4 36 9 68 11 72 2 3 20 4 39 2 l36 -4 0
-62z m-50 -241 c0 -37 -4 -65 -10 -65 -6 0 -10 28 -10 65 0 37 4 65 10 65 6 0
10 -28 10 -65z m16 -302 c-3 -8 -21 -13 -46 -13 -45 0 -45 1 -34 97 7 51 7 52
43 55 l36 3 3 -64 c2 -35 1 -70 -2 -78z m-36 -178 c0 -43 -4 -75 -10 -75 -11
0 -14 133 -3 143 12 13 13 7 13 -68z m34 -206 c8 -42 7 -92 -2 -104 -4 -6 -24
-16 -44 -22 l-38 -11 0 78 c0 83 2 86 56 89 16 1 23 -6 28 -30z"/>
</g>
</svg>
