<?xml version="1.0" standalone="no"?>
<!DOCTYPE svg PUBLIC "-//W3C//DTD SVG 20010904//EN"
 "http://www.w3.org/TR/2001/REC-SVG-20010904/DTD/svg10.dtd">
<svg version="1.0" xmlns="http://www.w3.org/2000/svg"
 width="480.000000pt" height="360.000000pt" viewBox="0 0 480.000000 360.000000"
 preserveAspectRatio="xMidYMid meet">
<metadata>
Created by potrace 1.16, written by Peter Selinger 2001-2019
</metadata>
<rect width="1" height="360" fill="#000000"/>
<rect x="479" width="1" height="360" fill="#000000"/>
<rect width="480" height="1" fill="#000000"/>
<rect y="359" width="480" height="1" fill="#000000"/>
<g transform="translate(0.000000,360.000000) scale(0.100000,-0.100000)"
fill="#000000" stroke="none">
<path d="M0 2630 c0 -533 4 -970 8 -970 20 0 186 135 300 244 68 65 128 115
135 113 7 -3 59 -27 117 -52 58 -26 145 -65 195 -87 49 -22 139 -68 201 -103
144 -82 215 -112 303 -126 81 -14 192 -2 299 30 62 19 64 19 130 0 109 -31
108 -31 187 78 39 52 81 109 95 126 30 37 107 86 182 116 76 30 88 46 85 106
-2 54 -22 82 -44 63 -10 -8 -15 -3 -19 20 -4 21 -12 30 -24 29 -15 -1 -19 -14
-25 -80 -5 -51 -10 -75 -16 -66 -5 8 -9 25 -10 39 0 23 -1 23 -9 5 -6 -15 -9
-6 -9 34 -1 46 -3 52 -16 41 -8 -7 -17 -28 -21 -49 -10 -55 -23 -73 -24 -32 0
37 -18 156 -27 181 -4 12 -7 11 -12 -4 -6 -16 -11 -11 -27 27 -22 53 -30 57
-46 22 -18 -40 -31 -30 -25 20 7 50 2 53 -44 29 -41 -21 -48 -10 -17 24 50 54
62 80 49 109 l-12 27 -22 -27 -22 -27 -82 47 c-46 26 -83 50 -83 53 0 4 19 22
41 41 69 57 117 109 138 151 18 37 18 44 5 86 -19 64 -17 153 5 237 24 94 51
143 104 192 89 82 138 95 382 99 105 1 199 4 210 6 37 5 134 -12 191 -33 79
-30 161 -113 199 -203 l29 -68 16 33 c47 90 142 74 260 -44 68 -68 80 -93 102
-212 11 -55 22 -112 25 -127 5 -25 1 -30 -38 -47 -68 -29 -74 -47 -44 -134 13
-40 36 -131 50 -201 28 -145 26 -183 -19 -322 -34 -101 -47 -126 -63 -120 -9
4 -13 -4 -13 -25 0 -23 -4 -30 -14 -26 -9 4 -17 -1 -19 -11 -4 -13 -5 -13 -6
-2 -2 20 -48 43 -54 26 -2 -6 -10 13 -17 43 l-13 54 -12 -29 c-11 -26 -12 -27
-18 -9 -3 11 -8 37 -12 57 -3 21 -21 85 -40 142 -28 85 -35 120 -35 185 0 80
0 81 -25 81 -19 0 -25 -5 -25 -21 0 -19 -2 -20 -17 -8 -15 13 -16 11 -11 -21
4 -19 9 -43 13 -52 13 -32 -13 -19 -39 18 l-24 36 -17 -32 c-13 -25 -19 -29
-25 -19 -7 10 -12 6 -19 -16 -6 -17 -17 -43 -26 -58 -8 -16 -15 -42 -15 -58 0
-16 -4 -29 -10 -29 -5 0 -10 7 -10 15 0 35 -19 11 -30 -37 -20 -83 -31 -91
-26 -18 l5 65 -13 -63 c-7 -34 -16 -66 -20 -69 -3 -3 -6 41 -7 98 0 91 -2 100
-12 72 -7 -17 -16 -35 -21 -40 -5 -5 -7 -1 -3 10 8 21 -11 23 -19 2 -3 -8 -13
-17 -22 -20 -13 -3 -17 -18 -19 -57 -1 -29 3 -59 9 -66 6 -7 52 -33 103 -57
102 -50 118 -65 249 -233 43 -56 86 -102 95 -102 9 0 50 9 91 21 l75 20 65
-20 c214 -65 357 -46 575 77 109 62 221 117 311 152 41 17 108 46 148 65 41
19 79 35 86 35 7 0 69 -55 139 -123 115 -112 201 -185 274 -232 l27 -17 0 986
0 986 -2400 0 -2400 0 0 -970z"/>
<path d="M2971 2659 c-5 -13 -19 -46 -30 -73 -25 -57 -27 -109 -6 -130 18 -17
54 -30 62 -22 12 12 8 225 -4 237 -9 9 -14 7 -22 -12z"/>
<path d="M3022 2260 c0 -14 2 -19 5 -12 2 6 2 18 0 25 -3 6 -5 1 -5 -13z"/>
<path d="M3252 2010 c-1 -42 2 -58 7 -45 5 11 5 40 1 65 -7 43 -8 43 -8 -20z"/>
<path d="M3152 1935 c0 -16 2 -22 5 -12 2 9 2 23 0 30 -3 6 -5 -1 -5 -18z"/>
<path d="M391 1833 c-44 -51 -48 -59 -35 -74 7 -8 14 -24 14 -34 0 -11 11 -28
24 -40 13 -11 35 -49 50 -85 l26 -65 -63 -228 c-60 -212 -78 -260 -93 -245 -6
7 -114 433 -116 458 0 8 11 45 25 82 l26 67 -62 -50 c-34 -28 -85 -65 -114
-82 -60 -36 -69 -67 -30 -103 12 -12 33 -48 46 -79 l24 -58 -22 -86 c-12 -47
-38 -147 -56 -221 l-35 -135 0 -427 0 -428 880 0 c484 0 880 2 880 5 0 37 86
306 136 421 l64 152 6 132 c3 81 2 135 -4 139 -6 3 -16 22 -24 41 l-15 35 -27
-53 c-43 -84 -98 -135 -265 -246 -314 -207 -346 -226 -474 -275 -56 -22 -140
-56 -187 -76 -80 -34 -90 -36 -165 -31 -58 3 -102 13 -160 36 -81 33 -148 71
-160 90 -15 24 12 33 67 22 67 -13 153 -1 276 40 65 21 97 37 108 54 22 33 10
44 -41 37 -37 -5 -46 -3 -51 12 -13 33 27 56 117 66 75 9 92 7 151 -12 46 -14
72 -18 80 -12 7 6 105 83 217 173 113 89 226 175 251 191 47 29 47 30 54 93 3
35 20 111 36 170 17 58 30 108 30 111 0 2 -13 11 -29 19 -43 23 -46 43 -11 78
l30 30 -20 25 c-11 14 -20 40 -20 58 0 30 -3 33 -37 39 -60 9 -131 7 -139 -5
-4 -7 2 -19 13 -28 12 -9 35 -44 53 -78 l33 -61 -27 -184 c-41 -278 -47 -308
-61 -308 -7 0 -18 12 -23 28 -90 248 -130 363 -142 409 -10 41 15 150 42 179
12 13 16 28 12 39 -6 16 -19 17 -140 13 -74 -3 -136 -7 -138 -9 -3 -3 11 -38
31 -79 l35 -75 -42 -175 c-55 -230 -79 -310 -90 -310 -10 0 -12 7 -89 285
l-49 179 25 71 c13 38 33 77 44 87 38 32 25 61 -50 111 -146 97 -276 144 -216
77 8 -9 25 -45 39 -82 l25 -66 -49 -173 c-26 -96 -56 -202 -66 -236 -20 -72
-38 -80 -54 -25 -20 74 -100 413 -100 427 0 27 51 143 71 161 21 19 26 64 8
64 -7 0 -52 20 -101 45 -49 25 -93 45 -98 45 -5 0 -31 -26 -59 -57z"/>
<path d="M4233 1826 c-93 -46 -101 -53 -96 -74 3 -13 15 -34 27 -47 12 -13 32
-49 46 -81 l24 -58 -23 -125 c-12 -69 -31 -180 -42 -245 -21 -122 -35 -165
-49 -150 -4 5 -42 123 -85 262 l-76 254 21 61 c12 34 29 74 38 89 9 15 13 30
10 33 -16 16 -174 -62 -263 -130 -34 -25 -44 -69 -19 -79 20 -8 74 -127 74
-164 0 -23 -74 -399 -95 -484 -4 -16 -13 -28 -20 -28 -13 0 -33 66 -106 350
l-42 165 22 65 c13 36 30 73 39 83 8 9 12 20 9 24 -4 3 -67 8 -140 11 -115 4
-134 2 -146 -12 -12 -14 -11 -20 7 -39 22 -24 52 -115 52 -158 0 -16 -4 -38
-9 -51 -33 -80 -141 -442 -134 -448 19 -19 245 -181 270 -194 22 -11 41 -12
83 -5 109 18 305 -47 287 -95 -10 -25 -37 -31 -68 -14 -30 17 -39 14 -39 -12
0 -23 25 -43 105 -86 94 -50 176 -74 255 -74 36 0 72 -5 80 -10 13 -9 10 -14
-15 -36 -47 -39 -74 -50 -160 -64 -69 -11 -91 -11 -159 3 -84 17 -125 36 -222
98 -34 22 -96 53 -139 70 -142 54 -545 288 -607 352 -20 21 -45 59 -54 85 -25
67 -29 68 -49 16 -17 -46 -17 -51 0 -142 14 -73 15 -98 6 -115 -10 -19 -6 -35
29 -105 75 -154 112 -255 160 -439 l22 -83 879 0 879 0 0 501 0 502 -45 114
c-25 62 -45 122 -45 133 0 39 30 134 49 154 37 39 23 69 -54 121 -38 26 -85
61 -102 78 -44 41 -52 28 -18 -30 l28 -47 -12 -91 c-23 -165 -61 -410 -67
-429 -5 -15 -8 -16 -20 -5 -14 15 -174 476 -174 503 0 31 42 141 61 162 10 11
19 29 19 39 0 10 7 26 16 36 14 15 11 22 -36 78 -28 33 -54 60 -58 59 -4 -1
-53 -24 -109 -52z"/>
<path d="M3083 1553 c-17 -3 -23 -11 -23 -32 0 -16 -9 -40 -21 -55 l-21 -27
26 -34 c22 -28 25 -39 16 -55 -6 -11 -22 -23 -35 -26 -14 -3 -25 -9 -25 -13 0
-3 11 -51 25 -106 14 -54 27 -128 29 -163 l5 -65 71 -45 c39 -24 73 -42 75
-40 3 2 0 31 -5 64 -6 32 -21 139 -34 237 l-24 178 33 72 c19 40 44 78 56 86
18 10 19 15 8 22 -14 9 -114 10 -156 2z"/>
</g>
</svg>
