<?xml version="1.0" standalone="no"?>
<!DOCTYPE svg PUBLIC "-//W3C//DTD SVG 20010904//EN"
 "http://www.w3.org/TR/2001/REC-SVG-20010904/DTD/svg10.dtd">
<svg version="1.0" xmlns="http://www.w3.org/2000/svg"
 width="480.000000pt" height="360.000000pt" viewBox="0 0 480.000000 360.000000"
 preserveAspectRatio="xMidYMid meet">
<metadata>
Created by potrace 1.16, written by Peter Selinger 2001-2019
</metadata>
<rect width="1" height="360" fill="#000000"/>
<rect x="479" width="1" height="360" fill="#000000"/>
<rect width="480" height="1" fill="#000000"/>
<rect y="359" width="480" height="1" fill="#000000"/>
<g transform="translate(0.000000,360.000000) scale(0.100000,-0.100000)"
fill="#000000" stroke="none">
<path d="M2310 2409 c-21 -16 -31 -17 -60 -9 -51 15 -96 12 -111 -6 -12 -14
-10 -19 15 -39 l29 -23 -54 -7 c-30 -4 -71 -14 -92 -23 -29 -11 -51 -13 -90
-6 -29 4 -84 8 -122 8 -61 1 -76 -3 -116 -29 -40 -26 -119 -119 -119 -140 0
-4 -20 -34 -45 -67 -39 -52 -45 -67 -45 -108 0 -27 -5 -61 -11 -77 -8 -21 -8
-50 2 -111 15 -100 18 -96 -88 -118 -30 -6 -63 -43 -63 -71 0 -18 8 -24 42
-34 24 -6 64 -9 90 -7 73 7 95 -30 34 -56 -19 -8 -42 -28 -50 -44 -14 -28 -14
-32 5 -56 26 -33 68 -34 140 -5 62 24 80 43 76 83 -3 38 16 44 37 11 23 -35
32 -32 45 19 8 34 16 45 37 50 26 7 54 56 54 96 0 11 11 43 25 69 28 57 48 68
240 137 213 76 265 89 265 65 0 -15 47 -21 205 -26 169 -5 254 -22 293 -57 56
-51 126 -61 197 -29 22 10 52 21 68 25 18 4 27 13 27 26 0 10 18 33 40 51 44
36 56 65 64 162 l5 67 -54 52 c-30 29 -55 55 -55 59 0 4 7 15 16 24 9 9 14 19
10 22 -5 5 -141 13 -228 13 -31 0 -40 4 -53 30 -8 16 -25 36 -38 44 -32 21
-198 39 -234 25 -15 -6 -47 -8 -71 -4 -32 5 -48 2 -60 -8 -34 -31 -67 -31
-103 1 -46 40 -69 45 -99 21z"/>
</g>
</svg>
