<?xml version="1.0" standalone="no"?>
<!DOCTYPE svg PUBLIC "-//W3C//DTD SVG 20010904//EN"
 "http://www.w3.org/TR/2001/REC-SVG-20010904/DTD/svg10.dtd">
<svg version="1.0" xmlns="http://www.w3.org/2000/svg"
 width="480.000000pt" height="360.000000pt" viewBox="0 0 480.000000 360.000000"
 preserveAspectRatio="xMidYMid meet">
<metadata>
Created by potrace 1.16, written by Peter Selinger 2001-2019
</metadata>
<rect width="1" height="360" fill="#000000"/>
<rect x="479" width="1" height="360" fill="#000000"/>
<rect width="480" height="1" fill="#000000"/>
<rect y="359" width="480" height="1" fill="#000000"/>
<g transform="translate(0.000000,360.000000) scale(0.100000,-0.100000)"
fill="#000000" stroke="none">
<path d="M1050 1800 l0 -1800 1875 0 1875 0 0 1800 0 1800 -1875 0 -1875 0 0
-1800z m1903 634 c51 -26 196 -138 197 -151 1 -26 -65 -14 -120 22 -65 42 -86
42 -82 0 7 -56 19 -72 59 -80 21 -4 73 -20 115 -36 71 -28 76 -32 69 -52 -11
-30 -3 -47 22 -48 12 0 44 -8 71 -17 48 -16 50 -19 51 -54 0 -33 -2 -38 -23
-38 -13 0 -20 -4 -17 -10 3 -5 1 -10 -5 -10 -6 0 -9 -3 -6 -8 2 -4 -14 -6 -36
-4 -28 3 -39 1 -34 -7 4 -6 0 -14 -9 -17 -9 -4 -14 -12 -12 -19 6 -14 -97 -8
-126 7 -10 5 -20 8 -22 6 -6 -7 51 -142 61 -145 7 -2 21 12 32 31 22 38 49 49
103 44 25 -2 34 -8 36 -23 11 -114 15 -134 31 -140 13 -5 263 -45 283 -45 3 0
5 -15 6 -34 1 -27 -4 -35 -20 -40 -12 -3 -19 -7 -17 -9 3 -3 48 5 100 16 72
16 129 21 240 21 154 -1 207 -11 196 -40 -5 -13 -1 -15 19 -11 20 3 25 1 20
-11 -9 -23 3 -49 26 -55 11 -3 18 -11 17 -19 -2 -9 7 -12 32 -10 26 2 31 0 20
-7 -12 -9 -11 -11 8 -11 12 0 21 -6 20 -12 -2 -7 7 -14 20 -16 24 -4 31 -22 7
-22 -15 0 -21 -31 -8 -44 11 -11 13 -40 2 -52 -5 -7 -7 -25 -3 -40 6 -23 4
-26 -10 -21 -39 16 -49 17 -23 2 15 -8 27 -17 27 -19 0 -8 -70 -4 -75 4 -10
17 -45 12 -39 -5 5 -11 -3 -17 -25 -21 -25 -5 -29 -9 -20 -20 9 -11 6 -14 -15
-14 -32 0 -33 -12 -3 -34 22 -17 22 -17 0 -11 -12 3 -30 7 -40 9 -10 2 -35 14
-56 26 -50 29 -58 19 -13 -15 20 -15 36 -32 36 -37 0 -5 -25 11 -56 36 -64 52
-80 58 -264 86 -143 22 -182 32 -242 57 -29 12 -41 13 -51 4 -8 -6 -47 -15
-86 -20 -40 -5 -74 -11 -77 -13 -2 -2 1 -21 7 -41 31 -113 -35 -176 -81 -79
-16 33 -30 42 -30 18 0 -8 -8 -23 -17 -35 -15 -19 -21 -20 -35 -9 -13 10 -18
30 -20 80 -2 38 -7 68 -13 69 -5 0 -80 4 -167 8 -172 8 -193 15 -186 63 3 17
-1 33 -11 41 -21 18 -145 35 -301 42 -69 3 -154 8 -190 11 -77 8 -76 -2 0 -16
30 -6 58 -17 63 -25 4 -9 30 -27 58 -40 43 -22 48 -28 39 -44 -16 -31 -31 -29
-95 10 -51 32 -256 109 -291 109 -20 0 -64 -25 -64 -37 0 -31 -55 5 -64 42 -7
26 -16 30 -104 40 -70 8 -80 13 -98 47 -28 54 -18 59 119 54 69 -2 130 -6 136
-10 14 -9 209 -30 480 -51 l204 -16 35 33 c19 18 60 71 91 118 l56 85 1 92 c0
50 5 97 11 105 14 18 25 85 18 108 -4 11 -15 20 -27 20 -27 0 -84 49 -80 69 2
11 -6 16 -25 17 -36 2 -185 43 -197 55 -6 5 -18 9 -28 9 -21 0 -35 24 -39 70
-3 30 -1 35 18 38 12 2 27 10 33 18 16 18 57 18 93 -1 22 -11 39 -12 69 -6 46
11 40 6 66 56 37 74 73 93 175 94 44 1 79 -5 100 -15z"/>
<path d="M2846 1728 c-3 -7 -9 -29 -15 -48 -6 -20 -33 -62 -61 -95 -50 -60
-64 -105 -34 -105 23 0 152 106 169 140 14 28 14 32 -9 69 -29 46 -44 58 -50
39z"/>
<path d="M3265 1609 c-8 -12 -9 -12 32 -33 26 -13 155 -46 181 -46 19 0 -24
23 -104 54 -102 40 -100 40 -109 25z"/>
<path d="M4218 1393 c6 -2 18 -2 25 0 6 3 1 5 -13 5 -14 0 -19 -2 -12 -5z"/>
</g>
</svg>
