<?xml version="1.0" standalone="no"?>
<!DOCTYPE svg PUBLIC "-//W3C//DTD SVG 20010904//EN"
 "http://www.w3.org/TR/2001/REC-SVG-20010904/DTD/svg10.dtd">
<svg version="1.0" xmlns="http://www.w3.org/2000/svg"
 width="480.000000pt" height="360.000000pt" viewBox="0 0 480.000000 360.000000"
 preserveAspectRatio="xMidYMid meet">
<metadata>
Created by potrace 1.16, written by Peter Selinger 2001-2019
</metadata>
<rect width="1" height="360" fill="#000000"/>
<rect x="479" width="1" height="360" fill="#000000"/>
<rect width="480" height="1" fill="#000000"/>
<rect y="359" width="480" height="1" fill="#000000"/>
<g transform="translate(0.000000,360.000000) scale(0.100000,-0.100000)"
fill="#000000" stroke="none">
<path d="M0 1800 l0 -1800 457 2 456 3 52 155 c83 245 120 316 258 489 40 51
56 79 51 90 -4 9 -12 70 -18 136 l-12 120 -13 -55 c-18 -73 -30 -95 -31 -53 0
28 12 139 25 218 l5 30 -15 -25 c-14 -24 -14 -24 -15 -3 0 12 13 100 29 195
46 271 49 304 56 628 10 539 16 594 86 715 24 43 61 97 82 121 21 24 35 44 30
44 -5 0 -17 25 -27 55 -20 63 -39 79 -113 95 -36 8 -52 17 -56 31 -6 24 -5 25
71 39 52 9 69 17 93 45 16 18 50 42 74 52 51 21 58 40 18 49 -53 11 -158 47
-196 66 -48 24 -127 100 -127 122 0 23 50 21 145 -9 44 -14 83 -25 87 -25 4 0
-13 29 -37 64 -49 69 -95 161 -95 189 0 16 -38 17 -660 17 l-660 0 0 -1800z"/>
<path d="M1421 3583 c8 -10 33 -38 56 -63 23 -24 65 -83 95 -132 29 -48 56
-87 59 -88 3 0 9 36 13 80 3 44 15 108 26 142 11 35 20 66 20 71 0 4 -64 7
-141 7 -133 0 -141 -1 -128 -17z"/>
<path d="M1790 3561 c0 -41 -25 -197 -37 -227 -5 -14 4 -10 34 14 23 18 79 57
124 87 118 78 147 73 91 -16 -49 -77 -91 -117 -183 -175 -49 -31 -89 -60 -89
-65 0 -5 11 -11 25 -14 14 -3 37 -8 53 -11 15 -3 44 -17 66 -31 35 -23 44 -24
107 -18 l69 7 0 -26 c0 -20 -9 -29 -42 -44 -64 -29 -80 -52 -82 -118 -2 -54 0
-58 29 -73 16 -9 71 -56 122 -105 104 -100 133 -152 141 -254 5 -66 -10 -184
-34 -267 -13 -44 -12 -78 2 -280 9 -133 14 -271 10 -327 -7 -109 0 -116 49
-52 27 35 32 74 25 194 -3 42 46 76 120 83 104 11 157 -33 138 -116 -12 -55
-2 -122 25 -161 49 -69 58 -62 51 42 -4 48 0 177 7 287 16 247 16 286 0 355
-16 68 -16 300 0 349 13 38 58 109 82 130 14 11 12 19 -9 66 -63 136 -70 335
-19 495 24 74 89 220 99 220 1 0 -6 -37 -16 -82 -28 -126 -35 -333 -14 -438
16 -77 48 -170 59 -170 3 0 24 11 48 24 24 13 81 32 127 42 70 15 92 16 150 5
92 -16 161 -52 218 -113 l48 -51 47 52 c45 50 109 156 109 180 0 6 -9 11 -19
11 -32 0 -131 136 -116 161 15 24 71 38 128 32 55 -6 57 -5 68 23 6 16 13 75
16 132 3 57 10 99 14 95 5 -5 16 -56 25 -113 10 -58 20 -108 23 -112 3 -4 25
-2 47 4 35 10 47 9 80 -8 21 -11 47 -32 58 -47 l20 -27 -64 -57 c-34 -32 -66
-59 -70 -61 -4 -2 -20 18 -34 43 -15 25 -30 45 -34 45 -5 0 -18 -41 -29 -90
-29 -119 -79 -222 -147 -299 -31 -34 -56 -64 -56 -67 0 -2 9 -31 20 -64 27
-80 38 -234 45 -626 5 -289 9 -351 31 -490 47 -289 52 -329 48 -334 -3 -2 -9
2 -14 10 -12 19 -12 9 -1 -82 19 -149 20 -168 13 -168 -5 0 -13 17 -19 38
l-10 37 -2 -60 c-1 -33 -6 -93 -10 -133 -4 -47 -3 -76 4 -81 10 -7 177 -62
310 -101 216 -63 396 -262 484 -532 l13 -38 219 0 219 0 0 1800 0 1800 -1505
0 -1505 0 0 -39z"/>
<path d="M2157 2301 c-4 -19 -5 -36 -2 -39 10 -11 16 7 13 40 l-3 33 -8 -34z"/>
<path d="M2632 2255 c0 -16 2 -22 5 -12 2 9 2 23 0 30 -3 6 -5 -1 -5 -18z"/>
<path d="M2202 1317 c-25 -26 -29 -67 -8 -67 19 0 32 19 39 58 8 38 -1 41 -31
9z"/>
<path d="M2566 1303 c9 -49 11 -53 35 -53 27 0 25 41 -4 68 -33 31 -39 28 -31
-15z"/>
<path d="M2372 1243 c-11 -27 -23 -66 -27 -88 -10 -55 -27 -81 -97 -145 l-61
-55 13 -220 c6 -121 10 -249 9 -285 -4 -62 -6 -55 -46 155 -24 121 -44 228
-45 238 -2 10 -7 18 -13 17 -12 0 -12 -35 -2 -195 9 -138 -1 -143 -28 -12 -10
48 -21 87 -25 87 -4 0 -5 -35 -3 -77 5 -100 -9 -269 -22 -266 -5 1 -23 52 -39
113 -31 117 -39 122 -50 32 -4 -30 -14 -71 -22 -93 -15 -37 -14 -43 20 -166
19 -70 45 -163 58 -205 l23 -78 431 0 430 0 12 118 c26 261 26 248 3 304 -11
29 -27 91 -34 138 l-13 85 -28 -115 c-16 -63 -33 -124 -39 -135 -10 -17 -12
-14 -18 30 -4 28 -8 105 -8 173 -1 67 -4 122 -9 122 -4 0 -16 -38 -26 -85 -10
-47 -22 -85 -25 -85 -3 0 -3 37 1 83 3 45 6 116 6 157 0 89 -3 81 -44 -155
-14 -82 -31 -172 -37 -200 l-10 -50 -8 35 c-4 19 -1 144 7 278 l14 242 -79 78
c-65 64 -80 84 -85 117 -7 46 -47 155 -57 155 -4 0 -16 -21 -27 -47z"/>
</g>
</svg>
