<?xml version="1.0" standalone="no"?>
<!DOCTYPE svg PUBLIC "-//W3C//DTD SVG 20010904//EN"
 "http://www.w3.org/TR/2001/REC-SVG-20010904/DTD/svg10.dtd">
<svg version="1.0" xmlns="http://www.w3.org/2000/svg"
 width="480.000000pt" height="360.000000pt" viewBox="0 0 480.000000 360.000000"
 preserveAspectRatio="xMidYMid meet">
<metadata>
Created by potrace 1.16, written by Peter Selinger 2001-2019
</metadata>
<rect width="1" height="360" fill="#000000"/>
<rect x="479" width="1" height="360" fill="#000000"/>
<rect width="480" height="1" fill="#000000"/>
<rect y="359" width="480" height="1" fill="#000000"/>
<g transform="translate(0.000000,360.000000) scale(0.100000,-0.100000)"
fill="#000000" stroke="none">
<path d="M1593 3313 c-22 -8 -14 -21 27 -44 48 -27 50 -37 8 -43 -18 -2 -68
-9 -111 -15 -129 -18 -183 -58 -209 -155 -11 -42 -15 -46 -42 -46 -38 0 -112
-36 -121 -58 -4 -12 4 -26 28 -47 33 -29 34 -32 21 -58 -8 -15 -19 -27 -24
-27 -5 0 2 -18 14 -41 18 -31 37 -47 84 -69 58 -27 61 -30 67 -74 4 -25 5 -98
3 -163 -3 -108 -6 -122 -32 -166 -24 -41 -29 -61 -32 -135 -3 -48 -7 -113 -11
-144 -3 -35 -1 -75 7 -103 15 -54 12 -61 -127 -293 -94 -157 -94 -159 -58
-267 31 -94 44 -115 80 -132 29 -14 46 -15 106 -7 39 5 72 7 74 3 7 -11 -32
-159 -80 -304 -119 -359 -215 -746 -215 -865 l0 -60 560 0 c308 0 560 1 560 3
0 1 -11 164 -25 362 -14 198 -29 437 -35 530 -6 94 -15 242 -20 330 -6 88 -10
203 -10 256 0 52 -5 122 -11 155 -14 74 -17 134 -8 134 4 0 10 -9 14 -19 3
-11 13 -22 21 -25 12 -5 15 -2 10 10 -3 9 -9 33 -12 55 -6 35 -4 39 14 39 11
0 32 14 46 31 31 36 33 75 10 178 l-16 71 71 110 c39 61 71 114 71 118 0 8
-277 208 -301 217 -16 6 -39 136 -43 240 0 28 -4 55 -8 61 -4 7 1 23 13 38 15
20 18 30 10 45 -9 16 -7 20 14 25 31 8 32 21 3 44 -31 25 -46 42 -78 88 -15
23 -48 54 -72 70 -24 15 -52 41 -63 58 -11 16 -31 38 -45 48 -30 22 -109 47
-127 41z"/>
</g>
</svg>
