<?xml version="1.0" standalone="no"?>
<!DOCTYPE svg PUBLIC "-//W3C//DTD SVG 20010904//EN"
 "http://www.w3.org/TR/2001/REC-SVG-20010904/DTD/svg10.dtd">
<svg version="1.0" xmlns="http://www.w3.org/2000/svg"
 width="480.000000pt" height="360.000000pt" viewBox="0 0 480.000000 360.000000"
 preserveAspectRatio="xMidYMid meet">
<metadata>
Created by potrace 1.16, written by Peter Selinger 2001-2019
</metadata>
<rect width="1" height="360" fill="#000000"/>
<rect x="479" width="1" height="360" fill="#000000"/>
<rect width="480" height="1" fill="#000000"/>
<rect y="359" width="480" height="1" fill="#000000"/>
<g transform="translate(0.000000,360.000000) scale(0.100000,-0.100000)"
fill="#000000" stroke="none">
<path d="M1335 2870 c-10 -11 -19 -30 -20 -42 -2 -13 -8 -34 -13 -48 -6 -15
-13 -55 -17 -91 -6 -56 -4 -70 15 -102 12 -21 27 -36 34 -35 22 5 44 -25 34
-47 -7 -16 1 -36 42 -98 28 -43 48 -82 45 -87 -3 -6 -19 -10 -35 -10 -40 0
-53 -26 -32 -63 16 -27 16 -29 -3 -39 -29 -16 -103 -96 -111 -120 -3 -12 -21
-41 -40 -65 -44 -58 -46 -103 -5 -144 16 -16 37 -29 47 -29 15 0 16 -10 12
-94 -4 -75 -9 -100 -27 -124 -11 -17 -21 -34 -21 -40 0 -5 -7 -15 -16 -23 -11
-9 -14 -22 -10 -42 8 -41 -18 -96 -65 -137 -63 -55 -73 -138 -18 -155 14 -5
18 -12 14 -23 -25 -65 -146 -800 -192 -1170 l-6 -42 502 0 c394 0 501 3 501
13 0 6 -9 68 -20 137 -25 163 -36 259 -55 460 -18 201 -64 415 -137 640 -15
45 -18 65 -9 68 19 6 13 24 -20 58 l-32 33 39 68 c73 128 76 151 48 307 -17
91 -16 94 21 110 6 2 0 11 -12 21 -26 18 -28 36 -12 97 10 38 9 54 -15 133
-15 50 -35 101 -45 115 -18 25 -18 26 15 64 25 29 34 35 34 21 0 -16 2 -17 18
-3 9 9 23 13 30 11 7 -3 19 0 26 6 11 9 15 9 18 0 2 -7 15 23 27 66 28 92 25
149 -11 203 -14 20 -28 49 -31 64 -10 38 -114 154 -156 174 -54 26 -117 28
-196 6 -38 -11 -78 -23 -87 -27 -15 -6 -18 -2 -18 19 0 31 -11 33 -35 6z"/>
<path d="M3727 539 c-25 -15 -47 -70 -40 -97 5 -20 -25 -154 -49 -214 -12 -33
-42 -44 -161 -58 -97 -12 -133 -24 -140 -49 -3 -9 -8 -24 -12 -33 -11 -27 34
-47 155 -68 99 -18 161 -20 528 -20 408 0 415 0 398 19 -17 19 -54 35 -183 81
-34 12 -67 28 -72 34 -6 7 -18 49 -27 94 l-16 82 25 24 c34 32 41 59 23 94
-26 51 -97 100 -132 91 -5 -2 -27 3 -49 9 -59 18 -226 26 -248 11z"/>
</g>
</svg>
