<?xml version="1.0" standalone="no"?>
<!DOCTYPE svg PUBLIC "-//W3C//DTD SVG 20010904//EN"
 "http://www.w3.org/TR/2001/REC-SVG-20010904/DTD/svg10.dtd">
<svg version="1.0" xmlns="http://www.w3.org/2000/svg"
 width="480.000000pt" height="360.000000pt" viewBox="0 0 480.000000 360.000000"
 preserveAspectRatio="xMidYMid meet">
<metadata>
Created by potrace 1.16, written by Peter Selinger 2001-2019
</metadata>
<rect width="1" height="360" fill="#000000"/>
<rect x="479" width="1" height="360" fill="#000000"/>
<rect width="480" height="1" fill="#000000"/>
<rect y="359" width="480" height="1" fill="#000000"/>
<g transform="translate(0.000000,360.000000) scale(0.100000,-0.100000)"
fill="#000000" stroke="none">
<path d="M4150 3473 c-62 -9 -121 -29 -197 -65 -133 -63 -223 -179 -223 -288
0 -58 -1 -59 -119 -89 -46 -12 -97 -29 -113 -37 -28 -14 -29 -18 -23 -57 9
-54 27 -82 71 -110 31 -19 35 -26 30 -54 -3 -25 -1 -33 10 -33 21 0 27 -22 14
-56 -8 -20 -8 -30 -1 -32 6 -2 11 -14 11 -26 0 -30 20 -86 30 -86 5 0 14 -16
21 -35 7 -19 19 -35 26 -35 7 0 31 -13 53 -29 l40 -29 -21 -26 c-14 -18 -17
-30 -11 -43 5 -10 7 -24 5 -30 -3 -7 7 -18 21 -24 14 -7 30 -26 36 -44 6 -17
22 -42 35 -53 14 -12 25 -30 25 -41 0 -10 14 -33 30 -51 17 -18 30 -38 30 -45
0 -16 52 -29 80 -20 15 5 20 2 20 -11 0 -14 7 -11 33 14 38 37 47 39 47 12 0
-22 15 -27 26 -8 6 9 10 5 14 -12 4 -17 0 -33 -12 -49 -10 -13 -18 -29 -18
-36 0 -7 -16 -22 -35 -34 -22 -13 -35 -28 -35 -41 0 -22 -10 -26 -27 -9 -20
20 -114 37 -274 50 -178 14 -201 10 -226 -42 -12 -24 -21 -26 -202 -52 l-191
-27 -57 29 c-32 16 -123 58 -204 94 -80 36 -200 93 -268 127 -79 39 -130 60
-143 56 -14 -3 -41 9 -80 35 -33 23 -84 52 -113 65 -29 14 -72 44 -96 68 -46
48 -109 82 -133 73 -18 -7 -21 -38 -5 -54 8 -8 -23 -10 -113 -6 -103 5 -129 3
-156 -11 -39 -20 -41 -38 -6 -63 l26 -19 -31 -33 c-35 -38 -41 -71 -12 -71 40
0 51 -10 40 -38 -9 -23 -7 -30 11 -44 28 -22 48 -23 72 -1 20 18 39 10 20 -9
-20 -20 -14 -46 17 -79 l29 -30 14 28 c12 25 19 28 68 31 43 3 67 -3 119 -27
41 -19 92 -33 134 -37 67 -7 67 -7 67 -38 1 -39 19 -52 130 -96 141 -55 218
-93 380 -184 134 -77 163 -89 224 -98 89 -13 551 -4 701 13 124 14 180 8 195
-22 6 -11 15 -75 21 -142 18 -232 49 -323 175 -504 73 -104 89 -137 98 -208
10 -76 44 -159 91 -224 14 -19 25 -44 25 -56 0 -40 -38 -132 -89 -218 -28 -46
-51 -87 -51 -91 0 -3 128 -6 285 -6 l285 0 0 1600 c0 1365 -2 1605 -14 1628
-20 38 -103 115 -156 145 -112 63 -371 117 -480 100z"/>
</g>
</svg>
