<?xml version="1.0" standalone="no"?>
<!DOCTYPE svg PUBLIC "-//W3C//DTD SVG 20010904//EN"
 "http://www.w3.org/TR/2001/REC-SVG-20010904/DTD/svg10.dtd">
<svg version="1.0" xmlns="http://www.w3.org/2000/svg"
 width="480.000000pt" height="360.000000pt" viewBox="0 0 480.000000 360.000000"
 preserveAspectRatio="xMidYMid meet">
<metadata>
Created by potrace 1.16, written by Peter Selinger 2001-2019
</metadata>
<rect width="1" height="360" fill="#000000"/>
<rect x="479" width="1" height="360" fill="#000000"/>
<rect width="480" height="1" fill="#000000"/>
<rect y="359" width="480" height="1" fill="#000000"/>
<g transform="translate(0.000000,360.000000) scale(0.100000,-0.100000)"
fill="#000000" stroke="none">
<path d="M0 1800 l0 -1800 1296 0 c1033 0 1295 3 1291 13 -3 6 -13 32 -22 57
-20 49 -60 110 -132 198 -45 55 -115 190 -127 244 -6 25 -3 28 31 34 82 15
409 -14 587 -53 l29 -6 -8 49 c-19 132 -104 402 -160 514 -30 59 -42 105 -55
214 -7 58 -20 106 -37 139 -21 42 -24 60 -20 102 7 64 36 132 77 179 31 35 32
38 25 101 -3 36 -10 65 -13 65 -4 0 -15 -12 -25 -27 l-18 -28 5 30 c18 93 17
134 -4 235 -22 102 -46 164 -61 154 -9 -5 6 -61 22 -80 20 -24 -2 -15 -44 18
-23 18 -68 46 -101 63 -71 35 -95 68 -127 168 -29 92 -28 148 6 228 15 35 37
90 50 122 l24 57 -22 14 c-12 7 -34 20 -49 30 -18 10 -28 25 -28 40 0 25 36
76 77 109 13 10 23 23 23 28 0 5 -19 30 -42 55 -23 25 -37 48 -32 53 20 17
114 51 143 51 19 0 35 -8 44 -21 19 -26 23 -18 32 54 4 33 12 57 19 57 7 0 27
-16 46 -35 42 -43 69 -44 113 -5 41 36 46 36 90 10 20 -12 73 -26 130 -33 53
-8 102 -19 109 -24 7 -6 42 -14 78 -18 157 -18 372 -137 444 -247 63 -94 114
-276 131 -463 8 -87 26 -125 81 -174 24 -21 44 -42 44 -46 0 -4 -25 -5 -55 -3
-38 3 -55 1 -55 -7 0 -7 5 -48 11 -93 6 -45 9 -87 7 -93 -2 -6 -17 22 -32 62
-16 41 -32 77 -36 82 -10 12 -3 -85 9 -116 16 -40 14 -52 -5 -36 -14 11 -15 6
-8 -49 7 -69 1 -78 -21 -29 l-15 32 6 -38 c3 -24 1 -37 -4 -33 -5 3 -13 25
-16 50 -4 24 -13 52 -21 62 -13 18 -14 17 -15 -11 -1 -16 -5 -39 -9 -50 -7
-16 -10 -9 -16 30 -9 62 -24 93 -24 50 0 -16 4 -63 9 -104 6 -41 8 -76 6 -79
-3 -2 -14 14 -26 37 -23 46 -40 53 -40 17 0 -35 -23 -38 -37 -4 -12 28 -33 38
-33 16 0 -7 5 -30 11 -51 10 -38 11 -38 50 -32 22 4 61 2 87 -3 26 -6 64 -14
85 -17 68 -11 134 -101 204 -275 9 -23 11 -22 57 45 l47 70 -26 22 c-20 17
-24 28 -19 48 3 14 11 25 18 25 22 1 139 76 159 103 l21 27 -32 33 c-37 38
-39 44 -13 49 19 3 18 6 -6 63 -22 50 -27 80 -31 176 -3 103 -2 122 17 164 21
47 21 118 0 131 -16 9 -10 32 16 63 19 22 24 36 19 55 -7 29 -11 30 -67 17
-35 -8 -39 -7 -49 15 -15 32 3 51 59 66 l45 11 -7 76 c-4 42 -16 141 -26 221
-30 223 -34 389 -12 479 10 41 23 76 29 78 18 6 45 -162 90 -572 14 -132 28
-242 29 -243 2 -2 27 1 56 7 56 12 79 4 79 -29 0 -24 -18 -37 -73 -52 -45 -12
-47 -13 -47 -49 0 -35 2 -38 39 -44 49 -8 65 -26 80 -90 19 -76 76 -190 106
-209 33 -22 55 -72 55 -127 0 -34 -23 -142 -46 -222 -5 -16 -1 -18 28 -14 34
4 108 -18 108 -33 0 -4 -18 -15 -39 -25 -52 -23 -85 -59 -112 -120 -19 -42
-22 -69 -24 -175 -1 -164 -7 -174 -71 -118 l-37 33 -16 -24 c-9 -13 -71 -128
-139 -255 -68 -127 -130 -241 -138 -253 -9 -15 -11 -23 -3 -23 11 0 9 -39 -5
-71 -5 -12 4 -21 41 -36 26 -11 65 -24 85 -27 45 -8 86 -41 112 -90 17 -32 17
-38 4 -58 -14 -21 -13 -26 18 -67 42 -54 45 -94 9 -117 -14 -9 -36 -14 -50
-12 l-25 5 6 -78 c8 -97 -2 -116 -83 -154 -35 -16 -75 -46 -99 -74 -23 -25
-72 -64 -108 -86 -40 -24 -65 -47 -66 -57 0 -17 28 -18 450 -18 l450 0 0 1800
0 1800 -2400 0 -2400 0 0 -1800z"/>
<path d="M2806 1951 c-8 -12 14 -163 25 -175 10 -11 12 90 3 147 -6 36 -17 47
-28 28z"/>
<path d="M2874 1847 c-13 -33 -18 -60 -12 -63 12 -8 179 6 199 17 11 5 15 17
12 32 -4 21 -10 24 -51 23 -26 0 -55 3 -65 8 -14 7 -18 2 -23 -23 -9 -44 -19
-38 -30 17 l-9 47 -21 -58z"/>
</g>
</svg>
