<?xml version="1.0" standalone="no"?>
<!DOCTYPE svg PUBLIC "-//W3C//DTD SVG 20010904//EN"
 "http://www.w3.org/TR/2001/REC-SVG-20010904/DTD/svg10.dtd">
<svg version="1.0" xmlns="http://www.w3.org/2000/svg"
 width="480.000000pt" height="360.000000pt" viewBox="0 0 480.000000 360.000000"
 preserveAspectRatio="xMidYMid meet">
<metadata>
Created by potrace 1.16, written by Peter Selinger 2001-2019
</metadata>
<rect width="1" height="360" fill="#000000"/>
<rect x="479" width="1" height="360" fill="#000000"/>
<rect width="480" height="1" fill="#000000"/>
<rect y="359" width="480" height="1" fill="#000000"/>
<g transform="translate(0.000000,360.000000) scale(0.100000,-0.100000)"
fill="#000000" stroke="none">
<rect width="4800" height="3600" style="fill:rgb(255, 255, 255); stroke-width:50; stroke:rgb(0, 0, 0);" />
<path d="M3375 3186 c-52 -16 -121 -52 -163 -83 -53 -39 -65 -74 -59 -167 2
-45 7 -88 11 -97 10 -22 -31 -59 -148 -136 -122 -81 -216 -169 -280 -262 -60
-89 -89 -159 -115 -281 -21 -102 -42 -158 -73 -203 -26 -36 -19 -43 16 -16 15
12 28 20 29 18 1 -2 7 -13 13 -24 6 -11 9 -47 7 -81 -4 -56 -2 -63 24 -90 15
-16 34 -41 41 -55 8 -14 32 -34 55 -44 23 -10 50 -27 61 -37 12 -13 26 -18 41
-14 31 8 92 -19 100 -43 10 -33 -14 -100 -51 -141 -20 -22 -34 -47 -32 -57 2
-9 27 -31 55 -47 44 -25 54 -36 59 -65 4 -20 15 -47 25 -60 11 -13 19 -28 19
-34 0 -14 -109 -284 -131 -327 -11 -19 -19 -40 -19 -46 0 -6 -12 -29 -26 -50
l-26 -38 27 -22 27 -21 -25 -49 c-13 -27 -28 -60 -32 -74 -9 -31 -19 -54 -85
-203 -32 -73 -49 -122 -43 -128 18 -18 146 120 252 270 52 74 75 98 111 115
30 14 44 27 42 38 -1 9 25 82 58 162 33 81 60 150 60 155 0 19 42 43 126 72
l88 31 15 -21 c8 -12 29 -55 46 -96 18 -40 53 -109 79 -152 27 -45 44 -84 40
-93 -3 -8 -8 -52 -11 -98 -5 -69 -10 -86 -27 -100 -12 -9 -31 -33 -43 -52 -42
-70 -69 -286 -44 -353 6 -16 11 -42 11 -58 l0 -29 660 0 660 0 0 275 c0 240
-2 276 -15 282 -29 11 -92 152 -121 273 -20 83 -17 155 16 344 28 168 50 337
70 546 19 199 -19 443 -100 640 -11 25 -21 80 -23 125 -7 131 -56 231 -184
376 -105 120 -234 164 -388 134 -80 -16 -84 -16 -127 4 -24 11 -66 25 -94 31
-56 13 -94 32 -145 71 -19 15 -67 44 -106 63 -78 39 -134 45 -208 22z"/>
</g>
</svg>
