<?xml version="1.0" standalone="no"?>
<!DOCTYPE svg PUBLIC "-//W3C//DTD SVG 20010904//EN"
 "http://www.w3.org/TR/2001/REC-SVG-20010904/DTD/svg10.dtd">
<svg version="1.0" xmlns="http://www.w3.org/2000/svg"
 width="480.000000pt" height="360.000000pt" viewBox="0 0 480.000000 360.000000"
 preserveAspectRatio="xMidYMid meet">
<metadata>
Created by potrace 1.16, written by Peter Selinger 2001-2019
</metadata>
<rect width="1" height="360" fill="#000000"/>
<rect x="479" width="1" height="360" fill="#000000"/>
<rect width="480" height="1" fill="#000000"/>
<rect y="359" width="480" height="1" fill="#000000"/>
<g transform="translate(0.000000,360.000000) scale(0.100000,-0.100000)"
fill="#000000" stroke="none">
<path d="M0 3081 l0 -519 52 -22 c29 -12 81 -27 116 -33 79 -14 82 -10 82 98
0 202 -32 329 -115 453 -30 46 -55 86 -55 91 0 39 350 136 603 166 81 10 99
28 108 106 10 86 -2 113 -55 117 -22 2 -56 -3 -75 -12 -65 -28 -176 -56 -361
-90 -141 -27 -160 -29 -160 -15 0 14 92 106 150 151 l35 27 -162 1 -163 0 0
-519z"/>
<path d="M911 3583 c22 -28 33 -33 41 -20 16 24 8 37 -23 37 -29 0 -30 -2 -18
-17z"/>
<path d="M1045 3555 c27 -25 53 -45 57 -45 11 0 28 45 28 71 0 17 -7 19 -67
19 l-68 -1 50 -44z"/>
<path d="M1158 3593 c17 -7 15 -27 -8 -68 -11 -19 -17 -35 -15 -35 3 0 -9 -25
-26 -56 l-31 -55 26 7 c14 3 26 4 26 2 0 -3 -9 -33 -21 -67 -11 -35 -19 -65
-17 -67 4 -3 16 7 86 67 l22 19 0 -29 c0 -16 -12 -50 -27 -76 -27 -50 -23 -51
35 -7 18 14 35 23 37 20 9 -8 -54 -95 -95 -132 -22 -20 -40 -41 -40 -46 0 -6
-17 -34 -38 -63 -47 -66 -66 -102 -58 -115 3 -5 -13 -35 -35 -66 -23 -32 -39
-60 -36 -62 3 -3 35 13 72 36 l66 41 -66 -86 c-36 -47 -63 -90 -60 -95 3 -5
-6 -30 -21 -55 -17 -30 -24 -53 -20 -69 4 -17 -3 -34 -24 -61 -17 -21 -30 -40
-30 -43 0 -5 124 6 155 15 13 3 3 -11 -27 -40 -50 -47 -58 -60 -33 -51 24 10
18 -5 -25 -62 -22 -29 -40 -55 -40 -58 0 -2 22 5 50 17 27 11 52 18 55 15 15
-15 -104 -153 -163 -190 -24 -15 -32 -26 -29 -39 3 -12 -6 -28 -27 -47 -59
-52 -57 -56 24 -48 68 7 72 6 65 -11 -4 -10 -11 -34 -15 -53 -3 -19 -12 -45
-18 -57 -17 -30 -15 -36 7 -30 15 4 19 0 17 -17 -1 -12 -6 -28 -10 -35 -4 -7
-6 -15 -3 -17 4 -5 213 130 315 203 34 24 36 11 7 -47 -15 -29 -22 -49 -16
-45 16 9 14 -1 -9 -45 -23 -44 -26 -60 -8 -42 29 29 35 10 13 -37 -14 -27 -27
-62 -31 -78 -3 -15 -8 -37 -11 -47 -4 -15 -1 -18 17 -13 16 4 20 2 16 -10 -3
-8 -9 -39 -12 -70 l-7 -54 38 7 c36 6 37 6 26 -15 -13 -24 -10 -25 42 -10 22
6 41 8 44 6 8 -8 -17 -49 -56 -92 -66 -75 -101 -118 -97 -123 3 -2 25 8 50 23
24 14 57 28 73 31 15 3 36 7 46 10 29 9 20 -4 -49 -68 -69 -65 -100 -107 -70
-95 9 4 24 10 34 13 9 4 -5 -16 -32 -44 -28 -28 -48 -54 -45 -57 5 -5 156 54
192 76 16 9 18 7 12 -12 -6 -18 4 -13 49 26 31 26 59 46 61 43 7 -7 -26 -40
-95 -94 -63 -49 -128 -126 -111 -132 5 -2 23 4 40 13 28 14 31 14 31 0 0 -18
5 -19 31 -5 28 16 23 3 -19 -49 -21 -25 -49 -61 -61 -79 -30 -44 -93 -172 -89
-183 2 -5 43 28 92 74 50 45 87 74 84 65 -4 -9 -2 -18 3 -20 6 -2 -6 -32 -26
-68 -37 -66 -78 -175 -73 -192 5 -13 136 120 201 203 29 37 61 72 71 79 11 7
-1 -12 -25 -41 -25 -30 -53 -66 -62 -81 -9 -15 -63 -76 -119 -135 -190 -200
-239 -255 -233 -261 3 -3 66 35 140 86 74 51 135 90 135 87 0 -2 -13 -27 -30
-55 -36 -62 -37 -67 -5 -46 14 9 25 15 25 12 0 -2 -20 -40 -45 -84 -25 -44
-45 -85 -45 -92 0 -6 26 9 58 33 116 89 100 68 -77 -95 -66 -62 -71 -68 -47
-68 46 0 178 31 202 47 29 18 31 6 8 -38 -26 -50 -7 -46 51 11 30 30 55 52 55
48 0 -3 -12 -26 -26 -52 l-26 -46 270 0 270 0 27 82 c15 46 36 101 45 123 112
253 239 585 346 902 48 142 91 263 97 268 9 9 5 -19 -9 -67 -12 -39 14 -13 75
77 36 52 68 95 72 95 5 0 24 24 42 53 32 50 67 87 67 72 0 -37 -43 -151 -100
-263 -38 -75 -67 -138 -65 -141 3 -2 11 2 20 9 19 16 19 12 -1 -35 -8 -20 -13
-39 -11 -41 3 -3 26 19 52 48 44 48 47 50 41 24 -16 -65 -23 -117 -17 -121 4
-2 25 18 46 45 22 27 41 48 43 45 2 -2 -1 -27 -7 -55 -19 -90 -15 -101 20 -50
l31 45 -6 -45 -6 -45 24 28 23 29 6 -24 c4 -12 7 -51 7 -85 0 -34 4 -64 9 -67
5 -3 23 16 40 42 35 54 37 52 15 -30 -8 -33 -13 -65 -11 -71 2 -6 19 11 38 39
l34 49 6 -42 c6 -50 16 -63 30 -43 8 11 9 2 5 -30 l-6 -45 30 35 c16 19 32 43
35 53 7 20 25 23 25 4 0 -8 -9 -42 -20 -76 -12 -34 -17 -67 -13 -74 4 -7 6
-25 5 -42 -2 -29 -2 -29 13 -11 14 19 15 18 15 -19 l0 -40 26 39 c15 21 42 71
61 110 l34 71 -6 -109 c-5 -98 -4 -108 10 -96 13 11 15 4 15 -64 0 -42 4 -76
8 -76 5 0 21 27 37 60 15 32 31 57 35 55 4 -2 10 -35 13 -72 7 -86 38 -171 55
-151 6 8 15 25 20 38 8 22 10 20 22 -22 12 -39 16 -44 28 -32 12 12 35 171 27
184 -10 16 -7 154 3 158 13 4 22 -15 47 -103 22 -79 63 -172 92 -212 13 -17
23 -35 23 -38 0 -4 9 -18 20 -32 17 -22 20 -23 20 -7 1 18 1 18 16 -1 14 -19
15 -17 8 20 -4 22 -18 78 -31 125 -84 304 -164 664 -178 800 -9 86 -20 160
-85 565 -70 432 -126 752 -148 845 -28 115 -120 234 -292 380 -68 58 -170 145
-227 193 -109 93 -219 214 -281 309 l-37 57 -645 0 c-355 0 -639 -3 -632 -6z
m412 -2767 c0 -2 -8 -10 -17 -17 -16 -13 -17 -12 -4 4 13 16 21 21 21 13z"/>
</g>
</svg>
