<?xml version="1.0" standalone="no"?>
<!DOCTYPE svg PUBLIC "-//W3C//DTD SVG 20010904//EN"
 "http://www.w3.org/TR/2001/REC-SVG-20010904/DTD/svg10.dtd">
<svg version="1.0" xmlns="http://www.w3.org/2000/svg"
 width="480.000000pt" height="360.000000pt" viewBox="0 0 480.000000 360.000000"
 preserveAspectRatio="xMidYMid meet">
<metadata>
Created by potrace 1.16, written by Peter Selinger 2001-2019
</metadata>
<rect width="1" height="360" fill="#000000"/>
<rect x="479" width="1" height="360" fill="#000000"/>
<rect width="480" height="1" fill="#000000"/>
<rect y="359" width="480" height="1" fill="#000000"/>
<g transform="translate(0.000000,360.000000) scale(0.100000,-0.100000)"
fill="#000000" stroke="none">
<path d="M0 2270 l0 -1330 86 0 c47 0 116 5 155 11 l69 12 0 38 c0 36 -2 39
-29 39 -39 0 -61 9 -61 25 0 7 11 38 25 69 25 57 42 144 46 246 l3 55 -32 -3
c-30 -2 -32 0 -32 33 0 22 -6 38 -15 41 -23 9 -18 23 10 30 14 3 30 15 35 25
9 15 5 21 -19 34 -58 29 -79 89 -41 113 11 7 20 21 20 31 0 10 7 24 15 31 9 7
33 49 55 94 38 78 40 85 43 197 4 134 13 155 75 183 39 18 42 18 87 1 31 -13
51 -28 62 -48 8 -17 25 -39 37 -48 20 -16 20 -18 3 -36 -21 -24 -22 -52 -1
-82 16 -22 16 -24 -5 -41 -21 -15 -22 -20 -12 -56 5 -21 15 -67 20 -102 10
-63 14 -71 89 -149 17 -18 32 -39 32 -46 0 -22 -55 -67 -81 -67 -14 0 -32 -6
-41 -12 -25 -20 3 -291 42 -412 16 -49 27 -93 24 -98 -10 -16 -45 -7 -68 17
-33 36 -52 32 -59 -11 -7 -41 24 -94 54 -94 30 0 32 -19 3 -31 -16 -5 -75 -17
-133 -25 -98 -14 -142 -21 -359 -60 -45 -8 -87 -12 -92 -9 -7 4 -10 -139 -10
-414 l0 -421 1028 1 1027 0 26 57 c15 31 35 80 44 107 24 66 40 88 163 227
106 119 138 158 128 158 -13 0 -283 -72 -305 -81 -21 -9 -23 -14 -19 -60 3
-29 1 -46 -4 -41 -5 5 -10 26 -12 48 -3 31 -8 38 -23 36 -10 -1 -46 -5 -80 -9
-57 -5 -63 -4 -87 20 -37 37 -33 54 16 67 146 38 198 54 198 60 0 4 -9 15 -20
25 -25 23 -25 47 0 70 18 17 21 17 45 1 28 -18 34 -63 10 -72 -30 -12 -14 -22
23 -13 33 7 331 106 374 124 22 9 82 101 74 114 -4 5 -22 15 -42 21 -30 10
-38 9 -53 -4 -38 -35 -97 0 -85 49 5 20 -5 26 -83 60 -211 90 -315 144 -311
161 8 42 33 40 145 -13 59 -29 147 -68 195 -87 l87 -34 16 24 c22 34 62 32 76
-3 20 -51 24 -55 73 -74 l48 -18 50 47 c79 75 98 128 57 160 l-20 17 20 45
c13 30 21 77 25 142 3 58 11 109 20 127 22 41 21 47 -16 80 -28 25 -33 36 -32
71 1 25 10 53 23 70 27 38 27 48 -5 62 -18 9 -24 17 -20 32 8 32 -10 53 -54
59 -29 4 -50 15 -72 37 -28 29 -30 37 -25 79 3 26 7 51 9 56 2 6 -1 11 -7 13
-5 2 -11 -5 -13 -15 -11 -69 -26 -79 -34 -23 l-3 25 -365 -2 c-464 -3 -995
-29 -1207 -59 -51 -8 -56 5 -14 36 42 29 94 46 202 63 182 30 702 57 1115 57
265 0 274 2 274 48 0 38 24 20 30 -23 4 -34 7 -36 19 -22 7 9 29 20 49 23 20
4 45 15 55 25 31 28 129 76 172 83 22 4 69 19 105 33 63 25 144 34 168 19 8
-5 10 -24 6 -60 -7 -59 2 -74 65 -109 20 -10 31 -23 28 -31 -4 -9 0 -12 12 -9
18 4 91 -68 91 -91 0 -15 -34 -103 -59 -150 -17 -32 -18 -42 -8 -54 7 -9 12
-46 12 -94 l0 -79 -52 -48 c-52 -48 -53 -50 -53 -108 1 -114 35 -443 46 -443
6 0 293 116 382 154 46 20 88 33 94 30 6 -4 21 -29 34 -58 18 -40 21 -53 11
-62 -9 -8 -365 -149 -539 -213 -33 -12 -33 -10 -10 -85 l18 -60 144 -48 c80
-27 237 -76 350 -109 112 -33 209 -64 214 -69 6 -6 3 -17 -9 -30 -38 -42 -193
-17 -492 81 -85 28 -157 49 -159 46 -8 -8 74 -123 137 -192 35 -38 86 -99 114
-135 27 -36 76 -92 108 -125 54 -56 58 -62 52 -97 l-5 -38 545 0 545 0 0 1800
0 1800 -2400 0 -2400 0 0 -1330z m3606 1295 c72 -36 151 -118 187 -195 26 -54
32 -79 35 -155 5 -132 4 -131 64 -151 55 -18 191 -81 243 -112 17 -9 73 -47
125 -82 130 -88 137 -92 199 -94 47 -2 58 -7 78 -32 30 -38 31 -101 3 -132
-40 -43 -108 -42 -201 2 l-56 27 -214 -26 c-118 -15 -234 -29 -259 -32 -25 -2
-56 -1 -70 5 -23 8 -21 10 30 29 30 11 129 37 220 58 91 21 167 40 169 41 9 8
-23 34 -64 53 -29 13 -92 27 -177 37 -141 17 -207 39 -276 92 -30 23 -43 27
-67 21 -16 -4 -57 -7 -90 -8 -117 -2 -250 90 -313 219 -22 45 -27 68 -26 126
0 63 4 78 43 150 51 94 64 110 116 137 64 34 105 45 181 46 56 1 80 -4 120
-24z"/>
<path d="M3237 2000 c-32 -26 -34 -39 -7 -68 31 -33 47 -27 53 21 8 58 -9 76
-46 47z"/>
<path d="M3250 1881 c0 -6 5 -13 10 -16 6 -3 10 1 10 9 0 9 -4 16 -10 16 -5 0
-10 -4 -10 -9z"/>
<path d="M399 1013 c-13 -34 -12 -41 10 -53 33 -17 52 -2 49 39 -2 30 -7 36
-26 37 -16 1 -26 -6 -33 -23z"/>
</g>
</svg>
