<?xml version="1.0" standalone="no"?>
<!DOCTYPE svg PUBLIC "-//W3C//DTD SVG 20010904//EN"
 "http://www.w3.org/TR/2001/REC-SVG-20010904/DTD/svg10.dtd">
<svg version="1.0" xmlns="http://www.w3.org/2000/svg"
 width="480.000000pt" height="360.000000pt" viewBox="0 0 480.000000 360.000000"
 preserveAspectRatio="xMidYMid meet">
<metadata>
Created by potrace 1.16, written by Peter Selinger 2001-2019
</metadata>
<rect width="1" height="360" fill="#000000"/>
<rect x="479" width="1" height="360" fill="#000000"/>
<rect width="480" height="1" fill="#000000"/>
<rect y="359" width="480" height="1" fill="#000000"/>
<g transform="translate(0.000000,360.000000) scale(0.100000,-0.100000)"
fill="#000000" stroke="none">
<path d="M2357 1520 c-15 -22 -69 -63 -107 -82 -36 -18 -121 -81 -147 -110
-47 -50 -65 -150 -42 -231 26 -95 146 -205 274 -251 82 -30 90 -31 141 -10
106 43 150 70 208 127 56 55 67 72 86 134 21 69 21 74 6 135 -14 56 -22 69
-78 121 -42 39 -92 73 -153 102 -49 24 -96 53 -103 64 -16 28 -66 28 -85 1z"/>
</g>
</svg>
