<?xml version="1.0" standalone="no"?>
<!DOCTYPE svg PUBLIC "-//W3C//DTD SVG 20010904//EN"
 "http://www.w3.org/TR/2001/REC-SVG-20010904/DTD/svg10.dtd">
<svg version="1.0" xmlns="http://www.w3.org/2000/svg"
 width="480.000000pt" height="360.000000pt" viewBox="0 0 480.000000 360.000000"
 preserveAspectRatio="xMidYMid meet">
<metadata>
Created by potrace 1.16, written by Peter Selinger 2001-2019
</metadata>
<rect width="1" height="360" fill="#000000"/>
<rect x="479" width="1" height="360" fill="#000000"/>
<rect width="480" height="1" fill="#000000"/>
<rect y="359" width="480" height="1" fill="#000000"/>
<g transform="translate(0.000000,360.000000) scale(0.100000,-0.100000)"
fill="#000000" stroke="none">
<path d="M0 3391 l0 -210 53 57 c110 119 327 335 327 325 0 -5 -30 -50 -66
-99 -96 -130 -189 -273 -255 -393 l-59 -106 0 -1162 0 -1162 61 -113 c34 -62
93 -160 132 -218 67 -101 201 -274 230 -298 11 -9 256 -11 981 -10 l967 3 -49
58 c-27 31 -55 70 -63 85 -8 15 -17 29 -20 32 -3 3 -28 51 -57 107 -101 200
-152 442 -138 653 24 339 143 615 373 863 52 56 118 135 145 176 223 327 287
762 172 1159 -39 133 -128 313 -188 377 -10 11 -29 35 -43 53 l-25 32 -1239 0
-1239 0 0 -209z m1632 -410 c26 -13 72 -48 102 -79 48 -50 57 -64 70 -125 9
-38 16 -84 16 -103 0 -60 -37 -137 -92 -193 -71 -72 -116 -93 -208 -99 -68 -4
-81 -1 -140 26 -86 41 -124 76 -157 147 -24 51 -28 73 -28 145 0 64 5 94 19
120 29 54 136 153 186 172 61 24 169 19 232 -11z"/>
<path d="M4430 3543 c107 -117 219 -276 310 -440 l60 -108 0 303 0 302 -211 0
-211 0 52 -57z"/>
<path d="M3199 1256 c-89 -24 -171 -90 -230 -186 -43 -70 -49 -216 -13 -295
31 -68 107 -148 170 -180 47 -24 73 -30 146 -33 86 -4 91 -3 164 32 57 29 86
51 124 97 74 89 83 111 88 216 4 85 2 95 -24 148 -37 74 -85 129 -138 160 -90
52 -191 67 -287 41z"/>
<path d="M4778 566 c-61 -126 -216 -353 -337 -491 -46 -52 -57 -71 -45 -73 9
-2 33 12 53 31 82 79 210 208 279 279 l73 76 -3 107 -3 108 -17 -37z"/>
</g>
</svg>
