<?xml version="1.0" standalone="no"?>
<!DOCTYPE svg PUBLIC "-//W3C//DTD SVG 20010904//EN"
 "http://www.w3.org/TR/2001/REC-SVG-20010904/DTD/svg10.dtd">
<svg version="1.0" xmlns="http://www.w3.org/2000/svg"
 width="480.000000pt" height="360.000000pt" viewBox="0 0 480.000000 360.000000"
 preserveAspectRatio="xMidYMid meet">
<metadata>
Created by potrace 1.16, written by Peter Selinger 2001-2019
</metadata>
<rect width="1" height="360" fill="#000000"/>
<rect x="479" width="1" height="360" fill="#000000"/>
<rect width="480" height="1" fill="#000000"/>
<rect y="359" width="480" height="1" fill="#000000"/>
<g transform="translate(0.000000,360.000000) scale(0.100000,-0.100000)"
fill="#000000" stroke="none">
<path d="M0 2629 l0 -971 52 43 c29 23 110 98 179 167 106 104 131 124 150
119 49 -11 405 -172 526 -238 195 -107 239 -122 364 -127 92 -4 122 0 215 23
l109 27 75 -17 c41 -10 80 -20 87 -22 6 -3 46 42 88 99 129 176 137 184 249
238 141 70 141 70 128 122 -11 44 -2 63 26 53 26 -10 11 35 -18 50 l-29 15
-12 -40 c-14 -47 -24 -45 -27 6 -3 44 -21 83 -22 46 0 -12 -7 -25 -15 -28 -8
-4 -15 -16 -15 -28 0 -11 -4 -32 -7 -46 -7 -23 -8 -21 -14 15 l-5 40 -12 -27
c-6 -16 -13 -28 -14 -28 -2 0 -2 28 -1 62 1 49 0 54 -5 25 -4 -21 -11 -36 -17
-35 -5 2 -11 -7 -13 -19 -5 -37 -22 -26 -22 13 0 20 -5 54 -12 75 -9 33 -13
36 -23 23 -10 -14 -15 -8 -34 37 -22 49 -24 52 -37 34 -8 -10 -14 -22 -14 -27
0 -4 -5 -8 -10 -8 -6 0 -8 20 -4 55 4 30 4 55 0 55 -4 0 -23 -7 -43 -15 -46
-19 -53 -12 -21 23 13 15 35 42 47 59 l22 33 -21 22 -20 22 -16 -22 c-19 -27
-25 -24 -129 59 l-77 61 23 24 c13 14 23 37 24 52 0 24 4 27 36 30 28 2 47 14
84 52 l48 49 -10 59 c-5 32 -6 97 -2 143 17 191 107 323 254 375 75 27 499 33
582 9 147 -43 242 -131 289 -269 l16 -47 22 20 c14 13 36 21 57 21 19 0 52 7
74 15 47 17 109 19 136 5 10 -6 29 -30 41 -53 22 -42 26 -96 18 -288 -1 -33 5
-71 14 -94 22 -52 20 -64 -11 -77 -16 -7 -29 -13 -31 -13 -1 -1 5 -22 14 -46
18 -52 74 -295 73 -324 0 -18 -1 -17 -15 5 l-15 25 5 -25 c9 -48 -34 -224 -71
-290 -8 -14 -17 -33 -20 -42 -3 -10 -14 -18 -24 -18 -14 0 -19 -8 -20 -27 -1
-28 -1 -28 -12 5 -12 31 -13 32 -27 12 -13 -19 -15 -17 -26 27 -7 26 -10 52
-8 57 2 6 0 25 -5 41 l-10 30 1 -30 c0 -16 -4 -41 -9 -55 -9 -22 -12 -16 -22
45 -7 39 -23 106 -36 150 -13 44 -27 110 -30 148 l-7 67 -50 0 -50 0 6 -35 c3
-19 9 -52 12 -72 l5 -38 -28 33 c-15 18 -31 32 -35 32 -3 0 -12 -17 -19 -37
-11 -33 -13 -35 -25 -19 -11 16 -14 14 -25 -26 -16 -53 -18 -56 -29 -38 -7 11
-10 8 -11 -15 l-1 -30 -11 28 c-6 15 -14 27 -17 27 -4 0 -16 -33 -28 -72 l-20
-73 -2 45 -2 45 -12 -40 -13 -40 -4 55 c-4 55 -4 55 -17 25 -10 -21 -15 -26
-21 -16 -7 11 -11 9 -19 -5 -10 -17 -12 -16 -18 13 -6 29 -8 31 -35 21 -35
-12 -43 -54 -9 -43 27 8 35 -15 21 -56 -8 -23 -8 -36 0 -45 6 -7 56 -36 112
-63 119 -60 130 -68 188 -146 89 -120 153 -195 168 -195 8 0 49 9 92 21 l77
21 103 -26 c161 -41 300 -34 424 19 22 9 96 49 165 87 117 66 478 234 527 245
18 4 46 -18 145 -113 68 -66 151 -141 186 -167 l62 -48 0 960 0 961 -2400 0
-2400 0 0 -971z"/>
<path d="M2967 2667 c-39 -113 -40 -118 -27 -165 7 -30 19 -46 39 -57 39 -19
41 -12 41 130 0 112 -7 175 -19 175 -3 0 -19 -38 -34 -83z"/>
<path d="M2322 2241 c34 -14 123 -10 153 6 10 6 -21 9 -85 9 -96 -1 -100 -2
-68 -15z"/>
<path d="M3222 1980 c0 -14 2 -19 5 -12 2 6 2 18 0 25 -3 6 -5 1 -5 -13z"/>
<path d="M4285 1829 c-86 -42 -100 -52 -97 -71 1 -12 11 -31 21 -43 10 -11 31
-49 47 -83 l28 -64 -48 -221 c-52 -242 -66 -292 -81 -292 -5 0 -36 90 -67 200
-31 110 -64 223 -73 251 -16 50 -15 53 10 120 14 37 32 75 40 84 19 21 19 40
0 40 -29 0 -144 -58 -220 -111 -82 -58 -92 -80 -52 -116 13 -11 36 -50 52 -87
l28 -67 -43 -232 c-24 -127 -47 -243 -52 -256 -8 -21 -11 -22 -22 -10 -13 14
-29 63 -117 354 l-42 140 22 65 c13 36 30 73 39 83 8 9 12 20 8 24 -3 4 -71 9
-150 11 -125 4 -144 2 -149 -12 -4 -10 1 -21 14 -29 12 -6 36 -44 54 -83 l33
-72 -33 -213 c-18 -118 -36 -235 -39 -261 -5 -29 -12 -48 -20 -48 -18 0 -176
456 -176 508 0 40 31 136 51 158 11 11 19 25 19 31 0 18 -56 25 -131 18 l-70
-7 6 -32 c5 -23 1 -38 -15 -58 -20 -26 -20 -29 -5 -58 8 -16 20 -30 25 -30 30
0 -13 -59 -52 -72 -7 -3 -2 -42 17 -118 15 -63 28 -141 29 -173 l3 -57 54 -33
c30 -18 95 -62 144 -98 50 -36 138 -100 196 -142 l105 -77 81 7 c160 12 335
-59 280 -115 -15 -15 -20 -15 -53 2 -44 20 -60 10 -43 -27 8 -17 40 -40 98
-70 118 -62 188 -81 270 -74 64 5 107 -5 96 -23 -14 -22 -105 -64 -178 -82
-84 -20 -152 -19 -242 4 -22 5 -92 40 -155 78 -63 37 -138 75 -165 84 -84 27
-495 263 -583 334 -24 19 -53 50 -65 68 -12 18 -30 35 -39 37 -10 3 -19 19
-23 41 -4 20 -11 33 -16 30 -13 -8 -10 -139 5 -219 10 -49 11 -76 3 -92 -8
-19 0 -43 47 -147 66 -143 105 -251 131 -353 l19 -73 878 0 878 0 -2 557 c-3
549 -4 559 -26 630 l-23 71 26 57 c34 77 36 188 4 205 -11 6 -55 40 -99 75
l-78 63 30 -66 c16 -37 30 -76 30 -87 -1 -30 -112 -489 -121 -498 -16 -16 -30
23 -95 260 l-66 243 26 70 c15 39 37 79 50 89 14 11 24 29 24 44 0 15 7 30 16
35 15 8 15 12 3 29 -36 51 -87 103 -100 102 -8 0 -59 -23 -114 -50z"/>
<path d="M364 1841 c-14 -14 -39 -42 -55 -62 -25 -32 -27 -38 -14 -49 8 -7 15
-23 15 -37 0 -13 11 -34 25 -46 13 -12 35 -53 49 -90 l24 -69 -53 -176 c-92
-304 -100 -327 -115 -327 -11 0 -27 57 -62 230 -26 127 -47 244 -48 261 0 17
11 57 25 88 26 58 22 71 -11 35 -10 -12 -47 -41 -81 -66 l-63 -45 0 -66 c0
-43 8 -89 22 -129 l21 -62 -21 -73 c-21 -71 -22 -88 -22 -615 l0 -543 879 0
879 0 17 73 c26 105 70 227 126 346 42 89 49 112 47 160 -1 31 2 102 7 159 7
93 6 102 -8 96 -12 -4 -20 2 -28 20 -12 26 -12 26 -46 -36 -18 -34 -48 -77
-65 -96 -35 -37 -411 -289 -543 -365 -44 -25 -100 -51 -124 -57 -24 -6 -82
-28 -130 -49 -174 -76 -198 -82 -292 -67 -96 16 -183 47 -252 91 -81 52 -67
77 32 57 69 -14 146 -3 279 40 59 19 97 37 107 51 27 38 19 47 -37 44 -46 -2
-53 0 -53 17 0 37 46 58 142 63 77 5 95 3 141 -17 l53 -23 39 29 c21 16 119
94 217 173 98 80 206 163 241 185 61 39 62 40 62 85 0 44 37 216 59 273 9 24
7 28 -25 47 -41 24 -44 50 -8 86 l25 25 -20 28 c-11 15 -21 43 -23 62 l-3 35
-78 3 c-98 4 -120 -9 -83 -47 32 -35 67 -153 56 -189 -5 -15 -39 -124 -75
-242 -37 -118 -71 -219 -76 -225 -6 -6 -12 -6 -18 0 -10 10 -91 458 -91 500 0
36 56 152 80 165 18 10 19 14 8 27 -11 13 -34 15 -151 11 -76 -3 -140 -8 -143
-11 -3 -3 1 -16 9 -29 8 -12 24 -51 36 -84 l22 -61 -40 -129 c-22 -71 -56
-183 -76 -249 -39 -125 -49 -146 -64 -130 -10 11 -91 458 -91 502 0 36 55 153
80 170 34 24 19 54 -56 107 -64 45 -158 94 -211 110 -18 6 -23 3 -23 -10 0
-10 6 -25 13 -33 16 -19 57 -126 57 -149 0 -29 -143 -486 -156 -501 -11 -12
-15 -11 -23 10 -6 13 -31 131 -55 263 l-45 238 36 72 c19 39 41 75 49 81 7 5
14 20 16 32 3 19 -12 30 -104 76 l-107 55 -27 -27z"/>
</g>
</svg>
