<?xml version="1.0" standalone="no"?>
<!DOCTYPE svg PUBLIC "-//W3C//DTD SVG 20010904//EN"
 "http://www.w3.org/TR/2001/REC-SVG-20010904/DTD/svg10.dtd">
<svg version="1.0" xmlns="http://www.w3.org/2000/svg"
 width="480.000000pt" height="360.000000pt" viewBox="0 0 480.000000 360.000000"
 preserveAspectRatio="xMidYMid meet">
<metadata>
Created by potrace 1.16, written by Peter Selinger 2001-2019
</metadata>
<rect width="1" height="360" fill="#000000"/>
<rect x="479" width="1" height="360" fill="#000000"/>
<rect width="480" height="1" fill="#000000"/>
<rect y="359" width="480" height="1" fill="#000000"/>
<g transform="translate(0.000000,360.000000) scale(0.100000,-0.100000)"
fill="#000000" stroke="none">
<path d="M0 2651 c0 -801 2 -950 14 -960 20 -17 29 -60 15 -77 -6 -8 -15 -11
-20 -8 -5 3 -9 -335 -9 -800 l0 -806 669 0 668 0 -5 50 c-3 39 -1 50 10 50 17
0 48 -51 48 -79 l0 -21 1705 0 1705 0 0 1800 0 1800 -734 0 -735 0 34 -37 c19
-21 35 -45 35 -54 0 -14 -114 -99 -132 -99 -4 0 -16 20 -28 45 l-22 45 23 37
c13 21 30 43 39 50 12 10 -148 12 -755 13 l-771 0 -11 -30 c-7 -18 -25 -36
-47 -46 -34 -17 -37 -17 -56 1 -26 23 -25 40 2 59 21 15 19 16 -39 16 -34 0
-65 -5 -69 -11 -11 -18 -86 -49 -120 -49 -43 0 -52 25 -16 44 24 14 7 15 -189
16 -174 0 -219 -3 -235 -15 -25 -19 -63 -19 -70 0 -5 12 -29 15 -129 15 l-122
0 -7 -40 c-3 -23 -13 -43 -21 -46 -20 -8 -60 19 -81 56 l-18 30 -263 0 -263 0
0 -949z m1082 644 c-4 -15 -53 -26 -89 -19 -64 12 -28 33 52 30 22 0 39 -5 37
-11z m-312 -20 c-24 -13 -70 -9 -70 7 0 5 4 7 8 4 5 -3 22 -1 38 3 38 11 53 2
24 -14z m1204 -207 c-14 -21 -99 -68 -126 -68 -37 0 -35 14 6 39 64 40 138 58
120 29z m1351 -88 c-10 -11 -41 -34 -69 -52 -28 -18 -52 -36 -54 -40 -6 -13
-32 -9 -32 5 0 20 40 54 96 81 62 32 84 34 59 6z m-2245 -329 c0 -10 -54 -31
-81 -31 -22 0 -24 11 -7 28 14 14 88 16 88 3z m925 -2 c50 -13 51 -30 4 -54
-34 -18 -79 -19 -114 -3 -34 15 -32 36 8 53 40 17 47 18 102 4z m-1787 -109
c27 -17 62 -70 62 -95 0 -3 -13 -5 -29 -5 -31 0 -91 43 -91 65 0 7 -7 18 -15
25 -41 34 20 42 73 10z m3807 -160 c7 -11 -81 -57 -91 -48 -10 11 7 29 40 44
38 16 43 17 51 4z m-1924 -579 c-12 -22 -31 -28 -31 -10 0 23 22 51 32 41 7
-7 6 -17 -1 -31z m2436 -28 c2 -6 -5 -14 -16 -18 -12 -3 -60 -31 -107 -60 -47
-30 -92 -51 -100 -48 -20 7 -17 14 14 44 46 44 94 73 141 85 51 14 63 13 68
-3z m-2091 -37 c3 -8 -2 -61 -12 -118 -10 -57 -17 -127 -15 -155 2 -58 -13
-71 -38 -30 -20 31 -26 154 -11 216 18 74 62 124 76 87z m-602 -28 c23 -10 62
-55 54 -63 -5 -5 -98 -35 -107 -35 -5 0 -23 14 -40 32 -32 33 -40 63 -18 71
23 10 86 7 111 -5z m165 -101 c32 -65 21 -70 -18 -7 -34 56 -37 63 -18 58 6
-2 23 -25 36 -51z m2225 -135 c3 -5 -17 -30 -44 -57 -36 -35 -61 -51 -100 -61
-52 -13 -86 -8 -72 11 4 6 28 27 53 48 62 50 149 81 163 59z m-3812 -49 c21
-19 26 -103 6 -103 -20 0 -58 43 -58 66 0 53 19 67 52 37z m1422 -25 c-16 -32
-103 -122 -111 -115 -8 9 51 99 80 122 43 33 51 31 31 -7z m196 -21 c0 -10
-44 -137 -57 -164 -34 -73 -45 -16 -14 68 23 59 47 99 61 99 6 0 10 -2 10 -3z
m780 -257 c38 -38 67 -70 64 -70 -25 0 -154 113 -154 135 0 18 30 -4 90 -65z
m-1667 15 c37 -15 91 -71 82 -85 -3 -5 -17 -5 -31 0 -34 13 -44 12 -41 -2 4
-25 -59 -21 -88 5 -32 27 -27 47 11 47 24 0 32 14 14 25 -15 9 -12 25 4 25 7
0 29 -7 49 -15z m2852 -42 c-11 -80 -42 -180 -68 -224 -22 -36 -26 -39 -31
-21 -4 11 -13 23 -21 26 -23 9 -20 30 22 154 14 39 76 112 97 112 4 0 5 -21 1
-47z m-2430 -33 c7 -11 -24 -25 -108 -47 -47 -12 -65 -12 -88 -3 -30 13 -39
30 -16 30 6 1 50 7 97 14 109 18 108 18 115 6z m964 -355 c42 -13 22 -28 -29
-21 -59 8 -100 22 -100 34 0 9 90 0 129 -13z m1261 3 c31 -16 45 -29 45 -43 0
-11 11 -26 24 -33 33 -19 12 -37 -42 -37 -33 0 -58 10 -114 47 -40 26 -73 52
-73 57 0 35 97 40 160 9z m-1751 1 c18 -6 29 -15 24 -20 -11 -11 -83 8 -83 21
0 13 20 13 59 -1z m-664 -188 c-16 -15 -85 -31 -85 -20 0 5 10 14 23 19 30 12
74 13 62 1z m-855 -116 c23 -38 44 -43 74 -20 36 27 111 12 144 -28 13 -15 6
-47 -9 -47 -4 0 -29 -13 -55 -29 -25 -17 -59 -33 -75 -36 -35 -8 -126 22 -134
43 -6 17 12 42 31 42 24 0 26 20 5 54 -12 18 -21 38 -21 45 0 22 19 11 40 -24z
m3578 -29 c27 -14 54 -31 61 -40 15 -18 7 -36 -16 -36 -9 0 -40 -7 -69 -17
-49 -15 -55 -15 -99 1 -44 17 -75 40 -75 55 0 14 94 61 123 61 15 0 49 -11 75
-24z m-1703 -26 c13 -21 7 -117 -9 -148 -28 -54 -48 -39 -61 48 -2 15 7 43 21
68 25 42 38 51 49 32z m-808 -80 c19 -38 2 -49 -65 -43 -52 5 -92 24 -92 44 0
13 61 28 105 26 31 -2 42 -7 52 -27z"/>
</g>
</svg>
