<?xml version="1.0" standalone="no"?>
<!DOCTYPE svg PUBLIC "-//W3C//DTD SVG 20010904//EN"
 "http://www.w3.org/TR/2001/REC-SVG-20010904/DTD/svg10.dtd">
<svg version="1.0" xmlns="http://www.w3.org/2000/svg"
 width="480.000000pt" height="360.000000pt" viewBox="0 0 480.000000 360.000000"
 preserveAspectRatio="xMidYMid meet">
<metadata>
Created by potrace 1.16, written by Peter Selinger 2001-2019
</metadata>
<rect width="1" height="360" fill="#000000"/>
<rect x="479" width="1" height="360" fill="#000000"/>
<rect width="480" height="1" fill="#000000"/>
<rect y="359" width="480" height="1" fill="#000000"/>
<g transform="translate(0.000000,360.000000) scale(0.100000,-0.100000)"
fill="#000000" stroke="none">
<path d="M3865 3363 c21 -39 0 -69 -45 -65 -26 2 -31 0 -22 -11 8 -10 -10 -26
-81 -74 -86 -57 -94 -60 -114 -47 -20 13 -23 12 -33 -6 -9 -17 -7 -28 11 -56
19 -32 20 -39 9 -80 -9 -30 -11 -80 -7 -150 l5 -104 -66 2 c-62 3 -67 1 -79
-23 -11 -22 -22 -27 -89 -37 -79 -13 -104 -7 -104 24 0 15 -45 19 -99 8 -24
-5 -36 -16 -50 -45 -18 -36 -14 -58 8 -45 17 11 60 -55 82 -127 24 -75 40 -97
72 -97 30 0 82 29 130 70 24 22 55 42 69 45 l25 6 -17 -73 c-37 -158 -40 -188
-26 -217 12 -23 12 -29 -4 -48 -9 -12 -30 -52 -46 -90 -35 -85 -79 -155 -138
-221 -63 -72 -79 -106 -71 -151 12 -66 48 -107 128 -146 41 -19 81 -35 90 -35
25 0 36 -49 21 -93 -21 -60 -26 -141 -13 -206 9 -47 9 -67 0 -90 -10 -23 -10
-33 0 -49 10 -16 10 -26 0 -49 -12 -28 -16 -31 -82 -36 -98 -8 -123 -23 -127
-71 -2 -28 3 -47 18 -68 27 -37 21 -64 -23 -109 -47 -46 -84 -116 -70 -130 6
-6 29 -13 52 -16 34 -5 42 -2 47 13 10 33 24 58 49 89 l24 29 36 -17 c19 -9
35 -21 35 -26 0 -5 24 -18 53 -30 45 -19 56 -28 76 -70 l23 -49 -37 -51 c-45
-62 -42 -93 9 -115 34 -14 53 -46 40 -67 -3 -6 -22 -18 -42 -26 l-35 -14 7
-67 c4 -36 9 -68 12 -71 2 -3 11 5 20 17 8 12 21 22 27 22 15 0 108 65 125 87
6 9 12 25 12 35 0 11 11 36 25 56 14 20 25 45 25 54 0 10 9 27 21 39 17 17 28
20 63 15 32 -5 52 -1 92 18 46 22 52 29 58 63 17 91 6 116 -61 148 -19 9 -37
23 -39 30 -3 7 25 44 66 84 82 80 81 76 37 210 -16 49 -18 69 -10 90 5 15 6
36 2 46 -4 11 -8 63 -7 115 0 65 -7 120 -21 174 -27 101 -26 113 4 158 14 20
25 45 25 56 0 29 -29 121 -56 180 -14 29 -38 105 -55 170 -16 64 -40 133 -53
153 -24 36 -24 36 -5 65 10 16 19 43 20 59 0 17 8 57 17 89 15 53 22 62 57 80
43 23 63 62 64 123 1 27 -6 37 -39 59 -22 15 -40 28 -40 30 0 2 17 14 38 27
24 16 66 28 122 36 47 7 108 16 135 21 28 5 74 12 102 15 59 8 73 19 50 43
-15 14 -31 13 -177 -13 -88 -15 -162 -26 -165 -23 -3 3 2 21 10 41 18 44 19
79 3 123 -10 29 -9 35 20 70 33 39 33 59 0 51 -13 -4 -22 1 -28 16 -5 12 -28
51 -52 87 l-43 65 23 22 c28 29 28 67 0 87 -32 23 -39 20 -23 -11z m385 -533
c0 -5 -10 -12 -22 -15 -52 -11 -302 -45 -306 -41 -5 6 17 11 133 31 50 9 106
20 125 24 49 12 70 13 70 1z m-625 -50 c3 -5 -1 -10 -9 -10 -9 0 -16 5 -16 10
0 6 4 10 9 10 6 0 13 -4 16 -10z m-230 -89 c-28 -11 -111 -23 -103 -15 9 9 67
22 98 22 22 1 23 0 5 -7z m-45 -39 c0 -11 -9 -27 -21 -38 -20 -18 -21 -18 -34
0 -22 29 -6 50 43 55 6 0 12 -7 12 -17z m419 -1153 c31 -73 55 -192 56 -279 0
-30 6 -65 12 -76 10 -17 9 -25 -2 -40 -8 -11 -15 -42 -15 -71 0 -36 -4 -53
-12 -53 -7 0 -49 11 -93 24 -44 13 -104 27 -133 31 -34 4 -56 13 -62 24 -9 18
-6 192 5 286 3 28 13 82 22 122 16 71 16 71 57 82 122 32 132 29 165 -50z"/>
<path d="M2170 3332 c0 -11 -7 -25 -15 -32 -9 -7 -13 -21 -9 -34 4 -17 -7 -34
-47 -74 -28 -29 -60 -52 -70 -52 -54 0 -63 -30 -25 -86 19 -28 23 -44 19 -75
-5 -32 -1 -44 17 -64 13 -14 30 -25 37 -25 7 0 16 -13 19 -29 4 -17 12 -32 20
-35 28 -11 12 -24 -51 -42 -60 -17 -65 -21 -60 -42 4 -17 -2 -26 -27 -42 -27
-16 -34 -17 -48 -6 -22 20 -72 14 -98 -12 -26 -26 -28 -38 -7 -50 9 -4 13 -15
10 -24 -10 -25 -56 -41 -128 -44 -38 -1 -73 -6 -78 -11 -20 -20 76 -163 109
-163 12 0 24 18 38 57 23 66 39 76 47 33 9 -41 41 -40 100 5 52 40 66 42 88
18 9 -10 30 -26 47 -35 17 -9 40 -34 51 -56 l20 -39 -34 -69 c-19 -38 -48
-112 -65 -164 -18 -52 -47 -130 -66 -174 -19 -43 -37 -98 -41 -122 -5 -39 -3
-46 24 -71 17 -16 55 -41 86 -56 l56 -28 -5 -42 c-3 -23 -2 -60 4 -82 5 -25 5
-51 -1 -69 -7 -20 -6 -35 1 -47 19 -30 4 -46 -46 -52 -53 -6 -92 -43 -92 -88
0 -34 53 -82 126 -114 40 -18 54 -29 54 -44 0 -14 -8 -22 -27 -26 -16 -3 -44
-10 -63 -15 -19 -5 -57 -11 -83 -13 -27 -3 -53 -9 -59 -15 -10 -10 2 -62 23
-104 14 -28 11 -43 -17 -69 -23 -22 -33 -24 -104 -22 -44 2 -82 -1 -85 -7 -8
-13 21 -66 40 -74 26 -10 30 -8 79 32 43 36 92 55 171 69 17 2 64 -2 105 -11
93 -19 196 -9 236 23 15 12 33 21 40 21 8 0 28 19 45 43 17 23 37 46 45 50 23
13 16 33 -23 65 -35 28 -36 31 -24 59 6 16 32 47 57 67 60 51 73 79 48 107
-10 11 -33 27 -50 34 -25 10 -33 22 -43 58 -6 25 -11 59 -11 74 0 16 -4 33 -9
39 -5 5 -11 27 -13 49 -3 22 -8 47 -12 55 -5 12 4 18 37 27 24 7 58 25 77 41
28 25 34 37 38 84 3 46 -2 70 -31 144 -44 112 -52 139 -72 244 -9 47 -25 106
-37 132 -20 45 -20 49 -5 66 22 24 21 34 -3 82 -27 53 -25 74 12 128 78 112
80 135 17 152 -40 11 -52 35 -24 46 8 4 13 10 10 14 -3 5 -1 11 3 14 14 9 12
68 -3 95 -8 15 -24 53 -35 86 l-20 60 21 29 c27 36 19 53 -37 75 -49 19 -128
86 -120 100 11 17 -5 63 -20 57 -8 -3 -14 1 -14 9 0 7 -4 17 -10 20 -5 3 -10
-3 -10 -13z m76 -1670 c5 -4 25 -36 43 -71 27 -52 33 -77 35 -129 l1 -66 -55
3 c-70 3 -105 23 -90 52 6 11 8 33 5 49 -6 25 6 114 20 158 5 13 24 16 41 4z
m-181 -662 c0 -34 -4 -46 -17 -48 -19 -4 -43 29 -54 71 -6 28 -6 28 32 25 l39
-3 0 -45z"/>
<path d="M624 3185 c-4 -8 -12 -15 -19 -15 -8 0 -11 -15 -10 -47 2 -48 2 -48
-62 -98 -42 -33 -73 -49 -87 -47 -13 1 -29 -4 -36 -13 -7 -8 -19 -15 -26 -15
-9 0 -4 -15 16 -47 26 -41 29 -52 24 -99 l-7 -52 41 -29 c30 -20 41 -35 42
-54 0 -14 11 -39 25 -55 28 -32 30 -45 14 -61 -6 -6 -13 -24 -15 -39 -13 -106
-17 -109 -144 -150 -47 -15 -89 -33 -95 -40 -15 -17 -70 -31 -150 -38 -70 -5
-70 -5 -90 26 -43 67 -45 56 -45 -210 l0 -250 212 -143 c117 -78 221 -144 232
-146 12 -2 46 3 76 11 53 14 56 14 77 -6 13 -12 23 -25 23 -29 0 -5 -14 -28
-31 -53 -19 -27 -33 -61 -36 -88 -5 -41 -2 -48 29 -79 19 -19 88 -63 153 -99
65 -35 112 -66 105 -68 -23 -8 -104 -72 -127 -101 -11 -15 -23 -38 -25 -51 -3
-22 -10 -26 -53 -32 -79 -10 -222 -43 -318 -73 l-89 -27 -48 41 c-27 23 -55
41 -63 41 -8 0 -37 -9 -65 -21 l-50 -21 1 -231 0 -232 81 -82 c45 -45 142
-144 216 -220 l135 -138 170 0 170 0 90 53 c111 67 155 99 155 116 0 7 -34 42
-76 77 -42 35 -106 90 -143 122 -36 31 -92 78 -123 104 -76 61 -95 113 -29 79
26 -14 42 -15 98 -6 117 19 135 27 193 85 47 48 54 60 55 96 1 45 21 66 80 86
138 47 176 87 155 162 -13 49 -105 143 -166 171 -33 14 -49 28 -59 55 -9 19
-20 35 -25 35 -6 0 -10 10 -10 22 0 11 -17 37 -38 57 -21 20 -55 57 -76 84
l-38 47 46 0 c25 0 63 6 83 14 21 8 55 17 75 19 43 6 174 81 188 108 25 45 16
69 -80 215 -25 38 -61 103 -80 144 -19 41 -51 96 -72 122 -21 26 -38 55 -38
66 0 10 -14 44 -31 76 -17 32 -42 99 -56 148 -13 50 -33 109 -43 131 -11 22
-20 44 -20 48 0 4 17 17 39 29 41 24 64 70 50 105 -4 11 -17 53 -30 93 l-22
73 23 31 23 31 -27 24 c-15 13 -35 23 -45 23 -25 0 -60 41 -73 86 -5 21 -19
51 -30 66 -10 15 -23 40 -29 57 -12 33 -37 48 -45 26z m-78 -910 c4 -37 21
-72 51 -106 l24 -26 -48 -2 c-27 -1 -58 -2 -70 -2 -13 -1 -23 -7 -23 -14 0 -8
-19 -16 -47 -20 -42 -6 -54 -3 -120 32 -40 21 -73 41 -73 45 0 13 69 60 79 54
5 -3 53 12 108 34 54 22 102 38 107 37 5 -2 10 -16 12 -32z m-336 -56 c0 -16
-20 -19 -40 -7 -28 18 -25 25 10 20 17 -2 30 -8 30 -13z m475 -231 c-11 -49
-12 -50 -66 -21 -62 32 -50 49 39 52 33 1 33 0 27 -31z m-55 -1088 c11 -11 20
-27 20 -35 0 -8 -9 -23 -20 -32 -27 -23 -25 -42 4 -53 30 -11 25 -42 -10 -65
-14 -9 -32 -31 -41 -50 -28 -58 -67 -52 -148 23 -28 26 -70 64 -93 84 -46 40
-55 68 -20 68 12 0 29 6 37 14 9 7 45 21 81 31 36 9 79 20 95 25 50 13 74 11
95 -10z"/>
</g>
</svg>
