<?xml version="1.0" standalone="no"?>
<!DOCTYPE svg PUBLIC "-//W3C//DTD SVG 20010904//EN"
 "http://www.w3.org/TR/2001/REC-SVG-20010904/DTD/svg10.dtd">
<svg version="1.0" xmlns="http://www.w3.org/2000/svg"
 width="480.000000pt" height="360.000000pt" viewBox="0 0 480.000000 360.000000"
 preserveAspectRatio="xMidYMid meet">
<metadata>
Created by potrace 1.16, written by Peter Selinger 2001-2019
</metadata>
<rect width="1" height="360" fill="#000000"/>
<rect x="479" width="1" height="360" fill="#000000"/>
<rect width="480" height="1" fill="#000000"/>
<rect y="359" width="480" height="1" fill="#000000"/>
<g transform="translate(0.000000,360.000000) scale(0.100000,-0.100000)"
fill="#000000" stroke="none">
<path d="M0 1800 l0 -1800 2400 0 2400 0 0 1800 0 1800 -2400 0 -2400 0 0
-1800z m2489 675 c26 -19 54 -35 60 -35 6 0 15 -8 18 -17 10 -27 81 -137 178
-274 47 -66 85 -128 85 -136 0 -8 -29 -46 -65 -85 -35 -38 -97 -115 -137 -171
-62 -88 -78 -119 -114 -227 -23 -69 -45 -145 -49 -169 -8 -51 -72 -208 -88
-218 -6 -3 -22 7 -36 24 -14 16 -33 32 -42 35 -17 7 -33 69 -49 188 -5 41 -24
147 -40 235 -61 318 -63 335 -57 445 3 58 10 117 16 132 17 44 125 180 196
247 36 33 68 61 70 61 3 0 27 -16 54 -35z"/>
</g>
</svg>
