<?xml version="1.0" standalone="no"?>
<!DOCTYPE svg PUBLIC "-//W3C//DTD SVG 20010904//EN"
 "http://www.w3.org/TR/2001/REC-SVG-20010904/DTD/svg10.dtd">
<svg version="1.0" xmlns="http://www.w3.org/2000/svg"
 width="480.000000pt" height="360.000000pt" viewBox="0 0 480.000000 360.000000"
 preserveAspectRatio="xMidYMid meet">
<metadata>
Created by potrace 1.16, written by Peter Selinger 2001-2019
</metadata>
<rect width="1" height="360" fill="#000000"/>
<rect x="479" width="1" height="360" fill="#000000"/>
<rect width="480" height="1" fill="#000000"/>
<rect y="359" width="480" height="1" fill="#000000"/>
<g transform="translate(0.000000,360.000000) scale(0.100000,-0.100000)"
fill="#000000" stroke="none">
<path d="M4698 3380 c-108 -117 -151 -183 -143 -220 4 -14 29 -87 56 -163 27
-76 49 -148 49 -160 0 -14 -33 -56 -88 -112 -106 -110 -217 -243 -259 -310
-70 -112 -200 -383 -216 -450 -24 -101 -9 -183 62 -324 18 -34 36 -88 42 -119
5 -31 14 -66 18 -77 15 -35 31 -101 31 -129 0 -31 16 -35 25 -6 11 34 23 22
36 -35 15 -67 24 -76 34 -32 l7 32 24 -53 c13 -28 44 -82 70 -120 42 -61 45
-64 42 -35 -5 33 5 44 16 21 4 -7 4 5 1 27 l-4 40 20 -25 20 -25 -7 35 -6 35
36 -35 c20 -19 46 -56 58 -82 24 -53 38 -61 38 -23 0 14 3 25 6 25 3 0 35 -20
70 -45 l64 -44 0 1254 c0 690 -2 1255 -4 1255 -2 0 -46 -45 -98 -100z m-23
-2220 c5 0 27 -12 49 -27 23 -15 42 -28 44 -29 2 -1 6 -17 8 -36 3 -18 7 -39
9 -45 10 -30 -18 -9 -65 50 -72 86 -75 91 -85 107 -5 10 -2 9 12 -2 11 -10 23
-18 28 -18z"/>
<path d="M1530 3011 c0 -5 11 -33 25 -63 14 -29 25 -61 25 -70 0 -10 38 -56
85 -102 54 -53 85 -91 85 -105 0 -32 297 -357 608 -665 139 -138 161 -162 146
-171 -10 -5 -44 -34 -76 -63 -48 -43 -63 -51 -83 -46 -14 3 -41 3 -60 0 -28
-6 -39 -15 -54 -45 -17 -33 -23 -37 -49 -33 -20 3 -37 -3 -55 -20 -23 -20 -28
-35 -36 -103 -10 -86 -5 -96 54 -130 17 -10 16 -15 -5 -95 -58 -220 -25 -608
77 -900 22 -65 96 -253 122 -315 5 -11 14 -35 21 -52 l12 -33 339 0 339 0
-130 260 c-72 143 -130 264 -130 268 0 4 -15 32 -34 64 l-34 56 22 34 c94 138
176 296 176 338 0 12 44 77 78 115 15 16 41 47 59 68 l32 38 65 -68 c35 -37
68 -65 72 -61 4 4 -3 30 -14 58 -17 41 -18 50 -6 50 7 0 14 2 14 4 0 5 -22 45
-48 85 -12 20 -18 39 -13 45 34 44 54 199 29 224 -30 30 -101 7 -160 -51 -11
-11 -13 9 -15 122 -2 157 -18 283 -42 327 -53 101 -143 206 -189 225 -26 10
-56 -2 -65 -25 -8 -20 7 -101 38 -211 32 -113 39 -156 26 -175 -8 -12 -15 -9
-38 19 -15 19 -53 64 -83 101 -30 37 -73 90 -95 119 -38 50 -234 289 -278 341
-12 14 -52 61 -88 105 -109 131 -238 242 -331 285 -46 21 -89 53 -157 120 -82
79 -158 140 -176 140 -3 0 -5 -4 -5 -9z"/>
<path d="M4762 856 c-18 -24 -32 -49 -32 -54 0 -16 43 -80 58 -86 9 -4 12 17
12 89 0 52 -1 95 -3 95 -2 0 -18 -20 -35 -44z"/>
<path d="M4350 101 c-65 -10 -119 -42 -141 -83 -9 -17 7 -18 291 -18 l300 0 0
35 c0 38 10 35 -145 54 -116 15 -253 21 -305 12z"/>
</g>
</svg>
