<?xml version="1.0" standalone="no"?>
<!DOCTYPE svg PUBLIC "-//W3C//DTD SVG 20010904//EN"
 "http://www.w3.org/TR/2001/REC-SVG-20010904/DTD/svg10.dtd">
<svg version="1.0" xmlns="http://www.w3.org/2000/svg"
 width="480.000000pt" height="360.000000pt" viewBox="0 0 480.000000 360.000000"
 preserveAspectRatio="xMidYMid meet">
<metadata>
Created by potrace 1.16, written by Peter Selinger 2001-2019
</metadata>
<rect width="1" height="360" fill="#000000"/>
<rect x="479" width="1" height="360" fill="#000000"/>
<rect width="480" height="1" fill="#000000"/>
<rect y="359" width="480" height="1" fill="#000000"/>
<g transform="translate(0.000000,360.000000) scale(0.100000,-0.100000)"
fill="#000000" stroke="none">
<path d="M1844 2670 c-37 -14 -37 -28 -1 -88 71 -117 187 -361 187 -392 0 -17
6 -41 14 -53 8 -12 18 -53 21 -90 7 -63 11 -71 47 -105 22 -20 47 -40 56 -43
22 -9 81 -147 92 -216 5 -31 14 -60 19 -67 6 -7 2 -43 -10 -101 -10 -49 -19
-100 -19 -111 0 -12 -8 -45 -17 -73 -15 -49 -15 -57 1 -129 10 -42 20 -85 22
-94 4 -13 -3 -21 -20 -28 -19 -7 -26 -17 -26 -35 0 -31 17 -65 39 -82 12 -9
13 -14 4 -24 -13 -13 -50 13 -106 76 -30 35 -57 46 -57 24 0 -6 28 -40 63 -75
34 -34 76 -77 92 -94 17 -17 38 -37 47 -45 17 -14 21 -26 33 -97 6 -36 10 -40
98 -82 100 -49 133 -77 167 -146 12 -25 33 -56 45 -70 26 -28 45 -87 45 -140
0 -38 50 -151 83 -187 19 -21 22 -22 38 -7 16 15 19 14 32 -13 18 -35 85 -73
123 -72 47 3 97 21 126 47 33 30 54 106 39 145 -8 21 -7 28 6 35 10 6 13 14 7
23 -4 8 -9 22 -9 31 -2 16 0 17 15 3 22 -20 36 -19 19 2 -8 9 -14 26 -15 37
-1 12 -5 29 -9 40 -7 16 -5 17 16 11 23 -7 23 -6 -5 24 -16 17 -27 34 -23 37
6 6 -101 104 -114 104 -3 0 -37 42 -75 93 -38 50 -90 119 -117 152 -26 33 -62
89 -78 125 -27 55 -30 71 -24 110 12 74 6 164 -16 227 -24 65 -37 164 -38 270
-1 59 4 80 27 124 24 47 27 66 29 155 2 94 1 102 -17 107 -16 4 -20 14 -20 49
-1 23 -7 60 -14 81 -12 32 -12 38 2 46 13 7 14 29 9 147 -6 163 -15 191 -86
257 -45 43 -55 47 -98 47 -70 0 -119 -32 -171 -110 -51 -77 -52 -114 -1 -166
34 -35 34 -64 1 -64 -11 0 -31 -10 -46 -21 l-27 -22 -16 23 c-12 17 -22 21
-45 16 -23 -4 -37 0 -59 18 -15 13 -32 26 -37 28 -13 4 -138 255 -177 352 -17
44 -35 81 -40 82 -6 2 -20 -1 -31 -6z m461 -772 c4 -35 5 -81 3 -103 l-3 -40
-31 60 c-48 92 -50 105 -23 126 39 30 47 24 54 -43z m339 -1280 c40 -99 23
-121 -49 -63 -25 21 -45 43 -45 49 0 11 53 44 73 45 4 1 14 -14 21 -31z"/>
</g>
</svg>
