<?xml version="1.0" standalone="no"?>
<!DOCTYPE svg PUBLIC "-//W3C//DTD SVG 20010904//EN"
 "http://www.w3.org/TR/2001/REC-SVG-20010904/DTD/svg10.dtd">
<svg version="1.0" xmlns="http://www.w3.org/2000/svg"
 width="480.000000pt" height="360.000000pt" viewBox="0 0 480.000000 360.000000"
 preserveAspectRatio="xMidYMid meet">
<metadata>
Created by potrace 1.16, written by Peter Selinger 2001-2019
</metadata>
<rect width="1" height="360" fill="#000000"/>
<rect x="479" width="1" height="360" fill="#000000"/>
<rect width="480" height="1" fill="#000000"/>
<rect y="359" width="480" height="1" fill="#000000"/>
<g transform="translate(0.000000,360.000000) scale(0.100000,-0.100000)"
fill="#000000" stroke="none">
<path d="M0 1800 l0 -1800 2400 0 2400 0 0 1800 0 1800 -2400 0 -2400 0 0
-1800z m2204 1005 c4 -10 20 -15 51 -15 52 0 66 -17 45 -55 -22 -41 -9 -53 49
-44 41 6 56 15 88 50 55 61 99 78 190 73 92 -5 121 -17 214 -89 40 -31 91 -66
112 -76 21 -11 35 -24 32 -29 -13 -20 -90 -9 -145 20 -53 29 -94 38 -103 23
-3 -5 -8 -31 -12 -59 l-7 -52 69 -22 c79 -26 127 -50 167 -84 26 -22 28 -26
17 -56 -13 -39 -10 -46 26 -55 16 -3 39 -14 53 -23 14 -9 27 -17 30 -17 3 0
17 -13 32 -28 20 -20 23 -27 11 -27 -11 0 -14 -6 -9 -25 4 -14 2 -26 -4 -26
-5 -1 -15 -2 -20 -3 -6 0 -15 -7 -19 -15 -6 -9 -20 -12 -47 -7 -59 9 -76 8
-85 -6 -14 -21 -10 -31 9 -23 9 4 33 9 53 12 l37 5 7 -98 c3 -55 8 -104 10
-109 3 -13 273 -64 341 -65 16 0 25 -50 9 -50 -6 0 -62 7 -125 15 -62 8 -115
13 -117 11 -6 -6 153 -66 179 -68 13 0 90 12 172 27 133 24 165 27 280 22 141
-6 208 -21 199 -43 -3 -10 3 -14 20 -14 24 0 25 -3 20 -35 -5 -30 -3 -35 21
-41 24 -6 31 -15 27 -36 -1 -10 3 -10 33 2 14 5 25 6 25 2 -3 -21 3 -31 16
-26 11 4 13 2 9 -9 -4 -12 5 -18 38 -25 l43 -9 -37 -17 c-21 -9 -38 -19 -38
-22 0 -3 12 -15 26 -26 20 -16 23 -23 12 -29 -10 -7 -10 -9 0 -9 6 0 12 -5 12
-11 0 -6 -8 -9 -18 -7 -22 6 -23 -32 -1 -58 13 -16 11 -17 -21 -11 l-35 7 24
-19 24 -18 -27 -7 c-16 -4 -38 -1 -56 9 -38 19 -48 19 -46 -2 1 -13 -5 -17
-21 -16 -16 2 -21 -2 -17 -12 7 -18 -7 -19 -26 -2 -8 6 -6 2 4 -10 l19 -23
-31 0 c-38 0 -39 -5 -9 -31 l22 -20 -25 7 c-14 4 -34 8 -45 9 -11 0 -35 8 -52
18 -18 10 -45 22 -60 28 -23 8 -19 2 22 -37 51 -47 43 -44 -40 15 -54 38 -137
62 -300 86 -129 18 -211 38 -271 64 -39 18 -44 18 -65 3 -15 -10 -45 -15 -91
-16 -74 0 -74 0 -57 -60 19 -67 -21 -123 -69 -97 -11 6 -28 30 -37 53 l-18 43
-11 -36 c-13 -43 -33 -69 -53 -69 -16 0 -44 59 -41 87 0 10 0 37 0 61 -2 39
-4 43 -23 37 -12 -4 -32 -1 -45 6 -20 10 -42 10 -113 1 -48 -7 -116 -12 -149
-12 -51 0 -63 3 -76 22 -9 13 -13 31 -10 45 9 34 -12 53 -55 51 -20 -1 -47 1
-61 5 -14 3 -115 11 -225 17 -110 6 -217 13 -239 16 -55 9 -38 -11 24 -26 47
-11 49 -13 43 -41 -3 -16 -2 -29 3 -29 5 0 32 -15 61 -33 l51 -32 -19 -23
c-19 -24 -45 -24 -71 1 -31 30 -119 79 -133 73 -9 -3 -15 0 -15 8 0 14 -107
66 -178 87 -38 11 -44 10 -65 -8 -43 -38 -102 -21 -102 31 0 19 -9 22 -90 32
-108 13 -125 21 -151 69 -16 31 -17 37 -4 45 14 9 56 15 90 12 8 -1 57 -3 107
-6 51 -3 97 -7 102 -10 13 -8 515 -55 669 -63 l133 -6 46 49 c25 27 58 74 74
106 15 31 40 73 54 93 29 43 31 55 10 55 -20 0 -30 23 -50 120 -9 47 -21 90
-26 96 -5 6 -24 14 -41 18 -67 13 -105 91 -58 116 11 6 20 18 20 26 0 8 4 13
9 9 5 -3 22 0 36 7 25 11 29 10 52 -17 19 -23 23 -38 20 -67 -4 -25 0 -41 10
-50 8 -6 22 -29 30 -50 17 -42 39 -52 29 -14 -4 15 0 28 10 37 32 26 44 64 31
98 -10 27 -15 31 -37 26 -22 -5 -32 1 -58 34 -19 24 -29 46 -26 55 3 9 1 16
-4 16 -15 0 -50 16 -97 45 -22 13 -58 33 -80 43 -22 11 -50 31 -62 46 -13 14
-27 26 -32 26 -14 0 -30 55 -21 70 5 8 19 11 35 8 l26 -5 -26 27 c-29 30 -28
38 8 78 23 25 62 29 71 7z"/>
<path d="M2847 2144 l28 -26 -37 20 c-20 11 -38 18 -41 16 -9 -9 32 -109 47
-112 8 -2 21 9 30 26 8 16 23 33 32 36 20 8 13 16 -39 45 -50 28 -54 26 -20
-5z"/>
<path d="M2530 1973 c-8 -25 -42 -89 -77 -141 -90 -135 -82 -155 30 -80 77 51
115 85 132 119 13 23 11 30 -25 87 -22 34 -41 62 -43 62 -3 0 -10 -21 -17 -47z"/>
<path d="M3017 1851 c-23 -8 -13 -18 53 -51 46 -24 170 -52 170 -40 0 4 -21
15 -47 25 -27 10 -73 30 -103 45 -34 17 -62 25 -73 21z"/>
</g>
</svg>
