<?xml version="1.0" standalone="no"?>
<!DOCTYPE svg PUBLIC "-//W3C//DTD SVG 20010904//EN"
 "http://www.w3.org/TR/2001/REC-SVG-20010904/DTD/svg10.dtd">
<svg version="1.0" xmlns="http://www.w3.org/2000/svg"
 width="480.000000pt" height="360.000000pt" viewBox="0 0 480.000000 360.000000"
 preserveAspectRatio="xMidYMid meet">
<metadata>
Created by potrace 1.16, written by Peter Selinger 2001-2019
</metadata>
<rect width="1" height="360" fill="#000000"/>
<rect x="479" width="1" height="360" fill="#000000"/>
<rect width="480" height="1" fill="#000000"/>
<rect y="359" width="480" height="1" fill="#000000"/>
<g transform="translate(0.000000,360.000000) scale(0.100000,-0.100000)"
fill="#000000" stroke="none">
<path d="M0 2380 l0 -1220 23 0 c12 0 38 8 57 18 32 16 35 22 40 70 3 30 2 56
-2 58 -20 13 -4 36 36 53 45 20 65 54 44 78 -7 9 -7 18 3 30 7 10 15 20 16 22
2 3 13 -5 26 -16 12 -12 31 -23 42 -26 13 -3 9 -5 -12 -6 -30 -1 -33 -4 -33
-31 0 -26 5 -31 41 -40 22 -6 54 -20 71 -30 29 -17 31 -22 33 -86 3 -75 11
-86 78 -106 29 -9 43 -21 58 -49 14 -28 24 -37 35 -32 10 4 20 -1 26 -10 5 -9
27 -20 48 -23 35 -6 44 -13 70 -60 22 -37 32 -71 37 -118 l6 -65 36 -5 c20 -3
133 -8 251 -11 269 -8 366 -19 402 -45 l27 -20 6 30 c4 17 4 79 0 138 l-7 108
47 67 c25 37 50 67 55 67 4 0 13 -7 20 -15 7 -8 25 -15 41 -15 24 0 35 -10 65
-55 l36 -54 -6 -423 c-4 -233 -9 -453 -12 -490 l-6 -68 1551 0 1551 0 0 1800
0 1800 -2400 0 -2400 0 0 -1220z m3300 321 c36 -36 49 -80 27 -92 -14 -8 -14
-14 2 -62 l18 -52 111 -29 c62 -16 112 -34 112 -40 0 -19 -43 -50 -85 -63
l-40 -11 59 -1 c51 -1 57 -3 46 -16 -7 -8 -19 -15 -26 -15 -8 0 -19 -11 -24
-25 -6 -17 -17 -25 -33 -25 -40 0 -50 -20 -24 -48 21 -24 21 -25 1 -20 -22 5
-26 -14 -10 -41 7 -10 4 -11 -10 -3 -11 5 -25 7 -31 5 -7 -3 -14 1 -14 9 -1 7
-5 -18 -9 -57 -4 -38 -7 -71 -6 -72 2 -2 38 16 82 38 43 22 98 43 122 46 l42
6 -6 -34 c-3 -19 -21 -67 -41 -107 -19 -40 -33 -77 -31 -83 2 -5 17 -2 33 7
35 18 234 28 325 15 55 -7 55 -8 28 -21 -32 -15 -36 -28 -10 -37 73 -26 84
-33 72 -47 -9 -12 -4 -17 32 -26 69 -18 76 -22 43 -29 -40 -8 -38 -27 4 -49
50 -25 54 -47 7 -38 -34 7 -51 -6 -23 -17 9 -4 9 -7 -1 -14 -10 -7 -8 -14 8
-28 15 -14 17 -21 9 -32 -6 -7 -8 -13 -4 -13 4 0 2 -6 -4 -14 -10 -11 -8 -16
8 -21 26 -8 27 -22 4 -27 -12 -3 -4 -11 27 -25 l45 -20 -29 -12 c-21 -8 -38
-9 -59 -1 -41 14 -46 13 -40 -10 3 -13 14 -20 29 -20 12 0 26 -5 29 -10 4 -6
-14 -10 -45 -10 -42 0 -51 -3 -46 -15 3 -8 0 -15 -6 -15 -7 0 -6 -5 2 -15 15
-18 -1 -21 -32 -4 -25 13 -38 -2 -30 -35 4 -17 -2 -14 -37 17 -23 21 -48 36
-54 34 -15 -5 -17 -37 -4 -54 7 -9 4 -13 -11 -13 -13 0 -24 -10 -30 -27 -7
-18 -11 -22 -11 -10 -1 9 -6 17 -12 17 -6 0 -9 9 -6 20 6 24 -16 41 -77 60
-51 16 -86 -1 -86 -42 0 -37 -15 -28 -24 14 l-7 33 -17 -35 c-9 -19 -30 -41
-46 -48 -25 -13 -31 -12 -54 5 -22 16 -29 33 -38 94 -15 92 -22 109 -44 109
-10 0 -23 7 -30 15 -21 25 -36 1 -60 -96 -24 -98 -42 -119 -78 -93 -22 15 -45
73 -40 101 4 27 -10 43 -37 43 -13 0 -44 9 -69 20 -45 19 -46 19 -36 0 5 -10
10 -27 10 -37 -1 -18 -10 -9 -88 84 -31 37 -42 41 -42 14 0 -26 -17 -36 -35
-21 -10 8 -11 18 -5 36 6 16 6 24 -1 24 -15 0 -59 47 -59 64 0 28 35 37 101
27 l62 -10 41 40 c22 23 57 48 78 56 27 11 40 23 44 42 3 14 11 39 18 55 10
24 10 37 -2 73 -8 23 -19 43 -25 43 -21 0 -47 34 -47 63 0 16 -7 45 -16 64
-16 33 -16 36 6 83 27 58 23 131 -9 184 -18 29 -24 32 -63 29 -24 -1 -56 -5
-72 -7 -20 -3 -34 1 -43 12 -19 26 -17 28 45 52 79 32 83 37 44 68 -43 36 -41
46 5 27 26 -11 44 -13 58 -6 11 5 27 11 36 14 9 3 30 30 47 60 43 77 82 107
139 107 36 0 50 -6 73 -29z"/>
<path d="M3450 1870 c0 -5 5 -10 11 -10 5 0 7 5 4 10 -3 6 -8 10 -11 10 -2 0
-4 -4 -4 -10z"/>
<path d="M3040 1680 c-9 -6 -10 -10 -3 -10 6 0 15 5 18 10 8 12 4 12 -15 0z"/>
</g>
</svg>
