<?xml version="1.0" standalone="no"?>
<!DOCTYPE svg PUBLIC "-//W3C//DTD SVG 20010904//EN"
 "http://www.w3.org/TR/2001/REC-SVG-20010904/DTD/svg10.dtd">
<svg version="1.0" xmlns="http://www.w3.org/2000/svg"
 width="480.000000pt" height="360.000000pt" viewBox="0 0 480.000000 360.000000"
 preserveAspectRatio="xMidYMid meet">
<metadata>
Created by potrace 1.16, written by Peter Selinger 2001-2019
</metadata>
<rect width="1" height="360" fill="#000000"/>
<rect x="479" width="1" height="360" fill="#000000"/>
<rect width="480" height="1" fill="#000000"/>
<rect y="359" width="480" height="1" fill="#000000"/>
<g transform="translate(0.000000,360.000000) scale(0.100000,-0.100000)"
fill="#000000" stroke="none">
<path d="M0 1800 l0 -1800 703 0 c535 1 697 3 682 12 -24 14 -54 49 -55 63 -1
29 -54 84 -108 113 -65 35 -74 50 -86 142 -6 41 -4 48 23 74 18 17 31 42 35
66 8 48 38 85 146 175 48 39 84 77 82 83 -2 7 4 11 15 10 10 -2 74 29 143 67
137 77 239 165 320 275 25 34 87 114 137 178 51 64 93 121 93 125 0 4 -8 10
-17 14 -34 12 -62 46 -79 95 -13 40 -19 48 -33 42 -27 -12 -84 -10 -88 4 -3 6
0 12 6 12 6 0 30 12 52 26 l41 26 -6 91 c-16 212 -33 277 -72 277 -28 0 -41
30 -20 46 11 7 16 27 16 60 0 29 7 59 15 72 14 20 14 21 0 16 -19 -8 -20 10
-1 25 16 13 28 51 17 51 -4 0 -18 -11 -30 -24 -23 -24 -67 -43 -55 -24 8 12
-28 46 -44 40 -6 -2 -15 3 -18 12 -3 9 -12 16 -19 16 -7 0 -16 13 -20 29 -4
19 -11 28 -20 25 -22 -9 -26 12 -5 31 25 23 26 38 1 30 -12 -3 -21 0 -25 10
-3 8 -12 15 -21 15 -8 0 -15 5 -15 10 0 6 14 10 30 10 18 0 33 6 36 15 3 8 25
23 48 35 23 11 54 32 68 47 35 36 108 145 108 159 0 22 88 131 121 151 88 53
158 50 281 -13 37 -18 69 -30 72 -26 10 17 144 91 182 101 64 17 268 33 352
28 353 -22 667 -204 864 -502 82 -123 101 -168 139 -317 35 -140 35 -148 5
-266 -27 -105 -68 -180 -139 -254 -38 -40 -53 -49 -73 -45 -16 3 -39 -6 -71
-27 -123 -83 -151 -91 -198 -60 -27 18 -71 14 -117 -10 -72 -38 -143 -30 -195
21 -33 34 -35 35 -78 24 -97 -24 -156 -6 -226 69 -68 74 -87 70 -143 -27 -39
-67 -44 -83 -39 -116 4 -30 1 -43 -15 -60 -11 -12 -24 -35 -28 -52 -9 -39 -22
-55 -44 -55 -24 0 -30 -29 -12 -58 18 -28 82 -62 115 -62 30 0 77 36 77 58 1
26 27 55 44 49 26 -10 31 -57 10 -96 -42 -78 -126 -101 -219 -61 l-47 20 5
-32 c3 -18 13 -100 22 -183 31 -295 57 -489 86 -646 16 -89 29 -176 29 -195
l0 -34 1030 0 1030 0 0 134 0 134 -32 7 c-36 8 -68 26 -68 37 0 5 23 8 50 8
l50 0 0 1640 0 1640 -185 0 c-180 0 -185 -1 -221 -25 -49 -33 -80 -33 -39 0
l30 25 -2192 0 -2193 0 0 -1800z m4770 1760 c13 -8 13 -10 -2 -10 -9 0 -20 5
-23 10 -8 13 5 13 25 0z m-4140 -15 c7 -9 10 -18 6 -22 -8 -9 -56 14 -56 27 0
15 36 12 50 -5z m580 -122 c0 -13 -4 -23 -9 -23 -10 0 -22 51 -14 64 8 12 23
-15 23 -41z m515 37 c3 -6 -4 -10 -17 -10 -18 0 -20 2 -8 10 19 12 18 12 25 0z
m1270 -55 c-8 -44 -23 -53 -34 -22 -6 15 -8 34 -6 42 17 53 15 52 31 30 10
-13 13 -31 9 -50z m-145 -12 c0 -22 -49 -84 -50 -63 0 16 36 80 45 80 3 0 5
-8 5 -17z m-1566 -53 c44 -16 22 -25 -26 -10 -53 17 -75 35 -33 27 17 -3 43
-10 59 -17z m1396 -296 c0 -2 -7 -4 -15 -4 -8 0 -15 4 -15 10 0 5 7 7 15 4 8
-4 15 -8 15 -10z m-2270 -12 c0 -47 -70 -73 -78 -29 -7 33 6 47 43 47 27 0 35
-4 35 -18z m580 -6 c0 -16 -18 -31 -27 -22 -8 8 5 36 17 36 5 0 10 -6 10 -14z
m1379 -12 c17 -4 31 -11 31 -16 0 -14 -73 -5 -78 10 -4 14 3 15 47 6z m-2256
-51 c7 -12 -11 -53 -23 -53 -14 0 -24 26 -16 45 6 16 32 21 39 8z m513 -129
c-6 -16 -8 -16 -23 -2 -9 10 -13 23 -9 34 6 16 8 16 23 2 9 -10 13 -23 9 -34z
m3974 -254 c0 -5 -16 -10 -35 -10 -19 0 -35 5 -35 10 0 6 16 10 35 10 19 0 35
-4 35 -10z m-3083 -72 c13 -12 23 -25 23 -29 0 -11 -53 9 -62 24 -21 33 5 37
39 5z m-1067 -68 c-20 -13 -63 -13 -55 0 3 6 21 10 38 10 24 0 28 -3 17 -10z
m3719 -646 c11 -10 -8 -13 -42 -7 -20 3 -34 10 -31 15 5 8 62 2 73 -8z m-3739
-142 c0 -11 -60 -67 -87 -81 -26 -13 -30 -3 -12 30 18 34 99 75 99 51z m1070
-32 c0 -5 -11 -10 -25 -10 -14 0 -25 5 -25 10 0 6 11 10 25 10 14 0 25 -4 25
-10z m-1300 -258 c0 -4 -16 -23 -35 -42 -27 -26 -35 -30 -35 -16 0 9 12 28 26
41 27 25 44 32 44 17z m3120 -22 c0 -11 -4 -20 -10 -20 -5 0 -10 9 -10 20 0
11 5 20 10 20 6 0 10 -9 10 -20z m1310 -360 c-20 -13 -40 -13 -40 0 0 6 12 10
28 10 21 0 24 -2 12 -10z m-4409 -127 c7 -20 5 -23 -15 -23 -31 0 -50 22 -33
39 17 17 38 10 48 -16z m2502 -53 c-3 -11 -9 -20 -15 -20 -5 0 -4 9 2 20 6 11
12 20 14 20 2 0 2 -9 -1 -20z m1871 -11 c13 -65 7 -98 -19 -115 -41 -27 -55
-13 -52 52 3 45 8 61 26 75 32 26 37 24 45 -12z m-4124 12 c0 -10 -98 -26
-107 -17 -9 9 38 25 75 25 17 1 32 -3 32 -8z m220 -49 c0 -31 -104 -82 -124
-62 -11 11 -12 10 38 44 37 25 86 35 86 18z m-576 -453 c-7 -12 -66 -39 -85
-39 -19 0 21 38 45 43 39 8 47 7 40 -4z"/>
<path d="M2025 2230 c-10 -11 -16 -23 -12 -26 8 -9 58 27 51 37 -8 14 -19 11
-39 -11z"/>
<path d="M2530 1759 c-15 -35 -7 -243 10 -264 6 -7 25 -15 43 -18 17 -4 42 -9
54 -13 18 -5 28 3 57 49 43 68 45 92 9 111 -37 19 -66 52 -92 103 -18 36 -46
63 -64 63 -3 0 -10 -14 -17 -31z"/>
</g>
</svg>
