<?xml version="1.0" standalone="no"?>
<!DOCTYPE svg PUBLIC "-//W3C//DTD SVG 20010904//EN"
 "http://www.w3.org/TR/2001/REC-SVG-20010904/DTD/svg10.dtd">
<svg version="1.0" xmlns="http://www.w3.org/2000/svg"
 width="480.000000pt" height="360.000000pt" viewBox="0 0 480.000000 360.000000"
 preserveAspectRatio="xMidYMid meet">
<metadata>
Created by potrace 1.16, written by Peter Selinger 2001-2019
</metadata>
<rect width="1" height="360" fill="#000000"/>
<rect x="479" width="1" height="360" fill="#000000"/>
<rect width="480" height="1" fill="#000000"/>
<rect y="359" width="480" height="1" fill="#000000"/>
<g transform="translate(0.000000,360.000000) scale(0.100000,-0.100000)"
fill="#000000" stroke="none">
<path d="M1467 2880 c-41 -16 -51 -17 -74 -5 -45 24 -106 -23 -79 -60 10 -15
9 -29 -11 -82 -14 -40 -20 -70 -15 -77 5 -6 12 -23 15 -37 10 -39 47 -83 60
-70 15 15 37 14 37 -3 0 -8 -8 -24 -19 -37 -20 -25 -18 -28 79 -146 14 -17 12
-23 -6 -23 -9 0 -28 -12 -41 -27 -24 -25 -25 -27 -9 -60 20 -42 21 -38 -14
-53 -26 -11 -110 -105 -110 -124 0 -4 -11 -24 -25 -44 -43 -63 -29 -134 37
-185 l31 -25 -11 -91 c-10 -80 -16 -98 -52 -152 -30 -46 -38 -65 -30 -74 8
-10 3 -35 -21 -95 -25 -66 -29 -84 -18 -91 11 -6 10 -14 -4 -44 -10 -20 -15
-40 -12 -45 3 -4 -2 -13 -9 -19 -9 -7 -14 -30 -14 -54 0 -23 -24 -215 -55
-427 -31 -212 -58 -412 -62 -445 -14 -139 -26 -241 -31 -262 l-4 -23 506 0
506 0 -6 27 c-22 110 -60 350 -81 518 -33 257 -111 576 -175 723 -19 42 -19
42 1 42 18 0 16 6 -18 48 -21 26 -44 55 -52 64 -11 15 -5 27 46 93 103 134
101 124 56 268 -23 75 -24 80 -7 98 17 19 17 20 -3 34 -19 13 -20 19 -11 52
24 89 22 119 -17 224 -34 93 -36 103 -21 117 12 12 16 13 16 3 0 -10 3 -11 13
-2 10 7 17 7 24 0 8 -8 15 -5 23 12 11 20 13 20 22 6 16 -30 31 -19 24 17 -8
43 0 65 24 59 22 -6 30 6 34 54 3 28 8 37 20 35 9 -2 16 -1 16 2 0 12 -41 98
-64 135 -14 22 -26 52 -26 67 0 33 -130 179 -173 194 -47 16 -156 11 -210 -10z"/>
</g>
</svg>
