<?xml version="1.0" standalone="no"?>
<!DOCTYPE svg PUBLIC "-//W3C//DTD SVG 20010904//EN"
 "http://www.w3.org/TR/2001/REC-SVG-20010904/DTD/svg10.dtd">
<svg version="1.0" xmlns="http://www.w3.org/2000/svg"
 width="480.000000pt" height="360.000000pt" viewBox="0 0 480.000000 360.000000"
 preserveAspectRatio="xMidYMid meet">
<metadata>
Created by potrace 1.16, written by Peter Selinger 2001-2019
</metadata>
<rect width="1" height="360" fill="#000000"/>
<rect x="479" width="1" height="360" fill="#000000"/>
<rect width="480" height="1" fill="#000000"/>
<rect y="359" width="480" height="1" fill="#000000"/>
<g transform="translate(0.000000,360.000000) scale(0.100000,-0.100000)"
fill="#000000" stroke="none">
<path d="M0 1800 l0 -1800 2400 0 2400 0 0 1800 0 1800 -1055 0 -1054 0 18
-43 c38 -88 54 -193 48 -306 -9 -180 -53 -265 -247 -486 -75 -86 -110 -145
-110 -188 0 -39 -13 -33 -33 17 -10 23 -41 72 -70 107 -30 35 -103 130 -164
211 -121 158 -144 208 -157 338 -8 77 13 205 49 293 l23 57 -1024 0 -1024 0 0
-1800z m2290 595 c0 -7 7 -15 15 -19 8 -3 15 -13 15 -23 0 -10 9 -24 20 -31
11 -7 20 -19 20 -27 0 -10 10 -15 28 -15 63 -1 113 -37 195 -144 26 -33 32
-36 80 -36 81 0 264 -50 327 -88 64 -39 70 -51 70 -126 0 -43 -6 -81 -15 -96
-7 -14 -21 -41 -30 -60 -43 -93 -123 -123 -186 -69 -35 30 -52 23 -97 -41 -48
-67 -95 -103 -159 -120 -50 -13 -57 -39 -22 -76 15 -16 19 -29 14 -41 -8 -17
-8 -17 -12 0 -4 17 -15 22 -25 11 -10 -10 19 -101 43 -133 17 -23 23 -43 22
-73 -2 -45 8 -58 44 -58 37 0 55 27 48 71 -5 32 -4 39 9 39 16 0 46 -48 46
-74 0 -26 -50 -75 -83 -81 -58 -11 -83 7 -123 90 -20 41 -40 75 -45 75 -13 0
-11 -96 6 -250 16 -157 26 -207 67 -349 29 -101 58 -236 58 -268 0 -9 -6 -13
-15 -9 -12 4 -15 -4 -15 -40 0 -44 -1 -45 -27 -40 -16 3 -35 2 -43 -3 -20 -14
-18 -85 6 -143 10 -26 16 -49 13 -52 -9 -10 -72 -15 -102 -9 -27 6 -28 8 -21
47 3 22 10 48 15 57 13 25 -18 109 -41 109 -31 0 -59 -33 -66 -77 -5 -35 -3
-44 16 -60 63 -52 66 -72 15 -96 -46 -22 -94 -22 -102 0 -3 9 -2 38 4 65 8 40
7 55 -9 90 -18 40 -18 41 -61 34 -127 -20 -119 -21 -171 23 -32 28 -57 41 -76
41 -21 0 -33 8 -46 30 -10 16 -31 34 -46 39 -30 11 -34 21 -17 53 8 15 8 26
-1 43 -14 27 -8 38 87 159 115 147 150 238 168 445 4 51 3 71 -4 66 -15 -9
-15 -7 18 87 57 167 58 170 37 162 -7 -3 -16 2 -19 10 -4 9 -18 16 -32 16 -17
0 -43 16 -73 44 -60 55 -71 58 -105 30 -39 -33 -75 -40 -106 -23 -23 13 -26
20 -23 62 2 28 -1 54 -8 62 -20 24 -4 58 73 162 82 110 122 147 203 188 30 15
57 32 60 37 4 5 13 42 21 81 18 91 49 139 116 177 38 23 44 29 23 24 -26 -6
-28 -5 -22 12 4 10 13 45 19 76 5 31 14 55 19 52 4 -3 8 -11 8 -19z"/>
<path d="M3025 1908 c-4 -10 -4 -26 0 -35 8 -17 8 -17 12 0 3 9 3 25 0 35 -4
16 -4 16 -12 0z"/>
<path d="M2970 1793 c-34 -7 -146 -58 -154 -71 -4 -6 10 -22 31 -36 68 -47
113 -31 149 50 13 30 24 57 24 59 0 5 -11 5 -50 -2z"/>
<path d="M2540 1629 c-82 -16 -83 -22 -22 -87 26 -28 33 -30 61 -22 46 13 93
44 119 79 12 17 22 33 22 36 0 8 -129 4 -180 -6z"/>
<path d="M1794 1558 c-1 -57 6 -68 47 -68 25 0 59 26 59 46 0 21 -47 64 -75
70 l-30 5 -1 -53z"/>
<path d="M2016 1547 l-28 -12 46 -43 c49 -45 83 -53 110 -26 9 8 16 26 16 39
0 13 3 30 6 39 5 14 -3 16 -57 16 -35 -1 -77 -6 -93 -13z"/>
</g>
</svg>
