<?xml version="1.0" standalone="no"?>
<!DOCTYPE svg PUBLIC "-//W3C//DTD SVG 20010904//EN"
 "http://www.w3.org/TR/2001/REC-SVG-20010904/DTD/svg10.dtd">
<svg version="1.0" xmlns="http://www.w3.org/2000/svg"
 width="480.000000pt" height="360.000000pt" viewBox="0 0 480.000000 360.000000"
 preserveAspectRatio="xMidYMid meet">
<metadata>
Created by potrace 1.16, written by Peter Selinger 2001-2019
</metadata>
<rect width="1" height="360" fill="#000000"/>
<rect x="479" width="1" height="360" fill="#000000"/>
<rect width="480" height="1" fill="#000000"/>
<rect y="359" width="480" height="1" fill="#000000"/>
<g transform="translate(0.000000,360.000000) scale(0.100000,-0.100000)"
fill="#000000" stroke="none">
<path d="M2870 3567 c0 -51 28 -146 60 -206 17 -30 29 -55 27 -56 -1 0 -29 -9
-62 -19 -125 -38 -268 -124 -370 -222 -93 -90 -195 -266 -195 -336 0 -37 -42
-144 -71 -180 -16 -20 -29 -39 -29 -42 0 -13 19 -5 45 20 15 14 29 24 31 22 1
-2 -1 -21 -6 -42 -7 -31 -6 -37 7 -32 12 5 14 -6 9 -77 -6 -75 -5 -80 8 -52
l14 30 11 -45 c19 -71 23 -78 30 -53 5 20 8 18 26 -18 16 -33 20 -37 26 -22 5
16 7 16 13 -5 4 -12 14 -21 21 -20 7 2 30 -15 50 -37 32 -36 36 -37 31 -15
-17 75 -17 76 -7 55 5 -11 15 -33 22 -50 l12 -30 7 30 7 30 7 -26 c11 -40 -10
-102 -49 -145 -19 -21 -35 -41 -35 -44 0 -11 44 -46 72 -58 22 -9 29 -20 34
-52 8 -51 26 -66 82 -69 7 -1 12 -15 12 -36 0 -22 6 -38 15 -41 8 -3 26 -26
41 -51 24 -42 26 -52 21 -125 -3 -43 -1 -78 3 -78 5 0 16 -7 24 -16 12 -11 13
-20 6 -34 -7 -13 -5 -26 5 -47 8 -15 15 -39 15 -53 0 -14 7 -65 16 -113 16
-87 16 -90 -6 -165 -19 -65 -31 -85 -74 -129 l-51 -52 -59 39 c-32 22 -66 40
-75 40 -9 0 -34 21 -55 46 -21 25 -49 50 -61 56 -13 6 -41 38 -61 72 -20 33
-44 69 -52 78 -11 13 -15 49 -16 150 -2 110 -6 142 -24 189 -24 61 -71 112
-117 125 -27 9 -180 10 -230 2 -16 -2 -21 3 -23 32 -1 19 -5 41 -8 49 -9 28
-28 -8 -29 -55 l0 -46 -70 -25 c-38 -14 -87 -38 -107 -54 -20 -16 -42 -29 -48
-29 -15 0 -34 -49 -56 -137 -17 -72 -17 -72 10 -194 32 -142 29 -136 102 -225
63 -77 105 -107 176 -124 26 -7 48 -16 48 -21 0 -5 -14 -36 -30 -69 -71 -141
-97 -242 -115 -458 -8 -92 -21 -189 -30 -216 -30 -96 -82 -86 484 -86 l499 1
6 31 c3 17 6 49 7 72 l1 41 10 -35 c5 -19 14 -52 19 -72 l10 -38 709 0 710 0
0 44 0 44 68 16 c37 9 90 31 117 49 49 31 50 31 23 37 l-28 5 41 48 c22 26 37
48 32 48 -4 1 -33 0 -63 -1 -46 -2 -73 -12 -170 -66 -123 -68 -150 -76 -150
-45 0 10 -6 41 -14 67 -8 27 -19 82 -25 122 -6 41 -17 83 -23 95 -7 12 -11 29
-10 38 3 15 -38 179 -74 304 -8 28 -16 59 -18 70 -2 11 -9 39 -16 63 -16 50
-6 66 21 33 10 -13 19 -18 19 -12 0 23 21 10 26 -16 3 -16 19 -46 34 -68 16
-22 39 -57 50 -77 27 -49 44 -49 36 -1 -12 76 -36 299 -35 328 1 26 5 20 34
-41 18 -40 39 -75 46 -80 9 -5 10 -2 5 12 -17 43 -65 305 -71 387 -6 89 6 114
20 41 14 -76 75 -233 129 -334 57 -105 84 -144 73 -105 -57 204 -83 322 -74
331 2 3 29 -37 60 -88 31 -51 68 -106 82 -123 l26 -30 -6 35 c-27 149 -36 233
-45 435 -24 523 -36 657 -80 870 -29 136 -80 303 -128 416 -22 52 -48 125 -56
162 -29 126 -127 287 -214 354 -73 56 -195 78 -282 53 -33 -10 -37 -8 -63 22
-16 18 -53 61 -84 96 l-54 62 -270 0 -269 0 0 -33z m-493 -1249 c-3 -8 -6 -5
-6 6 -1 11 2 17 5 13 3 -3 4 -12 1 -19z m717 -770 c9 -22 10 -37 3 -45 -18
-24 -27 -13 -27 32 0 25 2 45 5 45 3 0 11 -15 19 -32z"/>
</g>
</svg>
