<?xml version="1.0" standalone="no"?>
<!DOCTYPE svg PUBLIC "-//W3C//DTD SVG 20010904//EN"
 "http://www.w3.org/TR/2001/REC-SVG-20010904/DTD/svg10.dtd">
<svg version="1.0" xmlns="http://www.w3.org/2000/svg"
 width="480.000000pt" height="360.000000pt" viewBox="0 0 480.000000 360.000000"
 preserveAspectRatio="xMidYMid meet">
<metadata>
Created by potrace 1.16, written by Peter Selinger 2001-2019
</metadata>
<rect width="1" height="360" fill="#000000"/>
<rect x="479" width="1" height="360" fill="#000000"/>
<rect width="480" height="1" fill="#000000"/>
<rect y="359" width="480" height="1" fill="#000000"/>
<g transform="translate(0.000000,360.000000) scale(0.100000,-0.100000)"
fill="#000000" stroke="none">
<path d="M2121 3094 c-69 -18 -108 -43 -161 -100 -90 -98 -143 -297 -105 -396
9 -24 -74 -105 -111 -110 -18 -2 -33 -12 -40 -26 -6 -12 -22 -34 -34 -47 l-24
-25 35 -36 c19 -20 51 -50 73 -67 33 -27 41 -29 59 -18 18 12 23 10 38 -10 10
-13 19 -35 19 -48 0 -33 -39 -108 -72 -140 -36 -33 -35 -41 2 -41 34 0 36 -6
15 -57 -20 -49 -10 -55 26 -15 16 17 31 32 33 32 2 0 11 -18 20 -41 18 -45 30
-44 40 3 l7 33 34 -65 c20 -35 42 -71 51 -80 15 -14 16 -13 10 10 l-7 25 17
-22 c24 -33 34 -28 35 15 l1 37 10 -32 c6 -18 15 -33 19 -33 5 0 6 7 2 16 -5
15 -3 15 20 -1 15 -9 27 -24 27 -31 0 -8 5 -14 10 -14 6 0 10 -6 10 -14 0 -20
-49 -35 -175 -52 -143 -19 -197 -37 -233 -78 -30 -34 -79 -148 -109 -256 l-19
-64 -59 -18 c-69 -20 -82 -18 -87 14 l-3 23 -160 -3 c-248 -6 -312 15 -520
170 -117 87 -215 144 -306 178 -69 25 -89 46 -96 99 -3 23 -9 41 -12 41 -12 0
-57 -52 -135 -157 -41 -56 -118 -149 -171 -206 l-95 -105 0 -266 0 -267 27 3
c24 2 37 18 83 99 72 125 105 167 136 175 30 8 64 -20 97 -78 11 -21 24 -38
28 -38 4 0 10 21 14 48 8 58 19 72 55 72 83 0 220 -108 220 -174 0 -22 6 -21
62 15 63 41 155 78 192 79 42 0 105 -33 170 -90 40 -35 61 -47 74 -43 9 4 69
42 132 84 159 107 349 199 410 199 32 0 41 -21 20 -48 -26 -32 -25 -40 5 -54
19 -9 24 -16 19 -32 -5 -14 1 -26 22 -42 l28 -23 1 -157 c1 -154 2 -157 26
-176 55 -43 60 -50 55 -64 -3 -8 -11 -45 -16 -81 -6 -37 -13 -70 -16 -75 -3
-4 -29 -15 -59 -23 -76 -23 -86 -39 -47 -74 30 -28 43 -67 39 -121 -1 -14 -28
-69 -59 -122 -32 -53 -58 -99 -58 -102 0 -3 250 -6 555 -6 318 0 555 4 555 9
0 5 -9 28 -20 52 -25 56 -25 90 0 139 29 58 26 90 -16 138 l-36 42 0 128 c-1
178 8 431 15 439 10 10 25 -37 42 -132 28 -157 36 -183 60 -209 19 -21 33 -26
70 -26 46 0 111 26 134 54 20 24 24 152 8 241 -9 44 -14 82 -12 84 2 2 36 -25
75 -60 39 -35 75 -65 80 -67 5 -2 37 15 70 38 73 49 119 70 157 70 39 0 119
-41 177 -90 l50 -41 18 35 c10 19 28 42 40 51 34 24 152 57 190 53 32 -3 33
-4 34 -51 0 -26 3 -49 6 -52 3 -3 18 15 33 39 33 52 63 71 99 62 20 -5 34 -24
66 -94 75 -163 71 -157 110 -156 19 0 71 11 115 23 100 28 131 24 305 -34 74
-25 140 -45 147 -45 32 0 4 36 -104 137 -179 164 -382 370 -446 450 -53 67
-143 201 -229 342 -37 60 -68 79 -68 41 0 -51 -20 -68 -119 -100 -94 -31 -154
-60 -316 -154 -122 -71 -177 -89 -280 -94 -50 -2 -106 0 -125 5 -32 8 -35 13
-40 54 -11 88 -135 277 -217 329 -25 16 -82 37 -132 49 -94 21 -187 53 -215
74 -18 13 -17 15 2 53 11 22 28 47 38 55 16 13 17 11 12 -21 -3 -21 0 -39 8
-48 11 -10 17 -7 36 23 13 19 26 35 30 35 3 0 10 -17 15 -37 l10 -38 23 39 23
38 13 -23 13 -24 1 30 c1 17 5 39 9 49 7 19 8 19 13 -2 8 -31 22 -27 36 10
l12 32 35 -34 c39 -38 53 -35 32 7 -31 59 -27 67 28 64 l50 -2 -27 23 c-34 29
-78 96 -78 118 0 28 25 43 40 25 22 -26 30 -17 24 25 -5 31 -3 45 11 60 18 20
19 20 47 -12 27 -32 28 -32 43 -14 23 31 19 87 -11 127 -29 39 -67 109 -59
109 12 0 62 -35 104 -74 l45 -40 15 34 c8 20 15 70 15 115 l2 80 34 -2 c19 -1
35 -2 35 -3 0 -1 26 -4 58 -6 52 -3 57 -2 57 17 0 11 -13 32 -29 47 -16 16
-43 63 -62 112 -28 72 -33 98 -34 168 0 78 -1 83 -23 89 -26 6 -98 -21 -163
-63 -24 -16 -56 -34 -70 -40 -25 -11 -28 -10 -48 26 -32 57 -114 126 -178 150
-66 24 -152 37 -318 45 -66 3 -136 7 -155 10 -19 2 -59 -3 -89 -11z m69 -1225
c0 -5 -4 -9 -10 -9 -5 0 -10 7 -10 16 0 8 5 12 10 9 6 -3 10 -10 10 -16z"/>
</g>
</svg>
