<?xml version="1.0" standalone="no"?>
<!DOCTYPE svg PUBLIC "-//W3C//DTD SVG 20010904//EN"
 "http://www.w3.org/TR/2001/REC-SVG-20010904/DTD/svg10.dtd">
<svg version="1.0" xmlns="http://www.w3.org/2000/svg"
 width="480.000000pt" height="360.000000pt" viewBox="0 0 480.000000 360.000000"
 preserveAspectRatio="xMidYMid meet">
<metadata>
Created by potrace 1.16, written by Peter Selinger 2001-2019
</metadata>
<rect width="1" height="360" fill="#000000"/>
<rect x="479" width="1" height="360" fill="#000000"/>
<rect width="480" height="1" fill="#000000"/>
<rect y="359" width="480" height="1" fill="#000000"/>
<g transform="translate(0.000000,360.000000) scale(0.100000,-0.100000)"
fill="#000000" stroke="none">
<path d="M1907 3452 c10 -246 -26 -418 -130 -630 -41 -82 -124 -210 -172 -263
-18 -20 -34 -40 -36 -45 -9 -21 -180 -165 -247 -209 -89 -57 -261 -140 -334
-161 -29 -9 -109 -24 -178 -35 -253 -40 -521 0 -743 112 -32 16 -60 29 -62 29
-3 0 -5 -506 -5 -1125 l0 -1125 1903 0 1904 0 33 135 c19 79 52 179 80 242 26
59 78 176 115 258 37 83 91 218 121 300 83 227 94 254 136 332 l40 73 -28 10
c-15 6 -39 8 -54 5 -22 -5 -28 -14 -37 -53 -15 -64 -72 -223 -85 -240 -7 -7
-20 -11 -30 -8 -11 2 -35 -6 -55 -20 -20 -13 -39 -24 -44 -24 -13 0 -39 31
-39 46 0 8 -7 29 -16 46 -37 72 -24 231 28 331 29 56 30 62 20 109 -22 94 -15
175 24 289 31 88 37 116 35 179 -3 130 45 296 100 346 9 8 31 50 49 92 71 175
157 253 320 291 50 12 117 21 148 21 31 0 74 3 95 6 l37 7 0 413 0 414 -1450
0 -1449 0 6 -148z"/>
<path d="M4753 2308 c-18 -13 -33 -31 -33 -40 0 -10 -4 -18 -10 -18 -5 0 -32
-20 -60 -45 -31 -27 -60 -45 -75 -45 -18 0 -25 -5 -25 -19 0 -15 12 -21 58
-30 44 -9 66 -19 89 -44 46 -50 69 -88 86 -142 14 -48 15 -42 16 178 1 125 -2
227 -7 227 -4 0 -22 -10 -39 -22z"/>
<path d="M4777 1392 c-21 -23 -21 -37 2 -87 l19 -40 1 73 c1 39 -1 72 -2 72
-2 0 -11 -8 -20 -18z"/>
</g>
</svg>
