<?xml version="1.0" standalone="no"?>
<!DOCTYPE svg PUBLIC "-//W3C//DTD SVG 20010904//EN"
 "http://www.w3.org/TR/2001/REC-SVG-20010904/DTD/svg10.dtd">
<svg version="1.0" xmlns="http://www.w3.org/2000/svg"
 width="480.000000pt" height="360.000000pt" viewBox="0 0 480.000000 360.000000"
 preserveAspectRatio="xMidYMid meet">
<metadata>
Created by potrace 1.16, written by Peter Selinger 2001-2019
</metadata>
<rect width="1" height="360" fill="#000000"/>
<rect x="479" width="1" height="360" fill="#000000"/>
<rect width="480" height="1" fill="#000000"/>
<rect y="359" width="480" height="1" fill="#000000"/>
<g transform="translate(0.000000,360.000000) scale(0.100000,-0.100000)"
fill="#000000" stroke="none">
<path d="M0 1800 l0 -1800 1436 0 c1370 0 1435 1 1430 18 -6 18 -105 453 -131
575 -24 112 -27 103 105 452 23 61 46 127 52 148 7 26 25 49 57 74 25 21 58
48 73 61 l26 24 -20 34 c-20 34 -21 86 -3 143 l8 24 -142 -7 c-79 -3 -234 -2
-345 4 -110 5 -302 14 -426 20 -567 27 -1035 76 -1096 117 l-26 16 26 14 c65
34 475 71 1706 153 644 43 1362 108 1843 166 l227 28 0 768 0 768 -2400 0
-2400 0 0 -1800z"/>
<path d="M4540 1609 c-147 -15 -339 -29 -615 -44 -154 -8 -302 -18 -329 -21
-43 -6 -48 -8 -33 -19 35 -25 32 -76 -10 -157 -4 -9 41 -51 94 -89 48 -34 78
-87 124 -222 17 -51 37 -101 44 -112 6 -11 20 -45 30 -75 10 -30 26 -72 36
-92 11 -20 26 -57 34 -83 16 -44 15 -49 -30 -238 -26 -105 -55 -223 -65 -262
-11 -38 -24 -91 -31 -118 -6 -26 -16 -50 -20 -53 -33 -20 23 -24 369 -24 l379
0 -23 88 c-12 48 -59 240 -103 427 l-82 341 31 74 c18 41 63 154 102 250 39
96 76 181 82 189 6 8 46 38 88 68 l77 54 -19 32 c-11 18 -20 47 -20 65 0 24
-4 32 -17 31 -10 -1 -52 -5 -93 -10z"/>
</g>
</svg>
