<?xml version="1.0" standalone="no"?>
<!DOCTYPE svg PUBLIC "-//W3C//DTD SVG 20010904//EN"
 "http://www.w3.org/TR/2001/REC-SVG-20010904/DTD/svg10.dtd">
<svg version="1.0" xmlns="http://www.w3.org/2000/svg"
 width="480.000000pt" height="360.000000pt" viewBox="0 0 480.000000 360.000000"
 preserveAspectRatio="xMidYMid meet">
<metadata>
Created by potrace 1.16, written by Peter Selinger 2001-2019
</metadata>
<rect width="1" height="360" fill="#000000"/>
<rect x="479" width="1" height="360" fill="#000000"/>
<rect width="480" height="1" fill="#000000"/>
<rect y="359" width="480" height="1" fill="#000000"/>
<g transform="translate(0.000000,360.000000) scale(0.100000,-0.100000)"
fill="#000000" stroke="none">
<path d="M751 3573 c21 -56 82 -188 89 -193 4 -3 26 -41 48 -85 46 -90 52 -85
21 17 -11 39 -19 72 -16 74 2 2 15 -13 29 -33 26 -38 26 -38 21 -223 -5 -207
-8 -218 -62 -199 -40 14 -44 10 -25 -26 19 -37 20 -57 5 -215 -7 -69 -20 -215
-30 -325 -13 -154 -21 -207 -35 -231 -18 -29 -18 -32 -1 -57 9 -15 23 -27 30
-27 32 0 34 -25 13 -205 -17 -157 -23 -183 -44 -211 -16 -20 -21 -35 -15 -39
18 -11 12 -23 -14 -29 -27 -7 -81 -79 -71 -94 3 -6 -9 -21 -27 -35 -18 -13
-45 -49 -60 -78 -15 -30 -41 -72 -57 -94 -55 -74 -80 -126 -74 -151 5 -19 1
-26 -19 -33 -28 -11 -49 -39 -96 -125 -24 -44 -29 -61 -20 -72 14 -17 0 -42
-32 -57 -26 -13 -133 -213 -123 -229 3 -5 -5 -26 -18 -46 -38 -57 -108 -245
-101 -270 3 -14 -5 -38 -25 -69 -40 -64 -47 -99 -25 -112 17 -10 17 -12 0 -41
-9 -18 -17 -38 -17 -46 0 -12 334 -14 2400 -14 l2400 0 0 234 0 234 -32 6
c-18 3 -90 9 -159 12 l-127 7 -41 166 c-44 182 -60 266 -91 503 -22 172 -53
284 -100 366 -74 127 -258 281 -447 374 -57 28 -103 52 -103 54 0 2 21 56 46
121 53 136 58 177 26 201 l-22 17 30 146 c73 357 93 613 71 892 -12 141 -12
157 4 180 20 30 52 44 68 28 14 -14 47 -14 47 -1 0 6 9 10 21 10 11 0 29 4 39
10 13 7 21 6 30 -5 16 -20 76 -20 84 0 6 17 36 21 36 5 0 -17 25 -11 43 10 9
11 17 22 17 25 0 3 -787 5 -1750 5 l-1750 0 11 -27z m555 -674 c14 -28 23 -53
21 -55 -6 -6 -54 13 -61 24 -5 9 3 82 10 82 2 0 15 -23 30 -51z m44 -102 c0
-12 -9 -33 -20 -47 -11 -14 -20 -32 -21 -40 -1 -8 -5 3 -8 25 -5 30 -2 47 12
68 21 30 37 28 37 -6z m2306 -99 c-3 -51 -6 -138 -7 -193 0 -55 -3 -126 -6
-157 -6 -55 -7 -58 -33 -58 -36 0 -39 5 -29 48 7 28 69 434 69 449 0 2 3 3 6
3 4 0 4 -42 0 -92z m-1646 -287 c24 -59 -6 -198 -52 -249 -12 -12 -38 -26 -57
-32 -39 -11 -91 -13 -91 -4 0 33 162 314 181 314 4 0 12 -13 19 -29z"/>
</g>
</svg>
