<?xml version="1.0" standalone="no"?>
<!DOCTYPE svg PUBLIC "-//W3C//DTD SVG 20010904//EN"
 "http://www.w3.org/TR/2001/REC-SVG-20010904/DTD/svg10.dtd">
<svg version="1.0" xmlns="http://www.w3.org/2000/svg"
 width="480.000000pt" height="360.000000pt" viewBox="0 0 480.000000 360.000000"
 preserveAspectRatio="xMidYMid meet">
<metadata>
Created by potrace 1.16, written by Peter Selinger 2001-2019
</metadata>
<rect width="1" height="360" fill="#000000"/>
<rect x="479" width="1" height="360" fill="#000000"/>
<rect width="480" height="1" fill="#000000"/>
<rect y="359" width="480" height="1" fill="#000000"/>
<g transform="translate(0.000000,360.000000) scale(0.100000,-0.100000)"
fill="#000000" stroke="none">
<path d="M2420 2208 c-61 -32 -101 -85 -111 -150 -5 -32 -5 -56 1 -62 6 -6 10
-18 10 -28 0 -10 5 -18 11 -18 6 0 8 -11 4 -28 -7 -35 20 -67 35 -42 7 12 10
11 16 -5 5 -12 3 -21 -7 -24 -8 -3 -34 -12 -59 -21 -39 -13 -45 -18 -42 -40 1
-14 3 -65 5 -115 1 -49 6 -96 11 -103 4 -8 9 -51 11 -96 1 -57 7 -90 19 -108
16 -25 15 -28 -52 -174 -37 -82 -94 -194 -125 -249 -32 -55 -71 -136 -88 -180
-28 -71 -30 -86 -24 -144 4 -35 12 -75 18 -88 15 -33 122 -103 260 -169 29
-14 37 -24 37 -45 0 -14 5 -50 11 -81 10 -48 8 -65 -14 -146 l-25 -92 153 0
153 0 16 74 c13 56 15 98 10 178 -6 92 -5 106 10 111 9 4 16 14 16 22 0 12 6
15 19 10 31 -9 160 71 167 104 3 14 14 47 26 72 18 43 19 52 8 125 -14 83 -27
125 -80 239 -18 39 -50 120 -71 180 -21 61 -52 136 -67 167 -25 50 -26 57 -11
61 38 10 49 47 38 126 -7 49 -7 82 -1 96 6 12 6 28 2 36 -10 17 -7 130 4 147
14 23 -5 49 -47 68 -23 10 -43 19 -45 20 -2 1 2 13 9 26 38 68 58 192 39 242
-23 61 -111 126 -170 126 -20 0 -56 -10 -80 -22z m104 -1904 c10 -25 7 -71 -6
-114 -14 -45 -22 -51 -25 -17 -1 12 -5 43 -8 69 -4 26 -5 54 -2 63 8 20 33 19
41 -1z"/>
</g>
</svg>
