<?xml version="1.0" standalone="no"?>
<!DOCTYPE svg PUBLIC "-//W3C//DTD SVG 20010904//EN"
 "http://www.w3.org/TR/2001/REC-SVG-20010904/DTD/svg10.dtd">
<svg version="1.0" xmlns="http://www.w3.org/2000/svg"
 width="480.000000pt" height="360.000000pt" viewBox="0 0 480.000000 360.000000"
 preserveAspectRatio="xMidYMid meet">
<metadata>
Created by potrace 1.16, written by Peter Selinger 2001-2019
</metadata>
<rect width="1" height="360" fill="#000000"/>
<rect x="479" width="1" height="360" fill="#000000"/>
<rect width="480" height="1" fill="#000000"/>
<rect y="359" width="480" height="1" fill="#000000"/>
<g transform="translate(0.000000,360.000000) scale(0.100000,-0.100000)"
fill="#000000" stroke="none">
<path d="M0 3229 l0 -372 45 -68 c25 -37 57 -93 71 -124 15 -30 30 -58 35 -61
9 -5 58 -11 316 -40 l152 -18 41 30 c112 81 172 94 240 53 81 -49 120 -103
120 -168 0 -44 -19 -63 -72 -76 -16 -4 -28 -13 -28 -20 0 -30 33 -181 46 -216
15 -37 15 -38 -25 -111 -48 -89 -66 -157 -81 -308 -6 -63 -16 -120 -22 -128
-7 -8 -21 -11 -35 -8 -13 3 -34 9 -46 12 -23 5 -24 3 -31 -72 -3 -43 -11 -83
-16 -88 -16 -16 -12 -28 25 -90 44 -74 44 -80 -1 -28 -19 23 -39 42 -43 42 -4
0 -15 -17 -25 -37 -10 -21 -37 -72 -62 -114 -24 -42 -45 -84 -45 -95 -1 -10
-6 5 -13 35 -10 47 -13 52 -24 38 -11 -13 -11 -27 -2 -73 7 -32 10 -71 7 -89
-3 -18 6 -76 22 -136 l26 -104 65 -43 c85 -56 88 -67 17 -59 l-55 7 13 -44
c20 -67 91 -191 159 -280 33 -44 54 -76 46 -71 -8 5 -34 21 -57 37 -49 33 -57
35 -43 9 5 -11 10 -28 10 -38 -1 -10 -14 8 -31 39 -16 32 -41 65 -57 75 -15 9
-40 28 -56 42 -24 21 -28 22 -22 7 7 -21 7 -21 -84 41 -19 12 -38 23 -41 23
-11 0 37 -175 81 -299 22 -62 39 -116 36 -118 -2 -2 -23 19 -47 48 -27 31 -61
59 -88 71 -24 10 -45 17 -47 15 -2 -2 3 -27 12 -56 22 -74 13 -82 -29 -26 -20
26 -37 44 -38 39 -2 -22 2 -114 7 -161 l6 -53 2234 0 2234 0 0 1800 0 1800
-2400 0 -2400 0 0 -371z m2310 -953 c0 -7 -7 -33 -16 -57 -19 -54 -12 -135 16
-187 11 -20 40 -66 65 -101 25 -35 45 -69 45 -77 0 -51 -107 55 -137 137 -35
92 -37 128 -12 218 12 44 26 81 31 81 4 0 8 -6 8 -14z"/>
<path d="M511 1395 c-1 -5 -6 -39 -12 -74 -12 -77 -5 -109 16 -71 15 27 17 77
5 125 -4 17 -8 26 -9 20z"/>
</g>
</svg>
