<?xml version="1.0" standalone="no"?>
<!DOCTYPE svg PUBLIC "-//W3C//DTD SVG 20010904//EN"
 "http://www.w3.org/TR/2001/REC-SVG-20010904/DTD/svg10.dtd">
<svg version="1.0" xmlns="http://www.w3.org/2000/svg"
 width="480.000000pt" height="360.000000pt" viewBox="0 0 480.000000 360.000000"
 preserveAspectRatio="xMidYMid meet">
<metadata>
Created by potrace 1.16, written by Peter Selinger 2001-2019
</metadata>
<rect width="1" height="360" fill="#000000"/>
<rect x="479" width="1" height="360" fill="#000000"/>
<rect width="480" height="1" fill="#000000"/>
<rect y="359" width="480" height="1" fill="#000000"/>
<g transform="translate(0.000000,360.000000) scale(0.100000,-0.100000)"
fill="#000000" stroke="none">
<path d="M0 2316 l0 -1285 27 9 c16 5 64 11 107 15 44 3 92 13 108 21 16 8 79
19 141 25 62 5 128 13 147 17 32 7 35 11 35 42 0 31 -4 36 -35 46 -19 6 -36
16 -37 21 -2 5 12 43 31 84 22 48 44 122 62 213 27 135 27 139 9 152 -10 8
-28 14 -40 14 -12 0 -32 11 -45 25 l-23 25 21 23 c12 13 22 32 22 43 0 11 4
24 10 30 11 11 43 159 41 194 0 14 -2 50 -4 80 -7 107 2 148 39 176 28 22 39
25 80 18 26 -4 54 -15 63 -26 9 -10 27 -30 39 -45 20 -22 22 -29 13 -50 -9
-19 -8 -34 1 -59 10 -27 10 -39 0 -54 -9 -16 -9 -28 2 -62 8 -24 17 -60 20
-80 5 -28 21 -50 66 -92 33 -30 60 -58 60 -62 0 -18 -53 -74 -69 -74 -11 0
-21 -6 -23 -12 -11 -31 21 -356 41 -418 11 -36 21 -66 21 -67 0 -2 -12 -3 -27
-3 -15 0 -37 10 -50 21 l-22 22 -11 -27 c-14 -38 -14 -39 25 -79 41 -42 51
-36 -95 -61 -270 -47 -525 -79 -632 -80 l-118 -1 0 -497 0 -498 878 0 877 0
13 53 c11 46 9 70 -9 178 -21 124 -22 198 -3 385 l6 61 -33 12 c-88 32 -115
53 -140 105 -21 45 -24 64 -23 166 0 103 6 134 48 299 25 101 45 186 42 188
-2 2 -60 -9 -128 -26 -67 -17 -172 -41 -233 -53 l-110 -24 2 -43 c2 -49 -6
-48 -16 1 l-7 33 -62 -4 c-35 -1 -76 2 -91 9 -28 11 -60 55 -48 66 3 4 54 16
113 28 59 11 108 25 108 30 1 5 -14 17 -33 27 -54 29 -58 36 -34 61 19 19 26
20 49 10 20 -10 25 -18 21 -33 -8 -31 2 -51 24 -44 11 4 19 2 19 -5 0 -9 13
-10 45 -5 62 9 378 94 388 105 5 4 -5 11 -23 15 -24 5 -37 2 -53 -12 -31 -26
-84 -19 -99 13 -13 28 -23 31 -32 9 -10 -27 -26 -16 -26 20 0 34 -1 34 -72 55
-322 94 -315 91 -299 133 12 31 21 33 61 12 15 -8 96 -35 179 -59 l152 -44 20
41 c12 23 36 65 54 92 22 34 47 98 75 197 42 146 42 148 25 184 -11 23 -15 47
-11 67 8 39 86 127 114 127 43 0 41 24 -4 60 -24 19 -44 41 -44 47 0 21 -16
15 -28 -9 -10 -21 -11 -19 -11 17 -2 58 -11 85 -27 78 -9 -3 -14 2 -14 17 0
13 -24 47 -61 85 -55 58 -61 67 -56 97 5 32 -1 38 -186 207 -274 249 -440 404
-528 494 l-77 77 -346 0 -346 0 0 -1284z"/>
<path d="M775 3571 c17 -16 145 -136 285 -268 140 -131 295 -277 343 -323 49
-47 95 -89 103 -93 8 -4 24 -1 38 8 23 15 25 15 35 -4 6 -11 11 -27 11 -35 0
-24 9 -20 64 32 90 85 221 116 307 72 33 -17 46 -19 77 -10 48 13 166 13 215
-1 45 -12 55 -30 33 -61 -20 -28 -21 -92 -1 -108 30 -25 16 -54 -59 -129 -54
-54 -81 -74 -100 -73 -25 0 -26 -3 -26 -52 0 -34 7 -61 20 -81 23 -34 25 -62
9 -115 -9 -30 -8 -53 5 -114 22 -97 12 -124 -27 -75 -26 33 -27 33 -27 9 1
-55 30 -178 54 -234 15 -32 26 -60 24 -61 -2 -1 -13 -8 -25 -14 -26 -13 -30
-43 -8 -61 8 -7 15 -21 15 -31 0 -25 12 -30 46 -18 72 24 515 169 518 169 8 0
36 -93 31 -100 -5 -9 -49 -24 -340 -115 -99 -32 -181 -58 -183 -60 -1 -1 5
-18 13 -38 12 -29 23 -38 52 -46 71 -19 488 -99 581 -112 114 -16 125 -22 92
-50 -23 -20 -33 -21 -130 -16 -58 3 -199 24 -315 46 -115 23 -215 41 -221 41
-19 0 47 -164 136 -339 67 -132 80 -163 71 -180 -6 -10 -8 -33 -5 -50 4 -19 2
-31 -4 -31 -6 0 -20 -16 -32 -35 -13 -22 -42 -46 -71 -61 l-49 -24 21 -42 c50
-98 88 -275 89 -410 0 -30 9 -64 27 -98 22 -42 25 -55 15 -70 -7 -12 -9 -37
-5 -65 l6 -45 1158 0 1159 0 0 1499 c0 1190 -3 1500 -12 1504 -10 4 -10 6 0 6
9 1 12 67 12 296 l0 295 -753 0 c-572 0 -756 -3 -765 -12 -9 -9 -15 -9 -24 0
-14 14 -518 18 -518 4 0 -19 80 -83 134 -108 48 -22 79 -28 155 -32 109 -5
199 9 411 64 272 70 328 76 417 42 47 -19 78 -23 163 -23 91 0 111 -3 149 -23
103 -56 171 -167 171 -283 0 -119 -90 -257 -203 -314 -67 -33 -185 -35 -250
-5 -100 47 -158 139 -165 263 l-5 77 -46 0 c-25 0 -122 -9 -216 -20 -297 -35
-445 -22 -570 50 -56 32 -155 131 -180 181 -15 28 -18 29 -65 23 -44 -6 -51
-4 -75 20 -23 23 -26 33 -21 62 l7 34 -903 0 -903 0 30 -29z m3972 -447 c8
-20 -32 -53 -64 -54 -29 0 -30 23 -3 50 24 24 58 26 67 4z m-1267 -454 c0 -5
-5 -12 -11 -16 -14 -8 -33 11 -25 25 7 11 36 4 36 -9z m-600 -5 c33 -17 38
-36 15 -55 -19 -16 -40 -8 -60 24 -28 43 -6 57 45 31z m940 -218 c0 -20 -21
-37 -46 -37 -26 0 -38 14 -30 35 7 19 76 21 76 2z m-1492 -139 c-7 -19 -38
-22 -38 -4 0 10 9 16 21 16 12 0 19 -5 17 -12z m1791 -91 c37 -19 37 -36 -2
-52 -38 -16 -100 -10 -118 11 -31 37 64 70 120 41z m-1599 -28 c0 -5 -7 -9
-15 -9 -15 0 -20 12 -9 23 8 8 24 -1 24 -14z m1640 -1009 c0 -5 -7 -10 -15
-10 -8 0 -15 5 -15 10 0 6 7 10 15 10 8 0 15 -4 15 -10z m284 -873 c27 -20 6
-67 -31 -67 -29 0 -93 33 -93 48 0 31 89 45 124 19z"/>
<path d="M2620 3556 c0 -9 7 -16 16 -16 9 0 14 5 12 12 -6 18 -28 21 -28 4z"/>
<path d="M1668 1935 c-53 -105 -62 -138 -53 -199 7 -43 8 -45 56 -56 26 -7 53
-9 58 -5 15 8 33 82 26 104 -3 10 -16 23 -29 29 l-23 10 15 71 c11 51 12 79 5
103 l-9 33 -46 -90z"/>
<path d="M719 1221 c-10 -28 -15 -31 -50 -31 -44 0 -44 -1 -24 -39 10 -20 24
-30 47 -33 50 -8 58 -1 60 53 0 27 1 54 2 61 2 26 -25 18 -35 -11z"/>
<path d="M2118 672 c-32 -2 -58 -7 -58 -12 0 -6 -27 -10 -60 -10 -51 0 -61 -3
-71 -22 -18 -33 -35 -511 -21 -552 7 -18 12 -42 12 -54 0 -22 0 -22 226 -22
l226 0 -7 27 c-3 16 -13 36 -22 45 -13 15 -17 48 -12 108 2 25 -132 474 -144
485 -7 6 -38 9 -69 7z"/>
</g>
</svg>
