<?xml version="1.0" standalone="no"?>
<!DOCTYPE svg PUBLIC "-//W3C//DTD SVG 20010904//EN"
 "http://www.w3.org/TR/2001/REC-SVG-20010904/DTD/svg10.dtd">
<svg version="1.0" xmlns="http://www.w3.org/2000/svg"
 width="480.000000pt" height="360.000000pt" viewBox="0 0 480.000000 360.000000"
 preserveAspectRatio="xMidYMid meet">
<metadata>
Created by potrace 1.16, written by Peter Selinger 2001-2019
</metadata>
<rect width="1" height="360" fill="#000000"/>
<rect x="479" width="1" height="360" fill="#000000"/>
<rect width="480" height="1" fill="#000000"/>
<rect y="359" width="480" height="1" fill="#000000"/>
<g transform="translate(0.000000,360.000000) scale(0.100000,-0.100000)"
fill="#000000" stroke="none">
<path d="M2547 3244 c-4 -4 14 -29 38 -56 25 -28 45 -54 45 -59 0 -5 -12 -14
-27 -20 -135 -51 -206 -138 -221 -271 -7 -61 -8 -63 -35 -61 -41 3 -35 -29 14
-70 47 -41 46 -48 -23 -114 -67 -64 -116 -93 -159 -93 -49 0 -54 -10 -26 -51
18 -27 32 -35 71 -42 45 -7 51 -6 77 19 18 17 40 27 64 29 l37 2 -6 -41 c-6
-38 4 -72 17 -64 3 1 22 -19 42 -47 27 -39 41 -50 62 -50 29 0 40 -23 48 -100
2 -22 8 -58 14 -80 5 -22 14 -103 20 -180 l9 -140 -36 -65 c-47 -82 -49 -88
-29 -71 21 16 21 11 3 -31 -7 -18 -19 -51 -26 -73 -7 -22 -43 -87 -80 -145
-37 -58 -74 -119 -83 -135 -8 -17 -38 -49 -65 -73 -28 -23 -92 -88 -143 -145
-51 -56 -150 -162 -221 -235 -71 -74 -126 -138 -122 -143 3 -5 -4 -36 -15 -69
-26 -75 -26 -92 -1 -115 11 -10 20 -26 20 -36 0 -23 -60 -208 -90 -277 -12
-29 -21 -55 -18 -57 2 -3 18 -7 34 -10 27 -5 32 0 81 75 28 44 66 118 85 165
18 47 35 85 38 85 3 0 36 -48 74 -106 155 -236 210 -296 229 -252 3 7 42 103
86 213 93 229 85 236 81 -72 l-2 -183 705 0 705 0 6 27 c18 87 28 175 36 308
5 83 13 164 19 180 6 17 17 91 26 165 l15 135 -35 155 c-19 85 -55 211 -79
280 -25 69 -70 197 -102 285 l-57 160 -28 280 c-16 154 -33 304 -38 333 -10
52 -10 54 19 79 34 28 39 53 11 53 -34 0 -60 34 -87 115 -18 54 -29 112 -33
180 -5 81 -11 111 -34 157 -38 76 -121 159 -199 197 -110 53 -412 99 -485 73
-27 -9 -32 -7 -58 25 -15 19 -43 41 -61 49 -34 14 -96 19 -107 8z"/>
</g>
</svg>
