<?xml version="1.0" standalone="no"?>
<!DOCTYPE svg PUBLIC "-//W3C//DTD SVG 20010904//EN"
 "http://www.w3.org/TR/2001/REC-SVG-20010904/DTD/svg10.dtd">
<svg version="1.0" xmlns="http://www.w3.org/2000/svg"
 width="480.000000pt" height="360.000000pt" viewBox="0 0 480.000000 360.000000"
 preserveAspectRatio="xMidYMid meet">
<metadata>
Created by potrace 1.16, written by Peter Selinger 2001-2019
</metadata>
<rect width="1" height="360" fill="#000000"/>
<rect x="479" width="1" height="360" fill="#000000"/>
<rect width="480" height="1" fill="#000000"/>
<rect y="359" width="480" height="1" fill="#000000"/>
<g transform="translate(0.000000,360.000000) scale(0.100000,-0.100000)"
fill="#000000" stroke="none">
<path d="M1043 2961 c-12 -16 -27 -40 -34 -54 l-12 -26 -28 29 c-28 27 -95 57
-105 47 -5 -5 34 -85 58 -118 9 -13 5 -22 -22 -46 -31 -28 -32 -30 -15 -47 11
-10 29 -16 48 -14 27 3 31 -1 39 -29 11 -43 24 -42 45 5 10 20 19 39 20 41 2
2 12 -4 23 -14 17 -16 20 -16 20 -2 0 9 -4 19 -10 22 -16 10 -11 25 9 25 10 0
30 9 45 21 30 24 23 42 -19 53 -22 6 -24 10 -19 54 4 31 1 52 -8 64 -12 15
-15 14 -35 -11z"/>
<path d="M3217 2960 c-15 -12 -51 -27 -82 -35 -91 -24 -135 -53 -235 -154
-116 -118 -200 -211 -192 -211 4 0 26 11 50 25 l43 25 -7 -23 c-3 -12 -17 -43
-30 -69 -21 -41 -22 -48 -8 -48 11 0 14 -5 10 -17 -4 -9 -4 -44 0 -77 5 -41 9
-54 14 -41 6 17 9 14 19 -18 14 -42 28 -48 33 -14 3 21 4 20 19 -8 21 -39 16
-51 -32 -76 -50 -25 -57 -43 -30 -79 15 -21 21 -42 20 -77 -1 -26 1 -59 4 -73
4 -14 12 -53 18 -88 13 -69 27 -82 92 -82 46 0 59 -12 51 -44 -8 -35 -16 -38
-53 -25 -46 16 -49 4 -7 -23 21 -14 36 -31 36 -43 0 -44 -40 -160 -60 -175
-61 -43 -90 -74 -90 -94 0 -12 -29 -68 -65 -124 -36 -57 -65 -105 -65 -107 0
-3 6 -5 14 -5 27 0 28 -21 4 -55 -24 -36 -35 -39 -99 -29 -32 5 -38 11 -48 43
-10 35 -41 61 -74 61 -38 1 -38 13 -2 196 19 98 40 195 46 214 6 19 12 116 14
215 4 263 56 734 94 852 11 33 17 72 14 85 -20 81 -144 114 -193 51 -22 -28
-25 -66 -10 -128 6 -27 5 -91 -5 -200 -35 -372 -80 -737 -96 -766 -5 -10 -9
-44 -9 -77 0 -32 -3 -62 -7 -65 -3 -4 -22 26 -41 66 -37 78 -71 121 -115 144
-22 11 -32 12 -43 2 -20 -17 -18 -27 16 -58 33 -30 51 -93 31 -106 -19 -11
-57 20 -85 71 -25 45 -26 48 -9 66 17 19 17 20 0 33 -18 13 -23 45 -7 45 6 0
10 9 10 20 0 32 -63 28 -89 -6 -12 -15 -21 -31 -21 -36 0 -6 -11 -23 -25 -40
-14 -16 -25 -35 -25 -43 0 -7 -7 -18 -15 -25 -8 -7 -18 -28 -21 -48 -4 -20
-16 -43 -27 -52 -17 -14 -19 -23 -12 -81 l7 -64 124 -125 c139 -140 197 -217
173 -231 -8 -5 -32 -19 -53 -31 -46 -27 -66 -58 -103 -159 -51 -141 -33 -341
57 -628 29 -94 30 -111 7 -111 -17 -1 -52 -32 -66 -59 -10 -18 -9 -27 4 -48
14 -20 15 -31 6 -49 l-11 -24 1095 0 c1073 0 1095 0 1095 19 0 87 -27 370 -55
576 -18 138 -41 311 -51 385 l-17 136 26 149 c77 435 93 665 61 882 -17 122
-67 294 -89 313 -8 7 -23 38 -31 69 -28 94 -66 162 -124 221 -115 117 -251
170 -494 190 -81 7 -112 13 -118 25 -12 20 -30 19 -61 -5z"/>
</g>
</svg>
