<?xml version="1.0" standalone="no"?>
<!DOCTYPE svg PUBLIC "-//W3C//DTD SVG 20010904//EN"
 "http://www.w3.org/TR/2001/REC-SVG-20010904/DTD/svg10.dtd">
<svg version="1.0" xmlns="http://www.w3.org/2000/svg"
 width="480.000000pt" height="360.000000pt" viewBox="0 0 480.000000 360.000000"
 preserveAspectRatio="xMidYMid meet">
<metadata>
Created by potrace 1.16, written by Peter Selinger 2001-2019
</metadata>
<rect width="1" height="360" fill="#000000"/>
<rect x="479" width="1" height="360" fill="#000000"/>
<rect width="480" height="1" fill="#000000"/>
<rect y="359" width="480" height="1" fill="#000000"/>
<g transform="translate(0.000000,360.000000) scale(0.100000,-0.100000)"
fill="#000000" stroke="none">
<path d="M2086 3329 c-47 -44 -88 -88 -91 -98 -3 -10 2 -37 10 -61 28 -79 23
-94 -52 -150 -108 -82 -146 -135 -193 -270 -29 -83 -33 -189 -7 -214 9 -10 17
-26 17 -36 0 -10 7 -20 15 -24 8 -3 15 -14 15 -24 0 -45 60 -132 90 -132 9 0
30 -6 46 -14 42 -20 77 -30 71 -19 -3 5 -2 15 3 23 7 12 11 9 18 -10 12 -33
-1 -77 -33 -110 -24 -25 -24 -27 -8 -42 10 -8 32 -20 50 -27 20 -8 35 -24 42
-42 5 -16 14 -29 18 -29 8 0 46 -37 112 -107 14 -16 33 -23 56 -23 21 0 35 -5
35 -12 0 -9 3 -9 12 0 9 9 14 7 23 -5 11 -14 13 -13 19 12 7 26 8 27 26 10 40
-37 27 -65 -70 -148 -62 -52 -99 -77 -116 -77 -54 0 -114 -59 -114 -112 0 -15
-15 -39 -40 -63 -56 -55 -70 -90 -70 -180 0 -73 -2 -81 -56 -187 -40 -77 -59
-106 -65 -97 -5 8 -23 48 -40 89 -17 41 -51 118 -75 170 -23 52 -54 142 -68
200 -13 58 -34 129 -45 157 l-20 52 42 5 c23 3 87 10 142 16 159 16 255 32
255 41 0 5 -87 10 -192 11 -106 1 -213 2 -238 3 -29 0 -68 12 -110 32 -93 46
-121 49 -188 17 -32 -15 -64 -35 -72 -45 -8 -10 -31 -21 -52 -24 l-36 -7 -39
74 c-48 92 -71 101 -182 70 -60 -17 -77 -19 -91 -9 -16 11 -105 15 -115 5 -12
-12 25 -95 116 -258 79 -143 98 -185 93 -205 -7 -28 8 -94 38 -165 11 -25 23
-63 28 -85 4 -22 20 -67 33 -100 22 -52 31 -62 66 -75 43 -16 201 -115 303
-190 55 -40 64 -52 81 -105 19 -54 34 -74 179 -221 118 -120 158 -167 158
-185 0 -14 -20 -56 -45 -93 -56 -86 -64 -122 -37 -178 12 -23 19 -45 16 -50
-3 -4 301 -8 675 -8 375 0 681 3 681 6 0 3 -20 30 -45 59 -45 52 -76 71 -125
77 -22 3 -26 9 -32 58 -9 83 -8 314 3 410 23 207 23 213 -1 243 -25 31 -49 34
-79 9 -23 -19 -23 -15 -22 -227 1 -158 -8 -297 -19 -290 -4 2 -20 39 -35 82
-15 43 -31 83 -36 89 -9 11 6 121 41 287 24 116 25 120 50 107 22 -12 200 -14
200 -2 0 4 -5 13 -12 20 -9 9 1 12 45 12 55 0 57 1 51 24 -5 19 -2 23 18 23
99 -1 128 3 128 21 0 9 9 35 19 57 l19 40 1 -33 c1 -19 5 -31 11 -27 6 4 10
-5 10 -19 0 -28 9 -33 28 -14 17 17 16 -2 -3 -49 -13 -35 -44 -156 -45 -176 0
-5 5 -5 11 -2 6 4 13 -2 16 -14 5 -20 5 -20 24 2 l19 22 -5 -35 c-2 -19 -9
-62 -15 -94 -5 -33 -10 -61 -10 -63 0 -2 5 -2 12 -1 11 3 13 -1 17 -34 1 -9 4
-9 11 2 15 23 16 10 11 -83 -4 -63 -3 -87 6 -87 6 0 13 -6 16 -12 3 -10 8 -10
21 1 19 16 18 13 -4 -75 -6 -25 -4 -33 11 -42 16 -10 27 -6 69 24 27 20 50 34
50 32 0 -1 -9 -31 -20 -65 -15 -50 -17 -66 -7 -87 7 -14 15 -26 20 -26 4 0 7
-9 7 -20 0 -29 11 -24 43 17 l27 36 2 -39 c2 -59 2 -66 -6 -106 l-7 -38 601 0
600 0 0 703 0 703 -30 40 c-46 64 -146 105 -387 158 -305 68 -479 134 -586
223 -93 78 -231 254 -307 390 -22 40 -24 41 -46 26 -13 -8 -26 -24 -30 -36 -4
-12 -31 -45 -60 -75 -30 -29 -69 -76 -88 -105 -18 -29 -59 -81 -91 -117 -87
-96 -291 -300 -301 -300 -13 1 -50 89 -58 137 -3 23 -1 54 5 70 l11 28 16 -30
16 -30 10 43 c6 30 13 41 23 38 8 -3 13 2 13 14 0 24 9 25 36 6 13 -10 23 -11
31 -4 10 8 13 5 13 -13 l0 -24 14 26 c7 14 16 42 20 62 7 40 20 48 30 20 6
-15 8 -15 16 -3 6 8 10 26 10 40 0 14 5 32 10 40 8 12 12 11 30 -8 30 -32 33
-27 10 18 -27 53 -26 57 16 52 l36 -4 -21 40 c-27 53 -28 75 -1 67 26 -8 25 1
-5 50 -14 22 -25 49 -25 60 1 17 4 16 25 -10 39 -48 29 -10 -23 89 -52 96 -86
185 -127 330 -37 128 -66 182 -150 282 -126 148 -175 184 -295 214 l-64 16
-18 59 c-9 32 -23 64 -30 71 -17 16 -184 54 -236 54 -37 0 -48 -7 -126 -81z
m-95 -1011 c11 -21 11 -22 -4 -9 -10 7 -17 17 -17 22 0 15 9 10 21 -13z m-660
-780 c7 -16 28 -48 46 -71 47 -55 59 -83 67 -147 5 -41 4 -52 -4 -44 -18 18
-168 288 -164 296 9 15 43 -6 55 -34z m135 -323 c6 -19 8 -35 5 -35 -17 1 -41
30 -41 49 0 34 24 24 36 -14z"/>
</g>
</svg>
