<?xml version="1.0" standalone="no"?>
<!DOCTYPE svg PUBLIC "-//W3C//DTD SVG 20010904//EN"
 "http://www.w3.org/TR/2001/REC-SVG-20010904/DTD/svg10.dtd">
<svg version="1.0" xmlns="http://www.w3.org/2000/svg"
 width="480.000000pt" height="360.000000pt" viewBox="0 0 480.000000 360.000000"
 preserveAspectRatio="xMidYMid meet">
<metadata>
Created by potrace 1.16, written by Peter Selinger 2001-2019
</metadata>
<rect width="1" height="360" fill="#000000"/>
<rect x="479" width="1" height="360" fill="#000000"/>
<rect width="480" height="1" fill="#000000"/>
<rect y="359" width="480" height="1" fill="#000000"/>
<g transform="translate(0.000000,360.000000) scale(0.100000,-0.100000)"
fill="#000000" stroke="none">
<path d="M1690 3388 c-41 -26 -120 -102 -144 -139 -15 -24 -15 -30 1 -93 15
-56 16 -68 4 -75 -7 -5 -32 -24 -55 -42 -130 -107 -160 -148 -207 -282 -36
-104 -38 -173 -6 -220 13 -19 39 -69 58 -111 19 -42 39 -76 46 -76 7 0 16 -7
21 -16 6 -12 11 -13 16 -5 5 8 16 5 37 -9 16 -12 29 -18 29 -15 0 4 11 0 24
-9 l25 -16 -15 36 c-18 42 -1 36 22 -8 19 -36 13 -66 -21 -106 -23 -28 -23
-30 -7 -44 9 -9 27 -19 40 -23 12 -3 30 -19 39 -33 10 -15 47 -58 83 -95 67
-70 116 -104 123 -84 1 5 12 11 23 11 11 1 25 5 31 9 8 5 15 -1 19 -18 4 -17
11 -24 20 -21 26 10 15 -30 -13 -51 -16 -11 -54 -43 -85 -72 -38 -34 -75 -58
-110 -69 -57 -18 -98 -64 -98 -108 0 -13 -4 -24 -8 -24 -16 0 -90 -76 -107
-109 -14 -27 -16 -49 -12 -97 6 -61 5 -65 -42 -148 -36 -64 -51 -83 -58 -74
-6 7 -29 60 -53 118 -23 58 -52 125 -65 150 -12 25 -30 72 -39 105 -15 50 -54
161 -81 226 -5 13 4 18 47 23 78 10 350 56 371 62 74 23 -77 25 -338 3 l-121
-10 -61 31 c-75 38 -155 50 -181 28 -9 -9 -27 -19 -40 -23 -13 -4 -37 -20 -53
-36 -17 -17 -36 -28 -42 -26 -7 2 -29 34 -49 73 -36 68 -37 69 -82 72 -25 2
-91 -6 -147 -17 -97 -20 -104 -20 -128 -4 -30 20 -106 34 -139 26 -26 -6 -23
-25 13 -83 12 -19 61 -111 110 -205 48 -93 100 -192 115 -220 15 -27 31 -61
35 -75 17 -57 86 -226 114 -280 4 -8 31 -28 59 -45 28 -16 75 -48 104 -71 29
-23 88 -66 130 -97 67 -49 79 -62 88 -99 19 -69 46 -105 204 -266 83 -84 154
-159 158 -167 11 -18 -6 -60 -45 -109 -62 -78 -67 -97 -38 -154 13 -26 16 -44
10 -60 l-8 -22 714 0 c393 0 715 2 715 5 0 12 -96 107 -120 120 -14 7 -47 16
-74 20 l-49 7 6 136 c6 155 29 322 58 431 30 106 10 161 -57 161 -44 0 -53
-19 -59 -127 -8 -137 -15 -200 -36 -311 -10 -57 -19 -106 -19 -110 0 -21 -23
26 -55 112 -32 84 -36 105 -30 150 6 42 36 189 60 293 5 21 8 21 102 16 87 -6
96 -5 90 10 -5 14 1 17 39 17 41 0 45 2 39 20 -6 18 -2 20 49 21 31 1 61 3 66
4 6 1 18 3 28 4 13 1 11 7 -13 26 -23 19 -26 25 -12 25 11 0 17 8 17 23 0 18
2 19 10 7 9 -13 12 -13 24 2 18 24 26 23 26 -5 0 -12 9 -40 20 -61 l19 -39 20
44 20 44 0 -32 c1 -24 5 -31 15 -27 10 4 16 -3 18 -23 l4 -28 14 30 c22 50 24
4 1 -68 -27 -90 -37 -157 -21 -157 7 0 10 -8 7 -20 -6 -23 3 -26 22 -7 14 13
14 10 -5 -110 -4 -29 -3 -43 5 -43 6 0 11 -12 11 -27 l0 -28 21 25 20 25 -4
-95 c-4 -90 -3 -96 21 -118 20 -19 23 -30 19 -60 -4 -23 -1 -44 7 -55 12 -16
15 -16 42 5 16 13 37 31 47 41 27 27 31 15 17 -42 -15 -62 -16 -121 -2 -130 5
-3 11 -15 14 -26 3 -17 9 -13 36 24 l32 44 0 -31 c0 -17 5 -34 10 -37 10 -6 8
-23 -7 -62 -4 -10 164 -13 821 -13 l826 0 0 464 0 465 -66 123 c-37 68 -83
148 -103 178 -20 30 -38 60 -41 65 -17 33 -172 266 -218 326 -78 103 -177 138
-477 169 -386 41 -524 80 -722 208 -64 42 -79 58 -129 140 -58 92 -58 93 -78
73 -20 -20 -20 -20 -52 0 -20 12 -35 16 -39 10 -3 -6 -12 -8 -20 -4 -11 4 -15
-2 -15 -20 0 -14 -4 -28 -9 -31 -5 -3 -12 -18 -16 -33 -3 -15 -32 -59 -63 -98
-57 -72 -84 -101 -262 -288 l-103 -107 -28 32 c-28 33 -38 92 -23 132 8 21 22
20 27 -1 3 -16 5 -16 11 2 5 11 13 32 18 48 8 20 16 26 28 22 33 -10 70 12 71
42 0 25 1 26 9 8 5 -11 9 -32 9 -47 1 -16 6 -28 11 -28 6 0 10 30 11 68 0 46
3 61 9 47 5 -11 9 -15 9 -10 2 18 41 12 47 -7 10 -32 24 -9 24 39 0 40 2 44
16 32 15 -12 15 -10 0 25 -20 49 -20 59 2 52 9 -3 30 -8 45 -12 l29 -7 -26 52
c-24 47 -25 56 -3 52 11 -2 9 6 -13 41 -11 18 -20 46 -20 61 l0 29 26 -32 c28
-33 43 -35 25 -3 -52 93 -119 261 -165 413 -29 96 -73 182 -128 251 -24 29
-59 75 -78 102 -56 80 -159 146 -254 165 -42 8 -43 10 -66 98 -12 49 -24 55
-160 84 -118 24 -117 24 -160 -2z m-844 -1796 c6 -4 14 -16 18 -27 3 -11 19
-35 36 -53 63 -69 77 -96 83 -154 5 -53 36 -173 58 -223 16 -39 41 -137 35
-142 -9 -9 -52 46 -105 135 l-50 83 25 11 c16 7 24 19 24 36 0 13 -33 86 -74
162 -83 155 -94 180 -74 180 7 0 18 -4 24 -8z"/>
</g>
</svg>
