<?xml version="1.0" standalone="no"?>
<!DOCTYPE svg PUBLIC "-//W3C//DTD SVG 20010904//EN"
 "http://www.w3.org/TR/2001/REC-SVG-20010904/DTD/svg10.dtd">
<svg version="1.0" xmlns="http://www.w3.org/2000/svg"
 width="480.000000pt" height="360.000000pt" viewBox="0 0 480.000000 360.000000"
 preserveAspectRatio="xMidYMid meet">
<metadata>
Created by potrace 1.16, written by Peter Selinger 2001-2019
</metadata>
<rect width="1" height="360" fill="#000000"/>
<rect x="479" width="1" height="360" fill="#000000"/>
<rect width="480" height="1" fill="#000000"/>
<rect y="359" width="480" height="1" fill="#000000"/>
<g transform="translate(0.000000,360.000000) scale(0.100000,-0.100000)"
fill="#000000" stroke="none">
<path d="M0 1800 l0 -1800 625 0 c344 0 625 2 625 5 0 2 -19 9 -42 15 -159 41
-209 62 -258 105 -67 59 -75 63 -162 71 l-76 7 -7 -34 c-18 -93 -35 -94 -32
-3 l2 66 -49 27 c-27 14 -51 32 -54 38 -2 7 22 40 54 73 34 36 58 71 60 86 6
56 78 108 215 155 292 100 491 260 694 558 17 25 50 66 74 93 44 49 47 68 22
108 -8 12 -13 12 -23 2 -21 -21 -29 -13 -23 21 5 24 0 46 -20 84 -24 49 -25
56 -15 120 6 37 13 80 16 94 4 23 0 28 -37 42 -49 19 -46 35 2 18 18 -6 36 -8
39 -4 4 5 13 42 20 83 15 80 20 371 7 363 -4 -2 -22 -6 -39 -8 -30 -4 -30 -4
-12 17 19 21 19 21 -18 16 -21 -2 -38 0 -38 4 0 4 -7 8 -16 8 -10 0 -14 6 -10
15 3 8 1 15 -4 15 -5 0 -11 -8 -14 -18 -13 -40 -80 -91 -141 -107 -66 -17 -85
-34 -85 -79 0 -44 -35 -108 -73 -133 -18 -13 -55 -26 -82 -29 -64 -9 -71 -15
-79 -70 -3 -24 -11 -54 -17 -65 -15 -29 -69 -49 -130 -49 l-52 0 6 -37 c9 -54
-2 -67 -49 -59 -22 3 -48 7 -59 8 -30 4 -82 117 -106 228 -13 64 -20 135 -20
217 -1 143 5 188 36 308 44 164 101 286 210 446 l72 107 -99 98 c-54 53 -96
99 -93 102 3 4 122 -80 197 -140 l27 -21 68 63 c192 180 474 334 668 364 124
19 237 25 335 15 127 -12 160 -22 191 -56 l24 -25 -23 6 c-27 9 -27 9 -2 -45
11 -24 20 -52 20 -61 0 -28 -29 -48 -70 -48 l-38 0 -3 -86 c-4 -79 -6 -88 -32
-109 -15 -13 -44 -27 -65 -31 -50 -9 -62 -20 -62 -58 0 -24 7 -36 28 -48 54
-34 98 -85 131 -155 32 -67 34 -75 23 -112 -7 -21 -26 -54 -44 -73 -28 -30
-32 -31 -38 -14 -5 17 -8 15 -18 -10 -18 -48 -32 -132 -25 -151 6 -16 5 -16
-10 -4 -15 12 -17 11 -17 -9 0 -13 -3 -21 -6 -17 -3 3 -17 -6 -30 -21 l-24
-27 10 28 c12 33 13 57 2 42 -4 -5 -17 -18 -29 -29 -18 -14 -26 -16 -36 -7
-11 9 -17 8 -27 -4 -19 -22 -4 -48 23 -41 18 4 33 -7 81 -60 32 -35 63 -64 69
-63 27 3 35 -2 47 -31 7 -17 30 -44 51 -61 43 -34 79 -87 79 -117 0 -26 130
-142 159 -142 11 0 38 -15 58 -34 21 -18 54 -43 73 -53 23 -13 34 -26 32 -38
-4 -23 26 -44 66 -45 26 0 36 6 53 33 29 46 19 83 -36 133 -66 59 -59 99 12
69 20 -9 43 -13 51 -10 20 7 84 -23 80 -37 -3 -7 -15 -14 -27 -16 -17 -3 -21
-8 -15 -20 18 -41 16 -100 -6 -141 -38 -76 -121 -103 -181 -60 l-29 21 -36
-32 c-20 -17 -47 -36 -60 -42 -13 -6 -24 -17 -24 -24 0 -6 -12 -17 -28 -23
-15 -7 -38 -18 -52 -26 -14 -8 -38 -15 -55 -15 -58 -1 -59 -4 -46 -152 6 -73
18 -171 26 -218 8 -47 24 -186 35 -310 12 -124 28 -279 36 -345 7 -66 19 -180
26 -252 l12 -133 1228 0 1228 0 0 1800 0 1800 -946 0 c-847 0 -945 -2 -934
-15 7 -9 11 -18 8 -21 -8 -7 -58 14 -58 26 0 7 -165 10 -500 10 -440 0 -499
-2 -494 -15 8 -20 -35 -20 -62 0 -16 12 -143 14 -916 15 l-898 0 0 -1800z
m280 1635 c0 -21 -49 -85 -65 -85 -16 0 -1 58 22 82 33 34 43 35 43 3z m2900
-370 c25 -13 41 -35 26 -35 -8 0 -76 42 -76 46 0 8 22 3 50 -11z m1207 -218
c-5 -57 -14 -69 -33 -43 -17 24 -18 64 -3 103 10 27 11 28 26 8 10 -14 13 -35
10 -68z m333 -186 c0 -17 -27 -49 -34 -40 -2 2 1 19 6 37 9 33 28 35 28 3z
m-4440 1 c0 -18 -119 -112 -141 -112 -22 0 29 74 66 96 40 24 75 31 75 16z
m2600 -57 c17 -20 -12 -35 -75 -40 -31 -2 -65 -7 -75 -10 -10 -3 -21 -1 -25 5
-10 17 33 58 64 62 44 5 100 -3 111 -17z m719 -157 c28 -8 32 -12 19 -19 -20
-11 -74 7 -82 28 -5 11 -2 13 11 8 10 -4 34 -12 52 -17z m-1202 -85 c3 -13 2
-35 -2 -50 l-7 -28 -19 24 c-19 23 -25 65 -12 97 6 16 7 15 20 -2 8 -10 16
-29 20 -41z m2212 -54 c1 -19 -6 -44 -14 -55 -15 -19 -15 -19 -30 0 -21 27
-19 55 6 96 20 32 23 33 30 15 4 -11 8 -36 8 -56z m-2502 -46 c6 -17 -45 -29
-60 -14 -9 9 -8 14 3 21 19 13 52 9 57 -7z m1823 -37 c0 -28 -45 -86 -66 -86
-18 0 -18 14 3 53 28 55 63 73 63 33z m544 4 c5 -5 -5 -15 -27 -26 -28 -13
-45 -15 -78 -8 -51 11 -60 28 -22 43 31 12 112 6 127 -9z m-1378 -499 c17 -40
13 -47 -15 -29 -22 13 -52 77 -44 91 8 13 43 -24 59 -62z m524 -27 c0 -33 -18
-22 -36 22 -21 50 -16 62 11 31 14 -15 25 -39 25 -53z m-2556 -80 c9 -24 7
-53 -5 -76 -11 -20 -12 -19 -45 13 -42 40 -42 49 -4 49 20 0 30 5 30 15 0 20
16 19 24 -1z m426 -104 c0 -10 -9 -24 -19 -30 -43 -22 -55 -4 -21 30 25 25 40
25 40 0z m-1254 -55 c18 -14 17 -14 -12 -15 -44 0 -94 11 -94 21 0 15 85 10
106 -6z m4032 -111 c27 -19 19 -39 -8 -22 -20 13 -35 38 -22 38 4 0 18 -7 30
-16z m-305 -98 c15 -10 27 -22 27 -27 0 -12 -51 -11 -89 2 -30 10 -56 40 -45
51 9 9 79 -8 107 -26z m-296 -108 c13 -10 36 -79 29 -86 -14 -13 -86 73 -86
103 0 8 41 -4 57 -17z m-3192 -78 c9 -15 -11 -37 -64 -68 -40 -23 -56 -27
-121 -26 -72 1 -140 18 -127 31 4 3 33 17 64 30 79 34 235 54 248 33z m38
-212 c28 -20 52 -56 44 -65 -8 -7 -117 75 -117 88 0 14 37 2 73 -23z m137
-149 c13 -9 13 -12 -3 -22 -11 -7 -42 -29 -70 -50 -29 -21 -69 -47 -89 -58
-26 -13 -38 -26 -38 -41 l0 -21 -24 22 c-16 16 -35 22 -58 21 -60 -4 -78 0
-78 15 0 22 144 116 210 136 37 11 133 10 150 -2z m3125 -364 c23 -22 34 -55
19 -55 -11 0 -49 23 -56 34 -11 16 -10 46 2 46 6 0 22 -11 35 -25z m-687 -199
c22 -30 32 -56 32 -80 0 -49 -19 -46 -52 8 -27 41 -39 116 -20 116 5 0 23 -20
40 -44z"/>
<path d="M2216 1773 c-3 -21 -8 -59 -12 -85 l-6 -47 43 4 c46 3 69 26 69 71 0
17 -68 94 -84 94 -2 0 -7 -17 -10 -37z"/>
</g>
</svg>
