<?xml version="1.0" standalone="no"?>
<!DOCTYPE svg PUBLIC "-//W3C//DTD SVG 20010904//EN"
 "http://www.w3.org/TR/2001/REC-SVG-20010904/DTD/svg10.dtd">
<svg version="1.0" xmlns="http://www.w3.org/2000/svg"
 width="480.000000pt" height="360.000000pt" viewBox="0 0 480.000000 360.000000"
 preserveAspectRatio="xMidYMid meet">
<metadata>
Created by potrace 1.16, written by Peter Selinger 2001-2019
</metadata>
<rect width="1" height="360" fill="#000000"/>
<rect x="479" width="1" height="360" fill="#000000"/>
<rect width="480" height="1" fill="#000000"/>
<rect y="359" width="480" height="1" fill="#000000"/>
<g transform="translate(0.000000,360.000000) scale(0.100000,-0.100000)"
fill="#000000" stroke="none">
<path d="M0 2185 l0 -1415 139 0 138 0 7 77 c10 129 8 251 -7 256 -8 3 0 28
28 83 38 76 42 79 80 85 67 9 103 29 109 62 10 47 7 96 -6 117 -16 25 -3 38
55 60 37 13 42 20 45 49 2 20 -2 37 -9 42 -10 6 -10 12 4 27 9 10 17 24 17 30
0 24 25 11 39 -19 10 -23 10 -34 2 -42 -15 -15 -14 -59 3 -82 8 -11 29 -24 47
-31 28 -9 33 -16 31 -35 -1 -13 -5 -52 -8 -86 l-6 -61 33 -19 c19 -10 54 -22
78 -28 42 -10 44 -12 72 -84 22 -54 27 -77 19 -86 -6 -8 -14 -77 -17 -159 l-6
-145 27 -7 c27 -6 145 1 154 11 2 2 4 50 3 106 l-2 102 63 104 c35 57 66 103
70 103 4 0 32 -44 62 -98 56 -98 56 -98 56 -184 l0 -87 53 -5 c49 -6 560 -36
601 -36 10 0 53 -34 95 -75 43 -41 81 -75 84 -75 4 0 7 99 6 220 l0 220 52 75
c38 54 56 72 64 65 7 -6 32 -43 57 -83 l45 -72 -5 -532 -5 -533 1217 0 1216 0
0 1800 0 1800 -2400 0 -2400 0 0 -1415z m3059 629 c12 -15 21 -41 21 -59 0
-44 29 -124 49 -134 9 -5 34 -12 56 -15 123 -22 135 -27 135 -51 0 -26 -42
-65 -71 -65 -26 0 -24 -12 6 -40 l26 -24 -46 -14 c-38 -10 -44 -16 -35 -27 9
-10 6 -15 -10 -20 -16 -5 -18 -10 -10 -19 8 -10 5 -12 -14 -9 -20 4 -24 0 -30
-31 -4 -20 -5 -40 -2 -45 3 -4 2 -22 -3 -38 l-9 -30 77 39 c42 21 88 41 104
44 25 6 27 4 27 -27 0 -18 -13 -55 -29 -83 l-28 -51 141 2 c140 2 141 2 118
-17 -29 -24 -22 -36 28 -51 36 -11 55 -29 30 -29 -5 0 -10 -4 -10 -9 0 -5 25
-15 55 -21 55 -11 67 -30 19 -30 -34 0 -30 -19 9 -35 19 -8 40 -22 48 -31 13
-16 11 -17 -33 -11 -56 8 -61 -3 -21 -45 23 -24 24 -28 9 -28 -16 0 -17 -2 -5
-17 13 -15 11 -16 -13 -11 -30 6 -38 -6 -13 -16 9 -3 15 -13 13 -23 -2 -12 9
-22 39 -33 50 -18 70 -36 31 -26 -22 5 -26 3 -21 -10 5 -14 2 -14 -33 1 -71
30 -67 30 -55 7 8 -15 8 -21 -2 -25 -6 -2 9 -8 36 -12 26 -4 47 -12 47 -17 0
-10 -47 -5 -94 9 -14 4 -18 1 -13 -10 3 -9 1 -18 -6 -20 -8 -3 -5 -10 8 -21
27 -21 -2 -22 -29 -1 -35 27 -49 19 -31 -16 20 -39 13 -48 -12 -16 -19 25 -54
47 -72 47 -6 0 -11 -15 -11 -32 -1 -18 -7 -44 -15 -58 l-14 -25 -1 23 c0 13
-4 20 -10 17 -5 -3 -10 3 -10 15 0 13 -9 24 -27 30 -16 6 -40 17 -55 25 -36
21 -38 19 -26 -16 8 -25 7 -38 -5 -65 -28 -57 -99 -55 -111 3 -26 137 -28 142
-51 157 -14 9 -35 17 -47 19 -21 2 -26 -8 -53 -88 -22 -65 -35 -91 -48 -93
-29 -6 -54 25 -61 72 -5 32 -13 46 -31 54 -16 8 -25 8 -27 0 -2 -5 -23 6 -48
27 -42 35 -44 36 -54 16 -16 -29 -41 -11 -32 22 5 20 2 27 -13 32 -19 6 -36
48 -26 64 2 5 20 12 39 15 24 5 36 13 40 29 6 27 48 68 95 94 65 36 78 162 21
203 -21 15 -29 31 -33 62 -3 24 -8 55 -12 71 -6 21 -1 37 19 67 28 42 32 55
16 45 -6 -4 -10 11 -10 37 0 24 -6 53 -14 64 -13 18 -23 20 -88 17 -66 -4 -74
-2 -86 17 -16 26 -14 30 45 60 26 14 50 26 52 28 3 1 -4 9 -15 17 -18 14 -16
15 18 9 50 -8 91 24 124 96 37 81 68 110 120 110 34 0 47 -5 63 -26z"/>
<path d="M2810 1830 c-19 -15 -21 -20 -9 -20 16 0 46 27 38 35 -2 2 -15 -5
-29 -15z"/>
<path d="M3504 1641 c8 -13 66 -32 66 -21 0 11 -8 16 -43 24 -17 4 -26 3 -23
-3z"/>
</g>
</svg>
