<?xml version="1.0" standalone="no"?>
<!DOCTYPE svg PUBLIC "-//W3C//DTD SVG 20010904//EN"
 "http://www.w3.org/TR/2001/REC-SVG-20010904/DTD/svg10.dtd">
<svg version="1.0" xmlns="http://www.w3.org/2000/svg"
 width="480.000000pt" height="360.000000pt" viewBox="0 0 480.000000 360.000000"
 preserveAspectRatio="xMidYMid meet">
<metadata>
Created by potrace 1.16, written by Peter Selinger 2001-2019
</metadata>
<rect width="1" height="360" fill="#000000"/>
<rect x="479" width="1" height="360" fill="#000000"/>
<rect width="480" height="1" fill="#000000"/>
<rect y="359" width="480" height="1" fill="#000000"/>
<g transform="translate(0.000000,360.000000) scale(0.100000,-0.100000)"
fill="#000000" stroke="none">
<path d="M0 1800 l0 -1800 990 0 c801 0 990 2 990 13 0 20 28 352 46 542 8 94
24 212 35 264 10 51 19 134 19 185 0 50 6 120 12 156 13 76 13 160 -1 210 -5
19 -14 100 -20 180 -8 126 -14 153 -38 205 -36 78 -36 141 0 300 32 143 79
246 143 310 36 36 42 45 26 45 -11 0 -25 7 -32 15 -7 8 -18 15 -25 15 -8 0
-27 11 -43 25 -17 14 -37 25 -45 25 -21 0 -32 19 -18 33 16 16 14 42 -5 58
-12 10 -25 10 -54 2 -36 -9 -41 -8 -74 23 -20 18 -36 39 -36 46 -1 8 -7 5 -16
-7 -13 -18 -14 -10 -9 90 8 150 10 160 47 211 l32 45 -32 58 c-18 32 -32 61
-32 64 0 10 71 47 91 47 11 0 29 -5 40 -10 33 -18 36 -4 19 67 -18 73 -12 87
24 54 l23 -22 7 23 c3 13 6 35 6 50 0 15 4 30 10 33 25 16 193 -109 231 -172
27 -45 33 -50 79 -63 50 -14 99 -58 157 -142 79 -115 127 -240 178 -466 9 -40
48 -144 86 -231 121 -279 147 -397 118 -546 -5 -27 -13 -104 -18 -170 -11
-152 -40 -260 -86 -320 -13 -16 -17 -17 -24 -6 -6 10 -12 4 -20 -22 -8 -25
-17 -34 -27 -30 -17 6 -18 -10 -3 -57 6 -19 14 -138 19 -265 4 -126 14 -373
21 -548 l13 -317 998 0 998 0 0 1800 0 1800 -2400 0 -2400 0 0 -1800z"/>
<path d="M2103 1538 c1 -69 6 -111 14 -119 20 -20 28 -1 28 69 0 49 -6 79 -22
112 l-22 45 2 -107z"/>
</g>
</svg>
