<?xml version="1.0" standalone="no"?>
<!DOCTYPE svg PUBLIC "-//W3C//DTD SVG 20010904//EN"
 "http://www.w3.org/TR/2001/REC-SVG-20010904/DTD/svg10.dtd">
<svg version="1.0" xmlns="http://www.w3.org/2000/svg"
 width="480.000000pt" height="360.000000pt" viewBox="0 0 480.000000 360.000000"
 preserveAspectRatio="xMidYMid meet">
<metadata>
Created by potrace 1.16, written by Peter Selinger 2001-2019
</metadata>
<rect width="1" height="360" fill="#000000"/>
<rect x="479" width="1" height="360" fill="#000000"/>
<rect width="480" height="1" fill="#000000"/>
<rect y="359" width="480" height="1" fill="#000000"/>
<g transform="translate(0.000000,360.000000) scale(0.100000,-0.100000)"
fill="#000000" stroke="none">
<path d="M0 2445 c0 -1093 1 -1155 18 -1155 25 0 226 36 303 54 103 24 147 44
239 111 103 76 118 84 246 128 285 99 659 137 1019 103 274 -26 464 -56 795
-125 169 -35 205 -35 232 1 32 45 84 158 130 284 l43 119 -2 240 -3 239 -30
24 c-57 45 -77 115 -55 189 14 43 13 49 -1 58 -95 59 -121 94 -131 175 -7 56
12 112 55 166 35 45 65 64 125 80 43 11 55 11 85 -2 50 -20 62 -3 20 29 -18
14 -45 30 -58 35 -20 8 -25 16 -26 49 0 25 -10 51 -25 72 -24 32 -21 41 16 54
5 2 2 22 -9 48 -32 77 -27 74 -107 76 -95 2 -183 16 -203 32 -9 8 -16 26 -16
42 l0 29 -1330 0 -1330 0 0 -1155z"/>
<path d="M4152 3500 c-34 -112 -79 -178 -145 -211 -21 -11 -37 -22 -34 -25 2
-3 41 -6 85 -8 71 -3 89 -8 144 -39 35 -20 69 -45 76 -56 11 -19 10 -21 -10
-21 -20 0 -19 -3 12 -35 24 -25 29 -35 18 -35 -14 0 -12 -11 12 -72 15 -40 49
-117 74 -170 70 -151 72 -204 11 -275 -30 -36 -34 -44 -25 -69 29 -89 83 -499
74 -561 -6 -40 -2 -49 53 -135 33 -51 111 -196 173 -321 62 -125 117 -230 121
-233 5 -3 9 524 9 1180 l0 1186 -308 0 -309 0 -31 -100z"/>
<path d="M3333 2418 c1 -43 -23 -473 -29 -518 -4 -25 -28 -103 -55 -175 -54
-146 -79 -234 -79 -281 0 -31 1 -32 120 -72 l119 -40 5 41 c23 192 41 289 66
374 99 322 102 366 23 417 -25 16 -54 43 -64 60 -20 33 -63 144 -73 189 -8 33
-34 37 -33 5z"/>
<path d="M1195 1474 c-168 -21 -340 -65 -440 -113 -63 -31 -107 -62 -176 -127
-91 -85 -168 -131 -248 -149 -18 -4 -35 -13 -38 -21 -12 -33 50 -333 117 -564
29 -101 140 -494 140 -497 0 -1 609 -3 1354 -3 l1354 0 5 23 c3 12 11 92 17
177 12 167 35 366 74 635 41 283 41 282 20 293 -11 5 -67 26 -127 47 -100 35
-109 37 -125 21 -51 -45 -279 14 -364 95 -27 27 -53 41 -90 49 -188 41 -245
53 -343 70 -308 54 -470 71 -750 75 -192 3 -291 0 -380 -11z"/>
<path d="M0 23 c0 -13 5 -23 10 -23 13 0 13 11 0 30 -8 12 -10 11 -10 -7z"/>
</g>
</svg>
