<?xml version="1.0" standalone="no"?>
<!DOCTYPE svg PUBLIC "-//W3C//DTD SVG 20010904//EN"
 "http://www.w3.org/TR/2001/REC-SVG-20010904/DTD/svg10.dtd">
<svg version="1.0" xmlns="http://www.w3.org/2000/svg"
 width="480.000000pt" height="360.000000pt" viewBox="0 0 480.000000 360.000000"
 preserveAspectRatio="xMidYMid meet">
<metadata>
Created by potrace 1.16, written by Peter Selinger 2001-2019
</metadata>
<rect width="1" height="360" fill="#000000"/>
<rect x="479" width="1" height="360" fill="#000000"/>
<rect width="480" height="1" fill="#000000"/>
<rect y="359" width="480" height="1" fill="#000000"/>
<g transform="translate(0.000000,360.000000) scale(0.100000,-0.100000)"
fill="#000000" stroke="none">
<path d="M2733 3344 c-23 -10 -14 -32 21 -52 32 -19 74 -68 65 -76 -2 -2 -41
-16 -87 -31 -46 -15 -102 -41 -125 -59 -51 -39 -98 -127 -105 -196 -2 -27 -11
-55 -18 -61 -19 -16 -17 -36 6 -66 45 -58 17 -106 -103 -178 -46 -27 -69 -35
-108 -35 -54 0 -59 -8 -38 -69 14 -41 40 -55 74 -39 19 8 28 9 37 0 8 -8 26
-3 69 19 91 45 93 44 86 -53 -5 -65 -4 -78 5 -60 11 21 12 21 40 -25 15 -27
37 -59 48 -73 14 -19 22 -53 31 -138 15 -145 6 -490 -15 -592 -44 -210 -54
-242 -99 -309 -118 -175 -118 -174 -56 -213 35 -21 49 -36 46 -47 -5 -15 -94
-224 -122 -286 -60 -133 -61 -142 -28 -271 14 -56 14 -63 -3 -100 -10 -21 -19
-48 -20 -59 -1 -11 -5 -39 -8 -63 -5 -30 -3 -42 6 -42 33 1 86 51 122 115 16
29 17 24 11 -127 l-6 -158 659 0 659 0 11 94 c7 52 12 130 12 174 0 43 5 92
10 108 6 16 21 105 34 199 l24 170 -29 190 c-15 104 -44 253 -63 330 -19 77
-46 191 -61 253 l-26 113 7 380 c4 208 11 379 15 379 12 0 69 51 69 61 0 5 -6
9 -12 9 -7 1 -28 13 -46 29 -44 37 -76 159 -73 276 4 189 -99 348 -268 415
-90 35 -220 62 -333 67 -99 5 -109 8 -123 29 -29 44 -150 87 -192 68z"/>
</g>
</svg>
