<?xml version="1.0" standalone="no"?>
<!DOCTYPE svg PUBLIC "-//W3C//DTD SVG 20010904//EN"
 "http://www.w3.org/TR/2001/REC-SVG-20010904/DTD/svg10.dtd">
<svg version="1.0" xmlns="http://www.w3.org/2000/svg"
 width="480.000000pt" height="360.000000pt" viewBox="0 0 480.000000 360.000000"
 preserveAspectRatio="xMidYMid meet">
<metadata>
Created by potrace 1.16, written by Peter Selinger 2001-2019
</metadata>
<rect width="1" height="360" fill="#000000"/>
<rect x="479" width="1" height="360" fill="#000000"/>
<rect width="480" height="1" fill="#000000"/>
<rect y="359" width="480" height="1" fill="#000000"/>
<g transform="translate(0.000000,360.000000) scale(0.100000,-0.100000)"
fill="#000000" stroke="none">
<path d="M1427 2989 c-21 -5 -51 -15 -66 -24 -26 -13 -30 -13 -41 0 -18 22
-54 18 -79 -9 -19 -20 -21 -27 -10 -43 9 -16 8 -32 -10 -85 l-22 -66 24 -53
c26 -60 49 -84 72 -76 24 10 27 -11 5 -33 -21 -21 -26 -40 -11 -40 4 0 25 -21
44 -47 54 -71 56 -73 72 -67 11 5 12 2 2 -19 -6 -14 -18 -23 -27 -20 -17 4
-27 -3 -53 -33 -17 -20 -16 -22 4 -49 l22 -27 -36 -32 c-41 -36 -97 -113 -97
-133 0 -8 -9 -28 -21 -44 -48 -68 -30 -156 38 -184 l36 -15 -5 -83 c-4 -66
-12 -95 -37 -144 -17 -34 -35 -65 -41 -68 -8 -5 -7 -11 1 -21 9 -11 6 -30 -16
-89 -16 -44 -24 -82 -20 -95 4 -11 -5 -58 -19 -108 -35 -118 -50 -200 -96
-527 -39 -280 -63 -489 -76 -662 l-7 -93 517 0 516 0 -5 23 c-21 97 -66 400
-100 677 -22 174 -106 502 -170 663 -5 12 -2 17 9 17 22 0 20 9 -5 37 l-22 22
22 18 c14 12 25 38 32 76 6 32 26 95 45 140 19 45 34 91 34 103 0 12 -22 66
-50 120 -35 68 -48 104 -44 121 4 16 2 23 -9 23 -19 0 -27 21 -27 68 0 31 -15
100 -50 231 -10 36 -3 62 10 41 6 -9 13 -9 28 -1 14 7 23 8 27 1 14 -22 26 -8
20 23 -5 26 -1 42 19 72 15 22 26 31 26 21 0 -9 7 -16 15 -16 9 0 19 17 26 45
9 37 15 45 30 40 18 -6 18 -5 0 47 -10 29 -30 77 -45 105 -14 29 -26 64 -26
78 0 39 -141 179 -195 194 -46 13 -104 13 -158 0z"/>
<path d="M4307 474 c-26 -14 -49 -30 -51 -37 -2 -7 -14 -68 -26 -137 -12 -69
-28 -135 -36 -146 -10 -17 -30 -24 -96 -34 -118 -19 -198 -63 -198 -109 0 -8
138 -11 450 -11 l450 0 0 45 c0 31 -4 45 -14 45 -34 0 -63 40 -86 119 l-23 80
28 32 c30 37 29 74 -3 118 -24 33 -35 37 -120 50 -125 19 -220 14 -275 -15z"/>
</g>
</svg>
