<?xml version="1.0" standalone="no"?>
<!DOCTYPE svg PUBLIC "-//W3C//DTD SVG 20010904//EN"
 "http://www.w3.org/TR/2001/REC-SVG-20010904/DTD/svg10.dtd">
<svg version="1.0" xmlns="http://www.w3.org/2000/svg"
 width="480.000000pt" height="360.000000pt" viewBox="0 0 480.000000 360.000000"
 preserveAspectRatio="xMidYMid meet">
<metadata>
Created by potrace 1.16, written by Peter Selinger 2001-2019
</metadata>
<rect width="1" height="360" fill="#000000"/>
<rect x="479" width="1" height="360" fill="#000000"/>
<rect width="480" height="1" fill="#000000"/>
<rect y="359" width="480" height="1" fill="#000000"/>
<g transform="translate(0.000000,360.000000) scale(0.100000,-0.100000)"
fill="#000000" stroke="none">
<path d="M0 2175 l0 -1425 105 0 c123 0 111 -15 119 159 3 71 1 120 -6 130 -8
13 -3 31 21 79 26 51 36 62 56 62 14 0 42 7 63 16 38 14 40 17 46 71 4 34 3
60 -4 67 -20 20 -9 36 38 58 48 23 69 62 42 78 -9 6 -8 14 5 34 22 33 32 33
48 -1 9 -21 9 -27 -1 -31 -18 -6 -15 -57 6 -74 9 -8 29 -19 43 -25 25 -11 26
-13 21 -91 -5 -88 -12 -79 83 -106 36 -11 42 -18 67 -76 19 -46 24 -68 16 -77
-5 -7 -13 -69 -16 -138 l-5 -125 27 0 c14 0 26 6 27 13 0 6 0 44 -1 82 -1 64
3 76 36 131 20 34 46 74 59 90 l22 28 45 -77 c38 -65 46 -88 52 -149 4 -40 12
-76 19 -80 6 -4 44 -8 82 -9 39 0 181 -6 317 -12 l248 -12 65 -65 c35 -35 68
-60 72 -56 5 4 8 90 8 191 l0 182 45 67 c25 36 47 66 51 66 3 0 26 -33 51 -73
l46 -72 -5 -503 -6 -502 1396 0 1397 0 0 1800 0 1800 -2400 0 -2400 0 0 -1425z
m3182 665 c26 -27 29 -35 23 -66 -4 -23 0 -53 10 -84 18 -55 23 -58 158 -81
51 -8 67 -15 67 -28 -1 -22 -33 -59 -61 -69 l-23 -9 27 -25 c30 -28 33 -36 15
-35 -48 1 -60 -3 -55 -23 4 -15 0 -20 -14 -20 -17 0 -24 -10 -20 -32 0 -4 -6
-5 -14 -2 -8 4 -15 1 -15 -6 0 -6 -4 -9 -9 -5 -9 5 -13 -15 -24 -111 l-3 -32
40 25 c49 32 137 73 154 73 22 0 13 -66 -17 -123 -16 -31 -24 -54 -17 -51 18
7 316 10 316 3 0 -3 -11 -12 -25 -19 -14 -7 -25 -17 -25 -20 0 -8 34 -23 79
-36 23 -6 23 -8 7 -19 -21 -16 -16 -19 54 -35 l55 -13 -32 -11 c-46 -16 -48
-22 -11 -37 18 -7 41 -22 52 -33 19 -19 18 -19 -27 -14 -42 5 -45 4 -41 -16 2
-11 13 -29 25 -38 18 -16 19 -18 4 -18 -15 0 -16 -2 -4 -17 13 -15 11 -16 -18
-10 -19 4 -33 2 -33 -3 0 -6 9 -10 19 -10 23 0 40 -22 23 -28 -24 -8 -10 -21
41 -38 l52 -18 -37 -8 c-22 -4 -49 -3 -63 2 -35 13 -38 13 -32 -4 3 -8 1 -17
-6 -19 -7 -2 7 -7 31 -11 62 -11 54 -29 -9 -21 -35 5 -49 4 -45 -3 3 -6 2 -14
-4 -17 -8 -5 -7 -11 1 -21 15 -18 5 -18 -32 2 -39 20 -45 14 -24 -25 8 -17 14
-31 12 -31 -2 0 -21 16 -41 35 -21 19 -47 35 -58 35 -17 0 -20 -5 -16 -35 2
-19 0 -35 -4 -35 -4 0 -8 -9 -8 -19 0 -11 -4 -23 -10 -26 -5 -3 -10 2 -10 12
0 38 -26 65 -85 89 -33 13 -63 24 -67 24 -5 0 -8 -23 -8 -50 0 -41 -5 -56 -25
-75 -28 -29 -42 -31 -72 -10 -15 11 -24 33 -32 82 -16 91 -19 100 -39 107 -9
3 -24 11 -33 17 -29 22 -44 3 -72 -90 -21 -72 -31 -91 -46 -91 -27 0 -51 32
-59 81 -6 34 -12 44 -31 49 -12 3 -29 16 -36 30 -12 20 -14 22 -15 6 0 -13 -5
-16 -17 -11 -10 4 -28 10 -41 13 -13 2 -26 11 -29 18 -8 21 -33 17 -33 -6 0
-11 -6 -20 -14 -20 -21 0 -28 17 -17 39 9 15 7 20 -9 24 -11 3 -24 17 -30 32
-16 42 3 57 64 54 49 -3 52 -2 68 32 9 19 38 55 65 79 78 72 93 167 32 211
-21 15 -29 29 -29 50 0 16 -7 46 -15 66 -14 34 -14 39 6 80 17 36 20 54 15 96
-13 91 -54 134 -104 108 -37 -18 -72 -22 -72 -7 0 8 -7 19 -15 24 -12 6 0 15
47 37 35 16 65 31 68 33 2 1 -8 14 -23 28 -35 32 -34 38 3 19 36 -19 66 -12
73 15 3 11 12 20 21 20 9 0 27 21 40 49 52 101 129 130 188 71z"/>
<path d="M2931 1851 c-13 -10 -19 -21 -14 -24 10 -7 50 29 42 37 -2 3 -15 -3
-28 -13z"/>
<path d="M2935 1720 c3 -5 8 -10 11 -10 2 0 4 5 4 10 0 6 -5 10 -11 10 -5 0
-7 -4 -4 -10z"/>
<path d="M3684 1652 c9 -15 48 -23 43 -9 -2 7 -14 14 -26 15 -13 2 -21 -1 -17
-6z"/>
</g>
</svg>
