<?xml version="1.0" standalone="no"?>
<!DOCTYPE svg PUBLIC "-//W3C//DTD SVG 20010904//EN"
 "http://www.w3.org/TR/2001/REC-SVG-20010904/DTD/svg10.dtd">
<svg version="1.0" xmlns="http://www.w3.org/2000/svg"
 width="480.000000pt" height="360.000000pt" viewBox="0 0 480.000000 360.000000"
 preserveAspectRatio="xMidYMid meet">
<metadata>
Created by potrace 1.16, written by Peter Selinger 2001-2019
</metadata>
<rect width="1" height="360" fill="#000000"/>
<rect x="479" width="1" height="360" fill="#000000"/>
<rect width="480" height="1" fill="#000000"/>
<rect y="359" width="480" height="1" fill="#000000"/>
<g transform="translate(0.000000,360.000000) scale(0.100000,-0.100000)"
fill="#000000" stroke="none">
<path d="M1820 3443 l-35 -38 -2 -165 c-1 -98 3 -170 9 -177 5 -7 7 -17 4 -22
-4 -5 -2 -12 4 -16 6 -4 8 -11 4 -16 -3 -5 2 -21 11 -35 16 -25 20 -26 72 -19
31 4 63 9 71 13 26 10 7 -37 -53 -127 -30 -47 -55 -93 -55 -103 0 -37 19 -58
53 -58 18 0 42 -6 52 -14 18 -13 18 -17 1 -138 -10 -69 -21 -143 -26 -164 -13
-57 -3 -54 24 7 31 66 31 58 6 -110 -19 -129 -22 -136 -54 -165 -49 -45 -62
-79 -80 -201 -26 -176 -22 -169 -92 -175 -70 -6 -77 -19 -44 -94 27 -64 26
-80 -16 -215 -38 -125 -101 -268 -225 -510 -44 -85 -79 -159 -79 -166 0 -7 12
-30 28 -53 l27 -41 -2 -218 c-1 -120 -6 -256 -12 -303 -6 -46 -11 -93 -11
-102 0 -17 42 -18 871 -18 l870 0 19 43 c21 49 45 168 55 279 7 72 9 77 36 88
20 9 38 31 59 71 35 70 37 96 10 151 -22 47 -25 70 -10 98 6 10 6 21 2 24 -5
3 -8 22 -6 43 1 21 -4 54 -11 73 -7 19 -19 62 -26 95 -7 33 -17 71 -22 85 -5
14 -10 36 -12 50 -6 72 -83 338 -124 435 -5 11 -16 36 -25 57 -9 20 -16 47
-16 60 0 12 -17 48 -38 78 -21 30 -55 88 -76 129 -21 40 -62 116 -92 168 -45
77 -54 100 -49 124 4 16 12 32 19 36 10 6 11 32 5 118 -5 61 -6 123 -3 138 4
20 2 27 -8 25 -24 -5 -23 88 2 125 l21 32 -7 -35 -6 -35 19 25 c32 40 45 96
41 171 l-4 69 32 -6 c26 -5 35 -1 57 26 15 17 25 36 21 41 -3 5 0 9 6 9 5 0
29 39 53 88 24 48 56 107 72 132 28 44 36 87 22 123 -15 38 -248 117 -346 117
-87 0 -172 -24 -196 -54 l-21 -26 -23 24 c-37 40 -173 62 -222 36 -14 -8 -19
-7 -19 3 0 34 -101 92 -210 120 -31 8 -103 18 -160 21 l-105 7 -35 -38z m156
-1301 c-13 -12 -17 8 -10 40 l9 33 3 -33 c2 -19 1 -36 -2 -40z m753 -969 c-1
-200 -16 -203 -26 -7 -6 115 1 184 17 184 6 0 10 -71 9 -177z m8 -375 c-3 -8
-6 -5 -6 6 -1 11 2 17 5 13 3 -3 4 -12 1 -19z"/>
</g>
</svg>
