<?xml version="1.0" standalone="no"?>
<!DOCTYPE svg PUBLIC "-//W3C//DTD SVG 20010904//EN"
 "http://www.w3.org/TR/2001/REC-SVG-20010904/DTD/svg10.dtd">
<svg version="1.0" xmlns="http://www.w3.org/2000/svg"
 width="480.000000pt" height="360.000000pt" viewBox="0 0 480.000000 360.000000"
 preserveAspectRatio="xMidYMid meet">
<metadata>
Created by potrace 1.16, written by Peter Selinger 2001-2019
</metadata>
<rect width="1" height="360" fill="#000000"/>
<rect x="479" width="1" height="360" fill="#000000"/>
<rect width="480" height="1" fill="#000000"/>
<rect y="359" width="480" height="1" fill="#000000"/>
<g transform="translate(0.000000,360.000000) scale(0.100000,-0.100000)"
fill="#000000" stroke="none">
<path d="M2713 3520 c-34 -14 -28 -29 20 -49 42 -18 85 -56 75 -67 -3 -3 -48
-14 -99 -24 -209 -43 -301 -122 -329 -282 l-12 -65 -68 -26 c-45 -18 -77 -25
-97 -21 -42 8 -66 -31 -67 -110 -1 -56 1 -60 24 -66 22 -6 25 -11 23 -44 -2
-28 1 -37 11 -33 20 8 33 -4 59 -53 13 -26 32 -46 43 -48 65 -10 72 -19 80
-100 7 -75 -2 -310 -13 -338 -4 -10 -18 -14 -47 -13 -50 2 -146 -25 -201 -56
-22 -12 -79 -34 -126 -49 -72 -22 -98 -25 -165 -20 -43 3 -131 1 -194 -4 -99
-7 -124 -6 -180 10 -75 21 -138 23 -175 6 -31 -14 -31 -19 -3 -37 21 -13 21
-14 3 -27 -25 -19 -136 -18 -182 1 -19 8 -49 15 -65 15 l-29 0 18 -31 c22 -37
59 -61 143 -92 l62 -24 3 -74 c4 -120 49 -217 114 -246 51 -24 97 -15 209 38
242 116 268 125 397 133 44 3 136 19 204 36 69 17 129 29 135 27 6 -2 -13 -29
-43 -60 l-53 -56 26 -16 c24 -16 26 -23 26 -94 0 -77 21 -133 57 -154 30 -18
33 -54 13 -164 -12 -69 -16 -111 -10 -117 17 -17 11 -54 -10 -69 -19 -13 -19
-25 -18 -293 2 -285 -13 -490 -48 -657 -7 -37 -14 -77 -14 -88 0 -19 13 -19
571 -19 l571 0 -6 23 c-3 13 -17 90 -31 170 -28 160 -26 176 27 240 l23 28 -3
-63 -2 -63 25 45 24 45 -5 -50 c-7 -70 6 -45 59 111 61 177 74 298 53 474 -10
78 -12 128 -7 133 6 6 7 24 5 41 l-6 31 27 -33 c14 -17 31 -32 37 -32 13 0 2
64 -32 175 l-27 89 21 29 c30 41 28 110 -5 162 -14 22 -37 65 -51 95 l-25 55
99 155 c66 105 97 163 95 180 -2 20 -19 35 -82 73 -44 26 -108 65 -141 86
l-62 39 -6 98 c-4 55 -9 144 -11 199 -2 55 -15 149 -29 210 -20 90 -23 119
-15 159 11 62 -4 163 -36 233 -43 96 -171 207 -269 235 -51 14 -66 25 -66 48
0 28 -64 77 -122 95 -58 17 -64 17 -95 5z m-116 -1140 c18 0 54 -117 40 -127
-32 -22 -88 -45 -94 -39 -4 4 -9 55 -11 114 l-4 107 29 -27 c16 -16 34 -28 40
-28z"/>
</g>
</svg>
