<?xml version="1.0" standalone="no"?>
<!DOCTYPE svg PUBLIC "-//W3C//DTD SVG 20010904//EN"
 "http://www.w3.org/TR/2001/REC-SVG-20010904/DTD/svg10.dtd">
<svg version="1.0" xmlns="http://www.w3.org/2000/svg"
 width="480.000000pt" height="360.000000pt" viewBox="0 0 480.000000 360.000000"
 preserveAspectRatio="xMidYMid meet">
<metadata>
Created by potrace 1.16, written by Peter Selinger 2001-2019
</metadata>
<rect width="1" height="360" fill="#000000"/>
<rect x="479" width="1" height="360" fill="#000000"/>
<rect width="480" height="1" fill="#000000"/>
<rect y="359" width="480" height="1" fill="#000000"/>
<g transform="translate(0.000000,360.000000) scale(0.100000,-0.100000)"
fill="#000000" stroke="none">
<path d="M1700 3532 c0 -148 53 -264 172 -378 l80 -76 -83 6 c-46 4 -123 14
-170 23 -47 9 -94 13 -103 10 -9 -4 -25 -26 -35 -50 -16 -36 -28 -48 -83 -75
-35 -18 -77 -43 -93 -56 -29 -23 -29 -24 -12 -50 10 -14 26 -26 37 -26 28 0
63 -69 91 -176 l23 -90 -27 -74 c-15 -40 -25 -75 -22 -78 3 -3 17 0 31 7 14 6
29 9 34 6 4 -2 5 -45 2 -95 -3 -64 -1 -94 8 -105 15 -18 6 -107 -15 -139 -8
-11 -17 -55 -21 -97 -5 -61 -3 -84 10 -109 18 -37 13 -130 -10 -165 -16 -25
-34 -140 -27 -181 2 -16 9 -39 15 -51 12 -25 3 -130 -13 -149 -28 -34 -44
-219 -21 -247 17 -19 3 -115 -21 -156 -15 -26 -21 -57 -25 -133 -3 -62 -1
-103 5 -107 14 -8 -2 -124 -21 -154 -16 -25 -36 -122 -36 -178 0 -21 7 -42 16
-50 14 -11 15 -26 10 -82 -3 -38 -11 -78 -17 -89 -6 -11 -13 -53 -16 -94 l-6
-74 26 0 c24 0 26 4 29 47 3 41 6 48 31 56 16 5 30 7 33 4 3 -3 5 -28 6 -56 0
-48 2 -51 25 -51 l26 0 -5 82 c-3 49 -10 84 -16 86 -18 6 -15 128 3 155 30 47
41 237 13 237 -16 0 3 121 23 150 10 14 22 58 29 105 10 83 8 118 -9 139 -16
19 -2 117 21 149 12 18 23 59 30 115 10 77 9 91 -7 125 -14 30 -16 50 -11 100
4 35 15 70 24 81 21 22 31 211 13 229 -6 6 -11 40 -11 76 l0 66 37 -64 c53
-89 178 -226 416 -455 114 -110 207 -203 207 -208 0 -20 -63 -100 -87 -111
-13 -6 -35 -32 -49 -58 -13 -26 -35 -64 -49 -85 -14 -20 -25 -49 -25 -65 0
-15 -21 -67 -46 -116 -201 -381 -252 -527 -238 -669 l7 -64 775 0 775 0 -7
153 c-4 83 -11 186 -16 227 -14 112 -12 244 5 362 18 129 21 138 50 138 13 0
27 5 30 11 4 6 13 8 21 5 8 -3 17 1 20 9 4 8 18 15 32 15 14 0 43 15 66 34 23
18 51 36 63 40 12 4 32 20 43 37 12 16 26 29 32 29 15 0 125 114 175 180 82
110 92 154 68 284 -20 109 -46 169 -87 208 -29 27 -30 30 -15 45 8 9 75 40
148 68 l133 53 79 -54 c45 -30 94 -56 115 -59 20 -3 61 -17 90 -32 29 -14 55
-23 59 -20 14 14 -91 136 -177 206 -38 31 -4 27 72 -9 34 -16 71 -30 81 -30
23 0 22 23 -3 45 -12 11 -20 31 -20 50 0 32 2 33 58 47 73 18 74 36 2 66 -49
20 -66 22 -160 17 -58 -2 -139 -5 -181 -4 -79 0 -292 -46 -350 -77 -31 -15
-96 -19 -118 -5 -11 7 -11 12 2 32 8 13 17 36 21 50 4 18 18 31 45 44 68 30
131 114 131 173 0 27 29 49 75 57 110 19 168 90 162 198 -3 58 -5 62 -28 63
-13 0 -34 4 -46 8 -25 8 -32 -11 -12 -31 7 -7 -19 -27 -90 -67 -82 -47 -104
-55 -120 -46 -27 14 -51 2 -51 -24 0 -29 -144 -108 -175 -95 -56 22 -121 -7
-127 -58 -2 -14 -15 -35 -30 -46 l-27 -20 -75 52 c-122 84 -172 103 -300 112
-156 11 -264 11 -246 -1 17 -11 15 -14 -25 -29 -29 -11 -29 -11 10 -6 36 5 38
4 22 -9 -10 -7 -38 -17 -62 -21 -47 -7 -71 -25 -34 -25 22 0 21 -2 -12 -37
-63 -67 -114 -137 -96 -130 22 8 22 -1 0 -26 -17 -19 -17 -19 4 -13 22 7 23 5
20 -41 -1 -26 -6 -51 -11 -54 -10 -8 -61 8 -93 29 -31 19 -43 8 -43 -43 0 -37
-5 -47 -29 -65 -23 -16 -31 -31 -37 -67 -6 -38 -11 -47 -35 -57 -19 -6 -29
-18 -29 -31 -1 -11 -7 -31 -15 -45 -25 -44 -17 -72 45 -164 33 -49 60 -94 60
-100 0 -6 -42 32 -92 83 -126 128 -291 268 -396 337 -2 1 -8 46 -13 100 -6 55
-26 181 -45 281 -19 100 -34 185 -34 188 0 3 11 5 25 5 30 0 31 4 6 38 -28 40
-61 109 -61 127 0 9 13 21 29 26 16 6 32 17 35 25 10 26 24 14 35 -32 19 -75
60 -144 120 -204 55 -55 74 -65 213 -115 43 -15 49 -21 59 -58 32 -121 50
-147 79 -112 7 8 21 15 30 15 40 0 50 11 51 59 2 89 9 101 79 143 130 79 198
172 221 303 21 123 0 202 -83 313 -31 42 -37 56 -28 67 6 8 9 23 5 35 -4 14 3
32 28 62 76 96 107 178 114 306 l6 102 -547 0 -546 0 0 -68z m-180 -631 c0
-54 -7 -60 -46 -42 -18 8 -34 18 -34 22 0 8 61 49 73 49 4 0 7 -13 7 -29z
m2250 -641 c-24 -34 -39 -45 -47 -36 -7 7 46 66 60 66 4 0 -1 -13 -13 -30z
m-2181 -202 c4 -13 11 -41 14 -64 7 -40 6 -40 -22 -36 -25 3 -28 8 -26 35 2
18 3 44 4 60 1 33 18 36 30 5z m1 -233 c0 -30 -4 -55 -10 -55 -11 0 -13 33 -4
79 9 46 14 38 14 -24z m1 -135 c17 0 19 -7 19 -58 0 -32 -2 -61 -5 -63 -2 -3
-20 -3 -40 -1 -32 4 -35 7 -35 37 0 59 11 97 27 91 8 -4 23 -6 34 -6z m-22
-232 c-1 -18 -5 -44 -9 -58 -6 -19 -8 -11 -9 33 -1 32 3 57 9 57 6 0 10 -15 9
-32z m14 -172 c2 -6 1 -33 -2 -61 -6 -48 -7 -50 -43 -56 l-38 -6 0 51 c0 82 6
92 45 88 18 -2 36 -9 38 -16z m-49 -233 c-8 -58 -23 -91 -24 -53 0 43 12 100
22 100 5 0 6 -20 2 -47z m9 -200 c-6 -78 -5 -78 -49 -78 -38 0 -39 1 -36 35 6
71 13 91 30 86 10 -3 24 -1 32 4 25 16 26 12 23 -47z m-58 -240 c-3 -18 -10
-31 -15 -28 -4 3 -7 13 -5 23 2 9 7 35 11 57 7 37 8 38 12 11 2 -16 1 -44 -3
-63z m8 -213 c-4 -5 -23 -11 -40 -15 -31 -6 -33 -5 -33 23 0 63 11 92 36 92
12 0 26 6 31 13 5 7 9 -12 11 -47 2 -32 -1 -62 -5 -66z m-46 -182 c-2 -18 -4
-6 -4 27 0 33 2 48 4 33 2 -15 2 -42 0 -60z"/>
</g>
</svg>
