<?xml version="1.0" standalone="no"?>
<!DOCTYPE svg PUBLIC "-//W3C//DTD SVG 20010904//EN"
 "http://www.w3.org/TR/2001/REC-SVG-20010904/DTD/svg10.dtd">
<svg version="1.0" xmlns="http://www.w3.org/2000/svg"
 width="480.000000pt" height="360.000000pt" viewBox="0 0 480.000000 360.000000"
 preserveAspectRatio="xMidYMid meet">
<metadata>
Created by potrace 1.16, written by Peter Selinger 2001-2019
</metadata>
<rect width="1" height="360" fill="#000000"/>
<rect x="479" width="1" height="360" fill="#000000"/>
<rect width="480" height="1" fill="#000000"/>
<rect y="359" width="480" height="1" fill="#000000"/>
<g transform="translate(0.000000,360.000000) scale(0.100000,-0.100000)"
fill="#000000" stroke="none">
<path d="M0 2405 l0 -1196 33 5 c29 5 72 7 342 21 91 5 364 27 555 45 58 6
182 17 275 26 342 30 780 81 1037 121 120 18 109 8 123 114 6 46 5 46 -26 53
-17 3 -65 6 -105 6 -59 0 -74 3 -74 15 0 23 -182 22 -201 -1 -11 -13 -27 -15
-99 -9 -47 4 -94 12 -105 19 -26 17 -111 26 -123 14 -6 -6 -37 -7 -73 -4 -35
3 -83 7 -106 8 -35 1 -41 4 -38 21 3 14 0 17 -12 13 -13 -5 -14 -4 -3 9 7 8
10 21 7 28 -3 7 6 22 19 33 14 10 30 24 37 30 7 6 42 26 78 43 35 18 68 36 74
42 5 5 23 9 41 9 48 0 170 66 233 126 l55 54 -107 0 c-94 0 -109 2 -127 20
-16 16 -25 18 -40 10 -10 -5 -27 -10 -36 -10 -14 0 -10 8 17 36 32 34 33 36 9
29 -14 -4 11 18 55 50 44 32 96 62 115 68 23 6 59 34 105 81 67 68 75 82 197
336 144 302 188 397 188 409 0 5 -39 44 -88 86 -118 106 -137 133 -136 200 1
51 30 118 90 210 l16 25 -650 0 -651 0 -7 -47 c-18 -124 13 -301 102 -578 25
-77 46 -158 45 -180 0 -27 -19 -82 -57 -165 -51 -113 -57 -133 -62 -211 -5
-99 15 -210 51 -274 12 -21 42 -54 67 -72 25 -19 56 -43 68 -53 13 -11 35 -23
48 -26 49 -12 33 -24 -33 -24 -182 0 -323 149 -374 395 -21 98 -21 102 -3 218
22 146 18 165 -76 377 -95 212 -140 400 -140 583 l0 57 -265 0 -265 0 0 -1195z"/>
<path d="M3005 3590 c-11 -5 -38 -9 -60 -9 -46 -1 -45 -1 -104 -64 -42 -44
-44 -48 -31 -72 7 -14 13 -40 11 -58 -9 -140 -8 -152 27 -192 26 -28 33 -44
29 -64 -6 -30 70 -181 135 -269 40 -54 88 -141 88 -161 0 -6 -4 -11 -10 -11
-15 0 -12 -30 10 -87 27 -72 102 -368 107 -424 4 -34 -1 -56 -16 -85 -12 -21
-21 -44 -21 -51 0 -21 -14 -15 -45 17 -19 20 -39 30 -57 30 -29 0 -29 0 -22
-47 3 -27 17 -100 30 -164 13 -63 26 -149 30 -190 3 -41 7 -79 9 -85 2 -8 51
0 152 27 81 22 236 62 343 89 204 52 471 129 1015 295 66 20 131 40 145 44
l25 7 3 767 2 767 -887 -1 c-489 0 -897 -4 -908 -9z"/>
<path d="M2297 3425 l-38 -45 52 -52 51 -53 -6 34 c-3 18 -6 62 -6 97 0 35 -3
64 -7 64 -5 -1 -25 -21 -46 -45z"/>
<path d="M3080 1590 c0 -5 5 -10 11 -10 5 0 7 5 4 10 -3 6 -8 10 -11 10 -2 0
-4 -4 -4 -10z"/>
<path d="M2720 1535 c0 -34 1 -34 33 -28 44 8 45 11 12 38 -40 32 -45 31 -45
-10z"/>
<path d="M4687 315 c-59 -70 -146 -169 -194 -219 l-87 -91 193 -3 c107 -1 196
-1 198 1 2 2 2 102 1 222 l-3 218 -108 -128z"/>
</g>
</svg>
