<?xml version="1.0" standalone="no"?>
<!DOCTYPE svg PUBLIC "-//W3C//DTD SVG 20010904//EN"
 "http://www.w3.org/TR/2001/REC-SVG-20010904/DTD/svg10.dtd">
<svg version="1.0" xmlns="http://www.w3.org/2000/svg"
 width="480.000000pt" height="360.000000pt" viewBox="0 0 480.000000 360.000000"
 preserveAspectRatio="xMidYMid meet">
<metadata>
Created by potrace 1.16, written by Peter Selinger 2001-2019
</metadata>
<rect width="1" height="360" fill="#000000"/>
<rect x="479" width="1" height="360" fill="#000000"/>
<rect width="480" height="1" fill="#000000"/>
<rect y="359" width="480" height="1" fill="#000000"/>
<g transform="translate(0.000000,360.000000) scale(0.100000,-0.100000)"
fill="#000000" stroke="none">
<path d="M0 1800 l0 -1800 221 2 221 3 50 72 c37 54 57 97 78 169 28 94 28 97
10 113 -29 25 -42 88 -25 122 9 17 12 40 9 58 -6 27 -2 33 24 48 32 18 51 71
35 96 -4 6 -13 27 -20 45 -10 29 -9 36 8 53 15 15 18 27 13 59 -7 44 6 70 37
70 21 0 28 14 54 100 8 30 23 72 32 92 11 26 13 42 6 50 -28 36 -22 96 15 140
12 15 12 30 -4 115 -10 54 -19 100 -20 102 -2 2 -15 -6 -30 -18 -15 -12 -28
-20 -30 -18 -2 2 5 21 16 43 21 43 42 124 31 124 -3 0 -23 -16 -45 -36 -21
-19 -41 -33 -43 -30 -3 3 2 21 11 40 20 42 20 46 0 46 -12 0 -10 6 9 21 43 33
51 81 38 206 -6 59 -11 131 -11 158 0 48 -12 75 -33 75 -5 0 -7 -6 -4 -14 8
-21 -12 -24 -59 -10 -55 16 -184 82 -184 93 0 6 20 26 45 47 43 34 45 39 41
77 -6 54 26 87 83 87 32 0 44 5 56 24 15 23 15 28 -10 77 -48 94 -44 260 10
419 43 125 121 229 226 301 130 88 211 108 488 120 l214 9 30 37 c37 47 196
203 206 203 13 0 63 -111 102 -227 36 -107 41 -116 103 -178 125 -125 194
-282 199 -450 l2 -90 45 0 44 0 11 -72 c7 -46 17 -78 28 -85 13 -11 15 -20 8
-50 -5 -20 -6 -39 -4 -42 3 -3 9 -24 13 -46 14 -75 -43 -106 -70 -39 -14 32
-18 34 -42 16 -15 -12 -15 -21 13 -128 16 -63 32 -128 34 -146 10 -81 166
-313 237 -353 36 -20 88 -73 88 -89 0 -5 -39 11 -87 35 -48 24 -92 44 -99 44
-6 0 -32 -24 -57 -54 -73 -85 -108 -91 -220 -42 -22 9 -36 12 -32 7 3 -6 2
-11 -3 -11 -6 0 -13 7 -16 16 -11 28 -26 4 -26 -42 0 -24 -4 -44 -10 -44 -5 0
-10 8 -10 18 0 10 -11 33 -25 52 -25 33 -29 33 -25 -4 1 -11 -3 -15 -9 -12 -6
4 -11 16 -11 27 0 12 -4 17 -11 13 -6 -3 -15 -1 -19 6 -6 10 -14 6 -33 -13
-28 -31 -37 -34 -37 -12 0 47 -65 -17 -73 -72 -9 -52 -23 -63 -32 -23 -8 35
-11 36 -49 11 l-29 -19 34 -14 c19 -8 120 -43 224 -78 208 -69 254 -89 305
-130 33 -27 34 -29 35 -111 2 -68 6 -91 25 -122 15 -26 28 -36 38 -32 48 18
207 45 268 45 40 0 83 4 96 8 13 5 63 3 118 -4 52 -7 103 -11 112 -8 9 3 62
-6 118 -20 55 -15 109 -26 119 -26 10 0 62 -18 116 -40 54 -22 102 -40 105
-40 21 0 248 -135 330 -197 212 -158 421 -422 510 -644 l32 -79 259 0 259 0 0
1800 0 1800 -2400 0 -2400 0 0 -1800z m3258 1648 c-6 -18 -28 -21 -28 -4 0 9
7 16 16 16 9 0 14 -5 12 -12z m422 -868 c0 -5 -4 -10 -10 -10 -5 0 -10 5 -10
10 0 6 5 10 10 10 6 0 10 -4 10 -10z m890 -31 c0 -12 -7 -19 -19 -19 -23 0
-35 28 -20 46 15 18 39 1 39 -27z m-1305 -269 c-3 -5 -10 -10 -16 -10 -5 0 -9
5 -9 10 0 6 7 10 16 10 8 0 12 -4 9 -10z m-55 -104 c0 -8 -12 -46 -26 -85 -24
-64 -64 -121 -85 -121 -25 0 5 80 56 151 19 27 35 54 35 59 0 6 5 10 10 10 6
0 10 -6 10 -14z m630 -986 c0 -5 -7 -10 -16 -10 -8 0 -12 5 -9 10 3 6 10 10
16 10 5 0 9 -4 9 -10z m880 -665 c7 -9 10 -18 7 -21 -7 -8 -47 14 -47 26 0 15
26 12 40 -5z"/>
<path d="M1986 133 c-4 -32 -9 -75 -13 -95 l-6 -38 87 0 86 0 0 45 c0 42 -3
46 -62 95 -35 27 -68 50 -74 50 -6 0 -14 -25 -18 -57z"/>
</g>
</svg>
