<?xml version="1.0" standalone="no"?>
<!DOCTYPE svg PUBLIC "-//W3C//DTD SVG 20010904//EN"
 "http://www.w3.org/TR/2001/REC-SVG-20010904/DTD/svg10.dtd">
<svg version="1.0" xmlns="http://www.w3.org/2000/svg"
 width="480.000000pt" height="360.000000pt" viewBox="0 0 480.000000 360.000000"
 preserveAspectRatio="xMidYMid meet">
<metadata>
Created by potrace 1.16, written by Peter Selinger 2001-2019
</metadata>
<rect width="1" height="360" fill="#000000"/>
<rect x="479" width="1" height="360" fill="#000000"/>
<rect width="480" height="1" fill="#000000"/>
<rect y="359" width="480" height="1" fill="#000000"/>
<g transform="translate(0.000000,360.000000) scale(0.100000,-0.100000)"
fill="#000000" stroke="none">
<path d="M1708 3577 c-41 -35 -51 -83 -45 -226 6 -174 19 -206 167 -411 37
-51 41 -63 54 -164 l14 -109 -25 -38 c-27 -41 -33 -90 -13 -114 47 -56 396
-157 595 -171 73 -6 83 -4 108 16 26 20 28 27 26 84 -1 55 2 66 35 116 32 48
40 54 66 52 25 -3 31 1 44 32 12 30 22 37 68 50 29 8 98 20 153 26 182 21 344
86 415 168 43 48 80 135 80 185 -1 45 -41 118 -80 145 -43 29 -120 30 -175 2
-22 -11 -40 -20 -41 -20 -1 0 -7 14 -14 30 -46 111 -349 265 -689 349 -76 19
-113 21 -400 21 -313 0 -316 0 -343 -23z m1638 -441 c39 -39 42 -63 13 -126
-48 -106 -152 -167 -357 -209 -85 -18 -88 -14 -31 37 45 40 120 139 131 173 2
6 16 3 35 -8 31 -17 33 -17 47 2 20 26 20 31 -5 54 l-22 20 27 35 c25 33 65
53 110 55 10 1 33 -14 52 -33z"/>
</g>
</svg>
