<?xml version="1.0" standalone="no"?>
<!DOCTYPE svg PUBLIC "-//W3C//DTD SVG 20010904//EN"
 "http://www.w3.org/TR/2001/REC-SVG-20010904/DTD/svg10.dtd">
<svg version="1.0" xmlns="http://www.w3.org/2000/svg"
 width="480.000000pt" height="360.000000pt" viewBox="0 0 480.000000 360.000000"
 preserveAspectRatio="xMidYMid meet">
<metadata>
Created by potrace 1.16, written by Peter Selinger 2001-2019
</metadata>
<rect width="1" height="360" fill="#000000"/>
<rect x="479" width="1" height="360" fill="#000000"/>
<rect width="480" height="1" fill="#000000"/>
<rect y="359" width="480" height="1" fill="#000000"/>
<g transform="translate(0.000000,360.000000) scale(0.100000,-0.100000)"
fill="#000000" stroke="none">
<path d="M1601 3543 c19 -148 -6 -440 -45 -528 -7 -16 -19 -47 -26 -68 -34
-107 -143 -300 -213 -377 -20 -23 -42 -51 -48 -62 -6 -11 -13 -18 -15 -15 -3
3 -28 -19 -56 -49 -27 -29 -91 -81 -142 -115 -110 -76 -313 -174 -378 -183
-27 -4 -48 -11 -48 -15 0 -4 -48 -14 -107 -22 -172 -23 -391 -15 -505 17 -17
5 -18 -50 -18 -1060 l0 -1066 1414 0 1415 0 6 23 c3 12 11 32 17 44 9 18 7 31
-7 62 l-17 39 44 74 c25 40 62 104 83 142 21 38 78 130 126 204 95 144 175
294 233 434 36 87 36 88 27 173 -6 46 -15 93 -21 104 -13 26 -13 31 4 31 16 0
29 52 15 61 -5 3 -7 13 -3 22 7 19 -11 23 -20 5 -4 -9 -5 -8 -5 2 2 34 -1 63
-7 57 -4 -3 -10 -27 -15 -54 -14 -75 -32 -80 -23 -6 4 40 0 103 -11 180 -16
117 -16 121 4 189 24 83 51 259 51 340 0 63 16 126 47 190 11 22 32 82 47 134
47 159 58 182 103 215 36 26 41 34 37 58 -5 24 -1 29 28 41 57 24 282 49 387
44 107 -6 143 -18 160 -55 25 -54 11 -89 -61 -154 -50 -45 -51 -46 -40 -79 17
-47 14 -89 -8 -139 -23 -50 -90 -129 -90 -106 0 21 -18 19 -32 -5 -7 -11 -18
-20 -25 -20 -7 0 -13 -5 -13 -10 0 -6 -11 -15 -25 -20 -25 -9 -60 -74 -49 -91
3 -5 17 -9 31 -9 38 0 105 -43 136 -87 15 -21 38 -70 51 -108 13 -39 38 -99
55 -135 37 -77 38 -87 10 -116 l-21 -23 21 -13 c27 -17 26 -22 -4 -36 -25 -11
-26 -16 -24 -87 2 -89 -13 -118 -71 -141 -22 -9 -40 -18 -40 -21 0 -2 18 -36
40 -74 74 -125 94 -197 140 -489 26 -165 50 -288 90 -461 26 -111 60 -294 60
-321 0 -5 124 -8 275 -8 l275 0 0 1800 0 1800 -1603 0 -1603 0 7 -57z"/>
<path d="M3747 2164 c-4 -4 -7 -14 -7 -23 0 -11 3 -12 11 -4 6 6 10 16 7 23
-2 6 -7 8 -11 4z"/>
</g>
</svg>
