<?xml version="1.0" standalone="no"?>
<!DOCTYPE svg PUBLIC "-//W3C//DTD SVG 20010904//EN"
 "http://www.w3.org/TR/2001/REC-SVG-20010904/DTD/svg10.dtd">
<svg version="1.0" xmlns="http://www.w3.org/2000/svg"
 width="480.000000pt" height="360.000000pt" viewBox="0 0 480.000000 360.000000"
 preserveAspectRatio="xMidYMid meet">
<metadata>
Created by potrace 1.16, written by Peter Selinger 2001-2019
</metadata>
<rect width="1" height="360" fill="#000000"/>
<rect x="479" width="1" height="360" fill="#000000"/>
<rect width="480" height="1" fill="#000000"/>
<rect y="359" width="480" height="1" fill="#000000"/>
<g transform="translate(0.000000,360.000000) scale(0.100000,-0.100000)"
fill="#000000" stroke="none">
<path d="M2040 3569 c5 -17 23 -112 40 -212 17 -100 38 -209 45 -242 29 -121
55 -278 55 -327 0 -59 -25 -175 -51 -236 -11 -24 -58 -85 -111 -140 -72 -76
-104 -119 -142 -192 -27 -52 -87 -156 -134 -230 -117 -185 -123 -198 -133
-298 -30 -285 -40 -353 -70 -446 -25 -80 -29 -104 -20 -123 12 -26 7 -56 -20
-119 -21 -51 -44 -74 -132 -130 -65 -43 -77 -64 -36 -64 22 0 106 38 115 51 3
5 10 9 17 9 6 0 -23 -35 -66 -78 -43 -43 -74 -81 -71 -85 20 -20 59 -3 129 58
41 36 75 63 75 60 0 -10 -32 -57 -92 -137 -32 -43 -58 -80 -58 -83 0 -3 10 -5
22 -5 33 0 84 45 141 123 43 59 53 68 55 50 2 -12 -6 -55 -17 -96 -25 -88 -26
-116 -5 -124 27 -10 41 18 74 147 18 69 37 133 42 143 9 18 11 18 29 1 15 -14
21 -14 34 -4 19 16 19 28 -1 87 -24 70 -8 116 46 132 26 8 44 20 50 34 5 12
13 85 20 162 6 77 25 214 44 304 l33 164 54 65 c148 178 193 242 240 342 27
58 56 116 63 130 19 34 99 95 171 129 68 33 131 50 121 32 -4 -6 3 -15 18 -21
24 -9 46 -37 46 -59 0 -6 -12 -11 -27 -11 l-28 0 33 -21 c46 -30 39 -55 -28
-102 l-55 -38 -1 -74 c0 -61 -5 -86 -29 -135 -16 -33 -35 -60 -42 -60 -7 0
-18 -12 -23 -26 -6 -15 -19 -39 -30 -55 -27 -37 -70 -152 -70 -186 0 -15 -7
-34 -15 -43 -9 -10 -15 -30 -15 -46 0 -16 1 -46 2 -66 1 -21 -5 -46 -13 -55
-8 -10 -16 -42 -18 -70 -2 -47 0 -56 27 -83 19 -18 25 -30 16 -30 -24 0 -17
-48 10 -65 16 -11 22 -22 19 -35 -3 -11 0 -20 5 -20 6 0 21 -11 34 -24 50 -53
60 -49 220 94 141 125 149 131 182 125 40 -8 96 14 202 80 l70 44 119 -40
c236 -78 394 -74 586 16 75 36 154 95 194 148 50 66 62 138 46 275 -20 168
-24 292 -12 357 6 33 31 102 56 152 26 55 39 93 32 93 -47 0 -183 -130 -264
-252 -69 -103 -109 -143 -163 -158 -29 -8 -35 -6 -73 33 -23 23 -70 66 -105
96 -34 29 -65 63 -67 75 -3 12 14 74 40 146 76 208 142 509 123 561 -14 37
-39 59 -68 59 -14 0 -32 6 -38 12 -14 14 -133 12 -142 -2 -3 -5 -19 -8 -35 -7
-23 2 -32 -4 -42 -25 -9 -18 -19 -25 -29 -21 -19 7 -15 19 48 153 92 196 146
335 161 413 l14 77 -718 0 -718 0 9 -31z"/>
<path d="M4610 1800 l0 -1800 95 0 95 0 0 1800 0 1800 -95 0 -95 0 0 -1800z"/>
</g>
</svg>
