<?xml version="1.0" standalone="no"?>
<!DOCTYPE svg PUBLIC "-//W3C//DTD SVG 20010904//EN"
 "http://www.w3.org/TR/2001/REC-SVG-20010904/DTD/svg10.dtd">
<svg version="1.0" xmlns="http://www.w3.org/2000/svg"
 width="480.000000pt" height="360.000000pt" viewBox="0 0 480.000000 360.000000"
 preserveAspectRatio="xMidYMid meet">
<metadata>
Created by potrace 1.16, written by Peter Selinger 2001-2019
</metadata>
<rect width="1" height="360" fill="#000000"/>
<rect x="479" width="1" height="360" fill="#000000"/>
<rect width="480" height="1" fill="#000000"/>
<rect y="359" width="480" height="1" fill="#000000"/>
<g transform="translate(0.000000,360.000000) scale(0.100000,-0.100000)"
fill="#000000" stroke="none">
<path d="M0 1800 l0 -1800 2400 0 2400 0 0 1800 0 1800 -2400 0 -2400 0 0
-1800z m2395 940 c3 -5 26 -18 51 -29 36 -16 49 -29 65 -65 11 -25 24 -48 29
-51 4 -3 12 -20 16 -38 3 -17 20 -72 36 -122 42 -130 93 -364 133 -605 8 -47
20 -174 27 -283 11 -175 10 -212 -5 -330 -40 -310 -46 -331 -95 -345 -35 -11
-150 -26 -287 -39 -79 -7 -93 6 -140 127 -112 285 -149 500 -148 850 1 212 22
433 54 570 24 100 38 140 86 236 31 63 40 74 91 102 62 33 78 37 87 22z"/>
</g>
</svg>
