<?xml version="1.0" standalone="no"?>
<!DOCTYPE svg PUBLIC "-//W3C//DTD SVG 20010904//EN"
 "http://www.w3.org/TR/2001/REC-SVG-20010904/DTD/svg10.dtd">
<svg version="1.0" xmlns="http://www.w3.org/2000/svg"
 width="480.000000pt" height="360.000000pt" viewBox="0 0 480.000000 360.000000"
 preserveAspectRatio="xMidYMid meet">
<metadata>
Created by potrace 1.16, written by Peter Selinger 2001-2019
</metadata>
<rect width="1" height="360" fill="#000000"/>
<rect x="479" width="1" height="360" fill="#000000"/>
<rect width="480" height="1" fill="#000000"/>
<rect y="359" width="480" height="1" fill="#000000"/>
<g transform="translate(0.000000,360.000000) scale(0.100000,-0.100000)"
fill="#000000" stroke="none">
<path d="M0 3130 l0 -470 54 0 c89 0 96 -32 25 -121 -29 -37 -29 -38 -10 -48
39 -21 543 -132 731 -161 109 -17 276 -8 395 20 283 68 744 -1 1206 -179 117
-46 395 -180 538 -261 87 -49 96 -52 105 -36 6 10 32 48 59 84 26 37 47 71 47
75 0 5 19 31 41 59 37 44 41 52 30 74 -19 41 -14 132 9 164 19 26 19 30 4 74
-20 59 -13 91 26 104 33 12 64 72 57 110 -7 37 11 111 45 184 17 37 29 71 26
73 -3 3 -32 12 -64 21 -70 18 -83 28 -68 52 13 20 49 29 127 31 52 1 62 5 88
32 16 18 46 66 66 107 43 90 88 159 111 171 34 17 131 22 236 11 59 -6 166
-15 238 -20 157 -11 219 -29 246 -71 l18 -30 64 70 c60 66 102 97 119 86 5 -2
11 -27 14 -54 7 -58 44 -136 81 -170 14 -14 26 -34 26 -46 0 -22 -23 -36 -103
-65 -35 -12 -42 -31 -31 -83 7 -33 14 -43 34 -47 50 -10 95 -33 113 -56 18
-24 18 -24 -8 -34 -15 -6 -68 -10 -119 -10 -52 0 -108 -3 -125 -6 -29 -6 -31
-8 -25 -45 8 -48 -19 -171 -49 -224 -13 -24 -31 -41 -44 -43 -26 -4 -73 -46
-73 -66 0 -8 29 -24 74 -41 83 -30 115 -58 145 -126 18 -39 19 -54 11 -103
-15 -93 -58 -147 -141 -176 l-36 -13 46 -35 c73 -55 110 -94 133 -138 20 -41
20 -43 3 -99 -12 -37 -15 -59 -8 -63 5 -4 16 -19 24 -34 8 -14 41 -73 74 -130
128 -222 152 -321 103 -418 -27 -53 -37 -57 -237 -89 -74 -11 -136 -23 -138
-25 -2 -2 -9 -26 -16 -52 l-12 -49 46 -70 c133 -201 242 -447 299 -673 l14
-52 78 0 78 0 0 1800 0 1800 -2400 0 -2400 0 0 -470z"/>
<path d="M1269 2145 c-48 -8 -113 -25 -145 -38 -138 -57 -207 -71 -354 -72
l-105 0 -18 -55 c-49 -149 -87 -382 -156 -940 -46 -372 -36 -691 29 -954 11
-43 20 -80 20 -82 0 -2 470 -4 1045 -4 l1045 0 20 32 c39 63 118 234 179 386
91 227 112 265 256 459 36 48 64 92 62 97 -4 12 -51 13 -152 1 -67 -7 -72 -6
-102 19 -30 26 -73 102 -73 131 0 8 28 79 61 157 115 266 129 302 124 318 -3
9 -33 32 -68 52 -343 197 -627 322 -952 417 -91 27 -266 62 -375 76 -147 18
-225 18 -341 0z"/>
<path d="M4053 1421 c-12 -50 -53 -134 -83 -167 -16 -19 -30 -39 -30 -44 0
-22 291 -9 367 15 8 3 -12 39 -53 97 l-66 93 -64 16 -64 17 -7 -27z"/>
<path d="M3906 805 c53 -145 98 -292 119 -390 36 -167 75 -327 90 -372 l13
-38 165 -3 165 -2 -32 102 c-35 110 -70 196 -118 293 -38 75 -184 295 -235
354 -35 39 -41 43 -60 32 -35 -18 -66 -13 -91 17 -18 20 -22 22 -16 7z"/>
<path d="M1 138 l-1 -138 55 0 c30 0 55 2 55 4 0 2 -14 34 -31 72 -18 38 -42
98 -55 134 l-23 65 0 -137z"/>
</g>
</svg>
