<?xml version="1.0" standalone="no"?>
<!DOCTYPE svg PUBLIC "-//W3C//DTD SVG 20010904//EN"
 "http://www.w3.org/TR/2001/REC-SVG-20010904/DTD/svg10.dtd">
<svg version="1.0" xmlns="http://www.w3.org/2000/svg"
 width="480.000000pt" height="360.000000pt" viewBox="0 0 480.000000 360.000000"
 preserveAspectRatio="xMidYMid meet">
<metadata>
Created by potrace 1.16, written by Peter Selinger 2001-2019
</metadata>
<rect width="1" height="360" fill="#000000"/>
<rect x="479" width="1" height="360" fill="#000000"/>
<rect width="480" height="1" fill="#000000"/>
<rect y="359" width="480" height="1" fill="#000000"/>
<g transform="translate(0.000000,360.000000) scale(0.100000,-0.100000)"
fill="#000000" stroke="none">
<path d="M1455 3290 c-4 -6 -16 -8 -27 -4 -14 4 -32 -4 -58 -25 -21 -17 -44
-31 -50 -31 -6 0 -18 -16 -26 -36 -14 -33 -16 -35 -28 -19 -18 25 -23 13 -41
-94 -12 -66 -25 -106 -46 -139 -33 -52 -36 -67 -14 -76 12 -4 14 -10 5 -25
-12 -24 -13 -64 -1 -56 11 6 16 -10 27 -75 3 -25 17 -78 31 -119 l24 -74 -35
-116 c-33 -110 -56 -213 -56 -253 0 -11 5 -15 15 -12 9 4 18 -1 22 -13 15 -36
57 -103 65 -103 4 0 3 12 -3 27 -14 38 -27 153 -17 153 4 0 8 -8 8 -17 0 -21
46 -123 55 -123 3 0 3 16 -1 35 -3 19 -2 35 3 35 5 0 27 -18 48 -40 38 -39 63
-53 50 -27 -4 6 9 -6 28 -28 35 -40 37 -60 8 -82 -14 -10 -14 -15 1 -45 10
-18 25 -45 35 -60 15 -24 15 -30 3 -53 -8 -15 -29 -33 -47 -40 -70 -30 -233
-217 -233 -268 0 -10 -25 -45 -56 -78 -69 -75 -87 -116 -87 -196 1 -90 50
-162 123 -178 50 -11 70 -51 70 -143 0 -122 -19 -282 -39 -328 -10 -22 -32
-60 -50 -84 -17 -24 -31 -49 -31 -56 0 -8 -15 -31 -34 -52 -39 -43 -42 -56
-32 -132 6 -47 3 -67 -23 -142 -17 -47 -31 -89 -31 -92 0 -3 260 -6 578 -6
l578 0 33 74 c50 113 185 336 189 310 2 -12 -6 -86 -17 -166 -11 -79 -18 -160
-14 -181 l6 -37 203 0 c112 0 204 3 204 6 0 3 -16 25 -35 48 -31 39 -35 49
-40 124 -2 45 -1 82 4 82 5 0 28 -32 52 -72 39 -63 44 -80 44 -130 l0 -58 304
0 304 0 -7 37 c-3 21 -11 124 -16 228 -18 357 -23 378 -119 498 l-48 62 -7
128 c-7 121 -7 128 11 125 15 -2 19 5 21 46 2 26 -2 62 -7 79 -12 34 -7 47 11
29 7 -7 18 -12 25 -12 10 0 7 8 -7 28 -18 24 -19 32 -9 62 22 64 49 81 49 31
0 -16 6 -33 13 -39 9 -8 12 9 14 81 2 50 7 95 12 100 7 7 42 5 103 -6 122 -22
347 -47 423 -47 40 0 68 6 84 16 22 16 23 22 19 97 -5 81 -5 81 -48 119 -42
38 -205 122 -372 193 -48 20 -92 43 -98 50 -11 13 -32 353 -23 368 2 4 14 7
27 7 26 0 70 43 85 83 43 113 -37 259 -143 263 -23 1 -62 12 -86 24 -46 23
-217 70 -257 70 -13 0 -52 10 -86 22 -73 25 -136 20 -189 -15 -47 -32 -80 -96
-79 -155 1 -26 2 -62 2 -80 0 -18 -5 -40 -11 -47 -6 -8 -47 -92 -89 -187 l-78
-173 -151 -3 c-84 -1 -152 1 -152 6 0 5 15 26 34 48 l34 39 -3 -45 -2 -44 41
47 c47 54 59 59 50 20 -13 -54 17 -7 47 74 30 79 34 69 14 -37 -10 -52 7 -22
56 105 35 92 42 122 43 185 1 78 2 77 -82 247 -14 29 -53 88 -87 130 -43 54
-64 90 -68 117 -7 45 -46 109 -81 132 -14 8 -58 28 -98 43 -40 15 -91 39 -114
53 -124 79 -298 84 -466 13 -15 -6 -18 -2 -18 19 0 25 -30 66 -49 66 -6 0 -13
-5 -16 -10z m-148 -207 c-21 -22 -32 -11 -17 17 9 16 15 19 23 11 8 -8 7 -16
-6 -28z m913 -932 c-5 -11 -10 -29 -10 -40 0 -24 -4 -27 -58 -36 l-44 -7 23
26 c12 14 30 26 40 26 9 0 24 11 33 25 19 29 31 34 16 6z m-732 -137 c-4 -3
-12 5 -18 18 -12 22 -12 22 6 6 10 -10 15 -20 12 -24z m970 -339 c6 -5 -10
-55 -17 -55 -7 0 -17 18 -39 63 -3 7 47 -1 56 -8z m772 -551 c0 -8 -4 -12 -10
-9 -5 3 -10 10 -10 16 0 5 5 9 10 9 6 0 10 -7 10 -16z m-1139 -204 c27 -28 49
-52 49 -54 0 -5 -106 -192 -177 -314 -31 -51 -57 -91 -60 -88 -11 11 22 159
69 311 28 88 53 168 55 178 3 9 8 17 10 17 3 0 27 -23 54 -50z"/>
</g>
</svg>
