<?xml version="1.0" standalone="no"?>
<!DOCTYPE svg PUBLIC "-//W3C//DTD SVG 20010904//EN"
 "http://www.w3.org/TR/2001/REC-SVG-20010904/DTD/svg10.dtd">
<svg version="1.0" xmlns="http://www.w3.org/2000/svg"
 width="480.000000pt" height="360.000000pt" viewBox="0 0 480.000000 360.000000"
 preserveAspectRatio="xMidYMid meet">
<metadata>
Created by potrace 1.16, written by Peter Selinger 2001-2019
</metadata>
<rect width="1" height="360" fill="#000000"/>
<rect x="479" width="1" height="360" fill="#000000"/>
<rect width="480" height="1" fill="#000000"/>
<rect y="359" width="480" height="1" fill="#000000"/>
<g transform="translate(0.000000,360.000000) scale(0.100000,-0.100000)"
fill="#000000" stroke="none">
<path d="M0 2178 l1 -1423 32 60 c35 64 62 84 117 85 21 1 46 10 61 23 23 19
27 32 31 87 3 36 0 72 -6 82 -18 30 8 66 69 92 48 22 55 28 55 53 0 16 -5 34
-12 41 -9 9 -4 23 18 58 30 49 46 57 53 27 2 -10 10 -23 19 -29 14 -10 13 -13
-1 -35 -36 -50 -8 -111 60 -129 35 -10 43 -17 43 -36 0 -12 -5 -26 -10 -29 -6
-3 -10 -42 -10 -86 0 -77 1 -80 27 -90 15 -6 30 -15 34 -20 3 -6 31 -13 62
-16 l56 -6 36 -84 c39 -95 40 -100 23 -105 -10 -4 -14 -47 -16 -162 -2 -100 0
-156 6 -152 6 3 41 56 78 116 67 107 70 110 85 91 30 -37 149 -248 149 -264 0
-9 10 -19 23 -21 22 -5 741 -26 865 -26 l62 0 106 -97 106 -96 -4 274 -3 274
63 98 c35 53 68 97 73 97 9 0 68 -85 112 -160 l26 -46 -6 -312 -6 -312 1161 0
1162 0 0 1800 0 1800 -2400 0 -2400 0 0 -1422z m3239 847 c33 -16 56 -65 47
-97 -6 -25 29 -145 49 -166 6 -7 66 -23 131 -34 65 -11 125 -25 132 -31 29
-23 1 -66 -78 -118 l-25 -17 28 -13 c35 -16 34 -29 -3 -29 -22 0 -28 -4 -24
-15 5 -12 -2 -15 -32 -15 l-39 -1 28 -24 c26 -23 27 -25 7 -25 -11 0 -27 -6
-35 -12 -11 -11 -10 -17 8 -37 l22 -24 -22 12 c-12 6 -31 11 -42 11 -22 0 -28
-20 -34 -125 l-3 -60 106 52 c58 29 118 56 134 59 l29 7 -6 -54 c-4 -30 -18
-75 -31 -100 l-24 -47 210 2 209 1 -25 -21 c-13 -12 -31 -24 -38 -27 -19 -7
17 -33 75 -52 42 -15 64 -35 37 -35 -5 0 -10 -6 -10 -14 0 -10 25 -20 79 -33
44 -9 78 -20 75 -24 -2 -3 -21 -9 -43 -13 -58 -9 -59 -24 -5 -48 44 -19 83
-52 84 -71 0 -4 -9 -3 -21 3 -11 7 -23 9 -26 7 -2 -3 -18 -1 -35 4 -17 4 -34
6 -39 4 -12 -8 20 -62 54 -91 l32 -27 -27 7 c-32 7 -35 0 -11 -26 22 -24 11
-33 -26 -20 -46 16 -45 1 1 -27 38 -23 40 -26 21 -29 -38 -6 -26 -18 47 -46
39 -15 70 -30 70 -33 0 -3 -19 -3 -42 1 -36 6 -40 5 -28 -9 17 -21 2 -19 -60
5 -67 26 -72 25 -52 -10 12 -22 29 -34 60 -42 65 -16 66 -33 1 -24 -94 13 -94
13 -92 -11 4 -30 -6 -29 -40 6 -16 16 -39 29 -52 29 -35 0 -31 -6 20 -28 25
-11 45 -25 45 -32 0 -7 9 -19 21 -26 43 -27 8 -24 -45 4 -30 16 -57 26 -61 23
-3 -3 6 -27 21 -52 28 -52 21 -61 -17 -21 -27 29 -98 84 -109 84 -13 0 -19
-84 -8 -98 9 -10 8 -12 -2 -10 -7 2 -17 -11 -24 -29 -18 -51 -29 -52 -23 -3 5
39 5 42 -5 20 l-12 -25 -4 30 c-4 35 -28 65 -51 65 -9 0 -41 16 -71 35 -30 19
-60 35 -66 35 -8 0 -10 -21 -7 -67 5 -65 4 -69 -25 -97 -26 -24 -36 -28 -66
-22 -48 9 -62 33 -84 150 -17 84 -23 101 -48 122 -31 25 -71 40 -81 30 -3 -3
-23 -61 -43 -128 -39 -131 -53 -150 -94 -129 -33 18 -56 69 -56 125 0 40 -3
47 -30 61 -18 9 -32 26 -36 43 -10 47 -12 48 -13 8 l-1 -39 -22 19 c-29 25
-86 64 -93 64 -3 0 -5 -10 -5 -23 0 -32 -9 -38 -32 -26 -14 8 -19 18 -15 36 3
17 -3 32 -20 49 -18 18 -23 33 -21 57 3 28 7 32 42 38 36 6 56 21 56 45 0 20
82 104 120 124 31 16 40 28 57 80 17 53 19 68 8 102 -6 23 -20 47 -30 55 -14
10 -18 23 -16 53 2 33 -1 40 -15 40 -10 0 -32 -14 -49 -30 -35 -34 -55 -32
-75 6 -12 21 -11 28 9 54 12 17 25 53 28 81 5 43 12 55 43 80 l38 30 -6 67
c-3 37 -11 77 -19 88 -14 23 -12 22 -145 8 -49 -5 -58 -4 -58 9 0 9 -10 23
-22 32 l-23 16 25 19 c14 10 48 29 75 42 28 12 52 24 54 25 3 2 -5 10 -17 19
-36 25 -25 35 18 18 37 -15 41 -15 69 5 16 12 33 21 39 21 5 0 24 35 43 78 45
103 110 172 163 172 20 0 50 -7 65 -15z"/>
<path d="M2953 1740 c-31 -18 -45 -50 -23 -50 11 0 60 51 60 62 0 11 -1 11
-37 -12z"/>
</g>
</svg>
