<?xml version="1.0" standalone="no"?>
<!DOCTYPE svg PUBLIC "-//W3C//DTD SVG 20010904//EN"
 "http://www.w3.org/TR/2001/REC-SVG-20010904/DTD/svg10.dtd">
<svg version="1.0" xmlns="http://www.w3.org/2000/svg"
 width="480.000000pt" height="360.000000pt" viewBox="0 0 480.000000 360.000000"
 preserveAspectRatio="xMidYMid meet">
<metadata>
Created by potrace 1.16, written by Peter Selinger 2001-2019
</metadata>
<rect width="1" height="360" fill="#000000"/>
<rect x="479" width="1" height="360" fill="#000000"/>
<rect width="480" height="1" fill="#000000"/>
<rect y="359" width="480" height="1" fill="#000000"/>
<g transform="translate(0.000000,360.000000) scale(0.100000,-0.100000)"
fill="#000000" stroke="none">
<path d="M1598 3553 c12 -80 5 -302 -12 -400 -18 -99 -96 -322 -127 -362 -11
-13 -19 -28 -19 -33 0 -17 -102 -160 -164 -231 -55 -62 -109 -110 -229 -204
-100 -78 -360 -185 -514 -213 -119 -21 -418 -12 -511 16 l-22 6 0 -1066 0
-1066 1303 0 1303 0 28 163 c21 124 44 210 96 367 68 204 89 294 163 698 31
171 33 186 20 240 -7 31 -16 78 -19 105 -5 45 -8 49 -51 69 -90 42 -107 122
-48 232 28 52 32 66 19 66 -9 0 -70 -18 -135 -40 -66 -22 -126 -40 -134 -40
-14 0 -24 16 -39 64 -6 17 -8 17 -31 2 -31 -21 -32 -20 -39 8 -5 22 -12 24
-98 31 -91 7 -306 61 -417 104 -28 12 -62 21 -74 21 -12 0 -44 14 -72 30 -53
31 -93 37 -127 19 -25 -13 -35 -5 -18 16 11 13 8 15 -24 15 -36 0 -49 16 -21
26 20 8 9 24 -16 24 -10 0 -19 3 -19 6 0 13 44 44 62 44 51 0 179 -35 239 -66
56 -28 96 -38 231 -59 90 -14 181 -32 203 -40 29 -10 52 -12 85 -5 25 5 48 9
53 10 4 0 7 8 7 18 0 29 10 33 41 17 27 -14 28 -14 41 13 17 34 44 38 111 15
39 -13 83 -18 174 -18 67 0 125 3 129 7 4 5 -1 17 -11 29 -17 17 -17 22 -5 29
8 6 18 10 23 10 4 0 7 6 7 14 0 11 -8 13 -32 9 -30 -4 -36 -1 -65 41 -18 26
-33 49 -33 53 0 4 -8 15 -17 25 -15 17 -15 20 5 39 21 19 29 41 15 37 -39 -8
-93 40 -93 83 0 14 -5 19 -13 16 -28 -11 9 97 50 144 11 14 10 24 -13 74 -15
32 -29 77 -32 100 -4 37 -1 44 16 49 25 8 294 -77 312 -99 6 -7 34 -19 62 -25
65 -13 107 -39 156 -95 47 -54 70 -121 83 -245 7 -60 21 -124 40 -172 24 -64
29 -92 29 -165 l0 -88 70 -63 c54 -49 70 -70 70 -91 0 -15 -5 -32 -10 -37 -7
-7 -5 -21 6 -43 14 -28 14 -35 2 -47 -12 -12 -9 -25 25 -92 38 -77 39 -82 62
-304 12 -123 27 -233 33 -244 5 -10 13 -54 17 -97 5 -53 13 -85 27 -102 17
-22 18 -26 3 -31 -9 -4 -24 1 -35 11 -26 23 -25 11 1 -32 12 -19 18 -37 15
-41 -12 -11 -40 13 -64 54 -21 37 -22 37 -16 9 4 -16 15 -47 26 -68 14 -28 15
-37 5 -37 -7 0 -19 6 -25 12 -10 10 -15 10 -21 -1 -5 -7 -14 -10 -20 -7 -6 4
-11 3 -11 -3 0 -15 79 -198 152 -351 67 -139 100 -222 139 -347 l23 -73 458 0
458 0 0 1800 0 1800 -1605 0 -1605 0 8 -47z"/>
<path d="M3437 1531 c-4 -18 -7 -53 -7 -77 0 -23 -5 -55 -10 -69 -7 -18 -7
-33 1 -46 5 -11 13 -52 16 -92 4 -68 36 -192 53 -211 5 -4 11 27 16 70 6 64 2
104 -16 204 -13 69 -29 154 -35 190 -11 61 -12 63 -18 31z"/>
</g>
</svg>
