<?xml version="1.0" standalone="no"?>
<!DOCTYPE svg PUBLIC "-//W3C//DTD SVG 20010904//EN"
 "http://www.w3.org/TR/2001/REC-SVG-20010904/DTD/svg10.dtd">
<svg version="1.0" xmlns="http://www.w3.org/2000/svg"
 width="480.000000pt" height="360.000000pt" viewBox="0 0 480.000000 360.000000"
 preserveAspectRatio="xMidYMid meet">
<metadata>
Created by potrace 1.16, written by Peter Selinger 2001-2019
</metadata>
<rect width="1" height="360" fill="#000000"/>
<rect x="479" width="1" height="360" fill="#000000"/>
<rect width="480" height="1" fill="#000000"/>
<rect y="359" width="480" height="1" fill="#000000"/>
<g transform="translate(0.000000,360.000000) scale(0.100000,-0.100000)"
fill="#000000" stroke="none">
<path d="M3505 3563 c-4 -21 -5 -115 -4 -209 4 -193 1 -202 -68 -225 -57 -19
-150 -75 -182 -111 -17 -18 -40 -56 -52 -85 -19 -48 -25 -53 -70 -68 -39 -13
-49 -21 -49 -39 0 -31 19 -46 57 -46 29 0 33 -3 39 -37 4 -21 11 -46 16 -55 9
-19 43 -24 53 -8 11 19 57 10 113 -21 134 -73 143 -80 137 -103 -6 -20 -5 -20
8 -3 17 20 40 15 75 -16 16 -15 22 -32 22 -60 0 -38 1 -39 18 -24 17 16 20 15
50 -16 18 -18 32 -40 32 -49 0 -28 -38 -82 -80 -112 -22 -17 -40 -33 -40 -38
0 -7 78 -2 109 8 19 6 9 -195 -13 -255 -9 -24 -15 -46 -13 -48 2 -1 23 26 47
61 27 40 49 62 57 59 7 -3 19 0 27 6 21 18 26 2 27 -83 l1 -81 21 60 22 60 5
-40 6 -40 14 38 c15 38 25 46 33 25 4 -10 6 -10 6 0 2 21 19 13 24 -10 3 -21
5 -19 17 11 11 28 14 31 22 17 5 -9 15 -16 23 -16 8 0 19 -9 25 -20 12 -22 35
-28 27 -7 -6 18 11 47 28 47 8 0 15 8 15 18 1 13 6 10 25 -13 14 -16 25 -35
25 -41 0 -19 42 -25 55 -7 16 22 46 4 70 -41 19 -35 19 -36 -1 -63 -18 -25
-43 -34 -205 -76 -211 -54 -320 -102 -389 -169 -32 -31 -68 -53 -120 -73 -115
-43 -168 -73 -220 -121 -59 -55 -80 -97 -80 -158 0 -31 -4 -46 -13 -46 -14 0
-142 129 -263 264 -60 69 -104 105 -184 157 -133 86 -150 101 -150 138 0 32
-14 41 -64 41 -18 0 -37 5 -44 12 -16 16 -60 -26 -125 -122 -72 -106 -137
-190 -148 -190 -5 0 -9 6 -9 14 0 30 -80 173 -104 185 -47 26 -126 -21 -126
-74 0 -11 14 -49 31 -85 17 -36 39 -98 50 -139 l19 -75 -27 -28 c-33 -35 -41
-35 -45 0 -4 35 -62 65 -132 66 -71 1 -71 22 -2 75 60 45 79 71 70 95 -11 28
-57 50 -105 49 -45 -1 -47 1 -57 36 -6 20 -24 52 -40 71 -27 32 -31 34 -54 22
-35 -19 -87 -110 -104 -184 -9 -34 -19 -103 -24 -152 -8 -77 -6 -97 10 -144
15 -43 17 -63 10 -96 -51 -236 -51 -245 11 -382 29 -65 67 -133 83 -152 48
-55 222 -134 416 -188 52 -14 111 -37 130 -49 19 -13 92 -40 162 -59 204 -57
396 -138 476 -200 43 -33 56 -51 69 -93 l17 -53 898 0 898 0 0 1800 0 1800
-644 0 -644 0 -7 -37z"/>
</g>
</svg>
