<?xml version="1.0" standalone="no"?>
<!DOCTYPE svg PUBLIC "-//W3C//DTD SVG 20010904//EN"
 "http://www.w3.org/TR/2001/REC-SVG-20010904/DTD/svg10.dtd">
<svg version="1.0" xmlns="http://www.w3.org/2000/svg"
 width="480.000000pt" height="360.000000pt" viewBox="0 0 480.000000 360.000000"
 preserveAspectRatio="xMidYMid meet">
<metadata>
Created by potrace 1.16, written by Peter Selinger 2001-2019
</metadata>
<rect width="1" height="360" fill="#000000"/>
<rect x="479" width="1" height="360" fill="#000000"/>
<rect width="480" height="1" fill="#000000"/>
<rect y="359" width="480" height="1" fill="#000000"/>
<g transform="translate(0.000000,360.000000) scale(0.100000,-0.100000)"
fill="#000000" stroke="none">
<path d="M0 2635 c0 -531 2 -965 5 -965 13 0 162 134 238 216 49 52 99 97 112
100 14 3 44 -5 81 -24 33 -16 111 -51 174 -76 63 -26 189 -87 280 -136 185
-99 263 -129 360 -137 68 -6 183 12 285 44 48 14 56 14 138 -6 48 -12 92 -19
97 -16 6 4 47 58 91 121 98 138 127 164 244 220 118 57 131 70 115 120 -10 30
-10 38 1 45 8 5 20 7 27 4 27 -10 11 35 -18 50 -29 15 -31 15 -40 -10 -6 -15
-10 -31 -10 -36 0 -5 -4 -9 -10 -9 -5 0 -10 15 -11 33 0 17 -4 41 -9 52 -8 19
-9 19 -9 -2 -1 -25 -17 -39 -24 -21 -2 7 -7 -12 -12 -42 -4 -30 -10 -46 -12
-35 -9 46 -15 51 -26 25 -10 -24 -11 -24 -14 -3 -7 35 -31 36 -38 2 -9 -41
-18 -29 -20 29 -2 26 -8 61 -15 77 -11 27 -13 28 -20 10 -7 -17 -11 -12 -30
33 -13 28 -26 52 -30 52 -4 0 -13 -12 -21 -27 -14 -27 -14 -27 -17 30 -2 31
-5 57 -8 57 -2 0 -20 -7 -39 -14 -19 -8 -35 -12 -35 -8 0 4 18 30 40 57 39 49
50 75 30 75 -5 0 -10 7 -10 15 0 8 -5 15 -10 15 -6 0 -13 -7 -16 -15 -10 -25
-36 -17 -95 28 -123 93 -120 89 -91 120 9 10 17 31 17 45 0 23 5 27 36 32 40
7 73 30 115 79 26 32 27 34 14 86 -17 70 -7 171 25 272 43 134 120 213 245
250 82 25 511 26 591 1 116 -36 218 -134 259 -247 l22 -60 28 21 c19 14 38 19
55 16 15 -3 49 3 76 13 96 37 152 16 182 -69 19 -52 21 -86 16 -247 -2 -67 2
-100 14 -129 18 -40 10 -66 -19 -66 -24 0 -25 -19 -5 -87 20 -69 54 -219 65
-283 5 -31 4 -33 -8 -17 -12 15 -14 9 -19 -50 -7 -101 -54 -228 -100 -276 -21
-22 -36 -46 -33 -53 3 -8 1 -14 -4 -14 -6 0 -10 11 -10 25 0 14 -4 25 -10 25
-5 0 -10 -4 -10 -10 0 -5 -6 -10 -14 -10 -10 0 -17 17 -21 58 -10 89 -13 90
-31 17 -6 -26 -9 -21 -20 43 -7 41 -22 102 -33 135 -18 53 -40 175 -41 227 0
12 -11 14 -50 12 -27 -2 -50 -7 -50 -10 1 -9 19 -93 26 -114 9 -30 -11 -20
-39 19 l-26 36 -17 -43 c-16 -39 -19 -41 -30 -25 -12 16 -14 13 -25 -29 -11
-46 -23 -57 -32 -33 -3 6 -6 -1 -7 -18 l-2 -30 -11 28 c-6 15 -14 27 -18 27
-4 0 -15 -31 -24 -70 -19 -78 -29 -91 -23 -30 5 53 -7 51 -18 -2 l-8 -43 -6
60 c-6 59 -6 60 -18 30 -10 -21 -15 -26 -21 -16 -7 11 -11 9 -19 -5 -10 -17
-12 -16 -18 13 -6 29 -8 31 -35 21 -35 -12 -43 -54 -9 -43 27 8 35 -15 21 -56
-8 -23 -8 -36 0 -45 6 -7 56 -35 112 -63 56 -27 113 -61 127 -74 14 -13 67
-79 118 -146 69 -89 100 -121 116 -121 12 0 54 9 95 20 l73 21 101 -26 c129
-32 265 -34 358 -5 35 11 143 63 239 115 96 52 225 116 285 141 61 25 136 59
167 75 32 16 67 29 79 29 13 0 66 -43 142 -116 67 -64 148 -136 180 -161 l57
-44 0 955 0 956 -2400 0 -2400 0 0 -965z"/>
<path d="M2966 2653 c-34 -92 -37 -104 -26 -142 11 -42 50 -79 70 -66 12 7 13
259 1 289 -6 14 -16 -5 -45 -81z"/>
<path d="M2322 2241 c34 -14 123 -10 153 6 10 6 -21 9 -85 9 -96 -1 -100 -2
-68 -15z"/>
<path d="M2041 2240 c1 -8 5 -26 9 -40 l8 -25 1 25 c0 14 -4 32 -9 40 -9 13
-10 13 -9 0z"/>
<path d="M4297 1834 c-100 -51 -107 -56 -103 -80 3 -14 11 -31 19 -38 18 -15
67 -128 67 -155 0 -24 -103 -442 -120 -486 -8 -20 -14 -25 -21 -18 -6 6 -39
123 -74 259 l-63 249 24 60 c13 33 33 72 45 88 17 24 18 28 4 33 -20 8 -150
-55 -229 -111 -72 -51 -88 -85 -52 -109 23 -14 76 -132 76 -167 0 -32 -99
-482 -109 -492 -16 -16 -30 22 -96 261 l-67 242 27 68 c15 37 32 73 37 80 6 7
8 16 4 20 -4 3 -70 8 -147 10 -123 4 -139 2 -145 -13 -4 -10 1 -21 14 -30 11
-8 34 -45 51 -81 25 -54 30 -75 26 -108 -31 -215 -75 -479 -80 -485 -14 -13
-35 37 -110 264 l-78 235 18 68 c10 39 28 78 43 94 21 23 23 30 12 43 -13 16
-83 19 -155 7 -38 -7 -40 -9 -37 -42 2 -25 -3 -42 -18 -57 -19 -21 -20 -25 -5
-53 9 -16 20 -30 25 -30 6 0 10 -7 10 -15 0 -14 -13 -29 -53 -57 -16 -12 -16
-18 8 -113 14 -55 28 -133 32 -173 6 -69 8 -74 37 -89 36 -18 119 -75 271
-188 218 -161 194 -148 269 -137 55 9 79 8 146 -9 93 -22 135 -41 150 -68 7
-15 6 -23 -6 -35 -19 -20 -18 -20 -56 0 -38 20 -57 7 -41 -29 7 -15 46 -40
114 -74 129 -64 172 -75 268 -71 65 3 76 1 79 -14 5 -23 -80 -65 -180 -89 -65
-16 -90 -17 -158 -8 -101 12 -110 16 -239 93 -58 35 -140 76 -181 91 -73 28
-154 72 -375 203 -223 133 -280 187 -315 302 l-17 55 -8 -70 c-6 -49 -3 -101
8 -175 10 -65 12 -109 6 -114 -15 -16 -11 -34 35 -130 61 -130 110 -256 137
-359 l24 -87 877 0 878 0 0 533 0 532 -25 97 -25 98 25 56 c19 43 25 74 25
128 l0 72 -62 44 c-35 24 -83 62 -107 85 -31 28 -39 32 -28 15 9 -14 27 -55
41 -91 l24 -65 -50 -180 c-84 -300 -89 -315 -101 -311 -17 5 -31 52 -86 292
l-49 210 30 72 c17 42 39 78 54 87 13 9 24 26 24 38 0 12 7 29 15 38 13 14 10
22 -30 70 -24 29 -50 57 -57 61 -7 4 -59 -16 -121 -47z"/>
<path d="M321 1800 c-50 -59 -50 -61 -32 -79 11 -11 17 -28 15 -39 -4 -12 3
-24 19 -35 23 -15 77 -132 77 -166 0 -25 -131 -496 -141 -506 -18 -18 -29 12
-74 210 -79 345 -76 295 -29 386 l41 78 -41 -37 c-23 -21 -67 -57 -99 -81
l-57 -43 0 -79 c0 -54 6 -95 20 -132 20 -52 20 -55 3 -98 -16 -40 -18 -98 -21
-611 l-3 -568 879 0 879 0 23 88 c26 102 73 225 126 337 32 66 39 92 40 145 1
36 4 121 8 190 6 120 5 124 -10 90 l-16 -34 -16 22 c-17 22 -17 22 -41 -29
-35 -77 -85 -120 -311 -270 -257 -170 -347 -222 -435 -253 -38 -13 -115 -42
-170 -65 -55 -23 -117 -46 -138 -51 -96 -21 -298 40 -385 116 -33 29 -35 33
-18 40 10 4 45 2 77 -4 72 -13 144 -3 275 39 90 29 124 52 124 87 0 9 -12 11
-49 6 -40 -5 -49 -3 -55 11 -9 24 19 53 63 65 62 17 181 12 230 -10 54 -25 39
-33 251 140 139 113 288 228 334 255 11 7 19 34 26 92 6 46 22 121 35 168 14
47 25 89 25 94 0 5 -16 18 -35 30 -42 25 -44 44 -7 76 27 24 27 24 10 55 -10
18 -18 46 -18 65 0 28 -4 33 -31 39 -58 11 -136 7 -149 -9 -10 -12 -8 -20 13
-44 13 -16 32 -59 42 -94 17 -64 17 -66 -5 -139 -47 -157 -131 -414 -139 -427
-16 -26 -29 22 -71 276 l-41 243 27 62 c15 35 38 73 51 86 16 14 23 29 19 39
-6 14 -23 15 -139 10 -72 -3 -140 -8 -150 -12 -16 -7 -16 -9 -3 -24 8 -9 26
-47 40 -85 l24 -69 -65 -226 c-36 -124 -68 -235 -71 -246 -6 -24 -21 -45 -32
-45 -10 0 -20 44 -60 260 -17 91 -35 185 -39 209 -5 23 -5 55 -1 70 17 57 59
139 75 145 11 4 15 15 13 33 -2 22 -20 39 -88 85 -144 97 -255 125 -201 51 11
-15 30 -54 41 -86 l22 -58 -67 -242 c-70 -253 -80 -281 -95 -272 -14 9 -25 56
-101 419 l-21 99 28 65 c15 36 35 73 45 83 9 9 19 27 22 41 6 24 0 28 -99 77
-58 28 -110 51 -114 51 -5 0 -32 -27 -59 -60z"/>
</g>
</svg>
