<?xml version="1.0" standalone="no"?>
<!DOCTYPE svg PUBLIC "-//W3C//DTD SVG 20010904//EN"
 "http://www.w3.org/TR/2001/REC-SVG-20010904/DTD/svg10.dtd">
<svg version="1.0" xmlns="http://www.w3.org/2000/svg"
 width="480.000000pt" height="360.000000pt" viewBox="0 0 480.000000 360.000000"
 preserveAspectRatio="xMidYMid meet">
<metadata>
Created by potrace 1.16, written by Peter Selinger 2001-2019
</metadata>
<rect width="1" height="360" fill="#000000"/>
<rect x="479" width="1" height="360" fill="#000000"/>
<rect width="480" height="1" fill="#000000"/>
<rect y="359" width="480" height="1" fill="#000000"/>
<g transform="translate(0.000000,360.000000) scale(0.100000,-0.100000)"
fill="#000000" stroke="none">
<path d="M3944 3412 c-98 -65 -137 -96 -266 -214 -49 -44 -112 -97 -140 -118
-29 -21 -72 -61 -95 -88 -27 -31 -100 -89 -192 -151 -82 -55 -177 -125 -212
-155 -50 -42 -67 -52 -81 -45 -14 8 -16 18 -11 59 5 45 3 51 -23 78 -24 23
-36 28 -62 24 -37 -5 -51 -20 -31 -33 11 -6 10 -14 -4 -44 l-17 -35 -92 6
c-81 5 -102 3 -158 -16 -36 -13 -70 -26 -75 -31 -6 -4 -39 -19 -75 -33 -58
-23 -61 -25 -25 -20 l40 5 -23 -18 c-13 -10 -40 -33 -60 -52 -29 -26 -31 -30
-10 -17 39 23 42 20 14 -16 -27 -37 -46 -95 -47 -148 l0 -35 -13 41 c-26 83
-120 190 -195 221 -64 28 -104 33 -173 22 -62 -10 -70 -9 -97 10 -16 12 -35
38 -42 59 -54 165 -188 283 -380 332 -90 24 -143 25 -220 5 -92 -24 -137 -52
-219 -134 -112 -114 -172 -247 -187 -417 -12 -147 38 -277 145 -375 120 -110
329 -166 467 -124 27 8 50 13 51 12 5 -5 -101 -113 -141 -144 -36 -29 -39 -34
-27 -53 11 -19 8 -26 -33 -73 -48 -55 -55 -90 -20 -95 14 -2 31 10 53 37 30
37 34 39 62 29 56 -19 60 -71 9 -99 l-21 -11 21 -19 c12 -11 21 -26 21 -33 0
-7 10 -18 23 -23 22 -10 24 -19 34 -155 7 -81 19 -163 28 -189 9 -24 21 -69
25 -99 6 -36 16 -61 29 -72 29 -23 30 -106 1 -131 -17 -14 -20 -29 -20 -96 0
-93 5 -110 36 -122 21 -7 24 -15 24 -58 0 -40 -4 -53 -22 -66 -21 -14 -23 -23
-21 -93 1 -88 13 -128 41 -136 15 -5 21 -20 27 -62 6 -50 4 -58 -14 -71 -32
-22 -25 -133 9 -133 15 0 16 7 12 52 -4 47 -3 51 10 40 13 -10 19 -10 31 3 9
8 18 15 21 15 2 0 10 -25 17 -55 7 -33 17 -55 26 -55 31 0 2 137 -32 150 -38
15 -48 105 -14 134 20 17 21 25 16 105 -6 77 -9 88 -33 107 -36 30 -47 108
-17 129 43 30 40 180 -3 220 -32 30 -34 108 -4 127 11 7 20 18 20 25 0 7 21
14 48 18 26 3 103 22 172 42 69 19 135 38 147 40 l22 5 -20 -58 c-31 -88 -34
-169 -10 -364 11 -97 24 -234 27 -306 6 -113 5 -135 -10 -155 -9 -13 -16 -33
-16 -45 0 -12 -13 -38 -30 -59 -16 -21 -30 -44 -30 -51 0 -7 -13 -21 -30 -31
-16 -9 -30 -21 -30 -25 0 -4 207 -8 459 -8 358 0 460 3 464 13 4 9 7 9 18 0
10 -10 105 -13 402 -13 367 0 389 1 382 18 -4 9 -11 31 -15 48 -4 17 -17 49
-28 70 -37 70 -64 135 -59 140 2 3 21 -19 40 -49 20 -29 43 -59 51 -67 18 -14
5 18 -43 109 l-23 43 22 51 c44 100 13 229 -84 357 -92 121 -124 292 -143 755
-4 112 -1 169 16 286 11 80 21 149 21 152 0 20 30 3 39 -23 6 -18 17 -30 27
-30 24 0 64 39 57 56 -3 8 1 14 9 14 21 0 88 94 88 123 0 6 6 18 14 26 16 18
39 77 63 161 24 80 28 221 9 258 -19 37 -73 63 -145 69 -65 6 -105 -9 -176
-62 -35 -27 -53 -35 -71 -31 -13 4 -24 10 -24 14 0 5 71 77 158 162 l157 153
51 1 c40 1 60 7 92 31 23 17 72 46 109 66 47 25 68 41 68 54 0 22 -57 64 -97
72 -37 7 -35 29 5 49 51 26 69 45 56 60 -8 10 -2 26 27 66 50 70 98 130 157
200 26 31 43 59 38 62 -5 3 -49 -20 -97 -52z m-1592 -1130 c-4 -48 -6 -53 -26
-50 -26 4 -35 45 -12 54 9 3 16 10 16 15 0 8 24 40 26 35 0 0 -2 -25 -4 -54z
m-788 -303 c-5 -9 -44 11 -44 23 0 4 11 3 25 -4 13 -6 22 -15 19 -19z m688
-47 c-3 -38 -1 -43 31 -62 l34 -20 -24 -73 c-13 -39 -35 -119 -49 -177 -14
-58 -27 -112 -30 -120 -7 -26 -103 -67 -266 -115 -87 -25 -178 -54 -203 -65
-25 -11 -45 -18 -45 -17 0 1 -9 56 -20 122 l-19 120 25 26 26 27 -20 20 c-20
20 -52 108 -52 142 0 9 4 20 9 25 4 6 14 30 20 55 l12 46 58 -29 c151 -74 353
-30 462 102 19 22 39 39 44 37 6 -1 8 -21 7 -44z m166 -283 c-11 -33 -22 -58
-25 -55 -7 6 29 116 38 116 4 0 -2 -27 -13 -61z m-888 -625 c0 -8 -4 -14 -10
-14 -5 0 -10 9 -10 21 0 11 5 17 10 14 6 -3 10 -13 10 -21z m50 -14 c0 -5 -4
-10 -10 -10 -5 0 -10 5 -10 10 0 6 5 10 10 10 6 0 10 -4 10 -10z m1240 -162
c0 -5 7 -35 16 -65 17 -60 31 -60 36 0 l3 39 61 -59 c51 -48 71 -78 116 -173
30 -63 63 -136 73 -162 l17 -46 -43 -74 c-67 -113 -89 -140 -105 -127 -21 17
-41 4 -49 -33 -13 -64 -28 -108 -37 -108 -5 0 -21 14 -35 30 -14 17 -45 42
-69 56 -32 19 -44 32 -44 49 0 12 -10 35 -22 50 -18 23 -23 47 -29 134 -13
184 9 322 72 460 21 44 39 58 39 29z m-1261 -51 c26 17 31 6 32 -67 1 -58 -8
-90 -18 -62 -3 6 -11 12 -18 12 -7 0 -15 -6 -18 -12 -7 -22 -17 -4 -23 45 -8
55 3 109 16 86 8 -11 13 -12 29 -2z m20 -350 c10 6 22 9 25 6 3 -4 6 -38 6
-76 0 -61 -2 -68 -15 -57 -12 10 -18 10 -30 0 -21 -18 -25 -11 -32 53 -6 63 2
101 17 77 8 -12 13 -13 29 -3z m1231 -368 c0 -18 -35 -5 -38 14 -3 16 -1 17
17 7 12 -6 21 -15 21 -21z m-848 -14 c-4 -25 -13 -31 -25 -19 -8 8 10 44 22
44 5 0 6 -11 3 -25z"/>
</g>
</svg>
