<?xml version="1.0" standalone="no"?>
<!DOCTYPE svg PUBLIC "-//W3C//DTD SVG 20010904//EN"
 "http://www.w3.org/TR/2001/REC-SVG-20010904/DTD/svg10.dtd">
<svg version="1.0" xmlns="http://www.w3.org/2000/svg"
 width="480.000000pt" height="360.000000pt" viewBox="0 0 480.000000 360.000000"
 preserveAspectRatio="xMidYMid meet">
<metadata>
Created by potrace 1.16, written by Peter Selinger 2001-2019
</metadata>
<rect width="1" height="360" fill="#000000"/>
<rect x="479" width="1" height="360" fill="#000000"/>
<rect width="480" height="1" fill="#000000"/>
<rect y="359" width="480" height="1" fill="#000000"/>
<g transform="translate(0.000000,360.000000) scale(0.100000,-0.100000)"
fill="#000000" stroke="none">
<path d="M0 1800 l0 -1800 385 0 385 0 0 29 c0 15 3 49 6 75 l7 46 -39 16
c-30 13 -56 15 -111 10 -68 -6 -73 -5 -87 16 -8 13 -18 36 -22 51 -11 48 -45
62 -117 50 -51 -9 -65 -8 -79 4 -15 13 -19 13 -39 -1 -45 -31 -62 23 -38 121
9 32 9 47 1 52 -7 4 0 22 19 50 16 24 29 54 29 65 0 34 84 184 133 237 10 11
15 24 12 29 -4 6 1 10 9 10 8 0 14 8 14 18 -1 9 28 67 64 127 82 138 113 200
176 350 89 213 106 284 83 365 -5 20 -10 10 -21 -48 -7 -39 -17 -72 -22 -72
-4 0 -8 59 -8 130 0 74 -4 130 -9 130 -11 0 -16 -16 -26 -75 -3 -22 -14 -62
-24 -90 -10 -27 -22 -72 -26 -100 -4 -27 -13 -57 -20 -65 -7 -8 -18 -31 -25
-51 -11 -31 -11 -40 3 -60 21 -30 23 -122 3 -138 -11 -9 -17 -8 -29 9 -22 31
-44 15 -67 -48 -20 -52 -20 -57 -5 -68 15 -11 15 -13 -1 -22 -16 -9 -16 -14
-6 -37 15 -33 15 -35 -2 -35 -8 0 -16 -6 -19 -12 -9 -25 -27 8 -53 100 l-26
92 46 96 c49 101 61 149 27 104 l-19 -25 -6 25 c-13 62 -15 60 -9 -10 5 -69 4
-74 -11 -60 -23 18 -46 64 -47 92 0 19 -4 15 -20 -17 -10 -22 -19 -51 -19 -65
-1 -22 -2 -23 -13 -8 -12 15 -14 13 -25 -15 -9 -24 -15 -28 -21 -18 -7 11 -9
11 -14 0 -4 -10 -6 -9 -6 4 -1 24 -21 22 -21 -3 0 -28 -20 -25 -22 3 0 12 -4
2 -8 -23 -6 -39 -8 -42 -15 -22 -6 18 -10 20 -16 10 -6 -10 -11 -9 -23 7 -9
11 -16 29 -17 40 -1 16 -2 16 -8 -5 -10 -35 -35 121 -27 166 4 18 11 98 15
177 10 164 23 204 125 382 31 55 76 138 98 184 39 77 42 90 42 165 0 49 -7
106 -18 144 -14 48 -18 82 -13 145 2 45 6 89 8 97 4 16 -2 16 -74 4 -48 -8
-87 15 -87 53 0 14 16 48 36 76 31 43 34 53 25 74 -12 25 -12 26 -151 79 -90
34 -128 54 -103 54 20 0 178 -31 260 -51 l81 -20 48 31 c58 37 102 39 132 7
26 -28 28 -49 6 -83 -9 -13 -15 -27 -12 -29 3 -3 27 4 53 16 41 18 61 21 119
16 85 -7 151 -28 151 -49 0 -8 6 -22 13 -31 7 -8 14 -40 15 -71 2 -51 4 -56
25 -56 17 0 22 -6 22 -28 0 -15 4 -32 9 -37 5 -6 12 -31 16 -56 6 -42 4 -48
-19 -66 -31 -25 -33 -53 -6 -78 11 -10 22 -26 25 -36 3 -10 36 -38 73 -63 44
-29 73 -57 84 -79 9 -19 44 -58 79 -88 127 -110 129 -113 129 -162 0 -25 -9
-64 -20 -88 -36 -81 -22 -301 31 -484 68 -230 195 -625 250 -773 33 -89 50
-200 55 -359 l5 -153 -26 -10 c-14 -5 -37 -10 -50 -10 -18 0 -35 -15 -64 -54
-47 -63 -63 -68 -172 -56 -42 5 -90 5 -105 1 -28 -7 -29 -11 -38 -85 -5 -42
-6 -79 -4 -81 3 -3 440 -4 972 -3 l968 3 -24 26 c-13 14 -51 34 -85 45 l-61
19 -21 60 c-26 74 -61 211 -61 238 0 26 -180 390 -219 445 -17 22 -39 43 -50
47 -10 3 -26 24 -35 45 -9 22 -20 40 -25 40 -6 0 -31 27 -56 60 -27 35 -57 63
-71 66 -14 4 -48 26 -77 50 -28 24 -56 44 -63 44 -10 0 -54 78 -54 97 0 14
-144 151 -176 166 -53 27 -121 111 -129 159 -4 24 -18 67 -32 96 -15 30 -29
85 -35 130 -13 104 -34 217 -65 337 -22 87 -24 112 -18 195 3 52 13 119 20
150 10 41 13 119 10 315 -10 633 -10 602 19 684 14 41 26 76 26 78 0 2 -414 3
-920 3 l-920 0 0 -1800z"/>
<path d="M922 1820 c0 -14 2 -19 5 -12 2 6 2 18 0 25 -3 6 -5 1 -5 -13z"/>
<path d="M4755 979 l-38 -41 32 -72 c19 -42 31 -88 31 -113 0 -23 5 -45 10
-48 7 -4 10 50 10 154 0 89 -2 161 -3 161 -2 0 -21 -18 -42 -41z"/>
<path d="M971 111 c-17 -5 -28 -18 -37 -51 -8 -25 -14 -48 -14 -52 0 -5 27 -8
60 -8 l60 0 0 38 c0 78 -11 90 -69 73z"/>
</g>
</svg>
