<?xml version="1.0" standalone="no"?>
<!DOCTYPE svg PUBLIC "-//W3C//DTD SVG 20010904//EN"
 "http://www.w3.org/TR/2001/REC-SVG-20010904/DTD/svg10.dtd">
<svg version="1.0" xmlns="http://www.w3.org/2000/svg"
 width="480.000000pt" height="360.000000pt" viewBox="0 0 480.000000 360.000000"
 preserveAspectRatio="xMidYMid meet">
<metadata>
Created by potrace 1.16, written by Peter Selinger 2001-2019
</metadata>
<rect width="1" height="360" fill="#000000"/>
<rect x="479" width="1" height="360" fill="#000000"/>
<rect width="480" height="1" fill="#000000"/>
<rect y="359" width="480" height="1" fill="#000000"/>
<g transform="translate(0.000000,360.000000) scale(0.100000,-0.100000)"
fill="#000000" stroke="none">
<path d="M0 1800 l0 -1800 1114 0 1114 0 4 62 c1 33 -2 73 -8 88 -15 34 -56
67 -95 75 -36 8 -49 31 -49 84 0 33 -6 44 -36 69 -20 17 -34 35 -30 40 3 5 -1
27 -10 48 -27 63 -3 124 155 403 66 117 131 243 131 255 0 2 -8 3 -17 2 -12
-1 -20 10 -27 36 -8 32 -5 42 21 85 17 26 43 76 58 111 l28 63 -30 27 c-17 17
-34 46 -41 72 -12 47 -28 78 -36 70 -2 -3 -5 -21 -7 -40 -2 -19 -5 -39 -7 -44
-7 -12 -22 16 -22 42 0 12 -4 22 -10 22 -5 0 -10 -5 -10 -12 0 -9 -3 -9 -12 0
-9 9 -8 30 5 89 20 93 22 150 3 88 -9 -32 -13 -36 -19 -22 -14 37 -6 124 22
232 30 118 61 186 151 335 32 52 72 136 90 185 18 50 51 126 73 169 28 55 37
81 29 84 -7 2 -26 15 -43 29 -38 33 -23 45 43 37 46 -6 49 -5 105 45 31 28 64
51 73 51 9 0 21 5 27 11 9 9 19 6 42 -10 38 -27 106 -52 117 -42 5 4 27 18 49
30 l40 23 -37 -35 c-40 -36 -46 -47 -25 -47 28 -1 57 -39 63 -84 4 -26 11 -49
15 -52 5 -3 9 -16 9 -29 0 -18 11 -32 39 -49 22 -14 43 -30 46 -37 12 -18 -17
-29 -59 -22 -28 4 -37 3 -32 -5 10 -16 -34 -61 -70 -71 -23 -6 -29 -13 -29
-36 0 -19 -7 -30 -21 -36 -25 -9 -54 -46 -54 -70 0 -17 46 -52 121 -93 52 -28
99 -78 99 -106 0 -19 4 -28 64 -146 20 -39 36 -81 36 -93 0 -25 -25 -75 -69
-141 -17 -25 -31 -53 -31 -64 0 -10 -18 -52 -41 -93 l-41 -74 40 -92 c22 -51
53 -132 69 -182 17 -49 40 -119 52 -155 57 -170 67 -210 52 -219 -8 -5 -3 -26
17 -72 16 -35 42 -100 57 -144 15 -44 42 -112 60 -152 33 -70 32 -93 -1 -93
-22 0 -25 -18 -10 -55 15 -35 15 -35 -10 -35 -14 0 -24 -6 -24 -14 0 -31 -27
-39 -77 -22 -65 22 -78 21 -129 -16 l-44 -31 0 -82 c0 -61 4 -86 15 -95 8 -7
15 -21 15 -31 0 -18 26 -19 875 -19 l875 0 0 1800 0 1800 -2400 0 -2400 0 0
-1800z"/>
<path d="M2900 1927 c0 -30 -3 -88 -6 -130 -6 -68 -5 -77 10 -77 12 0 30 27
56 86 22 47 40 87 40 88 0 2 -22 22 -50 45 l-50 42 0 -54z"/>
<path d="M2477 1821 c-9 -33 -17 -72 -17 -85 0 -25 25 -42 36 -25 11 18 16
123 7 147 -8 21 -11 17 -26 -37z"/>
<path d="M3126 995 c-3 -10 -2 -23 4 -29 15 -15 24 1 13 26 -9 20 -10 20 -17
3z"/>
<path d="M2782 195 c-24 -14 -58 -35 -75 -47 -28 -20 -42 -23 -122 -21 -144 4
-152 1 -170 -59 -8 -28 -15 -55 -15 -60 0 -4 99 -8 220 -8 l220 0 0 25 c0 14
5 25 11 25 8 0 10 16 5 53 -11 83 -18 117 -25 117 -3 0 -25 -11 -49 -25z"/>
</g>
</svg>
