<?xml version="1.0" standalone="no"?>
<!DOCTYPE svg PUBLIC "-//W3C//DTD SVG 20010904//EN"
 "http://www.w3.org/TR/2001/REC-SVG-20010904/DTD/svg10.dtd">
<svg version="1.0" xmlns="http://www.w3.org/2000/svg"
 width="480.000000pt" height="360.000000pt" viewBox="0 0 480.000000 360.000000"
 preserveAspectRatio="xMidYMid meet">
<metadata>
Created by potrace 1.16, written by Peter Selinger 2001-2019
</metadata>
<rect width="1" height="360" fill="#000000"/>
<rect x="479" width="1" height="360" fill="#000000"/>
<rect width="480" height="1" fill="#000000"/>
<rect y="359" width="480" height="1" fill="#000000"/>
<g transform="translate(0.000000,360.000000) scale(0.100000,-0.100000)"
fill="#000000" stroke="none">
<path d="M1601 3543 c14 -113 9 -247 -15 -386 -13 -76 -28 -143 -35 -150 -6
-6 -11 -19 -11 -29 0 -50 -115 -268 -197 -371 -21 -27 -47 -61 -58 -76 -11
-14 -23 -28 -27 -29 -4 -1 -30 -27 -59 -57 -103 -109 -392 -276 -511 -294 -28
-5 -53 -13 -57 -18 -11 -17 -204 -38 -341 -37 -116 1 -204 11 -272 30 -17 5
-18 -50 -18 -1060 l0 -1066 1342 2 1342 3 22 121 c34 183 49 232 130 432 76
189 115 326 189 676 26 123 33 172 25 181 -6 7 -19 62 -29 121 -10 60 -23 110
-28 111 -5 2 -33 19 -63 39 -50 33 -55 34 -67 18 -7 -9 -14 -22 -16 -28 -3 -7
-12 -4 -25 7 -20 19 -21 18 -54 -6 -49 -37 -94 -57 -125 -57 -15 0 -89 17
-163 36 -74 20 -144 36 -155 36 -115 -5 -178 -29 -144 -56 8 -6 16 -23 17 -38
5 -66 -86 -11 -94 57 -5 33 -1 46 23 77 15 20 42 42 58 48 57 21 186 23 328 5
l137 -17 30 22 c33 23 35 31 20 61 -9 16 -7 19 10 19 12 0 30 5 41 10 16 9 17
14 6 30 -19 32 0 49 98 88 71 28 100 47 142 89 39 38 66 56 98 64 25 6 45 15
45 20 0 4 -33 36 -74 71 -46 39 -71 67 -66 73 5 6 5 17 0 25 -6 8 -10 11 -10
6 0 -5 -8 -2 -19 8 -10 9 -25 14 -35 10 -19 -7 -51 18 -72 58 -17 32 -18 79
-3 132 11 39 10 39 -34 78 -51 43 -87 95 -87 126 0 16 9 23 38 30 43 11 447 8
483 -3 97 -31 198 -150 239 -280 7 -22 27 -63 46 -90 67 -99 94 -229 76 -366
-6 -47 -4 -77 4 -103 7 -20 21 -74 30 -121 14 -73 15 -94 4 -162 -8 -43 -15
-112 -16 -153 -7 -228 -15 -326 -29 -378 l-16 -57 41 -159 c54 -211 81 -290
183 -541 46 -116 97 -247 112 -293 l27 -82 419 0 419 0 0 1800 0 1800 -1603 0
-1603 0 7 -57z"/>
</g>
</svg>
