<?xml version="1.0" standalone="no"?>
<!DOCTYPE svg PUBLIC "-//W3C//DTD SVG 20010904//EN"
 "http://www.w3.org/TR/2001/REC-SVG-20010904/DTD/svg10.dtd">
<svg version="1.0" xmlns="http://www.w3.org/2000/svg"
 width="480.000000pt" height="360.000000pt" viewBox="0 0 480.000000 360.000000"
 preserveAspectRatio="xMidYMid meet">
<metadata>
Created by potrace 1.16, written by Peter Selinger 2001-2019
</metadata>
<rect width="1" height="360" fill="#000000"/>
<rect x="479" width="1" height="360" fill="#000000"/>
<rect width="480" height="1" fill="#000000"/>
<rect y="359" width="480" height="1" fill="#000000"/>
<g transform="translate(0.000000,360.000000) scale(0.100000,-0.100000)"
fill="#000000" stroke="none">
<path d="M343 3418 c84 -101 164 -196 178 -213 26 -29 75 -87 194 -230 242
-289 281 -332 341 -364 22 -12 66 -37 99 -57 100 -58 227 -120 275 -133 25 -7
54 -17 66 -21 12 -5 48 -11 80 -15 74 -8 203 -49 410 -131 422 -166 427 -167
638 -204 132 -22 237 -26 285 -9 46 16 49 5 10 -39 -57 -65 -73 -85 -119 -152
-24 -36 -45 -66 -46 -68 -1 -2 -44 4 -95 14 -64 11 -116 15 -171 11 -49 -4
-87 -2 -103 5 -20 9 -35 6 -87 -17 -34 -15 -95 -33 -135 -38 -40 -6 -73 -14
-73 -18 0 -3 26 -24 58 -46 130 -92 213 -211 198 -285 -9 -46 -62 -97 -108
-105 -53 -8 -47 -19 15 -27 28 -4 135 -25 237 -47 252 -55 419 -84 583 -103
215 -25 454 -116 645 -244 31 -22 131 -73 222 -115 91 -41 233 -106 315 -144
86 -40 229 -118 335 -184 102 -64 191 -119 198 -123 9 -6 12 325 12 1638 l0
1646 -245 0 c-135 0 -245 -2 -245 -5 0 -3 11 -61 24 -128 119 -595 -6 -1170
-337 -1548 -92 -106 -252 -227 -320 -243 -26 -6 -27 -5 -15 16 7 13 16 25 20
28 15 12 59 83 81 133 47 103 44 178 -20 432 -14 55 -29 118 -33 140 -11 55
-24 99 -75 250 -109 325 -206 468 -409 602 -62 41 -394 213 -411 213 -4 0 -58
25 -120 55 l-114 55 -1195 0 -1196 0 153 -182z m2448 -833 c33 -84 35 -100 12
-90 -10 4 -54 17 -98 30 -121 34 -217 77 -203 90 3 3 40 12 83 20 42 7 79 16
83 19 3 4 26 6 51 4 l45 -3 27 -70z"/>
<path d="M1030 1873 c-82 -48 -247 -212 -318 -316 -150 -219 -240 -478 -273
-782 -20 -190 1 -555 40 -690 5 -16 12 -42 15 -57 l6 -28 468 0 467 0 -51 34
c-54 37 -152 138 -188 196 -123 194 -235 505 -276 770 -6 41 -18 102 -25 136
-33 142 -44 240 -36 325 5 46 13 95 19 109 5 14 18 45 28 70 25 61 83 143 151
213 30 31 51 57 46 57 -4 0 -38 -17 -73 -37z"/>
<path d="M1683 1398 c-63 -66 -65 -75 -37 -130 l25 -48 42 24 c58 33 145 50
260 49 53 -1 100 3 103 8 3 5 -4 9 -16 9 -26 0 -197 63 -272 101 -32 16 -59
29 -61 29 -1 0 -21 -19 -44 -42z"/>
<path d="M1854 834 c11 -28 96 -161 111 -174 10 -8 24 -6 56 9 24 11 82 34
129 51 137 51 129 46 100 58 -79 31 -168 49 -344 66 -52 6 -58 5 -52 -10z"/>
<path d="M4721 19 c-94 -12 -95 -17 -3 -18 67 -1 82 2 82 14 0 8 -3 14 -7 14
-5 -1 -37 -5 -72 -10z"/>
</g>
</svg>
