<?xml version="1.0" standalone="no"?>
<!DOCTYPE svg PUBLIC "-//W3C//DTD SVG 20010904//EN"
 "http://www.w3.org/TR/2001/REC-SVG-20010904/DTD/svg10.dtd">
<svg version="1.0" xmlns="http://www.w3.org/2000/svg"
 width="480.000000pt" height="360.000000pt" viewBox="0 0 480.000000 360.000000"
 preserveAspectRatio="xMidYMid meet">
<metadata>
Created by potrace 1.16, written by Peter Selinger 2001-2019
</metadata>
<rect width="1" height="360" fill="#000000"/>
<rect x="479" width="1" height="360" fill="#000000"/>
<rect width="480" height="1" fill="#000000"/>
<rect y="359" width="480" height="1" fill="#000000"/>
<g transform="translate(0.000000,360.000000) scale(0.100000,-0.100000)"
fill="#000000" stroke="none">
<path d="M885 3563 c19 -122 54 -172 170 -248 64 -42 121 -102 179 -190 46
-68 48 -70 124 -96 43 -14 91 -34 108 -44 96 -60 135 -88 148 -107 14 -19 13
-24 -2 -51 -25 -43 -81 -88 -156 -125 l-65 -33 20 -51 c13 -34 17 -54 10 -61
-5 -5 -7 -23 -4 -39 7 -33 -10 -51 -39 -42 -15 4 -18 -1 -18 -28 0 -18 -12
-72 -26 -120 -21 -69 -31 -88 -45 -88 -13 0 -29 -20 -49 -60 -17 -33 -34 -60
-39 -60 -6 0 -35 -25 -65 -56 -49 -48 -56 -60 -56 -94 0 -69 42 -155 125 -258
58 -72 48 -110 -47 -186 -27 -22 -52 -51 -58 -70 -14 -43 -56 -82 -100 -93
-29 -8 -36 -14 -38 -39 -4 -43 -29 -91 -69 -132 -19 -21 -41 -50 -50 -67 -48
-93 -99 -128 -215 -146 -96 -15 -111 -23 -103 -57 17 -77 57 -148 98 -177 23
-16 94 -83 157 -148 63 -65 134 -132 156 -147 23 -16 57 -44 75 -63 154 -154
254 -265 289 -321 l42 -66 1084 0 1083 0 75 99 c131 173 149 210 150 312 1 66
6 84 39 152 21 43 62 103 92 136 58 62 115 159 115 195 0 13 -12 31 -30 45
-17 12 -55 60 -85 106 -30 47 -59 85 -64 85 -12 0 -81 95 -102 142 -10 20 -26
39 -36 42 -23 7 -53 56 -53 86 0 12 16 47 37 78 134 210 127 190 114 284 -6
44 -15 86 -20 92 -4 6 -14 28 -20 48 -14 41 -117 156 -123 137 -8 -23 -30 3
-63 74 -30 64 -37 72 -71 82 -35 9 -39 15 -45 49 -7 45 -26 61 -117 106 -36
18 -74 46 -90 67 -55 72 -60 76 -106 69 -27 -4 -48 -2 -59 6 -25 18 -38 82
-25 120 8 21 7 41 -1 70 -11 36 -10 42 13 73 31 40 32 48 7 40 -11 -3 -22 -2
-25 3 -10 16 20 33 51 30 23 -2 29 1 31 20 4 26 11 25 -89 6 -32 -6 -32 -6
-25 27 16 84 238 468 351 607 53 66 61 72 86 67 21 -5 30 -2 38 14 6 11 11 22
11 25 0 3 -583 6 -1295 6 l-1296 0 6 -37z"/>
</g>
</svg>
