<?xml version="1.0" standalone="no"?>
<!DOCTYPE svg PUBLIC "-//W3C//DTD SVG 20010904//EN"
 "http://www.w3.org/TR/2001/REC-SVG-20010904/DTD/svg10.dtd">
<svg version="1.0" xmlns="http://www.w3.org/2000/svg"
 width="480.000000pt" height="360.000000pt" viewBox="0 0 480.000000 360.000000"
 preserveAspectRatio="xMidYMid meet">
<metadata>
Created by potrace 1.16, written by Peter Selinger 2001-2019
</metadata>
<rect width="1" height="360" fill="#000000"/>
<rect x="479" width="1" height="360" fill="#000000"/>
<rect width="480" height="1" fill="#000000"/>
<rect y="359" width="480" height="1" fill="#000000"/>
<g transform="translate(0.000000,360.000000) scale(0.100000,-0.100000)"
fill="#000000" stroke="none">
<path d="M0 2259 c0 -740 4 -1338 9 -1335 13 8 65 29 76 30 6 1 26 8 45 17 19
8 64 23 100 33 36 10 103 29 150 43 411 122 933 212 1525 263 121 10 228 22
238 25 9 4 17 15 17 24 0 18 21 79 34 99 6 10 -3 23 -28 43 l-35 30 42 82 c24
45 62 111 86 147 95 142 170 305 265 574 25 68 52 138 61 155 19 38 33 226 37
516 3 195 2 200 -17 198 -11 -1 -27 -11 -35 -23 -69 -99 -150 -146 -237 -137
-26 2 -69 0 -96 -5 -40 -8 -54 -7 -92 12 -86 42 -153 170 -142 274 6 59 41
136 82 179 31 32 95 67 127 67 13 1 37 7 53 15 26 11 -136 13 -1117 14 l-1148
1 0 -1341z"/>
<path d="M3277 3228 c-2 -8 -41 -35 -86 -62 -90 -53 -81 -36 -101 -206 -38
-337 -80 -620 -98 -665 -11 -27 -49 -121 -86 -208 -102 -246 -125 -327 -156
-547 -11 -74 -22 -149 -26 -166 l-6 -32 148 -7 c82 -3 187 -11 233 -16 57 -6
89 -5 97 2 7 6 20 34 30 62 9 29 27 70 40 93 l23 41 -29 22 c-16 12 -32 31
-35 44 -8 29 20 112 88 268 67 151 87 226 138 514 21 121 44 243 50 272 10 43
8 78 -10 215 -31 222 -30 221 -100 287 -33 31 -71 66 -84 79 -18 17 -26 20
-30 10z"/>
<path d="M4002 2754 l3 -219 -47 -155 c-94 -309 -128 -495 -128 -715 0 -113
-20 -198 -53 -233 l-25 -27 16 -100 16 -101 143 -46 c79 -26 197 -70 263 -99
67 -28 123 -49 125 -47 2 2 20 58 40 123 20 66 57 170 82 230 l45 110 -11 174
c-7 96 -18 225 -26 286 -15 120 -99 568 -140 751 -24 105 -29 115 -80 177 -69
83 -85 93 -163 102 l-64 7 4 -218z"/>
<path d="M2702 1039 c-21 -23 -30 -24 -145 -25 -67 -1 -163 -3 -214 -5 -76 -3
-94 -1 -110 14 -26 23 -101 22 -351 -3 -629 -64 -1180 -179 -1652 -345 -74
-26 -156 -56 -182 -68 l-48 -21 0 -293 0 -293 2148 0 2149 0 8 143 c10 184 10
175 -9 298 -9 59 -16 151 -16 206 l0 99 -98 42 c-160 67 -358 133 -506 167
-62 14 -71 14 -92 0 -32 -21 -50 -19 -69 8 -16 22 -16 22 -30 3 -8 -11 -15
-23 -15 -28 0 -4 -11 -11 -26 -14 -18 -5 -32 0 -49 16 -23 22 -26 22 -43 7
-10 -10 -25 -17 -34 -17 -22 0 -68 49 -68 72 0 15 -4 18 -17 13 -42 -18 -60
-17 -65 3 -7 25 -39 30 -263 38 -180 6 -180 6 -203 -17z"/>
</g>
</svg>
