<?xml version="1.0" standalone="no"?>
<!DOCTYPE svg PUBLIC "-//W3C//DTD SVG 20010904//EN"
 "http://www.w3.org/TR/2001/REC-SVG-20010904/DTD/svg10.dtd">
<svg version="1.0" xmlns="http://www.w3.org/2000/svg"
 width="480.000000pt" height="360.000000pt" viewBox="0 0 480.000000 360.000000"
 preserveAspectRatio="xMidYMid meet">
<metadata>
Created by potrace 1.16, written by Peter Selinger 2001-2019
</metadata>
<rect width="1" height="360" fill="#000000"/>
<rect x="479" width="1" height="360" fill="#000000"/>
<rect width="480" height="1" fill="#000000"/>
<rect y="359" width="480" height="1" fill="#000000"/>
<g transform="translate(0.000000,360.000000) scale(0.100000,-0.100000)"
fill="#000000" stroke="none">
<path d="M3820 3575 c6 -15 10 -28 10 -30 0 -2 -28 -6 -62 -10 -212 -22 -481
-93 -588 -153 -178 -101 -258 -224 -303 -466 l-12 -68 -46 -3 c-52 -3 -127
-33 -158 -64 -26 -26 -27 -66 -1 -126 11 -26 18 -50 16 -54 -3 -4 -37 -20 -75
-36 l-71 -28 -59 18 c-33 10 -70 15 -83 12 -31 -8 -57 -62 -65 -137 -10 -104
35 -135 134 -90 24 10 45 15 48 10 3 -5 1 -11 -5 -15 -13 -8 -13 -42 -1 -50 6
-3 31 0 57 6 46 12 48 11 69 -15 12 -14 27 -43 34 -64 8 -20 20 -45 29 -54 17
-20 47 -24 57 -8 5 8 11 8 19 1 7 -6 15 -9 18 -6 2 2 13 -38 23 -90 17 -87 17
-110 6 -277 -20 -302 -46 -465 -121 -738 -35 -128 -102 -335 -112 -345 -2 -2
-53 -9 -113 -15 -60 -6 -111 -13 -115 -15 -14 -9 -15 -8 -256 302 -52 67 -108
135 -124 152 -29 28 -29 31 -20 82 15 79 12 119 -15 215 -38 131 -77 209 -114
228 -17 9 -35 25 -41 36 -5 10 -42 56 -81 102 -40 46 -93 108 -119 138 -26 30
-71 84 -101 119 -30 35 -71 73 -92 85 l-38 21 -19 -22 c-10 -13 -23 -23 -28
-23 -5 0 -14 -6 -20 -13 -15 -17 25 -78 135 -208 70 -84 153 -200 153 -214 0
-3 -19 -5 -42 -5 -58 0 -119 -36 -130 -75 -4 -16 -20 -38 -35 -49 -30 -20 -91
-94 -110 -135 -18 -39 -16 -142 3 -170 14 -20 22 -22 55 -17 37 6 39 4 58 -32
22 -43 110 -185 156 -250 17 -24 89 -117 161 -207 72 -90 178 -231 237 -313
l106 -149 -18 -59 c-10 -32 -28 -92 -39 -131 l-20 -73 1424 0 1424 0 0 178 c0
162 -2 189 -32 321 l-32 145 32 225 32 226 0 997 0 996 -38 49 c-135 169 -343
303 -571 367 -69 20 -75 24 -86 56 l-12 35 -141 3 -142 3 10 -26z m-657 -2136
c25 -36 71 -89 102 -117 l57 -52 -7 -67 c-10 -113 -12 -117 -58 -142 l-43 -23
-34 31 c-19 17 -38 31 -41 31 -4 0 -21 -12 -38 -26 l-31 -26 0 29 c0 15 7 109
15 208 8 99 15 193 15 210 0 33 1 33 63 -56z"/>
</g>
</svg>
