<?xml version="1.0" standalone="no"?>
<!DOCTYPE svg PUBLIC "-//W3C//DTD SVG 20010904//EN"
 "http://www.w3.org/TR/2001/REC-SVG-20010904/DTD/svg10.dtd">
<svg version="1.0" xmlns="http://www.w3.org/2000/svg"
 width="480.000000pt" height="360.000000pt" viewBox="0 0 480.000000 360.000000"
 preserveAspectRatio="xMidYMid meet">
<metadata>
Created by potrace 1.16, written by Peter Selinger 2001-2019
</metadata>
<rect width="1" height="360" fill="#000000"/>
<rect x="479" width="1" height="360" fill="#000000"/>
<rect width="480" height="1" fill="#000000"/>
<rect y="359" width="480" height="1" fill="#000000"/>
<g transform="translate(0.000000,360.000000) scale(0.100000,-0.100000)"
fill="#000000" stroke="none">
<path d="M1838 3523 c-9 -2 -23 -23 -31 -46 -11 -34 -19 -43 -48 -50 -19 -5
-36 -10 -37 -12 -2 -2 6 -16 17 -32 21 -28 21 -29 3 -83 -16 -46 -29 -64 -83
-107 -35 -29 -84 -62 -109 -74 -25 -12 -50 -29 -57 -39 -13 -18 -89 -25 -108
-10 -20 16 -65 -2 -80 -31 -23 -44 -18 -71 24 -122 50 -60 77 -137 62 -175
-18 -45 -33 -125 -32 -166 1 -29 9 -48 35 -76 19 -21 36 -36 39 -34 3 3 18
-12 35 -32 20 -24 34 -55 40 -93 18 -98 45 -166 66 -166 11 0 23 -11 29 -25 8
-20 11 -22 14 -7 3 9 8 17 12 17 11 0 51 -31 51 -40 0 -5 -24 -22 -53 -39 -29
-16 -63 -41 -76 -55 -14 -14 -29 -26 -36 -26 -6 0 -36 -16 -68 -36 -51 -32
-56 -38 -51 -62 4 -15 10 -32 15 -37 19 -25 13 -92 -14 -139 -15 -27 -27 -59
-27 -71 0 -12 -6 -38 -14 -56 -7 -19 -17 -61 -21 -94 -4 -33 -17 -87 -30 -120
-13 -33 -26 -71 -29 -85 -3 -14 -9 -30 -13 -36 -16 -22 -207 -144 -291 -186
-81 -40 -132 -78 -132 -98 0 -4 -19 -18 -42 -30 -52 -27 -179 -38 -255 -22
-41 9 -63 8 -109 -4 -32 -8 -66 -22 -76 -31 -16 -14 -27 -14 -95 -3 -97 16
-113 24 -113 56 0 37 -42 74 -84 74 -19 0 -41 3 -50 6 -14 6 -16 -29 -16 -348
l0 -353 188 -64 c103 -36 284 -97 402 -137 118 -40 246 -84 284 -98 l68 -26
877 0 876 0 112 36 c193 62 267 125 294 252 18 86 17 298 -1 317 -32 31 -261
45 -430 25 -47 -6 -157 -21 -245 -34 -87 -14 -163 -22 -167 -20 -4 3 -26 43
-49 91 -29 59 -62 106 -106 152 -34 36 -63 68 -63 71 0 3 34 22 76 43 71 35
77 41 100 93 32 72 40 190 25 358 -10 109 -10 131 2 145 42 47 57 113 38 164
-6 16 -4 42 7 81 13 49 14 64 3 99 -7 23 -16 69 -20 102 l-6 60 -105 0 c-93 0
-105 2 -108 18 -2 10 -1 25 2 34 6 14 8 14 21 -3 12 -16 14 -16 15 -3 0 9 9
24 21 35 17 16 22 16 30 4 8 -11 12 -12 15 -3 3 7 11 10 18 7 8 -3 16 2 19 10
8 19 44 21 50 4 2 -7 23 24 46 70 54 108 61 172 32 294 -11 49 -37 123 -57
167 -35 77 -35 79 -19 111 9 18 35 52 56 75 24 26 36 46 29 50 -5 3 -10 3 -11
-2 -1 -4 -4 3 -8 17 -6 21 -12 24 -43 22 -29 -3 -36 0 -41 19 -3 12 -4 36 -1
53 l6 31 -24 -25 c-13 -14 -28 -25 -35 -25 -10 0 -53 47 -53 59 0 2 -25 29
-56 58 -131 123 -154 149 -154 170 0 20 3 19 35 -12 19 -19 37 -41 40 -51 3
-9 19 -19 35 -21 29 -4 31 -3 50 60 11 35 20 70 20 77 0 18 -47 54 -79 62 -14
3 -33 11 -41 18 -8 7 -27 15 -42 19 -22 5 -28 14 -35 48 -9 43 -20 51 -55 41z
m-447 -2572 c-9 -15 -6 -22 12 -35 22 -15 22 -16 3 -31 -11 -8 -30 -15 -42
-15 -33 0 -54 -10 -54 -26 0 -23 -45 -34 -138 -34 l-87 0 60 58 c33 31 103 85
155 120 l95 62 3 -40 c2 -21 -2 -48 -7 -59z"/>
<path d="M4690 2996 c0 -9 -18 -16 -55 -21 -30 -3 -76 -18 -103 -33 -43 -24
-64 -43 -133 -125 -14 -16 -40 -32 -59 -36 -31 -6 -35 -11 -41 -45 -4 -23 -15
-46 -28 -55 -19 -15 -20 -18 -6 -38 11 -16 12 -22 2 -26 -7 -3 10 -27 46 -63
40 -40 56 -63 51 -73 -15 -36 -16 -66 -4 -137 l12 -75 -36 -71 c-56 -109 -115
-191 -150 -208 -24 -12 -31 -22 -32 -46 -1 -17 -4 -36 -8 -42 -12 -20 13 -91
45 -126 21 -25 43 -37 77 -45 25 -5 50 -7 54 -5 19 12 6 -25 -17 -46 -34 -32
-51 -91 -75 -255 -11 -77 -25 -155 -30 -173 -10 -37 -4 -62 14 -62 6 0 24 -12
39 -26 23 -20 27 -28 17 -39 -6 -8 -10 -25 -8 -38 1 -13 -9 -48 -24 -78 -52
-102 -70 -224 -93 -609 -8 -135 -15 -280 -15 -322 l0 -78 335 0 335 0 0 1495
c0 822 -4 1495 -8 1495 -4 0 -12 -4 -17 -9 -14 -13 -65 -1 -65 15 0 8 -4 14
-10 14 -5 0 -10 -6 -10 -14z"/>
</g>
</svg>
