<?xml version="1.0" standalone="no"?>
<!DOCTYPE svg PUBLIC "-//W3C//DTD SVG 20010904//EN"
 "http://www.w3.org/TR/2001/REC-SVG-20010904/DTD/svg10.dtd">
<svg version="1.0" xmlns="http://www.w3.org/2000/svg"
 width="480.000000pt" height="360.000000pt" viewBox="0 0 480.000000 360.000000"
 preserveAspectRatio="xMidYMid meet">
<metadata>
Created by potrace 1.16, written by Peter Selinger 2001-2019
</metadata>
<rect width="1" height="360" fill="#000000"/>
<rect x="479" width="1" height="360" fill="#000000"/>
<rect width="480" height="1" fill="#000000"/>
<rect y="359" width="480" height="1" fill="#000000"/>
<g transform="translate(0.000000,360.000000) scale(0.100000,-0.100000)"
fill="#000000" stroke="none">
<path d="M1923 3509 c-130 -22 -221 -80 -242 -154 -23 -82 -7 -274 31 -370 14
-38 67 -113 128 -185 62 -71 68 -85 84 -177 14 -76 13 -79 -10 -120 -28 -48
-30 -73 -9 -113 53 -102 556 -202 684 -135 36 18 41 32 41 106 0 73 46 174 85
189 15 6 25 17 25 29 0 25 129 92 232 120 185 50 335 148 387 252 56 112 54
174 -8 239 -35 37 -42 40 -93 40 -38 0 -69 -7 -102 -24 l-48 -24 -36 40 c-113
125 -397 239 -705 283 -110 16 -360 18 -444 4z m1374 -373 c22 -19 28 -32 27
-63 -2 -48 -43 -132 -82 -165 -30 -25 -170 -101 -210 -113 -22 -6 -22 -6 6 39
16 25 37 66 46 91 11 27 24 45 33 45 34 0 57 62 28 74 -41 15 1 88 61 106 47
14 61 11 91 -14z"/>
</g>
</svg>
