<?xml version="1.0" standalone="no"?>
<!DOCTYPE svg PUBLIC "-//W3C//DTD SVG 20010904//EN"
 "http://www.w3.org/TR/2001/REC-SVG-20010904/DTD/svg10.dtd">
<svg version="1.0" xmlns="http://www.w3.org/2000/svg"
 width="480.000000pt" height="360.000000pt" viewBox="0 0 480.000000 360.000000"
 preserveAspectRatio="xMidYMid meet">
<metadata>
Created by potrace 1.16, written by Peter Selinger 2001-2019
</metadata>
<rect width="1" height="360" fill="#000000"/>
<rect x="479" width="1" height="360" fill="#000000"/>
<rect width="480" height="1" fill="#000000"/>
<rect y="359" width="480" height="1" fill="#000000"/>
<g transform="translate(0.000000,360.000000) scale(0.100000,-0.100000)"
fill="#000000" stroke="none">
<path d="M3915 3433 c-78 -52 -166 -125 -300 -249 -49 -46 -133 -123 -185
-172 -52 -49 -149 -125 -215 -169 -66 -45 -152 -108 -190 -141 -59 -50 -74
-58 -93 -51 -19 7 -22 14 -17 31 4 13 7 25 7 28 1 59 -16 87 -58 99 -29 8 -91
-7 -66 -16 17 -6 15 -44 -4 -71 -14 -20 -23 -22 -117 -22 -100 -1 -104 -2
-217 -50 -87 -38 -108 -50 -85 -50 l30 -1 -25 -17 c-35 -24 -102 -88 -70 -68
39 25 43 19 13 -21 -24 -32 -28 -47 -32 -120 -3 -84 2 -97 24 -66 11 14 13 11
19 -22 5 -27 4 -40 -6 -46 -28 -18 -36 -7 -48 59 -21 126 -117 251 -225 291
-61 23 -138 27 -198 10 -30 -8 -40 -7 -52 5 -8 8 -18 16 -22 18 -5 1 -27 42
-50 89 -73 148 -185 237 -350 279 -95 24 -150 25 -228 5 -91 -24 -143 -54
-210 -120 -112 -110 -181 -261 -192 -420 -14 -192 53 -331 208 -434 110 -73
286 -108 397 -78 28 8 52 11 52 6 0 -4 -39 -43 -86 -87 -77 -73 -84 -82 -73
-100 11 -18 7 -26 -35 -72 -49 -55 -52 -66 -22 -84 14 -9 23 -4 49 27 36 42
73 49 100 19 25 -27 21 -58 -10 -82 -25 -20 -26 -22 -10 -32 10 -5 22 -21 27
-34 6 -14 18 -24 30 -24 17 0 20 -6 20 -43 0 -102 31 -290 55 -336 13 -25 27
-63 30 -84 4 -27 13 -40 29 -47 17 -6 25 -19 30 -51 6 -37 3 -46 -19 -69 -19
-20 -25 -36 -25 -71 1 -76 16 -128 44 -154 36 -34 39 -96 5 -128 -35 -33 -20
-186 22 -220 15 -12 23 -32 27 -65 4 -43 2 -50 -22 -65 -24 -16 -26 -23 -26
-82 0 -58 2 -65 20 -65 18 0 20 7 20 55 0 53 1 55 20 43 17 -11 22 -10 30 2
15 23 30 -5 30 -57 0 -37 3 -43 21 -43 17 0 20 4 15 23 -3 12 -6 39 -6 60 0
29 -7 45 -29 65 -20 19 -30 40 -34 70 -5 37 -2 46 21 68 29 26 34 70 18 167
-6 38 -13 50 -37 62 -26 14 -29 20 -29 65 0 39 4 52 20 60 17 9 20 20 19 83
-1 91 -9 120 -36 132 -20 8 -33 43 -33 85 0 35 52 76 104 83 40 6 250 64 302
84 10 4 8 -11 -7 -54 -32 -90 -34 -186 -10 -373 12 -91 25 -224 28 -297 5
-113 4 -136 -10 -157 -10 -14 -17 -34 -17 -45 0 -11 -11 -33 -25 -49 -14 -17
-25 -35 -25 -42 0 -7 -19 -30 -42 -51 l-43 -39 472 0 c445 0 472 1 466 17 -7
17 -6 17 20 0 24 -15 61 -17 397 -17 l371 0 -30 57 c-16 32 -33 73 -36 91 -4
18 -10 30 -15 27 -11 -7 -26 15 -33 50 l-6 30 14 -32 c21 -47 26 -41 11 12
-16 51 -13 55 15 23 30 -35 64 -106 90 -185 23 -74 42 -91 53 -51 16 61 0 110
-73 233 -53 87 -66 128 -19 58 14 -21 38 -52 54 -68 16 -17 44 -48 63 -70 42
-50 33 -33 -40 75 -58 86 -94 150 -84 150 2 0 24 -21 47 -47 62 -69 143 -151
131 -133 -5 8 -46 65 -91 125 -78 107 -81 114 -97 200 -9 49 -60 220 -112 379
-101 309 -107 339 -119 581 -7 135 23 435 43 435 8 0 29 -25 36 -43 12 -31 38
-33 64 -3 13 15 21 32 18 37 -4 5 1 9 10 9 8 0 20 11 25 24 5 13 13 27 19 31
15 9 81 143 81 164 0 9 5 22 11 28 40 40 60 285 27 335 -21 32 -100 60 -168
60 -52 -1 -88 -16 -160 -66 -41 -29 -90 -38 -90 -17 0 4 69 78 154 164 l153
157 56 0 c49 0 61 4 106 40 28 23 78 52 111 67 33 14 60 31 60 39 0 18 -44 50
-97 70 l-46 18 43 20 c55 27 72 52 47 71 -18 13 -14 20 59 117 43 57 97 126
121 154 69 81 52 87 -52 17z m-1028 -715 c-3 -8 -6 -5 -6 6 -1 11 2 17 5 13 3
-3 4 -12 1 -19z m-1337 -738 c0 -5 -4 -10 -9 -10 -6 0 -13 5 -16 10 -3 6 1 10
9 10 9 0 16 -4 16 -10z m695 -45 c0 -47 2 -50 40 -72 22 -13 38 -29 37 -35 -2
-7 -19 -78 -37 -157 -35 -151 -52 -186 -103 -212 -18 -9 -37 -21 -44 -26 -7
-6 -62 -24 -123 -41 -117 -33 -227 -70 -287 -96 l-36 -16 -6 28 c-3 15 -13 71
-22 126 l-16 99 28 22 27 22 -21 21 c-11 11 -28 45 -38 76 -18 57 -15 81 19
167 l11 26 50 -26 c45 -23 61 -26 156 -26 98 0 110 2 171 32 43 21 83 51 115
87 61 68 79 68 79 1z m186 -328 c-8 -8 -11 -5 -11 9 0 27 14 41 18 19 2 -9 -1
-22 -7 -28z m-891 -588 c0 -5 -4 -9 -10 -9 -5 0 -10 7 -10 16 0 8 5 12 10 9 6
-3 10 -10 10 -16z m1308 -173 c16 -19 35 -52 42 -73 16 -51 30 -64 30 -30 l0
28 35 -28 c36 -29 75 -100 126 -233 41 -106 46 -142 22 -177 -11 -15 -37 -58
-57 -95 -35 -63 -39 -67 -66 -62 -34 7 -44 -8 -54 -78 -4 -26 -11 -50 -15 -52
-4 -3 -17 8 -29 23 -12 16 -44 44 -72 62 -27 18 -50 40 -50 49 0 10 -10 30
-22 45 -43 55 -41 358 3 500 25 81 58 155 69 155 4 0 21 -15 38 -34z m525 -56
c-6 -7 -23 23 -23 40 0 8 6 4 13 -10 8 -14 12 -27 10 -30z m-1759 -1 c9 -45 8
-119 -2 -119 -4 0 -13 5 -20 12 -8 8 -15 8 -25 -1 -20 -16 -27 5 -27 75 0 53
1 54 25 48 15 -4 25 -2 25 5 0 24 18 9 24 -20z m6 -329 c15 24 24 2 28 -71 3
-46 1 -69 -7 -69 -6 0 -11 5 -11 10 0 6 -7 10 -15 10 -8 0 -15 -7 -15 -15 0
-20 -16 -19 -24 1 -3 9 -6 45 -6 80 0 62 1 64 20 52 17 -11 22 -10 30 2z
m1190 -371 c0 -18 -35 -5 -38 14 -3 16 -1 17 17 7 12 -6 21 -15 21 -21z m-846
-11 c-8 -28 -12 -33 -20 -25 -9 8 6 47 17 47 6 0 7 -10 3 -22z"/>
</g>
</svg>
