<?xml version="1.0" standalone="no"?>
<!DOCTYPE svg PUBLIC "-//W3C//DTD SVG 20010904//EN"
 "http://www.w3.org/TR/2001/REC-SVG-20010904/DTD/svg10.dtd">
<svg version="1.0" xmlns="http://www.w3.org/2000/svg"
 width="480.000000pt" height="360.000000pt" viewBox="0 0 480.000000 360.000000"
 preserveAspectRatio="xMidYMid meet">
<metadata>
Created by potrace 1.16, written by Peter Selinger 2001-2019
</metadata>
<rect width="1" height="360" fill="#000000"/>
<rect x="479" width="1" height="360" fill="#000000"/>
<rect width="480" height="1" fill="#000000"/>
<rect y="359" width="480" height="1" fill="#000000"/>
<g transform="translate(0.000000,360.000000) scale(0.100000,-0.100000)"
fill="#000000" stroke="none">
<path d="M1200 2643 c0 -4 12 -17 27 -29 l28 -22 -90 5 c-104 5 -146 -10 -180
-64 -11 -18 -25 -32 -31 -33 -6 0 -14 -21 -18 -47 -5 -38 -3 -51 10 -60 13 -9
13 -15 4 -33 -11 -21 -3 -51 30 -112 24 -43 5 -152 -34 -198 -29 -36 -49 -98
-48 -155 2 -100 -14 -133 -121 -243 -93 -96 -99 -104 -93 -135 4 -17 11 -56
15 -85 10 -57 41 -94 76 -89 15 1 20 9 19 30 -1 24 2 27 31 27 30 0 35 6 75
80 24 44 44 79 46 77 4 -4 -58 -362 -96 -552 -26 -132 -95 -497 -117 -622 -7
-41 24 -62 101 -70 31 -3 56 -9 56 -14 0 -4 -13 -18 -28 -31 -15 -13 -36 -40
-47 -60 -26 -51 -11 -68 63 -68 50 0 58 3 88 36 41 43 51 76 35 119 -14 39
-14 82 -1 90 5 3 10 19 10 36 l0 29 94 0 c55 0 98 -4 101 -10 4 -6 8 -32 9
-58 2 -26 6 -55 10 -64 5 -10 -3 -36 -23 -72 -49 -87 -41 -106 43 -106 29 0
52 7 70 21 24 19 27 27 25 73 -3 65 1 72 49 79 22 4 48 17 62 32 l23 25 -16
107 c-30 194 -51 420 -67 743 -5 113 -13 227 -17 254 -6 46 -5 49 15 44 l21
-6 -19 38 c-15 29 -18 50 -14 83 l6 45 38 -5 c32 -5 43 -1 64 20 31 32 32 49
5 120 l-21 55 46 68 c32 48 42 71 35 80 -5 7 -44 34 -85 61 l-75 48 5 55 c3
30 6 62 7 70 0 8 -2 32 -6 53 -6 27 -3 48 10 76 16 36 16 40 0 72 -41 80 -106
158 -149 178 -45 23 -56 25 -56 14z"/>
</g>
</svg>
