<?xml version="1.0" standalone="no"?>
<!DOCTYPE svg PUBLIC "-//W3C//DTD SVG 20010904//EN"
 "http://www.w3.org/TR/2001/REC-SVG-20010904/DTD/svg10.dtd">
<svg version="1.0" xmlns="http://www.w3.org/2000/svg"
 width="480.000000pt" height="360.000000pt" viewBox="0 0 480.000000 360.000000"
 preserveAspectRatio="xMidYMid meet">
<metadata>
Created by potrace 1.16, written by Peter Selinger 2001-2019
</metadata>
<rect width="1" height="360" fill="#000000"/>
<rect x="479" width="1" height="360" fill="#000000"/>
<rect width="480" height="1" fill="#000000"/>
<rect y="359" width="480" height="1" fill="#000000"/>
<g transform="translate(0.000000,360.000000) scale(0.100000,-0.100000)"
fill="#000000" stroke="none">
<path d="M2034 3585 c3 -8 19 -84 35 -168 16 -83 46 -217 66 -297 40 -156 39
-127 19 -419 -7 -104 3 -164 42 -262 26 -63 25 -79 -5 -79 -10 0 -44 -9 -76
-20 -54 -19 -79 -35 -210 -141 -27 -22 -73 -55 -100 -74 -113 -76 -121 -88
-180 -248 -29 -81 -81 -198 -114 -260 -56 -105 -59 -115 -44 -130 15 -15 13
-19 -22 -59 -59 -66 -82 -78 -151 -78 -56 0 -62 -2 -84 -32 -14 -18 -23 -40
-22 -50 2 -9 -2 -19 -8 -23 -19 -12 -10 -23 25 -29 31 -6 34 -10 29 -31 -5
-20 -2 -25 12 -25 59 1 234 116 362 237 8 8 28 10 56 7 52 -8 62 5 95 116 25
84 51 152 109 285 l40 90 135 70 c107 55 150 84 204 136 80 78 89 82 172 98
59 12 65 11 83 -7 10 -10 21 -36 24 -58 4 -31 2 -36 -8 -26 -17 17 -29 15 -26
-5 2 -13 -5 -19 -27 -21 -44 -5 -50 -14 -65 -94 -7 -40 -17 -78 -22 -85 -6 -7
-7 -17 -3 -23 11 -18 -32 -65 -87 -93 -47 -24 -168 -134 -168 -153 0 -4 -21
-29 -46 -56 -37 -39 -45 -54 -40 -74 4 -13 2 -24 -3 -24 -11 0 -21 -36 -13
-45 4 -3 7 -21 8 -40 0 -18 9 -45 18 -60 21 -32 25 -32 185 32 98 39 117 43
139 33 17 -7 58 -9 128 -4 l102 7 69 -58 c98 -84 173 -116 282 -123 63 -3 106
0 157 13 132 33 160 67 200 252 31 139 59 201 122 266 32 32 41 47 29 47 -33
0 -128 -42 -202 -90 -117 -77 -118 -77 -161 16 -20 44 -40 89 -45 102 -8 20 5
37 115 150 223 229 269 295 216 309 -11 3 -20 11 -20 18 0 15 -54 39 -85 38
-11 -1 -22 3 -25 8 -3 4 -17 2 -30 -6 -14 -8 -35 -19 -47 -24 -13 -6 -23 -15
-23 -20 0 -6 -6 -8 -14 -5 -8 3 -17 1 -21 -5 -3 -6 -20 -11 -36 -11 l-30 0 6
48 c13 94 33 140 103 233 119 161 183 261 178 276 -6 15 31 96 89 198 41 71
95 233 95 283 0 34 -1 35 -15 16 -9 -12 -13 -13 -10 -4 3 9 7 32 8 53 4 43
-11 49 -44 16 -11 -11 -22 -19 -25 -17 -2 2 6 28 17 57 11 30 17 56 14 59 -3
3 -21 -9 -40 -28 -29 -28 -35 -31 -41 -17 -5 14 -11 13 -42 -11 -20 -15 -33
-21 -28 -14 4 6 3 12 -3 12 -5 0 -13 -5 -16 -10 -10 -16 -25 -1 -18 17 13 33
-57 -28 -117 -101 -32 -39 -68 -82 -80 -96 l-21 -25 12 25 c12 24 11 24 -7 10
-10 -8 -22 -19 -26 -25 -16 -22 -19 8 -8 81 7 48 9 107 5 153 l-8 76 -52 -158
c-53 -161 -74 -206 -59 -127 4 25 9 74 10 110 1 36 7 94 13 130 6 36 11 73 11
83 0 16 -29 17 -461 17 -407 0 -460 -2 -455 -15z m827 -32 c-12 -20 -14 -14
-5 12 4 9 9 14 11 11 3 -2 0 -13 -6 -23z m-187 -304 c15 -76 -1 -154 -29 -143
-19 8 -22 143 -3 162 19 19 25 15 32 -19z m-88 -121 c-10 -75 -17 -99 -27 -92
-14 9 -10 82 6 114 23 44 28 37 21 -22z"/>
</g>
</svg>
