<?xml version="1.0" standalone="no"?>
<!DOCTYPE svg PUBLIC "-//W3C//DTD SVG 20010904//EN"
 "http://www.w3.org/TR/2001/REC-SVG-20010904/DTD/svg10.dtd">
<svg version="1.0" xmlns="http://www.w3.org/2000/svg"
 width="480.000000pt" height="360.000000pt" viewBox="0 0 480.000000 360.000000"
 preserveAspectRatio="xMidYMid meet">
<metadata>
Created by potrace 1.16, written by Peter Selinger 2001-2019
</metadata>
<rect width="1" height="360" fill="#000000"/>
<rect x="479" width="1" height="360" fill="#000000"/>
<rect width="480" height="1" fill="#000000"/>
<rect y="359" width="480" height="1" fill="#000000"/>
<g transform="translate(0.000000,360.000000) scale(0.100000,-0.100000)"
fill="#000000" stroke="none">
<path d="M2345 1665 c-51 -18 -71 -43 -91 -113 -14 -49 -15 -67 -4 -142 7 -47
18 -95 26 -107 13 -20 11 -27 -24 -74 -20 -29 -52 -69 -69 -89 -18 -21 -45
-63 -59 -95 -24 -52 -26 -66 -21 -135 4 -50 16 -101 33 -143 26 -64 28 -66 94
-96 37 -17 74 -31 83 -31 9 0 19 -4 22 -10 9 -14 58 -12 140 5 58 12 76 21
112 57 l43 42 -5 84 c-5 92 -21 135 -80 228 -36 56 -65 123 -65 150 0 9 12 6
36 -11 44 -30 50 -30 92 -5 26 16 32 26 31 52 0 18 -4 42 -8 53 -5 12 -3 30 5
47 29 57 11 148 -30 148 -9 0 -16 7 -16 16 0 29 -17 5 -29 -40 -9 -36 -16 -46
-43 -55 -26 -9 -35 -8 -47 4 -13 13 -11 19 15 52 46 57 47 60 34 111 -23 93
-87 129 -175 97z"/>
</g>
</svg>
