<?xml version="1.0" standalone="no"?>
<!DOCTYPE svg PUBLIC "-//W3C//DTD SVG 20010904//EN"
 "http://www.w3.org/TR/2001/REC-SVG-20010904/DTD/svg10.dtd">
<svg version="1.0" xmlns="http://www.w3.org/2000/svg"
 width="480.000000pt" height="360.000000pt" viewBox="0 0 480.000000 360.000000"
 preserveAspectRatio="xMidYMid meet">
<metadata>
Created by potrace 1.16, written by Peter Selinger 2001-2019
</metadata>
<rect width="1" height="360" fill="#000000"/>
<rect x="479" width="1" height="360" fill="#000000"/>
<rect width="480" height="1" fill="#000000"/>
<rect y="359" width="480" height="1" fill="#000000"/>
<g transform="translate(0.000000,360.000000) scale(0.100000,-0.100000)"
fill="#000000" stroke="none">
<path d="M0 2624 l0 -975 58 32 c155 87 326 213 407 299 17 18 47 46 68 62
l38 31 107 -51 c228 -107 341 -164 442 -222 147 -85 215 -104 343 -97 56 3
131 13 166 22 61 17 65 17 135 -4 39 -12 80 -21 91 -21 15 0 46 33 104 110 92
123 96 126 225 190 81 40 91 48 89 70 -7 72 -16 90 -44 90 -12 0 -19 7 -19 19
0 11 -4 22 -9 25 -10 6 -15 -14 -27 -104 -7 -49 -8 -52 -14 -25 l-7 30 -11
-25 c-9 -21 -11 -15 -12 45 l-1 70 -18 -63 c-10 -34 -21 -65 -23 -68 -3 -2 -8
22 -11 53 -11 104 -27 162 -43 156 -9 -3 -19 7 -30 32 l-16 38 -19 -29 c-20
-31 -22 -28 -19 24 2 36 -4 38 -40 17 -42 -24 -42 -17 2 45 33 48 40 64 32 77
-16 26 -35 27 -41 4 -6 -25 -40 -28 -69 -6 -10 8 -28 15 -40 15 -11 0 -31 10
-43 22 l-24 21 29 21 c57 41 93 78 124 124 26 40 30 53 26 87 -23 154 -13 243
38 344 54 106 172 165 321 161 138 -4 158 -3 247 5 193 18 316 -42 395 -190
25 -47 33 -56 39 -42 3 10 19 24 34 32 47 24 103 0 194 -84 53 -50 81 -103 91
-178 4 -26 14 -63 21 -82 19 -46 17 -68 -6 -81 -11 -6 -29 -29 -40 -51 l-21
-39 20 -65 c11 -35 29 -114 41 -175 11 -61 24 -118 27 -127 4 -11 3 -14 -5 -9
-8 5 -12 -2 -12 -20 0 -49 -88 -281 -91 -239 0 6 -11 -12 -23 -39 -23 -47 -23
-48 -30 -21 -5 20 -12 26 -26 22 -15 -4 -20 2 -25 34 -8 43 -12 47 -30 22 -11
-14 -14 -9 -20 36 -4 28 -20 90 -36 137 -23 68 -29 103 -29 170 0 77 -2 84
-20 84 -30 0 -35 -3 -31 -24 2 -14 -1 -17 -14 -12 -15 6 -17 1 -12 -31 l6 -38
-30 33 c-17 19 -32 32 -33 30 -2 -1 -9 -13 -15 -25 -6 -13 -17 -22 -23 -20
-14 3 -46 -89 -47 -138 -1 -39 -15 -40 -23 0 -3 13 -12 -2 -25 -45 l-21 -65
-2 50 c-2 56 -5 53 -17 -20 -7 -46 -8 -43 -13 55 -5 99 -6 103 -19 73 -7 -18
-19 -33 -25 -33 -23 0 -44 -34 -48 -75 l-3 -40 113 -56 c62 -31 130 -73 151
-93 20 -20 64 -79 96 -131 32 -52 63 -95 68 -95 5 0 37 8 72 17 61 16 65 16
136 -5 41 -12 110 -27 155 -32 114 -14 187 6 410 118 98 49 229 109 289 132
61 24 119 49 130 57 39 26 61 16 147 -73 132 -138 283 -258 421 -338 l47 -28
0 1041 0 1041 -2400 0 -2400 0 0 -976z"/>
<path d="M2934 2553 c-33 -73 -34 -120 -2 -145 12 -9 31 -18 41 -18 15 0 17
11 17 88 0 91 -7 132 -20 132 -5 0 -21 -26 -36 -57z"/>
<path d="M3212 2000 c0 -14 2 -19 5 -12 2 6 2 18 0 25 -3 6 -5 1 -5 -13z"/>
<path d="M524 1895 c-36 -42 -44 -59 -36 -67 7 -7 12 -23 12 -35 0 -13 7 -34
16 -48 8 -13 19 -53 25 -89 l9 -66 -46 -83 c-143 -257 -192 -341 -203 -345
-21 -7 -23 28 -13 258 8 188 13 235 26 249 31 34 15 32 -41 -7 -32 -21 -70
-46 -84 -55 -32 -19 -44 -65 -23 -88 9 -10 19 -46 24 -80 9 -60 7 -68 -19
-119 -16 -30 -60 -104 -97 -165 l-69 -110 -3 -522 -3 -523 880 0 879 0 31 92
c16 51 39 130 51 175 27 108 62 206 117 323 30 64 44 107 43 135 0 22 2 117 6
210 4 115 3 167 -4 160 -5 -5 -24 -45 -42 -87 -54 -132 -110 -180 -467 -396
-91 -55 -162 -90 -225 -110 -51 -17 -136 -47 -188 -67 -94 -37 -96 -37 -175
-28 -123 15 -297 95 -269 123 9 9 32 8 91 0 67 -10 88 -9 142 5 132 34 191 65
191 99 0 3 -21 5 -47 3 -38 -1 -48 1 -51 15 -5 27 41 49 125 60 67 9 85 8 130
-7 62 -21 51 -27 228 115 137 110 222 174 281 212 38 25 41 30 48 85 3 32 20
102 37 157 l32 98 -32 25 c-17 13 -31 29 -31 34 0 5 14 22 32 38 l32 28 -23
24 c-17 18 -21 32 -18 55 5 31 5 31 -46 38 -121 14 -164 1 -128 -38 10 -12 24
-50 30 -85 l11 -64 -64 -126 c-99 -195 -144 -275 -154 -279 -17 -5 -21 43 -24
253 l-3 200 29 45 c16 25 41 55 55 67 14 12 22 26 17 30 -9 9 -261 11 -270 3
-3 -3 1 -24 9 -45 8 -22 14 -63 15 -91 0 -44 -8 -64 -65 -164 -36 -63 -65
-115 -65 -117 0 -3 -101 -176 -107 -182 -2 -3 -8 0 -13 5 -5 5 -5 99 2 244
l11 235 29 43 c16 23 43 52 59 64 19 14 29 30 27 42 -5 34 -176 144 -252 162
-28 7 -29 6 -22 -27 28 -156 28 -156 -3 -212 -16 -29 -68 -122 -115 -207 -48
-85 -94 -162 -102 -170 -13 -13 -15 4 -13 155 2 94 5 209 9 256 5 78 9 91 38
125 37 45 54 64 77 82 9 8 15 17 13 22 -3 8 -197 110 -210 110 -3 0 -28 -25
-54 -55z"/>
<path d="M4138 1820 c-42 -21 -86 -40 -97 -43 -28 -7 -27 -33 3 -49 29 -16 94
-99 100 -130 5 -24 10 -98 22 -320 5 -98 4 -128 -6 -128 -12 0 -49 39 -50 52
0 4 -22 42 -49 85 -26 43 -72 118 -101 167 l-52 89 6 71 c3 39 7 82 8 96 4 35
-21 36 -89 5 -70 -32 -183 -104 -183 -117 0 -5 22 -31 50 -59 27 -27 56 -62
64 -77 13 -26 28 -163 42 -380 6 -86 5 -102 -7 -97 -8 3 -21 16 -29 29 -8 12
-64 100 -124 195 l-109 173 6 70 c3 38 11 76 17 83 19 23 -19 34 -149 41 -118
7 -142 2 -103 -22 10 -6 36 -36 58 -65 l41 -54 29 -242 c15 -133 24 -246 20
-250 -10 -10 -14 -4 -158 225 l-118 187 0 78 c0 42 5 86 12 96 6 10 8 26 5 35
-6 14 -19 16 -84 14 -69 -3 -79 -5 -89 -26 -6 -12 -21 -33 -33 -46 l-23 -24
29 -22 c24 -17 29 -27 25 -51 -2 -16 -7 -29 -11 -29 -4 0 -15 -6 -24 -12 -16
-12 -16 -19 2 -113 10 -55 22 -133 26 -174 6 -63 12 -79 39 -110 32 -36 101
-125 186 -241 36 -49 49 -60 65 -55 63 20 99 25 180 25 128 1 158 -8 189 -55
18 -27 15 -55 -4 -55 -6 0 -23 12 -37 26 -23 23 -29 25 -52 14 l-26 -12 23
-18 c12 -10 48 -26 78 -35 51 -15 58 -15 73 -1 25 23 58 20 66 -4 7 -22 -18
-70 -35 -70 -6 0 -10 -10 -10 -22 0 -38 -12 -68 -25 -68 -8 0 -11 -8 -8 -20 4
-16 0 -20 -21 -20 -16 0 -26 -6 -26 -14 0 -8 -7 -16 -15 -20 -8 -3 -15 -12
-15 -21 0 -11 -11 -15 -42 -15 -39 0 -40 -1 -24 -19 16 -18 16 -18 -9 -14 -17
4 -25 1 -25 -8 0 -8 -13 -20 -30 -27 -27 -12 -34 -11 -96 24 -90 50 -127 85
-182 168 -48 72 -84 115 -245 291 -100 110 -137 168 -168 265 -24 77 -34 45
-24 -78 7 -88 8 -138 5 -183 -1 -8 19 -58 43 -110 69 -145 75 -163 122 -335
24 -88 53 -183 63 -210 l20 -49 876 -3 876 -2 0 464 0 463 -111 167 -111 167
7 67 c4 37 13 74 19 84 25 36 8 74 -51 113 -30 20 -57 34 -59 32 -3 -2 2 -102
10 -221 15 -212 14 -250 -7 -243 -12 4 -219 340 -242 392 -15 36 -3 136 21
173 9 13 13 29 11 37 -3 7 1 22 10 34 14 20 12 25 -23 71 -21 27 -42 51 -48
53 -6 2 -46 -13 -88 -33z"/>
<path d="M22 1550 c-13 -6 -22 -18 -22 -32 0 -21 1 -21 30 7 40 38 39 43 -8
25z"/>
<path d="M4760 1400 c17 -22 34 -40 36 -40 2 0 4 11 4 25 0 17 -9 29 -30 40
-43 22 -45 19 -10 -25z"/>
</g>
</svg>
