<?xml version="1.0" standalone="no"?>
<!DOCTYPE svg PUBLIC "-//W3C//DTD SVG 20010904//EN"
 "http://www.w3.org/TR/2001/REC-SVG-20010904/DTD/svg10.dtd">
<svg version="1.0" xmlns="http://www.w3.org/2000/svg"
 width="480.000000pt" height="360.000000pt" viewBox="0 0 480.000000 360.000000"
 preserveAspectRatio="xMidYMid meet">
<metadata>
Created by potrace 1.16, written by Peter Selinger 2001-2019
</metadata>
<rect width="1" height="360" fill="#000000"/>
<rect x="479" width="1" height="360" fill="#000000"/>
<rect width="480" height="1" fill="#000000"/>
<rect y="359" width="480" height="1" fill="#000000"/>
<g transform="translate(0.000000,360.000000) scale(0.100000,-0.100000)"
fill="#000000" stroke="none">
<path d="M3055 3168 c-11 -6 -69 -60 -128 -120 l-108 -109 -48 44 c-89 83
-190 115 -329 104 -266 -22 -357 -37 -419 -67 -130 -64 -188 -175 -188 -360 0
-58 4 -119 9 -136 7 -29 4 -36 -36 -78 -30 -30 -53 -46 -69 -46 -31 0 -49 -17
-49 -46 0 -12 -7 -27 -15 -34 -27 -22 -16 -38 58 -95 72 -54 111 -68 120 -42
5 14 38 -12 69 -56 l20 -28 -27 -52 c-15 -29 -33 -59 -41 -68 -21 -24 -17 -29
20 -29 l34 0 -13 -50 c-15 -59 -7 -64 26 -15 13 19 27 35 31 35 3 0 16 -16 28
-35 27 -43 40 -45 40 -4 0 44 18 26 26 -27 5 -39 8 -42 19 -28 11 16 14 15 30
-9 20 -31 35 -35 35 -9 1 14 3 14 19 -5 24 -29 31 -29 31 0 0 18 2 19 10 7 8
-12 10 -11 10 8 0 28 7 28 31 0 41 -50 16 -65 -165 -103 -150 -30 -190 -49
-240 -107 -41 -47 -109 -180 -126 -247 l-12 -44 -101 6 c-180 10 -250 45 -437
222 -72 69 -141 122 -207 162 l-98 59 3 46 c5 79 -14 70 -171 -80 -203 -194
-329 -286 -587 -429 l-105 -59 -3 -72 -3 -72 76 0 c82 0 98 -6 229 -83 l69
-41 41 46 c22 25 67 75 99 112 90 102 118 100 169 -14 31 -70 41 -69 53 3 14
78 75 83 165 11 51 -40 80 -80 80 -109 1 -46 13 -47 91 -10 146 69 204 58 322
-60 47 -47 71 -64 80 -58 8 4 72 48 144 96 116 79 131 87 155 78 19 -7 25 -15
22 -29 -3 -10 2 -24 10 -31 20 -16 21 -74 4 -223 l-12 -108 30 -31 c48 -52
133 -75 174 -49 22 14 28 -11 29 -117 l1 -92 -40 -23 c-39 -23 -50 -41 -30
-53 13 -8 13 -98 -1 -112 -8 -8 -4 -25 11 -61 l22 -50 -21 -41 c-12 -22 -21
-43 -21 -46 0 -3 250 -5 556 -5 l556 0 -38 67 c-20 38 -46 80 -56 95 -19 27
-19 28 7 75 36 68 33 84 -29 140 -46 42 -55 57 -65 103 -7 30 -14 64 -17 75
-5 19 -2 21 31 17 44 -5 120 22 140 51 18 26 19 105 4 267 -9 100 -9 116 5
126 9 6 16 18 16 27 0 9 10 17 22 19 32 4 33 32 4 62 -47 46 -34 58 35 31 81
-32 150 -71 285 -161 61 -41 116 -74 123 -74 6 0 30 17 54 39 54 50 117 81
162 81 40 0 121 -37 176 -81 20 -16 40 -29 43 -29 3 0 12 15 20 34 7 18 28 43
44 55 40 28 136 61 179 61 l33 0 0 -55 c0 -58 14 -72 30 -31 15 40 80 106 104
106 31 0 65 -41 120 -142 25 -48 55 -89 65 -93 10 -3 60 8 110 25 51 16 101
30 112 30 18 0 19 9 19 129 l0 129 -37 32 c-148 126 -282 277 -397 445 -62 90
-97 128 -109 116 -5 -5 -12 -24 -16 -43 -7 -37 -22 -46 -152 -98 -78 -31 -104
-46 -289 -164 -151 -96 -255 -122 -410 -103 -47 6 -110 11 -140 12 -50 0 -56
-2 -68 -27 -7 -16 -17 -28 -22 -28 -5 0 -16 24 -24 54 -23 78 -110 246 -143
277 -40 37 -94 55 -236 78 -144 24 -177 36 -177 64 0 11 3 17 6 14 4 -4 20 10
35 30 27 34 29 34 29 12 l1 -24 14 25 13 25 4 -35 4 -35 13 27 c8 15 18 25 22
22 5 -3 9 4 9 15 0 30 28 15 32 -17 3 -23 7 -18 27 33 34 85 42 92 58 61 18
-34 29 -33 37 5 l6 30 45 -26 c25 -15 45 -24 45 -21 0 3 -13 26 -30 52 -32 50
-31 66 3 63 66 -5 72 6 22 38 -36 24 -78 80 -90 123 -8 25 -7 25 13 7 21 -19
48 -15 36 4 -7 12 24 99 35 99 4 0 12 -5 19 -12 18 -18 41 9 49 55 6 38 5 39
-81 116 -15 13 -32 33 -38 44 -9 18 -8 19 18 12 78 -21 195 -42 199 -35 8 13
10 135 2 171 -7 33 -5 37 15 44 13 4 26 7 30 6 19 -3 138 62 138 75 0 8 -16
24 -35 35 -37 22 -113 117 -148 184 -11 22 -25 67 -31 99 -12 63 -19 72 -51
54z m-468 -1310 c-3 -8 -6 -5 -6 6 -1 11 2 17 5 13 3 -3 4 -12 1 -19z"/>
</g>
</svg>
