<?xml version="1.0" standalone="no"?>
<!DOCTYPE svg PUBLIC "-//W3C//DTD SVG 20010904//EN"
 "http://www.w3.org/TR/2001/REC-SVG-20010904/DTD/svg10.dtd">
<svg version="1.0" xmlns="http://www.w3.org/2000/svg"
 width="480.000000pt" height="360.000000pt" viewBox="0 0 480.000000 360.000000"
 preserveAspectRatio="xMidYMid meet">
<metadata>
Created by potrace 1.16, written by Peter Selinger 2001-2019
</metadata>
<rect width="1" height="360" fill="#000000"/>
<rect x="479" width="1" height="360" fill="#000000"/>
<rect width="480" height="1" fill="#000000"/>
<rect y="359" width="480" height="1" fill="#000000"/>
<g transform="translate(0.000000,360.000000) scale(0.100000,-0.100000)"
fill="#000000" stroke="none">
<path d="M0 1800 l0 -1800 641 0 c509 0 640 3 637 12 -3 7 -13 37 -22 66 -10
28 -19 52 -22 52 -2 0 -16 -24 -31 -52 -34 -67 -43 -42 -17 46 15 49 18 91 17
210 -1 186 -1 186 -111 149 -128 -41 -135 -43 -227 -47 l-88 -4 -39 -46 c-39
-45 -72 -59 -81 -33 -2 6 -16 12 -32 12 -36 0 -62 36 -70 97 -7 47 -7 47 31
65 36 17 39 22 49 81 7 34 16 67 21 72 5 5 38 16 74 25 116 29 125 32 166 53
59 30 184 131 219 178 27 35 31 49 37 139 3 55 16 136 28 180 17 63 21 101 19
180 -9 256 0 332 61 530 35 112 78 221 129 324 28 57 39 92 39 123 -1 25 8 60
20 85 12 23 22 50 22 60 0 51 78 123 133 123 60 0 122 -46 137 -101 8 -30 20
-43 63 -67 67 -38 152 -130 270 -292 119 -163 319 -429 345 -458 l20 -23 98
127 c191 245 271 338 449 523 113 117 209 194 263 212 47 15 68 33 99 86 66
113 194 112 244 -1 15 -34 16 -49 8 -81 -23 -89 -23 -91 18 -154 102 -151 203
-521 203 -740 0 -81 -17 -189 -51 -324 -11 -42 -24 -132 -29 -198 -5 -76 -19
-156 -35 -215 l-27 -94 27 -47 c43 -72 153 -175 243 -227 86 -50 123 -86 183
-179 58 -89 95 -227 62 -227 -21 0 -75 41 -126 97 -22 24 -43 40 -46 35 -3 -5
-20 -12 -37 -16 -26 -6 -37 -1 -76 33 -29 26 -51 57 -63 88 -10 26 -27 60 -37
75 -16 24 -22 26 -39 15 -10 -6 -19 -21 -19 -33 0 -29 -31 -54 -68 -54 -20 0
-34 -6 -40 -17 -5 -10 -10 -67 -11 -128 -2 -99 -11 -190 -27 -267 l-6 -28 601
0 601 0 0 1800 0 1800 -2400 0 -2400 0 0 -1800z"/>
</g>
</svg>
