<?xml version="1.0" standalone="no"?>
<!DOCTYPE svg PUBLIC "-//W3C//DTD SVG 20010904//EN"
 "http://www.w3.org/TR/2001/REC-SVG-20010904/DTD/svg10.dtd">
<svg version="1.0" xmlns="http://www.w3.org/2000/svg"
 width="480.000000pt" height="360.000000pt" viewBox="0 0 480.000000 360.000000"
 preserveAspectRatio="xMidYMid meet">
<metadata>
Created by potrace 1.16, written by Peter Selinger 2001-2019
</metadata>
<rect width="1" height="360" fill="#000000"/>
<rect x="479" width="1" height="360" fill="#000000"/>
<rect width="480" height="1" fill="#000000"/>
<rect y="359" width="480" height="1" fill="#000000"/>
<g transform="translate(0.000000,360.000000) scale(0.100000,-0.100000)"
fill="#000000" stroke="none">
<path d="M1844 3518 l-9 -81 -79 -44 -80 -44 -39 16 c-21 8 -42 13 -47 10 -5
-3 -12 -27 -16 -53 -5 -35 -14 -53 -37 -73 l-31 -26 20 -30 c33 -53 176 -221
192 -228 8 -3 23 2 34 12 27 24 42 5 33 -46 -5 -33 -17 -50 -58 -86 -29 -25
-55 -45 -59 -45 -5 0 -8 -5 -8 -11 0 -8 19 -10 61 -6 l61 5 -6 -39 c-3 -21 -9
-58 -12 -81 l-5 -43 35 40 c39 44 36 47 61 -54 18 -77 22 -81 33 -50 8 21 10
17 17 -28 7 -53 20 -69 27 -35 3 11 9 1 18 -25 16 -51 26 -54 35 -13 10 45 20
36 33 -30 7 -33 17 -60 23 -60 5 0 7 11 3 24 -7 31 12 43 20 13 7 -20 8 -21
15 -3 7 17 8 17 23 -5 9 -15 13 -37 10 -57 -6 -46 12 -39 32 12 l17 44 30 -16
c36 -21 34 -46 -5 -50 -23 -3 -27 -7 -22 -25 4 -12 9 -36 13 -54 6 -37 -7 -46
-122 -83 -98 -32 -204 -85 -242 -122 -40 -39 -48 -34 -109 72 -63 110 -69 115
-151 105 -38 -4 -124 -10 -193 -14 -244 -12 -345 16 -593 168 -65 40 -175 100
-245 132 -70 33 -148 74 -174 90 -46 30 -47 30 -80 13 -18 -9 -71 -43 -118
-74 -47 -31 -100 -65 -117 -76 -33 -18 -33 -19 -33 -97 0 -70 2 -78 17 -73 16
6 16 6 0 -12 -14 -15 -17 -40 -17 -134 l0 -115 139 -210 c77 -116 145 -214
151 -218 21 -13 31 18 26 80 -3 33 -8 134 -11 225 -3 91 -9 183 -12 205 -6 43
-72 138 -119 173 -19 13 -28 30 -31 55 -3 35 0 39 59 82 34 25 67 45 73 45 5
0 30 -13 54 -29 24 -16 60 -37 81 -46 35 -16 37 -20 35 -56 -1 -22 -9 -47 -18
-57 -9 -10 -24 -55 -33 -101 l-17 -82 54 -102 c97 -187 220 -412 229 -421 28
-28 33 15 45 396 l6 177 -41 65 c-23 36 -56 77 -73 90 -27 21 -29 26 -14 32
24 9 154 -55 227 -111 71 -54 79 -82 38 -135 -18 -24 -32 -61 -44 -123 l-17
-88 58 -132 c120 -271 161 -363 179 -396 17 -33 19 -34 32 -16 8 10 14 37 15
59 0 23 2 50 4 61 3 22 19 180 36 358 l10 118 -41 77 c-23 42 -52 85 -64 95
-20 18 -17 18 139 12 255 -10 277 -19 212 -87 -23 -25 -40 -58 -55 -111 -12
-41 -22 -83 -22 -92 0 -16 106 -303 174 -470 l32 -80 -33 -100 c-40 -119 -74
-246 -98 -371 l-17 -92 -77 -40 c-42 -22 -124 -70 -181 -108 -58 -37 -178
-114 -268 -170 l-163 -101 -107 106 c-59 58 -116 119 -126 134 -21 35 -88 66
-138 67 -29 0 -41 -6 -53 -24 -21 -31 -9 -55 39 -81 44 -24 46 -47 7 -86 -29
-28 -31 -29 -133 -27 -160 3 -148 20 -148 -198 l0 -184 60 0 c34 0 74 7 90 15
25 13 32 13 64 0 29 -12 93 -15 341 -15 l305 0 237 136 c131 75 268 156 305
179 165 107 200 165 334 559 55 161 82 224 68 156 -4 -19 -9 -159 -10 -310 -1
-151 -6 -299 -12 -328 -5 -29 -5 -55 -1 -58 20 -12 -2 -112 -44 -199 -24 -50
-48 -100 -51 -112 l-7 -23 720 0 c397 0 721 2 721 5 0 3 -13 35 -30 70 -16 36
-43 94 -60 130 -31 67 -38 105 -19 105 12 0 11 15 -11 210 -11 95 -5 296 9
319 5 7 26 -39 51 -111 77 -223 132 -312 230 -379 60 -40 260 -152 489 -273
l145 -76 438 0 438 0 0 200 0 200 -57 1 c-32 1 -92 0 -133 -1 -63 -1 -80 2
-102 19 -44 35 -60 111 -24 111 19 0 56 44 56 66 0 44 -55 58 -121 30 -42 -17
-58 -35 -95 -104 -15 -30 -49 -71 -75 -93 -26 -22 -59 -60 -74 -84 -14 -25
-29 -45 -33 -45 -13 0 -153 79 -372 210 -118 70 -249 145 -292 166 l-76 39
-22 115 c-24 132 -49 230 -86 344 l-26 81 82 205 c129 324 140 355 145 437 3
41 10 82 15 92 8 11 9 2 5 -34 l-6 -50 35 39 c20 22 36 47 36 57 0 10 12 44
26 77 l25 59 77 6 c79 6 99 2 70 -14 -9 -5 -36 -42 -59 -82 -34 -58 -43 -81
-42 -117 2 -104 45 -566 54 -575 6 -6 14 -4 23 5 8 8 67 132 131 275 l118 260
-6 65 c-8 86 -23 135 -51 165 -37 40 -25 77 47 135 66 53 164 106 215 116 39
8 44 -11 7 -28 -14 -6 -46 -43 -71 -82 l-46 -71 7 -275 c7 -287 10 -323 29
-317 12 4 77 115 175 302 35 66 75 139 89 163 23 41 24 50 19 133 -5 70 -12
96 -29 120 -20 27 -34 99 -19 99 3 0 44 22 90 50 94 56 86 56 179 -13 44 -31
53 -43 48 -60 -3 -12 -6 -30 -6 -40 0 -9 -11 -22 -24 -28 -13 -6 -47 -41 -75
-78 l-51 -68 -7 -270 c-3 -149 -3 -278 1 -288 10 -27 23 -10 127 155 52 83
106 169 121 193 l26 42 1 245 0 245 -116 75 c-64 41 -128 79 -142 83 -22 7
-63 -11 -246 -106 -121 -62 -251 -134 -290 -159 -96 -62 -197 -112 -277 -136
-74 -22 -73 -22 -62 38 5 21 9 27 15 19 22 -36 21 18 -4 190 -14 103 -29 195
-33 205 -5 12 -1 19 14 23 29 7 34 27 21 79 -16 62 -5 139 25 183 81 118 97
333 36 475 -29 68 -67 88 -155 83 -85 -5 -164 -40 -230 -103 l-45 -44 0 39 c0
20 -5 63 -11 94 l-12 57 -717 0 -717 0 -9 -82z m1446 -664 c0 -47 -7 -140 -16
-207 -15 -118 -15 -292 2 -375 l6 -33 -63 7 c-75 7 -69 13 -152 -126 -89 -149
-79 -142 -135 -88 -62 61 -127 99 -237 138 -123 44 -121 42 -99 131 25 100 32
104 26 15 -3 -48 -1 -76 6 -76 5 0 13 12 16 26 4 16 12 24 21 21 9 -4 24 15
46 58 36 68 49 74 49 21 0 -18 6 -55 14 -82 8 -27 16 -60 18 -74 2 -14 8 7 12
45 12 115 26 131 20 25 -5 -95 6 -109 20 -25 13 78 18 95 27 95 5 0 9 -6 9
-14 0 -7 6 -19 13 -25 11 -9 14 -4 15 24 1 19 9 49 19 67 l17 33 6 -30 6 -30
30 47 c16 26 31 48 34 48 3 0 18 -21 33 -46 15 -26 30 -45 32 -43 1 2 0 36 -4
74 -11 103 -10 104 60 98 65 -6 75 3 30 30 -28 16 -41 49 -41 103 0 13 22 59
49 102 26 42 58 97 70 120 12 23 26 40 31 37 6 -4 10 -45 10 -91z m-1090 -199
c0 -5 -5 -3 -10 5 -5 8 -10 20 -10 25 0 6 5 3 10 -5 5 -8 10 -19 10 -25z m149
-72 c67 -34 66 -43 -2 -19 -50 18 -136 78 -137 95 0 9 13 4 37 -15 20 -15 66
-43 102 -61z m-76 9 c58 -39 102 -55 135 -49 15 3 38 -1 52 -9 23 -14 21 -15
-38 -10 -67 5 -155 40 -187 76 -25 28 -11 25 38 -8z m-56 -199 c-3 -10 -5 -4
-5 12 0 17 2 24 5 18 2 -7 2 -21 0 -30z m361 -29 c1 -11 -6 -25 -18 -32 -17
-11 -20 -10 -20 7 0 48 31 69 38 25z m685 -284 c3 -11 1 -22 -3 -25 -5 -3 -30
-46 -57 -95 -26 -50 -51 -90 -55 -90 -4 0 -19 11 -34 23 l-27 24 77 91 c43 51
81 92 86 92 4 0 10 -9 13 -20z m-1644 -86 l73 -86 -31 -31 c-16 -17 -32 -29
-34 -26 -2 2 -23 42 -47 89 -23 47 -47 88 -52 91 -11 7 -1 49 11 49 4 0 40
-39 80 -86z"/>
</g>
</svg>
