<?xml version="1.0" standalone="no"?>
<!DOCTYPE svg PUBLIC "-//W3C//DTD SVG 20010904//EN"
 "http://www.w3.org/TR/2001/REC-SVG-20010904/DTD/svg10.dtd">
<svg version="1.0" xmlns="http://www.w3.org/2000/svg"
 width="480.000000pt" height="360.000000pt" viewBox="0 0 480.000000 360.000000"
 preserveAspectRatio="xMidYMid meet">
<metadata>
Created by potrace 1.16, written by Peter Selinger 2001-2019
</metadata>
<rect width="1" height="360" fill="#000000"/>
<rect x="479" width="1" height="360" fill="#000000"/>
<rect width="480" height="1" fill="#000000"/>
<rect y="359" width="480" height="1" fill="#000000"/>
<g transform="translate(0.000000,360.000000) scale(0.100000,-0.100000)"
fill="#000000" stroke="none">
<path d="M0 1800 l0 -1800 2400 0 2400 0 0 1800 0 1800 -2400 0 -2400 0 0
-1800z m2246 995 c4 -10 15 -12 34 -9 15 4 37 1 48 -5 20 -10 20 -13 7 -45
-17 -39 -12 -46 30 -46 23 0 40 10 66 36 18 20 46 42 61 50 33 17 131 18 178
1 36 -13 201 -141 200 -154 -2 -15 -63 -2 -104 22 -72 42 -96 32 -96 -39 0
-31 3 -34 60 -51 62 -19 140 -75 140 -101 0 -8 20 -23 45 -34 44 -19 63 -35
28 -24 -14 5 -15 4 -4 -4 8 -6 20 -8 28 -5 7 3 13 -1 13 -10 0 -8 8 -18 18
-22 16 -6 16 -7 -1 -16 -14 -8 -15 -14 -6 -30 9 -19 8 -20 -10 -14 -12 4 -21
2 -21 -4 0 -14 -46 -14 -71 0 -17 9 -21 7 -26 -10 -6 -24 -7 -24 -51 -11 -30
8 -32 7 -20 -7 11 -14 10 -15 -10 -9 -65 18 -61 21 -50 -26 15 -70 23 -72 78
-17 82 82 120 63 120 -61 0 -57 0 -58 33 -64 17 -3 83 -8 145 -12 100 -6 112
-9 112 -25 0 -16 -8 -19 -52 -20 l-53 -1 38 -10 c31 -8 38 -14 34 -29 -6 -24
6 -24 127 -4 60 11 137 15 226 13 121 -3 135 -5 134 -20 -1 -11 5 -18 16 -18
13 0 16 -6 12 -25 -3 -20 1 -27 22 -35 14 -5 26 -14 26 -20 0 -5 10 -10 23
-10 12 0 28 -9 34 -19 7 -11 25 -22 40 -24 27 -4 27 -4 6 -12 -26 -8 -31 -40
-8 -48 12 -5 13 -10 0 -40 -11 -27 -11 -37 -2 -47 10 -10 6 -11 -17 -7 l-30 5
25 -20 c13 -11 18 -17 10 -13 -7 4 -16 3 -20 -3 -5 -8 -15 -7 -35 3 -36 19
-47 19 -40 0 4 -9 0 -15 -10 -15 -9 0 -16 -4 -16 -8 0 -5 -12 -14 -26 -21 -21
-9 -24 -14 -14 -26 10 -12 6 -14 -22 -11 -18 1 -48 10 -66 20 -47 25 -63 14
-19 -13 20 -12 37 -27 37 -32 0 -6 -26 8 -57 31 -66 47 -81 52 -278 85 -120
19 -164 32 -221 60 -55 26 -84 35 -124 35 -50 0 -52 -1 -46 -22 24 -83 29
-127 17 -142 -21 -25 -60 -20 -73 9 -12 27 -28 33 -28 11 0 -8 -9 -24 -20 -37
-20 -24 -20 -24 -35 -5 -10 13 -15 42 -15 82 l0 61 -47 7 c-26 3 -94 1 -150
-6 -95 -11 -104 -10 -123 7 -11 10 -20 31 -20 46 0 18 -6 30 -17 33 -21 6
-318 26 -383 26 l-45 -1 34 -14 c18 -8 51 -15 72 -15 33 0 39 -3 39 -21 0 -21
-3 -22 -79 -15 -44 3 -126 20 -183 36 -122 35 -123 35 -150 10 -25 -23 -54
-13 -68 25 -7 19 -19 25 -57 30 -91 11 -122 24 -139 57 -27 53 -10 58 136 42
287 -32 512 -53 627 -60 l121 -7 46 63 c25 34 46 66 46 71 0 5 14 31 31 58
l30 50 -20 20 c-12 12 -21 28 -21 37 0 9 -7 41 -16 71 -12 41 -22 57 -42 66
-38 16 -72 48 -72 67 0 21 57 70 82 70 24 0 51 -45 46 -75 -3 -14 1 -30 8 -36
7 -6 18 -26 24 -45 13 -39 30 -45 30 -10 0 14 6 31 13 38 35 35 23 102 -17 92
-15 -3 -26 3 -41 26 -11 17 -19 37 -17 45 2 8 -4 15 -13 15 -8 0 -37 15 -63
34 -27 18 -62 41 -78 49 -47 25 -84 66 -84 92 0 28 20 32 65 15 l27 -10 -26
31 c-28 33 -33 58 -14 77 16 16 27 15 34 -3z"/>
<path d="M2500 2109 c-8 -23 -33 -70 -57 -105 -80 -120 -67 -145 36 -68 64 48
101 88 101 110 0 15 -52 104 -61 104 -3 0 -12 -18 -19 -41z"/>
<path d="M2905 2020 c-11 -18 81 -51 143 -51 93 -1 92 1 -13 31 -112 33 -121
34 -130 20z"/>
</g>
</svg>
