<?xml version="1.0" standalone="no"?>
<!DOCTYPE svg PUBLIC "-//W3C//DTD SVG 20010904//EN"
 "http://www.w3.org/TR/2001/REC-SVG-20010904/DTD/svg10.dtd">
<svg version="1.0" xmlns="http://www.w3.org/2000/svg"
 width="480.000000pt" height="360.000000pt" viewBox="0 0 480.000000 360.000000"
 preserveAspectRatio="xMidYMid meet">
<metadata>
Created by potrace 1.16, written by Peter Selinger 2001-2019
</metadata>
<rect width="1" height="360" fill="#000000"/>
<rect x="479" width="1" height="360" fill="#000000"/>
<rect width="480" height="1" fill="#000000"/>
<rect y="359" width="480" height="1" fill="#000000"/>
<g transform="translate(0.000000,360.000000) scale(0.100000,-0.100000)"
fill="#000000" stroke="none">
<path d="M2812 3404 c-7 -3 -19 -19 -27 -35 -8 -15 -43 -47 -78 -70 -87 -58
-136 -118 -202 -250 -39 -76 -42 -91 -20 -83 13 5 14 2 5 -21 -13 -35 -13 -40
4 -26 11 9 15 2 21 -44 7 -56 24 -85 26 -43 1 18 3 17 8 -7 3 -16 15 -34 26
-39 31 -13 57 -54 50 -76 -4 -11 -20 -27 -36 -35 -35 -19 -36 -25 -4 -63 14
-17 25 -40 25 -53 0 -13 20 -62 43 -109 32 -64 48 -86 65 -88 12 -2 22 -10 22
-19 0 -14 4 -12 23 5 29 27 40 28 32 2 -9 -27 1 -25 31 8 18 19 24 22 20 9
-19 -58 -19 -70 -2 -64 28 11 21 -51 -9 -75 -14 -11 -24 -25 -23 -31 3 -13
-79 -92 -124 -120 -39 -25 -198 -206 -197 -225 0 -11 2 -12 6 -4 2 6 9 12 14
12 6 0 5 -9 -1 -21 -17 -31 -7 -42 18 -19 29 28 28 22 -12 -58 -69 -138 -79
-181 -73 -300 4 -66 14 -133 27 -175 12 -38 20 -71 18 -73 -3 -2 -42 12 -89
32 -176 74 -256 102 -312 109 -32 4 -80 15 -105 25 -40 15 -51 25 -70 66 -15
31 -20 50 -13 52 17 6 13 27 -9 47 -12 11 -20 31 -20 51 0 36 18 84 32 84 4 0
8 7 8 15 0 8 -4 15 -10 15 -5 0 -10 7 -10 16 0 8 4 13 8 10 16 -10 50 24 57
55 6 26 1 40 -24 75 -17 24 -34 56 -37 72 -7 29 -31 62 -46 62 -4 0 -16 -9
-25 -20 -12 -14 -30 -20 -56 -20 -47 0 -104 -23 -140 -58 -37 -35 -55 -103
-66 -247 -6 -79 -21 -163 -43 -245 -30 -115 -33 -137 -32 -265 1 -138 12 -203
39 -235 7 -8 18 -35 25 -58 8 -30 15 -42 25 -38 8 3 16 0 18 -7 9 -24 20 4 19
48 l0 45 19 -24 20 -25 -67 -278 c-36 -153 -65 -300 -65 -326 1 -66 24 -96 71
-90 27 4 40 0 54 -16 11 -12 31 -21 49 -21 24 0 41 -12 85 -60 l55 -60 58 0
59 0 -20 32 c-11 18 -20 35 -20 39 0 14 105 41 145 37 37 -5 48 -2 65 17 12
13 37 26 56 29 19 4 34 11 34 16 0 5 10 18 21 29 21 19 21 26 15 113 -4 54
-25 169 -51 273 -24 100 -53 223 -65 275 -11 52 -23 103 -26 112 -4 12 3 21
19 29 22 10 40 1 194 -100 l169 -110 12 -60 c15 -71 8 -120 -43 -336 -32 -135
-67 -295 -80 -363 l-7 -32 621 0 c342 0 621 2 621 4 0 10 -105 256 -135 315
-37 75 -109 195 -197 331 -35 55 -57 102 -62 130 -4 25 -18 77 -31 117 -47
134 -45 434 1 416 13 -5 15 -2 9 18 -11 34 -11 37 4 111 9 46 20 73 38 90 31
28 56 75 48 88 -8 12 19 52 28 43 4 -3 7 -23 7 -44 0 -21 5 -41 10 -44 6 -3
10 1 10 9 0 9 13 27 29 41 27 24 28 29 20 73 -12 62 -79 302 -91 325 -10 20 7
87 22 87 5 0 20 -4 34 -10 19 -7 26 -17 27 -37 l0 -28 10 25 c8 19 12 22 19
10 6 -10 10 -7 15 16 13 57 15 61 28 37 l12 -22 20 29 c14 21 23 26 32 19 9
-8 11 -2 6 26 -6 34 -4 37 15 31 20 -7 21 -5 15 43 -6 53 3 65 27 36 19 -23
23 -10 7 22 -17 32 -38 103 -31 103 3 0 13 -20 24 -45 11 -25 21 -45 23 -45 6
0 -21 129 -29 142 -17 28 -21 129 -7 208 10 56 13 124 10 200 -4 107 -7 122
-46 214 -66 159 -115 212 -256 277 -88 40 -170 53 -273 45 -105 -9 -120 -9
-152 -2 -14 3 -31 3 -38 0z m-1122 -2374 c0 -5 -5 -10 -11 -10 -5 0 -7 5 -4
10 3 6 8 10 11 10 2 0 4 -4 4 -10z m-33 -122 c-3 -8 -6 -5 -6 6 -1 11 2 17 5
13 3 -3 4 -12 1 -19z"/>
</g>
</svg>
