<?xml version="1.0" standalone="no"?>
<!DOCTYPE svg PUBLIC "-//W3C//DTD SVG 20010904//EN"
 "http://www.w3.org/TR/2001/REC-SVG-20010904/DTD/svg10.dtd">
<svg version="1.0" xmlns="http://www.w3.org/2000/svg"
 width="480.000000pt" height="360.000000pt" viewBox="0 0 480.000000 360.000000"
 preserveAspectRatio="xMidYMid meet">
<metadata>
Created by potrace 1.16, written by Peter Selinger 2001-2019
</metadata>
<rect width="1" height="360" fill="#000000"/>
<rect x="479" width="1" height="360" fill="#000000"/>
<rect width="480" height="1" fill="#000000"/>
<rect y="359" width="480" height="1" fill="#000000"/>
<g transform="translate(0.000000,360.000000) scale(0.100000,-0.100000)"
fill="#000000" stroke="none">
<path d="M0 1800 l0 -1800 775 0 c488 0 775 4 775 10 0 9 -88 203 -261 575
-94 201 -101 238 -64 328 20 49 20 49 0 63 -20 15 -20 15 0 30 11 9 27 19 35
24 13 8 12 11 -4 23 -17 13 -19 23 -13 98 6 94 24 157 48 172 16 10 34 4 104
-38 23 -13 41 -16 67 -11 32 6 37 11 43 43 10 57 41 109 81 140 21 15 63 52
95 81 38 34 74 56 103 64 44 12 44 12 50 62 3 28 7 145 8 259 3 230 2 232 -59
221 -28 -5 -48 3 -133 56 -55 34 -100 64 -100 67 0 3 9 16 20 30 16 20 19 34
14 61 -7 39 4 52 48 52 17 0 43 15 73 43 l48 43 -67 66 c-73 73 -86 98 -86
163 0 60 47 108 128 130 31 9 62 18 68 20 5 1 31 39 56 82 53 90 128 165 203
199 83 38 220 57 385 52 119 -4 155 -9 202 -27 80 -31 168 -99 228 -175 45
-58 56 -66 101 -75 77 -17 125 -45 138 -82 26 -74 7 -136 -68 -221 -23 -25
-41 -54 -41 -63 0 -28 41 -97 87 -146 42 -44 49 -62 45 -120 -2 -28 -30 -45
-82 -51 -42 -5 -63 -64 -51 -141 14 -85 28 -235 46 -466 11 -153 18 -199 32
-219 101 -142 143 -251 143 -368 0 -56 6 -91 20 -122 39 -86 35 -123 -22 -204
-11 -15 -6 -30 25 -94 41 -81 39 -96 -8 -108 -14 -4 -25 -13 -25 -21 0 -9 -12
-20 -26 -25 -24 -10 -25 -12 -19 -68 4 -31 13 -91 21 -132 8 -41 17 -121 21
-177 l6 -103 794 0 793 0 0 1800 0 1800 -2400 0 -2400 0 0 -1800z"/>
<path d="M2966 2838 c15 -49 24 -68 32 -68 12 0 42 34 42 47 0 17 -35 43 -59
43 -19 0 -21 -4 -15 -22z"/>
<path d="M1693 2778 c-18 -11 -33 -27 -33 -35 0 -22 38 -81 61 -93 26 -14 45
19 54 93 l7 57 -28 -1 c-16 0 -44 -10 -61 -21z"/>
<path d="M1763 935 c1 -24 5 -41 8 -37 52 64 56 82 14 82 -21 0 -23 -4 -22
-45z"/>
<path d="M1730 870 c-8 -5 -28 -10 -44 -10 -27 0 -28 -2 -22 -33 8 -41 -12
-62 -67 -72 -20 -4 -39 -10 -42 -14 -2 -4 7 -45 21 -92 14 -46 30 -102 36
-124 24 -89 91 -291 101 -303 6 -7 22 -12 36 -10 26 3 26 4 35 123 9 125 2
192 -30 309 -15 55 -15 66 0 139 19 94 14 111 -24 87z"/>
</g>
</svg>
