<?xml version="1.0" standalone="no"?>
<!DOCTYPE svg PUBLIC "-//W3C//DTD SVG 20010904//EN"
 "http://www.w3.org/TR/2001/REC-SVG-20010904/DTD/svg10.dtd">
<svg version="1.0" xmlns="http://www.w3.org/2000/svg"
 width="480.000000pt" height="360.000000pt" viewBox="0 0 480.000000 360.000000"
 preserveAspectRatio="xMidYMid meet">
<metadata>
Created by potrace 1.16, written by Peter Selinger 2001-2019
</metadata>
<rect width="1" height="360" fill="#000000"/>
<rect x="479" width="1" height="360" fill="#000000"/>
<rect width="480" height="1" fill="#000000"/>
<rect y="359" width="480" height="1" fill="#000000"/>
<g transform="translate(0.000000,360.000000) scale(0.100000,-0.100000)"
fill="#000000" stroke="none">
<path d="M0 1800 l0 -1800 818 0 818 0 39 73 c21 39 64 110 95 157 32 47 77
130 101 185 53 123 74 158 134 215 26 25 60 72 77 105 17 33 44 79 61 102 l29
42 -13 128 -14 128 -34 -3 c-44 -3 -54 6 -91 86 -29 63 -42 79 -112 149 -17
17 -28 38 -28 55 0 42 -17 76 -42 83 -69 21 -76 69 -18 115 23 18 49 49 60 70
l19 38 -22 14 c-29 19 -89 40 -95 33 -3 -3 4 -15 16 -28 12 -13 22 -26 22 -29
0 -10 -55 5 -73 20 -20 18 -62 27 -52 12 4 -6 -2 -6 -17 1 -46 21 -136 184
-138 249 0 14 -4 32 -9 39 -8 12 -13 11 -30 -10 -27 -32 -26 -21 4 47 35 80
33 95 -10 54 -19 -18 -37 -32 -39 -29 -9 8 69 201 127 314 31 61 76 135 101
167 80 100 291 227 464 279 23 6 42 16 42 21 0 20 -114 290 -139 330 -69 107
-190 207 -341 283 -30 15 -85 45 -122 66 l-66 39 -761 0 -761 0 0 -1800z"/>
<path d="M2520 3596 c0 -3 6 -35 14 -73 8 -37 31 -179 51 -315 19 -136 38
-254 41 -263 4 -10 19 -15 44 -15 151 0 367 -84 490 -190 30 -26 73 -57 95
-68 22 -11 68 -49 102 -84 52 -53 69 -80 107 -170 98 -230 165 -559 201 -978
39 -460 47 -545 66 -688 11 -83 24 -162 29 -175 5 -12 25 -65 44 -117 45 -122
92 -240 146 -362 l42 -98 404 0 404 0 0 1800 0 1800 -1140 0 c-627 0 -1140 -2
-1140 -4z"/>
</g>
</svg>
