<?xml version="1.0" standalone="no"?>
<!DOCTYPE svg PUBLIC "-//W3C//DTD SVG 20010904//EN"
 "http://www.w3.org/TR/2001/REC-SVG-20010904/DTD/svg10.dtd">
<svg version="1.0" xmlns="http://www.w3.org/2000/svg"
 width="480.000000pt" height="360.000000pt" viewBox="0 0 480.000000 360.000000"
 preserveAspectRatio="xMidYMid meet">
<metadata>
Created by potrace 1.16, written by Peter Selinger 2001-2019
</metadata>
<rect width="1" height="360" fill="#000000"/>
<rect x="479" width="1" height="360" fill="#000000"/>
<rect width="480" height="1" fill="#000000"/>
<rect y="359" width="480" height="1" fill="#000000"/>
<g transform="translate(0.000000,360.000000) scale(0.100000,-0.100000)"
fill="#000000" stroke="none">
<path d="M0 1800 l0 -1800 775 0 c426 0 775 3 775 7 0 12 -129 300 -212 473
-145 301 -155 337 -119 408 25 49 27 78 6 86 -26 10 -17 21 50 60 61 36 86 56
69 56 -5 0 -25 -12 -45 -26 -21 -14 -43 -23 -50 -19 -26 17 15 285 44 285 6 0
33 -16 61 -35 47 -32 55 -34 96 -27 44 7 45 8 66 70 24 69 44 95 119 153 28
21 67 53 87 70 20 17 51 34 70 38 30 6 33 11 40 54 3 25 8 147 10 271 2 175 0
228 -10 238 -11 11 -16 9 -31 -11 -22 -29 -36 -25 -140 37 -106 63 -109 66
-86 92 13 14 19 37 20 68 0 46 0 47 35 50 25 2 47 15 77 44 l42 41 -64 68
c-68 73 -93 126 -81 175 11 43 76 99 132 113 27 7 55 15 62 17 7 2 23 27 36
56 56 126 160 224 275 258 74 22 212 40 314 40 180 0 321 -73 441 -229 41 -53
48 -57 105 -69 101 -21 153 -89 131 -171 -11 -42 -61 -116 -97 -144 -13 -10
-23 -27 -23 -38 0 -30 45 -112 91 -165 37 -43 41 -52 36 -87 -3 -22 -12 -47
-21 -55 -13 -14 -19 -14 -41 -2 -14 7 -26 11 -28 9 -2 -2 -14 -21 -27 -43 -22
-37 -23 -41 -11 -130 19 -151 39 -373 46 -507 4 -70 12 -135 18 -146 7 -11 31
-47 53 -81 73 -108 98 -182 100 -297 2 -78 7 -111 24 -149 27 -59 23 -126 -9
-160 -28 -29 -27 -34 14 -118 36 -75 35 -86 -6 -109 -15 -8 -21 -4 -32 23 -8
19 -17 55 -21 81 -4 26 -11 47 -16 47 -21 0 -17 -38 10 -108 16 -42 30 -81 30
-85 0 -5 -12 -7 -27 -5 l-28 3 3 -80 c2 -44 10 -125 18 -180 7 -55 14 -126 14
-157 l0 -58 815 0 815 0 0 1800 0 1800 -2400 0 -2400 0 0 -1800z"/>
<path d="M2943 2849 c3 -8 13 -44 23 -81 10 -38 22 -68 26 -68 4 0 19 18 34
39 42 64 26 95 -60 117 -22 5 -27 4 -23 -7z"/>
<path d="M1715 2771 c-62 -28 -73 -45 -51 -86 23 -42 96 -114 96 -95 1 27 18
145 25 173 9 33 -10 36 -70 8z"/>
<path d="M1740 951 c0 -27 -25 -101 -35 -101 -2 0 -16 5 -30 12 -35 16 -46 2
-36 -44 10 -45 4 -52 -62 -70 -28 -7 -46 -17 -43 -24 2 -6 25 -83 51 -170 98
-336 104 -350 160 -356 l30 -3 7 85 c13 171 9 262 -12 318 -32 85 -21 198 30
306 16 33 27 63 24 68 -3 4 -23 8 -45 8 -36 0 -39 -2 -39 -29z"/>
</g>
</svg>
