<?xml version="1.0" standalone="no"?>
<!DOCTYPE svg PUBLIC "-//W3C//DTD SVG 20010904//EN"
 "http://www.w3.org/TR/2001/REC-SVG-20010904/DTD/svg10.dtd">
<svg version="1.0" xmlns="http://www.w3.org/2000/svg"
 width="480.000000pt" height="360.000000pt" viewBox="0 0 480.000000 360.000000"
 preserveAspectRatio="xMidYMid meet">
<metadata>
Created by potrace 1.16, written by Peter Selinger 2001-2019
</metadata>
<rect width="1" height="360" fill="#000000"/>
<rect x="479" width="1" height="360" fill="#000000"/>
<rect width="480" height="1" fill="#000000"/>
<rect y="359" width="480" height="1" fill="#000000"/>
<g transform="translate(0.000000,360.000000) scale(0.100000,-0.100000)"
fill="#000000" stroke="none">
<path d="M0 1800 l0 -1800 1042 2 1042 3 30 100 c27 91 29 113 29 250 0 211
-19 388 -56 530 -25 97 -31 140 -31 225 0 99 2 109 33 175 18 39 37 89 42 113
5 24 25 70 44 104 20 33 33 68 30 76 -3 8 2 26 10 39 14 21 14 25 0 39 -21 21
-19 32 11 57 15 12 47 41 73 64 26 23 58 44 73 48 28 7 31 14 43 105 3 25 8
57 11 73 5 25 3 27 -30 27 -30 0 -38 5 -48 28 -7 15 -18 35 -27 45 -17 20 -36
53 -51 87 -6 14 -23 38 -38 53 l-27 28 28 21 c29 21 34 43 13 71 -16 21 -26
22 -26 2 0 -16 -18 -19 -37 -7 -7 5 -24 30 -38 58 -14 27 -24 39 -21 27 2 -13
0 -23 -4 -23 -5 0 -12 28 -16 61 -7 59 -7 61 -23 40 -15 -20 -16 -19 -14 22 4
104 109 283 203 348 30 21 96 51 145 68 246 82 447 52 580 -86 85 -88 110
-129 144 -238 47 -155 56 -254 44 -505 -10 -229 -6 -343 27 -730 20 -242 26
-589 20 -1132 l-2 -268 786 0 786 0 0 1800 0 1800 -2400 0 -2400 0 0 -1800z"/>
</g>
</svg>
