<?xml version="1.0" standalone="no"?>
<!DOCTYPE svg PUBLIC "-//W3C//DTD SVG 20010904//EN"
 "http://www.w3.org/TR/2001/REC-SVG-20010904/DTD/svg10.dtd">
<svg version="1.0" xmlns="http://www.w3.org/2000/svg"
 width="480.000000pt" height="360.000000pt" viewBox="0 0 480.000000 360.000000"
 preserveAspectRatio="xMidYMid meet">
<metadata>
Created by potrace 1.16, written by Peter Selinger 2001-2019
</metadata>
<rect width="1" height="360" fill="#000000"/>
<rect x="479" width="1" height="360" fill="#000000"/>
<rect width="480" height="1" fill="#000000"/>
<rect y="359" width="480" height="1" fill="#000000"/>
<g transform="translate(0.000000,360.000000) scale(0.100000,-0.100000)"
fill="#000000" stroke="none">
<path d="M0 1800 l0 -1800 1076 0 1077 0 -6 58 c-4 31 -23 120 -43 197 -42
160 -54 324 -35 463 10 80 10 81 -22 143 -31 60 -32 67 -31 169 l2 106 -58 26
c-57 25 -58 25 -56 68 1 41 -19 70 -56 82 -7 3 -9 11 -4 24 5 10 8 40 7 66 -3
51 13 68 63 68 14 0 41 10 61 22 34 20 37 24 31 57 -18 111 -18 166 3 199 25
38 54 41 120 12 43 -20 43 -20 76 0 18 11 49 26 68 33 22 7 51 32 78 67 l44
55 3 -957 2 -958 310 0 c186 0 310 4 310 9 0 5 -5 22 -10 36 -6 15 -17 73 -25
129 -9 55 -18 109 -21 119 -8 26 8 21 72 -22 32 -22 62 -37 66 -35 9 6 10 109
2 142 -6 20 -13 22 -64 22 -57 0 -59 1 -65 31 -5 21 -30 53 -71 92 l-64 61 0
83 c0 82 0 83 49 158 73 111 111 222 97 279 -8 32 -60 93 -96 111 -38 20 -44
50 -14 70 31 20 30 40 -1 61 -14 9 -25 20 -25 25 0 5 16 26 35 48 38 42 42 51
22 51 -8 0 -24 12 -38 26 -23 25 -24 30 -20 139 3 116 -6 155 -35 155 -8 0
-40 -14 -70 -30 -29 -17 -54 -27 -54 -23 0 5 18 33 40 63 88 119 89 120 125
120 27 0 39 7 58 33 14 17 28 46 31 63 6 27 10 30 33 26 31 -6 31 -7 -44 95
-52 71 -53 72 -39 105 8 18 26 62 40 98 13 36 48 125 77 198 43 110 51 138 43
160 -7 19 -18 28 -36 30 -23 3 -34 -6 -74 -60 -63 -86 -74 -109 -139 -303 -54
-158 -61 -173 -101 -208 -23 -20 -72 -73 -108 -116 -50 -60 -75 -81 -99 -86
-17 -4 -36 -11 -42 -15 -5 -4 -20 -11 -32 -14 l-23 -7 0 840 0 841 -1200 0
-1200 0 0 -1800z m2911 -707 c32 -35 32 -61 4 -120 -15 -30 -47 -75 -70 -100
-42 -44 -43 -44 -72 -29 -15 8 -44 30 -64 48 -33 29 -36 36 -26 58 10 25 10
25 14 3 6 -33 18 -28 38 17 14 30 23 39 35 35 13 -4 20 2 24 21 5 20 10 24 19
15 17 -17 29 -13 22 9 -3 10 1 33 10 50 17 33 33 31 66 -7z"/>
</g>
</svg>
