<?xml version="1.0" standalone="no"?>
<!DOCTYPE svg PUBLIC "-//W3C//DTD SVG 20010904//EN"
 "http://www.w3.org/TR/2001/REC-SVG-20010904/DTD/svg10.dtd">
<svg version="1.0" xmlns="http://www.w3.org/2000/svg"
 width="480.000000pt" height="360.000000pt" viewBox="0 0 480.000000 360.000000"
 preserveAspectRatio="xMidYMid meet">
<metadata>
Created by potrace 1.16, written by Peter Selinger 2001-2019
</metadata>
<rect width="1" height="360" fill="#000000"/>
<rect x="479" width="1" height="360" fill="#000000"/>
<rect width="480" height="1" fill="#000000"/>
<rect y="359" width="480" height="1" fill="#000000"/>
<g transform="translate(0.000000,360.000000) scale(0.100000,-0.100000)"
fill="#000000" stroke="none">
<path d="M0 1800 l0 -1800 984 0 c929 0 985 1 990 18 12 36 47 428 49 543 l2
120 -27 21 c-16 11 -28 25 -28 31 0 6 -7 19 -17 29 -15 16 -15 18 0 18 10 0
14 6 11 14 -3 8 10 43 29 78 32 57 36 76 51 213 21 196 20 223 -9 330 -37 133
-31 215 26 342 15 34 16 49 8 70 -10 27 0 44 32 55 4 2 9 31 10 65 2 55 -1 65
-22 83 -13 11 -34 25 -46 30 -16 7 -20 15 -16 31 5 19 3 21 -16 16 -15 -4 -36
5 -69 30 -26 20 -51 41 -55 47 -4 6 -6 45 -4 87 3 61 9 86 31 123 56 95 226
189 309 170 163 -35 261 -178 311 -454 28 -155 34 -184 60 -299 14 -62 30
-163 36 -225 6 -61 17 -160 25 -221 7 -60 16 -173 20 -250 7 -180 14 -288 26
-400 23 -217 23 -255 5 -255 -9 0 -19 -6 -22 -13 -4 -12 48 -271 79 -392 l13
-50 1012 -3 1012 -2 0 1062 0 1063 -83 23 c-45 13 -83 27 -85 32 -2 6 -12 10
-22 10 -9 0 -23 6 -29 14 -6 7 -24 16 -40 19 -24 5 -60 25 -166 90 -110 67
-289 251 -377 387 -83 129 -145 295 -178 480 -12 64 -15 352 -5 393 l7 27
-1911 0 -1911 0 0 -1800z"/>
</g>
</svg>
