<?xml version="1.0" standalone="no"?>
<!DOCTYPE svg PUBLIC "-//W3C//DTD SVG 20010904//EN"
 "http://www.w3.org/TR/2001/REC-SVG-20010904/DTD/svg10.dtd">
<svg version="1.0" xmlns="http://www.w3.org/2000/svg"
 width="480.000000pt" height="360.000000pt" viewBox="0 0 480.000000 360.000000"
 preserveAspectRatio="xMidYMid meet">
<metadata>
Created by potrace 1.16, written by Peter Selinger 2001-2019
</metadata>
<rect width="1" height="360" fill="#000000"/>
<rect x="479" width="1" height="360" fill="#000000"/>
<rect width="480" height="1" fill="#000000"/>
<rect y="359" width="480" height="1" fill="#000000"/>
<g transform="translate(0.000000,360.000000) scale(0.100000,-0.100000)"
fill="#000000" stroke="none">
<path d="M3995 3391 c-44 -27 -119 -82 -167 -123 -125 -106 -261 -224 -339
-295 -37 -35 -108 -88 -156 -119 -150 -96 -206 -136 -264 -186 -76 -65 -91
-64 -83 6 6 52 5 57 -24 85 -33 33 -51 37 -84 20 -15 -8 -17 -13 -8 -19 16
-10 7 -52 -16 -75 -12 -12 -25 -14 -52 -8 -21 5 -71 8 -112 7 -66 0 -89 -6
-190 -48 -65 -26 -100 -45 -80 -42 l35 6 -28 -23 c-51 -40 -103 -89 -77 -73
39 25 44 19 16 -19 -25 -33 -43 -99 -40 -150 3 -63 2 -62 27 -33 l23 26 -2
-43 c-2 -52 -9 -65 -34 -65 -12 0 -21 9 -24 23 -21 101 -33 134 -65 184 -67
103 -151 159 -254 170 -29 3 -70 0 -91 -5 -35 -10 -42 -9 -68 12 -17 13 -42
53 -62 97 -17 41 -47 96 -65 123 -91 132 -321 225 -489 197 -173 -28 -332
-180 -406 -390 -27 -77 -30 -98 -31 -206 0 -117 1 -122 34 -190 59 -120 165
-209 306 -257 70 -24 225 -26 297 -4 l45 13 -79 -79 c-44 -43 -90 -86 -104
-94 -26 -17 -31 -43 -12 -62 8 -8 2 -21 -25 -51 -50 -55 -61 -79 -46 -97 18
-22 33 -17 68 26 36 46 48 48 85 19 34 -26 33 -45 -3 -78 -28 -26 -28 -28 -10
-39 10 -7 19 -19 19 -27 0 -9 11 -20 24 -25 22 -8 25 -16 31 -97 11 -158 26
-247 45 -280 10 -17 22 -53 26 -78 6 -44 25 -75 45 -75 5 0 9 -23 9 -51 0 -41
-5 -54 -22 -69 -21 -16 -23 -27 -23 -105 0 -83 1 -88 28 -109 25 -20 27 -26
21 -70 -4 -27 -13 -50 -21 -53 -23 -9 -32 -47 -34 -134 -1 -72 1 -82 20 -95
33 -24 30 -101 -6 -129 -21 -18 -27 -32 -31 -78 -4 -46 -2 -57 10 -57 10 0 17
14 21 41 6 43 17 62 24 42 7 -19 30 -16 38 5 6 15 8 14 16 -7 6 -14 7 -37 4
-53 -5 -21 -3 -28 8 -28 40 0 35 123 -5 136 -18 5 -20 12 -15 57 5 37 13 56
31 71 22 19 25 30 27 96 3 110 2 116 -27 129 -24 11 -26 15 -21 59 4 34 12 52
31 67 23 19 26 28 26 87 0 95 -9 128 -36 139 -21 7 -24 15 -24 55 0 40 5 51
36 79 27 25 47 34 89 39 30 3 106 22 169 41 64 19 117 35 119 35 2 0 -5 -26
-16 -57 -28 -81 -32 -206 -13 -375 26 -219 34 -414 19 -450 -7 -17 -13 -38
-13 -48 0 -9 -13 -34 -30 -55 -17 -21 -30 -44 -30 -51 0 -7 -12 -22 -28 -33
l-27 -20 716 -1 716 0 85 113 c184 245 188 252 188 344 -1 128 -51 213 -238
405 l-124 127 17 153 c31 299 47 415 76 548 29 134 57 236 58 213 1 -7 8 -13
16 -13 8 0 17 -11 21 -25 10 -39 39 -50 64 -23 11 12 20 28 20 35 0 7 7 13 15
13 9 0 19 8 22 18 4 9 14 23 24 29 9 7 24 31 33 54 10 23 26 53 37 67 10 14
19 35 19 47 0 12 6 28 14 34 7 6 17 30 20 53 4 23 12 48 18 56 7 8 12 53 12
107 1 113 -14 140 -90 168 -88 31 -185 10 -267 -59 -22 -18 -33 -21 -51 -14
-13 5 -27 6 -30 3 -3 -4 -6 -2 -6 4 0 6 74 81 165 168 165 157 165 157 195
145 43 -18 94 -6 154 34 28 19 71 43 96 52 67 25 78 38 54 65 -10 12 -43 35
-73 52 l-54 30 42 16 c22 9 49 25 58 34 17 17 17 19 -1 32 -10 8 -24 16 -30
18 -12 4 105 162 192 259 83 93 72 100 -43 29z m-2450 -1393 c14 -6 25 -15 25
-20 0 -12 -18 -10 -25 3 -4 6 -17 14 -29 19 -11 5 -16 9 -9 9 7 1 24 -4 38
-11z m717 -80 c-3 -33 0 -39 35 -59 l39 -22 -59 -161 c-32 -89 -63 -175 -68
-192 -14 -47 -70 -78 -205 -114 -65 -17 -159 -47 -209 -65 -49 -19 -90 -33
-91 -32 -1 1 -11 58 -20 126 l-19 123 30 24 c27 22 28 26 12 35 -34 20 -78
148 -59 173 5 6 15 32 23 59 7 26 16 46 19 44 3 -2 30 -15 62 -30 144 -70 327
-30 448 97 44 46 66 44 62 -6z m-719 -894 c9 -9 -4 -35 -14 -28 -5 3 -9 12 -9
20 0 14 12 19 23 8z m36 -237 c16 10 20 9 25 -10 8 -30 8 -112 -1 -120 -3 -4
-12 -2 -20 5 -10 8 -17 8 -25 0 -23 -23 -28 -12 -28 56 0 70 7 93 22 70 6 -10
12 -10 27 -1z m1196 -129 c5 -37 11 -48 23 -46 48 8 64 -267 23 -404 -11 -38
-18 -68 -16 -68 11 0 39 62 56 123 l19 72 -4 -90 c-5 -89 -20 -155 -36 -155
-20 0 -80 43 -80 58 0 9 -12 33 -27 55 -26 38 -27 41 -27 210 -1 153 2 180 22
246 26 82 36 81 47 -1z m430 -120 c19 -13 35 -26 35 -31 0 -10 -72 -117 -79
-117 -19 0 -31 43 -22 78 5 20 12 49 15 65 8 33 8 33 51 5z m-1628 -100 c12
33 23 5 23 -61 0 -80 -6 -96 -27 -69 -12 16 -14 16 -26 0 -20 -26 -27 -12 -27
53 0 78 6 92 32 76 16 -9 22 -9 25 1z m1343 -346 c0 -16 -6 -37 -14 -47 -13
-18 -14 -18 -25 6 -11 21 -11 22 2 6 13 -16 15 -14 21 23 7 46 16 53 16 12z
m-110 -33 c0 -18 -35 -5 -38 14 -3 16 -1 17 17 7 12 -6 21 -15 21 -21z m-859
-22 c-17 -17 -24 -1 -10 25 12 21 14 21 17 4 2 -10 -1 -23 -7 -29z"/>
</g>
</svg>
