<?xml version="1.0" standalone="no"?>
<!DOCTYPE svg PUBLIC "-//W3C//DTD SVG 20010904//EN"
 "http://www.w3.org/TR/2001/REC-SVG-20010904/DTD/svg10.dtd">
<svg version="1.0" xmlns="http://www.w3.org/2000/svg"
 width="480.000000pt" height="360.000000pt" viewBox="0 0 480.000000 360.000000"
 preserveAspectRatio="xMidYMid meet">
<metadata>
Created by potrace 1.16, written by Peter Selinger 2001-2019
</metadata>
<rect width="1" height="360" fill="#000000"/>
<rect x="479" width="1" height="360" fill="#000000"/>
<rect width="480" height="1" fill="#000000"/>
<rect y="359" width="480" height="1" fill="#000000"/>
<g transform="translate(0.000000,360.000000) scale(0.100000,-0.100000)"
fill="#000000" stroke="none">
<path d="M3000 3580 c0 -24 42 -121 70 -161 24 -33 31 -29 -86 -51 -209 -40
-399 -160 -534 -338 -53 -70 -110 -180 -110 -212 0 -24 -71 -163 -98 -190 -35
-37 -6 -38 37 -2 32 27 37 22 22 -18 -17 -48 -22 -80 -11 -73 8 5 10 -14 5
-66 -5 -56 -3 -70 5 -56 18 27 27 20 34 -25 4 -24 11 -50 17 -58 8 -11 9 -4 5
28 -4 29 -3 41 4 37 5 -3 10 -17 10 -30 0 -26 40 -100 40 -75 1 8 8 2 17 -15
15 -27 17 -28 24 -10 6 18 8 17 18 -10 7 -16 23 -38 36 -48 24 -17 25 -17 26
0 0 11 5 7 12 -12 l12 -30 5 40 c5 32 8 36 15 21 15 -33 -13 -107 -56 -151
-46 -48 -49 -67 -13 -92 57 -39 74 -61 74 -97 0 -36 27 -66 60 -66 9 0 26 -9
39 -21 17 -16 21 -27 16 -51 -6 -24 -2 -36 22 -61 41 -44 83 -120 83 -151 0
-13 -5 -37 -10 -52 -12 -29 2 -48 28 -39 9 3 12 -5 11 -28 -1 -32 22 -211 40
-302 7 -39 6 -57 -5 -81 -19 -40 -62 -81 -72 -68 -86 102 -110 137 -139 197
-19 39 -50 93 -69 119 -32 45 -33 51 -24 91 21 94 3 252 -39 334 -26 53 -82
100 -126 109 -19 3 -84 5 -144 2 l-109 -3 -7 43 c-9 61 -31 49 -27 -15 l2 -50
-88 -32 c-57 -20 -99 -42 -117 -61 -16 -17 -34 -30 -41 -30 -23 0 -54 -89 -70
-206 -5 -28 3 -71 25 -148 17 -60 31 -115 31 -122 0 -7 34 -54 76 -105 72 -86
88 -98 172 -130 l22 -9 -29 -58 c-42 -83 -68 -178 -91 -329 -11 -73 -30 -163
-42 -200 -19 -55 -23 -89 -23 -178 1 -60 4 -127 8 -147 l8 -38 292 0 293 0 23
48 c36 76 104 192 112 192 4 0 5 -42 2 -94 -3 -51 -3 -105 1 -120 6 -25 10
-26 71 -26 61 0 65 2 66 23 l0 22 11 -22 11 -23 756 0 756 0 76 25 c78 25 174
77 162 89 -3 3 -15 6 -25 6 -25 0 -23 7 17 51 50 56 46 62 -27 54 -53 -6 -81
-18 -178 -76 -63 -37 -127 -71 -142 -74 -23 -6 -28 -2 -43 29 -9 19 -14 43
-11 53 3 10 -4 52 -15 93 -11 41 -24 98 -29 125 -12 74 -60 258 -71 271 -5 6
-6 13 -3 16 9 9 -16 88 -27 88 -6 0 -8 7 -5 17 4 9 2 30 -3 47 -5 17 -12 55
-15 84 -4 46 -3 53 11 50 10 -2 23 -25 34 -63 10 -33 18 -51 19 -40 1 18 2 18
13 4 7 -8 19 -18 29 -21 9 -4 25 -32 37 -62 27 -71 81 -179 87 -173 4 4 -4 82
-41 392 l-6 50 35 -64 c38 -68 65 -103 52 -66 -16 44 -65 273 -66 310 -1 22
-1 74 0 115 l2 75 17 -70 c27 -108 67 -210 127 -325 84 -159 99 -167 58 -31
-33 109 -61 248 -51 257 2 3 14 -14 26 -37 30 -57 129 -207 143 -215 8 -5 9 4
4 32 -29 162 -37 233 -46 414 -26 530 -32 623 -46 734 -31 254 -87 481 -169
691 -26 66 -53 149 -61 184 -18 85 -81 211 -145 288 -72 89 -151 127 -262 128
l-80 1 -49 72 -49 72 -314 0 c-307 0 -315 -1 -315 -20z m-482 -1311 c-3 -8 -7
-3 -11 10 -4 17 -3 21 5 13 5 -5 8 -16 6 -23z"/>
</g>
</svg>
