<?xml version="1.0" standalone="no"?>
<!DOCTYPE svg PUBLIC "-//W3C//DTD SVG 20010904//EN"
 "http://www.w3.org/TR/2001/REC-SVG-20010904/DTD/svg10.dtd">
<svg version="1.0" xmlns="http://www.w3.org/2000/svg"
 width="480.000000pt" height="360.000000pt" viewBox="0 0 480.000000 360.000000"
 preserveAspectRatio="xMidYMid meet">
<metadata>
Created by potrace 1.16, written by Peter Selinger 2001-2019
</metadata>
<rect width="1" height="360" fill="#000000"/>
<rect x="479" width="1" height="360" fill="#000000"/>
<rect width="480" height="1" fill="#000000"/>
<rect y="359" width="480" height="1" fill="#000000"/>
<g transform="translate(0.000000,360.000000) scale(0.100000,-0.100000)"
fill="#000000" stroke="none">
<path d="M195 3329 c-13 -37 -23 -51 -41 -55 -28 -7 -27 -4 -10 -44 11 -26 11
-40 1 -74 -10 -35 -22 -48 -78 -85 l-67 -44 0 -573 c0 -492 2 -574 14 -574 26
0 30 -40 7 -61 l-21 -20 0 -899 0 -900 538 0 538 0 -92 188 c-99 202 -141 260
-232 322 -41 28 -50 39 -46 56 4 17 -3 28 -30 49 -37 28 -46 52 -23 60 6 2 30
9 52 15 73 19 73 20 33 107 -43 91 -55 134 -63 223 -7 71 6 203 29 284 44 155
48 177 43 216 -8 65 -80 203 -125 245 -30 27 -39 41 -34 57 5 21 6 21 12 3 5
-15 9 -11 14 20 11 56 16 61 37 34 l19 -24 6 22 c4 13 11 20 20 16 8 -3 14 1
14 11 0 22 17 20 23 -1 6 -25 40 57 57 134 11 53 10 72 -5 140 -18 79 -72 239
-98 290 -14 26 -13 31 13 83 15 30 42 68 59 84 46 44 42 94 -5 75 -21 -7 -26
-5 -34 16 -8 21 -16 24 -65 27 -54 3 -57 5 -78 42 -12 22 -34 51 -49 65 -14
14 -49 52 -78 85 -44 49 -51 62 -45 85 30 108 34 146 19 169 -9 13 -29 28 -45
34 -16 5 -27 13 -24 18 3 4 -8 13 -25 20 -25 11 -29 18 -32 59 l-3 46 -42 1
c-42 2 -42 2 -58 -47z m375 -1504 c0 -8 -4 -15 -10 -15 -5 0 -10 7 -10 15 0 8
5 15 10 15 6 0 10 -7 10 -15z"/>
<path d="M3658 2968 c0 -13 -1 -30 0 -38 0 -9 -10 -2 -24 15 -13 17 -25 26
-25 20 -9 -53 -27 -85 -44 -79 -19 8 -19 -3 0 -22 36 -36 30 -59 -37 -136 -35
-40 -75 -88 -88 -105 -13 -18 -29 -33 -36 -33 -7 0 -17 -7 -22 -16 -6 -11 -17
-15 -31 -11 -23 6 -55 -18 -46 -34 4 -5 -5 -9 -18 -9 -35 0 -40 -24 -10 -51
14 -13 38 -43 53 -67 l28 -43 -28 -109 c-33 -126 -60 -183 -96 -206 -17 -12
-22 -20 -15 -27 8 -8 3 -19 -16 -39 l-27 -28 27 0 c28 0 34 -9 16 -27 -7 -7 0
-21 25 -48 20 -21 36 -46 36 -56 0 -23 9 -24 37 -4 19 13 22 13 27 0 6 -16
-33 -37 -92 -48 -63 -13 -71 -48 -22 -92 12 -11 31 -36 42 -55 10 -19 37 -60
59 -90 21 -30 46 -65 55 -77 12 -17 16 -50 17 -145 l1 -123 -46 -89 c-53 -100
-52 -117 8 -142 38 -16 43 -30 14 -39 -15 -5 -18 -12 -14 -34 4 -20 -3 -44
-26 -85 -47 -84 -58 -128 -90 -386 -26 -204 -47 -329 -66 -392 -5 -17 27 -18
575 -18 355 0 581 4 581 9 0 9 -23 62 -170 381 -109 240 -156 334 -199 400
-23 35 -44 73 -47 85 -3 13 16 59 55 130 66 120 100 209 110 288 l6 50 66 27
66 27 99 -59 c54 -33 106 -66 114 -74 9 -7 35 -20 58 -28 48 -17 81 -10 120
26 32 31 28 66 -18 150 -22 40 -40 76 -40 79 0 3 11 4 25 1 36 -6 69 4 104 34
26 22 31 33 31 71 0 24 -5 53 -11 64 -9 18 -6 18 40 -6 l51 -25 0 79 0 79 -49
7 c-54 7 -111 37 -111 59 0 7 6 19 14 25 8 7 12 21 9 31 -7 25 -94 90 -121 90
-11 0 -22 6 -25 13 -3 9 -7 9 -20 -2 -13 -10 -20 -11 -31 -2 -22 19 -64 -14
-78 -60 -6 -21 -13 -39 -15 -39 -2 0 -40 9 -85 21 -57 15 -98 20 -137 16 -44
-4 -73 0 -133 20 -71 24 -78 28 -78 52 1 44 17 112 29 124 9 9 11 8 5 -6 -11
-30 28 -17 49 16 9 15 21 26 25 23 5 -3 19 24 31 59 l23 64 -25 53 -24 54 20
53 c11 29 33 66 49 83 34 36 33 63 -2 64 -32 1 -72 18 -89 38 -7 9 -22 16 -32
16 -10 0 -21 5 -24 11 -4 5 -19 8 -34 4 -22 -5 -41 5 -111 60 -46 36 -87 65
-92 65 -4 0 -8 4 -8 10 0 5 7 7 15 4 8 -4 15 -1 15 5 0 6 -4 11 -9 11 -14 0
-32 64 -25 86 7 18 7 18 -13 1 -24 -21 -33 -14 -33 29 0 38 -19 57 -22 22z
m274 -1045 c16 -15 18 -15 18 0 0 14 6 13 50 -5 36 -15 49 -25 45 -35 -3 -8
-8 -26 -11 -40 -4 -16 -11 -22 -21 -19 -8 4 -33 9 -56 12 -45 7 -117 39 -117
53 0 16 13 21 27 10 10 -9 13 -6 13 15 0 31 24 35 52 9z m298 -88 c25 -9 50
-22 57 -28 13 -14 0 -57 -19 -57 -6 0 -21 -9 -33 -20 -25 -23 -65 -17 -65 10
0 28 -11 50 -25 50 -26 0 -35 25 -18 49 17 25 26 24 103 -4z m396 -170 c11
-16 14 -36 11 -55 -5 -23 -3 -28 8 -23 18 6 20 -8 3 -25 -16 -16 -55 -15 -60
1 -8 21 -10 106 -3 117 10 16 23 12 41 -15z"/>
</g>
</svg>
