<?xml version="1.0" standalone="no"?>
<!DOCTYPE svg PUBLIC "-//W3C//DTD SVG 20010904//EN"
 "http://www.w3.org/TR/2001/REC-SVG-20010904/DTD/svg10.dtd">
<svg version="1.0" xmlns="http://www.w3.org/2000/svg"
 width="480.000000pt" height="360.000000pt" viewBox="0 0 480.000000 360.000000"
 preserveAspectRatio="xMidYMid meet">
<metadata>
Created by potrace 1.16, written by Peter Selinger 2001-2019
</metadata>
<rect width="1" height="360" fill="#000000"/>
<rect x="479" width="1" height="360" fill="#000000"/>
<rect width="480" height="1" fill="#000000"/>
<rect y="359" width="480" height="1" fill="#000000"/>
<g transform="translate(0.000000,360.000000) scale(0.100000,-0.100000)"
fill="#000000" stroke="none">
<path d="M0 2635 c0 -531 4 -965 8 -965 24 0 205 144 316 250 139 133 128 129
216 85 25 -13 101 -48 170 -78 69 -31 166 -78 215 -107 294 -167 397 -188 628
-130 l88 23 72 -22 c40 -11 80 -21 89 -21 10 0 47 42 90 102 92 130 136 172
218 209 130 59 135 63 133 105 -3 42 -26 84 -47 84 -8 0 -16 9 -19 20 -3 11
-12 20 -21 20 -13 0 -16 -12 -17 -62 -1 -35 -5 -74 -9 -88 -8 -24 -8 -23 -9 8
-1 37 -17 43 -24 10 -2 -13 -5 3 -6 34 -1 63 -16 85 -25 38 -3 -16 -9 -43 -12
-60 -8 -44 -24 -47 -24 -5 0 36 -16 159 -27 205 -5 22 -6 23 -12 6 -6 -15 -10
-11 -26 23 -20 46 -29 50 -45 21 -17 -33 -28 -23 -23 20 l6 41 -27 -11 c-15
-5 -36 -15 -47 -20 -23 -13 -25 2 -2 21 24 20 73 101 67 110 -8 14 -36 11 -53
-5 -14 -13 -22 -13 -58 4 -23 10 -50 16 -60 14 -11 -3 -28 5 -43 22 l-25 26
30 22 c56 39 124 115 149 165 24 47 25 52 11 92 -30 83 -12 239 40 344 35 73
104 128 193 155 55 17 94 21 217 21 83 0 202 1 265 1 98 1 124 -2 175 -22 74
-29 156 -108 191 -183 l24 -54 36 33 c19 19 45 34 57 34 31 0 113 -49 173
-104 60 -53 88 -107 104 -197 6 -35 18 -81 26 -102 16 -44 14 -51 -26 -72 -19
-10 -31 -26 -35 -47 -4 -18 -12 -39 -17 -48 -7 -10 -3 -35 12 -80 29 -86 73
-324 60 -328 -6 -2 -10 -20 -10 -41 0 -35 -45 -184 -69 -229 -7 -13 -17 -19
-26 -16 -11 5 -15 -2 -15 -26 0 -18 -4 -29 -10 -25 -5 3 -10 -4 -11 -17 -1
-22 -2 -21 -12 5 -6 15 -14 27 -19 27 -4 0 -9 15 -9 33 -1 19 -3 24 -6 12 -14
-69 -14 -70 -23 -55 -4 8 -11 35 -15 59 l-7 45 -13 -30 c-14 -33 -17 -29 -34
64 -7 34 -20 82 -31 107 -28 66 -42 159 -34 231 6 60 5 64 -14 64 -11 0 -28 3
-38 7 -15 5 -16 2 -10 -30 4 -22 3 -37 -3 -37 -5 0 -11 -12 -13 -27 l-3 -28
-25 37 c-26 39 -40 48 -40 24 0 -21 -27 -40 -33 -24 -9 25 -56 -127 -58 -187
l-1 -30 -12 29 -13 29 -11 -34 c-6 -19 -14 -51 -18 -71 -10 -57 -19 -46 -17
19 l2 58 -12 -60 -13 -60 -6 55 c-3 30 -4 82 -2 115 l3 59 -19 -28 c-10 -16
-29 -38 -43 -50 -26 -22 -52 -88 -44 -110 3 -7 45 -34 94 -59 124 -65 136 -75
195 -153 159 -209 143 -198 257 -166 l64 18 81 -24 c66 -21 104 -25 206 -26
118 -1 129 1 200 30 41 18 124 59 185 93 60 34 159 82 220 107 60 25 148 63
195 85 101 46 85 53 236 -98 97 -96 207 -188 287 -238 l27 -17 0 996 0 996
-2400 0 -2400 0 0 -965z"/>
<path d="M2950 2585 c-39 -87 -37 -121 9 -152 32 -21 36 -22 44 -7 13 23 4
201 -11 216 -9 9 -19 -5 -42 -57z"/>
<path d="M3021 2234 c0 -11 3 -14 6 -6 3 7 2 16 -1 19 -3 4 -6 -2 -5 -13z"/>
<path d="M3252 2005 c-1 -22 -5 -51 -7 -65 l-6 -25 11 25 c6 13 9 42 7 65 l-4
40 -1 -40z"/>
<path d="M414 1855 c-44 -52 -46 -56 -30 -74 9 -10 14 -25 11 -33 -4 -9 4 -21
19 -32 14 -9 42 -42 62 -73 l37 -58 -7 -96 c-6 -104 -33 -350 -41 -386 -8 -37
-24 -27 -50 30 -75 167 -165 392 -165 411 0 35 30 129 48 149 8 9 12 20 9 23
-3 4 -30 -15 -59 -41 -29 -26 -87 -70 -130 -98 -85 -55 -100 -84 -54 -105 13
-6 40 -38 61 -72 l38 -62 -12 -131 c-33 -372 -31 -357 -52 -357 -5 0 -29 42
-53 93 l-45 92 0 -517 -1 -518 879 0 879 0 21 83 c39 148 87 290 140 408 39
88 51 126 50 160 -1 24 2 103 6 174 4 76 3 140 -2 154 -9 22 -11 18 -27 -39
-13 -44 -23 -64 -37 -67 -10 -3 -19 -9 -19 -13 0 -4 -19 -29 -42 -55 -26 -30
-116 -96 -242 -180 -277 -182 -307 -199 -421 -244 -55 -21 -140 -55 -189 -76
-84 -35 -94 -37 -170 -33 -61 3 -101 12 -161 37 -86 34 -160 80 -157 96 1 6
46 10 110 10 93 1 121 5 210 33 141 45 188 97 86 97 -41 0 -49 3 -52 20 -4 31
44 53 134 61 61 5 89 2 124 -11 25 -9 52 -19 61 -21 15 -5 419 309 419 326 0
5 -41 107 -91 227 l-92 218 11 69 c6 41 19 81 32 98 33 45 15 58 -84 58 -44 0
-104 -3 -133 -6 l-52 -7 28 -41 c64 -93 62 -77 35 -337 -26 -247 -28 -259 -43
-259 -9 0 -58 111 -147 334 l-47 118 16 77 c10 42 24 81 32 87 8 6 15 25 15
41 0 27 -9 36 -77 81 -87 57 -178 102 -207 102 -19 0 -19 -1 1 -22 12 -13 35
-48 53 -78 31 -52 32 -57 25 -130 -14 -162 -46 -415 -54 -423 -14 -14 -28 14
-117 237 l-87 220 17 70 c9 39 23 77 30 86 8 8 16 27 18 42 3 25 -4 30 -99 77
-55 28 -106 51 -111 51 -6 0 -32 -25 -58 -55z"/>
<path d="M4208 1822 c-94 -46 -96 -48 -91 -77 4 -16 10 -32 15 -36 4 -3 19
-38 33 -78 l24 -73 -70 -221 c-38 -122 -75 -235 -81 -250 -24 -62 -42 -15 -72
193 -9 63 -24 156 -32 206 l-15 91 32 68 c18 37 38 69 46 72 15 6 18 33 3 33
-25 0 -122 -47 -196 -95 -89 -58 -104 -84 -73 -120 10 -11 26 -54 36 -95 l19
-75 -22 -60 c-12 -33 -36 -98 -52 -145 -17 -47 -45 -127 -64 -179 -33 -95 -50
-117 -62 -84 -4 10 -16 96 -27 193 -11 96 -24 205 -29 243 -10 66 -9 69 25
136 19 38 40 71 47 73 24 8 -138 29 -201 26 -78 -4 -96 -21 -64 -62 15 -19 23
-48 28 -99 l7 -72 -77 -170 c-42 -93 -85 -189 -95 -212 l-19 -42 163 -115 c90
-64 174 -120 188 -125 14 -5 43 -6 69 -1 30 6 68 4 119 -7 83 -17 116 -31 143
-61 34 -38 -5 -68 -55 -41 -27 15 -44 -2 -29 -29 16 -30 164 -110 245 -133 39
-10 97 -19 128 -19 68 0 75 -14 28 -54 -60 -50 -186 -67 -303 -41 -62 14 -102
32 -193 87 -63 38 -138 77 -167 87 -69 24 -105 43 -333 172 -205 116 -280 174
-308 237 -14 31 -23 39 -41 38 -31 -1 -34 -22 -18 -131 8 -49 11 -104 8 -120
-4 -23 8 -60 49 -150 63 -141 94 -227 137 -387 l31 -118 879 0 879 0 -1 418
c0 348 -3 411 -13 382 -14 -39 -41 -51 -50 -23 -10 33 -87 457 -88 483 -1 32
56 146 79 159 10 5 18 21 18 36 1 21 -11 34 -68 72 -38 25 -95 70 -128 100
-56 52 -75 61 -44 19 8 -10 24 -47 35 -82 l21 -63 -36 -118 c-20 -65 -45 -143
-55 -173 -10 -30 -26 -83 -35 -117 -19 -68 -40 -97 -55 -73 -9 15 -16 50 -61
313 l-32 188 29 61 c16 33 41 71 56 83 16 13 28 32 28 41 0 10 6 25 14 33 13
14 9 23 -31 71 -25 30 -53 56 -62 57 -9 1 -59 -19 -113 -45z"/>
<path d="M1566 1572 c-3 -6 5 -17 18 -25 13 -9 38 -42 56 -74 l33 -58 -17
-225 c-9 -124 -16 -231 -16 -238 0 -15 80 36 80 52 1 43 24 164 45 232 14 45
25 86 25 90 0 5 -14 17 -30 26 -32 18 -41 55 -15 64 29 11 38 44 19 65 -9 10
-17 33 -18 51 -1 18 -5 36 -9 39 -14 10 -165 11 -171 1z"/>
<path d="M3087 1563 c-34 -4 -37 -6 -31 -29 5 -18 0 -34 -15 -54 -23 -32 -20
-56 12 -82 18 -14 19 -18 7 -33 -7 -9 -26 -23 -40 -30 l-27 -14 24 -88 c13
-48 27 -123 31 -167 7 -77 8 -79 44 -99 20 -12 38 -20 41 -17 2 3 0 105 -5
228 l-9 223 31 52 c17 28 44 62 58 75 44 37 6 48 -121 35z"/>
</g>
</svg>
