<?xml version="1.0" standalone="no"?>
<!DOCTYPE svg PUBLIC "-//W3C//DTD SVG 20010904//EN"
 "http://www.w3.org/TR/2001/REC-SVG-20010904/DTD/svg10.dtd">
<svg version="1.0" xmlns="http://www.w3.org/2000/svg"
 width="480.000000pt" height="360.000000pt" viewBox="0 0 480.000000 360.000000"
 preserveAspectRatio="xMidYMid meet">
<metadata>
Created by potrace 1.16, written by Peter Selinger 2001-2019
</metadata>
<rect width="1" height="360" fill="#000000"/>
<rect x="479" width="1" height="360" fill="#000000"/>
<rect width="480" height="1" fill="#000000"/>
<rect y="359" width="480" height="1" fill="#000000"/>
<g transform="translate(0.000000,360.000000) scale(0.100000,-0.100000)"
fill="#000000" stroke="none">
<path d="M2503 2855 c-8 -8 -9 -16 -3 -20 5 -3 7 -12 4 -19 -3 -7 2 -16 10
-19 13 -5 13 -13 -4 -62 -11 -31 -31 -70 -45 -86 -32 -39 -31 -50 3 -70 20
-11 31 -30 44 -75 24 -82 27 -139 8 -139 -25 0 -39 -42 -27 -78 19 -53 61
-112 84 -115 31 -5 47 -52 39 -117 -4 -35 -2 -55 4 -55 18 0 11 -40 -15 -78
-14 -21 -32 -69 -41 -107 -28 -119 -65 -237 -94 -301 -49 -107 -47 -147 9
-198 l20 -19 -25 -43 c-16 -26 -28 -66 -31 -101 -3 -32 -11 -67 -16 -78 -6
-11 -12 -33 -13 -50 -1 -16 -7 -56 -14 -88 -6 -32 -10 -74 -8 -95 2 -31 9 -40
36 -54 45 -22 83 -75 76 -104 -9 -34 12 -62 66 -89 39 -20 64 -25 122 -25 40
0 90 -6 113 -14 57 -20 215 -55 295 -65 68 -9 114 -30 124 -57 8 -20 40 -17
61 6 20 22 17 24 -47 35 -42 7 -104 42 -113 65 -4 10 7 27 32 48 43 38 38 47
-37 58 -25 3 -75 15 -112 26 -78 23 -91 48 -36 67 17 6 46 23 65 37 29 22 34
31 31 62 -4 50 -37 65 -156 70 -88 4 -93 6 -98 29 -4 15 0 30 10 42 12 13 14
24 8 41 -6 16 -4 40 5 69 8 25 18 80 21 121 6 64 10 75 27 78 56 9 138 55 162
91 28 41 23 70 -29 175 -22 44 -59 139 -83 211 -23 72 -49 141 -56 153 -11 18
-11 27 -1 54 22 57 27 197 8 242 -9 21 -16 39 -16 40 0 0 54 0 121 -1 66 -2
129 2 139 7 31 17 34 47 7 82 -48 65 -51 77 -26 105 22 23 23 26 8 52 -16 27
-16 28 10 23 14 -3 41 -18 59 -34 19 -16 41 -28 50 -26 61 12 45 198 -17 198
-10 0 -31 -16 -46 -36 -29 -38 -79 -65 -104 -56 -9 2 -23 13 -31 22 -34 41
-90 28 -90 -21 0 -10 -6 -19 -13 -19 -7 0 -30 -9 -52 -20 -45 -23 -93 -26
-101 -7 -2 7 2 25 9 40 17 33 13 84 -9 108 -12 14 -15 30 -10 66 l6 49 -45 -1
c-24 -1 -47 -4 -51 -8 -11 -11 -88 24 -115 53 -19 20 -31 25 -42 18 -13 -7
-15 -5 -11 7 7 19 3 19 -13 0z m452 -365 c9 -15 -13 -40 -35 -40 -22 0 -44 25
-35 40 3 5 19 10 35 10 16 0 32 -5 35 -10z m142 -5 c9 -24 -1 -27 -15 -5 -8
13 -8 20 -2 20 6 0 13 -7 17 -15z m-225 -31 c16 -35 16 -35 -7 -46 -13 -6 -34
-8 -47 -5 -18 5 -23 13 -22 34 2 50 4 53 32 53 21 -1 31 -8 44 -36z m-306 -92
c-4 -3 -11 0 -16 8 -15 24 -11 33 6 15 9 -9 13 -19 10 -23z m189 -1147 c-2
-129 -12 -271 -22 -290 -9 -15 -33 -24 -108 -38 -57 -11 -101 -15 -106 -10
-16 16 -32 124 -20 136 6 6 11 21 11 34 0 30 54 166 86 218 12 18 21 19 86 15
l73 -5 0 -60z m289 -591 c23 -9 20 -22 -11 -38 -20 -10 -50 -12 -105 -8 -78 5
-92 14 -66 40 13 13 153 17 182 6z"/>
<path d="M1306 2795 c-3 -8 -12 -15 -19 -15 -9 0 -17 -15 -21 -39 -5 -35 -13
-43 -73 -81 -49 -30 -73 -40 -91 -35 -13 3 -30 1 -38 -5 -11 -10 -11 -15 2
-35 20 -31 20 -73 1 -117 -16 -35 -16 -37 7 -70 13 -19 27 -57 31 -84 8 -55
21 -84 36 -84 6 0 7 5 4 11 -4 6 2 5 13 -2 25 -16 19 -29 -13 -29 -53 0 -84
-60 -99 -190 -2 -14 -9 -47 -16 -73 -13 -51 -46 -80 -129 -114 -20 -9 -48 -24
-63 -34 -16 -12 -52 -22 -91 -26 -57 -5 -74 -2 -162 31 -125 47 -134 52 -145
82 -8 21 -16 24 -57 24 -27 0 -111 -11 -188 -25 -217 -38 -195 -29 -195 -85 0
-26 6 -52 13 -58 6 -6 52 -28 102 -50 84 -37 240 -107 628 -281 87 -39 171
-71 185 -71 15 0 48 7 75 15 26 8 47 10 47 5 0 -20 -35 -96 -57 -126 -20 -27
-21 -32 -8 -51 13 -19 13 -26 0 -63 -31 -88 -25 -105 74 -200 49 -47 93 -95
96 -108 4 -13 18 -28 31 -34 31 -14 30 -24 -3 -46 -80 -50 -124 -89 -130 -112
-3 -14 -11 -31 -16 -38 -8 -10 -7 -16 6 -23 25 -15 21 -23 -24 -54 -56 -40
-68 -64 -40 -86 11 -9 21 -21 21 -27 0 -11 -133 -79 -173 -88 -31 -7 -35 -4
-259 154 -64 45 -125 82 -136 82 -21 0 -346 -111 -382 -130 -11 -6 -20 -14
-20 -19 0 -8 324 -279 419 -351 l46 -35 348 3 c191 1 347 6 347 11 0 5 -43 36
-95 71 -137 91 -140 97 -40 107 46 5 65 1 116 -22 56 -25 69 -27 131 -20 86 8
112 19 163 66 24 22 58 42 85 49 25 7 58 19 73 27 40 20 107 83 107 99 0 30
-124 99 -221 124 -42 11 -48 16 -68 62 -15 34 -20 60 -16 81 5 24 1 38 -14 55
-11 13 -23 42 -26 64 -10 55 -27 94 -69 155 -20 29 -36 55 -36 58 0 3 19 33
42 65 34 49 48 61 77 66 20 3 49 10 65 15 16 5 41 9 55 9 36 0 166 65 185 91
19 27 10 45 -50 111 -54 58 -123 164 -159 245 -15 34 -42 76 -61 93 -36 32
-41 49 -22 68 9 9 8 24 -2 66 -16 69 -9 150 18 207 12 25 22 53 22 63 0 9 -20
39 -46 66 l-45 48 31 7 c56 12 75 93 45 191 -8 27 -15 50 -15 51 0 2 14 16 31
33 18 16 28 31 23 31 -5 1 -16 2 -24 3 -8 0 -14 7 -13 14 2 6 -3 12 -10 12 -6
0 -22 19 -34 41 -20 37 -21 43 -8 62 23 33 18 52 -20 86 -19 17 -35 40 -35 51
0 23 -15 27 -24 5z m38 -111 c5 -14 4 -15 -9 -4 -17 14 -19 20 -6 20 5 0 12
-7 15 -16z m-209 -994 c4 -7 -16 -61 -30 -78 -1 -1 -21 6 -45 16 l-43 18 44
27 c48 28 64 32 74 17z m35 -590 c0 -16 -22 -70 -29 -70 -4 0 -16 6 -26 14
-18 13 -18 14 4 44 13 19 27 29 36 25 8 -3 15 -8 15 -13z m120 -453 c0 -8 9
-22 20 -32 28 -25 25 -43 -7 -51 -16 -3 -49 -12 -75 -20 -27 -7 -48 -9 -48 -4
0 10 80 80 92 80 5 0 6 9 3 20 -4 11 -2 20 4 20 6 0 11 -6 11 -13z m-189 -308
c35 -25 36 -40 7 -73 -21 -24 -30 -26 -123 -28 -92 -3 -100 -2 -100 16 0 13
24 31 80 62 44 24 86 43 93 44 8 0 27 -9 43 -21z"/>
<path d="M4053 2762 c34 -37 17 -72 -35 -72 -11 0 -18 -5 -16 -12 3 -7 -24
-35 -60 -63 -106 -82 -100 -79 -117 -65 -29 24 -33 -1 -8 -45 24 -44 24 -47 9
-79 -20 -42 -20 -59 -2 -94 7 -15 16 -44 20 -64 4 -21 13 -44 21 -52 13 -13
13 -15 -5 -21 -11 -4 -38 -5 -60 -4 -30 2 -43 -2 -54 -16 -10 -14 -30 -20 -75
-23 l-61 -4 5 45 6 46 -38 10 c-21 6 -41 11 -45 11 -15 0 -61 -57 -79 -98 -23
-53 -23 -52 0 -52 21 0 21 -13 0 -77 -9 -29 -8 -37 7 -54 23 -25 88 -25 156 1
29 11 54 20 54 20 7 0 42 -85 38 -92 -7 -12 18 -81 35 -94 12 -9 11 -12 -3
-17 -14 -6 -14 -10 -4 -27 16 -25 38 -25 71 0 16 13 28 16 32 10 11 -17 -4
-45 -34 -68 -16 -11 -50 -61 -77 -109 -26 -48 -73 -123 -105 -165 -104 -141
-108 -228 -11 -267 15 -6 41 -16 57 -22 17 -7 50 -19 74 -28 42 -15 46 -20 58
-66 11 -45 10 -52 -6 -70 -25 -27 -57 -93 -66 -135 -4 -19 -14 -46 -23 -60 -9
-14 -20 -45 -24 -70 -20 -102 -18 -99 -64 -119 -37 -17 -44 -24 -44 -48 0 -56
39 -84 203 -144 31 -11 55 -25 52 -30 -8 -13 -107 -1 -184 22 -71 21 -107 24
-116 9 -4 -6 1 -30 10 -54 13 -33 14 -49 6 -64 -13 -25 0 -38 51 -47 34 -6 38
-5 53 25 9 17 15 41 13 53 -3 26 1 25 65 -2 26 -11 50 -28 54 -38 3 -10 15
-28 27 -41 19 -21 19 -24 4 -33 -9 -5 -24 -23 -32 -41 -15 -29 -15 -33 0 -50
10 -10 23 -18 29 -18 7 0 23 -8 35 -18 25 -20 18 -52 -11 -52 -10 0 -19 -4
-19 -9 0 -15 42 -20 110 -15 71 6 83 15 102 76 14 46 24 50 90 36 48 -10 57
-9 96 11 23 12 42 27 42 33 0 6 9 21 20 33 28 30 16 60 -39 93 -45 28 -47 32
-61 98 -7 38 -13 89 -12 113 1 24 -1 48 -4 53 -4 6 -7 31 -8 57 -1 25 -12 68
-25 95 -20 42 -21 52 -10 72 9 18 10 30 1 49 -8 17 -8 33 -1 54 10 29 8 92 -7
175 -6 33 -3 41 21 64 25 23 27 29 21 76 -4 28 -11 139 -15 246 -5 107 -14
210 -21 228 -10 28 -10 36 4 51 12 13 16 45 19 137 2 70 9 129 16 142 12 23
17 69 10 107 -4 17 3 21 56 27 33 4 131 8 217 10 125 2 159 6 163 17 3 8 -1
21 -8 29 -12 12 -38 12 -163 3 -82 -6 -184 -14 -227 -17 l-77 -5 35 58 c38 63
45 120 24 181 -9 28 -7 35 18 69 21 27 23 35 11 30 -10 -3 -18 -2 -18 4 0 6
-4 8 -9 4 -6 -3 -15 5 -22 17 -7 13 -32 49 -57 80 -41 53 -43 58 -28 73 31 32
10 95 -31 95 -14 0 -14 -2 0 -18z m-61 -1743 c12 -32 20 -90 22 -144 2 -49 5
-94 6 -100 2 -5 -2 -23 -9 -39 -6 -16 -10 -50 -9 -75 l3 -46 -40 1 c-118 3
-171 8 -182 17 -18 13 -16 45 2 63 8 9 15 25 15 36 0 12 21 57 48 100 26 43
57 96 69 116 14 22 23 54 23 78 0 75 25 72 52 -7z"/>
</g>
</svg>
