<?xml version="1.0" standalone="no"?>
<!DOCTYPE svg PUBLIC "-//W3C//DTD SVG 20010904//EN"
 "http://www.w3.org/TR/2001/REC-SVG-20010904/DTD/svg10.dtd">
<svg version="1.0" xmlns="http://www.w3.org/2000/svg"
 width="480.000000pt" height="360.000000pt" viewBox="0 0 480.000000 360.000000"
 preserveAspectRatio="xMidYMid meet">
<metadata>
Created by potrace 1.16, written by Peter Selinger 2001-2019
</metadata>
<rect width="1" height="360" fill="#000000"/>
<rect x="479" width="1" height="360" fill="#000000"/>
<rect width="480" height="1" fill="#000000"/>
<rect y="359" width="480" height="1" fill="#000000"/>
<g transform="translate(0.000000,360.000000) scale(0.100000,-0.100000)"
fill="#000000" stroke="none">
<path d="M0 1800 l0 -1800 1618 0 1619 0 57 85 57 86 -56 24 c-31 14 -59 25
-63 25 -4 0 -18 -12 -31 -25 -31 -33 -54 -31 -85 6 -28 33 -32 59 -16 89 9 17
-8 28 -177 114 -104 53 -251 131 -328 174 -153 85 -167 103 -126 153 l20 24
33 -19 c190 -112 594 -316 623 -316 8 0 15 7 15 15 0 21 40 55 65 55 34 0 69
-45 68 -86 -1 -34 1 -36 69 -69 55 -27 74 -32 89 -24 11 5 19 14 19 18 0 5 28
32 63 59 47 38 65 60 75 91 20 66 16 107 -14 134 -21 20 -24 28 -16 44 22 40
24 117 7 213 -30 166 -30 171 -2 227 14 27 27 62 29 78 3 25 -2 29 -39 42 -63
21 -133 89 -140 135 -9 62 5 106 48 149 67 67 60 74 -171 171 -63 26 -161 60
-218 74 -144 36 -203 64 -261 125 -27 28 -53 49 -59 45 -5 -3 -13 -31 -17 -61
-4 -35 -11 -55 -19 -55 -23 0 -38 27 -34 62 l3 33 -120 6 c-207 11 -1119 10
-1437 -1 -274 -10 -647 -31 -803 -46 l-60 -5 42 39 c121 113 509 147 1622 145
377 -1 699 -4 717 -7 l32 -6 7 55 c4 37 11 55 20 55 19 0 35 -32 35 -71 0 -26
2 -29 14 -20 8 7 37 12 65 13 28 0 54 4 57 9 3 5 18 9 34 9 16 0 32 4 35 10
11 19 28 10 69 -35 l41 -45 100 -6 100 -6 40 62 c66 102 202 195 340 230 43
11 83 24 89 29 27 21 118 43 201 48 80 5 92 3 106 -13 14 -16 15 -28 6 -80
-15 -87 -6 -111 51 -135 90 -39 100 -62 52 -127 -16 -23 -30 -47 -30 -54 1
-30 58 -115 98 -145 24 -18 38 -33 30 -33 -35 -1 -40 -16 -21 -57 21 -44 20
-63 -5 -63 -10 0 -23 -10 -31 -22 -13 -20 -11 -24 22 -52 46 -40 57 -70 57
-162 0 -67 -4 -82 -36 -142 -34 -64 -36 -71 -30 -137 12 -154 48 -321 116
-550 23 -77 45 -150 47 -162 6 -26 -25 -48 -79 -58 -31 -6 -38 -11 -38 -31 0
-24 34 -55 54 -49 6 2 118 38 249 80 l237 76 -2 1122 -3 1121 -45 8 c-191 33
-342 173 -477 443 -62 124 -80 166 -139 333 l-47 132 -2044 0 -2043 0 0 -1800z
m3758 1013 c2 -8 -5 -13 -17 -13 -12 0 -21 6 -21 16 0 18 31 15 38 -3z"/>
<path d="M4232 3583 c22 -25 100 -184 133 -268 32 -84 69 -158 99 -198 54 -73
187 -137 286 -137 l50 0 0 310 0 310 -292 0 c-276 0 -290 -1 -276 -17z"/>
<path d="M3133 1895 c55 -31 105 -45 116 -31 21 25 -6 40 -76 43 -67 4 -67 3
-40 -12z"/>
<path d="M4740 169 c-24 -10 -97 -32 -260 -79 -122 -36 -131 -40 -128 -64 3
-21 8 -21 226 -24 l222 -2 0 90 c0 98 -3 102 -60 79z"/>
</g>
</svg>
