<?xml version="1.0" standalone="no"?>
<!DOCTYPE svg PUBLIC "-//W3C//DTD SVG 20010904//EN"
 "http://www.w3.org/TR/2001/REC-SVG-20010904/DTD/svg10.dtd">
<svg version="1.0" xmlns="http://www.w3.org/2000/svg"
 width="480.000000pt" height="360.000000pt" viewBox="0 0 480.000000 360.000000"
 preserveAspectRatio="xMidYMid meet">
<metadata>
Created by potrace 1.16, written by Peter Selinger 2001-2019
</metadata>
<rect width="1" height="360" fill="#000000"/>
<rect x="479" width="1" height="360" fill="#000000"/>
<rect width="480" height="1" fill="#000000"/>
<rect y="359" width="480" height="1" fill="#000000"/>
<g transform="translate(0.000000,360.000000) scale(0.100000,-0.100000)"
fill="#000000" stroke="none">
<path d="M962 3591 c2 -4 29 -65 62 -134 44 -94 64 -127 80 -131 12 -3 42 -19
67 -36 24 -16 53 -30 64 -30 35 0 83 -38 106 -82 15 -28 24 -68 27 -116 6 -85
3 -83 128 -102 186 -28 394 -93 434 -135 22 -23 22 -26 6 -49 -11 -18 -39 -32
-98 -51 -81 -26 -301 -65 -365 -65 -44 0 -48 -13 -18 -59 14 -23 25 -43 25
-46 0 -4 13 -25 28 -48 47 -69 47 -70 22 -62 -25 8 -22 -4 13 -42 41 -46 -3
-21 -65 36 -34 33 -64 58 -65 57 -2 -2 2 -29 8 -62 13 -69 6 -222 -12 -285
l-14 -44 -10 50 -11 50 -26 -45 c-14 -25 -34 -70 -44 -100 l-19 -55 -5 75 -5
75 -30 -78 c-17 -45 -34 -76 -41 -73 -6 2 -28 -9 -48 -26 -45 -36 -56 -31 -28
14 11 18 26 52 33 76 11 37 10 45 -3 59 -14 14 -17 12 -23 -15 -3 -17 -12 -33
-19 -35 -16 -6 -36 -83 -35 -134 1 -71 28 -118 97 -172 38 -30 43 -37 40 -69
-3 -42 -43 -75 -112 -93 -58 -15 -66 -25 -66 -79 0 -70 -21 -85 -109 -77 -38
3 -72 3 -75 0 -3 -3 7 -21 21 -40 18 -24 29 -31 37 -23 16 16 26 12 26 -10 0
-30 -21 -68 -46 -84 -12 -9 -30 -38 -39 -68 -55 -168 -86 -177 -324 -98 -82
28 -157 50 -166 50 -17 0 -17 -21 1 -226 l5 -62 87 -65 c48 -35 155 -130 239
-211 87 -83 160 -146 171 -146 45 0 172 -122 172 -166 0 -7 33 -40 73 -72 101
-84 143 -130 167 -184 l21 -48 1090 0 1090 0 112 89 c196 155 300 281 322 389
7 32 6 34 -22 32 -71 -5 -103 18 -103 75 0 84 75 170 203 235 44 22 97 56 119
74 21 19 66 48 98 65 57 30 59 33 54 64 -9 51 -12 57 -33 57 -34 0 -81 50
-121 131 -27 52 -47 80 -62 85 -12 4 -34 19 -48 34 -14 15 -31 29 -38 31 -8 3
-20 29 -28 59 -15 59 -40 88 -85 97 -32 6 -99 59 -99 78 0 7 24 34 54 59 29
25 64 66 77 91 l23 44 -23 53 c-13 29 -28 68 -34 86 -11 33 -21 40 -32 22 -5
-8 -11 -7 -21 1 -18 15 -18 -2 1 -27 8 -10 14 -26 14 -34 0 -8 -30 17 -66 55
l-65 70 6 -38 c4 -21 10 -45 13 -54 4 -10 2 -14 -7 -11 -7 2 -31 41 -54 86
-56 112 -65 108 -40 -18 l6 -25 -21 25 c-11 14 -21 30 -21 37 0 6 -7 18 -15
26 -8 8 -19 33 -25 56 -22 90 -28 118 -35 164 -3 26 -10 47 -14 47 -4 0 -20
-27 -36 -60 -44 -92 -70 -107 -42 -24 8 22 17 53 21 69 6 24 5 28 -5 17 -17
-16 -29 -15 -29 3 0 19 1 19 -60 -5 -101 -40 -149 -19 -225 95 -20 30 -40 55
-44 55 -4 0 -23 -11 -42 -25 -115 -82 -152 -92 -157 -40 -2 21 9 49 38 95 48
77 67 115 75 153 8 39 37 65 87 78 31 8 64 30 118 81 l75 70 -105 -52 c-116
-58 -217 -121 -270 -169 -99 -89 -134 -26 -58 103 61 104 270 417 340 509 90
118 180 204 228 218 36 11 44 10 68 -8 31 -23 49 -70 58 -151 4 -31 11 -67 15
-79 10 -27 49 -32 49 -7 0 44 129 276 174 314 10 7 22 22 27 32 9 17 -36 18
-1401 18 -782 0 -1410 -4 -1408 -9z"/>
<path d="M3310 3313 c-74 -84 -337 -459 -328 -468 3 -3 34 8 69 23 35 16 107
44 159 61 l95 33 17 58 c10 34 35 79 59 110 38 48 41 56 35 94 -10 66 -36 136
-51 136 -7 0 -32 -21 -55 -47z"/>
<path d="M3360 2848 c-20 -21 -26 -38 -14 -38 12 0 64 42 64 51 0 17 -29 9
-50 -13z"/>
<path d="M1180 2200 c-8 -14 -8 -26 -2 -32 6 -6 12 0 16 17 9 35 1 43 -14 15z"/>
<path d="M3911 701 c-23 -23 -41 -50 -41 -61 0 -24 26 -38 42 -22 13 13 50
114 44 120 -3 2 -23 -15 -45 -37z"/>
<path d="M717 493 c-6 -11 10 -53 20 -53 4 0 17 8 28 16 20 15 20 15 1 30 -22
15 -42 18 -49 7z"/>
</g>
</svg>
