<?xml version="1.0" standalone="no"?>
<!DOCTYPE svg PUBLIC "-//W3C//DTD SVG 20010904//EN"
 "http://www.w3.org/TR/2001/REC-SVG-20010904/DTD/svg10.dtd">
<svg version="1.0" xmlns="http://www.w3.org/2000/svg"
 width="480.000000pt" height="360.000000pt" viewBox="0 0 480.000000 360.000000"
 preserveAspectRatio="xMidYMid meet">
<metadata>
Created by potrace 1.16, written by Peter Selinger 2001-2019
</metadata>
<rect width="1" height="360" fill="#000000"/>
<rect x="479" width="1" height="360" fill="#000000"/>
<rect width="480" height="1" fill="#000000"/>
<rect y="359" width="480" height="1" fill="#000000"/>
<g transform="translate(0.000000,360.000000) scale(0.100000,-0.100000)"
fill="#000000" stroke="none">
<path d="M270 1840 c-36 -3 -111 -22 -168 -41 l-102 -34 2 -225 3 -224 75 -23
c102 -32 279 -67 495 -98 612 -88 737 -117 968 -223 l78 -35 -25 -21 c-13 -12
-49 -59 -79 -106 -44 -69 -57 -101 -71 -170 -11 -50 -35 -122 -61 -175 -24
-49 -58 -144 -76 -210 -17 -66 -42 -141 -55 -168 -13 -26 -21 -47 -19 -47 11
0 84 113 120 182 21 43 39 78 41 78 1 0 -2 -17 -7 -37 -4 -21 -13 -74 -19
-118 -6 -44 -13 -95 -16 -112 l-5 -33 1087 0 1087 0 -5 80 c-5 88 1 92 26 15
25 -78 41 -95 86 -95 l39 0 -14 33 c-8 18 -28 87 -46 153 -33 124 -73 235
-107 294 -11 19 -22 53 -26 75 -12 82 -58 199 -107 271 -27 40 -53 75 -59 79
-34 21 33 57 210 113 138 44 451 95 710 117 139 12 314 36 436 61 67 13 124
24 128 24 3 0 6 123 6 274 l0 273 -42 12 c-75 20 -253 30 -359 20 -203 -19
-483 -80 -624 -137 -326 -129 -528 -234 -735 -380 l-72 -51 -57 28 c-116 58
-268 105 -397 121 -134 17 -351 -30 -552 -121 -37 -16 -57 -20 -67 -14 -311
213 -459 300 -675 395 -270 119 -510 184 -744 201 -67 4 -125 8 -131 7 -5 0
-39 -4 -75 -8z"/>
</g>
</svg>
