<?xml version="1.0" standalone="no"?>
<!DOCTYPE svg PUBLIC "-//W3C//DTD SVG 20010904//EN"
 "http://www.w3.org/TR/2001/REC-SVG-20010904/DTD/svg10.dtd">
<svg version="1.0" xmlns="http://www.w3.org/2000/svg"
 width="480.000000pt" height="360.000000pt" viewBox="0 0 480.000000 360.000000"
 preserveAspectRatio="xMidYMid meet">
<metadata>
Created by potrace 1.16, written by Peter Selinger 2001-2019
</metadata>
<rect width="1" height="360" fill="#000000"/>
<rect x="479" width="1" height="360" fill="#000000"/>
<rect width="480" height="1" fill="#000000"/>
<rect y="359" width="480" height="1" fill="#000000"/>
<g transform="translate(0.000000,360.000000) scale(0.100000,-0.100000)"
fill="#000000" stroke="none">
<path d="M49 2585 c-18 -25 -36 -45 -41 -45 -4 0 -8 -394 -8 -875 0 -964 -3
-917 61 -951 17 -8 41 -13 54 -10 34 9 110 90 173 186 30 47 62 91 71 98 23
18 63 15 137 -13 81 -30 94 -31 128 -4 l26 20 0 168 c0 190 3 200 76 231 87
38 92 79 25 242 -52 127 -99 197 -176 258 -66 53 -75 65 -75 107 0 40 66 96
149 128 39 15 76 35 81 45 16 29 12 75 -8 93 -28 26 -58 21 -125 -20 -47 -28
-75 -38 -119 -41 -54 -4 -59 -2 -86 27 -15 17 -36 55 -46 84 -34 95 -87 186
-150 252 -77 82 -100 85 -147 20z"/>
<path d="M4751 2070 c-40 -84 -143 -229 -203 -287 -74 -71 -165 -108 -336
-137 -185 -32 -312 -17 -497 56 -83 33 -109 39 -149 35 -58 -5 -91 -35 -102
-92 -8 -46 0 -77 31 -113 69 -82 223 -105 523 -79 108 10 246 24 306 33 180
24 286 -1 427 -102 l49 -36 0 396 c0 218 -3 396 -7 396 -5 0 -23 -32 -42 -70z"/>
<path d="M1742 1418 c-19 -19 -16 -25 41 -102 142 -189 196 -293 197 -381 1
-22 11 -65 24 -95 18 -43 32 -59 60 -74 28 -14 41 -15 49 -7 6 6 16 11 22 11
19 0 55 -76 55 -116 -1 -86 -31 -290 -47 -322 -17 -32 -17 -34 6 -95 31 -83
37 -144 17 -192 -9 -20 -16 -39 -16 -41 0 -2 128 -4 285 -4 l285 0 -55 77
c-32 45 -64 106 -76 143 -12 36 -25 70 -30 76 -5 6 -12 43 -15 83 -7 68 -6 73
19 99 29 31 57 123 57 191 0 68 -30 215 -46 227 -10 8 -18 45 -25 110 -14 142
-45 272 -74 316 -39 58 -96 92 -146 85 -55 -7 -104 -43 -134 -98 -33 -61 -33
-112 0 -151 20 -23 23 -33 15 -49 -6 -10 -19 -19 -30 -19 -10 0 -27 -12 -38
-27 -17 -23 -22 -25 -35 -14 -9 7 -24 11 -34 9 -11 -1 -31 5 -47 15 -28 19
-169 224 -212 310 -25 48 -48 59 -72 35z m457 -613 c0 -37 -1 -39 -14 -21 -16
21 -20 77 -8 90 11 10 22 -23 22 -69z"/>
<path d="M4564 208 c-24 -11 -34 -27 -64 -108 -12 -30 -28 -65 -36 -77 l-14
-23 81 0 c76 0 83 2 103 27 27 34 55 110 48 135 -9 37 -80 64 -118 46z"/>
<path d="M3755 86 c-16 -16 -25 -36 -25 -56 l0 -30 218 1 217 1 -68 32 c-69
33 -168 59 -264 71 -47 6 -55 4 -78 -19z"/>
<path d="M1235 47 c-101 -45 -100 -46 23 -47 61 0 112 4 112 9 0 19 -43 61
-63 61 -12 -1 -44 -11 -72 -23z"/>
</g>
</svg>
