<?xml version="1.0" standalone="no"?>
<!DOCTYPE svg PUBLIC "-//W3C//DTD SVG 20010904//EN"
 "http://www.w3.org/TR/2001/REC-SVG-20010904/DTD/svg10.dtd">
<svg version="1.0" xmlns="http://www.w3.org/2000/svg"
 width="480.000000pt" height="360.000000pt" viewBox="0 0 480.000000 360.000000"
 preserveAspectRatio="xMidYMid meet">
<metadata>
Created by potrace 1.16, written by Peter Selinger 2001-2019
</metadata>
<rect width="1" height="360" fill="#000000"/>
<rect x="479" width="1" height="360" fill="#000000"/>
<rect width="480" height="1" fill="#000000"/>
<rect y="359" width="480" height="1" fill="#000000"/>
<g transform="translate(0.000000,360.000000) scale(0.100000,-0.100000)"
fill="#000000" stroke="none">
<path d="M0 1800 l0 -1800 848 1 c591 1 825 5 775 11 -40 6 -73 14 -73 19 0 5
-8 9 -18 9 -35 0 -138 31 -217 66 -102 45 -273 133 -294 151 -9 7 -46 39 -83
70 -126 105 -189 223 -191 353 -1 92 11 137 61 219 86 143 268 278 500 372 45
18 82 37 82 41 0 4 9 8 20 8 37 0 110 24 110 36 0 7 -16 36 -35 65 -20 28 -38
57 -42 62 -3 5 22 -9 55 -32 33 -22 64 -45 67 -51 9 -14 72 -13 81 2 4 6 -4
19 -20 31 -76 55 -73 152 5 193 28 14 33 14 74 -6 42 -20 75 -66 75 -104 0
-34 57 -33 101 3 22 17 23 25 20 110 -1 50 2 91 7 91 5 0 25 -26 45 -58 55
-90 62 -94 146 -86 84 8 92 17 111 127 7 37 16 67 20 67 5 0 19 -28 32 -62 33
-86 74 -128 126 -128 69 0 89 16 134 107 23 46 45 80 49 76 5 -5 15 -42 24
-83 9 -41 20 -79 25 -84 5 -5 26 -10 47 -12 118 -10 103 -16 160 61 29 38 57
71 63 73 6 2 10 -33 10 -92 0 -83 3 -99 20 -116 20 -20 54 -26 84 -14 13 5 15
16 10 53 -5 41 -3 51 20 78 32 38 99 66 137 58 16 -4 42 -19 59 -35 56 -52 32
-134 -52 -173 -49 -23 -61 -50 -36 -75 26 -26 65 -10 146 60 28 24 72 38 72
23 0 -2 -18 -32 -40 -66 -22 -34 -40 -66 -40 -70 0 -17 96 -29 119 -14 11 6
13 3 9 -13 -5 -18 6 -25 86 -58 328 -134 534 -342 544 -550 7 -139 -49 -257
-180 -379 -50 -47 -131 -105 -189 -136 -15 -8 -45 -24 -68 -37 -66 -36 -371
-142 -411 -142 -8 0 -22 -5 -30 -10 -10 -6 275 -10 813 -10 l827 0 0 1800 0
1800 -2400 0 -2400 0 0 -1800z m2592 423 c12 -10 18 -30 18 -56 0 -31 -7 -46
-35 -74 -30 -30 -40 -34 -67 -29 -51 10 -61 24 -56 78 6 63 38 98 86 98 20 0
44 -7 54 -17z m361 -14 c27 -33 22 -74 -15 -114 -43 -45 -76 -52 -111 -25 -43
34 -35 110 17 153 27 23 84 16 109 -14z m-747 -2 c39 -34 40 -100 1 -133 -36
-31 -71 -31 -102 1 -54 53 -17 153 57 155 9 0 29 -10 44 -23z m-355 -46 c58
-58 26 -151 -51 -151 -36 0 -80 50 -80 92 0 35 48 88 80 88 12 0 35 -13 51
-29z m1414 -26 c37 -36 34 -83 -8 -123 -18 -17 -47 -34 -64 -38 -27 -5 -37 -1
-63 24 -42 42 -41 83 4 128 43 43 94 47 131 9z m-1701 -67 c9 -12 16 -39 16
-59 0 -29 -7 -43 -31 -63 -41 -35 -64 -33 -105 8 -27 27 -34 42 -34 73 0 88
103 115 154 41z m1955 -37 c18 -14 25 -31 29 -70 4 -49 6 -51 34 -51 41 0 88
-48 88 -90 0 -23 -11 -41 -45 -74 -25 -25 -45 -52 -45 -61 0 -37 -30 -73 -81
-95 -46 -19 -58 -21 -91 -11 -41 13 -64 40 -74 87 -7 36 20 73 77 110 28 18
39 31 39 49 0 20 -5 25 -24 25 -14 0 -37 10 -51 23 -36 30 -38 97 -4 134 47
50 102 59 148 24z m-2176 -71 c30 -24 51 -80 42 -112 -4 -13 -16 -33 -27 -44
-23 -25 -16 -74 11 -74 24 0 78 -35 96 -63 24 -37 22 -91 -5 -130 l-24 -35
-45 14 c-53 15 -101 63 -101 99 0 16 -6 25 -16 25 -26 0 -91 41 -104 65 -7 13
-12 35 -12 49 0 27 26 76 41 76 5 0 6 20 4 45 -5 39 -2 47 25 75 36 36 77 39
115 10z"/>
<path d="M1382 1201 c-41 -22 -81 -46 -91 -55 -10 -9 -22 -16 -28 -16 -6 0
-49 -41 -97 -90 -110 -114 -147 -187 -154 -300 -10 -172 90 -328 299 -466 54
-35 101 -64 105 -64 4 0 37 -14 73 -31 124 -58 173 -76 246 -91 28 -6 65 -17
82 -25 18 -8 68 -18 110 -23 43 -5 92 -14 108 -21 44 -18 478 -24 630 -9 66 6
165 22 220 35 55 13 116 26 135 30 19 4 40 11 45 15 6 4 42 15 82 24 47 12 79
26 94 42 12 13 31 24 42 24 28 0 184 83 242 129 130 104 160 138 216 251 81
163 29 345 -142 502 -71 66 -228 168 -257 168 -19 0 -74 -63 -61 -70 5 -4 -19
-31 -55 -61 -83 -70 -92 -90 -88 -211 2 -82 -1 -105 -19 -143 -58 -123 -269
-224 -546 -260 -144 -19 -219 -19 -366 0 -281 37 -483 137 -548 271 -18 38
-20 54 -14 131 9 117 -2 144 -94 218 -39 31 -71 59 -71 62 0 6 21 -7 43 -25
27 -24 22 5 -10 47 -26 35 -43 51 -53 51 -3 0 -38 -18 -78 -39z"/>
<path d="M2160 1175 c-164 -28 -365 -101 -365 -133 0 -6 38 -39 85 -72 85 -61
172 -96 204 -84 10 4 26 26 37 50 19 46 28 51 59 34 13 -7 38 -6 82 5 73 17
173 19 238 4 57 -13 69 -14 102 -5 24 7 28 5 34 -18 23 -93 158 -85 291 16 32
24 67 48 78 52 18 7 18 8 -5 21 -120 70 -242 111 -397 134 -95 14 -349 12
-443 -4z"/>
<path d="M3010 1000 c-9 -17 -8 -20 13 -20 30 0 40 10 26 27 -16 18 -26 16
-39 -7z"/>
<path d="M1730 996 c0 -8 7 -16 15 -20 17 -6 18 -4 9 18 -8 20 -24 21 -24 2z"/>
</g>
</svg>
