<?xml version="1.0" standalone="no"?>
<!DOCTYPE svg PUBLIC "-//W3C//DTD SVG 20010904//EN"
 "http://www.w3.org/TR/2001/REC-SVG-20010904/DTD/svg10.dtd">
<svg version="1.0" xmlns="http://www.w3.org/2000/svg"
 width="480.000000pt" height="360.000000pt" viewBox="0 0 480.000000 360.000000"
 preserveAspectRatio="xMidYMid meet">
<metadata>
Created by potrace 1.16, written by Peter Selinger 2001-2019
</metadata>
<rect width="1" height="360" fill="#000000"/>
<rect x="479" width="1" height="360" fill="#000000"/>
<rect width="480" height="1" fill="#000000"/>
<rect y="359" width="480" height="1" fill="#000000"/>
<g transform="translate(0.000000,360.000000) scale(0.100000,-0.100000)"
fill="#000000" stroke="none">
<path d="M440 3514 c0 -73 -4 -92 -25 -128 -14 -23 -34 -69 -45 -101 -11 -32
-31 -73 -46 -92 -27 -35 -17 -43 26 -18 39 22 46 18 60 -29 10 -36 9 -58 -5
-132 -10 -53 -16 -128 -14 -184 3 -144 -21 -379 -41 -399 -18 -18 -55 -148
-71 -256 -17 -112 -23 -273 -10 -289 8 -10 9 -33 2 -82 -6 -38 -15 -127 -21
-198 -6 -81 -15 -135 -24 -145 -20 -23 -54 -178 -71 -326 -16 -131 -12 -257 7
-282 6 -7 7 -20 4 -29 -8 -20 -25 -169 -36 -307 -4 -59 -12 -113 -18 -120 -24
-28 -72 -276 -72 -369 l0 -28 73 0 73 0 12 106 c6 58 14 109 17 113 2 5 35 12
72 16 36 4 71 9 77 11 12 5 12 -74 1 -183 l-7 -63 70 0 69 0 13 105 c18 142 8
283 -20 307 -18 15 -19 22 -11 60 12 50 31 240 31 309 0 35 6 55 23 76 33 39
63 171 78 338 13 154 7 259 -15 284 -12 14 -13 29 -6 81 5 36 13 120 16 188 6
96 11 126 23 135 20 15 41 60 41 88 0 36 16 12 41 -63 36 -109 147 -329 226
-448 116 -175 314 -434 594 -775 36 -44 85 -105 110 -135 24 -30 88 -107 141
-170 53 -63 127 -151 164 -195 36 -44 89 -104 117 -132 l51 -53 1343 0 1343 0
0 1279 0 1278 -72 22 c-40 11 -89 31 -108 42 -19 12 -94 43 -167 70 -127 47
-137 49 -237 49 -60 0 -129 6 -163 15 -32 8 -103 22 -158 30 -92 14 -101 14
-112 -2 -16 -21 2 -43 57 -68 22 -10 40 -21 40 -25 0 -4 -15 -13 -32 -20 -18
-8 -73 -33 -121 -57 -49 -24 -101 -43 -117 -43 -16 0 -32 -4 -35 -10 -3 -5 1
-10 9 -10 32 0 14 -18 -81 -82 -96 -65 -178 -136 -125 -109 12 6 22 10 22 9 0
-2 -25 -30 -56 -63 -31 -33 -51 -61 -45 -63 6 -2 -5 -24 -24 -49 -19 -26 -33
-48 -31 -51 3 -2 20 5 39 17 59 37 53 23 -24 -49 l-74 -70 44 15 c58 20 62 19
49 -10 -20 -44 -2 -38 47 14 26 28 52 51 57 51 10 0 -55 -123 -81 -153 -35
-41 -160 12 -263 112 -40 39 -79 71 -86 71 -7 0 -24 -11 -37 -24 -21 -21 -32
-50 -62 -166 -11 -43 -56 -75 -117 -84 -58 -9 -92 -48 -101 -114 -9 -62 -47
-126 -84 -141 -19 -9 -49 -10 -86 -6 -61 8 -75 1 -75 -40 0 -12 -26 -46 -61
-80 -69 -68 -99 -119 -99 -168 0 -19 19 -72 43 -123 57 -115 93 -208 107 -269
12 -52 28 -155 24 -155 -1 0 -39 51 -85 113 -220 296 -372 471 -669 772 -119
121 -222 230 -228 242 -7 12 -16 86 -22 165 -13 184 -47 399 -121 773 -56 286
-76 405 -68 405 2 0 26 -7 52 -15 33 -10 55 -12 67 -5 34 18 30 38 -20 87 -42
42 -95 124 -163 256 l-19 37 -344 0 -344 0 0 -86z m97 -546 c-3 -8 -6 -5 -6 6
-1 11 2 17 5 13 3 -3 4 -12 1 -19z m44 -283 c5 -44 -4 -152 -16 -182 -7 -19
-45 -16 -52 4 -9 24 16 216 30 225 22 14 32 2 38 -47z m-85 -390 c10 -8 30
-15 44 -15 50 -1 52 -8 35 -116 -8 -54 -20 -116 -25 -136 -10 -36 -12 -37 -33
-24 -12 8 -44 20 -70 27 -30 7 -46 16 -43 24 2 6 10 55 16 109 7 53 16 99 21
102 5 3 9 14 9 25 0 23 19 25 46 4z m2895 -289 c-32 -46 -51 -64 -51 -48 0 13
71 104 77 98 3 -2 -9 -25 -26 -50z m-2911 -217 c0 -76 -21 -242 -32 -256 -13
-16 -44 -17 -54 -2 -3 6 0 70 7 142 10 100 18 136 31 149 33 33 48 23 48 -33z
m-41 -471 l44 0 -7 -102 c-4 -55 -13 -128 -19 -161 l-12 -60 -75 3 c-41 2 -76
5 -78 7 -4 4 16 179 30 258 l12 69 30 -7 c17 -4 51 -7 75 -7z m-63 -533 c8
-20 -24 -307 -36 -319 -4 -4 -20 -6 -34 -2 -31 8 -30 5 -12 180 11 103 18 132
32 143 23 17 43 17 50 -2z"/>
<path d="M1470 3584 c0 -29 59 -192 96 -266 48 -96 101 -173 170 -247 109
-119 218 -184 422 -255 139 -48 171 -64 186 -95 7 -14 23 -79 36 -145 17 -89
29 -125 48 -147 19 -24 23 -36 18 -63 -5 -24 -2 -39 9 -50 19 -19 21 -19 46
-5 17 9 19 17 14 48 -8 49 2 56 94 69 42 6 81 18 90 27 12 12 19 52 26 166 12
176 -1 156 165 245 256 138 377 255 475 459 38 79 95 239 95 266 0 5 -374 9
-995 9 -906 0 -995 -1 -995 -16z"/>
</g>
</svg>
