<?xml version="1.0" standalone="no"?>
<!DOCTYPE svg PUBLIC "-//W3C//DTD SVG 20010904//EN"
 "http://www.w3.org/TR/2001/REC-SVG-20010904/DTD/svg10.dtd">
<svg version="1.0" xmlns="http://www.w3.org/2000/svg"
 width="480.000000pt" height="360.000000pt" viewBox="0 0 480.000000 360.000000"
 preserveAspectRatio="xMidYMid meet">
<metadata>
Created by potrace 1.16, written by Peter Selinger 2001-2019
</metadata>
<rect width="1" height="360" fill="#000000"/>
<rect x="479" width="1" height="360" fill="#000000"/>
<rect width="480" height="1" fill="#000000"/>
<rect y="359" width="480" height="1" fill="#000000"/>
<g transform="translate(0.000000,360.000000) scale(0.100000,-0.100000)"
fill="#000000" stroke="none">
<path d="M2728 3342 c-31 -6 -20 -28 23 -47 36 -17 79 -60 68 -69 -2 -2 -38
-13 -79 -26 -203 -60 -270 -131 -286 -298 -13 -133 -84 -232 -166 -232 -51 0
-70 -22 -66 -79 3 -49 4 -49 67 -40 19 3 26 -1 31 -21 4 -19 13 -25 34 -25 19
-1 40 -14 69 -44 23 -23 53 -48 67 -54 21 -10 27 -24 37 -82 17 -91 28 -282
19 -327 -5 -28 -17 -43 -62 -73 -30 -21 -78 -62 -107 -91 -41 -42 -63 -56 -97
-63 -25 -5 -79 -19 -120 -30 -41 -12 -103 -28 -137 -35 -34 -8 -75 -22 -92
-32 -31 -18 -71 -84 -71 -116 0 -22 -23 -38 -65 -45 -36 -6 -36 -7 -15 -18 19
-10 20 -13 6 -18 -46 -18 5 -63 61 -54 32 6 34 3 58 -42 43 -86 128 -141 218
-141 54 0 77 15 152 96 37 41 69 73 71 71 3 -2 -1 -27 -7 -55 -13 -63 -4 -95
51 -180 46 -70 47 -80 20 -115 -11 -14 -20 -28 -20 -31 0 -4 -20 -41 -45 -84
-24 -42 -53 -102 -64 -132 -10 -31 -28 -75 -41 -99 -22 -44 -19 -57 15 -62 28
-4 102 4 113 13 9 8 12 0 12 -33 -1 -83 -39 -514 -50 -549 -5 -19 -10 -45 -10
-57 l0 -23 496 0 497 0 -5 205 -5 205 43 -107 c40 -101 66 -139 85 -127 5 3 9
14 9 25 0 10 4 19 8 19 5 0 6 21 1 48 -4 26 -6 48 -4 50 2 2 15 -35 30 -81 14
-46 36 -99 47 -118 19 -31 22 -32 29 -14 4 11 8 14 8 7 1 -7 5 -11 10 -8 5 3
14 -8 21 -24 30 -73 38 -11 19 156 -6 53 -9 98 -7 100 2 2 19 -41 38 -96 18
-55 35 -98 38 -95 3 3 11 0 17 -5 10 -8 14 10 17 80 6 118 23 137 32 35 8 -85
14 -107 27 -99 5 3 10 62 10 132 1 146 5 143 17 -16 8 -106 14 -133 28 -120 3
3 12 61 20 129 25 204 13 325 -61 653 -3 16 0 15 22 -5 l26 -24 -7 44 c-7 47
-54 199 -142 461 -31 91 -63 198 -72 238 l-17 73 44 84 c23 46 41 91 39 101
-1 10 -30 34 -63 54 l-60 37 -22 194 c-26 237 -46 359 -77 464 -13 44 -26 117
-30 161 -13 190 -107 310 -294 378 -40 14 -97 29 -127 32 -47 6 -58 11 -85 45
-17 22 -45 46 -62 55 -31 16 -95 24 -130 16z m52 -1202 c21 13 50 -7 50 -34 0
-18 -9 -27 -43 -40 -57 -21 -67 -20 -67 8 0 13 -3 38 -6 56 l-7 32 30 -15 c18
-10 35 -12 43 -7z m619 -1864 c6 -33 11 -64 10 -70 -1 -16 -49 146 -48 164 0
31 27 -37 38 -94z"/>
</g>
</svg>
