<?xml version="1.0" standalone="no"?>
<!DOCTYPE svg PUBLIC "-//W3C//DTD SVG 20010904//EN"
 "http://www.w3.org/TR/2001/REC-SVG-20010904/DTD/svg10.dtd">
<svg version="1.0" xmlns="http://www.w3.org/2000/svg"
 width="480.000000pt" height="360.000000pt" viewBox="0 0 480.000000 360.000000"
 preserveAspectRatio="xMidYMid meet">
<metadata>
Created by potrace 1.16, written by Peter Selinger 2001-2019
</metadata>
<rect width="1" height="360" fill="#000000"/>
<rect x="479" width="1" height="360" fill="#000000"/>
<rect width="480" height="1" fill="#000000"/>
<rect y="359" width="480" height="1" fill="#000000"/>
<g transform="translate(0.000000,360.000000) scale(0.100000,-0.100000)"
fill="#000000" stroke="none">
<path d="M0 1800 l0 -1800 1006 0 1005 0 -6 137 c-5 103 -3 166 9 251 9 62 16
170 16 240 0 75 6 150 14 182 15 59 9 141 -13 195 -7 17 -17 106 -21 201 -7
148 -18 214 -35 214 -2 0 -27 -34 -56 -76 -58 -83 -124 -140 -173 -149 -21 -4
-50 1 -86 15 -122 49 -230 81 -320 96 -100 16 -105 18 -124 56 -6 12 -22 24
-34 26 -16 2 -22 10 -22 27 0 23 -2 23 -117 27 -104 3 -124 6 -174 30 -64 32
-99 83 -99 145 0 46 8 57 28 41 11 -10 17 -8 28 7 22 33 34 45 44 45 13 0 13
-26 -1 -52 -18 -33 -2 -33 27 1 31 37 39 33 39 -17 0 -33 2 -37 24 -34 14 1
33 10 44 20 17 15 19 15 28 0 5 -9 17 -14 27 -11 10 2 47 -6 83 -19 l65 -24
18 24 c14 18 24 22 40 17 11 -4 40 -7 64 -6 32 1 58 -7 105 -33 58 -33 221
-100 259 -108 14 -2 31 25 77 124 51 109 58 133 54 168 -6 40 -4 42 76 123 52
53 98 111 127 162 47 83 95 140 151 178 24 16 33 30 33 51 0 25 -3 27 -22 21
-66 -20 -71 -19 -120 39 -27 30 -48 59 -48 65 0 6 -13 17 -30 26 -36 18 -36
18 -10 53 20 28 19 62 -2 62 -6 0 -5 -7 2 -15 20 -24 4 -29 -18 -7 -26 26 -62
45 -70 38 -9 -10 -72 56 -72 75 0 34 -11 50 -26 38 -19 -16 -18 -10 16 101 44
141 65 184 111 223 l41 34 -12 71 c-7 40 -11 75 -8 78 4 3 32 9 65 14 43 6 65
4 85 -6 49 -25 74 -10 112 70 56 116 87 146 116 111 10 -13 18 -9 57 22 35 29
48 35 61 26 29 -17 90 -105 133 -189 44 -87 59 -157 39 -193 -10 -19 -7 -27
24 -61 19 -21 50 -71 70 -112 63 -131 86 -240 141 -675 12 -97 26 -153 67
-265 28 -79 59 -170 69 -203 9 -33 29 -88 43 -122 25 -60 49 -179 39 -197 -3
-4 -16 5 -28 20 l-23 29 -7 -28 c-9 -35 -4 -63 30 -159 l28 -76 -42 -164 c-29
-111 -44 -195 -48 -262 -6 -96 -7 -101 -40 -133 -35 -35 -36 -38 -33 -119 1
-28 -6 -81 -14 -118 -9 -37 -16 -88 -16 -114 0 -45 24 -217 36 -254 5 -17 59
-18 950 -18 l944 0 0 1800 0 1800 -2400 0 -2400 0 0 -1800z"/>
<path d="M2040 1213 c0 -113 13 -175 35 -166 24 9 20 159 -5 217 -10 25 -22
46 -25 46 -3 0 -5 -44 -5 -97z"/>
</g>
</svg>
