<?xml version="1.0" standalone="no"?>
<!DOCTYPE svg PUBLIC "-//W3C//DTD SVG 20010904//EN"
 "http://www.w3.org/TR/2001/REC-SVG-20010904/DTD/svg10.dtd">
<svg version="1.0" xmlns="http://www.w3.org/2000/svg"
 width="480.000000pt" height="360.000000pt" viewBox="0 0 480.000000 360.000000"
 preserveAspectRatio="xMidYMid meet">
<metadata>
Created by potrace 1.16, written by Peter Selinger 2001-2019
</metadata>
<rect width="1" height="360" fill="#000000"/>
<rect x="479" width="1" height="360" fill="#000000"/>
<rect width="480" height="1" fill="#000000"/>
<rect y="359" width="480" height="1" fill="#000000"/>
<g transform="translate(0.000000,360.000000) scale(0.100000,-0.100000)"
fill="#000000" stroke="none">
<path d="M2433 1448 c-13 -6 -23 -20 -23 -30 0 -10 -6 -20 -12 -22 -7 -2 -33
-9 -56 -16 -41 -11 -46 -15 -77 -85 -27 -58 -43 -79 -78 -104 -68 -47 -102
-114 -99 -198 3 -79 95 -185 216 -249 67 -36 71 -36 120 -25 192 44 288 122
303 249 9 80 -45 167 -143 229 -27 17 -44 36 -45 48 0 11 -1 53 -2 93 -1 39
-5 72 -9 72 -5 0 -8 7 -8 15 0 15 -30 35 -52 34 -7 0 -23 -5 -35 -11z"/>
</g>
</svg>
