<?xml version="1.0" standalone="no"?>
<!DOCTYPE svg PUBLIC "-//W3C//DTD SVG 20010904//EN"
 "http://www.w3.org/TR/2001/REC-SVG-20010904/DTD/svg10.dtd">
<svg version="1.0" xmlns="http://www.w3.org/2000/svg"
 width="480.000000pt" height="360.000000pt" viewBox="0 0 480.000000 360.000000"
 preserveAspectRatio="xMidYMid meet">
<metadata>
Created by potrace 1.16, written by Peter Selinger 2001-2019
</metadata>
<rect width="1" height="360" fill="#000000"/>
<rect x="479" width="1" height="360" fill="#000000"/>
<rect width="480" height="1" fill="#000000"/>
<rect y="359" width="480" height="1" fill="#000000"/>
<g transform="translate(0.000000,360.000000) scale(0.100000,-0.100000)"
fill="#000000" stroke="none">
<path d="M3689 3578 c-6 -12 -14 -50 -17 -85 l-5 -63 -56 -16 c-198 -54 -221
-65 -221 -103 0 -37 33 -94 76 -134 40 -36 44 -44 38 -71 -6 -27 -5 -29 10
-17 23 19 30 -6 18 -64 -5 -25 -6 -45 -2 -45 4 0 13 -23 20 -50 7 -28 18 -53
24 -58 7 -4 21 -25 32 -47 10 -22 24 -40 29 -40 6 0 17 -6 25 -13 8 -7 26 -21
39 -32 l24 -20 -22 -24 c-28 -30 -20 -68 19 -96 15 -11 35 -37 43 -57 8 -21
25 -46 36 -55 12 -10 21 -24 21 -33 0 -8 13 -29 29 -48 16 -18 33 -45 36 -59
6 -25 10 -27 55 -23 35 2 50 -1 54 -11 9 -22 20 -16 40 21 23 43 31 44 42 4
11 -36 27 -40 34 -7 5 21 7 21 13 5 11 -30 8 -64 -7 -80 -8 -8 -21 -29 -29
-48 -8 -19 -26 -41 -41 -49 -16 -8 -30 -25 -33 -41 l-5 -28 -27 19 c-29 21
-132 35 -333 46 -142 8 -180 -1 -203 -45 -13 -26 -20 -28 -223 -59 l-210 -32
-88 21 c-49 11 -156 36 -239 55 -183 42 -289 69 -375 95 -36 11 -79 19 -96 17
-22 -2 -49 9 -95 39 -35 22 -75 44 -88 48 -13 4 -55 36 -92 71 -46 43 -80 66
-109 74 -61 16 -75 11 -73 -29 1 -29 -1 -32 -20 -27 -12 4 -72 9 -132 13 -92
5 -116 3 -143 -11 -18 -9 -32 -20 -32 -25 0 -24 38 -35 141 -39 63 -3 109 -9
109 -15 0 -5 -14 -7 -33 -4 -18 3 -66 2 -106 -3 -64 -7 -77 -12 -107 -41 -28
-27 -32 -36 -21 -46 9 -10 25 -10 67 -2 91 16 197 22 203 12 4 -7 -22 -12 -66
-15 -82 -6 -120 -21 -143 -56 -25 -39 -7 -47 73 -33 117 22 130 23 137 12 5
-7 -3 -11 -22 -11 -40 0 -82 -41 -82 -80 0 -23 4 -30 19 -30 11 0 22 4 26 9
11 19 69 41 105 41 23 0 68 -14 112 -35 41 -20 103 -40 139 -46 158 -26 144
-19 144 -64 l0 -39 130 -22 c167 -28 212 -40 462 -126 l208 -71 260 7 c143 4
321 14 395 22 74 8 184 14 244 12 l110 -3 18 -60 c10 -33 25 -103 33 -155 30
-192 63 -275 170 -420 118 -160 118 -161 126 -268 5 -74 13 -111 34 -157 18
-39 27 -75 26 -102 -1 -23 3 -50 10 -61 20 -33 -11 -107 -121 -292 -34 -57
-80 -156 -80 -171 0 -5 146 -9 325 -9 l325 0 0 1800 0 1800 -550 0 -549 0 -12
-22z"/>
</g>
</svg>
