<?xml version="1.0" standalone="no"?>
<!DOCTYPE svg PUBLIC "-//W3C//DTD SVG 20010904//EN"
 "http://www.w3.org/TR/2001/REC-SVG-20010904/DTD/svg10.dtd">
<svg version="1.0" xmlns="http://www.w3.org/2000/svg"
 width="480.000000pt" height="360.000000pt" viewBox="0 0 480.000000 360.000000"
 preserveAspectRatio="xMidYMid meet">
<metadata>
Created by potrace 1.16, written by Peter Selinger 2001-2019
</metadata>
<rect width="1" height="360" fill="#000000"/>
<rect x="479" width="1" height="360" fill="#000000"/>
<rect width="480" height="1" fill="#000000"/>
<rect y="359" width="480" height="1" fill="#000000"/>
<g transform="translate(0.000000,360.000000) scale(0.100000,-0.100000)"
fill="#000000" stroke="none">
<path d="M0 1800 l0 -1800 683 0 684 0 -5 28 c-3 27 1 31 66 60 118 52 267 82
413 82 l82 0 -5 43 c-8 66 -41 167 -55 167 -10 0 -13 23 -13 88 0 48 -7 146
-15 217 -8 72 -20 195 -27 274 -8 100 -16 145 -25 148 -15 6 -41 -1 -178 -42
-110 -33 -251 -43 -293 -21 -15 8 -35 24 -45 36 -12 14 -24 19 -35 15 -9 -3
-55 -15 -101 -26 -79 -19 -84 -19 -102 -3 -10 9 -19 23 -19 30 0 23 -18 25
-107 9 -49 -8 -146 -15 -219 -15 l-131 0 -45 34 c-46 36 -78 93 -78 141 0 43
40 133 88 197 26 34 77 103 114 152 263 356 321 412 464 454 38 11 101 30 139
42 100 30 252 60 305 60 86 0 212 -37 268 -77 l32 -24 0 29 c0 16 -7 49 -15
72 -9 25 -15 78 -15 128 0 78 3 90 34 146 19 34 53 78 75 99 51 47 77 85 65
96 -5 5 -45 22 -89 39 -86 33 -170 75 -196 98 -8 8 -22 14 -30 14 -35 0 -89
22 -89 36 0 14 200 116 283 143 43 15 45 20 14 58 -29 35 -102 160 -112 191
-5 18 -3 23 7 20 7 -2 86 -28 176 -57 l162 -54 23 29 c40 51 177 198 194 207
14 9 15 -3 9 -130 l-8 -139 77 -13 c183 -30 507 -154 591 -224 21 -18 37 -24
56 -20 15 3 42 0 59 -6 22 -7 43 -8 63 -2 17 6 60 19 95 30 36 11 67 19 69 17
2 -2 -13 -36 -34 -75 -37 -71 -37 -72 -21 -107 21 -44 21 -88 0 -153 l-16 -52
71 -72 c40 -40 72 -79 72 -86 0 -11 -15 -13 -70 -9 -64 5 -69 4 -60 -13 6 -10
10 -21 10 -25 0 -13 -144 4 -228 27 -96 26 -102 23 -102 -49 0 -23 -9 -70 -20
-103 -23 -67 -23 -77 21 -524 l20 -210 80 -159 c73 -147 79 -163 79 -220 0
-52 -5 -70 -31 -111 l-32 -50 17 -70 c9 -38 16 -79 16 -90 0 -11 12 -96 27
-190 23 -148 30 -172 51 -192 21 -19 24 -29 19 -65 -5 -36 10 -137 38 -256 l5
-22 775 0 775 0 0 1800 0 1800 -2400 0 -2400 0 0 -1800z"/>
<path d="M1239 1788 c-29 -40 -64 -88 -78 -107 -61 -79 -80 -106 -81 -113 0
-5 31 -8 68 -8 65 0 69 1 102 36 39 41 85 64 130 64 16 0 78 -18 136 -40 105
-39 156 -47 223 -34 17 4 31 10 31 15 0 23 -101 109 -162 138 -38 18 -68 36
-68 41 0 5 -10 10 -22 12 -14 2 -22 9 -21 18 2 11 -19 19 -90 33 -50 9 -97 17
-104 17 -6 0 -35 -33 -64 -72z"/>
<path d="M2844 441 c3 -18 6 -51 6 -72 0 -40 5 -45 29 -30 12 7 11 17 -5 62
-22 66 -39 88 -30 40z"/>
</g>
</svg>
