<?xml version="1.0" standalone="no"?>
<!DOCTYPE svg PUBLIC "-//W3C//DTD SVG 20010904//EN"
 "http://www.w3.org/TR/2001/REC-SVG-20010904/DTD/svg10.dtd">
<svg version="1.0" xmlns="http://www.w3.org/2000/svg"
 width="480.000000pt" height="360.000000pt" viewBox="0 0 480.000000 360.000000"
 preserveAspectRatio="xMidYMid meet">
<metadata>
Created by potrace 1.16, written by Peter Selinger 2001-2019
</metadata>
<rect width="1" height="360" fill="#000000"/>
<rect x="479" width="1" height="360" fill="#000000"/>
<rect width="480" height="1" fill="#000000"/>
<rect y="359" width="480" height="1" fill="#000000"/>
<g transform="translate(0.000000,360.000000) scale(0.100000,-0.100000)"
fill="#000000" stroke="none">
<path d="M0 1800 l0 -1800 2400 0 2400 0 0 1800 0 1800 -1592 0 -1591 0 6
-247 c13 -469 83 -1094 163 -1443 76 -337 172 -647 250 -807 30 -62 54 -115
54 -118 0 -3 -11 -3 -25 1 -16 4 -25 2 -25 -6 0 -16 -36 -4 -81 26 -19 13 -47
24 -62 24 -17 0 -27 5 -27 14 0 8 -42 54 -93 103 -192 182 -330 360 -491 633
-57 97 -177 337 -223 445 -14 33 -33 78 -43 100 -19 45 -72 186 -119 315 -60
168 -174 576 -217 775 -9 44 -22 103 -29 130 l-11 50 -322 3 -322 2 0 -1800z"/>
</g>
</svg>
