<?xml version="1.0" standalone="no"?>
<!DOCTYPE svg PUBLIC "-//W3C//DTD SVG 20010904//EN"
 "http://www.w3.org/TR/2001/REC-SVG-20010904/DTD/svg10.dtd">
<svg version="1.0" xmlns="http://www.w3.org/2000/svg"
 width="480.000000pt" height="360.000000pt" viewBox="0 0 480.000000 360.000000"
 preserveAspectRatio="xMidYMid meet">
<metadata>
Created by potrace 1.16, written by Peter Selinger 2001-2019
</metadata>
<rect width="1" height="360" fill="#000000"/>
<rect x="479" width="1" height="360" fill="#000000"/>
<rect width="480" height="1" fill="#000000"/>
<rect y="359" width="480" height="1" fill="#000000"/>
<g transform="translate(0.000000,360.000000) scale(0.100000,-0.100000)"
fill="#000000" stroke="none">
<path d="M0 1800 l0 -1800 2400 0 2400 0 0 1800 0 1800 -2400 0 -2400 0 0
-1800z m655 1406 c39 -14 138 -54 220 -91 83 -36 168 -73 190 -81 22 -8 53
-26 68 -39 26 -23 27 -27 17 -62 -6 -21 -14 -106 -17 -189 -5 -133 -3 -161 16
-235 24 -96 39 -189 33 -207 -2 -7 -10 -12 -17 -12 -7 0 -16 -8 -19 -17 -9
-21 -43 11 -313 302 -271 290 -330 376 -318 463 13 88 47 192 63 192 4 0 39
-11 77 -24z m2198 -1542 c102 -112 303 -222 441 -242 l51 -7 3 -48 c5 -71 -7
-80 -92 -72 -148 15 -336 106 -441 214 -49 51 -50 53 -50 115 0 55 14 96 32
96 2 0 28 -25 56 -56z m-2000 -182 c32 -114 150 -281 240 -338 31 -21 205 -84
229 -84 4 0 -21 29 -56 64 -46 46 -69 79 -85 120 -25 69 -25 66 -3 66 11 0 38
-23 62 -51 23 -27 74 -74 114 -104 114 -85 543 -298 644 -320 27 -5 37 -15 49
-43 8 -21 21 -44 29 -52 7 -9 16 -43 19 -75 11 -107 8 -102 74 -110 40 -5 62
-12 66 -22 3 -9 3 -19 -1 -22 -3 -3 -66 -5 -141 -5 -74 1 -131 -1 -126 -5 9
-8 159 -44 257 -62 32 -6 88 -9 125 -7 l65 3 47 -130 c25 -72 44 -134 41 -138
-10 -18 -97 -67 -161 -91 -245 -92 -527 -84 -650 20 -42 35 -64 111 -50 169
10 40 9 47 -33 125 -23 45 -62 104 -85 132 -24 27 -43 55 -43 61 0 7 9 36 20
65 11 29 18 57 15 61 -2 5 -34 11 -70 15 -69 7 -231 65 -314 114 -63 36 -289
265 -328 332 -18 30 -40 85 -50 121 -15 59 -15 73 -3 140 15 77 45 124 73 113
8 -3 21 -31 30 -62z m1898 -267 c17 -66 42 -153 56 -192 30 -84 31 -85 191
-105 123 -16 121 -37 -11 -98 -37 -18 -69 -36 -72 -40 -9 -15 96 -211 172
-319 88 -127 198 -250 261 -293 55 -37 62 -45 62 -74 0 -16 -10 -26 -37 -37
-117 -46 -210 -58 -302 -36 -47 10 -194 96 -275 160 -27 22 -59 39 -72 39 -34
0 -55 28 -93 125 -25 63 -40 89 -60 100 -55 29 -141 142 -141 186 0 14 18 51
40 82 22 30 40 62 40 69 0 36 68 213 86 222 28 16 32 24 39 81 15 121 47 260
63 278 17 19 17 19 20 -4 2 -13 17 -78 33 -144z m1073 -115 c33 -16 85 -39
115 -49 63 -22 90 -16 188 40 43 25 57 29 68 19 24 -20 18 -36 -35 -83 -40
-36 -70 -52 -143 -76 -109 -35 -183 -51 -240 -51 -74 0 -75 -8 -13 -106 106
-167 253 -315 382 -384 81 -43 82 -45 46 -77 -27 -23 -32 -35 -32 -71 0 -87
-85 -199 -173 -228 -113 -37 -167 -18 -285 104 -45 46 -74 89 -104 151 -53
110 -55 113 -78 99 -14 -9 -23 -7 -45 10 l-27 22 -46 -40 c-52 -47 -98 -53
-160 -21 -41 21 -132 108 -132 125 1 6 46 45 102 86 55 41 135 105 178 141 43
36 110 90 149 120 l71 54 -45 7 c-90 13 -275 87 -275 110 0 6 7 19 15 28 15
16 20 16 81 -6 108 -40 165 -29 294 56 41 26 77 49 79 49 2 1 31 -12 65 -29z"/>
<path d="M3702 325 c36 -84 90 -162 130 -184 23 -13 34 -14 75 -3 58 15 87 36
115 81 l21 33 -62 -7 c-61 -7 -64 -6 -94 23 -25 24 -199 132 -213 132 -1 0 11
-34 28 -75z"/>
</g>
</svg>
