<?xml version="1.0" standalone="no"?>
<!DOCTYPE svg PUBLIC "-//W3C//DTD SVG 20010904//EN"
 "http://www.w3.org/TR/2001/REC-SVG-20010904/DTD/svg10.dtd">
<svg version="1.0" xmlns="http://www.w3.org/2000/svg"
 width="480.000000pt" height="360.000000pt" viewBox="0 0 480.000000 360.000000"
 preserveAspectRatio="xMidYMid meet">
<metadata>
Created by potrace 1.16, written by Peter Selinger 2001-2019
</metadata>
<rect width="1" height="360" fill="#000000"/>
<rect x="479" width="1" height="360" fill="#000000"/>
<rect width="480" height="1" fill="#000000"/>
<rect y="359" width="480" height="1" fill="#000000"/>
<g transform="translate(0.000000,360.000000) scale(0.100000,-0.100000)"
fill="#000000" stroke="none">
<path d="M3930 3371 c22 -43 -4 -87 -46 -77 -17 5 -22 3 -18 -7 7 -20 -159
-137 -177 -126 -42 26 -57 -9 -28 -66 19 -37 20 -47 10 -78 -13 -40 -16 -155
-5 -190 4 -12 14 -27 23 -34 14 -10 14 -12 -2 -19 -10 -4 -47 -4 -83 -1 -60 6
-65 5 -80 -18 -10 -16 -29 -27 -52 -30 -21 -3 -65 -11 -98 -16 -67 -12 -104
-2 -104 28 0 13 -9 15 -57 10 -59 -6 -85 -24 -98 -64 -5 -17 -2 -23 10 -23 28
0 92 -70 129 -140 21 -39 45 -72 56 -75 36 -11 80 6 144 55 59 45 113 67 110
45 -1 -5 -14 -60 -29 -122 -26 -105 -27 -114 -12 -137 15 -23 15 -26 -4 -50
-11 -14 -30 -56 -43 -93 -27 -79 -80 -196 -105 -233 -10 -14 -26 -47 -35 -74
-16 -42 -17 -53 -5 -88 16 -50 71 -103 127 -125 l44 -16 -5 -61 c-2 -34 -10
-81 -16 -106 -10 -35 -10 -62 -1 -121 9 -59 9 -82 0 -99 -9 -16 -9 -29 0 -49
8 -21 8 -34 -3 -60 -13 -29 -19 -34 -58 -37 -104 -10 -106 -89 -5 -181 46 -42
63 -82 29 -68 -88 37 -154 43 -174 19 -8 -9 -31 -27 -51 -40 -21 -13 -47 -42
-57 -63 -18 -34 -19 -41 -6 -51 9 -7 32 -13 53 -14 31 -1 37 2 40 22 5 34 74
102 103 102 13 0 42 -11 64 -25 22 -13 60 -34 84 -47 25 -12 57 -36 73 -53 27
-29 37 -65 19 -65 -13 0 -41 -58 -41 -86 0 -23 42 -64 65 -64 6 0 17 -12 24
-26 10 -23 8 -29 -18 -53 -33 -31 -37 -77 -8 -109 10 -11 15 -26 11 -36 -9
-23 9 -20 24 4 7 11 16 20 20 20 5 0 29 20 56 44 35 34 48 54 53 83 8 55 32
125 50 145 12 13 25 16 58 11 34 -4 52 0 84 18 23 12 41 25 42 28 10 109 3
131 -51 167 -22 15 -40 33 -40 40 0 7 18 19 40 25 46 14 65 38 74 94 10 63 7
96 -16 157 -15 41 -19 71 -15 105 3 26 1 58 -4 71 -5 13 -10 62 -10 109 0 50
-8 112 -20 153 -10 39 -19 85 -19 105 0 31 4 37 37 50 55 23 73 44 73 82 0 37
-35 114 -73 159 -23 27 -64 125 -101 241 -10 28 -27 64 -38 78 -18 23 -19 30
-8 53 18 39 60 182 60 204 0 19 4 22 53 33 32 7 53 46 58 109 3 35 1 40 -35
60 -22 12 -41 27 -43 33 -5 15 46 31 137 43 41 5 111 15 155 21 44 5 83 14 88
18 4 4 -1 15 -12 25 -18 17 -25 16 -146 -4 -70 -12 -129 -19 -132 -17 -2 3 3
19 11 36 17 33 21 127 7 150 -11 17 -2 39 34 77 25 27 24 50 -1 40 -18 -7 -44
3 -44 17 0 6 -22 41 -50 78 -46 64 -48 69 -31 81 29 20 31 67 5 92 -22 23 -37
20 -24 -3z m320 -561 c0 -11 -17 -15 -120 -30 -126 -18 -142 -19 -135 -12 3 4
59 16 123 28 64 12 120 22 125 23 4 0 7 -3 7 -9z m-810 -120 c-14 -4 -38 -8
-55 -8 l-30 0 30 8 c17 4 41 8 55 8 l25 0 -25 -8z m-10 -29 c0 -5 -15 -26 -34
-47 l-34 -38 -21 34 c-26 44 -26 48 2 53 41 8 87 7 87 -2z m407 -1123 c12 -35
25 -85 28 -113 4 -27 13 -74 22 -104 8 -29 12 -67 9 -84 -4 -19 -1 -39 9 -54
12 -18 13 -28 4 -44 -6 -12 -14 -42 -18 -68 -8 -52 -6 -51 -96 -27 -33 9 -91
19 -128 23 -53 5 -71 11 -82 27 -18 24 -20 62 -4 72 7 4 9 21 5 47 -9 55 14
212 51 350 3 13 15 17 51 18 26 0 56 4 67 9 48 21 60 13 82 -52z"/>
<path d="M2316 3353 c-6 -15 -8 -15 -17 -3 -8 12 -9 10 -4 -7 3 -12 2 -24 -4
-27 -5 -3 -7 -14 -4 -24 6 -24 -113 -124 -138 -117 -9 3 -24 -2 -33 -10 -15
-15 -14 -20 8 -59 16 -29 21 -48 15 -57 -20 -32 -10 -75 27 -109 28 -25 35
-38 32 -60 -3 -20 -1 -27 9 -23 7 3 13 -1 13 -9 0 -9 -23 -22 -57 -33 -32 -11
-65 -24 -73 -30 -51 -35 -60 -36 -71 -12 -14 31 -61 32 -94 1 -25 -23 -34 -54
-15 -54 23 0 8 -22 -25 -36 -42 -17 -95 -18 -130 -2 -35 16 -48 -3 -40 -56 6
-44 63 -131 85 -131 8 0 27 26 42 58 15 31 32 57 37 57 14 0 22 -29 15 -56 -8
-30 10 -53 39 -50 12 2 45 19 73 39 56 40 69 44 81 24 4 -7 18 -19 31 -27 13
-8 37 -45 53 -83 l30 -67 -25 -43 c-13 -23 -48 -98 -76 -167 -29 -69 -63 -146
-76 -172 -28 -56 -54 -127 -54 -150 0 -28 41 -65 115 -106 l70 -37 7 -90 c4
-50 3 -102 -2 -117 -5 -17 -5 -30 1 -33 13 -9 11 -42 -3 -51 -7 -5 -24 -7 -39
-6 -14 1 -42 -5 -62 -13 -62 -26 -75 -79 -29 -122 35 -33 88 -60 136 -68 30
-6 36 -11 34 -28 -3 -23 -75 -50 -159 -60 -84 -10 -86 -17 -35 -137 4 -10 -3
-25 -20 -40 -23 -22 -34 -25 -105 -25 -88 1 -98 -8 -58 -59 27 -34 39 -33 83
9 21 19 55 39 79 45 23 6 52 15 65 20 32 14 58 12 125 -5 51 -13 62 -13 94 0
19 8 61 15 92 15 45 0 64 5 91 25 19 14 40 25 47 25 17 0 73 78 73 101 0 10
-16 30 -35 45 -19 14 -35 33 -35 40 0 8 18 34 40 58 52 56 53 89 5 117 -19 11
-36 28 -39 37 -14 50 -21 100 -29 207 -3 28 -6 59 -8 70 -3 14 2 21 17 23 50
7 94 88 94 171 0 48 -5 69 -38 186 -11 39 -28 111 -37 160 -9 50 -23 100 -32
113 -21 34 -24 59 -7 73 19 16 18 38 -6 84 -27 53 -25 77 9 108 40 35 83 111
79 139 -2 16 -13 26 -36 33 -18 5 -31 12 -29 15 1 3 13 26 27 52 l24 47 -22
48 c-12 26 -26 68 -32 92 -10 39 -9 47 9 72 28 38 27 43 -16 60 -37 14 -116
106 -112 131 4 35 -2 58 -17 58 -8 0 -13 4 -9 9 3 5 1 12 -4 15 -5 3 -12 -2
-15 -11z m41 -1712 c30 -66 43 -140 34 -196 l-6 -39 -55 3 c-30 1 -60 7 -66
12 -14 12 -16 138 -2 209 17 96 54 101 95 11z m-175 -575 c9 -14 -1 -58 -16
-69 -6 -4 -24 -6 -41 -5 -24 2 -34 11 -48 41 -10 21 -15 43 -11 48 8 13 106 1
116 -15z"/>
<path d="M754 3192 c-15 -13 -20 -28 -19 -59 1 -36 -3 -47 -29 -69 -17 -15
-41 -36 -53 -47 -12 -11 -36 -21 -52 -23 -17 -2 -40 -13 -51 -24 l-20 -20 26
-37 c20 -30 24 -47 23 -92 -2 -48 1 -57 25 -77 15 -13 34 -24 42 -24 9 0 14
-11 14 -35 0 -19 3 -35 8 -35 4 0 13 -9 20 -20 10 -16 10 -25 1 -42 -7 -12
-13 -29 -14 -38 -1 -15 -28 -80 -44 -110 -8 -16 -181 -90 -193 -84 -4 3 -13
-4 -20 -14 -17 -24 -39 -32 -113 -42 -33 -5 -74 -11 -91 -15 -28 -6 -32 -4
-44 25 -18 43 -50 54 -117 39 l-53 -12 0 -186 1 -186 132 -83 c73 -46 190
-121 262 -168 192 -125 200 -128 253 -116 37 8 50 7 72 -7 l28 -16 -39 -64
c-47 -79 -50 -117 -11 -156 30 -31 97 -75 187 -125 33 -18 64 -35 69 -38 5 -2
-5 -10 -22 -17 -45 -20 -140 -119 -144 -152 -3 -24 -8 -28 -38 -31 -47 -3
-172 -30 -246 -53 -142 -43 -142 -43 -202 6 -34 28 -59 42 -70 38 -9 -3 -66
-24 -125 -46 l-108 -42 3 -129 2 -130 260 -257 c362 -355 376 -368 414 -375
71 -14 117 3 286 102 91 52 171 103 178 111 15 18 15 18 -235 223 -105 86
-177 152 -177 163 0 21 7 21 53 2 29 -12 50 -13 119 -4 88 11 124 28 186 89
27 28 32 39 32 81 0 52 3 56 70 80 125 46 159 81 146 151 -11 62 -55 109 -145
156 -65 35 -84 50 -96 78 -8 19 -19 34 -24 34 -6 0 -11 11 -11 25 0 14 -11 36
-24 48 -13 12 -45 51 -72 87 l-49 65 42 -3 c23 -2 59 2 80 9 21 7 50 14 65 15
33 2 129 50 175 88 33 27 35 32 31 77 -4 37 -24 78 -90 191 -47 78 -91 154
-98 168 -7 14 -30 46 -52 72 -21 27 -36 52 -33 58 3 5 -6 30 -21 55 -28 49
-41 91 -50 170 -8 74 -11 86 -29 128 -12 30 -13 42 -4 53 6 7 15 12 19 9 4 -3
11 2 14 11 3 8 10 13 15 10 4 -3 16 10 27 29 16 31 17 39 5 87 -7 29 -22 72
-33 96 l-20 42 21 35 c19 33 20 36 4 55 -10 11 -25 20 -35 20 -27 0 -85 56
-91 89 -3 16 -18 46 -32 67 -14 20 -28 48 -31 61 -7 27 -12 28 -40 5z m-79
-914 c9 -29 28 -65 41 -81 13 -16 21 -34 17 -40 -4 -7 -8 -8 -10 -1 -5 14
-102 -4 -124 -22 -28 -25 -104 -17 -172 17 -34 17 -64 33 -66 35 -11 11 46 54
78 60 20 3 61 17 91 31 43 21 96 43 126 53 1 0 9 -23 19 -52z m-326 -44 c3 -3
0 -9 -7 -16 -12 -12 -66 5 -78 24 -6 10 75 1 85 -8z m451 -198 c0 -12 -23 -66
-28 -66 -4 1 -27 12 -52 25 l-45 23 30 7 c17 4 35 8 40 10 14 5 55 6 55 1z
m-32 -1139 c2 -18 -3 -29 -17 -37 -28 -14 -26 -28 4 -40 32 -12 32 -40 1 -69
-14 -13 -30 -37 -37 -53 -11 -28 -15 -30 -54 -25 -35 3 -60 19 -139 83 -53 43
-96 84 -96 91 0 15 98 63 129 63 11 0 32 5 48 12 47 19 116 26 138 13 11 -7
21 -24 23 -38z"/>
</g>
</svg>
