<?xml version="1.0" standalone="no"?>
<!DOCTYPE svg PUBLIC "-//W3C//DTD SVG 20010904//EN"
 "http://www.w3.org/TR/2001/REC-SVG-20010904/DTD/svg10.dtd">
<svg version="1.0" xmlns="http://www.w3.org/2000/svg"
 width="480.000000pt" height="360.000000pt" viewBox="0 0 480.000000 360.000000"
 preserveAspectRatio="xMidYMid meet">
<metadata>
Created by potrace 1.16, written by Peter Selinger 2001-2019
</metadata>
<rect width="1" height="360" fill="#000000"/>
<rect x="479" width="1" height="360" fill="#000000"/>
<rect width="480" height="1" fill="#000000"/>
<rect y="359" width="480" height="1" fill="#000000"/>
<g transform="translate(0.000000,360.000000) scale(0.100000,-0.100000)"
fill="#000000" stroke="none">
<path d="M860 1800 l0 -1800 1970 0 1970 0 0 1800 0 1800 -1970 0 -1970 0 0
-1800z m2022 506 c20 -7 76 -49 123 -92 l87 -79 -32 -3 c-23 -3 -45 6 -83 32
-65 45 -77 45 -77 2 0 -33 21 -66 41 -66 22 0 157 -71 163 -85 8 -21 -15 -55
-36 -55 -30 0 -20 -14 37 -48 30 -18 55 -40 55 -48 0 -8 3 -14 8 -14 8 0 34
-51 28 -57 -1 -2 -16 7 -32 19 l-29 23 19 -29 c12 -19 19 -53 22 -99 2 -39 7
-74 11 -78 7 -7 106 -32 231 -59 46 -11 52 -15 52 -37 0 -24 2 -25 43 -20 223
30 246 31 334 16 65 -10 88 -18 88 -29 0 -9 9 -15 22 -14 18 0 20 -3 12 -17
-7 -14 -3 -25 21 -49 16 -16 38 -30 50 -30 11 0 20 -4 20 -10 0 -5 7 -10 16
-10 8 0 12 -4 9 -10 -3 -5 3 -10 14 -10 11 0 23 -4 26 -10 3 -5 -3 -10 -15
-10 -18 0 -20 -4 -14 -22 3 -13 11 -24 15 -26 13 -5 11 -19 -7 -36 -8 -9 -11
-16 -6 -16 7 0 9 -30 3 -47 -1 -2 -1 -6 0 -10 2 -17 -44 -22 -71 -8 -36 19
-41 19 -34 0 4 -9 0 -15 -10 -15 -9 0 -16 -5 -16 -10 0 -6 -12 -15 -26 -21
-26 -9 -26 -10 -8 -25 19 -15 19 -15 -1 -9 -49 17 -58 18 -50 5 4 -7 -13 0
-39 15 -52 30 -62 21 -15 -14 17 -13 28 -25 26 -28 -3 -2 -29 14 -58 36 -61
46 -83 54 -259 86 -69 13 -151 33 -183 45 -50 19 -61 20 -80 8 -12 -8 -46 -13
-75 -13 -49 1 -53 -1 -47 -20 18 -64 17 -100 -3 -118 -24 -22 -44 -14 -72 28
l-19 29 -16 -42 c-30 -75 -63 -46 -68 59 l-4 62 -44 14 c-24 7 -89 13 -144 13
-110 0 -151 15 -142 51 12 47 -40 61 -323 84 -102 9 -203 19 -224 22 -58 9
-39 -9 53 -48 53 -22 81 -39 81 -50 0 -10 17 -23 45 -33 48 -19 53 -27 31 -45
-19 -16 -98 20 -201 89 -42 28 -93 58 -113 67 -32 13 -37 13 -48 -1 -6 -9 -16
-16 -22 -16 -6 0 -12 -5 -14 -10 -5 -17 -48 19 -48 40 0 24 -29 40 -70 40 -47
0 -97 25 -114 58 -24 46 -8 51 124 37 63 -7 124 -15 135 -18 25 -8 307 -42
478 -58 l128 -12 41 39 c57 55 138 165 138 187 0 10 -5 38 -11 63 -10 37 -9
54 6 99 20 66 13 115 -16 115 -11 0 -32 14 -46 31 -15 17 -65 49 -117 74 -118
57 -146 83 -146 136 0 37 3 41 41 58 48 22 99 12 99 -18 0 -27 7 -29 53 -20
28 6 53 21 76 45 18 20 45 43 60 50 33 17 114 17 163 0z"/>
<path d="M3001 1783 c13 -14 18 -23 12 -19 -17 9 -17 -15 0 -38 11 -16 14 -15
36 14 12 17 21 32 19 34 -13 7 -80 36 -85 36 -4 0 4 -12 18 -27z"/>
<path d="M2785 1629 c-6 -34 -19 -53 -66 -97 -59 -56 -70 -72 -46 -71 23 1
151 94 166 120 13 24 12 29 -8 58 -12 17 -26 31 -31 31 -4 0 -11 -19 -15 -41z"/>
<path d="M3156 1539 c21 -23 93 -63 100 -56 6 6 -93 77 -108 77 -6 0 -3 -9 8
-21z"/>
<path d="M3280 1546 c0 -2 18 -16 41 -30 36 -24 47 -27 91 -21 27 4 48 9 45
11 -4 4 -157 44 -169 44 -5 0 -8 -2 -8 -4z"/>
</g>
</svg>
