<?xml version="1.0" standalone="no"?>
<!DOCTYPE svg PUBLIC "-//W3C//DTD SVG 20010904//EN"
 "http://www.w3.org/TR/2001/REC-SVG-20010904/DTD/svg10.dtd">
<svg version="1.0" xmlns="http://www.w3.org/2000/svg"
 width="480.000000pt" height="360.000000pt" viewBox="0 0 480.000000 360.000000"
 preserveAspectRatio="xMidYMid meet">
<metadata>
Created by potrace 1.16, written by Peter Selinger 2001-2019
</metadata>
<rect width="1" height="360" fill="#000000"/>
<rect x="479" width="1" height="360" fill="#000000"/>
<rect width="480" height="1" fill="#000000"/>
<rect y="359" width="480" height="1" fill="#000000"/>
<g transform="translate(0.000000,360.000000) scale(0.100000,-0.100000)"
fill="#000000" stroke="none">
<path d="M1771 3587 c-6 -8 -8 -17 -4 -21 4 -4 -2 -9 -14 -12 -21 -6 -42 -66
-25 -72 5 -1 7 -15 4 -31 -2 -16 1 -52 7 -81 6 -28 14 -74 17 -103 3 -29 8
-59 11 -67 3 -8 8 -33 9 -54 2 -21 10 -46 16 -54 7 -8 12 -24 10 -34 -5 -26
30 -97 48 -98 8 -1 25 -3 37 -6 12 -2 25 1 28 6 3 6 18 10 32 10 21 0 24 -4
20 -22 -63 -245 -65 -260 -39 -286 11 -11 25 -21 31 -23 6 -2 25 -55 42 -118
17 -63 37 -127 45 -143 11 -22 15 -59 13 -149 -2 -116 -3 -121 -26 -130 -18
-7 -23 -16 -23 -43 0 -19 5 -38 10 -41 19 -12 10 -22 -58 -64 -106 -67 -113
-81 -122 -263 -4 -84 -11 -160 -15 -170 -4 -11 -24 -19 -56 -23 -36 -5 -57
-15 -75 -33 -37 -40 -32 -82 16 -143 22 -28 40 -56 40 -62 0 -7 -9 -75 -21
-152 -18 -120 -28 -156 -71 -255 -27 -63 -69 -162 -93 -220 -24 -58 -64 -154
-89 -215 -25 -60 -46 -120 -46 -132 0 -13 17 -41 37 -64 40 -44 41 -54 27
-171 l-6 -48 835 0 836 0 -24 88 c-13 48 -37 123 -55 166 -22 55 -29 87 -25
108 7 32 -7 132 -35 253 -11 44 -29 134 -40 200 -21 116 -21 122 -5 249 9 72
18 133 21 135 9 10 55 -20 63 -41 14 -37 29 -192 56 -558 28 -367 38 -463 57
-547 l13 -53 322 0 323 0 0 30 c0 16 -10 59 -22 96 l-21 66 21 91 c12 51 22
102 22 114 0 12 -38 93 -84 179 -47 86 -108 209 -137 273 -90 202 -139 304
-191 395 l-51 88 22 62 c12 33 21 69 21 80 0 27 -61 83 -106 95 -27 8 -46 22
-61 47 -13 19 -23 39 -23 44 0 5 -21 49 -46 97 -40 76 -72 137 -105 204 -4 9
-11 84 -14 165 l-7 149 20 -35 c12 -19 26 -46 32 -59 6 -13 12 -22 14 -20 2 2
-7 83 -20 179 -13 96 -22 181 -19 188 2 6 13 12 23 12 25 0 62 41 62 68 0 11
-16 58 -36 103 -28 63 -34 89 -29 115 7 38 12 40 62 19 69 -29 122 -14 114 33
-1 6 6 12 15 12 10 0 14 5 10 15 -3 9 1 18 8 21 15 6 39 55 34 70 -1 5 6 21
16 37 11 16 16 36 13 49 -4 13 0 26 9 32 8 6 16 28 17 49 2 21 9 42 16 47 8 4
14 22 13 39 0 17 3 31 9 31 12 0 5 55 -9 73 -7 8 -10 21 -7 29 9 24 -18 45
-85 66 -163 52 -287 63 -409 37 -95 -20 -136 -38 -157 -70 -17 -26 -17 -26
-38 -7 -28 25 -74 40 -150 48 -51 5 -71 3 -110 -15 l-48 -21 -11 29 c-18 48
-137 107 -279 136 -92 20 -341 21 -357 2z"/>
</g>
</svg>
