<?xml version="1.0" standalone="no"?>
<!DOCTYPE svg PUBLIC "-//W3C//DTD SVG 20010904//EN"
 "http://www.w3.org/TR/2001/REC-SVG-20010904/DTD/svg10.dtd">
<svg version="1.0" xmlns="http://www.w3.org/2000/svg"
 width="480.000000pt" height="360.000000pt" viewBox="0 0 480.000000 360.000000"
 preserveAspectRatio="xMidYMid meet">
<metadata>
Created by potrace 1.16, written by Peter Selinger 2001-2019
</metadata>
<rect width="1" height="360" fill="#000000"/>
<rect x="479" width="1" height="360" fill="#000000"/>
<rect width="480" height="1" fill="#000000"/>
<rect y="359" width="480" height="1" fill="#000000"/>
<g transform="translate(0.000000,360.000000) scale(0.100000,-0.100000)"
fill="#000000" stroke="none">
<path d="M264 3503 c-83 -106 -169 -230 -227 -331 l-37 -63 0 -1316 0 -1316
32 -56 c46 -82 157 -244 233 -339 56 -71 69 -82 96 -82 l31 0 -17 27 c-27 41
-93 207 -121 303 -41 143 -55 235 -56 374 0 178 23 315 78 463 14 37 29 80 34
95 12 39 108 200 172 288 105 145 282 296 443 377 233 117 363 148 620 148
125 0 194 -5 260 -18 234 -48 421 -133 594 -271 73 -58 96 -73 226 -144 120
-66 205 -97 355 -128 201 -41 413 -36 643 16 64 14 225 77 258 101 15 10 33
19 41 19 30 0 213 134 293 215 53 55 125 135 125 140 0 3 20 31 44 62 184 240
288 658 242 969 -23 154 -94 392 -140 469 -6 11 -17 33 -24 49 -13 29 -13 29
10 14 47 -31 217 -262 305 -415 l22 -38 1 242 0 243 -2229 0 -2230 0 -77 -97z
m3097 -415 c82 -49 130 -98 160 -166 36 -80 37 -139 4 -227 -34 -91 -83 -148
-161 -186 -60 -30 -68 -31 -151 -27 -99 6 -120 15 -200 83 -70 61 -103 126
-110 219 -5 67 -3 76 31 149 30 63 47 85 91 118 72 54 122 70 216 66 60 -3 86
-9 120 -29z"/>
<path d="M1490 1171 c-149 -47 -252 -165 -271 -311 -15 -123 26 -227 123 -315
81 -72 138 -98 233 -102 73 -3 86 -1 155 30 243 108 294 428 97 602 -60 53
-90 71 -156 91 -49 15 -140 17 -181 5z"/>
<path d="M4723 346 c-40 -61 -113 -163 -163 -226 l-91 -115 162 -3 c89 -1 164
-1 166 1 2 2 2 105 1 229 l-3 225 -72 -111z"/>
</g>
</svg>
