<?xml version="1.0" standalone="no"?>
<!DOCTYPE svg PUBLIC "-//W3C//DTD SVG 20010904//EN"
 "http://www.w3.org/TR/2001/REC-SVG-20010904/DTD/svg10.dtd">
<svg version="1.0" xmlns="http://www.w3.org/2000/svg"
 width="480.000000pt" height="360.000000pt" viewBox="0 0 480.000000 360.000000"
 preserveAspectRatio="xMidYMid meet">
<metadata>
Created by potrace 1.16, written by Peter Selinger 2001-2019
</metadata>
<rect width="1" height="360" fill="#000000"/>
<rect x="479" width="1" height="360" fill="#000000"/>
<rect width="480" height="1" fill="#000000"/>
<rect y="359" width="480" height="1" fill="#000000"/>
<g transform="translate(0.000000,360.000000) scale(0.100000,-0.100000)"
fill="#000000" stroke="none">
<path d="M0 1935 c0 -1579 1 -1665 18 -1665 9 0 139 -9 287 -20 149 -11 456
-33 683 -50 227 -16 433 -30 456 -30 42 0 46 3 116 83 39 45 84 96 99 112 219
241 285 334 431 610 29 55 75 133 102 174 26 41 48 77 48 81 0 21 -526 530
-602 582 -25 17 -79 36 -151 53 -218 51 -261 74 -359 192 -63 76 -76 113 -77
216 -1 89 10 117 65 162 56 47 98 94 104 118 4 14 18 25 40 32 19 5 55 25 79
42 24 18 59 36 79 39 50 10 184 -12 233 -37 98 -50 200 -177 231 -288 29 -107
24 -146 -29 -203 l-25 -26 41 -38 c23 -20 75 -60 116 -88 40 -28 131 -98 200
-156 70 -58 143 -115 163 -127 l37 -22 2 37 c1 21 -4 44 -13 53 -12 13 -14 29
-8 66 3 26 11 56 16 66 8 15 2 25 -30 53 -76 65 -68 107 55 282 88 126 98 152
89 252 -6 71 -4 78 19 110 40 55 30 118 -34 218 -39 59 -39 61 -20 78 10 9 19
24 19 32 0 16 -7 15 -111 -13 l-67 -19 -60 29 c-52 25 -63 35 -76 70 -9 22
-41 65 -71 95 -34 34 -55 63 -55 77 0 12 -11 30 -26 40 -14 10 -40 30 -56 44
l-31 25 42 33 c60 48 68 67 40 97 -29 31 -39 30 -39 -1 0 -14 -4 -25 -10 -25
-5 0 -10 4 -10 10 0 15 -43 35 -48 21 -2 -7 -13 -4 -30 10 -25 19 -27 19 -30
4 -4 -16 -6 -16 -25 3 -12 12 -43 40 -69 63 -27 23 -48 47 -48 53 0 6 -16 21
-35 34 l-35 22 -815 0 -815 0 0 -1665z"/>
<path d="M4736 2878 c-17 -10 -16 -12 14 -24 18 -8 36 -14 41 -14 17 0 9 29
-10 40 -23 12 -21 12 -45 -2z"/>
<path d="M4510 2818 c-19 -5 -53 -8 -75 -5 -37 5 -34 2 37 -34 66 -33 81 -37
104 -29 15 6 29 8 32 6 3 -3 -3 -8 -12 -12 -9 -3 -16 -10 -16 -14 0 -4 37 -31
83 -60 45 -29 94 -61 110 -72 l27 -19 0 85 c0 84 0 84 -34 110 -19 14 -43 26
-53 26 -15 0 -16 -2 -3 -10 25 -16 7 -11 -58 15 -66 27 -87 29 -142 13z"/>
<path d="M4470 2540 c42 -35 40 -36 -36 -9 -79 28 -308 41 -298 16 3 -8 24
-28 47 -44 38 -26 47 -28 126 -26 86 2 88 -1 16 -28 -36 -13 -29 -18 68 -49
38 -12 66 -24 64 -27 -3 -2 -31 0 -63 6 -105 20 -106 18 -19 -69 51 -52 93
-85 120 -94 34 -12 36 -15 15 -17 -14 -1 -46 -1 -72 1 -62 2 -72 -5 -52 -36
26 -38 10 -39 -19 -1 -19 25 -39 38 -73 46 -47 12 -130 6 -140 -10 -7 -12 20
-48 53 -70 26 -18 27 -19 6 -19 -16 0 -21 -4 -17 -15 8 -21 2 -19 -66 15 -67
34 -138 52 -158 41 -10 -6 -5 -11 20 -21 18 -8 56 -24 85 -37 88 -39 142 -46
211 -29 44 12 68 13 86 6 15 -5 41 -11 58 -12 36 -3 44 -17 84 -162 15 -53 30
-96 34 -96 4 0 39 12 76 26 38 15 92 32 119 38 l50 11 3 262 2 262 -52 41
c-28 23 -68 50 -89 60 -63 32 -170 70 -198 70 l-26 -1 35 -29z"/>
<path d="M4123 2374 c54 -28 70 -25 42 6 -12 13 -30 20 -54 20 l-36 -1 48 -25z"/>
<path d="M3842 1978 c27 -62 70 -174 95 -248 42 -125 65 -166 83 -155 4 3 11
44 14 92 15 184 53 295 115 338 16 10 28 22 25 26 -2 4 -52 10 -111 14 -60 4
-141 16 -182 26 -41 11 -78 19 -82 19 -4 0 15 -51 43 -112z"/>
<path d="M2850 1199 c-57 -79 -145 -145 -222 -166 -40 -11 -63 -24 -75 -42 -9
-14 -59 -80 -111 -146 -219 -278 -291 -395 -302 -493 -5 -37 -12 -89 -16 -116
l-7 -49 79 6 c43 3 94 12 111 19 31 13 101 70 358 289 161 137 323 326 374
437 24 51 24 54 8 80 -10 15 -35 61 -57 102 -22 42 -52 91 -68 109 l-27 32
-45 -62z"/>
</g>
</svg>
