<?xml version="1.0" standalone="no"?>
<!DOCTYPE svg PUBLIC "-//W3C//DTD SVG 20010904//EN"
 "http://www.w3.org/TR/2001/REC-SVG-20010904/DTD/svg10.dtd">
<svg version="1.0" xmlns="http://www.w3.org/2000/svg"
 width="480.000000pt" height="360.000000pt" viewBox="0 0 480.000000 360.000000"
 preserveAspectRatio="xMidYMid meet">
<metadata>
Created by potrace 1.16, written by Peter Selinger 2001-2019
</metadata>
<rect width="1" height="360" fill="#000000"/>
<rect x="479" width="1" height="360" fill="#000000"/>
<rect width="480" height="1" fill="#000000"/>
<rect y="359" width="480" height="1" fill="#000000"/>
<g transform="translate(0.000000,360.000000) scale(0.100000,-0.100000)"
fill="#000000" stroke="none">
<path d="M0 2390 l0 -1209 30 -16 c35 -18 48 -56 33 -96 -8 -19 -7 -31 0 -38
8 -8 6 -11 -6 -11 -13 0 -15 -5 -8 -23 10 -26 3 -74 -12 -84 -5 -3 -16 3 -24
13 -14 18 -14 18 -9 -6 3 -14 10 -69 16 -122 9 -81 9 -101 -4 -125 -12 -24
-15 -88 -16 -351 l-1 -322 1293 0 1294 0 13 118 c7 64 16 153 20 197 6 66 15
94 49 160 35 66 44 96 52 170 6 50 13 105 16 123 5 27 3 32 -12 32 -11 0 -57
16 -102 35 -46 19 -103 37 -126 40 -39 6 -45 4 -67 -23 -13 -17 -39 -57 -58
-90 -39 -70 -45 -72 -168 -64 -90 5 -162 -6 -250 -41 l-51 -20 -115 36 c-103
32 -123 35 -193 30 -65 -4 -88 -11 -127 -35 -37 -24 -53 -29 -75 -23 -37 10
-110 12 -149 3 -27 -6 -37 -3 -59 17 -15 14 -33 25 -40 25 -8 0 -14 4 -14 8 0
18 -78 60 -104 55 -28 -6 -158 20 -223 44 -23 8 -55 29 -71 47 -16 17 -50 48
-76 70 -26 21 -55 55 -64 75 -9 20 -25 48 -35 64 -10 15 -17 37 -16 50 2 12
-1 49 -5 82 -7 52 -13 65 -47 96 -42 39 -47 55 -25 98 8 15 12 38 9 50 -4 16
2 31 22 51 20 20 32 49 41 92 7 34 11 65 8 69 -2 4 15 21 38 37 24 16 72 53
107 81 35 28 81 56 102 63 22 6 39 13 39 15 0 3 -9 12 -20 21 -17 15 -18 22
-9 61 5 24 7 56 5 70 -11 51 -8 107 9 161 9 30 16 70 15 87 -1 41 47 97 108
126 24 11 53 33 65 49 12 17 39 39 60 50 21 10 47 33 57 51 26 44 71 68 141
74 54 5 58 7 53 27 -7 29 28 73 65 81 33 7 47 20 53 50 2 14 11 20 31 20 37 1
52 19 49 58 -3 26 4 39 37 72 23 21 41 45 41 52 0 7 35 48 79 91 59 59 80 87
85 115 8 45 41 121 58 134 7 6 49 13 93 17 57 5 84 12 93 23 9 13 15 14 24 5
18 -18 57 -15 137 13 65 22 101 24 101 6 0 -4 21 -13 47 -20 92 -24 133 -48
148 -85 23 -55 52 -76 105 -76 25 0 51 5 56 10 36 36 67 -66 45 -145 -11 -42
-1 -68 24 -58 9 3 19 -5 26 -21 7 -14 15 -23 19 -21 4 2 7 -8 7 -23 0 -36 22
-174 29 -181 3 -3 19 10 35 29 19 23 29 29 29 19 0 -9 -11 -28 -25 -43 -14
-15 -25 -31 -25 -35 0 -15 27 -20 39 -8 8 8 11 8 11 -1 0 -7 5 -12 10 -12 6 0
10 6 10 13 0 15 58 77 72 77 5 0 6 24 4 53 -5 48 -5 49 6 20 6 -18 14 -33 17
-32 3 0 28 34 55 75 26 41 50 73 53 71 6 -6 -34 -84 -47 -92 -6 -4 -22 -29
-35 -56 -14 -27 -30 -49 -35 -49 -5 0 -7 -6 -4 -14 3 -8 -4 -16 -19 -20 -15
-3 -34 -24 -53 -57 -16 -28 -35 -61 -41 -72 -18 -31 -16 -112 2 -127 11 -9 14
-22 9 -46 -8 -45 19 -47 41 -4 17 33 35 32 36 -3 l0 -22 11 23 c6 12 15 22 20
22 5 0 2 -13 -7 -30 -8 -16 -14 -33 -13 -37 1 -4 -3 -18 -10 -30 -7 -13 -8
-23 -3 -23 5 0 13 9 16 20 3 11 13 20 21 20 9 0 14 11 14 29 0 17 4 33 10 36
6 3 10 -4 10 -17 0 -19 7 -15 55 32 30 29 58 51 61 47 4 -4 -12 -25 -35 -48
-44 -44 -48 -54 -29 -65 6 -4 24 7 42 28 101 114 122 142 133 180 7 22 19 48
26 57 7 9 27 46 45 82 25 50 31 74 26 100 -5 34 -5 34 10 9 14 -24 15 -24 21
-5 4 11 13 36 20 55 l13 35 -3 -45 c-3 -50 -27 -116 -62 -172 -13 -21 -23 -40
-23 -44 0 -3 -9 -17 -20 -31 -11 -15 -18 -28 -16 -30 2 -2 43 17 90 44 84 46
86 49 81 78 -16 83 -18 118 -7 111 7 -4 12 -16 12 -27 0 -11 7 -35 15 -55 14
-33 16 -34 38 -22 14 7 50 43 81 81 73 85 90 92 30 10 -13 -17 -24 -36 -24
-42 0 -5 -27 -37 -61 -70 -33 -34 -55 -61 -47 -62 51 -4 148 31 148 54 0 7 12
24 26 38 l27 24 -18 -27 c-20 -32 -7 -37 32 -11 26 17 26 17 12 -5 -8 -12 -22
-25 -32 -28 -13 -4 -17 -12 -14 -25 4 -15 1 -19 -11 -18 -24 3 -87 -11 -151
-32 -30 -11 -68 -19 -85 -19 -52 0 -131 -45 -191 -107 -30 -32 -55 -62 -55
-67 0 -6 -14 -25 -32 -43 -28 -29 -30 -33 -11 -33 24 0 76 25 93 45 9 11 10
18 1 28 -14 18 -2 30 15 16 11 -9 16 -5 24 15 13 34 22 34 14 0 -8 -30 -3 -29
53 12 17 13 36 24 42 24 18 0 1 -27 -24 -38 -25 -12 -140 -92 -165 -116 -8 -8
-28 -18 -43 -21 -18 -5 -27 -14 -27 -27 0 -15 5 -19 20 -15 11 3 18 1 14 -4
-3 -5 -11 -9 -18 -9 -24 0 -46 -36 -46 -74 0 -40 3 -41 53 -21 28 12 18 -9
-15 -30 -17 -11 -36 -28 -42 -37 -18 -30 3 -33 32 -5 16 15 33 27 39 27 6 0
14 6 16 13 3 7 6 7 6 1 1 -6 -26 -32 -58 -58 -52 -42 -71 -64 -71 -82 0 -3 26
13 58 35 32 23 64 41 72 41 8 0 28 9 45 20 16 11 54 25 83 31 53 11 93 29 164
77 55 36 73 90 60 178 -6 38 -13 80 -17 94 -6 23 -5 24 8 7 8 -10 18 -37 21
-60 11 -69 22 -78 41 -33 9 21 14 49 11 62 -3 12 -3 30 0 39 6 14 10 12 26
-12 17 -24 19 -25 15 -6 -3 14 3 29 19 44 13 12 24 32 24 43 0 15 3 17 9 8 4
-7 6 -24 3 -38 -6 -33 11 -31 68 11 53 39 82 47 50 13 -21 -23 -29 -108 -10
-108 6 0 29 12 51 26 23 14 43 23 47 20 3 -3 0 -6 -6 -6 -7 0 -12 -7 -12 -16
0 -11 6 -14 21 -9 19 6 20 5 8 -8 -8 -8 -17 -13 -21 -11 -26 16 -233 -98 -233
-129 0 -15 38 -25 100 -26 36 -1 46 -4 35 -11 -13 -9 -13 -10 0 -11 8 0 0 -5
-19 -10 -26 -8 -37 -7 -52 7 -13 12 -28 15 -56 10 -21 -3 -46 -6 -57 -7 -19 0
-55 -36 -56 -55 0 -11 -62 -54 -125 -87 -26 -14 -27 -16 -9 -17 29 0 99 25
132 48 15 11 32 17 38 15 6 -2 17 3 24 12 26 31 30 14 4 -20 -15 -20 -25 -37
-23 -38 2 -2 29 -8 59 -14 l54 -10 48 51 c25 28 49 48 52 45 3 -3 -12 -25 -35
-50 -22 -24 -35 -45 -29 -47 23 -8 140 20 140 34 0 28 -23 120 -33 132 -8 11
-7 16 5 23 14 8 14 13 2 46 -15 44 -17 63 -6 63 4 0 15 -28 25 -62 18 -60 63
-137 81 -138 11 0 1 146 -14 225 -5 24 2 35 22 35 21 0 21 -1 3 -14 -18 -13
-18 -15 -2 -58 18 -47 21 -121 8 -253 -4 -44 -7 -81 -5 -83 5 -8 106 52 119
71 8 12 15 16 15 10 0 -6 -12 -21 -26 -34 -68 -61 -98 -100 -76 -99 16 1 43
28 40 41 -2 8 4 13 13 11 9 -1 22 5 29 13 7 8 18 15 26 15 7 0 29 15 49 34 19
19 47 37 61 40 l26 7 -19 -25 c-10 -14 -41 -37 -70 -51 -28 -15 -59 -35 -68
-45 -15 -17 -15 -21 3 -57 10 -21 22 -51 26 -67 l7 -29 40 39 c39 38 39 39 17
46 -22 6 -22 6 4 7 30 1 82 57 93 98 6 25 51 103 60 103 2 0 -7 -22 -20 -49
-14 -27 -25 -53 -25 -57 1 -14 40 37 40 51 0 6 15 27 34 46 19 20 37 52 42 74
l8 40 4 -44 c3 -38 -1 -49 -36 -90 -21 -25 -51 -65 -65 -88 -15 -23 -34 -46
-44 -52 -10 -5 -15 -12 -11 -16 3 -4 32 12 63 35 59 43 129 80 155 79 8 0 1
-6 -16 -13 -18 -8 -35 -19 -38 -25 -4 -6 -14 -11 -23 -11 -8 0 -42 -20 -74
-45 -33 -25 -64 -45 -69 -45 -6 0 -10 -4 -10 -10 0 -17 22 -11 56 15 18 14 39
25 46 25 7 0 4 -6 -7 -12 -11 -7 -26 -17 -33 -25 -7 -7 -26 -20 -43 -30 -34
-20 -77 -93 -54 -93 7 0 40 24 73 53 33 28 88 72 121 97 33 25 60 51 60 58 1
6 10 12 21 12 11 0 20 5 20 10 0 6 8 10 18 10 10 0 22 3 28 8 5 4 -11 -12 -36
-35 -29 -27 -39 -42 -29 -43 23 0 65 44 96 101 14 26 32 50 39 53 16 6 19 -10
4 -19 -18 -11 -11 -25 13 -25 13 0 38 11 57 25 37 28 45 30 34 14 -3 -6 -25
-23 -49 -38 -98 -62 -256 -204 -232 -209 24 -5 87 25 87 42 0 8 5 18 12 22 8
5 9 2 4 -12 -14 -36 -24 -109 -17 -121 5 -9 17 -4 45 19 33 27 37 35 32 62 -4
22 -3 27 4 16 5 -8 10 -23 10 -32 0 -10 2 -18 5 -18 3 0 47 21 98 47 50 26 95
46 100 45 4 -1 7 367 7 818 l0 820 -1908 0 c-1471 0 -1911 -3 -1920 -12 -9 -9
-12 -9 -12 0 0 9 -119 12 -480 12 l-480 0 0 -1210z m308 1008 c-6 -18 -28 -21
-28 -4 0 9 7 16 16 16 9 0 14 -5 12 -12z m2852 -552 c0 -13 -8 -30 -17 -37
-15 -13 -16 -11 -10 11 4 14 7 31 7 38 0 6 5 12 10 12 6 0 10 -11 10 -24z
m600 -94 c0 -8 -43 -32 -56 -32 -16 0 6 25 27 31 13 4 25 7 27 8 1 1 2 -3 2
-7z m-529 -59 c13 -16 12 -17 -3 -4 -10 7 -18 15 -18 17 0 8 8 3 21 -13z m336
-165 c-3 -7 -5 -2 -5 12 0 14 2 19 5 13 2 -7 2 -19 0 -25z m883 -307 c-6 -12
-15 -21 -21 -21 -5 0 -2 11 8 24 21 28 29 27 13 -3z m-1190 0 c0 -14 -18 -23
-30 -16 -6 4 -8 11 -5 16 8 12 35 12 35 0z m1290 6 c0 -2 -10 -12 -22 -23
l-23 -19 19 23 c18 21 26 27 26 19z m210 -10 c0 -2 -10 -12 -22 -23 l-23 -19
19 23 c18 21 26 27 26 19z m-130 -31 c0 -2 -8 -10 -17 -17 -16 -13 -17 -12 -4
4 13 16 21 21 21 13z m-205 -36 c-3 -5 -11 -10 -16 -10 -6 0 -7 5 -4 10 3 6
11 10 16 10 6 0 7 -4 4 -10z m65 -50 c-8 -5 -19 -10 -25 -10 -5 0 -3 5 5 10 8
5 20 10 25 10 6 0 3 -5 -5 -10z m-255 -220 c-3 -5 -12 -10 -18 -10 -7 0 -6 4
3 10 19 12 23 12 15 0z m-3885 -630 c20 -16 22 -20 8 -20 -10 0 -18 5 -18 10
0 6 -6 10 -14 10 -8 0 -18 5 -21 10 -11 17 19 11 45 -10z"/>
<path d="M2699 2627 c-31 -39 -46 -138 -25 -175 10 -19 15 -21 23 -10 29 36
41 75 36 119 -3 29 -1 49 6 53 15 10 14 46 -1 45 -7 0 -25 -15 -39 -32z m21
-32 c-5 -14 -7 -31 -4 -39 4 -11 0 -13 -15 -9 -17 4 -19 8 -9 27 24 46 43 61
28 21z"/>
<path d="M3390 2640 c-12 -8 -11 -10 7 -10 12 0 25 5 28 10 8 13 -15 13 -35 0z"/>
<path d="M3696 2495 c-19 -15 -24 -25 -16 -30 7 -4 -1 -13 -22 -23 -31 -16
-69 -84 -55 -98 11 -11 84 55 98 88 7 18 17 36 22 39 5 4 7 16 5 27 -3 20 -3
20 -32 -3z"/>
<path d="M2770 2440 c-12 -7 -12 -12 0 -34 17 -32 30 -33 30 -3 0 32 -13 48
-30 37z"/>
<path d="M3720 2443 c0 -6 -3 -20 -6 -30 -7 -17 -6 -17 12 -1 14 14 16 21 6
30 -8 8 -12 9 -12 1z"/>
<path d="M2629 2420 c-3 -19 -5 -25 -18 -48 -19 -35 -4 -40 27 -9 23 23 25 29
12 37 -10 6 -11 10 -2 10 6 0 12 5 12 10 0 6 -7 10 -15 10 -8 0 -16 -4 -16
-10z"/>
<path d="M2743 2335 c-12 -14 -25 -35 -28 -46 -6 -18 -4 -19 12 -10 39 23 65
51 59 66 -8 21 -18 19 -43 -10z"/>
<path d="M2562 2287 c-22 -22 -30 -39 -26 -50 3 -9 9 -17 13 -17 12 0 81 75
81 88 0 23 -36 12 -68 -21z"/>
<path d="M2820 2298 c0 -9 5 -20 10 -23 13 -8 13 5 0 25 -8 13 -10 13 -10 -2z"/>
<path d="M2990 2293 c-28 -10 -70 -57 -70 -77 0 -12 -32 -56 -70 -98 -58 -66
-72 -89 -90 -148 l-21 -71 22 -30 c18 -26 23 -29 31 -16 4 9 44 35 87 58 77
41 80 43 101 101 21 57 21 60 4 104 -9 24 -14 47 -11 50 3 3 10 -11 17 -31 15
-46 35 -40 36 11 0 21 4 50 7 64 8 28 -4 82 -19 86 -5 1 -16 0 -24 -3z m20
-55 c0 -16 -3 -19 -11 -11 -6 6 -8 16 -5 22 11 17 16 13 16 -11z"/>
<path d="M3040 2290 c0 -5 5 -10 10 -10 6 0 10 5 10 10 0 6 -4 10 -10 10 -5 0
-10 -4 -10 -10z"/>
<path d="M2708 2240 c-28 -15 -38 -27 -38 -45 0 -22 3 -25 28 -19 32 7 105 55
106 69 2 18 -58 15 -96 -5z"/>
<path d="M3840 2202 c1 -23 59 -131 60 -111 0 30 -32 118 -46 123 -9 3 -14 -1
-14 -12z"/>
<path d="M2753 2152 c-29 -15 -52 -47 -41 -57 2 -2 22 14 45 36 46 42 45 46
-4 21z"/>
<path d="M2479 2143 c-10 -96 -6 -114 40 -185 25 -39 46 -73 46 -77 1 -11 19
-36 38 -50 17 -14 18 -12 13 30 -3 24 -14 74 -26 111 -16 53 -18 75 -11 108 9
41 9 42 -25 56 -36 15 -74 18 -75 7z"/>
<path d="M3425 2069 c-16 -5 -65 -10 -107 -11 -64 -3 -80 -7 -101 -26 -27 -26
-61 -46 -152 -90 -33 -16 -76 -44 -95 -61 -19 -18 -55 -45 -81 -61 -25 -17
-51 -41 -58 -54 -12 -22 -9 -30 38 -100 l52 -76 47 39 c26 21 57 42 70 46 12
3 22 13 22 21 0 17 17 19 22 2 5 -14 77 15 160 65 26 16 68 30 97 34 49 5 50
7 44 32 l-6 26 21 -26 c25 -31 77 -43 94 -22 8 10 13 11 18 3 9 -15 51 6 109
54 24 20 62 44 86 55 23 10 45 23 49 29 8 14 -21 69 -47 87 -30 21 -34 9 -7
-20 28 -30 13 -33 -21 -4 -13 11 -36 27 -51 35 -16 8 -28 19 -28 24 0 11 -135
10 -175 -1z"/>
<path d="M3753 2073 c-13 -2 -23 -6 -23 -8 0 -10 65 -95 72 -95 5 0 13 11 18
24 12 31 35 47 25 17 -7 -24 3 -27 27 -8 14 10 14 16 2 45 -16 37 -34 42 -35
10 l0 -23 -11 23 c-11 22 -25 25 -75 15z"/>
<path d="M3841 1964 c-14 -13 -22 -26 -19 -30 10 -10 46 6 52 23 11 28 -8 32
-33 7z"/>
<path d="M3977 1964 c-33 -22 -38 -31 -36 -57 2 -18 -3 -42 -9 -54 -7 -12 -8
-24 -3 -27 5 -3 7 -15 4 -26 -4 -14 0 -20 11 -20 9 0 16 8 16 19 0 10 7 21 15
25 16 6 39 55 30 64 -3 3 -13 -2 -24 -12 -16 -15 -19 -15 -24 -2 -7 18 27 41
45 30 7 -4 8 -3 4 5 -4 6 -2 18 4 26 6 8 10 23 8 35 -3 20 -4 20 -41 -6z"/>
<path d="M4745 1925 c-22 -13 -65 -34 -95 -46 -69 -28 -132 -69 -107 -69 29 0
8 -20 -21 -21 -27 0 -128 -37 -104 -38 6 -1 12 -8 12 -17 0 -12 7 -15 27 -11
26 5 26 4 8 -9 -10 -8 -30 -15 -44 -15 -21 -1 -20 -3 9 -9 19 -4 27 -8 17 -9
-10 0 -15 -6 -11 -12 4 -7 23 -9 53 -5 41 6 44 5 28 -8 -13 -10 -31 -13 -54
-9 -26 4 -34 3 -29 -5 13 -21 -22 -13 -50 12 -24 20 -32 22 -59 13 -28 -8 -36
-6 -54 12 -25 25 -46 26 -83 7 -16 -9 -30 -11 -33 -5 -8 11 -43 3 -92 -22 -34
-17 -35 -19 -13 -20 15 -1 -3 -10 -45 -24 -96 -31 -141 -52 -162 -73 -10 -10
-38 -25 -63 -32 -66 -21 -172 -97 -267 -191 -46 -45 -83 -86 -83 -89 0 -4 -13
-24 -30 -45 -21 -27 -61 -53 -147 -95 -117 -58 -171 -99 -158 -119 7 -12 26
-15 23 -3 -4 11 5 14 25 6 13 -4 27 2 48 22 27 26 43 22 17 -4 -18 -18 -3 -25
24 -11 20 11 22 10 10 -3 -11 -13 -7 -16 29 -22 32 -5 47 -2 72 16 l32 22 -23
-26 c-24 -26 -24 -26 -4 -37 12 -6 30 -11 41 -11 12 0 21 -5 21 -11 0 -7 -10
-9 -27 -5 -16 4 -54 10 -85 13 -32 3 -58 9 -58 14 0 12 -71 11 -90 0 -12 -8
-10 -14 12 -36 21 -20 32 -24 54 -19 26 7 27 7 8 -13 -12 -12 -22 -15 -26 -9
-5 7 -8 7 -8 -1 0 -7 20 -22 45 -34 47 -22 60 -35 23 -24 -17 6 -20 4 -15 -9
7 -19 -4 -21 -21 -4 -9 9 -16 7 -32 -7 -18 -16 -23 -17 -30 -5 -6 8 -10 25
-10 37 0 40 -11 53 -43 53 -29 0 -30 1 -11 15 18 14 18 16 2 25 -9 6 -24 17
-32 25 -8 8 -21 15 -29 15 -15 0 -47 -31 -47 -46 0 -6 -12 -39 -26 -75 -22
-54 -26 -78 -25 -155 1 -50 8 -113 16 -140 21 -68 20 -301 -1 -369 -14 -46
-13 -86 2 -137 5 -17 40 -18 561 -18 l556 0 -7 98 c-4 53 -15 131 -25 172
l-18 75 -45 3 c-43 3 -46 5 -58 42 -14 42 -8 117 14 178 8 21 19 57 26 82 7
25 16 55 21 68 12 31 11 116 -1 128 -15 15 -13 173 3 231 l15 52 -37 30 c-20
17 -39 31 -43 31 -3 0 -12 -17 -18 -37 -7 -21 -19 -46 -28 -55 -18 -21 -82
-24 -100 -6 -9 9 -19 7 -42 -10 -73 -55 -126 1 -84 89 39 79 104 119 195 119
45 0 61 4 71 19 17 24 83 56 132 65 40 8 76 -12 76 -41 0 -7 9 -22 21 -34 12
-12 18 -27 15 -36 -4 -9 1 -24 10 -34 19 -21 11 -77 -12 -86 -22 -8 -17 -26
21 -82 19 -28 35 -55 35 -60 0 -5 15 -27 33 -48 27 -32 36 -38 49 -29 31 19
33 -4 6 -57 -14 -29 -32 -71 -38 -94 -12 -40 -11 -42 21 -83 28 -35 38 -41 60
-36 15 3 35 -1 45 -9 19 -13 19 -14 0 -21 -18 -7 -17 -9 9 -30 32 -25 29 -60
-5 -51 -11 3 -20 1 -20 -4 0 -5 -4 -9 -10 -9 -5 0 -10 8 -10 19 0 10 -12 27
-27 37 -15 9 -47 37 -71 62 -24 24 -46 42 -48 39 -6 -6 18 -95 51 -187 52
-145 50 -138 30 -160 -20 -22 -65 -26 -97 -9 -35 19 -37 -7 -7 -94 16 -45 28
-100 29 -122 0 -22 5 -57 11 -78 l10 -37 284 0 285 0 0 975 c0 536 -3 975 -7
975 -5 0 -26 -11 -48 -25z m-167 -242 c-16 -2 -40 -2 -55 0 -16 2 -3 4 27 4
30 0 43 -2 28 -4z m9 -29 c-3 -3 -12 -4 -19 -1 -8 3 -5 6 6 6 11 1 17 -2 13
-5z m88 -264 c-3 -5 -10 -10 -16 -10 -5 0 -9 5 -9 10 0 6 7 10 16 10 8 0 12
-4 9 -10z m-1135 -390 c0 -13 -28 -25 -38 -16 -3 4 0 11 8 16 20 13 30 12 30
0z m-40 -90 c0 -5 -7 -10 -16 -10 -8 0 -12 5 -9 10 3 6 10 10 16 10 5 0 9 -4
9 -10z"/>
<path d="M3846 1911 c-4 -7 -5 -15 -2 -18 9 -9 19 4 14 18 -4 11 -6 11 -12 0z"/>
<path d="M4125 1880 c-16 -16 -25 -33 -21 -37 6 -6 66 51 66 63 0 12 -20 0
-45 -26z"/>
<path d="M3705 1878 c-27 -10 -54 -23 -59 -28 -18 -18 15 -40 58 -40 38 0 45
4 68 39 38 57 22 64 -67 29z"/>
<path d="M4330 1890 c0 -5 -4 -9 -9 -7 -12 3 -151 -101 -151 -113 0 -6 -8 -10
-19 -10 -29 0 -99 -33 -80 -37 23 -5 119 38 119 53 0 7 17 18 38 24 40 11 52
20 96 68 17 18 24 32 18 32 -7 0 -12 -4 -12 -10z"/>
<path d="M4430 1874 c-14 -7 -33 -14 -42 -14 -10 0 -32 -13 -50 -28 -18 -16
-57 -41 -86 -57 -28 -16 -51 -29 -50 -31 5 -4 108 15 181 33 70 18 82 28 101
91 6 17 4 22 -11 21 -10 -1 -29 -7 -43 -15z"/>
<path d="M4016 1854 c-19 -19 -21 -34 -3 -35 6 0 3 -5 -9 -10 -23 -12 -54 -59
-54 -83 0 -15 2 -15 26 1 31 20 74 85 74 112 0 27 -15 34 -34 15z"/>
<path d="M3790 1840 c-8 -15 -8 -20 2 -20 15 1 48 24 48 34 0 15 -40 4 -50
-14z"/>
<path d="M3818 1803 c-18 -5 -26 -43 -9 -43 6 0 20 -18 32 -40 22 -39 24 -40
41 -22 17 17 17 21 2 65 -16 47 -23 51 -66 40z"/>
<path d="M3567 1769 c-9 -5 -36 -13 -60 -18 -31 -5 -42 -12 -41 -24 1 -10 -5
-17 -16 -17 -10 0 -23 -7 -30 -15 -11 -13 -8 -15 13 -15 14 0 32 -3 41 -6 20
-7 34 25 17 36 -9 5 -5 9 11 12 21 4 24 1 20 -19 -5 -29 -5 -29 63 2 47 21 56
28 53 47 -3 26 -41 35 -71 17z"/>
<path d="M3737 1773 c-9 -18 -7 -113 3 -113 5 0 10 17 10 37 0 35 1 36 16 21
15 -14 15 -21 4 -48 -16 -40 -10 -45 34 -26 l37 15 -31 61 c-21 42 -36 60 -50
60 -10 0 -21 -3 -23 -7z"/>
<path d="M3273 1733 c-26 -13 -53 -54 -53 -79 0 -20 174 37 178 57 2 9 -11 20
-31 27 -42 15 -54 15 -94 -5z"/>
<path d="M4288 1733 c-21 -2 -38 -8 -38 -12 0 -9 58 -21 101 -21 14 0 34 9 44
20 18 20 17 20 -26 18 -24 -1 -61 -3 -81 -5z"/>
<path d="M3657 1699 c-15 -18 -25 -34 -21 -38 4 -3 9 0 11 7 3 6 9 12 14 12 6
0 5 -8 -1 -20 -8 -15 -17 -19 -35 -14 -15 4 -25 2 -25 -5 0 -6 6 -11 13 -12 6
0 1 -5 -13 -10 -25 -9 -78 -75 -68 -85 7 -6 68 28 68 39 0 4 10 7 21 7 12 0
38 9 58 21 36 20 36 21 31 71 -3 28 -10 53 -15 55 -6 2 -23 -11 -38 -28z"/>
<path d="M3565 1682 c-47 -23 -49 -25 -28 -35 26 -11 65 9 83 43 13 25 8 24
-55 -8z"/>
<path d="M3169 1670 l-24 -19 28 -1 c20 0 27 5 27 20 0 25 -2 25 -31 0z"/>
<path d="M3382 1634 c-19 -13 -26 -13 -38 -3 -12 10 -25 10 -66 -1 -29 -7 -78
-12 -111 -12 -49 1 -58 -2 -53 -14 3 -9 6 -18 6 -20 0 -2 6 -4 14 -4 7 0 19
-7 27 -16 10 -13 10 -17 0 -24 -10 -6 -9 -13 5 -35 l18 -28 13 29 c7 16 15 44
19 62 3 17 11 32 16 32 6 0 7 -9 3 -22 -35 -114 -38 -178 -9 -178 8 0 14 -7
14 -15 0 -21 6 -19 59 13 25 16 53 31 62 34 20 8 136 95 145 109 3 5 1 15 -4
22 -6 7 -12 28 -14 47 -3 33 -5 35 -43 38 -25 2 -49 -3 -63 -14z"/>
<path d="M3517 1633 c-10 -9 -8 -53 2 -53 16 0 31 27 25 44 -6 17 -16 20 -27
9z"/>
<path d="M3010 1581 c-17 -32 -12 -51 17 -64 15 -6 35 -20 45 -29 9 -9 35 -26
58 -38 56 -29 53 -8 -10 71 -27 34 -50 66 -50 71 0 17 -50 8 -60 -11z"/>
<path d="M3085 1590 c3 -5 8 -10 11 -10 2 0 4 5 4 10 0 6 -5 10 -11 10 -5 0
-7 -4 -4 -10z"/>
<path d="M3567 1530 c-14 -12 -40 -25 -57 -31 -16 -6 -30 -15 -30 -20 0 -5 12
-4 27 2 40 15 93 49 93 60 0 13 -4 12 -33 -11z"/>
<path d="M2968 1519 c-20 -11 -23 -45 -8 -69 7 -10 12 -12 18 -4 4 6 15 11 24
11 15 0 15 -3 -2 -28 -19 -26 -19 -29 -3 -93 9 -36 20 -66 25 -66 21 0 168 82
168 93 0 15 -51 67 -66 67 -6 0 -25 11 -44 25 -26 19 -36 22 -43 12 -6 -8 -7
-7 -4 4 3 10 -4 25 -19 38 -28 24 -24 23 -46 10z m82 -99 c0 -5 -7 -10 -16
-10 -8 0 -12 5 -9 10 3 6 10 10 16 10 5 0 9 -4 9 -10z"/>
<path d="M3375 1369 c-133 -66 -149 -83 -150 -161 0 -42 3 -48 20 -48 11 0 40
19 65 41 188 171 241 230 202 229 -9 -1 -71 -28 -137 -61z m-120 -129 c-10
-11 -21 -17 -24 -14 -3 3 3 12 13 20 28 20 32 17 11 -6z m15 -44 c0 -3 -4 -8
-10 -11 -5 -3 -10 -1 -10 4 0 6 5 11 10 11 6 0 10 -2 10 -4z"/>
<path d="M2765 1370 c-3 -5 -1 -10 4 -10 6 0 11 5 11 10 0 6 -2 10 -4 10 -3 0
-8 -4 -11 -10z"/>
<path d="M2781 1280 c13 -35 34 -35 34 1 0 17 -6 25 -22 27 -21 3 -22 1 -12
-28z"/>
<path d="M3110 1237 c-56 -29 -65 -38 -68 -64 l-3 -30 67 17 c47 12 70 23 75
36 10 25 11 74 2 74 -5 0 -37 -15 -73 -33z"/>
<path d="M2785 1200 c-7 -21 9 -50 26 -50 5 0 9 16 9 35 0 39 -24 49 -35 15z"/>
<path d="M3095 1133 c-65 -12 -91 -44 -47 -57 13 -4 12 -5 -3 -4 -36 1 -38 -2
-20 -22 18 -20 45 -27 45 -12 0 5 18 18 40 31 44 24 70 48 70 61 0 9 -43 10
-85 3z"/>
<path d="M2722 1058 c-7 -7 -12 -31 -12 -54 0 -43 -9 -57 -48 -68 -15 -5 -31
-1 -51 13 -37 26 -57 27 -71 1 -13 -24 -11 -24 72 -39 31 -6 75 -19 97 -31 22
-11 42 -20 44 -20 2 0 12 20 21 45 17 43 17 46 -3 74 -12 16 -21 41 -21 54 0
30 -12 41 -28 25z"/>
<path d="M3170 800 c0 -19 3 -21 12 -12 9 9 9 15 0 24 -9 9 -12 7 -12 -12z"/>
<path d="M4160 812 c0 -4 10 -13 21 -21 19 -11 21 -11 15 4 -3 9 -6 19 -6 21
0 2 -7 4 -15 4 -8 0 -15 -3 -15 -8z"/>
</g>
</svg>
