<?xml version="1.0" standalone="no"?>
<!DOCTYPE svg PUBLIC "-//W3C//DTD SVG 20010904//EN"
 "http://www.w3.org/TR/2001/REC-SVG-20010904/DTD/svg10.dtd">
<svg version="1.0" xmlns="http://www.w3.org/2000/svg"
 width="480.000000pt" height="360.000000pt" viewBox="0 0 480.000000 360.000000"
 preserveAspectRatio="xMidYMid meet">
<metadata>
Created by potrace 1.16, written by Peter Selinger 2001-2019
</metadata>
<rect width="1" height="360" fill="#000000"/>
<rect x="479" width="1" height="360" fill="#000000"/>
<rect width="480" height="1" fill="#000000"/>
<rect y="359" width="480" height="1" fill="#000000"/>
<g transform="translate(0.000000,360.000000) scale(0.100000,-0.100000)"
fill="#000000" stroke="none">
<path d="M1899 3075 c-66 -47 -114 -59 -188 -44 -83 18 -130 1 -201 -71 -60
-59 -85 -103 -99 -172 -5 -24 -26 -80 -46 -125 -49 -111 -91 -283 -105 -429
-13 -136 -25 -524 -16 -524 3 0 18 24 32 53 32 61 40 51 25 -29 -13 -71 -14
-91 -2 -79 12 13 58 149 66 198 13 69 16 31 6 -69 -6 -54 -6 -103 -2 -107 5
-5 17 15 27 45 l19 53 3 -112 c3 -116 14 -142 31 -75 6 20 17 46 24 57 8 11
18 36 22 55 8 34 9 34 16 10 11 -39 10 -109 -3 -172 -10 -46 -9 -61 1 -70 10
-11 15 -9 27 6 13 19 14 19 14 -5 0 -13 -3 -47 -6 -75 -6 -51 -7 -52 -46 -57
-65 -9 -65 -20 -1 -42 l38 -13 3 -179 c3 -172 2 -182 -28 -288 -50 -182 -71
-304 -77 -435 -3 -71 -12 -140 -20 -159 -16 -41 -53 -182 -53 -205 0 -14 44
-16 431 -16 l431 0 -6 68 c-4 37 -9 89 -12 115 -5 43 -4 49 15 54 14 3 24 18
31 44 6 22 20 55 31 73 17 29 19 41 10 73 -5 21 -10 67 -10 103 0 36 -7 139
-16 230 -10 105 -14 190 -9 235 6 53 9 64 15 45 4 -14 7 -44 8 -68 1 -49 21
-49 21 -1 0 53 24 27 51 -57 16 -47 42 -180 63 -320 53 -346 91 -472 167 -559
l31 -35 158 0 158 0 120 45 c66 25 122 45 126 45 3 0 6 -13 6 -30 0 -43 18
-37 41 15 22 51 36 57 45 20 3 -13 13 -30 22 -37 13 -12 15 -8 9 32 -5 41 -3
46 29 75 25 22 38 45 48 87 58 227 44 645 -28 888 -9 30 -16 56 -16 60 0 3 33
12 74 18 40 7 93 23 117 35 38 19 50 33 84 102 36 73 39 87 40 162 0 95 -14
123 -83 161 -36 20 -41 27 -36 48 3 13 2 24 -4 24 -5 0 -12 -10 -15 -21 -5
-17 -10 -20 -24 -13 -32 16 -147 10 -176 -9 -58 -38 -93 -159 -71 -243 7 -27
13 -54 14 -60 0 -18 -31 -26 -48 -12 -8 7 -27 11 -41 10 -53 -6 -378 -84 -455
-109 l-78 -25 -47 26 c-25 15 -85 46 -132 71 -92 47 -105 61 -134 143 -23 62
-42 67 -85 21 l-29 -32 -20 34 c-12 19 -21 40 -21 46 0 7 -16 38 -36 69 l-36
56 10 71 c6 39 17 74 24 78 10 6 12 25 8 76 -6 66 -5 69 23 92 16 13 33 35 38
48 5 15 20 26 40 30 41 8 47 29 17 61 -25 27 -45 78 -26 66 5 -3 19 2 30 13
20 18 21 18 13 -7 l-7 -25 23 21 c32 29 67 46 78 39 5 -3 12 4 16 15 4 11 10
18 15 15 8 -5 14 17 23 85 2 8 12 15 24 14 20 0 21 1 8 26 -8 15 -19 64 -24
109 -14 107 -45 166 -138 257 -53 51 -73 78 -73 96 0 17 -13 38 -41 63 -23 21
-45 52 -51 72 -7 25 -22 42 -56 64 -62 39 -104 38 -163 -6z m31 -1182 c0 -33
-3 -44 -11 -36 -9 9 -3 83 7 83 2 0 4 -21 4 -47z"/>
</g>
</svg>
