<?xml version="1.0" standalone="no"?>
<!DOCTYPE svg PUBLIC "-//W3C//DTD SVG 20010904//EN"
 "http://www.w3.org/TR/2001/REC-SVG-20010904/DTD/svg10.dtd">
<svg version="1.0" xmlns="http://www.w3.org/2000/svg"
 width="480.000000pt" height="360.000000pt" viewBox="0 0 480.000000 360.000000"
 preserveAspectRatio="xMidYMid meet">
<metadata>
Created by potrace 1.16, written by Peter Selinger 2001-2019
</metadata>
<rect width="1" height="360" fill="#000000"/>
<rect x="479" width="1" height="360" fill="#000000"/>
<rect width="480" height="1" fill="#000000"/>
<rect y="359" width="480" height="1" fill="#000000"/>
<g transform="translate(0.000000,360.000000) scale(0.100000,-0.100000)"
fill="#000000" stroke="none">
<path d="M1598 3553 c12 -80 5 -302 -12 -400 -18 -99 -96 -322 -127 -362 -11
-13 -19 -28 -19 -33 0 -17 -102 -160 -164 -231 -55 -62 -109 -110 -229 -204
-100 -78 -360 -185 -514 -213 -119 -21 -418 -12 -511 16 l-22 6 0 -1066 0
-1066 1303 0 1303 0 13 83 c29 184 55 290 107 442 71 206 85 265 134 538 22
124 46 254 54 290 9 43 10 70 3 82 -5 10 -14 56 -21 103 -10 79 -13 86 -37 92
-66 18 -109 73 -109 139 0 16 16 60 35 97 19 37 35 69 35 72 0 10 -88 -10
-183 -41 -109 -35 -125 -33 -139 21 -10 37 -11 37 -43 16 -14 -9 -25 -12 -25
-7 0 5 -6 17 -13 27 -11 15 -34 20 -103 26 -85 7 -331 73 -394 105 -14 7 -44
16 -65 20 -22 4 -62 21 -90 39 -41 26 -58 31 -103 29 -44 -2 -52 0 -42 12 9
10 5 15 -20 20 -35 8 -37 13 -12 31 15 12 14 13 -10 14 -33 0 -35 10 -7 36 20
18 23 18 101 2 48 -10 113 -34 162 -59 72 -37 101 -45 255 -71 96 -16 183 -34
192 -39 33 -17 139 -6 139 15 0 6 4 17 9 25 7 11 13 10 34 -4 25 -16 26 -16
42 14 18 35 30 37 100 15 86 -27 228 -44 274 -32 44 11 49 19 26 38 -20 17
-19 27 5 35 11 3 20 12 20 20 0 9 -10 12 -38 8 -32 -4 -40 -2 -50 18 -21 41
-49 88 -62 104 -11 13 -9 19 9 38 28 30 27 34 -11 42 -40 9 -67 41 -68 79 0
22 -4 27 -16 22 -14 -5 -15 -4 -5 8 6 7 9 20 6 28 -3 7 12 39 33 69 l38 54
-25 55 c-14 31 -25 74 -25 100 l-1 45 35 -1 c46 -2 242 -71 286 -100 19 -13
43 -24 52 -24 33 -1 98 -39 149 -88 62 -60 79 -107 94 -262 7 -74 18 -122 36
-165 20 -45 27 -82 31 -151 l5 -92 68 -61 c77 -69 88 -91 64 -127 -13 -20 -13
-25 -2 -30 16 -6 21 -61 6 -69 -5 -3 10 -42 32 -87 40 -79 41 -86 65 -296 14
-118 29 -223 35 -233 5 -11 14 -59 20 -107 7 -69 14 -91 31 -105 15 -13 18
-21 10 -29 -8 -8 -18 -6 -38 7 l-26 17 23 -41 c12 -22 20 -43 17 -47 -12 -11
-48 17 -68 54 -26 47 -16 4 12 -51 21 -43 17 -57 -12 -39 -12 7 -21 8 -25 2
-3 -6 -10 -10 -16 -10 -14 0 -48 60 -60 108 -7 23 -15 45 -20 47 -23 15 62
-211 159 -420 109 -236 138 -306 173 -412 l33 -103 458 0 458 0 0 1800 0 1800
-1605 0 -1605 0 8 -47z"/>
<path d="M3430 1553 c0 -5 -5 -48 -10 -97 -7 -69 -6 -101 5 -144 8 -31 15 -77
15 -102 0 -39 9 -73 46 -180 9 -25 21 7 29 78 6 52 0 96 -31 257 -22 107 -42
195 -46 195 -5 0 -8 -3 -8 -7z"/>
</g>
</svg>
