<?xml version="1.0" standalone="no"?>
<!DOCTYPE svg PUBLIC "-//W3C//DTD SVG 20010904//EN"
 "http://www.w3.org/TR/2001/REC-SVG-20010904/DTD/svg10.dtd">
<svg version="1.0" xmlns="http://www.w3.org/2000/svg"
 width="480.000000pt" height="360.000000pt" viewBox="0 0 480.000000 360.000000"
 preserveAspectRatio="xMidYMid meet">
<metadata>
Created by potrace 1.16, written by Peter Selinger 2001-2019
</metadata>
<rect width="1" height="360" fill="#000000"/>
<rect x="479" width="1" height="360" fill="#000000"/>
<rect width="480" height="1" fill="#000000"/>
<rect y="359" width="480" height="1" fill="#000000"/>
<g transform="translate(0.000000,360.000000) scale(0.100000,-0.100000)"
fill="#000000" stroke="none">
<path d="M1240 3591 c0 -6 4 -13 10 -16 5 -3 7 -18 4 -34 -5 -21 -2 -30 12
-35 16 -6 16 -8 4 -16 -12 -8 -13 -13 -2 -30 6 -11 12 -26 12 -34 0 -25 50
-28 189 -11 l33 4 -6 -42 c-5 -29 -30 -77 -81 -152 -41 -60 -78 -124 -81 -141
-7 -37 19 -84 45 -84 10 0 21 -3 25 -7 4 -4 25 -8 47 -9 22 -1 42 -4 44 -6 2
-2 11 -39 21 -83 14 -70 15 -99 5 -225 -6 -80 -14 -163 -16 -185 l-5 -40 25
54 c14 29 28 51 31 48 9 -8 -15 -158 -40 -252 -13 -50 -22 -92 -20 -94 3 -4
22 36 45 97 12 31 32 17 24 -17 -19 -79 -27 -101 -36 -101 -18 0 -125 -77
-157 -114 -35 -40 -47 -76 -62 -191 -14 -102 -37 -225 -57 -293 -14 -51 -17
-54 -41 -48 -70 15 -120 18 -141 6 -27 -14 -26 -25 18 -129 38 -91 39 -117 1
-228 -16 -48 -45 -138 -63 -199 -38 -122 -77 -209 -304 -667 -84 -169 -153
-310 -153 -312 0 -3 635 -5 1410 -5 776 0 1410 2 1410 5 0 3 -16 37 -36 76
-25 49 -34 77 -30 95 8 29 17 30 41 4 28 -31 49 -26 42 10 -5 23 -3 30 9 30 8
0 12 4 9 10 -6 10 -14 53 -19 108 -2 17 -11 41 -20 51 -13 15 -14 20 -4 23 10
4 10 8 2 19 -6 8 -14 28 -17 44 -10 61 -46 188 -56 198 -6 6 -11 26 -11 43 0
18 -5 45 -11 61 -7 15 -15 46 -20 68 -12 63 -40 159 -50 171 -5 6 -6 14 -3 17
4 4 -1 18 -10 32 -9 14 -15 29 -12 34 3 4 -1 17 -9 27 -8 10 -15 31 -15 45 0
15 -7 32 -15 39 -8 7 -12 16 -9 21 7 12 -16 79 -35 102 -16 20 -20 40 -23 150
-3 76 -4 80 -38 108 -76 63 -100 91 -100 118 0 10 -10 33 -23 52 -25 38 -49
100 -67 173 -13 57 -34 102 -62 133 -18 19 -19 30 -13 107 7 76 9 85 29 88 13
2 19 9 17 18 -8 29 -22 276 -18 333 3 49 1 57 -14 57 -41 0 -39 133 3 207 17
29 32 53 34 53 8 0 -8 -54 -28 -92 -23 -48 -11 -49 26 -2 48 61 69 128 69 227
l1 87 27 0 c19 0 40 13 68 43 22 23 41 46 41 51 0 6 18 39 39 75 21 36 42 77
46 91 4 14 11 27 14 30 7 5 81 148 81 156 0 2 -445 4 -990 4 -612 0 -990 -4
-990 -9z m1450 -1351 c0 -5 -2 -10 -4 -10 -3 0 -8 5 -11 10 -3 6 -1 10 4 10 6
0 11 -4 11 -10z m-1110 -1091 c16 -123 11 -239 -15 -406 -15 -87 -28 -185 -31
-218 -3 -33 -12 -75 -21 -93 -13 -26 -14 -37 -5 -57 11 -23 8 -31 -25 -75 -20
-27 -38 -48 -39 -47 -1 1 6 65 16 142 22 169 46 413 60 630 15 225 40 277 60
124z"/>
</g>
</svg>
