<?xml version="1.0" standalone="no"?>
<!DOCTYPE svg PUBLIC "-//W3C//DTD SVG 20010904//EN"
 "http://www.w3.org/TR/2001/REC-SVG-20010904/DTD/svg10.dtd">
<svg version="1.0" xmlns="http://www.w3.org/2000/svg"
 width="480.000000pt" height="360.000000pt" viewBox="0 0 480.000000 360.000000"
 preserveAspectRatio="xMidYMid meet">
<metadata>
Created by potrace 1.16, written by Peter Selinger 2001-2019
</metadata>
<rect width="1" height="360" fill="#000000"/>
<rect x="479" width="1" height="360" fill="#000000"/>
<rect width="480" height="1" fill="#000000"/>
<rect y="359" width="480" height="1" fill="#000000"/>
<g transform="translate(0.000000,360.000000) scale(0.100000,-0.100000)"
fill="#000000" stroke="none">
<path d="M3159 2952 c-13 -10 -44 -24 -69 -31 -72 -21 -115 -47 -186 -113 -61
-58 -241 -268 -228 -268 3 0 21 11 41 25 20 13 39 22 41 20 3 -3 -8 -33 -23
-67 -19 -41 -24 -63 -16 -66 6 -2 11 -20 11 -40 0 -20 3 -55 7 -77 5 -30 8
-35 13 -20 6 16 9 13 19 -18 15 -44 31 -49 31 -9 1 25 1 26 12 7 6 -11 17 -25
24 -31 19 -15 -8 -52 -52 -70 -40 -17 -46 -50 -13 -80 18 -16 20 -26 15 -63
-3 -24 -2 -49 2 -55 8 -10 22 -66 37 -144 8 -38 34 -52 95 -52 l38 0 -8 -36
c-11 -46 -11 -46 -49 -33 -45 16 -49 5 -7 -21 20 -12 36 -26 36 -31 0 -5 -9
-47 -21 -93 -21 -82 -22 -85 -69 -114 -40 -25 -51 -39 -61 -74 -15 -50 -65
-133 -101 -166 l-24 -22 -54 29 c-68 37 -94 30 -138 -42 -18 -28 -32 -45 -32
-37 0 34 40 259 56 309 13 46 14 67 5 130 -21 146 30 835 73 972 8 25 12 57 9
71 -15 77 -138 112 -191 54 -28 -31 -32 -59 -15 -123 17 -64 18 -42 -22 -563
-24 -316 -37 -429 -51 -451 -4 -7 -6 -44 -5 -83 2 -77 -29 -386 -38 -386 -3 0
-37 73 -75 161 -39 91 -77 164 -87 170 -12 6 -34 6 -63 -2 l-45 -11 -50 53
c-28 30 -67 85 -87 122 -56 106 -102 146 -224 198 -89 37 -100 45 -75 47 47 5
48 16 4 51 -34 28 -46 32 -76 28 -43 -7 -75 -35 -98 -87 -17 -38 -17 -43 4
-145 36 -181 37 -181 203 -236 109 -35 153 -61 173 -99 23 -44 19 -53 -33 -82
-62 -35 -83 -59 -126 -144 -82 -162 -90 -327 -30 -639 31 -164 60 -236 140
-359 l76 -116 257 0 256 0 13 41 c8 26 10 62 6 100 l-7 58 102 160 102 160 66
-97 c37 -53 72 -113 79 -132 6 -19 17 -92 24 -162 l13 -128 714 0 715 0 -6 48
c-3 26 -8 110 -12 187 -3 77 -19 237 -34 355 -16 118 -36 290 -46 382 l-18
168 32 177 c75 413 91 659 57 881 -15 102 -65 264 -89 291 -8 9 -24 45 -36 81
-12 36 -35 86 -52 112 -66 104 -204 198 -343 233 -73 19 -269 38 -305 30 -18
-4 -31 -1 -40 10 -17 20 -42 19 -71 -3z m-1614 -1242 c17 -11 24 -20 17 -20
-15 0 -72 28 -72 35 0 11 27 4 55 -15z"/>
<path d="M1346 2588 c4 -18 13 -46 20 -62 18 -37 18 -36 -9 -36 -25 0 -109
-42 -115 -58 -4 -12 66 -25 121 -23 36 1 37 0 37 -37 0 -20 5 -44 10 -52 7
-12 13 -11 34 10 15 13 26 32 26 42 0 22 8 23 29 4 9 -8 25 -16 36 -18 25 -4
23 25 -5 64 l-20 27 30 6 c28 6 33 27 7 24 -34 -4 -49 1 -39 14 6 6 13 28 17
48 10 52 -11 61 -46 21 l-28 -31 -16 25 c-15 23 -71 64 -87 64 -4 0 -5 -15 -2
-32z"/>
</g>
</svg>
