<?xml version="1.0" standalone="no"?>
<!DOCTYPE svg PUBLIC "-//W3C//DTD SVG 20010904//EN"
 "http://www.w3.org/TR/2001/REC-SVG-20010904/DTD/svg10.dtd">
<svg version="1.0" xmlns="http://www.w3.org/2000/svg"
 width="480.000000pt" height="360.000000pt" viewBox="0 0 480.000000 360.000000"
 preserveAspectRatio="xMidYMid meet">
<metadata>
Created by potrace 1.16, written by Peter Selinger 2001-2019
</metadata>
<rect width="1" height="360" fill="#000000"/>
<rect x="479" width="1" height="360" fill="#000000"/>
<rect width="480" height="1" fill="#000000"/>
<rect y="359" width="480" height="1" fill="#000000"/>
<g transform="translate(0.000000,360.000000) scale(0.100000,-0.100000)"
fill="#000000" stroke="none">
<path d="M0 1800 l0 -1800 2400 0 2400 0 0 1800 0 1800 -2400 0 -2400 0 0
-1800z m2304 925 c4 -14 11 -25 16 -25 6 0 10 -9 10 -20 0 -10 6 -23 14 -27 7
-4 18 -18 24 -29 9 -16 24 -23 62 -26 58 -6 79 -22 148 -115 46 -63 46 -63 96
-63 74 0 183 -18 241 -38 37 -13 72 -39 137 -102 l87 -86 -20 -66 c-21 -73
-64 -128 -98 -128 -12 0 -24 7 -27 15 -10 26 -24 17 -43 -29 -23 -52 -73 -112
-114 -132 -43 -23 -124 -21 -177 4 -53 25 -68 26 -94 7 -18 -14 -18 -16 -2
-50 11 -22 15 -47 11 -64 -4 -19 0 -35 16 -54 12 -16 18 -34 15 -44 -6 -14 -8
-14 -20 2 -7 10 -16 14 -19 8 -8 -13 11 -83 28 -103 22 -27 35 -80 25 -100 -6
-10 -10 -28 -10 -39 0 -29 -35 -61 -65 -61 -14 0 -28 -7 -31 -15 -11 -29 29
-251 73 -405 24 -85 51 -189 59 -230 13 -67 13 -76 -1 -86 -9 -7 -15 -27 -15
-48 0 -24 -4 -36 -12 -35 -50 6 -62 -27 -42 -111 23 -97 3 -123 -76 -99 -32
10 -40 17 -40 37 0 13 9 37 21 53 20 29 21 30 2 74 -20 50 -35 55 -86 29 -39
-20 -47 -31 -47 -65 0 -17 10 -33 31 -48 42 -31 36 -59 -19 -90 -37 -20 -48
-22 -69 -12 -25 12 -25 13 -19 90 9 100 0 110 -83 93 -84 -18 -94 -16 -146 27
-35 29 -59 40 -93 44 -26 3 -48 10 -50 16 -9 27 -45 60 -72 66 -40 9 -43 17
-23 59 16 34 16 37 -1 49 -16 12 -15 16 15 57 18 25 56 72 84 105 59 67 131
177 162 245 11 25 24 81 28 125 4 44 9 95 10 113 3 33 3 33 -16 16 -19 -17
-19 -16 -13 17 4 19 21 68 39 109 67 152 67 150 44 150 -25 0 -24 25 1 50 26
26 26 27 -11 46 -30 15 -33 15 -58 -5 -44 -36 -104 -61 -148 -61 -40 0 -45 3
-83 55 -37 50 -43 54 -72 48 -29 -6 -31 -5 -24 18 4 13 12 58 18 99 6 41 17
88 25 104 34 66 170 184 270 235 45 23 45 23 67 130 19 89 31 110 90 147 44
28 57 44 36 44 -6 0 -6 9 0 26 6 14 10 48 10 75 0 52 14 66 24 24z"/>
<path d="M3055 2146 c-28 -12 -65 -54 -65 -73 0 -4 9 -19 20 -33 l19 -25 21
20 c11 12 29 44 40 73 22 57 18 61 -35 38z"/>
<path d="M2830 1994 c-78 -16 -111 -29 -168 -64 l-43 -27 63 -26 c35 -15 70
-27 78 -27 26 1 96 37 120 61 25 26 60 80 60 92 0 10 -35 8 -110 -9z"/>
<path d="M1858 1851 l-28 -6 38 -50 c37 -49 39 -50 90 -50 50 1 105 27 105 50
0 6 -24 22 -53 38 -53 27 -94 32 -152 18z"/>
<path d="M2160 1810 c0 -5 7 -10 15 -10 8 0 15 5 15 10 0 6 -7 10 -15 10 -8 0
-15 -4 -15 -10z"/>
<path d="M2466 1544 c-4 -14 -5 -28 -3 -31 3 -2 8 8 11 23 4 14 5 28 3 31 -3
2 -8 -8 -11 -23z"/>
<path d="M2503 1476 c0 -55 2 -66 18 -71 28 -9 39 2 39 38 0 20 -11 45 -28 66
l-28 33 -1 -66z"/>
</g>
</svg>
