<?xml version="1.0" standalone="no"?>
<!DOCTYPE svg PUBLIC "-//W3C//DTD SVG 20010904//EN"
 "http://www.w3.org/TR/2001/REC-SVG-20010904/DTD/svg10.dtd">
<svg version="1.0" xmlns="http://www.w3.org/2000/svg"
 width="480.000000pt" height="360.000000pt" viewBox="0 0 480.000000 360.000000"
 preserveAspectRatio="xMidYMid meet">
<metadata>
Created by potrace 1.16, written by Peter Selinger 2001-2019
</metadata>
<rect width="1" height="360" fill="#000000"/>
<rect x="479" width="1" height="360" fill="#000000"/>
<rect width="480" height="1" fill="#000000"/>
<rect y="359" width="480" height="1" fill="#000000"/>
<g transform="translate(0.000000,360.000000) scale(0.100000,-0.100000)"
fill="#000000" stroke="none">
<path d="M0 1800 l0 -1800 1070 0 c589 0 1070 3 1070 8 0 4 5 45 11 91 16 130
47 543 42 557 -2 7 -18 17 -34 23 -17 6 -29 17 -29 27 0 9 -8 23 -17 30 -17
13 -17 13 1 14 12 0 16 5 12 16 -3 8 5 36 18 62 23 46 35 116 66 402 9 88 8
101 -15 185 -29 103 -31 160 -10 212 8 19 15 45 15 58 0 12 11 43 25 68 14 27
20 49 15 52 -20 12 -10 52 15 63 21 10 25 18 25 56 0 24 3 51 6 60 6 17 -61
86 -84 86 -8 0 -10 8 -6 26 6 25 5 26 -18 21 -17 -5 -30 -2 -38 8 -7 8 -18 15
-25 15 -6 0 -17 12 -24 27 -9 21 -14 24 -21 13 -15 -25 -24 61 -13 127 14 78
41 123 106 175 74 58 124 80 193 86 53 4 69 1 125 -26 66 -32 113 -82 157
-168 22 -43 82 -272 82 -313 0 -14 16 -102 36 -196 19 -95 41 -242 50 -334 8
-90 17 -168 21 -173 3 -6 9 -220 14 -477 8 -507 5 -472 80 -794 l21 -87 929 0
929 0 0 1069 0 1068 -57 18 c-159 49 -335 155 -470 281 -224 208 -345 429
-404 734 -19 101 -21 135 -16 273 l6 157 -1929 0 -1930 0 0 -1800z"/>
<path d="M2382 1975 c0 -16 2 -22 5 -12 2 9 2 23 0 30 -3 6 -5 -1 -5 -18z"/>
</g>
</svg>
