<?xml version="1.0" standalone="no"?>
<!DOCTYPE svg PUBLIC "-//W3C//DTD SVG 20010904//EN"
 "http://www.w3.org/TR/2001/REC-SVG-20010904/DTD/svg10.dtd">
<svg version="1.0" xmlns="http://www.w3.org/2000/svg"
 width="480.000000pt" height="360.000000pt" viewBox="0 0 480.000000 360.000000"
 preserveAspectRatio="xMidYMid meet">
<metadata>
Created by potrace 1.16, written by Peter Selinger 2001-2019
</metadata>
<rect width="1" height="360" fill="#000000"/>
<rect x="479" width="1" height="360" fill="#000000"/>
<rect width="480" height="1" fill="#000000"/>
<rect y="359" width="480" height="1" fill="#000000"/>
<g transform="translate(0.000000,360.000000) scale(0.100000,-0.100000)"
fill="#000000" stroke="none">
<path d="M0 1800 l0 -1800 856 2 856 3 59 145 c33 80 89 215 124 300 35 85 84
220 110 300 25 80 62 194 81 253 19 60 59 158 89 218 36 72 55 121 55 145 l0
36 -29 -31 c-34 -37 -40 -37 -74 -10 -38 29 -54 87 -34 125 8 16 17 43 21 59
6 24 5 28 -5 18 -20 -19 -27 -16 -34 17 -5 22 0 42 20 79 19 34 28 67 30 108
1 32 6 70 10 85 6 22 2 29 -19 43 -28 18 -42 16 -181 -24 -99 -30 -190 -28
-237 4 -44 30 -98 103 -128 173 -12 28 -27 52 -32 52 -7 0 -8 59 -5 162 l4
163 76 71 c121 114 320 203 550 244 67 12 118 27 129 37 11 10 46 70 79 134
33 64 78 137 100 162 49 56 139 103 229 119 75 13 101 28 49 28 -46 0 -48 23
-7 66 21 23 28 38 24 52 -5 16 4 30 36 62 25 23 47 56 53 78 14 48 29 44 33
-10 2 -23 10 -51 18 -62 18 -26 18 -50 -1 -66 -14 -11 -12 -16 14 -39 16 -14
32 -38 35 -53 6 -25 4 -27 -31 -30 -55 -5 -50 -21 15 -40 76 -22 174 -87 212
-139 27 -38 67 -149 109 -306 16 -60 36 -76 136 -113 110 -40 200 -91 302
-172 155 -122 272 -251 303 -332 17 -45 -45 -306 -77 -324 -9 -5 -41 -1 -83
11 l-68 21 -77 -72 c-94 -87 -178 -132 -249 -132 -81 0 -235 36 -304 71 -34
18 -58 35 -52 39 19 12 -20 35 -59 34 -26 0 -187 -58 -219 -79 -1 -1 5 -22 15
-47 16 -45 13 -85 -7 -73 -5 3 -10 3 -10 0 0 -21 37 -134 76 -230 55 -138 108
-345 85 -331 -6 4 -11 12 -11 18 0 16 -31 120 -35 116 -2 -2 1 -23 6 -47 10
-43 5 -66 -9 -44 -4 7 -7 -9 -6 -35 1 -26 3 -82 3 -124 1 -68 3 -78 19 -78 34
0 51 -24 60 -82 11 -71 3 -88 -32 -65 -14 9 -28 17 -32 17 -7 0 2 -141 13
-212 3 -23 2 -38 -5 -38 -5 0 -13 24 -17 53 -4 28 -13 65 -21 81 -8 16 -14 46
-14 67 0 30 -3 37 -17 34 -22 -3 -21 -6 12 -125 38 -131 40 -155 10 -95 -13
28 -32 68 -41 90 -16 39 -17 39 -25 16 -12 -31 16 -124 112 -365 l74 -186 892
0 893 0 0 1800 0 1800 -2400 0 -2400 0 0 -1800z"/>
<path d="M2900 3266 c0 -9 7 -16 16 -16 9 0 14 5 12 12 -6 18 -28 21 -28 4z"/>
<path d="M1572 2320 c0 -14 2 -19 5 -12 2 6 2 18 0 25 -3 6 -5 1 -5 -13z"/>
<path d="M1585 2118 c31 -101 133 -221 199 -233 40 -8 199 35 212 57 10 16
-98 112 -161 143 -53 27 -168 55 -223 55 -30 0 -33 -2 -27 -22z"/>
<path d="M3930 2051 c-59 -12 -77 -28 -100 -88 -20 -53 -20 -60 -7 -83 18 -28
78 -63 89 -52 10 10 67 232 59 231 -3 -1 -22 -4 -41 -8z"/>
<path d="M2155 1900 c3 -5 8 -10 11 -10 2 0 4 5 4 10 0 6 -5 10 -11 10 -5 0
-7 -4 -4 -10z"/>
<path d="M3405 1893 c-72 -10 -195 -44 -254 -70 l-65 -29 62 -38 c98 -59 167
-83 263 -89 80 -5 91 -4 147 23 33 15 88 55 123 88 l63 59 -29 16 c-27 13
-235 49 -267 46 -7 -1 -26 -4 -43 -6z"/>
<path d="M2765 1840 c-6 -10 1 -50 17 -92 9 -24 12 -26 41 -16 40 12 97 41 97
48 0 10 -44 34 -95 52 -58 21 -52 20 -60 8z"/>
</g>
</svg>
