<?xml version="1.0" standalone="no"?>
<!DOCTYPE svg PUBLIC "-//W3C//DTD SVG 20010904//EN"
 "http://www.w3.org/TR/2001/REC-SVG-20010904/DTD/svg10.dtd">
<svg version="1.0" xmlns="http://www.w3.org/2000/svg"
 width="480.000000pt" height="360.000000pt" viewBox="0 0 480.000000 360.000000"
 preserveAspectRatio="xMidYMid meet">
<metadata>
Created by potrace 1.16, written by Peter Selinger 2001-2019
</metadata>
<rect width="1" height="360" fill="#000000"/>
<rect x="479" width="1" height="360" fill="#000000"/>
<rect width="480" height="1" fill="#000000"/>
<rect y="359" width="480" height="1" fill="#000000"/>
<g transform="translate(0.000000,360.000000) scale(0.100000,-0.100000)"
fill="#000000" stroke="none">
<path d="M2873 3453 c-27 -10 -11 -32 40 -57 51 -24 95 -61 86 -70 -2 -2 -27
0 -54 5 -82 16 -256 -10 -333 -50 -72 -38 -133 -120 -156 -213 -4 -17 -13 -28
-24 -28 -27 0 -123 -39 -153 -63 -34 -27 -36 -53 -8 -83 19 -21 20 -26 9 -54
-7 -16 -19 -30 -26 -30 -18 0 -18 -3 5 -48 10 -20 21 -49 25 -64 5 -20 26 -39
86 -75 l80 -48 0 -89 c0 -90 -24 -253 -40 -270 -5 -5 -29 3 -56 18 l-47 26
-65 -20 c-36 -11 -80 -29 -98 -40 -17 -11 -88 -38 -155 -61 l-124 -40 -75 20
c-140 38 -535 112 -570 108 -19 -3 -75 -10 -123 -16 -52 -7 -95 -8 -105 -2 -9
4 -41 11 -71 15 l-54 7 7 -33 c15 -75 81 -136 173 -158 l42 -11 -19 -43 c-53
-125 -105 -331 -90 -356 5 -8 84 5 266 44 359 76 400 81 483 67 88 -14 193 3
368 60 69 22 125 39 126 37 1 -2 8 -14 15 -27 11 -19 11 -33 2 -73 -16 -65 -8
-120 24 -169 34 -51 33 -86 -4 -135 -16 -21 -30 -42 -30 -46 0 -4 -13 -37 -30
-73 -16 -36 -30 -69 -30 -73 0 -4 -20 -38 -44 -74 -29 -45 -40 -71 -34 -80 12
-18 58 37 79 93 17 48 26 54 52 35 17 -13 17 -16 1 -56 -17 -41 -17 -43 2 -57
16 -12 20 -12 30 2 6 8 14 34 18 56 5 30 10 39 21 35 8 -3 28 0 45 5 38 14 45
39 36 136 -8 104 6 156 53 185 20 12 39 24 44 26 12 6 8 -205 -8 -430 -21
-289 -84 -630 -166 -898 -32 -108 -59 -201 -59 -208 0 -9 132 -12 600 -12
l600 0 0 33 c0 75 -41 688 -50 749 -5 36 -32 154 -60 261 -32 127 -50 214 -49
249 l1 53 16 -65 c16 -63 16 -64 22 -30 l6 35 8 -45 c9 -51 25 -87 26 -58 0
17 -16 147 -26 205 -5 32 -4 33 21 23 71 -27 130 2 170 84 18 37 26 65 22 83
-3 16 -15 74 -28 130 l-22 102 102 155 c57 85 100 159 97 165 -7 11 -336 248
-373 269 -21 11 -23 20 -23 84 0 39 -5 100 -11 135 -11 60 -10 68 15 122 30
68 31 78 10 102 -25 28 -10 67 32 85 27 11 34 19 29 32 -12 31 -10 36 13 40
12 2 22 8 22 13 0 18 -46 57 -98 83 -28 14 -53 34 -57 44 -3 11 -34 47 -70 81
-36 35 -68 76 -75 95 -17 52 -78 102 -155 125 -37 12 -68 21 -69 20 0 0 -7 -3
-13 -6z m-286 -1185 c-3 -7 -5 -2 -5 12 0 14 2 19 5 13 2 -7 2 -19 0 -25z"/>
</g>
</svg>
