<?xml version="1.0" standalone="no"?>
<!DOCTYPE svg PUBLIC "-//W3C//DTD SVG 20010904//EN"
 "http://www.w3.org/TR/2001/REC-SVG-20010904/DTD/svg10.dtd">
<svg version="1.0" xmlns="http://www.w3.org/2000/svg"
 width="480.000000pt" height="360.000000pt" viewBox="0 0 480.000000 360.000000"
 preserveAspectRatio="xMidYMid meet">
<metadata>
Created by potrace 1.16, written by Peter Selinger 2001-2019
</metadata>
<rect width="1" height="360" fill="#000000"/>
<rect x="479" width="1" height="360" fill="#000000"/>
<rect width="480" height="1" fill="#000000"/>
<rect y="359" width="480" height="1" fill="#000000"/>
<g transform="translate(0.000000,360.000000) scale(0.100000,-0.100000)"
fill="#000000" stroke="none">
<path d="M0 1800 l0 -1800 1005 0 1005 0 0 1140 0 1140 118 -6 c64 -4 118 -8
120 -9 1 -1 -24 -12 -55 -24 -78 -30 -143 -93 -143 -139 0 -57 64 -102 187
-131 55 -14 61 -21 83 -111 18 -72 34 -90 80 -90 45 0 50 7 81 104 11 36 25
68 31 72 6 4 42 13 80 20 130 25 202 91 164 150 -42 62 -94 104 -148 118 -29
7 -37 24 -15 30 6 3 54 7 105 10 l92 6 0 -840 c0 -511 4 -840 9 -840 9 0 72
123 86 168 22 72 98 205 270 467 97 149 145 225 145 230 0 2 15 37 34 77 44
95 50 115 86 297 35 178 36 176 -57 172 -29 -1 -53 0 -53 3 0 3 19 36 42 73
88 144 141 246 163 314 10 30 24 63 31 73 12 17 11 21 -6 33 -11 8 -18 18 -15
23 3 5 1 19 -4 32 -5 13 -12 73 -16 133 -6 101 -10 117 -47 195 -23 47 -54
120 -68 164 -24 70 -26 83 -15 119 14 47 45 66 108 67 106 1 207 -92 252 -234
4 -15 8 -17 17 -8 7 7 23 12 35 12 13 0 36 12 51 26 32 30 137 85 207 107 164
53 366 38 544 -40 67 -30 69 -32 51 -43 -11 -7 -6 -10 18 -10 38 0 43 -15 7
-24 -22 -6 -23 -8 -10 -24 7 -9 29 -37 48 -63 l34 -45 -24 -34 c-13 -20 -23
-49 -23 -70 0 -23 -3 -30 -9 -22 -6 10 -11 4 -16 -20 -18 -71 -16 -78 26 -78
48 0 63 -22 43 -62 -12 -23 -12 -32 -2 -51 7 -12 14 -40 15 -62 1 -22 5 -75 8
-117 6 -77 6 -77 -22 -91 -15 -8 -53 -22 -83 -32 -82 -28 -82 -29 -60 -111 10
-40 22 -92 25 -117 8 -53 5 -50 107 -106 l78 -42 0 861 0 860 -1005 0 -1005 0
0 -110 c0 -100 -2 -110 -19 -110 -31 0 -85 22 -109 44 -21 19 -23 27 -19 76 3
30 8 65 12 78 7 21 4 22 -39 22 -45 0 -46 -1 -46 -31 0 -18 -5 -49 -12 -71
-11 -37 -14 -39 -42 -35 -17 2 -45 10 -63 18 -28 11 -39 11 -80 -4 -26 -9 -63
-17 -81 -17 -28 0 -35 5 -48 35 -7 19 -14 50 -14 70 l0 35 -46 0 c-44 0 -46
-1 -39 -22 4 -13 9 -55 12 -95 6 -79 2 -84 -66 -97 -44 -8 -61 -23 -61 -52 0
-12 -5 -26 -10 -29 -6 -4 -10 47 -10 144 l0 151 -1005 0 -1005 0 0 -1800z
m2102 1235 c40 -64 86 -159 119 -248 17 -45 40 -97 51 -115 19 -31 20 -44 15
-155 -3 -66 -11 -125 -16 -130 -6 -6 -54 -11 -107 -12 l-96 -2 -10 29 c-6 15
-19 33 -29 39 -18 9 -19 27 -19 382 l0 372 33 -60 c18 -33 44 -78 59 -100z
m663 -603 c-14 -12 -25 -29 -25 -37 0 -15 -34 -30 -48 -21 -5 3 -34 6 -65 7
-52 2 -56 4 -52 23 14 71 14 86 2 86 -7 0 -18 -12 -23 -27 -10 -28 -10 -27
-27 24 -23 70 -22 147 2 187 11 17 34 67 51 111 39 99 76 167 149 270 l56 80
3 -340 2 -339 -25 -24z"/>
<path d="M2790 225 c0 -212 1 -225 18 -225 17 0 20 14 28 138 14 235 8 312
-26 312 -19 0 -20 -7 -20 -225z"/>
<path d="M3471 58 c-6 -10 -16 -16 -20 -13 -5 2 -16 -6 -25 -20 l-16 -25 49 0
c50 0 61 9 61 50 0 25 -34 31 -49 8z"/>
</g>
</svg>
