<?xml version="1.0" standalone="no"?>
<!DOCTYPE svg PUBLIC "-//W3C//DTD SVG 20010904//EN"
 "http://www.w3.org/TR/2001/REC-SVG-20010904/DTD/svg10.dtd">
<svg version="1.0" xmlns="http://www.w3.org/2000/svg"
 width="480.000000pt" height="360.000000pt" viewBox="0 0 480.000000 360.000000"
 preserveAspectRatio="xMidYMid meet">
<metadata>
Created by potrace 1.16, written by Peter Selinger 2001-2019
</metadata>
<rect width="1" height="360" fill="#000000"/>
<rect x="479" width="1" height="360" fill="#000000"/>
<rect width="480" height="1" fill="#000000"/>
<rect y="359" width="480" height="1" fill="#000000"/>
<g transform="translate(0.000000,360.000000) scale(0.100000,-0.100000)"
fill="#000000" stroke="none">
<path d="M3248 3528 c-41 -40 -87 -92 -103 -115 -15 -23 -38 -49 -51 -58 -18
-11 -23 -22 -19 -38 4 -13 -3 -56 -14 -97 -11 -41 -23 -100 -27 -130 -5 -40
-15 -66 -38 -95 -18 -22 -39 -51 -48 -65 -10 -17 -48 -39 -119 -68 -57 -24
-124 -57 -148 -74 -41 -29 -47 -31 -83 -21 -22 6 -49 8 -59 6 -43 -12 -74
-129 -67 -254 4 -75 7 -84 33 -107 30 -25 31 -25 132 -6 28 5 34 2 53 -27 14
-23 19 -44 16 -66 -6 -43 10 -55 57 -41 33 10 41 9 65 -9 15 -11 44 -49 64
-84 54 -94 63 -100 119 -93 l47 6 22 -43 c31 -62 43 -217 44 -559 1 -278 -11
-451 -37 -545 -6 -22 -10 -45 -9 -51 1 -7 -5 -14 -13 -18 -8 -3 -20 -17 -25
-30 -5 -14 -22 -33 -37 -42 -15 -10 -72 -46 -125 -80 l-97 -63 -42 14 c-55 20
-87 18 -193 -9 -68 -17 -91 -20 -100 -11 -6 7 -81 90 -166 186 -85 96 -188
209 -227 251 -79 83 -78 78 -52 178 23 92 -3 300 -53 413 -29 69 -30 70 -35
313 l-6 244 -32 0 c-20 0 -35 6 -39 15 -3 8 -17 15 -31 15 -40 0 -52 -44 -59
-210 -9 -204 -17 -295 -26 -310 -6 -10 -19 -8 -64 10 -51 22 -60 22 -111 11
-57 -13 -85 -38 -85 -76 0 -25 -18 -45 -41 -45 -30 0 -76 -47 -83 -85 -4 -20
-16 -51 -27 -70 -11 -19 -23 -58 -26 -88 -5 -47 -2 -58 16 -76 13 -13 34 -21
54 -21 32 0 32 -1 60 -88 38 -115 132 -324 167 -367 15 -19 92 -103 173 -187
80 -84 215 -237 300 -340 l155 -187 -19 -62 c-10 -33 -19 -65 -19 -70 0 -5
531 -9 1315 -9 l1315 0 0 1800 0 1800 -739 0 -738 0 -75 -72z m347 -2059 c22
-17 47 -34 55 -39 23 -13 18 -125 -8 -176 -11 -21 -27 -75 -37 -119 -19 -86
-32 -109 -57 -100 -12 5 -18 27 -22 88 -17 205 -27 326 -31 376 l-6 54 33 -27
c18 -15 51 -40 73 -57z"/>
</g>
</svg>
