<?xml version="1.0" standalone="no"?>
<!DOCTYPE svg PUBLIC "-//W3C//DTD SVG 20010904//EN"
 "http://www.w3.org/TR/2001/REC-SVG-20010904/DTD/svg10.dtd">
<svg version="1.0" xmlns="http://www.w3.org/2000/svg"
 width="480.000000pt" height="360.000000pt" viewBox="0 0 480.000000 360.000000"
 preserveAspectRatio="xMidYMid meet">
<metadata>
Created by potrace 1.16, written by Peter Selinger 2001-2019
</metadata>
<rect width="1" height="360" fill="#000000"/>
<rect x="479" width="1" height="360" fill="#000000"/>
<rect width="480" height="1" fill="#000000"/>
<rect y="359" width="480" height="1" fill="#000000"/>
<g transform="translate(0.000000,360.000000) scale(0.100000,-0.100000)"
fill="#000000" stroke="none">
<path d="M0 1800 l0 -1800 1125 0 1125 0 0 40 c0 37 -2 40 -26 40 -15 0 -50
13 -78 29 -28 16 -72 32 -97 35 -32 5 -54 15 -74 36 -17 17 -50 36 -82 45 -54
16 -57 20 -44 65 5 17 3 31 -7 43 -14 16 -13 23 12 75 16 31 52 94 82 139 106
164 195 354 193 413 l-1 25 -8 -25 c-13 -40 -12 56 1 105 6 22 17 65 24 95 7
30 18 67 23 81 9 24 8 28 -10 32 -13 4 -19 11 -15 21 7 17 -21 40 -92 76 l-43
22 -34 -33 c-28 -27 -42 -33 -80 -33 l-46 -1 -40 65 c-35 58 -39 68 -29 95 72
209 99 243 261 333 36 19 66 36 67 37 2 1 11 43 22 93 21 104 35 131 85 162
29 17 35 26 30 45 -3 12 -1 26 6 30 6 4 9 14 6 23 -3 10 -2 32 2 50 l7 33 20
-38 c38 -74 65 -103 97 -103 48 0 93 -25 134 -75 21 -26 48 -59 59 -72 18 -22
32 -25 126 -34 182 -15 314 -73 330 -144 4 -17 14 -44 22 -60 14 -26 14 -38 3
-93 -21 -105 -62 -130 -155 -95 -50 19 -49 20 -101 -67 -45 -75 -150 -125
-214 -101 -15 6 -28 11 -30 11 -1 0 -2 -25 -1 -55 1 -42 7 -61 24 -79 13 -14
19 -29 15 -39 -8 -22 -24 -22 -24 -1 0 28 -25 8 -28 -22 -2 -20 6 -43 24 -69
19 -28 28 -55 30 -88 3 -56 17 -77 50 -77 31 0 36 11 23 50 -9 24 -9 34 0 43
10 9 17 7 32 -12 43 -53 10 -131 -55 -131 -26 0 -41 8 -64 34 -17 19 -33 48
-37 64 -3 17 -15 38 -26 48 -18 16 -19 16 -19 -7 0 -13 6 -54 14 -90 7 -37 11
-79 8 -94 -3 -19 0 -30 11 -37 14 -7 16 -24 13 -99 -5 -98 1 -120 93 -361 45
-116 49 -143 26 -152 -12 -4 -14 -15 -9 -47 5 -31 4 -40 -7 -39 -8 1 -33 2
-57 1 -40 -1 -43 -3 -36 -23 5 -13 7 -34 6 -48 -1 -14 1 -40 4 -58 l5 -32
1114 0 1115 0 0 1800 0 1800 -1069 0 -1070 0 31 -82 c58 -159 72 -312 44 -461
-23 -120 -78 -212 -230 -391 -79 -93 -101 -133 -111 -199 l-7 -48 -23 55 c-12
30 -66 111 -122 183 -141 180 -219 296 -244 362 -50 129 -33 358 36 508 l34
73 -1035 0 -1034 0 0 -1800z"/>
<path d="M2976 1700 c-27 -11 -62 -32 -78 -47 l-29 -27 47 -24 c27 -14 55 -21
68 -18 34 8 61 64 57 119 -1 21 -4 21 -65 -3z"/>
<path d="M2655 1545 c-70 -15 -155 -54 -155 -71 0 -13 101 -44 143 -44 57 0
122 44 153 103 l15 27 -48 -1 c-27 0 -75 -6 -108 -14z"/>
<path d="M1811 1443 c0 -5 10 -28 22 -53 26 -52 54 -62 104 -34 41 21 41 35 2
68 -24 20 -41 26 -80 26 -27 0 -49 -3 -48 -7z"/>
<path d="M2106 1426 c-22 -7 -41 -17 -43 -22 -3 -9 89 -64 107 -64 6 0 10 10
10 23 0 12 7 34 14 50 15 27 15 27 -17 26 -18 -1 -50 -7 -71 -13z"/>
<path d="M2326 97 c-20 -73 0 -97 83 -97 85 0 91 7 69 81 -12 36 -15 39 -38
33 -28 -8 -55 -7 -86 0 -16 4 -23 0 -28 -17z"/>
</g>
</svg>
