<?xml version="1.0" standalone="no"?>
<!DOCTYPE svg PUBLIC "-//W3C//DTD SVG 20010904//EN"
 "http://www.w3.org/TR/2001/REC-SVG-20010904/DTD/svg10.dtd">
<svg version="1.0" xmlns="http://www.w3.org/2000/svg"
 width="480.000000pt" height="360.000000pt" viewBox="0 0 480.000000 360.000000"
 preserveAspectRatio="xMidYMid meet">
<metadata>
Created by potrace 1.16, written by Peter Selinger 2001-2019
</metadata>
<rect width="1" height="360" fill="#000000"/>
<rect x="479" width="1" height="360" fill="#000000"/>
<rect width="480" height="1" fill="#000000"/>
<rect y="359" width="480" height="1" fill="#000000"/>
<g transform="translate(0.000000,360.000000) scale(0.100000,-0.100000)"
fill="#000000" stroke="none">
<path d="M3000 3567 c0 -56 -49 -335 -85 -484 -87 -361 -207 -659 -538 -1333
-161 -329 -178 -366 -249 -530 -172 -399 -287 -808 -324 -1158 l-7 -62 912 0
c501 0 911 2 911 4 0 3 -48 37 -107 77 -60 39 -114 77 -122 84 -24 23 51 60
264 130 300 99 449 169 600 283 62 46 145 122 145 132 0 3 -42 3 -92 2 -77 -3
-110 1 -193 23 -133 36 -150 43 -209 83 -75 52 -177 142 -170 153 3 5 16 9 29
9 23 0 23 2 18 54 -6 57 4 73 34 57 10 -5 30 -12 44 -15 14 -3 37 -16 52 -30
22 -20 28 -22 38 -10 16 20 23 18 58 -15 19 -17 31 -39 31 -54 0 -41 30 -67
95 -82 38 -9 63 -11 69 -5 7 7 1 10 -15 10 -14 0 -30 5 -37 12 -16 16 -15 53
1 65 50 40 310 77 425 61 21 -3 27 5 50 62 14 36 27 67 29 69 2 3 45 -12 126
-44 16 -7 17 56 17 1239 l0 1246 -900 0 -900 0 0 -33z"/>
<path d="M0 3141 l0 -439 104 -76 c60 -44 114 -76 128 -76 39 0 94 44 164 132
33 41 52 57 63 53 9 -4 67 -13 129 -22 108 -15 116 -14 205 5 51 12 139 31
197 43 133 27 203 53 246 91 42 37 43 59 3 92 -35 30 -45 31 -119 11 -61 -16
-160 -20 -160 -6 0 5 17 17 37 26 28 13 72 19 173 23 l135 5 18 -59 c14 -46
25 -63 48 -77 43 -24 56 -22 75 15 l17 32 21 -26 c11 -14 29 -39 38 -56 16
-31 85 -72 120 -72 9 0 37 -10 62 -21 65 -32 80 -22 72 48 -5 44 -3 60 10 74
10 12 14 27 10 42 -8 35 -96 115 -168 156 -71 39 -98 55 -154 92 -41 27 -95
49 -329 130 -164 57 -193 59 -350 24 -60 -14 -114 -25 -120 -25 -6 0 -20 22
-32 49 -19 47 -24 51 -74 65 -249 69 -349 101 -447 140 -63 25 -116 46 -118
46 -2 0 -4 -198 -4 -439z"/>
<path d="M4250 880 c0 -13 11 -13 30 0 12 8 11 10 -7 10 -13 0 -23 -4 -23 -10z"/>
</g>
</svg>
