<?xml version="1.0" standalone="no"?>
<!DOCTYPE svg PUBLIC "-//W3C//DTD SVG 20010904//EN"
 "http://www.w3.org/TR/2001/REC-SVG-20010904/DTD/svg10.dtd">
<svg version="1.0" xmlns="http://www.w3.org/2000/svg"
 width="480.000000pt" height="360.000000pt" viewBox="0 0 480.000000 360.000000"
 preserveAspectRatio="xMidYMid meet">
<metadata>
Created by potrace 1.16, written by Peter Selinger 2001-2019
</metadata>
<rect width="1" height="360" fill="#000000"/>
<rect x="479" width="1" height="360" fill="#000000"/>
<rect width="480" height="1" fill="#000000"/>
<rect y="359" width="480" height="1" fill="#000000"/>
<g transform="translate(0.000000,360.000000) scale(0.100000,-0.100000)"
fill="#000000" stroke="none">
<path d="M0 1800 l0 -1800 1053 0 1052 0 29 163 c44 250 44 222 -2 246 -22 11
-42 28 -46 37 -5 13 -31 -8 -119 -100 -102 -106 -115 -116 -148 -116 -47 0
-79 33 -79 81 0 40 47 123 125 220 28 34 54 67 59 74 6 8 0 24 -17 46 -34 45
-77 132 -77 156 0 11 16 41 35 68 19 27 39 71 45 98 l10 49 -99 112 c-55 61
-108 120 -118 131 -29 30 -301 333 -355 395 -27 30 -48 57 -48 61 0 19 104 94
130 95 16 1 45 13 65 28 24 18 44 26 57 23 12 -3 38 3 59 14 21 10 54 19 74
19 20 0 45 5 56 11 52 27 362 29 522 3 54 -9 101 -13 104 -10 7 6 -14 142 -26
166 -9 19 -152 91 -168 85 -7 -3 -20 -8 -28 -11 -11 -4 -21 8 -36 42 -24 58
-46 84 -64 78 -19 -8 -27 12 -10 26 20 17 19 56 -1 64 -14 5 -16 17 -11 67 3
33 12 71 21 84 22 33 10 31 -38 -5 -47 -36 -76 -39 -76 -9 0 37 51 128 98 175
54 55 101 77 201 94 63 12 74 17 83 39 19 50 -11 182 -49 217 -35 33 -47 31
-94 -17 -37 -38 -44 -41 -83 -37 -120 14 -247 138 -302 294 -15 42 -25 55 -60
74 -27 14 -57 42 -78 74 -31 46 -40 69 -61 169 l-5 27 -790 0 -790 0 0 -1800z"/>
<path d="M1700 3579 c11 -20 12 -20 31 -3 25 23 24 24 -11 24 -28 0 -30 -2
-20 -21z"/>
<path d="M4722 3583 c25 -29 51 -84 64 -138 12 -50 12 -50 13 53 l1 102 -47 0
c-43 0 -45 -1 -31 -17z"/>
<path d="M1641 3550 c0 -8 6 -28 14 -45 10 -23 13 -25 14 -10 0 11 -6 31 -14
45 -8 14 -14 19 -14 10z"/>
<path d="M1770 3466 c0 -39 170 -156 249 -172 79 -16 8 46 -167 145 -83 46
-82 46 -82 27z"/>
<path d="M1810 3307 c0 -27 70 -154 109 -199 44 -50 128 -98 171 -98 16 0 37
11 54 29 15 16 43 32 62 36 19 3 34 9 34 13 -1 13 -95 145 -112 156 -13 8 -22
6 -37 -8 -38 -35 -149 -6 -238 60 -36 27 -43 29 -43 11z"/>
<path d="M4751 2849 l-43 -181 46 -47 46 -46 0 228 c0 125 -1 227 -2 227 -2 0
-23 -82 -47 -181z"/>
<path d="M2334 2928 c3 -13 6 -32 6 -42 0 -18 2 -18 25 4 31 29 31 34 0 48
-35 16 -38 15 -31 -10z"/>
<path d="M2195 2708 c-38 -10 -87 -29 -109 -41 -40 -22 -105 -101 -93 -113 3
-4 28 7 54 24 26 17 92 51 146 76 61 29 97 51 97 61 0 18 -7 18 -95 -7z"/>
<path d="M2215 2626 c-22 -12 -60 -32 -85 -45 l-44 -24 36 -14 c33 -13 39 -13
75 6 56 30 69 43 75 74 6 32 -2 33 -57 3z"/>
<path d="M3358 2208 c-3 -7 4 -29 14 -49 10 -21 18 -55 18 -76 1 -21 6 -65 13
-98 18 -86 38 -94 172 -71 55 9 112 16 128 16 15 0 27 4 27 9 0 7 -99 100
-175 163 -34 28 -176 118 -186 118 -4 0 -9 -5 -11 -12z"/>
<path d="M3600 1873 c-36 -8 -89 -12 -117 -9 -62 5 -59 18 -38 -145 8 -63 19
-176 25 -250 14 -166 75 -598 99 -699 9 -41 55 -231 102 -422 l84 -348 523 0
522 0 0 499 c0 329 -3 502 -10 506 -17 10 -60 102 -74 158 l-13 52 -74 26
c-41 14 -85 32 -99 40 -18 10 -61 14 -146 14 l-121 0 -78 40 c-150 76 -250
206 -292 383 -15 62 -25 79 -63 117 -42 41 -50 45 -105 49 -33 2 -89 -3 -125
-11z"/>
<path d="M3920 1752 c0 -25 54 -162 80 -202 41 -64 116 -132 179 -164 72 -37
164 -59 212 -51 21 4 39 8 39 9 0 2 -23 27 -51 57 -58 60 -146 189 -155 226
-8 29 -71 63 -196 104 -97 31 -108 33 -108 21z"/>
<path d="M4385 1524 c57 -76 173 -174 206 -174 17 0 -12 31 -111 117 -106 94
-137 112 -95 57z"/>
<path d="M4757 1214 c-6 -6 19 -99 34 -124 5 -10 9 12 9 58 0 63 -2 72 -18 72
-10 0 -21 -3 -25 -6z"/>
<path d="M3622 25 c0 -17 2 -22 5 -12 2 9 2 23 0 30 -3 6 -5 -1 -5 -18z"/>
</g>
</svg>
