<?xml version="1.0" standalone="no"?>
<!DOCTYPE svg PUBLIC "-//W3C//DTD SVG 20010904//EN"
 "http://www.w3.org/TR/2001/REC-SVG-20010904/DTD/svg10.dtd">
<svg version="1.0" xmlns="http://www.w3.org/2000/svg"
 width="480.000000pt" height="360.000000pt" viewBox="0 0 480.000000 360.000000"
 preserveAspectRatio="xMidYMid meet">
<metadata>
Created by potrace 1.16, written by Peter Selinger 2001-2019
</metadata>
<rect width="1" height="360" fill="#000000"/>
<rect x="479" width="1" height="360" fill="#000000"/>
<rect width="480" height="1" fill="#000000"/>
<rect y="359" width="480" height="1" fill="#000000"/>
<g transform="translate(0.000000,360.000000) scale(0.100000,-0.100000)"
fill="#000000" stroke="none">
<path d="M0 1800 l0 -1800 225 0 225 0 0 81 c0 117 -20 180 -125 399 -144 299
-195 449 -230 687 -68 459 -35 898 101 1354 l43 147 -35 37 c-62 66 -28 110
77 101 104 -10 521 -165 574 -213 21 -20 83 -44 229 -90 297 -94 669 -203 694
-203 38 0 109 120 172 295 45 124 83 198 147 283 57 76 89 97 134 88 14 -3 30
-2 35 3 5 4 43 18 84 32 100 32 223 33 293 2 67 -31 129 -85 204 -178 57 -71
62 -80 44 -83 -17 -3 -20 -8 -15 -27 8 -33 -14 -95 -45 -125 -14 -13 -29 -25
-33 -25 -4 0 -12 -5 -19 -12 -9 -9 -4 -19 22 -42 31 -29 32 -31 16 -49 -9 -10
-17 -30 -17 -43 0 -14 -6 -34 -14 -45 -8 -11 -19 -39 -25 -62 -11 -38 -20 -47
-43 -43 -5 0 -8 -3 -8 -8 0 -12 -41 -11 -57 2 -9 6 -11 0 -9 -27 3 -31 11 -41
49 -67 25 -16 70 -36 101 -44 70 -18 101 -37 147 -87 41 -45 29 -42 433 -124
182 -37 273 -51 280 -44 15 15 52 12 66 -5 11 -13 15 -11 32 10 23 30 58 33
65 6 4 -17 8 -18 24 -8 15 9 23 9 39 -1 11 -6 27 -12 35 -12 9 0 21 -12 27
-26 l12 -25 17 23 c17 22 18 22 38 4 12 -11 21 -25 21 -32 0 -16 42 -25 365
-73 149 -23 294 -46 324 -51 30 -6 60 -10 68 -10 11 0 13 168 13 965 l0 965
-2400 0 -2400 0 0 -1800z"/>
<path d="M740 2460 c-16 -30 -130 -379 -155 -474 -38 -149 -59 -360 -59 -616
-1 -332 18 -422 176 -843 49 -132 91 -251 94 -266 4 -17 -9 -65 -35 -138 -23
-61 -41 -113 -41 -117 0 -3 225 -6 500 -6 l501 0 32 36 c101 114 429 536 494
634 41 63 97 147 124 187 45 67 48 74 41 114 -7 39 -16 50 -92 112 -142 115
-201 169 -221 201 -42 69 -15 175 81 315 38 58 40 63 34 115 -6 50 -4 59 20
91 25 32 26 38 16 75 -6 22 -15 38 -20 35 -5 -3 -11 -1 -15 5 -9 15 -24 3 -39
-33 -9 -20 -15 -25 -15 -14 -1 19 -16 23 -26 7 -10 -16 -25 -12 -19 5 4 8 1
15 -4 15 -6 0 -13 10 -15 23 l-4 22 -8 -22 c-11 -34 -25 -28 -25 12 0 43 -14
45 -29 5 -5 -16 -12 -30 -14 -30 -10 0 -4 58 10 103 9 26 13 50 10 53 -3 3
-18 -11 -34 -31 -15 -20 -36 -47 -46 -58 -17 -22 -17 -22 -11 7 4 16 20 54 35
85 15 30 27 57 25 58 -2 2 -15 -1 -30 -7 -22 -8 -26 -7 -24 6 2 12 -36 27
-182 70 -279 82 -495 149 -700 215 -141 46 -201 61 -253 63 -54 2 -70 -1 -77
-14z"/>
<path d="M1889 2374 c-13 -14 -17 -23 -9 -19 13 5 46 45 37 45 -2 0 -14 -11
-28 -26z"/>
<path d="M1992 2253 c-15 -6 -6 -23 14 -23 8 0 14 7 14 15 0 15 -6 17 -28 8z"/>
<path d="M2976 1866 c-6 -26 25 -90 81 -164 38 -50 53 -98 53 -170 0 -43 9
-79 24 -99 1 -2 26 6 54 17 29 11 145 47 259 80 114 33 211 66 215 73 4 6 5
32 2 57 -13 87 -6 83 -181 119 -180 37 -460 99 -484 106 -12 4 -19 -2 -23 -19z"/>
<path d="M3975 1604 c-48 -80 -128 -155 -206 -194 -74 -38 -377 -159 -499
-200 -114 -38 -155 -35 -251 17 -9 5 -19 -61 -25 -158 l-5 -77 45 -45 c47 -46
60 -89 35 -114 -16 -16 48 -135 128 -233 80 -100 166 -242 161 -267 -3 -14
-13 -18 -46 -18 -23 1 -42 -1 -42 -2 0 -2 15 -54 34 -116 19 -61 39 -131 45
-154 l12 -43 719 0 720 0 0 745 0 744 -37 10 c-114 30 -298 74 -443 105 -91
20 -193 43 -227 51 -34 8 -66 15 -70 15 -4 0 -26 -30 -48 -66z"/>
<path d="M2315 1423 l-39 -46 54 -50 c53 -49 55 -49 60 -26 5 20 -21 153 -32
165 -2 2 -22 -17 -43 -43z"/>
</g>
</svg>
