<?xml version="1.0" standalone="no"?>
<!DOCTYPE svg PUBLIC "-//W3C//DTD SVG 20010904//EN"
 "http://www.w3.org/TR/2001/REC-SVG-20010904/DTD/svg10.dtd">
<svg version="1.0" xmlns="http://www.w3.org/2000/svg"
 width="480.000000pt" height="360.000000pt" viewBox="0 0 480.000000 360.000000"
 preserveAspectRatio="xMidYMid meet">
<metadata>
Created by potrace 1.16, written by Peter Selinger 2001-2019
</metadata>
<rect width="1" height="360" fill="#000000"/>
<rect x="479" width="1" height="360" fill="#000000"/>
<rect width="480" height="1" fill="#000000"/>
<rect y="359" width="480" height="1" fill="#000000"/>
<g transform="translate(0.000000,360.000000) scale(0.100000,-0.100000)"
fill="#000000" stroke="none">
<path d="M4255 1755 c-153 -16 -298 -44 -445 -86 -58 -17 -206 -57 -329 -90
-209 -55 -254 -69 -221 -69 8 0 169 31 359 70 396 80 495 93 824 115 312 20
357 25 357 40 0 8 -51 15 -167 24 -194 13 -205 13 -378 -4z"/>
<path d="M88 1753 c-69 -3 -88 -7 -88 -18 0 -8 6 -15 13 -15 23 0 493 -49 612
-64 287 -36 652 -87 959 -136 109 -17 206 -30 214 -28 34 7 -721 167 -1046
223 -78 13 -206 29 -285 35 -137 9 -189 10 -379 3z"/>
<path d="M3208 1503 c6 -2 18 -2 25 0 6 3 1 5 -13 5 -14 0 -19 -2 -12 -5z"/>
</g>
</svg>
