<?xml version="1.0" standalone="no"?>
<!DOCTYPE svg PUBLIC "-//W3C//DTD SVG 20010904//EN"
 "http://www.w3.org/TR/2001/REC-SVG-20010904/DTD/svg10.dtd">
<svg version="1.0" xmlns="http://www.w3.org/2000/svg"
 width="480.000000pt" height="360.000000pt" viewBox="0 0 480.000000 360.000000"
 preserveAspectRatio="xMidYMid meet">
<metadata>
Created by potrace 1.16, written by Peter Selinger 2001-2019
</metadata>
<rect width="1" height="360" fill="#000000"/>
<rect x="479" width="1" height="360" fill="#000000"/>
<rect width="480" height="1" fill="#000000"/>
<rect y="359" width="480" height="1" fill="#000000"/>
<g transform="translate(0.000000,360.000000) scale(0.100000,-0.100000)"
fill="#000000" stroke="none">
<path d="M1726 3543 c14 -32 34 -65 44 -73 38 -32 45 -61 43 -185 -1 -66 -4
-143 -8 -172 -6 -51 -7 -52 -43 -55 -27 -2 -36 -7 -33 -18 7 -26 4 -79 -12
-250 -34 -346 -38 -374 -54 -393 -23 -24 -5 -40 45 -40 l39 0 2 -76 c1 -42 9
-132 18 -201 8 -69 15 -129 15 -135 0 -5 -12 -38 -27 -73 -28 -68 -47 -159
-70 -351 -9 -68 -20 -131 -25 -140 -5 -11 -31 -21 -70 -29 -110 -20 -202 -79
-243 -155 -46 -89 -22 -244 51 -320 39 -41 39 -109 1 -154 -29 -33 -45 -70
-35 -80 3 -3 -3 -21 -15 -39 -15 -25 -18 -38 -10 -51 8 -14 4 -24 -16 -45 -18
-19 -26 -37 -25 -60 1 -21 -9 -47 -25 -71 -18 -26 -23 -41 -15 -45 7 -5 1 -22
-19 -51 -19 -28 -27 -51 -23 -63 3 -11 -1 -27 -9 -36 -8 -9 -20 -35 -27 -57
-7 -22 -19 -57 -26 -78 -8 -20 -14 -40 -14 -42 0 -3 602 -5 1339 -5 l1338 0 7
87 c12 149 78 493 94 493 4 0 18 -17 32 -37 24 -35 25 -43 34 -290 l9 -253
404 0 403 0 0 193 c0 179 -2 197 -26 272 -14 44 -28 108 -31 142 -5 54 -2 69
26 128 30 65 31 72 31 202 l0 134 -136 -2 c-75 0 -140 3 -144 7 -10 11 -64
230 -84 344 -8 47 -22 157 -31 245 -20 201 -41 271 -104 338 -61 65 -173 137
-296 189 -55 23 -101 43 -103 44 -6 3 40 74 49 74 5 0 9 10 9 23 1 12 7 33 15
47 20 34 19 86 -1 94 -9 3 -29 6 -44 6 -25 0 -32 7 -49 44 -19 45 -55 196 -47
203 2 3 20 -20 40 -50 53 -79 67 -86 32 -16 l-30 60 17 152 c13 131 21 164 51
234 43 102 113 326 122 393 4 28 11 53 15 56 5 3 9 1 9 -4 0 -19 33 -22 57 -7
13 9 28 13 34 10 13 -8 39 13 39 31 0 12 -196 14 -1259 14 l-1260 0 25 -57z
m284 -1110 c-1 -90 -2 -96 -16 -78 -15 19 -14 62 2 148 10 50 14 28 14 -70z
m70 25 c5 -38 3 -59 -9 -82 -9 -18 -15 -52 -14 -81 1 -40 -3 -55 -22 -75 -12
-14 -26 -35 -29 -47 -7 -20 -99 -96 -108 -88 -7 7 24 230 33 240 6 6 24 5 49
-2 46 -12 40 -21 66 109 10 48 20 85 23 83 2 -3 8 -28 11 -57z m1710 41 c0 -6
-4 -7 -10 -4 -5 3 -10 11 -10 16 0 6 5 7 10 4 6 -3 10 -11 10 -16z"/>
</g>
</svg>
