<?xml version="1.0" standalone="no"?>
<!DOCTYPE svg PUBLIC "-//W3C//DTD SVG 20010904//EN"
 "http://www.w3.org/TR/2001/REC-SVG-20010904/DTD/svg10.dtd">
<svg version="1.0" xmlns="http://www.w3.org/2000/svg"
 width="480.000000pt" height="360.000000pt" viewBox="0 0 480.000000 360.000000"
 preserveAspectRatio="xMidYMid meet">
<metadata>
Created by potrace 1.16, written by Peter Selinger 2001-2019
</metadata>
<rect width="1" height="360" fill="#000000"/>
<rect x="479" width="1" height="360" fill="#000000"/>
<rect width="480" height="1" fill="#000000"/>
<rect y="359" width="480" height="1" fill="#000000"/>
<g transform="translate(0.000000,360.000000) scale(0.100000,-0.100000)"
fill="#000000" stroke="none">
<path d="M0 1800 l0 -1800 2400 0 2400 0 0 1193 0 1194 -137 93 c-76 51 -356
240 -623 419 -267 179 -611 410 -765 513 l-279 188 -1498 0 -1498 0 0 -1800z
m2077 880 c32 25 118 28 151 4 17 -12 35 -14 77 -9 60 8 67 3 33 -24 l-22 -18
21 -28 20 -28 -32 -31 c-30 -30 -31 -33 -27 -108 3 -67 6 -78 22 -78 28 0 55
-29 95 -102 41 -77 42 -71 -32 -174 -42 -60 -43 -62 -22 -75 l20 -14 -24 -54
-24 -55 35 -60 c19 -34 46 -74 59 -89 16 -20 21 -36 17 -52 -4 -16 5 -45 26
-87 56 -109 91 -211 77 -220 -6 -4 -16 -8 -21 -8 -4 0 -6 -6 -3 -12 20 -49 20
-48 -13 -48 -18 0 -45 -10 -62 -21 -16 -12 -40 -22 -53 -22 -13 0 -34 -10 -46
-23 -21 -23 -22 -32 -22 -186 1 -174 -7 -208 -48 -208 -11 0 -31 11 -45 25
-20 20 -23 29 -14 44 6 12 9 71 8 140 l-2 119 -42 -24 c-50 -29 -62 -30 -113
-3 -40 21 -75 22 -77 4 0 -6 -6 -43 -13 -84 -7 -41 -11 -93 -8 -117 2 -24 0
-47 -6 -53 -25 -25 -131 1 -144 35 -6 16 19 46 46 56 5 2 15 50 21 107 10 92
10 105 -4 113 -9 5 -16 18 -16 29 0 11 -7 22 -16 26 -22 8 -11 79 37 221 42
126 48 165 24 156 -18 -7 -19 9 0 60 10 29 11 44 3 62 -8 18 -8 47 2 109 11
68 11 93 1 126 -7 22 -11 42 -9 42 48 23 72 89 63 169 -5 39 -1 54 18 85 14
21 32 44 41 52 24 20 23 134 -3 160 -10 10 -24 20 -32 23 -7 2 -14 20 -15 38
-1 22 -10 40 -23 49 -26 17 -27 31 -2 31 39 0 51 11 51 49 l1 36 20 -38 20
-38 26 21z"/>
<path d="M2314 2186 c-3 -13 -4 -38 -2 -57 l3 -33 24 48 c21 40 23 49 10 57
-22 14 -28 11 -35 -15z"/>
<path d="M2410 1701 c0 -6 4 -13 10 -16 6 -3 7 1 4 9 -7 18 -14 21 -14 7z"/>
<path d="M4327 3404 c395 -311 464 -364 468 -364 3 0 5 126 5 280 l0 280 -361
0 -361 0 249 -196z"/>
</g>
</svg>
