<?xml version="1.0" standalone="no"?>
<!DOCTYPE svg PUBLIC "-//W3C//DTD SVG 20010904//EN"
 "http://www.w3.org/TR/2001/REC-SVG-20010904/DTD/svg10.dtd">
<svg version="1.0" xmlns="http://www.w3.org/2000/svg"
 width="480.000000pt" height="360.000000pt" viewBox="0 0 480.000000 360.000000"
 preserveAspectRatio="xMidYMid meet">
<metadata>
Created by potrace 1.16, written by Peter Selinger 2001-2019
</metadata>
<rect width="1" height="360" fill="#000000"/>
<rect x="479" width="1" height="360" fill="#000000"/>
<rect width="480" height="1" fill="#000000"/>
<rect y="359" width="480" height="1" fill="#000000"/>
<g transform="translate(0.000000,360.000000) scale(0.100000,-0.100000)"
fill="#000000" stroke="none">
<path d="M2136 1819 c-111 -15 -185 -37 -282 -84 -76 -37 -103 -56 -160 -118
-38 -41 -83 -101 -100 -133 -17 -32 -36 -58 -42 -57 -160 35 -399 42 -586 18
-182 -24 -216 -44 -216 -130 0 -151 140 -385 424 -710 57 -65 94 -116 92 -125
-3 -8 -23 -76 -44 -150 -22 -74 -47 -153 -56 -175 l-17 -40 20 25 c34 42 107
172 125 223 23 63 32 53 17 -20 -6 -32 -16 -96 -22 -143 -9 -75 -19 -126 -35
-182 -4 -14 1 -18 24 -18 22 0 35 8 53 35 27 39 39 44 39 16 0 -55 -79 -51
1076 -51 l1064 0 1 78 c0 64 2 73 11 52 6 -14 25 -49 42 -77 28 -49 33 -53 68
-53 l37 0 -15 35 c-8 19 -32 109 -54 200 -22 91 -46 181 -54 200 -15 34 -14
36 22 80 l37 44 53 -6 c52 -5 54 -5 91 35 42 44 78 127 88 201 4 32 19 65 48
106 89 126 157 270 176 372 11 61 -5 112 -43 137 -68 44 -471 70 -652 42 -59
-10 -111 -14 -115 -9 -4 4 -27 34 -51 66 -114 152 -283 245 -540 298 -112 23
-416 33 -524 18z"/>
</g>
</svg>
