<?xml version="1.0" standalone="no"?>
<!DOCTYPE svg PUBLIC "-//W3C//DTD SVG 20010904//EN"
 "http://www.w3.org/TR/2001/REC-SVG-20010904/DTD/svg10.dtd">
<svg version="1.0" xmlns="http://www.w3.org/2000/svg"
 width="480.000000pt" height="360.000000pt" viewBox="0 0 480.000000 360.000000"
 preserveAspectRatio="xMidYMid meet">
<metadata>
Created by potrace 1.16, written by Peter Selinger 2001-2019
</metadata>
<rect width="1" height="360" fill="#000000"/>
<rect x="479" width="1" height="360" fill="#000000"/>
<rect width="480" height="1" fill="#000000"/>
<rect y="359" width="480" height="1" fill="#000000"/>
<g transform="translate(0.000000,360.000000) scale(0.100000,-0.100000)"
fill="#000000" stroke="none">
<path d="M0 1800 l0 -1800 941 0 942 0 -42 38 c-22 20 -41 42 -41 48 0 7 -7
17 -16 25 -38 31 -72 124 -84 224 -6 55 -17 109 -25 120 -32 45 -44 55 -79 70
-34 14 -37 14 -42 -2 -3 -10 -10 -29 -14 -43 -5 -14 -11 -51 -15 -83 -4 -31
-12 -63 -18 -70 -7 -6 -20 -24 -30 -39 -10 -16 -27 -28 -38 -28 -15 0 -19 -5
-15 -15 10 -27 -46 -7 -325 111 -62 26 -327 114 -345 114 -7 0 -55 16 -107 36
-85 32 -103 43 -156 98 -61 64 -88 125 -77 170 5 21 25 202 31 284 4 56 44
188 124 412 16 47 42 130 56 185 29 111 109 335 166 465 20 47 96 207 169 355
190 392 185 381 230 486 23 53 57 116 77 139 43 50 137 125 254 203 121 81
121 80 101 144 -17 56 -53 84 -122 97 -67 13 -160 41 -160 48 0 5 -301 8 -670
8 l-670 0 0 -1800z"/>
<path d="M2415 3593 c47 -12 183 -82 216 -111 30 -26 38 -41 43 -83 8 -62 2
-69 -67 -69 -27 0 -67 -5 -91 -11 -36 -9 -42 -14 -40 -32 13 -95 15 -98 83
-165 79 -79 130 -152 209 -299 l57 -108 0 -130 c0 -127 -1 -132 -33 -197 -40
-82 -67 -116 -142 -173 -54 -42 -191 -115 -215 -115 -5 0 -33 -20 -60 -45 -28
-25 -62 -53 -77 -61 -16 -8 -28 -18 -28 -22 0 -4 -17 -18 -38 -32 -78 -52
-187 -133 -199 -148 -19 -23 -16 -31 15 -45 15 -6 35 -19 44 -28 26 -23 88
-155 88 -187 0 -16 6 -36 13 -46 11 -16 19 -14 102 28 100 49 224 101 296 122
52 16 109 55 215 150 38 34 114 97 169 141 55 44 127 111 159 149 83 97 151
159 196 179 28 13 42 27 49 49 13 40 28 156 36 271 10 131 31 286 45 320 l12
30 9 -24 c5 -13 21 -34 36 -47 l26 -22 -6 -175 c-6 -170 -6 -176 17 -218 l23
-44 53 3 c75 4 195 -16 254 -43 28 -12 78 -47 111 -78 64 -58 101 -120 129
-220 15 -51 19 -57 37 -52 12 4 29 14 39 23 10 10 26 24 37 32 11 8 32 32 49
52 21 28 34 36 48 32 14 -5 18 -2 13 9 -3 9 7 26 25 43 16 16 36 40 43 54 7
14 23 36 35 50 18 21 20 32 15 80 -8 69 -23 143 -40 195 -24 72 -26 114 -5
125 35 19 100 11 163 -20 83 -39 104 -59 118 -113 14 -57 39 -84 39 -42 0 15
-8 40 -17 55 -16 28 -16 30 18 85 19 32 40 59 47 62 9 4 12 101 12 439 l0 434
-1202 -1 c-662 -1 -1194 -4 -1183 -6z"/>
<path d="M4737 2435 c-7 -45 -91 -160 -155 -211 -52 -43 -100 -91 -142 -144
-54 -67 -217 -228 -247 -243 -31 -16 -50 -64 -68 -172 -4 -22 -22 -76 -40
-120 -33 -79 -181 -351 -236 -433 -16 -24 -29 -45 -29 -47 0 -2 -17 -30 -39
-62 -21 -32 -58 -89 -83 -128 -24 -38 -57 -90 -73 -115 -16 -25 -35 -54 -41
-65 -6 -11 -25 -44 -43 -74 -18 -30 -57 -102 -88 -160 -30 -58 -65 -122 -77
-141 -36 -60 -55 -127 -62 -226 l-7 -94 747 0 746 0 0 1180 0 1180 -29 56 -28
55 -6 -36z"/>
</g>
</svg>
