<?xml version="1.0" standalone="no"?>
<!DOCTYPE svg PUBLIC "-//W3C//DTD SVG 20010904//EN"
 "http://www.w3.org/TR/2001/REC-SVG-20010904/DTD/svg10.dtd">
<svg version="1.0" xmlns="http://www.w3.org/2000/svg"
 width="480.000000pt" height="360.000000pt" viewBox="0 0 480.000000 360.000000"
 preserveAspectRatio="xMidYMid meet">
<metadata>
Created by potrace 1.16, written by Peter Selinger 2001-2019
</metadata>
<rect width="1" height="360" fill="#000000"/>
<rect x="479" width="1" height="360" fill="#000000"/>
<rect width="480" height="1" fill="#000000"/>
<rect y="359" width="480" height="1" fill="#000000"/>
<g transform="translate(0.000000,360.000000) scale(0.100000,-0.100000)"
fill="#000000" stroke="none">
<path d="M0 1800 l0 -1800 706 0 706 0 -7 43 c-13 78 -30 103 -92 139 -55 33
-58 37 -58 74 0 21 -4 45 -9 52 -5 9 -1 21 13 36 18 19 21 30 15 66 l-7 43
114 111 c79 77 157 140 254 206 159 107 249 192 388 365 53 66 121 149 151
185 30 36 55 68 55 72 1 4 -15 14 -35 23 -28 11 -40 26 -57 65 -17 40 -26 50
-44 50 -30 0 -85 28 -81 40 2 6 23 20 48 32 l45 23 -1 170 c-1 127 -5 184 -17
227 -31 105 -25 124 74 199 19 15 31 30 27 34 -4 4 -23 -6 -43 -24 -37 -32
-55 -39 -55 -21 0 6 -12 15 -27 21 -87 32 -102 42 -92 60 12 24 11 29 -3 24
-7 -3 -20 -1 -28 5 -12 7 -12 12 -2 22 17 17 15 38 -3 38 -19 0 -19 4 0 40 8
16 34 41 57 57 48 32 81 77 134 183 47 92 121 173 180 196 140 53 354 -53 400
-199 17 -54 17 -56 -4 -101 -23 -47 -63 -83 -82 -71 -6 4 -20 -1 -31 -11 -20
-18 -25 -49 -9 -59 15 -9 12 -23 -7 -30 -10 -3 -34 -26 -53 -50 -35 -45 -65
-56 -87 -34 -6 6 -16 8 -23 4 -18 -11 26 -52 86 -79 57 -26 108 -85 119 -137
4 -16 22 -52 40 -80 19 -27 37 -67 41 -87 6 -36 101 -192 117 -192 14 0 87 40
87 48 0 4 -5 13 -11 19 -25 25 19 62 94 78 15 3 27 12 27 19 0 20 23 26 98 26
78 0 172 -25 257 -67 33 -17 90 -40 128 -52 102 -32 169 -65 263 -126 46 -30
89 -55 94 -55 14 0 53 -54 41 -58 -6 -2 -11 -9 -11 -15 0 -6 -21 -54 -47 -106
-48 -99 -101 -182 -150 -237 -57 -63 -103 -120 -136 -169 -50 -74 -132 -135
-224 -168 -93 -33 -93 -33 -93 -6 0 20 -3 21 -63 15 -81 -9 -97 -3 -97 39 0
35 -15 45 -76 45 -43 0 -68 30 -60 71 11 56 -8 65 -121 62 -86 -3 -98 -5 -96
-20 4 -41 33 -404 39 -473 7 -104 21 -222 45 -379 13 -82 18 -151 14 -177 l-6
-44 995 0 996 0 0 1800 0 1800 -2400 0 -2400 0 0 -1800z m354 1739 c14 -13
-23 -12 -65 2 -56 19 -54 27 3 17 29 -5 57 -14 62 -19z m576 -100 c0 -5 -11
-9 -25 -9 -24 0 -32 10 -19 22 8 8 44 -3 44 -13z m-340 -8 c0 -6 -4 -13 -10
-16 -5 -3 -10 1 -10 9 0 9 5 16 10 16 6 0 10 -4 10 -9z m-300 -45 c0 -6 -7 -2
-15 8 -8 11 -15 25 -15 30 0 6 7 2 15 -8 8 -11 15 -25 15 -30z m4382 19 c-54
-25 -116 -35 -96 -15 15 15 86 39 119 39 27 1 24 -2 -23 -24z m-4471 -165 c10
-6 19 -15 19 -20 0 -18 -57 -11 -81 10 l-24 19 33 1 c18 0 42 -5 53 -10z
m1720 -67 c13 -15 12 -15 -8 -4 -24 12 -29 21 -14 21 5 0 15 -7 22 -17z m-291
-196 c0 -31 -79 -147 -101 -147 -16 0 18 94 46 126 30 35 55 44 55 21z m-550
-107 c13 -9 13 -10 0 -10 -8 0 -22 5 -30 10 -13 9 -13 10 0 10 8 0 22 -5 30
-10z m-124 -132 c11 -17 -26 -38 -67 -38 -44 0 -59 16 -33 35 23 17 90 19 100
3z m2598 -7 c3 -5 -3 -11 -14 -14 -20 -5 -26 3 -13 16 9 10 21 9 27 -2z
m-3476 -107 c27 -8 29 -24 3 -24 -26 0 -51 10 -51 21 0 10 16 11 48 3z m4632
-224 c0 -45 -18 -75 -60 -99 -62 -35 -69 -29 -50 40 7 24 23 45 48 62 49 34
62 33 62 -3z m-3312 -41 c-4 -28 -33 -37 -42 -13 -8 20 23 59 37 45 5 -5 7
-19 5 -32z m1302 9 c-25 -11 -53 -24 -62 -29 -23 -12 -28 -11 -28 1 0 15 79
50 110 49 21 0 17 -4 -20 -21z m-1881 -27 c10 -6 -3 -14 -42 -25 -65 -19 -67
-19 -67 -6 0 12 56 39 80 39 8 1 21 -3 29 -8z m3858 -246 c1 -64 -9 -86 -21
-42 -11 43 -4 107 13 107 3 0 7 -29 8 -65z m-3569 -444 c10 -6 7 -10 -13 -15
-32 -8 -85 1 -85 15 0 11 80 12 98 0z m-88 -250 c12 -23 14 -71 3 -71 -15 0
-31 15 -33 30 -8 54 10 78 30 41z m2930 -46 c0 -8 -7 -15 -15 -15 -8 0 -15 7
-15 15 0 8 7 15 15 15 8 0 15 -7 15 -15z m-319 -608 c9 -34 -19 -54 -51 -37
-24 13 -25 28 -3 52 23 25 45 19 54 -15z m289 -276 c0 -19 -73 -30 -85 -12 -3
5 9 12 27 14 18 2 39 5 46 5 6 1 12 -2 12 -7z"/>
<path d="M2629 1673 c-4 -96 4 -190 17 -204 8 -8 14 -23 14 -32 0 -17 104 -61
126 -53 8 3 16 17 20 31 5 19 -1 33 -26 61 -23 27 -30 43 -26 60 4 13 2 24 -2
24 -5 0 -33 32 -61 70 -29 39 -54 70 -57 70 -2 0 -4 -12 -5 -27z"/>
<path d="M2755 1206 l-59 -23 33 -11 c71 -25 85 -19 119 51 7 13 -32 6 -93
-17z"/>
</g>
</svg>
