<?xml version="1.0" standalone="no"?>
<!DOCTYPE svg PUBLIC "-//W3C//DTD SVG 20010904//EN"
 "http://www.w3.org/TR/2001/REC-SVG-20010904/DTD/svg10.dtd">
<svg version="1.0" xmlns="http://www.w3.org/2000/svg"
 width="480.000000pt" height="360.000000pt" viewBox="0 0 480.000000 360.000000"
 preserveAspectRatio="xMidYMid meet">
<metadata>
Created by potrace 1.16, written by Peter Selinger 2001-2019
</metadata>
<rect width="1" height="360" fill="#000000"/>
<rect x="479" width="1" height="360" fill="#000000"/>
<rect width="480" height="1" fill="#000000"/>
<rect y="359" width="480" height="1" fill="#000000"/>
<g transform="translate(0.000000,360.000000) scale(0.100000,-0.100000)"
fill="#000000" stroke="none">
<path d="M0 2656 l0 -945 88 24 c112 30 298 95 437 152 97 39 174 77 423 209
91 48 108 46 194 -29 40 -35 128 -107 194 -160 152 -121 292 -247 410 -369
150 -156 255 -225 394 -259 54 -13 242 -18 330 -9 25 2 80 1 122 -4 l77 -8 6
29 c19 88 129 274 208 350 76 73 123 100 252 148 130 48 135 51 135 80 0 18
-14 34 -57 63 -32 22 -67 49 -77 61 -27 30 -32 26 -28 -19 3 -24 -2 -54 -12
-74 -9 -19 -16 -42 -16 -53 0 -10 -5 -25 -10 -33 -9 -13 -10 -13 -11 0 -1 8
-3 22 -4 30 -1 8 -3 21 -4 28 -2 23 -21 2 -21 -24 0 -14 -4 -22 -10 -19 -5 3
-10 21 -10 38 0 18 -5 50 -11 72 -12 41 -13 41 -45 -12 -10 -14 -12 -5 -11 47
1 36 -4 91 -11 122 -11 48 -18 60 -44 73 -25 12 -34 13 -46 2 -12 -10 -16 -9
-20 1 -3 9 -15 11 -40 6 -32 -6 -34 -5 -28 12 4 10 10 34 13 52 5 30 4 32 -26
32 -40 0 -39 11 2 31 35 18 35 17 15 127 l-14 73 -22 -24 c-23 -24 -23 -27
-20 -253 3 -219 2 -232 -20 -289 -21 -54 -48 -145 -66 -218 -4 -16 -16 -31
-30 -37 -13 -5 -30 -22 -37 -39 -9 -20 -16 -26 -21 -18 -6 8 -17 2 -38 -21
-26 -28 -30 -30 -30 -12 0 22 -15 27 -23 8 -3 -7 -6 6 -6 30 -1 23 -5 42 -11
42 -5 0 -10 15 -10 34 0 19 -4 38 -10 41 -6 4 -10 -9 -10 -31 0 -21 -3 -34 -6
-31 -12 12 -44 110 -67 207 -22 89 -22 101 -10 190 7 52 15 104 17 115 5 19 1
20 -32 17 l-37 -4 47 48 c33 35 55 70 73 119 32 85 66 145 111 195 l34 38 -27
10 c-16 6 -46 16 -68 23 -22 6 -57 20 -78 31 -37 18 -39 22 -34 56 3 20 10 82
17 137 15 123 32 164 100 238 135 148 261 155 311 16 l22 -59 54 83 c82 124
165 184 314 224 88 24 534 23 629 -1 64 -16 126 -53 172 -103 72 -76 137 -291
123 -407 -16 -131 -15 -137 33 -169 60 -40 66 -57 67 -177 l2 -105 -39 -36
c-40 -39 -47 -66 -25 -109 11 -21 10 -30 -8 -62 -26 -48 -53 -47 -73 4 -8 21
-18 38 -21 38 -4 0 -12 -23 -19 -52 -6 -28 -21 -61 -31 -72 -11 -12 -23 -33
-26 -48 -10 -39 -25 -25 -26 25 -1 23 -4 53 -8 67 -8 25 -8 25 -26 -12 -10
-20 -21 -35 -25 -33 -4 2 -17 -19 -30 -48 -13 -29 -36 -79 -51 -112 -55 -119
-53 -124 76 -175 109 -43 188 -86 227 -124 33 -32 80 -119 149 -276 l37 -85
93 1 c52 0 128 6 170 13 58 10 91 11 146 2 40 -6 90 -11 112 -11 l41 0 0 1150
0 1150 -2400 0 -2400 0 0 -944z"/>
<path d="M930 1913 c-30 -20 -70 -47 -87 -60 -32 -23 -32 -25 -17 -48 11 -16
14 -34 9 -52 -5 -22 -1 -32 28 -57 25 -23 44 -56 70 -128 35 -93 36 -98 23
-145 -8 -26 -33 -133 -56 -238 -80 -358 -104 -447 -123 -459 -14 -9 -21 -7
-32 7 -7 10 -46 152 -85 315 -40 163 -79 325 -88 358 l-16 62 33 93 c21 59 45
106 64 127 48 50 24 61 -51 23 -90 -45 -246 -106 -339 -131 -76 -21 -81 -25
-87 -53 -5 -26 -1 -37 27 -66 36 -38 97 -178 97 -221 0 -14 -14 -82 -30 -150
-17 -69 -40 -163 -50 -210 -92 -399 -95 -410 -124 -410 -19 0 -34 35 -61 142
-15 57 -28 105 -31 107 -2 2 -4 -158 -4 -357 l0 -362 1314 0 1313 0 6 147 c4
99 13 176 27 233 11 46 28 150 36 229 8 80 17 147 19 149 1 2 -3 27 -11 56
-14 54 -10 78 31 177 4 12 -1 18 -25 22 -20 5 -34 15 -40 33 -9 22 -7 29 15
46 14 11 25 22 25 26 0 6 -331 -7 -338 -14 -2 -1 10 -15 27 -31 22 -20 40 -55
62 -119 l31 -91 -57 -239 c-31 -131 -68 -286 -82 -344 -21 -88 -30 -108 -49
-117 -17 -8 -26 -8 -33 1 -5 6 -44 166 -86 356 l-78 345 29 85 c18 53 41 98
62 121 27 31 31 41 23 61 -8 21 -23 29 -93 46 -46 11 -111 24 -146 28 l-62 7
31 -84 c43 -112 44 -130 20 -229 -68 -286 -131 -561 -131 -574 0 -8 -10 -24
-22 -36 -19 -17 -24 -18 -36 -6 -13 13 -171 669 -172 711 0 11 16 61 34 110
25 64 44 98 67 117 21 18 30 32 25 43 -3 9 -1 25 4 35 8 15 -3 35 -68 112 -87
103 -171 183 -223 212 l-34 19 22 -24 c12 -13 37 -65 56 -114 l35 -91 -64
-274 c-113 -489 -104 -458 -128 -464 -11 -3 -25 -1 -30 4 -8 8 -158 613 -173
698 -8 48 50 209 88 243 16 14 29 34 29 45 0 11 7 29 15 41 14 19 12 22 -24
46 -21 14 -79 64 -129 111 -50 48 -98 86 -108 85 -11 0 -44 -16 -74 -36z"/>
<path d="M0 1495 c0 -8 4 -15 10 -15 5 0 7 7 4 15 -4 8 -8 15 -10 15 -2 0 -4
-7 -4 -15z"/>
<path d="M4257 1141 c-3 -15 1 -29 13 -41 23 -23 49 -75 80 -157 l22 -63 -42
-177 c-23 -98 -55 -234 -72 -303 -28 -115 -29 -130 -19 -192 6 -37 11 -99 11
-137 l0 -71 275 0 275 0 0 105 c0 94 -2 105 -18 105 -10 0 -23 -5 -30 -12 -18
-18 -31 24 -123 387 l-82 330 38 90 c24 56 49 100 69 117 l31 27 -130 1 c-71
0 -166 3 -211 6 -78 6 -81 6 -87 -15z"/>
</g>
</svg>
