<?xml version="1.0" standalone="no"?>
<!DOCTYPE svg PUBLIC "-//W3C//DTD SVG 20010904//EN"
 "http://www.w3.org/TR/2001/REC-SVG-20010904/DTD/svg10.dtd">
<svg version="1.0" xmlns="http://www.w3.org/2000/svg"
 width="480.000000pt" height="360.000000pt" viewBox="0 0 480.000000 360.000000"
 preserveAspectRatio="xMidYMid meet">
<metadata>
Created by potrace 1.16, written by Peter Selinger 2001-2019
</metadata>
<rect width="1" height="360" fill="#000000"/>
<rect x="479" width="1" height="360" fill="#000000"/>
<rect width="480" height="1" fill="#000000"/>
<rect y="359" width="480" height="1" fill="#000000"/>
<g transform="translate(0.000000,360.000000) scale(0.100000,-0.100000)"
fill="#000000" stroke="none">
<path d="M0 2518 l0 -1081 138 6 c168 8 567 34 642 41 30 3 123 10 205 16 83
6 186 15 230 20 44 5 109 12 145 15 260 20 985 106 996 118 1 1 9 47 17 102 8
55 16 106 18 114 6 21 -47 33 -117 27 -72 -6 -184 8 -194 25 -4 6 -36 18 -70
26 -54 12 -65 12 -77 0 -12 -11 -29 -11 -116 5 -56 9 -111 23 -122 29 -10 6
-40 13 -66 14 -26 2 -53 6 -59 10 -6 4 -42 9 -78 11 -37 3 -79 9 -94 15 -27
11 -67 9 -100 -6 -35 -14 -18 13 18 30 41 19 40 31 -1 15 -38 -15 -45 -3 -13
23 82 67 180 113 273 128 33 6 64 14 69 20 6 5 17 9 26 9 23 0 122 69 117 83
-2 6 -30 16 -62 22 -39 8 -65 20 -77 35 -16 20 -22 21 -43 12 -19 -9 -27 -8
-39 3 -8 8 -22 12 -30 9 -9 -3 -16 -1 -16 5 0 6 4 11 10 11 5 0 12 10 15 23 9
32 154 127 196 127 39 0 142 74 211 152 155 176 397 529 379 554 -3 5 -46 44
-94 88 -100 89 -117 116 -117 181 l0 45 -581 0 -582 0 7 -57 c9 -76 36 -179
91 -350 25 -77 45 -157 45 -177 0 -23 -19 -78 -50 -146 -72 -157 -83 -225 -59
-356 17 -92 53 -158 107 -197 26 -19 54 -37 62 -41 8 -4 31 -16 50 -26 l35
-19 -78 -1 c-63 0 -87 5 -125 24 -95 48 -162 136 -206 267 -36 110 -40 170
-21 296 21 134 16 156 -75 353 -67 145 -109 276 -117 368 l-6 62 -308 0 -309
0 0 -1082z"/>
<path d="M2286 3583 c-5 -12 9 -33 50 -72 46 -46 55 -52 50 -31 -4 14 -9 46
-13 73 -6 47 -6 47 -43 47 -26 0 -40 -5 -44 -17z"/>
<path d="M2826 3563 c-12 -73 -7 -110 18 -140 34 -41 48 -72 42 -90 -7 -18 60
-146 147 -281 46 -71 61 -104 62 -135 2 -23 15 -76 29 -117 32 -89 97 -340
102 -390 1 -19 -3 -42 -11 -50 -7 -8 -19 -30 -27 -48 l-13 -33 -42 36 c-24 20
-47 34 -53 30 -14 -9 -12 -76 6 -170 23 -127 45 -296 38 -306 -3 -5 -12 -9
-20 -9 -9 0 -14 -11 -14 -30 0 -34 17 -38 80 -20 19 6 159 42 310 81 356 91
742 203 1205 348 17 5 49 15 73 21 l42 11 0 664 0 665 -984 0 -983 0 -7 -37z"/>
<path d="M2732 1758 c2 -24 8 -42 13 -41 150 26 190 34 199 43 6 6 -2 6 -25 0
-46 -13 -47 -13 -54 11 -5 15 -10 18 -18 10 -16 -16 -60 -14 -83 4 -30 23 -35
18 -32 -27z"/>
<path d="M4764 773 c-52 -69 -208 -246 -308 -350 -90 -95 -100 -102 -116 -88
-9 8 -19 15 -23 15 -3 0 -45 -31 -92 -69 -119 -95 -266 -169 -495 -247 l-95
-33 583 0 582 -1 0 405 c0 223 -2 405 -4 405 -2 0 -16 -17 -32 -37z"/>
</g>
</svg>
