<?xml version="1.0" standalone="no"?>
<!DOCTYPE svg PUBLIC "-//W3C//DTD SVG 20010904//EN"
 "http://www.w3.org/TR/2001/REC-SVG-20010904/DTD/svg10.dtd">
<svg version="1.0" xmlns="http://www.w3.org/2000/svg"
 width="480.000000pt" height="360.000000pt" viewBox="0 0 480.000000 360.000000"
 preserveAspectRatio="xMidYMid meet">
<metadata>
Created by potrace 1.16, written by Peter Selinger 2001-2019
</metadata>
<rect width="1" height="360" fill="#000000"/>
<rect x="479" width="1" height="360" fill="#000000"/>
<rect width="480" height="1" fill="#000000"/>
<rect y="359" width="480" height="1" fill="#000000"/>
<g transform="translate(0.000000,360.000000) scale(0.100000,-0.100000)"
fill="#000000" stroke="none">
<path d="M2163 3130 c-157 -24 -266 -143 -309 -339 -13 -59 -15 -86 -7 -125
10 -49 10 -50 -26 -89 -23 -24 -50 -41 -71 -46 -24 -5 -39 -15 -48 -34 -8 -16
-25 -33 -38 -39 -13 -6 -24 -16 -24 -23 0 -14 134 -145 148 -145 6 0 14 5 17
10 10 16 19 12 38 -21 31 -55 15 -118 -48 -185 -34 -36 -34 -44 0 -44 32 0 35
-8 19 -45 -22 -54 -17 -61 21 -25 l35 34 17 -42 c9 -23 19 -42 24 -42 4 0 11
17 16 37 l9 37 27 -54 c15 -30 37 -66 47 -80 l20 -25 0 25 c1 25 1 25 18 -5
l17 -30 4 45 3 45 18 -40 c10 -22 19 -33 19 -23 1 19 41 13 41 -7 0 -7 7 -18
15 -25 34 -28 -27 -54 -167 -71 -109 -13 -187 -36 -217 -62 -31 -29 -84 -143
-115 -248 l-24 -84 -58 -17 c-81 -24 -99 -23 -113 8 l-12 26 -142 -7 c-228
-11 -315 19 -532 185 -79 60 -156 108 -225 141 -161 77 -155 72 -158 121 -6
85 -19 79 -132 -66 -43 -56 -121 -149 -174 -208 l-96 -107 0 -276 c0 -217 3
-276 13 -273 6 3 41 52 77 111 75 123 105 157 136 157 24 0 67 -45 92 -97 9
-18 19 -33 23 -33 3 0 10 24 13 52 4 29 12 58 18 65 40 49 235 -63 253 -146 4
-17 10 -31 14 -31 4 0 46 20 93 44 48 25 103 48 123 52 52 9 113 -17 185 -82
33 -30 69 -54 79 -54 10 0 76 39 147 86 173 116 294 176 400 198 22 5 37 2 53
-11 l23 -18 -26 -28 c-33 -35 -33 -45 0 -57 19 -8 24 -15 19 -30 -5 -15 0 -23
18 -31 22 -10 25 -19 30 -92 3 -45 3 -121 0 -169 -6 -86 -6 -87 23 -115 17
-15 38 -32 47 -38 16 -9 17 -17 6 -87 -12 -82 -22 -98 -63 -102 -34 -4 -97
-38 -93 -51 2 -5 16 -16 30 -23 32 -15 60 -76 53 -112 -2 -14 -34 -75 -71
-135 l-65 -110 561 -3 c309 -1 564 -1 566 2 2 2 -6 24 -17 50 -24 56 -26 120
-5 169 22 53 19 77 -18 124 -30 37 -35 53 -46 140 -8 73 -9 124 -1 198 6 55
10 136 8 180 -2 47 1 81 7 83 6 2 22 -57 36 -130 31 -162 44 -204 72 -223 45
-31 139 -12 185 37 20 22 23 35 23 109 -1 46 -10 122 -20 169 -10 47 -17 87
-15 89 2 2 38 -29 80 -68 43 -39 85 -71 94 -71 9 0 32 12 51 26 54 42 131 74
175 74 42 0 134 -47 185 -96 33 -31 44 -30 59 6 7 16 26 38 44 49 44 27 139
53 183 49 l38 -3 -3 -55 c-4 -58 -3 -58 42 3 81 111 116 87 215 -146 11 -26
27 -50 35 -53 9 -3 65 6 125 20 127 31 124 31 331 -39 74 -25 140 -45 147 -45
32 0 5 36 -104 137 -129 118 -354 340 -393 388 -79 95 -134 172 -194 270 -147
239 -143 234 -165 164 -13 -41 -24 -47 -155 -89 -51 -17 -133 -54 -186 -86
-219 -129 -306 -160 -430 -151 -101 8 -107 11 -114 61 -10 62 -92 201 -161
271 -50 51 -70 64 -120 79 -281 81 -295 88 -277 132 7 16 24 43 38 59 l25 30
-6 -38 c-4 -25 -3 -37 4 -33 5 3 11 -2 13 -11 3 -14 9 -9 28 19 14 21 28 38
32 38 4 0 10 -16 14 -35 3 -19 9 -35 13 -35 3 0 16 17 28 38 22 36 23 36 29
14 8 -29 24 -11 24 27 0 23 1 24 13 7 13 -17 14 -16 26 13 8 17 16 31 18 31 3
0 21 -14 40 -31 19 -16 37 -28 40 -26 2 3 -5 23 -16 46 -31 59 -28 64 24 57
47 -8 61 5 26 23 -18 10 -71 91 -71 108 0 4 7 17 15 27 14 19 15 19 36 0 l21
-19 -6 40 c-6 33 -3 46 15 69 l21 27 28 -33 c24 -28 30 -31 44 -19 30 25 20
83 -26 150 -23 33 -39 64 -35 67 7 8 69 -36 106 -75 l24 -25 14 39 c8 22 15
73 15 113 1 40 4 74 7 76 3 2 35 -1 71 -8 112 -20 138 -2 80 55 -20 21 -41 63
-66 137 -32 94 -35 115 -30 169 6 55 4 62 -13 68 -30 9 -99 -14 -163 -56 -88
-57 -89 -57 -133 6 -42 62 -112 118 -176 141 -24 8 -118 24 -209 35 -235 27
-249 28 -307 19z m17 -1241 c0 -6 -4 -7 -10 -4 -5 3 -10 11 -10 16 0 6 5 7 10
4 6 -3 10 -11 10 -16z"/>
</g>
</svg>
