<?xml version="1.0" standalone="no"?>
<!DOCTYPE svg PUBLIC "-//W3C//DTD SVG 20010904//EN"
 "http://www.w3.org/TR/2001/REC-SVG-20010904/DTD/svg10.dtd">
<svg version="1.0" xmlns="http://www.w3.org/2000/svg"
 width="480.000000pt" height="360.000000pt" viewBox="0 0 480.000000 360.000000"
 preserveAspectRatio="xMidYMid meet">
<metadata>
Created by potrace 1.16, written by Peter Selinger 2001-2019
</metadata>
<rect width="1" height="360" fill="#000000"/>
<rect x="479" width="1" height="360" fill="#000000"/>
<rect width="480" height="1" fill="#000000"/>
<rect y="359" width="480" height="1" fill="#000000"/>
<g transform="translate(0.000000,360.000000) scale(0.100000,-0.100000)"
fill="#000000" stroke="none">
<path d="M3290 3464 c-52 -14 -104 -31 -115 -38 -13 -9 -27 -40 -40 -87 l-20
-74 -60 -8 c-111 -16 -190 -45 -254 -93 -111 -83 -191 -199 -193 -277 0 -18
-7 -44 -15 -59 -16 -32 1 -39 17 -7 16 29 23 17 9 -17 -15 -41 -28 -124 -19
-129 4 -3 11 5 15 18 7 19 9 17 12 -15 2 -21 8 -38 14 -38 5 0 9 -9 9 -20 0
-11 7 -20 15 -20 8 0 15 -6 15 -14 0 -8 5 -18 12 -22 7 -4 8 -3 4 5 -9 13 2
67 11 58 3 -4 9 -25 13 -48 9 -47 -8 -72 -61 -91 -37 -13 -37 -32 1 -74 24
-27 28 -40 23 -64 -3 -16 -1 -36 4 -42 10 -13 26 -71 38 -136 9 -46 34 -56
126 -48 93 9 93 8 103 -109 l6 -80 -104 -97 c-58 -54 -111 -98 -119 -98 -30 0
-76 -50 -90 -98 -8 -30 -18 -46 -28 -45 -8 1 -93 28 -189 61 l-175 61 -25 48
c-27 52 -100 106 -142 104 -13 0 -45 0 -72 0 -27 -1 -56 -7 -65 -14 -9 -8 -35
-19 -57 -25 -34 -10 -49 -9 -84 3 -50 18 -70 19 -70 5 0 -16 52 -59 71 -60 20
0 25 -12 34 -76 10 -65 19 -80 53 -87 25 -5 35 -18 66 -81 28 -59 38 -96 47
-171 5 -52 21 -137 35 -188 39 -147 83 -341 79 -345 -12 -12 -61 14 -114 61
-40 35 -110 78 -222 135 l-164 83 -212 192 c-206 187 -213 192 -257 194 -25 1
-48 -3 -52 -8 -3 -5 -13 -8 -22 -5 -12 4 -26 -10 -50 -50 -17 -31 -32 -59 -32
-64 0 -5 12 -18 27 -30 16 -12 85 -74 156 -138 95 -86 126 -120 121 -134 -6
-20 7 -48 51 -103 17 -22 37 -59 43 -82 13 -44 110 -176 142 -193 10 -5 43
-10 72 -10 29 0 68 -4 87 -10 18 -5 86 -16 150 -25 147 -19 175 -29 201 -71
29 -46 75 -80 215 -159 66 -37 130 -74 143 -81 l22 -15 -21 -28 c-41 -56 -44
-147 -5 -202 9 -13 16 -38 16 -56 l0 -33 635 0 c632 0 635 0 635 20 0 50 -117
207 -146 196 -7 -3 -16 0 -20 5 -19 32 -56 346 -58 499 -1 106 -7 173 -14 187
-16 28 -46 45 -67 37 -13 -5 -15 -2 -9 22 4 16 8 30 9 31 1 2 19 -6 40 -17 25
-13 59 -20 95 -20 78 0 102 8 95 31 -6 17 0 19 54 19 65 0 67 1 51 31 -10 18
-7 19 58 19 38 0 72 3 75 7 4 3 -1 15 -10 26 -17 18 -17 19 0 32 10 7 17 21
15 31 -2 11 4 20 14 22 14 3 17 -6 20 -50 3 -52 3 -53 17 -25 8 15 18 27 23
27 13 0 9 -59 -6 -88 -8 -16 -19 -57 -25 -92 -6 -36 -14 -75 -16 -87 -9 -37
10 -26 55 32 24 31 44 54 46 52 2 -1 -3 -27 -11 -56 -17 -67 -40 -240 -32
-248 4 -3 14 11 23 31 10 20 20 36 24 36 3 0 2 -37 -2 -83 -9 -116 -9 -167 0
-167 5 0 23 20 42 45 18 25 34 44 36 42 1 -1 -7 -42 -17 -92 -10 -49 -18 -93
-19 -97 -1 -21 34 -3 86 44 35 32 55 45 50 33 -13 -34 -45 -180 -40 -184 2 -2
14 4 25 15 22 19 22 19 15 -6 -4 -14 -10 -33 -12 -42 -8 -27 13 -22 32 7 18
27 37 34 28 10 -4 -8 -2 -15 3 -15 6 0 16 19 23 43 15 50 59 141 66 135 2 -3
-5 -34 -15 -69 -17 -54 -45 -187 -64 -301 -4 -28 7 -39 16 -15 4 10 6 10 6 0
1 -10 48 -13 201 -13 l199 0 6 35 c3 19 7 52 10 73 11 76 17 94 27 84 6 -6 4
-36 -6 -85 -23 -112 -26 -107 49 -107 l65 0 0 818 0 818 -102 57 c-272 152
-478 342 -624 572 -26 41 -51 75 -55 75 -4 0 -10 -14 -14 -30 -4 -17 -28 -52
-53 -78 -26 -27 -57 -61 -68 -77 l-22 -30 -5 35 c-37 229 -47 330 -37 380 18
95 12 204 -16 299 -53 178 -81 229 -169 313 -47 44 -47 44 -36 83 6 22 11 50
11 62 0 47 -155 194 -204 192 -12 0 -64 -12 -116 -25z m505 -1270 c14 -125 14
-173 1 -97 -4 21 -14 61 -23 89 -11 35 -14 66 -9 98 4 27 10 46 12 43 3 -3 11
-62 19 -133z m0 -172 c-9 -9 -25 11 -25 31 1 21 1 21 15 -3 7 -14 12 -27 10
-28z m-136 -161 l-13 -26 -4 28 c-2 16 -1 36 3 45 6 15 7 15 17 -2 7 -13 7
-26 -3 -45z m-152 -107 c2 -5 -6 -15 -17 -22 -17 -10 -20 -10 -20 6 0 30 28
43 37 16z m-99 -31 c12 -38 9 -54 -8 -37 -14 14 -24 74 -13 74 5 0 15 -17 21
-37z m-953 -119 c77 -16 141 -29 143 -30 1 -1 -9 -23 -23 -49 -14 -26 -25 -56
-25 -66 0 -10 -12 -35 -26 -56 -22 -33 -25 -45 -20 -86 7 -46 5 -49 -54 -127
-51 -67 -59 -83 -50 -99 6 -12 6 -22 1 -26 -14 -8 -26 19 -77 168 -25 73 -52
143 -61 155 -9 15 -12 34 -8 49 3 14 6 65 6 115 l0 90 27 -4 c15 -3 90 -18
167 -34z m923 -817 c14 -54 34 -298 30 -357 l-3 -45 -37 95 c-21 53 -38 109
-38 125 0 51 24 225 31 225 4 0 11 -19 17 -43z"/>
</g>
</svg>
