<?xml version="1.0" standalone="no"?>
<!DOCTYPE svg PUBLIC "-//W3C//DTD SVG 20010904//EN"
 "http://www.w3.org/TR/2001/REC-SVG-20010904/DTD/svg10.dtd">
<svg version="1.0" xmlns="http://www.w3.org/2000/svg"
 width="480.000000pt" height="360.000000pt" viewBox="0 0 480.000000 360.000000"
 preserveAspectRatio="xMidYMid meet">
<metadata>
Created by potrace 1.16, written by Peter Selinger 2001-2019
</metadata>
<rect width="1" height="360" fill="#000000"/>
<rect x="479" width="1" height="360" fill="#000000"/>
<rect width="480" height="1" fill="#000000"/>
<rect y="359" width="480" height="1" fill="#000000"/>
<g transform="translate(0.000000,360.000000) scale(0.100000,-0.100000)"
fill="#000000" stroke="none">
<path d="M2892 3288 c-53 -67 -56 -68 -107 -52 -63 19 -85 5 -55 -35 55 -70
54 -64 19 -121 -17 -28 -29 -53 -26 -57 3 -3 29 3 56 12 56 18 94 15 46 -4
-16 -7 -79 -49 -140 -93 -60 -45 -135 -100 -165 -122 -48 -35 -62 -41 -114
-43 -44 -1 -63 2 -71 14 -19 25 -50 12 -51 -22 -2 -58 -2 -58 -33 -52 -53 11
-47 -18 29 -142 39 -64 76 -124 83 -133 8 -13 4 -37 -20 -111 -66 -200 -100
-491 -54 -463 4 3 19 -17 31 -45 30 -62 43 -72 35 -25 -4 20 -5 36 -3 36 3 0
25 -31 51 -68 26 -37 65 -80 87 -95 l41 -27 11 31 c9 27 12 29 20 14 24 -42
-117 -133 -212 -137 -69 -2 -122 -29 -142 -71 -12 -25 -27 -36 -67 -51 -61
-22 -106 -57 -115 -88 -4 -16 -36 -41 -98 -78 -51 -30 -97 -57 -101 -59 -15
-6 -25 19 -32 85 -4 43 -19 86 -46 140 -36 73 -41 79 -67 76 -26 -3 -31 2 -57
63 -21 50 -37 73 -66 92 -21 14 -43 22 -48 18 -16 -9 -13 -41 4 -55 8 -7 15
-16 15 -21 0 -16 -46 -9 -135 21 -110 37 -137 38 -159 4 -10 -14 -16 -33 -14
-42 2 -9 -6 -21 -17 -27 -21 -11 -63 -91 -101 -193 -25 -68 -23 -86 16 -132
19 -23 21 -24 31 -7 5 9 17 17 24 17 8 0 15 4 15 8 0 5 18 15 40 22 30 10 46
10 64 2 13 -6 44 -14 70 -17 33 -5 50 -14 58 -29 6 -11 28 -39 48 -62 46 -50
82 -112 109 -185 28 -74 58 -101 120 -107 62 -6 117 12 291 94 74 35 135 62
137 60 2 -1 -2 -29 -8 -62 -14 -73 -6 -150 33 -329 16 -77 31 -144 31 -149 1
-6 -15 -18 -35 -28 -21 -10 -45 -32 -54 -49 -16 -31 -17 -32 -75 -26 -59 5
-59 5 -59 -21 0 -49 -8 -51 -171 -63 -138 -10 -165 -10 -233 6 -54 11 -96 15
-136 10 -48 -6 -74 -2 -156 24 -55 16 -184 55 -289 86 -358 106 -430 129 -446
142 -10 8 -20 34 -23 57 -13 87 -67 104 -279 87 -84 -6 -169 -15 -189 -18
l-38 -6 0 -343 0 -344 1536 0 1535 0 -50 58 c-40 45 -52 68 -57 103 -6 45 -6
46 27 55 24 7 35 16 37 32 3 21 22 32 22 12 0 -5 5 -10 11 -10 7 0 9 12 5 33
-4 22 0 41 12 62 44 72 91 273 107 460 6 63 12 85 30 105 62 68 75 99 74 179
-1 42 -4 87 -8 101 -10 38 19 109 63 152 21 21 36 41 33 45 -4 3 -2 12 4 19
12 15 29 4 -176 109 -94 48 -172 89 -174 91 -3 2 1 10 7 16 9 9 12 9 12 0 0
-20 14 -14 50 22 23 23 42 33 55 30 24 -5 93 52 99 81 2 11 17 47 32 80 50
107 45 308 -11 463 l-23 63 50 77 c28 42 64 94 80 114 16 21 28 44 25 50 -2 7
0 21 5 32 9 17 7 18 -15 12 -19 -4 -29 -1 -35 10 -7 12 -18 15 -36 12 -24 -5
-30 0 -49 38 -12 26 -28 44 -38 44 -38 0 -102 51 -198 158 -90 100 -117 142
-93 142 21 0 155 -100 186 -140 55 -69 56 -70 66 -70 5 0 26 34 46 75 34 69
36 78 24 101 -17 31 -106 87 -165 104 -25 7 -45 18 -45 26 0 17 -13 24 -68 38
-49 13 -59 28 -61 94 -1 37 -14 41 -39 10z"/>
</g>
</svg>
