<?xml version="1.0" standalone="no"?>
<!DOCTYPE svg PUBLIC "-//W3C//DTD SVG 20010904//EN"
 "http://www.w3.org/TR/2001/REC-SVG-20010904/DTD/svg10.dtd">
<svg version="1.0" xmlns="http://www.w3.org/2000/svg"
 width="480.000000pt" height="360.000000pt" viewBox="0 0 480.000000 360.000000"
 preserveAspectRatio="xMidYMid meet">
<metadata>
Created by potrace 1.16, written by Peter Selinger 2001-2019
</metadata>
<rect width="1" height="360" fill="#000000"/>
<rect x="479" width="1" height="360" fill="#000000"/>
<rect width="480" height="1" fill="#000000"/>
<rect y="359" width="480" height="1" fill="#000000"/>
<g transform="translate(0.000000,360.000000) scale(0.100000,-0.100000)"
fill="#000000" stroke="none">
<path d="M1604 3418 c0 -244 -20 -348 -108 -553 -25 -60 -95 -183 -139 -245
-30 -43 -181 -200 -222 -230 -11 -8 -41 -32 -66 -53 -112 -91 -366 -198 -539
-227 -137 -23 -408 -15 -513 16 -16 5 -17 -50 -17 -1060 l0 -1066 1333 0 1332
0 33 155 c18 87 62 244 102 361 77 230 95 303 140 579 17 105 33 199 36 210 3
12 -16 -3 -48 -36 -29 -31 -63 -62 -75 -68 -14 -7 -23 -24 -28 -51 -4 -22 -11
-42 -16 -46 -5 -3 0 -17 11 -31 26 -33 25 -48 -2 -67 -58 -41 -138 1 -138 72
0 36 76 183 132 252 139 176 178 232 178 261 0 17 -6 32 -15 35 -8 3 -17 16
-21 27 -3 12 -20 37 -38 55 -52 55 -40 126 40 230 22 29 34 58 39 95 6 46 13
58 58 100 46 44 49 50 39 73 -11 22 -9 26 13 34 39 15 29 28 -17 23 -39 -4
-45 -2 -60 24 -35 57 -43 68 -61 81 -18 14 -18 15 2 29 31 21 25 40 -16 50
-30 7 -42 17 -58 48 -11 22 -23 42 -27 43 -16 7 -7 48 22 107 l29 60 -28 47
c-37 59 -56 111 -48 132 5 11 19 16 51 16 54 0 246 -44 301 -69 22 -10 62 -24
90 -30 122 -29 199 -132 231 -313 11 -57 31 -122 53 -168 31 -66 36 -86 39
-170 2 -52 -1 -114 -6 -137 -7 -32 -6 -55 4 -90 8 -27 20 -91 27 -143 11 -79
11 -104 0 -145 -9 -35 -11 -61 -4 -85 5 -19 12 -69 16 -110 3 -41 13 -137 21
-213 19 -158 14 -264 -14 -360 l-20 -68 33 -82 c18 -45 65 -152 105 -237 90
-192 132 -302 156 -402 l18 -78 428 0 428 0 0 1800 0 1800 -1598 0 -1598 0 0
-182z"/>
</g>
</svg>
