<?xml version="1.0" standalone="no"?>
<!DOCTYPE svg PUBLIC "-//W3C//DTD SVG 20010904//EN"
 "http://www.w3.org/TR/2001/REC-SVG-20010904/DTD/svg10.dtd">
<svg version="1.0" xmlns="http://www.w3.org/2000/svg"
 width="480.000000pt" height="360.000000pt" viewBox="0 0 480.000000 360.000000"
 preserveAspectRatio="xMidYMid meet">
<metadata>
Created by potrace 1.16, written by Peter Selinger 2001-2019
</metadata>
<rect width="1" height="360" fill="#000000"/>
<rect x="479" width="1" height="360" fill="#000000"/>
<rect width="480" height="1" fill="#000000"/>
<rect y="359" width="480" height="1" fill="#000000"/>
<g transform="translate(0.000000,360.000000) scale(0.100000,-0.100000)"
fill="#000000" stroke="none">
<path d="M2403 3528 c-4 -7 -15 -31 -24 -53 -13 -31 -23 -41 -48 -46 -45 -9
-48 -15 -26 -55 18 -34 18 -37 0 -89 -10 -30 -27 -62 -39 -72 -80 -69 -124
-102 -143 -107 -12 -4 -33 -20 -47 -36 -23 -28 -29 -30 -83 -26 -32 1 -66 6
-75 10 -20 9 -54 -40 -64 -92 -5 -28 -2 -39 23 -65 53 -57 101 -160 85 -181
-15 -20 -42 -131 -42 -175 0 -35 7 -51 40 -89 21 -26 48 -58 59 -72 l20 -25 1
25 c1 37 16 6 25 -50 16 -109 86 -270 117 -270 4 0 4 17 1 38 l-6 37 31 -28
c16 -16 33 -29 36 -28 15 2 8 -7 -31 -43 -36 -32 -53 -39 -119 -51 -42 -7 -79
-17 -83 -22 -4 -4 -17 -31 -30 -60 -22 -48 -22 -53 -8 -74 16 -22 15 -25 -38
-80 -48 -50 -55 -63 -55 -97 0 -34 -16 -63 -102 -193 l-103 -153 -115 -68
c-105 -62 -186 -104 -297 -154 -26 -12 -49 -31 -60 -52 -11 -19 -29 -35 -43
-39 -14 -3 -35 -12 -48 -20 -32 -20 -169 -28 -241 -14 -69 14 -122 4 -165 -30
-36 -28 -61 -78 -47 -92 6 -6 11 -14 11 -17 0 -6 -118 15 -125 22 -2 2 -7 18
-12 37 -20 79 -94 93 -375 71 l-158 -13 0 -288 c0 -251 2 -289 15 -289 8 0 66
-18 128 -39 350 -123 503 -177 687 -243 l205 -73 1452 -3 1451 -2 16 69 c10
43 16 116 16 189 0 177 -14 188 -240 199 -130 6 -251 -10 -439 -58 -98 -25
-139 -24 -311 7 -80 14 -153 26 -162 27 -10 1 -19 6 -22 12 -2 5 -19 46 -36
90 -37 91 -75 151 -133 212 -44 46 -44 68 0 79 153 39 190 111 180 354 -3 80
-11 171 -17 202 -10 54 -9 60 15 102 32 55 35 120 7 192 -16 43 -18 65 -12
131 4 45 14 90 22 102 8 12 13 32 11 45 -4 19 -13 25 -50 30 -25 3 -74 6 -107
6 -65 0 -86 11 -86 43 0 16 3 17 15 7 8 -6 19 -9 25 -5 6 4 17 2 25 -5 10 -9
15 -7 20 9 3 11 10 20 15 18 5 -1 16 7 24 18 15 20 15 20 16 -3 0 -33 21 -23
46 22 19 34 23 36 32 21 17 -31 36 -10 72 81 26 66 35 102 34 144 -2 72 -36
204 -81 308 -35 83 -35 84 -18 121 9 21 34 58 56 82 30 34 35 45 23 47 -8 2
-13 10 -10 17 7 19 -21 27 -46 14 -28 -15 -36 -3 -40 56 l-3 50 -23 -37 c-13
-21 -27 -38 -30 -38 -12 1 -52 71 -52 91 0 12 -4 17 -11 13 -13 -7 -219 193
-219 213 0 33 58 -5 99 -64 12 -18 25 -33 29 -33 21 1 35 25 52 91 23 87 18
97 -59 125 -25 10 -53 23 -62 31 -8 7 -28 13 -42 13 -22 0 -27 5 -27 24 0 32
-17 76 -29 76 -5 0 -13 -6 -18 -12z m-515 -2433 c5 -27 17 -85 27 -128 9 -43
15 -80 13 -82 -2 -3 -18 -5 -36 -7 -25 -2 -33 -8 -37 -29 -5 -21 -13 -28 -43
-33 -69 -11 -210 -6 -273 10 -34 9 -79 14 -100 12 -22 -2 -39 -1 -39 2 0 17
196 143 325 208 33 17 78 49 100 71 21 23 42 38 46 33 3 -4 11 -29 17 -57z
m-953 -240 c48 -14 95 -31 105 -38 17 -12 17 -14 -4 -39 l-21 -26 -142 26
c-79 14 -143 29 -143 33 0 12 83 69 101 69 9 0 56 -11 104 -25z m-220 -35 c3
-5 -1 -10 -9 -10 -9 0 -16 5 -16 10 0 6 4 10 9 10 6 0 13 -4 16 -10z m595 -17
c0 -3 -9 -18 -21 -34 -26 -36 -19 -63 13 -54 17 5 20 4 13 -4 -8 -8 -32 -7
-90 4 -114 22 -114 21 -82 50 32 30 43 31 57 5 16 -29 35 -24 59 15 14 23 25
33 36 29 8 -3 15 -8 15 -11z m141 -70 c-5 -10 -12 -26 -15 -37 -5 -14 -12 -17
-34 -11 -39 10 -40 14 -9 41 34 29 72 34 58 7z m117 -21 c24 -16 -25 -47 -67
-43 -10 1 -8 8 9 26 25 26 37 30 58 17z m157 -72 c3 -5 -3 -10 -14 -10 -12 0
-21 5 -21 10 0 6 6 10 14 10 8 0 18 -4 21 -10z m205 -15 c13 -14 21 -28 17
-31 -6 -7 -126 13 -162 26 -15 6 -8 9 30 15 28 3 55 8 60 10 22 8 33 4 55 -20z"/>
<path d="M4524 2961 c-86 -39 -154 -144 -154 -239 0 -117 80 -212 178 -212 38
0 119 35 149 65 18 18 25 19 22 3 -2 -7 0 -31 4 -53 10 -61 -3 -100 -42 -127
-27 -18 -42 -41 -66 -103 -32 -81 -102 -217 -137 -268 -26 -36 -17 -71 28
-114 32 -29 41 -33 92 -33 31 1 82 9 112 20 30 11 63 19 73 20 16 0 17 28 17
450 0 248 -3 450 -8 450 -4 0 -18 23 -32 51 -47 100 -138 134 -236 90z"/>
<path d="M4741 923 c-96 -267 -209 -466 -303 -533 -24 -17 -76 -63 -115 -103
-79 -78 -90 -108 -53 -142 11 -10 20 -27 20 -37 0 -10 19 -39 41 -63 l42 -45
213 0 214 0 0 535 c0 294 -1 535 -3 535 -2 0 -27 -66 -56 -147z"/>
</g>
</svg>
