<?xml version="1.0" standalone="no"?>
<!DOCTYPE svg PUBLIC "-//W3C//DTD SVG 20010904//EN"
 "http://www.w3.org/TR/2001/REC-SVG-20010904/DTD/svg10.dtd">
<svg version="1.0" xmlns="http://www.w3.org/2000/svg"
 width="480.000000pt" height="360.000000pt" viewBox="0 0 480.000000 360.000000"
 preserveAspectRatio="xMidYMid meet">
<metadata>
Created by potrace 1.16, written by Peter Selinger 2001-2019
</metadata>
<rect width="1" height="360" fill="#000000"/>
<rect x="479" width="1" height="360" fill="#000000"/>
<rect width="480" height="1" fill="#000000"/>
<rect y="359" width="480" height="1" fill="#000000"/>
<g transform="translate(0.000000,360.000000) scale(0.100000,-0.100000)"
fill="#000000" stroke="none">
<path d="M1030 3587 c19 -10 29 -28 43 -82 31 -118 46 -176 68 -275 17 -72 45
-142 115 -288 104 -214 133 -260 258 -410 47 -57 86 -108 86 -113 0 -5 -7 -9
-15 -9 -8 0 -32 -16 -53 -35 -49 -44 -79 -55 -115 -42 -54 18 -74 12 -407
-121 -169 -67 -355 -240 -508 -472 -137 -206 -238 -517 -264 -815 -10 -114 -5
-451 7 -525 25 -149 49 -260 69 -322 l24 -73 216 -3 c119 -1 314 -1 433 0
l218 3 -75 59 c-200 156 -249 235 -300 487 -29 142 -29 436 -1 789 42 521 81
628 274 754 66 43 248 131 293 142 16 4 34 10 39 14 6 4 19 10 30 13 150 42
261 81 294 103 37 24 48 26 104 22 34 -3 84 -16 111 -28 64 -31 272 -232 331
-321 127 -190 173 -390 118 -506 -15 -32 -14 -34 18 -85 82 -132 289 -336 429
-425 124 -79 342 -153 448 -153 40 0 57 -6 82 -26 51 -44 212 -236 299 -359
118 -166 167 -216 258 -263 43 -22 119 -73 168 -113 50 -39 101 -79 113 -87
20 -13 72 -16 293 -20 l269 -5 0 1802 0 1801 -165 0 c-91 0 -165 -1 -165 -3 0
-1 16 -70 35 -152 49 -209 60 -324 59 -595 0 -325 -18 -437 -110 -704 -146
-426 -390 -715 -734 -874 -228 -105 -328 -100 -205 12 32 28 100 94 153 146
105 104 149 180 172 295 6 33 16 80 21 104 52 235 75 672 44 846 -31 178 -105
306 -281 490 -91 95 -287 255 -421 345 l-135 90 -1031 0 c-838 0 -1027 -3
-1007 -13z m1955 -1220 l80 -22 -3 -89 c-1 -61 -13 -135 -37 -231 -19 -78 -35
-149 -35 -158 0 -21 -18 -31 -33 -19 -7 6 -38 20 -70 32 -94 35 -227 171 -304
310 -59 106 -50 130 62 168 109 38 223 40 340 9z"/>
<path d="M1527 1392 c-4 -37 -1 -128 6 -202 11 -106 19 -147 40 -193 29 -63
27 -62 127 -47 144 23 349 119 365 171 10 30 -3 41 -44 34 -30 -5 -44 -1 -83
25 -49 33 -192 186 -210 226 -13 29 -46 41 -129 48 l-66 5 -6 -67z"/>
</g>
</svg>
