<?xml version="1.0" standalone="no"?>
<!DOCTYPE svg PUBLIC "-//W3C//DTD SVG 20010904//EN"
 "http://www.w3.org/TR/2001/REC-SVG-20010904/DTD/svg10.dtd">
<svg version="1.0" xmlns="http://www.w3.org/2000/svg"
 width="480.000000pt" height="360.000000pt" viewBox="0 0 480.000000 360.000000"
 preserveAspectRatio="xMidYMid meet">
<metadata>
Created by potrace 1.16, written by Peter Selinger 2001-2019
</metadata>
<rect width="1" height="360" fill="#000000"/>
<rect x="479" width="1" height="360" fill="#000000"/>
<rect width="480" height="1" fill="#000000"/>
<rect y="359" width="480" height="1" fill="#000000"/>
<g transform="translate(0.000000,360.000000) scale(0.100000,-0.100000)"
fill="#000000" stroke="none">
<path d="M2290 3589 c0 -15 56 -69 70 -69 6 0 8 -4 5 -10 -3 -5 -19 -10 -34
-10 -26 0 -29 -4 -34 -43 -8 -58 1 -86 29 -93 30 -8 30 -9 -1 -45 -26 -32 -95
-231 -95 -277 0 -23 -10 -36 -47 -62 -109 -78 -322 -312 -373 -410 l-13 -25
25 25 c13 14 45 52 70 85 46 60 263 281 307 312 l24 16 -7 -39 c-19 -116 -19
-154 3 -214 13 -36 19 -69 15 -84 -5 -21 -1 -28 19 -37 17 -7 36 -34 56 -78
37 -82 38 -91 6 -119 -33 -29 -33 -72 2 -139 26 -49 27 -54 14 -90 -8 -21 -25
-55 -38 -75 -28 -46 -29 -62 -2 -99 l21 -29 -21 -33 c-11 -18 -30 -42 -42 -53
-50 -44 -138 -155 -133 -167 8 -21 -116 -197 -252 -357 -60 -71 -117 -126
-179 -172 -37 -28 -128 -112 -173 -158 -77 -81 -115 -165 -152 -335 -5 -22
-13 -58 -19 -80 -12 -45 -11 -48 98 -242 54 -95 74 -121 130 -167 69 -56 117
-75 194 -76 21 0 129 -19 240 -41 321 -66 306 -63 326 -45 22 20 37 20 45 1 3
-8 17 -15 32 -15 17 0 28 -6 31 -20 5 -19 14 -20 133 -20 l127 0 6 41 c3 23
10 46 15 51 5 5 99 27 208 48 313 61 279 49 277 98 -1 35 1 42 17 42 13 0 22
-9 26 -25 4 -16 13 -25 25 -25 11 0 70 38 131 85 103 78 118 94 179 188 75
116 91 174 66 236 -8 20 -23 61 -32 91 -33 99 -96 168 -228 249 -50 31 -101
111 -222 348 -72 141 -94 194 -90 213 6 27 -33 92 -157 262 -81 111 -93 153
-77 273 7 52 16 95 20 95 3 0 12 -7 19 -15 44 -53 57 24 37 217 l-15 144 25
75 c31 91 29 173 -5 219 -23 31 -29 65 -12 75 15 9 12 36 -5 49 -8 6 -21 43
-29 81 -8 39 -18 80 -22 93 -6 21 -3 22 40 22 47 0 55 7 34 28 -10 10 -5 11
20 6 28 -6 32 -4 32 15 0 11 -6 21 -12 22 -7 0 2 5 20 10 38 11 41 23 10 41
-23 12 -22 13 10 18 39 6 46 21 14 35 -12 5 -20 15 -18 22 3 7 -1 19 -9 27 -8
7 -12 16 -9 18 2 3 -15 5 -38 6 -24 1 -45 7 -46 12 -2 6 -21 19 -42 30 -21 11
-48 33 -60 50 l-21 30 -245 0 c-176 0 -244 -3 -244 -11z"/>
</g>
</svg>
