<?xml version="1.0" standalone="no"?>
<!DOCTYPE svg PUBLIC "-//W3C//DTD SVG 20010904//EN"
 "http://www.w3.org/TR/2001/REC-SVG-20010904/DTD/svg10.dtd">
<svg version="1.0" xmlns="http://www.w3.org/2000/svg"
 width="480.000000pt" height="360.000000pt" viewBox="0 0 480.000000 360.000000"
 preserveAspectRatio="xMidYMid meet">
<metadata>
Created by potrace 1.16, written by Peter Selinger 2001-2019
</metadata>
<rect width="1" height="360" fill="#000000"/>
<rect x="479" width="1" height="360" fill="#000000"/>
<rect width="480" height="1" fill="#000000"/>
<rect y="359" width="480" height="1" fill="#000000"/>
<g transform="translate(0.000000,360.000000) scale(0.100000,-0.100000)"
fill="#000000" stroke="none">
<path d="M1596 3573 c16 -58 12 -285 -7 -400 -30 -177 -133 -427 -217 -529
-15 -18 -45 -56 -67 -84 -45 -58 -232 -230 -250 -230 -7 0 -20 -10 -31 -21
-17 -19 -88 -60 -184 -105 -34 -16 -143 -52 -245 -80 -121 -34 -449 -36 -549
-3 -16 5 -33 9 -37 9 -5 0 -9 -479 -9 -1065 l0 -1065 1310 0 1309 0 6 33 c48
287 49 291 120 502 65 192 95 310 130 510 14 83 35 197 47 255 17 86 18 113
10 150 -6 25 -14 68 -17 95 -10 85 -13 90 -49 103 -88 32 -109 115 -56 217 17
31 30 59 30 60 0 5 -115 -29 -183 -54 -55 -20 -97 -21 -97 -1 0 5 -4 20 -10
35 -9 25 -10 25 -35 9 -14 -9 -27 -15 -28 -13 -1 2 -7 13 -13 24 -10 17 -25
21 -120 26 -101 5 -210 24 -374 66 -36 9 -78 16 -93 15 -16 -1 -49 7 -74 18
-59 26 -75 25 -112 -6 -28 -23 -31 -24 -31 -7 0 10 6 25 13 32 8 9 0 8 -27 -3
-45 -19 -56 -14 -38 15 12 19 11 19 -8 9 -28 -15 -34 -8 -23 27 13 39 52 54
141 55 56 1 93 -5 137 -21 42 -15 121 -28 260 -43 286 -30 345 -28 345 11 0
27 10 32 34 16 29 -21 36 -19 47 15 13 36 26 37 129 10 88 -23 144 -25 223 -6
70 17 75 21 52 46 -17 19 -17 20 9 31 38 18 32 30 -12 23 -37 -6 -38 -4 -72
48 -19 29 -41 58 -50 65 -13 10 -12 14 8 35 12 14 22 27 22 30 0 3 -16 9 -36
13 -42 7 -73 39 -74 73 0 12 -4 22 -10 22 -19 0 -10 48 20 106 l31 58 -36 71
c-45 87 -44 119 2 123 36 4 250 -51 303 -78 19 -9 53 -21 75 -25 55 -10 86
-27 142 -82 58 -57 88 -130 101 -248 6 -54 19 -101 40 -145 45 -95 58 -172 44
-255 l-11 -69 59 -56 c64 -59 73 -86 44 -128 -9 -13 -11 -22 -4 -22 19 0 29
-43 14 -61 -12 -14 -9 -26 22 -94 l36 -78 9 -206 c5 -113 13 -226 18 -251 6
-25 12 -83 15 -129 4 -59 10 -89 22 -102 16 -18 16 -19 -6 -19 -12 0 -29 8
-36 17 -19 25 -18 -4 1 -37 20 -34 18 -42 -6 -38 -15 2 -27 17 -40 48 -22 55
-24 32 -4 -38 9 -29 13 -57 10 -63 -8 -13 21 -86 98 -249 86 -182 140 -314
167 -407 l24 -83 453 0 453 0 0 1800 0 1800 -1606 0 -1606 0 8 -27z"/>
<path d="M3492 1145 c0 -16 2 -22 5 -12 2 9 2 23 0 30 -3 6 -5 -1 -5 -18z"/>
</g>
</svg>
