<?xml version="1.0" standalone="no"?>
<!DOCTYPE svg PUBLIC "-//W3C//DTD SVG 20010904//EN"
 "http://www.w3.org/TR/2001/REC-SVG-20010904/DTD/svg10.dtd">
<svg version="1.0" xmlns="http://www.w3.org/2000/svg"
 width="480.000000pt" height="360.000000pt" viewBox="0 0 480.000000 360.000000"
 preserveAspectRatio="xMidYMid meet">
<metadata>
Created by potrace 1.16, written by Peter Selinger 2001-2019
</metadata>
<rect width="1" height="360" fill="#000000"/>
<rect x="479" width="1" height="360" fill="#000000"/>
<rect width="480" height="1" fill="#000000"/>
<rect y="359" width="480" height="1" fill="#000000"/>
<g transform="translate(0.000000,360.000000) scale(0.100000,-0.100000)"
fill="#000000" stroke="none">
<path d="M0 1800 l0 -1800 2400 0 2400 0 0 1800 0 1800 -2400 0 -2400 0 0
-1800z m2233 966 c3 -7 22 -17 42 -20 31 -6 36 -11 31 -27 -3 -10 -9 -27 -12
-37 -9 -31 62 -23 90 9 41 47 67 59 133 59 78 0 98 -8 178 -69 35 -27 73 -52
85 -56 11 -3 20 -11 20 -16 0 -16 -70 -10 -110 11 -57 29 -76 26 -84 -11 -10
-52 -8 -55 63 -83 74 -29 115 -64 116 -99 0 -15 9 -24 33 -31 17 -5 32 -13 32
-17 0 -5 5 -9 10 -9 6 0 20 -9 32 -20 20 -18 20 -20 3 -20 -17 0 -17 -1 1 -22
19 -21 19 -21 -3 -16 -13 4 -24 1 -27 -7 -3 -10 -19 -12 -54 -9 -39 4 -49 1
-49 -11 0 -10 10 -15 28 -15 29 0 28 3 42 -135 2 -16 19 -23 107 -43 58 -13
115 -26 128 -28 13 -3 22 -12 22 -22 0 -18 -4 -18 -66 -5 -88 18 -104 11 -29
-13 58 -19 63 -19 155 -2 166 30 385 20 385 -18 0 -5 5 -8 12 -6 6 1 9 -5 7
-16 -6 -21 43 -78 64 -74 7 2 22 -6 31 -17 10 -12 27 -22 37 -22 16 -1 16 -2
3 -6 -22 -5 -32 -43 -14 -49 10 -4 11 -13 5 -35 -5 -17 -6 -37 -3 -46 5 -12 1
-14 -18 -8 -23 7 -23 6 -5 -7 18 -14 18 -15 -3 -21 -12 -3 -34 1 -49 9 -21 10
-28 11 -31 2 -7 -21 -25 -34 -56 -42 -29 -7 -29 -8 -11 -22 19 -13 18 -14 -10
-11 -16 1 -44 11 -62 21 -44 23 -52 14 -12 -14 17 -12 29 -25 26 -28 -3 -2
-26 12 -51 33 -52 42 -101 57 -260 81 -60 9 -131 25 -157 36 -36 15 -51 17
-66 9 -12 -6 -41 -11 -66 -11 l-45 0 2 -51 c1 -35 -3 -53 -13 -59 -21 -14 -28
-12 -51 11 -11 11 -22 19 -23 17 -2 -2 -9 -13 -15 -25 -28 -54 -65 -5 -59 77
3 44 2 45 -27 48 -58 5 -71 5 -165 -3 -82 -7 -97 -5 -109 9 -7 9 -11 25 -8 36
9 34 15 32 -248 49 -88 6 -180 13 -205 17 -54 7 -45 -6 23 -31 37 -14 46 -22
42 -36 -5 -13 6 -24 40 -45 41 -24 45 -28 32 -42 -14 -13 -23 -10 -84 31 -70
46 -170 99 -211 112 -17 5 -30 1 -47 -15 -19 -18 -27 -20 -44 -11 -12 7 -21
20 -21 31 0 21 -12 26 -93 36 -48 5 -61 11 -78 36 -35 48 -20 62 59 53 37 -4
81 -9 97 -10 17 -1 118 -12 225 -23 107 -12 245 -24 305 -28 l110 -6 31 33
c17 19 51 71 74 117 40 77 41 84 26 101 -9 9 -16 21 -16 25 0 4 -7 33 -16 63
-12 41 -22 57 -42 66 -67 28 -81 71 -36 106 34 26 49 26 75 0 14 -14 19 -28
15 -44 -4 -16 3 -37 21 -64 27 -42 43 -52 43 -27 0 8 8 28 17 44 21 37 6 84
-24 76 -23 -6 -66 48 -57 70 4 11 0 16 -14 16 -12 0 -23 4 -27 9 -3 6 -31 24
-63 42 -104 58 -140 118 -78 129 26 4 27 6 13 19 -22 17 -22 39 0 63 19 21 49
24 56 4z"/>
<path d="M2654 2228 c13 -39 25 -58 34 -58 8 0 55 70 50 75 -2 1 -14 6 -27 10
-17 5 -21 4 -16 -5 6 -9 3 -9 -13 -1 -34 18 -40 13 -28 -21z"/>
<path d="M2431 2113 c-12 -27 -36 -69 -52 -94 -34 -54 -48 -109 -28 -109 20 0
116 81 145 122 l25 35 -28 47 c-15 25 -30 46 -33 46 -4 0 -16 -21 -29 -47z"/>
<path d="M2806 2029 c10 -16 110 -59 137 -59 13 1 -7 14 -52 35 -78 37 -97 42
-85 24z"/>
</g>
</svg>
