<?xml version="1.0" standalone="no"?>
<!DOCTYPE svg PUBLIC "-//W3C//DTD SVG 20010904//EN"
 "http://www.w3.org/TR/2001/REC-SVG-20010904/DTD/svg10.dtd">
<svg version="1.0" xmlns="http://www.w3.org/2000/svg"
 width="480.000000pt" height="360.000000pt" viewBox="0 0 480.000000 360.000000"
 preserveAspectRatio="xMidYMid meet">
<metadata>
Created by potrace 1.16, written by Peter Selinger 2001-2019
</metadata>
<rect width="1" height="360" fill="#000000"/>
<rect x="479" width="1" height="360" fill="#000000"/>
<rect width="480" height="1" fill="#000000"/>
<rect y="359" width="480" height="1" fill="#000000"/>
<g transform="translate(0.000000,360.000000) scale(0.100000,-0.100000)"
fill="#000000" stroke="none">
<path d="M0 1800 l0 -1800 686 0 686 0 -26 34 c-14 19 -26 37 -26 41 0 21 -64
81 -112 106 -67 34 -88 60 -88 111 0 21 -6 48 -12 59 -12 18 -9 24 26 54 26
23 36 39 32 51 -11 30 26 84 103 147 96 80 138 108 292 198 196 114 235 150
409 386 19 26 61 78 92 116 32 38 58 72 58 75 0 4 -14 15 -30 24 -26 15 -57
65 -74 121 -5 14 -10 16 -25 7 -23 -12 -81 -14 -81 -2 0 4 20 20 45 35 52 33
52 33 34 212 -8 77 -19 129 -40 181 -45 112 -46 124 -10 200 42 89 41 107 -4
64 -19 -19 -35 -30 -35 -24 0 10 -47 34 -67 34 -7 0 -13 5 -13 10 0 6 -7 10
-15 10 -9 0 -20 11 -26 24 -6 13 -20 27 -31 29 -20 6 -20 6 2 29 l21 23 -20 3
c-22 4 -28 17 -11 27 6 3 10 17 10 30 0 17 13 31 50 54 53 33 129 127 161 200
23 52 90 139 126 162 14 9 50 22 81 29 48 10 64 9 105 -5 l48 -16 53 31 c35
19 53 36 52 48 -1 13 6 16 26 14 15 -1 49 8 75 21 61 31 249 64 375 66 71 2
260 -31 348 -60 94 -30 214 -88 300 -145 150 -98 319 -290 405 -462 14 -28 39
-112 56 -187 l31 -137 -17 -62 c-34 -121 -47 -148 -112 -232 -73 -96 -102
-118 -138 -112 -18 4 -44 -7 -92 -38 -36 -24 -84 -50 -106 -56 -35 -11 -44
-10 -78 10 -47 27 -50 27 -102 1 -23 -11 -65 -23 -93 -26 -52 -6 -96 10 -155
58 -23 18 -31 19 -65 10 -89 -25 -163 -6 -219 55 -23 24 -44 44 -47 44 -4 0
-30 -48 -58 -107 -42 -88 -50 -115 -46 -144 4 -24 0 -42 -12 -59 -9 -14 -22
-43 -27 -65 -8 -28 -19 -44 -38 -53 -44 -21 -32 -65 27 -101 67 -42 135 -17
155 55 8 31 38 44 52 22 28 -43 -4 -119 -61 -148 -55 -28 -107 -25 -175 9
l-57 29 5 -27 c7 -35 20 -140 53 -415 14 -120 41 -305 60 -409 19 -105 34
-208 34 -229 l0 -38 1035 0 1035 0 0 1800 0 1800 -110 0 c-81 0 -110 -3 -110
-12 0 -15 -53 -53 -87 -63 -41 -12 -24 13 30 44 l52 31 -2287 0 -2288 0 0
-1800z m708 1724 c32 -22 27 -35 -8 -23 -16 6 -30 17 -30 25 0 18 10 18 38 -2z
m642 -69 c0 -19 -4 -35 -10 -35 -11 0 -14 53 -3 63 11 12 13 8 13 -28z m478
-12 c-10 -2 -26 -2 -35 0 -10 3 -2 5 17 5 19 0 27 -2 18 -5z m1287 -24 c8 -25
-2 -89 -15 -89 -14 0 -22 39 -15 76 7 38 20 44 30 13z m-178 -96 c-13 -26 -23
-39 -25 -30 -4 21 28 88 39 82 4 -3 -2 -26 -14 -52z m-1569 -1 c89 -32 81 -45
-9 -16 -27 9 -52 20 -55 25 -8 13 6 11 64 -9z m1417 -282 c3 -6 -1 -7 -9 -4
-18 7 -21 14 -7 14 6 0 13 -4 16 -10z m-2310 -65 c0 -27 -3 -30 -30 -30 -24 0
-31 5 -33 24 -4 27 13 42 43 39 15 -2 20 -11 20 -33z m583 8 c-5 -25 -28 -28
-28 -4 0 12 6 21 16 21 9 0 14 -7 12 -17z m-878 -119 c0 -33 -33 -30 -38 4 -3
17 2 22 17 22 16 0 21 -6 21 -26z m495 -65 c0 -7 -8 -15 -17 -17 -18 -3 -25
18 -11 32 10 10 28 1 28 -15z m4050 -259 c-3 -5 -19 -10 -35 -10 -16 0 -32 5
-35 10 -4 6 10 10 35 10 25 0 39 -4 35 -10z m-3165 -60 c28 -15 46 -50 25 -50
-17 0 -55 35 -55 50 0 13 6 13 30 0z m-1036 -79 c7 -11 -41 -24 -56 -15 -8 5
-5 10 8 15 27 11 42 11 48 0z m3616 -191 c0 -5 -9 -10 -21 -10 -11 0 -17 5
-14 10 3 6 13 10 21 10 8 0 14 -4 14 -10z m219 -501 c17 -6 31 -15 31 -20 0
-5 8 -9 17 -9 9 0 14 -3 10 -6 -6 -7 -96 24 -111 38 -14 12 15 10 53 -3z
m-385 -45 c9 -23 7 -52 -4 -59 -13 -8 -43 42 -36 60 7 20 32 19 40 -1z m-3415
-30 c-44 -47 -109 -72 -89 -33 14 25 68 59 94 59 18 0 18 -2 -5 -26z m1051
-94 c0 -12 -17 -12 -45 0 -17 7 -15 9 13 9 17 1 32 -3 32 -9z m-1357 -234
c-30 -27 -43 -32 -43 -17 0 14 64 62 68 51 2 -5 -9 -21 -25 -34z m3177 -1 c0
-8 -4 -17 -10 -20 -6 -4 -10 5 -10 20 0 15 4 24 10 20 6 -3 10 -12 10 -20z
m1295 -365 c-3 -5 -15 -10 -26 -10 -10 0 -19 5 -19 10 0 6 12 10 26 10 14 0
23 -4 19 -10z m-4436 -123 c14 -17 4 -27 -26 -27 -16 0 -23 6 -23 20 0 23 31
27 49 7z m2523 -49 c-7 -7 -12 -8 -12 -2 0 14 12 26 19 19 2 -3 -1 -11 -7 -17z
m-2278 -37 c7 -11 -9 -18 -70 -26 -59 -9 -51 9 11 24 54 12 53 12 59 2z m296
0 c0 -23 -52 -69 -85 -75 -47 -9 -61 1 -38 26 31 35 123 71 123 49z m3808
-147 c-3 -60 -6 -69 -30 -87 -15 -11 -30 -18 -33 -15 -3 3 -7 31 -8 63 -2 51
1 59 26 81 15 13 33 24 38 24 6 0 9 -27 7 -66z m-4458 -315 c0 -8 -58 -39 -75
-39 -16 0 0 20 28 34 38 18 47 20 47 5z"/>
<path d="M2031 2236 c-16 -19 -11 -29 8 -17 7 5 12 14 9 21 -3 9 -8 7 -17 -4z"/>
<path d="M2533 1793 c-14 -30 -18 -62 -18 -154 0 -131 6 -144 63 -152 20 -3
46 -7 56 -9 15 -2 29 16 67 87 58 108 58 126 6 137 -41 9 -127 64 -127 82 0 6
-7 19 -14 29 -13 17 -16 16 -33 -20z"/>
</g>
</svg>
