<?xml version="1.0" standalone="no"?>
<!DOCTYPE svg PUBLIC "-//W3C//DTD SVG 20010904//EN"
 "http://www.w3.org/TR/2001/REC-SVG-20010904/DTD/svg10.dtd">
<svg version="1.0" xmlns="http://www.w3.org/2000/svg"
 width="480.000000pt" height="360.000000pt" viewBox="0 0 480.000000 360.000000"
 preserveAspectRatio="xMidYMid meet">
<metadata>
Created by potrace 1.16, written by Peter Selinger 2001-2019
</metadata>
<rect width="1" height="360" fill="#000000"/>
<rect x="479" width="1" height="360" fill="#000000"/>
<rect width="480" height="1" fill="#000000"/>
<rect y="359" width="480" height="1" fill="#000000"/>
<g transform="translate(0.000000,360.000000) scale(0.100000,-0.100000)"
fill="#000000" stroke="none">
<path d="M1785 3567 c-10 -19 -30 -38 -44 -44 -23 -8 -29 -19 -39 -74 -7 -41
-8 -67 -2 -73 22 -22 6 -38 -74 -77 -194 -92 -230 -175 -122 -278 20 -19 36
-40 36 -47 0 -6 -32 -43 -71 -80 -93 -90 -154 -169 -189 -247 -29 -65 -33 -81
-31 -134 2 -56 26 -38 82 63 59 105 149 220 191 244 36 20 49 6 51 -56 2 -44
-1 -49 -33 -71 -43 -30 -55 -50 -41 -67 18 -21 3 -42 -40 -59 -33 -13 -39 -20
-39 -46 0 -21 7 -34 23 -42 12 -7 27 -19 33 -27 15 -21 66 -9 126 30 28 17 53
27 57 22 10 -11 51 -257 51 -301 0 -58 -39 -138 -108 -224 -110 -137 -143
-187 -157 -232 -20 -67 -139 -253 -352 -548 -46 -64 -108 -165 -138 -224 -31
-60 -59 -113 -63 -119 -14 -18 -32 -91 -32 -128 0 -38 20 -72 104 -178 80
-101 106 -138 106 -149 0 -6 22 -17 48 -25 27 -7 72 -26 102 -41 l53 -27 162
7 c89 4 198 4 243 0 l80 -7 6 -86 c3 -48 9 -117 12 -155 l6 -67 129 0 c71 0
129 4 129 8 0 4 -11 23 -24 41 -18 24 -27 55 -36 129 -6 53 -10 117 -8 142 l3
45 74 24 c51 16 79 21 90 14 35 -20 59 -96 71 -213 6 -63 13 -132 16 -152 l6
-38 682 0 683 0 13 43 c25 76 10 384 -34 692 -24 167 -24 177 -16 545 5 209
16 437 25 515 27 248 -5 522 -85 714 -17 41 -37 82 -44 90 -8 9 -31 49 -51 90
-21 43 -61 100 -93 134 -128 133 -352 185 -616 142 -49 -7 -102 -11 -118 -8
-21 4 -35 0 -51 -15 -12 -11 -42 -29 -67 -40 -64 -28 -123 -83 -187 -173 -77
-111 -86 -108 -54 19 11 43 25 124 31 182 6 58 15 125 20 150 11 55 -21 197
-52 229 -24 27 -18 37 29 45 65 11 69 17 55 83 -13 65 -30 83 -68 75 -18 -3
-25 -1 -20 6 4 7 -13 26 -41 46 l-48 36 -161 0 -161 0 -18 -33z m425 -1282
c22 -35 65 -65 94 -65 39 0 24 -67 -21 -91 -38 -20 -39 -47 -4 -83 21 -21 31
-42 31 -62 0 -17 13 -57 29 -90 32 -66 30 -111 -2 -48 -11 22 -36 57 -56 79
-105 115 -142 201 -129 297 15 111 23 120 58 63z m251 -531 c8 -5 -2 -63 -12
-70 -26 -16 -69 29 -69 72 0 12 8 13 38 8 20 -4 40 -8 43 -10z m169 -95 c0
-20 -24 -26 -35 -9 -3 6 -3 19 0 31 5 16 10 18 21 8 8 -6 14 -20 14 -30z"/>
</g>
</svg>
