<?xml version="1.0" standalone="no"?>
<!DOCTYPE svg PUBLIC "-//W3C//DTD SVG 20010904//EN"
 "http://www.w3.org/TR/2001/REC-SVG-20010904/DTD/svg10.dtd">
<svg version="1.0" xmlns="http://www.w3.org/2000/svg"
 width="480.000000pt" height="360.000000pt" viewBox="0 0 480.000000 360.000000"
 preserveAspectRatio="xMidYMid meet">
<metadata>
Created by potrace 1.16, written by Peter Selinger 2001-2019
</metadata>
<rect width="1" height="360" fill="#000000"/>
<rect x="479" width="1" height="360" fill="#000000"/>
<rect width="480" height="1" fill="#000000"/>
<rect y="359" width="480" height="1" fill="#000000"/>
<g transform="translate(0.000000,360.000000) scale(0.100000,-0.100000)"
fill="#000000" stroke="none">
<path d="M2783 3263 c-10 -10 -28 -31 -39 -48 -21 -28 -23 -29 -70 -18 -28 7
-53 8 -58 3 -8 -8 -4 -16 39 -76 14 -19 13 -24 -16 -68 -42 -62 -30 -77 41
-52 27 10 55 16 62 13 7 -2 0 -8 -17 -12 -32 -8 -64 -28 -189 -118 -43 -32
-90 -60 -104 -64 -29 -7 -112 -63 -112 -75 0 -12 -88 -10 -111 3 -11 5 -29 7
-40 4 -18 -6 -20 -13 -15 -45 5 -32 3 -38 -12 -36 -29 2 -26 -40 6 -86 108
-158 107 -157 93 -191 -22 -54 -30 -108 -31 -205 0 -51 -7 -124 -15 -161 -16
-67 -16 -69 7 -104 13 -20 32 -39 44 -43 12 -3 32 -28 49 -61 32 -64 90 -133
111 -133 8 0 17 7 20 15 5 12 9 11 24 -7 15 -19 20 -20 34 -9 13 11 16 11 16
-1 0 -7 -24 -38 -54 -67 -48 -47 -63 -56 -116 -67 -34 -7 -69 -10 -76 -7 -18
7 -91 -43 -99 -68 -4 -11 -4 -28 0 -39 5 -15 -3 -23 -37 -41 -70 -35 -107 -68
-116 -102 -5 -21 -26 -46 -63 -76 -30 -24 -74 -60 -99 -81 -44 -38 -44 -39
-73 -22 -16 9 -60 47 -97 85 -37 37 -75 67 -83 67 -9 0 -25 10 -36 21 -14 15
-27 20 -42 16 -12 -3 -31 -1 -42 4 -15 9 -30 5 -67 -15 -36 -20 -62 -26 -106
-26 -33 0 -99 -7 -149 -16 -103 -19 -117 -30 -177 -138 -56 -101 -62 -124 -49
-173 11 -41 13 -42 44 -36 18 3 35 11 39 17 5 8 13 7 27 -1 25 -15 36 -1 21
26 -32 62 16 83 167 75 93 -6 113 -10 140 -31 18 -13 64 -32 103 -42 39 -11
113 -43 169 -75 142 -80 174 -76 353 40 37 24 69 44 71 44 2 0 7 -44 10 -97 3
-57 17 -140 32 -198 39 -144 40 -155 21 -155 -9 0 -26 -16 -37 -35 -16 -26
-26 -34 -42 -31 -95 20 -95 20 -99 -21 -4 -46 -12 -49 -197 -58 -118 -6 -152
-5 -217 11 -62 14 -84 15 -118 6 -42 -11 -96 1 -406 88 -36 10 -155 44 -265
74 -110 31 -205 63 -211 71 -6 9 -14 33 -18 55 -5 31 -14 45 -38 60 -49 30
-99 33 -273 16 -88 -9 -168 -16 -177 -16 -17 0 -18 -24 -18 -365 l0 -365 1516
0 1516 0 -27 37 c-16 21 -43 56 -60 78 -18 22 -35 58 -39 80 -7 38 -5 41 24
52 16 6 30 18 30 27 0 19 11 20 29 3 11 -10 13 -8 8 11 -3 14 7 47 28 90 43
86 55 156 63 363 7 161 8 167 35 202 61 80 71 144 37 241 l-20 58 22 49 c12
29 32 56 49 66 42 25 37 64 -14 97 -23 14 -48 26 -57 26 -25 0 -225 116 -228
132 -2 9 6 18 17 21 14 3 18 1 14 -9 -8 -22 7 -16 47 18 21 18 50 41 64 51 41
28 123 144 147 206 37 99 21 284 -36 410 l-25 53 80 115 c44 63 80 116 80 118
0 3 -7 2 -15 -1 -12 -5 -14 0 -9 27 6 28 4 32 -7 22 -18 -17 -56 -16 -66 1 -4
8 -24 16 -43 18 -26 2 -40 11 -58 38 -13 19 -32 40 -42 45 -10 6 -62 57 -115
115 -134 147 -150 186 -56 135 53 -29 101 -71 141 -121 14 -18 34 -35 46 -38
18 -6 25 3 53 64 17 39 31 74 31 79 0 20 -95 91 -143 107 -29 9 -61 27 -73 39
-12 13 -40 26 -63 30 -46 8 -61 29 -61 85 0 37 -14 46 -37 23z"/>
<path d="M4771 40 l-22 -40 25 0 c24 0 26 4 26 40 0 22 -1 40 -3 40 -2 0 -13
-18 -26 -40z"/>
</g>
</svg>
