<?xml version="1.0" standalone="no"?>
<!DOCTYPE svg PUBLIC "-//W3C//DTD SVG 20010904//EN"
 "http://www.w3.org/TR/2001/REC-SVG-20010904/DTD/svg10.dtd">
<svg version="1.0" xmlns="http://www.w3.org/2000/svg"
 width="480.000000pt" height="360.000000pt" viewBox="0 0 480.000000 360.000000"
 preserveAspectRatio="xMidYMid meet">
<metadata>
Created by potrace 1.16, written by Peter Selinger 2001-2019
</metadata>
<rect width="1" height="360" fill="#000000"/>
<rect x="479" width="1" height="360" fill="#000000"/>
<rect width="480" height="1" fill="#000000"/>
<rect y="359" width="480" height="1" fill="#000000"/>
<g transform="translate(0.000000,360.000000) scale(0.100000,-0.100000)"
fill="#000000" stroke="none">
<path d="M2295 3573 c7 -16 16 -61 20 -101 4 -39 11 -75 17 -78 14 -9 -11 -34
-35 -34 -35 0 -88 -23 -83 -37 5 -13 -132 -12 -279 2 -90 8 -108 -3 -95 -59 7
-31 5 -46 -10 -73 -19 -36 -18 -42 14 -133 19 -52 43 -81 61 -74 33 13 74
-204 75 -396 1 -47 7 -103 15 -125 8 -21 13 -40 12 -41 -1 -2 -29 7 -62 18
-78 26 -181 22 -222 -8 -84 -62 -95 -145 -38 -284 20 -47 45 -119 56 -160 26
-93 51 -137 95 -171 l34 -26 -42 -19 c-30 -13 -46 -29 -59 -59 -24 -52 -24
-82 2 -150 38 -103 117 -155 178 -119 29 17 30 17 65 -10 l36 -27 0 30 c0 29
15 49 27 37 3 -3 10 -50 14 -103 21 -248 32 -307 62 -338 11 -10 16 -10 31 1
10 7 15 17 11 23 -3 6 -1 11 6 11 8 0 7 6 -4 18 -21 23 -22 161 -1 177 10 8
11 25 4 80 -38 283 -34 444 9 368 5 -10 13 -14 17 -10 14 14 7 74 -12 107 -18
29 -18 32 -2 44 10 8 14 21 11 38 -3 17 4 42 23 74 27 47 29 55 30 186 2 115
5 142 20 166 11 16 44 67 75 113 31 46 80 129 109 184 64 121 95 165 118 165
38 0 132 105 132 149 0 14 14 46 30 70 33 48 34 56 20 150 -9 64 -48 137 -80
149 -8 3 -26 14 -39 24 -13 10 -34 18 -47 18 -26 0 -30 10 -13 27 12 12 38
154 39 206 l0 27 -75 0 c-71 0 -75 -1 -81 -25 -7 -28 -24 -24 -24 6 0 17 -8
19 -89 19 l-89 0 13 -27z"/>
</g>
</svg>
