<?xml version="1.0" standalone="no"?>
<!DOCTYPE svg PUBLIC "-//W3C//DTD SVG 20010904//EN"
 "http://www.w3.org/TR/2001/REC-SVG-20010904/DTD/svg10.dtd">
<svg version="1.0" xmlns="http://www.w3.org/2000/svg"
 width="480.000000pt" height="360.000000pt" viewBox="0 0 480.000000 360.000000"
 preserveAspectRatio="xMidYMid meet">
<metadata>
Created by potrace 1.16, written by Peter Selinger 2001-2019
</metadata>
<rect width="1" height="360" fill="#000000"/>
<rect x="479" width="1" height="360" fill="#000000"/>
<rect width="480" height="1" fill="#000000"/>
<rect y="359" width="480" height="1" fill="#000000"/>
<g transform="translate(0.000000,360.000000) scale(0.100000,-0.100000)"
fill="#000000" stroke="none">
<path d="M437 1822 l-438 -2 3 -83 3 -82 1830 -3 c1797 -3 2657 6 2679 28 7 7
-2 10 -29 10 -22 0 -46 4 -53 9 -15 9 136 21 276 21 l92 0 0 29 0 29 -202 6
c-112 3 -606 8 -1098 11 -492 3 -1131 10 -1420 15 -656 13 -1084 16 -1643 12z"/>
</g>
</svg>
