<?xml version="1.0" standalone="no"?>
<!DOCTYPE svg PUBLIC "-//W3C//DTD SVG 20010904//EN"
 "http://www.w3.org/TR/2001/REC-SVG-20010904/DTD/svg10.dtd">
<svg version="1.0" xmlns="http://www.w3.org/2000/svg"
 width="480.000000pt" height="360.000000pt" viewBox="0 0 480.000000 360.000000"
 preserveAspectRatio="xMidYMid meet">
<metadata>
Created by potrace 1.16, written by Peter Selinger 2001-2019
</metadata>
<rect width="1" height="360" fill="#000000"/>
<rect x="479" width="1" height="360" fill="#000000"/>
<rect width="480" height="1" fill="#000000"/>
<rect y="359" width="480" height="1" fill="#000000"/>
<g transform="translate(0.000000,360.000000) scale(0.100000,-0.100000)"
fill="#000000" stroke="none">
<path d="M4476 1068 c-14 -40 -59 -171 -100 -291 -41 -119 -77 -221 -80 -226
-3 -5 -23 -3 -43 4 -31 11 -37 18 -35 37 15 105 14 112 -13 152 -24 35 -26 45
-20 98 6 48 4 58 -8 58 -9 0 -19 -4 -22 -10 -10 -17 -41 -11 -129 22 -81 32
-85 35 -104 80 -12 29 -27 48 -36 48 -15 0 -15 -3 -2 -27 18 -35 15 -77 -8
-128 -10 -22 -24 -58 -31 -80 -7 -25 -18 -40 -28 -40 -14 0 -46 -31 -47 -45 0
-3 16 -14 35 -24 37 -20 40 -25 50 -101 4 -27 20 -75 35 -106 30 -58 30 -81 1
-55 -11 10 -21 12 -31 6 -11 -7 -14 -27 -12 -82 4 -122 11 -138 70 -172 57
-33 82 -77 82 -146 l0 -40 170 0 170 0 -1 93 c0 50 -6 108 -13 127 -11 29 -11
40 0 60 7 14 15 33 18 43 3 9 17 22 31 27 14 5 28 16 31 25 11 28 209 75 314
75 31 0 61 5 68 12 12 12 18 149 7 160 -8 8 -55 -3 -50 -12 3 -4 -10 -10 -28
-14 -17 -3 -106 -21 -196 -39 -135 -28 -201 -36 -201 -23 0 4 178 521 189 549
13 34 14 57 2 57 -5 0 -21 -33 -35 -72z"/>
<path d="M2414 1082 c5 -15 3 -22 -6 -22 -7 0 -4 -6 7 -12 11 -6 22 -12 23
-14 10 -7 -104 -133 -124 -138 l-25 -7 28 -35 c18 -24 28 -50 29 -78 2 -41 7
-80 23 -168 9 -55 7 -58 -29 -58 -55 0 -59 -33 -16 -124 19 -38 40 -65 61 -77
34 -20 55 -73 55 -138 0 -16 5 -33 10 -36 15 -10 12 -51 -6 -66 -17 -14 -37
-51 -48 -86 l-7 -23 180 0 181 0 -20 54 c-17 45 -18 57 -7 78 19 37 5 232 -18
258 -17 19 -16 19 21 13 22 -3 63 -16 93 -29 79 -35 106 -31 124 18 3 10 -6
33 -24 57 -35 49 -35 49 -6 44 50 -10 109 78 94 139 -20 78 -84 100 -134 48
-24 -27 -33 -30 -63 -25 -18 4 -39 14 -46 23 -9 12 -27 17 -58 17 -43 0 -46 2
-46 28 0 15 4 27 9 27 10 0 -2 65 -19 102 -11 23 -10 31 4 53 24 36 6 69 -33
62 -21 -5 -41 3 -85 35 -52 37 -55 41 -39 54 17 13 17 13 -1 14 -11 0 -16 5
-13 13 5 14 -26 17 -39 4 -4 -4 -14 -1 -22 6 -13 10 -14 8 -8 -11z m286 -499
c0 -13 -3 -13 -15 -3 -8 7 -15 16 -15 21 0 5 7 6 15 3 8 -4 15 -13 15 -21z"/>
<path d="M1044 965 c-4 -8 -15 -15 -26 -15 -11 0 -16 -5 -13 -11 15 -23 -18
-70 -64 -94 -25 -13 -63 -35 -85 -50 -36 -25 -39 -25 -57 -9 -15 13 -22 14
-33 5 -12 -10 -12 -16 0 -39 19 -37 18 -66 -6 -104 -11 -18 -20 -41 -20 -50 0
-22 35 -80 43 -72 3 3 5 -19 5 -50 -1 -66 21 -107 52 -99 11 3 20 1 20 -5 0
-6 -20 -15 -44 -20 -40 -8 -115 -56 -143 -92 -12 -16 -57 -18 -197 -6 -49 4
-84 2 -91 -4 -7 -6 -49 -13 -94 -17 -67 -5 -85 -10 -96 -27 -20 -27 -20 -60
-1 -53 8 3 17 1 19 -6 3 -9 10 -9 27 1 14 9 36 11 61 7 41 -7 45 -14 29 -45
-16 -30 5 -33 39 -4 30 25 37 26 174 29 78 1 159 6 179 10 46 9 59 -11 34 -49
-14 -23 -21 -24 -78 -22 -35 2 -75 9 -90 14 -18 7 -29 8 -33 1 -4 -5 -11 -7
-16 -3 -13 7 -38 -25 -39 -48 0 -20 15 -24 25 -8 11 17 25 11 25 -12 0 -20 1
-21 20 -3 18 16 20 16 20 2 0 -15 25 -17 265 -17 l264 0 -6 78 c-4 51 -1 92 7
116 9 28 9 40 0 51 -12 15 -51 88 -47 89 24 7 46 32 61 70 18 42 19 54 9 124
l-12 77 29 30 29 30 -29 14 c-17 7 -30 18 -30 24 0 6 -9 30 -21 54 -20 41 -20
43 -3 72 17 29 17 30 -9 68 -15 22 -27 49 -27 61 0 25 -18 30 -26 7z"/>
</g>
</svg>
