<?xml version="1.0" standalone="no"?>
<!DOCTYPE svg PUBLIC "-//W3C//DTD SVG 20010904//EN"
 "http://www.w3.org/TR/2001/REC-SVG-20010904/DTD/svg10.dtd">
<svg version="1.0" xmlns="http://www.w3.org/2000/svg"
 width="480.000000pt" height="360.000000pt" viewBox="0 0 480.000000 360.000000"
 preserveAspectRatio="xMidYMid meet">
<metadata>
Created by potrace 1.16, written by Peter Selinger 2001-2019
</metadata>
<rect width="1" height="360" fill="#000000"/>
<rect x="479" width="1" height="360" fill="#000000"/>
<rect width="480" height="1" fill="#000000"/>
<rect y="359" width="480" height="1" fill="#000000"/>
<g transform="translate(0.000000,360.000000) scale(0.100000,-0.100000)"
fill="#000000" stroke="none">
<path d="M1130 2863 c0 -27 78 -75 200 -122 329 -129 517 -257 691 -474 104
-128 125 -163 134 -217 16 -108 37 -159 90 -222 36 -44 68 -71 104 -88 43 -21
61 -39 117 -118 159 -226 384 -472 526 -576 56 -41 71 -58 89 -103 25 -63 156
-208 205 -229 27 -11 30 -17 26 -43 -3 -25 2 -37 28 -61 30 -28 32 -34 27 -75
-8 -52 6 -96 44 -149 20 -28 26 -43 19 -51 -11 -14 -3 -45 11 -45 5 0 9 -12 9
-27 0 -16 16 -55 36 -87 20 -33 42 -77 51 -98 8 -20 24 -40 34 -43 11 -4 17
-10 14 -15 -10 -16 44 -20 270 -20 l230 0 39 32 38 31 -7 -31 -7 -32 326 0
326 0 0 635 0 634 -43 12 c-84 22 -261 49 -400 60 -98 7 -157 17 -191 31 -54
22 -79 19 -131 -16 -19 -13 -45 -23 -58 -21 -23 3 -328 112 -459 164 -80 31
-253 112 -276 128 -7 5 -17 38 -23 73 -13 79 -29 112 -92 178 -85 88 -193 123
-308 99 l-36 -7 -143 152 c-79 84 -182 191 -230 238 -109 107 -109 107 -126
180 -22 93 -47 141 -107 197 -85 80 -160 90 -288 38 -32 -13 -62 -19 -70 -15
-84 46 -689 136 -689 103z m1900 -1095 c0 -6 -6 -5 -15 2 -8 7 -15 14 -15 16
0 2 7 1 15 -2 8 -4 15 -11 15 -16z"/>
</g>
</svg>
