<?xml version="1.0" standalone="no"?>
<!DOCTYPE svg PUBLIC "-//W3C//DTD SVG 20010904//EN"
 "http://www.w3.org/TR/2001/REC-SVG-20010904/DTD/svg10.dtd">
<svg version="1.0" xmlns="http://www.w3.org/2000/svg"
 width="480.000000pt" height="360.000000pt" viewBox="0 0 480.000000 360.000000"
 preserveAspectRatio="xMidYMid meet">
<metadata>
Created by potrace 1.16, written by Peter Selinger 2001-2019
</metadata>
<rect width="1" height="360" fill="#000000"/>
<rect x="479" width="1" height="360" fill="#000000"/>
<rect width="480" height="1" fill="#000000"/>
<rect y="359" width="480" height="1" fill="#000000"/>
<g transform="translate(0.000000,360.000000) scale(0.100000,-0.100000)"
fill="#000000" stroke="none">
<path d="M2515 3357 c-107 -118 -105 -113 -72 -208 l29 -80 -66 -69 c-75 -80
-97 -119 -126 -221 -26 -95 -26 -197 0 -279 11 -34 20 -72 20 -83 0 -25 16
-12 22 18 3 13 11 -1 23 -40 11 -33 27 -69 37 -79 18 -20 18 -20 18 0 0 18 1
18 18 -3 9 -12 28 -21 42 -21 36 1 104 -34 108 -54 2 -10 -7 -32 -19 -49 -22
-31 -22 -32 -4 -45 10 -8 34 -17 52 -20 23 -4 38 -15 49 -35 8 -16 18 -29 23
-29 16 0 47 -35 61 -69 12 -31 15 -32 26 -16 12 17 15 15 32 -23 17 -38 19
-39 31 -20 7 11 15 17 18 14 4 -3 15 2 25 11 18 16 19 16 25 -5 7 -29 23 -28
23 1 0 32 10 40 26 19 11 -14 14 -14 15 -2 0 8 5 0 9 -18 7 -32 4 -36 -84
-122 -67 -66 -98 -90 -117 -90 -18 0 -38 -12 -60 -37 -18 -21 -38 -36 -43 -35
-6 2 -109 -4 -229 -14 l-217 -17 -23 21 c-46 43 -153 66 -176 38 -7 -8 -24
-17 -39 -21 -32 -8 -62 -33 -62 -51 0 -8 -12 -17 -27 -20 -16 -4 -32 -10 -38
-14 -5 -4 -20 -10 -33 -13 -27 -6 -33 3 -142 201 -40 72 -78 132 -86 132 -7 0
-25 5 -41 12 -59 24 -89 18 -134 -28 l-42 -43 102 -181 c80 -141 101 -185 95
-203 -10 -29 -6 -62 16 -117 10 -26 15 -59 13 -77 -5 -34 36 -178 63 -220 8
-13 35 -28 64 -37 27 -8 69 -28 92 -44 24 -16 86 -51 138 -77 128 -64 149 -80
171 -133 25 -58 101 -132 336 -327 22 -18 23 -24 15 -62 -6 -24 -24 -59 -40
-78 -41 -46 -50 -97 -27 -155 10 -25 20 -66 22 -92 l5 -48 634 0 634 0 0 33
c0 52 -102 187 -142 187 -20 0 -21 5 -42 135 -26 154 -44 376 -39 460 5 72 3
83 -17 108 -18 23 -29 28 -49 24 -25 -5 -26 -4 -23 34 2 21 5 39 7 39 1 0 24
-10 51 -21 39 -18 60 -21 117 -16 78 7 85 10 67 32 -11 13 -4 15 54 15 36 0
66 3 66 6 0 3 -5 14 -10 25 -10 17 -7 19 27 19 67 0 114 11 104 24 -18 22 29
124 50 110 5 -3 9 -27 9 -55 0 -50 7 -58 28 -37 19 19 24 -14 8 -53 -16 -38
-42 -197 -33 -205 3 -3 19 14 36 38 39 55 67 88 76 88 3 0 3 -5 0 -11 -15 -23
-34 -131 -40 -220 -6 -94 -6 -94 12 -64 l18 30 5 -120 5 -120 38 53 c43 58 50
63 42 30 -3 -13 -11 -60 -19 -106 -15 -99 -10 -102 63 -36 28 25 51 43 51 41
0 -3 -9 -43 -20 -89 -25 -104 -25 -106 3 -80 32 30 37 28 26 -10 -18 -63 -6
-78 23 -31 13 21 18 23 18 11 0 -34 16 -17 28 29 12 46 71 159 72 137 0 -6 -7
-31 -16 -55 -16 -47 -66 -321 -59 -328 3 -2 11 2 20 9 13 11 13 9 0 -24 l-15
-36 198 0 198 0 13 122 c13 128 24 168 36 135 4 -9 0 -53 -9 -97 -9 -44 -16
-98 -16 -120 0 -40 0 -40 40 -40 l40 0 0 839 0 839 -22 5 c-30 8 -238 132
-313 187 -150 109 -288 253 -388 401 -28 43 -55 78 -58 79 -3 0 -11 -19 -18
-41 -7 -23 -25 -53 -39 -68 -15 -14 -46 -55 -70 -91 -76 -116 -262 -323 -340
-380 l-73 -52 -27 28 c-25 27 -27 35 -30 138 -3 92 -1 111 12 118 9 5 16 19
16 31 1 21 1 21 15 3 8 -11 18 -34 21 -53 3 -18 10 -33 14 -33 5 0 6 10 2 22
-5 19 -2 21 27 15 l32 -7 -3 110 c-2 61 0 110 3 110 16 0 53 -54 59 -87 l7
-38 11 28 c7 15 15 70 18 122 6 87 9 95 25 90 25 -8 24 4 -3 32 -16 17 -19 26
-11 31 9 5 2 25 -22 67 -75 130 -105 196 -125 276 -33 129 -71 216 -120 278
-85 105 -318 261 -390 261 -11 0 -41 5 -68 11 -48 10 -51 12 -75 69 -25 57
-27 58 -79 70 -29 7 -87 15 -129 17 l-76 5 -68 -75z m51 -1048 c11 -23 12 -30
3 -27 -11 4 -33 58 -23 58 2 0 11 -14 20 -31z m789 -379 c16 -31 20 -80 7 -80
-13 0 -46 64 -35 67 6 2 9 13 6 23 -8 30 4 24 22 -10z m-734 -366 c-44 -50
-57 -94 -46 -152 11 -57 10 -61 -30 -150 -20 -46 -42 -112 -48 -148 -6 -35
-14 -64 -17 -64 -4 0 -17 19 -29 43 -13 23 -44 72 -68 109 -35 52 -49 87 -63
152 -11 47 -30 114 -44 148 -14 34 -23 64 -21 67 3 2 80 17 172 32 93 16 182
32 198 37 46 13 45 -19 -4 -74z m-767 -59 c3 -13 16 -40 27 -60 17 -29 27 -35
54 -35 18 0 35 -6 38 -13 3 -7 28 -43 57 -81 48 -63 86 -133 77 -142 -4 -5
-201 193 -220 221 -8 11 -28 46 -46 78 -30 52 -31 57 -13 57 13 0 22 -9 26
-25z m1991 -365 c3 -5 -1 -10 -10 -10 -9 0 -13 5 -10 10 3 6 8 10 10 10 2 0 7
-4 10 -10z m-455 -339 c11 -43 40 -293 40 -353 0 -21 -4 -38 -9 -38 -4 0 -23
38 -41 85 -31 81 -33 90 -27 178 7 93 17 167 23 167 2 0 8 -18 14 -39z"/>
</g>
</svg>
