<?xml version="1.0" standalone="no"?>
<!DOCTYPE svg PUBLIC "-//W3C//DTD SVG 20010904//EN"
 "http://www.w3.org/TR/2001/REC-SVG-20010904/DTD/svg10.dtd">
<svg version="1.0" xmlns="http://www.w3.org/2000/svg"
 width="480.000000pt" height="360.000000pt" viewBox="0 0 480.000000 360.000000"
 preserveAspectRatio="xMidYMid meet">
<metadata>
Created by potrace 1.16, written by Peter Selinger 2001-2019
</metadata>
<rect width="1" height="360" fill="#000000"/>
<rect x="479" width="1" height="360" fill="#000000"/>
<rect width="480" height="1" fill="#000000"/>
<rect y="359" width="480" height="1" fill="#000000"/>
<g transform="translate(0.000000,360.000000) scale(0.100000,-0.100000)"
fill="#000000" stroke="none">
<path d="M0 1800 l0 -1800 769 0 768 0 -8 48 c-14 77 -27 97 -84 131 -71 43
-80 54 -65 81 8 15 8 25 1 34 -8 9 -4 19 14 36 21 19 23 29 18 69 l-5 47 83
77 c111 100 189 162 301 239 116 78 214 176 298 297 36 51 103 141 149 199
115 146 124 162 106 182 -20 22 -45 85 -45 114 0 34 -10 38 -68 24 -44 -10
-54 -9 -77 6 -30 20 -26 32 14 41 16 3 50 20 76 36 l48 30 -7 141 c-4 89 -14
171 -27 221 -21 84 -17 120 18 148 8 7 19 21 25 32 9 17 8 19 -7 13 -16 -6
-16 -4 -4 10 13 16 12 16 -8 5 -15 -7 -23 -8 -23 -1 0 5 -7 10 -15 10 -8 0
-15 5 -15 10 0 6 -8 10 -19 10 -25 0 -45 25 -38 50 4 16 0 20 -19 20 -35 0
-30 22 19 69 l42 42 -30 -7 c-16 -4 -38 -14 -47 -22 -12 -10 -18 -11 -18 -3 0
13 25 38 88 88 42 34 73 80 116 170 31 64 104 135 174 170 44 21 62 25 106 20
119 -12 263 -122 290 -221 30 -107 29 -110 -17 -156 -23 -23 -43 -37 -45 -31
-2 7 -16 3 -35 -11 -25 -18 -29 -19 -24 -5 3 9 3 17 -1 17 -12 0 -34 -68 -27
-80 4 -6 -5 -22 -19 -35 -14 -13 -26 -31 -26 -40 0 -9 -5 -13 -11 -10 -6 4
-21 -3 -34 -15 -22 -21 -24 -21 -49 -5 -14 10 -26 13 -26 7 0 -11 49 -54 109
-95 47 -31 78 -77 87 -127 3 -19 17 -52 31 -73 13 -22 31 -57 39 -80 16 -46 9
-82 -32 -152 -22 -39 -22 -41 -7 -115 17 -82 32 -115 92 -205 23 -33 41 -70
41 -82 0 -14 9 -24 29 -31 25 -9 29 -8 24 4 -6 16 16 11 55 -14 31 -20 28 -3
-5 26 -21 18 -23 22 -8 17 11 -4 27 -8 36 -9 9 -1 53 -30 98 -64 114 -86 145
-100 249 -112 178 -20 338 -78 672 -245 124 -62 272 -134 330 -159 193 -87
222 -100 212 -104 -10 -3 -39 4 -247 56 -66 17 -205 47 -310 67 -336 64 -566
135 -690 213 -108 69 -130 75 -272 80 -73 3 -133 9 -133 14 0 5 10 6 21 3 14
-5 19 -3 15 3 -3 6 -25 13 -47 17 -27 5 -37 10 -29 15 7 5 19 6 27 3 7 -3 13
-3 13 -1 0 9 -170 71 -176 65 -3 -3 1 -48 10 -99 8 -51 24 -167 36 -258 26
-214 64 -440 101 -614 20 -88 29 -159 27 -193 l-3 -53 913 0 912 0 0 1800 0
1800 -2400 0 -2400 0 0 -1800z m3460 1758 c0 -34 -22 -87 -45 -108 -32 -30
-39 -22 -26 28 16 59 71 121 71 80z m-3232 -115 c5 -18 -10 -16 -34 2 -18 15
-18 15 5 13 14 -2 26 -9 29 -15z m2583 -201 c-13 -25 -41 -48 -41 -34 0 10 38
52 47 52 2 0 -1 -8 -6 -18z m-1661 -272 c17 -24 21 -39 16 -65 -4 -19 -13 -35
-20 -35 -14 0 -56 53 -56 72 0 13 27 58 35 58 2 0 13 -14 25 -30z m2036 -77
c44 -37 56 -63 30 -63 -20 0 -86 64 -86 84 0 23 6 21 56 -21z m-796 -4 c15
-28 4 -38 -15 -13 -17 22 -19 34 -5 34 5 0 14 -9 20 -21z m860 -172 c0 -35
-75 -77 -136 -77 -43 0 -43 13 0 56 30 30 40 34 85 34 36 0 51 -4 51 -13z
m240 -57 c24 -8 24 -8 -7 -9 -17 -1 -35 4 -38 9 -7 11 9 11 45 0z m928 -52
c-5 -15 -42 -22 -64 -14 -25 10 -5 26 32 26 24 0 34 -4 32 -12z m-4102 -273
c6 -24 -9 -55 -27 -55 -14 0 -20 39 -9 60 15 27 28 25 36 -5z m-126 -116 c-12
-39 -17 -46 -31 -32 -13 13 6 63 25 63 12 0 13 -6 6 -31z m-126 -545 c9 -3 16
-17 16 -30 0 -20 -5 -24 -30 -24 -32 0 -47 18 -36 45 6 16 24 19 50 9z m1383
-171 c-9 -9 -20 -14 -24 -10 -3 4 2 14 13 21 25 19 33 10 11 -11z m-107 -103
c0 -5 -9 -10 -21 -10 -11 0 -17 5 -14 10 3 6 13 10 21 10 8 0 14 -4 14 -10z
m100 -435 c0 -20 -20 -27 -62 -23 l-33 4 35 17 c44 21 60 21 60 2z m2669 -375
c37 -18 59 -56 43 -72 -12 -11 -87 46 -90 70 -4 27 -1 27 47 2z m36 -261 c48
-12 51 -29 6 -29 -43 0 -96 21 -79 31 17 11 21 11 73 -2z m-115 -315 c0 -11
-63 33 -72 50 -8 14 2 10 31 -13 22 -18 41 -35 41 -37z"/>
</g>
</svg>
