<?xml version="1.0" standalone="no"?>
<!DOCTYPE svg PUBLIC "-//W3C//DTD SVG 20010904//EN"
 "http://www.w3.org/TR/2001/REC-SVG-20010904/DTD/svg10.dtd">
<svg version="1.0" xmlns="http://www.w3.org/2000/svg"
 width="480.000000pt" height="360.000000pt" viewBox="0 0 480.000000 360.000000"
 preserveAspectRatio="xMidYMid meet">
<metadata>
Created by potrace 1.16, written by Peter Selinger 2001-2019
</metadata>
<rect width="1" height="360" fill="#000000"/>
<rect x="479" width="1" height="360" fill="#000000"/>
<rect width="480" height="1" fill="#000000"/>
<rect y="359" width="480" height="1" fill="#000000"/>
<g transform="translate(0.000000,360.000000) scale(0.100000,-0.100000)"
fill="#000000" stroke="none">
<path d="M1905 2830 c-4 -6 -2 -57 4 -113 20 -200 24 -306 12 -321 -6 -8 -12
-39 -12 -70 -1 -40 -6 -59 -17 -65 -14 -8 -12 -18 16 -81 27 -61 32 -85 32
-151 0 -43 -4 -81 -10 -84 -14 -9 -12 -67 4 -106 19 -48 29 -334 12 -348 -9
-7 -15 -54 -19 -140 -4 -106 -11 -146 -36 -225 -17 -53 -31 -104 -31 -114 0
-10 -20 -58 -45 -107 -24 -50 -45 -97 -45 -105 0 -22 129 -160 150 -160 9 0
25 -9 34 -19 15 -16 23 -18 44 -10 14 5 31 8 39 5 7 -3 13 -1 13 4 0 6 7 10
15 10 8 0 20 10 26 22 16 31 42 55 55 51 7 -2 11 12 11 38 0 23 6 45 13 49 10
6 11 17 1 51 -27 94 -29 87 26 82 60 -7 73 -17 73 -58 0 -50 13 -55 168 -71
46 -5 57 -3 86 20 50 38 76 99 76 179 0 37 -5 76 -12 86 -9 15 -9 31 1 73 14
59 6 107 -30 183 -24 49 -36 121 -53 300 -7 88 -18 153 -29 174 -19 37 -13 59
9 40 12 -10 16 -8 21 9 6 24 29 30 36 10 8 -24 20 124 13 177 -13 116 -63 291
-95 338 -78 114 -193 115 -278 3 -26 -33 -33 -53 -33 -87 0 -40 -3 -46 -34
-63 -19 -10 -39 -16 -44 -12 -5 3 -12 29 -14 57 -4 37 -11 57 -26 68 -40 30
-53 94 -59 286 -3 99 -10 186 -16 193 -12 15 -43 16 -52 2z m258 -721 l27 0
-22 -30 c-20 -27 -21 -33 -9 -62 18 -43 25 -97 13 -97 -5 0 -29 7 -52 15 -29
10 -47 12 -55 5 -8 -7 -22 -7 -42 1 -28 9 -31 15 -37 65 -7 63 -5 68 38 95 24
15 40 19 71 14 22 -4 52 -7 68 -6z m-129 -341 c-10 -103 -8 -149 7 -159 8 -5
39 -8 69 -7 l55 3 -4 -75 c-2 -41 -12 -101 -23 -133 l-20 -57 31 -67 c17 -36
29 -68 26 -71 -3 -3 -22 0 -43 6 -32 10 -39 9 -49 -5 -7 -9 -13 -26 -13 -37
-1 -51 -28 46 -35 125 -4 46 -14 116 -22 154 -8 39 -17 140 -20 226 -6 168 -8
161 41 168 4 0 5 -32 0 -71z m92 -702 c-3 -16 -6 -37 -6 -47 0 -11 -4 -19 -10
-19 -9 0 -23 41 -36 109 l-7 34 32 -24 c27 -20 32 -29 27 -53z m70 -31 c7 -18
-12 -45 -32 -45 -17 0 -18 32 -2 48 16 16 27 15 34 -3z"/>
<path d="M4777 666 c-9 -13 -38 -73 -66 -134 -57 -128 -109 -325 -118 -449
l-6 -83 107 0 106 0 0 345 c0 190 -2 345 -4 345 -2 0 -11 -11 -19 -24z"/>
<path d="M0 379 c0 -140 0 -141 19 -118 72 92 94 155 71 199 -9 17 -69 60 -84
60 -3 0 -6 -64 -6 -141z"/>
</g>
</svg>
