<?xml version="1.0" standalone="no"?>
<!DOCTYPE svg PUBLIC "-//W3C//DTD SVG 20010904//EN"
 "http://www.w3.org/TR/2001/REC-SVG-20010904/DTD/svg10.dtd">
<svg version="1.0" xmlns="http://www.w3.org/2000/svg"
 width="480.000000pt" height="360.000000pt" viewBox="0 0 480.000000 360.000000"
 preserveAspectRatio="xMidYMid meet">
<metadata>
Created by potrace 1.16, written by Peter Selinger 2001-2019
</metadata>
<rect width="1" height="360" fill="#000000"/>
<rect x="479" width="1" height="360" fill="#000000"/>
<rect width="480" height="1" fill="#000000"/>
<rect y="359" width="480" height="1" fill="#000000"/>
<g transform="translate(0.000000,360.000000) scale(0.100000,-0.100000)"
fill="#000000" stroke="none">
<path d="M0 1800 l0 -1800 1425 0 1426 0 -5 32 c-3 18 -8 101 -11 183 -10 262
-33 484 -60 580 -15 53 -56 101 -111 128 -17 9 -88 30 -157 46 -70 17 -144 39
-164 50 -52 27 -154 137 -226 246 -25 37 -27 47 -27 148 0 74 4 117 14 135 18
33 72 86 108 105 15 7 45 30 67 50 l40 36 -14 35 c-8 20 -15 40 -15 46 0 20
21 9 38 -20 9 -16 21 -30 26 -30 5 0 26 16 48 36 63 57 114 74 208 69 64 -3
80 -1 80 11 0 8 -9 21 -19 30 -61 51 -92 85 -89 96 3 7 31 28 63 48 32 20 60
41 63 48 2 6 -11 32 -28 58 -23 32 -35 43 -43 35 -7 -7 -7 -18 1 -36 10 -21 9
-25 -4 -25 -9 0 -24 10 -35 23 -16 19 -18 19 -19 5 0 -24 -12 -23 -29 3 -10
18 -15 19 -22 8 -7 -11 -11 -10 -23 6 -29 39 -65 122 -81 187 -15 58 -22 70
-60 97 -24 17 -48 31 -54 31 -17 0 -172 140 -181 164 -10 27 -165 166 -185
166 -19 0 -275 249 -275 267 0 8 -11 29 -25 47 -28 37 -31 52 -13 58 23 8 -46
66 -86 73 -29 6 -46 18 -77 60 -25 33 -37 58 -33 69 3 9 1 16 -5 16 -14 0 -38
38 -47 74 -6 23 -4 27 7 21 12 -8 12 -6 1 8 -8 9 -30 21 -50 28 -44 14 -64 29
-38 29 9 0 14 5 11 10 -4 7 -235 10 -661 10 l-654 0 0 -1800z"/>
<path d="M2440 3568 c1 -18 9 -55 18 -81 l17 -49 120 0 c97 0 139 5 220 27 55
14 141 31 192 37 86 11 94 14 140 55 l48 42 -377 1 -378 0 0 -32z"/>
<path d="M4727 2988 c-10 -8 -24 -51 -37 -108 -29 -134 -28 -135 24 -149 91
-23 86 -29 86 129 l0 140 -28 0 c-16 0 -36 -6 -45 -12z"/>
<path d="M3151 1524 c-31 -37 -32 -38 -27 -11 7 32 3 33 -32 8 -15 -10 -46
-28 -69 -40 l-43 -21 0 -63 c0 -69 -20 -114 -65 -143 l-26 -17 40 -33 c21 -19
51 -55 66 -81 27 -44 94 -231 109 -300 4 -18 11 -33 15 -33 5 0 20 26 35 59
28 63 34 135 15 189 -12 36 -6 51 51 117 61 71 63 75 33 130 -14 27 -38 66
-54 87 -29 41 -29 62 2 79 23 12 23 22 0 73 l-17 39 -33 -39z"/>
</g>
</svg>
