<?xml version="1.0" standalone="no"?>
<!DOCTYPE svg PUBLIC "-//W3C//DTD SVG 20010904//EN"
 "http://www.w3.org/TR/2001/REC-SVG-20010904/DTD/svg10.dtd">
<svg version="1.0" xmlns="http://www.w3.org/2000/svg"
 width="480.000000pt" height="360.000000pt" viewBox="0 0 480.000000 360.000000"
 preserveAspectRatio="xMidYMid meet">
<metadata>
Created by potrace 1.16, written by Peter Selinger 2001-2019
</metadata>
<rect width="1" height="360" fill="#000000"/>
<rect x="479" width="1" height="360" fill="#000000"/>
<rect width="480" height="1" fill="#000000"/>
<rect y="359" width="480" height="1" fill="#000000"/>
<g transform="translate(0.000000,360.000000) scale(0.100000,-0.100000)"
fill="#000000" stroke="none">
<path d="M1603 3523 c10 -93 2 -255 -18 -375 -17 -94 -96 -318 -126 -357 -11
-13 -19 -28 -19 -33 0 -17 -102 -160 -164 -231 -57 -65 -130 -129 -234 -206
-118 -87 -349 -183 -509 -211 -120 -21 -418 -12 -511 16 l-22 6 0 -1066 0
-1066 1314 0 1314 0 6 28 c3 15 13 74 21 132 21 144 38 212 90 366 60 178 88
292 129 535 20 113 43 239 51 279 12 56 13 81 5 100 -6 15 -16 62 -23 105 -10
67 -15 80 -32 83 -30 6 -83 49 -100 82 -22 43 -19 68 20 149 19 40 35 77 35
83 0 16 -63 1 -165 -38 -119 -46 -141 -42 -168 31 -2 6 -14 1 -26 -9 -21 -19
-22 -19 -36 0 -8 10 -15 22 -15 25 0 3 -37 9 -82 12 -64 4 -116 17 -223 55
-77 28 -160 59 -185 71 -25 11 -56 21 -69 21 -13 0 -47 15 -75 32 -43 28 -59
33 -104 31 -46 -2 -52 0 -42 13 11 12 6 14 -26 14 l-39 0 25 20 25 20 -26 0
c-35 0 -42 10 -22 32 34 38 170 17 281 -43 59 -32 108 -48 255 -80 100 -22
186 -45 191 -50 13 -12 32 -11 77 1 27 8 39 17 43 35 7 26 20 32 31 15 11 -17
42 -11 48 10 8 31 33 34 126 17 109 -21 271 -31 291 -18 12 8 12 13 -4 30 -17
19 -17 20 3 33 35 22 26 39 -16 32 -38 -6 -38 -6 -68 53 -16 32 -36 66 -43 75
-13 16 -12 20 9 37 24 20 24 20 4 35 -11 8 -27 16 -35 16 -18 0 -40 44 -40 78
0 13 -4 21 -9 17 -8 -4 -9 17 -2 57 0 3 17 27 36 53 l36 46 -26 64 c-31 78
-33 131 -6 140 30 9 285 -89 310 -119 7 -9 21 -16 30 -16 37 0 119 -50 164
-99 58 -66 75 -119 87 -271 6 -81 15 -129 30 -162 11 -26 25 -85 30 -130 5
-46 15 -87 23 -93 7 -5 38 -29 69 -53 70 -52 83 -73 69 -113 -7 -20 -7 -29 1
-29 5 0 7 -8 4 -17 -4 -9 -2 -20 5 -23 8 -5 8 -12 -1 -26 -10 -16 -5 -31 28
-94 l40 -75 7 -185 c4 -131 12 -207 26 -262 10 -43 19 -95 19 -117 0 -48 15
-90 38 -107 16 -12 16 -13 -1 -19 -11 -5 -25 -1 -37 10 -25 23 -27 4 -3 -36 9
-15 14 -31 10 -35 -12 -13 -36 5 -56 43 -27 51 -27 25 0 -38 24 -55 20 -72
-11 -44 -11 10 -20 13 -20 7 0 -17 -25 -15 -40 3 -7 9 -15 14 -17 12 -6 -7 83
-219 162 -382 84 -175 145 -324 166 -404 l13 -51 448 0 448 0 0 1800 0 1800
-1603 0 -1603 0 9 -77z"/>
<path d="M3455 1607 c-3 -9 -8 -25 -11 -34 -9 -27 -27 -200 -28 -263 0 -42 9
-79 39 -152 22 -54 42 -98 46 -98 9 0 19 80 19 149 0 71 -41 393 -51 405 -5 5
-11 2 -14 -7z"/>
</g>
</svg>
