<?xml version="1.0" standalone="no"?>
<!DOCTYPE svg PUBLIC "-//W3C//DTD SVG 20010904//EN"
 "http://www.w3.org/TR/2001/REC-SVG-20010904/DTD/svg10.dtd">
<svg version="1.0" xmlns="http://www.w3.org/2000/svg"
 width="480.000000pt" height="360.000000pt" viewBox="0 0 480.000000 360.000000"
 preserveAspectRatio="xMidYMid meet">
<metadata>
Created by potrace 1.16, written by Peter Selinger 2001-2019
</metadata>
<rect width="1" height="360" fill="#000000"/>
<rect x="479" width="1" height="360" fill="#000000"/>
<rect width="480" height="1" fill="#000000"/>
<rect y="359" width="480" height="1" fill="#000000"/>
<g transform="translate(0.000000,360.000000) scale(0.100000,-0.100000)"
fill="#000000" stroke="none">
<path d="M1530 3585 c0 -8 5 -15 10 -15 6 0 10 7 10 15 0 8 -4 15 -10 15 -5 0
-10 -7 -10 -15z"/>
<path d="M1582 3558 c13 -52 28 -71 29 -37 0 13 4 33 8 44 6 15 14 -1 36 -70
15 -50 30 -94 34 -100 8 -13 19 65 20 138 1 31 5 57 11 57 10 0 21 -37 45
-150 35 -166 55 -190 56 -67 1 82 16 140 19 72 2 -22 6 -53 10 -70 6 -27 8
-28 14 -10 4 11 14 35 22 53 8 18 14 52 14 75 1 37 2 40 13 22 7 -13 13 -76
14 -174 1 -85 5 -156 8 -159 2 -3 18 26 35 63 26 57 32 65 45 55 19 -16 19
-34 0 -26 -19 7 -19 -14 0 -78 28 -93 36 -86 -155 -144 -248 -76 -350 -127
-467 -236 -34 -32 -67 -55 -72 -51 -6 3 -35 50 -66 105 -62 110 -96 156 -125
165 -10 3 -71 -3 -137 -14 -179 -30 -298 -41 -451 -41 -211 0 -284 16 -529
117 -10 4 -13 -144 -13 -721 0 -648 2 -726 15 -726 43 0 60 43 173 421 l112
375 -45 139 c-38 116 -52 146 -82 177 -20 21 -33 41 -29 45 4 5 137 8 294 8
290 0 332 -5 332 -38 0 -7 -29 -29 -64 -49 l-63 -37 -63 -148 -62 -148 61
-310 c34 -170 67 -327 73 -348 l12 -39 55 6 c31 3 180 10 331 16 151 6 430 18
620 26 242 12 662 18 1412 21 l1068 5 10 37 c5 20 32 155 59 301 28 146 55
284 61 308 5 23 10 54 10 68 0 14 4 23 9 19 6 -3 13 26 17 67 7 61 9 67 14 38
5 -33 6 -32 14 20 4 30 12 78 19 105 l11 50 11 -80 c7 -48 7 -87 2 -99 -7 -13
-5 -17 4 -14 7 2 19 23 27 46 7 23 18 42 24 42 21 0 36 29 43 85 11 89 11 90
103 93 50 2 83 -1 87 -8 4 -6 -11 -28 -32 -48 -34 -33 -43 -54 -80 -180 l-43
-143 71 -232 c39 -128 89 -288 112 -357 39 -117 44 -125 70 -128 l27 -3 0 691
c0 380 -4 690 -8 688 -121 -50 -174 -70 -177 -66 -3 3 6 56 19 119 14 63 30
142 37 176 7 34 15 60 17 58 3 -2 13 -33 23 -67 l19 -63 -5 100 c-3 55 -8 124
-11 153 l-5 52 -375 0 -374 0 0 -75 c0 -77 22 -249 42 -320 25 -94 37 -170 29
-178 -6 -6 -68 -1 -159 12 -82 11 -170 21 -195 21 -43 0 -48 -3 -75 -42 -15
-24 -50 -81 -77 -128 -59 -105 -103 -170 -114 -170 -5 0 -35 27 -67 60 -129
133 -259 212 -441 270 -57 17 -103 35 -103 38 1 4 7 18 14 31 12 21 14 22 23
7 7 -13 24 12 78 119 40 78 72 130 76 123 3 -7 9 -49 13 -93 11 -143 29 -174
56 -97 8 23 18 42 22 42 4 0 10 -31 14 -70 3 -38 10 -70 14 -70 4 0 11 39 14
88 10 138 27 266 37 282 6 10 7 -19 3 -77 -7 -103 4 -284 16 -262 4 8 11 41
15 74 8 68 14 83 25 64 5 -8 21 13 45 61 34 69 38 73 51 55 8 -10 14 -25 14
-32 0 -23 18 -14 38 20 11 17 37 65 58 105 20 39 40 72 43 72 3 0 22 -32 41
-71 61 -124 75 -116 65 37 l-7 104 -998 0 -998 0 10 -42z m515 -245 c-2 -16
-4 -5 -4 22 0 28 2 40 4 28 2 -13 2 -35 0 -50z m691 -28 c-5 -49 -8 -114 -6
-142 4 -47 2 -53 -14 -53 -53 0 -75 43 -39 77 10 10 22 40 25 66 8 53 35 151
41 145 2 -1 -1 -43 -7 -93z m-88 16 c0 -23 -5 -30 -25 -33 -29 -6 -32 7 -9 40
21 30 34 28 34 -7z m-600 -41 c0 -21 -25 -4 -28 20 -4 21 -2 22 12 7 9 -8 16
-21 16 -27z m1950 -445 c0 -16 -6 -25 -15 -25 -18 0 -20 21 -3 38 17 17 18 16
18 -13z m-250 -19 c0 -7 9 -25 21 -40 l20 -26 -24 -32 c-14 -18 -35 -66 -48
-105 -13 -40 -26 -73 -30 -73 -4 0 -38 19 -74 41 -66 42 -66 42 -47 63 10 12
45 53 77 91 77 91 105 114 105 81z m-2741 -72 c28 -30 67 -75 87 -99 l36 -44
-54 -50 c-29 -28 -58 -50 -64 -51 -6 0 -23 35 -37 77 -15 42 -39 92 -53 111
-24 31 -25 35 -10 51 9 10 16 27 16 39 0 36 25 25 79 -34z m3215 -260 c3 -8 2
-12 -4 -9 -6 3 -10 10 -10 16 0 14 7 11 14 -7z"/>
<path d="M2145 1409 c-620 -13 -1402 -43 -1413 -54 -3 -3 0 -16 6 -30 10 -21
4 -47 -38 -172 -61 -184 -114 -393 -136 -540 l-16 -111 -67 -28 c-70 -29 -327
-163 -424 -221 l-57 -34 0 -110 0 -109 445 0 444 0 41 60 c81 119 181 344 292
655 28 77 53 146 57 152 4 7 7 -45 8 -115 0 -70 2 -268 4 -439 l3 -313 1102 0
1103 0 -6 107 c-3 60 -8 133 -12 164 -4 30 -4 89 1 130 4 41 11 114 14 163 3
48 10 84 14 80 4 -5 34 -76 65 -159 70 -184 140 -334 197 -420 l42 -65 493 0
493 0 0 93 0 93 -97 54 c-213 116 -293 157 -408 206 -138 59 -120 32 -150 241
-25 177 -100 455 -177 656 l-29 77 -722 -2 c-397 -1 -879 -5 -1072 -9z"/>
<path d="M3985 1384 c7 -42 32 -84 49 -84 17 0 35 34 42 80 l7 40 -53 0 -52 0
7 -36z"/>
</g>
</svg>
