<?xml version="1.0" standalone="no"?>
<!DOCTYPE svg PUBLIC "-//W3C//DTD SVG 20010904//EN"
 "http://www.w3.org/TR/2001/REC-SVG-20010904/DTD/svg10.dtd">
<svg version="1.0" xmlns="http://www.w3.org/2000/svg"
 width="480.000000pt" height="360.000000pt" viewBox="0 0 480.000000 360.000000"
 preserveAspectRatio="xMidYMid meet">
<metadata>
Created by potrace 1.16, written by Peter Selinger 2001-2019
</metadata>
<rect width="1" height="360" fill="#000000"/>
<rect x="479" width="1" height="360" fill="#000000"/>
<rect width="480" height="1" fill="#000000"/>
<rect y="359" width="480" height="1" fill="#000000"/>
<g transform="translate(0.000000,360.000000) scale(0.100000,-0.100000)"
fill="#000000" stroke="none">
<path d="M0 1800 l0 -1800 2400 0 2400 0 -2 690 -3 691 -35 22 -35 22 29 -38
c37 -51 26 -58 -21 -14 -43 42 -159 93 -253 114 -36 8 -137 25 -225 38 -130
20 -173 31 -233 60 -49 23 -95 37 -139 41 -62 7 -66 6 -59 -12 4 -10 10 -56
13 -101 6 -81 6 -82 -25 -112 -17 -17 -37 -31 -45 -31 -29 0 -56 35 -66 85
l-9 50 -1 -41 c-1 -24 -8 -47 -16 -54 -23 -19 -64 23 -72 72 -3 21 -10 41 -14
44 -5 3 -9 16 -9 29 0 50 -4 52 -108 49 -53 -2 -113 -8 -132 -14 -53 -15 -105
-12 -130 8 -22 18 -22 20 -7 50 10 20 12 34 5 38 -12 8 -191 23 -275 24 -57 0
-62 -2 -58 -20 2 -11 -1 -20 -7 -20 -6 0 -3 -9 7 -20 10 -11 23 -20 28 -20 6
0 19 -7 28 -16 14 -13 16 -21 8 -35 -13 -25 -22 -24 -57 6 -30 25 -201 115
-220 115 -5 0 -13 -7 -16 -16 -6 -15 -8 -15 -31 0 -24 16 -25 16 -25 -9 0 -25
0 -25 -30 -10 -21 11 -30 23 -30 40 0 22 -5 25 -49 31 -28 3 -59 15 -70 25
-22 20 -38 66 -27 76 8 9 176 4 276 -7 47 -5 175 -14 285 -20 l199 -10 51 53
c28 30 71 89 96 132 24 43 50 87 56 99 18 30 16 57 -7 86 l-19 25 -16 -22
c-19 -28 -36 -29 -64 -5 -20 16 -21 20 -8 87 16 90 13 115 -17 115 -29 0 -66
39 -66 69 0 34 30 79 63 92 l28 12 -23 22 c-13 12 -26 21 -29 19 -4 -2 -21 9
-39 26 -17 16 -39 29 -48 28 -37 -4 -138 15 -155 30 -29 26 -21 49 21 56 20 3
49 6 65 6 39 0 33 12 -21 40 -30 16 -48 33 -50 46 -4 29 28 41 45 17 46 -64
78 -75 120 -45 16 11 45 23 64 27 29 5 41 15 58 46 57 100 157 153 250 131 57
-13 226 -106 226 -125 0 -19 -71 -20 -120 -2 -24 10 -48 14 -54 10 -12 -7 -15
-76 -5 -113 4 -14 16 -24 33 -28 37 -8 137 -39 204 -64 51 -19 57 -24 51 -43
-4 -12 -11 -25 -16 -28 -14 -9 -14 -14 1 -32 7 -10 26 -17 42 -17 16 0 29 -5
29 -11 0 -5 5 -7 12 -3 8 5 9 2 5 -10 -4 -10 -1 -19 9 -23 8 -3 13 -12 10 -20
-3 -7 3 -22 14 -33 27 -27 26 -30 -21 -30 -24 0 -38 -4 -34 -10 4 -6 -6 -10
-22 -10 -15 -1 -39 -7 -52 -14 -19 -11 -21 -14 -7 -19 9 -4 16 -11 16 -16 0
-6 -15 -4 -34 4 -33 14 -33 14 -33 -11 0 -38 -7 -38 -46 1 -38 38 -66 40 -47
4 12 -21 1 -26 -19 -6 -17 17 -5 -31 25 -101 l23 -53 38 30 c51 40 122 71 184
78 l51 6 -5 -69 c-3 -38 -9 -81 -12 -96 l-7 -28 116 0 c64 0 116 -2 116 -5 0
-3 -12 -17 -27 -30 -24 -21 -39 -25 -98 -25 -86 -1 -67 -11 72 -35 l102 -18
118 31 c140 36 256 55 327 51 28 -1 70 -1 94 -1 l42 2 0 760 0 760 -2400 0
-2400 0 0 -1800z"/>
<path d="M3580 2390 c0 -21 16 -44 23 -33 4 6 0 19 -8 29 -11 15 -14 16 -15 4z"/>
<path d="M3794 2025 c39 -25 92 -52 120 -60 53 -16 176 -21 161 -6 -22 19
-155 62 -175 56 -13 -4 -42 5 -82 24 -90 45 -103 37 -24 -14z"/>
<path d="M3691 1544 c0 -11 3 -14 6 -6 3 7 2 16 -1 19 -3 4 -6 -2 -5 -13z"/>
</g>
</svg>
