<?xml version="1.0" standalone="no"?>
<!DOCTYPE svg PUBLIC "-//W3C//DTD SVG 20010904//EN"
 "http://www.w3.org/TR/2001/REC-SVG-20010904/DTD/svg10.dtd">
<svg version="1.0" xmlns="http://www.w3.org/2000/svg"
 width="480.000000pt" height="360.000000pt" viewBox="0 0 480.000000 360.000000"
 preserveAspectRatio="xMidYMid meet">
<metadata>
Created by potrace 1.16, written by Peter Selinger 2001-2019
</metadata>
<rect width="1" height="360" fill="#000000"/>
<rect x="479" width="1" height="360" fill="#000000"/>
<rect width="480" height="1" fill="#000000"/>
<rect y="359" width="480" height="1" fill="#000000"/>
<g transform="translate(0.000000,360.000000) scale(0.100000,-0.100000)"
fill="#000000" stroke="none">
<path d="M3666 3579 c-25 -13 -36 -15 -39 -6 -3 9 -14 7 -43 -7 -21 -10 -56
-20 -77 -22 -22 -2 -69 -19 -105 -38 -37 -18 -91 -44 -120 -57 -51 -22 -55
-22 -80 -6 -127 81 -296 137 -411 137 -67 0 -311 -33 -411 -56 -221 -50 -328
-190 -356 -469 -5 -53 -10 -64 -44 -95 -21 -20 -85 -62 -142 -94 l-103 -58
-48 12 c-39 10 -51 9 -64 -2 -42 -35 -58 -142 -25 -172 17 -15 23 -15 60 -2
37 13 43 13 50 -1 9 -15 24 -15 78 2 17 5 25 -3 53 -54 21 -41 38 -61 50 -61
20 0 43 -29 56 -70 4 -14 11 -27 14 -30 4 -3 23 -28 44 -56 40 -56 73 -79 62
-44 -5 15 -3 18 9 14 20 -8 15 9 30 -122 11 -89 11 -125 1 -171 -6 -32 -15
-63 -19 -69 -4 -7 -3 -12 3 -12 11 0 83 102 94 133 14 39 27 2 27 -78 0 -46 4
-86 9 -89 5 -4 17 14 27 39 19 52 34 58 34 15 0 -33 14 -39 28 -13 9 15 13 14
42 -10 24 -20 42 -27 75 -27 31 0 47 -5 54 -17 8 -13 10 -14 11 -4 0 8 2 12 5
9 5 -4 -13 -98 -19 -98 0 0 -52 -5 -115 -10 -90 -7 -125 -15 -168 -36 -30 -14
-58 -22 -62 -18 -4 5 -18 47 -30 94 -12 47 -35 114 -51 149 -24 51 -30 77 -30
132 0 80 -13 89 -62 42 -15 -15 -28 -21 -28 -15 0 7 -6 12 -14 12 -8 0 -40
-54 -74 -122 -68 -137 -139 -248 -225 -353 l-58 -70 30 -25 c27 -23 71 -107
71 -135 0 -8 19 -15 48 -19 65 -8 73 -8 105 0 21 5 27 3 27 -10 0 -16 -11 -16
-117 -9 -65 4 -255 8 -423 8 -347 -1 -390 -7 -390 -54 0 -49 30 -130 62 -166
l30 -35 -38 -16 c-27 -11 -53 -14 -89 -9 -39 4 -55 2 -64 -8 -9 -12 -5 -20 24
-43 19 -16 58 -48 85 -71 30 -25 61 -43 75 -43 14 0 25 -3 25 -7 0 -5 23 -32
50 -62 l50 -54 87 7 c55 4 101 14 124 25 20 11 53 21 75 23 l38 3 56 -150 c84
-225 112 -268 195 -306 44 -20 125 -25 156 -9 25 14 25 1 -1 -171 -24 -151
-37 -178 -124 -254 l-51 -45 628 0 c376 0 627 4 627 9 0 5 -18 25 -41 44 -47
40 -58 76 -59 178 0 43 9 96 25 150 14 46 37 127 50 179 14 52 27 100 29 106
3 9 20 8 59 -4 64 -17 93 -12 77 15 -17 32 -40 95 -40 113 0 21 19 30 62 30
55 0 104 37 134 101 31 65 26 64 129 32 95 -30 254 -120 395 -226 59 -44 238
-194 255 -213 6 -7 32 -28 58 -48 53 -40 114 -49 137 -21 23 27 144 103 185
115 35 10 47 9 93 -9 56 -22 134 -72 240 -153 35 -26 67 -48 73 -48 5 0 9 195
9 500 0 275 -3 500 -7 500 -5 0 -55 -29 -113 -65 -151 -95 -293 -162 -390
-186 -110 -28 -212 -22 -413 22 -163 36 -196 34 -207 -11 -3 -15 -14 -26 -25
-27 -11 -2 -94 28 -185 66 l-165 70 0 133 c0 178 1 177 -221 328 -178 121
-206 152 -172 186 14 14 17 14 30 0 9 -8 25 -13 37 -11 11 2 23 -1 26 -6 10
-15 25 0 25 24 0 24 51 127 63 127 4 0 4 -38 1 -85 -6 -77 -5 -85 10 -79 9 3
16 11 16 18 0 6 5 4 10 -4 8 -13 11 -11 16 8 4 12 10 22 14 22 4 0 11 30 15
67 7 65 8 67 24 48 23 -28 81 -75 92 -75 5 0 8 19 7 43 l-3 42 44 -3 44 -4
-31 39 c-31 40 -52 91 -52 128 0 17 9 25 39 34 22 6 53 24 70 40 26 24 31 36
31 75 0 29 -9 64 -24 94 -29 57 -53 139 -59 204 -3 37 0 52 18 73 21 27 22 28
48 10 14 -9 32 -15 39 -12 7 2 20 -2 29 -9 8 -8 40 -22 70 -33 30 -10 75 -27
101 -37 l47 -18 57 28 c37 18 88 58 142 113 96 95 95 78 8 170 -44 47 -43 62
3 44 21 -9 35 -10 49 -2 15 8 29 8 48 1 19 -8 31 -7 42 2 12 10 16 10 19 1 7
-21 22 -15 37 15 13 26 13 32 -8 68 -12 21 -23 42 -24 46 -10 31 -18 46 -36
67 -12 13 -14 20 -6 15 12 -6 11 -2 -2 19 -10 14 -18 31 -18 37 0 6 -9 30 -20
52 -11 23 -20 52 -20 66 0 13 -5 32 -10 43 -6 10 -7 19 -2 19 5 0 13 30 19 67
9 65 9 69 -16 100 -14 18 -28 28 -29 23 -3 -7 -9 -7 -18 1 -8 6 -23 9 -34 6
-11 -3 -23 -1 -26 4 -8 13 -42 11 -47 -3 -3 -10 -7 -10 -18 -1 -21 17 -84 13
-123 -8z m-1916 -2240 c12 -6 9 -10 -13 -18 -30 -12 -67 -15 -67 -5 0 3 5 14
11 25 10 20 30 19 69 -2z"/>
</g>
</svg>
