<?xml version="1.0" standalone="no"?>
<!DOCTYPE svg PUBLIC "-//W3C//DTD SVG 20010904//EN"
 "http://www.w3.org/TR/2001/REC-SVG-20010904/DTD/svg10.dtd">
<svg version="1.0" xmlns="http://www.w3.org/2000/svg"
 width="480.000000pt" height="360.000000pt" viewBox="0 0 480.000000 360.000000"
 preserveAspectRatio="xMidYMid meet">
<metadata>
Created by potrace 1.16, written by Peter Selinger 2001-2019
</metadata>
<rect width="1" height="360" fill="#000000"/>
<rect x="479" width="1" height="360" fill="#000000"/>
<rect width="480" height="1" fill="#000000"/>
<rect y="359" width="480" height="1" fill="#000000"/>
<g transform="translate(0.000000,360.000000) scale(0.100000,-0.100000)"
fill="#000000" stroke="none">
<path d="M0 3523 c0 -90 11 -87 33 10 l15 67 -24 0 c-23 0 -24 -2 -24 -77z"/>
<path d="M2400 3527 c-10 -63 -10 -85 4 -151 19 -92 10 -147 -35 -217 -34 -54
-37 -98 -9 -144 24 -39 44 -49 72 -34 23 12 33 6 34 -24 0 -12 6 -58 13 -102
11 -67 20 -92 59 -153 57 -88 80 -98 124 -53 17 17 34 31 39 31 14 0 37 52 55
124 14 57 15 75 4 129 -6 34 -16 104 -21 155 -5 51 -21 131 -35 178 -28 89
-28 105 -8 282 l7 52 -145 0 -145 0 -13 -73z"/>
<path d="M4590 3594 c0 -3 14 -25 31 -48 21 -30 33 -62 39 -102 9 -65 -4 -142
-27 -159 -26 -19 -32 -81 -16 -151 14 -59 17 -65 44 -71 35 -7 57 -36 92 -119
30 -70 31 -141 7 -359 -11 -104 -11 -140 4 -270 9 -82 21 -154 26 -159 7 -7
10 233 10 717 l0 727 -105 0 c-58 0 -105 -3 -105 -6z"/>
<path d="M2426 2693 c-18 -18 -1 -52 52 -102 71 -68 83 -49 22 38 -41 58 -62
76 -74 64z"/>
<path d="M0 1285 l0 -1285 838 0 839 0 16 118 c13 102 14 124 1 172 -8 30 -14
71 -14 91 l0 36 -77 -13 c-71 -13 -90 -12 -208 7 -71 12 -145 27 -164 35 -18
8 -44 14 -56 14 -34 0 -148 -30 -164 -44 -8 -6 -44 -11 -80 -11 -89 0 -140 29
-182 103 -17 30 -53 83 -80 118 -27 35 -49 68 -49 74 0 5 -7 18 -15 27 -70 82
-85 102 -85 116 0 30 -116 143 -160 156 -22 6 -40 15 -40 19 0 4 -16 16 -35
26 -32 18 -35 23 -35 65 -1 66 -14 117 -44 159 -14 21 -31 53 -37 72 -7 19
-21 47 -32 62 -15 21 -19 37 -14 74 3 29 -2 77 -14 126 -10 44 -19 100 -19
125 0 25 -7 73 -16 107 -12 45 -15 88 -11 164 3 57 0 120 -5 139 -12 44 3 83
31 83 21 0 51 39 51 66 0 10 -6 25 -14 33 -8 9 -28 54 -46 101 -44 119 -58
150 -70 150 -7 0 -10 -421 -10 -1285z"/>
<path d="M4763 1880 c-18 -11 -33 -26 -33 -33 0 -7 -13 -26 -28 -41 -16 -15
-39 -49 -52 -76 l-23 -49 31 -36 c32 -36 35 -43 48 -125 18 -111 0 -218 -48
-291 -13 -19 -29 -52 -36 -74 -12 -37 -53 -129 -74 -165 -25 -45 -48 -101 -58
-144 -18 -81 -40 -112 -100 -144 -76 -39 -206 -120 -218 -135 -9 -11 -2 -143
9 -186 5 -20 -68 -33 -156 -28 -52 3 -84 11 -123 32 -46 24 -60 27 -110 21
-31 -3 -100 -10 -152 -15 -102 -10 -119 -15 -195 -63 -63 -39 -126 -47 -189
-23 -37 14 -50 26 -71 68 -16 30 -29 73 -31 106 -10 119 -8 115 -85 161 -38
23 -74 40 -78 38 -5 -2 4 -30 20 -63 39 -82 50 -183 31 -283 -12 -68 -12 -91
2 -197 9 -66 16 -123 16 -127 0 -5 392 -8 870 -8 l870 0 0 950 c0 523 -1 950
-2 950 -2 0 -18 -9 -35 -20z"/>
<path d="M2559 1415 c-14 -8 -34 -25 -43 -39 -20 -31 -40 -166 -27 -179 11
-11 135 27 182 55 35 22 38 53 8 114 -14 29 -29 46 -51 53 -38 13 -37 13 -69
-4z"/>
</g>
</svg>
