<?xml version="1.0" standalone="no"?>
<!DOCTYPE svg PUBLIC "-//W3C//DTD SVG 20010904//EN"
 "http://www.w3.org/TR/2001/REC-SVG-20010904/DTD/svg10.dtd">
<svg version="1.0" xmlns="http://www.w3.org/2000/svg"
 width="480.000000pt" height="360.000000pt" viewBox="0 0 480.000000 360.000000"
 preserveAspectRatio="xMidYMid meet">
<metadata>
Created by potrace 1.16, written by Peter Selinger 2001-2019
</metadata>
<rect width="1" height="360" fill="#000000"/>
<rect x="479" width="1" height="360" fill="#000000"/>
<rect width="480" height="1" fill="#000000"/>
<rect y="359" width="480" height="1" fill="#000000"/>
<g transform="translate(0.000000,360.000000) scale(0.100000,-0.100000)"
fill="#000000" stroke="none">
<path d="M0 1800 l0 -1800 1235 0 1235 0 0 58 c0 32 5 63 12 70 8 8 8 52 -1
182 -7 94 -14 177 -17 184 -4 9 -40 13 -142 13 -75 1 -162 6 -192 12 -30 6
-102 17 -160 26 -58 9 -115 20 -128 25 -33 14 -62 69 -62 116 0 39 4 45 54 82
30 23 66 44 81 48 14 3 33 18 42 31 16 23 15 26 0 35 -27 15 -21 38 44 164 75
144 91 191 129 359 16 72 39 157 50 189 11 33 20 71 20 86 0 14 16 73 36 131
26 74 39 130 44 194 4 50 10 97 14 106 13 30 -55 50 -193 55 -333 12 -472 27
-524 57 -23 13 -66 32 -96 42 -29 9 -67 30 -85 46 -29 26 -30 29 -14 45 16 16
22 16 115 -11 54 -15 118 -35 143 -45 40 -15 83 -17 360 -15 305 2 316 2 357
24 54 29 59 36 67 96 7 47 5 52 -25 83 -24 24 -29 35 -20 45 8 10 4 19 -20 36
-16 12 -35 33 -41 46 -6 14 -19 27 -30 30 -33 11 -78 56 -78 79 0 13 12 31 29
43 21 17 27 28 24 46 -4 19 2 30 27 48 17 13 38 38 45 55 13 33 42 44 112 44
25 0 47 10 81 39 26 21 58 44 71 51 21 11 23 10 18 -4 -5 -12 0 -16 18 -16 30
0 32 -14 5 -33 -23 -16 -16 -25 36 -46 17 -7 45 -32 62 -56 24 -34 38 -44 69
-50 48 -8 103 -39 103 -59 0 -8 -16 -27 -35 -42 -19 -14 -35 -30 -35 -35 0 -9
59 -144 82 -188 16 -29 20 -32 128 -71 93 -35 212 -92 248 -120 19 -16 20 -19
6 -22 -13 -2 -6 -15 32 -57 37 -41 43 -52 26 -47 -18 6 -21 4 -15 -11 3 -10
13 -26 21 -35 13 -16 13 -18 0 -18 -22 0 -132 42 -228 88 l-82 39 7 -46 c5
-25 8 -60 7 -77 0 -31 2 -33 76 -59 42 -15 122 -34 177 -41 55 -8 114 -20 130
-28 17 -8 69 -26 117 -40 138 -42 125 -56 -53 -59 -101 -2 -104 -3 -107 -26
-4 -26 1 -26 -126 9 -44 11 -88 26 -98 31 -13 7 -23 7 -32 -1 -15 -12 -59 1
-71 20 -9 14 -26 -18 -44 -82 -12 -43 -31 -66 -31 -38 0 19 -57 -31 -79 -70
-27 -49 -51 -70 -51 -45 0 13 -3 15 -13 6 -11 -8 -12 -22 -5 -58 18 -92 20
-145 8 -169 -11 -20 -9 -29 24 -78 50 -76 50 -78 22 -135 l-26 -50 27 -15 c59
-29 134 -38 248 -28 149 13 264 -1 383 -45 79 -29 77 -34 -91 -200 -158 -155
-229 -208 -333 -243 l-57 -20 -48 53 c-65 73 -123 92 -236 78 -43 -5 -92 -15
-107 -21 -28 -10 -29 -11 -24 -83 5 -63 13 -86 62 -182 51 -100 58 -121 74
-230 10 -66 24 -129 30 -141 6 -12 14 -51 18 -88 l7 -66 978 0 979 0 0 1800 0
1800 -2400 0 -2400 0 0 -1800z"/>
<path d="M2694 2350 c7 -37 19 -55 33 -49 5 2 -2 22 -15 44 l-24 40 6 -35z"/>
<path d="M2660 2025 c0 -24 58 -124 72 -125 10 0 40 106 36 128 -2 13 -15 18
-56 20 -50 3 -52 2 -52 -23z"/>
<path d="M2597 1783 c-6 -33 6 -51 25 -36 7 6 24 13 38 15 25 4 24 4 -10 26
-44 28 -47 28 -53 -5z"/>
<path d="M2765 1418 c4 -13 14 -30 22 -38 13 -13 16 -13 29 5 13 18 12 21 -8
37 -33 25 -51 23 -43 -4z"/>
<path d="M1994 979 c-19 -22 -19 -22 4 -10 12 6 22 16 22 21 0 15 -5 12 -26
-11z"/>
</g>
</svg>
