<?xml version="1.0" standalone="no"?>
<!DOCTYPE svg PUBLIC "-//W3C//DTD SVG 20010904//EN"
 "http://www.w3.org/TR/2001/REC-SVG-20010904/DTD/svg10.dtd">
<svg version="1.0" xmlns="http://www.w3.org/2000/svg"
 width="480.000000pt" height="360.000000pt" viewBox="0 0 480.000000 360.000000"
 preserveAspectRatio="xMidYMid meet">
<metadata>
Created by potrace 1.16, written by Peter Selinger 2001-2019
</metadata>
<rect width="1" height="360" fill="#000000"/>
<rect x="479" width="1" height="360" fill="#000000"/>
<rect width="480" height="1" fill="#000000"/>
<rect y="359" width="480" height="1" fill="#000000"/>
<g transform="translate(0.000000,360.000000) scale(0.100000,-0.100000)"
fill="#000000" stroke="none">
<path d="M0 1800 l0 -1800 2400 0 2400 0 0 1800 0 1800 -2400 0 -2400 0 0
-1800z m2880 330 c135 -46 170 -75 146 -121 -26 -50 -52 -86 -105 -144 -51
-56 -196 -195 -252 -240 -13 -11 -49 -41 -79 -66 -153 -129 -316 -212 -448
-230 -107 -14 -286 -8 -327 12 -50 24 -57 53 -29 118 33 73 25 89 -66 137
-115 60 -115 102 -1 203 184 163 442 294 671 342 127 27 399 21 490 -11z"/>
</g>
</svg>
