<?xml version="1.0" standalone="no"?>
<!DOCTYPE svg PUBLIC "-//W3C//DTD SVG 20010904//EN"
 "http://www.w3.org/TR/2001/REC-SVG-20010904/DTD/svg10.dtd">
<svg version="1.0" xmlns="http://www.w3.org/2000/svg"
 width="480.000000pt" height="360.000000pt" viewBox="0 0 480.000000 360.000000"
 preserveAspectRatio="xMidYMid meet">
<metadata>
Created by potrace 1.16, written by Peter Selinger 2001-2019
</metadata>
<rect width="1" height="360" fill="#000000"/>
<rect x="479" width="1" height="360" fill="#000000"/>
<rect width="480" height="1" fill="#000000"/>
<rect y="359" width="480" height="1" fill="#000000"/>
<g transform="translate(0.000000,360.000000) scale(0.100000,-0.100000)"
fill="#000000" stroke="none">
<path d="M0 1800 l0 -1800 2400 0 2400 0 0 1800 0 1800 -2400 0 -2400 0 0
-1800z m2524 1080 c23 -11 70 -47 106 -81 63 -59 64 -60 32 -55 -18 3 -49 17
-70 31 -20 14 -47 25 -60 25 -22 0 -24 -3 -17 -37 3 -21 10 -41 13 -45 4 -3
46 -18 94 -32 98 -30 115 -43 93 -72 -21 -28 -19 -30 30 -44 25 -7 45 -17 45
-21 0 -5 5 -9 10 -9 6 0 20 -10 31 -21 l22 -22 -29 7 -29 6 30 -26 c25 -21 26
-25 9 -20 -15 5 -24 1 -28 -10 -5 -12 -14 -15 -40 -10 -27 5 -37 3 -44 -11 -9
-15 -14 -15 -37 -5 -40 18 -53 14 -25 -8 l25 -21 -30 13 c-16 6 -36 16 -43 22
-27 20 -31 -9 -10 -67 21 -58 42 -73 53 -37 9 28 63 70 89 70 19 0 25 -7 30
-37 3 -21 6 -57 6 -79 0 -48 -7 -46 163 -65 70 -8 107 -16 107 -24 0 -20 -8
-22 -72 -13 -33 4 -63 6 -65 4 -3 -2 22 -13 54 -23 37 -12 57 -24 55 -32 -2
-9 3 -11 13 -7 52 19 217 38 313 35 92 -4 110 -7 127 -25 11 -11 22 -29 23
-39 2 -11 8 -22 13 -24 6 -1 19 -12 29 -23 10 -11 24 -17 30 -13 6 4 19 -3 29
-14 10 -12 27 -22 37 -22 17 -1 17 -2 2 -6 -10 -2 -18 -11 -18 -18 0 -7 -6
-16 -12 -18 -8 -3 -7 -6 4 -6 25 -1 30 -17 12 -35 -8 -9 -11 -16 -6 -16 5 0
10 -11 10 -25 0 -14 -5 -25 -10 -25 -5 0 -6 -5 -2 -12 4 -6 3 -8 -4 -4 -5 3
-12 0 -15 -6 -3 -10 -10 -10 -33 2 -16 8 -32 16 -36 18 -4 1 -5 -3 -2 -11 3
-9 -10 -24 -38 -40 -24 -15 -37 -26 -30 -27 6 0 12 -4 12 -9 0 -11 -79 4 -93
18 -6 6 -18 11 -26 11 -9 0 -2 -12 19 -31 41 -36 32 -32 -36 13 -50 34 -75 40
-273 73 -52 9 -115 25 -140 36 -49 22 -181 32 -181 14 0 -5 5 -27 9 -49 12
-48 -1 -86 -29 -86 -11 0 -25 9 -32 20 -15 23 -28 26 -28 7 0 -7 -6 -22 -14
-32 -23 -31 -43 -4 -51 70 l-6 64 -52 6 c-29 4 -87 2 -129 -4 -95 -13 -128 -3
-128 40 0 15 -4 30 -8 33 -9 5 -208 23 -352 30 -76 4 -88 3 -60 -5 19 -6 42
-17 50 -24 8 -7 32 -16 53 -20 39 -8 42 -11 28 -34 -11 -17 -39 -11 -210 47
-115 38 -136 43 -145 30 -19 -25 -47 -30 -67 -12 -11 10 -19 23 -19 29 0 15
-32 25 -83 25 -29 0 -46 7 -68 29 -44 44 -39 61 19 60 26 0 83 -4 127 -9 89
-10 448 -45 566 -55 l76 -6 31 36 c18 19 41 55 53 78 12 23 31 55 42 70 17 25
18 34 8 67 -6 20 -11 53 -11 71 0 56 -10 79 -39 85 -30 8 -49 21 -61 44 -10
18 21 61 53 73 34 13 12 29 -80 59 -115 37 -144 61 -140 120 2 37 5 43 25 42
12 0 22 3 22 7 0 16 55 36 80 29 20 -5 25 -12 23 -34 -2 -26 0 -27 30 -21 31
6 42 16 81 71 39 55 145 71 220 34z"/>
<path d="M2348 2542 c-20 -4 -23 -33 -8 -63 15 -27 26 -24 38 9 11 33 -4 60
-30 54z"/>
<path d="M2391 2253 c-8 -21 -29 -60 -48 -87 -39 -54 -57 -102 -42 -111 12 -8
118 76 147 115 l23 30 -27 45 c-14 25 -29 45 -33 45 -4 0 -13 -17 -20 -37z"/>
<path d="M2762 2168 c6 -17 104 -47 153 -47 37 0 33 3 -45 30 -93 32 -114 35
-108 17z"/>
</g>
</svg>
