<?xml version="1.0" standalone="no"?>
<!DOCTYPE svg PUBLIC "-//W3C//DTD SVG 20010904//EN"
 "http://www.w3.org/TR/2001/REC-SVG-20010904/DTD/svg10.dtd">
<svg version="1.0" xmlns="http://www.w3.org/2000/svg"
 width="480.000000pt" height="360.000000pt" viewBox="0 0 480.000000 360.000000"
 preserveAspectRatio="xMidYMid meet">
<metadata>
Created by potrace 1.16, written by Peter Selinger 2001-2019
</metadata>
<rect width="1" height="360" fill="#000000"/>
<rect x="479" width="1" height="360" fill="#000000"/>
<rect width="480" height="1" fill="#000000"/>
<rect y="359" width="480" height="1" fill="#000000"/>
<g transform="translate(0.000000,360.000000) scale(0.100000,-0.100000)"
fill="#000000" stroke="none">
<path d="M1243 3584 c-3 -8 0 -27 6 -41 6 -14 10 -26 9 -27 -42 -25 -102 -33
-113 -16 -20 32 -77 -12 -90 -70 -8 -38 -30 -54 -71 -53 -52 2 -53 -26 -4
-104 22 -36 39 -67 37 -69 -2 -2 -30 19 -63 46 -55 46 -59 47 -67 28 -5 -14
-2 -29 9 -46 9 -13 18 -45 20 -71 8 -108 40 -182 85 -196 16 -5 19 -14 17 -38
-3 -29 -6 -32 -42 -35 -67 -6 -84 4 -107 59 -14 33 -32 55 -51 65 -16 8 -38
24 -48 34 -17 17 -32 18 -142 16 -146 -4 -259 -30 -313 -73 -19 -15 -35 -33
-35 -39 0 -6 -9 -19 -20 -29 -11 -10 -22 -26 -26 -37 -3 -11 -18 -39 -34 -61
-15 -23 -30 -62 -33 -86 -5 -41 -4 -44 24 -54 26 -10 29 -16 29 -59 0 -47 23
-85 127 -211 28 -35 87 -135 143 -244 49 -96 109 -156 172 -174 52 -14 165 -6
227 16 24 8 47 15 52 15 4 0 22 -25 39 -55 37 -64 32 -60 128 -94 90 -32 101
-45 143 -166 42 -119 46 -179 20 -289 -20 -83 -20 -90 -5 -107 10 -11 24 -19
33 -19 9 0 26 -11 38 -24 22 -23 22 -23 3 -41 -12 -11 -20 -31 -20 -49 0 -20
-13 -49 -36 -81 -58 -80 -89 -158 -159 -402 -66 -228 -172 -551 -213 -651
l-22 -52 815 0 c448 0 815 2 815 5 0 8 -62 110 -88 145 -111 146 -153 252
-271 686 -34 126 -66 204 -112 272 -21 32 -33 62 -35 91 -2 39 2 50 30 81 30
33 34 45 39 116 25 319 17 494 -28 591 -29 64 -29 63 -12 63 6 0 22 15 34 34
16 25 32 35 60 41 21 4 54 15 73 25 26 14 65 20 155 24 138 6 215 23 251 57
14 13 46 64 71 112 49 94 109 181 174 252 32 35 41 53 46 95 5 44 11 55 34 69
26 14 28 20 23 51 -3 19 -12 47 -19 62 -31 66 12 89 93 51 51 -24 110 -12 149
31 21 23 33 46 33 64 0 66 -94 146 -142 121 -13 -7 -26 -16 -29 -21 -4 -6 -24
-1 -47 11 -23 12 -43 21 -45 21 -4 0 -22 -15 -78 -64 -22 -19 -39 -2 -39 39 0
40 -17 61 -56 68 -36 7 -54 -7 -54 -40 0 -18 -6 -23 -27 -23 -14 0 -34 6 -42
14 -9 8 -34 16 -56 18 l-40 3 -5 -45 c-4 -37 -9 -46 -28 -48 -25 -4 -41 -28
-39 -57 2 -21 -4 -24 -203 -85 -74 -23 -167 -52 -207 -66 -39 -13 -92 -24
-118 -24 -41 0 -46 2 -39 18 5 9 9 51 9 92 -1 61 -6 85 -27 125 -14 28 -35 59
-47 69 -27 25 -27 42 3 69 30 28 54 106 36 117 -7 4 -14 34 -17 66 -4 53 -8
63 -43 97 -39 37 -76 47 -97 26 -8 -8 -20 -6 -43 6 -18 9 -54 23 -80 31 -26 8
-53 21 -60 29 -19 23 -86 19 -123 -7 l-30 -22 -15 22 c-17 26 -72 31 -72 7 0
-8 -4 -15 -9 -15 -5 0 -14 7 -21 15 -16 19 -39 19 -47 -1z m1295 -741 c17 -33
3 -44 -28 -21 -16 12 -27 25 -24 30 9 14 43 9 52 -9z m-1544 -13 c14 -5 26
-17 26 -25 0 -14 -11 -15 -77 -9 -43 4 -80 8 -82 10 -2 2 2 10 9 19 14 17 85
20 124 5z m-2 -66 c33 -6 39 -11 54 -53 10 -25 28 -73 42 -106 14 -33 35 -86
48 -119 l24 -59 -38 8 c-122 24 -144 23 -202 -7 -30 -16 -64 -40 -75 -52 -45
-52 -59 -43 -109 74 -15 36 -31 74 -36 85 -5 11 -17 49 -26 85 -9 36 -21 73
-26 82 -9 19 -6 20 84 38 32 6 60 16 63 21 7 10 140 12 197 3z m1518 -58 c0
-7 -101 -200 -112 -213 -14 -17 -132 -17 -150 0 -34 34 -91 50 -157 44 -56 -4
-63 -3 -47 8 9 7 41 18 69 25 29 6 66 17 82 25 17 7 79 30 139 50 60 19 120
42 135 50 26 14 41 18 41 11z"/>
</g>
</svg>
