<?xml version="1.0" standalone="no"?>
<!DOCTYPE svg PUBLIC "-//W3C//DTD SVG 20010904//EN"
 "http://www.w3.org/TR/2001/REC-SVG-20010904/DTD/svg10.dtd">
<svg version="1.0" xmlns="http://www.w3.org/2000/svg"
 width="480.000000pt" height="360.000000pt" viewBox="0 0 480.000000 360.000000"
 preserveAspectRatio="xMidYMid meet">
<metadata>
Created by potrace 1.16, written by Peter Selinger 2001-2019
</metadata>
<rect width="1" height="360" fill="#000000"/>
<rect x="479" width="1" height="360" fill="#000000"/>
<rect width="480" height="1" fill="#000000"/>
<rect y="359" width="480" height="1" fill="#000000"/>
<g transform="translate(0.000000,360.000000) scale(0.100000,-0.100000)"
fill="#000000" stroke="none">
<path d="M2535 2593 c-92 -34 -124 -63 -151 -140 -13 -37 -24 -79 -24 -93 0
-32 37 -92 73 -120 21 -17 27 -30 27 -62 0 -32 3 -39 15 -34 9 3 21 -4 31 -20
9 -14 29 -31 43 -39 l26 -13 -30 -11 c-91 -34 -107 -45 -126 -89 -23 -54 -24
-81 -2 -97 15 -11 15 -15 0 -54 -10 -23 -17 -64 -17 -92 0 -45 -2 -50 -15 -39
-9 8 -13 21 -9 32 3 10 1 24 -4 31 -14 18 -23 75 -12 82 17 11 11 37 -17 79
-37 54 -41 56 -72 40 -14 -8 -38 -14 -52 -14 -34 0 -56 -24 -40 -44 8 -10 9
-21 1 -42 -12 -31 -8 -152 12 -334 11 -104 11 -106 -21 -209 -41 -131 -34
-172 30 -186 18 -4 29 -13 29 -24 0 -9 14 -32 31 -51 28 -30 32 -32 41 -16 5
9 7 24 4 32 -8 20 2 17 13 -5 12 -21 -20 -124 -79 -261 -18 -41 -43 -106 -56
-144 -13 -38 -33 -85 -45 -104 -13 -22 -24 -68 -31 -122 l-10 -86 48 -109 c39
-90 59 -122 108 -173 l61 -64 310 4 310 3 98 40 c97 40 98 40 93 70 l-6 30 14
-25 c14 -25 15 -24 46 45 53 117 62 163 44 232 -29 111 -74 233 -119 323 -25
50 -72 169 -105 263 -72 214 -82 236 -137 321 l-45 70 17 35 c12 25 19 71 23
148 3 73 9 117 17 123 10 8 10 18 2 40 -9 24 -8 35 4 57 9 16 24 55 34 87 22
74 15 99 -45 145 -48 36 -48 37 -35 130 5 32 9 40 16 30 5 -8 9 -25 9 -39 l1
-25 14 25 c8 14 14 45 15 70 0 70 -19 205 -34 242 -15 35 -65 91 -119 132 -46
36 -133 43 -202 19z m-222 -1488 c-3 -8 -9 -15 -14 -15 -10 0 -12 24 -3 33 11
11 24 -3 17 -18z"/>
</g>
</svg>
