<?xml version="1.0" standalone="no"?>
<!DOCTYPE svg PUBLIC "-//W3C//DTD SVG 20010904//EN"
 "http://www.w3.org/TR/2001/REC-SVG-20010904/DTD/svg10.dtd">
<svg version="1.0" xmlns="http://www.w3.org/2000/svg"
 width="480.000000pt" height="360.000000pt" viewBox="0 0 480.000000 360.000000"
 preserveAspectRatio="xMidYMid meet">
<metadata>
Created by potrace 1.16, written by Peter Selinger 2001-2019
</metadata>
<rect width="1" height="360" fill="#000000"/>
<rect x="479" width="1" height="360" fill="#000000"/>
<rect width="480" height="1" fill="#000000"/>
<rect y="359" width="480" height="1" fill="#000000"/>
<g transform="translate(0.000000,360.000000) scale(0.100000,-0.100000)"
fill="#000000" stroke="none">
<path d="M0 1800 l0 -1800 274 0 274 0 6 68 c4 37 9 87 11 112 5 45 5 45 -27
45 -28 0 -33 4 -42 33 -7 25 -5 41 8 68 9 20 14 40 10 45 -3 5 2 21 10 35 19
28 13 117 -9 144 -7 8 -15 24 -17 35 -3 11 -9 27 -12 36 -5 12 -1 15 16 15 21
-1 23 3 23 47 0 37 5 53 21 66 13 11 23 34 27 66 4 28 14 74 23 103 16 49 16
54 0 71 -16 17 -16 23 -1 89 16 69 19 74 92 142 l75 70 -47 20 c-71 30 -83 27
-148 -42 -55 -57 -59 -60 -53 -33 5 25 27 163 52 329 4 21 7 55 9 75 2 20 11
106 20 191 12 100 14 155 8 157 -7 3 -6 23 2 58 16 66 3 82 -32 41 -22 -26
-26 -27 -56 -15 -18 7 -76 37 -129 66 -53 29 -104 53 -113 53 -22 0 -30 27
-16 53 10 19 8 32 -13 78 -31 71 -24 84 42 76 44 -5 53 -3 84 23 20 16 62 39
94 51 33 12 63 25 69 30 5 5 8 44 6 87 -7 197 66 400 185 511 71 67 131 94
263 119 l83 17 63 90 c35 49 85 114 112 144 l48 54 41 -54 c22 -30 62 -93 90
-141 l49 -86 65 -12 c200 -34 359 -138 474 -311 44 -67 80 -167 97 -265 10
-65 10 -77 -11 -138 l-22 -66 22 -43 c12 -23 42 -63 68 -89 l46 -48 -37 -38
c-20 -21 -37 -42 -37 -47 0 -28 90 -307 135 -420 79 -195 125 -285 145 -285
35 0 98 -105 76 -127 -3 -3 -27 17 -54 45 -69 71 -81 72 -148 18 -71 -58 -93
-64 -139 -36 -23 14 -48 21 -73 19 -20 -2 -60 4 -89 13 -41 13 -59 14 -87 6
-20 -6 -36 -14 -36 -18 0 -3 22 -12 49 -19 79 -20 244 -106 307 -160 21 -18
34 -31 28 -27 -8 3 -14 -12 -18 -44 -6 -42 -2 -58 22 -107 16 -32 43 -108 62
-170 l33 -111 43 16 c24 9 46 13 49 10 4 -3 -5 -30 -18 -60 -33 -71 -42 -139
-23 -175 8 -15 34 -47 58 -70 62 -59 178 -94 192 -58 7 20 40 19 153 -7 88
-20 96 -21 105 -5 12 23 17 22 138 -18 96 -31 106 -33 117 -18 12 15 19 14 85
-12 40 -15 90 -36 110 -46 23 -12 39 -15 43 -9 12 20 52 9 120 -32 51 -30 81
-41 109 -41 22 0 44 -4 50 -9 58 -48 140 -98 155 -93 13 4 39 -14 91 -62 l73
-68 399 -3 398 -3 0 1800 0 1801 -2400 0 -2400 0 0 -1800z m4506 1561 c-4 -6
-14 -11 -22 -11 -12 0 -13 4 -3 21 7 14 14 18 21 11 6 -6 7 -15 4 -21z m-771
-411 c3 -6 -1 -7 -9 -4 -18 7 -21 14 -7 14 6 0 13 -4 16 -10z m-591 -734 c50
12 30 -50 -42 -135 -29 -34 -30 -34 -41 -14 -6 12 -12 42 -13 67 -1 36 4 52
22 71 17 18 27 22 36 14 6 -5 24 -7 38 -3z m1290 -298 c-31 -29 -71 -62 -88
-74 -40 -27 -103 -50 -113 -40 -15 15 32 81 77 105 68 38 175 79 178 70 2 -5
-22 -33 -54 -61z m-424 -983 c0 -16 -35 -21 -44 -6 -8 12 4 21 26 21 10 0 18
-7 18 -15z"/>
</g>
</svg>
