<?xml version="1.0" standalone="no"?>
<!DOCTYPE svg PUBLIC "-//W3C//DTD SVG 20010904//EN"
 "http://www.w3.org/TR/2001/REC-SVG-20010904/DTD/svg10.dtd">
<svg version="1.0" xmlns="http://www.w3.org/2000/svg"
 width="480.000000pt" height="360.000000pt" viewBox="0 0 480.000000 360.000000"
 preserveAspectRatio="xMidYMid meet">
<metadata>
Created by potrace 1.16, written by Peter Selinger 2001-2019
</metadata>
<rect width="1" height="360" fill="#000000"/>
<rect x="479" width="1" height="360" fill="#000000"/>
<rect width="480" height="1" fill="#000000"/>
<rect y="359" width="480" height="1" fill="#000000"/>
<g transform="translate(0.000000,360.000000) scale(0.100000,-0.100000)"
fill="#000000" stroke="none">
<path d="M0 2745 l0 -856 33 5 c17 3 79 13 137 22 211 32 468 102 636 173 38
16 132 59 209 95 77 36 147 66 155 66 9 0 36 -21 60 -46 25 -25 115 -110 201
-189 85 -80 193 -188 240 -242 265 -306 336 -362 510 -402 155 -36 259 -39
259 -6 0 26 130 268 170 315 46 55 142 121 240 165 108 49 111 52 104 94 -11
63 -18 66 -47 22 -33 -49 -40 -51 -32 -8 6 32 6 32 -31 31 -29 -1 -40 -6 -47
-23 -17 -36 -29 -23 -22 23 9 58 -8 67 -47 27 -37 -37 -45 -34 -24 8 17 32 21
61 8 61 -4 0 -31 -21 -60 -46 -28 -25 -52 -44 -52 -41 0 2 13 28 30 58 42 76
40 96 -10 109 -46 12 -47 17 -20 62 26 43 25 60 -5 88 -14 13 -25 20 -25 16 0
-5 -7 -3 -15 4 -25 21 -27 5 -3 -26 22 -28 21 -28 -22 6 -29 23 -42 29 -37 17
10 -27 -20 -21 -49 11 -21 22 -24 23 -19 7 4 -15 -2 -11 -24 12 -18 20 -32 49
-36 75 -11 65 -20 75 -35 39 -15 -38 -33 -41 -24 -5 l7 26 -45 -26 c-25 -14
-54 -26 -66 -26 -46 0 -120 51 -135 93 -5 13 1 21 21 29 30 13 168 126 221
182 l34 35 -16 53 c-24 76 -31 141 -18 166 6 11 30 27 53 34 35 12 46 23 68
64 58 113 149 194 306 273 123 61 186 75 324 68 63 -3 152 -15 197 -26 47 -12
96 -18 112 -15 28 6 39 -2 131 -92 118 -115 192 -220 210 -294 16 -66 8 -207
-15 -272 -16 -45 -16 -48 6 -90 39 -77 108 -158 155 -181 49 -23 58 -53 28
-96 -16 -22 -16 -22 -38 -3 -21 19 -124 48 -134 37 -3 -3 4 -19 17 -35 l22
-30 -27 0 -26 0 26 -47 c15 -25 24 -48 22 -50 -2 -2 -21 5 -42 16 -38 21 -64
27 -64 15 0 -3 9 -18 21 -32 18 -24 19 -28 4 -38 -9 -7 -13 -18 -8 -29 8 -21
-8 -15 -45 19 -20 17 -24 18 -33 6 -5 -8 -7 -24 -5 -35 15 -62 18 -105 8 -105
-6 0 -27 14 -45 30 -19 17 -39 30 -45 30 -14 0 -24 -33 -16 -54 4 -9 1 -16 -6
-16 -8 0 -10 -11 -5 -32 l6 -33 -26 29 -26 28 7 -28 c4 -16 15 -47 25 -69 20
-43 18 -55 -6 -35 -13 11 -14 9 -1 -21 8 -19 29 -42 47 -53 88 -50 100 -65
176 -223 l74 -153 72 0 c78 0 271 25 290 37 7 5 86 8 177 8 232 1 313 26 453
136 l67 54 0 952 0 953 -2400 0 -2400 0 0 -855z"/>
<path d="M1035 2034 c-44 -26 -82 -48 -84 -50 -1 -1 4 -13 13 -25 8 -13 13
-32 10 -44 -4 -16 1 -24 18 -32 14 -6 47 -49 76 -99 41 -70 52 -96 48 -119 -3
-16 -17 -147 -31 -290 -28 -285 -35 -327 -52 -332 -14 -5 -41 45 -82 150 -16
40 -40 99 -54 132 -90 215 -127 311 -127 326 0 27 37 174 49 198 7 11 16 21
21 21 15 0 12 30 -3 36 -7 2 -58 -13 -113 -35 -54 -22 -146 -52 -204 -67 -58
-16 -108 -33 -112 -39 -4 -5 5 -21 22 -35 54 -47 135 -179 126 -208 -3 -9 -12
-125 -21 -257 -22 -349 -25 -364 -58 -327 -8 9 -75 139 -147 287 l-132 270 17
90 c13 65 24 97 42 116 16 17 21 29 14 33 -6 4 -11 16 -11 27 0 14 -7 19 -27
19 -27 0 -134 -14 -200 -25 l-33 -6 0 -874 0 -875 1155 0 c916 0 1156 3 1159
13 2 6 14 66 26 132 13 66 38 163 56 215 36 106 38 115 59 325 15 142 40 336
50 381 4 17 -3 22 -38 31 -23 6 -43 10 -45 8 -2 -1 9 -28 23 -59 l26 -56 -56
-323 c-30 -179 -57 -332 -61 -341 -18 -46 -39 -4 -92 179 -22 77 -61 209 -86
292 -25 84 -46 162 -46 173 0 39 51 180 76 209 35 42 21 74 -43 95 -63 21
-206 56 -210 52 -2 -2 13 -39 32 -82 42 -91 44 -51 -15 -424 -52 -329 -59
-354 -87 -317 -13 16 -203 611 -203 635 0 45 51 188 74 207 39 32 40 90 3 145
-62 91 -200 250 -217 250 -4 0 11 -35 32 -77 l38 -78 -40 -310 c-46 -355 -46
-355 -65 -355 -19 0 -20 2 -70 142 -24 68 -73 204 -109 304 l-65 180 23 91
c25 99 31 112 57 131 11 7 16 19 12 28 -3 8 0 25 6 37 11 20 2 31 -100 135
-61 61 -119 112 -128 112 -9 0 -52 -21 -96 -46z"/>
<path d="M2990 2019 c0 -11 5 -17 10 -14 6 3 10 13 10 21 0 8 -4 14 -10 14 -5
0 -10 -9 -10 -21z"/>
<path d="M3400 1892 c0 -5 7 -15 15 -22 8 -7 15 -8 15 -2 0 5 -7 15 -15 22 -8
7 -15 8 -15 2z"/>
<path d="M4610 1453 c-14 -2 -66 -12 -116 -24 -75 -16 -93 -24 -102 -43 -9
-20 -7 -25 12 -34 13 -6 38 -44 65 -98 l43 -88 -52 -289 c-28 -158 -54 -295
-57 -303 -6 -17 -18 -18 -30 -2 -8 10 -123 357 -185 556 -8 28 -6 46 17 110
15 42 40 90 54 106 l26 29 -75 -7 c-41 -3 -128 -9 -192 -12 -102 -6 -118 -9
-118 -24 0 -9 9 -25 21 -36 25 -23 89 -158 89 -189 0 -40 -91 -568 -101 -587
-6 -10 -14 -16 -19 -13 -5 3 -41 106 -80 228 -39 122 -78 244 -87 270 -8 27
-17 46 -19 44 -7 -7 25 -464 37 -536 12 -65 8 -307 -7 -449 l-7 -62 537 0 536
0 -2 357 -3 358 -93 282 -93 282 27 83 c15 46 29 86 31 91 4 7 -12 7 -57 0z"/>
<path d="M3728 1334 c-36 -26 -37 -27 -22 -55 14 -28 34 -39 34 -19 0 5 9 17
20 28 15 13 18 25 12 45 l-7 27 -37 -26z"/>
<path d="M2368 1186 c13 -10 28 -29 32 -42 12 -31 18 -30 58 7 49 46 43 54
-41 54 l-73 0 24 -19z"/>
</g>
</svg>
