<?xml version="1.0" standalone="no"?>
<!DOCTYPE svg PUBLIC "-//W3C//DTD SVG 20010904//EN"
 "http://www.w3.org/TR/2001/REC-SVG-20010904/DTD/svg10.dtd">
<svg version="1.0" xmlns="http://www.w3.org/2000/svg"
 width="480.000000pt" height="360.000000pt" viewBox="0 0 480.000000 360.000000"
 preserveAspectRatio="xMidYMid meet">
<metadata>
Created by potrace 1.16, written by Peter Selinger 2001-2019
</metadata>
<rect width="1" height="360" fill="#000000"/>
<rect x="479" width="1" height="360" fill="#000000"/>
<rect width="480" height="1" fill="#000000"/>
<rect y="359" width="480" height="1" fill="#000000"/>
<g transform="translate(0.000000,360.000000) scale(0.100000,-0.100000)"
fill="#000000" stroke="none">
<path d="M0 3494 l0 -106 68 93 c37 52 71 100 76 107 5 9 -11 12 -68 12 l-76
0 0 -106z"/>
<path d="M4372 3588 c74 -200 105 -465 77 -653 -6 -38 -12 -81 -14 -95 -9 -57
-48 -209 -67 -255 -29 -72 -58 -138 -69 -155 -11 -19 -49 -84 -69 -119 -69
-123 -256 -311 -414 -417 -136 -92 -289 -155 -486 -200 -96 -22 -140 -26 -270
-26 -243 -1 -449 41 -625 129 -231 114 -400 160 -621 170 -411 18 -815 -136
-1090 -415 -270 -273 -424 -645 -424 -1027 0 -143 31 -328 76 -452 13 -36 24
-68 24 -69 0 -2 951 -4 2113 -4 l2113 0 87 118 87 117 0 1572 0 1571 -77 109
-78 108 -139 3 c-109 2 -137 0 -134 -10z m-2460 -2696 c177 -87 235 -277 142
-462 -55 -109 -153 -168 -282 -169 -132 -2 -256 76 -317 196 -21 42 -26 67
-27 132 0 72 3 88 35 155 39 83 90 129 182 166 78 31 181 24 267 -18z"/>
<path d="M2902 3351 c-161 -60 -267 -230 -248 -398 19 -155 88 -247 240 -319
75 -36 79 -37 169 -32 74 5 103 11 146 33 84 43 140 100 176 180 41 91 46 118
36 208 -16 138 -86 236 -217 301 -70 35 -89 40 -164 43 -66 3 -97 -1 -138 -16z"/>
<path d="M1 113 l-1 -113 80 0 c44 0 80 2 80 5 0 3 -28 42 -62 88 -35 46 -71
94 -80 107 -16 24 -17 21 -17 -87z"/>
</g>
</svg>
