<?xml version="1.0" standalone="no"?>
<!DOCTYPE svg PUBLIC "-//W3C//DTD SVG 20010904//EN"
 "http://www.w3.org/TR/2001/REC-SVG-20010904/DTD/svg10.dtd">
<svg version="1.0" xmlns="http://www.w3.org/2000/svg"
 width="480.000000pt" height="360.000000pt" viewBox="0 0 480.000000 360.000000"
 preserveAspectRatio="xMidYMid meet">
<metadata>
Created by potrace 1.16, written by Peter Selinger 2001-2019
</metadata>
<rect width="1" height="360" fill="#000000"/>
<rect x="479" width="1" height="360" fill="#000000"/>
<rect width="480" height="1" fill="#000000"/>
<rect y="359" width="480" height="1" fill="#000000"/>
<g transform="translate(0.000000,360.000000) scale(0.100000,-0.100000)"
fill="#000000" stroke="none">
<path d="M1598 3568 c11 -56 7 -319 -7 -398 -25 -150 -130 -411 -199 -499 -15
-18 -31 -41 -37 -50 -38 -64 -272 -291 -301 -291 -6 0 -19 -9 -29 -20 -52 -58
-303 -161 -475 -195 -113 -22 -265 -27 -390 -11 -63 8 -125 18 -138 22 l-22 6
0 -1066 0 -1066 1315 0 c723 0 1315 3 1315 6 0 4 12 74 26 158 19 111 44 205
95 356 73 218 95 304 129 495 11 66 32 180 47 253 22 115 24 141 15 185 -6 29
-14 81 -18 116 -6 59 -9 64 -39 77 -18 7 -47 30 -65 50 -29 34 -32 42 -28 85
3 30 16 64 32 90 15 22 26 43 23 45 -2 2 -50 -14 -106 -36 -129 -50 -146 -51
-161 -5 -13 39 -18 41 -46 20 -26 -20 -32 -19 -36 8 -3 21 -8 22 -133 28 -81
4 -179 17 -260 34 -71 15 -161 31 -200 35 -38 5 -80 11 -91 15 -34 11 -67 -12
-61 -41 5 -31 -13 -27 -29 5 l-12 23 -7 -22 c-4 -14 -12 -19 -22 -16 -8 3 -19
6 -24 6 -5 0 -9 13 -9 29 0 16 -6 31 -12 34 -19 6 1 37 41 64 48 32 112 39
195 19 72 -17 429 -50 522 -49 62 1 94 16 94 44 0 16 4 19 18 14 43 -18 52
-17 61 8 5 14 15 28 20 32 6 3 55 -4 110 -16 98 -22 100 -22 183 -5 108 23
118 28 94 55 -18 20 -18 21 7 32 36 17 24 30 -15 17 -27 -10 -33 -9 -42 6 -6
10 -28 40 -49 67 -36 46 -38 50 -23 71 9 12 16 25 16 29 0 7 -49 23 -62 21
-12 -3 -48 50 -48 70 0 11 -4 16 -10 13 -21 -13 -9 54 19 110 l29 57 -34 54
c-19 29 -39 65 -44 79 -13 35 3 65 36 65 40 0 275 -57 309 -74 17 -9 44 -16
60 -16 81 -1 198 -97 233 -190 11 -30 25 -91 32 -135 7 -52 22 -98 40 -131 45
-80 63 -165 56 -256 -4 -43 -9 -84 -12 -92 -3 -8 15 -37 45 -70 54 -60 66
-101 35 -127 -14 -11 -14 -14 -2 -23 17 -13 20 -45 6 -63 -6 -8 3 -42 26 -101
35 -87 36 -94 37 -223 0 -74 5 -172 10 -219 5 -47 12 -134 15 -195 4 -60 11
-116 17 -123 7 -9 6 -16 -2 -25 -10 -9 -17 -7 -33 13 l-21 25 6 -25 c3 -14 9
-36 13 -49 6 -21 5 -23 -14 -19 -12 4 -22 4 -22 2 0 -9 124 -293 156 -357 44
-87 116 -270 139 -354 l18 -63 448 0 449 0 0 1800 0 1800 -1604 0 -1604 0 6
-32z"/>
</g>
</svg>
