<?xml version="1.0" standalone="no"?>
<!DOCTYPE svg PUBLIC "-//W3C//DTD SVG 20010904//EN"
 "http://www.w3.org/TR/2001/REC-SVG-20010904/DTD/svg10.dtd">
<svg version="1.0" xmlns="http://www.w3.org/2000/svg"
 width="480.000000pt" height="360.000000pt" viewBox="0 0 480.000000 360.000000"
 preserveAspectRatio="xMidYMid meet">
<metadata>
Created by potrace 1.16, written by Peter Selinger 2001-2019
</metadata>
<rect width="1" height="360" fill="#000000"/>
<rect x="479" width="1" height="360" fill="#000000"/>
<rect width="480" height="1" fill="#000000"/>
<rect y="359" width="480" height="1" fill="#000000"/>
<g transform="translate(0.000000,360.000000) scale(0.100000,-0.100000)"
fill="#000000" stroke="none">
<path d="M0 1800 l0 -1800 2105 0 2105 0 -16 37 c-9 21 -21 52 -26 68 -25 74
-64 139 -87 145 -34 8 -47 46 -20 60 15 8 18 17 13 33 -12 39 -109 241 -135
282 -14 22 -28 56 -31 76 -4 19 -19 62 -35 95 l-28 60 9 354 c8 330 5 421 -18
702 -4 43 3 50 59 68 22 7 45 19 52 27 6 8 29 16 51 19 74 7 132 62 132 126 0
18 -32 65 -86 128 -17 20 -23 43 -28 114 -6 87 -12 129 -61 446 -13 85 -29
198 -35 250 -6 52 -18 136 -25 185 -8 50 -17 115 -20 145 -3 30 -11 83 -17
118 l-10 62 -1924 0 -1924 0 0 -1800z"/>
</g>
</svg>
