<?xml version="1.0" standalone="no"?>
<!DOCTYPE svg PUBLIC "-//W3C//DTD SVG 20010904//EN"
 "http://www.w3.org/TR/2001/REC-SVG-20010904/DTD/svg10.dtd">
<svg version="1.0" xmlns="http://www.w3.org/2000/svg"
 width="480.000000pt" height="360.000000pt" viewBox="0 0 480.000000 360.000000"
 preserveAspectRatio="xMidYMid meet">
<metadata>
Created by potrace 1.16, written by Peter Selinger 2001-2019
</metadata>
<rect width="1" height="360" fill="#000000"/>
<rect x="479" width="1" height="360" fill="#000000"/>
<rect width="480" height="1" fill="#000000"/>
<rect y="359" width="480" height="1" fill="#000000"/>
<g transform="translate(0.000000,360.000000) scale(0.100000,-0.100000)"
fill="#000000" stroke="none">
<path d="M0 1800 l0 -1800 2400 0 2400 0 0 1800 0 1800 -2400 0 -2400 0 0
-1800z m2300 1080 c0 -5 16 -10 35 -10 42 0 45 -17 14 -60 -48 -65 19 -83 92
-25 38 30 51 35 99 34 79 0 116 -17 210 -95 76 -64 81 -69 56 -72 -16 -2 -45
7 -71 22 -56 33 -83 33 -95 0 -17 -43 -12 -52 40 -69 37 -12 61 -29 91 -65 23
-27 53 -53 68 -59 37 -14 99 -72 84 -78 -10 -3 -10 -10 -2 -25 9 -17 8 -19 -9
-14 -11 4 -23 2 -27 -4 -4 -7 -21 -9 -45 -5 -23 4 -41 2 -45 -4 -4 -7 5 -11
23 -11 36 0 42 -13 42 -90 l0 -59 43 -6 c23 -3 80 -7 127 -8 74 -2 85 -4 88
-21 4 -17 -2 -18 -57 -14 -67 5 -69 1 -8 -23 28 -12 41 -22 39 -33 -4 -20 0
-20 132 4 126 23 165 24 251 8 49 -8 62 -15 58 -26 -5 -11 -1 -13 14 -8 18 6
20 3 15 -19 -3 -21 0 -27 17 -32 11 -3 21 -12 21 -20 0 -11 8 -14 29 -11 20 3
27 0 24 -8 -2 -6 9 -18 25 -25 27 -12 28 -14 14 -25 -15 -11 -15 -15 -2 -40
10 -19 12 -28 4 -31 -6 -2 -10 -17 -8 -34 3 -27 1 -30 -19 -24 -17 5 -19 4 -7
-4 11 -8 12 -13 4 -21 -9 -9 -20 -8 -43 4 -26 14 -31 14 -31 2 0 -8 -18 -23
-40 -33 -27 -14 -36 -23 -29 -30 12 -12 -38 -12 -57 -1 -6 4 -24 12 -40 18
l-29 10 33 -27 c18 -16 32 -32 32 -36 0 -5 -20 8 -44 28 -53 43 -73 49 -240
76 -146 24 -189 37 -258 79 -44 27 -105 40 -121 24 -3 -3 1 -28 9 -56 9 -27
14 -64 12 -81 -2 -26 -8 -33 -30 -35 -21 -3 -30 3 -41 24 l-15 28 -7 -33 c-4
-18 -13 -35 -21 -38 -27 -10 -43 17 -46 80 -3 61 -3 61 -38 68 -19 4 -81 3
-137 -4 -113 -12 -129 -7 -135 41 -3 25 -7 28 -78 38 -41 6 -136 14 -210 17
l-135 6 75 -17 c62 -14 75 -20 72 -34 -2 -10 -7 -18 -10 -18 -25 0 -200 35
-261 51 -72 20 -74 20 -108 2 -34 -18 -35 -18 -48 2 -28 39 -34 42 -92 49 -32
4 -63 10 -69 14 -13 9 -44 54 -44 64 0 13 108 9 294 -12 98 -10 255 -25 349
-32 l170 -12 41 46 c55 62 120 191 108 215 -5 10 -13 44 -16 76 -7 57 -25 87
-51 87 -21 0 -54 48 -48 70 3 11 12 20 19 20 8 0 14 5 14 10 0 6 7 10 15 10
22 0 37 43 19 53 -8 5 -50 44 -94 87 -57 57 -80 86 -80 104 0 34 11 38 47 16
l32 -19 -6 32 c-6 40 11 87 32 87 8 0 15 -4 15 -10z"/>
<path d="M2413 2493 c-16 -6 -17 -34 -1 -68 14 -32 26 -32 38 0 7 20 6 32 -6
50 -9 14 -17 25 -18 24 0 0 -7 -3 -13 -6z"/>
<path d="M2731 2333 c12 -14 12 -16 -1 -11 -54 20 -60 20 -60 -1 0 -33 19 -71
35 -71 8 0 15 4 15 9 0 5 11 23 25 40 25 29 25 30 6 40 -28 16 -35 13 -20 -6z"/>
<path d="M2459 2198 c-7 -18 -30 -59 -51 -90 -21 -32 -41 -71 -44 -88 -10 -50
20 -37 102 43 l75 73 -27 47 c-14 26 -29 47 -34 47 -4 0 -13 -15 -21 -32z"/>
<path d="M2840 2125 c-9 -11 -3 -16 32 -25 24 -6 50 -13 59 -16 9 -2 27 0 40
5 22 8 18 10 -36 26 -33 9 -65 18 -72 20 -6 2 -17 -2 -23 -10z"/>
</g>
</svg>
