<?xml version="1.0" standalone="no"?>
<!DOCTYPE svg PUBLIC "-//W3C//DTD SVG 20010904//EN"
 "http://www.w3.org/TR/2001/REC-SVG-20010904/DTD/svg10.dtd">
<svg version="1.0" xmlns="http://www.w3.org/2000/svg"
 width="480.000000pt" height="360.000000pt" viewBox="0 0 480.000000 360.000000"
 preserveAspectRatio="xMidYMid meet">
<metadata>
Created by potrace 1.16, written by Peter Selinger 2001-2019
</metadata>
<rect width="1" height="360" fill="#000000"/>
<rect x="479" width="1" height="360" fill="#000000"/>
<rect width="480" height="1" fill="#000000"/>
<rect y="359" width="480" height="1" fill="#000000"/>
<g transform="translate(0.000000,360.000000) scale(0.100000,-0.100000)"
fill="#000000" stroke="none">
<path d="M0 1800 l0 -1800 288 1 287 0 81 102 c94 118 109 143 96 160 -6 7
-15 38 -21 69 -11 49 -10 61 5 89 11 22 14 45 11 74 -4 29 -1 48 9 63 12 17
12 26 3 43 -10 19 -8 25 9 38 16 13 22 33 27 95 7 74 9 79 35 89 35 13 58 67
35 83 -19 14 -20 93 -1 138 9 22 36 50 75 77 34 24 61 50 61 58 5 153 -3 328
-17 373 -16 51 -17 52 -26 26 l-10 -26 -21 31 c-12 17 -35 38 -51 47 -17 8
-32 16 -34 17 -2 2 1 9 8 17 7 8 9 25 6 38 -3 13 1 40 10 61 22 54 30 148 15
178 -7 13 -33 41 -56 62 -50 44 -114 165 -141 267 -25 91 -24 257 0 328 33 92
91 166 210 265 206 172 285 219 438 263 52 14 126 37 166 50 40 13 100 27 133
31 33 3 62 9 65 12 2 4 -3 52 -11 106 -7 55 -14 118 -14 140 l1 40 29 -35 c17
-19 82 -104 146 -188 64 -84 137 -172 161 -195 61 -57 123 -146 167 -238 61
-128 84 -153 157 -172 56 -14 66 -14 98 0 82 34 79 34 115 3 19 -17 45 -30 60
-30 36 0 42 -32 21 -121 -26 -115 -42 -130 -95 -89 -30 23 -44 25 -58 7 -9
-10 -5 -30 11 -78 19 -54 21 -68 10 -78 -7 -6 -13 -29 -13 -50 0 -22 -6 -44
-15 -51 -8 -7 -15 -21 -15 -32 0 -10 -4 -17 -9 -14 -12 8 -21 -18 -21 -56 0
-27 -2 -29 -17 -17 -9 8 -14 9 -11 4 4 -6 3 -17 -1 -24 -6 -9 -12 -3 -20 21
-13 37 -14 36 -57 -45 -24 -46 -25 -52 -14 -120 6 -40 15 -73 20 -75 14 -5 12
-40 -3 -45 -8 -3 -2 -23 21 -66 34 -64 31 -78 -8 -36 -13 14 -29 25 -35 25 -7
0 -20 -27 -30 -61 -16 -53 -17 -66 -6 -111 12 -43 11 -52 -2 -65 -11 -12 -19
-12 -35 -4 -15 8 -27 7 -49 -4 -18 -10 -57 -15 -109 -15 -76 0 -82 -2 -108
-29 -22 -23 -27 -36 -22 -55 7 -27 3 -25 166 -66 47 -12 135 -36 195 -55 61
-18 126 -37 146 -40 41 -8 126 -85 115 -104 -10 -15 -1 -14 94 13 122 34 255
48 410 43 344 -13 650 -140 938 -390 56 -49 102 -93 102 -97 0 -4 27 -37 60
-73 55 -59 210 -288 210 -308 0 -5 -125 -72 -277 -148 l-278 -140 493 0 492
-1 0 1800 0 1800 -2400 0 -2400 0 0 -1800z m635 1130 c3 -5 1 -10 -4 -10 -6 0
-11 5 -11 10 0 6 2 10 4 10 3 0 8 -4 11 -10z m3883 -208 c3 -9 -3 -13 -19 -10
-12 1 -24 9 -27 16 -3 9 3 13 19 10 12 -1 24 -9 27 -16z m-1565 -546 c28 -19
46 -62 31 -75 -5 -4 -38 -16 -72 -26 -80 -23 -95 -16 -103 51 -6 40 -3 52 11
65 23 20 91 12 133 -15z m-2558 -46 c-3 -5 -11 -10 -16 -10 -6 0 -7 5 -4 10 3
6 11 10 16 10 6 0 7 -4 4 -10z m4279 -416 c15 -6 23 -34 10 -34 -13 0 -44 21
-44 30 0 11 11 13 34 4z m-574 -349 c0 -9 -6 -12 -15 -9 -8 4 -12 10 -9 15 8
14 24 10 24 -6z m0 -101 c0 -8 -4 -12 -10 -9 -5 3 -10 10 -10 16 0 5 5 9 10 9
6 0 10 -7 10 -16z m-3496 -1049 c9 -24 -2 -40 -43 -63 -58 -33 -66 -27 -29 21
47 61 61 69 72 42z"/>
</g>
</svg>
