<?xml version="1.0" standalone="no"?>
<!DOCTYPE svg PUBLIC "-//W3C//DTD SVG 20010904//EN"
 "http://www.w3.org/TR/2001/REC-SVG-20010904/DTD/svg10.dtd">
<svg version="1.0" xmlns="http://www.w3.org/2000/svg"
 width="480.000000pt" height="360.000000pt" viewBox="0 0 480.000000 360.000000"
 preserveAspectRatio="xMidYMid meet">
<metadata>
Created by potrace 1.16, written by Peter Selinger 2001-2019
</metadata>
<rect width="1" height="360" fill="#000000"/>
<rect x="479" width="1" height="360" fill="#000000"/>
<rect width="480" height="1" fill="#000000"/>
<rect y="359" width="480" height="1" fill="#000000"/>
<g transform="translate(0.000000,360.000000) scale(0.100000,-0.100000)"
fill="#000000" stroke="none">
<path d="M0 1800 l0 -1800 1235 0 c1183 0 1235 1 1235 18 0 10 5 23 11 29 7 7
6 36 -3 97 -11 80 -14 87 -38 92 -35 8 -141 44 -164 57 -15 7 -22 5 -32 -7
-10 -14 -22 -16 -73 -10 -34 3 -62 12 -63 18 0 6 -2 16 -2 21 -1 6 -6 17 -11
25 -5 8 -10 21 -11 27 -1 7 -12 24 -23 39 -16 21 -20 35 -15 68 15 114 41 200
91 306 83 174 86 183 84 216 -1 17 7 47 18 67 11 19 23 53 27 74 14 80 58 230
82 282 15 33 15 38 -17 129 -18 51 -31 95 -29 97 2 1 17 10 34 18 29 15 34 24
48 94 14 65 32 124 55 177 2 5 -1 6 -8 2 -6 -4 -20 -9 -30 -11 -23 -4 -20 10
16 67 27 43 28 48 10 48 -7 0 -43 31 -80 70 -85 88 -88 123 -12 162 17 9 40
29 51 45 12 16 51 49 88 74 36 24 66 49 66 56 0 6 -16 30 -35 53 -19 23 -35
49 -36 58 -4 72 0 67 -56 70 -29 2 -53 5 -53 8 0 3 18 29 40 59 l40 54 -32 22
-32 23 32 13 c31 13 42 36 22 48 -6 3 -10 15 -10 25 0 24 28 20 67 -10 29 -20
30 -21 118 -4 50 9 126 17 170 18 44 2 90 8 101 14 82 44 160 56 138 21 -17
-26 -33 -84 -26 -91 4 -4 34 -14 66 -22 92 -24 99 -42 24 -66 -21 -6 -38 -16
-38 -21 0 -5 -20 -14 -45 -20 -43 -11 -45 -13 -45 -46 0 -53 27 -131 70 -203
135 -226 181 -323 198 -420 8 -43 7 -64 -5 -99 -17 -50 -30 -32 117 -160 108
-94 180 -167 180 -181 0 -7 -24 -10 -72 -7 -40 2 -81 0 -91 -5 -33 -17 -63 0
-150 87 -48 47 -90 85 -95 85 -5 0 -21 10 -35 23 -14 12 -41 33 -60 47 -20 14
-45 44 -56 68 -25 51 -41 47 -41 -9 0 -28 11 -61 35 -104 l35 -63 65 -7 c53
-5 65 -10 65 -25 0 -9 -16 -69 -35 -131 l-35 -114 28 -36 c73 -97 113 -147
140 -176 16 -17 39 -47 50 -65 15 -24 44 -46 97 -73 102 -52 178 -106 269
-192 83 -78 96 -112 56 -146 -26 -22 -25 -34 3 -48 32 -17 32 -17 10 -36 -11
-10 -32 -48 -48 -85 -26 -65 -49 -92 -120 -141 -14 -10 -38 -42 -52 -70 -40
-82 -68 -98 -181 -109 -58 -5 -117 -17 -147 -30 -53 -22 -96 -24 -237 -13
l-77 7 -6 -28 c-4 -16 -9 -35 -11 -42 -2 -8 2 -20 10 -28 11 -11 12 -21 4 -47
-5 -17 -12 -42 -15 -55 l-5 -22 996 0 996 0 0 1800 0 1800 -2400 0 -2400 0 0
-1800z"/>
<path d="M2970 2267 c0 -13 15 -38 35 -57 42 -41 43 -36 9 30 -28 54 -44 64
-44 27z"/>
<path d="M2890 1710 c0 -5 7 -10 16 -10 8 0 12 5 9 10 -3 6 -10 10 -16 10 -5
0 -9 -4 -9 -10z"/>
</g>
</svg>
