<?xml version="1.0" standalone="no"?>
<!DOCTYPE svg PUBLIC "-//W3C//DTD SVG 20010904//EN"
 "http://www.w3.org/TR/2001/REC-SVG-20010904/DTD/svg10.dtd">
<svg version="1.0" xmlns="http://www.w3.org/2000/svg"
 width="480.000000pt" height="360.000000pt" viewBox="0 0 480.000000 360.000000"
 preserveAspectRatio="xMidYMid meet">
<metadata>
Created by potrace 1.16, written by Peter Selinger 2001-2019
</metadata>
<rect width="1" height="360" fill="#000000"/>
<rect x="479" width="1" height="360" fill="#000000"/>
<rect width="480" height="1" fill="#000000"/>
<rect y="359" width="480" height="1" fill="#000000"/>
<g transform="translate(0.000000,360.000000) scale(0.100000,-0.100000)"
fill="#000000" stroke="none">
<path d="M2980 3409 c-108 -18 -232 -77 -244 -117 -6 -18 -10 -18 -44 -7 -46
16 -145 3 -182 -24 -25 -18 -26 -18 -42 4 -9 12 -38 28 -65 36 -68 20 -232 18
-324 -4 -72 -17 -76 -19 -92 -56 -9 -21 -17 -42 -17 -47 0 -18 45 -149 54
-155 5 -4 6 -14 3 -22 -6 -17 19 -92 39 -117 6 -8 15 -25 18 -36 4 -12 15 -29
25 -38 17 -16 22 -16 56 -2 21 9 41 16 46 16 16 0 9 -72 -12 -130 -20 -55 -20
-59 -4 -84 12 -18 26 -26 46 -26 34 0 34 7 9 -145 -23 -142 -24 -157 -9 -135
7 11 8 3 4 -28 -4 -24 -3 -48 3 -55 14 -17 19 -86 7 -95 -32 -22 -66 -81 -85
-146 l-22 -74 -52 -7 c-68 -9 -96 -35 -96 -91 0 -24 5 -54 11 -67 9 -19 7 -31
-6 -58 -35 -67 -195 -319 -261 -410 -37 -52 -70 -107 -74 -124 -3 -16 -2 -56
3 -89 7 -49 6 -67 -12 -113 -34 -89 -24 -138 34 -166 27 -13 36 -25 45 -59 70
-277 119 -365 197 -356 27 3 33 0 47 -29 15 -32 14 -37 -39 -193 l-54 -160
689 0 c525 0 690 3 690 12 0 6 -22 98 -50 204 -27 106 -50 196 -50 200 0 4 23
-26 52 -67 65 -92 193 -256 224 -287 20 -19 29 -21 56 -14 49 12 60 42 54 142
-3 57 -18 128 -44 217 -27 93 -36 137 -29 149 9 16 5 120 -9 229 -5 41 -1 60
19 104 l26 54 -20 39 c-11 21 -41 71 -67 111 -26 41 -58 92 -72 115 -14 23
-43 70 -64 104 -35 53 -42 75 -57 175 -10 63 -15 122 -12 131 4 9 19 33 35 53
15 20 28 44 28 52 0 23 -28 40 -73 46 l-42 6 -11 141 c-12 162 -19 179 -95
226 -52 33 -63 52 -53 92 5 20 2 26 -10 26 -9 0 -16 5 -16 10 0 6 5 10 11 10
6 0 9 9 6 20 -3 10 -1 20 3 22 4 2 13 53 19 113 17 152 33 245 44 252 5 3 19
7 31 8 11 1 24 3 28 4 4 0 14 13 22 29 17 34 9 58 -44 125 -54 68 -53 81 8 73
26 -3 53 -2 60 3 29 18 50 132 57 309 l4 112 -30 35 c-30 34 -33 35 -103 34
-39 -1 -96 -5 -126 -10z m-733 -1871 c-3 -8 -6 -5 -6 6 -1 11 2 17 5 13 3 -3
4 -12 1 -19z m15 -64 c2 -20 2 -50 0 -66 -7 -46 -22 -13 -22 50 0 59 16 71 22
16z m-15 -126 c-3 -8 -6 -5 -6 6 -1 11 2 17 5 13 3 -3 4 -12 1 -19z m742 -367
c1 -24 1 -24 -14 -5 -16 21 -19 62 -8 91 6 14 9 8 15 -22 4 -22 7 -51 7 -64z
m-945 -535 c-16 -48 -33 -85 -38 -83 -5 2 -15 12 -22 23 -12 17 -8 27 33 86
26 37 48 66 51 64 2 -3 -9 -43 -24 -90z"/>
<path d="M3461 14 c0 -11 3 -14 6 -6 3 7 2 16 -1 19 -3 4 -6 -2 -5 -13z"/>
</g>
</svg>
