<?xml version="1.0" standalone="no"?>
<!DOCTYPE svg PUBLIC "-//W3C//DTD SVG 20010904//EN"
 "http://www.w3.org/TR/2001/REC-SVG-20010904/DTD/svg10.dtd">
<svg version="1.0" xmlns="http://www.w3.org/2000/svg"
 width="480.000000pt" height="360.000000pt" viewBox="0 0 480.000000 360.000000"
 preserveAspectRatio="xMidYMid meet">
<metadata>
Created by potrace 1.16, written by Peter Selinger 2001-2019
</metadata>
<rect width="1" height="360" fill="#000000"/>
<rect x="479" width="1" height="360" fill="#000000"/>
<rect width="480" height="1" fill="#000000"/>
<rect y="359" width="480" height="1" fill="#000000"/>
<g transform="translate(0.000000,360.000000) scale(0.100000,-0.100000)"
fill="#000000" stroke="none">
<path d="M1354 2890 c-30 -12 -85 -133 -90 -195 -3 -47 5 -81 28 -132 6 -12 9
-51 6 -87 -4 -62 -2 -67 29 -103 l33 -38 -6 35 c-5 32 -4 33 8 14 7 -12 18
-19 23 -17 16 5 53 -27 38 -33 -51 -22 -79 -74 -53 -100 7 -7 -11 -33 -60 -82
-38 -40 -70 -77 -70 -83 0 -6 -9 -23 -19 -38 -46 -64 -33 -137 30 -183 l31
-23 -5 -82 c-4 -51 -13 -94 -24 -114 -10 -17 -24 -43 -32 -58 -8 -14 -20 -32
-28 -39 -9 -10 -10 -19 -3 -32 7 -14 2 -37 -20 -92 -16 -40 -30 -78 -30 -83 0
-6 -9 -18 -20 -28 -11 -9 -20 -26 -20 -37 0 -12 -7 -32 -16 -46 -13 -20 -14
-28 -5 -37 10 -9 16 -8 28 8 14 18 15 15 9 -50 -8 -106 -33 -313 -60 -511 -13
-99 -29 -262 -35 -364 -6 -102 -14 -202 -17 -223 l-7 -37 488 0 488 0 -7 33
c-7 34 -53 282 -61 332 -3 17 -16 113 -29 215 -33 253 -105 529 -191 732 -5
13 -2 15 17 11 20 -5 18 -1 -14 34 -21 21 -38 46 -38 55 0 10 20 56 45 102 50
94 51 109 31 241 -11 72 -10 83 6 113 17 31 17 32 -1 44 -15 9 -17 16 -10 30
5 10 8 18 5 18 -3 0 2 16 10 36 10 23 13 48 8 68 -7 35 -59 171 -75 200 -8 14
-8 21 1 26 6 4 9 17 5 32 -4 14 -2 29 3 32 5 3 13 -5 16 -19 7 -28 21 -33 30
-10 4 12 14 14 39 10 27 -5 36 -3 41 10 5 13 10 14 19 7 20 -17 44 32 58 116
10 62 10 78 -5 116 -9 24 -26 52 -36 61 -11 10 -25 35 -30 56 -10 37 -87 121
-148 161 -47 31 -111 39 -182 22 -57 -13 -65 -13 -72 1 -10 17 -23 18 -54 5z
m426 -536 c0 -8 -19 -13 -24 -6 -3 5 1 9 9 9 8 0 15 -2 15 -3z"/>
<path d="M3289 2166 c-3 -4 -31 -13 -62 -21 -31 -8 -73 -24 -94 -35 -21 -11
-43 -20 -49 -20 -13 0 -49 -39 -57 -63 -9 -25 10 -68 33 -74 38 -10 21 -38
-46 -76 -91 -53 -140 -107 -160 -175 -40 -136 24 -199 221 -218 77 -7 95 -16
95 -48 0 -18 -15 -26 -102 -55 -57 -18 -125 -42 -152 -52 -27 -10 -56 -19 -65
-19 -9 0 -45 20 -79 45 -67 49 -124 61 -136 29 -5 -13 -15 -15 -44 -12 -24 4
-45 0 -57 -8 -13 -9 -14 -14 -5 -14 9 0 6 -7 -8 -20 -12 -12 -22 -30 -22 -42
0 -11 -8 -27 -17 -34 -22 -16 -1 -19 28 -4 13 7 19 7 19 0 0 -5 -3 -10 -7 -10
-5 0 -23 -9 -41 -20 -28 -17 -32 -23 -22 -35 7 -8 9 -15 4 -15 -4 0 2 -10 15
-21 20 -18 26 -20 49 -10 22 11 24 10 12 -3 -10 -13 -10 -16 3 -16 9 0 27 5
40 11 21 9 30 8 55 -11 28 -20 39 -22 130 -18 l100 4 44 40 c57 52 97 76 192
114 94 38 110 35 101 -19 -5 -28 -2 -46 9 -64 9 -13 30 -61 46 -106 l30 -83
-17 -55 c-13 -42 -14 -56 -5 -62 10 -6 7 -20 -12 -57 -24 -48 -57 -165 -110
-394 -15 -63 -37 -143 -49 -178 -16 -47 -18 -68 -11 -80 13 -21 69 -41 154
-56 l64 -11 14 -48 13 -47 144 0 143 0 12 50 c11 46 14 50 48 56 131 22 139
30 107 111 -16 38 -40 150 -65 295 -21 128 -46 255 -54 282 -11 35 -12 54 -5
62 7 9 4 35 -10 86 -11 40 -25 109 -31 154 -6 45 -15 96 -20 114 -5 19 -8 35
-6 37 2 3 35 -28 72 -67 74 -77 126 -110 173 -110 16 0 72 7 123 15 51 8 114
17 140 20 35 5 46 10 41 21 -7 19 0 18 48 -7 48 -24 65 -17 29 12 l-25 20 33
-16 c48 -24 64 -12 20 15 -21 12 -38 24 -38 26 0 5 50 -17 78 -34 27 -17 40
-9 22 13 -10 12 -9 15 6 15 16 1 14 5 -11 27 -25 22 -26 25 -7 19 13 -5 22 -3
22 3 0 6 -6 11 -13 11 -7 0 -22 7 -33 16 -18 15 -18 15 4 10 59 -15 64 -15 27
2 -45 21 -77 52 -54 52 8 0 9 3 4 9 -6 6 -40 12 -77 14 -58 4 -70 8 -91 33
l-25 28 -43 -29 c-24 -17 -45 -33 -47 -37 -2 -5 -9 -8 -16 -8 -6 0 -27 -11
-46 -24 -62 -42 -70 -41 -148 16 -40 29 -104 73 -143 97 -55 34 -69 47 -62 60
4 9 7 37 8 63 0 47 0 47 60 83 78 46 151 123 159 169 12 61 -37 137 -112 175
-44 23 -136 41 -204 41 -42 0 -49 3 -62 28 -7 15 -11 41 -9 57 6 40 -22 74
-67 81 -19 3 -38 3 -41 0z"/>
<path d="M2448 1283 c6 -2 18 -2 25 0 6 3 1 5 -13 5 -14 0 -19 -2 -12 -5z"/>
</g>
</svg>
