<?xml version="1.0" standalone="no"?>
<!DOCTYPE svg PUBLIC "-//W3C//DTD SVG 20010904//EN"
 "http://www.w3.org/TR/2001/REC-SVG-20010904/DTD/svg10.dtd">
<svg version="1.0" xmlns="http://www.w3.org/2000/svg"
 width="480.000000pt" height="360.000000pt" viewBox="0 0 480.000000 360.000000"
 preserveAspectRatio="xMidYMid meet">
<metadata>
Created by potrace 1.16, written by Peter Selinger 2001-2019
</metadata>
<rect width="1" height="360" fill="#000000"/>
<rect x="479" width="1" height="360" fill="#000000"/>
<rect width="480" height="1" fill="#000000"/>
<rect y="359" width="480" height="1" fill="#000000"/>
<g transform="translate(0.000000,360.000000) scale(0.100000,-0.100000)"
fill="#000000" stroke="none">
<path d="M0 2706 l0 -894 88 -6 c149 -12 243 -26 347 -53 79 -21 125 -27 220
-27 112 -1 129 2 265 41 137 39 286 64 244 40 -10 -6 -34 -12 -54 -13 -47 -4
-49 -5 -20 -14 47 -15 65 -10 113 29 26 22 62 42 80 46 84 17 106 26 112 46 6
17 13 20 43 17 28 -4 45 1 69 19 18 14 37 21 44 17 8 -4 9 -3 5 5 -8 12 -28
13 604 -9 571 -20 809 -31 886 -41 174 -21 188 -22 225 -6 30 12 38 22 49 60
7 26 9 54 5 64 -6 17 -7 17 -19 1 -11 -15 -14 -14 -35 8 -13 14 -29 23 -36 20
-20 -7 -31 7 -50 67 -11 35 -33 75 -57 102 -23 26 -36 50 -32 57 5 7 2 9 -8 5
-9 -3 -39 8 -69 26 -48 29 -55 38 -74 92 -11 33 -24 65 -27 71 -8 11 7 86 22
112 5 9 19 42 30 73 52 143 157 231 336 280 116 32 208 25 305 -23 93 -46 176
-124 212 -198 25 -52 59 -174 87 -315 6 -33 21 -98 31 -146 11 -47 19 -107 17
-135 l-3 -49 -25 65 c-15 39 -26 58 -28 47 -2 -11 -9 -16 -18 -13 -8 3 -17 0
-19 -7 -3 -10 -13 -143 -15 -199 0 -12 -8 -18 -22 -18 -21 0 -20 -2 8 -19 18
-11 35 -25 39 -31 5 -8 25 -10 66 -5 44 5 69 3 104 -11 25 -9 44 -22 42 -28
-6 -20 -71 -46 -115 -46 l-43 0 43 -57 c23 -32 74 -92 114 -133 84 -88 103
-128 111 -230 5 -65 15 -94 71 -215 35 -77 74 -147 85 -155 12 -8 93 -69 182
-135 88 -66 184 -138 213 -159 l52 -38 0 1456 0 1456 -2400 0 -2400 0 0 -894z
m3966 679 c-11 -8 -27 -15 -35 -15 -13 1 -12 4 3 15 11 8 27 15 35 15 13 -1
12 -4 -3 -15z m-356 -354 c0 -11 -50 -24 -58 -16 -8 8 19 25 41 25 9 0 17 -4
17 -9z m990 -993 c0 -23 -34 -48 -66 -48 -43 0 -53 18 -24 42 25 20 90 25 90
6z m-200 -591 c0 -17 -20 -37 -37 -37 -18 0 -16 15 3 34 19 19 34 21 34 3z"/>
<path d="M3107 2288 c-7 -23 -1 -38 14 -38 5 0 9 14 9 30 0 35 -15 40 -23 8z"/>
<path d="M3365 2060 c-3 -5 1 -10 9 -10 9 0 16 5 16 10 0 6 -4 10 -9 10 -6 0
-13 -4 -16 -10z"/>
<path d="M1965 1673 c-71 -3 -270 -21 -337 -30 -55 -6 -62 -18 -18 -28 37 -8
93 -72 108 -124 38 -127 -16 -265 -131 -331 -59 -34 -93 -37 -159 -14 -58 19
-82 45 -74 77 6 24 7 24 94 19 102 -5 134 6 177 63 52 67 41 181 -19 212 -16
8 -67 18 -112 21 -80 5 -82 4 -99 -22 -22 -33 -47 -33 -89 -1 -34 26 -129 49
-169 42 -20 -3 -20 -4 8 -16 23 -10 26 -14 15 -21 -8 -6 -31 -10 -50 -10 -62
-1 -67 -16 -11 -35 52 -17 69 -37 29 -34 -13 1 -33 1 -46 1 -22 -2 -22 -3 -6
-27 l16 -25 -43 14 c-24 7 -83 27 -132 44 -204 73 -286 79 -512 37 -73 -13
-194 -27 -269 -31 l-136 -7 0 -724 0 -723 1576 2 1577 3 46 115 c63 153 119
258 190 355 l59 80 -19 24 c-25 32 -24 53 5 80 37 35 40 60 8 67 -96 22 -142
42 -142 65 0 5 12 27 26 49 75 112 61 228 -55 475 -21 44 -46 109 -55 145 -25
94 -41 110 -127 129 -66 15 -486 59 -721 76 -195 14 -259 15 -403 8z m1185
-152 c0 -22 -4 -43 -10 -46 -6 -4 -10 12 -10 39 0 25 5 46 10 46 6 0 10 -18
10 -39z m-2973 -283 c53 -55 60 -94 31 -171 -14 -36 -27 -31 -55 23 -18 33
-23 59 -23 112 0 37 4 68 8 68 4 0 22 -15 39 -32z m1337 -385 c-10 -7 -22 -12
-27 -10 -16 5 -10 22 14 34 30 16 41 -4 13 -24z m-34 -178 c21 -25 1 -31 -22
-7 -18 18 -19 22 -6 22 8 0 21 -7 28 -15z m334 -116 c23 -11 56 -62 56 -88 0
-32 -72 11 -94 56 -9 18 -16 36 -16 38 0 9 29 5 54 -6z"/>
<path d="M1510 1659 c0 -7 -11 -9 -27 -5 -28 5 -28 5 2 -9 17 -8 43 -14 59
-15 l29 0 -26 20 c-29 23 -37 25 -37 9z"/>
<path d="M4138 812 c-16 -18 -2 -98 22 -130 12 -16 22 -44 23 -63 2 -21 23
-65 59 -119 66 -102 122 -214 186 -375 l48 -120 162 -3 c157 -2 162 -2 162 18
0 11 -4 20 -8 20 -5 0 -14 11 -20 25 -15 33 -16 242 -1 284 16 44 -4 64 -81
79 -59 13 -66 18 -198 141 -255 240 -320 284 -354 243z"/>
</g>
</svg>
