<?xml version="1.0" standalone="no"?>
<!DOCTYPE svg PUBLIC "-//W3C//DTD SVG 20010904//EN"
 "http://www.w3.org/TR/2001/REC-SVG-20010904/DTD/svg10.dtd">
<svg version="1.0" xmlns="http://www.w3.org/2000/svg"
 width="480.000000pt" height="360.000000pt" viewBox="0 0 480.000000 360.000000"
 preserveAspectRatio="xMidYMid meet">
<metadata>
Created by potrace 1.16, written by Peter Selinger 2001-2019
</metadata>
<rect width="1" height="360" fill="#000000"/>
<rect x="479" width="1" height="360" fill="#000000"/>
<rect width="480" height="1" fill="#000000"/>
<rect y="359" width="480" height="1" fill="#000000"/>
<g transform="translate(0.000000,360.000000) scale(0.100000,-0.100000)"
fill="#000000" stroke="none">
<path d="M4531 3582 c-16 -31 -41 -171 -43 -241 -1 -80 16 -124 52 -129 13 -2
50 4 82 14 32 9 61 14 65 10 4 -3 -9 -19 -27 -35 -32 -26 -33 -30 -22 -55 13
-30 32 -32 93 -11 24 9 49 13 56 11 10 -4 13 40 13 224 l0 230 -130 0 c-113 0
-130 -2 -139 -18z"/>
<path d="M1472 2070 c-24 -26 -35 -78 -26 -117 12 -50 65 -146 134 -243 107
-150 102 -141 90 -194 -9 -41 -7 -54 10 -93 20 -46 16 -62 -16 -63 -13 0 -58
-47 -73 -77 -17 -33 -14 -65 14 -141 31 -85 31 -88 1 -96 -38 -9 -86 -71 -86
-110 0 -42 34 -207 54 -264 25 -71 52 -100 190 -202 183 -136 350 -241 580
-364 l197 -106 1130 0 1129 0 0 664 c0 433 -3 667 -10 671 -6 3 -10 23 -11 43
0 20 -4 45 -7 55 -7 16 -10 14 -30 -12 -12 -17 -22 -35 -22 -41 0 -5 -5 -10
-11 -10 -5 0 -7 5 -4 10 4 6 2 17 -4 24 -6 7 -17 31 -25 52 -14 39 -14 39 -24
14 -5 -14 -17 -32 -25 -39 -18 -14 -29 0 -41 53 -7 27 -8 28 -26 11 -11 -10
-20 -24 -20 -32 0 -8 -7 -21 -15 -29 -18 -18 -18 -19 -34 86 -21 135 -55 137
-123 5 -180 -350 -286 -502 -540 -776 -149 -160 -179 -188 -216 -199 -42 -13
-46 -12 -290 80 -136 51 -252 96 -258 101 -6 5 -9 22 -6 37 2 16 -4 58 -13 93
-9 35 -25 100 -36 144 -24 105 -120 372 -198 550 -10 22 -28 65 -40 95 -87
209 -106 233 -179 223 -59 -8 -87 -28 -106 -75 -14 -34 -14 -42 0 -85 9 -27
28 -70 42 -97 22 -41 26 -66 30 -156 3 -70 0 -114 -7 -128 -12 -22 -13 -21
-79 32 -64 51 -114 85 -185 125 -84 48 -146 88 -187 122 -25 20 -70 51 -100
70 -78 47 -242 197 -295 268 -47 64 -131 127 -184 137 -21 5 -33 1 -49 -16z"/>
</g>
</svg>
