<?xml version="1.0" standalone="no"?>
<!DOCTYPE svg PUBLIC "-//W3C//DTD SVG 20010904//EN"
 "http://www.w3.org/TR/2001/REC-SVG-20010904/DTD/svg10.dtd">
<svg version="1.0" xmlns="http://www.w3.org/2000/svg"
 width="480.000000pt" height="360.000000pt" viewBox="0 0 480.000000 360.000000"
 preserveAspectRatio="xMidYMid meet">
<metadata>
Created by potrace 1.16, written by Peter Selinger 2001-2019
</metadata>
<rect width="1" height="360" fill="#000000"/>
<rect x="479" width="1" height="360" fill="#000000"/>
<rect width="480" height="1" fill="#000000"/>
<rect y="359" width="480" height="1" fill="#000000"/>
<g transform="translate(0.000000,360.000000) scale(0.100000,-0.100000)"
fill="#000000" stroke="none">
<path d="M0 1800 l0 -1800 656 0 655 0 -6 103 c-8 118 14 300 45 370 10 23 30
94 44 157 40 179 123 323 289 497 l41 42 -13 53 c-26 105 -49 206 -90 385 -75
328 -124 477 -168 511 -25 18 -53 15 -114 -14 -86 -42 -168 -66 -245 -71 -59
-5 -77 -2 -112 16 -49 25 -86 77 -103 144 -15 60 -6 201 16 275 47 156 185
242 386 242 262 0 492 -113 610 -298 63 -99 108 -304 185 -842 14 -102 27
-186 29 -188 1 -1 35 5 76 13 158 34 349 30 501 -10 29 -8 53 -13 55 -12 1 2
18 115 38 253 52 364 74 462 125 565 70 137 180 189 406 189 155 0 276 -31
445 -115 210 -104 365 -252 453 -431 52 -103 70 -183 71 -297 0 -97 -1 -99
-29 -124 -25 -21 -36 -24 -70 -20 -100 14 -439 178 -624 301 -57 38 -148 111
-203 164 -56 53 -104 91 -108 86 -13 -14 -27 -80 -65 -307 -20 -114 -47 -264
-61 -333 l-25 -125 65 -97 c35 -53 80 -108 100 -122 19 -14 60 -59 90 -101 46
-66 58 -92 84 -192 17 -63 42 -141 56 -173 48 -107 52 -226 19 -452 l-7 -42
652 0 651 0 0 1800 0 1800 -2400 0 -2400 0 0 -1800z"/>
</g>
</svg>
