<?xml version="1.0" standalone="no"?>
<!DOCTYPE svg PUBLIC "-//W3C//DTD SVG 20010904//EN"
 "http://www.w3.org/TR/2001/REC-SVG-20010904/DTD/svg10.dtd">
<svg version="1.0" xmlns="http://www.w3.org/2000/svg"
 width="480.000000pt" height="360.000000pt" viewBox="0 0 480.000000 360.000000"
 preserveAspectRatio="xMidYMid meet">
<metadata>
Created by potrace 1.16, written by Peter Selinger 2001-2019
</metadata>
<rect width="1" height="360" fill="#000000"/>
<rect x="479" width="1" height="360" fill="#000000"/>
<rect width="480" height="1" fill="#000000"/>
<rect y="359" width="480" height="1" fill="#000000"/>
<g transform="translate(0.000000,360.000000) scale(0.100000,-0.100000)"
fill="#000000" stroke="none">
<path d="M0 1800 l0 -1800 918 2 917 3 22 69 c13 38 21 71 19 73 -2 2 -41 -7
-87 -20 -170 -49 -191 -52 -206 -31 -39 53 24 92 248 153 l143 38 32 50 c54
84 137 135 250 153 38 7 76 16 86 20 11 6 18 5 22 -5 3 -8 12 -15 21 -15 13 0
15 -32 15 -245 l0 -245 271 0 271 0 -7 27 c-3 16 -13 41 -21 57 -25 52 -19 57
44 29 92 -41 203 -74 236 -71 28 3 31 6 31 38 0 34 -3 36 -85 78 -47 23 -133
58 -193 77 -101 32 -113 39 -205 116 -113 95 -149 113 -210 106 -41 -4 -46 -2
-61 24 -19 34 -31 37 -31 9 0 -23 -10 -26 -28 -8 -9 9 -12 370 -12 1565 l0
1553 -1200 0 -1200 0 0 -1800z"/>
</g>
</svg>
