<?xml version="1.0" standalone="no"?>
<!DOCTYPE svg PUBLIC "-//W3C//DTD SVG 20010904//EN"
 "http://www.w3.org/TR/2001/REC-SVG-20010904/DTD/svg10.dtd">
<svg version="1.0" xmlns="http://www.w3.org/2000/svg"
 width="480.000000pt" height="360.000000pt" viewBox="0 0 480.000000 360.000000"
 preserveAspectRatio="xMidYMid meet">
<metadata>
Created by potrace 1.16, written by Peter Selinger 2001-2019
</metadata>
<rect width="1" height="360" fill="#000000"/>
<rect x="479" width="1" height="360" fill="#000000"/>
<rect width="480" height="1" fill="#000000"/>
<rect y="359" width="480" height="1" fill="#000000"/>
<g transform="translate(0.000000,360.000000) scale(0.100000,-0.100000)"
fill="#000000" stroke="none">
<path d="M0 1800 l0 -1800 1124 0 1124 0 6 54 c9 72 -6 100 -49 91 -93 -20
-102 -19 -153 19 -33 24 -61 36 -82 36 -24 0 -41 9 -66 36 -19 20 -49 40 -68
45 -40 11 -49 28 -35 69 8 23 8 34 -1 46 -11 12 -7 23 20 62 19 26 48 63 66
83 86 98 184 269 184 323 0 16 6 37 14 45 9 10 16 46 19 91 l5 74 -19 -23
c-11 -13 -22 -22 -24 -19 -8 7 23 103 61 188 39 90 39 90 19 90 -23 0 -19 47
5 55 29 9 28 61 -2 69 -34 9 -35 8 -72 -24 -64 -57 -148 -76 -194 -44 -12 8
-22 23 -22 33 0 11 -8 29 -18 41 -16 20 -19 21 -31 6 -17 -20 -50 -21 -57 -2
-3 8 2 28 10 45 9 16 16 46 16 66 0 101 109 222 290 321 32 18 35 25 51 107
21 104 35 130 94 165 25 15 45 31 45 35 0 5 -4 5 -10 2 -6 -3 -10 5 -10 19 0
14 4 27 8 30 5 3 7 25 7 50 -1 25 1 46 5 46 3 0 16 -19 28 -42 31 -61 67 -98
95 -98 53 0 88 -22 143 -94 l56 -71 118 -11 c137 -13 206 -40 280 -107 25 -23
59 -51 74 -62 l29 -21 -17 -77 c-13 -58 -23 -81 -43 -97 -33 -26 -37 -25 -66
6 l-24 26 -34 -68 c-63 -125 -152 -163 -257 -110 -63 32 -69 32 -106 2 l-30
-23 22 -28 c15 -18 22 -42 22 -69 0 -23 7 -51 15 -62 16 -21 20 -54 6 -54 -5
0 -12 6 -14 13 -4 9 -8 9 -16 -2 -11 -17 9 -73 36 -104 10 -11 18 -38 19 -67
3 -60 6 -66 39 -73 30 -5 59 18 51 39 -3 8 -8 20 -11 27 -3 6 0 19 5 27 9 13
13 12 30 -9 46 -54 9 -131 -62 -131 -46 0 -81 28 -98 79 -7 22 -25 52 -40 66
l-28 26 -7 -47 c-12 -86 39 -380 101 -569 63 -195 77 -275 48 -275 -14 0 -15
-7 -10 -40 5 -30 3 -41 -6 -39 -7 1 -24 1 -37 0 -19 -1 -22 -5 -18 -23 4 -12
2 -27 -3 -33 -6 -7 -3 -35 8 -73 l16 -62 1113 0 1113 0 0 1800 0 1800 -1066 0
c-1011 0 -1066 -1 -1059 -17 52 -128 68 -194 73 -301 10 -234 -36 -353 -219
-557 -85 -96 -125 -161 -134 -224 l-7 -46 -19 50 c-11 28 -63 107 -120 180
-251 322 -274 369 -273 550 0 128 15 202 59 302 14 31 25 57 25 59 0 2 -463 4
-1030 4 l-1030 0 0 -1800z"/>
<path d="M3030 1775 c-7 -9 -20 -13 -30 -10 -10 3 -26 -5 -39 -19 l-23 -24 23
-31 c36 -49 66 -36 83 34 2 11 7 30 11 43 7 25 -7 29 -25 7z"/>
<path d="M2753 1620 c-72 -19 -127 -42 -137 -59 -3 -4 21 -21 55 -35 64 -29
100 -29 147 2 20 13 72 89 72 105 0 12 -64 6 -137 -13z"/>
<path d="M1781 1484 c-13 -29 -6 -47 9 -24 9 14 14 50 7 50 -2 0 -9 -12 -16
-26z"/>
<path d="M1866 1471 c-3 -5 0 -26 8 -47 15 -45 45 -60 98 -50 42 8 91 43 82
58 -21 33 -172 65 -188 39z"/>
<path d="M2443 1185 c0 -22 2 -30 4 -17 2 12 2 30 0 40 -3 9 -5 -1 -4 -23z"/>
<path d="M2420 180 c-52 -15 -90 -41 -96 -67 -6 -22 -1 -31 29 -56 21 -16 37
-35 37 -43 0 -8 10 -14 25 -14 16 0 25 6 25 15 0 8 9 24 21 36 15 15 19 28 14
47 -3 15 -9 39 -12 55 -7 33 -11 36 -43 27z"/>
</g>
</svg>
