<?xml version="1.0" standalone="no"?>
<!DOCTYPE svg PUBLIC "-//W3C//DTD SVG 20010904//EN"
 "http://www.w3.org/TR/2001/REC-SVG-20010904/DTD/svg10.dtd">
<svg version="1.0" xmlns="http://www.w3.org/2000/svg"
 width="480.000000pt" height="360.000000pt" viewBox="0 0 480.000000 360.000000"
 preserveAspectRatio="xMidYMid meet">
<metadata>
Created by potrace 1.16, written by Peter Selinger 2001-2019
</metadata>
<rect width="1" height="360" fill="#000000"/>
<rect x="479" width="1" height="360" fill="#000000"/>
<rect width="480" height="1" fill="#000000"/>
<rect y="359" width="480" height="1" fill="#000000"/>
<g transform="translate(0.000000,360.000000) scale(0.100000,-0.100000)"
fill="#000000" stroke="none">
<path d="M1095 3585 c50 -143 68 -192 76 -207 17 -32 -27 -49 -128 -49 -90 -1
-152 11 -280 55 -98 33 -151 40 -204 26 -43 -11 -207 -73 -242 -91 -9 -5 -66
-14 -125 -20 -59 -6 -126 -12 -149 -15 l-43 -5 0 -1640 0 -1639 2400 0 2400 0
0 1655 c0 1027 -4 1655 -9 1655 -6 0 -13 -5 -16 -10 -4 -6 -28 -22 -55 -35
-88 -45 -141 -33 -275 63 -81 58 -150 82 -285 98 -63 7 -151 23 -194 34 -44
11 -92 20 -107 20 -45 0 -116 -36 -207 -106 -97 -76 -172 -114 -221 -114 -49
0 -131 32 -148 57 -13 20 -13 28 1 70 19 56 19 53 1 53 -19 0 -20 38 -1 108
l13 52 -1093 0 c-869 0 -1094 -3 -1094 -12 0 -9 -4 -8 -11 2 -9 12 -10 11 -4
-5z m1559 -894 c8 -12 -3 -41 -15 -41 -5 0 -9 11 -9 25 0 25 14 34 24 16z
m-503 -188 c13 -34 -4 -54 -21 -23 -11 20 -8 50 5 50 3 0 10 -12 16 -27z m157
-215 c-5 -32 -28 -35 -28 -4 0 17 5 26 16 26 10 0 14 -7 12 -22z m186 -79 c-8
-14 -34 -11 -34 4 0 8 3 17 7 20 9 9 34 -13 27 -24z m186 -110 c0 -5 -7 -9
-15 -9 -15 0 -20 12 -9 23 8 8 24 -1 24 -14z m-634 -25 c-5 -13 -10 -14 -18
-6 -6 6 -8 18 -4 28 5 13 10 14 18 6 6 -6 8 -18 4 -28z m-152 -10 c4 -9 4 -19
2 -22 -10 -9 -36 8 -36 23 0 20 26 19 34 -1z m76 -10 c0 -8 -4 -14 -9 -14 -11
0 -22 26 -14 34 9 9 23 -3 23 -20z m560 1 c0 -8 -4 -15 -9 -15 -13 0 -22 16
-14 24 11 11 23 6 23 -9z m-65 -25 c0 -7 -6 -15 -12 -17 -8 -3 -13 4 -13 17 0
13 5 20 13 18 6 -3 12 -11 12 -18z m-387 -28 c2 -7 -3 -12 -12 -12 -9 0 -16 7
-16 16 0 17 22 14 28 -4z m55 -7 c1 -5 -6 -11 -15 -13 -11 -2 -18 3 -18 13 0
17 30 18 33 0z m-283 -16 c0 -11 -4 -17 -10 -14 -5 3 -10 13 -10 21 0 8 5 14
10 14 6 0 10 -9 10 -21z m462 -31 c-13 -13 -26 8 -17 30 6 16 7 16 17 -1 7
-13 7 -22 0 -29z m214 -14 c-5 -13 -10 -14 -18 -6 -6 6 -8 18 -4 28 5 13 10
14 18 6 6 -6 8 -18 4 -28z m-296 -26 c0 -16 -3 -19 -11 -11 -6 6 -8 16 -5 22
11 17 16 13 16 -11z m-270 -3 c0 -8 -7 -15 -15 -15 -8 0 -15 7 -15 15 0 8 7
15 15 15 8 0 15 -7 15 -15z m420 -10 c0 -8 -7 -15 -15 -15 -8 0 -15 7 -15 15
0 8 7 15 15 15 8 0 15 -7 15 -15z m116 -22 c-11 -11 -19 6 -11 24 8 17 8 17
12 0 3 -10 2 -21 -1 -24z m-496 1 c0 -8 -4 -14 -9 -14 -11 0 -22 26 -14 34 9
9 23 -3 23 -20z m190 -7 c0 -20 -1 -20 -16 -5 -9 9 -13 21 -9 27 10 16 25 3
25 -22z m80 13 c0 -11 -4 -20 -10 -20 -5 0 -10 2 -10 4 0 2 -3 11 -6 20 -4 11
-1 16 10 16 9 0 16 -8 16 -20z m266 -27 c-6 -14 -9 -15 -16 -4 -11 19 -1 46
13 32 5 -5 7 -18 3 -28z m-11 -53 c0 -8 -8 -16 -17 -18 -13 -2 -18 3 -18 18 0
15 5 20 18 18 9 -2 17 -10 17 -18z m139 -41 c15 -30 14 -49 -4 -49 -11 0 -31
60 -24 71 8 14 11 11 28 -22z m-579 -70 c0 -7 -8 -15 -17 -17 -18 -3 -25 18
-11 32 10 10 28 1 28 -15z m307 -61 c-15 -15 -26 -4 -18 18 5 13 9 15 18 6 9
-9 9 -15 0 -24z m172 14 c2 -4 1 -14 -4 -22 -7 -11 -12 -12 -21 -3 -6 6 -8 16
-5 22 8 13 23 14 30 3z m-11 -48 c9 -10 -4 -34 -19 -34 -8 0 -14 6 -14 13 0
22 19 35 33 21z m-633 -19 c0 -8 -7 -15 -15 -15 -8 0 -15 7 -15 15 0 8 7 15
15 15 8 0 15 -7 15 -15z m50 -66 c0 -22 -13 -25 -29 -6 -8 10 -7 17 1 25 15
15 28 6 28 -19z m680 -64 c0 -7 -7 -16 -15 -19 -18 -7 -30 16 -21 40 5 13 9
14 21 4 8 -7 15 -18 15 -25z m-530 -10 c0 -7 -7 -19 -16 -26 -14 -11 -18 -10
-30 6 -13 17 -13 21 2 32 18 13 44 7 44 -12z m-170 0 c0 -8 -7 -15 -15 -15 -8
0 -15 7 -15 15 0 8 7 15 15 15 8 0 15 -7 15 -15z m435 6 c7 -12 -12 -24 -25
-16 -11 7 -4 25 10 25 5 0 11 -4 15 -9z m376 -14 c-13 -13 -26 -3 -16 12 3 6
11 8 17 5 6 -4 6 -10 -1 -17z m-201 -2 c0 -8 -4 -15 -10 -15 -5 0 -10 7 -10
15 0 8 5 15 10 15 6 0 10 -7 10 -15z m-42 -47 c-6 -18 -28 -21 -28 -4 0 9 7
16 16 16 9 0 14 -5 12 -12z m-430 -31 c2 -10 -3 -17 -12 -17 -9 0 -16 2 -16 4
0 2 -3 12 -6 21 -5 13 -2 16 12 13 10 -2 20 -11 22 -21z m102 3 c0 -11 -4 -20
-9 -20 -11 0 -22 26 -14 34 12 12 23 5 23 -14z m340 -25 c0 -8 -7 -15 -15 -15
-16 0 -20 12 -8 23 11 12 23 8 23 -8z m50 -44 c-12 -23 -40 -29 -40 -9 0 6 10
23 23 36 17 19 23 21 25 8 2 -8 -2 -24 -8 -35z m-326 12 c4 -5 13 -8 19 -8 7
0 13 -8 15 -18 3 -15 -1 -17 -25 -11 -37 9 -61 44 -30 44 8 0 17 -3 21 -7z
m165 -19 c-14 -18 -24 -11 -15 11 3 9 11 13 16 10 8 -5 7 -11 -1 -21z m-452
-10 c9 -23 -11 -38 -26 -20 -13 16 -7 36 10 36 5 0 12 -7 16 -16z m383 2 c0
-16 -14 -36 -25 -36 -17 0 -28 17 -20 30 6 10 45 15 45 6z m-115 -24 c0 -18
-20 -15 -23 4 -3 10 1 15 10 12 7 -3 13 -10 13 -16z m-45 -18 c0 -16 -16 -19
-25 -4 -8 13 4 32 16 25 5 -4 9 -13 9 -21z m245 6 c0 -17 -51 -48 -61 -38 -9
9 38 59 51 54 6 -1 10 -9 10 -16z m-441 -36 c4 -9 4 -19 2 -21 -8 -8 -26 8
-26 23 0 19 16 18 24 -2z m546 -9 c0 -8 -7 -15 -15 -15 -8 0 -15 7 -15 15 0 8
7 15 15 15 8 0 15 -7 15 -15z m-200 -10 c0 -8 -7 -15 -15 -15 -16 0 -20 12 -8
23 11 12 23 8 23 -8z m324 -7 c15 -17 16 -25 7 -40 -6 -10 -9 -23 -6 -28 6
-10 -22 -26 -31 -18 -2 3 2 18 11 34 20 38 19 44 -5 44 -20 0 -26 11 -13 23
10 11 17 8 37 -15z m-517 -14 c3 -8 12 -13 20 -10 10 4 13 0 11 -17 -2 -14
-11 -23 -27 -25 -20 -3 -23 0 -18 17 3 12 1 21 -4 21 -5 0 -9 7 -9 15 0 20 19
19 27 -1z m-37 -54 c0 -11 -4 -20 -9 -20 -11 0 -22 26 -14 34 12 12 23 5 23
-14z m301 -93 c-8 -8 -11 -7 -11 4 0 20 13 34 18 19 3 -7 -1 -17 -7 -23z
m-192 -11 c9 -10 9 -16 1 -21 -16 -10 -40 2 -40 20 0 19 24 20 39 1z m491 4
c0 -13 -38 -32 -51 -25 -14 10 9 35 32 35 11 0 19 -4 19 -10z m-160 -14 c0
-18 -17 -29 -30 -21 -8 5 -7 11 1 21 15 18 29 18 29 0z m-182 -48 c-2 -30 -8
-43 -18 -43 -8 0 -16 8 -18 18 -6 30 7 67 24 67 12 0 14 -10 12 -42z m274 -10
c-15 -15 -26 -4 -18 18 5 13 9 15 18 6 9 -9 9 -15 0 -24z m-181 -11 c-13 -13
-26 -3 -16 12 3 6 11 8 17 5 6 -4 6 -10 -1 -17z m-221 -2 c0 -8 -7 -15 -15
-15 -16 0 -20 12 -8 23 11 12 23 8 23 -8z m-36 -53 c-7 -25 -34 -30 -34 -7 0
8 5 15 10 15 6 0 10 8 10 17 0 11 3 14 10 7 5 -5 7 -19 4 -32z m140 -13 c-8
-14 -34 -11 -34 4 0 8 3 17 7 20 9 9 34 -13 27 -24z m-68 10 c10 -17 -13 -36
-27 -22 -12 12 -4 33 11 33 5 0 12 -5 16 -11z m131 -73 c-4 -9 -11 -16 -17
-16 -11 0 -14 33 -3 44 11 10 26 -11 20 -28z m-191 13 c3 -6 -1 -18 -10 -27
-12 -13 -21 -14 -33 -6 -24 15 -27 32 -6 37 31 8 42 7 49 -4z m79 -29 c0 -22
-29 -18 -33 3 -3 14 1 18 15 15 10 -2 18 -10 18 -18z m70 -40 c8 -13 -14 -42
-26 -34 -5 3 -9 14 -9 25 0 20 24 26 35 9z m83 -12 c-2 -13 -7 -23 -13 -23 -5
0 -11 10 -13 23 -2 15 2 22 13 22 11 0 15 -7 13 -22z m-218 -53 c0 -9 -9 -15
-25 -15 -26 0 -34 15 -12 23 23 10 37 7 37 -8z m102 -47 c-9 -9 -12 -7 -12 12
0 19 3 21 12 12 9 -9 9 -15 0 -24z m196 -6 c2 -7 -6 -12 -17 -12 -21 0 -27 11
-14 24 9 9 26 2 31 -12z m-138 -60 c0 -13 -12 -22 -22 -16 -10 6 -1 24 13 24
5 0 9 -4 9 -8z m-57 -66 c3 -8 0 -17 -8 -19 -17 -7 -25 1 -18 19 7 18 19 18
26 0z"/>
</g>
</svg>
