<?xml version="1.0" standalone="no"?>
<!DOCTYPE svg PUBLIC "-//W3C//DTD SVG 20010904//EN"
 "http://www.w3.org/TR/2001/REC-SVG-20010904/DTD/svg10.dtd">
<svg version="1.0" xmlns="http://www.w3.org/2000/svg"
 width="480.000000pt" height="360.000000pt" viewBox="0 0 480.000000 360.000000"
 preserveAspectRatio="xMidYMid meet">
<metadata>
Created by potrace 1.16, written by Peter Selinger 2001-2019
</metadata>
<rect width="1" height="360" fill="#000000"/>
<rect x="479" width="1" height="360" fill="#000000"/>
<rect width="480" height="1" fill="#000000"/>
<rect y="359" width="480" height="1" fill="#000000"/>
<g transform="translate(0.000000,360.000000) scale(0.100000,-0.100000)"
fill="#000000" stroke="none">
<path d="M0 1800 l0 -1800 38 0 38 0 17 73 c10 39 20 82 23 93 4 17 0 23 -19
28 -35 8 -52 59 -31 91 8 12 14 27 12 31 -1 5 12 30 29 56 43 67 53 169 23
220 -20 35 -20 36 -1 41 14 3 21 15 23 43 2 32 7 40 25 42 14 2 25 12 28 25
11 53 42 174 49 189 6 13 2 20 -17 27 -26 10 -57 73 -57 114 0 24 37 67 58 67
17 0 81 59 98 91 18 36 18 50 -2 24 -14 -19 -15 -17 -10 25 2 25 9 63 15 85
11 45 8 53 -14 35 -28 -23 -26 -4 5 63 17 36 34 90 37 119 5 50 -20 317 -32
350 -4 9 -24 23 -46 33 -21 10 -39 22 -39 27 0 5 12 26 26 48 14 21 34 71 45
110 20 79 17 96 -31 164 -86 120 -82 442 6 572 14 19 21 40 18 46 -4 6 -3 8 3
5 5 -3 25 10 44 29 53 56 145 118 257 174 137 68 224 90 376 91 67 1 150 4
186 8 l64 6 18 89 c10 49 20 92 23 94 9 10 75 -61 128 -136 42 -59 62 -79 103
-98 158 -75 260 -220 304 -435 10 -47 25 -98 34 -111 9 -14 14 -32 11 -41 -5
-11 12 -24 68 -52 65 -32 79 -36 109 -27 36 10 68 1 68 -20 0 -6 8 -20 17 -31
17 -18 17 -20 -2 -35 -34 -29 -135 -180 -135 -204 -1 -40 -56 -193 -69 -190
-9 2 -9 -3 -1 -19 7 -11 9 -23 6 -26 -3 -3 -8 2 -12 11 -6 15 -8 15 -23 2 -54
-51 -93 -77 -106 -73 -29 12 -26 -69 4 -87 6 -4 8 -12 5 -19 -2 -7 16 -71 41
-143 57 -159 75 -217 70 -222 -2 -2 -19 7 -37 21 -18 14 -59 39 -91 57 l-57
32 -36 -36 c-43 -43 -113 -86 -139 -86 -10 0 -33 -10 -52 -21 -29 -18 -45 -21
-94 -16 -53 5 -74 -3 -50 -18 5 -3 76 -23 158 -44 387 -103 405 -109 446 -149
45 -44 51 -65 34 -115 -13 -36 -12 -43 11 -90 14 -29 26 -53 28 -55 1 -2 22 7
46 19 69 36 259 96 358 115 130 23 459 15 575 -14 420 -108 744 -337 982 -692
56 -84 153 -272 173 -337 l13 -43 314 0 313 0 0 1800 0 1800 -1715 0 -1715 0
12 -25 c6 -14 8 -28 4 -32 -11 -12 -41 12 -44 36 l-3 21 -670 0 -669 0 0
-1800z m1450 1648 c0 -13 -23 -5 -28 10 -2 7 2 10 12 6 9 -3 16 -11 16 -16z
m2130 -183 c-7 -8 -19 -15 -26 -15 -8 0 -14 7 -14 15 0 10 10 15 26 15 22 0
25 -2 14 -15z m360 -855 c0 -5 -7 -10 -15 -10 -8 0 -15 5 -15 10 0 6 7 10 15
10 8 0 15 -4 15 -10z m-450 -385 c-7 -8 -16 -15 -21 -15 -14 0 -11 38 4 43 20
7 31 -11 17 -28z m-60 -95 c0 -5 -4 -10 -10 -10 -5 0 -10 5 -10 10 0 6 5 10
10 10 6 0 10 -4 10 -10z m95 -71 c5 -6 5 -13 -3 -21 -7 -7 -8 -17 -2 -29 8
-14 3 -21 -24 -38 -57 -36 -216 -20 -224 21 -4 23 58 67 109 78 48 9 129 4
144 -11z m-638 -405 c-3 -3 -12 -4 -19 -1 -8 3 -5 6 6 6 11 1 17 -2 13 -5z
m1141 -486 c-6 -18 -28 -21 -28 -4 0 9 7 16 16 16 9 0 14 -5 12 -12z m182
-529 c0 -10 -7 -19 -15 -19 -15 0 -21 31 -9 43 11 10 24 -3 24 -24z"/>
<path d="M1776 208 c-2 -7 -7 -42 -10 -78 -3 -36 -8 -80 -12 -97 -5 -26 -3
-33 9 -33 41 0 74 210 34 218 -9 2 -19 -2 -21 -10z"/>
</g>
</svg>
