<?xml version="1.0" standalone="no"?>
<!DOCTYPE svg PUBLIC "-//W3C//DTD SVG 20010904//EN"
 "http://www.w3.org/TR/2001/REC-SVG-20010904/DTD/svg10.dtd">
<svg version="1.0" xmlns="http://www.w3.org/2000/svg"
 width="480.000000pt" height="360.000000pt" viewBox="0 0 480.000000 360.000000"
 preserveAspectRatio="xMidYMid meet">
<metadata>
Created by potrace 1.16, written by Peter Selinger 2001-2019
</metadata>
<rect width="1" height="360" fill="#000000"/>
<rect x="479" width="1" height="360" fill="#000000"/>
<rect width="480" height="1" fill="#000000"/>
<rect y="359" width="480" height="1" fill="#000000"/>
<g transform="translate(0.000000,360.000000) scale(0.100000,-0.100000)"
fill="#000000" stroke="none">
<path d="M2020 3584 c0 -9 -11 -29 -25 -45 -17 -21 -26 -47 -31 -89 -4 -33
-10 -60 -13 -60 -4 0 -27 41 -51 91 -25 50 -48 93 -52 95 -19 12 -38 -11 -38
-46 0 -22 -8 -48 -20 -63 -44 -56 -15 -134 89 -238 113 -114 104 -91 76 -202
-13 -54 -29 -105 -34 -115 -5 -9 -14 -43 -21 -74 l-13 -57 -32 25 c-17 13 -37
24 -42 24 -14 0 -23 24 -23 63 0 73 -78 139 -137 116 -30 -11 -63 -37 -63 -49
0 -4 9 -10 19 -13 13 -3 24 -23 35 -61 15 -51 15 -59 1 -78 -14 -21 -13 -24
11 -49 14 -14 25 -35 25 -45 1 -41 -30 -96 -88 -156 -36 -38 -65 -79 -73 -103
-7 -22 -28 -75 -46 -118 -38 -86 -40 -94 -21 -79 9 8 11 -1 8 -41 -3 -46 -2
-50 13 -38 13 11 17 10 22 -5 25 -76 91 -150 126 -141 31 8 78 -12 78 -34 0
-11 -13 -33 -30 -51 -16 -17 -30 -35 -30 -39 0 -5 14 -15 30 -24 41 -21 38
-38 -11 -53 -41 -13 -41 -12 -83 26 -23 21 -69 52 -101 68 -54 26 -70 29 -155
29 -81 -1 -103 -5 -150 -27 -64 -30 -118 -81 -150 -142 -29 -57 -51 -67 -110
-49 -78 24 -207 28 -275 9 -79 -24 -181 -76 -233 -121 -58 -51 -126 -149 -149
-215 -22 -66 -24 -223 -4 -285 35 -108 96 -210 172 -286 105 -105 182 -143
299 -147 161 -7 306 54 428 178 28 30 32 31 32 13 0 -11 8 -31 18 -44 11 -14
18 -37 16 -56 -1 -21 4 -37 16 -48 29 -26 48 -12 52 37 2 36 7 44 26 46 14 2
22 -2 22 -11 0 -9 5 -17 12 -19 8 -3 -1 -25 -24 -64 -20 -32 -35 -60 -33 -62
2 -3 17 5 33 17 44 31 63 28 56 -9 -9 -42 15 -158 37 -179 25 -23 43 -105 27
-130 -15 -24 5 -155 30 -191 26 -39 42 -127 26 -141 -27 -22 -13 -29 61 -29
67 0 74 2 68 18 -3 9 -13 25 -21 34 -21 25 -35 108 -21 125 16 19 -6 147 -32
190 -16 25 -23 60 -29 148 -6 86 -13 124 -29 156 -12 23 -20 43 -18 46 7 6
104 -113 133 -163 15 -25 60 -72 104 -107 92 -74 190 -193 190 -232 0 -15 -11
-40 -25 -57 -14 -16 -25 -35 -25 -43 0 -7 -16 -25 -35 -39 -23 -18 -35 -35
-35 -52 l0 -24 634 0 633 0 6 43 c3 23 17 109 31 190 29 167 32 230 12 302
-30 115 -103 221 -312 459 -82 92 -156 179 -165 193 -9 13 -20 48 -23 76 -4
29 -16 96 -27 150 -19 97 -19 97 1 213 38 220 53 421 41 562 -6 70 -13 137
-17 148 -5 19 -2 21 20 17 23 -5 26 -2 28 23 0 16 0 36 0 44 -1 8 -2 33 -3 55
-1 53 -34 166 -70 239 -94 189 -238 290 -352 247 l-24 -10 -6 212 c-3 117 -11
263 -18 325 l-12 112 -68 0 c-57 0 -69 -3 -69 -16z m-41 -1951 c-30 -108 -57
-117 -40 -13 7 39 17 67 28 75 29 21 31 9 12 -62z m-469 -484 l-24 -62 -28 32
c-16 18 -28 40 -26 48 3 14 87 54 97 47 2 -2 -7 -31 -19 -65z m1156 -500 c16
-17 57 -52 92 -77 44 -33 61 -51 56 -62 -7 -18 -40 -211 -49 -293 l-6 -57 -31
21 c-16 12 -32 29 -34 38 -3 9 -14 34 -24 56 -24 50 -61 405 -43 405 5 0 22
-14 39 -31z m-1192 -52 c10 -41 10 -42 -21 -51 -22 -7 -24 -5 -37 56 -5 20 -2
28 11 31 30 8 38 2 47 -36z m455 -121 c15 -63 15 -144 -1 -128 -7 7 -22 12
-34 12 -12 0 -27 7 -34 15 -7 8 -8 15 -3 15 10 0 43 95 43 124 0 31 17 8 29
-38z m-388 -198 c6 -40 -4 -58 -32 -58 -27 0 -41 83 -16 93 27 12 42 1 48 -35z
m1194 -137 c10 -17 -12 -21 -25 -6 -10 12 -10 15 3 15 9 0 18 -4 22 -9z m-835
-26 c0 -16 -6 -25 -15 -25 -18 0 -18 5 -5 31 14 26 20 24 20 -6z"/>
</g>
</svg>
