<?xml version="1.0" standalone="no"?>
<!DOCTYPE svg PUBLIC "-//W3C//DTD SVG 20010904//EN"
 "http://www.w3.org/TR/2001/REC-SVG-20010904/DTD/svg10.dtd">
<svg version="1.0" xmlns="http://www.w3.org/2000/svg"
 width="480.000000pt" height="360.000000pt" viewBox="0 0 480.000000 360.000000"
 preserveAspectRatio="xMidYMid meet">
<metadata>
Created by potrace 1.16, written by Peter Selinger 2001-2019
</metadata>
<rect width="1" height="360" fill="#000000"/>
<rect x="479" width="1" height="360" fill="#000000"/>
<rect width="480" height="1" fill="#000000"/>
<rect y="359" width="480" height="1" fill="#000000"/>
<g transform="translate(0.000000,360.000000) scale(0.100000,-0.100000)"
fill="#000000" stroke="none">
<path d="M3440 3568 c-79 -44 -88 -52 -157 -119 -95 -94 -159 -230 -193 -409
l-15 -84 -90 3 c-97 3 -160 -9 -242 -45 -41 -18 -54 -29 -59 -51 -4 -15 -23
-46 -44 -68 -56 -61 -75 -93 -105 -178 -24 -66 -26 -82 -16 -104 11 -24 15
-25 62 -20 l50 6 -21 -35 c-31 -49 -21 -68 31 -59 30 5 45 3 58 -9 21 -19 46
-73 61 -134 12 -49 31 -60 65 -42 20 11 30 9 74 -15 64 -35 80 -54 101 -113
18 -52 19 -27 -10 -422 -15 -205 -44 -435 -81 -650 -34 -202 -83 -437 -92
-446 -3 -4 -30 15 -59 41 -81 72 -164 109 -320 140 -45 9 -90 18 -99 21 -10 3
-40 37 -68 77 -28 40 -60 83 -71 97 l-20 25 21 85 c22 85 22 85 5 290 -10 113
-24 255 -31 315 -8 61 -14 136 -15 168 0 36 -4 56 -10 52 -5 -3 -10 -25 -10
-48 0 -31 -3 -38 -10 -27 -5 8 -10 43 -10 77 0 84 -20 94 -21 11 l-1 -63 -9
55 c-17 109 -30 158 -49 175 -24 22 -35 15 -55 -39 -16 -41 -16 -54 -1 -183
17 -150 21 -289 8 -297 -4 -2 -32 4 -62 14 -104 36 -172 23 -203 -39 -7 -14
-25 -28 -43 -33 -43 -11 -72 -46 -90 -109 -8 -30 -20 -72 -26 -93 -11 -37 -10
-41 16 -63 15 -12 38 -23 51 -23 18 0 26 -7 29 -23 29 -144 95 -393 114 -432
14 -27 56 -92 93 -142 38 -51 105 -147 149 -212 l80 -120 -35 -127 c-19 -70
-35 -131 -35 -136 0 -4 623 -8 1385 -8 l1385 0 0 1800 0 1800 -652 0 -653 -1
-55 -31z m-90 -1994 c65 -116 232 -264 297 -264 22 0 39 -38 24 -53 -4 -4 -44
-13 -88 -20 l-81 -13 -39 32 c-41 35 -64 42 -81 22 -5 -7 -19 -55 -30 -107
-33 -150 -46 -138 -50 42 -3 138 6 417 13 417 2 0 17 -25 35 -56z"/>
</g>
</svg>
