<?xml version="1.0" standalone="no"?>
<!DOCTYPE svg PUBLIC "-//W3C//DTD SVG 20010904//EN"
 "http://www.w3.org/TR/2001/REC-SVG-20010904/DTD/svg10.dtd">
<svg version="1.0" xmlns="http://www.w3.org/2000/svg"
 width="480.000000pt" height="360.000000pt" viewBox="0 0 480.000000 360.000000"
 preserveAspectRatio="xMidYMid meet">
<metadata>
Created by potrace 1.16, written by Peter Selinger 2001-2019
</metadata>
<rect width="1" height="360" fill="#000000"/>
<rect x="479" width="1" height="360" fill="#000000"/>
<rect width="480" height="1" fill="#000000"/>
<rect y="359" width="480" height="1" fill="#000000"/>
<g transform="translate(0.000000,360.000000) scale(0.100000,-0.100000)"
fill="#000000" stroke="none">
<path d="M0 1800 l0 -1800 1070 0 c896 0 1070 2 1070 14 0 7 7 73 15 147 25
220 45 513 35 523 -4 4 -19 14 -32 20 -12 6 -23 18 -23 26 0 8 -7 21 -15 28
-11 10 -12 14 -2 18 6 3 9 10 6 15 -3 5 8 34 25 65 28 49 33 71 51 232 25 226
25 242 -5 342 -29 96 -31 155 -10 207 8 19 15 45 15 57 0 11 11 42 24 69 13
26 20 47 15 47 -17 0 -9 49 10 62 12 9 20 32 25 70 7 53 6 58 -21 83 -15 15
-38 30 -50 35 -15 6 -20 15 -16 29 4 15 1 21 -11 21 -11 0 -14 -5 -10 -12 10
-15 -11 -3 -62 39 -22 18 -43 30 -46 27 -11 -11 -20 79 -13 134 9 72 22 97 82
155 147 145 318 145 434 -1 25 -31 51 -67 58 -80 20 -37 70 -221 86 -315 9
-49 29 -144 45 -211 16 -67 34 -167 40 -222 6 -54 17 -153 25 -219 10 -80 17
-260 20 -534 6 -450 8 -471 81 -765 13 -54 24 -101 24 -102 0 -2 419 -4 930
-4 l930 0 0 1069 0 1068 -57 18 c-159 49 -335 155 -470 281 -224 208 -345 429
-404 734 -19 101 -21 135 -16 273 l6 157 -1929 0 -1930 0 0 -1800z"/>
<path d="M2361 2008 c0 -7 4 -22 9 -33 8 -18 9 -17 9 7 1 15 -3 30 -9 33 -5 3
-10 0 -9 -7z"/>
</g>
</svg>
