<?xml version="1.0" standalone="no"?>
<!DOCTYPE svg PUBLIC "-//W3C//DTD SVG 20010904//EN"
 "http://www.w3.org/TR/2001/REC-SVG-20010904/DTD/svg10.dtd">
<svg version="1.0" xmlns="http://www.w3.org/2000/svg"
 width="480.000000pt" height="360.000000pt" viewBox="0 0 480.000000 360.000000"
 preserveAspectRatio="xMidYMid meet">
<metadata>
Created by potrace 1.16, written by Peter Selinger 2001-2019
</metadata>
<rect width="1" height="360" fill="#000000"/>
<rect x="479" width="1" height="360" fill="#000000"/>
<rect width="480" height="1" fill="#000000"/>
<rect y="359" width="480" height="1" fill="#000000"/>
<g transform="translate(0.000000,360.000000) scale(0.100000,-0.100000)"
fill="#000000" stroke="none">
<path d="M23 3423 c-21 -4 -23 -10 -23 -59 l0 -54 38 0 c54 0 108 18 137 44
28 26 24 36 -16 36 -19 0 -26 5 -25 18 1 14 -8 17 -44 18 -25 1 -55 0 -67 -3z"/>
<path d="M18 3183 c-11 -3 -18 -14 -18 -27 0 -22 2 -23 83 -18 132 6 216 18
190 27 -13 4 -23 11 -23 16 0 9 -200 11 -232 2z"/>
<path d="M3150 2963 c-8 -3 -26 -14 -39 -24 -13 -11 -31 -19 -40 -19 -67 -1
-200 -108 -309 -250 -36 -47 -79 -100 -96 -119 l-31 -35 28 17 c15 9 38 24 52
33 31 20 31 20 -1 -52 -20 -46 -23 -63 -15 -76 6 -10 11 -37 12 -60 1 -45 16
-108 18 -75 2 28 18 20 25 -13 6 -31 26 -42 26 -15 0 23 13 18 31 -13 19 -34
11 -50 -38 -76 -39 -20 -43 -50 -12 -90 16 -20 19 -34 14 -57 -4 -17 -3 -41 3
-53 9 -20 19 -55 39 -136 10 -41 41 -60 96 -60 38 0 39 0 32 -32 -10 -45 -16
-50 -54 -37 -46 16 -47 6 -2 -24 l39 -26 -19 -82 c-22 -91 -26 -100 -74 -129
-23 -15 -45 -44 -71 -95 -25 -52 -48 -84 -76 -104 l-40 -29 -55 39 c-31 21
-64 39 -73 39 -17 0 -79 -61 -112 -110 -16 -25 -16 -25 -11 20 3 25 15 92 26
150 11 58 19 123 18 145 -1 22 -3 166 -3 320 -1 304 12 540 39 693 9 53 13
109 10 124 -9 35 -46 59 -101 65 -54 6 -84 -9 -102 -52 -12 -29 -11 -42 3
-101 15 -61 16 -95 4 -368 -15 -378 -28 -578 -41 -636 -6 -25 -12 -117 -14
-205 -4 -168 -24 -395 -35 -395 -4 0 -17 19 -29 43 -12 23 -51 89 -87 147 -36
58 -93 151 -126 207 -83 139 -85 140 -135 103 l-40 -29 -75 73 c-41 39 -91 95
-111 124 -21 28 -49 59 -63 68 -36 24 -160 54 -221 54 -90 0 -101 -55 -16 -74
44 -10 52 -20 26 -30 -18 -7 -39 5 -99 58 -39 35 -40 36 -20 52 20 16 20 16
-3 31 -26 18 -28 36 -6 62 22 25 26 78 7 85 -21 8 -93 -31 -102 -57 -42 -113
-44 -173 -6 -262 26 -61 52 -83 129 -106 212 -64 228 -71 267 -110 35 -35 79
-106 79 -126 0 -4 -23 -23 -51 -42 -59 -40 -127 -147 -160 -251 -42 -132 -35
-351 17 -589 32 -142 43 -165 109 -221 29 -25 85 -73 124 -108 l72 -62 152 0
153 0 40 43 c23 23 51 56 64 72 22 28 23 29 16 5 -4 -14 -10 -46 -13 -72 l-6
-48 101 0 c63 0 103 4 108 11 3 6 7 99 8 208 1 145 5 202 15 221 37 66 195
259 205 249 3 -2 -1 -23 -7 -47 -17 -63 3 -144 53 -212 88 -121 91 -129 108
-285 l16 -145 704 0 705 0 -6 192 c-4 113 -19 297 -36 443 -57 466 -62 512
-57 526 10 26 58 313 77 459 24 180 25 431 4 568 -18 114 -57 239 -93 302 -15
25 -34 67 -44 94 -75 209 -250 326 -534 357 -60 6 -132 8 -161 5 -43 -5 -55
-3 -59 9 -6 15 -18 18 -44 8z"/>
<path d="M1457 2503 c-4 -3 -7 -22 -7 -41 0 -29 -3 -33 -17 -26 -10 4 -39 9
-65 12 -64 5 -64 -17 -3 -60 l45 -32 -23 -25 c-25 -28 -61 -101 -53 -108 7 -8
104 38 122 58 17 18 18 18 49 -18 38 -44 55 -38 55 23 0 42 1 44 29 44 56 0
48 42 -10 55 -34 8 -35 12 -12 37 22 25 8 36 -18 13 -17 -17 -22 -17 -29 -5
-6 8 -10 22 -10 30 -1 32 -36 60 -53 43z"/>
<path d="M0 1184 l0 -286 23 5 c12 2 49 12 82 22 35 10 113 20 190 24 96 4
129 9 127 19 -1 7 9 12 25 13 17 1 21 3 11 6 -34 9 -18 20 34 25 59 6 78 24
78 74 0 25 -9 40 -39 66 -45 39 -151 102 -306 183 -60 32 -114 63 -120 69 -18
20 -83 66 -94 66 -8 0 -11 -90 -11 -286z"/>
</g>
</svg>
