<?xml version="1.0" standalone="no"?>
<!DOCTYPE svg PUBLIC "-//W3C//DTD SVG 20010904//EN"
 "http://www.w3.org/TR/2001/REC-SVG-20010904/DTD/svg10.dtd">
<svg version="1.0" xmlns="http://www.w3.org/2000/svg"
 width="480.000000pt" height="360.000000pt" viewBox="0 0 480.000000 360.000000"
 preserveAspectRatio="xMidYMid meet">
<metadata>
Created by potrace 1.16, written by Peter Selinger 2001-2019
</metadata>
<rect width="1" height="360" fill="#000000"/>
<rect x="479" width="1" height="360" fill="#000000"/>
<rect width="480" height="1" fill="#000000"/>
<rect y="359" width="480" height="1" fill="#000000"/>
<g transform="translate(0.000000,360.000000) scale(0.100000,-0.100000)"
fill="#000000" stroke="none">
<path d="M1830 3580 c0 -17 -6 -20 -27 -18 -25 3 -28 -1 -39 -52 -7 -30 -18
-74 -25 -97 -20 -66 -1 -158 52 -244 48 -80 48 -92 9 -280 -12 -57 -24 -114
-26 -126 -4 -22 -4 -23 -24 -3 -10 10 -37 28 -60 40 -31 16 -40 26 -40 46 0
92 -102 165 -167 119 -28 -19 -38 -58 -14 -50 14 4 23 -5 39 -42 29 -71 34
-91 22 -98 -18 -11 -11 -39 16 -60 27 -22 29 -36 18 -115 -5 -33 -17 -57 -47
-90 -45 -51 -87 -133 -87 -171 0 -15 -11 -57 -25 -93 -29 -78 -30 -83 -10 -66
13 11 15 7 16 -26 0 -22 3 -33 6 -26 3 8 13 -2 25 -25 38 -72 148 -166 148
-127 0 13 3 13 22 0 32 -23 47 -19 19 5 -13 11 -21 22 -17 26 13 13 43 -28 44
-61 1 -25 -6 -41 -23 -58 -32 -30 -31 -44 3 -60 23 -12 27 -19 28 -61 1 -26
-1 -47 -4 -47 -3 0 -30 12 -61 28 -49 24 -68 27 -151 27 -81 0 -103 -4 -150
-26 -103 -48 -167 -123 -190 -224 -18 -73 -36 -85 -130 -85 -129 0 -236 -48
-338 -150 -61 -61 -114 -143 -140 -212 -25 -69 -22 -230 6 -297 65 -156 221
-299 381 -351 163 -52 326 -5 466 135 39 38 77 85 84 102 l13 33 24 -23 c15
-14 24 -34 24 -53 0 -39 20 -67 43 -58 13 5 17 18 17 55 0 37 4 49 15 49 12 0
15 -13 15 -55 0 -30 -4 -55 -10 -55 -31 0 6 -161 45 -195 27 -23 49 -97 40
-132 -10 -43 66 -183 101 -183 8 0 19 -11 24 -25 l10 -25 597 2 598 3 12 75
c7 41 17 108 24 149 l11 73 27 -48 c51 -94 114 -185 123 -176 4 4 -1 26 -12
47 -11 22 -20 45 -20 52 0 30 21 17 80 -52 35 -41 65 -73 67 -72 1 2 -5 22
-13 46 -8 24 -13 49 -10 55 2 6 34 -20 70 -57 58 -60 66 -65 60 -40 -4 15 -13
40 -20 55 -8 15 -14 31 -14 35 1 12 40 -40 40 -53 0 -5 7 -19 15 -30 14 -18
15 -18 6 6 -5 14 -9 28 -10 33 0 4 -1 8 -2 10 0 1 -2 13 -5 26 -4 20 -2 22 11
11 11 -9 15 -9 15 -1 0 7 5 9 11 5 6 -3 8 -16 5 -29 -5 -18 5 -34 42 -74 l48
-51 72 0 c66 0 88 9 62 25 -6 4 -8 15 -5 25 10 32 -103 150 -145 150 -29 0
-37 16 -64 125 -9 39 -34 99 -56 136 -22 36 -40 72 -40 81 0 8 -11 31 -24 51
-13 19 -21 39 -18 43 4 4 2 4 -4 1 -7 -4 -17 0 -24 8 -7 8 -9 15 -4 15 5 0 2
5 -6 10 -13 8 -13 10 1 10 9 0 19 -3 23 -7 7 -7 76 -33 76 -28 0 3 -110 83
-202 148 -65 46 -113 95 -103 105 2 3 10 0 17 -6 7 -5 45 -22 83 -36 39 -13
101 -36 139 -51 38 -14 71 -24 73 -21 3 3 -22 18 -54 35 -33 16 -73 41 -90 55
-16 14 -63 44 -104 66 -41 23 -92 56 -114 73 -22 18 -54 42 -70 55 -17 12 -22
19 -12 16 21 -7 21 -1 2 35 -8 16 -12 31 -8 34 3 4 -10 30 -30 59 -19 30 -43
80 -52 113 -9 33 -32 101 -50 150 -19 50 -57 178 -84 286 -52 203 -157 532
-192 601 -19 37 -19 39 -1 29 10 -5 24 -6 32 -1 12 7 12 21 1 87 -21 130 -60
219 -148 335 -81 107 -161 158 -248 158 -67 0 -113 -21 -120 -55 -16 -79 -19
-73 -26 48 -5 70 -20 194 -35 275 -30 159 -33 199 -20 250 7 29 5 34 -13 39
-12 3 -25 19 -31 39 -11 33 -14 34 -61 34 -43 0 -49 -3 -49 -20z m-3 -207 c-2
-21 -4 -6 -4 32 0 39 2 55 4 38 2 -18 2 -50 0 -70z m-107 -638 c7 -8 8 -15 2
-15 -5 0 -15 7 -22 15 -7 8 -8 15 -2 15 5 0 15 -7 22 -15z m-6 -1672 c18 -99
18 -106 1 -99 -9 3 -21 6 -26 6 -6 0 -25 17 -44 37 l-34 37 37 22 c49 30 59
29 66 -3z m114 -460 c29 -19 62 -49 73 -66 16 -25 19 -27 14 -8 -5 15 -3 21 3
17 19 -12 42 -113 42 -188 0 -61 -3 -76 -20 -91 -11 -9 -20 -28 -20 -42 0 -13
-14 -41 -32 -61 l-32 -36 -12 33 c-17 50 -54 108 -75 120 -30 15 -52 78 -39
109 14 33 -21 156 -52 182 -23 21 -29 78 -9 102 15 18 30 11 159 -71z m876
-69 l53 -45 -14 -51 c-7 -29 -16 -87 -19 -130 -4 -43 -11 -81 -15 -84 -5 -3
-9 3 -9 14 0 10 -8 27 -19 36 -14 13 -20 37 -25 104 -4 48 -9 113 -12 145 -3
31 -3 57 1 57 3 0 30 -20 59 -46z m-1024 -55 c13 -46 14 -44 -21 -52 -23 -6
-26 -3 -36 34 -9 35 -8 41 10 54 26 19 34 13 47 -36z m110 -300 c24 -46 24
-44 -11 -52 -22 -6 -29 -2 -44 27 -16 29 -17 37 -6 50 22 26 39 19 61 -25z
m122 -59 c-4 -29 -12 -37 -25 -24 -5 5 20 54 27 54 2 0 1 -13 -2 -30z m1709
-62 c-10 -3 -22 -12 -26 -18 -4 -7 -19 2 -42 25 l-35 36 24 19 c23 19 23 19
61 -18 34 -33 36 -37 18 -44z"/>
</g>
</svg>
