<?xml version="1.0" standalone="no"?>
<!DOCTYPE svg PUBLIC "-//W3C//DTD SVG 20010904//EN"
 "http://www.w3.org/TR/2001/REC-SVG-20010904/DTD/svg10.dtd">
<svg version="1.0" xmlns="http://www.w3.org/2000/svg"
 width="480.000000pt" height="360.000000pt" viewBox="0 0 480.000000 360.000000"
 preserveAspectRatio="xMidYMid meet">
<metadata>
Created by potrace 1.16, written by Peter Selinger 2001-2019
</metadata>
<rect width="1" height="360" fill="#000000"/>
<rect x="479" width="1" height="360" fill="#000000"/>
<rect width="480" height="1" fill="#000000"/>
<rect y="359" width="480" height="1" fill="#000000"/>
<g transform="translate(0.000000,360.000000) scale(0.100000,-0.100000)"
fill="#000000" stroke="none">
<path d="M3025 3407 c-62 -21 -122 -55 -163 -91 -35 -32 -42 -34 -129 -38 -78
-3 -97 -8 -131 -31 -22 -14 -43 -36 -47 -48 -8 -23 -10 -23 -101 15 -146 61
-319 78 -437 43 -31 -10 -72 -17 -91 -15 -24 1 -43 -6 -66 -26 -18 -15 -51
-36 -74 -48 -92 -47 -115 -81 -110 -165 3 -40 13 -66 46 -119 52 -82 157 -187
218 -219 25 -12 56 -32 70 -43 l24 -20 -31 -63 c-54 -111 -64 -156 -75 -318
-9 -134 -8 -168 7 -257 10 -56 16 -118 13 -138 -3 -30 -1 -36 14 -36 12 0 24
-14 34 -40 9 -22 22 -40 30 -40 7 0 28 -13 46 -28 42 -35 115 -83 151 -99 25
-11 27 -11 17 7 -14 26 -9 25 47 -9 27 -16 58 -32 70 -35 11 -4 23 -13 26 -20
5 -12 -24 -192 -38 -236 -5 -17 -13 -21 -31 -17 -22 4 -24 1 -24 -33 0 -37
-72 -440 -84 -470 -9 -23 10 -48 25 -33 22 22 45 -27 64 -137 15 -94 78 -337
90 -349 10 -10 14 9 24 129 24 271 31 313 58 335 20 17 23 24 15 45 -7 18 0
75 25 210 18 102 38 200 44 218 9 28 8 36 -6 46 -15 11 -16 22 -10 74 4 34 11
64 16 67 14 9 44 -11 73 -50 27 -36 28 -37 17 -113 -5 -42 -13 -92 -17 -109
-6 -31 -4 -33 25 -39 21 -5 33 -13 36 -28 26 -131 86 -327 115 -375 7 -10 8
51 4 174 l-7 190 27 28 c21 23 24 32 15 48 -5 11 -7 29 -4 40 5 16 13 20 33
16 35 -7 67 11 122 67 66 69 62 72 111 -94 12 -41 37 -105 55 -142 19 -37 34
-75 34 -83 0 -9 -21 -40 -46 -69 -56 -63 -124 -190 -124 -231 0 -24 -12 -42
-51 -80 -79 -78 -83 -90 -73 -225 5 -63 8 -157 7 -207 l-2 -93 855 0 c470 0
854 2 854 5 0 2 -7 19 -15 37 -8 18 -55 130 -104 248 -49 118 -101 241 -115
274 -14 32 -26 63 -26 68 0 5 18 26 40 47 56 54 53 63 -20 55 l-59 -6 -14 33
c-8 19 -27 66 -42 104 -37 98 -120 245 -171 306 -24 28 -44 53 -44 55 0 3 53
-50 117 -117 65 -66 119 -117 121 -111 1 5 -19 45 -46 88 -63 101 -94 163 -90
176 2 6 25 -8 51 -31 45 -38 87 -66 87 -58 0 17 -31 84 -68 147 -45 74 -92
179 -92 201 0 7 23 -20 51 -60 28 -40 52 -71 54 -69 3 2 -9 43 -25 90 -15 47
-49 175 -74 284 -26 110 -60 255 -77 324 -98 409 -186 624 -326 804 -41 52
-53 76 -53 103 0 125 -188 309 -398 389 -81 31 -190 40 -247 21z m-700 -1782
c45 -27 71 -52 63 -60 -4 -4 -95 59 -116 80 -13 13 13 3 53 -20z"/>
</g>
</svg>
