<?xml version="1.0" standalone="no"?>
<!DOCTYPE svg PUBLIC "-//W3C//DTD SVG 20010904//EN"
 "http://www.w3.org/TR/2001/REC-SVG-20010904/DTD/svg10.dtd">
<svg version="1.0" xmlns="http://www.w3.org/2000/svg"
 width="480.000000pt" height="360.000000pt" viewBox="0 0 480.000000 360.000000"
 preserveAspectRatio="xMidYMid meet">
<metadata>
Created by potrace 1.16, written by Peter Selinger 2001-2019
</metadata>
<rect width="1" height="360" fill="#000000"/>
<rect x="479" width="1" height="360" fill="#000000"/>
<rect width="480" height="1" fill="#000000"/>
<rect y="359" width="480" height="1" fill="#000000"/>
<g transform="translate(0.000000,360.000000) scale(0.100000,-0.100000)"
fill="#000000" stroke="none">
<path d="M0 1800 l0 -1800 884 0 884 0 -24 51 c-32 66 -29 89 19 112 40 20 45
32 23 56 -8 9 -28 42 -45 75 -34 64 -38 107 -21 211 22 128 30 244 20 271 -8
20 -6 48 6 107 l16 79 -25 27 c-38 40 -47 65 -47 125 0 135 111 346 218 415
60 38 55 13 78 378 l17 263 -33 67 c-29 59 -34 78 -36 158 l-2 90 -59 8 c-221
29 -236 35 -214 83 21 47 130 192 167 222 l35 29 -40 63 c-42 65 -42 90 0 90
10 0 20 4 23 9 3 5 -8 53 -24 107 -32 107 -37 154 -17 154 7 0 69 -56 139
-125 l126 -125 34 14 c86 37 579 58 742 32 l100 -15 35 42 c104 126 261 258
261 220 0 -27 -67 -347 -85 -409 -6 -20 -1 -22 73 -33 95 -14 331 -76 345 -90
7 -7 7 -14 2 -20 -12 -11 -260 -91 -284 -91 -13 -1 -11 -4 6 -19 17 -14 20
-21 10 -28 -25 -19 -77 -35 -173 -52 l-99 -17 1 -40 c1 -21 11 -81 22 -132 16
-72 21 -134 23 -275 1 -100 8 -254 15 -342 8 -88 14 -165 14 -171 0 -6 22 -38
49 -72 67 -83 168 -290 180 -366 10 -66 -5 -127 -39 -164 -17 -18 -19 -30 -14
-81 4 -37 2 -71 -5 -88 -9 -22 -8 -40 4 -83 9 -30 20 -82 25 -115 14 -99 29
-165 42 -193 12 -23 22 -27 96 -38 90 -13 112 -24 112 -61 0 -44 -40 -141 -84
-205 -24 -35 -49 -73 -55 -85 l-12 -23 696 0 695 0 0 1800 0 1800 -2400 0
-2400 0 0 -1800z"/>
<path d="M2116 889 c-3 -8 -9 -50 -15 -94 -5 -45 -17 -94 -25 -110 -9 -17 -16
-41 -16 -55 0 -14 -4 -41 -10 -60 -20 -71 -15 -124 16 -168 43 -61 61 -63 123
-10 l32 27 -21 88 c-11 49 -32 155 -45 237 -25 150 -31 171 -39 145z"/>
</g>
</svg>
