<?xml version="1.0" standalone="no"?>
<!DOCTYPE svg PUBLIC "-//W3C//DTD SVG 20010904//EN"
 "http://www.w3.org/TR/2001/REC-SVG-20010904/DTD/svg10.dtd">
<svg version="1.0" xmlns="http://www.w3.org/2000/svg"
 width="480.000000pt" height="360.000000pt" viewBox="0 0 480.000000 360.000000"
 preserveAspectRatio="xMidYMid meet">
<metadata>
Created by potrace 1.16, written by Peter Selinger 2001-2019
</metadata>
<rect width="1" height="360" fill="#000000"/>
<rect x="479" width="1" height="360" fill="#000000"/>
<rect width="480" height="1" fill="#000000"/>
<rect y="359" width="480" height="1" fill="#000000"/>
<g transform="translate(0.000000,360.000000) scale(0.100000,-0.100000)"
fill="#000000" stroke="none">
<path d="M0 1800 l0 -1800 888 0 887 0 17 58 c12 40 19 106 22 217 4 139 11
199 32 266 3 12 -9 22 -48 39 -81 35 -214 145 -244 203 -14 26 -13 29 15 55
45 41 85 73 143 116 29 22 74 65 100 96 49 59 144 235 154 286 l6 29 -107 -10
-107 -10 -39 -45 c-41 -47 -49 -77 -24 -86 22 -9 18 -27 -5 -21 -10 3 -20 1
-22 -3 -2 -4 -14 -10 -28 -12 -20 -2 -28 4 -42 30 -15 31 -17 32 -23 12 -4
-12 -12 -19 -18 -17 -16 5 -9 54 14 100 24 46 19 49 -77 45 -69 -3 -69 -3 -81
-38 l-13 -35 3 35 2 35 -60 6 c-80 7 -139 48 -119 80 3 5 50 9 104 9 57 0 102
4 105 10 4 6 -14 20 -39 31 -41 18 -45 22 -35 40 14 27 33 33 58 19 15 -7 21
-19 19 -38 -3 -40 9 -54 33 -42 11 7 19 7 19 1 0 -5 -6 -12 -12 -15 -7 -3 33
-4 89 -3 63 3 108 9 118 17 17 14 75 112 75 128 0 5 -65 48 -145 93 -130 75
-145 87 -143 109 4 36 31 36 80 2 69 -48 217 -132 233 -132 8 0 29 26 45 58
17 31 49 83 71 114 36 52 49 85 74 202 8 36 101 135 172 182 29 19 53 39 53
44 0 5 17 14 37 21 32 10 35 13 17 19 -11 4 -26 15 -33 24 -8 9 -22 14 -31 11
-14 -4 -22 7 -40 50 -21 51 -40 71 -40 43 0 -7 -14 13 -30 45 -32 61 -39 122
-19 160 65 123 238 214 338 179 26 -9 40 -7 83 13 64 29 160 55 206 55 22 0
41 -8 58 -25 23 -24 24 -26 9 -54 -20 -40 -19 -63 5 -94 24 -31 26 -70 4 -88
-9 -8 -28 -32 -42 -54 -38 -61 -73 -95 -100 -95 -23 0 -24 -2 -17 -47 4 -27
10 -54 15 -62 10 -18 -15 -45 -35 -37 -8 3 -16 -3 -20 -15 -4 -10 -10 -17 -15
-14 -5 3 -11 1 -15 -4 -4 -7 -15 -7 -32 0 -27 10 -71 2 -57 -11 5 -4 41 -18
79 -30 133 -43 245 -122 245 -174 1 -36 36 -103 77 -143 21 -21 72 -77 111
-125 54 -65 79 -88 96 -88 16 0 42 -20 80 -61 47 -50 59 -59 71 -49 26 22 45
4 45 -42 1 -42 4 -45 78 -103 42 -33 131 -105 197 -160 66 -56 192 -159 280
-230 174 -140 331 -268 575 -470 87 -71 177 -146 201 -165 24 -19 82 -72 128
-117 47 -46 86 -83 88 -83 2 0 3 756 3 1680 l0 1680 -427 0 c-427 -1 -428 -1
-392 -20 88 -46 141 -143 147 -270 4 -83 3 -86 -30 -135 -73 -105 -202 -160
-319 -136 -114 24 -191 92 -219 194 l-11 37 -97 0 c-53 0 -155 -6 -227 -13
-171 -18 -191 -18 -250 -5 -123 27 -188 93 -289 296 l-26 52 -1330 0 -1330 0
0 -1800z m4237 1213 c4 -11 -4 -26 -26 -45 -37 -33 -57 -32 -53 3 5 48 65 80
79 42z m-1081 -351 c-22 -5 -30 3 -21 18 5 8 11 7 22 -2 15 -12 14 -13 -1 -16z
m-2334 -405 c37 -42 47 -70 28 -82 -15 -9 -12 -109 4 -168 8 -29 17 -69 21
-90 4 -26 24 -59 62 -103 l55 -66 -27 -28 c-15 -15 -40 -31 -57 -34 l-31 -6 8
-177 c5 -125 12 -195 25 -235 15 -50 16 -59 3 -69 -11 -10 -20 -8 -43 9 -38
29 -47 28 -53 -5 -7 -37 16 -79 48 -87 22 -6 36 -26 18 -26 -5 0 -78 -11 -163
-25 -85 -14 -212 -34 -281 -45 -138 -22 -365 -28 -382 -11 -13 13 48 41 90 41
15 1 46 7 68 15 22 8 90 20 150 25 61 6 142 16 180 23 62 11 70 15 73 36 5 29
-7 41 -50 50 -40 9 -41 21 -4 108 28 66 53 210 42 238 -5 13 -14 16 -36 12
-41 -9 -45 5 -15 62 34 67 33 88 -5 96 -49 11 -79 73 -45 93 17 9 25 23 93
152 42 81 45 100 15 100 -11 0 -14 6 -8 23 4 12 9 49 12 82 2 33 9 71 14 85
14 37 56 57 109 52 38 -3 51 -11 82 -45z m2377 -16 c10 -7 6 -15 -19 -40 -39
-37 -70 -41 -70 -9 0 44 51 73 89 49z m216 -205 c60 -25 40 -46 -44 -46 -26 0
-56 6 -66 14 -18 13 -17 14 11 29 37 20 56 21 99 3z m1013 -203 c2 -8 -5 -13
-17 -13 -12 0 -21 6 -21 16 0 18 31 15 38 -3z"/>
<path d="M740 1230 c0 -11 -11 -27 -25 -36 -32 -21 -35 -70 -5 -79 29 -9 38 0
38 39 0 19 3 48 7 65 4 20 3 31 -4 31 -6 0 -11 -9 -11 -20z"/>
<path d="M2710 3595 c0 -12 33 -71 58 -104 21 -28 26 -31 34 -17 11 20 41 21
57 2 6 -7 8 -26 5 -43 -8 -39 12 -54 83 -60 59 -5 129 5 348 51 66 13 158 28
205 32 l84 7 56 56 c30 31 64 61 75 68 16 9 -91 12 -492 12 -282 1 -513 -1
-513 -4z"/>
<path d="M2550 1946 c0 -19 -9 -78 -20 -132 -12 -55 -20 -117 -18 -139 2 -30
-1 -41 -14 -43 -9 -2 -18 -11 -21 -22 -7 -26 4 -71 18 -76 14 -6 351 33 452
52 28 5 33 3 37 -17 13 -66 14 -89 5 -95 -6 -3 -107 -16 -225 -29 -119 -13
-218 -25 -221 -28 -6 -7 14 -70 38 -118 24 -48 87 -79 542 -266 40 -16 44 -22
25 -41 -30 -30 -148 -1 -332 80 -49 21 -91 37 -93 34 -3 -3 3 -17 14 -33 44
-65 85 -198 78 -254 -6 -51 -85 -180 -129 -213 -17 -13 -50 -33 -73 -45 -24
-12 -43 -25 -43 -29 0 -4 8 -27 17 -52 11 -30 18 -99 23 -210 6 -141 11 -173
31 -217 l23 -53 1068 0 1068 0 0 114 0 114 -82 42 c-125 64 -124 63 -192 128
-37 36 -70 60 -82 59 -13 -2 -19 4 -18 19 0 13 -4 20 -12 17 -15 -5 -84 54
-84 73 0 8 -7 14 -16 14 -10 0 -36 16 -60 35 -23 19 -47 35 -54 35 -6 0 -8 5
-5 10 3 6 -1 10 -10 10 -9 0 -14 4 -11 9 3 5 -1 11 -9 15 -8 3 -15 12 -15 20
0 9 -14 18 -35 22 -23 4 -35 12 -35 22 0 12 3 13 12 4 7 -7 16 -12 22 -12 5 0
1 6 -9 14 -11 8 -23 12 -27 10 -17 -11 -218 161 -218 186 0 7 -7 10 -15 7 -15
-6 -56 26 -152 121 -30 28 -60 52 -67 52 -8 0 -28 13 -46 30 -17 16 -35 28
-38 27 -9 -3 -155 119 -253 212 -77 72 -80 74 -105 60 -23 -12 -27 -12 -40 6
-8 10 -14 25 -14 32 0 7 -10 13 -22 13 -27 1 -58 22 -58 39 0 16 -124 138
-191 188 -30 23 -78 66 -108 97 -29 31 -60 56 -70 56 -9 0 -42 18 -73 40 l-58
40 0 -34z"/>
<path d="M2126 1881 c-16 -16 -39 -32 -52 -35 -13 -4 -30 -19 -38 -34 -8 -15
-24 -38 -35 -51 -12 -13 -21 -30 -21 -36 0 -7 -10 -25 -22 -40 -18 -23 -19
-31 -9 -47 6 -11 9 -28 6 -38 -5 -16 4 -25 49 -47 l56 -27 18 24 c19 27 37 58
48 79 7 13 0 21 -40 46 -14 9 -12 18 18 80 36 73 61 143 54 151 -3 2 -17 -9
-32 -25z"/>
<path d="M1816 1500 l-29 -35 34 -3 c19 -2 59 -1 89 3 49 6 53 8 36 21 -16 11
-23 11 -45 -1 -32 -16 -48 -9 -52 25 -4 24 -4 24 -33 -10z"/>
<path d="M2018 504 c-19 -6 -22 -16 -43 -157 -8 -60 -22 -139 -30 -177 -8 -40
-12 -89 -8 -119 l6 -51 273 0 273 0 7 47 c5 34 1 73 -14 138 -12 49 -29 126
-37 170 -9 44 -20 94 -25 110 l-10 30 -162 1 c-90 0 -174 3 -188 6 -14 4 -32
4 -42 2z"/>
</g>
</svg>
