<?xml version="1.0" standalone="no"?>
<!DOCTYPE svg PUBLIC "-//W3C//DTD SVG 20010904//EN"
 "http://www.w3.org/TR/2001/REC-SVG-20010904/DTD/svg10.dtd">
<svg version="1.0" xmlns="http://www.w3.org/2000/svg"
 width="480.000000pt" height="360.000000pt" viewBox="0 0 480.000000 360.000000"
 preserveAspectRatio="xMidYMid meet">
<metadata>
Created by potrace 1.16, written by Peter Selinger 2001-2019
</metadata>
<rect width="1" height="360" fill="#000000"/>
<rect x="479" width="1" height="360" fill="#000000"/>
<rect width="480" height="1" fill="#000000"/>
<rect y="359" width="480" height="1" fill="#000000"/>
<g transform="translate(0.000000,360.000000) scale(0.100000,-0.100000)"
fill="#000000" stroke="none">
<path d="M0 1800 l0 -1800 750 0 750 0 0 39 0 39 -87 6 c-49 4 -119 9 -158 12
-113 8 -160 28 -240 104 -39 37 -102 83 -142 104 -40 21 -79 49 -88 63 -15 23
-48 163 -38 163 2 0 -5 14 -17 30 -30 42 -21 70 48 144 32 34 65 77 74 98 20
44 68 80 126 97 71 20 192 79 231 112 80 68 261 248 321 319 35 41 87 100 117
130 l53 55 -21 43 c-25 49 -18 64 37 82 l34 12 -6 116 c-4 64 -9 120 -13 124
-4 4 -18 -3 -32 -16 -19 -18 -30 -45 -44 -107 -25 -117 -59 -211 -98 -274 -19
-30 -36 -53 -39 -50 -2 2 2 53 9 112 7 60 12 118 11 131 l-3 22 -30 -25 c-16
-14 -46 -41 -66 -59 -20 -19 -48 -41 -62 -50 -14 -10 -31 -30 -37 -47 -7 -16
-22 -34 -32 -40 -11 -6 -26 -26 -34 -45 -14 -34 -39 -45 -47 -21 -3 9 -7 9
-20 -2 -9 -7 -23 -11 -31 -8 -8 3 -17 1 -20 -6 -6 -15 -65 52 -66 75 0 15 45
56 130 120 19 14 96 86 171 161 116 114 139 142 154 186 9 28 21 53 26 56 5 4
9 22 9 40 0 24 9 45 29 67 30 35 51 96 96 283 14 61 28 116 30 123 3 7 -5 22
-16 33 -20 20 -22 48 -8 99 3 9 -5 16 -21 17 -94 12 -118 26 -60 37 17 3 43 9
59 12 21 4 31 13 36 32 4 15 14 35 22 45 18 19 18 17 -37 117 -26 47 -28 56
-14 58 9 2 35 -15 58 -37 l43 -42 169 -1 170 -2 59 47 c33 26 63 47 68 47 14
0 6 -34 -28 -113 -19 -44 -35 -81 -35 -82 0 -1 17 -2 38 -2 37 -1 142 -40 142
-54 0 -5 -16 -11 -35 -15 -25 -4 -35 -11 -33 -23 2 -11 -7 -17 -32 -21 -43 -6
-43 -7 7 -170 67 -216 70 -219 228 -304 84 -45 90 -51 46 -42 -50 9 -29 -10
83 -74 93 -54 112 -70 81 -70 -23 0 -19 -7 35 -69 54 -62 65 -90 29 -71 -19
11 -20 10 -9 -10 11 -20 10 -21 -9 -11 -19 11 -20 9 -15 -19 7 -31 -3 -39 -24
-18 -18 18 -15 -3 4 -23 12 -14 13 -21 3 -37 -10 -17 -7 -29 28 -89 65 -114
79 -176 46 -205 -26 -22 -84 -50 -91 -44 -3 3 -9 32 -13 63 -7 51 -13 62 -53
100 -45 42 -50 51 -47 85 3 25 -81 108 -110 108 -13 0 -44 9 -68 20 -24 11
-51 20 -60 20 -10 0 -28 11 -41 25 -25 26 -140 89 -148 80 -20 -20 -28 -176
-11 -223 10 -30 12 -31 57 -26 26 3 53 8 61 10 17 6 82 -12 103 -28 24 -19 11
-212 -17 -251 -22 -30 -46 -34 -65 -12 -24 29 -30 15 -10 -24 27 -54 61 -88
90 -93 33 -4 49 -61 33 -121 -10 -36 -9 -49 9 -90 17 -38 20 -60 15 -110 -5
-57 -3 -66 24 -107 70 -106 150 -168 254 -201 65 -20 115 -62 115 -98 0 -9 5
-22 10 -27 7 -7 5 -29 -6 -70 -9 -32 -16 -74 -15 -93 1 -24 -7 -43 -29 -67
-23 -27 -30 -44 -30 -77 0 -37 -6 -48 -39 -80 -32 -30 -47 -37 -79 -37 -22 0
-70 -9 -107 -21 -58 -18 -66 -23 -63 -42 l3 -22 1158 -3 1157 -2 0 1800 0
1800 -2400 0 -2400 0 0 -1800z"/>
<path d="M1788 2339 l-16 -60 46 6 c71 10 82 15 82 36 0 14 -7 19 -30 19 -18
0 -30 5 -30 13 0 8 -8 21 -18 30 -17 16 -19 13 -34 -44z"/>
<path d="M2371 1048 c0 -7 4 -22 8 -32 7 -19 8 -18 14 4 3 13 4 27 1 32 -8 12
-24 10 -23 -4z"/>
<path d="M1700 15 c0 -12 12 -15 53 -14 53 1 49 4 -25 23 -21 5 -28 3 -28 -9z"/>
</g>
</svg>
