<?xml version="1.0" standalone="no"?>
<!DOCTYPE svg PUBLIC "-//W3C//DTD SVG 20010904//EN"
 "http://www.w3.org/TR/2001/REC-SVG-20010904/DTD/svg10.dtd">
<svg version="1.0" xmlns="http://www.w3.org/2000/svg"
 width="480.000000pt" height="360.000000pt" viewBox="0 0 480.000000 360.000000"
 preserveAspectRatio="xMidYMid meet">
<metadata>
Created by potrace 1.16, written by Peter Selinger 2001-2019
</metadata>
<rect width="1" height="360" fill="#000000"/>
<rect x="479" width="1" height="360" fill="#000000"/>
<rect width="480" height="1" fill="#000000"/>
<rect y="359" width="480" height="1" fill="#000000"/>
<g transform="translate(0.000000,360.000000) scale(0.100000,-0.100000)"
fill="#000000" stroke="none">
<path d="M3078 3338 c-64 -104 -270 -331 -312 -344 -43 -14 -59 -61 -30 -85
14 -11 21 -10 46 4 37 21 41 19 28 -19 -13 -36 -73 -77 -137 -94 -27 -6 -60
-18 -75 -26 -14 -8 -37 -14 -50 -14 -44 0 -53 -16 -50 -86 1 -16 8 -38 15 -48
12 -16 16 -17 36 -5 16 10 24 11 29 3 4 -7 26 -11 50 -10 52 1 63 -13 55 -71
-4 -29 -2 -43 6 -43 6 0 11 -8 11 -19 0 -13 7 -18 27 -17 20 1 29 -4 31 -19 2
-11 13 -28 23 -38 28 -26 23 -57 -13 -89 l-33 -28 28 -23 28 -23 -12 -72 c-13
-79 -19 -83 -72 -55 -18 9 -84 37 -147 63 -88 35 -153 72 -273 153 -87 59
-170 110 -185 113 -15 4 -32 11 -38 16 -15 11 -89 32 -189 53 -54 12 -87 24
-100 39 -29 32 -110 76 -139 76 -16 0 -27 -7 -31 -21 -9 -26 -41 -20 -105 21
-45 29 -69 56 -124 138 -35 51 -56 55 -56 10 0 -18 -7 -42 -15 -52 -22 -29
-19 -49 20 -114 47 -82 92 -119 222 -182 106 -52 112 -57 118 -91 3 -20 -1
-83 -9 -140 -16 -109 -36 -320 -36 -379 0 -68 6 -68 149 4 127 63 136 66 205
66 63 0 82 -5 145 -36 59 -29 421 -169 494 -191 9 -3 17 -9 17 -13 0 -4 -46
-99 -103 -212 -119 -235 -134 -286 -112 -368 8 -30 12 -69 9 -87 -5 -28 -2
-33 28 -48 58 -30 58 -30 36 -103 -11 -37 -26 -71 -34 -75 -27 -16 -107 -140
-140 -219 -19 -45 -47 -103 -62 -130 l-27 -49 24 -20 c46 -38 60 -23 106 119
l27 83 39 -36 c21 -19 46 -35 55 -35 23 0 15 -79 -15 -143 -22 -49 -21 -67 5
-67 11 0 14 -24 14 -130 l0 -130 657 2 656 3 29 85 c28 82 48 193 68 365 5 44
13 93 19 108 20 51 7 356 -21 517 -87 491 -86 477 -57 845 17 227 14 215 60
215 22 0 39 5 39 11 0 6 -18 34 -40 61 -39 49 -40 53 -40 125 0 68 3 81 38
141 34 62 37 73 37 147 0 72 -4 88 -37 157 -101 211 -252 348 -488 441 -70 28
-186 37 -265 22 -38 -8 -39 -7 -24 11 9 10 26 36 38 57 22 36 23 39 6 57 -28
31 -43 24 -77 -32z"/>
</g>
</svg>
