<?xml version="1.0" standalone="no"?>
<!DOCTYPE svg PUBLIC "-//W3C//DTD SVG 20010904//EN"
 "http://www.w3.org/TR/2001/REC-SVG-20010904/DTD/svg10.dtd">
<svg version="1.0" xmlns="http://www.w3.org/2000/svg"
 width="480.000000pt" height="360.000000pt" viewBox="0 0 480.000000 360.000000"
 preserveAspectRatio="xMidYMid meet">
<metadata>
Created by potrace 1.16, written by Peter Selinger 2001-2019
</metadata>
<rect width="1" height="360" fill="#000000"/>
<rect x="479" width="1" height="360" fill="#000000"/>
<rect width="480" height="1" fill="#000000"/>
<rect y="359" width="480" height="1" fill="#000000"/>
<g transform="translate(0.000000,360.000000) scale(0.100000,-0.100000)"
fill="#000000" stroke="none">
<path d="M0 1800 l0 -1800 1011 2 1011 3 14 40 c8 22 50 184 94 359 82 329 83
337 41 351 -10 3 -26 20 -36 39 -24 45 -16 113 21 173 36 57 57 72 82 57 26
-17 26 -49 -3 -107 -25 -53 -26 -87 0 -87 15 0 65 174 65 229 0 30 -5 41 -18
45 -22 7 -47 60 -97 200 -32 90 -35 108 -35 211 l0 113 35 42 c20 24 34 50 31
59 -3 9 -11 52 -20 96 -8 44 -17 91 -19 105 -3 14 -12 61 -21 104 -15 74 -15
80 2 92 9 7 33 14 53 14 41 0 51 -17 42 -73 -2 -18 0 -99 6 -182 9 -132 13
-151 31 -165 17 -13 18 -18 8 -29 -11 -11 -9 -12 7 -9 18 3 21 15 29 128 7
114 6 130 -11 170 -19 44 -31 74 -60 156 -10 30 -24 45 -49 57 -47 23 -60 22
-161 -13 -47 -17 -107 -30 -132 -30 -101 0 -192 72 -253 200 -18 36 -37 72
-44 80 -7 8 -18 37 -25 63 -11 38 -11 53 1 84 7 21 14 60 15 87 2 44 6 54 39
82 49 42 137 84 251 121 l90 28 280 0 c217 0 286 3 305 14 14 7 88 77 165 156
123 124 147 145 200 165 66 25 183 32 288 16 49 -7 57 -6 57 7 0 10 -13 18
-34 23 l-35 6 22 34 c12 19 37 39 55 46 25 9 32 18 32 38 0 17 13 38 35 60 19
19 35 39 35 46 0 22 36 58 53 51 15 -5 15 -11 1 -56 -11 -39 -12 -55 -2 -76
10 -23 9 -29 -14 -52 l-26 -26 20 -28 c40 -53 2 -128 -47 -93 -10 7 -22 11
-26 8 -21 -12 -5 -31 48 -59 69 -36 162 -124 192 -182 28 -56 41 -150 41 -313
0 -209 7 -222 181 -362 215 -171 307 -277 385 -442 19 -39 41 -101 50 -138
l17 -68 -28 -62 c-18 -41 -30 -87 -34 -137 -6 -72 -7 -76 -31 -79 -54 -6 -129
76 -130 141 0 32 -23 24 -214 -77 -53 -28 -80 -36 -120 -36 -103 0 -238 57
-321 136 -63 61 -154 203 -114 178 7 -4 10 -1 7 7 -8 24 -62 48 -113 48 -27 1
-87 -6 -132 -15 l-83 -17 0 -41 c1 -22 5 -102 9 -176 8 -128 18 -182 76 -410
68 -268 88 -470 65 -642 -5 -40 -11 -166 -13 -281 l-4 -207 853 0 854 0 0
1800 0 1800 -2400 0 -2400 0 0 -1800z m2289 246 c-3 -3 -11 5 -18 17 -13 21
-12 21 5 5 10 -10 16 -20 13 -22z"/>
<path d="M1671 2468 c45 -145 119 -245 199 -269 40 -12 49 -10 156 27 111 38
138 54 91 54 -29 0 -47 18 -47 46 0 24 -76 87 -145 121 -48 24 -185 69 -237
78 l-37 7 20 -64z"/>
<path d="M2290 2157 c0 -4 12 -31 27 -60 20 -39 28 -47 31 -33 2 11 -3 25 -12
31 -9 7 -16 16 -16 22 0 11 -29 51 -30 40z"/>
<path d="M2956 1898 c3 -35 9 -66 13 -69 7 -8 136 13 146 23 7 7 -141 108
-158 108 -4 0 -5 -28 -1 -62z"/>
<path d="M3330 1755 c0 -14 42 -84 77 -130 77 -99 193 -161 288 -152 54 5 286
113 281 132 -4 19 -211 115 -290 135 -60 15 -112 20 -218 20 -76 0 -138 -2
-138 -5z"/>
<path d="M4130 1660 c-8 -15 -8 -20 2 -20 15 1 48 24 48 34 0 15 -40 4 -50
-14z"/>
<path d="M2286 1643 c-11 -11 -6 -23 9 -23 8 0 15 4 15 9 0 13 -16 22 -24 14z"/>
<path d="M4146 1599 c-46 -29 -48 -31 -41 -67 8 -43 36 -95 50 -94 6 1 11 14
13 29 1 15 9 56 18 91 9 35 15 65 12 67 -2 2 -25 -10 -52 -26z"/>
<path d="M2272 1558 c5 -32 28 -35 28 -4 0 17 -5 26 -16 26 -10 0 -14 -7 -12
-22z"/>
</g>
</svg>
