<?xml version="1.0" standalone="no"?>
<!DOCTYPE svg PUBLIC "-//W3C//DTD SVG 20010904//EN"
 "http://www.w3.org/TR/2001/REC-SVG-20010904/DTD/svg10.dtd">
<svg version="1.0" xmlns="http://www.w3.org/2000/svg"
 width="480.000000pt" height="360.000000pt" viewBox="0 0 480.000000 360.000000"
 preserveAspectRatio="xMidYMid meet">
<metadata>
Created by potrace 1.16, written by Peter Selinger 2001-2019
</metadata>
<rect width="1" height="360" fill="#000000"/>
<rect x="479" width="1" height="360" fill="#000000"/>
<rect width="480" height="1" fill="#000000"/>
<rect y="359" width="480" height="1" fill="#000000"/>
<g transform="translate(0.000000,360.000000) scale(0.100000,-0.100000)"
fill="#000000" stroke="none">
<path d="M0 1800 l0 -1800 951 0 951 0 -26 31 c-33 39 -34 81 -1 193 14 48 36
133 49 189 14 56 45 164 70 241 l46 139 -25 29 c-28 33 -31 69 -13 130 9 32 9
41 -2 48 -11 7 -5 35 28 147 55 183 99 368 113 473 6 47 18 93 26 102 8 9 13
25 10 35 -3 15 -6 14 -15 -7 -8 -19 -11 -20 -11 -7 -1 10 8 36 20 58 19 38 20
48 10 146 -11 108 -8 125 27 166 8 9 10 17 4 17 -6 0 -19 -11 -29 -23 -43 -56
-82 -55 -122 2 -26 36 -27 63 -3 84 20 19 110 42 194 52 39 4 58 11 60 22 2
12 20 15 86 17 73 2 82 0 82 -16 0 -15 9 -18 53 -18 62 0 183 -31 204 -53 23
-23 -9 -101 -48 -117 -47 -20 -52 -33 -50 -132 1 -74 6 -101 26 -146 29 -64
30 -69 9 -51 -15 12 -16 8 -11 -41 17 -191 47 -320 132 -570 l45 -135 -21 -16
c-19 -14 -20 -19 -9 -56 15 -50 6 -107 -22 -135 l-21 -21 42 -131 c22 -72 50
-169 61 -216 12 -47 32 -125 45 -175 45 -163 45 -188 -2 -231 l-26 -24 957 0
956 0 0 1800 0 1800 -2400 0 -2400 0 0 -1800z"/>
<path d="M2380 15 c-11 -13 -8 -15 20 -15 28 0 31 2 20 15 -7 8 -16 15 -20 15
-4 0 -13 -7 -20 -15z"/>
</g>
</svg>
