<?xml version="1.0" standalone="no"?>
<!DOCTYPE svg PUBLIC "-//W3C//DTD SVG 20010904//EN"
 "http://www.w3.org/TR/2001/REC-SVG-20010904/DTD/svg10.dtd">
<svg version="1.0" xmlns="http://www.w3.org/2000/svg"
 width="480.000000pt" height="360.000000pt" viewBox="0 0 480.000000 360.000000"
 preserveAspectRatio="xMidYMid meet">
<metadata>
Created by potrace 1.16, written by Peter Selinger 2001-2019
</metadata>
<rect width="1" height="360" fill="#000000"/>
<rect x="479" width="1" height="360" fill="#000000"/>
<rect width="480" height="1" fill="#000000"/>
<rect y="359" width="480" height="1" fill="#000000"/>
<g transform="translate(0.000000,360.000000) scale(0.100000,-0.100000)"
fill="#000000" stroke="none">
<path d="M0 1800 l0 -1800 2400 0 2400 0 0 1800 0 1800 -2400 0 -2400 0 0
-1800z m2270 1085 c0 -11 12 -15 45 -15 25 0 45 -4 45 -8 0 -4 -11 -23 -25
-42 -32 -43 -31 -56 1 -63 19 -3 34 4 65 34 45 43 86 55 156 44 58 -8 89 -24
159 -78 29 -23 63 -50 76 -59 l23 -17 -40 -1 c-23 0 -54 9 -73 20 -44 27 -78
26 -86 -2 -12 -48 -7 -55 54 -77 45 -16 69 -33 97 -66 25 -31 48 -47 70 -51
18 -3 45 -17 60 -30 25 -21 26 -24 8 -24 -18 0 -18 -2 5 -21 24 -19 24 -20 3
-17 -12 2 -23 -1 -23 -7 -2 -16 -29 -27 -50 -20 -11 4 -34 4 -50 0 -37 -8 -29
-35 10 -35 36 0 38 -3 42 -79 2 -38 8 -67 17 -74 9 -8 55 -12 127 -12 100 1
113 -1 117 -17 3 -10 1 -18 -4 -18 -5 0 -9 -9 -9 -20 0 -19 -4 -20 -67 -15
-38 4 -90 11 -116 16 -62 12 -87 11 -87 -2 0 -19 69 -39 138 -39 37 0 72 -4
78 -9 5 -5 59 0 134 15 131 24 196 28 298 18 45 -5 59 -10 55 -20 -3 -8 2 -14
11 -14 9 0 16 -6 15 -12 -3 -29 2 -39 27 -48 15 -6 22 -15 18 -21 -5 -9 1 -10
20 -5 19 5 26 3 26 -8 0 -15 35 -32 59 -27 7 1 10 -2 6 -8 -3 -6 -13 -11 -21
-11 -8 0 -14 -9 -14 -20 0 -11 5 -20 10 -20 6 0 10 -7 10 -15 0 -8 -5 -15 -10
-15 -6 0 -8 -13 -5 -31 5 -28 3 -31 -15 -26 -17 4 -19 3 -9 -9 16 -19 -12 -30
-40 -15 -27 15 -41 14 -35 -3 3 -8 -8 -19 -30 -30 -21 -10 -33 -22 -30 -29 7
-19 -44 -14 -87 8 l-34 17 30 -32 c31 -35 21 -32 -31 7 -43 32 -68 39 -232 67
-98 17 -163 34 -206 54 -71 33 -134 47 -155 33 -12 -8 -12 -16 -2 -53 19 -67
12 -102 -21 -106 -19 -2 -30 3 -38 19 -12 21 -12 21 -31 -10 -33 -54 -56 -34
-61 54 -3 59 -3 59 -38 67 -19 5 -78 3 -131 -3 -114 -13 -139 -5 -139 41 0 22
-5 31 -22 35 -28 6 -461 35 -465 31 -5 -5 118 -37 165 -43 34 -4 42 -9 42 -25
0 -20 -4 -20 -65 -15 -35 3 -112 23 -170 43 -103 35 -106 36 -140 20 -39 -19
-52 -15 -65 19 -7 18 -19 24 -62 29 -83 11 -93 15 -112 48 -33 56 -37 55 344
14 74 -8 206 -20 293 -27 l158 -12 32 31 c18 17 53 73 79 124 45 88 47 96 38
138 -5 25 -12 62 -15 82 -4 24 -12 39 -25 43 -34 11 -70 46 -70 68 0 15 11 28
33 40 31 17 49 57 26 57 -10 0 -60 43 -146 127 -61 61 -57 111 7 78 l30 -16 0
49 c0 44 12 72 32 72 4 0 8 -7 8 -15z"/>
<path d="M2400 2490 c-8 -15 -7 -26 6 -45 25 -38 45 -8 29 43 -9 27 -21 28
-35 2z"/>
<path d="M2706 2345 c5 -13 2 -14 -21 -5 -15 6 -29 9 -31 7 -7 -7 20 -76 32
-81 7 -3 20 7 30 22 9 15 24 31 32 36 12 7 11 11 -9 22 -32 18 -40 17 -33 -1z"/>
<path d="M2446 2208 c-9 -24 -34 -70 -56 -103 -72 -108 -44 -127 56 -39 77 67
84 88 50 143 -15 23 -28 41 -30 41 -2 0 -11 -19 -20 -42z"/>
</g>
</svg>
