<?xml version="1.0" standalone="no"?>
<!DOCTYPE svg PUBLIC "-//W3C//DTD SVG 20010904//EN"
 "http://www.w3.org/TR/2001/REC-SVG-20010904/DTD/svg10.dtd">
<svg version="1.0" xmlns="http://www.w3.org/2000/svg"
 width="480.000000pt" height="360.000000pt" viewBox="0 0 480.000000 360.000000"
 preserveAspectRatio="xMidYMid meet">
<metadata>
Created by potrace 1.16, written by Peter Selinger 2001-2019
</metadata>
<rect width="1" height="360" fill="#000000"/>
<rect x="479" width="1" height="360" fill="#000000"/>
<rect width="480" height="1" fill="#000000"/>
<rect y="359" width="480" height="1" fill="#000000"/>
<g transform="translate(0.000000,360.000000) scale(0.100000,-0.100000)"
fill="#000000" stroke="none">
<path d="M0 1800 l0 -1800 1486 0 c1051 0 1483 3 1479 11 -4 6 -13 8 -21 5
-22 -9 -24 6 -8 104 l15 93 -29 31 c-76 81 -81 128 -26 233 l36 68 -21 94
c-11 52 -26 100 -33 108 -31 38 -165 82 -313 103 -113 17 -154 38 -243 127
-125 126 -131 136 -143 248 -6 53 -8 107 -5 120 7 27 102 135 120 135 7 0 27
16 46 35 l34 35 -22 46 c-21 43 -22 64 -1 64 5 0 17 -16 26 -35 9 -19 22 -35
28 -35 6 0 29 18 50 40 30 31 36 43 27 52 -20 20 -14 35 39 87 28 27 49 56 47
64 -4 18 -124 118 -132 110 -11 -11 -6 -69 6 -81 8 -8 -5 -6 -35 4 -27 9 -51
13 -54 10 -4 -3 -20 6 -36 21 l-30 28 7 -27 c9 -39 -7 -35 -42 10 -44 56 -71
110 -78 161 -8 58 -17 69 -63 77 -55 10 -183 72 -206 99 -25 31 -199 116 -220
109 -8 -4 -31 6 -49 20 -19 14 -41 26 -49 26 -46 0 -309 187 -279 197 10 4 8
11 -9 29 -18 20 -32 24 -76 24 -50 0 -60 4 -121 50 -37 28 -76 53 -87 56 -11
3 -28 17 -39 31 -15 20 -16 27 -5 34 8 5 -9 9 -46 11 -32 2 -60 8 -62 14 -2 6
23 20 57 30 33 11 60 22 60 26 0 13 -57 66 -79 73 -11 3 -21 10 -21 15 0 5 -9
12 -21 15 -28 9 -15 19 28 21 22 0 39 7 45 18 5 10 19 21 31 25 19 7 18 10
-23 41 l-45 32 35 -6 c106 -18 112 -19 120 -6 6 11 23 9 82 -9 135 -42 162
-50 294 -84 l132 -35 -64 79 c-79 98 -122 165 -173 270 -40 83 -65 188 -54
228 l5 21 -636 0 -636 0 0 -1800z"/>
<path d="M2212 3523 c-28 -43 -83 -125 -122 -182 -74 -110 -90 -149 -90 -217
0 -40 22 -108 37 -117 5 -3 35 4 68 15 33 10 96 21 140 24 44 3 114 16 155 29
41 13 90 26 108 30 24 5 40 18 59 48 14 23 65 94 113 157 66 87 110 133 181
190 52 41 100 81 107 88 11 10 -58 12 -346 12 l-359 0 -51 -77z"/>
<path d="M4410 3563 c30 -21 128 -110 218 -198 89 -88 165 -162 167 -164 3 -2
5 86 5 197 l0 202 -222 0 -223 0 55 -37z"/>
<path d="M4242 3012 c-16 -11 -16 -17 -14 -223 1 -114 6 -170 15 -181 8 -11
90 -32 262 -67 138 -28 260 -54 273 -57 l22 -6 0 140 0 141 -99 74 c-165 124
-257 167 -391 181 -30 4 -61 2 -68 -2z"/>
<path d="M3044 1392 c-19 -16 -21 -26 -17 -88 6 -75 -6 -112 -46 -148 -24 -22
-27 -36 -8 -36 19 0 73 -52 92 -90 l17 -32 30 28 c16 16 39 42 50 57 18 25 19
32 7 60 -7 18 -30 58 -51 89 -21 32 -38 61 -38 65 0 4 11 19 25 33 23 24 24
28 10 46 -8 11 -15 14 -15 7 0 -7 -5 -13 -11 -13 -6 0 -9 9 -6 20 6 25 -11 25
-39 2z"/>
<path d="M4570 583 c0 -5 10 -24 22 -43 12 -19 64 -116 115 -215 l92 -180 1
158 c0 106 -4 157 -11 157 -6 0 -55 29 -108 65 -97 65 -111 72 -111 58z"/>
</g>
</svg>
