<?xml version="1.0" standalone="no"?>
<!DOCTYPE svg PUBLIC "-//W3C//DTD SVG 20010904//EN"
 "http://www.w3.org/TR/2001/REC-SVG-20010904/DTD/svg10.dtd">
<svg version="1.0" xmlns="http://www.w3.org/2000/svg"
 width="480.000000pt" height="360.000000pt" viewBox="0 0 480.000000 360.000000"
 preserveAspectRatio="xMidYMid meet">
<metadata>
Created by potrace 1.16, written by Peter Selinger 2001-2019
</metadata>
<rect width="1" height="360" fill="#000000"/>
<rect x="479" width="1" height="360" fill="#000000"/>
<rect width="480" height="1" fill="#000000"/>
<rect y="359" width="480" height="1" fill="#000000"/>
<g transform="translate(0.000000,360.000000) scale(0.100000,-0.100000)"
fill="#000000" stroke="none">
<path d="M1440 3333 c-14 -3 -38 -15 -55 -27 -16 -12 -38 -25 -48 -29 -10 -4
-23 -20 -29 -37 -8 -25 -13 -28 -24 -19 -8 7 -17 9 -20 7 -3 -3 -13 -46 -24
-96 -13 -64 -27 -104 -49 -136 -35 -50 -38 -66 -15 -66 11 0 14 -5 10 -16 -17
-44 -18 -64 -4 -64 11 0 17 -17 21 -59 4 -32 16 -89 28 -126 l22 -67 -23 -76
c-30 -98 -60 -237 -60 -279 0 -25 4 -31 15 -27 8 4 15 2 15 -3 0 -12 60 -106
65 -102 2 2 -3 31 -11 64 -20 89 -16 108 11 47 13 -28 31 -62 40 -75 16 -21
17 -21 11 -1 -4 12 -4 29 0 38 5 14 12 11 46 -19 21 -20 43 -33 48 -30 4 3 18
-6 29 -21 17 -21 18 -29 8 -45 -6 -10 -15 -19 -19 -19 -16 0 -7 -37 21 -85 23
-40 27 -54 18 -72 -6 -13 -19 -23 -29 -23 -10 0 -54 -34 -98 -76 -81 -78 -140
-157 -140 -189 0 -10 -23 -42 -50 -71 -64 -68 -89 -123 -90 -195 0 -85 31
-136 105 -175 86 -44 90 -56 77 -229 -11 -149 -29 -220 -68 -270 -12 -17 -31
-48 -41 -70 -10 -22 -28 -50 -40 -62 -30 -30 -38 -68 -25 -117 9 -36 6 -51
-35 -165 -25 -70 -50 -143 -55 -165 -8 -28 -21 -44 -47 -60 l-36 -21 649 -3
c357 -1 652 0 655 4 3 3 -7 29 -23 58 l-28 53 41 114 c43 117 149 330 240 479
28 47 51 79 51 72 0 -22 -28 -118 -68 -232 -33 -93 -37 -116 -37 -200 l0 -95
60 -127 60 -128 542 0 543 0 -12 25 c-8 19 -8 28 2 39 6 9 16 32 20 51 8 34 4
42 -53 121 -108 149 -100 122 -108 353 -8 237 -13 256 -93 370 -52 75 -54 79
-53 142 1 35 -3 91 -7 123 -7 50 -6 58 7 53 19 -7 29 29 21 72 -6 26 -4 30 10
25 22 -8 20 9 -4 48 -11 18 -20 38 -20 43 0 6 4 3 10 -5 7 -11 11 -9 19 13 6
16 11 34 11 42 0 28 20 25 35 -5 19 -37 27 -38 23 -4 l-3 27 106 -2 c199 -4
362 30 421 86 23 22 28 35 28 73 0 63 -25 143 -57 180 -49 59 -193 136 -364
195 l-77 27 -6 51 c-20 182 -21 171 13 183 16 7 39 27 50 45 56 91 -17 230
-126 245 -21 3 -63 16 -93 29 -30 13 -84 29 -120 35 -36 6 -83 16 -105 22 -56
14 -131 21 -160 14 -66 -17 -127 -112 -110 -173 11 -38 11 -39 -50 -193 -61
-152 -54 -147 -175 -149 -36 -1 -105 -8 -155 -17 -49 -9 -97 -18 -105 -19 -8
-1 -28 -7 -43 -14 -16 -6 -32 -11 -36 -11 -23 0 -89 -62 -105 -98 -22 -48 -29
-51 -51 -19 -14 20 -14 23 5 31 24 11 26 43 3 68 -15 17 -15 21 3 59 19 43 20
43 38 -15 6 -17 8 -18 24 -2 20 17 57 22 47 6 -3 -5 -3 -10 2 -10 4 0 22 21
38 45 35 52 45 56 45 16 0 -33 29 -51 42 -27 5 8 16 23 25 32 17 16 18 16 23
-7 7 -28 12 -21 34 49 20 59 40 71 30 17 -12 -65 4 -35 41 76 32 96 37 120 33
182 -4 65 -9 81 -55 162 -77 136 -104 176 -146 222 -21 23 -36 46 -33 51 10
17 -25 100 -56 132 -17 18 -56 43 -87 57 -31 13 -96 44 -146 69 -115 57 -183
70 -289 54 -45 -7 -96 -18 -115 -26 -18 -8 -35 -14 -36 -14 -2 0 -7 15 -10 33
-12 55 -22 61 -85 50z m-110 -177 c0 -15 -18 -31 -26 -23 -7 7 7 37 17 37 5 0
9 -6 9 -14z m154 -1042 c5 -14 4 -15 -9 -4 -17 14 -19 20 -6 20 5 0 12 -7 15
-16z m992 -425 c38 -11 75 -23 82 -25 8 -2 11 -12 8 -22 -9 -28 -39 -233 -41
-285 -2 -38 0 -47 13 -45 10 2 18 -8 24 -29 5 -21 13 -30 22 -27 8 3 16 -7 23
-28 5 -18 15 -32 21 -30 22 4 12 -30 -22 -77 -18 -25 -40 -66 -48 -91 l-15
-45 -12 58 c-7 31 -28 97 -47 145 -19 48 -34 97 -34 110 0 12 -9 41 -20 63
l-21 40 21 26 c11 14 20 35 20 47 0 27 -27 66 -45 66 -10 0 -13 19 -12 85 1
47 5 85 8 85 3 0 37 -9 75 -21z m194 -479 c0 -11 -4 -20 -10 -20 -5 0 -10 9
-10 20 0 11 5 20 10 20 6 0 10 -9 10 -20z m-605 -127 c19 -21 35 -42 35 -48 0
-5 -28 -68 -62 -139 -141 -292 -168 -335 -168 -264 0 84 120 488 145 488 8 0
30 -17 50 -37z m685 -475 c134 -207 153 -261 119 -332 -26 -52 -36 -56 -63
-24 -11 13 -43 50 -73 84 -35 41 -53 70 -53 88 0 33 41 206 49 206 4 0 13 -10
21 -22z"/>
</g>
</svg>
