<?xml version="1.0" standalone="no"?>
<!DOCTYPE svg PUBLIC "-//W3C//DTD SVG 20010904//EN"
 "http://www.w3.org/TR/2001/REC-SVG-20010904/DTD/svg10.dtd">
<svg version="1.0" xmlns="http://www.w3.org/2000/svg"
 width="480.000000pt" height="360.000000pt" viewBox="0 0 480.000000 360.000000"
 preserveAspectRatio="xMidYMid meet">
<metadata>
Created by potrace 1.16, written by Peter Selinger 2001-2019
</metadata>
<rect width="1" height="360" fill="#000000"/>
<rect x="479" width="1" height="360" fill="#000000"/>
<rect width="480" height="1" fill="#000000"/>
<rect y="359" width="480" height="1" fill="#000000"/>
<g transform="translate(0.000000,360.000000) scale(0.100000,-0.100000)"
fill="#000000" stroke="none">
<path d="M1700 3561 c0 -58 35 -159 76 -219 20 -30 68 -86 107 -124 40 -39 63
-68 52 -64 -11 4 -56 12 -100 17 -94 12 -212 36 -237 50 -28 15 -53 -4 -77
-60 -18 -44 -26 -51 -68 -65 -58 -20 -142 -71 -150 -92 -7 -19 24 -54 48 -54
27 0 64 -72 94 -185 29 -108 29 -140 -3 -225 -11 -30 -19 -57 -17 -59 2 -2 19
2 36 8 41 14 53 3 39 -35 -11 -27 -12 -52 -9 -226 1 -46 -4 -79 -16 -105 -14
-29 -18 -61 -18 -133 2 -233 2 -245 -14 -269 -21 -32 -32 -241 -13 -241 15 0
4 -158 -14 -179 -12 -15 -13 -196 -1 -313 5 -51 3 -80 -10 -118 -21 -64 -27
-261 -7 -268 14 -4 8 -120 -8 -157 -29 -65 -42 -244 -21 -283 10 -19 -6 -102
-27 -139 -13 -23 -12 -23 53 -23 61 0 66 2 75 26 6 14 10 37 10 52 0 14 12 43
27 65 24 34 27 49 31 148 3 79 1 113 -8 124 -20 24 -13 140 11 192 27 59 32
244 8 268 -21 21 -15 143 9 195 20 44 24 222 5 241 -19 19 -17 148 2 169 31
34 44 260 15 260 -10 0 -1 141 10 153 3 4 31 -32 60 -80 29 -48 71 -110 94
-138 66 -82 292 -330 424 -467 l123 -127 -41 -60 c-22 -34 -47 -61 -55 -61
-17 0 -65 -49 -65 -66 0 -7 -16 -36 -36 -65 -20 -29 -43 -76 -50 -104 -8 -28
-41 -102 -75 -164 -103 -190 -178 -391 -193 -513 l-6 -48 810 0 810 0 0 48 c0
26 -5 117 -11 202 -11 142 -10 167 10 299 25 172 34 193 80 198 19 2 41 9 49
16 8 6 23 11 32 9 10 -2 20 4 23 13 4 9 19 15 40 15 19 0 40 7 47 15 7 8 19
15 26 15 8 0 14 4 14 10 0 5 17 17 38 25 20 9 53 31 72 49 19 19 45 37 57 40
12 4 25 15 28 24 3 9 26 33 51 52 53 40 157 173 185 233 10 23 19 56 19 73 0
46 -35 175 -64 232 -23 46 -76 102 -96 102 -5 0 -20 4 -35 10 -24 9 -25 11
-12 36 11 21 40 35 173 81 87 30 167 57 177 60 12 4 44 -12 93 -46 92 -64 131
-81 189 -81 26 0 71 -11 106 -26 34 -14 65 -24 70 -22 29 10 -117 192 -196
244 -27 17 -33 34 -12 34 6 0 43 -16 81 -35 63 -32 147 -48 146 -27 -1 12 -33
45 -74 76 l-40 30 60 28 c32 15 65 28 72 28 8 0 12 19 12 62 l0 61 -102 -6
c-57 -4 -159 -18 -228 -32 -69 -14 -179 -32 -245 -40 -66 -8 -153 -26 -193
-40 -51 -17 -95 -25 -143 -25 -38 0 -69 2 -69 4 0 3 24 29 53 58 41 41 56 65
67 107 l15 54 64 13 c100 21 160 76 168 157 5 55 -23 102 -67 112 -36 8 -49 0
-32 -17 7 -7 12 -15 12 -18 0 -4 -45 -28 -99 -54 -81 -39 -103 -46 -119 -37
-28 15 -51 4 -58 -26 -5 -19 -23 -32 -69 -53 -60 -27 -65 -28 -104 -14 -57 19
-105 0 -127 -52 l-15 -36 -32 26 c-56 45 -130 93 -197 127 -58 30 -75 34 -150
35 -47 1 -110 6 -140 12 -89 17 -150 22 -150 13 0 -5 10 -11 23 -15 18 -5 13
-10 -38 -31 -33 -14 -66 -25 -72 -25 -7 0 -13 -4 -13 -10 0 -5 10 -10 22 -10
20 0 18 -4 -17 -38 -64 -61 -132 -147 -111 -139 18 7 18 6 2 -18 -17 -26 -9
-34 13 -12 11 10 13 7 8 -18 -4 -16 -9 -40 -13 -52 -9 -34 12 -28 26 7 7 17
15 29 17 27 9 -10 -33 -88 -51 -93 -11 -4 -42 6 -77 24 -67 35 -73 32 -83 -41
-6 -37 -13 -50 -34 -61 -21 -11 -29 -25 -37 -67 -9 -48 -13 -54 -43 -63 -19
-5 -32 -15 -32 -25 0 -9 -9 -29 -20 -46 -32 -48 -26 -85 26 -162 45 -66 74
-117 74 -127 0 -3 -44 43 -99 102 -113 123 -204 211 -313 300 -42 35 -79 70
-82 78 -3 9 -11 57 -16 107 -6 50 -29 180 -50 289 -22 108 -40 202 -40 208 0
5 14 10 30 10 17 0 30 5 30 10 0 6 -4 10 -10 10 -15 0 -93 138 -87 154 3 8 19
17 36 21 18 4 31 13 31 22 0 8 7 13 17 11 11 -2 20 -20 28 -55 30 -133 118
-242 239 -299 41 -19 81 -34 88 -34 7 0 27 -9 45 -20 24 -14 34 -29 38 -57 12
-66 24 -108 38 -128 14 -18 15 -18 42 3 15 12 36 22 46 22 34 0 49 28 49 94 0
73 3 77 98 127 117 62 193 158 226 286 37 142 7 269 -90 386 -19 23 -22 32
-13 48 5 11 7 28 4 39 -4 13 8 36 40 75 69 85 114 187 129 293 l6 42 -585 0
-585 0 0 -39z m-225 -578 c-11 -63 -10 -63 -54 -41 -46 23 -45 30 7 58 51 26
54 25 47 -17z m2365 -838 c-18 -19 -36 -32 -39 -30 -6 7 50 65 63 65 5 0 -5
-16 -24 -35z m-2290 -80 c35 -42 29 -135 -8 -116 -9 5 -25 12 -34 15 -9 3 -15
12 -13 23 2 10 7 35 10 56 6 39 24 48 45 22z m-14 -242 c-10 -81 -26 -92 -26
-17 0 60 4 74 23 74 6 0 7 -22 3 -57z m-5 -153 c15 0 19 -7 19 -39 0 -68 -11
-103 -29 -95 -9 4 -25 8 -36 9 -21 2 -22 6 -10 88 5 38 10 47 22 43 8 -3 23
-6 34 -6z m-23 -272 c-2 -38 -8 -63 -15 -66 -14 -4 -18 63 -7 106 12 44 25 21
22 -40z m20 -217 l-3 -66 -39 0 -40 0 3 60 c1 33 5 63 7 66 2 4 20 7 39 6 l36
-1 -3 -65z m-48 -285 c-7 -7 -10 11 -10 60 0 92 14 106 18 18 2 -38 -2 -72 -8
-78z m40 -135 c0 -74 -7 -88 -47 -93 -19 -2 -37 0 -39 4 -3 5 -2 37 1 73 l7
64 39 -1 39 0 0 -47z m-40 -215 c0 -47 -11 -96 -21 -96 -10 0 -12 113 -2 123
14 15 23 5 23 -27z m8 -248 c-3 -59 -5 -63 -28 -66 -14 -2 -30 -8 -36 -13 -15
-12 -21 21 -16 83 4 49 4 49 70 57 10 1 12 -15 10 -61z m-52 -210 c-10 -59
-25 -83 -26 -38 0 45 10 80 22 80 7 0 8 -16 4 -42z"/>
</g>
</svg>
