<?xml version="1.0" standalone="no"?>
<!DOCTYPE svg PUBLIC "-//W3C//DTD SVG 20010904//EN"
 "http://www.w3.org/TR/2001/REC-SVG-20010904/DTD/svg10.dtd">
<svg version="1.0" xmlns="http://www.w3.org/2000/svg"
 width="480.000000pt" height="360.000000pt" viewBox="0 0 480.000000 360.000000"
 preserveAspectRatio="xMidYMid meet">
<metadata>
Created by potrace 1.16, written by Peter Selinger 2001-2019
</metadata>
<rect width="1" height="360" fill="#000000"/>
<rect x="479" width="1" height="360" fill="#000000"/>
<rect width="480" height="1" fill="#000000"/>
<rect y="359" width="480" height="1" fill="#000000"/>
<g transform="translate(0.000000,360.000000) scale(0.100000,-0.100000)"
fill="#000000" stroke="none">
<path d="M0 1800 l0 -1800 922 0 922 0 -56 57 c-97 99 -115 188 -55 272 33 45
33 47 32 148 -2 112 2 102 -91 224 -58 78 -108 166 -125 224 -18 64 -18 293 0
392 12 66 16 74 48 94 46 28 147 36 279 20 103 -12 276 -45 330 -62 l31 -10 5
-199 c5 -251 23 -286 23 -47 0 206 7 247 38 247 33 0 316 -102 507 -183 176
-74 190 -81 190 -94 0 -7 4 -13 10 -13 5 0 56 -27 111 -60 107 -63 215 -145
260 -194 24 -27 32 -30 96 -31 92 -2 147 -29 191 -93 57 -85 65 -140 28 -217
-79 -169 -242 -241 -531 -235 -287 6 -311 6 -328 -9 -10 -7 -17 -22 -17 -33 0
-17 -6 -19 -56 -17 l-56 3 -54 -60 c-41 -45 -53 -67 -54 -91 l0 -33 1100 0
1100 0 0 1800 0 1800 -2400 0 -2400 0 0 -1800z"/>
<path d="M3475 664 c-21 -7 -47 -22 -59 -33 -20 -20 -20 -22 -3 -50 23 -39 22
-44 -14 -70 -29 -21 -32 -22 -49 -6 -18 17 -23 14 -109 -66 -49 -46 -88 -85
-87 -87 8 -7 206 22 262 39 154 48 246 235 133 274 -28 10 -43 10 -74 -1z"/>
</g>
</svg>
