<?xml version="1.0" standalone="no"?>
<!DOCTYPE svg PUBLIC "-//W3C//DTD SVG 20010904//EN"
 "http://www.w3.org/TR/2001/REC-SVG-20010904/DTD/svg10.dtd">
<svg version="1.0" xmlns="http://www.w3.org/2000/svg"
 width="480.000000pt" height="360.000000pt" viewBox="0 0 480.000000 360.000000"
 preserveAspectRatio="xMidYMid meet">
<metadata>
Created by potrace 1.16, written by Peter Selinger 2001-2019
</metadata>
<rect width="1" height="360" fill="#000000"/>
<rect x="479" width="1" height="360" fill="#000000"/>
<rect width="480" height="1" fill="#000000"/>
<rect y="359" width="480" height="1" fill="#000000"/>
<g transform="translate(0.000000,360.000000) scale(0.100000,-0.100000)"
fill="#000000" stroke="none">
<path d="M0 1800 l0 -1800 463 0 462 0 53 163 c64 201 115 303 212 430 41 55
95 126 119 160 43 62 43 63 37 127 -3 36 -6 81 -7 100 0 29 -2 32 -9 15 -5
-11 -16 -46 -25 -79 -9 -32 -18 -56 -21 -54 -2 3 2 58 10 124 7 66 10 120 5
122 -14 6 -11 49 17 255 23 171 26 211 20 372 -25 717 -22 778 46 901 24 42
59 95 79 117 33 38 35 43 23 66 -8 15 -21 42 -29 63 -18 39 -42 52 -113 63
-41 7 -43 8 -40 38 3 31 6 33 71 49 43 11 80 28 101 45 17 16 46 35 64 42 18
7 32 19 32 26 0 7 -36 21 -83 34 -113 30 -176 61 -231 113 -84 81 -55 97 95
53 46 -13 88 -25 92 -25 5 0 -11 28 -36 63 -57 81 -77 119 -85 170 l-8 42
-657 3 -657 2 0 -1800z"/>
<path d="M1451 3515 c46 -47 100 -111 121 -143 70 -108 65 -107 73 -17 4 44
18 113 31 153 13 40 24 77 24 82 0 6 -64 10 -166 10 l-166 0 83 -85z"/>
<path d="M1790 3541 c0 -33 -7 -94 -15 -137 -8 -43 -14 -79 -12 -80 1 -1 52
31 112 72 61 40 118 74 128 74 71 1 -84 -195 -204 -255 -26 -14 -51 -30 -55
-36 -9 -14 14 -29 46 -29 14 0 44 -9 65 -21 32 -16 55 -20 115 -17 l75 3 3
-27 c3 -24 -2 -30 -38 -44 -60 -24 -80 -55 -80 -124 l0 -58 43 -21 c23 -11 78
-56 122 -100 69 -68 84 -90 104 -145 32 -92 36 -163 15 -286 -21 -124 -21
-121 0 -273 9 -65 19 -190 23 -277 4 -118 9 -160 19 -160 17 0 29 93 15 118
-19 35 -12 63 23 98 32 32 37 34 107 34 62 0 77 -4 106 -26 36 -27 43 -62 22
-108 -14 -29 0 -117 19 -124 9 -3 12 18 12 82 0 106 17 314 35 429 9 57 10 98
5 119 -27 93 -18 325 15 405 9 20 31 55 49 78 31 38 33 43 20 65 -7 14 -23 54
-35 90 -27 83 -29 252 -5 355 16 65 111 283 120 274 3 -2 -4 -40 -15 -84 -30
-129 -39 -240 -29 -359 9 -91 31 -180 53 -210 13 -17 16 -17 38 -3 13 8 57 25
98 38 149 44 300 10 405 -93 l61 -60 47 53 c40 44 118 172 118 194 0 4 -9 5
-19 2 -23 -6 -55 26 -99 98 -31 50 -31 50 -11 70 16 17 33 20 99 20 79 -1 80
-1 90 28 5 16 13 71 16 123 4 51 10 91 14 89 4 -2 12 -39 19 -82 24 -160 15
-143 70 -136 55 6 90 -9 130 -59 23 -29 24 -31 7 -44 -10 -7 -38 -31 -62 -53
-47 -45 -62 -50 -71 -23 -3 9 -17 32 -31 51 l-25 34 -18 -84 c-27 -134 -82
-239 -177 -341 -42 -45 -43 -47 -27 -71 37 -57 40 -226 19 -857 -5 -152 -2
-201 20 -380 15 -113 29 -217 32 -232 3 -17 1 -28 -5 -28 -6 0 -11 7 -11 17 0
9 -2 14 -5 11 -5 -5 8 -151 20 -220 8 -49 -13 -30 -26 25 l-14 52 -6 -90 -7
-90 43 -66 c41 -63 47 -67 97 -79 29 -7 64 -18 78 -25 14 -7 63 -23 110 -35
47 -12 123 -41 168 -63 68 -33 98 -56 160 -122 43 -45 90 -100 105 -122 32
-46 105 -210 114 -254 l6 -29 228 0 229 0 0 1800 0 1800 -1505 0 -1505 0 0
-59z"/>
<path d="M2170 2308 c0 -9 5 -20 10 -23 13 -8 13 5 0 25 -8 13 -10 13 -10 -2z"/>
<path d="M2612 2275 c0 -16 2 -22 5 -12 2 9 2 23 0 30 -3 6 -5 -1 -5 -18z"/>
<path d="M2207 1332 c-19 -21 -22 -48 -6 -58 15 -9 25 5 32 44 7 36 -2 41 -26
14z"/>
<path d="M2572 1315 c2 -27 8 -40 18 -40 23 0 23 39 0 60 l-21 19 3 -39z"/>
<path d="M2372 1253 c-12 -32 -26 -78 -31 -101 -8 -36 -25 -60 -95 -132 -99
-100 -93 -77 -75 -302 11 -141 9 -199 -5 -143 -5 17 -13 48 -19 70 l-11 40 -6
-35 c-3 -19 -7 -87 -9 -150 -1 -63 -4 -117 -7 -119 -2 -2 -9 10 -15 27 -6 18
-15 29 -20 26 -5 -3 -9 14 -9 38 -1 52 -38 208 -39 163 -2 -65 -33 -184 -66
-249 l-34 -68 44 -144 c25 -79 45 -150 45 -159 0 -13 50 -15 419 -15 391 0
420 1 425 18 3 9 12 93 21 187 9 94 20 209 24 257 7 73 5 99 -10 155 -34 122
-41 104 -37 -94 2 -101 1 -183 -2 -183 -11 0 -59 112 -70 160 -5 25 -10 64
-10 87 0 77 -12 80 -31 7 -12 -43 -17 -88 -14 -119 3 -27 2 -44 -1 -37 -10 21
-19 14 -33 -24 -22 -60 -29 -23 -23 125 6 172 -7 208 -32 91 -10 -45 -20 -79
-23 -76 -3 3 0 89 8 191 l12 185 -90 93 c-79 81 -91 97 -97 137 -7 47 -45 150
-56 150 -3 0 -15 -26 -28 -57z"/>
<path d="M1905 634 c-18 -68 -17 -111 6 -214 12 -52 13 -53 20 -25 10 44 10
305 0 305 -4 0 -16 -30 -26 -66z"/>
</g>
</svg>
