<?xml version="1.0" standalone="no"?>
<!DOCTYPE svg PUBLIC "-//W3C//DTD SVG 20010904//EN"
 "http://www.w3.org/TR/2001/REC-SVG-20010904/DTD/svg10.dtd">
<svg version="1.0" xmlns="http://www.w3.org/2000/svg"
 width="480.000000pt" height="360.000000pt" viewBox="0 0 480.000000 360.000000"
 preserveAspectRatio="xMidYMid meet">
<metadata>
Created by potrace 1.16, written by Peter Selinger 2001-2019
</metadata>
<rect width="1" height="360" fill="#000000"/>
<rect x="479" width="1" height="360" fill="#000000"/>
<rect width="480" height="1" fill="#000000"/>
<rect y="359" width="480" height="1" fill="#000000"/>
<g transform="translate(0.000000,360.000000) scale(0.100000,-0.100000)"
fill="#000000" stroke="none">
<path d="M0 1800 l0 -1800 2400 0 2400 0 0 1800 0 1800 -1190 0 -1190 0 -1
-192 c-1 -197 -1 -211 -9 -403 -3 -107 -4 -105 -11 70 -3 99 -7 258 -8 353
l-1 172 -1195 0 -1195 0 0 -1800z m2340 900 c0 -12 61 -113 73 -121 5 -4 31
-10 58 -13 57 -8 91 -34 143 -109 l38 -55 81 -6 c107 -10 197 -32 275 -68 71
-33 81 -46 116 -145 23 -68 24 -73 7 -73 -13 0 -18 -7 -18 -24 0 -37 -40 -111
-68 -126 -17 -9 -46 -11 -95 -7 l-71 6 -72 -73 c-71 -71 -117 -96 -176 -96
-31 0 -37 -27 -12 -54 22 -23 27 -51 12 -60 -5 -3 -12 1 -15 10 -3 8 -11 12
-17 8 -15 -9 -3 -80 21 -119 15 -24 60 -132 60 -143 0 -2 -4 0 -10 3 -17 10
-11 -7 25 -80 24 -46 34 -78 30 -93 -4 -15 2 -37 16 -60 l21 -37 -24 25 c-12
14 -30 37 -39 50 -27 41 -34 13 -10 -37 15 -30 19 -49 12 -51 -6 -2 -8 -9 -4
-15 4 -7 -2 -5 -12 3 -17 14 -18 13 -11 -5 21 -51 20 -52 -23 -50 l-40 2 39
-76 c21 -42 62 -110 89 -151 55 -81 59 -94 36 -108 -13 -7 -14 -14 -5 -36 13
-36 -1 -56 -40 -56 -16 0 -42 -11 -58 -25 -19 -16 -42 -25 -64 -25 l-35 0 3
-67 c2 -38 6 -85 10 -106 11 -64 -22 -83 -91 -50 -43 20 -47 53 -10 80 23 16
24 21 15 55 -10 35 -12 36 -49 31 -21 -3 -48 0 -61 7 -18 10 -24 9 -31 -1 -17
-27 -9 -73 16 -99 32 -33 25 -52 -26 -76 -30 -13 -45 -15 -57 -7 -21 12 -27
65 -12 93 20 37 -6 100 -55 138 -34 26 -57 34 -116 42 -41 5 -80 10 -88 10
-10 0 -12 8 -7 32 5 25 2 36 -13 48 -33 26 -13 123 70 327 39 98 84 224 100
281 16 57 40 125 54 152 30 60 31 80 5 108 -16 17 -18 26 -10 41 5 11 10 30
10 42 0 17 -3 19 -14 10 -10 -9 -15 -8 -20 4 -3 8 -12 15 -21 15 -21 0 -95 38
-122 62 l-22 21 -31 -27 c-17 -14 -42 -26 -55 -26 -25 0 -83 58 -110 110 -15
30 -15 33 20 113 20 45 42 93 48 107 22 46 101 114 184 160 74 41 83 48 89 80
23 133 46 180 100 212 26 15 34 27 36 51 1 18 2 41 3 52 1 11 3 35 4 53 0 19
5 31 11 27 6 -3 10 -10 10 -15z"/>
<path d="M3081 2214 c0 -11 3 -14 6 -6 3 7 2 16 -1 19 -3 4 -6 -2 -5 -13z"/>
<path d="M3010 2089 c-48 -21 -110 -75 -110 -95 0 -6 7 -15 16 -18 20 -8 98
-8 119 0 17 7 48 63 59 107 6 23 3 27 -16 27 -13 0 -43 -10 -68 -21z"/>
<path d="M2761 1949 c-75 -9 -204 -47 -199 -57 2 -4 14 -24 27 -46 23 -36 26
-38 64 -32 46 8 83 26 126 61 41 35 77 85 59 84 -7 -1 -42 -5 -77 -10z"/>
<path d="M1904 1869 c-3 -6 -15 -9 -25 -6 -26 7 -24 -3 11 -51 35 -49 65 -54
99 -18 l22 24 -22 20 c-29 27 -76 44 -85 31z"/>
<path d="M2195 1845 c-5 -1 -38 -11 -72 -20 -35 -10 -63 -22 -63 -27 0 -4 24
-20 54 -35 49 -24 57 -25 85 -13 28 11 31 17 31 56 0 42 -5 48 -35 39z"/>
</g>
</svg>
