<?xml version="1.0" standalone="no"?>
<!DOCTYPE svg PUBLIC "-//W3C//DTD SVG 20010904//EN"
 "http://www.w3.org/TR/2001/REC-SVG-20010904/DTD/svg10.dtd">
<svg version="1.0" xmlns="http://www.w3.org/2000/svg"
 width="480.000000pt" height="360.000000pt" viewBox="0 0 480.000000 360.000000"
 preserveAspectRatio="xMidYMid meet">
<metadata>
Created by potrace 1.16, written by Peter Selinger 2001-2019
</metadata>
<rect width="1" height="360" fill="#000000"/>
<rect x="479" width="1" height="360" fill="#000000"/>
<rect width="480" height="1" fill="#000000"/>
<rect y="359" width="480" height="1" fill="#000000"/>
<g transform="translate(0.000000,360.000000) scale(0.100000,-0.100000)"
fill="#000000" stroke="none">
<path d="M1358 3553 c-26 -61 -35 -182 -18 -255 31 -130 137 -277 245 -339 28
-16 84 -36 125 -45 41 -9 79 -20 83 -24 13 -11 -128 -31 -215 -30 -76 1 -77 1
-92 -29 -9 -17 -16 -41 -16 -53 0 -15 -10 -30 -27 -40 -16 -9 -48 -37 -73 -63
-37 -37 -43 -48 -34 -63 6 -9 21 -17 32 -17 31 -1 66 -39 103 -113 35 -70 40
-113 24 -201 -9 -47 -11 -46 39 -25 18 7 14 -78 -15 -311 -35 -284 -71 -452
-170 -805 -17 -58 -38 -134 -48 -170 -10 -36 -23 -75 -29 -87 -6 -11 -27 -88
-47 -171 -19 -82 -42 -169 -51 -193 -10 -26 -20 -101 -25 -184 -4 -77 -11
-184 -15 -237 l-7 -98 77 0 77 0 -3 182 c-1 137 2 202 14 258 9 41 21 104 27
140 6 36 25 108 41 160 16 52 43 142 59 200 17 58 41 139 54 180 23 70 58 203
92 345 8 33 24 116 35 185 12 69 27 154 34 189 l12 65 18 -50 c52 -138 164
-231 566 -469 91 -54 169 -102 174 -106 5 -5 -12 -17 -37 -28 -26 -11 -47 -25
-47 -30 0 -6 -20 -30 -45 -54 -47 -47 -65 -81 -65 -125 0 -15 -20 -58 -45 -96
-103 -159 -116 -255 -86 -631 11 -149 21 -281 21 -293 l0 -22 375 0 c214 0
375 4 375 9 0 5 -5 55 -11 112 -10 103 -4 259 10 243 4 -5 14 -25 21 -44 7
-19 44 -99 82 -178 l69 -142 203 0 203 0 -4 92 c-6 107 7 110 27 8 14 -76 25
-100 45 -100 13 0 15 23 15 138 0 144 -14 278 -50 472 -12 63 -28 151 -36 195
-17 97 -11 226 17 339 21 85 52 139 63 110 3 -9 6 -31 6 -49 0 -19 4 -36 9
-39 5 -3 32 10 61 29 29 19 56 35 60 35 7 0 129 118 174 170 83 94 165 243
173 313 6 47 -12 93 -71 178 -37 56 -77 85 -131 97 l-39 8 74 35 c41 20 108
54 148 77 71 40 74 41 110 27 32 -12 272 -28 272 -18 0 23 -39 64 -84 88 -31
17 -56 33 -56 38 0 4 19 7 43 7 50 0 70 11 62 33 -5 11 4 21 33 36 112 57 0
105 -153 66 -32 -9 -93 -18 -135 -21 -97 -6 -124 -15 -244 -82 -90 -50 -107
-56 -174 -60 l-75 -5 7 39 c5 28 19 49 47 74 43 39 69 92 69 143 0 38 8 47 60
67 101 39 143 123 106 212 -14 32 -17 33 -55 30 -45 -4 -49 -9 -25 -27 14 -10
5 -19 -60 -69 -50 -39 -82 -57 -94 -54 -27 8 -52 -9 -52 -35 0 -15 -17 -34
-52 -59 -41 -30 -61 -38 -95 -38 -52 0 -79 -23 -89 -75 -3 -20 -12 -39 -19
-41 -7 -3 -35 6 -62 19 -115 59 -227 80 -290 56 -15 -6 -67 -10 -116 -10 -55
0 -85 -4 -81 -10 3 -6 -2 -17 -12 -25 -17 -14 -16 -14 16 -8 l35 6 -25 -19
c-14 -11 -38 -25 -55 -31 -16 -6 -24 -11 -17 -11 8 -1 -5 -26 -31 -63 -63 -91
-64 -91 -36 -83 21 7 22 6 11 -7 -9 -12 -10 -27 -3 -59 13 -57 3 -67 -52 -51
-72 22 -72 22 -72 -31 -1 -37 -6 -50 -23 -63 -14 -10 -22 -26 -22 -45 0 -16
-4 -29 -10 -29 -5 0 -10 -7 -10 -15 0 -9 -9 -33 -20 -55 -11 -22 -20 -49 -20
-61 0 -13 30 -53 81 -105 l82 -83 -13 -33 c-7 -18 -16 -37 -20 -41 -4 -4 -49
21 -101 56 -143 97 -276 173 -394 226 l-108 48 -22 89 c-24 93 -42 150 -95
298 -33 91 -32 105 10 106 11 0 9 5 -6 18 -28 23 -84 101 -84 119 0 7 19 30
42 51 22 20 49 49 58 64 l16 28 31 -44 c47 -66 121 -120 202 -146 70 -22 72
-22 160 -6 49 9 95 14 103 11 7 -3 26 -24 42 -45 17 -22 36 -40 43 -40 18 0
93 48 93 60 0 5 -12 34 -26 63 l-27 54 40 60 c64 96 76 137 71 245 -4 79 -9
102 -35 154 -37 71 -95 127 -169 161 -35 16 -54 31 -54 42 0 9 -5 22 -11 28
-8 8 -8 31 1 84 14 84 8 183 -16 246 l-17 43 -459 0 -459 0 -21 -47z m112
-930 c0 -24 -9 -27 -48 -17 l-23 7 27 28 c30 31 44 25 44 -18z m2156 -220
c-14 -29 -46 -62 -46 -49 0 11 53 87 57 82 3 -2 -2 -17 -11 -33z m-936 -278
c-6 -15 -13 -25 -16 -23 -2 3 1 17 7 32 16 34 23 27 9 -9z m-1084 -80 c4 -8 3
-31 0 -50 -8 -43 -36 -49 -36 -7 0 59 22 94 36 57z m-21 -205 c0 -34 -4 -46
-17 -48 -19 -4 -25 18 -20 66 3 24 9 32 21 30 12 -2 16 -15 16 -48z m-25 -139
c0 -42 -13 -81 -28 -81 -12 0 -13 8 -8 42 4 22 9 45 12 50 9 15 24 8 24 -11z
m-26 -159 c6 -10 -14 -102 -22 -102 -24 1 -33 19 -26 56 3 21 9 42 11 47 6 9
30 9 37 -1z m-44 -181 c0 -26 -20 -81 -30 -81 -18 0 -21 21 -9 60 12 41 39 55
39 21z m-47 -195 c-3 -51 -20 -73 -41 -52 -21 21 1 99 26 94 13 -3 16 -13 15
-42z m-43 -132 c0 -3 -5 -25 -11 -50 -11 -43 -34 -59 -45 -31 -7 20 24 87 41
87 8 0 15 -3 15 -6z m-54 -179 c7 -17 -13 -82 -28 -91 -19 -12 -40 21 -29 47
5 13 12 32 15 42 7 21 34 23 42 2z m-51 -164 c3 -6 0 -31 -6 -56 -9 -34 -16
-45 -28 -43 -11 2 -15 12 -13 33 8 60 30 92 47 66z m-40 -237 c-16 -55 -17
-56 -40 -48 -14 6 -16 14 -11 47 9 53 22 70 47 57 17 -9 17 -14 4 -56z m-25
-148 c0 -42 -12 -87 -23 -83 -12 4 -19 53 -12 85 7 30 35 29 35 -2z m0 -216
c0 -42 -3 -50 -19 -50 -29 0 -34 27 -15 88 2 6 10 12 19 12 11 0 15 -12 15
-50z"/>
</g>
</svg>
