<?xml version="1.0" standalone="no"?>
<!DOCTYPE svg PUBLIC "-//W3C//DTD SVG 20010904//EN"
 "http://www.w3.org/TR/2001/REC-SVG-20010904/DTD/svg10.dtd">
<svg version="1.0" xmlns="http://www.w3.org/2000/svg"
 width="480.000000pt" height="360.000000pt" viewBox="0 0 480.000000 360.000000"
 preserveAspectRatio="xMidYMid meet">
<metadata>
Created by potrace 1.16, written by Peter Selinger 2001-2019
</metadata>
<rect width="1" height="360" fill="#000000"/>
<rect x="479" width="1" height="360" fill="#000000"/>
<rect width="480" height="1" fill="#000000"/>
<rect y="359" width="480" height="1" fill="#000000"/>
<g transform="translate(0.000000,360.000000) scale(0.100000,-0.100000)"
fill="#000000" stroke="none">
<path d="M2755 3334 c-38 -14 -90 -27 -113 -28 -47 -2 -72 -23 -72 -60 0 -12
-23 -43 -51 -71 -59 -58 -98 -135 -128 -253 -24 -91 -25 -106 -11 -97 6 4 10
-6 11 -22 0 -15 3 -22 6 -15 7 17 23 15 23 -3 0 -9 7 -32 16 -53 14 -33 17
-35 24 -17 7 19 9 18 19 -7 6 -16 17 -28 25 -28 7 0 19 -7 26 -15 7 -9 19 -14
26 -11 20 8 9 -42 -15 -68 -28 -30 -27 -38 9 -64 17 -13 30 -29 30 -37 0 -16
96 -146 116 -158 8 -5 23 -5 34 -2 15 5 20 2 20 -12 0 -15 3 -14 19 6 14 18
20 20 23 10 4 -9 10 -5 18 14 20 42 30 32 30 -31 0 -46 -4 -60 -20 -70 -11 -7
-20 -18 -20 -26 0 -13 -66 -76 -130 -125 -62 -47 -208 -226 -160 -196 7 4 8
-3 4 -20 -6 -25 -5 -26 15 -16 27 15 27 12 -8 -57 -60 -120 -74 -175 -68 -265
3 -45 15 -116 26 -157 11 -41 18 -76 16 -78 -2 -2 -67 23 -144 56 -77 33 -166
65 -198 71 -32 6 -84 19 -116 28 -51 14 -61 22 -78 55 -11 22 -17 48 -14 59 4
11 -2 30 -14 48 -27 37 -27 71 0 105 11 15 19 32 16 39 -7 19 -3 31 12 34 20
3 28 14 35 49 5 24 1 39 -23 71 -17 23 -33 53 -37 67 -3 13 -14 32 -25 42 -18
16 -20 16 -43 -5 -14 -13 -29 -20 -35 -16 -20 12 -116 -23 -144 -53 -37 -39
-53 -96 -61 -222 -4 -58 -21 -166 -39 -240 -26 -115 -31 -152 -29 -252 1 -120
13 -191 37 -218 7 -8 19 -34 25 -57 9 -27 20 -43 33 -47 27 -7 27 -6 29 38 1
20 5 36 9 36 23 0 14 -62 -45 -296 -36 -143 -64 -275 -64 -294 2 -54 25 -79
74 -80 24 0 47 -6 53 -14 7 -8 26 -18 42 -21 18 -4 45 -26 71 -57 51 -60 128
-118 157 -118 29 0 28 39 -4 86 -14 20 -25 40 -25 43 0 17 108 43 148 36 35
-6 42 -4 52 14 6 13 21 21 35 21 13 0 38 13 55 30 28 28 29 32 24 92 -2 35 -5
73 -4 86 0 18 -47 235 -119 543 -7 33 -6 38 14 47 19 9 40 -1 146 -70 186
-121 193 -127 208 -193 15 -64 7 -126 -39 -315 -60 -249 -99 -448 -100 -512 0
-17 36 -18 620 -18 425 0 620 3 620 10 0 19 -141 362 -183 445 -22 44 -86 155
-143 246 -75 119 -104 174 -104 197 0 17 -9 54 -20 81 -42 107 -52 380 -15
407 8 6 13 18 9 27 -3 9 2 51 12 94 13 58 24 85 46 106 25 26 33 45 29 71 -3
13 20 36 31 30 5 -3 6 -14 3 -25 -7 -22 2 -59 16 -59 5 0 8 3 8 8 -4 26 3 42
20 42 26 0 34 38 21 97 -22 99 -83 290 -105 330 -13 24 -20 45 -15 48 15 9 58
-13 62 -32 3 -13 8 -8 15 17 l11 35 2 -35 2 -35 10 40 c17 69 19 73 30 45 l9
-25 21 34 c20 31 22 32 35 15 11 -16 12 -12 7 30 -7 46 -6 48 14 41 25 -7 27
1 12 41 -6 15 -8 35 -4 46 6 19 7 19 25 2 24 -22 24 -12 -1 54 -27 71 -24 87
6 32 l25 -45 -7 35 c-3 19 -17 67 -30 105 -18 54 -26 108 -34 230 -11 177 -26
236 -75 306 -18 26 -41 61 -50 78 -8 17 -38 54 -65 81 -69 70 -164 102 -310
107 -93 2 -113 0 -175 -23z"/>
</g>
</svg>
