<?xml version="1.0" standalone="no"?>
<!DOCTYPE svg PUBLIC "-//W3C//DTD SVG 20010904//EN"
 "http://www.w3.org/TR/2001/REC-SVG-20010904/DTD/svg10.dtd">
<svg version="1.0" xmlns="http://www.w3.org/2000/svg"
 width="480.000000pt" height="360.000000pt" viewBox="0 0 480.000000 360.000000"
 preserveAspectRatio="xMidYMid meet">
<metadata>
Created by potrace 1.16, written by Peter Selinger 2001-2019
</metadata>
<rect width="1" height="360" fill="#000000"/>
<rect x="479" width="1" height="360" fill="#000000"/>
<rect width="480" height="1" fill="#000000"/>
<rect y="359" width="480" height="1" fill="#000000"/>
<g transform="translate(0.000000,360.000000) scale(0.100000,-0.100000)"
fill="#000000" stroke="none">
<path d="M0 2619 l0 -981 43 6 c23 3 128 13 232 21 105 8 235 19 290 25 55 5
177 16 270 25 532 50 1010 128 1404 231 408 106 760 248 1126 454 288 162 266
153 376 156 l99 4 77 -82 c43 -44 157 -151 253 -237 191 -171 377 -355 473
-469 34 -41 83 -96 110 -124 l47 -50 0 515 0 516 -37 -7 c-21 -4 -54 -7 -73
-7 -42 0 -46 13 -30 91 13 60 56 119 111 151 l29 17 0 363 0 363 -2400 0
-2400 0 0 -981z"/>
<path d="M3588 2213 c-147 -100 -141 -93 -109 -127 26 -29 33 -67 15 -90 -20
-28 -18 -33 28 -63 24 -16 46 -31 51 -34 4 -3 16 -28 26 -55 10 -27 38 -96 61
-154 l42 -105 -12 -75 c-6 -41 -29 -149 -51 -240 -49 -207 -50 -211 -94 -405
-63 -279 -67 -295 -82 -306 -8 -7 -31 -12 -52 -11 -37 2 -39 0 -50 -41 -6 -23
-19 -53 -30 -66 l-18 -24 -17 26 c-10 14 -33 92 -52 174 -19 81 -78 329 -130
550 l-95 402 16 48 c70 210 87 248 128 286 22 20 37 40 34 43 -3 3 -56 -19
-119 -49 -124 -61 -284 -122 -422 -162 -50 -14 -90 -26 -90 -28 -1 -1 -8 -23
-17 -49 -9 -26 -13 -50 -10 -55 3 -4 24 -21 47 -36 24 -16 45 -41 52 -60 6
-17 25 -70 42 -117 69 -186 66 -164 37 -286 -14 -60 -43 -185 -63 -279 -20
-93 -50 -231 -66 -305 -16 -74 -33 -156 -38 -181 -15 -82 -42 -184 -53 -197
-5 -7 -18 -10 -28 -7 -11 4 -19 1 -19 -6 0 -8 -4 -8 -13 -1 -10 8 -19 -2 -41
-44 -49 -94 -51 -89 -190 501 -52 220 -106 447 -120 504 -14 57 -26 111 -26
119 0 8 23 80 51 161 47 134 55 149 97 187 45 41 45 42 32 75 -7 19 -16 37
-19 41 -5 6 -513 -90 -679 -127 -19 -5 -21 -9 -12 -25 15 -27 12 -66 -5 -80
-24 -20 -18 -34 28 -67 38 -26 47 -41 76 -119 18 -49 43 -116 57 -150 14 -34
25 -70 26 -80 1 -20 -35 -197 -57 -279 -7 -27 -20 -81 -28 -120 -9 -38 -30
-133 -48 -210 -17 -77 -35 -162 -40 -188 -4 -27 -15 -72 -22 -100 -8 -29 -18
-69 -21 -90 l-7 -37 1570 0 1570 0 -9 28 c-5 15 -52 211 -106 437 l-97 410 42
109 c59 158 71 178 122 211 44 28 46 32 42 66 -3 23 0 45 10 60 15 23 13 27
-71 134 -100 126 -142 173 -142 157 0 -6 7 -17 15 -26 8 -8 15 -21 15 -29 0
-9 8 -29 17 -45 18 -31 14 -61 -22 -192 -7 -25 -34 -135 -59 -245 -92 -398
-132 -555 -143 -566 -6 -6 -30 -10 -52 -7 l-42 4 -20 -56 c-11 -30 -27 -64
-35 -75 -15 -20 -15 -20 -33 3 -9 13 -29 74 -44 135 -15 62 -72 298 -127 525
-55 227 -100 421 -100 431 0 10 25 82 56 159 48 123 61 146 95 173 34 27 39
36 34 59 -5 21 1 35 21 60 l27 32 -34 25 c-19 14 -94 86 -166 159 -73 74 -137
134 -142 134 -5 0 -47 -26 -93 -57z"/>
<path d="M1035 1485 c-66 -7 -208 -18 -315 -24 -270 -17 -257 -14 -252 -56 2
-20 -1 -42 -8 -50 -7 -9 -11 -17 -9 -18 56 -37 99 -84 112 -119 9 -24 36 -97
62 -163 l46 -120 -21 -95 c-11 -52 -25 -108 -30 -125 -5 -16 -34 -140 -65
-275 -56 -242 -91 -389 -101 -422 -5 -17 19 -18 401 -18 382 0 406 1 401 18
-6 20 -128 520 -192 791 -24 101 -44 190 -44 198 0 25 103 307 119 327 9 10
35 32 59 48 35 24 41 32 32 48 -5 10 -10 30 -10 44 0 30 2 30 -185 11z"/>
<path d="M0 1260 c0 -104 2 -190 4 -190 2 0 18 39 36 88 31 84 54 117 109 153
24 15 24 16 6 42 -16 26 -17 40 0 80 6 15 -1 17 -74 17 l-81 0 0 -190z"/>
<path d="M1 338 l-1 -338 85 0 c98 0 95 -6 64 108 -11 42 -47 183 -80 312 -33
129 -61 240 -63 245 -3 6 -5 -142 -5 -327z"/>
</g>
</svg>
