<?xml version="1.0" standalone="no"?>
<!DOCTYPE svg PUBLIC "-//W3C//DTD SVG 20010904//EN"
 "http://www.w3.org/TR/2001/REC-SVG-20010904/DTD/svg10.dtd">
<svg version="1.0" xmlns="http://www.w3.org/2000/svg"
 width="480.000000pt" height="360.000000pt" viewBox="0 0 480.000000 360.000000"
 preserveAspectRatio="xMidYMid meet">
<metadata>
Created by potrace 1.16, written by Peter Selinger 2001-2019
</metadata>
<rect width="1" height="360" fill="#000000"/>
<rect x="479" width="1" height="360" fill="#000000"/>
<rect width="480" height="1" fill="#000000"/>
<rect y="359" width="480" height="1" fill="#000000"/>
<g transform="translate(0.000000,360.000000) scale(0.100000,-0.100000)"
fill="#000000" stroke="none">
<path d="M0 1800 l0 -1800 739 0 739 0 6 38 c23 141 52 518 47 597 0 11 -1 28
-2 38 0 9 -11 25 -25 33 -13 9 -24 21 -24 27 0 6 -7 18 -16 28 -15 17 -13 24
29 97 43 74 46 85 61 208 22 178 21 210 -15 357 l-32 128 23 92 c12 51 29 105
37 120 9 17 11 40 7 62 -5 30 -3 36 20 46 24 11 26 17 26 78 l-1 66 -45 29
c-25 15 -43 33 -41 39 2 6 -18 21 -45 34 -80 37 -98 61 -98 135 0 95 15 134
73 193 77 77 135 107 216 113 59 4 76 1 129 -23 129 -58 197 -194 253 -508 11
-62 31 -157 44 -212 13 -55 31 -161 40 -235 9 -74 20 -153 25 -175 14 -65 28
-188 45 -390 9 -104 22 -245 30 -312 8 -67 15 -146 15 -176 0 -55 -1 -56 -35
-68 -38 -14 -40 -22 -25 -78 10 -35 80 -366 80 -376 0 -3 567 -5 1260 -5
l1260 0 0 1044 0 1043 -46 7 c-26 3 -66 6 -90 6 -47 0 -247 41 -309 64 -59 21
-238 112 -303 153 -109 69 -362 348 -393 432 -6 14 -21 47 -35 73 -92 179
-143 430 -129 642 4 56 9 109 11 119 5 16 -83 17 -1750 17 l-1756 0 0 -1800z"/>
</g>
</svg>
