<?xml version="1.0" standalone="no"?>
<!DOCTYPE svg PUBLIC "-//W3C//DTD SVG 20010904//EN"
 "http://www.w3.org/TR/2001/REC-SVG-20010904/DTD/svg10.dtd">
<svg version="1.0" xmlns="http://www.w3.org/2000/svg"
 width="480.000000pt" height="360.000000pt" viewBox="0 0 480.000000 360.000000"
 preserveAspectRatio="xMidYMid meet">
<metadata>
Created by potrace 1.16, written by Peter Selinger 2001-2019
</metadata>
<rect width="1" height="360" fill="#000000"/>
<rect x="479" width="1" height="360" fill="#000000"/>
<rect width="480" height="1" fill="#000000"/>
<rect y="359" width="480" height="1" fill="#000000"/>
<g transform="translate(0.000000,360.000000) scale(0.100000,-0.100000)"
fill="#000000" stroke="none">
<path d="M1485 2886 c-42 -11 -83 -27 -139 -54 -4 -2 -5 5 -1 17 3 11 4 25 0
31 -10 17 -44 -12 -51 -45 -3 -16 -9 -34 -13 -40 -12 -19 -30 -100 -31 -136 0
-35 51 -129 71 -129 5 0 9 -4 9 -9 0 -5 5 -22 12 -38 6 -15 19 -55 27 -88 13
-50 19 -59 36 -57 17 3 16 0 -8 -24 -28 -28 -29 -35 -12 -91 6 -18 2 -25 -17
-32 -29 -11 -118 -109 -118 -130 0 -8 -10 -25 -21 -37 -13 -14 -23 -41 -27
-69 -5 -45 -3 -47 43 -91 l48 -44 -6 -79 c-5 -62 -13 -93 -38 -140 -18 -34
-38 -66 -45 -72 -10 -8 -10 -15 -3 -28 14 -22 -44 -176 -78 -208 -12 -12 -23
-31 -23 -43 0 -11 -5 -29 -12 -39 -6 -10 -8 -27 -4 -37 7 -18 8 -18 24 4 17
22 17 22 19 -20 1 -24 -18 -205 -42 -403 -24 -198 -49 -442 -55 -542 -6 -101
-13 -190 -16 -198 -5 -13 51 -15 486 -15 463 0 491 1 486 18 -14 47 -70 378
-91 542 -14 102 -36 231 -50 288 -32 130 -101 361 -126 419 -23 54 -23 53 -3
53 10 0 2 16 -27 50 l-42 49 48 83 47 83 -7 110 c-11 166 -10 174 9 188 16 12
16 14 -2 30 -18 17 -18 18 1 76 21 66 22 61 -42 229 -21 58 -19 124 4 115 8
-2 23 5 35 17 18 18 24 20 31 9 5 -8 9 -9 9 -4 0 6 4 3 10 -5 8 -12 10 -12 16
3 3 9 10 15 14 12 17 -10 70 142 70 201 0 31 -21 73 -50 99 -13 11 -30 37 -39
57 -18 41 -119 134 -166 153 -50 21 -97 24 -150 11z"/>
<path d="M3170 2141 c-117 -43 -147 -58 -169 -87 -33 -42 -26 -89 15 -105 20
-7 24 -15 24 -53 0 -42 -2 -46 -49 -75 -67 -43 -147 -130 -156 -169 -3 -18
-11 -32 -16 -32 -12 0 -153 73 -194 100 -39 26 -59 25 -77 -1 -12 -18 -17 -20
-35 -10 -26 13 -43 14 -62 2 -13 -8 -13 -12 0 -27 13 -16 11 -17 -26 -11 -22
3 -49 8 -60 11 -12 4 -29 -2 -43 -14 l-24 -20 22 -30 c35 -49 73 -63 146 -55
l62 6 -10 -41 c-6 -22 -8 -43 -6 -46 3 -2 56 -9 118 -14 165 -15 250 -35 400
-96 171 -69 186 -79 182 -132 -2 -31 7 -58 37 -114 60 -113 66 -138 46 -199
-12 -35 -14 -53 -7 -58 7 -4 -2 -32 -24 -76 -20 -41 -51 -137 -75 -230 -22
-88 -56 -211 -76 -274 l-36 -114 27 -24 c15 -13 36 -23 46 -23 10 0 21 -4 25
-9 3 -5 31 -13 63 -16 85 -10 88 -12 102 -60 l13 -45 132 0 131 0 15 47 14 47
78 19 c88 22 88 22 56 112 -11 32 -32 144 -45 248 -13 105 -32 222 -41 261 -9
39 -16 89 -15 111 0 22 -8 73 -19 114 -10 41 -19 86 -19 99 0 44 -41 224 -56
247 -14 22 -14 25 8 38 78 51 310 100 517 112 79 4 118 11 128 21 8 8 29 14
48 14 41 0 67 9 59 21 -3 5 1 9 8 9 22 0 52 41 38 50 -7 4 -10 12 -6 18 3 5
-6 17 -20 27 -19 12 -29 14 -39 5 -18 -15 -62 -3 -46 13 20 20 11 30 -24 24
-19 -3 -35 -2 -35 3 0 4 -8 6 -18 3 -10 -2 -27 6 -41 21 -14 14 -30 26 -36 26
-7 0 -42 -16 -79 -35 -37 -19 -104 -48 -149 -64 -116 -41 -230 -87 -287 -116
-27 -14 -52 -25 -55 -25 -9 0 -5 46 5 56 6 6 6 22 0 44 -13 46 -7 62 36 85 52
28 152 127 159 158 10 39 -1 72 -36 112 -45 50 -116 69 -235 62 l-92 -5 -21
29 c-17 22 -21 38 -16 59 9 42 -2 68 -35 85 -39 20 -62 18 -150 -14z m-20
-666 c0 -9 -6 -12 -15 -9 -8 4 -15 10 -15 15 0 5 7 9 15 9 8 0 15 -7 15 -15z"/>
</g>
</svg>
