<?xml version="1.0" standalone="no"?>
<!DOCTYPE svg PUBLIC "-//W3C//DTD SVG 20010904//EN"
 "http://www.w3.org/TR/2001/REC-SVG-20010904/DTD/svg10.dtd">
<svg version="1.0" xmlns="http://www.w3.org/2000/svg"
 width="480.000000pt" height="360.000000pt" viewBox="0 0 480.000000 360.000000"
 preserveAspectRatio="xMidYMid meet">
<metadata>
Created by potrace 1.16, written by Peter Selinger 2001-2019
</metadata>
<rect width="1" height="360" fill="#000000"/>
<rect x="479" width="1" height="360" fill="#000000"/>
<rect width="480" height="1" fill="#000000"/>
<rect y="359" width="480" height="1" fill="#000000"/>
<g transform="translate(0.000000,360.000000) scale(0.100000,-0.100000)"
fill="#000000" stroke="none">
<path d="M2880 3281 c0 -6 23 -36 50 -67 28 -31 48 -59 46 -61 -2 -2 -19 7
-38 20 -51 34 -180 61 -269 55 -84 -5 -122 -22 -185 -80 -37 -34 -49 -40 -74
-34 -41 8 -130 -12 -137 -31 -3 -8 8 -29 28 -49 26 -27 40 -34 59 -31 22 5 22
3 -10 -24 l-35 -30 23 -16 c29 -20 28 -44 -3 -73 -33 -31 -32 -43 13 -103 l37
-52 -3 -240 c-2 -132 -8 -259 -13 -283 -5 -25 -5 -58 0 -82 7 -31 1 -80 -30
-237 -22 -108 -38 -206 -38 -218 1 -17 2 -17 6 -2 2 9 8 15 13 12 4 -3 6 5 2
17 -5 21 -4 22 11 9 10 -8 15 -21 13 -30 -13 -40 -25 -225 -17 -235 6 -7 4
-39 -5 -86 -8 -41 -21 -183 -29 -315 -8 -132 -23 -366 -34 -520 -11 -154 -23
-328 -27 -387 l-6 -108 541 0 c519 0 541 1 541 18 0 66 -74 405 -165 752 -67
258 -125 582 -125 704 0 62 2 67 26 76 38 15 40 14 54 -35 7 -26 24 -54 39
-66 30 -24 40 -10 18 25 -8 12 -29 65 -45 117 -16 52 -36 108 -45 125 -15 30
-17 80 -2 103 5 9 16 4 39 -18 38 -37 92 -49 136 -31 61 25 95 110 66 165 -25
48 -21 63 22 70 51 9 72 18 110 50 19 16 32 36 32 50 0 13 5 27 10 30 17 10 0
77 -29 112 -28 35 -51 43 -51 18 0 -24 -26 -28 -54 -10 -21 14 -24 20 -15 37
6 11 9 21 7 22 -127 106 -290 224 -303 220 -12 -5 -15 3 -15 41 0 36 7 57 27
84 44 61 73 85 86 72 19 -19 27 -12 25 21 -3 29 0 32 35 41 40 10 45 18 22 37
-8 7 -15 21 -15 31 0 20 -48 59 -97 78 -36 15 -52 56 -34 90 19 34 -21 119
-90 195 -54 59 -99 84 -99 57z"/>
</g>
</svg>
