<?xml version="1.0" standalone="no"?>
<!DOCTYPE svg PUBLIC "-//W3C//DTD SVG 20010904//EN"
 "http://www.w3.org/TR/2001/REC-SVG-20010904/DTD/svg10.dtd">
<svg version="1.0" xmlns="http://www.w3.org/2000/svg"
 width="480.000000pt" height="360.000000pt" viewBox="0 0 480.000000 360.000000"
 preserveAspectRatio="xMidYMid meet">
<metadata>
Created by potrace 1.16, written by Peter Selinger 2001-2019
</metadata>
<rect width="1" height="360" fill="#000000"/>
<rect x="479" width="1" height="360" fill="#000000"/>
<rect width="480" height="1" fill="#000000"/>
<rect y="359" width="480" height="1" fill="#000000"/>
<g transform="translate(0.000000,360.000000) scale(0.100000,-0.100000)"
fill="#000000" stroke="none">
<path d="M0 3492 l0 -107 128 -28 c536 -119 787 -159 986 -158 139 1 164 5
351 56 268 72 576 72 985 0 139 -24 381 -82 459 -110 24 -8 49 -15 56 -15 19
0 117 98 113 112 -3 7 -34 18 -70 24 -64 12 -103 28 -141 58 -18 14 -18 16 -2
40 14 21 15 29 5 42 -11 13 -6 22 31 61 24 25 70 65 103 89 l58 44 -1531 0
-1531 0 0 -108z"/>
<path d="M4740 3589 c0 -22 32 -134 45 -159 13 -23 14 -16 15 73 l0 97 -30 0
c-16 0 -30 -5 -30 -11z"/>
<path d="M4780 3335 c2 -5 2 -32 1 -60 -2 -47 -3 -49 -17 -30 -18 24 -24 17
-54 -65 -34 -90 -32 -88 -39 -60 -7 25 -7 25 -19 4 -9 -17 -19 -21 -52 -19
-32 2 -48 -4 -71 -24 -37 -32 -37 -52 0 -79 130 -96 103 -419 -47 -554 l-49
-44 181 -122 181 -122 3 582 c1 406 -1 585 -9 592 -6 7 -10 7 -9 1z"/>
<path d="M1691 2970 c-105 -14 -202 -42 -339 -99 -210 -89 -237 -94 -482 -96
l-215 -2 -28 -79 c-84 -236 -140 -490 -246 -1129 -121 -727 -166 -1073 -187
-1442 l-7 -123 1449 0 1449 1 70 101 c97 140 113 170 141 268 l25 85 -10 235
c-6 129 -14 307 -17 395 -10 216 -7 447 6 577 7 60 9 121 5 137 -8 39 -36 35
-57 -9 l-18 -35 6 44 c5 37 4 43 -9 38 -12 -5 -17 4 -22 38 -12 77 66 361 126
461 11 17 19 34 19 36 0 3 -26 8 -59 11 -159 14 -354 184 -408 353 -20 65 -22
66 -266 129 -160 41 -298 68 -473 94 -103 15 -367 21 -453 11z"/>
<path d="M4522 1857 c-38 -12 -38 -14 17 -132 67 -141 67 -141 44 -298 -11
-77 6 -76 48 3 22 41 54 92 71 113 29 37 29 39 15 76 -14 34 -32 100 -51 182
-4 17 -20 35 -42 48 -39 23 -53 24 -102 8z"/>
<path d="M4664 393 c-189 -245 -193 -248 -294 -241 -28 1 -50 -1 -50 -5 0 -5
5 -39 11 -78 l12 -69 228 0 229 0 0 234 c0 204 -2 235 -16 240 -38 15 -55 4
-120 -81z"/>
</g>
</svg>
