<?xml version="1.0" standalone="no"?>
<!DOCTYPE svg PUBLIC "-//W3C//DTD SVG 20010904//EN"
 "http://www.w3.org/TR/2001/REC-SVG-20010904/DTD/svg10.dtd">
<svg version="1.0" xmlns="http://www.w3.org/2000/svg"
 width="480.000000pt" height="360.000000pt" viewBox="0 0 480.000000 360.000000"
 preserveAspectRatio="xMidYMid meet">
<metadata>
Created by potrace 1.16, written by Peter Selinger 2001-2019
</metadata>
<rect width="1" height="360" fill="#000000"/>
<rect x="479" width="1" height="360" fill="#000000"/>
<rect width="480" height="1" fill="#000000"/>
<rect y="359" width="480" height="1" fill="#000000"/>
<g transform="translate(0.000000,360.000000) scale(0.100000,-0.100000)"
fill="#000000" stroke="none">
<path d="M0 2276 l0 -1324 43 9 c23 5 61 18 83 29 32 15 70 21 165 25 68 3
148 8 177 11 l52 5 0 38 c0 44 -12 58 -55 63 l-30 3 3 65 c1 35 11 118 22 185
37 231 37 224 2 236 -38 13 -50 44 -28 68 9 10 16 25 16 35 0 9 8 45 19 79 40
134 51 198 40 219 -6 12 -8 35 -4 57 4 20 8 57 10 84 3 58 22 81 81 96 60 15
130 -12 140 -56 4 -15 14 -36 22 -46 14 -16 14 -21 -2 -47 -12 -21 -15 -40
-11 -64 5 -27 3 -36 -11 -44 -16 -9 -16 -14 -6 -50 7 -21 12 -55 12 -74 0 -30
8 -41 65 -88 63 -52 76 -72 55 -85 -5 -3 -7 -19 -3 -35 l5 -30 -44 6 c-72 10
-75 0 -43 -168 15 -79 38 -190 52 -247 29 -119 23 -140 -27 -97 -42 35 -76 35
-83 -2 -4 -21 1 -33 24 -54 16 -15 29 -31 29 -36 0 -5 9 -12 21 -15 12 -3 18
-10 14 -16 -4 -8 2 -8 20 -1 61 23 324 156 530 268 380 206 355 190 377 240
13 28 18 54 13 71 -9 36 -9 53 -1 72 5 12 -24 36 -121 102 -248 169 -273 188
-273 208 0 10 9 23 19 29 17 8 31 1 87 -41 117 -89 274 -190 284 -184 6 3 10
38 10 76 0 75 10 101 64 179 33 46 55 95 76 162 11 37 34 61 130 133 30 22 69
54 88 72 19 18 42 35 52 38 23 7 31 40 19 72 -10 28 -33 21 -26 -8 3 -11 1
-16 -5 -13 -5 3 -21 -5 -35 -17 -15 -13 -23 -19 -20 -12 4 7 -5 17 -23 24 -23
11 -28 18 -24 36 5 19 2 23 -18 23 l-25 0 13 68 c22 118 113 268 197 326 100
69 189 68 292 -5 l58 -40 -7 79 c-8 85 -1 101 33 82 18 -9 21 -6 30 27 5 21
12 62 16 92 3 30 9 59 12 64 11 18 23 -19 23 -70 0 -29 9 -76 21 -105 25 -63
20 -86 -30 -141 -50 -55 -58 -97 -30 -154 17 -35 20 -58 17 -116 l-3 -72 50 2
c92 5 129 15 240 65 61 27 178 71 260 98 83 26 179 58 214 71 64 23 90 22 176
-5 22 -7 131 82 309 251 76 73 88 87 78 102 -7 9 -17 26 -24 39 -9 18 -20 22
-55 22 -65 0 -107 22 -188 101 l-73 71 -61 -22 c-49 -18 -75 -22 -130 -18 -81
6 -132 32 -201 102 -24 25 -53 46 -65 46 -30 0 -84 37 -103 70 l-17 30 -1527
0 -1528 0 0 -1324z m840 1024 c-14 -26 -47 -43 -68 -35 -15 6 -13 10 11 31 15
13 37 24 48 24 17 0 18 -3 9 -20z m510 -361 c0 -6 -4 -7 -10 -4 -5 3 -10 11
-10 16 0 6 5 7 10 4 6 -3 10 -11 10 -16z m51 -39 c13 -10 19 -19 13 -20 -7 0
-22 9 -35 20 -13 10 -19 19 -13 20 7 0 22 -9 35 -20z"/>
<path d="M3754 3551 l-22 -49 39 -58 c81 -126 101 -138 196 -124 75 10 94 3
63 -25 -27 -25 -25 -36 13 -60 17 -11 38 -33 45 -48 12 -24 11 -31 -8 -62 -12
-19 -25 -35 -30 -35 -8 0 -203 -165 -318 -271 -69 -63 -71 -73 -29 -119 35
-38 41 -61 18 -67 -11 -3 -22 -12 -25 -20 -5 -11 -16 -13 -50 -8 -27 4 -52 2
-65 -5 -17 -9 -28 -8 -53 4 -39 20 -42 17 -23 -20 32 -62 9 -89 -52 -60 -19 9
-40 13 -46 9 -7 -4 -104 -81 -217 -172 -386 -311 -449 -361 -455 -361 -3 0
-16 -9 -28 -21 -12 -11 -68 -55 -124 -97 l-103 -76 0 -48 c0 -43 -3 -50 -25
-58 -30 -12 -42 -35 -26 -54 6 -7 9 -20 6 -29 -4 -8 1 -32 10 -53 9 -21 27
-83 41 -138 14 -56 30 -106 35 -113 14 -15 240 -143 431 -242 86 -45 161 -87
167 -94 21 -26 -4 -40 -65 -35 -50 4 -90 21 -268 112 -166 85 -205 101 -192
81 52 -79 129 -247 177 -387 14 -40 14 -38 -43 -113 -42 -56 -74 -85 -117
-105 -28 -14 -50 -28 -51 -31 0 -4 16 -48 35 -98 45 -115 62 -192 71 -308 l7
-93 1063 0 1064 0 0 1800 0 1800 -334 0 c-331 0 -334 0 -339 -21 -6 -23 -27
-17 -27 7 0 12 -28 14 -162 14 l-163 0 -21 -49z m432 -612 c8 -14 -11 -33 -25
-25 -11 7 -4 36 9 36 5 0 12 -5 16 -11z m349 -249 c-3 -5 -11 -10 -16 -10 -6
0 -7 5 -4 10 3 6 11 10 16 10 6 0 7 -4 4 -10z m169 -509 c17 -19 15 -41 -5
-41 -15 0 -50 40 -44 50 10 16 30 12 49 -9z"/>
<path d="M3215 2614 c-71 -30 -179 -78 -238 -107 -97 -46 -107 -54 -102 -74 4
-18 -1 -26 -24 -38 -17 -8 -41 -26 -55 -39 -15 -16 -62 -37 -127 -57 -157 -48
-164 -58 -160 -219 1 -63 4 -116 6 -118 3 -3 55 36 284 213 36 28 124 97 195
155 72 57 186 149 254 203 86 68 122 103 118 114 -3 8 -6 17 -6 19 0 8 -18 2
-145 -52z"/>
<path d="M2580 2545 c-7 -8 -16 -12 -21 -10 -7 5 -29 -25 -29 -40 0 -8 29 10
65 40 21 17 25 25 14 25 -9 0 -22 -7 -29 -15z"/>
<path d="M2450 2454 c-20 -14 -28 -24 -18 -24 18 0 66 36 58 43 -3 3 -21 -6
-40 -19z"/>
<path d="M2063 2025 c-13 -7 -31 -19 -41 -28 -10 -10 -25 -17 -33 -17 -8 0
-29 -16 -48 -35 -30 -31 -35 -45 -52 -141 -20 -120 -23 -111 48 -149 33 -18
34 -18 58 5 14 13 25 28 25 34 0 5 10 20 23 34 22 23 22 24 2 38 -11 9 -27 19
-35 24 -13 7 -9 19 21 77 33 63 67 160 58 167 -2 1 -14 -3 -26 -9z"/>
<path d="M1850 1571 c0 -14 5 -19 15 -14 17 6 15 25 -3 31 -7 2 -12 -5 -12
-17z"/>
<path d="M1676 1315 c-58 -30 -122 -64 -143 -76 -225 -127 -533 -278 -696
-340 -85 -32 -85 -31 -66 -84 9 -25 13 -45 9 -45 -10 0 -30 47 -30 70 0 24 -1
24 -48 4 -54 -23 -136 -23 -161 1 -29 25 -26 34 11 49 155 64 189 79 185 82
-5 5 -277 -28 -464 -56 -72 -11 -163 -20 -202 -20 l-71 0 0 -450 0 -450 890 0
890 0 -2 143 c-1 117 2 160 22 244 l23 102 -29 25 c-16 14 -40 31 -54 37 -46
24 -90 60 -90 75 0 8 -4 13 -9 9 -5 -3 -17 2 -25 11 -12 11 -16 35 -16 84 0
78 17 129 119 348 94 202 122 279 104 286 -28 11 -43 6 -147 -49z m-103 -177
c-6 -80 -9 -88 -29 -88 -14 0 -15 7 -10 48 8 54 25 102 36 102 5 0 6 -28 3
-62z"/>
<path d="M584 1115 c-6 -15 31 -75 47 -75 5 0 9 13 9 29 0 16 3 36 6 45 5 13
-1 16 -25 16 -19 0 -34 -6 -37 -15z"/>
<path d="M2105 460 c-4 -6 -29 -9 -58 -8 -51 3 -51 3 -59 -32 -4 -19 -14 -102
-23 -185 -8 -82 -18 -169 -21 -193 l-6 -42 289 0 289 0 -47 185 c-59 227 -79
276 -109 268 -12 -3 -31 0 -43 6 -18 10 -29 9 -52 -3 -38 -20 -72 -20 -109 -1
-33 18 -43 19 -51 5z"/>
</g>
</svg>
