<?xml version="1.0" standalone="no"?>
<!DOCTYPE svg PUBLIC "-//W3C//DTD SVG 20010904//EN"
 "http://www.w3.org/TR/2001/REC-SVG-20010904/DTD/svg10.dtd">
<svg version="1.0" xmlns="http://www.w3.org/2000/svg"
 width="480.000000pt" height="360.000000pt" viewBox="0 0 480.000000 360.000000"
 preserveAspectRatio="xMidYMid meet">
<metadata>
Created by potrace 1.16, written by Peter Selinger 2001-2019
</metadata>
<rect width="1" height="360" fill="#000000"/>
<rect x="479" width="1" height="360" fill="#000000"/>
<rect width="480" height="1" fill="#000000"/>
<rect y="359" width="480" height="1" fill="#000000"/>
<g transform="translate(0.000000,360.000000) scale(0.100000,-0.100000)"
fill="#000000" stroke="none">
<path d="M0 1800 l0 -1800 283 0 284 0 50 62 c227 285 240 305 224 347 -21 55
-23 108 -6 142 12 22 15 44 11 72 -6 33 -3 44 15 63 16 17 20 30 15 49 -5 20
-1 30 14 43 18 15 22 28 21 82 0 72 9 90 49 90 24 0 30 8 64 85 36 83 47 148
32 191 -5 17 1 28 31 52 21 16 64 43 96 58 44 22 54 30 41 37 -10 6 -32 0 -69
-18 -68 -35 -123 -31 -186 12 -24 17 -59 38 -77 47 -33 17 -34 17 -70 -11 -20
-15 -56 -45 -80 -67 -35 -33 -42 -36 -42 -19 0 11 16 40 35 64 41 51 118 240
169 414 42 142 92 382 83 392 -4 3 -16 -3 -27 -15 -12 -12 -25 -22 -31 -22
-17 0 -70 30 -172 97 l-98 65 23 25 c20 21 23 35 23 96 l0 71 35 -2 c19 -1 46
-4 60 -7 36 -9 177 67 171 92 -11 50 -1 214 18 285 77 293 252 450 531 473 47
4 93 11 102 16 9 5 42 44 72 86 31 43 70 95 87 116 l31 37 -906 0 -906 0 0
-1800z m345 -900 c3 -6 3 -19 0 -30 -8 -24 -43 -26 -71 -5 -19 15 -19 15 0 30
23 17 62 20 71 5z"/>
<path d="M1850 3595 c0 -3 17 -29 39 -58 21 -29 57 -84 80 -122 l41 -71 69
-16 c237 -56 428 -248 492 -497 24 -92 26 -181 5 -240 -16 -42 -15 -46 8 -95
13 -28 44 -78 70 -110 25 -33 46 -65 46 -72 0 -16 -76 -84 -95 -84 -19 0 -20
7 11 -199 26 -175 26 -176 66 -223 41 -49 41 -61 0 -32 -41 29 -39 15 16 -100
3 -5 -3 -6 -12 -3 -15 6 -17 2 -12 -21 3 -15 12 -72 22 -127 9 -55 28 -122 41
-148 13 -27 23 -61 21 -75 -3 -26 -5 -24 -35 23 -18 28 -42 61 -53 74 -24 27
-13 29 -135 -23 -73 -31 -97 -32 -145 -5 -36 20 -70 21 -70 1 0 -4 19 -15 43
-24 166 -65 270 -121 286 -156 6 -13 11 -44 11 -69 0 -43 -1 -45 -24 -41 l-24
5 29 -52 c27 -47 58 -152 74 -248 6 -37 6 -37 45 -31 36 6 40 5 40 -15 0 -12
-4 -30 -9 -39 -20 -38 -39 -162 -30 -196 12 -45 55 -58 80 -25 l17 22 113 -27
c101 -23 115 -25 125 -11 16 21 35 19 146 -18 84 -28 100 -31 112 -19 12 12
22 11 70 -7 32 -12 76 -31 98 -42 33 -17 46 -19 60 -10 20 13 38 5 140 -56 39
-23 64 -32 80 -28 18 5 40 -7 96 -50 39 -31 77 -53 83 -49 6 3 36 -18 67 -49
32 -30 71 -62 87 -70 17 -8 37 -27 45 -41 l13 -26 304 0 303 0 0 1800 0 1800
-1475 0 c-811 0 -1475 -2 -1475 -5z m2410 -870 c7 -9 10 -18 7 -21 -7 -8 -47
14 -47 26 0 15 26 12 40 -5z m-983 -353 c16 3 18 -5 17 -87 0 -52 -6 -103 -14
-120 l-14 -30 -6 50 c-4 28 -12 64 -19 80 -26 63 -23 138 4 115 7 -6 22 -10
32 -8z"/>
</g>
</svg>
