<?xml version="1.0" standalone="no"?>
<!DOCTYPE svg PUBLIC "-//W3C//DTD SVG 20010904//EN"
 "http://www.w3.org/TR/2001/REC-SVG-20010904/DTD/svg10.dtd">
<svg version="1.0" xmlns="http://www.w3.org/2000/svg"
 width="480.000000pt" height="360.000000pt" viewBox="0 0 480.000000 360.000000"
 preserveAspectRatio="xMidYMid meet">
<metadata>
Created by potrace 1.16, written by Peter Selinger 2001-2019
</metadata>
<rect width="1" height="360" fill="#000000"/>
<rect x="479" width="1" height="360" fill="#000000"/>
<rect width="480" height="1" fill="#000000"/>
<rect y="359" width="480" height="1" fill="#000000"/>
<g transform="translate(0.000000,360.000000) scale(0.100000,-0.100000)"
fill="#000000" stroke="none">
<path d="M930 3595 c0 -2 18 -44 41 -94 33 -72 46 -91 67 -96 15 -4 44 -20 66
-36 22 -16 48 -29 58 -29 29 0 73 -26 102 -60 29 -35 42 -77 52 -168 4 -34 11
-65 15 -68 5 -3 57 -13 116 -24 283 -48 473 -118 473 -174 0 -50 -150 -97
-413 -130 -65 -8 -121 -17 -124 -20 -3 -3 20 -49 51 -102 61 -104 65 -117 39
-107 -17 7 -17 5 0 -21 32 -49 8 -42 -48 14 -30 30 -57 52 -60 49 -2 -3 0 -44
6 -92 10 -82 1 -235 -17 -282 -10 -25 -24 -7 -24 31 0 19 -4 34 -9 34 -7 0
-58 -97 -87 -165 -6 -15 -10 -3 -14 45 -6 72 -8 71 -49 -35 -11 -27 -25 -49
-31 -47 -6 1 -28 -12 -48 -29 -20 -18 -37 -28 -39 -22 -2 5 10 40 27 77 18 40
28 75 25 87 -8 26 -21 24 -37 -5 -7 -13 -21 -38 -31 -55 -25 -45 -32 -121 -17
-178 11 -37 28 -61 77 -108 73 -70 79 -96 34 -139 -16 -15 -57 -37 -92 -49
l-64 -22 -3 -50 c-2 -34 -10 -57 -25 -74 -20 -21 -28 -23 -94 -18 -80 6 -87 0
-54 -42 13 -17 25 -22 40 -18 17 4 21 1 21 -18 0 -34 -20 -72 -46 -89 -12 -9
-30 -38 -39 -68 -26 -79 -52 -126 -80 -144 -37 -24 -103 -13 -279 46 -82 27
-153 47 -159 43 -6 -4 -7 -56 -3 -147 7 -161 -9 -133 142 -251 49 -38 150
-129 224 -201 105 -102 146 -135 185 -150 60 -22 123 -82 154 -147 15 -31 42
-62 79 -91 32 -24 81 -69 110 -100 l53 -56 1229 0 1229 0 73 58 c40 32 99 86
130 120 54 59 120 174 134 235 6 26 5 27 -40 27 -36 0 -52 6 -71 25 -70 70 21
218 186 301 40 20 99 57 131 83 32 26 80 58 108 71 45 23 50 28 50 60 0 45 -8
57 -45 66 -45 10 -63 31 -111 126 -29 58 -51 89 -66 93 -42 14 -116 98 -128
147 -14 54 -30 71 -83 88 -43 13 -107 65 -107 85 0 7 25 34 55 60 31 26 67 68
80 95 l24 47 -33 84 c-29 75 -35 84 -61 87 -23 3 -27 1 -20 -15 23 -56 11 -52
-56 17 -61 64 -71 71 -65 46 27 -113 16 -112 -45 4 -23 44 -45 80 -51 80 -8 0
-4 -47 9 -92 11 -41 -17 -13 -45 45 -36 74 -58 145 -67 221 -4 31 -11 58 -15
61 -5 3 -25 -24 -45 -60 -20 -36 -40 -65 -45 -65 -5 0 0 30 11 67 23 81 22 76
5 70 -8 -3 -20 0 -26 8 -9 11 -19 10 -58 -7 -26 -12 -66 -21 -90 -21 -50 0
-82 25 -143 116 -22 31 -46 57 -53 57 -8 0 -36 -16 -62 -35 -75 -53 -103 -67
-126 -59 -34 10 -20 79 35 161 25 38 48 82 52 98 18 80 32 95 104 115 28 7 64
31 104 68 67 60 76 72 56 72 -28 0 -267 -143 -344 -206 -106 -87 -147 -54 -84
69 40 80 260 413 363 552 133 178 209 245 278 245 61 0 86 -46 107 -194 6 -38
15 -73 22 -77 17 -10 39 0 39 18 0 22 62 151 103 216 21 32 37 60 37 62 0 3
-639 5 -1420 5 -781 0 -1420 -2 -1420 -5z"/>
<path d="M3364 3398 c-22 -24 -60 -70 -85 -103 -66 -88 -269 -385 -269 -395 0
-5 21 1 48 12 26 12 103 42 171 67 l123 46 19 60 c10 33 37 85 60 115 l42 55
-11 66 c-13 77 -30 119 -47 119 -7 0 -30 -19 -51 -42z"/>
<path d="M3406 2898 c-22 -31 -13 -34 28 -8 43 26 44 30 12 30 -14 0 -32 -10
-40 -22z"/>
<path d="M1114 2225 c-4 -8 -3 -23 1 -32 7 -17 8 -16 15 2 5 11 9 26 9 33 1
17 -18 15 -25 -3z"/>
<path d="M4000 657 c-48 -37 -67 -107 -31 -107 23 0 30 10 52 73 16 48 10 59
-21 34z"/>
<path d="M630 416 c0 -46 26 -59 54 -27 17 19 17 20 -3 30 -28 15 -51 14 -51
-3z"/>
</g>
</svg>
