<?xml version="1.0" standalone="no"?>
<!DOCTYPE svg PUBLIC "-//W3C//DTD SVG 20010904//EN"
 "http://www.w3.org/TR/2001/REC-SVG-20010904/DTD/svg10.dtd">
<svg version="1.0" xmlns="http://www.w3.org/2000/svg"
 width="480.000000pt" height="360.000000pt" viewBox="0 0 480.000000 360.000000"
 preserveAspectRatio="xMidYMid meet">
<metadata>
Created by potrace 1.16, written by Peter Selinger 2001-2019
</metadata>
<rect width="1" height="360" fill="#000000"/>
<rect x="479" width="1" height="360" fill="#000000"/>
<rect width="480" height="1" fill="#000000"/>
<rect y="359" width="480" height="1" fill="#000000"/>
<g transform="translate(0.000000,360.000000) scale(0.100000,-0.100000)"
fill="#000000" stroke="none">
<path d="M0 1800 l0 -1800 1433 0 1432 0 54 91 c50 83 53 92 43 122 -87 261
-254 681 -343 862 -74 149 -128 218 -181 229 -13 3 -63 12 -113 21 -155 27
-224 54 -274 105 -67 68 -160 188 -165 213 -3 12 -7 65 -10 119 -6 112 3 132
89 202 28 23 67 60 88 83 34 37 37 44 27 63 -18 33 6 53 28 24 l17 -21 65 46
65 46 100 0 c120 0 142 -10 230 -99 96 -98 155 -230 155 -348 0 -68 -9 -89
-57 -139 l-35 -37 99 -98 c93 -94 122 -133 280 -381 l40 -63 1 35 c3 68 33
117 161 260 103 114 109 127 110 208 1 118 12 155 75 246 64 92 65 79 -8 166
l-40 47 18 33 c18 32 18 34 0 64 -10 17 -21 31 -24 31 -3 0 -16 -19 -30 -43
l-25 -42 -3 47 c-3 47 -3 48 -26 33 -12 -8 -56 -27 -96 -41 -92 -32 -105 -27
-153 59 -21 37 -45 67 -57 70 -15 4 -20 13 -20 36 0 25 -6 34 -27 42 -43 16
-61 37 -68 81 -6 31 -14 44 -37 57 -51 27 -89 63 -84 77 4 8 8 20 12 28 3 9
-4 15 -23 19 -35 7 -299 152 -333 182 -29 26 -102 65 -123 65 -23 0 -157 100
-167 124 -10 27 -162 129 -195 131 -13 0 -34 10 -47 21 -13 12 -31 25 -41 31
-28 15 -186 147 -186 157 -1 4 -15 26 -32 48 -29 35 -30 40 -15 51 28 21 -21
59 -83 65 -45 4 -54 9 -91 53 -23 27 -36 50 -30 54 6 4 -2 19 -19 36 l-29 29
-666 0 -666 0 0 -1800z"/>
<path d="M4650 3556 c0 -48 0 -49 75 -61 22 -3 48 -8 58 -11 15 -5 17 2 17 55
l0 61 -75 0 -75 0 0 -44z"/>
<path d="M3109 973 c12 -23 29 -38 37 -31 2 3 -8 15 -22 29 -25 23 -26 23 -15
2z"/>
<path d="M3580 238 c-60 -56 -194 -148 -216 -148 -12 0 -44 -59 -44 -81 0 -5
115 -9 256 -9 l256 0 -28 48 c-26 44 -163 242 -167 242 -1 -1 -27 -24 -57 -52z"/>
</g>
</svg>
