<?xml version="1.0" standalone="no"?>
<!DOCTYPE svg PUBLIC "-//W3C//DTD SVG 20010904//EN"
 "http://www.w3.org/TR/2001/REC-SVG-20010904/DTD/svg10.dtd">
<svg version="1.0" xmlns="http://www.w3.org/2000/svg"
 width="480.000000pt" height="360.000000pt" viewBox="0 0 480.000000 360.000000"
 preserveAspectRatio="xMidYMid meet">
<metadata>
Created by potrace 1.16, written by Peter Selinger 2001-2019
</metadata>
<rect width="1" height="360" fill="#000000"/>
<rect x="479" width="1" height="360" fill="#000000"/>
<rect width="480" height="1" fill="#000000"/>
<rect y="359" width="480" height="1" fill="#000000"/>
<g transform="translate(0.000000,360.000000) scale(0.100000,-0.100000)"
fill="#000000" stroke="none">
<path d="M0 1800 l0 -1800 2400 0 2400 0 0 1800 0 1800 -2400 0 -2400 0 0
-1800z m1874 -172 c15 -34 46 -79 68 -102 21 -23 53 -69 69 -103 47 -99 158
-180 277 -203 70 -13 72 -14 72 -61 0 -54 -22 -102 -59 -130 -19 -14 -36 -40
-47 -71 -20 -60 -91 -125 -163 -149 l-50 -16 -12 50 c-27 114 -109 217 -216
274 -97 52 -293 299 -293 369 0 7 18 37 40 66 29 38 38 59 34 75 -4 13 -3 31
1 40 6 16 8 15 24 -6 l19 -24 39 29 c36 26 46 29 104 26 l64 -3 29 -61z"/>
</g>
</svg>
