<?xml version="1.0" standalone="no"?>
<!DOCTYPE svg PUBLIC "-//W3C//DTD SVG 20010904//EN"
 "http://www.w3.org/TR/2001/REC-SVG-20010904/DTD/svg10.dtd">
<svg version="1.0" xmlns="http://www.w3.org/2000/svg"
 width="480.000000pt" height="360.000000pt" viewBox="0 0 480.000000 360.000000"
 preserveAspectRatio="xMidYMid meet">
<metadata>
Created by potrace 1.16, written by Peter Selinger 2001-2019
</metadata>
<rect width="1" height="360" fill="#000000"/>
<rect x="479" width="1" height="360" fill="#000000"/>
<rect width="480" height="1" fill="#000000"/>
<rect y="359" width="480" height="1" fill="#000000"/>
<g transform="translate(0.000000,360.000000) scale(0.100000,-0.100000)"
fill="#000000" stroke="none">
<path d="M0 1800 l0 -1800 1070 0 1069 0 5 33 c5 29 14 140 31 379 l7 87 -42
21 c-22 11 -38 25 -34 31 3 6 -2 19 -12 30 -16 18 -16 19 1 19 14 0 15 3 5 15
-10 11 -6 24 18 67 31 53 41 99 77 345 21 142 19 192 -12 313 -14 58 -26 128
-27 155 0 47 26 142 64 230 10 24 15 55 12 77 -3 31 0 39 25 54 38 25 40 29
48 98 l7 60 -55 51 c-45 43 -55 57 -50 75 5 20 3 22 -12 16 -22 -8 -91 37
-100 65 -4 10 -12 18 -18 16 -18 -3 -14 119 7 180 35 104 194 212 326 220 59
4 71 1 130 -29 143 -73 215 -234 251 -563 6 -55 24 -171 40 -257 16 -87 31
-209 35 -270 3 -62 12 -174 20 -248 12 -109 14 -212 8 -531 l-7 -397 33 -171
34 -171 923 0 923 0 0 1210 0 1211 -62 30 c-72 34 -122 67 -158 102 -14 13
-41 35 -60 50 -36 26 -159 163 -225 250 -68 91 -167 309 -186 412 -29 159 -39
227 -39 278 l0 57 -2035 0 -2035 0 0 -1800z"/>
<path d="M2412 1990 c0 -19 2 -27 5 -17 2 9 2 25 0 35 -3 9 -5 1 -5 -18z"/>
</g>
</svg>
