<?xml version="1.0" standalone="no"?>
<!DOCTYPE svg PUBLIC "-//W3C//DTD SVG 20010904//EN"
 "http://www.w3.org/TR/2001/REC-SVG-20010904/DTD/svg10.dtd">
<svg version="1.0" xmlns="http://www.w3.org/2000/svg"
 width="480.000000pt" height="360.000000pt" viewBox="0 0 480.000000 360.000000"
 preserveAspectRatio="xMidYMid meet">
<metadata>
Created by potrace 1.16, written by Peter Selinger 2001-2019
</metadata>
<rect width="1" height="360" fill="#000000"/>
<rect x="479" width="1" height="360" fill="#000000"/>
<rect width="480" height="1" fill="#000000"/>
<rect y="359" width="480" height="1" fill="#000000"/>
<g transform="translate(0.000000,360.000000) scale(0.100000,-0.100000)"
fill="#000000" stroke="none">
<path d="M1313 2856 c-12 -24 -31 -47 -42 -51 -23 -7 -27 -20 -11 -30 6 -4 7
-12 3 -18 -4 -7 -8 -28 -9 -49 -1 -21 -21 -70 -48 -121 -25 -46 -46 -91 -46
-99 0 -9 11 -36 25 -59 23 -40 25 -41 20 -14 -5 30 -5 30 6 5 10 -21 13 -22
16 -8 4 15 11 12 41 -18 20 -19 49 -40 65 -46 16 -6 27 -17 27 -29 0 -15 -7
-19 -34 -19 -47 0 -64 -22 -42 -55 17 -25 16 -26 -49 -90 -36 -35 -65 -70 -65
-78 0 -7 -15 -30 -34 -50 -70 -76 -53 -158 39 -190 5 -2 8 -42 6 -93 -2 -78
-6 -96 -32 -141 -17 -29 -35 -55 -40 -59 -6 -3 -7 -18 -4 -33 4 -18 -4 -54
-20 -100 -15 -40 -24 -79 -21 -88 3 -8 1 -24 -5 -35 -6 -11 -12 -37 -14 -57
-1 -20 -9 -70 -18 -111 -22 -98 -81 -576 -107 -860 -12 -124 -23 -233 -26
-242 -5 -17 22 -18 477 -18 l482 0 -6 30 c-18 85 -58 396 -72 545 -18 206 -43
332 -102 530 -53 182 -59 205 -44 205 6 0 8 11 4 30 -4 22 7 71 37 165 l44
135 -22 101 c-12 56 -18 107 -14 113 12 20 9 75 -5 80 -11 5 -11 12 2 42 8 20
15 45 15 55 0 30 -70 202 -91 225 -11 11 -16 24 -12 28 5 4 8 17 8 29 0 13 7
23 17 25 15 3 17 -2 11 -28 -6 -35 -2 -34 53 6 17 11 22 12 21 2 -1 -43 2 -49
26 -36 12 7 31 20 41 28 12 9 16 10 12 3 -4 -7 -5 -13 -2 -13 11 0 56 100 56
123 0 12 -14 63 -30 112 -17 50 -31 106 -30 127 1 28 -5 41 -25 57 -15 11 -39
38 -55 59 -39 55 -91 83 -179 99 -101 19 -119 18 -142 -3 -18 -16 -19 -16 -19
4 0 34 -14 26 -37 -22z"/>
<path d="M3538 2169 c-39 -40 -187 -169 -194 -169 -2 0 -37 9 -76 20 -40 11
-79 20 -88 20 -25 0 -72 -43 -65 -61 3 -8 39 -42 81 -74 50 -40 71 -62 64 -69
-18 -18 -11 -71 12 -96 19 -20 19 -24 6 -34 -23 -17 -18 -99 8 -128 19 -21 20
-27 9 -63 -10 -34 -17 -41 -49 -48 -32 -8 -40 -16 -60 -61 -13 -28 -55 -100
-94 -159 -40 -60 -72 -113 -72 -119 0 -6 11 -47 24 -92 13 -44 29 -100 35
-124 7 -24 22 -49 35 -57 38 -25 47 -77 31 -170 -7 -44 -19 -133 -25 -197 -6
-65 -15 -132 -21 -150 -14 -51 -12 -58 31 -99 l40 -38 2 -101 2 -100 67 0 67
0 12 70 c18 108 47 106 69 -5 l13 -65 73 0 74 0 6 48 c3 26 7 54 8 62 1 8 11
16 22 18 35 5 94 34 99 48 3 8 -10 74 -29 146 -43 169 -78 374 -70 414 3 18
16 39 29 48 13 8 30 32 36 53 7 21 30 73 51 115 22 43 39 92 39 109 0 17 -16
67 -36 112 -58 131 -102 256 -99 280 6 46 28 117 39 126 8 7 25 1 55 -18 61
-40 117 -65 135 -58 8 3 18 22 22 42 6 32 1 43 -45 105 -28 39 -51 77 -51 85
0 7 22 69 50 137 27 68 50 133 50 145 0 56 -155 173 -240 181 -45 4 -52 2 -82
-29z m51 -1050 c1 -14 -56 -65 -64 -57 -3 3 3 40 22 128 5 24 6 23 23 -15 10
-22 19 -47 19 -56z m-389 31 c-6 -11 -15 -18 -20 -15 -6 4 -3 20 7 38 13 24
18 28 21 15 2 -9 -2 -26 -8 -38z"/>
</g>
</svg>
