<?xml version="1.0" standalone="no"?>
<!DOCTYPE svg PUBLIC "-//W3C//DTD SVG 20010904//EN"
 "http://www.w3.org/TR/2001/REC-SVG-20010904/DTD/svg10.dtd">
<svg version="1.0" xmlns="http://www.w3.org/2000/svg"
 width="480.000000pt" height="360.000000pt" viewBox="0 0 480.000000 360.000000"
 preserveAspectRatio="xMidYMid meet">
<metadata>
Created by potrace 1.16, written by Peter Selinger 2001-2019
</metadata>
<rect width="1" height="360" fill="#000000"/>
<rect x="479" width="1" height="360" fill="#000000"/>
<rect width="480" height="1" fill="#000000"/>
<rect y="359" width="480" height="1" fill="#000000"/>
<g transform="translate(0.000000,360.000000) scale(0.100000,-0.100000)"
fill="#000000" stroke="none">
<path d="M0 2884 l0 -717 133 7 c72 3 236 9 362 13 195 5 225 8 195 18 -47 15
-65 53 -64 135 0 170 70 261 262 340 75 31 138 59 155 68 5 2 4 -5 -2 -16 -15
-27 -14 -30 7 -34 9 -2 -13 -16 -53 -32 -278 -112 -319 -153 -320 -323 0 -83
2 -95 23 -115 l22 -22 0 27 c0 39 27 103 77 178 81 125 162 165 409 203 130
20 127 21 112 -4 -11 -17 -10 -22 2 -30 8 -5 12 -12 9 -15 -4 -3 -69 -15 -145
-25 -195 -29 -289 -76 -348 -177 -5 -9 10 -11 61 -7 80 7 106 -6 106 -52 0
-27 7 -33 96 -77 53 -26 101 -48 107 -48 6 1 21 12 34 26 13 14 31 23 39 21
70 -19 74 -18 67 7 -3 14 -2 45 2 69 9 43 8 44 -15 40 -17 -3 -23 0 -23 12 0
10 -5 14 -10 11 -6 -3 -13 1 -16 9 -3 9 -21 18 -40 22 -58 11 -54 28 4 20 51
-6 52 -6 71 25 14 23 17 37 10 50 -16 31 -10 51 29 85 l37 32 -28 11 c-33 13
-52 54 -37 82 11 19 46 33 69 27 7 -2 20 17 30 44 10 25 27 59 38 75 11 15 30
47 42 70 30 61 80 114 102 111 18 -3 19 11 23 285 l4 287 -819 0 -819 0 0
-716z"/>
<path d="M1636 3013 c-4 -4 -6 -415 -6 -913 1 -1673 1 -1851 -10 -1845 -5 3
-10 1 -10 -4 0 -6 -13 -11 -29 -11 -17 0 -33 -5 -36 -10 -3 -6 -24 -10 -45
-10 -45 0 -42 6 -64 -132 l-13 -88 102 0 102 0 6 51 c4 29 4 78 0 110 -3 35
-2 59 4 59 5 0 32 -49 60 -110 l51 -110 171 0 c94 0 171 2 171 5 0 9 -99 281
-129 354 -17 41 -31 81 -31 90 1 21 19 43 51 59 14 7 39 27 57 43 17 16 55 40
82 53 60 28 90 53 90 75 0 20 -78 97 -141 139 -37 25 -46 36 -42 54 4 19 -22
51 -131 166 -75 79 -152 163 -172 188 l-37 44 -1 108 c-2 132 9 214 36 270
l20 43 47 -50 c51 -55 55 -57 113 -39 36 11 40 10 68 -17 44 -42 39 -87 -35
-333 -19 -63 -35 -120 -35 -126 0 -18 86 -13 108 7 13 12 28 16 45 12 23 -6
27 -3 36 32 6 21 16 76 21 123 11 87 29 146 37 122 3 -7 18 -19 34 -27 34 -18
36 -42 18 -156 -7 -38 -9 -72 -6 -75 3 -4 22 3 41 15 23 14 35 18 38 10 3 -8
18 -3 45 14 l41 26 15 -32 c27 -57 39 -156 32 -255 -4 -51 -3 -92 2 -92 5 0
19 7 31 16 12 8 27 12 32 9 14 -9 12 63 -4 173 -14 89 -56 196 -102 260 -31
42 4 22 60 -35 63 -65 137 -201 161 -297 8 -33 19 -64 25 -70 11 -11 40 10 40
30 0 8 9 14 20 14 24 0 23 4 -60 161 -47 88 -71 120 -157 207 -57 57 -103 105
-103 107 0 15 73 352 81 372 10 27 12 123 3 148 -4 9 -24 25 -45 36 -35 17
-39 24 -40 57 0 20 -10 64 -22 97 -17 46 -27 60 -42 60 -21 0 -58 64 -90 158
-22 62 -45 63 -45 1 0 -25 5 -54 11 -66 18 -34 0 -33 -31 2 -44 49 -47 73 -16
111 17 19 25 38 21 48 -20 50 -18 73 9 97 32 30 33 40 5 47 -16 4 -20 11 -15
24 4 10 14 47 22 82 14 57 13 65 -1 88 -12 18 -23 24 -40 20 -22 -4 -25 1 -36
51 -13 55 -44 112 -66 119 -6 2 -30 -12 -52 -33 l-41 -36 -50 21 c-27 12 -71
24 -97 27 -29 4 -64 18 -89 35 -23 15 -44 25 -48 22z m460 -774 c14 -29 14
-30 -3 -20 -10 5 -27 17 -38 25 -17 13 -18 17 -5 25 18 12 27 7 46 -30z m-70
-40 c19 -22 19 -22 -6 -14 -32 9 -33 11 -25 24 8 15 9 14 31 -10z m-275 -51
l44 -33 -33 -3 c-44 -4 -63 3 -56 23 4 8 1 22 -6 30 -21 26 5 17 51 -17z m220
-75 c70 -59 144 -143 126 -143 -24 0 -76 35 -91 62 -10 18 -37 52 -59 76 -51
52 -36 55 24 5z"/>
<path d="M775 2267 c-11 -17 -21 -35 -23 -39 -2 -3 16 -5 40 -3 24 2 54 4 67
4 25 1 25 1 -9 36 -19 19 -39 35 -44 35 -6 0 -20 -15 -31 -33z"/>
<path d="M1402 2288 c-8 -8 -8 -17 -1 -30 12 -22 29 -15 29 12 0 24 -13 33
-28 18z"/>
<path d="M250 1964 c-14 -2 -76 -11 -137 -20 l-113 -16 0 -964 0 -964 539 0
539 0 6 38 c16 103 29 262 31 393 3 142 -4 191 -24 160 -7 -11 -12 -5 -20 25
-5 21 -18 68 -27 104 -13 46 -18 105 -18 200 -1 134 -1 136 41 258 32 92 47
155 58 250 21 167 31 239 52 344 9 48 15 89 12 92 -3 3 -32 -1 -64 -9 -71 -16
-132 -12 -154 10 -9 8 -21 30 -27 48 -10 29 -15 33 -65 39 -64 8 -593 19 -629
12z"/>
</g>
</svg>
