<?xml version="1.0" standalone="no"?>
<!DOCTYPE svg PUBLIC "-//W3C//DTD SVG 20010904//EN"
 "http://www.w3.org/TR/2001/REC-SVG-20010904/DTD/svg10.dtd">
<svg version="1.0" xmlns="http://www.w3.org/2000/svg"
 width="480.000000pt" height="360.000000pt" viewBox="0 0 480.000000 360.000000"
 preserveAspectRatio="xMidYMid meet">
<metadata>
Created by potrace 1.16, written by Peter Selinger 2001-2019
</metadata>
<rect width="1" height="360" fill="#000000"/>
<rect x="479" width="1" height="360" fill="#000000"/>
<rect width="480" height="1" fill="#000000"/>
<rect y="359" width="480" height="1" fill="#000000"/>
<g transform="translate(0.000000,360.000000) scale(0.100000,-0.100000)"
fill="#000000" stroke="none">
<path d="M0 1800 l0 -1800 395 0 395 0 0 33 c0 17 3 42 6 55 6 19 0 25 -42 43
-40 18 -59 21 -121 15 -68 -5 -74 -4 -87 17 -8 12 -18 34 -21 49 -13 50 -37
62 -114 54 -43 -4 -72 -2 -76 4 -4 6 -16 3 -31 -7 -22 -14 -27 -14 -35 -2 -12
19 -11 86 2 133 8 29 8 41 -2 46 -9 6 -6 16 11 40 13 18 24 42 25 54 4 34 75
175 122 242 24 34 43 65 43 69 0 5 29 56 64 114 101 170 130 225 215 420 68
154 81 193 80 235 0 53 -22 192 -31 202 -3 2 -16 -45 -28 -106 -24 -112 -48
-154 -36 -60 12 87 -8 54 -51 -86 l-41 -135 20 -46 c14 -31 18 -57 14 -81 -7
-47 -23 -63 -40 -39 -20 27 -41 11 -59 -45 -18 -56 -14 -72 14 -65 29 8 23
-10 -8 -25 -24 -11 -27 -18 -25 -49 2 -24 -2 -40 -13 -49 -24 -20 -31 -3 -45
110 -11 93 -11 100 14 179 23 72 25 88 15 124 l-11 41 -13 -24 -14 -25 -10 25
c-8 20 -9 14 -5 -30 l5 -55 -29 33 c-32 36 -42 40 -42 16 0 -8 -4 -12 -10 -9
-5 3 -10 18 -10 33 l-1 27 -16 -30 c-9 -16 -19 -43 -23 -60 -4 -20 -12 -30
-23 -29 -9 1 -17 -3 -18 -10 0 -6 -7 5 -15 24 l-14 35 4 -47 c3 -45 -8 -65
-20 -35 -2 7 -14 13 -25 14 -12 1 -27 10 -34 20 -13 18 -42 131 -37 147 2 4 3
84 3 177 l0 169 35 84 c19 46 60 125 90 177 30 52 74 132 97 179 41 84 42 87
42 190 0 58 -4 134 -9 170 -6 48 -4 85 8 140 9 41 12 77 8 81 -4 4 -26 3 -50
-4 -36 -9 -48 -9 -70 4 -45 25 -41 60 13 118 64 69 57 80 -102 160 -68 34
-122 65 -120 68 3 2 29 -2 59 -11 210 -61 262 -77 274 -87 9 -7 23 -3 53 16
48 32 102 36 131 10 25 -22 25 -44 3 -84 -10 -16 -15 -33 -11 -36 4 -4 27 1
52 10 35 13 59 16 103 10 75 -9 170 -44 152 -56 -11 -6 -8 -13 10 -33 21 -23
23 -31 17 -81 -6 -51 -5 -55 14 -55 13 0 20 -7 20 -18 0 -10 7 -45 16 -77 l15
-60 -35 -28 c-20 -16 -36 -34 -36 -40 0 -5 11 -25 25 -43 14 -18 25 -37 25
-42 0 -5 28 -31 63 -58 37 -28 75 -69 92 -98 17 -28 60 -74 98 -106 105 -84
114 -111 71 -205 -26 -56 -26 -61 -21 -208 6 -169 12 -199 128 -579 34 -112
72 -243 86 -293 13 -49 34 -117 47 -150 36 -90 57 -220 61 -385 5 -165 6 -163
-64 -179 -23 -5 -44 -11 -45 -13 -2 -1 -17 -24 -34 -49 -39 -57 -58 -63 -169
-48 -80 10 -88 10 -100 -7 -7 -10 -13 -34 -13 -53 0 -20 -3 -46 -6 -58 l-6
-23 1196 0 1196 0 0 28 c-1 15 -7 75 -13 134 -15 120 -29 142 -100 154 -53 9
-67 27 -67 82 0 26 -7 57 -15 69 -14 20 -14 23 1 31 15 8 15 12 -4 38 -24 34
-37 105 -19 101 7 -1 12 6 11 16 0 9 -1 33 -2 53 -1 20 -6 33 -12 29 -21 -13
-15 180 10 345 11 69 26 220 34 335 9 116 23 253 32 305 9 54 17 158 18 240 1
133 -1 149 -21 187 -42 78 -30 109 73 193 40 33 77 74 95 105 20 36 50 67 96
101 108 79 131 138 68 175 -33 20 -35 24 -29 58 4 20 7 55 7 79 0 34 4 42 18
42 27 0 32 16 14 44 -19 28 -12 88 12 107 10 9 11 14 3 19 -28 17 122 90 184
90 18 0 55 -7 82 -15 l49 -15 25 32 c55 72 152 166 194 187 25 12 47 27 49 34
3 9 9 9 27 -1 19 -12 25 -11 43 5 20 18 20 17 13 -2 -20 -50 -19 -55 8 -55 15
0 26 -6 26 -14 0 -17 -70 -78 -84 -73 -6 2 -33 -28 -61 -67 -28 -39 -61 -85
-74 -103 l-24 -32 25 -38 c14 -21 33 -71 43 -111 15 -68 15 -80 1 -165 -9 -51
-20 -155 -24 -232 l-9 -139 43 -91 c71 -151 89 -217 87 -320 -4 -138 -29 -247
-80 -342 l-43 -82 55 -82 c30 -44 96 -126 145 -180 124 -136 173 -216 190
-304 7 -39 16 -77 21 -86 4 -8 15 -61 25 -117 19 -115 13 -232 -12 -232 -8 0
-14 8 -15 18 -1 9 -7 -1 -14 -23 l-13 -40 -4 40 -5 40 -1 -42 c-2 -37 -5 -42
-29 -47 -152 -29 -147 -27 -193 -75 -25 -25 -57 -61 -73 -78 -29 -35 -31 -36
-157 -37 -69 -1 -81 -5 -154 -45 l-78 -44 7 -80 c3 -44 9 -86 12 -93 4 -12 75
-14 404 -14 l399 0 0 1800 0 1800 -2400 0 -2400 0 0 -1800z"/>
<path d="M4222 3213 c-47 -80 -59 -108 -50 -115 7 -4 15 -7 18 -7 3 0 40 42
83 92 71 84 76 93 60 104 -10 7 -23 17 -30 23 -7 5 -13 10 -15 10 -2 0 -31
-48 -66 -107z"/>
<path d="M562 1630 c0 -14 2 -19 5 -12 2 6 2 18 0 25 -3 6 -5 1 -5 -13z"/>
<path d="M551 1564 c0 -11 3 -14 6 -6 3 7 2 16 -1 19 -3 4 -6 -2 -5 -13z"/>
<path d="M208 1500 c-7 -24 -3 -38 8 -28 3 4 4 17 2 30 l-3 23 -7 -25z"/>
<path d="M1567 739 c4 -13 8 -18 11 -10 2 7 -1 18 -6 23 -8 8 -9 4 -5 -13z"/>
<path d="M3744 242 c-27 -4 -34 -35 -34 -153 l0 -89 71 0 c63 0 71 2 67 18 -3
9 -18 63 -33 119 -15 56 -33 103 -39 105 -6 2 -21 2 -32 0z"/>
<path d="M997 93 c-28 -5 -40 -19 -51 -65 l-6 -28 60 0 60 0 0 50 c0 54 2 53
-63 43z"/>
</g>
</svg>
