<?xml version="1.0" standalone="no"?>
<!DOCTYPE svg PUBLIC "-//W3C//DTD SVG 20010904//EN"
 "http://www.w3.org/TR/2001/REC-SVG-20010904/DTD/svg10.dtd">
<svg version="1.0" xmlns="http://www.w3.org/2000/svg"
 width="480.000000pt" height="360.000000pt" viewBox="0 0 480.000000 360.000000"
 preserveAspectRatio="xMidYMid meet">
<metadata>
Created by potrace 1.16, written by Peter Selinger 2001-2019
</metadata>
<rect width="1" height="360" fill="#000000"/>
<rect x="479" width="1" height="360" fill="#000000"/>
<rect width="480" height="1" fill="#000000"/>
<rect y="359" width="480" height="1" fill="#000000"/>
<g transform="translate(0.000000,360.000000) scale(0.100000,-0.100000)"
fill="#000000" stroke="none">
<path d="M0 1800 l0 -1800 174 0 174 0 30 73 c43 104 85 249 75 256 -5 3 -18
20 -28 38 -16 27 -16 35 -5 62 10 24 10 34 1 45 -10 12 -5 20 28 41 45 30 64
72 65 146 1 33 -5 53 -18 68 -18 20 -18 21 -1 21 15 0 17 7 13 44 -6 50 4 66
42 66 24 0 28 7 59 104 18 58 46 126 62 152 22 33 27 50 20 57 -6 6 -11 26
-11 44 l0 33 -42 -6 c-24 -3 -68 -1 -98 4 -63 12 -65 10 -75 -57 -10 -73 -25
-111 -43 -111 -22 0 -40 29 -48 78 -8 50 7 77 55 101 l38 20 7 153 c11 237 35
473 62 608 l7 35 -22 -23 -23 -23 -71 39 c-113 61 -137 76 -137 85 0 4 23 22
51 39 36 23 52 40 56 60 8 39 47 68 93 68 30 0 41 6 55 26 16 25 16 28 -4 55
-72 98 -66 366 13 529 43 90 166 212 265 264 120 63 175 75 401 91 113 9 212
17 220 20 8 3 35 38 59 78 43 69 128 177 141 177 14 0 94 -149 161 -300 12
-28 35 -56 60 -74 78 -55 166 -191 203 -316 9 -30 21 -93 27 -140 12 -106 25
-123 91 -118 l47 3 7 -68 c4 -38 13 -75 21 -82 12 -12 12 -18 -1 -42 -9 -18
-12 -45 -9 -73 8 -81 -41 -108 -70 -38 -13 31 -14 29 -11 -44 3 -80 17 -145
40 -190 8 -16 11 -28 6 -28 -12 0 -52 44 -52 58 0 27 -19 18 -44 -20 -16 -25
-24 -48 -21 -60 4 -10 31 -45 61 -77 30 -32 54 -62 54 -65 0 -4 -17 2 -39 13
l-38 20 13 -66 c9 -40 38 -111 74 -181 33 -64 58 -117 57 -119 -2 -2 -39 17
-82 42 -67 38 -82 43 -96 32 -10 -6 -43 -32 -75 -57 -67 -53 -131 -66 -201
-41 -38 13 -45 13 -82 -4 -23 -10 -41 -24 -41 -31 0 -8 -8 -13 -17 -12 -71 6
-67 -18 8 -44 96 -34 242 -80 326 -104 87 -24 175 -79 189 -119 4 -11 8 -54 9
-95 1 -47 9 -90 20 -115 10 -22 28 -78 40 -125 l21 -85 41 3 c49 4 59 -8 40
-45 -24 -46 -51 -153 -41 -162 5 -5 24 -11 43 -15 29 -5 33 -4 28 13 -7 28 7
30 124 20 57 -4 110 -8 117 -9 6 0 12 9 12 21 0 20 3 21 60 14 34 -4 89 -13
123 -20 58 -12 63 -12 78 7 15 19 16 19 115 -7 54 -15 106 -29 115 -32 9 -3
19 3 22 11 9 23 20 21 134 -23 84 -32 104 -36 113 -25 14 16 33 9 143 -47 63
-33 81 -38 93 -29 11 10 31 2 102 -43 58 -37 95 -54 108 -51 14 4 38 -12 86
-55 36 -34 75 -61 85 -61 11 0 44 -28 77 -65 31 -36 63 -65 69 -65 12 -1 70
-80 82 -112 7 -17 29 -18 271 -18 l264 0 0 1800 0 1800 -2400 0 -2400 0 0
-1800z m3350 1611 c0 -14 -28 -33 -39 -27 -16 10 -1 36 20 36 10 0 19 -4 19
-9z m397 -877 c-3 -3 -12 -4 -19 -1 -8 3 -5 6 6 6 11 1 17 -2 13 -5z m933 -33
c0 -32 -23 -47 -40 -26 -8 10 -8 19 0 34 16 31 40 26 40 -8z m-1350 -270 c0
-5 -7 -14 -15 -21 -12 -10 -15 -10 -15 2 0 8 3 18 7 21 9 10 23 9 23 -2z m-30
-152 c0 -7 -15 -44 -34 -83 -28 -58 -43 -76 -76 -95 -52 -29 -70 -18 -52 32 7
18 12 41 12 50 0 9 5 17 11 17 6 0 34 20 62 45 51 44 77 56 77 34z m590 -944
c-7 -8 -16 -12 -21 -9 -13 8 -1 24 18 24 13 0 13 -3 3 -15z m-298 -577 c-7 -7
-12 -8 -12 -2 0 14 12 26 19 19 2 -3 -1 -11 -7 -17z m246 -65 c-4 -22 -22 -20
-26 1 -2 10 3 16 13 16 10 0 15 -7 13 -17z"/>
<path d="M848 1409 c-10 -5 -18 -16 -18 -23 0 -11 9 -10 45 3 25 9 45 19 45
23 0 11 -52 9 -72 -3z"/>
<path d="M777 1364 c-15 -14 -40 -30 -56 -35 -16 -6 -31 -19 -34 -30 -3 -10
-3 -19 1 -19 14 0 104 65 113 82 16 30 6 30 -24 2z"/>
<path d="M1906 478 c8 -28 12 -33 20 -25 9 8 -6 47 -17 47 -6 0 -7 -10 -3 -22z"/>
</g>
</svg>
