<?xml version="1.0" standalone="no"?>
<!DOCTYPE svg PUBLIC "-//W3C//DTD SVG 20010904//EN"
 "http://www.w3.org/TR/2001/REC-SVG-20010904/DTD/svg10.dtd">
<svg version="1.0" xmlns="http://www.w3.org/2000/svg"
 width="480.000000pt" height="360.000000pt" viewBox="0 0 480.000000 360.000000"
 preserveAspectRatio="xMidYMid meet">
<metadata>
Created by potrace 1.16, written by Peter Selinger 2001-2019
</metadata>
<rect width="1" height="360" fill="#000000"/>
<rect x="479" width="1" height="360" fill="#000000"/>
<rect width="480" height="1" fill="#000000"/>
<rect y="359" width="480" height="1" fill="#000000"/>
<g transform="translate(0.000000,360.000000) scale(0.100000,-0.100000)"
fill="#000000" stroke="none">
<path d="M2820 2844 c-83 -22 -187 -90 -227 -148 -26 -38 -33 -58 -33 -97 l0
-48 -42 -11 c-94 -25 -114 -33 -142 -57 -17 -14 -25 -28 -19 -31 5 -4 33 -22
60 -40 l51 -33 -4 -82 c-3 -60 0 -89 11 -107 8 -14 20 -37 27 -52 7 -16 20
-28 29 -28 9 0 19 -7 23 -15 3 -9 18 -15 36 -15 26 0 30 -3 30 -28 0 -17 -10
-38 -25 -52 -32 -30 -31 -36 2 -52 15 -7 30 -25 33 -39 4 -14 26 -53 50 -88
l42 -62 44 7 c29 4 49 2 59 -6 8 -6 18 -10 22 -7 4 3 18 1 29 -3 16 -6 23 -20
29 -55 3 -26 3 -51 -2 -56 -4 -4 -28 -2 -53 5 -55 17 -217 46 -253 46 -16 0
-36 -11 -52 -27 -24 -27 -30 -28 -182 -39 -127 -10 -161 -10 -173 1 -8 7 -82
47 -165 90 -82 42 -194 102 -248 132 -58 33 -103 53 -113 49 -17 -7 -32 9 -91
97 -83 123 -269 277 -334 277 -24 0 -29 -4 -29 -25 0 -20 -5 -25 -24 -25 -34
0 -43 -20 -18 -40 18 -15 19 -19 6 -32 -14 -14 -13 -18 11 -36 14 -11 31 -23
38 -25 8 -3 6 -10 -7 -19 -19 -15 -19 -16 5 -30 13 -9 39 -18 58 -22 51 -9 93
-46 125 -110 19 -37 52 -77 97 -117 l69 -61 -17 -29 c-9 -15 -15 -30 -12 -33
2 -2 42 -23 89 -46 47 -23 114 -61 150 -85 36 -23 89 -57 117 -75 50 -31 67
-60 44 -75 -5 -3 -17 -29 -27 -58 -9 -28 -22 -59 -28 -67 -7 -8 -19 -32 -29
-53 l-17 -38 41 -44 c23 -25 48 -45 55 -45 10 0 14 -13 14 -39 0 -23 6 -44 16
-52 9 -7 13 -21 10 -33 -7 -30 9 -51 40 -51 21 0 28 -7 38 -35 9 -29 18 -36
56 -46 147 -40 243 -71 305 -97 261 -110 294 -112 394 -19 36 33 70 52 96 52
21 0 53 -65 66 -132 12 -69 53 -184 82 -236 23 -39 17 -87 -19 -149 -24 -41
-94 -216 -94 -234 0 -5 242 -9 595 -9 327 0 595 3 595 7 0 4 -20 49 -45 100
-34 70 -64 113 -116 168 -79 83 -81 77 27 90 83 9 164 33 250 75 64 31 95 54
142 105 65 71 89 123 98 215 16 153 -48 284 -254 518 -31 36 -71 82 -88 101
-17 20 -80 107 -140 195 -168 246 -291 355 -420 373 -31 4 -49 12 -58 27 -7
12 -34 56 -59 99 -46 75 -47 80 -47 158 0 51 5 90 15 108 44 86 34 175 -30
279 -69 113 -145 163 -330 216 -100 29 -173 32 -255 10z m-340 -1528 c125 -1
228 -5 232 -10 3 -5 -21 -42 -55 -83 -73 -86 -60 -85 -266 -23 -184 56 -201
64 -201 93 0 32 8 38 39 30 14 -3 127 -7 251 -7z"/>
</g>
</svg>
