<?xml version="1.0" standalone="no"?>
<!DOCTYPE svg PUBLIC "-//W3C//DTD SVG 20010904//EN"
 "http://www.w3.org/TR/2001/REC-SVG-20010904/DTD/svg10.dtd">
<svg version="1.0" xmlns="http://www.w3.org/2000/svg"
 width="480.000000pt" height="360.000000pt" viewBox="0 0 480.000000 360.000000"
 preserveAspectRatio="xMidYMid meet">
<metadata>
Created by potrace 1.16, written by Peter Selinger 2001-2019
</metadata>
<rect width="1" height="360" fill="#000000"/>
<rect x="479" width="1" height="360" fill="#000000"/>
<rect width="480" height="1" fill="#000000"/>
<rect y="359" width="480" height="1" fill="#000000"/>
<g transform="translate(0.000000,360.000000) scale(0.100000,-0.100000)"
fill="#000000" stroke="none">
<path d="M0 1800 l0 -1800 2400 0 2400 0 0 1800 0 1800 -2400 0 -2400 0 0
-1800z m2612 830 c51 -34 95 -66 96 -71 7 -18 -52 -8 -110 18 -35 15 -62 22
-67 17 -5 -5 -12 -28 -16 -50 l-6 -41 78 -32 c43 -17 89 -40 102 -50 20 -15
22 -21 12 -39 -11 -20 -8 -23 29 -38 22 -9 40 -20 40 -25 0 -5 6 -9 13 -9 6 0
17 -11 24 -25 9 -20 8 -25 -3 -25 -11 0 -12 -5 -5 -18 11 -20 -1 -23 -76 -23
-42 0 -55 -10 -31 -25 7 -5 9 -2 4 7 -4 8 1 4 12 -9 14 -15 23 -44 27 -87 7
-64 8 -65 44 -74 61 -17 123 -29 184 -36 49 -5 57 -9 57 -27 0 -19 -4 -20 -42
-14 -24 4 -63 9 -88 12 l-45 6 44 -27 43 -27 152 26 c170 29 220 31 311 14 46
-8 62 -15 58 -25 -3 -7 2 -13 12 -13 9 0 13 -5 10 -11 -8 -12 23 -49 42 -49 7
0 13 -7 13 -15 0 -9 6 -12 16 -8 9 3 21 -3 30 -16 8 -11 22 -21 30 -21 8 0 14
-4 14 -10 0 -5 -4 -10 -10 -10 -5 0 -10 -9 -10 -20 0 -11 5 -20 10 -20 13 0
13 -47 -1 -55 -6 -4 -8 -13 -5 -21 3 -8 -1 -14 -10 -14 -8 0 -13 -4 -10 -9 9
-14 -22 -21 -50 -11 -33 13 -34 13 -34 -4 0 -8 -18 -23 -39 -33 -34 -17 -37
-21 -22 -31 13 -9 9 -10 -19 -5 -19 3 -44 12 -55 20 -35 23 -40 14 -9 -19 32
-35 19 -29 -42 18 -42 32 -60 36 -298 79 -48 9 -105 24 -125 34 -36 19 -36 19
-71 -6 -22 -15 -46 -23 -64 -21 -28 3 -29 1 -30 -41 -1 -59 -25 -75 -60 -42
l-25 24 -12 -27 c-25 -55 -59 -19 -59 62 0 49 -1 50 -37 59 -21 5 -65 6 -98 2
-83 -10 -148 -10 -164 0 -7 5 -13 21 -13 35 0 41 11 38 -243 55 -88 6 -179 13
-202 16 -24 4 -43 4 -43 1 0 -3 19 -10 43 -16 70 -18 71 -19 57 -34 -12 -15
-1 -26 63 -58 24 -12 26 -16 14 -32 -13 -18 -15 -17 -54 7 -125 79 -283 145
-283 118 0 -6 -6 -11 -14 -11 -8 0 -16 -6 -19 -12 -5 -17 -36 8 -47 38 -7 17
-20 23 -70 28 -80 9 -88 13 -106 48 -26 51 -14 53 193 30 103 -12 284 -29 401
-38 l213 -18 24 25 c13 13 46 64 73 114 39 70 47 92 37 100 -7 5 -20 43 -30
82 -16 67 -20 74 -48 81 -17 4 -40 20 -51 36 l-21 28 33 29 c50 45 92 35 92
-24 0 -28 38 -107 53 -107 4 0 7 7 7 15 0 8 9 29 19 46 24 39 11 83 -21 73
-20 -6 -63 38 -63 66 0 8 -9 16 -19 18 -11 3 -36 14 -55 27 -20 12 -47 25 -60
30 -30 9 -91 69 -91 90 0 11 10 15 36 15 l37 0 -27 26 c-30 31 -31 37 -11 54
12 10 19 10 27 2 7 -7 32 -12 55 -12 l44 0 -7 -36 -7 -36 42 5 c29 3 47 12 63
32 41 53 76 67 155 62 69 -4 76 -6 165 -67z"/>
<path d="M2616 2201 c-3 -5 -16 -7 -28 -3 -17 4 -20 2 -15 -12 4 -10 10 -29
13 -42 9 -34 29 -30 54 13 17 29 18 38 8 44 -17 11 -26 11 -32 0z"/>
<path d="M2357 2047 c-13 -29 -38 -73 -56 -97 -29 -40 -41 -80 -23 -80 12 0
105 65 135 95 15 15 27 34 27 42 0 12 -48 93 -56 93 -1 0 -13 -24 -27 -53z"/>
<path d="M2726 1982 c-13 -12 -4 -22 37 -46 40 -23 107 -43 107 -33 0 9 -138
85 -144 79z"/>
</g>
</svg>
