<?xml version="1.0" standalone="no"?>
<!DOCTYPE svg PUBLIC "-//W3C//DTD SVG 20010904//EN"
 "http://www.w3.org/TR/2001/REC-SVG-20010904/DTD/svg10.dtd">
<svg version="1.0" xmlns="http://www.w3.org/2000/svg"
 width="480.000000pt" height="360.000000pt" viewBox="0 0 480.000000 360.000000"
 preserveAspectRatio="xMidYMid meet">
<metadata>
Created by potrace 1.16, written by Peter Selinger 2001-2019
</metadata>
<rect width="1" height="360" fill="#000000"/>
<rect x="479" width="1" height="360" fill="#000000"/>
<rect width="480" height="1" fill="#000000"/>
<rect y="359" width="480" height="1" fill="#000000"/>
<g transform="translate(0.000000,360.000000) scale(0.100000,-0.100000)"
fill="#000000" stroke="none">
<path d="M0 1800 l0 -1800 830 0 c457 0 830 2 830 3 0 2 -26 60 -59 128 -167
354 -259 711 -305 1189 -57 590 -9 1076 166 1680 28 96 52 185 55 197 4 16 -6
31 -38 60 -23 21 -48 44 -56 51 -28 28 -7 107 31 117 12 4 35 14 53 23 29 15
39 14 135 -2 131 -23 336 -73 555 -136 282 -81 352 -109 408 -159 26 -24 68
-36 295 -89 337 -79 640 -147 755 -172 50 -10 196 -42 324 -70 129 -28 240
-49 246 -46 7 2 12 41 14 103 3 121 12 166 57 268 63 141 78 166 137 221 68
63 137 101 199 109 71 10 88 15 88 25 0 6 11 28 25 50 14 22 25 42 25 45 0 3
-1073 5 -2385 5 l-2385 0 0 -1800z"/>
<path d="M2550 2958 c-14 -5 -50 -8 -82 -5 l-56 5 -37 -97 c-106 -274 -211
-631 -249 -841 -37 -205 -56 -695 -37 -960 25 -357 60 -501 212 -881 l72 -179
1191 0 1192 0 22 30 c22 29 22 34 22 419 0 343 -2 391 -16 399 -33 19 -307
299 -331 339 -18 31 -24 57 -25 100 -1 121 47 202 244 408 l123 131 1 97 c1
53 -3 97 -7 97 -5 0 -9 8 -9 17 0 15 -2 16 -15 2 -9 -8 -18 -26 -20 -40 -3
-13 -9 -25 -15 -27 -5 -2 -10 -10 -10 -18 0 -8 -4 -14 -9 -14 -6 0 -11 19 -13
43 l-3 42 -35 -52 c-19 -29 -38 -53 -42 -53 -5 0 -5 25 -2 55 5 36 3 55 -4 55
-6 0 -12 -6 -15 -12 -2 -7 -2 -1 0 14 3 16 0 28 -6 28 -6 0 -11 18 -11 40 0
30 -3 38 -15 34 -19 -8 -29 33 -17 66 5 14 9 44 9 68 0 25 5 47 12 51 7 5 25
45 41 90 l29 82 -25 9 c-14 6 -28 10 -30 10 -3 0 -48 -39 -100 -87 -89 -82
-126 -111 -110 -84 16 26 -36 0 -76 -37 -30 -28 -35 -24 -16 11 10 20 10 21
-5 9 -9 -8 -20 -11 -25 -8 -13 8 -13 66 1 104 9 27 9 35 -2 41 -10 6 -11 22
-6 59 8 60 6 62 -110 87 -141 30 -850 194 -1018 234 -329 80 -539 131 -541
130 0 0 -12 -5 -26 -11z"/>
</g>
</svg>
