<?xml version="1.0" standalone="no"?>
<!DOCTYPE svg PUBLIC "-//W3C//DTD SVG 20010904//EN"
 "http://www.w3.org/TR/2001/REC-SVG-20010904/DTD/svg10.dtd">
<svg version="1.0" xmlns="http://www.w3.org/2000/svg"
 width="480.000000pt" height="360.000000pt" viewBox="0 0 480.000000 360.000000"
 preserveAspectRatio="xMidYMid meet">
<metadata>
Created by potrace 1.16, written by Peter Selinger 2001-2019
</metadata>
<rect width="1" height="360" fill="#000000"/>
<rect x="479" width="1" height="360" fill="#000000"/>
<rect width="480" height="1" fill="#000000"/>
<rect y="359" width="480" height="1" fill="#000000"/>
<g transform="translate(0.000000,360.000000) scale(0.100000,-0.100000)"
fill="#000000" stroke="none">
<path d="M0 991 l0 -991 264 0 265 0 -16 38 c-8 20 -39 92 -69 160 -30 68 -73
169 -95 225 -22 56 -53 129 -68 162 -47 99 -81 219 -88 305 -7 89 -2 82 -98
143 l-50 31 195 13 c231 14 281 22 735 113 172 35 379 13 540 -55 69 -29 69
-29 4 -114 -58 -76 -81 -132 -103 -261 -3 -19 -21 -65 -40 -102 -43 -82 -93
-238 -105 -322 -5 -35 -14 -74 -21 -86 -6 -11 -10 -26 -8 -32 5 -15 41 36 79
112 17 34 33 59 36 56 7 -7 -14 -156 -34 -231 -8 -33 -16 -71 -17 -85 -1 -14
-6 -35 -10 -47 l-7 -23 1112 0 1111 0 -6 87 c-3 49 -9 124 -11 168 l-5 80 26
-70 c15 -38 39 -88 54 -111 31 -44 109 -118 117 -111 2 3 -11 50 -30 104 -35
96 -89 271 -101 325 -4 16 -29 77 -56 136 -28 60 -50 119 -50 130 0 12 -14 65
-30 117 -24 73 -44 112 -85 167 -30 40 -55 77 -55 81 0 26 189 80 337 97 122
13 200 3 643 -85 89 -18 307 -35 443 -35 l97 0 0 259 0 259 -63 36 c-152 84
-315 116 -604 117 -218 1 -249 -1 -468 -38 -333 -55 -470 -104 -676 -240 l-97
-64 -43 20 c-92 41 -147 60 -239 83 -178 43 -350 24 -576 -66 -50 -20 -97 -36
-104 -36 -6 0 -49 24 -93 53 -192 124 -277 157 -571 217 -272 56 -466 73 -664
59 -120 -8 -267 -30 -303 -44 -13 -5 -19 6 -30 56 -14 64 -52 123 -62 98 -4
-10 -6 -10 -6 2 -1 9 -9 23 -18 30 -15 12 -16 12 -9 -6 34 -88 66 -188 62
-193 -11 -10 -48 33 -124 143 -41 60 -84 121 -94 134 -17 23 -18 -4 -18 -968z"/>
</g>
</svg>
