<?xml version="1.0" standalone="no"?>
<!DOCTYPE svg PUBLIC "-//W3C//DTD SVG 20010904//EN"
 "http://www.w3.org/TR/2001/REC-SVG-20010904/DTD/svg10.dtd">
<svg version="1.0" xmlns="http://www.w3.org/2000/svg"
 width="480.000000pt" height="360.000000pt" viewBox="0 0 480.000000 360.000000"
 preserveAspectRatio="xMidYMid meet">
<metadata>
Created by potrace 1.16, written by Peter Selinger 2001-2019
</metadata>
<rect width="1" height="360" fill="#000000"/>
<rect x="479" width="1" height="360" fill="#000000"/>
<rect width="480" height="1" fill="#000000"/>
<rect y="359" width="480" height="1" fill="#000000"/>
<g transform="translate(0.000000,360.000000) scale(0.100000,-0.100000)"
fill="#000000" stroke="none">
<path d="M765 3482 c-11 -2 -45 -19 -75 -37 -69 -42 -85 -78 -75 -171 5 -48 3
-64 -6 -64 -22 0 -117 -90 -164 -156 -54 -75 -88 -152 -106 -242 -17 -81 -4
-121 83 -252 56 -85 63 -92 66 -67 2 15 7 27 11 27 4 0 25 -18 46 -40 51 -52
63 -51 25 2 -16 22 -30 45 -30 50 0 19 53 -54 66 -90 11 -33 10 -39 -7 -58
-27 -28 -24 -39 16 -71 19 -15 35 -32 35 -38 1 -5 11 -32 24 -60 21 -44 24
-47 30 -27 11 32 19 27 41 -23 19 -42 35 -58 35 -35 0 6 11 3 24 -6 23 -14 28
-14 72 5 37 17 49 19 56 9 15 -24 8 -36 -39 -71 -27 -19 -59 -47 -73 -62 -14
-15 -43 -36 -65 -47 -63 -33 -126 -85 -159 -132 -17 -24 -44 -61 -61 -82 -27
-33 -30 -46 -31 -109 -2 -78 -25 -135 -48 -116 -24 20 -116 219 -136 295 -11
43 -27 94 -35 113 -11 26 -11 35 -2 38 7 2 68 6 137 9 184 9 270 18 270 27 0
15 -109 29 -285 34 -175 6 -182 7 -245 37 -36 17 -86 33 -112 36 l-48 5 0
-147 c0 -143 1 -147 20 -141 16 5 22 0 31 -22 6 -15 28 -50 49 -78 46 -60 60
-93 60 -145 0 -31 82 -293 129 -414 15 -37 3 -33 -75 27 -33 24 -78 54 -102
68 -29 15 -55 42 -78 78 l-34 55 0 -194 0 -195 154 -160 c212 -222 208 -216
195 -251 -5 -16 -28 -41 -49 -56 -44 -31 -51 -58 -25 -108 8 -16 13 -35 10
-42 -3 -7 -12 -76 -20 -153 -8 -77 -18 -161 -21 -187 l-7 -48 666 0 666 0 -21
37 c-12 21 -39 58 -60 82 -21 24 -36 46 -34 49 3 2 26 -3 52 -12 61 -21 77
-20 123 3 43 22 111 93 111 116 0 28 -32 65 -102 121 -67 52 -101 67 -181 79
-22 4 -41 13 -44 23 -15 37 79 377 133 484 30 60 31 98 2 125 -58 53 -101 31
-113 -58 -19 -141 -123 -446 -145 -423 -4 5 -18 38 -30 73 -19 55 -22 76 -16
145 7 88 44 314 53 329 3 5 26 7 50 4 34 -4 43 -2 39 9 -4 10 2 12 26 7 28 -5
31 -4 24 13 -12 30 -12 39 -1 37 6 -1 44 -5 85 -9 74 -7 75 -7 58 13 -30 33
-17 53 33 53 12 0 16 5 13 15 -5 12 2 15 32 15 53 0 72 13 54 35 -11 14 -10
17 8 21 13 4 19 11 15 21 -4 11 0 14 18 11 26 -3 36 -29 38 -95 1 -23 6 -45
11 -48 6 -3 10 -15 10 -26 0 -23 15 -25 24 -4 9 25 23 17 30 -17 4 -18 15 -44
25 -57 l18 -24 7 42 c3 22 10 41 14 41 4 0 16 -19 26 -42 l19 -43 11 28 c15
41 29 32 23 -16 -17 -119 -18 -176 -7 -196 9 -18 14 -20 26 -10 12 10 14 3 15
-42 0 -30 7 -76 14 -104 l12 -50 13 33 c7 18 14 31 16 29 2 -2 8 -36 14 -75
10 -76 27 -115 46 -108 7 3 13 -16 17 -51 3 -30 9 -58 12 -62 4 -3 24 14 46
39 l38 45 2 -50 c1 -50 15 -119 19 -100 1 6 6 -3 9 -20 l7 -30 19 38 c18 35
20 37 32 21 17 -24 17 -145 -1 -214 -8 -30 -12 -69 -9 -88 l6 -33 32 31 33 32
6 -54 c6 -47 25 -101 26 -72 0 7 9 14 20 17 16 4 20 0 20 -21 0 -14 2 -23 5
-20 3 3 28 68 55 144 27 77 49 129 49 117 1 -13 6 -23 11 -23 6 0 10 -10 10
-22 0 -13 4 -29 9 -36 7 -11 9 -10 15 3 9 26 26 7 26 -30 0 -48 29 -153 48
-176 22 -26 32 -24 58 9 l22 27 7 -27 7 -28 649 0 649 0 -19 48 c-75 187 -205
477 -327 730 -75 155 -93 202 -77 202 4 0 14 -9 21 -20 14 -22 37 -17 28 6
-10 26 9 14 26 -17 10 -17 22 -28 27 -25 5 3 14 -1 21 -9 23 -28 30 -15 30 53
1 72 4 72 42 2 15 -27 20 -29 38 -20 17 9 20 8 20 -7 1 -13 5 -10 16 11 l16
28 25 -38 c26 -37 26 -37 35 -15 l8 23 21 -26 c32 -41 42 -33 34 29 l-6 55 51
-52 52 -53 -6 43 c-7 46 -3 50 22 26 10 -11 17 -13 20 -6 2 7 25 -1 58 -19 30
-17 54 -29 54 -27 0 2 -9 21 -20 43 -19 36 -26 65 -16 65 2 0 28 -16 57 -35
87 -57 91 -46 18 52 -28 37 -65 83 -82 101 -34 36 -29 42 11 13 48 -33 106
-58 186 -80 43 -12 80 -20 82 -18 2 1 -48 37 -110 79 -114 77 -353 271 -378
307 -53 75 -628 589 -776 693 -86 60 -194 74 -421 53 -220 -21 -443 -21 -546
-1 -142 28 -322 98 -395 154 -19 15 -60 37 -90 50 -93 40 -90 40 -90 -11 0
-24 -7 -61 -15 -80 -18 -44 -108 -174 -111 -161 -1 5 -4 35 -7 67 l-4 59 29
-6 c34 -7 34 -5 4 47 -25 43 -50 127 -37 127 4 0 12 -5 19 -12 18 -18 15 -5
-22 90 -19 48 -57 150 -85 227 -60 168 -82 211 -178 335 -96 123 -164 180
-251 209 l-69 22 -12 50 c-9 33 -22 55 -39 68 -30 20 -195 59 -227 53z m828
-1307 c35 -73 23 -97 -101 -203 l-62 -54 0 44 c0 23 -3 61 -7 82 -7 42 -9 41
42 20 10 -4 15 0 15 10 0 9 4 16 9 16 5 0 12 8 14 18 3 9 6 1 7 -18 l2 -35 9
40 c4 22 8 72 9 110 l0 70 20 -25 c11 -14 30 -47 43 -75z m-255 -168 c9 -19
11 -19 11 -4 1 10 6 15 11 12 12 -8 13 -95 1 -114 -12 -18 -31 -5 -31 22 0 12
-9 42 -20 66 -24 53 -24 50 -1 44 10 -3 23 -14 29 -26z"/>
<path d="M0 1563 l0 -151 49 13 c27 7 54 16 60 19 25 16 9 61 -78 216 l-31 55
0 -152z"/>
</g>
</svg>
