<?xml version="1.0" standalone="no"?>
<!DOCTYPE svg PUBLIC "-//W3C//DTD SVG 20010904//EN"
 "http://www.w3.org/TR/2001/REC-SVG-20010904/DTD/svg10.dtd">
<svg version="1.0" xmlns="http://www.w3.org/2000/svg"
 width="480.000000pt" height="360.000000pt" viewBox="0 0 480.000000 360.000000"
 preserveAspectRatio="xMidYMid meet">
<metadata>
Created by potrace 1.16, written by Peter Selinger 2001-2019
</metadata>
<rect width="1" height="360" fill="#000000"/>
<rect x="479" width="1" height="360" fill="#000000"/>
<rect width="480" height="1" fill="#000000"/>
<rect y="359" width="480" height="1" fill="#000000"/>
<g transform="translate(0.000000,360.000000) scale(0.100000,-0.100000)"
fill="#000000" stroke="none">
<path d="M0 1800 l0 -1800 938 0 939 0 12 41 c7 23 42 109 78 192 87 200 111
273 105 320 -3 29 0 43 16 57 15 14 23 41 31 107 6 48 16 117 22 152 6 41 7
67 0 74 -6 6 -4 23 4 48 8 22 11 40 7 40 -4 1 -11 2 -17 3 -5 0 -20 10 -32 21
-11 11 -33 28 -47 38 -15 10 -24 22 -21 28 4 5 2 9 -3 9 -5 0 -22 11 -38 25
-33 29 -47 31 -64 10 -15 -18 -86 -20 -97 -2 -4 6 -15 48 -24 92 -21 102 -18
109 110 236 94 95 159 138 253 168 30 10 39 19 48 49 40 129 74 178 145 208
19 7 37 19 41 25 4 8 3 9 -4 5 -16 -10 -16 26 0 42 7 7 13 20 14 30 0 9 1 32
2 50 2 33 22 46 22 14 0 -10 7 -27 15 -39 9 -12 14 -26 13 -30 -6 -19 48 -74
81 -83 63 -17 97 -46 143 -122 40 -65 48 -74 84 -81 158 -33 305 -97 381 -164
42 -38 43 -38 48 -123 6 -89 -3 -126 -26 -103 -10 10 -19 -1 -43 -50 -36 -72
-80 -107 -135 -106 -20 0 -30 3 -23 6 8 3 -8 16 -40 32 -52 27 -53 27 -84 9
-17 -10 -37 -29 -44 -43 -29 -54 -117 -103 -194 -107 -47 -3 -60 -20 -34 -46
9 -9 9 -17 -2 -36 -15 -29 -9 -67 20 -130 21 -46 27 -111 11 -120 -4 -3 -11
-26 -13 -51 -5 -42 -35 -85 -59 -85 -46 0 25 -257 126 -458 18 -37 39 -86 47
-110 l13 -42 1037 0 1038 0 0 1800 0 1800 -753 0 -752 0 -13 -77 c-27 -174
-152 -471 -254 -608 -58 -78 -242 -266 -358 -365 -154 -132 -198 -190 -226
-302 -9 -38 -20 -68 -24 -68 -4 0 -10 22 -13 49 -7 62 -37 120 -141 280 -319
487 -382 597 -429 747 -29 93 -57 239 -57 302 l0 42 -890 0 -890 0 0 -1800z"/>
<path d="M2468 1943 c7 -3 16 -2 19 1 4 3 -2 6 -13 5 -11 0 -14 -3 -6 -6z"/>
<path d="M3162 1468 c-18 -18 -15 -43 8 -69 l19 -24 1 47 c0 50 -9 65 -28 46z"/>
<path d="M3016 1329 c-40 -10 -116 -48 -116 -59 0 -10 109 -60 130 -60 29 0
85 54 97 94 l11 36 -41 -1 c-23 -1 -59 -5 -81 -10z"/>
<path d="M1848 1287 c-11 -9 -15 -22 -11 -42 11 -72 12 -75 41 -75 44 0 53 11
42 49 -10 37 -37 81 -48 81 -4 0 -14 -6 -24 -13z"/>
<path d="M2558 1214 c-13 -4 -15 -13 -11 -42 9 -60 19 -72 62 -72 54 0 99 18
149 58 30 24 40 38 33 45 -11 11 -203 20 -233 11z"/>
<path d="M2018 1202 c-14 -6 -12 -12 18 -44 67 -74 117 -86 121 -31 2 16 4 39
5 53 3 24 1 25 -62 27 -36 1 -73 -1 -82 -5z"/>
<path d="M2537 714 c-4 -4 -7 -17 -7 -28 1 -19 1 -20 11 -3 11 19 8 43 -4 31z"/>
</g>
</svg>
