<?xml version="1.0" standalone="no"?>
<!DOCTYPE svg PUBLIC "-//W3C//DTD SVG 20010904//EN"
 "http://www.w3.org/TR/2001/REC-SVG-20010904/DTD/svg10.dtd">
<svg version="1.0" xmlns="http://www.w3.org/2000/svg"
 width="480.000000pt" height="360.000000pt" viewBox="0 0 480.000000 360.000000"
 preserveAspectRatio="xMidYMid meet">
<metadata>
Created by potrace 1.16, written by Peter Selinger 2001-2019
</metadata>
<rect width="1" height="360" fill="#000000"/>
<rect x="479" width="1" height="360" fill="#000000"/>
<rect width="480" height="1" fill="#000000"/>
<rect y="359" width="480" height="1" fill="#000000"/>
<g transform="translate(0.000000,360.000000) scale(0.100000,-0.100000)"
fill="#000000" stroke="none">
<path d="M970 3595 c0 -3 32 -67 71 -143 l70 -137 14 -140 c19 -186 53 -491
66 -587 12 -94 5 -124 -49 -208 -23 -35 -53 -99 -68 -144 -15 -45 -50 -133
-77 -196 -36 -83 -58 -153 -79 -255 -16 -77 -43 -174 -59 -215 -35 -91 -35
-94 -5 -117 27 -21 58 -105 49 -131 -4 -9 -19 -35 -35 -56 -34 -48 -35 -60 -4
-52 31 8 39 -5 26 -38 -11 -30 1 -41 30 -26 15 8 20 8 21 -2 0 -7 7 1 14 17
16 34 19 15 6 -32 -11 -37 -5 -46 20 -32 14 7 19 6 19 -2 0 -28 29 15 35 52 6
37 25 65 25 37 0 -7 5 -29 10 -49 8 -28 17 -38 36 -42 l27 -5 -7 57 c-3 31 -9
68 -12 83 -5 22 -3 28 10 28 23 0 20 15 -12 52 -43 50 -56 87 -39 107 8 9 20
52 27 96 7 44 27 136 46 204 19 69 34 133 34 143 0 15 18 52 38 78 2 3 10 -4
18 -14 9 -14 12 -35 7 -77 -5 -46 -2 -64 14 -91 11 -18 18 -41 16 -50 -6 -25
66 -103 114 -124 78 -34 136 -12 244 93 65 63 67 65 138 74 40 5 85 16 100 25
27 16 35 16 132 0 94 -15 110 -16 167 -2 87 20 205 81 246 126 45 50 51 93 36
265 -14 148 -13 154 35 278 6 13 3 16 -9 11 -19 -7 -20 0 -6 27 36 66 -124
-75 -167 -148 -23 -40 -76 -93 -91 -93 -4 1 -20 11 -35 24 l-29 23 33 64 c32
65 40 86 64 174 36 137 27 226 -32 295 -34 40 -119 80 -168 80 -35 0 -38 14
-13 56 15 26 23 56 24 98 1 36 10 80 22 108 29 65 49 171 34 176 -7 2 -12 26
-12 61 0 31 -6 65 -14 76 -17 25 -26 74 -15 81 5 3 9 14 9 25 0 19 -12 19
-555 19 -305 0 -555 -2 -555 -5z"/>
<path d="M3907 2378 c-4 -673 -7 -1483 -7 -1800 l0 -578 450 0 450 0 0 1800 0
1800 -443 0 -444 0 -6 -1222z"/>
</g>
</svg>
