<?xml version="1.0" standalone="no"?>
<!DOCTYPE svg PUBLIC "-//W3C//DTD SVG 20010904//EN"
 "http://www.w3.org/TR/2001/REC-SVG-20010904/DTD/svg10.dtd">
<svg version="1.0" xmlns="http://www.w3.org/2000/svg"
 width="480.000000pt" height="360.000000pt" viewBox="0 0 480.000000 360.000000"
 preserveAspectRatio="xMidYMid meet">
<metadata>
Created by potrace 1.16, written by Peter Selinger 2001-2019
</metadata>
<rect width="1" height="360" fill="#000000"/>
<rect x="479" width="1" height="360" fill="#000000"/>
<rect width="480" height="1" fill="#000000"/>
<rect y="359" width="480" height="1" fill="#000000"/>
<g transform="translate(0.000000,360.000000) scale(0.100000,-0.100000)"
fill="#000000" stroke="none">
<path d="M0 1800 l0 -1800 944 0 944 0 6 33 c4 17 20 105 36 194 l28 161 -23
59 c-39 98 -41 148 -6 219 16 33 36 85 45 115 8 30 26 65 40 78 24 22 150 60
204 61 20 0 42 31 42 59 0 4 -38 33 -85 65 -47 32 -90 67 -96 79 -15 27 -4
100 22 147 l22 38 -26 33 c-13 19 -41 67 -62 107 -44 87 -43 117 11 187 37 49
38 71 7 107 -10 11 -13 26 -9 43 6 24 -26 115 -40 115 -4 0 -4 -6 -1 -13 3 -8
2 -20 -3 -27 -6 -9 -12 -5 -23 15 l-14 29 -8 -25 c-8 -23 -8 -23 -16 -4 -4 11
-8 34 -8 52 -1 17 -6 33 -12 35 -9 3 -8 10 1 28 15 28 24 203 10 180 -15 -24
-13 8 5 66 14 47 14 49 -9 74 -19 20 -23 35 -21 71 3 59 8 66 55 79 42 11 50
29 25 50 -25 21 -17 46 25 84 43 39 88 48 110 21 22 -27 47 -17 72 27 29 53
61 66 117 49 29 -8 41 -17 41 -31 0 -31 19 -34 41 -6 11 14 29 26 39 26 18 0
70 -53 70 -72 0 -6 16 -8 44 -4 38 6 48 3 75 -19 34 -29 38 -50 20 -121 -11
-41 -10 -48 10 -75 l22 -30 -21 -34 c-21 -34 -21 -37 -6 -98 8 -34 18 -80 22
-102 l7 -40 -22 19 -22 20 7 -60 c4 -32 10 -63 14 -69 4 -5 15 -27 23 -48 16
-36 16 -37 -4 -27 -18 10 -19 9 -13 -14 7 -30 -2 -33 -28 -9 -17 15 -18 15
-18 -5 0 -11 -4 -24 -10 -27 -6 -3 -10 -1 -10 4 0 6 -4 11 -9 11 -5 0 -15 -26
-21 -57 -6 -32 -16 -73 -21 -91 -10 -32 -8 -36 73 -130 46 -53 94 -111 106
-129 33 -47 61 -136 69 -217 6 -70 7 -72 65 -132 48 -50 64 -61 88 -60 16 1
35 7 42 14 17 17 28 15 28 -5 0 -10 7 -31 15 -46 8 -15 12 -34 9 -41 -8 -22
23 -39 58 -32 43 8 78 -15 78 -53 0 -16 9 -36 21 -47 15 -14 20 -28 17 -59 -2
-30 4 -52 26 -88 25 -43 28 -55 23 -104 -4 -38 -13 -63 -28 -79 -28 -30 -98
-64 -131 -64 -22 0 -26 5 -32 46 -5 37 -1 55 20 96 29 57 27 86 -5 66 -17 -10
-23 -9 -40 6 -12 11 -29 16 -41 13 -13 -3 -23 1 -29 11 -8 17 -23 84 -25 112
-1 12 -13 14 -63 12 l-61 -4 1 51 c2 36 -3 54 -13 61 -24 15 -30 1 -30 -70 0
-53 -3 -69 -16 -74 -18 -7 -18 -12 14 -176 12 -58 28 -150 37 -205 8 -55 22
-136 31 -180 10 -52 13 -105 9 -152 l-6 -73 976 0 975 0 0 1800 0 1800 -2400
0 -2400 0 0 -1800z"/>
<path d="M2117 1730 c-4 -16 -1 -20 11 -18 19 4 23 29 6 35 -6 2 -14 -6 -17
-17z"/>
</g>
</svg>
