<?xml version="1.0" standalone="no"?>
<!DOCTYPE svg PUBLIC "-//W3C//DTD SVG 20010904//EN"
 "http://www.w3.org/TR/2001/REC-SVG-20010904/DTD/svg10.dtd">
<svg version="1.0" xmlns="http://www.w3.org/2000/svg"
 width="480.000000pt" height="360.000000pt" viewBox="0 0 480.000000 360.000000"
 preserveAspectRatio="xMidYMid meet">
<metadata>
Created by potrace 1.16, written by Peter Selinger 2001-2019
</metadata>
<rect width="1" height="360" fill="#000000"/>
<rect x="479" width="1" height="360" fill="#000000"/>
<rect width="480" height="1" fill="#000000"/>
<rect y="359" width="480" height="1" fill="#000000"/>
<g transform="translate(0.000000,360.000000) scale(0.100000,-0.100000)"
fill="#000000" stroke="none">
<path d="M373 3573 c-15 -59 0 -512 23 -698 5 -43 3 -51 -14 -60 -59 -30 -131
-78 -135 -89 -6 -15 18 -190 28 -206 8 -14 34 12 28 27 -3 7 0 13 6 13 6 0 16
20 22 45 6 24 18 50 25 56 13 10 14 6 8 -27 -6 -38 -2 -44 60 -121 36 -44 66
-85 66 -90 0 -5 -9 -18 -20 -28 -11 -10 -22 -32 -26 -49 -3 -21 -17 -40 -39
-54 -38 -26 -126 -62 -153 -62 -12 0 -18 -7 -17 -18 2 -28 15 -42 40 -42 13 0
37 -13 53 -30 32 -32 76 -39 113 -19 18 9 28 2 81 -56 77 -84 126 -111 174
-95 34 11 64 51 64 85 0 8 9 24 20 35 27 27 26 30 -14 30 -38 0 -46 14 -46 86
0 41 0 42 95 104 52 34 95 66 95 71 0 4 -7 15 -17 24 -15 16 -56 17 -103 4
-12 -3 -14 4 -12 29 4 49 27 87 72 119 22 15 38 34 35 40 -2 7 13 39 35 70 21
32 42 69 45 82 6 21 4 23 -14 18 -25 -6 -26 -4 -4 30 17 26 17 26 -6 20 -21
-5 -22 -4 -8 11 14 16 12 17 -31 19 -25 1 -59 -5 -75 -14 -29 -14 -30 -14 -24
6 3 12 1 21 -4 21 -5 0 -9 -9 -9 -20 0 -31 -18 -24 -25 10 -4 17 -16 35 -27
41 -18 10 -19 8 -13 -11 7 -22 -32 -129 -47 -130 -4 0 -4 10 1 23 4 12 6 27 4
34 -2 6 3 28 12 48 11 28 12 41 4 51 -29 36 53 177 187 321 115 125 158 187
150 218 -3 12 1 36 9 51 14 28 14 29 -15 37 -17 4 -30 12 -30 18 0 5 -27 9
-62 9 -138 -1 -151 0 -185 20 -31 18 -52 20 -203 20 l-170 0 -7 -27z"/>
<path d="M2400 1800 l0 -1800 808 0 807 0 17 43 c27 66 46 154 63 278 8 63 24
142 34 175 18 53 19 104 3 104 -3 0 -25 -11 -49 -25 -61 -36 -117 -55 -134
-45 -9 6 -15 34 -17 84 -4 72 -5 75 -24 65 -29 -16 -31 -7 -8 46 11 26 18 50
15 53 -2 3 -12 -12 -21 -34 -16 -38 -17 -38 -25 -15 -6 16 -5 29 3 40 7 9 -5
0 -25 -18 -20 -19 -37 -30 -37 -24 0 7 5 15 10 18 8 5 7 11 -1 21 -9 11 -9 17
0 28 10 12 8 13 -9 9 -14 -4 -19 -1 -16 8 75 235 74 233 189 334 75 66 136
153 122 175 -3 5 21 37 55 70 33 34 60 66 60 70 0 12 50 46 77 53 13 3 26 1
29 -5 4 -5 21 -7 41 -3 47 8 87 -17 80 -51 -2 -14 6 -44 19 -71 13 -25 24 -56
24 -68 0 -25 -24 -49 -57 -59 -13 -4 -23 -13 -23 -19 0 -7 -18 -25 -40 -41
-39 -29 -50 -46 -31 -46 29 0 131 -138 131 -178 0 -43 41 -112 66 -112 35 0
49 25 36 66 -12 40 -6 68 14 60 7 -3 15 0 17 7 6 16 37 -56 37 -85 0 -13 7
-43 16 -68 19 -55 12 -109 -21 -165 -31 -52 -89 -108 -142 -135 -24 -12 -43
-26 -43 -31 0 -6 27 -92 60 -193 33 -102 62 -212 66 -249 l7 -67 108 0 109 0
0 1800 0 1800 -1200 0 -1200 0 0 -1800z"/>
<path d="M4261 944 c0 -11 3 -14 6 -6 3 7 2 16 -1 19 -3 4 -6 -2 -5 -13z"/>
<path d="M4241 889 c-6 -18 -11 -46 -11 -62 0 -53 25 -13 27 43 1 28 0 50 -2
50 -2 0 -8 -14 -14 -31z"/>
</g>
</svg>
