<?xml version="1.0" standalone="no"?>
<!DOCTYPE svg PUBLIC "-//W3C//DTD SVG 20010904//EN"
 "http://www.w3.org/TR/2001/REC-SVG-20010904/DTD/svg10.dtd">
<svg version="1.0" xmlns="http://www.w3.org/2000/svg"
 width="480.000000pt" height="360.000000pt" viewBox="0 0 480.000000 360.000000"
 preserveAspectRatio="xMidYMid meet">
<metadata>
Created by potrace 1.16, written by Peter Selinger 2001-2019
</metadata>
<rect width="1" height="360" fill="#000000"/>
<rect x="479" width="1" height="360" fill="#000000"/>
<rect width="480" height="1" fill="#000000"/>
<rect y="359" width="480" height="1" fill="#000000"/>
<g transform="translate(0.000000,360.000000) scale(0.100000,-0.100000)"
fill="#000000" stroke="none">
<path d="M0 1800 l0 -1800 140 0 140 0 1 33 c1 59 9 118 19 137 5 9 7 33 5 52
-4 29 -1 37 17 45 17 7 21 19 23 64 1 30 5 64 9 77 8 25 53 52 86 52 12 0 35
7 52 16 17 9 39 14 49 11 16 -4 18 -1 13 21 -4 15 -13 39 -20 54 -20 39 -17
68 10 122 l24 47 -32 13 c-66 28 -116 99 -116 168 0 10 -11 25 -25 34 -19 12
-23 22 -19 39 3 13 -6 61 -22 109 -21 66 -24 89 -15 99 9 11 8 17 -4 27 -19
16 -19 44 0 60 8 7 15 17 15 22 0 6 11 33 25 60 14 28 23 58 20 67 -3 11 9 34
31 60 20 23 38 55 40 69 1 15 11 33 21 40 64 45 126 85 175 114 32 18 58 37
58 41 0 5 -7 24 -16 43 -12 25 -14 45 -9 72 10 46 11 107 2 194 -4 47 -2 75 7
93 7 13 15 22 18 19 3 -3 12 14 20 38 9 26 24 48 38 55 13 6 37 25 52 42 22
24 38 31 65 31 26 0 48 9 77 33 23 18 57 43 76 55 19 12 51 38 70 58 59 62
113 77 206 60 35 -6 49 -2 109 29 63 34 207 71 227 59 4 -3 14 9 23 27 16 29
15 32 -3 53 -20 21 -20 23 -3 111 24 120 27 127 60 150 44 31 100 103 106 138
4 18 24 52 45 77 l38 45 89 2 c48 1 113 -2 143 -6 37 -6 70 -5 105 4 98 25
126 27 144 12 9 -8 47 -24 84 -37 83 -27 115 -53 147 -119 27 -54 34 -59 93
-63 28 -2 37 -6 35 -18 -4 -23 48 -106 83 -131 29 -20 30 -24 24 -68 -5 -36
-3 -50 9 -60 22 -19 31 -96 16 -142 -12 -35 -11 -41 5 -53 16 -11 24 -10 60
13 41 25 42 27 38 76 -3 51 0 52 11 3 7 -33 26 -29 44 10 18 38 79 108 88 99
8 -7 -75 -124 -121 -170 l-30 -30 40 6 c22 4 51 10 65 13 18 4 21 3 10 -4 -8
-5 -44 -15 -80 -22 -73 -15 -82 -23 -69 -58 9 -24 -8 -67 -67 -169 -16 -28
-17 -36 -6 -54 10 -16 10 -24 1 -35 -9 -11 -8 -14 5 -14 9 0 16 6 16 13 0 8 4
7 10 -3 5 -8 10 -10 10 -5 0 6 7 2 15 -9 13 -17 17 -16 70 30 52 46 55 52 55
94 -1 25 6 72 14 105 l16 60 -6 -55 c-3 -30 -8 -72 -11 -92 -6 -47 12 -51 44
-10 12 15 31 38 42 52 11 14 20 20 21 14 0 -5 -20 -34 -45 -63 -25 -29 -43
-56 -40 -61 3 -4 -20 -29 -51 -55 -30 -26 -53 -49 -51 -51 2 -2 27 3 57 12 29
9 62 13 73 10 12 -3 27 0 34 6 8 6 16 8 20 4 4 -3 -2 -12 -12 -19 -10 -8 -15
-20 -13 -28 6 -16 188 160 188 183 0 7 14 28 31 47 16 19 27 41 24 48 -17 42
-17 48 0 28 16 -20 16 -20 35 5 11 14 29 37 41 53 11 15 18 34 15 42 -3 8 -1
25 4 37 l9 23 0 -22 c1 -31 17 -29 25 2 4 14 11 25 16 25 5 0 6 -7 3 -17 -4
-10 -2 -14 4 -10 14 9 24 -14 37 -82 6 -30 16 -56 23 -58 12 -4 76 56 104 98
10 13 20 21 25 16 4 -4 -3 -19 -17 -33 -19 -20 -21 -27 -10 -33 10 -7 9 -10
-8 -16 -12 -3 -41 -21 -64 -39 -24 -18 -64 -41 -90 -51 -26 -10 -47 -19 -47
-22 0 -2 44 -1 98 2 77 4 100 9 110 23 7 9 16 15 20 12 3 -3 17 11 31 30 22
32 23 29 5 -15 -4 -10 10 -6 48 12 67 33 130 55 136 48 5 -5 -60 -35 -77 -35
-5 0 -16 -6 -23 -13 -7 -6 -35 -21 -62 -32 -27 -11 -48 -24 -47 -29 4 -15 -22
-25 -49 -19 -38 7 -260 -26 -291 -44 -33 -19 -60 -110 -38 -124 16 -10 15 -11
-58 -55 -24 -14 -43 -30 -43 -35 0 -5 -13 -9 -29 -9 -16 0 -42 -5 -58 -12 -15
-6 -31 -11 -34 -10 -4 1 -5 -8 -2 -19 4 -14 11 -18 22 -13 24 10 71 17 71 10
0 -3 -21 -12 -47 -19 -57 -17 -68 -32 -59 -80 6 -33 9 -36 26 -27 28 15 25 6
-10 -28 -41 -42 -38 -59 5 -26 54 41 50 24 -5 -21 -48 -39 -66 -63 -55 -73 3
-3 18 4 33 16 15 12 38 27 52 33 14 6 43 19 66 29 23 10 62 22 89 25 46 7 172
80 167 98 -1 4 4 22 12 41 7 18 11 46 8 61 -3 19 -1 26 6 21 16 -10 27 61 14
90 -14 30 -5 59 13 44 7 -6 16 -22 19 -35 8 -30 22 -32 36 -6 13 26 13 31 -5
31 -8 0 -15 -5 -15 -12 0 -6 -3 -9 -6 -6 -7 7 25 58 36 58 4 0 12 -21 17 -47
4 -27 13 -47 18 -45 6 1 10 6 10 12 0 5 12 21 28 35 15 14 27 34 27 45 0 10 4
22 10 25 6 3 10 -5 10 -19 0 -13 -5 -26 -12 -28 -7 -3 -8 -10 -4 -17 6 -9 13
-6 26 14 10 15 19 22 22 15 2 -7 23 -2 61 15 32 14 56 22 53 17 -3 -5 -30 -20
-61 -33 -37 -16 -55 -29 -55 -42 0 -26 27 -32 67 -13 20 9 38 15 41 12 2 -3
-8 -11 -24 -17 l-29 -12 60 -19 c32 -10 65 -16 72 -14 7 3 13 1 13 -4 0 -13
-15 -13 -81 1 -66 14 -76 14 -114 -1 l-30 -12 25 -13 c24 -14 24 -14 -11 -8
-29 4 -45 -1 -78 -22 -22 -15 -41 -31 -41 -36 0 -14 64 -40 115 -46 28 -3 57
-9 65 -14 34 -18 -25 -22 -94 -5 -111 26 -142 22 -166 -16 -11 -19 -53 -54
-97 -81 l-78 -49 48 6 c27 3 70 16 95 28 68 32 70 32 37 4 -41 -35 -14 -33 52
4 68 39 75 38 28 -3 l-39 -34 45 -7 c24 -4 54 -9 67 -13 18 -4 22 -1 23 18 0
13 3 19 5 12 3 -6 20 2 42 23 47 43 65 44 26 2 -65 -71 -65 -71 -1 -63 40 5
57 4 57 -4 0 -6 -15 -11 -34 -11 -19 0 -38 -5 -41 -11 -4 -6 -13 -8 -21 -5
-10 4 -14 -2 -14 -19 0 -43 29 -35 133 33 20 14 40 22 43 19 3 -3 -10 -16 -30
-29 -20 -13 -34 -28 -32 -35 3 -6 -10 -14 -29 -17 -35 -7 -58 -36 -28 -36 9 0
25 -7 35 -16 17 -16 17 -18 0 -30 -9 -7 -21 -13 -27 -13 -5 0 -2 4 9 10 15 9
16 13 5 20 -22 14 -56 10 -63 -7 -14 -38 1 -73 19 -44 3 6 16 10 28 10 14 0 1
-11 -38 -30 -54 -27 -57 -30 -30 -30 17 0 37 -5 45 -10 11 -7 1 -9 -35 -9 -27
1 -63 -4 -78 -10 -16 -6 -41 -11 -57 -11 -17 0 -34 -7 -40 -17 -8 -14 -12 -15
-17 -5 -11 27 -52 33 -104 15 -52 -19 -64 -33 -27 -33 17 0 19 -3 10 -12 -16
-16 -15 -38 2 -38 7 0 40 12 72 26 67 30 65 22 -4 -16 -52 -28 -59 -43 -22
-48 14 -2 29 -8 35 -13 20 -20 51 -8 78 30 15 22 27 45 27 53 0 7 4 19 9 27 8
12 12 12 26 -2 15 -16 15 -19 -4 -46 -12 -16 -21 -33 -21 -38 0 -4 -12 -19
-26 -33 -67 -63 -94 -123 -41 -91 22 14 22 14 3 -7 -10 -12 -28 -25 -40 -28
-26 -8 -68 -35 -63 -40 9 -9 116 34 150 60 43 33 48 50 11 35 -15 -5 -29 -8
-31 -5 -8 8 163 56 243 68 87 12 107 24 135 80 25 50 54 66 69 38 6 -11 8 -25
5 -30 -3 -6 1 -7 10 -4 34 13 45 83 21 131 -8 15 -24 60 -36 98 -12 39 -29 78
-37 88 -14 15 -14 17 -1 17 19 0 68 -97 75 -150 3 -22 9 -43 14 -45 4 -3 22
22 39 56 31 62 31 62 15 108 -21 58 -31 103 -39 164 -7 59 9 54 18 -5 7 -50
45 -148 56 -148 4 0 10 10 13 23 6 22 5 42 -6 197 l-7 85 14 -83 c20 -119 32
-125 42 -23 4 34 10 64 15 66 12 8 8 -86 -6 -130 -8 -22 -18 -66 -24 -97 -6
-31 -20 -76 -31 -99 -12 -22 -19 -43 -17 -45 3 -3 21 3 41 13 26 13 36 25 36
43 1 23 2 24 14 7 13 -17 19 -15 92 29 44 26 87 54 97 62 10 9 17 11 17 4 0
-6 -33 -31 -73 -54 -117 -69 -121 -73 -113 -105 4 -15 10 -40 13 -55 3 -16 8
-28 12 -28 15 1 61 48 78 82 13 24 23 34 30 27 6 -6 21 21 43 78 18 49 35 82
38 75 2 -8 0 -24 -6 -35 -6 -12 -13 -37 -16 -55 -5 -31 -4 -31 44 28 28 33 62
63 76 66 13 4 31 19 40 35 18 36 20 36 19 3 -1 -18 -12 -32 -41 -49 -21 -13
-39 -27 -39 -32 0 -4 -10 -18 -23 -31 -13 -13 -22 -25 -20 -27 2 -2 32 9 67
26 78 37 102 34 32 -4 -28 -16 -51 -26 -51 -22 0 3 -6 0 -14 -7 -8 -7 -13 -14
-12 -15 5 -6 111 30 132 44 13 8 31 13 41 11 12 -2 -3 -14 -44 -35 -35 -17
-63 -27 -63 -23 0 5 -16 0 -35 -11 -37 -22 -49 -37 -14 -19 11 7 23 10 25 7 3
-2 -20 -17 -51 -33 l-56 -29 7 -40 c3 -22 7 -41 9 -43 1 -1 15 4 31 12 49 26
120 56 129 56 20 0 -15 -20 -88 -50 -70 -29 -78 -35 -74 -56 3 -20 -1 -24 -34
-29 -21 -4 -43 -13 -50 -21 -6 -8 -18 -14 -25 -14 -8 0 -14 -6 -14 -14 0 -8
-9 -18 -20 -21 -25 -8 -16 -25 13 -25 16 0 18 -3 8 -9 -7 -5 18 -6 60 -3 41 2
70 1 66 -4 -4 -5 -23 -7 -42 -5 -19 1 -60 -3 -91 -9 -56 -12 -56 -12 -51 -43
l5 -32 -11 28 c-8 20 -17 27 -30 23 -14 -3 -16 -2 -7 9 18 21 -2 25 -56 10
-41 -11 -44 -13 -19 -14 43 -2 14 -15 -65 -30 -97 -18 -138 -30 -173 -52 -18
-10 -37 -19 -44 -19 -7 0 -36 -11 -65 -24 -29 -13 -75 -33 -102 -45 -77 -33
-240 -160 -288 -223 -26 -34 -59 -53 -208 -122 -86 -39 -155 -101 -130 -116 8
-5 22 -10 31 -10 9 0 19 -7 23 -15 7 -18 -2 -18 -34 0 -32 18 -80 18 -104 0
-18 -13 -14 -41 5 -30 5 4 16 2 26 -3 13 -8 8 -11 -25 -17 -50 -8 -53 -21 -11
-39 25 -10 28 -14 14 -20 -9 -3 -25 -6 -36 -6 -11 0 -23 -8 -26 -17 -4 -10
-11 -21 -17 -25 -7 -5 -6 -32 2 -85 24 -152 41 -289 47 -375 l7 -88 874 0 874
0 0 1800 0 1800 -1659 0 c-1096 0 -1662 -3 -1666 -10 -3 -5 -13 -10 -21 -10
-8 0 -12 5 -9 10 4 7 -238 10 -719 10 l-726 0 0 -1800z m3655 1521 c-3 -6 -11
-8 -17 -5 -6 4 -5 9 3 15 16 10 23 4 14 -10z m-125 -156 c0 -8 -7 -15 -15 -15
-16 0 -20 12 -8 23 11 12 23 8 23 -8z m880 -425 c0 -12 -28 -25 -36 -17 -9 9
6 27 22 27 8 0 14 -5 14 -10z m-843 -82 c-3 -8 -6 -5 -6 6 -1 11 2 17 5 13 3
-3 4 -12 1 -19z m1016 -183 c1 -5 -6 -11 -15 -13 -11 -2 -18 3 -18 13 0 17 30
18 33 0z m-299 -11 c4 -9 3 -26 0 -38 -10 -31 -66 -98 -75 -89 -9 10 12 93 23
93 4 0 8 6 8 13 0 14 19 37 31 37 4 0 10 -7 13 -16z m-1064 -108 c0 -3 -4 -8
-10 -11 -5 -3 -10 -1 -10 4 0 6 5 11 10 11 6 0 10 -2 10 -4z m-2709 -115 c-7
-12 -16 -21 -21 -21 -14 0 -12 34 2 48 18 18 32 -2 19 -27z m2916 -6 c0 -15
-26 -30 -35 -20 -4 4 22 30 34 35 0 0 1 -7 1 -15z m418 -125 c8 -13 -5 -13
-25 0 -13 8 -13 10 2 10 9 0 20 -4 23 -10z m-3203 -62 c-15 -15 -26 -4 -18 18
5 13 9 15 18 6 9 -9 9 -15 0 -24z m-571 -61 c-13 -13 -26 -3 -16 12 3 6 11 8
17 5 6 -4 6 -10 -1 -17z m4649 -71 c0 -2 -7 -9 -15 -16 -13 -11 -14 -10 -9 4
5 14 24 23 24 12z m20 -66 c0 -4 -7 -11 -16 -14 -13 -5 -14 -4 -6 7 7 8 8 18
4 22 -4 5 -1 5 6 1 6 -4 12 -11 12 -16z m-84 -16 c-22 -8 -41 -12 -44 -9 -3 2
1 7 9 9 8 2 21 7 29 9 36 12 41 4 6 -9z m-836 -44 c0 -5 -4 -10 -10 -10 -5 0
-10 5 -10 10 0 6 5 10 10 10 6 0 10 -4 10 -10z m173 -97 c-7 -2 -19 -2 -25 0
-7 3 -2 5 12 5 14 0 19 -2 13 -5z m730 -759 c25 -19 48 -42 51 -49 8 -22 -22
-45 -58 -45 -46 0 -55 -14 -49 -74 5 -49 3 -54 -28 -85 -30 -30 -37 -33 -79
-29 -69 7 -120 60 -120 125 0 38 21 65 75 99 25 16 47 36 50 44 7 21 55 49 86
50 15 0 45 -15 72 -36z m-4418 -44 c23 -26 4 -26 -26 0 -18 15 -20 19 -8 20 9
0 24 -9 34 -20z"/>
<path d="M3534 2575 c-8 -13 -13 -29 -9 -34 3 -6 -10 -25 -29 -41 -19 -17 -38
-41 -42 -53 -4 -12 -21 -34 -38 -49 -42 -36 -16 -36 60 1 32 15 69 31 82 35
24 8 26 23 16 114 -7 58 -16 64 -40 27z"/>
<path d="M3309 2250 c-24 -25 -54 -57 -66 -72 -11 -14 -29 -31 -39 -36 -34
-19 -8 -22 37 -5 58 22 76 38 100 92 29 65 18 72 -32 21z"/>
<path d="M3075 2186 c-16 -7 -28 -17 -25 -22 3 -5 -5 -13 -17 -19 -13 -5 -23
-15 -23 -22 0 -17 27 -17 33 1 3 7 21 16 40 20 43 8 68 33 46 47 -17 11 -17
11 -54 -5z"/>
<path d="M3686 2178 c-17 -24 -21 -48 -8 -48 16 0 54 48 47 59 -10 17 -22 13
-39 -11z"/>
<path d="M3020 2160 c-9 -6 -10 -10 -3 -10 6 0 15 5 18 10 8 12 4 12 -15 0z"/>
<path d="M3575 2160 c-3 -5 -1 -10 4 -10 6 0 11 5 11 10 0 6 -2 10 -4 10 -3 0
-8 -4 -11 -10z"/>
<path d="M2935 2123 c-38 -20 -36 -18 -39 -38 -1 -9 -13 -24 -27 -33 -29 -20
-30 -27 -4 -70 l19 -32 58 57 c43 43 58 65 58 85 0 34 -19 36 -60 6 -16 -12
-32 -19 -36 -16 -3 3 14 18 38 32 47 28 42 35 -7 9z"/>
<path d="M3570 2100 c0 -34 11 -38 31 -13 11 13 11 17 1 20 -6 3 -10 9 -6 14
3 5 -2 9 -10 9 -11 0 -16 -9 -16 -30z"/>
<path d="M3094 2075 c-4 -8 -13 -15 -21 -15 -8 0 -20 -15 -28 -32 -8 -18 -35
-52 -60 -76 -53 -51 -61 -88 -17 -78 25 6 26 5 9 -8 -18 -14 -18 -15 0 -34 10
-10 27 -31 37 -46 10 -14 21 -24 24 -21 8 8 41 109 42 126 0 9 7 20 16 23 13
5 15 15 11 41 -3 19 -1 37 4 40 21 14 6 23 -28 19 l-38 -4 38 16 c28 13 37 23
37 40 0 27 -17 32 -26 9z"/>
<path d="M3281 1824 c-16 -13 -33 -24 -37 -24 -5 0 -26 -16 -46 -35 -21 -18
-38 -30 -38 -25 0 11 -44 -6 -83 -33 -28 -19 -34 -55 -8 -49 8 2 10 -4 6 -18
-3 -11 -2 -20 3 -20 12 0 29 -39 37 -84 4 -20 12 -36 17 -36 14 0 68 33 68 41
0 4 18 14 40 23 40 16 49 29 30 41 -5 3 -10 11 -10 18 0 6 11 0 25 -15 21 -22
30 -26 48 -19 13 5 29 6 35 2 16 -9 82 -1 82 10 0 5 13 9 30 9 20 0 41 12 69
38 22 21 42 34 44 28 5 -16 120 49 128 72 9 25 -12 57 -53 78 -24 13 -69 17
-195 19 -160 4 -164 3 -192 -21z m-157 -164 c-10 -16 -20 -27 -22 -25 -5 5 26
55 34 55 3 0 -3 -13 -12 -30z"/>
<path d="M3722 1809 c2 -7 10 -15 17 -17 8 -3 12 1 9 9 -2 7 -10 15 -17 17 -8
3 -12 -1 -9 -9z"/>
<path d="M4511 1706 c-9 -11 -6 -12 14 -8 14 2 22 8 19 13 -8 13 -20 11 -33
-5z"/>
<path d="M4223 1674 c-36 -15 -39 -26 -20 -67 12 -27 27 -36 27 -16 0 5 10 9
23 7 20 -3 22 2 25 45 3 52 -1 55 -55 31z"/>
<path d="M3730 1664 c-28 -15 -50 -42 -50 -61 0 -10 10 -8 40 7 30 16 40 26
40 45 0 14 -1 25 -2 24 -2 -1 -14 -7 -28 -15z"/>
<path d="M3620 1648 c-60 -23 -103 -52 -93 -62 3 -3 26 -6 50 -6 46 0 73 16
65 38 -2 7 2 10 10 7 7 -2 21 7 31 20 22 31 12 31 -63 3z"/>
<path d="M4472 1617 c-7 -18 -12 -46 -12 -62 l0 -28 25 23 c28 26 30 44 12 78
-13 22 -13 22 -25 -11z"/>
<path d="M4167 1603 c-3 -5 -8 -25 -12 -47 l-8 -38 27 23 c14 12 26 28 26 35
0 15 -27 37 -33 27z"/>
<path d="M4399 1586 c-38 -11 -79 -42 -79 -59 0 -5 8 -6 18 -2 9 4 23 9 30 12
6 3 12 0 12 -6 0 -6 -6 -11 -12 -11 -7 0 -24 -10 -38 -21 -15 -13 -18 -19 -8
-15 9 2 35 10 58 16 32 9 44 19 57 46 21 43 10 54 -38 40z"/>
<path d="M3341 1523 c-35 -13 -45 -13 -51 -2 -7 10 -14 10 -33 2 -22 -10 -24
-16 -18 -45 8 -37 24 -40 87 -13 27 11 35 20 32 33 -4 13 0 18 15 18 11 -1 22
5 24 12 6 15 -1 14 -56 -5z"/>
<path d="M4020 1488 c-22 -36 -25 -48 -11 -48 18 0 41 32 41 56 0 32 -6 30
-30 -8z"/>
<path d="M3398 1489 c-24 -13 -23 -25 3 -32 13 -3 22 0 26 9 8 22 -9 35 -29
23z"/>
<path d="M4205 1480 c-3 -6 1 -7 9 -4 18 7 21 14 7 14 -6 0 -13 -4 -16 -10z"/>
<path d="M3167 1469 c-21 -12 -13 -29 14 -29 11 0 17 5 14 10 -3 6 -1 10 4 10
6 0 11 5 11 10 0 13 -20 12 -43 -1z"/>
<path d="M4245 1450 c-3 -5 3 -10 14 -10 11 0 23 5 26 10 3 6 -3 10 -14 10
-11 0 -23 -4 -26 -10z"/>
<path d="M3258 1419 c-15 -8 -15 -14 -2 -63 8 -30 20 -66 28 -81 l14 -27 29
43 c15 24 30 46 34 49 3 3 11 14 18 25 11 18 11 18 5 -5 -4 -13 -15 -37 -25
-52 -48 -71 -54 -85 -51 -115 l3 -33 42 21 c54 28 165 108 171 125 3 7 -1 26
-9 41 -8 15 -15 33 -15 39 0 31 -151 59 -177 33 -7 -7 -17 -8 -30 -1 -11 6
-25 7 -35 1z"/>
<path d="M3137 1413 c-12 -12 -7 -25 7 -20 15 6 26 -20 26 -63 0 -14 8 -36 17
-50 12 -17 13 -25 5 -28 -18 -6 -14 -74 7 -101 13 -17 23 -22 39 -16 31 9 27
38 -8 73 -36 37 -38 46 -6 38 17 -4 26 -1 30 10 8 21 10 16 -24 59 -32 41 -39
68 -15 59 17 -7 19 4 6 25 -5 8 -16 11 -30 6 -12 -4 -28 -2 -35 4 -7 6 -16 8
-19 4z"/>
<path d="M4164 1396 c-50 -22 -49 -37 1 -20 44 16 69 34 43 34 -7 -1 -27 -7
-44 -14z"/>
<path d="M4001 1386 c-9 -11 -9 -16 -1 -21 13 -8 60 13 60 27 0 14 -47 9 -59
-6z"/>
<path d="M3532 1374 c4 -21 22 -23 26 -1 2 10 -3 17 -13 17 -10 0 -15 -6 -13
-16z"/>
<path d="M3936 1348 c-24 -33 -19 -40 14 -23 19 10 27 20 24 30 -8 21 -20 19
-38 -7z"/>
<path d="M3787 1346 c-20 -8 -56 -29 -80 -48 -51 -42 -118 -80 -172 -98 -81
-26 -195 -90 -195 -108 0 -10 -11 -33 -25 -52 -26 -35 -32 -74 -16 -99 13 -20
45 -5 124 57 33 26 85 66 116 89 31 23 72 58 91 77 19 20 66 48 105 64 112 47
122 53 134 78 6 13 17 24 26 24 8 0 15 7 15 15 0 19 -69 20 -123 1z"/>
<path d="M4150 1350 c-18 -12 -2 -12 25 0 13 6 15 9 5 9 -8 0 -22 -4 -30 -9z"/>
<path d="M3310 1084 c0 -8 5 -12 10 -9 6 3 10 10 10 16 0 5 -4 9 -10 9 -5 0
-10 -7 -10 -16z"/>
<path d="M3196 904 c-22 -22 -39 -54 -28 -54 5 0 15 7 22 15 7 8 18 15 24 15
6 0 17 9 24 20 11 17 10 20 -7 20 -11 0 -27 -7 -35 -16z"/>
<path d="M2660 589 c-29 -17 -46 -19 -102 -15 l-66 6 -24 -37 c-13 -20 -26
-41 -30 -47 -4 -6 -80 -10 -195 -11 -156 -1 -196 -5 -233 -19 -78 -31 -112
-31 -205 3 -73 26 -100 31 -179 31 -58 0 -110 6 -138 16 l-46 15 -54 -35 c-67
-45 -105 -53 -147 -31 -28 14 -40 14 -87 5 -57 -12 -104 -7 -104 10 0 5 -15
17 -32 26 -18 9 -39 25 -46 35 -20 29 -34 23 -27 -11 5 -21 0 -43 -16 -75 -19
-39 -21 -48 -10 -69 14 -25 3 -83 -15 -79 -5 1 -15 3 -23 5 -25 5 -49 -64 -61
-173 -6 -57 -13 -112 -16 -121 -5 -17 44 -18 935 -18 l941 0 0 83 c0 74 3 88
36 152 29 57 38 88 50 184 19 153 18 160 -8 170 -51 19 -64 19 -98 0z"/>
<path d="M796 535 c-8 -33 -3 -41 13 -21 9 10 9 21 3 32 -8 14 -10 12 -16 -11z"/>
<path d="M377 184 c-26 -25 -45 -83 -33 -102 3 -5 -4 -25 -14 -45 l-20 -37 60
0 c40 0 62 4 64 13 26 96 43 178 38 181 -4 2 -21 7 -38 10 -25 6 -35 2 -57
-20z"/>
</g>
</svg>
