<?xml version="1.0" standalone="no"?>
<!DOCTYPE svg PUBLIC "-//W3C//DTD SVG 20010904//EN"
 "http://www.w3.org/TR/2001/REC-SVG-20010904/DTD/svg10.dtd">
<svg version="1.0" xmlns="http://www.w3.org/2000/svg"
 width="480.000000pt" height="360.000000pt" viewBox="0 0 480.000000 360.000000"
 preserveAspectRatio="xMidYMid meet">
<metadata>
Created by potrace 1.16, written by Peter Selinger 2001-2019
</metadata>
<rect width="1" height="360" fill="#000000"/>
<rect x="479" width="1" height="360" fill="#000000"/>
<rect width="480" height="1" fill="#000000"/>
<rect y="359" width="480" height="1" fill="#000000"/>
<g transform="translate(0.000000,360.000000) scale(0.100000,-0.100000)"
fill="#000000" stroke="none">
<path d="M3291 3571 c-31 -25 -35 -35 -39 -89 -6 -81 24 -145 121 -267 68 -84
211 -229 349 -352 176 -157 215 -220 237 -382 15 -113 14 -203 -4 -348 -14
-111 -64 -316 -99 -403 -115 -285 -122 -317 -87 -362 44 -56 193 -110 411
-149 157 -29 413 -23 538 11 l82 23 0 860 c0 814 -1 859 -17 852 -10 -4 -65
-23 -122 -41 -218 -71 -471 -101 -590 -70 -75 19 -107 37 -216 122 -179 139
-263 253 -329 455 -18 54 -44 114 -57 134 -23 33 -26 35 -84 35 -51 -1 -65 -5
-94 -29z"/>
<path d="M287 3375 c-4 -9 -7 -28 -7 -41 0 -14 -7 -56 -16 -95 -12 -52 -24
-78 -49 -104 -39 -42 -68 -45 -149 -14 -31 12 -59 20 -61 17 -3 -3 -4 -463 -3
-1024 l3 -1019 60 60 c61 60 159 191 209 276 36 64 62 86 84 73 90 -56 273
-147 304 -152 70 -9 86 20 137 248 10 47 25 125 32 173 18 127 14 124 142 103
59 -10 115 -15 125 -12 30 10 42 67 31 144 -11 78 -43 202 -63 240 -8 17 -11
35 -6 48 8 19 99 84 119 84 4 0 27 14 49 30 68 49 62 63 -80 181 -68 56 -133
106 -145 112 -34 15 -36 41 -8 96 42 83 32 119 -40 150 -82 36 -201 72 -269
83 -65 10 -90 9 -170 -6 -52 -10 -103 -15 -114 -12 -23 8 -42 46 -42 84 0 35
26 137 45 179 19 40 19 77 0 93 -9 7 -37 15 -64 18 -39 3 -49 1 -54 -13z"/>
<path d="M4025 958 c-15 -12 -49 -56 -76 -97 -26 -42 -57 -88 -68 -103 l-21
-26 -57 15 c-66 17 -263 14 -323 -6 -41 -12 -70 -54 -70 -99 0 -16 7 -62 16
-101 21 -94 15 -117 -35 -131 -56 -15 -299 -114 -397 -162 -69 -33 -85 -45
-94 -72 -12 -36 -3 -76 31 -136 l23 -40 923 0 924 0 -3 249 -3 249 -48 93
c-26 52 -63 115 -82 142 -48 65 -69 63 -133 -10 -28 -32 -64 -66 -81 -76 -30
-18 -31 -18 -37 0 -17 53 -30 78 -52 105 -27 32 -285 228 -300 228 -5 0 -22
-10 -37 -22z"/>
<path d="M353 888 c-20 -26 -42 -96 -63 -202 -33 -158 -25 -291 24 -441 41
-125 45 -171 18 -179 -23 -8 -163 28 -210 53 -20 11 -56 29 -80 41 l-42 20 0
-90 0 -90 628 0 629 0 36 35 c67 65 123 200 207 502 42 147 42 153 26 178 -16
25 -20 26 -74 19 -95 -11 -302 -72 -388 -114 -155 -75 -234 -177 -295 -379
-26 -88 -34 -80 -43 44 -9 118 -30 214 -59 278 -29 62 -108 179 -157 233 -86
94 -134 122 -157 92z"/>
<path d="M1889 669 c-11 -21 5 -122 33 -204 6 -16 12 -86 15 -155 5 -111 3
-131 -16 -178 -12 -29 -21 -71 -21 -92 l0 -40 295 0 295 0 0 83 c0 92 -20 174
-53 220 -31 41 -92 70 -133 64 -68 -11 -135 -88 -150 -172 -13 -76 -32 -78
-82 -9 -67 92 -87 155 -112 359 -7 55 -17 110 -21 123 -11 28 -35 29 -50 1z"/>
</g>
</svg>
