<?xml version="1.0" standalone="no"?>
<!DOCTYPE svg PUBLIC "-//W3C//DTD SVG 20010904//EN"
 "http://www.w3.org/TR/2001/REC-SVG-20010904/DTD/svg10.dtd">
<svg version="1.0" xmlns="http://www.w3.org/2000/svg"
 width="480.000000pt" height="360.000000pt" viewBox="0 0 480.000000 360.000000"
 preserveAspectRatio="xMidYMid meet">
<metadata>
Created by potrace 1.16, written by Peter Selinger 2001-2019
</metadata>
<rect width="1" height="360" fill="#000000"/>
<rect x="479" width="1" height="360" fill="#000000"/>
<rect width="480" height="1" fill="#000000"/>
<rect y="359" width="480" height="1" fill="#000000"/>
<g transform="translate(0.000000,360.000000) scale(0.100000,-0.100000)"
fill="#000000" stroke="none">
<path d="M0 1800 l0 -1800 790 0 790 0 -6 28 c-18 81 -25 93 -80 123 -30 17
-54 34 -54 37 1 4 7 18 14 32 12 21 12 26 0 35 -12 8 -12 14 3 35 12 16 18 43
18 75 0 44 5 57 35 92 49 58 196 185 315 273 124 92 201 170 285 289 36 51
103 143 150 204 47 62 95 126 106 142 26 38 47 112 42 151 l-3 29 -90 5 c-143
9 -160 28 -68 73 32 15 69 42 83 60 36 46 35 168 -3 285 -50 155 -47 197 21
241 36 24 32 42 -6 22 -15 -8 -18 -6 -18 12 1 15 -5 22 -16 21 -10 -1 -18 1
-18 5 0 3 -15 13 -32 20 -45 20 -61 38 -55 61 4 15 0 20 -13 20 -35 0 -31 20
15 66 l46 46 -33 -7 c-18 -4 -38 -13 -44 -21 -20 -25 -25 -15 -9 17 9 16 24
33 33 36 9 3 37 21 62 39 41 29 61 54 148 187 27 41 122 109 178 127 76 25
205 -23 286 -106 54 -56 75 -100 84 -177 6 -53 5 -55 -32 -92 -21 -21 -40 -33
-41 -28 -5 14 -89 -32 -97 -52 -3 -8 -3 -21 0 -29 3 -7 -6 -20 -20 -29 -13 -9
-27 -26 -31 -37 -4 -11 -10 -18 -14 -15 -5 2 -16 -4 -26 -15 -11 -13 -25 -18
-37 -14 -10 3 -18 2 -18 -2 0 -10 49 -54 60 -54 15 0 80 -61 94 -89 8 -14 17
-42 21 -61 4 -19 23 -56 41 -83 59 -85 56 -135 -13 -249 -30 -52 -33 -63 -27
-104 7 -46 26 -66 112 -113 13 -7 26 -21 29 -30 2 -10 34 -35 69 -56 36 -21
72 -48 81 -61 8 -13 21 -24 28 -24 7 0 0 14 -16 31 -37 39 -31 48 14 20 48
-29 56 -26 22 9 -16 17 -24 30 -17 30 6 0 14 -4 17 -10 3 -5 16 -15 28 -22 21
-11 21 -10 7 8 -22 29 34 -22 103 -94 78 -80 110 -100 205 -123 148 -36 323
-136 623 -355 203 -148 235 -170 342 -236 54 -33 96 -62 94 -64 -5 -6 -104 32
-222 84 -49 22 -187 74 -305 117 -331 120 -502 206 -610 305 -30 28 -73 60
-95 70 -47 22 -142 39 -112 20 9 -6 17 -15 17 -20 0 -19 -70 -10 -158 20 -50
17 -97 30 -106 30 -8 0 -30 18 -48 41 -31 38 -84 76 -94 66 -2 -2 5 -51 16
-108 20 -106 37 -241 65 -539 9 -91 25 -232 36 -314 10 -81 19 -184 19 -227
l0 -79 920 0 920 0 0 1800 0 1800 -2223 0 c-1765 0 -2226 -3 -2236 -12 -11
-10 -14 -10 -18 0 -3 9 -46 12 -164 12 l-159 0 0 -1800z m700 1704 c0 -8 -4
-12 -10 -9 -5 3 -10 10 -10 16 0 5 5 9 10 9 6 0 10 -7 10 -16z m1660 -53 c0
-26 -10 -51 -21 -51 -10 0 -12 31 -3 54 9 22 24 20 24 -3z m148 -106 c16 -35
15 -87 -2 -111 -14 -18 -15 -18 -26 12 -6 18 -24 38 -43 47 l-32 17 33 -6 c27
-5 32 -3 32 14 0 26 10 52 19 52 4 0 13 -11 19 -25z m-2121 -99 c15 -25 17
-66 3 -66 -5 0 -27 17 -50 38 -37 36 -52 77 -34 95 8 8 65 -39 81 -67z m2001
-421 c8 -8 -21 -36 -45 -46 -29 -11 -83 0 -83 17 0 30 32 46 79 40 24 -3 47
-8 49 -11z m1392 -155 c0 -5 -15 -10 -32 -10 -25 0 -29 3 -18 10 20 13 50 13
50 0z m430 -613 c0 -6 -9 -2 -20 8 -11 10 -20 23 -20 28 0 6 9 2 20 -8 11 -10
20 -23 20 -28z m135 -137 c4 -6 -10 -10 -34 -10 -23 0 -41 5 -41 10 0 6 15 10
34 10 19 0 38 -4 41 -10z m-3335 -189 c0 -15 -15 -21 -38 -14 -32 8 -27 23 8
23 17 0 30 -4 30 -9z m1283 -5 c7 -18 -1 -26 -25 -26 -18 0 -25 20 -11 33 11
12 31 8 36 -7z m-513 -84 c-5 -9 -16 -34 -24 -54 -11 -27 -21 -38 -35 -38 -12
0 -21 4 -21 9 0 25 23 68 47 88 30 24 48 21 33 -5z m-943 -158 c-3 -3 -12 -4
-19 -1 -8 3 -5 6 6 6 11 1 17 -2 13 -5z m509 -449 c16 -39 18 -75 5 -75 -11 0
-31 55 -31 86 0 34 9 30 26 -11z m-841 -80 c0 -12 -60 -19 -83 -10 -14 5 -14
7 -2 16 19 12 85 7 85 -6z m2845 -187 c23 -38 17 -54 -12 -34 -26 19 -59 67
-52 78 8 13 44 -11 64 -44z m-293 -355 c-7 -7 -57 8 -57 18 0 4 14 3 31 -3 16
-6 28 -12 26 -15z m258 -88 l30 -13 -36 -1 c-19 -1 -44 6 -55 14 -18 14 -18
14 6 14 14 0 39 -6 55 -14z m1340 -117 c22 -10 55 -53 55 -73 0 -3 -15 -5 -34
-5 -38 0 -76 36 -76 71 0 22 18 24 55 7z"/>
<path d="M2414 2259 c-19 -22 -19 -22 4 -10 12 6 22 16 22 21 0 15 -5 12 -26
-11z"/>
</g>
</svg>
