<?xml version="1.0" standalone="no"?>
<!DOCTYPE svg PUBLIC "-//W3C//DTD SVG 20010904//EN"
 "http://www.w3.org/TR/2001/REC-SVG-20010904/DTD/svg10.dtd">
<svg version="1.0" xmlns="http://www.w3.org/2000/svg"
 width="480.000000pt" height="360.000000pt" viewBox="0 0 480.000000 360.000000"
 preserveAspectRatio="xMidYMid meet">
<metadata>
Created by potrace 1.16, written by Peter Selinger 2001-2019
</metadata>
<rect width="1" height="360" fill="#000000"/>
<rect x="479" width="1" height="360" fill="#000000"/>
<rect width="480" height="1" fill="#000000"/>
<rect y="359" width="480" height="1" fill="#000000"/>
<g transform="translate(0.000000,360.000000) scale(0.100000,-0.100000)"
fill="#000000" stroke="none">
<path d="M0 1800 l0 -1800 900 0 c864 0 900 1 900 18 0 10 11 56 25 103 14 46
34 123 45 170 10 48 43 162 73 253 41 125 52 168 43 175 -17 14 -56 2 -49 -15
6 -17 -1 -18 -30 -3 -61 33 -74 101 -32 164 15 21 23 44 20 55 -3 9 12 69 34
131 75 216 141 434 151 498 5 35 16 74 25 87 17 27 11 49 -11 40 -21 -8 -17
12 11 48 21 28 26 50 36 155 6 68 8 143 4 167 -5 38 -9 44 -31 44 -17 0 -30
10 -44 33 -20 32 -80 201 -80 224 0 44 105 63 219 39 53 -11 79 -13 93 -5 11
6 56 10 101 8 50 -1 111 4 157 15 93 21 188 18 203 -6 8 -12 8 -34 0 -75 -26
-135 -54 -200 -90 -209 -23 -6 -24 -9 -18 -59 5 -40 3 -55 -9 -68 -13 -12 -16
-38 -16 -126 0 -103 1 -111 26 -140 14 -17 24 -37 21 -45 -3 -7 -1 -18 5 -24
6 -6 14 -49 19 -96 14 -135 78 -362 154 -540 9 -21 14 -48 11 -60 -3 -12 6
-43 20 -73 29 -59 27 -98 -9 -130 -35 -32 -46 -35 -63 -19 -8 9 -22 16 -29 16
-10 0 0 -41 36 -147 28 -82 61 -195 75 -253 13 -58 38 -160 56 -227 l31 -123
909 0 908 0 0 1800 0 1800 -2400 0 -2400 0 0 -1800z"/>
<path d="M2776 853 c9 -36 12 -39 26 -25 14 14 2 42 -21 50 -8 3 -10 -4 -5
-25z"/>
<path d="M1938 828 c-7 -18 2 -39 13 -32 12 7 12 44 0 44 -5 0 -11 -6 -13 -12z"/>
</g>
</svg>
