<?xml version="1.0" standalone="no"?>
<!DOCTYPE svg PUBLIC "-//W3C//DTD SVG 20010904//EN"
 "http://www.w3.org/TR/2001/REC-SVG-20010904/DTD/svg10.dtd">
<svg version="1.0" xmlns="http://www.w3.org/2000/svg"
 width="480.000000pt" height="360.000000pt" viewBox="0 0 480.000000 360.000000"
 preserveAspectRatio="xMidYMid meet">
<metadata>
Created by potrace 1.16, written by Peter Selinger 2001-2019
</metadata>
<rect width="1" height="360" fill="#000000"/>
<rect x="479" width="1" height="360" fill="#000000"/>
<rect width="480" height="1" fill="#000000"/>
<rect y="359" width="480" height="1" fill="#000000"/>
<g transform="translate(0.000000,360.000000) scale(0.100000,-0.100000)"
fill="#000000" stroke="none">
<path d="M1280 2878 c-19 -30 -39 -108 -46 -185 -4 -53 -2 -67 18 -97 13 -20
28 -34 34 -32 6 2 19 -5 28 -16 16 -18 16 -21 1 -38 -13 -15 -14 -20 -3 -27 7
-4 32 -37 56 -72 33 -50 40 -66 31 -77 -6 -8 -17 -14 -24 -14 -7 0 -23 -8 -35
-18 l-21 -17 20 -27 21 -26 -29 -21 c-32 -23 -101 -112 -101 -130 0 -6 -13
-30 -30 -53 -50 -69 -37 -140 31 -168 l31 -13 -4 -91 c-3 -85 -6 -95 -40 -147
-24 -36 -33 -60 -28 -69 5 -8 -1 -40 -16 -80 -13 -37 -24 -75 -24 -84 0 -9 -7
-28 -16 -42 -9 -13 -18 -48 -20 -77 -1 -29 -9 -91 -18 -138 -16 -89 -35 -242
-61 -473 -12 -110 -45 -562 -45 -628 0 -17 29 -18 460 -18 431 0 460 1 460 18
0 9 -9 87 -20 172 -10 85 -26 252 -35 370 -9 118 -22 251 -31 295 -21 114 -80
342 -108 419 -22 63 -23 66 -5 66 24 0 24 12 -1 35 -11 10 -20 26 -20 37 0 10
25 68 56 130 63 126 64 136 18 270 -28 84 -29 96 -8 119 15 17 15 19 -9 30
-24 11 -25 15 -20 71 4 51 0 71 -32 151 -21 51 -44 99 -51 108 -15 17 -2 39
22 39 7 0 16 10 19 21 5 16 9 18 15 9 9 -15 30 -5 30 16 0 19 16 18 24 -1 9
-25 26 -17 27 13 l1 27 7 -25 c7 -25 7 -24 20 10 16 41 19 58 26 124 4 43 0
58 -30 112 -19 34 -35 69 -35 77 0 8 -33 48 -72 90 -56 58 -83 78 -115 86 -53
14 -120 8 -198 -18 -75 -26 -73 -26 -67 4 6 32 -18 34 -38 3z m180 -502 c0 -3
-4 -8 -10 -11 -5 -3 -10 -1 -10 4 0 6 5 11 10 11 6 0 10 -2 10 -4z"/>
<path d="M3125 47 c-99 -39 -74 -47 147 -47 l202 0 -21 21 c-23 24 -55 29
-198 34 -60 2 -112 -1 -130 -8z"/>
</g>
</svg>
