<?xml version="1.0" standalone="no"?>
<!DOCTYPE svg PUBLIC "-//W3C//DTD SVG 20010904//EN"
 "http://www.w3.org/TR/2001/REC-SVG-20010904/DTD/svg10.dtd">
<svg version="1.0" xmlns="http://www.w3.org/2000/svg"
 width="480.000000pt" height="360.000000pt" viewBox="0 0 480.000000 360.000000"
 preserveAspectRatio="xMidYMid meet">
<metadata>
Created by potrace 1.16, written by Peter Selinger 2001-2019
</metadata>
<rect width="1" height="360" fill="#000000"/>
<rect x="479" width="1" height="360" fill="#000000"/>
<rect width="480" height="1" fill="#000000"/>
<rect y="359" width="480" height="1" fill="#000000"/>
<g transform="translate(0.000000,360.000000) scale(0.100000,-0.100000)"
fill="#000000" stroke="none">
<path d="M0 2170 l0 -1430 129 0 c91 0 132 4 139 13 5 6 13 82 17 168 7 139 6
157 -9 162 -14 6 -11 17 23 86 39 77 41 79 83 86 71 11 105 31 112 66 9 49 7
97 -6 118 -16 26 2 47 54 63 46 14 67 50 48 81 -9 15 -8 26 5 53 20 42 29 43
49 3 13 -27 14 -34 2 -51 -24 -33 7 -108 43 -108 10 0 26 -6 37 -14 16 -13 17
-18 6 -35 -6 -12 -12 -49 -12 -84 0 -60 1 -63 33 -80 17 -9 51 -19 74 -23 41
-6 42 -7 74 -85 25 -64 29 -82 19 -94 -8 -10 -14 -68 -18 -165 l-5 -150 92 0
c66 0 91 3 91 13 0 6 2 57 3 112 l2 100 61 100 c34 54 65 100 70 102 5 2 35
-44 67 -101 57 -103 57 -103 57 -189 l0 -85 73 -6 c39 -3 195 -12 345 -20
l274 -13 77 -77 c42 -42 80 -76 84 -76 4 0 7 100 5 223 l-3 223 50 77 c28 42
55 77 62 77 6 0 34 -37 63 -82 l51 -83 -3 -522 -4 -523 1193 0 1193 0 0 1800
0 1800 -2400 0 -2400 0 0 -1430z m3077 688 c17 -16 23 -33 23 -63 0 -46 26
-131 43 -142 6 -4 51 -14 100 -22 103 -18 121 -33 91 -74 -10 -15 -31 -32 -46
-39 -33 -15 -34 -19 -8 -43 26 -23 26 -39 0 -32 -25 6 -76 -36 -65 -54 5 -7 3
-10 -6 -7 -30 10 -51 -28 -53 -96 0 -36 1 -65 4 -63 112 57 149 76 168 81 20
7 22 4 22 -31 0 -38 -10 -63 -44 -115 l-18 -28 153 4 154 4 -28 -22 c-15 -12
-27 -25 -27 -28 0 -4 23 -14 50 -23 42 -14 49 -19 39 -31 -9 -11 -6 -16 16
-24 14 -5 39 -10 55 -10 43 0 46 -18 5 -26 -42 -7 -41 -25 1 -39 25 -9 64 -38
64 -49 0 -2 -20 -1 -45 2 -54 6 -58 -7 -17 -51 15 -17 21 -27 15 -23 -23 13
-36 -5 -16 -20 16 -14 15 -14 -16 -8 -23 4 -31 3 -27 -5 4 -6 14 -11 22 -11 8
0 14 -4 14 -10 0 -5 -4 -10 -10 -10 -13 0 0 -30 14 -30 6 0 29 -9 51 -20 33
-17 35 -19 12 -15 -19 4 -26 2 -22 -5 9 -15 -17 -12 -60 5 -36 16 -37 16 -30
-6 6 -19 4 -21 -14 -16 -12 3 -19 1 -16 -3 3 -4 28 -11 55 -15 27 -4 53 -11
56 -17 4 -6 -14 -7 -51 -3 -52 7 -57 6 -52 -9 7 -18 -4 -15 -33 9 -8 7 -26 16
-40 20 -22 7 -23 6 -11 -9 7 -9 19 -16 27 -16 17 0 73 -49 56 -50 -7 0 -27 7
-43 16 -38 19 -43 15 -25 -22 22 -40 10 -43 -24 -6 -34 38 -70 43 -70 10 0
-28 -22 -88 -32 -88 -4 0 -12 17 -18 39 -9 33 -17 41 -61 60 -67 27 -70 27
-57 -10 14 -42 -10 -96 -48 -105 -50 -13 -75 19 -93 120 -12 69 -41 106 -82
106 -30 0 -28 4 -75 -162 -3 -9 -12 -22 -21 -29 -23 -20 -73 39 -73 86 0 28
-5 38 -25 47 -14 6 -27 23 -31 40 -4 22 -9 27 -17 19 -8 -8 -8 -14 1 -23 7 -7
12 -26 12 -43 l0 -30 -19 31 c-20 33 -65 84 -74 84 -3 0 -7 -10 -9 -22 -4 -32
-33 -30 -34 3 0 14 -10 35 -22 47 -39 39 -23 82 30 82 22 0 32 8 47 38 20 38
61 81 95 99 10 6 27 31 36 57 15 39 16 52 6 86 -8 26 -21 46 -37 53 -20 10
-25 23 -30 67 -4 30 -10 63 -14 72 -4 12 4 35 23 67 25 39 28 50 16 55 -9 3
-14 19 -14 42 0 59 -18 71 -101 66 -60 -3 -73 -1 -84 15 -24 30 -17 42 40 70
51 25 54 28 38 45 -18 20 -4 24 28 8 29 -16 88 36 123 110 16 34 42 72 58 85
38 32 93 33 125 3z"/>
<path d="M2824 1836 c-10 -8 -15 -18 -11 -22 4 -4 17 2 30 14 24 25 12 30 -19
8z"/>
</g>
</svg>
