<?xml version="1.0" standalone="no"?>
<!DOCTYPE svg PUBLIC "-//W3C//DTD SVG 20010904//EN"
 "http://www.w3.org/TR/2001/REC-SVG-20010904/DTD/svg10.dtd">
<svg version="1.0" xmlns="http://www.w3.org/2000/svg"
 width="480.000000pt" height="360.000000pt" viewBox="0 0 480.000000 360.000000"
 preserveAspectRatio="xMidYMid meet">
<metadata>
Created by potrace 1.16, written by Peter Selinger 2001-2019
</metadata>
<rect width="1" height="360" fill="#000000"/>
<rect x="479" width="1" height="360" fill="#000000"/>
<rect width="480" height="1" fill="#000000"/>
<rect y="359" width="480" height="1" fill="#000000"/>
<g transform="translate(0.000000,360.000000) scale(0.100000,-0.100000)"
fill="#000000" stroke="none">
<path d="M0 1800 l0 -1800 2400 0 2400 0 0 1800 0 1800 -2400 0 -2400 0 0
-1800z m2456 934 c-14 -26 -26 -48 -26 -49 0 -2 10 -6 23 -9 12 -3 33 -15 47
-26 21 -17 22 -20 7 -20 -15 0 -17 -5 -12 -29 4 -19 1 -34 -9 -44 -9 -9 -16
-20 -16 -26 0 -6 -20 -22 -45 -37 -44 -25 -45 -27 -45 -77 0 -78 7 -92 53
-113 38 -17 47 -29 94 -124 29 -58 53 -112 53 -120 0 -9 -21 -49 -46 -90 -28
-46 -43 -81 -40 -93 3 -11 -8 -46 -25 -79 l-29 -58 24 -53 c13 -28 44 -95 70
-148 25 -53 55 -127 67 -164 11 -37 33 -88 48 -114 45 -74 121 -223 121 -238
0 -7 -7 -13 -15 -13 -18 0 -19 -23 -2 -51 18 -29 -11 -49 -63 -42 -32 5 -45 1
-70 -21 -21 -17 -43 -26 -65 -26 -19 0 -46 -5 -61 -12 l-26 -12 6 -151 c16
-364 13 -385 -47 -385 -73 1 -81 25 -82 260 l-1 195 -40 -2 c-25 -1 -60 -14
-99 -37 -60 -37 -99 -41 -132 -14 -7 6 -19 8 -26 5 -19 -7 -38 -164 -30 -238
5 -49 3 -59 -16 -78 -28 -28 -66 -26 -126 7 -42 23 -50 32 -53 60 -3 26 4 40
33 69 33 33 36 41 40 108 2 39 7 84 10 98 13 51 -1 75 -48 84 -38 8 -42 12
-45 40 -2 17 -10 37 -18 43 -34 29 -12 137 70 347 30 76 57 149 61 163 7 22 6
23 -8 12 -18 -15 -37 -8 -37 13 0 7 20 64 45 126 50 126 53 145 26 154 -30 9
-39 26 -50 90 -5 33 -12 68 -16 77 -5 13 2 19 34 29 36 11 43 17 53 53 9 35
12 107 8 208 -1 32 30 96 65 134 14 15 24 33 21 40 -12 32 -16 104 -8 147 9
45 8 50 -17 77 -14 16 -38 33 -53 39 -37 14 -35 29 5 36 37 7 63 50 52 85 -8
24 -2 25 29 5 22 -14 28 -14 82 7 72 27 149 29 186 4 26 -17 27 -17 65 7 76
48 88 41 49 -29z"/>
<path d="M2440 2061 c0 -6 4 -13 10 -16 6 -3 7 1 4 9 -7 18 -14 21 -14 7z"/>
<path d="M1937 1493 c-4 -3 -7 -13 -7 -22 1 -13 3 -13 11 2 11 19 8 33 -4 20z"/>
<path d="M2561 1424 c0 -11 3 -14 6 -6 3 7 2 16 -1 19 -3 4 -6 -2 -5 -13z"/>
</g>
</svg>
