<?xml version="1.0" standalone="no"?>
<!DOCTYPE svg PUBLIC "-//W3C//DTD SVG 20010904//EN"
 "http://www.w3.org/TR/2001/REC-SVG-20010904/DTD/svg10.dtd">
<svg version="1.0" xmlns="http://www.w3.org/2000/svg"
 width="480.000000pt" height="360.000000pt" viewBox="0 0 480.000000 360.000000"
 preserveAspectRatio="xMidYMid meet">
<metadata>
Created by potrace 1.16, written by Peter Selinger 2001-2019
</metadata>
<rect width="1" height="360" fill="#000000"/>
<rect x="479" width="1" height="360" fill="#000000"/>
<rect width="480" height="1" fill="#000000"/>
<rect y="359" width="480" height="1" fill="#000000"/>
<g transform="translate(0.000000,360.000000) scale(0.100000,-0.100000)"
fill="#000000" stroke="none">
<path d="M1 3158 l0 -443 252 -122 c139 -67 260 -124 270 -127 9 -3 39 -1 66
4 27 5 138 14 247 19 245 13 321 29 479 101 198 89 341 169 530 296 116 77
253 161 305 187 52 25 111 55 130 67 l35 21 141 -75 c133 -72 420 -206 531
-248 58 -21 55 -14 83 -162 11 -59 22 -111 25 -115 2 -4 -27 -54 -65 -111
-108 -160 -162 -276 -168 -359 -4 -65 -3 -71 23 -96 24 -25 32 -27 78 -22 29
3 59 8 68 12 13 5 17 -3 22 -37 3 -24 7 -52 9 -62 3 -18 -8 -22 -88 -37 -140
-26 -283 -38 -584 -49 -375 -14 -630 -44 -630 -75 0 -8 4 -16 9 -20 5 -3 12
-19 16 -36 6 -25 11 -30 28 -26 12 3 57 11 101 18 74 13 80 12 115 -8 52 -29
69 -83 53 -160 -15 -77 -96 -237 -172 -343 -38 -53 -58 -90 -54 -100 3 -8 18
-75 33 -149 l26 -133 125 -44 c69 -24 134 -48 145 -53 11 -6 43 -19 70 -29
100 -39 225 -92 275 -117 l51 -26 59 55 c64 59 190 125 400 211 63 26 153 70
200 98 47 28 118 68 158 88 40 21 94 57 120 80 67 59 134 95 237 128 136 43
242 55 435 47 179 -8 253 -22 339 -66 31 -15 99 -44 151 -65 52 -20 101 -39
108 -42 9 -4 12 256 12 1281 l0 1286 -310 0 -310 0 0 -167 c-1 -395 -90 -718
-278 -1003 -92 -139 -351 -384 -379 -357 -3 3 4 19 16 35 12 17 21 33 21 37 0
4 18 42 39 85 22 45 42 102 46 132 3 29 13 75 22 101 10 33 14 76 11 135 -2
73 -8 98 -34 152 -17 36 -37 81 -44 100 -7 19 -16 40 -20 45 -4 6 -17 44 -30
85 -24 81 -50 138 -85 185 -13 17 -37 57 -54 90 -41 81 -128 163 -231 220 -47
25 -96 57 -110 69 -67 61 70 56 -1572 56 l-1498 0 1 -442z"/>
<path d="M1282 1543 c-332 -223 -541 -553 -626 -988 -36 -184 -51 -540 -24
-550 7 -3 292 -4 633 -3 l620 3 -75 36 c-112 53 -197 116 -321 236 -119 117
-155 170 -187 278 -65 220 -125 515 -125 615 0 68 4 83 43 160 44 87 124 209
147 223 17 11 17 37 -1 37 -7 0 -45 -21 -84 -47z"/>
</g>
</svg>
