<?xml version="1.0" standalone="no"?>
<!DOCTYPE svg PUBLIC "-//W3C//DTD SVG 20010904//EN"
 "http://www.w3.org/TR/2001/REC-SVG-20010904/DTD/svg10.dtd">
<svg version="1.0" xmlns="http://www.w3.org/2000/svg"
 width="480.000000pt" height="360.000000pt" viewBox="0 0 480.000000 360.000000"
 preserveAspectRatio="xMidYMid meet">
<metadata>
Created by potrace 1.16, written by Peter Selinger 2001-2019
</metadata>
<rect width="1" height="360" fill="#000000"/>
<rect x="479" width="1" height="360" fill="#000000"/>
<rect width="480" height="1" fill="#000000"/>
<rect y="359" width="480" height="1" fill="#000000"/>
<g transform="translate(0.000000,360.000000) scale(0.100000,-0.100000)"
fill="#000000" stroke="none">
<path d="M4597 3573 l-5 -28 19 24 19 24 -6 -73 c-5 -52 -4 -71 4 -66 11 6 15
-4 27 -62 4 -19 22 -65 41 -103 19 -37 34 -72 34 -77 0 -4 16 -23 35 -42 l35
-34 0 232 0 232 -99 0 -99 0 -5 -27z"/>
<path d="M1677 3505 c-9 -8 -13 -23 -10 -34 5 -20 108 -123 152 -153 31 -21
14 -24 -24 -4 -45 23 -163 40 -191 27 -13 -6 -24 -17 -24 -24 0 -12 51 -57 65
-57 3 0 19 -16 36 -35 17 -19 38 -35 48 -35 9 -1 32 -9 51 -20 l35 -19 -65 5
c-105 9 -152 -22 -95 -63 14 -10 44 -34 67 -55 23 -20 55 -39 70 -42 40 -8 35
-23 -11 -36 -54 -14 -60 -37 -16 -56 19 -7 38 -14 43 -14 5 0 20 -11 33 -24
18 -18 46 -27 115 -39 51 -8 111 -25 135 -37 23 -12 82 -63 130 -114 77 -80
99 -97 193 -144 104 -53 132 -80 107 -105 -14 -14 -15 -67 -1 -67 5 0 27 -15
48 -34 36 -33 61 -43 227 -91 118 -34 551 -214 771 -321 49 -24 151 -47 167
-37 14 9 7 -36 -12 -69 -11 -18 -26 -62 -35 -97 -9 -37 -29 -79 -46 -101 -17
-21 -33 -53 -36 -72 -4 -18 -20 -55 -37 -82 l-30 -48 24 -45 c33 -61 74 -95
182 -149 120 -61 210 -78 368 -69 131 8 149 1 149 -60 0 -49 31 -135 54 -150
12 -7 64 -18 116 -25 52 -6 150 -20 216 -30 67 -11 129 -20 138 -20 14 0 16
34 16 375 l0 374 -37 10 c-81 20 -304 62 -320 59 -12 -2 -19 7 -25 36 -5 21
-7 40 -6 42 2 1 75 -4 163 -12 88 -7 175 -13 193 -14 l32 0 0 329 c0 305 -1
330 -17 335 -201 60 -276 61 -323 4 -14 -18 -25 -18 -235 -9 -326 15 -361 19
-428 47 -33 14 -143 57 -246 96 -251 94 -349 133 -413 162 -327 147 -407 177
-430 165 -13 -6 -26 -17 -30 -23 -8 -12 -83 39 -188 131 -41 35 -118 99 -170
141 -52 41 -121 99 -152 129 -31 29 -62 53 -68 53 -6 0 -42 24 -80 53 -100 76
-208 142 -264 160 -60 21 -61 21 -79 2z"/>
</g>
</svg>
