<?xml version="1.0" standalone="no"?>
<!DOCTYPE svg PUBLIC "-//W3C//DTD SVG 20010904//EN"
 "http://www.w3.org/TR/2001/REC-SVG-20010904/DTD/svg10.dtd">
<svg version="1.0" xmlns="http://www.w3.org/2000/svg"
 width="480.000000pt" height="360.000000pt" viewBox="0 0 480.000000 360.000000"
 preserveAspectRatio="xMidYMid meet">
<metadata>
Created by potrace 1.16, written by Peter Selinger 2001-2019
</metadata>
<rect width="1" height="360" fill="#000000"/>
<rect x="479" width="1" height="360" fill="#000000"/>
<rect width="480" height="1" fill="#000000"/>
<rect y="359" width="480" height="1" fill="#000000"/>
<g transform="translate(0.000000,360.000000) scale(0.100000,-0.100000)"
fill="#000000" stroke="none">
<path d="M0 1800 l0 -1800 409 0 c345 0 410 2 414 14 3 8 25 24 49 35 24 11
61 31 83 43 22 13 72 41 110 63 39 21 72 42 75 46 3 4 29 20 59 36 29 15 60
33 70 38 9 6 46 27 82 48 44 24 71 47 78 65 6 15 28 107 49 204 38 176 39 178
19 195 -16 15 -18 28 -15 71 4 44 2 55 -14 63 -10 6 -94 32 -186 59 -144 42
-245 76 -646 216 -38 13 -78 24 -88 24 -32 0 -68 30 -68 57 0 31 25 79 45 87
30 11 63 6 97 -14 46 -27 347 -133 548 -194 47 -14 114 -34 150 -46 55 -17
208 -60 216 -60 1 0 5 12 9 28 7 30 52 82 71 82 7 0 17 -7 21 -14 6 -11 14 -6
31 24 l22 39 -40 43 c-49 53 -107 139 -127 186 -14 34 -20 242 -8 263 3 4 -2
23 -10 40 -9 17 -15 40 -12 50 3 10 -6 46 -19 79 -22 54 -24 66 -15 117 6 31
22 80 36 110 26 58 132 176 202 224 30 21 42 36 40 51 -2 19 8 25 73 45 100
32 110 43 76 79 l-26 29 0 -30 0 -30 -25 30 c-24 30 -25 30 -31 8 -3 -13 -10
-21 -14 -18 -5 3 -15 -2 -24 -10 -13 -14 -16 -13 -25 2 -9 16 -10 16 -11 -4 0
-13 -4 -23 -10 -23 -5 0 -10 8 -10 19 0 10 -7 25 -16 32 -15 12 -16 11 -9 -11
6 -22 2 -20 -27 13 l-35 39 -6 -32 c-7 -30 -27 -34 -27 -4 0 8 -8 14 -19 14
-15 0 -19 11 -25 61 -14 139 -7 267 18 343 66 197 215 351 402 417 101 36 214
12 308 -64 23 -19 46 -36 52 -40 7 -4 39 22 75 61 128 135 243 245 287 273
l46 29 -1367 0 -1367 0 0 -1800z m160 1593 c0 -20 -34 -12 -38 9 -2 12 2 15
17 11 12 -3 21 -12 21 -20z m1340 -1118 c0 -8 -7 -15 -15 -15 -16 0 -20 12 -8
23 11 12 23 8 23 -8z m-1320 -1085 c0 -5 -4 -10 -10 -10 -5 0 -10 5 -10 10 0
6 5 10 10 10 6 0 10 -4 10 -10z"/>
<path d="M2768 3528 c-4 -97 4 -142 45 -227 22 -45 32 -80 29 -96 -5 -27 -36
-55 -62 -55 -29 0 -41 -18 -50 -71 -4 -30 -17 -91 -29 -137 -36 -143 -62 -170
-112 -116 -13 14 -35 32 -49 39 l-25 13 -2 -135 c-1 -150 -8 -203 -26 -203 -7
0 -22 -22 -34 -48 l-21 -47 -1 63 c-1 59 -2 61 -18 44 -26 -26 -53 -69 -53
-85 0 -8 -7 -20 -15 -27 -13 -10 -15 -9 -15 9 0 27 -11 27 -28 1 -13 -21 -9
-40 9 -40 5 0 21 -7 34 -16 24 -15 24 -17 9 -47 l-16 -31 56 -52 c31 -29 56
-59 56 -67 0 -8 15 -20 33 -27 98 -36 172 -102 181 -162 28 -189 29 -192 96
-218 19 -8 98 -46 175 -85 77 -39 176 -84 220 -99 52 -18 92 -40 115 -62 l35
-34 60 40 c33 21 65 43 70 47 6 5 51 38 100 74 135 97 214 159 271 212 28 26
54 47 59 47 4 0 25 16 46 35 22 19 50 35 63 35 13 0 29 7 36 15 7 8 28 15 46
15 27 0 44 -9 79 -45 47 -46 58 -84 32 -110 -9 -8 -16 -49 -20 -102 -7 -103
-21 -150 -47 -158 -13 -4 -21 -24 -30 -71 -10 -51 -16 -64 -29 -62 -10 2 -17
14 -18 33 -1 17 -13 77 -28 135 -15 58 -30 120 -34 139 -3 19 -11 36 -16 38
-11 3 -124 -75 -280 -192 -44 -34 -91 -68 -105 -78 -14 -10 -60 -43 -104 -75
l-78 -57 -2 -117 c-1 -98 -4 -119 -20 -137 -21 -23 -96 -38 -122 -23 -14 8
-21 4 -34 -22 -27 -50 -59 -55 -115 -18 -26 17 -52 29 -58 25 -6 -3 -78 -52
-161 -107 -83 -56 -182 -121 -221 -145 -73 -46 -111 -78 -101 -88 14 -14 771
-201 941 -232 66 -12 149 -27 184 -34 35 -6 75 -20 89 -31 l25 -19 -59 -31
c-56 -29 -65 -31 -169 -30 -141 0 -380 44 -790 145 -88 21 -163 39 -167 39
-15 0 -7 -46 23 -130 17 -47 35 -101 41 -120 5 -19 28 -76 49 -127 21 -51 39
-101 39 -112 0 -11 10 -41 22 -66 l22 -45 1003 0 1003 0 -2 1713 c-2 941 -4
1346 -5 900 -3 -713 -5 -813 -18 -813 -8 0 -15 4 -15 8 0 5 -19 18 -42 29 -35
17 -57 20 -116 17 -63 -4 -78 -1 -103 17 -16 11 -27 24 -25 28 7 10 -68 85
-179 180 -81 70 -95 79 -141 84 -28 3 -70 15 -92 27 -33 17 -52 21 -85 16 -70
-11 -139 -6 -169 12 l-28 16 6 96 c5 98 19 167 40 208 21 40 -18 125 -48 106
-20 -13 -38 20 -38 71 0 28 -3 54 -6 57 -3 4 -18 2 -34 -2 -42 -12 -53 6 -35
55 17 48 19 82 5 90 -5 3 -10 13 -10 21 0 17 -1 18 -87 110 -35 37 -60 71 -57
76 3 5 1 15 -5 22 -13 16 -17 103 -7 184 8 65 42 122 73 122 8 0 13 6 10 13
-5 15 41 47 68 47 11 0 40 11 64 25 23 14 49 25 55 25 14 0 76 29 76 36 0 2
-243 4 -539 4 l-539 0 -4 -72z m792 -6 c0 -13 -12 -22 -22 -16 -10 6 -1 24 13
24 5 0 9 -4 9 -8z m-772 -1250 c2 -7 -3 -12 -12 -12 -9 0 -16 7 -16 16 0 17
22 14 28 -4z m-18 -62 c0 -5 -4 -10 -10 -10 -5 0 -10 5 -10 10 0 6 5 10 10 10
6 0 10 -4 10 -10z m625 -1193 c17 -8 54 -18 83 -22 33 -4 52 -12 52 -20 0 -38
-96 -12 -156 43 -22 20 -33 32 -25 26 9 -7 30 -18 46 -27z"/>
<path d="M2202 2498 c-17 -17 -15 -55 4 -62 50 -19 95 2 81 39 -5 12 -10 13
-40 0 -34 -14 -34 -14 -29 10 5 28 2 31 -16 13z"/>
<path d="M2334 1714 c4 -11 14 -57 23 -104 8 -47 26 -120 40 -163 29 -89 26
-115 -16 -139 -35 -19 -50 -74 -32 -114 6 -14 11 -35 11 -48 0 -12 11 -33 24
-45 13 -12 32 -38 42 -57 10 -18 24 -34 31 -34 10 0 250 146 263 160 3 3 39
27 80 52 122 76 163 108 152 121 -5 7 -14 26 -20 44 -9 27 -8 36 8 56 l19 24
-24 -5 c-14 -2 -25 0 -25 6 0 13 -37 27 -133 52 -103 27 -174 60 -220 104 -21
20 -43 37 -50 38 -7 0 -16 2 -22 3 -5 2 -17 3 -26 4 -9 0 -32 12 -52 25 -19
13 -45 27 -57 31 -20 6 -22 4 -16 -11z"/>
<path d="M3105 1400 c3 -5 10 -10 16 -10 5 0 9 5 9 10 0 6 -7 10 -16 10 -8 0
-12 -4 -9 -10z"/>
<path d="M1300 10 c-12 -8 -11 -10 8 -10 12 0 22 5 22 10 0 13 -11 13 -30 0z"/>
</g>
</svg>
