<?xml version="1.0" standalone="no"?>
<!DOCTYPE svg PUBLIC "-//W3C//DTD SVG 20010904//EN"
 "http://www.w3.org/TR/2001/REC-SVG-20010904/DTD/svg10.dtd">
<svg version="1.0" xmlns="http://www.w3.org/2000/svg"
 width="480.000000pt" height="360.000000pt" viewBox="0 0 480.000000 360.000000"
 preserveAspectRatio="xMidYMid meet">
<metadata>
Created by potrace 1.16, written by Peter Selinger 2001-2019
</metadata>
<rect width="1" height="360" fill="#000000"/>
<rect x="479" width="1" height="360" fill="#000000"/>
<rect width="480" height="1" fill="#000000"/>
<rect y="359" width="480" height="1" fill="#000000"/>
<g transform="translate(0.000000,360.000000) scale(0.100000,-0.100000)"
fill="#000000" stroke="none">
<path d="M2242 2933 c6 -22 5 -22 -23 -8 -45 24 -55 17 -24 -15 l29 -30 -25 0
-24 0 21 -18 c12 -9 27 -27 33 -39 17 -33 -9 -79 -50 -88 -23 -5 -29 -11 -23
-23 3 -10 9 -27 11 -39 5 -22 3 -23 -41 -17 l-47 7 11 -27 c14 -39 13 -45 -14
-52 -21 -5 -23 -9 -16 -34 6 -20 4 -32 -8 -44 -26 -26 5 -79 64 -108 51 -25
55 -31 77 -98 8 -25 27 -78 42 -118 14 -41 28 -84 29 -95 1 -12 8 -35 14 -50
7 -16 12 -33 12 -38 0 -5 -29 -9 -64 -9 -72 0 -90 -11 -101 -60 -5 -22 -1 -38
14 -59 12 -16 21 -41 21 -56 0 -14 11 -41 24 -58 13 -18 27 -43 31 -57 4 -14
17 -36 29 -48 25 -28 93 -65 105 -58 19 12 41 -24 65 -109 29 -101 32 -142 11
-200 -16 -44 -19 -37 45 -85 l25 -18 -20 -22 c-11 -12 -19 -32 -17 -44 2 -12
-6 -31 -17 -43 -29 -30 -85 -138 -105 -198 -9 -27 -38 -140 -65 -250 -64 -262
-130 -439 -220 -587 l-23 -38 661 0 c626 0 661 1 661 18 0 30 -38 160 -105
357 -35 105 -87 266 -115 359 -28 93 -66 198 -84 235 -18 36 -36 86 -39 110
-5 37 -2 46 18 65 23 20 25 30 35 203 13 210 5 279 -41 360 l-29 52 65 -6 c46
-4 77 -1 107 10 29 10 94 17 194 20 125 4 159 9 190 25 40 20 74 66 74 98 0 9
-24 58 -54 109 -53 92 -101 200 -112 253 -5 25 -2 30 25 42 17 7 45 28 61 47
42 47 41 99 0 147 -37 42 -30 48 59 50 57 1 76 -4 142 -36 42 -20 88 -40 101
-43 81 -20 91 161 18 320 -32 71 -75 114 -121 124 -51 11 -67 3 -78 -34 -12
-43 -72 -143 -103 -171 -43 -38 -128 -84 -157 -84 -30 0 -57 22 -46 39 3 6 -2
20 -13 31 -16 17 -29 19 -93 17 -62 -3 -74 -6 -71 -20 2 -10 -3 -17 -10 -17
-7 0 -21 -12 -31 -26 -15 -20 -17 -35 -12 -77 l7 -52 -63 -25 c-35 -13 -77
-38 -94 -55 -29 -30 -100 -65 -130 -65 -12 0 -14 13 -8 74 6 82 -9 140 -50
184 -16 17 -22 38 -24 77 -1 30 2 57 7 60 17 10 11 44 -10 62 -10 9 -43 23
-72 30 -29 8 -59 20 -68 27 -21 18 -71 26 -92 15 -10 -5 -29 -21 -42 -34 -20
-20 -35 -25 -75 -25 -41 0 -53 4 -69 25 -11 14 -27 25 -36 25 -10 0 -29 12
-43 28 -24 25 -26 25 -21 5z m1231 -465 c27 -32 8 -76 -45 -104 -32 -17 -40 0
-10 22 16 12 16 15 1 58 -9 25 -14 48 -11 51 10 9 46 -6 65 -27z m-320 -78 c3
-13 -1 -21 -14 -25 -11 -4 -39 -22 -64 -40 -44 -34 -45 -34 -56 -13 -17 32 3
63 53 81 59 21 75 20 81 -3z m-218 -72 c3 -13 11 -33 17 -45 6 -13 9 -24 7
-26 -77 -53 -88 -58 -107 -48 -20 11 -42 59 -42 92 0 11 14 22 43 32 59 21 75
20 82 -5z m225 -248 c0 -5 -12 -10 -26 -10 -14 0 -23 4 -19 10 3 6 15 10 26
10 10 0 19 -4 19 -10z m90 -45 c5 3 11 1 15 -5 10 -16 -29 -12 -51 6 -18 14
-18 15 4 4 12 -6 27 -8 32 -5z"/>
<path d="M4595 2133 c-75 -6 -105 -14 -105 -28 0 -8 -11 -22 -24 -30 -24 -16
-34 -37 -41 -84 -2 -13 -9 -29 -14 -34 -16 -16 -13 -27 7 -27 11 0 7 -5 -13
-16 -41 -21 -41 -21 1 -39 21 -9 42 -21 46 -28 13 -20 9 -125 -8 -253 -20
-144 -14 -166 56 -201 35 -18 61 -23 128 -23 46 0 103 5 128 11 l44 11 0 364
0 364 -22 4 c-34 7 -137 12 -183 9z"/>
</g>
</svg>
