<?xml version="1.0" standalone="no"?>
<!DOCTYPE svg PUBLIC "-//W3C//DTD SVG 20010904//EN"
 "http://www.w3.org/TR/2001/REC-SVG-20010904/DTD/svg10.dtd">
<svg version="1.0" xmlns="http://www.w3.org/2000/svg"
 width="480.000000pt" height="360.000000pt" viewBox="0 0 480.000000 360.000000"
 preserveAspectRatio="xMidYMid meet">
<metadata>
Created by potrace 1.16, written by Peter Selinger 2001-2019
</metadata>
<rect width="1" height="360" fill="#000000"/>
<rect x="479" width="1" height="360" fill="#000000"/>
<rect width="480" height="1" fill="#000000"/>
<rect y="359" width="480" height="1" fill="#000000"/>
<g transform="translate(0.000000,360.000000) scale(0.100000,-0.100000)"
fill="#000000" stroke="none">
<path d="M4043 3566 c-40 -32 -47 -33 -150 -39 -128 -7 -222 -31 -351 -92
-115 -54 -210 -118 -281 -186 -95 -92 -171 -234 -171 -318 0 -33 -8 -47 -47
-88 -64 -67 -211 -143 -280 -144 -94 -2 -126 -26 -141 -109 -11 -58 -6 -70 27
-70 23 0 31 -8 52 -51 13 -28 33 -58 45 -66 27 -17 136 -12 160 8 21 17 31 0
40 -62 4 -28 16 -58 31 -75 15 -17 22 -22 19 -11 -9 29 8 19 27 -16 19 -35 77
-78 77 -56 0 7 9 6 25 -5 27 -18 30 -15 15 15 -14 26 -9 24 45 -12 31 -21 44
-36 41 -46 -3 -8 -6 -18 -6 -23 0 -4 -19 -26 -42 -48 -47 -46 -44 -62 16 -82
30 -10 56 -43 56 -72 0 -10 22 -40 81 -107 29 -34 34 -59 20 -96 -14 -35 -1
-49 23 -26 19 18 26 19 59 9 22 -7 37 -18 37 -27 1 -43 18 -40 44 9 25 47 46
64 46 39 0 -17 31 -79 40 -79 4 0 20 25 36 55 16 30 32 55 35 55 4 0 14 -19
24 -42 20 -52 13 -99 -21 -133 -18 -18 -23 -31 -18 -49 5 -21 -3 -30 -69 -75
-41 -27 -89 -63 -107 -79 -34 -31 -79 -42 -174 -42 -31 0 -61 -6 -74 -16 -13
-9 -30 -13 -39 -10 -21 9 -53 -22 -53 -50 0 -13 7 -42 16 -64 9 -23 14 -43 11
-47 -13 -12 -95 -22 -144 -16 l-52 6 10 -34 c24 -76 24 -76 -22 -100 -83 -42
-194 -112 -226 -142 -18 -17 -34 -29 -36 -26 -2 2 -21 31 -42 64 -36 58 -255
348 -397 526 -77 98 -98 110 -258 152 -220 58 -249 62 -400 60 -114 -1 -341
-12 -447 -22 -17 -1 -16 -46 2 -109 12 -40 28 -62 74 -104 73 -67 95 -107 96
-178 0 -61 4 -64 95 -75 38 -5 47 -10 59 -35 7 -17 23 -33 36 -36 28 -7 223
22 284 42 25 8 45 14 47 14 7 0 186 -282 264 -415 209 -360 272 -442 395 -515
55 -33 65 -35 145 -35 81 0 92 3 225 59 195 81 177 80 171 5 -3 -35 -8 -101
-11 -146 l-5 -83 458 0 459 0 13 48 c28 112 103 363 109 367 12 7 295 -15 346
-27 115 -26 231 -101 330 -211 l55 -62 0 190 0 189 -44 46 -44 45 24 78 c15
46 33 82 44 90 19 11 20 27 20 548 l0 536 -25 23 c-28 27 -32 40 -10 40 23 0
18 24 -10 50 -34 32 -31 42 10 34 l35 -6 0 119 c0 118 -1 121 -35 187 -19 37
-35 76 -35 86 0 11 16 48 35 83 l35 64 0 325 0 326 -22 6 c-13 3 -40 6 -60 6
-21 0 -38 4 -38 8 0 18 25 31 50 25 15 -3 37 0 49 6 20 11 21 18 21 196 l0
185 -357 0 -358 0 -42 -34z m672 -1799 l49 -13 -3 -89 c-2 -51 -11 -116 -22
-152 -11 -35 -40 -139 -64 -232 -52 -200 -78 -256 -155 -330 -31 -31 -59 -63
-62 -71 -4 -12 -17 -9 -74 17 l-69 33 -7 107 c-6 114 -12 134 -102 371 -29 75
-45 130 -41 142 8 26 22 25 30 -1 4 -11 12 -18 18 -16 7 3 24 -7 40 -21 l27
-26 0 38 0 38 35 -38 35 -39 -5 40 c-14 123 -15 145 -6 145 5 0 29 -23 53 -51
23 -28 56 -58 72 -66 l29 -15 -6 81 c-5 80 -5 81 19 81 13 0 24 5 24 10 0 6
21 -1 47 -17 44 -26 46 -26 41 -6 -4 16 0 23 17 27 13 3 32 3 42 -1 16 -5 16
-3 -3 18 -47 53 -42 57 41 36z"/>
</g>
</svg>
