<?xml version="1.0" standalone="no"?>
<!DOCTYPE svg PUBLIC "-//W3C//DTD SVG 20010904//EN"
 "http://www.w3.org/TR/2001/REC-SVG-20010904/DTD/svg10.dtd">
<svg version="1.0" xmlns="http://www.w3.org/2000/svg"
 width="480.000000pt" height="360.000000pt" viewBox="0 0 480.000000 360.000000"
 preserveAspectRatio="xMidYMid meet">
<metadata>
Created by potrace 1.16, written by Peter Selinger 2001-2019
</metadata>
<rect width="1" height="360" fill="#000000"/>
<rect x="479" width="1" height="360" fill="#000000"/>
<rect width="480" height="1" fill="#000000"/>
<rect y="359" width="480" height="1" fill="#000000"/>
<g transform="translate(0.000000,360.000000) scale(0.100000,-0.100000)"
fill="#000000" stroke="none">
<path d="M3938 1485 c-3 -3 -1 -27 4 -53 9 -43 7 -53 -26 -122 -20 -41 -36
-80 -36 -88 0 -7 -6 -12 -12 -10 -14 2 -58 -23 -58 -33 0 -3 16 -22 35 -42 23
-24 35 -46 35 -64 0 -15 9 -62 19 -103 11 -41 21 -82 23 -90 2 -10 -5 -15 -22
-15 -23 0 -25 -4 -28 -51 -2 -37 5 -68 28 -124 16 -41 30 -85 30 -98 0 -13 14
-37 30 -54 34 -34 36 -40 15 -72 -15 -23 -11 -56 6 -56 15 0 10 -37 -7 -51
-26 -21 -45 -68 -84 -199 -20 -69 -40 -133 -45 -142 -7 -17 10 -18 264 -18
162 0 271 4 271 9 0 22 -60 261 -75 298 -15 37 -14 44 10 134 28 105 32 201
10 239 -8 14 -14 28 -15 33 0 17 91 5 173 -23 101 -34 115 -35 177 -14 24 8
66 18 92 21 l48 6 0 73 0 73 -37 -3 c-21 -2 -72 5 -113 15 -90 21 -220 45
-237 43 -27 -3 -9 24 63 96 68 69 96 112 80 127 -3 3 -52 -43 -109 -102 -89
-94 -105 -107 -122 -98 -11 6 -29 7 -40 3 -10 -4 -31 -2 -45 3 -22 8 -25 15
-22 46 2 20 12 55 23 79 23 50 19 101 -9 137 -17 21 -19 31 -10 58 18 59 21
77 9 77 -6 0 -11 -5 -11 -11 0 -19 -82 2 -161 42 -68 35 -77 43 -88 78 -11 39
-23 55 -33 46z"/>
<path d="M2491 1456 c-1 -12 -6 -16 -16 -12 -14 5 -16 1 -19 -46 -2 -25 -66
-87 -112 -107 -41 -19 -49 -38 -29 -71 14 -22 17 -271 4 -287 -6 -7 -29 -18
-50 -23 -44 -12 -50 -33 -21 -71 22 -29 42 -95 42 -139 0 -17 -7 -57 -16 -88
-16 -52 -15 -58 1 -89 16 -28 16 -37 6 -61 -9 -18 -15 -98 -17 -244 l-5 -218
276 0 277 0 -7 32 c-4 18 -15 50 -25 73 -19 45 -161 293 -211 369 -30 46 -31
52 -18 75 10 18 25 27 46 29 17 2 37 10 43 18 18 21 25 18 54 -26 18 -28 33
-40 50 -40 14 0 30 -10 40 -25 9 -14 26 -25 37 -25 33 0 98 41 120 76 17 28
18 36 7 61 -16 37 -26 43 -70 43 -46 0 -98 41 -98 76 0 14 -9 42 -20 64 -15
29 -27 39 -47 42 -26 3 -28 6 -25 41 3 35 2 37 -26 37 -32 0 -58 22 -47 40 3
6 11 8 16 5 5 -4 10 -3 10 2 5 29 10 116 10 157 -1 29 5 59 15 74 19 29 11 77
-11 68 -8 -3 -15 -1 -15 4 0 6 -6 10 -13 10 -18 0 -97 82 -97 101 0 8 5 20 12
27 9 9 8 12 -6 12 -13 0 -16 5 -12 16 4 11 2 15 -8 11 -9 -4 -17 1 -19 11 -4
15 -5 14 -6 -2z"/>
<path d="M886 1365 c-3 -8 -12 -15 -20 -15 -10 0 -14 -12 -14 -44 1 -39 -3
-48 -38 -77 -21 -19 -52 -46 -67 -61 -21 -21 -34 -26 -56 -22 -40 8 -45 -16
-17 -72 20 -40 22 -50 11 -81 -16 -47 -9 -77 26 -97 16 -9 29 -25 29 -35 0
-33 22 -81 37 -81 13 0 13 -3 3 -15 -7 -8 -18 -15 -26 -15 -25 0 -58 -61 -55
-104 1 -23 -1 -62 -4 -88 l-7 -47 -81 -31 c-45 -17 -104 -42 -131 -56 -28 -13
-67 -24 -88 -24 -21 0 -56 -7 -78 -16 -37 -15 -42 -15 -72 3 -17 10 -39 32
-48 48 -20 36 -53 42 -136 25 l-54 -12 2 -170 3 -171 90 -53 90 -53 528 0 528
-1 -56 109 c-31 60 -69 123 -85 141 -28 31 -28 34 -26 133 1 56 8 134 16 172
l13 70 -46 62 c-26 34 -53 64 -60 66 -6 3 -2 6 11 6 12 1 22 6 22 12 0 6 7 8
16 5 11 -4 20 6 34 37 25 54 25 93 -1 163 l-21 56 21 39 c22 39 21 62 -2 53
-7 -2 -29 10 -51 28 -36 29 -38 34 -33 74 4 40 2 46 -34 76 -21 18 -41 43 -44
55 -6 26 -20 30 -29 8z m-123 -997 c17 -30 17 -32 0 -42 -10 -6 -22 -11 -28
-11 -5 -1 -21 -8 -35 -17 -34 -21 -215 -31 -231 -12 -8 10 0 16 38 27 26 9 82
31 123 51 93 44 110 45 133 4z m-337 -49 c8 -14 -20 -10 -41 5 -18 13 -18 14
8 9 15 -3 30 -9 33 -14z m284 -129 c0 -5 -2 -10 -4 -10 -3 0 -8 5 -11 10 -3 6
-1 10 4 10 6 0 11 -4 11 -10z m55 -20 c3 -5 12 -7 20 -3 9 3 15 -1 15 -11 0
-9 -2 -16 -5 -16 -10 0 -65 30 -65 35 0 9 29 5 35 -5z"/>
</g>
</svg>
