<?xml version="1.0" standalone="no"?>
<!DOCTYPE svg PUBLIC "-//W3C//DTD SVG 20010904//EN"
 "http://www.w3.org/TR/2001/REC-SVG-20010904/DTD/svg10.dtd">
<svg version="1.0" xmlns="http://www.w3.org/2000/svg"
 width="480.000000pt" height="360.000000pt" viewBox="0 0 480.000000 360.000000"
 preserveAspectRatio="xMidYMid meet">
<metadata>
Created by potrace 1.16, written by Peter Selinger 2001-2019
</metadata>
<rect width="1" height="360" fill="#000000"/>
<rect x="479" width="1" height="360" fill="#000000"/>
<rect width="480" height="1" fill="#000000"/>
<rect y="359" width="480" height="1" fill="#000000"/>
<g transform="translate(0.000000,360.000000) scale(0.100000,-0.100000)"
fill="#000000" stroke="none">
<path d="M1424 3132 c-83 -29 -162 -82 -228 -153 -176 -191 -220 -395 -125
-581 37 -72 145 -175 227 -216 74 -36 79 -37 203 -40 95 -3 131 -7 140 -18 6
-8 20 -14 30 -14 11 0 19 -7 19 -16 0 -15 -2 -15 -26 1 -35 22 -69 13 -146
-40 -34 -25 -69 -45 -75 -45 -22 0 -102 -43 -108 -58 -3 -8 0 -31 6 -52 11
-35 9 -41 -14 -71 -32 -43 -61 -114 -53 -134 3 -8 15 -15 26 -15 15 0 27 14
45 57 32 71 32 71 50 47 20 -27 19 -30 -15 -44 -16 -7 -30 -15 -29 -19 0 -3
24 -17 52 -31 46 -23 52 -30 55 -60 2 -26 -4 -42 -22 -61 -20 -22 -24 -33 -19
-68 5 -37 8 -41 33 -41 28 0 28 -1 35 -82 3 -46 11 -119 16 -163 6 -44 14
-127 18 -184 6 -89 10 -106 29 -120 33 -25 35 -107 3 -139 -21 -21 -23 -30
-19 -108 3 -80 5 -87 31 -108 23 -19 27 -29 27 -74 0 -41 -4 -53 -20 -62 -18
-9 -20 -21 -20 -95 0 -92 11 -135 35 -135 20 0 21 -106 1 -129 -7 -9 -17 -26
-20 -38 -6 -19 -3 -23 12 -23 11 0 23 6 25 13 4 10 6 10 6 0 1 -19 38 -15 46
4 6 17 7 17 19 1 7 -10 18 -18 25 -18 20 0 12 40 -14 64 -34 31 -36 114 -4
134 19 12 21 21 17 108 -3 87 -5 96 -30 119 -23 21 -28 34 -28 75 0 39 4 52
20 60 18 9 20 21 20 93 0 98 -6 124 -30 132 -13 4 -20 20 -25 56 -6 45 -5 52
19 74 14 13 26 29 26 35 0 6 38 10 103 11 56 0 125 4 152 9 28 4 51 7 53 5 2
-2 -11 -32 -29 -66 -42 -85 -56 -139 -70 -283 -11 -116 -8 -361 8 -548 l6 -78
390 0 390 0 -21 23 c-27 28 -45 141 -40 246 4 91 28 147 120 287 l63 95 22
-25 c16 -19 23 -45 29 -103 l7 -78 17 50 c11 32 20 44 24 35 8 -23 93 -379
101 -426 6 -39 4 -43 -32 -73 l-38 -31 297 0 296 0 16 35 c11 23 17 61 17 108
0 113 -33 188 -156 352 -74 99 -82 158 -55 397 32 278 51 367 122 550 26 68
32 77 47 68 10 -5 21 -23 24 -40 4 -17 13 -33 21 -36 18 -7 66 24 66 42 0 8 9
14 20 14 11 0 20 6 20 13 0 8 12 20 26 28 14 7 39 32 54 54 16 23 36 47 45 55
9 7 22 28 30 47 8 18 18 33 23 33 5 0 17 19 27 43 10 23 25 49 32 58 21 25 53
148 53 202 0 58 -24 86 -106 124 -70 32 -135 29 -214 -11 -44 -22 -58 -25 -78
-17 -12 6 -35 11 -50 11 -26 0 -26 0 -7 19 11 11 103 78 204 150 l183 131 42
-25 c56 -33 120 -33 184 -1 26 13 74 29 107 35 32 6 64 16 69 21 14 14 -19 57
-77 100 l-46 34 60 19 c71 21 75 40 16 73 l-38 21 161 148 c88 81 160 150 160
153 0 13 -71 -13 -167 -61 -120 -60 -158 -82 -318 -183 -125 -80 -201 -126
-263 -162 -40 -23 -381 -182 -390 -182 -2 0 -2 16 0 36 3 30 -1 39 -25 60 -29
24 -71 32 -82 15 -3 -6 2 -14 11 -19 13 -7 10 -13 -19 -39 -51 -44 -102 -49
-188 -18 -116 42 -155 42 -361 4 -38 -6 -68 -15 -68 -19 0 -4 12 -5 28 -3 26
4 26 4 8 -11 -11 -9 -25 -16 -31 -16 -6 0 -27 -14 -46 -31 -33 -29 -33 -30 -6
-20 32 13 35 1 6 -25 -34 -30 -60 -92 -66 -153 -6 -55 -6 -56 14 -38 20 17 20
17 26 -20 8 -45 -5 -56 -53 -47 -76 13 -75 14 -75 -41 0 -38 -4 -50 -15 -50
-20 0 -18 51 5 135 34 127 0 258 -93 353 -61 62 -105 85 -197 100 -46 7 -75
16 -75 24 0 6 -9 18 -21 26 -15 11 -23 32 -30 83 -18 129 -47 193 -127 276
-108 114 -223 168 -354 168 -43 -1 -94 -8 -124 -18z m1190 -967 c-4 -8 -8 -15
-10 -15 -2 0 -4 7 -4 15 0 8 4 15 10 15 5 0 7 -7 4 -15z m-719 -342 c52 -24
72 -28 150 -28 85 0 95 2 178 42 l88 43 40 -23 c34 -19 39 -26 34 -47 -19 -79
-20 -75 38 -119 31 -22 58 -44 60 -48 2 -5 -20 -64 -49 -133 -29 -69 -54 -130
-54 -137 0 -6 -17 -25 -38 -41 -36 -29 -52 -33 -248 -61 -115 -17 -231 -37
-257 -45 -26 -8 -47 -13 -48 -13 0 1 -11 65 -24 142 -23 138 -23 140 -4 157
11 9 25 18 32 21 8 2 6 9 -7 23 -52 51 -74 172 -43 231 8 15 21 47 28 71 l12
43 26 -25 c14 -14 53 -37 86 -53z m-261 -864 c-3 -5 -14 -3 -25 4 -16 10 -21
9 -29 -3 -12 -19 -18 -12 -20 25 -3 47 -2 48 40 14 22 -18 37 -36 34 -40z m15
-306 c1 -57 -10 -82 -22 -50 -3 9 -9 9 -25 0 -11 -6 -23 -9 -26 -6 -3 4 -6 36
-6 73 0 65 1 67 24 63 13 -3 27 1 32 8 12 20 23 -18 23 -88z m18 -345 c4 -44
2 -67 -6 -72 -6 -4 -11 -2 -11 3 0 15 -37 14 -43 -1 -9 -26 -19 2 -24 65 -4
42 -2 67 6 71 6 4 11 2 11 -3 0 -17 30 -13 37 5 10 28 23 -1 30 -68z"/>
<path d="M2818 3 c7 -3 16 -2 19 1 4 3 -2 6 -13 5 -11 0 -14 -3 -6 -6z"/>
</g>
</svg>
