<?xml version="1.0" standalone="no"?>
<!DOCTYPE svg PUBLIC "-//W3C//DTD SVG 20010904//EN"
 "http://www.w3.org/TR/2001/REC-SVG-20010904/DTD/svg10.dtd">
<svg version="1.0" xmlns="http://www.w3.org/2000/svg"
 width="480.000000pt" height="360.000000pt" viewBox="0 0 480.000000 360.000000"
 preserveAspectRatio="xMidYMid meet">
<metadata>
Created by potrace 1.16, written by Peter Selinger 2001-2019
</metadata>
<rect width="1" height="360" fill="#000000"/>
<rect x="479" width="1" height="360" fill="#000000"/>
<rect width="480" height="1" fill="#000000"/>
<rect y="359" width="480" height="1" fill="#000000"/>
<g transform="translate(0.000000,360.000000) scale(0.100000,-0.100000)"
fill="#000000" stroke="none">
<path d="M2077 3076 c-59 -16 -90 -45 -106 -98 -7 -22 -28 -55 -46 -72 -37
-36 -55 -87 -55 -164 0 -55 14 -92 59 -152 61 -82 67 -85 78 -40 l8 29 33 -20
c17 -12 32 -27 32 -34 0 -8 -19 -27 -42 -42 -54 -36 -71 -80 -72 -193 -1 -82
0 -85 25 -97 42 -20 52 -78 39 -233 -10 -108 -9 -132 3 -152 8 -13 20 -50 26
-84 10 -54 9 -69 -10 -130 -30 -96 -96 -232 -120 -245 -11 -5 -40 -38 -65 -72
-39 -52 -45 -66 -39 -93 4 -22 -1 -44 -14 -71 -44 -86 -71 -157 -66 -174 8
-23 93 -99 111 -99 8 0 23 -9 33 -19 27 -27 175 -73 241 -75 l55 -1 -3 -35
c-1 -19 4 -64 12 -100 8 -36 16 -95 18 -132 2 -36 6 -64 11 -61 16 10 6 -17
-17 -44 -13 -15 -34 -52 -46 -81 -39 -90 -2 -126 102 -102 41 10 62 23 96 59
l45 46 -6 86 c-4 47 -13 103 -21 125 -8 23 -17 73 -21 112 -8 82 -12 77 113
117 53 17 90 23 111 19 26 -6 50 3 129 44 53 27 122 57 152 66 48 13 68 28
159 117 100 99 103 103 97 139 -7 44 -60 154 -95 196 -14 17 -35 42 -46 55
-28 35 -87 76 -138 98 -67 29 -124 106 -232 316 -26 50 -60 107 -76 128 l-30
37 33 14 c18 8 48 29 67 48 66 64 77 137 36 226 -17 36 -23 62 -18 82 4 24 -3
43 -36 94 -41 62 -63 82 -81 71 -4 -3 -19 14 -33 37 -14 24 -37 54 -51 67 -15
14 -26 35 -26 50 0 26 1 26 36 -12 19 -20 39 -35 44 -32 5 3 11 1 15 -5 3 -5
10 -10 16 -10 12 0 11 163 -2 220 -15 64 -72 144 -120 165 -21 10 -51 34 -65
53 -50 65 -134 85 -237 58z"/>
</g>
</svg>
