<?xml version="1.0" standalone="no"?>
<!DOCTYPE svg PUBLIC "-//W3C//DTD SVG 20010904//EN"
 "http://www.w3.org/TR/2001/REC-SVG-20010904/DTD/svg10.dtd">
<svg version="1.0" xmlns="http://www.w3.org/2000/svg"
 width="480.000000pt" height="360.000000pt" viewBox="0 0 480.000000 360.000000"
 preserveAspectRatio="xMidYMid meet">
<metadata>
Created by potrace 1.16, written by Peter Selinger 2001-2019
</metadata>
<rect width="1" height="360" fill="#000000"/>
<rect x="479" width="1" height="360" fill="#000000"/>
<rect width="480" height="1" fill="#000000"/>
<rect y="359" width="480" height="1" fill="#000000"/>
<g transform="translate(0.000000,360.000000) scale(0.100000,-0.100000)"
fill="#000000" stroke="none">
<path d="M2749 3250 c-63 -8 -156 -47 -201 -85 -16 -14 -42 -25 -58 -25 -27 0
-46 -22 -35 -41 4 -5 -12 -46 -35 -91 -37 -76 -41 -93 -49 -197 -7 -92 -7
-117 4 -128 12 -11 15 -10 24 4 6 10 11 14 11 8 0 -5 9 -25 21 -44 15 -25 23
-31 29 -21 6 10 10 8 19 -8 7 -12 18 -18 28 -16 10 3 28 -4 40 -15 21 -20 22
-22 5 -52 -16 -29 -16 -31 2 -42 10 -7 50 -42 90 -79 71 -68 88 -76 116 -58
11 7 17 4 21 -13 6 -20 7 -20 19 10 6 18 16 30 21 27 11 -6 12 -64 2 -64 -5 0
-17 -14 -28 -30 -11 -17 -45 -50 -76 -74 -79 -62 -173 -180 -161 -202 6 -11
11 -13 16 -5 4 6 11 11 17 11 5 0 -4 -26 -20 -59 -40 -79 -71 -173 -71 -216 0
-20 11 -77 25 -127 15 -50 24 -92 22 -95 -3 -2 -45 16 -93 40 -49 25 -116 52
-149 62 -172 50 -186 56 -197 84 -6 14 -10 35 -10 45 1 10 -6 28 -14 40 -20
29 -18 69 6 99 13 16 16 28 10 32 -16 10 -12 22 9 28 11 3 22 17 26 36 5 25 2
39 -19 65 -14 18 -28 45 -32 60 -8 34 -37 51 -53 32 -7 -8 -31 -17 -54 -20
-56 -9 -102 -38 -123 -77 -10 -21 -19 -74 -24 -153 -5 -67 -18 -173 -30 -236
-18 -91 -21 -136 -17 -215 6 -102 20 -161 36 -151 5 3 14 -16 21 -44 6 -27 17
-48 23 -47 16 3 13 -9 -44 -201 -59 -197 -67 -252 -37 -271 11 -7 32 -10 47
-6 19 4 32 1 41 -10 7 -8 18 -15 24 -15 7 0 40 -31 73 -69 81 -90 163 -133
163 -85 0 8 -13 35 -29 61 l-30 47 46 12 c25 6 65 10 89 7 24 -2 45 0 49 6 3
6 16 11 29 11 13 0 31 9 42 21 28 31 22 131 -21 357 -19 103 -39 210 -44 237
-8 42 -7 52 7 63 9 6 18 12 21 12 3 0 62 -37 131 -83 l125 -82 9 -50 c15 -89
15 -92 -58 -413 -20 -84 -42 -206 -51 -271 -16 -123 -36 -210 -86 -372 -16
-53 -29 -99 -29 -103 0 -3 306 -6 680 -6 374 0 680 2 680 4 0 2 -15 31 -33 63
-51 90 -107 215 -207 468 -99 250 -122 297 -241 486 -43 70 -79 136 -79 148 0
12 -9 46 -20 77 -29 84 -45 239 -30 308 6 31 16 56 21 56 6 0 8 9 4 19 -9 30
23 141 51 174 13 16 24 37 24 48 0 10 5 19 10 19 6 0 10 -11 10 -24 0 -14 5
-28 12 -32 8 -5 9 -2 5 10 -5 14 0 21 24 29 29 11 30 15 25 49 -12 77 -78 275
-106 321 -17 27 -30 50 -30 53 0 11 22 2 40 -16 18 -18 23 -19 35 -6 8 8 15
24 15 35 0 11 5 23 10 26 6 3 10 1 10 -4 0 -23 19 -10 29 20 9 27 13 30 26 19
14 -11 14 -10 5 15 -14 36 -6 57 16 48 14 -5 16 -2 10 20 -3 15 -9 39 -12 53
l-7 26 28 -18 27 -18 -20 40 c-10 21 -23 50 -26 64 l-7 25 21 -25 21 -25 -6
25 c-4 14 -22 59 -40 100 -19 41 -43 117 -54 169 -11 51 -32 118 -45 148 -39
83 -202 239 -261 249 -51 8 -150 10 -196 4z"/>
</g>
</svg>
