<?xml version="1.0" standalone="no"?>
<!DOCTYPE svg PUBLIC "-//W3C//DTD SVG 20010904//EN"
 "http://www.w3.org/TR/2001/REC-SVG-20010904/DTD/svg10.dtd">
<svg version="1.0" xmlns="http://www.w3.org/2000/svg"
 width="480.000000pt" height="360.000000pt" viewBox="0 0 480.000000 360.000000"
 preserveAspectRatio="xMidYMid meet">
<metadata>
Created by potrace 1.16, written by Peter Selinger 2001-2019
</metadata>
<rect width="1" height="360" fill="#000000"/>
<rect x="479" width="1" height="360" fill="#000000"/>
<rect width="480" height="1" fill="#000000"/>
<rect y="359" width="480" height="1" fill="#000000"/>
<g transform="translate(0.000000,360.000000) scale(0.100000,-0.100000)"
fill="#000000" stroke="none">
<path d="M1690 3595 c0 -3 6 -21 14 -40 16 -38 8 -50 -24 -40 -34 11 -41 -3
-23 -46 l16 -41 -31 -31 c-18 -18 -44 -32 -59 -33 -16 -1 -31 -3 -36 -3 -4 -1
-17 -22 -30 -48 -26 -55 -57 -75 -109 -71 -21 2 -38 0 -38 -5 0 -4 11 -30 25
-57 36 -70 31 -119 -6 -73 -17 20 -89 73 -100 73 -5 0 -1 -16 8 -35 15 -32 15
-36 0 -53 -10 -10 -16 -33 -15 -53 1 -20 -1 -40 -5 -45 -11 -19 22 -73 55 -90
66 -33 66 -34 61 -152 -6 -119 8 -208 58 -371 36 -116 37 -141 7 -141 -13 0
-59 -18 -103 -40 -44 -22 -85 -40 -92 -40 -17 0 -16 -49 2 -92 12 -30 12 -38
0 -55 -8 -11 -21 -42 -30 -69 -19 -59 -41 -101 -70 -134 -12 -14 -43 -60 -70
-104 -48 -78 -48 -78 -32 -112 41 -85 128 -148 201 -146 49 2 87 36 158 140
58 86 72 85 83 -11 4 -34 11 -81 16 -104 14 -66 -6 -183 -51 -295 -30 -76 -37
-104 -30 -118 14 -26 49 -50 65 -44 17 7 27 -23 15 -46 -6 -10 -10 -34 -10
-53 0 -19 -13 -58 -30 -88 -44 -81 -66 -163 -100 -379 -17 -107 -35 -215 -41
-240 -5 -25 -14 -70 -18 -100 -5 -30 -12 -67 -16 -82 l-7 -28 771 0 c424 0
771 3 771 8 0 4 -13 21 -28 38 -55 63 -71 83 -120 145 -85 109 -175 256 -272
443 -81 158 -111 206 -193 313 -19 23 -18 24 11 86 38 79 91 215 103 264 5 21
16 80 24 131 12 82 12 104 -1 179 -8 46 -21 100 -29 119 -13 32 -13 36 5 54
16 16 31 18 108 15 l88 -3 205 -102 c113 -56 223 -104 245 -107 28 -3 65 3
129 25 168 56 230 71 325 78 115 8 137 16 152 51 7 16 13 29 14 31 0 1 12 -2
25 -6 38 -15 89 14 89 50 0 20 5 28 18 28 10 0 27 7 39 15 28 20 78 9 102 -21
10 -13 25 -24 33 -24 8 0 23 -9 34 -21 62 -69 190 -64 223 8 20 43 13 72 -27
114 -49 53 -109 64 -147 29 -23 -22 -27 -22 -52 -9 l-26 14 29 5 c22 4 30 11
32 31 4 33 -34 65 -95 82 -28 7 -43 17 -43 27 0 23 -80 62 -97 48 -9 -7 -14
-6 -18 4 -8 19 -96 46 -165 51 -23 2 -25 -1 -22 -35 3 -43 -3 -46 -38 -18 -28
22 -66 26 -72 8 -5 -15 -68 -5 -373 61 -49 10 -148 31 -220 45 -71 15 -166 34
-210 43 -44 9 -87 16 -95 15 -8 0 -21 2 -29 4 -23 8 -10 15 682 368 169 87
307 163 307 170 0 7 -7 28 -16 45 -14 28 -20 32 -44 27 -15 -3 -44 -16 -64
-30 -35 -24 -400 -206 -626 -314 -256 -121 -408 -194 -443 -212 -50 -25 -80
-26 -73 -2 2 9 7 37 11 62 4 25 11 61 17 80 10 30 12 32 18 15 7 -18 9 -17 20
10 6 17 14 44 17 60 4 17 10 32 14 36 5 3 13 30 19 59 15 80 -11 191 -61 262
-23 32 -24 67 -4 93 47 61 66 98 54 105 -9 6 -8 19 2 59 12 49 12 52 -12 77
-34 37 -74 56 -104 48 -28 -7 -102 21 -161 61 -36 25 -88 33 -98 16 -13 -21
-62 -20 -108 2 -44 21 -47 25 -58 77 -19 96 -28 110 -66 110 -19 0 -34 -2 -34
-5z m1700 -753 c0 -14 -65 -51 -272 -156 -150 -76 -293 -149 -318 -163 -85
-47 -238 -123 -249 -123 -6 0 -11 -3 -11 -7 0 -10 -49 -33 -69 -33 -29 0 6 21
180 109 246 124 468 240 611 321 68 38 124 69 126 70 1 0 2 -8 2 -18z m-950
-497 c-7 -9 -15 -13 -17 -11 -7 7 7 26 19 26 6 0 6 -6 -2 -15z m88 -65 c2 0
-4 -7 -13 -16 -15 -15 -17 -15 -35 1 -29 26 -24 35 12 24 18 -5 34 -9 36 -9z
m-218 6 c0 -3 -4 -8 -10 -11 -5 -3 -10 -1 -10 4 0 6 5 11 10 11 6 0 10 -2 10
-4z m704 -345 c9 -14 -61 -23 -84 -11 -11 6 -20 13 -20 15 0 9 99 5 104 -4z"/>
</g>
</svg>
