<?xml version="1.0" standalone="no"?>
<!DOCTYPE svg PUBLIC "-//W3C//DTD SVG 20010904//EN"
 "http://www.w3.org/TR/2001/REC-SVG-20010904/DTD/svg10.dtd">
<svg version="1.0" xmlns="http://www.w3.org/2000/svg"
 width="480.000000pt" height="360.000000pt" viewBox="0 0 480.000000 360.000000"
 preserveAspectRatio="xMidYMid meet">
<metadata>
Created by potrace 1.16, written by Peter Selinger 2001-2019
</metadata>
<rect width="1" height="360" fill="#000000"/>
<rect x="479" width="1" height="360" fill="#000000"/>
<rect width="480" height="1" fill="#000000"/>
<rect y="359" width="480" height="1" fill="#000000"/>
<g transform="translate(0.000000,360.000000) scale(0.100000,-0.100000)"
fill="#000000" stroke="none">
<path d="M0 1800 l0 -1800 934 0 933 0 7 68 c4 37 22 125 40 196 l33 130 -23
34 c-13 18 -30 67 -40 108 -15 70 -15 78 1 122 9 26 23 74 32 107 9 36 25 69
39 82 29 27 112 53 167 53 46 0 119 19 129 35 12 16 9 76 -6 126 -23 74 -71
159 -135 239 -33 41 -75 103 -92 137 -26 52 -30 69 -25 105 4 24 15 58 26 76
22 36 26 92 8 110 -7 7 -13 22 -13 35 -2 34 -27 107 -37 107 -5 0 -7 -8 -4
-17 3 -10 1 -25 -4 -33 -7 -11 -11 -8 -21 15 -10 28 -12 28 -19 10 -7 -17 -9
-17 -9 -2 -1 9 -5 17 -11 17 -5 0 -10 16 -10 35 0 19 -5 35 -10 35 -7 0 -7 6
0 20 15 29 30 203 18 211 -7 4 -5 24 5 57 l14 51 -33 32 c-22 21 -30 36 -25
43 5 6 11 29 13 51 3 37 6 41 43 53 56 18 61 26 37 57 -19 24 -20 30 -8 54 18
34 69 71 99 71 13 0 32 -7 43 -15 32 -24 52 -18 74 25 13 25 34 47 53 56 30
14 37 14 70 1 24 -11 38 -24 43 -41 7 -31 14 -32 37 -6 10 12 29 20 47 20 24
0 35 -7 51 -35 19 -32 25 -35 68 -35 85 0 109 -41 80 -144 -9 -34 -8 -42 11
-69 l22 -29 -21 -38 c-11 -20 -18 -40 -14 -43 10 -10 52 -181 46 -187 -2 -3
-10 3 -17 13 -21 28 -26 20 -26 -40 0 -41 8 -74 25 -111 30 -65 30 -65 5 -57
-18 6 -19 4 -10 -20 13 -34 13 -35 -4 -35 -8 0 -17 11 -20 25 -7 29 -26 34
-26 7 0 -25 -11 -34 -26 -21 -11 9 -23 -27 -29 -95 -1 -10 37 -69 84 -130 85
-110 121 -160 131 -182 3 -7 38 -46 78 -89 l74 -77 25 24 25 23 24 -30 c13
-16 24 -33 24 -36 0 -3 12 -11 26 -17 19 -9 24 -17 19 -32 -5 -16 -2 -20 15
-20 33 0 70 -29 70 -57 0 -13 9 -36 20 -51 11 -15 21 -43 22 -62 1 -19 15 -53
30 -74 49 -68 35 -162 -30 -206 -42 -28 -108 -42 -121 -26 -18 23 -18 81 0
121 32 70 27 75 -73 76 -36 0 -37 1 -55 57 -19 59 -31 66 -75 48 -12 -6 -20 0
-31 20 -13 25 -15 17 -21 -111 -7 -118 -11 -141 -27 -154 -19 -16 -19 -17 1
-81 11 -36 31 -123 45 -195 14 -72 37 -166 50 -210 30 -97 55 -216 55 -256 l0
-29 940 0 940 0 0 1800 0 1800 -2400 0 -2400 0 0 -1800z"/>
<path d="M2090 1710 c0 -13 5 -18 15 -14 12 5 13 10 4 20 -15 19 -19 18 -19
-6z"/>
</g>
</svg>
