<?xml version="1.0" standalone="no"?>
<!DOCTYPE svg PUBLIC "-//W3C//DTD SVG 20010904//EN"
 "http://www.w3.org/TR/2001/REC-SVG-20010904/DTD/svg10.dtd">
<svg version="1.0" xmlns="http://www.w3.org/2000/svg"
 width="480.000000pt" height="360.000000pt" viewBox="0 0 480.000000 360.000000"
 preserveAspectRatio="xMidYMid meet">
<metadata>
Created by potrace 1.16, written by Peter Selinger 2001-2019
</metadata>
<rect width="1" height="360" fill="#000000"/>
<rect x="479" width="1" height="360" fill="#000000"/>
<rect width="480" height="1" fill="#000000"/>
<rect y="359" width="480" height="1" fill="#000000"/>
<g transform="translate(0.000000,360.000000) scale(0.100000,-0.100000)"
fill="#000000" stroke="none">
<path d="M0 1800 l0 -1800 2400 0 2400 0 0 1800 0 1800 -2400 0 -2400 0 0
-1800z m2980 1025 c18 -9 40 -36 56 -66 24 -47 24 -52 9 -75 -8 -13 -22 -24
-30 -24 -8 0 -17 -12 -21 -27 -4 -16 -13 -33 -21 -40 -13 -10 -10 -14 21 -27
33 -14 36 -19 36 -54 0 -47 13 -60 103 -100 66 -30 79 -46 55 -70 -18 -18 -40
-14 -73 12 -30 24 -30 24 -56 5 -24 -17 -26 -24 -22 -66 5 -49 14 -79 40 -123
26 -46 42 -86 64 -166 12 -43 28 -102 37 -131 14 -52 12 -83 -8 -83 -5 0 -10
7 -10 15 0 8 -7 15 -15 15 -15 0 -15 0 1 -103 5 -39 3 -51 -12 -69 -22 -24
-39 -28 151 33 171 55 223 67 380 90 77 11 140 21 141 22 1 1 23 40 49 87 76
135 103 170 130 170 13 0 31 -10 39 -22 27 -38 19 -92 -26 -181 -30 -59 -41
-93 -39 -120 2 -33 -2 -40 -31 -57 -25 -15 -48 -47 -92 -132 -32 -62 -77 -142
-99 -178 -22 -36 -58 -94 -81 -130 -36 -58 -121 -177 -136 -190 -3 -3 -30 -33
-59 -67 -45 -53 -62 -65 -108 -78 -63 -18 -84 -14 -113 22 -19 24 -26 26 -118
28 -53 1 -140 -4 -192 -13 -116 -18 -286 -11 -415 17 -49 11 -116 26 -148 33
-57 12 -63 11 -272 -41 -201 -51 -217 -53 -262 -42 -112 29 -316 137 -451 240
-41 31 -83 63 -95 71 -12 8 -56 17 -103 21 -57 5 -99 15 -140 33 -49 23 -66
26 -114 20 l-55 -6 -50 63 c-27 35 -78 91 -112 124 -62 60 -93 113 -93 159 0
19 7 27 33 35 41 13 252 36 475 52 166 12 180 12 310 -10 319 -52 507 -81 662
-100 194 -24 516 -51 613 -51 l68 0 -3 28 c-3 24 -11 29 -78 51 -98 31 -164
63 -168 83 -2 9 15 37 38 63 39 45 44 65 14 65 -8 0 -14 4 -14 9 0 5 37 55 83
112 46 57 105 136 132 174 44 63 49 75 49 125 0 30 -6 80 -13 110 -8 30 -14
78 -15 105 -3 66 -11 82 -48 89 -24 5 -29 10 -25 26 4 15 -9 32 -53 70 -32 27
-62 50 -67 50 -14 0 -51 -160 -69 -292 -10 -76 -13 -149 -9 -223 5 -85 3 -121
-9 -160 -20 -63 -20 -145 -1 -191 17 -41 2 -43 -27 -3 -17 23 -19 51 -21 345
-2 270 1 334 16 414 10 52 23 111 29 130 6 19 11 47 10 62 0 15 4 31 10 34 6
4 44 -28 85 -70 40 -42 78 -76 83 -76 13 0 26 28 34 71 9 52 41 82 80 76 17
-2 40 -1 51 4 32 12 74 10 105 -6z"/>
<path d="M2870 1574 c0 -9 7 -14 17 -12 25 5 28 28 4 28 -12 0 -21 -6 -21 -16z"/>
</g>
</svg>
