<?xml version="1.0" standalone="no"?>
<!DOCTYPE svg PUBLIC "-//W3C//DTD SVG 20010904//EN"
 "http://www.w3.org/TR/2001/REC-SVG-20010904/DTD/svg10.dtd">
<svg version="1.0" xmlns="http://www.w3.org/2000/svg"
 width="480.000000pt" height="360.000000pt" viewBox="0 0 480.000000 360.000000"
 preserveAspectRatio="xMidYMid meet">
<metadata>
Created by potrace 1.16, written by Peter Selinger 2001-2019
</metadata>
<rect width="1" height="360" fill="#000000"/>
<rect x="479" width="1" height="360" fill="#000000"/>
<rect width="480" height="1" fill="#000000"/>
<rect y="359" width="480" height="1" fill="#000000"/>
<g transform="translate(0.000000,360.000000) scale(0.100000,-0.100000)"
fill="#000000" stroke="none">
<path d="M2426 3118 c-4 -266 -15 -856 -26 -1313 -11 -456 -22 -1049 -26
-1317 l-7 -488 1148 0 1148 0 -6 36 c-4 20 -2 45 4 55 7 15 6 19 -6 19 -8 0
-15 9 -15 20 0 12 -7 20 -16 20 -31 0 -2 121 60 249 14 30 26 61 26 68 0 22
-30 2 -48 -34 l-18 -34 -14 25 c-11 22 -11 31 2 63 9 21 28 67 43 103 15 36
30 71 33 79 3 8 -20 0 -58 -20 -43 -23 -74 -49 -100 -84 -61 -81 -124 -129
-269 -200 -257 -128 -354 -96 -585 195 -42 52 -76 100 -76 106 0 33 142 184
293 311 73 63 90 83 67 83 -5 0 -25 14 -45 31 -38 34 -61 95 -50 138 6 25 7
25 21 7 13 -18 15 -18 32 -3 20 18 42 22 42 8 0 -5 9 -11 20 -14 11 -3 20 -12
20 -21 0 -9 6 -16 13 -16 7 0 21 -16 31 -35 20 -36 30 -42 41 -25 3 6 17 10
30 10 19 0 36 -17 76 -78 29 -42 76 -109 106 -148 l53 -72 47 14 c25 8 71 14
102 14 31 1 85 7 121 15 36 8 86 14 113 15 l47 0 0 88 c-1 91 -9 114 -51 136
-12 6 -39 40 -60 75 -41 67 -49 114 -28 154 21 38 86 112 113 127 l26 13 0
1054 0 1053 -1184 0 -1183 0 -7 -482z"/>
<path d="M0 2845 l0 -164 68 -21 c37 -11 135 -36 217 -54 136 -31 166 -43 321
-119 94 -47 215 -115 268 -151 53 -36 100 -66 103 -66 4 0 15 8 25 17 17 15
21 15 61 -4 67 -34 191 -57 228 -44 31 11 31 11 26 -18 -11 -52 36 -116 58
-81 4 6 14 9 23 8 27 -5 28 57 1 109 -29 56 -131 175 -161 186 -13 5 -43 14
-68 21 -40 10 -45 14 -48 43 -4 40 -11 45 -97 73 -71 22 -232 99 -302 143 -75
48 -160 85 -288 127 -72 23 -186 66 -255 95 -69 29 -137 55 -152 59 l-28 6 0
-165z m1250 -540 c18 -10 20 -14 8 -15 -23 0 -48 11 -48 21 0 12 11 11 40 -6z"/>
<path d="M0 2140 l0 -413 98 7 c130 8 199 27 258 68 71 50 97 102 102 208 3
70 1 88 -12 99 -9 7 -16 22 -16 33 0 28 -28 78 -65 118 -18 19 -36 44 -39 55
-7 23 -134 134 -183 159 -18 9 -41 16 -52 16 -11 0 -36 14 -56 31 l-35 31 0
-412z"/>
</g>
</svg>
