<?xml version="1.0" standalone="no"?>
<!DOCTYPE svg PUBLIC "-//W3C//DTD SVG 20010904//EN"
 "http://www.w3.org/TR/2001/REC-SVG-20010904/DTD/svg10.dtd">
<svg version="1.0" xmlns="http://www.w3.org/2000/svg"
 width="480.000000pt" height="360.000000pt" viewBox="0 0 480.000000 360.000000"
 preserveAspectRatio="xMidYMid meet">
<metadata>
Created by potrace 1.16, written by Peter Selinger 2001-2019
</metadata>
<rect width="1" height="360" fill="#000000"/>
<rect x="479" width="1" height="360" fill="#000000"/>
<rect width="480" height="1" fill="#000000"/>
<rect y="359" width="480" height="1" fill="#000000"/>
<g transform="translate(0.000000,360.000000) scale(0.100000,-0.100000)"
fill="#000000" stroke="none">
<path d="M3263 3083 c-13 -2 -23 -9 -23 -14 0 -5 -9 -9 -20 -9 -11 0 -20 -4
-20 -9 0 -5 -9 -13 -20 -16 -12 -4 -49 -30 -83 -58 -103 -85 -99 -85 -153 -27
-55 58 -140 103 -229 119 -62 12 -294 2 -454 -19 -165 -22 -266 -126 -306
-317 -18 -83 -19 -126 -3 -193 l12 -52 -66 -64 c-53 -52 -72 -64 -98 -64 -31
0 -32 -2 -26 -30 3 -17 0 -42 -7 -57 -9 -21 -9 -28 3 -35 8 -5 49 -29 90 -53
84 -50 104 -54 120 -25 16 29 33 13 28 -26 -4 -37 5 -44 21 -16 9 15 10 15 11
-4 0 -27 -44 -111 -76 -145 -32 -33 -30 -39 11 -39 40 0 40 -2 20 -60 -8 -24
-14 -45 -12 -47 3 -2 21 15 41 38 21 22 39 39 40 37 2 -1 17 -29 34 -61 l30
-58 11 32 c11 31 12 32 26 13 8 -10 15 -26 15 -35 0 -9 11 -24 25 -33 l25 -17
-6 43 -6 43 33 -50 c29 -43 34 -47 37 -27 2 12 7 22 12 22 4 0 6 9 3 20 -9 35
15 21 42 -24 14 -24 23 -50 19 -59 -7 -19 -72 -39 -199 -62 -126 -23 -174 -52
-242 -145 -30 -41 -68 -101 -84 -132 -29 -57 -30 -58 -72 -58 -62 0 -163 27
-221 58 -28 15 -105 79 -171 143 -127 121 -194 175 -286 227 -63 35 -69 45
-69 103 0 21 -3 39 -7 39 -15 -1 -51 -36 -141 -141 -155 -181 -284 -290 -537
-456 -297 -194 -318 -212 -232 -199 23 4 99 9 169 13 l128 6 93 -57 c51 -31
101 -56 109 -56 9 0 40 35 69 78 120 177 135 185 181 92 15 -30 29 -59 31 -65
7 -17 18 1 30 51 11 45 15 49 44 52 61 6 174 -94 188 -164 7 -38 13 -41 57
-18 46 24 119 44 161 44 55 0 116 -33 182 -100 33 -33 66 -60 75 -60 8 0 53
25 100 55 47 30 89 55 93 55 22 0 48 -23 43 -37 -4 -9 0 -23 8 -32 13 -14 13
-27 0 -97 -7 -45 -18 -94 -24 -109 -5 -14 -13 -56 -16 -93 -5 -60 -4 -69 16
-91 31 -32 97 -61 143 -61 29 0 46 7 68 29 l29 29 0 -40 c0 -22 -10 -77 -22
-121 -18 -66 -27 -83 -50 -96 -16 -9 -26 -22 -23 -29 6 -15 -28 -98 -50 -122
-19 -21 -15 -105 5 -106 35 -2 40 -5 40 -19 0 -13 63 -15 510 -15 281 0 510 2
510 4 0 3 -10 21 -21 41 l-21 35 28 54 28 54 -27 32 c-15 17 -27 37 -27 44 0
7 -11 18 -25 24 -23 11 -25 17 -25 81 l0 69 44 0 c26 -1 62 8 89 21 64 31 71
61 62 262 -5 135 -4 157 9 168 9 8 16 19 16 26 0 7 12 16 27 20 42 10 45 26
12 62 -33 39 -37 59 -10 68 10 3 34 21 53 40 l35 36 74 -27 c89 -32 211 -93
338 -168 52 -31 101 -56 109 -56 8 0 32 15 54 34 62 54 124 79 175 72 50 -7
122 -41 177 -85 21 -17 43 -31 47 -31 5 0 15 16 23 35 8 19 30 44 48 55 42 26
151 60 190 60 28 0 30 -2 25 -32 -8 -54 24 -93 38 -47 12 36 85 109 110 109
30 0 37 -11 80 -110 65 -153 65 -154 65 203 l0 316 -52 83 c-28 46 -64 104
-80 129 -52 85 -80 97 -93 40 -9 -43 -32 -58 -141 -95 -115 -38 -159 -60 -309
-150 -170 -102 -240 -128 -360 -133 -55 -3 -154 2 -219 10 -113 13 -120 13
-138 -5 -10 -10 -18 -25 -18 -33 0 -12 -12 -15 -52 -14 -103 2 -105 4 -147
105 -73 177 -88 189 -283 228 -117 23 -218 59 -218 78 0 24 32 55 54 53 18 -2
26 3 30 21 10 37 23 29 18 -11 -5 -44 12 -46 33 -4 13 24 19 28 30 19 8 -6 15
-21 17 -32 2 -15 13 0 37 51 19 39 41 71 48 71 7 0 13 -4 13 -8 0 -5 7 -17 14
-28 14 -18 15 -18 26 13 l12 33 36 -25 c20 -13 38 -23 40 -21 2 2 -8 26 -22
52 -14 26 -23 51 -20 56 3 4 20 8 38 8 45 0 50 9 20 33 -36 28 -84 96 -84 119
0 10 7 18 16 18 8 0 12 5 9 11 -4 5 -1 24 6 40 10 25 16 29 36 25 18 -5 27 0
43 26 30 49 26 92 -9 117 -26 19 -81 98 -81 116 0 15 126 -29 206 -71 26 -14
47 -23 48 -22 1 2 7 24 14 51 15 58 15 127 2 163 -13 34 -11 36 42 39 76 4
168 27 168 41 0 14 -29 48 -46 55 -12 5 -66 76 -92 121 -28 49 -52 132 -52
179 0 68 -9 75 -77 62z m-563 -1278 c0 -8 -4 -15 -10 -15 -5 0 -7 7 -4 15 4 8
8 15 10 15 2 0 4 -7 4 -15z"/>
</g>
</svg>
