<?xml version="1.0" standalone="no"?>
<!DOCTYPE svg PUBLIC "-//W3C//DTD SVG 20010904//EN"
 "http://www.w3.org/TR/2001/REC-SVG-20010904/DTD/svg10.dtd">
<svg version="1.0" xmlns="http://www.w3.org/2000/svg"
 width="480.000000pt" height="360.000000pt" viewBox="0 0 480.000000 360.000000"
 preserveAspectRatio="xMidYMid meet">
<metadata>
Created by potrace 1.16, written by Peter Selinger 2001-2019
</metadata>
<rect width="1" height="360" fill="#000000"/>
<rect x="479" width="1" height="360" fill="#000000"/>
<rect width="480" height="1" fill="#000000"/>
<rect y="359" width="480" height="1" fill="#000000"/>
<g transform="translate(0.000000,360.000000) scale(0.100000,-0.100000)"
fill="#000000" stroke="none">
<path d="M0 1800 l0 -1800 290 0 290 0 0 138 c0 83 -6 161 -15 198 -8 36 -62
154 -133 295 -160 314 -213 484 -254 814 -17 144 -17 579 0 700 20 139 59 327
98 472 l36 133 -36 35 c-39 38 -44 56 -21 79 41 41 119 29 395 -60 151 -48
248 -89 290 -123 29 -23 558 -171 611 -171 26 0 30 3 19 10 -8 5 -30 10 -48
10 -29 0 -31 2 -21 19 7 10 24 23 38 29 l26 10 -25 2 c-20 1 -17 4 16 14 61
19 124 67 184 138 79 94 260 268 300 288 19 9 63 20 97 23 47 4 75 13 120 41
72 44 125 63 200 71 49 6 68 3 128 -21 39 -15 112 -56 163 -90 76 -52 89 -64
72 -69 -23 -7 -24 -14 -6 -38 19 -24 12 -97 -13 -138 -11 -19 -24 -33 -28 -31
-5 2 -9 -4 -11 -13 -2 -10 9 -21 32 -30 37 -16 45 -32 24 -53 -10 -10 -10 -17
0 -33 7 -11 9 -25 5 -32 -9 -14 -14 -47 -14 -95 0 -39 -36 -67 -80 -64 -28 2
-39 -11 -19 -23 16 -10 12 -25 -5 -19 -18 7 -20 -16 -2 -37 26 -32 94 -67 141
-73 62 -8 124 -44 168 -96 l33 -41 155 -28 c345 -64 491 -85 511 -73 25 16 44
15 59 -4 12 -13 16 -12 35 13 21 26 24 27 51 13 16 -7 33 -12 39 -11 18 5 90
-22 104 -38 10 -12 14 -13 18 -3 8 21 43 13 55 -13 6 -14 21 -27 32 -30 64
-12 642 -85 677 -85 18 0 19 29 19 845 l0 845 -2400 0 -2400 0 0 -1800z"/>
<path d="M819 2558 c-20 -37 -102 -302 -134 -431 -59 -238 -79 -584 -50 -846
22 -198 52 -298 199 -659 47 -117 86 -226 86 -241 0 -15 -22 -97 -50 -181 -27
-84 -50 -164 -50 -177 l0 -23 174 0 c174 0 174 0 190 25 9 13 16 32 16 42 0
70 222 313 380 418 52 35 204 118 336 185 292 148 369 202 487 337 113 130
113 133 -16 235 -145 114 -216 178 -232 209 -37 70 -8 170 89 315 35 52 43 71
35 85 -16 31 -10 75 16 114 24 35 25 40 15 92 l-12 54 -35 -38 c-20 -20 -42
-52 -50 -70 -16 -39 -33 -43 -33 -9 0 31 -16 42 -28 20 -6 -11 -17 -15 -31
-11 -17 4 -25 -2 -38 -26 -13 -24 -18 -28 -21 -15 -2 10 -9 15 -18 11 -12 -4
-14 0 -8 23 6 24 5 27 -7 18 -17 -13 -49 -14 -49 -2 0 5 -5 6 -11 3 -7 -5 -8
6 -4 32 l6 38 -20 -35 c-18 -31 -20 -32 -21 -12 0 13 -4 20 -10 17 -17 -11
-11 4 20 47 40 54 41 77 3 53 -16 -9 -40 -30 -54 -46 -56 -61 -42 -30 49 108
14 22 13 23 -17 17 -40 -8 -39 -1 4 26 19 12 35 25 35 29 0 14 -120 43 -147
36 -16 -4 -22 -2 -18 5 8 13 -25 13 -59 0 -17 -6 -26 -6 -26 0 0 6 6 10 13 10
36 2 -64 35 -283 95 -135 37 -299 83 -365 103 -138 41 -241 49 -256 20z"/>
<path d="M1580 2497 c9 -9 163 -46 172 -41 4 3 8 12 8 20 0 10 -12 14 -37 14
-21 0 -63 3 -93 6 -30 4 -53 4 -50 1z"/>
<path d="M2021 2416 c-33 -19 -34 -20 -12 -30 25 -11 55 11 49 36 -2 12 -9 11
-37 -6z"/>
<path d="M3040 2040 c0 -23 50 -117 90 -170 35 -46 40 -61 50 -149 4 -40 12
-77 17 -82 5 -5 30 0 60 11 29 11 141 47 250 81 109 33 204 67 211 74 12 11
12 23 0 76 l-14 64 -75 13 c-41 7 -185 33 -321 57 -137 25 -252 45 -258 45 -5
0 -10 -9 -10 -20z"/>
<path d="M4038 1823 c-18 -32 -58 -84 -90 -116 -65 -63 -155 -111 -403 -212
-281 -115 -332 -125 -421 -80 -27 14 -49 25 -50 25 0 0 1 -24 4 -54 3 -33 0
-56 -7 -60 -6 -4 -11 -37 -11 -78 0 -70 0 -71 45 -119 46 -49 54 -75 34 -107
-17 -26 43 -139 134 -251 61 -77 157 -232 157 -255 0 -14 -78 -5 -113 14 -20
11 -39 20 -41 20 -2 0 3 -26 10 -57 16 -66 54 -387 54 -450 l0 -43 730 0 730
0 0 873 0 872 -218 43 c-242 48 -480 92 -499 92 -7 0 -27 -26 -45 -57z"/>
<path d="M2384 1593 c-21 -25 -39 -50 -39 -53 0 -14 115 -112 116 -99 0 8 2
23 4 34 3 17 -29 152 -38 161 -2 2 -21 -17 -43 -43z"/>
</g>
</svg>
