<?xml version="1.0" standalone="no"?>
<!DOCTYPE svg PUBLIC "-//W3C//DTD SVG 20010904//EN"
 "http://www.w3.org/TR/2001/REC-SVG-20010904/DTD/svg10.dtd">
<svg version="1.0" xmlns="http://www.w3.org/2000/svg"
 width="480.000000pt" height="360.000000pt" viewBox="0 0 480.000000 360.000000"
 preserveAspectRatio="xMidYMid meet">
<metadata>
Created by potrace 1.16, written by Peter Selinger 2001-2019
</metadata>
<rect width="1" height="360" fill="#000000"/>
<rect x="479" width="1" height="360" fill="#000000"/>
<rect width="480" height="1" fill="#000000"/>
<rect y="359" width="480" height="1" fill="#000000"/>
<g transform="translate(0.000000,360.000000) scale(0.100000,-0.100000)"
fill="#000000" stroke="none">
<path d="M2294 3361 c-42 -19 -86 -68 -99 -108 -4 -16 -14 -23 -31 -23 -15 0
-38 -13 -56 -30 -27 -28 -29 -34 -24 -78 4 -26 8 -67 10 -93 4 -50 24 -95 69
-152 27 -35 29 -43 24 -98 -5 -55 6 -79 19 -44 10 26 24 16 24 -16 0 -27 2
-30 15 -19 11 9 15 9 15 1 0 -7 4 -9 10 -6 5 3 21 -6 35 -22 l24 -28 1 30 c1
26 2 28 11 12 9 -15 3 -27 -35 -67 -25 -27 -56 -70 -68 -97 -12 -26 -24 -50
-26 -52 -1 -3 -9 5 -18 17 -47 67 -214 93 -214 33 0 -11 -4 -23 -10 -26 -5 -3
-10 -17 -10 -31 0 -13 -4 -24 -8 -24 -5 0 -7 -15 -6 -32 4 -52 30 -65 131 -66
48 0 94 -1 101 -1 6 -1 12 -14 12 -30 0 -22 6 -30 25 -35 22 -6 25 -12 25 -49
0 -24 11 -65 26 -97 16 -33 30 -86 35 -131 8 -71 7 -81 -16 -130 -14 -30 -39
-72 -55 -94 -34 -47 -37 -77 -11 -125 18 -35 18 -35 -6 -105 -36 -99 -49 -122
-107 -183 -55 -58 -142 -119 -257 -178 -50 -26 -102 -66 -168 -130 -53 -51
-144 -131 -203 -179 -106 -85 -118 -98 -98 -110 6 -3 10 -15 10 -25 0 -11 19
-32 44 -50 25 -18 47 -43 50 -55 3 -13 18 -38 33 -56 36 -42 164 -124 172
-110 8 13 90 -25 98 -46 7 -18 36 -31 133 -58 67 -19 77 -25 92 -56 9 -18 17
-40 18 -48 0 -14 -53 -72 -167 -183 -35 -34 -63 -65 -63 -69 0 -5 68 -9 151
-9 l151 0 73 58 c41 31 82 72 92 91 44 80 50 96 46 112 -10 38 74 37 163 -2
51 -23 110 -20 150 6 27 17 77 24 267 34 138 8 151 10 207 40 33 17 62 31 64
31 5 0 38 -89 47 -129 6 -27 3 -46 -11 -79 -11 -23 -17 -49 -14 -56 3 -8 -2
-28 -10 -45 -31 -58 -27 -61 89 -61 96 0 105 2 116 21 6 12 14 87 17 166 5
137 4 145 -17 174 -19 25 -51 107 -51 131 0 4 26 25 59 47 124 85 167 147 162
238 -2 50 -32 141 -62 189 -20 33 -20 36 -4 60 16 24 15 27 -5 57 -36 52 -149
136 -207 153 -31 9 -57 24 -66 38 -9 13 -48 60 -87 106 -87 101 -108 134 -178
275 -29 61 -65 124 -78 142 -13 17 -24 34 -24 36 0 2 39 7 88 9 185 11 313
115 312 253 -1 68 -41 146 -151 295 -22 30 -67 99 -100 152 -34 54 -81 120
-105 147 l-45 50 1 133 c0 130 -1 134 -33 198 -17 35 -47 78 -66 96 -48 44
-66 62 -111 115 -58 67 -130 99 -222 99 -50 0 -86 -6 -114 -19z"/>
</g>
</svg>
