<?xml version="1.0" standalone="no"?>
<!DOCTYPE svg PUBLIC "-//W3C//DTD SVG 20010904//EN"
 "http://www.w3.org/TR/2001/REC-SVG-20010904/DTD/svg10.dtd">
<svg version="1.0" xmlns="http://www.w3.org/2000/svg"
 width="480.000000pt" height="360.000000pt" viewBox="0 0 480.000000 360.000000"
 preserveAspectRatio="xMidYMid meet">
<metadata>
Created by potrace 1.16, written by Peter Selinger 2001-2019
</metadata>
<rect width="1" height="360" fill="#000000"/>
<rect x="479" width="1" height="360" fill="#000000"/>
<rect width="480" height="1" fill="#000000"/>
<rect y="359" width="480" height="1" fill="#000000"/>
<g transform="translate(0.000000,360.000000) scale(0.100000,-0.100000)"
fill="#000000" stroke="none">
<path d="M0 1800 l0 -1800 1034 0 c752 0 1037 3 1042 11 4 6 9 52 12 103 2 52
10 97 17 106 9 10 13 50 13 120 0 58 5 125 11 150 15 64 14 150 -1 150 -7 1
-49 7 -93 15 -44 8 -95 15 -113 15 -18 0 -94 18 -168 41 -74 22 -144 42 -157
44 -169 33 -320 87 -388 142 -8 5 -33 13 -56 17 -101 15 -116 46 -50 99 33 27
45 31 106 31 38 1 75 7 83 13 30 26 88 42 199 58 140 20 234 46 319 91 82 43
139 92 120 104 -10 6 -8 15 9 43 12 19 28 38 36 41 8 3 15 15 15 26 0 12 5 30
11 42 10 19 9 20 -21 13 -61 -13 -91 41 -95 172 l-3 92 51 18 c33 11 85 17
142 18 l90 1 -3 55 c-4 56 -38 237 -53 275 -6 18 -17 23 -51 26 -36 3 -43 6
-43 25 0 32 -10 36 -44 19 -17 -9 -36 -15 -42 -14 -6 2 -32 -22 -57 -52 -46
-56 -183 -152 -157 -110 3 6 -1 7 -9 4 -9 -3 -16 -10 -16 -14 0 -9 -80 -44
-122 -54 -21 -5 -28 -3 -28 8 0 8 5 18 10 21 18 11 11 25 -12 25 -20 0 -19 3
12 35 l34 35 -34 -6 c-19 -3 -53 -11 -75 -16 -22 -6 -65 -14 -95 -18 -30 -4
-73 -11 -95 -14 l-40 -7 27 16 c38 22 35 28 -10 21 -33 -6 -35 -5 -19 7 27 22
20 37 -18 37 -38 0 -46 13 -17 29 15 9 13 10 -10 11 -44 0 -42 17 7 69 48 52
52 76 9 65 -23 -6 -24 -5 -14 22 22 59 62 87 214 154 23 10 52 29 66 43 14 13
32 27 40 30 8 4 0 4 -17 1 -18 -3 -33 -3 -33 0 0 14 83 38 180 52 130 19 157
35 245 147 l65 82 -25 18 c-30 22 -32 43 -5 59 11 7 20 17 20 23 0 5 17 19 37
30 20 11 38 25 40 30 2 6 -22 25 -52 43 -30 18 -55 38 -55 44 0 12 105 3 145
-12 22 -8 25 -5 45 55 32 96 44 96 64 -4 l11 -55 73 -13 c104 -17 140 -31 164
-63 11 -16 32 -31 47 -35 34 -9 81 -54 81 -79 0 -11 9 -30 21 -42 30 -32 18
-61 -34 -75 -49 -14 -60 -22 -62 -46 -1 -10 -9 -35 -18 -57 -10 -21 -17 -46
-17 -56 0 -36 116 -102 210 -120 36 -7 67 -4 148 16 56 14 119 24 140 22 l37
-3 -27 -14 c-33 -17 -36 -31 -7 -31 27 0 61 -19 54 -30 -7 -11 51 -20 148 -22
43 -1 81 -6 83 -10 3 -4 0 -8 -5 -8 -6 0 -11 -6 -11 -14 0 -8 -11 -16 -23 -20
-31 -7 -79 -45 -72 -56 17 -27 -218 -32 -312 -7 -56 16 -71 16 -174 2 -62 -8
-116 -18 -121 -23 -13 -13 2 -42 21 -42 10 0 21 -3 24 -7 8 -7 133 -5 161 4
15 4 18 1 14 -15 -5 -18 -3 -20 19 -11 32 12 33 12 33 -5 0 -26 -74 -81 -135
-99 -87 -27 -110 -40 -113 -66 -2 -12 15 -76 37 -141 23 -65 41 -126 41 -135
0 -42 132 -196 203 -238 23 -14 70 -37 105 -51 60 -25 75 -27 330 -36 311 -11
365 -22 429 -89 10 -10 39 -21 68 -25 58 -7 65 -13 82 -69 16 -52 16 -114 2
-158 -12 -34 -95 -129 -114 -129 -5 0 -29 -13 -52 -29 -47 -31 -87 -37 -308
-46 -60 -2 -153 -9 -205 -16 -52 -6 -114 -8 -137 -5 -38 5 -45 3 -60 -21 -30
-45 -201 -110 -338 -127 -115 -15 -146 -28 -173 -71 -14 -22 -28 -42 -32 -45
-4 -3 -20 -39 -35 -80 -26 -72 -27 -81 -22 -211 4 -97 10 -145 21 -167 9 -17
16 -47 16 -67 l0 -35 1205 0 1205 0 0 1800 0 1800 -2400 0 -2400 0 0 -1800z"/>
<path d="M2385 2390 c7 -11 65 -43 65 -36 0 2 -16 13 -36 25 -19 12 -32 16
-29 11z"/>
</g>
</svg>
