<?xml version="1.0" standalone="no"?>
<!DOCTYPE svg PUBLIC "-//W3C//DTD SVG 20010904//EN"
 "http://www.w3.org/TR/2001/REC-SVG-20010904/DTD/svg10.dtd">
<svg version="1.0" xmlns="http://www.w3.org/2000/svg"
 width="480.000000pt" height="360.000000pt" viewBox="0 0 480.000000 360.000000"
 preserveAspectRatio="xMidYMid meet">
<metadata>
Created by potrace 1.16, written by Peter Selinger 2001-2019
</metadata>
<rect width="1" height="360" fill="#000000"/>
<rect x="479" width="1" height="360" fill="#000000"/>
<rect width="480" height="1" fill="#000000"/>
<rect y="359" width="480" height="1" fill="#000000"/>
<g transform="translate(0.000000,360.000000) scale(0.100000,-0.100000)"
fill="#000000" stroke="none">
<path d="M2347 1638 c-46 -12 -80 -55 -96 -120 -14 -58 -14 -128 -1 -128 6 0
10 -18 10 -40 0 -21 5 -50 11 -64 10 -21 7 -30 -22 -66 -19 -23 -51 -61 -72
-83 -77 -82 -93 -138 -71 -244 21 -106 73 -198 122 -219 75 -31 228 -51 261
-34 9 5 37 18 62 30 28 12 57 36 73 59 25 36 26 40 16 108 -13 92 -19 108 -89
213 -53 80 -79 136 -68 147 3 2 20 -4 40 -13 34 -16 37 -16 69 3 32 19 33 22
35 84 0 35 4 90 8 121 8 62 -2 88 -35 88 -10 0 -21 7 -24 16 -9 23 -18 11 -25
-33 -5 -28 -14 -42 -39 -56 -18 -11 -35 -17 -38 -14 -3 3 10 26 27 51 32 45
33 47 20 94 -7 26 -26 61 -44 80 -33 35 -59 39 -130 20z"/>
</g>
</svg>
