<?xml version="1.0" standalone="no"?>
<!DOCTYPE svg PUBLIC "-//W3C//DTD SVG 20010904//EN"
 "http://www.w3.org/TR/2001/REC-SVG-20010904/DTD/svg10.dtd">
<svg version="1.0" xmlns="http://www.w3.org/2000/svg"
 width="480.000000pt" height="360.000000pt" viewBox="0 0 480.000000 360.000000"
 preserveAspectRatio="xMidYMid meet">
<metadata>
Created by potrace 1.16, written by Peter Selinger 2001-2019
</metadata>
<rect width="1" height="360" fill="#000000"/>
<rect x="479" width="1" height="360" fill="#000000"/>
<rect width="480" height="1" fill="#000000"/>
<rect y="359" width="480" height="1" fill="#000000"/>
<g transform="translate(0.000000,360.000000) scale(0.100000,-0.100000)"
fill="#000000" stroke="none">
<path d="M0 1800 l0 -1800 996 0 c945 0 996 1 989 17 -45 107 -53 219 -31 439
9 89 16 188 16 220 1 33 7 95 15 139 14 79 14 80 -8 97 -22 17 -22 21 -21 245
0 202 3 237 22 307 30 108 24 113 -80 75 -51 -19 -103 -31 -141 -32 -55 -1
-61 1 -88 31 -16 18 -29 42 -29 55 0 12 40 92 89 177 87 153 88 155 68 173
-11 9 -25 17 -31 17 -6 0 17 13 50 29 78 37 85 48 48 75 -16 12 -69 54 -117
95 l-88 73 -25 -23 -24 -23 -19 21 c-21 22 -52 78 -50 90 4 23 -3 41 -26 65
-22 24 -28 26 -55 16 -32 -11 -65 -4 -56 11 3 5 -1 11 -9 15 -17 6 -20 39 -5
66 9 16 0 29 -55 82 -70 69 -75 83 -56 171 5 23 15 68 21 100 14 68 58 127 96
127 17 0 24 -6 24 -20 0 -13 9 -22 25 -26 35 -9 26 -28 -15 -34 -36 -5 -54
-30 -22 -30 22 0 52 -30 52 -52 0 -14 -5 -15 -29 -5 -15 5 -35 7 -45 4 -37
-14 51 -106 118 -123 15 -3 34 -17 43 -30 10 -16 22 -23 33 -19 14 4 20 -1 24
-22 3 -15 5 -37 3 -48 -3 -25 47 -51 126 -66 58 -11 73 -29 46 -56 -8 -8 31
-39 140 -113 83 -55 154 -107 158 -115 10 -16 171 -77 177 -66 3 4 8 39 12 77
4 38 11 79 15 92 9 22 -4 31 -16 11 -9 -14 -28 -6 -31 13 -4 33 -16 58 -26 58
-7 0 -6 5 1 14 10 11 10 24 0 54 -10 36 -9 44 16 93 33 66 57 93 113 126 37
22 43 30 38 49 -3 13 -9 35 -12 48 -13 52 64 85 115 50 23 -16 25 -16 42 7 10
13 24 36 30 52 14 34 39 34 79 0 23 -19 31 -32 27 -50 -5 -27 1 -28 49 -8 34
14 35 14 44 -11 6 -14 10 -29 10 -34 0 -5 21 -12 48 -15 26 -3 53 -7 61 -8 32
-4 56 -56 56 -125 1 -57 7 -79 39 -144 52 -106 52 -148 -3 -305 -43 -125 -46
-164 -19 -217 9 -16 7 -18 -14 -13 -32 8 -49 -4 -58 -44 -7 -30 -8 -27 -9 26
-1 68 -16 60 -27 -15 -4 -25 -12 -57 -19 -72 -11 -27 -11 -26 -23 32 -13 62
-32 77 -24 18 4 -29 3 -32 -11 -19 -15 11 -17 8 -23 -30 -6 -37 -9 -40 -20
-25 -19 26 -27 3 -30 -78 -2 -91 -29 -175 -114 -356 -38 -80 -71 -157 -75
-171 -8 -33 21 -84 63 -109 16 -10 38 -31 48 -46 11 -15 53 -63 95 -108 41
-45 79 -94 83 -110 4 -15 22 -51 41 -79 40 -59 43 -87 17 -155 l-19 -49 44
-129 c46 -137 84 -272 103 -366 l11 -58 910 0 909 0 0 1800 0 1800 -2400 0
-2400 0 0 -1800z"/>
<path d="M2240 2360 c0 -5 5 -10 10 -10 6 0 10 5 10 10 0 6 -4 10 -10 10 -5 0
-10 -4 -10 -10z"/>
<path d="M2040 1946 c0 -20 11 -25 35 -16 19 7 19 7 -2 18 -28 15 -33 15 -33
-2z"/>
<path d="M2520 922 c0 -5 10 -17 21 -28 22 -19 22 -19 10 3 -12 24 -31 39 -31
25z"/>
<path d="M2656 757 c-3 -15 4 -48 20 -86 25 -62 48 -154 99 -391 28 -129 51
-193 40 -110 -14 105 -50 267 -97 430 -27 96 -51 176 -52 178 -2 1 -6 -8 -10
-21z"/>
</g>
</svg>
