<?xml version="1.0" standalone="no"?>
<!DOCTYPE svg PUBLIC "-//W3C//DTD SVG 20010904//EN"
 "http://www.w3.org/TR/2001/REC-SVG-20010904/DTD/svg10.dtd">
<svg version="1.0" xmlns="http://www.w3.org/2000/svg"
 width="480.000000pt" height="360.000000pt" viewBox="0 0 480.000000 360.000000"
 preserveAspectRatio="xMidYMid meet">
<metadata>
Created by potrace 1.16, written by Peter Selinger 2001-2019
</metadata>
<rect width="1" height="360" fill="#000000"/>
<rect x="479" width="1" height="360" fill="#000000"/>
<rect width="480" height="1" fill="#000000"/>
<rect y="359" width="480" height="1" fill="#000000"/>
<g transform="translate(0.000000,360.000000) scale(0.100000,-0.100000)"
fill="#000000" stroke="none">
<path d="M0 2785 l0 -815 895 0 894 0 16 30 c9 16 20 30 25 30 5 0 7 21 3 49
-5 43 -1 56 28 108 18 32 59 84 92 115 59 57 59 58 47 93 -7 20 -15 35 -18 33
-4 -2 -23 -12 -43 -22 -34 -17 -38 -18 -73 -1 -35 17 -48 35 -24 35 7 0 5 7
-4 18 -10 10 -16 37 -17 67 0 28 -2 59 -3 70 -2 16 2 19 20 17 24 -4 29 7 10
26 -16 16 -75 15 -85 -2 -4 -7 -18 -17 -31 -20 -18 -6 -29 0 -56 28 -18 20
-38 36 -44 36 -7 0 -12 5 -12 10 0 6 7 10 16 10 9 0 27 9 41 20 34 27 46 25
86 -9 18 -17 55 -35 81 -42 58 -14 70 -4 61 56 -5 36 -85 335 -194 730 l-38
140 -837 3 -836 2 0 -815z"/>
<path d="M1754 3583 c3 -10 44 -160 91 -333 113 -417 98 -376 147 -384 45 -7
58 2 58 41 0 26 57 73 88 73 41 0 93 -33 99 -62 12 -63 63 -72 122 -22 l30 25
41 -38 c22 -21 40 -47 40 -57 0 -10 -13 -41 -30 -68 -49 -79 -44 -84 88 -113
151 -32 317 -101 437 -180 84 -56 87 -62 80 -142 -7 -63 -10 -70 -37 -86 -16
-9 -36 -17 -44 -17 -8 0 -14 -6 -14 -13 0 -14 -23 -35 -79 -72 -53 -35 -147
-41 -164 -10 -6 11 -10 24 -9 28 3 12 -15 27 -87 75 -90 60 -129 60 -182 0
-36 -42 -58 -46 -111 -23 -33 14 -20 -29 18 -59 24 -19 49 -55 71 -102 l34
-74 1179 0 1180 0 0 815 0 815 -1526 0 c-1448 0 -1525 -1 -1520 -17z"/>
<path d="M0 950 l0 -950 2400 0 2400 0 0 950 0 950 -1126 0 -1126 0 7 -22 c14
-44 18 -159 6 -171 -9 -9 -13 -6 -17 11 -4 12 -10 22 -14 22 -15 0 -50 -57
-50 -82 0 -29 -9 -42 -37 -57 -13 -6 -23 -16 -23 -22 0 -5 28 -40 63 -77 35
-37 75 -88 89 -112 38 -65 61 -154 54 -204 -9 -57 -54 -150 -104 -213 l-41
-52 14 -53 c7 -29 36 -137 65 -240 70 -256 84 -335 65 -354 -12 -13 -16 -12
-29 8 -20 31 -56 144 -122 377 -29 107 -56 196 -59 199 -6 7 -75 -47 -75 -58
0 -6 5 -29 11 -52 36 -141 -140 -235 -205 -110 -8 15 -17 44 -21 65 l-7 37
-82 -6 c-98 -8 -120 -17 -112 -47 11 -42 19 -155 12 -189 -9 -51 -39 -78 -86
-78 -32 0 -43 5 -63 33 -38 51 -57 112 -57 181 0 85 -15 103 -97 116 -198 32
-320 112 -368 242 -17 44 -20 78 -20 203 0 172 16 251 71 352 58 106 182 190
336 229 62 15 71 21 102 64 19 27 32 51 29 54 -4 3 -406 6 -895 6 l-888 0 0
-950z"/>
</g>
</svg>
