<?xml version="1.0" standalone="no"?>
<!DOCTYPE svg PUBLIC "-//W3C//DTD SVG 20010904//EN"
 "http://www.w3.org/TR/2001/REC-SVG-20010904/DTD/svg10.dtd">
<svg version="1.0" xmlns="http://www.w3.org/2000/svg"
 width="480.000000pt" height="360.000000pt" viewBox="0 0 480.000000 360.000000"
 preserveAspectRatio="xMidYMid meet">
<metadata>
Created by potrace 1.16, written by Peter Selinger 2001-2019
</metadata>
<rect width="1" height="360" fill="#000000"/>
<rect x="479" width="1" height="360" fill="#000000"/>
<rect width="480" height="1" fill="#000000"/>
<rect y="359" width="480" height="1" fill="#000000"/>
<g transform="translate(0.000000,360.000000) scale(0.100000,-0.100000)"
fill="#000000" stroke="none">
<path d="M2576 3478 c-25 -457 -82 -1024 -156 -1538 -110 -769 -165 -1270
-190 -1735 -5 -99 -10 -186 -10 -192 0 -10 265 -13 1290 -13 l1290 0 0 120 c0
66 -2 120 -4 120 -2 0 -50 -22 -107 -49 -178 -85 -217 -95 -354 -95 -110 0
-125 2 -179 28 -96 44 -210 122 -346 235 -125 103 -191 166 -188 179 3 16 85
76 234 172 82 52 264 212 264 231 0 5 -11 9 -24 9 -41 0 -208 64 -268 103 -62
39 -72 57 -35 57 20 0 23 4 19 30 -5 36 -3 36 59 5 27 -13 49 -22 49 -18 0 3
11 -2 24 -10 17 -11 26 -13 34 -5 14 14 186 12 212 -2 30 -16 46 -12 60 15 16
30 38 32 71 7 13 -10 40 -27 59 -39 19 -11 96 -57 170 -103 74 -45 161 -95
193 -111 l57 -29 0 1375 0 1375 -1109 0 -1109 0 -6 -122z"/>
<path d="M0 3037 l0 -212 158 -75 c218 -104 327 -164 437 -242 52 -38 105 -68
117 -68 12 0 37 14 54 31 l33 32 44 -21 c85 -40 341 -58 368 -26 22 27 -2 47
-69 59 -67 13 -81 20 -66 35 14 14 161 -7 191 -26 12 -8 30 -14 40 -14 10 0
44 -27 76 -60 66 -67 107 -81 107 -35 0 14 7 28 15 31 39 15 -3 72 -84 113
-20 11 -46 33 -59 50 -12 17 -38 39 -56 49 -207 108 -196 104 -285 110 l-85 7
-9 35 c-5 19 -12 39 -16 43 -5 5 -55 22 -112 38 -128 37 -237 84 -371 158
-212 118 -241 133 -325 166 -47 19 -89 35 -94 35 -5 0 -9 -96 -9 -213z"/>
</g>
</svg>
