<?xml version="1.0" standalone="no"?>
<!DOCTYPE svg PUBLIC "-//W3C//DTD SVG 20010904//EN"
 "http://www.w3.org/TR/2001/REC-SVG-20010904/DTD/svg10.dtd">
<svg version="1.0" xmlns="http://www.w3.org/2000/svg"
 width="480.000000pt" height="360.000000pt" viewBox="0 0 480.000000 360.000000"
 preserveAspectRatio="xMidYMid meet">
<metadata>
Created by potrace 1.16, written by Peter Selinger 2001-2019
</metadata>
<rect width="1" height="360" fill="#000000"/>
<rect x="479" width="1" height="360" fill="#000000"/>
<rect width="480" height="1" fill="#000000"/>
<rect y="359" width="480" height="1" fill="#000000"/>
<g transform="translate(0.000000,360.000000) scale(0.100000,-0.100000)"
fill="#000000" stroke="none">
<path d="M0 1800 l0 -1800 1000 0 c848 0 1000 2 1000 14 0 44 24 238 41 340
19 104 20 133 11 225 -6 66 -6 130 0 171 7 52 5 79 -8 132 -14 52 -15 70 -6
81 9 11 10 22 1 43 -7 19 -9 66 -4 137 3 59 2 107 -2 107 -4 0 -19 -15 -33
-34 -32 -43 -92 -86 -122 -86 -12 0 -61 8 -108 16 -50 10 -147 17 -233 18
-146 1 -148 1 -167 26 l-19 25 -59 -32 c-69 -38 -99 -40 -262 -18 -79 10 -116
11 -148 3 -37 -9 -46 -8 -60 6 -15 15 -15 18 10 41 16 15 39 25 56 25 33 0
180 69 201 94 22 26 0 40 -64 41 -113 1 -94 49 25 65 110 14 174 12 220 -6 40
-16 42 -16 65 6 15 14 30 20 41 16 9 -3 31 -1 50 6 28 10 45 8 121 -15 95 -29
274 -60 285 -49 4 4 27 65 52 136 36 104 44 137 40 175 -6 45 -4 48 67 135 72
89 72 89 72 150 -1 51 3 65 28 96 16 20 51 53 78 74 33 25 52 47 56 67 4 17 5
33 2 35 -3 3 -22 -2 -43 -11 -36 -15 -74 -13 -74 5 0 4 -18 25 -40 46 -22 21
-40 44 -40 52 0 7 -14 18 -30 23 -34 13 -36 20 -14 55 14 21 15 29 4 49 -8 16
-23 26 -39 27 -14 1 -34 2 -45 2 -10 1 -27 13 -38 26 -12 14 -24 24 -29 23 -4
-2 -11 18 -15 44 l-7 46 -19 -24 c-11 -13 -18 -17 -15 -9 2 8 17 58 31 110 42
145 71 198 136 243 35 24 54 45 52 55 -1 9 -5 40 -8 68 l-6 51 58 6 c35 4 63
2 71 -5 23 -19 39 -1 52 58 14 62 46 144 57 144 3 0 14 -10 23 -21 l18 -22 41
44 c49 53 55 51 127 -44 71 -93 119 -191 121 -250 2 -43 6 -51 44 -81 114 -90
182 -304 235 -746 13 -109 24 -149 85 -319 74 -205 115 -360 126 -485 6 -66 5
-76 -9 -76 -11 0 -18 -13 -23 -37 -4 -21 -10 -45 -15 -53 -4 -9 -1 -40 7 -70
l15 -55 -55 -152 c-48 -131 -75 -234 -100 -384 -4 -20 -14 -46 -24 -57 -15
-17 -21 -55 -31 -210 -7 -105 -9 -222 -5 -261 l7 -71 993 0 994 0 0 1800 0
1800 -2400 0 -2400 0 0 -1800z"/>
<path d="M2071 1175 c0 -16 4 -48 8 -70 l9 -40 0 50 c0 28 -3 59 -8 70 -7 17
-9 16 -9 -10z"/>
</g>
</svg>
