<?xml version="1.0" standalone="no"?>
<!DOCTYPE svg PUBLIC "-//W3C//DTD SVG 20010904//EN"
 "http://www.w3.org/TR/2001/REC-SVG-20010904/DTD/svg10.dtd">
<svg version="1.0" xmlns="http://www.w3.org/2000/svg"
 width="480.000000pt" height="360.000000pt" viewBox="0 0 480.000000 360.000000"
 preserveAspectRatio="xMidYMid meet">
<metadata>
Created by potrace 1.16, written by Peter Selinger 2001-2019
</metadata>
<rect width="1" height="360" fill="#000000"/>
<rect x="479" width="1" height="360" fill="#000000"/>
<rect width="480" height="1" fill="#000000"/>
<rect y="359" width="480" height="1" fill="#000000"/>
<g transform="translate(0.000000,360.000000) scale(0.100000,-0.100000)"
fill="#000000" stroke="none">
<path d="M2263 2463 c-24 -3 -35 -12 -47 -38 -21 -43 -20 -67 3 -96 10 -13 24
-41 30 -61 7 -21 17 -38 22 -38 17 0 9 -18 -11 -23 -13 -3 -18 -11 -14 -20 3
-9 -14 -40 -40 -75 -52 -68 -55 -81 -25 -108 17 -15 20 -27 16 -64 -7 -73 -36
-139 -67 -155 -37 -19 -46 -55 -18 -76 11 -9 18 -21 15 -26 -9 -15 -64 -342
-77 -458 -6 -55 -12 -114 -15 -132 -3 -28 1 -35 31 -52 39 -23 115 -50 154
-53 28 -3 40 -15 40 -40 0 -24 -27 -36 -122 -54 -119 -22 -130 -45 -28 -60 25
-3 51 -14 58 -23 24 -30 276 -13 319 21 19 15 7 26 -37 38 -22 6 -40 17 -40
24 0 7 -7 27 -16 44 -8 18 -13 36 -10 41 3 4 33 14 66 22 l60 13 0 51 c0 27
-5 79 -10 115 -5 36 -14 126 -20 201 -6 79 -22 178 -37 235 -37 141 -39 173
-14 227 23 51 26 76 11 126 -6 23 -6 39 1 47 7 8 7 14 0 18 -6 4 -8 20 -5 35
7 33 -10 94 -33 117 -16 16 -14 24 9 28 44 8 58 19 68 56 9 35 8 46 -15 89
-14 28 -38 64 -55 81 -30 31 -53 35 -147 23z m104 -555 c-3 -8 -6 -5 -6 6 -1
11 2 17 5 13 3 -3 4 -12 1 -19z"/>
<path d="M4685 1270 c-152 -39 -361 -108 -373 -123 -5 -6 -12 -34 -16 -60 -6
-47 -5 -48 25 -61 19 -8 37 -26 45 -45 13 -31 14 -32 63 -25 45 6 50 4 66 -20
27 -41 49 -33 81 32 38 75 92 114 169 120 l55 4 0 104 c0 57 -1 104 -2 103 -2
0 -53 -13 -113 -29z"/>
</g>
</svg>
