<?xml version="1.0" standalone="no"?>
<!DOCTYPE svg PUBLIC "-//W3C//DTD SVG 20010904//EN"
 "http://www.w3.org/TR/2001/REC-SVG-20010904/DTD/svg10.dtd">
<svg version="1.0" xmlns="http://www.w3.org/2000/svg"
 width="480.000000pt" height="360.000000pt" viewBox="0 0 480.000000 360.000000"
 preserveAspectRatio="xMidYMid meet">
<metadata>
Created by potrace 1.16, written by Peter Selinger 2001-2019
</metadata>
<rect width="1" height="360" fill="#000000"/>
<rect x="479" width="1" height="360" fill="#000000"/>
<rect width="480" height="1" fill="#000000"/>
<rect y="359" width="480" height="1" fill="#000000"/>
<g transform="translate(0.000000,360.000000) scale(0.100000,-0.100000)"
fill="#000000" stroke="none">
<path d="M0 1800 l0 -1800 169 0 168 0 -13 52 c-8 29 -14 65 -14 81 0 35 -16
67 -35 67 -25 0 -27 20 -4 51 18 26 20 35 10 51 -10 15 -8 23 8 44 16 21 18
30 9 54 -8 25 -6 36 12 65 25 40 151 142 349 282 158 113 277 227 415 402 l98
124 -17 106 c-10 58 -17 119 -16 135 1 22 -6 36 -26 52 l-28 22 33 30 c31 29
32 33 32 110 l0 80 -39 -5 c-53 -7 -99 10 -187 69 -41 27 -80 48 -87 45 -22
-8 -43 11 -106 93 -71 94 -80 126 -82 295 -2 366 262 760 632 941 l57 27 -19
55 c-28 80 -23 85 17 19 20 -32 42 -56 48 -54 372 143 765 106 1084 -103 89
-58 116 -86 187 -195 41 -63 64 -145 65 -227 0 -35 -6 -54 -24 -75 -15 -18
-29 -53 -36 -93 -14 -77 -44 -151 -72 -177 -11 -10 -43 -29 -71 -43 -46 -22
-56 -33 -87 -92 -64 -123 -140 -179 -265 -194 -63 -7 -68 -11 -148 -107 -21
-26 -33 -48 -27 -52 5 -3 14 -4 19 -1 27 17 79 -111 87 -214 5 -75 -14 -126
-56 -147 -116 -58 -205 -92 -226 -87 -34 9 -59 45 -84 120 -35 104 -50 78 -41
-70 5 -69 10 -91 25 -101 12 -9 16 -20 11 -34 -4 -13 4 -46 19 -85 47 -117 58
-228 57 -576 0 -173 -3 -360 -7 -415 -4 -72 -1 -123 10 -180 9 -44 16 -95 16
-112 l0 -33 1490 0 1490 0 0 734 0 734 -44 -10 c-24 -5 -66 -8 -92 -6 l-49 3
50 24 c36 16 62 21 92 18 l43 -5 0 1054 0 1054 -2400 0 -2400 0 0 -1800z
m2626 1609 c18 -20 18 -21 -1 -36 -13 -9 -32 -13 -54 -9 -46 7 -56 19 -39 45
17 28 68 28 94 0z m1969 -129 c-3 -5 -21 -10 -40 -10 -19 0 -37 5 -40 10 -4 6
12 10 40 10 28 0 44 -4 40 -10z m-1345 -111 c3 -3 15 -11 28 -18 12 -6 22 -16
22 -22 0 -15 -52 19 -75 49 -19 27 -19 27 0 12 11 -8 22 -18 25 -21z m-190 13
c0 -16 -62 -103 -81 -113 -40 -21 -19 39 34 99 20 22 47 30 47 14z m-119 -166
c4 -15 5 -35 2 -43 -5 -14 -8 -13 -20 3 -17 23 -18 77 -1 72 7 -3 15 -17 19
-32z m1414 -186 c16 -7 13 -9 -15 -8 -19 0 -48 4 -65 8 -27 7 -26 8 15 8 25 0
54 -3 65 -8z m-1700 -856 c49 -19 -65 -42 -118 -25 -20 7 -38 19 -41 28 -6 14
2 15 69 9 42 -4 82 -9 90 -12z m780 -64 c17 -7 15 -9 -12 -9 -17 -1 -35 4 -38
9 -7 12 22 12 50 0z m-1060 -142 c-9 -54 -21 -67 -29 -34 -9 35 3 76 21 76 12
0 13 -9 8 -42z m1555 -199 c50 -11 60 -29 15 -29 -28 0 -75 20 -75 32 0 10 -1
10 60 -3z m53 -221 c-13 -12 -26 -18 -30 -14 -4 4 1 14 11 22 31 22 43 17 19
-8z m-3473 -58 c28 -8 22 -12 -48 -30 -69 -18 -107 6 -48 30 26 11 62 11 96 0z
m2677 -277 c6 -17 -36 -38 -49 -25 -17 17 -1 44 24 40 12 -2 23 -8 25 -15z
m762 -348 c65 -40 70 -67 8 -41 -20 8 -40 23 -46 34 -21 40 -15 41 38 7z
m-690 -211 c15 -34 14 -41 -8 -47 -41 -10 -62 23 -41 63 13 24 34 17 49 -16z
m-4 -268 c19 -8 35 -19 35 -25 0 -25 -86 -24 -102 2 -7 12 8 37 24 37 5 0 24
-7 43 -14z m1039 -47 c14 -11 33 -34 41 -50 15 -29 15 -29 -15 -29 -60 0 -130
48 -130 90 0 19 76 11 104 -11z"/>
<path d="M1878 1904 c-27 -8 -48 -16 -48 -19 0 -9 42 -180 45 -183 5 -5 46 17
67 35 16 14 16 18 1 47 -9 17 -17 40 -19 51 -1 11 -6 29 -10 39 -6 16 -4 18
20 14 21 -4 26 -2 22 9 -3 8 -6 17 -6 19 0 7 -23 3 -72 -12z"/>
<path d="M1296 1545 c-3 -8 -1 -25 4 -37 8 -20 9 -18 9 15 1 39 -3 47 -13 22z"/>
</g>
</svg>
