<?xml version="1.0" standalone="no"?>
<!DOCTYPE svg PUBLIC "-//W3C//DTD SVG 20010904//EN"
 "http://www.w3.org/TR/2001/REC-SVG-20010904/DTD/svg10.dtd">
<svg version="1.0" xmlns="http://www.w3.org/2000/svg"
 width="480.000000pt" height="360.000000pt" viewBox="0 0 480.000000 360.000000"
 preserveAspectRatio="xMidYMid meet">
<metadata>
Created by potrace 1.16, written by Peter Selinger 2001-2019
</metadata>
<rect width="1" height="360" fill="#000000"/>
<rect x="479" width="1" height="360" fill="#000000"/>
<rect width="480" height="1" fill="#000000"/>
<rect y="359" width="480" height="1" fill="#000000"/>
<g transform="translate(0.000000,360.000000) scale(0.100000,-0.100000)"
fill="#000000" stroke="none">
<path d="M356 3578 c-10 -37 -7 -231 4 -289 6 -30 15 -128 20 -219 6 -91 13
-189 16 -217 6 -50 5 -53 -16 -53 -12 0 -33 -14 -48 -32 -15 -17 -41 -47 -59
-65 -28 -31 -31 -39 -29 -91 3 -54 30 -132 46 -132 9 0 36 54 45 93 4 15 11
27 15 25 4 -2 33 -34 64 -73 69 -87 72 -127 15 -215 -5 -8 -12 -23 -15 -32 -4
-10 -15 -18 -26 -18 -11 0 -28 -5 -39 -11 -11 -5 -39 -13 -62 -17 -23 -4 -42
-13 -42 -19 0 -6 -3 -15 -7 -19 -16 -15 -7 -20 40 -23 26 -1 49 -7 51 -13 2
-6 12 -19 22 -29 20 -20 83 -26 108 -10 11 7 30 -7 74 -55 33 -36 72 -71 88
-79 63 -33 129 -5 129 54 0 16 4 41 10 55 8 21 6 26 -10 31 -17 5 -20 16 -20
68 l0 63 96 62 96 63 -22 19 c-26 22 -45 25 -55 9 -4 -6 -14 -8 -22 -5 -9 4
-22 1 -30 -5 -7 -7 -16 -10 -18 -7 -11 11 29 127 59 173 60 89 73 124 31 85
-30 -28 -30 -28 -5 46 12 34 18 70 15 84 -21 88 -26 100 -44 100 -11 0 -22 7
-25 16 -5 13 -9 14 -21 4 -13 -11 -14 -10 -9 4 4 11 1 16 -10 16 -9 0 -16 6
-16 13 0 6 -9 1 -19 -12 -24 -31 -45 -19 -37 21 11 54 78 151 176 253 128 134
184 209 177 236 -3 12 0 34 8 49 15 30 11 40 -15 40 -10 0 -23 7 -30 15 -9 11
-23 13 -50 9 -25 -4 -47 -1 -68 10 -17 9 -53 16 -80 16 -27 0 -57 6 -68 15
-15 11 -57 14 -200 15 -180 0 -182 0 -188 -22z"/>
<path d="M2400 1800 l0 -1800 814 0 813 0 26 58 c34 76 54 159 62 261 4 46 15
118 26 159 22 88 22 82 4 106 -14 18 -17 17 -79 -23 -78 -51 -106 -51 -119 -1
-5 19 -7 68 -4 107 6 81 -4 99 -28 53 -15 -30 -35 -40 -35 -19 0 8 -4 8 -14 0
-18 -15 -30 1 -21 30 6 19 5 20 -15 9 -21 -11 -22 -10 -18 24 3 28 1 33 -9 24
-11 -9 -12 -6 -4 16 6 14 17 39 26 56 21 41 19 57 -5 29 l-19 -24 9 32 c19 72
67 138 162 226 90 84 148 162 148 201 0 26 99 155 133 173 36 19 47 19 96 -4
59 -27 130 -124 131 -179 0 -24 -41 -66 -61 -62 -8 2 -13 -4 -12 -12 2 -8 -17
-29 -41 -45 l-44 -30 48 -48 c55 -54 83 -107 102 -192 12 -57 14 -60 43 -60
23 0 31 5 33 23 2 12 -1 22 -7 22 -6 0 -10 3 -9 7 0 5 -2 16 -6 25 -5 11 -2
24 9 35 17 16 19 15 46 -15 17 -19 29 -44 29 -60 1 -15 7 -38 15 -52 19 -33
19 -104 -1 -146 -19 -40 -85 -103 -142 -135 -37 -21 -42 -28 -42 -61 0 -20 24
-106 54 -192 43 -121 76 -257 76 -312 0 -2 52 -4 115 -4 l115 0 0 1800 0 1800
-1200 0 -1200 0 0 -1800z"/>
<path d="M4154 1021 c-15 -23 -24 -44 -21 -47 3 -3 18 13 33 35 15 23 24 44
21 47 -3 3 -18 -13 -33 -35z"/>
<path d="M4246 894 c-3 -9 -6 -34 -6 -57 0 -57 17 -29 18 29 1 47 -2 54 -12
28z"/>
</g>
</svg>
