<?xml version="1.0" standalone="no"?>
<!DOCTYPE svg PUBLIC "-//W3C//DTD SVG 20010904//EN"
 "http://www.w3.org/TR/2001/REC-SVG-20010904/DTD/svg10.dtd">
<svg version="1.0" xmlns="http://www.w3.org/2000/svg"
 width="480.000000pt" height="360.000000pt" viewBox="0 0 480.000000 360.000000"
 preserveAspectRatio="xMidYMid meet">
<metadata>
Created by potrace 1.16, written by Peter Selinger 2001-2019
</metadata>
<rect width="1" height="360" fill="#000000"/>
<rect x="479" width="1" height="360" fill="#000000"/>
<rect width="480" height="1" fill="#000000"/>
<rect y="359" width="480" height="1" fill="#000000"/>
<g transform="translate(0.000000,360.000000) scale(0.100000,-0.100000)"
fill="#000000" stroke="none">
<path d="M0 2297 l0 -1304 53 9 c28 5 72 16 97 24 107 37 152 45 273 51 139 7
150 12 129 59 -7 13 -20 24 -31 24 -40 0 -46 25 -22 103 15 50 25 119 32 226
l9 153 -24 19 c-29 23 -41 55 -29 72 10 13 40 103 69 205 13 46 15 68 7 81 -7
10 -7 25 -1 41 5 14 12 52 14 85 7 81 22 101 85 114 45 10 56 9 83 -7 17 -10
37 -31 45 -47 8 -17 20 -36 28 -43 17 -17 16 -27 -3 -43 -12 -10 -15 -24 -10
-60 5 -37 3 -50 -9 -56 -12 -7 -14 -22 -9 -85 l7 -75 54 -43 c52 -40 54 -44
51 -83 l-3 -42 -49 -7 c-51 -7 -70 -23 -59 -48 7 -18 122 -396 130 -428 7 -31
-25 -30 -52 2 -11 13 -30 27 -42 31 -19 5 -22 1 -28 -35 -6 -37 -4 -46 25 -81
18 -22 30 -42 28 -44 -4 -4 -129 -26 -463 -83 -62 -11 -155 -17 -242 -17
l-143 0 0 -482 0 -483 920 0 c725 0 921 3 927 13 4 6 26 27 48 46 23 20 61 73
91 125 123 223 99 188 238 350 54 64 96 119 93 122 -6 6 -267 -74 -283 -87 -7
-6 -9 -24 -4 -52 5 -23 7 -44 4 -46 -6 -6 -24 48 -24 74 0 22 -2 23 -32 14
-58 -16 -126 -11 -148 11 -11 11 -20 24 -20 30 0 5 39 21 88 35 48 14 98 30
111 36 l23 10 -26 24 c-22 21 -25 28 -16 45 13 24 43 26 64 4 21 -20 20 -41
-1 -53 -10 -5 -15 -12 -12 -15 10 -11 367 122 397 147 19 15 55 88 47 95 -4 4
-21 12 -38 18 -27 9 -36 8 -59 -9 -27 -20 -28 -20 -49 -2 -13 12 -19 28 -16
42 4 20 -9 27 -137 78 -162 64 -229 96 -233 110 -2 6 3 20 11 30 14 19 15 19
54 -3 22 -12 104 -47 183 -77 l142 -55 24 26 c30 33 55 28 67 -13 8 -24 20
-36 48 -48 21 -8 46 -15 54 -15 22 0 95 76 119 123 20 38 20 39 1 52 -10 8
-23 16 -27 17 -5 2 3 26 17 54 18 36 27 75 31 130 3 44 12 92 20 107 13 26 12
30 -16 63 -37 42 -39 76 -9 140 l23 46 -23 18 c-12 10 -22 27 -22 38 0 25 -33
54 -54 46 -10 -4 -29 6 -54 28 l-38 34 12 65 c7 35 13 68 13 73 1 5 -101 6
-241 2 -426 -12 -756 -34 -943 -63 -143 -22 -149 -22 -153 5 -6 43 39 73 141
93 91 18 472 39 787 44 492 9 484 8 522 37 19 14 66 33 108 43 41 10 93 27
115 38 26 13 62 21 100 21 l60 1 0 -57 c0 -64 7 -75 53 -84 23 -5 33 -2 37 8
5 13 14 12 62 -4 31 -11 84 -19 118 -19 68 0 97 -17 116 -67 11 -28 1 -212
-11 -212 -8 0 -45 112 -56 168 -8 39 -35 56 -78 48 -23 -5 -38 -18 -59 -53
-25 -41 -27 -49 -16 -74 6 -16 9 -43 5 -61 -3 -18 -2 -48 4 -66 17 -61 3 -92
-78 -170 l-75 -74 11 -220 c6 -121 13 -222 15 -224 5 -5 137 51 291 125 71 33
131 61 132 61 10 0 54 -104 47 -111 -7 -6 -100 -47 -480 -209 -27 -11 -27 -19
-4 -84 l17 -49 130 -39 c71 -21 210 -58 308 -83 99 -25 182 -48 185 -51 3 -3
0 -13 -5 -22 -26 -41 -204 -20 -466 57 -54 15 -100 26 -102 24 -14 -14 146
-203 317 -376 63 -63 68 -71 61 -100 -16 -77 -121 -207 -167 -207 -14 0 -35
-9 -48 -20 -24 -19 -21 -19 744 -20 l767 0 0 1800 0 1800 -921 0 -921 0 63
-42 c92 -62 187 -155 310 -304 182 -221 254 -275 470 -354 72 -27 155 -64 185
-84 29 -20 57 -36 61 -36 5 0 13 -9 18 -19 6 -10 25 -40 43 -65 54 -75 27 -74
-52 2 -79 77 -93 83 -243 107 -178 29 -307 84 -436 182 -34 26 -142 126 -240
223 -98 96 -195 184 -215 194 -45 23 -114 23 -192 0 -91 -26 -181 -29 -241 -8
-69 25 -132 82 -165 149 l-26 55 -1149 0 -1149 0 0 -1303z m4340 1108 c0 -8
-7 -15 -15 -15 -16 0 -20 12 -8 23 11 12 23 8 23 -8z m190 -815 c0 -15 -11
-12 -52 14 -21 12 -35 26 -32 29 9 8 84 -31 84 -43z m55 -1170 c-3 -5 -11 -10
-16 -10 -6 0 -7 5 -4 10 3 6 11 10 16 10 6 0 7 -4 4 -10z"/>
<path d="M635 1150 c-13 -20 29 -65 60 -65 35 0 41 15 18 43 -22 26 -68 38
-78 22z"/>
<path d="M2084 85 c-33 -36 -60 -70 -62 -75 -2 -6 83 -10 227 -10 l231 0 -21
21 c-16 16 -23 18 -34 9 -18 -15 -66 -5 -99 21 -18 14 -33 18 -51 13 -21 -5
-27 -2 -32 14 -2 11 -16 23 -29 26 -13 4 -24 13 -24 22 0 8 -5 12 -10 9 -6 -4
-17 -2 -24 4 -11 9 -26 -3 -72 -54z"/>
<path d="M2588 3 c7 -3 16 -2 19 1 4 3 -2 6 -13 5 -11 0 -14 -3 -6 -6z"/>
</g>
</svg>
