<?xml version="1.0" standalone="no"?>
<!DOCTYPE svg PUBLIC "-//W3C//DTD SVG 20010904//EN"
 "http://www.w3.org/TR/2001/REC-SVG-20010904/DTD/svg10.dtd">
<svg version="1.0" xmlns="http://www.w3.org/2000/svg"
 width="480.000000pt" height="360.000000pt" viewBox="0 0 480.000000 360.000000"
 preserveAspectRatio="xMidYMid meet">
<metadata>
Created by potrace 1.16, written by Peter Selinger 2001-2019
</metadata>
<rect width="1" height="360" fill="#000000"/>
<rect x="479" width="1" height="360" fill="#000000"/>
<rect width="480" height="1" fill="#000000"/>
<rect y="359" width="480" height="1" fill="#000000"/>
<g transform="translate(0.000000,360.000000) scale(0.100000,-0.100000)"
fill="#000000" stroke="none">
<path d="M1598 3568 c11 -56 7 -319 -7 -398 -25 -150 -130 -411 -199 -499 -15
-18 -31 -41 -37 -50 -35 -59 -252 -272 -294 -289 -7 -3 -24 -15 -36 -27 -62
-57 -351 -172 -490 -194 -120 -19 -258 -22 -375 -7 -63 8 -125 18 -138 22
l-22 6 0 -1066 0 -1066 1325 0 1325 0 0 23 c0 78 65 341 126 509 77 216 104
312 139 508 15 80 38 196 52 258 19 87 22 120 15 140 -6 15 -13 54 -17 87 -10
105 -14 114 -53 134 -59 30 -77 56 -76 109 0 26 4 58 9 71 l8 25 -29 -21 c-48
-34 -114 -64 -125 -57 -6 3 -19 19 -28 35 l-18 29 -25 -19 -25 -20 -13 25 c-9
16 -19 23 -29 19 -46 -18 -202 -16 -335 4 -76 12 -146 25 -155 30 -19 10 -173
7 -189 -3 -18 -11 -14 -23 11 -30 21 -6 20 -7 -10 -22 -43 -22 -77 -12 -103
31 -20 33 -21 36 -5 69 11 24 31 42 61 56 40 20 51 21 138 12 53 -5 165 -10
250 -11 85 -1 169 -6 186 -11 21 -6 43 -4 72 6 52 18 68 31 68 56 0 15 4 18
18 13 35 -14 45 -10 54 23 l9 34 102 -7 c108 -7 92 -11 265 52 40 15 42 17 27
33 -15 17 -15 19 4 25 12 3 21 11 21 16 0 12 -4 11 -33 -2 -21 -9 -29 -5 -76
40 -28 27 -57 52 -64 54 -9 3 -7 13 6 36 l18 31 -28 2 c-15 0 -33 2 -40 2 -16
2 -63 47 -63 62 0 6 -7 14 -15 18 -20 7 -19 49 4 113 17 52 17 53 -1 70 -35
32 -88 110 -88 131 0 43 20 47 183 33 84 -7 187 -14 229 -16 77 -4 125 -21
190 -67 40 -28 94 -124 116 -206 11 -41 29 -83 39 -95 31 -35 69 -108 83 -160
9 -34 11 -82 6 -166 -5 -90 -3 -127 8 -158 8 -22 22 -77 31 -123 15 -74 16
-99 4 -234 -11 -135 -10 -160 5 -227 9 -42 14 -83 10 -92 -3 -9 2 -76 11 -149
10 -79 15 -161 12 -201 -5 -61 -2 -79 33 -180 21 -62 71 -184 110 -272 82
-182 123 -287 154 -395 l22 -75 442 -3 442 -2 0 1800 0 1800 -1604 0 -1604 0
6 -32z"/>
</g>
</svg>
