<?xml version="1.0" standalone="no"?>
<!DOCTYPE svg PUBLIC "-//W3C//DTD SVG 20010904//EN"
 "http://www.w3.org/TR/2001/REC-SVG-20010904/DTD/svg10.dtd">
<svg version="1.0" xmlns="http://www.w3.org/2000/svg"
 width="480.000000pt" height="360.000000pt" viewBox="0 0 480.000000 360.000000"
 preserveAspectRatio="xMidYMid meet">
<metadata>
Created by potrace 1.16, written by Peter Selinger 2001-2019
</metadata>
<rect width="1" height="360" fill="#000000"/>
<rect x="479" width="1" height="360" fill="#000000"/>
<rect width="480" height="1" fill="#000000"/>
<rect y="359" width="480" height="1" fill="#000000"/>
<g transform="translate(0.000000,360.000000) scale(0.100000,-0.100000)"
fill="#000000" stroke="none">
<path d="M1610 3576 c0 -13 7 -29 15 -36 8 -7 15 -18 15 -24 0 -34 107 -43
151 -12 13 9 35 16 50 16 26 0 26 0 26 -77 0 -62 6 -97 31 -168 30 -88 30 -91
16 -145 -23 -90 -19 -132 18 -174 22 -25 37 -34 50 -30 14 4 22 -3 33 -33 9
-21 26 -63 39 -93 45 -103 49 -131 43 -262 -4 -68 -10 -144 -13 -171 -6 -41
-5 -47 10 -41 14 5 16 -2 16 -51 0 -31 -5 -66 -11 -77 -9 -17 -8 -24 6 -34 14
-10 16 -21 11 -56 -6 -39 -12 -46 -64 -77 -89 -54 -138 -98 -182 -163 -51 -77
-67 -132 -86 -297 -18 -167 -22 -181 -44 -181 -35 0 -142 -39 -180 -65 -101
-70 -107 -242 -12 -362 l38 -47 -47 -146 c-51 -158 -104 -285 -240 -574 -49
-104 -89 -191 -89 -193 0 -1 715 -3 1590 -3 875 0 1590 3 1590 7 0 3 -16 35
-35 69 -30 56 -38 87 -71 286 -20 123 -39 253 -41 290 -5 65 -4 69 30 115 19
26 47 59 62 73 112 104 41 234 -142 262 -38 6 -75 13 -83 18 -22 10 -29 66
-44 347 -13 241 -14 254 -39 296 -30 51 -70 88 -159 148 -35 23 -66 47 -70 53
-8 11 -3 120 10 231 l7 60 39 2 c48 3 61 20 39 52 -17 27 -67 506 -57 548 5
17 2 23 -10 23 -27 0 -38 39 -34 117 3 62 7 77 23 85 34 19 80 73 92 109 7 19
21 61 33 94 23 65 32 207 17 278 l-8 37 -1169 0 -1170 0 0 -24z m535 -1476
c-4 -12 -9 -19 -12 -17 -3 3 -2 15 2 27 4 12 9 19 12 17 3 -3 2 -15 -2 -27z
m1305 -1930 c0 -5 -5 -10 -11 -10 -5 0 -7 5 -4 10 3 6 8 10 11 10 2 0 4 -4 4
-10z"/>
</g>
</svg>
