<?xml version="1.0" standalone="no"?>
<!DOCTYPE svg PUBLIC "-//W3C//DTD SVG 20010904//EN"
 "http://www.w3.org/TR/2001/REC-SVG-20010904/DTD/svg10.dtd">
<svg version="1.0" xmlns="http://www.w3.org/2000/svg"
 width="480.000000pt" height="360.000000pt" viewBox="0 0 480.000000 360.000000"
 preserveAspectRatio="xMidYMid meet">
<metadata>
Created by potrace 1.16, written by Peter Selinger 2001-2019
</metadata>
<rect width="1" height="360" fill="#000000"/>
<rect x="479" width="1" height="360" fill="#000000"/>
<rect width="480" height="1" fill="#000000"/>
<rect y="359" width="480" height="1" fill="#000000"/>
<g transform="translate(0.000000,360.000000) scale(0.100000,-0.100000)"
fill="#000000" stroke="none">
<path d="M0 2959 l0 -641 38 6 c20 3 123 8 227 12 300 10 629 -28 953 -110 78
-20 147 -36 152 -36 13 0 13 107 0 115 -5 3 -36 -1 -69 -10 -67 -17 -121 -20
-121 -5 0 6 -9 10 -20 10 -30 0 -35 26 -15 71 25 55 55 93 136 176 l72 72 -18
180 -17 180 24 53 c14 29 47 76 74 104 62 63 182 154 203 154 9 0 25 9 35 21
27 32 195 108 280 126 113 24 154 12 311 -92 121 -82 127 -84 153 -71 15 7 78
30 141 50 90 29 126 36 174 34 54 -3 63 -6 76 -29 13 -23 12 -30 -10 -75 -14
-29 -64 -90 -123 -149 l-99 -100 107 -101 c103 -98 115 -122 57 -107 -24 6
-27 -7 -9 -40 13 -24 17 -117 6 -117 -5 0 -8 4 -8 8 0 5 -7 17 -16 28 -8 10
-13 13 -9 7 3 -7 1 -31 -6 -53 -10 -34 -14 -38 -28 -28 -9 7 -13 9 -9 4 4 -5
-8 -27 -27 -50 l-34 -42 18 -30 c10 -17 33 -36 50 -44 39 -16 41 -44 5 -81
-20 -21 -26 -38 -26 -68 1 -30 -5 -45 -19 -54 -12 -9 -17 -20 -13 -31 4 -9 0
-24 -9 -34 -9 -9 -24 -42 -34 -72 -13 -40 -25 -58 -45 -68 -28 -13 -32 -21
-43 -86 -12 -69 -35 -115 -72 -137 l-34 -21 31 -19 c17 -11 63 -35 103 -55 75
-38 326 -176 364 -201 19 -13 25 -13 45 1 36 25 65 19 112 -24 24 -22 48 -40
54 -40 6 0 32 -18 57 -40 25 -22 54 -40 63 -40 9 0 37 -16 61 -35 24 -19 49
-35 56 -35 24 0 57 -47 53 -78 -3 -27 6 -36 107 -113 61 -45 152 -118 203
-161 84 -70 97 -78 132 -76 42 1 66 -12 75 -43 4 -12 16 -19 33 -19 36 0 53
-12 71 -52 9 -18 25 -34 36 -36 28 -6 45 -21 45 -42 0 -9 9 -29 21 -44 15 -19
20 -36 16 -59 -4 -29 5 -44 87 -142 105 -127 178 -224 262 -347 l58 -88 148 0
148 0 0 1800 0 1800 -2400 0 -2400 0 0 -641z"/>
<path d="M125 2075 c-5 -2 -36 -6 -67 -10 l-58 -6 0 -1030 0 -1029 925 0 925
0 7 27 c7 31 -9 290 -33 533 -13 128 -19 161 -38 190 -30 45 -39 77 -27 85 7
4 5 15 -6 31 -13 21 -15 38 -7 112 13 128 9 220 -10 241 -9 10 -16 25 -16 35
0 9 -4 14 -10 11 -5 -3 -10 -21 -10 -40 0 -45 -20 -57 -21 -13 -1 23 -3 26 -6
11 -2 -13 -9 -23 -14 -23 -6 0 -8 8 -5 18 2 9 6 82 8 162 l3 145 -55 8 c-109
15 -268 117 -326 209 -13 21 -31 68 -40 106 -8 37 -17 74 -20 83 -9 30 -335
101 -609 134 -113 13 -460 20 -490 10z"/>
<path d="M2665 1278 c14 -24 40 -70 57 -103 36 -67 45 -59 33 31 -6 50 -9 55
-56 84 -27 16 -52 30 -55 30 -3 0 7 -19 21 -42z"/>
<path d="M2650 1251 c0 -6 4 -13 10 -16 6 -3 7 1 4 9 -7 18 -14 21 -14 7z"/>
<path d="M2697 1153 c8 -21 22 -51 30 -67 13 -25 17 -27 24 -13 7 12 1 30 -23
66 -39 60 -53 66 -31 14z"/>
<path d="M3212 889 l-33 -51 56 -59 57 -60 -28 -37 c-15 -20 -47 -58 -72 -84
l-45 -47 39 -7 c21 -4 90 -2 152 5 189 21 178 16 213 78 17 31 27 59 22 62 -4
4 -35 30 -68 57 -65 55 -249 194 -256 194 -2 0 -19 -23 -37 -51z"/>
<path d="M3884 339 c-10 -11 -40 -36 -65 -55 -40 -29 -48 -40 -54 -80 -11 -76
-34 -142 -61 -174 l-26 -30 267 0 c210 0 265 3 259 13 -33 56 -279 347 -294
347 -4 0 -15 -9 -26 -21z"/>
<path d="M2794 192 c-10 -7 -80 -98 -123 -159 l-22 -33 498 1 c493 0 497 1
438 18 -33 10 -106 37 -161 59 -129 53 -233 77 -414 97 -80 8 -159 17 -176 19
-17 2 -35 1 -40 -2z"/>
</g>
</svg>
