<?xml version="1.0" standalone="no"?>
<!DOCTYPE svg PUBLIC "-//W3C//DTD SVG 20010904//EN"
 "http://www.w3.org/TR/2001/REC-SVG-20010904/DTD/svg10.dtd">
<svg version="1.0" xmlns="http://www.w3.org/2000/svg"
 width="480.000000pt" height="360.000000pt" viewBox="0 0 480.000000 360.000000"
 preserveAspectRatio="xMidYMid meet">
<metadata>
Created by potrace 1.16, written by Peter Selinger 2001-2019
</metadata>
<rect width="1" height="360" fill="#000000"/>
<rect x="479" width="1" height="360" fill="#000000"/>
<rect width="480" height="1" fill="#000000"/>
<rect y="359" width="480" height="1" fill="#000000"/>
<g transform="translate(0.000000,360.000000) scale(0.100000,-0.100000)"
fill="#000000" stroke="none">
<path d="M0 1800 l0 -1800 1009 0 1008 0 7 123 c4 67 18 186 32 265 20 113 23
150 14 180 -13 49 -13 181 1 221 9 25 8 45 -4 89 -8 34 -15 108 -16 182 -2
195 -10 270 -34 318 -12 23 -24 42 -27 42 -3 0 -31 -31 -62 -69 -58 -71 -126
-125 -170 -136 -16 -4 -66 6 -139 30 -106 33 -196 53 -329 72 -43 6 -57 13
-66 32 -7 13 -27 30 -44 37 -28 12 -31 17 -25 43 6 26 3 31 -17 35 -13 3 -57
12 -98 21 -155 33 -293 90 -341 141 -20 21 -21 27 -9 34 10 6 23 4 37 -6 25
-16 28 -9 13 32 -17 45 3 47 45 4 21 -22 42 -40 46 -40 4 0 5 15 2 34 -6 40
14 60 31 31 33 -57 63 -63 98 -20 16 20 16 20 23 -8 7 -28 15 -31 86 -40 19
-3 57 -19 83 -36 l49 -30 17 22 c16 19 21 20 44 9 20 -9 31 -9 45 0 16 10 33
5 102 -26 83 -38 278 -106 304 -106 8 0 22 15 31 32 9 18 42 76 74 128 48 80
56 101 52 132 -4 40 -8 36 143 171 44 40 49 49 47 82 -3 34 3 43 60 99 35 33
73 69 86 78 14 12 22 29 22 48 0 34 -4 35 -40 15 -14 -8 -31 -14 -38 -15 -15
0 -112 100 -112 117 0 7 -13 19 -30 28 -35 18 -35 18 -15 49 15 22 14 25 -20
55 -20 17 -47 31 -60 31 -30 0 -84 55 -85 86 0 28 -10 36 -28 21 -13 -10 -14
-9 -9 8 4 11 18 58 31 105 37 126 61 174 112 219 l46 41 -11 44 c-16 63 -14
103 5 110 26 10 119 7 131 -5 6 -6 23 -9 39 -7 24 3 31 12 54 68 32 78 70 140
87 140 7 0 16 -7 21 -17 9 -14 15 -12 54 20 25 21 50 37 56 37 30 0 161 -198
189 -287 14 -44 15 -59 5 -87 -12 -31 -10 -34 28 -74 21 -23 55 -75 74 -115
63 -131 88 -248 141 -647 10 -75 29 -159 47 -210 56 -159 126 -355 147 -415
12 -33 24 -89 27 -125 l6 -65 -25 30 -24 29 -6 -29 c-19 -96 -18 -115 3 -179
l22 -65 -40 -123 c-46 -141 -68 -228 -77 -313 -12 -116 -14 -124 -45 -140 -22
-12 -31 -25 -39 -65 -14 -65 -26 -410 -17 -473 l7 -47 980 0 979 0 0 1800 0
1800 -2400 0 -2400 0 0 -1800z"/>
<path d="M1990 2515 c0 -15 18 -40 24 -34 3 3 -1 14 -9 25 -8 10 -14 15 -15 9z"/>
<path d="M2087 1154 c3 -32 10 -66 15 -74 6 -10 7 8 4 50 -4 35 -10 68 -15 73
-6 6 -8 -12 -4 -49z"/>
</g>
</svg>
