<?xml version="1.0" standalone="no"?>
<!DOCTYPE svg PUBLIC "-//W3C//DTD SVG 20010904//EN"
 "http://www.w3.org/TR/2001/REC-SVG-20010904/DTD/svg10.dtd">
<svg version="1.0" xmlns="http://www.w3.org/2000/svg"
 width="480.000000pt" height="360.000000pt" viewBox="0 0 480.000000 360.000000"
 preserveAspectRatio="xMidYMid meet">
<metadata>
Created by potrace 1.16, written by Peter Selinger 2001-2019
</metadata>
<rect width="1" height="360" fill="#000000"/>
<rect x="479" width="1" height="360" fill="#000000"/>
<rect width="480" height="1" fill="#000000"/>
<rect y="359" width="480" height="1" fill="#000000"/>
<g transform="translate(0.000000,360.000000) scale(0.100000,-0.100000)"
fill="#000000" stroke="none">
<path d="M990 1800 l0 -1800 1905 0 1905 0 0 1800 0 1800 -1905 0 -1905 0 0
-1800z m1836 417 c3 -9 21 -14 49 -13 55 1 63 -7 42 -43 -21 -36 -22 -57 -1
-65 31 -12 70 -5 109 19 50 31 114 33 189 4 44 -16 73 -38 138 -105 46 -47 85
-90 87 -96 2 -7 -10 -9 -38 -5 -30 4 -54 16 -86 46 -25 23 -51 41 -60 41 -13
0 -45 -57 -45 -81 0 -5 23 -20 50 -34 54 -27 119 -104 120 -141 0 -15 12 -26
40 -39 25 -11 36 -21 29 -25 -7 -5 0 -12 17 -18 16 -6 23 -11 15 -11 -8 -1 -5
-9 10 -22 l24 -20 -29 6 -29 6 17 -25 c12 -19 13 -26 4 -26 -10 0 -12 -16 -10
-60 4 -68 -8 -60 147 -95 142 -32 143 -32 137 -60 -2 -14 -9 -22 -14 -19 -9 6
-37 -23 -38 -38 0 -3 89 -6 198 -5 175 2 302 -10 320 -28 3 -2 -1 -11 -8 -20
-11 -13 -9 -15 12 -15 21 0 25 -4 20 -25 -3 -18 1 -27 14 -32 11 -3 23 -12 27
-20 4 -7 19 -13 32 -13 14 0 24 -3 23 -7 -3 -18 16 -43 32 -43 27 0 33 -17 9
-23 -18 -5 -19 -8 -7 -29 15 -27 19 -58 7 -58 -5 0 -9 -13 -9 -30 0 -20 -5
-30 -15 -30 -7 0 -18 -7 -23 -16 -8 -15 -12 -15 -40 0 -26 14 -31 14 -36 1 -3
-8 -12 -15 -20 -15 -7 0 -16 -7 -20 -15 -3 -8 -15 -15 -27 -15 -22 0 -22 0 -3
-22 19 -21 19 -21 -1 -13 -11 4 -32 8 -46 10 -14 1 -36 9 -50 18 -38 27 -45
20 -13 -15 34 -36 16 -29 -43 19 -48 39 -79 50 -255 98 -71 19 -152 47 -181
62 -31 15 -73 28 -102 29 -27 2 -65 6 -84 9 -32 6 -33 5 -27 -17 3 -13 9 -48
12 -79 5 -45 3 -58 -11 -73 -34 -33 -69 -11 -90 59 -5 16 -9 13 -25 -23 -35
-78 -76 -46 -66 51 l6 62 -37 13 c-21 8 -89 19 -152 26 -124 14 -153 30 -144
78 3 15 -3 30 -16 42 -12 11 -21 16 -21 13 0 -3 -15 -1 -32 4 -49 15 -467 85
-462 78 2 -3 53 -28 114 -54 60 -27 110 -52 110 -56 0 -3 -7 -12 -15 -19 -12
-10 -43 1 -171 59 -187 85 -195 87 -228 66 -35 -23 -62 -12 -70 28 -6 31 -9
34 -79 50 -77 18 -107 41 -107 83 0 19 5 24 26 24 38 0 151 -19 209 -35 107
-30 587 -125 633 -125 23 0 131 80 186 138 26 29 28 35 23 83 -4 28 -12 57
-18 65 -9 11 -9 21 1 43 33 82 33 161 -1 161 -22 0 -65 75 -49 85 14 9 12 25
-3 25 -7 0 -30 21 -52 48 -22 26 -48 53 -58 60 -22 17 -67 87 -67 104 1 33 16
40 49 24 36 -19 36 -19 16 26 -10 26 -11 38 -3 46 16 16 27 15 34 -1z"/>
<path d="M3282 1558 c5 -15 28 -23 28 -10 0 5 -7 13 -16 16 -10 4 -14 1 -12
-6z"/>
<path d="M3048 1462 c-14 -39 -28 -55 -78 -90 -54 -39 -77 -72 -49 -72 23 0
140 73 169 106 l30 35 -26 34 c-15 19 -27 35 -28 35 -1 0 -9 -21 -18 -48z"/>
<path d="M3430 1381 c-24 -7 -23 -8 24 -39 61 -39 240 -82 222 -53 -5 8 -213
103 -219 100 -1 -1 -13 -4 -27 -8z"/>
</g>
</svg>
