<?xml version="1.0" standalone="no"?>
<!DOCTYPE svg PUBLIC "-//W3C//DTD SVG 20010904//EN"
 "http://www.w3.org/TR/2001/REC-SVG-20010904/DTD/svg10.dtd">
<svg version="1.0" xmlns="http://www.w3.org/2000/svg"
 width="480.000000pt" height="360.000000pt" viewBox="0 0 480.000000 360.000000"
 preserveAspectRatio="xMidYMid meet">
<metadata>
Created by potrace 1.16, written by Peter Selinger 2001-2019
</metadata>
<rect width="1" height="360" fill="#000000"/>
<rect x="479" width="1" height="360" fill="#000000"/>
<rect width="480" height="1" fill="#000000"/>
<rect y="359" width="480" height="1" fill="#000000"/>
<g transform="translate(0.000000,360.000000) scale(0.100000,-0.100000)"
fill="#000000" stroke="none">
<path d="M0 1800 l0 -1800 1060 0 1060 0 0 103 c-1 196 -16 323 -55 457 -86
291 -86 384 -2 544 18 33 30 70 29 82 -2 13 13 53 33 89 34 61 35 65 16 65
-32 0 -25 16 22 50 62 44 108 136 77 155 -5 3 -10 13 -10 22 0 21 106 129 141
143 28 12 30 17 45 173 l7 67 -30 0 c-25 0 -33 6 -48 40 -10 22 -26 47 -36 56
-11 10 -19 24 -19 33 0 9 -9 22 -20 29 -11 7 -20 23 -20 35 0 14 -14 36 -37
56 l-37 33 31 23 c39 31 61 81 43 98 -10 10 -12 8 -6 -6 11 -32 -5 -40 -31
-15 -18 16 -27 19 -30 11 -7 -19 -23 -16 -24 5 0 10 -3 12 -6 5 -11 -29 -31
-9 -50 49 -18 54 -22 59 -29 37 -8 -24 -8 -24 -15 6 -4 17 -7 54 -8 83 -1 60
-11 66 -30 20 -9 -22 -15 -28 -18 -17 -6 25 55 187 105 276 60 109 118 165
217 213 109 53 227 82 358 88 193 9 307 -30 416 -142 35 -36 66 -66 70 -66 16
0 86 -110 108 -169 66 -181 100 -452 89 -698 -19 -439 -19 -492 4 -733 14
-149 25 -361 30 -580 4 -190 14 -429 21 -532 l13 -188 683 0 683 0 0 1800 0
1800 -2400 0 -2400 0 0 -1800z"/>
</g>
</svg>
