<?xml version="1.0" standalone="no"?>
<!DOCTYPE svg PUBLIC "-//W3C//DTD SVG 20010904//EN"
 "http://www.w3.org/TR/2001/REC-SVG-20010904/DTD/svg10.dtd">
<svg version="1.0" xmlns="http://www.w3.org/2000/svg"
 width="480.000000pt" height="360.000000pt" viewBox="0 0 480.000000 360.000000"
 preserveAspectRatio="xMidYMid meet">
<metadata>
Created by potrace 1.16, written by Peter Selinger 2001-2019
</metadata>
<rect width="1" height="360" fill="#000000"/>
<rect x="479" width="1" height="360" fill="#000000"/>
<rect width="480" height="1" fill="#000000"/>
<rect y="359" width="480" height="1" fill="#000000"/>
<g transform="translate(0.000000,360.000000) scale(0.100000,-0.100000)"
fill="#000000" stroke="none">
<path d="M0 2705 c0 -492 3 -895 6 -895 14 0 193 43 279 67 176 49 323 106
525 204 113 54 215 99 226 99 12 0 28 -8 35 -17 8 -9 46 -44 85 -77 284 -245
354 -310 453 -418 189 -207 283 -277 427 -318 91 -26 173 -33 309 -25 l123 7
13 31 c31 82 129 247 177 299 61 66 118 101 249 153 85 34 123 58 111 71 -3 2
-17 0 -30 -5 -18 -7 -33 -6 -49 3 -75 39 -146 81 -162 94 -20 17 -19 18 -41
-25 -23 -47 -38 -42 -30 10 l7 42 -42 -38 c-24 -21 -45 -37 -47 -34 -2 2 9 30
26 62 51 96 40 109 -32 38 -56 -55 -71 -53 -28 3 38 50 37 60 -2 84 -40 24
-80 27 -72 5 4 -10 0 -15 -10 -15 -9 0 -19 7 -22 15 -4 8 -9 15 -13 15 -9 0
-75 -149 -104 -234 -24 -71 -47 -97 -47 -54 -1 20 -3 19 -15 -10 -8 -18 -21
-40 -30 -48 -8 -9 -18 -26 -21 -39 -5 -20 -29 -34 -56 -35 -5 0 -8 10 -8 23 0
12 -9 49 -19 82 l-19 60 -2 -55 -1 -55 -24 50 c-55 114 -65 234 -28 364 13 46
21 86 19 89 -3 2 1 20 10 40 17 42 15 46 -20 32 -15 -5 -74 -10 -131 -10
l-105 0 7 48 c6 50 23 92 45 109 7 6 51 28 98 49 162 71 284 165 296 229 8 44
5 48 -96 104 -36 21 -63 43 -66 55 -6 25 18 85 57 144 16 24 36 56 44 72 33
65 172 142 323 181 64 16 77 17 100 5 24 -12 37 -11 102 6 178 46 389 18 597
-82 190 -90 240 -163 250 -364 5 -93 9 -112 29 -135 33 -39 122 -89 198 -111
67 -19 96 -34 96 -51 0 -5 -6 -9 -12 -9 -7 -1 -31 -23 -52 -51 -51 -64 -96
-91 -149 -91 l-42 0 45 -38 c24 -22 41 -42 38 -46 -4 -3 -41 -7 -82 -7 -42 -1
-76 -4 -76 -7 0 -3 7 -16 16 -28 10 -14 11 -22 3 -22 -6 0 -9 -6 -6 -12 19
-48 19 -48 -2 -48 -26 0 -26 2 -1 -60 20 -50 20 -51 1 -40 -11 5 -23 15 -26
20 -12 19 -22 10 -17 -15 8 -43 -25 -29 -94 39 -35 35 -64 61 -64 57 0 -4 8
-32 18 -62 16 -49 19 -113 7 -147 -4 -10 -10 -9 -30 4 -23 15 -25 15 -25 -1 0
-11 -6 -15 -18 -11 -24 8 -51 -32 -30 -45 7 -5 21 -7 32 -5 19 5 19 8 -1 -80
-4 -19 5 -26 59 -52 34 -16 93 -42 130 -57 111 -45 144 -81 224 -250 l69 -147
135 6 c74 3 160 12 190 21 47 13 69 13 147 3 149 -19 322 10 426 72 l37 22 0
1044 0 1044 -2400 0 -2400 0 0 -895z"/>
<path d="M2500 2181 c0 -5 5 -13 10 -16 6 -3 10 -2 10 4 0 5 -4 13 -10 16 -5
3 -10 2 -10 -4z"/>
<path d="M892 1959 c-79 -49 -82 -52 -66 -70 12 -13 15 -28 10 -50 -5 -24 -1
-38 18 -60 15 -18 32 -63 47 -122 l22 -94 -67 -174 c-153 -394 -189 -478 -206
-494 -16 -15 -18 -14 -24 9 -3 13 -22 174 -41 357 l-34 333 44 82 c25 45 59
94 77 109 56 47 19 48 -92 0 -98 -41 -265 -95 -295 -95 -8 0 -21 -14 -29 -32
-16 -31 -15 -33 9 -58 18 -19 32 -55 49 -125 l24 -98 -33 -76 c-53 -121 -143
-337 -192 -455 -63 -156 -91 -184 -106 -106 -2 14 -5 -147 -6 -357 l-1 -383
1180 0 c712 0 1180 4 1180 9 0 37 53 308 70 355 11 33 27 118 36 190 8 72 25
196 36 276 35 253 37 224 -12 239 l-42 13 29 31 c66 73 72 68 -86 65 -77 -1
-141 -3 -141 -5 0 -2 11 -14 24 -26 17 -16 30 -48 46 -115 l22 -93 -102 -272
c-121 -328 -130 -347 -146 -347 -18 0 -21 14 -44 200 -11 91 -27 218 -35 283
-8 66 -15 133 -15 150 0 39 72 179 105 206 26 19 31 37 17 58 -8 13 -172 57
-256 68 -45 6 -48 5 -41 -12 12 -29 45 -164 45 -183 0 -19 -203 -577 -226
-623 -18 -33 -30 -34 -38 -3 -10 39 -76 592 -76 635 0 55 72 196 110 216 19
10 29 24 33 47 4 28 -3 43 -52 107 -81 108 -148 178 -205 217 -53 35 -71 37
-41 4 18 -19 54 -153 55 -201 0 -15 -47 -152 -105 -305 -114 -304 -140 -364
-154 -364 -18 0 -18 -1 -76 540 l-17 156 45 90 c26 52 57 98 71 108 14 9 26
24 26 34 0 10 6 24 13 31 10 10 2 22 -42 59 -30 26 -81 75 -114 110 -36 37
-69 62 -81 62 -12 0 -58 -23 -104 -51z"/>
<path d="M1 1588 c0 -81 0 -82 17 -58 9 14 34 42 55 63 28 27 37 43 32 57 -5
16 -15 20 -56 20 l-49 0 1 -82z"/>
<path d="M4680 1349 c-115 -18 -186 -40 -198 -60 -11 -18 -9 -25 16 -53 16
-19 41 -70 57 -119 l29 -86 -18 -58 c-117 -382 -177 -567 -187 -578 -6 -5 -13
-5 -20 2 -10 10 -117 586 -120 648 -2 37 73 190 101 205 35 19 22 29 -32 24
-29 -2 -118 -6 -198 -7 -143 -3 -145 -3 -148 -26 -2 -12 4 -31 13 -41 9 -10
30 -60 46 -111 l29 -93 -51 -160 c-28 -89 -69 -216 -91 -284 l-40 -123 -2
-215 -2 -214 468 0 468 0 0 280 0 280 -55 292 c-30 161 -55 305 -55 321 0 15
18 63 40 107 45 89 48 84 -50 69z"/>
</g>
</svg>
