<?xml version="1.0" standalone="no"?>
<!DOCTYPE svg PUBLIC "-//W3C//DTD SVG 20010904//EN"
 "http://www.w3.org/TR/2001/REC-SVG-20010904/DTD/svg10.dtd">
<svg version="1.0" xmlns="http://www.w3.org/2000/svg"
 width="480.000000pt" height="360.000000pt" viewBox="0 0 480.000000 360.000000"
 preserveAspectRatio="xMidYMid meet">
<metadata>
Created by potrace 1.16, written by Peter Selinger 2001-2019
</metadata>
<rect width="1" height="360" fill="#000000"/>
<rect x="479" width="1" height="360" fill="#000000"/>
<rect width="480" height="1" fill="#000000"/>
<rect y="359" width="480" height="1" fill="#000000"/>
<g transform="translate(0.000000,360.000000) scale(0.100000,-0.100000)"
fill="#000000" stroke="none">
<path d="M1110 3385 c-7 -8 -16 -12 -21 -9 -5 3 -16 -10 -24 -29 -17 -41 -31
-53 -72 -62 -39 -8 -40 -11 -12 -41 l22 -23 -23 -56 c-15 -38 -36 -67 -65 -90
-23 -19 -45 -35 -49 -35 -5 0 -20 -9 -35 -19 -15 -11 -44 -22 -65 -26 -20 -4
-50 -18 -64 -30 -21 -17 -40 -23 -80 -23 -29 -1 -52 3 -52 9 0 14 -42 9 -74
-10 -19 -11 -35 -32 -44 -60 -12 -37 -12 -44 2 -60 9 -10 16 -23 16 -29 0 -6
9 -17 19 -24 20 -14 71 -116 71 -142 0 -9 -9 -35 -19 -58 -22 -49 -38 -106
-45 -160 -5 -40 7 -58 102 -155 28 -30 43 -54 47 -80 8 -57 35 -174 47 -206 8
-20 15 -26 29 -22 14 5 22 -1 30 -22 10 -26 11 -27 24 -9 13 17 16 17 54 -15
l40 -34 -27 -28 c-15 -15 -53 -40 -85 -54 -39 -18 -63 -36 -73 -55 -9 -16 -42
-57 -75 -90 -92 -93 -94 -98 -69 -149 21 -40 21 -44 6 -105 -14 -55 -14 -69
-3 -97 11 -25 11 -47 3 -99 l-10 -67 -85 -21 c-48 -12 -137 -28 -200 -36 -63
-8 -132 -22 -155 -33 -22 -11 -53 -22 -68 -26 l-28 -5 0 -500 0 -500 940 0
940 0 -14 33 c-73 170 -120 274 -127 281 -5 6 -9 68 -9 138 0 157 -4 163 -109
174 -39 3 -71 8 -71 10 0 3 14 30 32 61 28 50 33 68 36 149 5 98 -13 218 -47
331 l-19 62 25 52 c20 40 24 62 20 97 -4 34 0 55 14 81 25 47 24 107 -2 156
-31 58 -130 174 -153 181 -40 11 -86 39 -86 52 0 9 7 11 20 7 11 -4 20 -2 20
4 0 6 5 11 12 11 6 0 20 7 30 17 17 15 18 15 18 -2 0 -32 24 0 71 92 42 84 44
92 44 173 -1 94 -29 216 -72 313 -31 68 -27 81 50 161 49 53 56 66 33 66 -10
0 -12 7 -8 22 5 19 2 21 -31 15 -31 -5 -39 -2 -48 15 -6 12 -9 39 -6 61 l5 39
-31 -32 -31 -32 -29 32 c-20 23 -27 40 -24 57 3 18 0 23 -13 21 -18 -3 -130
110 -130 132 0 8 11 10 38 5 l38 -6 27 75 26 76 -22 21 c-20 18 -135 78 -179
93 -13 4 -18 16 -18 45 0 47 -28 72 -50 46z m81 -258 c17 -13 53 -76 47 -82
-7 -7 -78 67 -78 81 0 17 10 17 31 1z m166 -1273 c-3 -3 -12 -4 -19 -1 -8 3
-5 6 6 6 11 1 17 -2 13 -5z m-652 -964 c4 -6 -6 -10 -24 -10 -16 0 -33 5 -36
10 -4 6 6 10 24 10 16 0 33 -4 36 -10z m-75 -8 c0 -5 -9 -17 -20 -27 -11 -10
-20 -24 -20 -30 0 -8 -25 -14 -67 -18 -99 -10 -225 -8 -219 2 6 9 116 41 226
65 79 17 100 19 100 8z"/>
<path d="M4546 3028 c-3 -7 -7 -26 -11 -43 l-7 -30 -14 28 c-25 47 -44 33 -24
-19 11 -28 -3 -59 -21 -48 -5 3 -14 2 -21 -2 -8 -5 -7 -10 4 -18 16 -12 32
-76 19 -76 -9 0 -168 -140 -231 -203 -31 -31 -36 -33 -55 -21 -18 12 -24 11
-45 -3 -14 -10 -37 -16 -52 -14 -35 3 -35 -9 0 -46 39 -43 67 -125 52 -154
-20 -36 -29 -77 -50 -223 -17 -113 -18 -141 -8 -153 18 -22 15 -170 -3 -187
-18 -17 -108 -54 -139 -58 -39 -5 -50 -17 -50 -53 0 -28 6 -37 29 -50 40 -20
69 -59 81 -109 6 -22 17 -57 26 -76 14 -32 13 -44 -10 -150 -29 -134 -46 -186
-86 -257 -17 -29 -30 -58 -30 -65 0 -7 23 -23 52 -36 50 -22 51 -23 30 -38
-15 -11 -22 -25 -21 -47 1 -18 -14 -68 -35 -113 -38 -85 -40 -97 -81 -444 -8
-74 -26 -177 -39 -227 l-23 -93 509 0 509 0 -3 163 -3 162 -62 161 c-71 186
-99 244 -160 333 -61 90 -62 98 -15 183 l40 73 101 39 101 39 0 342 0 343 -45
33 c-37 29 -46 42 -55 86 -6 29 -10 69 -8 89 2 31 8 39 30 45 14 4 38 15 52
25 l25 19 1 240 0 240 -91 103 c-50 56 -95 102 -100 102 -15 0 -10 22 8 35 15
11 15 14 -4 41 -19 26 -19 30 -6 51 21 32 8 41 -21 14 l-23 -22 5 51 c3 34 1
50 -7 50 -6 0 -13 -6 -15 -12z m122 -1170 c17 -17 15 -28 -7 -28 -22 0 -35 15
-26 30 8 13 18 13 33 -2z m52 -28 c12 -8 11 -10 -7 -10 -13 0 -23 5 -23 10 0
13 11 13 30 0z"/>
</g>
</svg>
