<?xml version="1.0" standalone="no"?>
<!DOCTYPE svg PUBLIC "-//W3C//DTD SVG 20010904//EN"
 "http://www.w3.org/TR/2001/REC-SVG-20010904/DTD/svg10.dtd">
<svg version="1.0" xmlns="http://www.w3.org/2000/svg"
 width="480.000000pt" height="360.000000pt" viewBox="0 0 480.000000 360.000000"
 preserveAspectRatio="xMidYMid meet">
<metadata>
Created by potrace 1.16, written by Peter Selinger 2001-2019
</metadata>
<rect width="1" height="360" fill="#000000"/>
<rect x="479" width="1" height="360" fill="#000000"/>
<rect width="480" height="1" fill="#000000"/>
<rect y="359" width="480" height="1" fill="#000000"/>
<g transform="translate(0.000000,360.000000) scale(0.100000,-0.100000)"
fill="#000000" stroke="none">
<path d="M0 1800 l0 -1800 795 0 794 0 -36 62 c-56 95 -141 280 -190 412 -60
163 -105 345 -148 599 -39 230 -58 770 -36 993 28 273 82 543 170 845 l48 166
-54 44 c-39 33 -53 51 -53 70 0 65 83 108 182 95 161 -21 730 -182 843 -238
22 -11 52 -32 68 -46 23 -22 78 -38 350 -104 851 -207 1068 -254 1005 -217
-26 15 -22 29 10 30 15 0 36 4 47 8 19 8 19 8 -2 15 -13 4 -27 5 -32 2 -13 -8
-42 4 -35 15 3 5 16 9 30 9 13 0 24 3 24 8 0 4 14 15 30 24 18 10 30 25 30 37
0 30 39 128 71 180 15 26 42 70 59 99 64 110 153 178 267 202 42 10 50 16 68
52 20 41 144 175 200 215 l30 22 -2267 0 -2268 1 0 -1800z"/>
<path d="M2335 2829 c-16 -5 -52 -8 -80 -7 l-50 3 -58 -160 c-103 -288 -174
-534 -201 -705 -21 -125 -46 -480 -46 -639 0 -124 21 -384 41 -511 14 -93 54
-242 88 -335 42 -115 124 -318 162 -402 l33 -73 983 0 983 0 68 73 c96 100
147 159 222 256 61 79 163 203 202 245 17 19 16 22 -45 85 -34 36 -108 109
-165 161 -229 212 -371 356 -386 392 -33 79 -13 191 52 283 39 55 116 145 205
239 49 52 56 65 50 86 -4 14 -8 46 -8 71 0 39 -3 45 -18 41 -10 -2 -24 -16
-32 -31 -14 -26 -14 -26 -15 -2 0 16 -4 21 -15 17 -16 -6 -37 12 -65 52 -18
28 -34 28 -53 -1 -14 -19 -18 -20 -26 -7 -9 13 -11 13 -11 -1 0 -15 -40 -59
-53 -59 -4 0 -5 11 -1 25 4 15 1 32 -6 40 -10 12 -10 21 -2 41 10 20 9 26 -3
30 -8 4 -15 18 -15 31 0 14 -8 31 -17 38 -15 11 -16 15 -3 31 14 18 14 18 -12
1 -40 -25 -43 -21 -13 14 14 18 29 45 32 61 3 15 9 31 14 34 5 3 3 14 -3 24
-11 17 -6 26 40 71 29 28 50 55 47 59 -3 5 -26 12 -50 16 -39 5 -50 3 -79 -19
-38 -30 -122 -80 -150 -91 -20 -7 -20 -7 0 15 l19 22 -25 -8 c-14 -4 -45 -18
-69 -32 l-44 -26 23 33 23 33 -26 -18 c-26 -16 -26 -16 -32 8 -4 14 -3 36 1
49 5 13 9 32 9 43 1 11 5 30 9 41 4 14 2 23 -6 27 -7 2 -141 35 -298 72 -243
57 -1035 254 -1080 269 -8 2 -28 0 -45 -5z"/>
<path d="M4610 1489 c-30 -27 -90 -76 -132 -109 l-78 -59 118 -127 c216 -236
233 -252 228 -224 -2 14 -18 41 -35 59 -38 41 -42 100 -10 162 19 39 20 44 6
107 -9 37 -18 106 -22 155 -4 48 -10 87 -13 87 -4 0 -32 -23 -62 -51z"/>
</g>
</svg>
