<?xml version="1.0" standalone="no"?>
<!DOCTYPE svg PUBLIC "-//W3C//DTD SVG 20010904//EN"
 "http://www.w3.org/TR/2001/REC-SVG-20010904/DTD/svg10.dtd">
<svg version="1.0" xmlns="http://www.w3.org/2000/svg"
 width="480.000000pt" height="360.000000pt" viewBox="0 0 480.000000 360.000000"
 preserveAspectRatio="xMidYMid meet">
<metadata>
Created by potrace 1.16, written by Peter Selinger 2001-2019
</metadata>
<rect width="1" height="360" fill="#000000"/>
<rect x="479" width="1" height="360" fill="#000000"/>
<rect width="480" height="1" fill="#000000"/>
<rect y="359" width="480" height="1" fill="#000000"/>
<g transform="translate(0.000000,360.000000) scale(0.100000,-0.100000)"
fill="#000000" stroke="none">
<path d="M0 1800 l0 -1800 984 0 983 0 6 48 c4 26 11 105 17 177 6 72 18 170
27 218 8 48 13 90 10 93 -3 3 -13 1 -24 -4 -84 -42 -91 -44 -113 -32 -18 10
-24 9 -35 -7 -31 -42 -70 28 -63 113 2 34 0 40 -10 31 -10 -8 -16 -7 -23 4
-18 29 -7 60 66 174 41 64 75 123 75 130 0 7 7 18 15 25 8 7 15 24 15 39 0 19
16 42 56 81 l56 55 -4 150 c-5 148 -5 151 -42 232 -49 110 -54 158 -26 258 12
44 31 115 41 158 11 43 33 112 50 153 25 61 42 85 96 134 36 33 62 60 56 60
-5 0 -14 -5 -20 -11 -12 -12 -77 22 -130 69 -14 12 -34 22 -44 22 -27 0 -32
16 -17 56 12 33 11 37 -11 53 -19 15 -30 16 -67 8 -36 -9 -47 -8 -62 6 -10 10
-23 17 -28 17 -5 0 -15 15 -22 33 l-13 32 -14 -25 c-13 -23 -14 -15 -9 75 10
171 19 212 59 263 19 25 35 49 35 54 0 4 -14 32 -30 61 -36 65 -38 85 -6 97
13 5 27 14 31 19 8 14 58 14 90 -1 14 -6 27 -9 30 -6 3 3 -2 38 -10 78 -8 40
-13 75 -10 78 3 3 18 -7 33 -21 33 -31 42 -27 42 19 0 18 4 44 10 59 10 25 10
26 42 9 72 -37 182 -133 229 -201 19 -28 41 -45 66 -54 65 -21 108 -55 162
-126 96 -128 167 -308 214 -545 17 -81 41 -163 68 -225 74 -173 116 -295 147
-423 47 -193 52 -251 17 -203 -10 14 -14 9 -24 -38 -7 -30 -17 -63 -22 -74 -7
-14 -5 -39 6 -80 8 -32 15 -72 15 -87 0 -15 -23 -85 -51 -155 -101 -250 -103
-260 -103 -568 -1 -148 3 -334 8 -413 l9 -142 983 0 984 0 0 1800 0 1800
-2400 0 -2400 0 0 -1800z"/>
<path d="M2066 1308 c8 -106 10 -114 31 -96 27 22 1 188 -29 188 -6 0 -7 -38
-2 -92z"/>
</g>
</svg>
