<?xml version="1.0" standalone="no"?>
<!DOCTYPE svg PUBLIC "-//W3C//DTD SVG 20010904//EN"
 "http://www.w3.org/TR/2001/REC-SVG-20010904/DTD/svg10.dtd">
<svg version="1.0" xmlns="http://www.w3.org/2000/svg"
 width="480.000000pt" height="360.000000pt" viewBox="0 0 480.000000 360.000000"
 preserveAspectRatio="xMidYMid meet">
<metadata>
Created by potrace 1.16, written by Peter Selinger 2001-2019
</metadata>
<rect width="1" height="360" fill="#000000"/>
<rect x="479" width="1" height="360" fill="#000000"/>
<rect width="480" height="1" fill="#000000"/>
<rect y="359" width="480" height="1" fill="#000000"/>
<g transform="translate(0.000000,360.000000) scale(0.100000,-0.100000)"
fill="#000000" stroke="none">
<path d="M0 1800 l0 -1800 345 0 c231 0 345 3 345 10 0 6 39 98 86 205 86 195
127 264 242 409 61 77 63 79 57 125 -4 25 -13 66 -21 91 -15 48 -16 56 -63
279 -24 119 -28 154 -21 200 5 31 14 94 20 141 6 46 34 183 61 304 33 147 54
272 65 380 34 353 65 444 195 579 43 45 79 84 79 88 0 4 22 21 48 38 54 35
161 55 236 45 44 -6 46 -6 62 29 21 44 14 73 -31 127 -38 45 -42 61 -22 78 10
8 28 1 73 -29 48 -32 65 -39 89 -33 17 3 53 6 80 5 46 -1 52 2 67 29 9 17 28
34 40 39 17 6 32 31 57 95 38 97 79 166 134 225 47 51 66 53 32 4 -29 -44 -33
-63 -7 -40 35 32 32 17 -8 -35 -39 -52 -100 -165 -100 -186 0 -6 20 1 46 15
25 14 48 22 51 19 4 -3 -9 -22 -27 -41 l-34 -35 32 6 c45 9 39 -6 -13 -38 -30
-18 -46 -36 -51 -55 -4 -15 -18 -40 -31 -55 l-25 -26 26 -38 c14 -21 26 -47
26 -57 0 -33 19 -55 75 -89 56 -33 65 -47 42 -66 -9 -8 -24 -7 -52 3 -52 18
-79 18 -115 0 -56 -29 -56 -48 -1 -119 71 -94 91 -154 91 -279 0 -75 -4 -108
-15 -124 -8 -12 -12 -28 -9 -37 3 -9 1 -16 -5 -16 -6 0 -11 9 -11 20 0 30 -12
24 -45 -20 -16 -23 -35 -38 -41 -36 -7 3 -20 -2 -31 -9 -25 -20 -44 -19 -36 1
5 14 3 15 -15 5 -26 -14 -35 -14 -26 0 4 7 -2 9 -17 7 -22 -3 -24 -8 -24 -58
0 -54 0 -54 -34 -61 -19 -4 -38 -14 -43 -22 -4 -9 -21 -18 -36 -22 -24 -5 -30
-14 -44 -64 l-15 -59 49 -78 c73 -117 98 -170 103 -217 2 -24 11 -59 20 -80 8
-20 15 -44 14 -54 0 -12 -4 -8 -11 10 -21 57 -44 17 -25 -44 7 -25 17 -37 25
-34 10 3 11 -4 6 -30 -3 -19 -3 -35 2 -35 4 0 86 39 181 87 l173 86 -1 86 c0
159 26 200 137 209 93 8 124 -49 124 -229 l0 -77 38 -12 c20 -7 96 -43 168
-81 72 -38 137 -69 143 -69 9 0 11 12 7 43 -3 23 -3 36 0 30 10 -23 19 -14 33
31 9 31 10 50 3 63 -10 17 -11 16 -20 -7 -5 -14 -12 -32 -15 -40 -4 -10 -6 -8
-6 6 -1 12 6 41 15 65 9 24 18 61 20 83 4 41 49 131 116 231 l40 60 -13 54
c-12 48 -18 56 -47 65 -18 6 -37 17 -41 25 -5 7 -24 16 -42 20 -33 7 -34 8
-31 53 2 29 -3 58 -13 77 -20 39 -25 39 -20 1 4 -33 -10 -39 -46 -20 -14 8
-19 7 -19 -1 0 -7 -7 -8 -17 -4 -10 4 -26 7 -36 7 -11 -1 -31 18 -49 43 -28
40 -33 43 -44 27 -7 -9 -15 -14 -19 -11 -3 4 -9 53 -12 110 -9 178 21 261 146
392 l54 57 -23 43 c-32 58 -41 69 -55 63 -7 -2 -38 21 -68 52 l-56 57 23 41
c17 30 21 46 14 58 -27 48 -76 166 -70 166 4 0 25 -23 46 -50 21 -28 41 -49
43 -46 2 2 -14 40 -36 85 -23 44 -41 83 -41 87 0 14 201 -200 216 -229 15 -29
127 -200 144 -220 4 -5 35 1 68 12 45 16 87 21 159 21 109 0 162 -18 211 -72
15 -17 49 -51 76 -77 91 -87 156 -202 174 -311 6 -36 18 -146 27 -245 9 -99
23 -218 30 -265 8 -47 28 -164 44 -261 34 -205 50 -443 32 -478 -7 -12 -19
-50 -26 -84 -8 -34 -24 -91 -35 -127 -58 -178 -56 -161 -28 -221 48 -104 32
-96 344 -178 160 -42 232 -82 331 -183 45 -45 93 -97 107 -114 31 -38 126
-230 126 -256 0 -16 10 -18 100 -18 l100 0 0 1800 0 1800 -2400 0 -2400 0 0
-1800z"/>
<path d="M2815 2160 c3 -5 8 -10 11 -10 2 0 4 5 4 10 0 6 -5 10 -11 10 -5 0
-7 -4 -4 -10z"/>
<path d="M2390 1623 c0 -22 2 -25 10 -13 13 20 13 40 0 40 -5 0 -10 -12 -10
-27z"/>
<path d="M2391 1374 c0 -11 3 -14 6 -6 3 7 2 16 -1 19 -3 4 -6 -2 -5 -13z"/>
<path d="M2560 1185 c0 -54 3 -67 18 -72 9 -3 55 -21 102 -40 142 -59 154 -62
168 -51 6 6 12 16 12 23 0 10 -214 160 -277 194 -23 12 -23 11 -23 -54z"/>
<path d="M2059 1136 c-87 -57 -162 -105 -169 -108 -18 -6 0 -38 21 -38 10 0
65 21 121 46 57 26 126 54 153 64 42 14 51 21 53 45 4 34 -6 95 -16 95 -4 0
-77 -47 -163 -104z"/>
<path d="M2371 1048 c-41 -132 -39 -130 -153 -188 -57 -29 -105 -54 -107 -56
-8 -7 23 -36 58 -55 45 -23 76 -47 70 -53 -3 -3 -43 13 -89 34 -47 22 -90 40
-97 40 -19 0 -123 -63 -123 -75 0 -14 91 -93 144 -125 111 -68 149 -94 139
-97 -15 -5 -240 98 -307 141 -52 33 -62 36 -102 30 -35 -5 -51 -2 -79 15 -45
27 -45 27 -45 -7 0 -17 17 -56 40 -91 46 -70 50 -83 18 -54 -49 43 -52 42 -45
-31 4 -42 12 -73 23 -83 11 -11 13 -18 5 -21 -16 -5 -15 -17 21 -204 l32 -168
668 0 668 0 0 210 0 211 -75 -7 c-42 -4 -75 -3 -74 2 0 5 36 35 80 68 43 32
79 65 79 73 0 15 -7 13 -52 -21 -37 -26 -43 -16 -17 28 12 20 19 39 16 42 -5
5 -56 -23 -67 -37 -7 -9 -70 -40 -70 -35 0 3 18 26 41 52 l40 47 -81 39 c-53
26 -85 37 -93 31 -18 -14 -84 -31 -204 -53 -145 -27 -151 -25 -59 15 44 19 85
35 91 35 22 0 105 51 99 61 -3 5 -42 28 -86 50 -74 37 -86 40 -137 35 l-56 -5
40 14 c22 7 34 14 28 14 -14 1 -45 24 -78 58 -12 13 -30 51 -39 85 -9 35 -23
73 -30 86 -11 21 -14 18 -35 -50z"/>
<path d="M2947 989 c-9 -6 -17 -14 -17 -19 0 -17 27 -11 34 6 8 22 5 25 -17
13z"/>
<path d="M4064 55 c5 -11 11 -28 13 -37 3 -10 14 -18 25 -18 15 0 17 4 9 18
-5 9 -19 26 -32 37 -22 20 -22 20 -15 0z"/>
</g>
</svg>
