<?xml version="1.0" standalone="no"?>
<!DOCTYPE svg PUBLIC "-//W3C//DTD SVG 20010904//EN"
 "http://www.w3.org/TR/2001/REC-SVG-20010904/DTD/svg10.dtd">
<svg version="1.0" xmlns="http://www.w3.org/2000/svg"
 width="480.000000pt" height="360.000000pt" viewBox="0 0 480.000000 360.000000"
 preserveAspectRatio="xMidYMid meet">
<metadata>
Created by potrace 1.16, written by Peter Selinger 2001-2019
</metadata>
<rect width="1" height="360" fill="#000000"/>
<rect x="479" width="1" height="360" fill="#000000"/>
<rect width="480" height="1" fill="#000000"/>
<rect y="359" width="480" height="1" fill="#000000"/>
<g transform="translate(0.000000,360.000000) scale(0.100000,-0.100000)"
fill="#000000" stroke="none">
<path d="M0 1800 l0 -1800 2400 0 2400 0 0 1800 0 1800 -2400 0 -2400 0 0
-1800z m2524 1075 c41 -22 166 -118 166 -128 0 -13 -61 3 -96 24 -45 27 -84
25 -84 -3 0 -57 10 -67 84 -89 110 -33 129 -45 121 -79 -6 -26 -3 -29 27 -35
18 -4 51 -20 72 -36 l40 -29 -29 0 -29 0 22 -16 c21 -15 32 -42 12 -29 -6 3
-17 -1 -26 -10 -11 -11 -26 -14 -49 -9 -25 4 -35 2 -42 -10 -8 -15 -12 -15
-48 0 -37 15 -38 15 -25 -2 14 -16 13 -17 -5 -10 -11 5 -31 11 -44 14 -26 5
-25 -3 10 -85 20 -47 34 -54 44 -23 9 28 63 70 90 70 25 0 30 -17 37 -120 l3
-35 85 -12 c47 -7 106 -15 133 -18 33 -4 47 -11 47 -22 0 -13 -11 -14 -70 -8
-38 4 -70 5 -70 2 0 -4 27 -11 61 -18 43 -9 59 -16 55 -25 -7 -18 10 -18 107
1 46 9 135 15 213 15 114 0 133 -2 128 -15 -4 -10 0 -15 10 -15 9 0 16 -6 15
-12 -3 -29 2 -39 26 -48 14 -5 25 -15 25 -21 0 -7 9 -9 26 -5 16 4 23 3 20 -3
-7 -11 33 -43 46 -35 4 3 8 0 8 -5 0 -6 -6 -11 -13 -11 -16 0 -19 -32 -4 -42
14 -9 18 -38 6 -38 -6 0 -7 -4 -4 -10 3 -5 1 -10 -6 -10 -8 0 -8 -4 1 -15 10
-12 10 -15 -4 -15 -9 0 -15 -6 -13 -12 2 -14 -37 -16 -65 -3 -12 4 -18 3 -18
-5 0 -17 -26 -40 -45 -40 -12 0 -16 -6 -12 -19 4 -17 0 -19 -27 -17 -17 1 -41
7 -53 14 -40 22 -47 12 -13 -19 40 -35 24 -29 -37 14 -43 30 -104 46 -268 71
-49 8 -117 24 -150 37 -37 14 -84 23 -123 23 -61 1 -63 1 -57 -23 15 -60 16
-80 6 -100 -14 -26 -35 -27 -60 -2 -19 19 -20 19 -26 1 -3 -10 -13 -24 -21
-31 -25 -21 -43 8 -45 74 -1 33 -7 60 -13 61 -6 2 -25 7 -41 13 -21 7 -59 6
-120 -3 -102 -14 -140 -5 -140 33 0 13 -5 27 -10 32 -6 5 -68 15 -140 20 -186
15 -263 20 -242 14 9 -2 17 -11 17 -19 0 -8 20 -23 45 -34 32 -14 43 -23 39
-35 -8 -20 -16 -19 -81 11 -67 30 -184 70 -233 79 -27 5 -40 2 -56 -14 -20
-18 -24 -18 -43 -5 -11 8 -21 21 -21 29 0 14 -18 19 -102 30 -50 7 -92 43 -86
74 4 19 27 18 283 -10 99 -11 259 -26 355 -33 l175 -14 28 26 c16 15 40 47 54
72 14 25 36 62 49 82 22 34 22 39 9 65 -7 15 -17 55 -22 87 -7 54 -11 60 -38
69 -63 20 -80 54 -46 94 29 34 65 39 85 12 9 -13 16 -33 16 -44 0 -26 28 -67
41 -59 16 10 28 50 22 73 -4 16 -11 19 -28 15 -17 -4 -29 3 -52 31 -28 33 -77
58 -169 86 -43 13 -93 64 -87 89 4 15 11 19 24 15 23 -8 24 1 4 22 -32 31 -15
47 50 48 l60 0 3 -33 c3 -27 7 -32 20 -27 9 3 28 9 42 11 14 3 35 21 48 40 34
53 77 74 147 74 34 0 73 -7 89 -15z"/>
<path d="M2382 2238 c-11 -24 -36 -67 -56 -97 -36 -53 -46 -91 -25 -91 18 0
134 96 148 123 11 22 10 29 -13 66 -15 22 -28 41 -31 41 -2 0 -13 -19 -23 -42z"/>
<path d="M2755 2172 c-12 -12 -3 -21 34 -36 34 -13 193 -34 166 -21 -33 15
-195 62 -200 57z"/>
</g>
</svg>
