<?xml version="1.0" standalone="no"?>
<!DOCTYPE svg PUBLIC "-//W3C//DTD SVG 20010904//EN"
 "http://www.w3.org/TR/2001/REC-SVG-20010904/DTD/svg10.dtd">
<svg version="1.0" xmlns="http://www.w3.org/2000/svg"
 width="480.000000pt" height="360.000000pt" viewBox="0 0 480.000000 360.000000"
 preserveAspectRatio="xMidYMid meet">
<metadata>
Created by potrace 1.16, written by Peter Selinger 2001-2019
</metadata>
<rect width="1" height="360" fill="#000000"/>
<rect x="479" width="1" height="360" fill="#000000"/>
<rect width="480" height="1" fill="#000000"/>
<rect y="359" width="480" height="1" fill="#000000"/>
<g transform="translate(0.000000,360.000000) scale(0.100000,-0.100000)"
fill="#000000" stroke="none">
<path d="M1603 3523 c18 -165 -10 -393 -69 -558 -72 -203 -152 -331 -297 -478
-77 -77 -121 -115 -200 -173 -101 -74 -360 -178 -504 -204 -119 -21 -418 -12
-511 16 l-22 6 0 -1066 0 -1066 1335 0 c832 0 1335 4 1335 9 0 20 40 282 50
328 6 26 33 118 60 204 64 201 86 288 116 473 13 83 36 209 50 280 19 95 23
135 16 151 -6 12 -14 59 -18 104 l-7 82 -44 21 c-55 26 -83 61 -83 105 l0 34
-26 -20 c-34 -26 -54 -26 -88 0 -23 18 -27 18 -32 5 -8 -20 -33 -20 -62 0 -21
14 -25 14 -50 -2 -44 -29 -112 -22 -277 28 -116 36 -169 47 -235 50 -89 3 -94
1 -76 -43 13 -31 -35 -32 -66 -2 -24 23 -28 35 -28 79 0 46 3 55 28 72 15 10
35 22 45 25 15 6 287 -36 480 -75 75 -14 107 0 107 48 0 29 3 33 27 31 23 -2
28 3 33 28 6 34 30 44 157 65 44 7 87 21 108 36 19 13 60 31 90 39 30 9 55 19
55 22 0 4 -7 14 -16 24 -14 16 -14 18 5 29 32 17 25 30 -17 30 -35 0 -39 4
-62 48 -14 26 -33 57 -44 69 -19 23 -19 23 8 44 l28 22 -32 13 c-18 8 -36 12
-40 9 -4 -3 -11 6 -14 20 -4 14 -11 25 -17 25 -6 0 -7 5 -4 10 8 13 -4 52 -15
45 -18 -11 11 71 39 111 l30 43 -29 65 c-35 77 -39 121 -10 136 15 8 47 1 152
-35 73 -24 145 -54 160 -65 15 -11 31 -20 35 -20 61 0 167 -74 208 -144 34
-58 42 -87 61 -224 10 -76 23 -128 39 -158 26 -49 41 -115 51 -216 5 -66 7
-69 50 -100 47 -33 60 -61 50 -103 -4 -14 -2 -25 3 -25 12 0 21 -63 10 -70 -4
-3 11 -42 34 -87 l41 -81 -12 -126 c-10 -93 -10 -137 -2 -166 12 -45 16 -144
11 -267 -3 -64 0 -87 13 -108 16 -24 16 -26 0 -32 -11 -4 -23 2 -35 18 -22 29
-24 11 -5 -36 20 -47 1 -58 -32 -19 -24 29 -24 29 -19 4 3 -14 9 -36 13 -49 6
-20 4 -23 -9 -18 -10 4 -17 2 -17 -4 0 -18 69 -177 129 -297 79 -158 154 -332
182 -419 l23 -73 428 0 428 0 0 1800 0 1800 -1603 0 -1603 0 9 -77z"/>
<path d="M3316 1551 c-5 -7 -5 -29 0 -49 4 -20 6 -48 5 -62 -1 -16 13 -45 39
-79 22 -30 40 -48 40 -40 0 31 -77 242 -84 230z"/>
</g>
</svg>
