<?xml version="1.0" standalone="no"?>
<!DOCTYPE svg PUBLIC "-//W3C//DTD SVG 20010904//EN"
 "http://www.w3.org/TR/2001/REC-SVG-20010904/DTD/svg10.dtd">
<svg version="1.0" xmlns="http://www.w3.org/2000/svg"
 width="480.000000pt" height="360.000000pt" viewBox="0 0 480.000000 360.000000"
 preserveAspectRatio="xMidYMid meet">
<metadata>
Created by potrace 1.16, written by Peter Selinger 2001-2019
</metadata>
<rect width="1" height="360" fill="#000000"/>
<rect x="479" width="1" height="360" fill="#000000"/>
<rect width="480" height="1" fill="#000000"/>
<rect y="359" width="480" height="1" fill="#000000"/>
<g transform="translate(0.000000,360.000000) scale(0.100000,-0.100000)"
fill="#000000" stroke="none">
<path d="M850 3153 c0 -29 13 -86 25 -115 5 -14 -2 -21 -34 -34 -23 -9 -41
-22 -41 -28 0 -15 42 -36 70 -36 15 0 17 -6 13 -40 -7 -48 6 -51 40 -10 30 35
43 38 50 10 3 -11 10 -20 16 -20 7 0 7 8 1 26 -6 14 -10 27 -10 28 0 2 23 6
50 8 28 3 53 8 57 11 9 9 -18 38 -44 48 l-24 9 20 27 c26 35 39 93 21 93 -18
0 -78 -39 -89 -57 -7 -14 -10 -13 -21 8 -14 28 -80 99 -92 99 -4 0 -8 -12 -8
-27z"/>
<path d="M3240 2955 c-19 -14 -44 -25 -57 -25 -35 0 -114 -33 -167 -69 -56
-39 -135 -116 -226 -221 l-65 -74 49 27 c27 15 51 26 53 24 2 -2 -13 -34 -33
-72 -22 -42 -31 -66 -22 -62 12 4 14 -7 10 -69 -3 -51 -1 -74 7 -74 6 0 11 8
12 18 0 9 5 4 11 -13 20 -62 20 -61 33 -31 l12 30 8 -25 c4 -13 13 -27 18 -31
16 -10 -20 -46 -60 -63 -37 -16 -45 -52 -17 -76 13 -10 15 -24 10 -61 -4 -27
-4 -54 0 -60 4 -6 9 -23 10 -37 7 -69 22 -133 32 -143 6 -6 37 -15 68 -19 31
-4 58 -9 60 -12 2 -2 1 -18 -2 -36 -7 -34 -9 -34 -71 -15 -10 3 -2 -9 19 -26
l36 -32 -13 -47 c-8 -25 -18 -65 -24 -88 -9 -33 -21 -47 -61 -73 -40 -25 -52
-40 -62 -73 -7 -23 -38 -84 -70 -135 -62 -99 -67 -112 -43 -112 20 0 19 -23
-3 -50 -18 -22 -20 -22 -82 -8 l-63 14 -25 65 c-15 39 -30 110 -38 183 -11
102 -11 129 2 198 8 44 23 101 33 127 14 36 17 59 11 106 -17 137 51 769 98
923 23 73 19 104 -19 137 -60 50 -139 40 -168 -20 -12 -24 -12 -42 -3 -95 12
-68 13 -52 -58 -680 -14 -126 -39 -269 -51 -291 -5 -10 -9 -47 -9 -82 0 -79
-9 -129 -23 -124 -14 4 -78 132 -78 154 0 10 2 43 3 73 3 46 0 55 -15 58 -27
5 -48 -18 -87 -95 -19 -37 -43 -74 -52 -81 -10 -7 -18 -24 -18 -38 0 -13 -11
-34 -25 -46 -21 -18 -25 -30 -25 -79 0 -32 5 -70 10 -84 6 -15 55 -80 109
-145 55 -65 105 -128 111 -140 16 -31 -5 -155 -31 -179 -11 -10 -34 -56 -51
-102 -31 -81 -33 -89 -34 -249 -1 -93 -7 -177 -13 -193 -6 -16 -11 -50 -11
-77 0 -47 -2 -51 -37 -69 -59 -30 -87 -65 -78 -98 11 -44 1 -149 -16 -167 -5
-6 -9 -14 -9 -18 0 -4 502 -8 1115 -8 780 0 1115 3 1115 11 0 68 -27 350 -50
524 -16 121 -38 297 -50 391 l-20 171 30 174 c70 408 88 657 60 874 -13 103
-52 242 -85 300 -12 22 -32 72 -44 111 -45 152 -172 271 -361 336 -65 22 -215
48 -282 48 -37 0 -50 4 -58 20 -14 27 -39 25 -80 -5z"/>
</g>
</svg>
