<?xml version="1.0" standalone="no"?>
<!DOCTYPE svg PUBLIC "-//W3C//DTD SVG 20010904//EN"
 "http://www.w3.org/TR/2001/REC-SVG-20010904/DTD/svg10.dtd">
<svg version="1.0" xmlns="http://www.w3.org/2000/svg"
 width="480.000000pt" height="360.000000pt" viewBox="0 0 480.000000 360.000000"
 preserveAspectRatio="xMidYMid meet">
<metadata>
Created by potrace 1.16, written by Peter Selinger 2001-2019
</metadata>
<rect width="1" height="360" fill="#000000"/>
<rect x="479" width="1" height="360" fill="#000000"/>
<rect width="480" height="1" fill="#000000"/>
<rect y="359" width="480" height="1" fill="#000000"/>
<g transform="translate(0.000000,360.000000) scale(0.100000,-0.100000)"
fill="#000000" stroke="none">
<path d="M0 1800 l0 -1800 1005 0 c797 0 1005 3 1005 13 0 51 24 263 41 360
18 99 19 128 10 181 -14 79 -14 184 -1 223 9 23 7 45 -9 101 -10 39 -17 73
-14 76 4 3 5 86 4 183 -2 136 -6 184 -18 206 l-15 30 -26 -34 c-54 -72 -139
-148 -173 -154 -22 -4 -77 4 -159 25 -69 16 -177 35 -240 40 -108 10 -116 12
-142 40 -15 17 -33 30 -41 30 -8 0 -18 11 -21 25 -6 22 -9 24 -54 18 -27 -3
-100 2 -163 10 -63 9 -149 19 -191 22 -75 6 -107 22 -93 45 3 5 17 10 31 10
24 0 24 1 9 24 -23 35 -5 39 50 11 53 -27 62 -27 46 3 -16 30 -14 42 7 42 10
0 24 6 30 13 9 8 54 13 135 15 114 3 125 1 172 -22 l50 -25 21 25 c19 23 24
25 44 14 18 -9 28 -9 46 0 20 11 36 8 120 -24 106 -41 285 -88 295 -77 23 22
139 271 133 285 -13 34 10 71 92 151 l84 82 -6 47 c-7 46 -7 46 52 104 33 32
69 64 82 72 14 10 25 29 29 54 l6 38 -31 -16 c-52 -27 -73 -21 -124 38 -27 30
-48 60 -48 66 0 6 -13 16 -30 21 -35 13 -37 22 -10 57 l21 26 -23 23 c-15 14
-38 24 -62 26 -27 2 -45 11 -59 28 -11 13 -24 23 -28 21 -5 -1 -9 10 -9 25 0
16 -4 34 -9 42 -7 11 -11 10 -20 -5 -21 -38 -12 13 24 123 47 144 69 181 133
223 l53 35 -7 67 c-4 38 -3 69 2 69 47 7 111 5 121 -3 23 -18 39 -1 51 53 7
30 24 79 38 109 l26 55 21 -28 22 -28 41 48 42 48 32 -30 c41 -38 98 -122 139
-202 22 -45 31 -76 31 -113 0 -46 3 -53 40 -86 113 -102 178 -312 226 -724 15
-133 22 -160 85 -335 75 -208 117 -370 126 -483 5 -65 4 -72 -11 -66 -13 5
-16 0 -16 -25 0 -18 -7 -48 -15 -67 -9 -22 -12 -42 -6 -52 26 -52 21 -83 -39
-261 -37 -111 -65 -215 -76 -281 -11 -73 -22 -111 -35 -126 -12 -13 -21 -40
-24 -70 -18 -198 -26 -355 -20 -415 l7 -69 994 0 994 0 0 1800 0 1800 -2400 0
-2400 0 0 -1800z"/>
<path d="M924 1475 c24 -18 39 -20 34 -2 -3 6 -15 13 -29 15 -23 2 -23 2 -5
-13z"/>
<path d="M2083 1145 c0 -27 2 -38 4 -22 2 15 2 37 0 50 -2 12 -4 0 -4 -28z"/>
</g>
</svg>
