<?xml version="1.0" standalone="no"?>
<!DOCTYPE svg PUBLIC "-//W3C//DTD SVG 20010904//EN"
 "http://www.w3.org/TR/2001/REC-SVG-20010904/DTD/svg10.dtd">
<svg version="1.0" xmlns="http://www.w3.org/2000/svg"
 width="480.000000pt" height="360.000000pt" viewBox="0 0 480.000000 360.000000"
 preserveAspectRatio="xMidYMid meet">
<metadata>
Created by potrace 1.16, written by Peter Selinger 2001-2019
</metadata>
<rect width="1" height="360" fill="#000000"/>
<rect x="479" width="1" height="360" fill="#000000"/>
<rect width="480" height="1" fill="#000000"/>
<rect y="359" width="480" height="1" fill="#000000"/>
<g transform="translate(0.000000,360.000000) scale(0.100000,-0.100000)"
fill="#000000" stroke="none">
<path d="M0 2898 l0 -701 20 18 c12 10 29 38 40 62 21 48 86 113 113 113 10 0
21 -10 26 -22 5 -15 21 -25 52 -32 52 -13 62 -37 27 -70 -12 -12 -31 -32 -40
-44 -11 -14 -29 -22 -47 -22 -16 0 -34 -7 -42 -16 -11 -13 -8 -20 19 -45 17
-16 34 -25 37 -19 11 18 69 11 108 -13 42 -26 168 -161 191 -206 8 -15 20 -59
27 -97 11 -65 73 -198 272 -591 l27 -52 97 50 c295 152 289 148 311 201 17 41
28 52 67 69 26 12 94 29 151 40 57 10 112 23 122 28 26 14 87 82 105 116 29
56 76 219 103 359 l26 140 -28 53 c-31 57 -34 59 -63 41 -10 -6 -26 -8 -36 -4
-15 5 -17 14 -12 55 6 49 6 49 -26 55 -47 9 -124 61 -147 99 -27 43 -25 47 13
47 l32 0 -30 24 -30 24 51 50 c29 28 82 64 119 82 l66 32 -17 26 c-10 15 -35
58 -57 97 -72 131 -52 142 100 54 98 -56 108 -60 118 -44 20 35 67 85 98 104
98 60 331 103 452 83 l69 -11 39 35 c33 30 44 35 71 30 17 -4 47 -6 66 -6 19
0 41 -4 49 -9 10 -7 31 5 75 40 88 71 91 68 89 -76 -2 -112 -4 -124 -32 -178
-25 -47 -27 -58 -13 -52 86 34 472 33 472 -1 0 -8 -58 -32 -151 -62 -147 -48
-150 -49 -126 -65 13 -8 30 -29 37 -46 17 -43 -4 -103 -40 -111 -15 -4 -25
-13 -25 -24 0 -12 -23 -32 -63 -57 -35 -21 -68 -39 -73 -41 -5 -2 5 -39 21
-83 74 -196 120 -390 150 -644 11 -92 20 -199 20 -239 0 -68 3 -78 45 -150 60
-105 82 -158 90 -218 7 -54 -5 -89 -46 -142 -17 -22 -17 -25 2 -80 14 -39 19
-71 15 -100 -4 -26 3 -87 18 -160 34 -165 42 -194 71 -236 14 -20 25 -47 25
-59 0 -12 14 -84 32 -159 l33 -138 733 0 732 0 0 1800 0 1800 -2400 0 -2400 0
0 -702z"/>
<path d="M210 2017 c23 -38 70 -67 70 -42 0 8 -20 28 -45 45 l-45 31 20 -34z"/>
<path d="M1966 1775 c-10 -38 -30 -91 -42 -117 -13 -26 -24 -50 -24 -53 0 -9
36 -5 89 11 60 18 79 48 63 99 -9 29 -10 28 -11 -17 -1 -27 -5 -48 -10 -48
-11 0 -30 70 -39 145 l-7 50 -19 -70z"/>
<path d="M0 910 l0 -910 710 0 c443 0 710 4 710 10 0 15 164 89 246 110 42 11
112 23 156 26 69 6 82 10 95 31 14 21 14 26 2 34 -8 5 -20 7 -26 4 -18 -6 -16
8 12 77 32 79 32 85 -6 54 -57 -48 -123 -75 -135 -55 -2 5 25 67 61 138 51
103 65 140 65 176 0 25 -3 45 -7 45 -5 0 -21 -9 -38 -20 -26 -17 -75 -28 -75
-16 0 3 24 36 53 75 53 70 53 72 50 133 -5 101 -35 318 -44 318 -4 0 -38 -29
-76 -65 -37 -36 -76 -65 -85 -65 -10 0 -18 -4 -18 -10 0 -30 -118 -53 -159
-30 -15 7 -32 -2 -87 -45 -99 -79 -109 -83 -142 -58 l-28 21 -139 -79 c-256
-145 -390 -165 -480 -72 -65 67 -227 436 -336 766 -35 107 -48 126 -150 215
-56 48 -107 91 -115 95 -12 7 -14 -121 -14 -903z"/>
</g>
</svg>
