<?xml version="1.0" standalone="no"?>
<!DOCTYPE svg PUBLIC "-//W3C//DTD SVG 20010904//EN"
 "http://www.w3.org/TR/2001/REC-SVG-20010904/DTD/svg10.dtd">
<svg version="1.0" xmlns="http://www.w3.org/2000/svg"
 width="480.000000pt" height="360.000000pt" viewBox="0 0 480.000000 360.000000"
 preserveAspectRatio="xMidYMid meet">
<metadata>
Created by potrace 1.16, written by Peter Selinger 2001-2019
</metadata>
<rect width="1" height="360" fill="#000000"/>
<rect x="479" width="1" height="360" fill="#000000"/>
<rect width="480" height="1" fill="#000000"/>
<rect y="359" width="480" height="1" fill="#000000"/>
<g transform="translate(0.000000,360.000000) scale(0.100000,-0.100000)"
fill="#000000" stroke="none">
<path d="M355 3588 c-13 -44 -14 -222 0 -303 8 -50 19 -155 25 -235 6 -80 13
-171 17 -203 5 -57 5 -57 -26 -68 -21 -7 -38 -24 -51 -49 -10 -20 -30 -50 -43
-66 -28 -35 -34 -108 -12 -160 21 -50 45 -45 73 16 13 28 26 50 30 49 22 -2
73 -82 82 -125 14 -73 -12 -143 -60 -167 -20 -9 -44 -17 -52 -17 -12 0 -86
-26 -95 -34 -1 0 -4 -13 -8 -29 l-7 -27 65 0 c62 0 67 -2 79 -27 12 -26 18
-28 70 -28 56 -1 56 -1 103 -57 25 -31 57 -64 70 -72 31 -20 74 -20 103 -1 21
15 21 21 18 132 -2 64 -2 122 1 129 2 7 32 29 66 49 34 20 74 47 90 60 27 24
27 25 9 43 -17 17 -23 18 -72 5 -29 -7 -55 -11 -58 -9 -12 13 33 104 73 147
25 27 43 54 40 60 -5 6 -12 6 -23 -3 -10 -8 -7 3 9 32 32 55 42 83 29 75 -6
-4 -10 23 -10 72 0 85 -11 118 -28 88 -8 -16 -11 -14 -17 14 -5 22 -11 31 -21
27 -8 -3 -14 1 -14 9 0 19 -19 20 -26 2 -3 -8 -16 -12 -33 -9 -23 3 -30 -1
-36 -17 -9 -30 -22 -26 -29 10 -11 57 69 189 204 334 122 131 153 173 145 202
-3 13 1 34 11 48 15 23 15 25 -2 31 -11 4 -27 14 -36 22 -12 10 -29 13 -55 9
-26 -4 -44 -1 -57 8 -11 8 -39 15 -63 15 -24 0 -60 7 -80 15 -47 20 -391 22
-398 3z"/>
<path d="M2400 1800 l0 -1800 827 2 827 3 34 84 c30 73 36 105 48 235 7 83 18
167 24 186 13 46 13 51 -9 79 l-18 24 -55 -42 c-67 -50 -103 -54 -113 -11 -10
47 -3 183 12 205 27 40 11 35 -54 -19 -37 -31 -69 -54 -71 -51 -2 2 10 24 27
49 29 44 29 46 9 46 -12 0 -33 -10 -46 -23 -16 -14 -26 -18 -29 -10 -2 7 -11
9 -19 6 -8 -3 -14 0 -14 7 0 7 -8 9 -21 5 -18 -6 -19 -4 -10 13 9 18 8 19 -12
14 -21 -5 -21 -4 -6 14 9 10 20 26 24 34 6 12 5 13 -6 3 -39 -37 -29 9 31 131
l41 84 98 63 c70 44 104 72 114 95 15 30 14 33 -1 39 -14 5 -11 11 17 38 31
30 52 62 100 148 21 38 68 63 96 52 9 -3 21 -1 28 5 6 5 29 15 50 22 30 9 41
9 52 0 18 -15 20 -61 3 -78 -9 -9 -7 -17 10 -35 11 -12 28 -39 37 -60 15 -38
15 -38 -13 -67 -16 -16 -39 -46 -52 -67 -12 -21 -28 -42 -36 -46 -11 -6 -1
-20 39 -60 87 -86 97 -104 97 -167 0 -71 15 -95 49 -77 29 14 42 41 15 30 -13
-5 -16 -3 -11 9 3 9 0 19 -8 22 -19 7 -7 46 15 46 25 0 70 -38 70 -60 0 -10 9
-37 20 -61 45 -101 11 -184 -109 -266 -65 -44 -70 -51 -71 -84 0 -20 21 -95
46 -165 62 -173 74 -219 74 -286 l0 -58 125 0 125 0 0 1800 0 1800 -1200 0
-1200 0 0 -1800z"/>
</g>
</svg>
