<?xml version="1.0" standalone="no"?>
<!DOCTYPE svg PUBLIC "-//W3C//DTD SVG 20010904//EN"
 "http://www.w3.org/TR/2001/REC-SVG-20010904/DTD/svg10.dtd">
<svg version="1.0" xmlns="http://www.w3.org/2000/svg"
 width="480.000000pt" height="360.000000pt" viewBox="0 0 480.000000 360.000000"
 preserveAspectRatio="xMidYMid meet">
<metadata>
Created by potrace 1.16, written by Peter Selinger 2001-2019
</metadata>
<rect width="1" height="360" fill="#000000"/>
<rect x="479" width="1" height="360" fill="#000000"/>
<rect width="480" height="1" fill="#000000"/>
<rect y="359" width="480" height="1" fill="#000000"/>
<g transform="translate(0.000000,360.000000) scale(0.100000,-0.100000)"
fill="#000000" stroke="none">
<path d="M2831 3484 c-61 -64 -110 -119 -107 -121 2 -2 20 3 41 11 l36 16 -35
-49 c-40 -54 -47 -74 -16 -46 26 23 33 16 21 -21 -14 -42 -20 -114 -11 -114 4
0 10 7 14 15 3 8 10 15 15 15 7 0 7 -9 0 -27 -7 -19 -7 -29 0 -31 6 -2 11 -16
12 -30 0 -15 3 -21 6 -14 7 17 23 5 23 -19 0 -10 6 -28 13 -40 10 -17 9 -22
-8 -35 -11 -8 -36 -19 -57 -25 -45 -12 -49 -34 -18 -84 17 -27 18 -37 9 -64
-6 -17 -7 -39 -3 -49 4 -9 9 -28 10 -42 10 -97 22 -160 32 -173 7 -8 39 -17
72 -21 l60 -7 -15 -29 c-20 -38 -19 -43 5 -30 16 9 19 8 13 -6 -5 -14 -3 -15
15 -5 11 6 24 16 27 21 15 24 20 5 20 -66 -1 -73 -2 -76 -33 -100 -20 -16 -32
-34 -32 -49 0 -26 -82 -110 -161 -166 -24 -17 -53 -41 -65 -53 -26 -27 -133
-152 -162 -190 -23 -31 -31 -59 -10 -38 19 19 25 14 21 -20 -2 -26 -1 -29 5
-13 5 11 13 20 18 20 5 0 15 4 21 8 7 4 -13 -45 -43 -110 -109 -227 -116 -308
-48 -563 26 -99 36 -158 38 -220 l1 -85 -85 -12 c-162 -23 -356 -26 -469 -9
-146 22 -169 36 -192 111 -15 48 -16 66 -7 91 9 26 8 36 -5 55 -27 38 -22 93
12 131 27 30 28 34 14 55 -14 22 -14 23 8 23 31 1 52 17 72 57 15 27 15 36 3
70 -7 21 -23 55 -36 75 -12 21 -19 41 -16 47 10 15 -15 71 -36 82 -15 8 -24 7
-38 -6 -13 -12 -42 -17 -105 -20 -75 -3 -93 -7 -133 -32 -77 -48 -118 -144
-147 -348 -9 -60 -36 -175 -60 -255 -68 -223 -77 -276 -70 -415 6 -127 19
-204 41 -245 7 -14 22 -47 34 -75 14 -32 24 -45 29 -37 5 9 11 6 20 -11 11
-21 10 -36 -7 -96 l-20 -71 350 0 351 0 -6 32 c-4 18 -18 89 -32 157 -14 68
-25 128 -25 132 0 15 115 31 174 25 79 -8 369 -56 375 -61 4 -4 -28 -190 -45
-257 l-6 -28 616 0 616 0 -51 86 c-28 47 -91 149 -140 226 -73 117 -89 148
-89 181 0 22 -15 78 -34 126 -44 113 -65 310 -46 447 15 119 19 125 75 117 25
-3 45 -3 45 -1 0 3 -9 26 -20 51 -12 26 -23 75 -27 110 l-6 63 51 38 c53 39
97 110 86 140 -3 9 -1 16 5 16 7 0 11 -20 11 -49 0 -31 5 -53 15 -61 13 -11
15 -8 15 18 0 37 28 71 41 50 16 -24 9 54 -12 152 -12 52 -21 104 -21 115 0
32 -27 154 -43 193 -18 41 -19 56 -4 46 13 -8 4 25 -18 69 -22 43 -9 32 31
-28 37 -57 62 -73 51 -32 -15 52 -16 57 -11 57 3 0 20 -28 38 -62 20 -40 33
-57 36 -46 2 10 9 15 18 11 9 -3 14 2 14 16 0 19 3 19 28 9 15 -7 44 -30 65
-52 l39 -41 -4 66 c-4 65 -3 65 21 61 16 -3 22 -1 17 7 -4 6 -5 11 -3 11 3 0
18 -20 34 -45 32 -52 47 -58 31 -14 -13 38 -9 42 26 23 35 -17 45 -11 27 19
-10 15 -10 22 -3 25 7 2 -3 25 -23 55 -19 29 -35 55 -35 60 0 14 78 -47 91
-71 23 -42 28 -7 9 63 -24 85 -24 89 -5 81 8 -3 15 -1 15 4 0 6 -4 10 -10 10
-5 0 -10 5 -10 12 0 6 -21 45 -47 87 -70 111 -70 150 -3 350 63 187 68 242 42
411 -27 175 -62 252 -155 348 l-71 72 -437 0 -437 0 -111 -116z m-1401 -3215
c0 -16 -4 -29 -10 -29 -5 0 -10 16 -10 36 0 21 4 33 10 29 6 -3 10 -19 10 -36z"/>
</g>
</svg>
