<?xml version="1.0" standalone="no"?>
<!DOCTYPE svg PUBLIC "-//W3C//DTD SVG 20010904//EN"
 "http://www.w3.org/TR/2001/REC-SVG-20010904/DTD/svg10.dtd">
<svg version="1.0" xmlns="http://www.w3.org/2000/svg"
 width="480.000000pt" height="360.000000pt" viewBox="0 0 480.000000 360.000000"
 preserveAspectRatio="xMidYMid meet">
<metadata>
Created by potrace 1.16, written by Peter Selinger 2001-2019
</metadata>
<rect width="1" height="360" fill="#000000"/>
<rect x="479" width="1" height="360" fill="#000000"/>
<rect width="480" height="1" fill="#000000"/>
<rect y="359" width="480" height="1" fill="#000000"/>
<g transform="translate(0.000000,360.000000) scale(0.100000,-0.100000)"
fill="#000000" stroke="none">
<path d="M0 2655 c0 -520 4 -945 8 -945 15 0 164 93 242 151 41 31 117 95 167
142 51 48 101 87 112 87 28 0 402 -185 553 -273 161 -94 226 -112 372 -104 55
3 129 13 162 22 58 15 64 15 120 -3 127 -42 112 -48 209 81 92 124 118 145
237 196 94 41 104 50 89 91 -5 17 -8 37 -5 45 6 15 -24 35 -43 28 -6 -2 -13 6
-15 19 -4 28 -22 31 -25 3 -1 -11 -5 -47 -9 -80 -6 -57 -7 -58 -17 -30 -9 27
-11 28 -18 10 -5 -13 -8 2 -8 43 -1 34 -5 62 -11 62 -5 0 -10 -7 -10 -15 0 -7
-5 -38 -12 -67 l-11 -53 -18 95 c-16 89 -37 161 -38 133 -2 -25 -20 -12 -31
22 -13 40 -24 44 -40 15 -16 -30 -33 -13 -27 26 7 39 6 39 -34 18 -41 -21 -48
-10 -18 24 59 64 72 104 40 121 -15 8 -20 6 -29 -14 -14 -30 -28 -31 -67 -5
-16 11 -40 20 -51 20 -12 0 -32 9 -45 20 l-24 20 30 22 c53 38 130 122 149
162 18 37 18 42 1 112 -16 68 -16 78 0 156 20 101 42 152 86 202 79 90 158
116 359 117 80 0 192 1 250 1 127 1 193 -20 267 -87 44 -39 103 -134 103 -165
0 -7 13 2 29 19 19 21 38 31 58 31 61 0 193 -102 233 -181 11 -20 24 -67 31
-105 6 -38 18 -85 26 -104 13 -33 13 -36 -10 -55 -14 -11 -33 -38 -44 -59 -19
-38 -19 -40 -2 -86 23 -60 79 -330 69 -330 -4 0 -10 -19 -14 -42 -8 -54 -58
-212 -68 -216 -5 -2 -8 -10 -8 -19 0 -8 -6 -13 -12 -10 -8 2 -20 -13 -29 -37
l-17 -41 -7 28 c-7 28 -44 39 -46 15 -1 -7 -7 16 -13 52 -11 61 -13 63 -20 33
-11 -48 -22 -40 -29 20 -4 28 -20 91 -37 139 l-31 87 3 205 c4 244 -4 268 -52
162 -44 -100 -39 -132 26 -173 17 -11 16 -12 -14 -12 -30 -1 -32 -3 -26 -26 5
-21 3 -24 -11 -18 -16 5 -17 2 -11 -33 l7 -39 -31 33 c-17 19 -33 32 -34 30
-2 -1 -9 -14 -16 -27 -9 -18 -14 -21 -21 -10 -6 11 -9 11 -13 -1 -18 -49 -36
-119 -36 -142 0 -16 -4 -28 -10 -28 -5 0 -10 8 -10 17 0 33 -19 -2 -34 -62
l-14 -60 -2 55 -2 55 -13 -55 -12 -55 -4 105 -4 105 -18 -32 c-10 -18 -23 -33
-31 -33 -23 0 -44 -34 -51 -82 l-7 -46 53 -30 c174 -97 167 -91 268 -224 107
-142 108 -143 216 -115 45 12 56 11 121 -9 156 -50 262 -54 374 -16 30 11 129
56 220 100 91 45 203 95 249 112 46 17 115 44 153 61 39 17 77 28 88 24 10 -3
54 -45 97 -92 94 -104 213 -210 317 -282 l76 -52 0 1035 0 1036 -2400 0 -2400
0 0 -945z"/>
<path d="M481 1918 c-44 -47 -48 -54 -35 -69 7 -8 14 -23 14 -31 0 -9 11 -23
25 -32 13 -9 41 -42 61 -73 l37 -57 -8 -176 c-11 -244 -18 -330 -30 -332 -11
-1 -24 22 -94 172 -26 58 -65 140 -84 182 -20 42 -39 88 -42 101 -7 26 20 144
37 165 26 31 -4 19 -50 -20 -27 -24 -84 -63 -126 -88 -49 -29 -76 -51 -76 -63
0 -10 15 -33 33 -52 19 -19 45 -56 59 -82 l25 -48 -17 -242 c-9 -133 -19 -246
-23 -250 -12 -12 -23 7 -103 182 -42 94 -78 172 -80 174 -2 2 -4 -284 -4 -637
l0 -642 879 0 878 0 31 108 c17 59 40 142 52 185 23 85 74 216 115 298 18 34
27 67 26 98 0 25 5 93 10 151 6 63 6 129 1 165 l-8 60 -41 -86 c-22 -47 -58
-105 -79 -129 -35 -39 -323 -238 -481 -334 -34 -20 -100 -50 -145 -65 -46 -16
-130 -48 -187 -71 -100 -41 -107 -42 -178 -36 -84 8 -199 46 -258 85 -49 33
-53 57 -10 53 126 -13 201 -6 296 26 74 25 99 38 107 57 14 29 0 36 -41 21
-24 -9 -31 -8 -43 8 -12 17 -12 22 3 38 35 39 188 52 263 22 49 -20 31 -31
266 164 82 68 179 143 216 168 71 47 72 50 83 129 4 27 21 94 39 148 l32 99
-35 34 -36 33 34 29 c34 28 34 28 16 55 -9 15 -17 42 -17 60 0 34 0 34 -63 45
-84 16 -114 15 -122 -4 -3 -8 3 -25 15 -37 11 -12 27 -52 35 -89 17 -75 28
-25 -93 -415 -38 -125 -50 -147 -65 -123 -5 9 -61 365 -72 461 -6 52 22 126
65 172 16 17 22 31 16 36 -10 10 -94 16 -198 13 -65 -2 -68 -3 -54 -19 31 -35
58 -103 58 -145 0 -47 -47 -442 -56 -471 -3 -10 -11 -16 -17 -14 -7 2 -49 110
-95 241 l-82 238 22 75 c12 41 28 77 35 80 7 3 13 17 13 32 0 23 -13 37 -78
84 -74 54 -178 107 -205 107 -7 0 -4 -5 6 -11 17 -10 77 -98 89 -130 9 -25
-22 -502 -33 -514 -13 -13 -23 4 -69 115 -20 47 -63 145 -95 219 l-58 134 12
61 c7 34 18 70 26 82 7 11 15 32 16 46 3 23 -5 30 -95 77 -54 28 -102 51 -107
51 -5 0 -31 -24 -58 -52z"/>
<path d="M4245 1828 c-11 -7 -54 -27 -95 -45 -70 -30 -75 -34 -71 -60 1 -16 7
-35 12 -44 4 -9 13 -44 18 -79 l10 -62 -53 -92 c-29 -50 -77 -131 -105 -181
-63 -108 -81 -130 -92 -113 -4 7 -5 109 -2 228 l5 215 30 47 c17 26 42 57 56
69 l27 20 -30 -6 c-42 -9 -139 -55 -206 -98 -63 -40 -77 -70 -49 -105 10 -12
23 -50 29 -84 l12 -63 -89 -185 c-49 -102 -96 -191 -105 -198 -20 -17 -23 -1
-37 182 -20 243 -20 235 12 293 16 29 33 55 39 58 22 14 4 23 -66 34 -91 13
-172 14 -179 2 -3 -5 10 -32 29 -60 46 -70 50 -101 27 -202 -11 -46 -32 -137
-47 -201 -15 -68 -32 -119 -40 -122 -10 -3 -22 22 -43 87 -16 51 -46 143 -66
205 -37 114 -37 114 -21 163 9 26 27 64 41 84 13 20 22 41 19 46 -4 5 -42 9
-87 9 -77 0 -80 -1 -75 -22 6 -23 -17 -78 -34 -78 -13 0 17 -57 33 -63 17 -6
0 -36 -28 -51 -26 -15 -35 -28 -28 -46 14 -37 45 -218 42 -250 -3 -33 0 -37
62 -76 36 -22 133 -87 215 -145 83 -58 157 -109 165 -114 8 -5 55 -9 105 -10
54 -1 111 -9 144 -19 56 -18 105 -58 98 -79 -4 -13 -52 -15 -79 -3 -27 12 -23
-26 5 -51 62 -58 265 -133 356 -133 42 0 45 -12 13 -50 -25 -30 -34 -33 -114
-43 -138 -17 -221 8 -412 126 -32 20 -82 44 -110 53 -65 21 -134 56 -316 157
-263 147 -287 168 -330 301 -25 77 -34 74 -44 -16 -5 -36 -2 -90 9 -152 11
-65 13 -101 7 -113 -8 -13 -4 -29 13 -63 47 -94 113 -258 134 -335 12 -44 36
-128 53 -187 l31 -108 878 0 879 0 0 350 c0 250 -3 350 -11 350 -8 0 -9 12 -4
38 11 57 17 672 7 672 -5 0 -15 -7 -22 -15 -10 -12 -10 -19 -2 -27 7 -7 12
-42 12 -82 l0 -71 -151 -172 c-82 -95 -154 -173 -159 -173 -15 0 -12 33 16
185 14 77 29 164 34 194 5 29 15 60 22 69 28 35 92 87 112 92 38 10 31 42 -17
72 -24 15 -79 60 -122 99 -47 43 -81 67 -83 60 -2 -7 1 -18 7 -24 6 -6 11 -44
11 -85 0 -83 11 -61 -140 -277 -96 -137 -120 -166 -131 -160 -4 3 -6 20 -4 38
2 17 9 97 15 177 18 246 16 237 73 297 27 29 56 53 64 53 7 0 16 8 20 18 3 9
13 25 21 34 13 16 10 23 -32 73 -50 58 -58 62 -91 43z"/>
<path d="M1 1554 c0 -11 3 -14 6 -6 3 7 2 16 -1 19 -3 4 -6 -2 -5 -13z"/>
</g>
</svg>
