<?xml version="1.0" standalone="no"?>
<!DOCTYPE svg PUBLIC "-//W3C//DTD SVG 20010904//EN"
 "http://www.w3.org/TR/2001/REC-SVG-20010904/DTD/svg10.dtd">
<svg version="1.0" xmlns="http://www.w3.org/2000/svg"
 width="480.000000pt" height="360.000000pt" viewBox="0 0 480.000000 360.000000"
 preserveAspectRatio="xMidYMid meet">
<metadata>
Created by potrace 1.16, written by Peter Selinger 2001-2019
</metadata>
<rect width="1" height="360" fill="#000000"/>
<rect x="479" width="1" height="360" fill="#000000"/>
<rect width="480" height="1" fill="#000000"/>
<rect y="359" width="480" height="1" fill="#000000"/>
<g transform="translate(0.000000,360.000000) scale(0.100000,-0.100000)"
fill="#000000" stroke="none">
<path d="M0 1800 l0 -1800 945 0 c562 0 945 4 945 9 0 29 -52 139 -107 227
-78 125 -111 197 -119 257 l-7 47 138 0 c130 0 270 -15 413 -44 51 -10 65 -10
69 0 12 31 -84 324 -171 519 -20 45 -38 106 -42 140 -5 41 -21 88 -51 148 -24
48 -46 107 -49 131 -12 86 50 222 123 267 31 19 34 25 29 52 -7 35 -17 47 -23
29 -3 -6 -9 -10 -14 -6 -5 3 -7 32 -3 68 8 80 -10 172 -37 187 -11 5 -24 21
-29 34 -12 32 -64 70 -134 96 -71 26 -136 88 -156 148 -7 22 -16 38 -20 36
-10 -6 -20 32 -20 79 0 37 45 216 74 298 13 34 12 38 -10 59 -32 30 -30 61 7
104 40 46 34 71 -31 126 -28 23 -50 45 -50 49 0 3 19 17 41 29 43 25 110 32
143 16 18 -8 19 -5 13 43 -7 61 1 65 50 22 37 -33 51 -31 102 16 31 29 47 30
61 5 6 -13 28 -23 62 -29 103 -19 204 -33 303 -41 271 -23 510 -192 593 -421
28 -76 40 -145 52 -287 5 -68 15 -131 21 -141 6 -10 27 -29 46 -42 l35 -24
-38 -11 c-24 -7 -34 -14 -27 -18 7 -4 10 -14 7 -21 -3 -7 6 -39 20 -70 24 -55
23 -69 -3 -44 -11 11 -12 6 -7 -27 4 -23 3 -35 -2 -27 -6 9 -16 10 -41 1 -31
-11 -32 -13 -25 -55 8 -53 -8 -59 -34 -14 -23 40 -29 38 -25 -7 3 -36 3 -37
-9 -13 -7 14 -15 27 -18 30 -4 3 -10 14 -14 24 -4 13 -10 16 -16 10 -7 -7 -6
-31 1 -68 12 -67 8 -78 -17 -41 -11 18 -19 22 -24 14 -4 -6 -19 -12 -34 -11
-26 0 -32 -13 -18 -34 4 -7 36 -15 72 -19 126 -14 172 -53 270 -227 17 -32 33
-58 35 -58 1 0 15 16 30 36 l27 35 -22 24 c-18 19 -20 27 -10 44 6 12 8 27 4
33 -4 7 -3 8 5 4 6 -4 31 4 54 17 87 51 118 105 82 141 -19 18 -19 33 -1 68
12 23 12 33 -1 70 -20 58 -12 163 21 254 30 84 31 85 11 78 -18 -7 -45 13 -45
33 0 7 20 26 44 41 l44 27 4 210 c3 170 7 217 21 248 34 75 40 55 58 -210 7
-101 16 -188 19 -194 5 -8 19 -7 50 2 38 12 44 11 56 -6 16 -22 6 -38 -41 -67
-20 -12 -24 -18 -13 -18 24 0 45 -36 53 -90 4 -25 15 -61 25 -80 10 -19 23
-55 30 -80 20 -79 82 -214 112 -243 33 -34 37 -76 8 -102 -20 -18 -20 -18 6
-46 21 -22 25 -33 19 -58 -7 -32 -2 -30 -113 -47 -49 -7 -65 -41 -68 -138 -2
-106 -10 -133 -40 -140 -19 -5 -30 0 -48 20 -12 15 -27 24 -33 21 -6 -4 -43
-62 -83 -129 -41 -68 -93 -156 -117 -197 l-44 -74 21 -22 c14 -15 29 -21 45
-18 23 5 24 3 22 -56 l-2 -62 65 -25 c114 -44 125 -51 155 -94 24 -35 27 -45
17 -61 -16 -24 -17 -21 18 -60 54 -62 31 -126 -42 -116 l-38 5 6 -82 c5 -66 3
-88 -10 -115 -19 -35 -82 -70 -144 -78 -22 -3 -47 -19 -75 -47 -23 -23 -68
-56 -99 -73 -66 -38 -68 -40 -61 -76 l5 -27 784 0 784 0 0 1800 0 1800 -2400
0 -2400 0 0 -1800z"/>
<path d="M1992 2172 c-1 -27 5 -48 18 -64 l19 -23 0 30 c0 17 -8 45 -18 64
l-18 33 -1 -40z"/>
<path d="M2165 1860 c14 -95 18 -110 27 -110 6 0 7 7 2 18 -4 9 -9 40 -12 67
-2 28 -8 55 -14 60 -7 7 -8 -5 -3 -35z"/>
<path d="M2796 1846 c3 -8 13 -17 22 -21 13 -5 13 -2 -3 15 -21 24 -26 25 -19
6z"/>
<path d="M2331 1826 c-19 -7 -37 -20 -41 -30 -6 -17 -7 -17 -23 -2 -9 10 -17
22 -17 27 0 19 -18 8 -24 -15 -3 -13 -9 -31 -12 -40 -5 -13 1 -16 35 -16 59 0
121 21 121 42 0 9 3 23 6 32 7 19 1 19 -45 2z"/>
</g>
</svg>
