<?xml version="1.0" standalone="no"?>
<!DOCTYPE svg PUBLIC "-//W3C//DTD SVG 20010904//EN"
 "http://www.w3.org/TR/2001/REC-SVG-20010904/DTD/svg10.dtd">
<svg version="1.0" xmlns="http://www.w3.org/2000/svg"
 width="480.000000pt" height="360.000000pt" viewBox="0 0 480.000000 360.000000"
 preserveAspectRatio="xMidYMid meet">
<metadata>
Created by potrace 1.16, written by Peter Selinger 2001-2019
</metadata>
<rect width="1" height="360" fill="#000000"/>
<rect x="479" width="1" height="360" fill="#000000"/>
<rect width="480" height="1" fill="#000000"/>
<rect y="359" width="480" height="1" fill="#000000"/>
<g transform="translate(0.000000,360.000000) scale(0.100000,-0.100000)"
fill="#000000" stroke="none">
<path d="M3905 1224 c18 -41 11 -90 -27 -168 -26 -54 -47 -85 -68 -97 -16 -10
-30 -22 -30 -26 0 -5 16 -21 35 -36 31 -24 35 -33 35 -73 0 -24 11 -77 25
-116 30 -87 30 -85 3 -84 -22 1 -23 -2 -22 -89 3 -163 34 -239 97 -233 l32 3
0 -63 c0 -42 4 -65 14 -71 15 -10 8 -61 -9 -61 -13 0 -70 -79 -70 -97 0 -10
40 -13 205 -13 113 0 205 2 205 5 0 2 -8 20 -17 40 -13 27 -14 39 -5 57 6 13
15 75 20 138 8 101 7 122 -10 173 -14 43 -16 62 -8 72 19 23 76 26 174 10 92
-14 97 -14 148 6 28 11 74 25 102 30 27 5 54 15 58 22 4 6 8 38 8 70 0 71 -16
81 -97 58 -49 -13 -59 -13 -98 1 -42 16 -59 16 -224 3 l-53 -4 5 28 c3 15 31
79 61 141 58 119 65 140 43 140 -7 0 -45 -65 -86 -145 l-74 -145 -37 0 c-34 0
-38 3 -44 31 -8 44 -8 61 3 55 10 -6 31 45 31 74 0 9 -11 38 -25 64 -26 48
-26 61 -6 110 14 35 2 53 -26 37 -26 -13 -68 -2 -152 42 -55 28 -66 38 -80 76
-9 25 -22 46 -30 49 -11 4 -12 0 -6 -14z"/>
<path d="M2566 1188 c-4 -9 -14 -14 -21 -12 -9 4 -12 0 -8 -14 2 -11 0 -23 -6
-26 -5 -4 -8 -12 -5 -19 2 -7 -16 -32 -40 -55 -37 -35 -50 -41 -71 -36 -49 12
-70 -30 -36 -75 17 -22 17 -26 1 -85 -10 -33 -25 -83 -34 -110 -12 -34 -14
-52 -6 -60 7 -7 10 -6 10 2 0 7 5 12 10 12 6 0 10 -18 10 -39 0 -37 -2 -40
-36 -48 -48 -11 -64 -35 -45 -65 35 -57 81 -153 81 -170 0 -11 -11 -43 -25
-70 -24 -47 -24 -52 -9 -69 10 -11 14 -27 11 -41 -4 -13 -15 -57 -26 -98 -33
-121 -52 -110 183 -110 l204 0 -23 75 c-13 42 -35 96 -49 121 l-25 45 21 44
c16 33 31 48 54 55 18 6 35 17 38 25 9 25 40 16 69 -20 31 -39 66 -46 88 -18
12 14 15 11 19 -27 3 -24 10 -45 16 -47 19 -6 103 67 124 107 l20 39 -38 6
c-20 3 -46 8 -57 10 -34 8 -87 45 -92 66 -3 10 -9 19 -13 19 -5 0 -6 9 -3 20
3 11 0 20 -6 20 -6 0 -11 6 -11 13 0 7 -9 21 -21 30 -16 14 -24 16 -35 6 -19
-16 -44 5 -44 37 0 17 -6 24 -20 24 -27 0 -100 37 -100 51 0 6 5 7 10 4 6 -3
10 4 10 16 0 13 17 38 41 60 39 36 41 41 36 79 -4 33 -1 46 19 69 28 33 30 41
9 41 -8 0 -19 9 -25 20 -6 11 -16 17 -22 14 -6 -4 -17 2 -25 12 -8 10 -30 36
-49 57 -31 33 -34 40 -23 54 11 12 11 17 2 20 -7 2 -9 11 -6 20 4 10 2 14 -5
10 -6 -4 -12 1 -15 10 -4 17 -4 17 -11 1z"/>
<path d="M870 1070 c0 -6 -11 -15 -25 -20 -21 -8 -24 -13 -16 -28 17 -32 -1
-66 -71 -131 -55 -52 -70 -61 -85 -52 -44 23 -62 -28 -26 -75 24 -32 25 -38
14 -73 -17 -60 -14 -78 19 -98 20 -12 34 -30 41 -55 5 -21 22 -49 36 -63 15
-13 25 -26 23 -28 -3 -3 -26 -14 -52 -25 -34 -15 -48 -27 -48 -41 0 -11 -4
-23 -10 -26 -5 -3 -10 -33 -10 -65 0 -68 -5 -73 -115 -106 -33 -10 -69 -26
-80 -35 -20 -17 -70 -33 -135 -43 -50 -7 -173 56 -192 99 -15 34 -32 40 -94
30 l-44 -6 0 -115 0 -114 241 0 c201 0 240 2 230 13 -13 16 -5 27 19 27 10 0
51 15 91 34 121 56 119 56 153 -14 l28 -60 174 0 c133 0 174 3 174 13 0 6 -7
43 -15 80 -10 49 -12 86 -6 135 8 62 7 70 -17 112 -14 25 -34 56 -44 70 -19
25 -19 25 5 45 30 24 57 75 57 107 0 13 -12 58 -26 100 l-27 77 27 36 c25 32
26 36 9 41 -37 12 -69 29 -91 48 -19 17 -22 27 -17 61 6 37 3 43 -35 79 -22
21 -40 47 -40 57 0 11 -4 19 -10 19 -5 0 -10 -5 -10 -10z"/>
</g>
</svg>
