<?xml version="1.0" standalone="no"?>
<!DOCTYPE svg PUBLIC "-//W3C//DTD SVG 20010904//EN"
 "http://www.w3.org/TR/2001/REC-SVG-20010904/DTD/svg10.dtd">
<svg version="1.0" xmlns="http://www.w3.org/2000/svg"
 width="480.000000pt" height="360.000000pt" viewBox="0 0 480.000000 360.000000"
 preserveAspectRatio="xMidYMid meet">
<metadata>
Created by potrace 1.16, written by Peter Selinger 2001-2019
</metadata>
<rect width="1" height="360" fill="#000000"/>
<rect x="479" width="1" height="360" fill="#000000"/>
<rect width="480" height="1" fill="#000000"/>
<rect y="359" width="480" height="1" fill="#000000"/>
<g transform="translate(0.000000,360.000000) scale(0.100000,-0.100000)"
fill="#000000" stroke="none">
<path d="M2543 3126 c-16 -20 -19 -36 -16 -68 5 -39 -104 -699 -126 -768 -4
-14 -18 -27 -32 -30 -22 -6 -24 -11 -23 -63 0 -31 -3 -57 -8 -57 -5 0 -8 -10
-7 -22 1 -13 -2 -31 -6 -41 -4 -11 -2 -28 5 -43 11 -20 11 -37 -4 -107 -36
-171 -129 -552 -147 -605 -10 -30 -19 -68 -19 -83 0 -19 -9 -34 -30 -49 -17
-12 -30 -29 -29 -39 4 -22 -10 -77 -31 -126 -19 -43 -12 -75 15 -75 8 0 16 -4
20 -9 5 -9 -34 -225 -91 -496 -14 -66 -36 -182 -50 -259 -13 -76 -27 -149 -30
-162 -6 -23 -4 -24 40 -24 42 0 46 2 52 28 3 15 16 67 30 115 13 48 24 107 24
130 0 53 29 232 75 457 19 96 35 176 35 177 0 7 49 2 54 -5 5 -8 -55 -244
-100 -399 -10 -34 -16 -65 -12 -68 16 -16 192 -36 283 -33 117 5 183 31 266
106 27 24 52 42 55 39 8 -8 -69 -296 -142 -529 -5 -17 19 -18 409 -18 l415 0
6 31 c3 17 6 64 6 103 0 108 -38 566 -51 611 -20 72 -40 129 -51 142 -12 15
10 155 48 299 63 242 84 423 89 797 4 279 3 302 -16 365 -42 135 -94 212 -174
255 -35 19 -56 22 -160 22 -109 -1 -126 -3 -194 -30 -104 -42 -149 -87 -215
-217 -42 -83 -49 -105 -34 -97 17 9 19 8 14 -8 -11 -35 28 -96 87 -136 19 -13
20 -18 9 -34 -24 -35 -25 -44 -3 -59 11 -8 21 -21 21 -27 0 -7 18 -38 40 -69
44 -63 44 -88 0 -88 -24 0 -30 5 -35 33 -10 45 -32 66 -77 73 -47 8 -67 34
-114 147 -19 45 -44 90 -57 99 -12 9 -30 23 -40 30 -18 13 -18 18 -2 109 26
146 123 581 145 651 11 35 20 72 20 84 0 30 -32 55 -78 61 -33 4 -42 1 -59
-21z m6 -1180 c8 -10 6 -20 -9 -39 -12 -14 -26 -40 -31 -57 -7 -20 -20 -32
-37 -36 -39 -10 -51 -22 -62 -65 -8 -28 -8 -64 0 -122 11 -84 52 -183 122
-293 29 -46 30 -46 72 -41 42 6 42 6 78 -48 32 -49 37 -65 43 -142 6 -71 5
-85 -6 -81 -8 3 -68 22 -134 42 -66 21 -144 46 -173 57 -29 10 -63 19 -75 19
-28 0 -90 37 -82 49 3 5 14 62 25 128 19 112 140 603 160 650 9 22 10 22 54 7
25 -9 50 -21 55 -28z"/>
</g>
</svg>
