<?xml version="1.0" standalone="no"?>
<!DOCTYPE svg PUBLIC "-//W3C//DTD SVG 20010904//EN"
 "http://www.w3.org/TR/2001/REC-SVG-20010904/DTD/svg10.dtd">
<svg version="1.0" xmlns="http://www.w3.org/2000/svg"
 width="480.000000pt" height="360.000000pt" viewBox="0 0 480.000000 360.000000"
 preserveAspectRatio="xMidYMid meet">
<metadata>
Created by potrace 1.16, written by Peter Selinger 2001-2019
</metadata>
<rect width="1" height="360" fill="#000000"/>
<rect x="479" width="1" height="360" fill="#000000"/>
<rect width="480" height="1" fill="#000000"/>
<rect y="359" width="480" height="1" fill="#000000"/>
<g transform="translate(0.000000,360.000000) scale(0.100000,-0.100000)"
fill="#000000" stroke="none">
<path d="M1801 1574 c-12 -15 -21 -39 -21 -54 0 -40 -19 -51 -100 -55 -40 -2
-74 -6 -78 -9 -3 -3 3 -23 12 -44 13 -30 15 -44 7 -66 -17 -44 -13 -92 15
-159 35 -82 76 -133 133 -161 58 -30 104 -72 125 -113 18 -35 50 -58 71 -49 7
2 19 -2 25 -10 7 -8 18 -14 24 -14 6 0 44 -30 85 -66 80 -71 142 -114 166
-114 21 0 19 18 -5 32 -11 7 -20 19 -20 26 0 24 36 -5 81 -67 35 -49 59 -69
122 -103 43 -24 93 -53 111 -64 18 -12 51 -27 72 -34 22 -7 68 -29 104 -50 36
-21 106 -57 157 -80 89 -39 94 -40 122 -25 17 8 45 15 64 15 23 0 43 9 62 26
17 16 33 23 44 19 9 -4 43 -9 77 -12 72 -6 120 13 130 53 8 31 -7 44 -51 44
-51 0 -105 19 -105 37 0 9 15 39 34 67 27 39 45 55 83 70 65 26 103 54 103 75
0 31 -26 43 -82 39 l-53 -3 -9 37 c-8 31 -5 45 21 100 41 85 51 180 23 215
-11 14 -20 32 -20 40 0 7 -11 18 -25 23 -14 5 -25 16 -25 24 0 9 -14 22 -30
31 -29 15 -34 14 -98 -13 -37 -17 -92 -35 -122 -42 -30 -7 -109 -33 -175 -57
-108 -40 -291 -93 -323 -93 -9 0 -10 5 -2 19 17 33 13 42 -16 30 -34 -12 -42
-4 -20 20 13 15 16 28 11 53 -12 62 -16 68 -40 68 -13 0 -36 11 -50 24 l-25
24 37 30 c21 17 35 33 31 37 -3 3 -28 -1 -54 -10 -26 -9 -72 -18 -102 -21 -52
-6 -53 -5 -43 15 7 11 31 35 54 53 37 28 72 83 91 141 3 9 15 17 26 17 13 0
20 7 20 20 0 45 -99 10 -115 -40 -4 -11 -14 -20 -24 -20 -9 0 -37 -21 -61 -46
-73 -75 -139 -124 -168 -124 -33 0 -92 35 -92 54 0 7 -10 26 -22 41 l-21 27
22 18 23 17 -80 81 c-44 45 -82 82 -85 82 -3 0 -15 -12 -26 -26z"/>
</g>
</svg>
