<?xml version="1.0" standalone="no"?>
<!DOCTYPE svg PUBLIC "-//W3C//DTD SVG 20010904//EN"
 "http://www.w3.org/TR/2001/REC-SVG-20010904/DTD/svg10.dtd">
<svg version="1.0" xmlns="http://www.w3.org/2000/svg"
 width="480.000000pt" height="360.000000pt" viewBox="0 0 480.000000 360.000000"
 preserveAspectRatio="xMidYMid meet">
<metadata>
Created by potrace 1.16, written by Peter Selinger 2001-2019
</metadata>
<rect width="1" height="360" fill="#000000"/>
<rect x="479" width="1" height="360" fill="#000000"/>
<rect width="480" height="1" fill="#000000"/>
<rect y="359" width="480" height="1" fill="#000000"/>
<g transform="translate(0.000000,360.000000) scale(0.100000,-0.100000)"
fill="#000000" stroke="none">
<path d="M0 2605 c0 -547 4 -995 8 -995 11 0 143 91 202 138 25 20 95 84 155
141 61 57 119 108 131 113 16 7 31 5 61 -11 22 -11 97 -43 166 -70 69 -28 202
-89 296 -136 93 -47 196 -92 227 -100 81 -21 194 -19 289 6 44 11 89 23 101
25 12 3 53 -4 91 -15 39 -12 77 -21 86 -21 8 0 30 24 48 53 108 174 125 190
246 241 43 18 78 38 77 45 -1 6 -2 22 -2 36 -1 14 -7 25 -13 25 -5 0 -8 -4 -4
-9 3 -5 2 -12 -3 -15 -5 -3 -15 23 -22 57 l-15 62 -5 -75 c-6 -78 -8 -78 -35
5 -18 57 -44 107 -45 86 0 -24 -14 -2 -31 52 -10 31 -17 43 -18 30 -1 -33 -15
-28 -29 10 l-13 32 -19 -25 -20 -25 0 38 c0 42 0 42 -40 22 -38 -20 -38 -14 5
42 49 64 46 86 -10 64 -12 -5 -30 -3 -48 6 -15 7 -31 12 -35 9 -5 -3 -21 6
-37 18 l-29 24 67 65 c38 36 75 84 87 109 18 41 18 47 4 94 -19 61 -13 153 15
245 27 87 80 146 163 185 61 28 69 29 213 29 83 1 175 4 205 9 71 10 180 -8
247 -40 58 -28 104 -76 135 -140 l21 -43 25 20 c34 26 58 24 120 -12 66 -37
126 -98 160 -163 15 -27 33 -59 40 -71 32 -59 25 -189 -15 -273 -18 -37 -11
-84 29 -206 21 -65 20 -88 -18 -246 -23 -94 -43 -126 -84 -134 -3 -1 -11 -5
-18 -10 -15 -9 -15 -10 -35 29 -11 20 -16 24 -17 13 0 -37 -16 -15 -40 55 -13
39 -27 74 -31 77 -22 15 -38 128 -42 288 -5 166 -11 202 -39 202 -5 0 -20 -25
-33 -55 -29 -66 -25 -110 14 -142 l26 -23 -23 0 c-21 0 -23 -3 -17 -32 l7 -32
-26 17 -26 17 6 -32 6 -33 -31 33 -32 33 -15 -37 c-11 -27 -15 -61 -12 -116 2
-43 1 -78 -1 -78 -2 0 -10 8 -17 18 -12 15 -13 8 -14 -48 0 -41 -4 -60 -9 -51
-5 7 -13 11 -19 7 -11 -6 -25 48 -38 142 -3 28 -9 52 -13 52 -3 0 -34 -29 -68
-64 -44 -44 -63 -71 -63 -88 0 -28 5 -31 144 -89 44 -18 98 -49 119 -68 40
-35 120 -151 137 -197 11 -28 27 -29 95 -9 45 14 55 14 130 -4 44 -11 112 -23
150 -26 97 -9 177 18 345 114 145 84 423 221 447 221 8 0 60 -47 115 -105 97
-102 232 -211 333 -270 52 -30 262 -135 270 -135 3 0 5 475 5 1055 l0 1055
-2400 0 -2400 0 0 -995z"/>
<path d="M2191 2114 c2 -63 12 -95 27 -85 17 10 6 95 -14 112 -12 9 -14 5 -13
-27z"/>
<path d="M2692 2070 c0 -19 2 -27 5 -17 2 9 2 25 0 35 -3 9 -5 1 -5 -18z"/>
<path d="M461 1833 c-48 -55 -49 -59 -33 -76 9 -11 35 -28 58 -39 71 -33 93
-64 110 -159 8 -46 24 -132 35 -192 12 -59 18 -115 15 -123 -6 -15 -9 -14 -34
2 -31 20 -22 11 -133 134 -46 52 -97 108 -112 124 -35 37 -41 64 -33 133 l6
55 -47 -41 c-27 -23 -82 -65 -123 -93 -100 -67 -97 -65 -59 -81 57 -25 99 -68
109 -112 11 -50 44 -300 44 -339 2 -63 -10 -54 -221 173 l-43 46 0 -623 0
-622 869 0 869 0 35 113 c20 61 52 169 71 238 19 70 58 178 87 240 44 97 52
124 54 179 1 36 5 106 10 156 9 101 -4 132 -24 61 -14 -48 -59 -122 -111 -183
-19 -23 -42 -50 -50 -60 -38 -47 -210 -232 -255 -276 -82 -79 -280 -169 -339
-154 -29 7 -118 76 -141 108 -81 116 -96 147 -102 212 -6 62 -5 66 15 66 11 0
22 -6 25 -12 3 -10 8 -10 21 1 15 13 19 13 26 1 5 -8 4 -22 -1 -32 -14 -27 -3
-38 31 -31 23 4 30 2 30 -11 0 -9 7 -16 16 -16 9 0 14 6 11 13 -3 6 -8 19 -12
28 -4 11 3 26 22 43 25 24 35 26 109 26 85 0 145 -15 193 -49 l28 -20 38 57
c21 31 54 82 74 112 40 63 102 143 114 148 4 2 7 8 7 14 0 6 15 27 33 48 29
31 35 47 41 105 4 37 5 69 3 71 -2 3 -40 -33 -85 -78 -44 -45 -84 -79 -88 -75
-10 10 113 416 137 449 10 15 19 42 19 61 0 34 -1 34 -52 41 -121 14 -164 3
-133 -34 20 -24 34 -137 20 -163 -88 -166 -135 -254 -169 -311 -40 -68 -66
-92 -66 -63 0 9 -5 17 -10 19 -14 4 -14 20 -6 138 3 52 9 140 12 195 6 106 25
150 82 195 l24 19 -26 7 c-31 7 -196 -5 -196 -14 1 -4 14 -23 30 -42 l30 -34
0 -147 c0 -80 -3 -180 -6 -222 -10 -111 -29 -104 -104 38 -150 282 -141 261
-134 307 3 24 15 58 25 76 31 55 26 66 -58 120 -43 27 -89 53 -103 57 -24 7
-24 7 -8 -12 11 -12 23 -55 32 -114 8 -52 22 -137 30 -189 9 -52 16 -105 16
-117 0 -37 -28 -27 -74 25 -80 89 -216 261 -225 284 -7 21 -3 67 14 153 6 30
5 31 -52 54 -32 13 -77 34 -100 47 -23 13 -46 24 -51 24 -6 0 -33 -26 -61 -57z"/>
<path d="M4025 1874 c-11 -9 -46 -29 -77 -45 -44 -22 -58 -35 -59 -52 -3 -95
-8 -136 -20 -160 -9 -20 -48 -50 -130 -98 -65 -38 -122 -69 -128 -69 -6 0 -11
-4 -11 -9 0 -5 -16 -15 -36 -21 -20 -7 -80 -46 -132 -87 -124 -97 -141 -108
-151 -97 -14 15 66 317 89 336 11 9 20 19 20 22 0 3 -38 6 -85 6 -47 0 -85 -3
-85 -6 0 -4 18 -24 40 -46 22 -22 40 -48 40 -57 0 -32 -39 -221 -50 -241 -6
-11 -18 -20 -28 -20 -18 1 -147 182 -157 222 -4 15 5 43 24 81 l29 57 -79 0
c-45 0 -79 -4 -79 -10 0 -5 -14 -17 -31 -26 l-31 -16 25 -26 c22 -23 30 -53
56 -199 41 -227 41 -235 -6 -191 -28 26 -28 24 -8 -98 8 -50 25 -115 38 -145
32 -71 139 -477 186 -699 l37 -175 787 -3 787 -2 0 564 0 563 -61 7 c-34 3
-89 6 -123 6 -80 0 -96 10 -60 39 14 11 33 21 40 21 8 0 14 4 14 10 0 5 -64 7
-170 3 -124 -4 -170 -3 -170 5 0 10 91 77 158 117 9 6 46 30 82 54 63 42 67
43 127 38 35 -2 63 -3 63 -1 0 2 -45 26 -100 54 l-99 50 -16 -22 c-8 -13 -15
-30 -15 -39 0 -10 -18 -39 -39 -66 l-39 -50 -163 -32 c-90 -18 -174 -35 -186
-38 -16 -3 -23 -1 -23 9 0 20 233 246 266 258 14 6 44 10 67 11 l42 0 -34 27
c-19 15 -62 51 -97 80 -35 29 -65 51 -65 50 -1 -2 -3 -14 -4 -29 -2 -14 -14
-50 -28 -80 -21 -47 -30 -57 -73 -76 -66 -30 -292 -123 -299 -123 -10 0 -5 39
8 52 7 7 48 66 91 131 43 65 88 125 101 133 12 8 46 19 75 23 28 5 59 15 67
24 15 14 12 20 -26 66 -46 55 -55 59 -86 35z"/>
<path d="M3608 1675 c-25 -19 -49 -39 -53 -44 -7 -13 4 -101 14 -101 7 0 94
171 89 175 -2 2 -24 -12 -50 -30z"/>
<path d="M4779 1364 c-13 -16 -40 -84 -33 -84 2 0 15 5 29 12 20 9 25 18 25
50 0 43 -2 45 -21 22z"/>
<path d="M2765 858 c4 -40 7 -82 7 -93 -4 -55 2 -78 52 -185 61 -129 76 -172
106 -291 27 -110 90 -289 101 -289 12 0 11 12 -5 51 -7 19 -14 73 -14 121 -1
83 -4 94 -63 235 -100 240 -145 363 -164 446 -9 42 -19 77 -22 77 -3 0 -2 -33
2 -72z"/>
<path d="M1210 610 c-12 -8 -10 -10 8 -10 13 0 20 4 17 10 -7 12 -6 12 -25 0z"/>
</g>
</svg>
