<?xml version="1.0" standalone="no"?>
<!DOCTYPE svg PUBLIC "-//W3C//DTD SVG 20010904//EN"
 "http://www.w3.org/TR/2001/REC-SVG-20010904/DTD/svg10.dtd">
<svg version="1.0" xmlns="http://www.w3.org/2000/svg"
 width="480.000000pt" height="360.000000pt" viewBox="0 0 480.000000 360.000000"
 preserveAspectRatio="xMidYMid meet">
<metadata>
Created by potrace 1.16, written by Peter Selinger 2001-2019
</metadata>
<rect width="1" height="360" fill="#000000"/>
<rect x="479" width="1" height="360" fill="#000000"/>
<rect width="480" height="1" fill="#000000"/>
<rect y="359" width="480" height="1" fill="#000000"/>
<g transform="translate(0.000000,360.000000) scale(0.100000,-0.100000)"
fill="#000000" stroke="none">
<path d="M1 2570 c-1 -419 0 -462 14 -443 9 12 25 51 36 85 18 55 20 79 15
183 -3 66 -12 147 -20 180 l-15 60 32 33 c18 19 49 43 70 53 60 31 75 91 27
108 -22 7 -30 16 -30 35 0 26 -7 29 -72 41 -39 6 -40 8 -51 100 -2 17 -5 -179
-6 -435z"/>
<path d="M2570 2994 c0 -3 9 -19 21 -35 16 -22 17 -29 6 -29 -34 0 -39 -26
-14 -71 l24 -43 -25 -45 c-14 -26 -38 -62 -53 -82 -16 -20 -29 -41 -29 -45 0
-5 -13 -19 -30 -32 -17 -14 -27 -29 -23 -38 3 -8 -5 -26 -17 -39 -12 -13 -20
-30 -17 -38 3 -8 1 -19 -5 -25 -7 -7 3 -17 33 -32 85 -43 105 -64 113 -117 3
-26 10 -68 14 -93 5 -25 6 -87 3 -138 -6 -84 -8 -94 -33 -115 -39 -33 -43 -59
-13 -102 14 -21 25 -48 25 -60 0 -12 6 -28 14 -34 8 -6 24 -35 36 -64 26 -62
61 -93 113 -102 46 -8 51 -18 77 -136 22 -100 20 -130 -11 -191 -26 -50 -24
-64 9 -76 15 -6 36 -17 46 -25 19 -14 19 -15 -2 -33 -13 -10 -22 -30 -22 -45
0 -15 -11 -41 -25 -57 -14 -17 -25 -35 -25 -40 0 -6 -6 -17 -13 -24 -19 -19
-64 -154 -72 -218 -4 -30 -13 -82 -20 -115 -7 -33 -19 -87 -25 -120 -7 -33
-38 -166 -70 -295 -33 -129 -58 -236 -56 -237 2 -2 285 -2 630 -1 l627 3 -61
83 c-79 107 -106 184 -180 512 -50 218 -80 320 -118 395 -49 97 -56 140 -28
169 25 24 37 77 62 266 17 138 13 215 -16 271 l-19 37 72 6 c110 11 131 10
287 -4 135 -12 148 -12 183 5 38 18 67 58 67 93 0 11 -26 62 -58 113 -32 52
-67 114 -76 139 -10 25 -20 50 -23 56 -2 6 15 18 39 27 24 10 58 31 76 47 28
27 32 38 32 81 0 40 -5 55 -25 75 -32 32 -17 39 70 29 63 -6 91 -18 221 -91
44 -24 54 -26 68 -15 57 47 40 279 -29 397 -25 43 -33 48 -95 58 -34 5 -36 3
-70 -52 -19 -31 -38 -64 -42 -74 -4 -9 -20 -25 -35 -35 -15 -10 -30 -20 -33
-24 -7 -9 -115 -57 -145 -65 -14 -3 -37 -3 -51 0 -22 6 -25 11 -21 34 7 36
-14 62 -49 63 -16 0 -53 1 -81 2 -35 2 -53 -2 -53 -9 0 -6 -18 -24 -41 -38
-36 -24 -40 -31 -34 -54 18 -77 22 -70 -42 -88 -63 -18 -129 -49 -150 -69 -14
-14 -106 -37 -158 -39 -27 -1 -30 2 -33 32 -3 29 -1 33 15 28 16 -5 18 1 20
44 0 28 5 56 10 63 13 17 8 114 -6 131 -9 11 -9 15 0 18 6 2 -7 20 -29 40 -35
32 -40 41 -38 77 1 23 8 47 14 53 18 18 15 53 -6 71 -10 10 -21 14 -25 11 -3
-3 -27 8 -52 25 -44 30 -49 31 -83 19 -21 -7 -44 -17 -52 -24 -29 -22 -54 -24
-129 -13 -68 11 -78 15 -96 43 -15 22 -27 30 -43 28 -12 -2 -22 1 -22 5 0 5
-7 18 -16 29 -15 19 -15 18 -11 -3 3 -13 1 -23 -4 -23 -5 0 -9 3 -9 8 0 4 -9
13 -20 20 -11 7 -20 9 -20 6z m1322 -641 c32 -28 16 -92 -29 -112 -37 -17 -51
-12 -25 9 21 17 22 23 13 57 -6 21 -11 44 -11 51 0 17 30 15 52 -5z m-327 -63
c1 -11 -1 -20 -5 -20 -3 0 -30 -16 -60 -35 -63 -40 -75 -42 -90 -15 -22 41 18
77 99 89 53 8 54 8 56 -19z m-238 -69 c7 -24 17 -49 23 -56 13 -16 -2 -27 -92
-71 -55 -27 -59 -27 -90 -12 -28 13 -33 20 -33 51 0 23 4 32 10 26 18 -18 27
-9 20 21 -7 34 0 37 33 14 29 -20 41 -10 19 14 -25 28 -21 39 21 50 62 17 75
12 89 -37z"/>
<path d="M0 272 l0 -272 109 0 110 0 -48 103 c-27 56 -74 176 -106 267 -31 91
-59 167 -61 169 -2 2 -4 -118 -4 -267z"/>
</g>
</svg>
