<?xml version="1.0" standalone="no"?>
<!DOCTYPE svg PUBLIC "-//W3C//DTD SVG 20010904//EN"
 "http://www.w3.org/TR/2001/REC-SVG-20010904/DTD/svg10.dtd">
<svg version="1.0" xmlns="http://www.w3.org/2000/svg"
 width="480.000000pt" height="360.000000pt" viewBox="0 0 480.000000 360.000000"
 preserveAspectRatio="xMidYMid meet">
<metadata>
Created by potrace 1.16, written by Peter Selinger 2001-2019
</metadata>
<rect width="1" height="360" fill="#000000"/>
<rect x="479" width="1" height="360" fill="#000000"/>
<rect width="480" height="1" fill="#000000"/>
<rect y="359" width="480" height="1" fill="#000000"/>
<g transform="translate(0.000000,360.000000) scale(0.100000,-0.100000)"
fill="#000000" stroke="none">
<path d="M1460 3591 c0 -13 78 -81 94 -81 7 0 19 7 26 15 21 25 32 17 25 -16
-6 -28 -5 -30 13 -25 42 14 31 -16 -25 -72 -32 -32 -80 -72 -106 -89 l-49 -32
37 -7 c20 -3 61 -4 91 -1 30 3 54 3 54 -1 0 -4 -7 -47 -15 -97 -8 -49 -15 -93
-15 -97 0 -20 22 -4 54 37 19 25 37 42 39 38 3 -5 13 -37 22 -73 9 -36 21 -82
26 -102 10 -40 29 -52 29 -18 0 43 18 17 25 -35 3 -30 11 -55 16 -55 5 0 9 7
9 15 0 32 19 13 35 -35 9 -28 21 -48 26 -44 5 3 9 30 9 60 0 30 4 54 9 54 11
0 13 -6 37 -112 10 -43 21 -78 26 -78 4 0 8 25 8 55 0 68 15 72 25 8 l7 -48
12 30 c11 26 13 27 20 10 6 -16 9 -17 17 -5 6 10 8 -8 6 -55 -1 -38 2 -72 7
-75 5 -3 18 19 29 48 l20 53 21 -20 c28 -26 44 -15 49 34 3 29 4 23 5 -23 l2
-64 -27 6 c-49 10 -58 -4 -39 -64 10 -29 15 -58 12 -65 -2 -7 -62 -32 -132
-54 -161 -52 -258 -101 -330 -165 l-57 -50 -16 23 c-9 13 -41 66 -72 120 -71
121 -79 126 -190 105 -46 -9 -165 -18 -264 -21 -281 -8 -376 18 -637 174 -79
47 -206 117 -283 154 l-140 69 -3 -473 -2 -472 44 -130 c66 -192 67 -195 94
-195 31 0 47 41 67 171 9 57 22 142 30 189 8 47 21 130 30 185 9 55 21 118 26
140 9 33 7 50 -9 90 -36 92 -83 175 -108 191 -13 9 -24 25 -24 36 0 18 4 20
33 14 54 -11 156 -63 238 -122 70 -51 77 -59 81 -94 3 -33 -1 -41 -34 -69 -31
-26 -42 -47 -72 -141 l-36 -109 60 -200 c85 -282 65 -251 157 -250 110 1 124
7 139 54 17 56 74 363 74 400 0 17 -4 35 -8 40 -5 6 -22 43 -38 84 -17 45 -43
88 -64 109 l-35 34 230 -5 c127 -3 240 -8 253 -12 35 -11 26 -41 -21 -74 -40
-27 -48 -40 -89 -146 l-45 -116 42 -165 c23 -90 44 -166 47 -169 5 -5 652 17
878 30 224 13 822 25 1293 25 l508 1 10 26 c16 43 70 275 68 292 -5 31 25 200
34 194 4 -3 6 -35 4 -72 -4 -54 -3 -62 6 -45 7 11 24 36 40 56 15 19 31 55 35
80 5 25 17 62 28 84 l19 39 83 3 c45 2 82 -1 82 -5 0 -4 -11 -16 -25 -28 -14
-11 -46 -65 -71 -120 -51 -113 -51 -91 -7 -330 14 -77 29 -148 34 -157 8 -15
24 -18 104 -18 103 0 138 9 149 37 19 47 107 330 108 343 0 8 -14 62 -31 120
-27 92 -36 109 -69 137 -36 30 -38 35 -33 72 5 37 14 47 81 97 79 59 193 118
248 128 27 5 32 3 32 -14 0 -11 -10 -26 -23 -35 -26 -16 -119 -195 -120 -229
0 -29 23 -229 29 -237 2 -4 16 -92 29 -195 14 -103 30 -196 36 -206 8 -15 19
-18 57 -16 45 3 48 5 68 48 55 113 54 107 52 638 l-3 493 -120 -59 c-66 -32
-181 -95 -255 -139 -74 -44 -162 -94 -195 -110 -69 -35 -183 -78 -190 -72 -7
7 18 149 26 149 5 0 12 -8 18 -17 5 -10 12 -15 16 -12 6 7 -24 257 -51 428 -8
52 -12 102 -9 112 4 11 -1 44 -10 74 -12 42 -14 75 -9 133 6 68 11 82 41 120
l34 42 -1315 0 c-755 0 -1316 -4 -1316 -9z m2106 -108 c4 -22 -2 -133 -16
-263 -35 -341 -36 -389 -11 -516 12 -60 24 -120 27 -133 7 -22 5 -23 -32 -17
-21 3 -71 9 -111 12 -70 7 -72 6 -98 -22 -15 -16 -38 -51 -52 -79 -34 -67
-108 -181 -124 -191 -8 -5 -25 6 -48 33 -76 86 -218 169 -356 208 -116 34
-131 50 -100 109 9 16 22 60 31 98 9 37 17 68 19 68 1 0 0 -49 -3 -110 -5
-112 3 -137 25 -79 7 17 16 28 21 25 13 -8 23 6 68 94 l38 74 7 -34 c4 -19 10
-57 14 -84 5 -36 12 -50 26 -53 13 -4 19 -15 20 -37 1 -17 4 -42 8 -56 5 -17
10 11 15 85 12 168 26 194 23 43 -1 -69 1 -130 6 -134 4 -4 7 -3 7 2 0 5 7 49
14 98 14 86 26 121 26 78 0 -28 17 -29 25 -1 7 19 7 20 21 2 15 -20 17 -14 14
47 0 19 6 44 14 55 15 20 15 19 16 -5 0 -14 4 -31 9 -38 9 -15 22 2 60 76 20
40 41 55 41 31 0 -16 53 -99 63 -99 5 0 5 52 1 115 l-7 114 70 -6 c42 -3 78
-1 89 5 19 10 18 11 -1 18 -33 13 -113 73 -119 90 -6 15 -4 15 18 0 14 -9 29
-16 34 -16 4 0 6 28 4 63 -4 62 -3 65 52 155 30 51 70 119 87 152 17 33 37 60
45 60 7 0 16 -16 20 -37z m-1422 -333 c-8 -7 -24 24 -23 45 0 15 4 13 14 -10
7 -16 11 -32 9 -35z m206 -85 c58 -24 75 -40 35 -32 -47 9 -99 33 -146 70 -24
18 -52 36 -61 40 -10 3 -18 13 -18 21 0 9 25 -2 73 -33 39 -26 92 -56 117 -66z
m-146 46 c33 -36 139 -81 231 -96 49 -9 91 -18 94 -20 13 -14 -126 -2 -180 15
-62 19 -156 71 -171 94 -20 30 0 35 26 7z m426 -369 c0 -27 -6 -41 -21 -50
-30 -19 -33 -10 -14 47 19 57 35 59 35 3z m853 -393 c17 -30 17 -32 -5 -58
-13 -15 -36 -64 -52 -109 -15 -45 -32 -82 -36 -82 -10 0 -109 63 -109 71 -1 8
170 209 177 209 4 0 15 -14 25 -31z m-2063 -86 l81 -97 -45 -45 c-29 -29 -49
-42 -55 -36 -5 6 -24 46 -41 90 -17 44 -41 90 -53 103 -16 17 -18 25 -9 34 7
7 12 20 12 30 0 37 31 15 110 -79z"/>
<path d="M3597 1422 c-49 -3 -57 -6 -53 -20 2 -9 10 -42 16 -73 6 -31 17 -65
25 -75 15 -18 16 -18 33 3 19 22 47 128 41 154 -3 10 -19 13 -62 11z"/>
<path d="M2430 1409 c-179 -4 -476 -12 -660 -18 -184 -7 -395 -14 -468 -16
-78 -2 -139 -8 -146 -15 -12 -9 -12 -19 -1 -58 6 -27 17 -58 24 -70 9 -17 4
-44 -29 -154 -22 -73 -55 -203 -72 -289 l-31 -156 -111 -56 c-61 -31 -192
-107 -291 -168 -241 -150 -489 -300 -549 -333 -50 -28 -76 -28 -76 -2 0 8 -4
18 -10 21 -6 4 -10 -13 -10 -44 l0 -51 459 0 459 0 124 76 c143 89 222 149
261 199 68 86 144 256 248 558 60 174 77 212 63 142 -4 -22 -7 -96 -6 -165 4
-298 3 -452 -6 -555 -8 -92 -9 -158 -3 -242 1 -10 168 -13 800 -13 l798 0 -8
52 c-6 36 -5 54 3 59 12 8 8 80 -16 303 -7 69 -9 145 -5 185 4 36 10 97 14
135 l7 70 54 -150 c67 -182 140 -335 189 -392 52 -60 133 -119 267 -195 l118
-67 490 0 490 0 -1 68 -1 67 -16 -38 c-15 -33 -20 -37 -42 -32 -32 8 -223 112
-510 279 -124 72 -297 167 -385 212 l-160 81 -7 59 c-25 196 -111 519 -182
687 l-16 37 -363 -2 c-199 -1 -508 -5 -687 -9z"/>
<path d="M4154 1405 c-4 -9 -2 -21 4 -27 15 -15 44 -1 40 19 -4 23 -36 29 -44
8z"/>
</g>
</svg>
