<?xml version="1.0" standalone="no"?>
<!DOCTYPE svg PUBLIC "-//W3C//DTD SVG 20010904//EN"
 "http://www.w3.org/TR/2001/REC-SVG-20010904/DTD/svg10.dtd">
<svg version="1.0" xmlns="http://www.w3.org/2000/svg"
 width="480.000000pt" height="360.000000pt" viewBox="0 0 480.000000 360.000000"
 preserveAspectRatio="xMidYMid meet">
<metadata>
Created by potrace 1.16, written by Peter Selinger 2001-2019
</metadata>
<rect width="1" height="360" fill="#000000"/>
<rect x="479" width="1" height="360" fill="#000000"/>
<rect width="480" height="1" fill="#000000"/>
<rect y="359" width="480" height="1" fill="#000000"/>
<g transform="translate(0.000000,360.000000) scale(0.100000,-0.100000)"
fill="#000000" stroke="none">
<path d="M1180 3591 c0 -5 6 -16 14 -24 9 -9 12 -24 9 -37 -4 -15 -1 -26 11
-32 14 -8 15 -13 5 -24 -9 -11 -9 -18 -1 -26 7 -7 12 -20 12 -29 0 -26 26 -31
124 -23 l89 7 -7 -49 c-3 -26 -14 -57 -25 -68 -44 -50 -121 -171 -127 -201 -9
-51 21 -90 71 -92 63 -3 85 -13 91 -42 2 -14 13 -60 24 -101 12 -50 21 -133
26 -250 l7 -175 18 40 c30 67 23 -1 -15 -160 -13 -53 -13 -58 0 -40 13 17 16
18 24 5 21 -32 6 -54 -63 -92 -154 -84 -181 -122 -197 -284 -12 -119 -25 -209
-42 -287 l-10 -50 -63 7 c-68 7 -112 -4 -122 -30 -3 -9 11 -51 36 -98 22 -46
41 -94 41 -107 0 -13 -9 -58 -21 -99 -11 -41 -36 -131 -54 -200 -19 -72 -55
-172 -85 -235 -29 -60 -83 -175 -120 -255 -37 -80 -104 -219 -149 -310 -45
-91 -81 -172 -81 -180 0 -8 11 -23 25 -33 22 -16 101 -17 1385 -15 l1361 3
-58 119 c-40 82 -54 121 -45 123 6 3 12 15 12 28 0 13 5 27 10 30 6 4 8 10 5
15 -2 4 4 19 15 33 11 14 20 28 20 31 0 4 -25 61 -55 127 -30 66 -60 141 -66
167 -7 26 -17 56 -22 67 -6 11 -12 34 -13 50 -1 17 -7 44 -14 60 -7 17 -12 33
-12 38 3 13 -56 218 -67 231 -6 7 -8 15 -5 18 3 4 -1 19 -10 36 -8 16 -13 32
-9 35 3 4 -2 18 -11 32 -9 14 -15 29 -12 33 6 10 -22 95 -34 102 -15 10 -13
73 4 112 36 83 13 143 -74 189 -52 28 -65 40 -75 72 -7 21 -20 46 -28 55 -8 9
-17 28 -20 42 -36 155 -40 169 -73 220 -21 32 -22 43 -17 118 6 81 7 83 34 89
24 5 27 8 18 24 -13 24 -40 318 -32 347 4 18 1 22 -18 22 -23 0 -24 4 -24 58
0 52 4 63 37 103 57 69 73 120 73 225 l0 92 31 -4 c53 -7 94 47 197 256 51
102 93 188 95 193 2 4 -435 7 -972 7 -594 0 -976 -4 -976 -9z m1543 -736 c-10
-25 -21 -45 -25 -45 -12 0 -10 8 14 61 28 60 37 46 11 -16z m-1163 -490 c0 -8
-4 -15 -10 -15 -5 0 -7 7 -4 15 4 8 8 15 10 15 2 0 4 -7 4 -15z m5 -1157 c30
-128 30 -270 1 -476 -14 -100 -23 -189 -20 -197 3 -8 -2 -28 -12 -45 -15 -25
-16 -34 -6 -50 11 -18 6 -29 -38 -92 -27 -39 -50 -67 -50 -61 0 5 7 58 15 117
25 181 45 411 54 631 9 203 14 245 31 245 5 0 16 -33 25 -72z"/>
</g>
</svg>
