<?xml version="1.0" standalone="no"?>
<!DOCTYPE svg PUBLIC "-//W3C//DTD SVG 20010904//EN"
 "http://www.w3.org/TR/2001/REC-SVG-20010904/DTD/svg10.dtd">
<svg version="1.0" xmlns="http://www.w3.org/2000/svg"
 width="480.000000pt" height="360.000000pt" viewBox="0 0 480.000000 360.000000"
 preserveAspectRatio="xMidYMid meet">
<metadata>
Created by potrace 1.16, written by Peter Selinger 2001-2019
</metadata>
<rect width="1" height="360" fill="#000000"/>
<rect x="479" width="1" height="360" fill="#000000"/>
<rect width="480" height="1" fill="#000000"/>
<rect y="359" width="480" height="1" fill="#000000"/>
<g transform="translate(0.000000,360.000000) scale(0.100000,-0.100000)"
fill="#000000" stroke="none">
<path d="M0 1800 l0 -1800 853 0 854 0 -33 142 c-77 330 -158 913 -186 1338
-20 305 -15 914 10 1190 28 300 105 808 138 912 5 17 -37 18 -815 18 l-821 0
0 -1800z"/>
<path d="M3470 3595 c0 -3 -31 -105 -69 -228 -68 -216 -160 -556 -181 -667
-49 -260 -76 -526 -97 -965 -11 -227 -7 -748 6 -960 17 -263 65 -686 87 -757
5 -17 52 -18 795 -18 l789 0 0 1800 0 1800 -665 0 c-366 0 -665 -2 -665 -5z"/>
</g>
</svg>
