<?xml version="1.0" standalone="no"?>
<!DOCTYPE svg PUBLIC "-//W3C//DTD SVG 20010904//EN"
 "http://www.w3.org/TR/2001/REC-SVG-20010904/DTD/svg10.dtd">
<svg version="1.0" xmlns="http://www.w3.org/2000/svg"
 width="480.000000pt" height="360.000000pt" viewBox="0 0 480.000000 360.000000"
 preserveAspectRatio="xMidYMid meet">
<metadata>
Created by potrace 1.16, written by Peter Selinger 2001-2019
</metadata>
<rect width="1" height="360" fill="#000000"/>
<rect x="479" width="1" height="360" fill="#000000"/>
<rect width="480" height="1" fill="#000000"/>
<rect y="359" width="480" height="1" fill="#000000"/>
<g transform="translate(0.000000,360.000000) scale(0.100000,-0.100000)"
fill="#000000" stroke="none">
<path d="M0 2533 l1 -1068 31 60 c41 78 128 282 128 298 0 7 -9 20 -20 30 -24
20 -25 33 -6 44 14 8 43 115 53 196 4 32 -1 45 -35 90 -52 69 -57 79 -81 174
-26 101 -28 255 -5 334 41 138 117 228 265 314 276 159 395 191 749 199 l135
4 12 88 c17 128 24 164 35 164 5 0 11 -8 15 -17 3 -10 16 -31 28 -48 12 -16
34 -53 48 -81 23 -46 31 -53 74 -64 l48 -12 -33 -14 -32 -14 40 -79 c21 -44
50 -90 62 -104 41 -45 89 -135 115 -214 14 -43 37 -109 53 -148 27 -70 27 -70
101 -108 81 -41 82 -41 181 -31 l67 7 17 -37 c10 -20 21 -36 25 -36 9 0 -110
-181 -126 -192 -18 -14 -48 -8 -71 13 l-22 21 3 -64 c2 -34 0 -67 -5 -73 -4
-5 -15 -32 -24 -60 -9 -27 -21 -57 -26 -65 -9 -13 -11 -13 -20 0 -7 12 -12 7
-25 -22 -8 -21 -15 -42 -15 -48 0 -5 -4 -10 -10 -10 -5 0 -10 7 -10 15 0 25
-17 17 -25 -12 -5 -21 -8 -24 -15 -13 -7 12 -11 9 -19 -10 -9 -22 -10 -23 -10
-4 -1 24 -27 28 -37 5 -3 -9 -8 -66 -10 -127 -3 -98 -1 -118 21 -179 14 -37
25 -71 25 -74 -1 -3 -20 16 -44 43 l-44 50 -21 -42 c-11 -23 -21 -53 -21 -67
0 -15 -6 -25 -14 -25 -8 0 -24 -16 -36 -35 -33 -54 -66 -75 -118 -75 -31 0
-49 -5 -58 -17 -19 -26 -17 -33 10 -33 62 0 330 -59 414 -91 31 -12 65 -69 50
-86 -6 -7 -17 -13 -24 -13 -20 0 -19 -2 30 -77 24 -37 59 -100 79 -139 50 -99
55 -102 125 -75 31 12 62 23 68 24 5 2 44 17 85 34 141 59 377 97 540 87 267
-16 538 -113 748 -265 99 -72 244 -207 298 -277 95 -124 123 -161 123 -166 0
-2 22 -42 49 -88 27 -45 62 -116 77 -155 l28 -73 403 0 403 0 0 1800 0 1800
-2400 0 -2400 0 0 -1067z m3830 587 c0 -5 -4 -10 -10 -10 -5 0 -10 5 -10 10 0
6 5 10 10 10 6 0 10 -4 10 -10z m-480 -1038 c54 -54 82 -162 41 -162 -10 0
-25 -9 -32 -21 l-14 -21 -27 21 c-14 12 -33 42 -42 68 -16 47 -22 134 -9 146
16 16 48 4 83 -31z m387 -194 c-3 -8 -6 -5 -6 6 -1 11 2 17 5 13 3 -3 4 -12 1
-19z"/>
<path d="M1641 2009 c-13 -39 -14 -42 -2 -35 13 8 32 66 21 66 -4 0 -13 -14
-19 -31z"/>
<path d="M1210 1394 c0 -17 21 -27 44 -22 11 2 7 8 -14 20 -26 15 -30 15 -30
2z"/>
<path d="M731 1364 c-12 -19 -21 -37 -21 -39 0 -3 100 26 108 31 2 2 1 12 -3
23 -4 15 -15 21 -35 21 -22 0 -33 -8 -49 -36z"/>
<path d="M398 1303 c-9 -2 -26 -29 -38 -59 -21 -52 -44 -75 -33 -34 8 31 -8
24 -49 -21 -35 -38 -46 -59 -32 -59 5 0 63 29 151 74 29 15 53 57 53 92 0 14
-18 16 -52 7z"/>
<path d="M516 1284 c-9 -24 -7 -28 9 -14 17 14 20 30 6 30 -5 0 -12 -7 -15
-16z"/>
<path d="M146 1255 c-3 -9 -6 -26 -6 -37 0 -18 -5 -19 -52 -16 -29 2 -60 6
-68 9 -13 3 -15 -69 -18 -603 l-2 -608 29 0 c28 0 30 3 45 69 9 39 16 72 16
75 0 2 -12 6 -27 8 -22 2 -31 11 -39 38 -10 30 -9 39 9 64 11 15 20 35 21 45
1 9 10 29 20 44 26 38 41 144 24 165 -7 8 -18 30 -24 48 -11 32 -10 34 11 34
26 0 35 17 35 65 0 21 6 38 16 43 10 5 25 40 35 80 17 69 17 74 0 138 -21 75
-16 108 24 168 29 43 45 93 26 81 -9 -5 -12 1 -9 25 2 27 -3 37 -28 57 -28 21
-32 22 -38 8z"/>
<path d="M538 73 c-13 -3 -18 -14 -18 -39 0 -30 3 -34 25 -34 22 0 25 4 25 34
0 38 -6 45 -32 39z"/>
</g>
</svg>
