<?xml version="1.0" standalone="no"?>
<!DOCTYPE svg PUBLIC "-//W3C//DTD SVG 20010904//EN"
 "http://www.w3.org/TR/2001/REC-SVG-20010904/DTD/svg10.dtd">
<svg version="1.0" xmlns="http://www.w3.org/2000/svg"
 width="480.000000pt" height="360.000000pt" viewBox="0 0 480.000000 360.000000"
 preserveAspectRatio="xMidYMid meet">
<metadata>
Created by potrace 1.16, written by Peter Selinger 2001-2019
</metadata>
<rect width="1" height="360" fill="#000000"/>
<rect x="479" width="1" height="360" fill="#000000"/>
<rect width="480" height="1" fill="#000000"/>
<rect y="359" width="480" height="1" fill="#000000"/>
<g transform="translate(0.000000,360.000000) scale(0.100000,-0.100000)"
fill="#000000" stroke="none">
<path d="M2448 1463 c-10 -2 -18 -10 -18 -17 0 -9 -18 -15 -50 -18 -59 -6 -77
-20 -108 -85 -13 -26 -32 -65 -43 -86 -11 -21 -17 -41 -14 -46 3 -5 -11 -19
-30 -31 -47 -29 -76 -72 -90 -135 -20 -83 5 -142 95 -227 114 -107 170 -125
293 -93 120 31 185 80 222 168 37 88 13 153 -94 258 l-79 77 9 43 c5 23 9 61
8 84 -2 22 1 47 5 53 4 7 2 12 -3 12 -6 0 -11 7 -11 15 0 27 -45 41 -92 28z"/>
</g>
</svg>
