<?xml version="1.0" standalone="no"?>
<!DOCTYPE svg PUBLIC "-//W3C//DTD SVG 20010904//EN"
 "http://www.w3.org/TR/2001/REC-SVG-20010904/DTD/svg10.dtd">
<svg version="1.0" xmlns="http://www.w3.org/2000/svg"
 width="480.000000pt" height="360.000000pt" viewBox="0 0 480.000000 360.000000"
 preserveAspectRatio="xMidYMid meet">
<metadata>
Created by potrace 1.16, written by Peter Selinger 2001-2019
</metadata>
<rect width="1" height="360" fill="#000000"/>
<rect x="479" width="1" height="360" fill="#000000"/>
<rect width="480" height="1" fill="#000000"/>
<rect y="359" width="480" height="1" fill="#000000"/>
<g transform="translate(0.000000,360.000000) scale(0.100000,-0.100000)"
fill="#000000" stroke="none">
<path d="M0 2975 c0 -494 3 -625 13 -625 17 1 105 23 232 59 196 56 357 72
586 60 263 -15 545 -60 787 -128 56 -16 104 -26 106 -22 2 3 7 28 10 54 9 57
47 105 105 132 37 16 41 22 52 74 6 30 13 60 15 66 3 6 -23 16 -58 22 -35 7
-64 17 -66 23 -2 5 -12 10 -22 10 -10 0 -26 10 -34 21 -13 19 -13 25 0 50 20
40 98 99 198 150 l84 43 36 96 c19 52 45 131 56 175 22 82 26 90 69 138 52 57
249 147 323 147 19 0 38 4 44 9 19 17 113 33 230 38 105 5 131 3 191 -15 80
-25 120 -61 216 -198 31 -45 63 -86 69 -92 8 -6 85 -12 183 -14 149 -3 176 -6
217 -25 34 -15 49 -29 54 -48 13 -51 -95 -138 -264 -211 -40 -17 -75 -34 -78
-36 -2 -3 3 -22 12 -44 41 -94 101 -264 94 -264 -4 0 -19 9 -34 21 l-26 20 0
-38 c0 -21 -8 -60 -18 -87 -19 -54 -42 -72 -42 -35 0 21 -3 20 -40 -16 -22
-21 -40 -34 -40 -27 0 21 -23 13 -64 -22 l-38 -33 20 -45 c11 -25 25 -49 31
-52 25 -16 10 -45 -33 -66 -34 -16 -48 -30 -56 -56 -7 -20 -18 -38 -26 -41
-11 -4 -14 -28 -14 -102 0 -130 -19 -194 -75 -247 l-42 -41 56 -31 c31 -17
123 -73 206 -125 137 -87 151 -94 170 -81 32 23 69 17 101 -17 16 -17 49 -42
74 -57 25 -14 60 -41 79 -59 19 -18 40 -33 47 -33 6 0 35 -17 62 -37 28 -21
65 -46 82 -55 29 -17 31 -22 29 -63 -3 -45 -3 -46 66 -100 39 -31 123 -104
189 -163 97 -88 124 -107 151 -108 47 -2 64 -10 74 -37 7 -18 20 -27 48 -32
47 -9 60 -19 68 -55 4 -20 14 -30 33 -35 37 -9 52 -23 52 -49 0 -12 7 -32 16
-45 11 -15 15 -35 11 -61 -4 -34 1 -44 57 -116 34 -44 86 -112 114 -153 l52
-74 0 1716 0 1717 -2400 0 -2400 0 0 -625z"/>
<path d="M435 2184 c-44 -8 -129 -35 -190 -60 -60 -25 -140 -57 -177 -71 l-68
-26 0 -1013 0 -1014 1084 0 1085 0 7 46 c4 26 1 184 -6 353 -6 168 -14 455
-17 636 -3 182 -8 324 -10 317 -3 -6 -9 -9 -15 -6 -5 3 -12 -3 -15 -15 -3 -12
-9 -21 -13 -21 -4 0 -11 -12 -15 -27 l-8 -28 -8 28 c-12 43 62 403 102 491
l18 41 -51 8 c-67 10 -130 38 -195 88 -120 93 -647 237 -1018 279 -129 14
-395 11 -490 -6z"/>
<path d="M3110 1310 c0 -12 12 -41 55 -135 27 -59 32 -75 17 -62 -19 17 -19
17 -15 -18 2 -19 8 -47 13 -61 l10 -25 25 29 c24 28 24 32 15 113 -6 46 -10
89 -10 95 0 11 -60 55 -92 67 -10 3 -18 2 -18 -3z"/>
<path d="M3707 841 c-24 -36 -25 -40 -10 -53 29 -23 93 -109 93 -124 0 -8 -31
-46 -70 -84 l-69 -70 137 0 c75 0 147 3 159 6 13 4 35 28 53 61 l32 56 -39 39
c-49 51 -231 202 -247 206 -7 2 -25 -15 -39 -37z"/>
<path d="M4340 266 c-13 -15 -47 -42 -74 -60 -49 -33 -50 -35 -71 -120 l-21
-86 209 0 c164 0 207 3 201 13 -13 21 -151 200 -186 240 l-33 39 -25 -26z"/>
<path d="M3186 91 c-36 -43 -66 -82 -66 -85 0 -3 168 -6 373 -5 l372 1 -80 38
c-43 21 -122 50 -175 64 -99 27 -298 66 -337 66 -15 0 -42 -25 -87 -79z"/>
</g>
</svg>
