<?xml version="1.0" standalone="no"?>
<!DOCTYPE svg PUBLIC "-//W3C//DTD SVG 20010904//EN"
 "http://www.w3.org/TR/2001/REC-SVG-20010904/DTD/svg10.dtd">
<svg version="1.0" xmlns="http://www.w3.org/2000/svg"
 width="480.000000pt" height="360.000000pt" viewBox="0 0 480.000000 360.000000"
 preserveAspectRatio="xMidYMid meet">
<metadata>
Created by potrace 1.16, written by Peter Selinger 2001-2019
</metadata>
<rect width="1" height="360" fill="#000000"/>
<rect x="479" width="1" height="360" fill="#000000"/>
<rect width="480" height="1" fill="#000000"/>
<rect y="359" width="480" height="1" fill="#000000"/>
<g transform="translate(0.000000,360.000000) scale(0.100000,-0.100000)"
fill="#000000" stroke="none">
<path d="M0 1800 l0 -1800 905 0 905 0 0 24 c0 14 14 58 30 99 17 42 30 85 30
96 0 19 -2 19 -38 7 -20 -8 -81 -24 -135 -36 -108 -25 -127 -21 -127 30 0 24
8 31 73 58 72 32 270 92 300 92 9 0 38 29 64 65 42 57 59 71 128 105 94 47
194 67 237 47 l28 -12 0 -287 0 -288 270 0 270 0 0 65 c0 47 -6 78 -21 106
-11 23 -19 43 -17 44 2 2 53 -14 113 -37 68 -25 129 -41 160 -42 49 -1 50 0
53 30 3 26 -3 35 -38 58 -48 31 -181 87 -283 117 -62 18 -83 32 -155 95 -101
90 -129 105 -209 112 -49 4 -66 9 -74 23 -12 23 -29 25 -29 4 0 -18 -12 -19
-28 -3 -9 9 -12 360 -12 1520 l0 1508 -1200 0 -1200 0 0 -1800z"/>
</g>
</svg>
