<?xml version="1.0" standalone="no"?>
<!DOCTYPE svg PUBLIC "-//W3C//DTD SVG 20010904//EN"
 "http://www.w3.org/TR/2001/REC-SVG-20010904/DTD/svg10.dtd">
<svg version="1.0" xmlns="http://www.w3.org/2000/svg"
 width="480.000000pt" height="360.000000pt" viewBox="0 0 480.000000 360.000000"
 preserveAspectRatio="xMidYMid meet">
<metadata>
Created by potrace 1.16, written by Peter Selinger 2001-2019
</metadata>
<rect width="1" height="360" fill="#000000"/>
<rect x="479" width="1" height="360" fill="#000000"/>
<rect width="480" height="1" fill="#000000"/>
<rect y="359" width="480" height="1" fill="#000000"/>
<g transform="translate(0.000000,360.000000) scale(0.100000,-0.100000)"
fill="#000000" stroke="none">
<path d="M0 1800 l0 -1801 151 3 151 3 19 50 c11 28 31 91 45 141 l26 91 -27
39 c-19 28 -25 46 -20 64 4 14 6 40 6 58 -1 25 4 35 22 43 38 17 59 63 60 134
2 48 -2 67 -16 83 -15 17 -16 20 -3 25 10 4 16 23 18 54 3 41 6 48 27 53 18 4
27 15 33 40 17 75 41 147 66 198 20 41 23 55 13 65 -9 9 -16 9 -31 -1 -18 -11
-20 -10 -20 17 0 57 17 77 121 146 57 37 123 77 146 88 47 23 50 29 29 46 -11
10 -23 8 -53 -7 -48 -23 -95 -16 -182 27 -33 17 -67 31 -75 31 -8 0 -36 -29
-63 -65 -34 -46 -50 -60 -55 -51 -10 17 9 75 33 102 10 11 30 65 43 120 14 54
44 176 67 269 23 94 57 220 75 280 39 125 41 144 19 125 -22 -18 -54 -6 -115
46 -76 63 -140 124 -140 132 0 4 16 18 36 32 33 22 36 28 31 60 -2 20 1 51 9
68 15 37 43 42 99 15 33 -16 38 -16 91 3 l56 19 3 80 c6 152 85 323 205 445
81 83 158 127 258 149 67 14 205 14 310 0 l82 -11 92 79 c89 75 195 150 202
142 13 -14 50 -121 76 -219 17 -63 32 -115 33 -115 1 -1 25 -18 54 -39 106
-76 194 -209 239 -361 17 -57 21 -165 12 -315 -2 -29 5 -61 18 -90 11 -25 27
-65 36 -90 9 -25 22 -59 29 -76 11 -27 10 -34 -7 -57 -25 -34 -42 -40 -67 -24
-18 11 -25 11 -49 0 -27 -14 -28 -17 -28 -95 0 -137 19 -268 46 -315 28 -49
29 -54 8 -46 -14 5 -15 1 -9 -28 16 -81 78 -275 94 -298 10 -14 22 -37 26 -50
6 -20 -7 -12 -61 37 -38 34 -71 62 -74 62 -3 0 -30 -14 -60 -32 -49 -28 -53
-32 -36 -42 24 -14 96 -88 96 -99 0 -4 -9 -17 -20 -29 -26 -28 -25 -52 4 -102
22 -39 77 -201 91 -274 7 -33 7 -33 51 -26 40 6 44 4 44 -14 0 -11 -11 -48
-24 -83 -41 -110 -42 -138 -6 -187 30 -42 49 -53 51 -29 1 6 4 156 8 332 l6
320 120 0 c102 0 124 -3 149 -19 l28 -20 -6 -120 c-4 -67 -11 -182 -16 -256
-5 -74 -17 -243 -25 -375 -8 -132 -18 -266 -21 -297 l-6 -58 1076 0 1076 0 0
1800 0 1800 -2400 0 -2400 0 0 -1800z m2668 1607 c4 -17 -33 -41 -48 -32 -14
9 -12 21 6 40 19 19 38 15 42 -8z m-2119 -466 c19 -59 6 -221 -19 -221 -9 0
-94 166 -104 203 -10 42 8 68 43 61 17 -4 32 -1 36 6 10 16 29 -5 44 -49z
m1797 24 c-3 -8 -10 -15 -16 -15 -14 0 -12 37 3 43 15 5 21 -8 13 -28z m2057
-629 c26 -20 21 -36 -12 -36 -33 0 -46 13 -37 35 7 18 25 19 49 1z m-1828
-606 c3 -5 1 -10 -4 -10 -6 0 -11 5 -11 10 0 6 2 10 4 10 3 0 8 -4 11 -10z
m510 -210 c-3 -5 -12 -7 -20 -3 -21 7 -19 13 6 13 11 0 18 -4 14 -10z m795
-26 c0 -2 -21 -17 -46 -35 -29 -19 -49 -28 -55 -22 -14 14 5 58 32 76 19 14
24 14 45 0 13 -8 24 -17 24 -19z m-263 -580 c-3 -3 -12 -4 -19 -1 -8 3 -5 6 6
6 11 1 17 -2 13 -5z"/>
<path d="M2411 374 c0 -11 3 -14 6 -6 3 7 2 16 -1 19 -3 4 -6 -2 -5 -13z"/>
<path d="M2390 315 c-10 -12 -10 -27 0 -75 7 -33 16 -60 19 -60 4 0 7 34 7 75
-1 77 -5 86 -26 60z"/>
<path d="M1965 213 c-13 -60 -38 -150 -51 -180 l-13 -33 38 0 39 0 12 99 c7
54 10 107 8 116 -5 30 -27 29 -33 -2z"/>
</g>
</svg>
