<?xml version="1.0" standalone="no"?>
<!DOCTYPE svg PUBLIC "-//W3C//DTD SVG 20010904//EN"
 "http://www.w3.org/TR/2001/REC-SVG-20010904/DTD/svg10.dtd">
<svg version="1.0" xmlns="http://www.w3.org/2000/svg"
 width="480.000000pt" height="360.000000pt" viewBox="0 0 480.000000 360.000000"
 preserveAspectRatio="xMidYMid meet">
<metadata>
Created by potrace 1.16, written by Peter Selinger 2001-2019
</metadata>
<rect width="1" height="360" fill="#000000"/>
<rect x="479" width="1" height="360" fill="#000000"/>
<rect width="480" height="1" fill="#000000"/>
<rect y="359" width="480" height="1" fill="#000000"/>
<g transform="translate(0.000000,360.000000) scale(0.100000,-0.100000)"
fill="#000000" stroke="none">
<path d="M0 1800 l0 -1800 438 0 439 0 52 152 c59 171 113 293 161 363 31 45
31 47 21 113 -5 37 -13 114 -17 172 -4 58 -12 108 -17 112 -8 5 -6 38 5 110
10 57 13 107 8 113 -14 17 -2 119 25 212 48 165 74 324 95 583 28 354 38 461
56 565 16 92 47 177 78 208 9 9 37 39 60 67 43 50 43 50 32 98 -15 65 -17 67
-85 86 -68 19 -91 37 -91 70 0 34 18 45 101 62 41 8 94 24 119 35 24 12 55 25
69 30 34 13 17 27 -55 46 -120 31 -224 102 -224 153 0 26 33 26 125 1 38 -11
71 -18 73 -17 1 2 -16 31 -38 65 -47 71 -90 158 -90 184 0 16 -39 17 -670 17
l-670 0 0 -1800z"/>
<path d="M1503 3523 c34 -43 80 -112 102 -153 l40 -75 11 100 c7 55 19 120 28
145 9 25 16 48 16 53 0 4 -58 7 -130 7 l-130 0 63 -77z"/>
<path d="M1810 3583 c0 -10 -11 -65 -24 -123 -13 -58 -27 -118 -31 -135 -4
-16 -3 -25 2 -20 26 33 270 185 295 185 4 0 8 -10 8 -21 0 -33 -135 -159 -231
-216 -46 -27 -85 -56 -87 -65 -3 -17 73 -42 163 -53 28 -4 73 -13 101 -21 49
-13 52 -16 56 -50 4 -30 0 -37 -21 -49 -14 -7 -41 -16 -59 -20 -39 -8 -62 -46
-62 -104 0 -34 5 -43 33 -62 77 -53 210 -207 233 -270 18 -51 21 -161 6 -210
-6 -19 -16 -54 -23 -79 -9 -37 -13 -41 -19 -25 -7 18 -9 17 -20 -10 -9 -24 -8
-80 5 -265 16 -238 32 -416 41 -458 4 -21 6 -21 32 -8 56 29 62 45 64 155 1
101 1 102 33 130 36 31 116 48 156 32 53 -20 63 -44 65 -155 1 -84 5 -108 20
-129 24 -33 64 -53 74 -37 8 13 34 293 51 541 9 143 8 161 -10 225 -10 38 -26
86 -35 106 -9 22 -16 65 -16 106 0 79 25 138 88 212 l39 44 -34 71 c-50 106
-66 197 -60 340 5 103 11 136 42 230 20 61 43 117 52 125 13 13 15 13 10 -5
-43 -167 -29 -423 32 -586 36 -95 36 -95 110 -59 92 46 197 65 278 52 85 -14
137 -41 201 -103 52 -50 54 -50 73 -33 25 22 105 182 96 190 -4 4 -13 1 -22
-6 -20 -17 -32 -6 -92 81 l-47 70 29 24 c36 29 82 40 135 31 l39 -6 14 47 c10
33 13 78 10 141 -4 63 -2 92 6 92 6 0 11 -3 11 -7 0 -5 11 -60 24 -123 26
-125 18 -117 96 -105 41 7 89 -18 116 -60 l17 -26 -66 -65 c-64 -63 -87 -73
-87 -35 0 10 -10 31 -21 45 -24 31 -39 22 -39 -25 0 -43 -38 -177 -65 -232
-15 -29 -43 -74 -64 -102 -36 -47 -37 -52 -25 -81 19 -47 52 -270 64 -434 33
-454 51 -590 105 -796 19 -73 34 -145 33 -160 -1 -16 2 -47 7 -68 6 -28 5 -37
-4 -32 -14 9 -14 16 4 -90 21 -120 28 -287 14 -353 -12 -61 -10 -64 56 -81
193 -49 268 -86 363 -180 104 -102 153 -175 207 -303 l50 -117 197 0 198 0 0
1800 0 1800 -1495 0 c-1417 0 -1495 -1 -1495 -17z"/>
<path d="M2077 1481 c-7 -58 -5 -67 12 -56 12 7 13 47 2 85 -6 20 -9 15 -14
-29z"/>
<path d="M2707 1500 c-12 -43 -8 -80 8 -80 16 0 18 22 6 75 l-7 30 -7 -25z"/>
<path d="M2219 1304 c-15 -15 -15 -74 1 -74 7 0 22 81 16 87 -1 1 -9 -4 -17
-13z"/>
<path d="M2561 1293 c1 -10 5 -31 9 -48 l7 -30 7 27 c4 14 6 34 4 44 -4 24
-28 30 -27 7z"/>
<path d="M2377 1219 c-9 -24 -21 -66 -27 -93 -13 -60 -25 -83 -59 -112 l-26
-22 29 -114 c16 -62 42 -153 58 -202 15 -49 26 -91 24 -93 -9 -9 -149 270
-162 322 -8 34 -21 31 -69 -12 -22 -19 -71 -63 -109 -97 l-68 -61 6 -100 c5
-88 4 -97 -8 -75 -7 14 -17 43 -20 65 -17 103 -42 82 -50 -40 -3 -49 -9 -117
-12 -150 -7 -63 12 -154 72 -352 l25 -83 463 0 464 0 6 42 c9 64 25 272 21
277 -2 2 -15 -10 -29 -25 -14 -16 -26 -24 -26 -18 0 6 9 19 20 29 16 14 18 27
14 74 -3 31 -9 111 -13 179 -5 68 -11 126 -14 129 -13 12 -26 -10 -37 -60 -20
-96 -31 -90 -28 17 l2 99 -109 93 c-61 52 -114 93 -119 91 -5 -2 -15 -21 -24
-42 -19 -51 -165 -316 -170 -310 -2 2 7 34 21 72 14 37 44 129 67 203 l41 135
-25 21 c-31 27 -52 68 -61 119 -4 22 -17 62 -29 89 l-22 50 -17 -45z"/>
<path d="M3645 679 c-4 -12 -2 -26 4 -32 8 -8 11 -2 11 21 0 37 -6 41 -15 11z"/>
</g>
</svg>
