<?xml version="1.0" standalone="no"?>
<!DOCTYPE svg PUBLIC "-//W3C//DTD SVG 20010904//EN"
 "http://www.w3.org/TR/2001/REC-SVG-20010904/DTD/svg10.dtd">
<svg version="1.0" xmlns="http://www.w3.org/2000/svg"
 width="480.000000pt" height="360.000000pt" viewBox="0 0 480.000000 360.000000"
 preserveAspectRatio="xMidYMid meet">
<metadata>
Created by potrace 1.16, written by Peter Selinger 2001-2019
</metadata>
<rect width="1" height="360" fill="#000000"/>
<rect x="479" width="1" height="360" fill="#000000"/>
<rect width="480" height="1" fill="#000000"/>
<rect y="359" width="480" height="1" fill="#000000"/>
<g transform="translate(0.000000,360.000000) scale(0.100000,-0.100000)"
fill="#000000" stroke="none">
<path d="M1162 3578 c2 -19 20 -30 88 -56 104 -41 258 -118 284 -142 17 -17
14 -17 -60 1 -123 29 -233 22 -248 -16 -10 -27 48 -54 193 -89 164 -40 213
-76 104 -76 -70 0 -135 -22 -161 -53 -22 -26 14 -36 145 -43 69 -3 145 -13
184 -25 64 -18 70 -23 138 -103 69 -83 75 -87 204 -151 73 -36 147 -78 165
-93 30 -26 31 -29 22 -67 -17 -72 -14 -83 28 -93 458 -111 665 -168 837 -232
228 -85 369 -130 423 -136 34 -4 62 -9 62 -13 -1 -42 -42 -154 -67 -186 -17
-22 -37 -60 -43 -84 -7 -25 -23 -61 -36 -80 -30 -45 -30 -71 0 -120 19 -29 44
-48 118 -84 164 -82 192 -88 363 -86 295 5 280 9 288 -79 3 -38 12 -85 20
-104 l15 -35 103 -13 c86 -9 292 -41 437 -67 l32 -6 0 401 0 401 -72 15 c-40
9 -100 23 -133 31 l-60 14 133 -4 132 -4 0 323 0 324 -67 5 c-38 2 -125 15
-195 27 -123 22 -129 22 -175 5 -73 -26 -165 -33 -429 -35 -217 -1 -246 1
-300 19 -32 11 -176 54 -319 95 -308 88 -366 107 -677 220 -131 47 -241 86
-245 86 -5 0 -16 -14 -25 -30 -9 -17 -21 -30 -26 -30 -13 0 -122 81 -202 149
-36 31 -126 102 -200 159 -74 57 -157 121 -183 142 l-49 40 -116 0 -116 0 34
-25 c19 -14 38 -32 43 -41 7 -13 3 -13 -30 2 -147 64 -149 64 -258 64 -105 0
-106 0 -103 -22z m3216 -1490 c11 -39 5 -53 -14 -37 -16 13 -19 69 -4 69 5 0
13 -15 18 -32z"/>
<path d="M4733 3582 c10 -10 17 -22 17 -26 0 -4 11 -19 25 -34 l25 -27 0 53 0
52 -42 0 c-39 0 -40 -1 -25 -18z"/>
</g>
</svg>
