<?xml version="1.0" standalone="no"?>
<!DOCTYPE svg PUBLIC "-//W3C//DTD SVG 20010904//EN"
 "http://www.w3.org/TR/2001/REC-SVG-20010904/DTD/svg10.dtd">
<svg version="1.0" xmlns="http://www.w3.org/2000/svg"
 width="480.000000pt" height="360.000000pt" viewBox="0 0 480.000000 360.000000"
 preserveAspectRatio="xMidYMid meet">
<metadata>
Created by potrace 1.16, written by Peter Selinger 2001-2019
</metadata>
<rect width="1" height="360" fill="#000000"/>
<rect x="479" width="1" height="360" fill="#000000"/>
<rect width="480" height="1" fill="#000000"/>
<rect y="359" width="480" height="1" fill="#000000"/>
<g transform="translate(0.000000,360.000000) scale(0.100000,-0.100000)"
fill="#000000" stroke="none">
<path d="M1146 3523 c3 -43 12 -91 20 -107 8 -16 11 -32 9 -37 -3 -4 -1 -16 4
-26 5 -10 14 -37 20 -60 13 -48 12 -47 124 -43 61 2 67 0 67 -18 0 -10 -27
-55 -61 -98 -91 -118 -102 -145 -78 -197 11 -25 61 -49 84 -41 7 3 16 1 20 -5
3 -6 14 -11 23 -11 14 0 22 -20 39 -97 12 -54 25 -136 28 -183 6 -80 18 -182
32 -260 l6 -35 12 35 13 35 1 -48 c1 -35 -4 -51 -19 -64 -24 -21 -25 -35 -4
-74 19 -37 10 -50 -56 -84 -71 -36 -148 -110 -159 -153 -5 -20 -14 -116 -19
-212 -6 -96 -13 -182 -17 -191 -4 -12 -24 -18 -67 -22 -62 -5 -110 -30 -116
-59 -1 -8 20 -48 48 -88 27 -41 50 -85 50 -98 0 -12 -14 -99 -30 -193 -28
-157 -34 -178 -79 -262 -26 -51 -101 -195 -166 -322 -65 -126 -134 -259 -153
-295 l-35 -64 53 -47 c45 -40 52 -50 46 -73 l-6 -26 1265 0 1265 0 0 46 c0 31
-13 80 -40 146 -22 55 -40 110 -40 122 0 11 12 56 27 98 l26 77 -48 98 c-51
106 -195 429 -195 439 0 4 -15 43 -34 88 -19 45 -55 134 -81 199 l-46 118 19
27 c81 116 38 226 -97 248 -35 6 -45 13 -60 43 -11 20 -26 73 -34 118 -16 85
-33 126 -73 180 -20 26 -24 44 -24 97 0 63 4 72 33 67 9 -1 9 3 -8 144 -8 66
-15 144 -15 173 0 38 -4 52 -14 52 -8 0 -17 9 -21 20 -8 26 -2 130 7 124 15
-9 66 78 83 141 13 47 16 84 12 135 -6 66 -5 70 13 60 10 -5 32 -10 48 -10 34
0 71 43 116 135 16 33 38 76 48 96 10 20 18 46 18 57 0 11 6 25 14 31 8 7 18
27 21 44 4 18 13 41 20 53 7 11 18 40 25 62 6 23 15 42 20 42 6 0 10 7 10 15
0 13 -112 15 -950 15 l-951 0 7 -77z m414 -2335 c0 -28 -2 -49 -4 -47 -8 9
-13 99 -5 99 5 0 9 -23 9 -52z m7 -170 c-3 -8 -6 -5 -6 6 -1 11 2 17 5 13 3
-3 4 -12 1 -19z m7 -337 c3 -71 1 -144 -4 -161 -5 -18 -5 -41 0 -54 7 -19 1
-35 -32 -82 -39 -57 -40 -58 -34 -24 19 116 46 362 47 423 1 118 17 46 23
-102z"/>
</g>
</svg>
