<?xml version="1.0" standalone="no"?>
<!DOCTYPE svg PUBLIC "-//W3C//DTD SVG 20010904//EN"
 "http://www.w3.org/TR/2001/REC-SVG-20010904/DTD/svg10.dtd">
<svg version="1.0" xmlns="http://www.w3.org/2000/svg"
 width="480.000000pt" height="360.000000pt" viewBox="0 0 480.000000 360.000000"
 preserveAspectRatio="xMidYMid meet">
<metadata>
Created by potrace 1.16, written by Peter Selinger 2001-2019
</metadata>
<rect width="1" height="360" fill="#000000"/>
<rect x="479" width="1" height="360" fill="#000000"/>
<rect width="480" height="1" fill="#000000"/>
<rect y="359" width="480" height="1" fill="#000000"/>
<g transform="translate(0.000000,360.000000) scale(0.100000,-0.100000)"
fill="#000000" stroke="none">
<path d="M4615 3230 c-97 -15 -284 -73 -405 -127 -55 -24 -189 -119 -249 -176
-133 -126 -159 -306 -61 -425 16 -20 30 -42 30 -49 0 -11 -82 -119 -100 -133
-21 -15 -79 -103 -74 -111 6 -10 88 -4 144 11 52 14 60 13 56 -12 -1 -13 5
-37 14 -54 10 -17 21 -55 25 -85 7 -42 10 -48 14 -30 9 36 23 35 50 -4 13 -19
26 -33 30 -31 4 3 27 -9 51 -25 25 -16 53 -35 64 -42 38 -25 126 -100 126
-107 0 -6 -124 -101 -269 -206 -27 -18 -58 -34 -69 -34 -12 0 -124 -24 -249
-54 -193 -46 -484 -106 -515 -106 -5 0 -16 -16 -24 -36 l-15 -36 -127 6 c-153
8 -295 -14 -413 -63 -124 -52 -221 -156 -127 -137 28 6 28 5 13 -16 -8 -13
-15 -28 -15 -35 0 -16 34 -17 61 -3 17 10 19 7 19 -25 0 -46 21 -46 49 0 18
30 26 35 53 34 20 -1 49 7 71 21 41 24 77 24 207 -1 30 -6 105 -12 165 -14
106 -4 110 -5 125 -30 14 -24 19 -26 57 -20 25 4 51 1 65 -6 13 -7 31 -16 40
-21 11 -5 36 -4 60 3 24 5 61 14 83 19 66 15 372 58 495 69 112 11 119 13 240
72 248 122 326 162 408 207 l82 46 0 881 0 882 -52 7 c-59 7 -63 6 -133 -4z"/>
</g>
</svg>
