<?xml version="1.0" standalone="no"?>
<!DOCTYPE svg PUBLIC "-//W3C//DTD SVG 20010904//EN"
 "http://www.w3.org/TR/2001/REC-SVG-20010904/DTD/svg10.dtd">
<svg version="1.0" xmlns="http://www.w3.org/2000/svg"
 width="480.000000pt" height="360.000000pt" viewBox="0 0 480.000000 360.000000"
 preserveAspectRatio="xMidYMid meet">
<metadata>
Created by potrace 1.16, written by Peter Selinger 2001-2019
</metadata>
<rect width="1" height="360" fill="#000000"/>
<rect x="479" width="1" height="360" fill="#000000"/>
<rect width="480" height="1" fill="#000000"/>
<rect y="359" width="480" height="1" fill="#000000"/>
<g transform="translate(0.000000,360.000000) scale(0.100000,-0.100000)"
fill="#000000" stroke="none">
<path d="M0 1800 l0 -1800 894 0 894 0 11 53 c24 112 122 438 159 527 22 52
52 132 67 178 24 74 26 92 20 163 -4 43 -10 79 -14 79 -4 0 -25 -18 -46 -40
-42 -43 -62 -52 -45 -20 8 16 8 20 -3 20 -8 0 -24 -23 -36 -51 -24 -56 -36
-62 -21 -11 5 18 5 30 0 27 -4 -3 -10 0 -12 7 -3 8 -14 5 -34 -9 -29 -21 -74
-39 -74 -30 0 3 9 26 20 52 25 57 25 95 1 42 -27 -56 -38 -65 -56 -41 -8 10
-15 15 -14 9 1 -5 0 -19 -1 -30 -1 -11 -6 7 -11 40 -8 55 -4 124 8 168 2 9 0
17 -6 17 -5 0 -13 -31 -17 -70 -7 -71 -17 -88 -29 -49 -7 20 -8 19 -26 -10
-10 -17 -20 -31 -22 -31 -2 0 -2 15 0 32 l4 33 -15 -30 -14 -30 -2 55 c-1 30
-5 80 -8 110 l-7 54 -50 19 c-27 10 -90 27 -139 38 -93 20 -116 31 -116 58 0
9 -13 23 -29 32 -17 10 -28 25 -28 35 2 17 -9 20 -88 26 -152 13 -300 64 -353
121 -21 22 -22 27 -10 46 17 27 30 26 66 -4 37 -31 40 -31 34 0 -4 25 6 33 23
16 6 -6 36 -6 80 2 56 9 70 15 67 28 -2 9 -14 21 -28 28 -45 20 -83 134 -49
147 16 6 19 33 9 72 -7 25 -41 30 -50 7 -9 -23 -30 -18 -54 12 -18 23 -21 36
-15 73 7 49 11 83 20 175 9 88 19 98 55 56 18 -21 34 -31 44 -28 23 9 30 85
12 136 -25 69 -17 214 14 245 16 16 27 -6 34 -75 4 -32 12 -61 17 -65 12 -7
76 51 85 78 8 27 30 22 58 -14 16 -22 30 -64 43 -128 22 -110 38 -121 64 -46
21 58 23 60 45 52 15 -6 16 -20 9 -142 -6 -130 -6 -137 14 -155 12 -11 21 -31
21 -44 0 -13 5 -36 11 -51 14 -39 4 -70 -36 -110 -19 -19 -35 -41 -35 -48 0
-7 -18 -38 -39 -69 -22 -31 -44 -71 -49 -89 -6 -18 -13 -41 -17 -50 -5 -13 2
-21 29 -34 33 -16 37 -16 54 -1 21 19 48 22 57 7 4 -6 21 -8 41 -4 29 5 47 -1
114 -40 44 -25 84 -46 89 -46 5 0 23 39 40 86 17 47 43 106 56 130 84 149 85
147 -19 39 -83 -85 -92 -93 -65 -50 40 61 13 41 -38 -28 -69 -94 -43 -4 30
103 17 25 67 83 112 130 160 168 201 252 250 510 60 321 117 482 198 563 23
23 32 37 21 33 -10 -4 -54 -10 -97 -13 -91 -7 -117 7 -117 62 0 63 72 258 120
325 l20 29 56 -19 c31 -11 60 -17 65 -14 16 10 155 -63 237 -125 75 -57 88
-63 140 -67 31 -2 64 -4 72 -5 8 0 54 13 102 30 67 24 106 32 170 34 l83 2 -2
-41 c-2 -56 -61 -293 -80 -322 -13 -22 -13 -28 6 -72 37 -86 22 -212 -33 -285
-15 -19 -35 -54 -46 -77 l-20 -43 6 43 c7 53 -4 54 -36 3 -25 -41 -40 -45 -40
-10 0 10 -4 19 -10 19 -18 0 -28 -35 -34 -125 -4 -49 -9 -112 -12 -140 -6 -47
-5 -49 11 -33 14 13 23 14 46 6 25 -8 29 -15 29 -46 0 -28 9 -45 50 -88 35
-37 70 -93 120 -194 75 -152 83 -190 50 -232 -17 -22 -19 -40 -18 -156 l2
-130 135 -46 c75 -25 163 -50 196 -57 72 -15 115 -35 115 -53 0 -23 64 -40 92
-25 31 17 275 26 291 10 16 -16 -2 -29 -56 -40 -26 -4 -54 -14 -62 -21 -14
-12 -14 -15 2 -32 24 -26 129 -85 189 -105 27 -9 55 -20 62 -26 19 -15 14 -37
-12 -46 -13 -5 -26 -17 -30 -27 -5 -13 -15 -16 -52 -11 -37 4 -50 1 -65 -14
-10 -10 -28 -19 -39 -19 -12 0 -33 -9 -48 -20 -25 -18 -31 -19 -79 -6 -66 18
-112 46 -186 113 -56 53 -58 53 -82 37 -25 -16 -29 -15 -138 39 -61 30 -170
74 -242 97 -140 46 -164 59 -191 104 -16 27 -18 28 -25 10 -15 -37 -10 -80 12
-100 33 -29 38 -55 28 -136 -9 -73 -8 -79 25 -164 18 -49 53 -131 76 -182 50
-111 163 -442 181 -530 l13 -62 838 0 838 0 0 1800 0 1800 -2400 0 -2400 0 0
-1800z"/>
</g>
</svg>
