<?xml version="1.0" standalone="no"?>
<!DOCTYPE svg PUBLIC "-//W3C//DTD SVG 20010904//EN"
 "http://www.w3.org/TR/2001/REC-SVG-20010904/DTD/svg10.dtd">
<svg version="1.0" xmlns="http://www.w3.org/2000/svg"
 width="480.000000pt" height="360.000000pt" viewBox="0 0 480.000000 360.000000"
 preserveAspectRatio="xMidYMid meet">
<metadata>
Created by potrace 1.16, written by Peter Selinger 2001-2019
</metadata>
<rect width="1" height="360" fill="#000000"/>
<rect x="479" width="1" height="360" fill="#000000"/>
<rect width="480" height="1" fill="#000000"/>
<rect y="359" width="480" height="1" fill="#000000"/>
<g transform="translate(0.000000,360.000000) scale(0.100000,-0.100000)"
fill="#000000" stroke="none">
<path d="M0 2594 l0 -1006 38 23 c104 64 218 154 335 266 86 82 136 123 146
119 77 -25 406 -168 524 -229 227 -116 308 -127 517 -73 l90 23 67 -18 c37
-11 75 -19 85 -19 11 0 41 36 81 98 77 117 102 141 187 182 36 17 72 35 80 40
8 6 25 14 37 19 11 6 24 14 27 20 9 15 -14 89 -32 104 -13 10 -14 4 -10 -50 4
-35 2 -63 -3 -63 -5 0 -9 10 -10 23 0 12 -3 16 -6 10 -8 -21 -23 -15 -23 10 0
12 -7 42 -14 67 l-15 45 0 -78 c-1 -81 -14 -95 -26 -30 -9 54 -43 126 -54 118
-6 -3 -16 14 -22 37 -15 53 -18 56 -29 38 -7 -11 -11 -7 -21 16 -7 16 -14 31
-16 33 -1 2 -12 -7 -23 -20 l-21 -24 5 37 c5 42 2 44 -34 23 -40 -23 -44 -17
-12 23 16 20 35 48 42 61 12 24 12 24 -26 18 -24 -4 -48 -1 -63 7 -13 7 -31
11 -41 9 -9 -2 -27 5 -41 16 l-24 20 60 54 c33 30 73 78 89 108 27 49 28 56
18 96 -25 94 -10 230 36 318 59 115 207 177 365 155 52 -8 93 -7 145 1 132 21
267 -4 347 -65 19 -15 51 -53 71 -86 20 -33 40 -60 44 -60 4 0 13 7 20 15 23
27 83 18 141 -21 82 -55 122 -106 152 -193 14 -42 28 -93 32 -114 7 -46 -10
-138 -37 -190 -11 -22 -16 -46 -13 -55 4 -10 20 -74 35 -144 21 -101 24 -128
14 -128 -8 0 -13 -3 -12 -7 4 -14 -13 -87 -26 -118 -58 -132 -73 -152 -110
-146 -4 1 -14 -3 -21 -9 -18 -15 -27 1 -27 46 0 41 -10 44 -25 7 l-11 -28 -1
29 c-1 16 -15 69 -31 117 -31 89 -31 89 -28 284 3 170 1 196 -14 211 -15 16
-18 13 -42 -34 -14 -28 -26 -66 -26 -84 0 -38 24 -78 46 -78 8 0 14 -4 14 -10
0 -5 -11 -10 -25 -10 -28 0 -29 -3 -14 -32 10 -19 9 -20 -16 -14 -25 7 -27 5
-21 -19 9 -34 -9 -32 -31 5 -21 37 -28 37 -41 3 -24 -61 -34 -120 -28 -168 6
-46 5 -48 -7 -26 l-14 23 -6 -23 c-4 -13 -7 -37 -7 -52 0 -16 -4 -26 -10 -22
-5 3 -10 -1 -10 -9 0 -9 -4 -16 -8 -16 -8 0 -32 122 -32 165 0 13 -4 27 -10
30 -14 9 -100 -75 -117 -113 -18 -43 -12 -48 114 -97 127 -50 168 -85 238
-199 36 -60 64 -96 75 -96 9 0 40 7 70 16 48 14 59 14 109 0 31 -8 92 -20 136
-26 70 -9 90 -8 157 9 84 22 124 40 244 112 100 60 426 219 449 219 9 0 63
-45 118 -99 117 -114 170 -159 247 -211 66 -44 203 -118 283 -154 l57 -25 0
1035 0 1034 -2400 0 -2400 0 0 -1006z"/>
<path d="M2662 2090 c0 -14 2 -19 5 -12 2 6 2 18 0 25 -3 6 -5 1 -5 -13z"/>
<path d="M4035 1888 c-16 -11 -54 -31 -83 -44 -43 -20 -52 -28 -47 -43 3 -11
1 -22 -5 -26 -5 -3 -8 -22 -5 -43 4 -28 -2 -51 -22 -91 -27 -52 -36 -59 -201
-163 -95 -59 -177 -108 -182 -108 -5 0 -10 4 -12 10 -1 5 -66 -36 -142 -90
-77 -55 -143 -100 -148 -100 -14 0 -9 18 23 88 17 37 41 94 54 127 36 97 72
161 102 184 l28 20 -80 1 c-108 0 -111 -3 -86 -78 12 -34 21 -68 21 -76 0 -8
-24 -45 -52 -84 -29 -38 -62 -82 -73 -97 -34 -48 -56 -66 -73 -63 -14 3 -19
25 -29 138 -12 150 -10 166 42 216 l36 34 -68 -1 c-56 -1 -73 -6 -96 -25 -16
-13 -33 -24 -39 -24 -6 0 -3 -8 6 -19 30 -33 54 -89 43 -100 -6 -6 -6 -56 0
-143 6 -73 10 -159 11 -190 2 -69 21 -152 56 -234 31 -73 135 -469 182 -692
19 -90 34 -166 34 -168 0 -2 353 -4 785 -4 l785 0 0 539 0 538 -82 -13 c-46
-8 -91 -14 -100 -14 -28 0 -22 35 9 56 15 9 32 21 38 26 33 28 120 88 127 88
4 0 8 14 8 32 l0 32 -37 -35 c-31 -29 -53 -39 -118 -54 -318 -70 -345 -74
-345 -56 0 12 55 67 104 106 21 16 55 44 75 62 20 19 48 41 64 50 15 10 27 21
27 25 0 16 48 32 124 42 l79 11 -112 54 c-106 51 -112 53 -130 37 -11 -10 -22
-32 -25 -49 -8 -40 -68 -117 -104 -133 -37 -17 -357 -124 -371 -124 -33 0 -11
29 151 202 93 99 116 119 159 133 28 10 64 15 80 13 16 -3 29 -2 28 1 0 3 -30
25 -67 49 -37 24 -86 61 -110 83 -46 44 -62 44 -62 -1 0 -16 -12 -55 -27 -85
-25 -50 -36 -61 -98 -95 -176 -96 -303 -157 -313 -151 -7 4 30 70 103 181 110
168 116 174 167 196 29 13 62 23 74 24 11 0 29 9 39 20 17 19 16 21 -25 70
-23 27 -47 50 -53 49 -7 0 -25 -10 -42 -21z"/>
<path d="M467 1823 l-46 -57 21 -23 c12 -13 28 -23 37 -23 11 0 121 -68 121
-74 0 -1 32 -93 70 -205 73 -213 83 -259 53 -242 -23 12 -335 300 -347 320 -5
8 -11 49 -13 91 -3 78 -10 87 -42 51 -21 -25 -158 -129 -193 -147 -31 -16 -37
-34 -11 -34 9 0 42 -17 74 -37 l57 -37 61 -186 c74 -227 79 -250 57 -250 -24
0 -354 297 -359 323 -2 12 -5 -274 -6 -635 l-1 -658 868 0 868 0 36 113 c20
61 46 148 57 192 27 108 61 204 106 300 46 99 57 135 46 149 -5 6 -3 44 5 86
16 88 7 276 -10 219 -30 -102 -79 -173 -152 -223 -17 -12 -71 -48 -119 -81
-200 -137 -234 -155 -298 -155 -77 0 -236 29 -279 51 -48 25 -60 44 -103 165
-50 142 -46 254 9 254 9 0 16 -7 16 -14 0 -13 4 -13 34 -1 37 16 51 9 35 -15
-13 -22 -11 -40 5 -40 22 0 30 -19 16 -35 -11 -13 -6 -15 29 -15 53 0 171 -58
226 -110 l40 -39 143 120 c79 65 157 127 173 136 24 14 29 24 29 55 0 21 -3
38 -7 37 -5 0 -35 -31 -67 -70 -32 -38 -63 -69 -69 -69 -6 0 -7 17 -4 43 7 51
113 424 125 441 8 11 9 83 0 91 -2 3 -39 7 -81 10 -52 3 -78 1 -83 -7 -4 -6
-2 -14 5 -16 6 -2 25 -31 42 -64 34 -68 35 -48 -7 -283 -14 -82 -30 -169 -34
-193 -4 -23 -9 -45 -13 -48 -9 -9 -57 27 -57 44 0 9 -9 45 -20 81 -11 36 -35
123 -54 193 -39 139 -38 144 11 237 13 24 23 48 23 54 0 11 -208 2 -219 -9 -3
-3 10 -20 30 -37 20 -18 39 -40 43 -50 3 -10 24 -109 47 -220 22 -110 42 -203
44 -207 2 -3 0 -12 -4 -19 -12 -18 -43 0 -73 41 -12 18 -42 58 -66 88 -24 30
-54 68 -65 83 -12 15 -39 48 -59 73 -21 25 -42 53 -47 63 -16 29 -19 124 -5
151 24 49 9 73 -82 128 -87 53 -124 67 -86 32 13 -13 39 -78 72 -182 28 -90
58 -180 66 -201 16 -42 19 -87 5 -87 -5 0 -86 75 -179 168 -168 164 -171 168
-177 217 -3 28 -3 75 -1 106 l6 56 -48 18 c-26 10 -70 30 -98 46 -28 16 -58
29 -66 29 -8 0 -35 -26 -61 -57z"/>
<path d="M3590 1672 c-32 -31 -40 -46 -40 -75 0 -20 4 -39 10 -42 7 -4 56 77
88 148 9 19 -21 3 -58 -31z"/>
<path d="M2750 945 c1 -11 7 -54 14 -95 8 -44 10 -79 5 -84 -16 -18 -9 -43 40
-148 70 -147 78 -169 107 -277 41 -155 107 -341 121 -341 10 0 10 8 -1 38 -8
20 -17 82 -19 137 -5 98 -6 104 -77 270 -108 254 -129 311 -152 410 -19 86
-38 131 -38 90z"/>
<path d="M1100 904 c0 -8 5 -12 10 -9 6 4 8 11 5 16 -9 14 -15 11 -15 -7z"/>
<path d="M1176 854 c-3 -8 1 -14 9 -14 20 0 28 17 11 23 -8 3 -17 -1 -20 -9z"/>
</g>
</svg>
