<?xml version="1.0" standalone="no"?>
<!DOCTYPE svg PUBLIC "-//W3C//DTD SVG 20010904//EN"
 "http://www.w3.org/TR/2001/REC-SVG-20010904/DTD/svg10.dtd">
<svg version="1.0" xmlns="http://www.w3.org/2000/svg"
 width="480.000000pt" height="360.000000pt" viewBox="0 0 480.000000 360.000000"
 preserveAspectRatio="xMidYMid meet">
<metadata>
Created by potrace 1.16, written by Peter Selinger 2001-2019
</metadata>
<rect width="1" height="360" fill="#000000"/>
<rect x="479" width="1" height="360" fill="#000000"/>
<rect width="480" height="1" fill="#000000"/>
<rect y="359" width="480" height="1" fill="#000000"/>
<g transform="translate(0.000000,360.000000) scale(0.100000,-0.100000)"
fill="#000000" stroke="none">
<path d="M0 1800 l0 -1800 768 1 c422 0 760 3 752 5 -74 25 -89 36 -95 78 -17
116 -26 130 -115 189 -31 20 -35 27 -34 65 1 32 8 50 28 71 23 24 25 31 16 56
-8 22 -7 33 5 51 32 50 261 219 392 289 48 26 111 64 138 83 55 40 175 151
175 162 0 4 -11 5 -24 3 -36 -7 -40 13 -7 36 33 24 47 26 54 9 6 -15 22 1 152
156 50 59 96 119 103 135 13 25 12 31 -12 65 -14 20 -28 57 -32 81 l-6 44 -62
-6 c-54 -5 -63 -3 -80 16 -20 22 -20 22 3 28 13 3 46 18 75 32 l51 26 -1 150
c-1 105 -6 169 -18 211 -23 89 -21 123 11 156 15 15 21 28 14 28 -7 0 -10 4
-7 8 2 4 1 14 -4 22 -7 11 -11 12 -24 0 -14 -11 -16 -10 -10 4 3 9 1 16 -5 16
-6 0 -27 10 -47 23 -26 16 -34 28 -31 44 3 15 -2 23 -15 26 -27 8 -22 20 25
67 l42 41 -32 -4 c-17 -3 -37 -8 -44 -12 -7 -5 -10 -3 -7 6 2 8 20 24 39 36
82 52 85 57 163 207 50 97 173 186 258 186 14 0 54 -9 89 -21 74 -24 176 -106
203 -163 27 -56 39 -143 24 -161 -32 -38 -63 -64 -66 -55 -2 6 -16 1 -32 -10
-15 -11 -33 -20 -39 -20 -17 0 -30 -42 -20 -61 6 -12 2 -19 -17 -27 -15 -8
-27 -23 -30 -42 -4 -16 -11 -27 -16 -24 -5 3 -17 -1 -27 -10 -15 -14 -20 -14
-45 -1 -16 8 -31 15 -34 15 -14 0 66 -73 104 -95 46 -27 89 -85 99 -134 4 -19
23 -62 41 -96 37 -68 42 -107 19 -161 -14 -34 -13 -42 9 -119 29 -100 33 -108
108 -213 63 -87 84 -105 133 -117 l30 -7 -25 28 c-22 24 -22 26 -5 19 11 -4
29 -9 40 -10 11 -2 23 -4 26 -4 3 -1 39 -26 80 -57 95 -72 116 -81 241 -99
175 -26 332 -82 593 -213 163 -81 356 -170 438 -202 61 -24 71 -39 15 -22 -91
27 -269 50 -553 72 -248 20 -417 58 -579 132 l-89 41 -117 -7 c-92 -5 -124 -3
-151 8 -19 9 -26 15 -16 16 31 0 18 19 -18 26 -35 6 -58 23 -33 25 22 1 62 9
66 14 6 6 -63 33 -106 41 -20 4 -54 13 -76 20 l-39 14 6 -37 c3 -21 22 -144
41 -273 37 -246 83 -505 116 -661 11 -51 20 -126 20 -166 l0 -73 920 0 920 0
-1 1803 c0 991 -2 1798 -4 1792 -2 -5 -6 -22 -9 -37 -9 -40 -26 -35 -26 7 l0
35 -430 0 c-304 0 -430 -3 -430 -11 0 -22 -56 -88 -79 -94 -13 -3 -25 -4 -28
-1 -5 5 23 52 51 84 l19 22 -1931 0 -1932 0 0 -1800z m455 1560 c8 -13 -5 -13
-25 0 -13 8 -13 10 2 10 9 0 20 -4 23 -10z m-247 -140 c-31 -37 -48 -49 -48
-33 0 10 62 73 73 73 4 0 -7 -18 -25 -40z m2822 -105 c-7 -8 -17 -15 -22 -15
-6 0 -5 7 2 15 7 8 17 15 22 15 6 0 5 -7 -2 -15z m-2821 -254 c23 -15 -22 -69
-65 -77 -55 -10 -60 8 -14 49 41 38 55 43 79 28z m1394 -50 c5 -19 -14 -66
-34 -86 -13 -12 -39 20 -39 47 0 21 34 58 54 58 7 0 16 -9 19 -19z m1997 -107
c0 -10 16 -14 60 -14 70 0 76 -12 31 -58 -20 -20 -47 -32 -83 -40 -29 -5 -55
-8 -58 -5 -2 2 3 18 12 34 13 22 16 42 11 77 -6 43 -5 46 10 33 10 -7 17 -20
17 -27z m1158 -120 c-2 -8 -6 -15 -10 -15 -5 1 -19 1 -33 1 -16 0 -25 6 -25
15 0 11 11 15 36 15 27 0 35 -4 32 -16z m-854 -24 c16 -16 2 -20 -37 -9 -46
13 -50 34 -5 25 18 -3 37 -11 42 -16z m-3254 -211 c0 -19 -34 -52 -43 -42 -13
12 -7 46 10 65 18 20 33 10 33 -23z m-220 -319 c0 -23 -4 -30 -20 -30 -11 0
-23 7 -26 15 -9 23 3 45 26 45 16 0 20 -7 20 -30z m2970 -336 c0 -8 -5 -12
-10 -9 -6 4 -8 11 -5 16 9 14 15 11 15 -7z m-3008 -79 c15 -33 0 -48 -36 -39
-18 4 -26 13 -26 28 0 13 3 26 7 29 15 15 44 5 55 -18z m1338 -140 c-7 -8 -20
-15 -29 -15 -12 0 -10 5 9 20 28 21 39 18 20 -5z m-125 -155 c4 -6 -7 -10 -27
-10 -25 0 -29 3 -18 10 19 13 37 13 45 0z m2978 -838 c17 -18 15 -52 -3 -52
-24 0 -80 44 -80 62 0 18 4 20 32 14 18 -4 41 -15 51 -24z m29 -362 c25 0 23
-17 -3 -25 -27 -9 -129 4 -129 15 0 5 17 12 38 15 20 4 42 8 47 10 6 1 14 -1
20 -6 5 -5 17 -9 27 -9z"/>
<path d="M3030 1330 c0 -5 5 -10 11 -10 5 0 7 5 4 10 -3 6 -8 10 -11 10 -2 0
-4 -4 -4 -10z"/>
</g>
</svg>
