<?xml version="1.0" standalone="no"?>
<!DOCTYPE svg PUBLIC "-//W3C//DTD SVG 20010904//EN"
 "http://www.w3.org/TR/2001/REC-SVG-20010904/DTD/svg10.dtd">
<svg version="1.0" xmlns="http://www.w3.org/2000/svg"
 width="480.000000pt" height="360.000000pt" viewBox="0 0 480.000000 360.000000"
 preserveAspectRatio="xMidYMid meet">
<metadata>
Created by potrace 1.16, written by Peter Selinger 2001-2019
</metadata>
<rect width="1" height="360" fill="#000000"/>
<rect x="479" width="1" height="360" fill="#000000"/>
<rect width="480" height="1" fill="#000000"/>
<rect y="359" width="480" height="1" fill="#000000"/>
<g transform="translate(0.000000,360.000000) scale(0.100000,-0.100000)"
fill="#000000" stroke="none">
<path d="M0 1800 l0 -1800 2400 0 2400 0 0 666 0 665 -22 -26 c-25 -29 -100
-44 -214 -45 -78 0 -108 26 -109 98 l-1 47 -102 10 c-56 6 -106 15 -111 20 -6
6 -14 25 -17 43 -6 29 -1 37 55 94 33 34 61 71 61 81 0 17 -6 19 -49 15 -51
-5 -130 -51 -131 -76 0 -7 -26 -25 -57 -39 -32 -15 -80 -42 -108 -62 -27 -19
-108 -75 -180 -125 -130 -89 -222 -153 -365 -252 -41 -29 -145 -100 -230 -158
-85 -58 -202 -139 -260 -180 -58 -41 -177 -124 -265 -184 -88 -60 -189 -129
-225 -155 -180 -126 -303 -207 -316 -207 -9 0 -12 -5 -8 -12 5 -8 2 -9 -9 -5
-12 5 -17 1 -17 -13 0 -31 -22 -23 -55 21 -16 22 -40 52 -52 67 -11 15 -46 75
-75 132 -179 344 -172 329 -159 353 10 19 6 36 -30 122 -33 80 -39 103 -30
117 9 14 4 43 -21 129 -24 83 -29 115 -21 128 8 12 4 44 -13 121 -19 81 -22
110 -13 126 8 15 8 43 1 95 -18 129 0 577 27 699 6 25 16 83 22 130 6 46 13
88 15 92 3 4 12 45 20 91 8 46 25 121 39 167 14 46 25 92 25 102 0 10 18 65
40 123 22 58 40 114 40 124 0 10 20 61 44 112 25 52 49 112 54 135 5 22 25 65
45 96 19 31 43 70 51 87 l17 31 -1046 0 -1045 0 0 -1800z"/>
<path d="M3155 3568 c15 -18 111 -123 214 -233 225 -240 342 -366 543 -585 84
-91 217 -233 296 -316 l143 -151 127 17 c70 10 171 26 224 36 l98 19 0 623 0
622 -836 0 -836 0 27 -32z"/>
</g>
</svg>
