<?xml version="1.0" standalone="no"?>
<!DOCTYPE svg PUBLIC "-//W3C//DTD SVG 20010904//EN"
 "http://www.w3.org/TR/2001/REC-SVG-20010904/DTD/svg10.dtd">
<svg version="1.0" xmlns="http://www.w3.org/2000/svg"
 width="480.000000pt" height="360.000000pt" viewBox="0 0 480.000000 360.000000"
 preserveAspectRatio="xMidYMid meet">
<metadata>
Created by potrace 1.16, written by Peter Selinger 2001-2019
</metadata>
<rect width="1" height="360" fill="#000000"/>
<rect x="479" width="1" height="360" fill="#000000"/>
<rect width="480" height="1" fill="#000000"/>
<rect y="359" width="480" height="1" fill="#000000"/>
<g transform="translate(0.000000,360.000000) scale(0.100000,-0.100000)"
fill="#000000" stroke="none">
<path d="M2090 2223 c5 -16 16 -50 24 -77 9 -27 16 -60 16 -72 0 -14 22 -48
55 -84 70 -79 115 -148 115 -175 0 -19 88 -153 159 -242 14 -18 53 -68 86
-113 58 -78 276 -356 342 -436 18 -21 91 -115 163 -209 71 -93 148 -192 170
-220 149 -188 247 -313 260 -332 38 -55 175 -203 187 -203 3 0 3 6 0 14 -11
29 6 23 71 -26 37 -28 68 -45 70 -39 10 31 -109 212 -479 723 -252 350 -258
358 -406 580 -136 203 -186 274 -312 448 -96 133 -127 168 -165 184 -29 12
-64 57 -173 221 -32 48 -59 61 -75 36 -12 -19 -14 -19 -59 15 -26 19 -49 34
-52 34 -3 0 -2 -12 3 -27z"/>
</g>
</svg>
