<?xml version="1.0" standalone="no"?>
<!DOCTYPE svg PUBLIC "-//W3C//DTD SVG 20010904//EN"
 "http://www.w3.org/TR/2001/REC-SVG-20010904/DTD/svg10.dtd">
<svg version="1.0" xmlns="http://www.w3.org/2000/svg"
 width="480.000000pt" height="360.000000pt" viewBox="0 0 480.000000 360.000000"
 preserveAspectRatio="xMidYMid meet">
<metadata>
Created by potrace 1.16, written by Peter Selinger 2001-2019
</metadata>
<rect width="1" height="360" fill="#000000"/>
<rect x="479" width="1" height="360" fill="#000000"/>
<rect width="480" height="1" fill="#000000"/>
<rect y="359" width="480" height="1" fill="#000000"/>
<g transform="translate(0.000000,360.000000) scale(0.100000,-0.100000)"
fill="#000000" stroke="none">
<path d="M0 1800 l0 -1800 924 0 c1015 0 948 -4 945 61 -1 20 14 74 36 129 33
80 39 109 42 185 4 88 3 92 -25 128 -54 68 -58 87 -38 206 34 201 44 276 40
283 -3 4 -23 -11 -46 -34 -44 -44 -58 -40 -58 18 0 47 62 189 116 266 18 26
45 71 60 100 14 29 35 65 45 79 13 19 17 36 12 62 -9 55 3 83 39 97 18 8 35
15 37 16 2 2 -27 36 -65 77 -110 118 -146 203 -121 290 6 23 4 27 -12 27 -29
0 -33 13 -15 49 12 23 22 31 43 31 36 0 68 32 48 48 -8 7 -17 9 -20 6 -8 -8
-117 37 -117 48 0 4 5 8 10 8 6 0 10 8 10 19 0 34 24 43 54 20 27 -21 73 -22
69 -2 -31 151 -40 272 -23 304 15 28 25 24 81 -28 l50 -46 27 26 c31 30 107
66 138 67 12 0 40 20 65 48 l44 47 3 -1317 2 -1318 300 0 c284 0 300 1 291 18
-5 9 -9 33 -8 52 0 19 -19 84 -42 143 l-43 108 1 145 c1 80 7 191 13 247 6 56
10 136 9 177 l-2 75 28 -33 c22 -26 31 -30 41 -20 6 6 12 28 12 47 -1 68 -29
210 -51 252 -11 23 -32 72 -46 108 -14 36 -32 74 -40 84 -12 12 -16 35 -14 82
2 64 2 65 -31 78 l-32 13 44 31 c67 46 158 146 182 199 47 108 6 198 -113 248
-38 16 -66 42 -55 53 3 4 12 -1 19 -11 11 -15 15 -16 25 -3 7 8 22 12 36 10
21 -4 26 0 37 36 7 23 9 44 5 48 -4 4 -28 0 -53 -9 l-45 -16 6 31 c4 18 16 84
27 148 17 99 18 121 7 155 -7 21 -20 40 -28 42 -9 1 -39 -18 -69 -43 l-53 -45
-30 25 c-42 35 -77 53 -134 65 -38 9 -58 21 -90 56 -32 34 -48 44 -72 44 l-32
0 0 480 0 480 -1200 0 -1200 0 0 -1800z m2969 134 c26 -33 27 -80 1 -121 -35
-59 -164 -163 -200 -163 -24 0 -51 42 -39 61 7 11 9 10 10 -6 1 -20 26 26 49
89 10 28 11 29 24 10 8 -10 18 -16 22 -11 4 4 16 -1 27 -10 19 -18 20 -17 13
19 -6 32 -4 37 9 32 19 -8 19 3 0 36 -22 38 -19 69 5 63 12 -3 22 1 26 11 9
24 30 20 53 -10z m-388 -287 c-13 -13 -15 1 -4 30 7 17 8 17 11 -1 2 -10 -1
-23 -7 -29z m89 -10 c7 -17 15 -35 18 -39 4 -9 -53 -10 -85 -2 -25 7 -22 26
10 61 24 27 39 22 57 -20z m186 -1148 c-3 -17 -6 -39 -6 -47 0 -12 -4 -10 -16
7 -14 19 -14 27 -4 47 19 34 34 30 26 -7z"/>
<path d="M2002 1952 c-58 -49 -33 -121 81 -228 l62 -59 3 33 c2 24 -6 47 -28
83 -18 27 -35 49 -39 49 -4 0 -14 -12 -22 -27 l-13 -28 -4 33 c-2 19 -9 32
-18 32 -17 0 -18 12 -2 28 12 12 29 112 19 112 -3 0 -21 -13 -39 -28z"/>
<path d="M2175 1679 c-11 -17 1 -21 15 -4 8 9 8 15 2 15 -6 0 -14 -5 -17 -11z"/>
<path d="M2270 1656 c-25 -41 -18 -56 28 -56 25 0 26 10 8 59 l-12 34 -24 -37z"/>
<path d="M2330 1663 c0 -13 5 -23 10 -23 13 0 13 11 0 30 -8 12 -10 11 -10 -7z"/>
<path d="M2112 714 c-7 -23 -8 -42 -2 -48 5 -5 11 6 15 27 10 52 1 66 -13 21z"/>
</g>
</svg>
