<?xml version="1.0" standalone="no"?>
<!DOCTYPE svg PUBLIC "-//W3C//DTD SVG 20010904//EN"
 "http://www.w3.org/TR/2001/REC-SVG-20010904/DTD/svg10.dtd">
<svg version="1.0" xmlns="http://www.w3.org/2000/svg"
 width="480.000000pt" height="360.000000pt" viewBox="0 0 480.000000 360.000000"
 preserveAspectRatio="xMidYMid meet">
<metadata>
Created by potrace 1.16, written by Peter Selinger 2001-2019
</metadata>
<rect width="1" height="360" fill="#000000"/>
<rect x="479" width="1" height="360" fill="#000000"/>
<rect width="480" height="1" fill="#000000"/>
<rect y="359" width="480" height="1" fill="#000000"/>
<g transform="translate(0.000000,360.000000) scale(0.100000,-0.100000)"
fill="#000000" stroke="none">
<path d="M2378 1414 c-7 -9 -32 -35 -55 -59 -24 -24 -43 -47 -43 -52 0 -4 -22
-19 -50 -32 -66 -31 -135 -106 -150 -162 -24 -88 10 -193 84 -262 42 -38 147
-97 207 -114 47 -14 52 -13 118 12 166 63 255 157 268 281 11 106 -43 182
-184 260 -52 28 -74 46 -78 64 -8 31 -59 80 -85 80 -10 0 -25 -7 -32 -16z"/>
</g>
</svg>
