<?xml version="1.0" standalone="no"?>
<!DOCTYPE svg PUBLIC "-//W3C//DTD SVG 20010904//EN"
 "http://www.w3.org/TR/2001/REC-SVG-20010904/DTD/svg10.dtd">
<svg version="1.0" xmlns="http://www.w3.org/2000/svg"
 width="480.000000pt" height="360.000000pt" viewBox="0 0 480.000000 360.000000"
 preserveAspectRatio="xMidYMid meet">
<metadata>
Created by potrace 1.16, written by Peter Selinger 2001-2019
</metadata>
<rect width="1" height="360" fill="#000000"/>
<rect x="479" width="1" height="360" fill="#000000"/>
<rect width="480" height="1" fill="#000000"/>
<rect y="359" width="480" height="1" fill="#000000"/>
<g transform="translate(0.000000,360.000000) scale(0.100000,-0.100000)"
fill="#000000" stroke="none">
<path d="M1770 3508 c52 -51 86 -88 75 -84 -11 5 -40 12 -65 16 -25 5 -58 13
-73 19 -16 6 -46 11 -67 11 -22 0 -59 9 -82 19 -93 41 -158 62 -180 59 -17 -2
-31 -20 -56 -70 -32 -66 -33 -67 -85 -78 -29 -6 -86 -28 -127 -49 -62 -32 -76
-43 -78 -65 -5 -41 23 -77 56 -74 23 3 30 -4 54 -49 16 -28 36 -82 44 -120 9
-37 25 -97 35 -132 20 -66 26 -176 10 -186 -5 -3 -17 -29 -26 -58 -9 -28 -19
-58 -22 -66 -5 -11 3 -13 42 -8 46 7 47 6 40 -16 -4 -12 -9 -106 -10 -209 -3
-152 -7 -191 -20 -212 -35 -53 -59 -282 -32 -305 20 -16 11 -165 -13 -216 -38
-80 -50 -284 -19 -321 15 -18 6 -218 -9 -237 -7 -8 -16 -61 -21 -118 -9 -106
-2 -192 16 -210 12 -12 5 -218 -7 -234 -30 -38 -40 -272 -15 -332 12 -28 14
-55 9 -110 l-7 -73 31 0 c30 0 31 1 38 59 3 32 10 65 15 72 17 27 30 -13 23
-73 l-6 -58 30 0 29 0 6 76 c4 45 13 81 22 90 22 23 30 78 30 211 0 104 -3
124 -19 142 -17 18 -18 31 -11 122 4 66 13 111 23 127 24 37 30 268 8 312 -21
43 -23 210 -2 243 36 55 50 314 18 325 -10 3 -12 25 -6 101 9 136 18 140 73
34 25 -48 61 -110 80 -138 92 -133 366 -449 699 -807 l35 -37 -50 -83 c-42
-69 -55 -84 -81 -89 -44 -9 -57 -22 -88 -86 -14 -30 -40 -76 -58 -102 -33 -47
-56 -109 -56 -152 0 -13 -38 -80 -85 -151 -47 -69 -85 -129 -85 -132 0 -3 420
-6 933 -6 l933 0 18 76 c17 72 116 287 159 346 22 30 38 29 32 -2 -2 -11 0
-20 4 -20 5 0 7 -19 4 -42 -3 -32 1 -52 16 -75 20 -31 51 -45 51 -22 0 6 9 8
20 4 28 -9 58 3 65 26 6 19 35 27 35 9 0 -18 39 -11 49 9 8 15 20 18 56 16 36
-3 51 1 74 20 15 14 32 21 36 17 4 -4 17 6 29 21 14 17 35 30 54 32 43 5 83
28 124 69 22 22 46 36 61 36 27 0 125 75 151 115 10 15 22 22 31 19 18 -7 73
37 97 78 16 25 18 58 18 287 l0 259 -35 31 c-76 66 -182 101 -310 101 -77 1
-81 2 -115 34 -34 32 -65 75 -58 81 2 1 109 24 238 50 129 27 245 52 258 56
22 8 22 10 22 215 l0 207 -47 -6 c-27 -4 -108 -10 -182 -13 -130 -7 -134 -6
-126 12 17 41 5 98 -27 131 -46 48 -126 60 -83 13 10 -11 16 -22 14 -24 -2 -2
-43 -16 -91 -30 -84 -26 -87 -26 -123 -9 -42 20 -62 12 -83 -30 -24 -50 -55
-37 -156 67 -142 144 -259 223 -376 254 -205 53 -513 96 -372 52 23 -7 42 -16
42 -19 0 -3 -38 -6 -84 -5 -92 1 -127 -9 -86 -24 57 -21 56 -20 37 -21 -10 -1
-36 -19 -58 -40 -23 -22 -70 -63 -104 -93 -63 -52 -79 -73 -50 -62 16 6 21
-11 6 -20 -5 -3 -8 -20 -6 -38 1 -18 -7 -50 -18 -71 -11 -21 -17 -41 -13 -44
6 -6 14 3 49 51 5 8 10 6 16 -3 7 -11 11 -9 20 8 7 11 16 21 21 21 18 0 -43
-108 -67 -119 -49 -22 -116 -5 -175 44 -43 36 -65 33 -77 -12 -6 -21 -12 -49
-13 -63 -3 -21 -47 -57 -92 -73 -4 -1 -12 -27 -17 -57 -10 -65 -17 -72 -71
-79 -32 -5 -44 -11 -47 -26 -2 -10 -19 -39 -37 -64 -19 -24 -34 -55 -34 -68 0
-25 27 -83 66 -143 27 -41 67 -162 62 -186 -2 -12 -21 5 -63 57 -105 130 -262
294 -416 434 -148 135 -149 136 -149 179 0 68 -27 243 -75 487 -25 124 -45
230 -45 237 0 9 12 10 40 6 44 -7 51 3 20 31 -27 24 -99 149 -102 176 -3 19 4
24 38 33 22 6 39 16 37 21 -3 9 49 35 69 35 3 0 11 -28 18 -62 22 -117 96
-255 171 -325 41 -38 139 -91 208 -114 133 -43 139 -49 157 -154 9 -56 52
-147 65 -140 6 4 14 18 19 31 7 18 17 24 39 24 16 0 41 4 54 9 22 9 24 16 31
103 7 105 11 110 101 155 170 86 261 196 306 370 45 179 14 330 -100 482 -34
45 -39 57 -30 74 6 10 8 32 5 47 -4 23 3 39 34 78 22 27 40 53 40 56 0 3 -273
6 -607 6 l-608 -1 95 -91z m-522 -275 c-5 -31 -11 -59 -13 -61 -2 -2 -30 8
-61 22 -35 16 -54 30 -48 36 16 16 118 69 125 65 3 -3 2 -30 -3 -62z m82
-1025 c0 -23 -3 -29 -11 -21 -6 6 -8 20 -4 32 9 30 15 26 15 -11z m-3 -133
l35 -15 -4 -60 c-2 -33 -9 -64 -14 -70 -5 -5 -24 -4 -47 3 l-39 12 7 58 c6 58
13 87 21 87 3 0 21 -7 41 -15z m-27 -325 c0 -64 -3 -80 -15 -80 -17 0 -19 24
-9 108 10 79 24 62 24 -28z m28 -195 c5 -4 -11 -143 -18 -154 -4 -8 -21 -9
-49 -5 l-42 7 6 56 c12 113 11 110 58 104 23 -3 43 -7 45 -8z m-56 -346 c-1
-41 -1 -77 -2 -81 0 -5 -4 -8 -10 -8 -6 0 -10 35 -10 86 0 61 3 85 12 82 8 -3
11 -29 10 -79z m24 -366 c-3 -8 -21 -13 -45 -13 -46 0 -48 5 -43 108 l4 73 33
-3 c19 -1 38 2 42 6 9 9 17 -150 9 -171z m-36 -204 c0 -68 -3 -90 -12 -87 -9
3 -14 30 -16 78 -3 77 1 100 18 100 6 0 10 -35 10 -91z m32 -226 c2 -16 1 -55
-2 -88 l-5 -60 -40 -6 c-48 -8 -55 0 -55 62 0 85 9 107 44 112 17 2 36 5 42 5
7 1 14 -10 16 -25z"/>
</g>
</svg>
