<?xml version="1.0" standalone="no"?>
<!DOCTYPE svg PUBLIC "-//W3C//DTD SVG 20010904//EN"
 "http://www.w3.org/TR/2001/REC-SVG-20010904/DTD/svg10.dtd">
<svg version="1.0" xmlns="http://www.w3.org/2000/svg"
 width="480.000000pt" height="360.000000pt" viewBox="0 0 480.000000 360.000000"
 preserveAspectRatio="xMidYMid meet">
<metadata>
Created by potrace 1.16, written by Peter Selinger 2001-2019
</metadata>
<rect width="1" height="360" fill="#000000"/>
<rect x="479" width="1" height="360" fill="#000000"/>
<rect width="480" height="1" fill="#000000"/>
<rect y="359" width="480" height="1" fill="#000000"/>
<g transform="translate(0.000000,360.000000) scale(0.100000,-0.100000)"
fill="#000000" stroke="none">
<path d="M256 3584 c-3 -9 -6 -26 -6 -40 0 -28 -30 -39 -104 -37 -43 1 -53 6
-82 37 -65 71 -64 74 -64 -296 0 -262 3 -343 15 -381 17 -57 41 -102 74 -139
13 -15 29 -37 35 -50 8 -15 24 -25 49 -29 20 -3 39 -8 42 -11 3 -2 9 -39 15
-81 6 -42 27 -125 46 -184 70 -213 58 -280 -63 -368 -37 -28 -97 -80 -132
-117 -51 -54 -62 -70 -52 -81 8 -11 6 -18 -9 -32 -20 -18 -20 -31 -20 -685 l0
-667 108 -18 c59 -10 113 -23 120 -29 10 -10 10 -28 0 -95 l-13 -82 -50 -27
c-43 -23 -50 -32 -53 -61 -2 -19 5 -51 15 -73 l18 -38 215 0 215 0 32 58 c18
31 37 84 42 117 26 145 40 216 46 224 6 11 104 27 247 40 70 7 119 17 145 30
53 28 123 43 128 28 2 -7 11 -57 20 -112 21 -125 43 -205 62 -227 9 -10 68
-49 132 -88 l116 -70 192 0 192 0 45 55 c24 30 66 89 92 130 26 41 51 75 54
75 8 0 -13 -124 -29 -179 -6 -19 -8 -45 -5 -58 6 -22 10 -23 105 -23 116 0
116 -1 101 120 -9 76 -9 95 9 319 11 145 18 161 115 250 64 59 108 81 126 63
6 -6 1 -34 -11 -72 -12 -35 -21 -76 -21 -91 0 -51 31 -123 86 -198 63 -85 69
-105 85 -268 l12 -123 713 0 714 0 0 61 c0 129 -23 365 -60 629 -63 446 -65
468 -52 557 68 432 84 581 76 743 -11 218 -69 464 -129 545 -12 16 -26 41 -30
55 -32 106 -130 223 -232 278 -109 57 -190 74 -372 78 -89 1 -166 5 -169 8
-11 12 -51 6 -66 -9 -9 -9 -38 -23 -65 -31 -96 -28 -181 -106 -300 -274 -30
-41 -65 -87 -79 -102 -32 -35 -19 -36 25 -2 19 14 36 24 39 22 2 -3 -8 -33
-22 -68 -16 -39 -22 -65 -15 -69 5 -4 15 -38 21 -76 12 -77 16 -86 26 -61 5
14 10 9 25 -21 17 -36 17 -37 18 -10 1 35 12 34 34 -4 17 -30 17 -33 0 -51
-10 -11 -30 -26 -45 -34 -35 -18 -35 -38 -2 -81 21 -28 25 -41 20 -68 -4 -19
-3 -42 2 -52 25 -48 42 -96 42 -116 0 -45 27 -67 80 -67 35 0 48 -4 46 -12 -3
-7 -7 -26 -11 -41 -6 -30 -11 -31 -72 -11 -13 4 -11 -1 9 -19 15 -14 33 -27
40 -29 10 -4 10 -21 -4 -89 -14 -67 -23 -89 -45 -107 -64 -54 -83 -75 -83 -89
0 -31 -42 -82 -87 -107 l-45 -26 -47 41 c-75 67 -85 69 -132 23 -22 -21 -49
-54 -61 -72 -11 -18 -22 -31 -24 -29 -6 6 25 217 37 255 8 24 7 52 -2 105 -26
147 -7 837 27 989 13 57 14 75 4 99 -26 61 -138 82 -185 34 -30 -29 -31 -58
-9 -152 17 -72 17 -61 -6 -683 -6 -146 -15 -281 -20 -300 -5 -19 -12 -134 -14
-255 -3 -121 -9 -233 -13 -248 -5 -15 -22 -37 -38 -47 l-30 -19 -68 92 c-177
242 -332 447 -337 447 -3 0 -19 -14 -35 -30 -16 -16 -33 -30 -37 -30 -24 0
-126 92 -175 157 -31 41 -65 80 -77 88 -32 20 -137 45 -194 45 -78 0 -98 -46
-32 -74 17 -7 27 -15 23 -19 -15 -15 -51 -5 -105 28 -60 38 -83 76 -95 161 -4
28 -16 55 -35 76 -29 32 -30 33 -45 13 -28 -37 -43 -84 -43 -137 l-1 -53 -20
25 c-12 14 -34 39 -50 57 -61 68 -143 343 -136 459 l3 69 59 16 c49 13 61 21
72 45 7 16 10 41 7 56 -5 24 -2 28 28 36 l33 8 -42 27 c-23 14 -44 35 -48 46
-3 11 -15 23 -26 26 -10 4 -28 24 -38 46 l-19 39 66 1 67 0 -48 13 c-27 7 -55
22 -62 33 -8 12 -32 28 -53 36 -21 9 -53 32 -71 52 -70 80 -7 92 129 26 47
-22 100 -41 118 -41 30 0 32 2 32 36 0 68 -16 80 -155 109 -122 26 -122 27
-127 101 -3 56 -8 68 -37 98 l-33 34 21 30 c26 37 26 42 2 42 -16 0 -21 10
-27 56 -6 53 0 172 13 236 l6 28 -136 0 c-114 0 -136 -2 -141 -16z m621 -1926
c-3 -8 -6 -5 -6 6 -1 11 2 17 5 13 3 -3 4 -12 1 -19z m227 -158 c93 -22 150
-41 187 -63 51 -31 149 -138 149 -163 0 -7 -16 -22 -35 -34 -40 -24 -31 -27
-98 32 -11 9 -77 46 -148 83 -71 36 -142 77 -158 90 -16 14 -50 62 -75 107
l-46 83 45 -52 45 -51 134 -32z"/>
<path d="M1195 2270 c-4 -6 2 -22 13 -37 l19 -26 -51 -26 c-28 -14 -52 -34
-54 -43 -3 -16 5 -18 57 -18 l61 0 -2 -37 c-1 -47 11 -103 22 -103 14 0 50 56
56 89 8 40 10 41 62 31 23 -4 45 -4 48 1 8 14 -24 67 -46 74 -19 6 -18 8 11
28 55 38 50 51 -15 43 -55 -6 -56 -6 -46 14 9 16 8 20 -5 20 -8 0 -15 -6 -15
-14 0 -25 -19 -28 -46 -7 -29 23 -59 27 -69 11z"/>
</g>
</svg>
