<?xml version="1.0" standalone="no"?>
<!DOCTYPE svg PUBLIC "-//W3C//DTD SVG 20010904//EN"
 "http://www.w3.org/TR/2001/REC-SVG-20010904/DTD/svg10.dtd">
<svg version="1.0" xmlns="http://www.w3.org/2000/svg"
 width="480.000000pt" height="360.000000pt" viewBox="0 0 480.000000 360.000000"
 preserveAspectRatio="xMidYMid meet">
<metadata>
Created by potrace 1.16, written by Peter Selinger 2001-2019
</metadata>
<rect width="1" height="360" fill="#000000"/>
<rect x="479" width="1" height="360" fill="#000000"/>
<rect width="480" height="1" fill="#000000"/>
<rect y="359" width="480" height="1" fill="#000000"/>
<g transform="translate(0.000000,360.000000) scale(0.100000,-0.100000)"
fill="#000000" stroke="none">
<path d="M1310 2860 c-12 -16 -19 -34 -16 -39 3 -5 0 -21 -8 -36 -8 -15 -17
-58 -21 -95 -6 -62 -5 -71 19 -109 15 -22 29 -41 32 -41 3 0 2 5 -1 10 -11 18
10 10 28 -10 13 -16 15 -24 6 -38 -10 -15 -3 -30 40 -90 28 -40 51 -77 51 -82
0 -6 -18 -17 -40 -26 -43 -17 -48 -29 -25 -60 20 -26 19 -33 -9 -44 -24 -9
-106 -103 -106 -121 0 -5 -16 -32 -35 -60 -52 -76 -43 -129 27 -165 l31 -16
-5 -87 c-5 -79 -9 -95 -42 -151 -20 -35 -35 -69 -32 -77 10 -24 -32 -126 -61
-149 -17 -13 -32 -39 -39 -65 -10 -40 -9 -46 12 -69 22 -24 22 -27 9 -80 -15
-56 -102 -710 -130 -970 -8 -80 -18 -155 -20 -167 l-5 -23 480 0 480 0 -5 23
c-11 51 -47 357 -65 567 -20 227 -40 339 -102 565 -17 61 -36 122 -44 137 -13
24 -12 27 6 33 20 6 19 8 -10 41 l-30 35 21 42 c12 23 40 72 62 110 45 76 45
77 5 241 -22 87 -22 89 -2 103 19 14 19 14 -2 31 -22 17 -23 38 -8 104 6 27
-54 207 -80 238 -11 13 -7 21 26 53 24 23 38 31 38 22 0 -19 16 -20 23 0 4 8
15 12 27 10 12 -2 23 2 27 10 3 8 9 13 13 10 9 -5 41 104 42 144 1 35 -19 96
-37 111 -8 7 -19 29 -25 49 -12 44 -131 176 -173 191 -54 19 -197 8 -249 -21
-28 -15 -38 -11 -38 16 0 33 -14 32 -40 -5z"/>
<path d="M3350 400 c-63 -15 -97 -79 -70 -130 13 -24 -15 -208 -35 -228 -6 -7
-34 -19 -61 -27 -43 -12 -6 -13 321 -13 358 0 368 0 318 16 -29 10 -57 22 -64
28 -11 12 -49 145 -49 175 0 9 7 22 15 29 21 17 19 89 -3 118 -10 13 -36 27
-57 32 -49 12 -267 11 -315 0z"/>
</g>
</svg>
