<?xml version="1.0" standalone="no"?>
<!DOCTYPE svg PUBLIC "-//W3C//DTD SVG 20010904//EN"
 "http://www.w3.org/TR/2001/REC-SVG-20010904/DTD/svg10.dtd">
<svg version="1.0" xmlns="http://www.w3.org/2000/svg"
 width="480.000000pt" height="360.000000pt" viewBox="0 0 480.000000 360.000000"
 preserveAspectRatio="xMidYMid meet">
<metadata>
Created by potrace 1.16, written by Peter Selinger 2001-2019
</metadata>
<rect width="1" height="360" fill="#000000"/>
<rect x="479" width="1" height="360" fill="#000000"/>
<rect width="480" height="1" fill="#000000"/>
<rect y="359" width="480" height="1" fill="#000000"/>
<g transform="translate(0.000000,360.000000) scale(0.100000,-0.100000)"
fill="#000000" stroke="none">
<path d="M0 1800 l0 -1800 855 0 854 0 6 38 c3 20 8 49 10 64 3 21 -6 39 -40
79 -79 93 -94 179 -46 273 23 46 27 66 23 101 -4 38 0 50 23 81 l27 36 -26 27
c-14 15 -26 37 -26 50 0 12 -5 31 -11 43 -8 14 -7 28 1 48 10 25 9 32 -10 58
-13 17 -20 37 -16 44 4 7 13 24 21 38 8 14 15 37 15 51 0 32 23 53 58 54 27 0
27 1 24 62 -4 58 -2 65 26 93 17 16 37 30 45 30 18 0 27 42 27 125 0 34 3 109
6 168 6 95 9 106 29 115 16 7 28 33 48 99 15 48 43 115 63 148 41 67 41 71 24
265 -5 63 -19 241 -31 396 -23 307 -22 318 32 467 31 82 50 77 115 -30 l34
-57 1 -335 c2 -407 9 -563 27 -569 9 -3 12 155 12 767 l0 771 -1100 0 -1100 0
0 -1800z"/>
<path d="M2200 2032 c0 -13 -6 -22 -15 -22 -8 0 -15 -7 -15 -15 0 -21 17 -19
42 5 21 19 21 21 5 37 -16 16 -17 16 -17 -5z"/>
<path d="M2198 1878 c-4 -99 4 -125 21 -68 9 32 10 54 1 96 -6 30 -13 54 -15
54 -2 0 -5 -37 -7 -82z"/>
<path d="M2179 1733 c-2 -10 -1 -63 2 -118 l5 -100 2 86 c1 48 5 101 8 118 4
18 2 31 -4 31 -5 0 -11 -8 -13 -17z"/>
<path d="M2161 1460 c-13 -11 -38 -20 -56 -20 -21 0 -35 -6 -39 -16 -8 -21 -8
-74 0 -74 4 0 24 16 45 35 22 19 48 35 59 35 16 0 20 7 20 30 0 35 1 35 -29
10z"/>
<path d="M2190 705 l0 -705 246 0 247 0 -53 56 -52 55 6 72 c4 40 11 96 17
126 13 64 6 111 -27 170 -25 45 -31 81 -15 81 6 0 13 -5 16 -10 16 -26 23 -5
10 31 -19 52 -19 49 5 49 26 0 25 8 -2 37 l-23 24 30 57 c21 40 37 58 53 60
27 4 27 3 2 52 -11 22 -20 46 -20 55 0 8 9 15 20 15 11 0 20 2 20 4 0 16 -56
124 -71 136 -12 10 -21 35 -25 75 -10 97 -19 105 -116 105 l-82 0 -77 80 c-43
44 -85 80 -93 80 -14 0 -16 -72 -16 -705z m349 -252 c23 -35 31 -58 31 -91 0
-42 -1 -44 -17 -30 -17 15 -57 29 -115 42 -33 7 -33 11 -12 62 14 34 17 37 29
21 17 -23 21 -22 34 13 5 17 12 30 15 30 2 0 18 -21 35 -47z m-159 -73 c0 -5
-4 -10 -10 -10 -5 0 -10 5 -10 10 0 6 5 10 10 10 6 0 10 -4 10 -10z"/>
<path d="M1667 411 c-31 -53 -20 -113 29 -166 l28 -30 7 25 c16 55 10 141 -12
171 -25 36 -30 36 -52 0z"/>
<path d="M1776 328 c-3 -13 -5 -48 -5 -78 l1 -55 15 69 c9 43 11 72 5 78 -6 6
-12 1 -16 -14z"/>
<path d="M1760 42 c0 -23 4 -42 9 -42 6 0 7 17 4 37 -8 52 -13 54 -13 5z"/>
</g>
</svg>
