<?xml version="1.0" standalone="no"?>
<!DOCTYPE svg PUBLIC "-//W3C//DTD SVG 20010904//EN"
 "http://www.w3.org/TR/2001/REC-SVG-20010904/DTD/svg10.dtd">
<svg version="1.0" xmlns="http://www.w3.org/2000/svg"
 width="480.000000pt" height="360.000000pt" viewBox="0 0 480.000000 360.000000"
 preserveAspectRatio="xMidYMid meet">
<metadata>
Created by potrace 1.16, written by Peter Selinger 2001-2019
</metadata>
<rect width="1" height="360" fill="#000000"/>
<rect x="479" width="1" height="360" fill="#000000"/>
<rect width="480" height="1" fill="#000000"/>
<rect y="359" width="480" height="1" fill="#000000"/>
<g transform="translate(0.000000,360.000000) scale(0.100000,-0.100000)"
fill="#000000" stroke="none">
<path d="M1 2698 c1 -497 5 -889 9 -873 5 17 16 73 25 125 27 154 37 143 30
-35 -16 -407 66 -792 246 -1155 130 -261 280 -465 484 -656 l110 -104 1502 0
1503 0 124 123 c221 218 347 394 480 667 57 117 144 354 160 435 5 29 5 29 -6
5 -48 -111 -105 -224 -136 -270 -51 -78 -234 -256 -321 -314 -76 -50 -206
-114 -276 -135 -22 -7 -49 -16 -60 -21 -84 -37 -411 -52 -540 -26 -476 98
-825 454 -922 939 -19 95 -21 328 -4 397 6 25 14 97 18 161 18 337 -123 673
-387 922 -141 133 -230 185 -440 253 -340 111 -729 46 -1040 -174 -36 -25 -67
-49 -70 -53 -3 -4 -23 -22 -46 -41 -59 -49 -150 -153 -195 -223 -45 -71 -48
-62 -13 37 61 169 213 430 354 605 35 43 117 131 182 196 l118 117 -445 0
-445 0 1 -902z m1400 -438 c15 0 90 -69 114 -103 94 -140 27 -348 -132 -407
-66 -24 -122 -25 -189 -2 -69 24 -116 65 -153 133 -34 63 -39 112 -19 198 32
140 190 233 328 194 25 -7 48 -13 51 -13z"/>
<path d="M4014 3508 c360 -336 613 -805 696 -1288 53 -310 51 -547 -6 -833
-16 -82 -13 -118 5 -51 16 63 49 202 71 301 19 89 20 127 20 950 0 779 -2 865
-17 936 l-18 77 -425 0 -425 0 99 -92z"/>
<path d="M3427 1896 c-82 -34 -138 -84 -172 -152 -25 -51 -29 -71 -29 -144 -1
-73 3 -92 26 -136 69 -130 213 -196 348 -158 76 21 134 61 176 120 42 59 56
108 57 199 1 57 -4 79 -25 120 -75 143 -242 210 -381 151z"/>
<path d="M4681 1274 c0 -11 3 -14 6 -6 3 7 2 16 -1 19 -3 4 -6 -2 -5 -13z"/>
<path d="M0 122 l0 -122 26 0 c24 0 25 3 19 28 -4 15 -13 66 -20 115 -6 48
-15 90 -18 94 -4 3 -7 -48 -7 -115z"/>
</g>
</svg>
