<?xml version="1.0" standalone="no"?>
<!DOCTYPE svg PUBLIC "-//W3C//DTD SVG 20010904//EN"
 "http://www.w3.org/TR/2001/REC-SVG-20010904/DTD/svg10.dtd">
<svg version="1.0" xmlns="http://www.w3.org/2000/svg"
 width="480.000000pt" height="360.000000pt" viewBox="0 0 480.000000 360.000000"
 preserveAspectRatio="xMidYMid meet">
<metadata>
Created by potrace 1.16, written by Peter Selinger 2001-2019
</metadata>
<rect width="1" height="360" fill="#000000"/>
<rect x="479" width="1" height="360" fill="#000000"/>
<rect width="480" height="1" fill="#000000"/>
<rect y="359" width="480" height="1" fill="#000000"/>
<g transform="translate(0.000000,360.000000) scale(0.100000,-0.100000)"
fill="#000000" stroke="none">
<path d="M2818 3110 c-21 -5 -64 -23 -97 -39 -91 -46 -140 -115 -150 -211 l-6
-54 -45 -13 c-25 -7 -71 -20 -102 -28 -68 -18 -73 -33 -22 -72 20 -15 45 -35
56 -44 19 -14 20 -17 4 -47 -19 -37 -21 -73 -3 -70 7 2 12 -8 12 -27 1 -53 32
-135 51 -135 7 0 28 -14 46 -30 27 -25 34 -28 36 -14 3 13 6 13 18 -5 17 -24
7 -51 -26 -74 -25 -17 -18 -40 16 -55 13 -7 24 -20 24 -30 0 -11 9 -31 20 -45
11 -14 20 -28 20 -31 0 -3 16 -29 36 -57 36 -50 37 -50 78 -44 23 4 46 8 51 9
6 0 9 -10 7 -24 l-2 -25 23 29 23 29 17 -36 c21 -43 21 -60 1 -98 -10 -21 -20
-28 -32 -25 -9 3 -62 10 -117 15 -55 6 -124 15 -154 21 -57 11 -97 5 -122 -17
-12 -10 -66 -17 -175 -25 l-159 -10 -225 77 c-124 42 -262 93 -307 112 -51 22
-93 33 -108 31 -19 -4 -37 6 -79 42 -30 26 -69 58 -87 70 -19 13 -57 47 -86
77 -51 52 -78 64 -100 42 -7 -7 -26 -6 -64 5 -87 24 -135 29 -159 16 -19 -10
-20 -14 -8 -26 7 -8 34 -21 58 -29 25 -8 32 -12 16 -9 -35 6 -126 -23 -126
-41 0 -9 24 -15 85 -20 47 -4 85 -12 85 -17 0 -7 -15 -8 -38 -5 -28 5 -46 1
-70 -13 -54 -33 -34 -54 43 -44 50 7 99 -2 90 -16 -3 -6 -16 -10 -29 -10 -12
0 -32 -11 -45 -23 -19 -21 -20 -26 -7 -36 12 -10 20 -10 38 0 27 15 91 13 121
-2 12 -7 40 -28 62 -48 22 -20 79 -57 127 -81 83 -43 86 -45 81 -75 l-5 -30
78 -19 c120 -28 292 -89 494 -176 61 -26 80 -29 288 -40 122 -6 279 -8 350 -5
163 9 177 4 190 -67 6 -29 13 -99 16 -155 6 -118 12 -112 -93 -93 -31 6 -121
22 -201 36 -271 48 -244 39 -270 94 -23 49 -38 60 -132 91 -29 10 -43 10 -63
1 -14 -7 -36 -12 -49 -12 -27 0 -47 -35 -67 -115 -6 -27 -16 -58 -21 -67 -4
-10 -10 -39 -13 -65 -2 -26 -7 -66 -10 -89 l-7 -41 73 -27 c62 -23 88 -28 162
-27 86 2 87 1 87 -22 0 -38 24 -49 128 -58 114 -11 251 -36 454 -85 l147 -36
47 21 c25 12 48 21 50 21 2 0 4 -26 4 -58 0 -32 5 -106 11 -164 10 -103 10
-107 -16 -169 -30 -74 -48 -151 -69 -305 -9 -61 -18 -118 -22 -128 -6 -15 46
-16 670 -16 372 0 676 4 676 8 0 13 -200 344 -234 387 -46 59 -108 113 -198
175 -129 88 -129 103 1 114 271 25 512 157 588 323 53 115 41 268 -31 381 -32
51 -132 158 -184 197 -22 16 -49 50 -61 76 -15 31 -61 83 -144 161 -125 117
-160 144 -177 133 -6 -4 -38 20 -72 52 -34 32 -69 64 -76 71 -12 11 -10 12 13
6 40 -10 25 8 -31 37 l-48 24 49 5 50 5 -65 24 c-36 13 -67 26 -69 28 -2 1 6
12 19 23 l23 20 -24 1 c-20 1 -21 2 -4 6 11 3 24 9 29 14 6 5 30 9 55 9 l46 0
-23 18 -23 18 25 12 c30 13 34 32 9 33 -34 1 41 26 102 34 l60 7 -33 17 c-33
17 -33 17 -10 28 22 10 20 11 -22 21 -25 5 -35 10 -22 11 26 1 30 21 5 21 -10
0 -33 9 -51 20 -18 11 -39 20 -47 20 -7 0 -20 6 -27 13 -7 7 -29 19 -48 27
-19 8 -64 30 -99 50 -63 34 -65 37 -81 95 -20 74 -42 116 -92 180 -51 64 -90
96 -164 133 -120 61 -307 94 -396 72z"/>
</g>
</svg>
