<?xml version="1.0" standalone="no"?>
<!DOCTYPE svg PUBLIC "-//W3C//DTD SVG 20010904//EN"
 "http://www.w3.org/TR/2001/REC-SVG-20010904/DTD/svg10.dtd">
<svg version="1.0" xmlns="http://www.w3.org/2000/svg"
 width="480.000000pt" height="360.000000pt" viewBox="0 0 480.000000 360.000000"
 preserveAspectRatio="xMidYMid meet">
<metadata>
Created by potrace 1.16, written by Peter Selinger 2001-2019
</metadata>
<rect width="1" height="360" fill="#000000"/>
<rect x="479" width="1" height="360" fill="#000000"/>
<rect width="480" height="1" fill="#000000"/>
<rect y="359" width="480" height="1" fill="#000000"/>
<g transform="translate(0.000000,360.000000) scale(0.100000,-0.100000)"
fill="#000000" stroke="none">
<path d="M513 2673 c-3 -10 -8 -21 -10 -25 -2 -4 3 -5 12 -2 9 4 13 9 11 12
-3 3 -1 11 5 19 9 9 8 13 0 13 -6 0 -14 -8 -18 -17z"/>
<path d="M557 2664 c-3 -3 -3 -12 -1 -19 4 -10 -1 -12 -15 -8 -15 4 -23 -2
-32 -21 -7 -14 -21 -28 -33 -31 -12 -4 -47 -18 -79 -32 -67 -29 -93 -27 -193
14 -34 14 -69 23 -78 20 -8 -3 -25 -25 -37 -49 -25 -51 -57 -88 -76 -88 -11 0
-13 -214 -13 -1225 l0 -1225 373 0 374 0 11 52 c6 29 14 87 18 128 l6 76 -83
42 c-66 33 -99 44 -154 49 -38 3 -75 10 -81 15 -7 5 -17 28 -23 52 -15 61 -31
70 -117 72 -43 0 -80 6 -89 14 -12 10 -19 9 -40 -4 -13 -9 -29 -16 -35 -16
-15 0 -12 71 7 125 12 35 13 50 5 53 -18 6 -14 30 7 41 10 6 26 22 36 37 15
23 15 26 2 21 -12 -4 -14 -2 -10 11 10 27 36 66 50 75 8 5 11 12 8 18 -4 5 1
9 9 9 11 0 16 9 16 26 0 18 15 40 48 71 26 25 46 49 44 54 -1 5 3 9 9 9 5 0 8
4 4 10 -5 9 92 161 108 168 4 2 7 10 7 18 0 8 6 14 13 14 9 0 9 2 -1 9 -8 4
-11 19 -8 34 5 29 -8 37 -18 12 -3 -8 -15 -15 -26 -15 -33 0 -53 61 -47 139 5
70 9 75 88 130 49 34 54 41 56 77 l1 39 -7 -35 c-5 -25 -8 -3 -11 75 -6 176
-5 254 4 345 5 47 10 97 11 113 1 15 3 32 4 38 1 8 7 7 18 -2 15 -13 15 -12 3
8 -12 19 -12 24 3 41 9 10 22 33 28 50 6 18 14 30 17 28 4 -2 8 25 10 61 2 42
10 76 23 96 26 44 24 61 -12 102 -24 27 -37 34 -53 30 -14 -4 -17 -3 -8 3 9 6
7 14 -11 30 -13 12 -26 19 -30 16z"/>
<path d="M1760 643 c-29 -11 -60 -46 -71 -82 -25 -75 -87 -198 -104 -204 -9
-4 -30 -7 -47 -7 -24 0 -29 3 -24 16 5 12 2 15 -10 10 -8 -3 -33 -6 -55 -6
-32 0 -46 -7 -77 -38 -51 -53 -66 -59 -122 -52 -28 4 -50 4 -50 1 0 -23 -21
-232 -26 -253 l-6 -28 532 0 c502 0 532 1 527 18 -14 44 -76 211 -86 230 -6
11 -25 58 -42 104 -23 63 -41 94 -77 131 -25 26 -58 68 -72 94 -20 37 -34 49
-61 56 -48 12 -111 17 -129 10z"/>
<path d="M988 283 c-18 -4 -33 -45 -67 -173 -11 -42 -23 -83 -27 -93 -5 -15 1
-17 52 -17 49 0 63 4 82 24 19 21 22 34 22 107 0 150 -7 167 -62 152z"/>
</g>
</svg>
