<?xml version="1.0" standalone="no"?>
<!DOCTYPE svg PUBLIC "-//W3C//DTD SVG 20010904//EN"
 "http://www.w3.org/TR/2001/REC-SVG-20010904/DTD/svg10.dtd">
<svg version="1.0" xmlns="http://www.w3.org/2000/svg"
 width="480.000000pt" height="360.000000pt" viewBox="0 0 480.000000 360.000000"
 preserveAspectRatio="xMidYMid meet">
<metadata>
Created by potrace 1.16, written by Peter Selinger 2001-2019
</metadata>
<rect width="1" height="360" fill="#000000"/>
<rect x="479" width="1" height="360" fill="#000000"/>
<rect width="480" height="1" fill="#000000"/>
<rect y="359" width="480" height="1" fill="#000000"/>
<g transform="translate(0.000000,360.000000) scale(0.100000,-0.100000)"
fill="#000000" stroke="none">
<path d="M2404 3572 c-147 -51 -224 -111 -281 -219 -39 -73 -53 -125 -63 -233
-7 -83 -8 -85 -49 -120 -22 -19 -93 -64 -156 -99 l-116 -64 -56 12 c-40 8 -60
8 -67 1 -6 -6 -11 -42 -11 -79 0 -107 39 -135 125 -91 49 25 70 25 77 1 6 -24
29 -30 66 -18 42 14 60 3 52 -33 -5 -22 -3 -30 8 -30 7 0 38 -39 67 -86 29
-48 61 -89 71 -91 11 -3 19 -9 19 -13 0 -10 69 -80 80 -80 5 0 2 16 -5 34 -10
24 -11 37 -4 41 16 11 23 -2 26 -53 2 -26 8 -78 14 -117 11 -67 10 -90 -17
-207 -10 -45 9 -33 61 39 45 61 50 64 58 45 27 -60 -56 -317 -129 -402 -18
-22 -27 -67 -15 -74 22 -14 10 -48 -26 -79 -87 -74 -156 -144 -164 -165 -9
-22 -9 -22 -46 -6 -83 36 -123 47 -248 65 -179 27 -408 34 -593 20 -167 -13
-202 -23 -202 -56 0 -51 33 -128 72 -171 23 -24 39 -47 36 -49 -7 -7 -76 -7
-124 0 -30 5 -43 3 -53 -9 -11 -13 -8 -19 15 -41 15 -14 33 -25 40 -25 7 0 25
-16 40 -35 16 -21 41 -39 64 -46 27 -8 48 -25 70 -56 52 -72 65 -77 187 -70
106 6 106 6 176 53 l71 47 18 -23 c10 -12 18 -29 18 -38 0 -9 11 -27 24 -41
13 -15 45 -69 71 -121 67 -132 127 -223 167 -253 44 -34 109 -57 159 -57 l39
0 0 -45 c0 -81 -31 -259 -51 -291 -11 -18 -36 -44 -57 -59 -20 -16 -43 -35
-49 -43 -35 -43 -45 -42 629 -42 l642 0 -28 29 c-15 16 -47 34 -71 40 l-42 11
-22 84 c-25 101 -26 137 -6 208 72 256 84 293 96 290 78 -19 79 -18 49 58 -11
28 -20 63 -20 78 0 27 0 27 62 23 90 -5 119 14 160 100 38 78 38 78 150 53
180 -41 386 -177 681 -450 120 -110 179 -154 208 -154 9 0 37 18 62 40 58 52
151 108 199 120 43 12 104 -7 188 -59 l50 -31 0 421 c0 333 -3 419 -12 413 -7
-4 -35 -22 -63 -40 -81 -51 -185 -100 -265 -126 -107 -33 -259 -31 -433 6
-154 33 -206 32 -224 -4 -7 -14 -14 -28 -15 -33 -4 -10 -93 26 -238 96 -63 30
-137 64 -164 76 -44 19 -48 23 -42 48 3 16 9 67 12 115 7 82 5 89 -20 132 -17
30 -66 78 -134 134 -137 112 -202 175 -202 196 0 9 5 16 10 16 6 0 10 7 10 15
0 10 9 14 30 11 20 -2 30 1 30 10 0 21 8 17 41 -18 27 -30 30 -31 35 -13 3 11
13 38 24 60 l18 40 1 -31 c1 -16 7 -38 15 -49 12 -17 13 -17 20 9 7 27 7 28
33 11 l26 -17 -7 47 -7 47 33 -4 c28 -3 33 0 36 20 3 20 8 23 29 17 22 -5 24
-3 18 16 -7 20 -4 21 36 15 l44 -5 -25 22 c-14 13 -32 31 -40 41 -14 18 -14
19 8 7 12 -6 22 -10 22 -9 0 2 -11 35 -25 73 -28 81 -32 125 -10 125 8 0 24
-13 37 -30 13 -19 31 -30 45 -30 34 0 97 35 116 64 15 22 15 26 1 37 -8 7 -23
29 -33 48 -10 20 -39 76 -64 125 -26 49 -50 105 -53 123 -6 33 11 109 27 119
7 4 82 -11 174 -35 22 -6 55 -11 73 -11 65 0 180 77 295 200 55 58 66 74 56
86 -6 8 -17 14 -25 14 -7 0 -18 8 -23 18 -6 9 -11 13 -11 7 0 -6 -3 -6 -8 0
-4 6 -20 19 -35 29 -28 17 -28 18 -9 32 11 7 36 13 55 12 20 -1 42 4 50 10 10
8 17 8 24 1 6 -6 17 -8 23 -4 13 8 7 124 -8 134 -4 3 -8 17 -10 31 -1 14 -13
35 -27 47 -16 14 -20 23 -12 26 8 3 6 11 -7 26 -11 12 -21 30 -23 41 -1 10
-12 35 -23 55 -11 19 -20 49 -20 65 l0 30 -367 0 c-350 0 -370 -1 -401 -20
l-33 -20 -39 20 c-37 19 -58 20 -352 20 l-313 -1 -81 -27z m202 -1578 l25 -17
-22 -23 c-12 -12 -24 -38 -28 -56 -11 -52 -33 -41 -48 26 -14 62 -11 71 22 79
11 3 21 5 23 6 1 0 14 -6 28 -15z"/>
</g>
</svg>
