<?xml version="1.0" standalone="no"?>
<!DOCTYPE svg PUBLIC "-//W3C//DTD SVG 20010904//EN"
 "http://www.w3.org/TR/2001/REC-SVG-20010904/DTD/svg10.dtd">
<svg version="1.0" xmlns="http://www.w3.org/2000/svg"
 width="480.000000pt" height="360.000000pt" viewBox="0 0 480.000000 360.000000"
 preserveAspectRatio="xMidYMid meet">
<metadata>
Created by potrace 1.16, written by Peter Selinger 2001-2019
</metadata>
<rect width="1" height="360" fill="#000000"/>
<rect x="479" width="1" height="360" fill="#000000"/>
<rect width="480" height="1" fill="#000000"/>
<rect y="359" width="480" height="1" fill="#000000"/>
<g transform="translate(0.000000,360.000000) scale(0.100000,-0.100000)"
fill="#000000" stroke="none">
<path d="M1020 1800 l0 -1800 1890 0 1890 0 0 1800 0 1800 -1890 0 -1890 0 0
-1800z m1870 416 c0 -10 11 -12 44 -9 52 6 65 -7 41 -43 -24 -37 -16 -66 21
-76 26 -6 43 -2 89 22 47 25 64 29 98 24 94 -15 139 -40 230 -132 48 -49 87
-92 87 -96 0 -3 -15 -6 -34 -6 -26 0 -46 10 -81 40 -61 53 -86 52 -109 -1 -15
-34 -16 -43 -5 -50 8 -5 19 -9 24 -9 22 0 88 -65 116 -115 19 -34 40 -57 60
-65 21 -9 26 -15 18 -21 -9 -5 -6 -10 12 -14 13 -3 32 -17 42 -31 18 -24 17
-24 -4 -24 -21 0 -21 -1 -6 -18 23 -25 21 -35 -3 -22 -19 10 -20 8 -20 -60 0
-83 -7 -78 145 -105 139 -24 148 -28 150 -53 1 -12 -2 -22 -7 -22 -4 0 -17 -9
-29 -21 l-21 -21 -118 41 c-80 28 -127 40 -144 35 -32 -8 -27 -17 28 -49 73
-43 178 -57 341 -46 214 13 422 -9 408 -45 -3 -9 2 -14 15 -14 15 0 19 -5 15
-21 -8 -28 51 -82 78 -74 14 5 17 2 13 -9 -4 -11 0 -16 12 -16 9 0 14 -3 11
-7 -4 -3 3 -13 15 -21 l21 -15 -22 -9 c-21 -7 -21 -9 -7 -24 18 -17 21 -60 6
-69 -6 -3 -7 -17 -4 -31 4 -17 2 -24 -9 -24 -8 0 -20 -7 -27 -15 -12 -14 -15
-14 -36 0 -25 16 -48 20 -40 7 3 -5 -15 -19 -39 -31 -42 -21 -59 -41 -35 -41
6 0 10 -5 10 -11 0 -7 -7 -8 -17 -4 -10 4 -28 9 -41 10 -13 2 -34 10 -47 19
-41 27 -47 18 -10 -15 57 -51 33 -44 -38 9 -66 51 -110 68 -286 117 -51 14
-124 41 -161 60 -37 19 -76 34 -86 33 -11 -1 -46 3 -78 7 l-59 8 7 -34 c19
-93 19 -119 1 -139 -10 -11 -25 -20 -33 -20 -22 0 -52 30 -52 51 0 28 -19 33
-29 7 -5 -13 -17 -30 -26 -38 -15 -13 -19 -12 -36 9 -11 13 -17 31 -15 40 3 9
6 35 8 59 l3 44 -55 18 c-30 10 -94 21 -142 25 -105 8 -143 30 -133 74 11 52
-18 62 -345 121 -91 17 -176 33 -190 36 -75 17 120 -70 203 -90 29 -7 32 -13
17 -36 -8 -12 -19 -11 -82 9 -40 13 -109 41 -153 63 -130 64 -143 69 -157 54
-38 -37 -88 -24 -88 24 0 26 -5 30 -40 40 -22 5 -58 15 -80 20 -28 8 -44 19
-55 40 -21 41 -19 60 8 60 32 0 185 -29 237 -46 55 -17 159 -40 432 -95 l206
-42 94 80 93 79 3 52 c2 34 -2 59 -12 73 -13 19 -12 28 9 85 29 80 25 134 -10
134 -16 0 -26 10 -38 40 -9 23 -11 42 -6 46 15 9 10 21 -11 27 -11 3 -24 16
-29 29 -5 12 -26 39 -46 58 -49 46 -85 103 -85 135 0 30 19 32 57 8 26 -18 27
-17 18 2 -4 11 -10 35 -13 53 -4 27 -1 32 17 32 12 0 21 -6 21 -14z"/>
<path d="M3330 1540 c0 -5 7 -10 15 -10 8 0 15 5 15 10 0 6 -7 10 -15 10 -8 0
-15 -4 -15 -10z"/>
<path d="M3100 1482 c0 -34 -36 -82 -92 -122 -56 -40 -67 -53 -50 -64 13 -8
164 77 184 105 20 26 20 26 -4 63 -25 39 -38 46 -38 18z"/>
</g>
</svg>
