<?xml version="1.0" standalone="no"?>
<!DOCTYPE svg PUBLIC "-//W3C//DTD SVG 20010904//EN"
 "http://www.w3.org/TR/2001/REC-SVG-20010904/DTD/svg10.dtd">
<svg version="1.0" xmlns="http://www.w3.org/2000/svg"
 width="480.000000pt" height="360.000000pt" viewBox="0 0 480.000000 360.000000"
 preserveAspectRatio="xMidYMid meet">
<metadata>
Created by potrace 1.16, written by Peter Selinger 2001-2019
</metadata>
<rect width="1" height="360" fill="#000000"/>
<rect x="479" width="1" height="360" fill="#000000"/>
<rect width="480" height="1" fill="#000000"/>
<rect y="359" width="480" height="1" fill="#000000"/>
<g transform="translate(0.000000,360.000000) scale(0.100000,-0.100000)"
fill="#000000" stroke="none">
<path d="M0 1800 l0 -1800 466 0 c280 0 463 4 460 9 -9 14 41 146 92 243 25
48 90 145 145 215 161 208 152 183 161 408 4 100 3 107 -9 75 -12 -31 -14 -32
-14 -10 -1 14 4 101 9 193 7 113 7 180 0 205 -26 99 -52 548 -52 906 0 244 4
285 32 326 10 14 30 50 45 80 15 30 43 74 61 97 19 23 30 44 25 47 -5 3 -12
21 -15 41 -4 19 -18 48 -32 64 -21 25 -35 31 -85 37 -60 7 -79 21 -79 58 0 21
51 52 116 71 28 8 77 30 109 49 31 20 62 37 69 39 21 8 -1 18 -95 43 -119 33
-217 84 -269 140 -65 71 -36 81 115 39 50 -14 96 -25 102 -25 7 0 -14 36 -46
79 -32 44 -67 100 -76 125 l-18 46 -608 0 -609 0 0 -1800z"/>
<path d="M1397 3520 c44 -44 100 -109 124 -145 23 -36 46 -65 49 -65 4 0 10
37 13 83 3 45 15 110 25 145 l20 62 -156 0 -156 0 81 -80z"/>
<path d="M1727 3503 c-4 -54 -10 -111 -13 -127 l-7 -29 54 40 c81 61 184 123
203 123 28 0 18 -44 -23 -106 -46 -68 -105 -120 -198 -175 -66 -38 -66 -38
-39 -49 15 -5 36 -10 46 -10 10 0 31 -5 47 -11 15 -6 66 -11 113 -10 47 0 91
-3 97 -7 16 -10 21 -64 8 -69 -6 -2 -32 -16 -59 -31 -57 -31 -71 -61 -61 -128
6 -39 11 -47 48 -65 64 -33 205 -165 231 -218 13 -25 31 -81 41 -123 15 -67
15 -91 5 -188 -6 -61 -15 -123 -19 -138 -5 -15 -2 -60 5 -102 7 -41 19 -144
25 -228 7 -85 16 -146 20 -135 4 10 19 29 34 43 25 23 33 25 113 23 83 -3 87
-4 122 -38 l36 -35 12 127 c6 71 19 170 27 221 13 73 14 103 6 143 -16 75 -13
182 8 294 24 123 33 149 76 201 l34 41 -27 69 c-25 64 -27 79 -27 229 1 148 3
166 28 238 29 84 102 233 119 243 6 4 8 -1 5 -12 -38 -127 -67 -299 -67 -390
0 -94 46 -294 68 -294 3 0 25 9 48 20 181 88 421 45 542 -97 24 -28 43 -42 53
-38 24 10 102 111 141 182 43 78 45 87 19 78 -20 -6 -64 41 -111 118 -19 33
-21 41 -9 52 24 23 83 33 134 24 26 -5 51 -6 56 -3 14 8 28 73 35 162 4 45 10
85 15 87 8 5 27 -72 35 -145 11 -91 7 -87 72 -82 57 4 61 3 101 -33 22 -21 41
-43 41 -51 0 -18 -108 -119 -128 -119 -9 0 -27 20 -42 44 -14 25 -30 46 -35
48 -6 2 -16 -26 -23 -62 -25 -134 -90 -257 -195 -370 l-55 -59 16 -31 c40 -74
18 -818 -35 -1165 -12 -82 -14 -144 -9 -288 5 -126 3 -182 -4 -177 -7 4 -10
-34 -10 -115 0 -133 10 -166 82 -259 29 -37 43 -46 108 -66 41 -13 95 -30 120
-38 25 -8 79 -24 122 -36 42 -12 107 -39 145 -60 99 -57 236 -196 294 -298
l24 -43 218 0 217 0 0 1800 0 1800 -1534 0 -1533 0 -6 -97z"/>
<path d="M2622 2250 c0 -19 2 -27 5 -17 2 9 2 25 0 35 -3 9 -5 1 -5 -18z"/>
<path d="M2251 1585 l1 -60 14 45 c12 39 12 46 -1 59 -13 14 -15 9 -14 -44z"/>
<path d="M2538 1624 c-5 -4 -8 -23 -8 -43 1 -30 2 -33 11 -18 11 19 8 73 -3
61z"/>
<path d="M2370 1125 c-19 -43 -33 -92 -45 -148 -3 -16 -23 -47 -44 -70 l-38
-42 3 -275 4 -275 -24 105 c-37 161 -47 175 -42 55 3 -55 8 -135 12 -177 5
-51 3 -78 -3 -78 -6 0 -13 8 -16 17 -20 67 -99 288 -104 292 -3 3 -3 -16 0
-44 3 -27 1 -81 -4 -120 -11 -74 -55 -205 -69 -205 -5 0 -8 60 -8 132 1 78 -3
143 -10 158 l-11 25 0 -26 c-1 -15 -7 -32 -15 -38 -8 -7 -18 -26 -21 -42 -7
-30 -20 -38 -28 -16 -2 6 -8 9 -12 5 -10 -9 8 -102 47 -245 l30 -113 449 0
c353 0 449 3 449 13 0 6 7 81 16 166 16 163 14 192 -11 171 -18 -15 -19 -12
-35 75 -6 33 -14 69 -17 80 -13 43 -24 -31 -30 -192 -4 -96 -10 -160 -15 -155
-5 5 -21 42 -35 83 -23 63 -27 91 -27 190 l-1 116 -53 -156 c-30 -86 -58 -160
-63 -166 -12 -12 -11 68 1 219 6 66 8 121 6 123 -6 6 -56 -160 -56 -186 0 -12
-5 -21 -12 -21 -8 0 -9 61 -4 240 3 132 9 247 12 255 4 10 -9 32 -35 60 -22
24 -43 55 -46 69 -3 14 -7 38 -10 54 -9 43 -46 132 -57 132 -5 0 -17 -20 -28
-45z"/>
<path d="M1356 853 c-4 -21 -10 -49 -13 -62 -4 -15 -2 -22 5 -17 11 6 28 104
19 112 -2 3 -8 -12 -11 -33z"/>
<path d="M3430 791 c0 -11 4 -22 9 -25 4 -3 6 6 3 19 -5 30 -12 33 -12 6z"/>
<path d="M1003 3 c37 -2 96 -2 130 0 34 2 4 3 -68 3 -71 0 -99 -1 -62 -3z"/>
</g>
</svg>
