<?xml version="1.0" standalone="no"?>
<!DOCTYPE svg PUBLIC "-//W3C//DTD SVG 20010904//EN"
 "http://www.w3.org/TR/2001/REC-SVG-20010904/DTD/svg10.dtd">
<svg version="1.0" xmlns="http://www.w3.org/2000/svg"
 width="480.000000pt" height="360.000000pt" viewBox="0 0 480.000000 360.000000"
 preserveAspectRatio="xMidYMid meet">
<metadata>
Created by potrace 1.16, written by Peter Selinger 2001-2019
</metadata>
<rect width="1" height="360" fill="#000000"/>
<rect x="479" width="1" height="360" fill="#000000"/>
<rect width="480" height="1" fill="#000000"/>
<rect y="359" width="480" height="1" fill="#000000"/>
<g transform="translate(0.000000,360.000000) scale(0.100000,-0.100000)"
fill="#000000" stroke="none">
<path d="M1481 2881 c-50 -17 -55 -18 -82 -2 -27 15 -29 15 -58 -13 -24 -23
-28 -32 -19 -46 9 -14 6 -33 -10 -84 -15 -44 -19 -72 -13 -84 5 -9 15 -30 22
-47 18 -40 39 -65 56 -65 8 0 11 5 8 10 -3 6 1 10 9 10 21 0 20 -23 -3 -51
-18 -23 -18 -23 20 -73 21 -28 45 -59 54 -68 20 -23 19 -28 -4 -28 -11 0 -29
-14 -41 -30 -21 -29 -21 -32 -5 -56 18 -28 14 -54 -9 -54 -16 0 -116 -106
-116 -122 0 -6 -11 -26 -25 -44 -51 -66 -42 -136 23 -174 l35 -21 -6 -94 c-5
-94 -25 -149 -76 -208 -11 -13 -12 -22 -5 -35 8 -12 1 -44 -28 -130 -21 -62
-36 -117 -34 -121 3 -4 -1 -17 -9 -27 -17 -22 -20 -70 -4 -79 6 -4 8 -14 5
-22 -4 -8 -20 -119 -36 -246 -17 -128 -37 -272 -45 -322 -8 -49 -21 -171 -30
-270 -8 -99 -17 -204 -21 -232 l-5 -53 496 0 c273 0 494 4 491 8 -6 11 -61
374 -86 572 -23 187 -72 397 -134 580 -23 69 -46 133 -50 142 -6 13 -3 15 15
11 17 -5 10 8 -34 61 -32 36 -57 69 -57 72 0 3 20 34 46 69 25 35 48 79 51 98
3 19 0 83 -7 143 -11 106 -11 109 10 123 21 14 21 14 1 35 -19 21 -19 22 2 82
l20 62 -37 113 c-40 127 -41 131 -23 127 6 -1 22 3 35 10 19 11 23 10 28 -3
11 -27 24 -16 24 21 0 41 31 89 47 73 12 -12 16 -7 32 43 8 25 17 35 27 31 8
-3 14 -1 14 4 0 20 -40 126 -59 157 -12 18 -18 41 -15 53 6 20 -9 40 -119 162
-12 13 -36 30 -54 38 -45 18 -148 16 -212 -6z"/>
<path d="M3238 2154 c-3 -3 -31 -12 -61 -20 -73 -19 -174 -69 -187 -93 -18
-35 -12 -78 15 -99 15 -12 26 -33 30 -58 5 -39 5 -39 -65 -87 -39 -26 -83 -66
-98 -87 -15 -22 -32 -39 -38 -40 -12 0 -147 91 -180 121 -27 26 -42 24 -56 -6
-12 -26 -32 -33 -43 -15 -11 17 -30 11 -40 -12 -9 -20 -16 -23 -60 -20 -27 2
-62 5 -77 8 -43 8 -35 -17 15 -48 23 -15 65 -30 93 -33 71 -10 76 -14 62 -53
-16 -41 -11 -45 85 -62 92 -16 246 -79 418 -169 163 -85 175 -96 162 -148 -8
-33 -5 -44 24 -92 18 -30 42 -80 54 -110 20 -54 20 -58 4 -109 -9 -29 -13 -57
-9 -63 3 -6 -8 -41 -24 -77 -17 -37 -54 -150 -82 -252 -28 -102 -64 -223 -80
-269 -26 -74 -28 -87 -16 -105 16 -25 90 -52 166 -61 84 -10 88 -12 95 -55 l7
-40 134 0 134 0 11 45 c11 43 13 44 58 51 25 3 61 13 80 20 37 15 37 20 6 104
-9 24 -27 131 -41 238 -13 106 -32 227 -41 270 -9 42 -16 91 -15 107 1 17 -7
71 -18 120 -11 50 -29 142 -40 205 -12 63 -28 125 -36 138 -22 33 -7 47 111
102 128 60 275 106 390 121 74 9 94 16 113 36 12 14 38 29 56 34 41 11 86 45
86 64 0 24 -42 39 -102 36 -57 -2 -81 10 -59 32 6 6 11 18 11 26 0 12 -3 11
-18 -2 -24 -22 -35 -21 -57 3 -10 11 -23 20 -28 20 -6 0 -45 -22 -87 -49 -42
-28 -108 -65 -146 -84 -90 -43 -222 -115 -256 -139 -14 -10 -28 -18 -30 -18
-1 0 -2 20 -1 44 1 27 -4 49 -12 56 -22 19 -6 43 57 85 80 53 138 125 138 172
0 45 -39 96 -96 123 -48 24 -145 31 -225 17 -46 -8 -47 -7 -67 25 -16 25 -19
44 -15 74 5 36 2 43 -22 62 -26 21 -74 29 -87 16z"/>
</g>
</svg>
