<?xml version="1.0" standalone="no"?>
<!DOCTYPE svg PUBLIC "-//W3C//DTD SVG 20010904//EN"
 "http://www.w3.org/TR/2001/REC-SVG-20010904/DTD/svg10.dtd">
<svg version="1.0" xmlns="http://www.w3.org/2000/svg"
 width="480.000000pt" height="360.000000pt" viewBox="0 0 480.000000 360.000000"
 preserveAspectRatio="xMidYMid meet">
<metadata>
Created by potrace 1.16, written by Peter Selinger 2001-2019
</metadata>
<rect width="1" height="360" fill="#000000"/>
<rect x="479" width="1" height="360" fill="#000000"/>
<rect width="480" height="1" fill="#000000"/>
<rect y="359" width="480" height="1" fill="#000000"/>
<g transform="translate(0.000000,360.000000) scale(0.100000,-0.100000)"
fill="#000000" stroke="none">
<path d="M2020 3088 c-45 -23 -73 -62 -85 -120 -3 -15 -14 -29 -24 -33 -30 -9
-56 -89 -54 -163 2 -72 26 -121 93 -189 43 -44 60 -47 60 -11 0 16 3 18 14 9
8 -6 20 -10 27 -9 8 2 15 -7 17 -18 2 -16 -8 -28 -42 -48 -41 -24 -47 -32 -66
-95 -31 -105 -25 -177 15 -187 36 -9 55 -73 65 -226 5 -76 15 -147 22 -157 23
-37 -31 -323 -87 -454 -11 -26 -25 -42 -45 -49 -20 -7 -43 -32 -75 -81 -25
-39 -45 -74 -45 -77 0 -4 8 -18 18 -31 19 -24 18 -26 -13 -121 l-32 -98 33
-25 c52 -40 171 -85 264 -101 47 -8 89 -19 95 -25 5 -5 11 -38 11 -72 1 -34 9
-100 17 -147 25 -141 22 -192 -18 -276 -40 -83 -41 -91 -19 -122 12 -17 25
-22 58 -22 65 0 101 17 142 67 l37 45 -5 107 c-3 59 -11 117 -17 130 -7 12
-14 61 -17 109 -3 48 -13 106 -21 130 -19 51 -10 66 32 53 129 -40 181 -45
218 -23 40 24 117 49 182 58 41 6 64 19 133 73 70 55 89 76 113 126 15 33 44
85 62 116 32 52 34 58 22 92 -7 20 -24 50 -39 67 -14 17 -26 37 -26 44 0 13
-97 110 -151 148 -19 15 -51 33 -70 41 -19 9 -46 26 -61 39 -43 37 -150 187
-196 273 -23 44 -49 90 -58 102 -15 21 -14 22 28 41 83 36 138 130 123 211 -4
20 -17 54 -30 76 -16 28 -21 50 -18 73 7 43 -67 162 -101 162 -15 0 -31 16
-54 55 -18 30 -42 60 -53 65 -14 8 -19 21 -19 50 0 22 2 40 5 40 3 0 21 -17
40 -39 19 -21 45 -41 57 -44 20 -6 21 -4 16 104 -5 94 -10 117 -34 165 -32 64
-60 89 -115 106 -24 7 -49 24 -65 45 -36 48 -72 63 -151 63 -51 0 -80 -6 -113
-22z"/>
<path d="M2190 400 c0 -5 5 -10 10 -10 6 0 10 5 10 10 0 6 -4 10 -10 10 -5 0
-10 -4 -10 -10z"/>
</g>
</svg>
