<?xml version="1.0" standalone="no"?>
<!DOCTYPE svg PUBLIC "-//W3C//DTD SVG 20010904//EN"
 "http://www.w3.org/TR/2001/REC-SVG-20010904/DTD/svg10.dtd">
<svg version="1.0" xmlns="http://www.w3.org/2000/svg"
 width="480.000000pt" height="360.000000pt" viewBox="0 0 480.000000 360.000000"
 preserveAspectRatio="xMidYMid meet">
<metadata>
Created by potrace 1.16, written by Peter Selinger 2001-2019
</metadata>
<rect width="1" height="360" fill="#000000"/>
<rect x="479" width="1" height="360" fill="#000000"/>
<rect width="480" height="1" fill="#000000"/>
<rect y="359" width="480" height="1" fill="#000000"/>
<g transform="translate(0.000000,360.000000) scale(0.100000,-0.100000)"
fill="#000000" stroke="none">
<path d="M1087 3578 c-2 -13 -32 -129 -65 -258 -170 -661 -234 -1197 -221
-1855 10 -485 71 -945 186 -1402 l15 -63 1848 0 1847 0 18 63 c9 34 32 107 51
161 l34 99 0 1639 0 1638 -1854 0 -1854 0 -5 -22z"/>
<path d="M1 513 l-1 -513 210 0 210 0 -64 128 c-123 244 -217 478 -325 807
l-29 90 -1 -512z"/>
</g>
</svg>
