<?xml version="1.0" standalone="no"?>
<!DOCTYPE svg PUBLIC "-//W3C//DTD SVG 20010904//EN"
 "http://www.w3.org/TR/2001/REC-SVG-20010904/DTD/svg10.dtd">
<svg version="1.0" xmlns="http://www.w3.org/2000/svg"
 width="480.000000pt" height="360.000000pt" viewBox="0 0 480.000000 360.000000"
 preserveAspectRatio="xMidYMid meet">
<metadata>
Created by potrace 1.16, written by Peter Selinger 2001-2019
</metadata>
<rect width="1" height="360" fill="#000000"/>
<rect x="479" width="1" height="360" fill="#000000"/>
<rect width="480" height="1" fill="#000000"/>
<rect y="359" width="480" height="1" fill="#000000"/>
<g transform="translate(0.000000,360.000000) scale(0.100000,-0.100000)"
fill="#000000" stroke="none">
<path d="M0 2175 l0 -1425 114 0 113 0 6 68 c11 115 8 230 -6 235 -8 3 -2 25
23 73 32 64 38 69 70 72 19 1 49 10 66 19 28 14 32 22 37 71 3 31 1 64 -4 74
-13 24 1 43 39 53 15 4 33 11 39 17 16 13 17 65 1 70 -13 5 20 57 37 58 14 0
35 -49 24 -56 -15 -9 -10 -71 6 -87 8 -9 28 -18 45 -22 29 -6 40 -28 20 -40
-6 -3 -10 -32 -10 -64 0 -52 3 -61 26 -75 14 -10 44 -20 67 -24 40 -7 43 -10
70 -76 18 -43 25 -71 19 -75 -6 -4 -14 -68 -18 -144 l-7 -137 42 0 41 0 0 95
0 95 52 85 c29 47 56 85 60 85 4 0 30 -39 57 -86 48 -81 51 -90 51 -154 0 -38
4 -71 8 -74 4 -2 154 -12 331 -21 l324 -16 71 -65 71 -65 6 88 c4 48 4 133 2
188 l-5 100 48 72 c26 40 53 73 59 73 5 0 31 -33 58 -73 l47 -73 -5 -195 c-3
-107 -7 -335 -10 -506 l-5 -313 1360 0 1360 0 0 1800 0 1800 -2400 0 -2400 0
0 -1425z m3125 609 c25 -10 45 -59 49 -117 6 -95 11 -100 125 -127 55 -13 106
-27 113 -31 20 -12 -40 -69 -72 -69 -15 0 -29 -3 -33 -6 -7 -7 16 -47 47 -81
l19 -23 -42 0 c-34 0 -42 -3 -37 -15 3 -10 -1 -15 -13 -15 -14 0 -17 -6 -14
-23 4 -18 0 -23 -14 -22 -10 0 -23 4 -29 8 -7 4 -9 -11 -6 -47 3 -33 0 -56 -7
-60 -6 -4 -11 -11 -11 -16 0 -5 21 4 47 20 48 31 143 70 168 70 19 0 11 -47
-20 -117 -13 -29 -21 -54 -17 -57 4 -2 36 -2 72 1 115 7 220 8 220 3 0 -3 -14
-14 -31 -24 -36 -21 -29 -30 40 -48 40 -10 42 -12 26 -24 -21 -16 -18 -18 62
-38 l48 -13 -32 -7 c-45 -10 -48 -21 -10 -37 17 -7 40 -21 50 -30 18 -16 17
-17 -18 -17 -55 0 -65 -16 -29 -47 24 -21 26 -25 10 -25 -16 0 -17 -2 -5 -17
13 -15 11 -16 -21 -10 -32 5 -33 5 -10 -6 35 -15 36 -17 21 -26 -21 -14 -4
-30 45 -42 24 -6 44 -16 44 -21 0 -6 -9 -8 -20 -5 -13 3 -20 0 -20 -8 0 -12
-6 -11 -35 1 -45 18 -56 18 -48 -3 4 -11 3 -14 -5 -9 -7 4 -12 2 -12 -3 0 -6
12 -11 28 -12 15 0 36 -4 47 -9 15 -6 8 -9 -28 -9 -56 -1 -86 -21 -61 -41 23
-20 11 -22 -29 -5 -49 20 -50 20 -32 -15 22 -43 19 -45 -20 -11 -20 18 -47 31
-62 31 -23 0 -25 -3 -20 -27 3 -16 -1 -39 -8 -53 -11 -19 -14 -21 -15 -7 0 9
-4 17 -10 17 -5 0 -10 8 -10 19 0 13 -15 24 -52 39 -29 11 -61 23 -70 27 -16
6 -18 1 -18 -41 0 -55 -28 -94 -67 -94 -31 0 -50 33 -63 111 -13 74 -15 78
-52 102 -47 29 -56 23 -78 -55 -30 -104 -37 -118 -58 -118 -29 0 -51 32 -58
83 -5 36 -11 47 -25 47 -10 0 -21 5 -24 10 -10 16 -25 12 -25 -7 0 -12 -16 -2
-51 32 -28 28 -53 46 -55 40 -18 -44 -50 -42 -39 2 4 19 1 26 -15 30 -21 6
-36 43 -26 68 3 9 18 15 35 15 17 0 35 6 40 13 54 66 78 88 116 106 25 12 45
27 45 34 0 6 6 24 14 39 19 36 3 101 -30 123 -13 8 -24 24 -24 35 0 11 -7 40
-16 66 -15 43 -14 50 2 85 19 43 16 133 -7 183 -13 27 -15 28 -67 22 -30 -4
-63 -11 -73 -17 -15 -7 -19 -6 -19 5 0 8 -8 19 -17 25 -15 8 -7 15 50 42 l68
31 -33 30 c-31 27 -31 28 -8 22 14 -3 31 -10 38 -14 8 -3 31 2 52 12 29 14 45
33 65 73 43 88 104 124 170 99z"/>
<path d="M2889 1781 c-19 -16 -20 -20 -8 -21 17 0 45 27 37 35 -3 3 -16 -3
-29 -14z"/>
<path d="M2905 1630 c-3 -5 -1 -10 4 -10 6 0 11 5 11 10 0 6 -2 10 -4 10 -3 0
-8 -4 -11 -10z"/>
<path d="M3632 1578 c3 -7 15 -14 29 -16 23 -2 23 -2 5 13 -24 18 -39 20 -34
3z"/>
</g>
</svg>
