<?xml version="1.0" standalone="no"?>
<!DOCTYPE svg PUBLIC "-//W3C//DTD SVG 20010904//EN"
 "http://www.w3.org/TR/2001/REC-SVG-20010904/DTD/svg10.dtd">
<svg version="1.0" xmlns="http://www.w3.org/2000/svg"
 width="480.000000pt" height="360.000000pt" viewBox="0 0 480.000000 360.000000"
 preserveAspectRatio="xMidYMid meet">
<metadata>
Created by potrace 1.16, written by Peter Selinger 2001-2019
</metadata>
<rect width="1" height="360" fill="#000000"/>
<rect x="479" width="1" height="360" fill="#000000"/>
<rect width="480" height="1" fill="#000000"/>
<rect y="359" width="480" height="1" fill="#000000"/>
<g transform="translate(0.000000,360.000000) scale(0.100000,-0.100000)"
fill="#000000" stroke="none">
<path d="M2590 3019 c0 -5 -5 -7 -10 -4 -10 6 -8 -13 6 -67 6 -20 -52 -148
-67 -148 -6 0 -18 -7 -27 -16 -15 -15 -13 -19 17 -46 32 -29 33 -30 26 -90 -4
-34 -14 -76 -21 -94 -18 -42 -17 -47 1 -41 24 10 28 -11 5 -30 -11 -10 -20
-26 -20 -36 0 -23 59 -137 71 -137 5 0 18 -9 29 -20 23 -23 27 -84 8 -125 -9
-20 -8 -31 2 -50 12 -22 11 -30 -10 -68 -14 -23 -37 -100 -52 -172 -15 -71
-35 -161 -44 -200 -20 -91 -15 -175 14 -215 27 -36 27 -46 2 -101 -11 -24 -20
-62 -20 -84 0 -22 -5 -56 -11 -75 -6 -19 -12 -51 -13 -70 -1 -19 -8 -69 -16
-111 -15 -86 -12 -103 27 -126 16 -8 41 -36 57 -61 24 -37 27 -48 18 -63 -7
-10 -12 -27 -12 -38 0 -28 39 -71 64 -71 12 0 31 -7 42 -15 11 -9 42 -14 78
-15 33 0 73 -4 90 -9 59 -18 281 -50 309 -44 l28 6 -27 28 -27 28 37 37 c20
20 36 40 36 45 0 10 -65 29 -100 29 -14 0 -52 8 -85 18 -78 23 -86 49 -24 78
77 34 100 82 58 120 -16 15 -40 20 -103 22 -60 3 -84 8 -93 20 -16 20 -17 68
-2 78 6 3 9 22 7 43 -3 20 4 68 14 106 9 39 18 98 18 133 0 45 4 62 13 62 22
0 110 48 139 75 23 22 26 31 21 63 -4 20 -22 60 -41 89 -27 41 -43 86 -72 207
-21 84 -46 166 -56 181 -17 26 -17 30 -1 74 21 59 37 159 30 192 -7 40 40 45
123 14 84 -32 111 -32 125 -1 9 19 7 29 -6 50 -10 14 -21 26 -26 26 -5 0 -3
12 4 28 7 15 12 36 9 46 -4 19 -3 19 19 5 13 -9 35 -32 48 -52 13 -21 30 -37
37 -37 20 0 50 37 64 79 26 81 -16 156 -63 113 -60 -54 -138 -58 -157 -7 -16
42 -100 42 -100 1 0 -7 -15 -13 -32 -14 -104 -4 -121 -3 -131 7 -8 8 -8 11 1
11 7 0 9 15 5 50 -4 31 -2 50 4 50 6 0 16 14 23 30 11 26 10 36 -5 64 -17 32
-17 69 0 110 7 16 5 18 -25 11 -44 -10 -161 46 -178 84 -12 28 -52 59 -52 40z
m275 -489 c7 -11 -9 -11 -45 0 -24 8 -24 8 7 9 17 1 35 -3 38 -9z m74 -11 c17
-6 31 -17 31 -25 0 -19 -26 -18 -34 1 -3 8 -12 15 -21 15 -8 0 -15 5 -15 10 0
12 0 12 39 -1z m171 -70 c0 -5 -4 -9 -10 -9 -5 0 -10 7 -10 16 0 8 5 12 10 9
6 -3 10 -10 10 -16z m-344 -1156 c-7 -141 -21 -272 -31 -295 -8 -20 -132 -45
-148 -29 -15 15 -34 132 -26 161 4 14 12 47 18 73 6 27 25 84 42 128 l30 79
61 0 60 0 -6 -117z m291 -589 c2 -6 -7 -18 -19 -26 -27 -17 -144 -32 -152 -19
-3 5 3 20 14 34 18 23 26 25 87 24 38 -1 68 -7 70 -13z"/>
<path d="M1240 2925 c-7 -8 -17 -12 -23 -8 -6 4 -8 -3 -3 -20 3 -14 2 -29 -4
-32 -5 -3 -10 -14 -10 -23 0 -10 -31 -40 -71 -70 -57 -42 -74 -50 -89 -42 -30
16 -34 -6 -11 -55 19 -40 19 -47 6 -79 -20 -48 -19 -56 15 -92 16 -18 32 -45
35 -60 10 -43 26 -83 34 -82 3 1 14 -2 24 -7 23 -10 4 -35 -27 -35 -46 -1 -63
-29 -81 -133 -9 -54 -18 -104 -21 -112 -3 -7 -33 -25 -67 -39 -34 -15 -87 -39
-117 -55 -36 -19 -79 -32 -120 -36 -38 -4 -76 -15 -92 -26 -34 -23 -36 -23
-92 0 -29 13 -50 31 -61 50 -12 24 -22 31 -44 31 -34 0 -346 -58 -378 -71 -26
-10 -30 -49 -10 -87 12 -21 237 -130 789 -383 109 -50 153 -58 204 -39 41 16
45 1 16 -58 -24 -49 -25 -55 -10 -63 16 -9 16 -13 2 -52 -8 -23 -16 -64 -16
-91 l-1 -49 96 -93 c53 -50 97 -98 97 -105 0 -8 14 -26 31 -40 29 -24 30 -27
14 -40 -9 -8 -29 -26 -43 -40 -15 -14 -39 -33 -54 -42 -16 -10 -28 -26 -28
-38 0 -11 -7 -22 -15 -25 -19 -8 -19 -23 1 -45 14 -16 12 -20 -33 -50 -26 -18
-53 -39 -58 -47 -6 -7 -40 -22 -75 -32 -36 -11 -83 -26 -105 -34 -76 -29 -92
-23 -231 74 -71 49 -134 90 -141 90 -16 0 -196 -61 -303 -103 -54 -21 -85 -39
-85 -48 0 -19 82 -90 448 -386 l117 -95 357 1 c197 1 359 4 361 5 2 2 -41 34
-94 71 -54 37 -102 71 -108 76 -6 5 -22 18 -36 28 -37 29 -17 37 45 17 45 -14
65 -15 110 -7 60 11 73 17 140 62 44 30 75 72 75 104 0 9 22 25 53 39 69 30
129 83 125 109 -3 21 -102 81 -151 92 -40 10 -79 98 -70 160 3 25 1 50 -4 57
-6 7 -16 45 -22 83 -7 42 -26 100 -48 144 l-37 73 22 42 c54 100 59 106 100
106 49 0 156 54 183 92 25 35 21 48 -42 154 -27 45 -69 124 -93 176 -25 52
-59 108 -76 124 -46 42 -55 63 -36 77 15 11 15 16 0 60 -21 62 -15 138 16 199
25 52 27 45 -34 122 -23 30 -26 39 -16 51 7 8 18 15 25 15 17 0 35 45 35 91 0
22 -9 67 -21 101 l-20 61 25 26 c31 32 32 41 9 41 -10 0 -25 6 -33 13 -25 20
-70 96 -61 101 24 15 18 49 -13 84 -19 20 -36 47 -40 60 -9 26 -19 28 -36 7z
m-149 -986 c23 -45 16 -59 -28 -59 -13 0 -23 -3 -23 -8 0 -4 -17 -16 -37 -27
-27 -15 -56 -20 -112 -20 -42 0 -81 -3 -86 -7 -6 -3 -21 0 -35 8 -17 9 -20 13
-9 14 9 0 22 6 28 14 7 8 27 18 44 22 28 6 177 70 217 94 8 5 16 9 17 9 2 1
12 -18 24 -40z m-372 -50 c33 -12 36 -16 22 -37 -6 -11 -16 -10 -49 4 -41 16
-49 24 -35 37 9 10 25 9 62 -4z m358 -140 c23 5 44 6 47 4 7 -8 -10 -58 -20
-56 -5 1 -42 15 -82 30 -71 27 -72 28 -40 33 19 3 37 0 43 -7 7 -8 23 -9 52
-4z m155 -529 c-1 -14 -5 -46 -8 -72 l-6 -47 -39 26 c-22 14 -39 27 -39 30 0
6 32 56 49 76 21 25 47 17 43 -13z m128 -534 c0 -17 -35 -30 -51 -20 -8 4 -3
11 12 20 31 17 39 17 39 0z m-295 -213 c8 -10 24 -28 35 -40 29 -33 25 -67
-19 -153 -13 -26 -51 -23 -94 7 -178 119 -184 135 -63 170 43 12 81 25 84 28
11 11 43 4 57 -12z"/>
<path d="M4140 2915 c0 -3 5 -14 12 -24 15 -24 4 -51 -21 -51 -11 0 -26 -11
-33 -24 -7 -13 -41 -47 -76 -75 -51 -43 -66 -50 -78 -41 -10 9 -14 9 -14 1 0
-6 -6 -11 -14 -11 -27 0 -24 -28 6 -69 30 -41 30 -42 14 -81 -9 -22 -16 -56
-16 -74 0 -40 26 -106 48 -122 27 -20 3 -35 -51 -32 -50 3 -52 2 -55 -25 -2
-18 -12 -32 -27 -39 -13 -6 -31 -27 -42 -46 -10 -20 -30 -50 -44 -66 l-27 -29
-46 26 c-73 40 -100 43 -125 11 -27 -35 -27 -63 4 -104 13 -18 22 -36 20 -40
-7 -11 41 -21 68 -15 12 4 34 2 49 -4 33 -12 65 4 134 69 29 28 59 50 67 50
35 0 71 -82 61 -137 -5 -25 -2 -39 11 -53 17 -18 16 -21 -24 -61 -23 -22 -67
-80 -98 -127 -35 -56 -92 -123 -160 -189 -97 -96 -104 -105 -98 -133 4 -17 24
-44 47 -65 39 -33 155 -85 190 -85 12 0 19 -12 24 -45 7 -51 7 -53 -41 -119
-19 -26 -42 -74 -51 -105 -8 -31 -24 -72 -35 -92 -10 -20 -19 -50 -19 -66 0
-16 -5 -34 -11 -40 -5 -5 -13 -35 -16 -66 -5 -45 -10 -57 -29 -66 -34 -15 -32
-60 4 -93 56 -52 62 -55 240 -84 44 -7 41 -31 -5 -40 -21 -4 -41 -11 -44 -15
-3 -5 -32 -14 -65 -20 -81 -15 -95 -23 -138 -80 -58 -78 -48 -135 29 -165 38
-14 50 -15 72 -5 l27 12 -32 25 c-18 14 -32 33 -32 43 0 22 57 109 79 120 9 4
59 9 111 10 l95 2 20 -38 c15 -29 36 -47 87 -73 44 -23 68 -41 68 -52 0 -10
11 -25 24 -33 13 -9 26 -25 29 -35 6 -22 38 -37 115 -52 37 -8 63 -21 83 -41
24 -23 41 -30 82 -33 33 -3 59 0 70 8 16 12 14 19 -33 91 -27 42 -50 81 -50
85 0 4 -16 23 -35 42 -19 19 -35 42 -35 51 0 10 -5 21 -11 24 -6 4 -8 14 -4
22 3 10 -9 29 -34 53 -23 22 -51 64 -65 98 -14 33 -35 75 -46 95 -11 19 -23
46 -25 58 -3 13 -8 38 -11 56 -3 18 -12 37 -20 44 -20 17 -29 77 -14 104 7 13
10 35 6 49 -4 15 1 54 9 87 13 47 15 85 9 164 -4 66 -2 120 5 151 6 27 13 69
15 94 2 25 11 113 21 195 14 123 15 159 5 201 -11 43 -10 55 3 75 9 14 18 58
21 105 5 68 23 154 25 118 1 -14 45 -34 76 -34 13 0 37 -11 53 -25 35 -29 39
-30 58 -11 11 12 20 12 44 3 41 -15 53 3 34 49 -8 18 -14 44 -14 57 0 35 -40
67 -82 67 -32 0 -37 4 -43 29 -4 21 -15 33 -36 40 -16 5 -29 16 -29 24 0 8
-18 21 -40 30 -22 8 -40 19 -40 24 1 12 230 134 264 140 59 10 61 12 36 38
-13 14 -28 25 -33 25 -6 0 -42 -19 -81 -41 -99 -58 -173 -99 -179 -99 -2 0 2
23 9 50 11 42 11 58 -1 97 -13 44 -13 47 11 82 24 35 31 62 17 60 -24 -4 -40
7 -98 67 -62 62 -64 67 -50 87 18 26 19 59 3 75 -12 12 -38 17 -38 7z m380
-425 c-8 -5 -19 -10 -25 -10 -5 0 -3 5 5 10 8 5 20 10 25 10 6 0 3 -5 -5 -10z
m-60 -34 c0 -2 -7 -7 -16 -10 -8 -3 -12 -2 -9 4 6 10 25 14 25 6z m-412 -1255
c31 -16 44 -107 39 -261 -3 -98 -8 -144 -20 -166 l-16 -31 -113 -6 c-63 -3
-121 -9 -131 -13 -12 -4 -20 2 -28 19 -10 22 -8 30 10 53 11 15 21 35 21 46 0
21 22 61 107 197 29 46 53 94 53 107 0 12 4 34 10 48 10 26 29 28 68 7z m410
-1150 c3 -8 -1 -12 -9 -9 -7 2 -15 10 -17 17 -3 8 1 12 9 9 7 -2 15 -10 17
-17z"/>
<path d="M3232 531 c28 -36 56 -39 88 -8 l25 22 -45 7 c-25 3 -55 7 -68 7
l-24 1 24 -29z"/>
</g>
</svg>
