<?xml version="1.0" standalone="no"?>
<!DOCTYPE svg PUBLIC "-//W3C//DTD SVG 20010904//EN"
 "http://www.w3.org/TR/2001/REC-SVG-20010904/DTD/svg10.dtd">
<svg version="1.0" xmlns="http://www.w3.org/2000/svg"
 width="480.000000pt" height="360.000000pt" viewBox="0 0 480.000000 360.000000"
 preserveAspectRatio="xMidYMid meet">
<metadata>
Created by potrace 1.16, written by Peter Selinger 2001-2019
</metadata>
<rect width="1" height="360" fill="#000000"/>
<rect x="479" width="1" height="360" fill="#000000"/>
<rect width="480" height="1" fill="#000000"/>
<rect y="359" width="480" height="1" fill="#000000"/>
<g transform="translate(0.000000,360.000000) scale(0.100000,-0.100000)"
fill="#000000" stroke="none">
<path d="M3684 3558 l-9 -42 -105 -31 c-58 -18 -128 -44 -157 -58 -108 -55
-259 -219 -323 -351 -27 -56 -50 -160 -66 -301 l-4 -40 19 25 c25 32 33 23 21
-21 -21 -72 -5 -184 25 -173 7 3 17 -12 25 -36 9 -28 20 -42 37 -46 13 -4 23
-14 23 -23 0 -14 2 -14 10 -1 11 18 14 15 34 -34 25 -60 21 -74 -29 -98 -27
-13 -45 -29 -45 -39 0 -10 23 -40 51 -68 47 -47 51 -54 46 -86 -5 -28 -1 -41
19 -64 13 -16 24 -33 24 -39 0 -5 11 -30 25 -53 14 -24 25 -57 25 -73 0 -18
11 -39 34 -62 40 -40 72 -43 175 -19 36 9 70 14 76 11 14 -5 32 -68 40 -142
l7 -51 -74 -61 c-40 -33 -111 -99 -158 -147 -47 -47 -105 -100 -130 -117 -41
-29 -54 -32 -155 -39 -60 -4 -134 -15 -163 -24 -57 -17 -76 -39 -96 -106 -12
-41 -13 -42 -137 -94 -119 -50 -124 -53 -127 -84 -2 -17 -8 -31 -13 -31 -6 0
-43 -15 -83 -34 l-74 -34 -11 107 c-6 58 -16 187 -21 286 -6 99 -15 214 -21
256 -11 71 -10 80 14 155 37 111 67 233 60 250 -12 33 24 7 154 -107 154 -137
241 -205 249 -196 15 15 -63 113 -214 268 l-167 172 -3 56 c-3 73 -40 147
-106 215 -57 58 -91 71 -148 54 -37 -11 -37 -11 -110 57 -40 37 -87 74 -105
81 -17 8 -34 18 -37 23 -3 5 -38 37 -77 72 -72 64 -75 64 -51 0 3 -9 1 -12 -6
-7 -8 5 -12 0 -12 -13 0 -20 36 -65 160 -202 27 -31 50 -59 50 -62 0 -4 -18
-16 -40 -27 -21 -11 -45 -30 -51 -43 -12 -20 -38 -127 -39 -154 0 -7 24 -27
54 -43 l55 -31 4 -82 c2 -45 10 -119 17 -165 13 -74 12 -90 -4 -165 -19 -88
-45 -604 -46 -928 0 -205 9 -238 85 -307 77 -71 151 -80 310 -38 72 19 324
106 407 140 11 5 18 2 22 -11 4 -10 15 -29 25 -42 17 -22 19 -23 49 -7 17 9
35 16 39 16 4 0 8 -48 9 -108 0 -66 9 -151 24 -224 l22 -118 679 0 c661 0 679
0 679 19 0 11 20 33 49 54 27 20 52 45 56 57 6 18 12 21 33 15 15 -4 87 -9
160 -12 133 -5 134 -5 127 16 -5 15 -2 21 10 21 14 0 15 73 12 803 -2 441 -7
818 -11 837 -6 26 -5 31 3 20 8 -11 11 192 11 689 l0 703 -44 62 c-78 110
-231 240 -332 282 -19 8 -34 19 -34 24 0 6 -126 10 -349 10 l-348 0 -9 -42z
m-404 -1121 c0 -5 -4 -5 -10 -2 -5 3 -10 14 -10 23 0 15 2 15 10 2 5 -8 10
-19 10 -23z"/>
</g>
</svg>
