<?xml version="1.0" standalone="no"?>
<!DOCTYPE svg PUBLIC "-//W3C//DTD SVG 20010904//EN"
 "http://www.w3.org/TR/2001/REC-SVG-20010904/DTD/svg10.dtd">
<svg version="1.0" xmlns="http://www.w3.org/2000/svg"
 width="480.000000pt" height="360.000000pt" viewBox="0 0 480.000000 360.000000"
 preserveAspectRatio="xMidYMid meet">
<metadata>
Created by potrace 1.16, written by Peter Selinger 2001-2019
</metadata>
<rect width="1" height="360" fill="#000000"/>
<rect x="479" width="1" height="360" fill="#000000"/>
<rect width="480" height="1" fill="#000000"/>
<rect y="359" width="480" height="1" fill="#000000"/>
<g transform="translate(0.000000,360.000000) scale(0.100000,-0.100000)"
fill="#000000" stroke="none">
<path d="M2842 3378 c3 -7 25 -24 50 -38 46 -25 91 -60 85 -66 -2 -2 -37 3
-78 12 -119 25 -263 3 -348 -54 -48 -32 -92 -90 -117 -151 l-17 -43 -49 6
c-63 9 -144 -3 -170 -24 l-21 -16 33 -38 c29 -32 39 -37 67 -34 37 4 41 -15 4
-20 -20 -3 -21 -9 -20 -60 1 -31 -1 -67 -5 -79 -7 -18 2 -32 45 -78 29 -30 63
-58 76 -61 13 -4 41 -26 61 -51 37 -43 39 -47 36 -111 -2 -37 -6 -85 -9 -107
l-5 -40 -75 0 c-67 -1 -82 -5 -157 -43 -46 -23 -102 -49 -125 -56 -41 -15 -44
-14 -140 26 -184 76 -298 118 -320 118 -16 0 -23 6 -23 20 0 34 -54 27 -80
-10 -13 -19 -30 -30 -45 -30 -32 0 -70 -47 -53 -67 6 -8 17 -12 24 -9 31 12
21 -17 -30 -88 -59 -83 -111 -203 -122 -283 -9 -71 21 -138 72 -159 44 -18 47
-18 284 58 155 49 170 53 252 50 80 -3 98 1 209 38 l122 40 36 -23 c20 -12 45
-27 56 -33 11 -6 21 -17 21 -25 1 -8 2 -20 3 -27 0 -8 26 -40 58 -73 46 -49
52 -59 35 -59 -18 0 -21 -6 -20 -42 2 -48 -59 -292 -86 -350 -20 -42 -15 -71
11 -66 14 2 22 26 38 103 11 55 25 100 30 100 16 -1 99 -28 108 -35 4 -3 3
-40 -3 -81 -5 -41 -17 -135 -26 -209 -17 -149 -50 -355 -65 -410 -16 -60 -159
-679 -159 -690 0 -7 204 -10 591 -10 l592 0 -7 82 c-11 136 -75 737 -87 818
-15 105 -65 355 -95 478 -20 82 -23 106 -14 117 7 8 16 15 21 15 4 0 36 -36
70 -81 41 -55 66 -79 76 -75 8 3 17 6 19 6 14 0 1 30 -16 35 -18 6 -130 125
-130 138 0 3 21 4 48 1 57 -6 88 8 120 56 22 32 23 42 18 105 -4 39 -12 107
-19 152 l-14 83 73 112 c41 62 73 120 73 128 0 8 -74 74 -164 145 -119 94
-172 130 -192 130 -44 1 -50 10 -57 89 -5 60 -4 80 9 99 8 13 22 48 31 78 9
30 25 71 35 91 25 49 24 70 -6 98 -31 29 -32 40 -2 40 30 0 103 45 88 54 -7 4
-9 16 -6 26 4 14 -4 21 -37 35 -24 9 -61 18 -83 20 -34 2 -44 9 -69 46 -16 23
-38 51 -48 61 -10 10 -18 32 -18 48 0 39 -57 97 -130 133 -57 28 -125 37 -118
15z"/>
</g>
</svg>
