<?xml version="1.0" standalone="no"?>
<!DOCTYPE svg PUBLIC "-//W3C//DTD SVG 20010904//EN"
 "http://www.w3.org/TR/2001/REC-SVG-20010904/DTD/svg10.dtd">
<svg version="1.0" xmlns="http://www.w3.org/2000/svg"
 width="480.000000pt" height="360.000000pt" viewBox="0 0 480.000000 360.000000"
 preserveAspectRatio="xMidYMid meet">
<metadata>
Created by potrace 1.16, written by Peter Selinger 2001-2019
</metadata>
<rect width="1" height="360" fill="#000000"/>
<rect x="479" width="1" height="360" fill="#000000"/>
<rect width="480" height="1" fill="#000000"/>
<rect y="359" width="480" height="1" fill="#000000"/>
<g transform="translate(0.000000,360.000000) scale(0.100000,-0.100000)"
fill="#000000" stroke="none">
<path d="M0 1799 c0 -1436 3 -1800 13 -1797 6 3 24 46 39 97 41 145 41 139 18
146 -11 4 -28 17 -36 31 -14 21 -15 28 -3 57 8 17 12 40 11 49 -2 10 1 18 7
18 23 0 60 76 67 135 3 33 8 62 10 64 2 2 -6 21 -16 42 -24 45 -25 53 -6 46
15 -6 26 20 26 61 0 14 8 26 23 31 18 7 25 22 35 72 7 35 23 91 34 125 19 53
20 65 9 92 -7 17 -19 32 -26 34 -11 2 -10 13 3 52 14 38 26 53 57 70 170 95
247 136 255 136 6 0 10 4 10 9 0 5 -29 19 -65 31 -77 26 -77 26 -135 -64 -22
-33 -40 -56 -41 -51 -3 23 4 61 13 78 9 18 37 189 38 234 0 20 -2 21 -31 11
-16 -6 -32 -9 -34 -6 -2 2 12 21 31 43 48 56 42 64 -13 16 -25 -23 -48 -40
-50 -38 -2 3 6 25 17 51 l20 47 -21 -6 c-19 -6 -20 -5 -8 17 6 12 20 35 30 50
22 31 13 38 -41 31 -32 -4 -29 -2 29 30 88 47 95 69 106 306 l5 104 -23 -21
c-13 -12 -27 -22 -33 -22 -20 0 -284 136 -284 146 0 6 9 22 19 36 18 23 19 27
5 53 -8 16 -18 48 -21 72 -7 53 8 61 85 45 50 -10 58 -9 103 13 26 14 55 25
64 25 9 0 29 7 45 15 27 14 28 17 18 46 -30 88 51 333 156 469 52 67 164 150
237 174 80 26 232 31 369 12 63 -9 119 -16 126 -16 6 0 38 21 70 46 55 43 152
99 159 92 12 -14 43 -84 60 -138 21 -65 22 -65 91 -100 82 -41 212 -166 261
-250 57 -96 85 -193 90 -310 4 -84 2 -114 -12 -150 -32 -86 -32 -93 30 -216
55 -110 56 -116 41 -139 -24 -37 -63 -60 -79 -47 -10 8 -7 -19 10 -99 42 -206
68 -287 170 -536 3 -7 11 -13 19 -13 19 0 61 -59 69 -97 3 -18 5 -33 3 -33 -2
0 -32 27 -68 60 -36 33 -70 60 -77 60 -6 0 -32 -15 -56 -34 -75 -57 -98 -66
-132 -52 -17 7 -36 20 -44 30 -11 13 -93 56 -107 56 -2 0 -4 -11 -4 -25 0 -18
-4 -23 -15 -19 -10 4 -15 0 -15 -14 0 -16 10 -24 38 -31 20 -6 49 -11 63 -11
19 0 34 -12 57 -44 38 -52 39 -62 11 -92 l-21 -23 20 -28 c22 -31 60 -113 87
-188 26 -71 28 -73 85 -67 50 5 50 4 50 -24 0 -16 -7 -51 -15 -79 -24 -76 -14
-101 53 -133 65 -31 75 -55 43 -101 -31 -44 -26 -130 12 -201 102 -188 177
-333 177 -341 0 -5 7 -9 16 -9 12 0 15 6 11 23 -2 12 -26 114 -51 227 -171
752 -193 848 -200 887 -4 26 -1 35 14 43 88 47 493 62 685 26 195 -37 535
-173 535 -214 0 -19 -8 -35 -293 -595 -108 -213 -197 -389 -197 -392 0 -3 430
-5 955 -5 l955 0 0 1800 0 1800 -2400 0 -2400 0 0 -1801z m2978 1399 c-5 -15
-58 -24 -58 -10 0 15 12 22 38 22 14 0 22 -5 20 -12z m-448 -417 c0 -12 -20
-25 -27 -18 -7 7 6 27 18 27 5 0 9 -4 9 -9z m-252 -132 c18 -6 29 -15 26 -20
-6 -10 -127 -12 -163 -2 l-23 6 23 13 c29 16 95 18 137 3z m2377 -512 c21 -16
13 -37 -14 -37 -22 0 -45 25 -36 40 9 14 28 13 50 -3z m-1835 -507 c0 -5 -7
-7 -15 -4 -8 4 -15 8 -15 10 0 2 7 4 15 4 8 0 15 -4 15 -10z m1565 -396 c33
-22 31 -47 -5 -86 -29 -32 -31 -32 -45 -14 -19 26 -19 61 1 91 19 30 18 29 49
9z"/>
<path d="M1596 1453 c-3 -4 -16 -8 -27 -10 -22 -3 -83 -33 -77 -38 4 -4 174
-45 187 -45 18 0 14 87 -5 94 -21 8 -69 8 -78 -1z"/>
<path d="M1770 213 c0 -38 -7 -95 -15 -128 -17 -72 -18 -85 -5 -85 6 0 10 15
10 33 0 17 7 41 15 51 18 23 22 196 5 196 -6 0 -10 -29 -10 -67z"/>
</g>
</svg>
