<?xml version="1.0" standalone="no"?>
<!DOCTYPE svg PUBLIC "-//W3C//DTD SVG 20010904//EN"
 "http://www.w3.org/TR/2001/REC-SVG-20010904/DTD/svg10.dtd">
<svg version="1.0" xmlns="http://www.w3.org/2000/svg"
 width="480.000000pt" height="360.000000pt" viewBox="0 0 480.000000 360.000000"
 preserveAspectRatio="xMidYMid meet">
<metadata>
Created by potrace 1.16, written by Peter Selinger 2001-2019
</metadata>
<rect width="1" height="360" fill="#000000"/>
<rect x="479" width="1" height="360" fill="#000000"/>
<rect width="480" height="1" fill="#000000"/>
<rect y="359" width="480" height="1" fill="#000000"/>
<g transform="translate(0.000000,360.000000) scale(0.100000,-0.100000)"
fill="#000000" stroke="none">
<path d="M0 2666 l0 -934 83 25 c187 57 429 162 638 278 45 25 99 50 120 56
38 12 39 12 101 -43 35 -30 137 -112 228 -183 91 -71 237 -199 325 -285 233
-227 316 -275 514 -302 71 -9 118 -9 199 -1 67 8 126 8 157 3 28 -5 67 -9 88
-9 33 -1 37 2 37 24 0 34 101 229 153 295 60 76 133 123 284 184 115 46 128
54 131 77 2 21 -4 32 -30 49 -18 13 -54 44 -80 69 l-48 45 -1 -84 c-1 -47 -5
-98 -9 -115 -7 -30 -7 -30 -13 -5 -3 14 -10 50 -15 80 l-9 55 -2 -80 c-2 -86
-13 -86 -26 -1 -4 27 -11 61 -17 75 l-10 26 -18 -40 -18 -40 0 55 c1 30 -5 81
-12 112 -10 46 -20 63 -50 87 -28 22 -40 27 -49 18 -6 -6 -27 -12 -47 -14 -30
-2 -35 1 -29 15 4 9 9 35 13 56 5 39 5 39 -25 33 -46 -9 -48 4 -3 30 22 13 40
30 40 38 0 21 -23 119 -29 127 -4 4 -19 -3 -35 -16 -28 -21 -29 -28 -31 -102
-2 -43 2 -119 8 -168 12 -104 1 -188 -37 -282 -14 -34 -30 -92 -37 -130 -14
-80 -25 -97 -37 -63 -9 22 -10 21 -21 -21 -16 -61 -19 -68 -20 -47 -1 10 -5
16 -9 13 -5 -3 -9 14 -11 37 -3 57 -11 60 -11 4 0 -25 -6 -52 -13 -59 -8 -7
-12 -18 -10 -25 2 -6 -1 -14 -6 -18 -10 -6 -15 14 -12 43 1 6 -3 12 -9 12 -5
0 -10 -7 -10 -15 0 -8 -4 -15 -8 -15 -5 0 -7 13 -4 29 2 16 -1 32 -7 35 -6 4
-11 22 -11 40 0 47 -11 96 -21 96 -9 0 -3 -114 7 -134 3 -6 -1 -2 -10 8 -17
21 -70 178 -83 246 -8 43 -5 102 11 218 7 48 6 52 -13 52 -29 0 -26 14 8 42
21 16 39 48 60 107 36 99 73 165 114 202 l30 28 -74 22 c-117 34 -169 59 -175
83 -3 11 2 41 11 66 9 25 23 76 31 115 8 38 26 88 39 111 49 84 198 194 263
194 60 0 108 -52 127 -138 l7 -33 28 59 c37 78 146 194 213 226 78 38 204 56
390 55 266 -1 365 -22 447 -96 109 -98 184 -336 148 -473 -17 -63 -11 -92 26
-121 31 -24 64 -104 67 -160 1 -24 8 -56 15 -70 12 -24 11 -28 -9 -46 -12 -11
-32 -26 -44 -32 -29 -15 -30 -53 -1 -98 l21 -35 -21 7 c-19 5 -22 2 -22 -21 0
-15 -3 -24 -7 -21 -3 4 -12 2 -19 -4 -14 -11 -25 7 -40 67 -3 13 -9 26 -13 28
-4 3 -20 -39 -36 -92 -15 -53 -33 -106 -38 -117 -10 -19 -11 -19 -18 5 -4 14
-7 46 -8 72 -1 53 -9 78 -23 78 -7 0 -9 -21 -6 -55 3 -37 1 -54 -6 -52 -6 2
-12 13 -14 25 -5 31 -20 27 -28 -5 -35 -156 -75 -272 -91 -266 -22 8 -15 -15
10 -31 12 -8 52 -26 88 -39 175 -66 223 -106 293 -246 29 -58 63 -132 76 -163
l24 -58 71 0 c39 0 113 7 165 16 86 15 100 15 204 -2 105 -16 118 -16 208 -1
53 9 115 24 137 33 l41 16 0 1119 0 1119 -2400 0 -2400 0 0 -934z"/>
<path d="M3410 1975 c-14 -16 -5 -35 16 -35 15 0 20 35 5 44 -5 3 -14 -1 -21
-9z"/>
<path d="M727 1869 c-94 -58 -97 -62 -81 -80 11 -12 15 -29 12 -51 -5 -28 0
-38 28 -63 26 -23 42 -53 65 -121 l31 -91 -82 -339 c-74 -302 -100 -394 -115
-394 -12 0 -29 60 -94 335 -38 165 -75 321 -80 347 -10 44 -8 56 25 145 26 70
45 105 66 122 22 17 26 26 18 36 -9 11 -31 4 -113 -35 -98 -47 -325 -130 -357
-130 -8 0 -20 -15 -26 -35 -10 -32 -9 -36 18 -57 32 -25 98 -173 98 -219 0
-15 -32 -151 -70 -303 l-70 -275 0 -330 0 -331 1223 0 1224 0 6 158 c4 103 13
185 26 238 11 45 25 140 32 213 11 118 10 140 -5 209 -18 76 -18 78 4 135 l22
58 -26 24 c-33 30 -33 42 2 78 l27 30 -85 -7 c-47 -3 -134 -7 -195 -7 l-110
-1 33 -27 c23 -20 41 -51 62 -110 17 -45 30 -92 30 -105 0 -22 -142 -635 -156
-669 -8 -22 -21 -22 -33 2 -14 24 -151 632 -151 665 0 45 59 189 86 211 20 16
24 26 19 47 -6 24 -15 29 -78 43 -91 21 -225 40 -231 34 -3 -3 11 -48 30 -102
l35 -97 -41 -172 c-102 -426 -120 -500 -131 -519 -10 -20 -11 -20 -24 -2 -7
10 -25 72 -40 138 -15 66 -49 216 -76 333 l-49 212 35 96 c24 68 43 105 64
123 19 17 31 39 34 61 4 32 -2 43 -63 115 -87 102 -141 153 -210 199 -64 42
-83 46 -49 10 13 -14 38 -67 56 -117 l31 -92 -44 -185 c-25 -102 -61 -250 -80
-330 -48 -202 -61 -230 -84 -177 -11 26 -160 664 -160 686 0 36 64 188 90 211
15 14 29 36 32 50 3 14 8 32 12 41 5 11 -5 23 -33 42 -22 15 -78 63 -125 107
-47 44 -91 80 -99 80 -7 0 -57 -27 -110 -61z"/>
<path d="M2431 1894 c0 -11 3 -14 6 -6 3 7 2 16 -1 19 -3 4 -6 -2 -5 -13z"/>
<path d="M3435 1861 c-3 -5 -1 -12 5 -16 5 -3 10 1 10 9 0 18 -6 21 -15 7z"/>
<path d="M4700 1229 c-19 -4 -61 -13 -93 -19 -74 -15 -93 -42 -53 -77 16 -14
44 -63 68 -120 l40 -96 -21 -86 c-105 -432 -143 -576 -153 -588 -10 -12 -14
-11 -24 9 -6 13 -49 172 -94 355 l-81 331 36 85 c20 47 47 95 61 108 13 12 24
25 24 28 0 3 -89 7 -198 9 -108 2 -205 6 -214 8 -26 8 -25 -50 1 -68 10 -7 35
-57 55 -110 l36 -97 -65 -270 -64 -271 14 -76 c8 -42 15 -123 15 -180 l0 -104
405 0 405 0 0 447 c0 422 -1 451 -21 521 l-21 74 21 50 c12 28 21 73 21 99 0
49 0 49 -32 48 -18 -1 -49 -5 -68 -10z"/>
<path d="M2714 145 c-11 -27 2 -37 14 -11 7 16 8 26 1 26 -5 0 -12 -7 -15 -15z"/>
</g>
</svg>
