<?xml version="1.0" standalone="no"?>
<!DOCTYPE svg PUBLIC "-//W3C//DTD SVG 20010904//EN"
 "http://www.w3.org/TR/2001/REC-SVG-20010904/DTD/svg10.dtd">
<svg version="1.0" xmlns="http://www.w3.org/2000/svg"
 width="480.000000pt" height="360.000000pt" viewBox="0 0 480.000000 360.000000"
 preserveAspectRatio="xMidYMid meet">
<metadata>
Created by potrace 1.16, written by Peter Selinger 2001-2019
</metadata>
<rect width="1" height="360" fill="#000000"/>
<rect x="479" width="1" height="360" fill="#000000"/>
<rect width="480" height="1" fill="#000000"/>
<rect y="359" width="480" height="1" fill="#000000"/>
<g transform="translate(0.000000,360.000000) scale(0.100000,-0.100000)"
fill="#000000" stroke="none">
<path d="M1720 3576 c0 -30 -16 -42 -35 -26 -18 15 -20 -1 -3 -18 8 -8 9 -15
3 -20 -6 -4 -12 -18 -14 -32 -1 -14 -8 -28 -14 -32 -12 -7 58 -44 238 -123
171 -76 371 -178 357 -183 -13 -4 -219 52 -270 74 -18 8 -34 14 -36 14 -2 0 5
-26 16 -57 21 -66 19 -92 -5 -47 -24 46 -42 56 -100 59 -28 1 -70 5 -92 9 -40
7 -40 7 -19 -11 12 -10 83 -63 159 -118 161 -118 370 -274 443 -330 49 -39 65
-60 40 -53 -21 5 -168 85 -235 127 l-62 39 -3 -46 -3 -47 -43 65 c-35 53 -52
69 -94 88 -28 12 -53 21 -54 19 -2 -2 9 -17 24 -33 15 -17 40 -48 57 -70 16
-21 69 -78 118 -126 48 -49 85 -88 82 -88 -3 0 -38 24 -78 53 -101 74 -99 73
-81 31 28 -66 102 -337 118 -431 8 -50 20 -151 27 -225 6 -73 14 -136 18 -141
4 -4 79 -26 167 -48 257 -65 384 -65 690 2 63 14 118 19 185 17 l94 -3 3 -30
c5 -39 18 -54 69 -77 44 -19 59 -33 46 -41 -5 -3 -58 -15 -118 -27 -61 -12
-180 -39 -265 -60 -85 -21 -186 -44 -224 -50 l-70 -13 220 -64 c120 -35 242
-71 269 -79 79 -25 118 -27 207 -10 46 9 110 21 143 27 33 6 80 14 105 19 122
24 344 61 420 70 47 5 146 17 220 26 134 16 403 15 443 -1 16 -7 17 46 17
1019 l0 1026 -1540 0 -1540 0 0 -24z m290 -742 c0 -8 5 -12 10 -9 6 3 10 1 10
-5 0 -7 -7 -9 -16 -6 -9 3 -18 6 -20 6 -2 0 -4 9 -4 21 0 11 5 17 10 14 6 -3
10 -13 10 -21z"/>
<path d="M1740 3295 c1 -23 28 -40 70 -43 44 -3 45 -2 22 14 -13 9 -36 17 -50
17 -15 1 -30 6 -34 12 -5 7 -8 7 -8 0z"/>
<path d="M1830 3015 c0 -2 10 -10 23 -16 20 -11 21 -11 8 4 -13 16 -31 23 -31
12z"/>
<path d="M1880 2986 c0 -2 8 -10 18 -17 15 -13 16 -12 3 4 -13 16 -21 21 -21
13z"/>
<path d="M1147 2861 c40 -38 248 -161 271 -161 5 0 8 10 7 23 -1 23 -50 52
-175 106 -29 13 -60 29 -67 37 -8 8 -24 14 -36 14 l-21 0 21 -19z"/>
<path d="M1920 2793 c0 -13 29 -38 35 -31 3 3 -4 13 -15 23 -11 10 -20 13 -20
8z"/>
<path d="M1176 2721 c-4 -6 80 -122 174 -241 11 -13 20 -28 20 -32 0 -4 3 -8
8 -8 8 0 32 49 32 67 0 7 3 13 8 13 14 0 52 67 52 92 0 23 -8 29 -53 46 -29
11 -78 25 -109 31 -31 5 -72 17 -92 25 -20 8 -38 11 -40 7z"/>
<path d="M1240 2505 c0 -2 10 -10 23 -16 20 -11 21 -11 8 4 -13 16 -31 23 -31
12z"/>
<path d="M1290 2466 c0 -2 8 -10 18 -17 15 -13 16 -12 3 4 -13 16 -21 21 -21
13z"/>
<path d="M1140 2407 c0 -12 21 -60 48 -107 44 -79 49 -85 82 -88 34 -3 36 -1
49 42 7 25 11 49 9 54 -7 19 -100 92 -116 92 -9 0 -29 7 -44 14 -26 14 -28 14
-28 -7z"/>
<path d="M163 1704 c-15 -20 -40 -51 -54 -68 -14 -17 -44 -56 -67 -87 l-42
-56 0 -171 c0 -95 3 -172 6 -172 19 0 190 148 269 233 128 138 146 169 106
182 -11 3 -54 44 -96 90 -42 47 -81 85 -86 85 -4 0 -21 -16 -36 -36z"/>
<path d="M2010 1575 c0 -11 286 -146 410 -194 69 -27 154 -53 190 -60 108 -18
219 -31 271 -31 l51 0 -29 23 c-15 12 -39 28 -53 35 -14 7 -41 22 -60 33 -61
37 -212 100 -300 125 -102 29 -164 40 -330 59 -142 17 -150 17 -150 10z"/>
<path d="M2733 198 c-6 -7 -24 -43 -41 -79 -17 -36 -40 -73 -52 -84 -11 -10
-20 -22 -20 -27 0 -4 156 -8 348 -8 l347 0 -205 69 c-113 38 -240 86 -283 105
-90 42 -82 39 -94 24z"/>
<path d="M0 30 l0 -30 163 1 162 1 -85 29 c-65 22 -102 29 -162 29 l-78 0 0
-30z"/>
</g>
</svg>
