<?xml version="1.0" standalone="no"?>
<!DOCTYPE svg PUBLIC "-//W3C//DTD SVG 20010904//EN"
 "http://www.w3.org/TR/2001/REC-SVG-20010904/DTD/svg10.dtd">
<svg version="1.0" xmlns="http://www.w3.org/2000/svg"
 width="480.000000pt" height="360.000000pt" viewBox="0 0 480.000000 360.000000"
 preserveAspectRatio="xMidYMid meet">
<metadata>
Created by potrace 1.16, written by Peter Selinger 2001-2019
</metadata>
<rect width="1" height="360" fill="#000000"/>
<rect x="479" width="1" height="360" fill="#000000"/>
<rect width="480" height="1" fill="#000000"/>
<rect y="359" width="480" height="1" fill="#000000"/>
<g transform="translate(0.000000,360.000000) scale(0.100000,-0.100000)"
fill="#000000" stroke="none">
<path d="M3780 3570 c-86 -34 -234 -108 -288 -145 -98 -66 -234 -231 -262
-320 -18 -54 -18 -149 -1 -208 8 -26 31 -67 53 -92 27 -31 38 -51 33 -62 -3
-10 -35 -60 -70 -113 -78 -117 -83 -134 -35 -138 30 -3 104 8 161 24 12 3 21
-12 38 -68 40 -130 39 -128 41 -83 1 22 4 34 7 27 2 -6 8 -10 12 -7 5 2 20
-11 36 -30 15 -19 31 -33 36 -30 4 3 25 -4 46 -15 21 -11 55 -23 76 -27 23 -3
42 -13 48 -25 6 -12 18 -18 28 -15 10 2 26 -2 36 -9 10 -8 28 -14 40 -14 13 0
27 -10 35 -24 12 -24 7 -31 -125 -170 l-139 -145 -175 -87 c-97 -48 -268 -129
-381 -179 l-205 -92 3 -31 c3 -29 1 -32 -49 -46 -29 -9 -91 -23 -137 -32 -119
-22 -259 -79 -356 -144 -44 -30 -118 -107 -137 -143 -13 -23 14 -34 47 -18 24
11 25 10 19 -23 -9 -43 9 -55 39 -27 28 26 46 27 46 2 0 -11 3 -27 6 -36 6
-14 8 -14 25 1 11 9 19 26 19 37 0 12 5 17 14 14 9 -4 32 11 56 34 67 65 107
79 235 79 89 0 126 5 190 25 96 30 89 29 111 8 25 -26 169 -27 206 -1 14 10
29 18 33 18 7 0 122 48 190 79 22 11 119 46 215 80 96 34 190 68 209 76 36 17
178 122 200 149 7 9 18 16 23 16 6 0 24 12 42 26 17 14 79 63 138 110 59 46
136 111 170 143 110 102 292 241 317 241 7 0 29 -13 48 -30 18 -16 38 -30 43
-30 6 0 10 239 10 652 l0 651 -62 -59 c-35 -32 -79 -76 -99 -98 -34 -36 -37
-38 -46 -20 -6 10 -13 32 -17 47 -8 35 -46 95 -77 124 -13 12 -64 43 -114 68
-49 26 -112 62 -140 80 -76 49 -105 55 -254 55 -127 -1 -141 -3 -211 -30z"/>
</g>
</svg>
