<?xml version="1.0" standalone="no"?>
<!DOCTYPE svg PUBLIC "-//W3C//DTD SVG 20010904//EN"
 "http://www.w3.org/TR/2001/REC-SVG-20010904/DTD/svg10.dtd">
<svg version="1.0" xmlns="http://www.w3.org/2000/svg"
 width="480.000000pt" height="360.000000pt" viewBox="0 0 480.000000 360.000000"
 preserveAspectRatio="xMidYMid meet">
<metadata>
Created by potrace 1.16, written by Peter Selinger 2001-2019
</metadata>
<rect width="1" height="360" fill="#000000"/>
<rect x="479" width="1" height="360" fill="#000000"/>
<rect width="480" height="1" fill="#000000"/>
<rect y="359" width="480" height="1" fill="#000000"/>
<g transform="translate(0.000000,360.000000) scale(0.100000,-0.100000)"
fill="#000000" stroke="none">
<path d="M1930 3596 c0 -2 7 -31 15 -63 8 -32 21 -114 30 -183 9 -69 27 -172
40 -230 47 -214 58 -313 45 -417 -20 -159 -44 -213 -147 -325 -37 -40 -74
-100 -126 -205 -40 -81 -99 -190 -131 -241 -73 -118 -82 -148 -96 -317 -13
-157 -29 -252 -59 -350 -26 -83 -26 -103 -2 -129 17 -19 18 -27 9 -71 -5 -27
-12 -61 -14 -73 -3 -13 -37 -55 -75 -93 -71 -69 -83 -98 -31 -78 14 6 46 26
69 45 24 20 43 31 43 26 0 -5 -18 -34 -40 -66 -61 -87 -73 -113 -55 -120 21
-8 86 58 134 137 48 78 39 27 -20 -110 -43 -103 -45 -113 -25 -113 22 0 70 64
96 128 13 31 28 63 34 71 15 20 24 -17 25 -111 1 -85 7 -108 26 -108 19 0 23
19 30 167 4 73 10 133 14 133 4 0 12 -5 18 -11 16 -16 43 -4 43 18 0 10 -11
38 -25 61 -32 56 -26 119 11 128 13 3 28 12 33 18 6 7 15 73 20 147 6 74 21
193 35 264 13 72 27 147 29 167 4 27 31 71 95 155 131 174 149 202 197 320 40
99 50 113 112 171 37 35 91 75 120 88 l52 25 31 -22 c35 -26 37 -33 12 -51
-14 -10 -18 -24 -16 -58 3 -56 -20 -103 -45 -95 -23 7 -61 -51 -62 -93 0 -38
-44 -147 -58 -147 -28 0 -118 -216 -104 -251 3 -8 -1 -24 -10 -37 -20 -31 -31
-84 -18 -92 14 -8 14 -37 -1 -72 -17 -43 -19 -55 -13 -100 4 -24 16 -52 31
-68 22 -24 23 -28 8 -42 -14 -14 -13 -18 10 -42 14 -15 26 -33 26 -39 0 -18
61 -70 97 -82 46 -16 77 3 211 129 79 74 119 105 133 103 31 -5 110 23 226 79
l62 30 95 -30 c136 -44 257 -56 362 -36 93 17 191 59 276 116 67 46 102 89
129 158 18 49 18 56 3 208 -26 259 -17 358 42 475 17 33 21 53 16 68 -8 21 -9
21 -58 -15 -80 -61 -111 -94 -186 -203 -66 -95 -135 -162 -168 -162 -16 0
-200 170 -200 185 0 7 18 61 40 121 49 131 108 328 121 404 12 69 3 132 -25
172 -24 36 -131 78 -181 71 -51 -7 -61 9 -32 53 13 22 54 98 90 169 49 97 71
154 86 225 12 52 21 100 21 107 0 11 -140 13 -740 13 -407 0 -740 -2 -740 -4z"/>
<path d="M4507 3118 c-4 -265 -7 -1075 -7 -1800 l0 -1318 150 0 150 0 0 1800
0 1800 -143 0 -144 0 -6 -482z"/>
</g>
</svg>
