<?xml version="1.0" standalone="no"?>
<!DOCTYPE svg PUBLIC "-//W3C//DTD SVG 20010904//EN"
 "http://www.w3.org/TR/2001/REC-SVG-20010904/DTD/svg10.dtd">
<svg version="1.0" xmlns="http://www.w3.org/2000/svg"
 width="480.000000pt" height="360.000000pt" viewBox="0 0 480.000000 360.000000"
 preserveAspectRatio="xMidYMid meet">
<metadata>
Created by potrace 1.16, written by Peter Selinger 2001-2019
</metadata>
<rect width="1" height="360" fill="#000000"/>
<rect x="479" width="1" height="360" fill="#000000"/>
<rect width="480" height="1" fill="#000000"/>
<rect y="359" width="480" height="1" fill="#000000"/>
<g transform="translate(0.000000,360.000000) scale(0.100000,-0.100000)"
fill="#000000" stroke="none">
<path d="M1355 2866 c-10 -26 -26 -48 -41 -55 -26 -11 -31 -27 -12 -33 7 -3 8
-9 3 -18 -5 -8 -10 -34 -11 -58 -1 -29 -12 -59 -34 -95 -61 -96 -76 -127 -64
-135 6 -4 15 -20 19 -37 8 -28 9 -28 13 -7 4 24 4 24 25 -5 13 -17 29 -27 40
-25 9 2 17 -1 17 -7 0 -17 63 -51 82 -45 31 10 19 -12 -22 -41 -42 -29 -47
-43 -29 -73 10 -15 1 -28 -55 -87 -36 -38 -66 -73 -66 -79 0 -5 -10 -20 -22
-33 -12 -13 -16 -23 -10 -23 7 0 6 -9 -4 -27 -29 -57 -11 -114 45 -143 23 -12
23 -15 19 -101 -5 -76 -9 -94 -36 -136 -17 -26 -38 -56 -47 -66 -13 -15 -14
-21 -4 -33 9 -11 6 -30 -17 -92 -16 -42 -29 -81 -30 -87 -1 -10 -20 -57 -35
-87 -13 -26 -11 -46 6 -55 13 -8 13 -21 0 -118 -61 -436 -77 -580 -85 -734 -9
-170 -15 -229 -27 -298 l-5 -33 481 0 c264 0 481 3 481 8 0 4 -13 86 -30 182
-16 97 -41 268 -55 380 -30 238 -108 557 -180 732 -4 11 -1 17 10 20 14 2 12
9 -13 37 l-29 34 24 61 c14 34 34 78 44 98 22 42 24 95 8 201 -8 52 -8 85 0
111 7 28 7 43 -2 57 -9 14 -8 26 1 52 7 18 12 50 12 70 0 35 -51 189 -71 213
-15 18 1 72 27 89 22 14 24 14 25 -2 1 -10 1 -25 0 -35 -3 -26 14 -29 40 -5
33 29 49 31 49 6 0 -11 3 -19 8 -17 4 3 21 11 39 18 26 11 34 23 46 67 17 59
16 67 -33 183 -18 41 -32 90 -31 109 0 29 -10 45 -76 113 -85 87 -115 101
-247 113 -56 5 -72 3 -87 -11 -18 -16 -19 -16 -19 4 0 36 -17 25 -35 -22z"/>
<path d="M3440 2166 c-83 -17 -148 -62 -162 -111 -6 -22 -12 -41 -13 -42 -1
-2 -33 -7 -71 -12 -85 -12 -132 -31 -178 -71 -49 -43 -69 -100 -55 -152 14
-53 89 -126 175 -170 57 -29 64 -36 59 -56 -3 -13 -1 -29 4 -36 13 -16 -5 -79
-36 -124 -28 -42 -58 -135 -78 -236 -8 -43 -20 -85 -27 -93 -6 -8 -42 -30 -80
-49 -76 -38 -88 -59 -65 -114 11 -25 13 -49 7 -85 -4 -27 -5 -57 -3 -65 23
-73 46 -97 83 -85 25 8 26 40 3 49 -14 6 -15 9 -4 15 8 5 9 11 3 15 -6 3 -8
14 -6 24 4 14 14 16 50 14 39 -4 48 0 74 28 16 18 46 65 66 106 21 41 38 74
40 74 1 0 -4 -22 -11 -49 -10 -40 -10 -53 0 -68 10 -15 7 -35 -21 -121 -19
-57 -52 -194 -74 -304 -23 -110 -47 -212 -55 -227 -7 -15 -10 -32 -7 -37 16
-23 61 -42 114 -48 62 -8 64 -10 74 -86 l7 -50 77 0 78 0 7 55 c3 30 10 55 15
55 5 0 14 -25 20 -55 l11 -55 74 0 74 0 7 50 c4 28 12 54 18 57 6 4 40 10 74
14 35 4 71 13 79 22 13 13 13 18 -2 46 -21 41 -63 183 -86 292 -24 115 -65
274 -83 325 -21 60 -4 77 27 27 47 -74 103 -99 150 -68 38 24 72 -22 41 -56
-15 -17 -15 -19 -2 -19 9 0 18 -7 22 -15 8 -22 62 -19 87 6 28 28 19 86 -22
151 -20 31 -28 54 -24 67 10 33 -9 54 -97 108 -108 66 -124 85 -148 170 -11
39 -35 105 -54 147 -29 62 -33 82 -26 102 6 14 10 36 10 49 0 18 7 26 23 29
116 22 146 31 175 48 62 38 80 122 43 203 -18 41 -96 118 -138 138 -26 11 -25
7 -27 100 -1 66 -3 70 -38 103 -21 19 -38 38 -38 43 0 15 -29 34 -58 36 -15 2
-52 -2 -82 -9z m-223 -1143 c-3 -10 -5 -4 -5 12 0 17 2 24 5 18 2 -7 2 -21 0
-30z"/>
</g>
</svg>
