<?xml version="1.0" standalone="no"?>
<!DOCTYPE svg PUBLIC "-//W3C//DTD SVG 20010904//EN"
 "http://www.w3.org/TR/2001/REC-SVG-20010904/DTD/svg10.dtd">
<svg version="1.0" xmlns="http://www.w3.org/2000/svg"
 width="480.000000pt" height="360.000000pt" viewBox="0 0 480.000000 360.000000"
 preserveAspectRatio="xMidYMid meet">
<metadata>
Created by potrace 1.16, written by Peter Selinger 2001-2019
</metadata>
<rect width="1" height="360" fill="#000000"/>
<rect x="479" width="1" height="360" fill="#000000"/>
<rect width="480" height="1" fill="#000000"/>
<rect y="359" width="480" height="1" fill="#000000"/>
<g transform="translate(0.000000,360.000000) scale(0.100000,-0.100000)"
fill="#000000" stroke="none">
<path d="M0 1800 l0 -1800 605 0 c341 0 605 4 605 9 0 19 39 228 49 259 7 24
7 34 -2 37 -39 11 -62 11 -128 -1 -91 -16 -240 -18 -272 -3 -13 6 -28 22 -33
36 -9 24 -11 21 -68 -57 -85 -116 -110 -125 -122 -45 -3 25 -15 56 -26 70 -23
29 -18 40 19 50 35 8 93 52 93 69 0 27 36 57 79 67 84 19 314 223 341 303 10
31 10 53 0 110 -9 53 -9 86 -1 130 14 77 13 224 -2 351 -21 174 -1 311 85 570
47 140 93 245 137 309 29 41 31 50 29 123 -2 93 15 135 66 160 70 33 166 -20
181 -100 6 -32 14 -40 53 -57 64 -28 119 -77 205 -178 66 -77 277 -350 395
-509 23 -32 58 -75 77 -95 l35 -37 40 42 c22 23 59 69 82 101 126 175 431 539
506 604 33 29 86 66 118 84 43 25 60 41 66 63 23 83 128 131 194 88 41 -27 67
-87 58 -136 -11 -55 -5 -118 11 -137 42 -47 134 -279 176 -444 54 -211 62
-346 29 -516 -17 -83 -20 -138 -18 -260 1 -85 -2 -182 -6 -216 -7 -50 -5 -68
10 -100 25 -55 164 -188 273 -263 50 -34 96 -71 101 -82 6 -10 47 -40 90 -65
44 -26 80 -50 80 -53 0 -4 -7 -16 -15 -28 -8 -12 -19 -39 -23 -60 -4 -21 -14
-39 -23 -41 -23 -4 -99 67 -149 142 -25 36 -49 65 -55 63 -5 -2 -14 -23 -19
-46 -14 -63 -40 -76 -148 -74 -49 1 -113 7 -144 13 -31 7 -58 10 -60 7 -8 -8
-9 -201 -1 -230 l7 -27 610 0 610 0 0 1800 0 1800 -2400 0 -2400 0 0 -1800z"/>
<path d="M1287 36 c-4 -15 -6 -31 -2 -34 10 -10 16 6 13 35 l-3 28 -8 -29z"/>
</g>
</svg>
