<?xml version="1.0" standalone="no"?>
<!DOCTYPE svg PUBLIC "-//W3C//DTD SVG 20010904//EN"
 "http://www.w3.org/TR/2001/REC-SVG-20010904/DTD/svg10.dtd">
<svg version="1.0" xmlns="http://www.w3.org/2000/svg"
 width="480.000000pt" height="360.000000pt" viewBox="0 0 480.000000 360.000000"
 preserveAspectRatio="xMidYMid meet">
<metadata>
Created by potrace 1.16, written by Peter Selinger 2001-2019
</metadata>
<rect width="1" height="360" fill="#000000"/>
<rect x="479" width="1" height="360" fill="#000000"/>
<rect width="480" height="1" fill="#000000"/>
<rect y="359" width="480" height="1" fill="#000000"/>
<g transform="translate(0.000000,360.000000) scale(0.100000,-0.100000)"
fill="#000000" stroke="none">
<path d="M0 1800 l0 -1800 2400 0 2400 0 0 765 c0 659 -2 765 -14 765 -8 0
-17 -4 -21 -9 -3 -6 -29 1 -60 15 -30 13 -55 20 -55 16 1 -4 21 -22 46 -40 25
-19 43 -36 40 -40 -4 -3 -19 4 -34 15 -108 80 -118 84 -233 108 -63 12 -171
30 -241 39 -151 19 -233 43 -309 89 -56 34 -134 52 -176 41 -19 -5 -20 -12
-15 -93 5 -101 -7 -152 -43 -171 -39 -21 -67 5 -98 92 -14 40 -27 82 -29 93
-3 18 -11 20 -68 20 -36 0 -69 3 -75 6 -5 4 -44 1 -85 -7 -110 -19 -173 -18
-193 4 -19 21 -22 48 -7 57 5 3 10 10 10 14 0 19 -364 47 -391 30 -13 -8 -10
-9 65 -24 19 -4 22 -10 18 -30 -2 -14 -10 -25 -17 -25 -31 0 -174 31 -252 55
-80 25 -86 25 -98 9 -12 -17 -14 -17 -39 -1 l-27 18 7 -27 7 -26 -32 16 c-18
10 -31 24 -31 36 0 25 -29 40 -79 40 -45 0 -94 36 -106 77 -9 32 20 36 156 24
281 -27 335 -31 524 -41 l199 -12 43 49 c58 65 159 230 167 273 5 27 4 32 -6
22 -15 -15 -51 -15 -66 0 -8 8 -12 46 -12 104 l0 92 -32 6 c-41 8 -78 43 -78
74 0 26 50 82 74 82 9 0 16 4 16 9 0 5 -33 17 -72 26 -40 10 -83 24 -95 31
-12 8 -31 14 -42 14 -11 0 -23 5 -26 10 -3 6 -15 10 -26 10 -11 0 -24 11 -31
25 -10 21 -8 28 8 40 18 13 18 15 2 44 -16 29 -16 31 1 40 12 7 25 5 42 -4 67
-39 99 -44 119 -20 7 8 30 20 52 27 22 6 47 23 56 37 45 66 98 109 156 126 73
21 129 15 212 -24 34 -16 88 -37 120 -46 54 -16 57 -18 39 -31 -26 -20 -41
-20 -147 -9 l-68 8 0 -51 c0 -56 17 -82 54 -82 12 0 50 -9 85 -21 58 -20 65
-20 119 -6 31 8 66 18 76 22 14 6 17 5 12 -3 -9 -15 32 -16 67 -3 38 15 42 -1
5 -21 l-33 -17 43 -1 c46 0 57 -16 17 -26 -40 -10 -31 -34 13 -35 35 0 33 -2
-58 -49 -52 -27 -106 -49 -120 -50 -56 -1 -53 -18 3 -25 32 -4 57 -9 57 -11 0
-16 -46 -43 -77 -46 l-38 -4 35 -17 c33 -15 33 -16 10 -18 -14 -1 -28 -1 -32
0 -5 0 -8 -3 -8 -7 0 -4 -20 -7 -44 -7 -37 2 -43 -1 -39 -16 4 -15 9 -17 25
-8 30 16 46 4 58 -41 10 -36 14 -41 33 -36 12 4 43 12 70 18 65 16 72 6 68
-84 l-2 -71 152 7 152 8 -17 -26 c-16 -25 -16 -26 6 -26 15 0 27 -9 34 -25 7
-13 10 -25 9 -27 -2 -2 -81 0 -176 3 -168 6 -174 6 -190 -15 -17 -20 -16 -21
9 -29 33 -9 149 -10 195 -2 25 5 38 2 51 -10 15 -15 23 -16 64 -5 129 32 268
60 361 70 102 12 250 10 284 -5 16 -7 17 32 17 739 l0 746 -2400 0 -2400 0 0
-1800z"/>
<path d="M3805 2680 c-13 -6 -15 -9 -5 -9 8 0 22 4 30 9 18 12 2 12 -25 0z"/>
<path d="M3222 2528 c-14 -14 -16 -38 -4 -38 5 0 14 11 20 25 12 26 4 33 -16
13z"/>
<path d="M3539 2407 c-2 -21 1 -35 18 -74 l17 -38 7 30 c13 56 10 71 -16 83
-19 9 -25 9 -26 -1z"/>
<path d="M3326 2136 c-3 -13 -31 -57 -61 -97 -63 -82 -72 -113 -25 -79 45 32
120 129 120 155 0 12 -6 28 -14 34 -11 9 -15 7 -20 -13z"/>
<path d="M3720 2112 c0 -9 61 -34 68 -28 4 4 -52 36 -63 36 -3 0 -5 -4 -5 -8z"/>
<path d="M4770 2070 c19 -13 30 -13 30 0 0 6 -10 10 -22 10 -19 0 -20 -2 -8
-10z"/>
<path d="M4780 1560 c0 -5 5 -10 10 -10 6 0 10 5 10 10 0 6 -4 10 -10 10 -5 0
-10 -4 -10 -10z"/>
</g>
</svg>
