<?xml version="1.0" standalone="no"?>
<!DOCTYPE svg PUBLIC "-//W3C//DTD SVG 20010904//EN"
 "http://www.w3.org/TR/2001/REC-SVG-20010904/DTD/svg10.dtd">
<svg version="1.0" xmlns="http://www.w3.org/2000/svg"
 width="480.000000pt" height="360.000000pt" viewBox="0 0 480.000000 360.000000"
 preserveAspectRatio="xMidYMid meet">
<metadata>
Created by potrace 1.16, written by Peter Selinger 2001-2019
</metadata>
<rect width="1" height="360" fill="#000000"/>
<rect x="479" width="1" height="360" fill="#000000"/>
<rect width="480" height="1" fill="#000000"/>
<rect y="359" width="480" height="1" fill="#000000"/>
<g transform="translate(0.000000,360.000000) scale(0.100000,-0.100000)"
fill="#000000" stroke="none">
<path d="M2774 2359 c-22 -4 -57 -14 -76 -22 -19 -8 -58 -20 -87 -26 -78 -17
-192 -75 -233 -119 -21 -23 -58 -48 -85 -58 -133 -50 -189 -119 -212 -264 -23
-139 -7 -301 46 -485 78 -271 202 -408 408 -452 121 -26 189 -14 333 57 120
58 162 71 162 50 0 -9 84 -165 96 -179 2 -2 15 -1 29 3 32 8 33 35 2 73 -13
15 -36 49 -51 75 -33 57 -27 76 36 103 122 54 244 168 298 279 33 67 60 176
60 246 0 174 -154 416 -370 578 -159 120 -258 159 -356 141z"/>
</g>
</svg>
