<?xml version="1.0" standalone="no"?>
<!DOCTYPE svg PUBLIC "-//W3C//DTD SVG 20010904//EN"
 "http://www.w3.org/TR/2001/REC-SVG-20010904/DTD/svg10.dtd">
<svg version="1.0" xmlns="http://www.w3.org/2000/svg"
 width="480.000000pt" height="360.000000pt" viewBox="0 0 480.000000 360.000000"
 preserveAspectRatio="xMidYMid meet">
<metadata>
Created by potrace 1.16, written by Peter Selinger 2001-2019
</metadata>
<rect width="1" height="360" fill="#000000"/>
<rect x="479" width="1" height="360" fill="#000000"/>
<rect width="480" height="1" fill="#000000"/>
<rect y="359" width="480" height="1" fill="#000000"/>
<g transform="translate(0.000000,360.000000) scale(0.100000,-0.100000)"
fill="#000000" stroke="none">
<path d="M1183 3505 c-132 -124 -306 -335 -290 -352 3 -3 43 20 89 50 93 62
165 94 295 133 72 22 115 27 234 31 162 6 245 -6 395 -56 279 -94 535 -376
625 -691 29 -100 44 -291 31 -394 -21 -158 -87 -334 -169 -450 -95 -133 -151
-287 -172 -476 -25 -227 47 -509 177 -685 164 -223 406 -381 662 -431 104 -20
296 -20 395 1 131 27 282 80 338 118 77 52 -33 -92 -177 -233 -31 -30 -56 -58
-56 -62 0 -4 279 -8 620 -8 l620 0 0 857 0 857 -70 -139 c-38 -77 -80 -158
-92 -180 -117 -205 -199 -331 -330 -505 -76 -101 -158 -194 -158 -179 0 3 31
68 69 145 101 202 144 318 189 504 59 242 78 428 64 623 -27 368 -126 668
-325 992 -114 185 -362 439 -556 569 l-83 56 -1111 0 -1112 0 -102 -95z m2143
-2016 c127 -57 178 -177 133 -313 -27 -79 -55 -116 -114 -145 -43 -21 -56 -23
-127 -17 -95 8 -123 21 -173 78 -46 53 -63 91 -71 160 -8 67 9 129 45 171 28
31 114 81 156 90 33 8 107 -4 151 -24z"/>
<path d="M688 2928 c-77 -90 -159 -193 -212 -268 -162 -232 -288 -432 -376
-596 l-100 -189 0 -937 0 -938 623 0 c552 1 620 2 602 15 -11 9 -73 54 -138
102 -233 170 -414 387 -550 658 -137 273 -206 555 -222 905 -20 440 108 859
368 1204 59 78 76 106 63 106 -2 0 -28 -28 -58 -62z"/>
<path d="M1444 2559 c-218 -68 -231 -387 -19 -485 98 -46 225 -24 301 51 54
54 74 94 81 159 7 68 -27 144 -95 213 -75 75 -162 95 -268 62z"/>
</g>
</svg>
