<?xml version="1.0" standalone="no"?>
<!DOCTYPE svg PUBLIC "-//W3C//DTD SVG 20010904//EN"
 "http://www.w3.org/TR/2001/REC-SVG-20010904/DTD/svg10.dtd">
<svg version="1.0" xmlns="http://www.w3.org/2000/svg"
 width="480.000000pt" height="360.000000pt" viewBox="0 0 480.000000 360.000000"
 preserveAspectRatio="xMidYMid meet">
<metadata>
Created by potrace 1.16, written by Peter Selinger 2001-2019
</metadata>
<rect width="1" height="360" fill="#000000"/>
<rect x="479" width="1" height="360" fill="#000000"/>
<rect width="480" height="1" fill="#000000"/>
<rect y="359" width="480" height="1" fill="#000000"/>
<g transform="translate(0.000000,360.000000) scale(0.100000,-0.100000)"
fill="#000000" stroke="none">
<path d="M1843 2784 c-3 -9 2 -38 11 -63 10 -25 36 -109 58 -186 44 -157 56
-271 33 -317 -12 -25 -11 -36 9 -96 19 -57 27 -70 58 -85 33 -16 37 -23 47
-80 6 -34 10 -83 9 -109 -1 -31 6 -58 20 -81 l21 -36 -30 -6 c-40 -9 -36 -21
8 -32 37 -9 38 -10 60 -92 34 -132 38 -177 18 -222 -15 -33 -16 -44 -5 -81 6
-24 14 -55 17 -70 5 -27 4 -27 -28 -18 -19 6 -37 10 -41 10 -18 0 -6 -64 17
-94 14 -18 25 -44 25 -59 0 -14 11 -39 24 -55 17 -19 23 -36 19 -50 -3 -12 -1
-28 4 -35 21 -27 34 -111 27 -176 -4 -36 -8 -76 -8 -88 -1 -12 -4 -25 -8 -29
-13 -13 -9 -84 7 -114 8 -16 26 -40 40 -54 13 -13 27 -36 31 -50 5 -20 11 -25
24 -21 10 3 21 1 25 -5 8 -13 112 -80 124 -80 5 0 11 7 15 15 3 8 16 15 28 15
13 0 30 6 38 13 21 16 61 73 59 84 -1 4 -1 20 0 35 1 21 5 26 17 21 14 -5 15
-3 5 15 -6 11 -9 27 -6 35 3 7 1 26 -4 40 -12 31 -6 34 22 9 11 -9 18 -12 16
-7 -20 46 -38 77 -71 119 l-38 49 34 38 c60 65 69 93 61 173 -8 76 -9 117 -5
211 2 44 -4 81 -25 140 -23 68 -29 105 -36 245 -5 91 -10 175 -12 187 -2 12
-1 20 3 18 4 -2 7 17 6 43 0 26 2 70 4 97 2 28 0 63 -5 79 -6 22 -5 27 4 22 7
-5 5 7 -5 31 -11 23 -16 54 -13 78 2 22 4 81 4 130 -1 112 -21 170 -76 219
-33 30 -46 36 -85 36 -73 0 -126 -38 -174 -127 -17 -32 -21 -49 -16 -78 4 -20
13 -38 21 -41 28 -11 24 -30 -6 -26 -16 2 -36 -1 -44 -8 -19 -15 -26 -9 -40
33 -7 23 -19 34 -42 40 -22 7 -35 19 -42 38 -5 16 -14 29 -19 29 -5 0 -14 12
-20 28 -19 48 -71 234 -89 322 -17 80 -20 85 -46 88 -18 2 -29 -2 -34 -14z
m356 -736 c-1 -18 5 -49 14 -68 25 -61 29 -98 9 -109 -19 -10 -79 -3 -88 10
-12 20 -44 151 -39 160 4 5 14 9 23 9 9 1 28 7 42 15 36 20 39 19 39 -17z m3
-383 c10 -4 13 -16 10 -35 -4 -29 -22 -43 -22 -17 0 6 -3 22 -6 35 -7 23 -4
25 18 17z"/>
</g>
</svg>
