<?xml version="1.0" standalone="no"?>
<!DOCTYPE svg PUBLIC "-//W3C//DTD SVG 20010904//EN"
 "http://www.w3.org/TR/2001/REC-SVG-20010904/DTD/svg10.dtd">
<svg version="1.0" xmlns="http://www.w3.org/2000/svg"
 width="480.000000pt" height="360.000000pt" viewBox="0 0 480.000000 360.000000"
 preserveAspectRatio="xMidYMid meet">
<metadata>
Created by potrace 1.16, written by Peter Selinger 2001-2019
</metadata>
<rect width="1" height="360" fill="#000000"/>
<rect x="479" width="1" height="360" fill="#000000"/>
<rect width="480" height="1" fill="#000000"/>
<rect y="359" width="480" height="1" fill="#000000"/>
<g transform="translate(0.000000,360.000000) scale(0.100000,-0.100000)"
fill="#000000" stroke="none">
<path d="M1319 3528 c-12 -40 -32 -98 -45 -129 -13 -31 -24 -75 -24 -97 0 -23
-4 -43 -9 -47 -6 -3 -4 -16 4 -32 8 -15 12 -30 9 -35 -6 -10 34 -78 46 -78 13
0 33 -69 26 -94 -3 -12 -25 -42 -49 -67 -91 -92 -90 -107 24 -219 l91 -89 -9
-68 c-14 -119 -8 -352 10 -402 12 -29 17 -75 17 -140 0 -65 5 -104 15 -121 11
-20 26 -48 40 -77 1 -2 26 6 56 17 72 27 89 26 89 -5 0 -13 -7 -28 -16 -33
-11 -6 -17 -26 -19 -63 -1 -30 -4 -58 -6 -64 -2 -5 0 -58 5 -117 7 -100 6
-109 -16 -147 l-22 -39 23 -58 c24 -56 24 -59 11 -183 -7 -69 -14 -207 -16
-306 -1 -99 -3 -183 -3 -188 -1 -4 -28 -34 -61 -66 -72 -71 -76 -91 -21 -91
51 0 88 -14 95 -37 3 -10 8 -92 11 -183 3 -91 8 -189 11 -217 l5 -53 55 0 55
0 -5 87 c-3 49 -8 155 -11 236 l-6 148 31 30 c16 17 34 28 39 24 21 -12 68
-92 80 -135 15 -54 7 -94 -49 -262 -22 -64 -40 -119 -40 -122 0 -3 376 -6 835
-6 459 0 835 2 835 4 0 14 -34 182 -47 231 -28 109 -87 258 -154 395 -37 74
-65 138 -63 141 2 4 37 10 76 13 96 9 201 24 262 39 53 12 76 32 143 122 45
59 45 61 40 122 -5 55 -3 69 20 113 32 62 42 175 22 245 -17 58 -55 94 -154
146 -44 22 -85 45 -91 50 -18 15 -194 22 -262 11 -34 -6 -75 -20 -91 -31 -46
-33 -90 -135 -98 -230 -5 -45 -12 -83 -18 -84 -5 -1 -27 32 -48 73 l-38 75 7
185 c5 170 7 186 26 201 13 10 18 22 14 35 -13 43 -45 331 -40 360 5 25 2 32
-14 36 -15 4 -20 18 -26 70 -3 36 -4 73 0 81 5 15 106 97 118 97 3 0 2 -8 -1
-17 -6 -15 -4 -16 8 -6 27 22 66 115 89 213 18 79 21 111 16 190 l-6 95 34 50
c92 134 150 235 191 330 39 93 75 203 75 234 0 8 -284 11 -1029 11 l-1030 0
-22 -72z m1386 -1520 c8 -54 15 -112 15 -130 l0 -33 -42 42 -41 42 18 88 c18
90 26 115 31 98 2 -6 10 -54 19 -107z m-959 -1243 c24 -37 -5 -105 -46 -105
-21 0 -30 20 -30 65 0 18 3 40 6 49 9 25 51 19 70 -9z"/>
</g>
</svg>
