<?xml version="1.0" standalone="no"?>
<!DOCTYPE svg PUBLIC "-//W3C//DTD SVG 20010904//EN"
 "http://www.w3.org/TR/2001/REC-SVG-20010904/DTD/svg10.dtd">
<svg version="1.0" xmlns="http://www.w3.org/2000/svg"
 width="480.000000pt" height="360.000000pt" viewBox="0 0 480.000000 360.000000"
 preserveAspectRatio="xMidYMid meet">
<metadata>
Created by potrace 1.16, written by Peter Selinger 2001-2019
</metadata>
<rect width="1" height="360" fill="#000000"/>
<rect x="479" width="1" height="360" fill="#000000"/>
<rect width="480" height="1" fill="#000000"/>
<rect y="359" width="480" height="1" fill="#000000"/>
<g transform="translate(0.000000,360.000000) scale(0.100000,-0.100000)"
fill="#000000" stroke="none">
<path d="M1300 3553 c-12 -27 -25 -54 -28 -62 -4 -7 -43 -25 -87 -40 -145 -49
-210 -90 -199 -125 11 -36 45 -66 69 -60 18 4 26 -4 53 -54 18 -34 40 -100 52
-153 11 -52 26 -116 35 -143 23 -73 19 -116 -20 -212 -19 -47 -35 -89 -35 -91
0 -3 22 -2 48 2 l49 6 -13 -61 c-7 -35 -12 -125 -11 -209 1 -118 -2 -154 -15
-172 -22 -36 -38 -109 -45 -214 -4 -62 -2 -99 5 -107 15 -18 -2 -203 -22 -243
-33 -66 -44 -303 -15 -321 15 -9 0 -212 -19 -254 -23 -51 -30 -277 -10 -318
12 -24 14 -52 8 -148 -4 -66 -13 -139 -20 -164 -15 -57 -9 -285 8 -302 7 -7
12 -34 12 -60 l0 -48 35 0 c33 0 35 2 35 35 0 28 4 35 20 35 16 0 20 -7 20
-35 0 -32 2 -35 30 -35 28 0 30 3 30 37 0 20 9 56 20 79 17 35 21 64 22 187 2
125 0 148 -15 165 -25 27 -25 221 0 259 26 40 33 302 9 338 -25 37 -21 209 5
245 35 49 51 271 24 324 -21 39 -10 197 15 228 16 20 17 20 40 -36 28 -71 112
-205 182 -295 120 -151 478 -561 609 -696 l68 -70 -56 -92 c-49 -83 -59 -93
-84 -93 -37 0 -63 -27 -94 -95 -13 -30 -36 -70 -50 -89 -35 -46 -65 -127 -65
-174 0 -27 -11 -54 -43 -102 -24 -36 -52 -77 -61 -92 l-18 -28 947 0 947 0 6
22 c11 44 144 302 175 341 29 38 31 39 39 17 4 -12 5 -26 2 -32 -4 -6 -1 -13
5 -17 8 -5 9 -16 3 -32 -12 -33 2 -80 33 -109 19 -18 28 -21 37 -12 7 7 26 12
44 12 23 0 36 7 49 27 16 24 19 25 30 10 17 -23 42 -21 55 4 10 17 19 20 57
16 35 -3 52 1 79 20 19 12 41 23 48 23 7 0 22 11 34 25 13 14 33 25 47 25 36
0 82 25 133 72 31 28 50 38 64 35 21 -6 43 11 140 105 l48 47 0 360 0 360 -57
21 c-43 16 -90 23 -178 27 -131 6 -113 -1 -215 85 l-32 28 24 9 c22 8 185 42
391 82 l67 13 0 229 0 229 -57 -6 c-32 -3 -102 -8 -155 -12 l-98 -6 0 41 c0
52 -45 107 -96 117 -44 8 -52 0 -29 -26 10 -11 16 -22 14 -24 -2 -3 -37 -14
-78 -25 -41 -11 -76 -23 -79 -25 -2 -3 -23 4 -45 15 -47 25 -83 15 -93 -26 -3
-14 -9 -25 -13 -25 -3 0 -50 46 -103 103 -142 152 -276 249 -383 276 -190 48
-401 87 -426 79 -8 -3 5 -11 29 -18 67 -21 50 -32 -38 -24 -102 9 -131 -1 -75
-26 l40 -18 -32 -7 c-18 -4 -33 -13 -33 -19 -1 -6 -22 -28 -48 -49 -77 -61
-148 -129 -129 -123 21 7 22 -2 0 -26 -9 -10 -11 -18 -5 -18 15 0 4 -54 -20
-100 -32 -60 -17 -71 21 -15 26 38 41 45 41 18 1 -13 5 -9 16 10 20 38 26 30
11 -14 -23 -67 -38 -81 -93 -86 -56 -6 -96 10 -152 58 -18 16 -37 29 -42 29
-17 0 -38 -44 -45 -93 -6 -46 -9 -50 -51 -68 -48 -22 -64 -43 -64 -87 0 -44
-28 -72 -78 -79 -23 -3 -42 -10 -42 -16 0 -6 -18 -37 -40 -68 -22 -32 -40 -67
-40 -79 0 -12 23 -64 51 -116 49 -91 79 -174 79 -222 0 -19 -8 -12 -47 35
-144 180 -311 355 -480 504 -104 92 -112 102 -117 142 -27 236 -42 333 -81
527 -25 124 -45 229 -45 234 0 5 15 6 34 3 49 -8 64 13 28 40 -29 22 -121 187
-110 198 3 4 24 9 46 12 25 3 39 10 36 17 -4 11 54 46 76 46 6 0 10 -9 10 -21
0 -92 80 -267 164 -356 72 -78 113 -102 251 -153 59 -21 112 -43 117 -48 5 -5
18 -45 27 -88 19 -84 50 -157 66 -157 6 0 15 10 20 22 6 12 21 24 35 27 84 17
85 17 92 64 3 25 7 68 7 96 1 61 4 64 128 133 197 111 295 266 309 490 9 145
-21 243 -111 361 -39 51 -42 59 -40 111 1 40 8 65 24 88 l22 31 -581 0 c-573
0 -581 0 -570 -20 6 -10 16 -23 24 -27 7 -4 32 -24 54 -44 l42 -36 -58 14
c-31 7 -70 17 -87 22 -16 5 -55 13 -85 16 -30 4 -60 11 -65 16 -24 18 -155 59
-193 59 -38 0 -41 -2 -62 -47z m-84 -272 c-5 -34 -15 -61 -20 -61 -19 1 -99
45 -103 57 -4 12 115 76 127 68 3 -2 2 -31 -4 -64z m84 -1047 c0 -19 -4 -34
-10 -34 -5 0 -10 18 -10 41 0 24 4 38 10 34 6 -3 10 -22 10 -41z m-5 -150 c13
-3 26 -11 28 -18 6 -15 -12 -129 -21 -138 -4 -4 -24 -1 -46 5 l-38 12 6 55
c10 83 16 102 33 96 8 -4 25 -9 38 -12z m-26 -286 c-2 -77 -14 -133 -29 -133
-11 0 -14 12 -12 55 4 79 12 110 28 110 9 0 14 -11 13 -32z m-12 -248 l26 0
-6 -82 c-4 -45 -10 -85 -14 -88 -5 -4 -27 -5 -50 -2 l-42 4 6 67 c8 85 18 115
39 107 9 -3 27 -6 41 -6z m-30 -366 c-5 -88 -10 -105 -28 -87 -6 6 -7 40 -3
91 5 63 10 82 22 82 12 0 14 -14 9 -86z m19 -369 c-4 -16 -14 -20 -52 -21
l-47 -2 7 67 c3 36 6 79 6 94 0 25 3 27 35 25 19 -1 38 2 42 6 9 9 17 -138 9
-169z m-33 -178 c10 -42 -2 -128 -18 -128 -6 1 -11 39 -13 87 -2 66 0 85 10
82 7 -3 17 -21 21 -41z m37 -335 c0 -42 -4 -82 -8 -88 -4 -6 -26 -15 -48 -18
-38 -7 -42 -5 -48 16 -7 29 -8 106 0 135 5 16 17 25 48 31 22 5 44 7 49 5 4
-2 7 -39 7 -81z"/>
</g>
</svg>
