<?xml version="1.0" standalone="no"?>
<!DOCTYPE svg PUBLIC "-//W3C//DTD SVG 20010904//EN"
 "http://www.w3.org/TR/2001/REC-SVG-20010904/DTD/svg10.dtd">
<svg version="1.0" xmlns="http://www.w3.org/2000/svg"
 width="480.000000pt" height="360.000000pt" viewBox="0 0 480.000000 360.000000"
 preserveAspectRatio="xMidYMid meet">
<metadata>
Created by potrace 1.16, written by Peter Selinger 2001-2019
</metadata>
<rect width="1" height="360" fill="#000000"/>
<rect x="479" width="1" height="360" fill="#000000"/>
<rect width="480" height="1" fill="#000000"/>
<rect y="359" width="480" height="1" fill="#000000"/>
<g transform="translate(0.000000,360.000000) scale(0.100000,-0.100000)"
fill="#000000" stroke="none">
<path d="M798 3593 c7 -3 16 -2 19 1 4 3 -2 6 -13 5 -11 0 -14 -3 -6 -6z"/>
<path d="M850 3598 c0 -3 15 -38 34 -79 18 -41 39 -105 45 -144 7 -38 22 -113
35 -165 36 -143 40 -188 21 -240 -10 -25 -26 -70 -37 -100 -11 -30 -24 -60
-29 -66 -10 -12 30 -24 78 -24 18 0 24 -4 20 -14 -17 -43 -28 -151 -26 -240 4
-126 -9 -256 -27 -277 -36 -41 -73 -274 -55 -349 8 -35 7 -74 -6 -170 -9 -69
-20 -128 -25 -131 -33 -22 -76 -380 -50 -411 7 -9 7 -29 2 -58 -5 -25 -11 -83
-15 -130 -5 -52 -14 -97 -25 -115 -45 -77 -78 -376 -46 -420 9 -13 11 -29 5
-54 -4 -20 -13 -83 -19 -141 -6 -58 -15 -109 -20 -115 -8 -10 -40 -124 -40
-144 0 -7 20 -11 50 -11 28 0 50 4 50 8 0 5 25 16 55 24 l55 15 0 -23 c0 -22
4 -24 51 -24 l52 0 -7 67 c-4 37 -12 73 -18 80 -14 18 8 269 26 298 24 38 36
87 52 213 16 128 14 220 -7 232 -16 11 17 266 40 299 21 32 37 99 51 211 14
120 13 170 -6 191 -14 15 -14 27 -5 88 6 38 11 92 11 119 0 36 5 54 20 67 11
10 20 24 20 32 0 28 18 11 35 -34 24 -65 108 -223 158 -297 57 -85 229 -302
437 -552 188 -224 189 -226 327 -379 l89 -100 -76 -125 c-73 -119 -79 -125
-115 -131 -45 -7 -67 -33 -95 -109 -22 -60 -20 -57 -68 -124 l-33 -46 1228 0
1228 0 33 37 32 38 -6 -37 -6 -38 236 0 236 0 0 599 0 599 -30 12 c-40 17 -40
48 0 61 l30 11 0 330 0 331 -56 -6 c-50 -5 -61 -3 -90 19 -33 25 -114 45 -114
28 0 -5 14 -20 31 -34 l30 -26 -39 -1 c-38 -2 -43 2 -82 53 -185 245 -384 414
-545 464 -22 7 -44 16 -50 20 -25 20 -178 62 -250 70 -44 4 -111 15 -149 24
-68 15 -102 12 -75 -5 9 -5 -12 -9 -53 -9 -76 0 -88 -13 -33 -36 19 -8 35 -18
35 -22 0 -12 -88 -52 -115 -52 -16 0 -23 -4 -19 -13 3 -9 -29 -39 -85 -81 -90
-66 -121 -96 -88 -83 26 10 20 -5 -14 -37 -18 -18 -26 -32 -20 -36 8 -4 6 -12
-4 -26 -21 -27 -18 -36 8 -29 18 6 15 0 -18 -34 -21 -22 -34 -41 -27 -41 7 0
12 -8 12 -17 1 -14 8 -10 30 15 29 31 77 58 87 48 9 -8 -58 -116 -77 -126 -49
-26 -133 3 -207 72 -45 42 -56 47 -73 38 -25 -13 -36 -35 -45 -85 -12 -69 -15
-73 -63 -91 -63 -23 -81 -40 -87 -83 -12 -72 -16 -81 -42 -98 -16 -11 -46 -18
-73 -18 -39 0 -45 -3 -48 -22 -2 -11 -25 -47 -53 -78 -64 -73 -64 -95 0 -223
45 -89 69 -165 86 -267 8 -48 15 -55 -120 115 -153 191 -233 280 -444 487
l-184 182 -8 116 c-9 131 -42 335 -100 624 -21 107 -39 201 -39 209 0 11 9 13
45 8 58 -9 73 14 31 47 -33 27 -116 171 -123 214 -5 31 -4 32 41 38 25 4 46
13 46 19 0 10 111 69 117 62 2 -1 10 -42 18 -89 20 -114 56 -203 122 -304 90
-138 180 -202 383 -274 52 -18 104 -42 116 -54 13 -13 26 -50 37 -104 18 -92
55 -180 75 -181 7 0 17 11 23 24 12 25 35 36 80 36 15 0 38 9 53 21 25 19 26
25 26 109 0 49 4 100 9 113 7 17 42 42 115 82 214 117 309 226 375 428 60 186
54 341 -21 495 l-31 62 -1027 0 -1027 0 -7 -40 c-3 -22 -9 -40 -12 -40 -6 0
-84 43 -119 66 -14 9 -25 14 -25 12z m249 -1261 c1 -41 -2 -48 -16 -45 -15 3
-17 12 -15 58 2 30 6 64 10 75 5 17 7 16 13 -10 4 -16 7 -52 8 -78z m-11 -191
l34 -11 -7 -60 c-3 -33 -10 -77 -16 -97 l-10 -37 -32 14 c-18 7 -40 16 -50 19
-16 5 -18 13 -12 63 12 100 24 136 43 127 9 -4 32 -12 50 -18z m-52 -403 c-4
-54 -10 -101 -12 -105 -3 -4 -14 -8 -25 -8 -22 0 -23 12 -8 113 14 94 15 97
35 97 15 0 16 -10 10 -97z m-16 -250 c18 4 20 0 20 -36 0 -52 -19 -170 -28
-179 -4 -4 -28 -2 -54 3 -45 10 -48 13 -48 42 0 33 17 152 25 174 3 9 12 10
35 2 17 -6 39 -9 50 -6z m-64 -429 c-9 -116 -14 -134 -38 -134 -19 0 -20 4
-13 87 8 102 18 133 41 133 15 0 16 -10 10 -86z m0 -364 c-4 -47 -11 -98 -16
-115 -9 -28 -13 -30 -60 -29 -28 1 -53 4 -56 6 -7 8 18 202 28 214 5 7 31 11
60 10 l50 -1 -6 -85z m-80 -377 c-9 -117 -14 -133 -38 -133 -19 0 -20 4 -14
78 11 126 16 142 38 142 20 0 20 -4 14 -87z"/>
</g>
</svg>
