<?xml version="1.0" standalone="no"?>
<!DOCTYPE svg PUBLIC "-//W3C//DTD SVG 20010904//EN"
 "http://www.w3.org/TR/2001/REC-SVG-20010904/DTD/svg10.dtd">
<svg version="1.0" xmlns="http://www.w3.org/2000/svg"
 width="480.000000pt" height="360.000000pt" viewBox="0 0 480.000000 360.000000"
 preserveAspectRatio="xMidYMid meet">
<metadata>
Created by potrace 1.16, written by Peter Selinger 2001-2019
</metadata>
<rect width="1" height="360" fill="#000000"/>
<rect x="479" width="1" height="360" fill="#000000"/>
<rect width="480" height="1" fill="#000000"/>
<rect y="359" width="480" height="1" fill="#000000"/>
<g transform="translate(0.000000,360.000000) scale(0.100000,-0.100000)"
fill="#000000" stroke="none">
<path d="M0 1800 l0 -1800 846 0 c802 0 846 1 839 18 -93 224 -186 576 -235
884 -48 302 -61 465 -67 815 -9 563 24 872 148 1383 36 147 117 437 134 483 7
16 -37 17 -829 17 l-836 0 0 -1800z"/>
<path d="M3101 3596 c2 -2 180 -39 394 -80 215 -42 433 -85 485 -96 164 -34
787 -150 804 -150 14 0 16 20 16 165 l0 165 -852 0 c-468 0 -849 -2 -847 -4z"/>
<path d="M2996 3353 c-23 -12 -45 -14 -102 -9 l-72 7 -22 -58 c-59 -155 -165
-463 -209 -607 -101 -331 -135 -502 -163 -806 -17 -199 -17 -884 0 -1050 33
-307 66 -461 148 -697 l46 -133 1089 0 1089 0 0 1504 0 1505 -52 11 c-90 18
-249 50 -328 65 -41 8 -151 30 -245 49 -93 20 -289 60 -435 90 -146 31 -308
64 -360 76 -180 39 -333 70 -344 70 -6 -1 -24 -8 -40 -17z"/>
</g>
</svg>
