<?xml version="1.0" standalone="no"?>
<!DOCTYPE svg PUBLIC "-//W3C//DTD SVG 20010904//EN"
 "http://www.w3.org/TR/2001/REC-SVG-20010904/DTD/svg10.dtd">
<svg version="1.0" xmlns="http://www.w3.org/2000/svg"
 width="480.000000pt" height="360.000000pt" viewBox="0 0 480.000000 360.000000"
 preserveAspectRatio="xMidYMid meet">
<metadata>
Created by potrace 1.16, written by Peter Selinger 2001-2019
</metadata>
<rect width="1" height="360" fill="#000000"/>
<rect x="479" width="1" height="360" fill="#000000"/>
<rect width="480" height="1" fill="#000000"/>
<rect y="359" width="480" height="1" fill="#000000"/>
<g transform="translate(0.000000,360.000000) scale(0.100000,-0.100000)"
fill="#000000" stroke="none">
<path d="M0 1800 l0 -1800 643 0 642 1 -27 20 c-20 15 -34 41 -50 92 -11 39
-31 81 -42 92 -12 12 -65 39 -118 59 -63 25 -100 46 -108 60 -16 31 -43 46
-98 52 -58 8 -92 28 -92 55 0 12 -13 28 -35 40 -19 12 -35 27 -35 34 0 8 26
33 57 57 51 38 57 48 58 81 2 43 20 65 84 106 49 31 62 36 301 107 326 98 403
132 541 242 112 89 329 302 329 322 0 27 -32 49 -80 55 -139 20 -160 85 -95
299 19 64 35 122 35 130 0 7 -12 39 -26 71 -29 63 -29 128 1 187 21 43 20 62
-5 55 -15 -4 -20 0 -20 16 0 16 -3 18 -12 9 -14 -14 -42 -16 -33 -2 3 5 0 7
-8 5 -7 -3 -19 5 -27 19 -7 14 -22 26 -34 28 -19 3 -21 8 -18 58 4 52 3 54
-13 35 -16 -20 -16 -19 -12 8 4 25 2 27 -32 27 -20 0 -55 11 -80 25 -23 14
-49 25 -56 25 -7 0 -28 -18 -45 -40 -41 -51 -72 -53 -134 -5 -54 41 -64 43
-68 13 -6 -41 -34 -32 -62 18 -14 25 -26 53 -26 60 0 8 14 58 31 111 64 200
172 377 309 506 98 92 285 214 408 266 53 23 111 48 127 55 36 16 226 52 350
67 249 29 550 -53 780 -212 107 -74 134 -106 142 -168 l6 -52 -41 7 -40 6 -11
-54 c-15 -73 -43 -91 -112 -73 -55 15 -66 8 -93 -55 -8 -19 -26 -46 -41 -60
-27 -25 -62 -28 -184 -17 -20 2 -32 -9 -62 -54 -51 -76 -91 -92 -204 -83 l-82
6 -32 -38 c-25 -30 -31 -45 -27 -67 4 -18 -2 -43 -14 -67 -26 -50 -24 -63 39
-235 32 -88 95 -275 104 -310 5 -22 13 -44 17 -50 4 -5 22 -55 39 -111 20 -66
40 -109 56 -124 13 -13 32 -48 41 -79 9 -31 20 -61 26 -68 6 -7 7 -30 3 -52
-6 -36 -3 -43 21 -66 65 -61 145 45 100 133 -23 45 -21 62 9 62 21 0 30 -9 50
-52 30 -64 31 -87 5 -137 -52 -103 -185 -108 -236 -9 -14 28 -18 29 -57 23
-23 -4 -49 -13 -58 -21 -8 -8 -21 -14 -28 -14 -7 0 -24 -9 -38 -20 -14 -11
-34 -20 -44 -20 -26 0 -32 -31 -20 -113 38 -267 53 -557 41 -807 -4 -77 -1
-111 8 -129 10 -17 17 -20 25 -12 26 26 127 -2 127 -35 0 -19 -84 -57 -108
-50 -15 5 -17 -5 -17 -119 l0 -125 1143 0 1142 0 0 1495 c0 1419 -1 1494 -17
1488 -17 -6 -17 -5 0 14 15 18 17 48 17 311 l0 292 -2400 0 -2400 0 0 -1800z
m3110 1725 c17 -9 30 -17 30 -19 0 -3 3 -11 6 -20 4 -11 1 -16 -11 -16 -28 0
-75 33 -75 52 0 22 12 23 50 3z m450 -198 c0 -6 -9 -2 -20 8 -11 10 -20 23
-20 28 0 6 9 2 20 -8 11 -10 20 -23 20 -28z m-3290 -7 l35 -18 -28 -11 c-35
-14 -58 -14 -91 -1 -32 12 -33 24 -3 38 31 15 47 14 87 -8z m3885 -106 c17
-13 18 -16 5 -24 -42 -27 -128 -22 -138 8 -9 29 98 43 133 16z m-3848 -84 c23
-18 24 -20 6 -20 -29 0 -83 20 -83 31 0 17 52 9 77 -11z m3932 -106 c2 -2 2
-6 -1 -9 -9 -9 -58 6 -58 17 0 9 49 3 59 -8z m71 -56 c11 -18 20 -51 20 -73
l0 -40 -23 35 c-19 29 -47 91 -47 106 0 2 7 4 15 4 8 0 24 -15 35 -32z m-3130
-107 c0 -30 -30 -61 -58 -61 -15 0 -32 39 -25 57 4 11 46 29 76 32 4 1 7 -12
7 -28z m-1025 -91 c-53 -23 -99 -34 -90 -21 6 11 90 40 115 39 8 0 -3 -8 -25
-18z m375 -140 c0 -14 -9 -12 -26 4 -20 21 -17 28 6 16 11 -6 20 -15 20 -20z
m2508 -82 c-5 -14 -50 -40 -57 -33 -2 3 4 14 14 25 20 22 49 27 43 8z m-2193
-287 c8 -14 -26 -81 -42 -81 -18 0 -16 41 3 68 16 23 29 28 39 13z m715 -94
c0 -21 -46 -59 -65 -55 -15 2 -12 9 16 36 35 34 49 40 49 19z m2550 -58 c13
-19 -2 -57 -23 -63 -52 -14 -67 -8 -67 27 0 18 6 39 13 46 13 14 67 7 77 -10z
m-3104 -307 c-22 -5 -30 3 -21 18 5 8 11 7 22 -2 15 -12 14 -13 -1 -16z m483
19 c25 -16 2 -29 -42 -24 -50 7 -56 11 -37 23 19 12 61 12 79 1z m2991 -578
c0 -5 -16 -28 -35 -52 -34 -43 -46 -42 -24 2 22 42 59 74 59 50z m-3062 -108
c-11 -11 -68 -23 -68 -15 0 5 8 11 18 13 25 7 56 8 50 2z m1213 -45 c23 -13
25 -28 4 -37 -16 -5 -55 22 -55 39 0 11 27 10 51 -2z m984 -51 c25 -9 75 -56
75 -70 0 -14 -35 -3 -97 33 -81 45 -66 71 22 37z m-3162 -290 c36 -30 50 -69
24 -69 -20 0 -75 52 -82 78 -9 32 13 28 58 -9z m3815 -45 c12 -8 22 -22 22
-30 0 -21 -33 -17 -59 7 -18 17 -20 23 -9 30 18 12 20 11 46 -7z m-3908 -329
c-26 -28 -80 -42 -105 -28 -15 9 -14 11 7 25 28 18 52 25 92 27 l29 1 -23 -25z
m738 -197 c17 -17 15 -23 -12 -36 -33 -15 -52 4 -29 30 19 21 25 22 41 6z
m-524 -40 c-19 -17 -37 -28 -41 -25 -8 8 58 67 69 61 4 -3 -8 -19 -28 -36z"/>
<path d="M2292 2458 c-23 -44 -42 -111 -43 -147 0 -33 -1 -34 -11 -13 -13 27
-24 28 -37 3 -10 -18 -37 -20 -73 -6 -24 9 -43 -28 -23 -45 8 -7 21 -10 29 -7
9 4 35 -14 68 -46 29 -29 93 -85 141 -126 49 -40 98 -88 109 -105 26 -42 19
-119 -21 -215 -43 -103 -42 -118 12 -123 23 -3 50 -8 60 -12 12 -6 17 -4 17 6
0 8 16 33 36 56 l36 42 -41 135 c-35 119 -45 139 -76 166 -37 33 -42 56 -10
51 22 -4 21 5 -39 218 -60 213 -53 196 -74 176 -23 -20 -46 -21 -38 -1 9 24
-9 17 -22 -7z"/>
</g>
</svg>
