<?xml version="1.0" standalone="no"?>
<!DOCTYPE svg PUBLIC "-//W3C//DTD SVG 20010904//EN"
 "http://www.w3.org/TR/2001/REC-SVG-20010904/DTD/svg10.dtd">
<svg version="1.0" xmlns="http://www.w3.org/2000/svg"
 width="480.000000pt" height="360.000000pt" viewBox="0 0 480.000000 360.000000"
 preserveAspectRatio="xMidYMid meet">
<metadata>
Created by potrace 1.16, written by Peter Selinger 2001-2019
</metadata>
<rect width="1" height="360" fill="#000000"/>
<rect x="479" width="1" height="360" fill="#000000"/>
<rect width="480" height="1" fill="#000000"/>
<rect y="359" width="480" height="1" fill="#000000"/>
<g transform="translate(0.000000,360.000000) scale(0.100000,-0.100000)"
fill="#000000" stroke="none">
<path d="M490 3591 c0 -5 -29 -25 -64 -45 -62 -35 -164 -137 -210 -210 -25
-40 -56 -160 -56 -218 0 -58 19 -148 31 -148 5 0 9 -6 9 -12 0 -7 13 -33 30
-58 16 -24 32 -57 35 -72 8 -36 23 -36 27 0 l3 27 25 -25 c71 -73 77 -84 74
-139 -2 -41 2 -59 17 -74 10 -11 24 -44 30 -73 11 -51 13 -53 26 -33 20 27 41
9 49 -42 7 -39 18 -50 27 -26 3 8 10 5 22 -10 18 -25 64 -31 109 -13 17 6 26
6 26 0 0 -6 -18 -17 -40 -26 -22 -9 -40 -20 -40 -24 0 -13 -69 -53 -124 -72
-27 -10 -56 -24 -66 -33 -9 -8 -20 -15 -24 -15 -23 0 -87 -56 -96 -86 -6 -19
-27 -52 -45 -74 -19 -23 -37 -58 -41 -78 -8 -44 -33 -102 -44 -102 -16 0 -58
88 -89 185 -18 55 -42 121 -53 147 -11 27 -18 51 -15 54 3 3 88 10 189 15 101
5 199 12 218 15 l35 7 -30 8 c-24 7 -335 28 -417 29 -17 0 -18 -63 -18 -1185
l0 -1185 624 0 623 0 -8 48 c-21 112 -54 191 -116 280 -25 35 -43 65 -41 68 3
2 26 -5 51 -16 89 -39 173 -22 239 50 35 39 35 48 0 96 -64 88 -168 163 -254
185 -40 9 -48 15 -48 34 0 58 126 356 198 469 18 28 32 56 32 65 0 20 -77 91
-99 91 -26 0 -34 -13 -69 -112 -17 -48 -42 -109 -55 -135 -14 -27 -28 -59 -32
-73 -11 -37 -75 -138 -91 -144 -9 -4 -17 8 -25 36 -16 60 5 198 63 411 l21 79
33 -7 c23 -4 34 -2 34 6 0 7 9 9 25 5 21 -5 24 -3 22 16 -2 20 2 23 33 22 19
0 55 -4 78 -9 43 -8 44 -7 31 13 -18 29 -10 33 44 23 37 -6 47 -5 47 5 0 7 -5
16 -10 19 -21 13 3 25 39 19 27 -4 42 -2 54 10 8 9 21 16 27 16 7 0 10 6 7 13
-19 47 -19 47 1 47 12 0 24 5 27 11 15 23 34 -28 35 -89 0 -35 4 -61 9 -58 11
7 21 -17 21 -50 0 -26 9 -31 27 -13 8 8 17 -3 34 -40 13 -28 27 -51 30 -51 4
0 10 15 13 34 9 50 34 54 41 8 9 -53 14 -64 24 -57 6 3 7 -9 4 -32 -10 -59 -9
-78 5 -75 8 1 12 -14 12 -53 0 -30 5 -55 10 -55 6 0 10 -11 10 -25 0 -14 5
-25 10 -25 6 0 10 -21 10 -47 0 -60 13 -84 29 -57 8 15 10 9 11 -34 0 -31 4
-51 9 -47 6 3 15 -21 22 -54 8 -44 15 -58 25 -54 13 5 18 -17 17 -65 -1 -19
11 -15 37 13 32 35 42 31 38 -12 -2 -26 1 -37 10 -35 6 1 12 -5 12 -13 0 -8 5
-15 10 -15 6 0 10 -11 10 -25 0 -33 13 -32 31 2 14 27 14 26 17 -36 3 -61 -6
-123 -24 -165 -6 -16 -4 -18 9 -13 20 7 23 -17 7 -57 -10 -28 5 -37 26 -16 7
7 17 -2 30 -30 12 -25 24 -38 32 -35 8 3 16 -3 19 -15 8 -30 17 -24 32 18 24
65 94 212 101 212 4 0 10 -24 13 -52 10 -91 26 -151 48 -174 15 -16 18 -28 13
-50 l-7 -29 38 35 38 35 -7 -27 c-5 -21 -3 -28 9 -28 8 0 15 -9 15 -20 0 -11
10 -30 21 -41 17 -17 20 -30 16 -65 -2 -24 -3 -44 0 -44 2 0 16 14 30 31 19
22 28 27 34 18 4 -7 5 -17 3 -21 -3 -5 -2 -17 1 -28 6 -20 16 -20 564 -20
l558 0 -37 142 c-53 203 -120 426 -190 633 -67 200 -71 220 -39 210 19 -6 21
-4 15 18 -4 19 -2 25 10 23 9 -1 19 -8 24 -15 6 -10 10 -9 19 5 6 11 11 13 11
7 0 -7 7 -13 15 -13 8 0 15 -4 15 -10 0 -5 5 -10 12 -10 6 0 19 -7 28 -15 9
-8 25 -16 36 -18 10 -1 25 -6 32 -10 9 -6 12 3 12 37 0 25 3 46 6 46 3 0 19
-14 36 -30 35 -36 45 -37 51 -7 l4 22 2 -23 c0 -13 6 -20 11 -17 6 3 10 2 10
-4 0 -6 6 -8 13 -5 7 2 26 -7 42 -21 22 -21 30 -24 37 -13 7 10 11 9 23 -6 14
-19 21 -11 16 18 -1 6 0 20 4 33 5 23 7 23 45 -17 22 -23 40 -38 40 -35 0 4 7
2 15 -5 13 -11 15 -8 15 20 0 26 3 30 13 21 8 -6 17 -8 20 -4 4 3 18 -4 31
-16 29 -27 90 -36 80 -12 -21 51 -19 55 14 31 28 -21 82 -36 82 -24 0 19 -37
75 -134 204 -6 8 8 0 32 -19 56 -43 175 -94 231 -97 53 -4 56 -7 -84 100 -140
108 -320 272 -403 369 -85 99 -549 559 -686 681 -55 48 -116 96 -136 106 -78
40 -165 49 -418 43 -257 -6 -388 4 -514 38 -88 23 -90 24 -203 79 -112 54
-182 96 -218 132 -15 15 -35 28 -45 28 -9 0 -28 9 -42 20 -14 11 -28 20 -31
20 -4 0 -10 -21 -14 -47 -8 -53 -50 -124 -119 -198 l-46 -50 0 73 0 74 29 -7
28 -6 -28 58 c-15 32 -30 77 -32 101 -5 42 -5 43 14 26 19 -17 19 -16 4 32 -9
27 -31 112 -50 189 -74 298 -77 306 -177 468 -73 119 -144 199 -201 226 -40
20 -61 21 -290 21 -143 0 -247 -4 -247 -9z m-96 -788 c4 -13 3 -23 -2 -23 -11
0 -32 45 -32 68 0 14 2 13 14 -3 7 -11 16 -30 20 -42z m989 -377 c15 -30 27
-64 27 -74 0 -14 -24 -36 -80 -71 -108 -70 -110 -70 -110 -30 0 39 14 67 24
50 13 -21 25 -11 32 25 7 36 7 36 19 14 10 -19 13 -11 25 69 15 103 20 105 63
17z m-283 -165 c0 -19 17 -12 28 12 9 19 11 19 11 3 1 -14 4 -16 14 -7 11 9
12 1 4 -47 -12 -68 -8 -58 -33 -66 -19 -6 -23 -1 -33 46 -7 29 -15 64 -18 78
-6 23 -5 24 10 8 10 -9 17 -21 17 -27z"/>
</g>
</svg>
