<?xml version="1.0" standalone="no"?>
<!DOCTYPE svg PUBLIC "-//W3C//DTD SVG 20010904//EN"
 "http://www.w3.org/TR/2001/REC-SVG-20010904/DTD/svg10.dtd">
<svg version="1.0" xmlns="http://www.w3.org/2000/svg"
 width="480.000000pt" height="360.000000pt" viewBox="0 0 480.000000 360.000000"
 preserveAspectRatio="xMidYMid meet">
<metadata>
Created by potrace 1.16, written by Peter Selinger 2001-2019
</metadata>
<rect width="1" height="360" fill="#000000"/>
<rect x="479" width="1" height="360" fill="#000000"/>
<rect width="480" height="1" fill="#000000"/>
<rect y="359" width="480" height="1" fill="#000000"/>
<g transform="translate(0.000000,360.000000) scale(0.100000,-0.100000)"
fill="#000000" stroke="none">
<path d="M0 1800 l0 -1800 668 1 c660 1 667 1 627 19 -61 29 -137 36 -168 15
-34 -22 -50 -12 -35 21 11 23 8 29 -28 65 -38 38 -46 41 -135 54 -66 10 -97
19 -104 31 -26 43 -49 64 -90 84 -25 12 -45 27 -45 34 0 16 49 83 84 115 18
17 26 35 26 59 0 19 7 46 16 60 28 47 120 112 221 157 166 75 393 193 457 239
64 46 154 131 294 279 l83 88 -20 32 c-107 177 -104 158 -65 383 23 135 48
422 37 434 -2 2 -7 0 -11 -6 -4 -6 -14 -11 -22 -12 -8 0 -33 -4 -55 -8 l-40
-7 23 26 24 25 -53 0 c-44 1 -59 -4 -91 -30 -21 -17 -64 -38 -96 -47 -61 -18
-62 -21 -77 -113 -10 -67 -68 -118 -150 -133 -54 -9 -65 -21 -65 -67 0 -45
-21 -92 -47 -104 -10 -4 -45 -10 -78 -13 l-60 -6 0 -50 0 -50 -40 2 c-22 1
-47 3 -55 4 -35 2 -89 118 -115 245 -40 193 -27 414 34 600 36 112 135 313
195 397 l44 62 -102 98 c-105 103 -96 104 41 6 45 -33 85 -59 89 -59 4 0 38
31 76 69 100 101 248 209 374 274 193 98 359 133 593 125 131 -5 144 -7 181
-32 44 -29 51 -41 20 -31 -24 8 -24 5 -5 -42 18 -43 19 -89 3 -100 -7 -4 -31
-10 -53 -13 l-40 -5 3 -71 c4 -68 2 -73 -28 -107 -18 -21 -44 -38 -63 -42 -42
-9 -77 -32 -77 -50 0 -9 24 -30 53 -49 65 -43 108 -88 137 -146 37 -72 41 -98
24 -139 -23 -56 -100 -127 -79 -73 5 13 3 14 -6 5 -13 -13 -39 -115 -39 -157
0 -28 -1 -29 -15 -10 -14 18 -14 18 -15 -4 0 -13 -14 -38 -31 -55 -30 -30 -31
-30 -24 -7 4 14 10 31 13 39 7 17 -28 0 -48 -24 -13 -16 -14 -16 -20 0 -6 16
-7 16 -24 -1 -18 -17 -18 -18 0 -31 10 -7 24 -11 31 -9 21 8 41 -4 47 -27 3
-12 57 -68 119 -125 111 -100 126 -118 146 -173 13 -35 155 -149 186 -149 13
0 44 -17 69 -39 25 -22 55 -42 66 -46 18 -6 24 -17 21 -37 0 -4 11 -16 26 -28
46 -36 103 -2 103 62 0 52 -13 73 -60 103 -41 26 -51 51 -25 61 27 11 68 -7
106 -45 62 -62 65 -153 6 -217 -41 -44 -91 -54 -147 -29 l-39 18 -42 -37 c-24
-20 -49 -36 -56 -36 -7 0 -13 -7 -13 -16 0 -8 -15 -22 -32 -30 -18 -8 -44 -22
-58 -29 -14 -8 -44 -15 -68 -15 -28 0 -45 -5 -48 -14 -3 -8 2 -91 10 -183 33
-336 38 -440 32 -608 -6 -135 -4 -180 8 -220 16 -55 36 -235 36 -327 l0 -58
1175 0 1175 0 0 1800 0 1800 -2400 0 -2400 0 0 -1800z m3720 1761 c0 -15 -24
-29 -62 -36 -49 -9 -49 5 0 27 43 19 62 22 62 9z m-3510 -131 c0 -5 -3 -10 -7
-10 -5 0 -19 -3 -33 -6 -24 -5 -24 -5 -6 10 22 18 46 21 46 6z m1030 -250 c0
-12 -37 -12 -65 0 -15 7 -10 9 23 9 23 1 42 -3 42 -9z m3100 -34 c35 -11 39
-15 19 -15 -41 -1 -89 11 -83 20 7 12 11 11 64 -5z m-570 -68 c0 -16 -5 -38
-11 -50 -11 -20 -11 -20 -35 3 -28 26 -31 65 -7 91 15 17 17 17 35 2 10 -10
18 -30 18 -46z m615 -120 c14 -29 25 -70 25 -91 0 -21 5 -47 10 -58 17 -30
-11 -24 -43 9 -39 41 -59 128 -41 176 11 28 24 18 49 -36z m-881 -163 c-10 -8
-32 -14 -49 -14 -29 1 -28 2 10 14 53 18 63 18 39 0z m-3120 -124 c-7 -7 -58
46 -77 81 -15 26 -8 22 32 -22 27 -30 48 -56 45 -59z m463 37 c36 -33 30 -48
-20 -48 -45 0 -87 27 -87 55 0 25 79 19 107 -7z m2373 -213 c22 -12 23 -14 7
-20 -22 -9 -109 23 -101 36 7 12 57 3 94 -16z m-3073 -32 c7 -3 21 -19 29 -35
21 -41 8 -52 -51 -44 -37 6 -50 13 -66 39 -31 51 -26 60 27 52 26 -3 53 -9 61
-12z m2929 -6 c0 -1 8 -13 17 -27 23 -34 21 -57 -5 -64 -31 -7 -57 20 -65 69
-6 38 -6 38 23 31 16 -4 29 -8 30 -9z m-432 -183 c8 -31 -2 -84 -15 -84 -17 0
-26 43 -16 77 12 40 23 42 31 7z m-213 -30 c17 -8 29 -17 27 -20 -7 -6 -68 19
-68 28 0 11 7 10 41 -8z m1379 -85 c14 -26 5 -69 -15 -69 -24 0 -37 35 -23 64
14 31 24 33 38 5z m-3060 -134 c7 -9 10 -18 7 -22 -8 -7 -37 15 -37 28 0 14
16 11 30 -6z m-490 -59 c0 -20 -26 -40 -35 -26 -10 16 2 40 20 40 8 0 15 -6
15 -14z m70 -106 c0 -27 -45 -49 -63 -31 -9 10 -7 16 12 32 30 25 51 24 51 -1z
m2923 -67 c11 -6 -12 -33 -29 -33 -7 0 -25 5 -41 11 -27 10 -27 11 -9 25 17
12 54 11 79 -3z m-2451 -514 c39 -20 41 -22 23 -35 -28 -21 -71 -17 -101 9
-53 46 4 64 78 26z m1723 1 c3 -5 -3 -10 -14 -10 -11 0 -23 5 -26 10 -3 6 3
10 14 10 11 0 23 -4 26 -10z m1275 -221 c0 -10 -31 -12 -54 -3 -28 11 -17 20
19 16 19 -2 35 -8 35 -13z m148 -158 c35 -18 94 -71 78 -71 -8 0 -136 80 -136
86 0 9 23 3 58 -15z m-3758 -52 c0 -16 -8 -41 -17 -55 -16 -25 -17 -25 -30 -8
-19 26 -16 57 8 82 25 27 39 20 39 -19z m3401 -220 c19 -7 38 -15 43 -20 12
-11 -53 -49 -85 -49 -39 0 -120 31 -116 44 11 32 95 46 158 25z"/>
<path d="M1645 2220 c-3 -5 1 -10 9 -10 9 0 16 5 16 10 0 6 -4 10 -9 10 -6 0
-13 -4 -16 -10z"/>
<path d="M2370 1801 c0 -11 -12 -52 -26 -91 -15 -39 -25 -72 -23 -75 2 -2 36
2 76 8 58 9 73 15 77 32 14 50 6 70 -42 105 -60 45 -62 46 -62 21z"/>
</g>
</svg>
