<?xml version="1.0" standalone="no"?>
<!DOCTYPE svg PUBLIC "-//W3C//DTD SVG 20010904//EN"
 "http://www.w3.org/TR/2001/REC-SVG-20010904/DTD/svg10.dtd">
<svg version="1.0" xmlns="http://www.w3.org/2000/svg"
 width="480.000000pt" height="360.000000pt" viewBox="0 0 480.000000 360.000000"
 preserveAspectRatio="xMidYMid meet">
<metadata>
Created by potrace 1.16, written by Peter Selinger 2001-2019
</metadata>
<rect width="1" height="360" fill="#000000"/>
<rect x="479" width="1" height="360" fill="#000000"/>
<rect width="480" height="1" fill="#000000"/>
<rect y="359" width="480" height="1" fill="#000000"/>
<g transform="translate(0.000000,360.000000) scale(0.100000,-0.100000)"
fill="#000000" stroke="none">
<path d="M4223 3131 c-66 -38 -166 -102 -222 -143 -267 -193 -406 -285 -513
-339 -46 -23 -120 -63 -164 -90 -45 -27 -85 -49 -88 -49 -3 0 -6 15 -6 33 0
46 -36 80 -81 75 -19 -2 -32 -7 -29 -13 3 -5 8 -9 13 -8 15 6 6 -13 -22 -44
-16 -18 -34 -33 -40 -33 -6 0 -50 11 -97 25 -123 36 -168 33 -364 -21 -57 -16
-61 -19 -36 -24 l29 -5 -37 -17 c-20 -10 -36 -22 -36 -27 0 -5 -9 -13 -20 -16
-11 -3 -20 -11 -20 -16 0 -6 7 -6 19 1 33 17 34 11 5 -27 -36 -48 -53 -97 -53
-158 l-1 -50 20 25 20 25 0 -47 c0 -46 -1 -48 -27 -48 -66 0 -68 4 -68 93 0
68 -5 92 -27 140 -63 133 -150 200 -285 217 -43 6 -80 15 -82 21 -1 5 -11 18
-21 27 -9 9 -24 49 -33 89 -42 187 -177 331 -364 388 -106 32 -243 10 -339
-55 -181 -123 -303 -344 -292 -528 10 -151 123 -302 285 -380 68 -32 89 -37
165 -40 47 -2 107 0 132 6 39 8 48 7 62 -9 9 -11 25 -19 36 -19 10 0 18 -7 18
-15 0 -19 -9 -19 -34 0 -16 12 -23 12 -55 -1 -20 -8 -56 -32 -81 -52 -25 -21
-71 -51 -104 -67 -32 -16 -60 -35 -63 -42 -3 -7 0 -28 7 -47 10 -32 9 -39 -13
-68 -40 -52 -62 -115 -47 -133 18 -22 39 -18 52 10 6 14 19 25 28 25 13 0 77
-36 98 -55 8 -7 -10 -46 -33 -73 -22 -26 -23 -33 -13 -65 8 -28 17 -37 33 -37
20 0 22 -7 33 -166 8 -113 19 -183 32 -222 11 -31 20 -71 20 -90 0 -22 8 -40
24 -56 19 -17 26 -34 27 -70 3 -44 -4 -57 -33 -68 -8 -3 -13 -62 -10 -136 2
-42 7 -58 27 -76 22 -21 25 -29 19 -67 -4 -27 -15 -51 -27 -61 -18 -14 -22
-30 -25 -110 -4 -85 -2 -95 17 -112 33 -30 29 -99 -8 -134 -17 -16 -31 -42
-35 -64 -6 -33 -4 -38 12 -38 12 0 22 9 26 24 5 19 11 22 31 18 15 -2 25 0 25
7 0 6 5 11 10 11 6 0 10 -14 10 -31 0 -24 4 -30 17 -27 26 5 19 77 -8 99 -18
13 -19 22 -13 67 5 38 11 53 26 58 27 8 38 44 38 130 0 67 -3 77 -25 98 -20
19 -25 33 -25 73 0 43 3 51 25 61 24 11 25 15 25 106 0 73 -4 98 -16 110 -8 9
-19 16 -24 16 -5 0 -12 20 -16 45 -6 41 -4 47 24 74 27 24 42 29 109 35 43 4
109 14 147 22 38 8 71 13 73 11 2 -2 -8 -29 -21 -60 -43 -96 -50 -167 -42
-447 4 -140 10 -293 15 -339 6 -64 5 -90 -5 -110 -28 -53 -44 -51 391 -51
l405 0 0 27 c0 15 -11 39 -26 54 -53 56 -60 323 -10 434 33 75 87 165 99 165
4 0 5 -21 1 -46 -9 -60 8 -52 26 11 7 25 16 42 20 38 9 -9 74 -316 94 -441 13
-79 12 -81 -7 -84 -13 -2 -24 -15 -30 -33 -5 -16 -21 -46 -36 -65 -15 -19 -31
-41 -35 -47 -6 -10 50 -13 267 -13 l275 0 79 63 c94 76 150 137 159 172 3 14
4 58 2 98 -6 115 -44 178 -240 389 -51 56 -92 108 -92 117 4 46 37 281 54 382
22 127 54 245 102 383 26 72 33 84 39 67 5 -11 13 -21 18 -21 5 0 14 -13 20
-30 5 -16 16 -30 24 -30 16 0 57 36 57 50 0 6 5 10 11 10 23 0 119 117 156
190 9 19 25 44 34 55 9 11 22 38 29 60 7 22 19 50 27 62 9 13 17 61 20 118 6
90 5 97 -17 120 -29 31 -118 65 -168 65 -36 0 -133 -39 -162 -65 -16 -14 -110
-10 -110 5 0 10 80 78 215 184 55 44 114 92 131 108 21 19 34 26 39 19 9 -16
73 -41 103 -41 14 0 53 15 86 33 34 19 84 39 113 46 29 7 57 19 64 27 16 20
-12 59 -66 92 -25 15 -45 30 -45 33 0 4 15 10 34 13 19 4 45 15 58 26 l23 20
-24 20 c-13 11 -29 20 -37 20 -8 0 -14 4 -14 9 0 5 68 79 150 164 83 85 150
158 150 161 0 16 -36 0 -147 -63z m-1823 -1060 c0 -11 -4 -23 -10 -26 -6 -4
-10 5 -10 19 0 14 5 26 10 26 6 0 10 -9 10 -19z m-85 -173 c23 -10 25 -15 19
-57 l-6 -47 51 -34 c28 -19 51 -37 51 -40 0 -3 -25 -73 -56 -155 -56 -152 -89
-205 -127 -205 -10 0 -31 -7 -45 -15 -15 -8 -94 -28 -177 -45 -82 -16 -177
-39 -211 -49 l-61 -18 -17 136 -17 136 28 23 c17 13 24 25 18 30 -44 31 -71
148 -48 209 8 21 20 58 26 83 6 25 11 46 13 48 1 2 21 -10 45 -26 63 -42 132
-62 213 -62 75 0 134 21 213 74 43 29 52 31 88 14z m-939 -156 c-8 -9 -19 -13
-22 -9 -10 9 16 38 28 31 6 -4 4 -13 -6 -22z m199 -742 c3 -5 3 -15 -1 -21 -6
-11 -23 6 -24 24 0 10 18 9 25 -3z m65 -312 c0 -61 -11 -88 -23 -55 -3 9 -9 9
-25 0 -26 -16 -32 -2 -32 78 0 60 6 69 29 47 11 -11 15 -10 24 4 18 27 27 2
27 -74z m-26 -279 c13 11 16 9 22 -14 7 -29 1 -122 -10 -132 -3 -4 -12 2 -20
12 -9 12 -15 15 -20 7 -22 -36 -38 10 -29 85 5 46 7 50 23 40 14 -8 22 -8 34
2z"/>
</g>
</svg>
