<?xml version="1.0" standalone="no"?>
<!DOCTYPE svg PUBLIC "-//W3C//DTD SVG 20010904//EN"
 "http://www.w3.org/TR/2001/REC-SVG-20010904/DTD/svg10.dtd">
<svg version="1.0" xmlns="http://www.w3.org/2000/svg"
 width="480.000000pt" height="360.000000pt" viewBox="0 0 480.000000 360.000000"
 preserveAspectRatio="xMidYMid meet">
<metadata>
Created by potrace 1.16, written by Peter Selinger 2001-2019
</metadata>
<rect width="1" height="360" fill="#000000"/>
<rect x="479" width="1" height="360" fill="#000000"/>
<rect width="480" height="1" fill="#000000"/>
<rect y="359" width="480" height="1" fill="#000000"/>
<g transform="translate(0.000000,360.000000) scale(0.100000,-0.100000)"
fill="#000000" stroke="none">
<path d="M1461 3563 c-40 -142 19 -341 135 -463 59 -62 119 -99 207 -126 31
-10 57 -21 57 -25 0 -11 -146 -22 -210 -16 -68 8 -94 -7 -107 -61 -6 -24 -26
-45 -78 -85 -70 -52 -87 -82 -55 -97 8 -4 24 -11 35 -17 25 -12 85 -131 92
-182 3 -23 -1 -49 -10 -67 -8 -16 -18 -44 -22 -62 l-7 -33 35 6 35 7 5 -84 c3
-45 11 -109 18 -140 11 -51 10 -60 -4 -76 -13 -15 -17 -39 -17 -109 0 -60 4
-93 12 -95 6 -2 14 -28 18 -57 5 -42 3 -56 -9 -69 -24 -24 -23 -199 2 -217 11
-8 19 -32 23 -73 6 -52 4 -63 -10 -68 -25 -10 -23 -157 4 -209 25 -49 27 -123
4 -140 -25 -18 -31 -148 -10 -198 18 -44 12 -93 -14 -107 -9 -5 -25 -36 -34
-69 -14 -49 -15 -68 -6 -101 15 -55 6 -76 -36 -90 -29 -10 -41 -22 -60 -64
-25 -54 -30 -91 -15 -101 17 -10 -22 -65 -46 -65 -12 0 -25 -4 -28 -10 -10
-16 -37 -12 -61 10 l-21 21 -64 -63 c-35 -35 -84 -87 -107 -116 l-44 -52 186
0 c102 0 186 3 186 6 0 3 -5 14 -10 25 -9 15 -6 26 15 53 26 34 32 61 15 71
-15 10 -12 21 16 54 19 23 34 31 59 31 30 0 38 6 59 43 36 62 42 94 21 117
-16 18 -17 21 -1 45 10 15 26 25 41 25 30 0 35 9 50 81 13 63 10 102 -10 119
-18 15 0 88 28 110 20 17 22 27 22 110 0 78 -3 94 -19 106 -29 21 -31 118 -4
144 18 17 20 28 16 109 -3 73 -8 95 -25 113 -27 31 -32 121 -8 145 23 23 18
188 -6 206 -9 7 -19 29 -23 51 l-7 38 78 -79 c79 -80 176 -156 381 -297 l112
-78 -22 -31 c-12 -18 -25 -34 -28 -37 -8 -8 -172 -239 -201 -285 -14 -22 -37
-58 -51 -81 -41 -64 -123 -233 -141 -289 -53 -162 -33 -284 72 -451 21 -32 32
-65 36 -110 l7 -64 59 0 c33 0 59 4 59 8 0 4 -16 24 -36 45 -35 36 -36 39 -23
65 7 15 23 38 35 52 12 14 38 49 57 78 41 63 38 69 63 -120 l17 -128 598 0
c330 0 599 2 599 4 0 2 -7 20 -15 40 -11 26 -13 46 -7 69 l9 32 13 -45 c19
-72 38 -100 64 -100 l23 0 -18 132 c-10 73 -37 241 -60 373 -65 369 -65 596
-1 600 12 1 35 14 50 28 16 15 32 27 37 27 18 0 181 178 215 236 35 57 35 60
38 190 3 98 -1 149 -12 195 -9 34 -13 66 -9 70 10 10 193 89 206 89 14 0 176
-121 198 -148 10 -14 21 -23 24 -20 6 6 -40 75 -79 117 -30 32 -28 34 20 15
12 -5 14 -1 9 19 -5 18 0 39 16 66 31 56 18 84 -59 119 -48 22 -75 27 -167 30
-60 2 -139 6 -175 7 -54 3 -72 -1 -116 -25 -38 -20 -55 -25 -63 -17 -17 17
-14 21 33 69 32 31 48 58 57 92 10 39 18 51 43 61 72 30 117 89 129 168 7 45
39 74 109 98 83 28 136 98 125 165 -3 19 -2 48 3 66 11 38 6 46 -16 27 -9 -7
-32 -12 -52 -11 -35 3 -35 2 -19 -16 17 -19 15 -22 -83 -86 -73 -49 -106 -66
-121 -61 -24 8 -50 -11 -42 -30 3 -10 -24 -33 -81 -70 -76 -49 -90 -55 -124
-49 -46 7 -71 -10 -81 -56 -5 -26 -20 -45 -64 -78 l-58 -44 -67 35 c-143 75
-238 90 -409 65 -85 -12 -101 -21 -60 -32 l22 -6 -25 -20 c-23 -18 -45 -28
-95 -45 -15 -5 -16 -8 -6 -14 11 -7 3 -22 -33 -69 -45 -59 -56 -79 -36 -67 16
10 12 -11 -5 -25 -8 -7 -15 -17 -15 -22 0 -6 7 -5 15 2 20 17 24 12 18 -27 -6
-37 -25 -42 -61 -17 -36 25 -56 11 -49 -37 4 -34 2 -42 -19 -56 -14 -8 -24
-25 -24 -38 0 -12 -7 -28 -15 -35 -8 -7 -15 -19 -15 -28 0 -8 -9 -30 -21 -49
-27 -44 -22 -63 46 -158 l55 -77 -19 -23 -18 -24 -84 62 c-122 90 -217 151
-324 208 l-95 51 0 48 c0 42 -55 337 -76 407 -5 18 -1 25 19 32 l26 10 -34 50
c-39 59 -55 113 -34 120 7 2 36 26 64 52 l51 48 19 -35 c31 -57 127 -140 192
-164 51 -19 70 -21 155 -16 l96 6 37 -51 c32 -45 39 -50 63 -44 23 6 82 41 82
50 0 2 -9 24 -20 50 -11 26 -20 53 -20 60 0 8 23 44 50 80 73 96 83 125 84
230 1 151 -53 250 -171 317 -39 22 -53 36 -53 52 0 12 -4 26 -10 32 -6 6 -4
27 6 59 22 74 28 181 15 248 l-12 57 -479 0 -479 0 -10 -37z m61 -852 c-4 -38
-4 -38 -33 -28 -36 14 -36 20 -3 46 36 29 40 27 36 -18z m2388 -35 c0 -2 -7
-9 -15 -16 -13 -11 -14 -10 -9 4 5 14 24 23 24 12z m-237 -247 c-17 -29 -63
-69 -63 -55 0 7 70 86 77 86 3 0 -3 -14 -14 -31z m-182 -222 c-13 -12 -20 -15
-16 -7 14 26 28 41 33 35 3 -3 -5 -16 -17 -28z m-1867 -268 c5 -28 3 -38 -9
-43 -12 -4 -15 4 -15 46 0 57 14 55 24 -3z m41 -286 c18 2 20 -4 20 -53 l0
-54 -37 -1 -38 -2 0 64 c0 58 2 63 18 54 10 -5 27 -9 37 -8z m-8 -245 c-2 -13
-4 -3 -4 22 0 25 2 35 4 23 2 -13 2 -33 0 -45z m43 -113 c0 -7 3 -33 6 -57 l6
-46 -36 -4 c-41 -5 -46 3 -46 71 0 47 0 47 35 48 22 1 35 -4 35 -12z m9 -406
c1 -34 -2 -37 -31 -42 -18 -2 -34 -3 -36 -2 -2 2 -4 25 -5 51 -2 42 0 47 20
49 13 1 26 5 30 9 10 10 21 -23 22 -65z m-47 -299 c-4 -26 -9 -30 -34 -30 -25
0 -29 4 -26 22 3 19 21 30 59 37 3 1 4 -12 1 -29z m-112 -240 c4 0 7 -11 6
-25 -1 -27 -12 -33 -19 -12 -3 9 -7 9 -19 -1 -21 -17 -32 1 -18 29 7 12 17 18
27 15 8 -3 18 -6 23 -6z m-132 -249 c-8 -14 -14 -16 -24 -7 -9 9 -8 12 5 18
27 11 32 9 19 -11z"/>
</g>
</svg>
