<?xml version="1.0" standalone="no"?>
<!DOCTYPE svg PUBLIC "-//W3C//DTD SVG 20010904//EN"
 "http://www.w3.org/TR/2001/REC-SVG-20010904/DTD/svg10.dtd">
<svg version="1.0" xmlns="http://www.w3.org/2000/svg"
 width="480.000000pt" height="360.000000pt" viewBox="0 0 480.000000 360.000000"
 preserveAspectRatio="xMidYMid meet">
<metadata>
Created by potrace 1.16, written by Peter Selinger 2001-2019
</metadata>
<rect width="1" height="360" fill="#000000"/>
<rect x="479" width="1" height="360" fill="#000000"/>
<rect width="480" height="1" fill="#000000"/>
<rect y="359" width="480" height="1" fill="#000000"/>
<g transform="translate(0.000000,360.000000) scale(0.100000,-0.100000)"
fill="#000000" stroke="none">
<path d="M0 1800 l0 -1800 2400 0 2400 0 0 1800 0 1800 -2400 0 -2400 0 0
-1800z m2265 998 c3 -8 24 -13 50 -14 25 0 48 -4 51 -7 4 -3 -3 -22 -15 -41
-24 -38 -20 -44 25 -41 22 2 45 16 72 43 49 49 91 59 175 44 45 -8 73 -22 114
-54 30 -24 71 -54 89 -67 19 -13 34 -28 34 -32 0 -17 -47 -9 -94 16 -60 32
-92 33 -100 3 -14 -56 -9 -64 54 -83 67 -20 142 -77 134 -100 -4 -11 5 -16 35
-21 22 -4 38 -10 35 -15 -3 -5 4 -9 15 -9 12 0 21 -5 21 -10 0 -6 10 -15 23
-20 l22 -9 -24 0 c-23 -1 -24 -2 -6 -21 15 -17 16 -20 3 -20 -9 0 -21 -7 -29
-16 -8 -10 -22 -14 -39 -10 -40 8 -70 -3 -70 -26 0 -16 5 -19 24 -14 32 8 37
-2 45 -87 l6 -71 35 -8 c19 -4 75 -10 123 -14 60 -5 94 -12 105 -23 14 -15 14
-16 -6 -19 -11 -2 -19 -9 -17 -15 3 -7 1 -18 -4 -25 -7 -12 -27 -10 -112 8
-155 33 -159 33 -159 22 0 -14 53 -32 145 -47 73 -12 89 -11 209 11 179 33
386 31 386 -3 0 -9 6 -13 15 -9 11 4 15 -2 15 -21 0 -35 42 -73 75 -67 19 3
23 1 19 -11 -5 -11 -2 -13 12 -8 11 4 15 3 11 -4 -4 -6 3 -14 16 -17 20 -6 20
-7 5 -17 -22 -12 -23 -35 -3 -43 21 -8 19 -36 -2 -36 -16 0 -16 -2 -3 -11 12
-8 12 -12 2 -16 -10 -4 -10 -8 -1 -19 9 -11 8 -14 -7 -14 -14 0 -16 -2 -6 -9
20 -12 -27 -22 -49 -10 -25 13 -39 11 -39 -5 0 -8 -18 -23 -40 -33 -28 -14
-36 -23 -28 -31 16 -16 -49 -8 -97 13 l-40 17 40 -37 40 -36 -60 39 c-63 41
-113 56 -307 86 -53 9 -121 26 -151 40 -63 28 -184 40 -179 18 1 -7 8 -33 14
-57 22 -82 -31 -131 -70 -65 l-18 29 -13 -34 c-23 -66 -56 -40 -64 50 -3 33
-6 61 -6 61 -5 11 -106 12 -182 2 -91 -11 -100 -11 -119 7 -12 11 -19 28 -18
44 3 25 2 26 -97 37 -101 12 -369 26 -327 17 12 -2 27 -13 32 -23 6 -12 26
-21 56 -26 34 -5 44 -10 40 -21 -3 -8 -6 -18 -6 -23 0 -11 -155 31 -235 64
-75 30 -135 42 -135 27 0 -6 -7 -11 -16 -11 -8 0 -12 -4 -9 -10 3 -5 0 -10 -8
-10 -15 0 -41 26 -50 51 -4 12 -24 18 -74 22 -59 6 -72 10 -95 37 -57 62 -15
72 194 46 134 -18 394 -43 533 -51 l100 -7 27 29 c15 15 49 68 76 118 l50 90
-19 24 c-10 13 -19 29 -19 36 0 6 -7 35 -15 63 -13 43 -22 55 -48 65 -68 29
-75 76 -15 110 36 21 37 21 58 2 13 -12 20 -29 18 -45 -2 -27 40 -120 54 -120
5 0 8 11 8 24 0 14 5 28 11 31 36 23 23 99 -15 89 -15 -3 -26 3 -41 26 -11 17
-19 37 -17 45 2 8 -2 15 -9 15 -17 0 -125 70 -175 114 -67 59 -53 97 25 72
l24 -8 -20 28 c-28 41 -33 60 -20 73 15 15 36 14 42 -1z"/>
<path d="M2710 2278 c0 -26 24 -87 36 -92 8 -3 20 7 29 24 8 16 24 35 35 43
19 13 20 15 3 20 -10 2 -27 8 -37 13 -14 5 -17 4 -12 -4 9 -15 5 -15 -28 -2
-18 7 -26 6 -26 -2z"/>
<path d="M2494 2135 c-7 -19 -14 -37 -14 -40 0 -3 -18 -33 -40 -65 -46 -68
-62 -120 -36 -120 22 0 136 99 159 137 l18 31 -31 46 c-17 25 -34 46 -36 46
-3 0 -12 -16 -20 -35z"/>
</g>
</svg>
