<?xml version="1.0" standalone="no"?>
<!DOCTYPE svg PUBLIC "-//W3C//DTD SVG 20010904//EN"
 "http://www.w3.org/TR/2001/REC-SVG-20010904/DTD/svg10.dtd">
<svg version="1.0" xmlns="http://www.w3.org/2000/svg"
 width="480.000000pt" height="360.000000pt" viewBox="0 0 480.000000 360.000000"
 preserveAspectRatio="xMidYMid meet">
<metadata>
Created by potrace 1.16, written by Peter Selinger 2001-2019
</metadata>
<rect width="1" height="360" fill="#000000"/>
<rect x="479" width="1" height="360" fill="#000000"/>
<rect width="480" height="1" fill="#000000"/>
<rect y="359" width="480" height="1" fill="#000000"/>
<g transform="translate(0.000000,360.000000) scale(0.100000,-0.100000)"
fill="#000000" stroke="none">
<path d="M0 1800 l0 -1800 323 0 c270 1 319 3 305 14 -10 7 -18 17 -18 21 0 4
-11 20 -24 36 -13 15 -36 60 -51 99 -24 64 -27 81 -23 169 2 70 8 105 21 124
9 14 17 32 17 39 1 63 257 304 387 364 21 10 40 20 43 24 10 11 116 50 138 50
29 0 28 -18 -3 -30 -13 -5 -32 -16 -42 -25 -10 -9 -45 -37 -78 -62 -166 -125
-268 -254 -309 -392 -33 -111 -16 -288 35 -388 l22 -43 1651 0 c908 0 1656 4
1661 8 6 4 21 39 35 77 22 61 25 85 24 190 -2 130 -15 181 -77 295 -35 64
-147 184 -227 242 -30 23 -67 53 -81 67 -14 14 -45 37 -68 51 -55 32 -52 44 7
21 61 -25 270 -136 292 -156 9 -8 21 -15 26 -15 22 0 182 -170 221 -235 100
-167 97 -315 -10 -476 -20 -31 -37 -59 -37 -63 0 -3 144 -6 320 -6 l320 0 0
1800 0 1800 -2400 0 -2400 0 0 -1800z m2722 12 c20 -41 9 -82 -29 -112 -34
-27 -59 -25 -90 6 -21 21 -24 32 -20 61 9 53 43 85 87 81 28 -2 38 -9 52 -36z
m-580 1 c55 -48 2 -156 -68 -139 -64 16 -83 88 -36 136 31 30 71 32 104 3z
m1133 -45 c18 -35 19 -38 3 -72 -10 -19 -31 -42 -48 -51 -27 -14 -33 -14 -59
-1 -49 26 -60 95 -22 140 39 45 96 38 126 -16z m-1690 -33 c37 -36 34 -86 -6
-119 -36 -30 -40 -31 -80 -11 -75 39 -54 155 28 155 23 0 42 -8 58 -25z m2189
-66 c30 -35 32 -58 11 -99 -15 -30 -52 -46 -90 -41 -33 4 -65 48 -65 88 0 81
92 114 144 52z m-2663 -48 c31 -31 35 -53 19 -97 -23 -60 -84 -72 -131 -25
-37 37 -38 79 -3 120 34 41 75 42 115 2z m3065 -140 c17 -10 37 -33 44 -51 36
-87 -99 -172 -163 -102 -47 51 -44 122 6 153 40 24 74 24 113 0z m-3443 -81
c30 -33 32 -45 17 -86 -15 -38 -39 -53 -83 -54 -31 0 -46 7 -73 34 -43 43 -44
77 -4 118 28 27 36 30 73 25 30 -4 50 -15 70 -37z m3661 -160 c32 -12 66 -65
66 -102 0 -38 -18 -74 -44 -87 -55 -28 -72 -30 -114 -11 -45 20 -57 37 -67 93
-7 35 -4 41 34 77 44 42 75 49 125 30z m-3827 -93 c46 -45 27 -138 -33 -165
-102 -47 -199 66 -132 154 33 43 39 45 91 41 35 -3 56 -11 74 -30z m613 -187
c0 -5 -10 -10 -22 -10 -19 0 -20 2 -8 10 19 13 30 13 30 0z m3131 -25 c41 -22
69 -71 69 -123 0 -37 -6 -50 -34 -78 -27 -27 -42 -34 -75 -34 -57 0 -90 18
-112 62 -34 67 -21 135 33 168 40 24 78 25 119 5z m-3629 -46 c59 -31 60 -139
3 -196 -32 -32 -36 -34 -87 -27 -90 11 -133 69 -103 141 37 89 112 121 187 82z
m1908 -169 c75 -16 188 -72 225 -110 26 -27 30 -39 30 -84 0 -74 -31 -111
-127 -153 -181 -78 -452 -82 -627 -8 -88 37 -108 51 -136 100 -29 49 -30 69
-7 112 54 101 244 166 467 159 66 -3 145 -10 175 -16z m1213 -93 c32 -14 47
-35 66 -94 20 -64 -23 -141 -94 -169 -40 -15 -51 -15 -86 -4 -53 18 -79 60
-79 131 0 111 94 177 193 136z m-2657 -23 c50 -24 68 -64 61 -136 -6 -67 -37
-117 -86 -138 -39 -16 -73 -7 -112 28 -63 56 -44 195 33 242 40 24 60 25 104
4z m787 -205 c150 -37 111 -299 -45 -299 -44 0 -102 49 -114 95 -20 82 42 200
114 214 2 1 22 -4 45 -10z m1022 -9 c42 -26 65 -75 65 -139 0 -97 -48 -151
-133 -151 -104 0 -166 117 -121 229 30 75 120 104 189 61z"/>
</g>
</svg>
