<?xml version="1.0" standalone="no"?>
<!DOCTYPE svg PUBLIC "-//W3C//DTD SVG 20010904//EN"
 "http://www.w3.org/TR/2001/REC-SVG-20010904/DTD/svg10.dtd">
<svg version="1.0" xmlns="http://www.w3.org/2000/svg"
 width="480.000000pt" height="360.000000pt" viewBox="0 0 480.000000 360.000000"
 preserveAspectRatio="xMidYMid meet">
<metadata>
Created by potrace 1.16, written by Peter Selinger 2001-2019
</metadata>
<rect width="1" height="360" fill="#000000"/>
<rect x="479" width="1" height="360" fill="#000000"/>
<rect width="480" height="1" fill="#000000"/>
<rect y="359" width="480" height="1" fill="#000000"/>
<g transform="translate(0.000000,360.000000) scale(0.100000,-0.100000)"
fill="#000000" stroke="none">
<path d="M0 1800 l0 -1800 898 0 898 0 13 57 c7 32 17 78 23 103 9 41 10 106
4 168 -1 12 -8 28 -14 34 -7 7 -12 20 -12 31 0 10 -5 15 -10 12 -20 -12 -9 35
19 83 16 27 32 69 36 93 8 50 112 255 189 374 102 157 135 210 146 240 8 21
11 132 10 360 -3 458 -4 433 22 437 19 3 30 25 74 155 l52 153 -29 44 c-16 24
-41 51 -54 60 -15 10 -25 26 -25 40 0 14 -11 38 -25 54 -14 17 -25 33 -25 38
0 4 -16 41 -36 83 -20 42 -48 111 -62 154 -21 65 -24 85 -16 125 8 43 12 48
45 56 58 14 104 0 162 -51 35 -31 59 -62 73 -97 l20 -51 56 1 c81 2 103 10
129 49 17 25 50 49 109 79 122 63 192 79 320 74 94 -4 114 -8 193 -42 49 -21
110 -44 135 -51 l47 -12 -32 -7 -33 -8 55 -44 c54 -44 66 -66 45 -79 -8 -5 -7
-11 1 -21 9 -11 9 -18 -1 -29 -8 -10 -10 -31 -6 -64 5 -39 3 -50 -9 -55 -10
-3 -13 -11 -9 -18 4 -6 8 -41 9 -77 1 -36 7 -91 13 -121 23 -109 23 -120 6
-150 -10 -15 -39 -38 -66 -51 -26 -12 -48 -29 -48 -36 0 -8 -7 -16 -16 -20
-11 -4 -14 -13 -9 -32 4 -14 12 -60 19 -101 l12 -75 77 -43 c59 -33 94 -62
149 -125 39 -45 108 -121 151 -169 104 -113 133 -158 159 -242 18 -60 20 -82
14 -170 -4 -56 -8 -117 -9 -136 l-2 -35 95 -33 c52 -18 101 -38 108 -45 17
-17 -3 -354 -23 -377 -12 -15 -19 -87 -32 -362 l-6 -128 412 0 411 0 0 1800 0
1800 -1115 0 -1115 0 0 -21 c0 -36 -23 -101 -37 -106 -8 -3 -33 2 -56 11 -53
20 -75 20 -120 1 -20 -8 -50 -15 -67 -15 -34 0 -47 22 -57 93 l-6 37 -1113 0
-1114 0 0 -1800z m2255 480 c-4 -6 -17 -10 -31 -10 -19 0 -24 5 -24 25 0 25 0
25 30 10 17 -9 28 -20 25 -25z"/>
<path d="M2687 288 c-3 -13 -21 -68 -41 -123 -19 -55 -36 -115 -36 -132 l0
-33 85 0 86 0 -27 45 c-20 35 -28 65 -35 142 -4 54 -8 104 -9 111 0 21 -17 13
-23 -10z"/>
</g>
</svg>
