<?xml version="1.0" standalone="no"?>
<!DOCTYPE svg PUBLIC "-//W3C//DTD SVG 20010904//EN"
 "http://www.w3.org/TR/2001/REC-SVG-20010904/DTD/svg10.dtd">
<svg version="1.0" xmlns="http://www.w3.org/2000/svg"
 width="480.000000pt" height="360.000000pt" viewBox="0 0 480.000000 360.000000"
 preserveAspectRatio="xMidYMid meet">
<metadata>
Created by potrace 1.16, written by Peter Selinger 2001-2019
</metadata>
<rect width="1" height="360" fill="#000000"/>
<rect x="479" width="1" height="360" fill="#000000"/>
<rect width="480" height="1" fill="#000000"/>
<rect y="359" width="480" height="1" fill="#000000"/>
<g transform="translate(0.000000,360.000000) scale(0.100000,-0.100000)"
fill="#000000" stroke="none">
<path d="M1895 2829 c-4 -6 -4 -27 0 -47 17 -89 33 -357 22 -377 -6 -11 -12
-41 -13 -67 -1 -27 -7 -55 -14 -63 -10 -12 -7 -30 19 -98 32 -85 43 -198 21
-212 -14 -9 -13 -81 2 -108 6 -12 15 -89 19 -172 7 -119 6 -152 -5 -160 -9 -7
-15 -50 -19 -140 -3 -82 -11 -147 -22 -175 -8 -25 -25 -80 -36 -124 -11 -43
-38 -112 -60 -153 -42 -81 -42 -90 5 -130 14 -13 26 -28 26 -34 0 -5 5 -7 10
-4 6 3 10 3 10 -2 0 -18 49 -63 68 -63 15 0 24 -8 28 -25 7 -30 8 -30 33 -9
10 9 34 18 52 19 17 2 36 10 41 19 15 27 52 57 64 52 8 -3 12 9 11 41 0 27 5
48 13 53 10 6 10 15 1 40 -14 42 -6 52 37 47 41 -6 62 -29 62 -68 0 -36 17
-48 92 -61 120 -22 156 -11 205 64 23 33 28 55 32 116 2 47 -1 83 -9 97 -8 15
-10 34 -5 52 13 50 6 124 -20 186 -29 71 -50 195 -60 346 -4 58 -11 115 -16
129 -8 19 -4 29 21 53 16 17 35 27 41 24 7 -5 10 1 8 16 -2 13 0 30 4 37 17
26 -59 392 -93 446 -11 19 -38 50 -60 70 -33 30 -48 36 -83 36 -56 0 -113 -37
-156 -100 -27 -39 -31 -54 -26 -81 6 -31 3 -36 -29 -53 -50 -27 -66 -17 -66
41 0 53 -6 66 -32 76 -10 3 -18 15 -18 25 0 10 -5 23 -11 29 -12 12 -31 312
-23 359 4 21 1 36 -11 47 -19 19 -51 22 -60 6z m226 -709 c13 -8 25 -7 40 0
31 17 34 5 8 -31 -20 -28 -21 -35 -10 -63 36 -89 33 -104 -16 -85 -15 6 -52
13 -81 14 -29 1 -58 7 -64 13 -7 7 -14 39 -16 72 l-4 60 33 15 c40 17 83 19
110 5z m-81 -275 c0 -8 -9 -53 -20 -101 -12 -48 -18 -94 -15 -102 4 -11 23
-13 85 -10 44 2 80 1 80 -2 -5 -81 -22 -199 -36 -237 l-17 -50 31 -68 c18 -37
30 -70 27 -73 -3 -3 -23 1 -45 8 -31 10 -43 10 -54 1 -20 -16 -33 27 -46 149
-5 52 -14 111 -20 130 -6 19 -13 108 -17 196 -6 154 -5 162 13 167 32 8 34 8
34 -8z m79 -789 l-1 -41 -13 30 c-8 17 -14 41 -15 54 0 20 2 21 15 11 9 -8 15
-28 14 -54z m75 -15 c7 -10 -22 -37 -30 -28 -9 8 3 37 15 37 5 0 12 -4 15 -9z"/>
<path d="M4757 353 c-20 -49 -43 -110 -51 -138 -13 -44 -36 -176 -36 -204 0
-7 26 -11 65 -11 l65 0 0 220 c0 121 -2 220 -4 220 -2 0 -19 -39 -39 -87z"/>
<path d="M0 219 c0 -70 2 -80 14 -69 29 23 38 75 22 114 -24 58 -36 44 -36
-45z"/>
</g>
</svg>
