<?xml version="1.0" standalone="no"?>
<!DOCTYPE svg PUBLIC "-//W3C//DTD SVG 20010904//EN"
 "http://www.w3.org/TR/2001/REC-SVG-20010904/DTD/svg10.dtd">
<svg version="1.0" xmlns="http://www.w3.org/2000/svg"
 width="480.000000pt" height="360.000000pt" viewBox="0 0 480.000000 360.000000"
 preserveAspectRatio="xMidYMid meet">
<metadata>
Created by potrace 1.16, written by Peter Selinger 2001-2019
</metadata>
<rect width="1" height="360" fill="#000000"/>
<rect x="479" width="1" height="360" fill="#000000"/>
<rect width="480" height="1" fill="#000000"/>
<rect y="359" width="480" height="1" fill="#000000"/>
<g transform="translate(0.000000,360.000000) scale(0.100000,-0.100000)"
fill="#000000" stroke="none">
<path d="M0 1800 l0 -1800 799 0 799 0 11 48 c30 117 241 248 466 288 65 11
65 12 65 163 0 75 5 208 10 296 9 143 14 189 36 287 5 21 2 27 -16 33 -38 12
-92 68 -116 120 -67 144 4 321 157 390 55 24 71 27 138 23 82 -5 143 -29 194
-77 96 -88 98 -250 6 -354 -39 -45 -39 -46 -19 -60 32 -22 69 -77 80 -117 14
-55 32 -276 39 -494 l6 -199 64 -13 c200 -41 362 -128 430 -230 17 -26 31 -60
31 -76 l0 -28 810 0 810 0 0 1800 0 1800 -2400 0 -2400 0 0 -1800z"/>
</g>
</svg>
