<?xml version="1.0" standalone="no"?>
<!DOCTYPE svg PUBLIC "-//W3C//DTD SVG 20010904//EN"
 "http://www.w3.org/TR/2001/REC-SVG-20010904/DTD/svg10.dtd">
<svg version="1.0" xmlns="http://www.w3.org/2000/svg"
 width="480.000000pt" height="360.000000pt" viewBox="0 0 480.000000 360.000000"
 preserveAspectRatio="xMidYMid meet">
<metadata>
Created by potrace 1.16, written by Peter Selinger 2001-2019
</metadata>
<rect width="1" height="360" fill="#000000"/>
<rect x="479" width="1" height="360" fill="#000000"/>
<rect width="480" height="1" fill="#000000"/>
<rect y="359" width="480" height="1" fill="#000000"/>
<g transform="translate(0.000000,360.000000) scale(0.100000,-0.100000)"
fill="#000000" stroke="none">
<path d="M0 1800 l0 -1800 815 0 814 0 6 38 c4 20 10 47 16 60 14 34 11 62 -6
62 -16 0 -18 46 -2 67 5 7 6 25 2 41 -5 24 -11 29 -35 30 -17 0 -30 -4 -30 -9
0 -23 -43 -5 -77 32 -20 22 -53 49 -72 59 -49 25 -158 140 -167 176 -4 16 -12
35 -18 43 -16 21 -20 202 -6 318 7 58 10 107 7 109 -11 11 -64 -27 -137 -95
-41 -39 -79 -70 -84 -68 -5 2 -19 30 -32 63 -23 63 -43 76 -85 54 -32 -17 -44
1 -44 68 0 56 0 56 -34 63 -52 11 -68 32 -53 72 7 18 12 58 12 88 0 76 7 83
68 74 81 -11 194 20 372 103 96 44 117 66 130 130 17 87 38 147 96 272 29 63
71 169 94 235 48 137 101 249 159 334 22 33 47 78 55 100 20 61 52 102 110
145 40 30 53 46 61 79 10 42 16 47 98 83 44 20 114 15 152 -10 14 -9 33 -34
43 -54 9 -20 40 -62 69 -93 40 -43 72 -97 137 -232 48 -97 90 -178 95 -181 11
-7 59 46 125 139 75 106 254 295 373 395 198 165 340 247 444 257 l56 5 29 62
c31 65 78 106 121 106 35 0 96 -34 127 -70 33 -40 35 -106 5 -160 l-22 -38 22
-39 c82 -146 105 -237 132 -513 25 -266 7 -369 -172 -955 -17 -55 -47 -130
-67 -167 -35 -64 -36 -68 -24 -110 7 -24 16 -56 20 -73 6 -25 21 -37 92 -73
47 -24 95 -52 107 -63 33 -32 110 -215 123 -291 16 -103 -2 -143 -53 -117 -12
7 -70 59 -129 117 -118 115 -108 114 -123 17 -3 -22 -21 -112 -40 -200 -69
-331 -69 -331 -28 -443 l16 -42 568 0 569 0 0 1800 0 1800 -2400 0 -2400 0 0
-1800z"/>
<path d="M1600 351 c0 -20 27 -48 36 -38 9 9 -6 45 -21 51 -10 3 -15 -1 -15
-13z"/>
</g>
</svg>
