<?xml version="1.0" standalone="no"?>
<!DOCTYPE svg PUBLIC "-//W3C//DTD SVG 20010904//EN"
 "http://www.w3.org/TR/2001/REC-SVG-20010904/DTD/svg10.dtd">
<svg version="1.0" xmlns="http://www.w3.org/2000/svg"
 width="480.000000pt" height="360.000000pt" viewBox="0 0 480.000000 360.000000"
 preserveAspectRatio="xMidYMid meet">
<metadata>
Created by potrace 1.16, written by Peter Selinger 2001-2019
</metadata>
<rect width="1" height="360" fill="#000000"/>
<rect x="479" width="1" height="360" fill="#000000"/>
<rect width="480" height="1" fill="#000000"/>
<rect y="359" width="480" height="1" fill="#000000"/>
<g transform="translate(0.000000,360.000000) scale(0.100000,-0.100000)"
fill="#000000" stroke="none">
<path d="M0 1995 l0 -1605 28 0 c15 0 77 4 137 10 61 5 166 14 235 19 568 46
939 81 1315 124 118 14 122 22 25 46 -59 16 -99 32 -98 40 3 27 -4 33 -31 28
-15 -3 -48 0 -73 8 -31 9 -49 10 -56 3 -16 -16 -123 11 -153 39 -14 12 -29 23
-35 23 -16 0 -64 -50 -65 -68 0 -12 -3 -10 -10 7 -5 13 -7 33 -4 45 3 12 2 15
-1 9 -8 -19 -24 -16 -24 4 0 9 8 40 17 69 18 58 13 75 -17 56 -11 -7 -20 -9
-20 -5 0 17 31 163 54 253 42 166 49 213 30 227 -15 11 -15 16 1 65 43 129
124 258 221 349 66 61 136 105 349 217 99 52 214 120 255 151 77 58 200 195
199 221 0 8 -41 47 -90 85 -109 85 -135 114 -149 166 -16 59 8 141 75 249 50
83 54 94 48 135 -5 36 -1 52 22 90 20 35 26 56 23 83 -6 52 18 159 47 208 26
44 47 94 41 94 -3 0 -28 -29 -56 -65 -53 -67 -72 -80 -63 -45 8 30 0 25 -37
-25 -19 -25 -37 -45 -42 -45 -4 0 -8 14 -8 31 0 21 -4 29 -12 26 -48 -19 -51
-20 -44 -9 10 17 -9 15 -45 -4 -38 -19 -43 -15 -24 22 19 37 19 48 -1 40 -13
-5 -15 -1 -10 19 6 24 5 25 -14 15 -26 -14 -25 -4 5 49 31 54 25 64 -15 26
-32 -30 -52 -27 -32 5 17 28 15 40 -7 40 -13 0 -18 5 -14 18 3 14 -8 22 -59
40 -61 22 -74 22 -508 22 l-445 0 -42 -107 c-68 -178 -108 -363 -133 -612 -25
-251 -9 -362 107 -740 65 -214 65 -216 -12 -381 -24 -52 -51 -122 -60 -155
-27 -106 -18 -233 27 -355 25 -71 54 -108 117 -151 28 -19 51 -39 51 -46 0 -7
21 -22 48 -34 46 -22 46 -23 18 -27 -50 -6 -159 18 -211 48 -104 60 -173 154
-226 307 -33 96 -33 101 -30 243 7 317 6 335 -8 370 -8 19 -38 89 -66 155 -93
215 -126 335 -150 547 -19 168 -19 246 0 433 18 181 39 306 69 420 l23 85
-194 0 -193 0 0 -1605z"/>
<path d="M2731 3591 c-7 -5 -10 -14 -6 -21 4 -7 -1 -13 -13 -17 -11 -2 -34
-22 -51 -43 l-30 -38 112 -27 c104 -24 333 -75 571 -126 54 -11 112 -18 130
-15 17 3 37 2 45 -3 9 -6 20 -2 32 10 23 23 48 25 55 4 4 -8 17 -15 29 -15 13
0 27 -4 30 -10 3 -5 15 -10 26 -10 11 0 22 -7 25 -15 4 -10 13 -13 26 -9 11 3
27 -1 37 -10 23 -21 633 -122 1024 -169 l27 -4 0 264 0 263 -1027 0 c-568 0
-1034 -4 -1042 -9z"/>
<path d="M2780 3288 c4 -18 17 -49 28 -69 12 -19 23 -54 25 -76 3 -31 18 -61
58 -115 29 -40 54 -74 55 -76 1 -2 13 3 26 12 12 8 57 24 98 35 170 45 289 79
323 92 33 12 37 17 37 50 l0 36 -87 17 c-49 10 -194 42 -324 72 -129 30 -238
54 -241 54 -3 0 -3 -15 2 -32z"/>
<path d="M3696 3070 c-32 -48 -115 -116 -176 -143 -127 -55 -452 -180 -502
-192 -49 -11 -66 -11 -110 0 -47 13 -53 13 -78 -5 -47 -34 -54 -47 -35 -66 15
-15 16 -30 10 -109 -7 -100 3 -143 43 -179 25 -21 38 -72 24 -89 -16 -19 35
-120 109 -217 84 -109 93 -123 124 -194 20 -45 22 -57 10 -53 -8 4 -15 2 -15
-4 0 -6 -6 -9 -14 -6 -8 3 -30 9 -49 12 l-34 7 12 -74 c32 -183 42 -400 29
-596 -6 -84 -9 -94 -36 -119 -16 -16 -44 -52 -63 -80 -32 -49 -38 -53 -74 -53
l-39 0 -11 -72 c-7 -40 -14 -88 -17 -105 -3 -18 -1 -33 3 -33 15 0 148 32 668
161 497 123 686 174 1075 289 96 29 192 57 213 63 l37 11 0 813 0 812 -42 11
c-24 6 -65 17 -93 25 -239 66 -898 225 -933 225 -5 0 -21 -18 -36 -40z"/>
<path d="M2252 2686 c-18 -20 -32 -39 -32 -43 0 -3 12 -16 28 -29 l27 -24 7
57 c5 32 7 62 5 67 -2 4 -17 -8 -35 -28z"/>
</g>
</svg>
