<?xml version="1.0" standalone="no"?>
<!DOCTYPE svg PUBLIC "-//W3C//DTD SVG 20010904//EN"
 "http://www.w3.org/TR/2001/REC-SVG-20010904/DTD/svg10.dtd">
<svg version="1.0" xmlns="http://www.w3.org/2000/svg"
 width="480.000000pt" height="360.000000pt" viewBox="0 0 480.000000 360.000000"
 preserveAspectRatio="xMidYMid meet">
<metadata>
Created by potrace 1.16, written by Peter Selinger 2001-2019
</metadata>
<rect width="1" height="360" fill="#000000"/>
<rect x="479" width="1" height="360" fill="#000000"/>
<rect width="480" height="1" fill="#000000"/>
<rect y="359" width="480" height="1" fill="#000000"/>
<g transform="translate(0.000000,360.000000) scale(0.100000,-0.100000)"
fill="#000000" stroke="none">
<path d="M0 2871 l0 -728 103 -17 c169 -27 383 -54 532 -67 131 -11 146 -10
235 9 52 12 133 33 180 48 77 24 105 27 288 31 155 4 237 1 345 -11 272 -33
579 -114 867 -228 135 -54 143 -57 334 -147 70 -34 132 -61 136 -61 19 0 16
43 -7 89 -24 47 -25 55 -14 113 12 68 58 173 116 263 20 32 34 63 31 71 -3 7
5 21 17 31 20 16 22 27 22 108 0 71 4 96 19 118 12 18 19 47 20 85 l1 57 43 9
c48 10 45 1 46 141 1 87 5 108 29 159 15 32 27 65 27 72 0 7 -19 18 -42 24
-91 23 -113 34 -116 62 -4 31 3 34 116 49 102 13 132 23 132 44 0 20 69 186
85 205 7 8 20 29 28 46 13 24 26 34 61 43 93 23 567 7 652 -22 35 -12 74 -53
87 -90 2 -7 31 13 68 46 102 93 211 144 245 116 8 -7 14 -31 14 -55 0 -48 33
-129 74 -183 l26 -35 0 167 0 167 -2400 0 -2400 0 0 -729z"/>
<path d="M4759 3216 c-3 -3 -27 -8 -54 -12 -28 -3 -53 -11 -57 -17 -4 -6 2
-26 13 -43 10 -17 19 -42 19 -55 0 -13 7 -37 15 -53 8 -15 15 -32 15 -36 0
-14 -61 -30 -134 -36 -39 -2 -93 -7 -121 -10 l-50 -5 3 -95 c2 -53 -1 -108 -7
-124 -8 -24 -7 -28 5 -23 27 10 14 -17 -27 -54 -41 -37 -76 -101 -62 -113 5
-4 28 -15 54 -24 87 -33 150 -112 151 -191 2 -77 -20 -130 -73 -180 l-49 -46
60 -50 c65 -55 120 -128 120 -161 0 -12 -7 -44 -16 -72 l-16 -52 62 -124 c104
-208 133 -292 134 -385 1 -96 -20 -150 -68 -170 -17 -8 -75 -26 -128 -40 -102
-28 -247 -80 -262 -95 -5 -5 -2 -18 7 -30 16 -23 11 -65 -12 -109 -11 -21 -10
-27 17 -55 16 -17 42 -49 58 -71 16 -22 32 -42 35 -45 36 -31 206 -330 249
-440 12 -30 27 -66 33 -80 6 -14 18 -45 27 -70 15 -43 18 -45 58 -48 l42 -3 0
1610 c0 1556 -1 1611 -18 1611 -10 0 -21 -2 -23 -4z"/>
<path d="M1220 1934 c-138 -27 -184 -40 -281 -84 -123 -57 -221 -80 -334 -80
-70 0 -73 -1 -84 -27 -32 -81 -55 -376 -67 -858 -9 -353 6 -555 58 -788 l21
-97 1051 2 1051 3 72 140 c77 150 143 309 218 525 26 74 71 182 101 238 l55
104 -18 45 c-12 31 -31 54 -58 72 -52 34 -71 56 -91 109 -17 42 -16 46 5 110
12 37 24 83 27 103 l6 36 -158 72 c-411 189 -763 302 -1099 352 -124 19 -422
33 -475 23z"/>
<path d="M4061 1593 c-16 -82 -51 -148 -115 -221 -45 -51 -56 -70 -56 -98 0
-19 4 -34 8 -34 20 0 227 31 270 40 79 18 202 61 202 72 0 5 -15 33 -34 61
-18 29 -50 80 -70 113 -35 58 -41 63 -96 78 -32 9 -63 23 -70 31 -20 25 -27
18 -39 -42z"/>
<path d="M4074 700 c3 -8 23 -79 46 -157 38 -136 127 -353 168 -410 11 -15 31
-52 46 -80 l26 -53 75 0 c42 0 75 4 75 10 0 38 -106 261 -182 384 -76 123
-272 359 -254 306z"/>
<path d="M0 77 l0 -77 30 0 c17 0 30 4 30 8 0 10 -50 135 -56 141 -2 2 -4 -30
-4 -72z"/>
</g>
</svg>
