<?xml version="1.0" standalone="no"?>
<!DOCTYPE svg PUBLIC "-//W3C//DTD SVG 20010904//EN"
 "http://www.w3.org/TR/2001/REC-SVG-20010904/DTD/svg10.dtd">
<svg version="1.0" xmlns="http://www.w3.org/2000/svg"
 width="480.000000pt" height="360.000000pt" viewBox="0 0 480.000000 360.000000"
 preserveAspectRatio="xMidYMid meet">
<metadata>
Created by potrace 1.16, written by Peter Selinger 2001-2019
</metadata>
<rect width="1" height="360" fill="#000000"/>
<rect x="479" width="1" height="360" fill="#000000"/>
<rect width="480" height="1" fill="#000000"/>
<rect y="359" width="480" height="1" fill="#000000"/>
<g transform="translate(0.000000,360.000000) scale(0.100000,-0.100000)"
fill="#000000" stroke="none">
<path d="M0 1800 l0 -1800 2400 0 2400 0 0 1800 0 1800 -2400 0 -2400 0 0
-1800z m2310 1015 c0 -10 10 -15 28 -15 15 0 34 -5 42 -10 12 -8 11 -13 -8
-39 -30 -41 -28 -51 9 -51 23 0 44 11 76 41 l45 41 82 -4 c79 -3 86 -5 152
-49 38 -25 79 -52 92 -58 12 -6 22 -16 22 -21 0 -17 -59 -11 -100 10 -48 25
-77 26 -83 3 -20 -74 -21 -71 37 -88 66 -19 136 -68 136 -95 0 -14 9 -21 35
-26 19 -3 32 -10 29 -15 -3 -5 4 -9 15 -9 12 0 21 -4 21 -8 0 -5 12 -13 28
-20 l27 -11 -33 3 -33 3 28 -24 c15 -14 21 -22 11 -19 -9 2 -22 -2 -29 -10 -8
-10 -26 -13 -60 -11 -41 4 -48 1 -53 -16 -3 -11 -11 -17 -18 -15 -7 3 -24 8
-38 12 -24 7 -24 6 -6 -8 25 -20 13 -20 -26 0 -18 9 -34 12 -39 7 -9 -9 16
-99 31 -108 4 -2 21 13 39 35 31 39 96 69 114 51 4 -4 10 -39 12 -77 5 -80 0
-77 135 -94 118 -14 127 -17 127 -35 0 -18 -8 -18 -98 -4 -39 6 -73 9 -75 6
-2 -2 17 -12 43 -22 27 -10 62 -24 79 -32 28 -12 42 -12 114 1 50 10 137 16
221 16 119 0 138 -2 133 -15 -4 -9 0 -15 9 -15 8 0 17 -13 20 -29 4 -18 14
-30 27 -34 14 -4 19 -10 14 -18 -5 -9 1 -10 26 -6 25 6 31 4 27 -8 -4 -10 -1
-12 10 -8 10 4 14 2 10 -4 -4 -6 3 -14 16 -18 18 -6 19 -8 5 -12 -22 -6 -31
-32 -13 -39 22 -9 20 -48 -2 -40 -15 5 -15 4 1 -9 12 -9 15 -15 7 -15 -11 0
-11 -3 -1 -15 10 -13 9 -15 -11 -16 -13 0 -19 -3 -12 -6 10 -3 10 -7 0 -18
-10 -11 -17 -10 -39 1 -31 16 -41 18 -34 6 7 -12 -28 -40 -59 -48 -24 -6 -24
-7 -8 -19 16 -12 14 -13 -17 -11 -19 2 -49 10 -67 19 -47 25 -52 21 -13 -13
48 -40 30 -38 -24 3 -45 35 -92 48 -304 82 -51 8 -114 26 -140 39 -28 14 -71
26 -102 28 -62 3 -58 10 -45 -88 7 -48 6 -53 -16 -64 -20 -11 -25 -10 -46 14
l-22 26 -16 -30 c-15 -29 -38 -39 -49 -21 -4 5 -8 38 -9 72 -4 63 -4 64 -38
71 -19 4 -67 3 -107 -2 -113 -15 -150 -13 -162 9 -5 11 -7 26 -4 34 6 18 -10
30 -45 33 -115 10 -313 24 -341 23 -31 0 -32 -1 -13 -9 13 -6 20 -15 17 -23
-3 -9 11 -22 41 -38 48 -26 49 -27 36 -47 -6 -11 -27 -4 -92 31 -46 25 -117
55 -156 67 -64 19 -76 20 -103 8 -16 -7 -30 -17 -30 -22 0 -14 -31 17 -40 40
-7 17 -19 22 -68 27 -32 4 -65 9 -73 12 -21 8 -52 63 -43 76 7 12 15 11 349
-25 77 -8 214 -20 304 -27 l164 -13 29 35 c16 18 48 70 70 114 37 74 38 82 25
105 -8 14 -18 41 -21 60 -12 59 -27 89 -50 96 -30 9 -66 44 -66 65 0 18 57 59
82 59 20 0 42 -44 35 -69 -3 -12 -1 -24 5 -27 6 -4 16 -22 24 -40 15 -36 34
-45 34 -16 0 9 9 30 19 46 16 23 17 33 8 53 -7 16 -17 23 -29 20 -22 -6 -70
47 -62 68 4 10 0 15 -11 15 -9 0 -30 14 -47 30 -16 17 -44 38 -62 47 -38 19
-85 72 -86 95 0 26 16 30 56 13 20 -8 38 -15 39 -15 2 0 -6 17 -16 37 -22 43
-25 79 -6 86 25 11 47 7 47 -8z"/>
<path d="M2489 2153 c-6 -21 -29 -63 -50 -94 -38 -57 -53 -109 -33 -116 16 -5
132 93 149 127 13 26 13 32 -11 74 -14 25 -29 46 -34 46 -5 0 -14 -17 -21 -37z"/>
<path d="M2870 2071 c0 -11 99 -46 106 -38 6 5 -81 47 -97 47 -5 0 -9 -4 -9
-9z"/>
</g>
</svg>
