<?xml version="1.0" standalone="no"?>
<!DOCTYPE svg PUBLIC "-//W3C//DTD SVG 20010904//EN"
 "http://www.w3.org/TR/2001/REC-SVG-20010904/DTD/svg10.dtd">
<svg version="1.0" xmlns="http://www.w3.org/2000/svg"
 width="480.000000pt" height="360.000000pt" viewBox="0 0 480.000000 360.000000"
 preserveAspectRatio="xMidYMid meet">
<metadata>
Created by potrace 1.16, written by Peter Selinger 2001-2019
</metadata>
<rect width="1" height="360" fill="#000000"/>
<rect x="479" width="1" height="360" fill="#000000"/>
<rect width="480" height="1" fill="#000000"/>
<rect y="359" width="480" height="1" fill="#000000"/>
<g transform="translate(0.000000,360.000000) scale(0.100000,-0.100000)"
fill="#000000" stroke="none">
<path d="M0 1817 c0 -1716 1 -1785 18 -1800 17 -16 198 -17 2400 -17 l2382 0
0 1566 c0 921 -4 1564 -9 1562 -55 -20 -581 -522 -581 -554 0 -13 -113 -161
-134 -175 -5 -4 -3 -13 5 -22 12 -13 19 -12 57 10 23 14 42 23 42 20 0 -5
-119 -121 -200 -195 -69 -63 -36 -63 135 -2 80 29 148 50 151 48 2 -3 -7 -25
-21 -49 -13 -24 -25 -48 -24 -54 0 -5 7 2 15 18 18 33 28 35 18 5 -8 -29 -73
-159 -86 -176 -7 -7 -15 -9 -22 -4 -6 5 -22 12 -36 15 -69 17 -196 113 -334
252 -78 79 -151 146 -163 149 -32 10 -108 -30 -148 -77 -39 -45 -69 -118 -90
-216 -27 -128 -54 -220 -72 -247 -10 -17 -47 -41 -90 -61 -67 -31 -104 -41
-216 -58 -78 -12 -156 -116 -177 -235 -25 -145 -66 -228 -151 -304 -29 -26
-71 -52 -100 -61 -50 -17 -63 -17 -192 2 -63 9 -105 -4 -122 -38 -9 -17 -13
-39 -10 -50 13 -41 -9 -75 -143 -213 -147 -150 -186 -201 -226 -287 -49 -109
-41 -199 38 -413 14 -39 24 -71 23 -72 -2 -2 -30 32 -64 75 -273 344 -840 919
-1298 1315 -137 119 -262 244 -279 280 -12 26 -15 74 -16 238 0 160 -6 250
-25 402 -28 217 -78 520 -124 751 -16 83 -39 202 -50 265 -32 169 -38 190 -61
190 -20 0 -20 -19 -20 -1783z m4430 487 c0 -3 -8 -18 -19 -32 -10 -15 -26 -43
-35 -62 l-17 -35 20 25 c15 19 23 22 32 13 9 -9 -4 -27 -57 -80 -97 -96 -124
-117 -124 -97 0 36 167 274 192 274 4 0 8 -3 8 -6z"/>
<path d="M1601 3580 c53 -28 166 -72 336 -130 81 -29 170 -64 197 -78 80 -43
90 -69 140 -328 25 -126 49 -241 55 -256 20 -53 52 -63 196 -62 213 2 358 33
385 84 7 13 15 123 21 277 8 190 14 264 25 285 22 42 113 109 233 172 l106 55
-865 0 c-859 0 -865 0 -829 -19z"/>
<path d="M4750 3250 c20 -13 50 -13 50 0 0 6 -15 10 -32 10 -25 0 -29 -3 -18
-10z"/>
<path d="M4761 3217 c2 -1 12 -9 22 -16 14 -12 17 -11 17 3 0 10 -8 16 -22 16
-12 0 -19 -1 -17 -3z"/>
<path d="M2433 2478 c-12 -6 -28 -24 -37 -41 -28 -59 22 -123 89 -111 42 7 56
25 62 77 5 43 4 47 -28 66 -38 23 -53 25 -86 9z"/>
</g>
</svg>
