<?xml version="1.0" standalone="no"?>
<!DOCTYPE svg PUBLIC "-//W3C//DTD SVG 20010904//EN"
 "http://www.w3.org/TR/2001/REC-SVG-20010904/DTD/svg10.dtd">
<svg version="1.0" xmlns="http://www.w3.org/2000/svg"
 width="480.000000pt" height="360.000000pt" viewBox="0 0 480.000000 360.000000"
 preserveAspectRatio="xMidYMid meet">
<metadata>
Created by potrace 1.16, written by Peter Selinger 2001-2019
</metadata>
<rect width="1" height="360" fill="#000000"/>
<rect x="479" width="1" height="360" fill="#000000"/>
<rect width="480" height="1" fill="#000000"/>
<rect y="359" width="480" height="1" fill="#000000"/>
<g transform="translate(0.000000,360.000000) scale(0.100000,-0.100000)"
fill="#000000" stroke="none">
<path d="M0 1800 l0 -1800 1125 0 c1107 0 1125 0 1125 19 0 11 -5 23 -11 26
-6 4 -8 13 -5 21 6 16 -23 34 -57 34 -13 0 -41 13 -62 30 -42 34 -49 36 -128
45 l-58 7 3 33 c1 21 -5 41 -15 53 -16 18 -16 23 2 95 11 42 53 145 94 229 76
156 171 418 180 497 3 24 1 54 -5 66 -7 17 -7 33 0 54 10 28 9 31 -9 31 -10 0
-19 7 -19 15 0 11 -11 15 -43 15 -34 0 -58 9 -107 40 -68 45 -59 45 -125 -4
-22 -16 -61 19 -79 71 -37 102 -37 103 55 224 73 96 129 146 202 184 31 17 59
37 61 45 2 8 12 50 21 93 14 64 23 84 53 116 20 21 45 42 55 48 14 7 19 25 22
89 2 43 4 81 5 84 0 3 11 -13 23 -35 55 -99 60 -104 110 -115 73 -15 98 -32
151 -103 l50 -66 65 -5 c147 -13 325 -71 374 -124 27 -30 57 -110 57 -155 0
-30 1 -30 -46 -10 -7 2 -14 -12 -18 -34 -18 -97 -84 -144 -177 -124 -82 18
-107 15 -123 -16 -20 -39 -69 -83 -124 -114 -55 -30 -65 -59 -32 -94 15 -16
20 -30 16 -42 -7 -17 -8 -17 -17 0 -9 14 -14 16 -25 6 -20 -16 -9 -73 23 -122
16 -25 24 -53 25 -80 0 -46 20 -87 43 -87 22 0 26 15 14 50 -9 26 -9 34 2 41
22 14 49 -27 49 -72 0 -48 -32 -74 -80 -64 -26 6 -29 4 -23 -12 3 -10 13 -26
21 -35 8 -10 16 -37 17 -60 1 -24 6 -51 10 -60 12 -30 -2 -20 -25 17 -12 19
-28 35 -36 35 -18 0 -18 -1 8 -56 21 -43 22 -46 5 -55 -13 -8 -15 -14 -7 -29
17 -32 13 -52 -10 -45 -20 6 -20 6 1 -47 11 -29 41 -91 67 -138 49 -90 72
-137 72 -150 0 -5 -9 -11 -19 -15 -18 -5 -19 -8 -5 -41 16 -39 16 -39 -52 -47
-22 -3 -56 -15 -75 -27 -31 -21 -34 -27 -36 -76 l-2 -54 1125 0 1124 0 0 1800
0 1800 -1070 0 c-588 0 -1070 -3 -1070 -6 0 -3 14 -45 31 -92 59 -168 74 -328
44 -473 -27 -125 -85 -224 -237 -402 -69 -80 -94 -126 -103 -192 l-8 -49 -23
51 c-12 29 -83 132 -156 230 -222 295 -243 343 -242 533 1 127 21 222 68 324
l35 76 -1035 0 -1034 0 0 -1800z"/>
<path d="M3040 1745 c-15 -19 0 -62 25 -72 24 -9 27 2 14 46 -13 45 -20 49
-39 26z"/>
<path d="M2935 1620 c-68 -22 -145 -78 -124 -91 8 -4 42 -11 76 -15 74 -8 106
8 129 61 29 71 18 76 -81 45z"/>
<path d="M2603 1480 c-107 -12 -115 -22 -57 -82 l35 -38 49 25 c42 21 100 78
100 98 0 8 -27 7 -127 -3z"/>
<path d="M1818 1433 c7 -3 16 -2 19 1 4 3 -2 6 -13 5 -11 0 -14 -3 -6 -6z"/>
<path d="M1845 1417 c-11 -7 -22 -13 -24 -14 -9 -6 33 -83 46 -83 7 0 22 9 34
21 20 20 20 21 2 51 -21 37 -31 41 -58 25z"/>
<path d="M2018 1384 c-27 -8 -48 -16 -48 -19 0 -13 119 -75 147 -75 62 0 78
13 78 61 l0 44 -65 2 c-36 1 -86 -5 -112 -13z"/>
<path d="M2414 81 c-18 -11 -45 -21 -60 -23 -23 -2 -30 -9 -32 -31 l-3 -27 81
0 81 0 -6 38 c-12 71 -13 72 -61 43z"/>
</g>
</svg>
