<?xml version="1.0" standalone="no"?>
<!DOCTYPE svg PUBLIC "-//W3C//DTD SVG 20010904//EN"
 "http://www.w3.org/TR/2001/REC-SVG-20010904/DTD/svg10.dtd">
<svg version="1.0" xmlns="http://www.w3.org/2000/svg"
 width="480.000000pt" height="360.000000pt" viewBox="0 0 480.000000 360.000000"
 preserveAspectRatio="xMidYMid meet">
<metadata>
Created by potrace 1.16, written by Peter Selinger 2001-2019
</metadata>
<rect width="1" height="360" fill="#000000"/>
<rect x="479" width="1" height="360" fill="#000000"/>
<rect width="480" height="1" fill="#000000"/>
<rect y="359" width="480" height="1" fill="#000000"/>
<g transform="translate(0.000000,360.000000) scale(0.100000,-0.100000)"
fill="#000000" stroke="none">
<path d="M187 3594 c-4 -4 -4 -18 -1 -31 4 -15 0 -30 -11 -43 -16 -17 -16 -22
3 -77 36 -105 91 -276 116 -361 24 -82 24 -84 5 -100 -14 -12 -19 -30 -19 -69
0 -28 -5 -55 -10 -58 -6 -4 0 -19 14 -38 49 -66 87 -157 102 -250 9 -51 23
-107 31 -124 8 -18 13 -40 9 -48 -7 -19 -47 -35 -86 -35 -19 0 -43 -13 -73
-40 -54 -49 -65 -85 -34 -119 27 -29 52 -39 147 -60 54 -12 76 -21 78 -33 3
-15 -1 -16 -30 -7 -39 11 -78 12 -78 2 0 -5 15 -18 34 -30 18 -12 46 -41 61
-66 38 -59 74 -81 124 -72 58 10 98 39 125 94 28 54 47 64 145 77 73 9 117 49
107 97 -7 33 -50 94 -76 108 -42 22 -108 48 -132 53 -16 3 -39 8 -52 11 -66
13 -15 62 92 89 31 8 72 20 91 27 l33 14 58 -64 c43 -48 62 -62 75 -57 10 3
33 1 51 -6 32 -11 36 -10 62 15 21 22 25 31 16 44 -17 27 -38 30 -31 4 6 -25
-7 -28 -25 -5 -7 8 -24 25 -37 37 -14 12 -53 48 -87 79 -69 63 -61 61 -184 38
-36 -7 -72 -19 -81 -26 -8 -8 -19 -14 -22 -14 -9 0 30 79 51 103 10 11 11 17
3 17 -14 0 -5 44 15 78 11 17 12 27 4 43 -6 11 -12 38 -12 60 l0 40 -24 -22
-23 -21 6 23 6 24 -22 -20 -22 -19 10 27 c42 111 120 217 223 305 46 38 98 86
116 105 33 34 33 35 26 106 -4 49 -11 71 -20 71 -7 0 -25 15 -39 34 -18 24
-37 36 -63 41 -20 3 -57 17 -81 31 -43 24 -44 24 -351 24 -168 0 -310 -3 -313
-6z"/>
<path d="M2400 1800 l0 -1800 889 0 888 0 7 46 c3 26 6 100 6 165 0 73 7 157
19 221 25 134 31 175 25 181 -3 3 -35 -8 -72 -24 -96 -41 -107 -39 -127 21
-15 45 -19 49 -41 44 l-24 -6 17 46 c21 55 10 71 -22 31 -29 -36 -36 -31 -26
18 10 43 -1 48 -36 15 -13 -12 -23 -17 -23 -11 0 12 -44 33 -71 33 -13 0 -18
4 -13 12 4 6 3 8 -4 5 -5 -4 -17 -4 -25 -1 -13 5 -12 11 6 42 12 20 16 32 9
28 -6 -4 -19 -3 -27 1 -12 7 -10 14 13 43 16 19 38 52 51 72 12 21 34 47 48
58 39 30 18 38 -30 11 l-42 -23 35 35 c19 19 38 33 43 30 4 -2 7 1 7 7 0 6 42
31 93 55 50 23 100 52 110 63 18 20 18 20 -2 27 l-21 6 20 26 20 26 -35 38
c-19 22 -35 45 -35 52 0 32 80 72 224 112 26 8 66 26 88 40 26 17 48 25 62 21
23 -6 62 -60 72 -100 5 -21 1 -27 -22 -38 -16 -7 -31 -13 -33 -15 -2 -1 4 -14
14 -29 12 -19 15 -37 11 -68 -4 -22 -9 -71 -12 -107 -6 -66 -6 -67 30 -105 33
-35 37 -37 47 -21 17 29 52 57 70 57 20 0 59 -58 59 -88 0 -11 -12 -29 -27
-40 -24 -17 -25 -22 -14 -36 20 -24 8 -85 -24 -135 -24 -35 -30 -57 -37 -144
-8 -93 5 -579 18 -664 l5 -33 119 0 120 0 0 1800 0 1800 -1200 0 -1200 0 0
-1800z"/>
</g>
</svg>
