<?xml version="1.0" standalone="no"?>
<!DOCTYPE svg PUBLIC "-//W3C//DTD SVG 20010904//EN"
 "http://www.w3.org/TR/2001/REC-SVG-20010904/DTD/svg10.dtd">
<svg version="1.0" xmlns="http://www.w3.org/2000/svg"
 width="480.000000pt" height="360.000000pt" viewBox="0 0 480.000000 360.000000"
 preserveAspectRatio="xMidYMid meet">
<metadata>
Created by potrace 1.16, written by Peter Selinger 2001-2019
</metadata>
<rect width="1" height="360" fill="#000000"/>
<rect x="479" width="1" height="360" fill="#000000"/>
<rect width="480" height="1" fill="#000000"/>
<rect y="359" width="480" height="1" fill="#000000"/>
<g transform="translate(0.000000,360.000000) scale(0.100000,-0.100000)"
fill="#000000" stroke="none">
<path d="M0 3349 l0 -251 38 23 c20 12 48 30 62 40 105 71 329 155 510 190
136 27 396 32 520 10 165 -29 403 -117 535 -198 229 -140 437 -367 559 -612
64 -126 99 -224 132 -367 25 -110 27 -138 30 -374 4 -273 11 -352 50 -499 103
-396 406 -776 769 -966 474 -248 1049 -224 1517 63 l77 47 1 1573 0 1572
-2400 0 -2400 0 0 -251z m3940 -722 c73 -35 146 -107 179 -176 23 -49 26 -69
26 -156 0 -95 -2 -103 -34 -163 -40 -74 -94 -124 -171 -160 -46 -21 -70 -26
-145 -26 -78 -1 -98 3 -147 26 -121 57 -210 190 -210 316 0 83 23 163 66 222
38 53 132 119 195 137 71 20 176 11 241 -20z"/>
<path d="M925 1746 c-289 -72 -409 -412 -230 -655 81 -109 188 -164 325 -165
111 -1 188 28 270 102 104 93 146 199 138 343 -11 189 -156 348 -346 380 -71
11 -94 10 -157 -5z"/>
</g>
</svg>
