<?xml version="1.0" standalone="no"?>
<!DOCTYPE svg PUBLIC "-//W3C//DTD SVG 20010904//EN"
 "http://www.w3.org/TR/2001/REC-SVG-20010904/DTD/svg10.dtd">
<svg version="1.0" xmlns="http://www.w3.org/2000/svg"
 width="480.000000pt" height="360.000000pt" viewBox="0 0 480.000000 360.000000"
 preserveAspectRatio="xMidYMid meet">
<metadata>
Created by potrace 1.16, written by Peter Selinger 2001-2019
</metadata>
<rect width="1" height="360" fill="#000000"/>
<rect x="479" width="1" height="360" fill="#000000"/>
<rect width="480" height="1" fill="#000000"/>
<rect y="359" width="480" height="1" fill="#000000"/>
<g transform="translate(0.000000,360.000000) scale(0.100000,-0.100000)"
fill="#000000" stroke="none">
<path d="M0 1800 l0 -1800 828 0 827 0 18 60 c9 32 64 156 122 274 127 260
196 429 265 647 29 90 67 196 85 235 18 39 35 93 39 120 4 27 10 60 13 74 6
24 5 24 -14 7 -65 -58 -137 36 -93 122 19 39 14 59 -15 60 -19 0 -17 31 5 77
l22 45 -23 17 c-13 9 -37 30 -54 46 -16 17 -43 40 -60 51 -16 12 -30 27 -30
35 0 20 -46 17 -105 -5 -25 -9 -71 -19 -103 -22 -54 -5 -60 -4 -88 23 -38 36
-59 76 -94 180 l-27 81 22 39 c12 21 34 62 50 89 16 28 27 58 24 67 -3 10 8
36 25 61 79 116 267 217 505 273 91 21 106 36 150 149 35 88 70 151 110 193
34 37 133 92 165 92 11 0 23 5 26 10 3 6 -3 10 -14 10 -12 0 -21 2 -21 5 0 3
16 27 36 55 20 27 31 50 25 50 -19 0 -12 17 24 60 19 23 35 50 35 60 0 24 10
50 20 50 4 0 10 -18 14 -41 4 -22 14 -52 23 -66 13 -20 14 -29 4 -44 -13 -22
-7 -39 15 -39 13 0 44 -54 44 -76 0 -3 -18 -4 -40 -2 -53 5 -47 -13 11 -30
178 -53 207 -85 295 -316 22 -59 48 -113 58 -118 9 -5 49 -18 89 -29 220 -60
352 -139 442 -266 28 -38 74 -99 104 -134 82 -98 86 -113 56 -207 -32 -97 -79
-179 -110 -194 -33 -15 -160 10 -160 31 0 8 -6 16 -13 19 -6 2 -12 -1 -12 -8
0 -6 -5 -8 -10 -5 -6 4 -38 -22 -73 -57 -40 -41 -89 -78 -137 -103 -74 -39
-77 -40 -180 -40 -110 0 -202 22 -280 65 -74 41 -103 51 -112 42 -13 -13 0
-72 16 -72 14 0 46 -62 46 -90 0 -11 -5 -20 -11 -20 -6 0 -8 -9 -4 -22 6 -17
4 -20 -9 -15 -21 8 -20 -1 3 -39 10 -17 17 -42 14 -55 -2 -13 7 -60 20 -104
32 -102 47 -176 46 -223 -1 -30 -4 -22 -18 38 -19 81 -34 123 -26 75 2 -16 7
-93 10 -170 3 -77 8 -147 10 -156 3 -9 23 -21 45 -28 l40 -12 -6 -57 c-4 -31
-9 -59 -11 -61 -2 -3 -17 3 -33 13 -27 16 -31 16 -36 1 -4 -9 -5 -67 -2 -131
2 -63 1 -109 -4 -102 -4 7 -7 -9 -6 -37 0 -34 15 -84 45 -160 53 -129 113
-290 120 -323 l5 -22 909 0 909 0 0 1800 0 1800 -2400 0 -2400 0 0 -1800z"/>
<path d="M2740 3161 c0 -6 5 -13 10 -16 6 -3 10 1 10 9 0 9 -4 16 -10 16 -5 0
-10 -4 -10 -9z"/>
<path d="M1587 2069 c-17 -19 -17 -22 9 -80 15 -33 43 -73 62 -90 32 -28 39
-30 81 -24 67 10 136 42 124 57 -5 7 -24 32 -42 54 -62 80 -195 127 -234 83z"/>
<path d="M3780 2072 c-8 -2 -23 -11 -33 -20 -14 -12 -22 -13 -42 -4 -31 14
-68 2 -108 -36 -42 -39 -61 -80 -47 -97 20 -24 120 -67 139 -60 26 8 64 68 91
142 24 66 24 83 0 75z"/>
<path d="M2105 1913 c-16 -1 -54 -6 -83 -9 -53 -6 -54 -6 -35 -26 10 -12 40
-39 67 -60 l50 -40 23 49 c12 26 30 58 39 71 18 24 17 25 -61 15z"/>
<path d="M3062 1899 c-72 -11 -248 -65 -257 -79 -8 -12 106 -74 185 -100 95
-32 222 -26 303 14 59 29 177 129 166 140 -20 21 -308 39 -397 25z"/>
<path d="M2745 730 c3 -14 15 -68 26 -120 12 -52 23 -97 26 -100 16 -15 -8
125 -31 180 -14 36 -24 54 -21 40z"/>
</g>
</svg>
