<?xml version="1.0" standalone="no"?>
<!DOCTYPE svg PUBLIC "-//W3C//DTD SVG 20010904//EN"
 "http://www.w3.org/TR/2001/REC-SVG-20010904/DTD/svg10.dtd">
<svg version="1.0" xmlns="http://www.w3.org/2000/svg"
 width="480.000000pt" height="360.000000pt" viewBox="0 0 480.000000 360.000000"
 preserveAspectRatio="xMidYMid meet">
<metadata>
Created by potrace 1.16, written by Peter Selinger 2001-2019
</metadata>
<rect width="1" height="360" fill="#000000"/>
<rect x="479" width="1" height="360" fill="#000000"/>
<rect width="480" height="1" fill="#000000"/>
<rect y="359" width="480" height="1" fill="#000000"/>
<g transform="translate(0.000000,360.000000) scale(0.100000,-0.100000)"
fill="#000000" stroke="none">
<path d="M1917 3015 c-26 -13 -54 -22 -62 -19 -8 4 -15 2 -15 -4 0 -5 -15 -32
-34 -59 -77 -113 -196 -347 -182 -360 2 -3 18 3 35 12 17 8 31 14 31 12 0 -22
-41 -73 -90 -111 -71 -56 -85 -78 -70 -106 11 -20 72 -51 93 -47 17 3 13 -22
-18 -143 -28 -112 -35 -204 -22 -312 9 -73 21 -87 32 -36 7 29 9 30 20 14 9
-11 11 -36 8 -77 -3 -32 -3 -59 0 -59 3 0 17 38 32 85 14 47 28 85 31 85 4 0
3 -37 -1 -81 -5 -59 -4 -80 4 -75 6 4 11 13 11 19 0 7 12 37 27 67 21 45 27
51 32 35 4 -11 12 -31 18 -45 7 -14 21 -57 33 -96 11 -40 27 -75 35 -78 19 -7
20 -85 3 -134 -11 -29 -10 -35 5 -43 12 -7 17 -23 17 -56 l0 -46 -47 6 c-55 6
-122 -15 -90 -28 10 -4 44 -13 75 -19 l57 -11 -3 -65 c-1 -36 -14 -112 -27
-170 -51 -221 -68 -355 -69 -545 0 -99 1 -198 3 -220 2 -22 -2 -60 -8 -85 -11
-40 -40 -194 -41 -212 0 -5 300 -8 668 -8 l667 1 30 39 c17 21 33 39 36 40 3
0 11 -12 18 -27 12 -27 13 -27 27 -9 9 13 12 32 8 56 -7 44 8 60 24 25 12 -25
42 -35 42 -14 0 6 -8 24 -17 40 -14 24 -15 33 -5 49 18 30 15 89 -13 208 -57
244 -193 598 -280 728 l-34 51 63 17 c96 26 119 45 160 128 30 61 36 85 36
137 0 78 -26 131 -77 155 -27 13 -34 21 -30 36 6 23 -10 38 -18 18 -4 -10 -28
-14 -89 -13 -70 0 -88 -3 -106 -20 -54 -48 -81 -180 -51 -252 12 -31 12 -34
-10 -53 -13 -10 -46 -26 -74 -34 -53 -16 -64 -11 -65 29 -1 28 -42 125 -69
164 -12 17 -20 35 -16 41 3 5 -6 27 -21 49 l-26 40 17 72 c10 40 26 80 36 90
16 16 18 34 16 139 -1 66 -5 120 -9 120 -11 0 -21 88 -13 107 5 12 9 14 12 6
17 -46 105 43 133 134 25 82 25 124 0 207 l-21 66 37 38 c33 34 52 62 96 148
10 18 19 59 20 91 l3 57 -39 13 c-51 18 -144 28 -236 27 -112 -1 -166 -12
-200 -40 l-30 -26 -9 26 c-14 35 -41 46 -124 53 -57 4 -77 11 -97 29 -30 27
-90 54 -123 54 -13 0 -45 -11 -70 -25z m537 -1176 c-2 -9 2 -29 11 -45 12 -24
22 -94 13 -94 -2 0 -38 34 -81 75 -92 89 -93 97 -7 167 l55 44 7 -65 c4 -36 5
-73 2 -82z"/>
</g>
</svg>
