<?xml version="1.0" standalone="no"?>
<!DOCTYPE svg PUBLIC "-//W3C//DTD SVG 20010904//EN"
 "http://www.w3.org/TR/2001/REC-SVG-20010904/DTD/svg10.dtd">
<svg version="1.0" xmlns="http://www.w3.org/2000/svg"
 width="480.000000pt" height="360.000000pt" viewBox="0 0 480.000000 360.000000"
 preserveAspectRatio="xMidYMid meet">
<metadata>
Created by potrace 1.16, written by Peter Selinger 2001-2019
</metadata>
<rect width="1" height="360" fill="#000000"/>
<rect x="479" width="1" height="360" fill="#000000"/>
<rect width="480" height="1" fill="#000000"/>
<rect y="359" width="480" height="1" fill="#000000"/>
<g transform="translate(0.000000,360.000000) scale(0.100000,-0.100000)"
fill="#000000" stroke="none">
<path d="M1601 3543 c19 -148 -6 -440 -45 -528 -7 -16 -19 -47 -26 -68 -34
-107 -143 -300 -213 -377 -20 -23 -42 -51 -48 -62 -6 -11 -13 -18 -15 -15 -3
3 -28 -19 -56 -49 -27 -29 -91 -81 -142 -115 -110 -76 -313 -174 -378 -183
-27 -4 -48 -11 -48 -15 0 -4 -48 -14 -107 -22 -172 -23 -391 -15 -505 17 -17
5 -18 -50 -18 -1060 l0 -1066 1388 0 1387 0 13 40 c6 22 12 54 12 72 0 77 62
219 199 458 96 168 157 301 215 470 18 52 55 142 81 199 33 73 44 105 36 111
-8 5 -10 24 -6 61 5 39 4 50 -4 39 -9 -13 -11 -13 -11 2 0 32 -30 38 -85 16
-67 -26 -118 -13 -142 37 -15 32 -15 37 2 75 17 39 17 41 0 60 -18 20 -18 21
3 43 19 20 21 28 11 55 -12 35 -5 53 46 117 18 22 53 74 80 115 26 41 58 86
71 100 27 30 33 63 17 106 -20 51 -23 104 -12 213 9 98 37 217 58 250 5 8 0
29 -17 58 -32 58 -25 65 103 99 84 22 123 27 240 28 139 1 140 1 195 -30 53
-30 100 -82 100 -111 0 -8 -24 -37 -54 -65 -48 -45 -53 -54 -45 -75 5 -13 9
-49 9 -80 0 -61 -30 -125 -95 -203 -18 -22 -36 -53 -40 -70 -9 -41 -45 -43
-45 -2 l0 27 -20 -25 c-28 -36 -21 -51 30 -68 45 -15 104 -52 127 -82 7 -8 19
-36 27 -61 14 -47 31 -82 85 -183 37 -68 37 -75 11 -109 l-21 -26 22 -12 22
-11 -25 -23 c-24 -22 -25 -28 -20 -94 6 -95 -7 -125 -75 -163 -29 -16 -53 -33
-53 -36 0 -3 20 -44 44 -91 66 -129 72 -157 111 -491 9 -74 40 -241 70 -370
29 -129 59 -264 67 -300 l13 -65 338 -3 337 -2 0 1800 0 1800 -1603 0 -1603 0
7 -57z"/>
</g>
</svg>
