<?xml version="1.0" standalone="no"?>
<!DOCTYPE svg PUBLIC "-//W3C//DTD SVG 20010904//EN"
 "http://www.w3.org/TR/2001/REC-SVG-20010904/DTD/svg10.dtd">
<svg version="1.0" xmlns="http://www.w3.org/2000/svg"
 width="480.000000pt" height="360.000000pt" viewBox="0 0 480.000000 360.000000"
 preserveAspectRatio="xMidYMid meet">
<metadata>
Created by potrace 1.16, written by Peter Selinger 2001-2019
</metadata>
<rect width="1" height="360" fill="#000000"/>
<rect x="479" width="1" height="360" fill="#000000"/>
<rect width="480" height="1" fill="#000000"/>
<rect y="359" width="480" height="1" fill="#000000"/>
<g transform="translate(0.000000,360.000000) scale(0.100000,-0.100000)"
fill="#000000" stroke="none">
<path d="M2270 3529 c-30 -5 -75 -19 -99 -31 -125 -61 -254 -276 -254 -425 0
-49 -3 -56 -31 -77 -17 -13 -52 -33 -78 -44 -39 -17 -52 -19 -77 -9 -35 13
-61 -3 -61 -37 0 -12 -9 -27 -20 -34 -11 -7 -20 -17 -20 -23 0 -11 68 -96 129
-161 34 -37 36 -37 59 -22 24 16 26 15 43 -7 30 -39 23 -60 -43 -123 l-63 -59
54 7 53 7 -6 -28 c-3 -15 -8 -46 -12 -67 l-7 -40 31 35 30 34 7 -40 c5 -22 12
-51 17 -64 8 -23 9 -23 23 -5 13 18 14 16 15 -21 0 -42 19 -89 20 -50 0 16 2
17 9 6 5 -8 7 -19 5 -26 -3 -6 1 -17 9 -24 12 -9 16 -4 22 31 l7 43 13 -53
c14 -59 25 -77 25 -41 0 13 5 31 10 39 7 11 10 6 10 -22 0 -57 16 -54 26 5 l8
52 6 -85 5 -85 19 43 c16 37 46 58 46 32 0 -5 4 -10 9 -10 5 0 7 9 4 20 -3 11
0 20 6 20 6 0 11 -17 11 -40 0 -36 -2 -40 -26 -40 -24 0 -26 -3 -19 -27 18
-74 18 -74 -85 -113 -122 -47 -158 -65 -197 -103 -39 -37 -47 -32 -104 64 -60
101 -56 99 -174 83 -177 -24 -318 -15 -428 26 -29 11 -95 45 -147 75 -105 61
-454 235 -472 235 -7 0 -69 -36 -138 -80 -142 -89 -260 -148 -367 -182 l-73
-23 0 -159 0 -158 22 14 c29 19 77 105 78 138 1 50 12 71 48 86 19 8 36 13 38
11 4 -3 -13 -84 -56 -267 -35 -149 -48 -240 -33 -240 9 0 88 85 174 185 19 22
66 77 106 122 40 45 75 94 79 108 3 14 4 54 0 88 -16 161 -18 150 40 191 29
20 58 36 64 36 6 0 37 -15 68 -33 31 -18 65 -36 74 -40 21 -8 24 -37 4 -37
-15 0 -97 -84 -115 -118 -13 -25 -47 -532 -37 -558 6 -16 8 -16 26 2 10 10 76
118 145 238 l128 219 -6 73 c-4 40 -12 84 -19 98 -30 68 64 48 185 -37 82 -59
93 -83 48 -108 -16 -9 -46 -45 -66 -80 l-38 -64 2 -115 c3 -174 18 -451 25
-458 14 -13 39 34 146 273 l111 250 -17 78 c-10 43 -24 85 -32 93 -8 8 -11 18
-7 22 10 10 284 6 319 -5 40 -12 43 -29 9 -46 -16 -9 -46 -45 -72 -88 l-43
-73 16 -185 c27 -312 37 -396 46 -405 12 -12 39 45 99 209 65 178 62 172 95
149 14 -11 26 -22 26 -26 0 -11 -73 -85 -90 -90 -13 -4 -13 -7 -1 -21 7 -10
19 -17 25 -17 7 0 20 -6 30 -13 17 -13 16 -19 -17 -123 -41 -128 -74 -257 -90
-356 l-12 -72 -80 -46 c-44 -25 -145 -89 -225 -141 -80 -52 -164 -105 -186
-118 l-41 -23 -67 66 c-36 36 -70 66 -74 66 -5 0 -22 18 -37 41 -34 49 -71 69
-124 69 -31 0 -41 -4 -46 -20 -8 -24 7 -46 47 -66 34 -18 35 -28 3 -59 -22
-23 -32 -25 -108 -25 -47 0 -107 -7 -136 -16 l-53 -16 -34 33 c-24 24 -34 42
-34 64 0 17 -6 40 -14 51 -20 26 -47 9 -59 -37 -4 -19 -15 -49 -23 -67 -18
-39 -13 -59 31 -117 19 -24 45 -66 59 -93 34 -67 47 -75 104 -70 45 4 50 3 65
-24 20 -35 34 -35 98 -2 50 25 52 25 91 9 61 -24 284 -75 329 -75 45 0 148 49
387 184 204 114 265 158 306 220 32 49 84 172 112 268 14 47 34 73 34 44 0
-21 21 -31 31 -15 4 7 11 10 15 7 9 -10 6 -273 -5 -338 -5 -30 -6 -59 -3 -65
14 -23 -2 -85 -50 -189 -52 -115 -98 -229 -98 -246 0 -6 237 -10 660 -10 374
0 660 4 660 9 0 18 -53 147 -106 259 -51 106 -55 121 -50 164 4 26 2 87 -5
135 -6 49 -10 124 -10 168 1 85 14 151 24 125 4 -8 20 -52 37 -98 87 -239 115
-268 440 -443 318 -171 358 -189 425 -189 77 0 217 24 296 50 l58 20 56 -30
c81 -44 105 -39 120 23 6 24 12 27 49 27 31 0 48 6 63 23 30 33 43 62 43 97 0
19 14 51 35 83 39 58 42 73 19 106 -9 13 -21 42 -26 64 -20 91 -76 92 -78 2
-1 -11 -15 -37 -33 -58 l-33 -38 -49 11 c-27 6 -88 10 -137 8 -96 -3 -120 8
-133 64 -6 22 -2 28 21 40 37 18 52 43 38 66 -29 45 -116 9 -159 -65 -16 -26
-51 -71 -79 -98 -28 -28 -58 -61 -66 -73 l-15 -23 -160 97 c-311 187 -374 224
-383 224 -22 0 -41 41 -56 122 -19 99 -66 270 -102 364 -13 36 -22 69 -19 74
3 5 21 17 40 26 43 20 44 39 6 59 -16 8 -39 27 -50 41 l-21 27 37 33 c21 18
40 33 43 34 3 0 30 -62 59 -137 62 -159 97 -233 111 -233 5 0 11 15 14 33 8
53 37 498 35 552 0 33 8 71 25 112 14 35 26 69 26 78 0 35 37 55 105 55 64 0
75 -6 55 -26 -6 -6 -17 -46 -25 -90 l-14 -79 120 -245 c120 -244 144 -284 160
-274 5 3 9 132 9 288 l0 282 -48 70 c-26 38 -57 73 -70 79 -12 5 -22 19 -22
30 0 43 238 191 264 165 5 -5 4 -20 -2 -37 -6 -15 -14 -58 -18 -94 l-6 -66
137 -209 c136 -207 171 -254 187 -254 12 0 11 24 -18 297 l-27 253 -50 56
c-28 30 -61 60 -74 65 -32 12 -29 25 10 45 17 9 51 30 74 45 23 16 47 29 54
29 7 0 39 -17 71 -37 l58 -38 -6 -70 c-7 -91 -5 -151 6 -178 11 -27 354 -377
369 -377 19 0 12 52 -30 205 -23 83 -48 172 -55 200 -21 74 -20 76 24 61 39
-14 62 -45 62 -86 0 -28 58 -131 78 -138 9 -3 12 32 12 150 l-1 153 -87 29
c-112 36 -281 117 -407 195 -103 63 -127 71 -154 47 -9 -7 -77 -45 -151 -84
-74 -38 -192 -106 -262 -150 -116 -73 -262 -142 -274 -129 -3 2 -14 62 -25
133 -11 71 -24 147 -29 169 -13 56 -12 65 6 65 14 0 15 8 9 56 -5 43 -3 59 8
72 81 89 104 291 48 416 -43 98 -168 112 -296 34 -43 -26 -55 -23 -55 13 0 42
-27 144 -50 189 -29 57 -106 136 -163 168 -68 39 -117 54 -327 101 -210 47
-249 52 -320 40z m825 -1174 c-16 -119 -16 -204 1 -270 6 -22 3 -24 -41 -27
l-47 -3 -54 -95 c-30 -52 -62 -103 -71 -112 -16 -18 -18 -17 -47 11 -48 46
-121 87 -204 117 -102 36 -109 43 -94 92 7 22 12 51 12 66 0 14 3 26 8 26 4 0
6 -20 4 -44 -2 -24 -2 -52 0 -62 4 -16 7 -14 16 9 6 15 17 27 24 27 7 0 24 19
37 42 28 49 27 51 45 -67 l13 -90 10 55 11 55 1 -45 c2 -51 14 -39 26 25 9 50
14 58 29 46 8 -7 17 3 30 36 17 41 21 44 32 29 11 -16 14 -15 29 13 19 39 30
39 50 2 28 -55 35 -46 28 35 -6 71 -5 77 11 71 10 -4 36 -9 59 -12 37 -5 40
-4 23 7 -44 30 -56 48 -56 88 0 43 6 55 80 160 l45 65 3 -60 c2 -33 -4 -118
-13 -190z m-872 8 c7 3 26 -6 43 -18 38 -29 155 -85 177 -85 9 0 19 -4 22 -10
11 -17 -58 -11 -124 11 -67 23 -142 86 -140 118 1 13 2 13 6 -2 3 -10 10 -16
16 -14z m297 -222 c0 -11 -4 -22 -9 -25 -11 -7 -20 14 -13 32 7 19 22 14 22
-7z m924 -56 c3 -8 1 -15 -4 -15 -6 0 -10 7 -10 15 0 8 2 15 4 15 2 0 6 -7 10
-15z m-329 -172 c10 -14 10 -21 0 -38 -7 -11 -20 -55 -27 -97 -12 -63 -12 -81
-2 -100 24 -42 15 -41 -33 3 -27 25 -59 52 -72 61 -13 9 -22 21 -20 26 6 15
128 162 136 162 3 0 11 -8 18 -17z m-1388 -89 c32 -36 58 -69 58 -73 0 -5 -16
-26 -35 -47 -37 -41 -79 -77 -67 -57 8 12 -24 160 -41 189 -10 17 4 54 20 54
4 0 33 -30 65 -66z m1620 -6 c-3 -8 -6 -5 -6 6 -1 11 2 17 5 13 3 -3 4 -12 1
-19z m1048 -1488 c3 -5 -3 -10 -14 -10 -11 0 -23 5 -26 10 -3 6 3 10 14 10 11
0 23 -4 26 -10z"/>
</g>
</svg>
