<?xml version="1.0" standalone="no"?>
<!DOCTYPE svg PUBLIC "-//W3C//DTD SVG 20010904//EN"
 "http://www.w3.org/TR/2001/REC-SVG-20010904/DTD/svg10.dtd">
<svg version="1.0" xmlns="http://www.w3.org/2000/svg"
 width="480.000000pt" height="360.000000pt" viewBox="0 0 480.000000 360.000000"
 preserveAspectRatio="xMidYMid meet">
<metadata>
Created by potrace 1.16, written by Peter Selinger 2001-2019
</metadata>
<rect width="1" height="360" fill="#000000"/>
<rect x="479" width="1" height="360" fill="#000000"/>
<rect width="480" height="1" fill="#000000"/>
<rect y="359" width="480" height="1" fill="#000000"/>
<g transform="translate(0.000000,360.000000) scale(0.100000,-0.100000)"
fill="#000000" stroke="none">
<path d="M1116 3051 c-3 -5 10 -21 29 -35 37 -28 47 -53 18 -41 -33 12 -168
35 -209 35 -67 0 -141 -41 -171 -94 -8 -15 -15 -16 -56 -6 -61 16 -117 -1
-117 -34 0 -30 44 -71 66 -62 17 6 17 6 2 -11 -12 -13 -14 -23 -7 -36 8 -13 6
-19 -5 -23 -11 -4 -16 -19 -16 -44 0 -30 6 -44 31 -64 30 -25 41 -30 66 -27
21 3 22 -13 12 -149 -9 -128 -11 -136 -38 -165 -16 -16 -33 -39 -39 -50 -13
-26 -27 -122 -23 -161 3 -35 -21 -163 -45 -239 -9 -27 -52 -123 -95 -212 -44
-89 -79 -169 -79 -178 0 -9 13 -21 30 -26 26 -10 30 -16 30 -49 0 -30 6 -43
28 -60 34 -27 98 -22 124 10 13 16 23 19 43 14 l27 -7 -6 -86 c-13 -184 -26
-478 -31 -746 -3 -154 -8 -319 -11 -367 -7 -125 -9 -123 195 -133 89 -4 165
-5 167 -2 3 3 -2 22 -10 42 -18 43 -21 105 -5 105 6 0 9 9 6 20 -4 17 0 20 31
20 83 0 95 -17 94 -134 l0 -58 107 4 c88 3 116 8 162 30 63 29 75 53 59 124
-5 21 -18 130 -30 241 -11 111 -40 345 -65 520 -24 175 -51 388 -60 473 -8 85
-17 178 -20 205 -7 68 8 90 32 47 10 -18 26 -32 36 -32 27 0 21 14 -22 53 -45
41 -63 72 -79 138 -7 26 -14 54 -18 63 -4 11 -1 16 12 16 9 0 25 7 34 15 15
14 22 13 66 -5 93 -40 156 -14 170 71 5 29 2 39 -20 60 -15 13 -37 38 -51 56
l-25 31 49 74 c27 40 47 76 45 79 -2 3 -66 48 -144 99 -95 63 -139 98 -135
108 3 7 5 23 5 34 0 12 18 38 41 59 27 25 39 44 36 54 -5 11 0 15 16 15 35 0
49 15 52 53 2 37 -18 68 -64 97 -12 9 -29 31 -36 50 -44 118 -57 146 -82 173
-43 45 -95 68 -107 48z"/>
</g>
</svg>
