<?xml version="1.0" standalone="no"?>
<!DOCTYPE svg PUBLIC "-//W3C//DTD SVG 20010904//EN"
 "http://www.w3.org/TR/2001/REC-SVG-20010904/DTD/svg10.dtd">
<svg version="1.0" xmlns="http://www.w3.org/2000/svg"
 width="480.000000pt" height="360.000000pt" viewBox="0 0 480.000000 360.000000"
 preserveAspectRatio="xMidYMid meet">
<metadata>
Created by potrace 1.16, written by Peter Selinger 2001-2019
</metadata>
<rect width="1" height="360" fill="#000000"/>
<rect x="479" width="1" height="360" fill="#000000"/>
<rect width="480" height="1" fill="#000000"/>
<rect y="359" width="480" height="1" fill="#000000"/>
<g transform="translate(0.000000,360.000000) scale(0.100000,-0.100000)"
fill="#000000" stroke="none">
<path d="M0 1800 l0 -1800 2400 0 2400 0 0 1800 0 1800 -2400 0 -2400 0 0
-1800z m2657 840 c4 -16 9 -18 25 -9 10 6 32 7 48 4 16 -3 38 -1 50 5 24 13
120 -6 125 -25 1 -5 7 -25 13 -44 9 -27 8 -40 -3 -62 -8 -16 -22 -43 -31 -59
-15 -29 -14 -30 10 -40 22 -8 26 -16 26 -47 1 -21 7 -49 15 -63 19 -34 18 -57
-3 -78 -22 -22 -25 -80 -6 -102 7 -9 12 -25 12 -36 -1 -11 8 -33 20 -50 13
-16 34 -70 47 -119 13 -50 34 -109 47 -133 l23 -43 -26 -20 -27 -19 20 -40
c17 -33 18 -43 7 -56 -11 -13 -9 -15 12 -10 13 3 70 12 127 20 56 8 106 18
111 21 5 3 15 22 22 43 26 81 61 142 90 157 28 15 31 14 55 -10 24 -24 26 -32
21 -78 -3 -29 -8 -62 -12 -74 -7 -21 -4 -23 34 -23 35 0 43 -4 51 -26 20 -51
12 -73 -34 -106 -41 -28 -47 -39 -81 -137 -67 -193 -102 -249 -225 -353 -20
-17 -57 -32 -108 -43 -68 -15 -80 -16 -102 -3 -22 12 -39 13 -106 3 -54 -8
-106 -9 -154 -3 -59 7 -106 4 -246 -16 -160 -24 -176 -24 -216 -10 -101 35
-245 132 -385 257 -47 42 -73 57 -112 66 -27 6 -73 25 -101 42 -36 22 -58 29
-75 25 -19 -5 -30 1 -57 36 -18 23 -49 55 -68 72 -116 104 -133 138 -128 251
3 64 5 71 29 82 32 15 212 37 439 54 l165 12 95 -27 c52 -15 115 -33 140 -41
25 -7 101 -29 170 -49 l125 -37 18 22 c14 17 15 25 5 36 -9 11 -9 45 0 146 6
73 14 170 17 217 3 47 18 187 32 313 21 176 30 227 41 227 8 0 16 -9 19 -20z"/>
<path d="M2639 2479 c-1 -2 -3 -13 -4 -24 -2 -11 -8 -51 -14 -90 -6 -38 -17
-151 -26 -250 -8 -99 -18 -202 -21 -229 -10 -69 7 -54 59 52 24 48 52 105 64
127 12 22 23 64 26 93 4 52 4 52 -15 32 -37 -40 -66 -15 -46 40 5 17 8 40 5
52 -3 12 1 34 9 49 15 30 9 84 -8 73 -6 -4 -8 4 -4 23 5 21 2 34 -9 43 -8 7
-16 11 -16 9z"/>
</g>
</svg>
