<?xml version="1.0" standalone="no"?>
<!DOCTYPE svg PUBLIC "-//W3C//DTD SVG 20010904//EN"
 "http://www.w3.org/TR/2001/REC-SVG-20010904/DTD/svg10.dtd">
<svg version="1.0" xmlns="http://www.w3.org/2000/svg"
 width="480.000000pt" height="360.000000pt" viewBox="0 0 480.000000 360.000000"
 preserveAspectRatio="xMidYMid meet">
<metadata>
Created by potrace 1.16, written by Peter Selinger 2001-2019
</metadata>
<rect width="1" height="360" fill="#000000"/>
<rect x="479" width="1" height="360" fill="#000000"/>
<rect width="480" height="1" fill="#000000"/>
<rect y="359" width="480" height="1" fill="#000000"/>
<g transform="translate(0.000000,360.000000) scale(0.100000,-0.100000)"
fill="#000000" stroke="none">
<path d="M0 1800 l0 -1800 234 0 c146 0 237 4 241 10 4 7 12 7 25 0 41 -22 43
-19 227 226 106 140 123 176 100 202 -25 27 -32 120 -14 164 10 23 14 51 10
72 -3 19 -1 36 6 40 14 9 14 51 0 78 -10 18 -8 24 12 39 21 15 24 27 25 81 0
75 5 84 43 93 24 5 32 15 46 58 9 29 22 58 28 65 6 7 11 54 12 104 l2 90 42
41 c30 31 63 49 126 72 l86 31 -58 0 c-37 -1 -71 -8 -93 -20 -57 -31 -108 -25
-181 21 -98 61 -95 62 -177 -7 -51 -43 -72 -56 -72 -44 0 9 11 32 25 50 61 80
153 366 204 637 27 137 27 141 1 125 -16 -11 -39 -3 -162 57 -79 38 -144 70
-146 71 -2 1 4 16 13 34 15 29 15 35 -5 92 -16 46 -18 63 -9 74 13 16 56 18
92 5 19 -8 32 -4 60 15 20 13 64 36 97 51 60 25 61 27 53 57 -13 54 -4 198 17
281 50 198 155 342 297 408 80 37 147 53 266 63 l67 6 60 79 60 79 -830 0
-830 0 0 -1800z"/>
<path d="M1784 3578 c8 -13 32 -49 52 -80 31 -49 42 -59 73 -64 160 -27 273
-78 365 -165 117 -109 179 -206 216 -340 24 -90 27 -211 4 -264 -15 -36 -14
-39 16 -103 17 -36 47 -88 67 -116 34 -47 35 -52 22 -76 -8 -14 -33 -34 -54
-46 -22 -11 -40 -27 -39 -35 1 -28 25 -255 30 -276 2 -12 27 -52 54 -88 28
-36 50 -68 50 -71 0 -3 -16 4 -35 16 -19 12 -35 18 -35 13 0 -4 16 -34 35 -67
20 -32 34 -61 31 -63 -3 -3 -19 5 -35 17 -29 20 -36 19 -31 -5 1 -5 3 -69 5
-142 3 -116 6 -136 24 -159 20 -26 30 -104 14 -104 -5 0 -21 24 -36 54 -45 86
-51 89 -122 60 -33 -14 -78 -28 -100 -32 l-40 -8 132 -64 c138 -66 143 -71
143 -138 0 -26 -5 -35 -20 -39 -11 -3 -20 -7 -20 -9 0 -3 13 -28 29 -57 31
-55 64 -159 78 -242 l9 -50 47 3 c26 2 47 1 47 -3 0 -3 -8 -20 -17 -38 -26
-49 -41 -155 -28 -198 13 -47 76 -123 114 -139 34 -14 32 -26 -6 -41 -17 -6
-23 -14 -19 -24 4 -10 -3 -20 -19 -27 -19 -8 -24 -16 -19 -31 3 -10 19 -63 34
-116 16 -53 37 -123 47 -156 l19 -60 967 -3 967 -2 0 1800 0 1800 -1516 0
-1516 0 16 -22z m2906 -378 c7 -17 9 -42 5 -57 l-7 -28 -29 33 c-33 37 -36 57
-11 71 25 15 28 14 42 -19z m-690 -570 c8 -16 8 -22 -4 -26 -19 -7 -56 13 -56
31 0 23 47 19 60 -5z m-957 -667 c-7 -2 -19 -2 -25 0 -7 3 -2 5 12 5 14 0 19
-2 13 -5z m-198 -93 c3 -5 -1 -10 -10 -10 -9 0 -13 5 -10 10 3 6 8 10 10 10 2
0 7 -4 10 -10z m259 -739 c9 -13 -19 -32 -38 -25 -17 6 -20 16 -9 27 9 10 41
9 47 -2z"/>
<path d="M1325 1495 l-40 -14 40 6 c22 3 44 9 50 14 12 12 -1 10 -50 -6z"/>
<path d="M2240 1471 c0 -10 30 -24 37 -17 3 2 -5 9 -16 16 -12 6 -21 7 -21 1z"/>
<path d="M2361 66 c-14 -58 -14 -66 4 -66 12 0 15 13 15 55 0 30 -2 55 -4 55
-2 0 -9 -20 -15 -44z"/>
</g>
</svg>
