<?xml version="1.0" standalone="no"?>
<!DOCTYPE svg PUBLIC "-//W3C//DTD SVG 20010904//EN"
 "http://www.w3.org/TR/2001/REC-SVG-20010904/DTD/svg10.dtd">
<svg version="1.0" xmlns="http://www.w3.org/2000/svg"
 width="480.000000pt" height="360.000000pt" viewBox="0 0 480.000000 360.000000"
 preserveAspectRatio="xMidYMid meet">
<metadata>
Created by potrace 1.16, written by Peter Selinger 2001-2019
</metadata>
<rect width="1" height="360" fill="#000000"/>
<rect x="479" width="1" height="360" fill="#000000"/>
<rect width="480" height="1" fill="#000000"/>
<rect y="359" width="480" height="1" fill="#000000"/>
<g transform="translate(0.000000,360.000000) scale(0.100000,-0.100000)"
fill="#000000" stroke="none">
<path d="M2591 3579 c-19 -11 -44 -33 -55 -47 -34 -45 -100 -104 -127 -114
-25 -8 -25 -11 -15 -49 9 -33 7 -45 -8 -74 -18 -33 -18 -34 4 -70 22 -35 22
-37 4 -50 -17 -12 -22 -11 -41 7 -24 23 -74 18 -107 -11 -26 -23 -68 -110 -62
-127 3 -8 0 -24 -6 -34 -10 -16 -10 -22 4 -32 8 -7 18 -24 21 -38 14 -65 37
-135 49 -147 8 -7 47 -21 88 -32 76 -19 76 -23 -5 -37 -77 -14 -175 -69 -175
-98 0 -8 -14 -16 -32 -18 -50 -7 -325 -66 -487 -104 l-145 -34 -26 25 c-15 14
-42 30 -61 36 -50 15 -176 22 -184 9 -3 -5 -18 -10 -33 -10 -19 0 -30 -7 -37
-22 -6 -12 -21 -25 -34 -28 -25 -6 -42 -30 -22 -30 6 0 11 -6 11 -14 0 -15
-27 -29 -40 -21 -16 10 -23 -18 -7 -30 8 -6 15 -20 14 -30 -2 -16 7 -21 47
-26 32 -5 53 -15 63 -29 11 -16 22 -20 39 -16 18 5 33 -2 61 -29 34 -31 36
-36 21 -45 -26 -16 -9 -48 77 -148 41 -48 82 -101 90 -119 9 -18 20 -35 26
-39 6 -3 15 -16 20 -27 6 -12 27 -53 47 -92 47 -88 68 -100 182 -100 79 1 89
3 150 37 36 21 114 79 175 130 103 87 112 93 158 95 33 1 58 9 80 25 56 42 60
42 34 -3 -14 -24 -31 -65 -36 -91 -14 -59 -53 -459 -55 -551 -1 -67 0 -69 34
-97 34 -27 35 -31 32 -85 -2 -32 -12 -71 -22 -89 -56 -95 -78 -200 -135 -656
-14 -113 -32 -240 -40 -284 -8 -43 -15 -87 -15 -97 0 -18 23 -19 821 -19 l820
0 -21 39 c-12 21 -41 59 -64 84 -84 93 -132 152 -177 217 -54 78 -158 281
-219 425 -86 205 -139 302 -198 366 -34 38 -56 69 -54 80 2 10 -2 27 -8 38
-16 31 -3 63 35 89 35 22 35 22 35 100 0 42 9 113 19 157 11 44 25 121 32 170
12 96 51 178 89 190 35 11 71 47 98 98 25 49 27 59 24 167 -2 145 -9 190 -28
190 -8 0 -32 9 -54 20 -45 23 -45 19 10 130 18 36 41 83 52 105 42 89 42 89
120 107 66 14 309 66 495 104 46 10 73 21 77 31 4 9 5 17 4 18 -2 1 -24 18
-49 38 -25 20 -55 37 -67 37 -11 0 -76 -15 -145 -34 -69 -19 -182 -47 -252
-62 -135 -30 -144 -29 -145 21 0 11 -11 47 -25 80 l-24 59 28 26 c16 14 36 37
45 51 15 23 15 28 2 39 -13 10 -12 18 12 63 15 29 29 56 31 62 4 10 -49 -31
-82 -62 -17 -17 -18 -17 -12 2 4 11 18 44 31 73 28 61 31 87 9 78 -27 -10 -66
13 -77 44 -11 32 -34 50 -66 50 -10 0 -33 18 -51 40 -17 22 -40 40 -50 40 -9
0 -26 7 -37 15 -23 17 -260 22 -249 5 4 -6 -23 -10 -74 -10 -44 0 -83 5 -86
10 -10 17 -58 11 -94 -11z m1269 -664 c0 -17 -7 -26 -22 -30 -47 -11 -306 -66
-381 -81 -43 -9 -81 -13 -84 -10 -14 14 10 35 49 44 41 9 270 68 373 96 58 16
65 14 65 -19z m-1680 -362 c0 -13 -14 -28 -27 -30 -6 -1 -53 -12 -105 -24 -51
-11 -115 -25 -142 -30 -26 -4 -62 -12 -80 -17 -17 -6 -58 -15 -91 -22 -33 -7
-73 -16 -90 -20 -74 -20 -85 -21 -85 -6 0 17 5 19 135 46 216 44 457 99 463
105 8 8 22 6 22 -2z m24 -80 l31 -28 -30 -15 c-23 -12 -30 -21 -28 -43 1 -15
-3 -27 -10 -27 -7 0 -45 -16 -85 -36 -88 -44 -129 -94 -113 -137 9 -22 8 -27
-4 -27 -13 0 -52 -32 -147 -123 -16 -15 -22 -16 -34 -6 -19 16 -99 163 -119
219 -18 50 -40 79 -72 91 -39 15 -26 25 55 43 42 9 176 39 297 66 121 26 222
49 224 49 2 1 17 -11 35 -26z"/>
<path d="M80 3185 c0 -9 -18 -35 -40 -59 l-40 -43 0 -1542 0 -1541 286 0 285
0 -7 47 c-11 74 -39 187 -81 333 -22 74 -50 189 -63 255 -48 260 -74 339 -136
420 -15 20 -21 39 -17 55 3 20 -1 29 -21 40 -38 20 -32 38 17 51 72 21 73 23
22 140 -61 137 -77 201 -69 267 8 65 30 110 83 167 22 24 46 59 54 77 8 19 28
46 46 60 17 15 31 30 31 33 0 3 -15 20 -32 37 -21 19 -26 28 -14 24 16 -5 17
-2 12 20 -7 25 -6 25 26 19 l33 -7 -25 27 c-27 31 -29 30 48 7 19 -7 32 -7 32
-1 0 5 -4 9 -9 9 -4 0 -20 12 -35 27 -20 20 -23 28 -14 34 7 5 23 2 35 -7 31
-20 29 -5 -7 44 -17 23 -28 42 -26 42 2 0 -13 18 -33 39 -66 72 -67 73 -86
181 -13 71 -12 78 7 119 12 24 37 59 56 78 l35 35 -21 20 c-11 11 -31 22 -44
23 -52 6 -98 47 -173 156 -42 59 -80 111 -85 114 -5 3 -1 18 8 34 15 27 15 32
1 63 -12 24 -13 40 -7 61 7 19 6 32 -2 42 -16 19 -30 19 -30 0z"/>
</g>
</svg>
