<?xml version="1.0" standalone="no"?>
<!DOCTYPE svg PUBLIC "-//W3C//DTD SVG 20010904//EN"
 "http://www.w3.org/TR/2001/REC-SVG-20010904/DTD/svg10.dtd">
<svg version="1.0" xmlns="http://www.w3.org/2000/svg"
 width="480.000000pt" height="360.000000pt" viewBox="0 0 480.000000 360.000000"
 preserveAspectRatio="xMidYMid meet">
<metadata>
Created by potrace 1.16, written by Peter Selinger 2001-2019
</metadata>
<rect width="1" height="360" fill="#000000"/>
<rect x="479" width="1" height="360" fill="#000000"/>
<rect width="480" height="1" fill="#000000"/>
<rect y="359" width="480" height="1" fill="#000000"/>
<g transform="translate(0.000000,360.000000) scale(0.100000,-0.100000)"
fill="#000000" stroke="none">
<path d="M0 1800 l0 -1800 1070 0 1069 0 6 33 c7 42 32 332 41 469 l6 107 -36
17 c-20 10 -36 25 -36 34 0 9 -6 22 -12 29 -11 11 -10 14 0 18 6 3 10 9 7 13
-3 5 5 31 19 58 20 39 30 90 50 251 31 241 31 274 6 371 -24 90 -25 168 -5
217 8 19 15 45 15 58 0 12 11 43 24 68 13 26 19 47 15 47 -5 0 -9 14 -9 30 0
17 5 30 10 30 6 0 19 9 30 20 16 16 20 33 20 83 0 63 0 63 -45 97 -30 23 -44
40 -42 54 2 17 -3 20 -25 18 -19 -2 -31 4 -40 18 -7 11 -18 20 -25 20 -6 0
-15 9 -18 20 -3 11 -13 20 -21 20 -17 0 -19 75 -3 152 21 101 173 219 301 234
108 12 221 -65 289 -198 26 -50 65 -216 84 -353 8 -60 24 -155 35 -210 26
-131 51 -315 45 -326 -3 -4 2 -61 11 -126 14 -98 17 -187 15 -519 l-2 -402 42
-203 c22 -112 43 -214 46 -227 l5 -22 929 0 929 0 0 1084 0 1083 -57 21 c-70
26 -204 94 -292 148 -80 49 -246 211 -328 323 -97 130 -180 314 -220 486 -14
62 -18 121 -18 268 l0 187 -1942 0 -1943 0 0 -1800z"/>
<path d="M2393 1980 c0 -25 2 -35 4 -22 2 12 2 32 0 45 -2 12 -4 2 -4 -23z"/>
</g>
</svg>
