<?xml version="1.0" standalone="no"?>
<!DOCTYPE svg PUBLIC "-//W3C//DTD SVG 20010904//EN"
 "http://www.w3.org/TR/2001/REC-SVG-20010904/DTD/svg10.dtd">
<svg version="1.0" xmlns="http://www.w3.org/2000/svg"
 width="480.000000pt" height="360.000000pt" viewBox="0 0 480.000000 360.000000"
 preserveAspectRatio="xMidYMid meet">
<metadata>
Created by potrace 1.16, written by Peter Selinger 2001-2019
</metadata>
<rect width="1" height="360" fill="#000000"/>
<rect x="479" width="1" height="360" fill="#000000"/>
<rect width="480" height="1" fill="#000000"/>
<rect y="359" width="480" height="1" fill="#000000"/>
<g transform="translate(0.000000,360.000000) scale(0.100000,-0.100000)"
fill="#000000" stroke="none">
<path d="M3060 3128 c0 -6 -3 -8 -6 -5 -7 7 -53 -27 -121 -90 -69 -63 -69 -63
-118 -17 -23 23 -69 54 -101 70 -56 27 -66 29 -184 29 -152 0 -381 -28 -455
-56 -104 -39 -180 -137 -205 -266 -12 -60 -9 -218 5 -260 10 -32 -83 -131
-128 -135 -29 -3 -32 -6 -33 -36 0 -18 -6 -38 -12 -44 -18 -18 -14 -46 7 -53
10 -3 47 -24 80 -45 67 -44 95 -49 110 -23 9 17 12 16 36 -7 14 -13 23 -30 21
-37 -3 -7 1 -13 9 -13 8 0 15 -2 15 -4 0 -13 -47 -107 -67 -133 l-24 -33 36 0
c34 0 35 -1 29 -27 -4 -16 -11 -38 -15 -50 -13 -35 3 -27 38 17 l31 41 23 -38
c13 -21 27 -39 31 -41 4 -2 8 -16 9 -30 1 -26 1 -26 15 7 14 32 16 33 34 16
11 -10 20 -23 20 -29 0 -6 9 -17 21 -24 19 -12 20 -12 14 10 -4 13 -10 29 -12
36 -3 6 0 12 5 12 6 0 13 -8 17 -19 3 -10 14 -26 25 -36 19 -17 20 -17 20 -1
0 10 5 14 11 10 8 -5 10 3 7 25 -2 17 -1 31 3 31 12 0 61 -88 57 -101 -5 -16
-108 -56 -203 -80 -112 -28 -159 -53 -198 -107 -42 -58 -102 -175 -112 -220
-9 -42 -34 -48 -141 -33 -134 19 -201 56 -359 201 -99 91 -130 114 -249 180
l-81 45 -3 45 c-2 25 -7 48 -11 53 -4 4 -58 -48 -121 -115 -227 -246 -359
-354 -691 -561 -59 -37 -114 -70 -123 -73 -11 -4 -16 -19 -16 -45 0 -21 3 -39
8 -39 4 0 43 7 87 15 44 8 110 14 147 15 62 0 76 -4 164 -50 53 -27 104 -50
114 -50 12 0 40 30 76 83 69 99 122 157 144 157 22 0 42 -23 76 -90 l28 -55 8
35 c21 84 22 85 55 88 17 2 46 -4 64 -13 53 -28 127 -104 135 -138 3 -18 8
-35 11 -39 2 -4 36 8 76 28 89 45 166 55 222 28 21 -10 66 -44 101 -76 34 -32
68 -58 75 -58 8 1 64 37 124 80 113 82 152 98 140 59 -5 -14 0 -28 15 -44 23
-24 23 -7 -6 -283 -6 -57 -5 -65 17 -89 60 -65 158 -78 198 -26 19 23 21 24
28 7 4 -10 -1 -63 -10 -119 -15 -85 -21 -104 -44 -124 -16 -14 -27 -29 -25
-33 5 -17 -20 -92 -37 -115 -23 -28 -15 -98 11 -98 32 0 41 -20 25 -51 -8 -16
-18 -39 -21 -51 l-7 -23 556 0 557 0 -38 67 c-20 38 -46 81 -57 97 -17 24 -19
33 -9 57 38 93 38 84 9 119 -15 17 -27 38 -27 46 0 8 -9 14 -20 14 -24 0 -35
26 -42 96 l-5 51 58 12 c38 7 68 21 88 40 30 28 31 31 31 118 0 50 -7 134 -15
189 -8 54 -15 104 -15 111 0 20 30 43 56 43 27 0 32 21 8 41 -16 14 -44 62
-44 78 0 11 66 51 86 51 51 0 239 -86 385 -176 48 -30 95 -54 104 -54 9 0 38
18 63 41 116 102 188 102 322 4 l48 -35 24 42 c18 34 37 50 88 76 36 18 82 35
103 39 l37 6 0 -46 c0 -25 4 -48 9 -52 5 -3 22 18 38 47 15 29 41 59 57 68 27
14 29 14 50 -13 11 -16 39 -69 61 -119 22 -50 47 -96 56 -101 12 -8 39 -4 98
13 l81 23 0 179 0 180 -52 57 c-72 79 -150 186 -225 310 -95 158 -123 180
-137 107 -8 -43 -17 -50 -100 -81 -100 -38 -160 -70 -276 -150 -132 -92 -208
-130 -296 -151 -69 -16 -101 -16 -307 2 l-78 7 -12 -32 c-11 -29 -14 -31 -65
-31 -29 0 -61 4 -71 9 -10 6 -31 40 -46 78 -16 37 -45 97 -65 133 -47 87 -97
113 -265 136 -66 10 -135 23 -153 31 -31 13 -32 14 -18 41 8 15 24 36 37 47
l22 20 -6 -25 c-6 -24 -5 -24 8 -6 8 11 16 27 17 35 0 9 4 -4 7 -29 l7 -45 19
38 c22 43 37 43 46 1 6 -28 7 -26 37 38 18 37 32 72 32 78 0 21 18 9 30 -20 7
-16 16 -30 20 -30 5 0 11 14 15 30 4 17 9 30 12 30 3 0 18 -11 35 -25 26 -22
48 -32 48 -21 0 2 -12 24 -26 50 -14 25 -23 50 -19 56 3 5 22 10 41 10 19 0
34 2 34 5 0 2 -22 26 -50 54 -56 56 -72 97 -46 116 9 7 16 20 16 29 0 9 7 30
15 45 11 22 19 27 39 24 27 -5 39 10 49 63 7 35 -1 48 -53 86 -34 25 -79 88
-63 88 14 0 116 -40 160 -63 23 -12 45 -19 48 -15 15 14 16 125 2 176 -10 36
-11 52 -3 53 69 3 170 19 179 28 16 16 -1 42 -39 59 -62 28 -173 226 -174 310
0 30 -2 32 -35 32 -20 0 -35 -5 -35 -12z m-434 -1255 c-10 -10 -19 5 -10 18 6
11 8 11 12 0 2 -7 1 -15 -2 -18z"/>
</g>
</svg>
