<?xml version="1.0" standalone="no"?>
<!DOCTYPE svg PUBLIC "-//W3C//DTD SVG 20010904//EN"
 "http://www.w3.org/TR/2001/REC-SVG-20010904/DTD/svg10.dtd">
<svg version="1.0" xmlns="http://www.w3.org/2000/svg"
 width="480.000000pt" height="360.000000pt" viewBox="0 0 480.000000 360.000000"
 preserveAspectRatio="xMidYMid meet">
<metadata>
Created by potrace 1.16, written by Peter Selinger 2001-2019
</metadata>
<rect width="1" height="360" fill="#000000"/>
<rect x="479" width="1" height="360" fill="#000000"/>
<rect width="480" height="1" fill="#000000"/>
<rect y="359" width="480" height="1" fill="#000000"/>
<g transform="translate(0.000000,360.000000) scale(0.100000,-0.100000)"
fill="#000000" stroke="none">
<path d="M0 1800 l0 -1800 527 0 c299 0 523 4 517 9 -5 4 -40 34 -79 66 -250
206 -435 442 -581 740 -140 288 -208 545 -229 870 -8 122 17 436 46 585 60
301 211 632 410 897 107 142 308 346 409 415 24 16 -3 17 -497 17 l-523 1 0
-1800z"/>
<path d="M3393 3553 c107 -148 197 -437 197 -634 0 -205 -63 -419 -179 -610
-10 -16 -48 -65 -85 -108 -134 -156 -312 -275 -515 -341 -124 -41 -208 -50
-471 -54 -232 -3 -236 -3 -338 -35 -198 -61 -353 -153 -498 -296 -214 -211
-324 -479 -324 -789 0 -116 17 -245 42 -326 31 -99 151 -332 182 -352 6 -4
533 -8 1172 -8 l1161 0 94 78 c621 516 920 1350 768 2142 -100 518 -364 972
-758 1301 l-94 79 -195 0 -194 0 35 -47z m-979 -2613 c56 -28 88 -58 122 -116
24 -41 28 -59 28 -120 -2 -189 -163 -305 -350 -249 -55 16 -118 74 -153 140
-23 44 -28 125 -11 187 16 55 69 119 125 150 65 36 176 39 239 8z"/>
<path d="M2382 3193 c-142 -43 -229 -206 -187 -349 22 -77 64 -135 122 -171
161 -101 354 -50 435 115 31 64 32 176 1 243 -26 59 -86 119 -145 148 -61 29
-157 35 -226 14z"/>
</g>
</svg>
