<?xml version="1.0" standalone="no"?>
<!DOCTYPE svg PUBLIC "-//W3C//DTD SVG 20010904//EN"
 "http://www.w3.org/TR/2001/REC-SVG-20010904/DTD/svg10.dtd">
<svg version="1.0" xmlns="http://www.w3.org/2000/svg"
 width="480.000000pt" height="360.000000pt" viewBox="0 0 480.000000 360.000000"
 preserveAspectRatio="xMidYMid meet">
<metadata>
Created by potrace 1.16, written by Peter Selinger 2001-2019
</metadata>
<rect width="1" height="360" fill="#000000"/>
<rect x="479" width="1" height="360" fill="#000000"/>
<rect width="480" height="1" fill="#000000"/>
<rect y="359" width="480" height="1" fill="#000000"/>
<g transform="translate(0.000000,360.000000) scale(0.100000,-0.100000)"
fill="#000000" stroke="none">
<path d="M1517 3593 c-16 -26 -37 -125 -37 -172 0 -102 48 -231 120 -327 45
-60 138 -125 212 -149 29 -10 57 -21 61 -25 16 -14 -55 -23 -168 -22 -63 0
-115 -4 -122 -10 -7 -6 -17 -27 -23 -48 -8 -28 -21 -45 -47 -61 -57 -36 -103
-79 -103 -99 0 -20 25 -44 38 -36 14 8 48 -33 70 -84 30 -70 35 -115 18 -153
-8 -17 -22 -49 -30 -71 l-16 -38 27 7 c15 3 32 7 38 8 6 1 11 -30 12 -78 1
-44 5 -109 10 -145 7 -56 6 -69 -10 -91 -26 -37 -35 -160 -13 -193 23 -36 21
-110 -4 -144 -29 -40 -39 -161 -16 -196 21 -33 22 -138 1 -156 -21 -17 -22
-205 -1 -217 8 -5 15 -33 19 -69 4 -49 2 -65 -12 -78 -12 -13 -16 -36 -16
-106 0 -79 3 -92 24 -114 26 -28 43 -138 22 -150 -14 -9 -14 -85 -1 -157 7
-38 18 -60 35 -74 21 -17 25 -29 25 -74 0 -82 -19 -110 -130 -190 -55 -40
-100 -74 -100 -77 0 -2 37 -4 83 -4 l82 0 35 58 34 57 9 -35 c20 -81 19 -80
102 -80 l75 0 0 28 c0 15 -7 51 -15 81 -8 30 -12 58 -9 62 2 4 21 13 42 19 56
18 178 97 210 136 28 34 30 35 35 13 4 -13 16 -94 28 -181 l22 -158 539 0
c296 0 538 4 538 8 0 4 -12 48 -26 97 -26 89 -26 91 -15 240 7 83 18 193 26
245 8 52 24 169 36 260 12 91 25 175 30 188 5 14 20 25 39 28 16 4 30 10 30
15 0 5 8 9 18 9 62 0 290 236 343 355 19 43 21 59 14 146 -3 54 -13 124 -21
156 -8 32 -17 67 -20 78 -4 17 10 26 107 65 l111 44 32 -19 c17 -10 54 -30 81
-43 28 -13 62 -36 78 -50 15 -14 27 -20 27 -14 0 7 -30 42 -66 77 -63 63 -65
76 -8 55 33 -13 42 -6 21 17 -13 15 -14 25 -4 60 10 39 9 44 -13 68 -40 43
-106 55 -285 53 -147 -2 -164 -4 -208 -26 -27 -13 -55 -21 -63 -18 -21 8 -17
34 6 46 32 17 78 87 85 129 6 35 11 41 51 56 57 22 100 75 115 141 14 62 45
96 104 114 51 16 101 53 119 88 7 15 16 65 19 111 6 82 6 83 -13 66 -13 -12
-27 -15 -49 -10 -32 7 -40 -2 -19 -23 9 -9 9 -15 3 -20 -170 -118 -196 -132
-215 -122 -26 14 -43 3 -37 -22 4 -15 -13 -31 -83 -77 -82 -54 -93 -58 -133
-54 -38 5 -47 2 -61 -18 -9 -13 -16 -34 -16 -46 0 -16 -17 -35 -60 -67 l-60
-43 -99 50 c-87 44 -109 51 -195 60 -73 8 -117 7 -182 -3 -78 -12 -123 -30
-75 -30 11 0 22 -4 26 -9 7 -12 -67 -55 -110 -66 -24 -6 -26 -9 -12 -14 15 -6
12 -14 -28 -69 -45 -62 -54 -79 -35 -67 16 10 12 -11 -5 -25 -8 -7 -15 -16
-15 -21 0 -5 7 -6 15 -3 11 5 15 -1 15 -20 0 -35 -26 -44 -63 -23 -38 22 -47
15 -47 -39 0 -33 -5 -47 -20 -56 -11 -7 -20 -23 -20 -35 0 -12 -6 -28 -14 -35
-7 -8 -17 -25 -21 -38 -4 -14 -14 -34 -21 -45 -29 -41 -17 -76 56 -174 39 -51
70 -96 70 -99 0 -4 -7 -15 -15 -26 -13 -17 -18 -15 -97 42 -139 100 -345 222
-424 249 -31 11 -31 11 -38 104 -4 52 -17 158 -30 237 -22 141 -20 162 11 162
16 0 17 16 2 26 -15 9 -59 110 -59 135 0 11 8 22 18 26 9 3 37 24 61 47 40 38
44 40 55 22 88 -146 213 -215 361 -201 80 7 85 5 125 -61 21 -33 26 -36 58
-30 20 3 45 14 56 25 19 20 19 21 1 79 l-18 60 53 63 c30 35 62 83 72 107 39
87 33 231 -13 322 -20 40 -85 104 -142 139 -26 16 -36 28 -32 38 3 9 1 21 -5
28 -7 8 -3 38 11 96 23 91 22 217 -2 292 l-12 37 -463 0 c-255 0 -465 -3 -467
-7z m20 -949 c-2 -2 -19 1 -37 8 l-33 11 34 31 34 30 3 -38 c2 -21 2 -40 -1
-42z m2373 32 c0 -2 -8 -10 -17 -17 -16 -13 -17 -12 -4 4 13 16 21 21 21 13z
m-247 -257 c-16 -28 -53 -58 -53 -44 0 12 52 75 62 75 5 0 1 -14 -9 -31z
m-163 -192 c0 -2 -12 -14 -27 -28 l-28 -24 24 28 c23 25 31 32 31 24z m-1898
-317 c0 -16 1 -35 2 -42 1 -6 -5 -13 -11 -15 -9 -3 -13 9 -13 41 0 50 19 64
22 16z m278 -352 c52 -36 160 -108 240 -158 80 -51 149 -96 153 -100 9 -8 -54
-98 -309 -440 -88 -118 -178 -244 -199 -279 l-39 -64 -14 34 c-8 19 -22 41
-32 51 -26 24 -36 115 -14 139 24 26 16 195 -10 214 -11 9 -19 32 -23 69 -5
46 -3 60 13 77 27 30 28 187 2 216 -13 14 -18 36 -18 73 0 39 5 56 18 66 25
18 31 170 8 218 -9 19 -16 48 -16 66 0 31 0 31 73 -43 39 -40 115 -103 167
-139z m-273 155 c-3 -10 -5 -2 -5 17 0 19 2 27 5 18 2 -10 2 -26 0 -35z m32
-109 c1 -1 0 -25 -4 -53 -7 -49 -7 -49 -41 -48 -32 2 -34 4 -34 37 0 66 8 80
44 73 17 -3 33 -7 35 -9z m-11 -398 l-3 -59 -33 -1 c-19 -1 -36 2 -39 7 -2 4
-1 31 2 60 7 52 7 53 41 53 l35 0 -3 -60z m12 -370 l0 -62 -35 4 c-32 4 -35 7
-37 38 -4 80 -4 79 27 85 17 3 33 4 38 2 4 -2 7 -32 7 -67z m39 -377 c1 -43
-1 -47 -25 -53 -35 -9 -40 -2 -47 60 -6 50 -5 50 26 60 38 11 45 1 46 -67z
m75 -316 c15 -53 18 -93 5 -93 -7 0 -21 -7 -30 -16 -17 -16 -19 -15 -28 9 -5
14 -13 41 -16 61 -6 31 -4 37 16 45 36 14 47 13 53 -6z"/>
</g>
</svg>
