<?xml version="1.0" standalone="no"?>
<!DOCTYPE svg PUBLIC "-//W3C//DTD SVG 20010904//EN"
 "http://www.w3.org/TR/2001/REC-SVG-20010904/DTD/svg10.dtd">
<svg version="1.0" xmlns="http://www.w3.org/2000/svg"
 width="480.000000pt" height="360.000000pt" viewBox="0 0 480.000000 360.000000"
 preserveAspectRatio="xMidYMid meet">
<metadata>
Created by potrace 1.16, written by Peter Selinger 2001-2019
</metadata>
<rect width="1" height="360" fill="#000000"/>
<rect x="479" width="1" height="360" fill="#000000"/>
<rect width="480" height="1" fill="#000000"/>
<rect y="359" width="480" height="1" fill="#000000"/>
<g transform="translate(0.000000,360.000000) scale(0.100000,-0.100000)"
fill="#000000" stroke="none">
<path d="M2890 3380 c-25 -4 -58 -13 -74 -19 -16 -7 -48 -9 -71 -5 -46 6 -75
-11 -75 -45 0 -10 -25 -39 -56 -65 -31 -25 -64 -57 -75 -70 -38 -49 -129 -252
-129 -289 0 -5 7 -4 15 3 13 11 14 8 9 -21 -6 -31 -5 -32 8 -16 12 17 15 13
26 -42 13 -60 27 -78 35 -43 3 13 5 12 11 -8 4 -14 22 -34 39 -45 41 -26 46
-58 13 -81 -33 -21 -33 -49 -1 -70 14 -9 25 -25 25 -36 0 -11 17 -48 37 -81
20 -34 43 -72 50 -84 8 -14 23 -23 38 -23 17 0 25 -6 25 -17 1 -15 3 -15 19 5
23 27 31 28 31 5 0 -14 6 -11 26 12 l25 30 -5 -42 c-4 -26 -2 -43 4 -43 18 0
10 -39 -10 -50 -11 -6 -20 -19 -20 -29 0 -20 -47 -66 -124 -121 -48 -35 -196
-202 -196 -222 0 -6 6 -5 15 2 18 15 19 11 4 -26 -10 -28 -10 -28 11 -9 35 32
33 10 -10 -74 -76 -152 -84 -239 -38 -414 11 -43 18 -80 15 -83 -2 -3 -74 24
-158 60 -85 35 -176 67 -204 71 -27 4 -77 15 -111 26 -55 18 -62 23 -83 66
-17 36 -19 48 -9 54 10 6 7 15 -10 38 -28 38 -28 84 -1 122 21 29 21 31 3 51
-17 19 -17 21 -2 15 22 -8 55 21 63 53 4 18 -2 37 -21 65 -15 22 -35 59 -45
83 -22 52 -43 62 -70 34 -10 -12 -26 -19 -34 -16 -30 12 -122 -25 -154 -61
-39 -44 -49 -85 -61 -237 -5 -73 -22 -175 -40 -248 -24 -101 -30 -146 -30
-237 0 -120 13 -205 35 -227 8 -8 19 -35 26 -60 8 -33 16 -46 25 -42 8 3 14 1
14 -4 0 -6 7 -10 15 -10 11 0 15 11 15 36 0 37 21 45 26 9 1 -10 -26 -133 -61
-274 -38 -153 -63 -276 -63 -305 1 -63 24 -89 71 -81 25 5 37 2 51 -14 11 -12
31 -21 47 -21 21 0 39 -13 76 -56 57 -66 132 -124 162 -124 29 0 28 39 -4 86
-14 20 -25 40 -25 43 0 14 97 41 145 41 38 0 55 5 68 20 9 11 27 20 39 20 13
0 35 13 50 29 26 27 28 34 23 93 -3 34 -6 76 -6 91 0 15 -17 101 -39 190 -34
143 -90 392 -90 402 0 3 9 9 20 15 16 9 41 -4 152 -76 187 -122 208 -139 208
-175 0 -17 4 -38 9 -47 11 -20 -13 -167 -55 -329 -15 -59 -28 -117 -30 -128
-1 -11 -14 -74 -28 -140 -14 -66 -26 -130 -26 -142 l0 -23 621 0 620 0 -7 22
c-4 12 -35 90 -69 174 -71 174 -117 260 -244 464 -51 81 -91 155 -91 170 -1
14 -10 50 -21 80 -24 67 -49 214 -49 292 0 77 19 158 36 151 10 -4 12 4 7 31
-6 37 23 176 37 176 20 0 55 66 59 113 1 4 7 7 15 7 10 0 16 -14 18 -42 l3
-43 18 33 c10 18 22 30 27 27 19 -12 22 48 4 117 -20 86 -76 269 -95 315 -17
41 -1 65 27 42 9 -8 20 -13 23 -11 3 1 9 -12 12 -30 l5 -33 9 40 c8 37 9 38
15 15 6 -23 8 -21 19 20 11 36 15 41 22 27 14 -25 25 -21 40 14 12 30 13 30
26 13 13 -17 14 -15 11 21 -3 36 -1 40 20 38 25 -3 25 -3 11 33 -5 16 -7 39
-4 52 6 23 7 24 25 7 25 -22 25 -22 0 43 -26 67 -25 101 1 43 29 -67 34 -42 8
46 -20 67 -24 108 -29 294 l-5 215 -58 115 c-60 120 -119 193 -179 224 -111
57 -266 85 -368 65z m-1160 -2294 c0 -3 -4 -8 -10 -11 -5 -3 -10 -1 -10 4 0 6
5 11 10 11 6 0 10 -2 10 -4z"/>
</g>
</svg>
