<?xml version="1.0" standalone="no"?>
<!DOCTYPE svg PUBLIC "-//W3C//DTD SVG 20010904//EN"
 "http://www.w3.org/TR/2001/REC-SVG-20010904/DTD/svg10.dtd">
<svg version="1.0" xmlns="http://www.w3.org/2000/svg"
 width="480.000000pt" height="360.000000pt" viewBox="0 0 480.000000 360.000000"
 preserveAspectRatio="xMidYMid meet">
<metadata>
Created by potrace 1.16, written by Peter Selinger 2001-2019
</metadata>
<rect width="1" height="360" fill="#000000"/>
<rect x="479" width="1" height="360" fill="#000000"/>
<rect width="480" height="1" fill="#000000"/>
<rect y="359" width="480" height="1" fill="#000000"/>
<g transform="translate(0.000000,360.000000) scale(0.100000,-0.100000)"
fill="#000000" stroke="none">
<path d="M0 3070 l0 -530 26 10 c47 18 135 12 190 -14 120 -56 195 -206 243
-486 11 -63 31 -162 45 -220 13 -58 29 -136 35 -175 59 -392 68 -461 81 -645
5 -80 19 -221 30 -315 27 -233 28 -222 -20 -236 -22 -7 -40 -13 -40 -14 0 -19
79 -368 96 -427 5 -17 112 -18 2060 -18 l2054 0 0 1367 c0 1473 3 1386 -49
1288 -24 -45 -246 -285 -264 -285 -7 -1 -41 -22 -75 -49 -140 -107 -346 -185
-567 -217 -130 -18 -270 -13 -418 17 -116 23 -207 50 -207 61 0 4 -6 8 -14 8
-22 0 -155 71 -251 135 -215 142 -411 404 -491 654 -54 170 -68 264 -66 449
l1 172 -1199 0 -1200 0 0 -530z"/>
<path d="M0 1944 c0 -67 2 -75 15 -64 24 20 19 140 -6 140 -5 0 -9 -34 -9 -76z"/>
</g>
</svg>
