<?xml version="1.0" standalone="no"?>
<!DOCTYPE svg PUBLIC "-//W3C//DTD SVG 20010904//EN"
 "http://www.w3.org/TR/2001/REC-SVG-20010904/DTD/svg10.dtd">
<svg version="1.0" xmlns="http://www.w3.org/2000/svg"
 width="480.000000pt" height="360.000000pt" viewBox="0 0 480.000000 360.000000"
 preserveAspectRatio="xMidYMid meet">
<metadata>
Created by potrace 1.16, written by Peter Selinger 2001-2019
</metadata>
<rect width="1" height="360" fill="#000000"/>
<rect x="479" width="1" height="360" fill="#000000"/>
<rect width="480" height="1" fill="#000000"/>
<rect y="359" width="480" height="1" fill="#000000"/>
<g transform="translate(0.000000,360.000000) scale(0.100000,-0.100000)"
fill="#000000" stroke="none">
<path d="M0 1800 l0 -1800 379 0 378 0 41 93 c22 50 50 116 61 144 11 29 35
81 52 115 28 56 30 65 20 100 -11 36 -31 44 -31 12 0 -8 -5 -14 -11 -14 -6 0
-10 17 -9 43 4 62 1 87 -9 87 -5 0 -12 -11 -15 -25 -4 -15 -11 -22 -19 -19 -9
3 -27 -29 -57 -106 -24 -60 -46 -110 -50 -110 -14 0 37 247 81 389 12 41 17
76 13 98 -7 39 -10 40 -35 11 -25 -31 -24 -11 5 64 28 74 83 323 78 356 l-3
22 -19 -22 c-17 -21 -16 -15 5 52 13 41 36 120 51 175 14 55 51 163 80 240 61
158 76 222 99 418 31 274 58 386 122 507 18 36 47 79 63 97 30 33 126 103 141
103 5 0 18 8 29 18 11 9 42 24 67 33 26 8 48 20 50 25 2 5 -11 18 -28 28 -51
30 -97 75 -103 101 -4 15 0 37 8 54 23 43 82 62 216 68 144 7 152 13 169 118
18 110 57 157 189 224 39 20 43 20 49 5 4 -11 -1 -23 -14 -34 -22 -17 -53 -71
-53 -90 0 -7 14 0 31 15 18 14 58 39 90 56 148 74 215 73 112 -3 -50 -36 -253
-246 -253 -260 0 -3 21 5 48 18 62 29 149 51 241 60 112 11 88 -11 -74 -66
-77 -26 -152 -52 -167 -58 -47 -19 -36 -45 41 -91 97 -57 170 -117 177 -145 8
-35 -22 -85 -62 -102 -18 -8 -57 -19 -86 -25 -80 -17 -83 -23 -32 -77 62 -66
114 -175 125 -264 13 -101 2 -189 -25 -208 -12 -8 -25 -14 -30 -12 -5 2 -29
-18 -53 -44 -23 -26 -43 -41 -43 -34 0 36 -11 -6 -25 -100 -9 -58 -28 -157
-42 -220 -14 -63 -28 -125 -30 -137 -3 -13 2 -41 11 -63 9 -22 16 -55 16 -73
0 -19 7 -54 16 -80 8 -25 14 -56 12 -69 -3 -18 -7 -14 -17 21 -9 32 -15 41
-24 32 -13 -13 29 -111 48 -111 6 0 37 16 69 35 70 42 165 92 189 99 14 5 17
18 17 83 1 158 41 223 136 223 86 0 124 -71 124 -233 l0 -67 38 -15 c20 -9 82
-43 138 -75 55 -33 103 -60 106 -60 3 0 16 25 28 56 16 39 20 58 12 66 -7 7
-14 -2 -23 -33 -12 -39 -13 -41 -17 -17 -2 15 6 47 17 72 10 25 17 54 14 65
-3 10 2 44 11 74 15 51 15 59 -4 133 -21 85 -44 213 -55 307 -8 65 -30 99 -81
123 -19 9 -34 23 -34 31 0 9 -6 13 -15 9 -10 -3 -15 1 -15 11 0 9 -8 25 -17
36 -15 16 -18 37 -17 116 0 85 4 104 33 171 17 41 45 92 61 112 17 20 30 39
30 41 0 3 -17 34 -39 69 -99 163 -152 329 -167 523 -7 102 2 104 34 10 59
-170 164 -385 244 -498 l20 -27 26 19 c39 27 149 81 166 81 32 0 26 24 -15 66
-36 37 -42 48 -33 62 19 30 72 54 134 59 83 8 88 17 60 109 -18 57 -21 77 -12
83 9 6 10 15 1 40 -22 62 -1 41 60 -63 51 -85 67 -105 88 -108 58 -7 90 -116
63 -212 -13 -49 -6 -86 17 -86 25 0 116 -70 154 -119 88 -112 127 -231 164
-491 42 -306 53 -353 120 -520 34 -85 75 -202 90 -260 15 -58 35 -124 46 -148
24 -54 24 -59 -1 -37 -11 10 -20 15 -20 10 0 -4 16 -65 35 -135 19 -70 39
-157 45 -193 5 -35 17 -82 26 -103 16 -39 16 -39 -4 -21 -19 18 -20 17 -24
-40 -3 -39 1 -76 12 -113 10 -30 22 -71 27 -90 7 -28 19 -40 65 -65 122 -66
260 -222 343 -389 l58 -116 138 0 139 0 0 1800 0 1800 -2400 0 -2400 0 0
-1800z"/>
<path d="M3200 2931 c-7 -13 -7 -22 0 -26 13 -8 30 3 30 20 0 23 -18 27 -30 6z"/>
<path d="M1870 2003 c-8 -8 -33 -29 -54 -47 l-40 -33 44 -51 c24 -29 45 -50
48 -47 2 2 12 47 21 100 18 96 14 111 -19 78z"/>
<path d="M2894 1993 c3 -16 10 -57 17 -93 6 -36 13 -68 16 -73 3 -4 26 15 53
44 l48 52 -26 21 c-49 40 -101 76 -107 76 -4 0 -4 -12 -1 -27z"/>
<path d="M2100 1175 c-111 -85 -160 -133 -160 -158 0 -5 35 11 78 34 98 55
182 97 205 103 13 4 17 17 17 61 0 30 -3 55 -7 55 -5 0 -64 -43 -133 -95z"/>
<path d="M2560 1215 l0 -54 73 -35 c39 -19 110 -55 155 -81 46 -25 82 -42 80
-38 -2 4 -10 20 -17 36 -12 23 -268 227 -285 227 -4 0 -6 -25 -6 -55z"/>
<path d="M2370 1094 c-11 -36 -20 -72 -20 -79 0 -34 -39 -66 -220 -179 -41
-26 -106 -69 -145 -97 -103 -73 -163 -102 -197 -95 -27 5 -28 4 -28 -37 1 -92
41 -294 103 -517 l24 -85 555 -3 556 -2 6 62 c9 84 25 315 33 466 l6 122 -30
-6 c-38 -7 -79 13 -221 110 -59 40 -153 101 -210 136 -112 68 -118 75 -152
193 -13 42 -27 77 -31 77 -5 0 -17 -30 -29 -66z"/>
<path d="M3910 703 c0 -31 22 -113 31 -113 10 0 -1 68 -17 105 -12 26 -13 27
-14 8z"/>
<path d="M901 674 c0 -11 3 -14 6 -6 3 7 2 16 -1 19 -3 4 -6 -2 -5 -13z"/>
<path d="M1047 593 c-4 -3 -7 -11 -7 -17 0 -6 5 -5 12 2 6 6 9 14 7 17 -3 3
-9 2 -12 -2z"/>
</g>
</svg>
