<?xml version="1.0" standalone="no"?>
<!DOCTYPE svg PUBLIC "-//W3C//DTD SVG 20010904//EN"
 "http://www.w3.org/TR/2001/REC-SVG-20010904/DTD/svg10.dtd">
<svg version="1.0" xmlns="http://www.w3.org/2000/svg"
 width="480.000000pt" height="360.000000pt" viewBox="0 0 480.000000 360.000000"
 preserveAspectRatio="xMidYMid meet">
<metadata>
Created by potrace 1.16, written by Peter Selinger 2001-2019
</metadata>
<rect width="1" height="360" fill="#000000"/>
<rect x="479" width="1" height="360" fill="#000000"/>
<rect width="480" height="1" fill="#000000"/>
<rect y="359" width="480" height="1" fill="#000000"/>
<g transform="translate(0.000000,360.000000) scale(0.100000,-0.100000)"
fill="#000000" stroke="none">
<path d="M2810 2800 c-14 -4 -47 -9 -75 -9 -126 -4 -300 -111 -390 -242 -24
-34 -49 -53 -113 -85 -95 -47 -155 -100 -182 -161 -29 -66 -29 -85 0 -94 147
-43 243 -75 280 -94 107 -55 292 -231 368 -350 70 -110 146 -340 161 -492 5
-50 16 -93 27 -112 11 -16 47 -77 82 -135 35 -58 69 -106 76 -106 30 0 87 26
187 86 58 35 116 64 128 64 13 0 28 -12 41 -33 148 -251 167 -270 196 -200 24
57 13 93 -56 177 -54 67 -61 80 -58 113 3 34 8 41 50 64 27 14 60 37 75 52 16
14 45 33 66 42 50 21 63 53 47 123 -11 48 -16 55 -68 88 -138 88 -303 247
-348 336 -18 36 -58 103 -89 148 -81 119 -104 170 -115 257 -6 43 -20 124 -31
180 -21 108 -27 211 -15 279 9 49 -2 58 -102 92 -64 23 -99 26 -142 12z"/>
</g>
</svg>
