<?xml version="1.0" standalone="no"?>
<!DOCTYPE svg PUBLIC "-//W3C//DTD SVG 20010904//EN"
 "http://www.w3.org/TR/2001/REC-SVG-20010904/DTD/svg10.dtd">
<svg version="1.0" xmlns="http://www.w3.org/2000/svg"
 width="480.000000pt" height="360.000000pt" viewBox="0 0 480.000000 360.000000"
 preserveAspectRatio="xMidYMid meet">
<metadata>
Created by potrace 1.16, written by Peter Selinger 2001-2019
</metadata>
<rect width="1" height="360" fill="#000000"/>
<rect x="479" width="1" height="360" fill="#000000"/>
<rect width="480" height="1" fill="#000000"/>
<rect y="359" width="480" height="1" fill="#000000"/>
<g transform="translate(0.000000,360.000000) scale(0.100000,-0.100000)"
fill="#000000" stroke="none">
<path d="M0 1800 l0 -1800 940 0 c581 0 940 4 940 9 0 6 -5 13 -10 16 -17 10
-11 106 10 175 12 36 32 113 45 171 13 59 45 171 71 250 l46 143 -12 67 c-7
37 -10 81 -7 98 4 18 2 40 -4 49 -9 14 -3 45 24 137 51 173 94 357 106 457 6
47 18 99 26 114 8 16 12 31 8 34 -3 3 -8 -1 -10 -8 -3 -6 -9 -10 -14 -7 -5 4
0 23 11 45 17 34 19 48 11 132 -9 89 -8 95 16 136 14 24 23 46 20 49 -10 9
-45 -17 -76 -56 -35 -44 -61 -45 -88 -4 -33 50 18 93 137 114 94 16 100 19
110 43 6 17 19 25 47 29 70 12 99 8 127 -18 27 -25 82 -45 127 -45 41 0 119
-30 129 -51 15 -27 -12 -89 -38 -89 -11 0 -22 7 -26 15 -3 8 -15 15 -27 15
-18 0 -20 -4 -14 -27 4 -16 7 -35 7 -43 0 -50 23 -170 39 -196 24 -39 26 -62
5 -44 -13 10 -14 5 -11 -32 14 -157 28 -244 50 -323 34 -118 105 -335 116
-357 7 -12 4 -22 -11 -36 -17 -16 -22 -34 -23 -89 -2 -45 -9 -79 -19 -95 -16
-24 -15 -31 28 -164 25 -76 54 -179 65 -227 11 -49 31 -127 44 -174 26 -88 33
-177 15 -188 -6 -3 -10 -10 -10 -16 0 -5 359 -9 940 -9 l940 0 0 1800 0 1800
-2400 0 -2400 0 0 -1800z"/>
</g>
</svg>
