<?xml version="1.0" standalone="no"?>
<!DOCTYPE svg PUBLIC "-//W3C//DTD SVG 20010904//EN"
 "http://www.w3.org/TR/2001/REC-SVG-20010904/DTD/svg10.dtd">
<svg version="1.0" xmlns="http://www.w3.org/2000/svg"
 width="480.000000pt" height="360.000000pt" viewBox="0 0 480.000000 360.000000"
 preserveAspectRatio="xMidYMid meet">
<metadata>
Created by potrace 1.16, written by Peter Selinger 2001-2019
</metadata>
<rect width="1" height="360" fill="#000000"/>
<rect x="479" width="1" height="360" fill="#000000"/>
<rect width="480" height="1" fill="#000000"/>
<rect y="359" width="480" height="1" fill="#000000"/>
<g transform="translate(0.000000,360.000000) scale(0.100000,-0.100000)"
fill="#000000" stroke="none">
<path d="M1505 2934 c-11 -3 -41 -12 -67 -20 -26 -9 -53 -12 -60 -7 -27 17
-55 12 -78 -12 -21 -22 -22 -28 -11 -49 11 -19 10 -28 -2 -52 -27 -53 -28 -86
-7 -143 22 -62 25 -66 60 -76 23 -7 24 -7 10 10 -14 17 -14 17 8 6 23 -12 22
-21 -6 -53 -13 -15 -9 -23 32 -73 25 -31 46 -61 46 -66 0 -5 7 -9 15 -9 9 0
12 -6 8 -16 -3 -8 -12 -13 -21 -9 -15 6 -62 -37 -62 -57 0 -6 7 -19 15 -28 17
-19 11 -50 -10 -50 -16 0 -92 -82 -108 -118 -6 -15 -22 -42 -34 -61 -28 -41
-30 -107 -5 -137 9 -11 30 -28 46 -38 l29 -18 -6 -85 c-3 -46 -13 -97 -22
-114 -8 -16 -22 -42 -31 -59 -8 -16 -20 -32 -25 -36 -6 -3 -7 -19 -4 -34 4
-19 -3 -52 -23 -104 -24 -62 -27 -78 -16 -84 11 -6 11 -15 -2 -57 -27 -88 -52
-226 -69 -380 -9 -82 -22 -202 -30 -265 -12 -99 -28 -274 -50 -567 l-6 -73
492 0 491 0 -6 25 c-14 56 -66 390 -80 520 -9 77 -21 169 -27 205 -24 139
-112 460 -153 553 -14 32 -14 37 -1 37 22 0 19 8 -20 51 l-35 39 24 48 c13 26
52 83 86 127 57 74 61 83 57 122 -2 23 -20 75 -39 115 -21 46 -33 85 -31 104
2 24 -2 33 -17 37 -16 4 -18 11 -13 43 11 68 6 107 -27 202 -25 72 -30 96 -21
105 9 9 14 8 21 -3 8 -12 10 -12 10 -1 0 8 6 11 16 7 10 -4 22 1 30 11 10 14
15 16 25 6 21 -21 24 -16 24 34 0 43 2 48 20 45 16 -2 24 6 33 31 7 19 9 42 6
52 -6 14 -3 16 15 10 20 -6 22 -4 16 17 -4 12 -25 56 -46 96 -21 41 -39 85
-39 98 0 16 -14 39 -39 63 -21 20 -46 50 -56 65 -10 15 -36 36 -58 48 -40 20
-133 32 -172 22z"/>
</g>
</svg>
