<?xml version="1.0" standalone="no"?>
<!DOCTYPE svg PUBLIC "-//W3C//DTD SVG 20010904//EN"
 "http://www.w3.org/TR/2001/REC-SVG-20010904/DTD/svg10.dtd">
<svg version="1.0" xmlns="http://www.w3.org/2000/svg"
 width="480.000000pt" height="360.000000pt" viewBox="0 0 480.000000 360.000000"
 preserveAspectRatio="xMidYMid meet">
<metadata>
Created by potrace 1.16, written by Peter Selinger 2001-2019
</metadata>
<rect width="1" height="360" fill="#000000"/>
<rect x="479" width="1" height="360" fill="#000000"/>
<rect width="480" height="1" fill="#000000"/>
<rect y="359" width="480" height="1" fill="#000000"/>
<g transform="translate(0.000000,360.000000) scale(0.100000,-0.100000)"
fill="#000000" stroke="none">
<path d="M0 1800 l0 -1800 1069 0 1068 0 6 38 c3 20 9 96 13 168 l7 131 -43
17 c-34 13 -41 21 -37 36 3 11 1 23 -4 26 -15 9 -10 24 6 18 8 -4 15 -1 15 5
0 7 -7 14 -15 17 -24 9 -18 32 29 113 43 76 66 151 86 282 15 97 -3 320 -34
443 -31 119 -33 197 -6 266 11 28 20 60 20 71 0 11 11 41 25 68 18 36 23 59
19 90 -4 38 -3 42 34 65 44 28 62 66 62 131 0 37 -6 48 -51 94 -29 28 -56 51
-61 51 -5 0 -7 13 -3 29 7 33 -8 49 -29 32 -11 -9 -19 -5 -39 18 -14 17 -28
27 -31 24 -4 -4 -12 8 -18 25 -8 21 -17 31 -27 27 -22 -9 -9 139 19 203 29 66
104 136 196 182 57 28 83 35 148 38 98 5 138 -6 213 -62 51 -37 66 -56 107
-137 54 -108 78 -207 102 -424 8 -77 28 -212 44 -300 31 -172 55 -378 46 -401
-3 -8 1 -66 10 -130 18 -142 22 -395 10 -790 -7 -237 -6 -319 4 -383 l14 -81
913 0 913 0 0 1453 c0 1441 0 1454 -20 1472 -11 10 -20 25 -20 34 0 9 -14 25
-30 36 -16 11 -30 25 -30 30 0 6 -16 28 -35 48 -20 21 -56 70 -82 110 -25 40
-50 74 -54 75 -5 2 -9 13 -9 24 0 11 -9 37 -19 57 -28 52 -75 203 -80 254 -1
4 -995 7 -2211 7 l-2210 0 0 -1800z"/>
<path d="M2431 1974 c0 -11 3 -14 6 -6 3 7 2 16 -1 19 -3 4 -6 -2 -5 -13z"/>
</g>
</svg>
