<?xml version="1.0" standalone="no"?>
<!DOCTYPE svg PUBLIC "-//W3C//DTD SVG 20010904//EN"
 "http://www.w3.org/TR/2001/REC-SVG-20010904/DTD/svg10.dtd">
<svg version="1.0" xmlns="http://www.w3.org/2000/svg"
 width="480.000000pt" height="360.000000pt" viewBox="0 0 480.000000 360.000000"
 preserveAspectRatio="xMidYMid meet">
<metadata>
Created by potrace 1.16, written by Peter Selinger 2001-2019
</metadata>
<rect width="1" height="360" fill="#000000"/>
<rect x="479" width="1" height="360" fill="#000000"/>
<rect width="480" height="1" fill="#000000"/>
<rect y="359" width="480" height="1" fill="#000000"/>
<g transform="translate(0.000000,360.000000) scale(0.100000,-0.100000)"
fill="#000000" stroke="none">
<path d="M0 3080 l0 -520 33 0 c17 0 38 -4 46 -9 9 -6 28 0 57 19 24 15 70 33
101 39 104 21 104 21 107 147 5 170 65 328 165 436 100 109 174 144 328 159
53 5 100 12 104 16 3 5 44 53 90 108 45 55 90 105 98 112 13 10 -105 12 -556
13 l-573 0 0 -520z m571 477 c-1 -12 -15 -9 -19 4 -3 6 1 10 8 8 6 -3 11 -8
11 -12z"/>
<path d="M1260 3595 c0 -3 6 -16 14 -28 8 -12 33 -67 57 -122 23 -55 47 -105
53 -112 6 -6 47 -23 91 -38 202 -66 366 -226 441 -432 26 -69 29 -91 29 -193
0 -99 -3 -121 -22 -159 -31 -60 -29 -86 12 -180 19 -43 35 -83 35 -89 0 -5
-16 -17 -35 -28 l-35 -19 0 -110 c0 -60 4 -126 9 -147 5 -20 34 -75 64 -122
31 -47 53 -86 48 -86 -5 0 -14 7 -21 15 -28 34 -28 11 0 -45 17 -33 27 -60 22
-60 -4 0 -23 11 -42 25 -19 14 -36 25 -38 25 -2 0 -1 -36 3 -80 4 -44 5 -80 2
-80 -3 0 -13 25 -22 55 -8 30 -18 55 -21 55 -3 0 -5 -26 -3 -57 1 -32 -3 -71
-9 -86 -7 -16 -12 -48 -12 -72 0 -40 5 -50 55 -102 60 -63 65 -73 37 -73 -27
0 -46 -45 -26 -61 22 -18 77 -131 103 -211 l22 -67 50 6 c47 6 49 5 49 -19 0
-14 -7 -47 -15 -74 -31 -101 -19 -127 78 -174 29 -14 53 -32 55 -41 1 -8 -10
-31 -26 -51 -47 -59 -40 -87 84 -337 l109 -220 1173 0 1172 -1 0 1800 0 1800
-404 0 c-295 0 -405 -3 -408 -11 -3 -9 -9 -9 -25 0 -16 8 -376 11 -1362 11
-738 0 -1341 -2 -1341 -5z m2035 -714 c3 -5 1 -12 -4 -15 -12 -8 -41 3 -41 15
0 12 37 12 45 0z m1495 -297 c0 -24 -19 -54 -35 -54 -25 0 -27 21 -4 46 26 28
39 31 39 8z m-573 -100 c4 -12 -56 -38 -65 -29 -3 3 3 14 13 25 20 22 46 23
52 4z m-1742 -1060 c0 -20 -26 -30 -53 -19 -15 6 -14 9 7 26 28 23 46 20 46
-7z m2141 -890 c-3 -9 -6 -18 -6 -20 0 -2 -7 -4 -15 -4 -18 0 -19 12 -3 28 17
17 31 15 24 -4z"/>
<path d="M0 2028 c0 -247 2 -448 5 -448 6 0 102 132 152 210 63 98 177 356
178 403 0 10 -254 127 -276 127 -27 0 -41 24 -29 51 9 19 7 32 -9 64 l-20 40
-1 -447z"/>
<path d="M43 1547 l-43 -21 0 -763 0 -764 52 3 53 3 31 130 c17 72 30 133 28
136 -2 4 -17 9 -33 12 -36 7 -48 46 -27 85 63 117 91 240 63 284 -8 12 -18 33
-22 46 -5 19 -3 22 16 20 19 -3 24 4 33 38 6 23 16 48 22 55 7 8 19 46 27 84
9 39 23 87 32 108 20 49 19 64 -9 92 -22 22 -23 28 -14 59 18 59 49 83 193
155 122 60 214 94 345 128 l35 9 -40 21 c-67 34 -83 37 -90 13 -8 -26 -27 -15
-23 13 3 20 -2 22 -51 23 -33 0 -66 -7 -86 -17 -20 -11 -36 -14 -42 -8 -5 5
-42 -6 -92 -27 -76 -33 -87 -35 -121 -25 -20 6 -57 28 -81 49 -59 51 -100 82
-108 81 -3 0 -25 -10 -48 -22z"/>
<path d="M635 221 c-4 -7 -18 -16 -31 -21 -23 -9 -24 -13 -24 -105 l0 -95 50
0 c33 0 50 4 50 13 0 6 -5 52 -10 101 -11 94 -22 127 -35 107z"/>
</g>
</svg>
