<?xml version="1.0" standalone="no"?>
<!DOCTYPE svg PUBLIC "-//W3C//DTD SVG 20010904//EN"
 "http://www.w3.org/TR/2001/REC-SVG-20010904/DTD/svg10.dtd">
<svg version="1.0" xmlns="http://www.w3.org/2000/svg"
 width="480.000000pt" height="360.000000pt" viewBox="0 0 480.000000 360.000000"
 preserveAspectRatio="xMidYMid meet">
<metadata>
Created by potrace 1.16, written by Peter Selinger 2001-2019
</metadata>
<rect width="1" height="360" fill="#000000"/>
<rect x="479" width="1" height="360" fill="#000000"/>
<rect width="480" height="1" fill="#000000"/>
<rect y="359" width="480" height="1" fill="#000000"/>
<g transform="translate(0.000000,360.000000) scale(0.100000,-0.100000)"
fill="#000000" stroke="none">
<path d="M0 1800 l0 -1800 839 0 c791 0 840 1 845 18 3 9 12 50 20 91 19 90
45 141 148 292 60 87 87 138 109 205 17 49 61 152 99 229 38 77 83 176 100
220 17 44 42 100 55 123 22 40 25 60 31 206 7 157 6 163 -14 177 -11 8 -28 33
-38 54 -10 22 -35 61 -56 86 -21 26 -38 57 -38 70 0 15 -14 36 -37 56 l-38 32
37 33 c35 32 58 66 58 87 0 9 -50 41 -65 41 -10 0 -5 -36 7 -48 7 -7 9 -12 5
-12 -15 0 -63 26 -70 37 -5 8 -12 11 -17 8 -26 -16 -100 107 -100 165 0 14 -5
18 -16 13 -13 -5 -15 -2 -9 16 5 16 2 26 -10 35 -15 11 -15 16 4 64 33 82 90
193 128 244 54 74 190 163 281 183 18 4 36 13 39 21 6 16 -50 129 -108 219
-39 62 -113 132 -181 174 -21 12 -108 51 -194 86 -198 81 -285 131 -379 218
-65 60 -75 73 -75 103 0 19 5 34 10 34 6 0 10 5 10 10 0 7 -237 10 -690 10
l-690 0 0 -1800z"/>
<path d="M1780 3596 c0 -5 87 -46 97 -46 2 0 3 10 1 23 -3 19 -10 22 -50 25
-27 2 -48 1 -48 -2z"/>
<path d="M2496 3553 c15 -27 31 -52 35 -58 3 -5 18 -43 33 -83 30 -83 52 -240
61 -427 10 -208 0 -189 105 -207 116 -21 196 -59 293 -140 89 -75 153 -155
168 -213 6 -22 22 -80 35 -129 35 -126 48 -264 73 -786 11 -216 -3 -156 152
-683 50 -171 79 -289 100 -419 l30 -181 -21 -98 c-11 -54 -20 -105 -20 -113 0
-14 66 -16 630 -16 l630 0 0 1800 0 1800 -1165 0 -1166 0 27 -47z"/>
<path d="M2182 3333 c35 -38 78 -88 93 -112 38 -57 42 -39 11 40 -31 75 -49
96 -101 120 -69 32 -70 21 -3 -48z"/>
</g>
</svg>
