<?xml version="1.0" standalone="no"?>
<!DOCTYPE svg PUBLIC "-//W3C//DTD SVG 20010904//EN"
 "http://www.w3.org/TR/2001/REC-SVG-20010904/DTD/svg10.dtd">
<svg version="1.0" xmlns="http://www.w3.org/2000/svg"
 width="480.000000pt" height="360.000000pt" viewBox="0 0 480.000000 360.000000"
 preserveAspectRatio="xMidYMid meet">
<metadata>
Created by potrace 1.16, written by Peter Selinger 2001-2019
</metadata>
<rect width="1" height="360" fill="#000000"/>
<rect x="479" width="1" height="360" fill="#000000"/>
<rect width="480" height="1" fill="#000000"/>
<rect y="359" width="480" height="1" fill="#000000"/>
<g transform="translate(0.000000,360.000000) scale(0.100000,-0.100000)"
fill="#000000" stroke="none">
<path d="M0 3371 l0 -228 76 -7 c41 -4 87 -12 102 -17 15 -6 51 -15 80 -19 51
-9 55 -8 98 25 55 42 100 46 132 12 24 -25 28 -57 11 -89 -16 -30 -4 -33 34
-9 27 17 50 21 111 21 98 0 169 -17 161 -38 -3 -8 2 -20 10 -26 21 -15 37 -86
23 -103 -10 -12 -5 -16 37 -28 6 -1 17 -26 25 -55 8 -28 18 -53 22 -56 16 -10
8 -47 -17 -76 -14 -16 -25 -35 -25 -41 1 -20 78 -96 120 -117 21 -11 41 -24
45 -30 3 -5 13 -10 21 -10 11 0 14 10 10 47 -2 26 0 57 4 69 5 13 14 71 20
131 15 155 76 363 125 427 14 18 25 40 25 48 0 16 30 48 46 48 5 0 25 24 44
53 19 28 53 70 75 93 22 23 59 62 82 85 23 24 60 57 82 73 23 17 41 33 41 38
0 4 -364 8 -810 8 l-810 0 0 -229z"/>
<path d="M0 1560 l0 -1560 379 0 379 0 7 87 c9 113 5 117 -117 110 -96 -6 -98
-5 -117 55 -19 58 -42 69 -128 61 -61 -5 -73 -3 -79 10 -5 15 -8 15 -30 1 -51
-34 -68 12 -43 113 10 36 9 47 -1 53 -10 6 -7 16 13 40 15 17 30 44 33 58 8
41 35 101 51 113 7 6 13 18 13 26 0 9 22 46 49 83 28 37 47 71 44 74 -4 3 -1
6 5 6 7 0 12 5 12 12 0 6 29 61 64 122 91 157 121 220 204 424 17 39 28 81 25
93 -3 11 3 38 13 60 16 36 16 48 6 110 -7 38 -12 81 -12 94 0 46 -15 25 -49
-70 -19 -52 -38 -100 -42 -107 -15 -24 -19 -1 -9 52 13 66 7 74 -12 18 -9 -24
-30 -85 -48 -136 -33 -90 -33 -93 -17 -127 22 -46 22 -108 1 -126 -14 -11 -18
-11 -29 5 -8 10 -22 16 -32 14 -26 -5 -62 -84 -69 -153 -5 -59 -19 -90 -35
-80 -9 6 -59 165 -59 190 0 9 12 36 26 61 l26 44 -21 29 c-12 16 -25 39 -30
52 -8 22 -11 18 -27 -36 -18 -58 -19 -59 -22 -25 l-4 35 -22 -44 c-22 -48 -46
-64 -46 -34 -1 14 -3 13 -15 -7 -14 -25 -14 -25 -15 -2 0 38 -20 24 -20 -15
-1 -34 -2 -36 -14 -20 -11 14 -15 15 -19 5 -4 -10 -6 -10 -6 0 -1 6 -8 12 -16
12 -39 0 -49 110 -33 386 8 146 30 207 142 402 130 226 144 285 103 442 -22
82 -25 107 -18 179 7 89 1 103 -38 82 -34 -19 -85 -13 -109 12 -30 31 -28 43
15 106 51 77 41 93 -92 138 -54 18 -103 33 -107 33 -4 0 -8 -702 -8 -1560z"/>
<path d="M1286 1925 c3 -49 9 -110 14 -135 5 -25 11 -62 15 -82 3 -21 10 -38
15 -38 13 0 13 106 1 129 -6 10 -11 28 -13 42 -2 13 -8 30 -12 38 -5 8 -13 42
-17 75 -6 48 -7 41 -3 -29z"/>
<path d="M900 1858 c0 -39 4 -68 10 -68 17 0 16 91 -1 120 -5 10 -9 -9 -9 -52z"/>
<path d="M1338 1603 c5 -21 7 -23 10 -9 2 10 0 22 -6 28 -6 6 -7 0 -4 -19z"/>
<path d="M422 1520 c0 -14 3 -45 7 -70 l7 -45 22 35 c27 43 29 64 3 30 l-19
-24 -7 39 c-9 54 -13 65 -13 35z"/>
<path d="M142 1490 c0 -14 2 -19 5 -12 2 6 2 18 0 25 -3 6 -5 1 -5 -13z"/>
<path d="M1600 818 c0 -3 9 -50 20 -105 21 -103 33 -355 19 -384 -5 -10 -27
-19 -53 -23 -38 -6 -49 -14 -83 -59 l-39 -52 -131 0 c-86 0 -136 -4 -143 -12
-7 -6 -15 -50 -17 -97 l-6 -86 529 0 529 1 -30 21 c-66 48 -216 223 -239 279
-10 24 -28 64 -41 89 -12 25 -26 61 -30 80 -9 42 -57 114 -91 136 -13 9 -24
19 -24 23 0 7 -47 62 -132 154 -21 23 -38 38 -38 35z"/>
<path d="M958 133 c-11 -3 -24 -24 -33 -56 -23 -77 -23 -77 45 -77 l61 0 -3
68 c-3 64 -4 67 -28 69 -14 0 -33 -1 -42 -4z"/>
</g>
</svg>
