<?xml version="1.0" standalone="no"?>
<!DOCTYPE svg PUBLIC "-//W3C//DTD SVG 20010904//EN"
 "http://www.w3.org/TR/2001/REC-SVG-20010904/DTD/svg10.dtd">
<svg version="1.0" xmlns="http://www.w3.org/2000/svg"
 width="480.000000pt" height="360.000000pt" viewBox="0 0 480.000000 360.000000"
 preserveAspectRatio="xMidYMid meet">
<metadata>
Created by potrace 1.16, written by Peter Selinger 2001-2019
</metadata>
<rect width="1" height="360" fill="#000000"/>
<rect x="479" width="1" height="360" fill="#000000"/>
<rect width="480" height="1" fill="#000000"/>
<rect y="359" width="480" height="1" fill="#000000"/>
<g transform="translate(0.000000,360.000000) scale(0.100000,-0.100000)"
fill="#000000" stroke="none">
<path d="M0 1800 l0 -1800 1198 0 1198 0 -9 83 c-5 45 -17 96 -25 112 -12 23
-17 63 -18 163 -2 146 5 126 -84 247 -23 32 -30 55 -36 115 -9 97 -36 163 -65
158 -27 -4 -75 -94 -88 -163 -9 -50 -16 -58 -105 -132 -25 -21 -26 -25 -26
-135 0 -66 -6 -132 -14 -158 -7 -25 -17 -76 -21 -115 -4 -38 -11 -78 -16 -87
-12 -22 -38 -23 -45 -3 -5 13 -8 13 -27 0 -37 -26 -121 -21 -653 40 -72 8
-149 15 -170 15 -62 0 -108 17 -148 56 -20 19 -36 38 -36 42 0 4 32 40 70 81
39 41 70 76 70 78 0 3 15 25 32 51 l33 47 -1 135 c0 100 -5 148 -17 186 -21
62 -17 174 13 344 12 63 27 198 35 300 13 159 32 309 76 585 5 33 18 125 29
204 26 178 67 402 81 438 12 33 106 159 165 223 58 64 65 80 49 115 -7 17 -15
38 -19 47 -8 25 -66 58 -102 58 -58 0 -93 12 -110 37 -15 24 -15 26 16 58 37
38 82 58 165 74 69 13 168 58 162 74 -2 6 -25 16 -51 23 -26 7 -62 19 -80 28
-19 9 -40 16 -46 16 -22 0 -157 69 -189 96 -33 27 -39 49 -19 57 7 3 -254 6
-579 6 l-593 1 0 -1800z"/>
<path d="M1863 3593 c9 -2 25 -2 35 0 9 3 1 5 -18 5 -19 0 -27 -2 -17 -5z"/>
<path d="M2128 3590 c-1 -5 -25 -32 -51 -59 -35 -36 -79 -66 -154 -103 -109
-55 -136 -78 -89 -78 15 0 59 -9 99 -19 39 -11 112 -25 162 -31 100 -12 125
-27 125 -72 0 -27 -7 -32 -80 -65 -92 -42 -94 -46 -81 -159 0 -7 17 -19 37
-29 30 -14 183 -147 192 -167 2 -3 18 -26 36 -50 18 -23 41 -65 50 -93 23 -68
32 -201 17 -262 -13 -54 -81 -235 -91 -243 -13 -10 -29 -66 -40 -140 -12 -75
-21 -114 -59 -265 -11 -43 -18 -81 -16 -84 3 -2 16 1 30 7 42 19 90 14 158
-18 41 -19 74 -43 92 -66 l29 -37 13 29 c7 16 27 61 44 99 17 39 58 123 90
188 35 70 59 130 59 150 0 59 47 225 105 374 52 133 63 153 112 201 29 29 53
54 53 56 0 1 -8 27 -17 57 -27 89 -24 418 5 524 7 25 14 30 44 33 l36 3 4
-223 c3 -197 6 -228 23 -263 20 -39 21 -40 70 -37 212 11 239 10 316 -14 110
-35 193 -99 266 -206 l32 -48 49 53 c55 58 136 173 147 208 6 17 -9 54 -56
147 l-63 124 24 19 c21 17 37 19 100 16 41 -2 81 -5 89 -8 10 -3 24 16 43 53
27 57 28 58 55 46 16 -6 44 -28 64 -49 22 -22 54 -42 77 -48 34 -10 45 -20 71
-66 38 -67 39 -81 4 -90 -16 -3 -45 -24 -65 -46 -21 -22 -42 -37 -50 -34 -8 3
-31 26 -52 50 -41 50 -56 56 -56 23 0 -24 -47 -157 -61 -173 -5 -5 -9 -16 -9
-25 0 -18 -73 -132 -119 -186 -18 -21 -46 -55 -62 -74 -42 -51 -45 -53 -66
-71 -18 -15 -19 -22 -10 -80 10 -66 -1 -157 -43 -379 -22 -114 -178 -748 -216
-875 -33 -113 -54 -254 -54 -368 0 -77 -4 -98 -34 -171 -34 -80 -48 -143 -60
-256 -6 -49 -3 -61 27 -115 26 -45 44 -64 78 -82 l44 -22 628 -1 627 0 0 1800
0 1800 -1334 0 c-836 0 -1336 -4 -1338 -10z"/>
</g>
</svg>
