<?xml version="1.0" standalone="no"?>
<!DOCTYPE svg PUBLIC "-//W3C//DTD SVG 20010904//EN"
 "http://www.w3.org/TR/2001/REC-SVG-20010904/DTD/svg10.dtd">
<svg version="1.0" xmlns="http://www.w3.org/2000/svg"
 width="480.000000pt" height="360.000000pt" viewBox="0 0 480.000000 360.000000"
 preserveAspectRatio="xMidYMid meet">
<metadata>
Created by potrace 1.16, written by Peter Selinger 2001-2019
</metadata>
<rect width="1" height="360" fill="#000000"/>
<rect x="479" width="1" height="360" fill="#000000"/>
<rect width="480" height="1" fill="#000000"/>
<rect y="359" width="480" height="1" fill="#000000"/>
<g transform="translate(0.000000,360.000000) scale(0.100000,-0.100000)"
fill="#000000" stroke="none">
<path d="M0 3059 c0 -342 4 -547 10 -559 7 -13 7 -21 0 -25 -6 -4 -10 -89 -10
-224 l0 -217 28 -12 27 -12 -27 4 -28 3 0 -75 c0 -62 4 -82 22 -108 26 -38 93
-84 123 -84 34 0 144 29 178 46 34 18 97 78 97 93 0 5 21 21 48 36 39 22 63
27 142 32 52 2 113 11 135 19 73 26 96 107 54 193 -27 56 -126 156 -164 165
-17 4 -47 19 -68 32 -22 14 -45 23 -52 20 -8 -3 -19 1 -25 9 -6 8 -26 17 -43
20 -18 4 -39 14 -49 22 -11 10 -18 11 -23 3 -7 -11 -25 -5 -25 9 0 5 25 19 55
31 54 22 57 22 119 6 35 -9 114 -20 175 -25 109 -10 113 -11 198 -62 48 -28
106 -66 129 -85 22 -19 45 -34 49 -34 11 0 82 -47 112 -74 22 -19 23 -19 43
-1 15 13 20 30 19 64 -2 72 -11 95 -47 110 -17 8 -34 22 -37 30 -3 9 -31 27
-63 41 -31 13 -92 48 -135 78 -71 48 -91 56 -210 83 -73 17 -166 35 -207 41
-69 8 -78 12 -112 48 -45 46 -47 69 -18 162 11 34 20 73 20 85 0 21 21 86 39
123 9 18 -10 58 -24 53 -6 -2 -9 21 -8 58 2 50 9 74 43 134 58 106 97 161 160
227 l57 58 -354 0 -353 0 0 -541z"/>
<path d="M2400 1800 l0 -1800 906 2 906 3 38 150 c21 83 52 200 69 260 43 149
44 156 22 110 l-20 -40 0 39 -1 38 -42 -43 c-43 -44 -43 -44 -46 -18 -2 15 8
58 22 98 14 39 21 71 16 71 -5 0 -23 -12 -41 -27 -17 -15 -40 -29 -51 -30 -10
-2 -45 -16 -77 -33 -120 -60 -180 -61 -202 -2 -30 76 -38 126 -23 154 8 15 18
30 24 33 6 4 7 11 4 17 -4 6 -1 14 6 18 6 4 15 22 19 41 5 27 17 39 62 66 63
36 119 85 119 103 0 15 -36 4 -72 -21 -34 -24 -33 -24 -34 6 -2 23 10 31 112
82 113 55 184 113 184 148 0 9 -12 38 -26 65 -14 28 -23 57 -20 66 3 8 -2 26
-10 40 -16 23 -15 26 2 45 25 28 80 55 140 70 52 13 114 45 114 59 0 5 7 16
16 24 14 14 19 14 53 -4 50 -25 133 -108 129 -129 -2 -11 -17 -18 -45 -21
l-42 -5 49 -78 c28 -42 50 -80 50 -83 0 -3 -15 -4 -32 -3 -20 2 -32 -1 -31 -8
15 -76 30 -207 26 -227 -8 -37 16 -157 36 -186 10 -14 21 -38 25 -53 6 -26 54
-107 62 -107 2 0 4 655 4 1455 l0 1455 -1200 0 -1200 0 0 -1800z"/>
</g>
</svg>
