<?xml version="1.0" standalone="no"?>
<!DOCTYPE svg PUBLIC "-//W3C//DTD SVG 20010904//EN"
 "http://www.w3.org/TR/2001/REC-SVG-20010904/DTD/svg10.dtd">
<svg version="1.0" xmlns="http://www.w3.org/2000/svg"
 width="480.000000pt" height="360.000000pt" viewBox="0 0 480.000000 360.000000"
 preserveAspectRatio="xMidYMid meet">
<metadata>
Created by potrace 1.16, written by Peter Selinger 2001-2019
</metadata>
<rect width="1" height="360" fill="#000000"/>
<rect x="479" width="1" height="360" fill="#000000"/>
<rect width="480" height="1" fill="#000000"/>
<rect y="359" width="480" height="1" fill="#000000"/>
<g transform="translate(0.000000,360.000000) scale(0.100000,-0.100000)"
fill="#000000" stroke="none">
<path d="M2730 3243 c-50 -11 -126 -46 -173 -80 -26 -19 -51 -33 -54 -30 -13
13 -44 -15 -41 -37 1 -12 -5 -34 -15 -49 -38 -59 -59 -133 -67 -237 -6 -80 -5
-109 5 -123 9 -13 15 -15 20 -7 5 7 16 -1 31 -24 26 -39 40 -47 30 -18 -4 12
-1 11 13 -6 11 -12 25 -20 33 -17 7 2 24 -5 37 -16 24 -20 24 -20 7 -55 l-16
-36 29 -11 c16 -6 33 -18 38 -28 4 -9 34 -38 67 -64 52 -42 61 -46 82 -36 19
8 24 8 24 -4 0 -22 18 -18 25 5 8 25 21 26 28 1 5 -22 -28 -68 -83 -116 -58
-49 -164 -162 -183 -194 -19 -32 -11 -39 24 -21 10 6 19 9 19 7 0 -3 -21 -48
-46 -101 -60 -126 -65 -179 -31 -298 13 -49 21 -88 16 -88 -4 0 -57 22 -116
49 -59 27 -124 52 -143 56 -119 23 -170 59 -170 119 0 12 -7 31 -15 42 -20 27
-18 51 6 86 16 21 18 33 11 40 -8 8 -5 14 11 22 31 16 34 60 5 104 -13 21 -29
49 -36 65 -11 26 -35 36 -46 18 -3 -5 -25 -12 -49 -15 -23 -4 -57 -15 -74 -26
-52 -31 -65 -70 -74 -216 -5 -72 -16 -165 -26 -205 -32 -133 -18 -367 23 -383
8 -3 14 -17 14 -31 0 -14 7 -28 15 -31 8 -4 15 -11 15 -18 0 -6 -25 -91 -55
-190 -30 -98 -55 -193 -55 -211 0 -42 27 -67 66 -59 21 4 34 1 43 -10 8 -9 19
-16 25 -16 7 0 38 -32 70 -70 53 -65 103 -100 142 -100 22 0 16 29 -15 80
l-30 48 32 7 c18 4 55 8 84 9 28 0 55 4 59 9 4 4 17 7 29 7 12 0 31 9 43 21
21 19 22 27 17 102 -3 45 -16 143 -30 217 -13 74 -29 167 -35 205 -6 39 -13
80 -16 91 -4 17 0 23 22 28 22 6 45 -5 136 -65 60 -40 113 -80 118 -89 4 -8
11 -47 15 -85 6 -67 -3 -134 -35 -250 -24 -92 -70 -327 -80 -415 -10 -84 -74
-333 -115 -451 -8 -23 -15 -43 -15 -45 0 -2 313 -4 696 -4 l696 0 -42 73 c-65
114 -116 225 -212 465 -103 260 -147 349 -257 527 -49 79 -81 141 -81 157 0
15 -8 49 -19 75 -35 90 -36 321 -2 343 7 3 9 14 6 23 -10 24 15 129 35 152 10
11 25 36 33 55 l15 35 1 -32 c1 -35 21 -47 21 -13 0 11 3 19 8 19 52 -9 53 11
7 170 -33 117 -74 213 -95 226 -6 4 -8 11 -4 16 3 5 18 0 35 -11 l29 -21 0 23
c0 16 3 19 9 10 6 -10 10 -4 16 20 4 18 9 27 12 21 7 -20 19 -15 31 13 7 14
17 22 22 19 6 -4 9 7 8 27 -3 27 0 33 15 31 15 -1 18 4 12 25 -3 15 -9 38 -12
52 l-6 24 27 -17 27 -18 -14 28 c-8 15 -22 46 -31 68 l-16 40 26 -30 c25 -29
25 -29 19 -5 -4 14 -22 59 -40 100 -19 41 -45 122 -59 178 -14 57 -36 123 -50
145 -31 54 -128 154 -188 195 -44 31 -55 33 -145 37 -54 2 -109 1 -123 -2z"/>
</g>
</svg>
