<?xml version="1.0" standalone="no"?>
<!DOCTYPE svg PUBLIC "-//W3C//DTD SVG 20010904//EN"
 "http://www.w3.org/TR/2001/REC-SVG-20010904/DTD/svg10.dtd">
<svg version="1.0" xmlns="http://www.w3.org/2000/svg"
 width="480.000000pt" height="360.000000pt" viewBox="0 0 480.000000 360.000000"
 preserveAspectRatio="xMidYMid meet">
<metadata>
Created by potrace 1.16, written by Peter Selinger 2001-2019
</metadata>
<rect width="1" height="360" fill="#000000"/>
<rect x="479" width="1" height="360" fill="#000000"/>
<rect width="480" height="1" fill="#000000"/>
<rect y="359" width="480" height="1" fill="#000000"/>
<g transform="translate(0.000000,360.000000) scale(0.100000,-0.100000)"
fill="#000000" stroke="none">
<path d="M2084 3583 c3 -10 12 -76 21 -148 9 -71 34 -220 56 -330 l40 -200
-26 -146 c-31 -181 -31 -192 0 -276 l24 -68 -22 -17 c-12 -9 -71 -43 -130 -74
-149 -79 -175 -107 -227 -240 -84 -216 -170 -356 -225 -367 -16 -3 -41 4 -64
16 -35 19 -43 20 -95 8 -31 -7 -54 -17 -51 -22 4 -5 -1 -9 -9 -9 -24 0 -29
-20 -10 -41 18 -20 18 -20 -10 -10 -15 6 -32 11 -37 11 -18 0 -9 -25 19 -47
26 -21 26 -22 5 -23 -12 0 -24 -4 -27 -9 -28 -45 179 -40 349 9 94 27 115 30
146 21 71 -21 76 -16 134 134 17 44 59 133 94 197 58 107 66 117 105 132 23 9
48 16 56 16 8 0 54 23 103 51 107 62 139 67 173 26 17 -20 21 -33 15 -45 -4
-9 -6 -24 -3 -32 5 -13 3 -13 -11 -1 -11 9 -17 10 -17 2 0 -6 -9 -11 -19 -11
-28 0 -49 -25 -61 -73 -22 -86 -35 -127 -40 -128 -3 0 -15 -2 -28 -3 -12 -2
-37 -17 -55 -34 -18 -18 -39 -32 -46 -32 -33 0 -181 -117 -181 -143 0 -4 -13
-20 -30 -34 -18 -15 -30 -34 -30 -50 0 -13 -5 -33 -10 -43 -16 -30 7 -117 35
-136 22 -14 32 -13 122 11 54 14 110 31 125 37 22 8 35 7 65 -7 29 -14 51 -16
112 -11 l75 6 61 -64 c119 -125 204 -162 352 -153 160 11 193 41 248 227 39
131 72 190 128 232 l42 30 -52 -4 c-37 -4 -80 -19 -142 -52 -49 -25 -96 -46
-104 -46 -10 0 -21 23 -32 68 -10 37 -22 71 -27 76 -17 20 -6 43 35 72 69 50
283 231 311 264 31 38 33 65 5 80 -11 7 -18 17 -16 24 12 31 -160 69 -183 41
-7 -8 -20 -15 -30 -15 -9 0 -20 -3 -24 -7 -10 -11 -46 -14 -46 -4 0 18 41 137
58 168 19 35 129 153 143 153 15 0 139 122 139 136 0 12 -5 12 -30 -1 -16 -9
-30 -12 -30 -8 0 14 41 77 94 143 55 68 103 166 130 262 18 63 20 92 7 84 -5
-4 -11 -1 -13 5 -2 7 -18 -10 -36 -37 -22 -34 -32 -43 -32 -29 0 11 16 45 35
75 51 79 30 89 -41 20 -31 -30 -54 -50 -51 -45 3 6 26 43 51 84 25 41 43 77
41 80 -3 2 -18 -8 -33 -22 -33 -31 -39 -33 -44 -10 -2 12 -17 3 -63 -38 -52
-48 -56 -50 -31 -16 21 28 25 37 13 37 -8 0 -17 6 -20 13 -2 8 -19 0 -48 -24
-72 -58 -73 -58 -66 -11 3 23 4 42 2 42 -2 0 -15 -18 -28 -41 -26 -43 -39 -36
-30 17 l5 29 -22 -32 c-26 -39 -40 -42 -40 -9 0 14 -11 37 -24 53 l-24 27 -7
-54 c-10 -76 -18 -93 -72 -158 l-46 -57 7 40 c13 69 15 88 22 169 6 63 4 78
-6 74 -7 -2 -45 -60 -84 -128 l-70 -123 -14 33 c-11 27 -11 47 3 128 9 52 14
106 10 119 -4 17 8 53 40 120 25 53 45 100 45 104 0 5 -176 9 -391 9 -367 0
-390 -1 -385 -17z m511 -633 c24 -35 26 -44 18 -77 l-10 -38 -20 45 c-26 58
-38 110 -25 110 5 0 22 -18 37 -40z"/>
</g>
</svg>
