<?xml version="1.0" standalone="no"?>
<!DOCTYPE svg PUBLIC "-//W3C//DTD SVG 20010904//EN"
 "http://www.w3.org/TR/2001/REC-SVG-20010904/DTD/svg10.dtd">
<svg version="1.0" xmlns="http://www.w3.org/2000/svg"
 width="480.000000pt" height="360.000000pt" viewBox="0 0 480.000000 360.000000"
 preserveAspectRatio="xMidYMid meet">
<metadata>
Created by potrace 1.16, written by Peter Selinger 2001-2019
</metadata>
<rect width="1" height="360" fill="#000000"/>
<rect x="479" width="1" height="360" fill="#000000"/>
<rect width="480" height="1" fill="#000000"/>
<rect y="359" width="480" height="1" fill="#000000"/>
<g transform="translate(0.000000,360.000000) scale(0.100000,-0.100000)"
fill="#000000" stroke="none">
<path d="M0 2748 l1 -853 23 38 23 38 15 -38 15 -38 11 28 c9 21 18 27 41 27
16 0 33 -5 37 -11 4 -8 9 -7 15 2 6 11 11 11 21 1 17 -17 33 -15 19 2 -16 20
-4 41 24 44 22 2 30 -8 65 -82 39 -81 192 -306 210 -306 4 0 0 23 -11 50 -24
63 -25 88 -4 70 12 -10 15 -9 15 5 0 14 3 13 20 -6 16 -20 19 -21 20 -7 0 28
28 10 39 -25 5 -18 17 -67 26 -110 9 -42 20 -75 25 -72 5 3 6 37 3 75 -4 49
-3 70 6 70 6 0 11 -7 11 -15 0 -12 4 -13 18 -6 13 7 22 7 30 -1 6 -6 22 -12
34 -13 34 -2 34 -34 -2 -105 -42 -83 -98 -141 -203 -212 -68 -46 -87 -64 -87
-82 0 -36 34 -71 118 -119 112 -65 119 -75 133 -187 13 -109 17 -120 70 -175
30 -31 41 -53 49 -95 7 -36 19 -63 35 -78 14 -12 25 -25 25 -28 0 -4 -55 -234
-84 -354 -8 -30 -25 -83 -39 -118 l-26 -62 113 0 112 0 35 42 c89 109 82 104
127 89 40 -14 115 -11 156 5 18 7 19 3 14 -64 l-5 -72 39 0 c46 0 45 -11 14
145 -8 44 -18 145 -22 225 -8 177 8 288 59 416 20 49 38 112 42 139 12 91 47
199 83 260 20 34 79 101 135 155 l100 96 -57 304 c-85 456 -140 689 -202 850
-80 209 -115 292 -182 440 -41 91 -84 188 -94 215 -31 78 -67 218 -74 290 l-7
65 -563 0 -564 0 0 -852z"/>
<path d="M1752 3528 c58 -143 204 -686 253 -938 28 -148 66 -428 89 -670 26
-267 28 -281 40 -277 91 35 363 43 480 14 51 -13 71 -14 77 -6 3 6 10 61 13
123 21 347 50 575 91 736 91 357 311 759 561 1029 l56 61 -845 0 -845 0 30
-72z"/>
<path d="M3890 3571 c0 -43 -45 -195 -87 -291 -55 -127 -103 -202 -262 -413
-262 -348 -332 -477 -391 -722 -25 -106 -100 -609 -100 -674 0 -32 36 -75 118
-141 101 -81 184 -225 228 -394 8 -33 29 -86 46 -119 20 -41 35 -91 44 -154
13 -85 12 -112 -6 -296 -12 -111 -27 -230 -35 -265 -8 -35 -15 -72 -15 -83 0
-19 14 -19 685 -19 l685 0 0 1488 0 1487 -30 64 c-35 73 -238 358 -343 479
l-71 82 -233 0 -233 0 0 -29z"/>
</g>
</svg>
