<?xml version="1.0" standalone="no"?>
<!DOCTYPE svg PUBLIC "-//W3C//DTD SVG 20010904//EN"
 "http://www.w3.org/TR/2001/REC-SVG-20010904/DTD/svg10.dtd">
<svg version="1.0" xmlns="http://www.w3.org/2000/svg"
 width="480.000000pt" height="360.000000pt" viewBox="0 0 480.000000 360.000000"
 preserveAspectRatio="xMidYMid meet">
<metadata>
Created by potrace 1.16, written by Peter Selinger 2001-2019
</metadata>
<rect width="1" height="360" fill="#000000"/>
<rect x="479" width="1" height="360" fill="#000000"/>
<rect width="480" height="1" fill="#000000"/>
<rect y="359" width="480" height="1" fill="#000000"/>
<g transform="translate(0.000000,360.000000) scale(0.100000,-0.100000)"
fill="#000000" stroke="none">
<path d="M1915 3586 c-111 -28 -167 -49 -172 -62 -3 -9 1 -33 10 -55 15 -38
15 -41 -3 -59 -22 -22 -18 -46 20 -120 29 -58 49 -80 71 -80 24 0 61 -82 87
-190 25 -106 54 -261 49 -266 -2 -2 -21 1 -42 7 -55 15 -140 7 -172 -17 -54
-41 -68 -70 -67 -142 1 -52 8 -83 31 -137 17 -38 39 -99 48 -134 29 -115 77
-183 137 -196 16 -4 28 -13 28 -22 0 -22 -41 -103 -64 -126 -15 -16 -17 -30
-14 -75 5 -53 8 -59 63 -110 l58 -54 -6 -56 c-3 -30 -2 -74 3 -96 6 -23 12
-58 16 -80 7 -50 81 -127 113 -119 27 7 26 17 -4 78 l-26 50 26 8 c24 8 35 27
16 27 -17 0 -41 69 -41 119 0 46 3 52 29 66 16 8 32 23 36 34 5 16 12 18 47
14 l40 -6 -16 25 c-14 22 -15 27 -2 37 18 15 15 83 -4 106 -9 10 -9 19 -2 28
7 8 7 28 2 57 -5 25 -9 48 -10 51 0 4 -9 9 -20 12 -33 9 -24 49 28 123 79 113
85 128 78 205 -8 89 11 212 42 274 13 27 47 113 74 190 28 77 57 159 65 183
10 28 25 48 43 57 38 20 92 115 89 158 -1 17 6 58 15 89 24 79 12 142 -37 196
-20 22 -22 22 -316 21 -203 0 -312 -5 -346 -13z"/>
</g>
</svg>
