<?xml version="1.0" standalone="no"?>
<!DOCTYPE svg PUBLIC "-//W3C//DTD SVG 20010904//EN"
 "http://www.w3.org/TR/2001/REC-SVG-20010904/DTD/svg10.dtd">
<svg version="1.0" xmlns="http://www.w3.org/2000/svg"
 width="480.000000pt" height="360.000000pt" viewBox="0 0 480.000000 360.000000"
 preserveAspectRatio="xMidYMid meet">
<metadata>
Created by potrace 1.16, written by Peter Selinger 2001-2019
</metadata>
<rect width="1" height="360" fill="#000000"/>
<rect x="479" width="1" height="360" fill="#000000"/>
<rect width="480" height="1" fill="#000000"/>
<rect y="359" width="480" height="1" fill="#000000"/>
<g transform="translate(0.000000,360.000000) scale(0.100000,-0.100000)"
fill="#000000" stroke="none">
<path d="M0 1800 l0 -1800 2400 0 2400 0 0 1800 0 1800 -1090 0 -1090 0 0
-117 c0 -147 -22 -234 -97 -381 -30 -59 -66 -128 -79 -155 -13 -26 -28 -71
-32 -100 l-8 -52 -8 34 c-5 19 -48 116 -96 215 -114 234 -133 297 -134 443
l-1 113 -1082 0 -1083 0 0 -1800z m2450 898 c15 -35 32 -59 60 -84 l25 -23
-30 -1 c-47 -1 -9 -20 40 -20 65 -1 118 -31 166 -97 23 -32 47 -61 52 -64 5
-4 45 -9 89 -13 97 -8 248 -60 326 -113 28 -19 52 -37 52 -40 0 -2 5 -35 11
-73 12 -78 0 -122 -27 -99 -18 14 -17 15 -33 -41 -8 -26 -28 -60 -51 -82 -43
-44 -81 -49 -166 -23 -27 8 -50 15 -51 15 -1 0 -21 -25 -44 -56 -45 -59 -99
-96 -167 -114 -40 -10 -42 -12 -30 -33 7 -12 13 -38 14 -57 1 -20 16 -66 33
-102 28 -59 31 -73 25 -119 -5 -37 -12 -53 -25 -56 -18 -5 -20 -46 -4 -118 l6
-30 -16 25 c-9 14 -14 17 -11 8 3 -9 8 -34 12 -55 14 -78 87 -210 167 -306 78
-93 89 -114 75 -136 -9 -15 -9 -25 0 -46 14 -31 8 -45 -18 -45 -10 0 -31 -16
-46 -35 -19 -25 -34 -35 -55 -35 -18 0 -44 -14 -75 -41 -47 -40 -49 -41 -104
-35 -53 6 -57 5 -69 -18 -11 -20 -11 -33 0 -76 21 -83 -20 -114 -95 -70 -44
27 -45 43 -6 72 30 21 36 41 24 73 -8 20 -62 48 -80 41 -19 -7 -18 -67 1 -113
9 -21 12 -40 7 -45 -5 -5 -33 -8 -63 -6 -47 3 -54 6 -57 25 -2 13 4 33 12 45
18 26 21 74 5 83 -6 4 -8 13 -5 20 5 14 -91 30 -119 19 -13 -5 -15 0 -9 35 6
37 4 43 -15 48 -11 3 -21 7 -21 8 0 18 39 186 65 280 78 277 105 564 58 617
-11 13 -12 24 -5 52 11 37 9 40 -20 37 -9 -1 -19 7 -23 19 -3 11 -13 20 -22
20 -8 0 -40 18 -72 40 -63 44 -73 47 -91 24 -8 -9 -25 -14 -44 -12 -29 3 -33
9 -60 81 -29 76 -29 78 -13 113 21 44 108 153 170 214 25 25 73 59 106 75 34
17 63 37 65 45 2 8 10 44 17 79 18 92 68 152 154 185 6 2 4 9 -4 17 -8 8 -11
9 -8 3 4 -7 0 -14 -8 -18 -16 -6 -22 24 -7 38 4 4 7 18 8 29 3 95 7 105 24 65z"/>
<path d="M3190 2191 c-15 -30 -12 -56 10 -76 27 -25 32 -16 24 44 -7 54 -17
63 -34 32z"/>
<path d="M3105 2061 c-74 -21 -113 -41 -144 -75 -28 -30 -29 -29 25 -44 60
-17 98 -15 127 8 25 20 63 99 56 118 -2 5 -29 2 -64 -7z"/>
<path d="M2775 1914 c-11 -2 -46 -6 -79 -9 l-58 -7 7 -46 c10 -69 21 -76 80
-55 53 20 141 95 130 112 -6 10 -35 12 -80 5z"/>
<path d="M1974 1891 c-22 -6 -22 -7 -5 -51 18 -49 47 -63 71 -34 12 14 11 21
-5 52 -22 39 -29 43 -61 33z"/>
<path d="M2165 1839 c-55 -13 -64 -25 -35 -47 55 -40 104 -63 124 -58 18 4 21
13 21 58 l0 53 -35 2 c-19 1 -53 -3 -75 -8z"/>
</g>
</svg>
