<?xml version="1.0" standalone="no"?>
<!DOCTYPE svg PUBLIC "-//W3C//DTD SVG 20010904//EN"
 "http://www.w3.org/TR/2001/REC-SVG-20010904/DTD/svg10.dtd">
<svg version="1.0" xmlns="http://www.w3.org/2000/svg"
 width="480.000000pt" height="360.000000pt" viewBox="0 0 480.000000 360.000000"
 preserveAspectRatio="xMidYMid meet">
<metadata>
Created by potrace 1.16, written by Peter Selinger 2001-2019
</metadata>
<rect width="1" height="360" fill="#000000"/>
<rect x="479" width="1" height="360" fill="#000000"/>
<rect width="480" height="1" fill="#000000"/>
<rect y="359" width="480" height="1" fill="#000000"/>
<g transform="translate(0.000000,360.000000) scale(0.100000,-0.100000)"
fill="#000000" stroke="none">
<path d="M1604 3423 c1 -244 -21 -359 -107 -558 -26 -61 -97 -183 -140 -245
-30 -43 -181 -200 -222 -230 -11 -8 -41 -32 -66 -53 -112 -91 -366 -198 -539
-227 -137 -23 -408 -15 -513 16 -16 5 -17 -50 -17 -1060 l0 -1066 1325 0 1325
0 5 23 c3 12 19 83 36 157 17 74 63 225 103 335 40 110 83 243 95 295 12 52
24 103 27 113 5 15 -2 17 -45 17 -47 0 -53 3 -71 33 -11 17 -20 38 -20 46 0
16 50 128 156 350 98 203 97 238 -4 337 -59 58 -53 117 20 214 24 32 46 75 54
109 11 44 24 66 59 99 46 44 55 68 33 90 -10 10 -8 14 10 18 37 10 26 30 -15
26 -35 -2 -40 0 -63 39 -14 23 -33 50 -44 60 -17 16 -17 19 -2 40 22 33 21 37
-19 45 -34 6 -59 32 -67 69 -2 11 -9 19 -16 18 -17 -4 -5 52 25 115 l25 53
-37 70 c-22 43 -35 80 -33 97 3 23 8 27 41 30 46 4 248 -42 297 -67 19 -10 53
-21 75 -25 56 -11 104 -38 152 -88 54 -55 81 -120 98 -234 8 -53 24 -113 38
-141 46 -91 57 -149 47 -248 -4 -49 -11 -97 -15 -106 -3 -9 1 -43 9 -75 32
-125 40 -225 23 -296 -11 -50 -13 -88 -7 -155 28 -299 33 -436 21 -496 -6 -34
-14 -76 -17 -92 -7 -37 51 -200 136 -385 87 -188 129 -306 164 -462 l6 -28
435 0 435 0 0 1800 0 1800 -1598 0 -1598 0 0 -177z"/>
<path d="M2931 1089 c-6 -28 -10 -54 -7 -56 2 -2 9 19 15 48 6 28 10 54 7 56
-2 2 -9 -19 -15 -48z"/>
</g>
</svg>
