<?xml version="1.0" standalone="no"?>
<!DOCTYPE svg PUBLIC "-//W3C//DTD SVG 20010904//EN"
 "http://www.w3.org/TR/2001/REC-SVG-20010904/DTD/svg10.dtd">
<svg version="1.0" xmlns="http://www.w3.org/2000/svg"
 width="480.000000pt" height="360.000000pt" viewBox="0 0 480.000000 360.000000"
 preserveAspectRatio="xMidYMid meet">
<metadata>
Created by potrace 1.16, written by Peter Selinger 2001-2019
</metadata>
<rect width="1" height="360" fill="#000000"/>
<rect x="479" width="1" height="360" fill="#000000"/>
<rect width="480" height="1" fill="#000000"/>
<rect y="359" width="480" height="1" fill="#000000"/>
<g transform="translate(0.000000,360.000000) scale(0.100000,-0.100000)"
fill="#000000" stroke="none">
<path d="M1604 3413 c0 -272 -25 -385 -135 -608 -53 -108 -137 -227 -222 -314
-77 -80 -232 -200 -297 -232 -32 -15 -61 -33 -65 -38 -3 -6 -38 -20 -78 -32
-40 -12 -76 -25 -82 -29 -23 -18 -192 -52 -302 -61 -138 -11 -314 0 -406 27
-16 5 -17 -50 -17 -1060 l0 -1066 2016 0 c1915 0 2015 1 2010 18 -15 53 -28
195 -23 266 3 44 21 162 41 261 20 99 45 261 56 360 11 99 32 245 47 325 15
80 27 159 27 175 -2 44 -22 236 -26 239 -2 1 -19 12 -39 24 -43 26 -69 62 -69
94 1 31 30 94 73 156 24 35 37 68 42 104 6 46 14 59 52 94 37 34 42 42 27 48
-16 6 -16 8 1 26 22 24 12 39 -15 22 -31 -19 -48 -15 -93 21 -23 19 -50 37
-60 40 -13 5 -16 13 -12 30 5 18 1 26 -21 35 -14 7 -34 10 -43 7 -11 -3 -28 6
-47 25 -16 16 -34 30 -40 30 -7 0 -7 25 -2 81 l9 80 -71 67 c-38 37 -70 73
-70 79 0 22 44 42 100 47 30 3 139 11 241 17 l186 12 64 -28 c35 -16 86 -49
112 -74 49 -46 147 -185 147 -207 0 -6 17 -27 38 -46 51 -47 96 -105 120 -158
l20 -45 1 688 1 687 -1598 0 -1597 0 -1 -187z"/>
<path d="M4634 1669 c-33 -51 -35 -62 -24 -140 8 -57 8 -89 -1 -124 -11 -43
-10 -48 12 -71 l23 -25 14 26 c22 42 31 191 15 259 -17 75 -27 94 -39 75z"/>
<path d="M4736 1191 c-4 -7 -5 -15 -2 -18 9 -9 19 4 14 18 -4 11 -6 11 -12 0z"/>
</g>
</svg>
