<?xml version="1.0" standalone="no"?>
<!DOCTYPE svg PUBLIC "-//W3C//DTD SVG 20010904//EN"
 "http://www.w3.org/TR/2001/REC-SVG-20010904/DTD/svg10.dtd">
<svg version="1.0" xmlns="http://www.w3.org/2000/svg"
 width="480.000000pt" height="360.000000pt" viewBox="0 0 480.000000 360.000000"
 preserveAspectRatio="xMidYMid meet">
<metadata>
Created by potrace 1.16, written by Peter Selinger 2001-2019
</metadata>
<rect width="1" height="360" fill="#000000"/>
<rect x="479" width="1" height="360" fill="#000000"/>
<rect width="480" height="1" fill="#000000"/>
<rect y="359" width="480" height="1" fill="#000000"/>
<g transform="translate(0.000000,360.000000) scale(0.100000,-0.100000)"
fill="#000000" stroke="none">
<path d="M2285 2280 c-309 -28 -528 -81 -860 -211 -532 -207 -735 -260 -1145
-299 -118 -11 -216 -22 -218 -24 -5 -6 42 -14 113 -21 261 -26 422 -54 580
-100 253 -75 970 -278 1038 -295 106 -27 237 -49 387 -66 142 -16 190 -17 190
-6 0 10 -112 42 -147 42 -66 0 -97 18 -140 83 -23 35 -67 90 -98 124 l-55 61
-1 79 c0 43 -4 114 -8 157 -9 78 -8 79 23 120 17 23 56 83 86 133 l55 92 70
22 c39 11 104 37 146 56 l77 35 88 -30 c49 -17 116 -33 150 -37 72 -8 76 -10
99 -55 28 -54 65 -101 120 -151 l50 -46 1 -114 c1 -63 6 -134 11 -159 9 -44 8
-46 -41 -105 -27 -33 -60 -85 -73 -115 -43 -100 -40 -97 -117 -115 -80 -20
-149 -49 -168 -72 -12 -15 -1 -16 110 -9 354 20 586 78 1087 274 390 152 524
182 873 198 84 4 155 10 157 14 2 4 -53 14 -123 24 -264 36 -354 57 -674 162
-328 106 -824 259 -959 294 -212 55 -475 78 -684 60z"/>
</g>
</svg>
