<?xml version="1.0" standalone="no"?>
<!DOCTYPE svg PUBLIC "-//W3C//DTD SVG 20010904//EN"
 "http://www.w3.org/TR/2001/REC-SVG-20010904/DTD/svg10.dtd">
<svg version="1.0" xmlns="http://www.w3.org/2000/svg"
 width="480.000000pt" height="360.000000pt" viewBox="0 0 480.000000 360.000000"
 preserveAspectRatio="xMidYMid meet">
<metadata>
Created by potrace 1.16, written by Peter Selinger 2001-2019
</metadata>
<rect width="1" height="360" fill="#000000"/>
<rect x="479" width="1" height="360" fill="#000000"/>
<rect width="480" height="1" fill="#000000"/>
<rect y="359" width="480" height="1" fill="#000000"/>
<g transform="translate(0.000000,360.000000) scale(0.100000,-0.100000)"
fill="#000000" stroke="none">
<path d="M0 1800 l0 -1800 2400 0 2400 0 0 1800 0 1800 -2400 0 -2400 0 0
-1800z m2240 605 c-7 -9 -7 -21 0 -39 30 -80 18 -244 -25 -326 -19 -37 -7 -38
44 -6 70 44 324 173 463 235 159 71 188 74 324 36 49 -14 123 -34 164 -46 104
-29 158 -49 171 -65 16 -19 -13 -109 -69 -219 -38 -75 -63 -107 -146 -190
-101 -100 -383 -324 -493 -390 -32 -19 -69 -35 -82 -35 -41 0 -257 -117 -341
-185 -43 -35 -99 -75 -125 -91 -65 -38 -168 -74 -211 -74 -21 0 -47 -9 -61
-20 -14 -11 -35 -20 -47 -20 -33 0 -215 94 -278 144 -77 61 -248 267 -248 299
0 33 27 54 168 131 108 59 282 164 282 170 0 33 28 132 46 165 28 51 30 69 8
99 -15 22 -15 22 -42 3 -24 -17 -35 -18 -96 -10 l-68 10 -85 -50 c-46 -28 -93
-51 -104 -51 -42 0 -14 28 74 73 160 82 251 131 306 166 53 35 53 35 32 52
-22 18 -28 53 -11 64 6 3 10 17 10 29 0 38 25 52 63 37 18 -7 59 -17 91 -22
l59 -9 55 42 c140 108 158 120 175 111 4 -3 3 -11 -3 -18z"/>
<path d="M2055 2274 c-28 -19 -49 -40 -47 -46 1 -5 -2 -16 -8 -23 -8 -10 -8
-20 0 -36 10 -17 9 -23 -1 -30 -19 -12 -26 -11 -54 7 -16 10 -25 12 -25 5 0
-6 11 -17 25 -23 14 -6 25 -18 25 -25 0 -8 16 -31 35 -51 38 -41 42 -65 20
-119 -8 -19 -15 -37 -15 -40 0 -14 84 47 97 71 31 59 53 140 53 196 0 62 -25
150 -43 150 -7 0 -35 -16 -62 -36z"/>
<path d="M1693 2047 c-52 -25 -55 -37 -10 -37 26 0 37 6 47 25 7 14 11 27 9
29 -2 2 -23 -6 -46 -17z"/>
<path d="M1948 2003 c-2 -5 -1 -28 2 -53 l5 -45 18 32 c9 18 17 37 17 42 0 13
-38 34 -42 24z"/>
</g>
</svg>
