<?xml version="1.0" standalone="no"?>
<!DOCTYPE svg PUBLIC "-//W3C//DTD SVG 20010904//EN"
 "http://www.w3.org/TR/2001/REC-SVG-20010904/DTD/svg10.dtd">
<svg version="1.0" xmlns="http://www.w3.org/2000/svg"
 width="480.000000pt" height="360.000000pt" viewBox="0 0 480.000000 360.000000"
 preserveAspectRatio="xMidYMid meet">
<metadata>
Created by potrace 1.16, written by Peter Selinger 2001-2019
</metadata>
<rect width="1" height="360" fill="#000000"/>
<rect x="479" width="1" height="360" fill="#000000"/>
<rect width="480" height="1" fill="#000000"/>
<rect y="359" width="480" height="1" fill="#000000"/>
<g transform="translate(0.000000,360.000000) scale(0.100000,-0.100000)"
fill="#000000" stroke="none">
<path d="M4006 3588 c-14 -44 -17 -88 -17 -218 l0 -147 -37 -35 c-34 -31 -109
-87 -217 -160 -22 -15 -68 -50 -101 -77 l-61 -48 -94 4 -94 5 -38 -35 c-20
-19 -44 -52 -53 -73 -37 -88 -26 -324 19 -380 23 -30 45 -30 123 -3 34 12 69
19 78 16 10 -4 26 -28 38 -54 18 -40 19 -54 10 -88 -6 -22 -10 -40 -9 -41 1
-1 25 3 54 9 48 10 54 9 91 -15 42 -29 108 -103 162 -185 38 -58 56 -64 130
-42 21 7 54 9 73 5 46 -9 63 -46 76 -161 6 -49 19 -162 30 -250 35 -280 49
-660 32 -850 l-6 -70 -100 -52 c-76 -39 -100 -56 -100 -71 0 -12 -16 -32 -40
-50 -22 -16 -51 -40 -65 -54 -14 -14 -43 -33 -65 -42 -64 -27 -153 -68 -252
-117 l-94 -45 -66 23 c-86 30 -118 29 -244 -7 l-104 -29 -35 38 c-19 21 -89
100 -156 177 -66 76 -154 177 -195 223 -139 157 -239 275 -239 282 0 4 18 45
40 91 52 109 61 160 62 358 0 177 -5 206 -49 252 -23 24 -27 41 -39 155 -7 70
-18 254 -23 408 -5 154 -15 298 -21 320 -13 44 -36 75 -56 75 -18 0 -54 -39
-66 -71 -6 -19 -23 -32 -53 -44 -65 -24 -70 -50 -55 -294 11 -161 8 -396 -4
-408 -2 -2 -31 4 -65 13 -61 15 -65 15 -133 -7 -39 -13 -76 -32 -82 -41 -6
-10 -19 -18 -29 -18 -22 0 -129 -54 -145 -73 -9 -10 -25 -13 -50 -10 -32 4
-41 0 -70 -30 -36 -37 -92 -177 -94 -235 -2 -43 27 -72 80 -79 40 -5 41 -6 51
-57 43 -224 77 -355 126 -482 46 -118 69 -152 209 -307 115 -127 267 -305 360
-425 l49 -62 1208 0 1209 0 0 463 c0 436 -2 472 -25 642 -14 99 -25 199 -25
223 l0 43 25 -28 24 -28 1 1143 0 1142 -395 0 c-308 0 -396 -3 -399 -12z"/>
</g>
</svg>
