<?xml version="1.0" standalone="no"?>
<!DOCTYPE svg PUBLIC "-//W3C//DTD SVG 20010904//EN"
 "http://www.w3.org/TR/2001/REC-SVG-20010904/DTD/svg10.dtd">
<svg version="1.0" xmlns="http://www.w3.org/2000/svg"
 width="480.000000pt" height="360.000000pt" viewBox="0 0 480.000000 360.000000"
 preserveAspectRatio="xMidYMid meet">
<metadata>
Created by potrace 1.16, written by Peter Selinger 2001-2019
</metadata>
<rect width="1" height="360" fill="#000000"/>
<rect x="479" width="1" height="360" fill="#000000"/>
<rect width="480" height="1" fill="#000000"/>
<rect y="359" width="480" height="1" fill="#000000"/>
<g transform="translate(0.000000,360.000000) scale(0.100000,-0.100000)"
fill="#000000" stroke="none">
<path d="M3541 3586 c-7 -8 -17 -45 -22 -81 -7 -54 -6 -70 6 -88 8 -12 15 -34
15 -50 0 -15 11 -49 25 -76 20 -41 30 -50 60 -55 22 -5 35 -12 32 -19 -7 -19
-46 -145 -69 -222 -11 -38 -26 -84 -33 -100 -12 -28 -70 -255 -110 -430 -22
-96 -31 -340 -16 -444 14 -91 2 -141 -31 -141 -22 0 -192 45 -272 71 -59 20
-93 19 -40 -1 76 -30 265 -89 317 -101 48 -10 57 -15 57 -34 0 -38 -23 -48
-92 -40 -64 7 -280 38 -398 57 -36 6 -76 12 -90 14 -14 2 -59 8 -100 13 -41 6
-121 16 -177 23 -81 9 -102 15 -106 29 -3 9 -1 23 4 30 11 17 2 178 -13 237
-10 41 -10 44 21 76 18 18 31 42 31 57 0 41 -42 112 -79 133 -31 18 -38 18
-90 5 -50 -13 -56 -17 -65 -48 -8 -29 -5 -41 22 -91 18 -32 32 -64 32 -71 0
-8 -17 -47 -37 -87 -38 -72 -38 -73 -20 -103 21 -37 22 -66 3 -111 -19 -46
-52 -270 -75 -508 -22 -229 -20 -235 56 -245 27 -3 54 -9 62 -14 18 -9 35 -57
27 -76 -5 -15 -14 -19 -84 -46 -27 -10 -33 -16 -30 -37 4 -36 48 -45 181 -39
123 5 151 18 93 42 -43 18 -56 45 -56 114 0 64 16 77 72 63 56 -15 72 -2 65
53 -8 60 -56 343 -68 400 -6 28 -20 76 -31 108 -11 32 -18 61 -14 64 9 9 285
-23 566 -67 69 -11 187 -26 264 -34 89 -9 143 -19 153 -28 7 -8 16 -32 20 -54
3 -21 14 -49 25 -61 18 -19 28 -21 101 -17 45 2 86 9 91 14 7 7 3 32 -13 76
-13 36 -20 69 -15 74 5 4 32 15 60 24 28 9 59 23 69 30 10 7 26 11 35 9 15 -4
22 -21 47 -121 3 -14 -3 -43 -15 -70 -75 -168 -102 -239 -111 -285 -5 -30 -16
-56 -26 -62 -81 -48 -167 -112 -237 -177 -46 -42 -95 -86 -110 -97 -27 -22
-35 -65 -15 -90 7 -7 10 -26 9 -42 -4 -29 -3 -29 58 -53 36 -14 75 -44 78 -59
2 -8 -70 -159 -158 -334 -89 -175 -168 -335 -176 -355 l-13 -38 804 0 805 0 0
728 c0 735 -1 760 -40 922 -35 146 -40 178 -41 280 l-2 101 42 35 41 36 0 138
0 139 -44 34 c-68 51 -156 134 -156 146 0 19 -30 100 -65 175 -19 40 -35 80
-35 88 0 8 -5 19 -11 25 -25 25 -68 187 -73 273 -10 149 -59 251 -160 332 -39
31 -60 58 -76 96 l-22 52 -303 0 c-250 0 -305 -2 -314 -14z m226 -928 c46 -93
105 -153 166 -169 27 -6 51 -17 53 -24 3 -6 -5 -58 -16 -114 -20 -94 -21 -134
-10 -256 2 -28 -20 -106 -43 -152 -31 -61 -63 -80 -160 -93 -85 -13 -123 3
-131 53 -3 17 -10 59 -16 91 -5 33 -10 125 -10 205 0 117 5 170 25 266 22 104
58 232 72 258 12 21 40 -4 70 -65z"/>
</g>
</svg>
