<?xml version="1.0" standalone="no"?>
<!DOCTYPE svg PUBLIC "-//W3C//DTD SVG 20010904//EN"
 "http://www.w3.org/TR/2001/REC-SVG-20010904/DTD/svg10.dtd">
<svg version="1.0" xmlns="http://www.w3.org/2000/svg"
 width="480.000000pt" height="360.000000pt" viewBox="0 0 480.000000 360.000000"
 preserveAspectRatio="xMidYMid meet">
<metadata>
Created by potrace 1.16, written by Peter Selinger 2001-2019
</metadata>
<rect width="1" height="360" fill="#000000"/>
<rect x="479" width="1" height="360" fill="#000000"/>
<rect width="480" height="1" fill="#000000"/>
<rect y="359" width="480" height="1" fill="#000000"/>
<g transform="translate(0.000000,360.000000) scale(0.100000,-0.100000)"
fill="#000000" stroke="none">
<path d="M0 1800 l0 -1800 2400 0 2400 0 0 1800 0 1800 -1035 0 c-569 0 -1035
-3 -1035 -6 0 -3 8 -31 17 -62 12 -42 17 -92 17 -187 -1 -113 -4 -139 -25
-195 -31 -82 -86 -161 -190 -275 -102 -111 -136 -165 -145 -223 l-7 -46 -22
49 c-24 53 -33 66 -164 226 -137 167 -189 245 -212 317 -27 89 -27 210 0 316
12 44 21 81 21 83 0 1 -454 3 -1010 3 l-1010 0 0 -1800z m2300 696 c0 -7 7
-19 15 -26 8 -7 15 -21 15 -31 0 -11 7 -19 15 -19 8 0 15 -2 15 -4 0 -2 3 -11
6 -20 4 -12 0 -16 -17 -17 -13 -1 5 -5 39 -10 79 -10 101 -24 158 -102 59 -82
68 -87 135 -87 140 0 221 -34 331 -139 l78 -74 0 -56 c0 -60 -14 -97 -42 -115
-17 -10 -24 -9 -90 19 -14 6 -22 -2 -37 -37 -26 -60 -63 -102 -113 -126 -46
-21 -84 -19 -196 12 l-52 14 -30 -30 c-36 -35 -40 -78 -10 -108 24 -24 29 -70
5 -50 -8 7 -15 9 -15 4 0 -26 30 -114 49 -146 14 -23 22 -50 20 -70 -4 -42 6
-58 36 -58 29 0 69 47 59 69 -11 29 -9 45 7 49 17 3 39 -36 39 -69 0 -35 -38
-78 -81 -90 -35 -11 -43 -10 -67 8 -15 11 -34 38 -42 59 -8 21 -19 44 -26 49
-6 6 -15 17 -18 25 -7 17 1 -137 10 -193 4 -22 12 -37 20 -37 17 0 18 -17 3
-58 -14 -40 1 -106 76 -341 30 -96 55 -180 55 -187 0 -7 -8 -14 -17 -16 -14
-3 -17 -12 -14 -47 2 -27 -1 -41 -7 -37 -6 3 -42 3 -81 0 l-71 -7 6 -32 c3
-20 1 -35 -6 -40 -16 -10 -3 -66 20 -85 10 -8 21 -25 24 -37 9 -29 -42 -58
-88 -49 -41 9 -53 9 -105 0 -54 -9 -62 2 -54 77 7 66 -17 125 -45 114 -50 -20
-77 -17 -116 14 -21 17 -54 33 -72 37 -24 4 -39 15 -49 34 -9 18 -25 30 -45
33 -29 6 -31 9 -28 47 1 22 -3 45 -9 51 -20 20 4 82 99 259 76 141 121 264
127 353 6 70 1 97 -12 65 -10 -24 -7 57 3 92 5 19 11 51 14 70 2 19 7 49 11
67 6 26 4 31 -11 30 -14 -2 -20 6 -22 26 -3 21 1 27 17 27 29 0 34 15 13 40
l-18 22 -31 -26 c-59 -49 -139 -70 -183 -46 -10 5 -30 30 -44 55 -30 50 -29
50 -56 33 -30 -19 -46 2 -31 43 6 17 11 54 11 81 0 27 5 59 12 71 38 73 151
172 268 234 l55 30 22 87 c24 99 48 132 120 167 47 23 55 30 23 22 -15 -4 -20
0 -20 14 0 11 3 23 8 27 7 8 8 13 11 74 1 30 21 48 21 18z m-203 -1298 c-3 -8
-6 -5 -6 6 -1 11 2 17 5 13 3 -3 4 -12 1 -19z"/>
<path d="M3000 1913 c-28 -18 -50 -43 -50 -55 0 -12 81 -50 95 -44 16 6 36 71
28 92 -3 8 -11 13 -18 10 -7 -2 -17 0 -22 5 -5 5 -19 2 -33 -8z"/>
<path d="M2775 1778 c-64 -12 -180 -67 -168 -79 5 -5 44 -17 86 -26 72 -15 78
-15 116 1 40 19 73 54 85 94 7 20 4 22 -31 21 -21 -1 -60 -6 -88 -11z"/>
<path d="M1797 1717 c-3 -23 -9 -51 -13 -62 -5 -12 -4 -16 3 -12 11 7 29 105
20 113 -2 2 -7 -15 -10 -39z"/>
<path d="M1861 1661 c-23 -6 -23 -7 18 -59 46 -57 71 -65 135 -38 49 20 54 36
21 62 -45 35 -119 51 -174 35z"/>
<path d="M2347 357 c-29 -22 -26 -91 4 -108 28 -15 42 5 33 46 -3 17 -6 38 -6
47 1 24 -12 30 -31 15z"/>
</g>
</svg>
