<?xml version="1.0" standalone="no"?>
<!DOCTYPE svg PUBLIC "-//W3C//DTD SVG 20010904//EN"
 "http://www.w3.org/TR/2001/REC-SVG-20010904/DTD/svg10.dtd">
<svg version="1.0" xmlns="http://www.w3.org/2000/svg"
 width="480.000000pt" height="360.000000pt" viewBox="0 0 480.000000 360.000000"
 preserveAspectRatio="xMidYMid meet">
<metadata>
Created by potrace 1.16, written by Peter Selinger 2001-2019
</metadata>
<rect width="1" height="360" fill="#000000"/>
<rect x="479" width="1" height="360" fill="#000000"/>
<rect width="480" height="1" fill="#000000"/>
<rect y="359" width="480" height="1" fill="#000000"/>
<g transform="translate(0.000000,360.000000) scale(0.100000,-0.100000)"
fill="#000000" stroke="none">
<path d="M0 1800 l0 -1800 2400 0 2400 0 0 1800 0 1800 -2400 0 -2400 0 0
-1800z m1550 -107 c3 -28 9 -55 14 -60 14 -14 258 -9 294 6 42 18 52 7 52 -59
0 -67 -8 -75 -66 -61 -59 13 -230 18 -261 7 -19 -6 -23 -15 -23 -50 0 -45 -13
-66 -42 -66 -23 0 -38 30 -38 74 0 30 -4 36 -22 37 -13 0 -189 4 -393 9 -368
8 -370 8 -448 35 -54 19 -75 31 -68 38 9 9 501 25 824 26 l107 1 0 44 c0 63 8
78 39 74 24 -3 26 -8 31 -55z"/>
</g>
</svg>
