<?xml version="1.0" standalone="no"?>
<!DOCTYPE svg PUBLIC "-//W3C//DTD SVG 20010904//EN"
 "http://www.w3.org/TR/2001/REC-SVG-20010904/DTD/svg10.dtd">
<svg version="1.0" xmlns="http://www.w3.org/2000/svg"
 width="480.000000pt" height="360.000000pt" viewBox="0 0 480.000000 360.000000"
 preserveAspectRatio="xMidYMid meet">
<metadata>
Created by potrace 1.16, written by Peter Selinger 2001-2019
</metadata>
<rect width="1" height="360" fill="#000000"/>
<rect x="479" width="1" height="360" fill="#000000"/>
<rect width="480" height="1" fill="#000000"/>
<rect y="359" width="480" height="1" fill="#000000"/>
<g transform="translate(0.000000,360.000000) scale(0.100000,-0.100000)"
fill="#000000" stroke="none">
<path d="M3114 3176 c-33 -24 -81 -65 -108 -91 -77 -72 -78 -72 -131 -21 -60
59 -135 94 -220 105 -84 10 -401 -12 -487 -34 -139 -35 -226 -137 -258 -303
-12 -60 -9 -186 5 -230 6 -19 -1 -31 -44 -73 -28 -27 -60 -49 -72 -49 -40 0
-61 -19 -54 -49 4 -19 1 -32 -10 -41 -26 -21 -18 -34 51 -80 116 -79 110 -77
132 -57 17 16 20 16 40 -3 12 -12 22 -30 22 -41 0 -11 5 -17 10 -14 32 20 -21
-104 -59 -139 -30 -27 -26 -36 14 -29 40 6 42 0 20 -62 -8 -21 -13 -41 -11
-42 2 -2 20 15 40 38 21 22 39 39 40 37 15 -21 55 -98 58 -113 4 -17 7 -15 18
13 6 17 14 32 17 32 10 0 32 -35 33 -50 0 -8 10 -21 21 -28 21 -13 21 -13 15
22 -4 20 -5 36 -3 36 2 0 17 -19 33 -42 l28 -43 11 50 11 49 32 -46 c18 -26
32 -52 32 -58 0 -16 -67 -43 -204 -83 -65 -19 -130 -44 -145 -54 -38 -28 -100
-124 -142 -222 -33 -77 -40 -86 -65 -89 -41 -5 -170 17 -230 39 -57 21 -158
93 -244 173 -76 71 -139 116 -245 173 l-90 48 -1 43 c-1 24 -4 46 -7 49 -9 9
-48 -26 -145 -133 -202 -221 -416 -383 -774 -588 -44 -25 -48 -30 -48 -65 l0
-38 88 13 c175 27 228 17 356 -64 76 -48 84 -45 156 58 61 88 120 150 141 150
26 0 52 -26 79 -81 31 -60 50 -69 50 -24 0 39 18 75 42 84 68 25 228 -97 228
-174 0 -20 16 -19 55 5 47 29 142 60 183 60 50 0 108 -31 176 -95 33 -30 64
-55 69 -55 5 0 39 22 76 49 111 81 147 102 165 95 10 -4 15 -13 11 -24 -4 -12
3 -25 20 -38 22 -17 25 -27 21 -54 -3 -18 -13 -95 -22 -171 -15 -127 -15 -139
0 -162 34 -51 137 -81 187 -55 10 6 28 27 39 48 l21 37 -5 -60 c-8 -95 -46
-201 -75 -210 -10 -3 -21 -26 -29 -57 -7 -29 -21 -65 -32 -80 -16 -22 -19 -36
-14 -68 4 -24 11 -39 18 -37 6 2 19 0 28 -4 16 -8 14 -15 -12 -75 -17 -36 -30
-70 -30 -75 0 -5 236 -9 570 -9 l570 0 -21 43 c-12 23 -41 74 -65 113 l-43 71
26 49 26 49 -27 39 c-14 21 -26 43 -26 47 0 5 -7 9 -15 9 -22 0 -36 45 -33 99
3 45 4 46 43 52 123 17 149 81 120 303 -21 160 -18 190 15 194 50 6 55 11 32
35 -17 18 -52 85 -52 101 0 2 17 11 39 19 21 9 48 27 59 41 l20 26 68 -21 c89
-28 207 -83 323 -153 52 -31 98 -56 102 -56 4 0 31 21 61 46 78 67 101 77 169
72 50 -4 69 -11 127 -51 38 -26 71 -47 75 -47 3 0 11 16 17 35 14 42 48 68
135 100 89 34 95 33 95 -12 0 -21 4 -45 9 -52 8 -12 13 -8 28 18 34 64 74 102
102 99 21 -2 32 -16 59 -73 62 -134 66 -140 91 -143 13 -2 44 2 67 8 l44 13 0
209 0 210 -59 71 c-59 73 -135 184 -184 269 -15 25 -39 60 -53 77 -31 37 -48
30 -59 -25 -7 -38 2 -33 -160 -100 -38 -15 -131 -69 -205 -118 -161 -107 -231
-141 -334 -163 -67 -15 -91 -15 -185 -5 -172 19 -179 18 -197 -24 l-15 -36
-62 6 c-100 11 -103 13 -122 64 -28 74 -81 175 -102 194 -35 32 -110 58 -214
73 -119 18 -189 40 -189 60 0 22 53 67 62 52 5 -8 9 -5 15 8 6 17 9 14 13 -15
l6 -35 23 38 c25 40 46 44 46 9 1 -40 12 -31 45 38 19 39 37 70 40 70 4 0 12
-11 18 -25 15 -33 25 -32 39 6 l12 31 34 -26 c19 -14 37 -26 41 -26 3 0 -5 23
-19 50 -14 28 -23 55 -20 60 4 6 22 10 41 10 40 0 44 11 10 33 -30 20 -86 104
-86 130 0 16 3 17 14 8 12 -10 16 -8 21 11 17 63 39 99 56 95 24 -6 49 23 56
65 5 32 1 38 -36 69 -44 35 -88 96 -77 106 3 4 22 -1 41 -10 20 -9 43 -17 53
-17 9 0 30 -7 46 -15 16 -9 43 -16 60 -18 l30 -2 4 78 c2 42 -1 91 -7 107 -5
16 -6 32 -2 34 4 3 38 10 76 16 70 11 125 33 125 50 0 6 -9 18 -21 28 -121
101 -199 234 -199 340 0 27 -4 32 -24 32 -13 0 -50 -20 -82 -44z m-457 -1268
c-3 -8 -6 -5 -6 6 -1 11 2 17 5 13 3 -3 4 -12 1 -19z"/>
</g>
</svg>
