<?xml version="1.0" standalone="no"?>
<!DOCTYPE svg PUBLIC "-//W3C//DTD SVG 20010904//EN"
 "http://www.w3.org/TR/2001/REC-SVG-20010904/DTD/svg10.dtd">
<svg version="1.0" xmlns="http://www.w3.org/2000/svg"
 width="480.000000pt" height="360.000000pt" viewBox="0 0 480.000000 360.000000"
 preserveAspectRatio="xMidYMid meet">
<metadata>
Created by potrace 1.16, written by Peter Selinger 2001-2019
</metadata>
<rect width="1" height="360" fill="#000000"/>
<rect x="479" width="1" height="360" fill="#000000"/>
<rect width="480" height="1" fill="#000000"/>
<rect y="359" width="480" height="1" fill="#000000"/>
<g transform="translate(0.000000,360.000000) scale(0.100000,-0.100000)"
fill="#000000" stroke="none">
<path d="M1409 2981 c-14 -5 -35 -13 -46 -19 -16 -9 -28 -8 -51 4 -26 12 -34
13 -52 2 -25 -16 -34 -42 -22 -64 6 -12 3 -34 -9 -70 -24 -68 -24 -78 5 -139
25 -56 56 -88 63 -67 7 19 23 14 23 -8 0 -10 -10 -24 -21 -31 l-21 -11 21 -22
c12 -11 38 -43 58 -69 21 -28 42 -46 50 -43 10 4 10 1 1 -14 -7 -10 -22 -21
-34 -24 -12 -3 -29 -17 -38 -32 -16 -23 -16 -27 -2 -49 9 -14 16 -26 16 -27 0
-2 -27 -32 -60 -66 -33 -35 -60 -69 -60 -75 0 -7 -13 -37 -30 -67 -16 -30 -29
-69 -30 -86 0 -36 29 -78 68 -96 26 -13 27 -16 26 -100 -1 -73 -5 -94 -28
-139 -16 -30 -34 -61 -42 -70 -10 -11 -11 -18 -2 -27 8 -8 4 -30 -16 -88 -16
-45 -25 -86 -22 -100 4 -13 -5 -62 -19 -109 -33 -115 -49 -205 -90 -510 -34
-258 -58 -480 -71 -668 l-6 -97 512 0 512 0 -6 28 c-17 87 -57 335 -71 442 -9
69 -23 179 -32 245 -21 163 -107 496 -168 648 -5 12 -2 17 9 17 22 0 20 9 -6
37 l-21 23 20 23 c11 12 27 50 36 84 9 34 33 96 52 137 19 41 35 82 35 90 0 8
-21 55 -46 103 -27 53 -46 103 -47 125 -1 25 -7 38 -18 41 -12 3 -19 21 -24
68 -3 35 -13 87 -20 114 -34 126 -36 138 -27 147 6 6 12 6 17 -1 4 -8 11 -6
21 4 18 17 34 20 34 5 0 -5 5 -10 10 -10 6 0 10 15 10 34 0 44 9 68 23 59 6
-4 8 2 5 15 -6 23 7 31 14 10 7 -21 27 2 38 43 8 30 15 39 27 35 22 -9 11 31
-32 120 -19 40 -35 84 -35 99 0 32 -127 170 -177 191 -35 15 -160 18 -204 5z"/>
<path d="M4488 541 c-50 -10 -76 -36 -84 -80 -3 -20 -17 -86 -30 -148 -30
-130 -20 -122 -184 -148 -58 -9 -109 -19 -114 -22 -16 -11 -38 -75 -28 -85 25
-25 259 -50 505 -55 l247 -5 0 259 0 259 -77 12 c-115 17 -193 21 -235 13z"/>
</g>
</svg>
