<?xml version="1.0" standalone="no"?>
<!DOCTYPE svg PUBLIC "-//W3C//DTD SVG 20010904//EN"
 "http://www.w3.org/TR/2001/REC-SVG-20010904/DTD/svg10.dtd">
<svg version="1.0" xmlns="http://www.w3.org/2000/svg"
 width="480.000000pt" height="360.000000pt" viewBox="0 0 480.000000 360.000000"
 preserveAspectRatio="xMidYMid meet">
<metadata>
Created by potrace 1.16, written by Peter Selinger 2001-2019
</metadata>
<rect width="1" height="360" fill="#000000"/>
<rect x="479" width="1" height="360" fill="#000000"/>
<rect width="480" height="1" fill="#000000"/>
<rect y="359" width="480" height="1" fill="#000000"/>
<g transform="translate(0.000000,360.000000) scale(0.100000,-0.100000)"
fill="#000000" stroke="none">
<path d="M0 2279 c0 -1253 1 -1320 18 -1315 9 2 37 8 62 11 25 4 63 17 85 28
30 15 78 23 199 33 88 8 163 17 167 21 14 15 -2 73 -20 73 -10 0 -26 6 -36 14
-18 13 -18 16 4 105 31 126 39 254 18 275 -12 13 -15 28 -10 64 4 34 1 58 -10
79 -16 30 -11 69 14 113 32 54 62 158 64 225 3 60 20 173 30 198 8 19 83 57
112 57 29 0 81 -41 92 -72 6 -17 18 -40 27 -49 14 -16 14 -19 -5 -38 -22 -22
-29 -100 -18 -223 5 -63 9 -72 57 -129 38 -46 50 -68 48 -88 -3 -23 -9 -27
-55 -36 -28 -5 -54 -13 -58 -17 -3 -3 -2 -23 4 -45 5 -21 22 -90 37 -153 15
-63 40 -146 56 -184 34 -84 27 -98 -33 -68 -49 24 -55 23 -64 -18 -5 -21 -1
-37 16 -59 13 -17 29 -31 36 -31 7 0 13 -4 13 -9 0 -11 -65 -26 -175 -42 -44
-6 -132 -21 -195 -34 -170 -35 -284 -47 -388 -43 l-92 3 0 -462 0 -463 928 0
927 0 52 49 c43 39 64 74 124 195 62 129 84 162 168 259 118 138 152 183 128
174 -10 -4 -77 -25 -150 -48 -72 -23 -137 -45 -143 -50 -7 -6 -9 -23 -4 -49 4
-22 4 -40 0 -40 -11 0 -20 27 -20 60 l0 27 -57 -13 c-41 -10 -67 -11 -88 -4
-29 10 -62 46 -51 57 3 3 49 19 103 35 113 33 126 42 95 64 -12 8 -22 23 -22
33 0 44 59 51 80 10 8 -15 6 -22 -9 -36 -54 -46 11 -29 293 78 76 29 92 40
113 72 38 60 38 64 -2 77 -32 10 -42 10 -71 -6 -32 -17 -35 -17 -51 -1 -9 9
-17 28 -18 43 0 23 -12 30 -140 83 -221 91 -215 88 -215 109 0 33 25 46 52 28
14 -9 91 -42 173 -75 l149 -59 23 25 c30 32 54 27 75 -17 13 -25 30 -39 64
-53 l47 -18 44 43 c24 24 54 63 66 86 21 43 21 44 3 58 -10 7 -23 15 -28 16
-5 2 2 26 16 53 17 34 29 77 35 135 5 47 14 99 21 116 12 28 11 32 -14 57 -33
33 -35 87 -5 137 l21 34 -23 19 c-13 11 -23 27 -22 36 5 27 -12 41 -50 43 -20
1 -37 5 -37 9 0 4 -14 16 -31 26 l-31 18 7 68 6 67 -63 0 c-300 -1 -1104 -59
-1241 -89 -22 -6 -45 -7 -50 -4 -11 7 21 41 55 59 44 23 185 53 303 64 306 30
582 48 747 51 46 0 137 5 203 9 119 9 120 9 147 41 15 18 30 30 34 27 3 -4 22
1 42 9 20 9 60 22 87 29 28 7 75 22 105 33 62 23 125 27 136 9 4 -7 7 -33 5
-59 -3 -63 34 -100 67 -67 8 8 22 7 54 -5 24 -9 71 -18 104 -20 55 -4 66 -8
98 -40 20 -20 36 -43 36 -50 0 -20 -36 -156 -50 -192 l-13 -30 -8 30 c-5 16
-11 70 -13 119 -3 49 -9 93 -14 98 -11 11 -82 0 -82 -13 0 -4 -14 -24 -31 -44
-31 -35 -31 -36 -13 -56 18 -20 36 -108 38 -184 0 -32 -7 -50 -37 -89 -21 -27
-54 -61 -74 -74 l-36 -25 7 -221 c4 -121 10 -224 14 -227 4 -4 86 29 182 73
96 44 190 86 208 93 l33 14 24 -52 c14 -28 21 -55 17 -58 -8 -8 -345 -155
-432 -189 -30 -12 -59 -25 -64 -30 -9 -9 20 -108 38 -127 15 -16 207 -71 569
-164 40 -11 48 -32 18 -49 -48 -25 -178 -6 -410 60 -74 22 -137 37 -139 35 -8
-7 62 -101 128 -170 36 -38 90 -99 120 -135 30 -35 72 -80 93 -98 20 -19 40
-44 43 -56 7 -27 -16 -81 -55 -130 -17 -21 -31 -42 -31 -45 0 -11 -59 -52 -81
-56 -39 -8 -59 -16 -59 -26 0 -5 295 -9 755 -9 l755 0 0 1800 0 1800 -725 0
c-575 0 -724 -3 -722 -12 1 -7 -5 -13 -13 -13 -8 0 -14 6 -13 13 2 9 -21 12
-93 12 l-95 0 22 -32 c13 -18 68 -94 124 -168 55 -74 108 -148 119 -164 10
-17 59 -71 110 -121 89 -88 96 -93 295 -193 225 -113 318 -173 410 -263 61
-59 75 -91 49 -117 -20 -20 -30 -15 -107 52 -95 82 -194 131 -401 196 -189 60
-294 111 -395 191 -125 99 -259 242 -345 369 -23 34 -48 64 -56 67 -8 3 -31
-10 -52 -29 -91 -83 -229 -117 -330 -84 -30 10 -72 36 -102 63 -58 52 -120
156 -120 201 l0 32 -1180 0 -1180 0 0 -1321z m4450 1227 c0 -17 -14 -29 -23
-20 -8 8 3 34 14 34 5 0 9 -6 9 -14z m245 -2006 c-3 -5 -11 -10 -16 -10 -6 0
-7 5 -4 10 3 6 11 10 16 10 6 0 7 -4 4 -10z"/>
<path d="M600 1127 c0 -3 7 -20 15 -40 10 -26 21 -36 42 -39 53 -7 64 0 61 40
l-3 37 -57 3 c-32 2 -58 1 -58 -1z"/>
<path d="M2097 74 c-32 -34 -57 -65 -57 -68 0 -3 99 -6 221 -6 219 0 221 0
198 19 -17 13 -28 16 -36 9 -16 -13 -66 -1 -97 23 -18 14 -33 18 -51 13 -21
-5 -27 -2 -32 14 -2 11 -16 23 -29 26 -13 4 -24 12 -24 19 0 30 -41 8 -93 -49z"/>
</g>
</svg>
