<?xml version="1.0" standalone="no"?>
<!DOCTYPE svg PUBLIC "-//W3C//DTD SVG 20010904//EN"
 "http://www.w3.org/TR/2001/REC-SVG-20010904/DTD/svg10.dtd">
<svg version="1.0" xmlns="http://www.w3.org/2000/svg"
 width="480.000000pt" height="360.000000pt" viewBox="0 0 480.000000 360.000000"
 preserveAspectRatio="xMidYMid meet">
<metadata>
Created by potrace 1.16, written by Peter Selinger 2001-2019
</metadata>
<rect width="1" height="360" fill="#000000"/>
<rect x="479" width="1" height="360" fill="#000000"/>
<rect width="480" height="1" fill="#000000"/>
<rect y="359" width="480" height="1" fill="#000000"/>
<g transform="translate(0.000000,360.000000) scale(0.100000,-0.100000)"
fill="#000000" stroke="none">
<path d="M0 1800 l0 -1800 2400 0 2400 0 0 780 c0 429 -2 780 -4 780 -2 0 -20
-7 -39 -15 -46 -19 -137 -19 -183 0 -20 8 -58 32 -84 53 l-49 39 -130 -25
c-72 -13 -137 -22 -145 -19 -9 4 -28 29 -43 56 -16 28 -33 51 -40 51 -6 0 -80
-20 -165 -44 -284 -82 -501 -126 -624 -126 -151 0 -240 44 -465 232 -177 148
-370 298 -383 298 -20 0 -84 -69 -140 -153 -68 -102 -114 -147 -152 -151 -21
-2 -29 -9 -29 -22 0 -17 8 -19 72 -19 39 0 74 -3 77 -6 4 -3 0 -35 -9 -70 -8
-35 -15 -82 -15 -104 0 -22 -8 -70 -17 -107 -21 -81 -11 -147 37 -244 16 -34
30 -64 30 -67 0 -2 -27 -15 -60 -27 -48 -18 -71 -21 -113 -16 -28 4 -75 8
-104 9 -75 3 -79 11 -42 93 28 61 31 76 26 131 -4 35 -11 72 -17 82 -5 11 -10
85 -10 170 l0 150 38 6 c20 4 43 7 51 8 26 4 23 27 -6 38 -15 5 -49 24 -75 40
-37 24 -49 38 -54 65 l-6 35 -25 -23 c-24 -22 -25 -27 -19 -106 5 -63 12 -94
31 -126 44 -75 28 -104 -33 -60 -63 45 -89 88 -98 157 -7 62 -7 62 -20 32 -7
-16 -13 -47 -14 -67 0 -76 -34 -114 -57 -65 -6 12 -23 48 -38 79 -56 116 -18
243 114 378 69 71 88 84 211 143 378 181 413 184 709 57 75 -32 190 -76 256
-99 168 -59 264 -103 351 -161 l74 -50 103 51 c124 63 206 97 357 151 132 47
143 54 116 73 -10 8 -16 20 -13 27 2 7 61 35 129 63 l124 49 11 60 c14 73 52
122 119 156 47 24 58 25 266 28 l218 3 0 305 0 304 -37 34 c-37 34 -39 34
-108 29 -38 -3 -84 -11 -102 -19 -17 -8 -49 -14 -70 -14 -32 0 -42 5 -51 24
-8 19 -16 23 -39 18 -15 -3 -31 -11 -36 -18 -4 -7 -37 -22 -75 -35 -76 -25
-223 -32 -230 -11 -5 16 -84 16 -100 0 -16 -16 -85 -11 -94 7 -5 7 -17 11 -28
8 -22 -6 -101 22 -112 40 -12 19 -9 72 5 86 10 11 6 12 -20 6 -25 -5 -36 -2
-52 14 -12 12 -21 29 -21 39 0 11 -16 23 -44 35 -33 14 -47 27 -61 57 l-18 40
-1754 0 -1753 0 0 -1800z"/>
<path d="M2074 2037 c-3 -9 -13 -47 -23 -86 l-17 -70 27 -20 c35 -26 38 -26
87 0 36 19 40 26 49 78 6 31 9 59 6 64 -5 8 -65 35 -100 43 -15 4 -25 1 -29
-9z"/>
</g>
</svg>
