<?xml version="1.0" standalone="no"?>
<!DOCTYPE svg PUBLIC "-//W3C//DTD SVG 20010904//EN"
 "http://www.w3.org/TR/2001/REC-SVG-20010904/DTD/svg10.dtd">
<svg version="1.0" xmlns="http://www.w3.org/2000/svg"
 width="480.000000pt" height="360.000000pt" viewBox="0 0 480.000000 360.000000"
 preserveAspectRatio="xMidYMid meet">
<metadata>
Created by potrace 1.16, written by Peter Selinger 2001-2019
</metadata>
<rect width="1" height="360" fill="#000000"/>
<rect x="479" width="1" height="360" fill="#000000"/>
<rect width="480" height="1" fill="#000000"/>
<rect y="359" width="480" height="1" fill="#000000"/>
<g transform="translate(0.000000,360.000000) scale(0.100000,-0.100000)"
fill="#000000" stroke="none">
<path d="M0 1800 l0 -1800 2400 0 2400 0 0 1800 0 1800 -2400 0 -2400 0 0
-1800z m1867 501 c78 -11 122 -29 168 -70 17 -15 52 -36 78 -45 60 -22 93 -55
106 -103 14 -50 15 -48 -14 -61 -13 -6 -66 -49 -118 -96 -64 -58 -99 -97 -112
-128 -10 -23 -28 -66 -41 -94 -18 -39 -25 -78 -30 -167 l-7 -116 -36 -4 c-20
-3 -66 -5 -103 -4 l-67 2 -6 -32 c-6 -35 -8 -36 -43 -27 -21 6 -23 11 -17 45
6 36 5 39 -27 52 -31 13 -98 78 -98 96 0 4 11 36 25 70 18 44 42 79 81 116 35
34 66 78 87 122 29 62 32 76 32 163 -1 82 -5 103 -29 157 -30 65 -29 85 5 122
17 18 29 22 58 17 20 -3 68 -10 108 -15z"/>
</g>
</svg>
