<?xml version="1.0" standalone="no"?>
<!DOCTYPE svg PUBLIC "-//W3C//DTD SVG 20010904//EN"
 "http://www.w3.org/TR/2001/REC-SVG-20010904/DTD/svg10.dtd">
<svg version="1.0" xmlns="http://www.w3.org/2000/svg"
 width="480.000000pt" height="360.000000pt" viewBox="0 0 480.000000 360.000000"
 preserveAspectRatio="xMidYMid meet">
<metadata>
Created by potrace 1.16, written by Peter Selinger 2001-2019
</metadata>
<rect width="1" height="360" fill="#000000"/>
<rect x="479" width="1" height="360" fill="#000000"/>
<rect width="480" height="1" fill="#000000"/>
<rect y="359" width="480" height="1" fill="#000000"/>
<g transform="translate(0.000000,360.000000) scale(0.100000,-0.100000)"
fill="#000000" stroke="none">
<path d="M3220 3571 c-172 -63 -277 -139 -343 -249 -40 -66 -83 -189 -93 -265
-11 -85 -18 -97 -58 -97 -73 0 -184 -61 -214 -116 -11 -21 -10 -31 8 -70 11
-26 20 -48 20 -49 0 -1 -20 -8 -45 -15 -40 -11 -50 -10 -94 9 -27 11 -60 21
-73 21 -52 0 -106 -88 -115 -189 -8 -84 15 -94 141 -65 l29 7 -7 -47 c-7 -42
-5 -46 13 -46 11 0 31 4 46 10 22 8 30 6 51 -15 14 -14 39 -55 55 -91 32 -71
48 -83 83 -64 43 22 58 10 78 -63 10 -38 25 -82 34 -98 22 -43 30 -453 15
-709 -13 -214 -35 -466 -52 -575 -8 -60 -15 -74 -42 -98 -23 -19 -38 -26 -52
-21 -11 4 -80 9 -152 11 l-133 5 -62 89 c-79 113 -138 195 -205 285 l-53 71
20 92 c20 89 20 98 5 204 -19 136 -31 182 -56 216 -22 30 -42 143 -63 357 -19
187 -20 190 -63 185 -6 -1 -14 3 -18 9 -3 5 -17 10 -30 10 -49 0 -59 -63 -40
-245 16 -151 20 -285 8 -285 -5 0 -30 11 -57 25 -27 14 -63 25 -80 25 -46 0
-92 -32 -99 -69 -5 -23 -15 -34 -44 -46 -51 -21 -71 -41 -79 -79 -3 -17 -14
-42 -24 -56 -9 -14 -23 -49 -31 -78 -18 -72 -2 -105 56 -112 35 -4 40 -9 47
-40 39 -155 138 -352 263 -519 59 -79 149 -208 201 -287 l95 -144 -46 -141
c-25 -78 -45 -145 -45 -150 0 -5 588 -9 1440 -9 l1440 0 0 25 c0 14 -14 83
-31 153 -31 127 -31 128 -24 322 3 107 16 332 27 500 12 188 22 461 25 710 4
387 3 413 -20 588 l-24 183 23 57 c22 54 24 70 24 267 l0 210 -45 94 c-25 51
-60 114 -77 140 -81 118 -217 231 -375 310 l-83 41 -462 -1 -463 0 -75 -28z
m-79 -2105 c31 -31 67 -57 84 -61 17 -4 35 -8 41 -10 13 -4 28 -114 18 -138
-3 -10 -11 -17 -16 -17 -5 0 -42 -16 -81 -35 -39 -19 -71 -34 -72 -32 -1 1 -7
56 -14 122 -6 66 -14 144 -17 173 -4 28 -4 52 -2 52 3 0 29 -24 59 -54z"/>
</g>
</svg>
