<?xml version="1.0" standalone="no"?>
<!DOCTYPE svg PUBLIC "-//W3C//DTD SVG 20010904//EN"
 "http://www.w3.org/TR/2001/REC-SVG-20010904/DTD/svg10.dtd">
<svg version="1.0" xmlns="http://www.w3.org/2000/svg"
 width="480.000000pt" height="360.000000pt" viewBox="0 0 480.000000 360.000000"
 preserveAspectRatio="xMidYMid meet">
<metadata>
Created by potrace 1.16, written by Peter Selinger 2001-2019
</metadata>
<rect width="1" height="360" fill="#000000"/>
<rect x="479" width="1" height="360" fill="#000000"/>
<rect width="480" height="1" fill="#000000"/>
<rect y="359" width="480" height="1" fill="#000000"/>
<g transform="translate(0.000000,360.000000) scale(0.100000,-0.100000)"
fill="#000000" stroke="none">
<path d="M0 1800 l0 -1800 2400 0 2400 0 0 1800 0 1800 -2400 0 -2400 0 0
-1800z m2633 406 c59 -39 117 -95 162 -156 33 -45 67 -154 63 -205 l-3 -40 65
-13 c36 -7 86 -19 113 -27 28 -8 47 -10 47 -4 0 6 9 5 22 -2 14 -7 50 -10 101
-6 72 5 77 4 57 -10 -29 -20 -12 -38 50 -53 54 -13 69 -35 20 -28 -39 6 -39
-5 1 -17 17 -6 29 -14 27 -20 -1 -5 -5 -9 -8 -9 -3 1 -16 5 -30 8 l-25 7 24
-21 c32 -28 21 -36 -21 -15 l-33 17 29 -31 c32 -33 21 -41 -20 -15 -39 26 -43
5 -4 -27 35 -29 32 -41 -4 -14 -11 8 -26 15 -34 15 -12 0 -12 -3 -1 -16 9 -11
-1 -9 -32 7 -24 13 -45 27 -47 31 -2 4 -12 8 -22 8 -9 0 -23 7 -31 16 -7 9
-22 14 -35 11 -13 -2 -25 1 -28 8 -2 7 -26 18 -53 24 -26 7 -75 22 -108 34
l-61 20 -48 -37 c-96 -73 -176 -96 -335 -96 -71 0 -87 -3 -114 -24 -18 -13
-56 -36 -86 -51 l-54 -27 -38 38 c-53 52 -51 69 11 91 28 10 49 20 48 23 -2 3
-33 33 -70 67 -72 67 -103 79 -185 70 -126 -15 -209 -30 -222 -42 -11 -11 -19
-11 -39 -2 -16 8 -27 8 -29 2 -8 -23 -25 -40 -29 -29 -6 14 -79 -20 -116 -54
-16 -14 -28 -21 -28 -15 0 6 7 16 15 23 28 24 15 29 -20 9 -42 -25 -47 -10 -7
21 25 20 25 21 5 16 -73 -19 -70 -19 -38 8 26 22 27 25 7 19 -38 -10 -24 16
18 33 41 16 45 24 31 58 -5 14 0 27 21 48 24 25 34 28 61 22 56 -12 421 6 437
22 2 3 3 32 2 64 -4 76 30 148 88 186 36 24 170 71 270 95 19 4 51 12 70 18
67 19 131 8 193 -33z m-1148 -446 c-3 -5 -14 -10 -23 -10 -15 0 -15 2 -2 10
20 13 33 13 25 0z"/>
<path d="M1650 1820 c0 -5 5 -10 10 -10 6 0 10 5 10 10 0 6 -4 10 -10 10 -5 0
-10 -4 -10 -10z"/>
</g>
</svg>
