<?xml version="1.0" standalone="no"?>
<!DOCTYPE svg PUBLIC "-//W3C//DTD SVG 20010904//EN"
 "http://www.w3.org/TR/2001/REC-SVG-20010904/DTD/svg10.dtd">
<svg version="1.0" xmlns="http://www.w3.org/2000/svg"
 width="480.000000pt" height="360.000000pt" viewBox="0 0 480.000000 360.000000"
 preserveAspectRatio="xMidYMid meet">
<metadata>
Created by potrace 1.16, written by Peter Selinger 2001-2019
</metadata>
<rect width="1" height="360" fill="#000000"/>
<rect x="479" width="1" height="360" fill="#000000"/>
<rect width="480" height="1" fill="#000000"/>
<rect y="359" width="480" height="1" fill="#000000"/>
<g transform="translate(0.000000,360.000000) scale(0.100000,-0.100000)"
fill="#000000" stroke="none">
<path d="M2446 1085 c-5 -15 -9 -15 -24 -4 -16 13 -16 12 -3 -4 13 -16 13 -20
0 -28 -12 -8 -11 -11 3 -19 15 -9 13 -16 -20 -62 -45 -63 -73 -93 -93 -100
-11 -4 -10 -10 8 -29 19 -22 21 -33 18 -122 -3 -83 -1 -104 16 -133 10 -19 19
-38 19 -43 0 -5 -20 -12 -45 -15 -41 -7 -45 -10 -45 -35 0 -48 66 -161 95
-161 22 0 39 -92 24 -134 -10 -29 -10 -38 2 -52 16 -19 13 -52 -6 -74 -8 -8
-18 -27 -24 -43 l-11 -27 175 0 c96 0 175 2 175 5 0 3 -10 25 -21 47 -19 38
-20 46 -8 78 7 19 14 77 16 129 3 127 13 132 124 65 65 -39 79 -41 102 -16 20
22 22 53 5 70 -9 9 -7 12 9 12 50 0 111 92 98 150 -8 36 -40 70 -66 70 -12 0
-34 -11 -51 -25 -16 -14 -35 -25 -43 -25 -19 0 -56 22 -89 53 -32 30 -67 35
-86 12 -7 -8 -21 -15 -31 -15 -10 0 -21 -5 -24 -10 -5 -8 -11 -7 -21 1 -16 13
-19 33 -4 24 9 -6 15 20 12 57 -1 9 5 22 13 28 18 15 20 92 3 119 -9 15 -7 26
10 55 19 31 19 38 7 42 -9 4 -24 4 -34 1 -11 -2 -29 5 -42 17 -13 12 -43 35
-67 53 -26 19 -39 34 -32 38 8 5 8 10 0 20 -7 8 -8 20 -4 26 5 8 3 9 -6 4 -7
-4 -15 -2 -20 5 -5 8 -9 7 -14 -5z m432 -616 c-3 -8 -7 -3 -11 10 -4 17 -3 21
5 13 5 -5 8 -16 6 -23z"/>
<path d="M3920 1077 c0 -2 7 -19 16 -37 16 -30 16 -33 0 -42 -9 -5 -14 -13
-11 -18 3 -5 -13 -44 -37 -87 -23 -43 -41 -84 -40 -90 4 -16 -10 -17 -25 -2
-8 8 -14 5 -23 -11 -11 -20 -8 -25 25 -52 21 -18 34 -36 31 -44 -16 -41 48
-234 77 -234 9 0 17 -4 17 -10 0 -15 -29 -12 -61 7 -47 28 -54 11 -42 -107 9
-89 14 -105 40 -138 18 -22 41 -38 56 -40 29 -4 48 -40 48 -93 0 -19 5 -44 11
-56 11 -22 15 -23 169 -23 l157 0 4 83 c2 47 -2 106 -10 140 -18 75 -3 113 54
134 44 16 255 37 357 36 l67 -1 0 79 0 78 -32 -5 c-18 -3 -46 -10 -62 -15 -34
-11 -336 -12 -352 -1 -7 5 21 91 87 267 54 143 99 266 99 273 1 44 -30 -16
-91 -178 -146 -388 -136 -367 -175 -375 -20 -3 -43 -9 -51 -12 -14 -5 -15 1
-9 48 4 29 12 59 18 66 22 27 18 87 -9 140 -24 49 -25 56 -13 93 12 36 12 43
-3 57 -13 13 -19 14 -29 5 -18 -18 -56 -15 -86 7 -15 10 -46 28 -69 39 -32 17
-43 29 -48 54 -9 41 -26 68 -42 68 -7 0 -13 -2 -13 -3z"/>
<path d="M954 951 c-25 -13 -30 -21 -23 -33 6 -11 5 -19 -1 -23 -5 -3 -10 -14
-10 -24 0 -11 -23 -33 -57 -56 -32 -21 -68 -46 -79 -57 -14 -13 -24 -16 -29
-9 -9 16 -41 13 -55 -4 -10 -13 -10 -19 4 -33 25 -28 30 -75 12 -110 -22 -43
-20 -59 13 -92 17 -18 31 -44 35 -69 7 -43 40 -91 63 -91 29 0 2 -18 -37 -24
-46 -7 -74 -29 -85 -66 -4 -14 -13 -32 -20 -40 -8 -8 -16 -26 -20 -40 -13 -50
-28 -60 -116 -71 -46 -6 -109 -20 -140 -30 -31 -11 -87 -23 -123 -28 -49 -5
-73 -14 -89 -30 l-22 -22 241 3 241 3 36 28 37 28 -6 -31 -6 -30 186 0 186 0
1 23 c0 12 4 60 8 106 8 78 7 86 -16 127 -14 24 -29 46 -34 49 -15 10 -10 26
8 23 11 -2 25 11 40 37 27 47 30 106 9 185 -14 54 -14 55 14 89 l27 35 -31 15
c-17 9 -43 35 -59 58 -22 34 -26 46 -17 62 16 31 12 48 -21 85 -22 25 -29 41
-24 56 8 24 0 24 -41 1z"/>
<path d="M0 15 c0 -11 12 -15 45 -15 45 0 60 12 29 24 -31 12 -74 7 -74 -9z"/>
</g>
</svg>
