<?xml version="1.0" standalone="no"?>
<!DOCTYPE svg PUBLIC "-//W3C//DTD SVG 20010904//EN"
 "http://www.w3.org/TR/2001/REC-SVG-20010904/DTD/svg10.dtd">
<svg version="1.0" xmlns="http://www.w3.org/2000/svg"
 width="480.000000pt" height="360.000000pt" viewBox="0 0 480.000000 360.000000"
 preserveAspectRatio="xMidYMid meet">
<metadata>
Created by potrace 1.16, written by Peter Selinger 2001-2019
</metadata>
<rect width="1" height="360" fill="#000000"/>
<rect x="479" width="1" height="360" fill="#000000"/>
<rect width="480" height="1" fill="#000000"/>
<rect y="359" width="480" height="1" fill="#000000"/>
<g transform="translate(0.000000,360.000000) scale(0.100000,-0.100000)"
fill="#000000" stroke="none">
<path d="M689 3483 c-64 -65 -140 -149 -171 -188 -249 -313 -427 -724 -493
-1135 -22 -138 -31 -476 -16 -612 18 -154 57 -336 103 -477 121 -375 304 -680
579 -966 l102 -105 373 0 c207 0 374 4 374 9 0 5 -11 28 -24 52 -40 72 -93
219 -113 309 -22 102 -24 370 -4 465 76 357 292 651 602 819 151 81 227 105
479 151 239 44 442 153 622 335 137 139 218 265 288 447 48 125 64 220 64 393
1 216 -33 365 -124 553 l-33 67 -1247 0 -1246 0 -115 -117z m1710 -293 c97
-62 132 -124 133 -240 1 -59 -4 -84 -21 -120 -52 -102 -125 -151 -239 -158
-118 -8 -208 41 -270 147 -24 40 -27 57 -27 131 0 68 5 93 22 125 28 53 100
119 144 133 62 19 73 21 141 18 55 -3 76 -9 117 -36z"/>
<path d="M4092 3518 c287 -277 527 -682 632 -1069 15 -53 37 -163 50 -245 l24
-149 1 773 1 772 -397 0 -397 0 86 -82z"/>
<path d="M4782 1405 c-30 -205 -117 -476 -220 -683 -125 -250 -236 -405 -436
-609 l-110 -113 392 0 392 0 0 745 c0 410 -1 745 -3 745 -2 0 -9 -38 -15 -85z"/>
<path d="M2452 945 c-71 -22 -145 -85 -178 -152 -24 -50 -28 -70 -29 -143 0
-51 6 -99 14 -120 23 -56 94 -133 152 -165 49 -27 62 -30 144 -29 148 2 238
56 296 178 50 105 39 208 -32 315 -35 53 -50 66 -113 96 -63 30 -83 35 -142
34 -38 0 -88 -6 -112 -14z"/>
</g>
</svg>
