<?xml version="1.0" standalone="no"?>
<!DOCTYPE svg PUBLIC "-//W3C//DTD SVG 20010904//EN"
 "http://www.w3.org/TR/2001/REC-SVG-20010904/DTD/svg10.dtd">
<svg version="1.0" xmlns="http://www.w3.org/2000/svg"
 width="480.000000pt" height="360.000000pt" viewBox="0 0 480.000000 360.000000"
 preserveAspectRatio="xMidYMid meet">
<metadata>
Created by potrace 1.16, written by Peter Selinger 2001-2019
</metadata>
<rect width="1" height="360" fill="#000000"/>
<rect x="479" width="1" height="360" fill="#000000"/>
<rect width="480" height="1" fill="#000000"/>
<rect y="359" width="480" height="1" fill="#000000"/>
<g transform="translate(0.000000,360.000000) scale(0.100000,-0.100000)"
fill="#000000" stroke="none">
<path d="M1007 3558 c8 -24 32 -66 53 -94 21 -28 43 -70 50 -92 12 -47 6 -65
-41 -120 -16 -18 -29 -40 -29 -49 0 -9 -7 -25 -17 -35 -21 -23 -13 -39 64
-128 30 -36 68 -92 84 -125 28 -60 28 -60 18 -170 -14 -145 3 -345 47 -562 7
-40 14 -114 14 -166 0 -79 3 -98 20 -120 11 -14 20 -29 20 -34 0 -5 13 -25 30
-45 26 -31 31 -48 40 -131 l11 -96 -41 -58 c-22 -32 -52 -74 -65 -93 -64 -91
-79 -166 -49 -245 9 -22 19 -56 24 -75 4 -19 13 -48 19 -65 59 -168 55 -137
41 -358 -7 -111 -16 -211 -20 -222 -15 -36 -81 -94 -138 -120 -57 -26 -132
-89 -132 -110 0 -6 13 -24 29 -39 28 -27 33 -28 87 -21 31 4 74 13 96 21 64
22 64 22 72 -66 3 -44 9 -93 12 -110 l7 -30 1065 0 1065 0 -7 31 c-3 17 -32
82 -63 143 -31 61 -66 128 -76 149 -11 21 -20 55 -21 75 l-1 37 190 6 c238 8
289 15 342 45 43 25 154 159 173 209 6 15 10 63 10 109 0 68 4 91 25 132 71
140 90 293 46 386 -32 70 -149 157 -311 233 l-85 40 -155 -3 c-85 -1 -172 -7
-194 -13 -49 -13 -127 -86 -158 -146 -13 -26 -27 -46 -33 -46 -5 0 -18 12 -30
27 -18 25 -20 45 -23 222 l-3 194 26 10 c20 8 25 15 20 28 -3 9 -13 67 -20
127 -8 61 -21 159 -29 219 -9 70 -11 118 -5 134 14 35 11 42 -13 39 -21 -2
-24 4 -32 64 -5 37 -6 78 -2 93 9 36 170 204 174 182 6 -31 22 -15 61 62 50
100 61 156 61 310 l0 127 33 50 c18 28 59 85 90 128 47 66 107 172 107 191 0
3 -573 6 -1274 6 l-1274 0 15 -42z"/>
</g>
</svg>
