<?xml version="1.0" standalone="no"?>
<!DOCTYPE svg PUBLIC "-//W3C//DTD SVG 20010904//EN"
 "http://www.w3.org/TR/2001/REC-SVG-20010904/DTD/svg10.dtd">
<svg version="1.0" xmlns="http://www.w3.org/2000/svg"
 width="480.000000pt" height="360.000000pt" viewBox="0 0 480.000000 360.000000"
 preserveAspectRatio="xMidYMid meet">
<metadata>
Created by potrace 1.16, written by Peter Selinger 2001-2019
</metadata>
<rect width="1" height="360" fill="#000000"/>
<rect x="479" width="1" height="360" fill="#000000"/>
<rect width="480" height="1" fill="#000000"/>
<rect y="359" width="480" height="1" fill="#000000"/>
<g transform="translate(0.000000,360.000000) scale(0.100000,-0.100000)"
fill="#000000" stroke="none">
<path d="M0 2609 c0 -789 3 -989 13 -983 120 70 267 185 404 316 57 54 110 98
118 98 9 0 38 -11 65 -25 27 -14 110 -49 184 -79 74 -30 169 -74 212 -97 298
-160 363 -173 602 -118 l90 20 67 -20 c104 -33 102 -34 170 81 69 117 106 148
231 192 94 34 116 51 108 80 -3 12 -6 29 -7 37 -3 18 -57 78 -58 64 -1 -6 -2
-19 -3 -30 -1 -11 -3 -41 -4 -67 -2 -46 -22 -70 -22 -27 0 11 -4 17 -10 14 -6
-4 -10 11 -11 37 -1 77 -15 89 -22 18 -9 -83 -22 -95 -30 -28 -4 29 -14 76
-23 103 -8 28 -18 57 -20 65 -4 12 -6 12 -14 1 -6 -11 -12 -6 -24 18 -19 36
-31 39 -39 11 -9 -35 -26 -22 -20 15 6 38 0 41 -37 20 -41 -24 -41 -18 2 51
46 74 43 97 -12 74 -25 -10 -36 -10 -58 0 -15 7 -35 12 -45 11 -20 -3 -57 25
-57 43 0 6 20 24 45 39 26 17 61 53 86 90 39 58 40 65 33 107 -17 87 -9 220
16 284 57 149 211 228 395 203 38 -5 94 -3 154 5 173 22 309 -25 385 -135 20
-29 36 -57 36 -62 0 -6 4 -16 9 -24 7 -11 13 -9 30 8 31 31 62 26 133 -22 85
-59 174 -182 189 -264 13 -67 6 -161 -15 -201 -14 -27 -12 -36 30 -143 24 -63
48 -121 52 -129 5 -8 10 -77 11 -153 2 -135 2 -139 -19 -144 -18 -5 -21 -11
-16 -35 3 -18 2 -27 -4 -23 -6 3 -10 -1 -10 -10 0 -15 -1 -15 -16 0 -9 9 -23
14 -30 11 -8 -3 -21 6 -30 19 -13 19 -20 23 -30 14 -10 -8 -21 4 -49 58 -19
37 -51 93 -70 123 -46 71 -52 97 -70 280 -15 144 -25 190 -44 190 -4 0 -20
-27 -35 -59 -36 -75 -31 -122 14 -141 33 -14 32 -31 -1 -23 -19 5 -21 3 -17
-25 3 -22 0 -32 -9 -32 -7 0 -13 -7 -13 -15 0 -23 -18 -18 -36 11 l-17 25 -26
-27 c-22 -24 -27 -40 -32 -114 -4 -63 -8 -79 -14 -61 -8 23 -9 24 -16 5 -4
-10 -8 -38 -8 -61 -1 -59 -21 -54 -23 5 -1 46 -1 46 -7 -13 l-6 -60 -12 55
c-6 30 -15 82 -19 115 -5 51 -8 57 -18 40 -6 -11 -30 -39 -54 -63 -79 -79 -75
-113 16 -147 82 -31 161 -74 201 -111 39 -34 95 -119 120 -181 15 -37 25 -39
98 -22 42 10 61 8 138 -11 114 -29 221 -31 295 -6 30 10 116 53 190 96 74 42
193 103 263 135 70 32 130 62 133 67 3 4 16 8 29 8 17 0 46 -27 110 -100 95
-109 201 -202 310 -272 73 -47 267 -148 285 -148 7 0 10 351 10 1070 l0 1070
-2400 0 -2400 0 0 -991z"/>
<path d="M486 1864 c-45 -51 -47 -56 -32 -73 9 -10 16 -23 16 -29 0 -7 4 -12
9 -12 5 0 18 -26 29 -58 25 -74 22 -79 -111 -230 -81 -92 -104 -112 -121 -108
-12 3 -24 6 -29 6 -4 0 -4 59 -1 132 l6 132 -28 -19 c-16 -10 -50 -32 -76 -48
-27 -17 -48 -33 -48 -36 0 -3 9 -30 20 -59 31 -80 27 -103 -29 -169 -26 -32
-58 -67 -70 -77 l-21 -19 0 -599 0 -598 778 0 779 0 17 87 c46 239 151 690
183 783 33 99 79 328 68 339 -3 2 -20 -12 -39 -32 -39 -42 -56 -47 -56 -14 0
54 64 343 81 366 12 15 16 29 10 40 -5 9 -6 21 -4 28 3 7 -27 13 -93 18 -94 7
-97 7 -115 -16 -10 -13 -19 -34 -19 -47 0 -39 -73 -136 -117 -155 -21 -9 -105
-43 -188 -77 -82 -34 -164 -68 -182 -76 -40 -18 -63 -18 -63 1 0 23 -11 19
-64 -25 -38 -32 -52 -38 -62 -29 -23 19 -16 57 36 209 70 201 68 196 127 228
29 15 53 30 53 34 0 18 -245 146 -257 134 -3 -3 0 -19 6 -37 25 -73 16 -103
-56 -187 -94 -108 -164 -182 -174 -182 -3 0 -14 9 -23 19 -19 21 -20 9 10 290
6 55 28 88 79 117 11 7 18 13 15 16 -10 8 -181 88 -188 88 -4 0 -29 -25 -56
-56z"/>
<path d="M3995 1829 c-38 -21 -74 -40 -80 -43 -5 -3 2 -15 16 -28 56 -50 53
-114 -7 -169 -39 -35 -106 -79 -121 -79 -17 0 -66 156 -59 191 3 16 2 29 -3
29 -14 0 -151 -93 -151 -102 0 -4 6 -8 14 -8 8 0 28 -12 45 -26 31 -25 31 -27
31 -120 l0 -95 -30 -17 c-30 -17 -39 -32 -20 -32 15 0 12 -27 -3 -33 -7 -3
-96 16 -197 42 l-184 46 -43 53 c-34 42 -43 61 -43 92 0 21 -6 42 -12 47 -22
14 -148 6 -166 -10 -10 -8 -28 -18 -41 -22 l-23 -7 31 -32 c33 -34 35 -39 81
-295 43 -233 40 -252 -26 -161 -20 28 -38 50 -41 50 -9 0 10 -146 24 -185 39
-111 90 -327 174 -747 l33 -168 803 0 803 0 0 591 0 590 -65 30 c-35 16 -80
29 -98 29 -38 0 -190 53 -194 67 -2 6 30 39 71 74 41 35 75 67 75 70 1 6 -53
35 -103 58 -5 2 -6 -7 -3 -21 4 -13 2 -41 -4 -62 -16 -57 -54 -71 -165 -60
-87 9 -89 10 -86 34 4 43 54 132 84 149 15 9 28 19 28 24 0 8 -77 80 -91 85
-5 2 -9 -8 -9 -22 0 -42 -47 -82 -124 -105 -37 -12 -79 -21 -93 -21 l-25 0 7
83 c10 111 40 157 105 157 24 0 50 10 50 20 0 15 -71 100 -83 99 -7 -1 -43
-19 -82 -40z"/>
<path d="M1267 1613 c-24 -4 -28 -8 -23 -26 3 -12 6 -38 6 -57 l0 -34 55 54
c30 30 55 58 55 63 0 7 -43 7 -93 0z"/>
<path d="M3380 1584 c0 -10 51 -64 61 -64 4 0 12 14 18 30 9 27 8 30 -12 30
-12 0 -32 3 -44 6 -13 4 -23 3 -23 -2z"/>
<path d="M4740 1347 c0 -32 8 -38 36 -25 27 13 31 33 8 42 -30 12 -44 6 -44
-17z"/>
<path d="M2007 990 c-4 -8 -18 -64 -32 -125 -14 -60 -32 -128 -40 -150 -8 -22
-51 -140 -95 -261 -80 -219 -81 -223 -78 -305 3 -79 4 -82 16 -54 8 17 25 70
38 120 50 181 98 322 141 410 32 65 43 98 40 120 -2 17 2 73 10 125 14 94 14
152 0 120z"/>
<path d="M2780 742 c0 -24 104 -256 108 -243 2 5 -9 40 -24 78 -15 37 -35 93
-45 123 -17 55 -39 79 -39 42z"/>
<path d="M2890 477 c0 -1 11 -36 24 -77 13 -41 29 -100 36 -130 17 -75 29 -95
30 -50 0 38 -70 259 -82 260 -5 0 -8 -1 -8 -3z"/>
</g>
</svg>
