<?xml version="1.0" standalone="no"?>
<!DOCTYPE svg PUBLIC "-//W3C//DTD SVG 20010904//EN"
 "http://www.w3.org/TR/2001/REC-SVG-20010904/DTD/svg10.dtd">
<svg version="1.0" xmlns="http://www.w3.org/2000/svg"
 width="480.000000pt" height="360.000000pt" viewBox="0 0 480.000000 360.000000"
 preserveAspectRatio="xMidYMid meet">
<metadata>
Created by potrace 1.16, written by Peter Selinger 2001-2019
</metadata>
<rect width="1" height="360" fill="#000000"/>
<rect x="479" width="1" height="360" fill="#000000"/>
<rect width="480" height="1" fill="#000000"/>
<rect y="359" width="480" height="1" fill="#000000"/>
<g transform="translate(0.000000,360.000000) scale(0.100000,-0.100000)"
fill="#000000" stroke="none">
<path d="M1107 3588 c6 -7 20 -105 32 -218 15 -137 28 -218 41 -245 10 -22 36
-95 59 -162 44 -133 81 -213 146 -313 63 -99 88 -141 84 -144 -2 -1 -29 -14
-60 -29 -30 -15 -74 -44 -96 -64 -36 -33 -46 -38 -82 -35 -51 4 -125 -23 -144
-52 -8 -11 -17 -33 -21 -48 -5 -24 -27 -38 -160 -102 -161 -79 -154 -73 -280
-225 -98 -117 -206 -278 -258 -383 -77 -153 -150 -423 -177 -654 -30 -252 0
-641 67 -861 l16 -53 485 0 c461 1 485 2 465 18 -11 9 -66 52 -122 96 -200
156 -282 333 -319 690 -15 151 -16 201 -5 504 11 291 23 441 48 554 6 30 73
135 119 186 86 97 388 281 570 347 48 17 76 35 103 65 l37 42 110 2 c108 1
112 0 188 -36 262 -125 474 -404 496 -653 10 -110 7 -154 -17 -207 -19 -45
-19 -48 -3 -130 19 -94 52 -156 154 -293 162 -218 387 -354 638 -386 71 -9 98
-8 165 5 l79 17 35 -39 c54 -60 143 -196 201 -307 56 -107 122 -212 148 -233
9 -7 38 -24 64 -36 26 -13 86 -59 133 -102 l85 -79 97 -8 c53 -4 204 -10 335
-13 l237 -5 0 1800 0 1801 -136 0 c-124 0 -135 -1 -130 -17 13 -40 48 -225 60
-318 47 -334 18 -764 -70 -1055 -70 -232 -135 -376 -232 -514 -32 -44 -65 -93
-74 -107 -69 -108 -317 -304 -522 -413 -58 -31 -126 -48 -126 -31 0 23 51 93
120 165 44 47 97 112 117 145 20 33 42 67 50 76 77 91 144 552 129 890 -17
373 -124 583 -434 852 -113 98 -261 207 -377 277 l-83 50 -997 0 c-797 0 -995
-3 -988 -12z m1916 -1350 c64 -15 91 -27 99 -42 29 -54 -36 -466 -72 -458
-153 36 -172 46 -272 150 -62 65 -95 109 -123 165 -35 70 -37 80 -25 102 20
38 115 86 185 95 98 12 115 11 208 -12z"/>
<path d="M1520 1611 c-21 -6 -26 -15 -31 -56 -9 -67 6 -258 25 -321 9 -28 26
-66 39 -85 23 -33 25 -34 90 -32 49 2 94 13 179 44 124 47 163 70 184 112 21
40 10 67 -27 67 -35 0 -161 100 -252 200 -46 51 -64 64 -99 71 -50 10 -74 10
-108 0z"/>
</g>
</svg>
