<?xml version="1.0" standalone="no"?>
<!DOCTYPE svg PUBLIC "-//W3C//DTD SVG 20010904//EN"
 "http://www.w3.org/TR/2001/REC-SVG-20010904/DTD/svg10.dtd">
<svg version="1.0" xmlns="http://www.w3.org/2000/svg"
 width="480.000000pt" height="360.000000pt" viewBox="0 0 480.000000 360.000000"
 preserveAspectRatio="xMidYMid meet">
<metadata>
Created by potrace 1.16, written by Peter Selinger 2001-2019
</metadata>
<rect width="1" height="360" fill="#000000"/>
<rect x="479" width="1" height="360" fill="#000000"/>
<rect width="480" height="1" fill="#000000"/>
<rect y="359" width="480" height="1" fill="#000000"/>
<g transform="translate(0.000000,360.000000) scale(0.100000,-0.100000)"
fill="#000000" stroke="none">
<path d="M0 1800 l0 -1800 313 0 312 0 84 102 c75 90 85 106 89 149 4 45 3 49
-16 49 -40 0 -61 83 -38 148 17 47 13 120 -9 184 -19 55 -19 55 5 61 16 4 20
14 22 49 0 23 2 48 3 53 2 6 3 19 4 30 1 11 15 28 31 37 20 12 30 25 30 41 0
14 7 44 15 67 9 26 15 79 15 137 l0 95 62 64 c53 56 66 64 97 64 20 0 69 9
109 20 39 11 78 20 86 20 32 0 66 19 60 35 -8 19 -26 19 -72 -1 -20 -10 -62
-19 -92 -21 -30 -3 -76 -16 -103 -29 -57 -29 -87 -27 -154 11 -107 61 -100 60
-139 30 -19 -15 -53 -45 -74 -68 -22 -22 -42 -38 -45 -35 -3 3 11 36 31 74 55
105 110 296 150 528 27 154 29 196 13 196 -6 0 -69 23 -140 51 -71 28 -133 47
-139 44 -20 -13 -41 16 -34 47 4 22 -2 44 -26 89 -40 76 -31 94 44 86 43 -4
55 -1 89 24 22 16 47 29 56 29 9 0 38 10 65 23 l49 23 2 144 c1 135 4 151 34
240 40 117 69 169 139 242 80 84 190 129 354 146 l73 7 35 49 c19 28 57 73 83
100 l48 51 41 -45 c22 -25 56 -68 75 -96 l34 -52 80 -12 c158 -23 279 -81 385
-185 114 -112 169 -213 201 -364 17 -82 12 -151 -15 -207 -15 -33 -15 -38 2
-87 10 -29 36 -80 57 -114 21 -34 39 -67 39 -73 0 -6 -20 -25 -45 -42 -38 -27
-45 -36 -40 -58 3 -14 9 -68 15 -121 12 -119 16 -129 80 -213 55 -71 60 -90
17 -55 -36 27 -34 15 8 -51 18 -30 32 -56 30 -58 -2 -3 -20 6 -40 18 -20 12
-38 21 -39 19 -4 -4 5 -74 25 -202 8 -52 18 -77 40 -102 22 -25 29 -43 29 -75
0 -37 -2 -41 -15 -30 -8 7 -15 16 -15 21 0 14 -61 99 -71 99 -15 0 -159 -63
-159 -70 0 -3 42 -27 93 -55 88 -48 92 -52 99 -90 4 -25 2 -50 -7 -67 -11 -24
-9 -33 22 -94 19 -38 35 -69 37 -71 1 -1 17 1 34 6 56 17 257 22 369 11 315
-32 582 -148 858 -371 86 -70 161 -148 246 -259 69 -89 186 -279 195 -318 l6
-22 304 0 304 0 0 1800 0 1800 -2400 0 -2400 0 0 -1800z m4030 1045 c14 -16
10 -18 -14 -9 -9 3 -16 10 -16 15 0 14 16 11 30 -6z m-695 -685 c29 47 80
-117 61 -194 -9 -35 -20 -33 -34 7 -7 18 -30 57 -52 87 -53 71 -55 119 -4 100
14 -6 26 -6 29 0z m858 -1394 c3 -8 3 -17 0 -20 -7 -7 -33 13 -33 25 0 15 27
10 33 -5z"/>
<path d="M1295 1409 c-10 -15 -2 -19 24 -12 17 4 19 8 9 14 -18 12 -26 11 -33
-2z"/>
</g>
</svg>
