<?xml version="1.0" standalone="no"?>
<!DOCTYPE svg PUBLIC "-//W3C//DTD SVG 20010904//EN"
 "http://www.w3.org/TR/2001/REC-SVG-20010904/DTD/svg10.dtd">
<svg version="1.0" xmlns="http://www.w3.org/2000/svg"
 width="480.000000pt" height="360.000000pt" viewBox="0 0 480.000000 360.000000"
 preserveAspectRatio="xMidYMid meet">
<metadata>
Created by potrace 1.16, written by Peter Selinger 2001-2019
</metadata>
<rect width="1" height="360" fill="#000000"/>
<rect x="479" width="1" height="360" fill="#000000"/>
<rect width="480" height="1" fill="#000000"/>
<rect y="359" width="480" height="1" fill="#000000"/>
<g transform="translate(0.000000,360.000000) scale(0.100000,-0.100000)"
fill="#000000" stroke="none">
<path d="M2044 3583 c37 -128 73 -336 81 -468 7 -140 21 -239 47 -340 11 -44
17 -92 14 -107 -16 -78 -71 -152 -181 -242 -43 -36 -109 -126 -145 -201 -8
-16 -66 -106 -128 -198 -61 -92 -119 -181 -127 -197 -8 -16 -27 -97 -40 -180
-44 -263 -58 -320 -110 -435 -18 -41 -25 -70 -21 -93 4 -25 -3 -46 -31 -93
-42 -70 -93 -109 -177 -132 -33 -9 -64 -21 -69 -26 -18 -18 4 -31 51 -31 l47
-1 -60 -32 c-71 -38 -79 -62 -20 -61 22 0 54 4 70 8 l30 8 -30 -26 c-16 -14
-42 -30 -57 -37 -17 -7 -28 -19 -28 -32 0 -33 74 -18 146 29 32 21 65 43 72
47 7 5 -10 -23 -38 -62 -55 -75 -61 -106 -20 -106 24 0 84 69 168 193 19 29
42 52 52 52 23 0 36 16 50 65 6 22 24 60 39 85 25 42 31 45 80 52 78 9 89 25
101 141 12 116 34 220 89 421 40 146 42 151 99 215 160 184 193 231 261 372
27 57 58 114 68 125 23 28 100 66 187 93 82 25 76 25 76 4 0 -9 14 -28 30 -42
28 -23 31 -33 33 -86 l2 -59 -48 -27 c-80 -43 -81 -45 -67 -135 7 -44 16 -84
22 -91 6 -8 6 -19 -1 -32 -20 -36 -13 -48 29 -55 39 -6 51 -18 30 -31 -5 -3
-10 -19 -10 -35 0 -16 -4 -31 -10 -35 -5 -3 -7 -12 -4 -19 3 -7 -15 -45 -40
-83 -25 -38 -52 -88 -62 -111 -9 -23 -20 -42 -24 -42 -14 0 -51 -72 -46 -87 7
-17 -16 -64 -39 -83 -23 -19 -55 -85 -55 -113 0 -12 5 -28 11 -34 8 -8 5 -14
-10 -22 -24 -13 -28 -41 -6 -41 23 0 38 -36 24 -61 -10 -20 -9 -21 20 -17 28
4 31 2 31 -24 0 -15 2 -28 5 -28 6 0 191 149 270 217 46 40 53 43 90 37 54 -8
179 33 245 80 l50 36 58 -24 c153 -64 220 -79 357 -80 118 -1 138 2 215 28
115 39 230 107 278 164 67 81 70 112 43 427 -11 133 20 267 86 374 19 29 32
55 29 58 -9 9 -99 -51 -158 -105 -32 -30 -86 -93 -120 -140 -59 -81 -130 -142
-168 -142 -15 0 -224 201 -241 233 -7 11 4 44 32 109 80 181 189 527 189 601
0 18 -4 17 -29 -13 l-28 -34 -7 47 c-8 55 -19 65 -40 35 l-15 -21 -10 26 c-6
15 -13 27 -17 27 -10 0 -54 -50 -54 -61 0 -5 -6 -9 -14 -9 -20 0 -86 -93 -86
-121 0 -36 -41 -91 -65 -85 -10 3 -27 -1 -36 -10 -15 -13 -18 -8 -38 70 -11
47 -21 94 -21 104 0 23 70 188 105 248 73 124 184 365 199 431 9 40 16 77 16
82 0 8 -229 11 -741 11 -700 0 -740 -1 -735 -17z"/>
</g>
</svg>
