<?xml version="1.0" standalone="no"?>
<!DOCTYPE svg PUBLIC "-//W3C//DTD SVG 20010904//EN"
 "http://www.w3.org/TR/2001/REC-SVG-20010904/DTD/svg10.dtd">
<svg version="1.0" xmlns="http://www.w3.org/2000/svg"
 width="480.000000pt" height="360.000000pt" viewBox="0 0 480.000000 360.000000"
 preserveAspectRatio="xMidYMid meet">
<metadata>
Created by potrace 1.16, written by Peter Selinger 2001-2019
</metadata>
<rect width="1" height="360" fill="#000000"/>
<rect x="479" width="1" height="360" fill="#000000"/>
<rect width="480" height="1" fill="#000000"/>
<rect y="359" width="480" height="1" fill="#000000"/>
<g transform="translate(0.000000,360.000000) scale(0.100000,-0.100000)"
fill="#000000" stroke="none">
<path d="M0 1800 l0 -1800 156 0 156 0 -6 33 c-18 95 -23 181 -15 253 23 205
22 254 -4 339 -14 44 -54 152 -90 240 -77 187 -110 295 -140 460 -19 105 -22
156 -22 420 0 238 4 325 18 420 36 245 83 422 174 668 l55 148 -31 33 c-38 39
-40 70 -6 92 39 25 101 13 255 -49 192 -77 344 -153 380 -189 32 -31 262 -124
725 -293 330 -119 334 -120 353 -100 10 10 11 15 4 11 -19 -11 -43 12 -33 32
41 83 59 132 51 137 -6 3 -14 3 -20 0 -5 -3 -26 -3 -46 1 -23 4 -31 9 -23 14
7 5 -7 11 -37 15 -27 4 -53 7 -57 9 -5 1 3 13 18 28 17 18 22 27 13 30 -7 3 7
17 32 33 25 15 108 92 185 170 121 123 153 149 235 195 115 64 158 72 232 40
29 -12 59 -27 67 -34 8 -6 39 -16 70 -22 110 -23 210 -83 256 -153 15 -21 37
-70 49 -107 27 -82 52 -221 41 -232 -4 -4 -10 -1 -12 6 -7 20 -20 14 -27 -13
-7 -28 -76 -107 -76 -87 0 10 -9 8 -31 -5 -30 -17 -31 -17 -45 1 -13 19 -14
19 -14 -7 0 -14 6 -38 12 -53 10 -22 10 -28 -1 -32 -14 -5 -77 -59 -122 -104
-15 -16 -36 -28 -48 -28 -50 0 -8 -36 74 -64 28 -9 70 -32 94 -51 24 -19 62
-40 85 -46 23 -6 111 -30 196 -54 388 -108 460 -126 496 -119 26 5 40 2 54
-11 17 -16 19 -16 30 4 15 29 58 28 69 -1 5 -14 10 -17 15 -10 10 16 43 15 53
0 4 -7 14 -13 22 -13 8 0 19 -9 25 -20 6 -11 12 -22 14 -25 2 -3 9 3 17 13 16
22 43 12 51 -19 3 -13 7 -24 9 -24 2 0 99 -22 216 -49 254 -59 602 -131 629
-131 20 0 20 13 20 950 l0 950 -2400 0 -2400 0 0 -1800z"/>
<path d="M739 2693 c-52 -114 -157 -379 -178 -451 -72 -246 -120 -726 -92
-920 17 -114 61 -292 132 -527 70 -233 71 -214 -15 -410 -62 -139 -76 -196
-76 -305 l0 -80 348 0 348 0 39 52 c22 28 74 79 116 112 97 77 530 439 629
525 100 88 152 145 251 276 79 105 83 112 84 163 l0 53 -117 94 c-142 115
-169 149 -176 214 -5 58 22 124 98 241 43 66 49 80 44 112 -8 47 0 77 28 114
20 25 23 40 23 114 0 66 5 94 21 127 17 35 19 43 7 48 -25 9 -30 6 -58 -35
-34 -49 -48 -51 -39 -5 7 37 -5 46 -26 20 -9 -11 -17 -12 -32 -4 -16 9 -25 6
-44 -12 -14 -13 -24 -17 -24 -10 0 8 -6 11 -15 7 -18 -6 -19 -2 -4 26 10 18 9
20 -5 15 -9 -4 -16 -2 -16 4 0 6 -7 8 -16 5 -12 -5 -14 -1 -8 16 6 21 5 22
-11 8 -17 -14 -17 -14 -2 17 25 47 20 52 -13 13 -30 -35 -39 -35 -20 1 7 12 7
19 1 19 -6 0 -8 6 -5 14 7 17 -26 29 -51 20 -12 -5 -16 -4 -12 3 4 7 -10 18
-35 27 -24 9 -110 40 -193 70 -82 30 -280 105 -440 167 -184 72 -305 114 -330
114 -22 1 -50 5 -62 9 -20 6 -26 0 -54 -61z"/>
<path d="M2346 2363 c-6 -14 -5 -15 5 -6 7 7 10 15 7 18 -3 3 -9 -2 -12 -12z"/>
<path d="M2868 2020 c-3 -20 4 -41 24 -71 15 -23 28 -49 28 -59 0 -9 12 -32
26 -51 39 -52 56 -98 58 -159 3 -66 20 -104 44 -95 9 4 123 34 252 67 129 33
241 66 249 74 18 16 16 113 -2 130 -7 6 -50 21 -97 34 -47 12 -194 53 -327 91
-133 38 -244 69 -246 69 -3 0 -7 -13 -9 -30z"/>
<path d="M3874 1722 c-86 -137 -173 -186 -589 -328 -194 -66 -258 -73 -332
-37 l-41 20 -6 -36 c-4 -20 -8 -70 -9 -111 l-3 -75 43 -49 c44 -49 51 -73 32
-104 -16 -26 42 -137 122 -233 63 -75 150 -212 164 -256 6 -21 3 -23 -34 -23
-22 0 -52 5 -67 10 -25 10 -26 9 -20 -12 23 -79 59 -259 74 -362 l17 -121 788
-3 787 -2 0 749 0 749 -77 26 c-159 51 -473 146 -633 191 -91 25 -170 47 -176
49 -5 2 -23 -17 -40 -42z"/>
<path d="M2262 1555 l-34 -37 33 -34 c18 -19 37 -34 41 -34 9 0 9 84 -1 119
-6 24 -7 24 -39 -14z"/>
</g>
</svg>
