<?xml version="1.0" standalone="no"?>
<!DOCTYPE svg PUBLIC "-//W3C//DTD SVG 20010904//EN"
 "http://www.w3.org/TR/2001/REC-SVG-20010904/DTD/svg10.dtd">
<svg version="1.0" xmlns="http://www.w3.org/2000/svg"
 width="480.000000pt" height="360.000000pt" viewBox="0 0 480.000000 360.000000"
 preserveAspectRatio="xMidYMid meet">
<metadata>
Created by potrace 1.16, written by Peter Selinger 2001-2019
</metadata>
<rect width="1" height="360" fill="#000000"/>
<rect x="479" width="1" height="360" fill="#000000"/>
<rect width="480" height="1" fill="#000000"/>
<rect y="359" width="480" height="1" fill="#000000"/>
<g transform="translate(0.000000,360.000000) scale(0.100000,-0.100000)"
fill="#000000" stroke="none">
<path d="M2700 3355 c0 -8 17 -23 38 -34 46 -23 79 -58 66 -70 -5 -5 -43 -18
-84 -31 -187 -55 -254 -126 -272 -284 -5 -47 -19 -102 -32 -131 -13 -27 -26
-58 -29 -67 -11 -31 -87 -78 -127 -78 -42 0 -50 -11 -50 -65 0 -46 20 -60 59
-41 39 21 37 21 49 -13 9 -24 14 -28 37 -24 22 5 34 -3 69 -41 24 -25 48 -46
54 -46 38 0 72 -170 72 -361 l0 -121 -59 -58 c-33 -32 -76 -84 -98 -116 -21
-32 -49 -64 -63 -71 -35 -18 -129 -59 -230 -100 -143 -59 -167 -83 -185 -191
-5 -33 -13 -45 -31 -52 -32 -12 -31 -22 1 -14 37 9 32 -19 -5 -33 -32 -12 -40
-40 -15 -49 9 -4 33 -2 55 4 22 5 40 6 40 2 0 -16 85 -102 124 -125 23 -13 66
-27 96 -30 71 -8 114 14 156 77 l30 47 22 -42 c12 -23 29 -54 38 -68 20 -31
15 -61 -18 -107 -13 -18 -56 -80 -95 -139 -40 -60 -88 -129 -108 -155 l-35
-48 30 -15 c16 -8 31 -15 32 -15 2 1 10 -2 20 -5 40 -16 72 -1 98 45 21 37 25
41 28 24 5 -34 -37 -594 -48 -639 -20 -83 -71 -75 491 -75 l502 0 -7 137 c-3
76 -9 167 -11 203 l-5 65 23 -65 c35 -98 85 -209 101 -225 12 -13 15 -12 20 1
3 9 6 27 6 40 0 14 4 22 10 19 6 -4 10 9 10 32 0 32 5 23 34 -61 36 -105 56
-138 56 -96 1 23 2 23 11 6 8 -13 13 -15 19 -7 4 8 12 1 20 -18 7 -17 19 -31
26 -31 18 0 18 38 -2 190 -8 67 -14 124 -11 126 6 6 57 -177 57 -205 0 -12 7
-29 15 -37 8 -9 15 -11 15 -5 0 6 7 8 15 5 13 -5 15 7 14 82 -1 49 3 100 8
114 9 20 12 11 22 -60 20 -143 24 -155 32 -80 4 36 7 103 8 149 0 46 3 82 5
80 2 -2 10 -73 17 -158 15 -175 20 -172 45 29 20 164 12 320 -27 500 -16 74
-29 146 -29 160 1 24 1 24 15 6 14 -19 15 -18 15 15 0 19 -9 66 -20 104 -11
39 -37 133 -59 210 -21 77 -60 198 -86 269 -26 71 -53 160 -60 199 -13 68 -13
70 16 131 16 33 29 66 29 71 0 6 -20 23 -45 38 -25 16 -45 30 -45 32 0 2 -12
106 -26 232 -14 125 -28 244 -30 263 -5 49 -29 153 -53 230 -11 36 -24 108
-30 162 -13 127 -41 187 -126 266 -75 71 -178 116 -306 135 -74 10 -81 13 -99
44 -26 45 -86 73 -155 73 -42 0 -55 -4 -55 -15z m92 -1216 c38 13 48 7 48 -28
0 -23 -6 -30 -37 -40 -21 -7 -43 -15 -50 -17 -12 -5 -16 6 -28 64 -7 32 -6 33
15 22 15 -8 30 -9 52 -1z m-476 -1366 c-10 -10 -19 5 -10 18 6 11 8 11 12 0 2
-7 1 -15 -2 -18z m1089 -535 c23 -110 17 -105 -16 12 -16 58 -28 110 -28 115
2 22 29 -58 44 -127z"/>
</g>
</svg>
