<?xml version="1.0" standalone="no"?>
<!DOCTYPE svg PUBLIC "-//W3C//DTD SVG 20010904//EN"
 "http://www.w3.org/TR/2001/REC-SVG-20010904/DTD/svg10.dtd">
<svg version="1.0" xmlns="http://www.w3.org/2000/svg"
 width="480.000000pt" height="360.000000pt" viewBox="0 0 480.000000 360.000000"
 preserveAspectRatio="xMidYMid meet">
<metadata>
Created by potrace 1.16, written by Peter Selinger 2001-2019
</metadata>
<rect width="1" height="360" fill="#000000"/>
<rect x="479" width="1" height="360" fill="#000000"/>
<rect width="480" height="1" fill="#000000"/>
<rect y="359" width="480" height="1" fill="#000000"/>
<g transform="translate(0.000000,360.000000) scale(0.100000,-0.100000)"
fill="#000000" stroke="none">
<path d="M0 1800 l0 -1800 154 0 154 0 20 48 c11 26 36 92 55 147 l34 100 -23
35 c-26 40 -29 61 -12 78 10 10 10 17 -1 34 -12 20 -12 23 4 33 45 26 77 62
85 100 12 50 13 118 2 131 -5 5 -6 35 -4 66 l4 57 36 3 36 3 27 87 c14 48 42
115 61 150 32 58 34 67 28 118 -4 30 -6 58 -4 61 2 4 35 26 74 49 38 23 70 47
70 52 0 17 -19 46 -35 52 -22 8 -92 -31 -98 -55 -3 -12 -10 -18 -15 -15 -5 3
-15 0 -21 -8 -7 -8 -22 -17 -34 -20 -14 -3 -31 -22 -45 -51 -20 -42 -24 -45
-59 -45 -21 1 -56 7 -78 15 -22 8 -41 15 -41 15 -1 0 -13 -38 -28 -84 -20 -63
-31 -86 -47 -91 -30 -10 -48 21 -49 80 0 63 19 91 70 105 22 6 44 18 49 28 5
9 21 87 35 172 25 145 91 486 102 521 3 11 -6 19 -33 27 -47 14 -165 83 -170
99 -3 7 20 28 50 48 40 26 56 44 61 65 5 28 47 60 79 60 7 0 24 11 36 24 l22
24 -30 47 c-38 60 -51 122 -51 243 0 209 74 363 231 483 148 112 244 144 484
160 236 16 222 11 274 104 55 100 110 177 124 172 18 -6 82 -106 132 -207 41
-82 59 -106 131 -173 127 -119 195 -251 214 -415 5 -50 13 -98 16 -107 10 -26
62 -47 107 -43 l42 3 5 -69 c3 -42 10 -71 17 -73 10 -4 9 -11 -2 -33 -8 -16
-15 -50 -15 -75 0 -26 -5 -55 -10 -66 -13 -23 -38 -25 -46 -4 -14 37 -23 9
-20 -63 2 -54 10 -90 25 -119 11 -23 17 -44 12 -48 -9 -5 -45 34 -54 58 -2 7
-6 10 -8 7 -2 -3 -19 -25 -38 -48 l-33 -44 39 -41 c21 -23 48 -53 58 -66 20
-24 20 -24 0 -19 -11 3 -27 9 -36 12 -14 6 -14 -1 -2 -76 7 -46 11 -92 8 -104
-2 -11 11 -62 30 -113 19 -52 35 -95 35 -98 0 -2 -29 15 -64 37 -35 22 -70 40
-78 40 -8 0 -19 5 -25 11 -9 9 -24 3 -60 -25 -26 -20 -70 -47 -98 -60 -45 -22
-55 -24 -103 -14 -48 10 -55 9 -75 -10 -12 -11 -38 -24 -57 -29 -34 -9 -33
-10 70 -46 108 -37 275 -89 345 -107 25 -6 62 -29 95 -58 l54 -49 2 -89 c1
-63 8 -102 21 -134 11 -25 26 -70 32 -100 22 -96 18 -91 62 -84 51 8 60 -12
31 -71 -11 -24 -26 -70 -33 -103 -12 -59 -12 -61 14 -95 15 -20 46 -46 69 -59
36 -20 43 -28 40 -50 -2 -26 0 -27 65 -33 38 -3 80 -8 94 -11 21 -4 28 0 32
15 4 18 13 21 54 21 26 0 83 -7 126 -15 43 -8 80 -15 82 -15 1 0 5 9 8 20 7
26 20 25 146 -5 104 -25 104 -25 123 -6 14 15 24 18 41 12 92 -35 201 -63 205
-53 5 16 61 15 92 -1 73 -38 142 -59 153 -48 18 18 34 14 115 -33 57 -33 85
-43 107 -40 24 4 42 -5 90 -41 33 -25 71 -45 84 -45 15 0 43 -18 77 -50 29
-27 59 -50 67 -50 8 0 20 -7 27 -15 11 -13 56 -15 296 -15 l284 0 0 1800 0
1800 -2400 0 -2400 0 0 -1800z m3368 1593 c-4 -22 -38 -30 -38 -10 0 14 13 24
33 26 5 1 7 -7 5 -16z m402 -873 c0 -5 -4 -10 -9 -10 -6 0 -13 5 -16 10 -3 6
1 10 9 10 9 0 16 -4 16 -10z m950 -33 c0 -28 -17 -47 -36 -40 -19 7 -18 22 3
45 22 24 33 23 33 -5z m-1370 -282 c0 -16 -27 -32 -37 -21 -7 7 16 36 28 36 5
0 9 -7 9 -15z m-16 -163 c7 -11 -28 -86 -59 -126 -26 -34 -98 -72 -116 -61
-15 10 -10 36 16 81 14 24 25 47 25 51 -1 5 7 10 17 12 9 2 33 14 53 27 36 25
55 30 64 16z m574 -923 c-2 -6 -8 -10 -13 -10 -5 0 -11 4 -13 10 -2 6 4 11 13
11 9 0 15 -5 13 -11z m-28 -635 c0 -16 -16 -19 -25 -4 -8 13 4 32 16 25 5 -4
9 -13 9 -21z"/>
<path d="M2097 1765 c8 -25 17 -44 20 -41 7 6 -16 74 -27 81 -5 3 -2 -15 7
-40z"/>
<path d="M821 1373 c-13 -28 -10 -28 29 -4 l31 18 -25 5 c-18 4 -27 -1 -35
-19z"/>
<path d="M1880 389 c0 -55 3 -78 11 -73 6 3 9 18 6 32 -3 14 0 36 5 48 12 25
3 74 -12 74 -6 0 -10 -35 -10 -81z"/>
<path d="M1880 81 c0 -8 41 -23 47 -17 2 1 -8 8 -22 14 -14 6 -25 8 -25 3z"/>
</g>
</svg>
