<?xml version="1.0" standalone="no"?>
<!DOCTYPE svg PUBLIC "-//W3C//DTD SVG 20010904//EN"
 "http://www.w3.org/TR/2001/REC-SVG-20010904/DTD/svg10.dtd">
<svg version="1.0" xmlns="http://www.w3.org/2000/svg"
 width="480.000000pt" height="360.000000pt" viewBox="0 0 480.000000 360.000000"
 preserveAspectRatio="xMidYMid meet">
<metadata>
Created by potrace 1.16, written by Peter Selinger 2001-2019
</metadata>
<rect width="1" height="360" fill="#000000"/>
<rect x="479" width="1" height="360" fill="#000000"/>
<rect width="480" height="1" fill="#000000"/>
<rect y="359" width="480" height="1" fill="#000000"/>
<g transform="translate(0.000000,360.000000) scale(0.100000,-0.100000)"
fill="#000000" stroke="none">
<path d="M1598 3568 c11 -56 7 -319 -7 -398 -25 -150 -130 -411 -199 -499 -15
-18 -31 -41 -37 -50 -38 -64 -272 -291 -301 -291 -6 0 -19 -9 -29 -20 -52 -58
-303 -161 -475 -195 -113 -22 -265 -27 -390 -11 -63 8 -125 18 -138 22 l-22 6
0 -1066 0 -1066 1320 0 1320 0 0 24 c0 76 57 319 116 495 76 230 94 299 129
491 14 80 37 203 51 273 20 99 23 135 15 160 -5 18 -12 57 -16 87 -11 101 -13
105 -55 124 -83 36 -102 109 -55 202 14 27 25 50 25 51 0 3 -59 -20 -158 -62
-34 -14 -67 -23 -73 -19 -6 3 -17 22 -25 41 l-15 34 -27 -20 -27 -19 -10 26
c-11 26 -12 26 -106 23 -92 -2 -342 35 -408 61 -14 6 -51 10 -82 9 -31 -1 -69
3 -84 9 -38 15 -58 -3 -49 -44 l6 -31 -26 24 c-26 24 -26 24 -26 3 0 -12 -3
-22 -8 -22 -16 0 -52 32 -52 46 0 8 -4 14 -10 14 -20 0 -9 47 18 72 48 47 123
60 217 38 22 -5 114 -14 205 -20 91 -6 190 -15 221 -20 39 -7 72 -7 107 0 45
10 51 15 57 41 5 21 10 27 18 21 7 -5 22 -12 33 -16 18 -5 22 -2 27 23 8 38
30 44 97 26 63 -17 173 -20 216 -5 16 5 49 14 72 20 42 11 43 12 27 30 -18 20
-13 40 11 40 8 0 14 5 14 10 0 7 -13 9 -33 5 -30 -6 -35 -3 -83 57 l-51 64 19
24 19 24 -28 11 c-15 7 -33 10 -39 8 -15 -6 -54 44 -54 69 0 11 -4 16 -10 13
-19 -12 -10 60 15 113 l25 53 -41 67 c-48 81 -51 125 -7 130 33 4 219 -32 303
-58 33 -10 81 -22 106 -25 35 -4 61 -17 105 -53 72 -57 108 -126 133 -251 11
-53 32 -113 55 -156 45 -86 58 -160 50 -285 l-7 -95 37 -48 c37 -48 46 -93 24
-115 -8 -8 -8 -15 0 -25 6 -7 9 -33 6 -60 -3 -35 2 -62 22 -109 23 -57 27 -82
35 -253 4 -104 13 -225 20 -268 6 -43 9 -109 5 -146 -4 -50 -2 -72 9 -88 8
-11 11 -23 8 -27 -13 -13 -30 -5 -43 19 -48 89 4 -112 64 -247 30 -68 75 -168
101 -223 26 -55 67 -158 91 -230 l43 -130 446 -3 445 -2 0 1800 0 1800 -1604
0 -1604 0 6 -32z"/>
</g>
</svg>
