<?xml version="1.0" standalone="no"?>
<!DOCTYPE svg PUBLIC "-//W3C//DTD SVG 20010904//EN"
 "http://www.w3.org/TR/2001/REC-SVG-20010904/DTD/svg10.dtd">
<svg version="1.0" xmlns="http://www.w3.org/2000/svg"
 width="480.000000pt" height="360.000000pt" viewBox="0 0 480.000000 360.000000"
 preserveAspectRatio="xMidYMid meet">
<metadata>
Created by potrace 1.16, written by Peter Selinger 2001-2019
</metadata>
<rect width="1" height="360" fill="#000000"/>
<rect x="479" width="1" height="360" fill="#000000"/>
<rect width="480" height="1" fill="#000000"/>
<rect y="359" width="480" height="1" fill="#000000"/>
<g transform="translate(0.000000,360.000000) scale(0.100000,-0.100000)"
fill="#000000" stroke="none">
<path d="M0 1800 l0 -1800 313 2 c171 0 296 3 277 5 -19 2 -59 8 -88 14 -58
12 -66 22 -92 118 -14 53 -53 92 -129 130 -49 24 -56 32 -66 68 -5 23 -20 52
-32 65 -13 14 -23 28 -23 34 0 7 51 46 78 59 1 1 -3 16 -9 34 -9 24 -8 35 2
48 8 9 73 44 144 78 222 106 368 231 537 457 l69 93 -6 85 c-3 47 -6 120 -6
162 -1 44 -7 82 -13 87 -29 22 -86 32 -118 21 -28 -10 -41 -9 -86 9 -78 31
-193 113 -244 173 -98 117 -106 133 -124 258 -15 97 -15 128 -5 200 51 363
279 675 602 823 180 82 264 100 459 101 167 1 219 -7 367 -55 71 -23 117 -47
205 -108 l113 -78 47 -94 c52 -106 70 -183 69 -303 -1 -69 -4 -85 -26 -117
-15 -20 -35 -74 -46 -122 -25 -106 -56 -154 -128 -199 -48 -30 -62 -46 -89
-101 -44 -89 -120 -154 -199 -172 -18 -3 -33 -9 -33 -12 0 -3 13 -21 30 -40
30 -33 40 -86 24 -127 -10 -27 -161 -136 -188 -136 -14 0 -33 10 -44 25 -23
29 -42 32 -42 7 0 -10 -5 -23 -11 -29 -9 -9 -6 -18 9 -38 12 -14 19 -32 16
-39 -2 -6 7 -39 22 -72 37 -83 61 -207 74 -369 26 -346 52 -578 71 -642 29
-98 33 -122 21 -146 -6 -12 -12 -33 -14 -47 -2 -14 -9 -26 -15 -26 -7 -1 -23
-2 -36 -3 -32 -1 -55 -21 -63 -53 -5 -24 -3 -28 15 -28 12 0 21 6 21 15 0 19
29 19 36 0 5 -13 190 -15 1580 -15 l1574 0 0 1800 0 1800 -577 0 c-503 0 -574
-2 -557 -14 23 -18 15 -27 -44 -49 -42 -17 -162 -24 -162 -9 1 17 18 32 60 51
l45 20 -739 0 c-622 1 -741 -1 -750 -13 -6 -8 -21 -17 -34 -21 -19 -5 -25 -2
-29 14 l-5 21 -1004 0 -1004 0 0 -1800z m2739 1564 c-15 -18 -121 -75 -127
-69 -9 9 40 54 81 74 43 21 66 19 46 -5z m-520 -336 c15 -40 -27 -67 -47 -31
-7 11 -6 23 1 35 16 25 36 23 46 -4z m1331 -267 c0 -8 -52 -31 -71 -31 -17 0
-9 17 14 28 28 13 57 15 57 3z m-1025 -761 c8 -13 -34 -22 -76 -18 -34 4 -34
4 -9 15 31 15 77 16 85 3z m1504 -369 c12 -8 10 -17 -13 -51 -15 -23 -42 -48
-59 -56 -18 -8 -40 -20 -49 -26 -27 -19 -40 1 -28 43 12 43 36 66 87 85 46 16
45 16 62 5z m-1190 -64 c6 -8 8 -16 5 -20 -10 -9 -34 4 -34 19 0 18 14 18 29
1z m399 -84 c-10 -2 -28 -2 -40 0 -13 2 -5 4 17 4 22 1 32 -1 23 -4z m-68
-102 c0 -25 3 -28 26 -23 19 3 25 1 20 -7 -4 -6 -20 -11 -36 -11 -15 0 -30 -5
-32 -12 -3 -7 -12 -9 -22 -5 -14 6 -17 13 -11 35 14 56 55 74 55 23z m820
-110 c0 -19 -75 -111 -91 -111 -11 0 -12 50 0 69 6 10 69 53 89 60 1 1 2 -7 2
-18z m-610 -179 c0 -10 -5 -10 -20 -2 -27 15 -53 56 -44 71 8 13 63 -46 64
-69z m-2586 59 c3 -4 -3 -16 -13 -25 -21 -19 -35 -8 -25 18 7 17 29 22 38 7z
m-346 -141 c7 0 10 -4 7 -10 -9 -14 -28 -12 -51 6 -18 15 -18 15 6 10 14 -3
31 -6 38 -6z m4290 -122 c3 -14 -4 -18 -32 -18 -36 0 -52 12 -41 31 11 17 69
6 73 -13z m-1481 -182 c30 -26 80 -106 65 -106 -12 0 -86 71 -107 103 -15 23
-15 27 -2 27 9 0 28 -11 44 -24z m-3065 -25 c-2 -34 -68 -124 -84 -115 -4 3
-8 23 -8 44 0 30 8 48 31 75 39 44 65 43 61 -4z m2675 -88 c5 -14 -52 -37 -73
-29 -24 9 -11 30 22 37 35 8 47 6 51 -8z m340 -419 c2 -6 -7 -26 -20 -45 -19
-28 -30 -35 -65 -37 -46 -3 -64 16 -45 47 23 38 120 65 130 35z m-1328 -110
c-19 -19 -99 -32 -99 -16 0 13 46 30 85 31 27 1 28 0 14 -15z"/>
<path d="M1033 3 c9 -2 25 -2 35 0 9 3 1 5 -18 5 -19 0 -27 -2 -17 -5z"/>
</g>
</svg>
