<?xml version="1.0" standalone="no"?>
<!DOCTYPE svg PUBLIC "-//W3C//DTD SVG 20010904//EN"
 "http://www.w3.org/TR/2001/REC-SVG-20010904/DTD/svg10.dtd">
<svg version="1.0" xmlns="http://www.w3.org/2000/svg"
 width="480.000000pt" height="360.000000pt" viewBox="0 0 480.000000 360.000000"
 preserveAspectRatio="xMidYMid meet">
<metadata>
Created by potrace 1.16, written by Peter Selinger 2001-2019
</metadata>
<rect width="1" height="360" fill="#000000"/>
<rect x="479" width="1" height="360" fill="#000000"/>
<rect width="480" height="1" fill="#000000"/>
<rect y="359" width="480" height="1" fill="#000000"/>
<g transform="translate(0.000000,360.000000) scale(0.100000,-0.100000)"
fill="#000000" stroke="none">
<path d="M0 1800 l0 -1800 1394 0 1395 0 17 76 c12 58 14 81 5 100 -6 13 -14
24 -18 24 -25 -1 -36 -22 -38 -73 -3 -61 -9 -77 -31 -77 -20 0 -41 53 -49 127
-4 33 -11 66 -15 73 -15 24 -39 1 -54 -51 -17 -57 -32 -79 -52 -79 -11 0 -14
19 -14 79 0 74 -10 106 -25 81 -7 -12 -42 -13 -49 -2 -2 4 0 104 5 221 l10
212 -35 44 c-41 49 -51 71 -60 137 -9 60 -41 151 -55 156 -13 4 -65 -105 -86
-179 -11 -44 -25 -65 -59 -97 l-45 -41 6 -222 c7 -244 10 -229 -49 -204 -15 6
-17 -2 -20 -71 -2 -64 -6 -79 -20 -82 -12 -2 -21 13 -38 62 -23 70 -46 99 -59
77 -5 -7 -11 -39 -14 -71 -7 -66 -34 -130 -54 -130 -7 0 -16 -14 -20 -30 -3
-17 -9 -33 -14 -35 -8 -6 -723 20 -867 31 -57 4 -89 11 -104 24 l-23 18 24 44
c32 57 107 161 202 281 83 103 119 165 119 206 0 13 5 39 12 57 9 25 9 39 0
56 -31 61 -43 275 -23 425 5 43 5 117 0 190 -16 192 7 1006 32 1163 8 51 22
84 66 155 31 50 71 109 89 133 35 46 35 47 2 135 -13 34 -54 57 -102 57 -19 0
-47 4 -61 10 -23 9 -26 15 -23 47 4 45 35 66 136 93 67 17 162 66 169 87 2 6
-26 18 -69 28 -175 43 -338 136 -338 193 0 30 30 35 98 17 33 -8 72 -15 86
-15 29 0 45 25 30 45 -5 6 -22 30 -39 53 l-30 41 -622 1 -623 0 0 -1800z"/>
<path d="M1436 3578 c68 -78 91 -106 106 -126 27 -39 54 -22 62 40 4 28 10 64
13 79 l6 29 -103 0 -103 0 19 -22z"/>
<path d="M1767 3593 c-3 -5 -8 -38 -12 -75 -5 -50 -3 -68 5 -68 7 0 57 28 113
61 107 66 165 81 159 44 -5 -31 -41 -97 -70 -129 -36 -38 -136 -109 -195 -137
-26 -13 -46 -27 -44 -32 6 -18 142 -46 227 -46 100 -1 130 -15 130 -62 0 -26
-7 -33 -65 -61 -72 -34 -78 -44 -73 -124 3 -47 5 -50 48 -71 25 -12 88 -63
140 -115 85 -83 98 -100 119 -160 41 -119 39 -256 -6 -418 -11 -41 -15 -114
-17 -283 0 -125 0 -227 2 -227 1 0 20 12 42 26 35 23 46 26 91 20 77 -10 131
-32 152 -61 10 -14 22 -25 26 -25 4 0 13 30 20 68 20 103 61 274 72 302 6 13
10 82 10 152 -1 109 3 148 29 258 33 143 51 186 103 245 l35 39 -18 52 c-47
135 -50 316 -10 476 27 105 65 178 92 178 11 0 10 -66 -3 -131 -16 -86 -13
-315 7 -392 9 -37 22 -74 29 -83 12 -17 15 -17 56 -2 209 78 457 19 566 -134
19 -26 38 -48 43 -48 18 0 119 122 154 184 39 73 39 81 -9 126 -33 31 -99 146
-91 159 14 22 100 40 146 31 25 -5 50 -9 56 -10 16 0 31 42 44 128 8 47 16 72
23 69 19 -6 37 -49 37 -87 0 -53 21 -76 76 -83 52 -5 89 -29 122 -77 l22 -33
-37 -31 c-21 -17 -48 -43 -62 -58 -13 -16 -30 -28 -37 -28 -7 0 -27 20 -44 45
-17 25 -35 45 -40 45 -5 0 -14 -19 -20 -42 -47 -182 -118 -311 -232 -420 l-50
-48 17 -67 c15 -59 16 -86 6 -242 -7 -97 -16 -205 -21 -241 -5 -36 -14 -110
-20 -165 -26 -232 -53 -428 -76 -555 -18 -96 -27 -179 -29 -285 -3 -149 -22
-257 -59 -346 -8 -20 -11 -41 -6 -53 4 -12 15 -47 25 -79 15 -53 69 -140 99
-160 6 -4 39 -16 73 -27 34 -10 84 -28 110 -38 26 -11 92 -34 145 -51 106 -33
214 -96 265 -154 l32 -37 306 0 305 0 0 1800 0 1800 -1514 0 c-833 0 -1517 -3
-1519 -7z"/>
<path d="M2667 2207 c-11 -29 -9 -53 4 -40 6 6 9 21 7 34 -3 21 -4 22 -11 6z"/>
<path d="M2215 1552 c-8 -52 0 -66 15 -26 7 18 8 36 2 49 -8 17 -10 14 -17
-23z"/>
<path d="M2507 1527 c-3 -8 -1 -20 4 -28 5 -9 9 -9 9 -2 0 6 3 18 6 27 3 9 2
16 -4 16 -5 0 -12 -6 -15 -13z"/>
<path d="M1821 231 c-9 -16 -8 -29 3 -56 16 -38 30 -45 40 -19 11 29 6 61 -13
78 -19 17 -20 17 -30 -3z"/>
</g>
</svg>
