<?xml version="1.0" standalone="no"?>
<!DOCTYPE svg PUBLIC "-//W3C//DTD SVG 20010904//EN"
 "http://www.w3.org/TR/2001/REC-SVG-20010904/DTD/svg10.dtd">
<svg version="1.0" xmlns="http://www.w3.org/2000/svg"
 width="480.000000pt" height="360.000000pt" viewBox="0 0 480.000000 360.000000"
 preserveAspectRatio="xMidYMid meet">
<metadata>
Created by potrace 1.16, written by Peter Selinger 2001-2019
</metadata>
<rect width="1" height="360" fill="#000000"/>
<rect x="479" width="1" height="360" fill="#000000"/>
<rect width="480" height="1" fill="#000000"/>
<rect y="359" width="480" height="1" fill="#000000"/>
<g transform="translate(0.000000,360.000000) scale(0.100000,-0.100000)"
fill="#000000" stroke="none">
<path d="M0 2871 l0 -728 98 -11 c53 -6 170 -18 259 -28 l163 -16 27 32 c33
39 78 60 132 60 23 0 58 6 78 14 60 23 452 37 654 24 157 -10 239 -7 239 10 0
4 -22 30 -50 57 -27 27 -50 52 -50 56 0 4 16 13 35 19 39 13 39 13 24 38 -9
14 -8 32 5 74 28 96 124 159 270 177 43 5 83 14 89 20 6 6 18 11 27 11 32 0
82 49 109 107 38 80 73 118 136 147 30 15 56 35 60 46 3 11 11 20 16 20 5 0 9
-536 9 -1387 -1 -1200 -3 -1385 -15 -1369 -11 15 -22 17 -58 12 -75 -11 -79
-18 -85 -144 l-5 -112 82 0 81 0 2 83 c0 45 1 90 0 100 -1 9 0 17 2 17 2 0 25
-45 51 -100 l48 -100 188 0 188 0 -35 103 c-20 56 -51 140 -71 187 -33 79 -34
85 -17 95 51 29 64 52 64 114 0 70 -17 118 -77 218 -38 61 -42 75 -32 91 10
16 7 31 -17 88 -42 98 -145 275 -204 350 l-52 64 -4 98 c-6 121 19 213 71 270
l33 36 41 -37 c23 -20 50 -37 60 -37 73 0 119 -147 137 -438 6 -104 9 -115 30
-129 13 -8 24 -22 24 -29 0 -20 13 -17 33 6 13 16 22 18 41 10 32 -12 36 0 24
74 -5 32 -7 63 -6 67 2 5 63 -59 136 -141 74 -83 139 -150 145 -150 6 0 19 -8
30 -17 17 -16 19 -17 28 -1 5 10 16 15 24 12 8 -4 15 -4 15 -2 0 2 -43 49 -96
103 -52 55 -100 108 -105 117 -9 16 -6 16 28 4 56 -20 254 -58 261 -51 4 3 0
10 -8 16 -13 8 -13 11 2 23 10 7 18 16 18 19 0 3 -35 13 -77 22 -111 24 -128
32 -113 50 7 8 21 15 32 15 38 0 29 47 -30 145 -56 95 -72 122 -72 128 0 3 15
10 34 17 18 6 41 19 49 28 10 11 28 83 46 187 17 94 35 198 42 233 15 81 8
104 -36 125 -40 19 -49 38 -60 117 -7 56 -21 84 -35 75 -15 -9 -51 53 -81 137
-15 44 -31 83 -34 87 -9 9 -35 -29 -35 -51 0 -11 7 -33 17 -51 15 -30 15 -31
0 -18 -10 7 -17 20 -17 27 0 8 -25 39 -55 69 -30 31 -55 60 -55 65 0 5 17 10
37 12 43 3 58 32 23 43 -12 4 -20 14 -19 23 3 31 -1 39 -25 50 -21 9 -24 19
-30 94 -10 114 -24 173 -47 203 -18 22 -23 23 -42 13 -12 -7 -28 -11 -36 -9
-8 1 -22 -7 -30 -18 -16 -21 -17 -21 -66 -5 -28 10 -70 35 -95 57 -43 37 -47
39 -100 34 -30 -2 -63 -8 -72 -12 -17 -7 -18 11 -18 284 l0 291 -1165 0 -1165
0 0 -729z m2756 -516 c-8 -8 -21 -15 -28 -15 -8 1 -6 6 6 15 26 20 42 19 22 0z
m9 -64 c32 -20 75 -54 95 -76 19 -22 54 -59 76 -82 23 -24 37 -46 32 -49 -5
-3 -6 -14 -3 -25 6 -17 3 -19 -19 -13 -15 4 -32 1 -41 -6 -8 -7 -22 -10 -30
-6 -10 4 -19 -3 -27 -18 -6 -14 -16 -22 -23 -19 -8 2 -53 8 -101 11 l-87 7
-12 35 c-9 28 -21 38 -56 52 -24 9 -63 17 -86 17 -23 1 -49 4 -58 7 -15 6 -15
8 0 24 13 14 14 23 6 39 -11 19 -10 19 21 9 18 -6 37 -17 41 -25 6 -10 12 -11
22 -3 9 8 14 5 19 -12 7 -22 8 -22 19 9 17 45 23 47 37 13 17 -42 30 -38 30
10 0 22 11 64 24 95 28 63 27 63 121 6z m175 -436 c0 -29 -8 -31 -36 -10 -16
13 -17 16 -4 25 25 17 40 11 40 -15z m-146 -297 c-9 -14 -24 2 -24 25 1 21 1
21 15 3 8 -10 12 -23 9 -28z m58 -62 c-2 -21 -9 -56 -16 -79 l-13 -42 -7 53
c-6 36 -4 63 4 83 17 40 36 31 32 -15z m121 -126 c25 -58 52 -118 61 -135 8
-16 14 -30 12 -32 -5 -6 -71 20 -107 43 -46 29 -65 87 -54 170 4 32 9 64 12
71 9 24 27 -3 76 -117z"/>
<path d="M1828 2577 c-78 -27 -103 -46 -118 -93 -9 -27 -8 -40 5 -68 9 -19 25
-36 36 -39 11 -3 19 -14 19 -27 0 -23 62 -90 83 -90 16 0 52 37 106 110 45 59
48 72 26 110 -21 36 -18 49 10 60 26 10 29 17 19 44 -9 24 -105 20 -186 -7z"/>
<path d="M1988 2258 c-33 -45 -46 -67 -27 -50 7 6 34 12 60 12 26 0 51 5 54
10 3 6 1 10 -4 10 -6 0 -11 9 -11 20 0 11 -4 20 -9 20 -5 0 -16 2 -24 5 -8 4
-24 -7 -39 -27z"/>
<path d="M1040 2021 c-32 -6 -35 -9 -41 -48 -3 -24 -4 -43 -2 -43 2 0 30 20
63 44 43 32 55 46 44 50 -9 3 -19 5 -22 5 -4 -1 -23 -4 -42 -8z"/>
<path d="M1215 2011 c3 -5 -20 -31 -51 -58 -31 -26 -75 -65 -98 -86 l-41 -37
50 19 c72 29 151 70 220 116 l59 40 -29 6 c-47 10 -117 10 -110 0z"/>
<path d="M1380 1969 c-77 -56 -173 -104 -263 -130 -88 -25 -107 -22 -107 21 0
21 -5 30 -16 30 -10 0 -14 6 -11 14 8 19 -22 26 -122 26 -71 0 -88 -3 -106
-20 -20 -19 -26 -19 -76 -8 -30 6 -89 13 -132 14 -43 1 -92 8 -108 14 -22 9
-72 11 -187 7 -86 -4 -178 -7 -204 -7 l-48 0 0 -965 0 -965 895 0 895 0 0 115
0 115 -27 6 c-35 7 -54 16 -118 54 -27 16 -75 43 -105 59 -70 37 -153 111
-170 151 -10 24 -10 36 0 60 20 48 81 96 146 115 67 19 94 39 94 69 0 37 76
316 123 454 44 126 47 144 61 320 9 103 21 214 27 247 6 33 12 65 13 70 1 6 5
15 9 22 5 8 -10 13 -50 18 -100 10 -117 17 -129 53 -15 47 -22 51 -109 62 -44
6 -89 12 -100 15 -12 2 -41 -12 -75 -36z"/>
</g>
</svg>
