<?xml version="1.0" standalone="no"?>
<!DOCTYPE svg PUBLIC "-//W3C//DTD SVG 20010904//EN"
 "http://www.w3.org/TR/2001/REC-SVG-20010904/DTD/svg10.dtd">
<svg version="1.0" xmlns="http://www.w3.org/2000/svg"
 width="480.000000pt" height="360.000000pt" viewBox="0 0 480.000000 360.000000"
 preserveAspectRatio="xMidYMid meet">
<metadata>
Created by potrace 1.16, written by Peter Selinger 2001-2019
</metadata>
<rect width="1" height="360" fill="#000000"/>
<rect x="479" width="1" height="360" fill="#000000"/>
<rect width="480" height="1" fill="#000000"/>
<rect y="359" width="480" height="1" fill="#000000"/>
<g transform="translate(0.000000,360.000000) scale(0.100000,-0.100000)"
fill="#000000" stroke="none">
<path d="M3166 3386 c-38 -59 -213 -239 -279 -287 -22 -16 -48 -29 -58 -29
-25 0 -52 -44 -44 -70 7 -23 53 -28 73 -8 18 18 24 4 12 -26 -10 -28 -96 -76
-136 -76 -12 0 -41 -7 -65 -15 -24 -9 -56 -15 -70 -13 -43 4 -59 -17 -59 -82
0 -31 3 -59 6 -63 3 -3 17 -2 30 3 15 6 24 6 24 0 0 -6 18 -10 39 -10 34 0 42
-5 60 -34 12 -18 21 -51 22 -72 0 -35 16 -94 18 -69 1 6 6 3 11 -5 6 -10 10
-11 10 -2 0 19 20 14 20 -5 1 -10 11 -31 24 -46 l23 -29 8 34 c8 31 9 31 12 7
6 -41 -14 -78 -52 -96 -41 -20 -45 -46 -10 -69 25 -16 28 -33 18 -121 l-4 -43
-150 78 c-145 74 -183 100 -359 243 -44 37 -111 81 -148 99 -75 37 -196 80
-223 80 -11 0 -33 23 -54 55 -43 64 -101 117 -123 113 -9 -2 -22 -14 -28 -26
-6 -13 -14 -24 -16 -25 -3 -1 -25 21 -50 50 -44 53 -59 93 -73 195 -3 26 -10
50 -15 53 -14 8 -67 -54 -81 -93 -16 -48 -7 -148 19 -207 18 -39 44 -68 123
-135 l99 -85 -5 -45 c-3 -25 -14 -94 -25 -155 -25 -138 -38 -382 -21 -412 11
-21 12 -21 128 35 108 51 124 56 185 56 58 0 77 -5 135 -37 37 -20 173 -88
301 -151 127 -63 232 -117 232 -121 0 -10 -93 -191 -149 -290 -92 -162 -108
-253 -60 -352 l20 -42 -21 -41 c-12 -23 -20 -43 -18 -45 2 -1 18 -10 36 -19
42 -22 37 -43 -27 -105 -52 -51 -96 -112 -131 -181 -13 -25 -38 -64 -57 -87
-28 -34 -32 -45 -24 -61 29 -54 60 -33 113 76 l30 62 36 -34 c19 -20 48 -38
64 -41 15 -4 29 -12 29 -18 2 -23 -3 -52 -11 -57 -4 -3 -11 -30 -15 -60 -3
-30 -12 -70 -18 -89 -9 -27 -9 -35 1 -38 9 -4 12 -43 12 -154 l0 -149 762 2
762 3 17 84 c10 52 15 107 12 142 -4 42 -1 68 11 93 14 29 15 60 11 193 -5
187 -19 333 -38 423 -8 36 -40 178 -72 315 -75 327 -80 428 -39 823 5 49 8 53
35 59 36 7 36 15 2 58 -26 32 -27 38 -24 135 2 96 5 104 38 161 65 109 57 210
-32 385 -60 119 -120 193 -216 264 -157 117 -278 164 -405 159 -46 -2 -84 -3
-84 -1 0 1 14 21 30 44 32 44 37 67 18 86 -24 24 -47 12 -82 -42z"/>
</g>
</svg>
