<?xml version="1.0" standalone="no"?>
<!DOCTYPE svg PUBLIC "-//W3C//DTD SVG 20010904//EN"
 "http://www.w3.org/TR/2001/REC-SVG-20010904/DTD/svg10.dtd">
<svg version="1.0" xmlns="http://www.w3.org/2000/svg"
 width="480.000000pt" height="360.000000pt" viewBox="0 0 480.000000 360.000000"
 preserveAspectRatio="xMidYMid meet">
<metadata>
Created by potrace 1.16, written by Peter Selinger 2001-2019
</metadata>
<rect width="1" height="360" fill="#000000"/>
<rect x="479" width="1" height="360" fill="#000000"/>
<rect width="480" height="1" fill="#000000"/>
<rect y="359" width="480" height="1" fill="#000000"/>
<g transform="translate(0.000000,360.000000) scale(0.100000,-0.100000)"
fill="#000000" stroke="none">
<path d="M0 1800 l0 -1800 787 0 786 0 56 61 c119 132 142 167 206 311 34 79
75 178 90 221 15 42 47 112 71 154 24 42 44 80 44 84 0 11 -28 19 -66 19 -51
0 -186 29 -211 46 -34 21 -30 54 5 54 26 0 27 2 24 43 l-3 42 43 -48 c51 -56
77 -60 162 -22 l56 25 1 102 c0 57 4 142 7 191 4 48 5 87 2 87 -3 0 -14 -7
-24 -15 -27 -20 -69 -19 -106 3 -21 13 -26 22 -19 29 20 20 -33 45 -78 37 -35
-5 -43 -3 -57 17 l-16 23 -110 -27 c-100 -24 -114 -26 -138 -13 -34 17 -55 55
-55 96 0 37 47 90 104 115 42 19 45 25 29 55 -8 15 -6 24 10 40 11 11 26 20
33 20 7 0 26 14 42 30 32 33 56 38 75 15 15 -18 42 -19 58 -3 19 19 135 28
147 11 18 -24 98 -27 165 -7 65 19 80 36 80 91 l0 25 -17 -21 c-18 -21 -18
-20 -19 48 0 38 -6 76 -12 84 -9 10 -9 16 0 25 13 13 -6 42 -29 42 -8 0 -11 5
-8 10 10 17 -5 52 -21 46 -19 -7 -11 151 10 192 14 26 14 31 1 42 -17 14 -19
48 -5 70 6 10 3 21 -12 37 l-22 23 34 35 c45 46 66 52 101 26 15 -12 30 -21
31 -21 2 0 3 14 3 31 0 30 4 33 59 51 55 18 59 18 77 2 17 -16 19 -16 25 2 19
61 42 67 91 24 30 -27 41 -31 69 -25 29 5 40 0 89 -40 31 -25 62 -45 70 -45 8
0 19 -17 25 -40 13 -49 19 -53 69 -41 47 10 51 3 20 -40 -19 -28 -20 -32 -5
-77 24 -75 28 -109 31 -221 1 -58 5 -126 10 -150 8 -41 7 -43 -14 -36 -15 5
-21 2 -21 -9 0 -21 -19 -20 -27 0 -6 15 -8 15 -20 -2 -7 -10 -13 -26 -13 -36
0 -20 -36 -43 -45 -29 -3 5 -17 7 -32 5 -34 -6 -45 -13 -38 -25 4 -5 -1 -9 -9
-9 -26 0 -18 -24 12 -36 15 -6 61 -17 102 -24 48 -9 83 -21 98 -34 49 -44 82
-139 82 -240 0 -92 -25 -137 -96 -172 -29 -14 -59 -33 -67 -42 -29 -35 -108
-204 -122 -264 -20 -85 -20 -86 18 -92 104 -17 298 -48 337 -54 l45 -8 -2 -46
c-1 -35 -12 -67 -45 -125 -23 -43 -54 -105 -68 -138 -32 -77 -51 -105 -70
-105 -8 0 -35 30 -58 68 -47 73 -92 132 -92 119 0 -15 109 -374 129 -425 11
-27 42 -88 71 -135 l51 -87 914 0 915 0 0 1800 0 1800 -2400 0 -2400 0 0
-1800z"/>
<path d="M2251 1889 c-12 -23 -21 -43 -19 -44 2 -1 31 -5 66 -9 52 -6 63 -4
68 9 6 15 -21 55 -38 55 -4 0 -8 -8 -8 -17 0 -12 -7 -8 -21 15 -12 17 -22 32
-24 32 -2 0 -13 -19 -24 -41z"/>
</g>
</svg>
