<?xml version="1.0" standalone="no"?>
<!DOCTYPE svg PUBLIC "-//W3C//DTD SVG 20010904//EN"
 "http://www.w3.org/TR/2001/REC-SVG-20010904/DTD/svg10.dtd">
<svg version="1.0" xmlns="http://www.w3.org/2000/svg"
 width="480.000000pt" height="360.000000pt" viewBox="0 0 480.000000 360.000000"
 preserveAspectRatio="xMidYMid meet">
<metadata>
Created by potrace 1.16, written by Peter Selinger 2001-2019
</metadata>
<rect width="1" height="360" fill="#000000"/>
<rect x="479" width="1" height="360" fill="#000000"/>
<rect width="480" height="1" fill="#000000"/>
<rect y="359" width="480" height="1" fill="#000000"/>
<g transform="translate(0.000000,360.000000) scale(0.100000,-0.100000)"
fill="#000000" stroke="none">
<path d="M2040 3416 c-97 -21 -115 -31 -137 -73 -19 -37 -19 -40 -2 -138 9
-55 18 -102 19 -105 1 -3 2 -9 1 -13 -3 -16 32 -109 49 -129 17 -21 19 -21 66
-6 27 9 52 14 57 11 15 -9 6 -44 -27 -105 -18 -35 -36 -75 -40 -89 -8 -38 21
-71 64 -73 29 -1 35 -6 47 -41 7 -22 29 -74 47 -115 58 -129 68 -158 62 -169
-4 -6 -25 -11 -47 -11 -43 0 -47 -8 -23 -46 9 -13 15 -26 13 -28 -2 -1 -25
-14 -51 -29 -68 -39 -115 -99 -127 -161 -5 -28 -15 -82 -23 -121 l-13 -69 -40
-4 c-84 -8 -101 -42 -61 -119 l26 -49 -35 -103 c-34 -102 -87 -206 -210 -416
-35 -60 -65 -120 -65 -133 0 -12 8 -50 17 -83 14 -50 15 -68 5 -105 -7 -24
-12 -56 -12 -70 0 -26 23 -78 46 -105 8 -8 23 -67 35 -130 20 -112 46 -188 75
-220 14 -15 10 -34 -36 -189 -29 -94 -50 -173 -48 -176 3 -2 338 -3 745 -2
l741 3 -81 210 c-136 359 -167 445 -197 555 -38 140 -62 204 -105 274 -27 44
-32 62 -24 72 6 8 7 23 3 36 -4 13 -7 37 -5 53 1 17 -3 79 -8 138 -13 128 -3
186 54 344 2 7 11 10 18 7 29 -11 37 -55 37 -217 1 -374 59 -686 170 -908 64
-128 195 -312 307 -430 29 -31 33 -41 32 -82 -1 -26 1 -50 4 -54 7 -6 12 55 8
86 -2 7 4 11 11 9 7 -3 26 8 43 24 28 26 30 32 29 100 -1 54 -11 104 -39 193
-21 66 -37 129 -36 140 7 53 0 164 -14 217 -18 71 -19 104 -4 114 6 3 17 20
24 37 13 30 9 40 -105 267 -111 223 -119 242 -144 363 -29 139 -30 128 20 215
l19 33 -24 20 c-13 10 -36 19 -52 19 -16 0 -31 6 -33 13 -2 6 -8 28 -14 47 -6
19 -16 75 -21 125 -8 62 -17 98 -31 117 -21 29 -24 49 -14 111 6 34 8 36 21
20 13 -17 14 -17 8 3 -3 12 -7 43 -9 70 -3 27 -10 73 -16 102 -14 63 -8 76 15
32 29 -57 26 -26 -10 86 -37 115 -38 117 -29 230 3 40 1 88 -4 107 l-10 35 44
-1 c48 -2 45 -5 86 78 14 27 30 75 33 100 1 6 6 19 10 30 51 128 52 130 41
162 -6 18 -18 39 -26 46 -27 25 -144 47 -253 47 -123 0 -199 -19 -223 -55
l-16 -25 -33 20 c-40 25 -160 28 -191 6 -17 -13 -21 -12 -39 10 -44 55 -221
86 -345 60z m793 -1588 c-13 -24 -23 -1 -22 50 l1 57 13 -50 c6 -27 10 -53 8
-57z m-8 -48 c3 -5 1 -10 -4 -10 -6 0 -11 5 -11 10 0 6 2 10 4 10 3 0 8 -4 11
-10z"/>
</g>
</svg>
