<?xml version="1.0" standalone="no"?>
<!DOCTYPE svg PUBLIC "-//W3C//DTD SVG 20010904//EN"
 "http://www.w3.org/TR/2001/REC-SVG-20010904/DTD/svg10.dtd">
<svg version="1.0" xmlns="http://www.w3.org/2000/svg"
 width="480.000000pt" height="360.000000pt" viewBox="0 0 480.000000 360.000000"
 preserveAspectRatio="xMidYMid meet">
<metadata>
Created by potrace 1.16, written by Peter Selinger 2001-2019
</metadata>
<rect width="1" height="360" fill="#000000"/>
<rect x="479" width="1" height="360" fill="#000000"/>
<rect width="480" height="1" fill="#000000"/>
<rect y="359" width="480" height="1" fill="#000000"/>
<g transform="translate(0.000000,360.000000) scale(0.100000,-0.100000)"
fill="#000000" stroke="none">
<path d="M2382 3580 c-6 -11 -12 -26 -12 -34 0 -8 -10 -27 -23 -41 l-22 -27
-43 23 c-39 21 -44 22 -59 7 -8 -9 -16 -25 -17 -35 -2 -22 -45 -111 -57 -119
-5 -3 -9 -13 -9 -23 0 -20 50 -46 83 -44 20 2 52 -59 43 -82 -2 -7 -31 -16
-64 -20 -51 -6 -65 -12 -95 -43 -52 -55 -107 -151 -107 -190 0 -42 14 -69 56
-109 30 -28 33 -35 22 -52 -15 -24 4 -51 36 -51 18 0 25 -9 35 -50 10 -40 21
-55 54 -79 53 -37 122 -90 155 -117 21 -17 23 -23 13 -42 -6 -12 -20 -22 -29
-22 -49 0 -56 -72 -16 -144 31 -56 29 -80 -15 -155 -35 -58 -38 -78 -16 -107
19 -25 19 -65 -1 -128 -32 -101 -42 -142 -54 -214 -7 -40 -23 -93 -36 -117
-23 -43 -129 -177 -146 -183 -4 -2 -8 -8 -8 -13 0 -6 -18 -29 -40 -53 -88 -93
-161 -196 -206 -286 -26 -52 -71 -130 -101 -173 -44 -66 -53 -85 -53 -123 0
-34 4 -44 16 -44 12 0 14 -3 6 -13 -9 -10 -4 -22 16 -48 15 -19 49 -63 74 -99
44 -63 82 -98 160 -150 21 -14 38 -31 38 -38 0 -7 7 -15 15 -18 8 -4 30 -20
47 -36 17 -16 50 -39 72 -50 23 -12 45 -26 51 -33 17 -21 235 -145 278 -159
11 -3 21 -15 24 -26 5 -19 14 -20 192 -20 140 1 181 3 166 12 -24 13 -45 38
-45 54 0 15 12 20 118 49 46 13 92 31 102 40 10 9 23 14 28 11 6 -3 45 19 88
49 44 29 124 79 179 110 154 88 225 159 225 226 0 17 -7 57 -14 88 -8 31 -22
122 -30 202 -9 81 -23 169 -32 195 -16 48 -82 179 -127 251 -46 75 -137 251
-137 267 0 31 -113 230 -166 292 -109 129 -125 196 -85 351 23 89 26 153 12
230 -10 51 -5 75 33 178 21 57 20 102 -4 122 -27 24 -26 31 17 75 30 31 37 46
41 90 5 64 -26 163 -93 303 -50 103 -136 197 -192 209 -49 11 -59 29 -35 68
22 36 18 56 -21 91 -24 21 -47 22 -73 2 -28 -21 -50 -18 -68 10 -14 22 -24 25
-74 25 -46 0 -60 -4 -70 -20z m94 -46 c21 -27 25 -40 18 -52 -23 -36 -41 -19
-68 66 -12 36 19 27 50 -14z"/>
</g>
</svg>
