<?xml version="1.0" standalone="no"?>
<!DOCTYPE svg PUBLIC "-//W3C//DTD SVG 20010904//EN"
 "http://www.w3.org/TR/2001/REC-SVG-20010904/DTD/svg10.dtd">
<svg version="1.0" xmlns="http://www.w3.org/2000/svg"
 width="480.000000pt" height="360.000000pt" viewBox="0 0 480.000000 360.000000"
 preserveAspectRatio="xMidYMid meet">
<metadata>
Created by potrace 1.16, written by Peter Selinger 2001-2019
</metadata>
<rect width="1" height="360" fill="#000000"/>
<rect x="479" width="1" height="360" fill="#000000"/>
<rect width="480" height="1" fill="#000000"/>
<rect y="359" width="480" height="1" fill="#000000"/>
<g transform="translate(0.000000,360.000000) scale(0.100000,-0.100000)"
fill="#000000" stroke="none">
<path d="M3645 3563 c-4 -21 -8 -43 -10 -49 -2 -6 -52 -23 -111 -39 -152 -40
-225 -79 -312 -167 -141 -143 -195 -235 -213 -363 -5 -40 -14 -88 -19 -106
-17 -57 -13 -65 17 -38 14 13 23 19 19 12 -3 -6 -10 -44 -15 -84 -10 -75 0
-122 24 -113 7 3 15 -7 18 -25 7 -32 64 -94 78 -85 5 3 18 -16 30 -43 19 -46
19 -48 2 -61 -10 -8 -33 -20 -50 -28 -45 -20 -42 -43 13 -99 43 -43 46 -49 40
-85 -3 -23 -2 -41 4 -45 16 -10 70 -134 76 -176 4 -23 18 -48 35 -65 28 -27
30 -27 111 -19 148 13 151 13 159 -15 4 -14 7 -62 8 -106 l1 -82 -37 -28 c-21
-15 -92 -80 -159 -143 -156 -150 -168 -157 -296 -170 -170 -18 -208 -36 -236
-116 l-18 -50 -119 -51 c-107 -46 -121 -55 -125 -80 -4 -23 -16 -32 -74 -56
-38 -15 -71 -26 -73 -24 -3 2 -11 163 -19 358 -14 342 -14 356 5 448 11 52 23
123 26 158 4 34 9 62 11 62 3 0 28 -17 57 -39 100 -74 329 -221 343 -221 11 0
12 4 5 18 -14 25 -114 121 -191 182 -204 162 -215 173 -223 234 -9 63 -42 119
-106 179 -67 63 -92 72 -159 56 -60 -14 -64 -13 -161 56 -35 25 -69 44 -75 42
-6 -2 -48 25 -94 60 -88 67 -115 79 -88 39 11 -17 12 -26 4 -28 -12 -4 26 -78
40 -78 12 0 172 -156 172 -168 0 -6 -11 -19 -24 -28 -28 -17 -41 -53 -50 -131
-8 -65 2 -77 96 -106 12 -4 18 -22 23 -64 4 -32 18 -93 31 -136 29 -95 29
-112 4 -211 -13 -53 -24 -155 -35 -334 -9 -141 -20 -306 -25 -367 -13 -146
-12 -311 1 -358 6 -21 27 -57 47 -79 96 -107 210 -104 537 15 83 30 157 58
166 62 12 4 23 -4 39 -30 18 -29 27 -35 44 -30 65 20 61 27 63 -97 1 -74 10
-159 27 -247 14 -73 26 -144 26 -157 l0 -24 645 0 645 0 -6 27 c-4 15 -8 55
-8 90 l-1 62 54 51 c53 50 54 51 90 38 39 -13 244 -18 257 -6 4 4 2 13 -4 20
-8 10 10 12 94 10 114 -4 122 1 88 53 -15 23 -15 25 0 25 15 0 17 92 16 1193
-1 1287 -1 1299 -54 1419 -13 29 -36 88 -51 131 -55 156 -213 339 -348 403
-32 15 -35 20 -30 50 l6 34 -336 0 -336 0 -6 -37z"/>
<path d="M1061 56 c-5 -6 -14 -21 -20 -33 l-12 -23 88 0 87 0 -33 34 c-26 26
-41 34 -67 33 -19 -1 -39 -6 -43 -11z"/>
</g>
</svg>
