<?xml version="1.0" standalone="no"?>
<!DOCTYPE svg PUBLIC "-//W3C//DTD SVG 20010904//EN"
 "http://www.w3.org/TR/2001/REC-SVG-20010904/DTD/svg10.dtd">
<svg version="1.0" xmlns="http://www.w3.org/2000/svg"
 width="480.000000pt" height="360.000000pt" viewBox="0 0 480.000000 360.000000"
 preserveAspectRatio="xMidYMid meet">
<metadata>
Created by potrace 1.16, written by Peter Selinger 2001-2019
</metadata>
<rect width="1" height="360" fill="#000000"/>
<rect x="479" width="1" height="360" fill="#000000"/>
<rect width="480" height="1" fill="#000000"/>
<rect y="359" width="480" height="1" fill="#000000"/>
<g transform="translate(0.000000,360.000000) scale(0.100000,-0.100000)"
fill="#000000" stroke="none">
<path d="M2552 1898 c-6 -6 -12 -9 -12 -4 0 4 -10 -5 -22 -19 -30 -34 -119
-59 -155 -42 -21 9 -27 8 -39 -8 -9 -12 -12 -31 -8 -52 5 -24 1 -39 -15 -59
-23 -29 -27 -77 -11 -118 11 -29 -6 -36 -28 -14 -7 7 -32 20 -55 29 -31 12
-43 23 -45 41 -6 47 -102 68 -102 22 0 -8 -6 -14 -14 -14 -18 0 -66 46 -66 63
0 8 -9 22 -20 32 -18 17 -21 17 -46 1 -51 -34 -71 -133 -35 -177 20 -25 14
-26 94 17 16 9 30 14 32 12 15 -14 4 -106 -23 -186 l-30 -93 23 -27 c22 -25
24 -26 81 -15 33 6 82 8 111 6 l52 -5 -14 -29 c-18 -34 -21 -216 -4 -252 9
-19 7 -31 -5 -56 -20 -38 -107 -284 -142 -401 -35 -114 -30 -173 16 -211 18
-15 57 -34 88 -41 l56 -14 -3 -59 c-1 -33 5 -97 15 -142 l19 -83 37 0 38 0 0
140 c0 138 0 140 23 141 12 0 55 2 95 4 72 3 73 3 89 -28 25 -50 73 -198 73
-229 0 -27 1 -28 55 -28 59 0 62 2 40 40 -8 14 -14 43 -15 65 0 47 -26 155
-41 169 -17 18 -9 42 22 72 39 37 36 55 -36 199 -41 82 -64 145 -90 247 -21
86 -44 152 -60 175 -29 44 -30 51 -9 74 12 14 13 24 5 54 -14 52 5 101 49 123
57 28 114 166 78 188 -7 4 -26 8 -42 8 -21 1 -32 7 -34 18 -2 13 1 16 12 12
11 -4 13 0 9 18 -3 16 -2 19 5 10 7 -10 14 7 27 60 13 57 24 79 49 101 29 25
30 28 14 41 -10 7 -18 21 -18 30 0 9 -4 16 -8 16 -5 0 -19 25 -32 56 -21 52
-22 57 -6 66 9 5 14 14 10 19 -3 5 0 17 8 26 11 14 11 16 -4 10 -9 -3 -18 -1
-20 4 -2 6 -8 5 -16 -3z m-312 -365 c0 -20 -24 -11 -28 10 -2 12 1 15 12 11 9
-3 16 -13 16 -21z m54 -17 c10 4 12 -2 9 -20 -3 -14 -8 -26 -12 -26 -14 0 -30
40 -24 57 7 16 8 17 11 1 2 -9 9 -15 16 -12z m-143 -46 c10 -6 19 -15 19 -20
0 -10 -70 -43 -77 -36 -5 5 25 66 33 66 3 0 14 -5 25 -10z"/>
<path d="M970 1882 c-8 -9 -15 -34 -16 -55 0 -32 -9 -46 -54 -92 -35 -35 -63
-55 -78 -55 -12 0 -32 -9 -43 -19 l-21 -20 27 -35 c24 -32 26 -41 20 -85 -7
-50 -7 -50 34 -77 26 -17 41 -34 41 -47 0 -11 7 -29 16 -38 16 -17 15 -20 -15
-48 -25 -24 -30 -34 -25 -58 4 -22 -2 -41 -25 -78 -17 -28 -35 -72 -40 -98
-11 -59 -28 -78 -116 -130 -38 -23 -72 -45 -73 -50 -8 -17 -61 -35 -128 -41
-88 -9 -160 15 -185 60 -20 38 -47 40 -182 19 l-107 -18 0 -117 0 -117 137
-63 c76 -35 192 -89 258 -120 66 -31 157 -74 203 -95 l82 -38 0 -42 c0 -48 19
-67 80 -80 57 -12 58 -15 52 -135 l-5 -110 97 0 96 0 -16 25 c-16 24 -15 29
11 93 35 84 54 105 102 109 20 1 74 20 120 42 96 46 98 52 59 161 -39 110
-148 351 -172 379 -16 19 -20 31 -13 43 5 9 12 52 15 95 4 43 11 87 17 98 5
10 11 35 13 55 2 19 6 49 10 65 8 40 -10 85 -35 85 -30 0 -44 48 -13 49 54 1
67 9 89 51 29 54 29 65 -2 157 l-25 75 21 34 c12 19 20 36 18 37 -2 1 -14 8
-26 15 -13 6 -29 12 -37 12 -23 0 -77 62 -72 82 2 10 -7 33 -20 50 -13 18 -30
45 -36 61 -14 31 -18 32 -38 9z m-157 -1009 c4 -22 0 -33 -21 -50 -15 -12 -32
-22 -39 -23 -6 0 -13 -5 -15 -11 -5 -16 -108 -25 -108 -10 0 6 6 11 14 11 8 0
22 8 32 18 21 21 117 91 125 92 4 0 9 -12 12 -27z"/>
<path d="M4066 1834 c-3 -9 -3 -33 0 -54 5 -33 2 -45 -23 -77 -17 -21 -42 -59
-57 -85 -25 -42 -32 -48 -62 -48 -42 0 -45 -22 -8 -61 24 -25 26 -35 29 -126
2 -105 12 -156 26 -147 5 3 9 -2 9 -12 0 -16 -35 -54 -50 -54 -5 0 -10 -17
-13 -37 -10 -69 -24 -118 -45 -157 -21 -38 -18 -69 9 -102 6 -8 5 -21 -3 -38
-10 -23 -9 -32 6 -57 18 -30 17 -31 -7 -67 -14 -20 -37 -82 -51 -137 -23 -87
-69 -193 -137 -315 -10 -19 -19 -51 -19 -71 0 -31 7 -42 43 -71 60 -49 78 -57
149 -65 46 -5 68 -12 86 -30 19 -19 33 -23 87 -23 58 0 65 2 65 20 0 27 40 27
47 0 5 -17 14 -20 69 -20 l64 0 0 45 c0 34 5 50 21 63 64 52 68 64 44 136 -9
25 -33 123 -55 218 -26 111 -51 195 -71 235 l-32 63 40 52 c47 62 63 90 63
113 0 24 52 95 70 95 8 0 49 -25 90 -55 102 -75 125 -82 198 -57 31 11 78 23
105 27 l47 7 0 82 0 83 -30 -5 c-17 -2 -68 9 -122 27 -51 16 -128 38 -170 48
-43 9 -78 20 -78 23 0 8 69 170 106 249 15 32 22 61 18 73 -10 33 -8 38 -141
-271 -14 -33 -15 -33 -29 -13 -12 18 -21 20 -70 15 l-56 -6 16 34 c32 66 49
94 69 116 19 22 20 53 2 125 -5 19 -1 40 14 69 l22 41 -25 -6 c-34 -9 -61 4
-148 68 -70 53 -76 60 -82 101 -8 48 -20 65 -30 39z"/>
</g>
</svg>
