<?xml version="1.0" standalone="no"?>
<!DOCTYPE svg PUBLIC "-//W3C//DTD SVG 20010904//EN"
 "http://www.w3.org/TR/2001/REC-SVG-20010904/DTD/svg10.dtd">
<svg version="1.0" xmlns="http://www.w3.org/2000/svg"
 width="480.000000pt" height="360.000000pt" viewBox="0 0 480.000000 360.000000"
 preserveAspectRatio="xMidYMid meet">
<metadata>
Created by potrace 1.16, written by Peter Selinger 2001-2019
</metadata>
<rect width="1" height="360" fill="#000000"/>
<rect x="479" width="1" height="360" fill="#000000"/>
<rect width="480" height="1" fill="#000000"/>
<rect y="359" width="480" height="1" fill="#000000"/>
<g transform="translate(0.000000,360.000000) scale(0.100000,-0.100000)"
fill="#000000" stroke="none">
<path d="M3322 3481 c-62 -16 -121 -36 -131 -45 -11 -10 -27 -48 -36 -86 l-17
-69 -71 -11 c-118 -20 -187 -47 -259 -100 -114 -86 -184 -188 -192 -277 -2
-21 -9 -49 -15 -62 -18 -32 -6 -38 15 -7 23 36 27 27 11 -20 -20 -55 -27 -113
-16 -119 5 -4 9 1 9 9 0 9 5 16 11 16 7 0 9 -9 6 -21 -7 -25 2 -51 14 -43 5 3
9 -4 9 -15 0 -12 7 -21 15 -21 8 0 15 -6 15 -14 0 -8 5 -18 12 -22 8 -5 9 -2
4 11 -3 10 -4 27 0 38 9 30 24 1 24 -49 0 -44 -13 -61 -62 -82 -35 -15 -36
-41 -2 -73 21 -20 25 -30 21 -61 -3 -22 0 -41 7 -47 11 -9 26 -58 41 -139 9
-45 35 -56 122 -49 68 5 75 4 87 -16 8 -12 17 -59 21 -103 6 -81 6 -82 -22
-102 -15 -11 -62 -54 -103 -96 -41 -42 -83 -76 -92 -76 -29 0 -77 -50 -90 -93
-13 -45 -85 -137 -122 -157 -33 -17 -58 -65 -54 -105 2 -32 -5 -42 -71 -109
-48 -49 -72 -80 -68 -89 3 -9 0 -21 -8 -27 -15 -13 -21 8 -55 207 -11 68 -25
134 -29 147 -5 13 -9 78 -8 145 2 100 5 121 17 121 8 -1 83 -18 165 -39 155
-39 196 -42 157 -10 -18 14 -87 42 -307 123 -45 17 -53 24 -60 55 -7 34 -59
89 -100 107 -16 6 -64 12 -107 12 -62 1 -79 -3 -93 -18 -20 -22 -76 -20 -159
6 -31 10 -59 14 -63 11 -10 -11 58 -73 89 -80 22 -6 28 -15 37 -57 6 -28 11
-62 11 -75 0 -28 48 -59 74 -49 9 4 16 1 16 -6 0 -7 15 -42 34 -79 33 -65 34
-69 39 -221 5 -155 41 -608 53 -665 11 -50 32 -82 69 -105 20 -12 34 -24 31
-27 -12 -13 -96 26 -137 63 -29 26 -106 72 -200 119 -149 75 -156 80 -333 238
-100 88 -206 184 -236 213 -53 51 -56 53 -93 44 -21 -4 -47 -16 -57 -25 -10
-9 -23 -14 -29 -11 -5 3 -26 -20 -46 -51 l-36 -58 45 -40 c24 -22 96 -86 160
-143 102 -91 116 -107 116 -135 0 -22 14 -50 45 -92 25 -33 45 -66 45 -75 0
-19 32 -72 87 -143 l42 -54 88 -11 c76 -10 144 -20 373 -58 32 -5 56 -19 90
-49 51 -48 106 -78 233 -125 l87 -33 0 -66 c0 -49 5 -74 20 -96 11 -16 20 -38
20 -47 0 -17 37 -18 640 -18 627 0 640 0 640 19 0 30 -91 144 -128 161 -37 17
-35 11 -63 190 -14 87 -23 196 -25 305 -2 94 -3 175 -4 182 0 21 -51 73 -71
73 -12 0 -19 7 -19 19 0 28 17 35 42 17 16 -12 47 -16 116 -16 89 0 93 1 87
20 -6 18 -2 20 54 20 62 0 76 11 49 38 -9 9 -1 12 39 12 28 0 65 3 83 7 l33 6
-28 23 c-32 25 -31 28 3 38 19 6 22 4 22 -18 0 -34 16 -33 33 1 14 26 15 26
21 6 4 -12 0 -38 -9 -60 -17 -40 -45 -169 -45 -206 0 -18 9 -12 51 33 28 30
48 46 44 35 -12 -38 -46 -256 -43 -273 3 -13 8 -9 23 16 11 17 22 32 25 32 3
0 2 -51 -2 -112 -5 -62 -6 -119 -3 -127 4 -9 17 0 44 30 l38 43 -18 -89 c-10
-49 -16 -92 -13 -97 7 -11 39 7 91 49 l42 35 -23 -86 c-12 -47 -19 -90 -16
-97 6 -8 9 -8 14 0 15 23 24 10 15 -21 -12 -42 3 -56 25 -24 19 30 33 33 38 9
2 -10 14 12 27 49 12 37 31 78 41 90 24 28 24 23 4 -33 -16 -46 -64 -258 -64
-284 0 -13 30 -15 219 -15 238 0 230 -2 232 58 0 15 5 36 10 47 6 13 7 -1 3
-42 l-6 -63 51 0 51 0 0 823 -1 822 -99 57 c-265 154 -487 374 -636 634 -10
17 -14 14 -34 -33 -13 -31 -36 -63 -57 -79 -19 -14 -55 -58 -81 -97 l-47 -70
-3 59 c-1 32 -6 113 -11 179 -8 103 -7 133 10 210 23 111 25 237 3 296 -8 24
-24 78 -35 119 -25 93 -56 146 -132 228 -47 50 -58 68 -52 85 23 78 20 93 -31
153 -39 45 -141 126 -156 123 -2 0 -54 -13 -116 -28z m355 -1629 c-19 -18 -22
-7 -10 38 l6 24 10 -22 c8 -18 7 -27 -6 -40z m-153 -101 c3 -4 -3 -16 -14 -26
-19 -17 -20 -17 -20 2 0 29 22 45 34 24z m-98 -36 c6 -20 7 -38 3 -41 -9 -5
-29 37 -29 62 0 26 15 14 26 -21z m479 -565 c3 -5 1 -10 -4 -10 -6 0 -11 5
-11 10 0 6 2 10 4 10 3 0 8 -4 11 -10z m-1398 -460 c2 -52 0 -101 -5 -109 -8
-11 -35 -7 -155 25 -142 38 -144 39 -110 50 42 15 119 65 193 127 53 44 55 45
64 24 4 -12 10 -65 13 -117z m909 -24 c8 -63 13 -154 12 -203 l-3 -88 -37 92
-37 91 14 124 c8 67 15 125 15 128 0 3 5 -3 11 -13 5 -9 17 -68 25 -131z"/>
</g>
</svg>
