<?xml version="1.0" standalone="no"?>
<!DOCTYPE svg PUBLIC "-//W3C//DTD SVG 20010904//EN"
 "http://www.w3.org/TR/2001/REC-SVG-20010904/DTD/svg10.dtd">
<svg version="1.0" xmlns="http://www.w3.org/2000/svg"
 width="480.000000pt" height="360.000000pt" viewBox="0 0 480.000000 360.000000"
 preserveAspectRatio="xMidYMid meet">
<metadata>
Created by potrace 1.16, written by Peter Selinger 2001-2019
</metadata>
<rect width="1" height="360" fill="#000000"/>
<rect x="479" width="1" height="360" fill="#000000"/>
<rect width="480" height="1" fill="#000000"/>
<rect y="359" width="480" height="1" fill="#000000"/>
<g transform="translate(0.000000,360.000000) scale(0.100000,-0.100000)"
fill="#000000" stroke="none">
<path d="M0 1800 l0 -1800 2400 0 2400 0 0 1800 0 1800 -1164 0 -1163 0 -6
-202 c-4 -160 -11 -232 -31 -338 -14 -74 -26 -160 -27 -190 -1 -30 -3 -44 -6
-30 -2 14 -18 115 -36 225 -27 169 -32 226 -31 368 l0 167 -1168 0 -1168 0 0
-1800z m2481 876 c10 -25 24 -46 30 -48 5 -2 11 -12 13 -23 2 -14 16 -22 54
-30 69 -16 96 -35 150 -110 45 -63 47 -64 102 -70 125 -13 238 -53 352 -127
59 -37 64 -46 73 -128 8 -81 -7 -111 -48 -93 -24 11 -26 10 -47 -43 -24 -58
-74 -110 -117 -120 -14 -4 -54 -2 -88 5 -94 17 -100 15 -150 -37 -24 -27 -63
-57 -85 -67 -22 -10 -40 -21 -40 -25 0 -8 24 -76 69 -197 17 -46 27 -83 22
-83 -5 0 -11 8 -13 18 -3 9 -4 -31 -4 -89 1 -96 3 -105 19 -101 14 4 17 -2 17
-33 0 -32 -3 -37 -19 -32 -20 5 -31 -15 -31 -60 0 -36 -20 -27 -21 10 l-1 32
-10 -36 c-9 -33 -6 -42 30 -101 22 -36 63 -97 90 -136 75 -104 97 -151 83
-175 -7 -10 -9 -31 -6 -47 6 -26 3 -31 -27 -43 -19 -8 -41 -26 -50 -39 -10
-15 -30 -28 -50 -32 -18 -3 -53 -22 -77 -42 -38 -29 -52 -34 -85 -32 l-41 3 2
-35 c1 -19 5 -52 9 -73 11 -64 -31 -86 -95 -50 -44 25 -46 41 -10 74 29 27 31
33 22 62 -8 28 -13 32 -42 32 -42 1 -48 -14 -32 -76 16 -62 8 -85 -31 -93 -65
-13 -106 56 -58 97 19 16 19 23 3 65 -3 9 -5 25 -4 35 1 9 -1 17 -6 18 -7 1
-85 5 -164 10 -14 0 -16 8 -12 40 5 35 4 39 -17 39 -16 0 -20 4 -16 16 3 9 9
28 12 42 3 15 17 63 31 107 34 113 60 246 79 415 14 126 32 202 69 291 3 10
-1 23 -10 33 -13 12 -15 26 -10 55 6 34 4 39 -12 38 -12 -1 -19 6 -21 21 -3
19 -8 22 -40 19 -45 -4 -81 13 -138 65 -42 38 -45 40 -62 24 -39 -35 -57 -22
-82 60 -12 41 -19 86 -16 99 16 64 191 242 286 290 l68 34 17 78 c16 73 21 82
75 135 64 63 74 86 79 176 0 17 4 32 7 32 3 0 14 -20 25 -44z"/>
<path d="M3191 2167 c-6 -8 -14 -27 -17 -44 -5 -24 -1 -33 20 -47 33 -21 46
-14 46 27 0 68 -22 96 -49 64z"/>
<path d="M3077 2034 c-81 -19 -187 -78 -187 -104 0 -10 87 -30 129 -30 41 0
91 39 117 90 35 68 37 67 -59 44z"/>
<path d="M1943 1926 c3 -8 11 -33 17 -56 12 -46 34 -60 57 -38 29 30 -24 108
-74 108 -3 0 -3 -6 0 -14z"/>
<path d="M2655 1889 c-10 -15 15 -99 29 -99 27 0 136 82 136 102 0 12 -158 10
-165 -3z"/>
<path d="M2105 1846 l-50 -12 54 -42 c45 -36 60 -42 99 -42 26 0 53 4 60 8 18
12 34 74 22 86 -15 15 -128 16 -185 2z"/>
</g>
</svg>
