<?xml version="1.0" standalone="no"?>
<!DOCTYPE svg PUBLIC "-//W3C//DTD SVG 20010904//EN"
 "http://www.w3.org/TR/2001/REC-SVG-20010904/DTD/svg10.dtd">
<svg version="1.0" xmlns="http://www.w3.org/2000/svg"
 width="480.000000pt" height="360.000000pt" viewBox="0 0 480.000000 360.000000"
 preserveAspectRatio="xMidYMid meet">
<metadata>
Created by potrace 1.16, written by Peter Selinger 2001-2019
</metadata>
<rect width="1" height="360" fill="#000000"/>
<rect x="479" width="1" height="360" fill="#000000"/>
<rect width="480" height="1" fill="#000000"/>
<rect y="359" width="480" height="1" fill="#000000"/>
<g transform="translate(0.000000,360.000000) scale(0.100000,-0.100000)"
fill="#000000" stroke="none">
<path d="M0 1800 l0 -1800 2400 0 2400 0 0 1800 0 1800 -2400 0 -2400 0 0
-1800z m2157 880 c4 -15 14 -20 42 -20 50 0 55 -7 30 -47 l-21 -34 38 6 c23 5
53 21 74 40 19 18 45 38 57 44 29 15 109 13 153 -2 38 -14 190 -125 190 -139
0 -15 -37 -8 -84 17 -60 32 -92 33 -100 3 -15 -56 -9 -65 62 -93 89 -36 137
-72 121 -91 -14 -17 -14 -18 34 -38 21 -8 36 -20 32 -26 -3 -5 3 -10 14 -10
12 0 21 -5 21 -11 0 -7 8 -18 18 -26 16 -14 16 -14 0 -9 -19 6 -34 -9 -18 -19
16 -10 12 -21 -10 -23 -42 -5 -66 -4 -89 3 -17 6 -22 5 -17 -3 9 -15 -4 -15
-39 -2 -19 7 -24 7 -19 -2 5 -8 2 -9 -12 -4 -59 24 -64 19 -41 -44 22 -63 26
-64 65 -21 38 42 89 61 98 37 3 -7 8 -41 12 -77 l7 -63 40 -7 c22 -4 69 -10
105 -13 105 -11 120 -15 120 -37 0 -15 -5 -19 -17 -15 -10 2 -43 7 -73 10
l-55 6 64 -31 63 -30 75 16 c120 24 204 29 293 15 61 -10 80 -16 76 -26 -3 -8
1 -14 9 -14 7 0 16 -13 20 -29 4 -17 14 -31 27 -34 12 -4 17 -10 13 -18 -6 -9
-1 -10 20 -5 23 6 26 4 21 -9 -5 -13 -1 -15 15 -10 13 5 19 3 15 -3 -3 -5 4
-13 17 -17 17 -5 18 -8 7 -12 -24 -9 -31 -27 -16 -38 16 -12 10 -65 -8 -65 -6
0 -6 -4 3 -9 8 -5 11 -16 7 -29 -7 -21 -33 -23 -84 -7 -16 6 -22 4 -20 -6 2
-7 -16 -22 -39 -34 -36 -18 -39 -23 -25 -32 14 -10 11 -11 -15 -8 -18 2 -43
11 -55 19 -37 26 -44 18 -12 -16 26 -28 23 -27 -26 10 -58 43 -105 56 -285 82
-44 7 -107 22 -140 35 -69 27 -72 28 -142 26 l-51 -1 14 -47 c16 -53 11 -78
-17 -93 -15 -9 -24 -6 -42 14 l-23 25 -11 -30 c-24 -62 -68 -11 -62 72 l4 44
-45 7 c-24 4 -72 3 -105 -2 -125 -20 -175 -8 -162 40 6 24 -7 34 -48 37 -16 1
-86 6 -155 12 -119 10 -276 13 -217 4 16 -3 31 -11 34 -19 3 -8 25 -19 49 -25
50 -13 57 -19 44 -39 -8 -12 -35 -6 -167 38 -159 52 -193 60 -193 43 0 -13
-27 -21 -46 -14 -8 3 -19 16 -24 28 -7 19 -19 24 -76 30 -73 8 -114 35 -114
75 0 21 3 21 83 15 45 -4 132 -13 192 -20 61 -8 206 -22 323 -31 l213 -17 29
29 c16 16 50 67 75 113 39 74 43 86 31 100 -8 9 -22 47 -32 84 -16 64 -19 69
-55 84 -50 20 -61 54 -28 89 32 35 73 32 89 -5 6 -17 9 -34 6 -39 -3 -6 6 -28
20 -51 l27 -40 24 46 c21 38 23 50 14 70 -8 18 -16 23 -30 18 -14 -4 -25 3
-41 25 -12 16 -18 34 -15 40 3 6 -2 14 -12 18 -45 18 -161 88 -186 113 -17 16
-27 35 -25 46 4 19 11 20 68 7 l35 -7 -32 37 c-35 40 -40 55 -21 74 18 18 39
14 45 -8z"/>
<path d="M2375 2040 c-10 -22 -35 -68 -56 -102 -43 -70 -48 -88 -21 -88 21 1
118 75 144 111 19 26 19 26 -9 72 -15 26 -31 47 -34 47 -3 0 -14 -18 -24 -40z"/>
<path d="M2745 1960 c-11 -17 81 -51 128 -48 l42 3 -70 28 c-77 30 -91 32
-100 17z"/>
</g>
</svg>
