<?xml version="1.0" standalone="no"?>
<!DOCTYPE svg PUBLIC "-//W3C//DTD SVG 20010904//EN"
 "http://www.w3.org/TR/2001/REC-SVG-20010904/DTD/svg10.dtd">
<svg version="1.0" xmlns="http://www.w3.org/2000/svg"
 width="480.000000pt" height="360.000000pt" viewBox="0 0 480.000000 360.000000"
 preserveAspectRatio="xMidYMid meet">
<metadata>
Created by potrace 1.16, written by Peter Selinger 2001-2019
</metadata>
<rect width="1" height="360" fill="#000000"/>
<rect x="479" width="1" height="360" fill="#000000"/>
<rect width="480" height="1" fill="#000000"/>
<rect y="359" width="480" height="1" fill="#000000"/>
<g transform="translate(0.000000,360.000000) scale(0.100000,-0.100000)"
fill="#000000" stroke="none">
<path d="M3220 3471 c-142 -54 -137 -50 -145 -129 -4 -38 -10 -74 -14 -81 -5
-7 -39 -21 -77 -31 -98 -25 -132 -41 -192 -91 -58 -47 -136 -145 -158 -195 -7
-17 -17 -58 -23 -90 -5 -33 -12 -72 -16 -89 l-7 -30 22 25 22 25 -6 -25 c-14
-56 -19 -150 -8 -150 6 0 12 8 15 18 2 9 8 -2 12 -26 6 -36 11 -43 26 -39 14
4 19 0 19 -15 0 -10 4 -17 9 -14 10 6 35 -20 44 -47 5 -13 -4 -24 -33 -42 -22
-14 -40 -31 -40 -39 0 -7 16 -27 36 -45 29 -27 34 -37 29 -60 -4 -20 0 -32 15
-46 11 -10 20 -24 20 -32 0 -7 4 -21 10 -31 5 -9 14 -36 20 -59 12 -49 31 -58
98 -47 92 15 101 13 112 -26 6 -19 10 -58 10 -86 0 -50 -1 -53 -52 -92 -29
-23 -73 -61 -98 -86 -25 -27 -53 -46 -66 -46 -41 0 -104 -70 -104 -116 0 -9
-20 -38 -44 -65 -45 -51 -60 -93 -51 -145 5 -21 -5 -56 -35 -124 -48 -111 -81
-234 -73 -271 12 -62 -19 -33 -73 68 -31 60 -73 135 -92 167 -28 48 -38 78
-48 151 -7 50 -19 110 -27 133 -8 23 -12 44 -8 46 3 2 44 7 91 11 383 29 403
48 65 61 l-180 7 -42 37 c-55 48 -151 77 -167 51 -4 -5 -24 -12 -46 -16 -26
-4 -48 -16 -62 -35 -34 -42 -79 -60 -143 -59 -73 2 -92 -15 -42 -36 20 -8 50
-15 67 -15 27 0 33 -6 58 -57 23 -50 31 -58 57 -61 30 -3 33 -7 112 -132 12
-20 33 -74 47 -120 14 -47 45 -132 71 -189 25 -57 44 -106 41 -108 -13 -13
-73 38 -111 92 -24 33 -60 74 -82 90 -159 119 -196 160 -367 405 l-168 240
-44 0 c-38 0 -46 4 -56 25 -12 28 -16 29 -38 15 -9 -5 -19 -5 -26 1 -8 7 -17
-3 -29 -33 -9 -24 -23 -50 -31 -59 -16 -17 -18 -13 158 -264 57 -80 66 -100
62 -124 -5 -21 3 -50 26 -99 18 -39 30 -76 28 -84 -9 -25 64 -201 94 -225 7
-6 36 -16 64 -21 29 -6 67 -20 85 -31 19 -11 83 -38 144 -61 132 -49 148 -59
181 -112 15 -23 45 -58 68 -79 38 -34 236 -181 299 -222 42 -27 43 -43 4 -86
-51 -56 -58 -111 -23 -187 14 -31 26 -69 26 -85 l0 -29 630 0 630 0 0 33 c0
51 -102 187 -141 187 -20 0 -22 7 -50 190 -14 92 -23 206 -24 313 -4 178 -11
208 -55 222 -13 4 -20 15 -20 31 0 30 1 30 46 -1 32 -22 48 -25 122 -25 79 0
84 1 79 20 -5 18 0 20 53 20 56 0 82 11 60 25 -24 15 -6 23 63 30 l74 6 18 52
c31 88 55 103 56 35 0 -24 4 -51 8 -61 6 -17 9 -16 21 10 l14 28 4 -29 c2 -15
-1 -40 -7 -55 -6 -14 -15 -57 -21 -96 -6 -38 -13 -82 -15 -97 -6 -37 7 -35 28
5 21 37 76 101 83 94 3 -2 0 -17 -6 -32 -14 -36 -39 -265 -30 -270 4 -2 13 8
21 22 13 24 14 16 19 -98 l5 -124 39 53 c21 29 40 51 43 48 2 -2 0 -21 -6 -42
-17 -65 -25 -164 -13 -164 6 0 35 23 65 50 l55 50 -14 -62 c-37 -157 -37 -154
4 -115 l24 22 -7 -30 c-4 -16 -9 -38 -12 -47 -7 -26 8 -22 34 10 l22 27 1 -25
c1 -17 9 -3 24 40 45 129 85 182 54 72 -10 -37 -25 -112 -33 -167 -9 -55 -17
-112 -20 -127 l-4 -27 208 -1 209 -1 7 63 c4 35 9 410 11 835 l5 772 -23 14
c-13 8 -67 39 -120 71 -228 133 -412 306 -553 519 l-39 58 -26 -58 c-15 -32
-34 -64 -43 -72 -10 -7 -38 -45 -63 -82 -25 -38 -49 -69 -54 -69 -12 0 -20 28
-10 32 6 2 1 32 -11 68 -49 158 -51 181 -25 345 36 226 29 276 -64 469 -51
105 -68 131 -133 194 -41 41 -79 77 -86 81 -9 6 -9 19 -2 52 11 49 8 57 -52
121 -34 36 -144 99 -169 97 -7 -1 -56 -18 -108 -38z m639 -1447 c-14 -18 -24
-11 -15 11 3 9 11 13 16 10 8 -5 7 -11 -1 -21z m-233 -196 c16 -32 16 -32 -17
-60 -38 -31 -49 -34 -49 -14 0 28 13 46 32 46 17 0 20 5 15 30 -8 39 -2 38 19
-2z m-122 -135 c-18 -13 -19 -12 -22 23 -5 60 7 75 26 30 14 -37 14 -40 -4
-53z m396 -604 c0 -19 -1 -19 -26 -2 -24 15 -25 17 -8 24 25 9 34 2 34 -22z
m-486 -431 c18 -141 21 -267 7 -253 -5 6 -24 47 -41 93 -34 90 -35 111 -8 256
15 78 23 58 42 -96z"/>
</g>
</svg>
