<?xml version="1.0" standalone="no"?>
<!DOCTYPE svg PUBLIC "-//W3C//DTD SVG 20010904//EN"
 "http://www.w3.org/TR/2001/REC-SVG-20010904/DTD/svg10.dtd">
<svg version="1.0" xmlns="http://www.w3.org/2000/svg"
 width="480.000000pt" height="360.000000pt" viewBox="0 0 480.000000 360.000000"
 preserveAspectRatio="xMidYMid meet">
<metadata>
Created by potrace 1.16, written by Peter Selinger 2001-2019
</metadata>
<rect width="1" height="360" fill="#000000"/>
<rect x="479" width="1" height="360" fill="#000000"/>
<rect width="480" height="1" fill="#000000"/>
<rect y="359" width="480" height="1" fill="#000000"/>
<g transform="translate(0.000000,360.000000) scale(0.100000,-0.100000)"
fill="#000000" stroke="none">
<path d="M1604 3413 c0 -272 -25 -385 -135 -608 -53 -108 -137 -227 -222 -314
-77 -80 -232 -200 -297 -232 -32 -15 -61 -33 -65 -38 -3 -6 -38 -20 -78 -32
-40 -12 -76 -25 -82 -29 -23 -18 -192 -52 -302 -61 -138 -11 -314 0 -406 27
-16 5 -17 -50 -17 -1060 l0 -1066 1535 0 1535 0 0 28 c0 15 9 72 19 127 11 55
25 138 31 184 6 46 32 152 57 235 53 181 74 276 108 501 14 94 36 216 50 272
17 70 22 110 16 125 -5 13 -12 60 -16 106 -7 83 -7 83 -45 107 -49 31 -70 61
-70 100 0 36 37 118 72 160 13 17 32 59 42 95 12 47 27 75 53 102 35 36 36 38
19 57 -17 19 -17 20 3 31 12 6 21 15 21 21 0 5 -14 2 -31 -6 -30 -16 -31 -16
-84 29 -29 25 -58 46 -64 46 -14 0 -14 13 0 27 21 21 2 43 -37 43 -26 0 -43 7
-60 25 -13 14 -24 28 -24 30 0 3 0 9 0 15 0 5 -6 7 -13 4 -11 -4 -12 7 -5 58
4 35 11 70 13 79 4 11 -16 38 -55 78 -45 46 -60 69 -60 90 0 17 6 31 16 35 9
3 123 6 253 6 l238 0 61 -31 c77 -38 136 -110 181 -219 18 -43 48 -96 67 -117
71 -77 113 -194 114 -315 0 -37 10 -83 29 -135 58 -155 65 -195 52 -288 -7
-46 -10 -102 -6 -124 4 -24 1 -62 -9 -98 -8 -32 -17 -102 -20 -156 -4 -84 -9
-107 -37 -165 -23 -48 -33 -62 -37 -48 -3 14 -6 16 -12 6 -9 -14 55 -210 114
-350 20 -46 75 -156 123 -245 124 -228 166 -317 203 -427 l32 -98 214 0 214 0
0 1800 0 1800 -1598 0 -1597 0 -1 -187z"/>
<path d="M3968 1533 c-6 -28 3 -73 14 -73 6 0 8 18 5 40 -5 46 -13 60 -19 33z"/>
</g>
</svg>
