<?xml version="1.0" standalone="no"?>
<!DOCTYPE svg PUBLIC "-//W3C//DTD SVG 20010904//EN"
 "http://www.w3.org/TR/2001/REC-SVG-20010904/DTD/svg10.dtd">
<svg version="1.0" xmlns="http://www.w3.org/2000/svg"
 width="480.000000pt" height="360.000000pt" viewBox="0 0 480.000000 360.000000"
 preserveAspectRatio="xMidYMid meet">
<metadata>
Created by potrace 1.16, written by Peter Selinger 2001-2019
</metadata>
<rect width="1" height="360" fill="#000000"/>
<rect x="479" width="1" height="360" fill="#000000"/>
<rect width="480" height="1" fill="#000000"/>
<rect y="359" width="480" height="1" fill="#000000"/>
<g transform="translate(0.000000,360.000000) scale(0.100000,-0.100000)"
fill="#000000" stroke="none">
<path d="M0 1800 l0 -1800 994 0 994 0 6 37 c3 21 8 72 11 113 3 41 18 138 32
215 22 123 24 148 14 207 -14 85 -14 138 0 194 9 36 8 55 -6 105 -9 34 -14 71
-12 83 3 11 2 50 -1 86 -6 57 -9 65 -27 63 -11 -2 -85 -8 -164 -14 -82 -6
-181 -20 -230 -33 -60 -15 -96 -20 -116 -14 -27 7 -34 3 -87 -56 -33 -37 -79
-75 -112 -92 -54 -28 -55 -28 -76 -9 -17 16 -24 17 -40 7 -26 -16 -35 -15 -55
4 -13 13 -20 14 -44 4 -23 -9 -34 -9 -53 1 -12 8 -36 14 -53 14 -23 0 -31 5
-33 21 -2 15 16 35 73 78 74 57 165 149 165 167 0 17 -50 29 -91 23 -31 -5
-40 -3 -45 10 -4 10 -2 22 3 27 14 14 215 49 278 49 29 0 59 6 71 15 10 8 27
15 37 15 10 0 29 7 43 16 22 15 36 16 130 4 101 -12 256 -7 281 8 14 9 51 164
52 217 2 114 19 184 59 247 44 71 77 167 62 182 -23 23 -9 58 48 114 31 31 69
66 84 77 15 11 29 34 33 52 l6 33 -47 -22 -48 -21 -26 30 c-14 17 -37 38 -52
48 -16 9 -28 24 -28 32 0 8 -16 21 -35 29 -19 8 -35 17 -35 20 0 2 10 18 22
34 l22 30 -24 26 c-19 20 -33 25 -62 22 -32 -2 -43 3 -69 31 -16 18 -33 46
-36 62 -6 32 -18 37 -27 13 -4 -9 -9 -15 -11 -12 -6 6 17 101 52 215 23 76 30
87 85 137 l60 55 -16 62 c-8 34 -13 65 -11 69 10 16 122 22 143 9 12 -7 24
-11 27 -7 3 3 10 34 16 69 5 35 15 81 20 103 l10 38 28 -26 28 -27 31 51 c17
27 35 50 41 50 15 0 113 -106 153 -168 50 -74 66 -109 74 -161 5 -31 13 -45
33 -56 55 -28 114 -112 162 -227 42 -102 76 -250 108 -473 16 -110 37 -218 47
-240 88 -210 165 -474 180 -624 6 -65 5 -74 -9 -68 -12 4 -17 -4 -22 -36 -4
-23 -11 -49 -16 -59 -6 -10 -3 -32 6 -58 23 -66 19 -98 -33 -236 -55 -146 -74
-212 -97 -333 -8 -47 -22 -92 -31 -102 -19 -21 -33 -195 -34 -406 l0 -143 995
0 995 0 0 1800 0 1800 -2400 0 -2400 0 0 -1800z"/>
<path d="M2066 1162 c-5 -8 11 -102 19 -110 3 -3 5 22 5 56 0 55 -10 77 -24
54z"/>
</g>
</svg>
