<?xml version="1.0" standalone="no"?>
<!DOCTYPE svg PUBLIC "-//W3C//DTD SVG 20010904//EN"
 "http://www.w3.org/TR/2001/REC-SVG-20010904/DTD/svg10.dtd">
<svg version="1.0" xmlns="http://www.w3.org/2000/svg"
 width="480.000000pt" height="360.000000pt" viewBox="0 0 480.000000 360.000000"
 preserveAspectRatio="xMidYMid meet">
<metadata>
Created by potrace 1.16, written by Peter Selinger 2001-2019
</metadata>
<rect width="1" height="360" fill="#000000"/>
<rect x="479" width="1" height="360" fill="#000000"/>
<rect width="480" height="1" fill="#000000"/>
<rect y="359" width="480" height="1" fill="#000000"/>
<g transform="translate(0.000000,360.000000) scale(0.100000,-0.100000)"
fill="#000000" stroke="none">
<path d="M2077 2944 c-30 -16 -51 -18 -148 -8 -52 5 -74 2 -103 -11 -46 -22
-118 -93 -139 -137 -9 -18 -38 -71 -66 -118 -104 -173 -140 -337 -148 -670 -4
-155 -2 -232 4 -225 6 6 23 43 38 83 16 39 32 72 37 72 9 0 2 -98 -12 -177 -4
-24 -5 -43 -1 -43 4 0 19 26 34 58 l27 57 -4 -112 c-3 -62 -3 -113 0 -113 3 0
16 27 31 60 18 43 31 60 44 60 12 0 19 -7 19 -19 0 -11 5 -23 11 -27 8 -5 9
-28 5 -73 -13 -116 -13 -115 12 -126 19 -8 22 -17 22 -68 l0 -59 -28 7 c-35 7
-90 -11 -75 -26 5 -5 29 -13 54 -17 l44 -8 -3 -169 c-3 -139 -9 -197 -33 -320
-17 -82 -36 -215 -44 -295 -9 -103 -20 -166 -39 -219 -22 -62 -66 -258 -66
-292 0 -5 162 -9 421 -9 l422 0 -6 48 c-25 197 -29 274 -19 295 7 12 16 35 22
51 6 16 14 25 19 20 4 -5 26 -60 47 -123 21 -62 59 -152 84 -200 l46 -86 235
-3 236 -2 114 79 114 80 6 -28 c15 -73 39 -67 39 9 0 33 3 60 8 60 4 0 15 -14
24 -30 20 -36 43 -41 32 -7 -3 12 -11 28 -16 34 -7 9 -5 24 6 47 14 29 15 46
6 108 -27 194 -148 534 -268 756 -24 46 -43 84 -41 86 2 1 32 7 66 14 35 6 75
17 90 24 39 18 80 85 99 159 33 125 15 193 -62 236 -28 16 -38 28 -36 43 3 22
-14 28 -20 8 -3 -9 -25 -12 -75 -10 -94 5 -123 -11 -153 -80 -25 -59 -31 -149
-12 -185 10 -19 9 -25 -8 -41 -13 -12 -30 -17 -45 -14 -26 5 -73 -21 -265
-147 -63 -42 -118 -77 -121 -79 -4 -2 -21 16 -39 38 -24 30 -36 60 -46 112
-16 84 -57 176 -114 255 -22 31 -40 65 -40 76 0 12 -9 30 -20 42 -19 20 -19
25 -6 99 7 42 18 82 25 89 6 6 11 30 11 53 0 22 3 62 6 87 6 40 10 47 35 52
33 7 35 13 14 41 -17 22 -19 53 -5 74 8 12 12 12 18 2 7 -9 18 -5 48 18 21 17
40 27 42 21 7 -21 40 -11 46 13 3 13 17 31 31 40 14 9 25 26 25 37 0 15 4 19
16 15 12 -5 15 -2 9 11 -4 10 -13 54 -21 98 -20 113 -39 174 -69 217 l-25 37
20 38 c33 61 27 83 -38 145 -68 65 -112 82 -196 76 -56 -5 -64 -3 -94 23 -37
33 -55 35 -95 13z m40 -1076 c7 -23 10 -44 8 -46 -2 -2 -17 4 -35 13 -25 13
-30 20 -25 38 4 12 9 30 12 41 7 26 24 6 40 -46z"/>
</g>
</svg>
