<?xml version="1.0" standalone="no"?>
<!DOCTYPE svg PUBLIC "-//W3C//DTD SVG 20010904//EN"
 "http://www.w3.org/TR/2001/REC-SVG-20010904/DTD/svg10.dtd">
<svg version="1.0" xmlns="http://www.w3.org/2000/svg"
 width="480.000000pt" height="360.000000pt" viewBox="0 0 480.000000 360.000000"
 preserveAspectRatio="xMidYMid meet">
<metadata>
Created by potrace 1.16, written by Peter Selinger 2001-2019
</metadata>
<rect width="1" height="360" fill="#000000"/>
<rect x="479" width="1" height="360" fill="#000000"/>
<rect width="480" height="1" fill="#000000"/>
<rect y="359" width="480" height="1" fill="#000000"/>
<g transform="translate(0.000000,360.000000) scale(0.100000,-0.100000)"
fill="#000000" stroke="none">
<path d="M0 1800 l0 -1800 925 0 c509 0 925 2 925 5 0 3 -12 33 -26 68 -31 77
-42 151 -24 172 7 9 16 65 21 134 6 97 15 142 48 242 22 68 45 147 51 174 6
28 22 89 37 138 25 82 25 88 9 100 -17 12 -17 17 -2 74 24 92 49 383 33 383
-4 0 -17 -15 -28 -34 -18 -31 -25 -34 -84 -41 -50 -5 -69 -3 -88 9 -50 33 -49
49 9 222 30 87 54 164 54 170 0 7 -12 15 -26 18 l-27 7 28 29 c16 17 27 31 24
33 -2 2 -56 22 -119 45 -63 22 -122 43 -130 46 -11 5 -19 -3 -29 -29 -7 -19
-15 -35 -19 -35 -11 0 -85 72 -104 100 -13 20 -19 23 -29 13 -7 -7 -25 -13
-40 -13 -15 0 -32 -6 -38 -14 -31 -37 -77 -20 -87 34 -6 26 -7 27 -82 26 -77
-1 -89 2 -247 63 -27 10 -54 27 -60 37 -5 10 -17 24 -25 31 -13 12 -13 14 2
23 9 6 15 17 12 24 -5 14 23 26 62 26 12 0 28 7 35 16 12 14 32 16 152 12
l138 -5 26 33 c15 20 34 34 47 34 31 0 135 -52 141 -71 9 -27 57 -42 98 -31
49 14 87 4 98 -24 11 -30 26 -37 178 -74 69 -17 134 -36 145 -42 23 -12 208
-29 217 -19 12 12 19 76 10 90 -8 12 -12 12 -25 2 -18 -15 -20 -8 -6 18 5 10
14 52 20 92 6 41 15 86 20 102 10 30 -3 38 -18 11 -13 -24 -32 -8 -32 27 0 16
-6 32 -13 35 -19 7 -9 119 16 172 11 23 44 65 75 92 l55 49 -11 39 c-17 57
-15 79 10 96 30 21 94 21 106 0 7 -13 11 -10 22 18 7 18 20 41 28 50 13 16 17
16 63 -8 39 -19 49 -29 49 -49 0 -30 9 -31 44 -4 33 26 53 19 64 -23 8 -32 10
-33 64 -36 52 -3 57 -5 86 -46 23 -32 32 -58 38 -106 7 -65 34 -108 74 -122
13 -4 13 -7 1 -22 -11 -13 -12 -22 -2 -42 18 -41 13 -96 -25 -241 -33 -130
-36 -161 -18 -207 6 -16 4 -18 -14 -14 -16 5 -22 2 -22 -10 -1 -15 -2 -15 -14
1 -19 25 -24 22 -32 -18 -3 -19 -11 -38 -17 -42 -6 -4 -8 3 -3 21 12 50 -10
26 -29 -31 l-19 -58 -6 35 c-7 36 -40 104 -40 83 0 -6 -5 -24 -11 -40 -6 -15
-12 -86 -13 -158 -3 -142 -7 -161 -88 -420 -27 -88 -52 -185 -55 -216 -5 -52
-4 -58 18 -69 13 -7 42 -29 64 -50 22 -20 57 -47 79 -59 21 -12 71 -46 111
-76 l72 -55 11 -81 c8 -64 7 -90 -3 -119 -19 -53 -61 -117 -89 -135 l-23 -16
47 -187 c27 -103 54 -231 60 -284 l12 -98 954 0 954 0 0 1800 0 1800 -2400 0
-2400 0 0 -1800z"/>
<path d="M2257 2173 c-24 -47 -31 -77 -16 -68 6 5 29 7 51 7 42 -2 50 16 23
52 -15 20 -15 20 -30 0 -15 -18 -15 -18 -9 9 3 15 4 27 0 27 -3 0 -12 -12 -19
-27z"/>
</g>
</svg>
