<?xml version="1.0" standalone="no"?>
<!DOCTYPE svg PUBLIC "-//W3C//DTD SVG 20010904//EN"
 "http://www.w3.org/TR/2001/REC-SVG-20010904/DTD/svg10.dtd">
<svg version="1.0" xmlns="http://www.w3.org/2000/svg"
 width="480.000000pt" height="360.000000pt" viewBox="0 0 480.000000 360.000000"
 preserveAspectRatio="xMidYMid meet">
<metadata>
Created by potrace 1.16, written by Peter Selinger 2001-2019
</metadata>
<rect width="1" height="360" fill="#000000"/>
<rect x="479" width="1" height="360" fill="#000000"/>
<rect width="480" height="1" fill="#000000"/>
<rect y="359" width="480" height="1" fill="#000000"/>
<g transform="translate(0.000000,360.000000) scale(0.100000,-0.100000)"
fill="#000000" stroke="none">
<path d="M0 1800 l0 -1800 567 0 566 0 -22 24 c-12 13 -48 31 -79 40 -181 54
-192 59 -214 89 -28 38 -86 64 -171 72 -70 8 -111 29 -122 64 -3 10 -28 30
-55 45 -34 19 -50 34 -50 47 0 11 23 44 50 74 37 38 53 64 57 91 8 51 34 87
91 126 60 42 109 64 186 84 97 25 343 133 422 186 107 72 368 338 345 352 -15
10 -24 78 -11 86 9 6 2 26 -24 72 -20 36 -36 78 -36 94 0 34 20 143 56 304 19
87 25 136 23 207 -2 51 0 96 4 99 4 4 7 15 7 25 0 16 -4 17 -26 9 -14 -6 -32
-10 -41 -10 -14 0 -14 3 2 20 18 20 17 20 -11 20 -54 0 -75 10 -68 33 5 17 3
19 -18 14 -18 -5 -28 0 -42 18 -10 14 -22 22 -27 19 -8 -5 -14 24 -10 54 3 19
-19 14 -25 -6 -26 -88 -77 -135 -169 -157 -31 -7 -61 -17 -66 -22 -5 -5 -13
-33 -19 -63 -17 -92 -60 -133 -160 -153 l-65 -14 -10 -63 c-12 -76 -38 -100
-114 -108 -28 -2 -54 -9 -58 -15 -3 -6 -7 -29 -7 -51 -1 -40 -2 -41 -34 -40
-17 1 -32 -3 -32 -9 0 -6 -11 0 -24 12 -29 27 -60 108 -81 206 -17 83 -21 336
-5 414 28 146 88 302 172 450 51 89 54 97 38 103 -18 6 -23 71 -7 93 12 16 17
17 30 6 9 -7 17 -24 19 -39 3 -24 6 -22 45 31 24 31 43 60 43 64 0 4 -27 35
-61 68 -34 33 -80 82 -102 110 -39 47 -40 49 -12 31 25 -16 108 -80 125 -96 3
-3 24 -22 46 -43 l41 -38 69 57 c307 254 653 376 970 344 152 -16 233 -36 267
-68 32 -31 35 -42 7 -35 -21 5 -25 -8 -20 -64 3 -45 -17 -63 -71 -63 -44 0
-51 -3 -59 -26 -6 -14 -10 -45 -10 -69 0 -65 -38 -104 -110 -116 -62 -10 -67
-14 -76 -56 -6 -29 -4 -31 39 -46 25 -8 71 -34 102 -57 48 -36 63 -55 97 -126
38 -80 40 -87 29 -124 -6 -21 -25 -53 -42 -69 -33 -33 -55 -41 -45 -16 3 8 2
15 -3 15 -20 0 -55 -137 -45 -176 6 -25 5 -25 -16 -12 -16 9 -24 10 -27 2 -2
-6 -11 -20 -19 -30 -15 -18 -15 -18 -11 2 4 20 3 21 -25 6 -24 -12 -32 -12
-38 -2 -11 18 -40 5 -40 -18 0 -23 24 -46 42 -39 18 6 48 -11 48 -27 0 -7 56
-66 124 -132 126 -122 136 -137 136 -214 0 -34 78 -110 113 -110 14 0 38 -15
60 -37 19 -21 48 -46 62 -56 15 -11 24 -25 21 -33 -7 -18 32 -44 66 -44 35 0
58 33 58 84 0 34 -6 45 -46 82 -31 28 -45 48 -41 58 17 44 113 -12 143 -83 19
-45 17 -78 -6 -128 -33 -75 -119 -106 -173 -63 -32 26 -39 25 -66 -4 -13 -14
-36 -30 -51 -36 -15 -6 -30 -20 -33 -31 -3 -10 -14 -19 -25 -19 -10 0 -27 -9
-36 -19 -10 -11 -31 -23 -47 -26 -16 -4 -29 -12 -29 -18 0 -14 26 -265 40
-387 6 -47 15 -233 20 -413 5 -180 12 -332 15 -338 4 -5 6 -63 6 -129 l0 -120
1310 0 1309 0 0 1800 0 1800 -2400 0 -2400 0 0 -1800z m2532 1765 c-8 -44 -71
-83 -95 -58 -8 8 18 52 42 71 24 19 57 11 53 -13z m148 -169 c0 -26 -39 -82
-40 -57 0 22 23 81 32 81 4 0 8 -11 8 -24z m-1653 -18 c-21 -7 -32 -7 -40 1
-8 8 0 11 29 10 39 -1 39 -1 11 -11z m1548 -40 c27 -12 32 -23 15 -33 -16 -10
-80 15 -80 31 0 17 30 18 65 2z m45 -583 c26 -13 50 -42 50 -59 0 -10 -47 -7
-76 4 -29 11 -53 37 -54 58 0 17 45 15 80 -3z m1422 -391 c38 -20 30 -27 -55
-49 -56 -15 -74 -16 -107 -6 -47 14 -44 26 14 52 50 23 107 24 148 3z m221
-110 c21 -3 36 -8 34 -11 -10 -10 -197 -8 -198 2 -1 23 54 25 164 9z m-1459
-200 c24 -9 19 -24 -8 -24 -31 0 -56 10 -56 21 0 10 40 12 64 3z m1191 -159
c0 -12 -50 -19 -73 -10 -14 5 -14 7 -2 16 19 12 75 7 75 -6z m-712 -52 c14
-25 17 -43 12 -73 -8 -48 -19 -50 -45 -7 -26 42 -28 120 -3 115 9 -2 25 -18
36 -35z m-87 -237 c-8 -26 -10 -50 -5 -57 14 -22 10 -33 -6 -19 -13 10 -19 10
-33 -4 -23 -20 -28 -20 -36 0 -8 20 23 116 35 108 5 -3 17 0 26 5 30 17 33 13
19 -33z m-2925 -32 c15 -28 13 -77 -3 -108 -24 -45 -60 52 -39 107 13 34 24
34 42 1z m4349 -9 c6 -8 10 -21 8 -29 -2 -11 -8 -7 -20 14 -18 31 -10 41 12
15z m-1946 -161 c13 -33 5 -65 -25 -99 -17 -19 -35 -35 -40 -35 -20 0 -8 71
19 109 30 45 37 48 46 25z m1380 -58 c32 -18 54 -36 49 -39 -15 -10 -93 12
-124 35 -66 49 -9 52 75 4z m-3293 -203 c38 -23 37 -40 -3 -46 -22 -3 -44 2
-65 15 -39 23 -40 26 -10 38 33 13 46 12 78 -7z m176 -167 c15 -13 25 -27 21
-31 -3 -3 -21 7 -40 24 -39 36 -22 42 19 7z m2325 -93 c10 -9 18 -20 18 -25 0
-14 -22 -9 -36 10 -25 33 -13 44 18 15z m-512 -117 c0 -30 -108 -56 -167 -40
-36 10 -27 20 30 32 106 24 137 26 137 8z m1728 -242 c39 -33 42 -39 42 -85 0
-27 -4 -49 -8 -49 -4 0 -25 18 -46 39 -30 31 -39 49 -43 85 -3 26 -1 46 4 46
5 0 28 -16 51 -36z m-215 -29 c41 -17 67 -49 67 -82 0 -27 -13 -28 -60 -5 -36
18 -66 63 -56 88 7 17 6 17 49 -1z m-4083 -324 c-5 -11 -15 -23 -20 -26 -14
-9 -12 19 2 33 19 19 30 14 18 -7z"/>
<path d="M2112 1719 c-17 -72 -16 -81 10 -77 41 6 49 128 8 128 -3 0 -12 -23
-18 -51z"/>
</g>
</svg>
