<?xml version="1.0" standalone="no"?>
<!DOCTYPE svg PUBLIC "-//W3C//DTD SVG 20010904//EN"
 "http://www.w3.org/TR/2001/REC-SVG-20010904/DTD/svg10.dtd">
<svg version="1.0" xmlns="http://www.w3.org/2000/svg"
 width="480.000000pt" height="360.000000pt" viewBox="0 0 480.000000 360.000000"
 preserveAspectRatio="xMidYMid meet">
<metadata>
Created by potrace 1.16, written by Peter Selinger 2001-2019
</metadata>
<rect width="1" height="360" fill="#000000"/>
<rect x="479" width="1" height="360" fill="#000000"/>
<rect width="480" height="1" fill="#000000"/>
<rect y="359" width="480" height="1" fill="#000000"/>
<g transform="translate(0.000000,360.000000) scale(0.100000,-0.100000)"
fill="#000000" stroke="none">
<path d="M0 1800 l0 -1800 868 0 869 0 -1 22 c-1 16 11 28 39 44 64 37 213 82
309 93 49 6 91 13 94 16 3 2 -3 38 -12 79 l-18 74 -61 -18 c-34 -10 -118 -34
-187 -54 -237 -70 -294 -70 -344 -2 -70 94 -62 195 34 449 25 66 30 91 22 99
-21 21 -13 47 34 125 l46 77 -12 52 c-24 100 18 186 172 349 104 109 141 132
250 155 47 9 59 16 62 33 13 62 28 455 18 473 -6 11 -18 70 -28 132 -14 92
-15 124 -6 175 7 34 13 71 14 82 3 17 -8 21 -112 36 -63 9 -134 22 -158 28
-24 7 -62 9 -86 6 -25 -4 -46 -3 -50 3 -9 15 46 84 149 188 l93 94 -66 64
c-81 79 -79 91 17 100 39 4 73 11 76 16 3 6 -2 70 -11 144 -24 190 -9 211 72
104 26 -35 69 -88 94 -118 25 -30 56 -69 68 -87 l22 -32 38 17 c32 15 78 17
362 17 342 0 411 -7 445 -45 16 -18 20 -18 46 -5 15 8 34 15 41 15 7 0 48 44
90 98 42 53 89 108 104 122 l27 25 -6 -35 c-3 -19 -11 -85 -18 -147 -11 -106
-11 -113 10 -155 11 -24 21 -53 21 -64 0 -33 12 -40 125 -73 132 -38 187 -60
182 -75 -2 -6 -65 -32 -141 -58 -94 -32 -132 -48 -118 -52 11 -4 27 -15 37
-26 14 -15 15 -23 6 -34 -16 -19 -126 -44 -229 -52 -45 -3 -84 -10 -87 -14 -3
-5 2 -25 12 -45 15 -31 15 -45 6 -103 -8 -46 -9 -119 -2 -237 5 -93 9 -264 9
-379 l1 -209 29 -36 c25 -32 79 -144 145 -301 47 -113 41 -185 -21 -267 -23
-30 -24 -35 -13 -78 9 -37 9 -58 -1 -100 -11 -44 -11 -71 0 -147 7 -51 14
-110 16 -132 3 -48 8 -54 73 -66 29 -5 57 -12 62 -15 26 -16 -1 -128 -47 -198
-22 -34 -24 -45 -18 -93 l6 -54 669 0 669 0 0 1800 0 1800 -2400 0 -2400 0 0
-1800z"/>
<path d="M2091 831 c-17 -31 -60 -155 -56 -159 2 -3 25 -1 50 2 l45 7 0 85 c0
67 -3 84 -15 84 -8 0 -19 -9 -24 -19z"/>
</g>
</svg>
