<?xml version="1.0" standalone="no"?>
<!DOCTYPE svg PUBLIC "-//W3C//DTD SVG 20010904//EN"
 "http://www.w3.org/TR/2001/REC-SVG-20010904/DTD/svg10.dtd">
<svg version="1.0" xmlns="http://www.w3.org/2000/svg"
 width="480.000000pt" height="360.000000pt" viewBox="0 0 480.000000 360.000000"
 preserveAspectRatio="xMidYMid meet">
<metadata>
Created by potrace 1.16, written by Peter Selinger 2001-2019
</metadata>
<rect width="1" height="360" fill="#000000"/>
<rect x="479" width="1" height="360" fill="#000000"/>
<rect width="480" height="1" fill="#000000"/>
<rect y="359" width="480" height="1" fill="#000000"/>
<g transform="translate(0.000000,360.000000) scale(0.100000,-0.100000)"
fill="#000000" stroke="none">
<path d="M1028 3582 c-7 -10 -48 -35 -91 -56 -64 -32 -80 -36 -92 -26 -21 17
-24 12 -29 -49 -5 -58 -19 -81 -47 -81 -25 0 -24 -8 6 -53 25 -35 23 -51 -3
-25 -7 7 -12 8 -12 2 0 -6 31 -44 70 -85 38 -40 73 -84 76 -96 3 -12 -1 -44
-10 -70 -26 -74 -32 -247 -11 -306 9 -27 15 -50 13 -52 -2 -2 -81 -42 -177
-89 -165 -82 -175 -86 -192 -70 -11 10 -19 21 -19 25 0 5 -17 24 -37 44 -50
45 -102 47 -188 7 -33 -16 -78 -32 -100 -36 -22 -4 -51 -16 -66 -27 -15 -10
-32 -19 -37 -19 -6 0 -13 -9 -17 -20 -3 -10 -19 -30 -36 -44 -29 -25 -29 -25
-28 -128 1 -87 5 -110 26 -151 13 -26 31 -51 39 -54 8 -3 29 -33 46 -67 16
-33 36 -68 43 -76 6 -8 22 -44 35 -80 13 -36 30 -76 37 -90 7 -14 13 -30 13
-37 0 -23 60 -62 107 -69 93 -14 184 31 391 192 48 37 66 38 139 3 100 -47
146 -96 204 -218 l49 -103 -6 -82 c-6 -73 -4 -84 15 -108 12 -15 28 -25 35
-22 17 7 41 -45 26 -60 -5 -5 -10 -22 -10 -38 0 -18 -15 -44 -44 -77 -55 -62
-103 -146 -160 -282 -150 -358 -240 -517 -384 -673 -53 -58 -114 -140 -166
-224 -6 -9 163 -12 807 -12 l815 0 -5 47 c-2 27 -11 102 -19 168 -16 122 -31
259 -59 530 -19 180 -47 302 -85 371 -17 30 -29 69 -31 96 -3 41 1 51 34 87
20 23 37 51 37 63 0 43 -41 385 -56 473 -9 50 -27 116 -40 147 -29 70 -29 75
-4 83 26 8 79 62 91 92 5 13 21 28 36 35 107 43 123 57 161 140 16 35 40 73
53 84 41 32 68 79 83 144 8 34 21 67 30 73 18 14 36 59 36 91 0 28 -55 106
-75 106 -8 0 -24 13 -36 30 -28 37 -45 43 -72 25 -12 -8 -41 -17 -64 -21 -41
-6 -42 -6 -57 30 -14 34 -18 36 -61 36 -55 0 -112 -24 -120 -51 -7 -22 -35
-26 -35 -5 0 8 8 22 17 31 21 22 6 49 -30 53 -18 2 -24 8 -20 18 3 8 10 14 16
14 11 0 138 60 147 70 5 5 121 63 130 65 5 1 202 99 280 140 25 13 101 50 170
83 130 62 175 97 164 125 -3 10 -12 17 -19 17 -6 0 -20 9 -30 20 -19 21 -50
27 -60 11 -9 -15 -155 -92 -485 -257 -350 -175 -360 -180 -360 -159 0 8 6 15
14 15 7 0 16 14 20 32 3 17 13 39 20 47 19 21 33 77 17 67 -15 -10 -14 -3 5
37 16 33 16 35 -10 60 -14 14 -26 34 -26 45 0 23 -19 42 -41 42 -10 0 -20 9
-24 19 -6 19 -42 57 -100 106 l-30 25 -262 0 c-241 0 -263 -1 -275 -18z m1536
-150 c-4 -12 -12 -22 -18 -22 -6 0 -27 -11 -47 -24 -42 -29 -734 -376 -749
-376 -33 0 5 28 118 84 119 59 282 144 432 224 36 19 97 51 137 72 39 21 82
47 94 59 26 24 41 16 33 -17z m-1624 -822 c0 -4 -28 -19 -62 -34 -35 -15 -70
-31 -78 -36 -68 -43 -234 -120 -242 -112 -11 11 41 52 66 52 9 0 16 5 16 10 0
6 6 10 13 10 6 0 68 29 137 64 113 57 150 69 150 46z m-145 -139 c3 -6 -3 -15
-14 -20 -19 -11 -81 -94 -81 -110 0 -4 -18 -22 -41 -40 -22 -19 -49 -52 -59
-75 -15 -35 -95 -115 -105 -104 -7 7 -35 140 -35 167 0 34 17 47 150 111 52
25 109 53 125 63 35 19 51 21 60 8z"/>
</g>
</svg>
