<?xml version="1.0" standalone="no"?>
<!DOCTYPE svg PUBLIC "-//W3C//DTD SVG 20010904//EN"
 "http://www.w3.org/TR/2001/REC-SVG-20010904/DTD/svg10.dtd">
<svg version="1.0" xmlns="http://www.w3.org/2000/svg"
 width="480.000000pt" height="360.000000pt" viewBox="0 0 480.000000 360.000000"
 preserveAspectRatio="xMidYMid meet">
<metadata>
Created by potrace 1.16, written by Peter Selinger 2001-2019
</metadata>
<rect width="1" height="360" fill="#000000"/>
<rect x="479" width="1" height="360" fill="#000000"/>
<rect width="480" height="1" fill="#000000"/>
<rect y="359" width="480" height="1" fill="#000000"/>
<g transform="translate(0.000000,360.000000) scale(0.100000,-0.100000)"
fill="#000000" stroke="none">
<path d="M1227 3534 c-54 -37 -96 -68 -94 -70 2 -2 30 1 61 7 32 6 60 8 62 6
2 -2 -29 -29 -69 -60 -40 -31 -81 -65 -92 -77 -18 -20 -18 -20 51 -20 l69 -1
-75 -37 c-106 -52 -171 -93 -165 -102 8 -12 90 -30 142 -30 l48 -1 -74 -38
c-66 -33 -72 -39 -55 -49 23 -13 24 -12 -51 -50 l-60 -31 58 -1 c31 0 57 -4
57 -10 0 -5 16 -3 38 4 20 8 62 16 92 20 46 5 51 4 30 -5 -149 -68 -310 -162
-310 -180 0 -5 21 -9 48 -10 l47 0 -60 -23 c-93 -36 -128 -53 -159 -79 l-29
-24 92 -53 c67 -38 91 -58 88 -69 -33 -114 -39 -142 -34 -147 4 -4 18 1 32 10
l26 17 -7 -35 c-3 -20 -4 -36 0 -36 3 0 22 25 42 55 21 30 38 54 40 52 2 -1
-17 -57 -42 -122 -59 -159 -57 -170 21 -113 33 24 89 64 124 87 35 24 82 60
103 79 21 19 41 33 43 30 2 -2 -7 -65 -20 -139 -14 -73 -25 -138 -24 -144 0
-5 23 15 50 45 40 43 50 50 45 30 -10 -38 -18 -386 -11 -459 l7 -63 32 5 32 5
-4 -59 c-4 -57 -4 -59 21 -59 21 0 25 -6 31 -40 12 -73 56 -200 71 -200 25 0
100 96 125 161 14 35 26 57 28 48 1 -9 -7 -38 -18 -65 -22 -51 -49 -277 -36
-309 5 -13 17 -16 53 -14 43 3 49 1 61 -23 19 -41 16 -68 -21 -159 -63 -152
-60 -176 13 -89 24 28 45 48 48 46 3 -3 -12 -40 -33 -82 -27 -55 -35 -78 -26
-83 9 -6 6 -20 -9 -56 -36 -84 -13 -73 112 50 56 57 88 82 88 71 0 -9 5 -14
10 -11 16 10 12 -10 -16 -88 -28 -77 -54 -182 -51 -207 1 -8 -4 -53 -10 -100
-7 -47 -14 -113 -17 -148 -4 -63 -4 -63 16 -45 12 10 32 41 45 68 l24 50 -4
-73 c-4 -66 -11 -86 -60 -183 l-56 -109 34 0 c30 0 39 8 87 73 30 39 60 81 66
92 10 17 11 15 12 -20 0 -22 -7 -64 -14 -92 l-14 -53 366 0 367 0 43 73 c47
78 46 79 26 -38 l-6 -35 251 0 251 0 0 63 c1 116 20 690 35 1022 55 1246 55
1198 -7 1354 -39 101 -70 155 -202 356 -231 350 -336 582 -336 742 l0 63 -698
0 -698 0 -97 -66z m302 -1007 c-2 -1 -12 -9 -22 -16 -15 -12 -17 -12 -11 3 3
9 13 16 22 16 8 0 13 -1 11 -3z m1129 -2147 c-9 -27 -28 -50 -28 -35 0 9 30
65 35 65 2 0 -1 -14 -7 -30z"/>
</g>
</svg>
