<?xml version="1.0" standalone="no"?>
<!DOCTYPE svg PUBLIC "-//W3C//DTD SVG 20010904//EN"
 "http://www.w3.org/TR/2001/REC-SVG-20010904/DTD/svg10.dtd">
<svg version="1.0" xmlns="http://www.w3.org/2000/svg"
 width="480.000000pt" height="360.000000pt" viewBox="0 0 480.000000 360.000000"
 preserveAspectRatio="xMidYMid meet">
<metadata>
Created by potrace 1.16, written by Peter Selinger 2001-2019
</metadata>
<rect width="1" height="360" fill="#000000"/>
<rect x="479" width="1" height="360" fill="#000000"/>
<rect width="480" height="1" fill="#000000"/>
<rect y="359" width="480" height="1" fill="#000000"/>
<g transform="translate(0.000000,360.000000) scale(0.100000,-0.100000)"
fill="#000000" stroke="none">
<path d="M2701 3263 c7 -10 29 -35 47 -56 18 -22 32 -40 30 -43 -2 -2 -31 8
-63 21 -64 25 -163 45 -231 45 -62 0 -125 -26 -179 -74 l-49 -43 -49 15 c-28
8 -63 11 -82 8 l-34 -7 22 -45 c16 -34 29 -47 49 -51 25 -5 40 -23 20 -23 -5
0 -17 -6 -28 -14 -19 -14 -19 -15 5 -40 l24 -25 -32 -30 c-17 -16 -31 -32 -31
-36 0 -4 20 -42 44 -85 l44 -78 -8 -164 c-5 -90 -16 -194 -25 -232 -12 -50
-14 -90 -10 -140 6 -61 2 -89 -26 -196 -50 -194 -61 -249 -43 -226 19 27 24
17 14 -29 -6 -28 -21 -51 -49 -76 -23 -20 -41 -39 -41 -43 0 -12 38 -6 50 9
17 21 34 19 25 -2 -11 -28 -15 -144 -4 -138 5 4 9 16 10 28 0 12 3 17 6 10 2
-7 -5 -70 -16 -140 -11 -70 -27 -209 -36 -308 -9 -99 -25 -263 -36 -365 -21
-198 -59 -627 -59 -666 l0 -24 569 0 568 0 -33 163 c-30 152 -198 829 -229
927 -8 25 -23 95 -34 155 -33 187 -33 185 -18 185 7 0 24 11 36 24 13 14 29
22 37 19 10 -3 14 2 14 19 0 38 46 98 76 98 13 0 39 7 57 14 67 30 97 74 97
140 0 41 -20 60 -52 51 -22 -7 -22 -6 4 18 34 31 35 40 42 205 l6 133 51 80
c28 43 49 85 46 93 -3 7 -63 58 -134 113 -100 78 -137 101 -170 107 -39 6 -42
4 -63 -29 -12 -19 -24 -35 -27 -35 -3 0 -3 35 1 78 6 77 7 80 55 132 40 44 52
51 71 45 21 -7 22 -5 17 22 -6 28 -3 31 34 42 41 12 49 30 24 51 -11 9 -12 16
-5 25 8 10 3 19 -22 38 -18 14 -44 28 -58 32 -43 13 -48 23 -47 93 2 80 -13
112 -86 189 -34 36 -58 53 -75 53 -22 0 -23 -2 -11 -17z"/>
</g>
</svg>
