<?xml version="1.0" standalone="no"?>
<!DOCTYPE svg PUBLIC "-//W3C//DTD SVG 20010904//EN"
 "http://www.w3.org/TR/2001/REC-SVG-20010904/DTD/svg10.dtd">
<svg version="1.0" xmlns="http://www.w3.org/2000/svg"
 width="480.000000pt" height="360.000000pt" viewBox="0 0 480.000000 360.000000"
 preserveAspectRatio="xMidYMid meet">
<metadata>
Created by potrace 1.16, written by Peter Selinger 2001-2019
</metadata>
<rect width="1" height="360" fill="#000000"/>
<rect x="479" width="1" height="360" fill="#000000"/>
<rect width="480" height="1" fill="#000000"/>
<rect y="359" width="480" height="1" fill="#000000"/>
<g transform="translate(0.000000,360.000000) scale(0.100000,-0.100000)"
fill="#000000" stroke="none">
<path d="M2545 3126 c-25 -25 -27 -32 -21 -80 6 -48 -4 -130 -44 -336 -6 -30
-26 -145 -45 -255 -54 -309 -52 -303 -92 -316 -35 -11 -35 -11 -38 -79 -3 -63
-20 -147 -33 -163 -12 -15 -2 -68 18 -92 7 -9 -5 -78 -45 -246 -97 -409 -154
-627 -180 -691 -14 -34 -25 -77 -25 -95 0 -45 -14 -69 -45 -77 -30 -8 -60 -59
-47 -83 11 -19 -21 -128 -56 -190 -22 -39 -15 -61 28 -85 22 -13 40 -28 40
-35 0 -7 -13 -76 -30 -153 -16 -77 -30 -143 -30 -145 0 -3 29 -5 64 -5 l63 0
28 139 c15 76 30 144 35 150 9 16 60 3 60 -15 0 -8 -11 -63 -25 -122 -14 -59
-27 -117 -30 -129 l-5 -23 784 0 784 0 -10 28 c-9 23 -6 35 20 78 16 28 49
107 72 175 54 162 66 303 50 589 -15 262 3 454 74 782 62 286 56 532 -20 753
-9 28 -26 76 -37 108 -41 120 -170 218 -332 252 -83 17 -283 20 -357 4 -99
-21 -155 -64 -312 -241 -83 -93 -85 -97 -55 -91 30 6 32 5 26 -20 -4 -14 -10
-32 -13 -41 -3 -9 -1 -16 5 -16 6 0 11 -19 11 -44 0 -25 5 -48 10 -51 6 -3 10
-1 10 5 0 20 18 1 44 -46 29 -51 27 -63 -14 -88 -34 -19 -38 -41 -13 -68 10
-11 17 -38 18 -66 3 -58 32 -153 53 -169 9 -7 26 -13 39 -13 31 0 35 -15 19
-75 -13 -50 -19 -55 -61 -40 -14 5 -11 -1 11 -22 27 -24 30 -32 22 -55 -8 -23
-14 -26 -36 -22 -15 3 -47 8 -72 12 -42 7 -47 11 -77 67 -31 58 -47 103 -94
263 -18 61 -31 84 -76 133 l-55 59 51 258 c60 296 113 524 136 577 39 94 8
163 -79 172 -39 5 -48 2 -71 -21z m345 -901 c0 -8 -4 -17 -10 -20 -6 -4 -10 5
-10 20 0 15 4 24 10 20 6 -3 10 -12 10 -20z m-398 -514 c26 -16 60 -44 77 -62
31 -32 66 -123 59 -156 -4 -20 -36 -31 -100 -32 -38 -1 -50 -6 -67 -27 -38
-48 -25 -221 30 -424 28 -104 146 -388 178 -429 43 -55 44 -58 38 -74 -5 -13
-10 -13 -44 3 -154 75 -296 130 -332 130 -22 0 -65 8 -96 17 -48 15 -56 21
-51 38 2 11 9 38 14 60 6 22 15 78 21 125 6 47 46 227 90 400 88 354 118 460
129 460 5 0 29 -13 54 -29z"/>
</g>
</svg>
