<?xml version="1.0" standalone="no"?>
<!DOCTYPE svg PUBLIC "-//W3C//DTD SVG 20010904//EN"
 "http://www.w3.org/TR/2001/REC-SVG-20010904/DTD/svg10.dtd">
<svg version="1.0" xmlns="http://www.w3.org/2000/svg"
 width="480.000000pt" height="360.000000pt" viewBox="0 0 480.000000 360.000000"
 preserveAspectRatio="xMidYMid meet">
<metadata>
Created by potrace 1.16, written by Peter Selinger 2001-2019
</metadata>
<rect width="1" height="360" fill="#000000"/>
<rect x="479" width="1" height="360" fill="#000000"/>
<rect width="480" height="1" fill="#000000"/>
<rect y="359" width="480" height="1" fill="#000000"/>
<g transform="translate(0.000000,360.000000) scale(0.100000,-0.100000)"
fill="#000000" stroke="none">
<path d="M2636 2955 c-22 -8 -52 -23 -68 -35 -16 -12 -38 -23 -49 -25 -30 -6
-39 -15 -39 -38 0 -13 -7 -33 -16 -46 -50 -71 -53 -239 -5 -290 15 -16 42 -32
60 -36 31 -7 32 -9 27 -40 -6 -30 -2 -38 54 -91 47 -47 67 -59 93 -60 17 0 35
5 39 10 5 7 8 5 8 -4 0 -18 -57 -90 -72 -90 -20 0 -87 -61 -117 -107 -37 -56
-39 -67 -6 -59 24 6 24 6 -10 -51 -48 -81 -62 -140 -49 -203 10 -45 9 -50 -5
-45 -9 4 -47 18 -86 32 -88 33 -98 40 -90 70 3 13 -2 37 -11 54 -16 31 -12
109 6 109 21 0 17 36 -12 90 -20 39 -37 60 -49 60 -9 0 -19 -4 -21 -8 -1 -5
-23 -15 -48 -23 -63 -20 -83 -58 -86 -168 -2 -47 -9 -130 -15 -185 -14 -108
-2 -217 29 -283 16 -33 15 -37 -33 -179 -27 -80 -49 -160 -49 -177 1 -27 4
-32 23 -29 12 2 28 -2 36 -8 8 -6 27 -10 42 -8 24 3 28 0 25 -19 -2 -13 12
-42 35 -73 37 -50 57 -61 66 -37 3 8 12 5 29 -10 13 -13 27 -23 31 -23 12 0 7
44 -8 70 -21 36 -20 64 3 54 9 -4 31 -7 47 -6 96 6 99 6 106 32 12 44 9 112
-10 225 -11 61 -22 142 -26 182 -7 72 -7 72 19 79 19 5 35 -1 64 -24 l38 -31
-2 -138 c-1 -100 -7 -163 -22 -228 -31 -132 -127 -471 -157 -556 -115 -320
-175 -515 -175 -566 l0 -23 681 0 681 0 -7 53 c-29 217 -43 263 -140 457 -79
157 -122 256 -180 420 -52 146 -92 230 -167 351 -73 117 -83 150 -81 284 2
124 12 196 26 194 33 -4 35 1 21 48 l-14 46 39 37 c36 34 39 41 40 94 0 31 3
61 6 66 9 14 -14 91 -36 121 -18 26 -19 39 -3 117 6 28 24 29 24 0 0 -34 17
-10 38 54 20 61 19 79 -12 213 -9 39 -23 105 -32 148 -13 65 -23 87 -58 130
-51 63 -128 123 -169 131 -52 10 -161 6 -201 -9z"/>
</g>
</svg>
