<?xml version="1.0" standalone="no"?>
<!DOCTYPE svg PUBLIC "-//W3C//DTD SVG 20010904//EN"
 "http://www.w3.org/TR/2001/REC-SVG-20010904/DTD/svg10.dtd">
<svg version="1.0" xmlns="http://www.w3.org/2000/svg"
 width="480.000000pt" height="360.000000pt" viewBox="0 0 480.000000 360.000000"
 preserveAspectRatio="xMidYMid meet">
<metadata>
Created by potrace 1.16, written by Peter Selinger 2001-2019
</metadata>
<rect width="1" height="360" fill="#000000"/>
<rect x="479" width="1" height="360" fill="#000000"/>
<rect width="480" height="1" fill="#000000"/>
<rect y="359" width="480" height="1" fill="#000000"/>
<g transform="translate(0.000000,360.000000) scale(0.100000,-0.100000)"
fill="#000000" stroke="none">
<path d="M0 3380 l0 -219 33 -5 c17 -3 68 -13 112 -21 44 -9 101 -19 127 -24
26 -4 50 -10 54 -13 3 -4 26 9 51 28 55 42 102 46 138 9 29 -28 31 -46 9 -81
-9 -13 -15 -27 -12 -29 2 -2 26 7 53 21 52 26 53 26 210 9 22 -3 34 -2 28 1
-7 3 -13 16 -13 29 0 13 -4 25 -10 27 -12 4 -19 433 -7 466 l8 22 -390 0 -391
0 0 -220z"/>
<path d="M1406 3478 c4 -68 8 -220 9 -338 l0 -215 -32 -65 c-52 -107 -57 -152
-32 -288 10 -58 19 -133 19 -166 1 -44 7 -75 25 -111 14 -27 25 -59 25 -69 0
-31 -63 -177 -75 -173 -5 2 -9 13 -7 23 2 15 -1 14 -11 -5 -8 -13 -12 -32 -10
-41 3 -10 0 -21 -6 -24 -7 -5 -11 2 -12 16 -1 23 -1 23 -9 -2 -4 -14 -8 -44
-9 -68 -1 -36 2 -42 17 -40 10 2 17 -3 17 -12 0 -8 -6 -14 -13 -12 -14 2 -15
-47 -2 -88 8 -24 8 -24 9 -2 1 31 17 28 24 -5 3 -16 16 -32 29 -38 14 -6 22
-17 20 -28 -2 -10 2 -25 9 -33 6 -8 7 -14 2 -14 -5 0 -10 -13 -10 -30 0 -40
-9 -47 -33 -25 -11 10 -20 14 -20 9 1 -14 26 -117 38 -155 7 -18 26 -83 43
-144 18 -60 49 -162 70 -225 20 -63 40 -133 45 -154 4 -22 19 -67 35 -101 32
-70 61 -200 66 -295 5 -91 11 -113 28 -106 8 3 15 1 15 -4 0 -6 5 -10 12 -10
6 0 22 -10 35 -22 13 -12 23 -17 23 -12 0 11 172 17 180 5 3 -4 57 -33 121
-64 121 -59 135 -72 153 -148 9 -39 -38 -98 -108 -134 -32 -16 -62 -38 -67
-47 -9 -17 16 -18 456 -18 394 0 465 2 465 14 0 8 -18 36 -40 63 -22 26 -57
71 -79 98 -21 28 -58 67 -82 86 -24 20 -55 55 -69 77 -14 23 -36 47 -48 54
-13 7 -32 29 -43 49 -12 25 -40 50 -84 79 -60 37 -70 49 -102 113 -47 98 -93
158 -191 252 -45 44 -97 94 -113 110 -34 33 -134 184 -145 218 -4 12 -17 35
-30 50 -34 40 -54 119 -54 211 0 79 -27 212 -51 258 -19 35 -12 91 20 174 50
130 59 204 44 384 -19 235 -27 423 -19 465 8 40 65 104 145 160 24 17 55 39
71 50 15 11 36 34 46 50 10 17 47 59 83 96 153 152 184 192 249 319 35 69 68
129 73 134 34 35 22 36 -557 36 l-567 0 9 -122z"/>
<path d="M0 1571 l0 -1571 379 0 379 0 6 28 c3 15 6 52 8 82 l3 54 -47 18
c-38 14 -60 16 -113 9 -60 -7 -68 -6 -81 13 -8 11 -14 28 -14 37 0 9 -10 29
-22 44 -21 27 -23 27 -99 21 -56 -5 -78 -3 -81 6 -3 8 -11 7 -28 -5 -17 -12
-27 -14 -37 -5 -16 13 -17 79 -2 132 8 28 8 41 0 46 -12 7 -5 40 8 40 10 0 33
49 36 76 2 12 14 39 28 61 14 22 33 57 41 77 9 21 31 56 51 78 19 23 35 48 35
55 0 7 5 13 11 13 5 0 8 4 5 9 -3 4 26 61 65 126 38 64 85 147 103 183 49 97
125 286 138 340 15 68 21 173 10 202 -8 22 -12 14 -27 -58 -10 -45 -22 -82
-27 -82 -6 0 -8 56 -4 148 6 137 6 145 -9 113 -8 -18 -15 -42 -15 -53 0 -28
-67 -242 -93 -297 -18 -39 -19 -48 -7 -75 7 -17 15 -55 17 -83 4 -43 2 -54
-12 -59 -9 -4 -21 1 -29 11 -8 11 -20 16 -29 12 -22 -8 -59 -83 -56 -115 1
-15 -2 -35 -6 -45 -4 -9 -4 -24 -1 -33 8 -21 -21 -51 -36 -36 -12 12 -57 155
-58 181 0 8 23 55 51 104 27 49 48 96 46 105 -4 14 -6 13 -12 -5 -11 -35 -23
-28 -34 20 -9 36 -9 31 -4 -33 l5 -75 -21 19 c-12 11 -27 39 -34 64 l-13 44
-16 -43 c-9 -24 -20 -55 -24 -69 -6 -23 -8 -23 -14 -6 -6 17 -8 15 -20 -15
-12 -34 -13 -34 -20 -9 -8 24 -8 24 -9 3 -1 -30 -21 -30 -21 0 -1 19 -2 19
-15 -8 -13 -29 -13 -30 -14 -5 -1 20 -3 22 -11 10 -5 -8 -10 -26 -10 -40 -1
-24 -1 -24 -15 -6 -15 20 -15 20 -16 0 0 -14 -2 -15 -6 -4 -4 8 -17 24 -30 36
-22 19 -24 29 -26 120 -3 161 18 371 43 433 21 53 107 215 155 291 38 61 73
151 80 211 5 42 1 80 -18 160 -20 87 -23 117 -17 184 4 44 6 83 3 87 -2 5 -18
1 -35 -8 -53 -28 -128 2 -128 51 0 13 16 46 35 74 19 28 35 54 35 59 0 19 -40
42 -130 75 -52 19 -103 38 -112 42 -17 7 -18 -72 -18 -1564z"/>
<path d="M913 1830 c0 -25 2 -35 4 -22 2 12 2 32 0 45 -2 12 -4 2 -4 -23z"/>
<path d="M1320 1681 c0 -6 5 -13 10 -16 6 -3 10 1 10 9 0 9 -4 16 -10 16 -5 0
-10 -4 -10 -9z"/>
<path d="M142 1490 c0 -14 2 -19 5 -12 2 6 2 18 0 25 -3 6 -5 1 -5 -13z"/>
<path d="M1605 280 c-3 -5 -1 -10 4 -10 6 0 11 5 11 10 0 6 -2 10 -4 10 -3 0
-8 -4 -11 -10z"/>
<path d="M1517 254 c-70 -85 -74 -87 -135 -80 -178 20 -179 20 -190 0 -5 -11
-12 -54 -14 -96 l-5 -78 208 0 209 0 -7 33 c-3 17 -10 40 -14 49 -5 9 -9 27
-9 41 0 13 -3 27 -7 31 -17 17 -12 52 9 61 30 14 33 32 6 41 -22 7 -22 7 -3
15 19 7 18 8 -3 8 -14 1 -33 -10 -45 -25z"/>
<path d="M1005 135 c-5 -2 -22 -6 -36 -9 -21 -5 -29 -14 -38 -50 -6 -24 -13
-51 -17 -60 -5 -14 3 -16 61 -16 l68 0 -7 62 c-6 63 -13 78 -31 73z"/>
</g>
</svg>
