<?xml version="1.0" standalone="no"?>
<!DOCTYPE svg PUBLIC "-//W3C//DTD SVG 20010904//EN"
 "http://www.w3.org/TR/2001/REC-SVG-20010904/DTD/svg10.dtd">
<svg version="1.0" xmlns="http://www.w3.org/2000/svg"
 width="480.000000pt" height="360.000000pt" viewBox="0 0 480.000000 360.000000"
 preserveAspectRatio="xMidYMid meet">
<metadata>
Created by potrace 1.16, written by Peter Selinger 2001-2019
</metadata>
<rect width="1" height="360" fill="#000000"/>
<rect x="479" width="1" height="360" fill="#000000"/>
<rect width="480" height="1" fill="#000000"/>
<rect y="359" width="480" height="1" fill="#000000"/>
<g transform="translate(0.000000,360.000000) scale(0.100000,-0.100000)"
fill="#000000" stroke="none">
<path d="M0 1800 l0 -1800 1057 2 1056 3 23 130 c12 72 34 177 48 235 14 58
27 134 28 170 l3 64 -41 23 -41 23 -89 -117 c-48 -65 -117 -148 -152 -185 -55
-58 -70 -68 -99 -68 -42 0 -83 38 -83 76 0 80 206 354 267 354 18 0 24 5 21
18 -2 9 -10 17 -18 17 -8 0 -31 10 -51 23 -23 14 -50 21 -75 20 -61 -2 -133
39 -171 97 -18 26 -60 114 -94 194 -34 80 -106 239 -160 353 -55 114 -102 221
-105 237 -5 23 3 47 35 106 22 42 41 82 41 89 0 7 -67 54 -150 105 -119 73
-150 97 -150 114 0 36 21 101 38 120 15 17 28 37 77 116 74 121 236 292 345
366 117 78 262 129 360 126 129 -4 154 -9 178 -37 17 -19 20 -30 13 -37 -22
-22 -9 -24 57 -7 56 14 70 23 86 49 18 31 18 33 -2 84 -12 28 -26 72 -32 97
-20 84 -30 99 -65 106 -20 3 -43 0 -62 -9 -26 -14 -34 -13 -83 4 -115 40 -239
153 -301 273 -20 39 -40 66 -50 66 -24 0 -59 43 -59 72 0 14 -17 48 -37 77
l-38 51 -762 0 -763 0 0 -1800z"/>
<path d="M4693 3573 c3 -16 14 -76 23 -135 21 -129 14 -206 -47 -473 l-38
-170 84 -85 85 -85 0 488 0 487 -56 0 c-56 0 -56 0 -51 -27z"/>
<path d="M1705 3506 c26 -40 121 -104 179 -121 54 -16 72 -12 41 12 -28 20
-198 121 -220 129 -17 7 -17 6 0 -20z"/>
<path d="M1740 3375 c0 -4 21 -39 46 -77 52 -77 118 -134 207 -179 51 -26 63
-29 89 -20 17 6 41 11 54 11 29 0 25 12 -31 100 -59 92 -68 97 -155 102 -70 3
-96 12 -202 66 -5 2 -8 1 -8 -3z"/>
<path d="M2246 3012 c-4 -8 37 -138 47 -148 4 -4 24 9 45 28 22 20 45 38 53
42 10 4 10 8 3 11 -7 3 -41 21 -78 40 -36 18 -68 30 -70 27z"/>
<path d="M2127 2671 c-43 -16 -79 -30 -81 -32 -11 -14 -47 -79 -44 -79 7 0
203 102 216 112 6 6 12 14 12 19 0 14 -19 10 -103 -20z"/>
<path d="M2128 2583 c-38 -21 -68 -40 -68 -44 0 -4 18 -10 40 -14 55 -9 110
23 110 66 0 16 -3 29 -7 29 -5 0 -38 -17 -75 -37z"/>
<path d="M1978 2486 c-53 -41 -74 -68 -164 -214 -185 -301 -176 -282 -147
-314 13 -14 18 -41 20 -100 2 -57 7 -86 19 -99 21 -24 11 -52 -34 -89 l-36
-29 18 -38 c22 -48 203 -369 228 -405 17 -24 24 -27 66 -24 38 3 202 69 202
81 0 2 -4 15 -10 30 -10 25 -12 26 -68 19 -77 -8 -85 8 -37 77 19 28 39 68 45
88 5 21 26 55 45 77 l35 39 31 -35 c17 -19 53 -65 81 -102 49 -66 68 -81 68
-56 0 7 -4 62 -10 122 -5 61 -14 172 -20 246 -6 74 -13 161 -16 193 l-6 57
-100 50 c-55 28 -109 50 -119 50 -13 0 -22 12 -31 42 -7 23 -27 56 -45 75
l-33 33 20 20 c22 22 26 45 9 56 -17 10 -4 109 20 150 11 18 19 34 17 34 -2 0
-23 -15 -48 -34z"/>
<path d="M3279 2284 c-10 -13 -9 -27 8 -82 12 -37 27 -92 33 -122 7 -30 16
-61 20 -69 11 -21 105 -15 213 13 l88 23 -83 73 c-77 68 -236 180 -257 180 -5
0 -14 -7 -22 -16z"/>
<path d="M3595 1993 c-11 -3 -46 -14 -79 -24 -32 -11 -83 -19 -113 -19 -43 0
-54 -3 -50 -14 3 -7 17 -105 32 -217 14 -112 37 -260 51 -329 14 -69 45 -228
70 -355 48 -251 96 -412 207 -705 38 -102 80 -216 92 -255 l23 -70 486 -3 486
-2 0 527 0 528 -34 36 c-46 48 -90 123 -111 189 -30 94 -33 99 -84 125 -59 29
-102 31 -223 9 -70 -13 -97 -14 -142 -4 -181 37 -353 220 -389 412 -10 53 -17
64 -73 118 -64 61 -85 69 -149 53z"/>
<path d="M3840 1855 c0 -2 13 -40 29 -84 46 -126 105 -199 214 -264 83 -51
159 -63 271 -43 49 9 91 18 94 21 3 2 -17 28 -44 57 -27 29 -63 69 -79 89 -59
70 -202 149 -365 199 -91 29 -120 35 -120 25z"/>
<path d="M4680 1347 c0 -27 58 -150 85 -182 l34 -40 1 101 0 101 -37 7 c-21 3
-48 9 -60 12 -13 4 -23 4 -23 1z"/>
</g>
</svg>
