<?xml version="1.0" standalone="no"?>
<!DOCTYPE svg PUBLIC "-//W3C//DTD SVG 20010904//EN"
 "http://www.w3.org/TR/2001/REC-SVG-20010904/DTD/svg10.dtd">
<svg version="1.0" xmlns="http://www.w3.org/2000/svg"
 width="480.000000pt" height="360.000000pt" viewBox="0 0 480.000000 360.000000"
 preserveAspectRatio="xMidYMid meet">
<metadata>
Created by potrace 1.16, written by Peter Selinger 2001-2019
</metadata>
<rect width="1" height="360" fill="#000000"/>
<rect x="479" width="1" height="360" fill="#000000"/>
<rect width="480" height="1" fill="#000000"/>
<rect y="359" width="480" height="1" fill="#000000"/>
<g transform="translate(0.000000,360.000000) scale(0.100000,-0.100000)"
fill="#000000" stroke="none">
<path d="M2029 2015 c-275 -45 -457 -187 -548 -427 l-11 -28 -142 0 c-307 -1
-605 -75 -660 -165 -10 -16 -18 -41 -18 -55 0 -14 -7 -46 -14 -71 -14 -46 -14
-48 17 -108 70 -135 208 -285 418 -455 13 -11 54 -46 92 -79 58 -52 67 -65 67
-94 0 -40 -43 -228 -64 -278 -8 -19 -11 -35 -5 -35 5 0 9 -7 9 -16 0 -30 24
-8 55 52 18 33 34 67 37 75 3 7 9 11 12 7 11 -9 -11 -178 -30 -229 -9 -27 -13
-57 -9 -78 l6 -33 51 81 c28 44 55 78 59 75 5 -3 9 -39 9 -80 l0 -74 1080 0
1080 0 1 133 c0 139 2 140 38 23 24 -77 82 -156 113 -156 16 0 19 5 15 26 -3
18 -1 24 9 20 19 -7 18 -1 -17 84 -17 41 -48 157 -70 258 l-41 183 29 22 c15
12 59 50 98 84 38 35 75 63 80 63 6 0 25 -24 42 -53 38 -63 59 -83 96 -89 36
-7 57 14 57 55 1 18 7 43 15 57 20 35 18 77 -5 145 l-20 57 65 72 c36 39 81
103 102 141 20 39 41 73 46 77 7 4 5 24 -6 58 -9 29 -17 64 -17 77 0 14 -10
41 -22 61 -55 90 -349 161 -663 162 l-151 0 -31 63 c-97 197 -285 322 -568
379 -134 26 -555 35 -686 13z"/>
</g>
</svg>
