<?xml version="1.0" standalone="no"?>
<!DOCTYPE svg PUBLIC "-//W3C//DTD SVG 20010904//EN"
 "http://www.w3.org/TR/2001/REC-SVG-20010904/DTD/svg10.dtd">
<svg version="1.0" xmlns="http://www.w3.org/2000/svg"
 width="480.000000pt" height="360.000000pt" viewBox="0 0 480.000000 360.000000"
 preserveAspectRatio="xMidYMid meet">
<metadata>
Created by potrace 1.16, written by Peter Selinger 2001-2019
</metadata>
<rect width="1" height="360" fill="#000000"/>
<rect x="479" width="1" height="360" fill="#000000"/>
<rect width="480" height="1" fill="#000000"/>
<rect y="359" width="480" height="1" fill="#000000"/>
<g transform="translate(0.000000,360.000000) scale(0.100000,-0.100000)"
fill="#000000" stroke="none">
<path d="M0 3353 l0 -248 45 50 c24 28 44 53 45 57 0 3 12 21 27 38 15 18 34
45 42 61 29 52 130 183 176 229 25 25 45 48 45 52 0 5 -85 8 -190 8 l-190 0 0
-247z"/>
<path d="M3202 3563 c101 -106 185 -219 254 -343 32 -58 61 -107 66 -110 4 -4
16 -31 27 -60 11 -30 31 -82 45 -115 77 -187 126 -473 126 -744 0 -58 7 -121
16 -156 29 -108 32 -133 18 -207 -25 -140 -51 -191 -167 -339 -38 -47 -85
-126 -144 -240 -7 -14 -22 -34 -33 -44 -11 -10 -20 -23 -20 -30 0 -6 -9 -23
-20 -36 -12 -13 -35 -43 -53 -65 -18 -23 -64 -77 -102 -120 -39 -44 -77 -88
-85 -99 -8 -11 -40 -39 -70 -62 -30 -23 -73 -59 -95 -79 -22 -19 -56 -44 -76
-54 -20 -11 -50 -30 -66 -44 -44 -37 -302 -166 -332 -166 -5 0 -14 -6 -20 -14
-6 -8 -32 -17 -57 -21 -25 -3 -85 -19 -134 -35 -145 -47 -279 -63 -505 -64
-261 0 -367 18 -625 105 -63 21 -137 50 -164 64 -52 26 -76 31 -76 16 0 -11
58 -61 71 -61 16 0 59 -52 59 -71 0 -26 -10 -29 -107 -35 -102 -5 -146 6 -221
58 -98 68 -134 120 -177 263 -36 121 -68 173 -172 281 -82 86 -208 251 -226
298 -4 11 -15 28 -23 37 -8 9 -37 61 -64 115 l-49 99 0 -742 -1 -743 2400 0
2400 0 0 1800 0 1800 -817 0 -817 0 36 -37z"/>
</g>
</svg>
