<?xml version="1.0" standalone="no"?>
<!DOCTYPE svg PUBLIC "-//W3C//DTD SVG 20010904//EN"
 "http://www.w3.org/TR/2001/REC-SVG-20010904/DTD/svg10.dtd">
<svg version="1.0" xmlns="http://www.w3.org/2000/svg"
 width="480.000000pt" height="360.000000pt" viewBox="0 0 480.000000 360.000000"
 preserveAspectRatio="xMidYMid meet">
<metadata>
Created by potrace 1.16, written by Peter Selinger 2001-2019
</metadata>
<rect width="1" height="360" fill="#000000"/>
<rect x="479" width="1" height="360" fill="#000000"/>
<rect width="480" height="1" fill="#000000"/>
<rect y="359" width="480" height="1" fill="#000000"/>
<g transform="translate(0.000000,360.000000) scale(0.100000,-0.100000)"
fill="#000000" stroke="none">
<path d="M0 2748 l1 -853 23 38 23 38 16 -38 c17 -42 13 -45 40 27 3 9 6 10 6
3 1 -8 14 -13 34 -13 24 0 28 3 17 10 -8 5 -10 10 -4 10 6 0 17 -6 23 -14 6
-8 20 -16 31 -19 17 -4 18 -2 9 14 -13 26 -4 39 30 39 25 0 30 -7 55 -67 15
-38 39 -86 53 -108 47 -72 164 -227 169 -223 2 3 -5 31 -16 63 -25 72 -25 78
0 65 15 -8 20 -8 20 2 0 6 7 3 15 -8 13 -17 14 -17 15 -1 1 47 38 -2 50 -65
18 -99 32 -148 41 -148 6 0 7 31 4 78 -5 66 -4 75 7 60 9 -11 19 -14 28 -8 8
5 22 2 36 -7 13 -8 25 -14 28 -14 38 6 34 -30 -13 -114 -47 -84 -93 -131 -198
-199 -60 -39 -79 -57 -81 -77 -4 -38 36 -80 115 -122 106 -56 120 -75 134
-187 10 -89 30 -150 47 -150 4 0 28 42 52 93 50 101 72 120 180 154 75 23 147
71 165 110 13 27 14 42 4 97 -10 52 -10 86 1 165 11 87 11 110 -4 189 -20 113
-21 285 -1 391 33 170 147 460 217 552 31 40 34 48 22 64 -18 24 -17 103 0
134 13 23 11 29 -19 73 -70 101 -71 181 -5 373 23 66 50 154 61 195 27 105 49
161 60 154 5 -3 9 -16 9 -29 0 -51 66 -286 90 -320 16 -22 49 -125 60 -183 12
-71 2 -121 -38 -186 l-24 -38 21 -42 c11 -22 22 -48 24 -56 3 -8 28 -23 57
-33 64 -23 169 -120 319 -297 58 -69 108 -127 111 -130 6 -6 95 -116 182 -226
90 -114 111 -110 234 48 164 209 296 362 408 474 91 90 123 115 167 131 41 16
55 27 59 44 3 13 13 38 22 56 17 30 17 32 -6 75 -58 106 -55 166 19 353 54
138 71 193 85 275 7 36 14 71 16 79 7 23 30 -28 54 -121 12 -46 41 -140 65
-210 70 -201 70 -285 1 -385 -31 -45 -33 -51 -20 -74 16 -29 18 -85 4 -126
-10 -26 -7 -36 30 -91 72 -108 159 -334 201 -522 24 -108 25 -263 2 -396 -15
-90 -15 -113 -3 -204 11 -82 11 -114 1 -161 -21 -104 12 -142 187 -209 94 -36
143 -78 162 -137 25 -77 49 -110 107 -148 32 -22 62 -42 66 -46 5 -4 1 -21 -8
-39 -12 -24 -15 -45 -10 -80 8 -55 -12 -87 -44 -71 -28 16 -106 104 -147 167
-50 78 -103 134 -127 134 -36 0 -138 -64 -203 -127 l-65 -63 7 -47 c4 -27 7
-56 5 -67 -5 -32 16 -7 23 27 10 52 91 81 98 35 8 -57 51 -21 69 57 7 30 16
55 20 55 4 0 13 -33 20 -74 12 -70 29 -94 29 -41 0 58 20 26 51 -80 18 -63 37
-115 41 -115 8 0 12 15 9 36 -1 6 5 24 13 40 17 32 21 26 31 -50 6 -47 48
-156 59 -156 3 0 4 6 1 12 -14 44 -45 201 -41 205 3 3 10 -5 15 -18 5 -13 26
-62 46 -109 53 -120 68 -156 100 -232 l28 -68 309 0 308 0 0 305 0 305 -30 48
c-19 32 -35 78 -46 133 -8 46 -32 152 -51 234 l-36 150 -1 277 c-1 211 2 280
12 290 14 14 130 40 143 32 5 -3 9 176 9 396 l0 402 -37 61 c-20 34 -56 92
-80 129 -23 37 -43 71 -43 75 0 4 20 48 45 98 24 50 59 133 76 185 31 91 32
103 37 288 l4 192 -2401 0 -2401 0 0 -852z m227 -610 c-3 -8 -6 -5 -6 6 -1 11
2 17 5 13 3 -3 4 -12 1 -19z"/>
<path d="M923 748 c-43 -46 -93 -118 -93 -135 0 -7 13 -27 30 -44 20 -21 28
-39 25 -53 -21 -92 -23 -112 -14 -121 6 -5 9 -2 10 10 0 11 3 14 6 8 10 -26
21 -12 38 45 40 134 36 125 49 106 11 -14 14 -10 26 32 16 60 30 78 30 40 0
-16 8 -59 17 -98 12 -51 19 -65 26 -53 7 13 11 14 24 3 14 -12 15 -9 9 27 -4
22 -10 54 -12 70 l-4 30 11 -28 c8 -20 16 -26 29 -22 19 6 50 -32 50 -62 0
-10 9 -26 20 -36 20 -16 20 -16 20 33 0 28 5 50 10 50 6 0 10 -9 10 -20 0 -11
5 -20 10 -20 6 0 10 13 10 28 0 57 -218 241 -286 242 -11 0 -34 -15 -51 -32z"/>
</g>
</svg>
