<?xml version="1.0" standalone="no"?>
<!DOCTYPE svg PUBLIC "-//W3C//DTD SVG 20010904//EN"
 "http://www.w3.org/TR/2001/REC-SVG-20010904/DTD/svg10.dtd">
<svg version="1.0" xmlns="http://www.w3.org/2000/svg"
 width="480.000000pt" height="360.000000pt" viewBox="0 0 480.000000 360.000000"
 preserveAspectRatio="xMidYMid meet">
<metadata>
Created by potrace 1.16, written by Peter Selinger 2001-2019
</metadata>
<rect width="1" height="360" fill="#000000"/>
<rect x="479" width="1" height="360" fill="#000000"/>
<rect width="480" height="1" fill="#000000"/>
<rect y="359" width="480" height="1" fill="#000000"/>
<g transform="translate(0.000000,360.000000) scale(0.100000,-0.100000)"
fill="#000000" stroke="none">
<path d="M0 2891 l0 -709 35 -31 c20 -17 44 -31 55 -31 11 0 63 16 117 35 114
41 126 42 188 15 25 -11 73 -27 105 -35 33 -9 92 -32 131 -51 78 -40 128 -50
184 -40 36 7 176 95 227 143 22 21 34 25 65 20 468 -70 688 -80 707 -32 7 19
-8 109 -32 187 -30 94 -111 306 -139 361 -23 43 -24 49 -10 70 8 12 26 55 40
95 15 39 40 99 57 131 45 86 39 105 -89 274 -58 77 -118 149 -133 160 -31 23
-35 49 -13 87 8 14 14 33 15 43 0 16 -42 17 -755 17 l-755 0 0 -709z"/>
<path d="M2088 3586 c-73 -16 -88 -29 -88 -78 0 -142 244 -909 365 -1147 21
-43 31 -51 103 -84 213 -97 225 -101 376 -105 l139 -4 89 91 c50 50 94 91 98
91 10 0 25 -47 35 -105 8 -47 28 -88 56 -114 52 -48 281 -70 534 -52 219 16
794 109 824 134 30 25 91 199 146 420 l35 137 -2 267 -3 267 -130 33 c-154 39
-344 98 -400 123 -22 10 -67 26 -100 35 -33 10 -105 37 -160 61 l-99 44 -881
-1 c-651 0 -895 -4 -937 -13z"/>
<path d="M3565 1785 c-71 -48 -134 -93 -138 -101 -10 -18 -50 -18 -113 0 -64
18 -216 44 -279 48 -66 4 -68 -10 -14 -114 39 -78 88 -222 89 -261 0 -19 79
-101 172 -180 68 -57 138 -183 138 -248 0 -57 21 -60 75 -10 24 22 55 43 69
47 29 7 35 31 9 41 -10 4 -23 -2 -37 -19 -22 -27 -85 -43 -91 -24 -12 36 -12
103 1 121 8 10 14 27 14 37 0 10 4 18 8 18 4 0 13 30 19 67 14 77 7 95 -40
119 -70 36 -84 70 -48 115 l19 24 54 -18 c105 -35 205 -20 218 32 7 31 48 44
116 37 l51 -6 31 49 c38 62 113 118 170 127 50 8 117 -14 265 -88 168 -83 207
-135 227 -300 14 -119 2 -204 -33 -230 -49 -38 -270 -16 -415 41 -29 12 -55
21 -57 21 -3 0 -5 -26 -5 -59 0 -50 -3 -59 -17 -57 -16 1 -18 -8 -17 -62 1
-58 0 -62 -19 -56 -17 5 -19 3 -13 -20 7 -30 0 -33 -25 -10 -16 15 -20 15 -41
0 -12 -9 -31 -16 -41 -16 -29 0 -77 -32 -77 -52 0 -15 9 -18 46 -18 63 0 104
-40 104 -101 0 -35 -6 -47 -37 -76 -34 -33 -40 -35 -85 -30 -26 3 -48 3 -48
-2 0 -4 23 -37 52 -72 63 -79 104 -163 124 -260 15 -71 14 -163 -2 -216 l-6
-23 423 0 424 0 4 50 c9 127 3 1323 -7 1420 -22 203 -15 189 -108 236 -148 73
-229 75 -352 8 -34 -19 -68 -34 -75 -34 -7 0 -48 18 -92 39 -248 122 -307 145
-385 149 l-75 4 -130 -87z"/>
<path d="M176 1764 c-53 -47 -104 -96 -112 -110 -51 -76 -15 -327 66 -469 44
-78 41 -89 -27 -105 -32 -7 -68 -17 -80 -23 l-23 -10 0 -266 0 -266 40 -25
c46 -29 76 -77 67 -111 -4 -13 -29 -52 -57 -86 l-50 -62 0 -117 c0 -138 -16
-134 170 -48 77 35 139 57 162 58 48 1 87 -28 113 -82 l20 -41 293 -1 294 0
-6 58 c-9 82 1 92 59 56 26 -16 79 -48 118 -71 l72 -43 538 0 538 0 -6 23
c-11 34 -169 270 -256 382 -116 149 -195 228 -276 275 -40 24 -73 45 -73 48 0
2 15 34 34 71 19 36 45 91 59 121 14 30 37 75 51 100 48 85 99 292 135 545 35
248 36 254 16 262 -33 12 -525 -99 -680 -153 -91 -33 -277 -123 -340 -166 -27
-18 -66 -43 -87 -56 l-36 -23 -79 79 c-43 43 -107 95 -143 116 -36 22 -114 72
-175 112 -137 90 -182 114 -216 114 -20 0 -53 -24 -123 -86z"/>
<path d="M2706 933 c-10 -21 -33 -61 -52 -90 -34 -51 -43 -83 -24 -83 5 0 33
6 62 14 29 7 86 17 126 21 40 4 72 11 70 15 -6 15 -146 160 -155 160 -5 0 -17
-17 -27 -37z"/>
</g>
</svg>
