<?xml version="1.0" standalone="no"?>
<!DOCTYPE svg PUBLIC "-//W3C//DTD SVG 20010904//EN"
 "http://www.w3.org/TR/2001/REC-SVG-20010904/DTD/svg10.dtd">
<svg version="1.0" xmlns="http://www.w3.org/2000/svg"
 width="480.000000pt" height="360.000000pt" viewBox="0 0 480.000000 360.000000"
 preserveAspectRatio="xMidYMid meet">
<metadata>
Created by potrace 1.16, written by Peter Selinger 2001-2019
</metadata>
<rect width="1" height="360" fill="#000000"/>
<rect x="479" width="1" height="360" fill="#000000"/>
<rect width="480" height="1" fill="#000000"/>
<rect y="359" width="480" height="1" fill="#000000"/>
<g transform="translate(0.000000,360.000000) scale(0.100000,-0.100000)"
fill="#000000" stroke="none">
<path d="M0 2666 l0 -934 83 25 c152 46 361 134 564 239 111 57 210 104 220
104 11 0 48 -25 84 -56 35 -30 134 -110 219 -177 85 -66 225 -189 310 -272
231 -225 293 -268 436 -306 69 -18 102 -20 264 -17 102 2 213 -1 246 -5 l61
-9 7 37 c10 54 100 224 154 291 63 78 133 125 261 175 143 56 161 66 161 90 0
11 -12 30 -26 42 -15 12 -53 46 -85 76 l-59 54 0 -104 c0 -124 -14 -162 -25
-68 -12 105 -24 113 -26 19 -1 -47 -3 -76 -6 -65 -2 11 -11 54 -20 95 l-16 75
-17 -40 -17 -40 -6 75 c-9 108 -22 144 -63 175 l-35 27 -25 -23 c-22 -21 -24
-21 -24 -4 0 15 -3 16 -12 7 -26 -26 -36 -14 -22 26 23 64 19 75 -21 68 -22
-4 -35 -3 -35 4 0 5 4 10 8 10 4 0 22 12 40 28 l33 27 -15 64 c-8 34 -17 65
-20 68 -3 3 -19 -5 -37 -17 l-31 -23 7 -206 7 -207 -27 -74 c-34 -95 -66 -221
-60 -237 2 -7 -2 -13 -11 -13 -8 0 -18 10 -23 22 -7 19 -9 17 -15 -17 -4 -22
-10 -49 -13 -60 -6 -18 -7 -18 -14 5 -4 14 -8 43 -9 65 -1 32 -3 36 -10 20 -5
-11 -9 -34 -9 -51 -2 -53 -41 -115 -41 -64 0 11 -5 20 -11 20 -5 0 -7 -5 -4
-10 3 -5 2 -10 -3 -10 -5 0 -17 46 -26 102 -9 56 -19 104 -21 107 -3 2 -6 -16
-6 -40 -2 -53 -2 -48 6 -84 14 -59 -20 5 -47 90 -42 129 -50 192 -38 292 6 48
14 99 17 112 5 20 3 22 -16 16 -31 -10 -27 19 7 44 19 13 34 38 46 78 26 82
71 167 112 213 l36 40 -24 9 c-12 5 -55 19 -95 30 -40 12 -84 32 -99 44 l-27
24 21 79 c12 44 22 90 22 102 0 85 91 205 210 277 51 31 68 36 98 32 46 -8 99
-64 108 -116 12 -66 19 -65 57 12 48 97 149 195 234 227 88 33 150 40 368 40
227 0 307 -10 382 -46 154 -74 245 -319 209 -560 -8 -47 -6 -53 21 -85 43 -48
60 -86 68 -149 4 -30 13 -65 21 -77 19 -30 20 -29 -28 -64 -54 -38 -60 -55
-37 -101 23 -45 23 -49 4 -42 -11 5 -15 -1 -15 -25 0 -23 -4 -29 -15 -25 -9 4
-15 1 -15 -7 0 -25 -17 6 -30 54 -13 49 -27 68 -34 45 -2 -7 -14 -51 -26 -98
-13 -47 -28 -94 -33 -105 -10 -19 -10 -19 -18 0 -4 11 -8 36 -8 56 -1 50 -12
99 -22 99 -4 0 -9 -26 -11 -57 -3 -56 -4 -57 -16 -30 -15 35 -28 28 -36 -20
-7 -39 -49 -184 -67 -231 -8 -22 -12 -24 -20 -12 -8 12 -9 9 -7 -10 3 -21 17
-30 104 -65 112 -46 175 -81 218 -121 16 -16 60 -92 98 -173 38 -80 73 -153
77 -161 10 -18 126 -17 253 1 59 9 102 8 178 -1 119 -15 235 -7 327 21 l63 20
0 1124 0 1125 -2400 0 -2400 0 0 -934z"/>
<path d="M3417 1972 c-17 -18 -17 -20 -1 -26 22 -8 26 -3 22 24 -3 22 -3 22
-21 2z"/>
<path d="M734 1873 c-49 -31 -91 -58 -93 -60 -2 -1 3 -17 12 -35 11 -23 13
-37 5 -51 -7 -15 -6 -22 9 -32 43 -32 52 -45 85 -136 l36 -96 -34 -139 c-19
-76 -55 -227 -80 -334 -26 -107 -52 -210 -60 -227 -27 -68 -35 -49 -103 237
-22 96 -56 238 -75 315 l-33 140 33 95 c23 65 44 104 64 122 18 17 27 33 24
43 -3 8 -7 15 -9 15 -1 0 -53 -24 -116 -54 -103 -49 -319 -126 -352 -126 -7 0
-17 -15 -23 -32 -9 -30 -7 -36 22 -63 20 -19 44 -62 67 -121 l35 -90 -71 -280
-71 -279 -3 -342 -4 -343 1225 0 1226 0 0 38 c2 109 20 304 34 357 8 33 22
123 31 199 13 123 13 144 0 196 -20 77 -19 109 5 172 24 63 23 58 5 58 -8 0
-22 11 -31 25 -17 25 -16 27 17 62 33 35 33 35 8 30 -14 -4 -99 -9 -189 -12
-90 -3 -165 -7 -167 -9 -2 -1 10 -14 25 -28 19 -17 39 -55 60 -116 l32 -91
-75 -318 c-42 -175 -81 -330 -87 -346 -13 -33 -25 -35 -38 -4 -11 26 -150 645
-150 669 0 39 64 184 91 206 25 20 27 26 17 47 -7 16 -24 29 -47 35 -70 18
-167 38 -220 45 -50 7 -53 6 -46 -11 36 -85 66 -184 62 -209 -6 -46 -146 -637
-157 -663 -12 -28 -28 -28 -39 1 -5 13 -27 104 -50 202 -22 99 -56 245 -75
325 l-34 145 35 98 c26 71 43 103 63 117 20 14 29 31 33 62 5 41 3 45 -63 123
-87 102 -141 153 -209 198 -59 39 -77 41 -43 4 12 -12 36 -64 53 -114 l32 -91
-72 -303 c-102 -432 -106 -445 -131 -399 -6 11 -47 173 -91 360 l-80 341 36
97 c26 69 45 104 66 120 16 13 29 33 29 46 0 12 5 27 10 32 8 8 -6 24 -46 54
-31 24 -89 74 -129 111 -40 38 -79 69 -87 69 -8 0 -55 -26 -104 -57z"/>
<path d="M3440 1855 c0 -8 5 -15 10 -15 6 0 10 7 10 15 0 8 -4 15 -10 15 -5 0
-10 -7 -10 -15z"/>
<path d="M4651 1212 c-65 -13 -87 -22 -99 -40 -14 -22 -13 -25 16 -50 21 -18
43 -57 68 -120 l36 -93 -78 -324 c-44 -178 -85 -332 -92 -342 -12 -17 -14 -17
-26 -1 -7 9 -49 167 -95 350 l-82 334 36 89 c22 55 46 99 62 112 15 12 25 24
23 26 -3 3 -101 7 -217 9 l-213 4 0 -24 c0 -13 9 -31 19 -40 11 -10 35 -60 55
-113 l36 -97 -35 -143 c-19 -79 -49 -201 -66 -270 l-30 -127 15 -82 c9 -45 16
-124 16 -176 l0 -94 400 0 400 0 0 461 c0 380 -3 471 -15 520 -14 52 -14 62 0
95 8 20 15 63 15 95 l0 59 -32 -1 c-18 0 -71 -8 -117 -17z"/>
<path d="M2720 141 c0 -5 -3 -18 -6 -28 -6 -16 -5 -16 9 2 19 23 21 35 7 35
-5 0 -10 -4 -10 -9z"/>
</g>
</svg>
