<?xml version="1.0" standalone="no"?>
<!DOCTYPE svg PUBLIC "-//W3C//DTD SVG 20010904//EN"
 "http://www.w3.org/TR/2001/REC-SVG-20010904/DTD/svg10.dtd">
<svg version="1.0" xmlns="http://www.w3.org/2000/svg"
 width="480.000000pt" height="360.000000pt" viewBox="0 0 480.000000 360.000000"
 preserveAspectRatio="xMidYMid meet">
<metadata>
Created by potrace 1.16, written by Peter Selinger 2001-2019
</metadata>
<rect width="1" height="360" fill="#000000"/>
<rect x="479" width="1" height="360" fill="#000000"/>
<rect width="480" height="1" fill="#000000"/>
<rect y="359" width="480" height="1" fill="#000000"/>
<g transform="translate(0.000000,360.000000) scale(0.100000,-0.100000)"
fill="#000000" stroke="none">
<path d="M4140 3594 c0 -22 68 -128 88 -137 17 -8 22 -16 18 -31 -4 -12 -13
-64 -22 -116 -9 -52 -24 -116 -35 -142 -10 -26 -19 -56 -19 -67 0 -10 -7 -32
-15 -48 -20 -39 -75 -182 -75 -196 0 -7 -9 -29 -20 -50 -11 -20 -20 -44 -20
-52 0 -8 -4 -23 -10 -33 -5 -9 -20 -44 -33 -77 -14 -33 -57 -134 -97 -225
-106 -243 -191 -479 -210 -581 -16 -84 -17 -90 -34 -155 -9 -34 -16 -74 -16
-88 0 -14 -9 -35 -21 -47 -27 -27 -50 -24 -334 48 -121 30 -230 57 -241 60
-28 6 -104 -33 -104 -54 0 -9 -9 -27 -21 -39 -20 -21 -20 -23 -2 -32 10 -6 83
-24 163 -40 80 -17 210 -45 290 -62 196 -41 325 -60 414 -60 85 0 106 -14 46
-30 -23 -6 -58 -20 -78 -32 -77 -43 -247 -54 -592 -38 -151 6 -313 10 -360 8
l-85 -3 26 -18 c45 -30 129 -36 544 -38 331 -2 414 1 481 14 121 23 233 71
299 127 31 26 78 56 103 65 109 41 221 157 268 277 18 44 46 89 83 130 31 35
71 82 89 105 18 23 43 45 55 49 12 3 38 24 58 45 20 22 46 39 58 39 l21 0 0
765 0 765 -330 0 c-181 0 -330 -3 -330 -6z m225 -809 c37 -85 102 -176 151
-214 49 -37 52 -48 25 -82 -37 -47 -61 -110 -68 -171 -3 -38 -14 -73 -25 -87
-25 -32 -23 -57 7 -83 40 -34 32 -61 -32 -115 -97 -82 -142 -135 -163 -192
-12 -30 -30 -65 -40 -79 -11 -13 -20 -30 -20 -36 0 -7 -13 -25 -29 -40 -16
-15 -39 -55 -52 -88 -13 -33 -34 -67 -46 -75 -26 -17 -129 -29 -169 -19 l-27
7 7 127 c13 248 25 290 186 657 65 149 142 326 170 395 29 69 57 131 62 138
20 24 39 11 63 -43z"/>
<path d="M2361 2420 c-61 -15 -67 -56 -19 -147 l33 -61 -38 -72 c-40 -76 -46
-110 -22 -130 19 -16 19 -62 1 -98 -14 -29 -36 -152 -61 -352 -9 -69 -22 -169
-30 -222 -21 -139 -20 -157 11 -168 14 -6 43 -10 64 -10 46 0 72 -22 68 -59
-2 -22 -11 -29 -52 -42 -61 -19 -78 -41 -53 -66 15 -16 37 -18 157 -18 160 0
190 11 118 42 -39 18 -45 25 -61 76 -10 32 -15 62 -11 68 5 8 30 9 80 5 87 -8
86 -9 67 109 -7 44 -22 139 -33 210 -11 72 -35 181 -52 243 l-32 113 18 49
c15 43 16 59 7 117 -6 38 -13 84 -15 103 -3 19 -8 49 -11 65 -5 25 -1 35 24
59 36 34 38 55 12 112 -34 75 -81 95 -170 74z"/>
<path d="M4735 1377 c-69 -58 -252 -242 -266 -268 -12 -22 0 -38 29 -39 6 0
12 -4 12 -9 0 -5 -49 -78 -109 -163 -114 -160 -284 -436 -369 -598 -27 -52
-72 -137 -101 -188 -28 -51 -49 -97 -46 -103 4 -5 185 -9 461 -9 l454 0 0 710
c0 391 -3 710 -7 709 -5 0 -31 -19 -58 -42z"/>
</g>
</svg>
