<?xml version="1.0" standalone="no"?>
<!DOCTYPE svg PUBLIC "-//W3C//DTD SVG 20010904//EN"
 "http://www.w3.org/TR/2001/REC-SVG-20010904/DTD/svg10.dtd">
<svg version="1.0" xmlns="http://www.w3.org/2000/svg"
 width="480.000000pt" height="360.000000pt" viewBox="0 0 480.000000 360.000000"
 preserveAspectRatio="xMidYMid meet">
<metadata>
Created by potrace 1.16, written by Peter Selinger 2001-2019
</metadata>
<rect width="1" height="360" fill="#000000"/>
<rect x="479" width="1" height="360" fill="#000000"/>
<rect width="480" height="1" fill="#000000"/>
<rect y="359" width="480" height="1" fill="#000000"/>
<g transform="translate(0.000000,360.000000) scale(0.100000,-0.100000)"
fill="#000000" stroke="none">
<path d="M3207 2960 c-15 -12 -52 -28 -84 -36 -112 -29 -166 -73 -362 -293
-66 -73 -70 -81 -40 -66 19 10 42 24 52 33 25 22 22 -1 -8 -66 -27 -58 -31
-77 -15 -67 6 4 10 -21 10 -69 0 -60 3 -74 14 -70 9 3 18 -7 26 -28 11 -27 14
-30 17 -13 8 34 22 39 29 12 3 -15 10 -24 15 -21 5 3 9 0 9 -5 0 -17 -39 -52
-71 -63 -35 -12 -39 -43 -8 -81 15 -20 18 -35 14 -59 -3 -18 -1 -53 5 -78 6
-25 15 -67 20 -93 12 -64 21 -73 80 -80 66 -8 71 -12 58 -47 -11 -32 -27 -37
-60 -19 -23 13 -40 2 -17 -11 9 -5 26 -17 38 -27 l22 -18 -22 -88 c-20 -81
-25 -91 -58 -111 -46 -30 -67 -54 -75 -89 -4 -16 -34 -72 -66 -124 -33 -52
-60 -96 -60 -97 0 -2 9 -6 20 -9 11 -3 20 -9 20 -15 0 -18 -42 -62 -53 -55 -6
4 -31 10 -55 13 -37 6 -45 4 -61 -17 -11 -12 -21 -23 -24 -23 -2 0 -12 27 -21
60 -10 33 -26 68 -37 79 -19 18 -19 19 6 157 14 76 33 164 41 194 12 40 17
109 19 250 4 260 48 677 86 820 12 45 18 88 14 107 -13 71 -129 103 -181 51
-28 -28 -31 -50 -19 -168 5 -55 0 -144 -19 -335 -37 -352 -64 -573 -75 -593
-4 -9 -11 -66 -15 -127 -7 -129 -16 -185 -27 -185 -4 0 -11 21 -14 48 -26 179
-96 314 -191 363 -44 23 -46 24 -59 5 -12 -16 -17 -17 -30 -6 -19 16 -19 36 0
44 23 8 18 35 -8 41 -37 10 -75 -11 -96 -53 -11 -21 -27 -44 -35 -51 -9 -8
-16 -24 -16 -36 0 -12 -7 -28 -15 -35 -8 -7 -15 -29 -15 -49 0 -26 -6 -40 -21
-50 -20 -12 -21 -19 -15 -74 6 -61 8 -64 73 -127 38 -36 94 -87 125 -113 31
-26 73 -70 94 -98 40 -55 41 -53 -21 -86 -47 -25 -65 -44 -90 -99 -87 -190
-75 -372 51 -756 l36 -108 -31 -31 c-34 -34 -39 -63 -15 -97 l15 -22 1076 0
1076 0 -7 161 c-4 89 -20 257 -36 373 -54 388 -73 541 -73 581 0 22 10 94 22
160 91 494 95 841 11 1089 -16 47 -37 99 -47 114 -11 15 -27 54 -37 87 -51
166 -206 299 -406 349 -36 9 -121 21 -190 27 -88 8 -127 15 -133 25 -11 19
-30 18 -60 -6z m-1127 -1236 c5 -6 11 -26 12 -45 3 -29 0 -34 -17 -31 -44 8
-96 82 -74 108 10 12 16 11 41 -4 16 -9 34 -22 38 -28z"/>
<path d="M1061 2883 c-13 -21 -27 -44 -31 -52 -6 -11 -12 -10 -29 6 -23 22
-99 48 -109 38 -8 -8 23 -65 54 -98 30 -32 30 -33 -3 -61 -37 -32 -26 -56 26
-56 34 0 42 -4 53 -27 22 -46 31 -38 55 46 3 11 7 10 23 -4 22 -20 42 -13 22
7 -20 20 -14 32 23 52 43 23 45 44 5 57 -16 6 -30 14 -31 17 -11 127 -19 137
-58 75z"/>
</g>
</svg>
