<?xml version="1.0" standalone="no"?>
<!DOCTYPE svg PUBLIC "-//W3C//DTD SVG 20010904//EN"
 "http://www.w3.org/TR/2001/REC-SVG-20010904/DTD/svg10.dtd">
<svg version="1.0" xmlns="http://www.w3.org/2000/svg"
 width="480.000000pt" height="360.000000pt" viewBox="0 0 480.000000 360.000000"
 preserveAspectRatio="xMidYMid meet">
<metadata>
Created by potrace 1.16, written by Peter Selinger 2001-2019
</metadata>
<rect width="1" height="360" fill="#000000"/>
<rect x="479" width="1" height="360" fill="#000000"/>
<rect width="480" height="1" fill="#000000"/>
<rect y="359" width="480" height="1" fill="#000000"/>
<g transform="translate(0.000000,360.000000) scale(0.100000,-0.100000)"
fill="#000000" stroke="none">
<path d="M0 1800 l0 -1800 1050 0 1049 0 18 57 c15 47 18 90 17 233 -3 241
-18 381 -59 544 -52 205 -47 315 21 448 13 26 24 56 24 67 0 11 18 54 40 96
22 41 35 75 30 75 -17 0 -11 22 16 58 24 31 25 36 10 44 -27 15 -18 45 22 75
20 15 53 44 74 64 20 20 50 40 67 44 17 4 31 7 32 8 4 11 25 194 23 199 -3 4
-19 4 -37 1 -30 -4 -34 -2 -55 39 -24 48 -39 71 -64 107 -10 13 -18 32 -18 41
0 10 -11 25 -25 34 -32 21 -32 35 3 62 l27 22 -19 36 c-21 40 -37 48 -29 15 5
-19 3 -20 -18 -14 -37 11 -48 24 -60 69 -9 33 -13 37 -19 22 -9 -27 -17 -10
-26 54 -6 45 -9 51 -19 37 -20 -27 -22 -20 -14 35 12 77 92 230 153 292 89 91
252 152 436 163 166 10 271 -29 381 -142 95 -97 111 -124 148 -247 47 -161 53
-226 45 -583 -5 -293 -4 -346 20 -620 26 -303 28 -381 30 -1153 l1 -282 763 0
762 0 0 1800 0 1800 -2400 0 -2400 0 0 -1800z"/>
</g>
</svg>
