<?xml version="1.0" standalone="no"?>
<!DOCTYPE svg PUBLIC "-//W3C//DTD SVG 20010904//EN"
 "http://www.w3.org/TR/2001/REC-SVG-20010904/DTD/svg10.dtd">
<svg version="1.0" xmlns="http://www.w3.org/2000/svg"
 width="480.000000pt" height="360.000000pt" viewBox="0 0 480.000000 360.000000"
 preserveAspectRatio="xMidYMid meet">
<metadata>
Created by potrace 1.16, written by Peter Selinger 2001-2019
</metadata>
<rect width="1" height="360" fill="#000000"/>
<rect x="479" width="1" height="360" fill="#000000"/>
<rect width="480" height="1" fill="#000000"/>
<rect y="359" width="480" height="1" fill="#000000"/>
<g transform="translate(0.000000,360.000000) scale(0.100000,-0.100000)"
fill="#000000" stroke="none">
<path d="M0 1800 l0 -1800 918 0 917 0 -45 29 c-64 40 -118 103 -126 148 -5
28 -2 54 14 96 20 55 20 57 2 67 -10 6 -25 10 -34 10 -8 0 -27 11 -42 24 -36
30 -36 74 1 145 25 50 25 55 12 94 -7 23 -22 47 -33 52 -37 19 -119 68 -171
102 -53 35 -183 194 -225 276 -35 69 -67 175 -80 264 l-12 83 29 56 c17 30 40
61 52 69 20 14 38 70 45 145 2 20 16 31 65 55 83 40 148 105 169 169 31 93 53
210 42 229 -13 26 -21 149 -10 166 6 8 17 11 25 8 18 -7 47 -62 47 -91 1 -21
1 -21 15 -2 14 18 15 15 15 -36 0 -36 -5 -58 -12 -60 -10 -4 -7 -22 10 -74 32
-102 52 -184 52 -219 0 -55 -48 -218 -86 -293 -62 -122 -136 -169 -256 -160
-49 4 -58 2 -58 -12 0 -21 36 -133 61 -187 20 -43 128 -167 129 -147 0 6 -10
22 -21 35 -32 35 -68 119 -75 172 -4 26 -4 47 0 47 3 0 50 -44 104 -98 76 -77
135 -123 272 -214 158 -104 301 -190 403 -242 29 -15 39 -28 48 -60 5 -23 15
-53 21 -68 6 -16 11 -63 12 -105 l1 -78 50 -27 c59 -33 146 -61 175 -56 19 3
18 5 -9 47 -17 25 -33 63 -36 85 -4 23 -22 91 -40 151 -59 195 -97 423 -111
648 -5 87 -4 120 6 131 10 13 20 1 60 -77 26 -52 60 -113 75 -138 45 -71 190
-261 224 -293 l31 -30 193 -3 c121 -2 193 -8 196 -14 4 -14 -54 -67 -134 -121
-35 -23 -64 -45 -64 -48 0 -8 113 -101 144 -119 27 -16 27 -16 87 49 l60 65
-36 8 c-25 6 -36 15 -36 27 0 30 23 41 59 29 64 -22 118 10 237 141 22 25 60
71 83 103 24 31 48 57 54 57 6 0 37 -25 67 -55 41 -40 66 -57 93 -62 61 -10
104 4 144 48 41 44 76 49 81 13 3 -22 -47 -81 -121 -141 l-38 -30 93 -87 c52
-48 118 -104 147 -126 72 -54 139 -129 147 -163 26 -121 -88 -254 -254 -293
-59 -14 -131 -3 -237 37 -55 20 -91 40 -231 127 -28 18 -57 32 -63 32 -7 0
-45 -29 -84 -65 -40 -36 -96 -77 -125 -92 -47 -23 -61 -25 -140 -21 -67 4
-104 12 -162 35 -70 29 -77 30 -109 17 -49 -20 -58 -18 -103 26 -23 22 -45 40
-49 40 -18 0 -19 -48 -4 -125 l15 -80 -25 -22 -26 -23 1160 0 1161 0 0 1800 0
1800 -2400 0 -2400 0 0 -1800z m2718 -268 c48 -32 123 -77 167 -100 84 -44
274 -112 311 -112 44 0 49 -23 20 -112 -38 -122 -55 -145 -112 -154 -61 -9
-170 1 -318 29 l-118 22 -49 93 c-45 85 -49 99 -49 162 0 62 22 199 36 221 10
16 23 10 112 -49z"/>
<path d="M3896 389 c-27 -22 -83 -56 -124 -75 -70 -33 -81 -36 -153 -32 -43 2
-75 0 -71 -3 17 -16 113 -42 174 -46 59 -5 74 -2 122 21 65 32 103 73 112 122
10 53 -6 57 -60 13z"/>
</g>
</svg>
