<?xml version="1.0" standalone="no"?>
<!DOCTYPE svg PUBLIC "-//W3C//DTD SVG 20010904//EN"
 "http://www.w3.org/TR/2001/REC-SVG-20010904/DTD/svg10.dtd">
<svg version="1.0" xmlns="http://www.w3.org/2000/svg"
 width="480.000000pt" height="360.000000pt" viewBox="0 0 480.000000 360.000000"
 preserveAspectRatio="xMidYMid meet">
<metadata>
Created by potrace 1.16, written by Peter Selinger 2001-2019
</metadata>
<rect width="1" height="360" fill="#000000"/>
<rect x="479" width="1" height="360" fill="#000000"/>
<rect width="480" height="1" fill="#000000"/>
<rect y="359" width="480" height="1" fill="#000000"/>
<g transform="translate(0.000000,360.000000) scale(0.100000,-0.100000)"
fill="#000000" stroke="none">
<path d="M0 3332 l0 -268 63 -56 c77 -69 196 -215 263 -323 27 -44 64 -93 83
-110 74 -66 91 -73 220 -91 153 -21 267 -15 367 19 l71 25 39 -22 c31 -17 40
-28 42 -54 3 -30 0 -34 -38 -49 -41 -16 -42 -18 -36 -55 4 -21 13 -57 20 -80
14 -40 14 -41 -20 -90 -41 -60 -69 -146 -84 -259 -16 -123 -18 -129 -45 -139
-21 -8 -25 -17 -27 -52 0 -24 -2 -55 -2 -69 -1 -15 -8 -34 -15 -43 -11 -13
-11 -20 4 -43 10 -16 27 -38 38 -50 11 -13 16 -23 10 -23 -6 0 -23 16 -38 36
l-28 37 -45 -89 c-25 -49 -51 -105 -58 -124 l-13 -35 -1 30 c0 17 -4 36 -9 44
-7 11 -11 10 -19 -5 -16 -30 -5 -122 24 -205 25 -71 29 -77 78 -105 50 -29 51
-29 21 -32 -55 -5 -56 -7 -30 -71 35 -90 82 -168 143 -238 30 -35 51 -63 46
-63 -5 0 -29 14 -54 30 -25 16 -50 30 -57 30 -7 0 -16 6 -20 13 -13 20 -173
137 -188 137 -7 0 2 -72 15 -119 6 -24 29 -84 51 -134 21 -50 39 -95 39 -101
0 -6 -29 19 -65 56 -35 38 -69 68 -75 68 -19 0 -23 -31 -7 -70 16 -42 12 -60
-8 -33 -11 15 -15 15 -29 4 -20 -17 -20 -40 -1 -132 9 -40 12 -87 9 -106 l-6
-34 -22 19 c-11 11 -35 27 -53 36 -31 15 -33 15 -69 -9 -35 -24 -88 -42 -177
-62 -21 -4 -38 -12 -39 -18 -2 -40 15 -165 22 -165 35 0 371 -54 438 -70 82
-20 115 -20 2078 -20 l1994 0 0 1800 0 1800 -2400 0 -2400 0 0 -268z m2441
-1060 c24 -16 52 -39 63 -50 18 -21 18 -22 -7 -56 l-26 -34 24 -36 c30 -44 31
-52 7 -65 -23 -12 -42 -1 -112 63 -114 105 -182 178 -174 186 12 11 48 17 120
19 50 1 67 -4 105 -27z"/>
<path d="M721 1505 c-10 -33 -11 -55 -4 -78 l10 -32 13 57 c9 38 10 65 4 78
-8 19 -11 15 -23 -25z"/>
<path d="M168 153 c5 -42 15 -53 49 -53 22 0 22 1 -9 45 -18 25 -35 45 -38 45
-3 0 -4 -17 -2 -37z"/>
</g>
</svg>
