<?xml version="1.0" standalone="no"?>
<!DOCTYPE svg PUBLIC "-//W3C//DTD SVG 20010904//EN"
 "http://www.w3.org/TR/2001/REC-SVG-20010904/DTD/svg10.dtd">
<svg version="1.0" xmlns="http://www.w3.org/2000/svg"
 width="480.000000pt" height="360.000000pt" viewBox="0 0 480.000000 360.000000"
 preserveAspectRatio="xMidYMid meet">
<metadata>
Created by potrace 1.16, written by Peter Selinger 2001-2019
</metadata>
<rect width="1" height="360" fill="#000000"/>
<rect x="479" width="1" height="360" fill="#000000"/>
<rect width="480" height="1" fill="#000000"/>
<rect y="359" width="480" height="1" fill="#000000"/>
<g transform="translate(0.000000,360.000000) scale(0.100000,-0.100000)"
fill="#000000" stroke="none">
<path d="M1713 3290 c-38 -16 -52 -52 -64 -159 -13 -122 0 -238 35 -317 13
-28 54 -97 91 -154 59 -90 68 -111 76 -169 14 -111 11 -155 -12 -185 -25 -31
-42 -99 -34 -127 11 -32 43 -45 300 -122 207 -63 377 -107 407 -107 40 0 58
29 58 93 0 50 5 65 43 122 23 35 45 65 48 65 4 0 9 -10 12 -21 4 -15 11 -20
22 -15 9 3 23 6 31 6 8 0 14 9 14 20 0 40 39 51 212 60 309 15 446 74 523 225
45 91 32 197 -34 268 -36 39 -42 41 -105 45 -49 3 -72 0 -91 -12 -32 -21 -33
-21 -49 17 -19 47 -71 86 -192 146 -258 126 -649 250 -974 307 -111 20 -286
28 -317 14z m1680 -608 c46 -48 33 -114 -35 -178 -44 -42 -103 -71 -185 -90
-69 -17 -243 -34 -243 -24 0 3 15 15 33 27 46 32 116 102 145 146 13 20 27 37
29 37 2 0 16 -13 30 -30 13 -16 31 -30 39 -30 24 0 36 37 25 76 -12 44 -8 55
27 77 44 27 103 22 135 -11z"/>
</g>
</svg>
