<?xml version="1.0" standalone="no"?>
<!DOCTYPE svg PUBLIC "-//W3C//DTD SVG 20010904//EN"
 "http://www.w3.org/TR/2001/REC-SVG-20010904/DTD/svg10.dtd">
<svg version="1.0" xmlns="http://www.w3.org/2000/svg"
 width="480.000000pt" height="360.000000pt" viewBox="0 0 480.000000 360.000000"
 preserveAspectRatio="xMidYMid meet">
<metadata>
Created by potrace 1.16, written by Peter Selinger 2001-2019
</metadata>
<rect width="1" height="360" fill="#000000"/>
<rect x="479" width="1" height="360" fill="#000000"/>
<rect width="480" height="1" fill="#000000"/>
<rect y="359" width="480" height="1" fill="#000000"/>
<g transform="translate(0.000000,360.000000) scale(0.100000,-0.100000)"
fill="#000000" stroke="none">
<path d="M0 1800 l0 -1800 988 0 989 0 11 118 c7 65 23 178 37 251 21 114 24
150 19 246 -5 74 -3 129 5 159 9 38 9 57 -3 99 -8 28 -15 69 -14 91 0 21 -4
42 -9 47 -13 13 -150 -66 -237 -136 -70 -55 -88 -63 -116 -45 -16 10 -50 -14
-50 -36 0 -7 -25 -62 -56 -123 -53 -105 -56 -113 -43 -139 7 -15 15 -30 17
-34 7 -14 -28 -8 -54 8 -24 17 -24 17 -14 -10 8 -21 7 -28 -5 -33 -21 -7 -53
23 -64 61 l-9 31 -3 -30 c-1 -16 -1 -42 0 -57 3 -34 -9 -35 -37 -5 -18 19 -22
36 -23 88 l0 64 -19 -63 c-20 -72 -31 -87 -56 -78 -25 10 -13 92 30 201 20 49
36 91 36 93 0 2 -8 1 -18 -2 -11 -4 -22 2 -30 15 -12 18 -11 24 10 46 13 14
39 33 58 43 44 23 160 136 160 156 0 8 11 19 25 24 14 5 29 20 34 33 7 19 30
31 103 56 82 29 282 125 316 153 20 17 14 77 -15 135 -40 83 -43 176 -9 273
45 128 86 269 86 298 0 16 15 49 35 77 33 47 108 115 127 115 9 0 31 50 25 57
-3 2 -21 -6 -41 -18 l-37 -22 -32 30 c-18 16 -44 35 -59 42 -14 8 -28 21 -31
31 -2 9 -18 20 -36 23 -34 7 -38 21 -16 51 36 47 2 82 -75 78 -38 -2 -50 2
-77 28 -18 17 -33 39 -33 49 0 29 -13 33 -27 9 -11 -21 -12 -22 -13 -3 0 37
29 209 44 259 10 33 31 65 62 97 l47 48 -27 71 c-16 40 -25 75 -20 79 5 5 31
16 57 24 44 15 53 15 84 2 20 -8 38 -15 40 -15 3 0 2 43 -2 95 -6 83 -5 95 9
95 8 0 23 -11 32 -25 9 -14 20 -25 24 -25 4 0 13 22 20 50 6 27 17 54 24 59
37 31 240 -174 273 -274 5 -17 22 -36 39 -45 71 -36 105 -66 147 -128 101
-152 143 -271 206 -587 26 -134 38 -168 106 -320 42 -93 97 -231 122 -305 l45
-135 -6 -112 c-3 -61 -11 -124 -17 -140 -6 -15 -10 -86 -10 -158 1 -109 -3
-145 -23 -220 -14 -49 -29 -101 -35 -115 -9 -23 -10 -21 -12 20 l-1 45 -12
-49 c-11 -47 -36 -76 -36 -42 0 9 -4 16 -9 16 -9 0 -51 -161 -51 -197 0 -10
-8 -35 -18 -55 -23 -43 -36 -281 -26 -451 l7 -107 984 0 983 0 0 1800 0 1800
-2400 0 -2400 0 0 -1800z"/>
<path d="M2074 1049 c-3 -6 -1 -16 5 -22 8 -8 11 -5 11 11 0 24 -5 28 -16 11z"/>
</g>
</svg>
