<?xml version="1.0" standalone="no"?>
<!DOCTYPE svg PUBLIC "-//W3C//DTD SVG 20010904//EN"
 "http://www.w3.org/TR/2001/REC-SVG-20010904/DTD/svg10.dtd">
<svg version="1.0" xmlns="http://www.w3.org/2000/svg"
 width="480.000000pt" height="360.000000pt" viewBox="0 0 480.000000 360.000000"
 preserveAspectRatio="xMidYMid meet">
<metadata>
Created by potrace 1.16, written by Peter Selinger 2001-2019
</metadata>
<rect width="1" height="360" fill="#000000"/>
<rect x="479" width="1" height="360" fill="#000000"/>
<rect width="480" height="1" fill="#000000"/>
<rect y="359" width="480" height="1" fill="#000000"/>
<g transform="translate(0.000000,360.000000) scale(0.100000,-0.100000)"
fill="#000000" stroke="none">
<path d="M0 1800 l0 -1800 1410 0 c1364 0 1410 1 1410 18 0 11 9 27 20 37 11
10 20 28 20 41 0 23 23 54 41 54 5 0 9 -26 8 -57 0 -32 1 -66 1 -75 1 -17 53
-18 946 -18 l944 0 0 480 c0 305 -4 480 -10 480 -6 0 -6 9 0 26 6 15 10 204
10 467 l0 441 -24 25 c-14 15 -32 39 -40 56 -14 26 -14 31 0 46 9 10 24 14 39
11 l25 -4 0 786 0 786 -2400 0 -2400 0 0 -1800z m1320 1720 c0 -10 -20 -39
-45 -66 -49 -51 -54 -64 -28 -64 12 0 14 -3 6 -11 -13 -13 -78 -8 -78 6 -1 6
-5 20 -9 33 -8 24 7 55 47 99 16 18 23 20 34 11 11 -9 18 -8 30 5 19 19 43 12
43 -13z m290 -7 c0 -20 -88 -113 -107 -113 -18 0 -16 -10 4 -25 15 -11 15 -13
-6 -20 -13 -4 -38 -4 -57 -1 -35 7 -56 27 -36 34 7 2 12 9 12 15 1 22 48 70
96 97 58 33 94 38 94 13z m246 -116 c11 -10 -85 -17 -125 -8 -72 16 -60 23 32
18 48 -2 90 -7 93 -10z m181 -36 c15 -19 17 -41 4 -41 -5 0 -12 -9 -16 -19 -8
-26 -67 -46 -94 -32 -19 10 -61 62 -61 75 0 3 10 6 23 6 12 1 38 9 57 20 37
20 67 17 87 -9z m1195 -304 c5 -24 4 -46 -3 -59 l-11 -21 -19 24 c-10 13 -19
41 -19 62 0 34 3 38 22 35 17 -2 24 -12 30 -41z m-3097 2 c19 -17 35 -39 35
-49 0 -16 -4 -17 -35 -7 -43 13 -75 42 -75 67 0 30 34 25 75 -11z m2087 -130
c-86 -81 -103 -75 -19 8 37 36 71 62 75 58 4 -4 -21 -33 -56 -66z m846 -100
c23 -17 42 -38 42 -47 0 -19 -29 -52 -45 -52 -16 0 -85 84 -85 103 0 37 34 36
88 -4z m-1717 -92 c-6 -8 -9 -21 -6 -29 7 -18 -14 -44 -42 -53 -36 -10 -29 22
14 66 21 21 39 36 42 34 2 -3 -1 -11 -8 -18z m-516 -54 c36 -55 -19 -77 -62
-25 -32 38 -29 52 11 52 26 0 38 -6 51 -27z m2562 -9 c-8 -9 -158 -36 -164
-30 -3 2 8 11 24 20 26 14 154 23 140 10z m-1161 -81 c-8 -41 -50 -73 -96 -73
-75 0 -79 9 -24 57 39 34 57 43 87 43 35 0 37 -1 33 -27z m-1926 -288 c0 -8
-7 -15 -15 -15 -16 0 -20 12 -8 23 11 12 23 8 23 -8z m3627 -51 c-66 -41 -83
-39 -39 6 22 21 40 30 63 30 33 0 33 0 -24 -36z m-3673 4 c18 -26 21 -94 5
-104 -15 -9 -85 15 -102 35 -16 18 -29 75 -20 85 4 3 28 6 54 6 38 0 51 -5 63
-22z m-145 -384 c35 -45 23 -50 -19 -9 -22 21 -40 43 -40 47 0 14 37 -10 59
-38z m2285 19 c-10 -48 -13 -53 -28 -47 -22 9 -28 47 -9 62 29 21 44 15 37
-15z m-1904 -2 c12 -24 13 -51 0 -71 -7 -12 -12 -12 -29 4 -24 22 -26 38 -9
66 16 25 25 25 38 1z m812 -17 c19 -6 30 -28 22 -46 -7 -17 -207 -178 -247
-200 -38 -20 -91 -22 -154 -7 -34 9 -47 9 -52 0 -6 -9 -14 -9 -34 0 -22 10
-27 19 -27 50 0 37 1 38 28 33 21 -4 40 4 87 37 33 23 99 66 148 95 85 50 89
52 150 48 34 -3 69 -7 79 -10z m3068 -45 c13 -8 11 -12 -10 -26 -14 -9 -50
-43 -81 -75 -31 -32 -59 -58 -63 -58 -15 0 50 103 86 136 42 37 46 39 68 23z
m-2170 -29 c0 -5 -8 -7 -17 -3 -10 3 -4 -7 13 -23 27 -25 31 -34 27 -64 -3
-19 -17 -48 -32 -63 -29 -32 -90 -72 -97 -65 -2 3 12 26 32 52 44 58 44 93 -1
88 -19 -2 -34 3 -42 14 -12 16 -7 21 40 44 58 30 77 35 77 20z m614 -144 c41
-54 51 -88 30 -103 -11 -8 -15 -21 -12 -37 3 -14 2 -30 -3 -37 -11 -18 -66
-15 -88 5 -27 25 -53 99 -49 143 3 34 6 38 33 41 17 2 34 8 40 13 15 14 21 11
49 -25z m-443 -149 c-13 -13 -15 41 -3 70 5 13 8 8 10 -21 2 -21 -1 -43 -7
-49z m-680 10 c23 -15 38 -37 48 -65 7 -24 11 -45 8 -48 -9 -9 -75 40 -91 67
-17 29 -21 69 -7 69 4 0 23 -10 42 -23z m676 -74 c-3 -10 -5 -4 -5 12 0 17 2
24 5 18 2 -7 2 -21 0 -30z m1531 -77 c31 -22 31 -24 13 -40 -15 -13 -19 -36
-23 -114 -3 -53 -13 -117 -21 -142 -12 -33 -13 -46 -5 -52 7 -3 16 -4 22 -1 5
3 6 1 2 -5 -4 -7 -13 -12 -21 -12 -7 0 -15 -4 -17 -10 -2 -6 -15 -6 -38 0 -19
5 -48 12 -63 15 -39 8 -24 25 22 25 l38 0 11 98 c7 53 15 109 18 125 6 26 5
27 -37 27 -24 0 -51 5 -59 10 -13 9 -13 12 1 23 9 7 19 22 23 33 14 46 85 56
134 20z m-909 -31 c23 -14 49 -25 57 -25 8 0 14 -5 14 -11 0 -16 -44 -3 -91
27 -37 23 -47 34 -31 34 4 0 27 -11 51 -25z m-1695 -154 c17 -19 17 -20 -3
-31 -16 -8 -28 -7 -53 6 -30 16 -31 17 -13 30 26 19 49 17 69 -5z m3383 -60
c16 -46 11 -132 -8 -161 -8 -12 -15 -9 -39 20 -24 28 -30 43 -30 83 0 56 24
110 47 105 8 -2 22 -23 30 -47z m-1938 -76 c50 -25 72 -45 51 -45 -17 0 -85
37 -99 54 -18 22 -11 20 48 -9z m-1140 -1 c67 -14 9 -44 -84 -44 -72 0 -84 13
-32 35 35 16 69 18 116 9z m657 -69 c19 -14 19 -14 -2 -15 -11 0 -29 7 -40 15
-19 14 -19 14 2 15 11 0 29 -7 40 -15z m-1231 -135 c31 -20 36 -26 21 -28 -20
-4 -67 26 -74 47 -5 16 0 14 53 -19z m2633 4 c2 -12 14 -27 28 -34 29 -16 30
-26 5 -40 -27 -14 -52 -13 -97 6 l-39 16 28 22 c15 12 27 30 27 40 0 26 44 17
48 -10z m393 -54 c11 -6 19 -21 19 -35 0 -14 9 -34 21 -46 29 -29 19 -43 -40
-53 -42 -7 -59 -6 -87 7 -39 19 -43 36 -15 61 11 10 18 23 15 29 -6 18 9 35
36 40 14 2 26 5 28 6 2 0 12 -4 23 -9z m-2843 -32 c8 -8 6 -17 -9 -36 l-20
-26 26 -24 c14 -13 24 -29 22 -35 -4 -12 -120 -47 -159 -47 -34 0 -118 40
-118 56 0 6 24 19 53 29 61 20 77 31 77 55 0 33 101 55 128 28z m820 -67 c61
-33 -19 -38 -123 -8 l-40 12 30 5 c46 9 108 4 133 -9z m-636 -73 c-9 -9 -15
-9 -24 0 -9 9 -7 12 12 12 19 0 21 -3 12 -12z m294 -141 c-5 -112 -32 -149
-60 -82 -16 37 -8 85 14 85 5 0 10 9 10 19 0 30 11 51 25 51 11 0 13 -17 11
-73z m116 -51 c13 -19 8 -40 -17 -71 -27 -33 -29 -33 -49 16 -13 32 -13 38 0
58 16 23 51 21 66 -3z m1063 5 c-11 -10 -41 -15 -65 -11 -8 2 1 6 20 10 52 11
55 11 45 1z m-1782 -89 c24 -27 18 -195 -7 -200 -28 -6 -64 26 -75 65 -17 59
17 153 54 153 7 0 19 -8 28 -18z m-393 -20 c0 -18 -57 -61 -95 -71 -52 -14
-65 -14 -65 2 0 15 47 62 70 70 24 9 90 8 90 -1z m2310 -29 c0 -28 -72 -57
-93 -37 -8 8 11 57 26 66 11 7 67 -17 67 -29z m-904 -55 c4 -35 8 -72 9 -83 1
-11 -5 -31 -14 -44 -15 -24 -16 -24 -28 35 -15 74 -16 120 -2 145 16 30 26 15
35 -53z m1546 43 c-1 -7 5 -26 15 -42 14 -23 15 -33 6 -47 -11 -17 -50 -19
-65 -4 -14 14 3 72 20 72 12 0 13 3 4 12 -17 17 -15 30 6 26 9 -2 16 -10 14
-17z m-512 -84 c0 -7 -6 -19 -12 -26 -10 -11 -10 -14 -1 -18 7 -3 23 -13 35
-22 l22 -18 -35 -31 c-76 -70 -167 -46 -109 28 11 14 20 34 20 44 0 11 7 28
17 38 19 21 63 24 63 5z"/>
</g>
</svg>
