<?xml version="1.0" standalone="no"?>
<!DOCTYPE svg PUBLIC "-//W3C//DTD SVG 20010904//EN"
 "http://www.w3.org/TR/2001/REC-SVG-20010904/DTD/svg10.dtd">
<svg version="1.0" xmlns="http://www.w3.org/2000/svg"
 width="480.000000pt" height="360.000000pt" viewBox="0 0 480.000000 360.000000"
 preserveAspectRatio="xMidYMid meet">
<metadata>
Created by potrace 1.16, written by Peter Selinger 2001-2019
</metadata>
<rect width="1" height="360" fill="#000000"/>
<rect x="479" width="1" height="360" fill="#000000"/>
<rect width="480" height="1" fill="#000000"/>
<rect y="359" width="480" height="1" fill="#000000"/>
<g transform="translate(0.000000,360.000000) scale(0.100000,-0.100000)"
fill="#000000" stroke="none">
<path d="M1802 2550 c-40 -17 -112 -70 -130 -98 -9 -14 -20 -58 -24 -97 -4
-38 -10 -92 -14 -120 -5 -42 -1 -58 23 -105 23 -44 40 -61 82 -85 l54 -30 2
-140 c2 -130 9 -177 46 -317 30 -113 140 -157 257 -103 30 14 57 25 61 25 7 0
38 -141 60 -269 12 -75 8 -137 -11 -158 -35 -40 -50 -154 -23 -189 8 -11 15
-42 15 -74 1 -86 15 -141 41 -162 56 -45 105 -59 212 -60 56 0 113 1 126 3 20
3 32 -8 76 -76 81 -123 116 -158 155 -158 19 0 36 5 38 12 3 8 13 20 23 29 23
20 15 35 -61 117 -79 85 -98 115 -79 125 8 5 32 22 53 39 22 17 63 38 92 47
29 8 58 21 64 29 18 22 32 18 63 -14 35 -38 160 -121 180 -121 25 0 75 33 89
58 19 36 -6 69 -102 134 -47 32 -86 62 -88 68 -2 6 14 30 35 53 95 103 193
272 193 331 0 19 18 87 40 153 22 65 40 134 40 154 l0 36 -65 6 c-36 4 -75 12
-87 18 -12 6 -67 14 -122 16 -107 4 -152 -5 -299 -61 -77 -29 -142 -33 -168
-10 -16 14 -15 17 7 39 13 13 24 31 24 39 0 33 -26 69 -64 88 -23 11 -50 28
-61 38 -11 10 -56 37 -100 60 -44 23 -87 48 -96 56 -18 17 -39 79 -39 119 0
74 -71 136 -172 150 -27 4 -48 12 -48 17 0 6 9 8 21 5 29 -8 32 9 19 104 -14
103 -36 154 -86 202 -30 29 -46 37 -70 35 -18 -1 -38 3 -45 9 -25 20 -78 43
-96 42 -10 0 -28 -4 -41 -9z m757 -884 c7 -8 23 -17 37 -20 22 -6 23 -8 9 -22
-14 -14 -19 -13 -49 13 -19 15 -35 31 -35 36 -2 12 26 8 38 -7z"/>
</g>
</svg>
