<?xml version="1.0" standalone="no"?>
<!DOCTYPE svg PUBLIC "-//W3C//DTD SVG 20010904//EN"
 "http://www.w3.org/TR/2001/REC-SVG-20010904/DTD/svg10.dtd">
<svg version="1.0" xmlns="http://www.w3.org/2000/svg"
 width="480.000000pt" height="360.000000pt" viewBox="0 0 480.000000 360.000000"
 preserveAspectRatio="xMidYMid meet">
<metadata>
Created by potrace 1.16, written by Peter Selinger 2001-2019
</metadata>
<rect width="1" height="360" fill="#000000"/>
<rect x="479" width="1" height="360" fill="#000000"/>
<rect width="480" height="1" fill="#000000"/>
<rect y="359" width="480" height="1" fill="#000000"/>
<g transform="translate(0.000000,360.000000) scale(0.100000,-0.100000)"
fill="#000000" stroke="none">
<path d="M0 1800 l0 -1800 925 0 925 0 0 38 c0 21 -6 47 -14 57 -13 18 -15 17
-65 -13 -28 -18 -58 -32 -66 -32 -19 0 -39 41 -54 112 -11 50 -10 60 5 84 15
22 23 25 53 21 20 -3 44 -8 53 -12 16 -6 17 6 15 178 -2 152 -4 182 -14 164
-10 -18 -12 0 -13 105 l0 127 -35 -15 c-48 -20 -82 -18 -142 10 -71 34 -94 73
-143 251 -30 107 -59 184 -102 270 -61 124 -61 123 -45 217 3 15 12 37 21 50
9 12 16 26 16 29 0 4 -25 22 -56 40 -65 37 -89 72 -106 152 -11 55 -16 61 -58
85 -25 14 -52 31 -60 38 -8 6 -28 15 -45 18 -16 4 -61 24 -100 44 l-70 38 0
69 c0 81 12 102 84 151 56 38 61 59 26 130 -36 73 -64 155 -58 169 2 7 15 17
29 24 36 16 44 49 44 190 0 108 -3 132 -18 152 -31 41 -71 115 -108 201 -35
80 -37 89 -41 228 -5 122 -3 151 11 177 9 18 16 37 16 43 0 7 -129 10 -405 10
l-405 0 0 -1800z"/>
<path d="M1967 3553 c9 -76 36 -145 65 -166 39 -29 69 -17 102 43 29 53 67 73
116 60 44 -11 52 -42 46 -180 -5 -128 -20 -201 -57 -286 -12 -26 -25 -74 -29
-107 -6 -56 -5 -59 24 -83 22 -20 36 -24 55 -19 48 13 149 17 169 6 15 -8 33
-3 87 25 38 18 73 34 78 34 5 0 22 10 39 21 29 21 29 21 8 33 -39 20 -68 143
-81 336 -5 80 -13 163 -19 185 -5 22 -10 64 -10 93 l0 52 -115 0 c-101 0 -116
-2 -121 -17 -18 -57 -44 -64 -56 -15 l-9 32 -149 0 -150 0 7 -47z"/>
<path d="M2935 3518 c7 -86 16 -108 44 -108 9 0 27 -7 40 -17 23 -16 25 -15
43 6 20 25 21 46 12 140 l-7 61 -70 0 -70 0 8 -82z"/>
<path d="M3710 3558 c-21 -71 -26 -240 -17 -608 5 -208 18 -239 80 -190 14 11
32 20 41 20 14 0 16 9 14 50 -2 28 1 49 7 49 6 0 9 -16 9 -35 -1 -25 6 -43 23
-60 22 -22 24 -30 21 -121 -1 -86 1 -106 25 -164 38 -92 36 -145 -6 -200 -21
-28 -45 -47 -68 -54 -19 -5 -44 -20 -57 -32 -12 -13 -32 -23 -45 -23 -12 0
-34 -8 -47 -17 -27 -18 -90 -84 -90 -94 0 -4 18 -9 41 -12 51 -7 89 -41 89
-79 0 -26 -6 -32 -59 -55 -57 -25 -60 -28 -81 -87 -30 -82 -63 -124 -118 -147
-26 -11 -48 -22 -50 -23 -2 -2 8 -21 23 -41 39 -58 35 -128 -14 -247 -47 -111
-63 -172 -102 -372 -19 -99 -36 -159 -50 -181 -43 -62 -132 -101 -206 -91 -39
5 -44 4 -39 -12 3 -9 1 -51 -4 -92 -13 -100 -33 -391 -27 -397 3 -2 16 2 29
10 12 8 42 18 66 22 69 11 84 -22 61 -139 -16 -79 -34 -86 -105 -45 -31 18
-59 28 -64 23 -5 -5 -12 -33 -16 -61 l-7 -53 917 0 916 0 0 1800 0 1800 -538
0 -539 0 -13 -42z"/>
<path d="M3222 3565 c-17 -36 -15 -65 4 -72 22 -8 36 16 29 52 -8 42 -20 49
-33 20z"/>
<path d="M1640 3453 c-5 -21 -13 -67 -16 -103 -5 -53 -3 -68 9 -79 22 -17 49
-10 62 16 6 11 17 28 24 37 22 26 8 102 -25 137 -15 16 -31 29 -35 29 -5 0
-13 -17 -19 -37z"/>
<path d="M1835 1950 c-3 -11 -2 -28 4 -37 8 -15 10 -11 11 20 0 41 -5 47 -15
17z"/>
<path d="M2935 1744 c10 -254 15 -304 37 -318 9 -5 20 -7 24 -3 4 4 11 51 15
105 6 89 28 196 45 224 8 12 7 99 -2 139 -4 20 -13 28 -37 33 -18 3 -45 9 -61
12 l-29 7 8 -199z"/>
<path d="M1815 1860 c-16 -17 -37 -30 -46 -30 -10 0 -20 -4 -23 -9 -3 -4 -18
-11 -34 -14 -20 -4 -31 -15 -40 -40 -12 -32 -10 -38 19 -85 24 -39 34 -70 43
-139 8 -57 16 -88 24 -87 7 1 21 2 32 3 12 0 25 12 30 25 7 19 30 393 25 403
-1 2 -14 -11 -30 -27z"/>
<path d="M3140 1874 c0 -8 5 -12 10 -9 6 4 8 11 5 16 -9 14 -15 11 -15 -7z"/>
<path d="M1791 298 c0 -13 4 -32 9 -43 7 -15 9 -10 9 23 1 23 -3 42 -9 42 -5
0 -10 -10 -9 -22z"/>
<path d="M2851 294 c0 -11 3 -14 6 -6 3 7 2 16 -1 19 -3 4 -6 -2 -5 -13z"/>
<path d="M2896 88 c-11 -44 -7 -88 9 -88 12 0 15 13 15 55 0 56 -13 73 -24 33z"/>
</g>
</svg>
