<?xml version="1.0" standalone="no"?>
<!DOCTYPE svg PUBLIC "-//W3C//DTD SVG 20010904//EN"
 "http://www.w3.org/TR/2001/REC-SVG-20010904/DTD/svg10.dtd">
<svg version="1.0" xmlns="http://www.w3.org/2000/svg"
 width="480.000000pt" height="360.000000pt" viewBox="0 0 480.000000 360.000000"
 preserveAspectRatio="xMidYMid meet">
<metadata>
Created by potrace 1.16, written by Peter Selinger 2001-2019
</metadata>
<rect width="1" height="360" fill="#000000"/>
<rect x="479" width="1" height="360" fill="#000000"/>
<rect width="480" height="1" fill="#000000"/>
<rect y="359" width="480" height="1" fill="#000000"/>
<g transform="translate(0.000000,360.000000) scale(0.100000,-0.100000)"
fill="#000000" stroke="none">
<path d="M0 1800 l0 -1800 814 0 813 0 6 38 c4 20 9 85 13 144 l7 107 -46 51
c-49 55 -84 118 -90 164 -6 46 11 128 31 156 11 14 23 41 27 59 4 18 16 42 27
53 l21 21 -30 23 c-27 21 -31 30 -36 99 -5 52 -3 82 5 95 10 16 9 23 -8 42
-36 39 -37 47 -10 79 14 17 26 41 26 53 0 32 24 61 44 53 34 -13 45 2 39 58
-10 95 13 135 76 135 l38 0 6 53 c4 28 9 102 12 162 8 153 12 169 37 180 15 7
28 29 40 70 32 102 60 168 91 214 l30 44 -6 401 -6 401 32 99 c33 101 58 136
77 106 6 -10 10 64 10 213 l0 227 -1045 0 -1045 0 0 -1800z"/>
<path d="M2090 2927 c0 -117 -3 -458 -7 -757 -4 -371 -3 -541 4 -537 6 4 14
64 18 134 6 120 9 130 36 167 43 60 38 138 -14 195 l-22 23 33 -7 c28 -6 32
-4 32 13 0 12 -13 31 -28 44 l-28 23 12 295 c21 510 21 530 1 572 -10 20 -22
40 -27 43 -6 4 -10 -72 -10 -208z"/>
<path d="M2044 1604 c-20 -8 -34 -23 -38 -40 -9 -36 0 -42 27 -16 13 12 29 22
35 22 9 0 12 -186 12 -785 l0 -785 330 0 329 0 -8 23 c-6 17 -19 24 -54 29
-56 8 -67 14 -67 37 0 22 -40 83 -85 131 -31 33 -33 40 -37 120 -4 58 -1 95 9
117 23 55 17 133 -15 197 -28 55 -29 68 -3 43 11 -10 12 -7 7 18 -4 17 -9 38
-13 49 -4 16 -1 18 21 12 33 -8 33 1 0 35 l-26 27 28 54 c20 36 36 54 52 56
27 4 27 11 1 62 -22 42 -19 76 5 67 8 -3 17 -3 20 0 7 7 -40 101 -64 128 -13
14 -19 41 -22 92 -6 109 -34 129 -145 101 l-47 -11 -35 44 c-53 66 -123 130
-153 141 -15 5 -28 17 -30 27 -3 16 -6 16 -34 5z m423 -1012 c14 -34 9 -102
-8 -102 -5 0 -9 4 -9 9 0 11 -85 41 -117 41 -27 0 -27 2 -11 47 12 34 28 44
28 18 0 -8 5 -15 10 -15 10 0 20 19 34 64 6 18 8 18 33 -5 14 -13 32 -39 40
-57z"/>
<path d="M1565 581 c-25 -56 -14 -105 35 -153 21 -21 43 -38 49 -38 7 0 11 22
11 59 0 47 -6 68 -32 114 -18 31 -36 56 -39 57 -3 0 -14 -18 -24 -39z"/>
<path d="M1680 23 c0 -13 5 -23 10 -23 13 0 13 11 0 30 -8 12 -10 11 -10 -7z"/>
</g>
</svg>
