<?xml version="1.0" standalone="no"?>
<!DOCTYPE svg PUBLIC "-//W3C//DTD SVG 20010904//EN"
 "http://www.w3.org/TR/2001/REC-SVG-20010904/DTD/svg10.dtd">
<svg version="1.0" xmlns="http://www.w3.org/2000/svg"
 width="480.000000pt" height="360.000000pt" viewBox="0 0 480.000000 360.000000"
 preserveAspectRatio="xMidYMid meet">
<metadata>
Created by potrace 1.16, written by Peter Selinger 2001-2019
</metadata>
<rect width="1" height="360" fill="#000000"/>
<rect x="479" width="1" height="360" fill="#000000"/>
<rect width="480" height="1" fill="#000000"/>
<rect y="359" width="480" height="1" fill="#000000"/>
<g transform="translate(0.000000,360.000000) scale(0.100000,-0.100000)"
fill="#000000" stroke="none">
<path d="M3005 3469 c-135 -76 -135 -76 -128 -170 l6 -78 -89 -42 c-108 -51
-166 -107 -229 -223 -45 -84 -49 -100 -60 -246 -5 -74 -5 -75 13 -51 l19 23 0
-58 c0 -61 9 -105 21 -102 4 1 22 -12 41 -30 18 -18 38 -32 45 -33 6 0 22 -14
35 -31 l25 -31 -32 -28 c-39 -35 -40 -53 -4 -76 37 -23 52 -43 52 -69 0 -13 8
-29 18 -36 20 -16 36 -39 62 -94 27 -57 43 -68 85 -60 31 6 35 4 41 -19 7 -28
24 -24 24 6 0 10 5 19 10 19 6 0 10 -4 10 -10 0 -23 19 -8 25 20 12 56 25 31
25 -49 l0 -79 -47 -38 c-27 -21 -70 -59 -98 -85 -27 -25 -63 -49 -80 -53 -40
-10 -72 -41 -86 -85 -7 -20 -29 -56 -50 -80 -45 -51 -63 -105 -54 -164 6 -36
1 -54 -28 -112 -48 -97 -68 -159 -74 -237 -3 -38 -9 -68 -12 -68 -3 0 -34 42
-69 93 -34 50 -75 110 -92 132 -22 29 -34 63 -46 125 -8 46 -22 100 -30 118
-21 50 -18 60 19 66 17 3 104 17 192 31 235 38 224 48 -42 42 l-221 -5 -23 24
c-23 24 -115 64 -148 64 -10 0 -24 -6 -30 -14 -6 -7 -29 -16 -51 -20 -29 -4
-42 -13 -52 -33 -18 -38 -65 -62 -139 -72 -35 -4 -70 -10 -78 -12 -8 -3 -44
44 -95 126 -81 127 -83 130 -121 133 -21 2 -44 11 -51 20 -17 23 -82 24 -89 1
-3 -10 -17 -34 -31 -54 l-24 -36 87 -140 c49 -76 97 -153 107 -170 13 -21 19
-47 17 -76 -1 -27 6 -61 19 -91 12 -26 23 -69 25 -97 3 -58 56 -192 86 -217
12 -10 31 -18 43 -18 11 -1 104 -42 206 -93 180 -89 186 -93 220 -146 26 -41
68 -78 185 -165 82 -62 162 -121 178 -130 36 -24 34 -41 -7 -87 -50 -54 -56
-110 -22 -185 14 -31 26 -69 26 -85 l0 -29 630 0 630 0 0 33 c0 51 -102 187
-141 187 -20 0 -22 7 -50 190 -15 99 -23 198 -24 312 -2 178 -10 209 -55 223
-13 4 -20 15 -20 31 0 30 3 30 41 2 24 -18 47 -24 110 -27 89 -4 119 3 101 21
-24 24 -11 31 46 24 62 -7 79 -1 60 21 -16 19 -10 22 70 29 l72 7 21 56 c33
90 59 92 59 5 0 -58 13 -71 26 -26 l7 27 7 -30 c4 -17 1 -45 -6 -65 -14 -37
-38 -199 -31 -206 2 -2 28 27 57 66 53 72 68 83 51 38 -9 -25 -25 -131 -35
-236 -5 -51 7 -71 19 -32 15 47 25 12 27 -98 l3 -117 43 59 c23 33 42 57 42
55 0 -2 -7 -40 -15 -84 -17 -93 -19 -135 -6 -135 5 0 32 21 60 46 28 25 51 42
51 37 0 -5 -9 -48 -19 -96 -10 -48 -15 -87 -11 -87 5 0 18 12 29 28 l20 27 -5
-55 -5 -55 25 30 26 30 1 -25 c0 -16 8 -2 23 40 25 73 55 134 62 127 3 -3 -2
-32 -10 -64 -21 -81 -58 -304 -52 -311 3 -2 13 1 23 9 11 9 14 10 9 2 -6 -10
33 -13 182 -13 l190 0 11 75 c7 51 11 326 11 838 l0 763 -62 33 c-94 50 -224
136 -304 202 -101 82 -243 236 -311 335 l-57 85 -24 -53 c-13 -29 -33 -64 -46
-78 -12 -14 -40 -50 -61 -80 -59 -84 -138 -172 -145 -160 -5 8 27 167 36 179
2 2 10 -2 19 -9 21 -18 18 0 -5 30 -21 27 -26 45 -10 35 15 -10 12 5 -22 106
-30 89 -32 105 -39 299 -8 246 -15 275 -106 409 -83 122 -139 180 -230 238
-72 46 -72 46 -79 99 -6 48 -11 57 -51 90 -43 36 -154 84 -191 84 -9 0 -57
-23 -107 -51z m-285 -1024 c0 -5 -5 -3 -10 5 -5 8 -10 20 -10 25 0 6 5 3 10
-5 5 -8 10 -19 10 -25z m1014 -437 c7 -13 16 -42 19 -65 5 -39 2 -44 -45 -92
-27 -28 -54 -51 -59 -51 -5 0 -9 12 -9 26 0 21 4 25 19 21 20 -5 20 -5 37 131
7 57 16 64 38 30z m43 -80 c-3 -8 -6 -5 -6 6 -1 11 2 17 5 13 3 -3 4 -12 1
-19z m-195 -40 c-9 -9 -12 -7 -12 12 0 19 3 21 12 12 9 -9 9 -15 0 -24z m-3
-57 c-3 -73 -12 -93 -63 -129 -26 -18 -52 -30 -56 -25 -9 9 -50 143 -50 163 0
9 3 10 13 1 8 -6 17 -8 20 -4 4 3 22 -10 41 -31 19 -20 37 -33 39 -29 2 5 7
29 11 54 6 40 10 46 26 42 16 -4 20 -13 19 -42z m-1856 -325 c18 -7 47 -11 65
-8 31 4 33 2 58 -52 23 -51 28 -56 57 -56 29 0 39 -9 90 -80 35 -49 68 -108
82 -149 12 -37 43 -103 68 -147 25 -43 43 -81 42 -82 -11 -12 -68 39 -90 80
-15 27 -43 64 -63 81 -151 135 -210 199 -278 305 -41 62 -74 114 -74 117 0 8
8 6 43 -9z m2181 -402 c14 -36 4 -43 -29 -18 -17 13 -18 16 -5 24 21 13 27 12
34 -6z m-490 -446 c18 -141 21 -267 7 -253 -5 6 -24 47 -41 93 -34 89 -34 100
-8 251 14 84 23 65 42 -91z"/>
</g>
</svg>
