<?xml version="1.0" standalone="no"?>
<!DOCTYPE svg PUBLIC "-//W3C//DTD SVG 20010904//EN"
 "http://www.w3.org/TR/2001/REC-SVG-20010904/DTD/svg10.dtd">
<svg version="1.0" xmlns="http://www.w3.org/2000/svg"
 width="480.000000pt" height="360.000000pt" viewBox="0 0 480.000000 360.000000"
 preserveAspectRatio="xMidYMid meet">
<metadata>
Created by potrace 1.16, written by Peter Selinger 2001-2019
</metadata>
<rect width="1" height="360" fill="#000000"/>
<rect x="479" width="1" height="360" fill="#000000"/>
<rect width="480" height="1" fill="#000000"/>
<rect y="359" width="480" height="1" fill="#000000"/>
<g transform="translate(0.000000,360.000000) scale(0.100000,-0.100000)"
fill="#000000" stroke="none">
<path d="M0 1800 l0 -1800 1029 0 1028 0 7 61 c3 34 6 81 6 105 0 23 4 45 8
48 5 3 12 59 15 124 3 66 15 159 27 206 11 48 22 110 23 138 l2 51 -40 13
c-22 7 -94 29 -160 50 -131 40 -301 108 -325 129 -8 7 -38 22 -67 33 -48 18
-229 130 -263 163 -8 8 -47 43 -87 78 -40 35 -75 72 -79 83 -8 28 18 53 84 78
31 13 84 36 118 51 61 29 218 63 344 74 36 3 110 9 166 14 55 5 112 7 127 4
21 -4 39 5 92 52 36 32 63 60 61 63 -3 2 -21 -3 -40 -12 -85 -40 -121 -7 -117
108 1 39 5 89 9 111 l8 40 64 -1 c37 -1 91 -11 125 -23 32 -12 62 -21 66 -21
20 0 -12 162 -47 237 -13 30 -24 57 -24 61 0 4 -10 19 -23 35 l-22 27 -50 -16
c-52 -16 -137 -14 -143 4 -1 5 -23 7 -47 4 -25 -2 -50 0 -57 6 -9 7 -29 7 -58
2 -77 -15 -179 -11 -338 14 -147 23 -154 25 -205 64 -28 22 -74 50 -100 62
-47 22 -82 60 -55 60 55 -1 158 -25 233 -55 55 -21 105 -35 130 -34 22 1 31 3
20 6 -26 6 -44 23 -25 23 23 0 89 34 90 46 0 7 -10 15 -22 19 l-23 6 25 8 c14
4 43 17 65 28 22 11 60 24 85 27 108 17 248 50 281 67 20 10 51 32 68 49 29
29 31 36 31 103 0 40 3 82 6 94 4 16 0 23 -18 28 -34 11 -88 54 -88 71 0 17
47 39 108 49 23 4 42 9 42 11 0 3 -14 32 -30 65 -26 50 -28 60 -15 65 8 3 31
-4 51 -15 32 -19 40 -20 73 -9 20 6 79 13 131 15 52 1 102 3 110 3 8 0 31 0
50 0 19 -1 57 8 83 19 58 25 63 26 47 6 -11 -13 -8 -15 21 -15 l34 -1 -41 -38
c-22 -21 -46 -40 -54 -43 -11 -3 -8 -11 13 -30 31 -29 35 -48 9 -48 -40 0 -30
-15 28 -41 82 -38 78 -57 -16 -84 -17 -4 -23 -15 -26 -46 -5 -54 6 -69 50 -70
20 0 60 -7 87 -14 42 -11 47 -14 28 -20 -41 -13 -15 -22 89 -29 116 -8 239
-24 247 -32 3 -3 -1 -9 -8 -13 -10 -6 -10 -10 -1 -16 8 -5 6 -11 -7 -20 -16
-12 -12 -15 45 -31 59 -16 82 -34 45 -34 -14 0 -15 -2 -5 -9 7 -4 12 -12 11
-17 -6 -35 3 -42 64 -53 81 -14 207 -14 244 0 15 6 63 14 107 19 71 7 81 6
102 -12 35 -31 11 -48 -64 -45 -54 1 -65 -2 -99 -29 -21 -17 -45 -34 -53 -39
-8 -5 -96 -10 -195 -12 -198 -4 -262 -16 -329 -61 -36 -25 -47 -27 -123 -25
-54 2 -82 -1 -78 -7 3 -6 11 -10 17 -10 5 0 25 -7 43 -16 19 -9 60 -24 92 -34
81 -25 33 -25 -122 0 -66 11 -124 20 -129 20 -15 0 4 -187 25 -253 11 -34 20
-78 21 -97 0 -21 21 -78 52 -140 60 -122 68 -126 168 -90 33 12 62 20 64 17 3
-2 0 -26 -7 -53 -8 -35 -21 -58 -46 -80 l-35 -31 31 -35 c36 -42 194 -121 273
-137 43 -9 63 -20 95 -54 22 -23 45 -50 50 -60 14 -26 4 -66 -18 -78 -28 -14
-23 -27 17 -51 36 -21 36 -22 13 -31 -13 -4 -87 -6 -164 -2 l-140 7 -64 -32
c-63 -31 -121 -81 -121 -104 0 -6 -29 -31 -65 -55 -50 -33 -78 -44 -121 -48
-47 -5 -57 -10 -65 -30 -5 -12 -13 -103 -19 -201 -6 -97 -17 -208 -25 -245
-11 -51 -11 -73 -3 -86 8 -13 7 -35 -4 -84 l-15 -67 1153 0 1154 0 0 1800 0
1800 -2400 0 -2400 0 0 -1800z"/>
<path d="M2025 2436 c-16 -13 -41 -27 -55 -31 -22 -7 -16 -10 39 -23 36 -8 67
-10 72 -5 9 9 -7 83 -19 83 -4 0 -20 -11 -37 -24z"/>
<path d="M1781 2336 c-58 -17 -98 -32 -90 -33 24 -5 203 43 207 56 5 14 7 14
-117 -23z"/>
<path d="M2322 612 c-7 -29 -23 -132 -37 -228 -19 -136 -23 -180 -14 -191 9
-10 9 -23 1 -51 -6 -20 -14 -61 -18 -89 l-7 -53 38 0 37 0 -7 89 c-5 61 -3 91
4 95 6 4 11 38 11 80 0 40 5 131 11 202 7 82 7 143 1 164 l-9 35 -11 -53z"/>
</g>
</svg>
