<?xml version="1.0" standalone="no"?>
<!DOCTYPE svg PUBLIC "-//W3C//DTD SVG 20010904//EN"
 "http://www.w3.org/TR/2001/REC-SVG-20010904/DTD/svg10.dtd">
<svg version="1.0" xmlns="http://www.w3.org/2000/svg"
 width="480.000000pt" height="360.000000pt" viewBox="0 0 480.000000 360.000000"
 preserveAspectRatio="xMidYMid meet">
<metadata>
Created by potrace 1.16, written by Peter Selinger 2001-2019
</metadata>
<rect width="1" height="360" fill="#000000"/>
<rect x="479" width="1" height="360" fill="#000000"/>
<rect width="480" height="1" fill="#000000"/>
<rect y="359" width="480" height="1" fill="#000000"/>
<g transform="translate(0.000000,360.000000) scale(0.100000,-0.100000)"
fill="#000000" stroke="none">
<path d="M1116 3548 c-225 -796 -312 -1150 -385 -1553 -116 -646 -129 -1261
-39 -1902 l12 -93 1707 0 1706 0 27 69 c64 164 172 336 340 541 176 215 234
325 251 476 8 75 -17 378 -51 604 -63 420 -66 512 -28 789 4 29 2 41 -5 36 -6
-3 -11 1 -11 10 0 12 -6 15 -20 10 -15 -5 -20 -2 -20 12 0 10 -7 27 -16 38
-13 17 -16 18 -24 5 -6 -8 -13 -25 -16 -37 -8 -31 -24 -29 -24 3 0 14 -4 23
-9 20 -5 -4 -11 0 -14 6 -3 9 -11 4 -25 -12 -20 -23 -21 -24 -22 -5 0 17 -2
17 -10 5 -17 -27 -12 10 15 100 14 46 25 99 25 119 0 58 40 187 76 248 l35 57
-30 23 c-20 16 -33 39 -42 73 l-13 50 -48 0 c-129 0 -249 128 -281 301 l-12
59 -1517 0 -1517 0 -15 -52z"/>
</g>
</svg>
