<?xml version="1.0" standalone="no"?>
<!DOCTYPE svg PUBLIC "-//W3C//DTD SVG 20010904//EN"
 "http://www.w3.org/TR/2001/REC-SVG-20010904/DTD/svg10.dtd">
<svg version="1.0" xmlns="http://www.w3.org/2000/svg"
 width="480.000000pt" height="360.000000pt" viewBox="0 0 480.000000 360.000000"
 preserveAspectRatio="xMidYMid meet">
<metadata>
Created by potrace 1.16, written by Peter Selinger 2001-2019
</metadata>
<rect width="1" height="360" fill="#000000"/>
<rect x="479" width="1" height="360" fill="#000000"/>
<rect width="480" height="1" fill="#000000"/>
<rect y="359" width="480" height="1" fill="#000000"/>
<g transform="translate(0.000000,360.000000) scale(0.100000,-0.100000)"
fill="#000000" stroke="none">
<path d="M570 3593 c1 -5 7 -19 15 -33 10 -18 14 -20 15 -8 0 23 -11 48 -21
48 -5 0 -9 -3 -9 -7z"/>
<path d="M620 3568 c-1 -18 -2 -69 -4 -113 -2 -44 -4 -113 -5 -152 -1 -66 -3
-73 -21 -73 -11 0 -20 -5 -20 -11 0 -7 -12 -9 -35 -5 -40 8 -42 2 -18 -49 16
-34 16 -44 -1 -188 -9 -84 -24 -195 -32 -247 -14 -93 -34 -274 -38 -337 -1
-17 -9 -40 -19 -51 -9 -10 -17 -26 -17 -35 0 -12 34 -44 79 -74 2 -1 -4 -42
-12 -90 -8 -48 -21 -131 -27 -183 -7 -52 -21 -152 -31 -222 -10 -70 -19 -141
-19 -158 0 -22 -8 -38 -25 -52 -25 -20 -65 -86 -65 -109 0 -7 -10 -26 -23 -43
-13 -17 -43 -64 -67 -105 -38 -63 -42 -76 -31 -93 14 -22 3 -43 -28 -53 -9 -3
-39 -46 -65 -97 -40 -74 -47 -95 -37 -109 14 -24 7 -41 -29 -68 l-30 -22 0
-414 0 -415 2400 0 2400 0 0 238 0 239 -37 11 c-54 15 -145 30 -235 38 -59 5
-79 11 -82 23 -6 21 -34 174 -51 281 -8 47 -21 173 -30 280 -19 246 -31 316
-65 412 -39 106 -88 177 -195 283 -106 105 -198 171 -351 251 -60 32 -111 59
-112 60 -6 4 18 73 69 196 27 64 46 124 43 132 -4 10 -31 16 -100 21 -61 5
-94 11 -94 19 0 7 18 66 40 131 95 281 130 494 130 792 l0 193 -1555 0 -1555
0 0 -32z m388 -365 c24 -53 11 -88 -25 -65 -12 8 -7 92 6 92 3 0 12 -12 19
-27z m706 -494 c3 -18 2 -37 -2 -43 -5 -6 -14 -31 -21 -56 -7 -25 -17 -50 -21
-55 -5 -6 -24 -53 -44 -105 -62 -171 -55 -159 -106 -166 -25 -4 -55 -10 -67
-15 -12 -5 -25 -4 -27 0 -5 8 51 153 77 197 24 42 118 174 124 174 3 0 12 -8
19 -17 12 -16 13 -13 14 24 0 80 41 126 54 62z"/>
</g>
</svg>
