<?xml version="1.0" standalone="no"?>
<!DOCTYPE svg PUBLIC "-//W3C//DTD SVG 20010904//EN"
 "http://www.w3.org/TR/2001/REC-SVG-20010904/DTD/svg10.dtd">
<svg version="1.0" xmlns="http://www.w3.org/2000/svg"
 width="480.000000pt" height="360.000000pt" viewBox="0 0 480.000000 360.000000"
 preserveAspectRatio="xMidYMid meet">
<metadata>
Created by potrace 1.16, written by Peter Selinger 2001-2019
</metadata>
<rect width="1" height="360" fill="#000000"/>
<rect x="479" width="1" height="360" fill="#000000"/>
<rect width="480" height="1" fill="#000000"/>
<rect y="359" width="480" height="1" fill="#000000"/>
<g transform="translate(0.000000,360.000000) scale(0.100000,-0.100000)"
fill="#000000" stroke="none">
<path d="M2846 3372 c-3 -6 5 -19 19 -29 13 -10 45 -33 70 -52 25 -19 44 -35
42 -37 -2 -3 -24 3 -48 12 -24 9 -90 19 -147 21 -143 8 -214 -12 -287 -79 -30
-27 -61 -66 -70 -86 l-17 -37 -92 0 c-73 0 -98 -4 -121 -19 l-29 -19 41 -38
c38 -35 43 -37 79 -29 53 12 62 -2 17 -26 -33 -17 -39 -25 -43 -64 -3 -25 -12
-55 -19 -68 -11 -20 -9 -27 13 -57 14 -18 50 -54 80 -79 73 -63 83 -89 87
-221 l4 -110 -92 -6 c-63 -4 -100 -11 -119 -24 -15 -10 -49 -24 -76 -31 l-49
-13 -94 59 c-51 32 -102 60 -112 62 -12 2 -17 11 -15 26 2 15 -2 22 -13 22 -8
0 -24 5 -35 12 -15 10 -22 9 -38 -5 -10 -9 -28 -17 -39 -17 -37 0 -82 -21 -89
-42 -3 -11 -3 -22 0 -25 3 -3 -21 -22 -52 -43 -68 -44 -152 -131 -181 -187
-61 -120 -15 -225 115 -258 71 -18 124 -10 324 49 150 45 322 74 329 55 7 -21
91 -108 110 -114 9 -3 36 -32 59 -64 l42 -60 -28 2 c-25 2 -27 -1 -24 -31 6
-54 -94 -221 -181 -305 -17 -16 -27 -33 -23 -42 11 -31 37 -13 86 60 28 41 54
75 57 75 4 0 17 -10 29 -21 13 -12 38 -24 56 -28 l33 -7 -3 -100 c-2 -54 -7
-130 -11 -169 -5 -44 -4 -72 2 -77 6 -3 8 -30 4 -65 -6 -56 -6 -57 8 -28 8 17
21 46 29 65 14 34 14 34 15 8 2 -61 -150 -995 -175 -1075 -3 -10 117 -13 574
-13 l578 0 -93 677 c-83 611 -128 893 -153 958 -16 42 9 48 51 11 74 -67 168
-55 208 26 11 24 21 56 21 70 0 22 -27 102 -70 205 -8 19 3 42 65 139 41 65
75 121 75 125 0 8 -261 219 -313 253 -14 10 -30 15 -35 12 -5 -3 -23 0 -39 6
-30 11 -31 13 -31 81 -1 77 2 83 86 170 44 47 45 49 33 80 -6 18 -13 36 -14
40 -1 5 19 9 45 11 26 1 50 5 54 8 3 4 -6 28 -20 53 -28 48 -97 105 -126 105
-22 0 -80 112 -80 155 0 22 -11 44 -37 75 -62 73 -189 141 -207 112z"/>
</g>
</svg>
