<?xml version="1.0" standalone="no"?>
<!DOCTYPE svg PUBLIC "-//W3C//DTD SVG 20010904//EN"
 "http://www.w3.org/TR/2001/REC-SVG-20010904/DTD/svg10.dtd">
<svg version="1.0" xmlns="http://www.w3.org/2000/svg"
 width="480.000000pt" height="360.000000pt" viewBox="0 0 480.000000 360.000000"
 preserveAspectRatio="xMidYMid meet">
<metadata>
Created by potrace 1.16, written by Peter Selinger 2001-2019
</metadata>
<rect width="1" height="360" fill="#000000"/>
<rect x="479" width="1" height="360" fill="#000000"/>
<rect width="480" height="1" fill="#000000"/>
<rect y="359" width="480" height="1" fill="#000000"/>
<g transform="translate(0.000000,360.000000) scale(0.100000,-0.100000)"
fill="#000000" stroke="none">
<path d="M0 1800 l0 -1800 860 0 860 0 0 28 c0 15 16 72 36 127 36 101 58 167
96 285 11 36 33 92 48 125 15 33 24 65 20 70 -4 6 -10 93 -14 195 -6 181 -22
369 -31 378 -5 5 -9 2 -85 -56 -24 -17 -52 -32 -63 -32 -30 0 -100 79 -115
127 -16 53 -1 92 55 146 l40 38 -22 62 c-12 34 -29 76 -38 93 -9 17 -19 61
-23 97 l-7 66 72 73 c40 40 74 82 77 94 3 12 18 27 32 34 30 14 112 20 112 8
0 -5 16 -33 36 -63 33 -49 38 -53 58 -43 76 40 106 87 106 164 0 47 -12 57
-30 23 -19 -35 -22 -14 -6 34 18 52 13 172 -9 222 -13 29 -13 29 -15 5 -1 -24
-1 -25 -15 -5 -8 11 -40 45 -71 76 -53 54 -56 59 -65 130 -15 102 3 155 76
239 12 14 30 39 41 57 l18 32 -32 40 c-18 22 -32 47 -32 55 0 18 56 62 85 68
24 4 32 47 14 79 -11 22 -11 22 49 16 34 -3 75 -12 92 -20 29 -15 31 -15 46 8
l16 24 29 -21 c16 -12 29 -27 29 -34 0 -22 18 -25 49 -9 44 22 56 20 145 -32
45 -27 107 -61 139 -77 32 -16 89 -58 127 -93 131 -122 165 -236 140 -476
l-12 -119 31 -44 c45 -64 41 -75 -21 -49 -16 6 -18 0 -19 -51 -1 -33 -1 -70 0
-84 3 -39 -17 -4 -25 45 -11 67 -26 77 -20 14 5 -43 2 -60 -9 -69 -8 -7 -15
-24 -15 -39 0 -19 -3 -22 -9 -12 -5 7 -14 10 -20 7 -7 -5 -11 5 -11 28 0 43
-15 47 -26 9 l-7 -28 -7 30 c-7 29 -8 28 -9 -10 -2 -51 -16 -77 -26 -46 -7 24
-25 28 -25 6 0 -22 -18 -18 -25 5 -10 30 -20 24 -22 -14 -3 -34 -2 -35 50 -45
28 -5 73 -12 98 -16 56 -7 80 -29 118 -103 110 -219 69 -420 -95 -477 -31 -10
-40 -21 -59 -68 -13 -30 -36 -75 -53 -99 -16 -24 -35 -61 -41 -83 -12 -45 -15
-184 -3 -201 4 -6 32 -14 62 -18 96 -12 242 -55 320 -94 l75 -37 3 -112 c2
-98 0 -120 -22 -183 -45 -127 -121 -232 -159 -217 -8 3 -26 43 -41 89 -25 79
-46 125 -46 103 0 -5 20 -91 45 -189 25 -99 45 -181 45 -183 0 -1 416 -3 925
-3 l925 0 0 1800 0 1800 -2400 0 -2400 0 0 -1800z"/>
<path d="M2152 2060 c0 -14 2 -19 5 -12 2 6 2 18 0 25 -3 6 -5 1 -5 -13z"/>
<path d="M2180 2026 c-5 -14 -14 -26 -19 -26 -11 0 -21 -49 -11 -55 3 -2 29 2
56 9 27 7 66 11 87 8 30 -3 43 1 63 19 39 37 32 53 -18 44 -24 -5 -59 -9 -78
-9 -19 -1 -38 -5 -42 -11 -4 -5 -8 0 -8 12 0 33 -19 38 -30 9z"/>
</g>
</svg>
