<?xml version="1.0" standalone="no"?>
<!DOCTYPE svg PUBLIC "-//W3C//DTD SVG 20010904//EN"
 "http://www.w3.org/TR/2001/REC-SVG-20010904/DTD/svg10.dtd">
<svg version="1.0" xmlns="http://www.w3.org/2000/svg"
 width="480.000000pt" height="360.000000pt" viewBox="0 0 480.000000 360.000000"
 preserveAspectRatio="xMidYMid meet">
<metadata>
Created by potrace 1.16, written by Peter Selinger 2001-2019
</metadata>
<rect width="1" height="360" fill="#000000"/>
<rect x="479" width="1" height="360" fill="#000000"/>
<rect width="480" height="1" fill="#000000"/>
<rect y="359" width="480" height="1" fill="#000000"/>
<g transform="translate(0.000000,360.000000) scale(0.100000,-0.100000)"
fill="#000000" stroke="none">
<path d="M0 1800 l0 -1800 888 0 887 0 12 62 c21 111 122 448 162 542 64 151
83 222 75 286 -5 30 -10 47 -12 38 -7 -36 -22 -17 -22 29 0 57 -17 47 -22 -12
-4 -50 -20 -49 -32 2 -5 21 -15 43 -23 48 -7 6 -19 47 -25 92 -7 46 -17 83
-23 83 -5 0 -19 -7 -29 -15 -29 -22 -78 -18 -138 9 -113 52 -213 87 -301 107
-90 20 -127 39 -127 66 0 7 -11 18 -24 23 -14 5 -26 19 -28 32 -3 22 -9 24
-98 31 -149 12 -295 63 -349 121 l-25 26 22 20 c23 22 45 17 72 -14 16 -20 31
-21 24 -1 -9 23 5 38 22 24 11 -9 24 -9 52 -1 35 11 37 14 39 57 2 40 -2 50
-30 74 -28 26 -31 35 -34 95 -2 37 -7 75 -13 86 -11 21 -13 60 -4 84 7 19 30
21 37 4 3 -10 9 -10 23 -2 29 17 29 74 1 136 -14 29 -27 79 -30 110 -5 51 -3
58 18 72 16 10 25 29 30 62 11 74 12 75 52 52 l35 -21 -7 -81 c-3 -45 -9 -89
-12 -99 -4 -16 0 -17 34 -11 48 9 56 21 83 120 20 77 68 184 95 213 11 11 16
10 34 -8 18 -18 21 -33 21 -103 0 -46 -7 -114 -16 -151 -19 -75 -22 -60 38
-171 26 -49 32 -144 13 -197 -9 -24 -21 -70 -26 -102 -5 -32 -13 -67 -19 -77
-5 -10 -10 -32 -10 -49 0 -21 -6 -32 -20 -36 -11 -3 -25 -15 -31 -27 -7 -14
-18 -19 -34 -16 -13 3 -30 1 -37 -3 -9 -6 -7 -9 8 -9 12 0 27 -6 33 -14 6 -8
25 -19 40 -26 24 -10 33 -9 54 5 20 13 30 14 46 6 10 -6 33 -8 50 -5 24 5 45
-2 101 -35 96 -55 231 -114 240 -104 4 4 19 50 34 101 20 69 25 104 21 136 -8
51 4 78 65 151 31 39 39 55 35 74 -4 14 -3 58 1 98 6 66 9 74 30 79 27 7 31
23 39 164 9 166 25 319 41 399 31 154 91 288 152 342 l35 31 -49 -9 c-123 -21
-164 -5 -164 64 0 60 81 254 133 317 l23 29 55 -19 c30 -10 65 -18 79 -19 34
0 126 -57 208 -127 55 -47 74 -57 104 -58 20 0 48 -4 61 -9 18 -7 44 -2 108
21 99 35 237 49 256 27 12 -16 -21 -176 -61 -300 l-23 -71 21 -42 c15 -30 20
-60 20 -111 0 -74 -10 -101 -89 -240 l-34 -60 6 43 c7 53 -5 54 -37 3 -25 -41
-40 -45 -40 -10 0 24 -20 26 -21 2 -2 -61 3 -213 7 -240 4 -20 14 -35 25 -38
13 -4 19 -16 19 -37 0 -22 12 -42 46 -77 47 -47 172 -239 200 -307 20 -49 20
-98 0 -129 -14 -22 -15 -40 -7 -147 6 -66 14 -124 18 -128 14 -13 214 -50 318
-60 88 -8 102 -12 120 -33 28 -35 81 -40 124 -14 29 17 56 22 151 25 100 4
119 2 133 -13 26 -25 5 -43 -49 -43 -42 0 -74 -14 -74 -32 0 -4 14 -14 32 -21
24 -10 33 -10 36 -1 5 16 20 15 38 -3 16 -15 39 -11 67 13 9 8 31 17 47 19 31
3 37 -8 24 -41 -7 -18 -108 -96 -124 -96 -6 0 -52 -21 -103 -46 -102 -51 -99
-51 -227 -6 -77 27 -87 29 -102 15 -25 -22 -56 -19 -132 11 -78 31 -184 58
-315 81 -52 9 -103 21 -112 26 -29 15 -66 70 -90 134 l-23 60 -13 -55 c-29
-125 -28 -143 6 -180 33 -37 34 -46 22 -145 -9 -69 5 -118 91 -308 58 -128
180 -473 198 -559 l11 -58 845 0 844 0 0 1800 0 1800 -2400 0 -2400 0 0 -1800z
m1108 661 c-2 -15 -10 -27 -20 -29 -14 -3 -18 4 -18 31 0 18 3 37 7 40 12 13
34 -16 31 -42z"/>
<path d="M2677 2277 c-3 -8 -2 -29 3 -48 8 -33 8 -33 9 14 1 48 -3 58 -12 34z"/>
<path d="M1040 1610 c0 -5 13 -10 29 -10 17 0 33 5 36 10 4 6 -8 10 -29 10
-20 0 -36 -4 -36 -10z"/>
</g>
</svg>
