<?xml version="1.0" standalone="no"?>
<!DOCTYPE svg PUBLIC "-//W3C//DTD SVG 20010904//EN"
 "http://www.w3.org/TR/2001/REC-SVG-20010904/DTD/svg10.dtd">
<svg version="1.0" xmlns="http://www.w3.org/2000/svg"
 width="480.000000pt" height="360.000000pt" viewBox="0 0 480.000000 360.000000"
 preserveAspectRatio="xMidYMid meet">
<metadata>
Created by potrace 1.16, written by Peter Selinger 2001-2019
</metadata>
<rect width="1" height="360" fill="#000000"/>
<rect x="479" width="1" height="360" fill="#000000"/>
<rect width="480" height="1" fill="#000000"/>
<rect y="359" width="480" height="1" fill="#000000"/>
<g transform="translate(0.000000,360.000000) scale(0.100000,-0.100000)"
fill="#000000" stroke="none">
<path d="M0 3223 l0 -377 28 45 c80 124 302 265 537 339 63 20 95 23 319 26
137 2 250 5 252 6 1 2 11 46 22 98 11 52 25 108 31 125 l12 29 24 -29 c14 -17
63 -106 111 -199 47 -93 103 -191 124 -219 51 -66 93 -155 118 -247 11 -41 34
-104 50 -140 29 -63 32 -66 94 -90 37 -14 84 -25 115 -25 34 0 57 -6 70 -18
11 -9 29 -17 41 -17 28 0 28 -11 -3 -56 -14 -20 -25 -43 -25 -50 0 -7 -12 -26
-26 -44 l-26 -31 -35 21 c-42 25 -39 25 -59 -5 -13 -20 -14 -28 -4 -40 9 -10
11 -33 7 -69 -6 -58 -54 -205 -68 -207 -36 -5 -57 -20 -63 -44 -4 -15 -11 -22
-20 -19 -7 3 -20 -2 -29 -10 -21 -22 -50 -10 -37 14 16 30 12 47 -6 28 -13
-13 -19 -48 -25 -150 -8 -132 -2 -185 37 -293 4 -11 -10 1 -31 28 -21 26 -39
46 -41 44 -2 -2 11 -40 28 -85 17 -45 28 -85 24 -89 -4 -4 -41 10 -82 30 -84
42 -76 43 -121 -21 -24 -35 -70 -55 -112 -48 -39 6 -127 -18 -101 -28 8 -3 76
-17 150 -31 197 -38 367 -91 408 -129 36 -34 41 -62 12 -71 -11 -3 -20 -10
-20 -14 0 -5 21 -39 46 -77 26 -38 57 -92 70 -121 28 -63 51 -78 99 -64 53 14
62 -3 46 -92 -11 -69 -11 -73 10 -90 12 -9 45 -24 74 -32 82 -24 90 -56 33
-136 -21 -30 -3 -49 45 -49 25 0 59 -3 77 -6 27 -6 31 -4 28 12 -3 17 4 19 62
19 36 -1 93 -5 128 -9 59 -8 62 -8 62 13 0 11 1 21 3 21 8 0 196 -40 213 -45
13 -4 25 -1 33 9 18 22 33 20 145 -15 91 -28 99 -29 116 -14 16 15 23 14 86
-12 38 -15 84 -35 104 -44 31 -16 37 -16 52 -2 15 14 26 10 110 -36 64 -34
101 -48 116 -45 22 6 67 -17 133 -68 20 -15 49 -28 64 -28 19 0 45 -16 87 -55
32 -30 67 -55 76 -55 9 0 45 -30 80 -67 l64 -68 429 -3 429 -3 0 1801 0 1800
-1569 0 c-1560 0 -1569 0 -1574 -20 -3 -11 -10 -20 -17 -20 -7 0 -14 9 -17 20
-5 20 -14 20 -814 20 l-809 0 0 -377z m1574 136 c-3 -5 -10 -7 -15 -3 -5 3 -7
10 -3 15 3 5 10 7 15 3 5 -3 7 -10 3 -15z m2158 -191 c-9 -9 -15 -9 -24 0 -10
10 -10 15 2 22 20 12 38 -6 22 -22z m-337 -1107 c22 -10 56 -35 75 -55 34 -37
35 -38 15 -52 -11 -8 -19 -22 -17 -30 4 -21 -21 -27 -66 -15 -56 16 -164 133
-147 161 10 17 97 11 140 -9z m235 -121 c0 -12 -28 -25 -36 -17 -9 9 6 27 22
27 8 0 14 -5 14 -10z m-590 -550 c0 -5 -7 -10 -15 -10 -8 0 -15 5 -15 10 0 6
7 10 15 10 8 0 15 -4 15 -10z m1420 -985 c0 -8 -4 -15 -10 -15 -5 0 -10 7 -10
15 0 8 5 15 10 15 6 0 10 -7 10 -15z"/>
<path d="M0 2189 l0 -154 20 25 c24 31 60 124 60 155 0 13 -5 27 -11 31 -6 3
-24 27 -40 52 l-29 46 0 -155z"/>
<path d="M18 1883 c-17 -4 -18 -25 -17 -271 l1 -267 24 155 c13 85 33 204 44
264 12 59 20 110 18 111 -7 7 -54 13 -70 8z"/>
<path d="M70 1184 c0 -32 2 -35 23 -28 12 3 39 17 60 29 l39 22 -37 7 c-28 6
-42 3 -58 -11 -19 -17 -20 -17 -14 0 4 9 2 17 -3 17 -6 0 -10 -16 -10 -36z"/>
<path d="M11 909 c-14 -40 -15 -207 -2 -194 8 8 26 88 32 145 4 34 -2 80 -10
80 -5 0 -14 -14 -20 -31z"/>
</g>
</svg>
