<?xml version="1.0" standalone="no"?>
<!DOCTYPE svg PUBLIC "-//W3C//DTD SVG 20010904//EN"
 "http://www.w3.org/TR/2001/REC-SVG-20010904/DTD/svg10.dtd">
<svg version="1.0" xmlns="http://www.w3.org/2000/svg"
 width="480.000000pt" height="360.000000pt" viewBox="0 0 480.000000 360.000000"
 preserveAspectRatio="xMidYMid meet">
<metadata>
Created by potrace 1.16, written by Peter Selinger 2001-2019
</metadata>
<rect width="1" height="360" fill="#000000"/>
<rect x="479" width="1" height="360" fill="#000000"/>
<rect width="480" height="1" fill="#000000"/>
<rect y="359" width="480" height="1" fill="#000000"/>
<g transform="translate(0.000000,360.000000) scale(0.100000,-0.100000)"
fill="#000000" stroke="none">
<path d="M0 2225 l0 -1375 24 15 c18 12 25 28 30 71 8 68 28 108 64 131 15 9
36 24 47 34 36 31 113 67 211 98 52 17 100 31 107 31 15 0 99 41 115 57 7 7
18 13 23 13 6 0 7 5 4 10 -4 6 -2 16 3 23 7 8 7 54 0 137 -6 90 -6 151 3 218
7 57 9 126 4 180 -4 48 -6 133 -6 188 1 61 -3 112 -10 128 -11 24 -10 28 9 42
14 9 22 26 22 43 0 25 -5 30 -42 40 -73 18 -228 42 -325 48 -72 5 -96 10 -109
24 -10 11 -23 19 -31 19 -7 0 -13 5 -13 10 0 6 6 10 14 10 8 0 17 9 21 19 3
11 18 27 33 36 32 21 71 65 72 82 0 6 10 15 21 18 12 4 38 24 59 44 20 20 48
44 63 54 36 24 34 32 -13 51 -22 9 -70 34 -106 56 -36 22 -68 40 -71 40 -3 0
-25 18 -50 40 -25 22 -50 40 -54 40 -5 0 -9 4 -9 8 0 5 84 14 188 21 244 16
233 13 221 54 -5 17 -7 59 -3 93 5 52 12 69 48 113 60 75 77 72 179 -34 45
-47 94 -99 108 -117 l27 -32 263 -8 c145 -4 385 -12 534 -18 182 -8 271 -8
273 -1 7 21 48 75 64 85 25 15 52 -15 81 -89 23 -58 25 -61 82 -81 73 -26 87
-44 105 -129 9 -43 20 -69 30 -72 69 -21 150 -57 148 -67 -2 -6 -53 -36 -114
-66 l-110 -56 55 -18 c100 -32 124 -61 79 -90 -30 -19 -198 -63 -271 -72 l-59
-7 6 -31 c26 -126 15 -234 -41 -410 l-35 -108 7 -257 c4 -141 12 -264 17 -273
5 -10 22 -25 39 -33 33 -17 136 -107 158 -138 21 -30 80 -175 101 -252 22 -76
26 -169 9 -227 -5 -21 -32 -64 -60 -95 -27 -31 -47 -63 -45 -70 3 -7 -4 -43
-15 -80 -24 -78 -40 -225 -32 -294 l6 -49 1323 0 1324 0 0 1800 0 1800 -2400
0 -2400 0 0 -1375z"/>
<path d="M448 439 c-49 -7 -221 -62 -247 -78 -15 -10 -19 5 49 -186 17 -50 41
-109 52 -132 l20 -43 99 0 c95 0 99 1 99 21 0 12 9 52 19 88 22 74 38 201 37
276 l-1 50 -40 5 c-22 3 -61 2 -87 -1z"/>
</g>
</svg>
