<?xml version="1.0" standalone="no"?>
<!DOCTYPE svg PUBLIC "-//W3C//DTD SVG 20010904//EN"
 "http://www.w3.org/TR/2001/REC-SVG-20010904/DTD/svg10.dtd">
<svg version="1.0" xmlns="http://www.w3.org/2000/svg"
 width="480.000000pt" height="360.000000pt" viewBox="0 0 480.000000 360.000000"
 preserveAspectRatio="xMidYMid meet">
<metadata>
Created by potrace 1.16, written by Peter Selinger 2001-2019
</metadata>
<rect width="1" height="360" fill="#000000"/>
<rect x="479" width="1" height="360" fill="#000000"/>
<rect width="480" height="1" fill="#000000"/>
<rect y="359" width="480" height="1" fill="#000000"/>
<g transform="translate(0.000000,360.000000) scale(0.100000,-0.100000)"
fill="#000000" stroke="none">
<path d="M0 1800 l0 -1800 1040 0 1040 0 0 79 c0 87 -10 106 -58 117 -43 10
-72 33 -72 57 0 50 -20 92 -55 115 -27 17 -35 28 -30 41 3 11 -2 35 -11 55
-17 34 -17 39 -1 90 18 57 92 207 207 421 65 122 82 164 61 151 -12 -8 -28 13
-36 47 -6 20 -1 35 17 60 23 31 98 181 98 197 0 4 -12 11 -26 14 -30 8 -50 49
-60 127 -3 30 -18 79 -32 108 -32 70 -38 132 -22 240 18 132 37 184 116 338
40 78 83 170 94 205 12 35 42 106 67 158 42 87 44 95 28 105 -10 5 -30 20 -44
32 -29 25 -27 25 54 24 46 -1 53 2 96 43 25 25 59 48 75 52 16 4 35 12 42 17
10 8 18 6 30 -10 10 -11 37 -28 61 -37 43 -17 43 -16 76 9 45 34 55 32 21 -4
l-27 -29 34 -21 c39 -24 47 -38 47 -86 0 -18 7 -38 15 -45 9 -7 13 -21 10 -34
-5 -17 4 -27 40 -49 65 -41 62 -51 -19 -47 -27 1 -37 -2 -34 -11 6 -19 -36
-58 -72 -65 -29 -6 -31 -10 -28 -36 4 -24 0 -31 -18 -38 -12 -5 -29 -19 -38
-32 -19 -26 -21 -68 -4 -68 17 0 126 -70 164 -106 24 -23 34 -41 34 -62 0 -16
7 -35 15 -42 8 -7 15 -20 15 -29 0 -9 16 -46 35 -81 19 -36 35 -77 35 -91 0
-14 -22 -62 -49 -107 -27 -45 -46 -83 -44 -86 5 -5 -31 -79 -65 -135 l-21 -34
34 -67 c19 -37 54 -132 80 -211 46 -143 66 -206 80 -244 l8 -20 -16 20 c-14
18 -16 18 -22 3 -9 -22 2 -39 22 -36 22 4 48 -70 33 -95 -8 -13 -7 -25 4 -45
8 -16 37 -84 64 -153 27 -68 63 -152 81 -187 l31 -62 -22 -9 c-13 -4 -28 -10
-35 -12 -8 -3 -6 -16 8 -43 23 -49 23 -49 0 -43 -13 3 -22 -3 -30 -20 -12 -27
-15 -27 -102 -3 -46 13 -48 13 -90 -18 -24 -18 -49 -32 -56 -32 -10 0 -13 -24
-13 -95 0 -57 4 -95 10 -95 6 0 10 -11 10 -25 l0 -25 960 0 960 0 0 1800 0
1800 -2400 0 -2400 0 0 -1800z"/>
<path d="M2740 1913 c0 -32 -3 -88 -7 -125 -5 -56 -3 -68 9 -68 14 0 89 150
88 175 -1 6 -21 25 -45 43 l-45 33 0 -58z"/>
<path d="M2331 1830 c0 -29 1 -32 10 -17 7 11 7 23 0 35 -9 14 -10 11 -10 -18z"/>
<path d="M2090 1741 c0 -46 3 -62 13 -58 8 3 11 20 9 53 -6 75 -22 79 -22 5z"/>
<path d="M2605 168 l-60 -40 -90 6 c-71 4 -99 2 -134 -12 -40 -15 -46 -22 -62
-70 l-18 -52 220 0 219 0 0 24 c0 13 5 26 11 28 9 3 8 23 -1 76 -6 40 -15 74
-18 76 -4 2 -34 -14 -67 -36z"/>
</g>
</svg>
