<?xml version="1.0" standalone="no"?>
<!DOCTYPE svg PUBLIC "-//W3C//DTD SVG 20010904//EN"
 "http://www.w3.org/TR/2001/REC-SVG-20010904/DTD/svg10.dtd">
<svg version="1.0" xmlns="http://www.w3.org/2000/svg"
 width="480.000000pt" height="360.000000pt" viewBox="0 0 480.000000 360.000000"
 preserveAspectRatio="xMidYMid meet">
<metadata>
Created by potrace 1.16, written by Peter Selinger 2001-2019
</metadata>
<rect width="1" height="360" fill="#000000"/>
<rect x="479" width="1" height="360" fill="#000000"/>
<rect width="480" height="1" fill="#000000"/>
<rect y="359" width="480" height="1" fill="#000000"/>
<g transform="translate(0.000000,360.000000) scale(0.100000,-0.100000)"
fill="#000000" stroke="none">
<path d="M0 1800 l0 -1800 2400 0 2400 0 0 1800 0 1800 -2400 0 -2400 0 0
-1800z m1982 1559 c15 -87 29 -99 26 -22 -1 34 1 66 5 70 14 14 27 -21 27 -77
1 -63 11 -53 30 30 10 43 15 50 21 35 4 -11 8 -46 8 -77 1 -32 5 -58 11 -58
10 0 15 17 26 95 6 47 7 48 15 21 4 -16 3 -53 -2 -83 -6 -30 -8 -64 -6 -76 3
-15 5 -12 6 11 0 17 5 32 11 32 5 0 16 15 23 33 13 30 13 26 10 -53 -2 -47 -5
-100 -6 -118 -3 -27 0 -31 15 -26 24 7 23 -7 -2 -29 -23 -19 -27 -47 -7 -47 7
0 21 -6 31 -13 16 -12 16 -15 2 -42 -20 -38 -20 -48 4 -117 10 -31 21 -79 25
-105 12 -89 78 -227 124 -259 29 -21 75 -25 99 -10 7 4 22 -3 35 -17 19 -18
35 -23 74 -24 118 -2 213 -96 248 -248 16 -69 16 -70 -11 -155 -15 -47 -39
-100 -53 -118 l-25 -34 45 -36 c24 -20 72 -64 107 -97 58 -54 63 -63 57 -90
-3 -16 -9 -47 -12 -68 -3 -26 -9 -37 -18 -33 -7 2 -16 -3 -20 -12 -6 -15 -9
-13 -28 10 -12 15 -30 38 -40 52 -26 37 -41 32 -20 -6 9 -18 16 -37 15 -42 -5
-15 90 -160 142 -217 28 -30 76 -92 105 -137 52 -78 80 -98 96 -72 14 23 22 8
15 -27 -13 -56 2 -77 50 -69 43 7 58 -5 35 -27 -13 -14 -6 -20 68 -61 45 -24
104 -50 130 -57 68 -17 73 -34 9 -26 -29 3 -52 4 -52 2 0 -3 24 -17 53 -32 49
-26 51 -28 24 -31 -16 -2 -47 4 -69 12 -48 20 -41 3 11 -23 20 -11 43 -27 50
-35 12 -14 10 -16 -10 -16 -13 0 -37 7 -53 15 -16 9 -31 13 -33 11 -3 -2 5 -9
16 -16 12 -6 21 -18 21 -26 0 -13 -6 -15 -27 -9 -16 3 -35 13 -44 21 -8 8 -22
14 -30 14 -8 1 -31 7 -51 14 -51 18 -48 7 8 -33 25 -18 44 -34 41 -37 -2 -2
-27 7 -55 21 -27 14 -55 25 -61 25 -22 0 -10 -20 24 -42 33 -22 45 -38 26 -38
-4 0 -31 18 -59 40 -27 22 -52 40 -55 40 -2 0 -7 -9 -10 -21 -6 -24 -27 -17
-27 10 0 24 -11 33 -25 21 -18 -15 -45 -1 -45 23 0 11 -6 28 -13 36 -7 9 -20
35 -27 59 -12 40 -42 74 -73 85 -9 3 -9 7 1 19 10 13 9 18 -3 28 -8 7 -15 18
-15 24 0 6 -12 22 -26 35 -14 14 -39 45 -57 70 -17 25 -34 48 -37 51 -4 3 -17
23 -28 45 -20 38 -21 39 -22 13 0 -37 -16 -35 -36 4 -19 37 -44 65 -44 49 0
-6 -4 -10 -9 -9 -4 2 -40 -25 -79 -59 -98 -84 -158 -112 -252 -115 -71 -3 -78
-1 -138 35 -34 21 -83 58 -110 82 -26 24 -62 56 -80 71 -18 14 -74 72 -123
128 -50 55 -98 110 -108 121 -55 61 -57 263 -4 430 38 118 57 157 112 223 51
61 132 111 206 126 28 6 31 10 32 49 4 106 0 134 -46 273 -27 82 -54 175 -61
207 -9 47 -16 60 -36 67 -26 10 -27 14 -15 45 11 26 -25 97 -91 181 -53 68
-58 108 -6 55 55 -57 68 -34 44 84 -18 94 -20 125 -7 125 10 0 25 -36 42 -100
16 -62 24 -30 10 36 -13 55 -7 104 10 87 5 -5 15 -38 21 -74z"/>
<path d="M3050 972 c0 -10 21 -32 32 -32 16 0 8 19 -12 30 -11 6 -20 7 -20 2z"/>
<path d="M3015 940 c3 -5 10 -10 16 -10 5 0 9 5 9 10 0 6 -7 10 -16 10 -8 0
-12 -4 -9 -10z"/>
</g>
</svg>
