<?xml version="1.0" standalone="no"?>
<!DOCTYPE svg PUBLIC "-//W3C//DTD SVG 20010904//EN"
 "http://www.w3.org/TR/2001/REC-SVG-20010904/DTD/svg10.dtd">
<svg version="1.0" xmlns="http://www.w3.org/2000/svg"
 width="480.000000pt" height="360.000000pt" viewBox="0 0 480.000000 360.000000"
 preserveAspectRatio="xMidYMid meet">
<metadata>
Created by potrace 1.16, written by Peter Selinger 2001-2019
</metadata>
<rect width="1" height="360" fill="#000000"/>
<rect x="479" width="1" height="360" fill="#000000"/>
<rect width="480" height="1" fill="#000000"/>
<rect y="359" width="480" height="1" fill="#000000"/>
<g transform="translate(0.000000,360.000000) scale(0.100000,-0.100000)"
fill="#000000" stroke="none">
<path d="M610 3587 c0 -27 49 -188 85 -277 21 -52 42 -113 47 -135 7 -36 -7
-345 -18 -402 -4 -20 -11 -23 -50 -23 -25 0 -75 -6 -112 -14 -37 -8 -96 -20
-132 -27 -86 -16 -117 -33 -137 -74 -15 -31 -15 -37 2 -82 9 -26 30 -68 46
-93 15 -25 42 -75 58 -112 17 -36 41 -74 54 -85 13 -10 32 -42 41 -71 10 -28
21 -54 26 -57 4 -3 6 -36 3 -73 -5 -63 -3 -70 22 -100 57 -68 138 -88 232 -56
61 21 199 7 220 -23 38 -52 114 -119 163 -142 95 -44 263 -30 320 27 14 15 41
63 59 107 46 114 62 144 95 174 53 49 67 66 56 69 -14 5 -101 -25 -177 -60
-34 -15 -64 -28 -67 -28 -3 0 -12 15 -20 33 -31 75 -33 71 46 123 93 61 175
138 200 187 25 50 15 82 -44 142 -40 40 -49 44 -117 54 -41 5 -78 14 -84 20
-11 11 16 96 34 107 11 6 33 49 43 82 6 16 3 22 -9 22 -11 0 -15 6 -11 18 13
40 26 128 26 171 0 67 -24 159 -48 184 -17 18 -20 32 -17 75 5 52 4 52 -20 46
-21 -5 -25 -3 -25 15 0 12 -12 34 -26 50 -21 24 -27 41 -29 93 -2 35 -4 68 -6
73 -1 6 1 25 5 43 l8 32 -371 0 c-291 0 -371 -3 -371 -13z m594 -379 c3 -16 2
-28 -3 -28 -10 0 -21 47 -13 55 7 7 8 5 16 -27z m-314 -692 c59 -16 86 -28 88
-39 2 -10 -2 -17 -9 -17 -7 0 -31 -8 -53 -18 -23 -11 -54 -24 -69 -31 -16 -6
-31 -20 -34 -31 -3 -11 -10 -21 -17 -22 -6 0 -15 -2 -21 -3 -5 -2 -16 -3 -22
-4 -7 0 -27 -17 -44 -36 -44 -48 -65 -46 -80 8 -16 60 -40 115 -56 128 -7 6
-13 19 -13 29 0 14 16 19 88 29 48 7 94 16 102 21 22 14 46 12 140 -14z"/>
<path d="M3480 1800 l0 -1800 393 0 393 0 82 124 c102 154 152 286 107 286
-13 0 -14 4 -4 22 15 29 4 119 -17 135 -9 6 -13 17 -9 23 13 21 8 169 -5 185
-9 11 -11 37 -6 93 6 66 4 83 -14 120 -24 49 -20 77 12 85 25 7 78 -16 104
-44 22 -24 63 -24 134 1 30 11 76 19 103 20 l47 0 0 1275 0 1275 -660 0 -660
0 0 -1800z"/>
</g>
</svg>
