<?xml version="1.0" standalone="no"?>
<!DOCTYPE svg PUBLIC "-//W3C//DTD SVG 20010904//EN"
 "http://www.w3.org/TR/2001/REC-SVG-20010904/DTD/svg10.dtd">
<svg version="1.0" xmlns="http://www.w3.org/2000/svg"
 width="480.000000pt" height="360.000000pt" viewBox="0 0 480.000000 360.000000"
 preserveAspectRatio="xMidYMid meet">
<metadata>
Created by potrace 1.16, written by Peter Selinger 2001-2019
</metadata>
<rect width="1" height="360" fill="#000000"/>
<rect x="479" width="1" height="360" fill="#000000"/>
<rect width="480" height="1" fill="#000000"/>
<rect y="359" width="480" height="1" fill="#000000"/>
<g transform="translate(0.000000,360.000000) scale(0.100000,-0.100000)"
fill="#000000" stroke="none">
<path d="M0 1800 l0 -1800 410 0 410 0 0 28 c-2 70 -48 234 -106 369 -215 502
-277 937 -224 1585 29 348 2 461 -125 530 -47 25 -51 31 -68 90 -10 35 -22 90
-27 123 -5 33 -16 93 -24 132 -8 40 -18 111 -22 157 -6 82 -6 85 25 138 65
110 89 127 213 153 38 8 94 28 126 43 31 16 131 57 222 92 146 56 247 98 345
144 26 13 -42 15 -562 15 l-593 1 0 -1800z"/>
<path d="M3980 3588 c0 -12 21 -131 35 -200 6 -31 62 -178 101 -263 38 -85
107 -302 134 -419 18 -79 21 -118 17 -186 -5 -86 -27 -160 -46 -160 -6 0 -26
22 -43 50 -18 27 -37 48 -43 47 -11 -4 -48 -184 -65 -320 -53 -404 -190 -697
-450 -958 -214 -215 -419 -319 -688 -349 -158 -18 -325 10 -462 78 -104 51
-220 165 -245 241 -47 143 11 260 150 301 22 7 49 20 60 30 11 10 74 53 140
96 146 95 260 205 305 293 36 72 33 101 -9 101 -40 0 -105 82 -163 205 -33 72
-55 90 -72 60 -25 -43 -83 -98 -125 -120 -40 -19 -170 -55 -291 -80 -53 -11
-82 -29 -165 -102 -170 -148 -255 -327 -254 -533 0 -165 40 -284 145 -435 129
-186 358 -346 623 -437 93 -32 100 -33 256 -32 176 1 277 17 455 75 177 57
443 198 580 308 123 98 223 186 242 212 12 15 36 35 55 44 19 9 39 26 44 39
12 25 48 51 57 41 7 -6 0 -18 -51 -94 -29 -44 -178 -191 -267 -264 -107 -88
-257 -185 -395 -257 -77 -40 -157 -84 -179 -98 l-38 -26 28 -8 c16 -5 69 -3
119 3 148 19 341 17 401 -4 63 -22 84 -44 91 -96 8 -57 0 -77 -58 -156 -43
-60 -48 -71 -32 -74 10 -2 29 -11 43 -21 14 -9 32 -20 40 -23 8 -4 44 -27 79
-52 l63 -45 173 0 172 0 88 100 c48 56 92 99 98 97 6 -2 12 -14 13 -28 9 -75
22 -148 28 -158 4 -6 34 -11 67 -11 l59 0 0 1800 0 1800 -410 0 c-321 0 -410
-3 -410 -12z"/>
<path d="M1973 2921 c-124 -41 -126 -51 -12 -51 53 0 149 -3 215 -6 130 -6
167 3 129 31 -30 24 -147 55 -201 54 -27 0 -86 -12 -131 -28z"/>
</g>
</svg>
