<?xml version="1.0" standalone="no"?>
<!DOCTYPE svg PUBLIC "-//W3C//DTD SVG 20010904//EN"
 "http://www.w3.org/TR/2001/REC-SVG-20010904/DTD/svg10.dtd">
<svg version="1.0" xmlns="http://www.w3.org/2000/svg"
 width="480.000000pt" height="360.000000pt" viewBox="0 0 480.000000 360.000000"
 preserveAspectRatio="xMidYMid meet">
<metadata>
Created by potrace 1.16, written by Peter Selinger 2001-2019
</metadata>
<rect width="1" height="360" fill="#000000"/>
<rect x="479" width="1" height="360" fill="#000000"/>
<rect width="480" height="1" fill="#000000"/>
<rect y="359" width="480" height="1" fill="#000000"/>
<g transform="translate(0.000000,360.000000) scale(0.100000,-0.100000)"
fill="#000000" stroke="none">
<path d="M0 1800 l0 -1800 69 0 c78 0 74 -4 107 117 l16 62 -31 38 c-29 35
-30 38 -15 61 13 19 13 26 2 39 -11 14 -11 17 1 21 21 7 57 48 75 86 21 45 22
169 1 186 -20 16 -19 31 1 23 13 -5 15 1 12 32 -2 26 2 40 12 45 52 25 55 29
76 106 25 96 52 158 95 220 26 38 28 46 13 39 -39 -16 -59 -12 -56 12 2 17 -2
23 -15 23 -10 0 -30 7 -46 15 -27 14 -28 13 -54 -28 -41 -65 -74 -97 -100 -97
-29 0 -43 27 -43 83 0 58 23 85 80 98 63 14 106 51 136 116 70 154 120 383
110 503 -3 41 -10 78 -15 83 -5 5 -32 14 -59 20 l-51 12 29 47 c37 60 70 156
70 207 0 28 -10 53 -36 91 -59 86 -66 118 -67 280 0 129 3 153 26 217 46 133
161 244 353 341 124 62 265 92 440 92 138 0 137 -1 156 88 9 42 21 90 27 106
l12 29 35 -34 c19 -19 61 -69 91 -112 51 -70 63 -81 132 -114 101 -48 182
-130 235 -237 39 -80 76 -198 76 -246 0 -14 7 -36 16 -48 9 -13 13 -29 11 -36
-12 -31 107 -102 152 -91 71 18 82 15 93 -30 3 -11 9 -28 13 -37 5 -12 -1 -21
-23 -32 -16 -8 -32 -23 -36 -33 -3 -10 -17 -33 -31 -52 -14 -19 -30 -53 -36
-75 -6 -23 -22 -79 -36 -125 -19 -66 -22 -89 -14 -108 7 -14 7 -23 1 -23 -6 0
-10 5 -10 10 0 23 -31 7 -78 -41 -41 -42 -51 -47 -55 -32 -4 17 -4 17 -12 0
-6 -14 2 -28 31 -58 37 -38 34 -50 -8 -28 -17 9 -19 8 -15 -8 22 -74 77 -378
71 -395 -3 -11 -9 -16 -13 -11 -3 6 -36 33 -74 61 -61 46 -97 58 -97 31 0 -5
-6 -9 -12 -9 -7 0 -38 -16 -68 -35 -30 -19 -61 -35 -69 -35 -8 0 -23 -8 -34
-18 -12 -10 -43 -19 -81 -23 -60 -5 -61 -5 -31 -18 48 -20 429 -121 457 -121
15 0 47 -16 75 -38 75 -60 78 -65 74 -144 -2 -58 8 -114 25 -137 2 -2 32 13
68 32 35 20 66 34 68 31 3 -2 34 9 70 26 134 60 402 97 587 79 355 -33 676
-189 937 -455 79 -80 234 -272 234 -289 0 -3 21 -42 48 -87 26 -45 63 -122 83
-172 l36 -91 292 -3 291 -2 0 1800 0 1800 -1744 0 -1745 0 -3 -20 c-4 -29 -21
-30 -33 -2 l-10 22 -632 0 -633 0 0 -1800z m1400 1680 c0 -5 -4 -10 -10 -10
-5 0 -10 5 -10 10 0 6 5 10 10 10 6 0 10 -4 10 -10z m2126 -189 c-10 -16 -36
-13 -36 3 0 17 21 27 34 16 4 -5 5 -13 2 -19z m-3359 -358 c-9 -8 -48 8 -42
18 4 5 14 5 26 -2 12 -6 18 -13 16 -16z m43 7 c0 -5 -7 -10 -16 -10 -8 0 -12
5 -9 10 3 6 10 10 16 10 5 0 9 -4 9 -10z m3685 -500 c3 -5 -1 -10 -10 -10 -9
0 -13 5 -10 10 3 6 8 10 10 10 2 0 7 -4 10 -10z m-435 -359 c0 -12 -29 -35
-36 -28 -11 10 5 37 21 37 8 0 15 -4 15 -9z m-80 -131 c0 -5 -7 -10 -15 -10
-8 0 -15 5 -15 10 0 6 7 10 15 10 8 0 15 -4 15 -10z m125 -90 c4 -6 2 -17 -5
-25 -8 -10 -8 -15 0 -20 14 -9 -14 -41 -54 -62 -31 -16 -125 -21 -163 -9 -13
4 -23 14 -23 23 0 23 55 70 103 86 49 18 133 22 142 7z m485 -860 c0 -5 -7
-10 -15 -10 -8 0 -15 5 -15 10 0 6 7 10 15 10 8 0 15 -4 15 -10z m130 -550 c0
-11 -4 -20 -9 -20 -14 0 -23 18 -16 30 10 17 25 11 25 -10z"/>
<path d="M419 1183 c-13 -15 -12 -15 11 -3 34 17 36 20 18 20 -9 0 -22 -7 -29
-17z"/>
<path d="M1796 158 c-3 -18 -9 -61 -14 -95 l-9 -63 27 0 c25 0 27 3 39 78 13
87 8 112 -20 112 -13 0 -19 -9 -23 -32z"/>
</g>
</svg>
