<?xml version="1.0" standalone="no"?>
<!DOCTYPE svg PUBLIC "-//W3C//DTD SVG 20010904//EN"
 "http://www.w3.org/TR/2001/REC-SVG-20010904/DTD/svg10.dtd">
<svg version="1.0" xmlns="http://www.w3.org/2000/svg"
 width="480.000000pt" height="360.000000pt" viewBox="0 0 480.000000 360.000000"
 preserveAspectRatio="xMidYMid meet">
<metadata>
Created by potrace 1.16, written by Peter Selinger 2001-2019
</metadata>
<rect width="1" height="360" fill="#000000"/>
<rect x="479" width="1" height="360" fill="#000000"/>
<rect width="480" height="1" fill="#000000"/>
<rect y="359" width="480" height="1" fill="#000000"/>
<g transform="translate(0.000000,360.000000) scale(0.100000,-0.100000)"
fill="#000000" stroke="none">
<path d="M0 3091 l0 -509 48 -31 c54 -34 80 -38 120 -17 26 13 108 95 180 180
25 29 37 37 55 33 12 -3 76 -11 142 -17 134 -13 123 -14 385 59 256 72 343
109 381 162 26 37 24 55 -10 90 -36 36 -54 36 -173 4 -94 -25 -148 -31 -148
-17 0 30 154 62 300 62 102 0 107 -4 121 -69 16 -81 28 -107 52 -120 12 -6 32
-18 44 -26 20 -15 23 -15 41 5 11 12 22 35 26 51 3 16 10 29 15 29 5 0 23 -28
41 -63 26 -53 39 -67 83 -91 38 -20 59 -26 79 -21 17 4 42 0 74 -14 35 -16 50
-18 60 -10 17 14 19 92 3 120 -8 16 -7 25 5 38 31 34 20 66 -45 136 -40 43
-89 81 -141 110 -44 25 -84 45 -88 45 -4 0 -13 7 -20 15 -20 24 -104 58 -335
136 -209 70 -225 73 -310 73 -68 0 -121 -7 -218 -32 -71 -18 -132 -32 -137
-32 -4 0 -11 17 -15 38 -11 62 -29 80 -103 101 -288 83 -323 91 -418 91 l-94
0 0 -509z"/>
<path d="M3121 3518 c-25 -174 -77 -404 -127 -553 -112 -339 -254 -616 -601
-1180 -374 -608 -514 -894 -623 -1273 -38 -131 -100 -448 -100 -507 0 -3 349
-5 775 -5 681 0 776 2 781 15 9 24 152 86 354 155 328 111 481 186 659 321 93
70 188 155 181 162 -3 3 -25 1 -50 -3 -70 -14 -160 -12 -225 6 -33 8 -96 22
-139 30 -69 13 -91 23 -165 75 -121 84 -206 162 -198 183 4 9 16 16 27 16 20
0 21 4 14 58 -5 46 -3 60 10 71 12 10 19 10 36 -2 12 -8 29 -13 39 -10 18 5
91 -33 91 -48 0 -4 13 -1 29 8 28 17 30 16 64 -12 26 -22 37 -41 42 -73 9 -54
37 -89 78 -97 17 -4 41 -9 52 -12 20 -6 20 -5 1 15 -23 27 -15 64 19 86 23 15
98 36 280 80 79 18 151 21 190 6 36 -14 54 8 85 98 26 77 30 79 83 57 16 -7
17 54 17 1204 l0 1211 -834 0 -834 0 -11 -82z"/>
</g>
</svg>
