<?xml version="1.0" standalone="no"?>
<!DOCTYPE svg PUBLIC "-//W3C//DTD SVG 20010904//EN"
 "http://www.w3.org/TR/2001/REC-SVG-20010904/DTD/svg10.dtd">
<svg version="1.0" xmlns="http://www.w3.org/2000/svg"
 width="480.000000pt" height="360.000000pt" viewBox="0 0 480.000000 360.000000"
 preserveAspectRatio="xMidYMid meet">
<metadata>
Created by potrace 1.16, written by Peter Selinger 2001-2019
</metadata>
<rect width="1" height="360" fill="#000000"/>
<rect x="479" width="1" height="360" fill="#000000"/>
<rect width="480" height="1" fill="#000000"/>
<rect y="359" width="480" height="1" fill="#000000"/>
<g transform="translate(0.000000,360.000000) scale(0.100000,-0.100000)"
fill="#000000" stroke="none">
<path d="M0 1800 l0 -1800 2400 0 2400 0 0 1800 0 1800 -2400 0 -2400 0 0
-1800z m2109 946 c6 -7 29 -14 51 -14 55 -1 64 -9 46 -38 -24 -35 -20 -44 17
-37 19 3 48 23 74 49 49 50 71 58 156 52 56 -3 71 -10 154 -63 51 -33 92 -63
93 -67 0 -15 -55 -8 -107 14 -64 26 -86 15 -81 -40 3 -34 5 -36 72 -58 89 -28
122 -53 118 -88 -2 -22 3 -29 32 -41 46 -19 92 -65 76 -75 -9 -5 -9 -9 -1 -14
16 -11 13 -26 -4 -20 -8 4 -15 2 -15 -4 0 -16 -28 -22 -56 -11 -21 8 -29 6
-39 -8 -12 -15 -18 -16 -44 -6 -17 6 -29 7 -25 2 8 -13 -3 -11 -38 7 l-31 16
6 -28 c9 -43 36 -104 46 -104 6 0 12 8 15 18 9 27 57 68 87 76 32 7 36 0 45
-89 5 -47 11 -66 23 -69 9 -3 66 -10 126 -17 121 -12 125 -13 125 -36 0 -13
-8 -15 -42 -10 -116 16 -153 19 -148 15 3 -3 41 -20 85 -37 l79 -32 126 22
c103 18 144 20 224 14 81 -6 96 -9 92 -22 -5 -11 -1 -14 13 -10 14 3 17 0 13
-15 -7 -27 46 -74 78 -70 14 2 22 1 18 -3 -11 -11 18 -35 44 -35 l23 -1 -22
-12 c-20 -11 -21 -15 -9 -32 7 -11 11 -29 9 -40 -2 -11 -6 -32 -7 -48 -2 -15
-5 -30 -9 -33 -8 -8 -47 -8 -75 1 -18 6 -21 4 -16 -9 5 -12 2 -15 -12 -9 -12
4 -15 3 -10 -5 5 -8 -4 -17 -23 -25 -23 -10 -28 -16 -20 -24 15 -15 -48 -11
-78 5 -37 20 -38 13 -3 -19 39 -34 29 -30 -45 16 -51 32 -101 46 -240 65 -91
13 -158 31 -204 54 -17 9 -61 18 -97 20 l-66 4 7 -31 c16 -78 17 -97 5 -112
-18 -21 -46 -19 -64 7 l-15 21 -10 -26 c-13 -34 -48 -37 -56 -4 -2 12 -6 45
-7 72 l-3 50 -146 -2 c-158 -3 -172 1 -167 48 3 23 -1 24 -90 36 -52 6 -136
13 -187 15 -83 3 -95 1 -99 -15 -3 -13 7 -23 37 -38 53 -27 50 -24 42 -48 -6
-20 -8 -20 -73 13 -37 18 -111 48 -166 67 -94 32 -99 32 -111 15 -8 -10 -18
-15 -24 -11 -6 3 -11 1 -11 -4 0 -22 -21 -10 -41 23 -18 31 -24 34 -82 39 -51
5 -66 10 -85 32 -41 49 -29 58 73 56 49 -1 92 -4 96 -7 10 -6 381 -42 515 -50
l120 -7 32 40 c17 22 43 62 57 89 14 27 31 57 37 66 9 13 9 22 0 40 -10 21
-17 47 -36 131 -5 20 -12 27 -29 27 -28 0 -67 34 -67 59 0 18 34 55 60 63 25
9 48 -10 55 -44 8 -42 37 -108 48 -108 5 0 5 4 2 10 -3 5 4 23 16 39 27 37 20
81 -13 81 -29 0 -68 38 -68 66 0 17 -4 22 -15 17 -9 -3 -23 1 -33 9 -9 8 -43
27 -74 43 -70 33 -108 67 -108 96 0 20 3 21 47 14 l46 -7 -26 32 c-26 31 -34
60 -20 73 10 11 19 8 32 -7z m-49 -1180 c0 -3 -4 -8 -10 -11 -5 -3 -10 -1 -10
4 0 6 5 11 10 11 6 0 10 -2 10 -4z"/>
<path d="M2361 2115 c-12 -27 -36 -71 -55 -99 -68 -105 -49 -123 47 -46 91 73
96 85 59 145 l-30 48 -21 -48z"/>
<path d="M2740 2037 c0 -8 18 -19 43 -26 23 -7 50 -15 60 -17 9 -3 17 -1 17 3
0 5 -23 18 -52 29 -29 10 -56 21 -60 22 -4 2 -8 -3 -8 -11z"/>
</g>
</svg>
