<?xml version="1.0" standalone="no"?>
<!DOCTYPE svg PUBLIC "-//W3C//DTD SVG 20010904//EN"
 "http://www.w3.org/TR/2001/REC-SVG-20010904/DTD/svg10.dtd">
<svg version="1.0" xmlns="http://www.w3.org/2000/svg"
 width="480.000000pt" height="360.000000pt" viewBox="0 0 480.000000 360.000000"
 preserveAspectRatio="xMidYMid meet">
<metadata>
Created by potrace 1.16, written by Peter Selinger 2001-2019
</metadata>
<rect width="1" height="360" fill="#000000"/>
<rect x="479" width="1" height="360" fill="#000000"/>
<rect width="480" height="1" fill="#000000"/>
<rect y="359" width="480" height="1" fill="#000000"/>
<g transform="translate(0.000000,360.000000) scale(0.100000,-0.100000)"
fill="#000000" stroke="none">
<path d="M0 1800 l0 -1800 1084 0 1084 0 5 23 c4 12 18 90 32 172 14 83 39
221 56 308 17 87 29 161 26 163 -2 3 -27 -7 -55 -22 -55 -29 -83 -28 -122 4
-33 27 -39 105 -12 163 32 71 79 129 105 129 56 0 61 -45 12 -126 -19 -32 -35
-61 -35 -66 0 -19 28 -5 62 29 47 50 70 97 74 152 2 39 -4 55 -54 134 -31 49
-86 128 -121 176 -59 80 -91 150 -91 204 0 32 120 189 153 201 26 9 41 32 103
163 41 84 77 165 80 180 4 16 16 45 26 67 19 36 19 39 2 55 -16 15 -16 15 -11
-1 8 -23 -8 -23 -25 0 -25 32 -54 40 -149 40 -113 0 -189 23 -255 77 -76 62
-134 166 -163 290 -7 32 -20 56 -33 64 -18 11 -25 9 -62 -28 -97 -95 -137 -12
-103 215 7 45 18 89 26 98 25 30 148 86 244 111 214 55 304 56 603 6 179 -31
230 -30 291 3 16 8 84 65 153 125 143 127 208 166 309 183 62 10 84 10 164 -5
51 -10 103 -19 117 -20 43 -3 33 18 -12 26 -24 5 -44 10 -46 12 -8 8 63 65 93
75 24 8 34 18 38 39 4 18 20 37 46 54 22 14 47 39 56 54 9 16 30 36 46 45 28
16 29 16 29 -3 0 -11 -5 -30 -12 -42 -7 -12 -12 -48 -13 -81 0 -58 -2 -62 -43
-83 -2 -1 6 -14 17 -30 18 -23 20 -37 15 -75 -4 -31 -11 -45 -18 -41 -11 7
-96 13 -96 7 0 -2 31 -27 69 -54 79 -57 142 -142 166 -223 19 -64 19 -168 0
-339 -9 -84 -11 -147 -6 -170 16 -68 59 -125 171 -223 146 -129 198 -188 252
-293 100 -188 158 -369 158 -487 0 -54 -3 -65 -20 -70 -25 -8 -37 -67 -21
-102 10 -21 9 -29 -3 -41 -13 -13 -17 -12 -38 10 -12 13 -28 33 -34 43 -10 17
-14 16 -70 -18 -77 -48 -116 -48 -209 -3 -128 61 -198 131 -266 265 -33 65
-35 73 -12 64 12 -5 14 -3 8 7 -8 13 -57 12 -346 -6 -114 -7 -205 4 -298 37
-30 10 -56 18 -57 16 -9 -9 23 -281 60 -503 49 -286 82 -586 71 -642 -3 -18
-8 -111 -11 -205 -2 -95 -8 -198 -12 -229 l-9 -58 819 0 818 0 0 1800 0 1800
-2400 0 -2400 0 0 -1800z"/>
<path d="M3696 3291 c-4 -7 -5 -15 -2 -18 9 -9 19 4 14 18 -4 11 -6 11 -12 0z"/>
<path d="M1700 2781 c11 -38 48 -108 61 -117 16 -10 39 24 39 56 0 31 -20 52
-72 73 l-36 15 8 -27z"/>
<path d="M1641 2711 c-27 -128 0 -178 63 -112 l28 29 -26 41 c-14 22 -26 44
-26 49 0 4 -6 17 -14 27 -12 17 -14 14 -25 -34z"/>
<path d="M1870 2582 c-20 -17 -20 -17 -1 -84 27 -93 67 -162 123 -213 63 -56
111 -78 183 -82 59 -4 60 -4 39 14 -42 35 -39 93 5 93 10 0 30 14 46 30 16 17
26 30 23 30 -14 0 -97 -42 -121 -61 -50 -39 -48 -14 3 60 29 40 48 76 43 80
-68 59 -146 97 -270 134 -48 15 -54 14 -73 -1z"/>
<path d="M2230 2408 c-8 -13 -18 -28 -23 -35 -4 -7 8 -6 35 5 55 20 53 19 38
37 -17 21 -33 19 -50 -7z"/>
<path d="M3051 1908 c1 -46 4 -112 8 -148 l6 -64 50 -19 c76 -29 193 -38 335
-26 69 6 141 14 160 18 l35 7 -75 55 c-232 171 -397 259 -487 259 l-33 0 1
-82z"/>
<path d="M2422 1888 c-112 -247 -124 -276 -126 -323 -1 -27 -9 -65 -19 -84 -9
-19 -17 -36 -17 -38 0 -1 15 -3 34 -3 31 0 38 6 80 69 35 52 46 78 46 107 0
71 5 109 18 132 18 31 28 167 14 176 -6 4 -19 -11 -30 -36z"/>
<path d="M3848 1593 c-16 -2 -28 -6 -28 -9 0 -2 15 -35 33 -71 39 -82 132
-184 192 -212 61 -28 174 -23 168 7 -2 7 15 23 37 37 37 23 60 51 60 74 0 5
-20 26 -43 45 l-44 36 -49 -15 c-104 -32 -169 -13 -236 66 -23 27 -46 48 -52
48 -6 -1 -23 -4 -38 -6z"/>
<path d="M3950 1592 c0 -19 70 -71 105 -78 39 -7 96 5 97 21 0 5 -27 19 -59
31 -71 27 -143 40 -143 26z"/>
</g>
</svg>
