<?xml version="1.0" standalone="no"?>
<!DOCTYPE svg PUBLIC "-//W3C//DTD SVG 20010904//EN"
 "http://www.w3.org/TR/2001/REC-SVG-20010904/DTD/svg10.dtd">
<svg version="1.0" xmlns="http://www.w3.org/2000/svg"
 width="480.000000pt" height="360.000000pt" viewBox="0 0 480.000000 360.000000"
 preserveAspectRatio="xMidYMid meet">
<metadata>
Created by potrace 1.16, written by Peter Selinger 2001-2019
</metadata>
<rect width="1" height="360" fill="#000000"/>
<rect x="479" width="1" height="360" fill="#000000"/>
<rect width="480" height="1" fill="#000000"/>
<rect y="359" width="480" height="1" fill="#000000"/>
<g transform="translate(0.000000,360.000000) scale(0.100000,-0.100000)"
fill="#000000" stroke="none">
<path d="M4126 3270 c-91 -53 -173 -112 -328 -235 -70 -55 -150 -118 -178
-140 -67 -52 -195 -135 -317 -207 -54 -32 -119 -74 -144 -93 l-47 -35 5 42 c7
61 -24 100 -75 96 -19 -2 -38 -9 -40 -17 -3 -8 0 -11 7 -7 17 11 13 -5 -9 -41
-22 -38 -40 -40 -114 -18 -80 24 -173 19 -284 -16 -122 -38 -150 -51 -104 -46
17 2 32 2 32 0 0 -1 -17 -14 -37 -27 -21 -14 -49 -35 -63 -46 -24 -21 -19 -22
23 -5 14 6 11 -3 -12 -36 -34 -48 -55 -136 -42 -171 5 -14 10 -17 15 -10 14
24 26 11 26 -28 0 -39 -1 -40 -34 -40 l-33 0 -5 88 c-7 112 -38 183 -110 255
-74 74 -126 97 -219 97 -96 1 -123 22 -146 113 -32 125 -90 213 -187 280 -133
94 -271 127 -402 98 -111 -25 -243 -137 -326 -276 -83 -137 -110 -312 -68
-435 65 -191 260 -330 464 -330 33 0 87 7 121 15 55 14 65 14 98 0 20 -8 37
-22 37 -30 0 -17 -16 -20 -25 -5 -3 6 -22 10 -40 10 -28 0 -46 -11 -97 -58
-35 -32 -84 -73 -110 -92 -49 -34 -55 -47 -38 -81 9 -15 4 -29 -25 -70 -19
-28 -38 -62 -41 -75 -14 -54 34 -61 65 -9 19 32 22 34 48 24 33 -12 63 -38 63
-53 0 -6 -13 -26 -29 -44 -29 -32 -30 -33 -13 -62 9 -16 24 -31 33 -33 20 -5
29 -66 29 -206 1 -121 10 -172 39 -211 11 -15 23 -44 27 -64 4 -26 14 -41 30
-48 20 -10 24 -18 24 -59 0 -41 -4 -51 -25 -65 -25 -16 -26 -20 -23 -113 3
-89 5 -97 26 -106 19 -8 22 -17 22 -67 0 -44 -3 -58 -15 -58 -24 0 -35 -35
-37 -112 -1 -87 6 -115 33 -123 16 -5 19 -16 19 -58 0 -43 -4 -55 -25 -72 -21
-17 -27 -32 -32 -88 -6 -64 -5 -67 16 -67 19 0 21 5 21 53 0 60 6 72 28 55 11
-10 17 -9 27 5 18 25 25 10 25 -55 0 -52 2 -58 21 -58 15 0 19 4 15 16 -3 9
-6 42 -6 75 0 54 -2 60 -25 69 -22 9 -25 15 -25 63 0 47 3 55 24 65 20 9 26
21 31 66 11 82 -1 143 -31 162 -20 14 -24 24 -24 70 0 39 4 54 14 54 28 0 39
30 38 110 -2 83 -13 120 -36 120 -17 0 -26 22 -26 65 0 44 36 70 110 80 53 7
209 37 265 51 l27 7 -21 -41 c-55 -108 -60 -218 -31 -636 16 -218 6 -309 -39
-357 -11 -12 -21 -26 -21 -30 0 -14 858 -11 862 2 3 9 9 9 25 0 15 -7 102 -11
266 -11 l245 0 113 115 c190 194 215 240 190 356 -21 98 -67 165 -215 314
l-139 140 13 135 c20 223 48 408 84 545 40 152 57 199 63 172 3 -9 9 -15 14
-12 5 4 13 -5 19 -20 5 -14 17 -28 25 -32 21 -7 65 34 58 54 -4 9 0 13 9 11
16 -3 98 88 98 108 0 6 6 17 13 23 16 13 78 135 102 201 36 97 41 209 11 254
-18 29 -112 66 -164 66 -41 0 -110 -28 -157 -64 -25 -19 -38 -22 -79 -17 l-50
6 130 114 c71 63 152 137 180 164 l51 49 31 -16 c51 -26 111 -21 168 15 27 18
75 41 107 52 32 10 61 26 65 35 7 18 -68 89 -104 98 -35 9 -29 17 29 39 61 24
71 47 27 65 -16 7 -30 15 -30 17 0 7 213 254 244 282 14 14 26 28 26 33 0 16
-27 7 -94 -32z m-1824 -1337 c-1 -10 -5 -32 -8 -50 -6 -30 -3 -34 40 -60 29
-18 45 -33 42 -43 -2 -8 -32 -94 -66 -191 l-62 -175 -51 -17 c-29 -10 -106
-29 -172 -43 -66 -13 -158 -36 -204 -50 -61 -19 -86 -22 -91 -14 -4 6 -10 46
-13 88 -4 42 -9 98 -13 124 -6 44 -5 47 25 63 l32 16 -25 29 c-14 17 -30 55
-36 86 -11 50 -10 64 9 121 12 35 21 70 21 78 0 20 16 19 48 -3 39 -27 86 -41
161 -48 96 -9 171 14 257 81 61 46 71 51 89 40 11 -7 19 -21 17 -32z m-737
-903 c3 -5 1 -10 -4 -10 -6 0 -11 5 -11 10 0 6 2 10 4 10 3 0 8 -4 11 -10z
m38 -211 c21 17 27 3 27 -69 0 -74 -6 -88 -27 -62 -12 16 -14 16 -27 -1 -12
-16 -14 -16 -20 -1 -8 21 -8 129 1 137 3 4 12 2 20 -4 9 -8 17 -8 26 0z m1260
-224 c60 -238 80 -349 74 -408 -6 -50 -47 -135 -78 -163 -17 -15 -21 -14 -66
13 -35 22 -49 38 -56 64 -5 18 -17 43 -28 55 -39 42 -44 313 -7 424 26 81 49
125 58 110 6 -9 12 -1 20 31 21 82 22 84 30 68 4 -8 28 -95 53 -194z m-1256
-127 c13 34 23 3 23 -68 0 -44 -3 -80 -6 -80 -4 0 -13 8 -20 18 -13 16 -15 16
-25 -2 -17 -29 -29 -1 -29 70 0 69 4 77 32 61 16 -9 22 -9 25 1z m1603 -56
c-16 -34 -25 -14 -15 36 7 35 8 36 18 14 7 -16 7 -30 -3 -50z"/>
</g>
</svg>
