<?xml version="1.0" standalone="no"?>
<!DOCTYPE svg PUBLIC "-//W3C//DTD SVG 20010904//EN"
 "http://www.w3.org/TR/2001/REC-SVG-20010904/DTD/svg10.dtd">
<svg version="1.0" xmlns="http://www.w3.org/2000/svg"
 width="480.000000pt" height="360.000000pt" viewBox="0 0 480.000000 360.000000"
 preserveAspectRatio="xMidYMid meet">
<metadata>
Created by potrace 1.16, written by Peter Selinger 2001-2019
</metadata>
<rect width="1" height="360" fill="#000000"/>
<rect x="479" width="1" height="360" fill="#000000"/>
<rect width="480" height="1" fill="#000000"/>
<rect y="359" width="480" height="1" fill="#000000"/>
<g transform="translate(0.000000,360.000000) scale(0.100000,-0.100000)"
fill="#000000" stroke="none">
<path d="M0 1800 l0 -1800 1000 0 c975 0 1000 0 1000 19 0 49 23 238 41 343
18 101 20 131 11 220 -6 65 -6 128 0 171 7 52 6 81 -5 120 -10 36 -14 98 -13
199 0 82 -2 148 -6 148 -4 0 -17 -13 -30 -29 -47 -58 -69 -65 -171 -55 -51 5
-166 9 -255 9 -161 0 -164 0 -183 24 l-20 24 -27 -21 c-79 -63 -137 -75 -257
-51 -38 7 -110 14 -160 14 -76 0 -90 3 -93 17 -4 18 33 41 83 52 40 9 175 86
189 108 17 28 -7 42 -68 41 -37 -1 -59 3 -67 13 -26 32 26 49 180 59 78 5 103
4 135 -10 37 -16 39 -16 62 6 15 14 31 20 44 16 11 -3 33 0 49 6 23 9 50 6
137 -16 60 -15 145 -29 189 -33 l81 -7 46 141 c36 108 45 147 39 169 -11 39
-1 62 68 151 59 77 85 142 61 157 -27 16 29 97 109 158 34 26 50 47 55 69 3
17 5 33 3 34 -1 2 -23 -4 -49 -13 l-45 -17 -52 53 c-28 29 -51 57 -51 62 0 5
-16 19 -35 30 l-35 21 20 25 c11 14 20 31 20 38 0 24 -39 48 -80 48 -32 0 -43
5 -57 26 -9 14 -23 32 -30 39 -7 7 -13 28 -13 45 l0 32 -20 -25 c-26 -34 -25
-24 11 94 56 182 82 221 178 276 12 6 12 18 2 70 -7 34 -9 66 -4 71 11 11 112
14 140 5 19 -7 23 -3 32 36 23 92 45 159 53 164 5 3 17 -5 28 -18 l20 -23 36
43 c19 23 41 42 48 42 29 0 133 -139 180 -241 14 -30 26 -71 26 -92 0 -34 7
-45 49 -83 54 -49 83 -94 124 -196 49 -123 76 -255 111 -553 13 -103 24 -146
81 -300 84 -231 116 -352 131 -506 6 -62 5 -71 -8 -66 -12 4 -19 -8 -29 -51
-12 -49 -12 -65 0 -109 13 -49 12 -57 -8 -115 -81 -228 -103 -299 -121 -399
-12 -68 -27 -120 -37 -131 -22 -25 -45 -317 -36 -455 l6 -93 993 0 994 0 0
1800 0 1800 -2400 0 -2400 0 0 -1800z"/>
<path d="M2071 1170 c0 -19 4 -53 8 -75 9 -40 9 -40 9 15 0 30 -3 64 -8 75 -7
16 -9 13 -9 -15z"/>
</g>
</svg>
