<?xml version="1.0" standalone="no"?>
<!DOCTYPE svg PUBLIC "-//W3C//DTD SVG 20010904//EN"
 "http://www.w3.org/TR/2001/REC-SVG-20010904/DTD/svg10.dtd">
<svg version="1.0" xmlns="http://www.w3.org/2000/svg"
 width="480.000000pt" height="360.000000pt" viewBox="0 0 480.000000 360.000000"
 preserveAspectRatio="xMidYMid meet">
<metadata>
Created by potrace 1.16, written by Peter Selinger 2001-2019
</metadata>
<rect width="1" height="360" fill="#000000"/>
<rect x="479" width="1" height="360" fill="#000000"/>
<rect width="480" height="1" fill="#000000"/>
<rect y="359" width="480" height="1" fill="#000000"/>
<g transform="translate(0.000000,360.000000) scale(0.100000,-0.100000)"
fill="#000000" stroke="none">
<path d="M0 1800 l0 -1800 1216 0 1215 0 -3 107 -3 107 -73 28 c-40 15 -89 40
-109 55 -32 25 -35 30 -30 68 11 80 36 174 57 216 17 31 21 53 17 83 -6 44 6
209 24 321 11 71 59 227 85 277 12 24 24 109 49 363 4 33 8 71 11 85 3 21 -4
16 -46 -30 -55 -60 -82 -127 -94 -235 -12 -109 -15 -116 -37 -102 -16 10 -21
9 -28 -2 -14 -22 -20 3 -11 45 53 227 71 272 151 362 21 25 39 53 39 63 0 10
5 21 10 24 17 11 0 25 -29 25 -35 0 -93 19 -103 34 -4 6 -8 20 -8 32 0 23 -36
44 -75 44 -20 0 -27 -11 -51 -72 -65 -174 -144 -277 -238 -313 -47 -18 -52
-18 -115 -2 -90 24 -156 59 -221 117 -50 45 -53 49 -30 50 45 0 86 -17 149
-64 34 -25 86 -53 116 -62 46 -15 58 -15 86 -4 76 32 134 107 199 261 22 51
40 94 40 95 0 11 -310 44 -411 44 -58 0 -70 -3 -79 -20 -6 -11 -9 -20 -6 -20
3 0 0 -13 -5 -30 l-11 -30 -106 0 c-93 0 -108 -3 -127 -20 -19 -17 -26 -19
-50 -10 -16 6 -74 13 -129 15 -56 2 -125 9 -155 15 -36 7 -172 8 -400 4 -384
-7 -403 -5 -473 51 -24 20 -51 38 -60 41 -44 15 5 74 95 114 61 28 161 26 559
-15 189 -19 345 -35 348 -35 3 0 25 18 48 40 29 26 55 41 80 45 20 3 69 13
107 23 61 15 126 17 485 18 228 0 420 2 425 3 6 1 3 7 -5 14 -9 7 -36 34 -60
60 -49 54 -47 61 28 72 41 6 43 8 38 33 l-6 27 16 -22 c28 -39 45 -30 37 20
-5 23 -8 78 -8 123 0 65 -3 81 -15 80 -8 -1 -16 7 -18 17 -3 13 11 24 50 42
43 20 68 25 138 25 47 0 101 -4 120 -8 47 -11 100 3 100 27 0 27 47 111 83
148 33 35 105 75 119 67 4 -3 8 -615 8 -1360 l0 -1354 21 0 c14 0 25 -11 35
-37 9 -21 31 -71 50 -110 l35 -73 194 0 c107 0 195 1 195 3 -1 12 -56 175 -90
265 -47 124 -46 131 16 154 19 6 34 16 34 20 0 4 6 8 14 8 8 0 24 14 36 31 21
28 21 34 10 77 -20 72 -45 116 -111 192 -33 38 -55 70 -49 70 20 0 10 40 -27
107 -50 93 -160 257 -217 322 l-46 55 0 109 c0 105 14 187 31 187 11 0 48 -60
78 -125 37 -78 70 -179 106 -320 32 -124 48 -155 81 -155 7 0 16 -9 19 -20 8
-26 22 -26 30 0 5 17 10 18 27 9 20 -11 21 -10 14 39 -3 27 -31 123 -61 212
-30 89 -55 165 -55 168 0 10 77 -74 90 -98 6 -11 13 -48 14 -83 2 -34 11 -82
19 -106 13 -37 111 -193 144 -228 6 -7 21 -28 32 -47 12 -19 35 -39 53 -45 17
-6 40 -19 51 -28 17 -16 19 -17 28 -1 5 10 16 15 24 12 24 -10 18 2 -31 57
-25 28 -43 53 -41 56 3 2 37 -9 77 -26 63 -27 71 -29 68 -12 -2 10 3 25 10 34
15 18 4 24 -135 77 -44 17 -86 36 -91 43 -11 14 -33 89 -28 95 2 2 20 -11 40
-28 l36 -32 0 40 c0 31 5 43 25 56 24 16 25 18 10 39 -8 12 -41 48 -71 79
l-57 58 18 87 c10 49 21 91 24 95 3 3 44 2 91 -2 72 -8 90 -6 125 9 22 10 45
24 51 32 6 8 36 119 67 247 62 254 62 256 2 285 -31 15 -51 47 -80 129 -9 27
-31 64 -48 83 -18 20 -51 70 -73 113 -40 75 -66 98 -77 69 -3 -8 3 -32 14 -52
11 -20 19 -39 17 -41 -2 -2 -23 21 -46 51 -44 57 -87 79 -103 54 -12 -19 -20
-7 -26 40 -6 44 -3 47 28 30 15 -7 24 -7 35 2 20 17 17 26 -10 33 -14 3 -28
16 -32 29 -3 12 -12 29 -19 37 -7 8 -18 63 -24 121 -13 122 -24 164 -47 190
-21 23 -37 24 -54 3 -7 -8 -23 -14 -34 -12 -12 1 -27 -1 -34 -6 -24 -15 -80 4
-131 45 l-51 41 -72 -7 c-65 -7 -75 -11 -102 -41 -16 -19 -33 -34 -38 -34 -4
0 -8 146 -8 325 l0 325 -1460 0 -1460 0 0 -1800z m3478 574 c2 -24 -2 -31 -28
-43 -38 -16 -29 -30 40 -60 30 -13 62 -37 82 -63 18 -23 49 -57 68 -76 27 -28
34 -41 31 -66 -4 -40 -6 -42 -37 -27 -23 10 -30 9 -48 -8 -14 -13 -29 -18 -43
-15 -11 3 -24 1 -27 -5 -8 -12 -114 -14 -186 -3 -42 7 -45 9 -50 42 -5 32 -10
37 -55 52 -27 9 -68 17 -90 18 -45 0 -74 13 -56 24 6 4 11 16 11 27 0 25 30
25 37 -1 7 -25 19 -26 28 -2 6 15 8 14 17 -8 l9 -25 14 33 c17 39 30 41 40 5
l8 -28 9 35 c24 86 39 117 66 131 15 7 36 22 47 32 32 29 89 65 100 63 6 -1
11 -16 13 -32z m160 -523 c1 -29 0 -29 -31 -16 -18 7 -31 17 -30 22 1 7 29 18
54 22 3 1 6 -12 7 -28z m-211 -234 c42 -22 56 -48 39 -73 -7 -10 -16 -31 -20
-46 -3 -16 -10 -28 -15 -28 -10 0 -174 146 -179 159 -5 15 142 5 175 -12z m70
-119 c-3 -8 -6 -5 -6 6 -1 11 2 17 5 13 3 -3 4 -12 1 -19z"/>
<path d="M2418 2610 c-28 -28 -30 -35 -26 -83 5 -58 55 -197 74 -204 15 -5 87
42 123 81 19 20 22 29 13 38 -20 20 -14 56 13 74 33 22 32 41 -5 62 -16 9 -30
22 -30 29 0 20 -35 33 -85 33 -39 0 -52 -5 -77 -30z"/>
<path d="M2579 2267 c-14 -12 -35 -27 -45 -33 -18 -10 -17 -11 5 -23 18 -10
29 -10 52 -1 27 12 41 40 19 40 -14 0 -12 27 3 33 6 3 8 6 2 6 -5 0 -22 -10
-36 -22z"/>
<path d="M2835 198 c-2 -7 -6 -55 -8 -106 l-4 -92 48 0 49 0 0 105 0 105 -40
0 c-24 0 -42 -5 -45 -12z"/>
</g>
</svg>
