<?xml version="1.0" standalone="no"?>
<!DOCTYPE svg PUBLIC "-//W3C//DTD SVG 20010904//EN"
 "http://www.w3.org/TR/2001/REC-SVG-20010904/DTD/svg10.dtd">
<svg version="1.0" xmlns="http://www.w3.org/2000/svg"
 width="480.000000pt" height="360.000000pt" viewBox="0 0 480.000000 360.000000"
 preserveAspectRatio="xMidYMid meet">
<metadata>
Created by potrace 1.16, written by Peter Selinger 2001-2019
</metadata>
<rect width="1" height="360" fill="#000000"/>
<rect x="479" width="1" height="360" fill="#000000"/>
<rect width="480" height="1" fill="#000000"/>
<rect y="359" width="480" height="1" fill="#000000"/>
<g transform="translate(0.000000,360.000000) scale(0.100000,-0.100000)"
fill="#000000" stroke="none">
<path d="M0 1800 l0 -1800 384 0 385 0 -35 53 c-55 81 -159 301 -197 417 -150
447 -219 1079 -174 1578 9 91 9 136 2 141 -5 5 -30 17 -55 28 -55 24 -110 84
-110 120 0 73 78 157 173 185 77 23 98 -24 41 -90 -20 -24 -34 -45 -31 -48 10
-10 179 -23 389 -29 288 -10 378 1 514 60 182 79 241 89 529 90 198 0 275 -4
368 -19 l118 -19 30 28 c43 42 38 52 -25 47 -48 -4 -55 -2 -66 18 -10 19 -5
28 60 90 l72 69 3 136 c3 128 5 138 29 169 37 49 106 97 234 161 91 46 124 58
175 62 59 5 65 3 122 -36 33 -22 78 -54 100 -70 l40 -31 67 25 c93 34 160 42
177 21 22 -26 1 -58 -83 -126 -70 -58 -74 -63 -65 -88 5 -15 32 -56 59 -91 44
-57 48 -65 33 -76 -9 -7 -14 -19 -10 -28 8 -21 -14 -77 -31 -77 -7 0 -15 -6
-18 -14 -3 -8 -14 -16 -24 -19 -10 -2 -23 -14 -29 -26 -10 -19 -8 -25 21 -51
l32 -30 -27 -28 c-24 -25 -28 -39 -33 -112 -5 -83 -22 -140 -49 -170 -13 -15
-8 -20 55 -50 62 -30 72 -32 94 -21 22 12 29 11 63 -10 52 -33 86 -51 166 -89
52 -26 69 -39 75 -60 5 -21 41 -51 152 -125 l144 -97 35 17 c33 16 36 15 60
-4 14 -12 37 -26 49 -31 13 -6 26 -19 29 -29 2 -10 15 -23 29 -29 13 -6 26
-24 30 -39 4 -15 11 -33 16 -40 5 -7 7 -21 3 -32 -5 -16 13 -42 83 -120 172
-192 255 -314 416 -616 103 -192 156 -265 193 -265 11 0 13 258 13 1510 l0
1510 -2400 0 -2400 0 0 -1800z"/>
<path d="M1590 2341 c-112 -16 -186 -42 -278 -97 -107 -64 -177 -90 -265 -100
-101 -11 -100 -11 -115 -100 -19 -111 -28 -894 -13 -1121 22 -330 74 -563 187
-830 l39 -93 497 0 497 0 10 38 c6 20 22 91 36 157 75 347 103 421 242 633
127 193 117 138 117 648 1 352 -2 438 -11 428 -7 -7 -13 -20 -13 -28 0 -9 -4
-16 -10 -16 -16 0 -12 49 10 128 25 90 25 92 -2 92 -36 0 -122 44 -168 86 -23
21 -52 58 -64 83 -24 51 -27 52 -185 76 -119 19 -427 28 -511 16z"/>
<path d="M3070 2004 c0 -4 17 -29 37 -57 21 -28 37 -62 38 -76 0 -14 5 -26 10
-26 11 0 12 66 2 105 -7 28 -87 77 -87 54z"/>
<path d="M3475 1771 c-4 -15 4 -29 31 -54 36 -33 36 -34 21 -63 -9 -16 -48
-67 -87 -113 -39 -46 -69 -86 -66 -88 10 -10 114 28 213 77 57 27 106 50 111
50 5 0 14 12 21 27 12 25 10 29 -16 51 -42 34 -198 132 -211 132 -6 0 -13 -9
-17 -19z"/>
<path d="M3927 1412 c-17 -18 -27 -39 -27 -59 0 -55 -12 -94 -34 -108 -13 -9
-79 -17 -181 -24 -129 -8 -181 -16 -270 -41 -84 -24 -122 -31 -162 -27 l-52 5
-23 -44 c-21 -43 -31 -50 -88 -56 -23 -3 -25 -7 -23 -46 1 -24 18 -126 38
-225 19 -100 49 -303 65 -452 17 -148 33 -285 36 -302 l6 -33 794 0 794 0 0
136 0 135 -73 72 c-94 92 -141 165 -269 417 -114 223 -167 311 -259 428 -84
106 -219 252 -233 252 -7 0 -24 -13 -39 -28z"/>
</g>
</svg>
