<?xml version="1.0" standalone="no"?>
<!DOCTYPE svg PUBLIC "-//W3C//DTD SVG 20010904//EN"
 "http://www.w3.org/TR/2001/REC-SVG-20010904/DTD/svg10.dtd">
<svg version="1.0" xmlns="http://www.w3.org/2000/svg"
 width="480.000000pt" height="360.000000pt" viewBox="0 0 480.000000 360.000000"
 preserveAspectRatio="xMidYMid meet">
<metadata>
Created by potrace 1.16, written by Peter Selinger 2001-2019
</metadata>
<rect width="1" height="360" fill="#000000"/>
<rect x="479" width="1" height="360" fill="#000000"/>
<rect width="480" height="1" fill="#000000"/>
<rect y="359" width="480" height="1" fill="#000000"/>
<g transform="translate(0.000000,360.000000) scale(0.100000,-0.100000)"
fill="#000000" stroke="none">
<path d="M0 1800 l0 -1800 1070 0 c739 0 1070 3 1070 10 0 6 7 70 15 143 22
195 46 517 39 528 -3 5 -19 16 -35 25 -17 8 -28 21 -26 27 2 7 -3 18 -12 25
-12 10 -13 15 -3 18 6 3 10 10 6 15 -3 5 8 33 25 63 26 45 33 73 45 177 32
269 32 288 0 408 -26 101 -27 114 -16 163 7 29 16 69 21 88 4 19 18 54 30 78
12 23 17 42 11 42 -17 0 -11 48 9 62 12 9 20 32 25 70 7 53 6 58 -21 83 -15
15 -39 31 -52 36 -18 7 -21 12 -12 23 9 11 9 16 0 21 -6 4 -15 2 -19 -4 -5 -9
-16 -5 -38 14 -18 15 -32 23 -32 18 0 -4 -9 5 -19 20 -12 19 -20 24 -23 15
-11 -30 -18 101 -9 150 14 69 19 78 85 140 165 156 344 134 466 -58 34 -55 83
-212 105 -340 9 -52 27 -140 41 -195 31 -127 54 -266 54 -330 1 -27 7 -86 16
-130 11 -58 17 -207 24 -540 10 -488 8 -472 70 -733 l32 -132 929 0 929 0 0
1069 0 1068 -57 18 c-159 49 -335 155 -470 281 -224 208 -345 429 -404 734
-19 101 -21 135 -16 273 l6 157 -1929 0 -1930 0 0 -1800z"/>
<path d="M2360 2003 c0 -10 5 -25 10 -33 8 -12 10 -9 10 12 0 15 -4 30 -10 33
-5 3 -10 -2 -10 -12z"/>
</g>
</svg>
