<?xml version="1.0" standalone="no"?>
<!DOCTYPE svg PUBLIC "-//W3C//DTD SVG 20010904//EN"
 "http://www.w3.org/TR/2001/REC-SVG-20010904/DTD/svg10.dtd">
<svg version="1.0" xmlns="http://www.w3.org/2000/svg"
 width="480.000000pt" height="360.000000pt" viewBox="0 0 480.000000 360.000000"
 preserveAspectRatio="xMidYMid meet">
<metadata>
Created by potrace 1.16, written by Peter Selinger 2001-2019
</metadata>
<rect width="1" height="360" fill="#000000"/>
<rect x="479" width="1" height="360" fill="#000000"/>
<rect width="480" height="1" fill="#000000"/>
<rect y="359" width="480" height="1" fill="#000000"/>
<g transform="translate(0.000000,360.000000) scale(0.100000,-0.100000)"
fill="#000000" stroke="none">
<path d="M1747 2087 c-54 -53 -78 -97 -79 -141 -1 -71 20 -213 35 -241 17 -32
63 -72 114 -99 43 -21 55 -46 58 -120 4 -67 52 -228 85 -280 22 -37 73 -66
113 -66 27 0 50 -18 69 -53 22 -42 121 -146 142 -149 11 -2 31 3 44 11 12 7
24 12 26 10 2 -2 18 -37 36 -78 44 -100 49 -142 21 -177 -17 -22 -21 -40 -21
-100 0 -62 3 -77 23 -98 32 -35 48 -59 71 -108 l21 -43 54 3 c64 3 142 34 231
90 36 22 85 53 110 69 25 15 61 35 80 44 19 9 72 44 117 77 45 34 85 62 88 62
4 0 28 -21 54 -48 25 -26 72 -64 102 -84 31 -20 61 -44 68 -52 7 -8 28 -20 46
-26 29 -9 42 -7 97 15 69 29 102 55 124 97 36 69 10 93 -100 94 -75 0 -84 3
-125 32 -24 18 -53 32 -63 32 -26 0 -78 31 -78 46 0 6 14 28 30 49 17 21 30
44 30 52 0 8 18 51 40 97 45 93 46 96 25 136 -12 23 -28 33 -72 46 -31 9 -89
33 -128 53 -60 31 -79 36 -130 34 -81 -3 -226 13 -300 32 -33 9 -94 36 -135
60 -41 24 -99 50 -128 59 -60 17 -110 65 -162 152 -16 28 -39 59 -50 69 -24
21 -26 40 -4 31 8 -3 63 -15 120 -27 118 -23 152 -18 173 27 6 14 27 34 46 45
43 26 56 64 29 84 -11 8 -38 22 -61 31 -39 15 -45 15 -67 1 -14 -10 -26 -28
-28 -44 -3 -26 -6 -28 -47 -26 -36 2 -49 8 -71 34 l-27 33 -109 -12 c-60 -6
-125 -14 -145 -17 -29 -6 -37 -3 -43 11 -7 19 15 38 44 39 18 0 16 38 -7 113
-11 36 -28 63 -55 88 -48 43 -78 56 -143 60 -27 2 -71 7 -97 10 -45 6 -48 4
-91 -39z m530 -917 c0 -33 -2 -60 -3 -60 -2 0 -15 16 -30 35 l-27 36 23 24
c13 14 27 25 31 25 4 0 7 -27 6 -60z"/>
</g>
</svg>
