<?xml version="1.0" standalone="no"?>
<!DOCTYPE svg PUBLIC "-//W3C//DTD SVG 20010904//EN"
 "http://www.w3.org/TR/2001/REC-SVG-20010904/DTD/svg10.dtd">
<svg version="1.0" xmlns="http://www.w3.org/2000/svg"
 width="480.000000pt" height="360.000000pt" viewBox="0 0 480.000000 360.000000"
 preserveAspectRatio="xMidYMid meet">
<metadata>
Created by potrace 1.16, written by Peter Selinger 2001-2019
</metadata>
<rect width="1" height="360" fill="#000000"/>
<rect x="479" width="1" height="360" fill="#000000"/>
<rect width="480" height="1" fill="#000000"/>
<rect y="359" width="480" height="1" fill="#000000"/>
<g transform="translate(0.000000,360.000000) scale(0.100000,-0.100000)"
fill="#000000" stroke="none">
<path d="M0 1800 l0 -1800 133 0 c117 0 136 2 150 18 10 10 17 23 17 29 0 19
209 287 381 489 67 78 89 96 159 132 73 38 89 42 153 42 114 0 117 3 148 155
15 72 38 160 51 196 l25 66 -33 114 c-40 135 -52 226 -34 258 6 12 39 40 73
62 51 33 68 39 94 34 28 -5 33 -3 37 17 20 88 29 174 42 396 9 165 19 265 28
287 16 38 99 97 131 93 12 -2 27 -18 37 -39 34 -68 40 -135 33 -384 -8 -278
-17 -274 99 -50 110 212 169 286 270 340 45 24 59 28 73 19 25 -17 20 -52 -23
-147 -105 -235 -146 -334 -188 -455 -25 -74 -46 -136 -46 -139 0 -4 52 49 116
116 135 141 207 199 300 243 71 33 96 31 102 -8 4 -30 -68 -134 -165 -237 -77
-82 -201 -262 -189 -274 2 -3 56 16 119 42 112 44 238 76 295 74 44 -2 92 -20
92 -34 0 -36 -133 -117 -275 -169 -78 -29 -184 -88 -225 -126 -21 -20 -29 -38
-34 -85 -11 -88 -55 -252 -84 -310 -30 -60 -71 -121 -129 -194 l-43 -53 68
-67 c129 -126 244 -293 291 -423 l11 -28 1370 0 1370 0 0 995 0 995 -41 0
c-22 0 -59 4 -82 9 -23 6 -70 15 -104 22 -35 7 -63 17 -63 21 0 4 -7 8 -15 8
-7 0 -18 6 -22 14 -4 8 -37 18 -74 24 -63 10 -136 47 -169 87 -7 8 -18 15 -26
15 -24 0 -64 23 -64 37 0 7 -5 13 -11 13 -13 0 -101 41 -109 51 -3 3 -12 8
-20 12 -17 8 -53 30 -60 37 -3 3 -22 14 -43 24 -21 11 -46 32 -55 48 -9 15
-20 28 -24 28 -17 0 -98 90 -98 108 0 19 -20 40 -77 80 -20 14 -37 38 -44 63
-7 21 -18 39 -25 39 -6 0 -17 12 -23 28 -6 15 -31 52 -56 82 -25 32 -47 70
-50 90 -3 19 -9 46 -12 60 -5 23 -6 24 -13 5 -8 -19 -9 -18 -9 4 -1 13 -10 38
-20 55 -11 17 -29 56 -40 86 -12 30 -26 64 -31 75 -12 26 -30 173 -30 242 0
29 -4 53 -10 53 -5 0 -10 20 -10 45 l0 45 -1635 0 -1635 0 0 -1800z"/>
</g>
</svg>
