<?xml version="1.0" standalone="no"?>
<!DOCTYPE svg PUBLIC "-//W3C//DTD SVG 20010904//EN"
 "http://www.w3.org/TR/2001/REC-SVG-20010904/DTD/svg10.dtd">
<svg version="1.0" xmlns="http://www.w3.org/2000/svg"
 width="480.000000pt" height="360.000000pt" viewBox="0 0 480.000000 360.000000"
 preserveAspectRatio="xMidYMid meet">
<metadata>
Created by potrace 1.16, written by Peter Selinger 2001-2019
</metadata>
<rect width="1" height="360" fill="#000000"/>
<rect x="479" width="1" height="360" fill="#000000"/>
<rect width="480" height="1" fill="#000000"/>
<rect y="359" width="480" height="1" fill="#000000"/>
<g transform="translate(0.000000,360.000000) scale(0.100000,-0.100000)"
fill="#000000" stroke="none">
<path d="M1682 3331 c-15 -9 -6 -19 46 -45 17 -9 32 -20 32 -25 0 -5 -28 -11
-62 -15 -205 -22 -270 -58 -300 -170 -12 -44 -14 -46 -48 -46 -39 0 -108 -28
-127 -52 -19 -23 36 -73 71 -64 34 8 33 -5 -4 -44 -30 -32 -30 -34 -17 -69 11
-29 27 -43 85 -74 l70 -37 7 -86 c10 -115 -1 -230 -25 -270 -26 -40 -49 -144
-50 -219 0 -33 -1 -82 -1 -110 0 -27 0 -67 1 -87 1 -44 -7 -60 -126 -255 -100
-162 -110 -193 -79 -253 8 -16 22 -50 31 -77 21 -61 35 -77 84 -92 30 -9 55
-9 101 -1 34 6 63 9 65 7 9 -8 -26 -154 -81 -335 -112 -374 -177 -661 -189
-834 l-6 -78 550 0 550 0 0 64 c0 61 -19 351 -40 601 -19 227 -50 737 -50 824
-1 47 -7 131 -14 186 -10 74 -11 103 -3 110 7 6 9 6 5 1 -7 -9 29 -53 37 -45
2 3 0 21 -5 40 -13 45 -13 59 3 59 7 0 26 14 43 31 l29 31 -3 114 -3 115 66
100 c36 55 66 105 68 110 2 12 -256 205 -295 220 -24 9 -27 17 -35 77 -4 37
-7 105 -7 152 0 63 -4 88 -15 96 -13 10 -10 15 14 38 24 23 27 30 18 45 -10
16 -8 20 14 30 l26 12 -23 24 c-13 14 -31 27 -41 30 -10 3 -34 28 -53 55 -20
27 -53 60 -74 74 -21 13 -49 40 -62 60 -39 57 -141 101 -178 77z"/>
</g>
</svg>
