<?xml version="1.0" standalone="no"?>
<!DOCTYPE svg PUBLIC "-//W3C//DTD SVG 20010904//EN"
 "http://www.w3.org/TR/2001/REC-SVG-20010904/DTD/svg10.dtd">
<svg version="1.0" xmlns="http://www.w3.org/2000/svg"
 width="480.000000pt" height="360.000000pt" viewBox="0 0 480.000000 360.000000"
 preserveAspectRatio="xMidYMid meet">
<metadata>
Created by potrace 1.16, written by Peter Selinger 2001-2019
</metadata>
<rect width="1" height="360" fill="#000000"/>
<rect x="479" width="1" height="360" fill="#000000"/>
<rect width="480" height="1" fill="#000000"/>
<rect y="359" width="480" height="1" fill="#000000"/>
<g transform="translate(0.000000,360.000000) scale(0.100000,-0.100000)"
fill="#000000" stroke="none">
<path d="M2903 3420 c-13 -22 -41 -43 -93 -70 -95 -49 -173 -129 -249 -258
-35 -60 -37 -66 -16 -58 18 6 19 -7 4 -35 -9 -18 -8 -19 8 -11 17 9 18 6 15
-50 -2 -35 1 -65 7 -71 8 -8 11 -5 11 11 0 12 5 22 11 22 6 0 9 -9 6 -20 -3
-12 2 -25 12 -33 9 -6 26 -29 38 -49 20 -34 20 -37 5 -51 -9 -8 -27 -20 -39
-26 -29 -15 -29 -34 -2 -71 13 -17 19 -35 15 -46 -4 -9 4 -47 18 -83 13 -36
28 -79 32 -95 5 -16 18 -34 29 -40 11 -6 23 -15 26 -20 4 -5 17 -1 30 8 33 23
42 20 34 -11 l-7 -28 27 25 27 25 -7 -25 c-4 -14 -10 -31 -13 -39 -4 -11 -1
-11 16 -2 29 15 28 16 24 -31 -3 -30 -12 -48 -29 -61 -13 -11 -23 -27 -21 -36
3 -17 -54 -73 -136 -131 -48 -35 -172 -174 -196 -220 -10 -21 -10 -23 1 -12
20 19 31 14 19 -9 -6 -11 -9 -25 -6 -32 3 -9 5 -9 5 0 1 7 10 17 21 23 18 10
19 8 10 -14 -5 -13 -24 -55 -44 -93 -75 -150 -83 -263 -32 -446 18 -67 21 -87
11 -87 -8 0 -73 23 -147 51 -144 56 -220 79 -255 79 -12 0 -52 10 -89 22 -62
20 -67 24 -89 71 -20 39 -22 52 -12 67 9 16 7 23 -11 43 -28 30 -29 80 0 119
17 25 19 34 10 49 -16 25 -15 32 3 26 20 -8 52 23 59 58 5 24 -1 42 -29 85
-19 30 -35 62 -35 70 0 9 -9 26 -20 38 -17 18 -25 20 -40 12 -11 -6 -20 -15
-20 -20 0 -6 -19 -10 -42 -10 -69 0 -113 -17 -151 -59 -44 -49 -64 -116 -72
-246 -4 -62 -21 -155 -43 -245 -35 -136 -37 -155 -37 -300 0 -148 1 -158 27
-210 15 -30 32 -72 38 -93 8 -25 17 -37 25 -33 8 3 16 0 18 -7 7 -21 18 -1 20
39 2 22 7 37 12 34 20 -10 6 -101 -53 -355 -35 -146 -61 -281 -60 -307 1 -59
32 -94 75 -85 21 4 35 -1 54 -19 17 -16 39 -26 60 -26 19 0 39 -5 46 -10 7 -6
67 -7 145 -4 73 4 155 6 182 6 39 0 53 5 72 25 13 14 33 25 46 25 14 0 34 13
52 36 27 35 28 39 22 108 -4 39 -8 89 -10 111 -1 22 -28 139 -58 260 -85 332
-87 342 -75 354 6 6 18 11 26 11 17 0 137 -68 271 -155 92 -59 95 -63 106
-111 14 -56 -3 -172 -56 -389 -34 -140 -47 -196 -56 -247 l-6 -38 616 0 c339
0 616 3 616 6 0 3 -20 53 -45 111 -53 124 -114 234 -235 428 -62 98 -90 154
-95 185 -4 25 -18 74 -32 110 -21 55 -25 89 -30 215 -6 169 2 218 35 223 21 3
21 5 7 32 -24 46 5 151 57 207 23 26 38 52 38 68 0 15 6 36 13 48 11 20 12 17
17 -32 3 -31 10 -56 18 -59 8 -2 10 2 5 14 -7 20 22 45 43 37 27 -10 12 89
-45 287 -26 90 -28 107 -16 116 8 6 15 17 15 23 0 7 7 26 16 43 12 22 19 27
27 19 6 -6 19 -11 29 -11 11 0 18 -6 17 -12 -1 -7 0 -24 1 -38 1 -24 3 -22 16
19 3 11 7 11 19 1 13 -11 15 -8 15 18 0 35 15 50 24 25 6 -15 10 -13 31 12 21
26 26 28 35 15 9 -12 10 -10 5 10 -12 41 -11 45 10 45 13 1 18 6 16 15 -17 59
-7 105 14 70 3 -5 10 -10 15 -10 5 0 0 19 -10 43 -26 55 -25 82 1 37 l20 -35
-7 45 c-4 25 -13 62 -20 84 -20 56 -17 126 11 261 33 160 32 221 -6 353 -48
162 -80 215 -171 283 -115 87 -215 120 -373 124 -55 2 -117 6 -137 10 -35 7
-39 5 -55 -25z m417 -1373 c0 -5 -4 -5 -10 -2 -5 3 -10 14 -10 23 0 15 2 15
10 2 5 -8 10 -19 10 -23z"/>
</g>
</svg>
