<?xml version="1.0" standalone="no"?>
<!DOCTYPE svg PUBLIC "-//W3C//DTD SVG 20010904//EN"
 "http://www.w3.org/TR/2001/REC-SVG-20010904/DTD/svg10.dtd">
<svg version="1.0" xmlns="http://www.w3.org/2000/svg"
 width="480.000000pt" height="360.000000pt" viewBox="0 0 480.000000 360.000000"
 preserveAspectRatio="xMidYMid meet">
<metadata>
Created by potrace 1.16, written by Peter Selinger 2001-2019
</metadata>
<rect width="1" height="360" fill="#000000"/>
<rect x="479" width="1" height="360" fill="#000000"/>
<rect width="480" height="1" fill="#000000"/>
<rect y="359" width="480" height="1" fill="#000000"/>
<g transform="translate(0.000000,360.000000) scale(0.100000,-0.100000)"
fill="#000000" stroke="none">
<path d="M0 2280 c0 -1303 0 -1321 19 -1310 24 12 78 13 86 1 7 -13 -40 -48
-75 -56 -24 -5 -30 -12 -30 -32 0 -20 4 -24 18 -18 38 17 62 17 62 3 0 -24
-40 -68 -61 -68 -18 0 -19 -9 -19 -168 0 -162 1 -168 22 -177 24 -11 65 -62
56 -70 -3 -4 -22 1 -42 9 l-36 15 0 -183 c0 -128 4 -186 12 -194 9 -9 9 -12 0
-12 -7 0 -12 -4 -12 -10 0 -7 196 -10 567 -10 493 0 565 2 553 14 -8 8 -51 25
-95 37 -138 37 -168 51 -220 100 -42 39 -60 49 -109 58 -33 6 -76 11 -96 11
-29 0 -43 7 -69 35 -17 19 -49 44 -70 55 -22 11 -42 24 -46 30 -8 13 11 48 55
96 27 29 39 53 44 86 11 76 82 155 182 206 22 11 77 30 122 41 97 24 301 116
392 177 66 44 200 173 308 298 l60 69 -54 111 c-63 128 -63 113 -6 351 44 185
57 365 26 365 -14 0 -15 3 -6 12 7 7 12 20 12 29 0 15 -5 16 -32 8 -48 -13
-53 -11 -33 11 18 20 17 20 -16 20 -38 1 -71 21 -67 41 2 9 -4 13 -15 11 -30
-5 -87 74 -71 99 3 5 -4 9 -16 9 -13 0 -27 -12 -38 -31 -43 -80 -97 -120 -179
-134 -52 -8 -58 -16 -73 -88 -18 -91 -80 -147 -163 -147 -49 0 -64 -17 -70
-79 -3 -44 -10 -60 -31 -78 -15 -13 -36 -23 -47 -23 -12 0 -32 -9 -46 -20 -14
-11 -32 -20 -39 -20 -9 0 -11 -10 -7 -34 5 -30 2 -34 -26 -44 -36 -13 -36 -11
-15 -55 15 -30 15 -36 0 -71 -13 -32 -19 -36 -30 -27 -21 18 -28 62 -18 109 7
31 7 44 -4 52 -18 16 -53 124 -70 218 -18 102 -18 289 1 394 34 195 161 464
311 660 l46 59 -59 62 c-32 35 -78 87 -103 117 -42 51 -43 53 -14 36 17 -10
71 -54 120 -97 49 -43 92 -79 95 -79 3 0 23 15 45 34 108 92 341 224 496 280
222 81 513 87 734 16 17 -6 41 -25 54 -42 18 -24 19 -30 7 -25 -11 4 -17 1
-17 -7 0 -7 -7 -19 -15 -26 -8 -7 -15 -23 -15 -35 0 -32 -26 -49 -74 -50 -54
-1 -66 -10 -66 -48 0 -93 -51 -157 -127 -157 -51 0 -72 -16 -79 -61 -6 -36 -5
-37 32 -44 92 -17 180 -88 229 -186 19 -38 35 -80 35 -93 0 -51 -38 -113 -83
-138 -17 -8 -18 -7 -12 14 6 22 5 22 -9 4 -18 -22 -36 -102 -36 -158 0 -39 -1
-41 -15 -22 -15 18 -16 18 -40 -11 -18 -21 -25 -25 -25 -13 0 12 -6 15 -22 10
-13 -3 -26 -10 -30 -16 -5 -7 -8 -4 -8 7 0 22 -29 22 -37 1 -9 -25 11 -49 43
-50 16 -1 32 -9 39 -20 5 -10 64 -73 131 -139 126 -125 134 -138 134 -223 0
-29 7 -42 38 -69 20 -18 46 -33 56 -33 11 0 35 -17 55 -37 20 -21 48 -46 64
-56 15 -9 27 -26 27 -37 0 -20 35 -50 58 -50 25 0 62 48 62 80 0 42 -15 69
-58 106 -37 32 -40 64 -5 64 30 0 89 -46 107 -83 63 -133 -56 -277 -171 -208
-28 18 -33 18 -44 5 -7 -8 -32 -27 -56 -41 -24 -13 -43 -31 -43 -39 0 -8 -9
-14 -19 -14 -11 0 -26 -7 -35 -15 -8 -8 -26 -19 -40 -25 -18 -7 -26 -17 -26
-35 0 -60 43 -401 52 -412 5 -7 7 -17 3 -23 -4 -7 -4 -72 0 -145 l7 -134 31
-7 c52 -11 54 -18 12 -30 l-40 -11 0 -74 c0 -41 4 -179 9 -306 l9 -233 1318 0
1319 0 0 1800 0 1800 -1722 0 c-1667 0 -1721 -1 -1705 -18 34 -37 16 -52 -62
-52 -40 0 -53 5 -85 35 l-39 35 -593 0 -594 0 0 -1320z m2697 1264 c9 -25 -35
-64 -74 -64 -39 0 -43 17 -10 47 37 34 74 42 84 17z m-1489 -201 c-10 -2 -26
-2 -35 0 -10 3 -2 5 17 5 19 0 27 -2 18 -5z m1556 -79 c18 -7 21 -29 7 -39 -5
-3 -22 0 -38 7 -37 16 -36 15 -28 27 7 12 35 14 59 5z m46 -67 c0 -26 -25 -66
-35 -56 -5 6 24 79 32 79 2 0 3 -10 3 -23z m131 -538 c37 -26 37 -39 -2 -39
-34 0 -92 24 -110 46 -20 24 77 18 112 -7z m1415 -364 c13 -8 24 -19 24 -24 0
-5 -31 -17 -69 -26 -57 -14 -77 -15 -105 -5 -49 16 -45 33 12 59 52 23 98 22
138 -4z m219 -264 c22 -7 -2 -10 -87 -10 -65 -1 -118 1 -118 4 0 2 15 9 33 14
34 11 123 6 172 -8z m-1597 -27 c29 -8 28 -24 -2 -24 -31 0 -56 10 -56 21 0
10 25 11 58 3z m1352 -64 c0 -15 -7 -20 -29 -20 -56 0 -84 24 -38 33 52 10 67
7 67 -13z m-796 -211 c19 -23 26 -42 26 -75 0 -50 -7 -54 -40 -19 -15 16 -24
41 -28 75 -5 59 5 63 42 19z m-3 -278 c-23 -27 -41 -54 -41 -60 0 -9 -31 -31
-44 -31 -3 0 -6 10 -6 23 0 13 -7 32 -15 43 -16 22 -20 54 -5 54 5 0 17 -11
26 -25 l17 -26 26 24 c27 26 60 46 74 47 5 0 -10 -22 -32 -49z m-633 -123 c2
-26 -4 -43 -23 -67 -34 -40 -45 -39 -45 4 0 37 38 107 55 102 6 -2 11 -19 13
-39z m1411 -76 c46 -23 52 -42 12 -42 -43 0 -139 49 -120 61 17 11 62 3 108
-19z m-3354 -234 c14 -6 25 -17 25 -24 0 -27 -73 -33 -109 -8 l-24 17 24 13
c30 17 51 17 84 2z m2463 -245 c5 -18 -23 -16 -39 3 -11 14 -10 15 11 12 13
-1 25 -9 28 -15z m-408 -307 c0 -16 -32 -38 -79 -54 -33 -12 -115 0 -126 18
-3 4 19 17 48 28 62 25 157 29 157 8z m1734 -66 c38 -34 52 -82 36 -124 l-10
-26 -41 45 c-28 30 -44 59 -49 85 -11 61 9 67 64 20z m-347 -90 c18 0 41 -34
48 -72 6 -31 4 -38 -8 -38 -23 0 -86 39 -97 60 -23 44 0 92 30 65 9 -8 21 -15
27 -15z"/>
<path d="M1308 2460 c-29 -22 -43 -60 -23 -60 7 0 25 14 39 31 41 49 31 67
-16 29z"/>
<path d="M2089 1706 c-12 -56 -9 -74 10 -62 15 9 25 96 13 108 -7 7 -14 -8
-23 -46z"/>
</g>
</svg>
