<?xml version="1.0" standalone="no"?>
<!DOCTYPE svg PUBLIC "-//W3C//DTD SVG 20010904//EN"
 "http://www.w3.org/TR/2001/REC-SVG-20010904/DTD/svg10.dtd">
<svg version="1.0" xmlns="http://www.w3.org/2000/svg"
 width="480.000000pt" height="360.000000pt" viewBox="0 0 480.000000 360.000000"
 preserveAspectRatio="xMidYMid meet">
<metadata>
Created by potrace 1.16, written by Peter Selinger 2001-2019
</metadata>
<rect width="1" height="360" fill="#000000"/>
<rect x="479" width="1" height="360" fill="#000000"/>
<rect width="480" height="1" fill="#000000"/>
<rect y="359" width="480" height="1" fill="#000000"/>
<g transform="translate(0.000000,360.000000) scale(0.100000,-0.100000)"
fill="#000000" stroke="none">
<path d="M414 3570 c13 -68 36 -264 46 -400 6 -80 13 -158 16 -175 6 -33 18
-30 -134 -37 -49 -2 -67 -7 -78 -22 -19 -27 -18 -69 5 -97 10 -14 20 -49 24
-82 3 -32 13 -69 22 -83 19 -29 41 -33 25 -5 -14 26 -13 38 2 23 7 -7 21 -12
32 -12 21 1 21 1 2 15 -19 15 -19 15 5 15 24 1 24 1 4 16 -16 13 -17 17 -6 21
11 4 9 10 -8 22 -20 15 -20 18 -6 39 41 57 90 -2 86 -104 l-2 -61 66 -83 c82
-104 92 -120 68 -120 -9 0 -29 -12 -45 -27 -26 -25 -32 -26 -145 -28 -134 -2
-177 -15 -212 -64 -30 -42 -16 -64 56 -91 31 -12 68 -32 81 -46 14 -13 43 -29
64 -36 43 -13 46 -18 74 -113 12 -40 31 -74 59 -104 80 -88 159 -97 241 -29
58 48 117 77 159 78 l30 1 -29 16 c-17 8 -59 18 -94 21 -39 3 -66 10 -69 18
-2 7 2 37 11 67 l16 55 67 12 c159 27 203 40 203 62 0 41 -31 75 -73 81 -60 8
-64 18 -37 79 16 34 56 85 110 141 49 51 98 112 115 146 83 161 95 188 95 217
0 20 -6 34 -16 38 -9 4 -14 13 -10 21 7 20 -3 19 -26 -2 -17 -15 -18 -15 -18
1 0 15 -2 15 -26 0 -22 -15 -27 -15 -35 -3 -5 8 -9 25 -9 39 l-1 25 -22 -28
c-22 -26 -41 -28 -31 -4 2 7 -4 17 -15 24 -18 11 -20 9 -26 -26 -4 -22 -13
-47 -21 -58 -15 -19 -15 -18 1 61 5 27 -3 56 -15 56 -5 0 -32 -38 -61 -85 -28
-47 -53 -85 -54 -85 -1 0 0 23 3 51 3 37 2 50 -7 45 -6 -4 -11 -13 -11 -19 0
-7 -9 -30 -20 -52 -17 -36 -19 -37 -14 -10 3 17 15 58 26 92 17 50 19 65 9 77
-19 22 2 114 40 177 58 95 83 127 229 282 36 38 67 73 68 78 2 5 -162 9 -393
9 l-397 0 6 -30z"/>
<path d="M2720 1800 l0 -1800 720 0 719 0 17 58 c9 31 25 83 36 114 17 46 18
61 8 73 -10 12 -21 7 -73 -36 -98 -79 -122 -78 -161 4 -31 64 -34 145 -10 227
9 29 13 67 10 84 -4 20 3 51 18 88 13 32 22 58 21 58 -2 0 -32 -16 -67 -36
-108 -61 -156 -77 -217 -70 -30 4 -61 11 -68 17 -7 6 -19 9 -27 6 -9 -4 -13 2
-13 19 0 17 8 29 28 40 31 16 39 27 12 17 -12 -5 -15 -2 -10 10 4 12 2 15 -11
10 -11 -4 -8 4 11 23 15 16 48 57 73 92 56 76 79 93 219 167 61 31 124 68 141
81 42 31 81 109 65 128 -9 11 -5 19 18 37 37 29 91 100 119 155 39 76 67 89
126 59 17 -9 38 -13 50 -9 30 10 98 5 114 -9 9 -7 12 -24 9 -49 -3 -21 -1 -41
4 -44 17 -10 59 -103 59 -129 0 -34 -28 -75 -51 -75 -10 0 -22 -6 -26 -14 -4
-8 -25 -32 -45 -54 -27 -29 -43 -39 -58 -35 -45 12 -16 -30 53 -76 26 -18 47
-37 47 -43 0 -12 117 -122 159 -150 l26 -18 17 53 c20 59 23 127 7 127 -6 0
-8 7 -5 16 3 9 3 21 -1 27 -14 23 -13 47 2 47 13 0 15 154 15 1305 l0 1305
-1040 0 -1040 0 0 -1800z"/>
<path d="M4347 662 c-15 -44 -27 -97 -27 -117 l0 -38 25 23 c20 19 25 33 25
74 0 27 5 65 12 83 8 22 9 36 2 43 -7 7 -19 -14 -37 -68z"/>
<path d="M4675 511 c-16 -4 -30 -11 -30 -16 5 -151 29 -387 46 -453 l12 -42
48 0 49 0 0 260 0 260 -47 -2 c-27 -1 -61 -4 -78 -7z"/>
</g>
</svg>
