<?xml version="1.0" standalone="no"?>
<!DOCTYPE svg PUBLIC "-//W3C//DTD SVG 20010904//EN"
 "http://www.w3.org/TR/2001/REC-SVG-20010904/DTD/svg10.dtd">
<svg version="1.0" xmlns="http://www.w3.org/2000/svg"
 width="480.000000pt" height="360.000000pt" viewBox="0 0 480.000000 360.000000"
 preserveAspectRatio="xMidYMid meet">
<metadata>
Created by potrace 1.16, written by Peter Selinger 2001-2019
</metadata>
<rect width="1" height="360" fill="#000000"/>
<rect x="479" width="1" height="360" fill="#000000"/>
<rect width="480" height="1" fill="#000000"/>
<rect y="359" width="480" height="1" fill="#000000"/>
<g transform="translate(0.000000,360.000000) scale(0.100000,-0.100000)"
fill="#000000" stroke="none">
<path d="M0 1800 l0 -1800 1070 0 c764 0 1070 3 1070 11 0 6 7 65 15 132 8 67
19 190 25 272 6 83 13 173 16 202 6 52 6 53 -30 74 -20 12 -35 27 -33 33 2 6
-3 17 -12 24 -12 10 -13 15 -3 18 6 3 9 10 6 16 -3 5 6 31 20 58 27 49 38 114
66 385 12 106 11 113 -14 200 -31 106 -32 138 -8 208 10 28 17 57 15 64 -2 6
7 34 22 62 14 28 21 51 15 51 -21 0 -10 48 15 64 22 15 25 23 25 77 0 53 -3
63 -27 84 -16 14 -36 27 -45 30 -11 4 -17 15 -15 28 2 18 -3 22 -23 19 -17 -1
-37 9 -60 30 -19 18 -39 33 -45 33 -6 0 -10 35 -9 85 0 103 20 148 91 209 111
95 223 120 326 71 52 -24 122 -100 154 -165 29 -57 71 -214 87 -325 8 -52 24
-135 35 -183 29 -123 51 -262 51 -327 0 -30 7 -95 15 -145 10 -60 17 -194 20
-405 9 -580 8 -571 86 -903 l21 -87 929 0 929 0 0 1069 0 1068 -57 18 c-159
49 -335 155 -470 281 -224 208 -345 429 -404 734 -19 101 -21 135 -16 273 l6
157 -1929 0 -1930 0 0 -1800z"/>
<path d="M2372 1990 c0 -19 2 -27 5 -17 2 9 2 25 0 35 -3 9 -5 1 -5 -18z"/>
</g>
</svg>
