<?xml version="1.0" standalone="no"?>
<!DOCTYPE svg PUBLIC "-//W3C//DTD SVG 20010904//EN"
 "http://www.w3.org/TR/2001/REC-SVG-20010904/DTD/svg10.dtd">
<svg version="1.0" xmlns="http://www.w3.org/2000/svg"
 width="480.000000pt" height="360.000000pt" viewBox="0 0 480.000000 360.000000"
 preserveAspectRatio="xMidYMid meet">
<metadata>
Created by potrace 1.16, written by Peter Selinger 2001-2019
</metadata>
<rect width="1" height="360" fill="#000000"/>
<rect x="479" width="1" height="360" fill="#000000"/>
<rect width="480" height="1" fill="#000000"/>
<rect y="359" width="480" height="1" fill="#000000"/>
<g transform="translate(0.000000,360.000000) scale(0.100000,-0.100000)"
fill="#000000" stroke="none">
<path d="M0 2290 c0 -1245 1 -1310 18 -1302 9 6 42 13 72 17 30 4 81 18 112
31 44 19 91 27 205 36 81 6 150 13 151 14 10 7 -11 64 -23 64 -7 0 -23 8 -35
18 l-23 19 22 64 c27 77 46 266 29 286 -8 10 -8 24 2 54 13 37 12 41 -12 67
-15 15 -27 34 -29 42 -3 18 11 71 22 85 15 20 57 192 57 235 0 25 4 78 9 119
11 86 27 105 98 115 54 9 107 -18 124 -62 6 -15 16 -35 23 -44 10 -14 9 -21
-7 -38 -16 -18 -17 -26 -9 -60 9 -32 8 -42 -6 -57 -14 -15 -16 -31 -12 -88 l4
-70 50 -40 c60 -48 67 -60 61 -102 -4 -26 -10 -33 -28 -33 -12 0 -37 -3 -54
-6 -38 -8 -39 -19 -7 -122 35 -113 107 -335 113 -349 2 -7 -3 -16 -12 -19 -11
-5 -26 4 -46 25 -39 43 -63 38 -67 -13 -3 -31 3 -46 27 -77 27 -33 29 -38 13
-43 -17 -5 -191 -35 -354 -61 -48 -8 -113 -19 -144 -24 -96 -18 -297 -25 -322
-12 l-22 12 0 -486 0 -485 920 0 c725 0 921 3 927 13 4 6 26 27 48 46 36 31
97 128 172 274 13 26 78 112 143 190 65 78 117 143 115 145 -9 9 -293 -89
-299 -103 -3 -8 -3 -30 0 -48 4 -24 3 -28 -5 -17 -6 8 -11 28 -11 44 0 25 -3
27 -22 22 -13 -4 -46 -9 -74 -13 -44 -5 -54 -2 -80 20 -20 18 -26 29 -19 36 6
6 55 24 109 40 54 16 100 32 103 35 3 3 -7 16 -22 29 -24 20 -26 26 -16 45 15
27 42 28 66 2 17 -19 17 -21 0 -46 l-17 -27 28 7 c46 12 337 126 361 142 20
13 69 92 61 98 -2 2 -19 8 -38 15 -29 10 -40 9 -68 -6 -33 -18 -34 -18 -52 4
-10 13 -16 31 -13 42 4 15 -5 22 -44 36 -26 10 -100 39 -163 65 -63 26 -123
50 -132 53 -21 7 -25 55 -5 63 7 2 46 -11 87 -30 41 -18 121 -51 178 -71 l103
-38 15 21 c19 27 60 29 74 2 6 -10 9 -24 8 -30 -2 -6 21 -20 50 -31 l52 -20
48 47 c26 26 55 63 64 83 17 36 17 36 -8 57 l-25 20 25 50 c17 32 28 73 31
119 4 39 13 87 22 107 15 36 15 38 -11 68 -39 47 -42 74 -16 130 24 51 22 80
-5 80 -11 0 -15 6 -11 18 9 27 -15 51 -52 55 -21 3 -45 16 -65 35 l-31 31 11
63 c6 35 10 64 9 65 -2 3 -498 -25 -659 -37 -195 -14 -563 -56 -607 -70 -19
-5 -41 -10 -47 -10 -42 0 23 63 87 85 98 34 472 78 810 95 432 23 479 28 516
50 19 12 34 25 34 29 0 4 33 15 73 25 39 10 100 29 135 43 43 16 78 23 110 21
l47 -3 0 -57 c0 -31 5 -61 10 -67 17 -17 63 -20 75 -6 9 10 18 11 37 4 13 -5
67 -11 119 -12 88 -3 97 -6 122 -31 26 -26 27 -30 25 -131 -2 -141 -14 -160
-42 -69 -12 38 -25 88 -28 112 -11 82 -79 80 -136 -4 -30 -45 -32 -54 -22 -75
7 -13 15 -65 19 -115 l6 -91 -34 -44 c-19 -25 -55 -63 -81 -85 l-48 -40 11
-218 c6 -120 12 -220 15 -222 2 -3 96 38 208 91 112 52 205 95 206 95 3 0 53
-98 53 -104 0 -6 -30 -19 -290 -132 -107 -47 -199 -89 -204 -94 -16 -16 22
-120 47 -130 32 -14 321 -94 466 -129 68 -17 126 -32 128 -34 2 -2 1 -12 -3
-21 -16 -43 -146 -33 -379 29 -97 26 -179 45 -182 42 -9 -9 35 -66 127 -164
47 -50 124 -134 172 -186 l87 -95 -11 -38 c-12 -44 -35 -84 -60 -102 -10 -7
-18 -19 -18 -27 0 -20 -58 -65 -84 -65 -13 0 -34 -8 -47 -19 -13 -10 -33 -21
-44 -24 -11 -2 334 -5 768 -6 l787 -1 0 1800 0 1800 -962 0 -963 -1 77 -33
c149 -66 252 -152 421 -354 152 -182 226 -242 352 -282 148 -48 345 -160 417
-239 35 -37 47 -61 32 -61 -4 0 -35 18 -69 39 -34 22 -93 55 -131 74 -65 33
-102 44 -284 82 -176 37 -245 82 -490 321 -105 103 -204 191 -230 205 -36 19
-61 23 -127 24 -75 0 -84 -2 -110 -27 -75 -71 -193 -96 -294 -63 -105 35 -199
165 -199 275 l0 40 -1120 0 -1120 0 0 -1310z m3180 1270 c0 -5 -2 -10 -4 -10
-3 0 -8 5 -11 10 -3 6 -1 10 4 10 6 0 11 -4 11 -10z m1170 -145 c0 -8 -4 -15
-10 -15 -5 0 -10 7 -10 15 0 8 5 15 10 15 6 0 10 -7 10 -15z m238 -803 c39
-25 24 -32 -23 -10 -24 12 -42 25 -39 29 5 9 29 2 62 -19z m8 -1189 c-10 -10
-19 5 -10 18 6 11 8 11 12 0 2 -7 1 -15 -2 -18z"/>
<path d="M636 1141 c-3 -5 4 -20 15 -35 26 -33 79 -37 79 -7 0 35 -77 69 -94
42z"/>
<path d="M2080 84 c-30 -36 -56 -69 -58 -75 -2 -5 94 -9 245 -8 170 1 238 4
216 10 -18 5 -35 13 -38 18 -3 6 -21 7 -41 4 -27 -5 -42 -1 -66 17 -18 13 -47
23 -67 24 -23 1 -35 5 -33 14 1 7 -9 17 -22 22 -13 5 -25 13 -27 19 -2 5 -15
12 -29 15 -21 5 -33 -4 -80 -60z"/>
<path d="M2575 10 c-4 -6 3 -10 14 -10 25 0 27 6 6 13 -8 4 -17 2 -20 -3z"/>
<path d="M3178 3 c7 -3 16 -2 19 1 4 3 -2 6 -13 5 -11 0 -14 -3 -6 -6z"/>
</g>
</svg>
