<?xml version="1.0" standalone="no"?>
<!DOCTYPE svg PUBLIC "-//W3C//DTD SVG 20010904//EN"
 "http://www.w3.org/TR/2001/REC-SVG-20010904/DTD/svg10.dtd">
<svg version="1.0" xmlns="http://www.w3.org/2000/svg"
 width="480.000000pt" height="360.000000pt" viewBox="0 0 480.000000 360.000000"
 preserveAspectRatio="xMidYMid meet">
<metadata>
Created by potrace 1.16, written by Peter Selinger 2001-2019
</metadata>
<rect width="1" height="360" fill="#000000"/>
<rect x="479" width="1" height="360" fill="#000000"/>
<rect width="480" height="1" fill="#000000"/>
<rect y="359" width="480" height="1" fill="#000000"/>
<g transform="translate(0.000000,360.000000) scale(0.100000,-0.100000)"
fill="#000000" stroke="none">
<path d="M4000 3562 c0 -37 -1 -38 -55 -55 -31 -9 -64 -17 -73 -17 -10 0 -22
-4 -27 -8 -6 -5 -35 -14 -65 -22 -75 -17 -136 -47 -153 -74 -13 -20 -13 -26 0
-54 8 -17 43 -58 76 -89 34 -32 76 -72 94 -90 25 -23 32 -38 29 -55 -13 -61
-17 -156 -7 -163 6 -3 11 -13 11 -22 0 -16 30 -85 40 -93 4 -3 18 -23 32 -45
33 -51 60 -79 98 -101 16 -10 30 -22 30 -26 0 -4 5 -8 12 -8 6 0 20 -7 29 -16
24 -21 12 -44 -38 -74 l-38 -22 32 -27 c18 -14 45 -36 61 -48 20 -15 30 -31
30 -49 0 -20 13 -39 52 -73 43 -38 52 -52 48 -69 -5 -17 7 -38 49 -87 34 -40
53 -71 49 -80 -4 -12 -2 -13 14 -3 16 10 24 8 50 -11 38 -28 87 -43 96 -30 3
5 24 19 46 30 40 20 42 21 55 3 7 -10 13 -22 13 -27 0 -5 7 -7 15 -3 11 4 15
-2 15 -20 0 -15 -7 -27 -20 -32 -11 -4 -30 -28 -42 -52 -15 -30 -36 -52 -61
-65 -28 -15 -40 -30 -49 -58 -11 -36 -13 -37 -42 -31 -17 3 -47 13 -66 22 -69
30 -127 42 -265 52 -195 14 -300 14 -336 0 -31 -13 -59 -55 -59 -89 0 -30 39
-21 -397 -91 -123 -20 -135 -21 -190 -6 -32 9 -168 41 -303 71 -135 31 -317
74 -405 97 -244 62 -256 64 -267 45 -8 -15 -12 -16 -38 -2 -17 9 -69 50 -117
92 -244 213 -530 373 -667 373 -44 0 -56 -3 -56 -16 0 -16 41 -60 75 -81 18
-10 15 -12 -20 -13 -42 -1 -113 -14 -122 -24 -3 -3 1 -16 10 -30 13 -19 31
-26 83 -35 55 -10 124 -34 124 -44 0 -1 -31 -2 -70 -2 -50 0 -74 -4 -85 -16
-15 -15 -15 -18 7 -41 18 -19 40 -28 97 -37 40 -6 78 -14 83 -18 6 -3 -11 -13
-38 -22 -43 -15 -48 -20 -49 -46 l0 -30 130 -6 c72 -3 143 -11 159 -18 17 -6
68 -51 115 -100 80 -82 93 -90 191 -132 104 -44 105 -45 105 -79 1 -19 4 -42
7 -50 4 -8 8 -24 10 -35 4 -22 -4 -20 233 -51 140 -17 344 -65 600 -139 l160
-46 350 1 c192 0 402 5 465 11 63 6 194 13 291 16 150 5 177 3 191 -10 12 -13
16 -53 21 -209 9 -313 48 -432 206 -635 167 -214 177 -234 180 -380 1 -39 3
-43 26 -43 l25 0 0 1800 0 1800 -400 0 -400 0 0 -38z"/>
</g>
</svg>
