<?xml version="1.0" standalone="no"?>
<!DOCTYPE svg PUBLIC "-//W3C//DTD SVG 20010904//EN"
 "http://www.w3.org/TR/2001/REC-SVG-20010904/DTD/svg10.dtd">
<svg version="1.0" xmlns="http://www.w3.org/2000/svg"
 width="480.000000pt" height="360.000000pt" viewBox="0 0 480.000000 360.000000"
 preserveAspectRatio="xMidYMid meet">
<metadata>
Created by potrace 1.16, written by Peter Selinger 2001-2019
</metadata>
<rect width="1" height="360" fill="#000000"/>
<rect x="479" width="1" height="360" fill="#000000"/>
<rect width="480" height="1" fill="#000000"/>
<rect y="359" width="480" height="1" fill="#000000"/>
<g transform="translate(0.000000,360.000000) scale(0.100000,-0.100000)"
fill="#000000" stroke="none">
<path d="M0 2634 l0 -966 47 40 c27 22 100 93 163 156 87 88 121 116 140 116
14 0 30 -4 36 -10 5 -5 86 -41 178 -80 93 -38 231 -103 305 -143 292 -157 366
-170 611 -110 l106 26 84 -22 85 -22 28 33 c15 18 58 75 94 126 80 113 102
131 240 202 115 59 114 57 98 128 -7 30 -6 32 19 32 37 0 33 26 -6 50 l-33 20
-8 -33 c-14 -54 -24 -51 -32 10 -8 57 -8 58 -20 29 -8 -19 -14 -24 -17 -15 -3
8 -9 -10 -13 -39 -9 -63 -25 -78 -26 -25 l-1 38 -13 -30 c-14 -29 -14 -28 -16
40 -2 50 -4 58 -6 27 -2 -23 -8 -40 -13 -37 -4 3 -14 -10 -21 -28 -12 -32 -12
-32 -20 35 -7 65 -28 127 -29 86 0 -34 -18 -18 -36 32 -20 56 -29 61 -46 25
-19 -43 -31 -29 -23 30 3 30 4 55 2 55 -2 0 -24 -7 -47 -15 -23 -8 -44 -15
-46 -15 -3 0 18 29 46 64 54 69 57 76 35 76 -8 0 -15 7 -15 15 0 19 -19 19
-26 0 -4 -8 -14 -15 -23 -15 -17 0 -181 126 -181 139 0 4 9 16 20 26 11 10 20
30 20 45 0 24 5 28 38 34 40 7 59 21 108 77 l31 37 -16 61 c-14 56 -14 69 1
153 22 131 50 198 110 264 94 102 140 114 437 119 173 3 241 1 289 -10 137
-32 229 -106 290 -236 l36 -77 27 20 c19 14 35 19 53 14 16 -4 38 0 56 9 43
22 114 30 149 15 20 -8 35 -26 49 -58 30 -71 34 -127 21 -240 -12 -93 -11
-109 4 -152 22 -61 22 -57 -12 -75 -30 -15 -30 -15 -15 -52 15 -34 64 -238 79
-327 6 -35 5 -38 -9 -27 -13 11 -15 7 -14 -31 1 -48 -1 -53 -40 -178 -27 -85
-48 -123 -64 -114 -4 3 -8 -2 -8 -10 0 -8 -6 -21 -14 -28 -8 -8 -16 -23 -19
-34 -3 -14 -5 -12 -6 8 -1 32 -17 44 -35 29 -11 -9 -15 -2 -21 35 -15 103 -20
112 -29 54 -3 -22 -11 -40 -17 -40 -6 0 -9 9 -6 19 6 25 -13 121 -47 235 -14
48 -26 112 -26 142 l0 54 -51 0 -52 0 6 -45 c4 -25 9 -57 12 -72 6 -27 5 -27
-28 10 l-33 39 -18 -44 c-15 -36 -19 -40 -25 -24 -9 22 -13 16 -31 -37 -10
-31 -14 -36 -26 -26 -11 9 -14 6 -14 -17 l-1 -29 -13 30 -13 30 -22 -72 c-12
-40 -24 -73 -27 -73 -2 0 -2 19 1 43 6 45 -6 30 -22 -28 -6 -25 -8 -19 -13 40
-4 55 -7 64 -13 43 -4 -17 -12 -25 -21 -22 -7 3 -17 -3 -21 -13 -6 -15 -9 -13
-19 14 -10 30 -13 32 -36 20 -34 -17 -39 -47 -7 -47 34 0 37 -7 22 -50 -17
-48 -13 -53 120 -119 109 -54 120 -63 250 -228 49 -62 94 -113 101 -113 6 0
48 10 92 23 l80 24 94 -25 c117 -30 247 -39 319 -22 71 17 156 55 312 142 71
39 192 99 270 133 78 34 161 72 184 83 68 35 79 31 178 -69 50 -50 125 -120
168 -155 l77 -65 0 951 0 950 -2400 0 -2400 0 0 -966z"/>
<path d="M2999 2720 c-64 -148 -72 -217 -28 -261 29 -29 46 -24 53 19 8 48 6
208 -3 247 l-7 30 -15 -35z"/>
<path d="M2307 2236 c24 -13 133 -13 157 1 14 8 -5 10 -78 10 -71 -1 -92 -3
-79 -11z"/>
<path d="M4308 1828 c-85 -44 -98 -54 -98 -76 0 -14 7 -33 15 -42 8 -9 26 -49
40 -89 l24 -72 -81 -237 c-44 -130 -85 -243 -91 -250 -18 -22 -27 1 -47 119
-11 63 -30 174 -43 247 l-24 133 34 72 c19 40 42 80 50 90 9 9 14 20 11 22
-12 12 -126 -41 -211 -99 -75 -49 -93 -66 -95 -89 -2 -18 3 -34 16 -45 20 -17
62 -129 62 -165 0 -32 -132 -461 -147 -477 -11 -12 -15 -13 -22 -2 -4 8 -30
122 -56 254 -53 267 -53 259 6 359 l28 48 -37 7 c-20 4 -86 8 -145 8 -126 1
-145 -10 -99 -55 15 -15 38 -54 50 -88 l24 -61 -47 -223 c-54 -257 -63 -289
-78 -284 -12 4 -145 444 -146 485 -2 41 29 131 56 162 38 46 26 60 -50 60 -36
0 -79 -3 -96 -6 -29 -6 -31 -9 -26 -38 5 -23 1 -39 -14 -58 -27 -33 -26 -40 4
-76 30 -36 25 -53 -19 -77 l-33 -18 18 -58 c25 -79 52 -238 45 -265 -5 -18 4
-27 57 -58 34 -20 141 -93 237 -162 228 -163 215 -157 294 -143 147 25 360
-64 291 -121 -13 -11 -22 -10 -51 4 -36 17 -54 14 -54 -8 0 -23 44 -54 145
-103 l100 -48 115 0 c108 0 115 -1 115 -20 0 -29 -68 -63 -183 -91 -88 -22
-104 -23 -176 -13 -85 11 -115 23 -241 99 -44 27 -118 62 -164 79 -47 17 -130
56 -185 87 -206 116 -387 225 -420 254 -33 29 -73 99 -97 172 -7 20 -16 35
-19 33 -17 -10 -18 -127 -3 -233 13 -94 14 -115 3 -122 -10 -6 1 -39 50 -146
58 -129 140 -356 140 -389 0 -13 112 -15 880 -15 l880 0 0 443 c0 243 -5 478
-10 522 -6 44 -17 129 -25 190 l-14 110 24 42 c22 36 25 54 25 131 l0 89 -37
25 c-21 14 -65 48 -98 76 -57 49 -86 62 -53 25 9 -10 26 -50 38 -89 l23 -71
-33 -84 c-18 -46 -56 -148 -86 -227 -59 -157 -77 -191 -90 -170 -5 7 -25 125
-45 261 l-36 248 29 57 c16 31 45 71 64 88 19 17 34 41 34 52 0 12 8 25 17 31
16 8 12 16 -33 68 -28 32 -60 59 -70 60 -10 1 -63 -21 -116 -49z"/>
<path d="M306 1796 c-50 -58 -53 -67 -31 -86 9 -7 13 -21 10 -31 -4 -12 3 -24
23 -39 16 -12 43 -52 61 -89 l33 -67 -47 -258 c-49 -271 -52 -286 -65 -286
-11 0 -28 47 -110 306 l-69 221 26 69 c14 38 32 76 39 85 33 37 10 29 -33 -12
-27 -25 -69 -62 -95 -83 l-48 -37 0 -99 c0 -72 5 -109 16 -134 16 -32 16 -41
0 -133 -13 -83 -16 -182 -16 -611 l0 -512 879 0 879 0 12 52 c19 78 66 209
117 323 50 111 66 164 54 180 -4 5 -2 53 5 105 13 95 8 284 -6 275 -5 -3 -13
-29 -20 -57 -7 -30 -22 -62 -34 -73 -13 -11 -32 -36 -44 -56 -31 -51 -84 -93
-282 -220 -270 -174 -344 -216 -432 -248 -46 -16 -139 -53 -208 -81 -124 -52
-125 -52 -204 -45 -91 8 -204 48 -283 103 -79 53 -66 82 26 60 97 -22 371 44
406 99 23 35 8 49 -39 33 -41 -13 -66 -2 -66 31 0 31 56 52 150 57 69 3 95 0
140 -17 30 -12 60 -21 66 -21 6 0 94 65 195 145 101 79 226 172 276 207 90 61
93 64 93 101 0 46 24 167 50 249 l18 60 -33 19 c-48 29 -51 47 -14 85 l32 33
-22 27 c-11 15 -21 41 -21 59 0 31 -2 33 -46 39 -72 9 -108 7 -129 -8 -19 -14
-19 -15 7 -39 17 -16 34 -51 47 -95 l22 -71 -41 -148 c-105 -387 -106 -391
-121 -376 -11 11 -109 480 -109 522 0 42 49 154 77 176 23 19 24 22 9 34 -13
11 -43 13 -139 8 -67 -4 -131 -9 -142 -11 -11 -3 -22 -5 -25 -5 -3 -1 4 -9 16
-19 12 -9 33 -47 47 -84 l26 -66 -54 -254 c-29 -139 -56 -261 -60 -270 -18
-46 -28 -20 -109 292 -25 96 -49 185 -52 197 -8 28 41 166 67 189 33 30 24 60
-28 99 -61 44 -218 125 -244 125 -21 0 -26 -15 -8 -26 7 -4 27 -40 46 -81 l35
-75 -47 -247 c-25 -135 -50 -257 -56 -270 -9 -21 -12 -22 -23 -10 -14 15 -156
481 -156 511 0 30 52 160 66 165 19 7 19 73 -1 73 -8 0 -54 20 -102 45 -48 25
-93 45 -99 45 -7 0 -33 -24 -58 -54z"/>
</g>
</svg>
