<?xml version="1.0" standalone="no"?>
<!DOCTYPE svg PUBLIC "-//W3C//DTD SVG 20010904//EN"
 "http://www.w3.org/TR/2001/REC-SVG-20010904/DTD/svg10.dtd">
<svg version="1.0" xmlns="http://www.w3.org/2000/svg"
 width="480.000000pt" height="360.000000pt" viewBox="0 0 480.000000 360.000000"
 preserveAspectRatio="xMidYMid meet">
<metadata>
Created by potrace 1.16, written by Peter Selinger 2001-2019
</metadata>
<rect width="1" height="360" fill="#000000"/>
<rect x="479" width="1" height="360" fill="#000000"/>
<rect width="480" height="1" fill="#000000"/>
<rect y="359" width="480" height="1" fill="#000000"/>
<g transform="translate(0.000000,360.000000) scale(0.100000,-0.100000)"
fill="#000000" stroke="none">
<path d="M0 3365 l0 -235 53 0 c28 0 68 -5 87 -11 19 -5 61 -14 94 -19 57 -9
60 -8 104 26 57 44 98 45 136 5 27 -28 27 -29 12 -66 -9 -21 -15 -39 -13 -41
2 -2 25 8 52 21 53 28 116 32 205 15 55 -10 73 -20 54 -27 -7 -2 0 -16 17 -32
23 -24 27 -35 25 -75 -2 -42 -1 -46 21 -46 15 0 23 -6 23 -18 0 -10 4 -22 8
-28 5 -5 17 -31 26 -57 18 -47 15 -62 -15 -87 -4 -3 -9 -15 -13 -26 -9 -31 53
-101 129 -145 33 -19 70 -50 82 -69 32 -49 70 -87 123 -123 110 -74 125 -108
91 -209 -12 -36 -21 -87 -21 -122 0 -66 29 -260 54 -371 17 -73 125 -408 151
-467 14 -33 14 -33 15 37 0 69 -16 172 -47 309 -16 70 -72 190 -98 210 -7 6
-16 30 -19 54 -3 23 -9 61 -12 85 -3 23 -10 46 -15 51 -12 14 -11 54 2 58 5 2
15 24 20 48 7 33 21 55 51 83 22 20 44 37 49 37 8 0 59 105 59 124 0 6 13 39
29 73 22 46 36 64 55 69 14 3 29 3 34 0 17 -10 41 29 53 84 15 71 6 253 -20
425 -41 264 -57 547 -39 670 3 20 -3 20 -799 23 l-803 2 0 -235z"/>
<path d="M0 1555 l0 -1555 375 0 374 0 6 32 c3 18 6 64 8 102 2 69 2 69 -28
78 -18 5 -51 4 -82 -3 -70 -14 -87 -7 -108 46 -25 66 -44 76 -133 68 -65 -5
-77 -4 -88 12 -13 18 -14 18 -33 0 -45 -40 -67 23 -40 119 8 28 8 41 0 46 -12
7 -5 40 9 40 14 0 44 55 42 78 -1 12 10 41 24 63 13 22 29 50 34 62 5 12 29
49 54 81 24 33 42 64 40 68 -3 4 2 8 11 8 9 0 13 5 10 11 -4 5 15 49 43 97 98
173 122 219 180 362 46 111 59 153 55 178 -3 21 1 48 12 72 16 35 16 49 5 136
-6 53 -10 127 -9 164 2 38 1 71 -2 75 -4 3 -14 -25 -23 -62 -10 -37 -33 -104
-52 -148 -20 -44 -53 -129 -75 -189 -39 -109 -39 -109 -23 -152 20 -51 12
-134 -12 -134 -8 0 -17 7 -20 15 -4 8 -17 15 -29 15 -18 0 -29 -11 -49 -52
-13 -29 -27 -72 -31 -95 -8 -49 -29 -83 -43 -68 -13 13 -52 147 -52 177 0 13
12 40 26 61 25 37 25 39 8 58 -17 19 -18 19 -29 -8 l-11 -28 -8 35 -7 35 -19
-35 c-11 -19 -19 -43 -20 -52 0 -20 -20 -25 -21 -5 0 6 -5 1 -11 -13 -10 -24
-10 -24 -18 -5 -7 17 -9 14 -9 -12 -1 -37 -16 -44 -26 -13 -3 11 -10 20 -15
20 -5 0 -6 -8 -3 -17 6 -17 6 -17 -10 -1 -9 9 -17 23 -17 30 0 11 -2 11 -9 0
-5 -9 -16 13 -30 67 -12 45 -20 85 -17 89 3 5 7 85 10 178 l5 171 38 89 c22
50 68 141 104 204 99 175 104 190 103 300 -1 69 -7 110 -22 152 -17 49 -20 71
-15 148 5 75 3 90 -9 90 -7 0 -18 -4 -23 -9 -22 -21 -70 -21 -102 -1 -42 26
-42 51 1 122 31 52 32 57 17 77 -13 17 -173 81 -203 81 -4 0 -8 -700 -8 -1555z"/>
<path d="M894 1847 l-1 -102 18 40 c21 48 23 71 8 116 -20 59 -24 50 -25 -54z"/>
<path d="M402 1520 c-1 -14 2 -43 6 -65 l7 -40 23 32 c27 38 29 68 3 33 l-19
-25 -6 25 c-3 14 -7 34 -9 45 -4 16 -5 14 -5 -5z"/>
<path d="M152 1480 c0 -19 2 -27 5 -17 2 9 2 25 0 35 -3 9 -5 1 -5 -18z"/>
<path d="M1655 504 c7 -179 7 -177 -60 -187 -25 -4 -46 -14 -55 -28 -8 -12
-29 -37 -47 -56 l-32 -34 -105 7 c-57 3 -120 4 -140 0 -41 -8 -42 -11 -50
-129 l-6 -77 475 0 c261 0 475 4 475 8 0 5 -13 22 -30 39 -17 17 -43 66 -61
114 -36 95 -66 141 -136 214 -57 60 -123 141 -123 150 0 4 -18 29 -40 55 -22
26 -40 53 -40 59 0 7 -4 10 -9 7 -5 -4 -12 0 -15 6 -3 7 -4 -59 -1 -148z"/>
<path d="M948 138 c-13 -11 -48 -107 -48 -132 0 -3 29 -6 65 -6 l65 0 0 53 c0
79 -8 97 -39 97 -15 0 -34 -6 -43 -12z"/>
</g>
</svg>
