<?xml version="1.0" standalone="no"?>
<!DOCTYPE svg PUBLIC "-//W3C//DTD SVG 20010904//EN"
 "http://www.w3.org/TR/2001/REC-SVG-20010904/DTD/svg10.dtd">
<svg version="1.0" xmlns="http://www.w3.org/2000/svg"
 width="480.000000pt" height="360.000000pt" viewBox="0 0 480.000000 360.000000"
 preserveAspectRatio="xMidYMid meet">
<metadata>
Created by potrace 1.16, written by Peter Selinger 2001-2019
</metadata>
<rect width="1" height="360" fill="#000000"/>
<rect x="479" width="1" height="360" fill="#000000"/>
<rect width="480" height="1" fill="#000000"/>
<rect y="359" width="480" height="1" fill="#000000"/>
<g transform="translate(0.000000,360.000000) scale(0.100000,-0.100000)"
fill="#000000" stroke="none">
<path d="M0 2170 l0 -1430 88 0 c48 0 94 5 102 10 12 7 16 38 20 134 3 71 1
131 -5 140 -6 10 -2 30 15 67 31 66 44 79 80 79 16 0 43 8 60 18 31 17 31 17
28 92 l-3 75 43 19 c31 15 42 25 42 42 0 13 -4 26 -10 29 -8 5 3 31 27 64 2 3
10 -4 17 -15 10 -13 13 -33 9 -61 -7 -50 5 -69 48 -78 29 -7 41 -37 19 -50 -6
-3 -10 -26 -10 -50 0 -61 27 -86 105 -97 13 -2 29 -22 47 -60 25 -51 27 -61
18 -108 -6 -29 -10 -95 -10 -146 0 -79 3 -94 16 -94 11 0 15 9 14 33 -7 121
-2 141 54 227 61 95 47 98 120 -28 31 -55 36 -72 36 -128 0 -35 1 -64 3 -64 1
-1 148 -7 326 -15 l323 -14 64 -61 c38 -37 68 -58 75 -54 9 5 10 52 5 178 l-6
171 46 67 c25 38 50 68 55 68 5 0 29 -30 54 -68 l45 -67 -5 -230 c-3 -126 -7
-350 -10 -497 l-5 -268 1430 0 1430 0 0 1800 0 1800 -2400 0 -2400 0 0 -1430z
m3221 602 c30 -33 36 -61 20 -77 -6 -6 -3 -30 8 -65 20 -60 9 -54 154 -85 48
-11 77 -22 77 -30 0 -21 -59 -65 -86 -65 -27 0 -31 -12 -9 -30 9 -7 13 -15 11
-18 -3 -2 8 -21 24 -40 16 -20 28 -38 26 -40 -2 -2 -18 4 -35 12 -37 20 -45
20 -38 2 3 -8 -1 -17 -9 -20 -8 -3 -14 -12 -14 -20 0 -11 -6 -13 -30 -6 -34
10 -34 9 -30 -73 1 -28 -4 -54 -12 -64 -15 -19 -13 -18 69 24 71 37 140 63
148 55 13 -13 2 -56 -30 -118 -39 -74 -40 -78 -23 -68 6 4 84 9 172 10 l161 3
-30 -24 -29 -24 37 -16 c20 -8 41 -15 47 -15 13 0 13 -13 -1 -27 -8 -8 -6 -12
7 -16 55 -15 80 -20 92 -18 6 1 12 -3 12 -9 0 -5 -10 -10 -22 -10 -13 0 -29
-4 -37 -9 -11 -7 -6 -13 19 -26 18 -9 42 -26 53 -36 20 -18 19 -18 -34 -14
-30 3 -48 3 -41 -1 6 -3 9 -11 5 -17 -3 -5 7 -21 23 -34 24 -19 26 -23 10 -23
-15 0 -16 -3 -6 -15 11 -13 8 -15 -16 -15 l-29 -1 30 -16 c24 -14 26 -18 13
-21 -30 -6 -20 -16 32 -35 28 -10 50 -22 50 -27 0 -6 -10 -6 -25 0 -19 7 -25
6 -25 -5 0 -12 -8 -11 -46 5 -40 17 -45 18 -40 4 3 -8 6 -20 6 -24 0 -5 16
-12 35 -16 55 -10 41 -26 -17 -18 -35 5 -49 4 -44 -4 3 -6 0 -12 -6 -15 -10
-3 -10 -7 1 -20 11 -15 11 -17 -1 -17 -8 0 -18 4 -24 9 -5 5 -20 12 -33 16
-23 7 -23 7 -7 -16 30 -44 17 -52 -24 -15 -22 20 -46 36 -54 36 -18 0 -28 -40
-14 -57 7 -9 7 -13 0 -13 -6 0 -15 -12 -20 -27 -10 -26 -10 -26 -11 -5 -1 13
-5 20 -11 17 -6 -3 -10 4 -10 17 0 19 -13 29 -69 54 -69 31 -69 31 -75 10 -3
-11 -6 -31 -6 -42 0 -34 -38 -74 -70 -74 -33 0 -46 13 -54 60 -22 116 -28 129
-61 150 -54 33 -61 28 -85 -62 -26 -97 -36 -118 -55 -118 -24 0 -55 50 -55 91
0 34 -3 39 -34 49 -24 7 -36 18 -38 33 -5 34 -33 34 -32 0 0 -16 4 -36 8 -45
4 -9 6 -25 4 -35 -2 -13 -14 0 -40 43 -20 33 -46 68 -58 79 -20 18 -20 18 -20
-8 0 -31 -14 -42 -30 -23 -8 11 -9 20 0 35 9 18 7 23 -14 31 -30 11 -46 57
-25 71 8 5 33 9 56 9 35 0 45 5 64 31 12 17 45 46 73 64 44 28 53 40 67 85 19
62 9 111 -27 135 -14 9 -25 29 -29 57 -4 24 -13 54 -20 68 -11 21 -10 30 7 64
25 49 21 143 -8 193 -20 34 -36 36 -113 13 -39 -11 -40 -11 -46 19 -3 18 4 26
43 44 77 36 77 37 42 59 -41 24 -35 31 15 16 35 -11 39 -11 53 10 8 12 21 22
28 22 8 0 20 15 28 33 17 42 73 107 100 117 40 15 78 5 107 -28z"/>
<path d="M2959 1781 c-19 -16 -20 -20 -8 -21 17 0 45 27 37 35 -3 3 -16 -3
-29 -14z"/>
<path d="M3735 1560 c3 -5 15 -10 26 -10 11 0 17 5 14 10 -3 6 -15 10 -26 10
-11 0 -17 -4 -14 -10z"/>
</g>
</svg>
