<?xml version="1.0" standalone="no"?>
<!DOCTYPE svg PUBLIC "-//W3C//DTD SVG 20010904//EN"
 "http://www.w3.org/TR/2001/REC-SVG-20010904/DTD/svg10.dtd">
<svg version="1.0" xmlns="http://www.w3.org/2000/svg"
 width="480.000000pt" height="360.000000pt" viewBox="0 0 480.000000 360.000000"
 preserveAspectRatio="xMidYMid meet">
<metadata>
Created by potrace 1.16, written by Peter Selinger 2001-2019
</metadata>
<rect width="1" height="360" fill="#000000"/>
<rect x="479" width="1" height="360" fill="#000000"/>
<rect width="480" height="1" fill="#000000"/>
<rect y="359" width="480" height="1" fill="#000000"/>
<g transform="translate(0.000000,360.000000) scale(0.100000,-0.100000)"
fill="#000000" stroke="none">
<path d="M0 1800 l0 -1800 1069 0 1069 0 6 28 c3 15 10 104 16 197 6 94 13
182 15 197 4 24 -1 31 -35 48 -26 13 -40 27 -40 40 0 10 -8 24 -17 29 -16 9
-16 10 5 11 25 0 30 15 6 24 -13 5 -9 18 25 78 37 68 42 86 67 253 31 208 29
285 -11 435 -30 114 -31 167 -5 240 11 30 19 63 20 73 0 10 11 40 25 66 20 40
23 55 15 81 -8 29 -6 33 24 51 41 24 56 56 56 122 0 48 -3 54 -46 94 -25 24
-50 43 -56 43 -6 0 -8 11 -4 25 9 35 0 48 -24 35 -15 -8 -23 -5 -38 15 -11 14
-24 25 -29 25 -6 0 -15 12 -22 27 -10 22 -14 24 -22 12 -14 -19 -4 131 11 186
16 55 108 143 193 185 52 26 84 34 142 38 67 4 80 2 132 -24 157 -79 222 -229
268 -624 8 -69 26 -186 40 -260 14 -74 30 -205 35 -290 5 -85 14 -213 21 -285
8 -98 8 -220 0 -500 l-12 -370 30 -149 c17 -82 31 -151 31 -153 0 -1 414 -3
920 -3 l920 0 0 1273 0 1273 -32 25 c-18 13 -38 26 -45 29 -20 8 -103 81 -170
150 -143 145 -225 270 -301 461 -39 98 -60 181 -74 296 l-12 93 -2083 0 -2083
0 0 -1800z"/>
</g>
</svg>
