<?xml version="1.0" standalone="no"?>
<!DOCTYPE svg PUBLIC "-//W3C//DTD SVG 20010904//EN"
 "http://www.w3.org/TR/2001/REC-SVG-20010904/DTD/svg10.dtd">
<svg version="1.0" xmlns="http://www.w3.org/2000/svg"
 width="480.000000pt" height="360.000000pt" viewBox="0 0 480.000000 360.000000"
 preserveAspectRatio="xMidYMid meet">
<metadata>
Created by potrace 1.16, written by Peter Selinger 2001-2019
</metadata>
<rect width="1" height="360" fill="#000000"/>
<rect x="479" width="1" height="360" fill="#000000"/>
<rect width="480" height="1" fill="#000000"/>
<rect y="359" width="480" height="1" fill="#000000"/>
<g transform="translate(0.000000,360.000000) scale(0.100000,-0.100000)"
fill="#000000" stroke="none">
<path d="M3159 2952 c-13 -10 -44 -24 -69 -31 -68 -20 -110 -44 -169 -97 -51
-46 -257 -284 -246 -284 3 0 23 11 45 25 22 14 42 25 44 25 3 0 -8 -30 -24
-66 -33 -73 -35 -78 -20 -69 6 4 10 -6 10 -23 0 -60 12 -120 24 -116 6 2 18
-10 25 -28 l14 -33 6 30 c7 30 7 30 19 7 7 -12 17 -20 23 -17 5 4 9 0 9 -7 0
-24 -32 -60 -66 -74 -39 -17 -43 -39 -14 -77 14 -18 20 -39 19 -69 -1 -24 4
-61 10 -83 7 -22 18 -62 25 -89 14 -56 22 -63 89 -71 48 -6 48 -7 41 -38 -9
-47 -11 -47 -57 -32 l-42 15 39 -34 40 -34 -13 -59 c-21 -97 -30 -118 -60
-136 -38 -22 -81 -74 -81 -97 0 -22 -88 -164 -111 -178 -12 -8 -28 -5 -62 12
-73 38 -102 25 -151 -68 -14 -27 -26 -43 -26 -36 0 27 51 317 62 350 6 20 12
132 13 275 3 318 35 675 75 827 16 63 17 75 4 99 -22 43 -52 59 -110 59 -45 0
-56 -4 -73 -26 -19 -24 -20 -35 -15 -167 5 -112 -1 -219 -26 -507 -17 -201
-36 -385 -42 -410 -5 -25 -12 -74 -14 -110 -6 -113 -26 -304 -33 -324 -5 -13
-19 12 -50 93 -47 122 -55 129 -129 118 -36 -5 -38 -4 -87 66 -28 40 -60 92
-70 117 -50 118 -94 166 -210 230 -33 19 -71 42 -84 52 -40 30 -84 23 -130
-20 l-41 -38 5 -145 c3 -79 7 -156 11 -171 8 -41 43 -63 164 -103 113 -38 173
-70 178 -95 1 -9 -13 -24 -35 -35 -64 -35 -83 -55 -123 -135 -81 -161 -88
-302 -31 -580 41 -196 80 -312 149 -436 l57 -104 222 0 221 0 17 50 c9 28 61
126 114 218 54 92 102 176 108 186 9 16 17 8 66 -59 31 -43 61 -94 66 -114 8
-31 31 -228 31 -268 0 -11 129 -13 720 -13 l720 0 0 39 c0 98 -23 362 -45 526
-43 311 -74 575 -70 588 7 20 64 357 85 510 36 257 21 514 -42 706 -17 52 -41
110 -54 129 -13 19 -24 42 -24 51 0 22 -52 129 -84 171 -102 135 -298 215
-550 226 -61 2 -112 9 -114 14 -6 16 -47 11 -73 -8z m-1512 -1207 c28 -12 34
-18 25 -27 -10 -10 -18 -9 -39 4 -26 15 -42 38 -29 38 4 0 23 -7 43 -15z"/>
<path d="M1302 2590 l4 -60 -35 -1 c-41 -1 -99 -20 -103 -33 -3 -10 66 -40
114 -50 24 -5 26 -10 25 -52 -2 -58 11 -64 52 -23 l32 32 25 -24 c35 -33 51
-14 30 36 -21 49 -21 48 14 43 39 -6 38 7 -2 21 -29 10 -30 12 -15 29 9 10 20
33 23 50 6 28 4 32 -14 32 -12 0 -24 -4 -27 -10 -8 -13 -45 -13 -45 -1 0 17
-51 71 -67 71 -13 0 -15 -11 -11 -60z"/>
</g>
</svg>
