<?xml version="1.0" standalone="no"?>
<!DOCTYPE svg PUBLIC "-//W3C//DTD SVG 20010904//EN"
 "http://www.w3.org/TR/2001/REC-SVG-20010904/DTD/svg10.dtd">
<svg version="1.0" xmlns="http://www.w3.org/2000/svg"
 width="480.000000pt" height="360.000000pt" viewBox="0 0 480.000000 360.000000"
 preserveAspectRatio="xMidYMid meet">
<metadata>
Created by potrace 1.16, written by Peter Selinger 2001-2019
</metadata>
<rect width="1" height="360" fill="#000000"/>
<rect x="479" width="1" height="360" fill="#000000"/>
<rect width="480" height="1" fill="#000000"/>
<rect y="359" width="480" height="1" fill="#000000"/>
<g transform="translate(0.000000,360.000000) scale(0.100000,-0.100000)"
fill="#000000" stroke="none">
<path d="M0 1800 l0 -1800 874 0 875 0 28 35 c57 69 126 199 155 291 28 91 28
95 13 146 -26 88 -20 152 20 224 19 35 42 89 51 120 17 60 54 103 88 104 32 0
136 23 136 30 0 3 -37 24 -81 45 -100 49 -133 84 -126 135 5 39 24 86 58 141
l21 36 -31 43 c-40 55 -75 169 -68 217 3 19 24 59 47 89 22 29 40 58 40 63 0
6 -9 19 -20 29 -13 12 -20 30 -19 48 1 36 -38 145 -45 124 -2 -8 -7 -22 -9
-30 -3 -10 -9 -3 -18 19 -10 30 -14 32 -24 18 -16 -22 -25 -11 -25 29 0 18 -4
35 -9 39 -6 3 -4 19 5 40 8 19 13 49 12 67 -1 18 2 49 6 68 8 31 7 33 -8 21
-20 -17 -20 -13 0 56 l16 55 -31 32 c-31 32 -40 56 -21 56 6 0 10 16 10 35 0
38 20 55 64 55 31 0 41 14 21 30 -26 22 -17 56 25 94 42 38 79 46 100 21 21
-25 45 -17 63 20 23 49 58 69 104 60 46 -8 63 -21 63 -46 0 -26 12 -24 39 7
30 34 60 28 90 -19 22 -34 28 -37 57 -31 44 8 92 -21 102 -61 5 -16 4 -51 -1
-78 -9 -42 -7 -50 12 -71 26 -28 26 -31 0 -67 -21 -30 -21 -31 -5 -112 9 -45
20 -93 23 -107 l6 -25 -23 20 -23 20 6 -52 c3 -28 16 -71 27 -94 19 -37 20
-41 5 -35 -15 5 -17 2 -12 -24 8 -35 4 -37 -21 -9 l-20 20 -6 -24 c-3 -15 -12
-24 -23 -23 -13 1 -22 -12 -32 -44 l-15 -45 -7 30 c-5 26 -7 27 -14 11 -5 -11
-3 -26 3 -37 16 -25 15 -54 -3 -69 -12 -10 -4 -24 53 -91 179 -212 198 -254
209 -452 l6 -120 60 -64 c39 -41 63 -60 71 -54 6 4 23 10 38 13 25 5 27 2 33
-41 9 -63 38 -93 82 -85 45 8 87 -18 79 -50 -4 -16 2 -30 19 -46 28 -27 31
-48 11 -75 -12 -17 -10 -25 21 -69 33 -47 35 -55 29 -104 -4 -30 -14 -63 -23
-75 -29 -39 -90 -75 -138 -83 -46 -6 -47 -6 -35 15 8 15 8 26 1 35 -7 8 -3 28
14 65 14 29 25 64 25 77 0 20 -4 23 -28 18 -20 -4 -33 0 -46 15 -11 12 -28 21
-38 21 -22 0 -39 38 -41 98 -2 48 -6 50 -95 54 l-54 3 19 25 c20 27 22 38 10
58 -12 18 -27 15 -27 -7 0 -10 -7 -22 -16 -25 -18 -7 -17 -35 11 -161 20 -92
32 -481 17 -550 -6 -28 -14 -58 -17 -68 -7 -16 46 -17 1009 -17 l1016 0 0
1800 0 1800 -2400 0 -2400 0 0 -1800z"/>
<path d="M2124 1764 c3 -9 6 -20 6 -25 0 -5 7 -9 15 -9 8 0 15 4 15 9 0 21
-13 41 -27 41 -10 0 -13 -6 -9 -16z"/>
<path d="M2017 384 c-14 -49 -38 -138 -53 -199 -15 -60 -33 -127 -40 -147
l-13 -38 42 0 43 0 17 177 c10 98 23 199 28 225 19 85 4 74 -24 -18z"/>
</g>
</svg>
