<?xml version="1.0" standalone="no"?>
<!DOCTYPE svg PUBLIC "-//W3C//DTD SVG 20010904//EN"
 "http://www.w3.org/TR/2001/REC-SVG-20010904/DTD/svg10.dtd">
<svg version="1.0" xmlns="http://www.w3.org/2000/svg"
 width="480.000000pt" height="360.000000pt" viewBox="0 0 480.000000 360.000000"
 preserveAspectRatio="xMidYMid meet">
<metadata>
Created by potrace 1.16, written by Peter Selinger 2001-2019
</metadata>
<rect width="1" height="360" fill="#000000"/>
<rect x="479" width="1" height="360" fill="#000000"/>
<rect width="480" height="1" fill="#000000"/>
<rect y="359" width="480" height="1" fill="#000000"/>
<g transform="translate(0.000000,360.000000) scale(0.100000,-0.100000)"
fill="#000000" stroke="none">
<path d="M0 2676 l0 -924 133 4 c419 13 994 50 1412 89 316 30 782 85 811 96
19 7 22 18 28 106 3 54 9 112 12 130 6 31 5 32 -52 49 -33 10 -65 24 -71 31
-7 6 -43 14 -80 17 -125 11 -196 25 -222 44 -41 30 -127 55 -148 44 -23 -13
-185 32 -225 61 -15 11 -34 17 -42 14 -20 -8 -76 16 -100 42 -13 14 -23 18
-34 12 -19 -11 -68 5 -76 24 -3 10 -22 13 -69 11 -64 -3 -64 -3 -63 23 1 14 5
31 8 37 9 14 0 24 -24 24 -31 0 -115 47 -153 87 -54 56 -113 183 -127 275 -9
60 -9 101 2 191 7 63 10 127 6 143 -4 16 -35 89 -69 162 l-61 132 -398 0 -398
0 0 -924z"/>
<path d="M1125 3588 c56 -174 75 -243 69 -261 -4 -12 -30 -71 -58 -132 l-51
-110 0 -115 c0 -90 4 -127 20 -170 24 -67 77 -121 140 -145 45 -18 48 -18 73
-1 15 9 72 39 127 65 138 67 141 70 124 109 -15 35 -21 37 -49 22 -15 -8 -24
-6 -40 10 -11 11 -25 19 -32 18 -6 -2 -14 5 -16 15 -6 30 91 110 231 188 136
76 410 255 539 352 82 62 151 134 145 151 -3 8 -199 12 -615 14 -488 2 -611 0
-607 -10z"/>
<path d="M2910 3588 c0 -15 41 -85 115 -193 66 -97 91 -145 75 -145 -6 0 -10
-9 -10 -19 0 -12 -11 -23 -30 -30 -25 -8 -30 -15 -25 -33 6 -31 23 -200 31
-325 6 -101 6 -103 -22 -146 -16 -25 -34 -53 -40 -63 -11 -18 -13 -18 -23 6
-6 14 -21 38 -34 54 -19 22 -26 25 -33 15 -5 -8 -10 -120 -12 -251 -4 -215 -6
-237 -22 -241 -9 -2 -20 -18 -23 -36 -5 -22 -12 -31 -27 -31 -11 0 -20 -5 -20
-11 0 -6 -8 -8 -17 -5 -32 9 -52 -17 -59 -77 -8 -64 -5 -66 65 -48 20 6 90 22
156 36 135 30 822 205 930 237 39 11 230 69 425 128 195 60 384 117 420 127
l65 19 3 522 2 522 -945 0 c-711 0 -945 -3 -945 -12z"/>
<path d="M4697 1236 c-96 -121 -258 -304 -282 -318 -6 -4 -42 -12 -79 -18 -65
-10 -73 -15 -173 -96 -60 -50 -125 -94 -153 -105 -104 -39 -264 -61 -480 -64
-237 -3 -316 -18 -485 -90 -489 -208 -976 -383 -1365 -491 -91 -25 -169 -47
-175 -49 -5 -2 734 -4 1643 -4 l1652 -1 0 680 c0 374 -1 680 -2 680 -2 0 -47
-56 -101 -124z"/>
</g>
</svg>
