<?xml version="1.0" standalone="no"?>
<!DOCTYPE svg PUBLIC "-//W3C//DTD SVG 20010904//EN"
 "http://www.w3.org/TR/2001/REC-SVG-20010904/DTD/svg10.dtd">
<svg version="1.0" xmlns="http://www.w3.org/2000/svg"
 width="480.000000pt" height="360.000000pt" viewBox="0 0 480.000000 360.000000"
 preserveAspectRatio="xMidYMid meet">
<metadata>
Created by potrace 1.16, written by Peter Selinger 2001-2019
</metadata>
<rect width="1" height="360" fill="#000000"/>
<rect x="479" width="1" height="360" fill="#000000"/>
<rect width="480" height="1" fill="#000000"/>
<rect y="359" width="480" height="1" fill="#000000"/>
<g transform="translate(0.000000,360.000000) scale(0.100000,-0.100000)"
fill="#000000" stroke="none">
<path d="M1598 3568 c11 -56 7 -319 -7 -398 -25 -150 -130 -411 -199 -499 -15
-18 -31 -41 -37 -50 -35 -59 -252 -272 -294 -289 -7 -3 -24 -15 -36 -27 -62
-57 -351 -172 -490 -194 -120 -19 -258 -22 -375 -7 -63 8 -125 18 -138 22
l-22 6 0 -1066 0 -1066 1335 0 1335 0 0 21 c0 54 65 327 106 444 78 225 104
316 130 455 14 74 41 216 60 314 27 139 32 186 25 210 -5 17 -13 65 -16 107
-4 42 -10 80 -14 85 -3 5 -25 22 -49 37 -23 15 -48 38 -53 51 -10 21 -14 22
-41 12 -27 -10 -32 -9 -53 17 l-22 29 -21 -27 c-21 -26 -21 -26 -41 -6 -20 20
-20 20 -63 -1 -71 -35 -118 -34 -283 7 -82 20 -159 42 -170 49 -22 13 -23 13
-75 2 -19 -4 -47 -3 -61 3 -19 7 -30 6 -38 -2 -17 -17 -13 -27 9 -27 25 0 26
-12 2 -33 -35 -32 -85 -15 -106 35 -18 42 -9 73 32 109 l36 32 122 -7 c68 -4
197 -18 286 -31 l163 -23 31 23 c24 19 30 30 27 49 -5 22 -2 24 28 23 32 -2
34 0 34 31 0 40 12 48 83 57 82 10 144 32 192 66 23 17 62 38 86 46 44 15 55
28 32 35 -8 3 -4 9 10 17 12 6 22 17 22 23 0 6 -10 4 -25 -6 -31 -20 -29 -20
-59 7 -14 12 -43 35 -65 51 -35 26 -38 31 -29 52 14 30 9 34 -33 37 -44 4 -76
22 -84 47 -3 11 -13 20 -21 20 -17 0 -19 53 -3 119 l10 44 -61 63 c-49 51 -61
69 -58 91 4 37 32 43 208 42 80 0 179 0 220 1 101 1 182 -37 239 -113 45 -61
76 -119 85 -163 4 -18 16 -40 28 -50 35 -32 87 -121 104 -180 13 -44 15 -84
12 -173 -3 -82 -1 -125 8 -148 8 -17 23 -74 34 -126 17 -80 19 -105 10 -159
-5 -34 -10 -90 -10 -123 0 -33 -4 -74 -9 -91 -6 -21 -4 -49 5 -85 15 -56 10
-179 -8 -229 -11 -29 6 -205 28 -294 19 -75 92 -257 181 -451 74 -159 99 -226
133 -342 l21 -73 429 0 430 0 0 1800 0 1800 -1604 0 -1604 0 6 -32z"/>
</g>
</svg>
