<?xml version="1.0" standalone="no"?>
<!DOCTYPE svg PUBLIC "-//W3C//DTD SVG 20010904//EN"
 "http://www.w3.org/TR/2001/REC-SVG-20010904/DTD/svg10.dtd">
<svg version="1.0" xmlns="http://www.w3.org/2000/svg"
 width="480.000000pt" height="360.000000pt" viewBox="0 0 480.000000 360.000000"
 preserveAspectRatio="xMidYMid meet">
<metadata>
Created by potrace 1.16, written by Peter Selinger 2001-2019
</metadata>
<rect width="1" height="360" fill="#000000"/>
<rect x="479" width="1" height="360" fill="#000000"/>
<rect width="480" height="1" fill="#000000"/>
<rect y="359" width="480" height="1" fill="#000000"/>
<g transform="translate(0.000000,360.000000) scale(0.100000,-0.100000)"
fill="#000000" stroke="none">
<path d="M0 3163 c0 -240 2 -434 5 -431 3 2 14 38 25 79 l19 74 -6 -60 c-10
-98 -7 -139 11 -167 l17 -26 25 25 c57 57 103 126 130 193 15 38 29 70 32 70
2 0 2 -7 -2 -15 -3 -8 -1 -15 4 -15 6 0 10 8 10 18 0 9 8 26 16 37 16 19 16
19 9 -5 -15 -50 -89 -193 -117 -223 -15 -17 -28 -36 -28 -41 0 -6 -17 -27 -37
-48 -27 -28 -32 -38 -20 -38 12 0 16 -7 15 -25 -1 -14 -6 -25 -11 -25 -5 0 -7
7 -4 15 11 26 -12 27 -40 1 -15 -15 -31 -26 -34 -26 -4 0 -10 -7 -13 -16 -5
-14 -1 -15 31 -9 21 4 41 11 44 16 3 6 10 9 15 8 15 -4 90 12 141 30 34 12 49
23 53 41 3 13 11 25 18 28 9 3 11 -3 7 -21 -5 -17 -2 -27 7 -30 7 -2 5 -3 -4
-2 -10 2 -20 -8 -26 -24 -12 -31 -24 -81 -19 -81 2 0 21 16 42 36 53 48 111
77 137 68 19 -6 20 -7 4 -16 -9 -5 -24 -8 -34 -7 -32 3 -42 -1 -42 -16 0 -8
-4 -15 -9 -15 -13 0 -71 -50 -71 -61 0 -5 5 -9 11 -9 6 0 27 -7 46 -16 26 -13
39 -14 56 -6 12 5 31 14 42 18 17 6 14 8 -15 14 -34 6 -33 6 18 11 29 4 55 8
57 11 3 2 8 25 11 51 6 44 6 46 -17 41 -13 -2 -17 -1 -9 2 27 13 41 33 60 89
38 110 92 197 171 277 144 146 290 182 566 142 59 -8 134 -22 165 -30 54 -13
60 -13 95 6 52 28 65 25 88 -18 15 -27 36 -45 80 -67 72 -35 209 -167 248
-239 53 -96 79 -185 84 -292 5 -82 2 -111 -12 -151 l-18 -50 27 -59 c15 -32
40 -85 57 -117 l31 -59 -28 -29 c-19 -20 -37 -29 -54 -28 -52 5 -67 -14 -74
-93 -3 -40 -9 -100 -12 -134 -5 -53 -3 -67 21 -115 15 -30 38 -69 52 -87 34
-45 23 -50 -21 -11 -20 17 -38 30 -41 28 -2 -2 9 -37 25 -77 15 -39 25 -72 22
-72 -3 0 -17 10 -30 23 l-24 22 4 -63 c1 -34 0 -62 -3 -62 -4 0 -12 36 -19 80
-7 44 -18 87 -25 97 -16 21 -17 20 -34 -75 -11 -59 -10 -65 10 -99 l22 -36
-26 18 -27 17 -6 -31 c-7 -32 -24 -43 -24 -16 0 23 -18 18 -25 -6 -5 -15 -2
-25 9 -31 11 -6 14 -17 10 -37 -6 -27 -4 -29 41 -36 36 -5 54 -14 74 -37 41
-49 43 -62 12 -92 l-28 -27 28 -53 c35 -63 72 -177 89 -267 l12 -66 49 5 c45
4 49 3 49 -18 0 -12 -8 -34 -18 -48 -11 -15 -26 -56 -35 -91 -13 -55 -14 -68
-2 -90 18 -34 52 -68 93 -92 28 -17 31 -21 20 -38 -7 -11 -20 -22 -30 -24 -10
-3 -18 -14 -18 -25 0 -11 -7 -33 -16 -49 -14 -24 -15 -36 -5 -85 l12 -58 295
0 c162 0 294 3 294 8 0 21 -42 72 -59 72 -43 0 -74 24 -98 78 -30 68 -32 161
-4 206 18 29 162 167 221 211 14 11 44 37 66 57 97 90 120 99 156 61 51 -57
81 -238 58 -360 -18 -93 -81 -224 -137 -284 l-46 -49 942 0 941 0 0 1800 0
1800 -2400 0 -2400 0 0 -437z m2735 -533 c-3 -5 -10 -10 -16 -10 -5 0 -9 5 -9
10 0 6 7 10 16 10 8 0 12 -4 9 -10z m-2542 -47 c-13 -2 -33 -2 -45 0 -13 2 -3
4 22 4 25 0 35 -2 23 -4z m4487 -133 c0 -5 -7 -10 -16 -10 -8 0 -12 5 -9 10 3
6 10 10 16 10 5 0 9 -4 9 -10z m-1720 -100 c0 -5 -5 -10 -11 -10 -5 0 -7 5 -4
10 3 6 8 10 11 10 2 0 4 -4 4 -10z m-532 -176 c29 -19 27 -58 -5 -62 -40 -6
-104 52 -87 79 8 14 60 4 92 -17z m762 -439 c0 -15 -48 -41 -57 -31 -3 2 0 14
7 25 12 24 50 28 50 6z m310 -125 c0 -5 -9 -10 -21 -10 -11 0 -17 5 -14 10 3
6 13 10 21 10 8 0 14 -4 14 -10z m-50 -340 c0 -12 -28 -25 -36 -17 -9 9 6 27
22 27 8 0 14 -5 14 -10z m448 -287 c-2 -11 -14 -19 -31 -21 -29 -4 -35 6 -15
26 19 19 50 15 46 -5z m47 -754 c12 -19 -5 -23 -22 -6 -16 16 -16 17 -1 17 9
0 20 -5 23 -11z"/>
<path d="M1 2653 c-1 -43 3 -73 9 -73 11 0 11 70 0 115 -6 23 -8 12 -9 -42z"/>
<path d="M204 2536 c-18 -8 -35 -19 -38 -25 -4 -6 -23 -11 -41 -11 -26 0 -33
-3 -29 -15 4 -9 0 -15 -7 -16 -8 0 -5 -4 6 -9 17 -7 18 -9 2 -9 -17 -1 -45
-46 -35 -57 9 -9 87 15 95 30 4 7 25 19 45 25 25 8 40 21 46 39 6 15 13 35 17
45 9 21 -16 22 -61 3z"/>
<path d="M23 2473 c-13 -2 -23 -9 -23 -14 0 -15 47 -10 54 6 3 8 2 14 -2 14
-4 -1 -17 -4 -29 -6z"/>
<path d="M230 2420 c19 -13 30 -13 30 0 0 6 -10 10 -22 10 -19 0 -20 -2 -8
-10z"/>
<path d="M18 2412 c-12 -2 -18 -13 -18 -29 l0 -26 21 27 c23 30 23 34 -3 28z"/>
<path d="M85 2365 c-44 -19 -81 -35 -82 -35 -2 0 -2 -20 -1 -44 2 -31 7 -42
16 -38 10 3 10 7 3 12 -17 10 34 30 75 30 19 0 45 5 57 12 20 10 21 10 9 -5
-8 -9 -30 -21 -50 -28 -61 -20 -112 -49 -112 -64 0 -12 5 -12 33 -1 21 9 50
11 87 6 44 -6 48 -7 18 -9 -20 0 -59 -6 -87 -13 l-51 -11 0 -349 c0 -277 3
-348 13 -342 38 23 145 114 208 179 94 97 134 154 204 293 55 109 63 140 30
112 -22 -18 -46 -5 -139 74 -43 36 -88 66 -99 67 -12 0 -16 3 -9 6 9 4 10 8 2
18 -8 10 -3 21 24 47 32 31 34 37 29 76 l-6 42 -46 0 c-30 0 -73 -12 -126 -35z
m145 -45 c-8 -5 -22 -9 -30 -9 -10 0 -8 3 5 9 27 12 43 12 25 0z"/>
<path d="M32 1443 l-32 -4 0 -720 0 -720 66 3 67 3 20 67 20 68 -23 18 c-22
18 -26 38 -17 106 2 15 11 32 20 37 25 14 54 69 70 132 15 55 13 77 -9 131 -5
14 -4 17 4 12 8 -5 12 2 12 23 0 42 9 61 35 71 17 7 27 25 40 77 10 37 33 100
50 138 29 63 31 72 18 91 -9 15 -21 20 -34 17 -19 -5 -19 -5 -1 38 16 39 31
52 128 111 60 37 108 70 107 75 -3 16 -69 32 -134 32 -92 1 -132 21 -215 106
-97 98 -99 99 -192 88z"/>
<path d="M1732 1203 c-17 -7 -5 -23 19 -23 10 0 19 7 19 15 0 15 -14 18 -38 8z"/>
<path d="M1737 53 c-13 -13 -7 -53 8 -53 10 0 15 10 15 30 0 29 -9 38 -23 23z"/>
</g>
</svg>
