<?xml version="1.0" standalone="no"?>
<!DOCTYPE svg PUBLIC "-//W3C//DTD SVG 20010904//EN"
 "http://www.w3.org/TR/2001/REC-SVG-20010904/DTD/svg10.dtd">
<svg version="1.0" xmlns="http://www.w3.org/2000/svg"
 width="480.000000pt" height="360.000000pt" viewBox="0 0 480.000000 360.000000"
 preserveAspectRatio="xMidYMid meet">
<metadata>
Created by potrace 1.16, written by Peter Selinger 2001-2019
</metadata>
<rect width="1" height="360" fill="#000000"/>
<rect x="479" width="1" height="360" fill="#000000"/>
<rect width="480" height="1" fill="#000000"/>
<rect y="359" width="480" height="1" fill="#000000"/>
<g transform="translate(0.000000,360.000000) scale(0.100000,-0.100000)"
fill="#000000" stroke="none">
<path d="M1373 3100 c-17 -10 -34 -24 -38 -30 -5 -8 -11 -6 -20 7 -12 16 -16
9 -35 -55 -14 -45 -31 -79 -45 -91 -26 -19 -26 -14 -5 -179 9 -72 8 -75 -25
-144 -31 -62 -75 -171 -75 -183 0 -3 7 -5 15 -5 8 0 15 -6 15 -12 1 -7 7 -26
15 -43 15 -30 15 -29 11 25 -2 38 -1 48 5 33 5 -13 13 -33 18 -45 l10 -23 0
23 c1 32 11 27 61 -33 29 -35 53 -55 67 -55 31 0 33 -21 4 -47 l-26 -22 22
-41 c21 -40 22 -70 1 -70 -18 0 -146 -131 -159 -163 -7 -18 -30 -52 -50 -77
-21 -25 -43 -58 -48 -73 -28 -72 2 -144 74 -182 l40 -20 -1 -116 c-1 -97 -5
-122 -23 -160 -34 -69 -58 -109 -76 -129 -14 -15 -16 -29 -11 -60 5 -32 -1
-60 -28 -133 -46 -124 -45 -120 -34 -140 7 -13 4 -24 -12 -40 -22 -23 -70
-131 -70 -157 0 -9 7 -26 16 -38 8 -12 13 -30 10 -40 -3 -9 -23 -123 -45 -252
-22 -129 -45 -256 -49 -282 l-9 -48 563 0 564 0 0 35 c0 19 -7 61 -15 93 -8
31 -33 146 -55 255 -23 109 -52 235 -65 279 l-24 81 38 46 c21 25 48 63 60 84
14 22 30 37 42 37 13 0 19 7 19 21 0 11 20 39 44 62 35 35 49 59 75 137 30 88
102 241 165 350 29 51 33 95 11 146 -16 39 -95 141 -144 188 -20 19 -31 39
-31 57 0 16 -7 32 -16 37 -8 5 -21 20 -28 33 -6 13 -18 24 -25 24 -17 0 -25
16 -40 72 -17 63 -54 99 -147 144 -46 22 -84 43 -84 47 0 5 5 13 12 20 9 9 8
16 -5 30 -15 17 -15 19 13 29 28 10 29 10 20 -8 -13 -23 -3 -25 22 -2 17 15
18 15 18 0 0 -22 9 -21 32 0 15 13 21 14 27 5 6 -10 11 -9 21 3 7 8 19 15 26
15 18 0 76 91 99 155 18 50 18 51 -9 145 -15 52 -40 117 -57 144 -16 27 -32
68 -36 92 -4 34 -14 52 -40 74 -18 17 -39 30 -46 30 -8 0 -26 14 -43 31 -16
17 -54 45 -84 62 -52 30 -61 32 -155 32 -80 0 -102 3 -112 16 -17 22 -73 22
-110 -1z m78 -820 c6 0 7 -4 4 -10 -10 -16 -45 -12 -45 6 0 11 5 14 16 10 9
-3 20 -6 25 -6z m346 -577 c4 -10 19 -30 34 -45 22 -23 33 -26 62 -21 29 4 43
0 81 -28 25 -18 46 -34 46 -36 0 -14 -124 -235 -171 -304 -31 -47 -64 -108
-72 -135 -13 -44 -18 -50 -51 -57 -44 -11 -55 -4 -38 24 11 17 9 29 -18 81
-35 72 -37 98 -10 198 20 74 99 318 107 333 7 13 23 8 30 -10z"/>
<path d="M3216 2429 c-46 -39 -57 -90 -28 -122 l20 -22 -38 -60 -37 -60 -134
0 c-123 0 -138 -2 -184 -25 -50 -25 -90 -71 -101 -117 -14 -54 87 -144 239
-213 37 -16 67 -35 67 -41 0 -5 5 -7 10 -4 21 13 9 -20 -17 -47 -15 -16 -21
-28 -14 -28 8 0 11 -8 8 -20 -3 -11 -1 -20 5 -20 6 0 8 -17 4 -45 -5 -29 -4
-45 3 -45 6 0 11 -12 11 -28 0 -17 8 -32 20 -40 25 -15 17 -32 -14 -32 -13 0
-28 -6 -34 -13 -6 -7 -92 -175 -191 -374 -202 -404 -206 -414 -151 -476 17
-19 30 -44 30 -55 0 -61 42 -115 117 -148 41 -18 58 -21 78 -14 30 12 35 50 6
50 -10 0 -29 8 -41 18 -22 18 -22 19 -6 45 10 14 37 38 62 52 24 14 49 36 56
48 6 12 14 74 16 139 4 93 1 125 -13 161 -21 55 -12 111 35 214 28 60 32 65
46 51 12 -12 17 -47 21 -149 6 -131 5 -136 -21 -186 -28 -56 -34 -99 -13 -106
9 -3 9 -11 -2 -38 -33 -82 -80 -296 -95 -434 -9 -83 -20 -171 -23 -197 l-6
-48 427 0 426 0 -16 38 c-41 97 -62 154 -141 385 -79 233 -83 250 -71 283 10
29 9 45 -5 98 -9 35 -17 84 -17 108 l1 43 22 -45 c25 -51 131 -184 177 -224
18 -14 39 -26 49 -26 9 0 23 -6 29 -12 10 -10 17 -10 33 0 26 16 29 13 18 -15
-5 -14 -17 -23 -29 -23 -14 0 -20 -7 -20 -24 0 -61 123 -41 150 25 7 15 11 60
10 100 -1 41 2 95 5 121 5 33 4 53 -5 63 -7 9 -56 40 -109 70 -123 70 -170
104 -187 135 -31 58 -105 232 -129 304 -21 65 -23 81 -13 99 7 12 13 31 14 42
0 11 1 35 2 54 l2 33 65 -7 c167 -17 291 -3 320 38 25 35 20 125 -10 168 -28
42 -124 114 -214 159 l-62 32 7 91 c5 73 12 100 32 129 19 29 23 45 18 71 -9
48 -54 87 -107 94 -24 3 -51 9 -60 14 -19 10 -197 39 -239 39 -19 0 -42 -11
-64 -31z"/>
</g>
</svg>
