<?xml version="1.0" standalone="no"?>
<!DOCTYPE svg PUBLIC "-//W3C//DTD SVG 20010904//EN"
 "http://www.w3.org/TR/2001/REC-SVG-20010904/DTD/svg10.dtd">
<svg version="1.0" xmlns="http://www.w3.org/2000/svg"
 width="480.000000pt" height="360.000000pt" viewBox="0 0 480.000000 360.000000"
 preserveAspectRatio="xMidYMid meet">
<metadata>
Created by potrace 1.16, written by Peter Selinger 2001-2019
</metadata>
<rect width="1" height="360" fill="#000000"/>
<rect x="479" width="1" height="360" fill="#000000"/>
<rect width="480" height="1" fill="#000000"/>
<rect y="359" width="480" height="1" fill="#000000"/>
<g transform="translate(0.000000,360.000000) scale(0.100000,-0.100000)"
fill="#000000" stroke="none">
<path d="M915 3121 c11 -10 74 -40 140 -66 221 -87 330 -156 438 -277 78 -87
177 -223 177 -243 0 -84 55 -178 121 -205 20 -9 59 -52 116 -128 94 -127 232
-275 319 -343 103 -80 121 -99 127 -129 7 -31 61 -97 109 -132 32 -22 93 -26
128 -8 17 9 27 7 54 -10 33 -20 37 -28 51 -115 3 -16 16 -38 30 -48 19 -15 25
-28 25 -58 0 -44 10 -69 46 -112 13 -15 21 -34 17 -42 -3 -9 -1 -21 5 -28 5
-6 12 -23 15 -37 4 -14 22 -44 42 -68 20 -23 34 -46 31 -50 -8 -13 24 -53 36
-46 6 4 8 -1 4 -13 -8 -24 44 -101 117 -174 26 -27 47 -55 47 -63 0 -8 -8 -43
-17 -78 -20 -71 -25 -374 -9 -550 l8 -98 854 0 854 0 0 985 0 984 -32 -6 c-18
-3 -71 -17 -118 -31 -47 -13 -93 -27 -103 -29 -10 -3 -42 6 -70 20 -69 35
-179 51 -297 43 -97 -6 -204 -28 -227 -48 -9 -7 -43 -2 -126 21 -158 44 -355
71 -516 71 l-133 0 -39 31 c-50 39 -95 46 -156 24 -48 -17 -49 -17 -128 10
-145 50 -289 106 -337 132 -38 21 -48 32 -48 52 -1 40 -35 106 -75 146 -64 62
-118 87 -205 96 -44 4 -88 14 -98 21 -10 7 -83 82 -163 167 -132 141 -145 159
-160 212 -21 78 -60 134 -116 170 -39 24 -57 29 -110 29 -37 0 -76 -7 -96 -16
-31 -15 -39 -15 -118 5 -105 25 -290 51 -372 51 -61 0 -61 0 -42 -19z m1381
-765 c10 -8 16 -17 13 -20 -3 -4 -17 2 -30 13 -27 23 -13 28 17 7z"/>
</g>
</svg>
