<?xml version="1.0" standalone="no"?>
<!DOCTYPE svg PUBLIC "-//W3C//DTD SVG 20010904//EN"
 "http://www.w3.org/TR/2001/REC-SVG-20010904/DTD/svg10.dtd">
<svg version="1.0" xmlns="http://www.w3.org/2000/svg"
 width="480.000000pt" height="360.000000pt" viewBox="0 0 480.000000 360.000000"
 preserveAspectRatio="xMidYMid meet">
<metadata>
Created by potrace 1.16, written by Peter Selinger 2001-2019
</metadata>
<rect width="1" height="360" fill="#000000"/>
<rect x="479" width="1" height="360" fill="#000000"/>
<rect width="480" height="1" fill="#000000"/>
<rect y="359" width="480" height="1" fill="#000000"/>
<g transform="translate(0.000000,360.000000) scale(0.100000,-0.100000)"
fill="#000000" stroke="none">
<path d="M0 1800 l0 -1800 721 0 c573 0 720 3 716 12 -45 112 -46 117 -34 127
21 17 157 50 251 60 49 6 90 12 91 13 2 2 -3 23 -10 48 -16 55 -45 242 -46
290 l0 35 -13 -35 c-7 -19 -23 -62 -35 -95 -19 -55 -42 -85 -64 -85 -4 0 -6 8
-3 18 2 9 9 42 15 72 27 140 46 226 81 370 21 85 42 179 46 209 l7 55 -29 -22
c-16 -12 -40 -30 -54 -41 -14 -12 -30 -21 -36 -21 -6 0 -17 -6 -23 -14 -23
-27 -95 -39 -149 -25 l-50 12 -81 -51 c-45 -29 -87 -52 -93 -52 -7 0 -22 9
-34 21 l-21 20 -107 -50 c-211 -99 -312 -127 -408 -111 -115 18 -153 71 -207
285 -66 264 -103 467 -111 615 l-8 145 -58 145 c-33 84 -59 166 -62 195 -3 45
0 56 35 110 53 80 181 211 226 230 40 17 103 20 111 6 3 -5 30 -15 58 -21 69
-16 124 -43 120 -58 -1 -7 14 -27 33 -44 34 -29 65 -76 65 -96 0 -18 -69 -24
-103 -8 -46 20 -87 26 -87 11 0 -7 9 -24 20 -38 25 -32 25 -41 0 -34 -29 8
-43 -17 -36 -65 3 -24 7 -93 8 -154 1 -97 -1 -116 -21 -157 -21 -44 -22 -50
-8 -80 21 -46 76 -204 142 -407 31 -96 58 -181 60 -188 3 -9 15 -5 42 12 21
14 59 38 85 53 32 19 46 33 45 47 -2 14 19 30 86 66 48 26 91 51 96 56 4 5 13
28 20 51 14 52 45 71 141 87 l67 11 -63 55 c-74 64 -116 126 -143 209 -10 32
-30 77 -42 99 -22 37 -22 42 -9 98 11 49 22 67 64 109 73 72 166 145 284 227
l104 70 -34 22 c-18 13 -45 26 -59 29 -23 6 -28 13 -31 49 -3 28 0 49 9 59 7
8 13 20 13 25 0 19 66 73 135 110 39 21 71 38 73 39 1 1 -7 22 -18 46 -12 27
-20 66 -20 102 0 53 2 57 23 57 12 0 36 -4 52 -9 l30 -8 -3 105 c-4 97 -3 104
13 94 13 -7 26 -5 45 6 23 14 31 14 44 3 9 -7 16 -19 16 -27 0 -7 11 -33 25
-58 14 -25 25 -52 25 -60 0 -21 5 -20 58 5 104 51 355 76 491 50 36 -7 46 -6
61 9 35 35 56 41 122 31 63 -9 138 -36 148 -52 3 -5 59 -3 124 3 l118 12 19
-24 19 -25 -98 -93 -97 -93 70 -19 c90 -23 154 -49 254 -101 76 -40 81 -45 81
-76 0 -30 -2 -32 -27 -28 -168 30 -193 30 -193 5 0 -35 -28 -77 -60 -90 -17
-7 -45 -26 -61 -41 -17 -16 -53 -37 -79 -46 -45 -16 -49 -20 -55 -59 -3 -23
-3 -53 0 -66 4 -13 8 -110 9 -214 3 -185 6 -203 57 -484 10 -53 20 -74 59
-121 56 -67 174 -267 196 -333 22 -65 15 -135 -20 -185 l-28 -40 22 -74 c16
-54 19 -79 12 -93 -22 -42 78 -423 125 -476 9 -10 13 -25 9 -34 -4 -9 5 -66
20 -126 l26 -108 744 0 744 0 0 1800 0 1800 -2400 0 -2400 0 0 -1800z"/>
<path d="M1704 2187 c-129 -111 -168 -143 -198 -162 -45 -28 -56 -46 -51 -85
3 -27 16 -46 57 -83 67 -62 217 -161 243 -161 16 -1 29 23 72 129 51 127 52
130 38 170 -7 23 -21 69 -30 104 -13 51 -57 142 -68 141 -1 0 -29 -24 -63 -53z"/>
<path d="M2891 400 c-1 -67 7 -100 25 -100 23 0 23 13 -1 85 l-23 70 -1 -55z"/>
</g>
</svg>
