<?xml version="1.0" standalone="no"?>
<!DOCTYPE svg PUBLIC "-//W3C//DTD SVG 20010904//EN"
 "http://www.w3.org/TR/2001/REC-SVG-20010904/DTD/svg10.dtd">
<svg version="1.0" xmlns="http://www.w3.org/2000/svg"
 width="480.000000pt" height="360.000000pt" viewBox="0 0 480.000000 360.000000"
 preserveAspectRatio="xMidYMid meet">
<metadata>
Created by potrace 1.16, written by Peter Selinger 2001-2019
</metadata>
<rect width="1" height="360" fill="#000000"/>
<rect x="479" width="1" height="360" fill="#000000"/>
<rect width="480" height="1" fill="#000000"/>
<rect y="359" width="480" height="1" fill="#000000"/>
<g transform="translate(0.000000,360.000000) scale(0.100000,-0.100000)"
fill="#000000" stroke="none">
<path d="M0 1800 l0 -1800 986 0 986 0 -7 37 c-4 20 -11 69 -15 107 -9 66 -16
137 -55 546 -8 85 -22 261 -30 390 -8 129 -17 264 -20 299 -11 129 -26 702
-25 926 0 215 12 567 25 785 15 239 26 400 31 453 l7 57 -942 0 -941 0 0
-1800z"/>
<path d="M4502 3358 c-82 -321 -135 -657 -156 -983 -39 -598 -49 -1233 -29
-1665 13 -248 39 -618 49 -677 l5 -33 214 0 215 0 0 1800 0 1800 -118 0 -118
0 -62 -242z"/>
</g>
</svg>
