<?xml version="1.0" standalone="no"?>
<!DOCTYPE svg PUBLIC "-//W3C//DTD SVG 20010904//EN"
 "http://www.w3.org/TR/2001/REC-SVG-20010904/DTD/svg10.dtd">
<svg version="1.0" xmlns="http://www.w3.org/2000/svg"
 width="480.000000pt" height="360.000000pt" viewBox="0 0 480.000000 360.000000"
 preserveAspectRatio="xMidYMid meet">
<metadata>
Created by potrace 1.16, written by Peter Selinger 2001-2019
</metadata>
<rect width="1" height="360" fill="#000000"/>
<rect x="479" width="1" height="360" fill="#000000"/>
<rect width="480" height="1" fill="#000000"/>
<rect y="359" width="480" height="1" fill="#000000"/>
<g transform="translate(0.000000,360.000000) scale(0.100000,-0.100000)"
fill="#000000" stroke="none">
<path d="M1224 2559 c-19 -25 -24 -50 -13 -70 8 -17 5 -25 -21 -49 -18 -16
-30 -35 -28 -42 5 -15 40 -26 86 -27 31 -1 33 -3 28 -28 -2 -16 -8 -58 -11
-95 -11 -117 -28 -163 -85 -224 -28 -31 -57 -72 -65 -90 -18 -43 -41 -51 -157
-60 l-93 -7 -48 -51 c-55 -58 -87 -114 -82 -142 2 -10 4 -22 4 -26 2 -14 28
-8 42 8 11 14 14 13 26 -10 24 -47 50 -43 192 28 72 36 133 66 136 66 14 0 2
-24 -29 -57 -19 -21 -34 -41 -35 -46 0 -4 -8 -21 -16 -37 -20 -39 0 -41 30 -4
64 80 35 -66 -133 -666 -39 -140 -78 -286 -87 -323 -9 -38 -23 -86 -31 -107
-9 -21 -14 -53 -12 -72 3 -30 7 -34 48 -46 80 -24 77 -22 54 -35 -86 -49 -123
-113 -83 -141 29 -20 125 -4 184 31 47 27 50 32 53 74 2 25 -1 55 -6 68 -5 15
-3 40 7 72 l15 49 47 0 c26 0 59 -4 73 -10 25 -9 26 -14 26 -80 0 -56 -5 -81
-25 -118 -41 -77 -30 -102 46 -102 67 0 92 23 99 91 5 52 6 54 40 59 20 4 48
17 63 30 l27 23 -6 206 c-6 194 3 442 26 686 10 113 12 206 4 313 l-6 72 27 0
c35 0 82 25 89 47 2 10 7 38 11 63 11 87 29 136 72 200 l44 65 -33 25 c-80 62
-79 59 -64 120 12 51 15 55 42 56 52 2 71 19 70 61 -1 21 2 46 6 56 7 14 4 17
-22 17 -20 0 -33 6 -36 18 -33 99 -86 151 -154 149 -25 0 -64 3 -87 7 -30 5
-59 3 -99 -9 -52 -15 -57 -15 -68 1 -9 12 -20 15 -39 10 -15 -3 -27 -2 -29 5
-2 7 -7 7 -14 -2z"/>
</g>
</svg>
