<?xml version="1.0" standalone="no"?>
<!DOCTYPE svg PUBLIC "-//W3C//DTD SVG 20010904//EN"
 "http://www.w3.org/TR/2001/REC-SVG-20010904/DTD/svg10.dtd">
<svg version="1.0" xmlns="http://www.w3.org/2000/svg"
 width="480.000000pt" height="360.000000pt" viewBox="0 0 480.000000 360.000000"
 preserveAspectRatio="xMidYMid meet">
<metadata>
Created by potrace 1.16, written by Peter Selinger 2001-2019
</metadata>
<rect width="1" height="360" fill="#000000"/>
<rect x="479" width="1" height="360" fill="#000000"/>
<rect width="480" height="1" fill="#000000"/>
<rect y="359" width="480" height="1" fill="#000000"/>
<g transform="translate(0.000000,360.000000) scale(0.100000,-0.100000)"
fill="#000000" stroke="none">
<path d="M0 1800 l0 -1800 860 0 860 0 2 798 c1 438 2 916 3 1062 l1 265 33
45 c18 25 38 55 43 67 15 31 51 34 248 23 96 -5 183 -10 193 -10 9 0 17 -4 17
-10 0 -5 -7 -10 -16 -10 -40 0 -114 -35 -152 -72 -51 -49 -55 -82 -13 -122 27
-26 131 -66 171 -66 27 0 40 -22 66 -112 26 -88 41 -108 85 -108 40 0 54 19
84 115 22 67 32 86 49 90 142 28 181 43 214 78 17 18 21 31 16 51 -8 31 -99
116 -125 116 -27 0 -70 22 -66 34 2 6 18 13 36 17 50 10 326 21 355 13 16 -4
32 -19 41 -38 8 -17 27 -45 43 -61 l27 -30 0 -385 c0 -212 1 -692 3 -1067 l2
-683 833 0 833 0 27 69 c29 73 40 210 16 195 -8 -5 -8 -1 0 14 6 11 11 31 10
44 0 23 0 23 -9 2 -5 -12 -13 -25 -18 -28 -13 -8 -3 33 15 59 19 28 18 55 -2
29 -14 -17 -15 -13 -12 56 2 41 8 86 12 100 8 24 8 24 -19 -5 -27 -29 -27 -29
-20 -5 4 14 17 46 30 72 l24 47 0 1476 0 1475 -864 0 -864 0 5 -654 c3 -360 2
-664 -2 -676 -6 -19 -11 -14 -36 36 l-28 58 -212 -3 c-190 -2 -211 -1 -206 13
4 9 2 16 -3 16 -6 0 -10 -5 -10 -12 0 -6 -3 -9 -6 -6 -3 3 -1 32 5 63 13 71
-1 110 -20 56 l-12 -33 -15 38 c-29 76 -27 111 8 188 100 214 133 278 184 346
91 123 132 211 109 234 -5 4 -13 29 -18 54 -10 46 -11 47 -60 59 -27 7 -61 21
-75 32 -23 17 -25 24 -24 105 l1 86 -44 0 -43 0 0 -42 c0 -50 -17 -118 -29
-118 -5 0 -30 10 -57 21 -46 21 -50 21 -99 5 -111 -35 -146 -18 -153 73 l-4
61 -45 0 -44 0 5 -42 c20 -165 24 -153 -52 -172 -47 -12 -51 -16 -72 -76 -29
-82 -20 -113 70 -265 63 -106 91 -162 133 -270 19 -49 42 -103 51 -120 27 -51
15 -266 -16 -289 -16 -12 -355 -13 -424 -2 -36 6 -40 5 -52 -21 -28 -61 -50
-94 -57 -83 -4 6 -5 310 -2 675 l5 665 -864 0 -864 0 0 -1800z m1746 402 c-11
-11 -16 -12 -16 -4 0 18 24 43 29 30 2 -5 -4 -17 -13 -26z m1320 18 c8 0 14
-5 14 -11 0 -19 -35 -4 -37 16 -2 11 0 14 3 8 3 -7 12 -13 20 -13z m1714
-1980 c0 -5 -5 -10 -11 -10 -5 0 -7 5 -4 10 3 6 8 10 11 10 2 0 4 -4 4 -10z"/>
</g>
</svg>
