<?xml version="1.0" standalone="no"?>
<!DOCTYPE svg PUBLIC "-//W3C//DTD SVG 20010904//EN"
 "http://www.w3.org/TR/2001/REC-SVG-20010904/DTD/svg10.dtd">
<svg version="1.0" xmlns="http://www.w3.org/2000/svg"
 width="480.000000pt" height="360.000000pt" viewBox="0 0 480.000000 360.000000"
 preserveAspectRatio="xMidYMid meet">
<metadata>
Created by potrace 1.16, written by Peter Selinger 2001-2019
</metadata>
<rect width="1" height="360" fill="#000000"/>
<rect x="479" width="1" height="360" fill="#000000"/>
<rect width="480" height="1" fill="#000000"/>
<rect y="359" width="480" height="1" fill="#000000"/>
<g transform="translate(0.000000,360.000000) scale(0.100000,-0.100000)"
fill="#000000" stroke="none">
<path d="M0 2811 l0 -790 33 4 c136 18 245 25 285 20 26 -3 92 -13 147 -21 55
-8 179 -16 275 -17 147 -2 193 2 285 20 107 22 119 22 405 13 362 -12 577 -13
584 -2 9 14 -72 325 -139 532 -19 58 -39 143 -45 190 -46 379 -55 418 -160
650 -24 52 -45 116 -48 143 l-5 47 -808 0 -809 0 0 -789z"/>
<path d="M1826 3573 c7 -33 111 -428 164 -628 46 -169 217 -730 231 -756 5
-11 13 -19 18 -19 12 0 38 68 48 124 10 63 30 76 70 48 l30 -21 23 24 c30 32
83 50 109 36 10 -6 28 -25 40 -43 28 -46 57 -63 70 -41 8 15 11 16 34 0 27
-17 39 -14 30 9 -7 18 7 18 35 -2 34 -23 56 -73 62 -139 4 -52 8 -60 25 -60
14 0 23 10 31 34 8 24 22 40 49 54 37 19 40 19 96 2 l58 -18 48 31 c78 49 164
81 274 101 69 12 117 0 230 -61 106 -56 180 -116 203 -164 10 -21 22 -46 26
-54 5 -11 24 -15 66 -15 77 0 692 24 812 31 l92 6 0 774 0 774 -1490 0 -1490
0 6 -27z"/>
<path d="M240 1884 c-43 -7 -143 -25 -193 -36 l-47 -10 0 -919 0 -919 1264 0
1264 0 -17 58 c-10 31 -23 67 -29 79 -7 12 -12 44 -12 72 0 58 -13 71 -90 91
-62 17 -107 41 -172 94 -84 69 -283 328 -341 445 -29 60 -32 74 -32 161 0 110
20 166 94 257 44 54 157 136 204 148 49 13 50 28 17 248 -17 111 -32 208 -35
215 -12 34 -603 -17 -977 -84 -144 -26 -149 -27 -220 -11 -40 9 -140 28 -223
43 -82 14 -202 37 -265 50 -111 23 -137 25 -190 18z"/>
<path d="M3774 1868 c-11 -13 -35 -46 -54 -74 -35 -53 -72 -74 -134 -74 -57 0
-246 48 -340 86 -18 7 -19 4 -13 -39 4 -25 2 -49 -3 -52 -5 -3 -5 -18 2 -35
11 -33 -2 -60 -28 -60 -8 0 -19 -11 -24 -24 -5 -14 -22 -33 -37 -43 -15 -9
-38 -28 -50 -40 -12 -13 -32 -23 -43 -23 -18 0 -21 -5 -18 -32 2 -27 13 -39
57 -68 88 -59 103 -122 39 -175 -32 -27 -55 -30 -106 -16 -17 5 -32 6 -32 2 0
-26 35 -82 76 -121 68 -66 138 -178 159 -254 27 -100 10 -356 -24 -356 -4 0
-14 -15 -23 -33 -15 -31 -14 -36 6 -77 18 -38 26 -45 51 -46 50 -2 53 -3 60
-25 5 -16 -2 -30 -30 -59 l-38 -39 39 -95 39 -96 748 0 747 0 0 919 0 919 -23
6 c-58 14 -331 18 -429 7 -95 -12 -118 -11 -306 13 -246 32 -244 31 -268 4z"/>
<path d="M3010 284 c-51 -22 -106 -32 -190 -35 -41 -2 -78 -7 -82 -13 -3 -5 0
-27 8 -49 8 -22 14 -73 14 -113 l0 -74 221 0 c207 0 221 1 214 18 -4 9 -14 36
-22 59 -19 54 -37 68 -86 68 -63 0 -71 25 -23 74 39 40 39 41 21 61 -21 24
-29 24 -75 4z"/>
</g>
</svg>
