<?xml version="1.0" standalone="no"?>
<!DOCTYPE svg PUBLIC "-//W3C//DTD SVG 20010904//EN"
 "http://www.w3.org/TR/2001/REC-SVG-20010904/DTD/svg10.dtd">
<svg version="1.0" xmlns="http://www.w3.org/2000/svg"
 width="480.000000pt" height="360.000000pt" viewBox="0 0 480.000000 360.000000"
 preserveAspectRatio="xMidYMid meet">
<metadata>
Created by potrace 1.16, written by Peter Selinger 2001-2019
</metadata>
<rect width="1" height="360" fill="#000000"/>
<rect x="479" width="1" height="360" fill="#000000"/>
<rect width="480" height="1" fill="#000000"/>
<rect y="359" width="480" height="1" fill="#000000"/>
<g transform="translate(0.000000,360.000000) scale(0.100000,-0.100000)"
fill="#000000" stroke="none">
<path d="M1310 3301 c0 -5 20 -21 45 -35 25 -15 45 -30 45 -35 0 -4 -44 -11
-97 -14 -54 -4 -114 -11 -134 -17 -56 -16 -106 -67 -122 -125 l-14 -50 -60 3
c-76 5 -132 -19 -112 -46 36 -47 51 -59 70 -55 10 3 19 1 19 -3 -1 -15 -27
-44 -40 -44 -7 0 -10 -7 -5 -17 3 -10 9 -29 11 -43 5 -24 83 -87 126 -103 22
-8 31 -70 26 -194 -3 -100 -3 -100 -40 -141 -35 -38 -52 -75 -47 -98 1 -5 0
-16 -4 -24 -11 -29 -14 -84 -6 -119 6 -23 3 -75 -7 -146 -16 -107 -19 -115
-120 -317 -107 -214 -109 -220 -72 -267 10 -13 15 -28 12 -33 -11 -17 7 -77
31 -106 15 -18 43 -34 70 -42 41 -11 48 -11 65 5 11 10 20 25 20 34 0 13 11
16 50 16 27 0 50 -4 50 -9 0 -5 -18 -79 -39 -165 -47 -187 -124 -517 -145
-621 -34 -174 -76 -431 -76 -472 0 -17 28 -18 561 -18 l561 0 -5 23 c-4 12
-11 74 -17 137 -6 63 -28 282 -50 485 -67 638 -73 711 -61 761 12 48 8 119
-16 282 -8 57 -13 106 -10 109 3 2 15 -5 28 -18 l22 -22 -7 24 c-20 73 -20 79
7 79 32 0 84 58 92 103 5 27 -1 44 -34 100 -23 36 -41 69 -41 71 0 3 29 48 65
101 36 52 65 101 64 108 0 6 -68 59 -151 116 l-150 103 6 87 c3 47 5 95 5 106
-2 77 -5 112 -12 122 -10 16 -1 64 14 73 8 6 8 9 0 14 -18 11 -13 26 14 38 35
16 31 24 -19 43 -26 10 -48 26 -54 40 -6 13 -36 44 -67 68 -31 24 -65 59 -76
76 -28 47 -169 107 -169 72z"/>
</g>
</svg>
