<?xml version="1.0" standalone="no"?>
<!DOCTYPE svg PUBLIC "-//W3C//DTD SVG 20010904//EN"
 "http://www.w3.org/TR/2001/REC-SVG-20010904/DTD/svg10.dtd">
<svg version="1.0" xmlns="http://www.w3.org/2000/svg"
 width="480.000000pt" height="360.000000pt" viewBox="0 0 480.000000 360.000000"
 preserveAspectRatio="xMidYMid meet">
<metadata>
Created by potrace 1.16, written by Peter Selinger 2001-2019
</metadata>
<rect width="1" height="360" fill="#000000"/>
<rect x="479" width="1" height="360" fill="#000000"/>
<rect width="480" height="1" fill="#000000"/>
<rect y="359" width="480" height="1" fill="#000000"/>
<g transform="translate(0.000000,360.000000) scale(0.100000,-0.100000)"
fill="#000000" stroke="none">
<path d="M2533 3356 c-84 -82 -86 -85 -80 -122 3 -22 13 -60 21 -86 l15 -48
-57 -44 c-78 -60 -130 -119 -158 -180 -34 -74 -67 -222 -59 -265 11 -60 47
-151 60 -151 6 0 17 -17 23 -38 6 -20 18 -46 26 -57 15 -20 15 -20 16 0 1 19
1 19 11 2 10 -17 88 -57 110 -57 5 0 2 11 -7 25 -9 14 -14 28 -12 31 7 6 68
-70 68 -83 0 -6 -13 -28 -29 -51 -27 -36 -28 -42 -14 -54 9 -7 30 -17 47 -23
20 -6 36 -21 45 -42 8 -17 24 -36 36 -41 12 -6 42 -33 66 -61 33 -39 51 -51
72 -51 15 0 30 -7 33 -15 9 -22 24 -18 55 15 16 16 29 27 29 24 0 -4 6 -1 14
5 12 10 15 3 18 -36 l4 -48 -90 -87 c-71 -68 -97 -88 -119 -88 -38 0 -97 -58
-97 -94 0 -14 -13 -40 -28 -58 -56 -65 -62 -80 -62 -148 0 -43 -5 -73 -15 -86
-8 -10 -14 -28 -15 -39 0 -19 -53 -187 -73 -232 -6 -13 -13 -23 -17 -23 -3 0
-40 73 -82 163 -51 108 -82 189 -93 242 -10 44 -28 109 -41 144 -13 35 -23 65
-21 67 1 1 79 14 172 28 234 36 245 38 245 46 0 18 -67 21 -258 9 -200 -12
-204 -11 -231 9 -71 53 -152 66 -191 32 -13 -11 -31 -20 -41 -20 -10 0 -31
-13 -46 -29 -15 -16 -42 -33 -60 -39 -39 -13 -38 -14 -128 140 l-69 116 -65
-5 c-36 -3 -78 -6 -93 -7 -28 -1 -88 -51 -88 -73 0 -7 46 -91 103 -186 93
-156 103 -176 99 -213 -2 -26 4 -59 16 -90 11 -27 23 -71 25 -99 6 -50 52
-180 75 -208 7 -8 34 -20 60 -27 26 -6 54 -18 62 -25 8 -7 76 -46 150 -85 74
-40 143 -79 152 -87 9 -9 25 -38 34 -66 14 -43 40 -75 167 -204 l149 -152 -7
-51 c-5 -36 -16 -62 -36 -84 -53 -61 -64 -136 -29 -194 11 -18 20 -48 20 -67
l0 -35 645 0 c574 0 645 2 645 15 0 50 -106 185 -145 185 -28 0 -29 3 -49 140
-29 203 -41 395 -27 446 14 53 5 97 -26 128 -21 21 -29 23 -50 15 -25 -9 -25
-8 -19 22 3 17 6 36 6 40 0 5 11 2 25 -7 46 -30 246 -31 216 -1 -21 21 -10 27
54 27 61 0 65 1 56 19 -14 26 -5 31 53 31 59 0 71 7 73 36 2 31 30 94 42 94 6
0 11 -22 11 -49 0 -55 14 -73 35 -45 14 18 14 18 15 -2 0 -11 -7 -40 -15 -65
-23 -69 -36 -172 -24 -184 7 -7 14 -4 21 9 6 11 26 36 44 55 l33 36 -13 -60
c-19 -82 -29 -199 -21 -226 l7 -22 14 24 c12 21 13 12 14 -83 0 -66 4 -108 10
-108 10 0 20 10 56 55 15 19 15 19 10 -10 -2 -16 -8 -58 -12 -93 -8 -75 -2
-77 68 -25 40 29 49 32 45 17 -4 -10 -13 -47 -21 -81 -15 -64 -8 -86 19 -63
12 10 13 6 8 -24 -7 -42 13 -50 36 -15 10 17 15 19 21 9 6 -10 13 -2 24 25 9
20 16 43 16 50 0 7 9 23 19 36 20 24 20 24 4 -36 -30 -116 -50 -268 -38 -292
l10 -23 293 0 292 0 0 828 0 827 -82 18 c-96 21 -145 45 -281 135 -182 121
-333 271 -452 449 -26 40 -51 70 -56 68 -4 -3 -19 -30 -33 -60 -14 -30 -30
-55 -36 -55 -5 0 -30 -31 -54 -69 -80 -124 -306 -378 -381 -427 -23 -15 -25
-15 -51 13 -25 27 -26 32 -21 113 3 47 8 93 12 102 10 26 52 17 79 -16 l23
-30 7 28 c4 15 11 24 16 21 6 -3 10 3 10 14 0 12 5 21 10 21 6 0 11 33 11 78
l2 77 10 -52 c10 -54 25 -68 34 -33 6 23 23 26 42 8 7 -7 4 6 -8 30 l-22 42
27 10 26 10 -19 33 c-10 17 -17 44 -15 59 3 27 4 28 33 13 37 -20 37 -13 -6
45 -41 56 -45 73 -10 40 14 -13 27 -21 30 -19 6 7 -50 113 -86 164 -21 29 -40
83 -68 197 -56 224 -81 270 -210 395 -119 115 -175 150 -276 173 l-69 16 -16
52 c-9 29 -23 59 -31 67 -20 19 -163 55 -221 55 -47 0 -50 -2 -135 -84z m757
-1489 l0 -42 -20 25 c-23 29 -24 42 -8 58 18 18 28 4 28 -41z m-1425 -409 c19
-29 51 -75 70 -102 19 -26 35 -58 35 -69 0 -19 -2 -18 -31 9 -26 25 -139 194
-139 209 0 3 7 5 15 5 8 0 30 -24 50 -52z m1434 -723 c15 -112 24 -331 13
-320 -5 6 -23 42 -39 80 -27 66 -29 76 -22 150 19 195 31 217 48 90z m1342
-531 c-9 -38 -9 -38 -10 -7 -1 33 10 74 16 57 2 -6 -1 -28 -6 -50z"/>
</g>
</svg>
