<?xml version="1.0" standalone="no"?>
<!DOCTYPE svg PUBLIC "-//W3C//DTD SVG 20010904//EN"
 "http://www.w3.org/TR/2001/REC-SVG-20010904/DTD/svg10.dtd">
<svg version="1.0" xmlns="http://www.w3.org/2000/svg"
 width="480.000000pt" height="360.000000pt" viewBox="0 0 480.000000 360.000000"
 preserveAspectRatio="xMidYMid meet">
<metadata>
Created by potrace 1.16, written by Peter Selinger 2001-2019
</metadata>
<rect width="1" height="360" fill="#000000"/>
<rect x="479" width="1" height="360" fill="#000000"/>
<rect width="480" height="1" fill="#000000"/>
<rect y="359" width="480" height="1" fill="#000000"/>
<g transform="translate(0.000000,360.000000) scale(0.100000,-0.100000)"
fill="#000000" stroke="none">
<path d="M0 1800 l0 -1800 888 0 887 0 17 58 c12 40 19 105 22 217 4 142 17
234 42 298 6 15 3 17 -21 11 -29 -7 -69 9 -97 39 -11 12 -24 16 -37 12 -14 -4
-31 4 -59 30 -22 19 -47 35 -55 35 -9 0 -20 7 -24 15 -5 8 -30 36 -56 64 -26
27 -47 52 -47 56 0 3 -7 13 -16 22 -9 9 -14 28 -12 46 3 32 33 52 168 109 95
40 231 162 311 280 22 31 39 59 39 63 0 3 -46 2 -102 -1 l-103 -6 -37 -42
c-41 -45 -45 -58 -23 -76 21 -18 19 -33 -5 -27 -11 3 -18 2 -15 -3 6 -9 -46
-21 -58 -13 -5 3 -15 19 -22 36 -12 29 -13 29 -19 9 -4 -12 -11 -22 -16 -22
-19 0 -20 22 0 77 11 31 20 59 20 60 0 7 -116 2 -127 -5 -6 -4 -16 -23 -21
-42 l-10 -35 -1 42 -1 41 -60 7 c-68 8 -110 35 -110 69 0 23 1 23 100 18 55
-3 100 -2 100 1 0 13 -46 31 -73 29 -34 -3 -46 22 -23 47 24 26 60 16 77 -22
11 -26 19 -32 42 -30 24 2 27 0 17 -13 -26 -30 164 -12 195 20 9 9 32 42 51
74 l35 57 -23 10 c-44 19 -268 157 -268 165 0 19 13 40 24 40 7 0 72 -36 145
-80 74 -44 137 -80 142 -80 5 0 22 26 39 58 17 31 53 89 80 127 27 39 49 78
49 88 1 10 6 27 12 39 6 11 12 36 14 56 3 31 15 48 82 110 43 40 92 80 108 89
17 9 34 22 38 30 5 8 20 19 34 24 25 9 25 10 7 24 -10 8 -25 15 -33 15 -8 0
-23 7 -33 17 -11 9 -18 11 -18 5 0 -26 -18 -9 -30 28 -7 22 -15 38 -18 35 -3
-3 -18 25 -34 63 -41 94 -36 142 22 217 75 97 201 151 290 125 30 -9 39 -7 60
10 45 36 164 100 198 106 19 4 45 1 59 -5 22 -10 24 -15 18 -50 -4 -25 -1 -51
9 -76 9 -21 16 -50 16 -66 0 -16 5 -29 10 -29 6 0 15 -11 21 -24 10 -20 5 -31
-35 -87 -86 -122 -86 -121 -122 -117 -38 4 -37 8 -55 -99 -7 -40 -16 -70 -21
-67 -4 3 -8 0 -8 -6 0 -7 -6 -10 -12 -7 -15 5 -48 -10 -48 -22 0 -5 26 -16 58
-26 99 -31 232 -119 232 -154 0 -32 59 -138 101 -181 24 -25 66 -69 92 -98 29
-31 56 -52 69 -52 13 0 47 -27 90 -72 53 -55 71 -69 80 -60 25 25 38 13 38
-32 0 -41 3 -46 49 -79 75 -55 89 -66 175 -152 45 -44 155 -141 246 -215 91
-74 197 -161 235 -193 39 -33 108 -91 155 -130 78 -66 152 -128 302 -259 31
-27 69 -59 84 -70 87 -69 224 -203 224 -220 0 -5 -5 -6 -10 -3 -6 4 -27 8 -48
10 -20 2 -54 11 -74 19 -21 9 -48 16 -60 17 -13 0 -43 11 -68 24 -25 13 -56
30 -70 36 -14 7 -32 18 -40 25 -8 6 -32 14 -53 17 -49 8 -128 78 -338 304 -89
95 -164 171 -167 168 -3 -3 7 -18 21 -33 15 -16 27 -32 27 -36 0 -5 26 -36 58
-70 67 -72 132 -150 132 -160 0 -31 -124 82 -223 204 -54 66 -303 357 -317
370 -3 3 -25 30 -50 60 -25 30 -51 62 -60 70 -8 8 -51 56 -95 105 -67 76 -84
90 -110 90 -24 0 -31 5 -33 23 -2 15 -10 22 -25 22 -23 1 -67 32 -67 47 0 14
-107 114 -175 162 -33 24 -80 63 -105 86 -25 24 -56 46 -70 50 -14 4 -51 27
-82 51 l-58 44 0 -35 c0 -19 -9 -82 -21 -141 -11 -58 -17 -119 -14 -135 5 -22
2 -31 -10 -35 -26 -10 -36 -48 -22 -84 11 -30 14 -31 52 -25 22 3 99 13 170
20 72 8 163 20 204 26 40 6 77 7 81 2 4 -4 11 -29 14 -56 6 -35 4 -48 -6 -52
-8 -3 -115 -16 -238 -28 -180 -18 -225 -26 -225 -38 0 -7 4 -37 8 -65 l8 -51
97 -46 c177 -84 256 -119 376 -168 134 -54 145 -61 126 -84 -30 -36 -143 -3
-405 115 -82 38 -151 64 -153 59 -2 -4 8 -43 22 -85 21 -60 26 -96 26 -169 0
-111 -8 -136 -60 -186 -34 -33 -40 -45 -40 -80 0 -22 9 -61 20 -87 35 -84 50
-171 50 -302 0 -109 3 -133 25 -185 l24 -60 1070 -2 1071 -2 0 1799 0 1800
-381 0 -381 0 46 -50 c140 -157 103 -359 -84 -455 -61 -31 -114 -38 -188 -26
-113 18 -169 59 -214 156 l-13 30 -305 0 c-261 0 -313 2 -361 17 -76 24 -130
84 -200 220 l-54 108 -1332 0 -1333 0 0 -1800z m4296 1228 c5 -7 -8 -25 -31
-45 -29 -25 -41 -30 -52 -22 -18 15 -17 22 8 53 21 27 62 35 75 14z m-1091
-359 c10 -15 -1 -23 -20 -15 -9 3 -13 10 -10 16 8 13 22 13 30 -1z m-2409
-388 c9 -10 28 -31 41 -47 24 -26 25 -29 10 -54 -17 -28 -15 -128 4 -178 6
-15 15 -49 20 -76 7 -38 21 -64 59 -107 28 -32 50 -62 50 -69 0 -17 -51 -60
-71 -60 -10 0 -22 -6 -26 -14 -14 -24 3 -325 22 -399 22 -84 12 -103 -35 -69
-38 28 -46 28 -54 -3 -9 -34 20 -82 52 -90 14 -3 21 -10 16 -15 -8 -7 -240
-47 -515 -90 -86 -13 -309 -14 -321 -2 -15 15 19 30 97 42 37 6 76 15 85 20
10 5 60 14 111 19 52 5 133 15 182 23 84 12 87 13 87 39 0 30 -14 45 -53 54
-15 4 -30 11 -33 16 -3 5 8 37 25 72 32 66 68 225 57 252 -4 13 -13 15 -36 10
-25 -6 -30 -3 -30 12 0 11 9 38 20 61 29 60 26 81 -11 89 -22 4 -35 15 -47 40
-16 33 -16 36 2 48 23 17 56 76 107 192 17 40 17 41 -1 58 -11 10 -17 22 -13
28 3 5 9 46 14 91 7 69 12 84 34 104 35 30 127 32 151 3z m2470 -22 c10 -16
-51 -73 -70 -66 -20 8 -21 41 0 61 18 18 60 21 70 5z m236 -205 c38 -20 26
-34 -36 -41 -56 -7 -96 3 -96 23 0 32 82 44 132 18z m986 -231 c-2 -10 -10
-18 -18 -18 -8 0 -16 8 -18 18 -2 12 3 17 18 17 15 0 20 -5 18 -17z m-578
-657 c0 -3 -4 -8 -10 -11 -5 -3 -10 -1 -10 4 0 6 5 11 10 11 6 0 10 -2 10 -4z"/>
<path d="M737 1253 c-2 -5 -7 -20 -11 -34 -3 -15 -15 -29 -26 -32 -31 -8 -27
-55 6 -67 32 -12 44 -6 43 23 -1 12 2 41 6 63 4 26 3 44 -3 48 -6 3 -13 3 -15
-1z"/>
<path d="M2720 3595 c0 -20 64 -127 87 -145 l28 -22 3 28 c5 38 28 63 53 57
21 -6 25 -36 9 -79 -8 -21 -8 -29 2 -36 20 -12 124 -9 223 7 184 29 292 44
383 51 87 6 94 8 107 33 7 14 24 37 37 51 60 66 103 60 -441 60 -270 0 -491
-2 -491 -5z"/>
<path d="M2124 1881 c-14 -16 -36 -32 -49 -35 -23 -6 -68 -62 -119 -149 l-28
-49 21 -14 c15 -11 19 -22 15 -38 -4 -19 2 -25 45 -46 l50 -23 20 24 c11 13
20 30 21 37 0 7 7 15 15 18 25 10 18 51 -10 58 -33 8 -32 22 9 103 31 63 54
143 42 143 -3 0 -18 -13 -32 -29z"/>
<path d="M1811 1510 c-43 -53 -40 -62 14 -56 148 19 139 16 122 33 -13 13 -17
13 -39 -1 -35 -23 -61 -11 -56 26 7 43 -5 42 -41 -2z"/>
<path d="M2370 551 c-8 -6 -17 -8 -20 -6 -4 2 -35 -5 -71 -16 -68 -22 -172
-20 -232 3 -38 15 -41 9 -62 -126 -9 -61 -25 -155 -35 -208 -12 -62 -17 -115
-13 -147 l6 -51 272 0 272 0 6 47 c4 34 -3 89 -24 188 -17 77 -40 182 -51 233
-11 50 -23 92 -26 92 -4 0 -14 -4 -22 -9z"/>
<path d="M4190 556 c0 -2 7 -9 15 -16 13 -11 14 -10 9 4 -5 14 -24 23 -24 12z"/>
<path d="M4240 490 c20 -28 40 -40 40 -22 0 9 -45 52 -55 52 -3 0 3 -13 15
-30z"/>
</g>
</svg>
