<?xml version="1.0" standalone="no"?>
<!DOCTYPE svg PUBLIC "-//W3C//DTD SVG 20010904//EN"
 "http://www.w3.org/TR/2001/REC-SVG-20010904/DTD/svg10.dtd">
<svg version="1.0" xmlns="http://www.w3.org/2000/svg"
 width="480.000000pt" height="360.000000pt" viewBox="0 0 480.000000 360.000000"
 preserveAspectRatio="xMidYMid meet">
<metadata>
Created by potrace 1.16, written by Peter Selinger 2001-2019
</metadata>
<rect width="1" height="360" fill="#000000"/>
<rect x="479" width="1" height="360" fill="#000000"/>
<rect width="480" height="1" fill="#000000"/>
<rect y="359" width="480" height="1" fill="#000000"/>
<g transform="translate(0.000000,360.000000) scale(0.100000,-0.100000)"
fill="#000000" stroke="none">
<path d="M0 3040 c0 -463 2 -560 13 -560 23 0 97 59 207 165 58 55 150 140
205 188 55 48 143 126 195 172 183 165 392 313 690 489 91 54 167 100 169 102
2 2 -329 4 -737 4 l-742 0 0 -560z"/>
<path d="M3550 3591 c0 -6 4 -12 10 -16 21 -13 166 -214 197 -273 40 -76 45
-148 14 -176 -19 -17 -22 -16 -77 19 -31 20 -67 41 -80 45 l-24 9 6 -92 c5
-68 17 -124 46 -212 51 -157 69 -282 70 -485 1 -299 -66 -532 -207 -715 -126
-165 -282 -258 -455 -272 -64 -5 -83 -2 -128 17 -99 43 -192 175 -192 274 0
14 -21 70 -46 124 -26 53 -64 135 -87 182 -22 47 -55 109 -74 139 -45 70 -131
161 -153 161 -9 0 -28 -17 -41 -37 -28 -42 -96 -75 -218 -102 -91 -21 -104
-36 -70 -83 44 -59 69 -133 84 -255 8 -65 15 -143 15 -175 0 -47 7 -70 41
-135 89 -168 224 -328 344 -405 138 -89 234 -116 430 -123 107 -3 299 14 324
30 5 2 55 14 111 24 125 25 159 44 278 156 205 194 376 433 534 745 15 31 41
71 59 90 17 19 34 42 39 50 17 30 24 -2 13 -63 -17 -96 -137 -338 -253 -507
-133 -195 -162 -252 -140 -274 6 -6 36 -5 79 2 218 36 330 -6 383 -146 29 -76
23 -145 -26 -300 -7 -22 -11 -21 155 -46 52 -7 115 -23 139 -35 28 -13 63 -21
97 -21 l53 0 0 1445 0 1445 -625 0 c-384 0 -625 -4 -625 -9z"/>
<path d="M1428 2350 c-77 -23 -120 -72 -156 -178 -23 -64 -27 -92 -15 -92 3 0
50 43 104 97 97 95 127 139 115 168 -6 17 -9 17 -48 5z"/>
<path d="M0 1011 l0 -1011 625 0 c344 0 625 3 625 7 0 4 -13 21 -29 38 -46 48
-180 240 -255 365 -115 190 -229 429 -371 775 -111 270 -182 379 -319 487 -77
61 -122 117 -191 233 -94 160 -85 252 -85 -894z"/>
<path d="M2190 1414 c0 -7 9 -22 20 -35 25 -31 26 -12 0 21 -11 14 -20 20 -20
14z"/>
<path d="M4146 496 c-103 -104 -166 -152 -331 -254 -43 -26 -139 -73 -440
-217 l-50 -24 738 0 737 -1 0 270 0 270 -142 0 c-117 0 -145 3 -160 16 -12 11
-39 18 -80 19 -35 1 -85 9 -112 18 l-48 16 -112 -113z"/>
</g>
</svg>
