<?xml version="1.0" standalone="no"?>
<!DOCTYPE svg PUBLIC "-//W3C//DTD SVG 20010904//EN"
 "http://www.w3.org/TR/2001/REC-SVG-20010904/DTD/svg10.dtd">
<svg version="1.0" xmlns="http://www.w3.org/2000/svg"
 width="480.000000pt" height="360.000000pt" viewBox="0 0 480.000000 360.000000"
 preserveAspectRatio="xMidYMid meet">
<metadata>
Created by potrace 1.16, written by Peter Selinger 2001-2019
</metadata>
<rect width="1" height="360" fill="#000000"/>
<rect x="479" width="1" height="360" fill="#000000"/>
<rect width="480" height="1" fill="#000000"/>
<rect y="359" width="480" height="1" fill="#000000"/>
<g transform="translate(0.000000,360.000000) scale(0.100000,-0.100000)"
fill="#000000" stroke="none">
<path d="M0 1800 l0 -1800 2400 0 2400 0 0 1800 0 1800 -2400 0 -2400 0 0
-1800z m3306 600 c-9 -22 -14 -40 -12 -40 2 0 16 18 31 40 27 39 45 51 45 29
0 -6 -9 -22 -20 -36 -29 -37 -15 -42 20 -8 39 37 52 24 15 -15 -16 -17 -24
-30 -18 -30 6 0 16 7 23 15 13 16 40 21 40 7 0 -4 -18 -25 -40 -47 -40 -39
-46 -73 -6 -37 41 37 51 36 18 -3 -34 -42 -26 -61 12 -26 12 12 26 21 32 21 5
-1 -11 -19 -36 -41 -36 -32 -42 -41 -30 -49 12 -7 11 -10 -5 -17 -11 -4 -20
-15 -20 -23 0 -10 -19 -18 -65 -25 -36 -6 -77 -19 -90 -28 -14 -9 -34 -17 -45
-17 -11 0 -56 -17 -100 -39 -44 -21 -109 -51 -145 -67 -36 -15 -73 -35 -83
-45 -18 -16 -17 -19 20 -90 33 -63 38 -82 37 -135 -1 -48 -7 -72 -28 -108 -27
-46 -126 -133 -236 -205 -30 -20 -57 -39 -60 -42 -3 -3 -32 -20 -65 -38 -100
-52 -212 -38 -363 47 -126 70 -200 167 -217 285 -8 54 -11 55 -119 37 -33 -5
-87 -12 -118 -16 -40 -4 -58 -10 -58 -19 0 -12 -6 -12 -26 -4 -33 12 -81 -2
-147 -43 -53 -34 -72 -31 -38 6 12 13 19 26 14 29 -4 3 -43 8 -87 12 -49 5
-73 11 -65 16 8 5 25 9 39 10 20 1 21 2 5 6 -11 2 -30 6 -42 9 -42 9 -23 23
35 26 l57 3 -40 8 c-65 14 -73 21 -26 25 l44 3 -33 20 c-40 25 -37 29 18 19
55 -10 54 1 -3 25 -61 25 -65 35 -9 23 35 -8 48 -7 54 2 6 10 20 10 69 -2 43
-11 62 -12 66 -4 3 8 7 7 11 -1 3 -7 14 -13 25 -13 11 0 28 6 39 13 17 10 22
9 29 -1 6 -10 35 -11 147 -3 76 6 155 15 174 21 19 5 56 32 82 58 26 26 76 63
112 82 48 26 68 43 80 70 24 54 77 90 147 100 52 8 65 14 106 54 26 26 49 45
52 43 3 -2 29 -14 56 -26 46 -22 64 -37 65 -52 0 -3 -18 -15 -40 -28 -48 -27
-55 -37 -39 -57 23 -28 58 -36 82 -19 24 16 63 20 71 6 9 -14 208 48 221 70 4
5 42 26 86 46 73 33 84 42 80 67 -1 4 9 6 23 2 38 -9 59 3 52 30 -6 24 7 33
19 14 8 -13 78 62 106 113 26 49 37 41 15 -13z"/>
</g>
</svg>
