<?xml version="1.0" standalone="no"?>
<!DOCTYPE svg PUBLIC "-//W3C//DTD SVG 20010904//EN"
 "http://www.w3.org/TR/2001/REC-SVG-20010904/DTD/svg10.dtd">
<svg version="1.0" xmlns="http://www.w3.org/2000/svg"
 width="480.000000pt" height="360.000000pt" viewBox="0 0 480.000000 360.000000"
 preserveAspectRatio="xMidYMid meet">
<metadata>
Created by potrace 1.16, written by Peter Selinger 2001-2019
</metadata>
<rect width="1" height="360" fill="#000000"/>
<rect x="479" width="1" height="360" fill="#000000"/>
<rect width="480" height="1" fill="#000000"/>
<rect y="359" width="480" height="1" fill="#000000"/>
<g transform="translate(0.000000,360.000000) scale(0.100000,-0.100000)"
fill="#000000" stroke="none">
<path d="M1336 3423 c-10 -10 -26 -33 -37 -50 -12 -22 -26 -33 -42 -33 -38 0
-49 -19 -30 -51 15 -25 15 -33 3 -70 -8 -24 -25 -55 -37 -70 -30 -35 -107 -84
-163 -104 -24 -9 -53 -23 -63 -33 -22 -19 -114 -27 -134 -10 -9 7 -24 4 -50
-9 -50 -24 -75 -86 -52 -130 7 -15 21 -33 30 -40 24 -18 72 -132 66 -156 -3
-12 -15 -49 -27 -82 -12 -33 -24 -82 -27 -110 -5 -50 -5 -50 54 -110 77 -79
90 -101 98 -166 4 -31 15 -84 25 -120 14 -53 21 -64 37 -61 13 2 23 -6 31 -23
12 -26 28 -33 34 -14 2 7 18 2 40 -14 l37 -24 -23 -22 c-12 -11 -28 -21 -36
-21 -26 0 -99 -51 -119 -84 -12 -18 -38 -45 -59 -60 -21 -14 -53 -42 -72 -61
l-34 -35 17 -35 c21 -45 21 -73 0 -158 -13 -51 -15 -72 -6 -85 19 -31 -25
-205 -55 -221 -27 -14 -157 -39 -265 -50 -55 -5 -109 -16 -120 -24 -12 -8 -38
-17 -58 -21 -21 -3 -53 -17 -73 -31 -31 -21 -49 -25 -131 -26 l-95 -2 0 -49
c0 -39 3 -48 18 -48 9 0 36 -9 60 -20 l43 -19 -17 -27 c-16 -24 -22 -26 -61
-20 l-43 6 0 -415 0 -415 1060 0 c583 0 1060 3 1060 6 0 4 -14 33 -32 65 l-32
58 21 23 c60 66 86 158 87 321 1 100 -1 110 -20 126 -29 23 -216 44 -313 35
-66 -6 -74 -5 -111 20 -22 14 -40 30 -40 34 0 4 16 18 35 31 21 14 46 46 62
80 27 54 28 61 27 211 0 106 -5 178 -16 228 l-17 72 30 57 c25 47 29 66 25 98
-5 29 -1 50 14 80 25 49 26 128 2 170 -9 17 -37 61 -62 98 -44 68 -46 69 -82
64 -28 -4 -44 0 -62 14 -13 10 -29 19 -35 19 -14 0 -14 6 0 31 7 13 16 18 29
14 13 -4 22 1 29 14 7 13 17 17 31 14 16 -4 20 0 21 18 1 17 3 19 6 7 5 -20
33 -25 33 -6 0 7 17 47 37 88 49 99 53 160 19 292 -14 54 -37 125 -52 159
l-28 61 20 36 c10 20 36 53 57 74 34 35 51 68 27 53 -6 -3 -10 3 -10 14 0 21
-4 23 -50 25 -23 1 -25 6 -30 54 l-5 54 -23 -32 c-23 -30 -25 -31 -43 -14 -11
9 -24 35 -31 56 -6 21 -16 37 -23 36 -6 -2 -44 33 -84 77 -41 44 -88 92 -105
107 -26 22 -29 29 -18 40 11 11 18 8 40 -17 15 -17 34 -40 42 -52 8 -12 28
-23 44 -25 27 -3 30 1 52 57 13 33 23 70 23 82 1 25 -36 54 -91 72 -20 7 -38
17 -40 22 -2 6 -19 14 -38 18 -27 5 -36 12 -38 31 -8 73 -29 90 -66 53z m239
-1503 c3 -5 1 -10 -4 -10 -6 0 -11 5 -11 10 0 6 2 10 4 10 3 0 8 -4 11 -10z
m-770 -1010 c-3 -5 -27 -10 -53 -9 -38 1 -42 2 -22 9 37 12 82 12 75 0z m-402
-116 c10 -11 -5 -34 -22 -34 -25 0 -33 11 -20 27 12 14 31 17 42 7z m413 -86
c3 -26 -11 -31 -66 -23 -60 8 -64 19 -12 33 50 14 75 10 78 -10z"/>
<path d="M4560 3045 c0 -53 -17 -59 -42 -15 -9 17 -22 30 -29 30 -6 0 -2 -15
11 -36 27 -47 20 -64 -27 -65 l-38 -1 28 -12 c16 -7 34 -23 40 -36 11 -21 4
-30 -98 -134 -61 -61 -120 -124 -133 -141 -19 -27 -22 -28 -32 -12 -16 26 -52
21 -83 -13 l-28 -29 21 -13 c12 -7 33 -35 47 -62 l25 -48 -18 -64 c-19 -73
-15 -221 10 -329 7 -33 16 -79 20 -102 l6 -43 -62 -31 c-35 -18 -92 -42 -128
-53 l-65 -21 -3 -41 c-3 -40 -1 -44 40 -70 32 -22 52 -47 77 -97 33 -66 34
-71 22 -115 -7 -26 -23 -98 -36 -159 -13 -62 -38 -145 -55 -185 -31 -74 -37
-108 -21 -108 6 0 26 -10 46 -21 33 -20 35 -23 20 -39 -8 -9 -15 -30 -14 -46
1 -16 -7 -47 -19 -69 -41 -78 -51 -155 -61 -495 -5 -179 -12 -335 -16 -347
l-7 -23 421 0 421 0 0 330 0 331 -31 62 c-31 60 -95 160 -121 189 -19 20 -38
56 -38 71 0 17 86 186 107 209 9 10 31 23 49 30 l34 12 0 752 0 752 -89 79
c-49 43 -87 81 -84 86 2 4 15 7 29 7 29 0 32 16 4 25 -32 10 -45 43 -26 64 28
31 18 46 -12 18 -34 -33 -42 -27 -42 30 0 24 -4 43 -10 43 -5 0 -10 -20 -10
-45z"/>
</g>
</svg>
