<?xml version="1.0" standalone="no"?>
<!DOCTYPE svg PUBLIC "-//W3C//DTD SVG 20010904//EN"
 "http://www.w3.org/TR/2001/REC-SVG-20010904/DTD/svg10.dtd">
<svg version="1.0" xmlns="http://www.w3.org/2000/svg"
 width="480.000000pt" height="360.000000pt" viewBox="0 0 480.000000 360.000000"
 preserveAspectRatio="xMidYMid meet">
<metadata>
Created by potrace 1.16, written by Peter Selinger 2001-2019
</metadata>
<rect width="1" height="360" fill="#000000"/>
<rect x="479" width="1" height="360" fill="#000000"/>
<rect width="480" height="1" fill="#000000"/>
<rect y="359" width="480" height="1" fill="#000000"/>
<g transform="translate(0.000000,360.000000) scale(0.100000,-0.100000)"
fill="#000000" stroke="none">
<path d="M0 1800 l0 -1800 765 0 765 0 0 1800 0 1800 -765 0 -765 0 0 -1800z"/>
<path d="M2148 3526 l4 -74 -63 -13 c-60 -13 -64 -16 -67 -44 -2 -17 -10 -44
-19 -61 -27 -52 -13 -92 111 -309 31 -55 70 -136 86 -180 17 -44 45 -110 62
-147 31 -66 31 -67 24 -178 -11 -171 11 -157 -238 -154 -115 2 -223 6 -239 9
-24 5 -31 3 -39 -17 -5 -13 -19 -34 -29 -48 -11 -14 -23 -38 -27 -54 -6 -25
-4 -28 10 -23 23 9 20 -16 -4 -31 -22 -13 -28 -56 -7 -50 6 3 27 24 45 49 18
24 37 50 44 58 9 11 48 13 220 7 115 -4 216 -10 224 -13 19 -7 18 -33 -2 -33
-9 0 -41 -7 -72 -16 -100 -29 -162 -114 -114 -157 26 -24 99 -54 164 -67 63
-12 59 -6 102 -162 19 -67 37 -88 76 -88 38 0 65 30 80 88 6 26 21 68 32 93
19 47 21 47 81 58 131 23 187 52 187 96 0 37 -123 149 -142 129 -7 -6 -58 17
-58 26 0 3 6 14 13 24 11 15 38 18 212 23 l200 6 38 -62 c38 -61 67 -79 67
-41 0 11 -9 25 -20 32 -24 15 -26 28 -4 28 17 0 13 24 -15 75 -9 17 -18 39
-21 49 -5 19 -16 19 -223 17 -216 -3 -217 -2 -217 19 0 12 -4 19 -9 16 -5 -4
-7 28 -4 76 4 56 3 79 -5 74 -6 -3 -13 -20 -17 -37 -7 -33 -17 -32 -22 3 -2
12 -12 32 -23 43 -28 30 -25 56 14 133 19 37 44 92 56 122 30 77 73 151 146
252 35 48 75 111 90 139 25 49 25 55 14 115 -15 80 -25 93 -80 105 -24 6 -59
19 -77 30 -31 20 -33 24 -33 80 l0 60 -37 -3 c-34 -3 -37 -6 -50 -50 -7 -27
-20 -48 -27 -48 -7 0 -37 10 -66 22 -51 21 -54 21 -100 5 -26 -9 -68 -17 -93
-17 -45 0 -45 0 -56 45 -11 43 -13 45 -49 45 l-37 0 3 -74z"/>
<path d="M3270 1800 l0 -1800 765 0 765 0 0 1800 0 1800 -765 0 -765 0 0
-1800z"/>
</g>
</svg>
