<?xml version="1.0" standalone="no"?>
<!DOCTYPE svg PUBLIC "-//W3C//DTD SVG 20010904//EN"
 "http://www.w3.org/TR/2001/REC-SVG-20010904/DTD/svg10.dtd">
<svg version="1.0" xmlns="http://www.w3.org/2000/svg"
 width="480.000000pt" height="360.000000pt" viewBox="0 0 480.000000 360.000000"
 preserveAspectRatio="xMidYMid meet">
<metadata>
Created by potrace 1.16, written by Peter Selinger 2001-2019
</metadata>
<rect width="1" height="360" fill="#000000"/>
<rect x="479" width="1" height="360" fill="#000000"/>
<rect width="480" height="1" fill="#000000"/>
<rect y="359" width="480" height="1" fill="#000000"/>
<g transform="translate(0.000000,360.000000) scale(0.100000,-0.100000)"
fill="#000000" stroke="none">
<path d="M0 1800 l0 -1800 1891 0 1892 0 71 57 c88 70 236 220 318 322 403
499 580 1180 472 1810 -89 517 -369 1012 -758 1339 -50 42 -82 65 -70 51 84
-97 137 -165 167 -211 48 -75 113 -233 144 -347 23 -85 26 -114 26 -261 0
-153 -2 -174 -32 -285 -53 -201 -163 -398 -296 -528 -383 -378 -972 -432
-1431 -132 -109 71 -208 117 -322 150 -336 95 -732 23 -1007 -184 -70 -53
-174 -163 -238 -251 -121 -167 -193 -366 -213 -590 -7 -86 9 -268 31 -356 32
-123 112 -305 163 -372 44 -57 15 -46 -50 19 -209 209 -388 495 -502 802 -205
549 -174 1201 83 1741 58 122 189 329 300 474 58 76 252 272 321 325 l35 27
-497 0 -498 0 0 -1800z m1868 -670 c111 -50 167 -136 165 -251 -3 -154 -111
-259 -266 -259 -100 1 -182 49 -235 139 -23 39 -27 57 -27 121 1 124 49 204
150 245 74 30 153 32 213 5z"/>
<path d="M2926 3023 c-69 -24 -148 -99 -176 -168 -29 -71 -25 -187 8 -251 44
-86 142 -154 243 -168 148 -21 302 105 325 266 10 78 -25 176 -85 236 -90 90
-207 122 -315 85z"/>
</g>
</svg>
