<?xml version="1.0" standalone="no"?>
<!DOCTYPE svg PUBLIC "-//W3C//DTD SVG 20010904//EN"
 "http://www.w3.org/TR/2001/REC-SVG-20010904/DTD/svg10.dtd">
<svg version="1.0" xmlns="http://www.w3.org/2000/svg"
 width="480.000000pt" height="360.000000pt" viewBox="0 0 480.000000 360.000000"
 preserveAspectRatio="xMidYMid meet">
<metadata>
Created by potrace 1.16, written by Peter Selinger 2001-2019
</metadata>
<rect width="1" height="360" fill="#000000"/>
<rect x="479" width="1" height="360" fill="#000000"/>
<rect width="480" height="1" fill="#000000"/>
<rect y="359" width="480" height="1" fill="#000000"/>
<g transform="translate(0.000000,360.000000) scale(0.100000,-0.100000)"
fill="#000000" stroke="none">
<path d="M1605 3423 c0 -247 -20 -351 -112 -568 -46 -107 -131 -239 -212 -328
-91 -101 -241 -222 -329 -266 -33 -17 -63 -35 -67 -41 -3 -5 -38 -19 -78 -31
-40 -12 -76 -25 -82 -29 -23 -18 -192 -52 -302 -61 -138 -11 -314 0 -406 27
-16 5 -17 -50 -17 -1060 l0 -1066 1439 0 1439 0 6 38 c3 20 8 73 11 117 12
151 27 240 71 419 26 105 57 270 75 400 17 121 41 273 54 336 17 90 21 128 15
175 -5 33 -9 83 -9 112 -1 35 -6 56 -17 65 -63 51 -74 67 -74 110 0 50 24 107
67 160 17 20 38 64 47 97 9 33 27 73 40 88 32 40 37 58 20 82 -14 20 -13 22
10 31 37 14 32 22 -7 15 -32 -6 -67 12 -67 34 0 4 -16 24 -35 44 -35 36 -35
37 -19 62 15 24 15 25 -7 34 -13 5 -32 10 -42 12 -18 4 -39 34 -52 74 -5 16
-8 17 -15 5 -19 -30 -10 28 15 99 l25 69 -29 44 c-16 24 -37 60 -47 80 -22 46
-8 68 44 68 52 0 272 -39 307 -55 16 -7 51 -16 76 -20 48 -6 112 -42 165 -92
39 -37 75 -113 110 -233 18 -63 38 -110 60 -139 36 -47 54 -96 79 -220 10 -46
29 -97 49 -131 69 -113 96 -188 107 -295 14 -128 28 -205 39 -205 11 0 49 -83
71 -155 20 -64 25 -155 10 -170 -12 -13 -16 -63 -8 -100 4 -16 3 -43 -2 -60
-5 -16 -10 -24 -10 -17 -2 26 -20 10 -27 -23 -10 -55 -20 -50 -33 15 -7 33
-16 60 -21 60 -4 0 -12 15 -16 33 -8 31 -8 30 -19 -28 -11 -60 -11 -60 -26
-33 -16 30 -28 36 -40 17 -5 -9 -10 -4 -14 17 -16 70 -35 134 -60 199 -15 39
-31 87 -36 108 -5 21 -30 79 -55 129 -44 87 -99 232 -124 328 -11 41 -13 43
-26 26 -9 -13 -12 -32 -7 -58 5 -33 2 -43 -20 -66 -18 -19 -23 -32 -17 -41 5
-10 3 -22 -6 -35 -18 -26 -17 -79 1 -131 8 -22 15 -52 15 -68 0 -17 19 -53 49
-95 76 -105 105 -165 166 -342 70 -201 131 -332 263 -560 94 -165 163 -305
191 -392 l13 -38 319 0 319 0 0 1800 0 1800 -1598 0 -1598 0 1 -177z"/>
<path d="M3410 2186 c0 -2 8 -10 18 -17 15 -13 16 -12 3 4 -13 16 -21 21 -21
13z"/>
<path d="M3480 1868 c0 -13 5 -30 10 -38 7 -11 10 -5 10 23 0 20 -4 37 -10 37
-5 0 -10 -10 -10 -22z"/>
</g>
</svg>
