<?xml version="1.0" standalone="no"?>
<!DOCTYPE svg PUBLIC "-//W3C//DTD SVG 20010904//EN"
 "http://www.w3.org/TR/2001/REC-SVG-20010904/DTD/svg10.dtd">
<svg version="1.0" xmlns="http://www.w3.org/2000/svg"
 width="480.000000pt" height="360.000000pt" viewBox="0 0 480.000000 360.000000"
 preserveAspectRatio="xMidYMid meet">
<metadata>
Created by potrace 1.16, written by Peter Selinger 2001-2019
</metadata>
<rect width="1" height="360" fill="#000000"/>
<rect x="479" width="1" height="360" fill="#000000"/>
<rect width="480" height="1" fill="#000000"/>
<rect y="359" width="480" height="1" fill="#000000"/>
<g transform="translate(0.000000,360.000000) scale(0.100000,-0.100000)"
fill="#000000" stroke="none">
<path d="M0 2235 c0 -751 2 -1365 4 -1365 9 0 173 114 206 144 20 18 60 41 88
50 75 25 326 194 363 244 31 43 77 75 119 85 14 4 47 25 74 47 27 22 54 44 60
48 7 4 32 32 56 62 25 30 73 88 107 129 35 41 63 77 63 81 0 6 26 19 105 50
17 7 62 50 105 102 127 153 152 183 164 190 6 4 30 8 54 8 28 0 53 7 71 21
l28 21 49 -35 c27 -19 85 -57 129 -84 44 -26 111 -70 148 -97 37 -27 69 -47
71 -45 2 2 11 20 21 39 10 19 39 68 66 107 26 41 43 76 37 79 -5 3 -7 13 -4
21 4 9 0 13 -12 12 -9 -2 -32 1 -51 5 -24 6 -36 4 -42 -5 -6 -10 -11 -5 -20
19 -6 17 -14 32 -17 32 -4 0 -17 -15 -30 -33 l-22 -32 5 30 c4 17 2 41 -3 55
-9 25 -9 24 -30 -16 -37 -73 -49 -73 -48 4 1 63 -28 172 -42 158 -3 -4 -16 1
-30 10 -13 8 -29 13 -36 11 -7 -3 -34 15 -59 39 -26 24 -53 44 -62 44 -8 0
-14 3 -13 8 0 4 -2 15 -7 25 -7 17 -12 14 -46 -19 l-38 -37 -27 27 c-19 18
-31 23 -38 16 -18 -18 -54 -11 -75 16 -32 40 -27 62 14 70 27 5 52 24 106 82
39 41 80 94 91 116 19 37 19 46 9 125 -17 127 8 241 68 309 29 34 123 87 178
102 26 6 84 24 128 39 70 23 95 26 200 25 161 -2 265 -28 346 -86 13 -9 26 -6
63 11 l46 23 35 -22 c56 -34 132 -135 185 -245 103 -215 87 -271 -85 -291 -30
-4 -55 -11 -55 -16 0 -14 80 -97 101 -103 32 -10 23 -44 -15 -60 -19 -8 -41
-13 -48 -10 -7 2 -21 -7 -32 -21 -18 -25 -18 -26 5 -50 l22 -24 -21 0 c-24 0
-27 -11 -11 -42 15 -28 4 -34 -26 -14 -23 15 -25 15 -25 -1 1 -10 7 -36 15
-58 16 -45 12 -54 -15 -37 -28 17 -32 15 -20 -9 14 -26 7 -35 -10 -14 -16 19
-36 19 -44 -1 -3 -9 -6 -48 -6 -87 0 -68 -14 -85 -22 -27 -2 14 -12 -18 -22
-72 -14 -79 -16 -107 -7 -148 6 -28 11 -62 11 -76 0 -39 40 -124 59 -124 21 0
82 37 102 62 14 18 21 19 80 10 80 -12 149 -1 201 33 21 14 73 60 116 103 85
84 276 232 300 232 9 0 24 -8 34 -17 13 -11 32 -16 55 -14 34 3 43 -4 142
-102 196 -194 393 -321 716 -463 143 -62 385 -164 391 -164 2 0 4 484 4 1075
l0 1075 -2400 0 -2400 0 0 -1365z"/>
<path d="M1856 2395 c4 -8 8 -15 10 -15 2 0 4 7 4 15 0 8 -4 15 -10 15 -5 0
-7 -7 -4 -15z"/>
<path d="M3471 2056 c-11 -13 -9 -17 13 -27 34 -16 45 -4 20 22 -18 18 -22 18
-33 5z"/>
<path d="M3219 1933 l-24 -26 27 19 c15 10 28 22 28 27 0 12 -5 8 -31 -20z"/>
<path d="M3261 1941 c-1 -13 -12 -39 -26 -57 -14 -18 -25 -37 -25 -43 0 -5 21
-17 48 -27 26 -10 52 -21 57 -25 19 -14 208 -299 202 -305 -3 -3 -59 17 -124
44 -111 48 -277 112 -290 112 -3 0 -1 -6 4 -12 9 -13 45 -100 97 -240 14 -38
21 -68 15 -68 -5 0 -68 40 -140 90 -144 100 -168 114 -176 106 -3 -3 0 -91 7
-196 7 -104 11 -192 8 -195 -13 -14 -43 13 -85 77 -25 38 -47 67 -49 65 -3 -2
10 -35 27 -73 17 -38 38 -91 46 -119 17 -55 14 -99 -33 -404 l-23 -154 26 -56
c14 -32 30 -91 36 -136 10 -83 19 -106 95 -243 l46 -82 898 0 898 0 0 599 c0
561 -1 599 -17 606 -49 19 -188 66 -265 89 -69 22 -91 33 -111 59 -24 32 -65
47 -225 87 -38 10 -48 19 -80 69 l-37 59 -90 21 c-49 12 -100 24 -112 26 -29
7 -83 82 -83 117 0 20 -6 29 -22 33 -13 3 -108 23 -213 44 l-190 39 -37 44
c-21 23 -38 39 -39 33 -1 -5 -5 1 -9 15 l-8 25 -1 -24z"/>
<path d="M1613 1928 c-32 -36 -77 -108 -70 -114 3 -3 16 1 28 9 12 9 55 24 96
33 40 10 73 20 73 23 -1 6 -93 71 -101 71 -3 0 -15 -10 -26 -22z"/>
<path d="M3020 1773 c-41 -8 -44 -20 -9 -38 19 -10 43 -25 53 -34 18 -15 19
-15 12 9 -4 14 -10 35 -13 48 -3 12 -8 21 -12 21 -3 -1 -17 -4 -31 -6z"/>
<path d="M1950 1736 c0 -23 -78 -139 -109 -163 -9 -6 -79 -28 -156 -49 -77
-20 -205 -59 -284 -86 -86 -30 -147 -46 -152 -41 -6 6 -1 21 13 38 l22 28 -32
-6 c-18 -4 -57 -25 -87 -48 -46 -35 -53 -44 -45 -60 24 -44 -86 -246 -150
-273 -26 -12 -281 -46 -339 -46 -3 0 -6 -21 -6 -47 0 -35 -11 -68 -39 -123
-68 -134 -73 -137 -289 -146 -181 -8 -174 -5 -169 -64 3 -40 -74 -164 -109
-175 -18 -6 -19 -19 -19 -241 l0 -234 740 0 c407 0 740 3 740 6 0 3 -12 21
-27 40 l-26 35 17 74 c21 89 63 158 165 270 103 113 142 148 256 227 l100 69
12 102 c6 56 12 119 12 140 1 38 0 38 -29 32 -21 -5 -30 -3 -30 6 0 6 14 34
30 61 31 50 34 67 23 131 -7 47 -1 49 -203 -38 -83 -36 -156 -65 -161 -65 -24
0 -2 41 72 139 44 58 115 151 156 207 47 62 89 108 112 120 34 18 37 23 50 97
14 74 14 78 -5 92 -30 23 -54 19 -54 -9z"/>
<path d="M2800 1710 c-12 -7 -12 -12 -2 -22 10 -10 15 -10 22 2 12 18 13 30 3
30 -5 0 -15 -5 -23 -10z"/>
<path d="M4720 1408 c0 -3 18 -24 40 -48 l40 -43 0 41 c0 33 -4 42 -17 42 -10
0 -28 3 -40 6 -13 4 -23 4 -23 2z"/>
<path d="M2546 1125 c8 -78 12 -98 25 -130 l12 -30 7 25 c5 14 8 45 9 70 1 37
-5 52 -29 80 l-29 35 5 -50z"/>
<path d="M1880 405 c-62 -21 -66 -24 -100 -85 -23 -40 -53 -75 -84 -98 -41
-30 -47 -38 -41 -61 9 -35 25 -51 25 -25 0 24 25 62 35 52 4 -3 11 -24 16 -45
8 -36 7 -40 -29 -72 l-37 -33 33 16 c28 14 33 15 38 2 3 -8 1 -24 -6 -35 -10
-21 -9 -21 78 -21 l89 0 32 193 c17 106 34 202 37 215 8 27 1 27 -86 -3z"/>
</g>
</svg>
