<?xml version="1.0" standalone="no"?>
<!DOCTYPE svg PUBLIC "-//W3C//DTD SVG 20010904//EN"
 "http://www.w3.org/TR/2001/REC-SVG-20010904/DTD/svg10.dtd">
<svg version="1.0" xmlns="http://www.w3.org/2000/svg"
 width="480.000000pt" height="360.000000pt" viewBox="0 0 480.000000 360.000000"
 preserveAspectRatio="xMidYMid meet">
<metadata>
Created by potrace 1.16, written by Peter Selinger 2001-2019
</metadata>
<rect width="1" height="360" fill="#000000"/>
<rect x="479" width="1" height="360" fill="#000000"/>
<rect width="480" height="1" fill="#000000"/>
<rect y="359" width="480" height="1" fill="#000000"/>
<g transform="translate(0.000000,360.000000) scale(0.100000,-0.100000)"
fill="#000000" stroke="none">
<path d="M3128 3461 c-64 -31 -99 -148 -78 -268 19 -112 23 -103 -55 -125
-234 -64 -431 -239 -476 -424 -14 -59 -44 -121 -73 -153 l-21 -24 32 17 33 16
-10 -26 c-9 -22 -8 -25 5 -20 12 4 15 -2 14 -27 0 -18 -4 -41 -8 -52 -9 -23
-3 -47 10 -39 9 5 12 -1 25 -51 l7 -30 7 25 c8 23 8 24 9 3 1 -21 36 -50 54
-45 5 1 11 -5 13 -15 3 -10 19 -28 37 -41 l32 -22 5 27 c5 24 7 25 13 9 12
-30 -10 -89 -47 -125 -39 -38 -38 -52 9 -80 23 -13 35 -29 40 -53 4 -18 22
-51 40 -73 17 -22 41 -61 53 -88 17 -39 27 -48 53 -54 l32 -6 -6 -63 c-5 -47
-3 -63 7 -67 10 -4 16 -39 21 -119 l7 -115 -46 -88 c-25 -49 -46 -95 -46 -103
0 -7 -8 -27 -17 -43 -15 -26 -20 -28 -60 -22 -31 4 -50 1 -69 -12 -27 -17 -27
-18 -20 -109 l6 -91 -41 -50 c-23 -28 -55 -69 -71 -92 l-30 -41 -38 13 c-60
21 -421 90 -523 99 -19 2 -37 16 -57 42 -26 34 -29 48 -30 105 0 86 -24 162
-64 206 -27 29 -41 36 -82 40 -27 3 -74 0 -104 -5 -30 -6 -57 -9 -58 -7 -2 2
-6 22 -9 44 -8 57 -21 51 -25 -11 l-3 -51 -60 -21 c-93 -32 -122 -52 -133 -88
-31 -99 -36 -138 -25 -186 7 -26 14 -67 18 -92 7 -54 25 -87 89 -157 55 -61
110 -85 254 -110 53 -9 98 -17 99 -18 2 -1 -6 -44 -17 -96 -11 -52 -27 -150
-35 -219 -9 -69 -20 -138 -25 -154 -6 -16 -10 -31 -10 -32 0 -2 551 -4 1225
-4 674 0 1225 2 1225 5 0 11 -43 92 -92 172 -54 88 -67 130 -68 209 l0 51 63
18 c73 20 128 51 121 68 -2 7 7 24 21 37 35 33 32 40 -19 40 -31 0 -71 -13
-137 -44 -51 -25 -96 -43 -100 -40 -8 5 -18 60 -23 129 -4 62 -23 210 -36 290
-6 37 -6 61 0 63 5 2 5 13 -1 28 -15 40 -9 63 7 26 25 -58 36 -28 28 79 -3 54
-4 99 -1 99 3 0 15 -29 27 -65 33 -99 43 -93 35 21 -4 70 -3 95 4 84 6 -8 11
-34 11 -57 0 -23 5 -45 10 -48 6 -4 10 10 10 35 0 38 2 40 20 30 11 -6 34 -31
52 -55 18 -24 36 -44 39 -45 18 -1 15 34 -8 96 -13 38 -33 107 -43 154 -20 90
-36 254 -21 210 27 -80 184 -350 197 -338 2 3 -10 42 -27 88 -21 58 -25 79
-14 70 21 -17 20 -3 -6 71 -28 84 -21 106 16 49 15 -25 44 -65 63 -90 39 -50
39 -56 -1 100 -13 52 -36 181 -51 285 -60 431 -93 580 -172 791 -20 55 -42
131 -49 169 -14 79 -58 174 -116 252 -57 76 -125 106 -232 102 l-82 -4 -37 55
c-21 29 -66 87 -101 128 -34 41 -74 91 -88 111 -26 34 -30 36 -100 41 -50 3
-81 1 -101 -9z m712 -2303 c0 -7 3 -24 6 -38 5 -17 4 -22 -4 -15 -16 15 -26
65 -13 65 6 0 11 -6 11 -12z m-129 -125 c5 -21 12 -67 15 -103 3 -36 10 -73
15 -82 11 -21 11 -28 0 -28 -13 0 -38 105 -46 190 -7 78 0 89 16 23z"/>
</g>
</svg>
