<?xml version="1.0" standalone="no"?>
<!DOCTYPE svg PUBLIC "-//W3C//DTD SVG 20010904//EN"
 "http://www.w3.org/TR/2001/REC-SVG-20010904/DTD/svg10.dtd">
<svg version="1.0" xmlns="http://www.w3.org/2000/svg"
 width="480.000000pt" height="360.000000pt" viewBox="0 0 480.000000 360.000000"
 preserveAspectRatio="xMidYMid meet">
<metadata>
Created by potrace 1.16, written by Peter Selinger 2001-2019
</metadata>
<rect width="1" height="360" fill="#000000"/>
<rect x="479" width="1" height="360" fill="#000000"/>
<rect width="480" height="1" fill="#000000"/>
<rect y="359" width="480" height="1" fill="#000000"/>
<g transform="translate(0.000000,360.000000) scale(0.100000,-0.100000)"
fill="#000000" stroke="none">
<path d="M0 1800 l0 -1800 2400 0 2400 0 0 1800 0 1800 -2400 0 -2400 0 0
-1800z m2675 1033 c-4 -10 -11 -31 -16 -48 -7 -25 -6 -27 4 -13 7 9 20 31 31
50 26 45 32 19 7 -31 -24 -50 -14 -53 17 -6 12 19 26 35 31 35 13 0 2 -37 -15
-51 -8 -6 -14 -16 -14 -22 0 -6 10 -1 23 10 12 11 28 24 36 28 16 9 12 0 -21
-47 -33 -48 -18 -54 23 -9 36 40 46 30 11 -12 -19 -21 -8 -35 13 -17 8 7 15 9
15 6 0 -10 -63 -89 -78 -99 -7 -5 -10 -17 -7 -28 4 -13 2 -19 -8 -19 -17 0
-27 -21 -27 -56 0 -14 -6 -24 -14 -24 -13 0 -46 -71 -46 -99 0 -8 -8 -28 -19
-45 -10 -17 -24 -54 -30 -82 -12 -49 -11 -53 24 -120 31 -60 38 -86 51 -194
12 -98 12 -134 3 -167 -10 -37 -9 -46 9 -75 11 -18 32 -64 47 -103 24 -64 25
-71 9 -80 -9 -5 -29 -20 -43 -31 -33 -27 -75 -35 -78 -14 -1 8 -5 36 -8 62
l-6 48 -51 -50 c-28 -28 -54 -50 -58 -50 -8 0 -25 -40 -34 -83 -11 -46 6 -297
20 -311 8 -8 9 -18 3 -27 -15 -24 -10 -45 14 -56 19 -9 20 -12 5 -18 -15 -6
-14 -10 4 -53 12 -26 29 -58 39 -71 27 -35 23 -48 -6 -21 -28 26 -32 18 -10
-20 24 -42 16 -47 -17 -10 -17 19 -28 27 -24 17 24 -70 13 -92 -17 -34 -16 30
-17 30 -12 5 9 -46 -12 -41 -31 7 -22 60 -39 70 -30 19 l6 -39 -20 38 c-24 44
-44 41 -28 -4 6 -16 8 -33 4 -36 -3 -3 -11 15 -18 41 -7 25 -18 46 -25 46 -7
0 -13 7 -13 15 0 8 -5 15 -11 15 -7 0 -9 10 -4 28 15 55 17 81 21 273 l5 197
-84 3 c-76 4 -87 7 -132 39 -30 22 -57 52 -71 80 -28 58 -71 249 -90 405 -19
157 287 402 456 364 24 -5 48 -8 53 -6 12 4 87 216 91 257 1 14 8 38 15 54 14
35 17 88 6 139 -9 42 9 53 19 12 10 -40 25 -29 57 40 16 36 34 65 40 65 7 0 8
-7 4 -17z"/>
<path d="M2330 1030 c0 -5 5 -10 10 -10 6 0 10 5 10 10 0 6 -4 10 -10 10 -5 0
-10 -4 -10 -10z"/>
</g>
</svg>
