<?xml version="1.0" standalone="no"?>
<!DOCTYPE svg PUBLIC "-//W3C//DTD SVG 20010904//EN"
 "http://www.w3.org/TR/2001/REC-SVG-20010904/DTD/svg10.dtd">
<svg version="1.0" xmlns="http://www.w3.org/2000/svg"
 width="480.000000pt" height="360.000000pt" viewBox="0 0 480.000000 360.000000"
 preserveAspectRatio="xMidYMid meet">
<metadata>
Created by potrace 1.16, written by Peter Selinger 2001-2019
</metadata>
<rect width="1" height="360" fill="#000000"/>
<rect x="479" width="1" height="360" fill="#000000"/>
<rect width="480" height="1" fill="#000000"/>
<rect y="359" width="480" height="1" fill="#000000"/>
<g transform="translate(0.000000,360.000000) scale(0.100000,-0.100000)"
fill="#000000" stroke="none">
<path d="M0 1800 l0 -1800 1011 0 c959 0 1011 1 1004 18 -40 93 -39 87 -43
492 -3 376 -4 395 -23 408 -17 12 -19 26 -19 120 0 166 18 369 39 452 10 41
17 77 15 79 -1 2 -37 -11 -79 -28 -42 -18 -98 -35 -124 -38 -43 -5 -51 -2 -84
27 -25 22 -37 40 -37 59 0 14 34 95 75 179 64 132 73 156 62 173 -6 10 -20 19
-29 19 -28 0 -21 17 10 23 15 3 48 24 72 46 l45 41 -31 28 c-17 15 -75 67
-129 115 l-98 88 -21 -20 -22 -20 -27 25 c-15 13 -28 30 -29 37 0 7 -2 23 -3
37 -5 61 -67 130 -118 130 -50 0 -57 52 -10 78 14 9 13 15 -13 58 -44 73 -67
130 -60 151 3 10 37 49 75 87 l70 69 43 -12 c24 -7 49 -18 56 -23 19 -16 14
-67 -9 -104 l-21 -34 21 -43 c12 -24 21 -49 21 -56 0 -8 8 -11 20 -8 26 7 33
-6 15 -29 -34 -45 -15 -61 98 -84 60 -12 65 -18 45 -50 -7 -10 -10 -21 -8 -23
3 -2 61 -46 130 -97 69 -50 141 -107 160 -125 34 -33 165 -89 182 -79 4 3 8
15 8 27 0 12 7 51 14 87 15 68 13 81 -6 62 -16 -16 -29 -15 -27 1 3 17 -12 67
-20 67 -3 0 -7 30 -8 66 -2 55 3 77 24 121 25 51 52 76 128 119 21 12 25 41
11 81 -15 46 61 81 114 53 15 -8 21 -4 34 24 9 19 16 38 16 43 0 21 23 32 44
21 35 -18 66 -50 66 -70 0 -22 18 -23 44 -3 29 22 44 18 51 -14 7 -31 26 -41
82 -41 49 0 86 -54 91 -133 3 -62 31 -131 60 -153 16 -11 19 -25 28 -135 5
-59 2 -76 -32 -165 -53 -143 -54 -148 -40 -204 14 -54 14 -55 -14 -40 -15 8
-22 5 -34 -12 -9 -12 -16 -30 -16 -40 0 -9 -4 -19 -10 -23 -5 -3 -7 15 -4 47
l4 53 -27 -79 c-17 -52 -29 -74 -32 -62 -4 9 -19 23 -34 31 -30 15 -30 16 -42
-39 -6 -27 -7 -27 -20 -10 -17 22 -16 25 -19 -86 -3 -99 -21 -154 -120 -367
-36 -79 -68 -154 -72 -167 -7 -28 28 -86 50 -86 7 0 24 -8 37 -19 13 -10 56
-35 94 -56 105 -55 133 -80 146 -127 6 -23 24 -67 41 -97 35 -66 33 -110 -6
-197 l-24 -53 37 -108 c21 -59 66 -192 101 -295 l63 -188 894 0 893 0 0 1800
0 1800 -2400 0 -2400 0 0 -1800z"/>
<path d="M2231 2394 c0 -11 3 -14 6 -6 3 7 2 16 -1 19 -3 4 -6 -2 -5 -13z"/>
<path d="M2027 1983 c-4 -3 -7 -15 -7 -25 0 -19 28 -23 64 -9 17 7 16 8 -7 24
-28 18 -40 21 -50 10z"/>
<path d="M2751 1943 c-1 -18 4 -33 9 -33 12 0 12 17 0 45 -7 17 -9 15 -9 -12z"/>
<path d="M2504 961 c20 -22 26 -25 26 -13 0 4 -10 13 -22 21 -23 14 -23 14 -4
-8z"/>
</g>
</svg>
