<?xml version="1.0" standalone="no"?>
<!DOCTYPE svg PUBLIC "-//W3C//DTD SVG 20010904//EN"
 "http://www.w3.org/TR/2001/REC-SVG-20010904/DTD/svg10.dtd">
<svg version="1.0" xmlns="http://www.w3.org/2000/svg"
 width="480.000000pt" height="360.000000pt" viewBox="0 0 480.000000 360.000000"
 preserveAspectRatio="xMidYMid meet">
<metadata>
Created by potrace 1.16, written by Peter Selinger 2001-2019
</metadata>
<rect width="1" height="360" fill="#000000"/>
<rect x="479" width="1" height="360" fill="#000000"/>
<rect width="480" height="1" fill="#000000"/>
<rect y="359" width="480" height="1" fill="#000000"/>
<g transform="translate(0.000000,360.000000) scale(0.100000,-0.100000)"
fill="#000000" stroke="none">
<path d="M0 1800 l0 -1800 2091 0 2091 0 -6 23 c-12 48 49 148 213 351 53 65
113 140 135 167 l38 48 -21 27 c-24 31 -20 41 26 60 27 12 33 19 28 34 -7 21
21 44 68 55 21 6 25 10 17 20 -10 12 -4 45 9 45 3 0 16 8 29 18 21 16 22 21
11 45 -15 34 -2 51 39 52 l27 0 3 249 2 249 -103 -7 c-57 -4 -116 -4 -132 0
l-27 7 31 13 c17 7 31 18 31 23 0 23 -78 30 -278 24 -141 -4 -308 0 -522 11
-173 10 -392 16 -486 14 l-171 -3 -41 -37 c-23 -21 -79 -62 -124 -91 -46 -30
-92 -64 -102 -75 -11 -13 -31 -22 -47 -22 -15 0 -34 -8 -41 -18 -7 -10 -18
-21 -25 -25 -23 -14 -110 -26 -151 -20 -38 5 -44 9 -49 35 -7 35 -7 35 -70 39
l-52 4 -458 -640 c-321 -448 -465 -641 -479 -643 -23 -3 -149 77 -217 139 -36
32 -40 40 -30 56 10 16 1 28 -65 95 -60 61 -74 80 -64 90 7 7 12 15 12 19 0 4
-27 40 -60 81 -62 76 -66 83 -51 107 7 10 1 27 -18 55 -62 92 -84 136 -72 150
8 10 1 34 -30 100 -26 56 -39 96 -35 109 3 12 -8 63 -24 114 -16 51 -27 99
-24 107 3 9 -1 59 -10 113 -25 146 -14 537 18 658 9 32 16 75 16 95 0 20 13
72 29 117 17 44 28 89 25 99 -3 11 14 57 40 109 28 55 42 93 36 99 -11 11 5
44 60 123 30 42 39 64 35 83 -4 20 7 39 60 99 52 60 63 77 55 92 -9 15 1 29
57 83 88 84 165 146 179 146 14 0 199 -220 603 -715 100 -123 235 -286 276
-335 22 -26 75 -90 119 -143 l78 -97 42 6 c59 8 144 33 151 43 8 14 65 41 84
41 9 0 27 -7 39 -16 19 -13 37 -15 95 -9 40 5 205 9 367 10 208 1 361 8 520
23 429 40 519 44 625 27 89 -14 206 -20 177 -8 -19 7 -4 23 23 23 13 0 27 5
30 10 3 5 21 10 38 10 18 0 49 3 70 6 l38 7 -36 24 c-43 29 -44 34 -3 22 18
-5 34 -9 35 -9 2 0 3 141 3 314 0 299 -1 314 -19 327 -15 10 -23 34 -30 90 -7
54 -21 96 -45 142 l-36 66 35 27 c39 30 81 99 91 150 5 26 2 40 -12 55 -10 11
-19 37 -20 59 -1 21 -11 52 -23 68 -12 17 -21 36 -21 42 0 8 -11 10 -34 6 -29
-6 -37 -3 -55 20 -28 36 -26 50 7 62 28 10 27 11 -24 27 -12 4 -14 12 -10 30
l6 25 -2305 0 -2305 0 0 -1800z"/>
<path d="M4760 3585 c0 -17 2 -18 24 -9 23 9 20 24 -4 24 -11 0 -20 -7 -20
-15z"/>
<path d="M4781 3480 c-13 -7 -13 -13 -1 -37 13 -27 14 -27 18 -5 6 36 -1 53
-17 42z"/>
<path d="M4766 225 c-16 -21 -69 -79 -117 -129 l-87 -91 115 -3 c64 -1 117 -1
120 1 2 2 2 62 1 132 l-3 129 -29 -39z"/>
</g>
</svg>
