<?xml version="1.0" standalone="no"?>
<!DOCTYPE svg PUBLIC "-//W3C//DTD SVG 20010904//EN"
 "http://www.w3.org/TR/2001/REC-SVG-20010904/DTD/svg10.dtd">
<svg version="1.0" xmlns="http://www.w3.org/2000/svg"
 width="480.000000pt" height="360.000000pt" viewBox="0 0 480.000000 360.000000"
 preserveAspectRatio="xMidYMid meet">
<metadata>
Created by potrace 1.16, written by Peter Selinger 2001-2019
</metadata>
<rect width="1" height="360" fill="#000000"/>
<rect x="479" width="1" height="360" fill="#000000"/>
<rect width="480" height="1" fill="#000000"/>
<rect y="359" width="480" height="1" fill="#000000"/>
<g transform="translate(0.000000,360.000000) scale(0.100000,-0.100000)"
fill="#000000" stroke="none">
<path d="M2591 3256 c-1 -13 -6 -17 -22 -13 -16 4 -18 3 -9 -8 9 -10 6 -15
-11 -20 l-22 -7 20 -12 c20 -10 18 -14 -38 -74 -38 -40 -70 -65 -89 -69 l-30
-6 23 -31 c18 -23 26 -50 31 -106 8 -84 12 -115 21 -146 5 -17 -3 -24 -54 -46
-64 -28 -71 -37 -46 -58 9 -8 15 -30 15 -59 0 -26 5 -52 11 -58 8 -8 8 -34 -1
-97 -9 -68 -10 -93 0 -116 9 -23 9 -37 -1 -67 -16 -47 -15 -193 1 -429 9 -139
10 -190 1 -217 -10 -28 -9 -48 3 -101 11 -44 13 -74 7 -90 -6 -15 -6 -27 0
-33 7 -7 6 -37 -2 -90 -9 -61 -9 -88 -1 -113 7 -18 12 -48 12 -67 0 -18 5 -42
11 -52 9 -14 9 -25 -3 -49 -15 -29 -15 -32 8 -53 13 -12 24 -30 24 -40 0 -20
49 -64 82 -75 13 -4 36 -17 51 -30 15 -13 44 -26 65 -30 40 -7 112 -48 112
-64 0 -6 -8 -22 -17 -36 -14 -22 -14 -27 -2 -35 32 -20 139 -4 139 21 0 6 -16
18 -35 26 -31 13 -75 64 -75 87 0 4 11 7 25 7 28 0 31 11 13 40 -10 16 -8 25
14 56 20 28 25 42 17 55 -5 10 -9 26 -9 37 0 23 -40 62 -64 62 -15 0 -16 3 -6
15 7 8 17 15 23 15 31 0 131 46 144 67 22 33 4 69 -42 88 -38 16 -54 55 -54
130 0 94 -20 253 -35 288 -18 41 -15 57 12 57 9 0 40 13 67 28 48 26 50 29 53
74 5 70 -33 148 -127 264 -5 6 -35 56 -66 110 -31 55 -66 109 -77 121 -20 21
-20 24 -4 57 9 19 16 39 16 45 0 16 6 14 66 -24 30 -19 60 -35 68 -35 7 0 32
20 55 45 57 62 55 87 -10 150 -50 48 -51 50 -46 95 7 57 1 68 -42 72 -19 2
-36 8 -38 14 -5 15 26 46 38 39 17 -11 14 67 -6 152 -14 56 -13 59 10 92 27
38 24 55 -9 47 -16 -4 -33 8 -75 56 -46 51 -53 63 -43 78 9 15 8 19 -5 24 -12
5 -14 9 -5 18 7 7 12 16 12 22 0 6 -5 5 -12 -2 -17 -17 -26 -15 -31 6 -4 15
-5 15 -6 -2z m108 -1633 c41 -150 51 -200 46 -221 -3 -14 0 -34 9 -47 14 -21
14 -28 1 -58 l-15 -35 -114 -1 -115 -1 -11 41 c-16 58 -19 152 -8 243 13 114
12 113 112 115 l85 2 10 -38z"/>
<path d="M4156 3145 c5 -43 3 -59 -9 -73 -8 -9 -34 -48 -56 -87 -23 -38 -45
-71 -49 -71 -23 -5 -52 -17 -52 -23 0 -4 13 -20 29 -35 27 -26 28 -33 34 -134
5 -110 13 -146 28 -136 5 3 9 -2 9 -10 0 -9 -12 -18 -27 -22 -16 -3 -33 -7
-39 -9 -6 -2 -14 -20 -17 -40 -6 -38 -1 -53 49 -145 31 -58 31 -100 -3 -151
-25 -37 -25 -42 -10 -50 23 -14 22 -18 -22 -77 -22 -28 -47 -75 -57 -104 -24
-75 -76 -183 -123 -255 -22 -34 -43 -77 -46 -96 -6 -31 -3 -36 41 -73 29 -24
66 -43 94 -49 l45 -10 3 -53 c3 -49 0 -57 -31 -91 -19 -21 -42 -60 -52 -87
-10 -27 -29 -63 -42 -81 -12 -17 -23 -39 -23 -48 0 -8 -8 -28 -17 -42 -14 -21
-17 -45 -15 -107 1 -45 3 -89 5 -98 5 -25 36 -57 87 -86 107 -62 115 -70 116
-115 1 -23 7 -60 13 -82 14 -44 14 -53 5 -105 -7 -41 5 -50 86 -69 133 -31
170 -41 224 -66 48 -21 64 -24 83 -16 13 6 23 19 23 28 -1 14 -24 26 -98 50
-53 18 -118 36 -144 39 -57 8 -73 23 -55 49 11 14 17 15 35 6 11 -6 35 -11 53
-11 40 0 191 -26 239 -41 19 -6 66 -26 104 -45 38 -19 83 -34 100 -34 42 0
108 19 101 29 -2 5 2 14 10 21 8 7 15 21 15 31 0 23 -66 72 -128 95 -26 10
-54 23 -63 31 -8 7 -22 13 -31 13 -15 0 -194 93 -212 110 -4 5 3 23 17 42 39
50 43 81 17 123 -28 46 -92 83 -160 92 -46 7 -55 12 -62 35 -8 22 -5 34 12 58
15 20 20 40 17 57 -3 16 6 50 24 90 20 45 33 95 40 161 6 54 16 102 21 109 5
7 29 21 52 33 24 11 53 31 66 45 24 25 24 26 11 128 -7 56 -17 122 -22 147
-32 162 -43 208 -56 235 -14 30 -14 34 15 81 47 77 74 154 68 194 -13 89 -14
85 23 82 18 -2 74 -24 123 -49 92 -46 101 -48 181 -45 l47 2 0 81 0 80 -34 14
c-19 8 -54 17 -78 21 -23 4 -47 10 -53 14 -5 5 -27 11 -48 15 -20 4 -40 11
-43 17 -6 9 66 97 173 210 44 46 61 71 57 82 -9 23 -13 20 -69 -44 -100 -116
-171 -195 -194 -218 l-23 -23 -22 20 c-16 15 -36 21 -69 21 -26 0 -47 5 -47
11 0 25 23 99 31 99 5 0 9 6 9 14 0 8 6 16 14 19 22 9 30 74 11 99 -20 29 -19
56 3 99 l18 35 -48 0 c-28 0 -54 6 -65 16 -10 8 -44 29 -75 47 -46 26 -58 38
-63 64 -11 54 -16 67 -26 67 -5 0 -7 -23 -3 -55z m4 -1724 c0 -31 -5 -72 -10
-91 -6 -19 -15 -66 -20 -105 -6 -38 -15 -74 -20 -79 -6 -6 -10 -25 -10 -44 0
-19 -10 -56 -22 -83 -19 -40 -28 -49 -48 -49 -14 0 -41 -3 -61 -6 -34 -6 -36
-5 -47 34 -17 55 -15 80 8 109 11 14 20 33 20 43 0 9 27 50 61 91 64 77 98
139 99 176 0 39 18 73 35 67 11 -5 15 -21 15 -63z"/>
<path d="M1084 3135 c-4 -8 -12 -15 -20 -15 -10 0 -12 -12 -8 -47 6 -48 5 -48
-53 -105 -49 -47 -63 -55 -86 -51 -31 6 -47 -19 -29 -46 36 -50 43 -73 33
-101 -14 -40 -5 -62 34 -87 20 -13 37 -35 41 -50 4 -16 15 -38 26 -50 20 -21
20 -21 -4 -34 -42 -23 -47 -38 -42 -129 7 -114 0 -129 -79 -168 -35 -18 -70
-32 -76 -32 -6 0 -11 -4 -11 -10 0 -17 -41 -32 -113 -41 -39 -5 -78 -16 -88
-25 -16 -14 -21 -14 -59 6 -23 12 -49 34 -58 50 -9 16 -25 31 -35 34 -17 4
-225 -35 -347 -66 -61 -16 -72 -35 -50 -87 12 -29 20 -35 190 -123 58 -31 243
-128 411 -217 169 -88 316 -161 328 -161 12 0 31 -5 42 -10 17 -9 18 -18 12
-85 -7 -87 -7 -87 96 -199 39 -42 71 -82 71 -90 0 -8 14 -25 31 -39 l31 -24
-38 -24 c-22 -12 -41 -26 -44 -29 -3 -3 -20 -16 -37 -29 -18 -12 -36 -34 -40
-49 -3 -15 -12 -33 -20 -40 -7 -7 -13 -22 -13 -32 0 -10 -8 -21 -18 -24 -9 -3
-22 -16 -27 -28 -11 -26 -151 -98 -227 -118 l-47 -12 -106 76 c-67 48 -115 76
-131 76 -27 0 -311 -110 -352 -136 -12 -8 -20 -19 -17 -25 7 -11 425 -368 768
-656 81 -69 89 -73 134 -73 33 0 62 8 93 26 25 14 81 45 125 69 135 72 180
101 183 116 2 9 -47 51 -125 107 -163 118 -198 147 -190 159 4 6 34 16 67 22
35 7 71 22 89 36 16 14 35 25 42 25 14 0 60 60 72 92 4 10 17 18 29 18 35 0
142 54 165 84 33 42 5 112 -65 159 -46 31 -75 77 -66 102 4 9 -2 29 -15 45
-11 16 -30 54 -41 84 -22 56 -63 120 -111 172 l-29 30 33 94 34 94 81 22 c149
41 188 78 143 135 -22 29 -138 219 -166 273 -11 21 -38 59 -60 83 l-39 46 0
118 c0 79 4 123 12 131 25 25 12 60 -44 124 l-56 64 27 10 c14 5 33 10 41 10
7 0 21 17 30 38 15 33 15 42 1 92 -8 30 -21 70 -28 88 -12 29 -12 37 4 63 24
42 22 47 -20 64 -56 24 -91 61 -85 91 3 18 -6 35 -37 69 -22 24 -41 54 -41 65
0 23 -18 27 -26 5z m-44 -955 c16 -31 9 -80 -12 -80 -10 0 -18 -4 -18 -10 0
-5 -6 -10 -13 -10 -8 0 -27 -6 -43 -14 -29 -15 -179 -25 -191 -13 -8 9 16 37
33 37 7 0 35 12 61 26 177 97 167 93 183 64z m-293 -74 c3 -3 1 -12 -6 -20
-10 -12 -17 -12 -51 2 -22 10 -40 21 -40 26 0 9 87 3 97 -8z m237 -123 c4 -5
15 -8 24 -9 10 -1 27 -2 40 -3 21 -1 31 -24 13 -35 -10 -7 -121 36 -121 47 0
4 8 7 18 7 10 0 22 -3 26 -7z m366 -964 c0 -18 -2 -19 -15 -9 -15 12 -12 30 6
30 5 0 9 -10 9 -21z m-292 -221 c7 -7 12 -24 12 -39 0 -15 5 -31 10 -34 17
-10 11 -43 -8 -50 -11 -3 -34 -24 -51 -46 -20 -24 -39 -38 -47 -35 -8 3 -39
24 -70 47 -61 46 -67 71 -24 93 43 22 155 75 161 75 3 1 10 -4 17 -11z"/>
</g>
</svg>
