<?xml version="1.0" standalone="no"?>
<!DOCTYPE svg PUBLIC "-//W3C//DTD SVG 20010904//EN"
 "http://www.w3.org/TR/2001/REC-SVG-20010904/DTD/svg10.dtd">
<svg version="1.0" xmlns="http://www.w3.org/2000/svg"
 width="480.000000pt" height="360.000000pt" viewBox="0 0 480.000000 360.000000"
 preserveAspectRatio="xMidYMid meet">
<metadata>
Created by potrace 1.16, written by Peter Selinger 2001-2019
</metadata>
<rect width="1" height="360" fill="#000000"/>
<rect x="479" width="1" height="360" fill="#000000"/>
<rect width="480" height="1" fill="#000000"/>
<rect y="359" width="480" height="1" fill="#000000"/>
<g transform="translate(0.000000,360.000000) scale(0.100000,-0.100000)"
fill="#000000" stroke="none">
<path d="M0 2980 c0 -341 2 -620 4 -620 2 0 19 24 39 54 20 30 44 57 54 60
156 49 323 78 609 105 241 24 409 102 496 232 31 48 43 55 233 151 255 128
399 214 471 283 l58 55 55 -15 c31 -8 119 -28 196 -45 77 -16 167 -37 201 -46
l61 -16 57 -100 c46 -80 57 -107 53 -132 -26 -167 -38 -281 -35 -334 l4 -63
72 -70 c57 -55 76 -69 96 -65 41 7 63 24 101 76 35 48 55 56 55 24 0 -18 102
-118 142 -139 19 -10 34 -12 51 -6 29 11 79 67 96 109 12 30 15 31 55 26 39
-6 45 -3 69 25 15 18 32 51 38 74 23 84 -9 425 -46 496 -24 47 -114 153 -277
329 l-161 172 -1423 0 -1424 0 0 -620z"/>
<path d="M3910 3553 c0 -61 -34 -290 -55 -374 -51 -205 -156 -437 -267 -594
-80 -114 -268 -303 -378 -381 -222 -157 -388 -240 -870 -430 -464 -183 -702
-319 -915 -522 -297 -282 -475 -657 -525 -1107 -5 -50 -10 -102 -10 -117 l0
-28 1193 1 1192 1 -175 24 c-299 41 -372 61 -468 126 -23 16 -62 36 -85 44
-23 8 -60 27 -82 42 -63 44 -347 383 -412 492 -45 76 -67 325 -39 445 20 85
36 111 80 129 18 7 43 27 55 44 12 17 37 36 57 42 32 11 38 9 69 -15 19 -14
42 -39 50 -56 15 -29 35 -39 35 -18 0 8 4 8 13 1 9 -8 23 0 56 33 24 24 59 49
78 56 30 10 38 8 69 -13 19 -12 40 -38 46 -55 13 -35 22 -41 34 -22 4 8 12 2
21 -15 12 -23 17 -25 35 -15 35 19 40 -5 33 -166 -4 -82 -7 -164 -8 -181 0
-18 10 -44 25 -65 14 -19 40 -62 57 -96 18 -34 39 -64 49 -67 9 -3 75 -14 146
-26 71 -12 140 -26 153 -31 41 -15 68 -10 94 17 56 62 226 155 496 273 126 56
146 68 184 113 50 59 121 106 204 135 118 41 174 46 409 41 209 -5 224 -4 234
13 9 14 12 321 12 1194 l0 1175 -445 0 -445 0 0 -47z"/>
<path d="M3678 3 c6 -2 18 -2 25 0 6 3 1 5 -13 5 -14 0 -19 -2 -12 -5z"/>
</g>
</svg>
