<?xml version="1.0" standalone="no"?>
<!DOCTYPE svg PUBLIC "-//W3C//DTD SVG 20010904//EN"
 "http://www.w3.org/TR/2001/REC-SVG-20010904/DTD/svg10.dtd">
<svg version="1.0" xmlns="http://www.w3.org/2000/svg"
 width="480.000000pt" height="360.000000pt" viewBox="0 0 480.000000 360.000000"
 preserveAspectRatio="xMidYMid meet">
<metadata>
Created by potrace 1.16, written by Peter Selinger 2001-2019
</metadata>
<rect width="1" height="360" fill="#000000"/>
<rect x="479" width="1" height="360" fill="#000000"/>
<rect width="480" height="1" fill="#000000"/>
<rect y="359" width="480" height="1" fill="#000000"/>
<g transform="translate(0.000000,360.000000) scale(0.100000,-0.100000)"
fill="#000000" stroke="none">
<path d="M0 3486 c0 -85 3 -115 13 -119 15 -6 11 -77 -4 -77 -5 0 -9 -126 -9
-286 0 -262 2 -288 17 -300 17 -12 17 -13 1 -19 -17 -7 -18 -52 -18 -756 l0
-749 25 -10 c32 -12 32 -29 0 -22 l-25 4 0 -576 0 -576 730 0 730 0 -15 37
c-22 51 -31 61 -96 94 -67 33 -89 60 -89 107 0 25 -8 41 -30 60 -16 15 -30 31
-30 37 0 6 13 29 29 51 20 26 28 46 25 60 -16 66 99 166 426 373 81 50 189
156 289 281 42 52 111 137 153 188 43 51 78 94 78 97 0 2 -17 13 -38 24 -30
15 -44 31 -60 71 -12 27 -25 50 -29 49 -29 -5 -64 4 -84 20 l-24 20 40 16 c66
28 75 41 75 109 0 102 -21 288 -36 324 -8 19 -14 54 -14 78 0 40 5 49 48 89
51 49 43 60 -16 20 -41 -28 -52 -31 -52 -12 0 15 -36 48 -44 40 -3 -4 -15 2
-26 12 -11 10 -20 14 -20 10 0 -5 -5 -4 -11 2 -8 8 -8 17 0 31 9 17 7 21 -14
26 -29 7 -32 18 -10 36 19 16 19 30 0 30 -13 0 -14 4 -3 23 7 12 11 25 10 29
-1 3 15 13 36 21 20 8 44 23 53 33 24 28 103 162 126 214 26 58 104 135 159
156 130 50 328 -54 383 -199 25 -68 26 -87 7 -87 -8 0 -16 -12 -18 -27 -3 -26
-53 -66 -71 -56 -11 6 -47 -27 -47 -42 0 -7 7 -18 15 -25 13 -11 11 -16 -13
-39 -15 -14 -42 -44 -59 -65 -28 -34 -34 -38 -48 -26 -14 12 -18 12 -25 0 -14
-22 -2 -35 60 -63 62 -29 97 -65 120 -127 7 -19 29 -56 47 -82 19 -26 37 -63
40 -83 l6 -36 22 34 c13 18 39 44 59 58 28 19 35 29 31 46 -7 28 36 61 125 98
101 41 201 51 286 30 194 -48 403 -147 495 -234 35 -34 68 -62 73 -64 5 -2 10
-12 11 -23 1 -10 10 -57 20 -103 20 -96 18 -124 -24 -349 -27 -141 -33 -159
-76 -230 -58 -97 -68 -108 -134 -161 -41 -32 -60 -41 -78 -36 -14 3 -43 -3
-70 -15 -25 -11 -63 -23 -84 -26 -32 -6 -39 -3 -55 21 -16 25 -20 26 -79 20
-83 -9 -99 -2 -124 49 -19 41 -23 44 -69 51 -27 3 -62 14 -78 24 -28 17 -30
17 -64 -7 -29 -19 -45 -23 -94 -20 l-58 3 6 -80 c14 -178 58 -531 86 -703 16
-100 30 -205 30 -232 l0 -50 990 0 990 0 0 1640 0 1640 -26 0 c-14 0 -23 4
-19 10 3 6 15 10 26 10 18 0 19 8 19 150 l0 150 -1251 0 c-1236 0 -1251 0
-1276 -20 -14 -11 -32 -20 -41 -20 -9 0 -13 7 -9 20 5 20 0 20 -1109 20
l-1114 0 0 -114z m1890 45 c0 -15 -42 -41 -67 -41 -35 0 -28 16 15 33 44 19
52 20 52 8z m-1330 -32 c25 -14 -20 -9 -60 6 l-35 14 40 -6 c22 -3 47 -9 55
-14z m599 -35 c8 -7 -48 -16 -59 -9 -19 12 1 25 28 19 15 -4 29 -8 31 -10z
m-699 -105 c0 -6 -4 -7 -10 -4 -5 3 -10 11 -10 16 0 6 5 7 10 4 6 -3 10 -11
10 -16z m200 -60 c0 -5 -4 -9 -10 -9 -5 0 -10 7 -10 16 0 8 5 12 10 9 6 -3 10
-10 10 -16z m-365 -143 c42 -18 46 -36 7 -36 -30 0 -52 16 -52 37 0 16 3 16
45 -1z m1800 -26 c3 -6 -1 -7 -9 -4 -18 7 -21 14 -7 14 6 0 13 -4 16 -10z
m-23 -225 c13 -13 -16 -93 -50 -137 -30 -40 -38 -45 -45 -32 -19 33 0 95 39
135 38 39 46 44 56 34z m-876 -133 c-7 -7 -46 9 -46 18 0 5 11 4 25 -2 14 -6
23 -13 21 -16z m51 -38 c6 -18 -53 -37 -92 -30 -38 8 -44 19 -17 35 22 14 104
10 109 -5z m-1062 -194 c3 -6 -5 -10 -19 -10 -14 0 -28 5 -31 10 -3 6 5 10 19
10 14 0 28 -4 31 -10z m1381 -226 c6 -24 -6 -43 -28 -44 -13 0 -19 41 -8 55
18 22 29 18 36 -11z m1512 -69 c-3 -3 -36 -14 -72 -25 -54 -15 -65 -16 -56 -4
7 8 27 18 44 23 34 10 92 14 84 6z m-2098 -85 c0 -5 -6 -10 -12 -10 -7 0 -31
-3 -53 -6 -38 -5 -39 -4 -21 10 22 18 86 22 86 6z m376 -560 c14 0 22 -4 19
-10 -8 -13 -82 -13 -89 -1 -7 11 14 21 32 15 8 -2 25 -4 38 -4z m2629 -200
c21 -40 19 -55 -10 -74 -34 -22 -41 -20 -55 13 -9 24 -9 34 4 60 21 39 41 39
61 1z m-2834 -160 c13 -44 7 -59 -16 -40 -16 14 -21 80 -5 80 5 0 15 -18 21
-40z m2959 30 c16 -10 13 -16 -10 -22 -15 -3 -20 2 -20 22 0 12 10 13 30 0z
m-191 -616 c31 -39 26 -45 -26 -42 -41 3 -48 6 -51 26 -2 16 3 25 20 31 33 14
35 14 57 -15z m201 -399 c0 -15 -61 -31 -79 -20 -19 11 -12 24 17 28 53 8 62
7 62 -8z"/>
<path d="M2360 2296 c0 -9 5 -16 10 -16 6 0 10 4 10 9 0 6 -4 13 -10 16 -5 3
-10 -1 -10 -9z"/>
<path d="M2602 1587 c3 -60 9 -112 15 -115 5 -4 14 -15 20 -25 10 -19 123 -71
123 -57 0 9 -58 60 -69 60 -4 0 -14 13 -24 29 -16 28 -16 33 -1 70 l16 40 -43
53 -42 53 5 -108z"/>
<path d="M2721 1220 c-18 -17 -37 -30 -41 -30 -18 0 5 -42 27 -51 54 -20 84
-12 172 48 11 7 -34 41 -68 51 -51 16 -51 16 -90 -18z"/>
</g>
</svg>
