<?xml version="1.0" standalone="no"?>
<!DOCTYPE svg PUBLIC "-//W3C//DTD SVG 20010904//EN"
 "http://www.w3.org/TR/2001/REC-SVG-20010904/DTD/svg10.dtd">
<svg version="1.0" xmlns="http://www.w3.org/2000/svg"
 width="480.000000pt" height="360.000000pt" viewBox="0 0 480.000000 360.000000"
 preserveAspectRatio="xMidYMid meet">
<metadata>
Created by potrace 1.16, written by Peter Selinger 2001-2019
</metadata>
<rect width="1" height="360" fill="#000000"/>
<rect x="479" width="1" height="360" fill="#000000"/>
<rect width="480" height="1" fill="#000000"/>
<rect y="359" width="480" height="1" fill="#000000"/>
<g transform="translate(0.000000,360.000000) scale(0.100000,-0.100000)"
fill="#000000" stroke="none">
<path d="M2284 3208 c-5 -7 -11 -37 -15 -67 -4 -29 -12 -58 -17 -63 -12 -12
-64 14 -110 53 -18 16 -37 29 -42 29 -20 0 -9 -48 20 -91 37 -55 37 -65 1 -84
-30 -15 -73 -65 -84 -98 -4 -10 -11 -47 -17 -83 -25 -157 43 -320 174 -414 23
-17 50 -44 59 -60 20 -33 75 -70 104 -70 20 0 233 -201 233 -220 0 -6 11 -15
25 -22 17 -7 30 -27 41 -62 26 -80 59 -138 101 -178 21 -20 121 -92 223 -159
209 -138 301 -206 412 -306 42 -38 100 -82 129 -96 l51 -27 32 19 c17 11 52
22 79 26 28 5 64 19 90 38 38 28 48 31 108 28 84 -3 131 15 149 59 18 43 -2
80 -48 94 -44 12 -38 34 18 63 65 34 92 67 88 112 -2 29 -8 37 -25 39 -35 5
-29 45 12 90 37 42 55 80 55 118 0 14 11 49 25 78 25 52 25 56 14 152 -7 68
-15 102 -25 107 -9 5 -30 22 -48 38 -19 16 -38 29 -42 29 -5 0 -36 14 -69 30
-65 33 -89 35 -209 20 -458 -56 -646 -71 -647 -49 -3 64 4 177 13 192 16 31
-9 46 -85 51 -77 4 -108 21 -61 31 128 26 187 65 140 92 -7 4 -21 22 -30 40
-18 35 -50 58 -71 49 -7 -2 -19 2 -26 10 -10 13 -18 9 -50 -25 -55 -57 -89
-65 -185 -46 -131 27 -252 83 -275 127 -7 14 -9 49 -4 104 6 80 6 83 -18 99
-14 9 -39 45 -55 79 -31 66 -92 136 -117 136 -7 0 -17 -6 -21 -12z"/>
<path d="M4712 2632 c-45 -81 -114 -201 -153 -267 -102 -173 -161 -297 -167
-351 -5 -46 -5 -47 21 -40 14 3 32 9 41 12 26 10 20 -24 -19 -104 -51 -106
-77 -200 -73 -263 3 -46 7 -55 28 -65 14 -7 110 -15 218 -18 l192 -7 0 626 c0
344 -1 625 -2 625 -2 -1 -40 -67 -86 -148z"/>
</g>
</svg>
