<?xml version="1.0" standalone="no"?>
<!DOCTYPE svg PUBLIC "-//W3C//DTD SVG 20010904//EN"
 "http://www.w3.org/TR/2001/REC-SVG-20010904/DTD/svg10.dtd">
<svg version="1.0" xmlns="http://www.w3.org/2000/svg"
 width="480.000000pt" height="360.000000pt" viewBox="0 0 480.000000 360.000000"
 preserveAspectRatio="xMidYMid meet">
<metadata>
Created by potrace 1.16, written by Peter Selinger 2001-2019
</metadata>
<rect width="1" height="360" fill="#000000"/>
<rect x="479" width="1" height="360" fill="#000000"/>
<rect width="480" height="1" fill="#000000"/>
<rect y="359" width="480" height="1" fill="#000000"/>
<g transform="translate(0.000000,360.000000) scale(0.100000,-0.100000)"
fill="#000000" stroke="none">
<path d="M1241 3574 c-12 -27 -15 -28 -95 -8 -58 14 -136 -57 -136 -125 0 -16
7 -45 15 -64 12 -29 22 -37 50 -43 27 -5 34 -10 31 -23 -20 -69 -25 -108 -26
-191 -1 -52 -2 -125 -2 -161 0 -37 6 -80 14 -100 49 -112 49 -120 0 -190 -54
-78 -70 -111 -54 -116 18 -7 15 -20 -13 -61 -31 -46 -32 -70 -2 -76 94 -20 94
-19 123 24 15 22 30 40 33 40 9 0 28 -55 36 -105 4 -22 13 -62 21 -89 18 -65
18 -116 -2 -168 -18 -46 -112 -177 -148 -206 -12 -9 -30 -30 -40 -47 -28 -45
-171 -189 -251 -254 -84 -69 -226 -163 -286 -190 -24 -10 -123 -38 -219 -61
-96 -23 -193 -50 -215 -60 -79 -38 -75 -26 -75 -232 l0 -185 25 -11 c14 -7 35
-12 46 -12 11 0 22 -6 25 -14 7 -18 56 -36 97 -36 26 0 296 -62 462 -106 61
-16 309 -118 438 -180 39 -18 81 -34 93 -34 12 0 27 -7 34 -15 8 -10 30 -15
61 -15 56 0 97 -14 105 -35 4 -9 3 -50 -1 -91 -7 -72 -8 -77 -36 -87 -56 -22
-67 -76 -43 -215 l6 -32 227 0 226 0 46 58 c25 31 69 92 97 134 28 42 57 80
63 84 14 8 4 -77 -17 -150 -8 -27 -14 -67 -14 -88 l0 -38 99 0 c83 0 100 3
105 17 4 9 4 66 0 127 -7 115 10 389 26 432 11 27 58 73 76 74 6 0 18 -10 27
-22 14 -21 17 -22 48 -10 60 24 63 22 70 -38 7 -60 28 -109 83 -185 44 -61 51
-87 66 -235 6 -63 13 -125 16 -137 l4 -23 680 0 680 0 7 28 c5 15 7 124 7 242
-1 182 -6 251 -34 451 l-32 235 10 295 c6 165 20 375 32 479 25 221 21 373
-15 554 -26 128 -73 263 -109 311 -12 17 -37 61 -55 99 -105 217 -368 321
-686 273 -55 -9 -113 -13 -128 -10 -18 4 -34 0 -47 -12 -10 -9 -45 -29 -77
-44 -76 -37 -151 -114 -221 -227 -141 -226 -136 -217 -87 -180 l38 29 -7 -34
c-17 -96 -18 -109 -7 -109 6 0 11 -10 11 -21 0 -36 22 -99 35 -99 7 0 20 -9
30 -20 11 -12 21 -16 25 -10 8 13 50 -16 50 -35 0 -8 -18 -32 -40 -52 -22 -21
-40 -43 -40 -50 0 -7 11 -24 25 -39 15 -17 25 -39 25 -58 0 -17 16 -62 35
-100 19 -39 35 -77 35 -86 0 -24 33 -50 63 -50 23 0 27 -4 27 -27 0 -46 -12
-56 -54 -45 -46 13 -46 1 -1 -24 26 -14 35 -25 35 -44 -1 -33 -26 -149 -34
-158 -4 -3 -28 2 -54 12 -26 10 -119 43 -207 72 -88 30 -174 63 -191 73 -31
19 -32 22 -38 113 -15 192 22 853 50 899 2 3 -2 20 -8 36 -15 39 -60 66 -110
66 -80 0 -118 -62 -93 -147 7 -24 15 -90 17 -147 4 -137 -12 -660 -22 -677 -5
-10 -33 8 -101 66 -118 100 -241 238 -275 309 -25 51 -26 60 -21 156 7 135 8
137 68 137 37 0 51 4 56 17 6 15 -20 236 -37 315 -10 48 -3 50 109 33 147 -22
338 -30 356 -15 14 12 14 15 -1 38 -13 20 -14 28 -4 48 25 45 7 50 -202 58
-106 3 -196 10 -201 15 -6 6 -6 29 0 58 10 57 -4 55 193 22 134 -22 136 -22
158 -3 24 20 58 81 50 89 -3 3 -72 12 -154 20 -175 18 -203 24 -267 65 -51 32
-50 28 -31 98 5 18 2 22 -18 22 -23 0 -26 5 -36 78 -6 42 -20 107 -32 145
l-21 67 -87 0 -88 0 -10 -42 c-7 -33 -14 -44 -32 -46 -30 -4 -37 19 -17 57
l16 31 -99 0 c-97 0 -99 -1 -111 -26z m1703 -1925 c-3 -5 -9 -9 -15 -9 -11 0
-12 43 -2 54 9 9 25 -33 17 -45z"/>
</g>
</svg>
