<?xml version="1.0" standalone="no"?>
<!DOCTYPE svg PUBLIC "-//W3C//DTD SVG 20010904//EN"
 "http://www.w3.org/TR/2001/REC-SVG-20010904/DTD/svg10.dtd">
<svg version="1.0" xmlns="http://www.w3.org/2000/svg"
 width="480.000000pt" height="360.000000pt" viewBox="0 0 480.000000 360.000000"
 preserveAspectRatio="xMidYMid meet">
<metadata>
Created by potrace 1.16, written by Peter Selinger 2001-2019
</metadata>
<rect width="1" height="360" fill="#000000"/>
<rect x="479" width="1" height="360" fill="#000000"/>
<rect width="480" height="1" fill="#000000"/>
<rect y="359" width="480" height="1" fill="#000000"/>
<g transform="translate(0.000000,360.000000) scale(0.100000,-0.100000)"
fill="#000000" stroke="none">
<path d="M0 1800 l0 -1800 260 0 260 0 2 88 c6 226 -2 255 -137 517 -117 227
-163 343 -205 518 -117 486 -99 1003 51 1526 l30 104 -35 36 c-44 45 -45 66
-6 90 51 31 126 15 421 -85 172 -58 212 -75 245 -106 21 -19 132 -52 547 -164
l208 -56 25 23 c14 13 58 89 98 170 80 160 134 244 211 324 46 48 56 53 115
64 41 7 84 23 120 45 71 43 139 67 216 73 54 5 68 2 138 -31 43 -20 114 -62
158 -93 72 -52 77 -58 58 -68 -14 -8 -17 -14 -10 -21 18 -18 16 -110 -3 -129
-9 -9 -17 -26 -18 -38 0 -12 -3 -16 -6 -9 -4 10 -8 10 -18 2 -20 -17 -8 -38
31 -50 33 -11 44 -32 24 -45 -5 -3 -9 -23 -8 -43 1 -20 -2 -65 -7 -99 -6 -48
-12 -64 -26 -68 -11 -4 -19 -11 -19 -17 0 -6 -13 -8 -37 -3 l-36 7 17 -27 c17
-26 17 -27 -3 -20 -16 5 -21 2 -21 -12 0 -39 57 -77 146 -98 80 -18 121 -42
166 -95 l33 -38 200 -36 c405 -72 457 -79 477 -67 24 15 38 14 59 -5 16 -14
19 -14 34 10 20 31 50 34 67 7 9 -15 15 -17 28 -8 19 11 55 2 46 -11 -3 -5 6
-7 20 -4 20 3 26 0 31 -17 6 -25 12 -26 28 -4 15 20 45 11 52 -16 7 -26 28
-30 498 -86 116 -14 225 -27 243 -30 l32 -6 0 851 0 850 -2400 0 -2400 0 0
-1800z"/>
<path d="M758 2551 c-30 -77 -93 -283 -123 -401 -53 -207 -60 -281 -60 -610 0
-268 2 -304 23 -397 26 -119 102 -340 196 -569 39 -95 66 -176 66 -197 0 -20
-15 -82 -34 -139 -40 -125 -66 -212 -66 -227 0 -8 100 -11 339 -11 325 0 340
1 353 19 55 78 303 341 453 479 260 240 318 301 435 463 132 181 133 173 -19
291 -188 146 -231 195 -231 262 0 42 38 129 96 221 52 84 54 89 42 122 -10 27
-10 40 1 66 24 57 8 137 -18 88 -7 -12 -21 -21 -32 -21 -12 0 -23 -10 -29 -26
-9 -22 -13 -24 -25 -14 -10 9 -15 9 -15 1 0 -6 -5 -11 -11 -11 -7 0 -9 10 -7
24 4 18 1 22 -13 19 -11 -3 -19 2 -22 14 -4 16 -5 16 -6 1 0 -10 -5 -18 -10
-18 -13 0 -20 25 -14 49 9 35 -16 24 -26 -11 -5 -18 -10 -25 -10 -16 -1 9 -6
18 -12 20 -8 3 -7 13 3 33 8 17 18 44 22 60 l7 30 -39 -40 c-21 -22 -43 -49
-49 -60 -25 -44 -19 -6 7 52 45 99 46 105 16 93 -35 -13 -33 -3 11 42 46 47
35 71 -17 33 -30 -22 -34 -23 -45 -8 -11 14 -13 14 -31 -3 -10 -11 -30 -28
-44 -39 l-24 -20 18 29 c17 27 17 29 1 22 -14 -5 -16 -4 -7 7 7 8 8 17 4 21
-4 4 -7 17 -7 29 0 24 -52 47 -112 49 -18 1 -33 5 -33 10 0 6 -18 7 -41 3 -27
-5 -39 -4 -35 3 8 13 -19 23 -254 87 -113 31 -250 70 -305 87 -67 20 -126 31
-178 33 -76 2 -79 2 -89 -24z"/>
<path d="M2984 2045 c-4 -8 -3 -21 0 -27 14 -30 63 -110 89 -147 38 -52 56
-105 57 -162 0 -25 6 -53 13 -62 11 -16 15 -16 63 3 29 10 128 42 220 70 93
28 189 58 213 67 l43 15 -7 57 c-4 31 -11 63 -15 72 -6 10 -42 21 -112 33 -57
10 -200 36 -318 57 -246 45 -239 44 -246 24z"/>
<path d="M3986 1821 c-47 -77 -134 -162 -204 -199 -70 -37 -399 -175 -495
-208 -92 -31 -160 -31 -220 0 l-45 25 5 -53 c4 -34 1 -56 -6 -60 -6 -4 -11
-38 -11 -83 l0 -76 45 -48 c46 -49 54 -75 34 -107 -15 -24 40 -133 111 -222
86 -107 180 -256 180 -286 0 -4 -25 -4 -56 -1 -43 4 -55 3 -51 -7 31 -81 107
-411 107 -465 l0 -31 710 0 710 0 0 864 c0 815 -1 865 -17 870 -52 16 -720
146 -750 146 -6 0 -28 -26 -47 -59z"/>
<path d="M2333 1581 l-42 -48 54 -53 c30 -30 57 -51 60 -48 14 14 14 59 -1
118 -10 36 -20 68 -23 72 -4 4 -25 -14 -48 -41z"/>
</g>
</svg>
