<?xml version="1.0" standalone="no"?>
<!DOCTYPE svg PUBLIC "-//W3C//DTD SVG 20010904//EN"
 "http://www.w3.org/TR/2001/REC-SVG-20010904/DTD/svg10.dtd">
<svg version="1.0" xmlns="http://www.w3.org/2000/svg"
 width="480.000000pt" height="360.000000pt" viewBox="0 0 480.000000 360.000000"
 preserveAspectRatio="xMidYMid meet">
<metadata>
Created by potrace 1.16, written by Peter Selinger 2001-2019
</metadata>
<rect width="1" height="360" fill="#000000"/>
<rect x="479" width="1" height="360" fill="#000000"/>
<rect width="480" height="1" fill="#000000"/>
<rect y="359" width="480" height="1" fill="#000000"/>
<g transform="translate(0.000000,360.000000) scale(0.100000,-0.100000)"
fill="#000000" stroke="none">
<path d="M390 3556 c0 -24 5 -68 10 -97 6 -30 17 -148 26 -264 8 -115 17 -224
20 -241 5 -29 3 -32 -26 -38 -18 -3 -54 -6 -80 -6 -33 0 -52 -5 -63 -18 -21
-23 -22 -70 -2 -92 9 -10 18 -43 20 -76 6 -77 14 -114 27 -114 6 0 8 11 4 25
l-7 26 28 -18 c25 -17 27 -17 20 -1 -3 10 -2 20 4 24 6 4 6 11 -2 20 -9 11 -9
14 1 14 9 0 7 6 -5 20 -17 18 -17 21 -1 45 17 25 50 33 61 15 4 -6 1 -35 -6
-64 -6 -30 -9 -65 -6 -78 4 -13 39 -64 78 -113 62 -77 69 -90 53 -95 -10 -3
-32 -14 -48 -24 -23 -17 -48 -20 -140 -22 -123 -2 -168 -17 -196 -67 -20 -36
-7 -55 55 -79 28 -11 59 -28 70 -38 11 -10 41 -28 67 -39 42 -18 48 -25 58
-63 24 -94 57 -143 130 -191 42 -29 102 -22 154 18 59 45 119 75 151 75 14 0
25 4 25 8 0 11 -69 32 -103 32 -14 0 -37 4 -50 9 -23 9 -24 11 -13 55 7 25 16
50 22 56 5 5 59 19 120 31 61 11 116 24 122 28 10 6 10 16 0 46 -11 34 -18 40
-53 47 -22 5 -43 12 -48 17 -14 14 50 127 116 206 102 122 212 365 166 365 -6
0 -9 7 -5 15 6 17 -19 21 -30 4 -5 -8 -9 -8 -14 1 -5 9 -13 9 -26 2 -22 -12
-40 4 -46 39 -3 21 -5 19 -17 -16 -8 -22 -18 -46 -24 -52 -18 -23 -26 -14 -16
19 14 50 11 67 -6 44 -14 -19 -15 -17 -16 20 -1 21 -4 50 -8 63 -7 25 -7 24
-29 -13 -12 -20 -22 -45 -23 -54 0 -9 -10 -39 -23 -67 l-22 -50 4 68 c5 75
-12 93 -21 23 -14 -99 -38 -185 -51 -180 -8 3 -18 -8 -26 -26 -7 -17 -14 -29
-16 -27 -6 6 34 162 57 223 17 44 18 58 9 69 -34 41 46 195 177 343 84 96 183
227 183 244 0 4 -173 8 -385 8 l-385 0 0 -44z"/>
<path d="M2580 1800 l0 -1800 768 0 769 0 12 86 c7 48 23 121 36 163 27 82 30
108 16 130 -7 11 -18 7 -55 -18 -73 -50 -134 -75 -151 -61 -18 15 -35 74 -35
123 0 20 -6 55 -12 77 l-13 39 -27 -32 -27 -32 0 30 c0 17 6 48 14 70 21 57
20 66 -8 56 -14 -5 -30 -6 -38 0 -8 4 -31 6 -51 2 -31 -4 -38 -2 -38 11 0 9
-6 16 -12 16 -9 1 -8 4 2 13 8 7 22 21 30 31 14 18 13 18 -9 11 l-23 -7 26 38
c14 21 26 43 26 48 0 35 105 146 194 205 98 66 136 103 163 159 18 39 23 60
16 70 -7 12 0 25 31 56 23 23 68 71 102 109 50 56 65 67 91 67 18 0 34 -4 37
-9 4 -5 31 -9 61 -9 85 1 118 -29 96 -87 -5 -12 -3 -28 5 -40 7 -11 17 -39 22
-63 8 -36 7 -46 -10 -67 -11 -14 -25 -25 -33 -25 -7 0 -35 -23 -61 -50 -34
-35 -53 -48 -66 -44 -27 8 -22 -13 9 -39 46 -37 73 -68 142 -161 36 -49 73
-94 82 -99 35 -22 95 86 68 120 -7 7 -9 16 -6 20 4 3 2 12 -4 20 -9 10 -8 13
1 13 7 0 10 7 6 16 -5 12 -1 14 15 9 14 -5 25 -2 30 6 8 12 11 11 19 -1 6 -10
10 436 10 1308 l0 1322 -1110 0 -1110 0 0 -1800z"/>
<path d="M4308 757 c-10 -30 -18 -73 -18 -98 0 -40 1 -42 16 -27 9 9 17 35 18
59 2 24 6 61 11 82 11 55 -7 45 -27 -16z"/>
<path d="M4771 616 c-26 -28 -155 -96 -182 -96 -18 0 -19 -9 -19 -137 0 -143
6 -173 60 -320 l23 -63 73 0 74 0 0 320 c0 176 -1 320 -3 320 -2 0 -14 -11
-26 -24z"/>
</g>
</svg>
