<?xml version="1.0" standalone="no"?>
<!DOCTYPE svg PUBLIC "-//W3C//DTD SVG 20010904//EN"
 "http://www.w3.org/TR/2001/REC-SVG-20010904/DTD/svg10.dtd">
<svg version="1.0" xmlns="http://www.w3.org/2000/svg"
 width="480.000000pt" height="360.000000pt" viewBox="0 0 480.000000 360.000000"
 preserveAspectRatio="xMidYMid meet">
<metadata>
Created by potrace 1.16, written by Peter Selinger 2001-2019
</metadata>
<rect width="1" height="360" fill="#000000"/>
<rect x="479" width="1" height="360" fill="#000000"/>
<rect width="480" height="1" fill="#000000"/>
<rect y="359" width="480" height="1" fill="#000000"/>
<g transform="translate(0.000000,360.000000) scale(0.100000,-0.100000)"
fill="#000000" stroke="none">
<path d="M0 1800 l0 -1800 358 0 359 0 -9 58 c-4 31 -15 104 -22 162 -8 58
-18 112 -21 121 -3 8 -7 30 -9 49 -2 19 -23 85 -46 145 -126 331 -191 794
-161 1141 12 135 39 334 66 484 46 252 48 335 14 422 -11 28 -93 98 -114 98
-35 0 -48 40 -65 197 -42 373 -40 344 -18 390 27 53 102 139 139 158 15 8 46
15 69 15 23 0 117 25 218 59 97 33 210 67 250 76 39 9 72 18 72 21 0 2 -243 4
-540 4 l-540 0 0 -1800z"/>
<path d="M4090 3574 c0 -14 11 -103 25 -198 21 -142 35 -201 81 -336 61 -182
117 -410 134 -545 9 -70 8 -104 -5 -178 -14 -85 -40 -144 -61 -141 -5 1 -20
22 -34 48 -13 25 -28 46 -32 46 -7 0 -40 -103 -51 -160 -19 -96 -104 -398
-128 -460 -137 -343 -408 -646 -715 -799 -98 -49 -244 -96 -347 -112 -120 -18
-312 -7 -422 26 -218 64 -381 192 -463 362 -31 67 -34 79 -30 147 3 64 8 81
34 118 41 57 90 80 189 88 44 4 89 11 100 17 11 6 56 18 100 27 194 40 331
103 423 197 51 52 54 78 9 99 -21 10 -35 25 -40 45 -5 17 -15 50 -23 75 -7 25
-16 74 -20 110 -11 107 -29 122 -79 70 -16 -16 -48 -37 -72 -46 -44 -17 -108
-17 -339 2 -94 8 -151 -6 -264 -65 -244 -127 -377 -345 -373 -611 4 -291 183
-585 486 -793 183 -126 321 -173 539 -183 312 -15 638 66 940 233 109 60 305
195 380 263 31 28 73 57 92 65 33 14 35 14 29 -2 -11 -34 -128 -145 -239 -228
-122 -92 -209 -147 -314 -200 -81 -41 -337 -145 -357 -145 -7 0 -27 -13 -45
-30 l-33 -29 45 -1 c549 -5 562 -6 616 -56 17 -16 24 -34 24 -59 0 -46 -11
-66 -71 -137 -27 -31 -49 -59 -49 -62 0 -3 8 -6 18 -6 9 0 26 -7 36 -15 17
-13 74 -15 344 -15 314 0 325 1 354 21 l29 21 6 -21 c5 -20 11 -21 144 -21
l139 0 0 1800 0 1800 -355 0 -355 0 0 -26z"/>
<path d="M2151 2978 c-55 -12 -44 -22 42 -36 37 -6 128 -27 203 -47 130 -36
170 -39 162 -12 -6 16 -124 85 -168 97 -44 12 -180 11 -239 -2z"/>
<path d="M1995 2040 c-3 -5 1 -10 9 -10 8 0 18 5 21 10 3 6 -1 10 -9 10 -8 0
-18 -4 -21 -10z"/>
</g>
</svg>
