<?xml version="1.0" standalone="no"?>
<!DOCTYPE svg PUBLIC "-//W3C//DTD SVG 20010904//EN"
 "http://www.w3.org/TR/2001/REC-SVG-20010904/DTD/svg10.dtd">
<svg version="1.0" xmlns="http://www.w3.org/2000/svg"
 width="480.000000pt" height="360.000000pt" viewBox="0 0 480.000000 360.000000"
 preserveAspectRatio="xMidYMid meet">
<metadata>
Created by potrace 1.16, written by Peter Selinger 2001-2019
</metadata>
<rect width="1" height="360" fill="#000000"/>
<rect x="479" width="1" height="360" fill="#000000"/>
<rect width="480" height="1" fill="#000000"/>
<rect y="359" width="480" height="1" fill="#000000"/>
<g transform="translate(0.000000,360.000000) scale(0.100000,-0.100000)"
fill="#000000" stroke="none">
<path d="M504 3563 c3 -21 8 -83 11 -138 4 -55 15 -157 26 -227 20 -135 23
-201 9 -233 -5 -11 -9 -15 -9 -9 -1 6 -17 27 -38 47 -42 43 -77 48 -116 17
-15 -12 -49 -28 -76 -36 -28 -8 -55 -23 -61 -34 -18 -33 -11 -77 15 -106 14
-15 25 -38 25 -52 0 -46 23 -103 53 -128 30 -25 57 -24 36 3 -11 12 -10 14 2
13 7 -1 23 -2 34 -1 19 2 19 2 2 15 -17 13 -17 14 0 21 16 6 15 8 -7 20 -14 8
-19 14 -12 15 21 0 13 20 -13 30 -21 8 -24 13 -16 28 14 26 49 55 59 48 5 -3
37 -53 73 -112 35 -60 84 -128 108 -153 110 -116 124 -141 81 -141 -10 0 -35
-19 -54 -42 -41 -48 -42 -48 -195 -49 -82 0 -124 -4 -148 -15 -35 -17 -74 -70
-66 -90 3 -7 29 -22 59 -34 34 -12 67 -34 87 -56 35 -41 81 -64 127 -64 34 0
39 -8 65 -101 34 -124 136 -219 232 -219 41 0 55 6 98 40 88 70 128 93 172 98
24 2 43 8 43 11 0 12 -64 31 -127 37 -34 4 -66 9 -71 13 -7 4 -4 32 7 81 15
69 19 75 46 82 17 4 68 17 115 28 163 40 157 38 158 65 0 14 -5 25 -10 25 -5
0 -7 4 -3 9 9 16 -35 33 -93 37 -30 2 -59 7 -63 11 -8 9 33 109 65 159 11 16
50 66 88 111 65 78 68 84 68 133 0 29 7 77 16 107 10 34 14 72 11 97 -4 26 0
59 9 85 18 51 5 76 -20 40 l-16 -23 -17 24 c-9 13 -26 33 -37 44 l-21 21 -6
-45 c-5 -38 -7 -40 -9 -15 -2 17 -3 42 -2 57 4 53 -18 37 -89 -67 -39 -58 -74
-104 -76 -101 -3 2 0 28 6 58 14 75 12 165 -4 178 -9 7 -12 30 -10 68 2 47 11
71 46 131 24 40 58 87 75 104 17 18 48 51 69 75 l37 42 -377 0 -377 0 6 -37z
m382 -575 c-7 -84 -33 -188 -47 -188 -24 0 -38 145 -17 183 15 29 59 87 66 87
3 0 2 -37 -2 -82z"/>
<path d="M3050 1800 l0 -1800 480 0 480 0 0 28 c0 16 6 49 13 73 6 24 11 59 9
77 -3 26 -7 32 -21 27 -15 -4 -21 3 -31 41 -12 42 -9 77 10 139 2 6 0 44 -4
85 -7 68 -6 79 14 113 12 20 26 37 31 37 5 0 33 37 63 83 64 99 113 246 90
269 -12 11 -10 20 13 53 45 67 82 147 76 169 -11 49 -15 107 -9 130 7 30 39
35 73 11 23 -16 70 -20 121 -9 26 5 40 1 70 -20 21 -14 45 -26 53 -26 39 0
143 -87 172 -144 17 -32 8 -76 -24 -112 -11 -11 -29 -49 -42 -85 -21 -59 -25
-64 -55 -67 -34 -3 -37 -8 -23 -44 6 -16 25 -29 65 -42 31 -11 63 -27 72 -38
10 -10 25 -18 35 -18 18 0 19 54 19 1435 l0 1435 -875 0 -875 0 0 -1800z"/>
</g>
</svg>
