<?xml version="1.0" standalone="no"?>
<!DOCTYPE svg PUBLIC "-//W3C//DTD SVG 20010904//EN"
 "http://www.w3.org/TR/2001/REC-SVG-20010904/DTD/svg10.dtd">
<svg version="1.0" xmlns="http://www.w3.org/2000/svg"
 width="480.000000pt" height="360.000000pt" viewBox="0 0 480.000000 360.000000"
 preserveAspectRatio="xMidYMid meet">
<metadata>
Created by potrace 1.16, written by Peter Selinger 2001-2019
</metadata>
<rect width="1" height="360" fill="#000000"/>
<rect x="479" width="1" height="360" fill="#000000"/>
<rect width="480" height="1" fill="#000000"/>
<rect y="359" width="480" height="1" fill="#000000"/>
<g transform="translate(0.000000,360.000000) scale(0.100000,-0.100000)"
fill="#000000" stroke="none">
<path d="M0 1800 l0 -1800 964 0 965 0 -7 38 c-11 60 -8 268 6 387 7 61 17
149 22 196 6 47 20 122 32 165 26 92 26 177 2 262 -13 43 -16 84 -12 177 2 66
2 135 -1 153 l-6 33 -45 -68 c-52 -79 -118 -133 -161 -133 -17 0 -85 18 -152
40 -67 23 -169 48 -227 56 -106 16 -150 33 -150 58 0 8 -14 19 -31 25 -24 8
-30 15 -27 33 3 21 0 22 -37 18 -50 -6 -184 -4 -333 5 -90 6 -115 10 -120 23
-3 9 -1 17 6 20 6 2 8 10 5 19 -5 14 0 15 35 10 26 -3 42 -1 42 5 0 11 79 6
113 -7 10 -4 17 -3 17 4 0 6 -11 16 -24 21 -58 22 -32 56 51 65 103 11 103 11
96 48 -7 40 -23 58 -65 71 -29 10 -33 16 -36 49 -2 26 1 39 12 43 9 3 18 24
22 49 7 52 17 56 113 45 66 -7 121 -29 121 -49 0 -4 14 -25 30 -46 17 -21 30
-41 30 -45 0 -4 -11 -24 -25 -44 -14 -20 -25 -44 -25 -52 0 -8 -12 -26 -26
-41 -14 -14 -24 -26 -22 -28 2 -1 17 -9 33 -18 29 -15 31 -15 51 11 19 24 24
25 48 14 19 -8 32 -9 50 -1 21 10 40 4 133 -39 92 -43 228 -92 252 -92 5 0 13
19 20 42 7 23 28 78 46 123 26 65 32 91 28 131 -5 49 -4 50 64 128 37 43 79
95 93 116 29 43 136 165 198 228 48 48 49 72 3 72 -23 0 -38 11 -69 48 -21 26
-42 56 -46 68 -3 11 -18 27 -32 34 -20 11 -24 19 -19 39 7 26 -12 81 -27 81
-6 0 -3 -12 7 -26 16 -25 16 -25 -5 -14 -12 6 -23 17 -26 25 -3 7 -22 20 -42
28 -45 18 -69 43 -74 77 -2 14 -9 24 -16 22 -9 -2 -11 4 -7 17 3 10 10 43 15
73 12 76 81 219 119 249 31 24 32 27 22 70 -16 67 -14 116 5 123 26 10 105 7
140 -6 62 -22 92 -3 147 92 27 47 56 93 64 103 15 16 18 16 34 1 17 -16 21
-15 55 12 64 51 61 50 89 24 14 -13 49 -60 76 -103 96 -149 121 -235 79 -277
-11 -11 -26 -20 -32 -20 -7 -1 1 -13 19 -28 72 -62 143 -226 177 -412 9 -47
30 -204 46 -350 33 -293 46 -341 132 -512 75 -149 112 -277 94 -325 -6 -15
-14 -8 -41 35 -29 46 -34 51 -40 33 -4 -14 7 -47 32 -98 45 -91 46 -108 19
-328 -12 -104 -16 -177 -11 -236 6 -73 4 -88 -10 -102 -9 -10 -20 -17 -25 -17
-15 0 -21 -36 -25 -137 -3 -104 -23 -180 -69 -272 l-26 -51 25 -127 c14 -70
25 -128 25 -130 0 -2 416 -3 925 -3 l925 0 0 1800 0 1800 -2400 0 -2400 0 0
-1800z"/>
<path d="M955 1530 c3 -5 10 -10 16 -10 5 0 9 5 9 10 0 6 -7 10 -16 10 -8 0
-12 -4 -9 -10z"/>
<path d="M2003 1248 c1 -86 5 -159 9 -163 3 -4 18 1 33 11 27 17 27 19 23 103
-4 72 -10 96 -36 146 l-32 60 3 -157z"/>
</g>
</svg>
