<?xml version="1.0" standalone="no"?>
<!DOCTYPE svg PUBLIC "-//W3C//DTD SVG 20010904//EN"
 "http://www.w3.org/TR/2001/REC-SVG-20010904/DTD/svg10.dtd">
<svg version="1.0" xmlns="http://www.w3.org/2000/svg"
 width="480.000000pt" height="360.000000pt" viewBox="0 0 480.000000 360.000000"
 preserveAspectRatio="xMidYMid meet">
<metadata>
Created by potrace 1.16, written by Peter Selinger 2001-2019
</metadata>
<rect width="1" height="360" fill="#000000"/>
<rect x="479" width="1" height="360" fill="#000000"/>
<rect width="480" height="1" fill="#000000"/>
<rect y="359" width="480" height="1" fill="#000000"/>
<g transform="translate(0.000000,360.000000) scale(0.100000,-0.100000)"
fill="#000000" stroke="none">
<path d="M0 1800 l0 -1800 2400 0 2400 0 0 1800 0 1800 -2400 0 -2400 0 0
-1800z m2582 1135 c53 -28 137 -113 176 -177 20 -35 36 -79 43 -118 10 -64 6
-250 -6 -269 -3 -6 -3 -21 0 -32 6 -19 12 -21 61 -15 178 20 160 21 194 -12
28 -29 50 -37 165 -62 22 -5 99 -12 170 -15 83 -5 177 -18 261 -36 152 -34
145 -33 138 -16 -6 17 25 56 32 40 3 -7 11 -13 17 -13 7 0 20 -14 29 -31 23
-40 61 -38 66 4 3 23 6 26 18 16 8 -6 14 -20 14 -30 0 -23 4 -23 33 -5 12 8
54 24 92 37 39 12 91 32 117 45 26 13 58 24 70 24 22 -1 22 -2 -7 -25 l-30
-25 65 20 c36 11 68 20 73 20 14 0 7 -28 -9 -34 -31 -12 -7 -17 35 -7 46 10
62 0 31 -22 l-21 -14 22 -6 c36 -10 9 -31 -73 -58 -79 -26 -155 -66 -108 -56
72 15 123 19 116 9 -3 -6 -21 -14 -39 -17 -17 -4 -34 -10 -37 -14 -3 -4 -16
-12 -30 -19 -21 -10 -16 -11 39 -6 44 4 62 3 57 -4 -4 -6 -22 -14 -41 -18 -19
-3 -39 -12 -46 -20 -6 -8 -30 -14 -53 -15 l-41 -1 35 -10 c33 -9 34 -11 15
-24 -10 -8 -31 -14 -46 -14 -28 0 -59 -22 -59 -42 0 -7 -12 -8 -32 -3 -18 4
-53 11 -78 15 -25 5 -71 16 -102 26 -51 15 -63 16 -99 4 -39 -13 -43 -13 -60
8 -14 18 -34 25 -101 33 -46 5 -112 14 -148 20 -102 16 -330 23 -343 10 -6 -6
-31 -11 -56 -11 -30 0 -55 -7 -71 -20 -14 -11 -36 -20 -50 -20 -22 -1 -23 -2
-7 -11 9 -5 17 -19 17 -31 0 -16 -4 -19 -22 -14 -71 20 -74 20 -96 -19 -12
-20 -22 -39 -22 -43 0 -4 27 -25 61 -46 73 -47 269 -224 269 -243 0 -7 -8 -13
-19 -13 -10 0 -24 -6 -30 -13 -6 -8 -29 -19 -52 -26 -35 -10 -40 -16 -35 -34
18 -76 28 -169 24 -229 -5 -63 -10 -76 -55 -141 -31 -46 -65 -82 -94 -99 -52
-33 -166 -77 -224 -88 -22 -4 -80 -19 -130 -33 -49 -14 -110 -29 -135 -33 -25
-3 -57 -15 -72 -25 -31 -23 -59 -24 -96 -5 -15 7 -47 16 -72 19 -25 2 -49 6
-55 7 -5 2 -18 0 -28 -5 -12 -5 -33 0 -60 12 -23 12 -61 29 -84 38 -24 10 -43
24 -43 31 0 8 -13 20 -29 29 -35 18 -182 183 -208 234 -10 20 -28 50 -39 66
-57 80 -104 232 -104 336 0 93 98 286 175 344 18 14 72 37 121 51 71 21 102
25 153 20 l64 -5 -7 51 c-9 66 -29 114 -54 127 -13 7 -34 6 -73 -4 -88 -24
-133 -20 -172 15 -19 17 -44 30 -55 30 -12 0 -27 9 -35 19 -25 37 -167 58
-352 51 -152 -5 -160 -6 -160 -25 0 -25 -8 -25 -68 -1 -42 17 -56 18 -114 8
-36 -6 -70 -9 -74 -6 -4 2 -45 6 -91 7 -125 5 -198 49 -90 55 97 6 58 47 -100
103 -92 33 -130 59 -88 59 22 0 23 1 5 20 -18 20 -15 24 18 20 10 -1 24 4 32
10 22 18 145 16 182 -3 35 -19 79 -22 88 -7 3 5 -10 16 -30 24 -48 21 -36 39
19 31 32 -5 47 -3 59 9 23 23 33 20 84 -21 l45 -37 19 23 c11 13 19 22 20 20
7 -43 5 -71 -7 -76 -8 -3 -14 -15 -14 -28 0 -13 -7 -25 -15 -29 -8 -3 -15 -12
-15 -21 0 -13 4 -14 20 -5 11 6 20 19 20 30 0 10 9 21 19 25 13 4 18 12 14 21
-7 18 21 51 61 71 30 16 42 10 48 -22 3 -19 11 -20 173 -20 120 0 195 -5 254
-17 54 -11 91 -14 106 -8 13 5 32 6 42 4 11 -3 37 2 58 10 49 21 74 20 128 -3
25 -11 48 -17 51 -14 10 11 7 58 -5 70 -17 17 24 112 63 149 16 16 36 41 44
55 12 24 11 28 -6 44 -11 10 -20 24 -20 30 0 7 -7 18 -15 25 -21 18 -19 29 10
42 20 9 33 8 64 -7 l40 -17 43 35 c37 30 90 53 163 71 47 11 161 0 197 -19z"/>
<path d="M955 2471 c-5 -9 24 -31 39 -31 13 0 5 28 -10 34 -20 8 -22 8 -29 -3z"/>
<path d="M934 2405 c19 -14 36 -12 36 6 0 5 -12 9 -27 9 -27 -1 -27 -1 -9 -15z"/>
<path d="M3875 1969 c-10 -15 3 -25 16 -12 7 7 7 13 1 17 -6 3 -14 1 -17 -5z"/>
</g>
</svg>
