<?xml version="1.0" standalone="no"?>
<!DOCTYPE svg PUBLIC "-//W3C//DTD SVG 20010904//EN"
 "http://www.w3.org/TR/2001/REC-SVG-20010904/DTD/svg10.dtd">
<svg version="1.0" xmlns="http://www.w3.org/2000/svg"
 width="480.000000pt" height="360.000000pt" viewBox="0 0 480.000000 360.000000"
 preserveAspectRatio="xMidYMid meet">
<metadata>
Created by potrace 1.16, written by Peter Selinger 2001-2019
</metadata>
<rect width="1" height="360" fill="#000000"/>
<rect x="479" width="1" height="360" fill="#000000"/>
<rect width="480" height="1" fill="#000000"/>
<rect y="359" width="480" height="1" fill="#000000"/>
<g transform="translate(0.000000,360.000000) scale(0.100000,-0.100000)"
fill="#000000" stroke="none">
<path d="M1630 3588 c0 -17 20 -47 20 -31 0 6 3 18 6 27 4 11 1 16 -10 16 -9
0 -16 -6 -16 -12z"/>
<path d="M1736 3540 c16 -65 33 -115 38 -109 2 2 6 41 9 87 l5 82 -33 0 -32 0
13 -60z"/>
<path d="M1810 3561 c0 -53 14 -59 29 -12 15 50 14 51 -9 51 -17 0 -20 -7 -20
-39z"/>
<path d="M1897 3477 c2 -152 1 -147 12 -147 6 0 20 27 32 60 12 33 25 62 29
65 3 2 14 -5 24 -16 17 -20 17 -21 -4 -14 -18 6 -21 4 -17 -12 26 -85 37 -147
29 -155 -5 -5 -80 -30 -167 -54 -249 -71 -391 -143 -512 -257 l-72 -68 -24 38
c-14 21 -44 71 -67 111 -58 102 -90 135 -126 134 -16 0 -78 -10 -139 -20 -192
-35 -324 -45 -517 -39 -179 4 -201 8 -356 53 l-22 6 1 -618 c0 -357 4 -608 9
-594 5 14 30 97 55 185 26 88 63 212 83 275 l35 114 -52 158 c-47 141 -56 161
-89 188 -62 51 -48 54 285 54 305 1 343 -3 343 -38 0 -8 -29 -31 -65 -51 -73
-40 -69 -33 -155 -248 l-43 -107 37 -178 c21 -97 51 -241 67 -319 17 -78 38
-173 47 -210 l17 -68 100 0 c107 1 779 29 1110 46 110 6 705 13 1323 16 1029
5 1123 6 1131 22 4 9 11 30 14 46 4 17 27 129 52 250 25 121 55 266 66 323
l21 103 -26 58 c-26 58 -37 113 -16 81 8 -12 10 -10 10 10 0 20 2 22 10 10 5
-8 10 -25 10 -36 0 -12 7 -27 15 -34 8 -7 15 -21 15 -31 0 -11 5 -19 10 -19 6
0 10 18 10 41 0 22 4 38 9 35 5 -4 13 33 17 81 7 86 7 87 20 53 10 -29 13 -31
13 -11 2 41 24 151 31 151 12 0 20 -129 10 -156 -17 -45 23 -24 44 23 10 23
27 43 36 46 14 4 20 20 25 71 8 70 22 91 54 81 12 -3 41 -3 66 1 l45 6 0 120
c0 113 -1 119 -19 113 -19 -6 -19 -5 0 56 15 47 19 91 19 200 l0 139 -355 0
-355 0 0 -22 c0 -29 22 -147 49 -263 24 -104 27 -175 9 -175 -7 0 -78 9 -158
21 -80 11 -174 23 -210 26 l-66 5 -28 -36 c-15 -20 -58 -89 -95 -154 -88 -154
-94 -162 -106 -162 -6 0 -49 39 -95 86 -136 138 -277 222 -469 277 -44 13 -83
26 -87 29 -3 4 1 19 10 35 l15 28 1 -27 c0 -16 4 -28 8 -28 4 0 32 51 62 113
76 157 91 181 101 165 5 -7 9 -35 9 -63 0 -62 18 -177 30 -189 4 -4 18 19 30
53 13 34 26 61 31 61 4 0 11 -32 15 -70 4 -39 10 -73 15 -75 11 -7 17 36 29
204 6 79 13 147 16 152 3 5 -280 9 -653 9 l-658 0 2 -123z m180 6 c-2 -16 -4
-5 -4 22 0 28 2 40 4 28 2 -13 2 -35 0 -50z m736 -95 c-3 -79 -7 -145 -9 -146
-1 -2 -19 1 -39 8 -30 10 -35 15 -29 33 4 12 13 26 19 32 7 5 16 28 19 50 7
42 39 165 43 165 2 0 0 -64 -4 -142z m-96 57 c-4 -8 -15 -15 -26 -15 -24 0
-18 27 7 33 22 4 26 1 19 -18z m-647 -27 c0 -5 -4 -8 -10 -8 -5 0 -10 10 -10
23 0 18 2 19 10 7 5 -8 10 -18 10 -22z m2670 -38 c0 -5 -7 -10 -15 -10 -8 0
-15 5 -15 10 0 6 7 10 15 10 8 0 15 -4 15 -10z m-560 -465 c0 -40 -2 -41 -34
-20 -31 20 -24 55 10 55 21 0 24 -5 24 -35z m-290 -14 c0 -10 8 -29 19 -42 18
-23 18 -24 -4 -54 -13 -16 -33 -57 -45 -90 -13 -33 -26 -64 -31 -69 -4 -5 -36
9 -73 34 l-66 42 52 62 c114 135 148 161 148 117z m-2876 -110 l80 -94 -58
-54 c-32 -30 -62 -51 -66 -46 -4 4 -18 37 -31 73 -13 35 -36 79 -52 97 -27 31
-28 35 -14 51 8 9 19 30 22 45 5 18 13 27 23 25 8 -2 52 -45 96 -97z m3282 4
c8 -46 1 -44 -29 9 -18 32 -22 48 -15 61 9 15 11 14 24 -10 7 -14 16 -41 20
-60z"/>
<path d="M3221 3468 c0 -204 17 -260 34 -120 5 39 11 52 22 50 10 -2 26 21 49
72 18 41 35 80 38 85 8 17 26 -19 26 -52 0 -63 30 -33 88 90 2 4 -55 7 -127 7
l-131 0 1 -132z"/>
<path d="M3615 3570 c9 -16 22 -30 30 -30 10 0 15 10 15 30 0 27 -3 30 -30 30
l-31 0 16 -30z"/>
<path d="M4763 2897 c-17 -20 -39 -65 -52 -108 -13 -41 -34 -107 -47 -148
l-24 -74 66 -211 c36 -116 72 -229 79 -251 12 -35 14 16 14 393 1 237 -1 432
-3 432 -2 0 -17 -15 -33 -33z"/>
<path d="M2145 1409 c-439 -9 -987 -27 -1190 -39 -88 -6 -194 -10 -236 -10
l-76 0 -36 -97 c-83 -226 -154 -491 -181 -678 -9 -60 -21 -114 -26 -119 -5 -5
-49 -25 -97 -45 -48 -20 -136 -63 -195 -94 l-108 -58 0 -135 0 -134 411 0
c380 0 413 1 425 17 61 79 170 320 286 638 38 105 71 191 72 193 2 1 1 -34 -2
-79 -3 -44 1 -167 8 -272 16 -229 15 -191 6 -359 l-8 -138 1191 0 1191 0 -1
43 c0 23 -4 82 -8 132 -10 120 11 448 28 429 4 -5 18 -38 31 -74 63 -176 166
-407 222 -497 l20 -33 464 0 465 0 -3 116 -3 115 -95 51 c-112 59 -275 134
-345 158 l-50 17 -7 59 c-24 192 -32 240 -58 349 -25 104 -105 377 -125 428
-4 9 -3 17 2 17 12 0 43 65 43 90 0 20 -11 20 -837 18 -461 -1 -991 -5 -1178
-9z"/>
</g>
</svg>
