<?xml version="1.0" standalone="no"?>
<!DOCTYPE svg PUBLIC "-//W3C//DTD SVG 20010904//EN"
 "http://www.w3.org/TR/2001/REC-SVG-20010904/DTD/svg10.dtd">
<svg version="1.0" xmlns="http://www.w3.org/2000/svg"
 width="480.000000pt" height="360.000000pt" viewBox="0 0 480.000000 360.000000"
 preserveAspectRatio="xMidYMid meet">
<metadata>
Created by potrace 1.16, written by Peter Selinger 2001-2019
</metadata>
<rect width="1" height="360" fill="#000000"/>
<rect x="479" width="1" height="360" fill="#000000"/>
<rect width="480" height="1" fill="#000000"/>
<rect y="359" width="480" height="1" fill="#000000"/>
<g transform="translate(0.000000,360.000000) scale(0.100000,-0.100000)"
fill="#000000" stroke="none">
<path d="M0 1800 l0 -1800 350 0 c193 0 350 1 350 3 0 1 38 85 85 185 l85 183
-12 154 c-6 85 -15 152 -19 149 -4 -2 -9 1 -11 8 -9 27 47 335 83 454 7 22 5
43 -6 74 -30 85 17 314 145 709 28 88 45 170 99 471 30 166 65 233 189 356
137 135 157 146 286 148 l104 1 11 34 c12 40 -5 81 -45 107 -39 26 -47 50 -28
79 23 35 76 33 159 -4 35 -16 85 -31 110 -32 42 -3 47 0 65 28 10 17 28 34 39
38 12 4 36 35 58 77 46 89 117 167 193 213 82 50 94 43 30 -15 l-55 -50 48 20
c57 23 60 15 7 -22 -21 -15 -57 -51 -80 -80 -23 -29 -52 -66 -65 -83 -14 -16
-25 -33 -25 -37 0 -3 23 2 50 13 28 10 69 19 93 19 38 -1 40 -2 24 -14 -14
-11 -15 -15 -5 -20 16 -7 12 -9 -76 -44 -60 -23 -71 -31 -78 -58 -4 -17 -17
-39 -28 -49 -19 -18 -19 -18 5 -47 14 -16 25 -36 25 -43 0 -8 17 -26 38 -41
61 -45 102 -87 102 -104 0 -9 -11 -27 -25 -40 -24 -23 -25 -23 -76 -7 -69 23
-81 22 -111 -10 l-27 -28 46 -60 c25 -33 59 -87 74 -120 27 -55 29 -69 29
-177 0 -112 -10 -153 -25 -105 -6 19 -8 17 -14 -16 -8 -38 -21 -61 -21 -37 0
8 -19 -4 -41 -25 -23 -22 -39 -34 -35 -27 11 19 -9 14 -29 -8 -18 -20 -55 -28
-55 -12 0 4 -16 8 -36 9 -35 1 -36 0 -32 -30 3 -18 7 -38 9 -46 3 -9 -8 -17
-30 -23 -52 -14 -95 -52 -120 -108 l-23 -50 21 -29 c20 -27 58 -95 104 -183
10 -21 21 -57 24 -80 3 -24 11 -57 19 -75 8 -17 14 -44 13 -60 0 -15 -3 -21
-6 -13 -2 8 -7 21 -9 29 -4 12 -7 12 -20 -1 -14 -14 -14 -20 2 -67 12 -38 19
-49 26 -39 7 9 8 4 4 -14 -4 -16 -3 -28 1 -28 4 0 68 33 142 73 75 41 148 77
164 81 l27 6 -1 88 c-1 141 40 210 129 214 88 3 132 -68 132 -212 l0 -88 37
-13 c20 -6 93 -43 162 -80 69 -38 129 -69 134 -69 4 0 5 12 1 27 -4 21 -3 24
5 13 9 -13 10 -13 14 0 2 8 9 30 15 48 7 22 8 42 2 58 -12 32 -18 30 -29 -8
-8 -27 -9 -29 -10 -9 -1 13 5 44 13 70 8 25 19 66 25 91 8 37 73 165 131 256
11 18 9 28 -13 77 -14 32 -31 57 -38 57 -7 0 -20 7 -30 16 -10 9 -33 20 -51
24 -22 4 -32 12 -29 21 14 52 13 61 -15 90 -15 16 -33 29 -38 29 -6 0 1 -12
17 -25 34 -30 34 -37 2 -25 -14 5 -36 10 -48 10 -61 -1 -87 13 -118 64 -16 27
-17 27 -24 7 -3 -12 -10 -21 -15 -21 -16 0 -23 91 -18 222 5 123 7 130 39 183
18 30 53 76 76 102 24 25 43 50 43 54 0 4 -29 58 -64 118 -53 91 -145 278
-169 341 -3 8 -13 33 -22 55 -17 39 -17 40 1 23 11 -9 53 -62 94 -117 76 -102
102 -119 129 -87 10 11 2 33 -34 107 -26 50 -48 101 -50 111 -4 17 -2 18 12 6
42 -34 200 -229 259 -319 57 -87 69 -100 88 -94 72 22 109 26 181 21 47 -4 97
-15 120 -26 22 -11 86 -64 141 -119 129 -125 171 -203 198 -361 42 -249 78
-414 120 -545 24 -77 57 -192 74 -255 36 -135 61 -346 45 -375 -8 -13 -7 -27
3 -50 19 -47 52 -175 79 -315 29 -148 30 -154 10 -146 -14 5 -15 -4 -13 -61
l3 -66 70 -22 c127 -39 186 -77 299 -191 85 -84 116 -125 159 -202 30 -53 60
-112 67 -129 l12 -33 109 0 109 0 0 1800 0 1800 -2400 0 -2400 0 0 -1800z"/>
<path d="M2807 2924 c-5 -28 18 -84 34 -84 4 0 11 -9 14 -21 5 -14 10 -18 17
-11 6 6 -2 33 -25 77 -32 65 -34 67 -40 39z"/>
<path d="M2390 1649 c0 -5 5 -7 10 -4 6 3 10 8 10 11 0 2 -4 4 -10 4 -5 0 -10
-5 -10 -11z"/>
<path d="M2095 1164 c-66 -47 -144 -99 -173 -115 -46 -27 -72 -54 -72 -74 0
-14 52 6 182 70 73 36 150 71 171 77 l38 11 -3 55 c-2 31 -7 57 -13 58 -5 2
-64 -35 -130 -82z"/>
<path d="M2566 1234 c-3 -9 -6 -34 -6 -57 0 -42 1 -42 53 -61 28 -10 114 -49
190 -87 110 -55 139 -66 144 -54 7 19 -12 42 -51 62 -17 9 -95 60 -172 114
-78 55 -144 99 -147 99 -3 0 -8 -7 -11 -16z"/>
<path d="M2377 1083 c-9 -27 -21 -67 -27 -90 -12 -47 -41 -74 -130 -118 -30
-15 -126 -70 -213 -122 -192 -115 -203 -119 -251 -99 l-36 15 0 -78 c0 -92 28
-261 73 -451 l33 -135 616 -3 615 -2 7 177 c4 98 11 238 16 312 5 74 7 144 4
157 -5 21 -7 21 -44 7 -35 -14 -41 -14 -84 5 -25 12 -92 50 -149 85 -56 35
-142 86 -192 112 -130 69 -153 88 -165 138 -16 63 -43 137 -50 137 -3 0 -13
-21 -23 -47z"/>
</g>
</svg>
