<?xml version="1.0" standalone="no"?>
<!DOCTYPE svg PUBLIC "-//W3C//DTD SVG 20010904//EN"
 "http://www.w3.org/TR/2001/REC-SVG-20010904/DTD/svg10.dtd">
<svg version="1.0" xmlns="http://www.w3.org/2000/svg"
 width="480.000000pt" height="360.000000pt" viewBox="0 0 480.000000 360.000000"
 preserveAspectRatio="xMidYMid meet">
<metadata>
Created by potrace 1.16, written by Peter Selinger 2001-2019
</metadata>
<rect width="1" height="360" fill="#000000"/>
<rect x="479" width="1" height="360" fill="#000000"/>
<rect width="480" height="1" fill="#000000"/>
<rect y="359" width="480" height="1" fill="#000000"/>
<g transform="translate(0.000000,360.000000) scale(0.100000,-0.100000)"
fill="#000000" stroke="none">
<path d="M0 2731 c0 -671 3 -870 12 -873 7 -3 25 2 40 10 25 12 28 18 28 68 0
30 4 54 8 54 5 0 17 -18 27 -40 21 -47 17 -139 -13 -328 -18 -109 -20 -114
-60 -155 l-42 -43 0 -165 0 -165 28 -21 c26 -19 30 -31 41 -110 6 -48 16 -102
21 -118 7 -20 5 -126 -4 -315 -14 -262 -17 -294 -45 -390 -16 -58 -33 -113
-36 -122 -7 -17 29 -18 660 -18 l668 0 -6 123 c-7 152 17 307 63 415 17 40 38
108 46 150 37 195 89 290 225 414 l83 76 -38 228 c-105 639 -156 765 -457
1144 -129 163 -183 259 -222 399 -18 65 -21 103 -21 271 0 219 10 274 56 320
41 41 83 46 165 20 183 -59 418 -289 515 -505 64 -144 172 -432 222 -590 60
-195 96 -407 132 -785 14 -151 30 -279 34 -283 4 -5 25 -4 46 2 119 31 310 30
449 -3 33 -8 61 -13 63 -11 2 1 9 83 17 181 20 244 33 354 55 454 36 161 71
240 161 360 61 81 256 271 304 296 17 8 39 23 50 33 78 69 323 194 470 241
103 32 271 39 345 13 69 -24 80 -44 80 -149 0 -69 3 -84 20 -99 12 -10 30 -34
41 -52 39 -62 13 -120 -97 -225 -133 -125 -229 -175 -545 -278 -316 -104 -372
-137 -429 -253 -44 -92 -58 -159 -90 -448 l-29 -263 23 -31 c14 -17 49 -51 79
-76 112 -91 200 -235 239 -389 6 -25 26 -78 44 -119 63 -138 72 -231 48 -508
l-7 -73 667 0 666 0 0 1800 0 1800 -2400 0 -2400 0 0 -869z"/>
</g>
</svg>
