<?xml version="1.0" standalone="no"?>
<!DOCTYPE svg PUBLIC "-//W3C//DTD SVG 20010904//EN"
 "http://www.w3.org/TR/2001/REC-SVG-20010904/DTD/svg10.dtd">
<svg version="1.0" xmlns="http://www.w3.org/2000/svg"
 width="480.000000pt" height="360.000000pt" viewBox="0 0 480.000000 360.000000"
 preserveAspectRatio="xMidYMid meet">
<metadata>
Created by potrace 1.16, written by Peter Selinger 2001-2019
</metadata>
<rect width="1" height="360" fill="#000000"/>
<rect x="479" width="1" height="360" fill="#000000"/>
<rect width="480" height="1" fill="#000000"/>
<rect y="359" width="480" height="1" fill="#000000"/>
<g transform="translate(0.000000,360.000000) scale(0.100000,-0.100000)"
fill="#000000" stroke="none">
<path d="M0 1800 l0 -1800 1073 0 c1052 0 1071 0 1042 19 -51 31 -74 59 -110
132 -20 38 -38 69 -41 69 -3 0 -17 -14 -31 -30 -14 -17 -27 -29 -30 -26 -2 2
3 28 11 57 21 71 21 72 -19 114 -19 20 -39 53 -45 73 -29 91 -43 122 -59 122
-29 0 -81 39 -81 60 0 11 -9 36 -19 56 -23 43 -19 59 20 80 52 26 110 105 101
133 -3 9 -9 4 -16 -13 l-11 -27 -50 33 c-27 18 -56 40 -63 50 -7 10 -25 18
-40 18 -16 0 -38 11 -55 28 -33 33 -107 142 -107 159 0 6 -5 24 -11 40 l-11
28 -13 -30 -13 -30 -6 25 c-3 14 -7 69 -9 123 l-2 99 -27 -21 c-29 -24 -43
-27 -31 -8 4 6 -5 4 -21 -6 -15 -10 -30 -17 -32 -14 -3 2 11 31 30 64 61 104
147 303 141 324 -8 24 -12 24 -53 -1 -52 -32 -74 -26 -96 23 -11 23 -22 53
-25 66 -10 40 -31 46 -100 29 -75 -18 -114 -13 -126 15 -10 22 -26 25 -85 16
-21 -3 -26 0 -28 24 -2 20 -14 35 -37 48 -18 11 -36 27 -39 36 -9 24 13 84 42
116 36 38 90 36 234 -8 l115 -34 104 15 c117 16 231 47 247 66 6 7 24 49 42
93 85 215 182 312 400 402 60 25 60 25 187 134 112 96 167 135 273 188 47 24
96 51 110 61 14 9 41 25 61 34 19 9 59 41 89 72 114 117 401 319 575 403 94
46 152 66 265 89 29 6 -626 10 -1787 11 l-1833 1 0 -1800z"/>
<path d="M4000 3585 c0 -9 11 -33 25 -54 14 -20 30 -52 35 -70 11 -41 -3 -118
-35 -181 -20 -39 -23 -67 -29 -220 -15 -394 -33 -544 -96 -825 -21 -93 -48
-228 -60 -300 -12 -71 -38 -175 -57 -230 -42 -118 -43 -133 -15 -250 12 -49
28 -161 34 -249 l12 -159 37 -23 c67 -42 99 -106 67 -131 -7 -6 -36 -18 -65
-28 -59 -21 -53 -10 -78 -170 -9 -55 -22 -125 -30 -155 -13 -48 -12 -57 1 -77
15 -23 7 -32 -12 -13 -8 8 -18 -10 -34 -57 -40 -121 -38 -117 -57 -102 -9 8
-24 28 -35 44 l-18 30 0 -26 c0 -39 21 -143 31 -155 7 -8 22 -8 54 -1 37 9 52
7 79 -6 19 -8 49 -19 68 -22 32 -6 188 -121 196 -145 2 -6 147 -10 393 -10
l389 0 0 1800 0 1800 -400 0 c-351 0 -400 -2 -400 -15z"/>
<path d="M2996 100 c-9 -22 -16 -54 -16 -70 0 -25 4 -30 25 -30 24 0 24 1 18
67 -3 38 -7 69 -8 71 -1 2 -10 -15 -19 -38z"/>
<path d="M3426 24 c-57 -21 -56 -24 8 -24 48 0 57 3 54 17 -4 22 -16 24 -62 7z"/>
<path d="M3170 21 c0 -6 4 -13 10 -16 6 -3 7 1 4 9 -7 18 -14 21 -14 7z"/>
</g>
</svg>
