<?xml version="1.0" standalone="no"?>
<!DOCTYPE svg PUBLIC "-//W3C//DTD SVG 20010904//EN"
 "http://www.w3.org/TR/2001/REC-SVG-20010904/DTD/svg10.dtd">
<svg version="1.0" xmlns="http://www.w3.org/2000/svg"
 width="480.000000pt" height="360.000000pt" viewBox="0 0 480.000000 360.000000"
 preserveAspectRatio="xMidYMid meet">
<metadata>
Created by potrace 1.16, written by Peter Selinger 2001-2019
</metadata>
<rect width="1" height="360" fill="#000000"/>
<rect x="479" width="1" height="360" fill="#000000"/>
<rect width="480" height="1" fill="#000000"/>
<rect y="359" width="480" height="1" fill="#000000"/>
<g transform="translate(0.000000,360.000000) scale(0.100000,-0.100000)"
fill="#000000" stroke="none">
<path d="M0 1800 l0 -1800 2146 0 c1959 0 2146 1 2140 16 -22 58 -22 59 66
106 46 25 110 53 143 63 151 45 179 57 223 88 26 19 55 37 65 40 16 6 17 94
17 1647 l0 1640 -287 0 -288 0 -33 -233 c-58 -418 -58 -418 -36 -674 29 -347
22 -478 -37 -677 -19 -62 -21 -93 -20 -290 2 -246 -4 -223 88 -333 36 -43 62
-61 150 -103 128 -61 189 -108 215 -167 38 -85 -1 -140 -92 -131 -62 6 -90 25
-143 95 -69 92 -119 144 -159 164 -34 17 -68 25 -68 15 0 -26 -35 -176 -49
-209 -51 -120 -27 -249 67 -349 14 -15 23 -30 20 -33 -3 -3 -32 3 -64 14 -32
11 -62 17 -66 15 -3 -2 -32 35 -63 83 -176 271 -350 403 -586 448 -81 15 -222
15 -270 0 -9 -3 -29 5 -45 18 -54 45 -213 138 -295 173 -182 77 -320 97 -459
69 -161 -33 -291 -90 -453 -198 -72 -48 -103 -63 -121 -60 l-25 5 22 44 c17
36 19 48 9 62 -6 9 -21 34 -33 55 -11 22 -22 37 -25 35 -6 -7 -26 -100 -26
-125 0 -13 -2 -23 -3 -23 -2 0 -34 41 -72 91 -58 78 -69 88 -73 69 -4 -18 -12
-7 -38 51 -34 77 -37 78 -69 20 -10 -19 -24 -36 -30 -38 -15 -5 -40 52 -58
133 -13 58 -50 167 -63 184 -1 2 -12 -1 -23 -8 -19 -12 -19 -12 -4 17 10 21
15 59 15 122 l0 92 -25 -27 c-17 -19 -31 -25 -44 -21 -11 3 -29 0 -40 -7 -37
-23 -34 0 9 79 24 43 57 103 73 133 16 30 35 62 42 70 7 8 20 30 30 49 l17 33
-60 -7 c-81 -9 -116 9 -171 85 -63 90 -70 93 -172 73 -81 -15 -88 -15 -132 2
-60 23 -68 38 -51 96 16 52 67 108 116 125 81 30 243 14 432 -41 77 -22 94
-24 125 -14 73 24 148 68 188 112 48 52 61 75 118 214 77 185 181 311 390 469
60 46 128 99 150 118 l40 35 -1122 1 -1123 0 0 -1800z m4109 -1287 c17 -27 38
-59 48 -72 17 -24 17 -24 -3 -13 -11 6 -26 17 -32 24 -12 15 -53 108 -48 108
3 0 18 -21 35 -47z"/>
</g>
</svg>
