<?xml version="1.0" standalone="no"?>
<!DOCTYPE svg PUBLIC "-//W3C//DTD SVG 20010904//EN"
 "http://www.w3.org/TR/2001/REC-SVG-20010904/DTD/svg10.dtd">
<svg version="1.0" xmlns="http://www.w3.org/2000/svg"
 width="480.000000pt" height="360.000000pt" viewBox="0 0 480.000000 360.000000"
 preserveAspectRatio="xMidYMid meet">
<metadata>
Created by potrace 1.16, written by Peter Selinger 2001-2019
</metadata>
<rect width="1" height="360" fill="#000000"/>
<rect x="479" width="1" height="360" fill="#000000"/>
<rect width="480" height="1" fill="#000000"/>
<rect y="359" width="480" height="1" fill="#000000"/>
<g transform="translate(0.000000,360.000000) scale(0.100000,-0.100000)"
fill="#000000" stroke="none">
<path d="M0 1800 l0 -1800 2400 0 2400 0 0 795 c0 437 -4 795 -8 795 -5 0 -69
-18 -142 -40 -452 -136 -721 -184 -894 -161 -158 21 -235 63 -417 222 -313
274 -507 439 -517 439 -17 0 -67 -79 -121 -190 -87 -178 -133 -235 -183 -224
-21 4 -28 2 -28 -10 0 -19 20 -20 74 -5 21 6 59 8 85 4 l47 -6 -4 -92 c-2 -51
1 -110 7 -132 8 -30 8 -55 -1 -97 -21 -104 31 -253 122 -347 45 -46 43 -49
-50 -97 -45 -23 -70 -28 -138 -31 -45 -1 -91 -7 -101 -13 -25 -13 -67 -13 -91
0 -17 9 -17 13 -5 37 47 90 40 191 -20 318 -21 45 -39 105 -50 170 -23 140
-33 187 -40 206 -5 14 7 21 60 39 36 12 65 26 63 32 -2 5 -35 22 -73 37 -111
43 -135 66 -135 126 0 37 -12 30 -42 -23 l-27 -48 16 -94 c12 -75 23 -106 49
-147 35 -53 42 -77 23 -88 -21 -14 -59 7 -117 63 -55 53 -61 62 -73 124 -7 37
-16 65 -21 62 -4 -3 -8 -47 -8 -98 0 -141 -35 -153 -95 -33 -19 38 -25 67 -26
116 l0 66 -15 -48 c-30 -97 -74 -67 -74 50 0 117 46 219 168 376 54 69 92 98
316 240 191 121 250 152 327 172 106 28 170 15 401 -81 73 -31 232 -89 353
-131 245 -83 374 -140 471 -208 36 -25 69 -45 73 -45 4 0 91 42 192 93 101 51
273 128 382 171 108 44 197 85 197 91 0 7 -9 19 -21 26 -31 21 -15 43 52 72
l59 26 0 560 0 561 -2400 0 -2400 0 0 -1800z"/>
<path d="M2400 1975 c-7 -8 -16 -47 -21 -87 -14 -122 -14 -121 33 -140 40 -17
42 -17 55 2 8 11 22 20 31 20 10 0 28 7 40 16 18 13 22 24 22 72 0 90 -6 100
-63 117 -63 19 -81 19 -97 0z"/>
</g>
</svg>
