<?xml version="1.0" standalone="no"?>
<!DOCTYPE svg PUBLIC "-//W3C//DTD SVG 20010904//EN"
 "http://www.w3.org/TR/2001/REC-SVG-20010904/DTD/svg10.dtd">
<svg version="1.0" xmlns="http://www.w3.org/2000/svg"
 width="480.000000pt" height="360.000000pt" viewBox="0 0 480.000000 360.000000"
 preserveAspectRatio="xMidYMid meet">
<metadata>
Created by potrace 1.16, written by Peter Selinger 2001-2019
</metadata>
<rect width="1" height="360" fill="#000000"/>
<rect x="479" width="1" height="360" fill="#000000"/>
<rect width="480" height="1" fill="#000000"/>
<rect y="359" width="480" height="1" fill="#000000"/>
<g transform="translate(0.000000,360.000000) scale(0.100000,-0.100000)"
fill="#000000" stroke="none">
<path d="M2456 3145 c-92 -32 -142 -69 -177 -130 -24 -41 -29 -62 -29 -116 l0
-67 -52 -22 c-66 -28 -88 -47 -88 -75 0 -29 32 -69 68 -84 24 -10 30 -21 40
-69 17 -82 50 -126 122 -159 46 -21 59 -31 55 -44 -4 -12 10 -32 40 -63 40
-39 46 -50 44 -80 -4 -40 9 -61 18 -28 7 28 14 28 43 -3 16 -17 27 -22 34 -15
5 5 18 10 27 10 9 0 19 7 23 15 10 27 34 16 46 -21 11 -31 10 -38 -7 -57 -11
-12 -24 -34 -31 -49 -6 -15 -36 -44 -66 -64 -48 -32 -106 -96 -106 -118 0 -4
-17 -33 -39 -64 -56 -83 -74 -122 -67 -146 7 -23 -33 -136 -48 -136 -6 0 -53
42 -106 94 -59 59 -107 97 -125 102 -17 3 -45 15 -63 26 -71 43 -199 61 -238
33 -27 -18 -84 -137 -84 -174 0 -35 27 -60 74 -68 28 -4 44 0 75 20 54 36 76
38 76 8 0 -19 24 -44 109 -113 60 -48 143 -119 186 -157 80 -72 83 -74 139
-72 46 1 121 78 184 187 49 83 51 83 64 -1 6 -34 13 -50 23 -50 24 0 57 -74
74 -162 17 -88 43 -153 62 -153 38 0 16 -113 -42 -217 -21 -38 -67 -125 -101
-195 -34 -70 -79 -151 -101 -180 -57 -78 -178 -189 -348 -321 -82 -64 -162
-127 -179 -141 l-30 -25 1113 -1 1113 0 -30 38 c-17 20 -50 62 -74 92 -28 36
-66 68 -108 92 -35 20 -72 44 -81 54 -23 22 -116 162 -158 237 l-33 58 27 28
c51 53 60 162 26 297 -17 65 -18 83 -8 102 9 18 9 30 1 53 l-11 30 65 29 c88
40 142 86 178 151 28 50 30 62 30 154 0 92 -3 105 -32 165 -31 63 -98 151
-212 276 -29 32 -107 133 -172 224 -141 196 -171 227 -269 277 -81 42 -112 79
-84 100 14 10 13 12 -4 17 -13 4 -27 32 -47 89 -40 118 -58 154 -120 232 -31
38 -55 79 -55 92 0 71 -74 187 -146 229 -94 55 -294 70 -408 29z m-36 -713 c0
-21 -2 -24 -10 -12 -13 20 -13 53 0 45 6 -3 10 -18 10 -33z m1024 -1392 c18
-6 27 -19 31 -44 11 -59 2 -59 -55 -1 -52 52 -53 55 -28 55 15 0 38 -4 52 -10z"/>
</g>
</svg>
