<?xml version="1.0" standalone="no"?>
<!DOCTYPE svg PUBLIC "-//W3C//DTD SVG 20010904//EN"
 "http://www.w3.org/TR/2001/REC-SVG-20010904/DTD/svg10.dtd">
<svg version="1.0" xmlns="http://www.w3.org/2000/svg"
 width="480.000000pt" height="360.000000pt" viewBox="0 0 480.000000 360.000000"
 preserveAspectRatio="xMidYMid meet">
<metadata>
Created by potrace 1.16, written by Peter Selinger 2001-2019
</metadata>
<rect width="1" height="360" fill="#000000"/>
<rect x="479" width="1" height="360" fill="#000000"/>
<rect width="480" height="1" fill="#000000"/>
<rect y="359" width="480" height="1" fill="#000000"/>
<g transform="translate(0.000000,360.000000) scale(0.100000,-0.100000)"
fill="#000000" stroke="none">
<path d="M1435 3548 c-52 -175 43 -418 206 -527 35 -23 95 -52 136 -63 40 -12
73 -25 73 -29 0 -10 -164 -21 -218 -13 -65 8 -87 -5 -100 -59 -9 -35 -20 -49
-59 -74 -88 -57 -119 -112 -68 -121 34 -7 73 -52 99 -118 32 -78 32 -100 5
-176 -12 -32 -20 -61 -17 -64 3 -2 17 1 32 7 14 7 28 10 31 8 2 -3 9 -41 15
-85 5 -43 15 -108 21 -143 9 -51 8 -65 -3 -72 -18 -11 -19 -200 0 -207 18 -6
16 -107 -5 -138 -23 -36 -30 -166 -11 -196 20 -31 13 -90 -18 -153 -29 -60
-42 -162 -25 -194 15 -28 -1 -85 -35 -121 -31 -33 -70 -176 -54 -195 18 -22
-7 -77 -56 -124 -48 -47 -90 -145 -80 -186 9 -35 -25 -98 -67 -123 -46 -26
-122 -173 -107 -203 14 -26 -23 -109 -48 -109 -16 0 -62 -49 -62 -65 0 -3 36
-5 80 -5 44 0 80 3 80 6 0 3 -5 14 -11 25 -8 17 -6 28 15 59 14 21 35 41 46
45 26 8 96 113 112 167 8 29 8 42 0 50 -17 17 33 105 63 112 30 8 56 45 84
121 18 48 20 63 11 81 -16 28 18 109 49 119 27 8 45 44 62 118 10 47 10 63 0
79 -19 31 -4 96 30 127 24 22 30 39 40 104 10 68 9 80 -6 103 -22 34 -13 113
16 154 29 38 33 195 7 214 -12 9 -18 27 -18 55 l0 43 51 -56 c64 -70 161 -143
401 -303 103 -69 188 -128 188 -132 0 -3 -8 -18 -18 -32 -9 -15 -30 -46 -46
-70 -16 -24 -42 -59 -57 -77 -24 -27 -29 -42 -29 -88 0 -44 -8 -72 -39 -137
-42 -87 -52 -128 -76 -327 -19 -153 -11 -240 31 -320 20 -39 31 -81 39 -145
l10 -90 378 -3 377 -2 -5 27 -6 28 16 -27 16 -28 274 0 c151 0 275 2 275 3 0
2 -9 30 -21 63 -11 33 -22 94 -25 139 l-4 80 34 -95 c60 -169 69 -190 88 -190
19 0 19 -4 -9 175 -15 102 -64 323 -108 487 -14 51 -36 136 -50 187 -31 118
-34 230 -7 254 10 10 25 17 32 17 20 0 118 78 188 150 69 70 135 161 158 215
24 59 13 233 -22 327 -8 24 -16 49 -17 57 -1 8 39 32 108 64 l110 49 40 -22
c22 -13 60 -34 84 -46 24 -13 59 -35 77 -49 19 -14 34 -23 34 -20 0 12 -44 67
-90 112 -40 39 -42 43 -17 34 48 -18 55 -15 54 32 0 23 3 52 7 64 6 17 2 29
-21 51 -50 50 -183 67 -296 37 -32 -8 -84 -15 -115 -15 -43 0 -71 -7 -114 -29
-52 -27 -59 -28 -67 -13 -8 13 -2 25 26 54 20 20 43 60 54 90 15 46 24 56 66
79 37 20 54 38 75 79 16 29 28 63 28 75 0 37 43 79 93 92 92 25 135 91 132
201 -2 69 -6 79 -24 58 -9 -10 -22 -13 -42 -9 -30 6 -37 -5 -17 -25 6 -6 10
-13 7 -15 -2 -3 -47 -34 -100 -70 -69 -48 -99 -63 -107 -55 -16 16 -42 2 -42
-24 0 -18 -20 -36 -81 -76 -72 -46 -84 -51 -119 -46 -30 5 -42 2 -59 -15 -12
-12 -21 -32 -21 -46 0 -18 -14 -36 -51 -65 -28 -22 -54 -40 -59 -40 -4 0 -52
21 -106 47 -92 44 -106 47 -194 51 -136 6 -334 -28 -232 -40 26 -3 25 -4 -22
-36 -28 -17 -58 -32 -68 -32 -10 0 -18 -4 -18 -10 0 -5 5 -10 11 -10 6 0 1
-12 -10 -27 -61 -79 -81 -112 -65 -106 15 5 14 3 -2 -22 -18 -28 -18 -28 4
-21 20 7 22 4 20 -24 -3 -40 -20 -47 -64 -26 -50 23 -54 21 -54 -27 0 -33 -6
-49 -25 -67 -14 -13 -25 -34 -25 -47 0 -13 -4 -23 -10 -23 -5 0 -10 -7 -10
-15 0 -9 -9 -33 -20 -55 -11 -22 -20 -49 -20 -60 0 -20 92 -153 125 -180 19
-15 19 -40 1 -65 -12 -17 -18 -15 -97 42 -136 98 -257 174 -364 229 l-100 51
-6 64 c-3 35 -23 142 -44 237 -40 179 -40 181 0 195 5 2 2 12 -8 21 -22 22
-67 110 -67 130 0 8 9 17 20 21 10 3 39 28 63 55 l44 49 12 -25 c20 -45 105
-126 166 -158 58 -30 65 -31 180 -31 l119 0 30 -42 c34 -49 54 -53 104 -23 38
23 40 41 12 106 l-21 47 31 36 c70 83 110 178 110 261 0 44 -26 152 -44 188
-22 43 -83 100 -142 133 -40 23 -54 37 -54 53 0 12 -4 26 -10 32 -6 6 -4 27 6
59 20 62 23 216 5 268 l-13 37 -473 0 -474 0 -16 -52z m75 -854 c0 -34 -1 -36
-27 -29 -39 9 -39 12 -13 40 32 34 40 32 40 -11z m2170 -243 c0 -14 -50 -71
-62 -71 -5 0 5 18 22 40 33 41 40 47 40 31z m-184 -239 c-18 -16 -18 -16 -6 6
6 13 14 21 18 18 3 -4 -2 -14 -12 -24z m-1867 -320 c1 -15 -4 -22 -11 -20 -15
5 -22 43 -13 66 6 15 8 15 15 -3 5 -11 9 -30 9 -43z m51 -295 c0 -58 -10 -75
-43 -80 -18 -2 -34 -3 -36 -1 -2 2 0 28 3 58 7 54 7 54 42 54 32 0 34 -2 34
-31z m-40 -354 c0 -47 -8 -58 -42 -67 -27 -6 -28 -5 -28 29 0 49 16 75 45 75
22 0 25 -4 25 -37z m-74 -310 c-2 -10 -7 -32 -11 -49 -5 -26 -11 -31 -35 -32
-22 0 -30 4 -29 16 2 41 16 67 39 73 39 11 42 10 36 -8z m-116 -318 c0 -13
-24 -71 -35 -83 -6 -7 -55 11 -55 19 0 5 7 25 14 44 13 29 20 35 45 35 21 0
31 -5 31 -15z m-152 -310 c2 -2 -6 -18 -16 -36 -10 -19 -24 -44 -30 -56 l-12
-22 -25 25 c-14 14 -25 27 -25 29 0 2 9 20 21 39 18 32 24 35 52 29 18 -3 33
-7 35 -8z"/>
<path d="M835 10 c-4 -6 3 -10 14 -10 25 0 27 6 6 13 -8 4 -17 2 -20 -3z"/>
</g>
</svg>
