<?xml version="1.0" standalone="no"?>
<!DOCTYPE svg PUBLIC "-//W3C//DTD SVG 20010904//EN"
 "http://www.w3.org/TR/2001/REC-SVG-20010904/DTD/svg10.dtd">
<svg version="1.0" xmlns="http://www.w3.org/2000/svg"
 width="480.000000pt" height="360.000000pt" viewBox="0 0 480.000000 360.000000"
 preserveAspectRatio="xMidYMid meet">
<metadata>
Created by potrace 1.16, written by Peter Selinger 2001-2019
</metadata>
<rect width="1" height="360" fill="#000000"/>
<rect x="479" width="1" height="360" fill="#000000"/>
<rect width="480" height="1" fill="#000000"/>
<rect y="359" width="480" height="1" fill="#000000"/>
<g transform="translate(0.000000,360.000000) scale(0.100000,-0.100000)"
fill="#000000" stroke="none">
<path d="M1502 3513 c-135 -35 -287 -157 -371 -297 -111 -186 -92 -368 57
-544 86 -101 196 -153 355 -167 37 -4 67 -10 67 -13 0 -9 -108 -38 -215 -59
-88 -17 -105 -30 -105 -81 0 -27 -11 -46 -51 -90 -67 -73 -78 -97 -56 -120 15
-14 21 -15 38 -4 18 11 25 10 54 -12 18 -14 51 -52 73 -85 38 -58 39 -61 44
-171 4 -77 1 -134 -8 -179 -8 -36 -14 -88 -14 -116 0 -27 -7 -102 -14 -165
-15 -128 -13 -417 4 -565 22 -185 42 -312 60 -385 11 -41 26 -109 35 -150 17
-78 40 -155 73 -250 15 -43 24 -56 42 -58 19 -3 22 0 16 15 -4 10 -10 31 -13
47 -5 24 -3 27 13 24 13 -2 22 -16 28 -46 7 -35 13 -42 32 -42 28 0 29 4 8 61
-8 24 -22 76 -30 114 -8 39 -21 88 -28 110 -8 22 -23 83 -34 135 -11 52 -28
129 -37 170 -47 222 -70 662 -45 875 6 50 13 121 15 159 3 38 6 71 8 72 2 2
27 -53 56 -121 97 -227 168 -274 516 -335 66 -11 141 -25 168 -31 l47 -11 -25
-29 c-13 -17 -29 -48 -35 -70 -6 -22 -38 -73 -73 -117 -121 -150 -141 -231
-142 -587 0 -143 4 -290 8 -328 l9 -67 370 0 371 0 -7 43 c-29 183 -17 270 55
389 44 73 65 87 56 38 -8 -38 6 -39 22 -2 l13 27 20 -39 c17 -34 52 -222 73
-398 l7 -58 249 0 c137 0 249 3 249 6 0 25 -38 140 -79 241 l-49 119 8 150 c8
147 37 328 80 514 28 117 46 169 106 310 44 103 59 123 59 82 0 -9 6 -16 13
-14 6 1 12 -8 12 -20 0 -13 7 -32 15 -42 13 -18 17 -18 41 -5 15 8 29 22 32
32 3 10 11 16 18 13 8 -3 20 3 26 14 7 11 18 20 24 20 15 0 74 60 74 76 0 7 9
16 20 19 11 3 32 26 46 51 14 24 29 44 33 44 3 0 18 21 31 47 14 27 31 52 37
58 19 15 63 160 63 207 0 35 -6 47 -42 81 -51 49 -130 87 -181 87 -21 0 -65
-9 -99 -21 -43 -14 -64 -17 -71 -10 -6 6 -19 11 -29 11 -38 0 -14 21 100 86
64 37 155 90 201 119 l84 53 45 -24 c55 -29 105 -30 164 -5 24 11 74 23 111
27 89 9 98 22 52 73 -20 22 -53 51 -73 63 l-37 23 52 6 c29 4 60 9 68 13 22 8
18 32 -10 54 -14 11 -25 22 -25 25 0 5 190 157 272 217 54 40 59 50 24 50 -66
0 -231 -72 -551 -240 -248 -130 -285 -147 -450 -202 -82 -27 -166 -59 -187
-69 -20 -10 -42 -19 -48 -19 -20 0 -10 19 20 36 40 24 75 92 66 127 -10 42
-41 67 -81 67 -34 0 -47 -14 -22 -23 19 -7 -54 -77 -88 -83 -38 -7 -55 -21
-55 -46 0 -23 -4 -23 -100 18 -84 35 -172 41 -274 20 -43 -9 -91 -16 -106 -16
-16 0 -31 -4 -34 -9 -3 -4 6 -6 19 -3 43 8 27 -16 -22 -34 -58 -21 -82 -40
-38 -30 l30 7 -37 -38 c-20 -21 -46 -58 -57 -83 -23 -51 -29 -122 -9 -102 19
19 30 14 23 -8 -4 -12 -1 -27 5 -35 20 -24 -32 -42 -74 -27 -61 22 -69 18 -62
-32 6 -37 4 -48 -13 -65 -12 -12 -21 -30 -21 -41 0 -11 -4 -28 -9 -38 -28 -56
-51 -115 -51 -131 0 -10 18 -30 39 -45 79 -55 79 -51 22 -164 l-50 -100 -53
14 c-135 36 -503 91 -558 82 -19 -3 -26 7 -50 72 -15 41 -41 102 -58 135 -88
178 -94 196 -78 214 14 16 11 22 -39 74 -51 52 -69 87 -46 87 13 0 81 114 81
135 0 11 15 0 46 -34 62 -69 154 -113 249 -119 57 -3 84 0 146 22 41 14 82 26
91 26 8 0 36 -16 62 -36 l46 -35 28 19 c46 33 67 62 57 76 -6 7 -23 32 -39 54
l-28 41 30 73 c46 112 54 151 43 211 -19 103 -51 168 -111 229 -50 50 -67 60
-134 80 -42 12 -76 26 -76 32 0 5 -8 18 -17 29 -13 14 -18 40 -20 108 -5 143
-57 259 -164 360 -52 49 -162 112 -216 124 -60 12 -148 12 -201 -2z m-196
-1329 c-5 -14 -56 -21 -56 -7 0 4 10 17 22 30 19 21 23 21 31 8 5 -9 6 -23 3
-31z m169 -422 c-3 -8 -5 -20 -5 -28 0 -8 -9 -14 -20 -14 -23 0 -26 23 -9 67
10 27 11 27 25 8 8 -11 12 -26 9 -33z m-15 -147 c0 -32 -21 -65 -41 -65 -5 0
-9 20 -9 45 0 31 5 47 17 54 25 13 33 5 33 -34z m-20 -169 c0 -48 -9 -66 -32
-66 -14 0 -18 5 -14 16 3 9 6 31 6 50 0 27 4 34 20 34 16 0 20 -7 20 -34z
m-10 -186 c0 -43 -3 -50 -20 -50 -17 0 -20 7 -20 50 0 43 3 50 20 50 17 0 20
-7 20 -50z m-2 -181 c-2 -32 -8 -45 -20 -47 -15 -3 -18 4 -18 46 0 31 5 52 13
55 21 8 28 -8 25 -54z m12 -165 c7 -48 3 -64 -15 -64 -17 0 -25 23 -25 72 0
32 3 39 18 36 12 -2 19 -16 22 -44z m15 -168 c9 -45 3 -71 -15 -71 -11 0 -16
14 -18 53 -2 41 0 52 12 52 9 0 18 -13 21 -34z m29 -162 c9 -24 7 -84 -3 -84
-15 0 -29 24 -36 63 -6 33 -5 37 13 37 11 0 23 -7 26 -16z m39 -193 c9 -36 4
-61 -12 -61 -13 0 -34 77 -26 91 12 18 29 4 38 -30z m46 -168 c14 -51 14 -53
-9 -53 -13 0 -24 10 -30 26 -16 41 -12 64 10 64 14 0 22 -11 29 -37z"/>
</g>
</svg>
