<?xml version="1.0" standalone="no"?>
<!DOCTYPE svg PUBLIC "-//W3C//DTD SVG 20010904//EN"
 "http://www.w3.org/TR/2001/REC-SVG-20010904/DTD/svg10.dtd">
<svg version="1.0" xmlns="http://www.w3.org/2000/svg"
 width="480.000000pt" height="360.000000pt" viewBox="0 0 480.000000 360.000000"
 preserveAspectRatio="xMidYMid meet">
<metadata>
Created by potrace 1.16, written by Peter Selinger 2001-2019
</metadata>
<rect width="1" height="360" fill="#000000"/>
<rect x="479" width="1" height="360" fill="#000000"/>
<rect width="480" height="1" fill="#000000"/>
<rect y="359" width="480" height="1" fill="#000000"/>
<g transform="translate(0.000000,360.000000) scale(0.100000,-0.100000)"
fill="#000000" stroke="none">
<path d="M0 1800 l0 -1800 971 0 970 0 -7 23 c-10 33 -70 156 -96 199 -89 143
-109 179 -121 228 -8 30 -12 60 -10 66 2 7 21 14 41 17 82 12 384 -12 540 -44
30 -6 56 -8 59 -6 8 9 -56 234 -94 331 -20 50 -55 135 -79 188 -32 70 -45 115
-49 165 -5 50 -17 92 -48 158 -48 105 -52 158 -19 246 21 53 68 113 106 134
15 9 17 17 11 43 -5 23 -12 32 -23 30 -15 -3 -17 6 -14 62 3 82 -14 154 -44
187 -13 14 -24 31 -24 38 0 18 -81 72 -142 95 -64 24 -114 69 -140 127 -10 23
-23 45 -28 48 -4 3 -11 33 -15 68 -5 51 -2 77 18 142 14 44 28 96 32 115 4 19
14 48 22 63 13 27 12 29 -16 57 -17 15 -31 33 -31 38 0 5 16 33 35 61 41 62
36 82 -32 131 -24 18 -42 37 -41 43 2 7 24 22 48 35 35 18 57 22 99 19 l53 -4
-5 43 c-6 54 8 60 51 23 41 -36 51 -36 87 1 35 36 53 37 99 6 27 -18 55 -25
121 -30 48 -4 97 -11 110 -16 12 -5 62 -11 111 -15 115 -8 179 -26 286 -82
108 -55 202 -140 256 -230 64 -109 88 -199 102 -392 l9 -126 46 -41 c25 -22
45 -43 45 -46 0 -4 -16 -8 -35 -10 l-34 -3 23 -65 c12 -36 26 -74 31 -85 8
-20 8 -20 -14 0 l-23 20 7 -40 c6 -39 6 -39 -9 -15 -13 21 -15 22 -16 6 0 -12
-5 -16 -16 -12 -8 3 -12 2 -9 -4 3 -6 -1 -10 -9 -10 -13 0 -14 -8 -9 -45 3
-27 2 -45 -4 -45 -12 0 -38 29 -46 50 -3 8 -6 -1 -7 -20 -1 -35 -2 -35 -13
-10 -6 14 -19 33 -28 43 -23 25 -30 4 -18 -54 13 -70 12 -75 -16 -49 -14 13
-25 18 -25 12 0 -13 -27 -12 -47 1 -9 6 -13 2 -13 -10 0 -32 14 -40 94 -52 49
-7 89 -19 108 -33 32 -22 94 -103 142 -184 l28 -48 29 34 c51 63 55 77 30 104
-18 19 -20 27 -12 49 6 15 16 27 23 27 28 0 143 85 146 108 2 12 -1 22 -6 22
-5 0 -14 19 -21 42 -12 37 -11 43 5 55 17 12 17 16 -4 80 -27 83 -29 184 -5
268 10 35 16 86 14 122 -1 34 3 72 10 84 10 20 9 21 -17 15 -16 -4 -37 -9 -46
-12 -10 -3 -18 -1 -18 5 0 6 5 11 11 11 8 0 8 4 1 13 -9 11 -16 46 -13 74 1 6
20 18 44 26 l42 14 0 64 c0 35 -6 127 -13 205 -16 183 -15 344 3 418 25 104
33 93 59 -84 3 -19 17 -150 31 -290 15 -139 29 -259 33 -266 5 -9 19 -8 55 4
53 17 67 10 66 -33 -1 -24 -32 -80 -45 -81 -5 0 -16 -3 -24 -7 -8 -3 -22 -7
-30 -10 -9 -2 5 -13 33 -25 47 -21 67 -48 67 -95 0 -12 12 -49 26 -82 14 -33
31 -78 37 -100 5 -22 22 -55 35 -73 33 -43 39 -115 18 -205 -9 -38 -16 -72
-16 -78 0 -5 19 -9 43 -9 55 0 87 -21 68 -43 -7 -9 -10 -21 -6 -27 4 -7 -2
-14 -13 -17 -11 -3 -23 -11 -26 -19 -3 -7 -20 -20 -39 -27 -51 -22 -72 -73
-70 -172 1 -44 0 -103 -3 -131 -5 -46 -8 -52 -31 -57 -19 -3 -33 2 -50 19 -13
13 -27 24 -31 24 -7 0 -33 -46 -170 -305 -29 -55 -62 -115 -73 -133 -24 -41
-11 -75 26 -70 28 3 29 1 20 -51 -8 -46 6 -77 37 -86 103 -29 160 -59 194
-100 30 -38 33 -46 23 -63 -11 -17 -8 -27 19 -68 38 -57 39 -64 7 -94 -18 -17
-31 -21 -55 -17 l-30 7 0 -94 c0 -52 -3 -102 -6 -111 -9 -22 -99 -66 -143 -70
-28 -2 -48 -14 -87 -52 -28 -28 -74 -63 -102 -78 -47 -25 -52 -32 -52 -62 l0
-33 755 0 755 0 0 1800 0 1800 -2400 0 -2400 0 0 -1800z"/>
<path d="M2050 2151 c0 -10 9 -29 20 -42 l19 -24 1 23 c0 28 -17 62 -30 62 -6
0 -10 -9 -10 -19z"/>
<path d="M2394 1821 c-23 -11 -44 -25 -46 -32 -4 -10 -11 -8 -25 9 -11 12 -23
22 -26 22 -5 0 -27 -57 -27 -71 0 -15 73 -10 120 9 39 15 45 21 48 50 1 17 1
32 0 32 -2 0 -22 -9 -44 -19z"/>
<path d="M2240 1766 c0 -9 5 -16 10 -16 6 0 10 4 10 9 0 6 -4 13 -10 16 -5 3
-10 -1 -10 -9z"/>
</g>
</svg>
