<?xml version="1.0" standalone="no"?>
<!DOCTYPE svg PUBLIC "-//W3C//DTD SVG 20010904//EN"
 "http://www.w3.org/TR/2001/REC-SVG-20010904/DTD/svg10.dtd">
<svg version="1.0" xmlns="http://www.w3.org/2000/svg"
 width="480.000000pt" height="360.000000pt" viewBox="0 0 480.000000 360.000000"
 preserveAspectRatio="xMidYMid meet">
<metadata>
Created by potrace 1.16, written by Peter Selinger 2001-2019
</metadata>
<rect width="1" height="360" fill="#000000"/>
<rect x="479" width="1" height="360" fill="#000000"/>
<rect width="480" height="1" fill="#000000"/>
<rect y="359" width="480" height="1" fill="#000000"/>
<g transform="translate(0.000000,360.000000) scale(0.100000,-0.100000)"
fill="#000000" stroke="none">
<path d="M0 1800 l0 -1800 2400 0 2400 0 0 1800 0 1800 -2400 0 -2400 0 0
-1800z m2637 800 c6 -31 21 -38 40 -19 13 13 108 5 133 -11 10 -6 14 -23 12
-52 -5 -87 -10 -112 -21 -116 -18 -6 -13 -30 9 -42 14 -8 19 -20 18 -43 -1
-18 5 -54 13 -80 13 -45 12 -50 -5 -62 -16 -12 -17 -19 -6 -62 6 -26 11 -58
11 -71 -1 -12 10 -39 23 -60 14 -20 34 -71 46 -112 12 -41 33 -95 46 -120 l24
-45 -21 -18 c-22 -17 -22 -18 -3 -53 13 -25 33 -42 62 -55 24 -11 45 -19 47
-19 2 0 6 15 10 33 9 43 51 114 75 127 69 37 113 -53 75 -152 -6 -15 1 -16 63
-11 65 5 70 4 77 -16 19 -62 17 -71 -29 -117 -28 -27 -49 -59 -56 -84 -29
-109 -65 -202 -101 -262 -36 -60 -44 -67 -79 -73 -22 -4 -50 -15 -62 -25 -13
-10 -58 -24 -100 -31 -72 -12 -79 -11 -98 6 -19 17 -27 18 -88 8 -37 -6 -131
-21 -210 -34 l-143 -22 -92 48 c-117 61 -157 92 -287 219 -58 56 -119 108
-136 115 -17 7 -48 30 -70 52 -21 21 -42 39 -47 39 -5 0 -31 21 -60 48 -173
161 -203 230 -159 372 31 96 37 98 392 121 250 16 290 11 435 -50 104 -44 122
-49 131 -36 13 17 34 187 34 269 0 29 5 78 10 107 25 126 29 203 13 236 -17
37 -11 94 12 113 8 7 15 20 15 29 0 18 18 41 32 41 5 0 11 -13 15 -30z"/>
<path d="M2570 2059 c-6 -22 -10 -55 -8 -72 3 -30 4 -30 32 26 23 47 26 60 16
72 -20 24 -28 18 -40 -26z"/>
</g>
</svg>
