<?xml version="1.0" standalone="no"?>
<!DOCTYPE svg PUBLIC "-//W3C//DTD SVG 20010904//EN"
 "http://www.w3.org/TR/2001/REC-SVG-20010904/DTD/svg10.dtd">
<svg version="1.0" xmlns="http://www.w3.org/2000/svg"
 width="480.000000pt" height="360.000000pt" viewBox="0 0 480.000000 360.000000"
 preserveAspectRatio="xMidYMid meet">
<metadata>
Created by potrace 1.16, written by Peter Selinger 2001-2019
</metadata>
<rect width="1" height="360" fill="#000000"/>
<rect x="479" width="1" height="360" fill="#000000"/>
<rect width="480" height="1" fill="#000000"/>
<rect y="359" width="480" height="1" fill="#000000"/>
<g transform="translate(0.000000,360.000000) scale(0.100000,-0.100000)"
fill="#000000" stroke="none">
<path d="M4615 3367 c-57 -31 -63 -32 -164 -30 -124 3 -169 -7 -217 -49 -31
-28 -35 -36 -32 -70 4 -39 3 -40 -76 -95 -111 -78 -166 -131 -166 -159 0 -26
31 -51 122 -95 77 -39 144 -86 225 -161 l62 -58 -35 -15 c-20 -8 -38 -15 -40
-15 -2 0 -56 -21 -120 -46 l-117 -45 -111 6 c-169 11 -427 -29 -552 -84 -43
-19 -44 -19 -96 1 -45 17 -69 19 -153 15 -61 -2 -116 -11 -141 -21 -39 -16
-43 -16 -127 8 -144 42 -241 56 -381 56 -125 0 -134 1 -166 25 -35 25 -101 33
-143 16 -12 -4 -59 7 -127 30 -150 52 -164 61 -178 106 -26 86 -120 155 -213
156 l-50 1 -105 109 c-57 61 -104 117 -104 126 0 10 -12 41 -26 69 -43 86
-135 125 -208 87 -25 -13 -34 -13 -80 -1 -28 8 -91 20 -141 25 -172 21 -188
10 -62 -40 45 -18 111 -47 147 -65 124 -61 277 -230 304 -335 13 -50 49 -99
72 -99 7 0 41 -37 76 -82 84 -112 170 -201 245 -255 45 -32 68 -57 82 -88 26
-60 59 -80 104 -65 28 11 38 10 68 -5 55 -28 97 -63 105 -87 3 -13 12 -30 19
-38 7 -8 15 -33 18 -55 4 -22 20 -59 36 -82 17 -24 28 -49 25 -57 -6 -15 37
-96 61 -116 8 -6 11 -18 9 -25 -6 -15 25 -75 38 -75 5 0 13 -11 18 -25 5 -14
14 -25 20 -25 7 0 8 -29 4 -84 -5 -62 -3 -100 9 -147 21 -80 44 -346 57 -644
5 -126 15 -276 22 -332 l12 -103 -61 -57 c-74 -71 -104 -127 -111 -210 l-5
-63 892 0 891 0 0 48 c0 34 -10 66 -34 114 -45 89 -51 176 -37 513 14 326 28
478 51 535 34 83 43 147 35 243 -4 49 -11 101 -16 113 -7 19 -4 26 11 34 11 6
20 17 20 25 0 7 19 32 42 54 33 31 40 43 31 52 -9 9 -7 19 10 43 11 17 29 44
40 59 11 16 17 38 14 49 -4 13 3 33 17 52 29 39 56 94 56 115 0 9 12 42 27 73
30 61 58 81 248 183 38 20 90 51 115 69 59 41 81 54 103 62 16 6 17 37 17 469
l0 462 -43 17 c-58 22 -72 20 -142 -17z m-2835 -641 c7 -9 9 -16 4 -16 -11 1
-54 36 -54 44 0 10 35 -11 50 -28z"/>
</g>
</svg>
