<?xml version="1.0" standalone="no"?>
<!DOCTYPE svg PUBLIC "-//W3C//DTD SVG 20010904//EN"
 "http://www.w3.org/TR/2001/REC-SVG-20010904/DTD/svg10.dtd">
<svg version="1.0" xmlns="http://www.w3.org/2000/svg"
 width="480.000000pt" height="360.000000pt" viewBox="0 0 480.000000 360.000000"
 preserveAspectRatio="xMidYMid meet">
<metadata>
Created by potrace 1.16, written by Peter Selinger 2001-2019
</metadata>
<rect width="1" height="360" fill="#000000"/>
<rect x="479" width="1" height="360" fill="#000000"/>
<rect width="480" height="1" fill="#000000"/>
<rect y="359" width="480" height="1" fill="#000000"/>
<g transform="translate(0.000000,360.000000) scale(0.100000,-0.100000)"
fill="#000000" stroke="none">
<path d="M0 1800 l0 -1800 650 0 650 0 0 100 c0 129 24 285 55 362 14 33 27
84 31 112 10 88 54 229 90 288 39 64 80 115 162 203 114 121 105 103 88 181
-8 38 -36 177 -61 309 -115 599 -170 726 -465 1065 -96 110 -123 141 -141 159
-94 95 -205 283 -247 416 -24 78 -53 235 -46 247 3 4 34 8 70 8 l64 0 0 75 0
75 -450 0 -450 0 0 -1800z"/>
<path d="M1344 3539 c162 -130 241 -238 379 -516 251 -506 313 -738 378 -1400
13 -128 25 -237 29 -242 3 -6 40 -4 95 6 107 18 326 13 420 -11 33 -9 63 -16
66 -16 4 0 10 37 14 83 35 437 63 636 107 762 43 125 84 189 189 293 282 282
802 492 1082 438 136 -26 241 -91 298 -183 l21 -34 -22 -58 c-23 -63 -51 -94
-148 -164 -130 -95 -288 -154 -593 -222 -85 -19 -173 -41 -196 -49 -128 -45
-199 -106 -242 -210 -38 -91 -52 -166 -101 -525 -23 -162 -43 -298 -46 -303
-6 -10 57 -98 116 -163 20 -22 74 -93 119 -157 63 -90 87 -133 101 -185 10
-37 37 -111 60 -163 52 -121 67 -227 51 -364 -6 -52 -11 -108 -11 -125 l0 -31
645 0 645 0 0 1800 0 1800 -1766 0 -1765 0 75 -61z"/>
</g>
</svg>
