<?xml version="1.0" standalone="no"?>
<!DOCTYPE svg PUBLIC "-//W3C//DTD SVG 20010904//EN"
 "http://www.w3.org/TR/2001/REC-SVG-20010904/DTD/svg10.dtd">
<svg version="1.0" xmlns="http://www.w3.org/2000/svg"
 width="480.000000pt" height="360.000000pt" viewBox="0 0 480.000000 360.000000"
 preserveAspectRatio="xMidYMid meet">
<metadata>
Created by potrace 1.16, written by Peter Selinger 2001-2019
</metadata>
<rect width="1" height="360" fill="#000000"/>
<rect x="479" width="1" height="360" fill="#000000"/>
<rect width="480" height="1" fill="#000000"/>
<rect y="359" width="480" height="1" fill="#000000"/>
<g transform="translate(0.000000,360.000000) scale(0.100000,-0.100000)"
fill="#000000" stroke="none">
<path d="M0 1800 l0 -1800 1055 0 1055 0 0 1010 0 1010 48 -19 c26 -10 63 -21
83 -25 47 -8 54 -17 78 -104 11 -39 22 -76 26 -82 9 -14 91 -12 103 3 5 6 20
45 32 85 13 41 28 75 34 77 6 2 48 11 94 22 l82 19 1 -385 c1 -213 4 -397 8
-411 6 -23 8 -22 33 23 82 146 111 237 129 396 5 53 14 134 19 180 12 107 7
115 -68 105 -54 -7 -54 -6 -47 17 4 13 33 78 65 144 31 66 76 171 100 234 l43
114 -23 71 c-12 39 -42 105 -65 146 -52 88 -119 232 -130 275 -4 17 -9 59 -12
95 l-4 66 36 17 c62 30 123 15 198 -48 41 -34 73 -88 100 -167 5 -13 17 -18
42 -18 30 0 43 8 78 46 72 79 204 140 353 164 126 20 324 -22 424 -91 14 -9
36 -19 50 -21 l25 -4 -29 -13 -29 -12 46 -47 c37 -37 47 -54 45 -77 -1 -17 -5
-34 -9 -40 -4 -5 -9 -30 -10 -55 -2 -25 -11 -53 -20 -63 -23 -25 -13 -55 21
-62 30 -7 31 -14 8 -61 -7 -15 -6 -28 3 -45 13 -25 15 -33 27 -162 5 -53 4
-82 -4 -88 -6 -5 -42 -20 -80 -35 -38 -14 -73 -29 -77 -33 -5 -5 -1 -42 8 -82
10 -41 19 -93 22 -117 5 -38 9 -45 47 -64 78 -40 131 -82 229 -182 270 -277
328 -380 327 -589 -1 -51 -7 -109 -14 -129 l-13 -37 66 -16 c76 -20 160 -44
179 -51 9 -5 12 270 12 1355 l0 1361 -1055 0 -1055 0 0 -95 0 -96 -25 18 c-24
16 -25 23 -21 73 2 30 7 65 11 78 7 21 4 22 -39 22 -43 0 -46 -2 -46 -26 0
-38 -22 -105 -35 -111 -7 -2 -35 5 -64 17 -51 20 -52 20 -109 1 -32 -11 -67
-18 -77 -16 -11 2 -23 4 -26 4 -9 1 -29 74 -29 105 0 24 -3 26 -46 26 -43 0
-46 -1 -40 -22 4 -13 11 -52 16 -88 8 -56 7 -67 -7 -77 -37 -29 -43 -17 -43
87 l0 100 -1055 0 -1055 0 0 -1800z m2212 1016 c22 -55 49 -117 59 -138 14
-27 19 -58 19 -115 -1 -75 -12 -158 -23 -169 -2 -3 -28 -2 -56 2 -45 6 -51 9
-51 30 0 12 -11 31 -25 42 l-25 20 0 268 0 269 31 -54 c17 -29 49 -99 71 -155z
m480 -73 l-4 -257 -24 -18 c-14 -11 -24 -30 -24 -44 0 -20 -5 -24 -31 -24 -30
0 -30 1 -28 47 4 55 -14 68 -28 21 l-9 -33 -17 57 c-26 85 -22 135 17 219 18
41 44 99 57 129 30 71 79 160 87 160 4 0 5 -116 4 -257z m-448 -463 c20 -7 20
-7 -4 -14 -30 -9 -65 -23 -102 -43 l-28 -14 0 47 0 46 57 -7 c31 -4 66 -10 77
-15z m446 -31 l0 -50 -32 23 c-18 13 -33 21 -33 19 0 -2 -10 -1 -22 3 -50 16
-8 51 65 55 20 1 22 -3 22 -50z"/>
<path d="M4774 478 c-7 -11 -22 -279 -23 -410 -1 -66 0 -68 24 -68 l25 0 0
245 c0 228 -4 268 -26 233z"/>
</g>
</svg>
