<?xml version="1.0" standalone="no"?>
<!DOCTYPE svg PUBLIC "-//W3C//DTD SVG 20010904//EN"
 "http://www.w3.org/TR/2001/REC-SVG-20010904/DTD/svg10.dtd">
<svg version="1.0" xmlns="http://www.w3.org/2000/svg"
 width="480.000000pt" height="360.000000pt" viewBox="0 0 480.000000 360.000000"
 preserveAspectRatio="xMidYMid meet">
<metadata>
Created by potrace 1.16, written by Peter Selinger 2001-2019
</metadata>
<rect width="1" height="360" fill="#000000"/>
<rect x="479" width="1" height="360" fill="#000000"/>
<rect width="480" height="1" fill="#000000"/>
<rect y="359" width="480" height="1" fill="#000000"/>
<g transform="translate(0.000000,360.000000) scale(0.100000,-0.100000)"
fill="#000000" stroke="none">
<path d="M2880 3340 c0 -6 14 -19 31 -28 48 -26 109 -71 109 -80 0 -5 -33 -2
-72 6 -156 32 -335 -17 -410 -112 -89 -112 -116 -136 -156 -136 -53 -1 -112
-16 -130 -34 -14 -13 -13 -19 9 -50 15 -23 32 -36 47 -36 27 0 29 -20 3 -27
-17 -4 -19 -14 -17 -78 2 -82 7 -90 89 -156 27 -22 53 -36 59 -33 5 3 18 -2
29 -12 22 -20 25 -70 9 -191 -14 -105 -15 -106 -40 -93 -25 14 -89 -5 -195
-55 -38 -18 -94 -43 -124 -54 l-53 -21 -217 87 c-165 65 -229 86 -271 88 -30
2 -61 -2 -67 -7 -10 -8 -13 -5 -13 11 0 44 -62 34 -74 -11 -3 -13 -20 -30 -38
-38 -24 -11 -34 -23 -36 -42 -3 -25 0 -28 26 -28 16 0 31 -3 34 -6 3 -3 -19
-53 -48 -112 -62 -120 -100 -253 -89 -309 8 -43 46 -83 77 -83 13 0 122 22
243 50 229 52 277 57 347 39 36 -10 56 -8 128 10 47 12 116 33 154 48 89 33
101 27 102 -53 1 -76 9 -99 52 -152 19 -24 29 -42 21 -40 -10 2 -14 -8 -14
-37 -1 -22 -6 -49 -12 -60 -14 -26 -33 -116 -39 -185 -3 -30 -12 -84 -20 -119
-10 -47 -11 -67 -4 -75 18 -18 40 22 40 73 0 25 3 62 6 83 6 35 7 36 36 26 39
-14 104 -4 129 18 27 25 55 7 52 -32 -42 -514 -33 -463 -203 -1074 -10 -36
-26 -92 -34 -125 -9 -33 -19 -68 -22 -77 -5 -17 28 -18 590 -18 358 0 596 4
596 9 0 44 -63 779 -71 830 -15 97 -63 312 -115 510 -25 95 -42 176 -39 179 3
3 5 0 5 -5 0 -16 99 -63 130 -63 43 0 92 40 114 92 19 45 19 51 3 140 -35 199
-38 181 49 313 42 63 74 122 71 130 -3 7 -79 72 -169 144 -138 111 -167 130
-189 125 -26 -5 -27 -4 -34 71 -5 61 -4 80 9 100 9 13 16 37 16 53 0 16 11 56
25 90 32 79 31 97 -5 131 -30 27 -31 41 -1 41 24 0 92 50 85 62 -4 5 0 14 7
19 12 7 12 11 -1 22 -20 19 -76 37 -112 37 -20 0 -37 9 -51 26 -12 14 -36 43
-53 63 -17 20 -38 58 -48 84 -13 36 -31 57 -65 82 -68 51 -181 84 -181 55z
m-300 -1831 c0 -107 -3 -140 -12 -137 -18 6 -70 148 -60 162 5 6 12 26 16 45
6 34 31 71 48 71 4 0 8 -63 8 -141z"/>
</g>
</svg>
