<?xml version="1.0" standalone="no"?>
<!DOCTYPE svg PUBLIC "-//W3C//DTD SVG 20010904//EN"
 "http://www.w3.org/TR/2001/REC-SVG-20010904/DTD/svg10.dtd">
<svg version="1.0" xmlns="http://www.w3.org/2000/svg"
 width="480.000000pt" height="360.000000pt" viewBox="0 0 480.000000 360.000000"
 preserveAspectRatio="xMidYMid meet">
<metadata>
Created by potrace 1.16, written by Peter Selinger 2001-2019
</metadata>
<rect width="1" height="360" fill="#000000"/>
<rect x="479" width="1" height="360" fill="#000000"/>
<rect width="480" height="1" fill="#000000"/>
<rect y="359" width="480" height="1" fill="#000000"/>
<g transform="translate(0.000000,360.000000) scale(0.100000,-0.100000)"
fill="#000000" stroke="none">
<path d="M1458 3573 c-6 -16 -11 -64 -11 -108 -1 -140 47 -259 144 -361 64
-66 122 -102 212 -130 31 -10 57 -21 57 -25 0 -11 -155 -22 -218 -14 -69 8
-87 -4 -98 -61 -5 -28 -17 -41 -58 -68 -73 -47 -103 -82 -90 -104 6 -9 21 -18
32 -20 27 -4 57 -45 88 -122 27 -68 30 -100 10 -138 -7 -15 -17 -42 -21 -60
l-7 -33 35 6 35 7 5 -79 c2 -43 10 -106 17 -140 12 -56 12 -64 -3 -81 -26 -28
-24 -160 3 -209 20 -38 28 -123 11 -123 -16 0 -24 -40 -22 -114 1 -54 6 -78
21 -98 26 -35 27 -113 3 -141 -15 -16 -18 -36 -16 -114 1 -59 7 -100 15 -110
17 -21 11 -83 -14 -116 -29 -42 -44 -157 -24 -196 14 -26 14 -33 1 -64 -8 -20
-23 -38 -34 -42 -34 -10 -75 -151 -52 -179 18 -21 -11 -71 -52 -92 -44 -23
-62 -43 -87 -102 -14 -33 -20 -61 -16 -77 7 -27 -27 -85 -49 -85 -25 0 -77
-33 -103 -66 -28 -35 -47 -43 -55 -21 -3 9 -12 7 -33 -6 -16 -10 -48 -27 -71
-38 -24 -11 -43 -26 -43 -34 0 -12 21 -15 115 -15 112 0 127 4 104 27 -19 19
25 72 54 66 50 -11 50 -12 23 -47 -33 -43 -32 -48 1 -44 20 2 35 16 57 51 26
42 28 50 16 71 -11 21 -9 28 16 60 20 25 39 37 65 41 40 7 71 44 103 120 14
32 14 40 1 57 -12 19 -12 25 8 59 17 30 28 39 48 39 31 0 51 34 69 114 9 42 8
51 -6 67 -15 17 -16 24 -4 58 7 23 22 43 35 49 39 18 62 174 30 206 -23 23
-20 111 5 136 17 17 20 33 20 113 0 67 -4 99 -15 114 -9 12 -18 46 -21 75 -5
43 -3 54 12 65 16 11 18 28 18 102 0 75 -4 93 -22 116 -12 15 -22 39 -22 54 1
25 3 24 41 -21 57 -66 261 -226 451 -351 87 -58 87 -56 36 -134 -141 -214
-264 -450 -315 -603 -24 -73 -28 -101 -28 -195 0 -135 17 -183 105 -299 43
-57 61 -90 66 -122 l6 -44 674 0 c380 0 674 4 674 9 0 5 -6 24 -14 42 -14 34
-32 169 -22 158 5 -5 62 -153 73 -191 6 -22 53 -25 53 -4 0 46 -86 492 -151
777 -17 76 -19 112 -14 189 8 120 11 130 40 130 12 0 33 11 46 25 13 13 29 25
35 25 6 0 25 15 42 34 17 19 34 35 39 37 5 2 41 44 81 93 96 120 107 153 98
313 -3 68 -13 143 -21 166 -8 23 -11 45 -7 48 4 4 54 28 111 53 l104 45 83
-60 c46 -33 92 -72 104 -86 11 -14 23 -23 27 -20 7 8 -34 68 -77 115 -18 18
-25 32 -18 32 8 0 19 -5 25 -11 18 -18 35 -2 21 20 -9 15 -7 26 11 55 29 46
22 80 -22 106 -51 32 -103 42 -232 47 -183 6 -203 4 -256 -22 -56 -29 -68 -30
-75 -11 -3 9 12 32 39 58 33 31 49 56 58 91 10 41 17 51 53 69 22 11 49 28 60
37 25 22 52 78 59 124 7 45 39 74 109 98 90 30 120 76 125 193 2 70 1 77 -13
65 -9 -7 -32 -12 -51 -11 -31 3 -34 1 -24 -12 18 -21 11 -29 -90 -97 -65 -43
-95 -58 -110 -54 -23 8 -50 -11 -43 -29 3 -7 -30 -36 -81 -69 -76 -51 -89 -57
-123 -51 -46 7 -71 -10 -81 -56 -5 -26 -20 -45 -65 -79 l-58 -44 -67 36 c-141
76 -233 90 -408 65 -85 -12 -101 -21 -60 -32 l22 -6 -25 -20 c-23 -18 -45 -28
-95 -45 -15 -5 -16 -8 -6 -14 11 -7 3 -22 -33 -69 -45 -59 -56 -79 -36 -67 16
10 12 -11 -5 -25 -8 -7 -15 -17 -15 -22 0 -6 7 -5 15 2 21 17 26 9 19 -28 -7
-36 -13 -38 -55 -16 -46 23 -63 12 -55 -36 5 -35 3 -41 -19 -56 -15 -10 -25
-26 -25 -40 0 -13 -4 -24 -10 -24 -5 0 -10 -7 -10 -17 0 -9 -12 -37 -26 -61
-33 -55 -30 -67 46 -170 50 -68 52 -74 40 -98 -8 -13 -19 -23 -24 -21 -6 3
-51 35 -101 72 -106 79 -233 159 -333 209 l-72 36 0 50 c0 50 -36 248 -66 364
-15 56 -15 61 2 73 10 7 21 13 25 13 4 0 -7 22 -26 50 -38 57 -54 112 -35 118
7 3 35 26 62 53 28 27 51 49 53 49 2 0 15 -20 28 -43 34 -58 97 -114 166 -146
51 -23 66 -26 164 -24 l108 1 32 -43 c18 -24 37 -46 43 -49 15 -6 92 34 98 50
3 8 -4 33 -14 56 -11 24 -20 50 -20 59 0 9 22 43 48 76 69 86 85 130 84 238
-1 123 -25 186 -96 254 -30 28 -70 58 -90 68 -25 11 -36 23 -36 38 0 11 -5 26
-11 32 -7 7 -4 34 10 88 24 89 26 151 9 224 l-11 51 -479 0 -478 0 -12 -27z
m62 -859 c0 -34 -1 -36 -27 -29 -39 9 -39 12 -13 40 32 34 40 32 40 -11z
m2380 -49 c-7 -9 -15 -13 -18 -10 -3 2 1 11 8 20 7 9 15 13 18 10 3 -2 -1 -11
-8 -20z m-227 -235 c-10 -17 -29 -38 -42 -46 -27 -18 -23 -9 18 43 33 42 48
43 24 3z m-173 -215 c-7 -8 -17 -15 -23 -15 -5 0 -2 9 8 20 21 23 35 19 15 -5z
m-1875 -276 c4 -18 3 -35 -4 -42 -8 -8 -11 -6 -11 9 0 10 -3 29 -6 42 -4 12
-2 22 4 22 6 0 13 -14 17 -31z m22 -191 c-2 -13 -4 -5 -4 17 -1 22 1 32 4 23
2 -10 2 -28 0 -40z m27 -89 c14 12 16 7 16 -52 l0 -65 -32 2 c-41 1 -48 10
-48 67 0 53 6 62 30 47 14 -9 22 -9 34 1z m-17 -246 c-2 -16 -4 -5 -4 22 0 28
2 40 4 28 2 -13 2 -35 0 -50z m37 -119 c3 -9 6 -35 6 -59 0 -41 -1 -43 -34
-47 -39 -4 -46 7 -46 74 0 32 3 37 28 41 15 2 30 5 33 6 4 0 10 -6 13 -15z
m-28 -419 c-5 -15 -54 -26 -61 -14 -3 4 -3 26 1 48 5 34 10 40 33 43 23 3 26
-1 29 -31 2 -18 1 -39 -2 -46z m-66 -255 c0 -24 -26 -50 -51 -50 -20 0 -23 10
-13 45 7 28 64 33 64 5z m-132 -265 c2 -2 -3 -16 -11 -32 -12 -22 -22 -28 -44
-27 -22 1 -27 5 -24 20 7 42 22 56 49 49 15 -4 28 -8 30 -10z m664 -287 c6
-53 0 -65 -18 -41 -14 19 -19 65 -7 76 14 15 21 5 25 -35z"/>
</g>
</svg>
