<?xml version="1.0" standalone="no"?>
<!DOCTYPE svg PUBLIC "-//W3C//DTD SVG 20010904//EN"
 "http://www.w3.org/TR/2001/REC-SVG-20010904/DTD/svg10.dtd">
<svg version="1.0" xmlns="http://www.w3.org/2000/svg"
 width="480.000000pt" height="360.000000pt" viewBox="0 0 480.000000 360.000000"
 preserveAspectRatio="xMidYMid meet">
<metadata>
Created by potrace 1.16, written by Peter Selinger 2001-2019
</metadata>
<rect width="1" height="360" fill="#000000"/>
<rect x="479" width="1" height="360" fill="#000000"/>
<rect width="480" height="1" fill="#000000"/>
<rect y="359" width="480" height="1" fill="#000000"/>
<g transform="translate(0.000000,360.000000) scale(0.100000,-0.100000)"
fill="#000000" stroke="none">
<path d="M840 1800 l0 -1800 1980 0 1980 0 0 1800 0 1800 -1980 0 -1980 0 0
-1800z m2089 429 c34 -14 70 -44 120 -99 72 -80 83 -100 55 -100 -24 0 -55 19
-96 58 -46 43 -68 38 -68 -15 1 -37 2 -39 64 -66 35 -16 79 -44 97 -63 30 -31
32 -36 19 -58 -7 -14 -20 -26 -29 -28 -10 -2 1 -14 32 -33 26 -17 46 -34 44
-39 -2 -5 10 -23 25 -40 28 -30 38 -53 18 -41 -12 7 -14 -114 -2 -133 5 -6 69
-32 143 -56 101 -33 134 -48 133 -60 -2 -19 2 -19 143 -2 62 8 132 12 155 10
98 -11 170 -27 175 -40 3 -8 14 -14 24 -14 22 0 24 -11 7 -28 -10 -10 -5 -19
22 -44 19 -17 44 -32 55 -34 11 -1 19 -6 18 -11 -1 -5 14 -16 33 -23 18 -8 34
-18 34 -23 0 -5 -7 -7 -15 -4 -21 9 -27 -8 -13 -38 10 -23 10 -29 -5 -39 -12
-10 -14 -15 -5 -24 7 -7 8 -12 4 -12 -5 0 -2 -8 5 -17 13 -15 12 -16 -9 -11
-20 6 -22 4 -10 -10 11 -13 11 -15 -3 -10 -9 4 -21 2 -27 -4 -7 -7 -17 -5 -33
6 -29 20 -40 20 -33 1 4 -8 1 -15 -5 -15 -16 0 -61 -42 -55 -51 8 -14 -60 -3
-94 15 -41 21 -52 15 -20 -10 13 -11 28 -26 33 -34 5 -8 -18 7 -51 33 -69 54
-76 56 -272 97 -78 17 -161 39 -183 50 l-40 21 -26 -21 c-18 -14 -41 -20 -75
-20 -44 0 -49 -2 -43 -17 18 -46 17 -79 -3 -103 -25 -30 -49 -21 -72 28 -8 17
-18 32 -21 32 -3 0 -11 -18 -18 -39 -25 -84 -71 -47 -68 54 l2 60 -35 12 c-19
6 -69 12 -110 13 -82 1 -157 13 -170 26 -5 5 -11 22 -14 38 -10 54 3 50 -241
76 -99 11 -213 24 -253 30 -40 5 -79 10 -85 10 -7 0 26 -23 73 -50 55 -33 84
-56 82 -65 -2 -9 12 -36 30 -61 27 -38 30 -47 18 -54 -21 -14 -23 -12 -74 58
-73 99 -232 193 -250 147 -3 -10 -12 -15 -21 -11 -8 3 -15 1 -15 -5 0 -22 -38
12 -43 38 -5 27 -11 30 -74 40 -73 13 -113 43 -113 84 0 20 4 21 97 14 54 -4
111 -12 128 -17 37 -11 311 -51 504 -74 l145 -17 88 94 c96 101 103 120 72
185 -14 29 -14 39 -4 65 27 64 21 149 -10 149 -10 0 -28 15 -40 34 -11 19 -38
45 -58 57 -156 93 -211 150 -180 187 7 8 13 21 13 29 0 9 19 21 44 30 58 20
91 6 91 -37 0 -28 2 -30 40 -30 31 0 48 7 77 33 21 19 47 39 58 45 32 18 112
14 164 -9z"/>
<path d="M3035 1670 c3 -5 10 -10 16 -10 5 0 9 5 9 10 0 6 -7 10 -16 10 -8 0
-12 -4 -9 -10z"/>
<path d="M2812 1565 c-11 -42 -20 -53 -97 -118 -16 -14 -27 -28 -23 -32 10
-11 107 45 151 87 l39 37 -18 32 c-27 46 -38 45 -52 -6z"/>
<path d="M3175 1480 c23 -25 84 -64 91 -58 8 8 -75 78 -93 78 -14 0 -14 -2 2
-20z"/>
<path d="M3328 1450 c32 -30 59 -36 97 -21 15 6 6 12 -45 29 -84 29 -92 27
-52 -8z"/>
</g>
</svg>
