<?xml version="1.0" standalone="no"?>
<!DOCTYPE svg PUBLIC "-//W3C//DTD SVG 20010904//EN"
 "http://www.w3.org/TR/2001/REC-SVG-20010904/DTD/svg10.dtd">
<svg version="1.0" xmlns="http://www.w3.org/2000/svg"
 width="480.000000pt" height="360.000000pt" viewBox="0 0 480.000000 360.000000"
 preserveAspectRatio="xMidYMid meet">
<metadata>
Created by potrace 1.16, written by Peter Selinger 2001-2019
</metadata>
<rect width="1" height="360" fill="#000000"/>
<rect x="479" width="1" height="360" fill="#000000"/>
<rect width="480" height="1" fill="#000000"/>
<rect y="359" width="480" height="1" fill="#000000"/>
<g transform="translate(0.000000,360.000000) scale(0.100000,-0.100000)"
fill="#000000" stroke="none">
<path d="M0 2610 c0 -544 3 -990 6 -990 13 0 212 135 274 186 36 29 108 94
160 144 52 51 102 96 111 100 11 6 35 0 75 -19 32 -15 107 -47 165 -70 58 -23
152 -66 210 -97 184 -97 264 -132 328 -145 79 -15 213 -7 307 20 l72 21 71
-25 c39 -14 77 -25 84 -25 8 0 38 41 68 91 67 112 109 150 213 188 128 48 131
51 129 99 -1 34 -9 51 -39 82 -21 22 -41 37 -44 32 -4 -4 -12 -34 -19 -67 -7
-33 -18 -71 -24 -85 l-11 -25 -4 23 c-2 12 -8 20 -13 16 -6 -3 -7 16 -3 50 4
31 4 56 1 56 -3 0 -13 -25 -22 -56 -9 -31 -18 -54 -21 -51 -3 2 -6 40 -7 83
-3 62 -9 90 -29 129 l-26 50 -13 -27 c-18 -40 -29 -35 -29 12 l0 41 -31 -16
c-17 -9 -33 -14 -35 -12 -3 3 8 24 24 48 40 59 48 87 27 95 -9 4 -24 -1 -35
-11 -19 -17 -22 -17 -59 0 -22 9 -44 15 -49 11 -5 -3 -22 4 -37 16 l-27 21 64
57 c35 32 76 81 92 110 28 51 28 52 13 111 -16 63 -15 109 5 194 27 118 80
188 177 234 59 27 86 29 476 34 157 2 272 -65 329 -194 l28 -61 27 30 c41 45
64 48 126 18 62 -31 129 -100 156 -162 11 -24 24 -79 29 -121 5 -43 12 -86 15
-95 5 -12 -2 -29 -19 -49 -33 -39 -33 -58 3 -133 16 -34 44 -102 62 -151 32
-85 33 -97 33 -222 0 -90 -4 -137 -12 -145 -9 -9 -12 -5 -13 18 0 16 -4 38 -9
49 -7 16 -9 10 -11 -25 -1 -25 -1 -63 0 -85 2 -30 -1 -36 -8 -25 -6 8 -11 10
-11 4 0 -18 -32 -12 -38 8 -3 12 -10 17 -22 13 -12 -4 -24 2 -33 15 -7 11 -17
17 -20 14 -12 -13 -35 17 -58 74 -12 31 -33 71 -45 87 -56 76 -77 156 -89 339
-7 102 -17 146 -35 146 -15 0 -66 -112 -62 -138 2 -14 16 -29 37 -39 38 -18
37 -33 0 -33 -23 0 -24 -2 -18 -45 6 -51 0 -55 -35 -22 -23 21 -24 21 -37 3
-8 -10 -18 -15 -24 -12 -5 3 -12 -8 -16 -25 -4 -17 -16 -40 -26 -50 -12 -12
-19 -33 -19 -55 0 -30 -2 -34 -14 -25 -16 13 -15 15 -37 -79 l-13 -55 -7 35
c-6 31 -7 32 -8 8 0 -16 -5 -28 -11 -28 -6 0 -10 31 -10 74 0 41 -3 77 -8 80
-11 7 -71 -51 -82 -80 -21 -53 -16 -58 106 -114 148 -69 187 -104 244 -216 25
-49 49 -92 53 -95 4 -3 39 1 77 9 66 15 73 14 144 -7 42 -12 109 -25 150 -28
93 -7 174 16 301 87 135 75 477 240 499 240 7 0 46 -39 86 -86 145 -169 274
-273 461 -373 53 -28 99 -51 102 -51 4 0 7 479 7 1065 l0 1065 -2400 0 -2400
0 0 -990z"/>
<path d="M538 1901 c-72 -77 -72 -78 -53 -97 13 -13 16 -31 13 -85 -2 -49 0
-65 8 -56 6 7 41 49 78 94 37 45 81 87 97 94 38 15 28 27 -52 62 l-57 25 -34
-37z"/>
<path d="M4058 1831 c-27 -14 -48 -29 -48 -33 0 -4 11 -18 25 -32 22 -22 25
-34 25 -94 0 -89 -16 -108 -87 -98 -82 12 -111 25 -134 62 -16 26 -19 43 -15
69 5 22 3 35 -4 35 -15 0 -112 -49 -132 -68 -24 -20 -23 -29 5 -36 12 -3 56
-39 96 -81 41 -42 81 -80 90 -85 14 -9 13 -12 -9 -30 -19 -15 -38 -19 -82 -18
-31 1 -60 -1 -63 -4 -4 -3 11 -17 33 -30 21 -12 37 -29 35 -35 -6 -18 -39 -16
-268 12 -167 21 -204 28 -230 47 -61 45 -84 71 -91 102 -12 58 -27 66 -126 66
-53 0 -87 -4 -83 -9 3 -5 -8 -17 -24 -27 l-28 -17 27 -41 c25 -38 28 -56 50
-279 13 -130 20 -240 17 -244 -9 -8 -45 25 -52 48 -4 11 -11 19 -16 19 -16 0
-10 -51 16 -135 32 -106 48 -183 95 -465 22 -129 48 -278 58 -330 l19 -95 821
-3 822 -2 0 620 0 621 -34 -7 c-72 -13 -142 33 -153 99 -4 30 -1 42 22 68 l27
32 -24 13 c-33 19 -48 17 -48 -5 0 -11 -14 -33 -31 -50 -27 -27 -37 -31 -86
-31 -50 0 -58 3 -90 35 -32 32 -35 40 -30 76 3 23 16 52 28 65 l23 25 -29 24
c-17 13 -33 24 -37 25 -3 0 -20 -13 -36 -30 -25 -25 -39 -30 -77 -30 -52 0
-99 21 -115 49 -15 28 -12 93 5 117 8 12 29 27 47 34 18 8 35 15 36 16 10 7
-61 94 -76 93 -9 -1 -38 -13 -64 -28z"/>
<path d="M884 1792 c-19 -90 -71 -172 -108 -172 -6 0 -23 -6 -38 -14 -15 -8
-40 -17 -57 -21 -17 -3 -47 -14 -68 -24 -21 -10 -69 -29 -107 -42 -67 -23 -68
-23 -82 -4 -8 11 -12 25 -10 32 10 24 -13 22 -105 -11 -177 -64 -172 -60 -198
-122 -24 -55 -70 -104 -97 -104 -12 0 -14 -95 -14 -655 l0 -655 800 0 800 0 0
25 c0 93 128 734 174 870 44 131 49 173 50 410 1 159 4 205 16 222 11 18 12
25 2 35 -6 6 -12 22 -12 34 0 20 -7 23 -57 30 -131 17 -139 14 -184 -71 -9
-16 -40 -47 -70 -68 l-55 -38 -266 -34 c-146 -18 -274 -38 -285 -43 -22 -12
-163 -62 -175 -62 -4 0 -8 14 -8 31 0 26 22 53 154 185 123 122 161 154 183
155 43 2 48 3 52 14 5 12 -125 88 -186 109 l-43 15 -6 -27z"/>
<path d="M1268 1623 c-10 -2 -18 -9 -18 -14 0 -14 16 -11 30 6 7 8 11 14 9 14
-2 -1 -12 -3 -21 -6z"/>
<path d="M3504 1555 c21 -16 32 -13 21 4 -3 6 -14 11 -23 11 -15 -1 -15 -2 2
-15z"/>
<path d="M2005 949 c-2 -8 -14 -59 -26 -114 -11 -55 -61 -212 -110 -349 -94
-263 -105 -303 -91 -350 l8 -29 17 44 c9 24 28 91 42 149 30 117 76 243 125
340 23 46 33 78 32 110 0 25 5 80 10 123 10 71 6 111 -7 76z"/>
<path d="M2786 715 c4 -8 8 -15 10 -15 2 0 4 7 4 15 0 8 -4 15 -10 15 -5 0 -7
-7 -4 -15z"/>
</g>
</svg>
