<?xml version="1.0" standalone="no"?>
<!DOCTYPE svg PUBLIC "-//W3C//DTD SVG 20010904//EN"
 "http://www.w3.org/TR/2001/REC-SVG-20010904/DTD/svg10.dtd">
<svg version="1.0" xmlns="http://www.w3.org/2000/svg"
 width="480.000000pt" height="360.000000pt" viewBox="0 0 480.000000 360.000000"
 preserveAspectRatio="xMidYMid meet">
<metadata>
Created by potrace 1.16, written by Peter Selinger 2001-2019
</metadata>
<rect width="1" height="360" fill="#000000"/>
<rect x="479" width="1" height="360" fill="#000000"/>
<rect width="480" height="1" fill="#000000"/>
<rect y="359" width="480" height="1" fill="#000000"/>
<g transform="translate(0.000000,360.000000) scale(0.100000,-0.100000)"
fill="#000000" stroke="none">
<path d="M0 2720 l0 -880 108 0 c59 0 147 -7 197 -14 50 -8 151 -24 225 -36
308 -49 394 -62 585 -85 302 -37 638 -65 850 -72 163 -5 212 -2 345 16 167 24
421 68 428 76 2 2 7 24 9 49 7 61 1 63 -213 94 -29 4 -59 14 -68 21 -11 9 -30
11 -61 7 -69 -11 -108 21 -83 67 6 12 36 48 66 79 l55 58 -31 11 c-53 18 -44
36 77 158 100 101 208 227 269 316 l42 61 -4 144 c-3 80 -10 175 -16 212 -10
58 -17 71 -45 93 -19 14 -40 23 -47 20 -15 -5 -50 18 -47 31 5 30 3 31 -163
108 -42 20 -84 36 -92 36 -26 0 -85 -194 -110 -363 -20 -135 -20 -236 0 -378
15 -107 14 -113 -6 -173 -41 -123 -39 -232 6 -285 13 -16 24 -32 24 -35 0 -15
-33 -3 -63 24 -50 43 -62 98 -60 255 2 99 -3 155 -18 235 -19 92 -21 128 -16
290 5 186 12 230 62 430 13 53 22 105 19 116 -3 12 1 26 9 33 13 10 26 7 75
-18 32 -16 72 -41 88 -54 38 -32 148 -87 174 -87 11 0 20 -4 20 -10 0 -5 5
-10 11 -10 8 0 9 4 0 13 -6 8 -7 17 -3 21 4 4 7 11 8 14 0 4 19 46 42 94 50
103 91 143 136 133 17 -3 67 -7 112 -8 71 -2 85 -5 117 -29 44 -35 81 -123 71
-174 -6 -34 -44 -74 -70 -74 -7 0 -18 -17 -25 -37 -6 -21 -16 -43 -21 -50 -5
-7 -7 -16 -4 -22 10 -16 98 -41 122 -35 34 9 88 -3 113 -25 19 -16 147 -45
301 -67 58 -8 91 -28 83 -52 -16 -43 -45 -72 -73 -72 -25 0 -153 41 -215 69
-32 15 -117 41 -132 41 -28 0 -61 -53 -61 -98 0 -29 -7 -51 -19 -65 -25 -29
-31 -148 -8 -167 8 -7 15 -21 15 -32 0 -22 18 -59 69 -142 19 -32 36 -73 37
-90 0 -17 10 -66 22 -108 30 -110 36 -188 17 -212 -14 -18 -16 -19 -34 -2 -28
26 -33 8 -25 -98 5 -77 4 -100 -10 -127 -9 -18 -15 -34 -13 -35 6 -6 270 63
588 154 341 98 446 118 581 109 59 -4 91 -2 100 6 8 7 61 78 117 159 130 188
204 253 246 218 13 -11 15 54 15 559 l0 571 -2400 0 -2400 0 0 -880z"/>
<path d="M2660 3250 c-13 -8 -12 -10 3 -10 9 0 17 5 17 10 0 12 -1 12 -20 0z"/>
<path d="M4790 2281 c0 -31 -576 -843 -714 -1006 -181 -214 -405 -425 -684
-643 -55 -44 -165 -86 -222 -86 -53 0 -131 35 -206 92 -48 37 -55 39 -145 45
-165 11 -319 68 -563 207 l-89 50 -91 -11 c-176 -22 -464 0 -674 52 l-92 22
-163 -48 c-89 -26 -204 -61 -255 -76 -152 -47 -173 -47 -298 -4 -179 61 -374
168 -575 314 -19 13 -19 0 -19 -588 l0 -601 2400 0 2400 0 0 1145 c0 630 -2
1145 -5 1145 -3 0 -5 -4 -5 -9z"/>
</g>
</svg>
