<?xml version="1.0" standalone="no"?>
<!DOCTYPE svg PUBLIC "-//W3C//DTD SVG 20010904//EN"
 "http://www.w3.org/TR/2001/REC-SVG-20010904/DTD/svg10.dtd">
<svg version="1.0" xmlns="http://www.w3.org/2000/svg"
 width="480.000000pt" height="360.000000pt" viewBox="0 0 480.000000 360.000000"
 preserveAspectRatio="xMidYMid meet">
<metadata>
Created by potrace 1.16, written by Peter Selinger 2001-2019
</metadata>
<rect width="1" height="360" fill="#000000"/>
<rect x="479" width="1" height="360" fill="#000000"/>
<rect width="480" height="1" fill="#000000"/>
<rect y="359" width="480" height="1" fill="#000000"/>
<g transform="translate(0.000000,360.000000) scale(0.100000,-0.100000)"
fill="#000000" stroke="none">
<path d="M0 2785 l0 -815 767 2 768 3 13 29 c8 15 16 47 19 70 2 22 9 57 15
77 7 25 7 52 -1 90 -6 30 -15 100 -21 157 -6 62 -16 112 -26 127 -14 21 -14
36 -5 110 12 88 10 105 -14 105 -22 0 -34 31 -23 59 15 41 12 120 -10 211 -52
214 -50 295 7 323 24 11 26 17 23 62 -2 37 -9 55 -26 70 -32 28 -46 57 -46 99
l0 36 -720 0 -720 0 0 -815z"/>
<path d="M1676 3523 c1 -77 44 -263 66 -290 18 -22 28 -14 28 21 0 27 7 39 34
60 41 31 60 32 106 8 19 -11 47 -22 63 -26 71 -17 182 -172 178 -251 -1 -41
22 -182 33 -192 3 -3 -3 -18 -14 -33 -11 -16 -20 -34 -20 -42 0 -9 -14 -14
-41 -14 -54 -2 -119 -24 -119 -40 0 -8 14 -21 31 -30 30 -15 66 -15 116 1 16
5 25 1 39 -19 9 -15 18 -39 20 -53 1 -14 14 -36 27 -47 14 -12 34 -41 45 -66
22 -51 53 -90 72 -90 7 0 27 16 44 36 29 33 34 35 52 24 50 -31 217 -286 274
-416 l38 -89 1026 -3 1026 -2 0 815 0 815 -1563 0 -1562 0 1 -77z"/>
<path d="M1730 2792 c0 -12 19 -26 26 -19 2 2 -2 10 -11 17 -9 8 -15 8 -15 2z"/>
<path d="M1705 2751 c-7 -12 12 -24 25 -16 11 7 4 25 -10 25 -5 0 -11 -4 -15
-9z"/>
<path d="M2093 2363 c-12 -10 -33 -40 -48 -68 l-27 -49 26 -21 c15 -11 47 -38
72 -60 25 -21 84 -58 130 -81 l84 -41 -6 26 c-19 84 -30 106 -88 178 -35 43
-77 91 -93 106 -29 27 -30 27 -50 10z"/>
<path d="M0 950 l0 -950 2400 0 2400 0 0 950 0 950 -1012 -2 -1013 -3 3 -71
c4 -64 2 -73 -23 -102 -33 -39 -65 -41 -120 -7 -29 17 -55 24 -92 25 -47 0
-54 3 -76 33 -13 17 -30 48 -37 67 -20 53 -29 60 -74 60 -62 0 -71 -10 -49
-54 18 -38 18 -38 -6 -57 -13 -10 -29 -19 -37 -19 -8 0 -14 -4 -14 -8 0 -16
158 -198 204 -236 104 -85 126 -122 126 -214 0 -136 -78 -268 -210 -353 -48
-31 -50 -35 -43 -63 10 -41 7 -176 -3 -185 -5 -4 -33 -13 -63 -19 -46 -11 -58
-10 -78 3 -29 19 -60 68 -69 108 -3 15 -11 30 -17 33 -7 2 -59 -4 -117 -14
l-105 -18 3 -50 c2 -30 15 -71 33 -107 17 -32 28 -66 26 -75 -2 -9 3 -30 12
-47 18 -36 46 -238 44 -317 -1 -31 -9 -71 -18 -88 -45 -86 -165 -42 -196 72
-12 45 -9 88 15 218 14 78 14 86 -1 110 -9 14 -20 50 -24 80 -4 39 -18 74 -46
120 -39 64 -40 65 -94 73 -265 38 -358 70 -446 155 -45 44 -83 130 -83 190 0
113 80 235 191 293 73 38 188 228 213 352 9 44 19 83 22 89 4 6 0 14 -7 19 -8
5 -353 9 -766 9 l-753 0 0 -950z"/>
</g>
</svg>
