<?xml version="1.0" standalone="no"?>
<!DOCTYPE svg PUBLIC "-//W3C//DTD SVG 20010904//EN"
 "http://www.w3.org/TR/2001/REC-SVG-20010904/DTD/svg10.dtd">
<svg version="1.0" xmlns="http://www.w3.org/2000/svg"
 width="480.000000pt" height="360.000000pt" viewBox="0 0 480.000000 360.000000"
 preserveAspectRatio="xMidYMid meet">
<metadata>
Created by potrace 1.16, written by Peter Selinger 2001-2019
</metadata>
<rect width="1" height="360" fill="#000000"/>
<rect x="479" width="1" height="360" fill="#000000"/>
<rect width="480" height="1" fill="#000000"/>
<rect y="359" width="480" height="1" fill="#000000"/>
<g transform="translate(0.000000,360.000000) scale(0.100000,-0.100000)"
fill="#000000" stroke="none">
<path d="M0 2651 l0 -950 128 34 c285 76 536 176 796 317 110 60 162 82 196
86 45 4 50 2 101 -45 30 -27 124 -104 209 -173 85 -68 238 -205 340 -305 102
-100 205 -198 230 -218 62 -49 181 -104 265 -122 77 -16 239 -19 298 -6 22 5
70 5 118 -1 44 -5 83 -7 86 -5 3 3 9 23 14 45 15 67 136 269 198 331 60 60
152 113 269 155 164 58 171 78 57 155 -42 28 -78 51 -80 51 -3 0 -5 -11 -5
-24 0 -13 -9 -43 -20 -67 -11 -24 -20 -54 -20 -66 0 -13 -4 -23 -10 -23 -5 0
-10 12 -10 28 0 15 -4 33 -9 41 -7 11 -11 5 -16 -22 -9 -46 -25 -39 -26 11 0
20 -6 55 -13 77 l-12 40 -21 -40 -21 -40 1 65 c0 36 -5 90 -12 121 -10 48 -17
59 -41 69 -16 7 -36 10 -45 6 -10 -4 -15 1 -15 14 0 18 -2 18 -36 4 -20 -8
-38 -13 -41 -10 -3 2 0 21 7 41 15 46 8 65 -27 66 l-28 0 33 16 c37 19 37 21
17 87 -8 27 -15 64 -15 83 0 18 -4 33 -10 33 -24 0 -32 -47 -29 -164 6 -242 1
-337 -21 -401 -12 -33 -30 -94 -41 -135 -12 -41 -27 -82 -35 -91 -8 -8 -14
-21 -14 -28 0 -7 -6 -11 -12 -8 -7 2 -21 -9 -30 -24 -9 -16 -29 -30 -47 -34
-20 -4 -31 -14 -34 -28 -3 -17 -5 -16 -6 7 -1 21 -5 27 -16 22 -12 -4 -15 3
-15 31 0 30 -2 34 -15 23 -13 -11 -15 -8 -16 21 0 19 -5 43 -10 54 -7 14 -8 6
-4 -30 7 -69 -8 -48 -43 60 -55 167 -61 275 -25 424 6 23 4 23 -31 17 -21 -4
-36 -3 -36 3 0 5 25 35 55 66 30 30 55 64 55 74 0 33 81 182 121 222 21 21 35
40 31 42 -4 3 -32 12 -62 22 -72 23 -126 51 -133 67 -2 8 1 45 9 83 7 39 14
97 14 130 1 78 23 125 95 204 101 108 203 140 265 84 16 -16 38 -50 48 -77
l19 -50 37 57 c82 129 174 199 315 240 70 20 97 22 341 22 333 -1 382 -11 483
-104 97 -89 164 -327 133 -471 -17 -80 -9 -100 49 -128 65 -32 79 -59 71 -140
-9 -101 -31 -170 -59 -192 -20 -16 -24 -27 -22 -62 1 -24 5 -51 9 -60 5 -12 1
-21 -13 -30 -12 -7 -21 -20 -21 -29 0 -9 -8 -19 -19 -22 -14 -3 -23 5 -36 32
l-17 36 -14 -40 c-7 -22 -20 -45 -28 -51 -9 -6 -26 -33 -38 -60 l-23 -49 -3
60 c-4 84 -10 97 -29 60 -8 -16 -21 -34 -27 -40 -31 -25 -136 -231 -136 -266
0 -5 35 -26 78 -45 296 -136 307 -145 390 -331 92 -206 78 -188 147 -191 33
-2 98 3 145 10 47 7 115 13 153 12 l67 -1 0 1143 0 1144 -2400 0 -2400 0 0
-949z"/>
<path d="M1035 1932 c-143 -89 -151 -97 -120 -122 11 -9 14 -23 9 -45 -5 -28
-2 -35 24 -54 23 -16 40 -46 71 -125 22 -57 38 -112 36 -122 -2 -11 -13 -57
-24 -104 -21 -89 -68 -301 -81 -360 -52 -246 -68 -290 -106 -290 -6 0 -17 12
-23 28 -12 29 -181 717 -181 736 0 6 16 54 35 106 26 70 44 102 68 122 23 19
29 30 21 38 -7 7 -40 -4 -116 -39 -82 -39 -271 -107 -375 -137 -7 -2 -13 -12
-13 -23 0 -11 -5 -23 -12 -27 -8 -5 0 -18 24 -38 26 -22 46 -56 72 -121 20
-49 36 -102 36 -117 0 -15 -15 -92 -34 -170 -19 -79 -55 -235 -81 -348 -55
-238 -58 -245 -84 -260 -17 -9 -22 -6 -34 17 -8 16 -43 138 -77 273 -34 135
-64 247 -66 249 -2 2 -4 -221 -4 -497 l0 -502 1358 0 1359 0 6 126 c4 79 16
166 32 233 31 133 64 424 52 472 -6 27 -3 50 16 101 l24 66 -31 9 c-17 5 -36
20 -43 33 -11 22 -9 28 14 52 l26 28 -164 -7 c-90 -3 -166 -7 -168 -10 -3 -2
9 -16 26 -31 22 -19 40 -54 63 -119 l32 -93 -21 -92 c-12 -51 -31 -129 -41
-173 -38 -159 -88 -371 -95 -402 -8 -41 -60 -72 -74 -45 -9 18 -161 684 -161
708 0 36 66 191 92 216 23 21 27 32 22 52 -7 30 -54 47 -193 71 -109 19 -114
19 -101 -2 6 -10 23 -58 40 -107 l30 -90 -46 -195 c-24 -108 -56 -241 -69
-296 -13 -55 -29 -128 -36 -162 -8 -38 -19 -64 -28 -67 -9 -3 -21 -9 -28 -12
-6 -3 -16 3 -22 13 -5 11 -46 175 -90 367 l-80 347 34 96 c23 63 45 108 66
129 23 23 32 43 34 71 2 41 -27 86 -131 202 -48 54 -143 135 -150 128 -2 -2
11 -39 28 -83 39 -97 39 -134 5 -284 -121 -538 -126 -554 -149 -572 -45 -34
-37 -55 -145 397 l-79 331 36 101 c25 73 43 108 63 123 15 12 27 30 27 41 0
11 5 30 11 41 10 19 7 25 -27 52 -22 17 -80 70 -131 118 -50 49 -93 88 -95 88
-1 -1 -30 -17 -63 -38z"/>
<path d="M27 1543 l-27 -4 1 -82 1 -82 15 35 c13 30 25 43 65 71 9 6 -10 70
-20 68 -4 -1 -19 -4 -35 -6z"/>
<path d="M4413 1154 c-19 -8 -16 -51 5 -66 11 -7 37 -59 60 -115 34 -87 39
-107 31 -135 -5 -18 -40 -159 -78 -314 -59 -244 -67 -287 -60 -330 4 -27 8
-82 8 -121 l1 -73 210 0 211 0 -4 242 -3 243 -56 210 -56 210 40 95 c21 52 48
102 59 112 39 34 24 38 -140 38 -87 0 -171 2 -187 5 -16 2 -35 2 -41 -1z"/>
</g>
</svg>
