<?xml version="1.0" standalone="no"?>
<!DOCTYPE svg PUBLIC "-//W3C//DTD SVG 20010904//EN"
 "http://www.w3.org/TR/2001/REC-SVG-20010904/DTD/svg10.dtd">
<svg version="1.0" xmlns="http://www.w3.org/2000/svg"
 width="480.000000pt" height="360.000000pt" viewBox="0 0 480.000000 360.000000"
 preserveAspectRatio="xMidYMid meet">
<metadata>
Created by potrace 1.16, written by Peter Selinger 2001-2019
</metadata>
<rect width="1" height="360" fill="#000000"/>
<rect x="479" width="1" height="360" fill="#000000"/>
<rect width="480" height="1" fill="#000000"/>
<rect y="359" width="480" height="1" fill="#000000"/>
<g transform="translate(0.000000,360.000000) scale(0.100000,-0.100000)"
fill="#000000" stroke="none">
<path d="M0 2846 l0 -753 53 -7 c83 -9 375 -7 488 5 108 11 179 31 315 93 111
49 228 74 424 88 155 11 386 2 490 -18 25 -5 28 -3 34 28 7 37 77 118 101 118
11 0 15 12 15 40 0 22 -1 40 -3 40 -2 0 -29 -5 -60 -10 -60 -11 -97 -2 -97 24
0 7 36 47 80 90 l80 77 0 125 c0 146 7 165 79 223 61 47 227 133 300 155 112
33 143 23 275 -86 38 -32 65 -47 75 -43 115 45 243 56 249 22 4 -19 -53 -80
-136 -147 l-43 -35 60 -74 c62 -75 72 -94 47 -89 -16 3 -19 -7 -11 -33 3 -9 1
-27 -4 -40 -5 -13 -10 -18 -10 -11 -1 19 -21 4 -21 -16 0 -9 -16 -30 -35 -45
-19 -15 -35 -32 -35 -36 0 -5 14 -22 31 -39 l32 -31 -27 -31 c-14 -17 -26 -38
-26 -46 0 -8 -13 -39 -29 -68 -16 -30 -34 -78 -41 -108 -13 -55 -58 -130 -88
-147 -25 -14 -10 -24 107 -71 57 -22 117 -48 132 -55 18 -10 30 -11 34 -5 10
17 50 11 104 -13 27 -13 56 -28 63 -33 7 -6 40 -21 73 -33 75 -30 85 -38 85
-66 0 -17 13 -30 48 -51 26 -15 96 -59 156 -97 98 -63 112 -69 136 -60 30 11
60 1 60 -22 0 -8 13 -15 33 -17 24 -2 33 -8 35 -25 2 -14 10 -23 21 -23 22 0
41 -19 41 -41 0 -9 7 -22 15 -29 8 -7 15 -19 15 -28 0 -8 62 -78 138 -156 160
-165 279 -319 404 -524 165 -271 208 -330 250 -347 21 -8 54 -15 72 -15 39 0
58 -16 86 -71 42 -82 58 -203 35 -261 -6 -16 -1 -18 44 -18 l51 0 0 1800 0
1800 -2400 0 -2400 0 0 -754z"/>
<path d="M1165 2094 c-165 -22 -242 -50 -384 -143 -72 -46 -160 -76 -268 -93
-40 -6 -73 -13 -73 -17 0 -3 -7 -51 -16 -106 -23 -156 -27 -386 -15 -815 12
-452 29 -637 77 -852 l16 -68 649 0 648 0 16 58 c98 349 126 415 269 630 52
79 103 167 112 195 21 63 15 215 -21 512 -13 110 -26 236 -30 280 -7 74 -8 77
-21 55 -7 -14 -14 -20 -15 -15 0 6 -5 -1 -10 -15 -6 -17 -7 -7 -4 35 3 33 8
97 12 143 l6 82 -39 0 c-44 0 -112 28 -162 67 -40 30 -109 45 -313 67 -168 19
-297 19 -434 0z"/>
<path d="M2756 1747 c3 -10 9 -15 12 -12 3 3 0 11 -7 18 -10 9 -11 8 -5 -6z"/>
<path d="M3096 1565 c-21 -32 -21 -32 19 -77 l36 -39 -20 -28 c-21 -29 -70
-75 -111 -104 -13 -9 -21 -20 -17 -23 10 -10 172 14 254 38 62 18 76 26 93 55
11 19 20 36 20 38 0 7 -79 58 -172 113 l-87 51 -15 -24z"/>
<path d="M3570 1189 c-37 -40 -46 -59 -53 -101 -4 -29 -15 -63 -23 -76 -15
-22 -21 -24 -82 -19 -37 2 -101 12 -142 22 -63 14 -103 16 -248 10 l-174 -6
-35 27 -35 27 -25 -29 c-23 -28 -24 -34 -19 -129 3 -55 19 -181 36 -280 19
-115 36 -261 45 -404 8 -123 16 -226 18 -228 2 -2 404 -2 893 -1 l889 3 -46
28 c-56 33 -148 129 -211 217 -25 36 -93 147 -151 247 -129 224 -179 299 -282
428 -78 98 -262 288 -294 304 -12 6 -28 -4 -61 -40z"/>
</g>
</svg>
