<?xml version="1.0" standalone="no"?>
<!DOCTYPE svg PUBLIC "-//W3C//DTD SVG 20010904//EN"
 "http://www.w3.org/TR/2001/REC-SVG-20010904/DTD/svg10.dtd">
<svg version="1.0" xmlns="http://www.w3.org/2000/svg"
 width="480.000000pt" height="360.000000pt" viewBox="0 0 480.000000 360.000000"
 preserveAspectRatio="xMidYMid meet">
<metadata>
Created by potrace 1.16, written by Peter Selinger 2001-2019
</metadata>
<rect width="1" height="360" fill="#000000"/>
<rect x="479" width="1" height="360" fill="#000000"/>
<rect width="480" height="1" fill="#000000"/>
<rect y="359" width="480" height="1" fill="#000000"/>
<g transform="translate(0.000000,360.000000) scale(0.100000,-0.100000)"
fill="#000000" stroke="none">
<path d="M2275 3239 c-130 -29 -294 -149 -366 -269 -9 -14 -28 -56 -44 -95
-25 -61 -29 -82 -28 -165 1 -119 21 -174 94 -266 106 -134 137 -160 219 -185
95 -29 251 -31 350 -5 224 60 383 246 366 427 -31 321 -73 398 -278 504 -108
56 -117 59 -193 61 -44 1 -98 -2 -120 -7z"/>
</g>
</svg>
