<?xml version="1.0" standalone="no"?>
<!DOCTYPE svg PUBLIC "-//W3C//DTD SVG 20010904//EN"
 "http://www.w3.org/TR/2001/REC-SVG-20010904/DTD/svg10.dtd">
<svg version="1.0" xmlns="http://www.w3.org/2000/svg"
 width="480.000000pt" height="360.000000pt" viewBox="0 0 480.000000 360.000000"
 preserveAspectRatio="xMidYMid meet">
<metadata>
Created by potrace 1.16, written by Peter Selinger 2001-2019
</metadata>
<rect width="1" height="360" fill="#000000"/>
<rect x="479" width="1" height="360" fill="#000000"/>
<rect width="480" height="1" fill="#000000"/>
<rect y="359" width="480" height="1" fill="#000000"/>
<g transform="translate(0.000000,360.000000) scale(0.100000,-0.100000)"
fill="#000000" stroke="none">
<path d="M560 3594 c0 -31 56 -268 80 -339 32 -96 39 -195 21 -278 -6 -23 -12
-54 -16 -69 -3 -16 -9 -28 -14 -28 -5 0 -45 21 -88 47 -62 38 -87 47 -124 48
-80 0 -103 -38 -90 -148 4 -33 3 -83 -2 -112 -12 -62 5 -111 47 -138 14 -9 27
-31 31 -49 12 -54 56 -127 90 -148 40 -25 54 -25 53 -2 0 9 3 29 7 45 4 17 3
27 -4 27 -6 0 -8 6 -5 14 3 9 -3 17 -16 21 -16 5 -19 10 -11 18 16 16 14 27
-4 21 -11 -5 -15 1 -15 24 0 17 5 34 11 38 8 4 9 28 5 70 l-7 64 158 -104 c87
-57 171 -116 186 -132 l29 -28 -28 -8 c-15 -4 -43 -23 -63 -41 -27 -26 -48
-36 -86 -41 -27 -3 -53 -10 -59 -16 -5 -5 -21 -7 -35 -4 -14 3 -39 -2 -56 -10
-16 -9 -46 -16 -65 -16 -42 0 -78 -23 -119 -74 -37 -46 -40 -84 -8 -114 26
-25 88 -52 117 -52 12 0 41 -11 64 -25 23 -14 72 -31 107 -38 l64 -13 44 -89
c25 -50 62 -106 86 -130 71 -72 205 -106 273 -71 15 8 60 51 100 95 54 59 89
88 130 108 l57 27 -30 8 c-17 5 -72 6 -122 2 l-93 -6 1 63 c2 111 -4 106 162
170 81 31 156 64 167 74 18 17 18 18 -2 53 -35 64 -44 69 -124 77 -52 5 -77
11 -81 22 -9 24 28 161 53 196 41 56 56 89 51 109 -3 11 -1 32 4 46 6 17 6 80
1 161 -7 115 -11 136 -28 148 -11 8 -18 23 -16 35 6 38 -6 67 -27 61 -13 -3
-20 2 -25 21 -7 29 -23 34 -32 11 -13 -33 -23 -12 -17 35 4 38 2 55 -10 68
-11 12 -14 36 -13 87 2 69 22 123 72 193 l16 22 -376 0 c-207 0 -376 -3 -376
-6z"/>
<path d="M3330 1800 l0 -1800 418 0 417 0 0 68 c1 77 10 105 102 288 l66 131
0 107 c0 84 -4 110 -16 124 -15 16 -15 22 -1 62 24 68 20 249 -6 318 -20 52
-20 52 0 72 16 16 24 17 48 9 16 -6 40 -21 52 -34 20 -21 25 -22 53 -11 50 19
253 14 300 -7 l37 -17 0 1245 0 1245 -735 0 -735 0 0 -1800z"/>
</g>
</svg>
