<?xml version="1.0" standalone="no"?>
<!DOCTYPE svg PUBLIC "-//W3C//DTD SVG 20010904//EN"
 "http://www.w3.org/TR/2001/REC-SVG-20010904/DTD/svg10.dtd">
<svg version="1.0" xmlns="http://www.w3.org/2000/svg"
 width="480.000000pt" height="360.000000pt" viewBox="0 0 480.000000 360.000000"
 preserveAspectRatio="xMidYMid meet">
<metadata>
Created by potrace 1.16, written by Peter Selinger 2001-2019
</metadata>
<rect width="1" height="360" fill="#000000"/>
<rect x="479" width="1" height="360" fill="#000000"/>
<rect width="480" height="1" fill="#000000"/>
<rect y="359" width="480" height="1" fill="#000000"/>
<g transform="translate(0.000000,360.000000) scale(0.100000,-0.100000)"
fill="#000000" stroke="none">
<path d="M0 1800 l0 -1800 950 0 949 0 12 43 c6 23 22 85 35 137 13 52 41 149
63 214 40 117 40 120 26 163 -18 52 -19 87 -4 114 8 16 7 25 -5 38 -14 15 -13
24 10 96 56 182 98 357 110 460 7 61 20 130 29 154 13 35 15 68 11 155 -4 99
-3 114 16 144 11 18 18 35 15 38 -10 11 -46 -16 -67 -51 -27 -44 -66 -45 -90
-3 -28 51 20 87 150 112 59 11 78 19 96 41 17 22 31 28 80 32 53 5 62 3 87
-21 29 -27 71 -41 147 -51 93 -11 132 -59 94 -113 -19 -27 -36 -28 -58 -3 -21
23 -50 17 -37 -7 5 -10 12 -69 16 -132 4 -73 15 -141 29 -185 16 -51 21 -87
18 -130 -3 -51 4 -86 46 -225 28 -91 62 -196 76 -235 24 -65 24 -70 8 -88 -12
-14 -17 -39 -18 -88 -1 -46 -7 -78 -18 -95 -17 -24 -16 -30 23 -147 22 -67 50
-160 61 -207 12 -47 26 -102 31 -122 l10 -38 949 0 950 0 0 1800 0 1800 -2400
0 -2400 0 0 -1800z"/>
</g>
</svg>
