<?xml version="1.0" standalone="no"?>
<!DOCTYPE svg PUBLIC "-//W3C//DTD SVG 20010904//EN"
 "http://www.w3.org/TR/2001/REC-SVG-20010904/DTD/svg10.dtd">
<svg version="1.0" xmlns="http://www.w3.org/2000/svg"
 width="480.000000pt" height="360.000000pt" viewBox="0 0 480.000000 360.000000"
 preserveAspectRatio="xMidYMid meet">
<metadata>
Created by potrace 1.16, written by Peter Selinger 2001-2019
</metadata>
<rect width="1" height="360" fill="#000000"/>
<rect x="479" width="1" height="360" fill="#000000"/>
<rect width="480" height="1" fill="#000000"/>
<rect y="359" width="480" height="1" fill="#000000"/>
<g transform="translate(0.000000,360.000000) scale(0.100000,-0.100000)"
fill="#000000" stroke="none">
<path d="M0 2389 l0 -1211 28 5 c27 6 285 37 687 83 121 14 393 49 605 79
1025 144 1486 180 2126 163 294 -7 408 -20 720 -83 304 -61 391 -70 511 -55
53 6 102 14 110 17 11 4 13 124 13 676 0 777 11 727 -109 494 -88 -171 -123
-222 -158 -234 -42 -14 -61 -5 -73 33 -11 32 -14 34 -28 21 -20 -17 -87 -51
-157 -78 -57 -22 -114 -25 -116 -6 -2 24 3 42 16 56 10 11 11 18 2 32 -8 13
-9 24 -2 33 79 112 95 140 84 152 -12 15 8 36 70 74 22 13 41 29 41 36 0 6 23
14 52 17 91 11 124 58 203 292 47 138 47 141 42 241 -5 112 -13 133 -80 210
-24 29 -53 64 -64 79 -18 25 -24 27 -57 21 -39 -7 -54 -20 -96 -75 -50 -67
-114 -79 -162 -31 -36 36 -33 59 13 127 l30 43 -413 0 -413 0 -29 -108 c-44
-162 -97 -287 -160 -384 -59 -91 -85 -115 -103 -97 -8 8 -13 7 -17 0 -10 -16
-61 -13 -155 9 -47 11 -88 17 -91 13 -4 -5 -27 -66 -51 -138 -56 -168 -63
-185 -134 -293 -84 -127 -129 -149 -186 -93 -37 37 -37 65 0 149 16 37 33 80
37 96 8 33 10 34 -78 -27 -60 -41 -63 -47 -93 -165 l-16 -63 31 -57 c17 -31
39 -63 47 -69 9 -7 14 -15 12 -18 -3 -3 -20 9 -37 27 -39 37 -33 8 6 -34 25
-27 19 -41 -6 -16 -6 6 -14 9 -18 6 -3 -3 7 -14 22 -25 56 -38 107 -90 100
-101 -11 -17 -55 -15 -119 7 -30 11 -57 17 -60 15 -2 -3 2 -21 9 -42 17 -49
17 -63 -1 -56 -13 5 -14 2 -6 -19 6 -14 6 -28 1 -33 -5 -5 -5 -27 2 -51 19
-75 -3 -91 -65 -48 -20 13 -36 21 -36 17 5 -28 -2 -35 -17 -16 -15 19 -16 19
-8 -1 4 -11 9 -49 12 -83 4 -62 4 -64 -19 -60 -13 2 -38 22 -57 48 -19 25 -47
50 -62 56 -30 13 -43 39 -65 139 -13 55 -15 99 -10 210 7 135 9 146 62 306 30
92 69 195 87 230 17 36 97 154 176 263 80 109 149 204 154 211 6 8 -11 36 -59
90 -78 90 -111 154 -95 185 11 20 10 20 -1160 20 l-1170 0 0 -1211z"/>
<path d="M0 521 l0 -521 2400 0 2400 0 0 429 0 429 -72 12 c-121 21 -286 8
-503 -38 -402 -86 -462 -93 -921 -99 -615 -9 -1016 22 -1889 142 -417 58 -888
114 -1362 162 l-53 5 0 -521z"/>
</g>
</svg>
