<?xml version="1.0" standalone="no"?>
<!DOCTYPE svg PUBLIC "-//W3C//DTD SVG 20010904//EN"
 "http://www.w3.org/TR/2001/REC-SVG-20010904/DTD/svg10.dtd">
<svg version="1.0" xmlns="http://www.w3.org/2000/svg"
 width="480.000000pt" height="360.000000pt" viewBox="0 0 480.000000 360.000000"
 preserveAspectRatio="xMidYMid meet">
<metadata>
Created by potrace 1.16, written by Peter Selinger 2001-2019
</metadata>
<rect width="1" height="360" fill="#000000"/>
<rect x="479" width="1" height="360" fill="#000000"/>
<rect width="480" height="1" fill="#000000"/>
<rect y="359" width="480" height="1" fill="#000000"/>
<g transform="translate(0.000000,360.000000) scale(0.100000,-0.100000)"
fill="#000000" stroke="none">
<path d="M215 3590 c-33 -4 -95 -11 -137 -15 l-78 -7 0 -104 0 -104 125 0
c125 0 125 0 135 -26 13 -32 13 -31 -7 -36 -10 -3 -50 -26 -89 -51 l-71 -46
-47 -140 -47 -139 3 -144 4 -143 67 -224 c37 -124 67 -228 67 -231 0 -3 -32
-21 -70 -40 -39 -19 -69 -39 -67 -45 5 -16 138 -114 173 -127 29 -10 34 -19
54 -91 l21 -79 -22 -55 c-12 -29 -19 -56 -17 -59 3 -2 138 2 299 11 339 18
1082 50 1539 66 180 6 777 11 1396 10 l1081 -1 27 92 c40 135 43 140 97 178
81 56 85 83 18 110 -19 8 -28 18 -25 27 3 8 33 112 67 231 33 119 67 237 75
261 9 29 14 88 14 170 0 124 -1 128 -49 266 -36 105 -54 144 -74 159 -21 16
-29 17 -41 7 -8 -7 -23 -11 -32 -9 -17 3 -17 4 0 20 17 17 15 19 -28 45 -80
49 -54 83 62 83 73 0 90 -11 77 -50 -3 -9 1 -22 8 -29 11 -9 19 -2 38 34 13
25 27 45 31 45 5 0 8 43 8 95 l0 95 -429 0 -429 0 -64 -112 c-35 -62 -69 -113
-76 -113 -6 0 -65 51 -131 113 l-119 112 -1218 0 -1217 0 -95 -95 c-69 -69
-98 -92 -104 -83 -4 7 -29 50 -55 96 l-47 82 -270 -1 c-149 -1 -298 -5 -331
-9z m4555 -141 c0 -12 -7 -20 -20 -20 -11 -1 -26 -2 -32 -3 -23 -2 -14 28 11
41 29 14 41 9 41 -18z m-532 -101 c2 -15 14 -37 27 -50 l23 -23 -46 -49 -45
-48 -54 26 c-29 14 -53 30 -53 36 0 23 118 142 135 137 6 -2 11 -15 13 -29z
m-3613 -60 c27 -29 61 -67 73 -85 l23 -32 -48 -35 c-26 -20 -53 -36 -59 -36
-6 0 -17 13 -23 29 -7 15 -30 45 -51 66 -38 37 -39 39 -20 52 11 8 23 31 26
54 4 21 11 39 17 39 6 0 34 -24 62 -52z"/>
<path d="M2005 1409 c-400 -9 -913 -27 -1135 -39 -96 -5 -314 -14 -485 -21
-171 -7 -314 -15 -318 -19 -4 -4 -21 -42 -37 -86 l-30 -79 0 -582 0 -583 259
0 259 0 59 133 c33 72 89 205 124 294 35 90 67 163 70 163 6 0 34 -505 31
-557 l-2 -33 1579 0 1579 0 6 23 c3 13 10 97 16 187 6 91 13 166 15 169 3 2 9
-8 14 -23 23 -60 101 -245 126 -298 l26 -58 320 0 319 0 0 436 0 436 -30 102
c-35 120 -122 379 -140 419 l-13 27 -1151 -2 c-633 -1 -1290 -5 -1461 -9z"/>
</g>
</svg>
