<?xml version="1.0" standalone="no"?>
<!DOCTYPE svg PUBLIC "-//W3C//DTD SVG 20010904//EN"
 "http://www.w3.org/TR/2001/REC-SVG-20010904/DTD/svg10.dtd">
<svg version="1.0" xmlns="http://www.w3.org/2000/svg"
 width="480.000000pt" height="360.000000pt" viewBox="0 0 480.000000 360.000000"
 preserveAspectRatio="xMidYMid meet">
<metadata>
Created by potrace 1.16, written by Peter Selinger 2001-2019
</metadata>
<rect width="1" height="360" fill="#000000"/>
<rect x="479" width="1" height="360" fill="#000000"/>
<rect width="480" height="1" fill="#000000"/>
<rect y="359" width="480" height="1" fill="#000000"/>
<g transform="translate(0.000000,360.000000) scale(0.100000,-0.100000)"
fill="#000000" stroke="none">
<path d="M2826 3583 c-24 -83 -11 -194 35 -292 16 -35 28 -65 27 -66 -2 -1
-26 -10 -54 -19 -71 -23 -201 -100 -282 -168 -114 -94 -207 -251 -226 -382
-10 -64 -42 -145 -68 -173 -31 -33 -16 -38 21 -7 l32 26 -7 -43 c-4 -34 -3
-41 6 -29 8 11 10 -3 9 -60 -2 -94 0 -101 13 -70 10 24 11 23 28 -25 l18 -50
2 35 2 35 10 -34 c10 -37 38 -72 38 -49 0 7 9 2 20 -12 12 -16 20 -20 20 -11
0 8 16 -4 36 -28 20 -23 39 -40 41 -37 3 3 -3 25 -12 51 -10 25 -16 48 -13 50
3 3 13 -16 23 -42 22 -60 35 -75 35 -43 1 23 2 23 11 7 17 -29 2 -82 -38 -134
-40 -53 -38 -67 17 -95 38 -20 50 -34 50 -64 0 -24 29 -54 53 -54 12 0 17 -8
17 -25 0 -14 7 -28 15 -31 8 -3 28 -28 46 -55 29 -45 31 -55 26 -107 -3 -31
-8 -64 -12 -74 -4 -11 0 -18 13 -22 23 -8 34 -40 19 -55 -7 -7 -6 -16 5 -28 9
-11 23 -66 33 -133 l18 -115 -33 -102 c-18 -56 -41 -109 -51 -119 -17 -15 -22
-14 -80 15 -75 37 -102 39 -134 7 -22 -22 -23 -29 -18 -97 3 -41 1 -85 -4 -98
-9 -21 -12 -18 -37 40 -67 153 -99 200 -155 228 -23 12 -52 41 -76 78 -38 57
-39 59 -40 163 -2 137 -28 223 -84 273 -46 42 -101 52 -206 39 -38 -5 -73 -8
-77 -5 -5 2 -8 22 -8 44 0 28 -4 39 -15 39 -8 0 -15 -8 -16 -17 0 -10 -1 -34
-2 -53 -2 -34 -4 -36 -73 -60 -103 -36 -161 -80 -174 -133 -6 -23 -18 -63 -26
-88 -13 -41 -13 -53 0 -105 9 -33 20 -84 26 -116 12 -63 48 -123 118 -196 40
-42 60 -54 130 -77 45 -14 82 -30 82 -35 0 -4 -16 -41 -35 -81 -53 -114 -83
-233 -95 -381 -7 -73 -20 -162 -30 -198 -10 -36 -21 -77 -24 -92 l-6 -28 514
0 514 0 6 31 c3 17 6 61 6 98 0 80 14 111 24 54 4 -21 14 -71 23 -111 l17 -72
661 0 661 0 -1 82 0 82 75 21 c75 21 140 52 140 67 0 4 -7 8 -15 8 -23 0 -18
13 20 50 19 19 35 38 35 43 0 6 -25 7 -61 3 -46 -6 -90 -22 -170 -62 -60 -30
-113 -54 -119 -54 -5 0 -10 8 -10 18 0 10 -7 42 -15 72 -9 30 -16 62 -16 70 0
41 -107 501 -121 517 -5 7 -7 17 -4 22 4 6 0 27 -9 47 -17 41 -13 57 6 26 7
-11 18 -18 25 -15 7 2 25 -32 48 -91 21 -53 41 -98 46 -101 4 -3 11 14 15 37
4 24 12 46 18 50 8 5 5 19 -10 45 -16 30 -22 63 -28 158 -3 66 -9 128 -11 138
-3 9 -1 17 4 17 4 0 23 -35 42 -77 34 -79 71 -135 54 -83 -4 14 -9 43 -10 65
-1 22 -13 95 -26 162 -14 67 -22 127 -18 133 4 6 22 -35 40 -92 31 -100 112
-273 145 -313 l17 -20 -7 20 c-30 89 -66 265 -55 265 4 0 26 -30 49 -67 47
-79 78 -120 84 -113 3 3 -1 37 -8 75 -17 85 -22 180 -35 574 -6 167 -17 354
-26 415 -31 225 -89 448 -159 616 -20 45 -43 114 -51 154 -9 39 -28 94 -42
121 -34 68 -105 167 -146 203 -81 70 -203 98 -300 68 l-49 -15 -126 130 -127
129 -196 0 c-179 0 -197 -2 -202 -17z m235 -2070 c-14 -11 -26 -20 -27 -20 -1
1 1 34 4 72 l5 70 22 -50 22 -50 -26 -22z"/>
</g>
</svg>
