<?xml version="1.0" standalone="no"?>
<!DOCTYPE svg PUBLIC "-//W3C//DTD SVG 20010904//EN"
 "http://www.w3.org/TR/2001/REC-SVG-20010904/DTD/svg10.dtd">
<svg version="1.0" xmlns="http://www.w3.org/2000/svg"
 width="480.000000pt" height="360.000000pt" viewBox="0 0 480.000000 360.000000"
 preserveAspectRatio="xMidYMid meet">
<metadata>
Created by potrace 1.16, written by Peter Selinger 2001-2019
</metadata>
<rect width="1" height="360" fill="#000000"/>
<rect x="479" width="1" height="360" fill="#000000"/>
<rect width="480" height="1" fill="#000000"/>
<rect y="359" width="480" height="1" fill="#000000"/>
<g transform="translate(0.000000,360.000000) scale(0.100000,-0.100000)"
fill="#000000" stroke="none">
<path d="M0 1800 l0 -1800 2400 0 2400 0 0 1800 0 1800 -2400 0 -2400 0 0
-1800z m2120 926 c0 -11 9 -13 33 -10 45 7 66 -9 50 -36 -7 -11 -13 -27 -13
-36 0 -27 60 -6 105 36 54 51 75 60 135 60 63 0 98 -14 195 -80 56 -38 74 -55
64 -61 -16 -10 -48 -3 -103 22 -54 24 -76 12 -76 -40 0 -42 -7 -37 102 -76 68
-24 96 -49 91 -79 -4 -21 1 -27 32 -40 20 -9 34 -20 30 -26 -3 -5 0 -10 7 -10
7 0 21 -12 31 -25 17 -24 17 -25 0 -25 -13 0 -14 -3 -5 -12 18 -18 16 -44 -2
-29 -11 9 -15 9 -18 -1 -4 -10 -12 -10 -39 -2 -24 7 -42 8 -58 0 -16 -7 -28
-6 -43 3 -16 10 -18 10 -12 0 5 -8 3 -11 -7 -7 -59 22 -62 22 -55 -8 4 -15 14
-43 22 -62 l14 -35 44 47 c72 77 102 59 105 -65 l1 -46 113 -12 c146 -16 157
-18 157 -37 0 -14 -12 -15 -92 -9 l-93 6 31 -19 c89 -57 81 -56 247 -27 163
29 292 28 322 -1 7 -8 18 -14 24 -14 6 0 10 -3 9 -7 -4 -18 14 -53 28 -53 8 0
17 -7 21 -16 4 -11 13 -14 29 -10 16 4 24 2 24 -7 0 -7 15 -21 33 -30 28 -14
29 -16 10 -16 -23 -1 -32 -25 -13 -36 14 -9 12 -45 -2 -45 -8 0 -9 -3 -3 -8 6
-4 10 -16 10 -27 0 -14 -6 -19 -20 -17 -20 2 -20 2 0 -9 19 -12 19 -12 0 -19
-11 -4 -32 -1 -47 7 -25 12 -28 12 -28 -2 0 -8 -6 -15 -14 -15 -8 0 -16 -7
-20 -15 -3 -8 -15 -15 -26 -15 -11 0 -20 -4 -20 -10 0 -5 5 -10 10 -10 6 0 10
-4 10 -8 0 -13 -59 -5 -85 12 -42 27 -51 18 -15 -15 21 -19 25 -25 10 -15 -94
60 -108 65 -257 90 -151 26 -207 41 -230 58 -7 6 -46 11 -88 12 l-77 2 6 -25
c17 -73 18 -92 6 -106 -18 -21 -46 -19 -63 6 -15 21 -15 21 -29 -7 -28 -59
-57 -31 -59 59 l-2 55 -40 5 c-23 3 -87 3 -144 0 -113 -7 -139 2 -129 43 4 13
3 25 -1 27 -10 6 -235 25 -373 31 -100 5 -102 4 -55 -8 34 -8 49 -17 48 -27
-2 -9 15 -24 42 -37 25 -12 45 -26 45 -32 0 -23 -32 -20 -92 8 -35 17 -106 47
-158 67 -87 34 -95 35 -107 20 -7 -10 -19 -15 -28 -11 -9 3 -13 2 -10 -4 9
-14 -19 -12 -33 2 -7 7 -12 20 -12 30 0 19 -13 23 -90 32 -32 3 -51 12 -67 31
-55 63 -27 67 260 35 100 -11 261 -27 357 -35 l175 -14 36 39 c19 21 47 60 60
87 14 26 32 58 39 70 11 17 12 26 2 45 -7 13 -20 52 -30 87 -15 59 -20 65 -49
73 -18 5 -40 20 -49 34 -16 24 -16 26 11 54 44 46 95 36 95 -18 0 -24 40 -102
53 -102 4 0 7 7 7 15 0 9 7 27 16 40 21 33 11 79 -16 72 -21 -5 -73 42 -68 63
2 8 -6 16 -17 18 -11 2 -27 10 -35 16 -8 7 -41 25 -73 41 -60 30 -111 78 -104
99 2 6 22 10 46 9 22 -1 41 2 41 8 0 5 -4 9 -8 9 -13 0 -44 60 -38 76 7 18 46
18 46 0z"/>
<path d="M2361 2098 c-6 -18 -29 -62 -51 -98 -63 -103 -52 -115 45 -46 33 24
66 54 74 68 13 22 11 28 -13 66 -14 23 -30 42 -35 42 -5 0 -14 -15 -20 -32z"/>
<path d="M2736 2022 c-13 -12 -4 -21 45 -41 77 -34 95 -20 22 16 -34 17 -64
28 -67 25z"/>
</g>
</svg>
