<?xml version="1.0" standalone="no"?>
<!DOCTYPE svg PUBLIC "-//W3C//DTD SVG 20010904//EN"
 "http://www.w3.org/TR/2001/REC-SVG-20010904/DTD/svg10.dtd">
<svg version="1.0" xmlns="http://www.w3.org/2000/svg"
 width="480.000000pt" height="360.000000pt" viewBox="0 0 480.000000 360.000000"
 preserveAspectRatio="xMidYMid meet">
<metadata>
Created by potrace 1.16, written by Peter Selinger 2001-2019
</metadata>
<rect width="1" height="360" fill="#000000"/>
<rect x="479" width="1" height="360" fill="#000000"/>
<rect width="480" height="1" fill="#000000"/>
<rect y="359" width="480" height="1" fill="#000000"/>
<g transform="translate(0.000000,360.000000) scale(0.100000,-0.100000)"
fill="#000000" stroke="none">
<path d="M0 1800 l0 -1800 161 0 161 0 -7 33 c-29 135 -33 212 -17 356 19 180
12 231 -58 402 -164 399 -195 532 -207 889 -8 266 11 485 63 735 24 112 128
445 171 545 l20 44 -33 43 c-49 64 -27 103 57 103 69 0 515 -194 574 -249 17
-16 40 -34 53 -40 60 -31 930 -351 994 -365 16 -4 30 -1 34 6 5 8 2 9 -10 5
-20 -8 -34 19 -18 35 6 6 8 16 6 23 -3 7 4 31 15 54 29 55 27 61 -20 61 -22 0
-38 4 -35 9 3 5 -23 14 -59 21 l-64 12 23 22 c13 11 21 26 19 33 -2 6 6 17 19
24 37 19 78 58 193 182 59 64 130 131 158 150 168 110 218 128 283 97 22 -11
45 -20 51 -20 7 0 19 -7 28 -16 9 -9 45 -23 81 -30 143 -30 250 -111 296 -225
28 -69 66 -254 55 -265 -4 -4 -15 -1 -24 7 -10 7 -15 9 -11 5 9 -10 -31 -86
-45 -86 -5 0 -16 -8 -23 -17 -8 -10 -14 -13 -14 -6 0 8 -10 7 -31 -5 -24 -13
-33 -14 -36 -4 -3 6 -9 12 -15 12 -10 0 -7 -32 7 -77 5 -17 3 -25 -11 -30 -11
-4 -33 -21 -50 -37 -86 -85 -101 -96 -117 -90 -9 3 -17 2 -17 -3 0 -12 32 -30
94 -54 30 -11 70 -33 90 -48 42 -34 77 -45 473 -152 201 -54 300 -76 307 -69
15 15 37 12 58 -7 17 -15 20 -15 41 5 29 27 43 28 59 3 9 -15 16 -17 31 -10
14 8 23 7 36 -5 10 -9 25 -16 34 -16 9 0 19 -11 23 -25 7 -28 19 -32 28 -10 8
23 35 18 46 -9 5 -13 13 -27 19 -30 20 -13 815 -186 851 -186 6 0 10 351 10
935 l0 935 -2400 0 -2400 0 0 -1800z"/>
<path d="M766 2767 c-36 -56 -170 -385 -204 -502 -44 -150 -85 -428 -98 -655
-11 -199 21 -390 120 -720 79 -261 80 -266 66 -313 -6 -23 -36 -96 -65 -162
-63 -143 -75 -195 -75 -320 l0 -95 343 1 342 0 45 55 c42 52 125 120 231 192
48 32 264 219 384 331 170 159 285 283 355 381 41 58 84 117 96 132 18 23 21
33 14 65 -5 20 -7 40 -4 44 2 4 -26 31 -63 60 -119 93 -193 160 -208 190 -21
39 -18 125 5 176 10 24 40 76 67 115 44 68 47 77 48 138 0 55 4 70 27 101 25
33 27 40 22 100 -5 51 -2 75 15 119 27 72 28 89 0 64 -11 -10 -28 -31 -37 -46
-21 -36 -36 -36 -29 1 8 36 -1 46 -24 25 -14 -12 -22 -13 -39 -4 -18 9 -24 8
-40 -12 -11 -13 -19 -18 -20 -11 0 7 -7 10 -15 7 -18 -7 -19 0 -4 28 10 18 9
20 -5 15 -9 -4 -16 -2 -16 4 0 6 -6 9 -12 7 -26 -9 -37 15 -21 45 17 34 9 49
-11 21 -8 -10 -22 -28 -31 -39 -16 -18 -16 -18 0 9 14 24 15 30 4 37 -12 8
-11 11 1 18 12 8 10 12 -10 19 -16 6 -29 6 -37 0 -9 -8 -13 -6 -13 4 0 8 -17
20 -37 27 -223 79 -486 177 -786 295 -107 42 -177 64 -191 60 -12 -3 -34 0
-49 5 -23 9 -29 7 -41 -12z"/>
<path d="M2860 2050 c0 -16 11 -46 25 -66 14 -20 25 -46 25 -57 0 -11 16 -44
36 -73 27 -40 37 -66 44 -116 4 -35 15 -78 24 -95 l16 -31 47 18 c27 9 136 39
243 64 253 61 240 56 239 108 -2 65 -12 91 -39 99 -107 32 -640 179 -649 179
-6 0 -11 -13 -11 -30z"/>
<path d="M3871 1751 c-35 -54 -96 -114 -157 -155 -79 -52 -586 -226 -664 -228
-30 -1 -62 7 -97 25 -29 15 -54 27 -55 27 -2 0 -4 -19 -5 -42 -1 -24 -4 -77
-6 -118 l-4 -75 44 -47 c43 -48 51 -74 33 -108 -15 -28 33 -119 116 -221 75
-92 176 -256 172 -279 -4 -17 -59 -16 -95 2 -13 6 -25 9 -27 7 -3 -2 4 -42 15
-89 27 -114 55 -270 64 -350 3 -36 9 -73 11 -82 5 -17 51 -18 795 -18 l789 0
-2 766 -3 766 -205 65 c-113 35 -306 93 -430 129 -124 35 -232 67 -241 70 -12
3 -26 -11 -48 -45z"/>
<path d="M2257 1582 c-15 -15 -27 -32 -27 -38 0 -5 16 -22 35 -37 l35 -28 0
53 c0 74 -10 85 -43 50z"/>
</g>
</svg>
