<?xml version="1.0" standalone="no"?>
<!DOCTYPE svg PUBLIC "-//W3C//DTD SVG 20010904//EN"
 "http://www.w3.org/TR/2001/REC-SVG-20010904/DTD/svg10.dtd">
<svg version="1.0" xmlns="http://www.w3.org/2000/svg"
 width="480.000000pt" height="360.000000pt" viewBox="0 0 480.000000 360.000000"
 preserveAspectRatio="xMidYMid meet">
<metadata>
Created by potrace 1.16, written by Peter Selinger 2001-2019
</metadata>
<rect width="1" height="360" fill="#000000"/>
<rect x="479" width="1" height="360" fill="#000000"/>
<rect width="480" height="1" fill="#000000"/>
<rect y="359" width="480" height="1" fill="#000000"/>
<g transform="translate(0.000000,360.000000) scale(0.100000,-0.100000)"
fill="#000000" stroke="none">
<path d="M3646 3487 c-11 -29 -22 -43 -36 -44 -11 -1 -20 2 -20 8 0 21 -19 7
-29 -21 -9 -28 -13 -30 -63 -31 -68 -1 -103 -11 -103 -29 0 -8 26 -32 59 -53
58 -39 58 -39 52 -78 -6 -38 -6 -38 22 -33 l29 6 -12 -59 c-13 -62 -86 -185
-163 -273 -22 -26 -61 -84 -71 -106 -9 -21 -71 -41 -90 -30 -5 3 -22 -1 -37
-9 -16 -8 -38 -12 -48 -9 -17 6 -18 2 -13 -39 6 -40 4 -48 -15 -62 -13 -8 -35
-15 -49 -15 -15 0 -34 -3 -43 -6 -14 -5 -14 -8 -1 -21 17 -17 20 -33 5 -33
-29 0 3 -33 103 -108 174 -129 182 -136 172 -158 -5 -10 -16 -59 -24 -109 -18
-101 -14 -332 6 -356 6 -8 17 -34 24 -59 7 -25 20 -55 30 -67 18 -25 172 -151
204 -167 31 -17 80 -64 73 -72 -4 -3 -42 -12 -85 -18 -43 -7 -85 -15 -93 -18
-49 -19 -123 -37 -180 -42 -85 -9 -157 -34 -163 -58 -4 -12 -14 -18 -34 -18
-83 0 -193 -64 -193 -112 0 -20 -14 -28 -177 -106 -40 -18 -73 -40 -73 -48 0
-8 -4 -14 -9 -14 -34 0 -88 168 -126 390 -13 81 -16 87 -57 122 -40 35 -43 41
-42 87 1 68 -21 80 -119 68 -81 -9 -71 -13 -321 114 -122 62 -212 83 -236 54
-20 -24 -7 -46 54 -89 60 -42 79 -66 54 -66 -7 0 -30 -9 -51 -20 -47 -25 -167
-27 -282 -4 -44 9 -107 21 -141 28 -65 13 -84 11 -84 -8 0 -20 72 -82 127
-110 28 -14 67 -36 86 -49 90 -61 361 -157 445 -157 26 0 33 -3 28 -15 -7 -19
38 -117 65 -141 10 -9 19 -21 19 -27 0 -5 8 -21 19 -35 10 -15 24 -45 31 -67
7 -22 19 -49 26 -60 17 -26 104 -288 104 -312 0 -10 13 -35 30 -55 23 -28 49
-43 115 -67 48 -17 106 -31 130 -31 52 0 143 20 242 54 85 29 343 135 359 148
7 5 30 5 55 -1 48 -10 96 -9 147 3 33 8 83 -14 111 -48 7 -8 30 -119 51 -248
29 -173 48 -259 75 -333 20 -55 39 -110 42 -122 l5 -23 619 0 619 0 0 680 c0
578 -2 680 -14 680 -8 0 -45 14 -83 31 -102 46 -141 60 -218 74 -46 8 -69 16
-67 25 1 6 -2 18 -8 25 -8 10 6 39 58 117 38 56 74 112 81 123 l12 20 -5 -20
c-3 -11 -8 -47 -12 -79 -8 -67 2 -69 37 -6 24 43 39 51 39 23 0 -36 20 10 20
47 0 19 9 69 20 110 29 110 26 191 -10 303 -16 52 -30 107 -30 124 0 69 -70
235 -122 290 -35 36 -35 42 8 184 21 68 32 89 50 98 26 12 30 32 13 80 -11 31
-12 31 -35 16 -13 -8 -26 -15 -29 -15 -3 0 -19 22 -35 49 -22 35 -37 49 -53
49 -12 0 -53 5 -92 12 -39 7 -100 10 -138 7 l-68 -6 -160 80 c-98 50 -159 87
-159 96 0 11 7 13 33 8 45 -10 172 -63 199 -84 13 -10 40 -21 62 -24 21 -3 47
-14 57 -23 30 -27 45 -11 57 64 20 118 17 139 -20 159 -55 29 -109 43 -202 50
-74 5 -89 9 -94 25 -4 16 -15 18 -87 18 l-82 0 -24 60 c-13 33 -26 60 -30 60
-3 0 -14 -19 -23 -43z m737 -1932 c-3 -9 -8 -14 -10 -11 -3 3 -2 9 2 15 9 16
15 13 8 -4z"/>
<path d="M1139 466 c-2 -3 -65 -12 -139 -21 -284 -34 -467 -56 -530 -65 -36
-5 -126 -16 -200 -24 -74 -9 -162 -20 -195 -26 -33 -5 -63 -10 -67 -10 -5 0
-8 -72 -8 -160 l0 -160 1238 1 c1236 0 1237 0 1167 20 -38 10 -92 25 -120 33
-27 8 -174 46 -325 86 -340 88 -464 126 -479 144 -7 8 -18 36 -24 62 -15 59
-41 79 -138 104 -67 18 -169 27 -180 16z"/>
</g>
</svg>
