<?xml version="1.0" standalone="no"?>
<!DOCTYPE svg PUBLIC "-//W3C//DTD SVG 20010904//EN"
 "http://www.w3.org/TR/2001/REC-SVG-20010904/DTD/svg10.dtd">
<svg version="1.0" xmlns="http://www.w3.org/2000/svg"
 width="480.000000pt" height="360.000000pt" viewBox="0 0 480.000000 360.000000"
 preserveAspectRatio="xMidYMid meet">
<metadata>
Created by potrace 1.16, written by Peter Selinger 2001-2019
</metadata>
<rect width="1" height="360" fill="#000000"/>
<rect x="479" width="1" height="360" fill="#000000"/>
<rect width="480" height="1" fill="#000000"/>
<rect y="359" width="480" height="1" fill="#000000"/>
<g transform="translate(0.000000,360.000000) scale(0.100000,-0.100000)"
fill="#000000" stroke="none">
<path d="M0 1800 l0 -1800 1521 0 1521 0 -5 27 c-5 32 -95 342 -102 353 -2 4
-20 70 -39 146 -20 76 -47 173 -61 214 -14 41 -35 108 -46 148 -11 41 -31 97
-45 125 -15 28 -39 90 -54 139 -16 48 -53 138 -83 200 -67 137 -93 247 -103
418 -6 109 -9 129 -30 156 -13 17 -28 53 -35 79 -7 28 -27 65 -50 91 -50 58
-58 111 -33 202 10 37 17 82 16 100 -2 19 3 44 13 58 13 20 14 32 5 62 -14 50
-13 51 15 62 23 9 25 14 19 48 -4 27 -2 41 9 50 22 18 103 26 145 14 20 -6 67
-18 104 -27 121 -30 249 -139 466 -393 54 -63 120 -145 149 -183 68 -91 159
-271 178 -351 8 -35 21 -82 28 -104 14 -39 37 -212 36 -269 0 -16 4 -55 10
-85 12 -62 7 -103 -20 -141 -18 -25 -18 -26 26 -120 25 -54 70 -184 104 -304
33 -115 69 -236 81 -267 23 -67 68 -217 81 -273 6 -22 19 -70 31 -108 l21 -67
463 0 464 0 0 1800 0 1800 -2400 0 -2400 0 0 -1800z"/>
</g>
</svg>
