<?xml version="1.0" standalone="no"?>
<!DOCTYPE svg PUBLIC "-//W3C//DTD SVG 20010904//EN"
 "http://www.w3.org/TR/2001/REC-SVG-20010904/DTD/svg10.dtd">
<svg version="1.0" xmlns="http://www.w3.org/2000/svg"
 width="480.000000pt" height="360.000000pt" viewBox="0 0 480.000000 360.000000"
 preserveAspectRatio="xMidYMid meet">
<metadata>
Created by potrace 1.16, written by Peter Selinger 2001-2019
</metadata>
<rect width="1" height="360" fill="#000000"/>
<rect x="479" width="1" height="360" fill="#000000"/>
<rect width="480" height="1" fill="#000000"/>
<rect y="359" width="480" height="1" fill="#000000"/>
<g transform="translate(0.000000,360.000000) scale(0.100000,-0.100000)"
fill="#000000" stroke="none">
<path d="M0 1800 l0 -1800 2400 0 2400 0 0 790 c0 772 0 790 -19 790 -22 0
-238 -46 -264 -56 -35 -13 -66 6 -99 61 -40 67 -20 67 -258 -9 -411 -133 -614
-168 -780 -136 -111 21 -180 70 -450 320 -58 54 -150 136 -205 183 l-100 86
-31 -30 c-18 -17 -57 -77 -88 -134 -70 -128 -122 -189 -162 -191 -63 -2 -74
-4 -74 -13 0 -4 31 -11 69 -15 91 -8 104 -13 96 -40 -24 -75 -35 -126 -35
-161 0 -22 -10 -68 -21 -100 -12 -33 -22 -82 -22 -110 -1 -57 34 -171 65 -210
24 -31 20 -35 -45 -59 -49 -18 -57 -18 -239 0 -36 4 -64 13 -78 26 -21 20 -21
20 -2 42 30 33 62 121 62 169 0 24 -7 67 -16 96 -10 35 -13 70 -9 104 6 52 6
52 -30 71 -61 33 -111 96 -119 151 -11 67 -26 39 -26 -48 0 -51 -4 -69 -15
-74 -22 -8 -50 21 -75 78 -11 28 -27 52 -35 55 -39 15 -45 125 -11 218 28 79
138 230 198 272 65 46 255 157 365 213 171 87 256 85 453 -6 19 -9 78 -36 130
-61 52 -24 156 -69 230 -99 182 -73 251 -108 338 -171 l74 -52 186 93 c103 51
244 116 314 143 70 27 128 54 128 60 0 6 -7 17 -15 24 -8 7 -15 18 -15 25 0 6
62 39 138 73 l137 61 16 70 c31 136 98 192 254 213 l85 12 0 374 0 374 -27 -6
c-99 -19 -101 -19 -105 6 -5 34 -50 36 -89 4 -17 -14 -38 -26 -47 -26 -9 0
-29 -6 -44 -14 -54 -28 -228 -42 -228 -18 0 20 -78 15 -107 -8 -29 -23 -99
-25 -107 -3 -4 10 -16 12 -38 8 -18 -3 -53 1 -77 8 -51 16 -74 55 -52 89 15
24 5 41 -20 33 -24 -8 -69 19 -69 40 0 13 -230 15 -1895 15 l-1895 0 0 -1800z"/>
<path d="M2252 1982 c-11 -11 -22 -41 -26 -68 -4 -27 -10 -64 -13 -81 -4 -28
-2 -34 18 -42 15 -5 29 -5 36 1 6 5 20 8 30 7 56 -8 78 28 71 121 -2 36 -8 47
-28 56 -53 25 -68 26 -88 6z"/>
<path d="M2062 1783 c-18 -26 -18 -34 -7 -115 11 -80 25 -118 46 -118 4 0 6
22 4 49 l-4 49 62 9 c34 4 62 12 62 18 0 5 -25 23 -55 40 -35 19 -61 42 -71
63 l-17 33 -20 -28z"/>
</g>
</svg>
