<?xml version="1.0" standalone="no"?>
<!DOCTYPE svg PUBLIC "-//W3C//DTD SVG 20010904//EN"
 "http://www.w3.org/TR/2001/REC-SVG-20010904/DTD/svg10.dtd">
<svg version="1.0" xmlns="http://www.w3.org/2000/svg"
 width="480.000000pt" height="360.000000pt" viewBox="0 0 480.000000 360.000000"
 preserveAspectRatio="xMidYMid meet">
<metadata>
Created by potrace 1.16, written by Peter Selinger 2001-2019
</metadata>
<rect width="1" height="360" fill="#000000"/>
<rect x="479" width="1" height="360" fill="#000000"/>
<rect width="480" height="1" fill="#000000"/>
<rect y="359" width="480" height="1" fill="#000000"/>
<g transform="translate(0.000000,360.000000) scale(0.100000,-0.100000)"
fill="#000000" stroke="none">
<path d="M0 2619 l0 -980 58 32 c161 91 289 186 423 316 83 79 103 86 155 54
16 -10 93 -46 169 -80 76 -33 194 -92 261 -131 175 -101 230 -122 341 -128 72
-4 112 0 191 18 l100 23 81 -22 c45 -12 85 -20 90 -17 5 3 41 50 81 103 92
124 105 136 215 187 112 53 118 60 103 112 -16 53 -27 67 -44 54 -10 -9 -13
-5 -16 16 -2 15 -8 29 -14 31 -13 4 -24 -41 -24 -96 0 -20 -5 -43 -10 -51 -7
-12 -10 -8 -10 14 0 26 -1 28 -12 13 -11 -15 -12 -9 -9 34 5 78 -13 80 -29 2
l-13 -68 -18 102 c-9 56 -21 112 -25 125 -7 22 -7 22 -14 3 -7 -17 -10 -15
-25 19 l-17 39 -24 -29 -25 -29 6 43 c8 47 1 51 -45 27 -32 -16 -41 -6 -14 15
8 8 27 33 41 57 24 42 25 46 9 61 -16 16 -18 15 -36 -8 l-19 -25 -41 23 c-22
13 -45 20 -51 16 -6 -3 -21 4 -35 17 l-24 22 73 68 c92 84 116 132 99 195 -23
86 -6 233 38 313 21 41 83 102 123 122 65 34 180 51 251 38 46 -8 79 -8 134 1
213 37 382 -33 454 -187 13 -27 23 -49 24 -51 1 -2 16 11 33 28 27 27 36 31
63 25 71 -16 184 -113 213 -182 9 -21 22 -70 30 -110 8 -40 18 -81 24 -91 11
-21 4 -35 -26 -51 -13 -6 -23 -17 -23 -24 0 -7 -7 -25 -15 -40 -13 -26 -13
-34 4 -85 11 -31 29 -109 41 -172 12 -63 24 -123 27 -134 3 -12 1 -16 -6 -12
-7 5 -11 -2 -11 -17 0 -31 -60 -211 -71 -215 -5 -2 -9 -11 -9 -19 0 -9 -6 -13
-15 -9 -10 4 -15 -1 -15 -14 0 -11 -7 -20 -16 -20 -8 0 -12 -4 -9 -10 3 -5 1
-10 -4 -10 -6 0 -11 5 -11 11 0 6 -7 17 -15 25 -13 14 -15 14 -15 0 0 -9 -4
-16 -10 -16 -5 0 -10 17 -10 38 0 50 -11 60 -26 25 -11 -28 -11 -27 -18 22 -4
28 -20 92 -37 143 -22 72 -29 112 -29 177 l0 85 -29 0 c-25 0 -28 -3 -23 -25
4 -21 1 -24 -13 -19 -15 6 -16 3 -11 -27 l7 -34 -31 33 -30 33 -12 -26 c-6
-14 -17 -24 -25 -21 -14 6 -53 -105 -53 -153 l-1 -26 -13 25 c-14 24 -14 24
-26 -20 -22 -86 -31 -100 -25 -40 3 37 1 50 -5 40 -5 -8 -10 -26 -10 -40 0
-14 -5 -32 -11 -40 -7 -11 -9 12 -6 83 2 53 0 97 -4 97 -5 0 -9 -5 -9 -11 0
-5 -15 -24 -34 -42 -34 -32 -61 -91 -50 -109 3 -5 58 -34 122 -64 139 -65 175
-97 248 -221 31 -51 58 -93 60 -93 3 0 35 8 70 17 56 15 70 15 111 4 235 -67
345 -53 569 70 128 71 152 81 466 212 26 11 32 6 155 -114 70 -69 162 -150
203 -181 72 -54 221 -148 234 -148 3 0 6 464 6 1030 l0 1030 -2400 0 -2400 0
0 -981z"/>
<path d="M2926 2549 c-38 -87 -34 -119 15 -144 15 -8 30 -15 34 -15 3 0 5 42
5 94 0 145 -13 160 -54 65z"/>
<path d="M2991 2244 c0 -11 3 -14 6 -6 3 7 2 16 -1 19 -3 4 -6 -2 -5 -13z"/>
<path d="M3202 2000 c0 -19 2 -27 5 -17 2 9 2 25 0 35 -3 9 -5 1 -5 -18z"/>
<path d="M533 1894 c-51 -53 -53 -58 -37 -75 9 -10 14 -25 11 -33 -3 -7 3 -31
13 -52 11 -22 20 -64 21 -95 3 -62 8 -51 -152 -299 -87 -135 -105 -158 -115
-147 -8 8 21 444 31 469 4 11 -19 0 -64 -29 -78 -51 -95 -83 -66 -126 9 -15
17 -50 18 -88 l2 -64 -98 -143 -97 -144 0 -534 0 -534 878 0 877 0 32 93 c18
50 42 130 53 177 29 115 69 226 122 340 31 66 43 106 41 130 -1 19 2 78 8 130
11 96 4 249 -11 234 -4 -5 -22 -43 -39 -85 -46 -110 -79 -149 -194 -227 -231
-156 -387 -245 -496 -282 -58 -21 -144 -52 -191 -70 -76 -29 -92 -31 -155 -26
-123 10 -285 80 -285 123 0 12 9 13 43 7 89 -17 178 -10 269 20 87 28 103 38
110 66 2 11 -8 14 -42 15 -38 0 -45 3 -45 20 0 13 12 26 35 37 46 24 188 25
231 2 19 -10 35 -12 42 -6 7 5 89 70 182 144 139 110 209 161 294 215 1 1 9
36 16 78 8 42 26 114 41 161 l27 85 -34 29 -34 28 32 34 32 33 -21 25 c-12 15
-18 34 -16 51 4 26 2 26 -75 38 -70 11 -82 10 -95 -3 -14 -14 -14 -18 5 -38
11 -13 26 -50 32 -83 13 -60 12 -62 -23 -139 -20 -43 -50 -110 -67 -150 -46
-108 -73 -159 -86 -163 -15 -5 -19 18 -39 244 l-16 183 32 55 c17 30 41 62 53
70 19 13 20 17 7 26 -15 10 -263 9 -274 -1 -3 -3 1 -24 9 -45 8 -22 14 -62 15
-89 0 -44 -9 -64 -117 -242 -65 -107 -122 -194 -127 -194 -5 0 -6 89 -2 223 7
210 9 224 31 263 13 23 40 55 60 72 19 17 35 39 35 49 0 22 -141 118 -213 145
-63 24 -74 16 -58 -46 26 -105 21 -123 -96 -309 -112 -179 -147 -226 -158
-215 -8 7 22 429 32 463 8 27 80 108 105 117 35 14 14 35 -86 87 l-100 52 -53
-57z"/>
<path d="M4098 1827 c-87 -42 -105 -60 -69 -72 10 -3 41 -32 69 -65 42 -50 51
-68 56 -112 6 -48 22 -156 32 -218 19 -121 25 -182 19 -197 -6 -16 -9 -15 -28
8 -12 15 -77 108 -144 207 l-123 180 0 74 c0 41 5 79 10 84 7 7 6 16 -3 28
-12 16 -16 16 -55 3 -42 -15 -157 -80 -201 -115 l-23 -19 65 -66 c74 -75 71
-67 107 -355 23 -185 24 -212 10 -212 -5 0 -38 44 -73 98 -35 53 -96 146 -135
205 l-72 109 0 72 c0 43 5 77 12 84 25 25 -10 35 -142 40 -93 3 -130 1 -130
-7 0 -6 4 -11 9 -11 5 0 32 -28 59 -62 l49 -63 7 -155 c3 -85 9 -197 13 -249
6 -87 5 -93 -13 -89 -10 2 -23 12 -29 23 -5 11 -33 63 -61 115 -169 314 -157
285 -151 362 3 39 13 80 21 93 23 35 3 45 -86 45 -74 0 -79 -1 -88 -24 -5 -14
-18 -30 -30 -36 -27 -15 -25 -26 10 -62 33 -32 31 -42 -12 -78 -18 -15 -18
-20 -4 -85 8 -39 22 -128 31 -200 9 -71 23 -140 30 -152 41 -62 66 -117 185
-398 23 -55 76 -152 117 -214 94 -143 121 -201 129 -279 l7 -62 663 0 664 0 0
518 0 518 -99 117 -99 117 -7 70 c-5 46 -3 75 4 83 6 8 8 29 4 50 -4 29 -14
42 -51 66 -26 17 -48 28 -50 27 -3 -3 32 -199 67 -385 9 -46 6 -71 -10 -71 -4
0 -73 87 -153 194 -144 192 -145 194 -152 258 -5 51 -3 71 11 97 9 18 15 42
12 52 -3 10 2 27 10 39 13 19 11 24 -27 70 -23 28 -49 50 -58 49 -10 0 -56
-20 -104 -42z"/>
<path d="M28 1544 c-16 -8 -28 -22 -28 -31 0 -13 5 -12 28 8 15 13 29 25 31
27 2 1 2 4 0 6 -2 2 -16 -2 -31 -10z"/>
<path d="M4776 1419 c12 -13 20 -16 22 -9 3 7 -2 16 -9 21 -25 16 -32 9 -13
-12z"/>
<path d="M2794 916 c-3 -8 -1 -47 5 -87 8 -51 9 -75 1 -84 -9 -10 -3 -32 21
-87 17 -40 37 -82 44 -93 20 -32 62 -152 89 -255 35 -131 55 -196 78 -257 l19
-53 55 0 c53 0 54 1 54 29 0 34 31 77 48 67 7 -4 12 -18 12 -31 0 -34 18 -40
31 -11 11 23 8 29 -20 58 -40 40 -67 92 -80 151 -13 57 -42 118 -90 192 -22
33 -46 71 -54 85 -8 14 -42 72 -75 130 -34 58 -74 140 -88 182 -25 76 -39 93
-50 64z"/>
</g>
</svg>
