<?xml version="1.0" standalone="no"?>
<!DOCTYPE svg PUBLIC "-//W3C//DTD SVG 20010904//EN"
 "http://www.w3.org/TR/2001/REC-SVG-20010904/DTD/svg10.dtd">
<svg version="1.0" xmlns="http://www.w3.org/2000/svg"
 width="480.000000pt" height="360.000000pt" viewBox="0 0 480.000000 360.000000"
 preserveAspectRatio="xMidYMid meet">
<metadata>
Created by potrace 1.16, written by Peter Selinger 2001-2019
</metadata>
<rect width="1" height="360" fill="#000000"/>
<rect x="479" width="1" height="360" fill="#000000"/>
<rect width="480" height="1" fill="#000000"/>
<rect y="359" width="480" height="1" fill="#000000"/>
<g transform="translate(0.000000,360.000000) scale(0.100000,-0.100000)"
fill="#000000" stroke="none">
<path d="M0 1800 l0 -1800 870 0 c479 0 870 1 870 3 0 61 115 452 172 582 22
50 53 127 69 173 l30 83 -27 124 c-15 69 -31 125 -37 125 -5 0 -26 -10 -47
-21 -48 -27 -66 -20 -79 28 -21 78 -19 88 17 91 19 2 47 -1 63 -7 39 -13 45 2
31 77 -6 31 -14 83 -18 116 l-6 58 -46 -50 c-50 -54 -83 -68 -134 -58 -66 13
-74 24 -139 180 -17 43 -55 113 -82 154 -38 56 -51 86 -55 122 -3 29 0 50 7
54 20 13 12 24 -38 51 -51 28 -67 51 -77 115 -6 34 -12 41 -45 54 -43 18 -51
42 -21 69 23 21 54 21 107 2 22 -8 59 -19 82 -25 23 -6 55 -22 71 -35 16 -13
31 -22 34 -20 3 3 18 -1 34 -10 16 -8 34 -15 41 -15 19 0 93 -81 109 -117 17
-40 23 -40 48 -5 11 15 16 24 11 20 -4 -4 -16 -3 -27 3 -16 9 -18 20 -16 87
l3 77 37 3 c20 2 53 -4 74 -13 20 -8 39 -14 41 -12 2 2 10 94 18 203 17 232
42 478 51 514 3 14 10 42 15 62 5 20 21 51 36 68 14 17 23 33 21 35 -2 3 -28
-8 -56 -23 -44 -23 -54 -25 -72 -14 -11 6 -35 12 -54 12 -63 0 -66 10 -66 210
0 98 4 181 8 184 12 7 165 -20 242 -44 36 -10 105 -37 153 -59 72 -34 91 -39
112 -31 35 13 91 13 113 -1 13 -8 41 0 134 41 120 52 259 89 336 90 l42 0 0
-179 c0 -99 -3 -186 -6 -195 -4 -11 -19 -16 -45 -16 -22 0 -48 -6 -59 -12 -16
-10 -28 -8 -75 15 -30 15 -58 27 -61 27 -3 0 6 -15 20 -33 13 -17 29 -45 35
-60 19 -50 41 -170 41 -225 0 -30 4 -95 10 -145 5 -51 14 -166 21 -257 6 -91
13 -167 15 -169 2 -2 19 4 39 13 20 10 52 16 73 14 l37 -3 3 -78 c3 -89 -9
-103 -61 -73 -40 22 -46 14 -8 -13 42 -30 71 -81 72 -127 1 -33 3 -28 15 30
13 68 36 116 54 116 5 0 21 18 36 41 23 37 28 40 58 35 27 -5 37 -1 61 24 16
16 27 31 24 32 -53 33 -71 35 -113 13 -44 -23 -63 -19 -54 13 1 4 8 6 15 4 22
-5 14 23 -13 48 -18 18 -23 31 -19 49 5 19 -3 32 -44 70 -27 25 -54 59 -60 74
-13 34 1 106 23 123 20 14 20 36 0 121 -23 98 -14 166 25 199 17 14 31 34 31
44 0 9 12 39 27 65 24 44 27 46 39 30 7 -10 23 -47 35 -82 22 -67 39 -75 39
-18 0 18 7 41 16 50 28 28 57 14 81 -38 24 -49 65 -79 83 -61 5 5 12 32 15 59
12 99 16 115 30 115 8 0 15 -3 15 -7 1 -5 5 -39 10 -78 6 -38 13 -123 16 -187
5 -97 3 -125 -11 -165 -16 -45 -16 -51 -1 -87 9 -21 16 -49 16 -61 0 -42 -39
-115 -89 -168 -51 -54 -76 -107 -50 -107 8 0 33 5 57 10 92 22 112 21 139 -6
13 -13 23 -30 20 -37 -2 -7 -27 -20 -55 -31 l-51 -18 16 -33 c15 -31 15 -36 0
-59 -10 -14 -35 -35 -56 -48 -37 -21 -38 -24 -37 -73 1 -42 -7 -66 -45 -140
-26 -50 -63 -142 -83 -206 -42 -133 -61 -159 -130 -166 -57 -7 -97 9 -137 54
-16 19 -33 33 -36 30 -7 -8 8 -177 16 -177 3 0 15 7 25 15 11 8 35 15 53 15
32 0 33 -1 33 -42 0 -91 -19 -109 -79 -78 l-39 19 -6 -31 c-3 -17 -6 -78 -6
-137 0 -58 -5 -113 -10 -121 -7 -11 -10 -6 -10 20 -1 85 -20 243 -31 256 -15
18 -34 18 -52 0 -10 -10 -16 -52 -21 -140 -7 -119 -6 -128 19 -198 14 -40 42
-108 61 -151 39 -87 189 -521 199 -579 l7 -38 859 0 859 0 0 1800 0 1800
-2400 0 -2400 0 0 -1800z m1520 1242 c0 -49 36 -138 66 -163 12 -10 20 -7 42
14 36 34 44 34 65 -3 21 -35 33 -38 42 -10 15 46 69 6 80 -60 6 -33 14 -46 41
-62 38 -22 44 -50 20 -97 -9 -17 -16 -61 -17 -112 -1 -89 -21 -187 -44 -223
-7 -11 -16 -39 -20 -61 -12 -69 -15 -73 -70 -100 -59 -27 -86 -31 -117 -14
-15 8 -27 8 -45 0 -29 -14 -53 0 -53 30 0 10 -16 34 -35 53 -24 24 -37 48 -41
76 -5 31 -13 44 -35 55 -38 20 -42 30 -25 63 13 26 13 35 0 86 -14 52 -14 60
1 82 8 13 22 24 31 24 9 0 28 12 43 28 26 26 27 32 29 132 2 129 22 310 33
310 5 0 9 -22 9 -48z m-239 -275 c-8 -8 -11 -3 -11 19 1 25 2 27 11 11 8 -14
8 -22 0 -30z"/>
<path d="M2854 1280 l-12 -45 -2 40 c-2 35 -3 37 -10 15 -16 -50 -12 -88 11
-95 11 -4 23 -5 25 -2 3 3 4 33 2 68 l-3 64 -11 -45z"/>
<path d="M2757 1273 c-11 -10 -8 -63 3 -63 6 0 10 16 10 35 0 36 -2 40 -13 28z"/>
<path d="M1991 1214 c0 -11 3 -14 6 -6 3 7 2 16 -1 19 -3 4 -6 -2 -5 -13z"/>
<path d="M2007 1081 c-3 -12 -1 -21 3 -21 14 0 19 15 11 29 -6 9 -10 7 -14 -8z"/>
</g>
</svg>
