<?xml version="1.0" standalone="no"?>
<!DOCTYPE svg PUBLIC "-//W3C//DTD SVG 20010904//EN"
 "http://www.w3.org/TR/2001/REC-SVG-20010904/DTD/svg10.dtd">
<svg version="1.0" xmlns="http://www.w3.org/2000/svg"
 width="480.000000pt" height="360.000000pt" viewBox="0 0 480.000000 360.000000"
 preserveAspectRatio="xMidYMid meet">
<metadata>
Created by potrace 1.16, written by Peter Selinger 2001-2019
</metadata>
<rect width="1" height="360" fill="#000000"/>
<rect x="479" width="1" height="360" fill="#000000"/>
<rect width="480" height="1" fill="#000000"/>
<rect y="359" width="480" height="1" fill="#000000"/>
<g transform="translate(0.000000,360.000000) scale(0.100000,-0.100000)"
fill="#000000" stroke="none">
<path d="M2046 3540 c-13 -117 -25 -327 -26 -450 0 -119 -25 -501 -35 -547 -3
-12 -9 -106 -15 -209 -5 -103 -12 -189 -15 -192 -10 -11 -16 8 -30 90 -13 81
-31 138 -45 138 -13 0 -30 -25 -30 -45 0 -11 -9 -28 -20 -38 -11 -9 -20 -27
-20 -39 0 -41 -22 -148 -31 -148 -5 0 -12 12 -15 28 -9 37 -80 174 -105 200
-42 45 -68 14 -70 -81 0 -29 -3 -46 -6 -39 -11 27 -25 11 -19 -22 4 -19 3 -37
-2 -40 -5 -3 -19 41 -32 97 -12 56 -27 109 -32 117 -15 24 1 -106 24 -195 29
-113 32 -134 19 -115 -9 12 -11 10 -11 -12 0 -15 -4 -29 -9 -32 -14 -9 -43 45
-96 179 -49 124 -60 145 -78 145 -16 0 -1 -66 39 -168 26 -67 33 -97 25 -105
-7 -7 -14 -2 -23 19 -19 44 -72 124 -82 124 -14 0 0 -74 29 -150 37 -97 32
-113 -47 -134 -119 -33 -161 -49 -319 -125 l-66 -31 -451 0 -452 0 0 -880 0
-880 990 0 990 0 0 34 c0 22 -9 45 -24 63 -25 30 -65 111 -72 147 -15 79 -15
145 -1 177 9 19 21 56 27 84 6 27 18 64 27 82 14 31 19 33 65 33 27 0 62 -7
78 -15 l30 -16 0 40 c0 22 -4 43 -10 46 -5 3 -10 20 -10 36 0 17 -5 51 -11 76
-10 38 -18 48 -47 60 -34 14 -34 15 -28 61 3 27 27 88 56 144 27 53 48 103 45
110 -3 7 5 18 17 23 20 9 23 16 20 59 -2 36 0 47 10 44 7 -3 14 -14 16 -26 2
-12 10 -22 19 -22 11 0 14 -6 9 -25 -5 -19 -2 -25 9 -25 25 0 55 19 55 35 0
21 13 19 34 -6 12 -15 15 -24 7 -32 -6 -6 -8 -28 -4 -52 3 -25 0 -51 -7 -65
-10 -18 -9 -24 0 -30 17 -10 4 -44 -13 -37 -20 8 -51 -56 -43 -88 24 -95 46
-258 36 -270 -8 -9 -6 -27 7 -65 l18 -52 90 -24 c50 -13 113 -23 141 -24 35 0
56 -5 65 -16 8 -9 33 -25 56 -35 24 -10 43 -25 43 -33 0 -9 9 -20 20 -26 20
-11 20 -11 -4 -53 -16 -28 -22 -52 -19 -72 5 -33 -17 -66 -93 -140 -37 -37
-74 -86 -74 -100 0 -3 513 -5 1140 -5 l1140 0 0 880 0 880 -637 0 c-420 0
-651 4 -676 11 -21 6 -81 39 -134 75 -123 83 -151 95 -250 101 -46 3 -83 7
-83 8 0 1 7 22 15 45 20 57 14 61 -10 8 -39 -88 -24 -13 30 157 75 235 69 257
-17 66 -21 -47 -46 -94 -57 -105 -10 -12 -30 -40 -45 -63 -14 -24 -30 -43 -34
-43 -4 0 -5 26 -1 58 7 61 4 75 -11 52 -7 -12 -10 -9 -10 12 0 39 -10 58 -30
58 -10 0 -20 6 -23 13 -4 12 -12 -2 -37 -70 l-12 -33 -44 46 -43 47 6 107 c6
118 -4 145 -33 88 -22 -44 -22 -44 -38 -23 -19 27 -33 11 -46 -53 -12 -55 -44
-107 -61 -96 -5 3 -9 0 -9 -7 0 -10 -3 -10 -12 -1 -9 9 -9 36 0 120 16 142 15
162 -3 162 -8 0 -15 -4 -15 -9 0 -15 -50 -63 -51 -49 -3 28 -7 56 -18 138 -24
181 -41 373 -51 570 -5 113 -17 260 -26 328 l-17 122 -132 0 -132 0 -7 -60z
m424 -1940 c0 -11 -4 -20 -9 -20 -11 0 -22 26 -14 34 12 12 23 5 23 -14z m4
-129 c6 -10 -20 -48 -28 -41 -7 8 5 50 15 50 4 0 10 -4 13 -9z m-96 -43 c17
-17 15 -45 -4 -52 -22 -9 -24 -8 -24 9 0 13 -4 14 -21 5 -17 -10 -20 -9 -17 5
1 9 7 15 11 13 5 -2 13 5 18 15 12 20 21 21 37 5z m-90 -75 c-4 -22 -22 -20
-26 1 -2 10 3 16 13 16 10 0 15 -7 13 -17z m-88 -54 c0 -24 -23 -21 -28 4 -2
10 3 17 12 17 10 0 16 -9 16 -21z m115 -59 c-6 -9 -9 -9 -16 1 -10 17 0 34 13
21 6 -6 7 -16 3 -22z m95 -118 c0 -14 -23 -32 -42 -32 -23 0 -23 16 0 29 21
13 42 14 42 3z m-32 -64 c-6 -18 -28 -21 -28 -4 0 9 7 16 16 16 9 0 14 -5 12
-12z"/>
<path d="M1492 2195 c0 -11 3 -29 8 -40 11 -25 11 1 0 35 -6 20 -8 21 -8 5z"/>
<path d="M1510 2125 c0 -5 5 -17 10 -25 5 -8 10 -10 10 -5 0 6 -5 17 -10 25
-5 8 -10 11 -10 5z"/>
</g>
</svg>
