<?xml version="1.0" standalone="no"?>
<!DOCTYPE svg PUBLIC "-//W3C//DTD SVG 20010904//EN"
 "http://www.w3.org/TR/2001/REC-SVG-20010904/DTD/svg10.dtd">
<svg version="1.0" xmlns="http://www.w3.org/2000/svg"
 width="480.000000pt" height="360.000000pt" viewBox="0 0 480.000000 360.000000"
 preserveAspectRatio="xMidYMid meet">
<metadata>
Created by potrace 1.16, written by Peter Selinger 2001-2019
</metadata>
<rect width="1" height="360" fill="#000000"/>
<rect x="479" width="1" height="360" fill="#000000"/>
<rect width="480" height="1" fill="#000000"/>
<rect y="359" width="480" height="1" fill="#000000"/>
<g transform="translate(0.000000,360.000000) scale(0.100000,-0.100000)"
fill="#000000" stroke="none">
<path d="M0 2702 l0 -898 223 -23 c265 -27 258 -26 517 -46 113 -9 223 -14
245 -11 22 3 128 12 235 21 307 23 669 61 978 101 200 26 471 70 479 78 6 6
25 157 20 162 -2 2 -66 6 -143 9 -76 3 -151 10 -166 16 -15 6 -42 8 -60 5 -18
-4 -58 -11 -88 -15 -30 -5 -63 -12 -72 -16 -23 -9 -57 11 -69 42 -8 22 -4 31
37 76 25 28 58 59 73 68 28 17 67 52 89 80 11 14 7 16 -29 16 -28 0 -47 7 -61
21 l-20 20 31 45 c17 25 46 56 64 69 104 74 187 182 413 542 l41 65 -38 52
c-22 28 -42 62 -45 76 -11 41 3 100 33 150 16 27 28 54 27 61 -1 6 -2 39 -3
72 l-1 60 -364 0 c-212 0 -367 -4 -371 -9 -12 -21 -42 -210 -51 -331 -6 -80 4
-168 39 -343 l21 -109 -23 -61 c-40 -109 -53 -177 -47 -249 7 -84 27 -127 72
-156 75 -49 16 -52 -66 -3 -33 20 -52 41 -75 86 -30 58 -30 59 -31 239 -2 164
-4 188 -27 261 -14 44 -33 118 -41 164 -19 101 -21 336 -2 439 l12 72 -878 0
-878 0 0 -898z"/>
<path d="M3261 3587 c-6 -8 -44 -36 -85 -62 l-74 -48 -5 -55 c-4 -37 -13 -62
-28 -78 -20 -21 -21 -31 -16 -103 4 -63 10 -85 27 -103 12 -13 19 -31 16 -42
-7 -26 18 -81 55 -124 81 -92 114 -172 72 -172 -11 0 -13 -6 -9 -22 19 -63 86
-335 86 -350 0 -14 -24 -77 -37 -97 -1 -2 -14 4 -29 13 -14 10 -28 15 -31 12
-7 -7 14 -161 32 -228 10 -40 9 -49 -4 -62 -8 -9 -13 -18 -10 -20 9 -9 592
137 969 244 455 128 521 146 573 155 l37 6 0 574 0 575 -407 0 c-396 0 -407
-1 -428 -20 -21 -20 -28 -20 -106 -10 -46 5 -100 14 -119 20 -56 16 -465 13
-479 -3z"/>
<path d="M2936 2032 c-3 -3 -6 -18 -6 -34 0 -23 4 -28 18 -24 9 3 29 8 45 12
27 6 38 24 15 24 -7 0 -25 6 -40 14 -15 8 -29 12 -32 8z"/>
<path d="M4750 1673 c-296 -380 -567 -651 -1020 -1017 -343 -278 -374 -295
-535 -304 -158 -8 -324 31 -495 117 -95 48 -96 48 -244 60 -291 23 -508 97
-851 292 l-170 96 -85 -14 c-49 -8 -200 -16 -360 -20 -293 -6 -423 4 -636 47
-129 26 -139 26 -255 -11 l-99 -32 0 -443 0 -444 2400 0 2400 0 0 865 c0 476
-1 865 -3 865 -1 0 -22 -26 -47 -57z"/>
</g>
</svg>
