<?xml version="1.0" standalone="no"?>
<!DOCTYPE svg PUBLIC "-//W3C//DTD SVG 20010904//EN"
 "http://www.w3.org/TR/2001/REC-SVG-20010904/DTD/svg10.dtd">
<svg version="1.0" xmlns="http://www.w3.org/2000/svg"
 width="480.000000pt" height="360.000000pt" viewBox="0 0 480.000000 360.000000"
 preserveAspectRatio="xMidYMid meet">
<metadata>
Created by potrace 1.16, written by Peter Selinger 2001-2019
</metadata>
<rect width="1" height="360" fill="#000000"/>
<rect x="479" width="1" height="360" fill="#000000"/>
<rect width="480" height="1" fill="#000000"/>
<rect y="359" width="480" height="1" fill="#000000"/>
<g transform="translate(0.000000,360.000000) scale(0.100000,-0.100000)"
fill="#000000" stroke="none">
<path d="M0 1800 l0 -1800 1063 2 1062 3 -3 120 c-7 302 -20 424 -56 553 -70
244 -68 353 5 499 21 42 39 89 39 102 0 13 16 53 35 88 28 48 32 63 20 63 -22
0 -19 13 11 41 14 13 35 37 46 52 l20 28 -21 15 c-29 21 -26 41 10 72 18 15
51 46 75 69 24 23 59 46 77 52 38 13 39 17 53 156 l6 71 -39 -4 c-38 -4 -41
-2 -56 35 -8 22 -22 45 -31 52 -9 8 -16 21 -16 30 0 9 -9 22 -20 29 -11 7 -20
23 -20 35 0 13 -13 36 -30 52 -16 16 -30 32 -30 37 0 5 13 21 30 36 l30 27
-31 45 c-29 42 -30 43 -27 16 2 -17 -2 -31 -9 -33 -7 -3 -13 4 -14 14 0 10 -3
13 -6 6 -2 -7 -8 -13 -12 -13 -8 0 -31 50 -50 105 -8 25 -10 26 -10 8 -1 -13
-5 -23 -11 -23 -6 0 -10 26 -10 59 0 61 -13 88 -25 51 -12 -36 -22 -21 -15 23
16 98 105 264 181 338 78 76 232 135 414 158 110 14 226 -3 314 -45 59 -29
182 -145 238 -224 28 -39 63 -148 97 -291 18 -79 24 -312 14 -526 -13 -292
-14 -289 17 -603 18 -183 28 -345 30 -525 2 -143 10 -368 16 -500 7 -132 10
-266 7 -297 l-5 -58 719 0 718 0 0 1800 0 1800 -2400 0 -2400 0 0 -1800z"/>
</g>
</svg>
