<?xml version="1.0" standalone="no"?>
<!DOCTYPE svg PUBLIC "-//W3C//DTD SVG 20010904//EN"
 "http://www.w3.org/TR/2001/REC-SVG-20010904/DTD/svg10.dtd">
<svg version="1.0" xmlns="http://www.w3.org/2000/svg"
 width="480.000000pt" height="360.000000pt" viewBox="0 0 480.000000 360.000000"
 preserveAspectRatio="xMidYMid meet">
<metadata>
Created by potrace 1.16, written by Peter Selinger 2001-2019
</metadata>
<rect width="1" height="360" fill="#000000"/>
<rect x="479" width="1" height="360" fill="#000000"/>
<rect width="480" height="1" fill="#000000"/>
<rect y="359" width="480" height="1" fill="#000000"/>
<g transform="translate(0.000000,360.000000) scale(0.100000,-0.100000)"
fill="#000000" stroke="none">
<path d="M2292 3483 c-7 -65 -24 -165 -37 -223 -14 -58 -25 -131 -25 -162 0
-32 -2 -58 -4 -58 -2 0 -37 16 -78 35 -159 76 -301 79 -405 8 -72 -48 -103
-113 -110 -227 -5 -77 -2 -96 35 -227 23 -79 48 -187 57 -239 21 -123 41 -195
71 -245 l24 -41 -35 -12 c-18 -7 -48 -29 -66 -49 -51 -59 -69 -108 -69 -194 0
-179 85 -309 202 -309 26 0 50 5 54 12 5 8 24 -7 55 -42 49 -56 51 -56 63 2 5
20 14 30 34 34 26 7 36 14 86 63 l25 25 12 -30 c7 -20 10 -93 7 -231 -3 -122
-1 -206 5 -212 6 -6 1 -36 -13 -83 -12 -40 -25 -110 -28 -155 -4 -73 -2 -84
18 -113 19 -27 23 -29 34 -15 6 9 18 15 26 13 10 -2 15 5 14 19 0 12 3 20 8
17 5 -3 16 -3 24 0 13 5 12 10 -5 35 -25 34 -27 68 -7 97 15 20 29 73 41 146
4 26 11 38 26 40 18 3 20 13 23 213 3 147 0 232 -10 285 -7 41 -18 113 -24
160 -6 47 -16 89 -21 94 -11 12 -12 106 -1 122 4 5 23 20 43 32 42 25 185 203
216 270 17 36 23 65 23 122 0 42 7 102 15 133 8 32 15 71 15 88 0 41 24 73 78
108 26 16 81 61 122 101 41 39 141 132 222 206 142 129 149 134 191 134 69 0
255 105 296 167 12 19 63 61 114 94 99 65 127 87 127 101 0 4 -328 8 -728 8
l-728 0 -12 -117z"/>
</g>
</svg>
