<?xml version="1.0" standalone="no"?>
<!DOCTYPE svg PUBLIC "-//W3C//DTD SVG 20010904//EN"
 "http://www.w3.org/TR/2001/REC-SVG-20010904/DTD/svg10.dtd">
<svg version="1.0" xmlns="http://www.w3.org/2000/svg"
 width="480.000000pt" height="360.000000pt" viewBox="0 0 480.000000 360.000000"
 preserveAspectRatio="xMidYMid meet">
<metadata>
Created by potrace 1.16, written by Peter Selinger 2001-2019
</metadata>
<rect width="1" height="360" fill="#000000"/>
<rect x="479" width="1" height="360" fill="#000000"/>
<rect width="480" height="1" fill="#000000"/>
<rect y="359" width="480" height="1" fill="#000000"/>
<g transform="translate(0.000000,360.000000) scale(0.100000,-0.100000)"
fill="#000000" stroke="none">
<path d="M2742 3588 c-7 -7 -12 -20 -12 -29 0 -15 -9 -16 -77 -12 -92 6 -150
-7 -183 -41 l-23 -25 -26 28 c-59 63 -268 68 -442 12 -53 -17 -103 -39 -111
-48 -28 -32 -32 -79 -10 -126 11 -23 32 -69 46 -102 15 -33 33 -73 41 -88 8
-16 15 -33 15 -39 0 -5 17 -37 38 -69 42 -67 70 -81 112 -56 34 21 40 14 29
-29 -7 -22 -6 -47 0 -71 6 -21 11 -57 11 -80 0 -32 5 -46 25 -61 21 -17 25
-28 25 -70 0 -33 -5 -54 -14 -59 -21 -12 -50 -274 -32 -288 22 -17 26 -134 6
-175 -17 -33 -25 -67 -51 -202 -11 -60 -12 -61 -80 -72 -78 -13 -102 -80 -54
-150 14 -20 25 -42 25 -47 0 -38 -139 -401 -215 -564 -26 -55 -60 -128 -75
-162 l-28 -61 24 -33 c31 -43 30 -71 -6 -148 -46 -96 -55 -141 -37 -184 18
-41 52 -62 133 -80 l57 -13 29 -105 c16 -57 42 -130 58 -162 l29 -59 -19 -51
c-11 -29 -20 -55 -20 -59 0 -5 326 -8 725 -8 684 0 725 1 725 18 1 16 1 16 14
0 11 -16 31 -18 150 -18 102 0 136 3 136 13 0 6 -11 59 -25 116 -18 72 -22
108 -15 115 16 16 12 141 -10 261 l-19 110 42 42 41 43 -18 36 c-53 112 -255
594 -261 624 -3 19 -17 81 -31 136 -31 129 -30 142 6 215 17 33 28 64 25 69
-4 6 -33 10 -66 10 -72 0 -73 1 -89 157 -18 176 -26 207 -67 247 -20 19 -50
42 -68 52 -31 16 -55 63 -55 107 0 8 -7 28 -15 43 -8 16 -15 38 -15 49 1 15 6
11 20 -15 23 -41 26 -33 6 15 -9 20 -11 35 -5 37 6 2 14 53 19 113 9 116 36
245 54 257 6 4 23 8 38 8 15 0 34 7 42 16 29 28 19 67 -39 149 -30 44 -55 90
-55 104 0 23 1 23 69 17 64 -7 71 -5 81 14 6 11 10 26 9 33 -1 6 1 21 5 32 4
11 11 29 15 40 4 11 7 58 7 103 -1 46 2 86 5 88 4 2 3 21 -1 41 -5 20 -5 43
-1 51 5 8 6 23 4 33 -5 18 -21 19 -282 19 -202 0 -280 -3 -289 -12z m-482
-1287 c0 -10 -8 -25 -17 -32 -15 -12 -16 -12 -10 4 4 10 7 25 7 33 0 8 5 14
10 14 6 0 10 -8 10 -19z m794 -743 c3 -24 8 -131 11 -238 5 -183 19 -366 30
-417 8 -36 -7 -27 -42 24 -24 36 -29 50 -21 60 8 10 8 20 0 36 -10 20 -25 150
-25 207 1 69 14 309 19 338 7 45 22 40 28 -10z"/>
</g>
</svg>
