<?xml version="1.0" standalone="no"?>
<!DOCTYPE svg PUBLIC "-//W3C//DTD SVG 20010904//EN"
 "http://www.w3.org/TR/2001/REC-SVG-20010904/DTD/svg10.dtd">
<svg version="1.0" xmlns="http://www.w3.org/2000/svg"
 width="480.000000pt" height="360.000000pt" viewBox="0 0 480.000000 360.000000"
 preserveAspectRatio="xMidYMid meet">
<metadata>
Created by potrace 1.16, written by Peter Selinger 2001-2019
</metadata>
<rect width="1" height="360" fill="#000000"/>
<rect x="479" width="1" height="360" fill="#000000"/>
<rect width="480" height="1" fill="#000000"/>
<rect y="359" width="480" height="1" fill="#000000"/>
<g transform="translate(0.000000,360.000000) scale(0.100000,-0.100000)"
fill="#000000" stroke="none">
<path d="M0 1800 l0 -1800 1284 0 1285 0 43 78 c50 90 69 128 177 352 44 91
103 197 131 235 64 86 89 135 81 156 -8 21 -135 195 -233 320 -131 166 -316
376 -350 397 -18 11 -81 29 -140 41 -200 40 -259 76 -379 235 l-44 59 -3 104
-4 104 93 88 c82 79 91 91 85 115 -7 28 6 34 33 17 11 -7 25 -1 50 18 68 54
98 64 175 59 87 -6 123 -23 203 -101 100 -96 143 -190 143 -313 0 -53 -4 -67
-27 -96 -16 -18 -31 -34 -35 -36 -17 -8 -6 -27 33 -61 23 -20 57 -45 75 -57
41 -25 72 -52 242 -216 73 -70 137 -128 142 -128 4 0 13 14 19 30 9 27 7 34
-18 63 -16 17 -35 46 -44 62 -14 28 -14 35 2 80 9 28 37 76 61 109 141 184
154 213 147 319 -5 79 -5 82 25 120 93 117 94 125 17 243 -28 42 -51 89 -52
105 -1 16 -6 29 -12 29 -5 0 -43 -11 -83 -25 -41 -14 -80 -25 -87 -25 -22 0
-65 41 -87 83 -20 41 -40 66 -104 131 -18 17 -34 43 -38 58 -7 31 -16 40 -64
69 -39 23 -49 45 -33 71 7 11 11 21 9 23 -2 1 -40 21 -85 44 -46 23 -107 57
-137 76 -30 19 -63 35 -72 35 -26 0 -151 78 -177 110 -28 35 -157 117 -177
113 -9 -2 -27 8 -40 22 -13 14 -30 25 -37 25 -43 0 -285 228 -254 238 55 18
-84 22 -864 22 l-875 0 0 -1800z"/>
<path d="M3256 2484 c-5 -14 -4 -15 9 -4 17 14 19 20 6 20 -5 0 -12 -7 -15
-16z"/>
<path d="M4610 1776 c0 -7 25 -36 55 -65 30 -29 55 -57 55 -62 0 -5 -17 -1
-39 10 l-38 20 5 -24 c2 -15 24 -39 54 -61 54 -38 59 -55 8 -29 -17 9 -35 15
-40 13 -4 -2 7 -34 25 -73 17 -38 47 -110 66 -160 l34 -89 3 233 c1 129 1 235
0 237 -9 8 -43 7 -42 -1 1 -5 4 -28 7 -50 l6 -40 -15 40 c-8 22 -20 48 -27 57
-18 23 -117 60 -117 44z"/>
<path d="M3540 768 c-51 -55 -82 -78 -148 -110 -65 -32 -83 -45 -89 -66 -20
-81 -69 -162 -277 -462 l-88 -125 319 -3 318 -3 62 66 c95 100 168 195 195
255 41 89 42 97 17 131 -12 18 -45 78 -74 134 -47 94 -153 256 -165 254 -3 -1
-34 -33 -70 -71z"/>
</g>
</svg>
