<?xml version="1.0" standalone="no"?>
<!DOCTYPE svg PUBLIC "-//W3C//DTD SVG 20010904//EN"
 "http://www.w3.org/TR/2001/REC-SVG-20010904/DTD/svg10.dtd">
<svg version="1.0" xmlns="http://www.w3.org/2000/svg"
 width="480.000000pt" height="360.000000pt" viewBox="0 0 480.000000 360.000000"
 preserveAspectRatio="xMidYMid meet">
<metadata>
Created by potrace 1.16, written by Peter Selinger 2001-2019
</metadata>
<rect width="1" height="360" fill="#000000"/>
<rect x="479" width="1" height="360" fill="#000000"/>
<rect width="480" height="1" fill="#000000"/>
<rect y="359" width="480" height="1" fill="#000000"/>
<g transform="translate(0.000000,360.000000) scale(0.100000,-0.100000)"
fill="#000000" stroke="none">
<path d="M0 1800 l0 -1800 1288 2 1287 3 -3 25 c-4 37 -75 181 -120 242 -97
132 -131 187 -148 241 -14 44 -15 60 -6 69 18 18 254 23 381 9 120 -14 273
-38 298 -48 14 -6 16 1 10 68 -10 122 -72 352 -162 598 -9 25 -22 99 -30 165
-7 67 -19 136 -26 153 -15 38 -5 91 37 182 25 55 32 152 15 196 -8 19 -9 18
-21 -7 -14 -30 -37 -40 -26 -12 18 48 28 110 23 147 -12 85 -29 147 -41 147
-6 0 -28 14 -49 31 -21 17 -68 48 -105 68 -78 43 -99 74 -132 196 -20 75 -21
89 -10 137 7 29 28 83 46 119 49 99 48 117 -6 149 -29 17 -46 34 -48 49 -5 31
38 93 83 121 23 14 33 26 27 34 -4 6 -25 32 -45 58 l-38 47 56 27 c80 37 130
42 147 15 20 -33 26 -26 34 38 9 85 16 92 56 55 18 -18 43 -37 56 -44 24 -12
36 -6 118 55 9 6 28 2 59 -13 25 -12 85 -29 133 -37 48 -8 98 -23 112 -33 14
-11 45 -21 70 -25 25 -3 78 -19 117 -35 40 -17 83 -27 96 -25 19 4 26 0 30
-19 4 -13 19 -29 36 -36 44 -19 128 -98 156 -146 51 -88 115 -335 115 -448 0
-47 41 -127 89 -173 22 -21 41 -43 41 -48 0 -5 -26 -8 -58 -5 l-58 4 3 -106 3
-105 -20 25 c-11 14 -27 48 -37 75 -22 65 -28 36 -9 -46 8 -35 11 -66 6 -69
-5 -3 -10 -26 -12 -50 -4 -43 -4 -44 -15 -20 -10 22 -12 22 -13 5 0 -17 -2
-17 -10 -5 -5 8 -10 25 -10 36 0 12 -7 27 -15 34 -13 11 -15 7 -15 -23 0 -20
-4 -39 -10 -42 -6 -4 -10 7 -10 27 0 49 -10 78 -28 78 -13 0 -14 -14 -8 -96 7
-98 1 -113 -24 -54 -13 31 -30 40 -30 16 0 -7 -6 -19 -14 -25 -11 -9 -18 -5
-35 21 -19 31 -21 31 -21 10 0 -13 9 -37 21 -53 20 -28 22 -29 110 -29 102 0
146 -14 197 -63 41 -39 85 -124 102 -197 26 -110 24 -109 79 -37 27 36 63 86
81 112 l32 47 -25 25 c-25 25 -25 26 -9 59 10 18 22 34 28 34 5 0 35 12 65 26
80 40 110 84 74 114 -8 7 -15 27 -15 45 0 18 -13 62 -30 98 -27 60 -30 76 -30
170 0 99 1 106 29 145 16 22 34 43 40 47 17 10 14 65 -4 65 -23 0 -18 36 11
80 15 22 24 44 19 48 -4 4 -28 7 -53 7 -44 0 -47 2 -50 28 -3 24 2 29 42 47
46 19 46 19 46 70 0 28 -9 151 -21 273 -20 210 -21 373 -3 435 l6 22 -2151 0
-2151 0 0 -1800z"/>
<path d="M4344 3568 c10 -50 33 -248 56 -487 11 -118 22 -217 25 -219 2 -2 26
3 52 12 45 15 49 15 60 -1 7 -9 13 -22 13 -28 0 -18 -32 -43 -71 -57 -39 -13
-49 -24 -49 -55 0 -16 10 -24 42 -35 27 -8 47 -22 55 -38 6 -14 32 -68 56
-120 39 -82 51 -99 86 -118 22 -13 47 -33 56 -45 23 -33 19 -138 -11 -246 -14
-51 -23 -95 -20 -98 2 -2 14 1 26 7 12 7 35 10 51 8 l29 -5 0 779 0 778 -231
0 -231 0 6 -32z"/>
<path d="M4370 2380 c0 -11 5 -20 10 -20 6 0 10 9 10 20 0 11 -4 20 -10 20 -5
0 -10 -9 -10 -20z"/>
<path d="M2730 2239 c0 -9 7 -22 15 -29 19 -16 19 0 0 26 -12 16 -14 16 -15 3z"/>
<path d="M2870 1936 c0 -97 12 -126 25 -60 7 41 -3 142 -16 150 -5 3 -9 -38
-9 -90z"/>
<path d="M4755 1971 c-42 -26 -60 -48 -89 -112 -32 -69 -41 -133 -27 -183 8
-31 7 -43 -4 -60 -8 -11 -15 -28 -15 -38 0 -16 -27 -38 -47 -38 -4 0 -21 11
-37 25 -16 13 -32 22 -36 20 -5 -3 -61 -98 -126 -213 -136 -240 -177 -302
-233 -357 -33 -31 -41 -46 -41 -75 0 -19 -4 -52 -9 -73 -8 -31 -6 -39 9 -47
10 -6 29 -10 41 -10 53 0 101 -24 135 -68 33 -43 34 -46 18 -70 -15 -23 -15
-25 14 -56 47 -48 57 -84 34 -115 -10 -15 -31 -27 -46 -29 -23 -3 -27 -7 -22
-25 22 -75 30 -129 20 -145 -15 -25 -116 -91 -138 -92 -11 0 -30 9 -42 21 -18
17 -26 19 -42 10 -12 -6 -28 -11 -37 -11 -9 0 -34 -14 -56 -32 l-39 -31 0 -84
0 -83 430 0 430 0 0 995 c0 547 -3 995 -7 995 -5 0 -21 -8 -38 -19z"/>
<path d="M2932 1917 c-16 -44 -15 -47 8 -47 17 0 20 7 20 40 0 49 -12 52 -28
7z"/>
<path d="M2997 1943 c-2 -5 -7 -20 -11 -34 -7 -33 5 -39 82 -39 67 0 83 8 76
37 -5 18 -11 21 -38 16 -20 -3 -45 1 -64 11 -35 18 -39 19 -45 9z"/>
</g>
</svg>
