<?xml version="1.0" standalone="no"?>
<!DOCTYPE svg PUBLIC "-//W3C//DTD SVG 20010904//EN"
 "http://www.w3.org/TR/2001/REC-SVG-20010904/DTD/svg10.dtd">
<svg version="1.0" xmlns="http://www.w3.org/2000/svg"
 width="480.000000pt" height="360.000000pt" viewBox="0 0 480.000000 360.000000"
 preserveAspectRatio="xMidYMid meet">
<metadata>
Created by potrace 1.16, written by Peter Selinger 2001-2019
</metadata>
<rect width="1" height="360" fill="#000000"/>
<rect x="479" width="1" height="360" fill="#000000"/>
<rect width="480" height="1" fill="#000000"/>
<rect y="359" width="480" height="1" fill="#000000"/>
<g transform="translate(0.000000,360.000000) scale(0.100000,-0.100000)"
fill="#000000" stroke="none">
<path d="M1645 3580 c7 -24 -2 -25 -29 -5 -38 29 -46 10 -24 -52 12 -32 11
-34 -22 -63 -27 -22 -42 -28 -65 -24 -37 6 -47 -2 -65 -45 -21 -52 -47 -71
-98 -71 -40 0 -43 -2 -36 -22 3 -13 15 -40 25 -60 19 -37 26 -88 12 -88 -4 0
-31 23 -60 52 -55 54 -72 59 -51 14 9 -21 9 -32 1 -46 -7 -10 -13 -45 -14 -79
-3 -77 20 -123 73 -147 21 -9 39 -22 39 -28 1 -6 1 -58 0 -116 -2 -87 3 -126
29 -228 16 -68 30 -145 30 -171 0 -52 -10 -61 -67 -61 -15 0 -31 -12 -45 -35
-14 -22 -34 -38 -50 -42 -46 -9 -54 -27 -36 -83 15 -47 15 -50 -13 -120 -16
-40 -38 -84 -49 -98 -11 -13 -20 -29 -20 -34 0 -4 -17 -37 -38 -71 -60 -99
-74 -141 -62 -187 13 -49 52 -95 109 -132 62 -39 101 -37 151 8 22 20 40 40
40 45 0 20 96 138 112 139 11 0 20 -10 24 -27 3 -16 10 -44 15 -63 5 -19 12
-80 16 -135 6 -98 5 -103 -32 -205 -50 -141 -53 -165 -24 -190 14 -11 32 -17
43 -13 17 5 18 1 11 -63 -5 -51 -19 -93 -51 -160 -40 -82 -47 -108 -74 -275
-45 -277 -70 -415 -95 -511 l-22 -88 794 0 c436 0 793 2 793 3 0 7 -111 175
-185 279 -100 141 -190 291 -266 441 -78 156 -92 178 -153 256 -45 57 -49 66
-38 90 117 280 136 353 137 516 0 90 -4 123 -24 183 -33 100 -26 107 105 108
l95 2 110 -54 c108 -53 260 -116 309 -127 16 -4 57 5 110 24 158 56 215 71
328 84 115 13 138 22 153 62 7 18 13 21 30 15 14 -5 34 -3 55 7 28 12 34 21
34 46 0 24 7 34 33 48 38 21 93 14 110 -14 7 -11 19 -19 28 -19 9 0 24 -10 35
-21 41 -47 129 -63 184 -34 36 19 50 43 50 87 0 48 -89 148 -128 146 -15 -1
-33 -6 -39 -11 -9 -6 -16 -1 -24 17 -7 14 -20 28 -31 32 -10 3 -26 16 -34 30
-11 16 -26 24 -45 24 -16 0 -29 4 -29 10 0 5 -18 21 -40 35 -22 14 -40 32 -40
41 0 24 -35 12 -38 -14 -3 -18 -8 -22 -25 -16 -12 4 -35 17 -50 30 -16 13 -35
24 -43 24 -8 0 -23 9 -34 20 -27 27 -38 18 -46 -31 -7 -44 -18 -47 -54 -19
-32 25 -46 25 -53 -1 -5 -19 -10 -21 -54 -15 -26 4 -61 11 -78 16 -16 5 -68
14 -115 20 -47 6 -116 18 -155 25 -38 8 -114 19 -167 26 -54 7 -98 16 -98 20
0 3 -36 12 -80 19 -44 7 -80 16 -80 20 0 9 23 20 265 125 17 7 50 22 75 33 25
10 90 39 145 62 55 24 132 57 170 75 39 17 114 49 168 71 102 40 108 47 85 97
-18 39 -49 43 -111 15 -28 -14 -97 -44 -152 -68 -55 -23 -107 -46 -115 -50 -9
-4 -30 -11 -48 -14 -17 -4 -34 -12 -37 -17 -4 -5 -16 -9 -28 -9 -18 0 -20 -2
-7 -11 12 -9 11 -10 -7 -6 -12 3 -27 -1 -34 -9 -6 -8 -18 -14 -25 -14 -8 0
-14 -4 -14 -10 0 -5 -6 -10 -14 -10 -8 0 -30 -8 -48 -19 -18 -10 -121 -54
-228 -97 -146 -58 -207 -78 -243 -79 -41 0 -49 -4 -60 -25 -7 -14 -20 -26 -29
-28 -15 -3 -16 5 -12 62 2 36 9 76 14 88 l9 23 0 -23 c1 -39 17 -16 30 43 7
31 19 68 27 83 33 64 8 215 -51 304 -30 45 -31 62 -5 88 29 29 64 102 52 109
-7 4 -7 23 -1 56 9 46 7 53 -19 90 -32 46 -73 65 -101 48 -15 -9 -26 -7 -57
12 -21 14 -49 25 -60 25 -12 0 -28 7 -35 17 -8 9 -29 22 -46 30 -29 12 -38 11
-78 -8 -42 -20 -48 -20 -82 -6 -41 16 -63 46 -63 90 0 24 -3 27 -36 27 -31 0
-35 -3 -29 -20z m1655 -740 c0 -20 -16 -29 -150 -85 -36 -15 -83 -35 -105 -45
-22 -10 -116 -50 -210 -90 -93 -40 -206 -88 -250 -107 -93 -41 -208 -83 -224
-83 -6 0 -11 5 -11 10 0 6 5 10 11 10 6 0 43 15 82 33 40 19 92 42 117 52 73
29 128 52 214 90 19 8 36 15 39 15 3 0 34 13 69 29 35 16 97 43 138 60 41 18
118 54 170 81 52 27 98 49 103 49 4 1 7 -8 7 -19z m-863 -455 c2 -1 -3 -9 -10
-19 -12 -17 -14 -16 -31 8 l-17 27 28 -7 c15 -4 29 -8 30 -9z m445 -337 c-9
-9 -15 -9 -24 0 -9 9 -7 12 12 12 19 0 21 -3 12 -12z"/>
</g>
</svg>
