<?xml version="1.0" standalone="no"?>
<!DOCTYPE svg PUBLIC "-//W3C//DTD SVG 20010904//EN"
 "http://www.w3.org/TR/2001/REC-SVG-20010904/DTD/svg10.dtd">
<svg version="1.0" xmlns="http://www.w3.org/2000/svg"
 width="480.000000pt" height="360.000000pt" viewBox="0 0 480.000000 360.000000"
 preserveAspectRatio="xMidYMid meet">
<metadata>
Created by potrace 1.16, written by Peter Selinger 2001-2019
</metadata>
<rect width="1" height="360" fill="#000000"/>
<rect x="479" width="1" height="360" fill="#000000"/>
<rect width="480" height="1" fill="#000000"/>
<rect y="359" width="480" height="1" fill="#000000"/>
<g transform="translate(0.000000,360.000000) scale(0.100000,-0.100000)"
fill="#000000" stroke="none">
<path d="M0 2935 l0 -665 34 0 c31 0 46 -13 46 -40 0 -5 -16 -29 -35 -54 -22
-29 -30 -48 -23 -52 13 -8 591 -6 658 2 93 11 148 27 251 75 123 56 184 74
324 94 108 16 395 19 510 6 39 -4 71 -4 73 0 11 28 53 77 79 94 26 16 32 27
33 53 0 30 -2 33 -22 25 -13 -4 -43 -8 -68 -8 -69 0 -66 24 17 107 l68 69 -2
122 c-2 101 0 129 15 154 49 90 324 243 434 243 37 0 71 -19 162 -89 l62 -49
85 29 c95 32 141 36 159 14 11 -13 8 -22 -17 -53 -16 -20 -53 -55 -81 -77 -28
-22 -51 -47 -51 -55 -1 -9 29 -48 65 -88 60 -65 63 -72 41 -72 -23 0 -24 -2
-19 -45 4 -38 2 -44 -10 -40 -11 4 -18 -2 -22 -19 -3 -14 -12 -26 -20 -26 -14
0 -46 -31 -46 -44 0 -5 14 -21 31 -37 l32 -30 -22 -22 c-11 -13 -21 -30 -21
-39 0 -8 -11 -35 -24 -59 -14 -24 -32 -72 -40 -106 -9 -35 -30 -83 -47 -108
-17 -26 -30 -47 -28 -49 21 -16 260 -102 265 -95 10 17 49 9 119 -25 39 -19
96 -46 128 -60 47 -21 57 -30 57 -51 0 -19 10 -29 43 -46 23 -12 89 -51 145
-87 92 -57 107 -63 128 -53 28 13 51 6 59 -18 4 -13 13 -17 30 -13 22 4 26 0
31 -28 5 -24 11 -30 25 -27 22 6 42 -15 33 -36 -3 -10 2 -20 15 -27 12 -6 21
-17 21 -26 0 -8 57 -72 128 -142 161 -161 278 -313 416 -539 169 -274 185
-292 264 -293 34 0 50 -6 72 -28 52 -53 88 -228 56 -277 -59 -90 -247 62 -403
325 -166 280 -213 354 -276 438 -77 104 -198 235 -288 313 l-60 52 -43 -42
c-36 -35 -44 -52 -54 -102 -6 -34 -16 -67 -23 -75 -14 -17 -84 -18 -196 -2
-66 10 -106 9 -196 -1 -212 -25 -222 -25 -260 -2 l-34 21 -28 -42 c-26 -39
-27 -46 -21 -117 4 -42 20 -156 37 -254 25 -150 58 -543 59 -714 l0 -23 985 0
985 0 0 1800 0 1800 -2400 0 -2400 0 0 -665z"/>
<path d="M1265 2140 c-99 -14 -221 -54 -285 -94 -158 -99 -200 -118 -317 -136
-37 -6 -69 -13 -71 -14 -39 -40 -37 -855 4 -1256 23 -227 56 -398 110 -563
l26 -77 537 0 537 0 49 173 c94 339 121 403 245 587 134 200 135 203 133 355
0 74 -12 212 -27 320 -14 105 -28 222 -32 260 -3 39 -8 73 -11 78 -5 8 -27
-11 -36 -33 -7 -14 -4 36 10 183 l6 67 -30 0 c-53 0 -122 31 -174 78 -46 41
-59 47 -128 59 -97 17 -454 25 -546 13z"/>
<path d="M0 1880 c0 -35 2 -61 4 -59 8 7 10 108 3 115 -4 4 -7 -21 -7 -56z"/>
<path d="M2730 1843 c0 -14 61 -115 66 -110 7 7 -15 89 -28 105 -11 13 -38 17
-38 5z"/>
<path d="M3087 1653 c-14 -26 -13 -29 19 -66 42 -46 40 -51 -57 -141 -40 -37
-70 -68 -68 -70 10 -8 182 29 254 55 69 26 82 34 96 64 15 32 15 36 0 48 -19
16 -94 62 -173 106 l-57 32 -14 -28z"/>
<path d="M1 603 l-1 -603 139 0 139 0 -39 93 c-99 241 -190 650 -228 1027 -5
57 -9 -117 -10 -517z"/>
</g>
</svg>
