<?xml version="1.0" standalone="no"?>
<!DOCTYPE svg PUBLIC "-//W3C//DTD SVG 20010904//EN"
 "http://www.w3.org/TR/2001/REC-SVG-20010904/DTD/svg10.dtd">
<svg version="1.0" xmlns="http://www.w3.org/2000/svg"
 width="480.000000pt" height="360.000000pt" viewBox="0 0 480.000000 360.000000"
 preserveAspectRatio="xMidYMid meet">
<metadata>
Created by potrace 1.16, written by Peter Selinger 2001-2019
</metadata>
<rect width="1" height="360" fill="#000000"/>
<rect x="479" width="1" height="360" fill="#000000"/>
<rect width="480" height="1" fill="#000000"/>
<rect y="359" width="480" height="1" fill="#000000"/>
<g transform="translate(0.000000,360.000000) scale(0.100000,-0.100000)"
fill="#000000" stroke="none">
<path d="M3964 3391 c-49 -33 -121 -88 -161 -123 -40 -35 -113 -99 -164 -143
-50 -44 -124 -110 -165 -146 -40 -37 -137 -110 -216 -162 -79 -52 -170 -118
-203 -145 -47 -40 -63 -48 -77 -41 -14 8 -16 14 -8 29 16 30 12 75 -11 104
-18 23 -28 27 -62 24 -23 -2 -42 -9 -45 -17 -3 -8 0 -11 7 -7 19 12 12 -29 -9
-57 -20 -26 -22 -26 -123 -20 l-102 6 -120 -48 c-131 -51 -149 -61 -95 -52
l35 6 -34 -27 c-18 -15 -45 -37 -60 -50 -22 -19 -22 -21 -4 -13 34 17 35 14 6
-31 -23 -35 -29 -55 -32 -120 -2 -52 1 -78 8 -78 6 0 11 4 11 8 0 5 6 16 13
25 10 14 12 9 14 -34 3 -49 2 -50 -24 -47 -24 3 -28 9 -39 64 -17 83 -46 138
-110 201 -84 84 -181 116 -284 94 -51 -11 -54 -10 -81 15 -15 14 -35 47 -44
72 -62 167 -192 281 -370 327 -236 60 -445 -50 -565 -299 -53 -110 -73 -205
-67 -322 6 -123 33 -183 129 -278 109 -108 221 -156 369 -156 42 0 97 6 122
14 l47 14 -36 -43 c-27 -34 -111 -111 -153 -142 -2 -2 1 -15 8 -29 10 -23 7
-30 -34 -77 -48 -56 -53 -68 -31 -86 19 -16 45 -2 71 38 23 36 43 39 79 10 33
-26 33 -43 0 -76 -22 -22 -23 -27 -11 -42 8 -9 17 -24 20 -33 4 -10 15 -18 26
-18 16 0 19 -10 25 -87 13 -161 25 -244 44 -287 11 -23 22 -63 26 -88 5 -32
14 -51 29 -61 32 -20 29 -99 -4 -126 -19 -16 -24 -30 -27 -90 -5 -86 2 -118
28 -126 16 -5 20 -15 20 -56 0 -42 -4 -54 -27 -73 -24 -21 -27 -31 -31 -109
-4 -82 -3 -87 22 -110 21 -19 26 -34 26 -70 0 -37 -5 -49 -25 -64 -21 -15 -27
-30 -32 -76 -5 -53 -4 -57 16 -57 18 0 21 6 21 39 0 40 13 61 25 41 5 -8 13
-6 24 4 23 21 31 11 31 -41 0 -32 4 -43 15 -43 12 0 15 13 15 60 0 52 -3 61
-25 76 -37 24 -36 93 3 129 25 23 27 32 30 114 4 88 3 90 -23 107 -25 17 -27
21 -21 68 5 35 14 56 29 68 40 31 34 218 -7 218 -9 0 -17 15 -21 40 -8 48 0
77 24 85 11 3 21 15 24 25 4 15 14 20 39 20 32 0 170 33 273 64 28 9 53 16 57
16 3 0 -3 -26 -14 -57 -28 -81 -33 -186 -14 -343 8 -74 20 -203 27 -287 10
-134 9 -156 -5 -184 -9 -18 -16 -40 -16 -51 0 -10 -16 -42 -35 -71 -39 -59
-42 -62 -70 -82 -17 -13 44 -14 477 -15 388 0 497 3 501 13 4 9 6 9 6 0 1 -10
59 -13 257 -13 240 0 256 1 249 18 -19 45 -15 54 57 152 130 177 143 203 143
290 0 121 -52 213 -226 395 -42 44 -78 90 -82 102 -10 43 22 565 44 693 28
170 49 260 60 260 5 0 9 -7 9 -15 0 -8 4 -15 9 -15 5 0 12 -9 16 -19 9 -30 35
-34 62 -10 12 13 23 28 23 36 0 7 7 13 15 13 8 0 15 6 15 13 0 8 11 24 24 36
14 13 30 37 37 54 7 18 21 44 31 59 10 14 18 32 18 40 0 7 7 27 16 43 27 51
54 162 53 222 -1 114 -31 154 -132 175 -74 16 -130 1 -204 -51 -38 -27 -61
-37 -78 -33 -14 2 -25 7 -25 11 0 3 71 78 159 165 144 144 160 157 179 147 39
-21 104 -6 168 37 32 21 79 46 104 54 59 19 64 46 18 82 -19 14 -51 32 -72 41
l-38 16 54 27 c57 29 73 56 39 67 -12 3 -21 11 -21 17 0 11 190 257 215 278 9
7 21 22 26 32 18 33 -14 21 -107 -41z m-2419 -1393 c14 -6 25 -15 25 -20 0
-13 -10 -10 -37 12 -29 23 -25 25 12 8z m715 -76 c0 -31 5 -41 31 -56 38 -22
40 -10 -43 -238 -49 -135 -70 -182 -90 -198 -15 -11 -76 -34 -135 -50 -59 -17
-154 -47 -211 -66 -57 -20 -105 -34 -107 -32 -3 3 -13 58 -22 122 l-18 118 29
23 28 22 -25 25 c-26 26 -47 83 -47 129 0 22 27 125 36 138 2 2 17 -7 35 -20
17 -12 57 -28 88 -35 148 -35 276 3 385 115 27 27 53 48 58 45 4 -3 8 -22 8
-42z m-720 -908 c0 -8 -4 -14 -10 -14 -5 0 -10 9 -10 21 0 11 5 17 10 14 6 -3
10 -13 10 -21z m50 -14 c0 -5 -2 -10 -4 -10 -3 0 -8 5 -11 10 -3 6 -1 10 4 10
6 0 11 -4 11 -10z m1236 -271 c14 -52 31 -103 37 -114 10 -19 10 -19 17 0 6
17 10 15 27 -20 34 -67 43 -107 52 -224 9 -124 -5 -256 -33 -310 -19 -36 -27
-38 -44 -11 -7 11 -37 36 -67 56 -33 20 -55 42 -55 52 0 10 -11 33 -24 51 -21
28 -25 47 -31 157 -10 170 7 275 67 417 12 26 23 46 25 44 2 -3 15 -47 29 -98z
m-1226 -4 c0 -51 -17 -92 -27 -67 -6 14 -33 16 -33 2 0 -5 -4 -10 -10 -10 -6
0 -10 30 -10 70 0 69 0 70 24 64 14 -3 27 -1 31 6 13 21 25 -11 25 -65z m1640
-220 c0 -8 -4 -15 -10 -15 -5 0 -10 7 -10 15 0 8 5 15 10 15 6 0 10 -7 10 -15z
m-1680 -67 c29 18 30 17 30 -42 0 -59 -20 -126 -27 -93 -5 18 -33 24 -33 7 0
-5 -4 -10 -10 -10 -11 0 -14 133 -3 143 4 4 10 2 15 -5 6 -10 11 -11 28 0z
m1449 -225 c1 -7 -8 -13 -19 -13 -24 0 -23 -2 -8 41 12 34 12 34 19 9 4 -14 7
-31 8 -37z m-204 -133 c11 -17 -5 -32 -21 -19 -8 6 -14 15 -14 20 0 12 27 11
35 -1z m-854 -43 c-17 -17 -24 -1 -10 25 12 21 14 21 17 4 2 -10 -1 -23 -7
-29z"/>
</g>
</svg>
