<?xml version="1.0" standalone="no"?>
<!DOCTYPE svg PUBLIC "-//W3C//DTD SVG 20010904//EN"
 "http://www.w3.org/TR/2001/REC-SVG-20010904/DTD/svg10.dtd">
<svg version="1.0" xmlns="http://www.w3.org/2000/svg"
 width="480.000000pt" height="360.000000pt" viewBox="0 0 480.000000 360.000000"
 preserveAspectRatio="xMidYMid meet">
<metadata>
Created by potrace 1.16, written by Peter Selinger 2001-2019
</metadata>
<rect width="1" height="360" fill="#000000"/>
<rect x="479" width="1" height="360" fill="#000000"/>
<rect width="480" height="1" fill="#000000"/>
<rect y="359" width="480" height="1" fill="#000000"/>
<g transform="translate(0.000000,360.000000) scale(0.100000,-0.100000)"
fill="#000000" stroke="none">
<path d="M1072 3558 c-81 -324 -147 -716 -188 -1113 -25 -245 -30 -760 -10
-1015 40 -503 136 -1055 242 -1382 l16 -48 1834 0 1834 0 0 1800 0 1800 -1859
0 -1859 0 -10 -42z"/>
<path d="M1 768 l-1 -768 315 0 c173 0 315 3 315 6 0 3 -26 49 -59 103 -32 53
-68 116 -80 140 -13 24 -31 46 -42 48 -14 4 -18 11 -14 24 3 10 -7 43 -23 76
-110 217 -266 627 -340 893 -23 80 -48 168 -55 195 -13 45 -15 -31 -16 -717z"/>
</g>
</svg>
