<?xml version="1.0" standalone="no"?>
<!DOCTYPE svg PUBLIC "-//W3C//DTD SVG 20010904//EN"
 "http://www.w3.org/TR/2001/REC-SVG-20010904/DTD/svg10.dtd">
<svg version="1.0" xmlns="http://www.w3.org/2000/svg"
 width="480.000000pt" height="360.000000pt" viewBox="0 0 480.000000 360.000000"
 preserveAspectRatio="xMidYMid meet">
<metadata>
Created by potrace 1.16, written by Peter Selinger 2001-2019
</metadata>
<rect width="1" height="360" fill="#000000"/>
<rect x="479" width="1" height="360" fill="#000000"/>
<rect width="480" height="1" fill="#000000"/>
<rect y="359" width="480" height="1" fill="#000000"/>
<g transform="translate(0.000000,360.000000) scale(0.100000,-0.100000)"
fill="#000000" stroke="none">
<path d="M0 1800 l0 -1800 874 0 874 0 6 47 c7 46 92 362 122 452 8 24 28 76
45 115 17 39 37 89 45 110 14 39 14 39 -6 21 -23 -21 -26 -10 -10 45 8 26 7
38 -4 48 -11 12 -17 9 -35 -16 -11 -17 -21 -36 -21 -44 0 -10 -3 -9 -10 2 -5
8 -10 34 -10 57 0 48 -20 133 -31 133 -5 0 -15 -21 -23 -47 l-16 -48 4 100 c4
104 -1 94 -24 -45 -17 -99 -26 -73 -35 101 -5 80 -12 137 -19 141 -46 31 -267
105 -401 134 -29 7 -43 16 -53 37 -8 15 -25 32 -38 37 -17 7 -24 17 -24 35 0
25 -1 25 -77 25 -105 0 -240 34 -317 81 -64 39 -77 59 -52 84 20 21 30 19 67
-12 31 -27 32 -27 27 -5 -7 24 8 40 23 25 8 -8 97 -1 134 11 6 2 -5 16 -22 32
-18 16 -33 33 -33 39 0 6 -14 24 -31 41 -23 22 -29 35 -25 55 3 15 -3 62 -14
105 -10 45 -15 85 -10 94 4 8 11 40 15 70 4 30 11 61 16 70 4 8 10 27 14 43 3
17 12 27 24 27 34 0 53 35 58 107 6 119 47 273 72 273 22 0 47 -50 65 -132 5
-21 12 -28 30 -28 66 0 132 -61 175 -162 28 -64 37 -222 16 -279 -9 -24 -21
-69 -26 -99 -14 -81 -22 -95 -84 -130 -50 -29 -56 -36 -52 -59 8 -39 -9 -61
-45 -61 -29 0 -25 -4 39 -37 71 -37 72 -37 92 -19 18 16 25 17 46 8 18 -9 31
-9 49 -1 21 10 35 6 98 -29 81 -45 233 -112 253 -112 14 0 28 53 15 58 -5 2 2
33 15 69 14 36 23 68 21 70 -2 2 -25 -28 -52 -67 -54 -81 -64 -90 -64 -58 1
44 48 157 113 270 107 183 123 226 142 373 40 317 58 431 76 503 40 150 98
268 158 319 l26 23 -66 0 c-84 0 -102 13 -102 72 2 70 90 259 152 321 l28 29
51 -26 c28 -14 57 -23 65 -20 26 10 94 -34 180 -115 79 -74 86 -78 141 -85 48
-5 69 -2 129 19 78 29 207 39 228 18 13 -13 -4 -99 -46 -246 l-24 -80 30 -74
c16 -40 29 -87 29 -104 0 -52 -30 -136 -67 -192 -19 -28 -43 -68 -53 -87 l-18
-35 5 48 c3 26 2 47 -3 47 -10 0 -54 -65 -54 -80 0 -16 -18 -11 -22 6 -2 11
-10 4 -25 -22 -18 -33 -22 -57 -23 -139 -2 -75 1 -99 10 -97 7 2 26 0 41 -3
26 -6 29 -11 29 -44 0 -31 8 -44 56 -91 71 -70 211 -277 220 -326 5 -28 2 -46
-12 -73 -10 -19 -18 -38 -17 -42 1 -4 8 -59 14 -123 9 -91 15 -117 28 -120 57
-17 231 -46 314 -52 81 -6 104 -11 125 -29 15 -12 38 -26 52 -30 14 -4 28 -12
32 -18 4 -6 21 -4 47 7 23 9 56 16 74 16 17 0 38 4 46 9 10 6 22 5 35 -5 11
-8 35 -14 52 -14 26 0 33 5 38 26 9 33 27 27 40 -13 17 -49 25 -50 43 -5 18
48 26 51 59 19 36 -33 30 -62 -22 -112 -35 -35 -61 -49 -117 -66 -77 -23 -221
-31 -289 -16 -33 8 -37 7 -40 -15 -3 -19 -8 -23 -36 -20 -19 1 -39 -4 -48 -13
-21 -20 -35 -19 -118 11 -91 33 -204 59 -331 78 -100 15 -100 15 -142 61 -35
38 -49 67 -77 153 -27 85 -35 102 -40 82 -61 -256 -63 -274 -19 -321 23 -26
24 -30 18 -120 -8 -106 -1 -129 108 -379 63 -144 187 -505 187 -544 l0 -26
860 0 860 0 0 1800 0 1800 -2400 0 -2400 0 0 -1800z m896 439 c6 -60 -8 -96
-26 -69 -19 28 -23 62 -11 102 16 52 31 39 37 -33z"/>
<path d="M1261 1974 c0 -11 3 -14 6 -6 3 7 2 16 -1 19 -3 4 -6 -2 -5 -13z"/>
</g>
</svg>
