<?xml version="1.0" standalone="no"?>
<!DOCTYPE svg PUBLIC "-//W3C//DTD SVG 20010904//EN"
 "http://www.w3.org/TR/2001/REC-SVG-20010904/DTD/svg10.dtd">
<svg version="1.0" xmlns="http://www.w3.org/2000/svg"
 width="480.000000pt" height="360.000000pt" viewBox="0 0 480.000000 360.000000"
 preserveAspectRatio="xMidYMid meet">
<metadata>
Created by potrace 1.16, written by Peter Selinger 2001-2019
</metadata>
<rect width="1" height="360" fill="#000000"/>
<rect x="479" width="1" height="360" fill="#000000"/>
<rect width="480" height="1" fill="#000000"/>
<rect y="359" width="480" height="1" fill="#000000"/>
<g transform="translate(0.000000,360.000000) scale(0.100000,-0.100000)"
fill="#000000" stroke="none">
<path d="M0 1800 l0 -1800 2400 0 2400 0 0 1368 0 1367 -649 433 -649 432
-1751 0 -1751 0 0 -1800z m2065 890 l16 -31 26 21 c33 25 118 28 152 4 17 -13
36 -15 77 -11 57 6 67 -2 34 -26 -19 -13 -19 -16 -4 -46 15 -31 15 -32 -10
-52 -26 -20 -27 -25 -24 -103 3 -74 5 -81 24 -84 12 -2 31 -13 42 -25 24 -27
82 -132 82 -151 0 -7 -13 -31 -28 -52 -15 -21 -39 -57 -52 -78 -21 -36 -22
-40 -7 -51 16 -11 15 -16 -4 -64 -22 -51 -22 -52 -3 -87 10 -19 36 -57 57 -85
25 -34 37 -60 37 -82 0 -21 11 -48 29 -73 15 -21 48 -76 71 -122 42 -80 43
-83 24 -97 -16 -12 -17 -17 -6 -34 17 -29 16 -31 -17 -31 -15 0 -45 -11 -65
-25 -20 -14 -48 -27 -63 -30 -15 -2 -43 -20 -62 -39 l-34 -34 0 -129 c0 -71 3
-138 7 -149 8 -25 -27 -74 -53 -74 -9 0 -26 6 -36 14 -19 13 -20 24 -18 165
l2 152 -33 -21 c-40 -24 -71 -25 -121 -4 -44 18 -80 12 -82 -13 0 -10 -6 -51
-13 -91 -6 -41 -9 -89 -6 -107 8 -43 -11 -59 -64 -52 -48 6 -90 31 -90 53 0 8
13 23 30 32 25 14 30 25 36 69 3 29 3 64 0 77 -3 14 -2 28 4 31 18 11 11 52
-10 58 -13 3 -20 14 -20 30 0 14 -7 27 -15 31 -22 8 -11 66 42 214 46 133 52
165 28 156 -19 -8 -20 16 0 62 11 27 12 40 3 59 -8 19 -8 46 2 108 9 64 10 92
0 126 -6 23 -10 44 -8 45 50 23 72 81 64 164 -5 44 -2 58 18 90 13 20 31 43
40 51 11 9 16 29 16 65 0 71 -7 90 -41 110 -23 14 -29 24 -29 51 0 24 -6 38
-20 45 -25 14 -26 30 -1 30 37 0 51 12 51 41 0 37 6 37 25 -1z"/>
<path d="M2353 2202 c-5 -4 -7 -27 -5 -51 l4 -45 19 35 c10 18 18 39 19 45 0
15 -23 24 -37 16z"/>
<path d="M4755 3590 c3 -5 15 -15 26 -20 16 -9 19 -7 19 10 0 15 -7 20 -26 20
-14 0 -22 -4 -19 -10z"/>
</g>
</svg>
