<?xml version="1.0" standalone="no"?>
<!DOCTYPE svg PUBLIC "-//W3C//DTD SVG 20010904//EN"
 "http://www.w3.org/TR/2001/REC-SVG-20010904/DTD/svg10.dtd">
<svg version="1.0" xmlns="http://www.w3.org/2000/svg"
 width="480.000000pt" height="360.000000pt" viewBox="0 0 480.000000 360.000000"
 preserveAspectRatio="xMidYMid meet">
<metadata>
Created by potrace 1.16, written by Peter Selinger 2001-2019
</metadata>
<rect width="1" height="360" fill="#000000"/>
<rect x="479" width="1" height="360" fill="#000000"/>
<rect width="480" height="1" fill="#000000"/>
<rect y="359" width="480" height="1" fill="#000000"/>
<g transform="translate(0.000000,360.000000) scale(0.100000,-0.100000)"
fill="#000000" stroke="none">
<path d="M0 1800 l0 -1800 1000 0 1000 0 -4 52 c-4 53 -4 53 -35 50 -42 -5
-106 34 -163 97 -46 51 -68 104 -68 162 0 45 40 127 78 163 26 24 29 32 21 53
-16 42 -10 80 17 113 l27 31 -25 27 c-43 49 -69 107 -59 134 7 18 4 30 -10 49
-23 30 -23 38 1 69 11 14 20 39 20 55 0 41 25 75 56 75 21 0 24 4 24 40 0 52
23 96 59 115 37 19 41 40 46 264 3 165 5 175 24 183 22 8 25 15 45 135 8 47
26 103 41 131 l27 50 -26 123 c-14 68 -41 203 -61 299 -20 96 -54 258 -75 360
-34 160 -38 193 -31 245 16 107 33 185 44 192 14 8 88 -76 119 -136 27 -49 28
-55 103 -596 59 -422 51 -385 85 -396 42 -15 46 -38 10 -51 -36 -12 -38 -20
-8 -33 50 -22 71 -124 43 -203 -17 -48 -17 -53 3 -168 21 -116 21 -120 3 -144
-16 -21 -27 -25 -69 -25 l-51 1 -7 -64 c-3 -34 -4 -66 -1 -69 4 -3 23 9 43 27
37 32 68 36 117 15 16 -7 17 49 17 1084 l0 1091 -1190 0 -1190 0 0 -1800z"/>
<path d="M2380 1007 c0 -222 -3 -539 -7 -705 l-6 -302 332 0 c231 0 330 3 326
11 -5 6 -27 8 -61 3 -47 -5 -54 -4 -60 12 -13 42 -32 65 -93 111 l-64 48 -2
65 c-2 82 -40 213 -77 264 -15 22 -25 42 -22 45 3 3 10 -2 15 -12 13 -22 29
-13 29 16 0 12 5 29 10 37 9 13 11 13 19 0 18 -27 21 -4 7 38 -14 40 -14 42 4
42 25 0 25 8 -1 36 l-22 23 27 46 c15 25 39 53 54 62 15 9 29 18 31 20 2 1 -4
21 -13 44 -14 33 -14 44 -5 50 16 10 -30 128 -67 172 -13 16 -27 41 -30 55
-13 62 -19 68 -138 133 -24 13 -50 19 -68 17 -23 -4 -38 4 -73 35 l-45 39 0
-405z m270 -559 c0 -8 -68 -1 -79 8 -2 2 0 15 3 29 l7 26 34 -27 c19 -14 35
-31 35 -36z"/>
<path d="M1811 453 c-33 -40 -47 -88 -37 -127 8 -31 68 -89 122 -117 40 -22
43 -22 68 -6 22 15 26 25 26 63 0 25 -7 59 -16 77 -23 45 -107 147 -121 147
-6 0 -25 -17 -42 -37z"/>
</g>
</svg>
