<?xml version="1.0" standalone="no"?>
<!DOCTYPE svg PUBLIC "-//W3C//DTD SVG 20010904//EN"
 "http://www.w3.org/TR/2001/REC-SVG-20010904/DTD/svg10.dtd">
<svg version="1.0" xmlns="http://www.w3.org/2000/svg"
 width="480.000000pt" height="360.000000pt" viewBox="0 0 480.000000 360.000000"
 preserveAspectRatio="xMidYMid meet">
<metadata>
Created by potrace 1.16, written by Peter Selinger 2001-2019
</metadata>
<rect width="1" height="360" fill="#000000"/>
<rect x="479" width="1" height="360" fill="#000000"/>
<rect width="480" height="1" fill="#000000"/>
<rect y="359" width="480" height="1" fill="#000000"/>
<g transform="translate(0.000000,360.000000) scale(0.100000,-0.100000)"
fill="#000000" stroke="none">
<path d="M2721 3181 c-35 -10 -84 -33 -110 -51 -25 -18 -57 -33 -71 -34 -20
-1 -26 -7 -30 -36 -4 -19 -14 -46 -23 -60 -24 -37 -45 -130 -47 -207 -2 -103
-2 -106 15 -99 10 3 20 -5 30 -24 17 -34 38 -50 29 -23 -4 14 -1 13 14 -5 11
-12 22 -18 24 -13 1 6 14 2 28 -9 22 -16 23 -21 12 -45 -12 -26 -3 -55 17 -55
4 0 33 -25 66 -55 59 -55 81 -65 103 -43 9 9 13 8 17 -5 4 -9 13 -13 21 -10
36 14 -14 -62 -76 -115 -52 -45 -150 -157 -150 -172 0 -4 9 -6 20 -3 20 5 20
3 -6 -53 -63 -139 -69 -161 -56 -228 6 -33 14 -72 18 -84 l7 -24 -54 28 c-30
15 -94 42 -144 59 -73 26 -91 37 -97 56 -4 13 -12 43 -19 67 -10 34 -10 50 -1
76 7 19 10 40 7 48 -4 10 1 17 13 20 32 9 33 44 2 86 -15 21 -31 48 -34 60 -8
23 -25 28 -54 13 -9 -5 -39 -17 -67 -27 -69 -26 -87 -64 -87 -182 1 -48 -8
-141 -18 -207 -13 -80 -17 -145 -14 -195 7 -87 23 -148 34 -130 5 7 10 -1 14
-23 5 -28 -5 -66 -52 -193 -71 -190 -80 -229 -55 -231 46 -5 110 -21 129 -33
11 -7 26 -24 32 -39 19 -42 83 -116 102 -116 10 -1 25 -7 34 -14 31 -26 37 1
14 57 -12 28 -18 55 -14 59 4 4 44 9 88 10 45 1 86 7 91 12 15 15 23 120 14
186 -4 33 -16 132 -27 220 -17 147 -17 161 -2 173 25 19 43 14 115 -36 l68
-47 4 -100 c3 -103 -6 -169 -48 -360 -14 -60 -30 -146 -37 -190 -24 -164 -93
-390 -242 -798 -6 -15 -8 -30 -6 -33 3 -2 341 -3 751 -2 l746 3 -33 80 c-18
44 -61 129 -96 189 -98 171 -151 284 -245 521 -90 230 -127 304 -231 472 -37
57 -64 113 -64 127 0 15 -7 43 -16 64 -19 44 -31 241 -17 292 5 19 16 36 24
36 8 1 17 2 21 3 4 0 0 17 -8 36 -8 21 -12 46 -8 63 7 27 53 78 67 74 4 -1 7
4 7 12 0 8 6 14 13 13 42 -1 45 2 36 46 -19 96 -69 251 -89 279 -24 32 -22 48
3 23 20 -19 27 -19 27 1 0 8 5 12 10 9 6 -3 10 -2 10 3 0 5 16 20 35 33 22 15
35 31 34 44 -2 36 1 45 14 45 9 0 12 10 9 30 -3 25 -1 29 12 24 20 -7 20 3 1
36 -17 30 -19 44 -5 35 17 -10 11 14 -20 85 -16 37 -39 107 -50 155 -28 121
-50 165 -112 231 -55 58 -132 117 -158 121 -86 13 -151 11 -209 -6z"/>
</g>
</svg>
