<?xml version="1.0" standalone="no"?>
<!DOCTYPE svg PUBLIC "-//W3C//DTD SVG 20010904//EN"
 "http://www.w3.org/TR/2001/REC-SVG-20010904/DTD/svg10.dtd">
<svg version="1.0" xmlns="http://www.w3.org/2000/svg"
 width="480.000000pt" height="360.000000pt" viewBox="0 0 480.000000 360.000000"
 preserveAspectRatio="xMidYMid meet">
<metadata>
Created by potrace 1.16, written by Peter Selinger 2001-2019
</metadata>
<rect width="1" height="360" fill="#000000"/>
<rect x="479" width="1" height="360" fill="#000000"/>
<rect width="480" height="1" fill="#000000"/>
<rect y="359" width="480" height="1" fill="#000000"/>
<g transform="translate(0.000000,360.000000) scale(0.100000,-0.100000)"
fill="#000000" stroke="none">
<path d="M0 2639 c0 -765 3 -959 12 -953 91 52 233 160 336 255 70 65 135 119
146 119 10 0 39 -11 65 -25 25 -13 101 -49 169 -79 68 -30 183 -89 257 -131
163 -92 222 -119 300 -135 73 -15 181 -8 292 20 l80 21 84 -25 84 -25 33 37
c17 20 51 64 75 97 23 33 61 78 83 100 43 41 58 50 177 105 l69 32 -7 46 c-7
50 -21 75 -39 69 -6 -2 -17 10 -25 27 -12 29 -14 29 -21 11 -5 -11 -12 -56
-17 -100 -7 -79 -7 -80 -13 -30 l-6 50 -11 -35 c-11 -34 -11 -33 -12 30 -1 36
-6 72 -11 80 -8 12 -10 9 -10 -12 0 -40 -20 -128 -29 -128 -5 0 -11 33 -14 73
-7 94 -26 167 -41 161 -7 -3 -20 12 -30 32 l-17 38 -24 -30 -24 -29 -1 48 0
49 -36 -22 c-19 -12 -37 -20 -40 -18 -2 3 10 22 27 44 17 21 38 52 46 68 13
26 13 30 -1 45 -15 14 -18 13 -40 -13 l-23 -30 -37 22 c-20 12 -48 22 -62 22
-13 0 -34 10 -46 22 l-21 21 29 21 c65 46 125 111 149 160 25 51 25 53 9 100
-22 63 -14 176 18 271 31 93 105 172 193 205 55 21 80 23 320 26 246 4 264 3
330 -18 56 -18 80 -32 122 -73 28 -29 64 -77 80 -109 l29 -57 29 31 c16 16 38
30 50 30 38 0 123 -50 179 -106 60 -60 73 -88 107 -237 l22 -99 -26 -21 c-14
-12 -33 -41 -42 -63 -15 -39 -15 -45 4 -105 31 -98 74 -311 63 -318 -5 -3 -12
-28 -15 -56 -11 -96 -67 -242 -87 -230 -4 3 -11 -6 -14 -19 -7 -27 -36 -44
-36 -21 0 23 -22 29 -36 11 -11 -16 -14 -10 -25 45 -7 35 -14 59 -15 54 -1 -6
-5 -22 -8 -37 -10 -46 -23 -32 -29 32 -4 33 -18 86 -31 119 -41 101 -47 151
-40 330 4 121 3 174 -6 196 l-12 30 -34 -70 c-19 -38 -34 -80 -34 -93 0 -22
27 -55 66 -79 17 -10 15 -12 -19 -12 -34 -1 -37 -3 -27 -20 14 -26 13 -31 -6
-31 -12 0 -15 -7 -12 -25 7 -33 -5 -32 -36 6 l-26 30 -12 -26 c-6 -14 -17 -24
-24 -21 -14 6 -41 -66 -53 -142 -7 -44 -9 -45 -18 -22 -10 25 -11 24 -21 -15
-29 -110 -32 -114 -28 -40 3 44 1 63 -4 50 -5 -11 -9 -32 -9 -47 -1 -14 -4
-35 -8 -45 -5 -10 -10 26 -13 87 -5 105 -5 105 -22 75 -9 -17 -28 -37 -42 -45
-26 -13 -51 -74 -44 -108 2 -8 50 -41 108 -72 82 -44 114 -68 145 -107 22 -28
70 -89 108 -136 75 -96 66 -93 182 -62 47 13 56 12 135 -11 51 -15 123 -28
181 -31 125 -7 184 10 394 118 86 44 214 103 283 130 68 28 142 59 163 69 21
11 46 20 55 20 10 0 81 -62 158 -138 114 -112 298 -262 321 -262 3 0 5 455 5
1010 l0 1010 -2400 0 -2400 0 0 -961z"/>
<path d="M3031 2244 c0 -11 3 -14 6 -6 3 7 2 16 -1 19 -3 4 -6 -2 -5 -13z"/>
<path d="M3251 2005 c0 -34 3 -45 9 -35 4 9 5 31 0 50 -8 34 -8 33 -9 -15z"/>
<path d="M445 1884 c-36 -41 -45 -58 -36 -67 6 -6 11 -17 11 -24 0 -7 25 -38
55 -68 85 -85 83 -77 86 -358 2 -136 -1 -250 -5 -254 -10 -11 -27 14 -88 127
-75 140 -107 199 -140 258 -28 49 -30 59 -23 115 3 34 13 77 21 96 8 19 12 36
10 39 -3 2 -35 -20 -71 -50 -36 -30 -95 -72 -130 -93 -72 -42 -85 -72 -41 -93
13 -5 41 -32 62 -57 34 -42 39 -56 45 -119 11 -118 11 -456 0 -456 -13 0 -37
36 -111 170 -35 63 -70 124 -77 135 -11 16 -13 -80 -13 -583 l0 -602 879 0
878 0 21 72 c12 40 33 118 48 173 24 91 88 254 134 346 12 23 17 50 15 75 -3
21 0 82 7 135 6 56 8 128 3 174 l-7 79 -48 -100 c-29 -62 -63 -117 -86 -140
-39 -39 -314 -227 -472 -322 -46 -28 -113 -61 -150 -73 -37 -12 -92 -33 -122
-47 -123 -55 -191 -73 -255 -67 -118 12 -304 95 -305 137 0 3 53 6 118 5 107
-1 125 2 211 31 88 30 120 51 121 79 0 9 -15 12 -47 10 -43 -2 -48 0 -51 20
-5 33 47 56 144 61 66 4 89 1 127 -16 42 -19 47 -19 69 -4 20 14 224 178 322
259 l36 29 -15 40 c-60 162 -145 425 -145 449 1 46 24 121 43 143 21 23 22 48
1 56 -20 8 -168 8 -215 0 l-37 -6 41 -61 40 -61 -6 -255 c-4 -140 -11 -259
-16 -264 -10 -10 -27 17 -78 128 -47 103 -118 255 -139 301 -13 28 -14 40 -1
102 8 39 22 80 30 92 26 37 8 70 -69 124 -73 51 -192 111 -202 101 -3 -3 4
-14 16 -25 11 -11 34 -39 50 -62 l29 -43 7 -250 c7 -242 2 -296 -22 -270 -5 6
-45 78 -87 160 -43 83 -93 179 -113 214 -33 62 -34 68 -28 134 3 38 13 81 21
97 31 61 24 71 -88 128 -56 29 -105 52 -109 52 -3 0 -27 -25 -53 -56z"/>
<path d="M4190 1812 c-82 -41 -95 -50 -95 -72 0 -14 6 -34 12 -46 7 -12 17
-52 23 -89 l11 -67 -47 -92 c-180 -349 -185 -358 -201 -343 -4 4 -9 116 -10
249 l-4 241 26 39 c14 21 43 57 63 80 34 38 35 40 12 34 -43 -12 -183 -85
-232 -121 -51 -38 -62 -72 -34 -104 8 -9 19 -49 25 -89 l11 -73 -112 -219
c-61 -121 -115 -220 -119 -220 -14 0 -18 50 -20 276 l-2 232 41 58 c51 72 49
75 -97 82 -89 4 -108 2 -120 -11 -11 -14 -10 -20 7 -42 11 -13 25 -53 32 -88
l11 -63 -44 -104 c-25 -58 -68 -157 -96 -220 -28 -62 -48 -117 -43 -121 4 -4
79 -57 166 -118 l159 -111 85 0 c141 0 260 -46 250 -97 -4 -19 -37 -23 -71 -8
-16 7 -18 4 -15 -21 6 -58 245 -164 366 -164 49 0 58 -11 37 -43 -21 -32 -49
-44 -142 -57 -73 -11 -85 -10 -166 13 -62 18 -113 41 -178 82 -50 32 -137 76
-193 99 -118 49 -489 254 -547 304 -42 36 -75 93 -105 182 l-18 55 -8 -50
c-10 -58 -3 -192 13 -249 8 -29 8 -45 -1 -61 -10 -19 -5 -36 38 -126 61 -130
91 -211 138 -381 20 -73 38 -141 41 -151 5 -16 56 -17 884 -17 l879 0 0 582 0
583 -40 -55 c-22 -30 -40 -59 -40 -64 0 -5 -11 -24 -25 -42 -14 -18 -25 -35
-25 -38 0 -17 -103 -156 -116 -156 -17 0 -17 4 -4 180 16 222 20 263 26 296 5
29 74 112 127 152 26 20 21 29 -38 66 -30 20 -88 64 -129 100 -72 63 -99 75
-71 32 7 -11 17 -53 20 -92 7 -67 6 -75 -22 -125 -200 -359 -214 -382 -230
-365 -8 8 -6 223 3 386 l6 114 45 56 c25 30 54 58 64 62 11 4 19 15 19 24 0
10 7 26 17 36 15 17 15 20 -3 41 -45 54 -79 87 -88 86 -6 0 -54 -22 -106 -47z"/>
<path d="M1603 1602 c-28 -4 -30 -18 -4 -31 10 -6 33 -40 50 -77 l31 -66 -30
-235 c-17 -129 -30 -239 -30 -244 0 -5 24 7 54 27 53 35 55 38 62 93 6 47 47
206 69 263 5 12 -2 21 -23 32 -44 23 -48 44 -12 79 l30 29 -21 30 c-15 20 -20
38 -15 58 5 27 3 30 -27 34 -49 8 -109 11 -134 8z"/>
<path d="M3050 1536 c0 -19 -9 -44 -19 -57 -19 -24 -19 -24 5 -56 28 -37 23
-58 -18 -79 -20 -10 -27 -20 -24 -32 22 -70 47 -204 48 -251 l1 -57 49 -27
c28 -16 52 -26 55 -24 2 3 -3 105 -13 229 l-16 224 32 54 c18 30 41 62 52 72
32 28 12 38 -73 38 l-79 0 0 -34z"/>
</g>
</svg>
