<?xml version="1.0" standalone="no"?>
<!DOCTYPE svg PUBLIC "-//W3C//DTD SVG 20010904//EN"
 "http://www.w3.org/TR/2001/REC-SVG-20010904/DTD/svg10.dtd">
<svg version="1.0" xmlns="http://www.w3.org/2000/svg"
 width="480.000000pt" height="360.000000pt" viewBox="0 0 480.000000 360.000000"
 preserveAspectRatio="xMidYMid meet">
<metadata>
Created by potrace 1.16, written by Peter Selinger 2001-2019
</metadata>
<rect width="1" height="360" fill="#000000"/>
<rect x="479" width="1" height="360" fill="#000000"/>
<rect width="480" height="1" fill="#000000"/>
<rect y="359" width="480" height="1" fill="#000000"/>
<g transform="translate(0.000000,360.000000) scale(0.100000,-0.100000)"
fill="#000000" stroke="none">
<path d="M2600 3597 c0 -2 7 -28 16 -58 19 -65 63 -146 98 -178 27 -25 34 -51
15 -51 -6 0 -45 -14 -87 -32 -185 -77 -369 -241 -453 -404 -26 -49 -52 -114
-59 -144 -49 -215 -62 -253 -103 -297 -33 -37 -1 -26 43 13 38 35 40 35 40 13
-1 -13 -5 -43 -9 -67 -5 -23 -5 -45 0 -48 5 -3 9 -27 9 -55 0 -27 5 -49 10
-49 6 0 10 7 10 17 0 25 37 -22 45 -58 7 -33 25 -49 25 -23 0 13 8 9 30 -16
25 -28 30 -30 30 -14 0 15 5 12 21 -13 12 -18 23 -33 26 -33 2 0 1 5 -2 10
-13 21 7 9 42 -25 20 -19 38 -33 41 -30 2 2 -3 22 -12 45 -28 69 -17 78 14 12
17 -36 34 -61 40 -57 15 9 13 -40 -3 -78 -8 -18 -26 -46 -41 -64 -34 -41 -25
-63 38 -87 40 -15 47 -23 57 -59 14 -48 33 -67 66 -67 19 0 23 -5 23 -29 0
-19 8 -34 24 -45 14 -8 39 -36 55 -60 27 -39 31 -53 31 -111 0 -36 -5 -75 -10
-85 -9 -16 -6 -21 15 -26 28 -7 29 -11 15 -48 -7 -21 -6 -26 5 -26 15 0 19
-12 55 -184 l24 -110 -70 -63 c-38 -34 -72 -63 -76 -63 -4 0 -19 24 -33 53
-14 30 -51 81 -82 114 -32 34 -78 94 -102 134 l-45 72 -1 121 c-3 188 -48 297
-143 338 -40 18 -58 20 -141 14 -53 -4 -106 -10 -117 -12 -20 -5 -23 0 -29 46
-10 70 -31 61 -28 -12 l2 -55 -72 -24 c-75 -25 -181 -88 -196 -118 -12 -22
-51 -178 -51 -203 0 -11 9 -50 19 -86 10 -37 24 -93 31 -125 10 -50 22 -71 85
-146 70 -84 92 -100 178 -131 l27 -10 -30 -59 c-57 -114 -80 -218 -91 -416 -6
-99 -16 -205 -24 -235 -7 -30 -16 -67 -19 -82 l-6 -28 352 0 353 0 49 100 c56
116 79 143 76 90 -1 -19 -2 -70 -1 -112 l1 -78 896 0 895 0 82 40 c45 21 96
51 112 65 l30 26 -42 -6 c-24 -4 -43 -4 -43 0 0 3 18 30 40 58 l39 52 -36 3
c-56 5 -73 -3 -179 -81 -85 -63 -188 -117 -198 -106 -18 20 -68 141 -85 209
-12 46 -27 90 -32 97 -6 6 -8 17 -4 22 3 6 -10 70 -30 143 -20 73 -42 157 -50
187 -7 29 -18 57 -24 61 -7 3 -9 14 -6 22 4 9 -1 32 -9 53 -19 44 -20 55 -6
55 6 0 10 -6 10 -13 0 -8 10 -13 23 -13 18 1 30 -16 74 -103 62 -125 73 -138
73 -88 0 20 5 48 12 62 10 22 8 30 -11 55 -16 23 -28 67 -45 170 -12 77 -20
140 -16 140 3 0 23 -31 43 -70 38 -68 65 -102 53 -64 -56 180 -112 475 -88
460 5 -3 13 -18 16 -33 16 -63 92 -234 142 -318 72 -122 88 -145 95 -145 3 0
-13 57 -37 128 -23 70 -45 150 -49 177 l-7 50 76 -108 c76 -109 99 -137 111
-137 4 0 4 8 0 18 -3 9 -17 67 -30 127 -21 99 -31 179 -65 555 -49 526 -131
861 -286 1172 -29 58 -59 128 -65 155 -34 140 -190 345 -301 394 -56 25 -165
31 -258 16 l-45 -7 -48 60 -49 60 -339 0 c-186 0 -339 -1 -339 -3z m406 -2098
l26 -42 -31 -31 -31 -31 0 73 c0 39 2 72 5 72 3 0 16 -19 31 -41z"/>
</g>
</svg>
