<?xml version="1.0" standalone="no"?>
<!DOCTYPE svg PUBLIC "-//W3C//DTD SVG 20010904//EN"
 "http://www.w3.org/TR/2001/REC-SVG-20010904/DTD/svg10.dtd">
<svg version="1.0" xmlns="http://www.w3.org/2000/svg"
 width="480.000000pt" height="360.000000pt" viewBox="0 0 480.000000 360.000000"
 preserveAspectRatio="xMidYMid meet">
<metadata>
Created by potrace 1.16, written by Peter Selinger 2001-2019
</metadata>
<rect width="1" height="360" fill="#000000"/>
<rect x="479" width="1" height="360" fill="#000000"/>
<rect width="480" height="1" fill="#000000"/>
<rect y="359" width="480" height="1" fill="#000000"/>
<g transform="translate(0.000000,360.000000) scale(0.100000,-0.100000)"
fill="#000000" stroke="none">
<path d="M1601 3543 c19 -148 -6 -440 -45 -528 -7 -16 -19 -47 -26 -68 -34
-107 -143 -300 -213 -377 -20 -23 -42 -51 -48 -62 -6 -11 -13 -18 -15 -15 -3
3 -28 -19 -56 -49 -27 -29 -91 -81 -142 -115 -110 -76 -313 -174 -378 -183
-27 -4 -48 -11 -48 -15 0 -4 -48 -14 -107 -22 -172 -23 -391 -15 -505 17 -17
5 -18 -50 -18 -1060 l0 -1066 1463 0 c1218 1 1459 3 1445 14 -23 17 -22 22 2
53 l20 25 -25 30 c-30 36 -32 59 -5 83 11 10 72 95 136 189 63 94 141 209 173
256 66 96 162 266 182 323 13 37 12 41 -21 100 l-35 62 1 125 c0 69 -3 128 -9
131 -5 4 -5 14 2 26 6 12 7 32 2 49 l-8 29 -13 -44 c-12 -36 -16 -41 -25 -27
-14 18 -25 11 -25 -16 0 -11 -3 -17 -8 -14 -13 8 15 384 36 491 11 55 22 141
25 190 6 102 32 185 81 255 18 25 40 68 50 95 27 72 100 187 146 228 21 20 58
46 82 58 23 12 54 30 68 40 31 23 243 44 363 36 151 -10 166 -58 55 -173 l-50
-52 11 -51 c14 -67 14 -98 -1 -117 -42 -52 -148 -147 -156 -140 -3 3 -27 -14
-53 -39 -27 -25 -60 -50 -74 -55 -45 -17 -30 -37 33 -45 53 -6 61 -11 109 -62
40 -41 57 -69 69 -111 9 -32 31 -88 49 -127 40 -86 55 -165 30 -165 -14 0 -12
-6 9 -31 32 -38 32 -43 1 -77 -14 -15 -33 -47 -42 -72 -19 -52 -40 -80 -60
-80 -31 0 -22 -36 36 -153 48 -97 70 -158 107 -297 62 -237 73 -275 138 -498
65 -225 86 -322 86 -392 l0 -50 200 0 200 0 0 1800 0 1800 -1603 0 -1603 0 7
-57z"/>
<path d="M3395 1188 c-3 -7 -1 -26 4 -43 9 -29 9 -29 10 13 1 41 -5 54 -14 30z"/>
</g>
</svg>
