<?xml version="1.0" standalone="no"?>
<!DOCTYPE svg PUBLIC "-//W3C//DTD SVG 20010904//EN"
 "http://www.w3.org/TR/2001/REC-SVG-20010904/DTD/svg10.dtd">
<svg version="1.0" xmlns="http://www.w3.org/2000/svg"
 width="480.000000pt" height="360.000000pt" viewBox="0 0 480.000000 360.000000"
 preserveAspectRatio="xMidYMid meet">
<metadata>
Created by potrace 1.16, written by Peter Selinger 2001-2019
</metadata>
<rect width="1" height="360" fill="#000000"/>
<rect x="479" width="1" height="360" fill="#000000"/>
<rect width="480" height="1" fill="#000000"/>
<rect y="359" width="480" height="1" fill="#000000"/>
<g transform="translate(0.000000,360.000000) scale(0.100000,-0.100000)"
fill="#000000" stroke="none">
<path d="M0 2174 l0 -1427 115 5 c63 2 117 7 120 10 3 3 9 70 12 148 5 116 4
143 -8 151 -11 7 -8 21 21 76 32 62 38 69 75 77 22 5 55 15 73 23 31 14 32 15
32 78 0 35 -4 66 -10 70 -18 11 3 35 42 47 47 14 69 48 50 78 -8 14 -8 24 1
44 15 33 30 33 47 1 10 -20 11 -28 2 -37 -29 -29 1 -93 48 -103 l28 -6 -5 -83
-6 -84 37 -17 c20 -10 51 -21 69 -24 28 -6 35 -15 60 -75 17 -45 24 -73 18
-80 -5 -6 -11 -72 -13 -146 l-3 -135 45 0 45 0 5 105 5 105 54 82 c29 46 55
83 56 83 2 0 27 -39 56 -87 49 -82 53 -93 57 -165 2 -43 5 -78 6 -79 0 0 148
-9 328 -18 l326 -18 73 -66 c40 -37 77 -67 83 -67 6 0 7 74 3 195 l-7 194 47
68 c25 37 50 72 54 77 4 4 30 -26 58 -68 l51 -76 -6 -515 -7 -515 1331 0 1332
0 0 1800 0 1800 -2400 0 -2400 0 0 -1426z m3121 517 c19 -15 24 -29 25 -77 1
-33 8 -75 16 -95 15 -35 17 -36 113 -54 103 -19 120 -32 90 -65 -10 -11 -15
-26 -12 -35 5 -10 0 -15 -13 -15 -10 0 -21 -4 -25 -9 -3 -5 -19 -12 -35 -16
-34 -7 -41 -25 -10 -25 24 0 27 -18 4 -27 -10 -4 -14 -13 -10 -28 5 -18 0 -25
-24 -35 -25 -10 -30 -19 -35 -59 -3 -25 -11 -57 -16 -69 -11 -27 -14 -28 72
20 36 21 80 41 99 44 l33 7 -7 -39 c-4 -21 -21 -63 -37 -91 -16 -29 -29 -56
-29 -61 0 -4 35 -7 78 -5 42 2 114 4 160 6 l83 2 -33 -27 -32 -26 59 -17 c52
-15 57 -19 41 -30 -22 -17 -12 -22 52 -31 56 -7 60 -18 12 -27 -16 -4 -30 -11
-30 -16 0 -8 31 -24 50 -26 3 0 16 -10 30 -23 l24 -22 -47 6 c-56 8 -61 -5
-19 -49 17 -19 21 -28 10 -24 -24 8 -30 -4 -10 -20 15 -13 14 -14 -13 -8 l-30
6 25 -21 c14 -11 19 -20 13 -20 -29 0 -10 -19 37 -36 28 -10 50 -22 50 -27 0
-5 -8 -6 -17 -3 -9 4 -19 2 -23 -4 -5 -8 -20 -6 -49 6 -48 19 -52 18 -40 -13
5 -15 17 -23 31 -23 13 0 30 -5 38 -11 11 -8 0 -9 -42 -6 -46 5 -56 3 -51 -9
3 -8 -1 -14 -8 -14 -9 -1 -7 -6 5 -15 19 -15 19 -15 -1 -15 -12 0 -25 5 -28
10 -3 6 -15 10 -26 10 -18 0 -19 -2 -4 -30 9 -16 12 -30 7 -30 -4 0 -21 14
-37 30 -17 17 -39 30 -53 30 -23 0 -24 -3 -19 -35 3 -19 2 -35 -4 -35 -5 0 -9
-9 -9 -19 0 -11 -5 -23 -10 -26 -7 -4 -8 3 -4 21 5 19 4 25 -5 20 -7 -4 -11 0
-11 12 0 14 -17 27 -61 46 -72 31 -79 32 -72 6 14 -53 -33 -108 -81 -96 -27 7
-40 38 -52 120 -5 38 -14 57 -38 78 -51 47 -67 36 -96 -62 -36 -122 -42 -129
-85 -85 -18 17 -25 35 -25 64 0 35 -4 43 -30 56 -16 9 -30 20 -30 25 0 6 -6
10 -13 10 -7 0 -29 11 -49 25 -45 31 -54 31 -61 3 -8 -31 -36 -6 -30 26 4 18
0 26 -16 31 -16 5 -21 15 -21 40 0 29 4 34 29 40 16 3 39 3 53 0 19 -5 27 -1
38 21 8 14 35 44 60 66 80 71 93 166 29 217 -18 13 -29 34 -32 58 -3 21 -9 52
-12 69 -5 22 -1 40 14 65 49 79 -22 246 -84 199 -13 -10 -92 -24 -83 -15 4 4
3 16 -3 27 -9 16 -3 22 48 45 32 14 60 28 63 30 2 2 -9 15 -25 28 -32 26 -22
32 18 14 26 -12 67 2 67 22 0 10 26 45 94 125 24 29 34 34 71 34 27 0 51 -7
66 -19z"/>
<path d="M2882 1720 c-38 -24 -40 -30 -7 -30 14 0 29 8 35 21 16 29 9 31 -28
9z"/>
<path d="M2890 1589 c0 -5 5 -7 10 -4 6 3 10 8 10 11 0 2 -4 4 -10 4 -5 0 -10
-5 -10 -11z"/>
<path d="M3600 1481 c0 -9 24 -21 42 -21 6 0 6 6 -2 15 -14 16 -40 20 -40 6z"/>
</g>
</svg>
