<?xml version="1.0" standalone="no"?>
<!DOCTYPE svg PUBLIC "-//W3C//DTD SVG 20010904//EN"
 "http://www.w3.org/TR/2001/REC-SVG-20010904/DTD/svg10.dtd">
<svg version="1.0" xmlns="http://www.w3.org/2000/svg"
 width="480.000000pt" height="360.000000pt" viewBox="0 0 480.000000 360.000000"
 preserveAspectRatio="xMidYMid meet">
<metadata>
Created by potrace 1.16, written by Peter Selinger 2001-2019
</metadata>
<rect width="1" height="360" fill="#000000"/>
<rect x="479" width="1" height="360" fill="#000000"/>
<rect width="480" height="1" fill="#000000"/>
<rect y="359" width="480" height="1" fill="#000000"/>
<g transform="translate(0.000000,360.000000) scale(0.100000,-0.100000)"
fill="#000000" stroke="none">
<path d="M0 1800 l0 -1800 1013 0 1012 0 65 66 c36 36 74 71 85 77 11 5 36 23
55 38 19 15 64 42 100 61 l65 33 12 70 c23 138 14 154 -49 83 l-37 -43 -1 29
0 29 -40 -46 c-23 -25 -47 -44 -54 -41 -7 3 -21 -4 -31 -16 -27 -30 -36 -24
-29 20 l7 40 -56 0 c-48 0 -58 4 -76 26 -12 15 -21 31 -21 36 0 26 -75 180
-92 189 -11 6 -26 26 -34 44 -7 19 -25 45 -39 59 -20 21 -25 35 -25 79 0 65
-10 80 -86 122 -45 25 -61 40 -68 63 -12 43 -5 55 56 89 55 31 128 103 128
126 -1 6 -19 32 -40 56 -41 45 -50 45 -25 1 20 -35 18 -46 -3 -27 -10 10 -24
17 -31 17 -6 0 -16 10 -22 23 -5 12 -32 36 -60 52 -29 18 -52 40 -56 54 l-6
24 -13 -24 c-15 -29 -20 -20 -30 66 -5 45 -9 55 -15 40 -4 -11 -8 -37 -8 -57
-1 -51 -16 -48 -29 5 -26 104 -32 140 -32 204 l-1 68 -39 -44 c-47 -51 -54
-33 -13 31 34 55 73 144 73 167 0 14 -14 5 -53 -36 -34 -35 -63 -56 -80 -58
-15 -2 -27 0 -27 5 0 5 17 39 38 77 80 142 125 233 119 239 -3 3 -43 1 -88 -5
-131 -18 -130 -18 -167 43 -46 75 -65 90 -99 82 -15 -4 -57 -12 -92 -19 -61
-10 -64 -10 -82 14 -21 27 -24 75 -8 149 16 75 38 82 142 46 122 -41 179 -46
304 -25 188 30 286 62 341 113 13 11 45 67 72 122 86 183 161 260 375 386 100
59 147 99 355 303 102 100 210 202 240 228 l55 47 -1427 0 -1428 0 0 -1800z"/>
<path d="M4089 3573 c-34 -95 -41 -101 -58 -53 -5 17 -14 30 -19 30 -5 0 -19
-84 -31 -187 -12 -104 -41 -318 -63 -478 -43 -311 -42 -280 -22 -678 7 -143
-4 -237 -41 -351 -20 -61 -22 -79 -13 -126 5 -30 6 -118 3 -195 l-6 -140 36
-38 c19 -20 72 -60 115 -88 121 -77 190 -165 163 -208 -5 -8 -24 -21 -42 -28
-32 -13 -34 -13 -70 24 -20 21 -61 66 -91 100 -38 44 -64 65 -86 69 -31 6 -32
5 -38 -40 -4 -25 -18 -78 -32 -118 -38 -113 -31 -163 37 -255 l39 -52 -40 4
c-32 3 -40 0 -40 -13 0 -15 47 -93 96 -160 24 -33 4 -27 -49 14 -45 35 -97
107 -118 162 -13 33 -20 23 -54 -68 -29 -77 -70 -166 -87 -187 -7 -9 -16 -10
-28 -3 -24 13 -40 -25 -40 -93 0 -57 -8 -97 -20 -97 -4 0 -13 26 -20 58 -23
108 -31 91 -24 -57 6 -138 6 -143 -12 -133 -27 15 -63 56 -124 140 -28 39 -55
70 -60 67 -4 -3 -11 -21 -14 -40 -7 -34 -28 -47 -41 -25 -11 18 -35 11 -35
-10 0 -11 -4 -20 -10 -20 -10 0 -35 -79 -45 -146 -6 -40 -6 -41 62 -97 l67
-57 128 0 127 0 -24 24 c-24 24 -24 25 -8 66 9 22 25 46 36 51 10 6 27 19 38
30 10 10 32 19 48 19 16 0 41 4 55 9 16 7 26 7 28 0 2 -5 28 4 58 20 67 37
162 44 179 13 5 -10 27 -26 49 -36 22 -10 57 -41 82 -72 31 -39 48 -53 59 -48
9 4 58 9 110 12 111 5 158 -11 168 -60 7 -34 22 -35 118 -8 38 11 87 20 108
20 28 0 36 3 30 12 -13 23 -20 107 -9 113 6 3 -7 2 -29 -1 -22 -3 -63 -17 -91
-30 -70 -33 -75 -30 -24 13 l44 38 -29 5 c-15 3 -30 10 -32 17 -4 11 124 102
151 107 6 2 34 6 61 10 28 4 69 12 93 18 l42 11 0 1623 0 1624 -350 0 -350 0
-11 -27z"/>
<path d="M3044 220 c3 -36 13 -71 21 -79 13 -14 15 -13 15 1 0 32 -22 123 -32
133 -7 7 -9 -11 -4 -55z"/>
</g>
</svg>
