<?xml version="1.0" standalone="no"?>
<!DOCTYPE svg PUBLIC "-//W3C//DTD SVG 20010904//EN"
 "http://www.w3.org/TR/2001/REC-SVG-20010904/DTD/svg10.dtd">
<svg version="1.0" xmlns="http://www.w3.org/2000/svg"
 width="480.000000pt" height="360.000000pt" viewBox="0 0 480.000000 360.000000"
 preserveAspectRatio="xMidYMid meet">
<metadata>
Created by potrace 1.16, written by Peter Selinger 2001-2019
</metadata>
<rect width="1" height="360" fill="#000000"/>
<rect x="479" width="1" height="360" fill="#000000"/>
<rect width="480" height="1" fill="#000000"/>
<rect y="359" width="480" height="1" fill="#000000"/>
<g transform="translate(0.000000,360.000000) scale(0.100000,-0.100000)"
fill="#000000" stroke="none">
<path d="M1604 3418 c0 -244 -20 -348 -108 -553 -25 -60 -95 -183 -139 -245
-30 -43 -181 -200 -222 -230 -11 -8 -41 -32 -66 -53 -112 -91 -366 -198 -539
-227 -137 -23 -408 -15 -513 16 -16 5 -17 -50 -17 -1060 l0 -1066 1344 0 1345
0 10 53 c5 28 15 88 21 132 17 122 38 207 85 356 52 163 82 298 132 599 37
223 48 335 38 377 -5 21 -5 21 -33 -5 -29 -28 -275 -112 -325 -112 -16 0 -35
-14 -57 -41 -28 -36 -31 -44 -21 -65 24 -54 10 -74 -51 -74 -34 0 -83 43 -93
83 -9 33 9 65 73 131 47 48 68 60 215 121 89 37 166 71 171 76 5 5 4 14 -2 22
-7 8 -9 17 -5 20 3 4 -2 9 -11 13 -21 8 -21 30 1 38 12 5 14 9 5 18 -26 26
-13 75 32 128 57 66 76 107 76 160 0 56 20 91 69 118 42 24 50 39 30 59 -13
13 -4 33 17 33 8 0 14 6 14 13 0 8 -12 11 -37 9 -40 -3 -37 -6 -89 80 -6 11
-19 24 -28 31 -16 12 -16 14 3 31 12 11 21 22 21 26 0 9 -51 32 -58 26 -6 -6
-46 43 -48 59 0 5 -2 16 -2 23 -1 7 -6 11 -10 8 -19 -12 -4 54 25 106 l30 56
-33 58 c-54 96 -54 144 0 144 36 0 267 -60 305 -79 20 -10 59 -24 86 -30 78
-19 147 -79 191 -165 14 -26 36 -98 48 -160 14 -68 35 -135 55 -172 37 -72 51
-139 51 -238 0 -53 8 -95 28 -157 42 -126 58 -220 45 -276 -6 -26 -7 -57 -3
-72 7 -22 22 -353 23 -521 1 -92 -15 -210 -29 -210 -8 0 -17 12 -20 26 -10 40
-23 8 -14 -33 13 -55 25 -83 156 -353 68 -140 139 -302 158 -360 l35 -105 416
-3 415 -2 0 1800 0 1800 -1598 0 -1598 0 0 -182z"/>
<path d="M3338 1495 c-2 -33 1 -71 6 -85 10 -23 11 -22 14 20 1 25 -1 63 -6
85 l-9 40 -5 -60z"/>
</g>
</svg>
