<?xml version="1.0" standalone="no"?>
<!DOCTYPE svg PUBLIC "-//W3C//DTD SVG 20010904//EN"
 "http://www.w3.org/TR/2001/REC-SVG-20010904/DTD/svg10.dtd">
<svg version="1.0" xmlns="http://www.w3.org/2000/svg"
 width="480.000000pt" height="360.000000pt" viewBox="0 0 480.000000 360.000000"
 preserveAspectRatio="xMidYMid meet">
<metadata>
Created by potrace 1.16, written by Peter Selinger 2001-2019
</metadata>
<rect width="1" height="360" fill="#000000"/>
<rect x="479" width="1" height="360" fill="#000000"/>
<rect width="480" height="1" fill="#000000"/>
<rect y="359" width="480" height="1" fill="#000000"/>
<g transform="translate(0.000000,360.000000) scale(0.100000,-0.100000)"
fill="#000000" stroke="none">
<path d="M1313 2856 c-12 -24 -31 -47 -42 -51 -23 -7 -27 -20 -11 -30 6 -4 7
-12 3 -18 -4 -7 -8 -29 -9 -49 -1 -23 -20 -71 -48 -122 -43 -79 -56 -120 -38
-128 4 -1 15 -19 24 -38 17 -35 18 -35 12 -5 l-5 30 15 -25 c12 -20 15 -21 16
-7 0 14 8 10 40 -19 22 -20 50 -42 62 -48 13 -6 24 -19 26 -29 3 -13 -4 -17
-31 -17 -48 0 -65 -22 -43 -55 17 -25 16 -26 -49 -90 -36 -35 -65 -70 -65 -78
0 -7 -15 -30 -34 -50 -70 -76 -53 -158 39 -190 5 -2 8 -42 6 -93 -2 -78 -6
-96 -32 -141 -17 -29 -35 -55 -40 -59 -6 -3 -7 -18 -4 -33 4 -18 -4 -54 -20
-100 -15 -40 -23 -80 -20 -91 4 -11 2 -35 -4 -52 -37 -115 -101 -568 -141
-988 -11 -118 -23 -230 -26 -247 l-6 -33 476 0 476 0 0 23 c0 12 -11 98 -24
192 -14 94 -30 228 -36 300 -18 218 -29 294 -65 440 -31 124 -79 289 -100 338
-5 12 -3 17 9 17 18 0 21 16 5 26 -16 9 -5 66 36 194 l35 107 -21 103 c-13 65
-17 105 -11 109 11 7 11 60 -1 78 -4 7 -1 34 8 60 16 48 16 49 -20 148 -20 55
-45 109 -56 121 -10 11 -16 24 -12 28 5 4 8 18 8 29 0 13 6 22 15 22 10 0 14
-8 12 -27 -4 -33 2 -34 35 -8 28 22 43 18 43 -11 0 -19 1 -19 33 -2 17 9 35
16 39 15 12 -3 58 94 58 121 0 12 -14 63 -30 112 -17 50 -31 106 -30 127 1 28
-5 41 -25 57 -15 11 -39 38 -55 59 -39 55 -91 83 -179 99 -101 19 -119 18
-142 -3 -18 -16 -19 -16 -19 4 0 34 -14 26 -37 -22z"/>
<path d="M3538 2169 c-39 -40 -187 -169 -194 -169 -2 0 -37 9 -76 20 -40 11
-79 20 -88 20 -25 0 -72 -43 -65 -61 3 -8 39 -42 81 -74 50 -40 71 -62 64 -69
-18 -18 -11 -71 12 -96 19 -20 19 -24 6 -34 -23 -17 -18 -99 8 -128 19 -21 20
-27 9 -63 -10 -34 -17 -41 -49 -48 -32 -8 -40 -16 -60 -61 -13 -28 -55 -100
-94 -159 -40 -60 -72 -115 -72 -123 0 -8 11 -50 24 -92 14 -42 28 -94 32 -115
4 -23 16 -45 32 -58 47 -37 53 -75 32 -228 -51 -379 -51 -361 -5 -398 l35 -29
2 -102 2 -102 67 0 67 0 12 63 c6 35 16 70 21 78 15 22 34 -10 49 -81 l13 -60
73 0 73 0 6 48 c3 26 7 54 8 62 1 8 11 16 22 18 11 2 37 10 58 19 32 14 37 20
37 50 0 19 -13 84 -30 146 -38 145 -73 353 -65 393 3 18 16 39 29 48 13 8 30
32 36 53 7 21 30 73 51 115 22 43 39 92 39 109 0 17 -16 67 -36 112 -58 131
-102 256 -99 280 6 46 28 117 39 126 8 7 25 1 55 -18 61 -40 117 -65 135 -58
8 3 18 22 22 42 6 32 1 43 -45 105 -28 39 -51 77 -51 85 0 7 22 69 50 137 27
68 50 133 50 145 0 56 -155 173 -240 181 -45 4 -52 2 -82 -29z m51 -1050 c1
-14 -56 -65 -64 -57 -3 3 3 40 22 128 5 24 6 23 23 -15 10 -22 19 -47 19 -56z
m-389 31 c-6 -11 -15 -18 -20 -15 -6 4 -3 20 7 38 13 24 18 28 21 15 2 -9 -2
-26 -8 -38z"/>
</g>
</svg>
