<?xml version="1.0" standalone="no"?>
<!DOCTYPE svg PUBLIC "-//W3C//DTD SVG 20010904//EN"
 "http://www.w3.org/TR/2001/REC-SVG-20010904/DTD/svg10.dtd">
<svg version="1.0" xmlns="http://www.w3.org/2000/svg"
 width="480.000000pt" height="360.000000pt" viewBox="0 0 480.000000 360.000000"
 preserveAspectRatio="xMidYMid meet">
<metadata>
Created by potrace 1.16, written by Peter Selinger 2001-2019
</metadata>
<rect width="1" height="360" fill="#000000"/>
<rect x="479" width="1" height="360" fill="#000000"/>
<rect width="480" height="1" fill="#000000"/>
<rect y="359" width="480" height="1" fill="#000000"/>
<g transform="translate(0.000000,360.000000) scale(0.100000,-0.100000)"
fill="#000000" stroke="none">
<path d="M2556 2618 c-3 -39 -8 -74 -10 -76 -2 -2 -21 1 -42 7 -58 15 -272 17
-320 3 -125 -37 -199 -157 -224 -366 -25 -202 28 -409 132 -522 24 -26 37 -48
32 -53 -5 -5 -45 -34 -89 -66 -44 -32 -96 -74 -117 -93 l-36 -34 -17 32 -17
33 -177 -6 c-481 -18 -1001 -59 -1425 -113 -109 -14 -209 -23 -222 -20 l-24 6
0 -675 0 -675 1116 0 1116 0 -5 23 c-4 12 -27 119 -53 237 -25 118 -59 274
-75 345 -16 72 -29 144 -29 161 0 29 4 33 58 52 91 32 122 40 212 52 47 6 105
18 130 25 25 7 70 18 102 24 85 18 207 81 258 134 25 26 49 47 53 47 17 0 125
86 188 149 75 76 111 126 168 231 36 67 41 83 41 142 0 37 9 100 20 140 11 40
21 93 22 118 3 40 1 45 -20 48 -29 4 -44 -8 -88 -72 -18 -28 -59 -78 -89 -111
-51 -56 -56 -59 -69 -42 -24 31 -49 17 -64 -35 -10 -38 -23 -54 -61 -82 -61
-45 -342 -158 -449 -181 -40 -8 -126 11 -144 32 -13 17 -19 63 -8 63 4 0 20
11 36 25 16 14 35 23 44 19 34 -13 132 -16 174 -4 59 16 169 101 233 180 149
185 198 391 130 558 -45 112 -94 154 -236 203 -118 41 -123 46 -101 124 14 49
1 85 -29 85 -15 0 -19 -11 -25 -72z"/>
</g>
</svg>
