<?xml version="1.0" standalone="no"?>
<!DOCTYPE svg PUBLIC "-//W3C//DTD SVG 20010904//EN"
 "http://www.w3.org/TR/2001/REC-SVG-20010904/DTD/svg10.dtd">
<svg version="1.0" xmlns="http://www.w3.org/2000/svg"
 width="480.000000pt" height="360.000000pt" viewBox="0 0 480.000000 360.000000"
 preserveAspectRatio="xMidYMid meet">
<metadata>
Created by potrace 1.16, written by Peter Selinger 2001-2019
</metadata>
<rect width="1" height="360" fill="#000000"/>
<rect x="479" width="1" height="360" fill="#000000"/>
<rect width="480" height="1" fill="#000000"/>
<rect y="359" width="480" height="1" fill="#000000"/>
<g transform="translate(0.000000,360.000000) scale(0.100000,-0.100000)"
fill="#000000" stroke="none">
<path d="M0 2178 l0 -1421 132 7 c72 3 134 9 137 11 3 3 7 74 9 156 4 120 2
153 -9 160 -11 6 -6 23 21 80 35 72 55 89 105 89 12 0 36 7 51 15 26 13 30 21
35 77 3 35 1 70 -5 79 -14 25 -2 43 40 58 50 17 64 29 64 52 0 11 -6 28 -12
39 -9 15 -10 23 -2 28 6 4 13 15 17 25 9 23 28 22 34 -3 3 -11 9 -20 14 -20 5
0 9 -7 9 -15 0 -8 -4 -15 -10 -15 -13 0 -13 -56 0 -80 5 -10 25 -23 44 -30
l33 -11 -5 -88 -5 -89 34 -16 c19 -8 52 -19 73 -24 37 -7 40 -11 68 -80 20
-50 26 -77 19 -85 -5 -7 -13 -76 -17 -154 -8 -166 -11 -161 94 -147 l67 9 -4
98 -3 98 57 94 c31 51 62 98 69 104 10 8 26 -13 67 -87 51 -91 54 -102 59
-182 l5 -85 110 -7 c61 -5 210 -14 333 -22 l223 -13 73 -72 c41 -39 80 -71 87
-71 10 0 11 44 5 210 l-6 211 41 62 c74 111 65 110 126 15 l52 -82 -6 -528 -6
-528 1241 0 1242 0 0 1800 0 1800 -2400 0 -2400 0 0 -1422z m3059 596 c26 -21
31 -33 31 -68 0 -47 16 -104 34 -123 6 -7 50 -20 96 -29 80 -16 110 -28 110
-43 -1 -15 -60 -72 -70 -66 -5 3 -10 -1 -10 -9 0 -9 -5 -16 -11 -16 -5 0 2
-16 17 -35 30 -40 27 -55 -8 -31 -27 19 -45 21 -30 3 8 -10 6 -16 -9 -25 -11
-7 -17 -17 -14 -22 3 -6 -1 -7 -9 -4 -9 3 -16 1 -16 -5 0 -6 -7 -8 -17 -4 -14
6 -15 -1 -11 -60 3 -37 2 -70 -3 -73 -5 -3 -9 -10 -9 -16 0 -6 8 -4 18 5 26
23 144 77 170 77 12 0 22 -6 22 -14 0 -23 -29 -96 -50 -126 -11 -15 -20 -31
-20 -34 0 -3 65 -6 145 -6 131 0 172 -7 130 -24 -25 -9 -17 -22 25 -41 25 -11
39 -24 38 -33 -2 -11 14 -21 52 -33 54 -17 54 -24 0 -32 -24 -3 -24 -4 11 -21
19 -10 41 -27 47 -37 10 -16 9 -19 -7 -19 -11 0 -31 4 -45 10 -35 13 -35 -8 1
-51 l27 -32 -25 8 -24 8 20 -22 c18 -21 18 -23 2 -32 -24 -14 -4 -43 45 -65
42 -19 53 -39 13 -24 -20 7 -23 6 -18 -6 5 -13 1 -13 -33 1 -22 9 -45 19 -51
22 -16 6 -16 -2 -3 -27 6 -11 26 -22 45 -26 19 -3 35 -11 35 -16 0 -6 -10 -8
-22 -5 -81 19 -88 19 -82 3 4 -9 1 -16 -6 -16 -10 0 -10 -3 0 -15 19 -23 5
-30 -22 -11 -37 26 -51 21 -33 -14 21 -41 18 -50 -6 -20 -21 25 -68 60 -80 60
-11 0 -16 -47 -8 -63 6 -10 4 -17 -6 -21 -8 -3 -15 -12 -15 -20 0 -8 -5 -18
-11 -22 -9 -5 -10 1 -5 20 4 18 3 25 -4 21 -5 -3 -10 2 -10 13 0 21 -23 46
-33 36 -3 -3 -22 6 -41 21 l-36 27 0 -44 c0 -56 -34 -94 -75 -84 -29 7 -39 26
-56 114 -9 48 -18 68 -41 87 -52 44 -63 36 -95 -67 -23 -74 -33 -94 -49 -96
-28 -4 -55 29 -61 78 -4 28 -12 44 -27 52 -11 6 -25 17 -29 24 -17 30 -25 12
-12 -27 20 -56 6 -73 -15 -19 -12 30 -26 46 -48 56 -19 8 -34 9 -37 3 -12 -19
-27 4 -21 32 4 21 2 29 -9 29 -17 0 -35 30 -35 58 0 22 18 32 55 32 15 0 33
12 50 34 14 19 43 45 65 59 31 21 41 36 53 79 20 69 12 113 -23 138 -21 15
-29 31 -33 62 -3 24 -9 57 -12 74 -5 21 -1 40 12 62 15 25 18 42 13 87 -9 83
-24 92 -132 79 -39 -5 -48 -3 -48 9 0 9 -5 17 -12 19 -20 7 1 27 55 54 42 22
48 28 34 36 -27 15 -19 27 11 16 41 -16 94 22 118 85 11 27 35 67 55 88 44 48
82 52 128 13z"/>
<path d="M3540 1560 c8 -5 22 -10 30 -10 13 0 13 1 0 10 -8 5 -22 10 -30 10
-13 0 -13 -1 0 -10z"/>
</g>
</svg>
