<?xml version="1.0" standalone="no"?>
<!DOCTYPE svg PUBLIC "-//W3C//DTD SVG 20010904//EN"
 "http://www.w3.org/TR/2001/REC-SVG-20010904/DTD/svg10.dtd">
<svg version="1.0" xmlns="http://www.w3.org/2000/svg"
 width="480.000000pt" height="360.000000pt" viewBox="0 0 480.000000 360.000000"
 preserveAspectRatio="xMidYMid meet">
<metadata>
Created by potrace 1.16, written by Peter Selinger 2001-2019
</metadata>
<rect width="1" height="360" fill="#000000"/>
<rect x="479" width="1" height="360" fill="#000000"/>
<rect width="480" height="1" fill="#000000"/>
<rect y="359" width="480" height="1" fill="#000000"/>
<g transform="translate(0.000000,360.000000) scale(0.100000,-0.100000)"
fill="#000000" stroke="none">
<path d="M0 2170 l0 -1430 90 0 c85 0 91 1 99 23 11 29 16 236 7 259 -5 11 2
36 21 70 24 45 34 55 68 64 78 22 83 25 89 56 9 45 7 86 -4 93 -20 12 -9 26
34 46 44 19 64 52 46 74 -10 12 8 65 21 65 13 0 39 -49 29 -55 -11 -7 -13 -45
-4 -69 3 -8 21 -20 39 -26 l33 -11 -5 -73 c-5 -70 -5 -75 18 -87 13 -8 42 -18
63 -24 37 -9 42 -15 63 -70 15 -39 20 -62 13 -69 -6 -6 -9 -48 -8 -95 1 -56 3
-69 5 -37 3 38 15 64 54 122 27 41 52 74 54 74 3 0 25 -35 50 -77 40 -70 45
-84 45 -140 0 -57 2 -63 23 -67 20 -5 515 -26 597 -26 26 0 45 -12 101 -67
l69 -66 0 183 0 182 46 64 c25 35 48 64 52 64 4 0 26 -29 49 -64 l42 -65 -6
-495 -6 -496 1456 0 1457 0 0 1800 0 1800 -2400 0 -2400 0 0 -1430z m3265 518
c22 -26 26 -39 22 -71 -6 -47 18 -124 41 -131 9 -2 31 -7 47 -10 113 -20 145
-29 145 -41 0 -22 -59 -65 -91 -65 -36 0 -36 -6 -3 -32 19 -16 22 -23 13 -29
-11 -6 -9 -16 9 -47 28 -51 29 -71 2 -47 -11 10 -20 14 -20 9 0 -5 -4 -3 -9 5
-7 11 -13 5 -27 -25 -12 -28 -18 -34 -21 -21 -5 18 -23 24 -23 6 0 -5 -4 -7
-10 -4 -6 4 -10 -15 -10 -49 0 -30 -3 -63 -7 -73 -7 -17 -6 -17 17 0 32 23
139 74 175 83 l28 7 -7 -44 c-4 -24 -22 -69 -41 -101 -19 -31 -35 -64 -35 -74
0 -16 1 -16 19 0 16 14 36 16 157 11 76 -4 150 -6 164 -7 l24 0 -23 -18 c-30
-22 -21 -36 29 -51 36 -11 55 -29 30 -29 -5 0 -10 -4 -10 -9 0 -5 27 -14 60
-22 62 -14 67 -30 9 -31 l-33 -1 23 -16 c12 -9 37 -29 54 -44 25 -22 27 -27
12 -24 -71 17 -75 17 -75 3 0 -8 12 -29 27 -47 l27 -32 -25 8 c-23 7 -23 7 -6
-12 22 -26 22 -37 -2 -30 -35 9 19 -61 57 -74 17 -6 32 -15 32 -20 0 -12 -7
-11 -32 2 -18 10 -20 9 -15 -5 8 -20 7 -20 -43 0 -23 9 -43 15 -45 12 -11 -11
28 -48 51 -48 13 0 24 -5 24 -11 0 -7 -16 -9 -49 -4 -43 6 -49 4 -53 -13 -3
-11 -1 -25 5 -31 21 -21 -1 -22 -34 -2 -46 28 -52 26 -34 -9 23 -45 19 -45
-35 1 -28 23 -53 39 -57 35 -4 -3 -8 -23 -9 -44 0 -20 -7 -50 -14 -67 l-13
-30 -9 35 c-14 50 -23 65 -44 69 -10 2 -34 14 -54 27 -44 30 -57 30 -57 0 0
-68 -59 -114 -106 -83 -21 13 -27 28 -32 74 -10 83 -27 115 -69 138 -45 24
-45 24 -76 -91 -26 -94 -38 -111 -70 -94 -25 13 -40 49 -40 96 0 24 -5 36 -17
40 -35 11 -48 21 -51 43 -2 14 -11 21 -25 21 -16 0 -18 -3 -9 -12 7 -7 12 -23
12 -36 0 -22 -5 -19 -46 27 -48 54 -74 64 -74 31 0 -22 -1 -23 -24 -14 -11 4
-13 14 -9 35 4 22 2 29 -10 29 -33 0 -51 73 -21 84 24 9 70 7 100 -4 23 -9 29
-8 37 7 5 10 31 38 57 63 82 79 97 192 33 243 -13 10 -23 29 -23 42 0 14 -8
41 -17 60 -17 35 -16 39 1 83 24 60 22 124 -6 185 -23 49 -46 59 -86 38 -30
-15 -74 -23 -67 -11 3 5 1 10 -6 10 -22 0 25 42 67 60 57 25 60 35 18 59 -48
28 -34 45 15 18 33 -18 41 -19 55 -8 12 10 13 18 5 32 -13 25 -3 41 21 34 14
-4 26 5 49 39 41 59 67 76 117 76 35 0 47 -5 69 -32z"/>
<path d="M3020 1695 c-8 -9 -8 -15 -2 -15 12 0 26 19 19 26 -2 2 -10 -2 -17
-11z"/>
<path d="M3791 1434 c33 -18 55 -19 40 0 -6 7 -23 14 -38 14 l-26 0 24 -14z"/>
<path d="M712 770 c0 -14 2 -19 5 -12 2 6 2 18 0 25 -3 6 -5 1 -5 -13z"/>
</g>
</svg>
