<?xml version="1.0" standalone="no"?>
<!DOCTYPE svg PUBLIC "-//W3C//DTD SVG 20010904//EN"
 "http://www.w3.org/TR/2001/REC-SVG-20010904/DTD/svg10.dtd">
<svg version="1.0" xmlns="http://www.w3.org/2000/svg"
 width="480.000000pt" height="360.000000pt" viewBox="0 0 480.000000 360.000000"
 preserveAspectRatio="xMidYMid meet">
<metadata>
Created by potrace 1.16, written by Peter Selinger 2001-2019
</metadata>
<rect width="1" height="360" fill="#000000"/>
<rect x="479" width="1" height="360" fill="#000000"/>
<rect width="480" height="1" fill="#000000"/>
<rect y="359" width="480" height="1" fill="#000000"/>
<g transform="translate(0.000000,360.000000) scale(0.100000,-0.100000)"
fill="#000000" stroke="none">
<path d="M0 3229 l0 -371 69 135 c95 188 227 381 382 560 l41 47 -246 0 -246
0 0 -371z"/>
<path d="M4351 3553 c133 -143 265 -339 374 -556 41 -81 75 -140 75 -130 0 30
-150 379 -240 558 l-85 170 -84 3 -85 3 45 -48z"/>
<path d="M3430 2666 c-70 -20 -101 -40 -158 -100 -74 -78 -95 -131 -96 -236
-1 -75 3 -93 31 -152 35 -73 100 -145 158 -172 60 -29 159 -40 227 -26 149 32
262 166 274 325 6 80 -43 202 -110 273 -72 78 -222 118 -326 88z"/>
<path d="M1090 2559 c-175 -23 -316 -65 -450 -133 -276 -139 -471 -337 -614
-622 l-26 -52 0 -876 0 -876 175 0 175 0 -85 173 c-47 94 -91 181 -97 192 -19
33 -68 158 -64 162 2 2 38 -48 81 -112 88 -132 207 -288 278 -364 l48 -51
1893 0 1893 0 60 67 c151 172 289 376 387 570 l56 113 -2 582 -3 581 -44 -89
c-138 -277 -371 -507 -636 -629 -173 -79 -339 -115 -535 -115 -269 0 -467 58
-700 203 -198 124 -375 317 -462 504 -87 186 -232 376 -359 469 -14 10 -52 38
-83 62 -100 76 -297 170 -416 198 -36 8 -81 19 -100 24 -100 28 -248 35 -370
19z m313 -1002 c106 -48 168 -146 175 -273 4 -64 1 -79 -27 -136 -52 -111
-137 -166 -267 -175 -54 -4 -80 -1 -105 11 -17 9 -37 16 -44 16 -26 0 -96 74
-125 133 -71 145 -56 250 53 364 36 37 99 71 162 87 40 10 126 -3 178 -27z"/>
</g>
</svg>
