<?xml version="1.0" standalone="no"?>
<!DOCTYPE svg PUBLIC "-//W3C//DTD SVG 20010904//EN"
 "http://www.w3.org/TR/2001/REC-SVG-20010904/DTD/svg10.dtd">
<svg version="1.0" xmlns="http://www.w3.org/2000/svg"
 width="480.000000pt" height="360.000000pt" viewBox="0 0 480.000000 360.000000"
 preserveAspectRatio="xMidYMid meet">
<metadata>
Created by potrace 1.16, written by Peter Selinger 2001-2019
</metadata>
<rect width="1" height="360" fill="#000000"/>
<rect x="479" width="1" height="360" fill="#000000"/>
<rect width="480" height="1" fill="#000000"/>
<rect y="359" width="480" height="1" fill="#000000"/>
<g transform="translate(0.000000,360.000000) scale(0.100000,-0.100000)"
fill="#000000" stroke="none">
<path d="M0 2932 l0 -668 108 9 c251 20 661 -7 950 -62 102 -20 103 -20 135
-1 18 11 40 20 51 20 16 0 18 6 14 55 -3 30 -7 57 -9 59 -2 2 -29 -2 -59 -10
-63 -16 -130 -18 -130 -4 0 6 -12 10 -26 10 -26 0 -26 2 -21 46 6 54 51 124
148 228 l66 71 -8 62 c-5 33 -11 90 -13 125 -3 34 -8 77 -12 95 -11 53 13 124
62 186 50 64 186 177 213 177 10 0 32 13 49 30 66 63 263 140 358 140 61 0 97
-16 230 -100 85 -54 126 -75 135 -69 8 5 72 28 143 50 150 48 222 55 256 24
47 -43 7 -127 -129 -268 l-76 -78 80 -78 c44 -42 96 -90 115 -105 19 -15 25
-23 13 -17 -28 14 -36 14 -27 0 5 -9 -1 -10 -20 -5 -30 7 -31 7 -11 -41 8 -19
15 -56 15 -82 l-1 -46 -18 34 -18 34 -7 -44 c-9 -58 -25 -86 -26 -44 l-1 30
-14 -33 c-8 -18 -24 -47 -36 -63 -19 -27 -20 -33 -8 -56 7 -14 30 -33 51 -44
46 -24 47 -41 7 -87 -25 -28 -30 -40 -25 -67 5 -24 2 -36 -14 -50 -11 -10 -18
-25 -15 -33 3 -8 -3 -28 -14 -46 -11 -17 -24 -50 -30 -72 -6 -24 -21 -48 -35
-57 -19 -13 -24 -27 -29 -81 -3 -36 -13 -79 -21 -95 -17 -33 -61 -71 -82 -71
-36 0 -4 -21 104 -71 64 -29 184 -86 265 -126 81 -40 151 -73 156 -73 5 0 14
7 21 15 19 23 54 18 96 -16 22 -17 55 -37 74 -45 19 -8 46 -25 60 -38 14 -13
37 -26 51 -29 14 -4 42 -17 61 -31 20 -13 47 -27 59 -31 40 -12 59 -36 59 -74
1 -35 5 -39 127 -121 70 -47 169 -117 221 -157 91 -70 95 -72 138 -66 35 4 49
2 64 -12 11 -10 20 -24 20 -32 0 -8 11 -13 28 -13 35 0 70 -24 74 -52 3 -19
13 -27 58 -48 8 -4 20 -21 26 -38 5 -18 15 -37 22 -44 7 -7 12 -27 12 -46 0
-28 12 -47 71 -111 145 -154 291 -337 399 -498 l55 -82 108 -1 107 0 0 1800 0
1800 -2400 0 -2400 0 0 -668z"/>
<path d="M1250 2184 c0 -8 5 -12 10 -9 6 3 10 10 10 16 0 5 -4 9 -10 9 -5 0
-10 -7 -10 -16z"/>
<path d="M145 2014 c-22 -2 -64 -7 -92 -10 l-53 -5 0 -1000 0 -999 905 0 904
0 17 58 c16 53 16 68 0 238 -10 100 -30 243 -45 319 -27 131 -30 139 -64 169
-45 39 -71 81 -63 102 3 8 1 24 -5 35 -18 34 -19 59 -8 182 10 121 5 193 -12
166 -5 -8 -9 -27 -9 -42 0 -42 -20 -22 -21 21 l-1 37 -13 -30 c-14 -29 -14
-29 -15 30 0 37 -4 55 -9 47 -16 -25 -19 9 -11 123 4 61 7 110 6 111 -1 0 -30
6 -66 13 -166 33 -324 163 -359 298 -7 24 -19 44 -29 47 -50 15 -294 57 -412
71 -131 15 -464 27 -545 19z"/>
<path d="M2631 1293 c41 -78 52 -88 44 -38 -11 65 -14 71 -41 83 -14 7 -27 12
-29 12 -2 0 10 -26 26 -57z"/>
<path d="M2629 1232 c40 -83 58 -102 54 -56 -1 20 -36 72 -86 129 -5 6 10 -27
32 -73z"/>
<path d="M3144 978 l-31 -51 53 -54 c30 -29 54 -59 54 -65 0 -15 -43 -73 -93
-125 l-40 -42 25 -6 c28 -7 206 9 307 28 61 11 66 14 92 57 15 25 28 48 28 52
1 11 -345 258 -361 258 -2 0 -17 -23 -34 -52z"/>
<path d="M3851 454 c-11 -14 -42 -43 -70 -65 -30 -24 -51 -49 -51 -60 0 -55
-34 -163 -60 -192 l-28 -31 -63 13 c-35 7 -110 30 -167 52 -160 60 -288 81
-567 94 l-130 6 -48 -68 c-48 -66 -49 -69 -45 -130 2 -34 6 -65 9 -68 3 -3
380 -4 838 -3 l832 3 -104 131 c-105 130 -302 344 -317 344 -5 0 -18 -11 -29
-26z"/>
</g>
</svg>
