<?xml version="1.0" standalone="no"?>
<!DOCTYPE svg PUBLIC "-//W3C//DTD SVG 20010904//EN"
 "http://www.w3.org/TR/2001/REC-SVG-20010904/DTD/svg10.dtd">
<svg version="1.0" xmlns="http://www.w3.org/2000/svg"
 width="480.000000pt" height="360.000000pt" viewBox="0 0 480.000000 360.000000"
 preserveAspectRatio="xMidYMid meet">
<metadata>
Created by potrace 1.16, written by Peter Selinger 2001-2019
</metadata>
<rect width="1" height="360" fill="#000000"/>
<rect x="479" width="1" height="360" fill="#000000"/>
<rect width="480" height="1" fill="#000000"/>
<rect y="359" width="480" height="1" fill="#000000"/>
<g transform="translate(0.000000,360.000000) scale(0.100000,-0.100000)"
fill="#000000" stroke="none">
<path d="M0 1800 l0 -1800 299 0 299 0 97 115 c87 104 96 120 102 165 5 46 4
50 -15 50 -39 0 -63 91 -39 150 19 47 14 112 -18 216 -5 16 -2 23 14 27 17 4
21 13 21 44 0 75 12 114 36 123 16 6 26 22 34 52 6 24 15 56 20 72 6 16 10 69
10 118 0 103 9 126 73 185 36 33 54 42 98 48 67 9 290 62 298 71 3 4 -8 4 -26
1 -18 -4 -35 -2 -38 3 -5 8 -33 2 -85 -17 -8 -3 -40 -8 -70 -10 -30 -3 -76
-16 -101 -29 -61 -30 -96 -26 -186 27 -45 25 -79 39 -90 35 -17 -5 -37 -22
-117 -95 l-29 -26 7 29 c4 17 17 43 29 60 43 60 124 343 157 546 26 160 26
170 -2 170 -11 0 -71 20 -132 44 -61 25 -124 46 -141 48 -28 3 -30 6 -30 43 0
24 -12 63 -29 98 -35 70 -28 82 47 82 37 0 61 6 82 22 17 11 56 29 87 38 32 9
67 24 78 33 19 16 20 22 10 71 -18 96 18 294 75 412 49 103 137 195 230 242
39 19 153 45 238 52 l67 7 54 71 c29 40 65 83 80 96 25 24 26 24 47 5 21 -19
102 -123 118 -151 5 -10 40 -20 98 -29 172 -25 281 -82 402 -209 83 -88 122
-153 156 -257 37 -117 42 -190 16 -265 -12 -34 -21 -69 -21 -78 0 -19 52 -123
88 -178 l27 -40 -48 -41 -47 -42 9 -59 c5 -33 13 -92 16 -132 7 -68 10 -77 66
-153 32 -44 59 -83 59 -86 0 -3 -13 4 -30 16 -16 12 -30 19 -30 16 0 -3 16
-31 35 -63 19 -31 32 -59 30 -61 -3 -3 -23 7 -46 23 l-42 27 8 -28 c4 -16 8
-67 10 -114 4 -111 12 -139 46 -172 24 -22 29 -35 29 -72 0 -25 -4 -46 -10
-46 -5 0 -22 25 -36 55 -40 82 -42 82 -131 45 -43 -18 -80 -34 -81 -35 -2 -2
32 -21 75 -43 43 -22 88 -45 100 -53 27 -16 36 -84 17 -116 -12 -20 -10 -29
21 -90 19 -37 44 -108 55 -158 32 -137 25 -126 67 -109 53 23 67 13 42 -30
-33 -56 -51 -148 -37 -188 16 -47 87 -126 126 -140 40 -15 41 -34 2 -43 -21
-5 -35 -17 -46 -41 -16 -34 -16 -36 38 -192 l54 -157 1027 -3 1027 -2 0 1800
0 1800 -1896 0 c-1261 0 -1893 -3 -1889 -10 3 -5 -1 -10 -10 -10 -9 0 -13 5
-10 10 4 7 -163 10 -494 10 l-501 0 0 -1800z m4528 1495 c27 -60 3 -95 -35
-51 -35 41 -29 72 13 75 6 1 16 -10 22 -24z m-670 -587 c20 -20 13 -29 -20
-26 -40 4 -54 38 -16 38 13 0 29 -5 36 -12z m-1103 -613 c-40 -14 -61 -11 -35
5 8 6 29 10 45 9 29 0 29 0 -10 -14z m-5 -175 c0 -5 -4 -10 -10 -10 -5 0 -10
5 -10 10 0 6 5 10 10 10 6 0 10 -4 10 -10z m218 -727 c-4 -21 -36 -29 -51 -14
-9 9 -8 14 3 21 25 16 52 12 48 -7z"/>
</g>
</svg>
