<?xml version="1.0" standalone="no"?>
<!DOCTYPE svg PUBLIC "-//W3C//DTD SVG 20010904//EN"
 "http://www.w3.org/TR/2001/REC-SVG-20010904/DTD/svg10.dtd">
<svg version="1.0" xmlns="http://www.w3.org/2000/svg"
 width="480.000000pt" height="360.000000pt" viewBox="0 0 480.000000 360.000000"
 preserveAspectRatio="xMidYMid meet">
<metadata>
Created by potrace 1.16, written by Peter Selinger 2001-2019
</metadata>
<rect width="1" height="360" fill="#000000"/>
<rect x="479" width="1" height="360" fill="#000000"/>
<rect width="480" height="1" fill="#000000"/>
<rect y="359" width="480" height="1" fill="#000000"/>
<g transform="translate(0.000000,360.000000) scale(0.100000,-0.100000)"
fill="#000000" stroke="none">
<path d="M1070 1800 l0 -1800 1865 0 1865 0 0 1800 0 1800 -1865 0 -1865 0 0
-1800z m1922 438 c3 -8 18 -12 39 -10 52 4 64 -9 45 -46 -25 -48 -21 -66 20
-81 33 -12 41 -11 96 14 54 25 64 26 105 16 75 -19 135 -56 193 -118 30 -32
71 -71 90 -85 38 -29 38 -35 0 -38 -48 -4 -60 0 -98 34 -58 53 -82 52 -111 -4
l-21 -40 39 -25 c41 -25 77 -68 105 -122 10 -21 28 -35 52 -43 24 -8 34 -17
30 -26 -4 -9 2 -14 17 -14 25 0 58 -41 38 -48 -8 -3 -8 -9 -1 -23 9 -16 7 -19
-9 -19 -31 0 -41 -31 -33 -96 l7 -59 55 -12 c30 -7 96 -17 147 -24 90 -11 92
-12 90 -38 -2 -14 -7 -26 -13 -26 -6 0 -18 -8 -28 -17 -9 -9 -22 -15 -29 -13
-7 2 -43 12 -82 21 -38 9 -89 25 -113 35 -26 12 -54 16 -68 13 l-25 -6 22 -24
c13 -14 48 -37 78 -52 l56 -27 270 -1 c176 -1 280 -5 298 -13 16 -6 41 -11 57
-11 35 0 46 -15 28 -37 -11 -14 -10 -16 15 -11 28 5 46 -5 27 -17 -18 -11 -10
-35 16 -45 14 -6 22 -14 19 -20 -4 -6 6 -10 24 -10 24 0 29 -3 24 -17 -5 -13
-2 -15 11 -10 14 6 16 3 11 -13 -5 -16 -2 -20 16 -20 21 0 22 -1 4 -20 -17
-18 -17 -21 -2 -38 14 -15 14 -22 3 -43 -7 -13 -10 -31 -8 -38 3 -8 -3 -20
-14 -28 -10 -7 -14 -13 -8 -14 5 -1 -2 -4 -16 -8 -16 -5 -33 -2 -48 7 -14 9
-27 12 -30 6 -4 -5 -19 -15 -34 -23 -15 -8 -24 -19 -21 -24 4 -6 0 -8 -10 -4
-10 3 -24 4 -32 1 -12 -5 -10 -10 8 -26 20 -18 20 -19 2 -13 -11 4 -30 9 -42
10 -12 2 -32 10 -45 19 -39 28 -50 17 -16 -15 33 -31 33 -31 4 -14 -16 10 -48
32 -71 49 -28 22 -91 48 -191 81 -82 26 -179 63 -215 82 -44 23 -78 33 -105
33 -21 -1 -59 1 -84 5 l-45 7 3 -80 c4 -74 2 -81 -17 -92 -32 -16 -58 -4 -73
36 -14 38 -24 43 -33 15 -8 -26 -42 -36 -61 -20 -15 13 -14 55 3 126 4 19 1
23 -20 23 -13 0 -30 6 -36 14 -7 8 -40 17 -74 21 -119 12 -175 27 -197 50 -18
19 -20 27 -10 45 14 27 -7 55 -48 64 -15 3 -135 30 -267 60 -132 31 -244 56
-248 56 -37 0 120 -80 216 -110 39 -12 42 -16 28 -39 -6 -9 -18 -11 -42 -6
-42 9 -195 82 -269 130 -56 35 -80 43 -80 25 0 -5 -9 -10 -19 -10 -11 0 -21
-6 -24 -12 -7 -22 -46 21 -49 55 -3 29 -7 31 -76 50 -60 16 -75 24 -87 48 -20
37 -19 69 1 69 9 0 42 -6 73 -14 31 -8 73 -17 94 -20 21 -3 51 -13 66 -20 42
-22 640 -168 654 -160 26 16 104 80 150 123 41 39 47 51 47 85 0 22 -5 54 -11
71 -10 27 -8 41 14 96 29 74 27 116 -8 125 -25 6 -56 85 -36 92 16 5 13 22 -4
22 -9 0 -20 12 -26 27 -5 15 -29 50 -53 78 -67 78 -94 146 -63 158 7 3 21 -1
32 -9 29 -21 35 -17 23 16 -5 17 -7 37 -4 45 7 18 33 20 38 3z"/>
<path d="M3170 1483 c0 -35 -35 -83 -92 -123 -57 -41 -71 -60 -44 -60 8 0 51
19 96 41 96 49 112 71 84 120 -22 38 -44 49 -44 22z"/>
<path d="M3 1830 c0 -25 2 -35 4 -22 2 12 2 32 0 45 -2 12 -4 2 -4 -23z"/>
</g>
</svg>
