<?xml version="1.0" standalone="no"?>
<!DOCTYPE svg PUBLIC "-//W3C//DTD SVG 20010904//EN"
 "http://www.w3.org/TR/2001/REC-SVG-20010904/DTD/svg10.dtd">
<svg version="1.0" xmlns="http://www.w3.org/2000/svg"
 width="480.000000pt" height="360.000000pt" viewBox="0 0 480.000000 360.000000"
 preserveAspectRatio="xMidYMid meet">
<metadata>
Created by potrace 1.16, written by Peter Selinger 2001-2019
</metadata>
<rect width="1" height="360" fill="#000000"/>
<rect x="479" width="1" height="360" fill="#000000"/>
<rect width="480" height="1" fill="#000000"/>
<rect y="359" width="480" height="1" fill="#000000"/>
<g transform="translate(0.000000,360.000000) scale(0.100000,-0.100000)"
fill="#000000" stroke="none">
<path d="M1421 3566 c-39 -41 -41 -36 65 -173 85 -109 143 -173 158 -173 5 0
17 7 27 16 26 24 41 9 33 -34 -7 -35 -6 -36 11 -22 17 14 17 13 7 -6 -12 -23
-86 -93 -125 -119 -15 -9 -27 -21 -27 -26 0 -15 44 -20 90 -10 24 5 46 9 47 8
3 -3 -15 -133 -22 -164 -8 -35 9 -27 40 17 15 22 31 40 34 40 4 0 14 -30 23
-67 9 -38 22 -81 28 -98 l12 -30 10 25 c10 23 12 20 23 -35 11 -55 13 -58 22
-35 10 24 10 24 23 -15 18 -58 28 -63 35 -19 12 71 18 70 39 -13 25 -99 36
-113 36 -48 0 50 15 53 22 5 l5 -25 11 25 c8 18 11 20 11 8 1 -10 7 -17 13
-15 9 1 12 -14 9 -55 -4 -72 12 -76 36 -8 16 44 33 66 33 41 0 -5 9 -11 19
-14 17 -4 21 1 24 32 2 25 4 18 5 -22 l2 -59 -29 7 c-39 8 -43 -2 -25 -61 8
-26 12 -54 10 -60 -3 -7 -49 -26 -103 -44 -142 -47 -239 -94 -299 -145 -28
-25 -55 -45 -58 -45 -3 0 -33 47 -67 105 -34 57 -70 112 -80 121 -16 14 -28
14 -151 -2 -268 -35 -456 -15 -618 66 -47 23 -135 73 -196 110 -127 78 -492
260 -521 260 -10 0 -29 -7 -41 -16 -20 -13 -22 -24 -22 -95 l0 -79 23 15 c22
14 28 12 107 -35 46 -27 87 -50 92 -50 4 0 8 -19 8 -43 0 -33 -6 -49 -24 -66
-18 -17 -28 -45 -41 -117 l-18 -94 46 -103 c109 -241 239 -513 253 -527 35
-36 41 3 64 446 l12 231 -47 81 c-26 45 -60 93 -77 106 -46 36 -28 48 37 26
66 -23 127 -58 201 -116 49 -38 57 -48 59 -81 2 -31 -3 -44 -27 -69 -23 -25
-35 -53 -53 -129 l-23 -97 90 -232 c50 -127 103 -267 119 -311 32 -85 54 -125
69 -125 19 0 29 43 45 190 9 80 23 201 31 270 30 262 31 245 -16 335 -23 44
-56 93 -74 109 l-31 28 185 -6 c102 -3 204 -8 227 -12 60 -9 62 -34 7 -87 -36
-35 -48 -57 -73 -134 l-29 -93 59 -192 c33 -106 80 -260 106 -342 41 -130 45
-154 36 -185 -6 -20 -27 -92 -47 -161 -20 -68 -48 -180 -62 -249 -14 -69 -26
-126 -27 -127 -1 0 -36 -18 -77 -39 -41 -20 -210 -122 -375 -225 -165 -103
-319 -197 -342 -209 l-42 -21 -30 43 c-32 47 -89 102 -138 136 -18 12 -48 48
-66 78 -24 42 -44 63 -77 80 -25 12 -48 23 -52 23 -5 0 -8 -121 -8 -270 l0
-270 444 0 444 0 169 98 c295 172 361 224 427 337 32 54 115 267 181 462 27
79 50 141 52 139 2 -2 -1 -44 -8 -95 -9 -69 -9 -120 0 -213 9 -97 9 -161 -2
-303 -8 -99 -13 -207 -12 -239 2 -47 -3 -72 -26 -120 l-29 -61 380 -3 c209 -1
551 -1 760 0 l379 3 -30 60 c-40 78 -53 145 -32 160 14 10 13 24 -2 131 -19
124 -23 307 -11 408 4 32 11 54 15 50 4 -5 29 -70 55 -144 119 -334 148 -363
594 -604 l123 -66 465 0 464 0 0 195 c0 127 -4 203 -12 220 -9 19 -9 28 0 37
7 7 12 40 12 76 l0 64 -27 -7 c-71 -17 -107 -48 -143 -122 -26 -53 -52 -87
-101 -132 -36 -33 -73 -77 -84 -100 -10 -23 -22 -41 -28 -41 -14 0 -217 113
-459 256 -117 69 -261 148 -319 177 l-106 52 -18 110 c-18 118 -65 312 -89
369 l-14 34 -69 -4 c-127 -7 -301 -24 -317 -30 -9 -3 -16 -3 -16 1 0 19 95
123 203 223 24 23 63 42 122 59 11 4 22 9 25 13 3 4 35 17 72 29 36 12 71 27
76 34 5 7 33 86 61 177 29 91 59 186 67 212 9 26 13 52 9 58 -6 10 22 160 32
170 2 3 2 -22 -2 -55 l-6 -60 21 25 c50 62 59 76 64 114 4 23 17 59 29 81 l23
40 79 2 c68 3 77 1 63 -10 -33 -26 -118 -187 -118 -223 0 -71 41 -427 51 -446
10 -18 17 -19 72 -13 34 4 67 12 74 18 6 7 39 77 73 157 34 80 72 170 85 201
l24 55 -20 99 c-17 88 -24 104 -55 136 -31 32 -34 40 -24 58 6 12 9 25 6 29
-8 13 5 25 84 85 65 49 203 117 240 117 19 0 10 -18 -18 -39 -16 -11 -51 -55
-78 -98 l-49 -78 3 -125 c6 -242 20 -515 27 -532 10 -26 31 -22 53 10 11 15
81 150 157 301 l137 275 -16 99 c-12 79 -20 106 -39 126 -19 20 -24 35 -22 64
2 36 6 41 66 74 35 20 76 44 91 55 16 11 32 16 38 13 6 -4 10 24 10 78 0 83
-1 85 -26 91 -19 5 -37 0 -63 -17 -20 -13 -110 -60 -201 -104 -91 -45 -214
-111 -275 -148 -60 -37 -148 -86 -195 -110 -82 -41 -189 -79 -198 -71 -2 2 -1
29 3 60 l7 55 19 -22 c19 -22 19 -22 13 43 -8 96 -33 287 -46 353 -9 50 -9 60
7 77 15 17 16 25 6 64 -6 25 -11 75 -11 112 0 63 2 70 41 122 60 79 105 185
114 265 l7 67 -1274 0 -1274 0 -33 -34z m1999 -444 c0 -48 -7 -146 -15 -218
-19 -174 -20 -362 -2 -444 8 -36 13 -67 11 -69 -3 -3 -37 1 -76 7 -91 16 -101
10 -166 -105 -28 -49 -65 -108 -82 -132 l-31 -43 -57 54 c-70 66 -154 114
-290 163 l-104 38 5 36 c2 20 9 50 16 66 6 17 17 53 24 80 12 49 13 47 9 -55
-3 -96 -2 -103 13 -86 8 11 15 23 15 27 0 4 9 9 20 12 11 3 32 31 52 71 18 36
35 66 39 66 3 0 9 -28 12 -63 3 -34 13 -76 21 -92 9 -17 16 -46 17 -65 1 -58
17 -5 19 65 4 118 18 125 20 10 2 -118 9 -115 30 13 6 39 16 72 21 72 5 0 9
-7 9 -15 0 -8 6 -15 13 -15 6 0 20 28 30 62 14 45 21 58 28 47 5 -7 9 -22 9
-32 0 -28 18 -11 45 44 14 27 27 49 29 49 2 0 19 -25 37 -55 34 -57 55 -72 46
-32 -12 48 -19 187 -10 187 5 0 35 -5 67 -11 76 -14 93 0 40 34 -38 24 -39 26
-42 90 -3 62 -1 68 41 133 24 38 60 99 81 137 21 37 42 65 47 61 5 -3 9 -44 9
-92z m-1246 -218 c8 -21 8 -24 -3 -24 -5 0 -11 9 -14 20 -6 24 8 27 17 4z m75
-39 c26 -19 73 -46 105 -61 31 -14 56 -29 56 -33 0 -4 21 -13 48 -19 47 -11
47 -11 -26 -8 -57 3 -85 10 -135 35 -76 38 -100 56 -95 71 2 7 22 -4 48 -24
43 -34 136 -74 147 -63 3 3 -15 11 -39 18 -43 13 -88 39 -120 71 -10 10 -25
18 -33 18 -8 0 -15 7 -15 15 0 21 4 20 59 -20z m356 -316 c8 -34 8 -34 -22
-43 -26 -8 -27 -5 -11 41 15 41 24 42 33 2z m763 -343 c8 -19 7 -27 -7 -42
-10 -11 -35 -57 -56 -104 -21 -47 -40 -87 -41 -89 -2 -2 -17 8 -34 23 -17 14
-36 26 -41 26 -18 0 -8 22 34 72 71 86 119 138 127 138 4 0 12 -11 18 -24z
m-1839 -83 c39 -47 71 -88 71 -92 0 -16 -71 -74 -79 -65 -5 5 -23 43 -41 84
-17 41 -40 84 -51 96 -16 17 -17 24 -7 46 7 14 18 24 24 21 7 -3 44 -43 83
-90z"/>
<path d="M0 2063 l0 -313 31 -50 c17 -28 40 -55 50 -61 36 -19 36 -17 9 449
-11 180 -15 198 -65 257 l-25 30 0 -312z"/>
<path d="M4771 2334 c-12 -15 -21 -35 -21 -46 0 -10 -7 -112 -16 -226 -21
-268 -23 -374 -7 -379 7 -3 26 10 43 28 l30 33 0 308 c0 170 -2 308 -4 308 -3
0 -14 -12 -25 -26z"/>
</g>
</svg>
