<?xml version="1.0" standalone="no"?>
<!DOCTYPE svg PUBLIC "-//W3C//DTD SVG 20010904//EN"
 "http://www.w3.org/TR/2001/REC-SVG-20010904/DTD/svg10.dtd">
<svg version="1.0" xmlns="http://www.w3.org/2000/svg"
 width="480.000000pt" height="360.000000pt" viewBox="0 0 480.000000 360.000000"
 preserveAspectRatio="xMidYMid meet">
<metadata>
Created by potrace 1.16, written by Peter Selinger 2001-2019
</metadata>
<rect width="1" height="360" fill="#000000"/>
<rect x="479" width="1" height="360" fill="#000000"/>
<rect width="480" height="1" fill="#000000"/>
<rect y="359" width="480" height="1" fill="#000000"/>
<g transform="translate(0.000000,360.000000) scale(0.100000,-0.100000)"
fill="#000000" stroke="none">
<path d="M0 2959 c0 -565 2 -640 15 -635 8 3 54 13 102 23 108 21 461 24 628
5 161 -19 381 -59 527 -96 l129 -34 13 27 c20 38 55 67 108 91 43 19 46 23 50
63 3 23 3 45 1 50 -2 4 -33 7 -68 7 -35 0 -67 5 -70 10 -3 6 -14 10 -24 10
-10 0 -24 7 -31 15 -29 35 48 128 181 218 l77 52 22 114 c12 63 24 140 27 170
8 74 31 119 94 175 54 48 196 125 239 129 14 2 40 10 57 20 67 36 213 67 313
67 146 0 156 -5 294 -139 120 -117 121 -118 156 -109 19 5 98 11 175 14 123 5
144 3 175 -13 27 -14 36 -25 38 -50 3 -27 -4 -40 -42 -78 -42 -41 -145 -113
-226 -158 l-32 -17 23 -36 c38 -62 129 -229 129 -237 0 -5 -13 1 -30 13 -16
12 -30 18 -31 13 0 -4 0 -30 1 -58 0 -27 -6 -70 -14 -95 -12 -38 -14 -40 -15
-17 -1 37 -21 34 -50 -10 -17 -26 -25 -32 -31 -23 -6 10 -17 3 -44 -25 -20
-21 -36 -45 -36 -54 0 -19 26 -59 54 -82 25 -21 16 -44 -29 -70 -21 -13 -37
-31 -41 -48 -10 -46 -14 -53 -32 -58 -21 -5 -38 -58 -47 -148 -8 -71 -37 -160
-62 -188 -10 -11 -35 -27 -56 -37 l-37 -17 52 -28 c69 -37 203 -116 301 -176
79 -50 101 -57 112 -39 3 5 21 10 39 10 24 0 41 -9 67 -36 18 -20 53 -44 76
-54 23 -10 47 -28 53 -39 6 -12 27 -28 46 -36 20 -8 50 -26 68 -41 17 -14 47
-35 66 -48 29 -18 36 -29 40 -63 5 -40 12 -47 120 -134 63 -51 149 -123 191
-161 59 -53 82 -68 100 -65 34 6 68 -9 78 -35 5 -15 21 -25 52 -32 37 -9 45
-16 53 -43 7 -23 19 -35 48 -46 30 -12 38 -21 38 -40 0 -13 9 -36 21 -50 15
-20 18 -35 14 -59 -5 -30 1 -41 60 -113 73 -89 193 -252 244 -332 l33 -53 124
0 124 0 0 1800 0 1800 -2400 0 -2400 0 0 -641z"/>
<path d="M225 2104 c-60 -9 -180 -37 -202 -47 l-23 -10 0 -1024 0 -1023 965 0
965 0 0 73 c0 81 -27 635 -35 712 -2 28 -7 140 -11 250 -3 110 -10 207 -15
215 -7 13 -8 12 -9 -2 0 -11 -8 -18 -19 -18 -10 0 -21 -9 -24 -20 -7 -27 -27
-26 -27 2 0 63 34 312 51 369 10 36 19 69 19 73 0 3 -24 6 -52 6 -38 0 -70 8
-113 29 -74 35 -210 151 -232 196 -14 30 -26 38 -92 59 -314 101 -629 156
-926 161 -104 2 -203 1 -220 -1z"/>
<path d="M2791 1259 c7 -13 12 -27 11 -32 -1 -4 12 -35 29 -68 38 -77 51 -109
41 -109 -4 0 -15 12 -25 28 -18 27 -18 27 -11 2 17 -61 24 -74 37 -61 8 8 11
43 10 104 -3 99 -3 99 -76 142 l-29 17 13 -23z"/>
<path d="M3343 823 l-33 -47 55 -57 c30 -32 55 -62 55 -68 0 -6 -30 -42 -66
-81 -37 -39 -65 -72 -63 -75 9 -8 138 -9 232 -1 l98 8 34 51 c19 29 35 55 35
59 0 16 -288 258 -307 258 -4 0 -23 -21 -40 -47z"/>
<path d="M4004 272 c-7 -10 -34 -33 -62 -52 -48 -33 -52 -39 -66 -102 -9 -36
-20 -78 -26 -92 l-10 -26 206 0 c161 0 204 3 198 13 -25 41 -210 269 -223 275
-3 1 -11 -6 -17 -16z"/>
<path d="M2866 75 l-56 -75 367 1 368 1 -54 24 c-89 41 -210 71 -367 94 -82
11 -161 22 -176 25 -23 4 -33 -5 -82 -70z"/>
</g>
</svg>
