<?xml version="1.0" standalone="no"?>
<!DOCTYPE svg PUBLIC "-//W3C//DTD SVG 20010904//EN"
 "http://www.w3.org/TR/2001/REC-SVG-20010904/DTD/svg10.dtd">
<svg version="1.0" xmlns="http://www.w3.org/2000/svg"
 width="480.000000pt" height="360.000000pt" viewBox="0 0 480.000000 360.000000"
 preserveAspectRatio="xMidYMid meet">
<metadata>
Created by potrace 1.16, written by Peter Selinger 2001-2019
</metadata>
<rect width="1" height="360" fill="#000000"/>
<rect x="479" width="1" height="360" fill="#000000"/>
<rect width="480" height="1" fill="#000000"/>
<rect y="359" width="480" height="1" fill="#000000"/>
<g transform="translate(0.000000,360.000000) scale(0.100000,-0.100000)"
fill="#000000" stroke="none">
<path d="M376 3584 c-10 -27 -7 -129 8 -236 8 -57 18 -159 21 -228 4 -69 11
-147 17 -173 6 -30 7 -52 1 -58 -5 -5 -38 -14 -73 -20 -36 -6 -70 -15 -76 -20
-18 -15 -23 -56 -9 -77 7 -9 16 -44 20 -77 9 -85 14 -105 26 -105 6 0 8 7 5
16 -5 12 -1 14 16 8 17 -5 20 -3 15 10 -4 9 -1 16 5 16 7 0 6 5 -2 15 -10 12
-10 15 1 15 9 0 10 3 2 11 -16 16 4 67 29 75 11 3 21 4 24 2 2 -3 -1 -29 -8
-59 -15 -72 -8 -95 50 -161 73 -83 100 -123 78 -115 -9 4 -27 0 -41 -9 -14 -9
-63 -18 -126 -24 -121 -9 -154 -20 -192 -62 -44 -47 -34 -67 46 -94 37 -13 81
-34 97 -48 17 -13 39 -27 50 -31 13 -4 24 -24 36 -65 20 -72 67 -130 129 -159
62 -29 84 -27 146 18 74 52 113 71 149 71 16 0 30 4 30 9 0 11 -78 31 -123 31
-18 0 -41 6 -50 13 -15 11 -16 17 -4 57 l13 45 109 22 c59 12 114 28 121 35
27 26 3 71 -53 99 l-51 26 23 40 c12 22 53 78 91 125 56 70 74 102 97 169 15
46 27 101 27 121 0 20 5 49 10 64 6 15 7 30 2 33 -5 3 -12 15 -16 26 -8 19 -9
19 -19 -5 -15 -35 -16 -36 -31 -15 -7 10 -11 27 -8 37 5 22 -16 25 -24 3 -4
-8 -10 -13 -14 -10 -5 3 -22 -23 -39 -58 -17 -36 -37 -70 -46 -77 -13 -11 -13
-7 0 36 14 46 21 109 8 74 -3 -8 -28 -62 -56 -120 -44 -90 -52 -101 -55 -76
-3 27 -5 26 -27 -22 -13 -28 -34 -79 -46 -113 -13 -34 -25 -57 -27 -51 -8 24
58 297 89 370 17 40 18 47 5 61 -13 14 -12 23 9 75 33 82 77 145 190 271 126
141 164 200 162 249 l-2 36 -366 0 c-325 0 -368 -2 -373 -16z"/>
<path d="M2500 1800 l0 -1800 789 0 c479 0 792 4 796 9 3 5 12 63 20 128 9 65
27 159 41 210 24 85 25 133 4 133 -5 0 -41 -16 -81 -35 -81 -39 -126 -45 -136
-18 -10 24 -9 112 1 152 9 38 -9 36 -24 -3 -7 -18 -9 -16 -15 17 l-7 38 -24
-22 c-24 -22 -24 -22 -24 -2 0 11 7 40 16 64 9 24 18 54 19 67 2 13 8 29 14
36 6 7 16 37 22 67 16 73 36 111 112 201 67 79 109 161 111 214 2 30 17 52 94
130 17 18 32 37 32 43 0 6 14 21 31 33 29 21 68 26 94 10 5 -3 28 -6 51 -7 22
0 53 -9 68 -19 24 -15 27 -22 22 -52 -5 -22 -1 -44 9 -63 29 -58 10 -131 -35
-131 -7 0 -32 -21 -55 -46 -24 -25 -48 -43 -54 -40 -5 4 -12 2 -15 -3 -6 -9
52 -71 66 -71 9 0 62 -79 93 -139 26 -49 68 -101 83 -101 20 0 62 50 62 75 0
14 -4 25 -9 25 -6 0 -8 12 -7 28 2 15 4 33 5 40 1 10 6 10 21 2 16 -9 20 -8
20 5 0 8 4 15 9 15 11 0 35 -104 28 -123 -2 -6 4 -30 14 -52 21 -44 24 -110 9
-150 -21 -56 -184 -185 -234 -185 -13 0 -16 -12 -16 -71 0 -61 9 -97 58 -240
l57 -169 83 0 82 0 0 1800 0 1800 -1150 0 -1150 0 0 -1800z"/>
<path d="M4277 821 c-9 -27 -17 -66 -17 -87 0 -35 1 -37 16 -22 9 9 17 35 19
59 1 24 5 56 10 72 13 47 -9 29 -28 -22z"/>
</g>
</svg>
