<?xml version="1.0" standalone="no"?>
<!DOCTYPE svg PUBLIC "-//W3C//DTD SVG 20010904//EN"
 "http://www.w3.org/TR/2001/REC-SVG-20010904/DTD/svg10.dtd">
<svg version="1.0" xmlns="http://www.w3.org/2000/svg"
 width="480.000000pt" height="360.000000pt" viewBox="0 0 480.000000 360.000000"
 preserveAspectRatio="xMidYMid meet">
<metadata>
Created by potrace 1.16, written by Peter Selinger 2001-2019
</metadata>
<rect width="1" height="360" fill="#000000"/>
<rect x="479" width="1" height="360" fill="#000000"/>
<rect width="480" height="1" fill="#000000"/>
<rect y="359" width="480" height="1" fill="#000000"/>
<g transform="translate(0.000000,360.000000) scale(0.100000,-0.100000)"
fill="#000000" stroke="none">
<path d="M2237 3594 c-4 -4 -7 -26 -7 -48 0 -25 -12 -66 -31 -106 -42 -87 -49
-174 -21 -248 20 -52 20 -54 2 -120 -10 -37 -31 -101 -46 -142 -15 -41 -32
-100 -39 -130 -14 -70 -39 -78 -79 -25 -15 19 -44 44 -65 55 -34 17 -39 25
-46 66 -10 69 -57 114 -118 114 -37 0 -49 -5 -66 -26 -26 -34 -27 -47 -1 -39
11 3 20 5 20 3 0 -2 9 -30 21 -63 17 -50 18 -62 8 -82 -12 -22 -10 -26 14 -46
33 -28 48 -67 35 -91 -6 -10 -8 -34 -5 -53 5 -30 0 -42 -37 -88 -44 -53 -73
-116 -61 -134 3 -6 -8 -40 -24 -76 -25 -55 -29 -72 -22 -108 8 -39 9 -41 18
-18 9 23 11 21 22 -24 9 -37 25 -61 64 -100 40 -40 52 -46 55 -32 2 9 6 17 9
17 5 0 49 -31 82 -57 2 -2 -10 -21 -28 -43 -36 -44 -32 -63 13 -74 15 -4 28
-17 34 -35 6 -16 20 -32 31 -36 12 -3 21 -11 21 -16 0 -5 25 -34 56 -66 31
-31 63 -72 71 -90 14 -34 13 -35 -21 -73 -19 -21 -42 -54 -52 -72 -9 -18 -27
-44 -39 -58 -37 -40 -78 -155 -72 -203 3 -29 -4 -66 -21 -117 -21 -61 -26 -95
-26 -183 l-1 -108 -45 3 c-53 4 -53 6 -14 98 22 52 28 80 28 140 -1 94 -15
145 -59 207 -19 26 -42 58 -51 71 -15 21 -15 26 6 82 19 50 20 63 9 76 -17 21
-89 57 -97 49 -4 -4 -23 -27 -42 -53 l-35 -46 -120 0 c-113 -1 -124 -3 -179
-31 -73 -37 -152 -113 -180 -174 -15 -33 -21 -70 -23 -134 -3 -112 -20 -138
-116 -172 -173 -60 -292 -203 -333 -398 -45 -214 112 -440 364 -522 40 -13 78
-16 165 -13 99 3 119 7 172 32 87 43 184 144 236 248 39 76 43 91 48 183 l6
100 22 -52 c12 -30 28 -53 37 -53 8 0 21 -20 31 -49 17 -51 38 -69 60 -51 11
9 10 21 -1 62 -7 28 -11 55 -8 59 2 4 17 3 33 -2 40 -14 52 -71 22 -103 -18
-19 -21 -35 -21 -102 0 -76 2 -81 25 -94 37 -20 35 -73 -4 -106 -16 -13 -31
-35 -33 -49 l-5 -25 679 0 679 0 21 48 c11 26 29 67 39 92 11 27 18 37 19 25
0 -38 19 -45 48 -16 l26 26 9 -35 9 -35 10 25 11 25 7 -25 c5 -14 8 -22 9 -18
1 4 12 49 24 100 33 129 25 204 -34 308 -23 41 -50 89 -59 105 -9 17 -27 48
-41 70 -13 22 -22 49 -21 60 1 11 -9 54 -23 95 -23 70 -24 73 -4 50 l21 -25
-7 75 c-9 111 -41 235 -106 412 -38 102 -64 192 -74 254 -35 218 -128 582
-180 706 -8 20 -12 44 -9 52 3 9 -1 23 -11 32 -28 28 -8 27 29 -1 19 -15 43
-25 53 -23 35 7 14 213 -33 315 -8 17 -14 34 -14 39 0 12 -61 106 -102 156
-62 75 -93 90 -196 90 -65 1 -97 -4 -122 -17 -19 -10 -37 -21 -40 -26 -3 -4
-4 61 -2 144 3 127 7 157 23 185 10 18 24 54 30 80 6 26 25 71 41 101 24 43
27 56 16 62 -17 11 -15 11 -72 -6 -27 -8 -53 -15 -57 -15 -4 0 -9 24 -11 53
l-3 52 -60 3 c-34 2 -64 0 -68 -4z m534 -3113 l56 -74 -18 -36 c-10 -20 -25
-67 -35 -104 -10 -37 -22 -67 -26 -67 -4 0 -12 18 -18 39 -6 22 -16 41 -22 43
-14 5 -26 124 -27 248 0 74 0 75 17 50 9 -14 42 -58 73 -99z m-800 39 c4 -14
7 -73 8 -131 1 -83 -2 -109 -14 -119 -8 -7 -15 -24 -15 -39 -1 -27 -59 -108
-60 -82 0 8 9 25 21 37 36 38 24 204 -15 204 -14 0 -18 7 -30 63 -6 25 -3 30
24 40 22 8 30 18 30 35 0 33 42 27 51 -8z m-116 -190 c5 -8 11 -8 19 -1 20 17
26 2 26 -58 -1 -49 -2 -54 -14 -38 -12 16 -15 16 -27 1 -12 -15 -14 -14 -20 3
-19 48 -5 127 16 93z m87 -205 c-5 -31 -22 -44 -22 -18 0 15 17 43 26 43 1 0
-1 -11 -4 -25z m1186 -59 c2 -10 -1 -23 -7 -29 -15 -15 -46 16 -37 38 8 21 40
15 44 -9z"/>
</g>
</svg>
