<?xml version="1.0" standalone="no"?>
<!DOCTYPE svg PUBLIC "-//W3C//DTD SVG 20010904//EN"
 "http://www.w3.org/TR/2001/REC-SVG-20010904/DTD/svg10.dtd">
<svg version="1.0" xmlns="http://www.w3.org/2000/svg"
 width="480.000000pt" height="360.000000pt" viewBox="0 0 480.000000 360.000000"
 preserveAspectRatio="xMidYMid meet">
<metadata>
Created by potrace 1.16, written by Peter Selinger 2001-2019
</metadata>
<rect width="1" height="360" fill="#000000"/>
<rect x="479" width="1" height="360" fill="#000000"/>
<rect width="480" height="1" fill="#000000"/>
<rect y="359" width="480" height="1" fill="#000000"/>
<g transform="translate(0.000000,360.000000) scale(0.100000,-0.100000)"
fill="#000000" stroke="none">
<path d="M2295 3284 c-46 -24 -63 -43 -80 -88 -13 -33 -24 -45 -51 -55 -45
-16 -68 -51 -60 -93 3 -18 9 -61 14 -95 9 -59 29 -99 75 -150 17 -19 19 -32
14 -84 l-5 -61 24 23 24 22 0 -31 c0 -23 5 -32 17 -32 9 0 27 -10 40 -22 l23
-21 0 22 c0 12 4 19 10 16 18 -11 10 -42 -15 -59 -14 -9 -38 -39 -54 -67 -16
-29 -32 -46 -36 -40 -14 24 -86 51 -135 51 -49 0 -52 -1 -67 -37 -9 -21 -16
-43 -15 -50 2 -6 -1 -14 -6 -17 -17 -10 2 -80 25 -91 12 -6 65 -10 118 -9 l97
1 -5 -24 c-2 -13 0 -26 4 -29 5 -3 9 -30 9 -60 0 -40 9 -75 30 -124 37 -85 41
-137 12 -178 -12 -16 -22 -33 -22 -37 0 -4 -16 -29 -35 -55 -51 -70 -54 -99
-15 -144 l32 -36 -17 -63 c-36 -128 -95 -215 -177 -259 -31 -17 -77 -48 -100
-70 -51 -48 -117 -88 -144 -88 -11 0 -61 -42 -119 -101 -55 -55 -136 -128
-180 -161 -142 -108 -137 -101 -119 -137 9 -17 33 -46 55 -63 21 -17 39 -37
39 -44 0 -38 126 -140 159 -129 10 3 32 -5 52 -20 19 -13 43 -31 54 -39 44
-32 285 -81 285 -57 0 6 7 11 15 11 8 0 15 -4 15 -10 0 -5 20 -15 45 -21 53
-13 53 -20 0 -111 -18 -31 -36 -69 -39 -85 -7 -32 8 -83 27 -95 18 -12 79 -9
104 5 35 20 150 134 165 164 24 50 151 72 308 52 154 -19 259 -22 276 -8 8 6
17 9 21 6 3 -4 28 10 55 30 28 20 53 32 57 27 5 -5 16 -33 26 -61 19 -62 14
-99 -21 -140 -13 -15 -24 -35 -24 -44 0 -17 -28 -45 -72 -72 -18 -11 -25 -23
-22 -32 5 -13 29 -15 148 -13 l141 3 21 66 c44 136 49 167 35 202 -23 56 -52
168 -46 178 4 5 12 9 19 9 7 0 34 19 60 41 35 31 44 44 36 54 -8 9 -5 14 9 18
12 3 29 25 41 53 12 27 27 59 32 71 15 31 3 105 -28 174 -26 56 -26 60 -9 85
24 37 14 61 -56 138 -58 63 -120 106 -153 106 -9 0 -23 12 -33 28 -10 15 -41
57 -70 93 -79 101 -124 175 -178 294 -27 61 -60 126 -72 145 l-23 35 85 17
c98 20 129 34 174 80 68 68 89 163 54 250 -9 24 -55 102 -102 174 -47 73 -106
168 -129 212 -24 44 -62 99 -85 123 l-41 43 -11 132 c-10 118 -15 139 -44 198
-18 35 -46 76 -62 90 -16 15 -29 32 -29 38 0 29 -55 88 -110 117 -52 28 -66
31 -146 31 -61 0 -98 -5 -119 -16z"/>
</g>
</svg>
