<?xml version="1.0" standalone="no"?>
<!DOCTYPE svg PUBLIC "-//W3C//DTD SVG 20010904//EN"
 "http://www.w3.org/TR/2001/REC-SVG-20010904/DTD/svg10.dtd">
<svg version="1.0" xmlns="http://www.w3.org/2000/svg"
 width="480.000000pt" height="360.000000pt" viewBox="0 0 480.000000 360.000000"
 preserveAspectRatio="xMidYMid meet">
<metadata>
Created by potrace 1.16, written by Peter Selinger 2001-2019
</metadata>
<rect width="1" height="360" fill="#000000"/>
<rect x="479" width="1" height="360" fill="#000000"/>
<rect width="480" height="1" fill="#000000"/>
<rect y="359" width="480" height="1" fill="#000000"/>
<g transform="translate(0.000000,360.000000) scale(0.100000,-0.100000)"
fill="#000000" stroke="none">
<path d="M0 2609 l0 -992 163 7 c472 20 1191 74 1617 121 382 43 566 68 576
79 7 6 17 55 23 108 6 53 13 103 16 110 4 11 -11 20 -57 33 -35 11 -66 23 -69
28 -9 13 -130 38 -151 31 -28 -9 -154 25 -173 46 -21 24 -121 48 -136 33 -11
-11 -196 37 -230 60 -11 8 -28 13 -38 10 -23 -6 -91 22 -91 38 0 7 -11 9 -33
5 -19 -4 -43 0 -59 8 -35 18 -84 18 -121 -1 -31 -15 -48 -10 -30 8 6 6 9 17 6
25 -2 7 2 23 11 36 24 34 20 38 -31 38 -185 1 -355 265 -327 509 5 42 9 112 9
156 0 75 -4 87 -49 185 -39 85 -100 234 -121 298 -3 9 -83 12 -355 12 l-350 0
0 -991z"/>
<path d="M1040 3592 c0 -5 27 -93 59 -196 68 -215 69 -194 -9 -366 -48 -106
-62 -190 -48 -295 17 -130 67 -201 177 -254 57 -27 80 -26 134 4 25 13 77 33
117 44 82 23 175 72 175 92 0 7 -10 16 -22 19 -13 3 -32 13 -44 23 -14 13 -29
16 -49 12 -16 -3 -31 -2 -35 4 -3 6 -15 11 -26 11 -23 0 -34 22 -22 45 14 25
100 81 193 126 115 56 202 114 350 232 135 109 316 285 340 331 l15 29 -80 73
-80 74 -572 0 c-315 0 -573 -4 -573 -8z"/>
<path d="M2867 3578 c26 -30 34 -53 21 -66 -13 -13 46 -128 138 -264 67 -100
91 -158 64 -158 -5 0 -10 -6 -10 -14 0 -8 -5 -16 -10 -18 -7 -2 -6 -22 4 -61
15 -59 27 -136 47 -315 11 -100 11 -105 -10 -130 -11 -15 -30 -44 -41 -64 -11
-21 -23 -38 -25 -38 -3 0 -20 17 -38 37 l-34 36 -6 -74 c-4 -41 -10 -145 -13
-231 -7 -152 -8 -157 -30 -162 -15 -4 -25 -16 -29 -37 -4 -17 -12 -28 -18 -26
-7 3 -22 -5 -34 -16 -13 -11 -23 -16 -23 -10 0 5 -13 8 -30 5 -20 -3 -30 0
-30 8 0 10 -3 10 -15 0 -9 -8 -15 -30 -15 -57 l0 -45 38 6 c145 27 495 113
997 247 121 32 380 108 575 167 195 60 379 115 408 123 l52 13 0 583 0 583
-977 0 -976 0 20 -22z"/>
<path d="M4737 1048 c-72 -92 -137 -170 -192 -230 -35 -38 -51 -48 -90 -54
-50 -7 -71 -22 -240 -172 -44 -39 -112 -89 -151 -111 -95 -53 -303 -116 -471
-142 -171 -26 -527 -36 -730 -20 l-142 10 -96 -45 c-81 -38 -463 -193 -645
-262 l-55 -21 1438 0 1437 -1 0 560 c0 308 -1 560 -3 560 -1 0 -28 -33 -60
-72z"/>
</g>
</svg>
