<?xml version="1.0" standalone="no"?>
<!DOCTYPE svg PUBLIC "-//W3C//DTD SVG 20010904//EN"
 "http://www.w3.org/TR/2001/REC-SVG-20010904/DTD/svg10.dtd">
<svg version="1.0" xmlns="http://www.w3.org/2000/svg"
 width="480.000000pt" height="360.000000pt" viewBox="0 0 480.000000 360.000000"
 preserveAspectRatio="xMidYMid meet">
<metadata>
Created by potrace 1.16, written by Peter Selinger 2001-2019
</metadata>
<rect width="1" height="360" fill="#000000"/>
<rect x="479" width="1" height="360" fill="#000000"/>
<rect width="480" height="1" fill="#000000"/>
<rect y="359" width="480" height="1" fill="#000000"/>
<g transform="translate(0.000000,360.000000) scale(0.100000,-0.100000)"
fill="#000000" stroke="none">
<path d="M0 1800 l0 -1800 849 0 848 0 7 46 c14 103 9 122 -40 177 -58 65 -74
97 -81 162 -5 44 -1 62 22 111 20 41 28 72 26 100 -2 32 3 48 25 73 l27 32
-27 28 c-14 15 -26 36 -26 48 0 11 -5 35 -11 52 -9 25 -9 38 1 56 11 20 10 27
-9 51 -26 33 -26 39 -1 71 11 14 20 40 20 57 0 43 10 54 50 58 l35 3 -3 60
c-3 74 12 106 58 121 32 11 36 16 42 60 4 27 10 116 14 197 6 143 7 149 29
157 19 7 30 28 55 109 17 57 46 122 66 153 l36 52 -19 316 c-10 173 -18 376
-18 450 0 122 3 144 29 223 16 49 35 91 43 94 19 7 45 -19 76 -75 l26 -48 2
-480 1 -480 29 4 c35 5 36 18 7 50 l-23 24 4 744 3 744 -1086 0 -1086 0 0
-1800z"/>
<path d="M2160 1910 c0 -60 3 -110 8 -110 4 0 15 19 25 42 20 44 17 105 -5
154 -21 45 -28 23 -28 -86z"/>
<path d="M2133 1509 c-11 -12 -33 -21 -48 -21 -29 0 -45 -27 -45 -75 l0 -25
40 36 c22 20 50 36 61 36 l22 0 -8 -730 -7 -730 261 0 c144 0 261 4 261 8 0 4
-21 28 -46 52 -67 66 -76 89 -71 173 3 40 10 92 17 117 16 60 5 133 -28 192
-27 48 -25 71 4 47 16 -13 17 -11 10 16 -4 17 -9 38 -12 48 -4 13 0 17 17 17
23 0 23 0 -4 28 l-26 27 32 60 c25 47 37 60 55 59 27 -1 27 6 2 56 -11 22 -20
46 -20 55 0 8 9 15 20 15 11 0 20 2 20 4 0 11 -55 113 -70 131 -12 13 -19 42
-22 82 -3 48 -10 68 -28 88 -26 28 -49 30 -117 14 l-45 -12 -70 77 c-39 42
-83 83 -98 91 -22 11 -30 23 -32 50 l-3 36 -22 -22z m382 -1012 c16 -28 25
-59 25 -85 0 -23 -1 -42 -3 -42 -1 0 -20 9 -42 20 -22 11 -49 20 -61 20 -29 0
-54 10 -54 21 0 5 7 26 15 46 15 35 16 35 30 17 13 -16 16 -17 25 -4 5 8 10
23 10 33 0 31 29 18 55 -26z"/>
<path d="M1635 456 c-28 -51 -16 -109 32 -158 37 -38 38 -38 45 -16 3 13 6 47
7 76 1 41 -5 61 -25 92 -15 22 -30 40 -34 40 -4 0 -15 -15 -25 -34z"/>
<path d="M1752 360 c0 -14 2 -19 5 -12 2 6 2 18 0 25 -3 6 -5 1 -5 -13z"/>
<path d="M1731 14 c0 -11 3 -14 6 -6 3 7 2 16 -1 19 -3 4 -6 -2 -5 -13z"/>
</g>
</svg>
