<?xml version="1.0" standalone="no"?>
<!DOCTYPE svg PUBLIC "-//W3C//DTD SVG 20010904//EN"
 "http://www.w3.org/TR/2001/REC-SVG-20010904/DTD/svg10.dtd">
<svg version="1.0" xmlns="http://www.w3.org/2000/svg"
 width="480.000000pt" height="360.000000pt" viewBox="0 0 480.000000 360.000000"
 preserveAspectRatio="xMidYMid meet">
<metadata>
Created by potrace 1.16, written by Peter Selinger 2001-2019
</metadata>
<rect width="1" height="360" fill="#000000"/>
<rect x="479" width="1" height="360" fill="#000000"/>
<rect width="480" height="1" fill="#000000"/>
<rect y="359" width="480" height="1" fill="#000000"/>
<g transform="translate(0.000000,360.000000) scale(0.100000,-0.100000)"
fill="#000000" stroke="none">
<path d="M0 1800 l0 -1800 451 2 452 3 61 180 c70 206 105 276 194 393 l64 84
-11 106 c-6 59 -13 132 -14 162 l-2 55 -14 -48 c-14 -49 -31 -72 -31 -40 0 10
7 63 15 118 18 122 18 125 0 101 -13 -17 -14 -15 -9 20 3 22 9 57 14 79 5 22
23 117 40 210 31 171 40 290 55 720 12 358 42 470 161 611 l42 50 -20 63 c-23
72 -44 89 -117 98 -43 5 -52 10 -57 29 -9 34 0 41 73 54 48 8 76 19 98 39 18
15 53 36 78 47 26 10 45 23 44 29 -2 5 -38 19 -80 31 -41 11 -100 33 -131 48
-55 27 -116 90 -116 120 0 24 52 21 140 -8 41 -14 76 -24 77 -23 1 2 -22 39
-52 85 -29 45 -59 104 -66 132 l-13 50 -663 0 -663 0 0 -1800z"/>
<path d="M1430 3595 c0 -2 28 -39 63 -82 34 -43 78 -108 97 -145 19 -38 38
-68 41 -68 3 0 9 39 13 88 6 77 19 139 41 195 7 16 -3 17 -124 17 -72 0 -131
-2 -131 -5z"/>
<path d="M1790 3563 c0 -21 -9 -81 -20 -133 -11 -52 -20 -99 -20 -103 0 -5 19
7 43 26 63 51 202 137 220 137 70 0 -78 -173 -218 -255 -36 -21 -65 -43 -65
-50 0 -6 24 -17 54 -24 29 -6 62 -18 72 -26 11 -8 37 -15 60 -15 23 0 62 -3
88 -6 42 -6 46 -9 46 -34 0 -23 -7 -30 -45 -44 -63 -24 -85 -56 -85 -121 0
-52 1 -54 43 -79 70 -40 202 -187 225 -248 31 -83 35 -144 17 -228 -24 -108
-47 -180 -58 -180 -6 0 -7 -18 -3 -42 4 -24 9 -117 11 -208 2 -91 7 -225 11
-298 l6 -132 31 17 c59 35 70 61 70 168 0 96 0 96 31 120 21 16 51 26 93 31
58 6 65 4 97 -20 l34 -26 -1 -99 c-2 -82 1 -102 16 -118 9 -11 17 -25 17 -31
0 -12 59 -47 67 -39 2 3 9 139 14 304 5 164 11 313 15 332 3 19 1 37 -4 40
-15 9 -41 147 -48 258 -5 78 -3 108 10 147 16 46 63 118 94 142 12 9 11 17 -6
50 -97 194 -87 444 29 679 21 44 28 52 24 30 -39 -255 -41 -364 -9 -503 12
-55 51 -162 59 -162 2 0 23 11 46 25 24 13 77 32 118 41 151 34 289 -4 384
-105 l46 -49 23 27 c40 43 74 93 102 148 31 62 31 66 8 59 -21 -7 -43 14 -95
93 -19 29 -33 59 -30 66 10 27 74 48 130 42 47 -5 54 -3 65 16 6 12 14 70 16
130 7 154 16 147 47 -37 8 -49 17 -91 19 -94 2 -2 13 1 24 7 42 22 89 13 132
-25 22 -20 40 -41 40 -48 -1 -6 -30 -37 -65 -69 -61 -55 -85 -64 -85 -33 0 17
-38 66 -51 66 -5 0 -9 -12 -9 -27 0 -36 -23 -122 -51 -192 -23 -56 -74 -138
-127 -199 l-28 -34 22 -66 c29 -86 41 -216 59 -642 14 -319 18 -359 51 -530
45 -239 50 -275 35 -266 -15 9 -14 -15 4 -139 18 -122 18 -124 1 -103 -11 15
-14 4 -20 -79 -4 -54 -9 -108 -12 -120 -5 -17 -1 -25 17 -32 83 -31 145 -51
223 -72 154 -41 258 -114 380 -268 48 -61 124 -212 141 -283 l7 -28 214 0 214
0 0 1800 0 1800 -1505 0 -1505 0 0 -37z"/>
<path d="M2147 2306 c-4 -10 -6 -39 -6 -64 l1 -47 9 54 c10 58 7 87 -4 57z"/>
<path d="M2652 2225 c0 -16 2 -22 5 -12 2 9 2 23 0 30 -3 6 -5 -1 -5 -18z"/>
<path d="M2201 1306 c-16 -17 -21 -31 -16 -45 12 -39 39 -18 47 37 5 38 -1 40
-31 8z"/>
<path d="M2565 1293 c7 -42 27 -69 44 -59 19 12 12 51 -12 74 -33 31 -40 27
-32 -15z"/>
<path d="M2371 1226 c-11 -31 -24 -75 -27 -98 -6 -32 -20 -54 -65 -102 -42
-44 -57 -66 -54 -81 3 -11 25 -121 50 -245 25 -124 48 -236 51 -250 21 -94
-95 190 -141 345 -15 50 -29 96 -31 104 -3 10 -20 -1 -55 -34 l-49 -50 6 -135
c4 -74 4 -133 1 -130 -4 3 -14 42 -23 85 -9 44 -20 84 -24 88 -4 5 -11 -65
-15 -156 -7 -165 -15 -207 -35 -177 -5 8 -14 38 -20 65 -30 139 -44 155 -55
62 -8 -60 3 -114 72 -354 l46 -163 443 0 c349 0 444 3 444 13 0 6 7 80 15 162
18 182 18 279 1 365 l-12 65 -13 -45 c-7 -25 -19 -72 -28 -105 -26 -99 -39
-100 -46 -3 -4 46 -7 124 -7 173 0 127 -13 136 -35 26 -10 -50 -22 -94 -27
-97 -9 -6 -4 136 7 228 5 33 1 39 -45 78 l-49 41 -11 -43 c-18 -68 -76 -235
-114 -328 l-35 -85 -1 44 c0 25 11 92 24 150 14 58 34 155 46 214 l21 109 -59
56 c-51 48 -61 64 -67 102 -8 47 -40 139 -55 153 -4 5 -17 -16 -29 -47z"/>
</g>
</svg>
