<?xml version="1.0" standalone="no"?>
<!DOCTYPE svg PUBLIC "-//W3C//DTD SVG 20010904//EN"
 "http://www.w3.org/TR/2001/REC-SVG-20010904/DTD/svg10.dtd">
<svg version="1.0" xmlns="http://www.w3.org/2000/svg"
 width="480.000000pt" height="360.000000pt" viewBox="0 0 480.000000 360.000000"
 preserveAspectRatio="xMidYMid meet">
<metadata>
Created by potrace 1.16, written by Peter Selinger 2001-2019
</metadata>
<rect width="1" height="360" fill="#000000"/>
<rect x="479" width="1" height="360" fill="#000000"/>
<rect width="480" height="1" fill="#000000"/>
<rect y="359" width="480" height="1" fill="#000000"/>
<g transform="translate(0.000000,360.000000) scale(0.100000,-0.100000)"
fill="#000000" stroke="none">
<path d="M2525 3453 c-23 -521 -53 -935 -105 -1453 -62 -620 -85 -869 -110
-1210 -10 -138 -40 -699 -40 -757 l0 -33 1265 0 1265 0 0 185 c0 146 -3 184
-12 178 -7 -4 -38 -24 -68 -44 -67 -44 -173 -98 -277 -141 -72 -30 -87 -32
-193 -33 -115 0 -115 0 -187 38 -109 59 -443 347 -443 383 0 17 62 74 210 192
69 55 151 127 184 160 l58 60 -53 17 c-94 31 -136 54 -188 101 -56 51 -64 70
-26 60 20 -5 25 -3 25 13 0 11 4 23 10 26 12 7 80 -23 80 -36 0 -5 7 -6 15 -3
8 4 21 2 28 -4 6 -6 46 -13 87 -17 41 -4 88 -11 103 -17 25 -10 31 -7 57 17
l29 27 153 -124 c195 -159 281 -218 317 -218 16 0 43 -3 60 -6 l31 -6 0 1396
0 1396 -1134 0 -1134 0 -7 -147z"/>
<path d="M0 2985 l0 -185 28 -6 c15 -4 140 -62 277 -129 218 -107 353 -185
443 -255 33 -26 48 -25 89 6 l34 26 42 -20 c24 -11 58 -22 77 -25 192 -30 200
-30 225 -19 19 9 25 19 23 34 -2 18 -13 24 -61 34 -60 12 -75 19 -64 31 13 13
131 -16 148 -36 9 -10 26 -21 40 -23 13 -1 29 -13 35 -26 16 -32 72 -92 87
-92 12 0 67 62 67 76 0 15 -183 185 -241 225 -78 53 -110 65 -191 74 -38 3
-68 10 -69 13 -7 62 -26 87 -75 97 -108 20 -276 94 -489 215 -56 31 -133 70
-171 85 -77 31 -233 85 -246 85 -4 0 -8 -83 -8 -185z"/>
<path d="M0 2097 c0 -158 4 -287 8 -287 14 0 38 32 65 85 31 63 39 98 41 192
1 60 -2 81 -16 99 -10 12 -18 34 -18 49 0 32 -36 108 -62 132 -17 16 -18 6
-18 -270z"/>
</g>
</svg>
