<?xml version="1.0" standalone="no"?>
<!DOCTYPE svg PUBLIC "-//W3C//DTD SVG 20010904//EN"
 "http://www.w3.org/TR/2001/REC-SVG-20010904/DTD/svg10.dtd">
<svg version="1.0" xmlns="http://www.w3.org/2000/svg"
 width="480.000000pt" height="360.000000pt" viewBox="0 0 480.000000 360.000000"
 preserveAspectRatio="xMidYMid meet">
<metadata>
Created by potrace 1.16, written by Peter Selinger 2001-2019
</metadata>
<rect width="1" height="360" fill="#000000"/>
<rect x="479" width="1" height="360" fill="#000000"/>
<rect width="480" height="1" fill="#000000"/>
<rect y="359" width="480" height="1" fill="#000000"/>
<g transform="translate(0.000000,360.000000) scale(0.100000,-0.100000)"
fill="#000000" stroke="none">
<path d="M2440 3582 c0 -61 64 -188 127 -253 l45 -47 -82 -43 c-169 -90 -344
-265 -392 -392 -11 -28 -23 -56 -28 -62 -11 -14 -27 -75 -49 -185 -21 -107
-54 -202 -76 -220 -8 -7 -15 -17 -15 -22 0 -13 49 19 72 46 17 20 17 19 19
-54 0 -41 4 -97 8 -125 l7 -50 8 48 c5 27 12 45 15 40 4 -4 20 -41 35 -80 29
-75 38 -85 54 -56 8 14 12 11 28 -18 17 -31 19 -32 22 -12 3 21 5 21 36 -11
19 -18 47 -43 64 -55 l31 -22 -14 35 c-17 40 -20 86 -5 86 5 0 24 -30 40 -67
37 -81 35 -112 -15 -177 -32 -43 -33 -46 -17 -64 9 -11 33 -25 52 -32 50 -19
57 -26 65 -66 5 -28 13 -38 41 -50 19 -8 34 -20 34 -27 0 -7 14 -24 31 -37
l32 -23 -7 -158 c-4 -88 -9 -166 -12 -174 -8 -19 25 -33 36 -15 14 23 28 1 34
-57 4 -32 18 -114 32 -182 l25 -125 -34 -34 -34 -34 -62 42 c-33 23 -76 59
-93 79 -18 21 -48 48 -66 62 -19 13 -49 50 -68 81 -20 32 -39 58 -44 58 -20 0
-28 37 -19 93 12 75 -12 229 -46 296 -49 97 -115 127 -254 117 -46 -3 -94 -9
-106 -12 -20 -5 -23 -1 -29 40 -6 35 -10 44 -23 39 -12 -5 -14 -16 -10 -49 5
-51 3 -53 -82 -84 -67 -25 -152 -85 -172 -122 -6 -12 -22 -64 -35 -116 l-24
-95 19 -66 c11 -36 27 -97 37 -134 15 -58 27 -79 86 -147 70 -81 107 -107 186
-130 23 -7 42 -15 42 -17 0 -2 -8 -20 -19 -41 -34 -67 -79 -206 -90 -282 -7
-41 -16 -142 -20 -225 -5 -82 -12 -160 -16 -172 l-7 -23 1332 0 1332 0 49 28
c27 15 49 30 49 35 0 4 -16 7 -35 7 l-36 0 52 62 c28 34 47 64 42 65 -6 2 -34
0 -64 -5 -42 -6 -77 -24 -157 -76 -107 -70 -190 -105 -197 -83 -2 7 -9 32 -15
57 -7 25 -17 51 -22 57 -6 7 -8 22 -5 34 7 24 -26 163 -42 183 -6 8 -9 20 -6
28 4 9 -5 60 -19 114 -14 54 -26 105 -26 114 0 8 -6 26 -13 40 -7 14 -14 38
-15 53 -1 15 -9 41 -17 58 -9 16 -13 33 -10 38 2 5 -2 25 -10 45 -30 72 6 34
49 -51 25 -49 54 -101 65 -118 l21 -30 0 27 c0 26 1 26 30 16 23 -7 34 -7 45
2 24 20 18 43 -26 90 -84 92 -89 103 -110 216 -10 59 -19 135 -19 168 l0 61
61 -110 c33 -61 66 -116 71 -123 18 -22 20 -6 3 34 -10 25 -12 40 -5 44 7 4 2
32 -14 81 -53 161 -68 210 -65 214 2 2 22 -36 44 -83 39 -88 182 -312 198
-312 5 0 6 8 2 18 -30 68 -85 218 -90 245 l-7 32 33 -40 c48 -58 142 -156 145
-152 2 2 -6 27 -17 57 -46 123 -75 306 -99 630 -25 348 -48 511 -101 724 -36
143 -107 342 -159 446 -20 41 -40 99 -44 127 -13 102 -83 222 -193 330 -123
122 -238 152 -392 102 -20 -6 -41 -16 -48 -21 -17 -13 -39 1 -103 66 l-54 56
-343 0 c-325 0 -343 -1 -343 -18z m531 -2054 c55 -76 57 -84 22 -121 -17 -17
-47 -60 -65 -95 l-35 -62 -13 27 c-16 34 -14 261 2 280 21 26 57 14 89 -29z
m-81 -293 c0 -3 -13 -29 -30 -58 l-30 -52 0 58 c0 57 0 57 30 57 17 0 30 -2
30 -5z"/>
</g>
</svg>
