<?xml version="1.0" standalone="no"?>
<!DOCTYPE svg PUBLIC "-//W3C//DTD SVG 20010904//EN"
 "http://www.w3.org/TR/2001/REC-SVG-20010904/DTD/svg10.dtd">
<svg version="1.0" xmlns="http://www.w3.org/2000/svg"
 width="480.000000pt" height="360.000000pt" viewBox="0 0 480.000000 360.000000"
 preserveAspectRatio="xMidYMid meet">
<metadata>
Created by potrace 1.16, written by Peter Selinger 2001-2019
</metadata>
<rect width="1" height="360" fill="#000000"/>
<rect x="479" width="1" height="360" fill="#000000"/>
<rect width="480" height="1" fill="#000000"/>
<rect y="359" width="480" height="1" fill="#000000"/>
<g transform="translate(0.000000,360.000000) scale(0.100000,-0.100000)"
fill="#000000" stroke="none">
<path d="M1313 2856 c-12 -24 -31 -47 -42 -51 -23 -7 -27 -20 -11 -30 6 -4 7
-12 3 -18 -4 -7 -8 -28 -9 -48 -1 -20 -20 -72 -42 -115 -43 -84 -60 -134 -45
-134 5 0 17 -16 26 -36 17 -34 19 -35 40 -21 20 13 25 12 57 -19 19 -19 40
-34 46 -34 11 0 24 -22 24 -41 0 -5 -15 -9 -34 -9 -47 0 -64 -22 -42 -55 17
-25 16 -26 -49 -90 -36 -35 -65 -70 -65 -78 0 -7 -15 -30 -34 -50 -70 -76 -53
-158 39 -190 5 -2 8 -42 6 -93 -2 -89 -20 -140 -68 -196 -9 -10 -12 -25 -8
-38 4 -13 -4 -52 -21 -101 -21 -60 -25 -82 -16 -88 9 -6 8 -21 -7 -63 -27 -80
-46 -180 -81 -443 -24 -178 -89 -764 -90 -807 0 -5 214 -8 475 -8 351 0 475 3
475 11 0 7 -11 91 -25 188 -14 97 -34 273 -45 391 -11 121 -31 263 -45 325
-23 99 -91 333 -110 378 -5 12 -3 17 9 17 21 0 20 9 -1 33 -17 18 -16 24 11
125 37 137 41 178 26 280 -8 52 -9 87 -3 95 11 13 10 53 -1 79 -4 9 -1 29 8
47 9 16 16 41 16 55 0 39 -59 208 -81 232 -10 11 -16 24 -12 28 5 4 8 17 8 29
0 11 6 22 12 24 9 3 11 -4 7 -26 -7 -34 1 -39 26 -16 10 9 27 17 39 20 18 3
20 0 15 -23 -5 -22 -4 -25 7 -14 7 6 21 12 31 12 10 0 18 5 18 10 0 6 5 9 12
8 18 -4 58 73 58 114 0 40 -26 151 -43 183 -6 11 -10 36 -8 57 1 28 -4 40 -24
57 -15 11 -39 38 -55 59 -39 55 -91 83 -179 99 -101 19 -119 18 -142 -3 -18
-16 -19 -16 -19 4 0 34 -14 26 -37 -22z"/>
<path d="M3538 2169 c-39 -40 -187 -169 -194 -169 -2 0 -37 9 -76 20 -40 11
-79 20 -88 20 -25 0 -72 -43 -65 -61 3 -8 39 -42 81 -74 50 -40 71 -62 64 -69
-18 -18 -11 -71 12 -96 19 -20 19 -24 6 -34 -23 -17 -18 -99 8 -128 19 -21 20
-27 9 -63 -10 -34 -17 -41 -49 -48 -32 -8 -40 -16 -61 -62 -13 -29 -53 -97
-89 -151 -37 -54 -69 -107 -72 -119 -3 -12 6 -60 20 -106 14 -46 30 -102 36
-125 6 -26 18 -44 32 -51 32 -15 51 -81 39 -135 -6 -24 -17 -106 -26 -183 -8
-77 -21 -165 -27 -196 -10 -50 -9 -59 8 -82 10 -14 29 -31 42 -38 19 -11 22
-21 24 -78 1 -36 1 -83 0 -103 l-2 -38 69 0 69 0 12 63 c6 35 16 70 21 78 15
22 34 -10 49 -81 l13 -60 73 0 73 0 6 48 c3 26 7 53 8 61 1 8 23 19 49 26 82
21 88 33 63 125 -63 227 -101 430 -90 479 3 16 17 36 30 45 13 8 29 32 35 53
7 21 30 73 51 115 22 43 39 92 39 109 0 17 -16 67 -36 112 -58 131 -102 256
-99 280 6 46 28 117 39 126 8 7 25 1 55 -18 61 -40 117 -65 135 -58 8 3 18 22
22 42 6 32 1 43 -45 105 -28 39 -51 77 -51 85 0 7 22 69 50 137 27 68 50 133
50 145 0 56 -155 173 -240 181 -45 4 -52 2 -82 -29z m51 -1050 c1 -14 -56 -65
-64 -57 -3 3 3 40 22 128 5 24 6 23 23 -15 10 -22 19 -47 19 -56z m-389 30
c-8 -14 -15 -18 -22 -11 -7 7 -4 19 9 38 14 22 19 24 21 12 2 -10 -2 -27 -8
-39z"/>
</g>
</svg>
