<?xml version="1.0" standalone="no"?>
<!DOCTYPE svg PUBLIC "-//W3C//DTD SVG 20010904//EN"
 "http://www.w3.org/TR/2001/REC-SVG-20010904/DTD/svg10.dtd">
<svg version="1.0" xmlns="http://www.w3.org/2000/svg"
 width="480.000000pt" height="360.000000pt" viewBox="0 0 480.000000 360.000000"
 preserveAspectRatio="xMidYMid meet">
<metadata>
Created by potrace 1.16, written by Peter Selinger 2001-2019
</metadata>
<rect width="1" height="360" fill="#000000"/>
<rect x="479" width="1" height="360" fill="#000000"/>
<rect width="480" height="1" fill="#000000"/>
<rect y="359" width="480" height="1" fill="#000000"/>
<g transform="translate(0.000000,360.000000) scale(0.100000,-0.100000)"
fill="#000000" stroke="none">
<path d="M1604 3413 c0 -272 -25 -385 -135 -608 -53 -108 -137 -227 -222 -314
-77 -80 -232 -200 -297 -232 -32 -15 -61 -33 -65 -38 -3 -6 -38 -20 -78 -32
-40 -12 -76 -25 -82 -29 -23 -18 -192 -52 -302 -61 -138 -11 -314 0 -406 27
-16 5 -17 -50 -17 -1060 l0 -1066 1754 0 1754 0 7 27 c3 15 3 103 0 197 -6
158 -5 181 18 296 14 69 30 153 36 186 14 73 52 456 47 461 -6 6 -46 -66 -51
-95 -3 -15 -11 -44 -17 -65 -9 -28 -8 -41 0 -49 33 -33 -7 -78 -70 -78 -52 0
-85 18 -98 53 -19 55 -14 69 68 203 18 28 55 107 83 175 28 68 59 138 70 155
26 42 25 105 -1 129 -12 10 -18 25 -15 33 3 7 -10 28 -30 46 -55 52 -47 115
28 225 22 32 38 69 43 99 9 62 18 77 65 112 36 26 38 30 22 39 -17 10 -17 12
0 21 9 6 17 18 17 25 0 18 0 18 -39 -1 -31 -15 -32 -15 -80 25 -27 23 -54 41
-59 41 -18 0 -24 20 -11 36 10 12 8 17 -7 29 -10 8 -30 14 -44 13 -29 -2 -80
28 -80 48 0 8 -7 14 -15 14 -12 0 -15 8 -11 33 20 128 21 123 -25 164 -69 62
-89 87 -89 110 0 33 43 40 286 53 203 10 213 10 267 -10 30 -11 70 -31 89 -43
37 -26 122 -134 158 -205 14 -26 53 -78 88 -117 55 -61 142 -209 142 -242 0
-5 10 -18 21 -29 12 -10 55 -56 95 -102 73 -83 124 -175 146 -260 9 -36 20
-50 57 -76 52 -35 134 -117 162 -161 19 -29 19 -12 19 1028 l0 1057 -1598 0
-1597 0 -1 -187z"/>
<path d="M4160 1740 c0 -5 5 -10 10 -10 6 0 10 5 10 10 0 6 -4 10 -10 10 -5 0
-10 -4 -10 -10z"/>
<path d="M4190 1692 c0 -10 -5 -23 -11 -29 -9 -9 1 -34 35 -98 35 -67 53 -117
76 -219 16 -72 48 -189 70 -261 36 -113 41 -138 36 -190 -7 -69 -19 -88 -40
-60 -12 17 -14 15 -14 -22 -1 -52 65 -169 205 -367 92 -130 179 -259 231 -346
l22 -35 -1 600 0 600 -30 23 c-36 29 -36 23 -4 -28 14 -22 25 -42 25 -44 0 -8
-28 0 -43 13 -11 9 -21 10 -33 3 -15 -8 -35 6 -113 80 -53 50 -109 95 -124
100 -15 6 -35 24 -43 40 -23 44 -244 261 -244 240z"/>
<path d="M4014 1520 c12 -108 23 -148 53 -186 17 -21 45 -61 62 -89 27 -42 31
-45 25 -20 -3 17 -17 57 -30 90 -12 33 -31 88 -41 123 -10 35 -31 78 -46 95
l-28 32 5 -45z"/>
</g>
</svg>
