<?xml version="1.0" standalone="no"?>
<!DOCTYPE svg PUBLIC "-//W3C//DTD SVG 20010904//EN"
 "http://www.w3.org/TR/2001/REC-SVG-20010904/DTD/svg10.dtd">
<svg version="1.0" xmlns="http://www.w3.org/2000/svg"
 width="480.000000pt" height="360.000000pt" viewBox="0 0 480.000000 360.000000"
 preserveAspectRatio="xMidYMid meet">
<metadata>
Created by potrace 1.16, written by Peter Selinger 2001-2019
</metadata>
<rect width="1" height="360" fill="#000000"/>
<rect x="479" width="1" height="360" fill="#000000"/>
<rect width="480" height="1" fill="#000000"/>
<rect y="359" width="480" height="1" fill="#000000"/>
<g transform="translate(0.000000,360.000000) scale(0.100000,-0.100000)"
fill="#000000" stroke="none">
<path d="M0 2220 c0 -759 2 -1380 5 -1380 2 0 14 4 27 10 21 9 125 22 313 39
l70 6 3 43 c3 36 0 42 -17 42 -11 0 -31 4 -45 10 l-25 9 24 66 c31 83 42 129
65 285 20 139 16 160 -29 160 -31 0 -81 34 -81 54 0 7 9 21 20 31 11 10 20 31
20 46 0 15 4 30 8 33 5 3 17 40 26 83 10 43 25 100 33 126 16 52 13 62 -20 62
-26 0 -26 10 0 79 14 37 15 50 6 53 -7 3 -13 9 -13 15 0 21 62 94 94 112 32
17 37 17 90 2 37 -11 59 -24 67 -39 6 -12 23 -34 37 -49 l25 -27 -27 -39 c-16
-24 -24 -45 -20 -56 3 -9 1 -23 -6 -31 -9 -11 -7 -26 9 -70 12 -31 21 -74 21
-97 0 -36 6 -46 42 -80 24 -22 55 -47 71 -56 30 -18 35 -43 12 -62 -8 -7 -15
-25 -15 -41 0 -32 -3 -34 -32 -18 -16 8 -24 8 -34 -3 -13 -12 -11 -40 12 -198
14 -101 34 -217 45 -258 10 -42 19 -81 19 -89 0 -21 -40 -15 -72 12 -37 32
-50 28 -61 -15 -8 -30 -6 -36 17 -53 14 -10 26 -24 26 -31 0 -7 10 -18 23 -23
21 -11 21 -11 2 -18 -11 -3 -36 -13 -55 -22 -44 -19 -224 -51 -355 -63 -55 -5
-138 -18 -185 -29 -47 -12 -97 -21 -112 -21 l-28 0 0 -365 0 -365 585 0 c569
0 586 1 607 20 23 21 41 18 31 -5 -4 -13 29 -15 240 -15 l246 0 -24 25 c-14
13 -25 31 -25 40 0 8 -9 15 -20 15 -23 0 -40 28 -40 66 0 15 -5 53 -11 83 -10
50 -9 66 14 153 14 53 60 181 101 285 124 311 138 353 119 353 -9 0 -139 -59
-290 -130 -379 -181 -588 -269 -872 -366 -46 -16 -86 -35 -89 -43 -3 -8 0 -34
7 -59 6 -25 10 -47 7 -49 -7 -7 -36 54 -36 76 0 30 -11 32 -79 11 -35 -11 -84
-20 -110 -20 -61 0 -116 29 -116 61 0 20 9 27 55 43 30 10 84 29 120 42 133
48 125 43 109 59 -8 8 -36 15 -62 16 -47 2 -65 13 -61 37 1 6 2 16 3 21 3 21
34 41 65 41 40 0 60 -21 52 -53 -4 -16 0 -30 13 -41 17 -15 19 -15 36 4 10 11
25 20 33 20 12 0 12 -4 -3 -20 -10 -11 -16 -20 -13 -20 45 0 1054 459 1083
493 26 30 48 126 42 188 -3 34 -2 72 3 84 11 30 2 40 -95 105 -165 110 -415
293 -415 304 0 21 31 56 49 56 9 0 49 -25 87 -55 67 -54 230 -170 320 -228 24
-16 48 -26 52 -23 5 3 10 36 11 74 2 93 9 113 75 219 31 50 56 99 56 110 0 10
7 27 15 37 8 11 15 33 15 49 0 32 13 59 44 97 30 36 163 150 214 183 23 15 42
34 42 42 0 9 20 20 52 30 28 8 55 21 60 28 13 21 9 53 -10 70 -17 16 -18 15
-14 -18 5 -39 1 -42 -21 -20 -13 13 -16 11 -21 -10 -7 -29 -26 -34 -27 -7 0 9
-3 12 -5 6 -9 -22 -54 8 -54 37 0 35 -11 43 -27 19 -20 -29 -36 -25 -30 7 3
15 0 51 -6 80 -13 63 1 115 70 263 36 78 56 106 109 157 80 76 141 107 209
107 85 -1 133 -21 245 -101 23 -18 24 -17 16 2 -16 42 -25 113 -17 141 8 32
42 44 66 24 11 -9 16 -3 25 32 7 24 17 77 24 118 6 41 16 75 21 75 5 0 15 -54
21 -120 6 -66 16 -133 23 -148 19 -47 13 -62 -44 -120 -37 -37 -55 -63 -55
-80 0 -13 16 -54 35 -91 27 -52 35 -79 35 -119 0 -88 -15 -122 -65 -151 -24
-15 -49 -25 -55 -24 -6 2 -26 -31 -43 -72 -32 -75 -32 -75 -35 -37 -4 45 -16
47 -37 7 -8 -16 -19 -29 -23 -28 -10 3 -52 -25 -52 -36 0 -5 21 -6 48 -3 82
11 195 26 270 36 79 11 122 2 151 -32 7 -10 20 -17 28 -17 9 0 32 -9 52 -20
20 -11 61 -24 91 -29 49 -9 72 -6 220 30 91 22 214 56 274 76 133 44 194 42
263 -6 l43 -30 202 133 c112 74 241 163 287 197 46 35 89 66 95 68 24 9 96 74
96 87 0 8 14 42 30 76 32 64 42 83 72 130 15 22 18 50 18 175 l0 148 -133 1
c-72 0 -159 6 -192 13 -68 14 -263 90 -343 133 l-52 28 -2040 0 -2040 0 0
-1380z m4080 1294 c0 -16 -16 -19 -25 -4 -8 13 4 32 16 25 5 -4 9 -13 9 -21z
m-3852 -441 c6 -39 -16 -65 -51 -61 -39 4 -45 25 -16 62 26 33 62 32 67 -1z
m1753 -183 c19 -15 21 -19 7 -20 -15 0 -48 24 -48 36 0 10 20 3 41 -16z m2159
-100 c0 -11 -4 -20 -10 -20 -5 0 -10 9 -10 20 0 11 5 20 10 20 6 0 10 -9 10
-20z m-3300 -120 c0 -5 -13 -10 -29 -10 -17 0 -33 5 -36 10 -4 6 8 10 29 10
20 0 36 -4 36 -10z m3480 6 c0 -3 -4 -8 -10 -11 -5 -3 -10 -1 -10 4 0 6 5 11
10 11 6 0 10 -2 10 -4z m-3446 -2443 c17 -48 21 -130 8 -149 -6 -10 -45 -34
-55 -34 -11 0 -29 93 -23 122 8 40 37 108 47 108 4 0 14 -21 23 -47z"/>
<path d="M4740 2770 c-30 -28 -63 -50 -74 -50 -10 0 -27 -11 -37 -24 -11 -14
-29 -28 -42 -32 -12 -4 -112 -66 -222 -138 -110 -73 -223 -147 -252 -165 -48
-30 -51 -34 -46 -65 5 -34 13 -25 -117 -135 -36 -30 -44 -33 -66 -23 -13 7
-27 19 -30 27 -6 15 -34 21 -34 8 0 -5 7 -30 15 -57 8 -26 12 -52 9 -57 -11
-18 -41 -8 -69 21 -16 17 -32 30 -37 30 -4 0 -59 -31 -120 -69 -62 -37 -180
-108 -263 -156 -82 -49 -226 -134 -320 -190 -178 -106 -281 -165 -352 -198
-36 -18 -41 -24 -37 -46 4 -20 0 -28 -18 -36 -32 -14 -34 -60 -8 -133 12 -33
36 -117 53 -188 l32 -128 85 -52 c129 -80 397 -232 570 -323 182 -97 208 -115
190 -135 -50 -61 -221 6 -653 254 -56 32 -103 58 -104 56 -2 -1 19 -43 47 -92
27 -49 66 -132 86 -184 20 -52 45 -113 54 -135 27 -62 50 -129 50 -146 0 -8
-16 -34 -35 -56 -19 -23 -35 -49 -35 -58 0 -9 -11 -31 -25 -49 -14 -18 -25
-36 -25 -39 0 -4 425 -7 945 -7 l945 0 0 909 c0 795 -2 910 -15 921 -8 7 -15
19 -15 26 0 8 6 11 15 8 13 -5 15 51 15 475 0 265 -1 481 -2 481 -2 -1 -28
-23 -58 -50z"/>
<path d="M3510 2199 l-155 -60 -117 5 c-65 3 -118 2 -118 -2 0 -16 -48 -37
-90 -39 -25 -1 -68 -5 -95 -8 -43 -6 -63 -2 -133 25 -45 18 -84 31 -87 28 -11
-10 -32 -165 -27 -196 2 -19 -3 -94 -13 -167 -9 -73 -16 -138 -14 -144 2 -6
40 11 84 39 44 27 84 50 89 50 5 0 23 11 40 23 17 13 69 46 116 74 210 125
670 409 684 423 17 17 -4 11 -164 -51z"/>
<path d="M2124 1891 c-16 -9 -40 -26 -52 -38 -12 -13 -28 -23 -36 -23 -7 0
-36 -24 -65 -54 -40 -43 -51 -62 -51 -88 0 -18 -7 -73 -16 -122 l-17 -90 29
-22 c15 -13 43 -31 61 -41 31 -16 33 -16 54 2 12 11 28 34 35 50 7 17 22 39
33 49 30 27 26 40 -20 70 -39 26 -40 28 -25 49 46 64 71 117 92 193 12 46 19
84 15 83 -3 -1 -20 -9 -37 -18z"/>
<path d="M460 1736 c0 -14 5 -28 10 -31 6 -3 10 5 10 19 0 14 -4 28 -10 31 -6
3 -10 -5 -10 -19z"/>
<path d="M1853 1295 c-13 -59 -4 -72 36 -55 27 11 59 47 49 54 -2 1 -19 12
-39 24 l-36 22 -10 -45z"/>
<path d="M496 961 c-10 -16 44 -71 70 -71 19 0 24 5 24 23 0 13 -8 31 -18 40
-20 18 -67 23 -76 8z"/>
</g>
</svg>
