<?xml version="1.0" standalone="no"?>
<!DOCTYPE svg PUBLIC "-//W3C//DTD SVG 20010904//EN"
 "http://www.w3.org/TR/2001/REC-SVG-20010904/DTD/svg10.dtd">
<svg version="1.0" xmlns="http://www.w3.org/2000/svg"
 width="480.000000pt" height="360.000000pt" viewBox="0 0 480.000000 360.000000"
 preserveAspectRatio="xMidYMid meet">
<metadata>
Created by potrace 1.16, written by Peter Selinger 2001-2019
</metadata>
<rect width="1" height="360" fill="#000000"/>
<rect x="479" width="1" height="360" fill="#000000"/>
<rect width="480" height="1" fill="#000000"/>
<rect y="359" width="480" height="1" fill="#000000"/>
<g transform="translate(0.000000,360.000000) scale(0.100000,-0.100000)"
fill="#000000" stroke="none">
<path d="M805 3430 c10 -31 -3 -42 -28 -25 -31 21 -46 18 -19 -4 30 -26 28
-41 -5 -42 -16 0 -22 -3 -13 -6 8 -3 25 -10 38 -14 28 -11 23 -21 -37 -85 -37
-38 -49 -45 -71 -41 -22 5 -28 1 -38 -25 -9 -24 -16 -29 -32 -25 -25 6 -26
-10 -2 -36 16 -19 16 -19 -8 -12 -20 6 -15 -3 28 -45 47 -47 52 -57 52 -96 0
-25 7 -61 16 -82 8 -20 18 -66 21 -102 5 -61 3 -67 -28 -110 -20 -28 -24 -38
-11 -26 13 11 22 14 22 7 0 -6 -10 -19 -21 -29 -40 -33 -49 -44 -55 -68 -4
-15 -1 -31 9 -42 8 -9 18 -28 23 -42 5 -14 23 -47 39 -73 24 -39 39 -51 79
-65 47 -16 51 -21 84 -92 25 -53 35 -87 34 -117 -1 -30 3 -45 15 -52 28 -15
24 -68 -8 -116 -16 -24 -43 -87 -60 -142 -69 -219 -119 -328 -194 -418 -57
-68 -115 -175 -115 -213 0 -18 9 -41 22 -55 25 -27 95 -57 133 -57 35 0 37
-11 14 -76 -13 -39 -24 -106 -30 -197 -7 -93 -16 -152 -28 -181 -14 -31 -16
-47 -9 -61 19 -32 -8 -170 -39 -201 -17 -17 -19 -29 -28 -155 -6 -74 -5 -78
21 -98 15 -12 33 -21 42 -21 8 0 50 -10 94 -22 66 -18 79 -25 75 -39 -4 -17 7
-18 137 -21 77 -2 204 -1 281 2 l140 5 13 27 c7 16 26 42 42 60 44 48 71 113
77 187 5 59 3 68 -17 86 -12 11 -41 27 -63 35 -32 12 -43 21 -45 40 -2 14 -8
35 -14 48 -9 17 -9 31 0 56 8 20 10 55 6 93 -4 33 -1 98 6 145 10 74 9 97 -5
168 l-17 83 50 51 c28 28 63 76 78 106 25 47 28 65 28 140 -1 90 -14 192 -40
300 -43 187 -78 310 -99 350 l-23 45 20 39 c14 28 19 50 15 75 -19 121 -39
206 -56 241 -10 21 -16 41 -13 44 11 11 56 6 125 -15 85 -25 126 -20 161 22
14 17 26 36 26 42 0 7 -30 57 -65 111 -49 76 -62 103 -53 113 6 7 18 13 28 13
42 0 100 86 100 148 -1 88 -80 180 -164 189 -38 5 -47 1 -81 -28 -21 -19 -44
-48 -52 -66 -12 -31 -33 -45 -33 -23 0 5 -16 18 -37 27 -37 18 -40 22 -67 82
-21 44 -20 52 5 104 l21 44 -37 36 c-24 23 -51 39 -74 42 -83 14 -98 18 -133
38 -39 21 -49 37 -24 37 24 0 30 21 8 27 -11 3 -23 12 -26 20 -3 8 -11 11 -17
7 -6 -3 -15 0 -20 7 -8 12 -11 11 -20 -3 -15 -26 -26 -22 -38 12 -11 33 -26
42 -16 10z m157 -2415 c26 -10 38 -11 46 -3 8 8 18 8 34 1 13 -5 38 -8 56 -6
27 3 34 0 41 -20 18 -46 50 -348 40 -374 -12 -32 -12 -80 1 -88 14 -8 13 -61
-1 -88 -16 -29 -28 -37 -64 -37 -16 0 -87 -10 -158 -21 -103 -17 -130 -19
-142 -9 -9 7 -13 21 -10 30 3 10 -2 48 -11 84 -16 63 -16 69 0 104 9 21 16 58
15 82 -1 35 50 270 76 348 6 16 35 15 77 -3z"/>
<path d="M2728 3282 c42 -39 43 -82 5 -112 -21 -16 -37 -20 -62 -16 -33 5 -33
5 -16 -15 10 -10 16 -21 14 -22 -33 -25 -116 -92 -159 -128 -56 -47 -90 -61
-147 -59 -23 0 -33 -4 -33 -15 0 -8 4 -15 9 -15 4 0 23 -28 41 -62 l33 -61
-17 -46 c-28 -79 -20 -143 24 -189 13 -14 31 -56 42 -100 21 -84 38 -114 38
-68 l0 29 20 -26 c12 -15 22 -29 23 -33 1 -4 -49 -9 -112 -12 -91 -3 -117 -8
-131 -22 -25 -25 -105 -40 -208 -40 -143 0 -157 5 -182 59 -22 47 -90 121
-111 121 -33 0 -217 -65 -237 -83 -30 -27 -75 -114 -67 -128 4 -5 16 -7 27 -3
13 4 26 -1 38 -14 17 -18 28 -20 95 -15 93 6 94 5 166 -119 60 -103 75 -112
164 -105 l60 4 1 -36 c1 -33 -2 -38 -40 -55 -62 -29 -76 -44 -76 -87 0 -21 -5
-41 -10 -44 -7 -4 -6 -13 1 -26 5 -11 7 -29 3 -41 -5 -18 -3 -20 15 -15 32 8
35 -10 4 -27 -56 -30 -56 -30 -37 -69 12 -26 24 -37 39 -37 22 0 35 9 119 83
l44 38 36 -22 c42 -25 97 -21 173 12 24 10 61 19 82 19 35 0 39 -3 60 -51 l23
-50 -25 -27 c-22 -23 -98 -168 -173 -327 -10 -22 -60 -95 -110 -162 -51 -67
-100 -142 -109 -166 -16 -44 -16 -45 8 -98 17 -36 39 -64 67 -84 23 -16 57
-42 75 -58 18 -15 49 -34 69 -42 20 -8 36 -19 36 -24 0 -5 20 -14 44 -20 52
-13 54 -15 62 -74 5 -36 2 -55 -17 -94 -21 -43 -24 -62 -24 -173 0 -79 -5
-139 -13 -163 -21 -57 -7 -67 88 -67 l78 0 12 35 c6 20 9 52 5 73 -6 39 4 88
57 280 21 78 37 116 50 123 22 12 24 7 33 -85 3 -40 21 -112 44 -175 33 -91
38 -116 36 -178 l-2 -73 92 0 92 0 -3 103 c-1 56 2 119 7 139 8 31 5 47 -14
95 -20 48 -23 69 -18 118 l6 60 80 28 c44 15 83 35 88 43 5 8 20 27 35 42 15
15 36 47 46 71 27 60 14 107 -77 273 -33 60 -51 123 -92 319 -19 94 -43 178
-60 212 l-27 57 24 33 c39 51 39 53 11 93 -26 37 -27 46 -27 154 -1 63 5 155
12 203 10 61 11 97 4 116 -9 27 -8 29 16 34 14 3 60 2 103 0 80 -6 129 1 129
17 0 5 -12 21 -27 35 -27 24 -31 25 -150 23 -72 -2 -126 1 -132 7 -11 12 13
46 46 63 12 7 28 31 36 54 9 24 24 67 35 96 19 49 20 58 7 137 -8 46 -19 94
-25 105 -12 23 -9 29 39 83 26 28 26 29 6 44 -11 8 -31 19 -45 24 -14 5 -37
27 -50 48 -14 22 -54 74 -89 116 l-63 76 22 24 c17 18 20 28 13 37 -6 7 -14
27 -17 44 -8 38 -40 69 -80 78 l-29 7 31 -29z m367 -1063 c-3 -4 -22 -7 -43
-5 -20 2 -57 5 -82 6 l-45 3 50 6 c61 7 127 2 120 -10z m-992 4 c-13 -2 -35
-2 -50 0 -16 2 -5 4 22 4 28 0 40 -2 28 -4z m-38 -33 c-28 -12 -63 -12 -70 0
-4 6 12 10 42 9 36 0 43 -3 28 -9z"/>
</g>
</svg>
