<?xml version="1.0" standalone="no"?>
<!DOCTYPE svg PUBLIC "-//W3C//DTD SVG 20010904//EN"
 "http://www.w3.org/TR/2001/REC-SVG-20010904/DTD/svg10.dtd">
<svg version="1.0" xmlns="http://www.w3.org/2000/svg"
 width="480.000000pt" height="360.000000pt" viewBox="0 0 480.000000 360.000000"
 preserveAspectRatio="xMidYMid meet">
<metadata>
Created by potrace 1.16, written by Peter Selinger 2001-2019
</metadata>
<rect width="1" height="360" fill="#000000"/>
<rect x="479" width="1" height="360" fill="#000000"/>
<rect width="480" height="1" fill="#000000"/>
<rect y="359" width="480" height="1" fill="#000000"/>
<g transform="translate(0.000000,360.000000) scale(0.100000,-0.100000)"
fill="#000000" stroke="none">
<path d="M0 3580 c0 -13 7 -20 20 -20 11 0 20 -5 20 -11 0 -6 -9 -9 -20 -6
-20 5 -20 0 -20 -1769 l0 -1774 1293 0 1293 0 13 112 c7 62 17 155 21 206 7
81 12 99 37 135 50 70 55 86 69 211 8 67 14 126 14 133 0 6 -24 19 -52 29 -29
9 -69 25 -88 34 -19 10 -59 23 -88 30 -51 12 -55 11 -75 -9 -12 -12 -38 -52
-58 -89 -45 -85 -62 -94 -165 -84 -43 4 -97 4 -119 0 -22 -5 -58 -11 -80 -14
-22 -4 -57 -15 -77 -25 -49 -25 -54 -25 -180 16 -105 34 -111 35 -192 26 -62
-7 -93 -16 -121 -35 -41 -28 -65 -32 -97 -15 -16 9 -39 9 -90 -1 -73 -13 -79
-10 -148 54 -8 8 -27 20 -42 27 -16 7 -28 16 -28 20 0 5 -19 6 -42 3 -75 -10
-272 45 -300 84 -7 10 -38 40 -68 67 -33 29 -66 69 -82 102 -15 30 -32 61 -39
69 -6 8 -9 20 -6 28 3 8 1 45 -5 83 -11 61 -16 72 -55 108 -42 39 -43 41 -32
75 6 19 10 50 10 67 -1 25 6 40 29 60 26 24 32 39 41 106 7 44 16 77 23 77 6
0 47 30 91 67 99 82 132 103 168 103 31 0 36 14 10 29 -14 7 -18 24 -19 73 -1
35 -5 87 -9 116 -7 46 -4 59 15 95 16 28 23 55 21 83 -2 53 45 118 112 154 26
14 59 39 72 56 13 17 37 36 52 43 16 6 37 25 48 42 33 50 83 82 136 87 l47 4
-5 34 c-7 43 15 69 69 86 28 8 38 17 38 32 0 27 15 50 28 43 15 -10 40 24 47
64 6 35 16 46 140 166 22 21 50 49 62 63 12 14 37 40 55 58 21 21 40 54 52 95
11 34 26 69 33 78 15 18 89 30 208 33 47 2 96 11 148 30 61 22 84 26 100 18
12 -5 58 -22 102 -38 69 -25 82 -34 97 -64 29 -58 75 -90 130 -90 27 0 48 5
48 11 0 6 10 9 22 7 31 -4 43 -72 27 -151 -13 -64 -7 -77 37 -77 21 0 30 -16
39 -65 12 -68 36 -169 41 -174 4 -3 11 2 18 13 20 33 48 67 52 63 7 -7 -29
-72 -48 -85 -23 -17 -23 -28 2 -35 15 -4 20 0 20 16 1 19 3 17 15 -8 8 -18 14
-23 14 -13 1 9 21 36 45 60 42 42 44 46 39 91 -4 31 -2 47 6 47 6 0 11 -16 11
-35 0 -19 4 -35 8 -35 13 0 42 68 36 84 -7 19 14 58 27 51 5 -4 6 -12 3 -18
-5 -8 -3 -9 4 -2 6 6 18 24 26 40 16 29 16 29 16 5 0 -23 -61 -129 -110 -192
-12 -16 -16 -28 -10 -28 6 0 8 -4 5 -10 -3 -5 -14 -10 -25 -10 -11 0 -32 -21
-53 -52 -51 -79 -61 -100 -49 -107 7 -4 8 -19 3 -42 -4 -19 -4 -45 1 -58 5
-13 6 -32 3 -42 -4 -11 -3 -29 1 -41 l8 -23 7 25 7 25 1 -25 c2 -24 3 -23 25
12 23 38 36 40 36 6 0 -10 5 -18 10 -18 6 0 10 5 10 11 0 6 7 9 15 5 8 -3 14
-2 14 2 -3 18 2 32 11 32 6 0 10 -7 10 -16 0 -8 6 -22 14 -30 12 -12 17 -10
33 15 21 32 102 105 87 79 -5 -10 -26 -35 -45 -55 -20 -21 -39 -49 -43 -63 -6
-19 8 -8 54 40 84 88 104 116 125 175 10 28 24 57 30 65 6 8 26 45 43 82 24
51 30 76 26 105 -5 37 -5 38 10 13 l14 -25 11 28 c6 16 11 34 12 40 0 7 5 -1
11 -16 9 -24 4 -41 -38 -125 -26 -53 -57 -110 -67 -125 -11 -16 -17 -30 -15
-33 3 -2 43 18 89 46 46 27 87 50 92 50 4 0 5 12 1 28 -3 15 -7 50 -10 77 l-4
50 18 -52 c27 -79 33 -81 83 -31 24 24 63 66 87 93 46 53 46 46 0 -22 -15 -23
-28 -46 -28 -51 0 -6 -18 -25 -40 -42 -22 -18 -47 -45 -56 -62 -10 -20 -20
-27 -32 -24 -9 3 -24 1 -32 -4 -24 -15 86 -3 141 15 27 9 49 20 49 24 0 4 14
22 30 41 23 26 28 29 19 11 -11 -22 -10 -23 15 -17 37 9 32 0 -14 -29 -23 -14
-38 -30 -35 -35 3 -5 -16 -12 -42 -15 -27 -4 -57 -11 -68 -16 -11 -5 -50 -16
-88 -23 -37 -8 -87 -24 -110 -35 -47 -23 -137 -107 -137 -128 0 -7 -11 -18
-24 -24 -13 -6 -27 -19 -30 -28 -3 -9 -11 -24 -18 -33 -16 -22 -2 -36 20 -20
9 7 29 17 45 23 15 6 27 15 27 20 0 5 6 9 14 9 8 0 23 27 37 65 12 36 25 63
27 60 2 -2 -3 -25 -12 -51 -9 -26 -14 -49 -12 -52 3 -2 25 12 49 32 48 40 57
43 57 22 0 -8 -19 -24 -42 -36 -24 -12 -58 -35 -76 -51 -18 -16 -36 -29 -41
-29 -4 0 -22 -13 -40 -29 -33 -29 -34 -51 -5 -51 30 0 7 -25 -29 -31 -20 -3
-43 -11 -51 -19 -20 -16 -21 -50 -2 -50 9 0 12 -7 9 -21 -5 -18 -3 -20 18 -15
22 7 22 5 -7 -22 -50 -47 -59 -98 -10 -53 26 23 76 55 76 48 0 -2 -31 -30 -70
-61 -87 -70 -96 -103 -12 -47 31 21 72 43 91 50 19 6 42 17 50 25 9 7 41 19
71 26 80 18 147 55 210 114 9 8 21 35 27 59 11 38 9 55 -7 116 -11 39 -20 76
-19 83 0 16 23 -42 39 -102 11 -41 13 -43 26 -25 22 30 27 82 14 131 -7 24
-10 47 -6 51 3 3 6 -3 6 -15 0 -12 4 -22 9 -22 5 0 12 -10 15 -22 6 -23 6 -23
22 -3 9 11 20 32 26 48 5 15 14 27 19 27 12 0 11 -27 -1 -35 -5 -3 -10 -11
-10 -17 0 -7 5 -6 14 1 12 10 17 8 26 -8 13 -26 33 -27 56 -4 16 17 17 16 12
-7 -3 -14 -9 -33 -13 -44 -7 -16 -6 -17 13 -7 23 12 26 28 16 79 -6 28 -9 30
-26 21 -11 -6 -22 -8 -25 -5 -3 3 3 9 13 12 10 4 29 16 40 26 l21 19 -5 -71
-5 -72 31 16 c17 9 33 12 36 7 3 -4 18 -6 33 -4 16 2 1 -5 -32 -17 -76 -26
-73 -25 -116 -52 -79 -50 -109 -73 -106 -83 4 -10 89 -34 123 -35 12 0 21 -7
21 -15 0 -18 -33 -19 -67 -2 -27 14 -68 15 -88 3 -7 -4 -16 -4 -22 -1 -16 10
-46 -12 -59 -42 -11 -27 -97 -90 -151 -112 l-25 -10 30 0 c32 -1 105 30 173
73 23 14 44 26 47 26 3 0 -6 -18 -20 -40 -13 -21 -21 -41 -17 -43 4 -3 26 -8
50 -12 23 -4 40 -10 37 -15 -2 -4 4 -15 15 -25 25 -22 27 -44 2 -24 -9 8 -29
21 -43 28 -29 14 -168 19 -189 6 -8 -5 -50 -9 -95 -9 -75 -1 -84 -4 -145 -41
-36 -21 -74 -46 -85 -56 -11 -9 -41 -24 -66 -33 -25 -10 -63 -33 -85 -53 -21
-19 -65 -53 -97 -75 -32 -22 -61 -46 -64 -54 -3 -7 16 -42 41 -76 82 -113 69
-106 116 -62 22 22 51 41 62 44 13 3 25 17 29 30 5 22 7 23 14 8 4 -10 13 -18
20 -18 16 0 150 66 184 91 14 10 51 22 81 27 43 6 55 11 54 25 -2 22 8 22 28
-3 23 -26 67 -37 80 -19 7 11 11 11 15 2 2 -7 8 -13 12 -13 4 0 45 29 91 65
46 36 89 65 95 65 7 0 20 9 29 19 17 18 16 21 -18 51 -20 18 -33 36 -31 40 2
4 -6 17 -19 29 l-23 22 53 56 c63 66 82 68 23 3 -33 -38 -36 -45 -21 -48 12
-2 28 -23 42 -53 13 -27 29 -54 36 -59 13 -12 44 -3 44 13 0 6 7 19 16 28 15
17 15 21 -2 46 -10 16 -17 36 -16 45 6 36 -18 132 -37 147 -18 14 -18 15 2 31
18 15 19 21 9 50 -19 52 -16 60 21 59 23 -1 26 -3 10 -6 -14 -3 -23 -11 -22
-21 1 -31 34 -98 68 -138 l33 -39 -6 95 c-3 52 -8 104 -11 116 -8 24 18 55 43
53 15 -1 15 -2 0 -6 -22 -6 -33 -45 -20 -70 6 -10 11 -46 12 -79 3 -75 -8
-263 -16 -275 -3 -5 0 -9 5 -9 6 0 11 5 11 10 0 6 7 10 15 10 8 0 37 14 65 30
28 17 56 28 61 24 15 -9 81 46 75 62 -4 11 -1 12 13 5 10 -6 20 -9 23 -8 2 1
-11 -12 -29 -30 -21 -19 -30 -34 -23 -38 5 -3 8 -11 5 -16 -8 -12 -52 -12 -60
1 -3 6 -11 10 -18 10 -8 0 -8 -3 1 -12 17 -17 15 -25 -9 -31 -13 -4 -19 -11
-16 -19 3 -7 16 -38 28 -68 13 -30 25 -57 27 -59 8 -12 121 121 144 171 15 31
32 60 39 64 12 7 12 6 -9 -45 -14 -35 19 4 36 42 11 23 33 55 51 71 23 22 31
38 31 65 0 22 4 31 9 25 16 -16 -5 -91 -35 -130 -16 -20 -42 -55 -58 -78 -15
-23 -40 -54 -55 -70 -23 -25 -23 -27 -5 -17 12 6 42 26 67 45 57 44 78 55 154
81 79 28 74 16 -7 -16 -33 -13 -60 -27 -60 -31 0 -5 -7 -8 -16 -8 -14 0 -111
-69 -153 -108 -29 -27 0 -23 44 7 25 17 49 31 52 31 7 0 -31 -35 -80 -72 -30
-23 -54 -74 -41 -87 7 -7 85 52 105 81 11 15 26 28 33 28 7 0 37 22 67 49 30
27 57 47 61 45 5 -3 8 1 8 8 0 7 15 19 33 27 17 8 40 21 50 29 16 15 17 14 11
-4 -7 -17 -6 -17 9 -5 10 8 15 16 13 19 -7 6 44 72 55 72 4 0 0 -13 -9 -29
-21 -38 -9 -50 28 -27 17 9 30 12 30 7 0 -6 -4 -11 -9 -11 -12 0 -136 -103
-200 -166 -51 -50 -53 -54 -29 -54 14 0 42 11 62 25 40 27 40 28 26 -33 -12
-51 -1 -83 19 -58 8 9 18 16 24 16 18 0 36 34 38 70 l1 35 8 -29 c5 -16 7 -33
4 -38 -8 -13 -1 -10 70 23 l66 31 0 804 0 804 -2400 0 c-2393 0 -2400 0 -2400
-20z m1895 -111 c12 -19 -5 -23 -22 -6 -16 16 -16 17 -1 17 9 0 20 -5 23 -11z
m780 -179 c-3 -5 -10 -10 -16 -10 -5 0 -9 5 -9 10 0 6 7 10 16 10 8 0 12 -4 9
-10z m702 -302 c-3 -7 -5 -2 -5 12 0 14 2 19 5 13 2 -7 2 -19 0 -25z m412
-153 c-12 -11 -79 -34 -79 -27 0 13 69 44 79 36 2 -2 2 -6 0 -9z m-119 -101
c0 -8 -5 -12 -10 -9 -6 4 -8 11 -5 16 9 14 15 11 15 -7z m-73 -126 c-3 -7 -5
-2 -5 12 0 14 2 19 5 13 2 -7 2 -19 0 -25z m303 -62 c0 -2 -7 -6 -15 -10 -8
-3 -15 -1 -15 4 0 6 7 10 15 10 8 0 15 -2 15 -4z m605 -235 c-3 -12 -15 -26
-26 -32 -19 -9 -18 -8 3 25 25 37 34 40 23 7z m105 -4 c0 -2 -12 -14 -27 -28
-20 -18 -24 -19 -13 -4 18 24 40 42 40 32z m85 -57 c-3 -5 -12 -10 -18 -10 -7
0 -6 4 3 10 19 12 23 12 15 0z m85 -20 c-6 -11 -16 -20 -22 -20 -6 0 -3 9 7
20 10 11 20 20 22 20 2 0 -1 -9 -7 -20z m-300 0 c-8 -5 -19 -10 -25 -10 -5 0
-3 5 5 10 8 5 20 10 25 10 6 0 3 -5 -5 -10z m-45 -20 c-3 -5 -11 -10 -16 -10
-6 0 -7 5 -4 10 3 6 11 10 16 10 6 0 7 -4 4 -10z m-105 -10 c0 -5 -5 -10 -11
-10 -5 0 -7 5 -4 10 3 6 8 10 11 10 2 0 4 -4 4 -10z m-3820 -60 c0 -5 -4 -10
-10 -10 -5 0 -10 5 -10 10 0 6 5 10 10 10 6 0 10 -4 10 -10z m3310 0 c0 -5 -7
-10 -15 -10 -8 0 -15 5 -15 10 0 6 7 10 15 10 8 0 15 -4 15 -10z m476 -195
c-36 -19 -45 -19 -20 0 10 8 26 14 34 15 8 0 2 -7 -14 -15z m-4171 -657 c21
-9 35 -28 20 -28 -12 0 -55 24 -55 32 0 11 4 10 35 -4z"/>
<path d="M2730 2704 c0 -8 -13 -32 -29 -52 -33 -42 -47 -102 -31 -132 15 -28
25 -25 50 15 18 29 21 44 15 81 -5 33 -2 52 9 69 20 30 20 35 1 35 -8 0 -15
-7 -15 -16z"/>
<path d="M2781 2511 c-7 -12 -11 -29 -10 -39 4 -24 -10 -62 -31 -85 -19 -20
-33 -57 -21 -57 8 0 51 29 70 48 8 8 11 24 7 43 -3 19 -2 28 4 24 12 -8 13 55
1 74 -7 11 -11 9 -20 -8z"/>
<path d="M3669 2501 c-9 -10 -19 -35 -23 -54 l-7 -37 35 23 c30 19 66 64 66
81 0 14 -56 3 -71 -13z"/>
<path d="M2620 2437 c-8 -26 -28 -56 -58 -83 -45 -42 -46 -43 -28 -63 18 -20
18 -20 45 12 14 18 32 38 38 45 7 7 13 26 13 41 0 16 7 34 15 41 19 16 19 36
1 43 -9 4 -17 -8 -26 -36z"/>
<path d="M2915 2440 c-3 -5 1 -10 9 -10 9 0 16 5 16 10 0 6 -4 10 -9 10 -6 0
-13 -4 -16 -10z"/>
<path d="M2846 2372 c-3 -6 -1 -14 5 -17 14 -9 20 -2 10 14 -6 8 -11 9 -15 3z"/>
<path d="M3060 2360 c0 -5 5 -10 10 -10 6 0 10 5 10 10 0 6 -4 10 -10 10 -5 0
-10 -4 -10 -10z"/>
<path d="M2993 2353 c-20 -4 -74 -63 -57 -63 3 0 1 -7 -6 -15 -6 -8 -9 -19 -5
-25 3 -5 1 -10 -6 -10 -11 0 -73 -65 -116 -123 -13 -17 -32 -61 -44 -98 -22
-70 -22 -70 17 -128 2 -2 16 7 31 19 33 26 142 90 153 90 4 0 17 31 30 69 18
55 20 73 10 91 -6 11 -9 26 -7 33 3 7 8 -1 12 -16 13 -47 30 -24 36 49 6 74
-4 101 -26 71 -9 -13 -15 -15 -21 -6 -4 7 3 20 20 31 23 17 28 41 8 37 -4 -1
-17 -4 -29 -6z"/>
<path d="M3087 2331 c-3 -14 -1 -18 9 -14 8 3 14 11 14 19 0 21 -17 17 -23 -5z"/>
<path d="M2720 2298 c-51 -24 -60 -33 -53 -59 3 -10 6 -19 7 -19 0 0 22 7 48
15 59 17 97 44 98 68 0 24 -43 22 -100 -5z"/>
<path d="M3860 2297 c0 -34 46 -134 57 -123 8 7 -26 106 -42 122 -12 13 -15
13 -15 1z"/>
<path d="M2460 2215 c-5 -6 -12 -40 -15 -74 -3 -49 0 -68 15 -94 11 -18 20
-28 20 -23 0 5 18 -14 41 -43 22 -28 47 -51 55 -51 8 0 14 -4 14 -10 0 -20
-23 -9 -56 26 -23 24 -34 30 -34 19 0 -13 32 -49 90 -100 6 -5 17 -19 25 -30
21 -31 27 -13 11 41 -47 164 -57 211 -50 250 l6 41 -56 31 c-43 23 -58 27 -66
17z"/>
<path d="M2717 2159 c-4 -16 -3 -18 9 -8 16 13 19 29 5 29 -5 0 -11 -9 -14
-21z"/>
<path d="M4539 2101 c-26 -26 -38 -51 -24 -51 9 0 75 62 75 71 0 17 -22 9 -51
-20z"/>
<path d="M3890 2055 c0 -8 5 -15 10 -15 6 0 10 7 10 15 0 8 -4 15 -10 15 -5 0
-10 -7 -10 -15z"/>
<path d="M4020 2040 c-15 -4 -24 -13 -24 -23 1 -9 -2 -17 -6 -17 -4 0 -10 -10
-13 -22 -2 -13 -8 -31 -12 -42 -7 -16 -5 -17 16 -11 12 4 29 13 36 20 7 7 18
15 24 17 6 2 9 21 7 44 -3 37 -5 40 -28 34z"/>
<path d="M3873 2005 c-17 -19 -16 -25 2 -25 8 0 15 2 15 4 0 2 3 11 6 20 8 20
-7 20 -23 1z"/>
<path d="M4165 1944 c-37 -36 -42 -55 -8 -33 25 16 67 69 55 69 -6 0 -27 -16
-47 -36z"/>
<path d="M4510 1943 c-25 -12 -52 -22 -60 -23 -8 0 -31 -14 -50 -30 -19 -17
-61 -45 -93 -62 -31 -17 -56 -32 -55 -34 6 -5 163 28 217 45 45 14 58 24 74
54 10 20 17 44 15 54 -3 17 -6 17 -48 -4z"/>
<path d="M4700 1927 c-85 -42 -117 -72 -66 -63 14 3 26 0 26 -5 0 -5 -12 -9
-27 -9 -37 0 -133 -26 -146 -39 -8 -8 -2 -11 19 -12 16 -1 22 -3 12 -6 -10 -2
-18 -9 -18 -14 0 -15 32 -10 54 9 21 17 21 17 2 -5 -11 -13 -27 -23 -36 -23
-11 0 -16 -7 -15 -22 2 -21 7 -23 46 -20 24 2 46 7 47 12 2 6 13 10 25 10 18
0 14 -5 -18 -25 -22 -13 -55 -25 -74 -25 -27 0 -32 -3 -27 -17 6 -16 6 -16
-12 0 -10 9 -24 17 -30 17 -7 0 -12 10 -12 21 0 18 -4 20 -27 15 -73 -18 -83
-19 -83 -2 0 19 -41 31 -78 21 -15 -4 -40 -8 -57 -9 -34 -2 -80 -13 -110 -26
-11 -5 -27 -11 -35 -13 -8 -3 -2 -6 13 -6 37 -1 26 -17 -16 -24 -19 -3 -55
-15 -80 -26 -25 -12 -49 -21 -53 -21 -3 0 -23 -13 -43 -29 -20 -15 -58 -36
-86 -45 -89 -29 -261 -177 -357 -308 -31 -42 -60 -70 -90 -84 -23 -12 -68 -34
-98 -49 -62 -30 -150 -87 -150 -96 0 -4 7 -12 15 -19 12 -10 18 -10 30 0 8 6
27 13 42 15 15 1 36 6 46 10 13 6 16 4 11 -9 -7 -19 0 -20 26 -6 16 8 18 8 14
-5 -5 -11 2 -15 27 -16 52 -2 62 1 87 28 13 15 27 22 30 17 4 -5 13 -9 20 -9
29 0 12 -21 -22 -26 -52 -9 -66 -25 -27 -34 17 -3 40 -4 51 0 24 7 26 -1 5
-21 -13 -13 -21 -13 -69 1 -30 9 -66 13 -80 9 -16 -4 -26 -2 -26 5 0 13 -86
15 -95 2 -3 -5 6 -21 19 -34 21 -21 32 -24 73 -21 26 1 37 1 23 -2 -84 -16
-89 -24 -33 -50 20 -10 31 -20 24 -22 -9 -3 -9 -7 0 -18 14 -17 -2 -19 -18 -3
-9 9 -18 8 -37 -4 -20 -14 -26 -14 -35 -3 -7 8 -11 18 -10 22 1 5 -1 21 -5 37
-7 22 -14 27 -40 28 -17 0 -25 3 -18 6 6 2 12 10 12 17 0 16 -55 56 -77 56
-27 0 -63 -28 -63 -49 0 -10 -12 -50 -26 -87 -24 -63 -26 -78 -21 -169 3 -55
10 -113 16 -129 7 -16 12 -95 13 -175 2 -114 -2 -158 -15 -203 -16 -51 -16
-72 0 -130 4 -17 38 -18 535 -18 l530 0 -7 75 c-4 42 -17 115 -29 163 l-22 87
-47 3 c-36 2 -50 8 -58 24 -18 34 -5 163 24 248 26 74 51 257 36 266 -4 2 -10
40 -14 83 -5 61 -3 93 10 137 17 60 14 104 -9 104 -8 0 -17 -12 -21 -27 -17
-69 -78 -92 -140 -53 -31 19 -33 19 -56 2 -37 -28 -55 -32 -78 -16 -15 11 -21
26 -21 54 0 21 5 42 10 45 6 3 10 14 10 24 0 10 10 27 23 38 25 24 113 64 121
56 11 -11 64 19 98 55 29 31 48 40 114 56 75 17 79 17 91 0 7 -10 13 -25 13
-34 0 -8 9 -24 21 -34 16 -13 20 -25 16 -46 -4 -18 -1 -32 8 -40 9 -7 14 -26
12 -47 -1 -26 -7 -35 -25 -40 -15 -3 -21 -11 -18 -20 3 -8 6 -18 6 -22 0 -4 9
-16 19 -28 11 -11 29 -40 41 -64 29 -57 75 -110 86 -99 5 5 15 5 23 1 11 -7 8
-18 -12 -58 -13 -28 -28 -77 -31 -109 -7 -55 -5 -61 22 -94 25 -29 37 -35 68
-35 21 0 39 -5 41 -12 3 -7 -2 -13 -11 -13 -24 0 -19 -18 11 -44 24 -21 26
-26 14 -40 -10 -12 -17 -14 -25 -6 -15 15 -24 12 -29 -8 -4 -14 -5 -14 -6 3
-1 20 -73 105 -89 105 -5 0 -15 11 -22 25 -15 29 -44 35 -36 8 3 -10 10 -38
16 -63 16 -64 60 -193 71 -206 14 -17 14 -71 0 -88 -16 -19 -52 -21 -98 -4
-55 20 -62 2 -27 -84 20 -52 30 -95 32 -150 l4 -78 319 0 319 0 0 985 c0 542
-3 985 -7 984 -5 0 -46 -19 -93 -42z m10 -51 c0 -2 -9 -6 -20 -9 -11 -3 -18
-1 -14 4 5 9 34 13 34 5z m-10 -406 c0 -5 -4 -10 -10 -10 -5 0 -10 5 -10 10 0
6 5 10 10 10 6 0 10 -4 10 -10z m-1430 -430 c0 -5 -5 -10 -11 -10 -5 0 -7 5
-4 10 3 6 8 10 11 10 2 0 4 -4 4 -10z"/>
<path d="M4297 1894 c-76 -58 -121 -104 -102 -104 14 0 64 44 59 52 -3 4 2 8
11 8 28 0 89 37 113 69 45 61 27 56 -81 -25z"/>
<path d="M3731 1919 c-55 -25 -62 -31 -51 -45 10 -11 28 -14 63 -12 40 2 54 8
69 28 19 26 16 61 -6 59 -6 0 -40 -14 -75 -30z"/>
<path d="M3852 1905 c-28 -35 -28 -49 -1 -35 22 12 33 33 27 51 -2 7 -13 1
-26 -16z"/>
<path d="M3988 1913 c-21 -11 -28 -22 -28 -44 0 -20 4 -29 13 -26 6 2 12 9 12
15 0 6 7 17 16 24 17 14 33 49 21 47 -4 -1 -19 -8 -34 -16z"/>
<path d="M4058 1923 c-10 -3 -21 -16 -24 -30 -4 -13 -17 -36 -30 -50 -21 -23
-34 -73 -19 -73 16 0 68 49 80 75 31 68 29 86 -7 78z"/>
<path d="M3855 1848 c-41 -15 -41 -13 -7 -52 16 -19 32 -40 34 -48 4 -11 8
-11 21 1 22 18 22 63 0 89 -15 17 -23 18 -48 10z"/>
<path d="M3585 1810 c-27 -11 -58 -19 -67 -20 -30 0 -20 -17 12 -22 17 -3 30
-1 30 4 0 4 5 8 10 8 6 0 5 -8 -2 -20 -19 -29 -3 -35 47 -16 51 20 73 49 54
72 -14 17 -22 17 -84 -6z"/>
<path d="M3770 1812 c0 -4 6 -14 13 -21 10 -11 9 -13 -4 -8 -20 7 -32 -35 -19
-67 6 -19 8 -17 14 12 4 17 11 32 15 32 9 0 6 -30 -5 -69 -6 -21 -5 -23 17
-16 55 17 59 33 27 100 -14 29 -29 45 -40 45 -10 0 -18 -4 -18 -8z"/>
<path d="M4133 1793 c-18 -9 -33 -20 -33 -24 0 -12 69 13 74 28 7 16 -1 16
-41 -4z"/>
<path d="M4439 1796 c-4 -3 -95 -15 -129 -16 -31 -1 14 -18 67 -25 40 -5 57
-3 77 10 14 10 23 21 20 26 -5 9 -27 12 -35 5z"/>
<path d="M3281 1761 c-34 -32 -43 -76 -13 -67 9 2 33 8 52 11 57 12 110 36
110 51 0 18 -40 34 -85 34 -23 0 -43 -9 -64 -29z"/>
<path d="M3462 1748 c-21 -21 -13 -28 31 -28 48 0 58 5 50 26 -6 17 -64 19
-81 2z"/>
<path d="M3687 1740 c-21 -25 -22 -34 -1 -26 10 4 14 1 11 -6 -2 -7 -13 -13
-25 -13 -11 0 -25 -5 -29 -9 -5 -5 -1 -6 7 -2 14 7 -12 -17 -35 -32 -15 -10
-55 -63 -55 -73 0 -22 31 -6 46 24 l17 32 9 -28 c6 -15 14 -24 20 -21 7 4 6 9
-2 14 -8 5 0 12 23 19 49 16 72 44 58 70 -6 11 -11 31 -11 45 0 31 -10 33 -33
6z"/>
<path d="M3596 1721 c-27 -12 -36 -20 -27 -25 19 -12 59 2 71 24 13 24 7 24
-44 1z"/>
<path d="M3191 1716 c-15 -8 -20 -16 -13 -20 13 -8 52 10 52 24 0 13 -10 12
-39 -4z"/>
<path d="M3450 1691 c-8 -6 -18 -7 -22 -4 -5 2 -15 -1 -23 -7 -8 -7 -26 -9
-44 -5 -16 3 -48 1 -70 -6 -33 -10 -41 -17 -41 -36 0 -13 -4 -33 -10 -43 -5
-10 -12 -43 -16 -73 -6 -48 -4 -57 15 -73 11 -10 21 -25 21 -32 0 -27 250 127
276 170 4 7 2 14 -4 16 -7 2 -12 21 -12 43 0 33 -4 41 -26 49 -30 12 -26 12
-44 1z"/>
<path d="M3543 1664 c-7 -18 11 -39 26 -30 17 11 13 46 -4 46 -9 0 -18 -7 -22
-16z"/>
<path d="M3120 1650 c0 -26 74 -141 83 -130 9 11 36 124 31 131 -8 13 -114 11
-114 -1z"/>
<path d="M3017 1604 c-11 -12 -8 -42 6 -48 6 -3 2 -3 -9 -1 -13 3 -29 -1 -38
-10 -19 -19 -19 -15 -5 -54 13 -36 19 -38 39 -11 13 17 40 28 40 16 0 -19 -22
-56 -30 -51 -20 12 -21 -24 -4 -85 10 -36 22 -59 28 -56 122 50 156 70 156 91
0 27 -27 52 -98 90 -32 17 -58 38 -60 48 -3 17 -1 17 20 6 12 -6 26 -16 29
-22 4 -5 25 -17 48 -28 58 -25 55 -2 -6 62 -46 47 -98 71 -116 53z"/>
<path d="M3570 1554 c-56 -31 -75 -49 -36 -34 40 15 86 43 86 52 0 10 4 11
-50 -18z"/>
<path d="M3384 1397 c-112 -57 -122 -65 -133 -99 -10 -33 -9 -62 5 -106 3 -10
11 -8 34 8 17 12 27 26 24 32 -4 6 -3 8 2 5 14 -8 26 1 117 89 69 67 107 113
107 130 0 14 -51 -5 -156 -59z m-101 -132 c-17 -23 -33 -32 -33 -19 0 7 40 44
47 44 2 0 -4 -11 -14 -25z"/>
<path d="M2750 1421 c0 -5 7 -14 15 -21 18 -15 42 1 31 19 -8 13 -46 15 -46 2z"/>
<path d="M2730 1360 c0 -6 5 -20 11 -31 8 -16 13 -18 25 -8 16 13 19 39 5 39
-5 0 -16 3 -25 6 -9 3 -16 1 -16 -6z"/>
<path d="M2780 1318 c-20 -32 -22 -51 -3 -44 8 3 20 6 28 6 17 0 26 35 12 49
-15 15 -20 14 -37 -11z"/>
<path d="M3145 1276 c-63 -29 -85 -50 -85 -83 0 -20 4 -24 18 -18 9 3 39 11
66 16 27 5 51 11 53 13 2 2 3 25 1 50 l-3 46 -50 -24z"/>
<path d="M2760 1231 c0 -8 53 -61 62 -61 4 0 8 15 8 33 0 31 -2 33 -35 33 -19
0 -35 -2 -35 -5z"/>
<path d="M3073 1148 c-28 -13 -29 -24 -6 -37 10 -5 15 -13 11 -17 -4 -4 -15
-1 -24 7 -14 12 -16 11 -13 -5 8 -39 32 -39 92 0 71 46 74 64 10 63 -27 0 -58
-5 -70 -11z"/>
<path d="M2707 1094 c-9 -19 -17 -52 -17 -74 0 -32 -5 -43 -31 -60 -33 -24
-30 -25 -87 28 -18 16 -27 15 -46 -4 -31 -31 -22 -37 80 -53 34 -5 80 -19 103
-30 47 -24 61 -26 61 -8 0 8 7 29 16 47 9 18 13 35 8 39 -15 10 -31 44 -39 81
-4 19 -13 43 -20 52 -10 16 -13 14 -28 -18z"/>
<path d="M4130 821 c16 -30 25 -32 26 -5 1 18 -3 24 -17 24 -16 0 -18 -3 -9
-19z"/>
</g>
</svg>
