<?xml version="1.0" standalone="no"?>
<!DOCTYPE svg PUBLIC "-//W3C//DTD SVG 20010904//EN"
 "http://www.w3.org/TR/2001/REC-SVG-20010904/DTD/svg10.dtd">
<svg version="1.0" xmlns="http://www.w3.org/2000/svg"
 width="480.000000pt" height="360.000000pt" viewBox="0 0 480.000000 360.000000"
 preserveAspectRatio="xMidYMid meet">
<metadata>
Created by potrace 1.16, written by Peter Selinger 2001-2019
</metadata>
<rect width="1" height="360" fill="#000000"/>
<rect x="479" width="1" height="360" fill="#000000"/>
<rect width="480" height="1" fill="#000000"/>
<rect y="359" width="480" height="1" fill="#000000"/>
<g transform="translate(0.000000,360.000000) scale(0.100000,-0.100000)"
fill="#000000" stroke="none">
<path d="M2266 3398 c-32 -22 -66 -54 -75 -70 -9 -17 -27 -47 -40 -67 -23 -34
-23 -38 -11 -101 16 -85 23 -96 61 -104 17 -3 44 -17 61 -31 16 -14 39 -25 51
-25 12 0 41 -17 64 -38 25 -23 65 -45 99 -55 32 -10 88 -38 126 -63 58 -39 75
-58 113 -122 25 -43 45 -87 45 -99 0 -18 6 -23 24 -23 14 0 28 -4 31 -10 22
-36 129 41 169 121 14 29 26 62 26 72 0 11 21 54 47 95 44 70 48 83 51 148 l4
72 -40 7 c-23 3 -50 17 -63 31 -27 29 -39 30 -88 4 -92 -46 -160 -32 -242 52
-22 23 -61 51 -87 63 -44 20 -122 94 -122 114 0 5 -17 15 -37 21 -21 7 -52 21
-69 31 -17 11 -33 19 -35 18 -2 0 -30 -18 -63 -41z"/>
</g>
</svg>
