<?xml version="1.0" standalone="no"?>
<!DOCTYPE svg PUBLIC "-//W3C//DTD SVG 20010904//EN"
 "http://www.w3.org/TR/2001/REC-SVG-20010904/DTD/svg10.dtd">
<svg version="1.0" xmlns="http://www.w3.org/2000/svg"
 width="480.000000pt" height="360.000000pt" viewBox="0 0 480.000000 360.000000"
 preserveAspectRatio="xMidYMid meet">
<metadata>
Created by potrace 1.16, written by Peter Selinger 2001-2019
</metadata>
<rect width="1" height="360" fill="#000000"/>
<rect x="479" width="1" height="360" fill="#000000"/>
<rect width="480" height="1" fill="#000000"/>
<rect y="359" width="480" height="1" fill="#000000"/>
<g transform="translate(0.000000,360.000000) scale(0.100000,-0.100000)"
fill="#000000" stroke="none">
<path d="M1861 2603 l-21 -18 35 -50 c77 -107 225 -386 225 -424 0 -15 6 -36
14 -46 10 -14 11 -26 3 -51 -9 -28 -6 -45 18 -105 30 -77 65 -109 118 -109 26
0 32 -8 69 -87 39 -86 40 -89 29 -143 -6 -30 -22 -117 -36 -193 -13 -75 -27
-142 -30 -147 -3 -5 -1 -38 4 -72 5 -35 15 -103 21 -153 l11 -89 -24 -18 c-24
-18 -25 -19 -10 -51 9 -17 22 -40 30 -49 16 -18 10 -38 -12 -38 -8 0 -44 25
-80 56 -39 33 -72 54 -80 50 -26 -10 -17 -21 56 -71 39 -27 76 -59 82 -72 5
-12 25 -32 44 -43 20 -12 34 -27 32 -38 -4 -40 3 -53 39 -71 20 -10 60 -30 87
-44 28 -14 65 -31 83 -38 33 -12 105 -79 204 -191 56 -64 84 -119 109 -221 18
-74 32 -78 258 -77 l189 2 4 23 c3 13 1 31 -4 40 -6 9 -7 23 -4 32 5 12 9 13
21 3 8 -7 15 -8 15 -2 0 5 -6 15 -14 21 -17 15 -17 51 0 44 15 -6 2 70 -16 92
-19 23 -3 31 20 10 11 -10 23 -15 28 -11 4 4 -6 19 -23 32 -16 13 -30 29 -30
36 0 6 -38 41 -83 77 -105 82 -287 301 -378 455 l-65 108 -3 112 c-1 91 -6
118 -23 152 -15 28 -22 63 -24 112 -3 61 0 74 18 94 32 35 53 83 69 156 18 87
18 151 -1 195 -8 20 -15 53 -15 73 0 27 -5 37 -20 41 -31 8 -43 71 -31 154 17
107 4 302 -24 364 -29 67 -76 119 -123 138 -142 57 -350 -154 -261 -267 11
-14 26 -26 32 -26 7 0 18 -9 25 -21 19 -30 -9 -72 -42 -63 -18 4 -29 -1 -45
-22 -11 -15 -21 -34 -21 -42 0 -12 -5 -11 -23 6 -13 12 -35 22 -50 22 -67 0
-83 23 -235 320 -84 165 -97 178 -141 143z m512 -763 c2 -30 2 -66 -2 -80 -6
-22 -9 -20 -29 27 -26 62 -27 65 -6 105 20 39 29 26 37 -52z m467 -1405 c12
-36 19 -72 16 -80 -8 -21 -220 96 -224 124 -3 20 1 21 91 21 l95 0 22 -65z
m471 -262 c13 -16 12 -17 -3 -4 -17 13 -22 21 -14 21 2 0 10 -8 17 -17z"/>
</g>
</svg>
