<?xml version="1.0" standalone="no"?>
<!DOCTYPE svg PUBLIC "-//W3C//DTD SVG 20010904//EN"
 "http://www.w3.org/TR/2001/REC-SVG-20010904/DTD/svg10.dtd">
<svg version="1.0" xmlns="http://www.w3.org/2000/svg"
 width="480.000000pt" height="360.000000pt" viewBox="0 0 480.000000 360.000000"
 preserveAspectRatio="xMidYMid meet">
<metadata>
Created by potrace 1.16, written by Peter Selinger 2001-2019
</metadata>
<rect width="1" height="360" fill="#000000"/>
<rect x="479" width="1" height="360" fill="#000000"/>
<rect width="480" height="1" fill="#000000"/>
<rect y="359" width="480" height="1" fill="#000000"/>
<g transform="translate(0.000000,360.000000) scale(0.100000,-0.100000)"
fill="#000000" stroke="none">
<path d="M0 1800 l0 -1800 878 0 879 0 -1 23 c-1 18 12 28 64 54 63 31 64 32
30 32 -19 1 -50 10 -68 21 -38 23 -89 100 -98 147 -6 31 36 323 56 394 8 27 6
37 -10 54 -20 21 -20 21 14 122 l34 101 -25 35 c-53 74 -37 160 61 340 79 146
120 178 277 221 70 20 68 10 70 281 1 165 -1 208 -15 245 -26 69 -48 226 -45
320 l3 85 -114 8 c-63 4 -143 4 -177 1 -41 -4 -63 -2 -63 5 0 18 116 181 165
232 l48 50 -48 49 c-29 29 -46 54 -42 63 3 8 25 17 49 21 71 11 71 10 42 122
-27 109 -42 224 -28 224 5 0 68 -63 139 -140 91 -99 134 -138 145 -134 47 21
129 35 254 44 185 13 451 12 501 -1 39 -11 64 -12 123 -7 20 2 55 32 134 113
58 61 109 107 113 103 4 -4 2 -35 -3 -70 -6 -35 -14 -122 -18 -194 -8 -150
-10 -146 81 -158 53 -7 258 -62 288 -78 9 -5 17 -13 17 -18 0 -10 -238 -90
-270 -90 -26 0 -26 -16 1 -23 12 -3 19 -12 17 -19 -7 -20 -64 -35 -184 -50
-102 -13 -109 -15 -115 -38 -3 -14 1 -40 9 -60 8 -19 18 -66 23 -105 28 -266
39 -431 42 -645 l3 -245 38 -75 c21 -41 49 -90 62 -108 14 -17 39 -62 57 -100
42 -90 44 -161 5 -220 l-27 -41 20 -58 c14 -40 19 -72 15 -103 -6 -51 47 -321
69 -356 8 -12 27 -24 44 -27 26 -6 31 -11 31 -35 0 -16 -7 -49 -15 -73 -13
-37 -14 -59 -5 -129 5 -47 10 -91 10 -97 0 -10 133 -13 630 -13 l630 0 0 1800
0 1800 -2400 0 -2400 0 0 -1800z"/>
<path d="M2133 661 c-30 -39 -31 -71 -3 -64 22 6 34 37 28 73 -3 21 -4 20 -25
-9z"/>
<path d="M2317 294 c-4 -4 -7 -34 -7 -66 0 -45 3 -58 15 -58 17 0 18 5 15 70
-2 45 -11 66 -23 54z"/>
<path d="M2063 182 c-45 -20 -81 -38 -79 -40 4 -3 75 8 154 24 16 3 22 11 22
29 0 14 -3 25 -7 24 -5 0 -45 -17 -90 -37z"/>
</g>
</svg>
