<?xml version="1.0" standalone="no"?>
<!DOCTYPE svg PUBLIC "-//W3C//DTD SVG 20010904//EN"
 "http://www.w3.org/TR/2001/REC-SVG-20010904/DTD/svg10.dtd">
<svg version="1.0" xmlns="http://www.w3.org/2000/svg"
 width="480.000000pt" height="360.000000pt" viewBox="0 0 480.000000 360.000000"
 preserveAspectRatio="xMidYMid meet">
<metadata>
Created by potrace 1.16, written by Peter Selinger 2001-2019
</metadata>
<rect width="1" height="360" fill="#000000"/>
<rect x="479" width="1" height="360" fill="#000000"/>
<rect width="480" height="1" fill="#000000"/>
<rect y="359" width="480" height="1" fill="#000000"/>
<g transform="translate(0.000000,360.000000) scale(0.100000,-0.100000)"
fill="#000000" stroke="none">
<path d="M2117 3554 c-69 -95 -112 -248 -105 -370 6 -86 45 -167 98 -201 84
-53 81 -34 31 -181 -24 -71 -41 -134 -37 -141 10 -15 57 -14 140 3 81 17 88
14 135 -57 29 -45 32 -48 27 -22 -3 17 -9 41 -13 55 -6 23 -4 23 43 -14 76
-61 79 -63 69 -47 -6 11 -4 13 11 6 10 -4 66 -9 124 -11 58 -2 110 -6 117 -9
7 -2 13 2 13 10 0 24 17 17 24 -9 8 -33 28 -38 68 -16 32 17 36 17 55 1 l21
-16 -30 -75 c-17 -41 -54 -131 -83 -200 l-53 -125 -174 -171 c-95 -94 -209
-203 -254 -242 -44 -38 -97 -86 -119 -106 -38 -36 -38 -36 -19 -57 19 -21 19
-21 -11 -45 -17 -13 -81 -54 -144 -91 -86 -51 -138 -91 -211 -163 -102 -101
-150 -162 -150 -194 0 -11 -5 -35 -12 -53 -17 -48 1 -63 39 -33 l28 22 3 -27
c2 -14 10 -29 17 -31 17 -7 64 26 65 44 0 7 11 1 23 -14 25 -29 47 -26 47 6 0
10 3 20 8 22 4 2 18 27 32 56 32 70 75 107 154 131 84 26 138 54 184 95 57 51
100 70 129 57 15 -7 31 -8 41 -2 9 5 27 7 40 5 18 -3 42 15 110 84 109 111
260 246 278 250 8 2 14 7 14 12 0 4 44 44 98 88 89 73 105 91 164 189 35 59
96 158 134 218 39 61 102 174 141 251 39 78 88 168 109 199 22 32 46 69 54 84
32 54 31 53 48 38 20 -18 229 -107 442 -189 206 -79 305 -101 407 -89 111 13
294 82 307 116 3 9 6 239 6 511 l0 494 -1325 0 -1325 0 -33 -46z"/>
</g>
</svg>
