<?xml version="1.0" standalone="no"?>
<!DOCTYPE svg PUBLIC "-//W3C//DTD SVG 20010904//EN"
 "http://www.w3.org/TR/2001/REC-SVG-20010904/DTD/svg10.dtd">
<svg version="1.0" xmlns="http://www.w3.org/2000/svg"
 width="480.000000pt" height="360.000000pt" viewBox="0 0 480.000000 360.000000"
 preserveAspectRatio="xMidYMid meet">
<metadata>
Created by potrace 1.16, written by Peter Selinger 2001-2019
</metadata>
<rect width="1" height="360" fill="#000000"/>
<rect x="479" width="1" height="360" fill="#000000"/>
<rect width="480" height="1" fill="#000000"/>
<rect y="359" width="480" height="1" fill="#000000"/>
<g transform="translate(0.000000,360.000000) scale(0.100000,-0.100000)"
fill="#000000" stroke="none">
<path d="M1247 2885 c-10 -14 -19 -45 -20 -69 -1 -24 -6 -43 -10 -43 -5 1 -11
-27 -13 -63 -4 -53 -1 -71 16 -98 11 -18 25 -30 30 -27 6 4 19 -4 29 -17 18
-21 18 -24 4 -41 -15 -16 -15 -19 4 -40 38 -42 84 -120 81 -136 -2 -9 -18 -22
-36 -30 -35 -16 -40 -35 -17 -61 14 -16 11 -22 -40 -75 -30 -32 -58 -70 -62
-84 -3 -14 -19 -44 -34 -65 -50 -69 -35 -145 33 -174 16 -7 30 -22 34 -38 11
-45 -2 -141 -25 -173 -12 -16 -21 -33 -21 -39 0 -5 -7 -15 -15 -22 -11 -9 -14
-22 -10 -40 4 -18 -3 -50 -20 -91 -14 -34 -23 -71 -19 -81 3 -9 -8 -59 -24
-110 -49 -151 -107 -563 -137 -963 -8 -110 -17 -224 -20 -252 l-6 -53 481 0
481 0 -6 33 c-13 77 -45 385 -55 532 -6 88 -18 203 -26 255 -18 116 -97 426
-124 487 l-19 44 20 8 c19 6 19 8 5 20 -9 8 -16 24 -16 37 0 20 41 141 81 241
12 30 10 43 -26 152 -37 114 -38 121 -22 139 17 18 16 20 -4 34 -18 12 -22 23
-20 72 1 44 -6 74 -29 126 -17 38 -30 73 -30 78 0 5 -9 21 -21 36 -21 26 -17
51 6 42 15 -5 65 37 66 56 0 7 5 2 10 -12 10 -24 11 -24 24 -6 8 10 18 15 24
11 6 -3 11 1 11 9 0 8 8 22 17 32 13 13 17 36 17 104 1 79 -2 90 -26 126 -16
22 -28 48 -28 58 0 26 -119 156 -157 172 -56 24 -225 12 -257 -17 -19 -17 -36
-9 -36 16 0 32 -20 32 -43 0z m340 -1177 c-3 -7 -5 -2 -5 12 0 14 2 19 5 13 2
-7 2 -19 0 -25z"/>
</g>
</svg>
