<?xml version="1.0" standalone="no"?>
<!DOCTYPE svg PUBLIC "-//W3C//DTD SVG 20010904//EN"
 "http://www.w3.org/TR/2001/REC-SVG-20010904/DTD/svg10.dtd">
<svg version="1.0" xmlns="http://www.w3.org/2000/svg"
 width="480.000000pt" height="360.000000pt" viewBox="0 0 480.000000 360.000000"
 preserveAspectRatio="xMidYMid meet">
<metadata>
Created by potrace 1.16, written by Peter Selinger 2001-2019
</metadata>
<rect width="1" height="360" fill="#000000"/>
<rect x="479" width="1" height="360" fill="#000000"/>
<rect width="480" height="1" fill="#000000"/>
<rect y="359" width="480" height="1" fill="#000000"/>
<g transform="translate(0.000000,360.000000) scale(0.100000,-0.100000)"
fill="#000000" stroke="none">
<path d="M0 1800 l0 -1800 1355 0 1355 0 -30 42 c-30 41 -38 68 -21 68 13 0
68 -65 76 -89 l6 -21 1030 0 1029 0 0 564 0 565 -22 3 c-15 2 -21 9 -19 18 2
8 5 29 7 47 1 17 9 42 18 55 14 20 16 68 16 380 0 288 -3 359 -13 365 -50 29
-58 111 -11 99 l24 -6 0 755 0 755 -1517 0 -1517 0 -27 -26 c-36 -34 -124 -45
-162 -19 -42 27 -33 39 23 32 27 -3 52 -2 55 4 4 5 -28 9 -79 9 l-84 0 -23
-36 c-21 -34 -23 -35 -36 -18 -7 10 -13 21 -13 25 0 25 -109 29 -747 29 l-673
0 0 -1800z m1989 1738 c41 -15 17 -19 -54 -9 -89 13 -116 36 -30 26 33 -4 71
-12 84 -17z m203 -61 c15 -19 15 -24 2 -50 -31 -59 -115 -53 -148 11 -17 34
-13 42 23 42 14 0 35 7 45 15 24 18 55 11 78 -18z m-1848 -218 c61 -48 56 -99
-7 -60 -45 28 -59 45 -51 65 8 22 26 20 58 -5z m2070 -141 c-45 -53 -114 -109
-114 -92 0 9 114 114 124 114 5 0 1 -10 -10 -22z m886 -25 c0 -10 3 -35 7 -57
6 -36 5 -38 -14 -27 -40 21 -49 101 -12 101 11 0 19 -7 19 -17z m-1840 -158
c-6 -8 -9 -19 -5 -25 3 -5 -9 -25 -27 -43 -32 -31 -33 -31 -36 -10 -4 25 69
124 76 104 2 -7 -1 -18 -8 -26z m-434 -10 c19 -30 12 -55 -16 -55 -21 0 -63
56 -54 72 11 18 54 7 70 -17z m2077 -46 c60 -31 85 -82 54 -108 -19 -15 -97
63 -97 96 0 26 11 28 43 12z m-771 -139 c-7 -47 -80 -75 -137 -54 -14 6 -12
11 14 35 44 39 61 48 97 49 28 0 30 -2 26 -30z m1178 12 c30 -8 26 -9 -33 -10
-38 0 -86 -3 -108 -7 -47 -8 -50 0 -6 19 32 14 82 13 147 -2z m-3397 -57 c21
-43 21 -51 3 -36 -17 14 -39 71 -27 71 4 0 15 -16 24 -35z m467 -129 c0 -16
-18 -31 -27 -22 -8 8 5 36 17 36 5 0 10 -6 10 -14z m-100 -35 c50 -2 62 -13
67 -63 7 -58 -6 -66 -62 -39 -33 15 -49 31 -60 57 -19 47 -19 53 3 49 9 -2 33
-4 52 -4z m3520 -171 c0 -6 -10 -15 -22 -20 -13 -5 -36 -18 -53 -29 -40 -27
-49 -26 -30 3 24 37 105 72 105 46z m-3720 -200 c18 -33 11 -35 -20 -5 -16 16
-30 33 -30 37 0 14 39 -11 50 -32z m376 -34 c-8 -43 -23 -54 -41 -30 -19 26
-18 54 2 76 25 28 48 2 39 -46z m978 17 c17 7 76 -11 76 -23 0 -7 -106 -105
-177 -164 -17 -14 -50 -33 -72 -41 -35 -12 -48 -12 -97 1 -56 14 -114 47 -114
64 0 5 9 11 20 15 11 3 59 34 107 68 97 69 121 82 173 95 26 7 39 6 52 -6 10
-8 24 -12 32 -9z m906 -14 c0 -22 -33 -109 -41 -109 -5 0 -15 13 -23 29 -15
29 -7 51 20 51 6 0 14 9 17 20 5 21 27 28 27 9z m-193 -155 c3 -8 2 -22 -3
-31 -4 -10 -6 -24 -5 -32 1 -7 -8 -25 -21 -38 -25 -28 -98 -77 -104 -71 -2 2
8 21 21 41 29 42 31 60 10 77 -19 15 -20 40 -2 40 8 0 24 11 37 25 18 19 27
22 42 14 10 -6 22 -17 25 -25z m-1349 0 c28 -20 31 -74 4 -74 -30 0 -55 35
-48 65 7 29 14 31 44 9z m3427 -24 c5 -7 -141 -160 -153 -160 -12 0 59 108 90
136 40 35 53 41 63 24z m-1436 -132 c16 -24 37 -51 46 -61 14 -16 14 -20 0
-40 -8 -12 -15 -30 -15 -39 0 -10 -11 -23 -24 -30 -51 -23 -122 50 -128 133
-2 22 3 34 17 43 11 6 24 17 28 24 16 24 47 12 76 -30z m-441 -78 c-3 -91 -18
-86 -18 6 0 53 5 74 17 74 2 0 2 -36 1 -80z m-688 40 c14 -11 30 -20 35 -20
11 0 14 -85 3 -95 -14 -14 -67 36 -78 73 -18 67 -7 79 40 42z m1225 -255 c22
-13 49 -25 60 -25 13 0 16 -3 9 -10 -13 -13 -50 0 -102 35 -47 32 -20 33 33 0z
m791 -42 c31 -20 27 -31 -16 -55 -40 -21 -107 -23 -133 -4 -15 12 -15 15 -2
26 8 7 15 19 15 26 0 17 56 34 89 28 12 -3 34 -12 47 -21z m87 -93 c-1 -41
-10 -104 -21 -140 l-19 -65 -76 0 c-51 0 -80 4 -89 14 -11 11 -1 12 64 6 l77
-7 -6 70 c-6 68 -1 93 34 191 14 39 17 42 27 25 6 -11 10 -53 9 -94z m-2618
10 c16 -18 16 -20 1 -26 -9 -3 -30 0 -47 7 -29 12 -30 13 -13 26 25 18 38 16
59 -7z m1481 -135 c49 -35 47 -47 -4 -21 -31 16 -70 56 -55 56 5 0 32 -16 59
-35z m1822 -13 c24 -44 25 -40 -3 -129 -6 -20 -33 -4 -55 32 -23 37 -26 95 -7
125 18 30 39 21 65 -28z m-2939 4 c19 -23 -58 -49 -110 -37 -51 12 -57 18 -33
36 25 19 127 20 143 1z m586 -38 c14 -6 25 -15 25 -19 0 -10 -58 10 -66 22 -7
12 10 11 41 -3z m-1136 -70 c28 -18 32 -23 18 -26 -20 -4 -67 23 -67 38 0 15
9 12 49 -12z m203 -94 c3 -3 2 -21 -2 -40 -7 -30 -4 -39 16 -59 13 -13 24 -28
24 -34 0 -16 -141 -42 -176 -32 -86 25 -121 65 -66 77 61 13 77 21 75 38 -2
28 109 71 129 50z m2279 -36 c7 -13 19 -29 28 -35 14 -12 14 -14 -3 -28 -24
-18 -46 -19 -83 -3 -39 17 -38 16 -19 37 9 10 16 22 15 27 -6 33 45 34 62 2z
m-1481 -34 c39 -16 57 -40 23 -30 -10 2 -44 10 -75 16 -32 6 -60 16 -63 21
-10 15 71 10 115 -7z m1896 -2 c13 -8 44 -77 44 -98 0 -8 -20 -15 -56 -20 -48
-6 -59 -4 -76 14 -17 17 -19 26 -11 58 7 32 14 40 38 45 43 9 49 10 61 1z
m-2626 -122 c0 -13 -40 -13 -60 0 -11 7 -5 10 23 10 20 0 37 -4 37 -10z m331
-22 c1 -7 0 -42 -1 -78 -1 -48 -6 -70 -21 -84 -21 -23 -26 -20 -38 22 -6 21
-5 38 5 57 8 15 14 34 14 42 0 35 38 72 41 41z m-349 -75 c26 -23 24 -79 -3
-94 -19 -10 -21 -18 -17 -77 3 -67 3 -67 -25 -70 -20 -2 -35 5 -57 27 -25 25
-30 37 -30 79 0 50 13 71 53 85 9 4 20 15 24 24 7 21 23 43 31 43 3 0 14 -7
24 -17z m539 -27 c6 -22 3 -35 -11 -53 -18 -24 -19 -24 -29 -4 -6 11 -11 36
-11 56 0 32 3 36 22 33 14 -2 24 -13 29 -32z m989 -41 c-29 -16 -70 -20 -70
-6 0 6 17 12 38 14 20 2 42 4 47 5 6 1 -1 -5 -15 -13z m-2105 -6 c16 -24 -51
-71 -119 -83 l-39 -7 20 33 c28 49 120 87 138 57z m2185 -69 c0 -11 -6 -20
-13 -20 -19 0 -27 10 -20 26 8 21 33 17 33 -6z m15 -44 c19 -14 19 -14 0 -36
-26 -28 -82 -25 -77 5 8 44 41 57 77 31z m612 -52 c1 -10 7 -34 14 -51 16 -41
3 -59 -36 -49 -24 6 -26 11 -20 34 3 15 8 41 10 57 4 39 3 37 18 33 6 -3 13
-13 14 -24z m-1593 -49 c10 -14 20 -48 23 -76 5 -40 2 -53 -13 -70 l-19 -21
-8 38 c-4 22 -10 65 -14 97 -6 63 4 73 31 32z m1089 -37 c-1 -18 5 -29 23 -37
13 -6 24 -16 24 -24 0 -14 -51 -48 -89 -59 -46 -14 -79 24 -46 52 8 7 15 25
15 41 0 18 8 34 23 44 31 22 52 15 50 -17z m-202 -5 c0 -5 2 -26 4 -48 7 -72
6 -78 -14 -99 -20 -19 -21 -19 -41 -1 -24 21 -26 48 -5 65 8 7 15 24 15 39 0
26 16 51 32 51 4 0 8 -3 9 -7z"/>
</g>
</svg>
