<?xml version="1.0" standalone="no"?>
<!DOCTYPE svg PUBLIC "-//W3C//DTD SVG 20010904//EN"
 "http://www.w3.org/TR/2001/REC-SVG-20010904/DTD/svg10.dtd">
<svg version="1.0" xmlns="http://www.w3.org/2000/svg"
 width="480.000000pt" height="360.000000pt" viewBox="0 0 480.000000 360.000000"
 preserveAspectRatio="xMidYMid meet">
<metadata>
Created by potrace 1.16, written by Peter Selinger 2001-2019
</metadata>
<rect width="1" height="360" fill="#000000"/>
<rect x="479" width="1" height="360" fill="#000000"/>
<rect width="480" height="1" fill="#000000"/>
<rect y="359" width="480" height="1" fill="#000000"/>
<g transform="translate(0.000000,360.000000) scale(0.100000,-0.100000)"
fill="#000000" stroke="none">
<path d="M0 1800 l0 -1800 2400 0 2400 0 0 1800 0 1800 -2400 0 -2400 0 0
-1800z m1491 608 c0 -10 2 -10 6 0 7 17 30 15 41 -3 15 -27 105 -96 118 -91 7
3 27 -8 44 -24 17 -16 45 -32 62 -35 18 -4 90 -36 161 -71 144 -71 140 -71
184 3 52 89 152 127 270 103 203 -42 453 -130 453 -160 0 -4 11 -24 25 -45 54
-79 100 -257 90 -350 -7 -63 -38 -143 -72 -184 l-20 -24 104 -103 c69 -69 109
-101 119 -97 8 3 14 2 13 -3 -7 -32 73 -93 150 -114 43 -11 57 -33 19 -30 -62
5 -62 -1 2 -74 71 -81 68 -107 -3 -39 l-39 38 16 -32 c9 -17 20 -35 26 -38 17
-11 31 -43 20 -50 -5 -3 -27 17 -50 46 -47 59 -50 57 -14 -12 37 -71 22 -78
-25 -11 -31 45 -38 34 -11 -18 30 -58 18 -61 -22 -6 -38 54 -49 46 -19 -13 12
-22 21 -43 21 -47 0 -13 -32 20 -47 50 -19 37 -29 19 -14 -24 17 -49 2 -34
-25 25 -14 30 -29 55 -33 55 -4 0 -13 15 -19 34 -10 27 -17 33 -33 29 -19 -5
-20 -4 -9 16 10 19 9 26 -6 42 -9 10 -26 19 -37 19 -15 0 -18 5 -13 24 4 18 0
29 -16 43 -13 10 -58 58 -101 106 l-79 87 -106 -3 c-96 -2 -115 1 -183 26 -42
16 -111 50 -154 77 -67 42 -80 47 -104 39 -44 -15 -192 -7 -201 11 -30 62 -42
150 -20 150 4 0 37 -9 71 -20 35 -10 64 -18 66 -17 1 2 -12 41 -30 88 -59 157
-127 232 -247 275 -25 8 -78 31 -119 50 -69 33 -75 34 -97 19 -22 -14 -24 -14
-24 3 0 40 -40 54 -72 25 -17 -15 -18 -15 -18 5 0 18 -8 21 -63 27 -36 4 -80
2 -100 -3 -52 -15 -56 3 -5 21 l43 14 -47 8 c-27 4 -48 11 -48 16 0 4 21 9 48
11 49 4 44 7 -33 23 -40 8 -29 25 18 26 l42 1 -32 10 c-56 18 -37 30 40 24
l72 -6 -50 19 -50 19 60 2 c50 0 57 3 40 12 -10 6 -33 15 -50 19 -21 6 -16 7
20 3 28 -3 58 -7 67 -10 13 -4 16 -1 12 10 -3 9 -1 16 5 16 6 0 11 -6 12 -12z"/>
<path d="M1358 2293 c7 -3 16 -2 19 1 4 3 -2 6 -13 5 -11 0 -14 -3 -6 -6z"/>
</g>
</svg>
