<?xml version="1.0" standalone="no"?>
<!DOCTYPE svg PUBLIC "-//W3C//DTD SVG 20010904//EN"
 "http://www.w3.org/TR/2001/REC-SVG-20010904/DTD/svg10.dtd">
<svg version="1.0" xmlns="http://www.w3.org/2000/svg"
 width="480.000000pt" height="360.000000pt" viewBox="0 0 480.000000 360.000000"
 preserveAspectRatio="xMidYMid meet">
<metadata>
Created by potrace 1.16, written by Peter Selinger 2001-2019
</metadata>
<rect width="1" height="360" fill="#000000"/>
<rect x="479" width="1" height="360" fill="#000000"/>
<rect width="480" height="1" fill="#000000"/>
<rect y="359" width="480" height="1" fill="#000000"/>
<g transform="translate(0.000000,360.000000) scale(0.100000,-0.100000)"
fill="#000000" stroke="none">
<path d="M0 1800 l0 -1800 1080 0 1080 0 0 48 c0 65 -26 280 -45 375 -18 95
-19 263 -1 372 11 67 11 84 0 105 -7 14 -27 61 -44 105 -26 65 -31 92 -29 148
2 73 -5 87 -48 87 -18 0 -22 5 -21 28 1 15 -2 34 -6 43 -4 10 -1 23 8 32 14
14 12 16 -24 22 -43 7 -40 1 -44 92 -1 22 41 44 67 34 11 -4 38 -1 64 8 36 13
43 19 38 36 -3 11 -15 66 -25 123 -16 85 -17 108 -7 140 16 49 43 52 101 12
l45 -31 42 31 c23 16 61 35 83 41 23 5 51 22 63 37 l23 27 0 -957 0 -958 321
0 320 0 -22 31 c-17 24 -24 54 -31 131 -5 54 -8 122 -6 150 l3 51 62 -51 c68
-57 66 -58 78 30 10 70 1 88 -45 88 -48 0 -70 8 -70 26 0 24 -36 87 -65 114
-55 50 -63 74 -58 163 5 72 3 85 -15 107 l-20 25 62 66 c76 82 123 160 138
230 15 74 5 106 -53 162 -27 26 -49 51 -49 56 0 5 -12 18 -26 28 -23 17 -25
22 -15 41 6 12 18 22 26 22 15 0 45 37 45 57 0 8 -13 13 -34 13 -49 0 -57 15
-43 85 l12 60 74 9 73 8 62 -68 c33 -38 86 -95 117 -128 l56 -59 66 13 c85 16
94 26 73 87 -9 26 -23 59 -30 72 -12 22 -11 28 16 65 55 77 38 96 -137 157
-64 22 -101 42 -132 70 -23 21 -50 39 -59 39 -9 0 -36 13 -60 30 -39 26 -50
28 -96 23 -60 -6 -157 -61 -165 -94 -4 -15 -15 -19 -47 -19 -22 0 -50 -7 -60
-15 -11 -8 -24 -15 -28 -15 -5 0 -38 27 -73 60 -35 33 -73 60 -84 60 -11 0
-33 -12 -50 -26 l-31 -26 0 836 0 836 -1200 0 -1200 0 0 -1800z m2880 -320 c0
-5 -5 -10 -11 -10 -5 0 -7 5 -4 10 3 6 8 10 11 10 2 0 4 -4 4 -10z m95 -241
c45 -40 47 -80 7 -135 -32 -43 -126 -134 -139 -134 -5 0 -19 7 -31 16 -26 18
-28 49 -6 104 13 31 19 38 29 30 10 -8 16 -7 23 6 9 15 13 16 26 5 14 -12 16
-10 16 18 0 17 5 31 11 31 8 0 10 15 7 45 -7 55 6 58 57 14z m-255 -316 c0
-14 -81 -19 -93 -7 -4 4 3 24 15 45 l21 38 28 -32 c16 -18 29 -38 29 -44z"/>
</g>
</svg>
