<?xml version="1.0" standalone="no"?>
<!DOCTYPE svg PUBLIC "-//W3C//DTD SVG 20010904//EN"
 "http://www.w3.org/TR/2001/REC-SVG-20010904/DTD/svg10.dtd">
<svg version="1.0" xmlns="http://www.w3.org/2000/svg"
 width="480.000000pt" height="360.000000pt" viewBox="0 0 480.000000 360.000000"
 preserveAspectRatio="xMidYMid meet">
<metadata>
Created by potrace 1.16, written by Peter Selinger 2001-2019
</metadata>
<rect width="1" height="360" fill="#000000"/>
<rect x="479" width="1" height="360" fill="#000000"/>
<rect width="480" height="1" fill="#000000"/>
<rect y="359" width="480" height="1" fill="#000000"/>
<g transform="translate(0.000000,360.000000) scale(0.100000,-0.100000)"
fill="#000000" stroke="none">
<path d="M1555 2232 c-10 -10 27 -62 72 -99 52 -44 242 -187 323 -243 27 -19
82 -61 122 -93 40 -32 111 -88 158 -125 47 -36 139 -114 205 -173 66 -58 176
-144 245 -190 69 -46 208 -147 310 -225 197 -149 206 -156 400 -291 217 -151
404 -285 441 -317 19 -17 61 -49 93 -71 32 -22 101 -72 154 -110 53 -39 135
-97 182 -130 132 -92 142 -98 189 -133 l44 -32 154 0 153 0 0 198 0 199 -142
88 c-157 96 -295 176 -433 250 -49 27 -114 63 -143 82 -29 18 -55 33 -57 33
-3 0 -34 17 -68 38 -34 21 -109 66 -167 101 -58 34 -126 82 -151 106 -62 59
-216 157 -384 245 -77 40 -176 96 -220 125 -44 28 -101 65 -127 81 -87 54
-216 145 -275 195 -32 27 -71 57 -87 67 -73 44 -92 60 -104 85 -11 23 -19 27
-55 27 -27 0 -58 10 -87 26 -25 14 -67 35 -93 45 -26 10 -60 27 -74 36 -15 10
-41 23 -58 29 -28 11 -128 51 -315 126 -74 29 -195 59 -205 50z"/>
</g>
</svg>
