<?xml version="1.0" standalone="no"?>
<!DOCTYPE svg PUBLIC "-//W3C//DTD SVG 20010904//EN"
 "http://www.w3.org/TR/2001/REC-SVG-20010904/DTD/svg10.dtd">
<svg version="1.0" xmlns="http://www.w3.org/2000/svg"
 width="480.000000pt" height="360.000000pt" viewBox="0 0 480.000000 360.000000"
 preserveAspectRatio="xMidYMid meet">
<metadata>
Created by potrace 1.16, written by Peter Selinger 2001-2019
</metadata>
<rect width="1" height="360" fill="#000000"/>
<rect x="479" width="1" height="360" fill="#000000"/>
<rect width="480" height="1" fill="#000000"/>
<rect y="359" width="480" height="1" fill="#000000"/>
<g transform="translate(0.000000,360.000000) scale(0.100000,-0.100000)"
fill="#000000" stroke="none">
<path d="M2115 3116 c-119 -37 -197 -128 -239 -277 -22 -79 -29 -160 -17 -191
6 -15 8 -35 4 -43 -8 -22 -93 -86 -104 -79 -17 10 -49 -7 -49 -26 0 -10 -14
-30 -32 -43 l-32 -25 69 -71 c61 -64 105 -89 105 -61 0 22 17 8 44 -37 l28
-48 -23 -44 c-13 -24 -36 -56 -51 -71 -30 -30 -27 -40 9 -40 27 0 28 -8 8 -57
-20 -49 -10 -55 26 -15 16 17 31 32 33 32 2 0 11 -18 20 -40 20 -50 32 -51 41
-2 l7 37 27 -57 c29 -61 48 -88 62 -88 5 0 6 7 3 15 -4 8 -3 15 0 15 4 0 11
-12 16 -26 13 -32 30 -22 31 19 l1 32 10 -29 c6 -17 13 -24 17 -17 5 8 16 4
34 -13 15 -14 27 -20 27 -14 0 9 3 9 11 1 16 -16 4 -42 -26 -53 -14 -5 -85
-19 -157 -30 -151 -23 -209 -46 -243 -99 -33 -49 -73 -149 -96 -240 -10 -41
-20 -75 -22 -77 -1 -1 -17 -5 -34 -9 -29 -6 -34 -4 -43 19 -5 15 -17 29 -26
33 -9 3 -68 0 -132 -7 -137 -16 -235 -6 -325 35 -33 14 -127 72 -210 128 -84
56 -183 115 -222 131 -165 68 -153 59 -160 111 -6 35 -11 45 -22 41 -8 -3 -16
-6 -18 -6 -1 0 -22 -26 -46 -57 -119 -157 -206 -258 -307 -355 l-112 -107 0
-193 0 -194 48 -17 c87 -31 99 -24 171 100 58 100 87 133 120 133 30 0 69 -35
95 -87 25 -49 33 -47 45 9 7 28 16 58 23 65 16 20 54 16 113 -13 78 -39 123
-79 136 -124 l12 -39 41 28 c83 57 149 85 203 85 44 0 60 -6 106 -37 29 -20
64 -48 77 -62 13 -14 31 -25 40 -25 9 0 50 24 91 53 112 80 185 125 279 172
105 52 111 54 132 44 16 -9 16 -12 -3 -43 l-20 -34 26 -6 c23 -6 26 -10 20
-36 -6 -26 -3 -32 24 -48 l31 -17 0 -105 c1 -190 3 -201 45 -236 l37 -31 -17
-84 c-9 -46 -21 -89 -26 -95 -6 -7 -25 -15 -44 -18 -18 -4 -44 -15 -57 -26
l-23 -20 23 -20 c27 -22 40 -83 23 -104 -10 -12 -8 -19 7 -34 19 -19 18 -21
-44 -128 -35 -60 -63 -112 -64 -116 0 -5 256 -8 570 -8 314 0 570 3 570 6 0 3
-16 43 -36 89 l-35 83 24 48 c44 88 44 91 -3 139 l-42 43 7 169 c4 92 8 218 9
280 1 107 8 145 20 106 3 -10 12 -67 21 -128 22 -154 34 -192 63 -215 49 -39
151 -17 195 42 23 31 25 154 4 290 -7 49 -11 88 -8 88 10 0 94 -70 158 -131
34 -32 66 -59 72 -59 5 0 31 15 58 34 129 89 185 97 279 40 32 -19 71 -47 86
-61 30 -28 58 -25 58 6 0 42 93 91 201 106 71 10 91 -5 88 -65 -2 -27 0 -52 3
-56 4 -3 25 20 48 51 53 72 81 86 118 58 30 -22 79 -90 131 -182 19 -33 40
-62 48 -65 8 -3 55 11 106 30 114 45 154 50 240 30 38 -9 70 -16 73 -16 2 0 4
38 4 85 0 52 -4 85 -10 85 -11 0 -80 52 -221 164 -124 99 -278 263 -398 424
-123 164 -151 184 -151 113 0 -21 -6 -44 -14 -50 -7 -6 -51 -24 -97 -40 -112
-38 -124 -44 -274 -134 -143 -85 -254 -127 -338 -127 -58 1 -175 23 -186 36
-4 5 -13 32 -20 59 -13 55 -73 166 -130 241 -44 59 -96 89 -187 110 -132 30
-189 46 -227 66 -42 21 -43 37 -3 93 l21 29 7 -43 c4 -24 9 -46 12 -48 3 -3
15 11 28 31 13 20 26 36 29 36 4 0 9 -13 13 -30 7 -38 17 -38 39 0 11 18 23
27 32 23 12 -4 15 3 15 31 0 41 15 48 24 11 9 -35 22 -31 36 10 l12 36 31 -31
c28 -27 47 -38 47 -25 0 2 -7 23 -16 45 -9 23 -13 44 -10 48 4 3 25 5 46 3 47
-3 51 7 12 36 -32 24 -91 128 -79 140 5 4 13 -1 19 -11 8 -14 12 -15 18 -5 7
10 11 10 24 0 13 -11 14 -8 10 21 -3 23 1 43 16 67 l21 33 23 -21 c29 -27 40
-27 54 4 20 44 14 79 -19 111 -17 16 -40 44 -51 62 -21 34 -18 53 4 34 7 -5
36 -19 63 -30 28 -11 57 -23 67 -26 23 -10 52 91 45 155 l-6 47 47 7 c26 4 68
14 95 22 58 19 61 40 12 94 -67 74 -125 221 -125 316 0 48 -16 56 -48 26 -10
-10 -38 -34 -62 -55 -25 -20 -61 -51 -82 -70 -20 -18 -46 -39 -59 -47 -19 -11
-23 -11 -32 5 -5 11 -38 47 -72 81 -53 52 -73 65 -131 83 -113 34 -477 52
-559 26z"/>
</g>
</svg>
