<?xml version="1.0" standalone="no"?>
<!DOCTYPE svg PUBLIC "-//W3C//DTD SVG 20010904//EN"
 "http://www.w3.org/TR/2001/REC-SVG-20010904/DTD/svg10.dtd">
<svg version="1.0" xmlns="http://www.w3.org/2000/svg"
 width="480.000000pt" height="360.000000pt" viewBox="0 0 480.000000 360.000000"
 preserveAspectRatio="xMidYMid meet">
<metadata>
Created by potrace 1.16, written by Peter Selinger 2001-2019
</metadata>
<rect width="1" height="360" fill="#000000"/>
<rect x="479" width="1" height="360" fill="#000000"/>
<rect width="480" height="1" fill="#000000"/>
<rect y="359" width="480" height="1" fill="#000000"/>
<g transform="translate(0.000000,360.000000) scale(0.100000,-0.100000)"
fill="#000000" stroke="none">
<path d="M0 2444 l0 -1155 68 5 c107 9 218 16 342 21 63 3 160 10 215 16 55 5
156 14 225 19 267 19 778 71 1165 119 257 32 319 42 330 52 11 11 36 169 29
181 -3 5 -46 8 -95 8 -66 0 -99 5 -122 17 -34 18 -95 20 -273 8 -70 -5 -100
-3 -127 9 -49 20 -124 30 -140 19 -13 -11 -104 -2 -171 15 -27 7 -46 7 -59 1
-10 -6 -21 -8 -25 -5 -3 3 0 6 7 6 7 0 10 4 6 9 -3 6 3 15 12 21 15 10 15 11
1 6 -30 -9 -28 23 5 53 45 43 187 111 229 111 47 0 150 45 215 94 37 28 69 57
71 64 3 9 -18 12 -82 12 -87 0 -136 13 -136 37 0 16 -2 16 -34 2 -19 -9 -29
-9 -40 0 -12 10 -12 16 0 41 14 27 100 93 154 116 14 6 42 19 63 27 46 20 119
87 158 144 87 126 347 630 332 643 -84 69 -195 180 -208 207 -22 46 -14 109
20 176 14 27 25 51 25 53 0 2 -282 4 -626 4 l-627 0 6 -92 c7 -116 32 -230 96
-433 28 -88 51 -179 51 -203 0 -29 -14 -72 -46 -140 -55 -118 -74 -186 -74
-269 0 -124 45 -253 103 -295 44 -32 96 -65 137 -85 l35 -18 -74 -3 c-63 -3
-82 1 -128 24 -66 32 -145 109 -177 172 -66 130 -84 241 -65 412 15 138 9 177
-45 293 -105 228 -137 326 -155 477 -6 52 -14 110 -17 128 l-5 32 -274 0 -275
0 0 -1156z"/>
<path d="M2830 3571 l-34 -29 18 -34 c14 -25 17 -43 11 -64 -15 -60 -6 -127
24 -169 34 -49 42 -70 31 -81 -8 -8 114 -239 145 -274 35 -40 77 -131 71 -155
-4 -15 3 -49 18 -90 36 -95 116 -392 116 -430 0 -18 -6 -38 -14 -44 -8 -7 -17
-28 -21 -48 l-6 -36 -38 37 c-24 24 -46 36 -64 36 -27 0 -28 -2 -22 -37 13
-80 17 -101 36 -178 10 -44 25 -122 32 -174 14 -90 13 -94 -5 -99 -12 -3 -17
-10 -14 -19 3 -8 6 -16 6 -19 0 -2 10 1 23 6 21 9 243 67 502 132 129 32 422
115 625 178 69 21 177 54 240 73 63 20 154 47 203 62 l87 27 0 729 0 729 -967
0 -968 -1 -35 -28z"/>
<path d="M2306 3494 l-38 -46 24 -26 c14 -15 37 -40 52 -57 l27 -30 -8 40 c-4
22 -7 68 -6 103 0 34 -2 62 -6 62 -4 0 -24 -21 -45 -46z"/>
<path d="M2726 1657 c-12 -44 -7 -77 12 -77 32 1 128 28 101 29 -14 1 -44 17
-66 36 -40 34 -41 34 -47 12z"/>
<path d="M4754 523 c-21 -27 -41 -50 -44 -53 -3 -3 -41 -48 -85 -100 -44 -52
-140 -157 -214 -232 l-134 -138 262 0 261 0 0 285 c0 157 -2 285 -4 285 -2 0
-21 -21 -42 -47z"/>
</g>
</svg>
