<?xml version="1.0" standalone="no"?>
<!DOCTYPE svg PUBLIC "-//W3C//DTD SVG 20010904//EN"
 "http://www.w3.org/TR/2001/REC-SVG-20010904/DTD/svg10.dtd">
<svg version="1.0" xmlns="http://www.w3.org/2000/svg"
 width="480.000000pt" height="360.000000pt" viewBox="0 0 480.000000 360.000000"
 preserveAspectRatio="xMidYMid meet">
<metadata>
Created by potrace 1.16, written by Peter Selinger 2001-2019
</metadata>
<rect width="1" height="360" fill="#000000"/>
<rect x="479" width="1" height="360" fill="#000000"/>
<rect width="480" height="1" fill="#000000"/>
<rect y="359" width="480" height="1" fill="#000000"/>
<g transform="translate(0.000000,360.000000) scale(0.100000,-0.100000)"
fill="#000000" stroke="none">
<path d="M866 3566 c-7 -39 -22 -54 -63 -65 -37 -10 -39 -29 -8 -75 14 -20 25
-39 25 -41 0 -2 -16 5 -37 17 l-36 22 7 -30 c4 -16 18 -40 30 -54 13 -14 36
-47 51 -75 15 -27 38 -63 51 -78 29 -35 29 -39 4 -112 -27 -79 -38 -184 -19
-196 19 -12 2 -26 -41 -34 -23 -4 -41 -1 -54 8 -16 12 -24 11 -63 -7 -44 -21
-45 -21 -40 -63 4 -38 2 -43 -24 -53 -49 -21 -63 -56 -86 -215 -3 -22 -10 -45
-15 -52 -6 -7 -14 -27 -18 -45 -12 -45 -60 -181 -70 -193 -12 -16 -34 -88 -32
-108 0 -10 11 -38 22 -63 30 -62 93 -98 158 -92 42 4 127 40 191 80 18 11 24
9 49 -15 15 -15 32 -27 36 -27 18 0 111 -52 151 -86 75 -61 142 -251 129 -364
-7 -64 6 -100 35 -100 10 0 26 -12 36 -26 14 -21 15 -31 6 -51 -6 -13 -11 -35
-11 -48 0 -13 -8 -32 -18 -42 -76 -75 -127 -166 -216 -385 -119 -295 -203
-464 -299 -608 -64 -95 -123 -207 -141 -267 l-7 -23 816 0 817 0 -7 68 c-3 37
-15 105 -25 152 -32 143 -58 306 -85 515 -32 248 -55 348 -102 445 -24 48 -37
90 -38 119 0 37 5 48 37 81 44 44 44 39 23 240 -40 398 -50 461 -85 519 -12
18 -20 34 -18 35 30 13 47 30 67 65 13 23 35 47 49 52 23 9 88 55 120 86 7 7
23 15 35 17 12 3 64 15 116 27 92 22 96 24 171 93 84 77 167 128 280 171 59
22 76 34 96 66 14 22 37 44 52 50 34 13 42 26 42 68 0 44 21 102 35 98 5 -2
25 5 43 15 19 10 53 18 81 18 40 0 54 6 89 36 37 31 42 41 42 78 0 50 -21 83
-64 101 -35 15 -54 8 -97 -32 l-26 -24 -7 40 c-4 25 -12 41 -20 41 -7 0 -40
-16 -72 -35 -83 -50 -98 -46 -99 30 0 34 -3 40 -23 43 -33 5 -52 -15 -52 -54
0 -18 -5 -36 -10 -39 -8 -5 -9 9 -4 42 5 39 3 52 -10 62 -25 21 -63 -1 -75
-41 -8 -30 -9 -30 -10 -8 -1 33 -18 50 -48 50 -23 0 -25 -4 -49 -70 -4 -13 -6
-13 -15 0 -8 13 -12 11 -28 -9 -10 -13 -23 -21 -29 -17 -14 8 -32 -25 -32 -58
0 -17 -5 -26 -16 -26 -12 0 -15 6 -10 25 4 14 2 25 -4 25 -5 0 -12 -11 -16
-24 -4 -16 -19 -29 -47 -40 -59 -22 -538 -128 -546 -121 -9 10 -13 8 322 212
56 34 120 72 142 84 22 12 51 29 65 39 57 39 139 90 145 90 3 0 32 17 63 37
31 20 73 46 92 56 19 11 37 23 40 27 3 4 17 10 32 14 29 7 53 39 43 56 -3 6
-41 10 -84 10 -75 0 -80 -2 -134 -40 -30 -22 -58 -40 -60 -40 -3 0 -73 -43
-157 -95 -84 -53 -167 -103 -184 -112 -17 -9 -33 -19 -36 -22 -3 -4 -50 -33
-105 -65 -55 -32 -114 -67 -132 -78 l-32 -19 -10 43 c-6 24 -20 60 -31 81
l-21 38 30 57 c36 68 47 178 17 166 -9 -4 -19 9 -31 40 l-18 46 -437 0 -438 0
-6 -34z m1759 -17 c-4 -5 -39 -30 -78 -55 -40 -26 -83 -54 -97 -63 -14 -8 -33
-20 -42 -26 -10 -5 -90 -55 -178 -110 -88 -55 -209 -129 -268 -166 -59 -36
-119 -73 -134 -83 -27 -18 -28 -18 -28 1 0 11 10 25 23 31 12 6 39 22 59 34
20 13 86 52 145 87 59 35 119 71 133 79 14 9 71 44 128 79 57 34 110 69 118
78 9 8 20 15 25 15 8 0 117 67 129 80 27 29 80 44 65 19z m-1655 -914 c0 -5
-5 -3 -10 5 -5 8 -10 20 -10 25 0 6 5 3 10 -5 5 -8 10 -19 10 -25z m50 -70 c0
-8 9 -20 20 -27 29 -18 25 -28 -12 -28 -73 0 -96 21 -62 54 20 20 54 21 54 1z"/>
</g>
</svg>
