<?xml version="1.0" standalone="no"?>
<!DOCTYPE svg PUBLIC "-//W3C//DTD SVG 20010904//EN"
 "http://www.w3.org/TR/2001/REC-SVG-20010904/DTD/svg10.dtd">
<svg version="1.0" xmlns="http://www.w3.org/2000/svg"
 width="480.000000pt" height="360.000000pt" viewBox="0 0 480.000000 360.000000"
 preserveAspectRatio="xMidYMid meet">
<metadata>
Created by potrace 1.16, written by Peter Selinger 2001-2019
</metadata>
<rect width="1" height="360" fill="#000000"/>
<rect x="479" width="1" height="360" fill="#000000"/>
<rect width="480" height="1" fill="#000000"/>
<rect y="359" width="480" height="1" fill="#000000"/>
<g transform="translate(0.000000,360.000000) scale(0.100000,-0.100000)"
fill="#000000" stroke="none">
<path d="M0 1800 l0 -1800 2400 0 2400 0 0 1800 0 1800 -2400 0 -2400 0 0
-1800z m2988 1104 c26 -17 59 -67 69 -103 5 -20 -1 -31 -29 -56 -20 -17 -38
-42 -40 -55 -2 -14 -9 -24 -15 -23 -24 5 -2 -23 27 -34 24 -9 30 -17 30 -42 0
-19 6 -34 15 -37 8 -4 12 -10 9 -15 -5 -9 54 -38 141 -69 45 -15 50 -20 50
-46 0 -44 -35 -44 -103 2 -35 23 -57 33 -60 25 -2 -6 -15 -24 -28 -40 -13 -16
-20 -31 -17 -35 4 -4 6 -24 5 -44 -2 -28 8 -59 38 -116 57 -111 121 -346 105
-383 -8 -16 -9 -16 -12 5 -3 14 -11 22 -25 22 -18 0 -20 -4 -14 -37 18 -101
19 -138 2 -152 -9 -7 -16 -17 -16 -21 0 -4 102 24 226 62 179 54 261 73 388
91 l161 24 77 123 c42 68 88 133 103 143 26 19 26 19 51 -4 19 -18 24 -32 24
-72 0 -40 -9 -65 -55 -148 -30 -55 -55 -110 -55 -124 0 -15 -9 -31 -23 -40
-13 -8 -61 -79 -107 -158 -185 -315 -315 -492 -476 -648 -70 -68 -86 -78 -137
-89 l-58 -13 -33 32 c-33 32 -36 33 -132 35 -82 1 -108 5 -149 25 -46 23 -63
25 -235 28 -201 3 -269 11 -432 50 l-107 26 -88 -22 c-48 -12 -144 -38 -212
-58 -119 -35 -125 -36 -185 -24 -125 25 -339 137 -516 270 -87 66 -98 71 -145
71 -57 0 -128 18 -196 49 -37 16 -52 19 -79 11 -39 -11 -51 -3 -122 87 -24 30
-69 80 -101 111 -95 92 -120 164 -67 188 30 14 348 42 568 50 145 6 171 4 337
-25 480 -81 900 -129 1211 -138 l212 -6 7 32 c4 18 3 37 -2 42 -9 9 -55 20
-151 36 -18 3 -35 9 -38 14 -3 5 -15 9 -26 9 -25 0 -58 27 -58 47 0 8 20 36
45 62 25 26 45 50 45 53 0 3 -11 9 -25 12 -22 6 -24 9 -12 28 6 13 36 48 65
79 59 63 120 144 175 234 33 54 37 68 37 125 -1 36 -6 85 -11 110 -6 25 -14
72 -17 105 -9 74 -16 85 -53 85 -26 0 -30 3 -27 24 2 18 -11 35 -67 79 -39 31
-74 55 -80 54 -12 -4 -29 -59 -57 -187 -18 -78 -22 -131 -24 -300 -1 -119 -6
-220 -13 -240 -16 -50 -14 -156 4 -190 17 -32 14 -36 -15 -20 -29 15 -44 77
-41 165 4 102 3 136 -4 325 -7 168 8 323 44 453 10 37 16 78 13 92 -3 19 0 25
14 25 19 0 92 -60 110 -91 15 -25 82 -71 93 -64 6 3 18 30 26 59 9 30 27 66
40 80 24 26 59 34 70 17 3 -6 20 -4 43 4 40 15 74 12 110 -11z"/>
<path d="M2875 1599 c-4 -6 -5 -13 -2 -16 7 -7 27 6 27 18 0 12 -17 12 -25 -2z"/>
</g>
</svg>
