<?xml version="1.0" standalone="no"?>
<!DOCTYPE svg PUBLIC "-//W3C//DTD SVG 20010904//EN"
 "http://www.w3.org/TR/2001/REC-SVG-20010904/DTD/svg10.dtd">
<svg version="1.0" xmlns="http://www.w3.org/2000/svg"
 width="480.000000pt" height="360.000000pt" viewBox="0 0 480.000000 360.000000"
 preserveAspectRatio="xMidYMid meet">
<metadata>
Created by potrace 1.16, written by Peter Selinger 2001-2019
</metadata>
<rect width="1" height="360" fill="#000000"/>
<rect x="479" width="1" height="360" fill="#000000"/>
<rect width="480" height="1" fill="#000000"/>
<rect y="359" width="480" height="1" fill="#000000"/>
<g transform="translate(0.000000,360.000000) scale(0.100000,-0.100000)"
fill="#000000" stroke="none">
<path d="M2036 3433 c2 -133 -1 -190 -16 -273 -50 -279 -190 -527 -418 -744
-115 -109 -331 -228 -492 -273 -267 -73 -543 -64 -789 26 -46 17 -99 40 -118
51 -19 11 -40 20 -47 20 -8 0 -37 16 -65 35 -28 19 -60 35 -71 35 -20 0 -20
-2 -20 -1155 l0 -1155 2008 0 2007 0 21 57 c12 32 34 99 49 148 15 50 55 146
88 215 143 301 165 350 209 460 31 76 30 92 -5 114 -11 7 -23 6 -42 -4 -27
-14 -70 -18 -97 -8 -17 7 -24 47 -34 188 -7 89 5 159 38 239 21 51 25 105 9
144 -25 63 1 279 43 352 6 12 11 73 12 145 1 117 3 130 33 200 18 41 43 86 56
100 13 14 40 63 59 109 58 133 99 185 191 236 33 18 81 37 108 40 l47 7 0 429
0 429 -1384 0 -1384 0 4 -167z"/>
<path d="M4505 1330 c-7 -12 5 -60 16 -60 13 0 49 42 49 57 0 15 -56 18 -65 3z"/>
</g>
</svg>
