<?xml version="1.0" standalone="no"?>
<!DOCTYPE svg PUBLIC "-//W3C//DTD SVG 20010904//EN"
 "http://www.w3.org/TR/2001/REC-SVG-20010904/DTD/svg10.dtd">
<svg version="1.0" xmlns="http://www.w3.org/2000/svg"
 width="480.000000pt" height="360.000000pt" viewBox="0 0 480.000000 360.000000"
 preserveAspectRatio="xMidYMid meet">
<metadata>
Created by potrace 1.16, written by Peter Selinger 2001-2019
</metadata>
<rect width="1" height="360" fill="#000000"/>
<rect x="479" width="1" height="360" fill="#000000"/>
<rect width="480" height="1" fill="#000000"/>
<rect y="359" width="480" height="1" fill="#000000"/>
<g transform="translate(0.000000,360.000000) scale(0.100000,-0.100000)"
fill="#000000" stroke="none">
<path d="M0 1800 l0 -1800 2400 0 2400 0 0 1800 0 1800 -2400 0 -2400 0 0
-1800z m2277 1090 c7 -15 24 -27 39 -30 15 -3 29 -10 31 -16 2 -6 -15 -37 -37
-70 -55 -81 -54 -87 21 -82 54 4 64 8 82 34 39 54 97 101 142 114 29 8 84 11
154 8 l109 -4 93 -57 c52 -31 123 -68 159 -83 82 -33 90 -41 56 -54 -45 -17
-120 -11 -187 13 -41 15 -75 21 -94 18 -29 -6 -30 -9 -37 -71 -4 -36 -4 -68 0
-72 4 -4 47 -16 95 -28 100 -23 145 -44 202 -95 37 -33 44 -35 107 -35 37 0
70 -4 73 -10 3 -5 -1 -10 -9 -10 -8 0 -18 -5 -22 -11 -5 -8 4 -10 30 -7 20 2
36 1 36 -4 0 -4 18 -13 40 -19 48 -15 51 -24 8 -33 l-33 -7 33 -27 c37 -31 34
-42 -14 -42 -34 0 -54 -15 -32 -23 7 -2 -9 -8 -37 -11 -120 -17 -130 -21 -128
-44 4 -32 -28 -45 -78 -32 -23 6 -44 9 -47 6 -3 -3 2 -6 11 -6 9 0 19 -4 22
-10 6 -10 -51 -7 -108 6 -27 6 -30 5 -19 -8 10 -13 9 -16 -7 -21 -11 -2 -24 0
-31 7 -8 8 -9 6 -4 -8 5 -13 4 -17 -4 -12 -14 9 -16 -16 -3 -29 5 -6 19 -39
31 -75 31 -93 55 -104 84 -39 15 34 29 46 79 70 72 33 143 47 160 30 7 -7 14
-59 17 -129 l5 -117 135 -6 c74 -4 167 -7 207 -8 70 -1 72 -2 87 -33 9 -17 16
-33 16 -35 0 -1 -18 -3 -41 -3 -36 0 -39 -2 -26 -15 22 -21 1 -65 -31 -65 -19
0 -23 -5 -20 -22 4 -27 -2 -28 183 7 179 34 334 45 455 33 52 -5 104 -7 117
-3 13 3 23 1 23 -5 0 -5 8 -10 18 -10 10 0 24 -6 30 -12 10 -10 8 -16 -10 -30
-23 -18 -22 -18 23 -12 40 6 46 4 46 -12 0 -11 -4 -25 -9 -31 -14 -18 -2 -43
20 -43 10 0 27 -9 37 -20 14 -16 26 -19 54 -14 25 4 32 2 22 -4 -20 -14 -5
-31 22 -25 18 5 20 3 10 -8 -20 -21 -15 -29 18 -29 17 0 28 -4 24 -10 -4 -6 5
-10 20 -10 15 0 24 -4 20 -10 -3 -5 -14 -10 -23 -10 -9 0 -22 -11 -28 -23 -9
-21 -7 -26 25 -47 31 -20 33 -24 16 -30 -13 -4 -15 -9 -7 -14 22 -13 13 -28
-13 -22 -28 7 -29 5 -15 -24 6 -11 14 -28 19 -38 14 -28 -2 -47 -27 -33 -36
19 -48 12 -14 -9 35 -22 41 -33 15 -28 -10 1 -23 -1 -30 -5 -7 -4 -35 2 -63
14 -54 23 -73 20 -46 -6 23 -24 20 -28 -19 -23 -23 3 -35 0 -35 -8 0 -7 -10
-14 -22 -16 -22 -3 -21 -4 7 -20 26 -14 27 -17 12 -23 -9 -4 -29 -5 -42 -3
-34 7 -31 -10 8 -45 22 -20 26 -27 12 -22 -11 4 -42 12 -70 20 -27 7 -81 28
-118 45 -37 18 -70 30 -73 27 -3 -3 19 -24 49 -46 96 -70 90 -86 -7 -17 -33
24 -76 51 -93 60 -40 20 -176 49 -338 71 -206 28 -301 58 -439 137 -68 40 -69
40 -142 33 -41 -4 -74 -7 -74 -8 0 -1 14 -45 30 -97 17 -51 30 -111 30 -131 0
-41 -32 -89 -59 -89 -32 0 -69 39 -89 93 -11 28 -23 52 -27 52 -4 0 -14 -22
-22 -50 -18 -59 -29 -75 -54 -75 -29 0 -48 50 -51 138 l-3 82 -33 0 c-18 0
-41 5 -51 12 -14 9 -52 7 -162 -6 -199 -23 -224 -22 -256 10 -22 22 -25 32
-20 68 7 50 -9 65 -70 64 -22 0 -53 3 -69 6 -55 12 -479 34 -494 26 -20 -12
17 -26 93 -35 32 -4 59 -10 61 -14 2 -3 1 -21 -1 -40 -6 -33 -6 -33 -47 -27
-22 4 -150 34 -284 66 -133 33 -251 60 -261 60 -10 0 -26 -9 -36 -20 -10 -11
-22 -17 -26 -14 -5 3 -9 0 -9 -5 0 -16 -66 -13 -79 2 -6 8 -14 28 -17 45 -7
37 -9 37 -139 52 -55 6 -110 18 -123 26 -27 17 -62 72 -62 95 0 40 23 43 203
31 95 -6 219 -18 277 -26 105 -15 592 -60 770 -71 52 -3 107 -8 121 -11 22 -4
35 6 93 73 58 68 91 119 172 262 12 22 15 35 8 38 -37 13 -45 32 -64 152 -22
132 -25 141 -43 141 -33 0 -87 23 -111 46 -35 36 -35 85 -1 112 17 14 23 26
19 38 -4 14 -3 15 3 6 8 -10 16 -9 40 5 27 15 35 15 55 4 38 -20 61 -67 55
-111 -4 -30 0 -43 14 -56 10 -9 25 -38 34 -65 9 -27 21 -47 25 -44 5 3 5 16 0
30 -8 21 -5 30 20 55 37 38 47 73 30 108 -8 15 -13 32 -12 39 2 7 -10 9 -36 6
-35 -5 -40 -2 -66 36 -16 23 -33 41 -37 41 -14 0 -11 28 4 33 9 3 9 7 -2 20
-14 18 -36 24 -26 7 3 -5 -6 -5 -24 1 -18 6 -33 21 -39 37 -7 20 -32 39 -93
71 -46 25 -97 57 -114 73 -16 15 -39 34 -49 42 -11 7 -20 22 -21 32 0 11 -4
25 -9 32 -4 7 -1 19 8 28 14 14 22 13 80 -10 71 -29 100 -34 74 -13 -21 15
-78 129 -78 153 0 11 4 25 9 33 11 17 71 30 126 28 31 -2 42 -7 52 -27z"/>
<path d="M3098 2108 c5 -5 16 -8 23 -6 8 3 3 7 -10 11 -17 4 -21 3 -13 -5z"/>
<path d="M2556 1763 c-20 -57 -44 -101 -91 -163 -59 -77 -84 -134 -73 -164 1
-6 18 -10 37 -9 29 0 47 14 131 99 53 55 105 114 114 132 16 31 16 33 -10 80
-35 63 -63 102 -74 102 -5 0 -20 -35 -34 -77z"/>
<path d="M3227 1656 l-17 -25 37 -11 c56 -17 162 -24 239 -15 84 9 72 15 -88
45 -62 11 -122 22 -133 25 -13 3 -26 -3 -38 -19z"/>
</g>
</svg>
