<?xml version="1.0" standalone="no"?>
<!DOCTYPE svg PUBLIC "-//W3C//DTD SVG 20010904//EN"
 "http://www.w3.org/TR/2001/REC-SVG-20010904/DTD/svg10.dtd">
<svg version="1.0" xmlns="http://www.w3.org/2000/svg"
 width="480.000000pt" height="360.000000pt" viewBox="0 0 480.000000 360.000000"
 preserveAspectRatio="xMidYMid meet">
<metadata>
Created by potrace 1.16, written by Peter Selinger 2001-2019
</metadata>
<rect width="1" height="360" fill="#000000"/>
<rect x="479" width="1" height="360" fill="#000000"/>
<rect width="480" height="1" fill="#000000"/>
<rect y="359" width="480" height="1" fill="#000000"/>
<g transform="translate(0.000000,360.000000) scale(0.100000,-0.100000)"
fill="#000000" stroke="none">
<path d="M0 2914 l0 -686 62 6 c214 21 407 26 574 16 296 -17 409 -38 562
-104 54 -23 99 -36 125 -35 59 1 145 21 192 46 139 73 177 98 199 129 58 85
131 112 236 88 81 -18 103 -11 77 26 -10 14 -13 34 -10 55 3 19 0 35 -6 39 -6
4 -11 23 -11 42 0 19 -3 33 -7 32 -13 -5 -16 6 -9 29 4 11 17 24 30 27 20 5
24 13 29 73 4 38 7 88 7 113 0 90 50 203 112 256 18 15 62 41 98 58 59 28 74
31 160 31 80 0 103 -4 145 -25 99 -48 195 -170 235 -295 7 -22 22 -55 33 -74
l20 -33 -21 7 c-27 8 -28 -6 -3 -61 10 -23 22 -57 26 -75 l8 -34 -21 25 -21
25 -1 -55 c0 -31 7 -82 15 -113 18 -70 18 -68 1 -61 -9 4 -18 -6 -26 -30 -13
-40 -40 -69 -40 -42 0 21 -5 20 -41 -6 -23 -17 -32 -20 -38 -10 -6 10 -10 10
-20 -1 -9 -11 -8 -17 4 -27 8 -7 15 -20 15 -30 0 -10 36 -44 88 -83 285 -214
311 -238 330 -309 12 -45 -2 -114 -48 -233 -34 -86 -34 -102 -5 -244 9 -46 21
-71 40 -89 24 -22 26 -30 22 -66 -4 -27 2 -74 18 -136 13 -52 44 -201 70 -330
45 -230 127 -605 144 -665 5 -16 12 -42 15 -58 l6 -27 715 0 715 0 0 1800 0
1800 -2400 0 -2400 0 0 -686z m1110 16 c0 -16 -5 -32 -10 -35 -15 -9 -29 37
-18 58 13 24 28 12 28 -23z m2650 -428 c0 -13 -66 -30 -81 -21 -11 6 -11 9 1
13 8 2 22 7 30 9 24 9 50 8 50 -1z m-2575 -187 c7 -36 6 -38 -8 -25 -9 8 -19
33 -22 55 -7 36 -6 38 8 25 9 -8 19 -33 22 -55z m1972 -788 c21 -23 11 -32
-19 -17 -34 19 -58 41 -58 57 0 11 6 10 31 -4 17 -10 38 -26 46 -36z m1193
-437 c12 -16 17 -30 12 -30 -16 0 -62 41 -57 51 10 16 23 10 45 -21z m38 -469
c31 -42 41 -71 23 -71 -5 0 -18 15 -29 33 -11 19 -28 46 -38 62 -30 45 5 26
44 -24z"/>
<path d="M2095 2369 c-11 -17 1 -21 15 -4 8 9 8 15 2 15 -6 0 -14 -5 -17 -11z"/>
<path d="M2597 2322 c-19 -21 -14 -32 15 -32 19 0 21 5 9 33 -6 18 -7 18 -24
-1z"/>
<path d="M2041 2040 c-93 -10 -110 -25 -47 -41 61 -15 100 -55 143 -144 38
-82 68 -220 59 -281 -16 -121 -84 -163 -165 -103 -41 30 -43 74 -4 84 15 3 39
15 55 26 35 25 37 64 7 151 -32 95 -46 118 -73 118 -14 0 -26 6 -29 13 -3 9
-9 8 -23 -5 -11 -9 -39 -26 -63 -36 -42 -19 -43 -21 -22 -33 11 -8 21 -17 21
-21 0 -4 -37 -8 -82 -10 l-83 -3 45 -28 45 -27 -95 6 c-77 6 -106 12 -155 37
-33 16 -62 33 -65 38 -11 17 -65 29 -132 29 -60 0 -84 -6 -162 -40 -124 -54
-173 -68 -300 -85 -173 -24 -735 -17 -881 11 l-35 6 0 -851 0 -851 668 0 667
0 29 56 c48 92 156 167 326 228 101 36 288 135 359 191 78 59 157 147 266 295
50 67 114 153 143 192 40 53 51 73 41 79 -10 6 -6 11 13 18 33 12 70 64 62 85
-4 9 -26 30 -51 47 -29 20 -46 40 -50 59 -8 41 -35 62 -88 67 -41 5 -45 8 -45
33 0 15 10 40 22 55 17 21 25 57 40 173 l18 147 -46 140 c-25 77 -50 144 -55
149 -9 10 -142 35 -179 34 -14 0 -58 -4 -99 -8z m-405 -406 c13 -19 14 -28 6
-36 -15 -15 -20 -9 -32 31 -11 38 3 41 26 5z m3 -378 c18 -21 -39 -42 -70 -26
-22 12 -22 13 -4 26 24 18 59 18 74 0z m412 -296 c10 -6 19 -15 19 -20 0 -18
-57 -10 -75 10 -18 20 -17 20 9 20 15 0 36 -5 47 -10z m-1611 -397 c-1 -16
-12 -41 -25 -58 -21 -25 -27 -28 -35 -15 -17 27 -11 58 18 79 36 27 42 26 42
-6z m1120 -148 c0 -8 -52 -26 -58 -20 -3 2 6 9 19 14 28 11 39 13 39 6z"/>
<path d="M1800 1831 c0 -9 30 -24 36 -18 2 1 -6 8 -16 15 -11 7 -20 8 -20 3z"/>
</g>
</svg>
