<?xml version="1.0" standalone="no"?>
<!DOCTYPE svg PUBLIC "-//W3C//DTD SVG 20010904//EN"
 "http://www.w3.org/TR/2001/REC-SVG-20010904/DTD/svg10.dtd">
<svg version="1.0" xmlns="http://www.w3.org/2000/svg"
 width="480.000000pt" height="360.000000pt" viewBox="0 0 480.000000 360.000000"
 preserveAspectRatio="xMidYMid meet">
<metadata>
Created by potrace 1.16, written by Peter Selinger 2001-2019
</metadata>
<rect width="1" height="360" fill="#000000"/>
<rect x="479" width="1" height="360" fill="#000000"/>
<rect width="480" height="1" fill="#000000"/>
<rect y="359" width="480" height="1" fill="#000000"/>
<g transform="translate(0.000000,360.000000) scale(0.100000,-0.100000)"
fill="#000000" stroke="none">
<path d="M0 1800 l0 -1800 44 0 c33 0 45 4 49 18 2 9 16 55 29 102 40 136 40
138 20 144 -25 8 -44 63 -31 88 6 11 8 26 5 34 -3 9 10 30 33 53 56 56 78 168
46 231 -14 26 -14 30 -1 30 11 0 14 11 13 43 -2 39 0 42 25 45 21 3 29 10 34
30 21 95 36 145 58 196 24 53 24 59 10 81 -10 15 -21 22 -31 18 -13 -5 -15 -1
-9 23 15 58 32 79 96 115 53 30 66 42 73 70 5 19 15 41 23 50 12 13 14 34 10
85 -6 86 -5 82 -17 61 -17 -30 -26 -11 -21 48 5 59 1 62 -38 40 -14 -8 -33
-14 -43 -15 -15 0 -11 9 20 47 l38 47 -42 -34 c-24 -18 -45 -31 -47 -29 -3 2
4 24 15 48 l19 43 -26 -6 -25 -7 35 55 34 54 -41 -5 -42 -5 53 32 c64 37 78
66 98 195 20 130 19 152 -8 160 -102 31 -288 110 -288 122 0 7 7 24 15 37 14
22 14 26 -4 57 -11 19 -23 53 -27 76 -6 40 -5 43 20 53 19 7 40 7 69 -1 39 -9
47 -7 111 26 38 20 75 44 82 53 8 10 14 45 14 82 0 141 83 339 186 450 75 80
163 133 256 156 87 21 275 15 441 -15 l109 -19 63 34 64 35 18 -33 c9 -18 22
-42 28 -53 5 -10 45 -37 87 -60 43 -22 103 -62 134 -89 96 -84 179 -231 208
-369 14 -71 7 -228 -12 -264 -18 -33 -16 -43 32 -145 77 -167 83 -206 30 -230
-23 -11 -29 -9 -45 11 -40 49 -32 2 29 -163 61 -171 194 -341 324 -417 38 -22
68 -43 68 -47 0 -5 -37 4 -82 19 -46 16 -89 28 -95 28 -7 1 -43 -27 -80 -62
-116 -108 -131 -113 -243 -78 -45 14 -69 17 -93 10 -18 -5 -44 -9 -60 -9 -25
0 -47 -23 -35 -35 3 -3 32 -8 67 -11 54 -6 65 -11 92 -42 17 -19 36 -46 42
-59 10 -22 8 -27 -15 -45 l-27 -19 38 -77 c22 -42 50 -112 63 -154 l23 -78 48
0 c58 0 66 -14 47 -79 -8 -25 -14 -60 -15 -77 -1 -17 -6 -37 -10 -44 -10 -16
37 -60 64 -60 17 0 61 -39 61 -54 0 -5 -12 -22 -26 -39 -20 -24 -25 -39 -21
-66 2 -20 -1 -43 -6 -52 -12 -20 0 -53 91 -246 l67 -142 1218 -1 1217 0 0 546
0 545 -22 -7 c-32 -10 -114 -6 -161 8 -35 10 -38 12 -17 15 14 2 64 8 113 15
l87 12 0 1233 0 1233 -2400 0 -2400 0 0 -1800z m710 1710 c0 -11 -4 -20 -10
-20 -5 0 -10 9 -10 20 0 11 5 20 10 20 6 0 10 -9 10 -20z m-360 -280 c9 -17 8
-20 -10 -20 -13 0 -20 7 -20 20 0 11 4 20 10 20 5 0 14 -9 20 -20z m4081 -181
c27 -14 14 -30 -19 -23 -36 9 -43 14 -37 25 8 12 32 11 56 -2z m-337 -456
c-11 -31 -32 -41 -40 -19 -9 23 24 72 39 57 7 -7 8 -20 1 -38z m46 -1967 c0
-16 -18 -31 -27 -22 -8 8 5 36 17 36 5 0 10 -6 10 -14z"/>
<path d="M1592 1395 c7 -7 139 -45 155 -45 7 0 13 8 13 19 0 13 -10 20 -31 25
-38 7 -144 8 -137 1z"/>
<path d="M525 1360 c-19 -36 -9 -38 48 -8 41 21 41 22 17 29 -42 12 -49 10
-65 -21z"/>
<path d="M1811 175 c-1 -28 -20 -112 -36 -160 -4 -11 2 -6 13 11 25 39 40 110
31 149 l-7 30 -1 -30z"/>
</g>
</svg>
