<?xml version="1.0" standalone="no"?>
<!DOCTYPE svg PUBLIC "-//W3C//DTD SVG 20010904//EN"
 "http://www.w3.org/TR/2001/REC-SVG-20010904/DTD/svg10.dtd">
<svg version="1.0" xmlns="http://www.w3.org/2000/svg"
 width="480.000000pt" height="360.000000pt" viewBox="0 0 480.000000 360.000000"
 preserveAspectRatio="xMidYMid meet">
<metadata>
Created by potrace 1.16, written by Peter Selinger 2001-2019
</metadata>
<rect width="1" height="360" fill="#000000"/>
<rect x="479" width="1" height="360" fill="#000000"/>
<rect width="480" height="1" fill="#000000"/>
<rect y="359" width="480" height="1" fill="#000000"/>
<g transform="translate(0.000000,360.000000) scale(0.100000,-0.100000)"
fill="#000000" stroke="none">
<path d="M1640 2278 c-37 -14 -69 -58 -70 -96 0 -47 58 -134 147 -217 42 -38
118 -111 171 -161 l96 -92 -27 -32 c-38 -45 -36 -91 8 -155 34 -49 34 -50 12
-53 -68 -8 -88 -16 -125 -48 -65 -55 -65 -83 -3 -204 28 -55 51 -102 51 -104
0 -3 -19 -10 -42 -17 -50 -13 -105 -52 -120 -84 -8 -18 -3 -43 26 -124 20 -56
43 -116 52 -134 33 -64 307 -322 531 -498 131 -104 155 -122 286 -212 l70 -47
1048 0 1049 0 0 260 0 260 -35 0 c-64 0 -282 -39 -367 -66 -45 -15 -107 -40
-136 -56 l-54 -30 -201 90 c-111 49 -291 129 -399 177 l-198 87 0 57 c0 110
-89 447 -170 641 -17 41 -33 82 -35 90 -9 33 -82 199 -118 265 -44 82 -101
160 -138 188 -26 19 -27 19 -67 -2 -57 -29 -82 -65 -82 -118 0 -50 8 -68 60
-138 48 -65 58 -97 66 -211 8 -116 0 -120 -74 -36 -33 39 -94 87 -184 146 -73
48 -189 125 -258 170 -151 98 -379 268 -458 339 -134 123 -255 186 -312 165z"/>
</g>
</svg>
