<?xml version="1.0" standalone="no"?>
<!DOCTYPE svg PUBLIC "-//W3C//DTD SVG 20010904//EN"
 "http://www.w3.org/TR/2001/REC-SVG-20010904/DTD/svg10.dtd">
<svg version="1.0" xmlns="http://www.w3.org/2000/svg"
 width="480.000000pt" height="360.000000pt" viewBox="0 0 480.000000 360.000000"
 preserveAspectRatio="xMidYMid meet">
<metadata>
Created by potrace 1.16, written by Peter Selinger 2001-2019
</metadata>
<rect width="1" height="360" fill="#000000"/>
<rect x="479" width="1" height="360" fill="#000000"/>
<rect width="480" height="1" fill="#000000"/>
<rect y="359" width="480" height="1" fill="#000000"/>
<g transform="translate(0.000000,360.000000) scale(0.100000,-0.100000)"
fill="#000000" stroke="none">
<path d="M0 2960 l0 -641 118 8 c248 17 528 3 782 -39 104 -17 338 -68 428
-94 21 -6 22 -4 22 49 0 31 -3 58 -7 60 -5 3 -46 -5 -91 -16 -67 -16 -88 -18
-103 -9 -10 7 -26 12 -34 12 -11 0 -15 11 -15 39 0 49 46 119 143 218 l71 72
-12 93 c-25 201 -26 281 -5 329 35 77 222 249 272 249 11 0 25 9 31 20 15 29
204 118 285 135 115 24 159 9 343 -113 81 -54 85 -55 115 -43 113 47 264 91
313 91 55 0 94 -22 94 -52 0 -31 -69 -128 -146 -208 -46 -48 -84 -90 -84 -95
0 -8 120 -121 179 -168 29 -24 31 -28 12 -22 -17 5 -22 4 -16 -5 6 -10 1 -11
-19 -6 -30 7 -31 5 -12 -32 15 -28 24 -117 14 -127 -3 -3 -11 9 -18 27 -7 18
-14 26 -16 18 -1 -8 -5 -32 -9 -52 -4 -24 -11 -38 -20 -38 -16 0 -65 -71 -65
-94 0 -17 51 -62 80 -71 28 -9 25 -32 -11 -73 -26 -29 -30 -40 -24 -68 4 -26
1 -38 -14 -53 -12 -12 -18 -27 -15 -36 4 -8 -1 -26 -10 -39 -8 -13 -21 -45
-27 -71 -10 -39 -18 -50 -44 -61 -29 -12 -33 -18 -39 -70 -9 -78 -38 -141 -75
-162 -17 -9 -31 -19 -31 -22 0 -3 66 -39 147 -80 81 -41 199 -105 262 -141
114 -66 116 -66 137 -48 29 27 46 24 96 -17 23 -20 57 -43 73 -50 17 -7 39
-22 50 -34 11 -13 40 -31 64 -41 24 -11 57 -31 73 -44 16 -14 36 -25 44 -25 8
0 26 -11 39 -24 19 -19 23 -32 19 -54 -5 -27 1 -34 113 -117 65 -49 158 -122
207 -163 71 -58 94 -72 113 -67 38 9 70 -5 83 -36 10 -23 19 -29 41 -29 33 0
69 -31 69 -59 0 -12 10 -21 27 -26 38 -9 53 -23 53 -50 0 -12 9 -30 20 -40 15
-13 20 -29 18 -56 -2 -33 5 -46 64 -111 75 -84 264 -333 323 -425 l40 -63 143
0 142 0 0 1800 0 1800 -2400 0 -2400 0 0 -640z"/>
<path d="M88 2067 l-88 -9 0 -1029 0 -1029 923 2 922 3 3 90 c4 99 -10 290
-34 490 -15 120 -19 134 -51 182 -27 39 -34 58 -29 77 3 14 2 28 -4 31 -12 8
-13 128 -1 212 9 61 5 94 -22 166 l-14 39 -7 -32 c-3 -18 -6 -43 -6 -57 0 -30
-20 -20 -21 10 0 12 -3 16 -6 10 -14 -35 -18 1 -15 140 l3 152 -62 12 c-86 16
-179 65 -249 129 -78 72 -96 103 -115 199 -9 44 -21 84 -26 89 -12 13 -166 50
-334 81 -275 49 -563 65 -767 42z"/>
<path d="M2656 1283 c47 -80 75 -135 71 -139 -2 -3 -16 14 -31 36 -14 22 -28
40 -31 40 -4 0 53 -131 61 -139 21 -21 24 131 5 183 -7 17 -79 66 -98 66 -3 0
8 -21 23 -47z"/>
<path d="M3200 909 l-33 -50 52 -52 c28 -29 51 -59 51 -67 0 -18 -74 -110
-113 -140 -15 -12 -25 -25 -22 -30 6 -10 188 -5 280 9 39 6 75 11 81 11 12 0
76 98 72 110 -5 14 -270 220 -324 253 -7 4 -25 -13 -44 -44z"/>
<path d="M3879 364 c-13 -14 -45 -41 -70 -60 -44 -32 -48 -38 -59 -102 -14
-85 -41 -146 -73 -166 -22 -15 -29 -15 -103 8 -43 13 -127 42 -185 64 -120 47
-264 75 -472 93 -117 10 -140 10 -152 -2 -30 -31 -125 -172 -125 -185 0 -12
121 -14 790 -14 435 0 790 3 790 6 0 14 -302 384 -314 384 -1 0 -13 -12 -27
-26z"/>
</g>
</svg>
