<?xml version="1.0" standalone="no"?>
<!DOCTYPE svg PUBLIC "-//W3C//DTD SVG 20010904//EN"
 "http://www.w3.org/TR/2001/REC-SVG-20010904/DTD/svg10.dtd">
<svg version="1.0" xmlns="http://www.w3.org/2000/svg"
 width="480.000000pt" height="360.000000pt" viewBox="0 0 480.000000 360.000000"
 preserveAspectRatio="xMidYMid meet">
<metadata>
Created by potrace 1.16, written by Peter Selinger 2001-2019
</metadata>
<rect width="1" height="360" fill="#000000"/>
<rect x="479" width="1" height="360" fill="#000000"/>
<rect width="480" height="1" fill="#000000"/>
<rect y="359" width="480" height="1" fill="#000000"/>
<g transform="translate(0.000000,360.000000) scale(0.100000,-0.100000)"
fill="#000000" stroke="none">
<path d="M440 3499 c-41 -55 -84 -112 -96 -127 -39 -50 -135 -214 -184 -316
-197 -403 -211 -854 -38 -1203 69 -138 131 -196 206 -192 20 1 51 -5 69 -14
18 -9 41 -17 53 -17 23 0 116 82 125 110 7 23 36 35 46 19 4 -7 10 -32 14 -56
l6 -44 20 25 c10 13 19 29 19 34 0 13 20 28 46 36 28 8 107 -56 136 -110 11
-21 24 -41 29 -42 5 -2 6 -9 3 -14 -4 -7 -2 -8 4 -4 6 4 27 -17 50 -51 42 -62
82 -103 82 -85 0 6 -4 14 -10 17 -5 3 -10 17 -10 31 0 14 4 22 10 19 14 -9 23
40 16 91 -3 24 -4 44 -1 44 2 0 17 -39 31 -87 l28 -88 8 43 c5 23 12 42 17 42
4 0 24 -17 44 -38 44 -45 62 -112 41 -160 -18 -45 -90 -118 -159 -165 -60 -40
-75 -54 -75 -71 0 -16 76 -81 127 -108 67 -36 80 -56 92 -152 9 -73 12 -82 50
-120 33 -33 41 -49 41 -78 0 -30 24 -71 33 -57 14 19 29 73 42 146 8 48 21
113 29 145 16 69 88 182 165 258 68 67 141 172 141 202 0 12 -9 56 -19 97 -11
42 -38 162 -61 266 -23 105 -53 235 -66 290 -14 55 -34 135 -44 178 -11 43
-26 101 -34 130 -9 29 -27 93 -42 142 -43 146 -100 301 -180 485 -20 47 -63
147 -96 224 -32 76 -81 182 -107 235 -26 53 -56 117 -66 144 l-18 47 -221 -1
-221 0 -75 -100z"/>
<path d="M1740 3592 c0 -4 14 -54 30 -112 40 -139 143 -549 169 -675 56 -272
89 -519 153 -1118 8 -76 16 -116 23 -113 91 34 386 42 514 13 41 -9 77 -15 79
-12 3 2 11 73 18 157 39 446 46 521 60 608 59 379 185 667 439 1005 46 61 106
137 135 169 48 55 51 61 34 73 -14 10 -175 13 -836 13 -450 0 -818 -3 -818 -8z"/>
<path d="M3914 3118 c-11 -11 -77 -72 -149 -136 -236 -209 -361 -355 -440
-515 -74 -150 -107 -289 -186 -772 l-52 -320 64 -96 c35 -52 83 -111 107 -130
67 -54 139 -172 162 -265 10 -44 36 -124 58 -179 68 -172 77 -303 37 -533 -14
-78 -25 -149 -25 -157 0 -13 72 -15 545 -15 300 0 545 2 545 4 0 2 -12 25 -26
50 -29 53 -57 136 -45 136 4 0 34 -13 67 -29 32 -16 61 -27 63 -25 2 2 -14 25
-36 51 -86 102 -123 165 -123 205 l0 38 73 -35 c68 -33 174 -75 225 -90 22 -6
22 -6 22 97 -1 100 -1 104 -35 158 -19 30 -35 58 -35 62 0 5 16 6 35 2 27 -5
35 -3 35 9 0 8 -7 20 -15 27 -37 31 -116 152 -140 215 -37 100 -65 226 -65
298 0 34 5 159 11 277 15 267 -2 495 -52 715 -29 127 -92 300 -147 402 -66
124 -349 484 -432 550 l-27 22 -19 -21z"/>
<path d="M1277 56 c-21 -47 -21 -56 -3 -56 26 0 39 28 29 63 l-10 32 -16 -39z"/>
</g>
</svg>
