<?xml version="1.0" standalone="no"?>
<!DOCTYPE svg PUBLIC "-//W3C//DTD SVG 20010904//EN"
 "http://www.w3.org/TR/2001/REC-SVG-20010904/DTD/svg10.dtd">
<svg version="1.0" xmlns="http://www.w3.org/2000/svg"
 width="480.000000pt" height="360.000000pt" viewBox="0 0 480.000000 360.000000"
 preserveAspectRatio="xMidYMid meet">
<metadata>
Created by potrace 1.16, written by Peter Selinger 2001-2019
</metadata>
<rect width="1" height="360" fill="#000000"/>
<rect x="479" width="1" height="360" fill="#000000"/>
<rect width="480" height="1" fill="#000000"/>
<rect y="359" width="480" height="1" fill="#000000"/>
<g transform="translate(0.000000,360.000000) scale(0.100000,-0.100000)"
fill="#000000" stroke="none">
<path d="M2485 1530 c-3 -5 -1 -10 4 -10 6 0 11 5 11 10 0 6 -2 10 -4 10 -3 0
-8 -4 -11 -10z"/>
<path d="M3950 1528 c0 -7 4 -28 10 -47 8 -30 4 -44 -36 -127 -25 -52 -49 -92
-53 -90 -4 3 -18 -4 -31 -14 l-25 -19 38 -34 c29 -27 37 -42 37 -69 0 -19 9
-70 20 -113 25 -98 25 -103 -2 -107 -20 -3 -23 -10 -26 -61 -3 -51 1 -64 28
-105 17 -26 33 -58 36 -72 3 -14 14 -44 26 -68 l21 -43 -22 -29 c-17 -23 -19
-34 -11 -49 5 -11 14 -21 20 -23 10 -3 0 -24 -32 -70 -10 -13 -27 -58 -39 -99
-22 -78 -77 -255 -86 -276 -4 -10 58 -13 286 -13 160 0 291 3 291 6 0 27 -96
346 -112 372 -15 25 -17 36 -8 46 21 26 60 170 60 224 0 29 -7 67 -16 83 -8
17 -13 34 -9 37 13 14 84 -1 174 -35 94 -36 95 -36 175 -25 45 6 93 8 109 5
l27 -5 0 76 0 76 -30 0 c-16 0 -49 7 -74 15 -67 23 -238 66 -263 67 -31 1 -22
13 81 126 60 64 86 100 86 117 0 35 -9 31 -54 -23 -21 -26 -70 -80 -108 -120
l-70 -72 -72 6 c-78 7 -90 10 -80 26 4 6 7 24 6 41 0 16 6 36 13 44 8 8 20 32
27 55 11 36 10 45 -10 82 -26 48 -27 65 -9 109 l14 32 -42 0 c-27 0 -71 14
-128 40 -83 39 -87 42 -99 84 -12 42 -38 68 -38 39z m10 -608 c0 -5 -5 -10
-11 -10 -5 0 -7 5 -4 10 3 6 8 10 11 10 2 0 4 -4 4 -10z"/>
<path d="M2450 1519 c0 -6 -7 -9 -15 -5 -15 5 -20 -9 -16 -48 1 -21 -96 -126
-117 -126 -7 0 -19 -6 -27 -13 -11 -12 -10 -18 5 -42 18 -27 21 -55 24 -225
l1 -54 -45 -17 c-49 -18 -59 -38 -37 -72 8 -12 17 -40 21 -62 4 -22 12 -45 16
-50 5 -6 2 -51 -7 -103 -15 -85 -15 -95 -1 -120 11 -18 13 -33 8 -43 -22 -39
-30 -159 -24 -345 l7 -194 294 0 c244 0 293 2 293 14 0 53 -48 158 -124 270
-46 67 -94 142 -106 167 -12 24 -37 65 -56 91 l-33 47 20 45 c18 41 51 76 71
76 5 0 24 -24 43 -54 38 -59 49 -66 105 -66 27 0 48 8 70 27 47 39 54 66 30
113 -23 45 -52 64 -85 56 -28 -7 -55 21 -60 64 -3 18 -11 40 -20 50 -8 9 -15
31 -15 48 0 26 -4 32 -22 32 -13 0 -30 5 -38 10 -13 8 -13 13 3 41 20 35 22
86 6 160 -10 46 -9 54 9 79 12 16 19 36 15 48 -5 22 -29 36 -38 22 -3 -4 -30
18 -61 50 -47 49 -54 61 -45 78 8 16 5 23 -19 41 -17 12 -30 16 -30 10z"/>
<path d="M880 1431 c-21 -13 -25 -23 -22 -57 3 -39 1 -42 -58 -88 -33 -26 -60
-52 -60 -58 0 -6 -13 -8 -35 -4 -30 6 -35 4 -40 -17 -4 -15 2 -37 16 -61 19
-33 20 -42 10 -76 -13 -45 -7 -68 26 -95 14 -11 33 -45 43 -75 23 -66 24 -70
7 -70 -8 0 -23 -10 -34 -22 -17 -19 -22 -39 -25 -119 -2 -57 -9 -103 -16 -112
-7 -8 -38 -25 -70 -36 -31 -12 -82 -35 -112 -50 -34 -18 -80 -31 -120 -36 -36
-4 -75 -13 -88 -21 -21 -14 -26 -13 -57 6 -19 12 -38 32 -41 45 -9 36 -40 43
-126 27 l-78 -14 0 -163 0 -163 154 -86 155 -86 480 0 c265 0 481 3 481 8 0 4
-12 27 -27 52 -14 25 -45 83 -69 130 -23 47 -56 105 -74 128 -30 42 -31 48
-31 135 0 51 5 115 11 142 26 118 27 109 -34 179 -31 36 -52 67 -47 70 5 3 22
7 37 8 60 5 82 107 45 211 l-18 53 23 34 c30 43 30 50 -1 50 -13 0 -41 14 -61
32 -32 29 -36 36 -31 70 5 34 1 42 -34 75 -21 20 -39 43 -39 49 0 21 -13 22
-40 5z m-115 -992 c15 -29 15 -32 -2 -45 -10 -7 -27 -14 -37 -14 -10 0 -24 -6
-30 -14 -12 -16 -226 -29 -226 -14 0 4 5 9 10 9 23 3 54 15 119 46 43 21 136
60 148 63 1 0 10 -14 18 -31z m-350 -49 c37 -14 22 -32 -15 -18 -17 5 -33 14
-36 19 -7 12 18 11 51 -1z m290 -131 c10 -14 1 -21 -19 -13 -9 3 -13 10 -10
15 7 12 21 11 29 -2z m83 -19 c13 0 17 -26 4 -34 -4 -2 -22 2 -40 11 -34 17
-33 38 2 29 11 -3 27 -6 34 -6z"/>
</g>
</svg>
