<?xml version="1.0" standalone="no"?>
<!DOCTYPE svg PUBLIC "-//W3C//DTD SVG 20010904//EN"
 "http://www.w3.org/TR/2001/REC-SVG-20010904/DTD/svg10.dtd">
<svg version="1.0" xmlns="http://www.w3.org/2000/svg"
 width="480.000000pt" height="360.000000pt" viewBox="0 0 480.000000 360.000000"
 preserveAspectRatio="xMidYMid meet">
<metadata>
Created by potrace 1.16, written by Peter Selinger 2001-2019
</metadata>
<rect width="1" height="360" fill="#000000"/>
<rect x="479" width="1" height="360" fill="#000000"/>
<rect width="480" height="1" fill="#000000"/>
<rect y="359" width="480" height="1" fill="#000000"/>
<g transform="translate(0.000000,360.000000) scale(0.100000,-0.100000)"
fill="#000000" stroke="none">
<path d="M800 3242 c0 -5 15 -26 33 -48 18 -21 43 -56 56 -77 13 -21 41 -47
64 -59 60 -30 145 -95 152 -115 8 -26 121 -107 545 -391 140 -94 323 -219 405
-278 83 -59 190 -134 239 -167 84 -56 90 -62 121 -132 39 -85 75 -258 56 -269
-4 -3 -24 15 -45 40 -60 72 -73 77 -137 58 -103 -30 -121 -43 -162 -122 -27
-51 -53 -84 -89 -112 -28 -22 -62 -58 -77 -79 -14 -22 -38 -49 -53 -61 -35
-27 -36 -60 -5 -150 21 -61 24 -66 64 -78 40 -13 42 -15 53 -70 25 -130 44
-193 94 -312 29 -69 74 -183 100 -255 26 -72 90 -227 141 -345 l93 -215 346
-3 c190 -1 346 0 346 3 0 3 -37 78 -81 167 -45 90 -99 203 -121 253 -22 49
-49 110 -60 134 -56 123 -58 157 -28 391 23 177 27 187 176 383 83 110 144
218 144 255 0 24 -63 82 -90 82 -51 0 -98 -31 -134 -89 -39 -64 -124 -171
-136 -171 -4 0 -13 35 -20 78 -7 42 -23 122 -36 176 -24 97 -30 146 -18 146 3
0 25 -13 49 -30 24 -16 46 -30 50 -30 3 0 21 -11 38 -24 71 -52 73 -47 11 29
-25 31 -43 59 -40 63 4 3 29 -1 56 -10 28 -9 50 -12 50 -7 0 14 -71 79 -182
167 -96 75 -119 105 -132 174 -5 30 -25 74 -53 119 -17 30 -29 38 -60 41 -21
3 -43 1 -50 -4 -7 -6 -16 -3 -25 10 -20 28 -60 52 -86 52 -17 0 -27 -8 -35
-30 -6 -16 -15 -30 -19 -30 -10 0 -288 201 -483 350 -298 226 -387 285 -580
383 -38 19 -93 43 -121 52 -28 8 -84 36 -125 61 -71 44 -183 104 -194 104 -3
0 -5 -4 -5 -8z"/>
<path d="M4767 3103 c-64 -91 -64 -95 -22 -218 21 -60 42 -117 46 -125 5 -8 9
74 9 183 0 108 -1 197 -3 197 -2 0 -16 -17 -30 -37z"/>
<path d="M4663 2483 c-133 -140 -135 -143 -245 -323 -215 -352 -230 -442 -112
-680 30 -61 57 -130 60 -153 3 -23 14 -71 25 -107 10 -36 21 -78 25 -95 l6
-30 16 30 16 30 14 -45 c7 -25 14 -51 15 -57 1 -27 17 -11 17 17 0 44 15 37
39 -19 11 -27 43 -82 71 -122 43 -63 50 -69 50 -45 0 17 4 25 11 20 11 -6 9 6
-9 56 -4 11 2 9 18 -5 l23 -20 -7 29 -7 30 33 -26 c18 -14 43 -40 56 -58 l22
-33 0 867 c0 476 -3 866 -8 866 -4 0 -62 -57 -129 -127z"/>
<path d="M4518 3 c23 -2 61 -2 85 0 23 2 4 4 -43 4 -47 0 -66 -2 -42 -4z"/>
</g>
</svg>
