<?xml version="1.0" standalone="no"?>
<!DOCTYPE svg PUBLIC "-//W3C//DTD SVG 20010904//EN"
 "http://www.w3.org/TR/2001/REC-SVG-20010904/DTD/svg10.dtd">
<svg version="1.0" xmlns="http://www.w3.org/2000/svg"
 width="480.000000pt" height="360.000000pt" viewBox="0 0 480.000000 360.000000"
 preserveAspectRatio="xMidYMid meet">
<metadata>
Created by potrace 1.16, written by Peter Selinger 2001-2019
</metadata>
<rect width="1" height="360" fill="#000000"/>
<rect x="479" width="1" height="360" fill="#000000"/>
<rect width="480" height="1" fill="#000000"/>
<rect y="359" width="480" height="1" fill="#000000"/>
<g transform="translate(0.000000,360.000000) scale(0.100000,-0.100000)"
fill="#000000" stroke="none">
<path d="M0 1800 l0 -1800 140 0 c77 0 140 2 140 4 0 2 -14 35 -31 73 -149
332 -211 778 -180 1303 23 387 80 727 181 1075 11 38 20 73 20 76 0 3 -21 21
-47 40 -82 58 -112 104 -113 172 0 44 4 51 45 92 48 46 133 85 186 85 38 0 89
-26 89 -46 0 -24 -29 -62 -66 -83 -19 -11 -34 -25 -34 -30 0 -17 174 -70 460
-140 320 -78 419 -87 590 -52 195 40 296 38 574 -16 345 -66 737 -233 1124
-480 73 -47 135 -84 137 -82 11 12 5 41 -18 89 -22 45 -27 69 -27 135 0 83 6
100 55 155 13 14 26 40 30 59 4 18 18 58 32 88 29 63 26 67 -43 78 -97 14 -68
61 48 76 65 9 76 14 103 43 17 19 46 62 65 96 100 176 98 175 320 174 186 -1
342 -20 403 -49 27 -13 40 -14 56 -6 22 12 25 9 34 -30 7 -28 60 -143 80 -171
9 -14 7 -23 -10 -46 -32 -43 -21 -69 30 -77 85 -12 182 -38 197 -51 11 -11 11
-17 2 -26 -10 -10 -135 -26 -226 -27 l-39 -1 6 -106 c6 -104 5 -108 -20 -141
-14 -18 -31 -32 -37 -30 -6 2 -28 -9 -49 -26 -29 -23 -41 -27 -47 -17 -5 9
-15 1 -34 -26 -14 -21 -26 -44 -26 -50 0 -14 44 -34 78 -34 127 0 180 -227 75
-322 -27 -25 -87 -48 -124 -48 -21 0 -29 -4 -25 -12 3 -7 9 -20 12 -28 3 -8
28 -30 55 -49 27 -19 63 -54 80 -79 27 -40 31 -53 26 -96 -4 -42 -1 -54 18
-76 88 -97 262 -316 284 -358 16 -30 9 -97 -14 -142 -18 -35 -62 -60 -105 -60
l-32 0 32 -53 c104 -174 212 -445 280 -704 9 -36 15 -43 35 -43 l25 0 0 1800
0 1800 -2400 0 -2400 0 0 -1800z"/>
<path d="M1468 2400 c-26 -4 -96 -25 -155 -46 -98 -34 -118 -38 -213 -38 -58
-1 -124 2 -147 6 l-41 8 -25 -68 c-62 -166 -82 -243 -148 -574 -114 -572 -149
-817 -149 -1066 0 -183 30 -434 70 -581 l11 -41 1028 0 1028 0 28 68 c75 180
131 275 258 437 110 141 140 205 145 312 l5 86 -81 -56 c-44 -30 -99 -69 -123
-86 -23 -17 -52 -31 -63 -31 -13 0 -39 18 -62 43 -93 97 -110 178 -51 244 34
38 73 103 153 251 30 56 39 82 33 94 -16 30 -9 102 15 153 12 28 48 84 79 125
50 66 86 135 75 145 -1 1 -44 30 -93 63 -431 284 -808 454 -1174 528 -134 27
-325 39 -403 24z"/>
<path d="M3798 868 c-55 -87 -51 -190 16 -393 40 -120 80 -295 101 -437 l6
-38 314 0 314 0 -26 93 c-56 206 -165 447 -285 629 -51 78 -62 89 -81 84 -92
-26 -136 -36 -164 -36 -49 0 -110 35 -141 80 -15 22 -30 39 -33 40 -4 0 -13
-10 -21 -22z"/>
</g>
</svg>
