<?xml version="1.0" standalone="no"?>
<!DOCTYPE svg PUBLIC "-//W3C//DTD SVG 20010904//EN"
 "http://www.w3.org/TR/2001/REC-SVG-20010904/DTD/svg10.dtd">
<svg version="1.0" xmlns="http://www.w3.org/2000/svg"
 width="480.000000pt" height="360.000000pt" viewBox="0 0 480.000000 360.000000"
 preserveAspectRatio="xMidYMid meet">
<metadata>
Created by potrace 1.16, written by Peter Selinger 2001-2019
</metadata>
<rect width="1" height="360" fill="#000000"/>
<rect x="479" width="1" height="360" fill="#000000"/>
<rect width="480" height="1" fill="#000000"/>
<rect y="359" width="480" height="1" fill="#000000"/>
<g transform="translate(0.000000,360.000000) scale(0.100000,-0.100000)"
fill="#000000" stroke="none">
<path d="M1926 2601 c-10 -11 -30 -23 -45 -26 -64 -15 -104 -56 -159 -166 -46
-92 -54 -118 -62 -192 -5 -49 -17 -101 -29 -124 -38 -76 -54 -160 -48 -266 6
-107 17 -131 64 -140 20 -4 39 5 77 33 61 46 114 73 181 93 28 8 67 22 87 31
87 37 334 9 451 -52 40 -20 79 -43 87 -51 8 -8 39 -25 70 -38 30 -14 70 -36
88 -50 l33 -25 -22 -24 c-27 -29 -19 -42 13 -20 12 9 26 16 30 16 4 0 25 -20
48 -44 31 -33 58 -49 108 -66 37 -13 107 -40 156 -61 l89 -39 37 40 c35 37 70
53 70 30 0 -5 7 -10 15 -10 8 0 15 9 15 20 0 26 38 60 67 60 13 0 41 16 63 36
36 33 40 41 40 84 0 72 16 79 96 47 74 -31 87 -32 104 -12 10 12 6 27 -18 78
-27 59 -33 65 -83 84 -44 16 -57 27 -73 59 -27 56 -31 105 -12 142 9 17 16 41
16 53 0 22 -8 22 -52 4 -16 -6 -18 -1 -18 43 0 48 -3 53 -47 92 -53 45 -50 45
-175 12 -42 -11 -129 -26 -193 -32 -128 -11 -158 -5 -206 46 -14 15 -34 24
-54 24 -17 0 -69 16 -115 35 -46 19 -100 38 -119 41 -20 4 -40 10 -46 14 -5 5
-37 11 -70 15 -75 9 -151 57 -206 129 -79 102 -69 96 -157 96 -65 0 -82 -3
-96 -19z"/>
</g>
</svg>
