<?xml version="1.0" standalone="no"?>
<!DOCTYPE svg PUBLIC "-//W3C//DTD SVG 20010904//EN"
 "http://www.w3.org/TR/2001/REC-SVG-20010904/DTD/svg10.dtd">
<svg version="1.0" xmlns="http://www.w3.org/2000/svg"
 width="480.000000pt" height="360.000000pt" viewBox="0 0 480.000000 360.000000"
 preserveAspectRatio="xMidYMid meet">
<metadata>
Created by potrace 1.16, written by Peter Selinger 2001-2019
</metadata>
<rect width="1" height="360" fill="#000000"/>
<rect x="479" width="1" height="360" fill="#000000"/>
<rect width="480" height="1" fill="#000000"/>
<rect y="359" width="480" height="1" fill="#000000"/>
<g transform="translate(0.000000,360.000000) scale(0.100000,-0.100000)"
fill="#000000" stroke="none">
<path d="M0 1800 l0 -1800 554 0 555 0 -20 57 c-18 53 -47 111 -164 323 -186
340 -271 645 -305 1105 -28 385 13 741 135 1174 l37 131 -41 38 c-70 64 -46
112 58 120 126 9 645 -155 751 -238 24 -18 251 -83 677 -192 l203 -51 36 19
c43 23 117 101 166 176 156 237 189 286 213 308 15 14 43 49 63 78 23 36 47
59 71 69 36 15 50 22 172 87 103 55 238 83 314 66 24 -5 97 -33 161 -62 96
-43 122 -60 155 -99 23 -28 35 -49 28 -51 -9 -3 -9 -9 -1 -23 6 -12 7 -45 3
-85 -5 -50 -14 -75 -38 -107 -16 -23 -34 -39 -38 -35 -4 4 -6 -2 -4 -13 2 -11
19 -26 37 -34 32 -15 41 -34 21 -47 -6 -4 -8 -20 -4 -40 3 -19 2 -40 -2 -47
-16 -25 -9 -63 16 -90 l26 -29 -27 7 c-24 6 -28 4 -28 -13 0 -11 -7 -25 -15
-32 -8 -7 -13 -16 -10 -20 2 -4 -12 -7 -33 -6 -30 1 -37 -2 -35 -17 1 -17 -2
-16 -24 5 l-25 23 7 -25 c16 -56 30 -74 64 -83 19 -5 53 -22 75 -38 33 -23 57
-30 121 -37 46 -5 98 -18 122 -30 45 -23 100 -84 109 -119 4 -13 8 -23 10 -23
1 0 49 -9 106 -20 121 -23 520 -90 537 -90 8 0 11 206 11 805 l0 805 -2400 0
-2400 0 0 -1800z"/>
<path d="M1401 2568 c-77 -203 -167 -509 -190 -648 -32 -191 -43 -622 -21
-828 22 -198 81 -388 235 -747 107 -251 118 -282 111 -316 l-5 -29 457 0 458
0 75 47 c206 131 537 448 708 678 58 77 108 141 113 143 29 12 -4 52 -139 169
-293 254 -320 286 -310 375 8 64 56 152 143 263 55 69 70 94 63 107 -5 9 -9
33 -9 53 0 20 -4 34 -9 31 -5 -3 -14 1 -21 9 -16 19 -30 19 -30 -1 0 -8 -4
-12 -10 -9 -5 3 -10 25 -10 48 -1 44 -2 44 -37 -10 -11 -16 -12 -13 -11 20 1
22 -3 42 -10 46 -8 5 -10 15 -6 27 7 19 7 19 -14 0 -26 -23 -26 -21 -7 34 15
43 13 55 -8 55 -17 0 -13 45 7 87 20 42 17 54 -18 60 -18 4 -30 -2 -46 -24
-20 -27 -48 -40 -34 -15 4 6 -2 4 -13 -5 -11 -10 -24 -18 -30 -18 -6 0 -13 -7
-17 -15 -8 -21 -27 -19 -20 3 5 16 4 16 -9 -1 -14 -17 -16 -14 -26 32 -6 28
-8 57 -5 65 8 22 -15 31 -237 86 -191 48 -753 200 -864 234 -27 9 -83 16 -123
16 -66 0 -73 -2 -81 -22z"/>
<path d="M4135 1960 c-4 -6 11 -30 33 -54 43 -46 57 -89 47 -135 -4 -19 2 -45
19 -82 37 -81 136 -234 149 -233 7 1 77 23 157 48 80 26 170 55 200 65 l55 18
3 135 3 135 -78 12 c-43 7 -188 33 -321 57 -275 50 -259 48 -267 34z"/>
<path d="M3212 1468 l-63 -61 73 -74 c40 -40 75 -73 79 -73 14 0 29 89 19 114
-5 14 -14 55 -21 91 -6 36 -14 65 -18 65 -3 0 -34 -28 -69 -62z"/>
<path d="M4080 1295 c0 -3 9 -22 20 -42 24 -46 26 -105 4 -124 -14 -11 -15
-27 -10 -99 7 -83 8 -86 50 -130 53 -54 76 -111 58 -140 -10 -17 -5 -35 40
-122 28 -57 88 -155 133 -218 94 -131 149 -226 139 -241 -3 -6 -19 -7 -35 -4
-16 4 -29 3 -29 -1 0 -4 12 -44 28 -90 l27 -84 148 0 147 0 0 634 0 634 -122
-47 c-172 -66 -207 -74 -286 -69 -90 7 -165 38 -240 98 -60 48 -72 56 -72 45z"/>
</g>
</svg>
