<?xml version="1.0" standalone="no"?>
<!DOCTYPE svg PUBLIC "-//W3C//DTD SVG 20010904//EN"
 "http://www.w3.org/TR/2001/REC-SVG-20010904/DTD/svg10.dtd">
<svg version="1.0" xmlns="http://www.w3.org/2000/svg"
 width="480.000000pt" height="360.000000pt" viewBox="0 0 480.000000 360.000000"
 preserveAspectRatio="xMidYMid meet">
<metadata>
Created by potrace 1.16, written by Peter Selinger 2001-2019
</metadata>
<rect width="1" height="360" fill="#000000"/>
<rect x="479" width="1" height="360" fill="#000000"/>
<rect width="480" height="1" fill="#000000"/>
<rect y="359" width="480" height="1" fill="#000000"/>
<g transform="translate(0.000000,360.000000) scale(0.100000,-0.100000)"
fill="#000000" stroke="none">
<path d="M3005 3568 c10 -43 41 -114 65 -148 11 -16 20 -30 20 -33 0 -3 -21
-8 -47 -11 -126 -18 -268 -71 -382 -144 -123 -77 -259 -237 -305 -357 -59
-154 -103 -238 -131 -249 -8 -3 -15 -10 -15 -15 0 -14 35 -2 60 21 30 28 36
15 18 -41 -12 -37 -12 -48 -3 -45 9 4 9 -9 -1 -63 -7 -37 -10 -70 -7 -73 3 -3
8 1 10 8 11 29 31 10 38 -36 10 -71 25 -89 20 -22 -4 52 -4 53 6 20 6 -19 18
-51 27 -70 13 -31 16 -32 22 -15 7 18 8 17 15 -7 7 -27 25 -39 25 -17 0 21 19
-2 25 -32 4 -17 9 -28 13 -25 3 3 13 -1 23 -10 16 -15 17 -13 10 18 -5 18 -11
43 -15 56 -4 12 -3 22 2 22 5 0 12 -17 16 -37 4 -21 13 -51 20 -68 l14 -30 1
35 c1 29 3 32 12 18 17 -30 -11 -98 -58 -146 -24 -23 -43 -49 -43 -58 0 -8 23
-29 50 -46 44 -27 50 -35 50 -65 0 -50 13 -68 64 -87 48 -18 60 -35 57 -79 -2
-19 5 -36 18 -48 12 -11 30 -37 40 -58 11 -20 27 -43 35 -50 18 -15 22 -82 6
-111 -8 -15 -6 -21 7 -28 10 -5 24 -7 31 -5 14 5 15 -6 3 -26 -5 -8 -5 -21 -1
-30 5 -9 16 -70 25 -136 9 -66 19 -136 22 -156 5 -32 0 -42 -32 -78 -40 -44
-60 -51 -69 -23 -3 9 -24 36 -45 60 -22 24 -58 81 -81 128 -22 46 -54 100 -71
119 -31 34 -31 36 -19 86 18 72 8 203 -21 286 -29 83 -77 134 -141 152 -42 12
-198 12 -237 0 -11 -3 -18 9 -24 39 -13 56 -32 48 -32 -13 l0 -49 -75 -28
c-41 -15 -86 -37 -100 -48 -14 -11 -39 -30 -57 -41 -33 -21 -48 -55 -74 -172
-10 -45 -10 -68 -1 -105 57 -229 64 -242 170 -354 39 -41 68 -62 102 -73 l48
-16 -33 -72 c-38 -83 -57 -151 -81 -292 -9 -55 -30 -136 -47 -180 -27 -71 -30
-93 -31 -190 -1 -60 3 -136 7 -168 l8 -57 283 0 282 0 30 62 c23 51 140 238
147 238 1 0 0 -67 -2 -150 l-3 -150 65 0 c60 0 66 2 70 22 l4 23 8 -23 7 -22
755 0 754 0 82 26 c45 15 104 41 132 58 l50 31 -32 3 c-38 4 -41 12 -12 38 12
10 30 32 42 48 l20 29 -65 -5 c-60 -3 -75 -10 -184 -75 -151 -90 -158 -93
-178 -54 -9 16 -13 36 -10 45 7 18 -24 164 -37 172 -5 3 -9 20 -9 37 0 18 -14
86 -31 152 -17 66 -36 140 -41 165 -6 25 -17 52 -24 61 -8 9 -12 23 -8 32 3 8
1 24 -4 34 -6 10 -13 48 -17 86 -6 58 -5 67 9 67 9 0 18 -12 22 -28 16 -72 27
-106 31 -96 3 9 10 9 28 0 18 -8 38 -43 76 -128 28 -65 55 -118 61 -118 5 0 7
18 4 43 -20 143 -46 365 -46 382 1 11 17 -13 37 -53 20 -40 38 -70 40 -68 4 4
-13 84 -44 206 -19 75 -30 306 -15 296 7 -4 12 -20 12 -36 0 -36 62 -214 102
-294 47 -94 109 -198 115 -192 3 2 -4 33 -15 68 -34 107 -51 180 -57 243 l-6
60 17 -30 c42 -75 126 -203 144 -220 22 -20 24 -15 10 35 -22 83 -41 276 -55
570 -17 356 -20 408 -41 570 -31 248 -84 468 -163 674 -27 71 -53 148 -57 170
-19 114 -115 291 -196 361 -58 49 -133 75 -218 75 l-69 0 -52 80 -51 80 -315
0 -315 0 7 -32z"/>
</g>
</svg>
