<?xml version="1.0" standalone="no"?>
<!DOCTYPE svg PUBLIC "-//W3C//DTD SVG 20010904//EN"
 "http://www.w3.org/TR/2001/REC-SVG-20010904/DTD/svg10.dtd">
<svg version="1.0" xmlns="http://www.w3.org/2000/svg"
 width="480.000000pt" height="360.000000pt" viewBox="0 0 480.000000 360.000000"
 preserveAspectRatio="xMidYMid meet">
<metadata>
Created by potrace 1.16, written by Peter Selinger 2001-2019
</metadata>
<rect width="1" height="360" fill="#000000"/>
<rect x="479" width="1" height="360" fill="#000000"/>
<rect width="480" height="1" fill="#000000"/>
<rect y="359" width="480" height="1" fill="#000000"/>
<g transform="translate(0.000000,360.000000) scale(0.100000,-0.100000)"
fill="#000000" stroke="none">
<path d="M0 1800 l0 -1800 848 0 849 0 20 47 c32 73 82 280 123 508 32 176 49
253 65 292 8 19 17 56 21 83 6 48 5 50 -22 60 -38 14 -328 160 -334 169 -3 3
-50 28 -105 56 -59 29 -93 51 -83 53 15 3 106 -39 197 -88 28 -16 165 -82 189
-91 20 -8 23 -7 17 11 -5 15 -2 18 12 15 83 -18 83 -18 83 -2 0 9 -15 24 -32
33 -18 9 -47 28 -64 40 -17 13 -34 24 -38 24 -3 0 -26 9 -51 21 -41 19 -45 24
-45 58 0 81 61 106 122 52 19 -16 56 -41 82 -55 27 -14 55 -31 61 -36 22 -18
42 14 48 77 4 32 7 117 8 190 2 127 1 133 -23 165 -55 73 -51 322 6 387 8 9
28 40 45 69 l31 53 -30 11 c-25 8 -29 14 -24 32 3 11 15 28 26 37 27 21 21 63
-9 67 -12 2 -25 12 -28 23 -7 20 -25 27 -25 9 0 -20 -18 -9 -41 25 -13 19 -30
35 -36 35 -7 0 -13 7 -13 15 0 9 -7 26 -14 38 -27 40 -22 286 6 343 7 15 36
42 63 61 83 56 114 84 108 99 -3 8 1 22 10 32 8 9 17 34 21 54 4 24 13 39 26
43 24 8 25 30 4 81 -9 22 -16 53 -16 69 1 30 -29 145 -70 267 l-23 68 -982 0
-983 0 0 -1800z m1470 1444 c0 -38 -7 -42 -26 -16 -14 18 -18 54 -7 65 13 13
33 -16 33 -49z m111 -217 c-8 -8 -11 -7 -11 4 0 20 13 34 18 19 3 -7 -1 -17
-7 -23z m-946 -347 c3 -5 -3 -10 -15 -10 -12 0 -18 5 -15 10 3 6 10 10 15 10
5 0 12 -4 15 -10z m-525 -70 c0 -5 -4 -10 -10 -10 -5 0 -10 5 -10 10 0 6 5 10
10 10 6 0 10 -4 10 -10z m625 -721 c12 -19 -5 -23 -22 -6 -16 16 -16 17 -1 17
9 0 20 -5 23 -11z m-115 -89 c0 -5 -5 -10 -11 -10 -5 0 -7 5 -4 10 3 6 8 10
11 10 2 0 4 -4 4 -10z m-400 -121 c0 -10 -4 -19 -9 -19 -12 0 -23 29 -15 41 8
14 24 0 24 -22z m857 -635 c-3 -3 -12 -4 -19 -1 -8 3 -5 6 6 6 11 1 17 -2 13
-5z"/>
<path d="M4788 3458 c-2 -79 -1 -309 2 -513 l5 -370 3 513 c1 281 0 512 -2
512 -3 0 -6 -64 -8 -142z"/>
<path d="M4790 1714 l0 -305 -96 7 c-54 4 -99 3 -103 -2 -7 -10 -215 -65 -243
-64 -10 0 -44 -9 -75 -19 -54 -19 -201 -53 -303 -72 -25 -5 -58 -11 -75 -14
-16 -4 -61 -1 -100 5 -38 7 -119 13 -178 13 l-108 2 5 -30 c3 -16 8 -57 11
-90 8 -78 -3 -93 -75 -101 -30 -4 -64 -14 -75 -24 -32 -27 -56 -32 -106 -19
l-47 12 -134 -138 c-125 -130 -153 -165 -129 -165 5 0 63 -25 128 -56 65 -31
145 -67 178 -81 33 -14 78 -33 100 -43 22 -10 82 -33 134 -51 51 -19 96 -40
99 -47 2 -7 -6 -24 -18 -38 -20 -21 -32 -24 -89 -24 -98 1 -239 42 -600 174
-24 9 -46 16 -49 16 -4 0 1 -71 13 -160 9 -69 45 -237 68 -315 l23 -80 927 -3
927 -2 0 1010 c0 555 -2 1010 -5 1010 -3 0 -5 -138 -5 -306z"/>
<path d="M2761 1269 l2 -82 -35 -14 c-20 -8 -38 -23 -41 -34 -5 -18 41 -169
63 -207 26 -46 25 -46 85 9 242 226 247 232 226 273 -5 11 -14 37 -19 56 l-9
35 -56 -3 c-36 -2 -64 2 -79 11 -13 8 -41 18 -63 21 -22 4 -48 9 -58 12 -17 5
-18 -1 -16 -77z"/>
</g>
</svg>
