<?xml version="1.0" standalone="no"?>
<!DOCTYPE svg PUBLIC "-//W3C//DTD SVG 20010904//EN"
 "http://www.w3.org/TR/2001/REC-SVG-20010904/DTD/svg10.dtd">
<svg version="1.0" xmlns="http://www.w3.org/2000/svg"
 width="480.000000pt" height="360.000000pt" viewBox="0 0 480.000000 360.000000"
 preserveAspectRatio="xMidYMid meet">
<metadata>
Created by potrace 1.16, written by Peter Selinger 2001-2019
</metadata>
<rect width="1" height="360" fill="#000000"/>
<rect x="479" width="1" height="360" fill="#000000"/>
<rect width="480" height="1" fill="#000000"/>
<rect y="359" width="480" height="1" fill="#000000"/>
<g transform="translate(0.000000,360.000000) scale(0.100000,-0.100000)"
fill="#000000" stroke="none">
<path d="M3387 3515 l-95 -85 -89 -9 c-233 -24 -480 -187 -575 -378 -35 -70
-42 -94 -45 -160 -6 -112 -28 -150 -138 -240 -49 -41 -101 -76 -115 -79 -75
-15 -109 -61 -90 -120 11 -33 15 -36 41 -30 22 4 31 1 39 -14 18 -33 66 -52
113 -45 23 4 50 14 60 23 20 18 19 20 41 -41 18 -49 48 -87 53 -70 2 6 17 -3
34 -19 21 -22 36 -29 51 -24 13 3 29 -1 40 -11 10 -9 18 -11 18 -5 0 6 -4 14
-10 17 -5 3 -15 15 -21 26 -9 18 -5 17 41 -7 29 -15 54 -33 57 -40 5 -13 -20
-69 -44 -96 -20 -22 -10 -35 36 -48 28 -7 41 -18 54 -45 9 -19 21 -35 25 -35
15 0 28 -44 28 -93 -1 -26 1 -47 3 -47 3 0 17 15 31 32 l27 33 8 -33 c5 -23
11 -32 21 -28 10 4 14 -3 14 -22 l1 -27 15 28 c8 15 19 27 24 27 21 0 38 -13
33 -26 -12 -32 18 -11 37 26 21 42 40 52 40 22 0 -9 9 -23 19 -29 22 -14 31
-1 31 47 0 37 9 60 24 60 21 0 -5 -114 -31 -142 -13 -14 -23 -35 -23 -49 0
-19 -16 -36 -74 -78 -73 -52 -112 -93 -154 -162 -15 -25 -37 -43 -65 -54 -57
-23 -134 -72 -141 -92 -4 -9 2 -34 13 -56 30 -60 10 -87 -77 -102 l-42 -7 26
-49 27 -49 -49 -52 c-27 -29 -63 -70 -79 -92 l-29 -38 -31 34 c-16 19 -64 72
-106 118 -42 47 -114 129 -159 184 -76 90 -155 156 -187 156 -26 0 -125 43
-143 62 -17 19 -37 22 -173 29 -168 10 -442 -2 -459 -19 -17 -17 2 -89 38
-143 22 -34 29 -49 18 -45 -18 7 -44 -10 -44 -29 0 -6 11 -17 24 -24 13 -7 29
-24 34 -37 6 -12 25 -30 42 -39 16 -8 30 -21 30 -29 0 -7 17 -31 38 -53 29
-32 49 -43 92 -53 102 -22 170 -23 280 -1 83 17 107 18 116 8 26 -26 169 -237
268 -396 145 -231 185 -277 275 -323 42 -22 87 -38 107 -38 40 0 39 4 23 -138
-10 -81 -16 -102 -37 -124 l-26 -28 517 0 c412 0 517 3 517 13 0 30 -62 87
-106 98 -43 11 -44 13 -65 78 -48 153 -34 313 48 546 l39 110 54 8 c30 5 107
7 170 5 108 -3 120 -5 185 -37 101 -50 244 -198 434 -449 142 -188 189 -240
233 -255 11 -4 45 17 103 63 47 38 95 74 105 80 19 10 20 23 20 351 0 303 -2
340 -15 335 -130 -49 -260 -53 -435 -13 -144 34 -163 34 -187 1 l-19 -25 -33
28 c-32 28 -32 31 -21 69 22 79 53 129 82 132 28 3 42 28 53 97 11 71 14 76
36 64 30 -15 37 -9 72 56 18 32 37 60 43 62 6 2 38 -32 70 -75 51 -68 65 -80
103 -91 56 -15 68 -7 124 84 39 63 48 71 85 79 40 9 42 12 42 45 0 32 -5 39
-45 65 -179 113 -307 232 -441 412 -89 118 -119 143 -147 115 -6 -6 -14 -54
-17 -108 -7 -96 -22 -153 -117 -448 -37 -116 -55 -146 -117 -196 -30 -24 -58
-52 -61 -61 -8 -23 -18 -23 -90 7 l-60 24 3 73 c3 84 -14 153 -77 296 -45 102
-49 123 -33 165 13 30 15 31 40 18 34 -17 82 -29 76 -20 -3 6 5 7 20 3 24 -6
25 -4 28 45 l3 51 34 -27 c19 -15 43 -29 54 -30 18 -3 19 1 14 39 -4 24 -9 58
-13 76 -8 37 4 41 50 17 36 -19 76 -21 58 -3 -16 16 -15 28 3 28 8 0 15 5 15
11 0 6 9 8 20 4 26 -8 25 3 -1 31 l-21 23 55 -6 c30 -3 68 -3 83 1 l27 7 -46
47 c-53 54 -56 62 -25 62 20 0 19 3 -15 38 -20 21 -37 42 -37 46 0 17 112 -2
134 -23 29 -27 50 -26 65 3 23 41 10 68 -43 97 -74 39 -186 174 -186 225 0 12
9 52 21 90 12 37 24 101 28 141 6 60 11 76 29 89 12 8 22 22 22 30 0 8 5 14
10 14 6 0 15 11 21 24 6 13 20 27 30 29 11 3 19 12 19 21 0 9 6 13 14 10 15
-6 50 42 41 56 -3 6 -16 10 -29 10 -12 0 -27 5 -33 11 -12 12 -116 35 -203 45
-33 4 -63 11 -66 16 -9 14 33 45 71 52 22 4 35 13 35 22 0 11 6 13 19 9 26 -8
64 32 58 63 -2 12 0 25 5 28 4 3 5 11 1 17 -4 6 -8 23 -9 36 -2 14 -9 30 -17
36 -8 5 -12 16 -9 24 2 7 -1 17 -9 21 -7 5 -14 19 -16 31 -2 13 -15 35 -29 50
-15 16 -22 32 -18 42 6 16 -15 17 -244 17 l-250 0 -95 -85z"/>
</g>
</svg>
