<?xml version="1.0" standalone="no"?>
<!DOCTYPE svg PUBLIC "-//W3C//DTD SVG 20010904//EN"
 "http://www.w3.org/TR/2001/REC-SVG-20010904/DTD/svg10.dtd">
<svg version="1.0" xmlns="http://www.w3.org/2000/svg"
 width="480.000000pt" height="360.000000pt" viewBox="0 0 480.000000 360.000000"
 preserveAspectRatio="xMidYMid meet">
<metadata>
Created by potrace 1.16, written by Peter Selinger 2001-2019
</metadata>
<rect width="1" height="360" fill="#000000"/>
<rect x="479" width="1" height="360" fill="#000000"/>
<rect width="480" height="1" fill="#000000"/>
<rect y="359" width="480" height="1" fill="#000000"/>
<g transform="translate(0.000000,360.000000) scale(0.100000,-0.100000)"
fill="#000000" stroke="none">
<path d="M2590 3302 c0 -4 20 -28 45 -52 25 -24 45 -47 45 -51 0 -4 -26 2 -57
13 -42 15 -91 22 -175 26 -105 4 -121 2 -162 -18 -25 -12 -61 -39 -79 -61
l-34 -39 -54 12 c-52 11 -129 5 -129 -10 0 -4 11 -25 23 -47 18 -32 30 -41 57
-45 l35 -5 -32 -14 c-38 -15 -41 -26 -14 -43 22 -14 18 -32 -17 -70 l-25 -27
29 -36 c16 -20 43 -55 60 -77 l32 -42 -5 -145 c-4 -118 -9 -156 -25 -196 -23
-54 -26 -109 -19 -315 3 -81 -1 -137 -12 -190 -9 -41 -18 -91 -20 -110 -6 -47
-21 -84 -58 -138 -20 -30 -27 -48 -20 -55 15 -15 33 4 61 63 13 27 27 50 30
50 4 0 2 -25 -6 -56 -7 -31 -10 -62 -7 -69 2 -8 -2 -56 -11 -107 -9 -51 -29
-219 -46 -373 -16 -154 -43 -404 -59 -555 -16 -151 -33 -320 -36 -375 -3 -55
-8 -110 -11 -122 l-4 -23 563 0 564 0 -33 170 c-36 187 -70 343 -174 795 -85
369 -107 504 -90 546 15 34 21 36 38 9 17 -27 34 -25 27 3 -5 19 0 27 30 43
63 33 92 104 64 156 -11 21 -12 21 -25 4 -21 -29 -41 -12 -49 39 -10 68 -12
72 -56 89 -41 17 -46 25 -27 44 19 19 32 14 56 -24 41 -64 146 -86 197 -41 23
19 28 35 40 132 29 217 28 216 78 293 26 40 45 77 42 82 -14 22 -279 220 -295
220 -10 0 -25 3 -33 6 -10 4 -26 -11 -48 -45 -19 -28 -37 -51 -40 -51 -9 0 1
158 12 188 5 12 15 22 23 22 8 0 29 20 46 45 19 27 39 45 50 45 24 0 25 18 4
48 -15 22 -15 23 9 17 15 -4 38 0 57 10 31 16 31 17 14 36 -16 17 -16 22 -4
30 13 8 11 13 -9 29 -13 11 -45 28 -71 37 -51 18 -60 34 -60 107 0 82 -112
226 -176 226 -13 0 -24 -4 -24 -8z m-493 -1454 c-3 -8 -6 -5 -6 6 -1 11 2 17
5 13 3 -3 4 -12 1 -19z m-10 -40 c-3 -8 -6 -5 -6 6 -1 11 2 17 5 13 3 -3 4
-12 1 -19z"/>
</g>
</svg>
