<?xml version="1.0" standalone="no"?>
<!DOCTYPE svg PUBLIC "-//W3C//DTD SVG 20010904//EN"
 "http://www.w3.org/TR/2001/REC-SVG-20010904/DTD/svg10.dtd">
<svg version="1.0" xmlns="http://www.w3.org/2000/svg"
 width="480.000000pt" height="360.000000pt" viewBox="0 0 480.000000 360.000000"
 preserveAspectRatio="xMidYMid meet">
<metadata>
Created by potrace 1.16, written by Peter Selinger 2001-2019
</metadata>
<rect width="1" height="360" fill="#000000"/>
<rect x="479" width="1" height="360" fill="#000000"/>
<rect width="480" height="1" fill="#000000"/>
<rect y="359" width="480" height="1" fill="#000000"/>
<g transform="translate(0.000000,360.000000) scale(0.100000,-0.100000)"
fill="#000000" stroke="none">
<path d="M993 3488 c46 -98 56 -113 87 -126 19 -8 48 -25 63 -38 16 -13 40
-24 54 -24 39 0 91 -37 114 -81 11 -22 25 -76 31 -122 6 -45 12 -83 13 -85 2
-2 56 -12 121 -22 281 -46 464 -117 452 -176 -10 -52 -180 -99 -460 -129 -35
-4 -58 -11 -58 -18 0 -7 25 -54 55 -104 59 -100 63 -108 40 -99 -21 8 -19 0
11 -40 39 -50 22 -42 -51 26 -35 33 -68 60 -73 60 -5 0 -2 -39 5 -87 12 -77
12 -100 -2 -186 -17 -110 -34 -155 -35 -97 -1 19 -5 44 -9 54 -6 17 -11 12
-34 -28 -15 -26 -34 -73 -44 -104 l-18 -57 -5 80 -5 80 -32 -80 c-17 -44 -36
-79 -43 -77 -6 1 -29 -11 -50 -28 -21 -16 -40 -30 -43 -30 -3 0 10 34 29 76
19 41 34 83 32 91 -4 24 -27 28 -35 6 -4 -10 -15 -30 -26 -45 -14 -19 -21 -49
-25 -102 -6 -96 17 -149 89 -202 40 -29 49 -41 49 -66 0 -42 -45 -83 -113
-103 -68 -19 -77 -29 -74 -82 1 -29 -5 -48 -18 -64 -18 -19 -27 -21 -92 -16
-80 6 -85 2 -52 -44 17 -24 24 -28 35 -18 21 17 27 5 20 -35 -4 -21 -18 -44
-34 -56 -17 -14 -36 -49 -54 -98 -37 -100 -67 -132 -126 -132 -34 0 -258 65
-371 108 -12 5 -13 -18 -8 -144 6 -141 7 -150 29 -164 62 -40 199 -158 326
-279 104 -100 152 -139 188 -152 60 -23 118 -79 149 -145 17 -37 40 -63 76
-89 77 -55 137 -113 161 -156 l22 -39 1157 0 1156 0 89 69 c167 129 279 270
300 378 l6 31 -38 -5 c-30 -4 -45 0 -66 16 -88 70 2 221 182 308 41 20 94 53
117 73 23 20 69 51 102 69 58 30 60 33 55 64 -9 51 -12 57 -33 57 -34 0 -81
50 -122 131 -32 64 -45 81 -74 93 -19 8 -35 21 -35 28 -1 7 -15 22 -33 33 -20
13 -34 32 -40 55 -20 79 -27 88 -78 105 -58 20 -109 59 -109 85 0 10 23 37 51
60 27 24 61 64 74 91 l25 47 -33 86 c-17 47 -38 86 -44 86 -7 0 -13 -6 -13
-12 -1 -7 -10 -2 -20 11 -26 30 -25 21 1 -30 11 -23 18 -43 16 -45 -3 -3 -35
28 -72 68 -57 62 -66 69 -61 44 27 -115 16 -112 -51 15 -26 50 -49 86 -51 80
-2 -5 2 -36 7 -67 6 -32 9 -59 7 -61 -2 -2 -18 22 -35 53 -34 63 -66 169 -77
252 -4 28 -10 52 -14 52 -4 0 -25 -33 -46 -72 -41 -80 -54 -78 -30 3 21 69 21
86 1 69 -12 -10 -15 -10 -15 4 0 20 -3 20 -79 -5 -86 -29 -126 -18 -182 53
-22 28 -47 64 -55 79 -13 26 -16 28 -42 17 -15 -7 -45 -27 -67 -45 -56 -44
-88 -55 -111 -39 -16 12 -16 18 -6 53 6 22 32 70 57 109 24 38 45 74 45 79 0
6 5 27 11 48 8 32 18 41 57 59 26 11 57 25 69 32 32 17 171 141 148 133 -53
-20 -271 -146 -331 -191 -117 -89 -144 -95 -144 -33 0 37 56 138 190 337 310
465 441 588 523 491 23 -28 33 -66 53 -198 3 -28 11 -43 20 -43 8 0 17 -1 20
-2 3 -2 18 29 33 67 30 78 87 180 133 238 l30 37 -1420 0 -1420 0 51 -112z"/>
<path d="M3333 3348 c-63 -65 -343 -458 -343 -482 0 -2 28 8 63 23 34 16 110
45 169 66 l108 38 11 41 c15 55 35 93 75 143 l34 41 -15 72 c-15 73 -30 110
-43 110 -4 0 -31 -24 -59 -52z"/>
<path d="M3376 2865 c-23 -35 -20 -39 15 -18 47 28 56 43 26 43 -15 0 -31 -9
-41 -25z"/>
<path d="M1145 2210 c-9 -27 6 -50 16 -24 4 10 8 25 8 32 1 20 -17 14 -24 -8z"/>
<path d="M3950 671 c-47 -49 -54 -91 -16 -91 20 0 26 10 44 62 12 34 19 64 17
67 -3 2 -23 -15 -45 -38z"/>
<path d="M674 456 c-3 -8 -1 -24 6 -35 10 -20 12 -20 35 -5 31 21 31 28 0 42
-33 15 -34 15 -41 -2z"/>
</g>
</svg>
