<?xml version="1.0" standalone="no"?>
<!DOCTYPE svg PUBLIC "-//W3C//DTD SVG 20010904//EN"
 "http://www.w3.org/TR/2001/REC-SVG-20010904/DTD/svg10.dtd">
<svg version="1.0" xmlns="http://www.w3.org/2000/svg"
 width="480.000000pt" height="360.000000pt" viewBox="0 0 480.000000 360.000000"
 preserveAspectRatio="xMidYMid meet">
<metadata>
Created by potrace 1.16, written by Peter Selinger 2001-2019
</metadata>
<rect width="1" height="360" fill="#000000"/>
<rect x="479" width="1" height="360" fill="#000000"/>
<rect width="480" height="1" fill="#000000"/>
<rect y="359" width="480" height="1" fill="#000000"/>
<g transform="translate(0.000000,360.000000) scale(0.100000,-0.100000)"
fill="#000000" stroke="none">
<path d="M2735 3224 c-53 -13 -114 -40 -155 -69 -25 -18 -56 -35 -70 -36 -19
-3 -26 -11 -31 -39 -3 -19 -19 -61 -34 -93 -21 -46 -29 -82 -36 -169 -7 -84
-6 -113 4 -122 7 -7 17 -11 22 -9 6 2 19 -11 29 -28 14 -24 21 -28 27 -18 8
11 11 11 19 -3 6 -9 16 -15 23 -13 6 3 23 -4 36 -14 22 -17 23 -21 12 -49 -13
-32 -9 -52 12 -52 7 0 24 -12 38 -27 14 -16 45 -43 69 -62 38 -31 46 -33 71
-24 25 10 29 9 29 -5 1 -13 4 -11 13 6 7 12 16 19 20 16 20 -21 -2 -54 -106
-157 -63 -62 -122 -125 -132 -140 -18 -29 -14 -50 7 -29 29 29 24 6 -17 -86
-58 -132 -63 -172 -35 -273 13 -44 20 -82 17 -85 -2 -3 -40 12 -83 34 -44 22
-121 52 -173 68 -78 23 -97 33 -112 57 -9 16 -15 36 -12 43 2 7 -2 23 -11 36
-20 28 -20 67 -1 92 8 11 13 28 9 38 -4 12 0 18 11 18 8 0 20 12 25 26 9 22 6
34 -20 72 -16 25 -30 51 -30 57 0 7 -7 18 -15 25 -13 10 -19 10 -33 -2 -9 -9
-34 -18 -56 -21 -21 -3 -49 -13 -62 -22 -48 -31 -56 -58 -70 -223 -7 -86 -18
-182 -25 -212 -12 -55 -8 -258 6 -292 4 -10 13 -18 21 -18 8 0 14 -9 14 -20 0
-10 5 -30 11 -42 8 -19 0 -54 -44 -193 -69 -213 -72 -231 -47 -245 10 -5 31
-10 45 -10 42 0 81 -29 144 -105 40 -49 69 -74 95 -84 57 -20 65 -3 27 59
l-31 50 27 11 c16 6 50 9 76 6 26 -2 50 0 53 5 4 6 17 8 30 5 15 -2 30 3 41
15 24 26 20 134 -12 331 -46 291 -45 277 -19 289 20 9 36 2 126 -58 l103 -70
8 -69 c10 -90 4 -132 -42 -328 -37 -155 -52 -237 -66 -357 -9 -80 -48 -220
-116 -424 -33 -98 -58 -180 -56 -182 2 -2 331 -3 730 -2 l727 3 -71 120 c-105
176 -157 286 -254 531 -103 258 -141 335 -242 497 -51 81 -77 134 -81 161 -2
23 -12 55 -20 71 -24 45 -24 311 0 329 10 8 13 17 8 26 -13 23 12 110 44 158
30 44 39 53 30 27 -4 -8 -1 -15 5 -15 7 0 14 7 17 15 4 8 10 12 15 9 6 -3 16
-1 23 5 11 9 11 22 1 69 -22 105 -65 228 -95 275 -21 33 -25 47 -15 47 7 0 20
-9 28 -20 13 -18 15 -19 21 -5 3 9 6 26 7 38 1 20 2 20 9 -3 l8 -25 1 28 c1
28 16 37 24 15 3 -7 10 2 17 20 10 27 15 30 26 21 12 -10 13 -8 4 15 -14 39
-13 46 11 46 15 0 19 5 15 18 -3 9 -8 31 -12 47 l-7 30 22 -19 c17 -15 21 -16
21 -4 0 8 -3 18 -7 21 -12 13 -42 87 -34 87 4 0 13 -12 20 -26 6 -15 14 -24
17 -22 5 6 -19 68 -46 118 -10 20 -33 87 -50 149 -17 62 -38 127 -47 144 -23
46 -139 163 -193 195 -40 25 -55 28 -135 29 -49 1 -99 -1 -110 -3z"/>
</g>
</svg>
