<?xml version="1.0" standalone="no"?>
<!DOCTYPE svg PUBLIC "-//W3C//DTD SVG 20010904//EN"
 "http://www.w3.org/TR/2001/REC-SVG-20010904/DTD/svg10.dtd">
<svg version="1.0" xmlns="http://www.w3.org/2000/svg"
 width="480.000000pt" height="360.000000pt" viewBox="0 0 480.000000 360.000000"
 preserveAspectRatio="xMidYMid meet">
<metadata>
Created by potrace 1.16, written by Peter Selinger 2001-2019
</metadata>
<rect width="1" height="360" fill="#000000"/>
<rect x="479" width="1" height="360" fill="#000000"/>
<rect width="480" height="1" fill="#000000"/>
<rect y="359" width="480" height="1" fill="#000000"/>
<g transform="translate(0.000000,360.000000) scale(0.100000,-0.100000)"
fill="#000000" stroke="none">
<path d="M0 2175 l0 -1425 114 0 114 0 6 31 c10 53 7 279 -4 279 -15 0 56 136
75 144 9 3 27 6 39 6 13 0 38 7 56 16 l33 17 -6 83 -5 83 37 12 c20 6 42 16
49 22 14 11 16 67 2 67 -15 0 -12 12 10 40 l20 25 19 -25 c17 -22 18 -27 5
-41 -12 -14 -12 -22 -2 -54 10 -31 20 -41 45 -47 37 -10 50 -25 34 -41 -6 -6
-11 -38 -11 -71 0 -58 2 -62 31 -78 17 -10 43 -18 58 -18 34 0 50 -19 80 -94
17 -42 21 -60 12 -65 -8 -5 -14 -57 -18 -145 l-6 -137 43 3 44 3 2 93 c2 89 4
96 42 160 22 37 49 79 60 92 l19 23 51 -87 c50 -84 52 -91 52 -162 0 -68 2
-74 23 -79 12 -2 128 -9 257 -15 129 -5 272 -13 316 -16 l82 -6 63 -64 c35
-35 67 -64 71 -64 4 0 8 88 8 196 l0 196 48 69 c26 38 50 69 53 69 16 0 93
-135 99 -173 3 -23 3 -170 -1 -327 -4 -157 -8 -372 -8 -477 l-1 -193 1345 0
1345 0 0 1800 0 1800 -2400 0 -2400 0 0 -1425z m3134 554 c14 -13 20 -34 22
-77 2 -33 9 -75 17 -95 15 -34 16 -35 98 -46 104 -15 119 -19 119 -35 0 -19
-52 -63 -85 -71 -28 -6 -29 -8 -11 -20 10 -8 16 -20 14 -27 -3 -7 6 -26 18
-41 30 -36 31 -53 2 -33 -22 16 -48 22 -35 9 4 -3 -2 -13 -13 -20 -12 -8 -17
-20 -13 -26 5 -9 3 -9 -8 0 -8 7 -25 10 -36 7 -20 -5 -21 -12 -20 -79 l2 -73
27 20 c27 19 151 78 164 78 15 0 -9 -88 -36 -137 -30 -53 -38 -79 -21 -69 5 3
78 8 162 10 l154 5 -29 -24 c-27 -21 -27 -24 -10 -33 11 -5 34 -13 52 -17 33
-7 42 -20 20 -28 -22 -8 -1 -19 59 -32 57 -12 57 -13 25 -20 -44 -10 -49 -22
-15 -37 15 -7 36 -21 45 -30 17 -17 16 -18 -22 -18 -46 0 -51 -13 -18 -47 13
-14 17 -23 9 -23 -8 0 -11 -6 -7 -15 4 -11 -2 -15 -22 -16 -26 0 -26 -1 -4 -9
24 -10 29 -26 10 -33 -12 -4 0 -11 77 -42 19 -8 19 -9 -2 -12 -13 -3 -23 -9
-23 -14 0 -5 -16 -2 -36 6 -47 20 -53 19 -47 -5 3 -13 17 -22 39 -26 49 -9 31
-25 -20 -18 -38 6 -44 4 -48 -14 -3 -11 -1 -26 6 -33 8 -9 7 -10 -9 -4 -11 4
-31 10 -44 13 -21 4 -22 3 -12 -16 21 -39 11 -46 -22 -14 -18 18 -43 32 -56
32 -20 0 -23 -4 -19 -30 3 -16 1 -30 -3 -30 -4 0 -10 -14 -14 -30 -4 -17 -11
-28 -15 -25 -5 3 -7 11 -4 19 12 30 -14 63 -68 83 -29 12 -60 24 -68 27 -13 5
-15 -1 -12 -31 7 -71 -60 -120 -102 -74 -13 14 -36 104 -36 144 0 15 -64 67
-82 67 -13 0 -24 -22 -45 -92 -16 -50 -36 -96 -46 -102 -26 -17 -58 22 -64 78
-5 38 -10 48 -36 61 -16 8 -33 12 -37 10 -5 -3 -17 6 -28 20 -11 14 -27 25
-35 25 -8 0 -17 7 -21 15 -8 22 -26 18 -26 -6 0 -14 -5 -19 -17 -17 -13 3 -17
12 -15 30 2 18 -3 27 -16 30 -22 6 -38 56 -23 71 6 6 34 11 62 12 36 1 54 6
57 16 9 28 46 71 76 90 33 20 70 107 55 131 -5 7 -9 23 -9 35 0 13 -10 27 -22
34 -29 15 -38 28 -38 58 0 14 -6 40 -12 59 -11 30 -10 39 15 85 18 34 24 54
17 61 -6 6 -10 22 -10 36 0 37 -37 105 -58 105 -9 0 -26 -2 -37 -6 -64 -20
-75 -20 -75 0 0 11 -6 21 -12 24 -14 4 63 47 85 47 8 0 20 6 26 14 9 11 6 17
-14 30 -14 9 -25 23 -25 32 0 12 6 11 31 -7 37 -26 62 -17 67 23 2 14 11 29
22 34 10 5 33 29 52 54 19 25 45 50 58 57 30 15 79 6 104 -18z"/>
<path d="M2890 1745 c-7 -9 -10 -18 -7 -22 8 -7 37 15 37 28 0 14 -16 11 -30
-6z"/>
<path d="M3630 1515 c7 -8 19 -15 27 -15 13 0 13 3 3 15 -7 8 -19 15 -27 15
-13 0 -13 -3 -3 -15z"/>
</g>
</svg>
