<?xml version="1.0" standalone="no"?>
<!DOCTYPE svg PUBLIC "-//W3C//DTD SVG 20010904//EN"
 "http://www.w3.org/TR/2001/REC-SVG-20010904/DTD/svg10.dtd">
<svg version="1.0" xmlns="http://www.w3.org/2000/svg"
 width="480.000000pt" height="360.000000pt" viewBox="0 0 480.000000 360.000000"
 preserveAspectRatio="xMidYMid meet">
<metadata>
Created by potrace 1.16, written by Peter Selinger 2001-2019
</metadata>
<rect width="1" height="360" fill="#000000"/>
<rect x="479" width="1" height="360" fill="#000000"/>
<rect width="480" height="1" fill="#000000"/>
<rect y="359" width="480" height="1" fill="#000000"/>
<g transform="translate(0.000000,360.000000) scale(0.100000,-0.100000)"
fill="#000000" stroke="none">
<path d="M560 3372 c0 -32 -1 -33 -22 -18 -32 23 -47 19 -19 -5 26 -22 25 -27
-9 -34 -33 -6 -38 -15 -9 -15 14 0 33 -6 43 -13 16 -12 15 -15 -14 -52 -40
-50 -55 -59 -79 -45 -22 11 -25 8 -35 -32 -4 -18 -15 -30 -31 -34 -31 -8 -31
-15 1 -53 30 -36 24 -40 -13 -11 -15 11 -28 19 -30 16 -6 -6 56 -94 76 -108
10 -7 21 -33 25 -57 3 -24 13 -55 20 -70 8 -14 21 -56 31 -94 16 -66 16 -68
-4 -107 -11 -22 -16 -40 -11 -40 23 0 7 -19 -29 -33 -58 -23 -64 -54 -29 -133
21 -48 47 -90 78 -125 8 -10 37 -27 63 -38 43 -19 51 -27 80 -88 21 -47 31
-84 32 -119 0 -34 6 -56 18 -68 19 -19 23 -81 6 -92 -21 -13 -56 -110 -99
-274 -45 -172 -92 -291 -139 -350 -42 -54 -121 -205 -121 -233 0 -53 16 -72
80 -98 69 -27 67 -21 35 -129 -12 -41 -15 -86 -13 -180 3 -106 0 -132 -16
-168 -16 -35 -17 -44 -5 -58 24 -29 5 -128 -36 -189 -14 -20 -24 -42 -22 -49
2 -6 -2 -25 -9 -42 -11 -25 -11 -41 -1 -80 l12 -49 464 0 463 0 18 25 c25 36
50 117 50 162 0 32 -5 41 -33 58 -17 11 -46 20 -64 20 -47 0 -83 20 -90 49 -3
14 -10 32 -16 39 -7 9 -7 24 2 48 8 23 10 56 6 100 -5 39 -2 103 6 160 11 85
11 103 -4 157 -9 34 -15 62 -14 62 18 10 129 100 149 121 82 87 95 230 38 409
-17 55 -40 127 -50 160 -40 129 -98 282 -126 332 l-29 53 23 39 c24 44 27 73
12 117 -5 16 -14 60 -19 97 -5 37 -19 88 -31 113 -12 25 -21 46 -19 48 23 19
72 23 125 10 81 -19 118 -17 164 6 70 36 75 68 24 142 -51 75 -104 173 -110
202 -4 24 -3 25 50 25 68 -1 100 19 127 80 24 55 19 105 -18 169 -29 50 -82
80 -152 89 -41 5 -51 2 -78 -21 -18 -15 -40 -49 -51 -79 -23 -60 -34 -67 -50
-32 -8 18 -19 25 -39 25 -71 0 -102 12 -112 41 -5 16 -15 29 -20 29 -16 0 -13
26 5 44 8 9 18 30 21 48 4 28 -1 39 -32 71 -35 36 -37 37 -111 37 -86 0 -139
20 -129 49 4 13 -4 21 -30 31 -19 8 -35 20 -35 27 0 17 -15 17 -30 -2 -18 -21
-27 -19 -44 13 l-15 27 -1 -33z m255 -2495 c60 -16 65 -16 65 -6 0 14 46 11
59 -5 6 -7 23 -91 36 -187 22 -150 24 -180 13 -221 -10 -41 -9 -53 5 -83 22
-45 21 -57 -2 -86 -15 -19 -36 -27 -93 -36 -40 -6 -117 -19 -170 -29 -54 -10
-100 -15 -104 -11 -4 3 -6 28 -6 54 1 26 -5 67 -14 92 -13 40 -13 48 1 83 8
21 13 49 9 62 -3 13 2 56 11 97 8 41 22 118 30 172 8 54 17 103 21 108 7 12
86 10 139 -4z"/>
<path d="M2549 3291 c39 -36 41 -78 7 -110 -19 -18 -33 -22 -60 -19 -39 4 -47
-5 -19 -21 16 -8 15 -12 -12 -33 -17 -12 -71 -57 -122 -100 -86 -72 -95 -77
-147 -81 -31 -2 -59 -7 -62 -10 -3 -3 5 -21 19 -39 14 -18 34 -55 45 -82 19
-49 19 -50 -1 -95 -26 -59 -25 -111 2 -150 13 -17 27 -29 32 -26 11 7 23 -22
53 -124 20 -70 46 -105 46 -64 1 17 1 17 11 1 5 -10 17 -18 24 -18 8 0 15 -6
15 -14 0 -10 -26 -16 -109 -21 -60 -4 -118 -4 -129 -1 -15 5 -22 1 -27 -14 -4
-12 -18 -25 -31 -30 -23 -9 -302 -5 -311 4 -3 2 -7 22 -10 44 -4 27 -15 50
-34 68 -16 15 -29 33 -29 40 0 23 -19 25 -82 8 -105 -27 -182 -55 -205 -76
-27 -25 -65 -112 -57 -132 5 -12 11 -13 24 -6 15 8 22 5 34 -11 13 -20 20 -21
89 -15 l74 7 31 -66 c18 -36 32 -68 32 -71 0 -3 11 -29 25 -59 27 -56 37 -63
100 -72 48 -6 69 -27 54 -54 -5 -11 -6 -19 -2 -19 4 0 0 -5 -10 -11 -10 -6
-21 -8 -24 -5 -4 3 -1 6 5 6 7 0 12 11 12 25 l0 24 -47 -25 c-66 -35 -83 -52
-83 -88 0 -17 -1 -55 -3 -83 -3 -47 -1 -53 15 -53 11 0 18 -5 16 -12 -3 -7 -9
-13 -14 -13 -5 0 -22 -9 -38 -21 -28 -20 -28 -21 -12 -57 12 -31 20 -37 45
-37 16 0 37 8 47 18 10 9 20 18 23 18 32 8 51 19 51 29 0 7 16 23 36 34 36 21
37 21 68 3 37 -22 96 -17 205 17 35 11 87 23 116 26 l52 7 25 -63 26 -63 -38
-46 c-21 -26 -57 -94 -84 -160 -26 -63 -60 -144 -74 -180 -15 -36 -54 -106
-87 -155 -155 -234 -155 -234 -125 -303 14 -32 35 -59 61 -78 23 -16 61 -46
85 -66 25 -21 54 -38 64 -38 10 0 25 -8 32 -18 7 -10 31 -25 53 -33 27 -10 41
-22 46 -39 13 -48 9 -108 -11 -154 -25 -56 -35 -128 -26 -190 l7 -46 90 0 c49
0 89 2 89 4 0 3 33 131 78 299 9 34 20 57 28 57 8 0 14 -3 14 -7 2 -71 26
-155 71 -247 l52 -106 99 0 c91 0 98 1 89 18 -5 9 -9 49 -8 88 1 60 -3 78 -26
117 -27 45 -32 86 -18 136 5 20 20 29 80 47 62 19 81 30 118 71 61 66 83 104
83 144 0 37 -56 180 -87 226 -27 38 -86 240 -96 328 -10 82 -40 211 -53 226
-8 8 -19 30 -25 47 -10 29 -8 37 20 79 l31 46 -25 42 c-35 60 -48 185 -40 366
5 97 3 154 -4 167 -10 18 -6 20 57 26 37 3 112 4 168 0 81 -4 103 -3 112 9 10
12 6 20 -24 46 -35 31 -38 32 -102 26 -66 -7 -117 -8 -220 -6 -38 1 -52 5 -50
14 3 6 14 13 26 15 12 2 22 9 22 15 0 7 9 18 19 24 52 33 76 266 38 364 l-19
47 27 40 c15 22 34 43 42 46 21 8 -2 36 -29 36 -10 0 -21 7 -24 15 -4 8 -12
15 -19 15 -7 0 -24 17 -37 38 -14 20 -59 75 -100 122 l-75 85 24 19 c18 13 22
21 14 29 -6 6 -11 26 -11 44 0 47 -19 81 -53 93 -52 18 -61 12 -28 -19z m476
-1081 c4 -7 -42 -9 -132 -8 -115 1 -126 3 -68 8 115 11 193 11 200 0z m-1108
-57 c5 -13 -62 -37 -82 -29 -23 8 -18 34 8 39 36 7 70 3 74 -10z"/>
</g>
</svg>
