<?xml version="1.0" standalone="no"?>
<!DOCTYPE svg PUBLIC "-//W3C//DTD SVG 20010904//EN"
 "http://www.w3.org/TR/2001/REC-SVG-20010904/DTD/svg10.dtd">
<svg version="1.0" xmlns="http://www.w3.org/2000/svg"
 width="480.000000pt" height="360.000000pt" viewBox="0 0 480.000000 360.000000"
 preserveAspectRatio="xMidYMid meet">
<metadata>
Created by potrace 1.16, written by Peter Selinger 2001-2019
</metadata>
<rect width="1" height="360" fill="#000000"/>
<rect x="479" width="1" height="360" fill="#000000"/>
<rect width="480" height="1" fill="#000000"/>
<rect y="359" width="480" height="1" fill="#000000"/>
<g transform="translate(0.000000,360.000000) scale(0.100000,-0.100000)"
fill="#000000" stroke="none">
<path d="M0 1800 l0 -1800 110 0 c99 0 110 2 110 18 0 10 9 98 21 197 21 189
31 385 22 446 -4 26 -12 40 -30 48 -13 6 -23 17 -21 23 3 7 -4 19 -13 28 -18
14 -16 19 31 100 47 81 50 90 62 200 19 169 15 249 -16 364 -35 128 -29 211
25 333 13 31 16 49 10 66 -11 27 -5 39 27 56 21 11 23 18 20 73 -3 60 -4 62
-49 93 -25 17 -44 36 -42 41 2 6 -16 19 -39 30 -99 44 -119 86 -98 202 12 63
17 71 76 130 111 111 227 141 340 88 50 -23 126 -103 158 -165 20 -38 74 -235
87 -316 6 -38 26 -140 44 -225 19 -85 39 -195 45 -245 6 -49 20 -139 30 -200
10 -60 23 -173 29 -250 7 -77 23 -246 37 -375 32 -308 33 -287 -16 -301 -47
-14 -46 7 -4 -184 13 -60 33 -147 45 -192 l22 -83 1889 0 1888 0 0 1221 0
1221 -41 -34 c-155 -125 -304 -211 -429 -247 -25 -8 -65 -19 -90 -27 -211 -62
-444 -54 -735 25 -59 17 -147 62 -320 167 -144 87 -322 289 -409 463 -82 164
-99 217 -137 416 -11 57 -13 292 -3 354 l7 41 -1322 0 -1321 0 0 -1800z"/>
</g>
</svg>
