<?xml version="1.0" standalone="no"?>
<!DOCTYPE svg PUBLIC "-//W3C//DTD SVG 20010904//EN"
 "http://www.w3.org/TR/2001/REC-SVG-20010904/DTD/svg10.dtd">
<svg version="1.0" xmlns="http://www.w3.org/2000/svg"
 width="480.000000pt" height="360.000000pt" viewBox="0 0 480.000000 360.000000"
 preserveAspectRatio="xMidYMid meet">
<metadata>
Created by potrace 1.16, written by Peter Selinger 2001-2019
</metadata>
<rect width="1" height="360" fill="#000000"/>
<rect x="479" width="1" height="360" fill="#000000"/>
<rect width="480" height="1" fill="#000000"/>
<rect y="359" width="480" height="1" fill="#000000"/>
<g transform="translate(0.000000,360.000000) scale(0.100000,-0.100000)"
fill="#000000" stroke="none">
<path d="M0 1800 l0 -1800 2400 0 2400 0 0 1800 0 1800 -2400 0 -2400 0 0
-1800z m2127 1019 c3 -12 11 -18 19 -15 8 3 26 1 39 -4 25 -9 25 -11 10 -39
-21 -42 -20 -44 26 -38 26 3 46 13 56 27 43 61 80 80 160 80 48 0 72 -8 160
-52 56 -28 103 -56 103 -61 0 -5 -25 -6 -57 -3 -32 3 -74 7 -93 9 l-35 2 0
-44 c0 -43 2 -45 35 -53 19 -5 51 -13 71 -19 20 -5 53 -23 74 -39 22 -18 50
-30 66 -30 16 0 29 -3 29 -8 0 -4 14 -13 30 -20 33 -15 41 -37 10 -29 -28 7
-25 0 8 -17 l27 -15 -28 -1 c-18 0 -26 -4 -21 -11 10 -17 -15 -28 -52 -22 -27
4 -33 2 -39 -17 -6 -19 -12 -21 -42 -17 -30 5 -33 4 -22 -9 10 -13 7 -14 -27
-9 -59 9 -70 -3 -54 -59 19 -69 30 -72 73 -22 33 40 88 68 104 53 3 -3 8 -39
11 -79 l7 -73 125 -3 c119 -3 139 -8 140 -36 0 -4 -26 -6 -57 -2 l-58 6 45
-18 c34 -13 45 -22 42 -35 -3 -12 -9 -16 -23 -12 -15 5 -19 1 -19 -15 0 -18 4
-21 28 -16 107 24 215 38 325 43 114 5 127 4 127 -10 0 -10 6 -17 14 -17 9 0
12 -7 9 -18 -5 -22 58 -75 80 -66 8 3 17 -2 20 -11 4 -8 19 -20 34 -27 22 -9
24 -12 11 -15 -18 -4 -26 -43 -10 -43 5 0 9 -13 9 -30 0 -16 -5 -30 -10 -30
-5 0 -4 -7 3 -15 10 -12 9 -15 -5 -15 -10 0 -16 -3 -12 -6 3 -3 0 -12 -6 -19
-10 -10 -17 -10 -39 1 -32 17 -38 17 -38 3 0 -13 -19 -32 -49 -48 -19 -10 -21
-15 -10 -22 16 -10 -60 -5 -101 6 -21 6 -20 4 8 -15 52 -35 30 -35 -27 1 -58
35 -84 42 -226 64 -135 20 -219 47 -284 90 -45 30 -59 34 -88 29 -19 -4 -32
-11 -30 -18 2 -6 12 -37 21 -69 16 -54 16 -61 1 -83 -19 -30 -32 -30 -62 -2
-19 17 -23 19 -23 5 0 -8 -7 -23 -16 -32 -27 -27 -48 3 -50 72 -1 53 -4 58
-25 61 -13 2 -29 8 -35 13 -6 5 -36 4 -70 -1 -138 -22 -180 -14 -186 38 -3 24
-8 28 -53 34 -85 13 -305 24 -305 16 0 -5 17 -8 39 -8 31 0 40 -4 44 -21 6
-21 4 -22 -71 -16 -42 3 -124 17 -181 32 -93 23 -106 24 -121 10 -9 -8 -20
-12 -23 -8 -4 3 -7 1 -7 -6 0 -9 -5 -9 -20 -1 -11 6 -20 17 -20 25 0 20 -26
31 -89 38 -61 7 -101 36 -101 74 0 13 2 23 5 23 2 0 107 -11 232 -25 125 -13
296 -29 378 -35 83 -6 160 -13 172 -15 30 -7 84 53 135 147 32 59 37 75 29 92
-6 12 -17 48 -24 80 -7 33 -20 63 -28 66 -61 28 -74 38 -77 58 -5 35 28 71 65
72 35 0 53 -21 53 -62 0 -13 8 -33 18 -46 17 -22 19 -22 34 -5 35 41 26 93
-17 93 -21 0 -55 33 -66 65 -2 6 -8 9 -13 7 -5 -2 -16 4 -25 12 -9 8 -42 27
-73 41 -64 29 -122 78 -115 97 2 8 20 13 46 12 22 0 41 1 41 3 0 3 -11 19 -25
37 -30 39 -30 44 -8 68 21 24 34 23 40 -3z"/>
<path d="M2374 2196 c-3 -14 -28 -60 -55 -102 -49 -78 -60 -114 -36 -114 18 0
127 94 148 128 18 27 18 29 -7 70 -29 48 -41 52 -50 18z"/>
<path d="M2755 2120 c-9 -14 -9 -14 43 -29 28 -8 63 -10 100 -5 l57 8 -60 12
c-118 23 -133 25 -140 14z"/>
</g>
</svg>
