<?xml version="1.0" standalone="no"?>
<!DOCTYPE svg PUBLIC "-//W3C//DTD SVG 20010904//EN"
 "http://www.w3.org/TR/2001/REC-SVG-20010904/DTD/svg10.dtd">
<svg version="1.0" xmlns="http://www.w3.org/2000/svg"
 width="480.000000pt" height="360.000000pt" viewBox="0 0 480.000000 360.000000"
 preserveAspectRatio="xMidYMid meet">
<metadata>
Created by potrace 1.16, written by Peter Selinger 2001-2019
</metadata>
<rect width="1" height="360" fill="#000000"/>
<rect x="479" width="1" height="360" fill="#000000"/>
<rect width="480" height="1" fill="#000000"/>
<rect y="359" width="480" height="1" fill="#000000"/>
<g transform="translate(0.000000,360.000000) scale(0.100000,-0.100000)"
fill="#000000" stroke="none">
<path d="M45 3553 c8 -27 15 -76 15 -111 0 -57 -3 -66 -30 -94 l-30 -30 0
-794 c0 -564 3 -794 11 -794 6 0 54 22 107 49 54 28 102 51 108 53 6 2 37 -35
69 -82 115 -168 266 -332 319 -346 35 -9 83 21 106 66 27 54 67 212 86 350 21
141 27 149 110 139 33 -4 114 -8 181 -8 121 -1 122 -1 143 27 18 23 21 35 15
77 -9 75 -63 316 -85 384 -11 33 -17 67 -14 75 3 9 25 21 48 27 157 42 177 50
188 74 6 13 8 35 4 48 -10 41 -106 176 -175 245 -74 75 -74 66 18 189 60 79
75 123 49 139 -6 4 -95 28 -197 54 l-186 47 -3 79 c-3 85 -10 99 -48 107 -47
9 -270 -12 -331 -31 -33 -11 -100 -45 -147 -76 -48 -31 -97 -56 -111 -56 -45
0 -79 67 -92 183 l-6 57 -68 0 -68 0 14 -47z"/>
<path d="M3550 3590 c0 -6 22 -60 50 -120 93 -206 102 -287 49 -444 -82 -246
-219 -448 -485 -712 -155 -155 -168 -177 -139 -238 55 -115 352 -336 574 -426
204 -83 484 -111 651 -64 128 36 140 80 88 331 -31 149 -12 153 78 16 33 -48
82 -111 110 -140 50 -53 50 -53 113 -53 41 0 79 7 112 21 l49 21 0 677 0 676
-144 2 c-263 4 -531 65 -700 159 -65 36 -134 117 -186 217 l-45 87 -87 0 c-53
0 -88 -4 -88 -10z"/>
<path d="M969 1280 c-41 -28 -110 -83 -154 -123 -136 -122 -205 -215 -231
-311 -17 -60 -19 -216 -5 -300 6 -33 8 -62 4 -65 -3 -3 -7 -1 -9 4 -2 6 -30
57 -61 115 -94 173 -231 292 -427 372 -37 15 -72 28 -77 28 -5 0 -9 -87 -9
-195 l0 -195 32 -60 c18 -34 77 -111 131 -172 67 -77 97 -118 95 -132 -5 -33
-54 -50 -160 -54 l-98 -4 0 -73 0 -72 93 -6 c50 -4 115 -13 142 -22 43 -13
171 -15 942 -15 l892 0 16 30 c17 32 110 96 220 149 86 43 105 58 105 86 0 27
-15 41 -55 50 -17 4 -84 23 -150 42 -306 89 -356 102 -450 123 -201 45 -459
36 -609 -21 -28 -10 -59 -19 -68 -19 -24 0 -23 23 1 44 10 9 32 45 47 79 42
90 45 233 10 474 -34 229 -44 271 -66 283 -25 13 -18 16 -101 -40z"/>
<path d="M3850 1251 c-14 -4 -34 -21 -46 -39 -20 -29 -54 -151 -54 -192 0 -33
-22 -40 -86 -30 -33 6 -159 11 -280 12 -243 3 -255 1 -274 -56 -11 -36 -9 -73
21 -308 8 -62 10 -101 4 -107 -6 -4 -48 -18 -95 -31 -202 -53 -424 -146 -503
-211 -32 -26 -37 -36 -37 -73 0 -36 7 -51 40 -88 21 -25 68 -64 103 -87 l63
-41 1047 0 1047 0 0 391 c0 368 -1 391 -17 384 -10 -3 -30 -9 -44 -12 -26 -5
-26 -5 -31 69 -5 79 -7 83 -120 293 -45 83 -58 101 -80 103 -32 4 -103 -31
-186 -92 -34 -25 -66 -46 -71 -46 -5 0 -33 16 -62 36 -126 85 -279 141 -339
125z"/>
</g>
</svg>
