<?xml version="1.0" standalone="no"?>
<!DOCTYPE svg PUBLIC "-//W3C//DTD SVG 20010904//EN"
 "http://www.w3.org/TR/2001/REC-SVG-20010904/DTD/svg10.dtd">
<svg version="1.0" xmlns="http://www.w3.org/2000/svg"
 width="480.000000pt" height="360.000000pt" viewBox="0 0 480.000000 360.000000"
 preserveAspectRatio="xMidYMid meet">
<metadata>
Created by potrace 1.16, written by Peter Selinger 2001-2019
</metadata>
<rect width="1" height="360" fill="#000000"/>
<rect x="479" width="1" height="360" fill="#000000"/>
<rect width="480" height="1" fill="#000000"/>
<rect y="359" width="480" height="1" fill="#000000"/>
<g transform="translate(0.000000,360.000000) scale(0.100000,-0.100000)"
fill="#000000" stroke="none">
<path d="M0 1800 l0 -1800 2400 0 2400 0 0 896 0 896 -42 -7 c-24 -3 -63 -10
-88 -15 -168 -34 -399 -48 -521 -31 -149 21 -258 66 -459 189 -235 145 -469
286 -507 308 -24 13 -64 36 -90 51 -27 15 -87 48 -136 74 -94 51 -98 51 -196
15 -24 -9 -51 -16 -61 -16 -22 0 -57 -46 -99 -132 -33 -69 -44 -78 -74 -55
-14 9 -18 29 -19 87 0 41 2 89 7 107 6 28 3 35 -30 65 -49 43 -71 54 -125 63
-25 4 -62 16 -82 26 -48 24 -73 24 -109 -1 -38 -28 -79 -154 -79 -247 0 -72
-17 -105 -49 -96 -36 9 -62 89 -74 223 -2 29 -4 31 -11 15 -4 -11 -14 -32 -22
-47 -8 -14 -20 -60 -28 -101 -15 -76 -39 -137 -55 -137 -20 0 -49 99 -56 190
-6 86 -4 101 18 162 l24 68 -51 -48 c-28 -26 -71 -68 -95 -95 -66 -71 -80 -62
-84 51 -1 41 -5 58 -13 55 -7 -3 -14 15 -19 52 -6 50 -4 61 22 108 55 97 216
184 413 221 88 17 344 19 660 7 210 -9 219 -10 394 -55 185 -47 379 -80 694
-116 211 -24 363 -61 514 -123 74 -31 115 -43 135 -39 28 5 124 43 300 118
l93 39 0 438 0 437 -2400 0 -2400 0 0 -1800z m2024 -672 c3 -13 8 -49 11 -80
7 -65 15 -74 47 -57 13 7 56 20 95 29 l73 17 10 -36 c5 -20 10 -47 11 -61 0
-14 9 -56 20 -95 10 -38 26 -114 34 -168 20 -131 55 -205 142 -293 38 -38 76
-74 86 -79 29 -16 5 -67 -46 -95 -23 -13 -61 -39 -85 -57 -45 -34 -97 -53
-147 -53 -17 0 -40 -7 -53 -15 -16 -12 -26 -13 -41 -5 -30 16 -39 38 -31 81
17 93 -25 218 -106 310 -27 31 -55 74 -62 95 -8 22 -22 57 -32 79 -10 22 -29
81 -43 130 -13 50 -27 97 -31 105 -5 12 10 23 58 47 l65 32 -6 70 c-6 72 1
121 17 121 5 0 12 -10 14 -22z"/>
</g>
</svg>
