<?xml version="1.0" standalone="no"?>
<!DOCTYPE svg PUBLIC "-//W3C//DTD SVG 20010904//EN"
 "http://www.w3.org/TR/2001/REC-SVG-20010904/DTD/svg10.dtd">
<svg version="1.0" xmlns="http://www.w3.org/2000/svg"
 width="480.000000pt" height="360.000000pt" viewBox="0 0 480.000000 360.000000"
 preserveAspectRatio="xMidYMid meet">
<metadata>
Created by potrace 1.16, written by Peter Selinger 2001-2019
</metadata>
<rect width="1" height="360" fill="#000000"/>
<rect x="479" width="1" height="360" fill="#000000"/>
<rect width="480" height="1" fill="#000000"/>
<rect y="359" width="480" height="1" fill="#000000"/>
<g transform="translate(0.000000,360.000000) scale(0.100000,-0.100000)"
fill="#000000" stroke="none">
<path d="M0 3058 l0 -542 33 30 c226 209 299 281 323 317 201 297 462 531 770
688 l97 49 -611 0 -612 0 0 -542z"/>
<path d="M3301 3483 c129 -133 178 -194 269 -338 116 -182 189 -356 280 -665
26 -87 43 -110 80 -110 50 0 70 -44 89 -197 6 -46 18 -108 26 -138 16 -53 17
-55 68 -70 49 -15 53 -14 77 5 57 46 132 58 156 26 21 -29 35 -117 28 -176
-12 -100 -54 -170 -177 -294 -62 -62 -151 -148 -198 -191 -77 -73 -211 -228
-266 -310 -34 -50 -240 -256 -318 -317 -60 -47 -111 -83 -210 -146 -141 -89
-390 -177 -573 -202 -94 -13 -178 -12 -557 10 -277 16 -443 54 -648 149 -144
67 -92 17 109 -104 98 -59 105 -65 74 -65 -27 0 -180 80 -284 148 -147 96
-312 252 -446 422 -28 36 -60 76 -71 90 -11 14 -25 32 -30 40 -21 30 3 -35 38
-105 72 -144 208 -320 378 -491 148 -150 150 -151 137 -167 -6 -7 -10 -33 -9
-58 1 -24 -2 -86 -6 -136 l-9 -93 1746 0 1746 0 0 1800 0 1800 -807 0 -806 0
114 -117z"/>
<path d="M0 1097 l0 -1097 561 0 562 0 -8 88 c-5 48 -9 127 -9 175 l-1 88 -56
52 c-30 29 -86 79 -123 112 -226 201 -420 517 -519 845 -41 134 -59 228 -87
438 -12 84 -25 165 -31 179 -10 26 -10 26 -29 7 -10 -10 -32 -50 -49 -89 -16
-38 -35 -70 -41 -70 -13 0 -66 116 -116 255 -19 52 -39 99 -44 104 -7 7 -10
-391 -10 -1087z"/>
</g>
</svg>
