<?xml version="1.0" standalone="no"?>
<!DOCTYPE svg PUBLIC "-//W3C//DTD SVG 20010904//EN"
 "http://www.w3.org/TR/2001/REC-SVG-20010904/DTD/svg10.dtd">
<svg version="1.0" xmlns="http://www.w3.org/2000/svg"
 width="480.000000pt" height="360.000000pt" viewBox="0 0 480.000000 360.000000"
 preserveAspectRatio="xMidYMid meet">
<metadata>
Created by potrace 1.16, written by Peter Selinger 2001-2019
</metadata>
<rect width="1" height="360" fill="#000000"/>
<rect x="479" width="1" height="360" fill="#000000"/>
<rect width="480" height="1" fill="#000000"/>
<rect y="359" width="480" height="1" fill="#000000"/>
<g transform="translate(0.000000,360.000000) scale(0.100000,-0.100000)"
fill="#000000" stroke="none">
<path d="M2821 3511 c-10 -10 -29 -21 -42 -25 -13 -3 -45 -19 -70 -35 -37 -23
-51 -40 -69 -85 -21 -53 -21 -58 -6 -75 15 -16 15 -19 1 -31 -19 -16 -19 -26
2 -90 l16 -51 43 2 c24 2 46 1 48 -2 7 -7 -50 -182 -74 -229 -54 -106 -138
-196 -221 -237 -24 -12 -80 -31 -124 -42 -43 -12 -84 -26 -89 -31 -15 -15 22
-81 54 -97 14 -7 32 -21 41 -32 15 -18 15 -24 1 -67 -15 -46 -15 -46 18 -108
l33 -61 -22 -45 c-12 -25 -32 -62 -44 -82 -21 -36 -21 -38 -4 -67 21 -36 22
-68 3 -113 -16 -38 -40 -180 -51 -298 -4 -41 -13 -84 -20 -95 -7 -11 -54 -45
-104 -75 -50 -30 -91 -58 -91 -62 0 -4 11 -10 25 -14 24 -6 25 -8 10 -30 -28
-44 -18 -52 38 -29 14 6 17 2 17 -24 0 -30 2 -31 40 -31 35 0 40 -3 40 -23 0
-37 22 -58 67 -64 46 -6 79 -33 70 -57 -3 -8 -28 -25 -54 -38 -62 -30 -64 -54
-5 -86 23 -13 42 -28 42 -32 0 -5 -44 -38 -97 -73 -54 -36 -109 -75 -123 -89
-14 -13 -43 -35 -65 -50 -46 -30 -140 -121 -156 -150 -6 -11 -8 -36 -4 -55 5
-30 2 -40 -22 -65 l-28 -29 44 -39 c33 -30 41 -43 36 -59 -5 -17 -2 -21 14
-21 12 0 52 -8 89 -19 67 -18 90 -27 282 -109 162 -69 271 -112 380 -150 l105
-37 703 -3 c444 -1 702 1 702 7 0 5 -5 22 -11 38 -5 15 -16 60 -24 100 -15 76
-23 95 -147 333 -109 208 -181 410 -262 735 -25 99 -52 200 -60 224 -9 24 -16
45 -16 47 0 10 29 2 40 -11 16 -19 34 -20 27 -1 -3 8 -29 49 -56 91 -39 59
-57 99 -78 176 -14 54 -24 101 -21 104 9 9 368 -83 437 -112 19 -8 54 -16 77
-18 48 -4 92 -24 145 -66 20 -16 41 -29 46 -29 5 0 10 27 11 60 2 76 -10 88
-167 165 -172 86 -381 160 -506 180 -60 9 -73 14 -79 32 -6 15 12 133 21 133
2 0 15 -7 28 -16 33 -21 79 -11 94 22 26 59 5 120 -69 199 l-29 30 14 65 c15
68 20 182 9 193 -4 4 -8 20 -9 36 -3 30 -40 114 -75 166 -11 17 -24 40 -30 53
-8 19 -106 120 -238 245 -13 12 -42 41 -64 65 -23 23 -55 46 -71 50 l-29 8 42
38 c47 43 47 50 -10 118 l-28 33 -55 -53 c-31 -28 -59 -52 -64 -52 -4 0 -9 28
-10 61 -1 39 -7 65 -15 70 -7 5 -39 9 -70 9 -43 0 -63 -5 -77 -19z m-1 -823
c12 -24 38 -62 57 -86 31 -38 35 -49 30 -83 -3 -24 -17 -53 -36 -74 -45 -52
-61 -88 -70 -160 -6 -51 -13 -69 -34 -89 -33 -31 -33 -37 -2 -66 l24 -23 -21
-41 c-11 -22 -34 -56 -52 -74 -17 -18 -62 -79 -101 -134 -38 -56 -75 -103 -80
-105 -6 -2 -19 22 -28 52 -16 51 -16 58 -1 87 12 24 15 54 12 147 -2 64 -7
123 -11 132 -5 10 2 27 22 50 36 40 38 68 10 126 -25 52 -66 83 -109 83 -50 0
-31 20 47 50 113 44 205 116 275 218 16 23 33 40 38 37 4 -3 18 -24 30 -47z
m458 -8 c17 -11 32 -24 32 -29 0 -12 -69 15 -90 35 -12 12 -12 14 5 14 11 0
35 -9 53 -20z m-134 -595 c22 -45 30 -79 34 -135 6 -101 -10 -137 -99 -219
-212 -196 -274 -261 -259 -271 12 -8 12 -12 -6 -32 -11 -13 -51 -58 -89 -100
-38 -43 -76 -78 -86 -78 -14 0 -20 18 -34 93 -9 50 -19 115 -22 143 l-5 51 82
99 c46 54 101 118 122 142 21 23 61 77 88 120 33 52 71 96 110 127 39 31 60
55 60 69 0 21 44 56 65 52 6 -1 23 -29 39 -61z m-597 -931 c3 -8 -4 -25 -17
-39 -18 -19 -27 -22 -41 -14 -18 9 -26 49 -12 62 13 13 64 7 70 -9z"/>
</g>
</svg>
