<?xml version="1.0" standalone="no"?>
<!DOCTYPE svg PUBLIC "-//W3C//DTD SVG 20010904//EN"
 "http://www.w3.org/TR/2001/REC-SVG-20010904/DTD/svg10.dtd">
<svg version="1.0" xmlns="http://www.w3.org/2000/svg"
 width="480.000000pt" height="360.000000pt" viewBox="0 0 480.000000 360.000000"
 preserveAspectRatio="xMidYMid meet">
<metadata>
Created by potrace 1.16, written by Peter Selinger 2001-2019
</metadata>
<rect width="1" height="360" fill="#000000"/>
<rect x="479" width="1" height="360" fill="#000000"/>
<rect width="480" height="1" fill="#000000"/>
<rect y="359" width="480" height="1" fill="#000000"/>
<g transform="translate(0.000000,360.000000) scale(0.100000,-0.100000)"
fill="#000000" stroke="none">
<path d="M1456 3311 c-3 -5 -14 -7 -25 -4 -11 3 -32 -7 -54 -26 -19 -17 -42
-31 -50 -31 -9 0 -21 -15 -27 -36 -9 -26 -15 -33 -21 -23 -5 9 -11 10 -18 4
-10 -11 -41 -134 -41 -165 0 -10 -16 -42 -35 -72 -32 -48 -34 -54 -19 -65 14
-10 14 -17 5 -44 -14 -40 -14 -39 2 -39 8 0 19 -31 29 -88 10 -49 26 -109 37
-134 l20 -47 -28 -118 c-16 -65 -31 -161 -35 -213 -7 -90 -7 -94 10 -78 16 16
18 14 42 -20 64 -95 83 -109 53 -39 -20 47 -36 107 -28 107 3 0 22 -27 42 -60
42 -70 61 -78 39 -18 -8 22 -13 42 -11 44 1 2 23 -14 47 -35 25 -21 62 -46 82
-56 36 -16 43 -35 12 -35 -8 0 -14 -4 -14 -10 0 -5 -10 -20 -21 -31 l-22 -22
22 -41 c11 -22 26 -49 33 -58 18 -24 -3 -63 -45 -83 -68 -32 -237 -223 -237
-268 0 -10 -23 -45 -52 -76 -66 -72 -91 -129 -91 -204 1 -84 40 -144 111 -173
83 -33 86 -41 78 -218 -8 -188 -22 -250 -73 -324 -22 -31 -44 -68 -48 -82 -4
-14 -18 -34 -31 -45 -33 -27 -44 -71 -29 -120 10 -36 8 -50 -21 -135 -17 -52
-35 -103 -39 -112 -7 -17 25 -18 576 -18 l584 0 28 68 c32 75 102 203 166 302
l42 65 -6 -55 c-4 -30 -16 -107 -26 -170 -10 -63 -19 -136 -19 -162 l0 -48
212 0 211 0 -19 23 c-10 12 -29 34 -43 49 -23 26 -24 30 -15 120 l9 93 55 -90
c48 -79 55 -97 55 -142 l0 -53 304 0 c285 0 303 1 296 17 -3 10 -11 117 -16
238 -15 355 -18 365 -138 525 -71 95 -71 95 -69 155 1 33 -4 70 -10 82 -11 19
-9 29 10 63 17 29 28 38 41 34 14 -5 16 -2 8 19 -8 21 -15 78 -12 100 1 4 14
1 31 -8 41 -21 44 -19 20 13 -25 33 -20 87 10 125 l18 22 7 -30 c11 -47 14
-55 23 -55 5 0 7 20 5 44 -3 25 -2 61 1 81 l7 37 47 -7 c125 -19 299 -30 415
-25 127 5 129 5 154 34 20 23 23 36 19 67 -3 22 -9 57 -12 79 -11 78 -121 152
-384 260 -69 28 -130 56 -137 63 -12 12 -37 323 -27 339 3 4 15 8 28 8 43 0
96 84 96 152 -1 49 -31 108 -78 151 -39 35 -60 42 -105 39 -10 -1 -41 10 -68
24 -56 28 -186 64 -231 64 -16 0 -54 9 -85 20 -107 38 -193 18 -250 -57 -26
-34 -28 -44 -30 -135 0 -57 -6 -105 -13 -113 -6 -7 -42 -85 -79 -172 l-68
-158 -199 -2 -199 -2 41 37 c23 20 46 46 52 57 14 25 15 5 2 -29 -16 -44 5
-37 30 10 29 52 45 57 38 12 -3 -18 -2 -42 2 -53 6 -18 11 -14 41 29 l34 48 5
-34 6 -33 17 32 c9 18 24 58 32 89 26 101 32 68 10 -51 -11 -55 11 -12 51 100
33 94 39 122 39 190 -1 76 -3 85 -50 175 -56 110 -94 169 -147 226 -27 29 -41
55 -47 88 -17 92 -82 155 -196 189 -27 8 -76 31 -109 50 -32 20 -84 41 -115
48 -75 15 -211 6 -285 -20 -33 -12 -61 -21 -63 -21 -1 0 -3 13 -3 28 0 43 -56
83 -74 53z m-133 -178 c8 -7 -11 -33 -23 -33 -5 0 -6 9 -3 20 5 20 15 25 26
13z m717 -959 c0 -8 -4 -14 -10 -14 -5 0 -10 9 -10 21 0 11 5 17 10 14 6 -3
10 -13 10 -21z m91 -17 c-8 -8 -11 -7 -11 4 0 9 3 19 7 23 4 4 9 2 11 -4 3 -7
-1 -17 -7 -23z m-1 -71 c-16 -17 -28 -1 -18 24 10 24 11 24 18 5 4 -11 4 -24
0 -29z m327 -461 c9 -25 -4 -29 -17 -6 -7 15 -7 21 0 21 6 0 13 -7 17 -15z
m-365 -697 l47 -52 -36 -66 c-98 -176 -173 -307 -188 -325 -15 -19 -16 -17
-10 38 10 85 117 457 133 457 3 0 28 -23 54 -52z"/>
</g>
</svg>
