<?xml version="1.0" standalone="no"?>
<!DOCTYPE svg PUBLIC "-//W3C//DTD SVG 20010904//EN"
 "http://www.w3.org/TR/2001/REC-SVG-20010904/DTD/svg10.dtd">
<svg version="1.0" xmlns="http://www.w3.org/2000/svg"
 width="480.000000pt" height="360.000000pt" viewBox="0 0 480.000000 360.000000"
 preserveAspectRatio="xMidYMid meet">
<metadata>
Created by potrace 1.16, written by Peter Selinger 2001-2019
</metadata>
<rect width="1" height="360" fill="#000000"/>
<rect x="479" width="1" height="360" fill="#000000"/>
<rect width="480" height="1" fill="#000000"/>
<rect y="359" width="480" height="1" fill="#000000"/>
<g transform="translate(0.000000,360.000000) scale(0.100000,-0.100000)"
fill="#000000" stroke="none">
<path d="M0 2296 l0 -1304 48 5 c26 3 76 17 112 31 62 24 122 34 302 48 l87 7
-1 31 c-1 34 -12 46 -45 46 -12 0 -25 5 -28 10 -4 6 3 50 14 98 11 48 25 150
30 227 l10 140 -31 26 c-32 26 -32 27 -19 70 7 24 17 55 22 68 6 13 21 66 34
119 19 73 22 98 14 109 -9 10 -9 23 0 52 6 21 11 56 11 77 0 60 19 86 75 107
49 18 51 18 92 -2 24 -11 44 -30 49 -43 4 -13 15 -34 26 -47 18 -24 18 -25 -2
-46 -14 -15 -20 -35 -20 -66 0 -25 -4 -49 -10 -55 -6 -6 -6 -23 1 -47 5 -21 7
-47 4 -57 -7 -23 2 -60 15 -60 5 0 20 -10 33 -23 14 -12 36 -32 51 -44 22 -18
25 -27 19 -55 -3 -18 -7 -34 -8 -35 -1 -2 -23 -7 -49 -12 -26 -5 -52 -13 -57
-18 -5 -5 2 -41 17 -88 14 -44 38 -127 53 -185 16 -58 35 -127 42 -155 8 -27
22 -56 31 -63 24 -18 23 -30 -6 -43 -36 -17 -67 3 -60 39 6 30 -13 54 -52 66
-19 6 -22 2 -27 -35 -4 -34 -1 -49 20 -80 14 -22 31 -39 37 -39 6 0 4 -5 -4
-9 -26 -15 -140 -39 -265 -56 -66 -9 -169 -25 -229 -36 -65 -11 -155 -19 -223
-19 l-113 0 0 -475 0 -475 888 0 887 0 13 21 c11 17 11 41 1 131 -15 138 -7
279 21 391 12 48 20 93 17 100 -3 8 -30 26 -61 40 -31 15 -56 31 -56 37 0 6
-11 15 -24 20 -21 8 -25 17 -31 77 -8 84 7 151 72 308 40 97 60 155 93 259 14
43 -6 19 -25 -29 l-15 -40 3 57 c2 31 1 56 -2 54 -3 -2 -51 -30 -106 -61 -332
-192 -543 -302 -729 -380 -43 -19 -71 -36 -74 -48 -3 -12 -7 -15 -12 -8 -4 8
-19 7 -49 -4 -60 -21 -124 -20 -144 3 -10 10 -17 21 -17 24 0 3 26 16 57 28
84 33 153 71 153 85 0 6 15 11 33 12 49 1 299 130 684 353 179 104 181 106
202 155 27 65 27 68 -7 60 -38 -8 -58 14 -42 46 14 25 24 16 -110 95 -52 30
-115 68 -140 84 -25 16 -63 39 -85 52 -30 17 -40 30 -40 48 0 40 25 34 115
-25 113 -75 279 -169 286 -162 3 3 -2 34 -11 69 -10 34 -20 73 -22 86 -4 15 9
52 35 105 23 45 46 105 53 132 16 66 36 93 117 156 105 82 118 99 112 139 -4
19 -11 44 -17 55 -11 18 -12 19 -18 3 -4 -10 -11 -15 -16 -12 -5 3 -9 -5 -9
-18 -1 -20 -2 -21 -13 -7 -7 9 -17 14 -24 12 -7 -3 -14 19 -19 64 -6 57 -3 78
16 133 32 93 75 165 118 198 108 84 208 83 310 -3 l31 -26 45 93 c24 51 59
125 77 163 l32 70 9 -49 c5 -26 20 -65 33 -84 34 -50 32 -81 -9 -128 -29 -34
-36 -52 -46 -119 -15 -110 -15 -109 -42 -91 -30 22 -55 22 -38 1 7 -9 13 -39
14 -68 0 -45 -5 -60 -32 -97 -48 -66 -39 -76 25 -28 47 36 65 43 107 45 28 1
67 4 86 6 34 4 195 62 215 78 6 4 55 20 110 34 55 15 143 40 197 57 l96 30 72
-16 73 -17 31 28 c17 15 33 30 36 33 3 3 43 37 90 75 47 38 96 81 110 95 122
121 201 133 185 27 -8 -54 -27 -65 -54 -32 -10 14 -22 25 -25 25 -7 0 -217
-171 -289 -236 l-48 -43 35 -47 c47 -61 49 -98 4 -57 -19 17 -26 5 -8 -13 12
-12 3 -44 -11 -44 -5 0 -12 12 -16 28 l-7 27 -6 -24 c-8 -35 -28 -37 -32 -5
-3 28 -28 47 -28 21 0 -25 -23 -37 -43 -23 -22 17 -22 30 1 21 13 -5 14 -3 5
6 -19 19 -46 3 -38 -24 12 -42 10 -51 -18 -61 -20 -7 -33 -7 -47 2 -17 10 -26
6 -66 -29 -26 -22 -66 -60 -88 -85 -23 -24 -45 -44 -50 -44 -9 0 -25 -14 -115
-100 -31 -30 -94 -84 -139 -120 -45 -36 -81 -71 -82 -77 0 -7 -14 -20 -31 -29
-18 -9 -42 -27 -54 -40 -12 -13 -25 -24 -29 -24 -12 0 -36 -28 -36 -42 0 -8
-13 -21 -29 -31 -16 -9 -39 -28 -52 -42 -13 -13 -30 -25 -36 -25 -7 0 -13 -9
-13 -20 0 -12 -11 -32 -25 -46 -25 -25 -31 -57 -19 -101 4 -13 11 -20 17 -16
6 3 7 1 3 -5 -4 -6 9 -62 28 -124 l36 -113 92 -46 c136 -68 285 -139 291 -139
3 0 49 -20 103 -45 82 -38 95 -47 84 -60 -17 -21 -76 -19 -144 5 -59 20 -237
97 -316 137 -24 12 -46 20 -49 18 -2 -3 14 -31 37 -63 22 -31 64 -100 92 -152
29 -52 65 -118 81 -145 l28 -50 -20 -33 c-12 -17 -25 -32 -30 -32 -5 0 -9 -6
-9 -14 0 -33 -95 -107 -149 -116 -34 -5 -36 -8 -35 -41 0 -19 15 -71 32 -116
42 -109 49 -143 62 -321 6 -84 16 -164 22 -177 l11 -25 1074 0 1073 0 0 1800
0 1800 -642 0 c-609 0 -640 -1 -627 -17 8 -10 35 -45 59 -78 136 -182 173
-209 257 -187 64 18 88 15 122 -13 28 -24 59 -90 48 -102 -3 -3 -20 11 -37 30
-35 40 -38 40 -114 -10 -61 -40 -104 -42 -178 -10 -58 26 -182 121 -239 183
-20 21 -54 56 -76 77 l-39 38 -55 -25 c-70 -32 -234 -39 -286 -13 -39 20 -73
62 -80 99 l-5 28 -1454 0 -1454 0 0 -1304z m1050 1117 c0 -3 -7 -15 -17 -25
-20 -22 -75 -25 -67 -4 8 21 84 47 84 29z m2984 -84 c-3 -5 -10 -7 -15 -3 -5
3 -7 10 -3 15 3 5 10 7 15 3 5 -3 7 -10 3 -15z m-2445 -326 c12 -26 12 -26
-10 -11 -28 18 -36 38 -16 38 7 0 19 -12 26 -27z m2637 -4 c8 -14 -11 -33 -25
-25 -11 7 -4 36 9 36 5 0 12 -5 16 -11z m-1426 -149 c0 -28 -2 -29 -20 -18
-11 7 -20 21 -20 30 0 11 8 18 20 18 16 0 20 -7 20 -30z m1525 -80 c-3 -5 -10
-10 -16 -10 -5 0 -9 5 -9 10 0 6 7 10 16 10 8 0 12 -4 9 -10z m295 -44 c0 -2
-7 -6 -15 -10 -8 -3 -15 -1 -15 4 0 6 7 10 15 10 8 0 15 -2 15 -4z m-3481
-300 c8 -10 9 -16 1 -21 -13 -8 -30 3 -30 21 0 18 14 18 29 0z m3571 -121 c14
-17 6 -45 -13 -45 -19 0 -50 36 -42 49 9 16 41 13 55 -4z m-3820 -1440 c0 -5
-5 -3 -10 5 -5 8 -10 20 -10 25 0 6 5 3 10 -5 5 -8 10 -19 10 -25z m2550 5 c0
-5 -5 -10 -11 -10 -5 0 -7 5 -4 10 3 6 8 10 11 10 2 0 4 -4 4 -10z"/>
<path d="M3155 2640 c-183 -72 -237 -94 -325 -134 -80 -36 -95 -46 -92 -64 2
-14 -4 -23 -19 -27 -12 -4 -32 -18 -45 -32 -16 -17 -57 -35 -134 -58 -142 -42
-148 -47 -132 -123 7 -32 12 -109 12 -171 l0 -112 52 43 c29 24 58 48 64 53 6
6 55 46 109 90 54 44 144 118 199 165 56 47 139 116 186 154 156 126 170 141
163 180 -4 28 -2 35 15 41 12 3 31 1 42 -5 28 -15 40 -2 16 16 -25 18 -27 18
-111 -16z"/>
<path d="M2071 2490 c-25 -45 -23 -55 9 -45 31 10 48 51 29 71 -13 13 -18 10
-38 -26z"/>
<path d="M2364 2495 c-4 -9 -13 -13 -24 -10 -18 6 -48 -21 -36 -32 3 -3 16 -1
29 5 12 6 28 12 36 14 16 5 25 38 10 38 -5 0 -12 -7 -15 -15z"/>
<path d="M2026 2099 c-4 -9 -30 -31 -59 -49 -85 -54 -106 -77 -101 -114 2 -17
6 -71 10 -119 5 -72 10 -92 27 -108 29 -27 56 -21 76 17 10 18 25 39 34 49 25
24 21 33 -18 49 l-36 15 30 53 c29 52 59 181 48 209 -4 11 -6 11 -11 -2z"/>
<path d="M620 1136 c0 -7 9 -25 21 -40 38 -49 89 -22 55 29 -18 28 -76 36 -76
11z"/>
<path d="M1999 603 c-23 -40 -27 -63 -49 -276 -11 -105 -24 -214 -29 -241 -17
-90 -29 -86 301 -86 263 0 288 1 288 17 0 39 -121 503 -145 555 l-26 56 -50
-16 c-40 -13 -57 -14 -92 -5 -34 9 -45 9 -58 -3 -9 -8 -18 -12 -20 -10 -3 3
-20 8 -39 11 -19 3 -39 10 -44 16 -15 14 -20 11 -37 -18z"/>
</g>
</svg>
