<?xml version="1.0" standalone="no"?>
<!DOCTYPE svg PUBLIC "-//W3C//DTD SVG 20010904//EN"
 "http://www.w3.org/TR/2001/REC-SVG-20010904/DTD/svg10.dtd">
<svg version="1.0" xmlns="http://www.w3.org/2000/svg"
 width="480.000000pt" height="360.000000pt" viewBox="0 0 480.000000 360.000000"
 preserveAspectRatio="xMidYMid meet">
<metadata>
Created by potrace 1.16, written by Peter Selinger 2001-2019
</metadata>
<rect width="1" height="360" fill="#000000"/>
<rect x="479" width="1" height="360" fill="#000000"/>
<rect width="480" height="1" fill="#000000"/>
<rect y="359" width="480" height="1" fill="#000000"/>
<g transform="translate(0.000000,360.000000) scale(0.100000,-0.100000)"
fill="#000000" stroke="none">
<path d="M2980 3580 c-8 -5 -42 -13 -75 -16 -72 -8 -107 -38 -125 -105 -18
-67 -8 -175 23 -243 15 -32 27 -62 27 -66 0 -4 -19 -15 -42 -25 -140 -54 -283
-170 -363 -291 -62 -93 -81 -139 -91 -217 -9 -66 -37 -149 -64 -187 -24 -34
-13 -41 15 -10 25 28 37 25 29 -6 -5 -19 -3 -25 4 -20 8 5 12 -19 15 -76 2
-62 5 -77 12 -58 8 24 9 24 26 -15 15 -35 18 -37 19 -15 1 22 3 21 14 -10 8
-21 20 -35 30 -35 9 0 39 -20 67 -44 27 -24 52 -41 54 -39 2 2 -5 23 -16 47
-27 61 -16 64 15 4 14 -26 25 -40 26 -30 0 31 20 8 20 -24 0 -39 -22 -89 -49
-113 -33 -30 -26 -53 22 -77 46 -24 57 -35 57 -62 0 -11 23 -42 51 -70 27 -29
61 -71 75 -94 24 -42 26 -65 8 -150 -3 -15 2 -24 17 -28 18 -6 20 -12 15 -45
-4 -24 -2 -40 5 -42 6 -2 19 -46 29 -98 l19 -94 -34 -93 c-19 -50 -35 -97 -35
-103 0 -6 -5 -20 -10 -30 -10 -19 -11 -19 -53 0 -57 26 -121 26 -147 0 -19
-19 -20 -29 -14 -108 6 -86 6 -88 -25 -129 -17 -24 -35 -43 -40 -43 -5 0 -19
12 -31 28 -60 77 -229 247 -256 258 -18 8 -40 25 -51 38 -56 77 -56 75 -58
180 -2 159 -46 245 -139 276 -25 8 -57 8 -117 0 -93 -11 -99 -8 -99 49 0 29
-2 32 -15 21 -12 -10 -14 -24 -10 -54 l7 -42 -59 -18 c-84 -26 -159 -71 -171
-104 -6 -15 -19 -56 -28 -91 -15 -55 -16 -70 -4 -110 7 -25 14 -61 16 -78 7
-69 26 -113 80 -181 62 -78 102 -103 213 -129 36 -9 67 -17 68 -18 2 -1 -9
-30 -23 -66 -45 -115 -64 -202 -75 -344 -5 -77 -19 -169 -29 -205 -10 -36 -21
-80 -24 -97 l-5 -33 509 0 509 0 10 38 c5 20 15 63 22 95 7 31 15 57 19 57 12
0 22 -68 21 -132 l-1 -58 640 0 639 0 -14 41 c-8 23 -15 77 -15 120 l0 78 43
11 c95 25 113 31 147 50 34 19 34 20 12 26 -23 7 -23 7 12 36 20 16 36 33 36
37 0 5 -21 11 -47 15 -42 5 -58 1 -166 -49 -66 -30 -122 -54 -124 -52 -5 6
-34 150 -38 194 -2 23 -11 71 -19 105 -8 35 -18 83 -21 108 -6 42 -25 126 -60
274 -8 33 -13 62 -11 64 3 2 13 -1 24 -7 11 -6 31 -45 51 -101 33 -92 51 -113
51 -61 0 16 6 31 15 35 20 7 19 28 -4 57 -14 19 -20 53 -28 159 -5 74 -7 146
-3 160 l7 25 11 -25 c5 -14 22 -55 37 -93 26 -63 56 -107 40 -57 -4 12 -8 47
-10 78 -3 57 -18 175 -31 242 -12 61 3 28 34 -75 29 -99 118 -305 132 -305 3
0 -2 33 -12 73 -10 39 -21 97 -24 127 l-6 55 45 -73 c25 -41 52 -81 62 -90 16
-16 17 -15 12 13 -9 44 -26 332 -37 635 -15 421 -65 670 -190 960 -18 41 -34
94 -36 118 -7 108 -146 311 -249 364 -52 27 -186 36 -235 16 -32 -13 -38 -13
-70 6 -19 11 -66 50 -105 88 -38 37 -95 86 -125 108 -30 21 -72 53 -94 70 -42
33 -44 34 -66 20z m72 -1977 l21 -47 -23 -18 c-12 -10 -25 -18 -29 -18 -3 0
-4 29 -3 65 2 36 6 65 8 65 3 0 14 -21 26 -47z"/>
</g>
</svg>
