<?xml version="1.0" standalone="no"?>
<!DOCTYPE svg PUBLIC "-//W3C//DTD SVG 20010904//EN"
 "http://www.w3.org/TR/2001/REC-SVG-20010904/DTD/svg10.dtd">
<svg version="1.0" xmlns="http://www.w3.org/2000/svg"
 width="480.000000pt" height="360.000000pt" viewBox="0 0 480.000000 360.000000"
 preserveAspectRatio="xMidYMid meet">
<metadata>
Created by potrace 1.16, written by Peter Selinger 2001-2019
</metadata>
<rect width="1" height="360" fill="#000000"/>
<rect x="479" width="1" height="360" fill="#000000"/>
<rect width="480" height="1" fill="#000000"/>
<rect y="359" width="480" height="1" fill="#000000"/>
<g transform="translate(0.000000,360.000000) scale(0.100000,-0.100000)"
fill="#000000" stroke="none">
<path d="M4015 3574 c-162 -49 -279 -119 -381 -226 -34 -35 -73 -86 -87 -114
-35 -70 -84 -100 -203 -124 -115 -24 -144 -24 -209 -5 -61 19 -94 13 -128 -23
-23 -24 -77 -130 -77 -151 0 -4 11 -13 24 -19 20 -9 25 -20 31 -74 14 -133 28
-148 140 -157 l70 -6 1 -35 c1 -45 13 -72 29 -66 8 3 14 -10 17 -39 6 -45 34
-94 56 -95 6 0 12 7 12 16 0 14 1 14 16 0 8 -9 19 -16 24 -16 4 0 20 -16 35
-36 26 -34 26 -36 10 -54 -10 -11 -32 -24 -51 -30 -50 -17 -53 -45 -10 -89 30
-30 36 -44 36 -79 0 -29 6 -48 21 -63 12 -12 18 -27 14 -39 -3 -10 1 -32 9
-47 8 -16 17 -45 21 -66 4 -20 15 -48 25 -60 13 -16 16 -28 9 -38 -22 -34 -5
-36 37 -4 57 44 94 47 94 7 0 -15 -4 -42 -9 -60 -14 -47 7 -41 48 14 30 40 36
44 42 28 4 -11 8 -28 8 -39 2 -29 19 -53 29 -39 4 6 22 30 41 53 41 50 55 43
70 -32 21 -113 20 -144 -6 -179 -15 -22 -22 -41 -18 -55 4 -17 -1 -26 -21 -36
-22 -11 -34 -11 -77 0 -61 16 -179 18 -207 3 -10 -5 -29 -10 -42 -10 -13 0
-29 -5 -36 -12 -8 -8 -15 -8 -26 1 -38 32 -89 -22 -86 -91 3 -61 3 -60 -31
-43 -24 13 -34 14 -45 5 -13 -12 -56 -10 -102 5 -21 7 -22 5 -21 -44 1 -28 -1
-54 -4 -57 -4 -4 -73 -24 -154 -44 -82 -21 -176 -49 -210 -63 l-61 -25 -31 44
c-38 52 -554 566 -627 623 -29 23 -71 45 -100 52 -27 7 -65 24 -84 39 -50 39
-86 55 -181 84 -46 13 -109 34 -139 45 -70 25 -187 41 -298 41 -72 0 -97 -5
-140 -25 -30 -14 -56 -33 -59 -44 -4 -15 -20 -20 -96 -29 -107 -12 -119 -21
-105 -84 15 -71 38 -106 103 -163 73 -64 109 -133 98 -186 -8 -41 14 -59 73
-59 23 0 65 -5 93 -12 40 -9 50 -15 48 -31 -1 -11 10 -28 26 -41 26 -19 43
-21 177 -24 141 -3 150 -2 197 22 l50 25 85 -87 c46 -48 150 -159 230 -247
192 -211 267 -281 365 -338 107 -63 178 -87 255 -87 57 0 431 32 518 45 l35 4
-1 -212 c-1 -116 -5 -272 -9 -344 l-8 -133 490 0 489 0 23 98 c33 136 79 294
88 302 13 11 283 -6 329 -20 26 -8 47 -22 55 -37 14 -27 57 -53 86 -53 9 0 32
-14 50 -32 l33 -32 -1 590 c-1 517 -3 580 -14 514 -24 -138 -94 -432 -112
-469 -10 -20 -26 -37 -35 -39 -10 -2 -50 20 -90 49 l-73 53 -1 131 c0 122 -3
137 -37 243 -42 130 -42 126 -23 119 10 -4 15 8 18 54 2 32 7 62 11 65 14 14
56 -20 86 -68 34 -54 64 -62 69 -18 7 71 14 89 32 95 13 4 20 15 20 33 l0 26
33 -31 c41 -39 59 -45 91 -30 l26 12 0 1022 0 1022 -352 0 c-346 0 -355 -1
-433 -25z"/>
</g>
</svg>
