<?xml version="1.0" standalone="no"?>
<!DOCTYPE svg PUBLIC "-//W3C//DTD SVG 20010904//EN"
 "http://www.w3.org/TR/2001/REC-SVG-20010904/DTD/svg10.dtd">
<svg version="1.0" xmlns="http://www.w3.org/2000/svg"
 width="480.000000pt" height="360.000000pt" viewBox="0 0 480.000000 360.000000"
 preserveAspectRatio="xMidYMid meet">
<metadata>
Created by potrace 1.16, written by Peter Selinger 2001-2019
</metadata>
<rect width="1" height="360" fill="#000000"/>
<rect x="479" width="1" height="360" fill="#000000"/>
<rect width="480" height="1" fill="#000000"/>
<rect y="359" width="480" height="1" fill="#000000"/>
<g transform="translate(0.000000,360.000000) scale(0.100000,-0.100000)"
fill="#000000" stroke="none">
<path d="M0 1800 l0 -1800 2400 0 2400 0 0 1800 0 1800 -2400 0 -2400 0 0
-1800z m1783 607 l39 -24 56 19 c30 10 61 18 68 18 19 0 46 -57 39 -80 -5 -15
7 -23 74 -49 44 -17 86 -31 93 -31 7 0 38 -12 68 -26 30 -14 142 -50 250 -80
395 -112 608 -190 893 -329 221 -108 202 -83 200 -272 -3 -202 -10 -260 -33
-283 -27 -27 -102 -33 -342 -27 -229 5 -282 13 -544 82 -185 48 -359 108 -514
175 -111 48 -406 197 -467 236 -29 19 -56 34 -60 34 -12 0 -109 78 -158 126
-27 27 -81 87 -122 133 -69 78 -73 86 -73 131 0 31 -6 56 -19 71 -37 49 -52
88 -41 109 14 27 21 25 51 -11 l26 -32 36 39 c35 39 36 39 104 37 37 -1 124
-11 193 -23 182 -31 200 -34 200 -24 -1 13 -54 70 -73 77 -9 3 -17 11 -17 17
0 17 33 11 73 -13z"/>
<path d="M1980 2280 c0 -5 6 -10 14 -10 8 0 23 -3 33 -6 16 -5 16 -4 -1 10
-22 18 -46 21 -46 6z"/>
</g>
</svg>
