<?xml version="1.0" standalone="no"?>
<!DOCTYPE svg PUBLIC "-//W3C//DTD SVG 20010904//EN"
 "http://www.w3.org/TR/2001/REC-SVG-20010904/DTD/svg10.dtd">
<svg version="1.0" xmlns="http://www.w3.org/2000/svg"
 width="480.000000pt" height="360.000000pt" viewBox="0 0 480.000000 360.000000"
 preserveAspectRatio="xMidYMid meet">
<metadata>
Created by potrace 1.16, written by Peter Selinger 2001-2019
</metadata>
<rect width="1" height="360" fill="#000000"/>
<rect x="479" width="1" height="360" fill="#000000"/>
<rect width="480" height="1" fill="#000000"/>
<rect y="359" width="480" height="1" fill="#000000"/>
<g transform="translate(0.000000,360.000000) scale(0.100000,-0.100000)"
fill="#000000" stroke="none">
<path d="M1452 2935 c-29 -8 -61 -19 -71 -24 -13 -7 -20 -5 -29 10 -16 25 -37
24 -63 -2 -15 -15 -19 -28 -14 -49 4 -16 0 -48 -9 -75 -17 -48 -21 -121 -8
-127 4 -1 14 -16 22 -33 11 -20 24 -31 43 -33 31 -4 34 -17 11 -43 -14 -16
-13 -21 25 -69 23 -29 41 -56 41 -60 0 -5 9 -11 19 -15 18 -5 14 -11 -26 -50
-46 -43 -46 -44 -30 -69 16 -24 16 -26 -9 -53 -89 -95 -144 -199 -144 -274 0
-30 6 -42 33 -63 17 -15 38 -31 46 -38 10 -9 12 -28 7 -87 -6 -62 -14 -87 -42
-135 -21 -35 -32 -66 -29 -77 3 -10 -6 -52 -21 -95 -20 -59 -23 -78 -13 -84 9
-6 10 -15 1 -37 -36 -94 -55 -197 -92 -488 -27 -219 -48 -456 -65 -753 l-7
-112 471 0 c259 0 471 1 471 3 0 1 -11 92 -25 202 -14 110 -32 283 -40 385 -9
102 -22 223 -31 270 -23 129 -99 403 -139 503 -6 13 -2 17 15 17 19 0 17 6
-24 51 l-45 50 19 47 c10 26 29 70 41 99 l23 52 -23 126 -23 125 23 19 23 18
-22 12 c-25 13 -27 32 -10 94 10 38 8 55 -17 143 -15 54 -34 107 -43 117 -14
15 -13 17 4 18 10 1 25 1 32 0 6 -1 12 9 12 22 0 27 17 47 35 41 7 -3 23 8 37
24 13 15 29 27 36 24 7 -2 12 5 12 16 0 12 7 28 16 36 19 20 13 57 -27 145
-16 35 -27 72 -24 82 7 21 -115 163 -159 186 -42 22 -132 25 -194 8z"/>
<path d="M3305 2098 c-94 -19 -190 -50 -212 -71 -29 -26 -30 -79 -3 -132 14
-27 20 -59 20 -105 l0 -66 -80 -37 c-139 -65 -176 -116 -144 -196 l15 -39 92
3 c51 2 112 8 137 14 50 11 60 5 60 -41 0 -33 17 -80 32 -89 8 -5 3 -27 -16
-69 -16 -34 -36 -105 -47 -158 -10 -54 -26 -131 -35 -173 l-17 -76 32 -139
c18 -77 39 -162 47 -190 10 -38 11 -59 3 -90 -19 -67 -69 -156 -132 -232 l-60
-72 13 -59 c12 -57 13 -59 54 -70 27 -8 140 -11 341 -9 l299 3 5 135 c2 74 3
201 2 282 l-1 148 24 6 c34 8 60 42 73 94 9 36 8 68 -6 160 -16 108 -20 121
-73 210 -31 52 -71 114 -88 138 -20 27 -35 63 -41 100 -15 82 -19 87 -57 68
-36 -19 -42 -20 -42 -6 0 6 7 10 15 10 9 0 18 7 21 15 4 8 12 15 20 15 8 0 14
7 14 15 0 9 6 18 14 21 22 8 40 66 24 76 -10 6 -10 8 0 8 7 0 10 5 7 10 -5 8
9 9 43 4 53 -7 92 6 92 31 0 24 -39 37 -89 31 -41 -5 -37 -3 34 22 133 48 145
56 145 103 0 51 -24 97 -56 109 -14 6 -62 10 -107 10 -140 0 -154 5 -183 63
-15 28 -23 58 -20 70 9 37 -14 115 -41 137 -28 21 -50 23 -128 8z m-4 -1143
c5 -37 12 -79 15 -94 l6 -26 -28 27 c-29 29 -34 58 -19 135 9 47 14 38 26 -42z"/>
</g>
</svg>
