<?xml version="1.0" standalone="no"?>
<!DOCTYPE svg PUBLIC "-//W3C//DTD SVG 20010904//EN"
 "http://www.w3.org/TR/2001/REC-SVG-20010904/DTD/svg10.dtd">
<svg version="1.0" xmlns="http://www.w3.org/2000/svg"
 width="480.000000pt" height="360.000000pt" viewBox="0 0 480.000000 360.000000"
 preserveAspectRatio="xMidYMid meet">
<metadata>
Created by potrace 1.16, written by Peter Selinger 2001-2019
</metadata>
<rect width="1" height="360" fill="#000000"/>
<rect x="479" width="1" height="360" fill="#000000"/>
<rect width="480" height="1" fill="#000000"/>
<rect y="359" width="480" height="1" fill="#000000"/>
<g transform="translate(0.000000,360.000000) scale(0.100000,-0.100000)"
fill="#000000" stroke="none">
<path d="M0 1800 l0 -1800 370 0 c295 0 375 3 393 14 12 7 53 30 90 50 56 31
66 40 56 52 -14 17 -14 17 156 244 346 461 409 560 494 773 92 230 92 233 91
487 0 210 -7 266 -28 234 -4 -6 -14 -11 -22 -11 -8 0 -23 -4 -32 -8 -25 -10
-24 6 17 180 19 82 35 155 35 162 0 7 -9 13 -19 13 -34 0 -49 11 -92 67 -40
54 -129 216 -129 237 0 5 -8 28 -18 50 -53 118 -56 190 -7 216 19 10 43 7 151
-20 71 -17 157 -43 191 -56 l62 -25 38 19 c21 10 64 35 95 54 98 60 270 88
366 59 22 -7 42 -7 59 0 30 11 28 12 135 -92 69 -67 81 -84 104 -150 25 -71
46 -263 26 -231 -15 23 -32 -11 -38 -79 -6 -67 -21 -112 -36 -103 -4 3 -8 -14
-8 -38 -1 -38 -2 -41 -14 -26 -12 17 -14 17 -30 0 -9 -10 -16 -32 -16 -48 l0
-29 -20 25 c-29 38 -25 7 14 -100 l33 -93 59 -21 c142 -52 236 -151 249 -263
4 -32 18 -94 32 -138 23 -72 24 -90 19 -188 -5 -86 -3 -115 9 -140 8 -18 74
-99 145 -181 145 -166 154 -186 101 -235 -25 -23 -28 -34 -29 -84 0 -62 11
-78 71 -92 21 -6 27 -13 27 -35 0 -33 -41 -55 -84 -44 -36 9 -84 58 -103 105
-15 38 -27 48 -37 31 -7 -11 12 -208 29 -312 8 -47 18 -118 21 -157 l7 -73
908 0 909 0 0 1800 0 1800 -2400 0 -2400 0 0 -1800z"/>
<path d="M2158 647 c-20 -30 -30 -59 -18 -52 19 12 50 64 41 69 -5 3 -15 -4
-23 -17z"/>
<path d="M1923 310 c-12 -31 -27 -55 -35 -55 -7 0 -28 -16 -46 -35 l-32 -35 7
79 c7 87 -9 102 -22 20 -10 -67 -24 -102 -34 -85 -7 11 -11 10 -18 -4 -9 -15
-11 -14 -17 9 -9 38 -23 32 -50 -22 -13 -26 -44 -78 -69 -115 l-45 -67 166 0
167 0 33 123 c32 120 38 183 23 222 -7 16 -11 10 -28 -35z"/>
</g>
</svg>
