<?xml version="1.0" standalone="no"?>
<!DOCTYPE svg PUBLIC "-//W3C//DTD SVG 20010904//EN"
 "http://www.w3.org/TR/2001/REC-SVG-20010904/DTD/svg10.dtd">
<svg version="1.0" xmlns="http://www.w3.org/2000/svg"
 width="480.000000pt" height="360.000000pt" viewBox="0 0 480.000000 360.000000"
 preserveAspectRatio="xMidYMid meet">
<metadata>
Created by potrace 1.16, written by Peter Selinger 2001-2019
</metadata>
<rect width="1" height="360" fill="#000000"/>
<rect x="479" width="1" height="360" fill="#000000"/>
<rect width="480" height="1" fill="#000000"/>
<rect y="359" width="480" height="1" fill="#000000"/>
<g transform="translate(0.000000,360.000000) scale(0.100000,-0.100000)"
fill="#000000" stroke="none">
<path d="M4570 1800 l0 -1800 115 0 115 0 0 1800 0 1800 -115 0 -115 0 0
-1800z"/>
<path d="M2405 2661 c-3 -5 -1 -20 5 -33 12 -28 30 -140 23 -150 -2 -5 -50 -8
-106 -8 -203 0 -305 -54 -359 -190 -29 -73 -31 -239 -5 -355 26 -114 105 -271
169 -334 76 -75 172 -100 255 -66 33 14 41 13 102 -6 128 -40 236 3 334 132
91 118 129 247 131 434 1 159 -18 218 -90 285 -67 62 -111 77 -247 85 -64 4
-119 11 -122 15 -3 5 -10 46 -16 92 -5 45 -15 88 -21 95 -12 15 -44 17 -53 4z"/>
<path d="M2 905 c0 -82 5 -188 12 -235 l13 -85 2 113 c1 110 1 112 22 102 36
-20 39 -6 8 42 -22 34 -33 66 -40 120 -15 112 -17 105 -17 -57z"/>
<path d="M4 515 c0 -49 1 -71 3 -48 2 23 2 64 0 90 -2 26 -3 8 -3 -42z"/>
</g>
</svg>
