<?xml version="1.0" standalone="no"?>
<!DOCTYPE svg PUBLIC "-//W3C//DTD SVG 20010904//EN"
 "http://www.w3.org/TR/2001/REC-SVG-20010904/DTD/svg10.dtd">
<svg version="1.0" xmlns="http://www.w3.org/2000/svg"
 width="480.000000pt" height="360.000000pt" viewBox="0 0 480.000000 360.000000"
 preserveAspectRatio="xMidYMid meet">
<metadata>
Created by potrace 1.16, written by Peter Selinger 2001-2019
</metadata>
<rect width="1" height="360" fill="#000000"/>
<rect x="479" width="1" height="360" fill="#000000"/>
<rect width="480" height="1" fill="#000000"/>
<rect y="359" width="480" height="1" fill="#000000"/>
<g transform="translate(0.000000,360.000000) scale(0.100000,-0.100000)"
fill="#000000" stroke="none">
<path d="M0 1800 l0 -1800 682 0 682 0 -35 38 c-172 182 -109 398 161 556 227
133 519 199 885 200 356 0 605 -47 841 -158 210 -99 334 -239 334 -376 0 -31
-5 -72 -12 -91 -16 -48 -72 -132 -100 -152 -21 -15 27 -16 670 -16 l692 -1 0
1800 0 1800 -2400 0 -2400 0 0 -1800z"/>
<path d="M2510 632 c0 -5 9 -17 21 -28 42 -38 62 -95 67 -184 4 -81 3 -87 -22
-117 -39 -46 -105 -68 -206 -68 -98 0 -162 20 -204 64 -22 23 -30 45 -39 104
-12 87 -2 138 40 187 14 17 23 34 19 37 -13 13 -200 -40 -275 -78 -143 -71
-205 -147 -204 -245 2 -64 19 -98 75 -151 55 -50 114 -85 204 -120 69 -27 70
-27 376 -31 347 -4 372 0 513 67 87 41 168 113 191 168 18 42 18 102 0 144
-18 42 -96 118 -157 153 -105 60 -399 132 -399 98z"/>
</g>
</svg>
