<?xml version="1.0" standalone="no"?>
<!DOCTYPE svg PUBLIC "-//W3C//DTD SVG 20010904//EN"
 "http://www.w3.org/TR/2001/REC-SVG-20010904/DTD/svg10.dtd">
<svg version="1.0" xmlns="http://www.w3.org/2000/svg"
 width="480.000000pt" height="360.000000pt" viewBox="0 0 480.000000 360.000000"
 preserveAspectRatio="xMidYMid meet">
<metadata>
Created by potrace 1.16, written by Peter Selinger 2001-2019
</metadata>
<rect width="1" height="360" fill="#000000"/>
<rect x="479" width="1" height="360" fill="#000000"/>
<rect width="480" height="1" fill="#000000"/>
<rect y="359" width="480" height="1" fill="#000000"/>
<g transform="translate(0.000000,360.000000) scale(0.100000,-0.100000)"
fill="#000000" stroke="none">
<path d="M0 1800 l0 -1800 883 0 883 0 25 28 c88 95 179 274 179 350 0 35 -33
122 -46 122 -6 0 -17 7 -24 15 -10 11 -9 24 4 62 9 25 16 48 16 50 0 2 -37
-29 -82 -68 -135 -116 -206 -161 -329 -205 -102 -37 -102 -28 3 55 37 29 75
65 84 79 23 39 83 82 132 95 23 6 52 22 64 34 l21 23 -26 87 c-14 49 -28 108
-31 133 -7 51 24 194 46 216 8 8 47 23 88 35 119 32 117 30 107 140 -5 54 -17
112 -28 137 -10 23 -19 58 -19 77 0 23 -7 39 -21 49 -34 23 -59 68 -59 103 0
18 20 89 44 158 44 125 49 153 48 297 0 37 3 46 14 41 10 -4 14 3 14 27 0 18
-4 29 -10 25 -6 -4 -10 10 -10 34 0 47 -21 107 -27 79 -5 -22 -23 -24 -23 -3
0 22 -18 18 -25 -5 -9 -27 -25 -25 -27 3 -2 36 -3 41 -10 53 -4 6 -3 26 1 45
17 64 22 121 11 114 -14 -8 -13 70 1 133 12 50 12 50 -25 95 -32 40 -36 50
-36 103 0 82 19 102 80 84 21 -6 28 -5 24 2 -4 6 -10 26 -15 46 -7 33 -4 38
43 88 28 30 60 54 71 54 10 0 33 -11 49 -25 34 -29 48 -24 68 25 15 37 42 45
123 36 45 -5 66 -13 78 -28 16 -20 16 -20 38 11 36 50 77 40 122 -29 16 -24
17 -24 36 -7 25 22 35 21 82 -3 45 -22 51 -35 51 -98 0 -66 8 -89 33 -96 12
-3 18 -8 14 -12 -4 -4 -2 -13 3 -19 7 -9 3 -26 -15 -56 -29 -51 -30 -68 -9
-129 16 -47 46 -201 40 -207 -2 -2 -9 3 -16 12 -35 42 -38 8 -10 -125 10 -52
17 -96 15 -98 -3 -3 -11 1 -20 8 -13 11 -15 8 -15 -19 0 -18 -4 -30 -9 -26 -5
3 -11 -3 -13 -12 -3 -10 -8 1 -12 25 -8 43 -26 58 -26 22 0 -22 -15 -27 -23
-7 -3 6 -6 -8 -6 -32 -1 -39 3 -47 42 -82 23 -21 48 -38 55 -39 43 -1 126 -72
138 -117 3 -12 4 -47 2 -78 l-3 -55 35 -6 c19 -3 45 -7 57 -10 14 -2 29 4 42
17 23 25 78 32 109 12 17 -10 27 -11 43 -2 29 15 66 3 86 -28 10 -15 28 -37
41 -50 14 -14 20 -28 15 -36 -4 -6 -9 -19 -10 -28 -1 -8 -9 -29 -18 -45 -20
-39 -19 -47 10 -78 28 -30 25 -43 -13 -57 -22 -9 -29 -6 -44 13 -15 20 -19 21
-28 8 -5 -8 -11 -19 -13 -24 -7 -20 -27 6 -27 35 0 35 -9 37 -40 5 -20 -22
-24 -23 -37 -10 -14 13 -17 13 -32 -1 -27 -23 -47 -18 -61 15 -11 26 -18 30
-50 30 l-37 0 -7 -167 c-13 -302 -21 -400 -34 -416 -10 -12 -5 -41 28 -155 62
-219 65 -223 153 -265 61 -29 85 -48 131 -104 31 -37 59 -79 63 -93 3 -14 13
-34 23 -45 15 -18 36 -58 105 -208 13 -27 15 -44 9 -60 -5 -12 -8 -34 -6 -50
l3 -27 740 0 739 0 0 1800 0 1800 -2400 0 -2400 0 0 -1800z"/>
<path d="M2560 2191 c0 -12 5 -21 10 -21 6 0 10 6 10 14 0 8 -4 18 -10 21 -5
3 -10 -3 -10 -14z"/>
<path d="M2060 2162 c0 -13 -4 -20 -10 -17 -6 4 -10 -6 -10 -24 0 -16 5 -33
11 -36 5 -4 14 -18 19 -31 13 -33 31 -30 58 9 21 31 21 36 8 67 -13 31 -14 32
-20 12 -8 -24 -21 -17 -44 23 -11 19 -11 19 -12 -3z"/>
<path d="M2016 2014 c-9 -23 -7 -64 2 -64 14 0 35 48 29 64 -8 20 -23 20 -31
0z"/>
</g>
</svg>
