<?xml version="1.0" standalone="no"?>
<!DOCTYPE svg PUBLIC "-//W3C//DTD SVG 20010904//EN"
 "http://www.w3.org/TR/2001/REC-SVG-20010904/DTD/svg10.dtd">
<svg version="1.0" xmlns="http://www.w3.org/2000/svg"
 width="480.000000pt" height="360.000000pt" viewBox="0 0 480.000000 360.000000"
 preserveAspectRatio="xMidYMid meet">
<metadata>
Created by potrace 1.16, written by Peter Selinger 2001-2019
</metadata>
<rect width="1" height="360" fill="#000000"/>
<rect x="479" width="1" height="360" fill="#000000"/>
<rect width="480" height="1" fill="#000000"/>
<rect y="359" width="480" height="1" fill="#000000"/>
<g transform="translate(0.000000,360.000000) scale(0.100000,-0.100000)"
fill="#000000" stroke="none">
<path d="M4073 3587 c-12 -7 -43 -31 -70 -55 -26 -23 -66 -58 -88 -76 l-41
-34 -39 34 c-106 93 -218 134 -364 134 -112 0 -492 -60 -592 -94 -220 -74
-316 -215 -336 -493 -4 -62 -2 -106 7 -137 15 -55 17 -52 -97 -148 -67 -56
-92 -70 -134 -78 -28 -6 -53 -10 -55 -10 -11 0 -1 -31 17 -53 16 -22 18 -30 9
-48 -15 -27 13 -62 42 -53 13 4 41 -9 87 -39 116 -77 122 -79 166 -57 l38 19
-6 -60 c-5 -57 -4 -60 12 -45 18 17 51 22 51 8 0 -18 -74 -129 -103 -155 l-32
-28 53 5 c60 6 61 3 32 -63 -11 -24 -18 -46 -16 -48 2 -3 18 3 35 11 16 9 32
16 36 16 10 0 5 -50 -11 -96 -8 -25 -14 -48 -11 -50 7 -8 85 73 92 97 7 22 8
23 15 4 4 -11 4 -41 0 -68 -4 -26 -4 -47 0 -47 3 0 24 16 45 36 l39 36 23 -29
c13 -15 23 -22 23 -15 0 7 7 20 14 28 13 12 18 11 40 -13 l25 -27 25 23 24 22
16 -22 c9 -13 16 -29 16 -36 0 -7 5 -13 10 -13 6 0 10 5 10 12 0 9 3 9 11 1
15 -15 3 -59 -18 -68 -10 -3 -78 -18 -152 -31 -187 -35 -209 -48 -400 -237
l-159 -159 -23 31 c-33 44 -108 90 -198 120 -63 21 -89 37 -143 86 -39 36
-107 82 -168 115 -105 56 -115 64 -124 111 -7 31 -49 47 -72 28 -8 -7 -49 -64
-91 -128 -42 -64 -106 -154 -144 -201 -84 -106 -272 -290 -404 -395 -54 -44
-120 -99 -145 -122 l-45 -42 29 -11 c24 -9 54 -7 145 10 64 11 132 20 152 20
20 0 79 -18 132 -40 52 -22 109 -40 126 -40 30 0 34 5 87 112 30 62 57 114 59
116 9 10 39 -25 57 -66 10 -23 25 -42 32 -42 25 0 45 26 48 64 2 22 8 41 14
43 6 2 35 -18 64 -44 53 -48 89 -108 90 -150 0 -33 33 -30 123 12 114 53 110
54 174 -50 l55 -89 -7 -96 c-15 -216 40 -329 179 -360 93 -21 153 15 200 122
26 60 35 65 82 48 l27 -11 -6 -132 c-8 -170 -25 -238 -82 -327 -25 -38 -45
-72 -45 -75 0 -3 284 -5 631 -5 l632 0 -29 22 c-16 12 -30 22 -31 23 -1 0 -5
23 -8 52 l-7 51 63 -5 c77 -6 119 10 169 62 l35 36 6 172 c10 250 18 316 40
328 11 5 19 21 19 34 0 22 4 25 40 25 28 0 43 5 47 16 7 18 5 20 -42 79 l-29
37 29 24 c17 14 43 24 61 24 63 0 280 -126 512 -297 61 -46 114 -83 117 -83 3
0 5 123 5 274 l0 274 -27 6 c-81 15 -273 37 -303 34 -26 -2 -38 -10 -48 -30
-7 -16 -17 -28 -22 -28 -19 0 -150 53 -158 64 -6 6 -22 52 -36 101 -30 102
-68 197 -106 270 -32 59 -102 102 -225 136 -192 53 -219 63 -276 101 -32 22
-59 46 -59 54 0 7 13 28 30 46 l29 33 1 -34 c0 -29 2 -32 15 -21 8 7 15 9 15
4 0 -4 5 -3 12 4 18 18 28 15 28 -8 0 -35 81 30 115 91 l28 53 20 -26 c18 -25
22 -26 42 -12 20 13 27 13 65 -2 38 -15 43 -15 57 -1 15 15 14 21 -4 76 -12
33 -18 62 -15 65 3 4 19 6 36 7 17 0 39 4 50 8 17 7 17 8 -6 23 -14 9 -39 39
-57 67 -30 46 -32 56 -28 113 6 83 20 131 49 171 30 40 69 133 62 150 -2 7
-21 23 -41 37 -32 22 -72 86 -73 116 0 12 127 -11 146 -27 7 -5 16 -9 20 -8 5
1 16 -1 24 -4 8 -4 37 -13 63 -21 44 -13 52 -13 79 2 26 15 33 29 50 92 19 74
18 109 -8 196 -5 18 0 22 28 28 149 28 254 65 265 93 6 16 -24 53 -44 53 -35
0 -213 210 -213 252 0 8 -4 18 -8 24 -14 16 -33 84 -27 94 9 15 -244 12 -272
-3z"/>
</g>
</svg>
