<?xml version="1.0" standalone="no"?>
<!DOCTYPE svg PUBLIC "-//W3C//DTD SVG 20010904//EN"
 "http://www.w3.org/TR/2001/REC-SVG-20010904/DTD/svg10.dtd">
<svg version="1.0" xmlns="http://www.w3.org/2000/svg"
 width="480.000000pt" height="360.000000pt" viewBox="0 0 480.000000 360.000000"
 preserveAspectRatio="xMidYMid meet">
<metadata>
Created by potrace 1.16, written by Peter Selinger 2001-2019
</metadata>
<rect width="1" height="360" fill="#000000"/>
<rect x="479" width="1" height="360" fill="#000000"/>
<rect width="480" height="1" fill="#000000"/>
<rect y="359" width="480" height="1" fill="#000000"/>
<g transform="translate(0.000000,360.000000) scale(0.100000,-0.100000)"
fill="#000000" stroke="none">
<path d="M0 1800 l0 -1800 935 0 c884 0 935 1 935 18 0 9 9 46 20 82 11 36 29
103 39 150 11 47 37 141 59 210 47 146 53 186 39 258 -7 37 -7 60 1 76 8 18 7
27 -5 39 -14 13 -14 20 1 63 68 206 144 562 129 601 -3 7 4 36 16 63 18 42 20
62 16 141 -3 51 -8 96 -11 101 -3 5 6 27 20 48 26 40 32 60 18 60 -11 0 -82
-70 -82 -81 0 -20 -50 -8 -69 18 -19 23 -20 29 -8 47 19 28 72 53 127 61 80
10 117 24 123 44 6 24 77 45 120 37 16 -3 42 -17 58 -31 16 -13 46 -27 67 -30
108 -18 145 -29 168 -49 25 -21 26 -23 11 -59 -18 -42 -40 -47 -72 -17 -25 24
-52 13 -37 -16 6 -11 15 -68 22 -128 7 -69 18 -123 31 -147 23 -47 26 -89 3
-46 -21 38 -24 32 -13 -23 5 -25 13 -79 18 -120 11 -82 61 -265 118 -429 36
-103 37 -104 17 -120 -17 -14 -19 -25 -16 -90 3 -58 1 -82 -13 -107 -16 -31
-16 -34 24 -160 22 -71 60 -203 83 -294 l43 -165 933 -3 932 -2 0 1800 0 1800
-2400 0 -2400 0 0 -1800z"/>
</g>
</svg>
