<?xml version="1.0" standalone="no"?>
<!DOCTYPE svg PUBLIC "-//W3C//DTD SVG 20010904//EN"
 "http://www.w3.org/TR/2001/REC-SVG-20010904/DTD/svg10.dtd">
<svg version="1.0" xmlns="http://www.w3.org/2000/svg"
 width="480.000000pt" height="360.000000pt" viewBox="0 0 480.000000 360.000000"
 preserveAspectRatio="xMidYMid meet">
<metadata>
Created by potrace 1.16, written by Peter Selinger 2001-2019
</metadata>
<rect width="1" height="360" fill="#000000"/>
<rect x="479" width="1" height="360" fill="#000000"/>
<rect width="480" height="1" fill="#000000"/>
<rect y="359" width="480" height="1" fill="#000000"/>
<g transform="translate(0.000000,360.000000) scale(0.100000,-0.100000)"
fill="#000000" stroke="none">
<path d="M2370 3523 c-35 -123 -50 -194 -50 -246 l0 -48 -31 21 c-53 39 -166
89 -234 105 -119 27 -189 17 -282 -42 -63 -40 -85 -70 -113 -153 -35 -103 -31
-205 13 -380 20 -80 43 -198 52 -263 19 -149 32 -202 60 -252 l23 -41 -54 -28
c-64 -34 -117 -100 -135 -169 -18 -75 -7 -242 19 -294 31 -60 78 -111 125
-135 38 -19 61 -20 114 -3 18 6 27 -2 59 -49 20 -31 42 -55 48 -53 6 2 15 23
20 46 9 40 11 42 42 39 19 -1 39 3 46 10 6 6 8 12 3 12 -6 0 5 9 23 20 17 11
32 24 32 30 0 5 7 10 15 10 25 0 29 -68 16 -288 -9 -161 -9 -217 0 -228 8 -10
5 -29 -14 -81 -14 -37 -31 -88 -37 -113 -26 -100 -9 -230 29 -215 9 4 22 8 30
9 8 2 22 13 33 25 10 13 18 20 18 16 0 -4 7 -2 15 5 13 11 13 15 0 33 -22 31
-18 85 9 142 13 27 30 77 38 110 11 50 17 61 36 63 22 3 22 6 22 135 0 73 5
164 11 202 11 74 -9 354 -35 480 -7 39 -9 78 -3 113 8 47 13 54 45 71 67 35
238 227 274 309 12 26 23 83 28 145 4 56 15 122 24 146 9 24 16 60 16 81 0 41
19 63 83 96 21 10 98 68 170 128 144 119 326 262 370 291 19 12 48 18 90 19
55 1 76 8 186 64 141 71 151 78 151 102 0 10 21 31 48 49 l47 31 -736 0 -737
0 -22 -77z"/>
</g>
</svg>
