<?xml version="1.0" standalone="no"?>
<!DOCTYPE svg PUBLIC "-//W3C//DTD SVG 20010904//EN"
 "http://www.w3.org/TR/2001/REC-SVG-20010904/DTD/svg10.dtd">
<svg version="1.0" xmlns="http://www.w3.org/2000/svg"
 width="480.000000pt" height="360.000000pt" viewBox="0 0 480.000000 360.000000"
 preserveAspectRatio="xMidYMid meet">
<metadata>
Created by potrace 1.16, written by Peter Selinger 2001-2019
</metadata>
<rect width="1" height="360" fill="#000000"/>
<rect x="479" width="1" height="360" fill="#000000"/>
<rect width="480" height="1" fill="#000000"/>
<rect y="359" width="480" height="1" fill="#000000"/>
<g transform="translate(0.000000,360.000000) scale(0.100000,-0.100000)"
fill="#000000" stroke="none">
<path d="M0 1800 l0 -1800 933 2 932 3 7 55 c3 30 20 90 37 133 26 65 31 92
31 161 l0 82 -46 44 c-54 53 -74 88 -74 129 0 16 16 85 36 153 20 68 43 147
52 176 8 28 12 55 9 59 -4 3 -27 -8 -52 -26 -60 -43 -80 -37 -72 24 4 25 18
68 32 95 21 42 30 50 45 45 15 -5 20 -2 20 12 0 24 28 68 79 123 61 66 114
167 108 205 -9 56 3 86 40 101 l34 15 -68 73 c-109 116 -145 203 -119 289 7
23 5 27 -13 27 -12 0 -24 6 -27 14 -9 22 25 66 51 66 32 0 81 40 63 51 -7 5
-21 9 -32 9 -21 0 -116 42 -116 51 0 4 7 9 15 13 8 3 15 15 15 26 0 26 31 26
55 0 19 -21 33 -24 52 -12 9 6 9 26 -2 87 -15 83 -19 202 -9 229 10 27 38 18
84 -29 l43 -44 31 26 c38 32 103 62 133 63 12 0 38 14 58 31 l35 31 0 -1296 0
-1296 295 0 294 0 -3 53 c-2 31 -20 95 -45 157 -38 98 -41 111 -41 205 1 127
15 314 30 383 9 38 22 63 46 87 19 19 34 41 34 48 0 8 31 56 69 108 105 141
111 157 111 280 0 120 -10 143 -65 152 -33 5 -110 -23 -205 -78 -38 -22 -52
-3 -45 59 6 57 2 67 -39 88 l-28 15 49 31 c74 47 177 159 198 214 34 91 -9
175 -118 227 -36 17 -67 38 -71 46 -6 18 5 20 21 4 7 -7 17 -8 25 -3 7 5 22 8
33 9 20 0 45 37 45 69 0 19 -11 19 -79 0 -21 -6 -23 -5 -17 12 13 33 47 217
48 264 1 50 -15 90 -36 90 -8 0 -37 -18 -65 -40 -28 -22 -54 -40 -59 -40 -5 0
-17 10 -28 21 -23 27 -111 69 -142 69 -14 0 -44 20 -76 50 -56 53 -86 62 -118
33 -17 -16 -18 0 -18 485 l0 502 -1200 0 -1200 0 0 -1800z m2989 119 c56 -55
50 -96 -26 -173 -44 -45 -146 -116 -166 -116 -8 0 -22 9 -32 20 -15 17 -15 21
-3 34 8 7 23 36 33 62 23 62 22 61 41 38 11 -14 17 -16 21 -6 4 10 10 9 26 -5
20 -18 20 -18 14 15 -5 25 -3 32 9 32 13 0 13 3 -1 30 -19 37 -19 60 0 60 8 0
20 9 27 20 17 26 21 26 57 -11z m-309 -286 c0 -8 8 -22 17 -31 16 -16 15 -17
-16 -20 -39 -4 -81 5 -81 17 0 4 9 20 20 34 21 27 60 27 60 0z m182 -1158 c-4
-50 -11 -55 -30 -24 -11 17 -11 25 3 45 23 35 31 30 27 -21z"/>
<path d="M2023 1942 c-18 -16 -33 -36 -33 -44 0 -46 27 -95 87 -158 66 -71 93
-85 93 -51 0 21 -60 141 -70 141 -4 0 -13 -12 -21 -27 l-13 -28 -4 33 c-2 24
-7 32 -18 28 -18 -7 -18 9 2 39 9 14 14 39 12 61 l-3 37 -32 -31z"/>
<path d="M2190 1670 c-9 -16 -8 -20 5 -20 8 0 15 9 15 20 0 11 -2 20 -5 20 -2
0 -9 -9 -15 -20z"/>
<path d="M2285 1640 c-20 -39 -20 -40 21 -40 31 0 35 3 29 18 -4 9 -10 25 -12
35 -8 25 -20 21 -38 -13z"/>
<path d="M2340 1663 c0 -19 11 -43 21 -43 13 0 11 14 -6 36 -8 10 -15 14 -15
7z"/>
<path d="M2126 830 c-11 -30 -29 -79 -42 -108 l-23 -52 24 -28 c21 -23 26 -25
35 -12 5 8 10 36 10 61 0 25 5 71 11 103 15 81 6 101 -15 36z"/>
</g>
</svg>
