<?xml version="1.0" standalone="no"?>
<!DOCTYPE svg PUBLIC "-//W3C//DTD SVG 20010904//EN"
 "http://www.w3.org/TR/2001/REC-SVG-20010904/DTD/svg10.dtd">
<svg version="1.0" xmlns="http://www.w3.org/2000/svg"
 width="480.000000pt" height="360.000000pt" viewBox="0 0 480.000000 360.000000"
 preserveAspectRatio="xMidYMid meet">
<metadata>
Created by potrace 1.16, written by Peter Selinger 2001-2019
</metadata>
<rect width="1" height="360" fill="#000000"/>
<rect x="479" width="1" height="360" fill="#000000"/>
<rect width="480" height="1" fill="#000000"/>
<rect y="359" width="480" height="1" fill="#000000"/>
<g transform="translate(0.000000,360.000000) scale(0.100000,-0.100000)"
fill="#000000" stroke="none">
<path d="M2050 2945 c-15 -9 -55 -14 -98 -15 -83 0 -128 -18 -179 -72 -56 -59
-177 -251 -207 -328 -16 -41 -42 -89 -58 -105 -29 -32 -36 -73 -16 -93 8 -8 8
-29 -1 -84 -16 -93 -26 -478 -12 -478 9 0 18 26 57 168 28 101 37 77 32 -83
-3 -79 -1 -142 3 -139 4 2 9 -21 11 -53 l3 -58 39 120 c21 66 42 124 47 130
11 11 11 -42 -1 -110 -9 -56 -7 -63 14 -46 21 18 31 8 46 -45 11 -37 11 -59 2
-103 -12 -56 -8 -70 29 -83 4 -2 9 -28 11 -58 3 -54 2 -55 -22 -52 -33 4 -90
-7 -90 -17 0 -10 45 -29 80 -33 23 -3 25 -7 28 -67 4 -93 -13 -265 -43 -421
-14 -74 -32 -207 -39 -295 -9 -105 -21 -179 -34 -217 -11 -31 -30 -105 -42
-165 -11 -59 -22 -116 -24 -126 -4 -16 21 -17 423 -17 l428 0 -13 83 c-20 124
-32 277 -25 304 5 20 15 -1 49 -103 24 -71 60 -163 81 -204 l38 -75 247 -3
247 -2 100 75 c55 41 104 75 109 75 6 0 10 -11 10 -24 0 -25 22 -51 33 -39 4
3 7 31 7 62 l1 56 28 -35 c37 -44 51 -33 22 16 -20 33 -20 38 -6 54 38 41 -7
251 -116 542 -42 114 -161 362 -187 391 -8 9 -13 19 -11 20 2 2 32 8 66 15 35
6 75 17 90 24 39 19 79 83 97 155 31 123 14 199 -55 234 -31 15 -39 25 -40 47
l0 27 -16 -22 c-13 -19 -19 -21 -36 -12 -29 16 -125 4 -156 -19 -49 -36 -76
-167 -50 -241 10 -28 9 -34 -7 -46 -11 -8 -33 -15 -49 -15 -34 0 -55 -13 -232
-142 -68 -49 -127 -86 -133 -83 -21 13 -38 63 -42 130 -6 82 -47 189 -102 264
-20 27 -41 64 -48 83 -6 18 -20 43 -30 55 -19 20 -19 24 -4 102 8 45 21 88 29
95 9 9 16 46 20 95 3 44 9 86 13 93 5 7 9 25 10 40 1 15 4 34 8 43 6 17 91 58
119 57 9 0 17 3 17 8 0 4 18 29 39 55 38 45 39 50 35 104 -7 78 -33 200 -52
240 -12 26 -13 37 -3 50 22 31 61 116 61 135 0 26 -67 88 -131 120 -68 33
-165 36 -224 6 -38 -20 -39 -20 -59 -1 -12 11 -32 24 -46 30 -14 6 -34 17 -45
25 -17 13 -23 13 -45 1z m75 -1095 c3 -5 1 -10 -4 -10 -6 0 -11 5 -11 10 0 6
2 10 4 10 3 0 8 -4 11 -10z"/>
</g>
</svg>
