<?xml version="1.0" standalone="no"?>
<!DOCTYPE svg PUBLIC "-//W3C//DTD SVG 20010904//EN"
 "http://www.w3.org/TR/2001/REC-SVG-20010904/DTD/svg10.dtd">
<svg version="1.0" xmlns="http://www.w3.org/2000/svg"
 width="480.000000pt" height="360.000000pt" viewBox="0 0 480.000000 360.000000"
 preserveAspectRatio="xMidYMid meet">
<metadata>
Created by potrace 1.16, written by Peter Selinger 2001-2019
</metadata>
<rect width="1" height="360" fill="#000000"/>
<rect x="479" width="1" height="360" fill="#000000"/>
<rect width="480" height="1" fill="#000000"/>
<rect y="359" width="480" height="1" fill="#000000"/>
<g transform="translate(0.000000,360.000000) scale(0.100000,-0.100000)"
fill="#000000" stroke="none">
<path d="M0 1800 l0 -1800 870 0 c479 0 870 1 870 3 0 62 116 452 172 582 22
50 50 121 64 159 l24 69 -22 129 c-12 70 -27 128 -33 128 -5 0 -25 -9 -43 -20
-54 -33 -69 -27 -82 33 -18 76 -12 92 30 90 19 0 48 -4 64 -8 28 -8 28 -8 23
31 -3 21 -10 77 -16 123 -14 115 -21 119 -37 16 l-8 -50 -5 39 -6 39 -38 -46
c-43 -52 -93 -74 -149 -63 -48 9 -72 38 -116 142 -38 87 -61 128 -130 230 -31
45 -33 54 -29 105 l5 56 -40 12 c-50 15 -123 87 -133 130 -4 20 -16 36 -30 43
-33 15 -37 32 -14 57 25 26 63 27 177 4 70 -15 92 -24 125 -54 36 -32 44 -35
68 -26 25 10 32 6 92 -54 57 -57 66 -72 77 -122 6 -31 15 -57 20 -57 4 0 10
27 12 60 4 54 9 65 44 101 23 25 31 37 18 31 -16 -8 -26 -8 -39 2 -15 11 -17
24 -13 85 3 39 9 75 12 79 11 10 91 5 115 -8 12 -6 25 -8 30 -5 5 2 12 62 16
132 12 232 47 577 66 646 5 20 24 53 40 72 36 40 33 42 -21 15 -50 -26 -80
-26 -87 0 -4 17 -11 19 -48 14 -24 -4 -51 -1 -64 5 -19 10 -21 20 -21 89 0 94
24 280 38 294 18 18 243 -46 368 -106 90 -43 120 -54 134 -46 25 14 103 13
117 -1 9 -9 36 -1 105 29 52 22 119 47 149 56 46 14 215 46 243 46 10 0 1
-346 -10 -374 -4 -10 -18 -16 -35 -16 -17 0 -41 -7 -54 -16 -23 -15 -27 -14
-81 15 -32 17 -59 29 -62 27 -2 -3 7 -17 21 -31 14 -16 35 -63 51 -118 22 -74
26 -108 24 -177 -3 -95 30 -541 41 -553 4 -4 24 -1 44 8 44 18 96 20 102 3 10
-25 11 -123 3 -140 -11 -23 -30 -23 -78 2 -22 11 -40 18 -40 15 0 -4 24 -30
54 -60 66 -64 90 -107 83 -149 -5 -37 21 -98 33 -75 4 8 11 32 15 54 9 53 30
91 61 112 14 9 30 28 35 41 9 23 13 24 58 18 45 -6 51 -4 71 21 l22 28 -52 6
c-53 7 -66 17 -97 74 -8 17 -30 46 -48 66 -18 20 -38 53 -45 74 -11 33 -10 42
10 81 20 42 21 46 6 87 -16 45 -36 145 -36 184 0 18 6 23 25 23 29 0 45 30 45
84 0 39 33 86 60 86 10 0 27 -13 37 -30 21 -36 42 -38 71 -7 16 17 22 36 22
70 0 61 17 61 26 0 7 -47 48 -158 66 -180 19 -24 38 -13 59 32 l22 46 24 -23
c34 -31 63 -91 63 -127 0 -48 -21 -172 -36 -214 -8 -20 -14 -59 -14 -85 0 -48
-28 -122 -58 -155 -9 -10 -31 -25 -49 -32 -62 -26 -40 -37 60 -30 82 6 94 5
109 -11 22 -26 26 -55 8 -65 -8 -5 -33 -13 -55 -19 -22 -5 -47 -14 -55 -19
-23 -15 -4 -24 20 -9 19 11 24 10 41 -11 10 -13 19 -29 19 -35 0 -21 -42 -53
-105 -79 -52 -22 -60 -29 -63 -54 -6 -68 -14 -93 -43 -129 -37 -47 -86 -142
-124 -242 -35 -93 -65 -116 -142 -108 -51 4 -52 4 -57 -25 -3 -16 -9 -43 -12
-60 -8 -40 -26 -46 -75 -24 -21 10 -41 16 -43 14 -3 -2 -10 -72 -17 -154 -6
-83 -15 -157 -20 -165 -5 -9 -9 35 -10 105 -1 170 -9 219 -34 222 -11 2 -29
-4 -39 -12 -18 -14 -18 -15 -2 -41 15 -22 17 -40 11 -118 -8 -103 -2 -126 85
-329 46 -109 185 -511 195 -569 l7 -38 859 0 859 0 0 1800 0 1800 -2400 0
-2400 0 0 -1800z m1599 1177 c10 -23 26 -48 35 -56 9 -7 16 -18 16 -24 0 -6 8
-19 17 -30 14 -14 18 -37 18 -89 0 -64 2 -72 22 -81 13 -5 28 -23 35 -38 7
-16 17 -29 21 -29 5 0 21 -9 37 -20 39 -28 43 -62 13 -118 -15 -27 -31 -84
-40 -135 -13 -83 -60 -212 -90 -248 -17 -20 -120 -52 -136 -42 -6 4 -28 8 -47
8 -24 0 -37 6 -45 20 -13 27 -70 101 -109 142 -28 29 -30 36 -31 117 l-2 85
45 37 44 37 -6 76 c-3 42 -8 108 -12 146 -9 107 36 242 64 188 5 -10 18 -60
27 -111 10 -52 26 -104 36 -115 16 -20 19 -21 34 -6 20 19 34 78 28 112 -3 14
-16 30 -29 36 -20 9 -24 18 -24 55 0 24 6 59 14 77 26 63 40 64 65 6z m-359
-382 c0 -14 -4 -25 -10 -25 -5 0 -10 11 -10 25 0 14 5 25 10 25 6 0 10 -11 10
-25z"/>
<path d="M2842 1333 c-1 -34 -5 -69 -9 -79 -6 -16 -7 -16 -14 2 -7 17 -8 17
-8 2 -1 -10 -5 -18 -11 -18 -21 0 -9 -37 15 -48 34 -16 37 -7 32 109 -2 66 -3
76 -5 32z"/>
<path d="M2910 1275 c0 -47 3 -85 8 -85 13 0 81 26 89 33 3 4 -5 20 -19 35
-13 15 -35 44 -47 65 -13 20 -25 37 -27 37 -2 0 -4 -38 -4 -85z"/>
<path d="M2017 1083 c-4 -3 -7 -11 -7 -17 0 -6 5 -5 12 2 6 6 9 14 7 17 -3 3
-9 2 -12 -2z"/>
</g>
</svg>
