<?xml version="1.0" standalone="no"?>
<!DOCTYPE svg PUBLIC "-//W3C//DTD SVG 20010904//EN"
 "http://www.w3.org/TR/2001/REC-SVG-20010904/DTD/svg10.dtd">
<svg version="1.0" xmlns="http://www.w3.org/2000/svg"
 width="480.000000pt" height="360.000000pt" viewBox="0 0 480.000000 360.000000"
 preserveAspectRatio="xMidYMid meet">
<metadata>
Created by potrace 1.16, written by Peter Selinger 2001-2019
</metadata>
<rect width="1" height="360" fill="#000000"/>
<rect x="479" width="1" height="360" fill="#000000"/>
<rect width="480" height="1" fill="#000000"/>
<rect y="359" width="480" height="1" fill="#000000"/>
<g transform="translate(0.000000,360.000000) scale(0.100000,-0.100000)"
fill="#000000" stroke="none">
<path d="M3994 3541 c-70 -17 -135 -55 -233 -136 -90 -74 -130 -105 -133 -105
-2 0 -24 18 -48 41 -139 127 -274 151 -600 109 -249 -33 -284 -41 -383 -93
-107 -56 -180 -165 -212 -315 -17 -85 -20 -218 -4 -259 10 -26 7 -31 -53 -86
-80 -75 -115 -97 -154 -97 -45 0 -56 -16 -38 -53 13 -23 14 -35 5 -55 -13 -28
0 -52 29 -52 9 0 49 -23 88 -50 98 -69 112 -73 152 -48 l33 20 -6 -51 c-3 -28
-4 -51 -1 -51 3 0 16 7 30 16 13 9 28 14 32 10 11 -12 -58 -134 -94 -166 -19
-16 -34 -32 -34 -36 0 -3 20 -3 44 0 25 4 47 3 50 -3 3 -5 -3 -30 -14 -57 -11
-26 -18 -49 -15 -52 3 -3 25 9 50 26 l45 32 0 -33 c0 -18 -4 -47 -10 -66 -14
-51 -2 -56 32 -14 16 21 35 38 41 38 7 0 13 -20 15 -48 l3 -49 29 31 30 31 16
-25 c20 -31 28 -31 41 -3 9 21 9 21 36 -7 25 -28 27 -28 46 -11 11 10 17 24
14 32 -3 8 -1 14 4 14 14 0 53 -88 47 -105 -4 -8 -9 -15 -13 -15 -3 0 -68 -11
-144 -24 -186 -33 -223 -52 -338 -176 -84 -90 -94 -98 -116 -89 -76 28 -195
-6 -215 -62 -5 -16 -13 -29 -17 -29 -4 0 -48 37 -99 83 -181 160 -216 187
-323 243 -96 50 -109 59 -109 83 0 33 -9 47 -36 55 -26 8 -49 -17 -139 -149
-158 -232 -280 -358 -560 -574 -80 -62 -145 -122 -145 -133 0 -18 74 -18 179
1 149 27 156 27 259 -13 110 -42 144 -49 167 -32 10 7 39 55 64 107 27 54 52
94 60 94 8 0 28 -25 44 -55 15 -30 32 -56 36 -58 17 -6 41 30 41 59 0 45 24
46 76 3 53 -43 104 -117 104 -151 0 -34 35 -30 119 13 39 20 89 38 110 41 51
7 112 -22 182 -86 l53 -49 -23 -115 c-43 -208 -21 -286 94 -343 43 -20 65 -25
96 -21 68 9 92 41 149 197 18 47 36 90 42 95 7 7 8 -48 5 -170 -4 -136 -10
-197 -25 -250 -19 -67 -105 -229 -137 -255 -8 -7 -15 -19 -15 -26 0 -12 103
-14 640 -14 l640 0 -6 28 c-3 15 -8 34 -10 42 -2 8 -27 30 -54 48 -50 32 -50
32 -50 87 l0 55 65 0 c79 0 137 26 160 70 11 21 18 86 25 232 6 112 13 211 16
221 3 9 14 22 25 27 10 6 19 20 19 30 0 16 7 20 35 20 30 0 35 3 35 25 0 13
-7 28 -16 33 -9 5 -23 23 -30 40 -11 27 -11 34 2 47 24 23 62 29 106 16 96
-29 314 -161 488 -296 132 -102 156 -117 204 -122 40 -5 51 -1 125 48 l81 54
0 262 0 261 -57 -20 c-83 -29 -214 -34 -343 -13 -58 9 -140 19 -182 22 l-77 6
-13 -29 c-6 -16 -13 -30 -14 -32 -4 -6 -147 48 -171 64 -13 8 -23 24 -23 37 0
44 -50 200 -89 282 -38 78 -44 85 -93 109 -29 14 -116 42 -193 61 -166 42
-250 85 -250 130 0 22 7 29 38 40 38 13 51 8 41 -18 -3 -8 -1 -18 5 -22 6 -3
11 -1 11 4 0 6 5 11 12 11 6 0 20 7 30 17 17 15 18 15 18 -5 0 -20 1 -20 31
-5 17 8 34 25 39 37 5 11 20 39 33 60 l24 39 18 -27 18 -26 32 18 c28 17 35
18 56 6 56 -31 72 -4 38 67 -26 56 -20 69 33 69 37 0 43 15 16 37 -32 25 -74
92 -82 130 -4 19 -1 43 8 64 8 19 20 49 27 68 7 18 23 43 36 55 13 12 32 46
43 75 l20 53 -31 29 c-17 16 -35 29 -39 29 -12 0 -51 71 -48 85 3 14 24 9 190
-47 75 -25 90 -27 110 -16 13 7 24 13 26 14 1 1 9 28 18 60 14 53 15 123 2
199 -2 14 3 20 18 21 36 2 167 35 202 51 46 20 52 42 17 67 -123 92 -211 231
-235 371 -16 96 -19 99 -76 86z"/>
</g>
</svg>
