<?xml version="1.0" standalone="no"?>
<!DOCTYPE svg PUBLIC "-//W3C//DTD SVG 20010904//EN"
 "http://www.w3.org/TR/2001/REC-SVG-20010904/DTD/svg10.dtd">
<svg version="1.0" xmlns="http://www.w3.org/2000/svg"
 width="480.000000pt" height="360.000000pt" viewBox="0 0 480.000000 360.000000"
 preserveAspectRatio="xMidYMid meet">
<metadata>
Created by potrace 1.16, written by Peter Selinger 2001-2019
</metadata>
<rect width="1" height="360" fill="#000000"/>
<rect x="479" width="1" height="360" fill="#000000"/>
<rect width="480" height="1" fill="#000000"/>
<rect y="359" width="480" height="1" fill="#000000"/>
<g transform="translate(0.000000,360.000000) scale(0.100000,-0.100000)"
fill="#000000" stroke="none">
<path d="M1814 3149 c-27 -17 -51 -35 -54 -40 -3 -4 -27 -15 -53 -24 -37 -12
-55 -14 -85 -5 -57 15 -88 12 -141 -14 -80 -41 -170 -167 -171 -239 0 -15 -12
-56 -26 -90 -81 -191 -110 -323 -127 -582 -10 -142 -11 -223 -3 -322 6 -72 14
-134 17 -137 3 -4 15 15 25 41 l19 48 10 -80 11 -80 31 115 31 115 2 -85 c1
-47 5 -94 9 -105 7 -17 9 -16 15 10 10 38 26 15 26 -36 0 -20 6 -52 14 -70
l14 -33 12 44 c19 76 21 80 31 75 5 -4 9 3 9 14 0 11 5 23 10 26 15 9 12 -72
-5 -139 -17 -63 -14 -76 16 -76 18 0 20 -6 17 -67 l-3 -68 -35 -2 c-54 -5 -56
-19 -6 -38 l46 -18 2 -186 c1 -102 2 -195 1 -206 0 -11 -12 -81 -26 -155 -14
-75 -31 -195 -37 -268 -10 -117 -16 -142 -46 -209 -31 -67 -84 -229 -84 -254
0 -5 193 -9 446 -9 l446 0 -7 100 c-8 100 -8 100 19 121 14 11 26 30 26 42 0
12 10 38 21 57 18 29 20 43 14 90 -4 30 -7 66 -7 80 0 33 -16 230 -28 355 -6
58 -7 121 -2 150 l9 50 7 -40 c20 -104 22 -105 36 -40 l13 60 18 -42 c27 -64
37 -136 49 -363 14 -256 26 -366 52 -450 22 -69 67 -143 98 -160 10 -5 79 -10
152 -10 130 0 136 1 268 44 126 41 135 43 138 25 5 -27 16 -24 46 16 31 40 42
43 51 15 10 -32 35 -25 35 10 0 23 7 33 30 45 58 30 98 122 141 328 33 159 38
434 10 591 -12 66 -18 122 -14 126 4 3 41 12 81 18 102 17 135 33 169 84 33
47 48 85 68 168 25 100 -13 192 -91 225 -30 12 -34 18 -28 40 7 30 -12 34 -21
4 -5 -15 -11 -18 -23 -12 -10 4 -52 8 -95 8 -76 0 -80 -1 -107 -32 -54 -60
-74 -180 -46 -262 14 -37 13 -41 -1 -50 -11 -6 -24 -4 -39 5 -19 13 -37 12
-145 -6 -154 -26 -338 -66 -405 -87 l-51 -16 -134 68 c-74 37 -144 77 -156 89
-12 11 -32 48 -45 81 -14 34 -31 61 -40 63 -9 2 -34 -13 -56 -32 l-39 -36 -18
43 c-18 44 -23 54 -62 123 -22 39 -23 46 -13 115 6 41 15 76 20 77 6 2 10 36
10 76 0 70 1 73 34 101 19 16 37 39 41 52 4 16 15 26 35 30 40 8 46 20 22 46
-38 43 -45 67 -26 88 22 24 46 25 37 2 -6 -16 -3 -16 18 2 13 11 27 24 30 28
4 5 18 10 33 10 14 1 26 7 26 13 0 6 7 17 15 24 8 7 15 29 15 49 0 41 15 62
37 54 13 -5 13 -1 -1 25 -9 18 -23 67 -30 110 -18 103 -59 175 -147 256 -42
38 -69 72 -69 84 0 12 -22 40 -54 69 -29 26 -61 65 -71 86 -19 40 -101 97
-141 97 -11 0 -42 -14 -70 -31z"/>
</g>
</svg>
