<?xml version="1.0" standalone="no"?>
<!DOCTYPE svg PUBLIC "-//W3C//DTD SVG 20010904//EN"
 "http://www.w3.org/TR/2001/REC-SVG-20010904/DTD/svg10.dtd">
<svg version="1.0" xmlns="http://www.w3.org/2000/svg"
 width="480.000000pt" height="360.000000pt" viewBox="0 0 480.000000 360.000000"
 preserveAspectRatio="xMidYMid meet">
<metadata>
Created by potrace 1.16, written by Peter Selinger 2001-2019
</metadata>
<rect width="1" height="360" fill="#000000"/>
<rect x="479" width="1" height="360" fill="#000000"/>
<rect width="480" height="1" fill="#000000"/>
<rect y="359" width="480" height="1" fill="#000000"/>
<g transform="translate(0.000000,360.000000) scale(0.100000,-0.100000)"
fill="#000000" stroke="none">
<path d="M1647 3560 c5 -34 2 -43 -25 -70 -32 -32 -69 -38 -116 -20 -17 6 -26
6 -26 -1 0 -5 7 -12 15 -15 28 -11 15 -29 -53 -73 -37 -24 -78 -51 -92 -61
-55 -37 -122 -42 -167 -13 -22 14 -24 13 -58 -23 -96 -106 -95 -105 -71 -133
7 -9 32 -52 55 -95 38 -73 40 -80 25 -97 -25 -27 -43 -89 -44 -145 0 -37 8
-67 31 -112 17 -34 34 -60 38 -57 9 5 27 -49 36 -110 l7 -41 -114 -51 c-62
-28 -147 -66 -188 -84 -41 -18 -103 -45 -138 -61 -34 -15 -64 -28 -67 -28 -3
0 -33 -13 -67 -29 -112 -52 -185 -80 -226 -87 -37 -6 -41 -4 -44 17 -2 16 -13
27 -33 34 -51 18 -108 60 -204 152 l-94 90 54 17 c30 10 77 31 106 47 84 48
114 138 78 239 -18 52 -80 130 -103 130 -9 0 -26 7 -36 15 -21 16 -65 19 -103
9 l-23 -6 0 -524 0 -523 40 14 c44 15 40 17 174 -75 12 -8 78 -73 147 -143
l124 -128 85 3 c72 3 95 8 150 35 67 33 217 147 258 196 25 29 69 36 90 15 9
-9 16 -8 30 5 10 9 35 17 54 17 32 0 39 -5 67 -49 17 -27 43 -77 56 -111 13
-34 36 -82 50 -106 24 -40 26 -51 20 -112 -7 -63 -5 -68 18 -91 14 -12 30 -20
36 -17 14 9 25 -34 12 -47 -6 -6 -11 -20 -11 -30 0 -11 -21 -45 -47 -75 -41
-47 -153 -242 -153 -265 0 -17 -126 -238 -195 -342 -41 -60 -106 -148 -145
-195 -40 -47 -83 -110 -97 -140 -14 -30 -38 -83 -54 -116 -16 -34 -29 -69 -29
-78 0 -15 65 -16 765 -16 l765 0 0 35 c0 44 -26 218 -40 264 -5 19 -14 93 -20
165 -36 450 -48 525 -95 619 -42 82 -45 124 -10 157 36 34 39 71 21 241 -20
178 -37 267 -72 363 -23 66 -24 71 -9 108 10 25 15 71 15 136 l0 98 -64 55
c-36 30 -65 58 -65 62 -1 5 8 16 20 26 31 25 57 114 70 241 8 74 17 121 27
133 8 9 11 17 6 17 -11 1 73 40 233 109 101 43 125 50 140 40 26 -15 108 24
99 47 -3 9 -6 21 -6 28 0 7 -26 27 -59 45 l-58 31 -64 -35 c-35 -20 -86 -46
-114 -59 -229 -108 -220 -105 -229 -80 -12 31 -5 46 45 99 50 52 50 54 34 78
-9 14 -23 28 -32 31 -12 5 -14 15 -10 41 3 19 4 35 2 35 -2 0 -18 -14 -34 -32
-35 -37 -49 -32 -31 11 6 16 9 43 5 59 -6 30 -6 30 -37 15 -28 -14 -31 -14
-40 1 -5 10 -49 60 -96 113 -94 103 -101 113 -79 113 28 0 67 58 67 100 0 62
-17 90 -56 90 -32 0 -32 -1 -27 -40z m671 -637 c3 -17 -6 -26 -35 -41 -21 -11
-49 -23 -63 -27 -14 -4 -52 -20 -85 -35 -102 -47 -160 -69 -165 -63 -3 3 1 8
8 10 6 3 12 11 12 19 0 8 8 17 18 21 31 11 96 43 187 92 50 27 97 48 105 47 8
0 16 -11 18 -23z m-1118 -513 c0 -5 -5 -10 -11 -10 -5 0 -7 5 -4 10 3 6 8 10
11 10 2 0 4 -4 4 -10z m-40 -14 c0 -1 -64 -31 -142 -66 -79 -34 -183 -80 -233
-102 -49 -23 -103 -46 -120 -53 -16 -7 -52 -23 -80 -35 -68 -31 -127 -51 -132
-46 -4 4 142 76 153 76 6 0 221 92 281 121 34 16 66 29 72 29 5 0 22 6 38 14
89 44 163 73 163 62z m70 -25 c0 -5 -11 -18 -25 -29 -17 -13 -23 -26 -19 -37
8 -19 -11 -35 -41 -35 -22 0 -88 49 -67 50 7 0 25 8 39 18 48 31 113 50 113
33z m-222 -110 c-24 -22 -57 -60 -73 -86 -17 -26 -46 -55 -65 -66 -63 -34 -74
-46 -75 -89 0 -22 -5 -40 -10 -40 -6 0 -44 -33 -84 -74 -80 -81 -93 -84 -121
-29 -8 15 -29 47 -48 69 -18 23 -32 46 -30 50 1 5 -3 19 -10 31 -12 22 -9 24
85 68 54 25 115 55 136 66 21 11 61 27 88 35 27 8 49 19 49 24 0 6 7 10 15 10
9 0 48 16 88 35 94 45 110 44 55 -4z"/>
<path d="M1 756 c-1 -470 0 -498 17 -491 9 3 31 9 47 12 44 8 246 107 284 138
17 15 39 44 47 64 8 20 27 45 41 57 22 17 25 25 19 56 -7 40 -43 80 -136 153
-140 110 -178 168 -310 490 -5 11 -9 -204 -9 -479z"/>
</g>
</svg>
