<?xml version="1.0" standalone="no"?>
<!DOCTYPE svg PUBLIC "-//W3C//DTD SVG 20010904//EN"
 "http://www.w3.org/TR/2001/REC-SVG-20010904/DTD/svg10.dtd">
<svg version="1.0" xmlns="http://www.w3.org/2000/svg"
 width="480.000000pt" height="360.000000pt" viewBox="0 0 480.000000 360.000000"
 preserveAspectRatio="xMidYMid meet">
<metadata>
Created by potrace 1.16, written by Peter Selinger 2001-2019
</metadata>
<rect width="1" height="360" fill="#000000"/>
<rect x="479" width="1" height="360" fill="#000000"/>
<rect width="480" height="1" fill="#000000"/>
<rect y="359" width="480" height="1" fill="#000000"/>
<g transform="translate(0.000000,360.000000) scale(0.100000,-0.100000)"
fill="#000000" stroke="none">
<path d="M0 2854 l0 -746 37 6 c185 29 505 35 733 15 126 -11 380 -45 413 -55
11 -3 19 1 23 13 21 67 40 95 84 123 26 16 53 30 60 30 9 0 11 13 8 50 -3 28
-7 52 -9 54 -2 2 -37 -3 -76 -12 -55 -11 -79 -13 -95 -5 -13 6 -31 14 -40 17
-46 14 2 105 118 224 l92 94 -9 92 c-16 164 -12 274 12 323 34 70 193 205 265
224 19 6 34 14 34 19 0 16 104 68 198 100 118 39 198 42 262 10 25 -12 90 -55
146 -95 100 -72 101 -73 134 -59 81 34 241 74 298 74 92 0 110 -27 72 -105
-18 -37 -137 -164 -200 -213 l-24 -20 89 -97 c49 -53 95 -99 102 -102 7 -3 13
-10 13 -15 0 -6 -7 -7 -16 -4 -9 3 -12 2 -9 -5 4 -6 -3 -7 -19 -3 -30 7 -31 5
-13 -39 9 -21 11 -50 7 -82 -6 -49 -6 -49 -14 -17 -8 35 -21 43 -23 15 -7 -70
-32 -115 -34 -60 0 21 -1 21 -10 -3 -6 -14 -22 -37 -36 -52 -24 -25 -25 -30
-13 -57 7 -17 27 -39 46 -50 42 -25 43 -49 4 -86 -23 -22 -30 -37 -28 -62 1
-19 -5 -40 -15 -51 -9 -10 -17 -23 -17 -28 0 -9 -24 -62 -66 -147 -13 -26 -24
-58 -24 -71 0 -41 -32 -125 -57 -151 -14 -13 -43 -30 -65 -37 l-40 -14 50 -49
c38 -39 72 -60 153 -94 57 -25 144 -64 193 -87 l89 -43 29 22 29 22 92 -49
c51 -27 101 -57 113 -67 11 -11 26 -19 34 -19 19 0 176 -78 190 -95 7 -8 10
-26 6 -40 -6 -23 2 -30 85 -83 50 -31 155 -101 232 -154 l141 -97 57 6 c56 6
57 5 73 -26 13 -24 23 -31 46 -31 29 0 70 -38 70 -66 0 -7 10 -16 23 -20 33
-10 57 -34 57 -59 0 -13 7 -28 15 -35 8 -7 15 -26 15 -43 0 -25 21 -51 123
-156 168 -174 351 -395 415 -503 16 -27 20 -28 94 -28 l78 0 0 1800 0 1800
-2400 0 -2400 0 0 -746z"/>
<path d="M225 1873 c-16 -2 -74 -8 -127 -14 l-98 -11 0 -924 0 -924 925 0 924
0 11 37 c5 21 13 54 16 73 7 44 -19 333 -47 514 -21 133 -23 140 -60 183 -40
45 -56 83 -44 103 4 6 1 18 -6 26 -9 11 -10 44 -4 132 11 148 10 160 -6 197
l-13 30 -6 -47 c-7 -56 -20 -75 -20 -30 0 32 -14 44 -23 20 -10 -30 -18 240
-8 291 6 29 11 55 11 56 0 1 -26 5 -57 8 -75 8 -180 61 -259 131 -60 54 -61
54 -185 80 -288 59 -698 89 -924 69z"/>
<path d="M2675 1203 c9 -20 18 -39 22 -42 5 -6 3 2 -13 59 -3 11 -10 20 -15
20 -5 0 -2 -17 6 -37z"/>
<path d="M3162 948 l-30 -53 60 -62 61 -61 -31 -39 c-16 -21 -42 -49 -56 -62
-14 -14 -26 -28 -26 -33 0 -19 229 -1 357 27 18 4 81 91 71 99 -42 36 -354
236 -367 236 -5 0 -23 -24 -39 -52z"/>
<path d="M3839 411 c-61 -61 -67 -70 -78 -131 -17 -85 -43 -144 -74 -165 -31
-20 -49 -16 -241 55 -159 59 -246 76 -476 94 -96 8 -182 18 -191 21 -12 5 -32
-13 -73 -65 l-56 -72 0 -74 0 -74 856 0 856 0 -28 37 c-85 115 -398 445 -419
441 -5 -1 -40 -31 -76 -67z"/>
</g>
</svg>
