<?xml version="1.0" standalone="no"?>
<!DOCTYPE svg PUBLIC "-//W3C//DTD SVG 20010904//EN"
 "http://www.w3.org/TR/2001/REC-SVG-20010904/DTD/svg10.dtd">
<svg version="1.0" xmlns="http://www.w3.org/2000/svg"
 width="480.000000pt" height="360.000000pt" viewBox="0 0 480.000000 360.000000"
 preserveAspectRatio="xMidYMid meet">
<metadata>
Created by potrace 1.16, written by Peter Selinger 2001-2019
</metadata>
<rect width="1" height="360" fill="#000000"/>
<rect x="479" width="1" height="360" fill="#000000"/>
<rect width="480" height="1" fill="#000000"/>
<rect y="359" width="480" height="1" fill="#000000"/>
<g transform="translate(0.000000,360.000000) scale(0.100000,-0.100000)"
fill="#000000" stroke="none">
<path d="M0 3373 c1 -245 8 -292 48 -324 38 -30 122 -24 398 26 136 25 157 31
239 69 69 32 254 41 580 27 298 -13 976 -38 1420 -51 176 -6 330 -12 341 -15
12 -3 29 -16 39 -31 16 -25 16 -27 -6 -50 -12 -13 -30 -24 -40 -24 -9 0 -43
-25 -75 -54 l-58 -55 2 -95 c2 -142 49 -230 132 -247 165 -35 244 -40 715 -45
264 -3 484 -10 490 -15 5 -5 20 -9 32 -9 13 0 41 -9 63 -20 48 -25 57 -50 65
-195 3 -60 10 -144 16 -185 12 -86 56 -237 76 -261 7 -8 13 -20 13 -26 0 -21
99 -161 160 -227 73 -78 90 -89 125 -80 l25 6 0 1054 0 1054 -1174 0 -1175 0
-26 -24 c-24 -22 -36 -24 -181 -31 -166 -8 -234 -5 -694 27 -237 17 -418 22
-923 25 l-628 4 1 -228z"/>
<path d="M2440 2346 c-5 -15 -10 -53 -10 -85 0 -43 -5 -62 -18 -74 -10 -9 -75
-37 -145 -61 -165 -59 -216 -86 -274 -144 -68 -69 -88 -128 -87 -262 1 -123
18 -203 75 -344 48 -120 102 -209 178 -293 104 -115 199 -173 295 -180 34 -2
91 -11 129 -21 57 -13 78 -14 136 -4 103 17 173 47 250 107 39 30 84 61 100
70 49 25 81 65 121 150 138 295 103 724 -76 915 -88 95 -193 128 -347 111
-118 -13 -277 -20 -277 -12 -1 3 -5 26 -11 51 -24 115 -24 114 -39 76z"/>
</g>
</svg>
