<?xml version="1.0" standalone="no"?>
<!DOCTYPE svg PUBLIC "-//W3C//DTD SVG 20010904//EN"
 "http://www.w3.org/TR/2001/REC-SVG-20010904/DTD/svg10.dtd">
<svg version="1.0" xmlns="http://www.w3.org/2000/svg"
 width="480.000000pt" height="360.000000pt" viewBox="0 0 480.000000 360.000000"
 preserveAspectRatio="xMidYMid meet">
<metadata>
Created by potrace 1.16, written by Peter Selinger 2001-2019
</metadata>
<rect width="1" height="360" fill="#000000"/>
<rect x="479" width="1" height="360" fill="#000000"/>
<rect width="480" height="1" fill="#000000"/>
<rect y="359" width="480" height="1" fill="#000000"/>
<g transform="translate(0.000000,360.000000) scale(0.100000,-0.100000)"
fill="#000000" stroke="none">
<path d="M0 1800 l0 -1800 1018 0 1017 0 -9 95 -10 95 -35 10 c-67 19 -151
117 -177 206 -19 68 -7 133 36 193 25 34 28 44 20 73 -15 51 -12 72 15 112 20
29 23 41 15 57 -6 10 -15 19 -20 19 -11 0 -17 33 -30 163 l-11 108 30 34 c17
19 33 52 36 72 19 108 35 135 87 148 34 9 36 21 39 190 4 206 8 236 30 242 21
6 24 14 39 114 11 72 33 141 55 175 12 18 12 29 0 70 -7 27 -27 110 -44 184
-17 74 -62 268 -99 430 l-68 296 13 94 c16 128 25 154 50 158 24 4 92 -71 122
-133 13 -27 43 -191 90 -491 39 -248 71 -456 71 -462 0 -7 16 -18 36 -27 40
-17 44 -48 6 -53 -21 -3 -32 -22 -12 -22 17 0 50 -43 50 -66 0 -13 5 -26 11
-30 13 -7 5 -89 -13 -139 -8 -23 -6 -53 10 -130 l20 -100 1 958 1 957 -1195 0
-1195 0 0 -1800z"/>
<path d="M2363 1614 c-25 -27 -59 -31 -89 -9 -21 14 -21 13 -28 -47 -3 -34 -4
-63 -2 -66 3 -2 18 6 35 19 24 18 37 21 70 15 l41 -6 0 60 c0 33 -1 60 -2 59
-2 -1 -13 -12 -25 -25z"/>
<path d="M2390 750 l0 -750 269 0 c193 0 270 3 273 11 3 9 9 9 25 0 12 -6 46
-11 77 -11 l55 0 -9 29 c-4 16 -16 45 -25 65 -15 32 -21 37 -43 31 -76 -19
-77 -19 -90 18 -9 25 -35 52 -87 91 -43 32 -75 64 -75 74 0 9 10 42 21 72 40
103 24 217 -40 274 -12 11 -21 28 -21 39 0 19 1 20 20 2 24 -22 26 -8 5 41
-14 34 -14 36 5 41 23 6 26 21 6 29 -25 10 -26 34 -5 77 28 55 48 77 71 77 21
0 19 19 -9 74 -11 22 -12 30 -3 36 14 9 -20 97 -58 148 -13 18 -29 54 -35 79
-11 44 -17 49 -95 96 -50 30 -96 50 -115 51 -18 1 -48 13 -68 29 -20 15 -39
27 -42 27 -4 0 -7 -337 -7 -750z m304 -135 c35 -23 76 -90 76 -125 0 -16 -4
-30 -10 -30 -5 0 -10 4 -10 9 0 23 -56 61 -106 72 -55 12 -59 15 -48 44 6 14
8 14 25 -1 18 -16 19 -16 30 14 13 37 12 37 43 17z"/>
<path d="M1865 556 c-50 -76 -40 -132 36 -208 84 -85 124 -76 112 23 -3 30
-14 71 -25 92 -20 41 -85 117 -99 117 -5 0 -16 -11 -24 -24z"/>
</g>
</svg>
