<?xml version="1.0" standalone="no"?>
<!DOCTYPE svg PUBLIC "-//W3C//DTD SVG 20010904//EN"
 "http://www.w3.org/TR/2001/REC-SVG-20010904/DTD/svg10.dtd">
<svg version="1.0" xmlns="http://www.w3.org/2000/svg"
 width="480.000000pt" height="360.000000pt" viewBox="0 0 480.000000 360.000000"
 preserveAspectRatio="xMidYMid meet">
<metadata>
Created by potrace 1.16, written by Peter Selinger 2001-2019
</metadata>
<rect width="1" height="360" fill="#000000"/>
<rect x="479" width="1" height="360" fill="#000000"/>
<rect width="480" height="1" fill="#000000"/>
<rect y="359" width="480" height="1" fill="#000000"/>
<g transform="translate(0.000000,360.000000) scale(0.100000,-0.100000)"
fill="#000000" stroke="none">
<path d="M0 1800 l0 -1800 458 0 457 0 24 45 c95 179 395 359 736 440 39 9 86
20 105 25 19 4 87 16 150 26 63 9 118 20 123 24 4 3 14 35 21 71 8 35 21 91
29 124 16 67 38 177 60 306 14 77 14 91 -1 135 -8 27 -19 51 -23 54 -4 3 -7
16 -7 30 0 14 -2 52 -4 85 -3 36 0 73 7 91 15 36 4 67 -16 47 -20 -20 -41 10
-29 42 12 31 53 50 130 60 30 4 69 15 85 25 56 33 81 33 154 0 38 -16 83 -30
101 -30 17 0 44 -7 60 -15 24 -13 30 -22 30 -50 0 -34 -15 -55 -23 -33 -3 10
-7 10 -17 1 -9 -9 -10 -16 -3 -25 6 -7 14 -29 18 -48 4 -19 16 -54 26 -77 24
-54 24 -83 0 -90 -28 -7 -35 -62 -17 -148 4 -16 10 -64 15 -105 7 -66 38 -206
87 -396 l16 -61 82 -12 c307 -46 586 -140 775 -261 91 -58 223 -192 242 -245
l13 -35 468 0 468 0 0 1800 0 1800 -2400 0 -2400 0 0 -1800z"/>
<path d="M1944 430 c-215 -50 -381 -123 -504 -223 -62 -50 -150 -163 -150
-193 0 -12 58 -14 370 -14 l370 0 0 23 c0 12 13 85 29 163 22 110 27 152 20
190 -4 27 -8 55 -8 62 -1 16 -29 14 -127 -8z"/>
<path d="M2732 378 c-7 -40 -13 -80 -14 -88 -1 -8 12 -77 27 -152 l29 -138
363 0 c200 0 363 3 363 7 0 14 -55 100 -89 138 -110 124 -282 212 -537 275
-67 17 -123 30 -126 30 -2 0 -10 -33 -16 -72z"/>
</g>
</svg>
