<?xml version="1.0" standalone="no"?>
<!DOCTYPE svg PUBLIC "-//W3C//DTD SVG 20010904//EN"
 "http://www.w3.org/TR/2001/REC-SVG-20010904/DTD/svg10.dtd">
<svg version="1.0" xmlns="http://www.w3.org/2000/svg"
 width="480.000000pt" height="360.000000pt" viewBox="0 0 480.000000 360.000000"
 preserveAspectRatio="xMidYMid meet">
<metadata>
Created by potrace 1.16, written by Peter Selinger 2001-2019
</metadata>
<rect width="1" height="360" fill="#000000"/>
<rect x="479" width="1" height="360" fill="#000000"/>
<rect width="480" height="1" fill="#000000"/>
<rect y="359" width="480" height="1" fill="#000000"/>
<g transform="translate(0.000000,360.000000) scale(0.100000,-0.100000)"
fill="#000000" stroke="none">
<path d="M0 1800 l0 -1800 918 0 917 1 40 39 c22 22 42 40 46 40 7 0 127 214
152 270 8 19 69 100 136 180 66 80 117 146 112 148 -5 2 -73 -19 -152 -45
l-144 -48 2 -49 c1 -34 -1 -45 -8 -35 -5 8 -9 29 -9 48 0 30 -2 33 -22 27 -13
-4 -48 -9 -78 -12 -47 -5 -58 -3 -78 16 -13 12 -21 27 -19 33 2 7 46 24 97 40
52 15 99 32 104 37 6 6 2 18 -13 34 -19 20 -21 28 -12 45 15 26 43 27 66 1 17
-19 15 -50 -5 -50 -5 0 -10 -5 -10 -11 0 -16 43 -4 212 62 181 71 192 77 218
129 l21 40 -23 9 c-55 20 -65 21 -78 6 -29 -35 -86 -4 -78 42 2 12 -11 23 -47
37 -254 101 -300 123 -303 143 -5 35 21 46 59 24 38 -21 248 -105 292 -116 22
-6 32 -3 43 14 25 35 74 21 74 -21 0 -13 15 -25 46 -38 25 -11 50 -20 54 -20
13 0 91 79 113 112 23 36 22 65 -3 73 -25 8 -25 11 6 79 15 33 28 84 31 119 3
34 14 78 24 98 18 36 18 37 -3 55 -11 11 -27 34 -35 53 -13 31 -13 37 11 85
l26 51 -23 19 c-12 10 -21 26 -19 36 4 22 -12 33 -66 49 -24 7 -46 19 -49 27
-3 8 -11 14 -19 14 -16 0 -17 32 -5 99 l9 44 -147 -7 c-156 -8 -577 -39 -735
-56 -53 -5 -139 -14 -191 -20 -52 -5 -129 -17 -171 -26 -42 -8 -79 -13 -82
-10 -8 8 28 46 60 62 101 52 452 95 1108 134 203 13 241 20 268 54 9 13 29 25
42 29 68 16 121 32 178 54 44 17 78 23 115 21 l52 -3 -3 -42 c-5 -71 41 -120
81 -85 15 14 23 14 55 2 20 -7 72 -13 116 -12 75 0 81 -1 109 -29 29 -30 30
-31 24 -112 -6 -90 -24 -164 -36 -151 -9 10 -41 167 -41 200 0 12 -10 25 -23
31 -33 15 -69 -3 -110 -57 -34 -44 -34 -44 -17 -75 11 -19 20 -64 24 -121 l7
-91 -52 -62 c-29 -33 -56 -61 -61 -61 -4 0 -17 -9 -28 -20 -20 -20 -20 -29
-14 -233 3 -116 9 -215 12 -219 4 -3 93 34 197 84 105 49 197 92 206 95 15 4
19 -3 56 -93 2 -7 -95 -55 -239 -119 -134 -59 -246 -110 -251 -114 -6 -6 29
-131 37 -131 1 0 40 -12 87 -26 46 -14 179 -50 294 -79 215 -55 244 -69 194
-96 -45 -24 -246 11 -506 87 -14 4 -23 2 -23 -4 0 -16 65 -99 144 -183 187
-201 236 -258 236 -278 0 -28 -32 -91 -59 -115 -12 -11 -21 -25 -21 -31 0 -16
-64 -65 -84 -65 -8 0 -37 -12 -63 -26 -35 -19 -56 -24 -80 -19 -20 4 -33 2
-33 -5 0 -7 256 -10 820 -10 l820 0 0 1800 0 1800 -937 0 -938 0 66 -43 c145
-93 249 -188 494 -448 117 -124 161 -153 296 -198 96 -32 174 -83 289 -191 56
-52 111 -99 123 -104 12 -4 32 -12 45 -17 18 -7 21 -12 13 -28 -14 -25 -52
-31 -93 -14 -18 8 -73 54 -123 102 -49 49 -104 95 -121 104 -17 9 -80 23 -140
31 -205 29 -255 58 -544 311 -182 159 -328 252 -405 258 -24 2 -29 -4 -46 -49
-26 -70 -88 -137 -154 -168 -42 -21 -69 -26 -127 -26 -95 0 -156 28 -223 102
-83 91 -106 201 -66 321 l18 57 -1113 0 -1114 0 0 -1800z m3250 1770 c0 -5 -4
-10 -10 -10 -5 0 -10 5 -10 10 0 6 5 10 10 10 6 0 10 -4 10 -10z m1126 -127
c-10 -10 -19 5 -10 18 6 11 8 11 12 0 2 -7 1 -15 -2 -18z m385 -834 c16 -11
29 -25 29 -31 0 -6 -8 -4 -17 5 -10 8 -30 19 -46 22 -34 9 -45 25 -17 25 12 0
35 -9 51 -21z m-3994 -385 c18 -14 33 -33 33 -43 0 -10 7 -24 15 -31 19 -15
19 -39 1 -63 -10 -13 -12 -27 -5 -50 6 -22 5 -35 -5 -46 -9 -11 -13 -39 -11
-91 l3 -75 56 -51 c48 -44 56 -56 56 -87 0 -35 -1 -36 -55 -47 -30 -6 -57 -15
-60 -20 -7 -11 76 -285 115 -380 21 -51 27 -77 20 -84 -7 -7 -15 -7 -24 -1
-77 57 -96 57 -96 0 0 -27 8 -44 30 -67 17 -17 29 -32 27 -35 -3 -2 -69 -15
-148 -29 -79 -13 -211 -36 -294 -50 -172 -29 -385 -38 -407 -16 -18 18 1 28
71 37 31 4 81 17 111 30 34 14 87 25 140 29 47 4 116 9 153 12 l68 6 -3 31
c-2 25 -9 32 -34 39 -18 4 -35 15 -38 23 -3 9 5 49 19 89 14 41 28 112 31 159
6 80 5 86 -15 98 -26 17 -26 25 -2 80 l20 43 -25 29 c-31 37 -30 52 5 140 46
116 62 179 49 194 -5 7 -7 23 -4 35 4 13 11 54 15 91 10 75 27 102 75 116 52
15 78 12 113 -15z m3863 -764 c0 -5 -4 -10 -10 -10 -5 0 -10 5 -10 10 0 6 5
10 10 10 6 0 10 -4 10 -10z"/>
<path d="M636 1132 c-3 -5 4 -22 15 -36 17 -22 28 -26 58 -24 30 2 35 6 33 23
-2 11 -7 23 -10 26 -12 12 -90 21 -96 11z"/>
<path d="M2080 83 c-30 -35 -56 -68 -58 -74 -2 -5 96 -9 248 -9 165 0 249 3
245 10 -3 5 -17 10 -30 10 -13 0 -31 7 -40 16 -12 13 -19 14 -30 4 -12 -10
-26 -7 -70 15 -31 15 -62 24 -69 22 -8 -3 -22 1 -33 8 -10 8 -13 15 -8 15 6 0
-5 7 -23 15 -18 8 -31 19 -28 23 3 5 -7 9 -22 9 -21 1 -39 -13 -82 -64z"/>
<path d="M2565 10 c-4 -6 5 -10 20 -10 15 0 24 4 20 10 -8 13 -32 13 -40 0z"/>
</g>
</svg>
