<?xml version="1.0" standalone="no"?>
<!DOCTYPE svg PUBLIC "-//W3C//DTD SVG 20010904//EN"
 "http://www.w3.org/TR/2001/REC-SVG-20010904/DTD/svg10.dtd">
<svg version="1.0" xmlns="http://www.w3.org/2000/svg"
 width="480.000000pt" height="360.000000pt" viewBox="0 0 480.000000 360.000000"
 preserveAspectRatio="xMidYMid meet">
<metadata>
Created by potrace 1.16, written by Peter Selinger 2001-2019
</metadata>
<rect width="1" height="360" fill="#000000"/>
<rect x="479" width="1" height="360" fill="#000000"/>
<rect width="480" height="1" fill="#000000"/>
<rect y="359" width="480" height="1" fill="#000000"/>
<g transform="translate(0.000000,360.000000) scale(0.100000,-0.100000)"
fill="#000000" stroke="none">
<path d="M1926 3433 c-20 -21 -34 -44 -31 -51 3 -8 2 -19 -2 -25 -5 -7 -9 -25
-9 -42 -3 -61 -15 -191 -19 -211 -3 -12 -1 -24 2 -28 4 -4 9 -28 10 -54 2 -25
9 -50 16 -54 11 -8 73 -3 127 9 22 6 20 1 -22 -48 -26 -30 -64 -77 -84 -105
-46 -67 -38 -86 43 -106 l57 -14 -3 -104 c-1 -58 2 -127 8 -155 5 -27 12 -84
16 -126 l7 -76 -51 -36 c-72 -52 -97 -96 -115 -202 -9 -49 -22 -110 -29 -135
l-13 -45 -51 3 c-29 1 -54 -2 -58 -8 -4 -6 3 -39 14 -73 l21 -63 -70 -185
c-39 -101 -109 -263 -156 -359 l-84 -175 16 -90 c9 -50 20 -135 24 -190 23
-278 42 -378 83 -429 l24 -29 -29 -106 c-15 -58 -28 -109 -28 -113 0 -5 337
-8 749 -8 l749 0 -80 172 c-44 95 -96 207 -115 248 -59 126 -74 169 -114 328
-21 84 -50 179 -64 210 -23 50 -27 75 -33 197 -10 231 -7 293 17 380 13 44 26
83 29 87 4 4 7 -102 8 -235 1 -414 55 -666 195 -912 62 -109 197 -304 221
-318 13 -9 15 -20 11 -61 -5 -36 -3 -47 5 -42 7 4 12 23 12 42 0 41 14 44 35
7 15 -26 14 -16 -1 22 -4 9 1 17 10 21 55 21 60 139 12 301 -32 111 -32 112
-13 131 15 15 20 39 24 105 5 80 4 89 -22 133 l-27 46 22 48 c21 45 21 48 5
79 -9 19 -18 64 -20 104 -11 226 -16 315 -20 337 -3 14 -7 44 -10 67 -23 194
-102 400 -233 610 -57 91 -78 143 -61 153 7 5 8 36 1 106 -6 54 -8 103 -5 107
3 4 -2 22 -10 40 -23 48 -3 140 34 163 11 6 10 1 -9 -56 -2 -8 2 -6 10 5 23
31 38 84 38 132 0 37 5 48 35 75 20 17 43 45 51 62 8 17 25 51 38 76 45 82 96
200 96 220 0 50 -18 68 -86 89 -92 29 -218 42 -295 31 -35 -5 -68 -10 -72 -10
-4 0 -19 -12 -32 -26 l-24 -26 -31 25 c-34 29 -101 43 -160 33 -30 -5 -40 -3
-40 7 0 40 -153 119 -274 142 -116 22 -129 21 -170 -22z m684 -1132 c0 -21
-16 -2 -24 29 -7 24 -6 24 8 6 9 -11 16 -27 16 -35z m-530 -43 c0 -5 -7 -8
-15 -8 -10 0 -15 10 -15 27 0 26 1 26 15 7 8 -10 15 -22 15 -26z m896 -716 c3
-20 6 -44 9 -52 2 -8 7 -37 10 -65 4 -39 3 -46 -5 -32 -13 20 -15 32 -25 122
-3 33 -8 69 -11 80 -5 19 -4 19 6 2 7 -10 14 -35 16 -55z"/>
</g>
</svg>
