<?xml version="1.0" standalone="no"?>
<!DOCTYPE svg PUBLIC "-//W3C//DTD SVG 20010904//EN"
 "http://www.w3.org/TR/2001/REC-SVG-20010904/DTD/svg10.dtd">
<svg version="1.0" xmlns="http://www.w3.org/2000/svg"
 width="480.000000pt" height="360.000000pt" viewBox="0 0 480.000000 360.000000"
 preserveAspectRatio="xMidYMid meet">
<metadata>
Created by potrace 1.16, written by Peter Selinger 2001-2019
</metadata>
<rect width="1" height="360" fill="#000000"/>
<rect x="479" width="1" height="360" fill="#000000"/>
<rect width="480" height="1" fill="#000000"/>
<rect y="359" width="480" height="1" fill="#000000"/>
<g transform="translate(0.000000,360.000000) scale(0.100000,-0.100000)"
fill="#000000" stroke="none">
<path d="M0 1800 l0 -1800 149 0 148 0 9 118 c4 64 8 162 8 217 0 109 -3 117
-133 432 -62 151 -95 261 -123 418 -20 107 -22 154 -23 435 0 253 4 338 18
435 34 224 82 408 169 647 l50 138 -31 37 c-17 21 -31 45 -31 55 0 30 45 51
98 46 91 -9 523 -199 571 -251 31 -34 384 -173 904 -356 176 -62 193 -67 210
-52 17 14 17 15 -4 23 -20 8 -20 10 -6 26 8 9 25 40 36 68 l20 52 -22 6 c-12
3 -32 6 -44 6 -14 0 -23 6 -23 15 0 12 -13 15 -60 15 l-61 0 26 27 c14 15 25
35 25 45 0 9 10 20 23 24 12 4 92 78 177 165 157 159 247 228 359 272 42 17
45 17 80 -1 36 -18 101 -39 196 -61 70 -17 130 -49 185 -98 54 -48 95 -142
125 -281 17 -85 16 -103 -8 -83 -11 9 -16 3 -26 -29 -11 -37 -61 -87 -74 -74
-3 3 -15 -1 -27 -9 -12 -8 -30 -13 -41 -10 -23 6 -26 -25 -6 -58 9 -16 9 -23
0 -26 -6 -2 -44 -36 -85 -74 -48 -45 -79 -68 -90 -65 -11 2 -18 -2 -18 -9 0
-16 51 -55 72 -55 28 -1 105 -43 143 -79 37 -36 55 -43 240 -95 377 -105 468
-127 479 -116 15 15 37 12 59 -7 18 -17 20 -17 37 5 22 27 46 28 62 3 9 -15
16 -17 31 -10 14 8 23 7 35 -4 9 -8 26 -17 37 -19 12 -2 21 -13 23 -26 4 -25
17 -29 26 -7 9 25 34 17 51 -15 9 -17 18 -30 21 -30 4 0 74 -16 158 -36 127
-30 660 -144 672 -144 2 0 4 461 4 1025 l0 1025 -2400 0 -2400 0 0 -1800z"/>
<path d="M710 2498 c-88 -210 -146 -369 -168 -463 -40 -173 -82 -528 -82 -701
0 -145 48 -366 145 -674 74 -232 75 -244 30 -350 -72 -167 -94 -228 -101 -269
l-7 -41 350 0 350 0 77 74 c42 41 122 111 178 156 93 75 166 126 468 322 183
119 244 177 411 394 5 6 6 32 3 58 -7 45 -11 50 -108 130 -134 110 -193 175
-201 219 -11 56 19 137 89 241 61 92 63 96 58 149 -4 49 -1 57 27 89 29 34 30
38 24 101 -4 51 -2 77 12 112 22 58 11 70 -24 28 -34 -41 -44 -42 -36 -3 7 31
-2 39 -23 18 -10 -10 -17 -10 -32 -1 -16 11 -22 8 -39 -15 -16 -21 -23 -24
-30 -13 -5 7 -13 11 -19 7 -5 -3 -13 10 -16 29 -6 32 -9 34 -28 24 -20 -11
-20 -9 -13 27 l7 39 -23 -20 c-12 -11 -19 -14 -15 -7 4 6 3 12 -3 12 -6 0 -8
6 -5 14 3 9 -9 18 -38 28 -182 64 -683 252 -921 347 -73 29 -138 49 -158 48
-19 0 -46 3 -60 7 -26 7 -28 5 -79 -116z"/>
<path d="M2390 2235 c-8 -9 -8 -15 -2 -15 12 0 26 19 19 26 -2 2 -10 -2 -17
-11z"/>
<path d="M2917 1894 c-13 -14 -7 -65 11 -92 10 -15 36 -54 59 -87 55 -82 67
-124 60 -204 -9 -90 -4 -96 64 -73 30 11 137 41 239 67 102 26 195 54 208 61
23 15 29 57 16 122 -6 28 -11 31 -108 57 -130 35 -506 142 -527 150 -8 3 -18
2 -22 -1z"/>
<path d="M3895 1573 c-42 -68 -125 -145 -192 -180 -98 -52 -525 -207 -603
-219 -24 -4 -57 0 -90 11 -28 9 -52 15 -54 14 -16 -25 -26 -71 -26 -117 0 -55
2 -60 44 -105 47 -50 57 -76 42 -118 -12 -34 32 -118 123 -230 75 -92 161
-233 161 -262 0 -16 -7 -18 -50 -15 -41 2 -49 0 -44 -12 8 -21 81 -279 88
-312 l6 -28 750 0 750 0 -2 681 -3 681 -75 24 c-189 61 -775 234 -792 234 -2
0 -16 -21 -33 -47z"/>
<path d="M2291 1439 l-34 -41 48 -47 47 -46 -6 80 c-3 43 -10 83 -14 87 -5 5
-23 -10 -41 -33z"/>
</g>
</svg>
