<?xml version="1.0" standalone="no"?>
<!DOCTYPE svg PUBLIC "-//W3C//DTD SVG 20010904//EN"
 "http://www.w3.org/TR/2001/REC-SVG-20010904/DTD/svg10.dtd">
<svg version="1.0" xmlns="http://www.w3.org/2000/svg"
 width="480.000000pt" height="360.000000pt" viewBox="0 0 480.000000 360.000000"
 preserveAspectRatio="xMidYMid meet">
<metadata>
Created by potrace 1.16, written by Peter Selinger 2001-2019
</metadata>
<rect width="1" height="360" fill="#000000"/>
<rect x="479" width="1" height="360" fill="#000000"/>
<rect width="480" height="1" fill="#000000"/>
<rect y="359" width="480" height="1" fill="#000000"/>
<g transform="translate(0.000000,360.000000) scale(0.100000,-0.100000)"
fill="#000000" stroke="none">
<path d="M2137 3149 c-178 -42 -309 -243 -295 -450 l5 -70 -41 -35 c-27 -23
-47 -33 -61 -30 -25 6 -37 -2 -53 -37 -6 -15 -23 -32 -37 -39 -14 -6 -25 -16
-25 -21 0 -5 27 -40 61 -78 58 -65 92 -84 101 -57 3 7 17 -9 32 -35 39 -65 29
-111 -41 -188 -31 -34 -33 -39 -15 -39 48 0 53 -8 32 -61 -11 -27 -17 -49 -13
-49 4 0 22 14 40 31 l32 32 17 -42 c9 -22 20 -41 24 -41 4 0 11 17 15 37 l7
37 46 -80 c34 -57 47 -74 50 -60 4 18 5 18 23 -5 l19 -24 0 26 c0 38 12 43 26
12 8 -17 13 -22 13 -11 1 25 34 11 54 -23 l17 -30 -43 -19 c-23 -10 -82 -23
-132 -29 -113 -15 -184 -35 -219 -62 -35 -27 -69 -95 -111 -222 l-34 -102 -73
-27 c-92 -34 -94 -34 -110 0 l-14 27 -144 -3 c-239 -6 -295 14 -529 192 -91
69 -171 120 -255 161 l-121 60 -3 40 c-4 62 -8 69 -32 52 -11 -8 -43 -43 -72
-78 -76 -96 -201 -240 -242 -278 l-36 -35 0 -280 0 -281 53 88 c75 125 102
157 136 157 31 0 57 -24 91 -87 13 -24 27 -43 31 -43 4 0 10 23 14 50 7 53 25
80 53 80 32 0 121 -49 166 -90 30 -28 48 -53 52 -76 3 -19 10 -34 15 -34 5 0
31 14 58 30 54 34 152 70 188 70 39 0 109 -39 173 -96 43 -38 65 -51 77 -47
10 4 74 45 143 91 134 91 293 172 376 192 46 12 54 11 77 -6 33 -24 33 -26 2
-62 -32 -38 -31 -48 1 -56 18 -5 24 -11 19 -25 -4 -12 2 -21 21 -30 l27 -12
-6 -174 -6 -173 33 -29 c18 -15 40 -32 50 -38 14 -9 15 -19 7 -84 -10 -76 -19
-91 -60 -91 -25 0 -91 -36 -91 -50 0 -4 15 -17 34 -28 25 -15 38 -32 47 -63
15 -47 19 -37 -80 -199 -28 -47 -51 -88 -51 -92 0 -5 254 -8 565 -8 318 0 565
4 565 9 0 5 -8 26 -17 47 -22 51 -25 146 -7 189 20 48 18 60 -17 100 -50 57
-73 177 -63 330 5 66 8 157 7 203 -2 45 1 82 5 82 5 0 21 -64 36 -142 43 -218
55 -238 136 -238 51 0 103 23 131 59 19 23 21 35 16 106 -4 44 -18 124 -32
179 -14 54 -25 102 -23 108 2 5 39 -21 82 -59 121 -105 114 -103 174 -60 126
93 205 89 336 -14 27 -22 52 -39 57 -39 4 0 14 12 21 27 26 54 103 90 217 100
l64 6 -6 -59 c-5 -57 -5 -58 11 -35 36 52 91 101 111 101 34 0 67 -40 116
-141 25 -51 50 -98 56 -106 16 -18 43 -17 146 8 108 26 131 23 311 -36 76 -25
142 -45 145 -45 4 0 7 13 7 28 0 31 -30 62 -200 209 -133 115 -338 325 -412
423 -31 41 -89 127 -128 190 -103 165 -114 175 -126 116 -8 -48 -26 -60 -129
-91 -101 -31 -150 -54 -280 -131 -175 -104 -294 -136 -420 -112 -65 12 -70 15
-75 43 -14 65 -106 218 -171 283 -43 44 -67 56 -180 87 -102 29 -209 73 -209
86 0 5 15 32 32 61 l33 53 7 -49 c4 -26 9 -50 11 -52 2 -3 16 14 31 36 14 22
30 40 35 40 5 0 12 -19 16 -41 l7 -42 26 48 26 47 18 -38 18 -39 -3 43 c-3 44
1 50 21 30 9 -9 12 -9 12 3 0 8 6 24 14 34 13 19 15 18 47 -13 44 -43 54 -40
29 8 -31 62 -28 71 25 63 51 -7 56 0 20 29 -14 11 -37 40 -51 64 -26 44 -26
45 -8 59 24 18 37 18 53 3 10 -11 11 -5 6 27 -4 33 -1 45 20 70 l26 30 20 -27
c25 -33 44 -36 60 -7 16 31 4 73 -36 126 -63 83 -31 86 57 5 15 -14 30 -23 32
-21 12 11 36 127 36 170 l0 47 90 -5 c87 -5 90 -5 90 16 0 12 -12 34 -27 49
-15 15 -40 65 -60 120 -27 76 -34 110 -34 173 -1 88 -12 102 -65 74 -16 -8
-33 -15 -37 -15 -5 0 -23 -11 -41 -25 -18 -14 -37 -25 -41 -25 -5 0 -18 -8
-29 -19 -42 -38 -58 -34 -96 25 -42 67 -104 117 -179 145 -56 21 -389 69 -466
68 -22 -1 -57 -5 -78 -10z m33 -1249 c0 -5 -2 -10 -4 -10 -3 0 -8 5 -11 10 -3
6 -1 10 4 10 6 0 11 -4 11 -10z"/>
</g>
</svg>
