<?xml version="1.0" standalone="no"?>
<!DOCTYPE svg PUBLIC "-//W3C//DTD SVG 20010904//EN"
 "http://www.w3.org/TR/2001/REC-SVG-20010904/DTD/svg10.dtd">
<svg version="1.0" xmlns="http://www.w3.org/2000/svg"
 width="480.000000pt" height="360.000000pt" viewBox="0 0 480.000000 360.000000"
 preserveAspectRatio="xMidYMid meet">
<metadata>
Created by potrace 1.16, written by Peter Selinger 2001-2019
</metadata>
<rect width="1" height="360" fill="#000000"/>
<rect x="479" width="1" height="360" fill="#000000"/>
<rect width="480" height="1" fill="#000000"/>
<rect y="359" width="480" height="1" fill="#000000"/>
<g transform="translate(0.000000,360.000000) scale(0.100000,-0.100000)"
fill="#000000" stroke="none">
<path d="M2037 3114 c-4 -4 -7 -18 -7 -31 l0 -25 -35 22 c-38 23 -47 14 -15
-15 28 -25 25 -33 -12 -37 l-33 -3 38 -17 c62 -28 49 -38 -78 -65 -34 -7 -40
-12 -43 -36 -3 -27 -43 -57 -77 -57 -18 0 -19 -14 -2 -32 6 -8 18 -24 25 -36
12 -22 12 -23 -8 -12 -11 6 -30 8 -40 5 -19 -6 -19 -8 -5 -28 8 -12 15 -39 15
-60 0 -31 9 -50 40 -89 24 -31 40 -61 40 -78 0 -15 7 -49 15 -76 21 -69 31
-179 16 -188 -6 -4 -11 -17 -11 -29 0 -13 -7 -33 -16 -45 -9 -13 -14 -28 -11
-35 10 -26 -10 -52 -44 -57 -29 -4 -36 -11 -47 -43 -11 -35 -10 -42 7 -66 11
-15 23 -40 26 -57 20 -90 111 -224 151 -224 8 0 28 -7 44 -15 41 -21 84 -157
84 -266 0 -73 2 -77 28 -92 28 -16 38 -50 18 -62 -5 -3 -10 -19 -10 -34 0 -15
-8 -36 -18 -47 -17 -18 -38 -48 -74 -103 -10 -14 -36 -73 -59 -131 -62 -158
-117 -287 -160 -370 -74 -143 -90 -166 -214 -315 -76 -90 -123 -157 -182 -258
-2 -4 311 -7 696 -7 l700 0 11 55 c12 56 15 295 6 376 -3 24 -10 87 -16 139
-31 259 -64 420 -107 510 -14 30 -27 75 -28 100 -2 39 1 49 27 73 29 27 29 29
24 105 -3 42 -8 130 -11 195 -7 123 -24 200 -56 253 -10 17 -19 33 -19 35 0 2
37 5 82 6 46 1 94 2 108 3 14 1 77 -2 141 -6 80 -5 127 -3 152 5 42 14 97 72
97 103 0 11 -24 68 -54 127 -30 58 -68 146 -85 195 l-32 89 31 32 c24 24 30
40 30 73 0 42 -17 92 -32 92 -4 0 -8 5 -8 10 0 17 35 11 47 -9 6 -10 31 -30
55 -44 37 -21 51 -24 80 -18 20 5 47 6 61 4 38 -7 84 23 109 70 62 120 -17
342 -141 394 -30 13 -40 12 -100 -8 -77 -27 -131 -71 -131 -108 0 -48 -22
-104 -51 -133 -23 -24 -36 -29 -66 -26 -34 3 -38 6 -36 29 1 21 -5 28 -33 38
-19 7 -39 9 -45 6 -6 -4 -25 -9 -42 -11 -76 -8 -92 -16 -120 -60 -25 -39 -28
-48 -18 -76 6 -17 11 -36 11 -42 0 -16 -78 -58 -85 -46 -4 6 -8 37 -10 70 -3
56 -8 69 -50 126 -6 9 -3 20 13 37 29 31 46 87 27 87 -9 0 -16 18 -20 53 -9
70 -36 87 -142 93 -49 3 -82 9 -93 19 -11 10 -37 15 -72 15 -52 0 -56 2 -51
21 5 19 4 20 -16 7 -20 -11 -24 -11 -39 8 -9 12 -22 29 -27 39 -6 9 -13 13
-18 9z m793 -425 c0 -5 -4 -9 -10 -9 -5 0 -10 7 -10 16 0 8 5 12 10 9 6 -3 10
-10 10 -16z m160 -170 c0 -5 4 -8 8 -5 12 7 35 -37 30 -59 -3 -18 -54 -42 -64
-32 -3 3 -1 14 4 24 7 13 6 24 -4 38 -20 27 -17 45 6 45 11 0 20 -5 20 -11z
m-322 -93 c4 -18 -21 -46 -40 -46 -15 0 -26 44 -15 58 15 19 51 11 55 -12z
m-122 -57 c-4 -28 -13 -58 -21 -66 -15 -15 -14 -18 -30 61 -4 18 1 29 17 40
36 25 41 20 34 -35z"/>
<path d="M2521 2374 c0 -11 3 -14 6 -6 3 7 2 16 -1 19 -3 4 -6 -2 -5 -13z"/>
<path d="M4742 2925 c1 -36 -15 -65 -38 -65 -20 0 -17 -11 12 -45 14 -16 39
-46 55 -65 l29 -35 0 123 0 122 -30 0 c-27 0 -29 -3 -28 -35z"/>
<path d="M3816 2144 c-11 -8 -40 -14 -65 -14 -63 0 -195 -26 -246 -49 -58 -25
-70 -50 -50 -97 18 -43 14 -50 -25 -59 -42 -9 -45 -21 -7 -35 17 -7 41 -21 52
-30 21 -19 64 -29 129 -33 33 -2 46 -11 88 -57 42 -47 132 -182 176 -265 21
-40 59 -63 137 -81 65 -15 84 -16 142 -5 79 14 253 72 335 110 31 15 63 24 70
20 31 -17 95 -19 142 -5 43 13 52 13 70 0 11 -7 24 -14 28 -14 5 0 8 104 8
230 l0 230 -47 2 -48 1 45 6 c40 5 45 9 48 33 3 25 1 27 -25 23 -26 -5 -693
-72 -773 -77 -32 -3 -36 0 -57 45 -18 37 -28 47 -47 47 -19 0 -27 8 -36 38
-16 49 -21 53 -44 36z m812 -162 c15 -10 -85 -28 -203 -37 -44 -3 -147 -13
-230 -21 -202 -20 -205 -20 -205 -6 0 4 107 18 238 31 130 13 262 27 292 31
77 11 93 11 108 2z m-220 -88 c-25 -13 -32 -26 -31 -61 0 -6 -11 -14 -26 -18
-14 -3 -73 -29 -130 -57 l-104 -52 -26 32 c-44 53 -83 132 -69 137 21 7 287
32 353 33 59 1 59 1 33 -14z"/>
<path d="M4776 662 c-9 -10 -48 -81 -87 -158 -126 -245 -132 -258 -169 -314
-20 -30 -44 -66 -53 -80 -9 -14 -30 -44 -46 -67 l-31 -43 205 0 205 0 0 340
c0 187 -2 340 -3 340 -2 0 -11 -8 -21 -18z"/>
</g>
</svg>
