<?xml version="1.0" standalone="no"?>
<!DOCTYPE svg PUBLIC "-//W3C//DTD SVG 20010904//EN"
 "http://www.w3.org/TR/2001/REC-SVG-20010904/DTD/svg10.dtd">
<svg version="1.0" xmlns="http://www.w3.org/2000/svg"
 width="480.000000pt" height="360.000000pt" viewBox="0 0 480.000000 360.000000"
 preserveAspectRatio="xMidYMid meet">
<metadata>
Created by potrace 1.16, written by Peter Selinger 2001-2019
</metadata>
<rect width="1" height="360" fill="#000000"/>
<rect x="479" width="1" height="360" fill="#000000"/>
<rect width="480" height="1" fill="#000000"/>
<rect y="359" width="480" height="1" fill="#000000"/>
<g transform="translate(0.000000,360.000000) scale(0.100000,-0.100000)"
fill="#000000" stroke="none">
<path d="M1690 710 c-223 -12 -372 -29 -396 -45 -28 -18 -36 -95 -18 -184 30
-155 77 -231 206 -334 53 -42 102 -90 113 -111 l20 -36 392 0 392 0 21 48 c15
34 49 73 122 142 89 83 106 104 140 176 46 99 70 197 66 272 -3 52 -5 56 -33
65 -39 12 -823 17 -1025 7z"/>
</g>
</svg>
