<?xml version="1.0" standalone="no"?>
<!DOCTYPE svg PUBLIC "-//W3C//DTD SVG 20010904//EN"
 "http://www.w3.org/TR/2001/REC-SVG-20010904/DTD/svg10.dtd">
<svg version="1.0" xmlns="http://www.w3.org/2000/svg"
 width="480.000000pt" height="360.000000pt" viewBox="0 0 480.000000 360.000000"
 preserveAspectRatio="xMidYMid meet">
<metadata>
Created by potrace 1.16, written by Peter Selinger 2001-2019
</metadata>
<rect width="1" height="360" fill="#000000"/>
<rect x="479" width="1" height="360" fill="#000000"/>
<rect width="480" height="1" fill="#000000"/>
<rect y="359" width="480" height="1" fill="#000000"/>
<g transform="translate(0.000000,360.000000) scale(0.100000,-0.100000)"
fill="#000000" stroke="none">
<path d="M0 1800 l0 -1800 273 0 272 0 -3 157 c-2 100 -8 177 -18 210 -8 29
-65 153 -128 275 -151 300 -193 424 -235 699 -68 449 -40 860 88 1318 l29 105
-34 31 c-68 62 -29 112 79 102 120 -12 521 -148 568 -193 20 -19 95 -43 353
-114 234 -63 334 -86 346 -80 35 19 117 119 162 201 49 86 129 196 207 281 45
49 58 55 173 78 32 6 60 16 64 21 11 18 119 66 172 78 83 17 121 13 202 -22
65 -29 240 -140 240 -153 0 -3 -4 -3 -9 0 -5 4 -16 3 -25 0 -13 -5 -14 -9 -5
-20 16 -19 21 -88 9 -119 -5 -13 -21 -34 -35 -47 -34 -29 -32 -44 10 -59 33
-12 45 -35 28 -53 -4 -4 -8 -30 -9 -59 -1 -29 -2 -71 -3 -93 -1 -34 -6 -45
-29 -60 -15 -10 -40 -17 -55 -16 -25 2 -27 0 -17 -17 14 -28 13 -36 -5 -21
-13 11 -15 8 -15 -13 0 -36 69 -82 143 -96 75 -14 113 -34 167 -91 42 -42 52
-47 115 -58 39 -7 185 -32 325 -56 153 -27 259 -40 265 -35 14 14 52 11 69 -7
14 -14 17 -13 27 10 16 35 40 42 61 16 15 -18 20 -19 38 -8 18 11 23 10 34 -4
8 -11 20 -15 34 -11 17 4 24 -1 33 -23 11 -29 11 -29 20 -6 13 34 26 30 62
-20 9 -13 72 -24 297 -51 157 -20 317 -39 355 -42 39 -4 78 -9 87 -11 17 -5
18 39 18 835 l0 841 -2400 0 -2400 0 0 -1800z"/>
<path d="M781 2572 c-17 -34 -100 -300 -130 -417 -54 -217 -81 -546 -62 -767
21 -246 61 -396 181 -688 80 -194 110 -278 110 -311 0 -17 -20 -92 -45 -167
-25 -76 -48 -156 -52 -179 l-6 -43 291 0 c275 0 292 1 301 19 19 35 122 156
209 245 95 97 190 180 442 388 194 160 227 194 349 354 90 120 91 122 78 153
-8 19 -51 60 -118 111 -212 165 -241 206 -219 305 13 56 27 85 93 188 44 70
48 81 38 103 -17 38 -13 66 14 106 26 39 31 63 16 73 -5 3 -15 -12 -22 -32
l-12 -38 -17 40 c-16 37 -18 38 -24 18 -5 -15 -15 -23 -30 -23 -17 0 -27 -9
-36 -31 -9 -21 -15 -26 -21 -18 -6 10 -11 10 -25 -2 -16 -13 -17 -12 -11 18 6
31 6 31 -25 22 -41 -11 -50 -4 -42 37 8 44 -12 46 -22 2 -4 -20 -9 -27 -12
-18 -3 8 -9 18 -15 21 -6 4 -2 20 10 40 11 19 23 48 27 64 6 28 2 25 -49 -30
-30 -33 -55 -57 -55 -52 0 4 16 39 36 78 19 39 33 73 30 76 -2 2 -13 0 -24 -6
-39 -21 -36 -11 12 38 45 46 47 49 26 56 -15 5 -34 -1 -62 -20 -22 -15 -43
-23 -47 -18 -10 14 -28 13 -41 -2 -17 -20 -31 -19 -23 2 5 12 3 14 -8 8 -12
-8 -12 -6 0 9 12 14 12 19 2 26 -8 4 -10 13 -7 19 9 14 -16 24 -139 57 -161
42 -491 132 -615 169 -131 38 -234 45 -249 17z"/>
<path d="M2994 2066 c-8 -22 1 -41 83 -166 41 -64 62 -125 63 -186 0 -16 6
-38 13 -48 12 -17 15 -16 62 2 28 11 142 48 255 82 113 34 209 66 214 71 9 8
-7 125 -18 137 -3 3 -140 29 -303 58 -164 29 -313 56 -330 60 -26 5 -34 3 -39
-10z"/>
<path d="M4014 1873 c-111 -183 -146 -208 -476 -344 -224 -93 -302 -119 -353
-119 -49 0 -99 15 -137 42 -33 23 -34 20 -12 -26 15 -31 15 -36 0 -66 -10 -21
-16 -58 -16 -103 0 -68 1 -70 45 -119 46 -51 53 -75 34 -106 -15 -24 40 -133
111 -222 84 -104 180 -256 180 -285 0 -9 -53 -5 -87 7 -18 6 -35 10 -37 7 -3
-3 1 -27 9 -53 20 -66 61 -281 76 -393 l12 -93 718 0 719 0 -2 877 -3 877
-155 33 c-141 29 -588 113 -603 113 -4 0 -14 -12 -23 -27z"/>
<path d="M2342 1599 l-43 -49 58 -54 c59 -55 73 -56 73 -8 0 25 -30 143 -39
154 -3 3 -25 -16 -49 -43z"/>
</g>
</svg>
