<?xml version="1.0" standalone="no"?>
<!DOCTYPE svg PUBLIC "-//W3C//DTD SVG 20010904//EN"
 "http://www.w3.org/TR/2001/REC-SVG-20010904/DTD/svg10.dtd">
<svg version="1.0" xmlns="http://www.w3.org/2000/svg"
 width="480.000000pt" height="360.000000pt" viewBox="0 0 480.000000 360.000000"
 preserveAspectRatio="xMidYMid meet">
<metadata>
Created by potrace 1.16, written by Peter Selinger 2001-2019
</metadata>
<rect width="1" height="360" fill="#000000"/>
<rect x="479" width="1" height="360" fill="#000000"/>
<rect width="480" height="1" fill="#000000"/>
<rect y="359" width="480" height="1" fill="#000000"/>
<g transform="translate(0.000000,360.000000) scale(0.100000,-0.100000)"
fill="#000000" stroke="none">
<path d="M0 2874 l0 -726 28 17 c15 10 47 37 72 62 71 71 192 121 590 243 133
41 248 93 327 147 34 24 122 104 195 177 146 146 158 153 308 177 36 5 69 14
75 20 5 5 9 25 9 44 0 28 -9 44 -42 78 -69 70 -54 90 40 52 59 -24 64 -25 100
-10 21 8 47 15 58 15 13 0 25 12 36 38 13 31 13 44 3 77 -14 47 -13 133 2 151
7 8 7 19 1 31 -6 10 -12 34 -13 53 -3 29 -1 34 14 32 12 -2 17 4 17 23 l0 25
-910 0 -910 0 0 -726z"/>
<path d="M1840 3595 c0 -2 9 -21 19 -42 11 -21 24 -72 30 -113 6 -42 17 -93
26 -113 24 -58 29 -164 9 -194 -15 -23 -14 -26 4 -46 12 -12 25 -34 31 -49 6
-17 30 -37 70 -58 38 -21 61 -39 61 -50 0 -26 -7 -28 -55 -18 -52 11 -99 -8
-117 -47 -10 -23 -7 -29 40 -74 79 -76 110 -149 127 -305 4 -40 2 -47 -10 -42
-9 3 -15 0 -15 -10 0 -8 -4 -13 -9 -10 -5 3 -19 -10 -30 -30 -12 -20 -25 -34
-28 -30 -3 3 -12 1 -20 -6 -23 -18 -73 -21 -73 -3 0 19 -14 19 -30 0 -12 -14
-10 -53 4 -87 6 -13 0 -20 -28 -32 -20 -8 -36 -20 -36 -25 0 -6 -15 -18 -32
-27 -18 -9 -43 -25 -55 -37 -20 -17 -26 -18 -53 -7 -17 7 -33 11 -35 8 -3 -2
22 -33 55 -69 70 -75 72 -80 100 -229 28 -149 43 -199 77 -262 l28 -51 11 29
c7 16 15 60 19 98 13 128 47 171 153 196 34 8 40 2 20 -19 -11 -11 -10 -14 0
-18 9 -3 6 -12 -9 -31 -18 -23 -19 -27 -5 -30 14 -3 14 -7 -4 -29 -26 -34 -25
-70 3 -93 18 -16 20 -19 6 -25 -12 -4 -14 -18 -11 -63 2 -33 -3 -77 -11 -105
-12 -36 -13 -57 -5 -84 21 -78 -38 -271 -95 -307 -23 -14 -58 -21 -160 -31
-84 -8 -109 -20 -103 -47 15 -70 46 -649 46 -860 l0 -118 669 0 670 0 6 23 c4
12 27 78 52 147 l45 125 -28 190 c-24 162 -28 217 -26 372 2 211 19 187 -145
208 -102 13 -110 16 -135 46 -40 48 -88 188 -88 258 0 32 -5 71 -10 88 -7 19
-8 55 -2 104 8 59 7 77 -4 90 -19 21 -18 50 1 43 21 -8 19 9 -5 39 -22 28 -10
48 15 27 23 -19 18 1 -6 26 -20 22 -21 24 -4 40 16 17 19 17 49 0 40 -22 81
-58 94 -82 5 -10 15 -44 22 -74 24 -111 28 -113 65 -39 24 46 62 197 79 309
11 68 40 125 97 185 57 60 60 76 10 48 -31 -17 -33 -17 -49 2 -9 11 -30 27
-47 35 -16 8 -34 21 -39 28 -4 8 -23 20 -42 28 -34 14 -42 28 -24 39 15 9 12
71 -4 84 -9 7 -17 8 -20 2 -3 -5 0 -11 6 -14 7 -2 9 -8 5 -13 -4 -4 -17 -3
-27 4 -26 16 -43 15 -34 0 4 -7 -4 -3 -17 9 -13 12 -28 21 -34 20 -5 -1 -20
17 -32 41 -19 38 -23 41 -32 25 -8 -14 -10 -5 -11 42 0 70 22 180 45 229 15
31 105 128 148 159 18 12 18 14 -1 62 -41 105 -122 360 -122 385 0 7 9 1 20
-13 11 -14 20 -27 20 -30 0 -3 13 -19 30 -37 43 -46 48 -19 15 86 -14 47 -24
88 -22 90 2 3 17 -12 32 -33 56 -76 72 -86 122 -79 25 3 53 1 65 -5 17 -9 19
-17 14 -52 -4 -23 -11 -46 -15 -52 -16 -20 -20 -72 -7 -91 7 -10 21 -42 31
-71 l19 -52 75 6 c60 4 94 1 159 -16 102 -26 113 -33 228 -146 183 -180 266
-210 693 -250 l174 -16 83 40 c87 42 101 36 31 -13 l-42 -29 28 -10 c36 -12
78 -3 147 31 l55 27 3 488 2 487 -1480 0 c-814 0 -1480 -2 -1480 -5z"/>
<path d="M4758 2569 c-33 -24 -36 -39 -9 -39 11 0 23 -4 26 -10 13 -22 25 -8
25 30 0 46 -4 47 -42 19z"/>
<path d="M3508 2198 c-2 -17 -9 -22 -25 -20 -33 5 -28 -12 12 -45 29 -23 38
-41 54 -104 11 -42 27 -139 36 -215 20 -175 35 -263 51 -289 10 -16 10 -38 -1
-110 -29 -184 -18 -270 42 -357 21 -32 37 -41 92 -57 36 -11 99 -25 140 -31
171 -28 338 -113 514 -263 55 -47 216 -134 325 -175 l52 -20 0 713 0 713 -52
8 c-29 4 -56 7 -59 6 -4 -1 -69 5 -145 13 -77 8 -159 15 -184 15 l-45 -1 46
-24 c25 -13 51 -31 58 -39 12 -15 10 -15 -22 -1 -20 8 -44 15 -53 15 -15 0
-14 -4 7 -26 31 -35 28 -34 -176 51 -194 80 -240 97 -375 136 -58 17 -109 34
-115 38 -5 4 -35 18 -65 31 -30 12 -67 31 -82 41 -26 19 -27 19 -30 -3z"/>
<path d="M1263 2092 c-51 -31 -149 -88 -219 -127 -82 -45 -150 -92 -193 -132
-36 -33 -67 -60 -69 -58 -2 2 1 13 8 24 18 35 -3 24 -70 -39 -36 -33 -66 -60
-67 -60 -1 0 0 8 4 18 5 13 0 11 -20 -7 -40 -36 -45 -17 -8 30 18 22 31 42 29
45 -9 8 -147 -70 -275 -154 -36 -24 -67 -41 -69 -39 -2 2 6 17 18 32 13 16 16
25 8 20 -30 -17 -176 -119 -215 -150 -22 -17 -53 -40 -70 -51 l-30 -19 27 33
c30 36 38 63 13 42 -19 -16 -19 -7 1 31 24 47 10 45 -30 -4 l-36 -44 0 -742
c0 -842 -8 -777 85 -700 45 37 86 67 239 174 24 17 54 38 67 47 13 10 49 34
79 54 157 106 313 254 478 454 61 74 138 164 171 200 33 36 68 81 78 100 22
44 30 208 13 277 -11 44 -22 174 -13 146 7 -21 19 -15 20 10 1 12 7 40 12 62
6 22 18 105 26 185 22 198 47 290 96 347 22 24 39 46 39 49 0 15 -48 -5 -127
-54z"/>
<path d="M4595 2053 c11 -3 60 -18 108 -34 100 -33 97 -32 97 -19 0 6 -6 10
-14 10 -7 0 -39 11 -70 25 -34 15 -73 25 -99 24 -23 -1 -33 -3 -22 -6z"/>
<path d="M420 1783 c-42 -17 -153 -98 -215 -157 -74 -71 -62 -75 15 -6 25 23
81 67 125 97 103 72 112 80 75 66z"/>
<path d="M2984 1325 c-9 -22 -1 -27 51 -35 50 -8 57 0 23 22 -40 26 -67 31
-74 13z"/>
<path d="M1785 1282 l-40 -27 42 -3 c54 -4 83 11 76 38 -7 27 -30 24 -78 -8z"/>
</g>
</svg>
