<?xml version="1.0" standalone="no"?>
<!DOCTYPE svg PUBLIC "-//W3C//DTD SVG 20010904//EN"
 "http://www.w3.org/TR/2001/REC-SVG-20010904/DTD/svg10.dtd">
<svg version="1.0" xmlns="http://www.w3.org/2000/svg"
 width="480.000000pt" height="360.000000pt" viewBox="0 0 480.000000 360.000000"
 preserveAspectRatio="xMidYMid meet">
<metadata>
Created by potrace 1.16, written by Peter Selinger 2001-2019
</metadata>
<rect width="1" height="360" fill="#000000"/>
<rect x="479" width="1" height="360" fill="#000000"/>
<rect width="480" height="1" fill="#000000"/>
<rect y="359" width="480" height="1" fill="#000000"/>
<g transform="translate(0.000000,360.000000) scale(0.100000,-0.100000)"
fill="#000000" stroke="none">
<path d="M0 1800 l0 -1800 145 0 144 0 21 73 c12 39 26 86 31 104 9 27 7 35
-10 52 -27 27 -35 64 -21 91 9 16 8 25 -2 37 -11 13 -10 18 7 27 39 22 72 66
79 103 10 61 7 106 -8 135 -12 23 -12 28 -1 28 9 0 13 13 12 47 -2 45 -1 48
28 53 28 5 31 10 50 87 12 46 38 115 58 155 41 81 43 88 24 88 -16 0 -30 -26
-53 -100 -30 -98 -80 -170 -119 -170 -49 0 -105 77 -105 144 0 30 4 36 34 46
47 15 62 35 84 115 11 39 36 129 56 200 38 133 116 442 116 457 0 5 -9 4 -21
-2 -24 -13 -79 -4 -79 13 0 7 7 21 15 31 8 11 15 27 15 36 0 8 13 47 30 85 41
98 40 142 -6 186 -84 79 -128 231 -123 422 4 114 6 127 37 189 43 89 127 169
282 269 160 104 242 142 360 167 123 26 295 52 342 52 20 0 39 3 41 8 3 4 1
56 -4 116 -5 60 -6 112 -3 115 7 7 40 -34 141 -179 48 -69 114 -150 146 -180
86 -80 141 -166 171 -270 9 -30 29 -78 46 -106 29 -51 30 -52 112 -74 61 -17
98 -21 139 -16 45 4 60 2 70 -10 9 -11 23 -14 47 -10 l34 5 -7 -42 c-13 -78
-38 -132 -63 -135 -13 -2 -29 2 -37 8 -22 18 -88 21 -106 4 -16 -14 -15 -18 2
-52 30 -61 48 -132 34 -132 -7 0 -16 -20 -20 -47 -7 -48 -31 -92 -51 -93 -7 0
-15 -21 -20 -47 -4 -27 -9 -40 -11 -30 -6 24 -23 22 -23 -3 0 -11 -5 -20 -11
-20 -5 0 -7 4 -4 10 3 5 2 17 -3 26 -8 15 -12 13 -28 -12 -11 -15 -29 -39 -42
-53 -12 -13 -20 -31 -17 -40 2 -9 5 -38 6 -66 1 -27 6 -56 12 -63 7 -9 6 -20
-3 -38 -12 -22 -11 -31 9 -77 12 -29 25 -59 28 -67 3 -8 -13 3 -35 24 l-42 40
-15 -40 c-37 -91 -78 -166 -99 -179 -27 -18 -110 -23 -185 -11 l-54 9 5 -47
c3 -25 11 -52 17 -60 13 -15 334 -107 446 -127 76 -14 113 -34 145 -79 20 -28
20 -31 4 -80 -16 -50 -16 -51 9 -108 22 -49 48 -137 71 -245 6 -25 9 -27 46
-21 49 8 61 -11 37 -62 l-17 -34 75 0 c64 0 74 2 68 16 -3 9 0 20 7 24 14 8
145 5 208 -6 28 -4 34 -2 39 15 6 25 26 26 158 7 75 -11 91 -11 98 0 11 20 50
17 149 -9 79 -22 88 -22 103 -8 14 15 25 13 119 -20 79 -27 107 -33 124 -26
18 8 40 2 110 -31 55 -27 95 -40 108 -36 16 4 44 -9 97 -44 44 -29 84 -49 94
-46 11 3 42 -16 83 -51 35 -30 69 -55 75 -55 21 0 158 -154 203 -228 51 -84
52 -78 -33 -114 -39 -16 -31 -17 268 -17 l307 -1 0 1800 0 1800 -140 0 c-116
0 -142 -3 -146 -15 -4 -8 -10 -15 -15 -15 -5 0 -9 7 -9 15 0 13 -256 15 -2245
15 l-2245 0 0 -1800z m2540 1152 c0 -13 -12 -22 -22 -16 -10 6 -1 24 13 24 5
0 9 -4 9 -8z m455 -884 c25 -7 45 -15 45 -19 0 -4 -31 -23 -69 -43 -46 -24
-82 -36 -109 -36 -43 0 -65 16 -37 26 12 5 14 14 10 34 -5 21 -2 31 12 39 24
14 93 14 148 -1z m-2697 -174 c-5 -24 -40 -45 -58 -34 -12 7 -11 12 4 29 23
25 59 28 54 5z m4092 -584 c0 -5 -7 -7 -15 -4 -8 4 -15 8 -15 10 0 2 7 4 15 4
8 0 15 -4 15 -10z m50 -91 c0 -11 -27 -12 -34 0 -3 4 -3 11 0 14 8 8 34 -3 34
-14z m-1540 -393 c0 -3 -4 -8 -10 -11 -5 -3 -10 -1 -10 4 0 6 5 11 10 11 6 0
10 -2 10 -4z"/>
<path d="M620 1229 c0 -5 5 -7 10 -4 6 3 10 8 10 11 0 2 -4 4 -10 4 -5 0 -10
-5 -10 -11z"/>
</g>
</svg>
