<?xml version="1.0" standalone="no"?>
<!DOCTYPE svg PUBLIC "-//W3C//DTD SVG 20010904//EN"
 "http://www.w3.org/TR/2001/REC-SVG-20010904/DTD/svg10.dtd">
<svg version="1.0" xmlns="http://www.w3.org/2000/svg"
 width="480.000000pt" height="360.000000pt" viewBox="0 0 480.000000 360.000000"
 preserveAspectRatio="xMidYMid meet">
<metadata>
Created by potrace 1.16, written by Peter Selinger 2001-2019
</metadata>
<rect width="1" height="360" fill="#000000"/>
<rect x="479" width="1" height="360" fill="#000000"/>
<rect width="480" height="1" fill="#000000"/>
<rect y="359" width="480" height="1" fill="#000000"/>
<g transform="translate(0.000000,360.000000) scale(0.100000,-0.100000)"
fill="#000000" stroke="none">
<path d="M1603 3523 c18 -165 -10 -393 -69 -558 -98 -274 -217 -432 -487 -642
-100 -78 -360 -185 -514 -213 -119 -21 -418 -12 -511 16 l-22 6 0 -1066 0
-1066 1320 0 1320 0 4 23 c2 12 14 85 26 162 16 101 40 195 87 339 78 242 82
257 139 581 59 325 58 323 46 338 -5 6 -12 37 -16 67 -14 111 -15 116 -51 129
-19 6 -47 28 -64 47 -47 53 -43 110 16 206 44 71 29 71 -136 2 -57 -25 -112
-42 -122 -39 -9 3 -22 19 -29 36 -8 19 -18 28 -26 25 -8 -4 -20 -9 -28 -12 -9
-3 -21 4 -31 19 -14 23 -20 24 -83 20 -61 -4 -80 0 -207 45 -77 27 -168 61
-202 76 -34 14 -71 26 -81 26 -11 0 -36 11 -57 25 -50 35 -88 41 -116 21 -31
-22 -42 -20 -34 5 6 19 5 20 -15 9 -28 -15 -35 -8 -20 20 11 20 10 21 -9 11
-30 -17 -35 4 -7 36 21 25 31 28 97 31 70 3 79 1 159 -39 47 -23 110 -47 140
-54 232 -52 288 -66 307 -76 35 -19 110 6 118 38 4 17 11 23 20 19 8 -3 21 -9
29 -12 9 -3 19 5 28 23 16 32 39 34 168 15 80 -12 244 -12 256 0 4 5 -1 17
-10 27 -17 19 -17 20 3 33 33 20 26 38 -14 35 -34 -2 -37 1 -68 58 -17 33 -35
62 -39 63 -14 6 -9 25 13 48 l20 21 -38 16 c-43 17 -58 41 -68 108 -6 40 -3
50 29 98 20 29 36 56 36 59 0 3 -12 34 -26 69 -27 70 -28 110 -2 126 19 13
223 -60 294 -104 24 -16 60 -33 81 -38 51 -14 81 -36 135 -97 53 -60 73 -130
82 -282 4 -64 13 -109 27 -140 12 -28 24 -80 28 -129 3 -45 9 -84 11 -86 3 -2
31 -23 62 -46 84 -61 97 -78 97 -125 -1 -94 9 -142 40 -196 l31 -55 0 -217 c0
-132 4 -228 11 -245 6 -15 14 -65 19 -111 5 -53 13 -89 24 -100 21 -24 20 -32
-3 -32 -11 0 -27 10 -35 22 -22 32 -20 5 4 -41 10 -21 16 -41 13 -44 -12 -13
-45 16 -63 56 -25 57 -25 31 1 -38 22 -60 20 -78 -8 -53 -15 14 -20 14 -30 2
-7 -7 -13 -18 -13 -23 0 -21 65 -172 152 -355 50 -104 109 -247 132 -317 l41
-129 443 0 442 0 0 1800 0 1800 -1603 0 -1603 0 9 -77z"/>
<path d="M3471 1555 c-16 -112 -14 -170 9 -215 11 -22 25 -57 30 -77 9 -34 7
85 -5 322 -4 66 -22 50 -34 -30z"/>
</g>
</svg>
