<?xml version="1.0" standalone="no"?>
<!DOCTYPE svg PUBLIC "-//W3C//DTD SVG 20010904//EN"
 "http://www.w3.org/TR/2001/REC-SVG-20010904/DTD/svg10.dtd">
<svg version="1.0" xmlns="http://www.w3.org/2000/svg"
 width="480.000000pt" height="360.000000pt" viewBox="0 0 480.000000 360.000000"
 preserveAspectRatio="xMidYMid meet">
<metadata>
Created by potrace 1.16, written by Peter Selinger 2001-2019
</metadata>
<rect width="1" height="360" fill="#000000"/>
<rect x="479" width="1" height="360" fill="#000000"/>
<rect width="480" height="1" fill="#000000"/>
<rect y="359" width="480" height="1" fill="#000000"/>
<g transform="translate(0.000000,360.000000) scale(0.100000,-0.100000)"
fill="#000000" stroke="none">
<path d="M0 1800 l0 -1800 884 0 884 0 32 58 c45 79 110 168 164 224 25 26 46
51 46 55 0 4 -34 42 -75 83 -78 78 -110 135 -120 208 -6 50 4 55 113 51 77 -3
77 -3 74 21 -2 14 -17 39 -32 55 -32 33 -51 79 -81 195 -30 113 -37 126 -102
183 -119 103 -141 219 -80 412 64 198 131 274 241 275 l52 0 0 40 c0 40 -13
53 -24 25 -3 -8 -10 -15 -15 -15 -5 0 -2 23 6 51 17 58 11 165 -11 195 -8 10
-12 33 -9 53 2 24 -4 52 -20 86 l-24 50 -1 -40 c0 -22 6 -50 14 -62 27 -43 14
-45 -29 -6 -24 22 -61 46 -83 53 -66 22 -117 74 -141 145 -6 17 -14 29 -19 28
-5 -1 -7 40 -3 90 3 65 12 107 28 142 28 63 72 177 69 180 -2 1 -18 10 -35 19
-43 22 -43 51 2 103 19 23 35 46 35 52 0 6 -21 31 -47 56 l-46 45 57 26 c55
25 86 27 129 9 16 -7 17 -3 11 44 -8 61 2 65 47 16 41 -43 61 -44 106 -5 18
17 37 30 42 30 4 0 18 -11 31 -25 14 -15 42 -28 74 -34 95 -20 239 -41 275
-41 94 -1 270 -95 371 -200 112 -115 156 -242 167 -477 l6 -144 44 -38 c23
-21 43 -42 43 -46 0 -4 -18 -5 -40 -1 -39 6 -40 5 -30 -14 6 -11 9 -20 6 -20
-3 0 4 -25 15 -57 23 -68 24 -79 3 -62 -13 11 -14 9 -9 -14 10 -38 -1 -33 -24
11 -21 39 -28 31 -11 -13 8 -22 8 -26 -4 -22 -23 9 -34 -13 -29 -56 4 -40 4
-41 -12 -22 -9 11 -18 30 -22 43 -11 43 -25 23 -18 -25 10 -67 -3 -48 -25 37
-10 39 -20 74 -23 76 -10 10 -16 -114 -7 -151 5 -22 7 -41 4 -44 -5 -6 -8 -3
-33 44 l-22 40 4 -32 c4 -39 -4 -41 -33 -11 l-20 22 1 -47 c2 -47 2 -47 38
-48 20 -1 64 0 98 1 59 2 63 0 72 -23 8 -21 19 -27 58 -32 109 -16 163 -60
214 -172 16 -36 34 -63 43 -63 20 0 31 -19 18 -32 -8 -8 -5 -23 10 -51 32 -64
68 -165 68 -193 0 -32 -25 -81 -56 -108 l-25 -21 15 -64 c14 -59 14 -68 -1
-98 -15 -32 -14 -46 7 -201 34 -256 34 -257 17 -301 l-16 -40 27 -5 c15 -2 50
-8 77 -11 95 -12 96 -13 70 -102 -10 -34 -33 -70 -70 -112 -65 -73 -126 -154
-149 -198 l-17 -33 791 0 790 0 0 1800 0 1800 -2400 0 -2400 0 0 -1800z"/>
<path d="M2040 1988 c0 -50 13 -128 21 -128 10 0 12 110 3 134 -9 24 -24 19
-24 -6z"/>
<path d="M2106 1902 c-25 -49 -22 -52 53 -52 72 0 88 8 111 51 12 22 11 22
-54 5 -31 -8 -52 -20 -57 -32 -8 -21 -8 -21 -15 16 -7 40 -21 45 -38 12z"/>
</g>
</svg>
