<?xml version="1.0" standalone="no"?>
<!DOCTYPE svg PUBLIC "-//W3C//DTD SVG 20010904//EN"
 "http://www.w3.org/TR/2001/REC-SVG-20010904/DTD/svg10.dtd">
<svg version="1.0" xmlns="http://www.w3.org/2000/svg"
 width="480.000000pt" height="360.000000pt" viewBox="0 0 480.000000 360.000000"
 preserveAspectRatio="xMidYMid meet">
<metadata>
Created by potrace 1.16, written by Peter Selinger 2001-2019
</metadata>
<rect width="1" height="360" fill="#000000"/>
<rect x="479" width="1" height="360" fill="#000000"/>
<rect width="480" height="1" fill="#000000"/>
<rect y="359" width="480" height="1" fill="#000000"/>
<g transform="translate(0.000000,360.000000) scale(0.100000,-0.100000)"
fill="#000000" stroke="none">
<path d="M0 1800 l0 -1800 1160 0 1160 0 -5 23 c-3 12 -41 177 -85 365 l-79
344 40 111 c22 62 62 175 90 252 44 127 53 143 91 175 101 84 92 72 74 108
-18 35 -21 79 -7 115 l9 24 -221 7 c-925 28 -1543 76 -1642 129 l-26 13 38 17
c59 26 388 60 948 97 1418 96 2275 177 2855 270 102 17 203 33 225 36 22 3 70
12 108 21 l67 15 0 739 0 739 -2400 0 -2400 0 0 -1800z"/>
<path d="M4680 1709 c-175 -35 -195 -42 -198 -67 -3 -17 2 -25 17 -29 22 -6
28 -19 12 -25 -6 -1 -12 -16 -15 -33 -3 -16 -15 -42 -26 -57 l-21 -28 23 -23
c13 -12 42 -38 64 -57 53 -45 83 -96 119 -195 15 -44 38 -100 51 -125 12 -25
37 -80 54 -122 18 -43 34 -78 36 -78 2 0 4 194 4 430 0 338 -3 430 -12 429 -7
-1 -56 -10 -108 -20z"/>
<path d="M3775 1579 c-99 -9 -286 -22 -415 -28 -129 -6 -279 -16 -333 -22 -85
-10 -97 -14 -91 -28 15 -36 15 -59 0 -96 -9 -20 -16 -41 -16 -45 0 -5 33 -33
73 -63 l72 -54 59 -174 c32 -96 74 -213 92 -260 39 -99 39 -100 19 -177 -30
-120 -94 -391 -115 -492 -11 -58 -25 -113 -31 -122 -9 -17 12 -18 381 -18 323
0 390 2 390 14 0 12 -96 431 -170 743 l-31 132 79 188 c43 103 87 210 98 237
14 36 35 62 87 104 67 56 76 69 57 88 -6 6 -14 28 -18 50 l-7 39 -180 -16z"/>
<path d="M4761 688 c-17 -68 -38 -154 -46 -193 -16 -77 -80 -308 -94 -340 -12
-27 -31 -109 -31 -134 0 -20 6 -21 105 -21 l105 0 0 405 c0 223 -2 405 -4 405
-1 0 -17 -55 -35 -122z"/>
</g>
</svg>
