<?xml version="1.0" standalone="no"?>
<!DOCTYPE svg PUBLIC "-//W3C//DTD SVG 20010904//EN"
 "http://www.w3.org/TR/2001/REC-SVG-20010904/DTD/svg10.dtd">
<svg version="1.0" xmlns="http://www.w3.org/2000/svg"
 width="480.000000pt" height="360.000000pt" viewBox="0 0 480.000000 360.000000"
 preserveAspectRatio="xMidYMid meet">
<metadata>
Created by potrace 1.16, written by Peter Selinger 2001-2019
</metadata>
<rect width="1" height="360" fill="#000000"/>
<rect x="479" width="1" height="360" fill="#000000"/>
<rect width="480" height="1" fill="#000000"/>
<rect y="359" width="480" height="1" fill="#000000"/>
<g transform="translate(0.000000,360.000000) scale(0.100000,-0.100000)"
fill="#000000" stroke="none">
<path d="M0 1800 l0 -1800 544 0 543 0 16 63 c14 57 14 63 -1 74 -9 7 -44 13
-78 13 -34 0 -69 3 -78 6 -8 3 -22 27 -31 53 -25 77 -47 91 -167 107 -56 7
-106 14 -110 14 -4 0 -24 14 -44 32 -34 30 -38 31 -77 21 -48 -13 -63 -6 -72
37 -4 20 1 43 19 79 14 28 26 61 26 75 0 28 25 57 43 50 7 -2 26 10 42 27 18
19 23 30 13 26 -33 -12 -28 9 14 48 24 22 61 63 82 89 32 40 41 46 46 32 5
-15 13 -11 53 24 49 43 63 69 27 50 -38 -21 -19 6 61 85 91 90 187 205 232
277 28 44 29 50 15 65 -22 21 -31 13 -78 -72 -42 -76 -61 -98 -68 -77 -2 8 -8
7 -19 -3 -17 -17 -33 -20 -33 -4 0 5 -4 7 -10 4 -9 -5 -60 22 -52 28 2 1 1 13
-3 27 -8 32 42 147 89 205 53 65 55 72 57 241 l2 159 43 84 c24 47 44 91 44
98 0 25 -21 13 -33 -19 l-12 -33 -5 45 -5 45 -43 -77 c-24 -43 -46 -78 -49
-78 -3 0 -3 12 0 26 7 39 -13 14 -71 -91 -28 -49 -57 -99 -65 -110 -14 -19
-14 -19 -14 9 0 15 12 64 27 107 16 44 25 77 21 74 -18 -10 -106 -151 -148
-233 l-44 -87 6 50 c5 44 4 48 -10 35 -8 -9 -23 -40 -34 -70 l-19 -55 -13 28
c-10 21 -10 40 -3 78 6 27 9 49 7 49 -1 0 -14 -23 -29 -52 -16 -31 -29 -47
-33 -39 -5 8 -15 3 -31 -14 -32 -34 -43 -31 -35 8 l6 32 -25 -28 c-21 -23 -26
-25 -26 -10 0 15 -4 14 -19 -7 l-20 -25 -24 27 c-24 26 -24 27 -12 100 22 123
44 210 60 234 8 13 28 57 45 100 39 97 86 152 267 310 200 175 233 228 253
397 9 76 20 104 85 213 16 27 17 34 6 48 -8 9 -28 16 -48 16 -44 0 -73 16 -73
39 0 22 22 42 78 70 79 40 71 65 -44 132 -43 25 -78 51 -76 58 1 7 -5 19 -13
27 -24 25 -8 34 34 19 87 -30 246 -117 258 -140 12 -22 16 -23 92 -18 75 5 79
5 91 -18 12 -21 10 -26 -19 -50 -23 -19 -32 -34 -29 -50 3 -21 10 -25 64 -30
38 -3 79 -16 111 -33 58 -32 115 -86 96 -93 -8 -3 -9 -13 -3 -33 5 -18 5 -32
-1 -36 -5 -3 -7 -10 -3 -15 9 -14 -15 -39 -32 -32 -9 3 -14 -1 -14 -13 0 -25
11 -39 34 -47 12 -5 16 -12 11 -25 -4 -9 -9 -39 -11 -67 -5 -53 -29 -85 -65
-85 -11 0 -22 -7 -25 -15 -7 -16 14 -85 25 -85 20 0 133 -116 149 -153 11 -23
51 -77 91 -119 87 -93 96 -123 58 -192 -59 -106 -60 -284 -2 -536 34 -149 73
-328 133 -625 16 -77 28 -156 26 -175 -1 -19 4 -59 13 -88 12 -44 14 -84 8
-213 -7 -152 -14 -183 -41 -178 -38 7 -56 -4 -85 -52 -41 -66 -59 -72 -160
-54 -139 25 -174 9 -194 -82 l-7 -33 1001 0 c551 0 1001 4 1001 8 0 4 -9 35
-19 68 -11 32 -25 77 -30 100 l-11 41 -47 -2 c-43 -2 -51 1 -96 44 -32 29 -64
50 -91 56 l-41 10 -3 67 c-2 43 -8 71 -17 78 -18 15 -19 37 -2 43 9 3 8 13 -5
41 -23 48 -23 73 2 88 24 15 28 73 5 82 -20 7 -20 169 0 286 8 47 19 195 25
330 6 135 20 301 31 370 31 199 22 332 -27 417 -15 26 -24 57 -24 83 0 39 6
48 74 119 40 42 85 99 99 127 24 48 61 87 135 144 25 20 33 34 35 64 2 35 -1
39 -32 49 -28 10 -36 20 -47 56 -7 24 -10 49 -8 56 3 7 1 16 -5 20 -19 11 -12
35 14 45 14 5 25 13 25 18 0 14 -36 43 -43 35 -7 -6 -12 62 -7 82 2 6 3 20 4
32 1 28 48 77 105 110 32 20 62 27 118 31 69 4 75 7 84 30 17 44 90 186 103
200 10 10 10 -1 4 -50 -5 -35 -13 -83 -19 -107 -5 -24 -8 -46 -5 -48 8 -8 76
122 82 158 4 19 13 39 20 45 7 6 23 33 36 60 l23 49 3 -47 c3 -44 5 -48 28
-48 14 0 39 -7 56 -16 l31 -16 -36 -35 c-22 -23 -44 -35 -62 -35 -16 0 -29 -7
-32 -17 -3 -9 -21 -53 -40 -98 l-34 -82 35 -32 c58 -50 101 -148 114 -257 18
-147 57 -225 223 -437 143 -183 168 -238 223 -480 9 -38 23 -95 31 -125 21
-75 19 -122 -5 -150 -11 -13 -20 -26 -20 -30 0 -5 -7 -11 -16 -14 -11 -4 -18
1 -21 15 -3 11 -11 18 -19 15 -7 -3 -18 2 -24 10 -16 19 -34 18 -26 -1 10 -28
-15 -15 -32 16 -9 17 -23 38 -29 47 -11 14 -12 12 -7 -15 9 -45 -11 -42 -33 5
l-18 37 -8 -55 c-13 -88 -17 -101 -27 -95 -6 3 -10 0 -10 -7 0 -8 -7 -24 -16
-37 -21 -30 -30 -16 -39 61 -4 32 -11 61 -16 64 -5 3 -9 -1 -9 -10 0 -8 -3
-16 -7 -18 -5 -2 -23 -20 -42 -40 l-34 -37 22 -28 c13 -15 38 -55 58 -88 19
-33 43 -72 52 -86 9 -15 54 -71 101 -125 97 -112 165 -216 174 -265 4 -19 15
-74 26 -124 32 -150 38 -214 28 -290 -6 -38 -14 -74 -19 -79 -6 -6 -9 -5 -9 2
0 7 -4 12 -10 12 -5 0 -10 -9 -10 -20 0 -12 -6 -20 -12 -18 -7 1 -23 -6 -35
-17 -18 -15 -38 -19 -89 -20 l-66 0 -73 -77 -73 -78 -101 0 c-102 0 -151 -12
-151 -38 0 -14 17 -81 46 -179 l16 -53 459 0 459 0 0 1800 0 1800 -2400 0
-2400 0 0 -1800z"/>
<path d="M1161 2222 c-14 -26 -7 -42 10 -25 6 6 9 19 7 29 -3 17 -5 17 -17 -4z"/>
<path d="M1124 2142 c-6 -4 -17 -18 -24 -31 -10 -19 -10 -25 1 -32 21 -13 24
-12 48 31 21 37 21 40 4 40 -10 0 -23 -4 -29 -8z"/>
<path d="M3655 2078 c12 -45 57 -128 66 -122 14 9 10 63 -7 89 -8 13 -27 31
-41 40 -24 16 -25 16 -18 -7z"/>
<path d="M1210 1905 c-34 -35 -49 -85 -49 -170 l0 -40 15 40 c8 22 22 63 30
90 9 28 24 65 35 83 24 42 12 41 -31 -3z"/>
<path d="M3761 1921 c-18 -33 -18 -83 2 -110 l16 -24 7 27 c3 15 2 51 -2 79
-9 50 -10 51 -23 28z"/>
<path d="M3560 1873 c0 -32 39 -112 60 -123 28 -15 26 1 -11 68 -38 70 -49 83
-49 55z"/>
<path d="M1359 1798 c-7 -13 -21 -39 -32 -58 -68 -120 -85 -170 -58 -170 11 0
76 99 94 142 32 76 29 147 -4 86z"/>
<path d="M3792 1750 c0 -14 2 -19 5 -12 2 6 2 18 0 25 -3 6 -5 1 -5 -13z"/>
<path d="M3580 203 c0 -46 39 -175 56 -188 24 -18 88 -20 81 -3 -3 7 -22 51
-42 98 -40 94 -41 95 -72 105 -18 5 -23 2 -23 -12z"/>
<path d="M1312 71 c-18 -5 -52 -49 -52 -67 0 -2 16 -4 35 -4 19 0 35 1 35 3 0
1 4 17 9 34 11 37 6 42 -27 34z"/>
</g>
</svg>
