<?xml version="1.0" standalone="no"?>
<!DOCTYPE svg PUBLIC "-//W3C//DTD SVG 20010904//EN"
 "http://www.w3.org/TR/2001/REC-SVG-20010904/DTD/svg10.dtd">
<svg version="1.0" xmlns="http://www.w3.org/2000/svg"
 width="480.000000pt" height="360.000000pt" viewBox="0 0 480.000000 360.000000"
 preserveAspectRatio="xMidYMid meet">
<metadata>
Created by potrace 1.16, written by Peter Selinger 2001-2019
</metadata>
<rect width="1" height="360" fill="#000000"/>
<rect x="479" width="1" height="360" fill="#000000"/>
<rect width="480" height="1" fill="#000000"/>
<rect y="359" width="480" height="1" fill="#000000"/>
<g transform="translate(0.000000,360.000000) scale(0.100000,-0.100000)"
fill="#000000" stroke="none">
<path d="M0 1800 l0 -1800 883 0 882 0 -30 20 c-16 11 -69 34 -117 51 -48 17
-94 39 -102 48 -9 9 -18 44 -22 76 -8 77 -22 98 -88 136 -30 16 -57 36 -59 43
-3 8 13 27 41 47 26 18 48 34 50 35 2 1 -4 16 -13 34 -9 18 -15 33 -13 34 2 1
32 22 68 46 36 24 92 62 125 85 33 22 110 69 170 104 244 142 297 191 623 585
49 59 67 111 54 158 -9 34 -29 45 -89 47 -43 1 -83 21 -83 40 1 9 24 30 52 46
71 42 88 77 88 185 0 59 -8 116 -26 185 -18 71 -24 115 -20 153 l5 52 -32 0
-32 1 40 21 c47 24 50 26 43 33 -3 3 -17 1 -32 -5 -41 -15 -76 -3 -76 26 0 13
-6 24 -12 24 -16 0 -61 68 -53 80 3 4 -1 11 -7 14 -9 3 -7 9 7 21 19 15 19 17
3 26 -35 19 -24 30 67 64 19 7 19 7 -4 16 -14 6 -31 7 -39 4 -8 -3 -12 0 -10
7 3 7 20 16 39 21 103 25 110 29 186 103 82 79 141 116 216 135 96 24 210 -38
286 -154 32 -50 44 -78 48 -120 6 -55 -5 -144 -14 -119 -4 10 -9 8 -19 -7 -20
-28 -74 -54 -74 -36 0 12 -5 11 -27 -1 -16 -7 -35 -14 -44 -14 -19 0 -31 -23
-23 -45 4 -10 0 -15 -12 -15 -26 -1 -79 -45 -65 -54 10 -6 69 -14 239 -30 104
-10 126 -19 246 -100 99 -67 126 -90 146 -129 34 -62 34 -62 69 -36 28 20 33
21 76 9 119 -33 204 -152 145 -205 -36 -33 -64 0 -40 46 15 26 -18 73 -70 99
-58 29 -80 27 -80 -9 0 -17 5 -33 11 -37 6 -3 9 -19 6 -34 -4 -19 0 -34 14
-48 29 -32 24 -52 -31 -112 l-50 -55 6 -60 c9 -87 -22 -190 -108 -363 -39 -78
-74 -144 -78 -147 -4 -3 -11 62 -14 143 -9 178 6 279 53 366 36 69 37 84 12
155 -14 40 -16 62 -10 85 6 21 5 45 -3 74 -10 35 -18 44 -46 52 -18 5 -53 26
-76 47 -125 110 -115 106 -248 110 -93 2 -119 0 -116 -9 3 -7 12 -13 20 -13
19 0 116 -118 124 -152 10 -40 -4 -85 -50 -156 -37 -58 -46 -81 -57 -154 -10
-65 -10 -89 -1 -104 7 -10 12 -27 12 -37 0 -11 9 -27 20 -37 11 -10 22 -25 25
-35 3 -9 22 -26 43 -38 49 -28 82 -59 82 -79 0 -14 -2 -14 -20 2 -28 25 -25
15 20 -75 22 -44 40 -86 40 -95 0 -30 -21 -14 -41 31 -11 26 -22 44 -25 41 -3
-3 4 -24 16 -47 12 -23 20 -51 18 -63 -3 -17 -13 -4 -42 53 -41 78 -58 83 -33
8 8 -24 13 -46 10 -50 -10 -17 -21 -6 -27 26 -4 19 -13 39 -20 45 -11 9 -15 5
-19 -21 -10 -52 5 -103 29 -101 18 1 18 1 0 -12 -17 -13 -17 -20 -7 -97 27
-202 82 -788 78 -835 l-4 -53 909 0 908 0 0 1800 0 1800 -1489 0 c-1183 0
-1490 -3 -1494 -12 -3 -10 -7 -10 -19 0 -12 10 -202 12 -907 12 l-891 -1 0
-1799z m4340 1586 c0 -8 -4 -17 -9 -21 -12 -7 -24 12 -16 25 9 15 25 12 25 -4z
m-2736 -168 c16 -23 22 -98 8 -98 -15 0 -42 58 -42 89 0 36 13 40 34 9z m3174
-14 c-10 -11 -23 -14 -35 -10 -16 7 -16 9 7 26 30 23 53 9 28 -16z m-3212
-140 c14 -4 23 -11 21 -18 -6 -18 -53 -19 -71 -1 -19 19 -11 39 11 31 8 -4 26
-9 39 -12z m340 -139 c-22 -17 -36 -19 -36 -7 0 14 12 22 34 22 21 -1 21 -1 2
-15z m-1105 -653 c14 -12 20 -25 16 -35 -8 -22 -23 -21 -47 3 -41 41 -15 68
31 32z m1379 -38 c0 -8 -4 -14 -10 -14 -5 0 -10 9 -10 21 0 11 5 17 10 14 6
-3 10 -13 10 -21z m1456 -35 c22 -24 13 -34 -18 -18 -23 12 -38 28 -38 41 0
12 39 -4 56 -23z m-2346 -47 c0 -39 -16 -62 -52 -75 -30 -10 -24 58 7 88 34
35 45 31 45 -13z m2436 -6 c10 -8 16 -18 12 -21 -12 -12 -58 4 -58 20 0 19 20
19 46 1z m-2176 -109 c0 -26 -37 -54 -52 -39 -7 7 -4 19 8 36 24 32 44 33 44
3z m-840 -501 c8 -24 8 -41 0 -62 l-12 -29 -13 25 c-8 14 -14 41 -15 61 0 60
21 63 40 5z m3152 -988 c19 -16 32 -65 19 -73 -12 -7 -59 14 -65 30 -7 19 5
55 18 55 7 0 19 -6 28 -12z m-372 -48 c18 -12 2 -12 -25 0 -13 6 -15 9 -5 9 8
0 22 -4 30 -9z"/>
</g>
</svg>
