<?xml version="1.0" standalone="no"?>
<!DOCTYPE svg PUBLIC "-//W3C//DTD SVG 20010904//EN"
 "http://www.w3.org/TR/2001/REC-SVG-20010904/DTD/svg10.dtd">
<svg version="1.0" xmlns="http://www.w3.org/2000/svg"
 width="480.000000pt" height="360.000000pt" viewBox="0 0 480.000000 360.000000"
 preserveAspectRatio="xMidYMid meet">
<metadata>
Created by potrace 1.16, written by Peter Selinger 2001-2019
</metadata>
<rect width="1" height="360" fill="#000000"/>
<rect x="479" width="1" height="360" fill="#000000"/>
<rect width="480" height="1" fill="#000000"/>
<rect y="359" width="480" height="1" fill="#000000"/>
<g transform="translate(0.000000,360.000000) scale(0.100000,-0.100000)"
fill="#000000" stroke="none">
<path d="M0 1800 l0 -1800 924 0 c729 0 927 3 933 13 4 6 8 32 8 57 1 29 18
88 48 164 45 113 49 129 63 280 8 89 23 208 33 266 10 58 19 148 20 200 0 52
3 112 7 133 5 30 1 42 -18 65 -13 15 -31 26 -40 24 -12 -2 -19 5 -23 25 -3 15
-10 43 -16 61 -8 25 -8 37 0 45 6 6 11 21 11 33 0 17 5 21 19 17 13 -3 21 1
25 14 12 36 113 168 146 191 20 13 39 37 46 59 7 20 19 40 26 45 11 8 11 10 0
15 -28 11 -136 100 -163 133 -15 19 -34 56 -41 82 -11 43 -10 52 9 92 12 24
40 59 62 76 44 36 45 50 2 50 -26 0 -51 16 -51 32 0 4 9 8 19 8 11 0 23 5 27
11 4 7 22 9 46 6 37 -5 39 -4 34 16 -34 143 -41 297 -13 297 6 0 32 -21 58
-46 l47 -47 32 36 c17 20 49 42 73 50 l42 14 3 541 2 542 -1200 0 -1200 0 0
-1800z"/>
<path d="M2554 2551 c-16 -10 -57 -21 -89 -24 -33 -4 -61 -6 -62 -7 -2 0 -3
-177 -3 -392 0 -373 -1 -395 -20 -425 -19 -32 -19 -33 0 -43 20 -11 20 -25 20
-835 l0 -825 300 0 c165 0 300 3 300 8 0 4 -6 16 -14 27 -7 11 -19 46 -26 79
l-12 58 36 52 c39 57 45 97 24 156 -10 30 -9 35 13 52 54 42 92 85 105 118 12
28 40 52 149 124 74 48 139 94 145 100 12 15 -16 122 -39 150 -18 20 -103 66
-123 66 -7 0 -65 -52 -129 -116 -115 -114 -118 -116 -153 -110 -19 4 -37 10
-39 14 -2 4 1 50 7 102 11 92 12 94 24 61 6 -19 12 -43 12 -55 0 -12 5 -28 10
-36 9 -13 13 -11 31 10 27 32 19 103 -17 141 -29 30 -29 34 -4 66 26 34 26 88
-1 155 -35 86 -48 156 -42 222 4 52 2 65 -16 87 -21 27 -114 62 -200 75 -41 6
-43 7 -37 35 3 19 1 29 -6 29 -6 0 -1 11 12 25 26 28 50 33 50 11 0 -24 43
-65 70 -67 28 -2 34 0 138 47 87 39 163 100 186 148 35 75 10 166 -62 227
l-38 32 15 43 c18 50 11 62 -25 45 -15 -6 -28 -10 -30 -9 -1 2 6 39 17 83 28
117 35 215 16 240 -15 19 -17 18 -67 -34 l-52 -53 -37 41 c-43 49 -89 69 -174
77 -34 4 -69 12 -77 19 -28 23 -54 25 -86 6z m561 -617 c14 -29 14 -37 2 -66
-8 -18 -23 -41 -35 -51 -31 -28 -196 -97 -206 -86 -6 5 2 36 19 78 l28 70 28
-20 c16 -11 31 -24 34 -29 11 -18 26 -10 20 10 -5 14 -2 20 10 20 12 0 14 4 5
19 -14 27 -13 48 7 99 l16 43 28 -27 c15 -15 35 -42 44 -60z m-664 -237 c8
-11 -1 -57 -11 -57 -27 0 -40 15 -40 44 0 18 3 36 7 39 6 6 31 -8 44 -26z"/>
<path d="M2056 1983 c-12 -13 -5 -69 12 -98 18 -29 182 -135 209 -135 23 0 14
45 -19 94 -33 51 -31 51 -65 -1 -11 -17 -12 -16 -12 6 -1 17 -5 22 -17 17 -12
-5 -15 -2 -9 11 35 85 32 94 -33 98 -21 1 -44 5 -49 8 -6 4 -13 4 -17 0z"/>
<path d="M2041 778 c-12 -32 -44 -303 -38 -321 6 -17 23 50 48 189 16 89 19
127 11 140 -10 18 -11 17 -21 -8z"/>
<path d="M2100 728 c-12 -29 -31 -140 -25 -146 6 -7 46 87 52 124 6 38 -13 54
-27 22z"/>
</g>
</svg>
