<?xml version="1.0" standalone="no"?>
<!DOCTYPE svg PUBLIC "-//W3C//DTD SVG 20010904//EN"
 "http://www.w3.org/TR/2001/REC-SVG-20010904/DTD/svg10.dtd">
<svg version="1.0" xmlns="http://www.w3.org/2000/svg"
 width="480.000000pt" height="360.000000pt" viewBox="0 0 480.000000 360.000000"
 preserveAspectRatio="xMidYMid meet">
<metadata>
Created by potrace 1.16, written by Peter Selinger 2001-2019
</metadata>
<rect width="1" height="360" fill="#000000"/>
<rect x="479" width="1" height="360" fill="#000000"/>
<rect width="480" height="1" fill="#000000"/>
<rect y="359" width="480" height="1" fill="#000000"/>
<g transform="translate(0.000000,360.000000) scale(0.100000,-0.100000)"
fill="#000000" stroke="none">
<path d="M1605 3423 c0 -197 -19 -333 -61 -435 -13 -32 -24 -62 -24 -68 0 -6
-20 -53 -45 -104 -115 -236 -310 -439 -545 -567 -103 -55 -290 -121 -400 -139
-137 -23 -408 -15 -513 16 -16 5 -17 -50 -17 -1060 l0 -1066 1328 0 1327 0 18
103 c28 159 60 268 130 452 74 191 95 272 163 600 48 234 57 320 45 435 -6 61
-8 66 -45 90 -43 30 -65 63 -65 100 -1 33 32 103 69 150 16 21 39 66 49 100
14 45 32 75 61 105 38 39 41 45 30 66 -11 20 -10 25 9 37 32 22 25 31 -18 25
-34 -5 -41 -2 -51 18 -7 13 -28 43 -46 65 -33 41 -33 42 -14 59 26 24 25 32
-6 39 -37 10 -74 50 -74 82 0 18 -4 25 -14 21 -19 -8 -7 43 28 110 l26 53 -23
37 c-34 56 -47 90 -47 122 0 50 26 50 214 -1 59 -16 122 -38 140 -49 17 -10
40 -19 51 -19 36 -1 99 -37 147 -85 57 -57 85 -124 99 -239 6 -45 23 -112 39
-151 47 -114 52 -142 40 -260 -5 -62 -6 -114 -1 -123 5 -10 19 -59 31 -109 19
-80 21 -108 15 -200 -11 -185 -10 -194 20 -263 41 -96 53 -193 33 -277 -10
-40 -14 -87 -11 -114 4 -37 1 -50 -14 -65 -11 -10 -23 -27 -26 -37 -10 -27
-26 -11 -33 32 -7 42 -20 69 -29 60 -14 -15 79 -292 167 -494 77 -178 119
-288 148 -392 l23 -83 433 0 434 0 0 1800 0 1800 -1598 0 -1598 0 1 -177z"/>
</g>
</svg>
