<?xml version="1.0" standalone="no"?>
<!DOCTYPE svg PUBLIC "-//W3C//DTD SVG 20010904//EN"
 "http://www.w3.org/TR/2001/REC-SVG-20010904/DTD/svg10.dtd">
<svg version="1.0" xmlns="http://www.w3.org/2000/svg"
 width="480.000000pt" height="360.000000pt" viewBox="0 0 480.000000 360.000000"
 preserveAspectRatio="xMidYMid meet">
<metadata>
Created by potrace 1.16, written by Peter Selinger 2001-2019
</metadata>
<rect width="1" height="360" fill="#000000"/>
<rect x="479" width="1" height="360" fill="#000000"/>
<rect width="480" height="1" fill="#000000"/>
<rect y="359" width="480" height="1" fill="#000000"/>
<g transform="translate(0.000000,360.000000) scale(0.100000,-0.100000)"
fill="#000000" stroke="none">
<path d="M0 3431 l0 -168 28 -6 c15 -3 47 -19 72 -34 86 -56 165 -101 238
-138 40 -20 76 -43 79 -50 2 -8 15 -17 26 -21 21 -6 143 -73 217 -118 61 -37
93 -56 175 -103 173 -98 283 -161 345 -198 36 -20 99 -56 140 -78 41 -22 91
-52 110 -67 19 -15 55 -37 80 -50 25 -12 59 -32 75 -45 17 -12 41 -26 55 -30
14 -4 84 -43 156 -86 71 -44 133 -79 137 -79 4 0 30 -15 58 -34 27 -19 60 -38
72 -42 12 -4 36 -17 53 -30 17 -13 34 -24 37 -24 3 0 30 -14 59 -32 101 -60
173 -101 248 -141 41 -22 95 -54 120 -71 25 -18 68 -42 95 -55 28 -13 61 -32
75 -41 27 -19 78 -49 149 -87 25 -14 55 -33 68 -43 13 -10 45 -29 71 -41 67
-32 245 -133 296 -169 24 -16 70 -44 102 -61 33 -18 64 -36 71 -41 7 -5 52
-30 100 -55 96 -49 198 -109 225 -131 10 -8 40 -25 69 -38 28 -13 65 -35 81
-49 16 -14 34 -25 39 -25 5 0 43 -20 83 -45 41 -25 77 -45 79 -45 5 0 58 -30
237 -135 120 -70 319 -183 358 -204 l22 -12 0 1546 0 1545 -2400 0 -2400 0 0
-169z m2640 -280 c0 -4 -20 -21 -45 -37 -29 -18 -45 -35 -45 -48 0 -17 -2 -18
-10 -6 -7 11 -10 11 -10 2 0 -26 30 -68 79 -110 45 -38 51 -47 51 -83 0 -36
-4 -42 -52 -73 -29 -18 -83 -65 -119 -102 -36 -38 -86 -84 -112 -101 -25 -18
-58 -52 -71 -76 -33 -56 -68 -195 -60 -236 6 -29 4 -31 -22 -33 -85 -4 -177 3
-201 16 -82 42 -139 132 -150 233 -5 40 -3 43 24 49 100 24 163 91 204 219 12
39 37 90 56 114 18 24 33 47 33 52 0 4 28 40 61 81 34 40 66 83 72 96 8 18 16
22 31 17 12 -4 37 -9 56 -12 19 -3 45 -12 57 -20 19 -13 24 -11 55 15 18 16
42 34 53 40 24 13 65 16 65 3z"/>
</g>
</svg>
