<?xml version="1.0" standalone="no"?>
<!DOCTYPE svg PUBLIC "-//W3C//DTD SVG 20010904//EN"
 "http://www.w3.org/TR/2001/REC-SVG-20010904/DTD/svg10.dtd">
<svg version="1.0" xmlns="http://www.w3.org/2000/svg"
 width="480.000000pt" height="360.000000pt" viewBox="0 0 480.000000 360.000000"
 preserveAspectRatio="xMidYMid meet">
<metadata>
Created by potrace 1.16, written by Peter Selinger 2001-2019
</metadata>
<rect width="1" height="360" fill="#000000"/>
<rect x="479" width="1" height="360" fill="#000000"/>
<rect width="480" height="1" fill="#000000"/>
<rect y="359" width="480" height="1" fill="#000000"/>
<g transform="translate(0.000000,360.000000) scale(0.100000,-0.100000)"
fill="#000000" stroke="none">
<path d="M40 3585 c-7 -8 -19 -15 -26 -15 -12 0 -14 -72 -14 -432 l1 -433 48
111 c114 262 273 506 460 707 34 35 61 67 61 71 0 3 -116 6 -259 6 -218 0
-261 -2 -271 -15z"/>
<path d="M3144 3533 c42 -84 91 -235 107 -330 8 -46 10 -128 6 -235 -4 -139
-10 -180 -36 -280 -32 -122 -35 -129 -115 -282 -74 -143 -201 -288 -369 -423
-73 -57 -216 -131 -327 -168 -256 -84 -466 -227 -623 -424 -38 -47 -80 -106
-95 -131 -14 -25 -37 -64 -52 -87 -15 -24 -33 -63 -39 -89 -7 -25 -18 -56 -25
-67 -8 -12 -27 -69 -42 -127 -23 -88 -28 -131 -31 -270 -4 -164 -1 -191 42
-384 7 -30 56 -157 77 -199 l18 -37 1278 0 1278 0 60 63 c211 218 393 502 508
794 l36 93 0 851 0 852 -36 91 c-108 271 -281 549 -487 779 l-70 77 -549 0
-548 0 34 -67z m-287 -2608 c61 -18 141 -86 173 -147 30 -58 37 -157 15 -232
-35 -119 -154 -199 -300 -199 -56 -1 -80 4 -120 25 -127 66 -189 209 -151 352
16 62 22 71 70 124 73 80 199 111 313 77z"/>
<path d="M1929 3272 c-112 -37 -184 -105 -219 -206 -38 -108 -20 -220 51 -312
75 -97 166 -139 288 -132 93 5 167 37 228 97 54 52 71 85 89 171 31 149 -40
296 -178 365 -71 36 -179 43 -259 17z"/>
<path d="M0 463 l0 -463 291 0 291 0 -54 60 c-225 256 -382 498 -479 743 l-49
122 0 -462z"/>
<path d="M4745 30 l-50 -30 53 0 c51 0 52 0 52 30 0 17 -1 30 -2 30 -2 0 -25
-14 -53 -30z"/>
</g>
</svg>
