<?xml version="1.0" standalone="no"?>
<!DOCTYPE svg PUBLIC "-//W3C//DTD SVG 20010904//EN"
 "http://www.w3.org/TR/2001/REC-SVG-20010904/DTD/svg10.dtd">
<svg version="1.0" xmlns="http://www.w3.org/2000/svg"
 width="480.000000pt" height="360.000000pt" viewBox="0 0 480.000000 360.000000"
 preserveAspectRatio="xMidYMid meet">
<metadata>
Created by potrace 1.16, written by Peter Selinger 2001-2019
</metadata>
<rect width="1" height="360" fill="#000000"/>
<rect x="479" width="1" height="360" fill="#000000"/>
<rect width="480" height="1" fill="#000000"/>
<rect y="359" width="480" height="1" fill="#000000"/>
<g transform="translate(0.000000,360.000000) scale(0.100000,-0.100000)"
fill="#000000" stroke="none">
<path d="M2352 1943 c-18 -8 -43 -29 -57 -44 -45 -55 -56 -195 -16 -219 15
-10 14 -12 -3 -23 -11 -7 -34 -25 -52 -40 l-33 -28 25 -56 c14 -31 22 -63 19
-71 -3 -8 1 -22 8 -31 8 -9 19 -41 25 -71 9 -51 8 -57 -17 -95 -15 -22 -44
-78 -65 -125 -20 -47 -50 -106 -66 -131 -64 -104 -83 -209 -51 -282 34 -79 75
-121 135 -140 29 -9 62 -17 73 -17 23 0 33 -37 33 -121 0 -40 6 -54 40 -95 43
-52 73 -73 105 -74 27 0 65 27 65 46 0 9 7 22 15 30 25 25 18 85 -16 138 -32
51 -32 76 -1 76 54 0 79 20 108 88 25 58 28 78 27 167 0 92 -16 173 -48 247
-5 13 -1 20 18 27 55 21 71 80 38 135 -10 17 -21 54 -25 81 -3 28 -15 79 -26
114 -13 45 -16 69 -9 77 12 14 -5 29 -21 19 -23 -15 -40 17 -40 76 0 46 -5 64
-20 79 -25 25 -25 37 -1 45 27 8 51 64 43 100 -11 48 -42 92 -82 114 -45 25
-83 26 -128 4z"/>
</g>
</svg>
