<?xml version="1.0" standalone="no"?>
<!DOCTYPE svg PUBLIC "-//W3C//DTD SVG 20010904//EN"
 "http://www.w3.org/TR/2001/REC-SVG-20010904/DTD/svg10.dtd">
<svg version="1.0" xmlns="http://www.w3.org/2000/svg"
 width="480.000000pt" height="360.000000pt" viewBox="0 0 480.000000 360.000000"
 preserveAspectRatio="xMidYMid meet">
<metadata>
Created by potrace 1.16, written by Peter Selinger 2001-2019
</metadata>
<rect width="1" height="360" fill="#000000"/>
<rect x="479" width="1" height="360" fill="#000000"/>
<rect width="480" height="1" fill="#000000"/>
<rect y="359" width="480" height="1" fill="#000000"/>
<g transform="translate(0.000000,360.000000) scale(0.100000,-0.100000)"
fill="#000000" stroke="none">
<path d="M0 1800 l0 -1800 998 0 998 0 12 133 c6 72 21 182 33 242 19 100 20
119 9 213 -9 80 -9 117 0 166 10 52 9 71 -4 117 -9 30 -15 72 -14 94 1 22 1
77 0 123 l-2 82 -41 -29 -41 -30 -168 6 c-113 4 -193 2 -244 -6 -68 -11 -79
-11 -105 5 l-30 18 -37 -36 c-20 -20 -52 -45 -73 -55 -44 -21 -126 -22 -221
-2 -25 5 -79 10 -120 12 -66 2 -75 4 -75 21 0 13 19 28 61 50 81 42 204 132
204 150 0 18 -55 35 -96 29 -41 -6 -68 22 -40 43 26 19 114 29 246 28 90 0
117 3 126 14 7 10 20 13 34 9 13 -3 32 1 46 10 21 13 30 13 88 -1 73 -19 207
-36 278 -36 47 0 47 0 58 43 6 23 25 87 42 141 24 80 28 104 19 123 -16 36 -4
70 52 148 61 85 83 139 68 172 -19 42 21 103 108 167 35 26 50 45 55 68 8 40
4 43 -33 24 -16 -9 -37 -16 -46 -16 -18 0 -115 91 -115 108 0 5 -16 19 -36 31
l-35 21 20 26 c12 15 21 32 21 39 0 22 -34 42 -75 43 -29 2 -46 9 -62 27 -12
14 -27 25 -33 25 -5 0 -10 15 -10 33 0 42 -9 52 -27 29 -12 -15 -13 -13 -8 18
4 19 23 85 43 145 36 113 60 148 135 201 l29 20 -13 62 c-8 40 -10 65 -3 72 9
9 98 15 143 8 23 -3 25 2 37 62 6 36 19 83 28 105 l17 39 22 -28 22 -27 34 45
c19 25 40 46 47 46 20 0 105 -102 157 -187 34 -58 49 -94 55 -135 6 -50 11
-60 42 -80 81 -54 163 -228 204 -434 9 -43 27 -162 41 -264 23 -174 29 -196
90 -365 69 -187 118 -378 131 -503 6 -61 4 -72 -8 -67 -11 4 -19 -9 -30 -49
-13 -49 -13 -61 1 -115 l15 -59 -46 -124 c-58 -153 -83 -238 -102 -350 -9 -53
-23 -98 -36 -115 -19 -26 -21 -47 -27 -286 l-6 -257 996 0 997 0 0 1800 0
1800 -2400 0 -2400 0 0 -1800z"/>
<path d="M2072 1165 c0 -27 4 -63 8 -80 6 -25 8 -20 8 25 0 30 -4 66 -8 80 -6
20 -8 14 -8 -25z"/>
</g>
</svg>
