<?xml version="1.0" standalone="no"?>
<!DOCTYPE svg PUBLIC "-//W3C//DTD SVG 20010904//EN"
 "http://www.w3.org/TR/2001/REC-SVG-20010904/DTD/svg10.dtd">
<svg version="1.0" xmlns="http://www.w3.org/2000/svg"
 width="480.000000pt" height="360.000000pt" viewBox="0 0 480.000000 360.000000"
 preserveAspectRatio="xMidYMid meet">
<metadata>
Created by potrace 1.16, written by Peter Selinger 2001-2019
</metadata>
<rect width="1" height="360" fill="#000000"/>
<rect x="479" width="1" height="360" fill="#000000"/>
<rect width="480" height="1" fill="#000000"/>
<rect y="359" width="480" height="1" fill="#000000"/>
<g transform="translate(0.000000,360.000000) scale(0.100000,-0.100000)"
fill="#000000" stroke="none">
<path d="M0 2316 l0 -1285 27 9 c16 4 56 11 91 14 34 3 76 13 94 22 20 10 78
19 170 26 174 12 184 15 185 63 1 20 -4 38 -10 40 -7 2 -24 6 -39 9 -28 6 -37
32 -19 52 29 30 108 364 95 399 -3 8 -22 17 -42 21 -37 7 -72 29 -72 46 0 5 9
18 20 30 11 12 20 28 20 36 0 7 6 34 14 60 8 26 22 80 31 120 16 70 16 74 -1
86 -15 11 -16 18 -6 42 6 16 11 54 11 85 -1 65 11 89 56 113 59 32 116 8 177
-74 16 -21 16 -26 3 -46 -15 -24 -13 -121 5 -184 6 -19 10 -50 10 -68 0 -28
11 -43 64 -94 l63 -61 -21 -33 c-11 -18 -28 -33 -36 -34 -40 -1 -41 -9 -26
-181 8 -90 24 -197 36 -236 11 -40 20 -77 20 -83 0 -18 -40 -11 -57 10 -24 27
-42 25 -54 -7 -10 -27 1 -46 53 -94 16 -16 15 -17 -25 -27 -43 -11 -148 -27
-397 -62 -256 -36 -313 -42 -377 -38 l-63 4 0 -498 0 -498 879 0 879 0 17 53
c16 50 16 62 1 161 -20 133 -20 242 -1 325 17 71 14 91 -11 91 -9 0 -31 9 -49
20 -72 44 -85 175 -47 473 26 211 27 223 10 209 -7 -5 -106 -41 -221 -80 -114
-38 -210 -71 -213 -74 -2 -3 0 -18 6 -33 16 -42 3 -43 -15 -2 -14 34 -17 36
-41 27 -15 -6 -49 -11 -76 -12 -41 0 -54 4 -75 25 -14 14 -23 32 -20 39 3 8
40 24 83 35 148 40 156 48 104 92 -29 25 -30 27 -15 49 21 28 30 28 61 -3 22
-22 24 -28 13 -41 -10 -13 -10 -17 2 -25 21 -14 57 -5 252 68 200 75 227 95
149 112 -43 9 -48 8 -63 -11 -21 -27 -47 -18 -51 19 -3 27 -5 28 -171 65 -93
20 -190 44 -215 52 -26 8 -59 17 -73 20 -32 7 -43 30 -28 58 7 13 16 17 27 13
30 -13 323 -85 343 -85 15 0 19 7 19 34 0 57 36 154 78 209 22 29 60 86 84
127 74 123 72 117 49 147 -23 29 -28 91 -10 126 19 36 62 78 96 92 l32 14 -46
46 c-33 32 -49 42 -54 33 -11 -18 -17 -9 -27 47 -4 28 -13 49 -19 48 -12 -2
-49 77 -58 124 -5 25 -23 45 -82 90 -42 32 -97 77 -123 100 -26 24 -50 40 -53
36 -4 -3 -7 -2 -7 4 0 5 -19 24 -42 41 -41 29 -62 46 -133 110 -45 40 -135
113 -180 147 -96 71 -329 325 -312 341 4 4 258 -204 287 -236 3 -3 34 -30 70
-60 36 -30 86 -72 111 -95 25 -22 63 -54 85 -72 21 -17 48 -40 59 -50 18 -16
247 -207 310 -257 l24 -19 60 56 c99 92 227 123 316 77 32 -16 46 -18 69 -10
37 13 160 13 207 0 54 -15 67 -34 46 -70 -21 -35 -22 -83 -2 -100 8 -7 15 -20
15 -30 0 -19 -136 -164 -162 -173 -14 -5 -16 -14 -12 -48 4 -29 2 -44 -7 -50
-10 -6 -6 -13 15 -30 16 -13 38 -44 50 -70 14 -33 38 -61 77 -91 31 -24 69
-59 84 -78 16 -19 51 -59 79 -89 58 -61 48 -62 -60 -10 -58 27 -90 57 -152
139 l-24 30 -34 -30 c-23 -19 -45 -30 -65 -30 -26 0 -30 -3 -24 -17 4 -10 17
-58 27 -108 11 -49 35 -124 53 -165 l33 -75 -29 -18 c-34 -22 -33 -21 -15 -55
8 -15 17 -35 20 -44 6 -19 9 -18 136 40 25 11 95 42 155 67 60 26 139 62 176
81 74 37 77 36 104 -29 14 -34 14 -37 -7 -51 -12 -9 -26 -16 -30 -16 -7 0
-132 -54 -244 -105 -16 -8 -68 -30 -115 -50 -46 -20 -88 -40 -92 -44 -9 -9 16
-65 33 -76 25 -16 622 -104 708 -105 24 0 11 -30 -20 -46 -27 -14 -52 -16
-153 -11 -103 6 -437 49 -472 61 -25 10 -21 -10 15 -78 34 -65 147 -225 202
-286 66 -74 74 -90 62 -124 -7 -18 -12 -45 -12 -60 0 -14 -7 -29 -15 -32 -8
-4 -15 -12 -15 -20 0 -8 -5 -14 -11 -14 -6 0 -20 -11 -31 -25 -22 -29 -87 -65
-116 -65 -33 0 -45 -24 -29 -57 30 -57 56 -171 68 -293 10 -106 16 -133 41
-177 18 -32 25 -54 18 -58 -11 -7 -13 -47 -4 -82 l6 -23 1139 0 1139 0 0 1800
0 1800 -273 0 -273 0 -1 -67 c-2 -137 -79 -258 -208 -324 -36 -19 -65 -40 -65
-46 0 -17 -15 -16 -29 1 -7 8 -42 15 -94 19 -45 3 -111 15 -147 28 -117 40
-130 40 -355 8 -388 -56 -474 -30 -617 186 -80 121 -81 121 -120 107 -19 -6
-40 -12 -48 -12 -20 0 -39 32 -40 68 l0 32 -1265 0 -1265 0 0 -1284z m3067
360 c26 -23 27 -26 12 -41 -19 -19 -42 -12 -64 21 -30 46 6 60 52 20z m498 14
c11 -17 -5 -32 -21 -19 -7 6 -11 15 -8 20 7 12 21 11 29 -1z m475 -168 c0 -15
-24 -32 -46 -32 -25 0 -39 14 -29 30 7 12 75 14 75 2z m-1676 -151 c7 -10 -22
-37 -30 -28 -9 8 3 37 15 37 5 0 12 -4 15 -9z m2025 -116 c14 -13 14 -17 0
-30 -36 -36 -139 -26 -139 14 0 39 104 51 139 16z m-1819 -25 c0 -5 -7 -10
-15 -10 -8 0 -15 5 -15 10 0 6 7 10 15 10 8 0 15 -4 15 -10z m1680 -1038 c0
-13 -12 -22 -22 -16 -10 6 -1 24 13 24 5 0 9 -4 9 -8z m330 -786 c6 -8 10 -25
8 -38 -5 -35 -66 -37 -104 -5 -24 21 -26 27 -15 41 17 21 94 22 111 2z"/>
<path d="M2852 3587 c10 -7 35 -25 58 -40 22 -16 44 -37 50 -47 9 -17 7 -18
-18 -10 -15 4 -52 19 -82 34 -36 17 -56 22 -59 14 -9 -26 108 -88 166 -88 39
0 158 21 228 40 61 17 278 91 295 101 9 5 -129 8 -320 8 -266 0 -331 -2 -318
-12z"/>
<path d="M1673 1906 c-61 -66 -61 -67 -66 -139 -3 -39 -8 -82 -12 -94 -6 -18
-4 -21 13 -16 15 3 22 -2 30 -25 8 -23 17 -30 48 -35 22 -4 44 -7 50 -7 16 0
36 49 41 102 4 45 3 49 -22 58 -23 9 -26 15 -21 38 13 61 18 150 9 166 -8 15
-18 9 -70 -48z"/>
<path d="M614 1889 c-3 -6 -1 -16 5 -22 8 -8 11 -5 11 11 0 24 -5 28 -16 11z"/>
<path d="M722 1228 c-9 -21 -19 -27 -49 -30 -44 -3 -52 -21 -25 -56 12 -16 30
-24 53 -25 33 -2 34 -1 39 44 3 25 3 56 -1 70 l-6 24 -11 -27z"/>
<path d="M2140 609 c0 -12 -42 -22 -84 -21 -21 1 -45 -3 -52 -9 -7 -6 -23 -9
-36 -7 -22 3 -23 -1 -30 -77 -26 -272 -35 -401 -28 -410 4 -5 10 -27 14 -47
l7 -38 234 0 c222 0 235 1 235 18 0 11 -9 30 -20 43 -16 18 -20 35 -19 74 2
38 -13 99 -61 250 -34 110 -66 207 -70 215 -8 14 -90 23 -90 9z"/>
</g>
</svg>
