<?xml version="1.0" standalone="no"?>
<!DOCTYPE svg PUBLIC "-//W3C//DTD SVG 20010904//EN"
 "http://www.w3.org/TR/2001/REC-SVG-20010904/DTD/svg10.dtd">
<svg version="1.0" xmlns="http://www.w3.org/2000/svg"
 width="480.000000pt" height="360.000000pt" viewBox="0 0 480.000000 360.000000"
 preserveAspectRatio="xMidYMid meet">
<metadata>
Created by potrace 1.16, written by Peter Selinger 2001-2019
</metadata>
<rect width="1" height="360" fill="#000000"/>
<rect x="479" width="1" height="360" fill="#000000"/>
<rect width="480" height="1" fill="#000000"/>
<rect y="359" width="480" height="1" fill="#000000"/>
<g transform="translate(0.000000,360.000000) scale(0.100000,-0.100000)"
fill="#000000" stroke="none">
<path d="M0 1800 l0 -1800 1178 2 1177 3 3 27 c2 16 9 28 17 28 16 0 29 -35
20 -50 -8 -13 31 -13 55 0 13 7 21 7 25 0 3 -5 22 -10 42 -10 30 0 34 2 23 14
-19 23 -24 96 -7 96 23 0 39 -24 25 -38 -9 -9 -9 -15 0 -24 7 -7 12 -20 12
-30 0 -17 48 -18 1115 -18 l1115 0 0 1800 0 1800 -2400 0 -2400 0 0 -1800z
m2135 1499 c0 -7 -8 -15 -17 -17 -18 -3 -25 18 -11 32 10 10 28 1 28 -15z
m317 -201 c-10 -10 -16 -8 -30 5 -15 16 -15 19 -2 27 21 13 49 -15 32 -32z
m-1127 -186 c0 -18 -20 -15 -23 4 -3 10 1 15 10 12 7 -3 13 -10 13 -16z m250
-109 c8 -28 -6 -30 -30 -3 -22 24 -13 63 9 39 8 -8 17 -24 21 -36z m916 -68
c-3 -44 -17 -75 -31 -75 -16 0 -11 50 5 56 11 5 12 11 5 24 -15 28 -12 42 8
38 13 -3 16 -12 13 -43z m-381 9 c0 -18 -14 -18 -29 0 -9 11 -9 15 1 19 17 6
28 -1 28 -19z m-320 1 c0 -8 -7 -15 -15 -15 -16 0 -20 12 -8 23 11 12 23 8 23
-8z m134 -47 c28 -55 19 -72 -20 -40 -27 23 -34 42 -22 65 11 22 22 16 42 -25z
m-234 6 c0 -8 -4 -14 -10 -14 -5 0 -10 9 -10 21 0 11 5 17 10 14 6 -3 10 -13
10 -21z m976 -8 c3 -8 1 -23 -4 -32 -9 -16 -11 -15 -21 5 -12 22 -7 41 10 41
5 0 12 -6 15 -14z m-116 -53 c0 -17 -19 -35 -29 -29 -18 12 -12 36 9 36 11 0
20 -3 20 -7z m-280 -35 c0 -32 0 -32 -16 -10 -15 22 -12 42 7 42 5 0 9 -15 9
-32z m-620 -14 c0 -22 -2 -25 -15 -14 -8 7 -15 19 -15 26 0 8 7 14 15 14 10 0
15 -10 15 -26z m464 7 c4 -5 3 -17 0 -26 -5 -13 -8 -14 -15 -3 -5 7 -9 19 -9
26 0 14 16 16 24 3z m554 -57 c-5 -28 -28 -29 -28 -1 0 13 3 27 7 31 10 10 25
-10 21 -30z m272 22 c0 -15 -18 -31 -26 -23 -7 7 7 37 17 37 5 0 9 -6 9 -14z
m-880 -36 c0 -35 -25 -42 -35 -10 -8 24 1 40 21 40 9 0 14 -11 14 -30z m-370
-53 c0 -20 -1 -20 -16 -5 -9 9 -13 21 -9 27 10 16 25 3 25 -22z m910 -11 c0
-8 -3 -22 -6 -31 -6 -14 -8 -13 -19 7 -6 13 -10 26 -8 31 7 13 33 7 33 -7z
m278 -35 c12 -7 12 -12 1 -30 -17 -27 -25 -27 -32 1 -9 34 4 47 31 29z m-1410
-109 c2 -12 -1 -22 -6 -22 -15 0 -34 28 -27 40 10 17 30 6 33 -18z m415 -65
c-6 -11 -43 22 -43 39 0 7 6 14 13 17 13 5 38 -42 30 -56z m-217 18 c4 -8 4
-22 0 -30 -4 -12 -10 -13 -31 -3 -37 17 -32 48 7 48 10 0 21 -7 24 -15z m1107
-39 c6 -15 -32 -56 -51 -56 -17 0 -15 36 4 54 19 20 40 21 47 2z m-323 -36 c0
-10 -4 -21 -9 -25 -12 -7 -25 31 -16 45 9 15 25 2 25 -20z m-740 -109 c0 -9 5
-22 12 -29 9 -9 9 -12 -3 -12 -22 0 -53 36 -46 54 8 20 37 9 37 -13z m-67 -23
c4 -12 4 -24 2 -26 -6 -7 -24 8 -35 29 -9 16 -7 19 8 19 12 0 22 -9 25 -22z
m1077 13 c0 -5 -7 -14 -15 -21 -13 -10 -15 -9 -15 9 0 12 6 21 15 21 8 0 15
-4 15 -9z m-862 -83 c7 -7 12 -20 12 -30 0 -18 -1 -18 -25 -1 -26 19 -33 43
-12 43 7 0 18 -5 25 -12z m1222 -71 c0 -27 -17 -52 -42 -60 -25 -9 -23 17 4
53 26 36 38 38 38 7z m130 -22 c-7 -8 -16 -15 -21 -15 -13 0 -11 24 3 38 18
18 35 -3 18 -23z m-704 1 c6 -17 -12 -56 -26 -56 -11 0 -14 53 -3 63 11 11 23
8 29 -7z m-76 -55 c0 -23 -16 -36 -25 -21 -9 14 1 40 15 40 5 0 10 -9 10 -19z
m357 4 c2 -6 -3 -20 -11 -30 -18 -25 -38 -9 -29 23 6 23 33 27 40 7z m-799
-33 c2 -12 -1 -22 -7 -22 -13 0 -32 35 -24 44 12 12 28 0 31 -22z m-328 -34
c0 -16 -42 -4 -54 15 -18 29 14 43 37 16 9 -12 17 -26 17 -31z m1285 23 c6
-11 -21 -41 -37 -41 -5 0 -7 7 -4 16 3 9 6 20 6 25 0 12 27 12 35 0z m-1345
-20 c14 -27 13 -31 -9 -31 -22 0 -45 25 -36 40 10 16 33 12 45 -9z m1180 -15
c0 -16 -24 -38 -33 -30 -8 9 11 44 23 44 6 0 10 -6 10 -14z m-541 -43 c1 -21
-17 -15 -24 7 -9 27 6 50 16 24 4 -10 8 -25 8 -31z m-91 -16 c2 -15 -1 -27 -6
-27 -17 0 -34 29 -28 46 9 23 31 11 34 -19z m592 -11 c0 -15 -18 -31 -26 -23
-7 7 7 37 17 37 5 0 9 -6 9 -14z m-432 -38 c14 -18 -3 -59 -22 -52 -21 8 -28
34 -15 50 14 17 24 18 37 2z m-144 -14 c10 -25 7 -34 -9 -34 -8 0 -15 4 -15 9
0 5 -3 16 -6 25 -4 10 -1 16 9 16 8 0 18 -7 21 -16z m852 -9 c2 -5 -3 -19 -11
-29 -19 -25 -40 -8 -30 24 7 21 35 25 41 5z m-498 -32 c-2 -9 -8 -18 -15 -20
-7 -3 -9 3 -6 16 6 25 26 28 21 4z m561 -37 c10 -12 8 -17 -9 -26 -19 -10 -19
-12 -5 -27 14 -14 14 -16 -2 -29 -29 -21 -34 -17 -28 24 13 76 21 86 44 58z
m-1492 -52 c-3 -3 -15 0 -27 6 -17 9 -19 14 -9 26 10 12 14 11 26 -6 8 -12 13
-24 10 -26z m906 10 c-8 -20 -33 -17 -33 4 0 10 3 22 7 25 10 11 32 -13 26
-29z m345 -11 c-4 -19 -65 -56 -79 -48 -14 9 9 45 34 55 34 14 49 11 45 -7z
m-980 -31 c2 -12 -1 -22 -6 -22 -15 0 -34 28 -27 40 10 17 30 6 33 -18z m522
2 c0 -16 -16 -19 -25 -4 -8 13 4 32 16 25 5 -4 9 -13 9 -21z m-312 -11 c-4
-22 -22 -20 -26 1 -2 10 3 16 13 16 10 0 15 -7 13 -17z m447 -43 c8 -13 -4
-50 -16 -50 -13 0 -22 27 -15 45 6 17 22 20 31 5z m-100 -61 c0 -15 -7 -25
-17 -27 -13 -3 -18 3 -18 21 0 13 3 27 7 31 13 12 28 -1 28 -25z m-404 11 c21
-12 25 -35 8 -45 -12 -8 -49 23 -49 42 0 16 14 17 41 3z m1146 -66 c4 -12 -39
-34 -67 -34 -25 0 -26 25 -2 39 21 13 64 10 69 -5z m-976 -57 c-13 -13 -26 -3
-16 12 3 6 11 8 17 5 6 -4 6 -10 -1 -17z m866 6 c5 -13 -43 -30 -54 -20 -3 4
-3 13 1 22 7 19 47 17 53 -2z m-927 -19 c0 -8 -7 -14 -15 -14 -15 0 -21 21 -9
33 10 9 24 -2 24 -19z m268 -16 c-5 -32 -28 -35 -28 -4 0 17 5 26 16 26 10 0
14 -7 12 -22z m244 -44 c-6 -11 -13 -27 -16 -37 -8 -27 -61 -20 -61 8 0 15 6
19 24 17 18 -2 22 2 17 14 -4 9 -1 23 5 31 19 22 45 -7 31 -33z m-172 -24 c13
-8 13 -11 -2 -27 -21 -20 -45 -5 -35 21 7 18 16 20 37 6z m-40 -50 c0 -11 -7
-20 -15 -20 -8 0 -15 9 -15 20 0 11 7 20 15 20 8 0 15 -9 15 -20z m-430 -85
c0 -18 -4 -23 -15 -19 -16 6 -20 26 -8 37 13 14 23 6 23 -18z m238 -7 c-7 -19
-38 -22 -38 -4 0 10 9 16 21 16 12 0 19 -5 17 -12z m258 -24 c-4 -9 -1 -23 5
-30 13 -15 4 -34 -17 -34 -14 0 -21 60 -7 73 12 13 25 7 19 -9z m-156 -75 c0
-21 -46 -53 -66 -45 -24 9 -16 36 11 36 18 0 23 4 19 15 -4 8 -3 23 1 33 6 16
7 16 21 -2 8 -11 14 -27 14 -37z m-272 -26 c5 -17 -26 -29 -40 -15 -6 6 -7 15
-3 22 9 14 37 9 43 -7z m152 4 c0 -21 -12 -28 -27 -16 -19 16 -16 29 7 29 11
0 20 -6 20 -13z m589 -6 c21 -13 5 -41 -24 -41 -27 0 -33 18 -13 38 14 14 19
15 37 3z m-119 -52 c0 -4 -9 -13 -19 -18 -22 -12 -37 9 -19 27 11 11 38 5 38
-9z m-560 -83 c-13 -13 -35 7 -25 24 5 8 11 8 21 -1 10 -8 12 -15 4 -23z m630
-21 c0 -16 -35 -21 -44 -6 -8 12 4 21 26 21 10 0 18 -7 18 -15z m-360 -8 c0
-8 -3 -17 -7 -20 -9 -9 -34 13 -27 24 8 14 34 11 34 -4z m87 -22 c7 -20 -2
-29 -21 -22 -9 4 -13 13 -10 22 8 19 23 19 31 0z m-227 -51 c0 -14 -21 -19
-33 -7 -9 9 13 34 24 27 5 -3 9 -12 9 -20z m778 9 c5 -17 -26 -29 -40 -15 -6
6 -7 15 -3 22 9 14 37 9 43 -7z m-878 -43 c0 -5 -4 -11 -9 -14 -4 -3 -6 -17
-3 -31 3 -18 0 -25 -12 -25 -11 0 -15 9 -14 38 0 20 3 40 5 44 5 9 33 -1 33
-12z m438 3 c-4 -22 -48 -31 -48 -10 0 19 10 27 32 27 13 0 18 -6 16 -17z
m-115 -8 c1 -5 -6 -11 -15 -13 -11 -2 -18 3 -18 13 0 17 30 18 33 0z m-113
-29 c0 -16 -18 -31 -27 -22 -8 8 5 36 17 36 5 0 10 -6 10 -14z m76 -35 c-8
-13 -36 -15 -36 -3 0 4 5 13 12 20 14 14 34 0 24 -17z m273 6 c13 -16 5 -27
-20 -27 -24 0 -35 20 -18 31 19 12 25 11 38 -4z m84 -14 c12 -11 -13 -31 -33
-26 -28 7 -25 33 3 33 13 0 27 -3 30 -7z m-378 -52 c3 -5 1 -13 -5 -16 -15 -9
-43 3 -35 15 8 13 32 13 40 1z m209 1 c9 -14 -12 -35 -28 -29 -23 9 -20 37 3
37 11 0 22 -4 25 -8z m72 -13 c3 -6 1 -16 -4 -21 -13 -13 -45 8 -36 23 7 12
31 11 40 -2z m-76 -39 c11 -7 12 -12 3 -21 -15 -15 -63 -3 -63 16 0 17 37 20
60 5z m-182 -72 c4 -21 -37 -36 -48 -17 -13 20 1 40 24 37 11 -2 22 -10 24
-20z m210 -11 c3 -14 -1 -18 -20 -15 -12 2 -24 11 -26 21 -3 14 1 18 20 15 12
-2 24 -11 26 -21z m-510 -20 c4 -21 -25 -34 -40 -19 -8 8 -8 16 2 27 16 19 34
15 38 -8z m266 -33 c3 -9 4 -20 1 -24 -9 -15 -35 1 -35 21 0 23 25 25 34 3z
m126 -9 c0 -8 -7 -15 -15 -15 -8 0 -15 7 -15 15 0 8 7 15 15 15 8 0 15 -7 15
-15z m155 -39 c37 -30 28 -41 -22 -29 -28 6 -39 14 -41 31 -5 30 24 29 63 -2z
m-527 -29 c2 -12 -3 -17 -17 -17 -23 0 -24 1 -15 25 8 19 28 15 32 -8z m450
-34 c5 -17 -26 -29 -40 -15 -6 6 -7 15 -3 22 9 14 37 9 43 -7z m-240 -16 c2
-12 -3 -17 -17 -17 -15 0 -21 6 -21 21 0 25 33 22 38 -4z m142 8 c10 -12 9
-16 -5 -21 -16 -6 -34 9 -35 29 0 13 27 8 40 -8z m-332 -48 c3 -22 -1 -27 -18
-27 -26 0 -37 25 -20 45 18 22 34 13 38 -18z m80 -4 c-3 -30 -25 -42 -34 -19
-9 22 2 46 21 46 12 0 15 -8 13 -27z m223 -36 c7 -45 -6 -59 -50 -51 -42 9
-47 20 -16 40 13 9 22 20 19 25 -8 14 6 30 24 27 11 -2 19 -17 23 -41z m-222
-49 c11 -28 6 -38 -20 -38 -14 0 -19 7 -19 30 0 36 26 41 39 8z"/>
</g>
</svg>
