<?xml version="1.0" standalone="no"?>
<!DOCTYPE svg PUBLIC "-//W3C//DTD SVG 20010904//EN"
 "http://www.w3.org/TR/2001/REC-SVG-20010904/DTD/svg10.dtd">
<svg version="1.0" xmlns="http://www.w3.org/2000/svg"
 width="480.000000pt" height="360.000000pt" viewBox="0 0 480.000000 360.000000"
 preserveAspectRatio="xMidYMid meet">
<metadata>
Created by potrace 1.16, written by Peter Selinger 2001-2019
</metadata>
<rect width="1" height="360" fill="#000000"/>
<rect x="479" width="1" height="360" fill="#000000"/>
<rect width="480" height="1" fill="#000000"/>
<rect y="359" width="480" height="1" fill="#000000"/>
<g transform="translate(0.000000,360.000000) scale(0.100000,-0.100000)"
fill="#000000" stroke="none">
<path d="M2130 2531 c-8 -6 -26 -7 -40 -4 -21 4 -28 0 -38 -22 -7 -15 -15 -46
-18 -69 -5 -35 -2 -44 20 -65 14 -14 26 -30 26 -36 0 -6 9 -30 20 -53 25 -50
25 -48 -1 -55 -15 -4 -20 -11 -15 -23 4 -11 -9 -40 -39 -84 -52 -76 -57 -112
-20 -136 20 -13 25 -25 25 -56 0 -21 -7 -53 -16 -69 -8 -17 -17 -40 -19 -51
-9 -46 -28 -94 -45 -113 -22 -24 -26 -44 -16 -67 5 -10 3 -39 -3 -65 -26 -115
-44 -317 -45 -502 l-1 -194 45 -23 c25 -13 75 -33 112 -45 48 -15 69 -27 74
-42 12 -39 -32 -59 -184 -82 -71 -11 -66 -58 7 -71 20 -3 46 -13 58 -20 15 -9
51 -14 110 -13 48 0 100 -4 115 -10 55 -21 148 13 148 55 0 18 -7 27 -27 34
-48 17 -58 26 -68 63 -5 19 -13 39 -17 43 -17 16 -6 32 26 38 49 9 94 34 101
56 3 11 -1 95 -9 187 -8 92 -20 223 -26 289 -5 68 -23 174 -40 240 -34 133
-33 169 6 245 28 56 30 81 9 140 -9 24 -13 54 -10 67 3 12 1 22 -5 22 -5 0
-10 15 -10 34 0 32 -26 99 -53 139 -10 14 -9 19 3 27 8 5 17 7 21 4 4 -2 10 0
14 5 3 6 12 8 20 4 16 -6 45 50 45 87 0 44 -78 163 -122 186 -31 16 -96 18
-118 5z m125 -650 c-4 -17 -11 -31 -16 -31 -10 0 -12 25 -3 58 10 35 27 10 19
-27z"/>
<path d="M4762 1153 c-12 -11 -23 -37 -27 -65 -6 -45 -5 -48 24 -62 16 -9 32
-16 36 -16 3 0 5 36 5 80 0 44 -4 80 -9 80 -5 0 -18 -8 -29 -17z"/>
</g>
</svg>
