<?xml version="1.0" standalone="no"?>
<!DOCTYPE svg PUBLIC "-//W3C//DTD SVG 20010904//EN"
 "http://www.w3.org/TR/2001/REC-SVG-20010904/DTD/svg10.dtd">
<svg version="1.0" xmlns="http://www.w3.org/2000/svg"
 width="480.000000pt" height="360.000000pt" viewBox="0 0 480.000000 360.000000"
 preserveAspectRatio="xMidYMid meet">
<metadata>
Created by potrace 1.16, written by Peter Selinger 2001-2019
</metadata>
<rect width="1" height="360" fill="#000000"/>
<rect x="479" width="1" height="360" fill="#000000"/>
<rect width="480" height="1" fill="#000000"/>
<rect y="359" width="480" height="1" fill="#000000"/>
<g transform="translate(0.000000,360.000000) scale(0.100000,-0.100000)"
fill="#000000" stroke="none">
<path d="M2583 3173 c-19 -7 -15 -31 7 -43 21 -11 50 -59 50 -83 0 -8 -18 -22
-40 -32 -53 -24 -122 -91 -148 -146 -12 -25 -25 -73 -28 -107 l-7 -62 -33 6
c-30 5 -34 4 -34 -14 0 -11 18 -36 40 -55 22 -19 40 -40 40 -48 0 -39 -139
-146 -196 -151 -51 -4 -60 -37 -17 -65 15 -10 33 -24 39 -32 9 -12 20 -7 65
26 54 40 55 40 87 25 20 -10 31 -21 28 -29 -3 -7 -3 -35 1 -61 5 -37 8 -42 13
-23 5 22 8 20 37 -27 20 -32 41 -54 56 -57 31 -8 37 -47 37 -219 0 -157 -15
-256 -39 -276 -10 -8 -22 -25 -25 -37 -7 -23 -276 -210 -356 -247 -55 -26 -94
-49 -230 -136 -58 -37 -165 -102 -237 -145 -73 -42 -133 -83 -133 -91 0 -8 -9
-19 -21 -26 -31 -19 -89 -105 -89 -132 0 -13 7 -29 15 -36 8 -7 15 -17 15 -23
0 -6 -34 -85 -76 -176 -79 -174 -83 -193 -33 -199 19 -1 30 7 51 40 15 24 46
70 70 103 24 33 61 89 82 124 33 54 41 61 51 48 6 -9 35 -101 63 -205 64 -235
67 -242 91 -242 18 0 173 199 344 442 72 101 152 184 215 219 l55 32 16 -23
c9 -12 40 -49 70 -81 l54 -59 -7 -80 c-4 -44 -16 -110 -27 -147 -12 -42 -19
-100 -20 -153 0 -47 -4 -134 -10 -195 -5 -60 -12 -147 -15 -192 l-5 -83 541 0
540 0 1 28 c1 18 3 21 6 9 3 -11 11 -16 19 -13 8 3 14 -1 14 -9 0 -13 24 -15
145 -15 l145 0 0 217 c0 120 2 296 6 390 l6 173 -42 142 c-24 79 -72 217 -108
308 -122 312 -133 345 -120 381 10 28 8 34 -10 48 -20 15 -21 30 -30 346 -5
182 -8 332 -6 334 2 2 13 -8 25 -22 25 -33 43 -34 63 -5 22 31 21 35 -17 47
-76 25 -139 145 -117 222 16 56 12 144 -11 204 -23 61 -104 157 -174 205 -113
77 -402 127 -555 94 -20 -4 -29 2 -48 31 -31 49 -96 76 -139 58z"/>
</g>
</svg>
