<?xml version="1.0" standalone="no"?>
<!DOCTYPE svg PUBLIC "-//W3C//DTD SVG 20010904//EN"
 "http://www.w3.org/TR/2001/REC-SVG-20010904/DTD/svg10.dtd">
<svg version="1.0" xmlns="http://www.w3.org/2000/svg"
 width="480.000000pt" height="360.000000pt" viewBox="0 0 480.000000 360.000000"
 preserveAspectRatio="xMidYMid meet">
<metadata>
Created by potrace 1.16, written by Peter Selinger 2001-2019
</metadata>
<rect width="1" height="360" fill="#000000"/>
<rect x="479" width="1" height="360" fill="#000000"/>
<rect width="480" height="1" fill="#000000"/>
<rect y="359" width="480" height="1" fill="#000000"/>
<g transform="translate(0.000000,360.000000) scale(0.100000,-0.100000)"
fill="#000000" stroke="none">
<path d="M4671 3461 l21 -26 -29 -22 c-15 -12 -39 -32 -52 -44 -19 -17 -33
-20 -67 -16 -24 2 -46 2 -49 -2 -4 -3 -10 -6 -13 -6 -18 -1 -63 -40 -87 -75
-20 -28 -37 -41 -61 -46 -18 -3 -35 -12 -38 -20 -3 -8 -19 -14 -39 -14 l-34 0
5 -49 c4 -43 2 -50 -17 -56 -11 -3 -21 -11 -21 -17 0 -13 35 -63 84 -119 l40
-45 -3 -138 c-3 -136 4 -194 39 -343 9 -40 14 -75 12 -78 -3 -3 -27 -8 -54
-11 -29 -4 -44 -10 -38 -14 15 -9 -27 -17 -179 -30 -63 -6 -135 -8 -160 -6
-39 4 -41 4 -16 -4 22 -7 8 -8 -50 -5 -46 2 -67 1 -50 -4 28 -7 27 -7 -19 -14
-26 -4 -73 -4 -103 0 -42 4 -57 3 -64 -8 -6 -10 -33 -14 -106 -14 -66 1 -87
-2 -63 -7 26 -5 20 -6 -22 -3 -35 2 -58 -1 -60 -7 -5 -13 -58 19 -58 35 0 13
-31 36 -51 37 -19 0 -59 41 -59 59 0 9 -8 11 -20 8 -12 -3 -35 -1 -53 4 -36
10 -251 -7 -280 -23 -14 -7 -17 -16 -12 -36 15 -62 12 -77 -17 -77 -34 1 -34
-2 -7 -32 19 -19 20 -25 8 -39 -11 -14 -11 -18 6 -30 23 -17 37 -18 52 -3 7 7
17 0 33 -27 23 -36 24 -36 76 -31 l52 5 83 -76 c46 -42 99 -95 118 -117 86
-96 178 -188 203 -201 55 -29 183 -12 359 47 120 40 179 66 179 80 0 7 8 5 20
-6 29 -26 102 -31 157 -10 l47 18 21 -27 c18 -25 20 -39 17 -184 -5 -227 9
-339 54 -429 19 -39 38 -87 41 -107 5 -32 1 -41 -52 -98 -31 -35 -61 -72 -66
-83 -5 -11 -27 -53 -49 -94 -22 -41 -40 -79 -40 -84 0 -17 -174 -362 -197
-390 -13 -16 -23 -33 -23 -38 0 -5 -15 -32 -33 -61 -32 -51 -107 -193 -107
-203 0 -3 230 -5 510 -5 l510 0 0 1743 0 1742 -75 1 -74 1 20 -26z m-983
-1218 c-10 -2 -26 -2 -35 0 -10 3 -2 5 17 5 19 0 27 -2 18 -5z m332 -22 c-44
-26 -614 -91 -632 -73 -18 18 -6 20 322 53 52 5 124 13 160 18 90 12 169 13
150 2z m-159 -98 c-5 -31 -11 -38 -36 -44 -37 -9 -120 -41 -160 -63 -16 -9
-34 -16 -40 -16 -5 0 -21 -9 -35 -20 -14 -11 -28 -20 -32 -20 -16 0 -138 131
-138 149 0 4 12 8 28 9 15 2 99 11 187 21 88 10 176 19 196 20 l36 1 -6 -37z"/>
<path d="M1730 3226 c0 -59 -20 -70 -65 -34 l-28 22 5 -22 c4 -12 3 -22 -1
-22 -3 0 -11 -10 -16 -22 -7 -16 -21 -25 -45 -28 -27 -4 -31 -7 -17 -13 10 -4
26 -7 36 -7 9 0 22 -5 28 -11 13 -13 -49 -66 -132 -114 -27 -15 -56 -35 -63
-44 -7 -9 -28 -16 -52 -16 -23 0 -42 -5 -45 -12 -2 -8 -17 -18 -31 -24 -20 -7
-24 -13 -16 -21 9 -9 6 -14 -11 -23 -35 -17 -29 -31 43 -120 48 -58 52 -72 40
-130 -8 -37 -8 -65 -1 -89 8 -29 6 -43 -12 -78 -11 -24 -20 -49 -19 -55 2 -7
-2 -13 -8 -13 -18 0 -11 -18 11 -25 13 -4 17 -11 11 -18 -5 -7 -8 -32 -7 -57
1 -38 -4 -52 -36 -91 -21 -25 -43 -58 -48 -73 -6 -14 -18 -26 -26 -26 -11 0
-15 -6 -11 -17 9 -30 10 -88 2 -101 -4 -7 -1 -12 8 -12 11 0 15 -16 15 -72 0
-40 4 -108 8 -150 7 -68 12 -81 39 -109 l31 -31 44 15 c24 8 60 14 79 13 29
-1 35 -6 42 -31 4 -17 18 -61 32 -100 14 -38 26 -86 26 -106 0 -21 7 -42 16
-50 47 -38 39 -107 -20 -184 -50 -65 -61 -84 -146 -250 -116 -227 -170 -314
-314 -505 -56 -74 -113 -155 -127 -180 -14 -25 -30 -54 -36 -65 -24 -43 -53
-106 -53 -115 0 -6 239 -10 654 -10 l654 0 5 43 c3 23 13 103 23 177 13 101
18 206 18 415 1 294 -5 352 -46 436 -11 24 -22 66 -23 95 -2 47 0 53 26 68 25
15 29 24 29 59 0 23 -6 76 -14 117 -8 41 -17 107 -21 145 l-7 70 46 13 c25 6
59 9 75 6 54 -11 121 55 121 120 0 26 -43 95 -92 147 -40 44 -58 79 -52 107 3
16 1 32 -4 36 -6 3 -8 24 -5 46 7 48 -8 66 -89 108 -46 24 -53 32 -63 72 -7
25 -19 59 -27 75 -12 23 -14 51 -10 118 3 67 0 103 -13 147 l-17 58 41 60 c41
62 49 78 31 67 -13 -8 -13 11 1 36 9 18 7 19 -14 14 -19 -5 -25 -2 -30 15 -4
16 -11 20 -24 16 -14 -4 -26 3 -41 24 -13 16 -28 30 -35 30 -28 0 -94 41 -136
84 -51 53 -47 68 22 82 l42 8 -43 4 c-54 4 -63 24 -28 59 35 35 24 44 -12 10
-39 -38 -52 -34 -52 12 0 22 -4 43 -10 46 -6 3 -10 -5 -10 -19z"/>
<path d="M4068 2303 c18 -2 45 -2 60 0 15 2 0 4 -33 4 -33 0 -45 -2 -27 -4z"/>
<path d="M3988 2293 c7 -3 16 -2 19 1 4 3 -2 6 -13 5 -11 0 -14 -3 -6 -6z"/>
</g>
</svg>
