<?xml version="1.0" standalone="no"?>
<!DOCTYPE svg PUBLIC "-//W3C//DTD SVG 20010904//EN"
 "http://www.w3.org/TR/2001/REC-SVG-20010904/DTD/svg10.dtd">
<svg version="1.0" xmlns="http://www.w3.org/2000/svg"
 width="480.000000pt" height="360.000000pt" viewBox="0 0 480.000000 360.000000"
 preserveAspectRatio="xMidYMid meet">
<metadata>
Created by potrace 1.16, written by Peter Selinger 2001-2019
</metadata>
<rect width="1" height="360" fill="#000000"/>
<rect x="479" width="1" height="360" fill="#000000"/>
<rect width="480" height="1" fill="#000000"/>
<rect y="359" width="480" height="1" fill="#000000"/>
<g transform="translate(0.000000,360.000000) scale(0.100000,-0.100000)"
fill="#000000" stroke="none">
<path d="M2750 3230 c-71 -13 -132 -38 -174 -72 -21 -17 -49 -32 -62 -34 -34
-3 -45 -13 -43 -37 2 -12 -12 -52 -29 -89 -23 -48 -36 -92 -42 -150 -15 -128
-13 -155 10 -161 10 -3 21 0 24 7 2 6 5 5 5 -4 1 -8 13 -28 27 -45 15 -17 23
-22 20 -12 -3 9 -1 17 4 17 5 0 12 -9 15 -21 5 -14 10 -17 18 -10 8 6 20 3 36
-11 23 -18 24 -22 13 -51 -11 -28 -10 -33 5 -42 9 -5 26 -19 37 -30 12 -11 45
-40 74 -64 47 -39 56 -42 77 -33 21 10 24 8 28 -11 3 -21 4 -20 15 6 7 16 16
25 22 22 13 -8 13 -45 1 -45 -5 0 -19 -16 -31 -35 -12 -19 -42 -50 -67 -67
-43 -31 -163 -170 -163 -189 0 -14 11 -11 32 8 27 24 22 5 -24 -93 -53 -112
-60 -185 -29 -294 11 -41 19 -75 17 -77 -2 -2 -44 16 -92 40 -49 25 -131 58
-183 73 -79 24 -97 33 -112 58 -11 17 -17 37 -14 44 3 8 -2 23 -10 35 -19 27
-19 66 0 91 8 11 13 28 10 37 -4 11 1 20 14 24 33 10 35 52 6 91 -14 19 -31
48 -37 64 -10 29 -40 41 -52 21 -3 -5 -26 -12 -52 -16 -96 -14 -134 -84 -134
-247 0 -38 -10 -125 -21 -191 -16 -94 -20 -142 -15 -210 7 -87 22 -141 37
-131 4 2 11 -12 15 -33 4 -21 11 -43 15 -49 5 -7 -12 -78 -45 -180 -66 -206
-71 -236 -45 -252 10 -7 32 -12 47 -12 27 0 112 -51 112 -68 0 -14 89 -97 124
-116 55 -29 65 -11 30 54 -36 67 -31 71 91 75 57 2 92 10 110 25 30 25 26 84
-25 409 -34 213 -33 221 10 220 8 0 60 -30 115 -67 86 -58 100 -71 103 -97 1
-17 7 -48 12 -71 10 -42 2 -85 -63 -371 -15 -62 -31 -152 -37 -200 -6 -48 -16
-113 -21 -143 -14 -73 -90 -333 -129 -437 l-30 -83 720 0 c396 0 720 3 720 8
0 4 -29 56 -65 116 -93 157 -133 242 -235 500 -106 266 -136 328 -238 491
-101 163 -138 298 -130 479 3 70 8 90 21 98 12 6 15 14 9 25 -11 19 11 119 31
141 8 10 22 31 30 47 14 26 16 27 17 8 0 -21 20 -44 20 -23 0 6 12 15 26 20
24 9 26 14 20 48 -13 83 -69 260 -97 305 -16 27 -29 50 -29 53 0 11 21 2 40
-18 l20 -22 0 25 c0 19 2 21 10 9 8 -12 10 -10 10 10 0 30 20 66 20 38 0 -29
18 -20 25 12 7 31 20 39 29 18 3 -7 2 7 -1 31 -6 42 -5 43 17 36 20 -6 22 -5
15 11 -16 42 -23 74 -15 74 5 0 12 -4 15 -10 3 -5 10 -10 16 -10 5 0 -2 22
-16 50 -30 59 -32 74 -5 40 30 -39 24 -8 -19 87 -21 49 -47 122 -56 163 -26
111 -59 174 -130 245 -101 101 -137 121 -225 128 -41 3 -95 2 -120 -3z"/>
</g>
</svg>
