<?xml version="1.0" standalone="no"?>
<!DOCTYPE svg PUBLIC "-//W3C//DTD SVG 20010904//EN"
 "http://www.w3.org/TR/2001/REC-SVG-20010904/DTD/svg10.dtd">
<svg version="1.0" xmlns="http://www.w3.org/2000/svg"
 width="480.000000pt" height="360.000000pt" viewBox="0 0 480.000000 360.000000"
 preserveAspectRatio="xMidYMid meet">
<metadata>
Created by potrace 1.16, written by Peter Selinger 2001-2019
</metadata>
<rect width="1" height="360" fill="#000000"/>
<rect x="479" width="1" height="360" fill="#000000"/>
<rect width="480" height="1" fill="#000000"/>
<rect y="359" width="480" height="1" fill="#000000"/>
<g transform="translate(0.000000,360.000000) scale(0.100000,-0.100000)"
fill="#000000" stroke="none">
<path d="M0 1800 l0 -1800 780 0 c429 0 780 2 780 4 0 9 -131 302 -221 493
-55 117 -105 237 -111 268 -11 50 -10 59 10 100 27 55 28 81 5 94 -17 10 -16
12 5 29 20 15 23 24 17 53 -7 37 7 157 25 222 13 44 30 47 82 12 27 -18 50
-25 85 -25 60 0 70 6 78 51 10 55 46 110 95 146 25 18 69 53 98 78 29 25 65
48 80 51 15 3 32 7 38 9 7 2 13 66 17 177 10 260 9 362 -5 376 -17 17 -25 15
-31 -8 -3 -12 -14 -20 -26 -20 -21 0 -196 95 -207 112 -3 5 2 21 12 36 11 16
17 41 15 64 -2 35 -1 37 36 44 24 4 52 20 75 42 l37 35 -53 57 c-29 32 -60 74
-70 95 -41 86 8 170 119 204 l60 18 38 77 c21 42 63 103 94 136 96 104 197
138 434 147 141 5 163 4 225 -15 38 -12 89 -35 114 -52 61 -40 144 -124 181
-181 26 -41 36 -48 72 -54 92 -16 157 -73 157 -140 -1 -43 -30 -102 -84 -168
l-46 -57 25 -49 c13 -27 43 -71 66 -97 37 -43 41 -52 36 -87 -3 -22 -14 -48
-24 -59 -18 -18 -19 -18 -42 3 -12 11 -23 19 -25 18 -1 -2 -14 -25 -29 -50
-22 -39 -24 -51 -17 -85 11 -48 26 -207 41 -414 20 -292 17 -276 55 -321 84
-100 142 -277 127 -386 -4 -31 1 -59 17 -103 26 -70 23 -120 -11 -157 l-23
-23 33 -73 c18 -39 35 -79 38 -89 5 -18 -40 -54 -56 -44 -6 4 -18 43 -27 87
-17 77 -18 79 -31 55 -12 -22 -10 -33 12 -87 31 -78 33 -103 5 -96 -11 3 -22
2 -24 -1 -4 -7 8 -228 20 -369 l6 -83 809 0 809 0 0 1800 0 1800 -2400 0
-2400 0 0 -1800z"/>
<path d="M2991 2759 c10 -33 19 -69 19 -79 0 -10 4 -21 8 -24 14 -8 53 51 59
89 5 29 2 35 -23 48 -16 8 -41 17 -55 21 l-27 6 19 -61z"/>
<path d="M1745 2731 c-77 -35 -80 -68 -12 -142 61 -65 62 -65 62 9 0 37 4 86
8 110 10 49 4 52 -58 23z"/>
<path d="M1760 931 c0 -16 -7 -45 -16 -66 -11 -28 -19 -35 -32 -30 -53 22 -55
21 -47 -32 6 -46 5 -50 -20 -61 -14 -7 -36 -12 -48 -12 -49 0 -49 -9 -7 -156
44 -150 83 -274 107 -341 14 -37 21 -44 55 -54 22 -6 42 -8 45 -5 3 2 7 78 10
168 5 143 3 171 -13 219 -32 94 -16 247 36 332 33 53 27 67 -25 67 -43 0 -45
-1 -45 -29z"/>
</g>
</svg>
