<?xml version="1.0" standalone="no"?>
<!DOCTYPE svg PUBLIC "-//W3C//DTD SVG 20010904//EN"
 "http://www.w3.org/TR/2001/REC-SVG-20010904/DTD/svg10.dtd">
<svg version="1.0" xmlns="http://www.w3.org/2000/svg"
 width="480.000000pt" height="360.000000pt" viewBox="0 0 480.000000 360.000000"
 preserveAspectRatio="xMidYMid meet">
<metadata>
Created by potrace 1.16, written by Peter Selinger 2001-2019
</metadata>
<rect width="1" height="360" fill="#000000"/>
<rect x="479" width="1" height="360" fill="#000000"/>
<rect width="480" height="1" fill="#000000"/>
<rect y="359" width="480" height="1" fill="#000000"/>
<g transform="translate(0.000000,360.000000) scale(0.100000,-0.100000)"
fill="#000000" stroke="none">
<path d="M0 1800 l0 -1800 2400 0 2400 0 0 1800 0 1800 -2400 0 -2400 0 0
-1800z m2306 1075 c4 -8 19 -15 34 -15 39 0 45 -15 21 -49 -32 -45 -28 -61 17
-61 26 1 47 9 72 30 30 27 41 30 100 30 42 0 79 -7 105 -19 40 -19 167 -123
174 -143 6 -17 -56 -2 -88 21 -15 11 -39 23 -53 26 -29 7 -43 -8 -49 -54 -4
-21 2 -26 43 -40 52 -18 116 -73 124 -108 4 -14 19 -26 40 -33 19 -6 34 -18
34 -26 0 -8 5 -14 11 -14 12 0 38 -29 39 -42 0 -5 -7 -8 -15 -8 -12 0 -13 -4
-5 -19 14 -28 12 -36 -5 -21 -28 23 -41 -3 -39 -77 l3 -68 93 -12 c153 -20
158 -22 158 -44 0 -15 -5 -18 -22 -14 -45 11 -118 22 -118 19 0 -2 25 -19 55
-39 l56 -35 117 21 c86 15 138 20 197 15 115 -8 126 -11 137 -29 5 -10 14 -14
20 -11 8 5 9 1 5 -10 -4 -10 2 -25 16 -39 12 -12 21 -25 20 -29 -2 -5 11 -8
28 -8 20 0 28 -4 23 -12 -5 -7 0 -9 14 -6 15 4 19 2 15 -8 -3 -9 3 -14 18 -15
l24 0 -22 -9 c-27 -11 -30 -35 -7 -48 14 -8 14 -10 -1 -25 -9 -10 -13 -17 -8
-17 4 0 9 -11 9 -25 2 -22 -1 -25 -20 -20 -20 6 -20 5 -3 -8 16 -14 16 -15 -4
-20 -12 -3 -35 1 -52 9 -16 9 -27 12 -24 7 7 -11 -23 -38 -52 -48 -18 -5 -20
-9 -10 -21 10 -13 7 -14 -24 -11 -20 2 -42 9 -49 14 -7 5 -22 13 -33 16 -14 5
-10 -2 13 -21 52 -46 37 -46 -23 -1 -60 45 -82 52 -260 79 -98 15 -134 26
-200 59 -75 39 -137 52 -149 32 -3 -4 2 -34 11 -65 12 -44 13 -62 5 -81 -14
-30 -47 -33 -64 -5 -15 23 -28 26 -28 7 0 -7 -6 -22 -14 -33 -24 -31 -45 0
-50 71 l-4 60 -39 8 c-23 5 -75 4 -131 -3 -82 -10 -96 -10 -118 5 -19 12 -23
21 -18 40 5 20 2 25 -18 29 -31 8 -251 26 -307 26 -55 0 -44 -17 14 -23 38 -5
48 -19 27 -38 -6 -6 -166 25 -310 59 -33 8 -44 7 -50 -4 -4 -7 -18 -15 -32
-16 -18 -2 -28 4 -37 23 -10 21 -22 28 -61 33 -91 13 -102 17 -117 46 -8 16
-15 34 -15 40 0 13 87 8 285 -15 66 -8 212 -22 324 -30 l203 -16 29 33 c16 18
49 71 75 118 42 77 45 87 35 115 -6 17 -11 40 -11 51 0 53 -21 93 -58 111 -45
22 -55 60 -23 92 12 12 23 21 26 21 3 0 11 0 19 0 8 0 14 10 14 25 0 14 -6 25
-14 25 -7 0 -20 14 -29 30 -9 17 -19 30 -24 30 -5 0 -31 23 -60 51 -38 38 -51
57 -51 80 0 32 15 37 46 14 27 -21 29 -19 29 28 1 48 10 77 25 77 6 0 13 -7
16 -15z"/>
<path d="M2407 2483 c-15 -14 6 -93 25 -93 15 0 29 43 23 71 -6 27 -31 39 -48
22z"/>
<path d="M2800 2340 c0 -5 5 -10 11 -10 5 0 7 5 4 10 -3 6 -8 10 -11 10 -2 0
-4 -4 -4 -10z"/>
<path d="M2670 2324 c0 -21 28 -84 37 -84 4 1 21 19 36 42 23 32 26 43 15 49
-18 12 -41 11 -33 -1 8 -12 3 -13 -29 0 -21 8 -26 6 -26 -6z"/>
<path d="M2459 2183 c-11 -27 -32 -63 -45 -80 -14 -18 -32 -49 -40 -68 -14
-34 -14 -36 8 -44 20 -8 31 -1 76 42 30 29 60 65 68 80 14 26 13 31 -11 73
-14 24 -28 44 -31 44 -2 0 -14 -21 -25 -47z"/>
<path d="M2845 2121 c-6 -11 25 -27 70 -35 34 -6 32 10 -2 22 -16 5 -35 13
-44 17 -10 3 -20 2 -24 -4z"/>
</g>
</svg>
