<?xml version="1.0" standalone="no"?>
<!DOCTYPE svg PUBLIC "-//W3C//DTD SVG 20010904//EN"
 "http://www.w3.org/TR/2001/REC-SVG-20010904/DTD/svg10.dtd">
<svg version="1.0" xmlns="http://www.w3.org/2000/svg"
 width="480.000000pt" height="360.000000pt" viewBox="0 0 480.000000 360.000000"
 preserveAspectRatio="xMidYMid meet">
<metadata>
Created by potrace 1.16, written by Peter Selinger 2001-2019
</metadata>
<rect width="1" height="360" fill="#000000"/>
<rect x="479" width="1" height="360" fill="#000000"/>
<rect width="480" height="1" fill="#000000"/>
<rect y="359" width="480" height="1" fill="#000000"/>
<g transform="translate(0.000000,360.000000) scale(0.100000,-0.100000)"
fill="#000000" stroke="none">
<path d="M0 1800 l0 -1800 2400 0 2400 0 0 1589 0 1588 -320 212 -321 211
-2079 0 -2080 0 0 -1800z m2110 873 c0 -18 8 -16 37 7 31 24 115 27 153 5 14
-8 50 -14 80 -15 l54 0 -21 -21 c-19 -19 -19 -23 -6 -50 14 -28 13 -30 -14
-53 -27 -23 -28 -26 -23 -101 l5 -77 34 -12 c23 -8 40 -23 55 -51 11 -22 29
-51 39 -65 26 -38 21 -60 -35 -144 -48 -75 -50 -80 -33 -93 18 -13 18 -15 -3
-58 -12 -25 -22 -50 -22 -55 0 -12 67 -119 93 -147 13 -15 18 -30 14 -45 -5
-17 7 -40 47 -93 75 -100 128 -176 124 -179 -2 -2 -11 -7 -21 -13 -17 -9 -17
-11 3 -36 l21 -26 -38 -7 c-21 -3 -55 -17 -75 -30 -21 -13 -46 -24 -57 -24
-11 0 -41 -19 -68 -41 -50 -44 -69 -88 -52 -122 6 -10 7 -26 4 -37 -3 -10 -6
-64 -6 -120 -1 -97 -2 -102 -24 -112 -19 -9 -30 -7 -50 6 -33 21 -39 38 -28
71 4 14 5 63 2 108 -4 45 -2 87 2 93 9 11 3 44 -7 44 -3 0 -16 -7 -29 -16 -24
-16 -61 -15 -127 1 -38 10 -74 -1 -75 -22 0 -10 -5 -51 -11 -92 -6 -40 -8 -89
-5 -108 9 -54 -36 -69 -111 -38 -51 22 -56 42 -18 74 28 24 32 34 41 116 14
117 15 113 -11 117 -16 2 -24 11 -26 28 -2 13 -11 29 -19 35 -19 14 -9 54 53
217 47 126 54 161 29 152 -19 -8 -19 11 0 65 10 31 12 48 4 64 -8 17 -6 45 4
101 13 68 13 84 1 119 -18 50 -18 46 10 57 30 11 51 91 42 157 -7 50 6 82 56
138 28 33 30 40 25 88 -6 45 -12 57 -46 87 -33 29 -39 40 -34 62 4 20 0 30
-16 40 -26 16 -27 28 -2 28 37 0 51 12 51 44 1 29 1 30 15 12 8 -11 15 -26 15
-33z"/>
<path d="M2390 2177 c0 -47 10 -52 32 -16 16 26 17 34 6 40 -26 17 -38 9 -38
-24z"/>
</g>
</svg>
