<?xml version="1.0" standalone="no"?>
<!DOCTYPE svg PUBLIC "-//W3C//DTD SVG 20010904//EN"
 "http://www.w3.org/TR/2001/REC-SVG-20010904/DTD/svg10.dtd">
<svg version="1.0" xmlns="http://www.w3.org/2000/svg"
 width="480.000000pt" height="360.000000pt" viewBox="0 0 480.000000 360.000000"
 preserveAspectRatio="xMidYMid meet">
<metadata>
Created by potrace 1.16, written by Peter Selinger 2001-2019
</metadata>
<rect width="1" height="360" fill="#000000"/>
<rect x="479" width="1" height="360" fill="#000000"/>
<rect width="480" height="1" fill="#000000"/>
<rect y="359" width="480" height="1" fill="#000000"/>
<g transform="translate(0.000000,360.000000) scale(0.100000,-0.100000)"
fill="#000000" stroke="none">
<path d="M0 1800 l0 -1800 1345 0 1345 0 5 23 c10 39 36 229 44 314 6 74 12
89 55 160 46 74 49 84 62 193 13 104 18 181 11 185 -6 4 -189 68 -235 82 -77
23 -94 12 -142 -92 -23 -50 -48 -89 -62 -96 -14 -8 -64 -11 -141 -10 -65 1
-133 -2 -150 -8 -18 -5 -69 -21 -114 -35 -45 -14 -90 -26 -98 -26 -9 0 -70 16
-136 36 -149 45 -201 44 -269 -5 -39 -28 -50 -32 -85 -26 -62 10 -115 10 -178
1 -54 -8 -57 -7 -57 13 0 11 -6 21 -13 21 -8 0 -22 9 -32 20 -23 25 -95 60
-124 60 -12 0 -31 -4 -41 -10 -12 -6 -33 -5 -66 4 -27 8 -77 19 -112 26 -34 7
-65 17 -68 21 -3 5 -11 9 -18 9 -26 0 -167 152 -197 212 -34 68 -79 200 -79
234 0 16 -9 28 -29 38 -48 25 -61 56 -61 144 0 75 2 81 26 97 35 23 56 78 55
146 0 53 1 58 27 68 28 12 55 33 124 97 50 46 128 94 152 94 12 0 28 5 36 11
12 9 11 10 -7 6 -20 -5 -23 -1 -24 31 -1 21 -1 43 0 50 1 8 -4 21 -13 30 -22
25 -38 71 -42 124 -3 42 0 51 26 78 22 23 30 40 30 68 0 61 45 135 107 179 31
21 62 45 70 53 35 37 63 79 63 94 0 23 28 76 41 76 5 0 26 17 45 38 32 34 34
40 28 84 -5 39 -2 53 17 79 16 22 23 49 25 92 5 102 89 239 172 281 34 17 60
42 91 85 23 34 46 61 50 61 5 0 25 20 45 45 l37 45 -770 0 -771 0 0 -1800z
m160 1770 c0 -5 -5 -10 -11 -10 -5 0 -7 5 -4 10 3 6 8 10 11 10 2 0 4 -4 4
-10z m-20 -760 c0 -5 -2 -10 -4 -10 -3 0 -8 5 -11 10 -3 6 -1 10 4 10 6 0 11
-4 11 -10z m507 -372 c-3 -8 -6 -5 -6 6 -1 11 2 17 5 13 3 -3 4 -12 1 -19z"/>
<path d="M2761 3548 c1 -29 -1 -70 -6 -90 -10 -49 13 -88 53 -88 28 0 43 -22
58 -85 4 -16 10 -34 14 -40 4 -5 10 -39 14 -74 3 -35 8 -67 11 -70 3 -2 13 6
22 19 10 14 30 38 46 55 l29 30 -21 -32 c-12 -17 -21 -35 -21 -40 0 -5 -11
-20 -25 -33 -31 -29 -31 -32 0 -47 22 -10 25 -9 26 10 1 20 2 20 8 -3 7 -24 8
-24 28 15 12 22 37 57 57 78 30 32 34 43 29 70 -5 29 -4 31 9 13 14 -18 16
-16 39 25 14 24 33 60 43 80 10 20 25 36 32 36 19 0 18 -5 -12 -45 -15 -19
-41 -64 -59 -101 -18 -36 -51 -87 -74 -113 -22 -25 -41 -49 -41 -52 0 -4 -15
-30 -33 -59 -33 -51 -42 -105 -23 -135 4 -7 3 -12 -2 -12 -20 0 -65 -84 -64
-119 1 -32 34 -81 54 -81 12 0 10 38 -2 45 -8 5 -7 12 2 22 7 8 12 39 12 68
l0 53 23 -36 c17 -29 22 -32 23 -17 0 11 -7 31 -16 43 -11 16 -12 22 -3 20 7
-2 16 10 20 27 5 24 7 20 9 -25 1 -30 2 -70 2 -87 -1 -18 3 -33 8 -33 5 0 7
-8 3 -17 -4 -11 2 -8 14 7 11 14 23 34 27 44 5 15 9 17 18 8 9 -9 9 -15 0 -24
-22 -22 -14 -39 14 -32 19 5 25 4 20 -5 -8 -12 4 -14 28 -5 19 7 22 34 4 34
-9 0 -9 3 -2 8 6 4 13 15 17 25 3 9 16 17 27 17 24 0 26 -9 5 -24 -9 -7 -11
-16 -7 -24 6 -9 30 14 78 74 38 47 68 90 66 95 -1 5 12 46 29 90 21 54 29 89
25 107 -4 18 -3 22 2 13 8 -10 13 -8 26 10 9 13 16 30 16 39 0 8 9 26 19 39
15 19 17 31 10 55 -12 42 -10 68 3 34 12 -35 28 -36 28 -2 0 21 4 24 19 19 14
-4 23 0 31 15 6 12 14 19 17 16 4 -3 -1 -14 -9 -23 -18 -20 -99 -198 -118
-255 -6 -21 -16 -38 -21 -38 -5 0 -9 -11 -9 -25 0 -32 5 -32 54 8 50 40 125
91 149 100 9 3 17 11 17 17 0 6 -5 8 -12 4 -7 -4 -8 -3 -4 4 4 6 -1 48 -10 92
-18 93 -14 120 6 33 7 -32 19 -71 27 -86 l14 -28 28 18 c25 16 124 131 174
203 9 13 17 21 17 17 0 -4 -23 -42 -50 -83 -33 -50 -44 -74 -33 -69 37 15 57
15 23 -1 -36 -16 -140 -111 -140 -128 0 -5 -8 -18 -17 -29 -18 -19 -17 -20 21
-13 56 11 132 51 153 82 10 14 29 37 41 52 l24 27 -22 -37 c-25 -44 -19 -47
24 -15 67 51 75 44 21 -17 -19 -22 -35 -35 -35 -29 0 21 -40 1 -46 -23 -3 -13
-12 -24 -19 -24 -7 0 -18 -7 -26 -16 -8 -10 -21 -13 -36 -9 -30 7 -146 -31
-168 -56 -19 -20 -41 -27 -30 -9 13 20 -34 9 -63 -15 -17 -14 -32 -25 -35 -25
-16 0 -90 -78 -163 -172 -46 -60 -84 -110 -84 -112 0 -9 46 9 78 31 19 13 43
23 53 23 20 0 43 31 83 110 26 51 28 47 10 -26 -7 -26 -7 -26 22 -10 16 8 44
29 63 46 35 31 51 37 51 20 0 -5 -6 -10 -12 -10 -9 0 -8 -4 2 -10 13 -8 13
-10 -1 -10 -17 0 -115 -62 -161 -102 -16 -12 -48 -39 -74 -58 -25 -19 -54 -47
-65 -62 -19 -26 -19 -28 -2 -29 16 0 15 -2 -4 -16 -20 -13 -23 -25 -23 -75 l0
-60 25 16 c14 9 25 12 25 6 0 -5 -11 -17 -24 -25 -22 -15 -46 -61 -46 -88 0
-5 19 6 43 25 51 41 102 74 94 60 -4 -5 -43 -38 -87 -72 -50 -40 -80 -71 -80
-83 0 -15 11 -11 67 28 37 26 85 54 107 62 22 7 47 20 56 27 8 8 42 21 75 31
33 9 85 29 115 43 61 29 140 97 140 119 0 7 9 31 20 53 19 38 19 39 0 114 -10
41 -26 89 -35 105 -8 17 -13 31 -10 31 11 0 65 -125 65 -148 0 -16 5 -22 16
-20 18 3 44 74 44 122 0 28 1 29 15 10 11 -14 14 -15 15 -4 0 8 9 38 20 65 19
45 20 28 3 -30 -5 -17 -4 -18 11 -6 10 9 17 31 18 65 l2 51 3 -47 c2 -27 9
-48 15 -48 5 0 31 17 57 38 54 45 71 56 71 45 -1 -4 -27 -28 -60 -53 -33 -25
-59 -49 -60 -54 0 -5 20 -6 45 -4 28 4 46 1 49 -6 8 -21 26 18 26 58 0 62 9
37 11 -32 2 -66 7 -73 28 -43 11 15 19 17 39 10 14 -5 34 -7 45 -3 14 4 17 3
12 -6 -6 -10 1 -11 31 -7 27 5 33 4 19 -3 -11 -5 -37 -9 -57 -9 -33 -1 -38 -4
-38 -25 0 -13 7 -29 15 -36 8 -7 12 -17 8 -23 -4 -6 -6 -43 -5 -82 4 -136 3
-241 -3 -292 -3 -29 -1 -53 3 -53 13 0 32 47 32 78 0 20 3 23 9 13 5 -8 7 -20
4 -27 -2 -6 0 -15 6 -18 13 -9 62 38 58 55 -2 8 -2 11 0 7 9 -15 26 -7 68 30
47 40 139 111 164 126 37 22 -17 -29 -111 -105 -77 -63 -95 -83 -91 -99 5 -19
38 -28 45 -12 4 10 88 55 88 47 0 -4 -12 -16 -26 -27 -20 -16 -23 -23 -12 -30
9 -6 5 -7 -11 -3 -16 5 -21 4 -17 -4 4 -6 3 -11 -2 -11 -30 0 -5 -99 25 -100
7 0 25 18 39 40 15 22 31 40 35 40 5 0 9 6 9 13 0 8 11 24 25 37 14 13 25 29
25 37 0 7 4 13 10 13 5 0 23 28 40 63 42 87 71 122 97 121 12 -1 27 3 35 8 10
7 9 8 -4 4 -22 -7 -24 10 -3 18 10 4 15 20 15 51 0 28 4 44 10 40 6 -3 10 -26
10 -51 0 -28 4 -44 12 -44 7 0 -4 -14 -25 -31 -21 -17 -36 -34 -33 -36 3 -3
-10 -24 -29 -46 -19 -22 -35 -47 -35 -56 0 -8 -26 -39 -57 -67 -31 -29 -54
-56 -51 -60 6 -5 30 12 153 109 56 43 105 70 105 55 0 -7 -18 -21 -39 -31 -21
-11 -50 -30 -64 -43 -14 -13 -31 -24 -36 -24 -6 0 -14 -6 -18 -13 -4 -8 -30
-29 -58 -48 -93 -63 -126 -92 -121 -105 3 -7 0 -15 -7 -18 -7 -2 -5 -5 5 -5 9
-1 23 7 30 18 7 10 27 25 45 34 17 9 38 25 45 34 10 15 58 28 58 17 0 -2 -12
-20 -26 -41 -20 -30 -31 -37 -51 -35 -14 2 -23 0 -19 -6 3 -5 -1 -15 -9 -22
-8 -7 -15 -17 -15 -23 0 -6 12 1 28 15 15 14 32 24 39 21 6 -2 25 3 42 12 45
23 38 10 -11 -19 -26 -15 -42 -33 -43 -45 -3 -35 20 -24 101 51 44 40 89 81
102 92 l22 19 0 -35 c0 -31 -5 -38 -33 -51 -18 -9 -44 -26 -57 -37 -30 -26
-63 -51 -109 -85 -38 -27 -34 -30 17 -16 18 6 30 6 27 1 -2 -4 -21 -11 -42
-15 -50 -9 -103 -37 -133 -71 l-25 -27 25 7 c14 4 36 10 50 13 28 7 140 81
140 94 0 4 18 18 41 31 29 16 39 27 36 40 -4 13 1 18 17 18 14 0 27 9 34 23
10 20 11 18 11 -20 1 -36 -4 -45 -36 -72 -21 -17 -41 -31 -45 -31 -11 0 -89
-52 -85 -56 1 -2 34 3 72 11 87 19 95 19 95 0 0 -10 -10 -15 -32 -15 -18 0
-43 -3 -56 -6 l-23 -7 27 -13 c15 -8 34 -12 43 -9 9 2 22 1 29 -4 17 -10 12
-53 -6 -59 -9 -3 -12 3 -10 14 2 15 -8 22 -53 33 -54 14 -59 13 -121 -12 -35
-14 -81 -28 -101 -32 -20 -4 -37 -11 -37 -16 0 -4 -17 -11 -37 -14 -58 -10
-212 -75 -265 -111 -26 -19 -77 -47 -113 -63 -62 -29 -76 -43 -55 -56 6 -3 10
-17 10 -30 0 -13 11 -36 25 -51 25 -27 33 -68 15 -79 -13 -8 -13 -72 0 -80 8
-5 8 -11 0 -20 -6 -7 -7 -21 -3 -30 5 -15 3 -17 -11 -12 -14 5 -17 3 -12 -8 4
-10 -1 -15 -14 -15 -28 0 -25 -15 19 -100 22 -41 47 -90 57 -108 9 -18 34 -47
55 -65 47 -41 63 -105 34 -137 -13 -15 -20 -45 -25 -117 l-6 -98 34 -52 c29
-46 36 -51 52 -41 14 9 25 9 44 0 31 -14 35 -42 6 -42 -26 0 -26 -27 1 -56 34
-37 14 -72 -38 -65 -7 1 -13 -8 -13 -21 0 -36 -20 0 -20 37 0 18 -10 39 -24
52 -13 12 -40 54 -60 93 -60 114 -68 89 -25 -80 30 -116 46 -169 73 -245 14
-38 26 -82 26 -96 0 -32 -33 -64 -57 -56 -10 3 -45 15 -77 26 -33 12 -61 20
-63 18 -9 -9 -4 -57 11 -102 9 -27 16 -62 16 -77 l0 -28 395 0 395 0 0 1800 0
1800 -1020 0 -1020 0 1 -52z m879 -111 c0 -2 -10 -12 -22 -23 l-23 -19 19 23
c18 21 26 27 26 19z m-100 -44 c0 -5 -5 -15 -10 -23 -8 -12 -10 -11 -10 8 0
12 5 22 10 22 6 0 10 -3 10 -7z m440 -53 c0 -5 -4 -10 -10 -10 -5 0 -10 5 -10
10 0 6 5 10 10 10 6 0 10 -4 10 -10z m500 -61 c0 -6 -4 -7 -10 -4 -5 3 -10 11
-10 16 0 6 5 7 10 4 6 -3 10 -11 10 -16z m-420 -9 c0 -6 -10 -15 -22 -20 -13
-5 -18 -9 -13 -10 6 0 -5 -7 -24 -16 -62 -26 -54 1 10 35 41 22 49 24 49 11z
m-850 -90 c-19 -11 -39 -19 -45 -19 -5 0 6 8 25 19 19 11 40 19 45 19 6 0 -6
-8 -25 -19z m-70 -30 c-8 -5 -19 -10 -25 -10 -5 0 -3 5 5 10 8 5 20 10 25 10
6 0 3 -5 -5 -10z m455 -20 c-3 -5 -11 -10 -16 -10 -6 0 -7 5 -4 10 3 6 11 10
16 10 6 0 7 -4 4 -10z m302 -32 c-3 -8 -6 -5 -6 6 -1 11 2 17 5 13 3 -3 4 -12
1 -19z m-22 2 c-3 -5 -11 -10 -16 -10 -6 0 -7 5 -4 10 3 6 11 10 16 10 6 0 7
-4 4 -10z m32 -42 c-3 -8 -6 -5 -6 6 -1 11 2 17 5 13 3 -3 4 -12 1 -19z m196
-55 c-7 -2 -13 -12 -13 -20 0 -9 -3 -14 -6 -10 -10 10 4 37 18 36 10 0 10 -2
1 -6z m-266 -85 c-3 -7 -5 -2 -5 12 0 14 2 19 5 13 2 -7 2 -19 0 -25z m-672 2
c11 -17 -5 -32 -21 -19 -7 6 -11 15 -8 20 7 12 21 11 29 -1z m1087 -3 c-16
-19 -92 -60 -92 -49 0 5 21 21 48 35 54 30 58 32 44 14z m-1142 -91 c0 -2 -7
-9 -15 -16 -13 -11 -14 -10 -9 4 5 14 24 23 24 12z m1183 -93 c-7 -2 -19 -2
-25 0 -7 3 -2 5 12 5 14 0 19 -2 13 -5z m143 -111 c-9 -9 -37 8 -31 18 5 8 11
7 21 -1 8 -6 12 -14 10 -17z m-1096 -16 c0 -3 -4 -8 -10 -11 -5 -3 -10 -1 -10
4 0 6 5 11 10 11 6 0 10 -2 10 -4z m1446 -25 c-8 -12 -66 -32 -66 -22 0 4 12
12 28 18 35 14 44 15 38 4z m-256 -181 c0 -5 -7 -10 -15 -10 -8 0 -15 5 -15
10 0 6 7 10 15 10 8 0 15 -4 15 -10z m-43 -16 c-3 -3 -12 -4 -19 -1 -8 3 -5 6
6 6 11 1 17 -2 13 -5z m188 -39 c-16 -13 -32 -22 -34 -19 -7 6 40 44 54 43 6
0 -3 -11 -20 -24z"/>
<path d="M3620 3090 c-14 -11 -20 -20 -14 -20 6 0 19 9 29 20 23 25 17 25 -15
0z"/>
<path d="M2855 2982 c-43 -58 -79 -192 -54 -207 19 -12 39 24 39 70 0 23 9 68
20 100 11 32 19 59 18 61 -2 1 -12 -10 -23 -24z"/>
<path d="M3927 2823 c-21 -54 -30 -103 -19 -103 15 0 43 36 35 45 -5 4 -3 5 4
1 19 -11 47 38 34 62 -6 11 -7 22 -4 26 3 3 -3 6 -14 6 -15 0 -25 -11 -36 -37z"/>
<path d="M3996 2847 c3 -10 9 -15 12 -12 3 3 0 11 -7 18 -10 9 -11 8 -5 -6z"/>
<path d="M4024 2836 c-3 -8 -4 -23 -2 -33 3 -15 6 -15 25 6 12 13 20 28 17 33
-8 13 -34 9 -40 -6z"/>
<path d="M4082 2792 c-27 -18 -42 -34 -42 -48 0 -28 40 -87 68 -99 12 -5 25
-18 28 -27 11 -36 21 -16 23 43 1 33 -4 70 -11 82 -7 12 -11 32 -9 44 4 33
-11 34 -57 5z m38 -22 c0 -5 -4 -10 -10 -10 -5 0 -10 5 -10 10 0 6 5 10 10 10
6 0 10 -4 10 -10z"/>
<path d="M2988 2731 c-5 -32 5 -42 16 -15 3 9 2 23 -3 31 -6 12 -9 8 -13 -16z"/>
<path d="M3965 2728 c-16 -12 -40 -31 -53 -42 l-23 -21 33 -12 c32 -11 118
-18 118 -8 0 28 -24 105 -33 105 -7 0 -25 -10 -42 -22z"/>
<path d="M2856 2639 c-14 -29 -24 -54 -22 -57 8 -7 43 8 66 28 23 20 21 48 -5
70 -12 10 -19 2 -39 -41z"/>
<path d="M4050 2666 c0 -2 8 -10 18 -17 15 -13 16 -12 3 4 -13 16 -21 21 -21
13z"/>
<path d="M3900 2629 c0 -5 -4 -8 -9 -4 -5 3 -12 1 -16 -5 -3 -5 -13 -10 -21
-10 -17 0 -63 -49 -64 -66 0 -10 -126 -99 -185 -132 -53 -30 65 4 133 38 24
11 62 38 84 58 l42 37 -27 -49 c-15 -27 -27 -52 -27 -56 0 -4 19 -4 42 0 24 5
50 4 60 -1 24 -13 68 -11 68 3 0 6 18 35 40 64 41 54 52 94 26 94 -8 0 -17 -6
-20 -12 -5 -10 -7 -10 -12 0 -10 21 -63 44 -86 36 -14 -4 -18 -2 -14 5 4 6 2
11 -3 11 -6 0 -11 -5 -11 -11z"/>
<path d="M3221 2614 c0 -11 3 -14 6 -6 3 7 2 16 -1 19 -3 4 -6 -2 -5 -13z"/>
<path d="M4080 2608 c1 -24 26 -65 35 -57 7 8 -15 79 -25 79 -6 0 -10 -10 -10
-22z"/>
<path d="M3170 2600 c0 -6 -10 -14 -22 -19 -63 -25 -137 -101 -97 -101 5 0 8
-4 4 -10 -3 -5 -11 -7 -19 -4 -16 6 -113 -96 -130 -138 -7 -18 -19 -61 -26
-95 -12 -58 -11 -64 10 -97 24 -40 32 -43 51 -20 7 8 31 25 53 36 77 39 126
80 126 105 0 13 9 41 20 63 24 47 25 85 5 124 -11 20 -12 33 -5 40 7 7 10 5
10 -7 0 -21 21 -67 30 -67 4 0 13 13 20 30 10 25 10 34 -4 55 -9 13 -16 35
-15 47 0 13 3 17 6 11 10 -26 24 -12 21 19 -2 22 -9 34 -20 36 -10 2 -18 -1
-18 -8z m10 -132 c0 -18 -2 -20 -9 -8 -6 8 -7 18 -5 22 9 14 14 9 14 -14z"/>
<path d="M2676 2563 c-36 -38 -44 -53 -28 -53 11 0 75 80 69 86 -3 3 -21 -12
-41 -33z"/>
<path d="M2895 2561 c-126 -46 -118 -39 -111 -84 9 -53 15 -61 34 -43 10 8 37
23 62 34 51 22 66 36 75 73 9 37 -2 40 -60 20z"/>
<path d="M4130 2516 c0 -22 3 -27 11 -19 8 8 8 16 0 30 -9 16 -10 14 -11 -11z"/>
<path d="M4631 2533 c-1 -6 -4 -20 -7 -30 -5 -17 -5 -17 6 0 6 10 9 23 6 30
-3 9 -5 9 -5 0z"/>
<path d="M4038 2493 c-14 -16 -31 -38 -37 -50 -10 -20 -9 -23 8 -23 11 0 23 5
26 10 3 6 19 10 36 10 24 0 29 4 29 23 -1 20 -21 57 -32 57 -2 0 -16 -12 -30
-27z"/>
<path d="M2553 2392 c-32 -28 -40 -41 -33 -52 5 -8 10 -34 10 -57 0 -24 5 -43
10 -43 6 0 10 -5 10 -11 0 -5 -4 -8 -9 -5 -8 5 -46 -84 -38 -89 1 -1 32 -28
69 -59 76 -63 70 -67 84 49 7 55 8 104 4 210 -1 44 -14 65 -40 65 -10 0 -20 6
-22 14 -2 10 -16 3 -45 -22z"/>
<path d="M3810 2413 c-19 -2 -44 -8 -55 -12 -24 -11 -148 -29 -190 -29 -40 0
-116 -20 -135 -36 -38 -33 -160 -110 -207 -131 -28 -13 -71 -41 -95 -62 -24
-21 -69 -58 -101 -82 -32 -23 -61 -49 -63 -56 -6 -14 118 -180 140 -188 6 -3
29 10 51 28 34 29 37 35 25 50 -12 15 -11 15 13 4 35 -16 44 -6 29 33 -16 42
-8 48 13 8 15 -28 19 -31 48 -24 35 7 213 89 237 108 24 20 112 43 168 45 15
1 26 8 29 21 3 10 14 22 25 26 23 7 27 5 31 -24 4 -30 14 -37 32 -22 10 8 15
9 15 1 0 -6 6 -11 13 -11 16 0 187 130 201 152 25 41 -122 213 -176 206 -7 0
-29 -3 -48 -5z"/>
<path d="M4040 2410 c-7 -4 -9 -13 -5 -19 4 -8 -7 -6 -31 4 -44 18 -56 12 -27
-15 12 -10 23 -23 24 -27 6 -14 79 -53 100 -53 13 0 19 7 19 21 0 11 -4 18 -9
14 -6 -3 -11 11 -13 31 -3 39 -32 60 -58 44z"/>
<path d="M4256 2344 c-21 -19 -37 -37 -34 -39 6 -6 98 37 98 46 0 3 -6 11 -13
17 -9 8 -22 1 -51 -24z"/>
<path d="M4030 2312 c0 -15 38 -44 51 -40 7 2 -1 14 -19 27 -18 12 -32 18 -32
13z"/>
<path d="M4248 2284 c-16 -8 -28 -23 -28 -34 0 -25 1 -25 44 1 22 13 33 26 29
35 -6 17 -11 17 -45 -2z"/>
<path d="M4334 2223 l-2 -65 20 20 c18 18 19 24 8 58 -19 61 -25 58 -26 -13z"/>
<path d="M4281 2198 c-41 -71 -40 -85 6 -53 20 14 42 89 30 102 -3 2 -19 -19
-36 -49z"/>
<path d="M4227 2182 c-19 -21 -23 -56 -6 -50 13 4 41 68 30 68 -4 0 -15 -8
-24 -18z"/>
<path d="M4521 2156 c-14 -14 -22 -28 -19 -31 9 -9 51 31 47 44 -3 8 -13 3
-28 -13z"/>
<path d="M4008 2140 c-43 -23 -50 -31 -38 -49 11 -19 31 -4 23 17 -4 12 0 10
17 -6 20 -21 28 -23 69 -17 52 8 61 13 42 24 -7 5 -12 11 -12 15 4 39 -43 46
-101 16z"/>
<path d="M4290 2120 c-12 -8 -12 -10 5 -10 11 0 27 5 35 10 12 8 12 10 -5 10
-11 0 -27 -5 -35 -10z"/>
<path d="M4460 2120 c-9 -6 -10 -10 -3 -10 6 0 15 5 18 10 8 12 4 12 -15 0z"/>
<path d="M2678 2087 c-5 -10 -8 -35 -7 -55 0 -35 1 -35 10 -12 6 13 9 38 7 55
-2 24 -4 26 -10 12z"/>
<path d="M4256 2073 c9 -38 11 -39 33 -12 28 33 26 39 -9 39 -28 0 -30 -2 -24
-27z"/>
<path d="M4430 2090 c0 -5 -7 -10 -15 -10 -8 0 -15 -4 -15 -10 0 -16 16 -12
41 10 20 16 21 19 7 20 -10 0 -18 -4 -18 -10z"/>
<path d="M4101 2028 c0 -7 4 -22 8 -32 7 -19 8 -18 24 4 9 13 14 27 11 32 -8
13 -44 9 -43 -4z"/>
<path d="M2704 2004 c-4 -14 -2 -30 5 -37 8 -8 11 -1 11 26 0 43 -7 48 -16 11z"/>
<path d="M3842 2012 c-53 -17 -61 -32 -17 -32 14 0 26 -10 34 -27 14 -31 32
-20 34 21 1 14 8 26 15 26 15 0 12 22 -4 26 -5 2 -33 -5 -62 -14z"/>
<path d="M4045 2000 c-10 -17 -34 -104 -30 -108 10 -11 35 23 35 47 0 20 2 23
10 11 16 -24 31 7 17 37 -11 24 -22 29 -32 13z"/>
<path d="M4310 1985 c-7 -9 -8 -15 -2 -15 5 0 12 7 16 15 3 8 4 15 2 15 -2 0
-9 -7 -16 -15z"/>
<path d="M3529 1975 c-26 -14 -55 -65 -48 -83 4 -10 86 8 155 34 33 13 42 21
42 40 0 23 -4 24 -62 24 -33 -1 -73 -7 -87 -15z"/>
<path d="M3987 1969 c-9 -6 -17 -14 -17 -19 0 -16 30 -11 37 5 8 21 1 25 -20
14z"/>
<path d="M3722 1949 c-7 -10 -12 -21 -12 -24 0 -11 107 -4 118 7 23 23 12 33
-41 35 -43 1 -55 -2 -65 -18z"/>
<path d="M3423 1918 c-51 -24 -57 -43 -12 -34 29 6 58 30 59 49 0 9 3 10 -47
-15z"/>
<path d="M4128 1923 c-10 -2 -18 -9 -18 -14 0 -13 12 -11 34 6 20 15 16 17
-16 8z"/>
<path d="M3923 1889 c-2 -17 1 -18 13 -9 17 15 18 30 1 30 -7 0 -13 -9 -14
-21z"/>
<path d="M3688 1893 c-10 -2 -18 -11 -18 -18 0 -10 -9 -12 -34 -8 -19 3 -66
-2 -103 -11 -38 -10 -78 -18 -88 -20 -42 -6 -58 -164 -21 -205 9 -10 16 -29
16 -44 0 -39 16 -41 68 -10 26 15 55 31 64 35 10 4 59 37 109 74 81 59 90 69
84 91 -3 14 -2 30 3 36 5 7 12 24 16 40 5 23 3 27 -16 28 -22 0 -22 1 -3 9 15
7 11 8 -20 8 -22 0 -48 -2 -57 -5z"/>
<path d="M3810 1876 c0 -9 9 -14 20 -13 24 2 26 13 4 21 -22 8 -24 8 -24 -8z"/>
<path d="M3866 1837 c-31 -40 -33 -57 -8 -57 20 0 82 51 82 67 0 10 -22 23
-40 23 -5 0 -20 -15 -34 -33z"/>
<path d="M3288 1834 c-9 -9 33 -78 64 -103 16 -13 31 -21 33 -19 2 2 7 29 11
60 6 52 5 55 -17 61 -30 8 -84 9 -91 1z"/>
<path d="M3218 1791 c-10 -10 -18 -23 -18 -29 0 -5 -6 -13 -12 -16 -10 -5 -10
-7 0 -12 7 -3 18 -12 25 -19 7 -7 28 -20 46 -30 26 -13 39 -15 57 -6 13 6 24
16 24 22 0 10 -94 110 -102 108 -2 0 -11 -8 -20 -18z"/>
<path d="M3154 1716 c-16 -12 -17 -18 -6 -54 7 -23 19 -48 28 -56 14 -14 18
-14 45 -1 16 9 29 20 29 25 0 6 8 10 18 10 12 1 6 11 -23 36 -58 50 -69 55
-91 40z"/>
<path d="M3291 1610 c-22 -22 -41 -30 -66 -30 -19 0 -35 -4 -35 -10 0 -13 29
-122 34 -127 5 -6 129 57 137 69 8 12 -1 67 -12 74 -5 3 -9 14 -9 24 0 31 -16
31 -49 0z"/>
<path d="M3530 1512 c-53 -27 -66 -39 -77 -70 -16 -48 -16 -87 0 -100 10 -9
22 0 50 38 20 27 52 56 71 65 51 24 56 35 37 70 l-16 31 -65 -34z"/>
<path d="M2891 1511 c-11 -7 -9 -15 10 -42 13 -19 24 -35 25 -37 1 -1 9 0 18
4 24 9 20 37 -9 62 -29 25 -26 24 -44 13z"/>
<path d="M3360 1434 c0 -5 -27 -25 -60 -44 -55 -32 -60 -38 -58 -65 4 -39 21
-35 29 7 4 18 7 28 8 21 0 -6 5 -23 11 -37 9 -24 11 -25 37 -11 15 8 33 15 40
15 13 0 12 104 0 117 -4 3 -7 2 -7 -3z"/>
<path d="M3531 1393 c-17 -20 -28 -39 -26 -42 6 -6 75 60 75 71 0 18 -20 6
-49 -29z"/>
<path d="M2902 1339 c5 -15 56 -45 63 -37 14 13 -16 48 -41 48 -14 0 -24 -5
-22 -11z"/>
<path d="M3310 1267 c-14 -6 -26 -12 -28 -13 -2 -1 5 -11 16 -22 20 -20 20
-20 54 9 18 15 28 28 21 29 -6 0 -17 2 -25 4 -7 3 -24 0 -38 -7z"/>
<path d="M3449 1222 c-52 -27 -95 -56 -97 -64 -3 -14 51 -78 66 -78 13 0 29
15 36 35 7 20 8 20 21 1 13 -18 16 -18 40 -2 26 17 34 9 13 -13 -11 -11 -10
-13 4 -8 10 4 43 2 75 -4 70 -13 103 0 103 41 0 15 7 49 15 75 8 27 12 51 10
54 -3 2 -27 -8 -55 -23 -56 -31 -82 -28 -106 10 -9 13 -20 24 -23 24 -4 0 -50
-22 -102 -48z m121 -66 c0 -3 -4 -8 -10 -11 -5 -3 -10 -1 -10 4 0 6 5 11 10
11 6 0 10 -2 10 -4z"/>
<path d="M2800 1215 c-6 -15 -24 -32 -44 -40 -33 -14 -34 -16 -25 -52 12 -53
12 -51 -22 -72 -35 -22 -31 -26 31 -36 25 -4 71 -16 103 -28 50 -17 60 -18 68
-6 22 34 20 60 -9 121 -16 35 -33 74 -37 88 -16 55 -49 67 -65 25z"/>
<path d="M3240 1228 c0 -18 18 -34 28 -24 3 4 -2 14 -11 23 -16 16 -17 16 -17
1z"/>
<path d="M3305 1108 c-4 -10 -11 -18 -16 -18 -5 0 -29 -14 -54 -32 -31 -22
-45 -39 -45 -55 0 -13 -12 -52 -27 -86 -25 -56 -27 -74 -28 -187 0 -83 5 -142
15 -175 22 -74 20 -330 -3 -412 -11 -41 -15 -76 -11 -103 l7 -40 343 0 c189 0
344 2 344 5 0 4 -8 20 -17 38 -10 18 -20 61 -23 97 -4 51 -8 64 -20 61 -57
-16 -77 -12 -99 15 -12 15 -19 35 -16 43 4 9 12 66 19 126 8 62 25 144 41 188
21 63 28 105 34 215 6 121 5 140 -10 162 -10 14 -19 41 -21 60 l-3 35 -122 2
c-130 3 -148 -4 -116 -39 15 -16 27 -19 68 -16 48 5 49 5 20 -8 -16 -7 -38
-13 -48 -14 -16 0 -17 -2 -3 -15 8 -8 25 -16 38 -18 13 -2 23 -10 23 -16 0 -7
9 -19 19 -27 27 -19 16 -26 -16 -10 -23 12 -27 12 -32 0 -9 -24 -27 -15 -24
12 2 15 -3 29 -10 31 -9 4 -11 -2 -6 -22 5 -21 4 -27 -7 -23 -8 2 -15 21 -17
41 -2 26 -8 37 -20 39 -9 0 -21 2 -27 3 -5 2 -16 3 -22 4 -7 0 -13 7 -13 15 0
8 6 16 13 19 7 3 5 7 -8 12 -62 22 -86 38 -81 51 3 8 1 24 -3 36 -8 20 -10 21
-16 6z m402 -214 c-3 -3 -12 -4 -19 -1 -8 3 -5 6 6 6 11 1 17 -2 13 -5z"/>
<path d="M3697 1084 c-8 -8 1 -24 14 -24 5 0 9 7 9 15 0 15 -12 20 -23 9z"/>
<path d="M3992 1022 c2 -9 11 -17 21 -17 24 0 23 18 -3 27 -17 6 -21 4 -18
-10z"/>
</g>
</svg>
