<?xml version="1.0" standalone="no"?>
<!DOCTYPE svg PUBLIC "-//W3C//DTD SVG 20010904//EN"
 "http://www.w3.org/TR/2001/REC-SVG-20010904/DTD/svg10.dtd">
<svg version="1.0" xmlns="http://www.w3.org/2000/svg"
 width="480.000000pt" height="360.000000pt" viewBox="0 0 480.000000 360.000000"
 preserveAspectRatio="xMidYMid meet">
<metadata>
Created by potrace 1.16, written by Peter Selinger 2001-2019
</metadata>
<rect width="1" height="360" fill="#000000"/>
<rect x="479" width="1" height="360" fill="#000000"/>
<rect width="480" height="1" fill="#000000"/>
<rect y="359" width="480" height="1" fill="#000000"/>
<g transform="translate(0.000000,360.000000) scale(0.100000,-0.100000)"
fill="#000000" stroke="none">
<path d="M2290 3334 c-79 -15 -130 -54 -130 -98 0 -9 -18 -34 -40 -56 l-40
-39 0 -86 c0 -95 13 -137 54 -174 14 -14 26 -35 26 -47 0 -16 4 -22 14 -18 8
3 24 -4 35 -15 11 -11 27 -18 36 -15 20 8 19 -11 -2 -47 -10 -17 -32 -34 -53
-40 -19 -7 -45 -19 -57 -27 -13 -8 -30 -12 -38 -8 -8 3 -31 -2 -50 -11 -34
-16 -35 -16 -55 10 -27 34 -49 34 -117 1 -49 -25 -53 -29 -53 -63 0 -20 -9
-72 -20 -116 -20 -78 -20 -80 -2 -105 36 -48 77 -36 269 82 35 20 74 40 87 44
23 6 24 4 23 -43 -2 -40 1 -49 19 -57 19 -8 23 -20 26 -75 3 -46 12 -84 33
-126 33 -70 34 -98 7 -185 -56 -181 -111 -274 -251 -431 -177 -196 -213 -246
-256 -349 -19 -45 -47 -102 -63 -128 -48 -75 -48 -85 -5 -118 36 -27 44 -29
143 -30 77 -1 113 3 137 14 26 13 38 14 70 4 l38 -11 -3 -98 c-2 -54 -6 -127
-10 -162 l-7 -64 -79 -28 c-83 -30 -101 -41 -117 -71 -14 -27 -3 -54 29 -67
52 -20 239 -71 264 -71 14 0 30 6 35 13 32 39 55 178 69 407 3 63 13 131 20
150 8 19 13 51 12 70 -1 19 -1 60 0 91 l2 57 56 38 c51 35 60 38 127 38 112 1
119 -3 155 -83 17 -39 28 -79 25 -89 -3 -12 18 -59 52 -120 l56 -101 -2 -110
c-3 -95 -1 -113 15 -130 38 -42 99 -16 125 50 5 15 15 82 21 150 l12 123 -26
23 c-15 13 -35 23 -45 23 -11 0 -21 6 -24 14 -5 11 5 13 53 9 50 -5 60 -3 76
15 10 12 21 19 25 16 7 -4 120 63 187 111 30 22 28 53 -8 106 -18 28 -26 47
-20 53 25 25 9 64 -55 134 -69 74 -97 91 -120 72 -21 -17 -68 40 -130 162 -30
58 -55 111 -55 117 0 6 14 7 35 4 28 -4 41 0 75 27 22 17 40 38 40 47 0 8 -14
45 -30 83 -17 38 -27 75 -24 84 3 8 -15 56 -40 107 -35 70 -43 96 -36 110 18
32 11 103 -14 153 -20 39 -22 53 -14 76 7 23 5 37 -16 78 -32 64 -75 114 -92
108 -14 -5 -111 130 -101 140 3 3 10 -4 17 -15 6 -12 16 -21 23 -21 29 0 77
141 77 226 0 39 -7 61 -31 99 -36 56 -53 72 -91 80 -15 4 -37 22 -52 45 -42
63 -141 100 -226 84z m456 -1255 c22 -56 31 -69 45 -66 17 5 17 3 3 -19 -13
-19 -14 -29 -4 -61 7 -21 17 -44 23 -51 9 -11 5 -13 -18 -10 -25 3 -31 11 -51
66 -28 77 -47 108 -93 149 -20 17 -34 33 -31 35 11 9 85 35 92 31 3 -2 19 -35
34 -74z"/>
</g>
</svg>
