<?xml version="1.0" standalone="no"?>
<!DOCTYPE svg PUBLIC "-//W3C//DTD SVG 20010904//EN"
 "http://www.w3.org/TR/2001/REC-SVG-20010904/DTD/svg10.dtd">
<svg version="1.0" xmlns="http://www.w3.org/2000/svg"
 width="480.000000pt" height="360.000000pt" viewBox="0 0 480.000000 360.000000"
 preserveAspectRatio="xMidYMid meet">
<metadata>
Created by potrace 1.16, written by Peter Selinger 2001-2019
</metadata>
<rect width="1" height="360" fill="#000000"/>
<rect x="479" width="1" height="360" fill="#000000"/>
<rect width="480" height="1" fill="#000000"/>
<rect y="359" width="480" height="1" fill="#000000"/>
<g transform="translate(0.000000,360.000000) scale(0.100000,-0.100000)"
fill="#000000" stroke="none">
<path d="M2840 3548 c0 -71 26 -174 55 -225 14 -23 25 -45 25 -50 0 -4 -35
-20 -78 -36 -262 -92 -480 -327 -517 -557 -9 -56 -49 -147 -77 -177 -32 -34
-1 -29 34 4 l29 28 -7 -44 c-6 -35 -4 -42 6 -36 11 7 12 -8 6 -74 -4 -56 -3
-80 4 -76 5 3 10 13 10 21 0 31 19 12 25 -26 8 -45 24 -63 26 -28 1 20 2 21 6
3 3 -11 14 -31 24 -44 17 -21 19 -22 19 -5 1 14 5 12 17 -11 10 -18 18 -25 21
-17 2 8 17 -2 39 -28 20 -22 37 -39 40 -36 2 2 -3 25 -12 51 -21 63 -13 69 10
8 21 -58 40 -80 33 -40 -6 33 9 36 18 3 9 -39 -13 -100 -53 -140 -43 -43 -40
-59 18 -88 40 -21 59 -44 59 -73 0 -27 30 -55 58 -55 18 0 22 -6 22 -30 0 -18
7 -33 18 -39 10 -5 31 -33 46 -61 28 -52 29 -62 10 -162 -4 -20 -1 -28 16 -33
17 -5 21 -14 19 -38 -2 -18 2 -43 8 -57 6 -14 18 -75 28 -136 l17 -111 -26
-87 c-25 -79 -72 -156 -96 -156 -5 0 -31 14 -57 30 -68 43 -114 49 -143 20
-21 -21 -24 -21 -32 -6 -17 31 -72 89 -101 106 -15 9 -50 49 -77 89 -49 71
-49 72 -42 129 15 115 -21 261 -79 320 -46 47 -90 57 -201 45 -51 -5 -95 -8
-97 -6 -3 2 -7 22 -10 46 -8 56 -26 45 -26 -15 l1 -48 -74 -25 c-41 -13 -98
-42 -126 -64 -50 -37 -53 -43 -74 -122 -26 -98 -27 -114 -8 -182 8 -29 19 -78
26 -110 9 -46 23 -73 71 -133 67 -83 98 -106 179 -131 30 -9 58 -19 62 -23 5
-3 -10 -43 -32 -87 -59 -120 -89 -237 -101 -388 -6 -71 -21 -173 -35 -226 -13
-53 -24 -99 -24 -102 0 -4 229 -7 509 -7 571 0 520 -8 522 78 1 26 5 58 9 72
8 24 8 25 9 2 1 -13 8 -52 17 -87 l16 -65 684 0 683 0 3 62 3 63 70 20 c39 11
90 31 115 44 43 23 44 24 23 34 -30 13 -29 17 12 57 19 19 35 38 35 43 0 5
-27 6 -62 2 -50 -6 -86 -20 -172 -66 -60 -32 -115 -59 -122 -59 -7 0 -15 19
-19 42 -4 24 -12 52 -17 62 -6 11 -12 42 -14 70 -1 29 -10 72 -19 96 -9 25
-17 54 -16 65 0 11 -14 72 -30 135 -17 63 -34 134 -38 157 -4 23 -13 49 -20
57 -7 8 -10 20 -7 25 4 5 -1 28 -10 51 -18 46 -13 61 13 38 10 -9 24 -13 31
-11 7 3 12 -3 12 -14 1 -10 23 -58 50 -107 l48 -89 7 48 c4 26 3 70 -3 99 -15
69 -35 266 -29 272 3 3 23 -33 45 -80 23 -47 44 -86 47 -86 4 0 4 8 0 18 -4 9
-9 33 -11 52 -2 19 -12 78 -24 130 -11 52 -22 133 -25 180 l-6 85 44 -130 c41
-123 78 -206 134 -303 14 -24 27 -41 29 -39 2 2 -10 56 -26 121 -17 65 -30
132 -30 150 0 28 7 20 66 -72 63 -98 92 -127 80 -79 -21 87 -36 252 -45 502
-13 345 -17 414 -37 564 -30 231 -89 458 -162 626 -22 50 -43 110 -47 135 -28
172 -184 379 -313 416 -60 18 -173 15 -210 -5 -17 -9 -24 -5 -48 27 -15 20
-62 72 -103 115 l-74 77 -239 0 -238 0 0 -52z m240 -1987 c19 -39 18 -45 -15
-64 -6 -3 -11 16 -13 49 -2 30 -1 54 2 54 3 0 15 -18 26 -39z"/>
</g>
</svg>
