<?xml version="1.0" standalone="no"?>
<!DOCTYPE svg PUBLIC "-//W3C//DTD SVG 20010904//EN"
 "http://www.w3.org/TR/2001/REC-SVG-20010904/DTD/svg10.dtd">
<svg version="1.0" xmlns="http://www.w3.org/2000/svg"
 width="480.000000pt" height="360.000000pt" viewBox="0 0 480.000000 360.000000"
 preserveAspectRatio="xMidYMid meet">
<metadata>
Created by potrace 1.16, written by Peter Selinger 2001-2019
</metadata>
<rect width="1" height="360" fill="#000000"/>
<rect x="479" width="1" height="360" fill="#000000"/>
<rect width="480" height="1" fill="#000000"/>
<rect y="359" width="480" height="1" fill="#000000"/>
<g transform="translate(0.000000,360.000000) scale(0.100000,-0.100000)"
fill="#000000" stroke="none">
<path d="M366 3543 c-4 -34 -1 -105 8 -173 9 -64 21 -183 26 -265 6 -83 15
-167 19 -188 11 -45 1 -52 -80 -63 -30 -4 -59 -11 -66 -16 -20 -16 -25 -59 -9
-77 8 -9 17 -49 21 -94 4 -42 11 -80 16 -83 5 -3 9 2 9 11 0 11 6 15 18 11 14
-5 17 1 16 37 0 53 13 94 33 101 25 10 28 -1 14 -55 -12 -45 -11 -55 4 -90 10
-21 21 -39 25 -39 7 0 83 -94 104 -128 6 -11 4 -13 -12 -8 -11 4 -24 0 -32 -9
-8 -10 -30 -15 -68 -15 -71 0 -201 -36 -228 -64 -23 -23 -44 -59 -44 -75 0 -6
33 -20 73 -32 42 -13 84 -33 102 -49 17 -15 39 -32 51 -38 13 -7 26 -29 34
-56 23 -82 121 -166 194 -166 13 0 57 23 98 50 40 28 90 53 111 56 69 12 44
30 -58 40 -36 4 -69 12 -74 18 -17 20 8 96 33 101 11 2 56 12 99 21 42 9 86
23 97 33 32 26 14 69 -42 106 -26 17 -47 35 -47 42 -1 7 31 49 69 95 80 95
160 245 159 299 0 33 0 33 -11 9 -9 -20 -12 -22 -15 -8 -2 9 2 29 10 45 20 39
29 83 18 83 -5 0 -12 -6 -15 -12 -3 -7 -5 -4 -5 7 2 33 -1 41 -9 28 -5 -7 -23
-14 -42 -16 -32 -2 -42 -12 -54 -49 -3 -11 -11 -15 -21 -12 -8 3 -12 10 -9 15
3 5 3 9 0 9 -2 0 -23 -34 -46 -75 -41 -74 -60 -98 -60 -74 0 20 -48 -31 -55
-58 -8 -35 -76 -176 -81 -170 -7 6 55 274 82 355 27 80 29 99 14 104 -16 5 13
80 61 161 22 38 84 114 136 169 114 121 177 212 168 246 -3 12 -1 31 5 42 11
20 6 20 -364 20 l-374 0 -6 -57z"/>
<path d="M2480 1800 l0 -1800 795 0 794 0 11 38 c6 20 15 73 20 117 15 118 28
183 51 246 14 43 17 63 10 82 l-10 26 -73 -33 c-104 -48 -134 -53 -149 -25
-11 22 -7 131 7 176 3 10 -2 5 -11 -10 -19 -33 -26 -31 -27 11 l-1 30 -25 -29
c-13 -17 -26 -28 -28 -26 -4 4 24 100 41 141 6 15 5 17 -5 11 -15 -9 -9 2 22
45 10 14 23 52 29 84 11 63 23 86 78 155 55 69 74 101 103 167 20 47 24 64 15
74 -9 9 -9 14 -1 17 7 2 49 47 94 98 73 85 85 95 115 95 19 0 37 -5 40 -11 4
-5 19 -8 34 -4 31 7 99 -19 107 -40 3 -7 1 -22 -5 -33 -8 -15 -6 -29 9 -60 11
-23 20 -54 20 -70 0 -29 -26 -62 -50 -62 -7 0 -30 -17 -51 -37 -21 -21 -49
-40 -61 -43 -20 -5 -17 -11 38 -65 35 -35 74 -87 93 -125 18 -36 45 -80 60
-97 25 -30 29 -32 54 -20 34 16 48 47 34 73 -13 23 -17 54 -6 54 5 0 6 7 3 15
-7 18 7 20 24 3 9 -9 12 -8 12 6 0 10 6 16 13 14 6 -3 16 -31 20 -64 4 -32 15
-79 23 -104 17 -53 18 -117 3 -157 -12 -33 -100 -125 -148 -155 -18 -12 -47
-24 -65 -28 -30 -6 -31 -7 -30 -61 1 -37 19 -105 58 -220 31 -92 56 -174 56
-183 0 -13 14 -16 90 -16 l90 0 0 1800 0 1800 -1160 0 -1160 0 0 -1800z"/>
<path d="M4280 864 c-6 -16 -13 -36 -16 -44 -10 -28 -14 -100 -5 -100 16 0 33
29 27 45 -3 9 -1 38 5 66 12 56 5 77 -11 33z"/>
</g>
</svg>
