<?xml version="1.0" standalone="no"?>
<!DOCTYPE svg PUBLIC "-//W3C//DTD SVG 20010904//EN"
 "http://www.w3.org/TR/2001/REC-SVG-20010904/DTD/svg10.dtd">
<svg version="1.0" xmlns="http://www.w3.org/2000/svg"
 width="480.000000pt" height="360.000000pt" viewBox="0 0 480.000000 360.000000"
 preserveAspectRatio="xMidYMid meet">
<metadata>
Created by potrace 1.16, written by Peter Selinger 2001-2019
</metadata>
<rect width="1" height="360" fill="#000000"/>
<rect x="479" width="1" height="360" fill="#000000"/>
<rect width="480" height="1" fill="#000000"/>
<rect y="359" width="480" height="1" fill="#000000"/>
<g transform="translate(0.000000,360.000000) scale(0.100000,-0.100000)"
fill="#000000" stroke="none">
<path d="M0 2691 l0 -909 37 9 c106 23 577 58 1068 79 138 5 383 16 545 22
188 8 708 13 1435 13 l1140 0 -2 25 c-3 38 28 128 57 160 23 27 28 29 69 21
56 -11 89 -45 99 -101 6 -36 12 -45 35 -51 15 -4 29 -3 33 2 3 5 27 9 53 9 26
0 52 5 59 12 9 9 98 14 139 7 33 -6 33 -11 33 806 l0 805 -2400 0 -2400 0 0
-909z"/>
<path d="M1580 1650 c-388 -12 -798 -29 -1105 -45 -148 -8 -316 -15 -372 -15
l-103 0 0 -795 0 -795 2400 0 2400 0 0 705 0 704 -27 14 c-16 8 -41 17 -58 21
-49 12 -117 59 -183 127 l-62 64 0 -55 c0 -47 -6 -62 -35 -102 -31 -43 -39
-48 -73 -48 -31 0 -45 7 -74 38 -32 32 -37 45 -43 104 -7 64 -8 66 -39 72 -52
10 -2341 15 -2626 6z"/>
</g>
</svg>
