<?xml version="1.0" standalone="no"?>
<!DOCTYPE svg PUBLIC "-//W3C//DTD SVG 20010904//EN"
 "http://www.w3.org/TR/2001/REC-SVG-20010904/DTD/svg10.dtd">
<svg version="1.0" xmlns="http://www.w3.org/2000/svg"
 width="480.000000pt" height="360.000000pt" viewBox="0 0 480.000000 360.000000"
 preserveAspectRatio="xMidYMid meet">
<metadata>
Created by potrace 1.16, written by Peter Selinger 2001-2019
</metadata>
<rect width="1" height="360" fill="#000000"/>
<rect x="479" width="1" height="360" fill="#000000"/>
<rect width="480" height="1" fill="#000000"/>
<rect y="359" width="480" height="1" fill="#000000"/>
<g transform="translate(0.000000,360.000000) scale(0.100000,-0.100000)"
fill="#000000" stroke="none">
<path d="M2671 3574 c-12 -15 -21 -31 -21 -36 0 -5 -9 -4 -19 2 -54 28 -205
-1 -242 -48 -15 -19 -23 -23 -27 -13 -18 52 -108 76 -252 68 -147 -8 -348 -79
-352 -124 -5 -64 -4 -79 5 -92 16 -19 27 -40 98 -181 79 -156 108 -191 152
-183 l32 5 1 -59 c0 -46 7 -73 37 -132 41 -82 50 -153 21 -169 -12 -7 -17 -30
-21 -93 -2 -46 -8 -110 -12 -142 -6 -45 -5 -60 6 -66 8 -4 18 -36 24 -75 8
-59 7 -71 -12 -107 -11 -23 -25 -69 -31 -102 -14 -82 -63 -184 -97 -201 -51
-27 -64 -51 -58 -105 4 -37 1 -58 -13 -87 -11 -20 -17 -40 -15 -44 3 -4 -2
-13 -10 -20 -8 -6 -19 -28 -25 -48 -6 -20 -15 -46 -20 -57 -4 -11 -13 -36 -20
-55 -7 -19 -20 -53 -30 -75 -9 -22 -24 -67 -34 -100 -10 -33 -24 -79 -32 -102
-9 -24 -13 -47 -10 -52 4 -5 2 -12 -3 -16 -13 -8 -73 -194 -66 -205 3 -4 -2
-13 -10 -20 -8 -7 -15 -22 -15 -35 0 -12 -5 -37 -12 -55 -9 -26 -9 -35 0 -38
7 -2 12 -12 12 -23 0 -24 4 -24 40 3 24 17 32 19 45 8 20 -17 19 -49 -5 -101
-48 -108 -11 -168 141 -227 23 -9 28 -20 43 -99 10 -48 29 -122 42 -164 13
-42 21 -84 18 -93 -6 -15 69 -16 871 -16 l877 0 -5 23 c-21 82 -28 157 -18
175 15 29 14 96 -5 220 -16 112 -13 162 12 183 8 7 21 24 29 39 13 25 8 39
-81 236 -172 380 -184 408 -225 549 -55 183 -55 187 -24 269 32 85 26 94 -47
78 -28 -7 -55 -9 -58 -5 -12 13 -30 100 -51 233 -22 145 -38 172 -134 230 -32
20 -62 46 -67 59 -10 27 -1 43 12 21 24 -42 39 -55 49 -41 7 11 12 8 25 -15
l17 -29 -7 35 c-3 19 -15 58 -25 85 -27 72 -23 88 8 33 14 -27 28 -46 30 -44
2 2 -6 28 -18 57 -47 119 -65 206 -28 136 11 -22 22 -37 24 -35 1 1 -3 32 -11
68 -22 108 -32 239 -19 257 6 9 29 17 51 19 42 3 74 32 74 66 0 11 -19 48 -42
82 -23 33 -52 76 -65 95 -13 19 -23 42 -23 53 0 16 6 17 43 12 23 -3 48 -8 55
-10 39 -12 81 24 74 63 -2 6 2 14 7 18 6 3 8 12 4 20 -3 9 -1 21 5 28 6 7 10
69 10 147 0 74 1 140 2 145 1 6 2 18 1 28 -1 16 -21 17 -280 17 l-280 0 -20
-26z m-461 -1239 c0 -8 -4 -15 -10 -15 -5 0 -10 7 -10 15 0 8 5 15 10 15 6 0
10 -7 10 -15z m-14 -49 c5 -14 -25 -71 -33 -62 -2 2 -1 20 2 40 7 37 21 47 31
22z m844 -891 c12 -155 38 -438 46 -500 l6 -40 -32 33 c-25 27 -29 36 -19 48
8 10 9 21 1 41 -6 16 -13 51 -15 78 -3 28 -15 102 -26 165 -24 130 -26 215 -9
290 19 85 36 46 48 -115z"/>
</g>
</svg>
