<?xml version="1.0" standalone="no"?>
<!DOCTYPE svg PUBLIC "-//W3C//DTD SVG 20010904//EN"
 "http://www.w3.org/TR/2001/REC-SVG-20010904/DTD/svg10.dtd">
<svg version="1.0" xmlns="http://www.w3.org/2000/svg"
 width="480.000000pt" height="360.000000pt" viewBox="0 0 480.000000 360.000000"
 preserveAspectRatio="xMidYMid meet">
<metadata>
Created by potrace 1.16, written by Peter Selinger 2001-2019
</metadata>
<rect width="1" height="360" fill="#000000"/>
<rect x="479" width="1" height="360" fill="#000000"/>
<rect width="480" height="1" fill="#000000"/>
<rect y="359" width="480" height="1" fill="#000000"/>
<g transform="translate(0.000000,360.000000) scale(0.100000,-0.100000)"
fill="#000000" stroke="none">
<path d="M0 1800 l0 -1800 355 0 c195 0 355 2 355 3 0 2 -23 42 -51 88 -174
289 -282 663 -346 1194 -20 168 -24 693 -6 818 l10 68 -51 26 c-82 41 -114 69
-122 108 -9 50 1 80 43 126 46 50 100 79 152 79 62 0 63 -38 3 -102 -14 -15
-23 -31 -19 -35 13 -13 186 -22 437 -22 284 -1 348 8 446 57 76 38 208 79 304
92 109 16 428 13 556 -5 l109 -15 48 48 c59 59 57 86 -4 76 -48 -8 -85 1 -93
23 -5 12 14 36 69 89 l75 72 0 103 c0 160 15 191 130 268 140 95 298 150 370
131 33 -9 173 -106 192 -134 4 -6 32 -1 72 12 96 32 168 39 185 18 19 -23 -4
-54 -92 -125 -37 -29 -67 -59 -67 -67 0 -7 27 -46 59 -87 54 -68 58 -76 39
-80 -13 -4 -19 -11 -15 -21 11 -28 -13 -70 -58 -104 -51 -37 -57 -64 -20 -88
30 -20 31 -31 4 -60 -15 -16 -24 -44 -31 -101 -17 -141 -18 -145 -53 -180
l-34 -34 87 -40 c75 -35 91 -39 115 -30 29 10 52 6 75 -13 8 -6 62 -36 120
-66 84 -43 108 -60 110 -78 2 -15 18 -32 40 -45 20 -12 86 -54 145 -94 102
-69 110 -72 130 -58 29 20 60 19 81 -4 10 -11 28 -22 42 -25 13 -4 24 -13 24
-21 0 -7 13 -23 30 -35 17 -12 30 -30 30 -39 0 -10 7 -24 15 -31 9 -7 12 -22
9 -39 -5 -23 7 -40 88 -125 166 -175 278 -334 420 -596 141 -259 145 -265 236
-272 l52 -5 0 1488 0 1489 -2400 0 -2400 0 0 -1800z"/>
<path d="M1535 2344 c-132 -20 -207 -48 -339 -128 -72 -43 -132 -64 -233 -79
l-78 -12 -13 -70 c-17 -85 -25 -827 -11 -1060 21 -358 88 -659 206 -917 l36
-78 463 0 463 0 15 53 c8 28 40 146 70 262 84 323 104 372 237 570 136 204
133 189 114 551 -10 184 -14 343 -10 413 7 119 0 135 -29 68 l-14 -32 -1 35
c0 19 8 72 18 117 10 45 16 85 13 88 -3 3 -16 5 -29 5 -54 0 -203 102 -218
150 -7 23 -17 26 -131 46 -86 15 -462 28 -529 18z"/>
<path d="M3010 2014 c0 -3 11 -20 25 -38 17 -22 21 -36 14 -43 -13 -13 9 -65
25 -60 11 4 11 61 1 103 -5 22 -65 58 -65 38z"/>
<path d="M3389 1799 c-9 -18 -6 -26 20 -53 17 -18 31 -42 31 -54 0 -15 -30
-54 -86 -112 -59 -61 -81 -90 -69 -90 32 0 154 40 227 75 40 19 78 35 85 35
11 0 59 58 52 64 -2 1 -26 18 -54 38 -52 37 -182 118 -190 118 -2 0 -9 -9 -16
-21z"/>
<path d="M3838 1442 c-20 -20 -29 -41 -34 -82 -12 -100 -11 -100 -184 -100
-128 0 -168 -4 -268 -27 -114 -26 -207 -34 -247 -19 -17 6 -25 -2 -47 -43 -18
-32 -37 -51 -53 -55 -14 -4 -25 -12 -25 -19 0 -14 18 -119 55 -322 14 -77 34
-228 45 -335 11 -107 27 -248 35 -312 8 -64 15 -119 15 -122 0 -3 376 -6 835
-6 l835 0 0 148 0 148 -34 12 c-46 17 -157 120 -213 199 -25 36 -95 157 -154
269 -117 220 -188 334 -279 447 -74 93 -226 247 -243 246 -6 0 -24 -12 -39
-27z"/>
</g>
</svg>
