<?xml version="1.0" standalone="no"?>
<!DOCTYPE svg PUBLIC "-//W3C//DTD SVG 20010904//EN"
 "http://www.w3.org/TR/2001/REC-SVG-20010904/DTD/svg10.dtd">
<svg version="1.0" xmlns="http://www.w3.org/2000/svg"
 width="480.000000pt" height="360.000000pt" viewBox="0 0 480.000000 360.000000"
 preserveAspectRatio="xMidYMid meet">
<metadata>
Created by potrace 1.16, written by Peter Selinger 2001-2019
</metadata>
<rect width="1" height="360" fill="#000000"/>
<rect x="479" width="1" height="360" fill="#000000"/>
<rect width="480" height="1" fill="#000000"/>
<rect y="359" width="480" height="1" fill="#000000"/>
<g transform="translate(0.000000,360.000000) scale(0.100000,-0.100000)"
fill="#000000" stroke="none">
<path d="M1800 1800 l0 -1800 1500 0 1500 0 0 865 c0 476 -4 865 -9 865 -4 0
-20 -11 -34 -24 l-27 -25 -20 27 c-16 20 -23 23 -29 13 -6 -9 -17 -1 -37 30
-32 47 -94 84 -259 154 -109 45 -150 69 -192 108 l-32 30 -48 -25 c-46 -23
-88 -28 -125 -13 -17 7 -20 0 -33 -62 -9 -45 -26 -57 -61 -41 -22 10 -28 10
-32 0 -8 -25 -28 -11 -50 36 -18 37 -21 57 -16 93 l6 46 -55 31 c-30 17 -83
36 -118 43 -100 18 -132 33 -144 65 -24 67 -74 123 -110 124 -12 0 -25 4 -30
9 -6 4 -32 14 -60 21 -27 7 -55 17 -60 21 -15 11 -167 51 -173 45 -2 -3 10
-27 27 -54 34 -54 37 -63 19 -60 -9 2 -12 -9 -10 -34 5 -49 -12 -49 -37 0 -39
76 -82 122 -165 176 -90 60 -106 65 -126 41 -12 -14 -15 -14 -31 1 -17 16 -19
16 -25 0 -5 -12 -14 -4 -38 35 -24 41 -40 56 -76 69 -33 13 -51 28 -67 56 -31
53 -47 114 -34 127 10 10 163 -37 256 -79 64 -29 285 -110 494 -181 l164 -56
18 21 c9 12 21 22 27 22 23 0 155 162 170 211 14 42 18 91 9 106 -4 6 9 30 28
54 30 35 35 47 29 73 -3 17 -10 36 -13 41 -4 6 -13 30 -20 53 -7 24 -32 75
-57 113 -39 62 -104 191 -104 208 0 4 6 15 13 25 12 16 14 15 35 -5 27 -24 38
-20 23 10 -17 31 22 66 78 70 43 3 44 3 37 -26 -10 -36 -10 -61 -3 -93 3 -14
6 -28 6 -32 2 -14 111 -8 149 8 44 18 86 12 152 -21 75 -38 105 -80 129 -183
22 -92 28 -202 12 -202 -5 0 -17 24 -27 53 -24 74 -42 107 -60 107 -31 0 -24
-32 24 -122 38 -72 50 -103 50 -139 0 -71 -12 -81 -49 -39 -27 32 -30 33 -24
10 4 -14 13 -38 21 -55 17 -35 54 -174 54 -204 0 -13 21 -36 59 -65 33 -25 81
-70 108 -100 l48 -55 170 -15 c105 -9 195 -22 235 -35 36 -11 66 -21 68 -21 1
0 2 304 2 675 l0 675 -1500 0 -1500 0 0 -1800z"/>
<path d="M3720 2589 c-7 -19 -20 -42 -28 -51 -20 -24 -5 -23 36 2 35 21 39 36
19 64 -13 17 -15 16 -27 -15z"/>
<path d="M220 2237 c-69 -20 -111 -43 -168 -93 l-52 -46 0 -267 0 -268 33 -34
c89 -95 250 -140 386 -108 150 34 268 153 311 311 21 78 9 192 -27 270 -43 92
-138 187 -218 218 -73 28 -199 36 -265 17z"/>
</g>
</svg>
