<?xml version="1.0" standalone="no"?>
<!DOCTYPE svg PUBLIC "-//W3C//DTD SVG 20010904//EN"
 "http://www.w3.org/TR/2001/REC-SVG-20010904/DTD/svg10.dtd">
<svg version="1.0" xmlns="http://www.w3.org/2000/svg"
 width="480.000000pt" height="360.000000pt" viewBox="0 0 480.000000 360.000000"
 preserveAspectRatio="xMidYMid meet">
<metadata>
Created by potrace 1.16, written by Peter Selinger 2001-2019
</metadata>
<rect width="1" height="360" fill="#000000"/>
<rect x="479" width="1" height="360" fill="#000000"/>
<rect width="480" height="1" fill="#000000"/>
<rect y="359" width="480" height="1" fill="#000000"/>
<g transform="translate(0.000000,360.000000) scale(0.100000,-0.100000)"
fill="#000000" stroke="none">
<path d="M0 2304 c0 -1229 1 -1295 18 -1290 9 2 42 8 72 11 30 4 71 16 92 27
30 16 71 22 196 29 86 5 163 12 170 14 6 2 12 20 12 39 0 34 -12 46 -50 46
-10 0 -22 4 -25 10 -3 5 3 63 14 127 10 65 22 150 25 188 4 39 9 87 12 107 5
33 3 38 -25 52 -37 20 -48 51 -27 75 9 10 16 23 16 30 0 6 8 40 19 74 31 105
43 165 37 194 -3 16 -2 66 3 112 10 98 24 117 94 130 52 9 102 -9 121 -45 6
-10 19 -32 29 -47 19 -28 19 -29 -3 -52 -18 -19 -21 -30 -15 -63 4 -28 2 -42
-9 -51 -11 -9 -12 -20 -5 -44 5 -18 9 -48 9 -68 0 -31 6 -41 46 -72 25 -20 51
-38 57 -40 6 -2 11 -27 12 -55 l1 -52 -47 0 c-69 0 -76 -15 -51 -98 11 -37 36
-132 56 -212 19 -80 38 -155 42 -167 10 -36 -23 -42 -49 -10 -12 15 -33 28
-46 29 -21 3 -26 -3 -32 -30 -5 -27 -1 -39 28 -78 19 -25 33 -47 31 -48 -13
-12 -134 -37 -243 -50 -71 -9 -177 -24 -235 -34 -60 -9 -158 -17 -227 -17
l-123 0 0 -487 0 -488 918 0 917 1 40 39 c22 22 43 40 47 40 4 0 28 39 54 88
72 132 106 181 170 247 66 67 188 214 183 220 -4 3 -183 -51 -259 -79 -34 -12
-35 -14 -34 -62 1 -34 -1 -43 -6 -29 -5 11 -9 33 -9 49 -1 23 -4 27 -18 21
-10 -4 -47 -9 -83 -12 -59 -5 -67 -3 -88 19 -30 32 -22 39 93 73 50 15 94 31
99 36 5 5 0 16 -14 27 -39 32 -4 86 41 62 22 -12 25 -49 7 -69 -19 -20 24 -8
182 51 196 73 201 76 232 133 15 27 24 52 22 55 -3 2 -23 10 -44 16 -33 10
-40 9 -54 -7 -9 -11 -22 -19 -30 -19 -20 0 -45 37 -39 59 4 15 -10 24 -79 50
-212 80 -298 117 -303 130 -3 8 2 22 11 32 16 18 18 18 53 0 33 -17 277 -110
328 -125 16 -5 23 -2 28 13 7 23 44 34 62 19 7 -6 13 -21 13 -34 0 -19 9 -26
55 -40 l54 -17 42 42 c23 23 48 54 56 68 14 27 18 73 6 73 -5 0 -14 4 -21 8
-10 7 -7 21 12 63 15 32 29 87 34 135 5 45 14 90 20 100 9 15 3 26 -30 62 -35
39 -40 48 -35 79 3 19 18 50 32 68 31 42 31 50 0 71 -14 9 -25 26 -25 39 0 25
-22 48 -52 52 -11 2 -35 16 -53 31 -30 24 -33 31 -28 67 2 22 17 66 32 98 16
32 25 59 22 61 -3 2 -64 13 -136 25 -71 12 -157 26 -190 32 -33 6 -87 15 -120
20 -33 4 -91 15 -130 23 -63 13 -214 38 -305 50 -19 2 -81 13 -137 24 -57 10
-115 17 -130 16 -16 -2 -50 3 -77 11 -27 8 -66 15 -85 15 -42 0 -99 39 -86 60
12 19 230 7 420 -24 156 -26 655 -121 905 -173 69 -14 129 -26 134 -27 5 0 16
11 23 27 16 30 33 36 33 11 0 -11 5 -14 18 -9 9 4 44 13 77 20 33 8 86 24 119
35 34 12 76 20 100 18 l41 -3 3 -65 3 -65 69 -32 c39 -18 74 -33 79 -33 5 0
12 -9 16 -20 4 -13 19 -21 43 -25 96 -17 125 -38 150 -114 13 -37 16 -104 6
-114 -7 -7 -104 126 -104 143 0 11 -27 24 -76 34 -28 6 -33 4 -53 -29 -24 -42
-27 -89 -6 -125 36 -63 -8 -189 -80 -231 -19 -11 -37 -30 -41 -41 -3 -11 -3
-64 0 -117 9 -126 28 -335 31 -339 3 -4 134 53 283 124 74 35 140 64 146 64 7
0 22 -21 35 -47 18 -38 20 -48 9 -58 -7 -6 -120 -58 -251 -115 -131 -57 -240
-107 -243 -112 -8 -12 18 -97 32 -109 16 -13 290 -90 482 -135 129 -30 162
-41 160 -53 -2 -9 -17 -22 -33 -30 -25 -12 -43 -12 -115 -2 -92 13 -236 47
-369 87 -45 14 -85 24 -87 22 -8 -9 72 -114 149 -197 243 -263 240 -258 233
-296 -4 -19 -22 -55 -41 -80 -19 -25 -35 -49 -35 -54 0 -13 -59 -61 -74 -61
-7 0 -21 -7 -32 -15 -17 -13 69 -14 729 -15 l747 0 0 1800 0 1800 -934 0 -935
0 -7 -22 c-4 -13 -2 -24 4 -26 21 -7 190 -128 265 -190 43 -36 136 -129 207
-207 71 -78 143 -154 161 -169 45 -38 115 -72 190 -91 35 -9 78 -23 96 -30 38
-16 143 -94 143 -106 0 -16 -25 -9 -64 17 -31 21 -63 30 -166 44 -197 27 -224
42 -465 262 -77 70 -167 147 -200 172 -121 89 -301 169 -424 187 -36 5 -85 19
-109 32 -46 22 -112 90 -112 114 0 11 -217 13 -1225 13 l-1225 0 0 -1296z
m4300 1052 c0 -8 -4 -17 -9 -21 -12 -7 -24 12 -16 25 9 15 25 12 25 -4z m-74
-722 c35 -17 45 -34 20 -34 -16 0 -77 49 -63 50 5 0 24 -7 43 -16z m-1606 -74
c0 -5 -4 -10 -10 -10 -5 0 -10 5 -10 10 0 6 5 10 10 10 6 0 10 -4 10 -10z
m160 -130 c0 -5 -4 -10 -10 -10 -5 0 -10 5 -10 10 0 6 5 10 10 10 6 0 10 -4
10 -10z m1770 -1054 c0 -2 -7 -9 -15 -16 -12 -10 -15 -10 -15 4 0 9 7 16 15
16 8 0 15 -2 15 -4z"/>
<path d="M633 1164 c-8 -21 29 -69 53 -69 14 0 18 6 16 24 -5 48 -55 80 -69
45z"/>
<path d="M2077 76 c-31 -36 -57 -67 -57 -70 0 -3 84 -6 188 -6 l187 0 -25 20
c-14 11 -33 17 -42 14 -25 -7 -58 5 -58 21 0 7 -11 16 -25 19 -14 4 -25 11
-25 16 0 6 -5 10 -11 10 -6 0 -22 9 -36 20 -14 11 -29 20 -33 20 -3 0 -32 -29
-63 -64z"/>
</g>
</svg>
