<?xml version="1.0" standalone="no"?>
<!DOCTYPE svg PUBLIC "-//W3C//DTD SVG 20010904//EN"
 "http://www.w3.org/TR/2001/REC-SVG-20010904/DTD/svg10.dtd">
<svg version="1.0" xmlns="http://www.w3.org/2000/svg"
 width="480.000000pt" height="360.000000pt" viewBox="0 0 480.000000 360.000000"
 preserveAspectRatio="xMidYMid meet">
<metadata>
Created by potrace 1.16, written by Peter Selinger 2001-2019
</metadata>
<rect width="1" height="360" fill="#000000"/>
<rect x="479" width="1" height="360" fill="#000000"/>
<rect width="480" height="1" fill="#000000"/>
<rect y="359" width="480" height="1" fill="#000000"/>
<g transform="translate(0.000000,360.000000) scale(0.100000,-0.100000)"
fill="#000000" stroke="none">
<path d="M0 1800 l0 -1800 820 0 820 0 0 44 c0 40 4 47 35 66 47 29 115 108
115 134 0 12 24 89 54 171 29 83 61 177 71 210 9 33 37 100 61 148 50 99 52
116 23 156 -15 21 -27 27 -45 23 -13 -2 -39 5 -59 17 -31 18 -53 21 -153 22
-132 0 -185 13 -190 45 -2 17 4 23 28 27 31 7 31 7 15 36 -32 63 -16 67 44 11
39 -37 47 -40 80 -34 43 8 130 53 159 82 12 12 26 22 31 22 5 0 13 10 17 23
13 42 23 48 55 31 16 -8 29 -19 29 -24 0 -6 5 -10 10 -10 6 0 10 42 10 105 0
117 -6 127 -60 105 -26 -11 -33 -10 -49 4 -9 9 -23 16 -29 16 -6 0 -56 -23
-110 -51 -112 -59 -135 -60 -184 -7 -47 50 -36 87 60 206 l35 42 -27 21 c-33
26 -33 44 2 66 15 10 38 31 51 46 19 22 30 28 50 24 19 -4 34 2 57 24 38 37
139 65 148 42 3 -8 1 -23 -4 -34 -8 -14 -7 -19 2 -19 33 0 150 23 210 41 73
22 78 29 78 109 -1 47 -4 46 -36 -7 -11 -17 -11 -17 -10 2 1 38 -17 125 -26
125 -5 0 -6 15 -3 34 7 36 -9 81 -26 71 -5 -4 -9 3 -9 14 0 30 -11 52 -22 45
-13 -8 -2 113 14 164 7 25 7 46 -2 77 -12 45 -2 85 22 85 6 0 3 9 -6 19 -21
23 -12 46 35 85 38 32 73 33 94 4 13 -20 17 -21 25 -8 5 8 10 22 10 31 0 31
25 41 89 33 55 -6 62 -9 68 -32 l6 -25 27 33 c34 42 66 37 94 -15 16 -29 24
-35 40 -30 70 20 82 18 125 -20 25 -23 41 -46 41 -60 0 -12 3 -37 6 -54 5 -26
11 -31 35 -31 36 0 45 -15 25 -46 -12 -16 -14 -30 -7 -42 16 -32 25 -106 26
-227 0 -66 4 -133 9 -149 8 -26 7 -28 -13 -21 -15 5 -21 2 -21 -9 0 -19 -16
-21 -23 -3 -8 17 -27 -11 -27 -40 0 -12 -8 -29 -17 -39 -17 -16 -18 -16 -24 7
-4 13 -7 18 -8 12 -2 -20 -21 -15 -22 5 -1 11 -4 9 -9 -8 l-8 -25 -2 25 c-1
22 -3 21 -20 -15 -22 -47 -24 -65 -9 -65 7 0 39 -10 72 -22 54 -20 62 -26 80
-67 17 -36 21 -67 22 -141 0 -82 -3 -102 -25 -145 -21 -41 -34 -55 -80 -77
l-54 -26 -37 -110 c-41 -121 -64 -240 -55 -277 5 -18 15 -25 48 -30 71 -12
255 -91 321 -137 31 -22 34 -46 12 -108 -15 -44 -158 -230 -175 -230 -20 0 -9
-29 43 -111 54 -87 167 -235 230 -303 21 -22 37 -44 37 -48 0 -4 374 -8 830
-8 l830 0 0 1800 0 1800 -2400 0 -2400 0 0 -1800z"/>
<path d="M2307 1950 c-9 -11 -17 -33 -17 -49 0 -27 2 -29 44 -29 49 -1 78 20
58 40 -9 9 -12 7 -12 -7 0 -14 -8 -8 -28 22 -28 42 -28 42 -45 23z"/>
<path d="M2880 101 c0 -4 9 -29 20 -55 l21 -46 76 0 c45 0 73 4 68 9 -21 18
-185 101 -185 92z"/>
</g>
</svg>
