<?xml version="1.0" standalone="no"?>
<!DOCTYPE svg PUBLIC "-//W3C//DTD SVG 20010904//EN"
 "http://www.w3.org/TR/2001/REC-SVG-20010904/DTD/svg10.dtd">
<svg version="1.0" xmlns="http://www.w3.org/2000/svg"
 width="480.000000pt" height="360.000000pt" viewBox="0 0 480.000000 360.000000"
 preserveAspectRatio="xMidYMid meet">
<metadata>
Created by potrace 1.16, written by Peter Selinger 2001-2019
</metadata>
<rect width="1" height="360" fill="#000000"/>
<rect x="479" width="1" height="360" fill="#000000"/>
<rect width="480" height="1" fill="#000000"/>
<rect y="359" width="480" height="1" fill="#000000"/>
<g transform="translate(0.000000,360.000000) scale(0.100000,-0.100000)"
fill="#000000" stroke="none">
<path d="M0 1800 l0 -1800 204 0 204 0 44 52 c52 63 392 366 468 418 30 21 69
57 87 81 17 24 42 55 55 69 13 14 61 68 107 120 46 52 224 237 395 410 412
416 437 445 533 587 111 163 113 167 69 212 -56 59 -65 87 -72 223 -10 181 6
231 129 410 18 26 41 62 52 80 25 40 129 126 215 177 81 49 216 95 340 117
316 55 660 -71 809 -296 85 -129 100 -184 101 -370 0 -381 -51 -781 -130
-1014 -16 -49 -27 -92 -24 -97 2 -4 33 -23 67 -41 72 -39 134 -98 273 -263
229 -272 346 -383 842 -799 l32 -28 0 1776 0 1776 -2400 0 -2400 0 0 -1800z"/>
<path d="M1831 1095 c-34 -41 -59 -75 -57 -75 15 0 54 24 62 38 26 42 63 112
60 112 -3 0 -32 -34 -65 -75z"/>
<path d="M1290 276 c-25 -24 -76 -73 -115 -107 -38 -35 -89 -86 -113 -114 -38
-44 -41 -50 -24 -53 15 -2 58 36 154 133 136 140 152 159 146 175 -2 6 -23
-10 -48 -34z"/>
<path d="M3432 64 l1 -64 125 0 126 0 -35 26 c-45 34 -101 62 -165 84 l-53 18
1 -64z"/>
<path d="M1166 43 c-31 -35 -35 -43 -20 -43 12 0 28 16 42 41 13 22 22 42 20
43 -2 1 -20 -17 -42 -41z"/>
</g>
</svg>
