<?xml version="1.0" standalone="no"?>
<!DOCTYPE svg PUBLIC "-//W3C//DTD SVG 20010904//EN"
 "http://www.w3.org/TR/2001/REC-SVG-20010904/DTD/svg10.dtd">
<svg version="1.0" xmlns="http://www.w3.org/2000/svg"
 width="480.000000pt" height="360.000000pt" viewBox="0 0 480.000000 360.000000"
 preserveAspectRatio="xMidYMid meet">
<metadata>
Created by potrace 1.16, written by Peter Selinger 2001-2019
</metadata>
<rect width="1" height="360" fill="#000000"/>
<rect x="479" width="1" height="360" fill="#000000"/>
<rect width="480" height="1" fill="#000000"/>
<rect y="359" width="480" height="1" fill="#000000"/>
<g transform="translate(0.000000,360.000000) scale(0.100000,-0.100000)"
fill="#000000" stroke="none">
<path d="M1754 2406 c-81 -55 -97 -90 -100 -213 -2 -96 0 -107 25 -156 19 -35
44 -63 76 -85 l48 -33 4 -82 c2 -45 3 -95 3 -111 -1 -45 59 -279 80 -314 30
-48 92 -76 157 -69 30 3 69 15 88 26 19 11 36 17 38 13 11 -18 57 -197 72
-277 18 -96 15 -147 -10 -175 -10 -11 -18 -45 -22 -89 -5 -64 -4 -74 15 -94
24 -26 36 -57 52 -138 6 -31 19 -63 28 -72 26 -23 129 -36 233 -30 l94 5 28
-46 c16 -25 56 -74 90 -109 58 -60 64 -64 100 -59 25 3 41 11 49 26 6 11 17
26 23 31 20 16 26 45 11 45 -8 0 -48 23 -89 50 -69 47 -105 90 -92 110 3 5 33
24 66 41 44 24 66 43 80 70 25 50 36 55 62 31 68 -62 149 -80 187 -42 11 11
20 27 20 36 0 27 -36 78 -69 97 -17 10 -31 24 -31 31 0 8 33 45 73 83 142 135
217 242 217 310 0 23 14 84 30 134 39 116 37 132 -15 141 -22 3 -67 11 -101
17 -117 21 -251 14 -381 -20 -171 -44 -219 -35 -338 64 -33 27 -66 52 -73 54
-9 4 -7 10 8 20 18 13 24 12 55 -7 26 -16 33 -27 32 -48 -2 -31 19 -39 48 -18
22 16 25 81 3 102 -17 17 -188 104 -204 104 -50 0 -115 84 -127 164 -3 21 -13
48 -21 61 -19 29 -93 65 -133 65 -17 0 -33 6 -36 14 -8 19 1 26 35 26 17 0 28
5 28 14 0 29 -33 142 -51 176 -38 72 -97 120 -146 120 -20 0 -45 7 -55 16 -10
10 -39 19 -65 21 -42 4 -54 0 -99 -31z"/>
</g>
</svg>
