<?xml version="1.0" standalone="no"?>
<!DOCTYPE svg PUBLIC "-//W3C//DTD SVG 20010904//EN"
 "http://www.w3.org/TR/2001/REC-SVG-20010904/DTD/svg10.dtd">
<svg version="1.0" xmlns="http://www.w3.org/2000/svg"
 width="480.000000pt" height="360.000000pt" viewBox="0 0 480.000000 360.000000"
 preserveAspectRatio="xMidYMid meet">
<metadata>
Created by potrace 1.16, written by Peter Selinger 2001-2019
</metadata>
<rect width="1" height="360" fill="#000000"/>
<rect x="479" width="1" height="360" fill="#000000"/>
<rect width="480" height="1" fill="#000000"/>
<rect y="359" width="480" height="1" fill="#000000"/>
<g transform="translate(0.000000,360.000000) scale(0.100000,-0.100000)"
fill="#000000" stroke="none">
<path d="M0 1800 l0 -1800 400 0 c220 0 400 2 400 5 0 2 -19 35 -42 72 -160
260 -263 609 -324 1093 -30 244 -29 771 3 972 5 36 5 37 -51 63 -130 62 -160
147 -84 239 53 64 173 107 206 74 19 -19 14 -35 -23 -77 -19 -21 -35 -43 -35
-49 0 -17 42 -22 365 -47 345 -27 432 -20 602 49 51 20 130 44 175 52 122 22
357 29 501 15 131 -14 389 -62 456 -86 l42 -14 42 43 c23 23 52 49 64 58 25
16 52 121 54 206 1 72 17 108 63 149 78 69 282 162 387 178 60 9 94 -6 191
-83 l77 -62 93 25 c51 14 104 25 118 25 34 0 70 -26 70 -51 0 -24 -70 -95
-133 -134 -58 -36 -58 -44 8 -177 25 -50 45 -93 45 -95 0 -2 -9 1 -20 7 -19
10 -20 8 -20 -33 0 -32 -6 -49 -21 -63 -12 -10 -24 -18 -28 -17 -3 1 -23 -8
-43 -20 -43 -24 -48 -46 -18 -84 26 -34 25 -40 -9 -58 -16 -8 -32 -24 -36 -35
-3 -11 -13 -26 -20 -34 -8 -7 -15 -26 -17 -42 -3 -30 -2 -30 43 -17 9 3 22 -2
30 -9 19 -18 124 -88 133 -88 4 0 22 -11 40 -25 18 -14 37 -25 43 -25 15 0 53
-44 53 -62 0 -8 44 -45 98 -81 53 -37 124 -88 157 -114 57 -45 63 -48 120 -48
51 0 61 -3 69 -21 5 -11 22 -28 38 -37 15 -9 28 -25 28 -35 0 -10 8 -27 19
-36 10 -9 21 -34 25 -55 4 -28 30 -68 98 -152 120 -149 206 -282 295 -454 l72
-140 1 1468 0 1467 -2400 0 -2400 0 0 -1800z"/>
<path d="M1665 2290 c-100 -16 -166 -39 -271 -96 -109 -58 -177 -79 -291 -89
-55 -5 -74 -11 -77 -23 -57 -184 -75 -1148 -27 -1457 30 -200 83 -395 151
-554 l28 -66 660 -3 660 -2 17 77 c39 185 77 273 213 495 90 146 104 198 93
348 -4 58 -6 134 -4 170 8 165 24 420 29 470 5 52 4 54 -11 35 -14 -17 -17
-18 -25 -5 -8 12 -10 12 -10 -4 0 -35 -19 -3 -21 34 -1 31 29 177 46 223 5 12
2 17 -9 17 -23 0 -105 43 -144 76 -51 42 -81 102 -87 170 -3 32 -11 64 -18 70
-16 16 -233 69 -382 95 -137 23 -425 34 -520 19z"/>
<path d="M3296 1851 c-18 -7 -16 -11 19 -49 20 -23 40 -42 44 -42 10 0 0 73
-11 88 -12 13 -24 14 -52 3z"/>
<path d="M3700 1643 c0 -5 14 -16 30 -25 17 -9 30 -24 30 -32 0 -19 -38 -118
-84 -221 -40 -89 -42 -103 -22 -130 13 -19 16 -17 58 27 23 25 65 71 91 102
35 40 58 57 82 62 18 3 43 16 54 28 l21 22 -53 39 c-84 63 -190 135 -199 135
-4 0 -8 -3 -8 -7z"/>
<path d="M4174 1252 c-6 -4 -13 -31 -16 -60 -8 -82 -39 -106 -194 -151 -49
-14 -91 -36 -137 -70 -37 -28 -76 -55 -86 -61 -31 -16 -93 -12 -129 10 -18 11
-34 20 -37 20 -2 0 -7 -17 -11 -37 -17 -97 -81 -122 -197 -78 -28 11 -22 -90
18 -276 39 -187 61 -323 71 -456 l7 -93 668 0 669 0 0 136 c0 117 -3 140 -19
162 -10 15 -53 106 -96 202 -157 354 -233 479 -430 703 -50 57 -60 63 -81 49z"/>
</g>
</svg>
