<?xml version="1.0" standalone="no"?>
<!DOCTYPE svg PUBLIC "-//W3C//DTD SVG 20010904//EN"
 "http://www.w3.org/TR/2001/REC-SVG-20010904/DTD/svg10.dtd">
<svg version="1.0" xmlns="http://www.w3.org/2000/svg"
 width="480.000000pt" height="360.000000pt" viewBox="0 0 480.000000 360.000000"
 preserveAspectRatio="xMidYMid meet">
<metadata>
Created by potrace 1.16, written by Peter Selinger 2001-2019
</metadata>
<rect width="1" height="360" fill="#000000"/>
<rect x="479" width="1" height="360" fill="#000000"/>
<rect width="480" height="1" fill="#000000"/>
<rect y="359" width="480" height="1" fill="#000000"/>
<g transform="translate(0.000000,360.000000) scale(0.100000,-0.100000)"
fill="#000000" stroke="none">
<path d="M1310 2931 c-12 -17 -18 -35 -15 -41 4 -6 1 -27 -6 -48 -8 -20 -14
-46 -15 -57 0 -11 -2 -36 -4 -55 -3 -37 4 -60 28 -98 11 -16 17 -20 22 -11 5
8 13 3 25 -15 14 -21 15 -29 5 -41 -10 -13 -10 -19 4 -33 9 -10 16 -22 16 -26
0 -7 15 -28 60 -83 19 -23 10 -44 -25 -59 -43 -18 -53 -38 -31 -63 21 -24 20
-38 -4 -46 -25 -8 -88 -90 -130 -168 -48 -91 -39 -155 27 -182 l36 -15 -5 -83
c-4 -70 -10 -91 -40 -147 -19 -36 -35 -78 -35 -95 0 -16 -12 -61 -28 -99 -21
-52 -24 -70 -15 -76 10 -6 9 -18 -3 -56 -19 -60 -41 -174 -62 -319 -9 -60 -27
-182 -40 -271 -14 -89 -30 -250 -35 -358 -9 -176 -18 -273 -36 -359 l-6 -27
491 0 491 0 -5 23 c-17 72 -77 476 -90 607 -9 85 -27 211 -42 280 -26 128 -91
362 -118 427 -18 44 -18 43 0 43 22 0 19 6 -26 61 l-42 49 28 86 c27 83 27 89
19 207 -9 118 -9 122 13 140 22 20 22 20 2 36 -20 16 -20 16 2 74 l22 57 -22
107 c-11 58 -28 117 -36 130 -14 21 -14 25 -1 38 9 10 17 11 21 5 10 -16 25
-12 25 8 0 9 4 23 9 31 8 12 12 13 26 1 14 -11 17 -10 22 9 4 15 9 19 18 11 9
-7 17 0 30 30 10 22 27 42 37 46 13 4 17 11 12 22 -3 10 -8 35 -9 57 -3 51
-22 110 -41 125 -7 7 -14 23 -14 36 0 34 -121 168 -171 188 -53 21 -142 20
-209 -4 -70 -25 -78 -25 -82 2 -5 33 -24 32 -48 -1z"/>
<path d="M4081 108 c-35 -13 -65 -46 -76 -85 l-6 -23 225 0 c134 0 226 4 226
9 0 49 -48 91 -107 96 -153 13 -231 14 -262 3z"/>
</g>
</svg>
