<?xml version="1.0" standalone="no"?>
<!DOCTYPE svg PUBLIC "-//W3C//DTD SVG 20010904//EN"
 "http://www.w3.org/TR/2001/REC-SVG-20010904/DTD/svg10.dtd">
<svg version="1.0" xmlns="http://www.w3.org/2000/svg"
 width="480.000000pt" height="360.000000pt" viewBox="0 0 480.000000 360.000000"
 preserveAspectRatio="xMidYMid meet">
<metadata>
Created by potrace 1.16, written by Peter Selinger 2001-2019
</metadata>
<rect width="1" height="360" fill="#000000"/>
<rect x="479" width="1" height="360" fill="#000000"/>
<rect width="480" height="1" fill="#000000"/>
<rect y="359" width="480" height="1" fill="#000000"/>
<g transform="translate(0.000000,360.000000) scale(0.100000,-0.100000)"
fill="#000000" stroke="none">
<path d="M0 1800 l0 -1800 1450 0 1450 0 0 38 c0 81 -30 454 -45 558 -25 179
-31 192 -102 241 -49 32 -83 46 -160 63 -203 46 -213 51 -301 146 -44 47 -97
110 -118 140 -36 52 -38 60 -42 149 -3 52 -1 106 2 120 9 34 80 111 126 136
19 10 50 32 69 49 l35 30 -17 35 c-32 67 -12 92 24 30 12 -19 23 -35 26 -35 2
0 25 17 51 39 63 52 88 64 146 71 27 3 51 10 53 15 2 6 -13 19 -33 30 -43 23
-67 56 -58 78 3 9 30 30 59 46 29 16 55 37 59 46 6 17 -45 89 -71 99 -12 5
-14 -1 -11 -28 4 -38 -8 -41 -42 -11 -19 18 -20 18 -20 -1 -1 -16 -4 -15 -23
9 -26 32 -34 34 -39 10 -5 -25 -66 86 -92 166 -18 57 -28 70 -76 108 -30 23
-61 42 -68 43 -21 0 -162 122 -168 144 -7 26 -158 156 -182 156 -9 0 -33 15
-52 34 -19 19 -79 76 -132 127 -54 51 -98 97 -98 102 0 4 -12 24 -27 43 -21
28 -24 37 -13 44 33 20 -46 80 -107 80 -17 0 -91 93 -86 108 3 7 -7 22 -21 33
-14 11 -26 26 -26 33 0 17 -60 81 -85 91 -19 8 -18 9 5 13 21 4 19 7 -19 16
-59 15 -66 36 -12 36 22 0 43 5 46 10 4 6 11 8 16 5 5 -4 9 3 9 14 0 11 -4 22
-10 26 -5 3 -7 12 -4 20 4 8 -6 20 -25 29 -26 14 -105 16 -636 16 l-605 0 0
-1800z"/>
<path d="M2340 3575 c0 -41 30 -177 46 -208 l15 -28 132 5 c87 3 156 12 202
25 64 18 125 30 228 46 36 6 75 34 197 144 l45 40 -432 1 -433 0 0 -25z"/>
<path d="M4648 2936 c-14 -13 -51 -199 -52 -260 -1 -29 1 -30 89 -52 50 -13
96 -23 103 -23 9 -1 12 39 12 168 l0 168 -46 7 c-69 9 -91 8 -106 -8z"/>
<path d="M3136 1465 c-20 -31 -40 -33 -31 -4 4 12 3 20 -1 17 -5 -2 -26 -12
-47 -23 l-38 -19 6 -61 c8 -74 -12 -134 -59 -170 l-31 -25 22 -15 c61 -43 93
-96 142 -237 38 -111 39 -112 51 -83 11 28 10 46 -6 146 -5 32 -1 41 45 94 28
31 53 66 56 76 7 21 -12 60 -66 140 l-38 56 29 28 29 28 -20 38 c-11 22 -21
39 -23 39 -2 0 -11 -11 -20 -25z"/>
</g>
</svg>
