<?xml version="1.0" standalone="no"?>
<!DOCTYPE svg PUBLIC "-//W3C//DTD SVG 20010904//EN"
 "http://www.w3.org/TR/2001/REC-SVG-20010904/DTD/svg10.dtd">
<svg version="1.0" xmlns="http://www.w3.org/2000/svg"
 width="480.000000pt" height="360.000000pt" viewBox="0 0 480.000000 360.000000"
 preserveAspectRatio="xMidYMid meet">
<metadata>
Created by potrace 1.16, written by Peter Selinger 2001-2019
</metadata>
<rect width="1" height="360" fill="#000000"/>
<rect x="479" width="1" height="360" fill="#000000"/>
<rect width="480" height="1" fill="#000000"/>
<rect y="359" width="480" height="1" fill="#000000"/>
<g transform="translate(0.000000,360.000000) scale(0.100000,-0.100000)"
fill="#000000" stroke="none">
<path d="M1 3510 c1 -79 3 -90 18 -90 28 0 114 29 136 46 19 14 19 16 3 25
-31 17 -20 27 48 48 l65 19 36 -24 c20 -13 40 -24 44 -24 5 0 9 -5 9 -11 0
-19 -74 -42 -143 -44 -55 -1 -72 -6 -92 -25 -29 -27 -33 -70 -10 -114 8 -15
15 -44 15 -63 0 -26 5 -36 20 -40 11 -3 20 -12 20 -20 0 -11 -5 -13 -17 -8
-25 11 -103 21 -130 17 -19 -3 -23 -10 -23 -43 0 -38 1 -39 35 -39 20 0 54 9
76 20 33 17 46 19 76 11 20 -6 47 -8 59 -5 16 4 28 -1 41 -16 10 -12 28 -26
41 -31 12 -5 27 -20 32 -34 10 -25 12 -26 71 -19 l61 7 -16 -25 c-17 -25 -16
-27 37 -89 30 -35 218 -226 418 -424 200 -198 401 -400 446 -450 l81 -90 1234
-5 1233 -5 3 -32 3 -33 -1163 0 c-1080 0 -1285 -3 -1260 -19 19 -12 79 -117
91 -159 32 -111 22 -236 -26 -339 -18 -37 -77 -87 -96 -80 -6 2 -18 39 -27 83
-33 159 -80 274 -178 440 -36 60 -38 62 -87 68 -67 8 -510 8 -569 0 l-47 -7
23 -25 c13 -13 46 -42 73 -64 102 -81 145 -129 181 -205 l37 -75 -16 -77 c-12
-63 -12 -82 -2 -114 22 -66 6 -92 -99 -154 -38 -23 -137 -26 -211 -8 -51 13
-88 16 -147 11 -64 -5 -102 -2 -204 19 -70 15 -138 31 -151 36 -53 20 -53 20
-53 -136 0 -140 1 -145 25 -169 31 -31 33 -77 5 -129 -12 -21 -18 -47 -15 -57
3 -9 32 -36 65 -59 33 -23 60 -46 60 -50 0 -17 -73 -41 -106 -35 l-34 6 0
-301 0 -301 2400 0 2400 0 0 1800 0 1800 -2400 0 -2400 0 1 -90z m229 -340 c0
-5 -11 -10 -25 -10 -14 0 -25 5 -25 10 0 6 11 10 25 10 14 0 25 -4 25 -10z"/>
<path d="M308 2843 c-21 -8 -38 -19 -38 -24 0 -5 9 -32 21 -61 15 -38 22 -85
26 -163 l5 -110 -46 -55 c-69 -82 -63 -116 28 -161 33 -17 74 -42 89 -57 38
-36 89 -126 103 -182 9 -38 16 -46 40 -51 38 -9 582 -9 612 -1 l23 7 -24 30
c-14 17 -47 57 -73 91 -156 193 -686 754 -713 753 -9 0 -33 -7 -53 -16z"/>
</g>
</svg>
