<?xml version="1.0" standalone="no"?>
<!DOCTYPE svg PUBLIC "-//W3C//DTD SVG 20010904//EN"
 "http://www.w3.org/TR/2001/REC-SVG-20010904/DTD/svg10.dtd">
<svg version="1.0" xmlns="http://www.w3.org/2000/svg"
 width="480.000000pt" height="360.000000pt" viewBox="0 0 480.000000 360.000000"
 preserveAspectRatio="xMidYMid meet">
<metadata>
Created by potrace 1.16, written by Peter Selinger 2001-2019
</metadata>
<rect width="1" height="360" fill="#000000"/>
<rect x="479" width="1" height="360" fill="#000000"/>
<rect width="480" height="1" fill="#000000"/>
<rect y="359" width="480" height="1" fill="#000000"/>
<g transform="translate(0.000000,360.000000) scale(0.100000,-0.100000)"
fill="#000000" stroke="none">
<path d="M886 3559 c-5 -34 -12 -42 -42 -55 -19 -8 -39 -12 -44 -9 -22 14 -19
-20 5 -57 15 -23 40 -63 56 -90 l28 -48 -67 55 c-63 52 -98 60 -55 12 25 -28
60 -94 67 -128 3 -14 22 -47 42 -73 l36 -48 -16 -50 c-9 -28 -16 -81 -16 -119
l0 -68 -44 -19 c-27 -13 -73 -21 -122 -23 -55 -2 -87 -9 -106 -21 -14 -10 -32
-18 -38 -18 -9 0 -11 -15 -8 -50 4 -34 1 -50 -8 -54 -32 -12 -47 -70 -54 -221
-6 -97 -16 -183 -31 -245 -13 -52 -23 -116 -23 -142 -1 -40 4 -52 34 -83 40
-42 70 -59 118 -68 34 -7 87 14 196 78 l46 27 31 -26 c17 -14 43 -29 57 -33
15 -3 36 -12 47 -19 11 -7 40 -23 65 -37 51 -29 67 -55 115 -194 32 -91 34
-104 28 -181 -5 -71 -3 -85 12 -102 10 -11 24 -19 32 -18 8 2 21 -9 30 -24 16
-25 16 -28 -1 -47 -12 -13 -16 -28 -12 -44 4 -18 -2 -31 -25 -53 -65 -62 -130
-186 -184 -349 -80 -246 -213 -576 -254 -633 -27 -38 -118 -222 -126 -255 l-7
-27 832 0 832 0 -7 33 c-21 102 -50 206 -86 307 -53 151 -100 311 -150 512
-46 184 -67 248 -111 331 -19 35 -31 74 -32 100 -2 37 3 47 37 79 l40 38 -7
92 c-27 390 -52 564 -87 622 -23 37 -24 56 -4 56 8 0 32 27 52 60 27 42 44 60
59 60 24 0 95 48 117 80 10 15 46 29 128 51 63 17 123 34 134 37 11 3 54 33
95 67 97 78 144 108 221 140 71 28 92 45 108 83 6 15 28 36 49 47 36 20 37 21
40 85 1 36 -3 75 -9 87 -9 17 -9 26 1 38 17 20 38 19 85 -5 69 -35 139 -21
184 36 45 58 10 153 -62 170 -24 6 -34 0 -70 -38 l-42 -44 3 33 c7 54 -38 85
-68 48 -18 -21 -91 -54 -106 -48 -7 3 -14 26 -16 51 -3 40 -6 47 -26 50 -13 2
-30 -2 -38 -9 -8 -6 -15 -10 -17 -8 -1 2 -7 13 -13 24 -14 26 -34 29 -59 11
-16 -12 -20 -26 -20 -75 0 -44 -4 -61 -13 -61 -11 0 -12 13 -7 58 7 65 -5 86
-47 80 -18 -2 -25 -13 -34 -47 -7 -31 -17 -47 -32 -52 -14 -5 -25 -20 -29 -40
-3 -18 -15 -34 -27 -40 -12 -5 -113 -29 -226 -53 -113 -25 -254 -56 -313 -69
-59 -13 -110 -21 -112 -16 -11 16 8 36 63 67 31 18 82 46 112 63 30 17 82 46
115 64 33 18 141 77 240 132 99 54 206 112 238 128 45 23 59 36 64 58 3 16 11
31 18 33 9 4 3 15 -16 36 -26 29 -30 31 -55 19 -15 -7 -44 -25 -63 -39 -20
-15 -61 -41 -91 -57 -30 -15 -86 -47 -125 -70 -38 -23 -97 -57 -130 -75 -33
-18 -76 -42 -95 -53 -238 -135 -269 -146 -270 -99 0 7 -12 37 -26 66 -25 52
-26 54 -9 87 10 19 21 36 26 39 4 3 11 34 15 70 3 36 3 62 -1 58 -14 -14 -33
12 -46 63 l-13 49 -427 0 -426 0 -7 -41z m1644 -124 c-7 -8 -24 -15 -38 -15
-14 0 -23 -3 -19 -6 3 -3 -27 -23 -66 -44 -107 -55 -157 -83 -204 -113 -24
-15 -69 -41 -100 -58 -32 -17 -108 -60 -169 -95 -61 -35 -114 -64 -118 -64 -3
0 -6 6 -6 14 0 13 76 58 314 186 111 59 333 187 375 216 30 20 37 22 39 9 2
-9 -2 -22 -8 -30z m-60 -481 c0 -8 -7 -22 -15 -30 -13 -14 -15 -12 -15 15 0
21 5 31 15 31 8 0 15 -7 15 -16z m-1525 -386 c9 -20 16 -23 58 -20 36 2 47 0
47 -12 0 -8 3 -22 6 -31 6 -14 1 -15 -32 -10 -56 10 -124 42 -124 57 0 14 19
38 30 38 3 0 10 -10 15 -22z m165 -64 c0 -8 -4 -12 -10 -9 -5 3 -10 13 -10 21
0 8 5 12 10 9 6 -3 10 -13 10 -21z"/>
</g>
</svg>
