<?xml version="1.0" standalone="no"?>
<!DOCTYPE svg PUBLIC "-//W3C//DTD SVG 20010904//EN"
 "http://www.w3.org/TR/2001/REC-SVG-20010904/DTD/svg10.dtd">
<svg version="1.0" xmlns="http://www.w3.org/2000/svg"
 width="480.000000pt" height="360.000000pt" viewBox="0 0 480.000000 360.000000"
 preserveAspectRatio="xMidYMid meet">
<metadata>
Created by potrace 1.16, written by Peter Selinger 2001-2019
</metadata>
<rect width="1" height="360" fill="#000000"/>
<rect x="479" width="1" height="360" fill="#000000"/>
<rect width="480" height="1" fill="#000000"/>
<rect y="359" width="480" height="1" fill="#000000"/>
<g transform="translate(0.000000,360.000000) scale(0.100000,-0.100000)"
fill="#000000" stroke="none">
<path d="M0 2499 l0 -1102 26 39 c15 21 43 59 64 84 77 93 127 179 174 300 27
69 82 190 121 270 128 256 229 412 538 826 117 156 237 325 267 375 76 127
135 189 244 254 l91 55 -762 0 -763 0 0 -1101z"/>
<path d="M3056 3568 c24 -46 31 -146 11 -153 -8 -4 -56 -2 -107 2 l-92 9 4
-68 c5 -66 7 -69 72 -149 69 -84 124 -188 196 -369 77 -193 90 -382 36 -524
-39 -101 -50 -119 -117 -190 -51 -55 -70 -68 -122 -85 -101 -32 -169 -34 -282
-10 -103 22 -148 23 -442 14 -132 -5 -217 -17 -239 -36 -10 -8 -8 -20 8 -55
17 -39 19 -57 13 -122 -4 -42 -16 -101 -27 -130 -26 -69 -16 -82 63 -82 75 0
164 -19 323 -70 144 -47 139 -46 436 -14 259 29 348 61 565 204 55 37 134 86
176 110 58 32 81 51 94 79 32 66 112 323 150 481 68 285 74 310 87 338 20 42
41 34 59 -23 12 -38 14 -64 8 -105 -21 -145 -42 -253 -64 -335 -27 -99 -31
-171 -13 -223 11 -29 16 -33 38 -27 14 4 62 9 108 12 102 6 171 -16 253 -82
83 -68 126 -154 139 -280 6 -54 12 -101 15 -103 5 -6 92 45 100 59 17 26 143
88 182 89 6 0 34 14 62 31 l51 32 0 903 0 904 -880 0 -881 0 17 -32z"/>
<path d="M1422 1568 c-17 -17 -15 -92 3 -135 30 -71 55 -62 55 20 0 47 -19
109 -37 120 -6 4 -15 1 -21 -5z"/>
<path d="M4685 1527 c-135 -44 -164 -58 -232 -109 -34 -27 -66 -48 -71 -48 -6
0 -20 -26 -33 -57 -90 -229 -197 -369 -588 -768 -250 -256 -471 -507 -471
-536 0 -5 287 -9 755 -9 l755 0 0 780 c0 618 -3 780 -12 778 -7 0 -53 -14
-103 -31z"/>
<path d="M2632 1478 c7 -19 40 -21 63 -4 19 14 17 15 -23 16 -31 0 -42 -4 -40
-12z"/>
<path d="M1 643 l-1 -643 825 0 c454 0 825 2 825 4 0 3 -21 19 -47 36 -39 27
-128 96 -263 205 -13 11 -49 43 -80 71 -30 28 -94 82 -141 120 -47 38 -119 97
-160 130 -116 96 -284 204 -430 277 -74 36 -179 98 -234 136 -55 39 -129 90
-165 114 -80 54 -85 60 -109 133 l-20 59 0 -642z"/>
</g>
</svg>
