<?xml version="1.0" standalone="no"?>
<!DOCTYPE svg PUBLIC "-//W3C//DTD SVG 20010904//EN"
 "http://www.w3.org/TR/2001/REC-SVG-20010904/DTD/svg10.dtd">
<svg version="1.0" xmlns="http://www.w3.org/2000/svg"
 width="480.000000pt" height="360.000000pt" viewBox="0 0 480.000000 360.000000"
 preserveAspectRatio="xMidYMid meet">
<metadata>
Created by potrace 1.16, written by Peter Selinger 2001-2019
</metadata>
<rect width="1" height="360" fill="#000000"/>
<rect x="479" width="1" height="360" fill="#000000"/>
<rect width="480" height="1" fill="#000000"/>
<rect y="359" width="480" height="1" fill="#000000"/>
<g transform="translate(0.000000,360.000000) scale(0.100000,-0.100000)"
fill="#000000" stroke="none">
<path d="M4097 3068 c4 -13 7 -36 6 -53 -3 -38 -90 -205 -107 -205 -8 0 -19
-7 -27 -16 -11 -13 -8 -19 19 -41 28 -21 32 -30 32 -72 0 -42 17 -127 36 -174
5 -15 3 -17 -18 -12 -24 6 -25 4 -31 -52 -6 -53 -1 -86 24 -151 5 -13 22 -28
38 -33 23 -8 31 -19 40 -55 10 -38 9 -49 -6 -74 -13 -23 -15 -32 -5 -42 20
-20 14 -43 -24 -79 -20 -19 -57 -77 -84 -131 -26 -53 -73 -137 -104 -187 -74
-116 -79 -146 -36 -195 18 -20 50 -46 71 -57 41 -20 41 -19 24 -105 -3 -11
-19 -37 -37 -56 -32 -34 -49 -62 -83 -138 -8 -19 -23 -48 -32 -65 -53 -96 -56
-106 -50 -173 8 -79 24 -105 85 -136 73 -39 157 -123 177 -179 15 -41 16 -55
6 -105 -11 -53 -10 -61 14 -122 33 -80 38 -85 100 -125 76 -48 132 -67 156
-54 31 16 21 52 -17 60 -74 15 -107 41 -142 112 -30 61 -32 72 -22 102 6 18
17 36 25 39 17 6 121 -11 146 -24 9 -5 44 -14 79 -19 34 -6 79 -19 99 -30 135
-75 156 -83 220 -75 53 6 61 9 56 24 -7 22 12 37 28 21 6 -6 20 -11 30 -11 16
0 18 5 13 28 -9 37 -34 56 -151 114 -55 28 -109 58 -120 68 -11 10 -31 21 -45
25 -28 8 -60 33 -60 47 0 5 20 28 45 51 25 24 45 49 45 57 0 25 -56 86 -97
105 -20 10 -78 23 -128 29 -83 10 -90 13 -93 34 -2 13 3 31 12 41 9 10 20 37
25 62 5 24 23 75 40 112 20 42 35 97 41 144 6 42 11 77 12 78 2 1 34 16 73 34
133 61 141 81 79 199 -40 77 -46 100 -61 207 -8 66 -22 135 -29 154 -13 30
-12 36 1 51 9 9 22 46 29 81 8 35 19 85 26 112 11 41 10 54 -5 93 -29 77 -1
87 163 64 l94 -14 54 28 54 28 0 73 0 73 -92 7 c-51 4 -130 5 -176 2 -45 -3
-84 -1 -87 3 -5 8 59 95 88 119 10 7 17 19 17 27 0 23 -23 28 -37 8 -61 -85
-128 -154 -149 -154 -21 0 -23 4 -21 44 1 24 5 42 9 40 10 -6 38 56 38 86 0
14 -7 35 -15 46 -19 25 -19 77 0 115 l16 29 -40 -6 c-56 -9 -208 59 -217 96
-9 42 -23 70 -34 70 -7 0 -8 -8 -3 -22z m23 -568 c0 -5 -5 -10 -11 -10 -5 0
-7 5 -4 10 3 6 8 10 11 10 2 0 4 -4 4 -10z m73 -1124 c4 -6 6 -31 3 -56 -4
-51 -48 -216 -65 -248 -6 -11 -11 -34 -11 -51 0 -17 -9 -48 -20 -69 -19 -37
-25 -40 -93 -55 -39 -9 -81 -19 -92 -22 -17 -5 -25 2 -43 40 -27 56 -27 70 -2
102 11 14 20 31 20 38 0 7 40 64 90 126 60 76 92 125 96 148 12 64 20 72 67
65 23 -4 46 -12 50 -18z m362 -862 l30 -26 -43 5 c-45 5 -76 23 -66 38 10 17
49 8 79 -17z"/>
<path d="M2791 3067 c-1 -13 -6 -17 -20 -12 -16 5 -18 2 -14 -15 3 -12 0 -20
-7 -20 -6 0 -9 -8 -6 -17 7 -26 -84 -94 -107 -81 -20 11 -57 -6 -57 -26 0 -7
7 -27 16 -45 9 -17 13 -39 9 -49 -4 -9 -13 -44 -20 -77 -7 -33 -16 -68 -20
-78 -6 -14 -4 -16 11 -10 14 5 16 3 9 -13 -4 -10 -10 -30 -13 -44 -7 -35 -19
-48 -52 -55 -34 -7 -46 -32 -26 -54 16 -18 66 -128 66 -145 0 -6 -12 -35 -25
-65 -24 -51 -25 -55 -8 -73 16 -18 16 -22 0 -66 -9 -26 -24 -89 -33 -140 -15
-86 -37 -161 -94 -319 l-23 -63 28 -40 c19 -27 40 -44 64 -51 41 -12 42 -14
21 -124 -5 -27 -15 -85 -21 -128 -10 -64 -17 -81 -36 -94 -12 -8 -23 -23 -23
-33 0 -17 62 -80 79 -80 9 0 71 -96 71 -109 0 -5 -7 -14 -15 -21 -22 -18 -3
-36 43 -44 30 -4 41 -12 53 -37 8 -18 33 -46 57 -63 40 -28 50 -31 125 -31 66
0 90 5 121 22 26 15 45 19 55 14 13 -7 41 -8 71 -2 3 1 -13 16 -34 35 l-40 33
18 48 c22 56 15 65 -49 63 -52 -2 -125 19 -125 36 0 7 19 23 43 36 78 43 98
70 81 114 -9 23 -69 57 -88 50 -22 -9 -43 38 -29 68 7 15 7 32 1 48 -6 16 -5
45 3 83 9 45 9 67 0 98 -7 23 -11 42 -9 44 2 1 26 14 54 28 28 14 58 36 66 49
15 22 14 31 -19 124 -18 54 -52 158 -74 229 -22 72 -51 149 -65 172 -21 36
-22 43 -9 56 7 8 31 18 52 22 21 4 46 14 56 22 16 15 19 15 40 -5 34 -32 65
-28 81 9 l13 31 12 -32 c6 -18 11 -53 11 -76 0 -54 13 -56 75 -14 53 36 93 88
73 94 -7 2 -34 9 -60 16 -52 14 -102 58 -103 93 -1 13 -5 28 -9 35 -4 7 -4 12
0 12 4 0 -3 11 -16 25 -14 15 -35 25 -51 25 -32 0 -68 45 -50 63 16 16 13 37
-6 37 -23 0 -83 23 -83 31 0 4 5 11 10 14 6 3 10 17 10 31 0 13 5 24 10 24 6
0 22 11 35 25 19 18 25 35 25 69 0 37 5 48 27 66 l27 21 -29 24 c-17 13 -34
24 -38 25 -8 0 -61 57 -85 92 -11 15 -11 22 -1 34 10 13 10 17 0 24 -9 5 -10
10 -2 14 16 10 13 29 -3 23 -8 -3 -17 -1 -20 6 -2 7 -5 4 -5 -6z m-39 -1607
c13 -61 16 -229 4 -244 -7 -9 -39 -16 -88 -18 l-77 -5 -12 34 c-21 66 7 202
54 261 7 8 28 12 61 10 49 -3 51 -4 58 -38z"/>
<path d="M1120 2945 c-7 -8 -16 -12 -21 -10 -4 3 -6 -16 -2 -42 l5 -48 -62
-58 c-54 -49 -67 -57 -91 -52 -40 9 -47 -23 -14 -70 21 -33 24 -45 19 -90 -6
-49 -5 -53 24 -74 18 -12 33 -34 37 -52 4 -17 20 -42 36 -57 l30 -26 -35 -18
c-50 -26 -66 -64 -53 -123 13 -58 7 -64 -94 -95 -38 -12 -69 -25 -69 -30 0
-18 -146 -49 -205 -42 -41 4 -111 44 -127 73 -22 38 -46 38 -230 -1 -195 -41
-208 -46 -208 -75 0 -64 2 -66 472 -301 281 -141 458 -224 477 -224 16 0 42 5
57 10 15 6 29 8 32 6 6 -7 -9 -62 -47 -166 -36 -97 -39 -149 -13 -173 10 -9
50 -32 89 -51 46 -22 82 -49 106 -78 l36 -43 -54 -50 c-59 -54 -64 -65 -39
-86 15 -12 14 -14 -7 -19 -17 -4 -25 -15 -29 -35 -4 -23 -18 -37 -70 -67 -36
-20 -85 -44 -110 -52 -25 -9 -70 -24 -100 -35 -30 -11 -64 -20 -75 -21 -12 0
-71 36 -133 79 -102 72 -115 78 -144 71 -57 -13 -332 -121 -348 -137 -18 -18
-30 -6 324 -301 137 -114 292 -244 345 -289 l96 -82 147 -1 c134 0 188 8 208
30 3 3 36 22 73 40 70 36 107 64 107 80 0 6 -19 23 -42 40 -129 89 -198 144
-196 152 2 6 21 16 43 23 21 8 51 23 66 34 16 12 37 21 47 21 11 0 30 8 43 18
21 18 22 22 12 73 -6 30 -7 61 -3 69 5 9 34 21 66 28 69 14 152 67 161 101 9
34 -5 51 -75 91 -65 37 -102 87 -108 144 -2 17 -13 37 -24 45 -13 9 -20 25
-20 47 0 27 -8 39 -40 65 -22 18 -42 40 -46 51 -3 10 -23 27 -45 39 l-40 20
48 60 c26 33 51 63 56 66 5 3 36 9 70 13 84 11 164 48 199 93 21 27 16 52 -30
131 -19 34 -58 109 -87 167 -30 58 -68 120 -85 138 -26 25 -32 41 -35 79 -1
26 -8 67 -15 92 -7 26 -10 71 -6 106 4 54 2 65 -21 100 -14 21 -35 49 -45 61
-21 22 -17 43 7 43 17 0 45 62 45 99 0 14 -12 53 -25 86 -30 72 -30 73 -5 105
27 34 26 37 -17 55 -63 27 -85 53 -78 96 6 33 3 39 -33 68 -22 17 -43 42 -46
56 -7 29 -18 32 -36 10z m-70 -884 c0 -5 15 -30 34 -54 35 -46 33 -67 -5 -67
-9 0 -19 -6 -22 -13 -10 -26 -87 -19 -169 14 -43 17 -78 35 -78 39 0 8 46 30
65 30 7 0 42 13 77 30 64 30 98 38 98 21z m4 -1377 c8 -3 19 -22 22 -42 4 -21
13 -47 21 -59 12 -17 12 -23 1 -32 -7 -6 -27 -22 -45 -36 l-32 -26 -80 53
c-44 29 -81 60 -81 69 0 44 136 95 194 73z"/>
<path d="M3141 799 c-59 -11 -66 -21 -36 -49 30 -28 87 -32 112 -8 35 36 -9
69 -76 57z"/>
</g>
</svg>
