<?xml version="1.0" standalone="no"?>
<!DOCTYPE svg PUBLIC "-//W3C//DTD SVG 20010904//EN"
 "http://www.w3.org/TR/2001/REC-SVG-20010904/DTD/svg10.dtd">
<svg version="1.0" xmlns="http://www.w3.org/2000/svg"
 width="480.000000pt" height="360.000000pt" viewBox="0 0 480.000000 360.000000"
 preserveAspectRatio="xMidYMid meet">
<metadata>
Created by potrace 1.16, written by Peter Selinger 2001-2019
</metadata>
<rect width="1" height="360" fill="#000000"/>
<rect x="479" width="1" height="360" fill="#000000"/>
<rect width="480" height="1" fill="#000000"/>
<rect y="359" width="480" height="1" fill="#000000"/>
<g transform="translate(0.000000,360.000000) scale(0.100000,-0.100000)"
fill="#000000" stroke="none">
<path d="M1244 3552 c-90 -61 -142 -102 -129 -102 6 0 43 9 83 19 39 10 72 17
72 15 0 -1 -39 -34 -87 -72 -49 -39 -99 -82 -113 -97 l-24 -26 69 6 c70 6 70
6 36 -10 -60 -27 -191 -107 -191 -117 0 -13 39 -25 114 -33 l69 -7 -63 -34
c-74 -39 -92 -54 -67 -54 31 0 17 -16 -39 -43 -68 -33 -63 -49 13 -40 41 4 54
3 49 -5 -9 -15 -10 -15 54 7 49 16 139 35 129 27 -2 -2 -33 -16 -69 -32 -36
-15 -105 -53 -155 -83 -133 -80 -149 -97 -97 -103 24 -3 21 -5 -23 -21 -64
-22 -156 -78 -152 -92 2 -5 41 -29 88 -53 46 -24 85 -45 86 -46 2 -2 -8 -29
-21 -62 -36 -91 -41 -108 -25 -101 54 21 52 22 45 -14 l-7 -34 23 25 c13 14
38 43 56 65 27 33 37 24 11 -10 -15 -21 -99 -218 -94 -223 5 -6 225 133 300
190 28 20 51 34 53 29 1 -4 -11 -65 -28 -136 -17 -70 -28 -130 -26 -132 3 -3
27 19 54 48 l49 52 -14 -69 c-8 -38 -12 -81 -9 -97 3 -15 1 -60 -3 -100 -5
-39 -11 -110 -12 -157 l-3 -85 32 1 31 2 -6 -59 c-5 -55 -4 -59 15 -59 23 0
26 -7 42 -107 19 -118 42 -128 119 -51 23 22 41 34 41 27 0 -8 -9 -60 -19
-117 -21 -117 -19 -122 57 -122 37 0 40 -2 45 -36 5 -30 -3 -54 -43 -139 -28
-56 -50 -106 -50 -109 0 -4 11 1 25 10 14 9 25 13 25 10 0 -4 11 1 25 10 32
21 31 10 -5 -51 -34 -58 -36 -67 -13 -58 13 5 9 -7 -15 -50 -38 -67 -39 -73
-10 -53 12 9 29 16 37 16 13 0 87 52 141 100 21 18 26 19 28 6 2 -8 -2 -24 -8
-35 -7 -15 -7 -21 0 -21 6 0 -2 -24 -16 -52 -33 -65 -57 -150 -44 -158 5 -3 1
-33 -10 -70 -19 -66 -40 -179 -39 -215 0 -19 1 -19 16 2 8 13 22 23 29 23 7 0
20 14 29 30 9 17 17 30 18 30 2 0 -1 -35 -6 -77 -6 -53 -17 -90 -33 -118 -31
-50 -109 -178 -136 -225 l-21 -35 34 31 c19 18 52 41 75 52 22 11 64 49 95 86
31 38 55 60 57 52 2 -8 -6 -53 -17 -101 -12 -48 -21 -93 -21 -101 0 -12 53
-14 345 -14 l345 0 4 23 c3 12 10 62 16 112 10 82 42 254 75 397 7 31 23 72
36 90 50 71 201 268 206 268 2 0 -32 -70 -77 -156 -76 -147 -130 -282 -130
-327 0 -17 2 -18 16 -6 15 12 16 5 13 -74 -2 -48 -3 -87 -2 -87 2 0 18 30 37
67 36 70 42 73 27 13 -5 -19 -12 -48 -15 -65 l-6 -30 30 35 c37 42 37 32 5
-54 -32 -86 -31 -98 5 -58 16 17 32 32 34 32 3 0 6 -17 8 -37 l3 -38 44 73
c24 40 48 75 53 78 14 9 1 -81 -23 -165 -23 -79 -23 -82 -4 -75 8 4 15 1 15
-5 0 -8 80 -11 271 -11 l271 0 -8 122 c-5 68 -7 361 -4 653 3 292 5 778 5
1080 l-1 550 -27 90 c-32 105 -86 221 -190 406 -151 271 -214 418 -258 602
l-23 97 -766 0 -765 0 -71 -48z m281 -1012 c-3 -5 -16 -15 -28 -21 -21 -10
-21 -9 2 10 25 23 36 27 26 11z"/>
</g>
</svg>
