<?xml version="1.0" standalone="no"?>
<!DOCTYPE svg PUBLIC "-//W3C//DTD SVG 20010904//EN"
 "http://www.w3.org/TR/2001/REC-SVG-20010904/DTD/svg10.dtd">
<svg version="1.0" xmlns="http://www.w3.org/2000/svg"
 width="480.000000pt" height="360.000000pt" viewBox="0 0 480.000000 360.000000"
 preserveAspectRatio="xMidYMid meet">
<metadata>
Created by potrace 1.16, written by Peter Selinger 2001-2019
</metadata>
<rect width="1" height="360" fill="#000000"/>
<rect x="479" width="1" height="360" fill="#000000"/>
<rect width="480" height="1" fill="#000000"/>
<rect y="359" width="480" height="1" fill="#000000"/>
<g transform="translate(0.000000,360.000000) scale(0.100000,-0.100000)"
fill="#000000" stroke="none">
<path d="M0 2305 c0 -712 3 -1295 8 -1295 4 0 16 7 26 15 26 19 60 19 76 -1
11 -13 10 -19 -8 -37 -19 -19 -26 -20 -62 -10 l-40 10 0 -494 0 -493 297 2
297 3 98 120 c107 130 122 153 133 203 6 28 4 32 -13 32 -23 0 -28 10 -37 74
-5 32 -3 57 8 84 17 43 16 166 -2 200 -15 27 -14 29 7 34 20 6 32 50 32 121 0
33 4 40 31 51 48 20 83 122 83 244 1 90 2 94 34 133 43 51 60 58 225 99 85 22
137 40 137 47 0 17 -65 17 -82 0 -14 -14 -20 -15 -108 -21 -30 -2 -73 -13 -95
-25 -59 -32 -90 -27 -185 28 -96 57 -80 60 -177 -33 -29 -27 -55 -47 -58 -44
-7 7 22 75 36 83 35 22 136 346 173 555 29 167 29 168 3 163 -14 -3 -65 15
-133 47 -60 28 -122 54 -137 57 -33 7 -45 28 -29 53 8 14 5 32 -14 80 -34 84
-29 94 46 87 51 -4 63 -2 92 19 18 13 56 32 85 41 74 23 85 37 72 93 -23 97
11 281 78 419 53 111 127 192 213 234 65 31 198 67 250 67 80 0 99 9 145 74
25 33 59 75 76 91 l31 30 45 -50 c25 -27 57 -67 70 -88 27 -43 46 -52 129 -62
86 -11 206 -57 278 -109 210 -150 333 -423 281 -625 -17 -66 -18 -72 -1 -114
9 -25 37 -77 63 -116 l46 -72 -29 -30 c-16 -16 -39 -32 -51 -35 -27 -7 -28
-14 -12 -169 12 -118 21 -139 96 -233 37 -45 38 -69 3 -37 -35 32 -34 8 3 -52
20 -32 34 -59 32 -61 -2 -2 -20 8 -41 22 -21 14 -39 24 -40 23 -1 -1 2 -24 6
-52 5 -27 9 -63 9 -80 -1 -28 -2 -27 -16 13 -8 24 -17 42 -18 40 -2 -2 1 -53
6 -113 7 -77 15 -113 25 -121 21 -17 36 -77 26 -105 -9 -22 -11 -20 -40 37
-44 88 -47 89 -128 58 -38 -14 -75 -26 -82 -27 -21 -1 -3 -12 115 -72 61 -31
114 -63 117 -71 3 -9 6 -36 6 -60 0 -38 -3 -44 -21 -44 -21 0 -21 0 -3 -28 34
-51 64 -123 82 -192 l17 -70 100 2 c177 3 277 -4 363 -27 45 -12 93 -20 105
-18 12 2 60 -12 107 -32 47 -21 94 -37 105 -37 11 1 61 -21 112 -48 50 -28 98
-50 105 -50 8 0 53 -29 102 -65 48 -36 93 -65 100 -65 19 0 239 -222 298 -301
30 -41 73 -104 94 -141 l39 -68 293 0 292 0 0 1800 0 1800 -2400 0 -2400 0 0
-1295z m4117 498 c3 -7 -3 -9 -16 -6 -12 3 -21 10 -21 15 0 13 32 6 37 -9z
m-796 -524 c14 -7 24 -7 33 0 21 17 38 -34 44 -125 5 -90 -8 -139 -26 -94 -18
47 -32 75 -57 120 -14 25 -25 59 -25 77 0 36 2 38 31 22z m929 -1564 c10 -12
10 -15 -3 -15 -8 0 -17 7 -21 15 -3 8 -2 15 3 15 5 0 14 -7 21 -15z"/>
<path d="M1358 1443 c7 -3 16 -2 19 1 4 3 -2 6 -13 5 -11 0 -14 -3 -6 -6z"/>
</g>
</svg>
