<?xml version="1.0" standalone="no"?>
<!DOCTYPE svg PUBLIC "-//W3C//DTD SVG 20010904//EN"
 "http://www.w3.org/TR/2001/REC-SVG-20010904/DTD/svg10.dtd">
<svg version="1.0" xmlns="http://www.w3.org/2000/svg"
 width="480.000000pt" height="360.000000pt" viewBox="0 0 480.000000 360.000000"
 preserveAspectRatio="xMidYMid meet">
<metadata>
Created by potrace 1.16, written by Peter Selinger 2001-2019
</metadata>
<rect width="1" height="360" fill="#000000"/>
<rect x="479" width="1" height="360" fill="#000000"/>
<rect width="480" height="1" fill="#000000"/>
<rect y="359" width="480" height="1" fill="#000000"/>
<g transform="translate(0.000000,360.000000) scale(0.100000,-0.100000)"
fill="#000000" stroke="none">
<path d="M0 1800 l0 -1800 883 1 882 0 38 52 c26 37 37 62 37 87 0 36 58 198
101 281 19 38 21 54 16 153 -8 188 -29 440 -39 466 -10 25 -10 25 -18 4 -12
-32 -28 -37 -39 -15 -15 27 -14 59 5 131 11 45 13 65 5 73 -18 18 -12 69 15
127 14 30 37 82 50 115 13 33 38 73 54 90 21 22 30 41 32 75 2 36 7 46 23 48
38 7 34 18 -34 89 -38 39 -81 96 -96 127 -23 48 -27 65 -23 121 3 47 0 66 -9
69 -7 3 -13 11 -13 19 0 18 56 71 68 63 6 -3 21 3 33 13 l24 19 -30 7 c-38 7
-118 50 -123 64 -2 6 3 8 12 5 11 -4 16 0 16 13 0 18 17 43 30 43 4 0 17 -9
29 -19 27 -24 57 -21 53 5 -1 11 -10 69 -19 131 -13 92 -14 116 -3 142 15 38
30 39 72 3 70 -59 64 -57 103 -24 32 29 89 52 127 52 9 0 44 27 77 59 l61 60
0 425 0 426 -1200 0 -1200 0 0 -1800z"/>
<path d="M2400 1370 l0 -1370 321 0 321 0 -17 27 c-10 16 -27 38 -37 50 -12
13 -21 39 -23 66 -2 24 -24 97 -50 163 l-47 119 7 205 c4 113 10 270 14 350
l6 145 25 -47 c13 -27 27 -48 32 -48 16 0 30 44 25 79 -9 68 -29 176 -37 206
-18 66 -93 222 -120 250 -21 22 -30 42 -32 75 -3 38 -7 45 -26 48 -20 3 -14
12 52 77 41 40 86 94 101 118 33 58 43 133 22 173 -21 39 -72 91 -97 99 -23 7
-25 24 -6 50 12 17 16 17 30 5 22 -17 41 1 51 47 8 40 -6 48 -45 28 -34 -18
-54 -12 -46 13 3 10 15 70 26 134 16 99 18 124 7 155 -6 20 -17 38 -23 40 -6
2 -36 -17 -67 -43 l-57 -46 -40 35 c-23 22 -61 43 -94 52 -40 12 -67 29 -104
65 -27 28 -54 50 -61 50 -8 0 -11 -349 -11 -1370z m440 675 c9 -11 16 -12 25
-5 10 8 17 5 29 -12 37 -52 8 -120 -91 -207 -96 -85 -139 -80 -99 13 13 28 26
60 30 70 6 19 7 19 22 0 11 -14 17 -16 21 -6 4 10 10 9 25 -5 21 -18 21 -18
14 19 -6 32 -4 37 9 32 20 -8 19 -1 -5 46 -27 52 -12 93 20 55z m-251 -285 c8
0 34 -50 29 -55 -2 -2 -15 -6 -30 -10 -23 -6 -29 -3 -39 19 -10 21 -9 30 7 53
15 23 19 25 22 11 2 -10 7 -18 11 -18z m233 -1206 c-4 -21 -7 -23 -13 -11 -10
17 -1 50 11 42 4 -2 5 -16 2 -31z"/>
<path d="M1966 2060 c-55 -35 -60 -74 -18 -141 29 -44 145 -159 162 -159 29 0
13 69 -24 107 -14 14 -28 34 -31 44 -8 25 -22 24 -30 -1 -9 -28 -25 -25 -25 5
0 15 -6 25 -14 25 -12 0 -12 5 1 31 18 36 29 109 17 108 -5 0 -22 -9 -38 -19z"/>
<path d="M2200 1740 c-17 -41 -6 -49 13 -11 9 17 12 33 7 36 -4 3 -13 -9 -20
-25z"/>
<path d="M1990 637 c0 -14 3 -39 6 -56 l7 -32 19 32 c22 35 19 53 -11 69 -19
9 -21 8 -21 -13z"/>
</g>
</svg>
