<?xml version="1.0" standalone="no"?>
<!DOCTYPE svg PUBLIC "-//W3C//DTD SVG 20010904//EN"
 "http://www.w3.org/TR/2001/REC-SVG-20010904/DTD/svg10.dtd">
<svg version="1.0" xmlns="http://www.w3.org/2000/svg"
 width="480.000000pt" height="360.000000pt" viewBox="0 0 480.000000 360.000000"
 preserveAspectRatio="xMidYMid meet">
<metadata>
Created by potrace 1.16, written by Peter Selinger 2001-2019
</metadata>
<rect width="1" height="360" fill="#000000"/>
<rect x="479" width="1" height="360" fill="#000000"/>
<rect width="480" height="1" fill="#000000"/>
<rect y="359" width="480" height="1" fill="#000000"/>
<g transform="translate(0.000000,360.000000) scale(0.100000,-0.100000)"
fill="#000000" stroke="none">
<path d="M3501 3515 c-87 -72 -109 -85 -140 -85 -177 0 -437 -133 -565 -288
-63 -76 -108 -181 -114 -265 -2 -40 -10 -83 -18 -97 -28 -57 -184 -185 -238
-195 -60 -12 -85 -27 -95 -57 -15 -41 -14 -70 2 -92 12 -16 17 -17 37 -6 20
11 24 10 33 -6 6 -10 21 -29 34 -42 22 -22 30 -23 81 -17 31 4 59 11 60 16 9
23 29 5 39 -34 13 -47 53 -100 60 -79 3 8 11 4 24 -12 15 -19 92 -56 117 -56
2 0 -6 16 -18 36 l-22 35 33 -20 c19 -12 42 -21 52 -21 10 0 20 -7 23 -15 9
-22 -14 -79 -41 -105 -30 -28 -25 -36 31 -60 27 -12 44 -26 44 -36 0 -9 24
-41 54 -70 41 -41 55 -62 60 -93 6 -39 18 -52 30 -33 3 5 26 9 51 10 41 0 45
-2 40 -19 -9 -29 10 -23 24 8 l12 26 15 -22 c12 -17 19 -19 35 -11 10 6 19 21
19 34 0 36 12 38 32 6 24 -40 23 -52 -8 -80 -17 -17 -23 -31 -20 -46 4 -16 -4
-28 -42 -55 -68 -49 -130 -108 -162 -155 -23 -32 -41 -45 -87 -61 -80 -27
-143 -68 -143 -93 0 -12 7 -37 15 -57 9 -20 13 -43 11 -49 -6 -14 -68 -34
-108 -34 -37 0 -39 -8 -15 -59 l21 -44 -60 -56 c-32 -31 -73 -73 -89 -93 l-31
-37 -137 162 c-262 310 -294 344 -340 360 -181 64 -199 67 -458 66 -134 0
-266 -4 -294 -7 l-50 -7 3 -35 c2 -19 12 -53 22 -76 16 -37 16 -42 1 -51 -14
-10 -12 -15 15 -40 17 -16 35 -35 40 -43 5 -9 26 -28 47 -44 33 -24 38 -33 33
-56 -3 -17 0 -32 7 -37 16 -12 89 -33 115 -33 12 0 30 -14 43 -31 l22 -32 86
7 c47 3 111 13 141 21 30 8 60 15 66 15 11 0 157 -217 244 -365 93 -156 153
-248 194 -299 48 -58 126 -111 191 -128 40 -11 53 -10 96 6 28 9 52 16 54 14
2 -3 -17 -182 -29 -266 l-5 -32 482 0 c481 1 482 1 458 20 -13 11 -33 20 -46
20 -42 0 -63 47 -85 193 -18 116 11 283 83 471 16 45 31 83 33 85 2 2 61 6
133 8 114 5 137 3 194 -16 36 -12 85 -35 110 -52 94 -62 253 -250 447 -529 35
-51 87 -117 115 -146 44 -47 56 -54 89 -54 26 0 50 8 73 26 l33 25 0 382 0
382 -103 1 c-82 1 -128 9 -239 38 -76 20 -145 36 -153 36 -8 0 -23 -9 -32 -20
-21 -25 -43 -26 -43 -2 0 45 65 211 84 213 6 1 17 1 24 0 27 -4 41 22 53 96 7
41 18 77 25 80 7 2 24 -3 37 -12 l25 -16 39 72 c58 109 56 109 166 1 52 -51
99 -92 106 -92 8 0 11 59 11 208 l-1 207 -62 42 c-77 53 -134 106 -217 203
-116 136 -142 160 -171 160 -33 0 -39 -18 -39 -125 0 -67 -7 -102 -44 -215
-24 -74 -56 -173 -70 -220 -29 -99 -69 -166 -122 -206 -52 -40 -80 -68 -86
-85 -5 -15 -6 -15 -135 33 l-51 19 10 37 c13 47 -4 152 -39 241 -14 36 -36 94
-50 128 -25 65 -28 117 -5 119 6 1 17 2 22 3 6 0 10 11 10 23 l0 21 25 -23 25
-23 0 22 c0 23 1 22 45 -17 10 -9 20 -10 33 -3 13 7 23 6 32 -2 10 -10 10 -8
2 9 -6 12 -9 37 -5 57 l6 37 27 -20 c15 -11 39 -24 54 -30 32 -12 32 -8 11 86
-9 36 -14 68 -13 70 2 2 15 -3 29 -10 34 -17 89 -36 89 -30 0 3 -5 14 -10 25
-9 16 -7 19 11 19 18 0 19 2 9 15 -11 13 -8 14 21 9 l34 -6 -27 26 c-16 15
-28 28 -28 30 0 1 42 1 93 0 l92 -3 -58 52 c-31 28 -57 55 -57 60 0 4 10 7 23
7 20 1 19 3 -12 30 -19 16 -32 33 -28 36 10 10 98 -15 125 -37 34 -26 47 -24
62 10 18 45 9 64 -47 94 -37 20 -67 48 -108 102 -87 116 -89 123 -54 227 16
47 32 121 36 162 3 45 12 81 19 87 8 6 14 17 14 25 0 7 9 16 20 19 12 4 19 14
18 23 -2 9 3 17 10 18 6 1 17 2 22 3 6 0 10 8 10 16 0 8 8 15 19 15 10 0 26
11 35 25 21 32 20 35 -7 35 -12 0 -31 6 -42 13 -11 8 -54 22 -95 32 -184 43
-202 53 -161 86 13 11 34 19 46 19 13 0 31 7 39 16 9 8 21 12 27 9 30 -19 74
87 45 108 -8 5 -7 9 1 15 18 11 4 50 -20 58 -20 6 -20 7 -3 19 17 13 17 14 -2
24 -13 7 -18 18 -15 33 3 15 -4 32 -19 48 -13 15 -22 35 -20 48 l3 22 -263 0
-263 0 -104 -85z"/>
</g>
</svg>
