<?xml version="1.0" standalone="no"?>
<!DOCTYPE svg PUBLIC "-//W3C//DTD SVG 20010904//EN"
 "http://www.w3.org/TR/2001/REC-SVG-20010904/DTD/svg10.dtd">
<svg version="1.0" xmlns="http://www.w3.org/2000/svg"
 width="480.000000pt" height="360.000000pt" viewBox="0 0 480.000000 360.000000"
 preserveAspectRatio="xMidYMid meet">
<metadata>
Created by potrace 1.16, written by Peter Selinger 2001-2019
</metadata>
<rect width="1" height="360" fill="#000000"/>
<rect x="479" width="1" height="360" fill="#000000"/>
<rect width="480" height="1" fill="#000000"/>
<rect y="359" width="480" height="1" fill="#000000"/>
<g transform="translate(0.000000,360.000000) scale(0.100000,-0.100000)"
fill="#000000" stroke="none">
<path d="M0 1800 l0 -1800 929 0 c693 0 932 3 937 12 4 6 7 25 6 43 -1 17 14
73 33 125 31 82 35 104 35 190 l0 98 -65 41 c-35 22 -69 50 -75 62 -31 57 3
204 91 398 22 46 39 86 39 88 0 2 -32 -13 -71 -33 -57 -30 -72 -35 -79 -24
-12 19 -2 64 28 133 18 42 30 57 41 54 42 -12 46 -11 49 11 2 13 43 65 91 115
122 129 131 144 131 212 0 55 1 56 35 71 l35 14 -83 83 c-100 99 -131 157
-124 231 2 28 0 58 -7 68 -13 22 2 39 64 70 24 13 46 28 48 35 1 6 -14 17 -35
23 -21 7 -42 16 -47 21 -6 5 -17 9 -25 9 -37 1 -43 16 -18 44 29 32 44 33 73
5 13 -12 29 -19 37 -16 13 5 13 14 2 69 -32 154 -28 278 9 278 8 0 34 -22 57
-49 l42 -49 51 39 c35 27 69 42 109 50 l57 12 0 533 0 534 -1200 0 -1200 0 0
-1800z"/>
<path d="M2468 2592 c-14 -9 -36 -29 -47 -43 -20 -25 -20 -41 -23 -472 -2
-245 -1 -441 2 -437 3 4 4 -363 2 -816 l-2 -824 300 0 c206 0 299 3 295 10 -4
6 -8 30 -10 53 -1 23 -21 90 -44 148 -32 83 -41 118 -40 165 1 131 -11 115
244 327 156 130 236 203 247 227 26 52 44 183 31 213 -14 29 -52 37 -126 26
-91 -14 -99 -19 -183 -101 -48 -47 -87 -77 -94 -73 -7 5 -9 24 -5 59 6 45 2
64 -29 144 -20 50 -36 97 -36 105 0 7 -9 31 -21 52 -16 31 -19 51 -14 88 7 60
-4 80 -56 101 l-42 17 32 20 c17 10 35 19 39 19 16 1 147 107 176 143 27 33
31 48 34 110 4 72 4 72 -36 117 -22 25 -56 54 -76 65 -20 11 -36 23 -36 27 0
12 14 10 28 -4 18 -18 51 19 59 65 6 42 1 45 -54 22 -50 -21 -52 -20 -37 25
22 63 53 252 47 285 -6 32 -20 55 -33 55 -5 0 -33 -20 -63 -45 l-55 -44 -18
20 c-31 34 -96 67 -154 80 -40 8 -66 22 -97 50 -47 43 -66 47 -105 21z m462
-512 c0 -5 -4 -10 -9 -10 -6 0 -13 5 -16 10 -3 6 1 10 9 10 9 0 16 -4 16 -10z
m114 -181 c37 -62 13 -116 -78 -177 -101 -67 -155 -87 -170 -64 -4 6 41 111
61 141 1 2 9 -1 16 -7 8 -7 17 -9 20 -5 4 3 16 -2 27 -12 20 -18 20 -17 20 8
0 14 5 27 11 29 7 2 7 12 -1 32 -9 24 -8 32 8 50 11 12 22 29 25 39 5 14 10
15 26 6 10 -7 26 -25 35 -40z m-345 -249 c4 -3 15 -20 24 -38 l16 -33 -47 3
c-46 3 -47 4 -44 33 2 17 11 41 20 55 15 23 17 24 20 5 3 -11 8 -22 11 -25z
m-67 -2 c-7 -7 -12 -8 -12 -2 0 14 12 26 19 19 2 -3 -1 -11 -7 -17z m233
-1226 c-6 -16 -7 -16 -16 1 -8 13 -7 23 3 34 12 15 13 15 16 -1 2 -9 1 -25 -3
-34z"/>
<path d="M2090 1975 c-7 -8 -21 -15 -31 -15 -46 0 -51 -80 -10 -137 27 -37
140 -133 156 -133 11 0 -5 73 -20 90 -7 8 -19 28 -27 43 l-14 28 -14 -25 c-17
-33 -30 -33 -30 -1 0 18 -4 23 -15 19 -19 -8 -19 5 -1 31 13 19 32 115 23 115
-3 0 -10 -7 -17 -15z"/>
<path d="M2328 1654 c-16 -35 -16 -35 9 -45 42 -16 56 5 31 47 -11 19 -21 34
-22 34 -1 0 -9 -16 -18 -36z"/>
<path d="M2151 939 c-5 -13 -30 -69 -55 -123 -25 -55 -45 -100 -44 -101 2 -1
19 -11 39 -23 l36 -22 23 140 c21 133 22 182 1 129z"/>
</g>
</svg>
