<?xml version="1.0" standalone="no"?>
<!DOCTYPE svg PUBLIC "-//W3C//DTD SVG 20010904//EN"
 "http://www.w3.org/TR/2001/REC-SVG-20010904/DTD/svg10.dtd">
<svg version="1.0" xmlns="http://www.w3.org/2000/svg"
 width="480.000000pt" height="360.000000pt" viewBox="0 0 480.000000 360.000000"
 preserveAspectRatio="xMidYMid meet">
<metadata>
Created by potrace 1.16, written by Peter Selinger 2001-2019
</metadata>
<rect width="1" height="360" fill="#000000"/>
<rect x="479" width="1" height="360" fill="#000000"/>
<rect width="480" height="1" fill="#000000"/>
<rect y="359" width="480" height="1" fill="#000000"/>
<g transform="translate(0.000000,360.000000) scale(0.100000,-0.100000)"
fill="#000000" stroke="none">
<path d="M1843 2314 c-3 -9 0 -31 7 -48 30 -74 100 -344 100 -388 0 -27 7 -63
16 -79 14 -28 14 -35 0 -77 -19 -54 -20 -87 -5 -150 14 -57 31 -78 70 -86 28
-5 29 -7 29 -64 0 -38 7 -71 20 -97 35 -68 72 -240 65 -299 -5 -37 -2 -63 9
-89 8 -20 18 -64 22 -97 6 -55 5 -60 -13 -60 -11 0 -25 11 -31 25 -16 35 -36
33 -26 -3 4 -15 9 -47 10 -70 1 -31 9 -52 27 -70 45 -49 50 -71 58 -242 4 -91
5 -168 3 -171 -2 -4 -11 -51 -19 -105 -9 -55 -19 -109 -22 -121 l-5 -23 206 0
c200 0 206 1 206 20 0 11 6 23 13 26 7 2 14 25 15 54 2 45 -4 59 -58 147 -33
54 -62 112 -66 129 -6 29 -3 33 40 54 83 40 120 148 84 246 -9 26 -9 45 2 88
12 50 11 63 -4 114 -10 31 -31 106 -47 167 -24 93 -27 115 -17 146 8 30 7 51
-6 106 -9 37 -16 97 -16 133 3 196 2 267 -2 380 -5 154 -19 200 -72 247 -38
32 -45 34 -94 31 -63 -6 -95 -27 -139 -92 -38 -56 -42 -101 -13 -139 25 -31
25 -47 2 -47 -10 0 -27 -6 -38 -14 -19 -13 -22 -12 -38 15 -11 19 -25 29 -41
29 -21 0 -30 11 -54 64 -26 59 -96 323 -103 391 -3 26 -8 30 -36 33 -23 2 -34
-2 -39 -14z m334 -800 c4 -57 3 -72 -11 -83 -24 -20 -43 -7 -57 38 -11 36 -10
43 16 86 17 30 31 43 36 38 6 -6 13 -41 16 -79z m-7 -280 l-6 -39 -8 52 c-4
29 -4 58 0 65 12 20 22 -33 14 -78z m40 -628 c0 -39 -6 -31 -14 19 -5 29 -4
36 3 25 6 -8 11 -28 11 -44z"/>
<path d="M4780 2232 c-8 -3 -50 -27 -92 -54 -129 -83 -168 -171 -117 -270 11
-22 66 -103 122 -180 l102 -139 3 166 c1 92 1 237 0 324 -3 135 -5 157 -18
153z"/>
<path d="M0 1118 l0 -861 21 19 c27 24 82 136 110 222 17 52 22 94 24 187 1
66 5 128 9 138 5 10 22 25 38 33 38 19 79 13 170 -27 82 -36 101 -36 127 -3
41 52 22 95 -52 114 -87 23 -109 33 -143 66 -45 46 -44 79 5 197 47 113 61
176 61 267 0 57 -4 73 -23 94 -20 23 -26 25 -62 16 -83 -20 -101 -7 -110 77
-3 32 -22 108 -41 170 -36 118 -61 153 -110 153 l-24 0 0 -862z"/>
<path d="M4758 161 c-21 -15 -95 -54 -165 -86 -71 -32 -132 -62 -137 -66 -6
-5 67 -9 167 -9 l177 0 0 95 c0 52 -1 95 -2 95 -2 0 -20 -13 -40 -29z"/>
</g>
</svg>
