<?xml version="1.0" standalone="no"?>
<!DOCTYPE svg PUBLIC "-//W3C//DTD SVG 20010904//EN"
 "http://www.w3.org/TR/2001/REC-SVG-20010904/DTD/svg10.dtd">
<svg version="1.0" xmlns="http://www.w3.org/2000/svg"
 width="480.000000pt" height="360.000000pt" viewBox="0 0 480.000000 360.000000"
 preserveAspectRatio="xMidYMid meet">
<metadata>
Created by potrace 1.16, written by Peter Selinger 2001-2019
</metadata>
<rect width="1" height="360" fill="#000000"/>
<rect x="479" width="1" height="360" fill="#000000"/>
<rect width="480" height="1" fill="#000000"/>
<rect y="359" width="480" height="1" fill="#000000"/>
<g transform="translate(0.000000,360.000000) scale(0.100000,-0.100000)"
fill="#000000" stroke="none">
<path d="M2678 3171 c-6 -21 -9 -22 -23 -11 -13 11 -14 10 -9 -5 4 -10 1 -21
-7 -26 -12 -8 -12 -10 -1 -18 11 -6 4 -18 -30 -49 -23 -23 -50 -42 -58 -42
-25 0 -60 -30 -60 -51 0 -11 7 -30 15 -42 10 -16 12 -32 6 -53 -4 -16 -4 -66
2 -112 5 -45 7 -88 4 -95 -2 -6 -28 -21 -56 -32 -55 -21 -61 -32 -32 -59 20
-18 41 -93 41 -146 0 -16 -7 -50 -16 -76 -13 -40 -14 -51 -2 -82 12 -30 12
-43 2 -72 -8 -22 -13 -90 -13 -181 -1 -112 -6 -163 -21 -220 -25 -95 -25 -126
1 -169 18 -30 21 -49 20 -125 -2 -112 -5 -164 -15 -240 -7 -51 -4 -72 18 -139
15 -44 34 -88 43 -98 15 -17 15 -19 0 -36 -31 -34 -16 -62 33 -62 11 0 22 -12
29 -32 6 -18 25 -45 41 -59 38 -35 136 -48 217 -29 49 12 61 12 111 -5 58 -19
75 -32 65 -47 -10 -18 21 -38 58 -38 25 0 47 8 65 24 l28 23 -27 18 c-19 12
-37 15 -62 11 -42 -8 -64 2 -99 48 -26 34 -26 36 -11 81 19 53 14 65 -25 65
-16 0 -31 4 -34 9 -3 4 -19 11 -36 14 -43 9 -37 32 13 51 61 23 101 67 93 101
-4 15 -20 34 -37 43 -70 39 -70 40 -68 242 0 61 -10 123 -26 162 -5 13 4 21
45 39 77 33 89 53 78 136 -10 68 -37 147 -69 193 -9 14 -38 68 -64 120 -26 52
-58 110 -72 128 -35 46 -26 79 25 88 20 4 45 11 55 16 15 8 25 2 51 -28 28
-33 34 -36 54 -25 20 11 22 9 22 -14 0 -31 36 -51 74 -41 35 9 95 63 102 92 8
30 -11 54 -43 54 -42 0 -91 27 -108 60 -9 17 -14 34 -11 38 3 5 -5 26 -18 47
-16 29 -28 39 -43 38 -28 -3 -49 22 -34 41 17 20 3 44 -27 48 -23 3 -27 7 -24
33 2 16 7 32 12 35 5 3 9 21 10 40 3 125 6 149 23 168 15 16 16 24 6 45 -7 15
-17 23 -25 20 -8 -3 -14 0 -14 7 0 6 -4 8 -10 5 -5 -3 -24 11 -42 31 -18 21
-39 43 -45 50 -7 7 -13 17 -13 22 0 6 6 12 13 15 9 3 9 7 -1 19 -7 9 -9 24 -5
34 6 16 5 17 -9 6 -14 -11 -17 -10 -20 5 -3 15 -5 13 -10 -6z m35 -1585 c13
-13 46 -179 47 -236 0 -14 1 -40 2 -58 0 -18 -3 -37 -8 -41 -5 -5 -53 -11
-107 -15 l-97 -6 -11 27 c-21 54 -14 215 12 300 10 31 12 32 72 36 34 2 65 4
69 5 4 1 13 -4 21 -12z"/>
<path d="M4133 3163 c16 -59 15 -71 -9 -114 -13 -24 -36 -67 -50 -96 -19 -40
-31 -53 -54 -58 -44 -10 -45 -21 -6 -56 32 -28 36 -36 36 -81 0 -84 21 -187
36 -181 8 3 14 0 14 -6 0 -6 -17 -11 -39 -11 l-39 0 -7 -48 c-5 -40 -2 -59 19
-106 14 -32 26 -73 26 -91 0 -18 9 -44 20 -58 24 -31 25 -35 3 -59 -14 -16
-15 -23 -5 -38 18 -30 15 -44 -18 -75 -16 -15 -44 -62 -61 -104 -34 -85 -95
-200 -145 -276 -52 -80 -53 -96 -4 -149 28 -31 53 -48 77 -52 65 -12 69 -98 8
-161 -19 -20 -44 -61 -55 -92 -11 -31 -25 -63 -30 -71 -6 -8 -15 -26 -21 -40
-6 -14 -20 -41 -30 -61 -22 -43 -25 -158 -6 -200 7 -15 55 -61 108 -104 l96
-76 17 -75 c14 -67 14 -78 1 -110 -25 -59 -24 -60 185 -164 119 -59 164 -74
189 -61 12 7 21 20 21 30 0 15 -16 24 -72 40 -84 25 -190 75 -213 101 -23 26
-3 65 28 55 12 -3 58 -10 102 -16 44 -5 93 -14 109 -19 16 -6 44 -10 62 -10
19 0 34 -4 34 -10 0 -5 6 -10 14 -10 7 0 45 -19 85 -41 70 -41 71 -41 145 -34
62 5 74 9 69 22 -4 9 2 22 13 30 38 28 1 59 -177 152 -91 47 -178 94 -193 104
-28 19 -34 48 -12 66 25 21 28 71 5 108 -27 43 -108 85 -168 87 -42 1 -46 3
-54 33 -8 25 -6 38 8 60 10 14 19 43 21 62 1 20 12 61 24 91 29 71 50 156 50
200 0 62 10 76 67 106 92 49 90 44 64 189 -6 33 -15 116 -20 185 -5 69 -16
146 -25 171 -15 45 -15 48 7 90 59 111 82 225 53 265 -18 24 -4 44 30 44 13 0
65 -16 116 -35 100 -37 123 -41 181 -24 l37 10 0 74 c0 89 -2 91 -120 106 -44
5 -91 13 -103 18 -12 4 -28 6 -36 3 -29 -10 -3 22 132 165 29 30 38 47 33 60
-6 15 -26 -3 -115 -97 -104 -110 -109 -114 -128 -98 -10 9 -24 14 -31 9 -6 -4
-28 -5 -47 -3 -29 3 -35 8 -30 21 4 9 9 33 12 54 3 21 8 35 11 32 9 -8 41 67
42 95 0 14 -7 35 -15 47 -17 24 -13 57 11 105 l14 26 -55 -3 c-30 -2 -55 -1
-55 3 0 4 -30 23 -68 42 -78 41 -78 41 -86 91 -4 26 -11 39 -22 39 -10 0 -14
-6 -11 -17z m41 -1709 c9 -24 7 -68 -5 -101 -10 -29 -44 -199 -55 -273 -3 -19
-15 -58 -27 -86 -20 -48 -25 -52 -62 -58 -22 -3 -52 -8 -67 -12 -24 -5 -28 -2
-47 41 -24 55 -27 100 -7 108 8 3 17 19 21 36 3 16 42 77 85 136 58 78 81 119
90 158 7 28 15 55 17 60 8 13 51 7 57 -9z m396 -913 c0 -19 -22 -23 -38 -7
-15 15 -14 16 11 16 15 0 27 -4 27 -9z"/>
<path d="M1106 3055 c-3 -8 -12 -15 -19 -15 -11 0 -13 -10 -10 -43 5 -42 3
-45 -53 -100 -46 -44 -66 -57 -91 -57 -41 0 -47 -25 -15 -64 21 -26 23 -36 17
-87 -7 -56 -6 -57 28 -83 19 -15 38 -39 42 -54 3 -15 16 -38 28 -51 18 -20 19
-25 7 -29 -8 -3 -28 -19 -43 -35 -20 -22 -27 -37 -23 -54 16 -60 16 -122 1
-137 -14 -14 -115 -56 -136 -56 -5 0 -22 -9 -37 -20 -17 -12 -53 -23 -94 -28
-37 -5 -75 -15 -85 -24 -16 -15 -22 -14 -62 6 -25 12 -52 34 -61 51 -9 17 -26
31 -39 33 -21 3 -333 -62 -379 -79 -15 -6 -22 -17 -22 -37 0 -58 -17 -47 510
-319 408 -211 418 -216 460 -210 37 5 40 3 40 -18 0 -13 -9 -52 -20 -87 -34
-109 -24 -141 65 -202 31 -22 79 -65 106 -95 45 -50 48 -57 33 -66 -10 -5 -27
-19 -38 -30 -12 -12 -33 -28 -48 -38 -29 -18 -37 -54 -17 -74 9 -9 5 -14 -15
-19 -19 -4 -26 -13 -26 -30 0 -16 -10 -28 -32 -40 -17 -9 -41 -25 -52 -36 -33
-32 -210 -107 -252 -108 -6 0 -58 34 -115 75 -67 49 -113 75 -130 75 -30 0
-356 -123 -373 -141 -8 -7 -2 -18 20 -37 42 -37 506 -427 568 -479 28 -23 94
-78 146 -122 l95 -81 85 0 c82 0 88 2 155 41 39 22 107 61 153 86 63 34 82 50
80 64 -2 10 -63 62 -137 116 -74 54 -136 103 -138 110 -3 7 20 18 57 29 36 10
65 24 71 35 5 11 18 19 28 19 32 0 61 33 74 83 l12 49 47 3 c55 3 142 48 172
88 l19 26 -27 41 c-15 23 -47 54 -71 68 -48 30 -90 93 -87 131 1 17 -8 34 -28
52 -16 16 -30 35 -30 44 0 23 -63 116 -111 164 l-40 39 45 84 45 83 53 6 c101
13 218 70 218 107 0 22 -216 381 -254 420 -27 29 -31 41 -34 100 -6 120 -4
161 10 189 9 19 6 29 -16 63 -15 23 -43 58 -62 79 -36 40 -32 51 17 51 29 0
53 63 45 117 -3 23 -15 63 -27 88 l-22 46 22 29 c11 16 21 33 21 38 0 5 -20
17 -44 26 -52 20 -80 57 -71 93 5 20 -3 34 -40 74 -25 26 -45 55 -45 64 0 19
-16 20 -24 0z m-71 -913 c14 -9 45 -59 45 -70 0 -12 -59 -37 -67 -29 -3 4 -12
-1 -18 -10 -17 -22 -166 -28 -204 -8 l-25 13 34 21 c19 11 40 21 46 21 6 0 45
16 85 35 79 36 88 39 104 27z m-289 -80 c-11 -11 -19 -11 -52 3 -49 20 -30 36
27 21 33 -9 37 -12 25 -24z m347 -142 c9 0 17 -7 17 -15 0 -19 -13 -19 -50 0
-35 18 -39 30 -7 21 12 -3 30 -6 40 -6z m247 -925 c0 -8 -7 -15 -16 -15 -14 0
-14 3 -4 15 7 8 14 15 16 15 2 0 4 -7 4 -15z m-270 -270 c0 -18 7 -38 15 -45
24 -20 17 -47 -17 -71 -18 -13 -37 -29 -41 -36 -4 -7 -15 -13 -24 -13 -20 0
-140 80 -147 98 -7 16 40 62 63 62 9 0 27 7 40 17 27 18 79 32 99 25 6 -2 12
-19 12 -37z"/>
</g>
</svg>
