<?xml version="1.0" standalone="no"?>
<!DOCTYPE svg PUBLIC "-//W3C//DTD SVG 20010904//EN"
 "http://www.w3.org/TR/2001/REC-SVG-20010904/DTD/svg10.dtd">
<svg version="1.0" xmlns="http://www.w3.org/2000/svg"
 width="480.000000pt" height="360.000000pt" viewBox="0 0 480.000000 360.000000"
 preserveAspectRatio="xMidYMid meet">
<metadata>
Created by potrace 1.16, written by Peter Selinger 2001-2019
</metadata>
<rect width="1" height="360" fill="#000000"/>
<rect x="479" width="1" height="360" fill="#000000"/>
<rect width="480" height="1" fill="#000000"/>
<rect y="359" width="480" height="1" fill="#000000"/>
<g transform="translate(0.000000,360.000000) scale(0.100000,-0.100000)"
fill="#000000" stroke="none">
<path d="M1597 3563 c13 -62 6 -312 -11 -410 -18 -98 -96 -322 -127 -362 -11
-13 -19 -28 -19 -33 0 -17 -102 -160 -164 -231 -55 -62 -109 -110 -229 -204
-100 -78 -360 -185 -514 -213 -119 -21 -418 -12 -511 16 l-22 6 0 -1066 0
-1066 1304 0 1304 0 6 28 c3 15 13 74 22 132 20 134 46 236 90 358 55 151 89
294 144 597 28 154 52 285 54 290 2 6 -1 19 -7 29 -5 11 -14 58 -21 104 -10
79 -13 86 -37 92 -65 18 -109 73 -109 137 0 15 16 59 35 97 19 39 35 72 35 74
0 11 -112 -10 -179 -33 -41 -14 -87 -25 -103 -25 -28 0 -35 8 -52 64 -6 17 -7
17 -32 1 -22 -14 -28 -15 -35 -4 -5 8 -9 20 -9 26 0 15 -21 20 -115 27 -67 5
-312 73 -399 110 -21 9 -48 16 -60 16 -12 0 -46 16 -76 36 -49 31 -60 35 -102
30 -49 -5 -57 0 -35 23 10 10 7 12 -13 11 -55 -5 -68 8 -27 28 22 11 22 11 -5
11 -36 1 -42 14 -17 37 18 16 26 17 92 6 45 -8 111 -31 177 -62 92 -43 122
-51 245 -70 77 -12 166 -28 197 -37 79 -21 144 -12 152 23 7 25 8 25 31 10 33
-22 42 -20 49 8 9 36 31 38 118 11 43 -14 93 -25 111 -25 18 0 49 -4 69 -9 23
-6 54 -5 78 1 40 11 41 11 24 36 -13 20 -14 26 -3 33 8 5 18 9 22 9 5 0 7 6 4
13 -2 7 -20 12 -41 12 -35 0 -39 4 -71 60 -49 84 -50 88 -37 93 7 2 17 13 23
25 7 12 8 19 4 14 -5 -4 -17 0 -27 10 -10 9 -21 13 -25 10 -9 -10 -43 49 -43
74 0 16 -4 19 -16 15 -14 -5 -15 -4 -4 9 7 9 10 18 7 22 -8 7 17 57 49 100
l24 31 -27 58 c-15 33 -27 77 -27 99 -1 37 1 40 27 43 35 4 250 -72 292 -103
17 -12 46 -26 65 -30 53 -11 82 -29 138 -84 61 -60 79 -109 92 -259 6 -68 19
-132 40 -191 20 -60 30 -108 30 -148 l0 -61 75 -67 c76 -68 86 -87 64 -127 -7
-13 -7 -23 -2 -27 16 -10 23 -54 11 -68 -8 -10 0 -33 30 -91 41 -78 41 -80 62
-283 11 -112 27 -224 35 -249 8 -25 19 -79 24 -120 8 -59 15 -78 33 -91 21
-16 21 -18 5 -25 -11 -4 -25 0 -37 11 -27 24 -26 2 1 -37 12 -16 19 -32 16
-34 -13 -13 -49 11 -67 44 -28 54 -24 18 5 -39 l24 -49 -46 4 c-25 2 -49 10
-54 17 -12 18 -49 117 -49 129 0 6 -4 10 -10 10 -13 0 -15 7 31 -126 39 -113
62 -167 207 -479 33 -71 75 -178 93 -238 l33 -107 458 0 458 0 0 1800 0 1800
-1605 0 -1606 0 8 -37z"/>
<path d="M3432 1529 c-16 -87 -15 -155 3 -205 7 -23 17 -77 20 -120 6 -83 23
-163 36 -178 13 -15 23 43 23 134 1 75 -15 176 -63 400 -7 34 -8 33 -19 -31z"/>
</g>
</svg>
