<?xml version="1.0" standalone="no"?>
<!DOCTYPE svg PUBLIC "-//W3C//DTD SVG 20010904//EN"
 "http://www.w3.org/TR/2001/REC-SVG-20010904/DTD/svg10.dtd">
<svg version="1.0" xmlns="http://www.w3.org/2000/svg"
 width="480.000000pt" height="360.000000pt" viewBox="0 0 480.000000 360.000000"
 preserveAspectRatio="xMidYMid meet">
<metadata>
Created by potrace 1.16, written by Peter Selinger 2001-2019
</metadata>
<rect width="1" height="360" fill="#000000"/>
<rect x="479" width="1" height="360" fill="#000000"/>
<rect width="480" height="1" fill="#000000"/>
<rect y="359" width="480" height="1" fill="#000000"/>
<g transform="translate(0.000000,360.000000) scale(0.100000,-0.100000)"
fill="#000000" stroke="none">
<path d="M0 1800 l0 -1800 1070 0 1070 0 4 23 c8 35 25 250 32 392 l7 130 -38
18 c-25 12 -35 22 -31 33 3 8 -1 17 -9 20 -20 8 -19 24 1 24 14 0 14 3 4 15
-11 13 -8 24 12 63 17 30 32 84 42 152 9 58 21 132 26 165 24 153 23 225 -4
332 -30 115 -32 171 -10 228 9 22 19 58 23 81 4 22 14 50 23 63 11 15 14 35
11 61 -5 36 -3 41 25 57 33 19 42 46 42 122 -1 43 -4 49 -50 86 -32 26 -48 47
-47 60 1 14 -3 19 -16 17 -19 -3 -76 39 -92 69 -5 10 -14 18 -20 19 -14 1 -11
104 4 160 10 34 28 60 74 105 77 75 159 116 244 123 55 4 70 1 120 -24 73 -37
119 -83 160 -160 38 -71 77 -223 93 -361 6 -54 24 -172 40 -263 17 -91 34
-228 40 -305 5 -77 14 -189 20 -250 6 -68 8 -251 4 -480 -7 -402 -7 -396 57
-682 l21 -93 924 0 924 0 0 1153 0 1152 -59 28 c-307 145 -562 422 -669 728
-55 156 -82 308 -82 461 l0 78 -1995 0 -1995 0 0 -1800z"/>
<path d="M2403 1990 c0 -25 2 -35 4 -22 2 12 2 32 0 45 -2 12 -4 2 -4 -23z"/>
</g>
</svg>
