<?xml version="1.0" standalone="no"?>
<!DOCTYPE svg PUBLIC "-//W3C//DTD SVG 20010904//EN"
 "http://www.w3.org/TR/2001/REC-SVG-20010904/DTD/svg10.dtd">
<svg version="1.0" xmlns="http://www.w3.org/2000/svg"
 width="480.000000pt" height="360.000000pt" viewBox="0 0 480.000000 360.000000"
 preserveAspectRatio="xMidYMid meet">
<metadata>
Created by potrace 1.16, written by Peter Selinger 2001-2019
</metadata>
<rect width="1" height="360" fill="#000000"/>
<rect x="479" width="1" height="360" fill="#000000"/>
<rect width="480" height="1" fill="#000000"/>
<rect y="359" width="480" height="1" fill="#000000"/>
<g transform="translate(0.000000,360.000000) scale(0.100000,-0.100000)"
fill="#000000" stroke="none">
<path d="M3212 3568 c3 -31 0 -34 -47 -49 -45 -14 -50 -19 -53 -47 -2 -17 4
-42 13 -55 14 -23 14 -28 -1 -66 -10 -26 -13 -46 -7 -54 5 -6 10 -57 12 -112
1 -69 7 -105 16 -116 13 -13 12 -17 -2 -32 -24 -24 -10 -31 26 -13 31 17 68
20 95 10 13 -5 11 -13 -15 -51 -17 -24 -29 -46 -27 -48 2 -2 25 9 51 26 26 16
50 29 53 29 5 0 -1 -41 -13 -85 -5 -19 -4 -18 19 3 l25 23 7 -23 c14 -54 6
-103 -24 -142 -16 -21 -27 -42 -25 -46 7 -11 -124 -142 -180 -180 -42 -29
-245 -262 -245 -281 0 -15 16 -10 35 11 17 19 20 19 28 4 9 -15 12 -15 28 7
38 50 19 -12 -46 -151 -110 -234 -118 -316 -51 -529 34 -107 56 -218 71 -356
l6 -60 -63 -51 c-35 -28 -129 -109 -209 -181 -170 -151 -300 -258 -343 -281
-24 -12 -56 -16 -139 -15 -59 1 -115 4 -125 8 -9 3 -28 29 -41 57 -13 28 -45
73 -70 99 -65 69 -91 104 -91 124 0 9 14 37 30 62 24 36 28 48 19 59 -7 8 -10
15 -8 17 2 1 21 11 42 21 25 13 37 26 37 41 0 11 5 26 10 31 13 13 -11 74 -46
121 -13 17 -24 41 -24 52 0 32 -18 69 -38 80 -16 8 -26 6 -47 -11 -21 -16 -43
-22 -94 -23 -79 -2 -123 -20 -172 -68 -52 -50 -77 -132 -99 -322 -13 -109 -32
-205 -59 -300 -65 -229 -72 -282 -61 -442 10 -132 22 -197 41 -218 5 -5 9 -17
9 -27 0 -15 9 -18 55 -18 36 0 55 4 55 12 0 9 3 9 12 0 7 -7 18 -12 25 -12 19
0 43 66 43 116 0 24 6 83 14 131 8 49 19 133 26 188 15 133 40 241 50 224 5
-7 14 -50 21 -96 11 -74 10 -90 -5 -138 -13 -43 -14 -59 -5 -76 6 -12 9 -35 6
-53 -7 -43 13 -167 30 -188 12 -13 12 -24 4 -55 -6 -21 -11 -41 -11 -45 0 -5
142 -8 316 -8 288 0 316 1 310 16 -17 45 -28 106 -20 114 36 35 531 310 558
310 5 0 5 -21 1 -47 -8 -57 -64 -350 -71 -375 -5 -17 36 -18 770 -18 427 0
776 2 776 4 0 2 -20 50 -45 107 -71 162 -145 294 -295 530 -127 201 -138 221
-136 261 3 54 -20 134 -49 173 -19 26 -25 55 -39 195 -14 145 -14 175 -2 252
8 48 19 102 24 120 6 18 21 87 33 152 21 111 25 122 56 149 18 16 40 41 49 56
8 14 26 31 39 37 20 10 24 8 34 -12 14 -31 23 -30 50 7 23 31 23 31 7 117 -14
74 -14 87 -2 94 12 7 12 16 0 64 -11 42 -12 59 -4 69 6 8 10 22 9 32 -3 23 11
83 19 83 4 0 20 -16 36 -35 26 -30 84 -70 92 -63 1 2 -1 22 -6 46 -6 33 -4 44
7 51 12 6 11 13 -7 44 -39 66 -14 39 40 -43 29 -44 55 -79 57 -76 3 2 -7 32
-20 65 -14 34 -22 61 -19 61 2 0 27 -14 55 -31 l50 -30 -7 27 c-6 21 -4 25 8
21 24 -9 20 0 -20 49 -20 25 -34 47 -31 50 3 3 24 -8 48 -25 23 -17 46 -31 51
-31 12 0 10 36 -8 97 -9 30 -13 57 -10 60 3 4 2 11 -3 17 -14 18 -82 186 -96
239 -16 58 -15 61 68 247 70 156 87 218 87 310 l0 60 -645 0 -645 0 2 -32z
m1168 -848 c45 -77 49 -92 19 -64 -24 21 -63 87 -74 123 -12 41 12 15 55 -59z"/>
</g>
</svg>
