<?xml version="1.0" standalone="no"?>
<!DOCTYPE svg PUBLIC "-//W3C//DTD SVG 20010904//EN"
 "http://www.w3.org/TR/2001/REC-SVG-20010904/DTD/svg10.dtd">
<svg version="1.0" xmlns="http://www.w3.org/2000/svg"
 width="480.000000pt" height="360.000000pt" viewBox="0 0 480.000000 360.000000"
 preserveAspectRatio="xMidYMid meet">
<metadata>
Created by potrace 1.16, written by Peter Selinger 2001-2019
</metadata>
<rect width="1" height="360" fill="#000000"/>
<rect x="479" width="1" height="360" fill="#000000"/>
<rect width="480" height="1" fill="#000000"/>
<rect y="359" width="480" height="1" fill="#000000"/>
<g transform="translate(0.000000,360.000000) scale(0.100000,-0.100000)"
fill="#000000" stroke="none">
<path d="M2695 3276 c-54 -17 -138 -61 -153 -79 -8 -9 -22 -12 -39 -9 -30 6
-54 -18 -46 -47 2 -10 -9 -38 -27 -64 -17 -25 -39 -65 -50 -89 -30 -70 -53
-278 -30 -278 6 0 10 -8 11 -17 0 -11 3 -13 6 -5 8 20 20 14 33 -18 7 -16 19
-35 28 -42 13 -11 14 -10 8 12 -7 24 -6 24 8 6 9 -11 16 -24 16 -29 0 -5 6 -7
14 -4 7 3 23 -1 34 -9 16 -11 21 -11 25 -1 3 8 7 5 13 -7 5 -13 0 -32 -14 -58
l-21 -39 34 -21 c19 -11 35 -24 35 -28 0 -16 122 -125 139 -124 9 1 24 5 34 9
13 6 17 2 17 -16 1 -21 3 -19 24 14 24 40 36 34 36 -17 0 -26 -81 -120 -139
-160 -43 -30 -171 -179 -171 -199 0 -7 5 -6 11 3 9 12 10 10 6 -8 -4 -18 -3
-21 8 -12 27 22 22 -7 -16 -92 -22 -47 -43 -108 -48 -134 -10 -52 0 -140 24
-219 27 -89 28 -89 -112 -25 -71 32 -146 61 -168 65 -22 4 -71 17 -109 28 -61
19 -71 26 -83 56 -8 18 -12 39 -9 46 2 7 -4 25 -15 41 -24 37 -24 65 1 106 12
21 16 36 10 43 -7 8 -2 16 14 25 35 18 41 55 17 93 -12 18 -29 51 -40 73 -24
51 -37 60 -59 42 -9 -8 -43 -20 -74 -27 -111 -24 -135 -64 -149 -249 -5 -69
-21 -181 -35 -250 -21 -106 -24 -142 -19 -229 6 -104 15 -145 39 -173 7 -8 16
-28 20 -45 4 -16 18 -39 31 -50 l23 -20 -55 -195 c-56 -200 -70 -290 -48 -290
7 0 15 -6 18 -14 4 -9 15 -12 32 -8 42 8 108 -32 169 -101 51 -58 130 -112
148 -101 15 10 8 45 -18 84 -15 22 -25 42 -23 44 16 14 110 35 135 30 17 -3
41 1 59 10 17 9 37 16 46 16 28 0 50 35 51 81 1 62 -9 159 -21 206 -26 97 -90
428 -83 434 4 4 14 9 23 11 21 4 286 -168 301 -195 21 -39 14 -173 -16 -297
-43 -181 -82 -377 -95 -475 -7 -50 -22 -134 -35 -187 l-24 -98 645 0 c512 0
644 3 640 13 -4 6 -58 140 -122 296 -123 305 -169 398 -289 586 -44 69 -76
131 -76 146 0 14 -11 57 -24 95 -30 86 -45 266 -27 332 7 23 15 42 20 42 5 0
6 10 4 23 -7 34 26 149 49 174 11 12 23 36 27 53 8 42 25 43 29 2 4 -38 20
-38 39 -1 7 13 13 19 13 13 0 -6 7 -11 15 -11 9 0 14 7 11 16 -3 9 -8 35 -11
59 -15 96 -101 342 -124 356 -6 4 -11 13 -11 21 0 10 5 11 25 2 14 -7 25 -18
25 -24 0 -26 20 -12 21 15 0 24 1 25 9 7 7 -16 9 -12 16 24 6 38 9 42 19 28
17 -23 21 -22 35 13 10 23 16 28 25 20 11 -9 12 -2 8 31 -5 37 -4 41 10 36 20
-7 22 11 8 61 -10 35 3 44 28 20 15 -14 17 -19 -21 76 -22 58 -18 72 7 21 9
-20 19 -34 22 -31 7 7 -15 71 -43 127 -13 26 -34 102 -48 170 -36 180 -55 223
-139 318 -76 85 -140 138 -179 148 -52 13 -253 13 -293 -1z m-892 -2161 c-3
-9 -8 -14 -10 -11 -3 3 -2 9 2 15 9 16 15 13 8 -4z"/>
</g>
</svg>
