<?xml version="1.0" standalone="no"?>
<!DOCTYPE svg PUBLIC "-//W3C//DTD SVG 20010904//EN"
 "http://www.w3.org/TR/2001/REC-SVG-20010904/DTD/svg10.dtd">
<svg version="1.0" xmlns="http://www.w3.org/2000/svg"
 width="480.000000pt" height="360.000000pt" viewBox="0 0 480.000000 360.000000"
 preserveAspectRatio="xMidYMid meet">
<metadata>
Created by potrace 1.16, written by Peter Selinger 2001-2019
</metadata>
<rect width="1" height="360" fill="#000000"/>
<rect x="479" width="1" height="360" fill="#000000"/>
<rect width="480" height="1" fill="#000000"/>
<rect y="359" width="480" height="1" fill="#000000"/>
<g transform="translate(0.000000,360.000000) scale(0.100000,-0.100000)"
fill="#000000" stroke="none">
<path d="M0 1800 l0 -1800 243 0 c197 1 246 3 261 15 26 19 56 19 56 0 0 -13
39 -15 293 -14 204 1 273 4 228 10 -35 4 -69 13 -75 19 -5 5 -21 10 -34 10
-13 0 -49 21 -83 49 -70 56 -114 66 -259 55 -80 -6 -91 -5 -118 15 -17 11 -35
21 -41 21 -6 0 -35 11 -66 24 -54 24 -55 26 -55 65 0 22 9 63 20 91 18 46 19
53 5 80 -8 16 -22 33 -30 38 -13 7 -12 12 10 32 14 13 25 31 25 40 0 9 11 27
25 40 14 13 25 32 25 42 0 35 30 78 65 92 18 8 71 22 117 31 150 30 352 123
465 214 70 57 312 320 313 341 0 8 -21 64 -47 124 l-47 108 47 189 c26 104 54
233 62 289 9 55 20 111 25 125 14 36 1 31 -51 -19 -68 -65 -116 -86 -227 -98
-60 -6 -104 -16 -114 -25 -10 -9 -24 -40 -33 -69 -13 -44 -23 -59 -55 -80 -38
-26 -43 -26 -137 -19 -54 4 -100 7 -103 7 -3 -1 -8 -17 -11 -37 -10 -58 -19
-61 -96 -26 -66 31 -69 34 -90 89 -34 90 -43 153 -43 295 0 246 43 398 175
623 58 98 176 258 245 333 22 24 40 45 40 47 0 2 -36 51 -80 110 -44 58 -80
111 -80 117 0 7 45 -34 100 -91 l99 -103 113 60 c187 99 400 176 551 201 93
15 284 12 378 -6 88 -16 255 -67 300 -90 32 -16 89 -91 89 -116 0 -15 -3 -17
-19 -8 -11 5 -22 10 -25 10 -3 0 -3 -35 1 -78 9 -120 -16 -152 -118 -152 -35
0 -45 -17 -54 -95 -4 -33 -16 -79 -27 -102 -29 -63 -115 -123 -175 -123 -21 0
-24 -3 -19 -22 3 -13 6 -26 6 -31 0 -4 25 -18 55 -32 30 -13 55 -29 55 -34 0
-15 -5 -14 -50 9 -28 14 -40 16 -43 7 -4 -9 -6 -9 -6 1 -2 25 -21 11 -21 -15
-1 -35 -46 -94 -58 -76 -6 9 -17 3 -42 -22 -27 -28 -31 -37 -21 -49 11 -13 6
-22 -28 -58 -23 -23 -41 -48 -41 -54 0 -7 -9 -16 -20 -19 -11 -3 -20 -10 -20
-15 0 -5 60 -80 133 -167 72 -87 150 -181 172 -208 70 -87 79 -97 118 -116 20
-11 37 -23 37 -28 0 -5 18 -27 40 -49 22 -22 40 -49 40 -60 0 -12 9 -26 21
-32 29 -16 48 12 49 68 0 49 -9 70 -46 107 -28 28 -28 49 2 53 47 7 113 -85
114 -156 0 -45 -22 -95 -55 -120 -33 -26 -62 -28 -94 -6 -21 15 -24 15 -52
-12 -16 -15 -31 -36 -35 -46 -3 -10 -12 -18 -19 -18 -8 0 -20 -9 -28 -20 -16
-23 -57 -40 -100 -40 -85 0 -99 -24 -67 -115 37 -108 50 -237 50 -512 1 -200
4 -274 17 -328 11 -48 17 -136 20 -278 l4 -207 1372 2 1372 3 3 1798 2 1797
-2400 0 -2400 0 0 -1800z m3386 1474 c40 -19 43 -31 12 -43 -29 -10 -75 5 -88
29 -8 15 -6 19 13 23 12 2 24 5 25 6 2 0 19 -6 38 -15z m-619 -270 c9 -29
-104 -47 -147 -24 l-25 13 30 14 c35 15 137 13 142 -3z m1023 -176 c0 -6 -7
-5 -15 2 -8 7 -15 17 -15 22 0 6 7 5 15 -2 8 -7 15 -17 15 -22z m-1380 -116
c0 -5 -12 -19 -26 -33 l-27 -24 17 33 c15 29 36 43 36 24z m1260 -481 c0 -8
-52 -31 -71 -31 -17 0 -9 15 14 26 28 14 57 17 57 5z m-1030 -126 c-36 -19
-160 -58 -166 -52 -17 16 102 66 156 66 l35 0 -25 -14z m1474 -281 c31 -12 15
-19 -44 -19 -56 -1 -76 7 -47 18 18 8 73 8 91 1z m-3639 -334 c-3 -5 -21 -10
-38 -10 -24 0 -28 3 -17 10 20 13 63 13 55 0z m2345 -176 c0 -2 -9 0 -20 6
-11 6 -20 13 -20 16 0 2 9 0 20 -6 11 -6 20 -13 20 -16z m96 -222 c-18 -16
-18 -16 -6 6 6 13 14 21 18 18 3 -4 -2 -14 -12 -24z m1782 -189 l37 -17 -30
-4 c-38 -5 -165 17 -165 29 0 16 118 10 158 -8z m-1004 -212 c8 -13 -25 -48
-51 -56 -32 -9 -29 10 5 40 30 27 38 30 46 16z m-661 -221 c3 -14 1 -20 -6
-17 -7 2 -14 14 -15 26 -4 28 13 20 21 -9z m-270 -152 c19 -25 19 -28 3 -52
-20 -32 -26 -32 -49 0 -13 17 -17 33 -12 55 8 37 29 35 58 -3z m1985 -34 c12
-4 22 -10 22 -15 0 -5 -10 -9 -22 -9 -34 0 -68 11 -68 21 0 10 34 12 68 3z
m-619 -128 c14 -15 13 -16 -7 -16 -26 0 -92 26 -92 36 0 12 83 -4 99 -20z
m-1916 -17 c23 -13 67 -84 67 -109 0 -15 -5 -20 -17 -17 -10 3 -40 10 -66 17
-37 10 -56 23 -84 56 -30 38 -33 46 -22 60 10 12 23 14 58 9 25 -4 54 -11 64
-16z"/>
<path d="M1660 2270 c0 -5 5 -10 11 -10 5 0 7 5 4 10 -3 6 -8 10 -11 10 -2 0
-4 -4 -4 -10z"/>
<path d="M1990 1840 c-1 -25 -14 -76 -30 -115 -18 -46 -24 -71 -16 -72 6 -2
34 3 61 10 l50 13 1 68 c0 62 -2 70 -32 104 l-33 37 -1 -45z"/>
</g>
</svg>
