<?xml version="1.0" standalone="no"?>
<!DOCTYPE svg PUBLIC "-//W3C//DTD SVG 20010904//EN"
 "http://www.w3.org/TR/2001/REC-SVG-20010904/DTD/svg10.dtd">
<svg version="1.0" xmlns="http://www.w3.org/2000/svg"
 width="480.000000pt" height="360.000000pt" viewBox="0 0 480.000000 360.000000"
 preserveAspectRatio="xMidYMid meet">
<metadata>
Created by potrace 1.16, written by Peter Selinger 2001-2019
</metadata>
<rect width="1" height="360" fill="#000000"/>
<rect x="479" width="1" height="360" fill="#000000"/>
<rect width="480" height="1" fill="#000000"/>
<rect y="359" width="480" height="1" fill="#000000"/>
<g transform="translate(0.000000,360.000000) scale(0.100000,-0.100000)"
fill="#000000" stroke="none">
<path d="M2015 3583 c3 -10 15 -74 26 -143 21 -127 38 -216 83 -439 41 -199
31 -350 -30 -473 -13 -26 -57 -81 -98 -122 -57 -58 -86 -98 -127 -178 -29 -57
-94 -171 -145 -254 -52 -84 -98 -164 -104 -179 -6 -15 -15 -81 -20 -148 -19
-222 -26 -265 -81 -459 -11 -42 -11 -49 4 -66 16 -18 16 -23 -5 -91 -24 -76
-37 -91 -137 -164 -25 -18 -47 -38 -49 -46 -7 -22 63 -7 101 22 18 13 38 27
45 31 26 15 -5 -30 -63 -92 -59 -65 -67 -82 -34 -82 13 0 52 30 100 77 44 42
79 74 79 71 0 -12 -37 -78 -87 -156 -29 -45 -53 -85 -53 -87 0 -3 9 -5 19 -5
31 0 77 46 127 126 46 74 68 93 60 52 -16 -76 -28 -188 -23 -202 8 -21 34 -20
46 2 5 10 20 75 32 144 25 146 30 158 53 135 19 -19 43 -13 49 11 2 10 -5 37
-16 62 -13 32 -17 57 -12 86 5 37 9 42 44 53 22 6 42 19 46 29 4 9 11 76 16
148 4 71 24 210 43 307 l34 177 48 57 c141 164 199 252 273 415 35 78 45 91
103 134 69 51 152 94 183 94 25 0 85 -53 85 -76 0 -12 -6 -15 -25 -12 -28 6
-33 -6 -9 -20 9 -5 18 -25 20 -46 3 -31 -1 -38 -24 -50 -15 -8 -34 -22 -43
-32 -21 -25 -52 -111 -45 -123 8 -13 -54 -151 -66 -148 -5 1 -18 -13 -28 -30
-9 -18 -22 -38 -27 -45 -14 -19 -51 -127 -59 -173 -4 -22 -14 -50 -22 -63 -11
-16 -13 -36 -7 -78 5 -42 3 -61 -9 -79 -9 -14 -16 -46 -16 -75 0 -43 5 -56 29
-80 21 -21 25 -30 15 -34 -22 -9 -16 -44 10 -62 14 -8 23 -21 20 -28 -8 -20
72 -86 104 -86 27 0 100 58 257 204 41 39 55 46 80 43 37 -5 101 19 203 77
l77 43 115 -37 c206 -68 380 -68 528 1 35 16 65 29 67 29 16 0 137 96 164 130
55 69 64 123 46 292 -29 274 -18 383 51 507 23 43 31 81 17 81 -13 -1 -83 -56
-141 -112 -29 -28 -80 -90 -112 -138 -63 -94 -126 -155 -167 -163 -21 -4 -38
6 -93 57 -36 33 -83 76 -104 95 -47 41 -46 42 23 241 54 154 111 384 111 445
0 20 -7 52 -16 71 -13 27 -26 37 -66 49 -28 8 -57 20 -66 27 -11 9 -16 10 -19
2 -2 -7 -22 -9 -53 -6 -39 3 -51 1 -56 -11 -4 -13 -10 -14 -29 -5 -22 10 -22
10 55 172 95 199 116 253 129 337 6 36 11 69 11 72 0 4 -327 7 -726 7 -687 0
-726 -1 -719 -17z"/>
<path d="M4570 1800 l0 -1800 115 0 115 0 0 1800 0 1800 -115 0 -115 0 0
-1800z"/>
</g>
</svg>
