<?xml version="1.0" standalone="no"?>
<!DOCTYPE svg PUBLIC "-//W3C//DTD SVG 20010904//EN"
 "http://www.w3.org/TR/2001/REC-SVG-20010904/DTD/svg10.dtd">
<svg version="1.0" xmlns="http://www.w3.org/2000/svg"
 width="480.000000pt" height="360.000000pt" viewBox="0 0 480.000000 360.000000"
 preserveAspectRatio="xMidYMid meet">
<metadata>
Created by potrace 1.16, written by Peter Selinger 2001-2019
</metadata>
<rect width="1" height="360" fill="#000000"/>
<rect x="479" width="1" height="360" fill="#000000"/>
<rect width="480" height="1" fill="#000000"/>
<rect y="359" width="480" height="1" fill="#000000"/>
<g transform="translate(0.000000,360.000000) scale(0.100000,-0.100000)"
fill="#000000" stroke="none">
<path d="M0 1800 l0 -1800 184 0 185 0 -19 56 c-41 117 -53 219 -44 359 4 72
8 173 8 225 -1 103 -2 109 -113 380 -96 234 -135 403 -150 648 -27 456 31 833
197 1286 l51 139 -29 36 c-17 19 -30 44 -30 53 0 28 37 58 70 58 83 0 527
-188 588 -250 27 -26 114 -65 287 -128 44 -16 141 -52 215 -80 319 -119 542
-194 551 -185 11 11 49 136 43 142 -3 3 -23 4 -45 2 -22 -1 -45 2 -52 7 -7 5
-29 12 -50 16 -21 4 -35 11 -32 17 4 5 0 9 -7 9 -7 0 -2 7 10 16 12 8 20 19
18 23 -3 4 13 25 34 45 22 21 87 95 145 166 115 141 155 179 259 241 113 68
141 68 276 -1 19 -9 67 -27 105 -38 81 -24 182 -86 214 -130 31 -44 67 -146
85 -242 21 -107 21 -113 -4 -105 -12 4 -20 2 -20 -5 0 -22 -32 -80 -41 -74 -5
3 -12 -1 -15 -10 -3 -8 -12 -12 -19 -9 -8 2 -24 -2 -37 -11 -28 -20 -38 -20
-38 -1 0 8 -5 15 -11 15 -11 0 -9 -18 6 -81 6 -22 3 -27 -18 -33 -14 -3 -28
-14 -31 -24 -3 -10 -18 -25 -33 -35 -16 -9 -43 -31 -62 -48 -35 -32 -31 -48
11 -49 23 0 65 -19 113 -50 43 -29 244 -89 649 -195 120 -31 143 -35 163 -24
21 11 26 10 45 -8 l21 -22 19 25 c22 28 40 30 58 9 7 -8 22 -15 35 -15 31 0
83 -28 96 -52 10 -19 11 -19 25 -1 13 17 15 16 41 -13 27 -31 37 -34 166 -64
170 -39 705 -150 723 -150 2 0 4 396 4 880 l0 880 -2400 0 -2400 0 0 -1800z"/>
<path d="M732 2757 c-86 -191 -139 -330 -172 -452 -39 -148 -90 -536 -90 -691
0 -131 32 -294 112 -569 76 -264 89 -318 83 -344 -3 -14 -31 -84 -62 -156 -31
-72 -62 -152 -69 -180 -16 -60 -17 -229 -1 -305 l12 -55 287 -3 288 -2 14 33
c7 19 31 51 52 72 63 61 240 188 290 207 100 40 233 161 486 443 143 159 134
149 250 322 92 137 95 145 91 187 -5 43 -10 48 -97 115 -123 94 -154 124 -171
166 -31 73 -10 155 75 289 48 76 49 81 44 135 -5 51 -3 60 24 97 29 40 29 41
21 125 -4 46 -8 99 -8 118 -1 32 -2 33 -19 18 -10 -10 -31 -17 -46 -17 -15 0
-29 -7 -33 -16 -3 -8 -12 -13 -19 -10 -7 3 -16 1 -19 -5 -12 -18 -25 2 -15 21
13 24 13 33 0 25 -5 -3 -10 4 -10 16 0 17 -3 19 -14 10 -11 -10 -16 -8 -21 8
-3 10 -3 32 0 48 6 26 5 26 -18 -10 -23 -35 -48 -66 -33 -39 4 7 9 27 11 45 1
18 6 40 10 50 9 22 -21 23 -53 1 -23 -16 -30 -6 -10 14 6 6 10 14 7 16 -2 2
-94 37 -204 76 -110 40 -334 124 -498 186 -238 92 -310 116 -361 119 l-63 4
-51 -112z"/>
<path d="M2847 2184 c-14 -14 -6 -54 17 -88 13 -20 27 -51 30 -71 4 -20 20
-57 36 -82 16 -25 32 -59 35 -77 3 -17 16 -55 27 -84 16 -41 24 -52 37 -46 34
15 243 68 430 109 86 19 93 26 89 94 l-3 55 -60 18 c-33 9 -183 51 -334 93
-151 43 -280 79 -286 81 -6 3 -14 1 -18 -2z"/>
<path d="M3875 1880 c-10 -31 -135 -154 -187 -184 -52 -30 -497 -186 -590
-206 -72 -16 -132 -3 -205 45 l-52 35 20 -35 c20 -33 20 -41 9 -141 l-11 -106
45 -48 c46 -50 55 -75 36 -111 -15 -27 35 -118 126 -233 94 -116 171 -251 154
-271 -10 -12 -18 -12 -58 0 -25 8 -48 13 -50 10 -2 -2 5 -36 16 -77 34 -125
71 -318 84 -440 l12 -118 788 0 788 0 0 818 0 819 -282 86 c-286 88 -601 177
-624 177 -7 0 -15 -9 -19 -20z"/>
<path d="M2247 1661 l-28 -33 28 -24 c15 -13 31 -24 36 -24 8 0 8 41 -2 84
l-6 30 -28 -33z"/>
</g>
</svg>
