<?xml version="1.0" standalone="no"?>
<!DOCTYPE svg PUBLIC "-//W3C//DTD SVG 20010904//EN"
 "http://www.w3.org/TR/2001/REC-SVG-20010904/DTD/svg10.dtd">
<svg version="1.0" xmlns="http://www.w3.org/2000/svg"
 width="480.000000pt" height="360.000000pt" viewBox="0 0 480.000000 360.000000"
 preserveAspectRatio="xMidYMid meet">
<metadata>
Created by potrace 1.16, written by Peter Selinger 2001-2019
</metadata>
<rect width="1" height="360" fill="#000000"/>
<rect x="479" width="1" height="360" fill="#000000"/>
<rect width="480" height="1" fill="#000000"/>
<rect y="359" width="480" height="1" fill="#000000"/>
<g transform="translate(0.000000,360.000000) scale(0.100000,-0.100000)"
fill="#000000" stroke="none">
<path d="M2205 2674 c-22 -2 -96 -9 -165 -14 -407 -35 -773 -118 -1225 -275
-121 -43 -354 -122 -517 -177 l-298 -100 0 -304 0 -303 38 -10 c20 -6 179 -46
352 -90 173 -45 454 -117 625 -160 635 -163 1006 -209 1600 -198 380 8 586 30
890 97 267 60 596 164 975 312 113 44 231 89 263 100 l57 20 0 286 0 287 -223
69 c-1365 426 -1489 454 -2042 461 -159 1 -308 1 -330 -1z m384 -369 c25 -13
100 -49 166 -79 l120 -55 46 -91 c26 -49 67 -123 92 -163 l45 -72 -14 -74 c-8
-41 -19 -123 -24 -183 l-9 -109 -131 -138 -132 -139 -136 -26 c-232 -43 -224
-43 -327 2 -49 21 -124 59 -165 83 -65 39 -82 55 -127 123 -29 44 -60 100 -69
125 -9 25 -25 66 -35 91 -18 41 -19 54 -10 150 17 173 39 236 115 328 36 43
82 91 104 105 21 15 51 41 67 57 16 17 39 30 51 30 12 0 37 6 55 14 19 7 83
19 144 25 60 7 112 14 114 17 7 7 11 5 60 -21z"/>
<path d="M2065 2139 c-31 -28 -63 -69 -52 -69 5 0 59 51 81 78 27 32 13 27
-29 -9z"/>
<path d="M1912 1868 c-15 -46 -25 -147 -14 -128 11 18 35 150 28 157 -2 2 -9
-11 -14 -29z"/>
<path d="M1935 1519 c9 -30 54 -107 66 -115 11 -6 -2 30 -30 85 -24 47 -47 66
-36 30z"/>
<path d="M2214 1229 c32 -17 60 -28 63 -25 6 6 -92 56 -109 56 -7 -1 13 -15
46 -31z"/>
</g>
</svg>
