<?xml version="1.0" standalone="no"?>
<!DOCTYPE svg PUBLIC "-//W3C//DTD SVG 20010904//EN"
 "http://www.w3.org/TR/2001/REC-SVG-20010904/DTD/svg10.dtd">
<svg version="1.0" xmlns="http://www.w3.org/2000/svg"
 width="480.000000pt" height="360.000000pt" viewBox="0 0 480.000000 360.000000"
 preserveAspectRatio="xMidYMid meet">
<metadata>
Created by potrace 1.16, written by Peter Selinger 2001-2019
</metadata>
<rect width="1" height="360" fill="#000000"/>
<rect x="479" width="1" height="360" fill="#000000"/>
<rect width="480" height="1" fill="#000000"/>
<rect y="359" width="480" height="1" fill="#000000"/>
<g transform="translate(0.000000,360.000000) scale(0.100000,-0.100000)"
fill="#000000" stroke="none">
<path d="M510 3597 c0 -12 55 -137 70 -157 17 -25 29 -59 50 -137 6 -24 17
-43 24 -43 8 0 16 -9 19 -20 6 -22 36 -27 55 -8 7 7 12 36 12 65 0 72 17 145
51 217 16 34 29 67 29 74 0 9 -38 12 -155 12 -85 0 -155 -1 -155 -3z"/>
<path d="M1960 3592 c0 -20 34 -52 54 -52 13 0 29 -7 36 -15 19 -23 32 -18 80
30 l44 45 -107 0 c-59 0 -107 -3 -107 -8z"/>
<path d="M2726 3585 c4 -8 12 -15 19 -15 7 0 15 7 19 15 4 11 -1 15 -19 15
-18 0 -23 -4 -19 -15z"/>
<path d="M4310 3590 c0 -18 27 -64 49 -84 18 -17 21 -30 21 -112 0 -52 -5
-124 -12 -162 -11 -67 -11 -70 19 -133 29 -62 57 -99 87 -116 8 -4 28 -39 46
-77 17 -38 44 -81 59 -95 22 -21 29 -38 35 -89 4 -34 11 -62 15 -62 5 0 21 6
36 14 15 8 33 12 40 10 23 -9 35 -157 15 -195 -6 -10 -34 -37 -63 -58 -110
-83 -105 -76 -138 -209 -30 -121 -30 -126 -19 -225 30 -257 23 -357 -35 -502
-20 -49 -42 -128 -51 -173 -16 -92 -32 -130 -77 -181 -16 -19 -37 -51 -46 -70
-59 -129 -159 -259 -224 -292 -22 -12 -51 -32 -64 -45 -41 -41 -66 -53 -146
-68 -59 -12 -89 -13 -134 -4 -42 7 -69 7 -100 -1 -40 -11 -124 -71 -132 -95
-9 -24 -54 -76 -67 -76 -21 0 -18 -49 4 -57 9 -4 32 -17 50 -29 17 -12 40 -21
50 -19 9 2 22 4 28 4 7 1 22 26 34 56 30 73 44 84 74 56 l23 -22 54 22 c65 25
131 36 308 49 81 6 137 7 140 1 3 -5 23 -12 45 -15 67 -11 91 -32 111 -98 17
-58 17 -60 -2 -86 -13 -17 -34 -30 -59 -34 l-39 -8 0 -65 0 -64 -55 -56 c-30
-31 -82 -72 -115 -90 l-60 -35 393 0 392 0 0 1800 0 1800 -245 0 c-164 0 -245
-3 -245 -10z"/>
<path d="M0 1785 l0 -1785 388 0 387 0 -60 31 c-92 48 -141 87 -180 143 -37
54 -95 185 -98 218 -1 12 -18 31 -38 44 -60 38 -65 56 -40 142 19 62 49 91 96
92 17 1 79 -4 139 -10 92 -9 112 -8 124 4 13 12 7 18 -40 41 -57 28 -88 66
-88 108 0 14 -11 39 -25 55 -14 17 -25 36 -25 43 0 38 -74 127 -143 172 -17
11 -30 33 -37 59 -6 24 -17 57 -25 73 -61 132 -66 147 -63 234 1 77 -2 94 -29
156 -33 74 -83 226 -83 251 0 7 -4 14 -10 14 -15 0 -39 53 -51 112 -6 29 -18
61 -26 70 -24 27 -45 215 -41 368 4 123 7 140 33 195 16 34 48 79 76 105 53
50 129 193 129 244 0 17 4 47 9 66 11 49 -4 161 -28 209 -12 22 -41 54 -66 71
-59 40 -89 83 -109 151 -15 55 -49 109 -67 109 -5 0 -9 -695 -9 -1785z"/>
<path d="M2290 3451 c0 -12 5 -21 10 -21 6 0 10 6 10 14 0 8 -4 18 -10 21 -5
3 -10 -3 -10 -14z"/>
<path d="M2221 3271 c-11 -7 -15 -47 -19 -183 -7 -298 -9 -275 25 -311 44 -46
54 -70 57 -140 3 -64 27 -137 45 -137 6 0 17 16 25 35 19 46 43 45 63 -2 13
-32 14 -49 4 -108 -7 -38 -18 -91 -26 -116 -28 -89 -14 -156 31 -147 31 6 40
33 26 80 -24 79 -25 87 -8 103 11 11 16 35 16 73 1 69 29 156 51 160 9 2 25
-5 34 -15 10 -10 32 -25 49 -33 29 -14 31 -20 37 -80 7 -73 22 -151 38 -193 6
-16 11 -60 11 -100 0 -57 -4 -75 -20 -92 -15 -16 -22 -41 -27 -91 -5 -65 -4
-70 20 -93 32 -29 51 -23 79 25 l21 36 75 -7 75 -7 -6 61 c-10 93 -74 223
-127 256 -22 14 -40 30 -40 36 0 6 -9 22 -20 36 l-19 25 27 36 c25 33 27 43
27 126 -1 65 -7 110 -22 156 -12 36 -24 78 -28 94 -4 21 -11 27 -24 23 -27 -7
-49 9 -70 51 -10 20 -29 46 -41 57 -12 11 -33 45 -47 75 -29 67 -47 87 -82 95
-40 9 -111 86 -146 157 -31 65 -41 73 -64 59z"/>
<path d="M3040 841 c0 -26 -7 -77 -15 -115 -13 -60 -13 -81 0 -160 13 -87 37
-309 51 -483 7 -82 7 -83 34 -83 24 0 28 5 34 41 9 59 35 104 112 193 67 79
104 151 104 204 0 36 -6 42 -64 72 -40 22 -55 38 -87 95 -21 39 -45 96 -53
128 -13 48 -24 67 -66 106 l-50 47 0 -45z"/>
<path d="M1645 800 c-16 -4 -55 -23 -85 -44 l-55 -36 -141 0 c-128 0 -146 -2
-205 -26 -35 -14 -73 -35 -85 -45 -32 -30 -113 -36 -185 -14 -52 16 -62 17
-70 4 -22 -34 0 -56 60 -57 18 0 39 -6 44 -11 16 -16 53 -13 67 4 22 26 47 -8
60 -82 15 -89 33 -104 120 -96 42 4 69 12 76 22 19 25 41 -2 48 -59 6 -44 11
-53 45 -74 84 -54 131 -123 153 -228 l12 -58 81 0 81 0 13 163 c7 89 21 227
31 307 18 137 18 150 2 237 -9 51 -21 94 -27 96 -5 2 -23 1 -40 -3z"/>
</g>
</svg>
