<?xml version="1.0" standalone="no"?>
<!DOCTYPE svg PUBLIC "-//W3C//DTD SVG 20010904//EN"
 "http://www.w3.org/TR/2001/REC-SVG-20010904/DTD/svg10.dtd">
<svg version="1.0" xmlns="http://www.w3.org/2000/svg"
 width="480.000000pt" height="360.000000pt" viewBox="0 0 480.000000 360.000000"
 preserveAspectRatio="xMidYMid meet">
<metadata>
Created by potrace 1.16, written by Peter Selinger 2001-2019
</metadata>
<rect width="1" height="360" fill="#000000"/>
<rect x="479" width="1" height="360" fill="#000000"/>
<rect width="480" height="1" fill="#000000"/>
<rect y="359" width="480" height="1" fill="#000000"/>
<g transform="translate(0.000000,360.000000) scale(0.100000,-0.100000)"
fill="#000000" stroke="none">
<path d="M0 3514 l0 -85 68 53 c38 30 86 68 108 86 l39 32 -108 0 -107 0 0
-86z"/>
<path d="M405 3586 c-6 -8 -44 -56 -86 -108 -95 -117 -180 -243 -258 -383
l-61 -110 0 -1188 0 -1189 57 -101 c77 -137 196 -313 284 -419 l73 -88 778 0
778 0 -24 38 c-13 21 -34 63 -46 92 -12 30 -30 73 -40 95 -60 139 -90 484 -56
662 72 371 296 713 586 893 171 107 297 223 407 375 69 96 166 285 189 369 60
212 80 410 58 571 -27 204 -43 261 -122 427 l-37 78 -1235 0 c-1052 0 -1237
-2 -1245 -14z m1476 -410 c38 -18 85 -61 132 -120 33 -41 53 -141 44 -219 -9
-69 -53 -143 -112 -188 -67 -50 -113 -69 -188 -75 -50 -5 -70 -2 -107 15 -128
62 -152 84 -193 177 -31 72 -34 131 -11 215 25 89 104 167 209 207 43 17 182
9 226 -12z"/>
<path d="M4447 3542 c81 -97 170 -225 254 -364 43 -73 83 -140 88 -148 6 -10
10 90 10 278 l1 292 -200 0 -201 0 48 -58z"/>
<path d="M2949 1062 c-158 -58 -248 -171 -257 -324 -6 -104 22 -181 93 -257
74 -79 155 -115 261 -115 72 0 90 4 146 32 36 17 86 51 113 74 171 151 133
447 -72 555 -100 53 -201 65 -284 35z"/>
<path d="M4773 533 c-93 -171 -178 -297 -293 -436 l-80 -97 110 0 109 0 53 45
c29 25 70 56 91 70 l37 25 0 215 c0 118 -1 215 -3 215 -2 0 -13 -17 -24 -37z"/>
</g>
</svg>
