<?xml version="1.0" standalone="no"?>
<!DOCTYPE svg PUBLIC "-//W3C//DTD SVG 20010904//EN"
 "http://www.w3.org/TR/2001/REC-SVG-20010904/DTD/svg10.dtd">
<svg version="1.0" xmlns="http://www.w3.org/2000/svg"
 width="480.000000pt" height="360.000000pt" viewBox="0 0 480.000000 360.000000"
 preserveAspectRatio="xMidYMid meet">
<metadata>
Created by potrace 1.16, written by Peter Selinger 2001-2019
</metadata>
<rect width="1" height="360" fill="#000000"/>
<rect x="479" width="1" height="360" fill="#000000"/>
<rect width="480" height="1" fill="#000000"/>
<rect y="359" width="480" height="1" fill="#000000"/>
<g transform="translate(0.000000,360.000000) scale(0.100000,-0.100000)"
fill="#000000" stroke="none">
<path d="M0 1800 l0 -1800 2400 0 2400 0 0 1800 0 1800 -2400 0 -2400 0 0
-1800z m2026 545 c35 -32 144 -65 253 -75 122 -12 219 -30 229 -43 5 -7 17
-46 26 -87 10 -44 32 -98 53 -133 26 -43 39 -80 50 -144 20 -117 58 -189 152
-287 115 -121 176 -205 164 -225 -21 -33 -137 -42 -169 -13 -10 10 -26 21 -34
25 -8 4 -24 13 -35 20 -100 59 -133 75 -220 104 -135 46 -375 167 -436 221
-27 24 -65 73 -85 107 -29 53 -36 76 -38 132 -2 50 -13 90 -39 153 -21 52 -38
111 -42 151 l-6 66 68 26 c85 32 77 32 109 2z"/>
</g>
</svg>
