<?xml version="1.0" standalone="no"?>
<!DOCTYPE svg PUBLIC "-//W3C//DTD SVG 20010904//EN"
 "http://www.w3.org/TR/2001/REC-SVG-20010904/DTD/svg10.dtd">
<svg version="1.0" xmlns="http://www.w3.org/2000/svg"
 width="480.000000pt" height="360.000000pt" viewBox="0 0 480.000000 360.000000"
 preserveAspectRatio="xMidYMid meet">
<metadata>
Created by potrace 1.16, written by Peter Selinger 2001-2019
</metadata>
<rect width="1" height="360" fill="#000000"/>
<rect x="479" width="1" height="360" fill="#000000"/>
<rect width="480" height="1" fill="#000000"/>
<rect y="359" width="480" height="1" fill="#000000"/>
<g transform="translate(0.000000,360.000000) scale(0.100000,-0.100000)"
fill="#000000" stroke="none">
<path d="M1042 3348 c-196 -697 -265 -1107 -303 -1778 -22 -408 27 -951 133
-1467 l21 -103 1802 0 1802 0 18 58 c59 190 156 398 241 518 l44 62 0 1449 0
1450 -50 5 c-30 3 -65 15 -90 32 l-40 26 -1754 0 -1754 0 -70 -252z"/>
<path d="M0 292 l0 -292 115 0 c68 0 115 4 115 10 0 5 -16 43 -34 83 -46 97
-88 203 -143 357 -24 68 -46 126 -48 129 -3 2 -5 -127 -5 -287z"/>
</g>
</svg>
