<?xml version="1.0" standalone="no"?>
<!DOCTYPE svg PUBLIC "-//W3C//DTD SVG 20010904//EN"
 "http://www.w3.org/TR/2001/REC-SVG-20010904/DTD/svg10.dtd">
<svg version="1.0" xmlns="http://www.w3.org/2000/svg"
 width="480.000000pt" height="360.000000pt" viewBox="0 0 480.000000 360.000000"
 preserveAspectRatio="xMidYMid meet">
<metadata>
Created by potrace 1.16, written by Peter Selinger 2001-2019
</metadata>
<rect width="1" height="360" fill="#000000"/>
<rect x="479" width="1" height="360" fill="#000000"/>
<rect width="480" height="1" fill="#000000"/>
<rect y="359" width="480" height="1" fill="#000000"/>
<g transform="translate(0.000000,360.000000) scale(0.100000,-0.100000)"
fill="#000000" stroke="none">
<path d="M3218 3103 c-16 -8 -28 -18 -28 -24 0 -5 -5 -9 -11 -9 -13 0 -36 -20
-123 -106 -33 -33 -69 -63 -79 -67 -14 -5 -34 7 -78 47 -65 58 -143 94 -224
103 -66 7 -427 -24 -491 -42 -98 -28 -179 -111 -216 -222 -25 -75 -35 -226
-18 -277 l12 -38 -53 -54 c-31 -31 -62 -54 -74 -54 -29 0 -59 -24 -53 -41 3
-8 -2 -26 -10 -41 -15 -25 -14 -29 3 -48 10 -11 22 -20 27 -20 5 0 33 -18 62
-40 56 -42 90 -50 100 -24 5 14 10 13 31 -10 15 -16 22 -32 18 -43 -5 -12 -2
-15 10 -10 15 6 16 3 3 -27 -20 -48 -65 -116 -76 -116 -6 0 -10 -5 -10 -11 0
-7 12 -9 31 -7 39 6 44 -6 25 -60 -18 -51 -6 -54 30 -7 14 19 29 35 33 35 7 0
51 -81 62 -115 6 -17 8 -15 19 14 l13 34 19 -22 c10 -13 18 -29 18 -36 0 -11
21 -25 37 -25 2 0 2 15 -2 33 -7 32 -7 32 22 -11 27 -41 28 -42 31 -17 2 14 8
23 13 20 5 -4 9 1 9 9 0 9 4 16 9 16 13 0 64 -78 57 -89 -9 -15 -100 -46 -191
-66 -117 -26 -167 -54 -221 -128 -26 -34 -63 -95 -82 -134 -41 -82 -33 -79
-162 -63 -111 14 -193 59 -324 177 -143 129 -200 173 -277 212 -88 46 -87 45
-81 96 3 34 1 45 -9 45 -7 0 -79 -67 -159 -148 -80 -82 -181 -177 -224 -211
-104 -82 -294 -206 -484 -316 -109 -63 -152 -93 -152 -107 0 -22 21 -23 150
-3 171 26 170 27 367 -86 50 -28 62 -24 111 42 127 170 153 190 197 149 13
-12 33 -44 45 -71 11 -27 25 -47 30 -44 4 3 11 24 15 48 8 46 29 77 54 77 30
-1 96 -37 144 -80 36 -32 48 -51 53 -81 4 -21 9 -39 11 -39 3 0 37 14 76 32
138 61 212 48 324 -55 33 -32 64 -57 69 -57 4 0 52 30 106 67 88 60 100 65
122 55 18 -8 23 -16 19 -32 -3 -12 2 -28 12 -40 18 -20 16 -72 -11 -203 -21
-105 -19 -139 14 -169 70 -66 147 -77 193 -27 l29 31 0 -35 c0 -55 -48 -196
-76 -222 -13 -12 -24 -29 -24 -37 0 -22 -29 -90 -47 -109 -20 -24 -14 -105 8
-101 26 4 42 -23 29 -47 l-11 -21 521 0 c286 0 520 2 520 5 0 2 -16 29 -35 60
l-35 54 27 49 27 48 -34 52 c-18 29 -39 52 -46 52 -18 0 -26 37 -22 97 l3 48
59 7 c32 4 73 17 91 28 27 16 33 28 39 66 9 71 7 185 -5 269 -14 91 -4 125 35
125 30 0 54 35 31 44 -8 3 -23 22 -32 42 -17 34 -17 36 2 46 11 6 35 27 52 45
32 33 34 34 75 23 79 -22 210 -81 334 -151 137 -79 129 -78 210 -13 50 41 117
66 153 58 38 -10 100 -42 153 -81 l47 -34 15 35 c8 19 31 46 53 60 42 27 170
69 184 60 5 -3 9 -23 9 -44 0 -55 15 -57 44 -7 35 60 69 89 98 85 23 -3 37
-25 90 -143 24 -53 48 -65 104 -51 l24 6 0 235 0 234 -52 70 c-29 38 -82 119
-117 181 -35 61 -72 115 -83 121 -23 12 -48 -4 -48 -30 0 -33 -26 -52 -122
-86 -117 -41 -130 -48 -270 -137 -145 -92 -219 -126 -319 -146 -70 -13 -98
-14 -203 -4 -177 18 -185 17 -197 -15 -14 -38 -27 -44 -79 -37 -102 12 -95 6
-150 122 -28 58 -58 115 -68 125 -26 29 -75 46 -212 72 -130 26 -200 50 -200
69 1 24 49 62 72 58 4 -1 10 8 15 21 6 18 8 14 13 -23 l5 -45 25 42 c30 51 55
58 45 13 -11 -50 9 -34 43 35 17 36 36 65 40 65 5 0 15 -11 22 -25 16 -29 26
-25 35 15 l7 30 36 -25 c20 -14 40 -25 44 -25 5 0 -4 23 -20 50 -30 56 -24 70
31 70 31 0 36 16 7 25 -19 6 -90 94 -90 113 0 5 7 12 15 16 8 3 15 12 15 21 0
9 7 29 16 46 11 22 20 28 33 24 26 -8 48 17 56 67 7 40 6 43 -38 82 -42 38
-87 106 -70 106 5 -1 61 -16 125 -34 l117 -33 12 56 c13 61 14 97 4 141 -5 24
-2 30 17 36 13 4 30 8 38 9 8 1 43 12 78 25 72 26 79 45 32 82 -64 50 -153
191 -164 259 -3 18 -8 51 -11 72 -7 41 -20 45 -67 20z m-528 -1304 c0 -11 -4
-18 -10 -14 -5 3 -7 12 -3 20 7 21 13 19 13 -6z"/>
</g>
</svg>
