<?xml version="1.0" standalone="no"?>
<!DOCTYPE svg PUBLIC "-//W3C//DTD SVG 20010904//EN"
 "http://www.w3.org/TR/2001/REC-SVG-20010904/DTD/svg10.dtd">
<svg version="1.0" xmlns="http://www.w3.org/2000/svg"
 width="480.000000pt" height="360.000000pt" viewBox="0 0 480.000000 360.000000"
 preserveAspectRatio="xMidYMid meet">
<metadata>
Created by potrace 1.16, written by Peter Selinger 2001-2019
</metadata>
<rect width="1" height="360" fill="#000000"/>
<rect x="479" width="1" height="360" fill="#000000"/>
<rect width="480" height="1" fill="#000000"/>
<rect y="359" width="480" height="1" fill="#000000"/>
<g transform="translate(0.000000,360.000000) scale(0.100000,-0.100000)"
fill="#000000" stroke="none">
<path d="M0 2694 c0 -892 0 -905 19 -899 11 3 64 17 118 30 232 56 456 143
689 266 166 87 176 88 257 11 34 -32 121 -107 192 -167 72 -60 204 -184 295
-276 233 -235 295 -280 448 -320 58 -16 105 -20 192 -19 63 1 148 2 188 1 56
0 72 3 72 14 0 8 28 69 62 137 82 160 152 238 270 295 46 23 94 44 107 48 13
4 39 14 58 21 l34 14 -68 37 c-38 19 -80 42 -95 50 -15 8 -30 18 -33 24 -13
20 -32 7 -44 -31 -16 -54 -31 -50 -31 8 l-1 47 -40 -47 c-23 -27 -44 -48 -48
-48 -4 0 3 32 16 71 33 97 25 114 -30 57 -69 -71 -82 -78 -48 -22 27 45 35 69
32 102 -2 19 -28 14 -34 -7 -6 -26 -30 -21 -67 14 -19 18 -34 25 -40 19 -12
-12 -88 -242 -96 -293 -4 -23 -10 -41 -15 -41 -5 0 -9 -7 -9 -15 0 -18 -20
-20 -21 -2 0 6 -5 0 -11 -15 -15 -42 -38 -36 -39 10 -1 29 -3 25 -10 -23 -5
-32 -16 -66 -24 -74 -13 -14 -15 -13 -15 2 0 9 -4 17 -10 17 -5 0 -10 -7 -10
-15 0 -31 -20 -14 -21 18 0 17 -9 50 -20 72 l-19 40 5 -42 c3 -24 3 -43 0 -43
-10 0 -64 117 -80 175 -22 75 -16 208 14 319 12 44 24 83 27 88 7 11 -4 10
-58 -6 -25 -8 -82 -18 -126 -21 -97 -9 -106 2 -62 74 35 57 70 85 160 131 139
72 175 103 215 186 35 72 36 76 18 90 -10 7 -23 14 -29 14 -29 1 -192 90 -207
114 -16 24 -16 28 -1 59 35 71 119 184 163 220 59 49 168 102 252 124 64 16
66 16 110 -5 l45 -22 60 24 c198 80 422 72 684 -25 176 -65 247 -164 257 -359
5 -79 9 -99 27 -119 38 -42 101 -79 172 -101 102 -32 115 -40 108 -64 -13 -41
-66 -108 -100 -123 -27 -13 -38 -14 -59 -5 -75 35 -95 -2 -34 -64 l44 -45 -45
6 c-125 16 -118 17 -122 -7 -2 -13 6 -44 19 -70 13 -26 19 -50 14 -53 -6 -3
-3 -24 6 -51 18 -53 13 -64 -16 -35 -28 28 -31 27 -31 -9 0 -35 -3 -36 -39
-11 l-27 19 4 -36 5 -37 -22 20 -22 19 5 -47 c7 -56 -4 -61 -27 -12 -23 47
-37 44 -37 -9 0 -31 -5 -46 -16 -50 -22 -9 -24 -8 -24 9 0 24 -18 17 -22 -7
-2 -13 -9 -22 -16 -20 -8 1 -11 -2 -8 -7 4 -5 20 -13 37 -16 26 -6 30 -11 25
-28 -19 -66 -18 -71 19 -95 19 -12 63 -33 98 -46 92 -34 157 -70 196 -107 30
-29 103 -169 151 -288 l14 -34 130 6 c72 3 158 13 191 21 43 10 73 12 105 6
71 -14 229 -11 300 5 36 9 95 30 132 48 l68 32 0 1053 0 1052 -2400 0 -2400 0
0 -906z"/>
<path d="M858 1944 c-49 -31 -88 -59 -88 -64 0 -4 7 -10 15 -14 18 -7 20 -47
3 -64 -9 -9 -5 -19 19 -44 23 -24 38 -57 56 -122 l25 -89 -33 -91 c-18 -50
-63 -174 -100 -276 -37 -102 -76 -211 -87 -242 -34 -100 -60 -101 -73 -4 -39
291 -75 587 -75 614 0 44 71 183 111 216 58 49 19 48 -100 -4 -63 -27 -160
-61 -216 -77 -93 -25 -103 -30 -113 -57 -10 -25 -8 -33 12 -56 12 -15 35 -70
51 -123 l28 -95 -22 -54 c-26 -66 -150 -391 -198 -518 -19 -52 -44 -104 -54
-116 -18 -19 -19 -41 -19 -342 l0 -322 1190 0 1190 0 0 34 c0 70 31 270 50
325 11 31 27 112 36 181 17 148 52 417 61 478 5 40 4 42 -19 42 -13 0 -32 6
-42 13 -16 12 -14 16 24 55 22 24 38 47 36 50 -2 4 -51 4 -108 -1 -57 -4 -125
-6 -151 -3 l-48 5 28 -32 c21 -23 36 -60 51 -123 l23 -89 -49 -140 c-27 -77
-75 -214 -107 -305 -32 -91 -64 -171 -71 -179 -21 -23 -31 14 -59 219 -14 102
-33 231 -41 286 -8 56 -14 116 -14 133 0 41 72 183 104 207 19 14 24 25 20 41
-5 17 -22 25 -82 42 -83 21 -184 41 -214 41 -14 0 -17 -4 -10 -17 5 -10 19
-56 31 -103 l22 -85 -101 -295 c-56 -162 -109 -307 -116 -323 -33 -63 -42 -33
-83 268 -17 121 -35 256 -42 300 l-11 80 42 88 c25 51 54 95 70 107 47 33 45
75 -4 140 -84 112 -239 260 -271 260 -4 0 1 -12 10 -27 21 -31 55 -154 55
-199 0 -28 -54 -189 -181 -541 -44 -120 -61 -147 -77 -116 -5 10 -29 167 -52
350 l-43 331 42 89 c30 63 52 95 72 107 18 11 29 25 29 40 0 12 5 27 11 33 7
7 -4 21 -38 46 -26 20 -82 70 -123 111 -41 42 -79 76 -85 76 -5 0 -49 -25 -97
-56z"/>
<path d="M0 1600 c0 -44 8 -49 34 -21 22 24 13 61 -15 61 -16 0 -19 -7 -19
-40z"/>
<path d="M4685 1334 c-11 -3 -59 -12 -106 -20 -72 -13 -89 -20 -99 -40 -11
-20 -10 -27 16 -56 16 -19 42 -72 58 -119 l29 -86 -77 -254 c-98 -322 -118
-382 -133 -386 -17 -6 -27 37 -82 337 -28 151 -53 289 -56 305 -8 39 63 195
103 224 l27 21 -190 -5 c-104 -3 -195 -5 -201 -5 -21 0 -24 -43 -5 -65 24 -25
75 -188 69 -217 -3 -13 -22 -77 -42 -143 -21 -66 -56 -183 -80 -260 l-42 -140
4 -212 4 -213 459 0 459 0 0 285 c0 245 -3 298 -20 378 -40 188 -92 473 -92
498 0 15 17 59 36 98 20 39 36 73 36 76 0 6 -44 5 -75 -1z"/>
</g>
</svg>
