<?xml version="1.0" standalone="no"?>
<!DOCTYPE svg PUBLIC "-//W3C//DTD SVG 20010904//EN"
 "http://www.w3.org/TR/2001/REC-SVG-20010904/DTD/svg10.dtd">
<svg version="1.0" xmlns="http://www.w3.org/2000/svg"
 width="480.000000pt" height="360.000000pt" viewBox="0 0 480.000000 360.000000"
 preserveAspectRatio="xMidYMid meet">
<metadata>
Created by potrace 1.16, written by Peter Selinger 2001-2019
</metadata>
<rect width="1" height="360" fill="#000000"/>
<rect x="479" width="1" height="360" fill="#000000"/>
<rect width="480" height="1" fill="#000000"/>
<rect y="359" width="480" height="1" fill="#000000"/>
<g transform="translate(0.000000,360.000000) scale(0.100000,-0.100000)"
fill="#000000" stroke="none">
<path d="M4119 3234 c-98 -58 -140 -88 -299 -214 -52 -41 -113 -87 -136 -102
-22 -14 -62 -44 -88 -67 -26 -23 -114 -80 -194 -128 -81 -47 -175 -105 -210
-129 l-62 -43 6 38 c5 31 2 42 -17 64 -27 30 -67 42 -89 27 -12 -8 -13 -12 -1
-19 15 -10 5 -35 -27 -64 -20 -18 -23 -18 -109 3 -64 17 -104 21 -148 17 -74
-7 -271 -70 -236 -75 23 -4 23 -4 -7 -22 -39 -24 -72 -52 -72 -63 0 -4 9 -3
20 3 26 14 26 -2 0 -25 -25 -23 -50 -104 -50 -163 0 -44 0 -45 20 -27 18 17
19 16 26 -9 10 -43 -1 -58 -43 -54 l-36 3 -2 90 c-1 109 -28 177 -102 256 -63
68 -110 90 -211 100 -111 12 -135 29 -157 117 -25 102 -62 170 -130 237 -148
148 -367 196 -530 116 -165 -81 -295 -265 -336 -474 -26 -136 19 -267 132
-380 136 -136 306 -181 493 -129 34 9 106 -21 106 -44 0 -17 -8 -17 -40 0 -33
19 -63 6 -125 -53 -27 -26 -76 -64 -107 -84 -62 -39 -67 -50 -43 -84 14 -20
13 -24 -9 -50 -57 -68 -71 -135 -30 -141 16 -2 25 5 34 27 7 17 16 31 20 31
24 0 71 -25 84 -44 13 -21 13 -26 -3 -50 -10 -14 -26 -32 -36 -40 -13 -9 -15
-15 -6 -20 7 -5 16 -19 21 -32 6 -14 18 -24 28 -24 17 0 19 -13 26 -162 7
-174 15 -221 45 -260 11 -13 23 -41 26 -62 5 -27 14 -40 31 -46 21 -8 24 -16
24 -59 0 -41 -4 -51 -25 -65 -24 -16 -25 -22 -25 -106 0 -87 8 -111 40 -122 6
-2 13 -23 16 -48 4 -40 1 -48 -23 -67 -26 -21 -28 -29 -31 -112 -4 -86 -3 -91
22 -114 16 -15 28 -40 32 -67 7 -40 5 -45 -21 -66 -26 -20 -29 -31 -33 -88 -4
-62 -3 -66 17 -66 19 0 21 6 21 55 0 30 5 55 10 55 6 0 10 -4 10 -10 0 -5 7
-10 15 -10 8 0 15 7 15 15 0 8 4 15 9 15 14 0 21 -27 21 -76 0 -32 4 -44 15
-44 12 0 15 14 15 63 0 68 -4 78 -37 96 -19 10 -23 20 -23 62 0 43 3 51 24 58
31 12 36 29 36 122 0 66 -3 82 -20 99 -11 11 -24 20 -30 20 -5 0 -10 24 -10
54 0 46 3 56 21 61 57 18 52 207 -6 233 -21 10 -25 18 -25 56 0 57 23 73 127
87 43 6 118 19 167 30 49 11 90 18 93 16 2 -2 -8 -28 -22 -58 -51 -111 -54
-185 -24 -654 12 -195 6 -266 -26 -305 -33 -41 -47 -40 437 -40 l463 1 -42 25
c-31 19 -43 33 -43 49 0 13 -11 36 -24 52 -20 23 -26 47 -36 138 -16 155 4
289 61 394 10 20 19 39 19 44 0 11 52 88 57 84 2 -2 14 -51 28 -108 13 -57 33
-138 44 -179 11 -41 30 -121 42 -178 19 -96 19 -106 5 -137 -9 -18 -16 -40
-16 -48 0 -8 -16 -39 -35 -68 -20 -28 -38 -56 -41 -61 -3 -4 99 -8 226 -8
l231 0 132 133 c76 75 141 149 152 172 31 66 23 155 -21 245 -32 64 -57 95
-177 213 l-139 138 16 177 c22 239 41 353 83 507 20 72 38 140 40 153 6 27 23
40 23 17 0 -9 5 -13 10 -10 6 3 14 -4 19 -17 16 -43 35 -51 65 -27 14 11 26
27 26 35 0 8 7 14 15 14 8 0 15 4 15 8 0 4 18 28 40 52 22 24 40 48 40 53 0 4
11 23 25 41 14 18 25 40 25 48 0 9 7 21 15 28 8 7 22 35 30 62 8 28 20 57 26
64 14 17 25 180 15 219 -5 20 -20 32 -59 50 -103 47 -165 42 -256 -19 -46 -31
-55 -34 -97 -28 l-46 7 54 50 c30 28 85 77 124 109 38 33 94 84 125 113 l55
54 48 -22 c59 -26 90 -21 166 25 30 18 76 39 102 46 66 17 77 34 47 67 -13 14
-44 38 -67 54 l-44 28 51 22 c59 25 67 50 21 69 l-30 12 51 62 c28 33 91 105
140 158 49 53 89 99 89 102 0 15 -34 1 -121 -50z m-1837 -1265 c18 -10 20 -17
14 -70 l-7 -58 50 -37 c44 -31 49 -38 40 -55 -6 -11 -34 -86 -64 -167 -29 -81
-56 -154 -59 -163 -9 -20 -82 -43 -236 -75 -69 -14 -162 -36 -206 -50 -45 -13
-85 -24 -88 -24 -3 0 -6 15 -6 33 0 17 -5 79 -12 136 -11 97 -11 104 6 117 11
7 24 15 30 17 7 3 2 14 -11 28 -11 13 -26 42 -32 64 -13 48 -14 132 -2 139 4
3 14 32 21 65 l13 60 24 -19 c47 -37 130 -61 216 -61 72 -1 87 3 151 35 39 19
84 48 100 65 34 35 31 34 58 20z m-651 -1222 c2 -74 -3 -86 -27 -67 -13 11
-17 11 -24 1 -17 -28 -30 2 -30 70 0 69 5 79 29 57 11 -11 15 -10 24 4 18 27
26 8 28 -65z m3 -289 c8 -30 8 -112 0 -132 -8 -20 -24 -21 -24 -1 0 20 -17 19
-29 -2 -8 -16 -11 -14 -21 12 -7 17 -9 51 -6 79 6 50 15 70 23 49 6 -18 33
-16 33 2 0 23 17 18 24 -7z"/>
</g>
</svg>
