<?xml version="1.0" standalone="no"?>
<!DOCTYPE svg PUBLIC "-//W3C//DTD SVG 20010904//EN"
 "http://www.w3.org/TR/2001/REC-SVG-20010904/DTD/svg10.dtd">
<svg version="1.0" xmlns="http://www.w3.org/2000/svg"
 width="480.000000pt" height="360.000000pt" viewBox="0 0 480.000000 360.000000"
 preserveAspectRatio="xMidYMid meet">
<metadata>
Created by potrace 1.16, written by Peter Selinger 2001-2019
</metadata>
<rect width="1" height="360" fill="#000000"/>
<rect x="479" width="1" height="360" fill="#000000"/>
<rect width="480" height="1" fill="#000000"/>
<rect y="359" width="480" height="1" fill="#000000"/>
<g transform="translate(0.000000,360.000000) scale(0.100000,-0.100000)"
fill="#000000" stroke="none">
<path d="M0 1800 l0 -1800 2400 0 2400 0 0 1800 0 1800 -2400 0 -2400 0 0
-1800z m2299 1067 c6 -8 9 -16 6 -19 -3 -3 17 -3 43 0 60 5 73 -9 43 -49 -28
-37 -27 -39 12 -39 23 0 41 8 56 24 41 43 79 55 151 47 36 -4 79 -14 95 -23
27 -15 145 -138 145 -152 0 -17 -43 -2 -81 29 -52 42 -76 44 -89 9 -17 -43
-12 -51 41 -70 86 -31 156 -106 119 -129 -18 -11 -10 -25 24 -42 23 -11 32
-21 28 -31 -3 -8 -1 -13 4 -10 5 4 18 0 29 -8 10 -8 15 -14 10 -14 -4 0 0 -9
10 -21 19 -20 19 -20 -8 -10 -27 11 -27 11 -11 -14 16 -24 16 -25 -7 -23 -23
3 -24 1 -21 -62 2 -36 8 -68 14 -71 8 -5 100 -26 207 -48 22 -4 35 -13 37 -25
2 -15 -2 -17 -29 -12 -18 4 -50 9 -72 11 l-40 5 40 -19 c51 -25 67 -25 199 -1
60 11 132 20 161 20 60 0 158 -23 163 -39 2 -6 13 -11 25 -12 12 0 17 -3 10
-5 -27 -12 32 -84 68 -84 11 0 18 -4 15 -8 -3 -5 7 -15 22 -23 15 -7 29 -14
31 -16 2 -1 -5 -10 -14 -20 -11 -11 -14 -18 -6 -21 15 -5 14 -42 -1 -43 -10 0
-10 -2 -1 -5 7 -3 9 -12 6 -21 -3 -8 0 -19 8 -25 10 -7 3 -8 -21 -4 -31 6 -32
5 -16 -7 17 -13 18 -14 2 -20 -10 -4 -30 0 -47 8 -18 10 -29 12 -29 5 0 -16
-26 -40 -43 -40 -20 0 -28 -12 -17 -25 16 -19 -38 -13 -77 8 -47 25 -52 21
-13 -13 50 -42 27 -37 -25 6 -53 43 -98 57 -245 79 -61 9 -130 24 -153 32 -25
10 -75 17 -122 17 l-81 1 10 -47 c7 -35 6 -50 -3 -62 -19 -22 -47 -20 -65 6
-17 24 -17 24 -34 -14 -11 -27 -35 -37 -46 -19 -3 5 -9 37 -12 72 -3 35 -8 66
-10 68 -7 7 -130 5 -197 -3 -59 -8 -70 -6 -87 9 -12 11 -18 26 -15 35 6 20
-13 39 -40 39 -29 -1 -322 20 -373 26 -51 6 -48 -10 3 -19 19 -4 35 -11 35
-17 0 -5 20 -18 45 -29 32 -14 43 -23 39 -35 -9 -22 -18 -20 -152 34 -148 61
-185 69 -208 47 -22 -23 -46 -16 -61 15 -11 23 -21 28 -78 34 -74 8 -115 33
-115 72 l0 25 83 -6 c45 -4 111 -11 147 -16 72 -11 341 -36 491 -46 l95 -7 31
39 c17 22 47 74 68 116 36 75 37 79 22 110 -8 18 -20 56 -27 85 -10 45 -17 55
-48 70 -50 25 -61 46 -40 80 32 54 108 38 108 -23 0 -31 39 -116 51 -109 5 4
9 12 9 19 0 8 6 26 14 41 18 35 3 78 -25 70 -19 -6 -59 41 -59 69 0 9 -3 16
-8 16 -15 0 -147 102 -170 131 -30 37 -26 75 6 72 25 -3 27 0 10 27 -10 15 -9
23 6 39 22 25 30 26 45 8z"/>
<path d="M2757 2324 c5 -14 3 -15 -15 -5 -18 10 -22 9 -22 -4 0 -20 18 -55 28
-55 4 0 16 13 25 30 17 28 17 29 -3 40 -16 9 -19 8 -13 -6z"/>
<path d="M2493 2203 c-11 -27 -34 -70 -52 -97 -32 -51 -41 -96 -18 -96 19 0
132 97 145 124 9 21 7 32 -14 71 -14 25 -29 45 -34 45 -4 0 -16 -21 -27 -47z"/>
<path d="M2870 2121 c0 -11 85 -47 130 -55 28 -5 20 1 -35 28 -72 36 -95 42
-95 27z"/>
</g>
</svg>
