<?xml version="1.0" standalone="no"?>
<!DOCTYPE svg PUBLIC "-//W3C//DTD SVG 20010904//EN"
 "http://www.w3.org/TR/2001/REC-SVG-20010904/DTD/svg10.dtd">
<svg version="1.0" xmlns="http://www.w3.org/2000/svg"
 width="480.000000pt" height="360.000000pt" viewBox="0 0 480.000000 360.000000"
 preserveAspectRatio="xMidYMid meet">
<metadata>
Created by potrace 1.16, written by Peter Selinger 2001-2019
</metadata>
<rect width="1" height="360" fill="#000000"/>
<rect x="479" width="1" height="360" fill="#000000"/>
<rect width="480" height="1" fill="#000000"/>
<rect y="359" width="480" height="1" fill="#000000"/>
<g transform="translate(0.000000,360.000000) scale(0.100000,-0.100000)"
fill="#000000" stroke="none">
<path d="M0 1800 l0 -1800 1036 0 1036 0 17 21 c19 24 61 19 61 -7 0 -16 65
-20 75 -4 4 7 12 7 25 0 26 -14 253 -13 285 2 19 9 28 9 37 0 9 -9 286 -12
1120 -12 l1108 0 0 1800 0 1800 -2400 0 -2400 0 0 -1800z m980 1634 c0 -20
-29 -30 -43 -15 -9 10 -8 16 7 26 21 16 36 11 36 -11z m1445 -159 c0 -28 -29
-25 -33 3 -3 19 0 23 15 20 10 -2 18 -12 18 -23z m-1023 -69 c11 -51 5 -55
-21 -13 -25 42 -27 60 -4 55 11 -2 20 -18 25 -42z m1232 19 c6 -17 -2 -45 -14
-45 -5 0 -11 9 -15 20 -11 33 16 57 29 25z m-688 -60 c-5 -14 -9 -15 -21 -5
-12 10 -13 16 -4 27 15 18 34 1 25 -22z m-326 -45 c0 -11 -6 -20 -14 -20 -18
0 -29 16 -21 30 11 18 35 11 35 -10z m115 -17 c6 -17 7 -17 21 1 18 25 30 13
38 -41 7 -49 -6 -63 -34 -38 -26 23 -60 82 -53 89 11 11 21 6 28 -11z m715
-13 c0 -23 -25 -27 -33 -6 -7 16 1 26 20 26 7 0 13 -9 13 -20z m68 -33 c2 -12
-3 -17 -17 -17 -12 0 -21 6 -21 13 0 31 32 34 38 4z m-348 -26 c0 -11 3 -28 7
-38 4 -11 -2 -8 -15 9 -26 31 -28 48 -7 48 8 0 15 -9 15 -19z m-605 -29 c0
-18 -20 -15 -23 4 -3 10 1 15 10 12 7 -3 13 -10 13 -16z m-125 -23 c0 -20 -15
-26 -25 -9 -9 15 3 43 15 35 5 -3 10 -15 10 -26z m547 -4 c3 -9 3 -19 -1 -22
-8 -9 -37 18 -30 28 8 14 24 11 31 -6z m-11 -103 c0 -23 -2 -42 -5 -42 -3 0
-16 15 -28 32 -21 29 -21 32 -5 44 27 21 37 11 38 -34z m774 3 c0 -8 -4 -17
-10 -20 -5 -3 -10 -14 -10 -24 0 -10 -7 -24 -15 -31 -20 -17 -32 13 -17 43 5
12 13 30 16 39 6 20 36 14 36 -7z m-145 -36 c4 -11 4 -23 1 -27 -10 -9 -39 25
-32 37 11 17 24 13 31 -10z m484 -15 c-6 -8 -15 -14 -20 -14 -14 0 -11 28 4
33 20 7 29 -4 16 -19z m-146 0 c3 -4 2 -16 -4 -26 -13 -24 -35 -9 -26 16 7 17
19 21 30 10z m127 -28 c0 -3 -4 -8 -10 -11 -5 -3 -10 -1 -10 4 0 6 5 11 10 11
6 0 10 -2 10 -4z m-1521 -45 c-3 -8 -10 -8 -23 2 -12 8 -16 19 -11 26 6 10 11
10 22 -2 9 -8 14 -20 12 -26z m-389 10 c14 -27 13 -40 -5 -37 -23 3 -38 23
-32 40 9 22 24 20 37 -3z m235 -69 c25 -22 49 -82 32 -82 -22 0 -78 66 -71 84
8 20 14 20 39 -2z m328 -39 c3 -5 8 -24 12 -43 l7 -35 -26 24 c-28 26 -35 61
-12 61 8 0 17 -3 19 -7z m1134 -71 c-9 -10 -17 -28 -17 -39 0 -11 -7 -26 -16
-34 -13 -10 -17 -10 -25 2 -13 21 -11 39 6 45 10 4 13 14 9 29 -8 30 24 51 45
30 13 -13 12 -17 -2 -33z m-1401 -67 c4 -8 3 -22 0 -30 -8 -22 -46 -1 -46 25
0 24 38 28 46 5z m1017 -2 c3 -5 0 -19 -5 -33 -7 -20 -11 -22 -18 -10 -14 23
-12 50 4 50 8 0 17 -3 19 -7z m267 -77 c0 -7 -6 -19 -14 -25 -11 -9 -15 -8
-20 5 -10 26 -7 34 14 34 11 0 20 -6 20 -14z m-1072 -59 c2 -11 -3 -17 -16
-17 -20 0 -36 23 -24 34 11 12 37 1 40 -17z m-177 -49 c4 -16 3 -31 -3 -34
-16 -10 -52 32 -44 51 9 25 39 14 47 -17z m1023 -36 c10 -16 -6 -82 -20 -82
-8 0 -14 6 -14 14 0 7 -3 28 -6 45 -6 27 -4 31 14 31 12 0 23 -4 26 -8z m779
-67 c-2 -8 -14 -17 -26 -21 l-22 -7 23 -8 c29 -11 28 -30 -4 -58 l-27 -23 5
67 c6 68 21 93 45 74 6 -6 9 -17 6 -24z m-448 14 c12 -18 -5 -79 -21 -79 -8 0
-12 5 -9 10 4 6 1 17 -5 25 -6 8 -9 23 -5 35 7 21 30 27 40 9z m575 -24 c0 -7
-7 -15 -15 -19 -15 -5 -22 24 -9 37 9 9 24 -2 24 -18z m-1544 -134 c1 -12 -2
-24 -6 -26 -13 -8 -33 24 -26 41 8 22 31 12 32 -15z m554 5 c0 -29 -19 -44
-31 -25 -16 25 -10 49 11 49 15 0 20 -7 20 -24z m686 0 c6 -16 -23 -66 -37
-66 -12 0 -11 22 1 54 10 29 28 34 36 12z m-1681 -46 c13 -25 13 -29 -1 -41
-13 -10 -19 -8 -40 12 -22 23 -23 26 -8 47 18 26 28 22 49 -18z m765 -5 c0
-15 -22 -56 -27 -51 -9 9 -14 38 -8 53 3 11 35 8 35 -2z m726 -16 c6 -11 -31
-57 -40 -48 -2 2 -2 16 1 32 5 27 26 36 39 16z m-838 -65 c-2 -15 -8 -29 -14
-31 -17 -6 -27 46 -13 63 17 20 31 3 27 -32z m1035 19 c3 -5 -3 -23 -13 -41
l-18 -32 -5 32 c-5 38 -2 48 18 48 8 0 16 -3 18 -7z m-283 -47 c0 -16 -18 -31
-27 -22 -8 8 5 36 17 36 5 0 10 -6 10 -14z m-562 -37 c2 -14 -4 -31 -12 -38
-12 -10 -18 -8 -32 13 -13 21 -14 29 -4 41 19 23 45 14 48 -16z m-170 -11 c7
-7 12 -20 12 -31 0 -30 -34 -16 -38 16 -4 29 6 35 26 15z m855 -30 c5 -16 -20
-68 -33 -68 -7 0 -8 61 -1 78 3 8 30 0 34 -10z m297 -8 c0 -11 -7 -23 -15 -26
-9 -4 -15 -11 -14 -18 3 -25 -2 -36 -15 -36 -23 0 -29 20 -12 39 9 10 16 24
16 33 0 18 9 28 27 28 7 0 13 -9 13 -20z m-690 -23 c0 -14 -20 -37 -32 -37 -4
0 -8 11 -8 25 0 18 5 25 20 25 11 0 20 -6 20 -13z m-50 -71 c0 -8 -7 -19 -15
-26 -13 -10 -15 -9 -15 12 0 14 3 28 6 31 9 9 24 -2 24 -17z m-809 -23 c5 -15
6 -30 1 -35 -12 -12 -46 28 -39 47 9 23 26 18 38 -12z m1228 13 c14 -17 7 -38
-20 -54 -26 -16 -42 -6 -33 21 13 45 33 57 53 33z m-1569 -17 c7 -11 9 -23 7
-26 -9 -9 -47 17 -47 32 0 22 28 18 40 -6z m1020 -64 c0 -34 -4 -45 -15 -45
-23 0 -38 46 -22 70 21 35 37 24 37 -25z m140 11 c0 -22 -11 -46 -21 -46 -10
0 -12 43 -2 53 11 12 23 8 23 -7z m-686 -15 c19 -21 18 -52 -1 -58 -16 -6 -47
43 -39 62 7 20 19 19 40 -4z m236 -23 c0 -22 -17 -41 -29 -34 -19 12 -13 46 9
46 11 0 20 -6 20 -12z m1300 -84 c0 -19 -33 -34 -74 -34 -41 0 -50 10 -32 36
12 16 16 16 30 4 15 -11 19 -11 33 3 17 17 43 12 43 -9z m-183 -49 c5 -15 -21
-44 -39 -45 -12 0 -9 35 4 48 16 16 27 15 35 -3z m-829 -47 c2 -13 -4 -30 -12
-37 -13 -11 -17 -9 -27 13 -9 20 -9 29 1 41 18 21 34 14 38 -17z m352 -45 c0
-24 -37 -83 -51 -83 -6 0 -9 7 -5 15 6 18 -5 20 -22 3 -18 -18 -24 -4 -12 27
8 20 15 26 29 22 13 -3 21 1 24 14 6 24 37 25 37 2z m-490 -57 c0 -18 -16 -29
-30 -21 -13 8 -1 35 16 35 8 0 14 -6 14 -14z m-110 -16 c0 -11 -7 -20 -15 -20
-8 0 -15 9 -15 20 0 11 7 20 15 20 8 0 15 -9 15 -20z m396 -11 c10 -16 -17
-59 -37 -59 -9 0 -19 -7 -23 -15 -5 -15 -37 -21 -48 -9 -14 13 6 44 28 44 13
0 24 6 24 13 0 29 42 49 56 26z m-644 -114 c6 -14 8 -28 5 -31 -10 -11 -37 17
-37 37 0 27 18 23 32 -6z m655 -36 c6 -6 9 -18 6 -26 -3 -7 2 -21 10 -31 13
-14 13 -20 2 -36 -19 -25 -37 -12 -25 19 5 14 6 25 1 25 -11 0 -31 46 -24 54
9 9 18 7 30 -5z m-287 -54 c0 -18 -5 -25 -20 -25 -20 0 -28 28 -13 43 15 16
33 6 33 -18z m138 -97 c4 -18 -52 -53 -68 -43 -17 10 -11 33 13 50 27 19 51
16 55 -7z m610 0 c2 -10 -8 -23 -26 -32 -27 -14 -31 -14 -42 -1 -10 13 -9 19
6 36 21 23 57 22 62 -3z m-1024 -4 c16 -41 -8 -61 -34 -29 -10 12 -10 18 0 30
16 19 26 19 34 -1z m311 -14 c0 -13 -6 -25 -12 -27 -16 -6 -27 21 -19 43 9 23
31 11 31 -16z m-55 -19 c0 -5 -7 -14 -16 -21 -12 -11 -18 -10 -31 3 -23 22 0
52 28 36 10 -5 19 -13 19 -18z m595 4 c0 -13 -8 -21 -21 -23 -18 -3 -21 1 -16
23 5 31 37 31 37 0z m69 -102 c5 -11 1 -22 -10 -30 -22 -16 -28 -10 -20 22 7
29 21 33 30 8z m-487 -24 c14 -14 6 -39 -12 -39 -18 0 -28 17 -21 35 6 18 18
19 33 4z m-330 -54 c3 -9 3 -19 -1 -22 -8 -9 -37 18 -30 28 8 14 24 11 31 -6z
m1180 -11 c4 -12 -44 -37 -58 -29 -5 3 -3 15 4 26 12 20 48 22 54 3z m-1049
-41 c-16 -15 -18 -15 -24 0 -3 9 -3 25 0 34 6 15 8 15 24 0 15 -16 15 -18 0
-34z m340 -15 c-2 -13 -10 -24 -19 -26 -21 -4 -34 28 -17 40 24 15 39 9 36
-14z m168 7 c7 -18 -12 -45 -32 -45 -17 0 -18 32 -2 48 16 16 27 15 34 -3z
m-156 -105 c-22 -14 -30 -12 -30 8 0 28 12 34 29 17 14 -14 14 -17 1 -25z
m-170 4 c0 -8 -2 -14 -4 -14 -2 0 -11 -3 -20 -6 -19 -7 -22 16 -4 34 13 13 28
7 28 -14z m-270 -4 c9 -16 8 -22 -5 -26 -21 -8 -39 10 -32 30 9 22 24 20 37
-4z m745 -43 c21 -16 13 -37 -15 -37 -22 0 -34 15 -26 35 7 19 17 19 41 2z
m-355 -33 c0 -8 -5 -14 -10 -14 -6 0 -10 -6 -9 -12 3 -28 -2 -38 -21 -38 -11
0 -20 4 -20 9 0 8 17 43 33 69 10 15 27 7 27 -14z m507 -10 c8 -22 -11 -37
-36 -29 -23 7 -28 30 -8 38 23 10 38 7 44 -9z m-818 -27 c6 -8 8 -17 4 -20
-11 -12 -41 -7 -46 7 -10 27 22 36 42 13z m711 -11 c0 -18 -39 -31 -52 -18
-15 15 0 32 28 32 14 0 24 -6 24 -14z m-134 -4 c6 -4 14 -21 17 -39 7 -34 -4
-43 -48 -43 -36 0 -37 23 -2 78 9 14 17 15 33 4z m22 -118 c-5 -25 -35 -41
-49 -27 -18 18 -3 43 26 43 19 0 26 -5 23 -16z m-291 -48 c-8 -20 -47 -21 -47
-1 0 18 32 37 44 25 5 -5 6 -16 3 -24z m-419 -60 c5 -24 -10 -38 -31 -30 -17
6 -23 35 -10 48 12 12 38 1 41 -18z m631 11 c13 -16 5 -27 -20 -27 -24 0 -35
20 -18 31 19 12 25 11 38 -4z m-219 -82 c0 -21 -30 -31 -41 -14 -14 23 -11 29
16 29 16 0 25 -6 25 -15z m477 -32 c-10 -11 -20 -11 -42 -3 -16 6 -24 14 -19
19 28 27 88 11 61 -16z m-119 -35 c14 -12 16 -34 2 -43 -13 -8 -70 23 -70 39
0 28 35 30 68 4z m-718 -3 c10 -12 10 -18 0 -31 -12 -13 -15 -13 -28 0 -15 15
-10 46 6 46 5 0 15 -7 22 -15z m294 -88 c13 -20 5 -30 -18 -21 -9 3 -16 15
-16 26 0 22 18 20 34 -5z m205 9 c8 -10 8 -16 -3 -25 -14 -11 -21 -6 -40 27
-10 17 28 16 43 -2z"/>
</g>
</svg>
