<?xml version="1.0" standalone="no"?>
<!DOCTYPE svg PUBLIC "-//W3C//DTD SVG 20010904//EN"
 "http://www.w3.org/TR/2001/REC-SVG-20010904/DTD/svg10.dtd">
<svg version="1.0" xmlns="http://www.w3.org/2000/svg"
 width="480.000000pt" height="360.000000pt" viewBox="0 0 480.000000 360.000000"
 preserveAspectRatio="xMidYMid meet">
<metadata>
Created by potrace 1.16, written by Peter Selinger 2001-2019
</metadata>
<rect width="1" height="360" fill="#000000"/>
<rect x="479" width="1" height="360" fill="#000000"/>
<rect width="480" height="1" fill="#000000"/>
<rect y="359" width="480" height="1" fill="#000000"/>
<g transform="translate(0.000000,360.000000) scale(0.100000,-0.100000)"
fill="#000000" stroke="none">
<path d="M0 2589 c0 -913 2 -1011 16 -1005 58 22 247 168 366 284 76 72 142
132 148 132 6 0 28 -9 49 -20 21 -10 95 -42 165 -70 70 -27 197 -86 284 -129
86 -43 182 -86 212 -96 80 -24 193 -20 321 11 103 24 109 25 160 10 93 -28 97
-26 162 73 73 112 113 152 193 193 67 34 72 43 54 98 l-8 25 -2 -25 c-2 -24
-2 -24 -11 5 -4 17 -11 48 -15 70 -7 39 -8 38 -16 -30 -9 -74 -28 -113 -28
-57 0 46 -20 130 -34 145 -7 7 -19 30 -26 51 -8 25 -15 34 -20 26 -6 -9 -13
-3 -24 19 -20 37 -29 39 -44 9 -10 -21 -11 -20 -11 15 -1 39 -9 44 -43 26 -32
-17 -30 -5 7 42 19 24 35 50 35 57 0 15 0 15 -38 1 -23 -8 -37 -7 -59 4 -15 8
-34 12 -41 10 -16 -6 -62 24 -61 40 0 6 24 30 52 52 29 23 67 65 85 95 29 48
32 60 26 95 -5 22 -8 83 -8 135 1 169 68 280 199 330 55 20 80 23 290 26 238
4 298 -3 367 -37 51 -26 103 -82 134 -145 l26 -54 20 25 c15 19 29 25 58 25
69 0 196 -103 228 -185 6 -16 21 -72 33 -123 20 -82 21 -94 7 -105 -8 -6 -25
-42 -36 -79 -20 -64 -21 -72 -7 -130 7 -35 19 -102 25 -149 11 -79 10 -92 -11
-160 -12 -41 -30 -90 -41 -109 -10 -19 -18 -39 -18 -45 0 -5 -15 -27 -34 -47
-19 -21 -36 -45 -39 -55 -4 -14 -5 -13 -6 5 -1 24 -20 29 -38 11 -8 -8 -13 4
-18 46 -8 57 -8 58 -20 29 l-12 -29 -6 50 c-4 28 -16 79 -27 113 -15 47 -20
92 -20 168 l0 104 -30 0 c-27 0 -30 -2 -20 -19 14 -27 13 -31 -11 -31 -16 0
-20 -5 -16 -20 7 -29 -9 -25 -34 9 l-22 30 -23 -34 c-26 -39 -48 -141 -40
-188 l5 -32 -11 28 c-17 40 -25 34 -34 -25 -8 -52 -8 -53 -15 -18 l-6 35 -9
-35 -8 -35 -7 30 c-4 17 -7 53 -8 80 -2 77 -11 81 -59 30 -38 -41 -62 -81 -62
-104 0 -10 64 -42 143 -72 116 -44 157 -85 273 -275 9 -16 14 -16 81 4 l71 22
84 -20 c98 -23 232 -26 299 -6 57 17 109 44 215 107 88 53 445 229 464 229 7
0 44 -31 84 -68 129 -123 186 -171 269 -226 86 -56 225 -134 290 -161 l37 -15
0 1010 0 1010 -2400 0 -2400 0 0 -1011z"/>
<path d="M2856 2531 c-36 -75 -31 -123 15 -147 17 -8 33 -13 36 -10 4 3 6 46
6 96 1 67 -3 94 -14 105 -13 14 -18 9 -43 -44z"/>
<path d="M2150 2085 c0 -41 3 -75 8 -75 4 0 19 10 35 23 26 21 27 24 16 62
-13 46 -26 65 -45 65 -11 0 -14 -18 -14 -75z"/>
<path d="M4040 1905 c-30 -19 -70 -39 -87 -45 -34 -12 -40 -30 -34 -98 1 -13
-7 -52 -19 -87 l-21 -64 -180 -133 c-212 -157 -235 -167 -194 -88 9 17 13 30
10 30 -3 0 -85 -57 -181 -126 -96 -69 -179 -124 -185 -122 -6 2 36 96 92 209
82 165 108 210 133 225 l31 19 -73 3 c-78 3 -130 -13 -123 -39 11 -37 12 -89
2 -127 -10 -36 -28 -55 -142 -148 -116 -96 -129 -110 -125 -133 3 -14 12 -68
21 -118 9 -51 24 -113 35 -137 10 -25 26 -67 35 -93 26 -76 141 -544 171 -695
l27 -138 783 0 784 0 0 475 0 476 -34 -6 c-26 -5 -35 -3 -40 10 -8 21 4 42 43
79 29 28 31 35 31 98 0 37 -2 68 -4 68 -3 0 -49 -21 -103 -46 -265 -124 -303
-137 -303 -101 0 7 62 87 138 177 138 165 138 165 202 186 95 31 92 45 -23 99
-52 25 -100 45 -106 45 -21 0 -41 -28 -41 -57 0 -15 -13 -52 -29 -82 -31 -60
-14 -48 -299 -205 -115 -63 -159 -76 -150 -43 2 7 57 90 123 184 118 169 121
172 180 197 33 15 70 26 83 26 31 0 27 17 -8 35 -17 9 -69 45 -116 81 -84 64
-111 72 -100 30 3 -12 -6 -50 -20 -87 l-26 -67 -137 -93 c-75 -51 -156 -108
-180 -126 -43 -33 -81 -43 -81 -22 0 12 172 328 203 372 18 27 122 87 151 87
7 0 21 11 29 24 15 22 14 25 -30 75 -24 28 -48 51 -51 50 -4 0 -32 -16 -62
-34z"/>
<path d="M487 1825 c-48 -55 -48 -55 -30 -79 10 -13 29 -27 43 -30 14 -3 50
-25 80 -49 50 -40 58 -51 84 -128 16 -46 51 -144 78 -218 27 -74 47 -142 46
-150 -4 -18 -21 -3 -244 206 l-141 133 -10 63 c-6 35 -9 75 -6 90 3 15 2 27
-1 27 -4 0 -46 -32 -94 -71 -48 -39 -104 -80 -124 -92 -39 -21 -51 -47 -21
-47 9 0 45 -19 79 -42 l63 -42 45 -126 c25 -69 59 -163 76 -209 30 -84 37
-121 22 -121 -7 0 -295 250 -350 304 -27 27 -56 150 -41 177 9 17 -6 39 -28
39 -10 0 -13 -49 -13 -238 l0 -239 34 -98 c19 -55 32 -103 29 -108 -2 -4 -16
-1 -29 7 -13 9 -26 16 -29 16 -3 0 -5 -180 -5 -400 l0 -400 868 0 869 0 36
108 c20 59 52 166 72 237 20 72 59 182 87 245 39 86 52 129 54 170 1 30 5 102
9 160 4 58 3 123 -2 145 l-9 40 -18 -55 c-24 -75 -60 -135 -99 -163 -46 -35
-308 -170 -399 -206 -81 -33 -126 -37 -205 -21 -26 5 -86 17 -133 25 -47 9
-96 24 -109 34 -31 22 -82 122 -118 228 -35 107 -28 126 51 144 31 7 59 9 62
6 4 -4 -1 -18 -11 -33 l-17 -27 26 5 c35 7 43 -9 17 -36 -26 -28 -28 -66 -3
-66 10 0 25 9 35 20 39 46 191 2 275 -80 l42 -42 146 97 c97 64 144 101 140
110 -2 7 -48 91 -101 186 l-97 173 7 60 c3 33 13 73 22 89 10 19 11 33 5 39
-12 12 -196 7 -208 -5 -5 -4 11 -25 33 -45 41 -36 44 -43 107 -258 37 -121 66
-226 66 -232 0 -22 -23 -12 -57 25 -19 20 -95 100 -167 178 l-133 142 -10 64
c-7 41 -7 71 -1 85 6 12 6 34 1 54 -7 28 -23 42 -97 87 -97 58 -130 68 -79 25
27 -23 43 -59 108 -241 72 -205 84 -251 67 -251 -4 0 -88 78 -186 173 l-178
172 -13 65 c-9 42 -10 70 -4 82 6 11 6 25 1 36 -5 9 -7 23 -5 29 3 7 -4 16
-14 19 -10 4 -56 24 -102 45 -46 22 -87 39 -90 39 -3 0 -28 -25 -54 -55z"/>
<path d="M3621 1707 c-47 -35 -73 -89 -60 -125 5 -13 3 -38 -6 -62 -8 -22 -12
-40 -10 -40 3 0 34 59 70 130 36 72 62 130 58 130 -5 0 -28 -15 -52 -33z"/>
<path d="M2983 1613 c-26 -3 -43 -9 -43 -17 0 -7 -11 -18 -25 -24 -29 -13 -31
-24 -10 -42 8 -7 15 -18 15 -25 0 -6 9 -20 21 -31 19 -17 19 -19 3 -31 -19
-14 -34 -89 -24 -119 5 -13 15 7 34 71 43 146 49 158 95 192 l43 33 -34 -2
c-18 -1 -52 -3 -75 -5z"/>
<path d="M1650 1548 c57 -60 56 -57 66 -163 l7 -80 20 85 c21 91 22 101 19
168 l-2 42 -80 0 -80 0 50 -52z"/>
<path d="M2765 898 c5 -40 9 -100 10 -133 1 -49 9 -75 42 -140 51 -101 83
-190 132 -369 37 -131 83 -256 95 -256 3 0 0 12 -6 28 -7 15 -15 77 -18 137
-5 108 -7 114 -74 275 -94 228 -131 332 -156 439 -12 50 -24 91 -27 91 -3 0
-2 -33 2 -72z"/>
<path d="M1080 910 c-9 -6 -4 -13 18 -24 29 -15 67 -13 57 4 -9 14 -62 28 -75
20z"/>
</g>
</svg>
