<?xml version="1.0" standalone="no"?>
<!DOCTYPE svg PUBLIC "-//W3C//DTD SVG 20010904//EN"
 "http://www.w3.org/TR/2001/REC-SVG-20010904/DTD/svg10.dtd">
<svg version="1.0" xmlns="http://www.w3.org/2000/svg"
 width="480.000000pt" height="360.000000pt" viewBox="0 0 480.000000 360.000000"
 preserveAspectRatio="xMidYMid meet">
<metadata>
Created by potrace 1.16, written by Peter Selinger 2001-2019
</metadata>
<rect width="1" height="360" fill="#000000"/>
<rect x="479" width="1" height="360" fill="#000000"/>
<rect width="480" height="1" fill="#000000"/>
<rect y="359" width="480" height="1" fill="#000000"/>
<g transform="translate(0.000000,360.000000) scale(0.100000,-0.100000)"
fill="#000000" stroke="none">
<path d="M0 2893 l0 -708 25 40 c13 22 25 49 25 61 0 12 16 42 35 67 19 25 33
52 30 59 -3 7 14 35 37 62 24 27 43 56 43 65 0 8 29 39 65 67 51 42 75 54 113
59 29 4 53 3 59 -3 6 -6 17 -8 24 -5 8 3 14 -1 14 -11 0 -13 45 -87 121 -198
11 -15 19 -30 19 -32 0 -3 22 -38 48 -78 51 -76 107 -164 182 -283 24 -38 72
-114 107 -167 l64 -98 80 0 c64 0 88 4 118 22 46 26 64 20 90 -29 17 -34 35
-46 163 -110 158 -79 195 -95 378 -160 69 -24 150 -56 182 -70 l56 -25 21 21
c19 19 19 21 3 31 -20 13 92 5 167 -11 43 -9 146 -3 185 11 15 5 20 18 22 48
2 37 -1 41 -29 52 -85 31 -81 29 -62 50 10 11 65 43 122 72 l105 51 -7 146
c-8 170 6 148 -153 232 -95 49 -107 59 -113 87 -8 38 -54 112 -71 112 -6 0 -4
8 6 19 21 23 34 91 17 91 -16 0 -13 58 8 117 10 29 13 49 7 45 -6 -3 -26 -16
-45 -29 -19 -13 -47 -23 -62 -23 -25 0 -29 4 -29 28 0 31 43 105 81 138 40 36
100 69 177 98 104 40 105 42 77 123 -13 38 -26 92 -30 121 -4 28 -12 52 -17
52 -6 0 -17 8 -23 17 -12 17 -17 17 -77 1 -130 -35 -161 -34 -236 2 -122 60
-216 184 -268 353 -10 31 -24 57 -31 57 -7 0 -13 -6 -13 -14 0 -16 -37 -46
-55 -46 -6 0 -25 29 -43 65 l-32 65 -840 0 -840 0 0 -707z"/>
<path d="M1930 3575 c29 -31 98 -58 136 -53 27 3 25 5 -34 41 -37 21 -76 37
-94 37 l-31 0 23 -25z"/>
<path d="M2135 3439 c-59 -22 -85 -23 -136 -7 -22 6 -42 8 -45 5 -13 -13 50
-121 106 -181 56 -60 146 -116 186 -116 23 0 137 31 147 40 21 18 -137 241
-191 269 -11 5 -35 2 -67 -10z"/>
<path d="M2513 3045 c12 -85 87 -233 87 -172 0 9 23 40 51 71 l50 55 -39 20
c-22 11 -66 32 -97 46 l-58 25 6 -45z"/>
<path d="M2444 2761 c-40 -15 -87 -37 -106 -49 -36 -23 -84 -69 -77 -76 2 -2
33 13 69 35 36 21 94 51 130 66 36 14 72 32 80 40 25 22 -17 16 -96 -16z"/>
<path d="M2469 2694 l-74 -36 43 -14 c40 -14 44 -14 71 5 23 17 47 68 37 78
-1 2 -36 -13 -77 -33z"/>
<path d="M3680 2325 c0 -18 48 -221 60 -250 7 -19 13 -20 125 -13 64 3 123 9
131 12 18 7 12 13 -91 102 -127 108 -225 173 -225 149z"/>
<path d="M3868 2021 c-58 -3 -109 -9 -112 -12 -3 -3 1 -55 9 -115 9 -60 23
-181 31 -269 8 -88 26 -216 39 -285 14 -69 45 -244 69 -390 50 -292 73 -376
197 -722 l82 -228 309 0 308 0 0 733 0 733 -132 0 c-153 -1 -202 12 -305 82
-80 54 -167 162 -144 177 6 3 4 20 -5 40 -8 19 -21 65 -30 101 -12 52 -22 71
-51 97 -68 61 -97 67 -265 58z"/>
<path d="M4210 1926 c0 -28 34 -124 62 -178 42 -80 118 -152 202 -194 82 -40
143 -49 250 -39 l76 7 0 68 c0 67 -1 69 -37 97 -137 106 -291 181 -480 232
-55 15 -73 17 -73 7z"/>
<path d="M1235 1385 c-33 -25 -66 -43 -74 -40 -8 3 -22 -2 -33 -12 -18 -16
-112 -35 -135 -26 -6 2 -14 20 -17 38 -4 19 -12 37 -17 41 -11 6 -76 -61 -245
-252 -193 -219 -405 -454 -410 -454 -10 0 -144 112 -144 121 0 4 5 11 11 15 7
4 -7 24 -35 53 -32 32 -45 53 -41 64 4 10 -7 33 -29 63 -24 31 -34 54 -31 68
3 12 -3 31 -15 46 l-20 25 0 -567 0 -568 1223 0 1223 0 12 48 c6 26 14 70 18
97 4 28 20 97 36 155 16 59 31 144 35 195 l6 91 -44 17 -44 18 -25 -29 c-14
-16 -58 -75 -98 -130 -86 -119 -167 -211 -198 -222 -29 -11 -89 5 -116 32 -43
43 -4 138 130 317 41 54 67 79 99 93 48 21 48 21 31 49 -11 17 -10 22 7 35 11
8 20 22 20 32 0 9 11 22 25 29 14 7 24 18 22 24 -2 7 7 22 19 35 13 14 19 29
15 40 -4 9 0 24 8 33 8 9 28 42 45 73 l30 57 -37 11 c-57 15 -88 12 -207 -20
-128 -34 -131 -35 -115 -15 11 13 8 15 -19 15 -17 0 -31 4 -31 9 0 4 -33 11
-72 15 -83 7 -139 31 -316 133 -94 53 -372 193 -384 193 -2 0 -30 -20 -63 -45z"/>
</g>
</svg>
