<?xml version="1.0" standalone="no"?>
<!DOCTYPE svg PUBLIC "-//W3C//DTD SVG 20010904//EN"
 "http://www.w3.org/TR/2001/REC-SVG-20010904/DTD/svg10.dtd">
<svg version="1.0" xmlns="http://www.w3.org/2000/svg"
 width="480.000000pt" height="360.000000pt" viewBox="0 0 480.000000 360.000000"
 preserveAspectRatio="xMidYMid meet">
<metadata>
Created by potrace 1.16, written by Peter Selinger 2001-2019
</metadata>
<rect width="1" height="360" fill="#000000"/>
<rect x="479" width="1" height="360" fill="#000000"/>
<rect width="480" height="1" fill="#000000"/>
<rect y="359" width="480" height="1" fill="#000000"/>
<g transform="translate(0.000000,360.000000) scale(0.100000,-0.100000)"
fill="#000000" stroke="none">
<path d="M0 1800 l0 -1800 234 0 c215 0 235 1 240 18 8 27 26 182 26 228 0 39
-1 40 -30 36 -25 -3 -30 0 -36 22 -7 29 -5 43 21 126 9 30 18 82 21 116 3 51
1 64 -16 79 -11 10 -20 26 -20 35 0 9 -5 21 -12 28 -9 9 -6 12 15 12 25 0 27
3 27 39 0 23 8 48 20 63 10 14 28 66 39 116 11 50 25 100 31 111 8 16 6 22
-10 31 -24 13 -25 40 -5 106 16 52 58 97 149 156 l49 32 -59 27 c-32 15 -66
28 -75 28 -9 1 -42 -26 -73 -59 -59 -62 -73 -71 -62 -45 6 16 44 206 66 332
10 56 10 75 1 87 -9 11 -9 15 0 18 14 5 24 80 35 247 5 85 4 112 -5 107 -13
-9 -14 -1 -2 42 8 25 7 32 -5 32 -7 0 -19 -9 -26 -20 -19 -29 -38 -25 -145 32
-54 28 -116 60 -138 71 -52 25 -50 22 -35 57 11 26 10 37 -9 79 -11 28 -21 60
-21 72 0 20 3 21 51 16 47 -6 55 -4 90 24 20 16 68 42 105 57 l69 27 -3 80
c-3 91 25 244 60 328 29 70 99 168 145 205 74 57 171 94 288 107 33 4 66 12
74 18 7 6 44 52 81 102 37 49 82 104 99 120 l33 30 25 -30 c32 -40 71 -99 99
-155 13 -25 27 -50 32 -57 4 -7 41 -19 81 -28 96 -20 193 -59 262 -106 78 -53
179 -166 223 -248 68 -131 94 -295 60 -381 -21 -53 -9 -84 64 -164 l54 -58
-36 -37 c-20 -20 -36 -43 -36 -49 0 -13 31 -116 97 -317 19 -60 63 -179 96
-263 49 -124 66 -156 89 -170 15 -9 34 -30 43 -48 14 -31 20 -64 11 -64 -3 0
-29 25 -60 55 -30 30 -59 55 -64 55 -5 0 -40 -20 -78 -45 -88 -58 -105 -62
-148 -36 -26 16 -44 20 -73 16 -23 -4 -55 0 -82 9 -46 17 -91 21 -91 9 0 -5
32 -18 71 -30 70 -23 207 -96 265 -141 30 -23 30 -25 21 -76 -9 -47 -7 -56 21
-112 16 -33 44 -106 60 -163 17 -56 32 -104 34 -107 3 -2 19 1 37 7 55 19 64
7 36 -53 -33 -73 -41 -138 -22 -174 20 -37 83 -98 122 -115 38 -18 38 -30 -2
-49 -21 -9 -36 -26 -43 -46 -12 -35 -3 -65 81 -274 l52 -130 1109 0 1108 0 0
1800 0 1800 -2400 0 -2400 0 0 -1800z m750 1740 c0 -5 -4 -10 -9 -10 -6 0 -13
5 -16 10 -3 6 1 10 9 10 9 0 16 -4 16 -10z m3474 -32 c36 -50 7 -90 -36 -51
-21 19 -23 44 -6 61 17 17 25 15 42 -10z m-665 -681 c13 -16 5 -27 -19 -27
-20 0 -43 24 -33 33 11 12 40 8 52 -6z m1051 -351 c0 -13 -51 -46 -72 -46 -5
0 -2 14 7 30 11 21 23 30 40 30 15 0 25 -6 25 -14z m-2271 -90 c14 -15 10 -16
-46 -16 -62 0 -88 14 -62 32 20 13 89 3 108 -16z m221 -376 c0 -5 -4 -10 -10
-10 -5 0 -10 5 -10 10 0 6 5 10 10 10 6 0 10 -4 10 -10z m128 -687 c-4 -20
-35 -30 -50 -15 -15 15 0 32 28 32 19 0 25 -5 22 -17z"/>
</g>
</svg>
