<?xml version="1.0" standalone="no"?>
<!DOCTYPE svg PUBLIC "-//W3C//DTD SVG 20010904//EN"
 "http://www.w3.org/TR/2001/REC-SVG-20010904/DTD/svg10.dtd">
<svg version="1.0" xmlns="http://www.w3.org/2000/svg"
 width="480.000000pt" height="360.000000pt" viewBox="0 0 480.000000 360.000000"
 preserveAspectRatio="xMidYMid meet">
<metadata>
Created by potrace 1.16, written by Peter Selinger 2001-2019
</metadata>
<rect width="1" height="360" fill="#000000"/>
<rect x="479" width="1" height="360" fill="#000000"/>
<rect width="480" height="1" fill="#000000"/>
<rect y="359" width="480" height="1" fill="#000000"/>
<g transform="translate(0.000000,360.000000) scale(0.100000,-0.100000)"
fill="#000000" stroke="none">
<path d="M2122 3587 c-29 -35 -106 -198 -114 -242 -17 -86 -16 -89 24 -108 30
-15 39 -25 44 -55 3 -20 9 -51 14 -68 18 -74 -20 -129 -98 -139 -26 -4 -63
-11 -82 -16 -19 -5 -56 -9 -83 -9 -43 0 -49 -3 -58 -27 -6 -16 -13 -71 -15
-123 -3 -87 -1 -99 24 -149 27 -53 38 -64 75 -75 10 -3 29 -29 42 -58 24 -54
69 -246 78 -328 l4 -45 -81 0 c-63 0 -89 -4 -115 -20 -56 -33 -71 -61 -78
-151 l-6 -82 55 -113 c30 -63 65 -143 79 -178 27 -72 76 -127 123 -139 l31 -8
-3 -123 c-3 -108 -1 -127 17 -162 12 -22 21 -59 21 -83 0 -79 30 -257 50 -295
17 -35 87 -101 105 -101 4 0 5 13 3 30 -3 16 -1 30 4 30 5 0 6 10 3 23 -12 47
-11 107 2 107 18 0 16 19 -2 26 -20 8 -37 70 -33 119 3 39 4 40 51 47 56 8 73
19 95 67 10 20 26 37 37 39 45 7 48 11 33 35 -8 12 -15 36 -16 54 0 17 -5 41
-11 52 -6 11 -11 27 -11 35 0 8 -11 32 -25 52 -14 20 -25 45 -25 54 0 10 -10
30 -22 45 l-21 27 43 85 c48 93 48 92 35 274 l-8 115 35 80 c20 43 55 140 78
214 63 200 71 221 95 232 27 12 60 79 89 178 21 75 20 134 -4 195 -60 156
-100 181 -263 170 l-68 -5 -14 34 c-8 18 -19 64 -25 102 -7 38 -16 89 -20 113
-7 38 -4 53 26 119 34 75 39 98 28 140 -6 20 -12 22 -69 22 -39 0 -67 -5 -73
-13z"/>
</g>
</svg>
