<?xml version="1.0" standalone="no"?>
<!DOCTYPE svg PUBLIC "-//W3C//DTD SVG 20010904//EN"
 "http://www.w3.org/TR/2001/REC-SVG-20010904/DTD/svg10.dtd">
<svg version="1.0" xmlns="http://www.w3.org/2000/svg"
 width="480.000000pt" height="360.000000pt" viewBox="0 0 480.000000 360.000000"
 preserveAspectRatio="xMidYMid meet">
<metadata>
Created by potrace 1.16, written by Peter Selinger 2001-2019
</metadata>
<rect width="1" height="360" fill="#000000"/>
<rect x="479" width="1" height="360" fill="#000000"/>
<rect width="480" height="1" fill="#000000"/>
<rect y="359" width="480" height="1" fill="#000000"/>
<g transform="translate(0.000000,360.000000) scale(0.100000,-0.100000)"
fill="#000000" stroke="none">
<path d="M0 2890 c0 -621 2 -710 15 -710 41 0 247 80 373 146 79 41 150 74
158 74 8 0 53 -26 102 -58 48 -32 113 -74 145 -93 32 -18 109 -71 170 -117
144 -107 214 -146 310 -172 86 -24 218 -30 342 -16 l71 8 39 -48 c47 -60 102
-114 114 -114 5 0 24 17 43 39 41 47 92 80 183 116 39 15 87 36 108 46 33 17
36 23 30 47 -13 50 -9 67 15 70 29 4 29 40 0 51 -25 10 -48 -3 -48 -25 0 -8
-4 -14 -9 -14 -5 0 -12 26 -16 57 l-7 58 -13 -30 c-9 -20 -14 -24 -14 -12 -1
10 -6 15 -11 12 -6 -4 -8 -10 -6 -14 3 -4 -1 -32 -9 -62 l-13 -54 -1 48 c-1
50 -7 57 -25 32 -9 -12 -11 -5 -9 32 1 26 -1 38 -3 26 -4 -14 -10 -20 -20 -16
-10 4 -17 -2 -21 -16 -10 -38 -23 -22 -24 32 -1 28 -5 66 -9 82 l-7 30 -8 -29
-8 -29 -13 24 c-8 13 -19 42 -25 64 l-11 40 -25 -30 -24 -30 2 60 c2 47 -1 59
-12 57 -43 -11 -79 -14 -79 -6 0 5 18 26 40 48 37 36 45 64 15 52 -18 -6 -165
121 -165 143 0 9 14 30 31 47 17 16 35 39 40 52 6 14 17 22 33 22 42 0 115
109 95 141 -15 23 -10 130 10 204 47 183 136 290 280 335 75 24 138 25 252 6
46 -8 129 -17 184 -20 55 -4 123 -12 150 -18 77 -16 174 -66 222 -114 43 -44
113 -171 113 -206 0 -24 9 -23 40 7 62 60 147 36 255 -71 68 -67 99 -130 110
-226 4 -29 13 -77 21 -107 14 -49 14 -55 -2 -72 -10 -11 -43 -27 -73 -35 -31
-9 -57 -17 -59 -19 -1 -1 7 -23 19 -49 35 -79 67 -200 84 -317 14 -92 14 -123
5 -181 -7 -38 -10 -71 -8 -74 7 -6 87 20 148 50 30 14 111 69 180 122 103 78
337 242 434 303 21 13 34 9 177 -61 134 -66 274 -121 361 -142 14 -3 33 -9 42
-12 15 -6 16 56 16 670 l0 676 -2400 0 -2400 0 0 -710z"/>
<path d="M3012 2558 c-24 -60 -41 -115 -38 -123 6 -17 63 -48 70 -37 17 28 33
257 19 265 -5 3 -28 -45 -51 -105z"/>
<path d="M2980 2359 c0 -18 -2 -19 -15 -9 -12 10 -15 9 -15 -6 0 -11 4 -36 9
-56 11 -46 0 -48 -32 -7 l-24 31 -16 -41 c-19 -47 -24 -50 -35 -20 -7 19 -10
16 -26 -24 -12 -32 -22 -44 -32 -40 -10 4 -14 -3 -14 -23 0 -26 -1 -26 -14 -9
-12 16 -15 11 -34 -56 l-20 -74 -2 50 c-2 41 -4 45 -10 25 -4 -14 -8 -41 -9
-59 -2 -70 -20 -15 -23 69 -3 79 -4 83 -16 56 -7 -16 -24 -40 -37 -52 l-25
-23 0 28 c0 15 -3 30 -6 34 -9 8 -61 -12 -76 -31 -11 -14 -10 -15 6 -9 28 11
47 -9 35 -39 -23 -62 -26 -60 176 -147 29 -13 76 -48 113 -84 74 -75 77 -75
154 32 58 79 85 104 111 105 22 0 22 5 -9 81 -41 98 -54 157 -54 242 l0 77
-30 0 c-24 0 -30 -4 -30 -21z"/>
<path d="M4178 2272 c-42 -31 -77 -62 -77 -68 -1 -6 11 -21 25 -35 14 -13 42
-51 62 -84 l37 -60 -2 -120 c-3 -141 -21 -422 -29 -448 -10 -33 -25 -13 -73
98 -27 61 -57 130 -69 155 -11 25 -32 74 -47 110 -15 36 -36 85 -48 110 -19
43 -20 48 -5 135 8 50 14 92 12 94 -10 12 -217 -157 -228 -186 -3 -8 4 -24 17
-37 37 -37 97 -161 97 -200 0 -46 -49 -482 -59 -521 -12 -51 -33 -35 -62 50
-15 44 -48 139 -74 210 -100 279 -98 272 -82 313 8 20 17 54 21 75 l7 37 -53
0 c-74 -1 -140 -15 -152 -33 -6 -8 -16 -24 -23 -34 -10 -15 -11 -13 -7 17 5
33 5 34 -10 16 -23 -29 -20 -45 26 -136 l42 -83 -33 -276 c-18 -152 -38 -285
-43 -295 -10 -18 -11 -18 -21 -1 -5 10 -52 140 -104 289 l-94 271 17 70 c9 39
23 81 31 93 8 13 12 26 10 29 -9 9 -44 -7 -73 -33 -16 -13 -48 -39 -71 -57
-23 -18 -43 -34 -43 -37 0 -3 27 -34 60 -70 32 -35 57 -67 54 -71 -3 -5 0 -18
6 -29 14 -26 -1 -47 -47 -67 l-32 -13 21 -36 c12 -20 36 -46 54 -57 41 -27 42
-35 7 -43 -62 -13 -65 -15 -59 -37 3 -12 25 -89 50 -172 24 -82 49 -192 56
-242 7 -51 18 -97 24 -101 6 -5 43 -21 81 -37 39 -16 124 -55 190 -88 159 -78
263 -119 279 -110 8 5 26 23 41 41 15 18 47 46 70 62 24 16 59 52 79 79 50 67
136 102 166 66 19 -23 4 -62 -29 -73 -22 -8 -30 -18 -36 -48 -6 -33 -3 -41 16
-57 20 -16 35 -18 119 -12 168 10 172 11 221 60 24 24 54 56 67 70 33 38 53
19 52 -49 -1 -28 2 -71 6 -94 6 -40 3 -47 -25 -76 -26 -27 -30 -37 -25 -64 10
-52 -52 -132 -104 -132 -11 0 -24 -13 -33 -32 -22 -48 -37 -53 -116 -39 -60
12 -79 11 -139 -2 -38 -9 -121 -19 -184 -23 -129 -7 -178 3 -340 71 -47 20
-134 57 -195 82 -164 68 -266 118 -307 153 -43 35 -90 128 -135 260 l-28 85
-7 -70 c-4 -45 -1 -119 9 -204 12 -100 13 -136 5 -139 -19 -6 -15 -18 42 -146
62 -139 94 -217 108 -264 l9 -32 874 0 875 0 0 885 0 885 -36 72 c-34 67 -36
76 -29 132 3 34 13 71 21 84 9 13 13 29 11 36 -3 7 -36 21 -74 31 -37 10 -72
22 -77 26 -14 13 -46 11 -46 -3 0 -6 10 -23 23 -36 22 -24 22 -27 21 -301 -1
-390 3 -388 -142 -91 -148 306 -145 295 -128 375 7 36 20 75 28 87 8 14 12 36
8 58 -4 28 -13 39 -45 56 -70 38 -74 37 -157 -24z"/>
<path d="M2232 2271 c22 -36 118 -72 187 -70 l46 1 -45 8 c-60 11 -155 47
-170 65 -18 22 -32 18 -18 -4z"/>
<path d="M479 2242 c-68 -36 -79 -46 -77 -72 1 -14 -1 -30 -5 -36 -4 -6 2 -19
12 -29 13 -10 24 -42 31 -86 10 -58 9 -76 -3 -107 -36 -88 -227 -472 -236
-472 -5 0 -12 10 -15 23 -9 32 -28 477 -22 510 3 16 20 48 38 73 33 46 33 63
1 45 -23 -13 -109 -41 -126 -41 -7 0 -22 -6 -32 -14 -17 -13 -18 -15 -3 -38 8
-13 19 -51 23 -85 6 -58 4 -67 -29 -137 l-36 -74 0 -851 0 -851 873 0 873 0
24 68 c26 75 107 261 120 277 5 6 12 71 15 144 3 74 8 138 11 143 8 13 -7 301
-16 291 -4 -4 -12 -28 -19 -53 -7 -25 -21 -54 -30 -65 -10 -11 -30 -56 -45
-100 -66 -190 -106 -224 -471 -387 -60 -28 -141 -64 -180 -81 -64 -29 -78 -32
-165 -31 -59 1 -144 12 -224 28 -115 24 -134 25 -189 15 l-60 -12 -31 36 c-21
25 -39 37 -57 37 -14 0 -32 6 -41 12 -28 22 -68 90 -68 114 0 13 -14 39 -31
58 -30 34 -30 38 -24 103 9 99 13 113 34 113 19 0 51 -29 51 -48 0 -6 19 -28
41 -50 l42 -39 140 -6 c156 -7 177 -1 177 52 0 20 -9 31 -38 46 -45 24 -56 67
-23 85 38 20 91 -4 162 -72 100 -97 186 -168 204 -168 9 0 121 53 248 119 128
65 237 120 244 122 7 2 17 38 23 79 15 97 53 250 90 358 15 48 27 89 24 93 -2
4 -19 11 -37 14 -50 11 -51 15 -10 50 21 18 46 46 56 63 l17 30 -37 19 c-60
29 -56 55 22 147 37 42 65 79 63 81 -1 1 -37 28 -78 59 -77 58 -100 67 -100
41 0 -8 4 -15 9 -15 5 0 18 -38 30 -85 l21 -84 -92 -273 c-50 -150 -96 -279
-101 -286 -19 -24 -27 11 -58 241 -47 359 -47 322 -5 406 21 40 49 84 63 97
16 15 23 28 17 33 -13 12 -113 29 -213 37 -80 7 -84 6 -79 -12 3 -10 14 -49
23 -85 l18 -65 -92 -275 c-51 -151 -96 -278 -101 -283 -15 -15 -28 28 -45 159
-9 72 -25 185 -35 253 -11 76 -15 136 -10 157 11 50 71 165 92 176 31 17 20
43 -44 99 -76 67 -121 98 -155 106 -23 6 -25 5 -19 -12 18 -47 36 -148 30
-167 -4 -12 -40 -101 -81 -197 -152 -357 -143 -340 -158 -302 -11 26 -45 512
-38 542 8 37 53 109 91 146 32 32 41 54 23 54 -6 0 -39 22 -74 49 -35 26 -69
51 -74 54 -6 4 -25 -2 -44 -11z"/>
<path d="M3131 2084 c0 -11 3 -14 6 -6 3 7 2 16 -1 19 -3 4 -6 -2 -5 -13z"/>
<path d="M3141 2034 c0 -11 3 -14 6 -6 3 7 2 16 -1 19 -3 4 -6 -2 -5 -13z"/>
</g>
</svg>
