<?xml version="1.0" standalone="no"?>
<!DOCTYPE svg PUBLIC "-//W3C//DTD SVG 20010904//EN"
 "http://www.w3.org/TR/2001/REC-SVG-20010904/DTD/svg10.dtd">
<svg version="1.0" xmlns="http://www.w3.org/2000/svg"
 width="480.000000pt" height="360.000000pt" viewBox="0 0 480.000000 360.000000"
 preserveAspectRatio="xMidYMid meet">
<metadata>
Created by potrace 1.16, written by Peter Selinger 2001-2019
</metadata>
<rect width="1" height="360" fill="#000000"/>
<rect x="479" width="1" height="360" fill="#000000"/>
<rect width="480" height="1" fill="#000000"/>
<rect y="359" width="480" height="1" fill="#000000"/>
<g transform="translate(0.000000,360.000000) scale(0.100000,-0.100000)"
fill="#000000" stroke="none">
<path d="M0 1800 l0 -1800 773 0 c755 0 771 0 742 19 -49 30 -134 127 -157
178 -128 289 318 569 937 590 396 13 749 -61 955 -201 243 -165 265 -365 57
-538 l-58 -48 775 0 776 0 0 1800 0 1800 -2400 0 -2400 0 0 -1800z"/>
<path d="M2275 618 c-205 -22 -376 -102 -425 -199 -78 -152 92 -294 405 -339
287 -41 614 57 685 206 21 43 22 51 11 93 -43 164 -352 273 -676 239z m203
-191 c49 -32 54 -57 17 -91 -55 -51 -164 -58 -252 -15 -71 34 -67 80 9 118 63
32 169 27 226 -12z"/>
</g>
</svg>
