<?xml version="1.0" standalone="no"?>
<!DOCTYPE svg PUBLIC "-//W3C//DTD SVG 20010904//EN"
 "http://www.w3.org/TR/2001/REC-SVG-20010904/DTD/svg10.dtd">
<svg version="1.0" xmlns="http://www.w3.org/2000/svg"
 width="480.000000pt" height="360.000000pt" viewBox="0 0 480.000000 360.000000"
 preserveAspectRatio="xMidYMid meet">
<metadata>
Created by potrace 1.16, written by Peter Selinger 2001-2019
</metadata>
<rect width="1" height="360" fill="#000000"/>
<rect x="479" width="1" height="360" fill="#000000"/>
<rect width="480" height="1" fill="#000000"/>
<rect y="359" width="480" height="1" fill="#000000"/>
<g transform="translate(0.000000,360.000000) scale(0.100000,-0.100000)"
fill="#000000" stroke="none">
<path d="M1604 3413 c0 -272 -25 -385 -135 -608 -53 -108 -137 -227 -222 -314
-77 -80 -232 -200 -297 -232 -32 -15 -61 -33 -65 -38 -3 -6 -38 -20 -78 -32
-40 -12 -76 -25 -82 -29 -23 -18 -192 -52 -302 -61 -138 -11 -314 0 -406 27
-16 5 -17 -50 -17 -1060 l0 -1066 1590 0 1590 0 0 32 c0 17 9 64 19 102 11 39
25 111 31 161 8 59 34 155 76 280 58 174 107 345 100 352 -1 1 -19 5 -40 8
-63 7 -72 14 -85 53 -11 32 -10 43 8 85 11 26 34 68 51 91 16 24 59 105 96
180 l66 137 -13 72 c-8 40 -14 78 -14 86 0 8 -20 26 -43 40 -48 28 -71 62 -71
101 -1 33 32 103 68 149 19 24 33 59 41 99 11 55 18 68 58 103 42 37 44 40 27
53 -18 13 -18 14 4 26 33 17 12 32 -26 18 -29 -11 -34 -9 -81 30 -27 23 -55
42 -61 42 -14 0 -14 23 -1 36 8 8 7 14 -2 21 -21 17 -58 26 -58 13 0 -6 -16 2
-35 17 -19 15 -35 33 -35 40 0 7 -6 10 -13 7 -11 -4 -12 8 -5 62 4 37 10 74
13 83 3 11 -17 38 -60 81 -71 70 -83 104 -41 119 13 5 125 12 250 16 224 6
226 6 278 -18 96 -44 149 -104 201 -225 15 -35 45 -85 66 -110 70 -85 95 -155
111 -315 7 -76 16 -108 50 -182 48 -103 74 -223 65 -301 -6 -48 -4 -54 33
-100 82 -104 110 -168 147 -334 9 -41 19 -85 22 -97 4 -17 1 -23 -12 -23 -13
0 -16 -6 -11 -25 9 -36 -8 -31 -40 10 -15 20 -33 34 -40 31 -7 -3 -15 0 -17 7
-2 7 -8 8 -13 4 -4 -4 -3 -17 4 -27 7 -11 12 -22 12 -25 0 -8 -34 7 -54 24
-11 9 -16 11 -13 4 5 -8 -3 -7 -21 3 -16 8 -40 34 -53 58 -13 25 -26 43 -30
40 -4 -2 7 -50 23 -106 27 -92 30 -113 25 -198 -5 -88 -3 -101 25 -175 17 -44
75 -172 128 -285 89 -189 149 -334 166 -403 l6 -27 169 0 169 0 0 1800 0 1800
-1598 0 -1597 0 -1 -187z"/>
</g>
</svg>
