<?xml version="1.0" standalone="no"?>
<!DOCTYPE svg PUBLIC "-//W3C//DTD SVG 20010904//EN"
 "http://www.w3.org/TR/2001/REC-SVG-20010904/DTD/svg10.dtd">
<svg version="1.0" xmlns="http://www.w3.org/2000/svg"
 width="480.000000pt" height="360.000000pt" viewBox="0 0 480.000000 360.000000"
 preserveAspectRatio="xMidYMid meet">
<metadata>
Created by potrace 1.16, written by Peter Selinger 2001-2019
</metadata>
<rect width="1" height="360" fill="#000000"/>
<rect x="479" width="1" height="360" fill="#000000"/>
<rect width="480" height="1" fill="#000000"/>
<rect y="359" width="480" height="1" fill="#000000"/>
<g transform="translate(0.000000,360.000000) scale(0.100000,-0.100000)"
fill="#000000" stroke="none">
<path d="M1713 3577 c-6 -12 -41 -65 -78 -117 -113 -160 -130 -206 -100 -268
15 -30 42 -40 110 -41 74 -1 105 -13 105 -42 0 -11 18 -75 39 -142 21 -67 44
-156 50 -197 14 -89 44 -193 77 -269 30 -66 25 -71 -67 -71 -36 0 -68 -2 -71
-5 -2 -3 8 -31 23 -62 41 -83 39 -98 -19 -127 -98 -50 -216 -156 -254 -231
-32 -61 -38 -89 -53 -260 -8 -88 -20 -190 -26 -227 -12 -75 -4 -70 -127 -82
-30 -3 -68 -14 -85 -24 -26 -15 -33 -25 -35 -58 -2 -32 5 -52 44 -112 53 -84
61 -124 41 -207 -58 -232 -99 -380 -116 -414 -11 -21 -47 -99 -80 -173 -45
-103 -182 -392 -208 -440 -2 -5 459 -8 1026 -8 l1031 0 6 27 c4 14 -1 144 -10
287 -17 271 -15 311 20 451 17 68 94 326 101 337 7 13 43 -15 64 -50 20 -31
20 -39 10 -201 -17 -257 -9 -679 14 -818 l6 -33 418 0 419 0 -84 194 c-89 209
-88 204 -85 391 3 151 1 196 -6 208 -4 6 -7 44 -8 84 -1 40 -6 78 -13 85 -8 8
-8 17 -1 30 6 10 7 29 3 41 -4 12 -8 35 -9 50 -2 15 -10 36 -20 47 -13 14 -14
23 -6 38 6 11 8 22 4 26 -3 3 2 24 12 45 22 50 14 86 -24 105 -24 13 -33 31
-61 118 -18 57 -39 108 -47 115 -9 7 -13 19 -9 28 6 16 -35 108 -54 120 -6 4
-8 11 -4 16 5 8 -62 152 -125 269 -4 8 -13 25 -19 37 -7 13 -12 67 -12 125 l1
103 25 -40 c25 -38 26 -39 20 -10 -19 94 -19 95 0 116 15 17 16 23 5 41 -12
20 -71 375 -71 430 0 23 -4 28 -24 28 -28 0 -31 9 -41 91 -6 54 -5 57 35 107
61 77 91 158 97 270 6 90 7 94 35 108 15 8 28 19 28 24 0 6 15 27 34 47 38 43
56 75 56 97 0 14 -94 16 -948 16 l-949 0 -10 -23z m1678 -453 c-11 -42 -50
-118 -57 -111 -14 14 -3 64 26 127 27 55 36 67 38 50 2 -12 -1 -42 -7 -66z
m-269 -1711 c1 -18 -1 -33 -7 -35 -6 -2 -11 19 -13 47 -2 55 13 45 20 -12z
m-12 -127 c0 -3 -4 -8 -10 -11 -5 -3 -10 -1 -10 4 0 6 5 11 10 11 6 0 10 -2
10 -4z"/>
</g>
</svg>
