<?xml version="1.0" standalone="no"?>
<!DOCTYPE svg PUBLIC "-//W3C//DTD SVG 20010904//EN"
 "http://www.w3.org/TR/2001/REC-SVG-20010904/DTD/svg10.dtd">
<svg version="1.0" xmlns="http://www.w3.org/2000/svg"
 width="480.000000pt" height="360.000000pt" viewBox="0 0 480.000000 360.000000"
 preserveAspectRatio="xMidYMid meet">
<metadata>
Created by potrace 1.16, written by Peter Selinger 2001-2019
</metadata>
<rect width="1" height="360" fill="#000000"/>
<rect x="479" width="1" height="360" fill="#000000"/>
<rect width="480" height="1" fill="#000000"/>
<rect y="359" width="480" height="1" fill="#000000"/>
<g transform="translate(0.000000,360.000000) scale(0.100000,-0.100000)"
fill="#000000" stroke="none">
<path d="M0 3365 l0 -235 43 0 c24 0 66 -6 93 -14 85 -25 120 -24 151 6 15 14
38 31 50 37 75 38 150 -29 112 -101 -14 -26 -4 -35 19 -15 33 30 85 44 157 41
96 -4 137 -13 132 -27 -2 -7 3 -21 13 -32 24 -27 40 -79 33 -106 -5 -19 -3
-21 16 -16 15 4 24 0 28 -11 3 -9 16 -41 30 -70 24 -54 24 -81 -2 -102 -41
-34 9 -114 96 -158 50 -25 90 -59 143 -127 16 -20 62 -59 102 -86 41 -27 78
-58 84 -68 15 -29 12 -85 -6 -132 -14 -34 -16 -64 -11 -172 9 -195 41 -329
193 -807 20 -63 40 -134 45 -158 5 -23 22 -73 39 -111 16 -38 34 -100 40 -139
5 -38 14 -81 19 -94 12 -32 11 -299 -1 -315 -5 -7 -30 -15 -55 -19 -39 -6 -49
-13 -80 -55 -19 -26 -43 -51 -54 -54 -11 -4 -59 -1 -105 5 -46 7 -100 9 -118
6 -29 -6 -34 -11 -40 -44 -3 -20 -6 -72 -6 -114 l0 -78 304 0 303 0 7 50 c5
35 2 58 -8 78 -8 16 -13 37 -12 48 2 10 1 24 -3 29 -10 17 -8 29 12 58 23 34
25 141 3 190 -17 37 -26 83 -30 147 -1 25 -11 58 -21 73 -15 24 -17 41 -11
135 4 59 10 159 14 224 8 136 16 149 95 167 95 21 127 63 127 167 0 87 -14
110 -189 309 -9 11 -21 26 -25 34 -19 31 -46 160 -46 221 -1 113 -13 150 -60
192 -23 21 -45 36 -49 34 -11 -7 -23 5 -54 51 -25 36 -29 53 -33 130 -7 142
-47 364 -72 404 -52 82 -80 174 -121 399 -17 97 -18 100 -35 165 -9 32 -16 89
-16 125 0 36 -3 89 -6 118 l-7 52 -613 0 -614 0 0 -235z"/>
<path d="M0 1550 l0 -1550 369 0 369 0 5 23 c3 12 8 54 12 92 4 39 9 78 12 88
7 28 -56 48 -156 50 l-85 2 -13 44 c-20 70 -27 74 -112 67 -47 -4 -79 -2 -87
5 -9 7 -20 6 -38 -6 -25 -17 -26 -17 -37 11 -8 22 -8 44 1 89 6 33 8 67 5 76
-4 10 5 32 19 54 14 21 26 48 26 61 0 29 71 165 111 214 16 19 29 43 29 53 0
10 5 15 10 12 6 -3 10 1 10 9 0 8 39 79 87 158 48 79 115 206 151 283 60 131
63 142 53 176 -8 25 -8 45 -1 66 9 23 7 46 -9 102 -11 40 -23 99 -27 132 -7
60 -20 77 -28 37 -3 -13 -10 -45 -16 -73 -6 -27 -9 -93 -8 -145 3 -99 -10
-133 -25 -67 -10 41 -27 50 -27 13 0 -13 -7 -29 -14 -36 -29 -23 -38 -75 -21
-115 24 -59 18 -125 -11 -125 -8 0 -17 7 -20 15 -4 8 -18 15 -33 15 -23 0 -33
-9 -54 -49 -15 -27 -27 -54 -27 -61 0 -26 -52 -102 -62 -92 -5 5 -18 42 -28
81 -23 86 -45 128 -35 66 l7 -40 -23 20 c-22 20 -22 20 -15 0 6 -17 4 -16 -21
5 -72 64 -91 129 -104 353 -10 167 -10 177 11 248 12 41 54 137 92 214 129
256 140 314 93 462 -19 60 -25 100 -25 171 0 50 -3 92 -7 92 -5 0 -17 -7 -27
-15 -26 -20 -86 -19 -114 1 -31 22 -28 67 8 126 28 45 29 51 15 71 -10 14 -42
29 -92 44 -43 12 -81 23 -85 23 -5 0 -8 -697 -8 -1550z"/>
<path d="M886 1893 c-4 -54 -9 -108 -13 -122 -9 -35 13 -18 37 29 24 46 26
107 6 155 -8 19 -17 35 -19 35 -2 0 -7 -44 -11 -97z"/>
<path d="M191 1510 c0 -14 4 -34 9 -45 7 -17 9 -16 9 10 0 17 -4 37 -9 45 -8
12 -10 10 -9 -10z"/>
<path d="M965 183 c-11 -3 -23 -8 -28 -12 -7 -7 -47 -142 -47 -161 0 -6 30
-10 71 -10 l72 0 -7 72 c-11 120 -12 123 -61 111z"/>
</g>
</svg>
