<?xml version="1.0" standalone="no"?>
<!DOCTYPE svg PUBLIC "-//W3C//DTD SVG 20010904//EN"
 "http://www.w3.org/TR/2001/REC-SVG-20010904/DTD/svg10.dtd">
<svg version="1.0" xmlns="http://www.w3.org/2000/svg"
 width="480.000000pt" height="360.000000pt" viewBox="0 0 480.000000 360.000000"
 preserveAspectRatio="xMidYMid meet">
<metadata>
Created by potrace 1.16, written by Peter Selinger 2001-2019
</metadata>
<rect width="1" height="360" fill="#000000"/>
<rect x="479" width="1" height="360" fill="#000000"/>
<rect width="480" height="1" fill="#000000"/>
<rect y="359" width="480" height="1" fill="#000000"/>
<g transform="translate(0.000000,360.000000) scale(0.100000,-0.100000)"
fill="#000000" stroke="none">
<path d="M2445 1670 c-49 -3 -182 -4 -295 -2 -235 5 -347 -9 -481 -58 -152
-55 -250 -142 -313 -273 -59 -127 -93 -309 -76 -412 l5 -30 -116 -12 c-139
-14 -290 -44 -402 -79 -190 -59 -367 -174 -367 -238 0 -15 -8 -57 -17 -92
l-17 -64 39 -41 c22 -22 56 -50 75 -62 19 -11 69 -43 110 -70 41 -27 136 -81
210 -120 74 -38 154 -80 177 -93 l42 -24 1564 0 1564 0 11 25 c7 14 12 43 12
64 0 21 3 58 6 82 6 41 11 47 73 89 36 25 73 48 81 51 22 10 100 96 100 111
-1 7 -7 31 -15 53 -8 22 -15 57 -15 78 0 32 -7 45 -48 85 -122 118 -402 213
-731 246 l-114 11 -2 115 c-1 133 -19 209 -73 319 -64 131 -187 240 -333 295
-132 50 -366 66 -654 46z m1608 -1542 c-13 -54 -94 -108 -162 -108 -22 0 -42
4 -45 8 -3 5 43 34 102 64 59 30 108 56 109 57 0 0 -1 -9 -4 -21z"/>
<path d="M4677 920 c-44 -8 -62 -23 -54 -43 6 -15 114 -79 155 -91 21 -7 22
-6 22 68 l0 76 -42 -1 c-24 -1 -60 -5 -81 -9z"/>
</g>
</svg>
