<?xml version="1.0" standalone="no"?>
<!DOCTYPE svg PUBLIC "-//W3C//DTD SVG 20010904//EN"
 "http://www.w3.org/TR/2001/REC-SVG-20010904/DTD/svg10.dtd">
<svg version="1.0" xmlns="http://www.w3.org/2000/svg"
 width="480.000000pt" height="360.000000pt" viewBox="0 0 480.000000 360.000000"
 preserveAspectRatio="xMidYMid meet">
<metadata>
Created by potrace 1.16, written by Peter Selinger 2001-2019
</metadata>
<rect width="1" height="360" fill="#000000"/>
<rect x="479" width="1" height="360" fill="#000000"/>
<rect width="480" height="1" fill="#000000"/>
<rect y="359" width="480" height="1" fill="#000000"/>
<g transform="translate(0.000000,360.000000) scale(0.100000,-0.100000)"
fill="#000000" stroke="none">
<path d="M2631 3321 c0 -7 -7 -11 -15 -8 -8 3 -16 -2 -19 -15 -3 -11 -10 -17
-16 -13 -6 3 -9 0 -6 -8 4 -9 -14 -20 -59 -36 -52 -18 -68 -20 -86 -11 -34 18
-53 -4 -45 -52 5 -30 2 -43 -14 -64 -24 -30 -28 -93 -9 -124 10 -15 10 -22 0
-32 -10 -10 -19 -9 -45 5 -17 9 -44 21 -59 26 -17 7 -28 18 -28 30 0 23 -16
37 -56 44 -34 7 -54 -7 -54 -36 0 -17 -2 -17 -31 3 -17 13 -34 33 -39 46 -12
32 -45 48 -69 34 -36 -19 -51 -52 -51 -111 0 -85 45 -115 95 -65 13 14 33 27
43 30 17 6 18 2 11 -57 -4 -34 -19 -93 -33 -131 -27 -76 -26 -87 10 -106 20
-11 33 -11 76 -1 28 8 79 14 112 15 61 1 62 1 44 -19 -10 -11 -21 -29 -24 -41
-5 -17 0 -163 7 -239 1 -11 -7 -42 -19 -70 -11 -27 -35 -88 -52 -135 -18 -47
-38 -98 -45 -115 -23 -52 -38 -118 -41 -178 -2 -54 0 -60 30 -91 21 -21 53
-38 87 -48 l54 -15 7 -86 c3 -47 10 -91 14 -98 4 -6 8 -44 9 -84 l3 -71 -76
-11 c-84 -12 -102 -26 -102 -79 0 -42 30 -76 100 -113 30 -16 56 -35 58 -43 3
-14 -71 -56 -160 -92 -21 -8 -38 -20 -38 -27 0 -6 18 -34 40 -61 22 -28 37
-55 34 -60 -9 -15 -70 -38 -99 -38 -35 0 -31 -22 7 -44 30 -18 32 -18 45 -1 7
11 13 22 13 25 0 4 19 17 43 30 23 13 48 28 55 33 15 12 86 10 132 -3 29 -8
60 7 60 30 0 5 10 12 23 15 12 4 39 18 59 32 20 13 47 24 60 23 71 -6 94 0
136 39 48 45 51 59 18 98 l-24 27 22 36 c50 82 50 84 35 162 -7 40 -14 89 -15
108 -1 19 -7 53 -13 75 -6 22 -11 55 -11 73 0 18 -10 52 -21 77 l-21 45 37 41
c47 52 44 81 -17 176 -52 80 -81 151 -102 249 -17 77 -31 114 -60 157 -16 24
-17 31 -6 52 8 15 10 37 6 60 -11 54 9 103 48 119 41 17 72 59 88 120 15 58 2
75 -62 78 -25 1 -39 3 -32 6 6 2 12 13 12 25 0 11 3 18 6 14 4 -3 12 -1 18 6
14 14 46 107 46 132 0 10 15 31 33 48 20 19 27 32 20 34 -7 3 -13 11 -13 19 0
8 -4 14 -8 14 -5 0 -20 29 -35 65 -25 61 -27 95 -5 95 5 0 6 5 3 10 -4 6 -1
18 6 26 10 12 9 13 -4 8 -10 -3 -17 1 -20 13 -3 10 -5 12 -6 4z m-343 -387
c31 -9 27 -24 -7 -24 -16 0 -34 -7 -41 -15 -7 -8 -19 -15 -27 -15 -11 0 -8 8
9 29 25 32 30 34 66 25z m86 -35 c-3 -5 -10 -7 -15 -3 -5 3 -7 10 -3 15 3 5
10 7 15 3 5 -3 7 -10 3 -15z m-156 -61 c7 -10 1 -19 -24 -35 -38 -25 -40 -24
-19 17 17 33 27 37 43 18z m366 -1135 c55 -115 80 -228 69 -308 -7 -52 -16
-55 -118 -30 -33 8 -74 15 -92 15 -21 0 -35 6 -41 18 -5 9 -8 87 -8 172 l1
155 75 6 c41 3 80 6 86 7 6 1 18 -15 28 -35z m-154 -658 c17 -9 30 -22 30 -30
0 -17 0 -17 -65 -20 -28 -1 -65 -9 -82 -18 -43 -23 -56 -21 -92 9 -38 32 -38
39 -3 52 62 25 171 28 212 7z"/>
<path d="M1018 3220 c-11 -12 -15 -31 -12 -61 4 -41 1 -46 -48 -97 -43 -42
-58 -52 -76 -47 -18 4 -25 1 -29 -15 -3 -11 -9 -20 -14 -20 -16 0 -9 -22 16
-52 19 -22 25 -41 25 -76 1 -54 21 -85 64 -96 23 -6 27 -11 22 -29 -3 -12 1
-28 9 -38 13 -14 13 -18 -5 -34 -22 -20 -26 -45 -10 -61 6 -6 0 -28 -19 -64
-15 -31 -30 -78 -33 -105 -5 -42 -12 -55 -45 -84 -21 -18 -54 -43 -73 -56 -19
-12 -47 -34 -62 -48 -19 -17 -43 -27 -80 -32 -29 -3 -64 -8 -78 -11 -34 -6
-132 44 -147 75 -25 52 -56 53 -263 2 l-155 -37 -3 -60 c-3 -59 -2 -59 35 -80
21 -11 74 -41 118 -66 44 -25 159 -89 255 -143 96 -53 200 -112 230 -130 30
-17 101 -58 158 -89 101 -57 103 -58 147 -47 24 6 46 11 48 11 2 0 2 -52 0
-116 l-5 -116 101 -98 c56 -54 101 -102 101 -107 0 -6 -19 -19 -42 -29 -59
-26 -148 -117 -149 -152 -2 -34 -2 -34 6 -54 7 -19 -38 -53 -85 -64 -14 -4
-54 -19 -90 -34 -121 -52 -122 -52 -236 34 -108 82 -123 86 -195 61 -101 -35
-309 -130 -309 -140 0 -14 105 -109 635 -575 34 -30 102 -90 150 -133 69 -61
92 -76 109 -71 50 16 353 181 389 212 9 8 17 21 17 28 0 7 -41 43 -92 81 -50
37 -110 82 -132 100 -23 17 -72 56 -111 85 -38 29 -71 62 -73 72 -4 17 1 18
55 12 74 -9 194 8 209 29 6 8 17 15 24 15 14 0 70 37 88 58 17 22 15 83 -4
110 -9 13 -14 25 -13 26 2 2 29 19 60 39 47 31 57 43 62 73 8 46 -1 68 -52
129 -22 27 -41 60 -41 72 0 12 -9 27 -20 33 -27 14 -118 140 -162 222 l-35 67
15 48 c20 62 29 73 61 73 14 0 65 19 114 42 97 46 107 61 87 125 -17 53 -167
338 -196 372 -21 25 -24 39 -24 106 0 42 4 84 9 93 4 9 11 52 15 94 7 76 6 77
-24 108 -16 17 -30 34 -30 39 0 13 36 41 53 41 25 0 50 47 50 93 0 39 -9 68
-44 154 -12 30 -11 35 10 64 l24 32 -24 18 c-13 10 -34 19 -45 19 -31 0 -74
38 -91 79 -8 19 -26 49 -39 66 -13 18 -24 39 -24 48 0 24 -15 28 -32 7z m-78
-980 c0 -12 7 -34 15 -50 14 -27 14 -29 -8 -36 -12 -3 -32 -16 -44 -27 -13
-11 -23 -16 -23 -11 0 5 -4 2 -9 -5 -14 -22 -100 -30 -134 -13 -22 10 -26 16
-17 27 6 7 20 11 30 8 11 -3 20 -1 20 5 0 5 14 15 30 22 17 7 30 16 30 21 0 9
90 78 103 79 4 0 7 -9 7 -20z m-260 -110 c0 -5 -2 -10 -4 -10 -3 0 -8 5 -11
10 -3 6 -1 10 4 10 6 0 11 -4 11 -10z m271 -123 c-13 -13 -26 -3 -16 12 3 6
11 8 17 5 6 -4 6 -10 -1 -17z m54 -1173 c5 -28 0 -51 -22 -100 -25 -58 -30
-64 -58 -64 -43 0 -145 70 -145 99 0 12 54 51 72 51 7 0 33 11 58 25 66 35 86
33 95 -11z"/>
<path d="M4187 3143 c-3 -5 -5 -27 -5 -51 -1 -34 -8 -51 -34 -81 -18 -22 -48
-57 -66 -80 -24 -30 -41 -41 -60 -41 -15 0 -34 -5 -42 -10 -13 -9 -12 -13 6
-28 25 -20 50 -62 45 -77 -1 -5 -7 -48 -11 -94 -9 -86 -4 -145 11 -135 5 3 9
-2 9 -12 0 -9 -15 -31 -34 -49 -28 -26 -37 -45 -48 -96 -7 -35 -24 -85 -39
-110 -29 -50 -34 -124 -9 -154 11 -13 9 -22 -17 -58 -17 -23 -42 -74 -56 -114
-35 -97 -77 -177 -125 -242 -66 -88 -65 -122 5 -185 38 -34 90 -54 139 -55 35
-1 48 -13 57 -52 5 -20 2 -28 -16 -38 -12 -6 -33 -28 -47 -48 -14 -20 -34 -47
-45 -59 -35 -38 -67 -97 -70 -129 -1 -16 -3 -49 -4 -72 -1 -35 -5 -44 -28 -55
-59 -28 -28 -82 84 -144 34 -19 74 -47 90 -62 15 -16 45 -40 65 -55 26 -19 35
-32 31 -45 -11 -31 -53 -68 -102 -91 -84 -40 -82 -50 14 -126 47 -37 99 -76
117 -86 49 -27 111 -56 133 -63 24 -6 52 12 57 38 2 14 -7 21 -42 30 -50 13
-91 34 -169 85 -79 52 -69 73 38 75 59 2 68 -1 87 -23 19 -22 31 -26 100 -29
44 -3 82 -9 85 -14 4 -7 14 -6 27 1 34 18 73 13 140 -19 35 -17 79 -30 98 -30
46 0 104 25 104 44 0 19 13 20 41 5 11 -5 17 -15 13 -20 -9 -15 36 -59 60 -59
18 0 21 6 21 38 -1 45 -7 56 -43 75 -53 28 -147 79 -187 102 -22 12 -59 25
-83 29 -23 3 -77 23 -120 43 -42 20 -87 40 -98 46 -12 5 -27 20 -34 33 -12 21
-10 27 18 59 18 19 34 46 38 60 10 38 -27 86 -90 118 -60 31 -77 58 -52 86 9
10 16 30 16 45 0 15 14 58 30 96 26 59 30 81 30 154 0 88 6 104 51 132 8 5 22
18 31 30 17 19 17 23 -1 86 -10 35 -22 89 -26 119 -17 137 -36 228 -57 272
l-22 48 59 59 c33 33 65 60 72 60 7 0 13 6 13 13 0 7 10 18 21 25 17 11 20 20
16 48 -8 48 9 44 90 -22 104 -86 113 -89 189 -70 35 9 82 16 104 16 l41 0 -3
67 -3 67 -35 9 c-19 5 -53 22 -74 38 -22 16 -47 29 -55 29 -19 0 -171 37 -177
43 -5 5 28 81 105 237 34 68 59 131 56 139 -9 23 -28 -3 -68 -94 -37 -85 -117
-258 -123 -264 -1 -1 -8 0 -14 4 -8 5 -8 10 0 20 20 24 1 35 -62 35 -57 0 -60
1 -46 18 16 19 32 53 30 64 -1 4 19 28 44 53 37 36 45 49 39 68 -17 54 -16 76
5 117 24 47 22 57 -10 40 -25 -13 -15 -19 -134 80 -64 53 -66 56 -66 103 0 42
-11 60 -23 40z m-91 -1719 c7 -41 -10 -156 -33 -222 -8 -23 -12 -49 -9 -57 8
-21 -25 -73 -49 -78 -11 -3 -44 -5 -73 -6 -51 -2 -53 -1 -67 33 -17 41 -19 76
-5 76 5 0 16 13 24 28 8 15 42 50 76 76 66 52 90 92 90 151 0 28 4 35 20 35
14 0 21 -9 26 -36z"/>
</g>
</svg>
