<?xml version="1.0" standalone="no"?>
<!DOCTYPE svg PUBLIC "-//W3C//DTD SVG 20010904//EN"
 "http://www.w3.org/TR/2001/REC-SVG-20010904/DTD/svg10.dtd">
<svg version="1.0" xmlns="http://www.w3.org/2000/svg"
 width="480.000000pt" height="360.000000pt" viewBox="0 0 480.000000 360.000000"
 preserveAspectRatio="xMidYMid meet">
<metadata>
Created by potrace 1.16, written by Peter Selinger 2001-2019
</metadata>
<rect width="1" height="360" fill="#000000"/>
<rect x="479" width="1" height="360" fill="#000000"/>
<rect width="480" height="1" fill="#000000"/>
<rect y="359" width="480" height="1" fill="#000000"/>
<g transform="translate(0.000000,360.000000) scale(0.100000,-0.100000)"
fill="#000000" stroke="none">
<path d="M0 1800 l0 -1800 419 0 419 0 17 44 c27 70 6 83 -72 45 -44 -21 -77
-20 -68 3 6 15 46 42 138 92 57 32 66 40 62 59 -4 17 13 45 71 117 42 52 95
120 118 150 23 30 94 123 157 205 102 133 127 174 221 365 137 277 158 339
169 500 8 113 3 303 -8 323 -3 4 -11 3 -19 -4 -17 -14 -74 -21 -74 -9 0 10 68
274 76 294 5 13 -1 16 -29 16 -32 0 -41 7 -82 60 -25 33 -52 74 -61 92 -8 18
-18 40 -23 48 -19 35 -41 87 -47 115 -4 17 -13 39 -20 50 -33 54 -27 166 10
183 28 12 233 -26 334 -63 l67 -25 90 45 c121 60 188 76 310 74 55 -1 119 4
143 10 24 7 51 9 60 6 20 -6 71 -75 75 -101 1 -11 19 -51 39 -89 43 -84 67
-162 68 -230 2 -67 1 -72 -9 -56 -14 22 -27 -13 -36 -92 -3 -37 -13 -74 -21
-81 -8 -8 -18 -32 -22 -53 -8 -34 -9 -36 -16 -15 -6 19 -10 21 -22 11 -8 -6
-14 -24 -14 -40 0 -30 -15 -48 -23 -27 -2 7 -7 10 -11 7 -3 -3 6 -48 22 -99
l27 -94 63 -23 c86 -30 172 -91 199 -139 38 -66 42 -79 58 -194 8 -61 20 -120
26 -131 6 -11 15 -64 20 -117 6 -53 16 -106 23 -117 8 -11 63 -73 124 -137
127 -135 162 -178 162 -201 0 -10 -15 -34 -34 -55 -33 -36 -34 -41 -28 -88 7
-47 9 -50 59 -74 43 -21 52 -29 47 -45 -24 -81 -136 -49 -183 53 -14 28 -27
52 -30 52 -3 0 -26 -17 -50 -38 l-45 -38 28 -150 c15 -82 34 -194 42 -249 8
-55 17 -110 19 -123 l5 -22 930 0 930 0 0 1800 0 1800 -2400 0 -2400 0 0
-1800z"/>
<path d="M2067 740 c-21 -38 -42 -72 -48 -75 -5 -4 -25 -30 -43 -60 -39 -60
-47 -67 -90 -71 -19 -2 -42 -16 -58 -34 -22 -23 -36 -30 -65 -30 -41 0 -42 -1
-113 -120 -42 -71 -114 -164 -208 -268 l-75 -82 233 2 234 3 8 30 c4 17 22 82
39 145 62 234 101 325 192 451 52 74 54 78 49 128 -2 28 -8 51 -11 51 -4 0
-24 -31 -44 -70z"/>
</g>
</svg>
