<?xml version="1.0" standalone="no"?>
<!DOCTYPE svg PUBLIC "-//W3C//DTD SVG 20010904//EN"
 "http://www.w3.org/TR/2001/REC-SVG-20010904/DTD/svg10.dtd">
<svg version="1.0" xmlns="http://www.w3.org/2000/svg"
 width="480.000000pt" height="360.000000pt" viewBox="0 0 480.000000 360.000000"
 preserveAspectRatio="xMidYMid meet">
<metadata>
Created by potrace 1.16, written by Peter Selinger 2001-2019
</metadata>
<rect width="1" height="360" fill="#000000"/>
<rect x="479" width="1" height="360" fill="#000000"/>
<rect width="480" height="1" fill="#000000"/>
<rect y="359" width="480" height="1" fill="#000000"/>
<g transform="translate(0.000000,360.000000) scale(0.100000,-0.100000)"
fill="#000000" stroke="none">
<path d="M0 1800 l0 -1800 565 0 565 0 0 1800 0 1800 -565 0 -565 0 0 -1800z"/>
<path d="M1945 3580 c-32 -36 -13 -88 158 -417 35 -67 78 -166 97 -220 18 -54
44 -119 57 -146 23 -46 23 -53 17 -200 -4 -83 -10 -159 -15 -168 -7 -14 -42
-16 -294 -15 -243 1 -285 -1 -285 -14 0 -8 -13 -28 -29 -45 -37 -37 -65 -101
-50 -110 6 -4 17 1 24 11 13 17 14 17 15 2 0 -9 -11 -30 -25 -46 -26 -31 -32
-57 -16 -66 11 -7 86 76 108 118 l15 29 270 -5 c214 -4 272 -8 279 -19 5 -8 9
-34 9 -59 l0 -45 -92 1 c-51 0 -102 -3 -114 -7 -23 -8 -84 -66 -84 -79 0 -17
50 -47 110 -65 45 -14 65 -25 73 -42 7 -16 24 -27 54 -34 l43 -11 26 -87 c52
-177 67 -201 127 -201 57 0 69 16 101 131 22 80 65 171 76 164 6 -3 10 1 10 9
0 9 10 18 23 21 12 3 64 14 116 25 51 11 102 25 112 31 23 12 24 32 4 49 -8 7
-15 19 -15 27 0 8 -4 12 -9 9 -5 -4 -11 -3 -13 1 -8 18 -70 43 -123 49 l-57 7
6 38 c13 79 19 86 83 92 103 11 370 20 396 13 17 -4 36 -24 56 -59 40 -70 63
-91 92 -82 15 5 18 9 9 15 -7 4 -10 12 -6 18 3 6 -8 21 -26 33 -17 13 -26 25
-20 27 18 6 14 53 -8 95 -11 20 -20 45 -20 56 0 33 -22 42 -81 32 -78 -14
-326 -23 -377 -15 -47 7 -49 13 -27 79 6 16 3 16 -14 -5 l-21 -25 1 45 c0 25
5 67 11 93 13 59 5 70 -18 25 l-17 -33 -11 30 c-26 72 -53 95 -63 55 -5 -20
-7 -20 -24 -4 -27 24 -24 47 14 112 18 31 50 98 71 147 50 117 90 184 199 330
122 163 133 189 124 298 l-2 27 -506 0 c-491 0 -506 -1 -524 -20z"/>
<path d="M3670 1800 l0 -1800 565 0 565 0 0 1800 0 1800 -565 0 -565 0 0
-1800z"/>
</g>
</svg>
