<?xml version="1.0" standalone="no"?>
<!DOCTYPE svg PUBLIC "-//W3C//DTD SVG 20010904//EN"
 "http://www.w3.org/TR/2001/REC-SVG-20010904/DTD/svg10.dtd">
<svg version="1.0" xmlns="http://www.w3.org/2000/svg"
 width="480.000000pt" height="360.000000pt" viewBox="0 0 480.000000 360.000000"
 preserveAspectRatio="xMidYMid meet">
<metadata>
Created by potrace 1.16, written by Peter Selinger 2001-2019
</metadata>
<rect width="1" height="360" fill="#000000"/>
<rect x="479" width="1" height="360" fill="#000000"/>
<rect width="480" height="1" fill="#000000"/>
<rect y="359" width="480" height="1" fill="#000000"/>
<g transform="translate(0.000000,360.000000) scale(0.100000,-0.100000)"
fill="#000000" stroke="none">
<path d="M0 3010 l0 -590 43 -2 c23 -1 53 -1 66 0 19 1 22 -1 12 -11 -7 -7
-37 -12 -66 -12 l-55 0 0 -338 c0 -263 3 -336 12 -335 18 4 19 -100 2 -136 -8
-16 -14 -53 -14 -83 l0 -54 28 20 c15 11 38 22 52 26 15 3 4 -7 -28 -27 l-52
-33 0 -717 0 -718 2400 0 2400 0 0 691 c0 654 -1 691 -17 684 -10 -4 -39 -10
-65 -12 -44 -5 -48 -4 -48 16 0 38 41 81 87 93 l43 10 0 288 0 287 -30 34
c-36 41 -35 65 3 62 l27 -2 0 725 0 724 -1184 0 c-848 0 -1187 -3 -1192 -11
-4 -7 -19 -8 -43 -3 -20 4 -399 9 -843 11 l-808 3 0 -24 c0 -14 -4 -27 -8 -30
-11 -7 -72 31 -72 44 0 7 -112 10 -325 10 l-325 0 0 -590z m1370 376 c0 -3 -4
-8 -10 -11 -5 -3 -10 -1 -10 4 0 6 5 11 10 11 6 0 10 -2 10 -4z m1301 -34 c-9
-18 -58 -58 -91 -77 -8 -4 9 17 39 48 55 56 72 66 52 29z m-1329 6 c8 -22 -7
-63 -24 -66 -10 -2 -20 8 -26 28 -10 28 -9 32 11 40 30 12 34 12 39 -2z m296
-91 c-20 -60 -75 -100 -60 -44 7 30 52 88 63 82 4 -3 3 -20 -3 -38z m-1220
-72 c15 -31 17 -43 7 -39 -12 5 -45 62 -45 78 0 19 19 0 38 -39z m2989 -100
c20 -43 20 -45 2 -45 -22 0 -39 28 -39 64 0 39 14 31 37 -19z m-2407 -64 c0
-12 -20 -25 -27 -18 -7 7 6 27 18 27 5 0 9 -4 9 -9z m1486 -19 c16 -10 0 -48
-26 -62 -26 -14 -95 -9 -95 7 0 7 15 24 34 38 35 25 66 31 87 17z m-1519 -28
c7 -10 13 -33 13 -52 0 -33 -1 -34 -32 -28 -38 7 -60 26 -88 74 l-21 35 58 -6
c38 -4 62 -12 70 -23z m2242 -73 c41 -38 53 -76 23 -76 -16 0 -93 96 -86 107
9 14 20 9 63 -31z m418 -42 c11 -4 24 -13 28 -20 9 -14 -92 -4 -134 13 l-26
11 25 8 c25 7 68 3 107 -12z m-2737 -235 c-13 -66 -30 -82 -50 -45 -15 29 -12
49 9 70 11 11 25 30 32 43 19 35 23 6 9 -68z m-374 51 c24 -37 12 -40 -15 -5
-12 17 -17 30 -12 30 6 0 18 -11 27 -25z m1634 -76 c0 -5 11 -9 24 -9 13 0 34
-9 47 -19 l24 -20 -45 -46 c-60 -63 -134 -105 -184 -105 -46 0 -113 30 -146
65 l-23 25 39 16 c21 9 61 32 88 52 64 47 176 73 176 41z m-2063 -60 c34 -29
58 -67 48 -77 -7 -7 -76 66 -96 101 -13 23 2 15 48 -24z m1154 -110 c9 -37 -3
-54 -29 -40 -23 12 -37 45 -27 61 12 20 48 6 56 -21z m1453 -85 c-11 -43 -25
-52 -48 -29 -23 23 -20 54 7 75 18 16 24 17 36 5 10 -10 11 -23 5 -51z m1265
61 c-16 -15 -117 -63 -113 -52 8 20 67 57 93 57 13 0 22 -2 20 -5z m-1453
-129 c18 -19 18 -36 -1 -36 -8 0 -19 -9 -25 -20 -9 -17 -96 -70 -115 -70 -3 0
0 9 7 20 10 16 9 23 -12 45 -22 23 -20 31 5 25 31 -8 55 -7 55 2 0 13 42 47
58 48 7 0 20 -6 28 -14z m-385 -58 c10 -13 18 -32 19 -44 0 -27 -30 -114 -40
-114 -12 0 -60 75 -60 95 0 21 40 85 53 85 5 0 17 -10 28 -22z m692 -86 c-3
-12 -8 -46 -12 -75 l-7 -52 -17 32 c-22 42 -23 123 -2 123 9 0 19 8 22 17 6
15 7 14 14 -3 4 -10 5 -29 2 -42z m1667 -30 c0 -8 -82 -89 -129 -127 l-24 -20
26 50 c25 49 45 71 83 93 22 13 44 15 44 4z m-1268 -54 c39 -43 47 -58 43 -77
-19 -78 -114 -61 -159 28 l-25 48 27 26 c15 15 35 27 46 27 10 0 41 -24 68
-52z m-21 -248 c35 -16 55 -29 44 -29 -24 -1 -100 33 -109 48 -10 16 -6 15 65
-19z m-1852 -15 c17 -29 18 -37 7 -41 -17 -7 -56 12 -56 27 0 5 6 12 14 15 8
3 12 12 9 20 -10 26 5 14 26 -21z m2695 -81 c11 -30 6 -142 -9 -185 -28 -80
-25 -76 -37 -54 -15 26 -14 152 2 209 13 46 33 60 44 30z m-2691 -51 c18 -6
24 -23 7 -23 -23 0 -70 31 -70 46 0 15 2 15 23 0 12 -9 30 -19 40 -23z m377
27 c0 -6 -10 -14 -22 -19 -19 -7 -16 -9 19 -14 51 -9 73 -31 44 -46 -24 -14
-36 -14 -83 0 -46 12 -48 27 -8 54 16 11 30 23 30 28 0 4 5 7 10 7 6 0 10 -5
10 -10z m2064 -45 l28 -18 -24 -13 c-30 -17 -96 -17 -128 -1 -30 15 -38 43
-13 51 34 9 109 -1 137 -19z m-863 -40 c10 -11 15 -22 13 -24 -6 -6 -54 40
-66 64 l-11 20 24 -20 c13 -11 31 -29 40 -40z m-565 -33 c-4 -3 -14 2 -24 12
-16 18 -16 18 6 6 13 -6 21 -14 18 -18z m-861 -69 c36 -17 43 -27 25 -38 -6
-4 -3 -16 10 -32 36 -46 28 -53 -55 -53 -63 0 -82 4 -114 25 -55 34 -56 40
-11 54 22 6 40 17 40 24 0 38 48 47 105 20z m856 -44 c27 -12 49 -25 49 -30 0
-9 -108 28 -124 43 -19 16 25 8 75 -13z m1481 -9 c21 0 38 -4 38 -10 0 -22
-130 -5 -137 17 -3 9 4 9 29 2 18 -5 50 -9 70 -9z m-15 14 c-3 -3 -12 -4 -19
-1 -8 3 -5 6 6 6 11 1 17 -2 13 -5z m719 -27 c24 -21 26 -27 20 -70 -9 -58
-24 -60 -65 -10 -33 39 -39 71 -19 91 18 18 34 15 64 -11z m-3572 -92 c3 -9 0
-15 -9 -15 -8 0 -15 7 -15 15 0 8 4 15 9 15 5 0 11 -7 15 -15z m712 -42 c21
-22 24 -35 23 -82 -1 -31 1 -66 6 -78 7 -21 4 -23 -33 -23 -53 0 -91 32 -99
82 -4 30 0 46 23 82 16 25 35 45 42 46 7 0 24 -12 38 -27z m-657 -10 c3 -2 -9
-17 -25 -34 -29 -28 -109 -57 -122 -44 -5 5 23 48 53 82 9 11 81 8 94 -4z
m808 -31 c1 -18 4 -40 7 -49 8 -20 -21 -53 -45 -53 -20 0 -29 33 -18 65 4 11
10 33 14 48 8 41 39 33 42 -11z m303 -3 c11 -26 11 -33 -3 -46 -15 -15 -17
-14 -26 9 -10 27 -5 68 9 68 4 0 13 -14 20 -31z m-767 14 c-13 -2 -33 -2 -45
0 -13 2 -3 4 22 4 25 0 35 -2 23 -4z m2173 -7 c7 -8 19 -16 26 -19 17 -6 -19
-47 -41 -47 -35 1 -70 47 -55 72 8 13 54 9 70 -6z m480 -33 c7 -10 14 -31 14
-48 0 -28 -2 -30 -37 -28 -21 1 -41 2 -45 2 -17 2 -28 40 -18 65 7 20 16 26
41 26 19 0 37 -7 45 -17z m-1044 -133 l43 -8 -49 1 c-32 1 -51 7 -54 16 -3 8
0 11 7 7 6 -4 30 -11 53 -16z m73 -98 c-3 -3 2 -14 12 -24 15 -17 15 -20 -5
-38 -12 -12 -35 -20 -55 -20 l-34 0 12 47 c8 30 19 49 31 54 18 6 50 -9 39
-19z m-2822 -60 c25 -23 21 -30 -24 -42 -34 -9 -46 -8 -77 7 -24 12 -38 26
-40 42 -4 23 -3 23 60 16 34 -4 71 -14 81 -23z m3376 -114 c17 -28 18 -35 7
-47 -18 -17 -60 -5 -52 16 3 8 6 26 6 39 0 33 14 30 39 -8z m-653 -5 c-3 -8
-1 -11 4 -8 5 3 12 -6 16 -20 5 -19 1 -30 -17 -45 -29 -23 -33 -24 -48 -6 -17
20 -3 94 18 99 23 5 33 -3 27 -20z m170 -11 c6 -13 17 -29 23 -35 17 -17 14
-23 -29 -42 -39 -17 -41 -17 -60 0 -16 15 -19 26 -14 54 9 49 12 53 42 49 16
-2 31 -13 38 -26z m-1214 4 c28 -21 41 -65 27 -98 -12 -29 -39 -39 -39 -13 0
8 -7 35 -15 60 -21 60 -10 80 27 51z m-1202 -201 c28 -36 49 -105 32 -105 -6
0 -60 96 -81 145 -6 14 31 -16 49 -40z m4022 -99 c16 -49 17 -49 -49 -2 -42
31 -83 86 -83 110 0 59 106 -28 132 -108z m-1969 20 c22 -48 15 -58 -15 -21
-33 41 -47 67 -48 88 0 16 3 15 23 -5 12 -13 30 -40 40 -62z m221 -176 c13
-13 -29 -21 -58 -11 -41 16 -33 34 12 26 20 -3 41 -10 46 -15z m-2463 -31 l22
-22 -39 -23 c-46 -28 -55 -29 -94 -9 -39 20 -38 30 8 54 48 26 77 26 103 0z
m2029 5 c0 -13 -74 -34 -117 -33 l-48 1 55 18 c54 18 110 25 110 14z m263
-163 c15 -53 17 -68 6 -88 -25 -47 -41 -27 -64 84 -8 42 2 75 23 71 10 -2 23
-27 35 -67z m1464 33 c72 -38 73 -45 2 -19 -35 12 -65 28 -67 34 -6 17 13 13
65 -15z"/>
</g>
</svg>
