<?xml version="1.0" standalone="no"?>
<!DOCTYPE svg PUBLIC "-//W3C//DTD SVG 20010904//EN"
 "http://www.w3.org/TR/2001/REC-SVG-20010904/DTD/svg10.dtd">
<svg version="1.0" xmlns="http://www.w3.org/2000/svg"
 width="480.000000pt" height="360.000000pt" viewBox="0 0 480.000000 360.000000"
 preserveAspectRatio="xMidYMid meet">
<metadata>
Created by potrace 1.16, written by Peter Selinger 2001-2019
</metadata>
<rect width="1" height="360" fill="#000000"/>
<rect x="479" width="1" height="360" fill="#000000"/>
<rect width="480" height="1" fill="#000000"/>
<rect y="359" width="480" height="1" fill="#000000"/>
<g transform="translate(0.000000,360.000000) scale(0.100000,-0.100000)"
fill="#000000" stroke="none">
<path d="M1236 3578 c-26 -41 -61 -352 -45 -395 4 -10 5 -52 2 -93 -7 -95 9
-205 48 -342 28 -100 29 -109 15 -130 -9 -12 -16 -37 -16 -55 0 -31 -5 -35
-71 -68 -45 -23 -93 -59 -132 -98 -34 -35 -75 -71 -90 -80 -15 -10 -32 -28
-38 -40 -6 -12 -44 -47 -86 -77 -126 -91 -291 -266 -406 -427 -102 -145 -232
-467 -266 -661 -26 -148 -31 -185 -42 -337 -13 -174 -8 -337 15 -511 15 -109
42 -253 49 -261 2 -2 258 -2 568 -1 l564 3 -55 35 c-30 19 -59 37 -65 39 -50
20 -205 168 -249 236 -83 131 -139 270 -186 459 -52 212 -63 327 -64 666 -1
349 5 395 75 540 54 114 172 270 204 270 5 0 27 5 47 10 29 8 42 21 66 63 34
58 66 93 141 152 45 36 50 44 51 81 0 26 6 47 18 57 29 27 109 56 238 88 l123
30 93 -15 c109 -18 153 -32 259 -85 155 -78 240 -153 335 -298 71 -109 113
-225 125 -353 12 -119 4 -191 -31 -301 -15 -47 -31 -108 -34 -135 -11 -83 32
-265 87 -364 11 -19 42 -75 69 -123 27 -49 65 -103 86 -120 20 -18 61 -56 90
-85 32 -32 87 -70 140 -98 48 -24 101 -53 118 -64 37 -24 252 -46 358 -36 103
10 201 35 241 62 20 13 38 24 40 24 21 0 80 -175 106 -314 16 -87 28 -123 57
-169 19 -32 43 -62 53 -68 16 -8 95 -157 87 -164 -2 -1 -46 -7 -98 -12 -73 -8
28 -10 438 -12 l532 -1 0 1800 0 1800 -90 0 c-49 0 -90 -4 -90 -8 0 -5 11 -74
25 -154 34 -204 49 -465 35 -643 -29 -374 -74 -598 -167 -815 -107 -251 -172
-359 -360 -591 -82 -102 -334 -319 -370 -319 -17 0 -17 -2 13 66 37 85 74 155
101 190 38 51 133 260 153 338 27 108 41 247 45 451 9 415 -80 719 -274 949
-75 89 -238 247 -326 315 -96 76 -120 92 -267 181 l-66 40 -956 0 -956 0 -14
-22z m1917 -1556 c32 -14 63 -34 69 -45 18 -34 12 -194 -11 -290 -35 -146 -58
-163 -168 -122 -153 58 -257 162 -298 299 -12 39 -11 47 4 72 27 43 49 59 121
87 107 42 186 42 283 -1z"/>
<path d="M1486 1868 c-49 -13 -66 -51 -66 -148 0 -158 42 -281 112 -333 25
-19 32 -19 99 -8 136 22 309 139 309 209 0 27 -7 36 -52 65 -29 19 -69 51 -87
71 -19 20 -39 36 -43 36 -5 0 -42 27 -84 60 -81 65 -103 70 -188 48z"/>
</g>
</svg>
