<?xml version="1.0" standalone="no"?>
<!DOCTYPE svg PUBLIC "-//W3C//DTD SVG 20010904//EN"
 "http://www.w3.org/TR/2001/REC-SVG-20010904/DTD/svg10.dtd">
<svg version="1.0" xmlns="http://www.w3.org/2000/svg"
 width="480.000000pt" height="360.000000pt" viewBox="0 0 480.000000 360.000000"
 preserveAspectRatio="xMidYMid meet">
<metadata>
Created by potrace 1.16, written by Peter Selinger 2001-2019
</metadata>
<rect width="1" height="360" fill="#000000"/>
<rect x="479" width="1" height="360" fill="#000000"/>
<rect width="480" height="1" fill="#000000"/>
<rect y="359" width="480" height="1" fill="#000000"/>
<g transform="translate(0.000000,360.000000) scale(0.100000,-0.100000)"
fill="#000000" stroke="none">
<path d="M4725 3566 c-33 -12 -99 -39 -147 -60 l-88 -38 -80 16 c-44 9 -113
16 -153 16 -158 0 -391 -59 -536 -135 -128 -67 -256 -195 -289 -288 -24 -70
-84 -110 -214 -148 -68 -20 -115 -28 -138 -25 -19 3 -54 9 -77 12 -66 10 -98
-9 -129 -73 -32 -69 -36 -109 -11 -106 21 1 30 -18 47 -100 16 -82 31 -93 128
-102 85 -7 97 -15 87 -58 -3 -12 -1 -35 4 -52 l9 -30 9 25 c9 23 11 23 16 5 3
-11 8 -34 12 -51 3 -17 17 -46 31 -65 21 -29 24 -30 24 -11 0 30 18 28 32 -3
14 -31 28 -33 21 -2 -5 24 -4 23 53 -46 24 -29 13 -49 -44 -81 -28 -17 -52
-36 -52 -42 0 -7 18 -28 40 -47 34 -29 40 -40 40 -74 0 -24 6 -46 15 -53 8 -7
15 -20 15 -29 0 -9 11 -38 25 -65 14 -27 25 -57 25 -65 0 -9 7 -27 16 -39 12
-18 13 -29 5 -52 -12 -36 -5 -38 28 -6 23 21 92 41 103 30 3 -2 2 -26 -2 -54
-4 -27 -3 -50 1 -50 4 0 21 23 39 50 18 28 36 50 40 50 4 0 11 -20 14 -45 11
-71 34 -71 80 0 22 36 31 43 42 34 20 -17 34 -76 34 -150 0 -53 -4 -69 -20
-84 -13 -12 -20 -31 -20 -55 0 -34 -3 -38 -49 -60 -38 -18 -58 -21 -88 -15
-21 4 -71 9 -111 10 -40 2 -85 6 -101 10 -20 4 -34 1 -45 -11 -13 -12 -20 -14
-29 -5 -18 18 -46 13 -63 -14 -16 -24 -15 -48 3 -122 5 -22 4 -23 -58 -17 -35
4 -86 15 -112 25 l-48 17 7 -57 6 -58 -73 -18 c-133 -32 -241 -65 -296 -91
-30 -15 -56 -24 -57 -23 -2 2 -19 29 -39 59 -45 69 -133 173 -372 440 -185
208 -187 209 -221 230 -17 11 -59 27 -94 36 -35 9 -80 27 -99 39 -20 13 -61
31 -91 40 -30 9 -90 30 -133 46 -104 40 -160 49 -291 49 -89 0 -120 -4 -155
-20 -30 -14 -83 -24 -164 -30 -65 -6 -123 -12 -128 -16 -15 -9 -10 -60 12
-119 16 -43 34 -67 81 -108 75 -65 102 -114 103 -187 l0 -55 58 -7 c34 -4 69
-16 84 -28 14 -11 30 -20 35 -20 6 0 23 -11 39 -25 43 -36 89 -45 227 -45 94
0 130 4 155 16 l31 17 34 -39 c31 -36 213 -266 355 -448 93 -119 173 -198 260
-254 100 -65 172 -92 247 -92 57 0 479 44 529 56 l24 5 -5 -265 -5 -266 492 0
492 0 33 125 c18 69 38 132 44 140 10 14 27 14 153 0 150 -16 215 -35 287 -84
42 -30 116 -104 154 -155 l22 -29 0 224 c0 206 -1 224 -19 243 -19 21 -19 22
-1 76 19 53 19 107 20 1553 0 823 -3 1497 -7 1496 -5 0 -35 -10 -68 -23z
m-1436 -1231 c0 -5 -6 1 -14 15 -8 14 -14 30 -14 35 0 6 6 -1 14 -15 8 -14 14
-29 14 -35z m1481 -830 c0 -8 -4 -15 -9 -15 -5 0 -11 7 -15 15 -3 9 0 15 9 15
8 0 15 -7 15 -15z m-59 -75 c5 0 6 7 3 15 -4 10 0 15 15 15 12 0 21 -3 21 -7
0 -35 -46 -310 -74 -442 -44 -204 -58 -246 -100 -294 l-34 -38 -65 52 -65 51
5 79 c7 99 -9 198 -53 334 -19 58 -34 120 -34 138 l1 32 34 -37 35 -38 0 90
c0 50 3 90 6 90 19 0 49 -28 84 -80 22 -32 45 -62 51 -66 19 -11 29 18 29 84
0 59 1 63 20 57 17 -5 20 -2 20 20 l0 27 46 -41 c26 -23 51 -41 55 -41z"/>
</g>
</svg>
