<?xml version="1.0" standalone="no"?>
<!DOCTYPE svg PUBLIC "-//W3C//DTD SVG 20010904//EN"
 "http://www.w3.org/TR/2001/REC-SVG-20010904/DTD/svg10.dtd">
<svg version="1.0" xmlns="http://www.w3.org/2000/svg"
 width="480.000000pt" height="360.000000pt" viewBox="0 0 480.000000 360.000000"
 preserveAspectRatio="xMidYMid meet">
<metadata>
Created by potrace 1.16, written by Peter Selinger 2001-2019
</metadata>
<rect width="1" height="360" fill="#000000"/>
<rect x="479" width="1" height="360" fill="#000000"/>
<rect width="480" height="1" fill="#000000"/>
<rect y="359" width="480" height="1" fill="#000000"/>
<g transform="translate(0.000000,360.000000) scale(0.100000,-0.100000)"
fill="#000000" stroke="none">
<path d="M2900 3366 c0 -7 14 -19 30 -26 70 -29 149 -105 84 -80 -35 14 -201
13 -266 -1 -113 -24 -188 -83 -235 -184 -24 -55 -50 -73 -130 -94 -44 -12
-103 -54 -103 -74 0 -6 15 -26 33 -45 l32 -33 -28 -25 -28 -24 17 -57 c9 -32
18 -63 19 -69 3 -10 142 -98 169 -107 10 -3 -15 -209 -35 -279 -11 -43 -20
-46 -47 -17 l-20 20 -73 -22 c-41 -12 -86 -30 -100 -40 -14 -10 -75 -34 -136
-53 -104 -34 -112 -35 -145 -22 -19 8 -102 33 -184 55 -82 23 -190 53 -241 67
-94 26 -112 26 -168 -3 -29 -14 -35 -14 -102 10 -75 27 -93 24 -93 -18 0 -11
-7 -31 -16 -44 -16 -22 -15 -24 10 -49 14 -15 37 -40 51 -55 l26 -28 -35 -88
c-63 -159 -82 -275 -53 -315 13 -18 24 -16 248 33 319 69 375 77 448 63 82
-15 168 -2 323 50 70 23 130 39 134 35 4 -3 0 -32 -8 -64 -17 -67 -5 -135 32
-185 25 -34 22 -68 -15 -143 -14 -27 -43 -99 -65 -160 -22 -60 -50 -123 -61
-138 -20 -27 -20 -57 0 -57 21 0 41 34 61 100 l20 69 33 -14 c26 -11 32 -19
32 -45 0 -19 7 -35 18 -41 17 -10 18 -8 42 59 2 7 16 17 30 22 42 16 50 49 31
129 -13 52 -14 75 -7 90 6 11 11 29 11 41 0 21 37 61 94 102 l29 21 -6 -174
c-16 -487 -59 -769 -182 -1179 l-82 -275 590 -3 c325 -1 593 0 595 3 3 3 0
108 -7 233 -28 520 -35 579 -101 847 -35 143 -68 360 -57 371 2 2 20 -3 40
-11 64 -26 104 -20 147 23 47 47 57 92 42 187 -7 38 -15 100 -18 136 l-6 65
87 134 88 134 -34 29 c-19 16 -88 70 -154 119 -66 50 -133 102 -149 115 -18
15 -37 22 -49 19 -18 -5 -19 0 -15 77 3 45 1 97 -4 114 -7 28 -3 43 27 101 19
38 35 72 35 77 0 5 -12 21 -27 37 -32 33 -23 48 37 68 36 12 40 17 35 37 -4
18 0 25 16 31 20 8 19 10 -21 45 -24 20 -57 41 -75 47 -22 7 -45 29 -70 66
-21 30 -51 64 -66 75 -17 12 -29 30 -29 42 0 24 -23 62 -55 90 -58 52 -195 89
-195 53z"/>
</g>
</svg>
