<?xml version="1.0" standalone="no"?>
<!DOCTYPE svg PUBLIC "-//W3C//DTD SVG 20010904//EN"
 "http://www.w3.org/TR/2001/REC-SVG-20010904/DTD/svg10.dtd">
<svg version="1.0" xmlns="http://www.w3.org/2000/svg"
 width="480.000000pt" height="360.000000pt" viewBox="0 0 480.000000 360.000000"
 preserveAspectRatio="xMidYMid meet">
<metadata>
Created by potrace 1.16, written by Peter Selinger 2001-2019
</metadata>
<rect width="1" height="360" fill="#000000"/>
<rect x="479" width="1" height="360" fill="#000000"/>
<rect width="480" height="1" fill="#000000"/>
<rect y="359" width="480" height="1" fill="#000000"/>
<g transform="translate(0.000000,360.000000) scale(0.100000,-0.100000)"
fill="#000000" stroke="none">
<path d="M0 1800 l0 -1800 215 0 215 0 0 88 c0 120 -17 177 -115 381 -200 418
-249 643 -249 1136 0 280 9 381 55 604 20 98 87 343 114 417 l15 41 -35 37
c-39 41 -42 53 -21 82 24 32 120 25 250 -20 229 -78 382 -145 428 -185 26 -22
105 -52 363 -134 365 -117 491 -155 523 -160 12 -2 25 -6 28 -10 13 -13 26 -7
20 9 -4 10 1 22 11 30 16 12 16 12 -7 7 -25 -6 -25 -6 6 28 56 62 81 104 162
264 88 175 106 202 188 287 55 56 56 56 122 61 37 2 101 12 142 21 89 21 171
17 252 -14 80 -30 159 -116 263 -289 6 -11 3 -13 -13 -9 -20 6 -22 2 -22 -35
-1 -23 -6 -52 -13 -63 -16 -28 -77 -79 -77 -64 0 7 -6 6 -15 -4 -18 -17 -10
-42 16 -57 23 -12 25 -45 4 -53 -8 -3 -15 -12 -15 -20 0 -8 -16 -46 -36 -85
-26 -51 -41 -71 -55 -71 -10 0 -19 -5 -19 -11 0 -8 -5 -8 -15 1 -12 10 -15 10
-15 -1 0 -10 -3 -10 -12 -1 -19 19 -26 14 -21 -12 7 -33 83 -85 151 -103 70
-18 112 -43 154 -92 l33 -38 230 -51 c408 -90 448 -97 453 -84 5 17 47 15 62
-3 17 -20 27 -19 35 5 8 24 47 27 65 5 10 -12 16 -12 26 -4 18 15 44 4 44 -17
0 -13 3 -14 15 -4 12 10 18 10 30 0 8 -7 15 -19 15 -26 0 -19 16 -18 24 1 9
24 34 17 51 -14 12 -24 25 -32 67 -40 86 -18 270 -49 473 -81 105 -17 200 -32
213 -35 l22 -5 0 995 0 995 -2400 0 -2400 0 0 -1800z"/>
<path d="M692 2302 c-108 -303 -132 -401 -157 -661 -23 -228 -16 -553 13 -681
26 -109 77 -266 164 -505 80 -218 80 -217 24 -364 l-34 -91 508 0 507 0 105
122 c255 299 377 452 456 573 47 72 98 147 114 167 29 37 29 44 11 111 -2 9
-59 62 -126 116 -67 54 -139 117 -159 139 -35 39 -38 46 -38 105 0 72 16 112
89 223 49 74 51 78 45 130 -6 48 -4 57 20 89 24 31 26 39 17 72 -6 21 -11 52
-11 70 0 38 -16 52 -25 22 -5 -15 -13 -19 -27 -16 -14 4 -24 -2 -36 -24 -19
-32 -32 -37 -32 -12 0 13 -3 14 -12 5 -19 -19 -27 -14 -34 24 l-6 35 -25 -23
-24 -22 6 44 c6 42 5 44 -9 26 -9 -11 -16 -25 -16 -30 0 -6 -5 -3 -11 7 -8 14
-6 29 10 62 38 82 22 88 -40 15 -23 -28 -44 -48 -46 -46 -6 5 37 95 48 102 27
17 3 35 -78 59 -235 70 -502 155 -733 232 -200 67 -270 86 -326 89 l-72 4 -60
-168z"/>
<path d="M1870 2270 c-28 -8 -30 -7 68 -39 49 -15 62 -17 62 -6 0 7 3 21 7 31
5 14 2 16 -22 10 -77 -19 -89 -20 -82 -3 7 18 5 19 -33 7z"/>
<path d="M2976 1832 c-7 -21 35 -108 81 -169 35 -46 52 -98 53 -165 0 -31 5
-68 11 -82 l11 -24 72 24 c39 14 154 48 256 75 102 28 191 57 198 63 9 9 11
30 6 79 -6 57 -10 68 -28 72 -44 10 -602 136 -627 141 -21 5 -28 2 -33 -14z"/>
<path d="M3986 1567 c-39 -70 -128 -155 -202 -194 -69 -37 -285 -123 -460
-183 -139 -48 -198 -51 -267 -16 l-47 23 0 -29 c0 -16 -5 -39 -12 -51 -6 -12
-11 -53 -11 -91 1 -66 3 -70 42 -110 45 -46 57 -80 40 -112 -9 -17 -5 -33 24
-90 20 -38 56 -93 82 -123 88 -103 191 -270 181 -296 -4 -10 -18 -14 -51 -11
-25 2 -45 2 -45 1 0 -1 11 -33 23 -71 13 -38 32 -102 42 -142 l19 -72 728 0
728 0 0 714 c0 393 -3 717 -8 720 -20 12 -734 186 -766 186 -6 0 -24 -24 -40
-53z"/>
<path d="M2316 1395 l-40 -48 47 -43 c25 -24 50 -44 56 -44 13 0 6 81 -11 139
l-13 44 -39 -48z"/>
</g>
</svg>
