<?xml version="1.0" standalone="no"?>
<!DOCTYPE svg PUBLIC "-//W3C//DTD SVG 20010904//EN"
 "http://www.w3.org/TR/2001/REC-SVG-20010904/DTD/svg10.dtd">
<svg version="1.0" xmlns="http://www.w3.org/2000/svg"
 width="480.000000pt" height="360.000000pt" viewBox="0 0 480.000000 360.000000"
 preserveAspectRatio="xMidYMid meet">
<metadata>
Created by potrace 1.16, written by Peter Selinger 2001-2019
</metadata>
<rect width="1" height="360" fill="#000000"/>
<rect x="479" width="1" height="360" fill="#000000"/>
<rect width="480" height="1" fill="#000000"/>
<rect y="359" width="480" height="1" fill="#000000"/>
<g transform="translate(0.000000,360.000000) scale(0.100000,-0.100000)"
fill="#000000" stroke="none">
<path d="M0 1800 l0 -1800 705 0 c388 0 705 3 705 8 0 4 -10 23 -22 42 -47 77
-152 278 -190 364 -152 345 -225 715 -235 1197 -10 432 23 669 159 1163 l41
149 -47 42 c-39 34 -47 47 -44 70 7 65 106 90 239 61 178 -40 587 -165 664
-204 17 -8 45 -28 63 -43 18 -16 36 -29 40 -29 4 0 111 -27 237 -60 326 -86
839 -210 864 -210 12 0 21 6 21 15 0 8 -9 15 -20 15 -11 0 -20 6 -20 14 0 16
-30 26 -82 26 -43 0 -48 9 -18 30 19 14 19 15 3 22 -16 6 -16 7 -2 7 9 1 30 8
45 16 l29 15 -25 0 c-19 0 -10 8 36 30 63 31 119 82 353 323 58 59 108 107
112 107 4 0 45 35 92 78 60 55 103 84 144 101 32 12 87 38 123 56 96 50 231
87 320 87 61 1 90 -5 160 -31 47 -18 114 -43 150 -55 128 -45 145 -59 180
-157 l19 -54 1 203 0 202 -2400 0 -2400 0 0 -1800z"/>
<path d="M4786 3084 c-4 -14 -22 -49 -41 -77 -19 -29 -35 -59 -35 -68 0 -29
-14 -30 -26 -2 -12 26 -12 27 -13 5 -1 -13 11 -34 27 -49 15 -14 25 -30 23
-37 -2 -6 -4 -38 -5 -71 -2 -53 1 -65 28 -102 56 -76 56 -76 56 187 0 132 -2
240 -4 240 -2 0 -7 -12 -10 -26z"/>
<path d="M1878 2670 c-71 -179 -173 -508 -208 -667 -42 -195 -66 -596 -50
-834 26 -390 67 -540 290 -1046 l54 -123 682 0 682 0 29 23 c15 13 78 59 138
102 215 154 367 287 485 426 25 29 67 77 93 106 l48 54 -23 27 c-25 29 -109
108 -283 267 -216 196 -245 234 -245 315 0 94 52 184 215 370 44 51 63 80 58
90 -4 8 -7 32 -8 53 0 20 -3 37 -7 37 -5 0 -8 10 -8 21 0 20 -2 20 -22 -7
l-22 -28 -6 25 c-6 24 -7 24 -28 -11 -22 -34 -22 -35 -22 -9 0 30 -28 48 -42
27 -5 -8 -8 -2 -8 18 0 39 -28 40 -68 1 -39 -37 -65 -28 -56 19 5 28 2 38 -17
55 -22 19 -22 22 -11 76 6 31 10 58 8 60 -2 2 -18 -8 -35 -22 -17 -15 -31 -24
-31 -20 0 16 41 83 55 88 21 9 19 39 -2 36 -34 -3 -32 1 18 48 27 25 46 50 42
54 -11 11 -201 59 -234 59 -15 0 -42 -6 -60 -14 -46 -18 -99 -30 -79 -17 28
19 1 23 -46 7 -57 -19 -57 -19 -47 -3 4 6 8 17 10 22 1 6 4 20 7 32 6 27 15
24 -299 103 -132 34 -359 93 -505 132 -223 60 -278 71 -349 72 -80 1 -84 0
-93 -24z"/>
<path d="M4701 2604 c-9 -24 -9 -39 -2 -53 16 -29 14 -30 -18 -18 -34 13 -63
4 -55 -18 8 -19 -10 -20 -26 0 -17 21 -50 19 -50 -2 0 -10 9 -32 19 -49 15
-25 27 -32 65 -37 26 -4 66 -19 89 -35 80 -54 77 -58 77 86 l0 128 -43 16 -44
16 -12 -34z"/>
<path d="M3605 2540 c-32 -33 -63 -60 -67 -60 -4 0 -8 -4 -8 -9 0 -10 108 -33
121 -26 11 7 21 82 17 122 l-3 32 -60 -59z"/>
<path d="M4005 1459 c-39 -35 -86 -76 -105 -91 l-34 -27 104 -108 c58 -59 109
-111 115 -115 7 -4 9 5 7 28 -2 19 3 53 12 75 14 33 15 48 6 75 -6 18 -17 77
-23 130 l-13 97 -69 -64z"/>
</g>
</svg>
