<?xml version="1.0" standalone="no"?>
<!DOCTYPE svg PUBLIC "-//W3C//DTD SVG 20010904//EN"
 "http://www.w3.org/TR/2001/REC-SVG-20010904/DTD/svg10.dtd">
<svg version="1.0" xmlns="http://www.w3.org/2000/svg"
 width="480.000000pt" height="360.000000pt" viewBox="0 0 480.000000 360.000000"
 preserveAspectRatio="xMidYMid meet">
<metadata>
Created by potrace 1.16, written by Peter Selinger 2001-2019
</metadata>
<rect width="1" height="360" fill="#000000"/>
<rect x="479" width="1" height="360" fill="#000000"/>
<rect width="480" height="1" fill="#000000"/>
<rect y="359" width="480" height="1" fill="#000000"/>
<g transform="translate(0.000000,360.000000) scale(0.100000,-0.100000)"
fill="#000000" stroke="none">
<path d="M0 2673 l0 -926 71 104 c39 57 84 122 100 144 73 100 88 128 129 236
53 144 141 316 222 439 295 446 701 746 1228 908 l65 20 -907 1 -908 1 0 -927z"/>
<path d="M3467 3527 c102 -85 290 -275 360 -362 26 -33 95 -130 152 -215 168
-251 172 -254 211 -200 12 17 28 30 36 30 19 0 103 -171 153 -313 48 -138 58
-160 72 -151 6 3 22 1 37 -4 75 -29 77 -28 156 53 68 70 76 75 115 75 l41 0 0
580 0 580 -710 0 -711 0 88 -73z"/>
<path d="M1629 2805 c-101 -28 -202 -96 -326 -221 -270 -272 -405 -631 -390
-1044 7 -196 35 -329 108 -513 181 -454 553 -805 1051 -991 l97 -36 1316 0
1315 0 0 970 c0 534 -4 970 -8 970 -4 0 -16 -15 -27 -32 -41 -71 -126 -198
-193 -288 -53 -70 -83 -123 -113 -200 -191 -479 -452 -816 -788 -1017 -137
-82 -224 -116 -275 -109 -32 5 -65 -2 -146 -29 -115 -39 -308 -81 -410 -90
-161 -13 -201 -13 -332 -5 -363 25 -668 146 -934 371 -139 118 -289 310 -373
477 -41 81 -94 242 -118 352 -24 117 -24 389 0 515 22 111 89 309 127 379 16
28 39 71 51 95 56 110 158 241 259 330 44 39 84 71 88 71 4 1 23 14 42 30 19
17 32 29 30 29 -3 -1 -26 -7 -51 -14z"/>
<path d="M0 744 l0 -744 682 0 c375 0 678 4 673 8 -6 5 -41 34 -80 64 -108 85
-302 291 -388 411 -42 59 -77 110 -77 113 0 3 -18 32 -40 65 -23 33 -85 148
-138 257 -108 218 -135 262 -161 262 -24 0 -39 -18 -61 -77 -10 -26 -22 -49
-28 -51 -11 -3 -123 128 -195 230 -26 37 -79 99 -117 137 l-70 69 0 -744z"/>
<path d="M940 1084 c0 -18 46 -155 74 -219 92 -207 250 -432 420 -600 44 -44
221 -193 282 -237 37 -28 38 -28 198 -28 l161 1 -93 39 c-451 190 -762 482
-973 915 -38 77 -69 135 -69 129z"/>
</g>
</svg>
