<?xml version="1.0" standalone="no"?>
<!DOCTYPE svg PUBLIC "-//W3C//DTD SVG 20010904//EN"
 "http://www.w3.org/TR/2001/REC-SVG-20010904/DTD/svg10.dtd">
<svg version="1.0" xmlns="http://www.w3.org/2000/svg"
 width="480.000000pt" height="360.000000pt" viewBox="0 0 480.000000 360.000000"
 preserveAspectRatio="xMidYMid meet">
<metadata>
Created by potrace 1.16, written by Peter Selinger 2001-2019
</metadata>
<rect width="1" height="360" fill="#000000"/>
<rect x="479" width="1" height="360" fill="#000000"/>
<rect width="480" height="1" fill="#000000"/>
<rect y="359" width="480" height="1" fill="#000000"/>
<g transform="translate(0.000000,360.000000) scale(0.100000,-0.100000)"
fill="#000000" stroke="none">
<path d="M0 1800 l0 -1800 1181 0 c1046 0 1180 2 1175 15 -7 19 3 19 28 0 17
-13 180 -15 1218 -15 l1198 0 0 1800 0 1800 -2400 0 -2400 0 0 -1800z m1571
1113 c58 -13 84 -25 122 -56 54 -46 108 -146 128 -240 14 -67 8 -77 -49 -77
-50 0 -178 -29 -248 -55 -35 -13 -116 -55 -182 -94 -109 -65 -227 -120 -236
-110 -2 2 1 26 8 54 14 54 6 82 -25 87 -15 3 -15 7 5 48 11 25 29 70 40 100
10 30 24 69 31 85 29 70 55 144 70 197 14 51 20 59 48 67 53 15 209 12 288 -6z
m2434 -2173 c10 -11 23 -20 29 -20 7 0 38 -31 71 -70 62 -73 89 -89 187 -109
42 -9 76 -26 132 -67 41 -30 79 -54 86 -54 6 0 26 -11 44 -25 18 -14 38 -25
44 -25 6 0 23 -17 38 -37 15 -21 39 -48 52 -60 14 -12 22 -27 19 -36 -5 -13
-17 -12 -97 4 -187 38 -364 141 -512 298 -91 96 -123 142 -133 189 -8 38 11
44 40 12z"/>
</g>
</svg>
