<?xml version="1.0" standalone="no"?>
<!DOCTYPE svg PUBLIC "-//W3C//DTD SVG 20010904//EN"
 "http://www.w3.org/TR/2001/REC-SVG-20010904/DTD/svg10.dtd">
<svg version="1.0" xmlns="http://www.w3.org/2000/svg"
 width="480.000000pt" height="360.000000pt" viewBox="0 0 480.000000 360.000000"
 preserveAspectRatio="xMidYMid meet">
<metadata>
Created by potrace 1.16, written by Peter Selinger 2001-2019
</metadata>
<rect width="1" height="360" fill="#000000"/>
<rect x="479" width="1" height="360" fill="#000000"/>
<rect width="480" height="1" fill="#000000"/>
<rect y="359" width="480" height="1" fill="#000000"/>
<g transform="translate(0.000000,360.000000) scale(0.100000,-0.100000)"
fill="#000000" stroke="none">
<path d="M0 1800 l0 -1800 595 0 c327 0 595 1 595 3 0 2 -44 97 -99 213 -112
237 -131 288 -131 346 0 49 48 142 122 237 32 40 56 83 64 114 9 36 24 61 52
86 27 25 41 48 46 76 11 55 29 86 75 128 49 44 115 79 196 102 33 10 96 35
141 57 l81 39 6 87 c14 221 9 332 -19 447 -18 73 -27 140 -28 201 l-1 91 -90
7 c-104 7 -210 30 -244 52 -19 13 -31 14 -69 4 -26 -6 -49 -7 -54 -2 -12 12
67 117 170 224 47 48 83 90 81 91 -2 2 -24 15 -49 29 -65 37 -150 107 -150
124 0 15 7 17 125 35 44 6 84 15 88 19 5 4 1 45 -7 91 -27 149 -30 199 -14
199 8 0 74 -63 147 -139 l132 -140 33 20 c47 28 162 47 376 64 328 26 450 18
490 -32 l19 -24 44 25 c24 14 49 38 56 54 25 55 135 242 143 242 4 0 5 -18 2
-40 -4 -21 -3 -92 1 -155 7 -110 9 -118 36 -146 15 -16 33 -47 39 -69 6 -23
16 -42 23 -44 7 -2 66 -16 132 -31 139 -32 161 -41 146 -59 -9 -11 -161 -85
-231 -113 l-25 -10 35 -15 c19 -8 41 -22 48 -31 30 -36 -70 -86 -248 -127 -88
-20 -85 -18 -65 -40 15 -17 17 -34 10 -157 -4 -84 -2 -192 5 -276 14 -169 18
-417 7 -512 l-7 -70 51 -30 c100 -59 177 -170 242 -351 49 -137 45 -206 -17
-287 -26 -35 -32 -50 -28 -76 2 -19 -1 -57 -8 -86 -10 -43 -10 -77 -1 -172 7
-65 15 -153 18 -196 l6 -77 853 0 854 0 0 1800 0 1800 -2400 0 -2400 0 0
-1800z"/>
<path d="M2331 1668 c-19 -5 -61 -8 -93 -6 -59 3 -77 -5 -35 -16 39 -10 107
-6 142 8 19 8 35 17 35 20 0 7 -7 7 -49 -6z"/>
<path d="M2811 1294 c0 -11 3 -14 6 -6 3 7 2 16 -1 19 -3 4 -6 -2 -5 -13z"/>
<path d="M1595 690 c-11 -5 -39 -9 -62 -9 -32 -1 -51 -8 -76 -31 -19 -17 -50
-33 -68 -36 -19 -3 -50 -12 -70 -21 l-36 -15 71 -221 c40 -122 81 -251 92
-287 l20 -65 73 -3 c72 -3 73 -3 65 20 -21 67 -1 489 32 651 6 29 -4 33 -41
17z"/>
</g>
</svg>
