<?xml version="1.0" standalone="no"?>
<!DOCTYPE svg PUBLIC "-//W3C//DTD SVG 20010904//EN"
 "http://www.w3.org/TR/2001/REC-SVG-20010904/DTD/svg10.dtd">
<svg version="1.0" xmlns="http://www.w3.org/2000/svg"
 width="480.000000pt" height="360.000000pt" viewBox="0 0 480.000000 360.000000"
 preserveAspectRatio="xMidYMid meet">
<metadata>
Created by potrace 1.16, written by Peter Selinger 2001-2019
</metadata>
<rect width="1" height="360" fill="#000000"/>
<rect x="479" width="1" height="360" fill="#000000"/>
<rect width="480" height="1" fill="#000000"/>
<rect y="359" width="480" height="1" fill="#000000"/>
<g transform="translate(0.000000,360.000000) scale(0.100000,-0.100000)"
fill="#000000" stroke="none">
<path d="M2173 2463 c-38 -11 -53 -21 -57 -38 -4 -15 -22 -29 -55 -44 -48 -20
-52 -20 -93 -5 -24 9 -63 20 -88 24 -25 4 -40 8 -35 10 6 1 -1 5 -15 9 -19 5
-29 2 -43 -16 -10 -13 -26 -23 -35 -23 -9 0 -36 -7 -60 -17 -39 -15 -43 -19
-40 -47 2 -25 8 -32 30 -34 15 -2 37 2 49 8 14 8 24 9 32 1 15 -15 -21 -20
-185 -23 -124 -3 -149 -6 -165 -21 -10 -9 -31 -27 -46 -38 -18 -14 -27 -29
-25 -43 3 -21 14 -23 54 -11 17 5 22 0 33 -37 7 -24 18 -49 23 -55 7 -9 2 -21
-18 -41 -56 -54 -95 -103 -89 -112 3 -5 1 -11 -5 -15 -6 -4 -8 -10 -5 -14 2
-5 -16 -46 -41 -92 -64 -117 -145 -289 -182 -384 -88 -224 -100 -259 -96 -266
7 -12 96 -39 127 -39 21 0 28 -4 25 -17 -3 -15 -26 -31 -104 -74 -12 -6 -32
-29 -44 -52 l-23 -40 24 -20 c36 -29 100 -19 170 26 65 41 85 78 75 136 -8 50
0 71 28 71 43 0 60 -23 61 -81 0 -49 3 -55 28 -67 33 -16 32 -32 -10 -122 -39
-82 -43 -105 -26 -129 10 -15 25 -21 53 -21 64 0 93 45 113 171 l13 83 42 14
c33 11 47 23 59 48 16 32 15 38 -7 108 -19 62 -22 88 -18 168 4 79 13 117 58
248 86 253 136 332 244 385 54 26 246 79 331 90 74 10 152 34 165 50 7 8 21
15 32 15 15 0 19 5 15 20 -6 24 13 82 31 93 22 14 14 103 -13 162 -23 47 -33
58 -87 84 -70 35 -122 39 -205 14z"/>
<path d="M1600 2433 c0 -5 11 -21 25 -38 l25 -30 -17 38 c-15 33 -33 49 -33
30z"/>
</g>
</svg>
