<?xml version="1.0" standalone="no"?>
<!DOCTYPE svg PUBLIC "-//W3C//DTD SVG 20010904//EN"
 "http://www.w3.org/TR/2001/REC-SVG-20010904/DTD/svg10.dtd">
<svg version="1.0" xmlns="http://www.w3.org/2000/svg"
 width="480.000000pt" height="360.000000pt" viewBox="0 0 480.000000 360.000000"
 preserveAspectRatio="xMidYMid meet">
<metadata>
Created by potrace 1.16, written by Peter Selinger 2001-2019
</metadata>
<rect width="1" height="360" fill="#000000"/>
<rect x="479" width="1" height="360" fill="#000000"/>
<rect width="480" height="1" fill="#000000"/>
<rect y="359" width="480" height="1" fill="#000000"/>
<g transform="translate(0.000000,360.000000) scale(0.100000,-0.100000)"
fill="#000000" stroke="none">
<path d="M0 2175 l0 -1425 110 0 109 0 5 33 c12 76 15 250 4 266 -8 13 -3 31
21 79 28 55 34 62 68 68 65 11 91 26 97 57 9 46 7 92 -5 104 -16 16 -2 32 46
53 31 13 44 25 47 44 3 15 1 29 -3 32 -14 8 -10 27 10 53 l18 24 16 -32 c9
-17 11 -33 6 -37 -12 -7 -12 -51 1 -74 5 -10 26 -24 45 -30 34 -11 46 -32 25
-45 -6 -3 -10 -33 -10 -65 0 -57 1 -60 33 -74 17 -8 48 -19 67 -24 31 -7 38
-15 62 -72 16 -39 23 -69 18 -75 -5 -6 -12 -70 -16 -143 l-7 -132 37 0 36 0 0
91 0 92 52 84 c28 46 54 86 58 88 3 2 29 -36 58 -85 49 -85 52 -93 52 -160 0
-49 4 -70 13 -70 6 0 138 -7 292 -15 154 -8 297 -15 319 -15 34 0 47 -8 112
-72 l74 -72 -1 196 -1 196 48 71 c26 39 50 71 54 71 5 0 28 -33 53 -73 l46
-73 -6 -507 -6 -507 1371 0 1372 0 0 1800 0 1800 -2400 0 -2400 0 0 -1425z
m3164 624 c28 -33 32 -49 16 -65 -11 -11 14 -99 34 -121 6 -7 45 -19 86 -28
116 -23 120 -25 120 -38 0 -18 -48 -67 -65 -67 -23 0 -18 -18 11 -45 26 -24
26 -25 5 -25 -12 0 -31 -5 -42 -11 -16 -8 -18 -14 -9 -24 9 -11 6 -14 -12 -17
-14 -2 -23 -9 -22 -19 1 -11 -7 -15 -27 -14 -27 2 -28 1 -31 -70 l-3 -72 60
33 c33 18 79 40 103 48 l42 15 0 -32 c0 -18 -11 -56 -25 -85 -14 -30 -25 -55
-25 -57 0 -6 269 3 292 10 19 5 17 1 -11 -23 -34 -29 -34 -30 -13 -41 11 -6
29 -11 39 -11 10 0 25 -5 33 -10 13 -8 13 -11 1 -19 -20 -13 17 -31 63 -31 19
0 38 -4 41 -10 3 -5 2 -10 -4 -10 -5 0 -22 -5 -38 -11 -27 -10 -27 -11 -9 -25
11 -8 31 -14 45 -14 13 0 21 -3 18 -7 -4 -3 -1 -13 5 -21 10 -12 7 -14 -17
-12 -64 4 -74 -13 -29 -49 l27 -21 -24 0 c-22 0 -22 0 -3 -15 18 -15 17 -16
-16 -11 -33 6 -34 5 -7 -5 26 -10 37 -29 17 -29 -5 0 -10 -6 -10 -14 0 -7 20
-19 45 -26 50 -14 75 -36 31 -28 -14 3 -26 1 -26 -4 0 -6 -7 -7 -16 -4 -9 3
-27 9 -40 12 -20 5 -23 3 -18 -10 5 -12 2 -15 -12 -9 -11 4 -15 3 -11 -4 4 -6
27 -14 52 -17 61 -10 47 -27 -16 -19 -43 5 -49 4 -43 -11 4 -10 1 -16 -7 -16
-8 0 -5 -6 7 -16 18 -15 18 -15 -6 -9 -77 20 -74 21 -55 -9 25 -38 14 -40 -26
-6 -39 34 -79 40 -79 12 0 -10 5 -23 12 -30 9 -9 9 -12 0 -12 -7 0 -17 -12
-23 -27 l-11 -28 -12 40 c-11 37 -17 42 -76 66 -36 15 -69 24 -73 22 -4 -3 -5
-19 -1 -38 11 -61 -36 -116 -86 -100 -26 8 -36 28 -44 90 -12 83 -17 94 -51
115 -54 33 -60 29 -90 -75 -25 -84 -31 -95 -51 -95 -31 0 -54 36 -54 83 0 27
-5 39 -17 43 -38 12 -48 22 -51 53 -3 27 -6 30 -18 20 -13 -10 -13 -15 0 -34
8 -12 11 -27 6 -35 -6 -9 -12 -6 -25 13 -18 29 -72 60 -86 51 -5 -3 -9 -12 -9
-20 0 -9 -6 -14 -12 -11 -7 2 -13 17 -13 33 -1 19 -6 30 -18 32 -19 4 -33 43
-23 67 3 10 19 15 43 15 46 0 56 6 76 45 16 31 56 71 96 96 34 21 53 84 39
131 -6 21 -15 38 -20 38 -17 0 -47 40 -42 55 3 8 -2 37 -12 64 -17 48 -17 50
4 85 17 29 20 45 15 88 -3 29 -15 69 -25 89 l-19 36 -62 -13 c-74 -16 -77 -16
-76 -6 3 19 -2 33 -11 27 -5 -3 -10 -2 -10 3 0 9 89 52 109 52 23 0 20 22 -6
45 -31 27 -22 32 17 11 22 -13 28 -12 61 12 20 14 49 50 64 79 36 70 66 93
120 93 36 0 48 -5 69 -31z"/>
<path d="M2899 1820 l-24 -19 22 -1 c12 0 27 9 33 20 14 26 -1 26 -31 0z"/>
<path d="M3650 1620 c0 -5 12 -10 26 -10 14 0 23 4 19 10 -3 6 -15 10 -26 10
-10 0 -19 -4 -19 -10z"/>
</g>
</svg>
