<?xml version="1.0" standalone="no"?>
<!DOCTYPE svg PUBLIC "-//W3C//DTD SVG 20010904//EN"
 "http://www.w3.org/TR/2001/REC-SVG-20010904/DTD/svg10.dtd">
<svg version="1.0" xmlns="http://www.w3.org/2000/svg"
 width="480.000000pt" height="360.000000pt" viewBox="0 0 480.000000 360.000000"
 preserveAspectRatio="xMidYMid meet">
<metadata>
Created by potrace 1.16, written by Peter Selinger 2001-2019
</metadata>
<rect width="1" height="360" fill="#000000"/>
<rect x="479" width="1" height="360" fill="#000000"/>
<rect width="480" height="1" fill="#000000"/>
<rect y="359" width="480" height="1" fill="#000000"/>
<g transform="translate(0.000000,360.000000) scale(0.100000,-0.100000)"
fill="#000000" stroke="none">
<path d="M0 1800 l0 -1800 782 0 c430 0 778 4 772 8 -5 5 -51 39 -101 76 -51
37 -93 72 -93 77 0 5 5 17 11 27 10 15 0 29 -65 92 -70 68 -91 100 -66 100 21
0 8 26 -55 102 -67 82 -73 96 -53 116 9 9 8 16 -3 29 -9 10 -35 51 -58 91 -33
54 -41 75 -32 85 8 10 -1 39 -35 116 -31 67 -43 106 -37 112 7 7 0 42 -18 102
-16 50 -29 108 -29 129 0 21 -7 80 -14 131 -23 143 -12 545 18 667 9 36 16 82
16 102 0 20 14 75 30 123 17 47 28 95 25 105 -4 11 12 54 40 111 31 61 45 99
41 114 -4 17 10 46 54 111 39 58 56 92 50 98 -18 18 -11 30 55 106 55 63 65
80 61 102 -5 25 7 39 116 138 66 60 124 110 128 110 13 0 147 -161 745 -890
83 -101 168 -204 190 -230 22 -26 75 -90 119 -143 43 -54 82 -97 86 -97 39 0
168 33 184 48 12 10 38 26 59 35 37 17 39 17 66 -2 24 -17 35 -19 97 -11 38 5
196 9 351 10 225 0 355 6 640 30 393 33 553 39 656 27 l67 -9 0 776 0 776
-2400 0 -2400 0 0 -1800z"/>
<path d="M3294 1495 c-38 -31 -92 -69 -121 -86 -28 -16 -73 -48 -100 -69 -29
-25 -54 -38 -64 -35 -11 4 -23 -2 -31 -14 -19 -27 -57 -40 -136 -47 -75 -6
-85 -2 -99 41 -9 28 -14 30 -69 36 -32 3 -62 4 -67 2 -4 -3 -129 -176 -279
-386 -309 -435 -610 -857 -646 -904 l-24 -33 1376 0 c1322 0 1376 1 1376 18 0
43 118 212 294 422 53 63 96 120 96 126 0 6 -7 17 -15 24 -8 7 -15 21 -15 32
0 10 7 21 15 24 13 5 15 65 15 451 0 420 -1 445 -17 438 -38 -16 -388 -16
-661 -1 -155 9 -390 16 -521 16 l-237 0 -70 -55z"/>
</g>
</svg>
