<?xml version="1.0" standalone="no"?>
<!DOCTYPE svg PUBLIC "-//W3C//DTD SVG 20010904//EN"
 "http://www.w3.org/TR/2001/REC-SVG-20010904/DTD/svg10.dtd">
<svg version="1.0" xmlns="http://www.w3.org/2000/svg"
 width="480.000000pt" height="360.000000pt" viewBox="0 0 480.000000 360.000000"
 preserveAspectRatio="xMidYMid meet">
<metadata>
Created by potrace 1.16, written by Peter Selinger 2001-2019
</metadata>
<rect width="1" height="360" fill="#000000"/>
<rect x="479" width="1" height="360" fill="#000000"/>
<rect width="480" height="1" fill="#000000"/>
<rect y="359" width="480" height="1" fill="#000000"/>
<g transform="translate(0.000000,360.000000) scale(0.100000,-0.100000)"
fill="#000000" stroke="none">
<path d="M0 2174 l0 -1427 117 7 c65 4 119 9 122 11 2 3 8 69 12 147 6 115 5
145 -5 153 -11 9 -7 24 21 83 31 65 37 72 63 72 43 0 108 31 114 55 10 35 6
101 -5 112 -19 19 -2 41 41 54 47 14 70 51 51 81 -7 11 -6 24 2 42 15 33 30
33 47 1 10 -20 11 -28 2 -37 -18 -18 -15 -63 5 -81 10 -8 30 -18 44 -22 l26
-7 -4 -86 -5 -87 37 -17 c20 -10 46 -18 58 -18 12 0 28 -4 34 -8 20 -13 64
-133 54 -146 -13 -17 -25 -282 -13 -290 5 -3 31 -3 56 0 l46 7 0 96 0 97 53
84 c30 46 58 85 64 87 6 2 33 -37 62 -87 49 -86 51 -93 51 -164 l0 -74 83 -6
c45 -3 181 -11 302 -16 121 -6 236 -13 255 -16 26 -4 53 -23 102 -72 37 -36
71 -62 75 -58 4 4 8 96 8 204 l0 197 45 67 c25 37 50 68 55 68 6 0 31 -33 57
-74 l47 -73 -6 -517 -6 -516 1316 0 1317 0 0 1800 0 1800 -2400 0 -2400 0 0
-1426z m3110 486 c22 -22 22 -25 25 -85 0 -22 10 -58 20 -80 20 -39 22 -40
113 -61 117 -27 128 -36 84 -75 -18 -16 -41 -29 -52 -29 -29 0 -25 -15 13 -44
l32 -26 -27 0 c-18 0 -28 -5 -28 -15 0 -8 -9 -15 -20 -15 -23 0 -26 -10 -7
-29 10 -11 8 -12 -12 -6 -22 7 -23 5 -17 -21 6 -22 5 -25 -6 -17 -7 6 -21 10
-31 10 -15 0 -16 -7 -11 -47 4 -30 2 -56 -6 -70 -7 -12 -8 -20 -3 -18 121 60
183 88 192 88 21 0 11 -68 -19 -125 -16 -31 -30 -61 -30 -65 0 -4 69 -7 153
-5 l152 4 -29 -24 c-27 -21 -27 -24 -10 -33 11 -5 34 -13 52 -17 33 -7 42 -19
20 -28 -22 -9 11 -25 65 -32 50 -7 49 -25 -1 -25 -33 0 -23 -23 15 -34 17 -5
36 -18 43 -29 11 -19 10 -20 -29 -13 -36 5 -41 4 -41 -13 0 -11 11 -28 25 -39
31 -25 32 -35 3 -27 -19 6 -21 5 -10 -6 19 -20 14 -31 -10 -24 -23 7 -23 7 -3
-9 17 -13 18 -17 5 -26 -13 -8 -12 -11 5 -16 11 -3 38 -14 60 -25 l40 -19 -33
5 c-20 3 -31 1 -27 -5 9 -14 -10 -12 -52 5 -19 8 -37 15 -38 15 -2 0 2 -11 8
-25 8 -16 23 -27 45 -31 17 -3 32 -11 32 -16 0 -10 -52 -4 -84 8 -17 7 -27
-41 -12 -57 8 -9 6 -10 -9 -4 -11 4 -31 10 -43 13 -24 5 -24 4 -8 -27 21 -39
8 -40 -29 -1 -16 17 -39 30 -53 30 -21 0 -24 -4 -20 -30 3 -17 1 -30 -3 -30
-4 0 -10 -12 -14 -27 -7 -28 -7 -28 -19 11 -10 35 -18 42 -74 67 l-62 28 0
-35 c0 -36 -36 -84 -62 -84 -36 0 -56 30 -68 100 -10 58 -17 75 -47 105 -19
19 -41 35 -49 35 -12 0 -64 -144 -64 -178 0 -6 -9 -16 -19 -22 -33 -17 -63 17
-69 79 -4 43 -9 54 -28 61 -13 5 -26 20 -30 34 -4 16 -11 23 -20 19 -13 -5
-12 -8 1 -24 12 -12 14 -23 8 -34 -7 -13 -16 -5 -49 40 -40 57 -64 70 -64 35
0 -12 -7 -20 -16 -20 -12 0 -15 7 -12 30 4 23 -1 33 -19 45 -15 11 -23 25 -23
45 0 28 2 30 41 30 33 0 47 6 69 30 15 17 47 41 70 54 79 45 94 164 27 219
-15 12 -26 31 -25 42 1 11 -4 41 -11 67 -12 43 -12 50 7 80 16 27 18 43 13 88
-4 30 -15 69 -24 86 -17 34 -24 34 -102 15 -50 -13 -58 -13 -50 -2 3 5 1 12
-5 16 -21 13 -8 27 45 51 30 14 55 29 55 33 0 4 -11 13 -25 19 -14 6 -25 16
-25 22 0 13 10 12 39 -4 37 -21 92 11 117 67 10 23 34 59 53 80 29 32 39 37
77 37 31 0 50 -6 64 -20z"/>
<path d="M3538 1903 c7 -3 16 -2 19 1 4 3 -2 6 -13 5 -11 0 -14 -3 -6 -6z"/>
<path d="M2864 1685 c-19 -14 -19 -14 2 -15 12 0 24 7 28 15 7 19 -5 19 -30 0z"/>
<path d="M3580 1450 c0 -5 14 -13 31 -19 41 -14 44 -14 30 3 -13 15 -61 28
-61 16z"/>
</g>
</svg>
