<?xml version="1.0" standalone="no"?>
<!DOCTYPE svg PUBLIC "-//W3C//DTD SVG 20010904//EN"
 "http://www.w3.org/TR/2001/REC-SVG-20010904/DTD/svg10.dtd">
<svg version="1.0" xmlns="http://www.w3.org/2000/svg"
 width="480.000000pt" height="360.000000pt" viewBox="0 0 480.000000 360.000000"
 preserveAspectRatio="xMidYMid meet">
<metadata>
Created by potrace 1.16, written by Peter Selinger 2001-2019
</metadata>
<rect width="1" height="360" fill="#000000"/>
<rect x="479" width="1" height="360" fill="#000000"/>
<rect width="480" height="1" fill="#000000"/>
<rect y="359" width="480" height="1" fill="#000000"/>
<g transform="translate(0.000000,360.000000) scale(0.100000,-0.100000)"
fill="#000000" stroke="none">
<path d="M0 2851 l0 -749 158 -7 c183 -9 426 0 528 20 40 7 98 27 130 43 76
38 186 78 249 92 167 37 404 49 596 30 57 -6 115 -12 128 -13 19 -2 26 4 32
28 10 34 42 74 82 99 20 14 27 26 27 51 l0 33 -72 -2 c-101 -2 -103 15 -8 106
l72 70 7 140 7 141 55 51 c93 86 308 186 401 186 49 0 73 -13 172 -93 55 -44
73 -54 87 -46 26 13 181 49 202 46 9 -2 22 -8 29 -15 20 -20 -6 -57 -87 -123
-41 -34 -75 -65 -75 -68 0 -3 30 -42 67 -85 59 -70 63 -78 40 -72 -27 6 -27 6
-20 -39 5 -38 3 -45 -11 -45 -9 0 -16 -6 -16 -12 0 -7 -16 -26 -35 -41 -41
-33 -44 -49 -12 -74 36 -29 38 -39 12 -67 -14 -15 -25 -33 -25 -41 0 -8 -16
-44 -35 -82 -19 -37 -35 -77 -35 -87 0 -30 -39 -103 -72 -136 -27 -27 -28 -31
-11 -37 10 -3 72 -28 138 -55 104 -42 123 -47 147 -37 24 10 36 6 105 -30 43
-22 104 -51 136 -65 53 -24 62 -33 58 -63 -1 -6 25 -26 56 -44 32 -18 103 -62
158 -97 82 -53 102 -62 117 -53 26 16 46 13 58 -9 6 -12 21 -20 36 -20 19 0
28 -7 35 -29 7 -19 19 -31 32 -33 15 -2 23 -11 25 -28 2 -14 10 -29 18 -33 8
-4 14 -16 14 -25 0 -10 52 -69 116 -132 190 -188 287 -316 481 -634 57 -94
116 -184 131 -200 33 -35 80 -56 126 -56 23 0 42 -7 56 -22 32 -34 61 -126 67
-209 5 -69 4 -78 -16 -98 -38 -38 -103 -10 -204 88 -93 89 -145 162 -272 381
-182 312 -299 468 -482 640 l-98 91 -47 -50 c-36 -37 -48 -57 -48 -80 0 -44
-29 -111 -49 -112 -9 0 -25 -2 -35 -4 -10 -2 -69 6 -130 17 -111 20 -166 21
-376 2 -59 -6 -69 -4 -104 21 l-39 26 -24 -28 c-22 -26 -24 -34 -19 -123 3
-52 19 -175 35 -272 25 -143 60 -529 61 -665 0 -10 204 -13 985 -13 l985 0 0
1800 0 1800 -2400 0 -2400 0 0 -749z"/>
<path d="M1197 2110 c-157 -25 -213 -46 -358 -135 -98 -61 -149 -80 -252 -96
-39 -7 -77 -17 -84 -23 -7 -6 -19 -78 -29 -161 -14 -125 -15 -210 -10 -509 10
-606 36 -881 107 -1148 l10 -38 613 0 614 0 6 28 c29 124 106 373 136 443 20
48 82 156 138 240 56 85 108 174 117 199 25 68 18 212 -24 552 -11 84 -22 189
-26 233 -6 60 -10 74 -16 58 -5 -13 -13 -23 -20 -23 -8 0 -9 34 -4 119 l7 118
-45 5 c-52 6 -119 38 -158 75 -41 38 -214 63 -464 68 -110 2 -226 0 -258 -5z"/>
<path d="M2750 1783 c0 -5 7 -18 15 -29 13 -18 14 -18 8 4 -5 22 -23 41 -23
25z"/>
<path d="M3090 1601 c-15 -30 -13 -40 20 -78 17 -18 30 -39 30 -46 0 -7 -34
-45 -77 -84 -67 -64 -73 -73 -52 -73 63 0 279 52 307 73 7 6 20 24 28 40 18
34 22 31 -111 110 -136 82 -132 80 -145 58z"/>
<path d="M1 133 l-1 -133 40 0 c22 0 40 2 40 5 0 6 -68 233 -75 250 -2 6 -4
-50 -4 -122z"/>
</g>
</svg>
