<?xml version="1.0" standalone="no"?>
<!DOCTYPE svg PUBLIC "-//W3C//DTD SVG 20010904//EN"
 "http://www.w3.org/TR/2001/REC-SVG-20010904/DTD/svg10.dtd">
<svg version="1.0" xmlns="http://www.w3.org/2000/svg"
 width="480.000000pt" height="360.000000pt" viewBox="0 0 480.000000 360.000000"
 preserveAspectRatio="xMidYMid meet">
<metadata>
Created by potrace 1.16, written by Peter Selinger 2001-2019
</metadata>
<rect width="1" height="360" fill="#000000"/>
<rect x="479" width="1" height="360" fill="#000000"/>
<rect width="480" height="1" fill="#000000"/>
<rect y="359" width="480" height="1" fill="#000000"/>
<g transform="translate(0.000000,360.000000) scale(0.100000,-0.100000)"
fill="#000000" stroke="none">
<path d="M0 1800 l0 -1800 990 0 c545 0 990 1 990 3 0 1 -7 36 -16 77 -16 72
-17 102 -11 400 l2 74 -60 12 c-33 6 -127 17 -208 23 -131 11 -150 11 -160 -2
-10 -12 -41 -16 -150 -19 -75 -2 -137 0 -137 3 0 3 -26 16 -57 29 -108 44
-163 86 -163 125 0 43 22 74 78 112 31 21 75 57 99 81 23 23 48 42 54 42 7 0
27 11 45 25 35 26 157 88 194 98 18 5 20 9 11 25 -13 25 -9 29 102 81 48 23
87 46 87 51 0 5 15 25 34 44 18 20 52 64 74 98 l40 61 -17 41 c-10 23 -27 68
-38 101 -11 33 -23 67 -27 76 -10 23 66 57 141 65 94 9 111 12 122 18 15 10
-18 307 -39 346 -12 22 -29 18 -90 -18 -95 -57 -253 -122 -279 -115 -11 3 -42
-3 -70 -12 -72 -24 -97 -16 -49 15 21 14 38 28 38 33 0 4 -50 7 -111 7 -61 0
-108 4 -105 9 3 5 -4 12 -17 15 l-22 7 25 11 c23 11 21 12 -32 21 -32 5 -58
13 -58 18 0 5 5 9 10 9 18 0 11 18 -10 25 -30 10 -24 23 26 54 40 26 43 30 25
36 -14 4 -21 15 -21 30 0 18 11 29 47 47 25 13 48 31 51 40 4 16 56 38 88 38
6 0 17 6 23 14 6 8 33 19 59 26 26 6 57 21 69 32 14 13 49 25 97 33 89 16 119
35 181 114 46 61 105 161 105 180 0 6 -12 14 -27 17 -16 4 -41 14 -58 23 -16
9 -41 18 -55 21 -23 5 -21 9 35 45 33 22 62 40 64 41 1 2 -14 20 -35 41 l-38
38 74 3 75 3 29 59 c16 33 33 60 37 60 15 0 29 -38 29 -79 0 -45 2 -46 90 -56
82 -9 150 -25 198 -48 34 -16 56 -19 107 -14 65 5 75 1 54 -20 -7 -7 -12 -33
-13 -60 -1 -45 2 -49 35 -68 l36 -20 -36 -24 c-22 -15 -56 -26 -88 -29 -48 -4
-53 -7 -53 -29 0 -29 17 -56 97 -156 74 -91 96 -133 112 -205 15 -72 14 -98
-5 -117 -17 -17 -17 -19 20 -80 l24 -40 83 -7 c158 -12 238 -9 322 13 82 21
104 21 188 -2 39 -10 47 -16 47 -35 0 -17 -6 -24 -19 -24 -12 0 -16 -5 -13
-15 5 -11 -1 -15 -21 -15 -14 0 -24 -4 -21 -9 8 -12 -18 -21 -60 -21 -20 0
-44 -4 -54 -10 -10 -5 -33 -10 -52 -11 -18 0 -115 -5 -215 -11 l-181 -11 -64
43 c-34 23 -80 48 -100 55 -54 18 -63 3 -62 -107 2 -90 12 -118 43 -118 9 0
24 -7 34 -14 17 -13 17 -17 2 -70 -19 -65 -29 -45 105 -199 74 -85 216 -207
241 -207 5 0 34 -16 64 -35 51 -33 179 -75 229 -75 58 0 262 -61 329 -99 l72
-39 -2 -45 c-2 -42 -1 -46 27 -56 27 -9 30 -14 30 -51 0 -58 -19 -89 -108
-177 -35 -35 -59 -48 -130 -69 -89 -27 -211 -36 -278 -20 -22 6 -56 0 -118
-19 -101 -31 -280 -65 -340 -65 -23 0 -76 -5 -119 -12 -77 -11 -77 -12 -87
-47 -19 -71 -40 -294 -29 -308 7 -8 9 -40 4 -93 l-7 -80 1196 0 1196 0 0 1800
0 1800 -2400 0 -2400 0 0 -1800z"/>
<path d="M2367 2508 c-8 -18 -18 -51 -22 -73 -4 -22 -11 -46 -17 -52 -7 -9 -6
-14 3 -17 60 -17 109 -40 124 -56 30 -33 38 -24 31 33 -5 35 -20 73 -47 115
-21 35 -39 67 -39 73 0 20 -19 7 -33 -23z"/>
<path d="M2213 508 c-23 -28 -28 -82 -26 -271 0 -131 5 -203 12 -210 8 -8 11
11 11 69 0 45 3 84 7 87 3 4 7 58 8 120 1 61 5 136 9 165 9 52 0 67 -21 40z"/>
</g>
</svg>
