<?xml version="1.0" standalone="no"?>
<!DOCTYPE svg PUBLIC "-//W3C//DTD SVG 20010904//EN"
 "http://www.w3.org/TR/2001/REC-SVG-20010904/DTD/svg10.dtd">
<svg version="1.0" xmlns="http://www.w3.org/2000/svg"
 width="480.000000pt" height="360.000000pt" viewBox="0 0 480.000000 360.000000"
 preserveAspectRatio="xMidYMid meet">
<metadata>
Created by potrace 1.16, written by Peter Selinger 2001-2019
</metadata>
<rect width="1" height="360" fill="#000000"/>
<rect x="479" width="1" height="360" fill="#000000"/>
<rect width="480" height="1" fill="#000000"/>
<rect y="359" width="480" height="1" fill="#000000"/>
<g transform="translate(0.000000,360.000000) scale(0.100000,-0.100000)"
fill="#000000" stroke="none">
<path d="M3341 3490 c-63 -16 -121 -35 -128 -43 -7 -7 -22 -43 -32 -80 -10
-38 -21 -70 -23 -73 -3 -2 -47 -11 -98 -20 -132 -21 -206 -59 -301 -154 -85
-85 -114 -132 -128 -212 -5 -29 -12 -64 -16 -78 l-7 -25 22 25 22 25 -7 -25
c-3 -14 -10 -41 -15 -60 -5 -19 -9 -46 -9 -60 0 -24 0 -24 14 -6 15 19 15 19
15 -3 0 -24 29 -81 41 -81 4 0 10 -10 14 -22 6 -21 7 -20 15 10 12 50 17 48
25 -8 8 -58 -1 -75 -53 -97 -46 -19 -49 -37 -13 -79 27 -30 31 -41 25 -70 -3
-19 -2 -40 3 -47 13 -17 30 -75 38 -125 4 -26 14 -46 25 -52 10 -6 57 -10 103
-10 100 0 97 4 104 -120 l5 -85 -69 -57 c-38 -32 -86 -76 -105 -98 -20 -22
-45 -40 -55 -40 -28 0 -72 -51 -84 -96 -13 -48 -38 -76 -106 -120 -58 -37 -88
-83 -80 -124 5 -24 -4 -36 -74 -100 -59 -54 -78 -77 -74 -90 6 -18 -11 -38
-22 -26 -3 3 -19 92 -35 198 -27 182 -42 434 -26 444 3 2 78 -14 165 -35 149
-37 196 -40 166 -10 -7 7 -88 40 -180 74 -164 61 -168 64 -186 101 -27 55 -62
89 -118 114 -45 19 -55 20 -116 9 -38 -7 -75 -18 -83 -24 -19 -16 -91 -12
-159 9 -65 19 -61 19 -61 5 0 -16 60 -63 91 -72 30 -8 49 -51 49 -113 0 -41
20 -66 58 -68 28 -3 35 -11 70 -78 l39 -75 7 -304 c9 -392 20 -548 40 -587 19
-38 74 -72 126 -79 52 -7 115 24 237 116 51 38 95 66 97 63 21 -38 32 -309 13
-328 -3 -4 -68 8 -144 24 -76 17 -173 36 -216 41 -74 10 -82 14 -135 61 -38
33 -105 73 -197 118 -110 54 -155 83 -211 133 -38 35 -151 137 -251 226 -198
177 -198 177 -258 125 -15 -13 -32 -21 -38 -19 -13 4 -77 -84 -77 -107 0 -7
17 -29 37 -46 210 -182 273 -244 273 -271 0 -16 17 -50 44 -86 24 -32 46 -71
50 -88 4 -16 36 -69 72 -118 64 -87 65 -87 109 -87 25 0 85 -9 133 -19 48 -11
112 -22 142 -26 127 -15 202 -37 239 -70 46 -42 114 -75 222 -110 l85 -28 11
-62 c6 -34 19 -74 28 -89 l17 -26 644 0 c396 0 644 4 644 9 0 6 -21 38 -47 73
-39 51 -68 75 -111 94 -2 1 -14 73 -29 160 -18 117 -26 206 -28 338 -3 159 -5
182 -23 205 -10 14 -31 27 -45 29 -27 3 -33 16 -21 46 5 13 10 12 37 -5 26
-15 51 -19 125 -19 91 0 104 4 80 28 -9 9 -2 12 32 12 67 0 92 9 85 30 -6 20
27 30 96 30 45 0 50 13 13 36 -19 13 -22 19 -12 25 24 15 48 10 48 -10 0 -28
17 -35 25 -11 3 11 11 20 16 20 14 0 11 -36 -6 -76 -18 -44 -49 -204 -41 -212
4 -3 27 16 52 44 38 41 44 45 40 24 -20 -97 -37 -216 -34 -243 l3 -32 22 35
22 35 -6 -128 c-3 -73 -2 -127 3 -127 5 0 22 16 37 36 16 19 30 34 32 32 2 -2
-3 -37 -11 -78 -24 -128 -22 -131 56 -69 28 22 53 39 55 37 2 -2 -3 -31 -11
-63 -9 -33 -17 -75 -19 -93 -2 -32 -2 -32 18 -15 19 18 19 17 13 -12 -3 -16
-2 -36 3 -44 7 -11 12 -8 26 13 20 30 32 33 37 9 2 -10 14 11 27 47 13 36 30
74 38 85 15 19 15 19 10 -5 -3 -14 -16 -70 -30 -125 -14 -55 -27 -115 -31
-132 l-5 -33 229 0 229 0 4 23 4 22 2 -22 c1 -19 7 -23 31 -23 l30 0 0 829 0
828 -77 45 c-240 139 -484 379 -603 591 -17 31 -34 57 -36 57 -2 0 -15 -25
-29 -55 -15 -36 -32 -58 -48 -64 -14 -5 -49 -47 -82 -95 -31 -47 -59 -86 -61
-86 -3 0 -5 62 -6 138 0 75 -1 164 -2 197 0 33 7 95 17 137 28 127 23 213 -21
359 -45 147 -69 192 -146 273 -31 33 -56 64 -56 70 0 6 7 32 14 57 l14 47 -53
65 c-45 55 -139 128 -163 127 -4 -1 -58 -14 -121 -30z m367 -1622 c-2 -12 -8
-23 -14 -25 -7 -2 -10 6 -7 22 6 30 26 34 21 3z m-164 -127 c7 -10 -22 -37
-30 -28 -9 8 3 37 15 37 5 0 12 -4 15 -9z m-99 -37 c8 -44 -1 -56 -15 -20 -12
33 -13 56 -1 56 5 0 12 -16 16 -36z m-9 -1058 c8 -63 13 -154 12 -203 l-3 -88
-37 95 -36 95 14 105 c7 58 14 114 14 125 2 51 22 -22 36 -129z"/>
</g>
</svg>
