<?xml version="1.0" standalone="no"?>
<!DOCTYPE svg PUBLIC "-//W3C//DTD SVG 20010904//EN"
 "http://www.w3.org/TR/2001/REC-SVG-20010904/DTD/svg10.dtd">
<svg version="1.0" xmlns="http://www.w3.org/2000/svg"
 width="480.000000pt" height="360.000000pt" viewBox="0 0 480.000000 360.000000"
 preserveAspectRatio="xMidYMid meet">
<metadata>
Created by potrace 1.16, written by Peter Selinger 2001-2019
</metadata>
<rect width="1" height="360" fill="#000000"/>
<rect x="479" width="1" height="360" fill="#000000"/>
<rect width="480" height="1" fill="#000000"/>
<rect y="359" width="480" height="1" fill="#000000"/>
<g transform="translate(0.000000,360.000000) scale(0.100000,-0.100000)"
fill="#000000" stroke="none">
<path d="M1455 3126 c-162 -39 -321 -192 -403 -388 -23 -54 -27 -78 -27 -163
0 -92 2 -105 32 -166 46 -92 136 -188 220 -231 95 -49 157 -62 269 -55 76 5
93 4 98 -8 3 -8 14 -15 25 -15 10 0 21 -7 25 -15 6 -17 -9 -21 -19 -5 -15 24
-74 9 -138 -33 -35 -24 -85 -51 -110 -61 -26 -10 -56 -25 -68 -35 -19 -16 -20
-20 -8 -59 10 -36 10 -44 -3 -59 -21 -24 -68 -119 -68 -137 0 -9 9 -20 19 -26
16 -8 23 -5 39 15 l20 25 53 -29 c30 -16 56 -36 57 -46 6 -28 -7 -61 -32 -86
-14 -14 -21 -28 -16 -34 4 -5 10 -21 12 -35 2 -19 10 -26 31 -28 18 -2 27 -9
27 -22 0 -10 7 -82 16 -161 9 -79 15 -190 14 -246 -1 -95 0 -102 20 -113 20
-11 22 -18 18 -62 -4 -37 -11 -55 -27 -67 -19 -14 -23 -30 -28 -108 -5 -83 -4
-92 16 -112 29 -29 30 -113 1 -134 -44 -31 -51 -215 -9 -237 15 -9 19 -21 19
-64 0 -43 -4 -56 -25 -74 -45 -39 -33 -50 50 -49 84 0 94 10 50 51 -35 32 -34
87 2 139 24 35 27 49 28 122 0 73 -3 86 -23 107 -19 21 -21 31 -15 73 4 32 14
55 27 66 17 14 21 31 24 93 5 90 -2 123 -26 130 -27 9 -18 97 14 127 13 12 24
29 24 37 0 11 9 13 44 8 39 -6 175 5 248 20 l28 6 -34 -72 c-19 -39 -40 -103
-48 -143 -15 -83 -18 -489 -5 -659 l9 -108 395 0 395 0 -29 34 c-26 28 -32 47
-42 123 -15 122 -14 151 9 224 18 60 87 176 144 244 l25 30 -6 -79 c-7 -94 5
-96 33 -6 11 33 22 60 25 60 4 0 39 -162 44 -210 1 -8 7 -40 14 -70 6 -30 20
-104 30 -165 l19 -109 -31 -29 c-31 -29 -42 -27 -49 8 -6 36 -34 29 -51 -15
l-15 -40 337 0 c323 0 339 1 364 20 40 32 67 98 67 167 0 114 -48 208 -209
408 -65 80 -80 105 -76 125 3 14 14 90 25 170 39 282 69 404 150 613 18 46 25
55 36 46 8 -6 14 -8 15 -3 0 5 6 -7 13 -26 17 -47 47 -51 77 -11 13 17 26 31
30 31 21 0 169 171 169 195 0 6 8 20 19 29 10 9 27 38 37 64 9 26 23 53 30 59
15 15 44 138 44 186 0 45 -30 82 -92 113 -74 37 -141 36 -221 -5 -55 -28 -66
-30 -95 -20 -18 6 -39 8 -48 5 -34 -13 -5 21 62 72 38 29 124 96 192 148 l123
95 26 -21 c36 -28 93 -42 129 -31 16 5 54 20 84 34 30 14 74 28 97 32 81 13
77 55 -12 117 -48 34 -49 42 -8 53 42 10 73 33 67 50 -3 8 -21 20 -40 27 -19
6 -34 15 -34 18 0 4 67 73 150 154 82 82 150 153 150 158 0 14 -36 1 -140 -54
-83 -43 -179 -104 -520 -330 -61 -40 -418 -228 -433 -228 -3 0 -8 16 -11 35
-4 19 -17 41 -29 50 -24 17 -87 21 -87 5 0 -5 5 -10 10 -10 18 0 11 -26 -14
-49 -43 -40 -90 -44 -181 -13 -65 22 -95 27 -165 25 -91 -2 -309 -50 -240 -52
l35 -2 -39 -20 c-22 -12 -51 -32 -65 -46 l-26 -24 28 10 c32 13 35 1 6 -25
-32 -28 -61 -99 -63 -155 -2 -50 6 -63 19 -31 6 13 10 7 15 -23 5 -22 6 -42 4
-44 -6 -7 -57 -5 -92 4 l-34 8 4 -54 c2 -43 0 -54 -12 -54 -22 0 -24 30 -3 93
11 34 18 87 18 133 0 67 -4 83 -38 151 -61 124 -149 185 -289 202 -39 5 -58
12 -58 21 0 8 -8 18 -17 24 -12 6 -23 37 -34 95 -25 124 -57 187 -137 265 -79
78 -165 126 -259 146 -80 17 -101 17 -168 1z m445 -1304 c112 -50 240 -40 353
29 56 35 70 36 108 8 27 -19 29 -24 23 -68 l-6 -47 56 -42 c31 -24 56 -44 56
-45 0 -13 -133 -293 -145 -307 -20 -22 -125 -55 -205 -65 -76 -10 -279 -51
-313 -64 -34 -13 -31 -21 -57 144 -21 137 -20 142 24 158 8 3 7 10 -1 23 -63
95 -78 173 -44 230 12 20 24 56 28 80 l6 44 31 -27 c17 -14 56 -37 86 -51z
m-492 -63 c3 -15 -36 -44 -46 -35 -3 3 1 17 8 31 14 27 33 29 38 4z m222 -796
c0 -5 -18 -8 -40 -8 -39 0 -40 0 -40 36 0 19 2 38 5 41 6 6 75 -57 75 -69z
m-10 -272 c0 -21 -3 -53 -6 -70 -5 -26 -9 -29 -21 -19 -11 9 -19 9 -34 0 -19
-12 -20 -10 -17 55 3 68 3 68 31 65 15 -2 27 1 27 8 0 6 5 8 10 5 6 -3 10 -23
10 -44z m-43 -323 c12 33 23 4 23 -63 0 -75 -5 -86 -28 -63 -9 9 -15 9 -24 0
-7 -7 -16 -12 -20 -12 -9 0 -11 94 -2 127 5 19 9 20 26 10 16 -9 22 -9 25 1z"/>
</g>
</svg>
