<?xml version="1.0" standalone="no"?>
<!DOCTYPE svg PUBLIC "-//W3C//DTD SVG 20010904//EN"
 "http://www.w3.org/TR/2001/REC-SVG-20010904/DTD/svg10.dtd">
<svg version="1.0" xmlns="http://www.w3.org/2000/svg"
 width="480.000000pt" height="360.000000pt" viewBox="0 0 480.000000 360.000000"
 preserveAspectRatio="xMidYMid meet">
<metadata>
Created by potrace 1.16, written by Peter Selinger 2001-2019
</metadata>
<rect width="1" height="360" fill="#000000"/>
<rect x="479" width="1" height="360" fill="#000000"/>
<rect width="480" height="1" fill="#000000"/>
<rect y="359" width="480" height="1" fill="#000000"/>
<g transform="translate(0.000000,360.000000) scale(0.100000,-0.100000)"
fill="#000000" stroke="none">
<path d="M3340 3458 c-72 -18 -121 -36 -131 -48 -9 -10 -22 -46 -29 -79 -7
-33 -18 -65 -24 -70 -6 -4 -46 -13 -89 -20 -114 -16 -178 -50 -273 -145 -91
-91 -108 -119 -128 -208 -7 -35 -17 -72 -21 -83 -8 -20 -8 -20 13 -1 23 20 29
9 13 -22 -5 -9 -12 -42 -15 -72 -6 -51 -6 -54 9 -36 14 19 15 19 15 -7 0 -37
30 -83 41 -65 6 9 9 6 9 -9 0 -36 20 -27 21 10 1 31 2 31 10 -8 16 -80 13 -91
-31 -109 -48 -19 -50 -37 -10 -82 24 -27 28 -40 23 -64 -4 -21 0 -36 11 -49 9
-10 14 -20 11 -23 -3 -3 2 -21 10 -41 8 -20 15 -47 15 -61 0 -49 25 -59 121
-52 100 8 94 14 105 -110 l7 -70 -79 -66 c-44 -36 -90 -78 -103 -92 -14 -14
-32 -26 -40 -26 -36 0 -79 -39 -97 -87 -10 -26 -33 -65 -51 -86 -40 -45 -53
-75 -53 -126 0 -20 -9 -54 -20 -76 -11 -22 -20 -50 -20 -63 0 -34 -46 -158
-71 -194 -12 -17 -19 -37 -16 -49 6 -23 -1 -49 -13 -49 -4 0 -22 33 -40 73
-18 39 -55 116 -81 170 -43 88 -50 109 -59 203 -6 57 -15 116 -21 131 -5 14
-7 28 -4 31 3 3 76 7 162 9 174 4 226 10 218 23 -6 10 -65 18 -250 34 l-146
13 -37 35 c-67 65 -132 87 -178 63 -16 -8 -41 -15 -56 -15 -16 0 -34 -9 -46
-25 -27 -34 -66 -48 -141 -49 -35 -1 -66 -6 -68 -12 -4 -12 59 -44 90 -44 21
0 35 -23 61 -102 3 -10 15 -18 28 -18 32 0 38 -6 90 -88 30 -48 51 -94 58
-130 12 -61 49 -176 99 -309 17 -46 28 -83 25 -83 -22 0 -70 39 -104 85 -22
30 -62 72 -88 93 -212 168 -193 147 -464 520 -79 108 -83 112 -119 112 -30 0
-42 6 -62 32 -21 26 -28 30 -40 19 -10 -8 -17 -9 -22 -1 -12 20 -23 10 -34
-34 -6 -24 -17 -49 -26 -56 -8 -7 -15 -16 -15 -20 0 -4 56 -84 124 -178 86
-118 121 -174 115 -183 -11 -19 -2 -54 32 -119 16 -30 27 -64 25 -75 -4 -24
11 -68 54 -157 32 -67 59 -88 112 -88 10 0 47 -13 81 -29 34 -16 87 -37 117
-46 30 -10 84 -31 120 -47 55 -24 69 -36 89 -74 28 -52 63 -82 258 -223 79
-56 145 -107 149 -112 3 -5 -10 -27 -29 -49 -51 -55 -57 -110 -23 -186 14 -31
26 -69 26 -85 l0 -29 630 0 630 0 0 33 c0 51 -102 187 -141 187 -20 0 -22 7
-50 190 -14 95 -22 203 -24 311 -3 178 -8 200 -54 224 -22 11 -28 20 -24 35 7
25 5 25 50 -5 33 -23 45 -25 117 -23 79 3 81 4 78 27 -4 23 -3 24 58 17 l62
-7 -6 24 c-5 21 -2 25 25 31 17 3 48 6 69 6 36 0 37 2 56 55 10 31 26 63 35
71 15 14 17 9 24 -53 l7 -68 16 30 17 30 3 -29 c2 -15 -1 -40 -7 -55 -13 -30
-40 -203 -34 -211 3 -3 11 4 19 15 33 46 88 114 91 111 1 -1 -2 -18 -7 -37
-12 -40 -42 -281 -36 -287 3 -2 13 11 23 30 l18 33 5 -125 5 -125 39 53 c21
29 40 51 42 49 2 -2 0 -17 -5 -33 -14 -49 -24 -174 -14 -174 5 0 34 22 64 49
l55 49 -22 -96 c-12 -54 -20 -99 -17 -102 2 -2 15 9 29 25 l25 30 -6 -35 c-4
-19 -9 -43 -11 -52 -8 -27 15 -21 28 7 13 29 25 32 30 8 3 -10 12 6 21 37 19
60 66 153 67 132 0 -8 -7 -37 -15 -65 -13 -47 -55 -276 -55 -304 0 -8 55 -12
204 -13 l203 -1 19 88 c17 81 19 151 21 835 l3 746 -67 38 c-263 146 -471 330
-613 542 -27 40 -52 73 -56 73 -3 0 -16 -22 -29 -48 -12 -26 -30 -54 -39 -62
-10 -8 -38 -46 -64 -85 l-47 -71 -2 45 c-2 25 -7 115 -13 200 -9 131 -9 165 4
220 28 116 21 204 -24 343 -44 135 -75 191 -157 282 -43 48 -53 64 -48 83 18
73 18 76 -25 130 -38 48 -92 92 -145 119 -15 8 -48 3 -135 -19z m400 -1562 c0
-8 -4 -18 -10 -21 -5 -3 -10 3 -10 14 0 12 5 21 10 21 6 0 10 -6 10 -14z
m-133 -118 c-3 -8 -6 -5 -6 6 -1 11 2 17 5 13 3 -3 4 -12 1 -19z m-141 -37
c22 18 37 -30 16 -53 -8 -10 -18 -18 -23 -18 -8 0 -29 56 -29 79 1 13 2 13 11
-2 8 -14 14 -16 25 -6z m424 -647 c0 -12 -4 -13 -21 -3 -17 9 -19 13 -8 19 16
11 29 4 29 -16z m-476 -436 c18 -141 21 -267 7 -253 -5 6 -24 48 -41 93 l-32
84 11 96 c22 175 32 172 55 -20z"/>
<path d="M4787 53 c-4 -21 -2 -42 3 -47 7 -7 10 7 10 37 0 57 -5 60 -13 10z"/>
</g>
</svg>
