<?xml version="1.0" standalone="no"?>
<!DOCTYPE svg PUBLIC "-//W3C//DTD SVG 20010904//EN"
 "http://www.w3.org/TR/2001/REC-SVG-20010904/DTD/svg10.dtd">
<svg version="1.0" xmlns="http://www.w3.org/2000/svg"
 width="480.000000pt" height="360.000000pt" viewBox="0 0 480.000000 360.000000"
 preserveAspectRatio="xMidYMid meet">
<metadata>
Created by potrace 1.16, written by Peter Selinger 2001-2019
</metadata>
<rect width="1" height="360" fill="#000000"/>
<rect x="479" width="1" height="360" fill="#000000"/>
<rect width="480" height="1" fill="#000000"/>
<rect y="359" width="480" height="1" fill="#000000"/>
<g transform="translate(0.000000,360.000000) scale(0.100000,-0.100000)"
fill="#000000" stroke="none">
<path d="M0 2750 l0 -850 26 0 c55 0 300 43 431 75 183 44 328 97 523 190 88
41 172 78 187 81 25 4 39 -6 118 -83 50 -49 140 -134 201 -190 62 -56 149
-146 195 -200 128 -150 206 -234 262 -282 99 -83 256 -138 407 -142 92 -2 100
-1 100 14 0 18 75 169 117 237 70 111 172 193 313 251 57 23 90 46 90 61 0 5
-4 7 -9 4 -11 -7 -21 17 -21 49 0 41 -18 37 -45 -10 -29 -49 -51 -61 -34 -19
5 15 8 27 7 28 -2 0 -13 7 -25 14 -30 16 -29 16 -43 -18 -18 -43 -28 -29 -22
30 2 27 1 50 -4 50 -4 0 -25 -17 -46 -37 -42 -41 -49 -35 -18 15 41 67 15 84
-41 26 -18 -20 -43 -40 -54 -46 -19 -11 -19 -11 0 18 27 42 55 101 55 117 0
16 -21 27 -51 27 -29 0 -34 26 -10 56 39 49 28 77 -44 114 -42 21 -44 16 -8
-23 22 -24 24 -27 7 -19 -11 6 -26 18 -34 26 -16 20 -31 21 -24 2 8 -22 -35
-8 -49 15 -7 11 -15 19 -20 19 -4 0 -5 -4 -2 -10 3 -5 1 -10 -4 -10 -6 0 -11
4 -11 8 0 5 -9 17 -19 29 -10 11 -24 46 -31 79 l-12 58 -25 -44 c-17 -32 -22
-37 -19 -19 8 38 -2 41 -43 14 -41 -29 -69 -31 -97 -10 -10 8 -25 15 -32 15
-19 0 -62 50 -62 72 0 10 8 22 18 25 19 7 182 145 221 187 25 26 25 26 8 79
-9 29 -20 75 -23 101 -6 40 -4 50 15 70 13 13 38 27 56 30 29 6 38 15 58 59
40 86 101 152 205 221 129 86 229 125 335 133 88 6 218 -8 313 -33 33 -9 76
-16 98 -15 36 1 45 -5 141 -102 127 -127 179 -204 200 -301 17 -75 15 -105
-17 -248 -14 -68 -8 -86 66 -186 32 -43 60 -69 91 -84 52 -25 63 -49 41 -83
-19 -28 -32 -31 -55 -12 -17 14 -121 41 -129 33 -2 -3 6 -19 19 -37 l23 -32
-22 5 c-27 8 -28 -2 -1 -53 11 -23 18 -43 15 -46 -3 -3 -21 5 -40 17 -20 12
-43 20 -52 18 -14 -3 -13 -7 5 -30 20 -25 20 -58 0 -58 -4 0 -6 -7 -3 -15 9
-21 -10 -19 -31 5 -20 22 -24 23 -43 11 -11 -7 -11 -16 -2 -47 7 -22 10 -52 8
-68 l-3 -29 -45 38 c-24 20 -46 32 -48 26 -2 -6 -10 -11 -18 -11 -11 0 -11 -6
-3 -27 7 -19 6 -28 -2 -33 -8 -6 -8 -13 0 -28 17 -31 13 -37 -9 -17 -23 21
-25 11 -5 -25 21 -38 18 -56 -5 -29 l-20 24 20 -48 c27 -64 25 -69 -10 -27
l-29 35 -1 -27 c0 -23 9 -32 68 -62 37 -20 80 -48 96 -63 17 -15 59 -90 98
-170 l69 -143 84 0 c95 0 218 15 286 35 32 9 83 12 170 8 195 -8 346 37 462
137 l47 42 0 959 0 959 -2400 0 -2400 0 0 -850z"/>
<path d="M1098 2066 c-73 -39 -128 -76 -128 -86 0 -5 5 -12 11 -16 6 -3 8 -18
5 -33 -4 -20 2 -32 23 -51 16 -14 48 -61 71 -104 38 -70 42 -84 37 -125 -17
-133 -86 -588 -92 -603 -8 -21 -19 -23 -32 -5 -6 6 -51 129 -102 272 -50 143
-99 277 -108 297 -15 35 -14 41 12 135 19 70 34 105 52 121 23 21 24 25 11 38
-13 13 -23 11 -81 -15 -81 -37 -201 -75 -284 -91 -73 -14 -88 -38 -45 -69 38
-27 112 -163 112 -206 0 -19 -4 -67 -10 -107 -5 -40 -19 -152 -30 -248 -27
-228 -29 -243 -40 -254 -7 -7 -15 -5 -24 4 -7 8 -66 143 -131 299 l-118 283
24 95 c16 62 31 101 46 115 20 19 21 23 8 49 -16 31 -1 30 -181 9 l-102 -12
-1 -879 -2 -879 1154 0 1154 0 23 113 c24 118 63 254 86 298 7 15 23 109 34
210 11 101 30 242 40 313 24 154 24 156 6 156 -8 0 -27 5 -41 10 l-27 10 36
40 c20 22 36 43 36 48 0 4 -35 7 -78 7 l-77 0 27 -25 c14 -14 42 -63 62 -109
l35 -84 -60 -306 c-66 -336 -75 -374 -92 -368 -7 2 -18 20 -24 40 -26 79 -166
603 -166 622 1 35 56 177 80 205 19 23 21 33 13 54 -5 15 -22 31 -37 37 -30
12 -210 59 -224 59 -8 0 15 -69 47 -138 15 -32 14 -44 -16 -200 -101 -537 -96
-520 -121 -495 -10 10 -49 130 -84 258 -7 28 -34 121 -59 207 -25 87 -46 168
-46 180 0 48 52 183 80 208 22 20 27 33 26 67 -1 35 -12 58 -63 130 -62 87
-168 202 -178 192 -3 -3 11 -39 31 -79 l35 -73 -16 -96 c-9 -53 -33 -201 -54
-329 -38 -234 -51 -276 -74 -237 -10 17 -83 239 -177 542 l-29 92 25 77 c13
42 24 82 24 89 0 6 11 22 25 35 14 13 25 32 25 42 0 11 4 27 10 37 7 15 -11
38 -105 134 -63 65 -116 117 -118 117 -2 0 -24 -11 -49 -24z"/>
<path d="M3002 2058 c-15 -15 -16 -45 -2 -53 13 -8 34 45 22 57 -4 4 -13 3
-20 -4z"/>
<path d="M3330 1922 c0 -5 7 -15 15 -22 8 -7 15 -8 15 -2 0 5 -7 15 -15 22 -8
7 -15 8 -15 2z"/>
<path d="M4570 1440 c-131 -27 -153 -35 -164 -53 -8 -13 -4 -23 20 -49 17 -18
46 -66 64 -106 l34 -74 -17 -86 c-10 -48 -33 -170 -53 -272 -48 -254 -58 -279
-84 -229 -11 19 -84 255 -151 485 l-29 102 30 83 c17 47 41 91 53 101 12 9 19
19 16 23 -4 3 -53 1 -109 -5 -56 -5 -138 -10 -181 -10 -79 0 -79 0 -79 -26 0
-15 7 -32 16 -38 18 -14 84 -160 84 -187 0 -16 -24 -154 -85 -479 -8 -47 -20
-96 -26 -109 -15 -36 -31 -13 -62 89 -14 47 -49 165 -78 263 -29 97 -54 175
-56 173 -7 -7 26 -479 38 -542 11 -58 6 -276 -10 -427 l-7 -67 533 0 533 0 -3
363 -3 362 -48 150 c-26 83 -66 206 -87 274 l-40 124 22 66 c12 36 28 78 36
94 17 33 14 33 -107 7z"/>
<path d="M3733 1329 l-32 -20 16 -35 c17 -35 33 -45 33 -21 0 8 9 22 20 32 22
20 27 65 8 64 -7 0 -27 -10 -45 -20z"/>
</g>
</svg>
