<?xml version="1.0" standalone="no"?>
<!DOCTYPE svg PUBLIC "-//W3C//DTD SVG 20010904//EN"
 "http://www.w3.org/TR/2001/REC-SVG-20010904/DTD/svg10.dtd">
<svg version="1.0" xmlns="http://www.w3.org/2000/svg"
 width="480.000000pt" height="360.000000pt" viewBox="0 0 480.000000 360.000000"
 preserveAspectRatio="xMidYMid meet">
<metadata>
Created by potrace 1.16, written by Peter Selinger 2001-2019
</metadata>
<rect width="1" height="360" fill="#000000"/>
<rect x="479" width="1" height="360" fill="#000000"/>
<rect width="480" height="1" fill="#000000"/>
<rect y="359" width="480" height="1" fill="#000000"/>
<g transform="translate(0.000000,360.000000) scale(0.100000,-0.100000)"
fill="#000000" stroke="none">
<path d="M0 1800 l0 -1800 1010 0 1010 0 0 43 c0 23 -3 59 -6 79 -6 33 -10 38
-34 38 -34 0 -111 51 -150 100 -81 103 -81 231 1 316 27 28 28 33 18 62 -14
41 -5 92 21 120 16 17 18 26 11 41 -6 10 -17 21 -25 24 -14 6 -24 50 -32 142
-2 28 -7 65 -10 83 -5 25 -2 38 14 55 11 12 25 39 32 60 6 20 15 37 20 37 5 0
12 17 15 38 12 68 25 90 64 106 l38 15 6 107 c4 59 7 154 7 211 0 81 3 103 14
103 25 0 35 25 49 120 9 59 24 115 40 146 l26 50 -60 245 c-33 134 -80 330
-105 434 -25 105 -51 208 -56 230 -23 85 12 315 47 315 15 0 98 -97 122 -143
14 -29 46 -195 133 -702 48 -281 46 -275 69 -275 41 0 55 -46 16 -56 -30 -8
-32 -20 -4 -29 47 -15 77 -161 45 -223 -12 -24 -11 -40 9 -132 l23 -105 3 185
c2 102 3 539 1 973 l-2 787 -1190 0 -1190 0 0 -1800z"/>
<path d="M2236 1563 c-3 -21 -6 -57 -6 -81 l0 -43 23 22 c33 31 66 41 99 30
l28 -10 0 61 c0 61 0 61 -20 43 -27 -24 -88 -25 -105 -2 -11 15 -13 13 -19
-20z"/>
<path d="M2386 1463 c-8 -8 -8 -800 1 -1170 l6 -293 339 0 c186 0 338 3 338 8
-1 4 -9 23 -18 42 -19 37 -34 41 -99 26 -27 -6 -33 -5 -33 9 0 33 -33 72 -96
115 l-64 43 0 56 c0 31 5 75 10 98 13 55 -1 119 -37 176 -16 24 -26 53 -24 67
4 34 8 36 31 15 24 -22 25 -18 5 28 -20 48 -19 55 8 59 l22 3 -22 20 c-27 23
-28 36 -7 78 23 45 54 77 76 77 22 0 22 -1 -1 53 -13 29 -16 48 -9 55 11 11
-34 126 -63 158 -10 11 -26 43 -34 71 -14 48 -19 53 -97 99 -53 31 -95 49
-117 50 -23 1 -47 12 -72 32 -20 17 -39 28 -43 25z m314 -935 c39 -53 40 -75
4 -51 -14 9 -47 22 -72 28 -49 13 -57 21 -43 44 8 13 12 13 27 0 15 -12 18
-12 28 4 16 25 22 22 56 -25z"/>
<path d="M1853 528 c-50 -55 -58 -116 -24 -170 22 -36 74 -81 116 -100 22 -10
29 -9 47 9 19 19 20 26 10 82 -6 33 -21 76 -34 94 -24 36 -85 107 -91 107 -2
0 -13 -10 -24 -22z"/>
</g>
</svg>
