<?xml version="1.0" standalone="no"?>
<!DOCTYPE svg PUBLIC "-//W3C//DTD SVG 20010904//EN"
 "http://www.w3.org/TR/2001/REC-SVG-20010904/DTD/svg10.dtd">
<svg version="1.0" xmlns="http://www.w3.org/2000/svg"
 width="480.000000pt" height="360.000000pt" viewBox="0 0 480.000000 360.000000"
 preserveAspectRatio="xMidYMid meet">
<metadata>
Created by potrace 1.16, written by Peter Selinger 2001-2019
</metadata>
<rect width="1" height="360" fill="#000000"/>
<rect x="479" width="1" height="360" fill="#000000"/>
<rect width="480" height="1" fill="#000000"/>
<rect y="359" width="480" height="1" fill="#000000"/>
<g transform="translate(0.000000,360.000000) scale(0.100000,-0.100000)"
fill="#000000" stroke="none">
<path d="M0 1800 l0 -1800 2400 0 2400 0 0 1800 0 1800 -2400 0 -2400 0 0
-1800z m2136 881 c65 6 71 0 49 -53 -6 -15 -1 -18 34 -18 34 0 46 6 73 36 51
56 81 67 159 61 62 -5 75 -11 158 -67 50 -34 91 -65 91 -71 0 -15 -38 -10 -90
12 -70 30 -94 24 -98 -25 -4 -45 -3 -46 89 -81 82 -32 113 -58 99 -85 -9 -16
-5 -21 25 -31 19 -7 35 -19 35 -25 0 -7 8 -15 18 -18 9 -3 23 -15 30 -26 10
-17 10 -20 -3 -20 -13 0 -14 -4 -5 -21 9 -16 8 -20 -2 -18 -7 1 -25 -1 -41 -5
-18 -6 -33 -4 -42 4 -13 11 -18 10 -29 -5 -8 -11 -20 -16 -29 -12 -9 3 -19 2
-22 -4 -4 -5 -11 -7 -16 -4 -20 13 -49 13 -49 1 0 -26 31 -87 40 -81 6 4 17
19 25 35 13 24 71 57 82 46 2 -2 9 -39 16 -82 l12 -78 60 -12 c33 -7 95 -15
138 -19 68 -6 77 -9 77 -27 0 -19 -4 -20 -57 -14 -32 4 -70 9 -85 12 -42 8
-34 -8 17 -35 l45 -24 161 28 c120 20 176 26 222 21 118 -13 136 -17 130 -32
-3 -9 1 -14 12 -14 9 0 13 -4 10 -10 -9 -14 13 -50 30 -50 8 0 15 -7 15 -16 0
-11 6 -14 21 -9 14 5 26 0 38 -14 10 -12 23 -21 30 -21 16 0 14 -11 -6 -25
-14 -10 -15 -16 -5 -27 14 -17 13 -68 -1 -68 -5 0 -4 -7 3 -15 10 -13 9 -15
-11 -16 -17 -1 -19 -3 -6 -6 9 -2 17 -8 17 -12 0 -12 -52 -6 -79 8 -21 12 -23
11 -18 -3 5 -11 -5 -22 -33 -36 -41 -21 -50 -35 -27 -43 6 -2 -1 -4 -18 -3
-16 1 -45 10 -63 20 -44 23 -52 14 -12 -14 17 -12 29 -24 27 -27 -3 -2 -26 12
-51 31 -50 38 -80 48 -191 66 -128 21 -220 42 -249 57 -27 14 -32 13 -72 -6
-28 -15 -51 -20 -69 -15 -25 6 -25 6 -19 -35 10 -65 -25 -93 -65 -49 l-20 21
-10 -26 c-6 -15 -16 -27 -24 -27 -26 0 -37 25 -37 81 l0 57 -37 6 c-53 8 -47
8 -155 0 -109 -8 -130 0 -126 45 3 23 -1 26 -42 32 -25 4 -124 12 -220 18 -96
6 -188 14 -203 16 -47 8 -20 -12 33 -25 38 -9 50 -16 50 -31 0 -12 16 -27 45
-42 40 -20 44 -25 33 -40 -12 -15 -26 -10 -161 58 -81 41 -154 75 -162 75 -9
0 -18 -7 -22 -16 -3 -8 -12 -13 -20 -9 -11 3 -13 1 -9 -10 10 -28 -32 2 -46
33 -12 24 -21 28 -78 35 -51 6 -70 13 -87 33 -24 26 -29 49 -14 59 5 3 87 -4
183 -14 95 -11 236 -25 313 -31 77 -7 178 -15 225 -20 l85 -8 35 38 c20 20 44
55 55 76 11 22 30 55 42 76 18 30 20 38 9 47 -8 7 -22 45 -31 85 -17 72 -18
74 -56 85 -52 16 -67 45 -42 79 41 55 103 49 103 -10 0 -29 38 -108 53 -108 4
0 7 7 7 15 0 9 7 27 16 40 23 35 11 75 -21 75 -26 0 -71 52 -60 70 3 5 -3 10
-14 10 -11 0 -23 4 -26 10 -3 5 -33 23 -67 39 -74 37 -118 74 -118 102 0 18 5
21 35 17 19 -2 35 -2 35 0 0 2 -11 18 -25 34 -25 29 -25 31 -8 50 16 17 18 18
29 4 6 -9 20 -15 30 -15z"/>
<path d="M2351 2048 c-17 -35 -43 -84 -58 -110 -15 -25 -25 -50 -21 -54 11
-11 141 79 157 109 12 23 11 30 -13 71 -15 25 -28 46 -30 46 -2 0 -18 -28 -35
-62z"/>
<path d="M2722 1978 c6 -18 76 -54 118 -62 33 -5 34 -5 15 10 -27 21 -111 64
-126 64 -6 0 -9 -6 -7 -12z"/>
</g>
</svg>
