<?xml version="1.0" standalone="no"?>
<!DOCTYPE svg PUBLIC "-//W3C//DTD SVG 20010904//EN"
 "http://www.w3.org/TR/2001/REC-SVG-20010904/DTD/svg10.dtd">
<svg version="1.0" xmlns="http://www.w3.org/2000/svg"
 width="480.000000pt" height="360.000000pt" viewBox="0 0 480.000000 360.000000"
 preserveAspectRatio="xMidYMid meet">
<metadata>
Created by potrace 1.16, written by Peter Selinger 2001-2019
</metadata>
<rect width="1" height="360" fill="#000000"/>
<rect x="479" width="1" height="360" fill="#000000"/>
<rect width="480" height="1" fill="#000000"/>
<rect y="359" width="480" height="1" fill="#000000"/>
<g transform="translate(0.000000,360.000000) scale(0.100000,-0.100000)"
fill="#000000" stroke="none">
<path d="M0 1800 l0 -1800 1684 0 c1484 0 1685 2 1696 15 16 19 40 19 40 0 0
-10 10 -15 30 -15 17 0 30 4 30 9 0 10 -77 81 -88 81 -8 0 -48 35 -151 134
-47 46 -75 84 -109 151 -54 108 -114 265 -151 396 -16 56 -36 104 -49 117 -20
20 -21 52 -1 52 5 0 7 10 4 23 -4 15 -1 28 9 37 9 7 24 38 33 69 9 31 22 66
30 78 14 21 36 212 28 244 -7 30 -18 59 -22 59 -2 0 -38 -16 -79 -35 -83 -39
-99 -41 -140 -20 -16 8 -37 15 -46 15 -10 0 -25 12 -35 26 -9 14 -41 44 -70
65 -29 22 -53 46 -53 53 0 8 -20 22 -44 31 -52 20 -65 42 -38 65 10 8 24 28
31 44 11 27 10 32 -13 54 -16 16 -42 27 -78 33 -60 10 -87 21 -141 62 -46 36
-107 137 -107 179 0 46 21 162 31 173 5 5 9 17 9 26 0 27 50 128 68 138 11 6
17 22 17 48 0 52 -48 99 -111 109 -24 3 -44 9 -44 12 0 20 45 46 122 69 78 23
88 29 88 50 0 42 31 20 64 -45 l17 -33 26 21 c34 27 47 25 62 -7 7 -15 15 -22
19 -17 8 12 75 44 91 44 6 0 21 11 33 25 12 14 28 23 35 21 7 -3 36 3 65 13
29 9 85 23 125 31 66 12 82 11 189 -9 139 -26 207 -56 285 -125 32 -28 85 -73
119 -101 76 -61 122 -140 174 -298 45 -136 61 -158 120 -164 38 -5 44 -3 49
16 3 11 1 24 -4 27 -19 12 -8 44 21 59 16 8 34 15 40 15 16 0 49 -41 50 -61 0
-9 7 -20 16 -23 13 -5 15 -1 10 18 -5 20 0 30 29 52 19 14 35 35 35 46 0 27
32 20 45 -10 5 -12 13 -22 17 -22 22 0 57 22 63 39 7 22 39 29 50 11 14 -23
53 -10 75 25 23 37 30 41 45 26 6 -6 47 -6 104 0 76 8 103 7 147 -6 55 -16 82
-43 62 -63 -7 -7 -6 -20 6 -42 8 -18 13 -37 9 -43 -4 -6 -6 -26 -5 -44 3 -38
-10 -47 -83 -58 -59 -8 -85 -20 -85 -39 0 -8 -7 -19 -16 -27 -12 -10 -20 -10
-35 -1 -26 16 -40 15 -33 -3 9 -23 -15 -46 -40 -39 -14 3 -28 -2 -40 -15 -23
-25 -44 -26 -74 -5 -25 17 -26 17 -107 -46 -33 -26 -77 -56 -97 -67 -47 -25
-186 -144 -187 -160 -1 -7 7 -17 17 -22 15 -9 15 -10 1 -11 -19 0 -30 -37 -35
-125 -1 -33 -9 -74 -15 -91 -14 -36 -27 -11 162 -304 51 -80 162 -260 245
-400 84 -140 165 -275 180 -300 27 -45 27 -45 84 -46 l57 -1 23 79 c25 88 48
125 73 115 8 -3 31 -34 51 -69 19 -35 47 -78 61 -97 l25 -35 0 1672 0 1672
-2400 0 -2400 0 0 -1800z"/>
</g>
</svg>
