<?xml version="1.0" standalone="no"?>
<!DOCTYPE svg PUBLIC "-//W3C//DTD SVG 20010904//EN"
 "http://www.w3.org/TR/2001/REC-SVG-20010904/DTD/svg10.dtd">
<svg version="1.0" xmlns="http://www.w3.org/2000/svg"
 width="480.000000pt" height="360.000000pt" viewBox="0 0 480.000000 360.000000"
 preserveAspectRatio="xMidYMid meet">
<metadata>
Created by potrace 1.16, written by Peter Selinger 2001-2019
</metadata>
<rect width="1" height="360" fill="#000000"/>
<rect x="479" width="1" height="360" fill="#000000"/>
<rect width="480" height="1" fill="#000000"/>
<rect y="359" width="480" height="1" fill="#000000"/>
<g transform="translate(0.000000,360.000000) scale(0.100000,-0.100000)"
fill="#000000" stroke="none">
<path d="M0 1800 l0 -1800 1325 0 c1276 0 1325 1 1325 18 0 35 -59 228 -89
292 -30 64 -41 140 -21 140 6 0 67 -56 136 -125 125 -123 153 -142 181 -114
15 15 41 -1 72 -46 15 -22 50 -50 84 -67 54 -30 58 -30 76 -14 18 17 20 16 26
-4 4 -14 1 -28 -9 -39 -30 -33 -20 -41 54 -41 76 0 76 -1 59 64 -16 65 -75
131 -185 205 -76 51 -99 71 -97 87 2 15 -41 61 -157 170 l-159 149 6 85 c5 62
11 90 25 104 18 19 18 19 57 -22 22 -23 42 -38 45 -34 2 4 16 38 29 74 28 72
23 88 -24 88 -40 0 -59 10 -59 29 0 10 -22 51 -50 92 -42 62 -51 85 -60 145
-5 39 -12 78 -15 86 -4 11 26 34 107 84 125 76 157 92 238 119 79 26 83 30 77
92 -6 55 6 77 26 49 7 -8 25 -20 41 -26 27 -10 32 -8 53 17 55 64 62 83 50
151 -9 59 -13 66 -63 109 -37 32 -66 70 -93 122 -22 42 -51 90 -64 106 -14 17
-34 40 -44 53 -16 20 -21 21 -48 11 -38 -15 -61 -45 -77 -102 -10 -40 -9 -51
7 -89 17 -39 30 -58 88 -134 24 -31 14 -90 -17 -100 -11 -3 -64 -35 -117 -70
-53 -35 -98 -64 -101 -64 -3 0 -11 20 -18 46 -10 34 -10 48 -1 57 6 6 11 32
11 58 0 46 -13 72 -42 81 -6 2 -8 10 -4 16 4 7 16 10 27 7 25 -8 40 30 32 79
-3 20 -6 36 -8 36 -1 0 -23 -7 -49 -16 -26 -9 -49 -14 -52 -12 -2 3 -9 55 -15
117 -19 209 -54 251 -144 176 -40 -32 -44 -34 -81 -23 -21 5 -72 8 -113 6 -69
-5 -75 -3 -105 22 -76 66 -96 61 -146 -32 -18 -34 -46 -73 -61 -85 -15 -13
-33 -39 -39 -58 -6 -19 -14 -35 -18 -35 -3 0 -26 19 -50 42 -35 35 -44 40 -52
28 -16 -24 -12 -60 17 -153 22 -75 24 -90 12 -97 -9 -6 -21 -4 -34 4 -20 13
-20 22 -16 850 l3 836 -846 0 -846 0 0 -1800z m1677 88 c-3 -8 -6 -5 -6 6 -1
11 2 17 5 13 3 -3 4 -12 1 -19z m74 -67 c29 -24 19 -36 -33 -44 -38 -6 -38 -5
-38 29 0 29 3 34 24 34 13 0 34 -9 47 -19z m-18 -124 c32 6 43 -12 50 -80 5
-48 13 -68 53 -122 26 -36 51 -65 56 -65 4 0 14 -11 23 -24 13 -20 14 -30 2
-77 -14 -54 -14 -54 -108 -112 -52 -32 -102 -62 -111 -68 -17 -9 -18 8 -17
298 1 270 2 304 14 277 11 -25 19 -31 38 -27z m119 -67 c-2 -17 2 -21 14 -16
11 4 14 1 12 -11 -5 -29 -24 -24 -40 11 -17 34 -14 50 6 43 6 -2 10 -14 8 -27z
m715 -12 c-3 -8 -6 -5 -6 6 -1 11 2 17 5 13 3 -3 4 -12 1 -19z m-563 -163 c3
-8 1 -15 -4 -15 -6 0 -10 7 -10 15 0 8 2 15 4 15 2 0 6 -7 10 -15z m-110 -272
c-48 -73 -118 -195 -147 -258 -74 -158 -66 -157 -66 -12 -1 70 -5 127 -10 127
-14 0 -113 -111 -154 -173 -37 -56 -87 -158 -87 -178 0 -5 -14 -46 -31 -90
-24 -61 -34 -77 -43 -70 -7 6 -16 7 -21 3 -4 -4 -5 4 -1 18 4 14 12 48 16 75
10 61 89 251 130 314 16 25 42 60 57 76 39 42 124 115 134 115 5 0 9 -18 9
-40 l0 -40 78 58 c151 114 169 124 136 75z m-3 -220 c-46 -125 -74 -219 -95
-319 -24 -113 -77 -485 -71 -495 7 -11 -28 -94 -44 -103 -8 -5 -11 23 -12 96
-1 82 -3 96 -10 68 -5 -19 -14 -53 -20 -75 l-11 -39 -15 28 c-12 24 -19 27
-43 22 -27 -5 -30 -3 -36 29 -3 20 -3 56 1 81 10 68 103 411 123 452 17 37 17
35 20 -153 l4 -190 33 146 c18 80 49 195 70 255 37 109 133 319 142 310 2 -2
-13 -53 -36 -113z m110 -75 c13 -71 -42 -339 -93 -447 -21 -45 -22 -45 -26
-18 -9 66 58 441 89 498 14 26 20 20 30 -33z"/>
<path d="M1672 300 c0 -14 2 -19 5 -12 2 6 2 18 0 25 -3 6 -5 1 -5 -13z"/>
</g>
</svg>
