<?xml version="1.0" standalone="no"?>
<!DOCTYPE svg PUBLIC "-//W3C//DTD SVG 20010904//EN"
 "http://www.w3.org/TR/2001/REC-SVG-20010904/DTD/svg10.dtd">
<svg version="1.0" xmlns="http://www.w3.org/2000/svg"
 width="480.000000pt" height="360.000000pt" viewBox="0 0 480.000000 360.000000"
 preserveAspectRatio="xMidYMid meet">
<metadata>
Created by potrace 1.16, written by Peter Selinger 2001-2019
</metadata>
<rect width="1" height="360" fill="#000000"/>
<rect x="479" width="1" height="360" fill="#000000"/>
<rect width="480" height="1" fill="#000000"/>
<rect y="359" width="480" height="1" fill="#000000"/>
<g transform="translate(0.000000,360.000000) scale(0.100000,-0.100000)"
fill="#000000" stroke="none">
<path d="M0 1800 l0 -1800 803 1 802 1 -70 33 c-38 19 -77 34 -86 35 -24 0
-65 51 -78 100 -8 27 -26 56 -47 75 -19 17 -34 39 -34 48 0 9 23 35 50 58 38
32 50 49 50 70 0 39 17 80 47 111 34 36 142 101 213 129 266 105 476 197 531
234 85 56 249 211 249 236 0 28 -16 23 -41 -13 -29 -40 -37 -21 -10 23 12 19
21 42 21 52 0 16 -2 16 -30 2 -34 -17 -50 -19 -50 -5 0 6 7 10 15 10 8 0 24
10 35 23 26 27 20 83 -12 110 -16 14 -23 39 -34 123 -8 58 -16 110 -19 114 -5
8 17 77 60 184 29 74 26 86 -23 86 -19 0 -22 -4 -17 -20 8 -24 8 -24 -41 -1
-27 14 -41 16 -46 8 -5 -8 -13 -6 -26 6 -28 26 -77 29 -141 10 -42 -12 -82
-14 -175 -10 -111 5 -133 9 -276 56 -85 29 -195 61 -245 72 -49 12 -110 27
-135 35 -25 8 -83 17 -130 20 -47 4 -105 13 -130 20 -25 8 -55 14 -67 14 -33
0 -104 31 -100 43 6 18 94 36 232 47 233 19 235 19 235 41 0 18 2 18 33 5 29
-12 47 -12 118 0 46 7 102 18 124 23 223 51 244 55 345 54 79 0 120 -5 164
-21 69 -23 82 -19 109 39 17 35 17 40 3 54 -8 9 -21 35 -27 58 -13 49 1 102
34 128 22 18 23 27 12 169 l-7 85 43 65 c56 88 85 117 144 148 43 23 62 27
140 27 75 0 97 -4 133 -23 99 -53 142 -110 213 -287 l29 -70 -25 28 -25 28 0
-29 c0 -16 7 -49 15 -72 18 -50 18 -53 5 -45 -15 9 -12 -41 5 -81 13 -33 13
-36 -8 -57 -12 -12 -31 -23 -42 -25 -11 -1 -22 -7 -23 -13 -2 -5 -18 -23 -35
-39 -26 -24 -33 -27 -37 -14 -5 13 -8 13 -23 -4 -17 -18 -17 -20 8 -36 14 -9
25 -25 25 -35 0 -10 12 -27 27 -36 76 -50 275 -220 295 -253 31 -50 27 -112
-12 -204 -21 -52 -30 -89 -30 -128 0 -90 19 -172 45 -198 20 -20 22 -27 13
-47 -8 -18 -5 -50 15 -142 30 -135 103 -534 146 -798 27 -162 53 -291 82 -397
l10 -38 739 0 740 0 0 1800 0 1800 -2400 0 -2400 0 0 -1800z m1205 1098 c-11
-36 -25 -45 -25 -17 0 27 7 39 22 39 5 0 6 -10 3 -22z m2545 -563 c0 -2 -13
-11 -30 -20 -16 -9 -30 -12 -30 -7 0 5 10 14 23 20 25 12 37 14 37 7z m-3302
-641 c28 -20 28 -34 -1 -34 -25 0 -67 26 -67 41 0 14 43 11 68 -7z m2993 -150
l34 -15 -35 6 c-19 3 -39 10 -44 15 -15 15 7 12 45 -6z m-1565 -51 c-7 -7 -26
7 -26 19 0 6 6 6 15 -2 9 -7 13 -15 11 -17z m-250 -354 c14 -23 -37 -38 -66
-19 -13 9 -13 11 0 20 20 13 57 13 66 -1z m615 -70 c8 -16 6 -19 -17 -19 -25
0 -64 24 -64 40 0 15 71 -3 81 -21z m2375 -176 c-7 -7 -26 7 -26 19 0 6 6 6
15 -2 9 -7 13 -15 11 -17z m-3746 -564 c-36 -31 -54 -37 -48 -16 6 16 70 59
77 51 3 -3 -10 -19 -29 -35z"/>
<path d="M2390 1870 c0 -5 5 -10 10 -10 6 0 10 5 10 10 0 6 -4 10 -10 10 -5 0
-10 -4 -10 -10z"/>
<path d="M2530 1432 c0 -15 -9 -41 -19 -58 -15 -25 -18 -44 -14 -98 3 -36 9
-66 12 -66 4 0 21 15 37 33 60 64 95 117 101 152 5 30 3 35 -14 35 -11 0 -39
7 -62 15 l-41 14 0 -27z"/>
</g>
</svg>
