<?xml version="1.0" standalone="no"?>
<!DOCTYPE svg PUBLIC "-//W3C//DTD SVG 20010904//EN"
 "http://www.w3.org/TR/2001/REC-SVG-20010904/DTD/svg10.dtd">
<svg version="1.0" xmlns="http://www.w3.org/2000/svg"
 width="480.000000pt" height="360.000000pt" viewBox="0 0 480.000000 360.000000"
 preserveAspectRatio="xMidYMid meet">
<metadata>
Created by potrace 1.16, written by Peter Selinger 2001-2019
</metadata>
<rect width="1" height="360" fill="#000000"/>
<rect x="479" width="1" height="360" fill="#000000"/>
<rect width="480" height="1" fill="#000000"/>
<rect y="359" width="480" height="1" fill="#000000"/>
<g transform="translate(0.000000,360.000000) scale(0.100000,-0.100000)"
fill="#000000" stroke="none">
<path d="M2543 3573 c-19 -39 -16 -132 6 -194 23 -69 49 -110 101 -165 36 -38
47 -44 83 -44 23 0 56 -8 73 -19 64 -39 69 -38 105 29 44 82 176 208 266 252
63 31 75 33 173 33 89 1 118 5 190 30 76 26 99 29 217 29 l132 1 15 33 c9 18
16 35 16 37 0 3 -307 5 -682 5 l-683 0 -12 -27z"/>
</g>
</svg>
