<?xml version="1.0" standalone="no"?>
<!DOCTYPE svg PUBLIC "-//W3C//DTD SVG 20010904//EN"
 "http://www.w3.org/TR/2001/REC-SVG-20010904/DTD/svg10.dtd">
<svg version="1.0" xmlns="http://www.w3.org/2000/svg"
 width="480.000000pt" height="360.000000pt" viewBox="0 0 480.000000 360.000000"
 preserveAspectRatio="xMidYMid meet">
<metadata>
Created by potrace 1.16, written by Peter Selinger 2001-2019
</metadata>
<rect width="1" height="360" fill="#000000"/>
<rect x="479" width="1" height="360" fill="#000000"/>
<rect width="480" height="1" fill="#000000"/>
<rect y="359" width="480" height="1" fill="#000000"/>
<g transform="translate(0.000000,360.000000) scale(0.100000,-0.100000)"
fill="#000000" stroke="none">
<path d="M1330 1800 l0 -1800 1735 0 1735 0 0 1800 0 1800 -1735 0 -1735 0 0
-1800z m1798 599 c182 -42 269 -122 293 -270 8 -50 18 -71 49 -108 29 -34 36
-47 25 -49 -17 -4 -20 -22 -4 -22 6 0 9 -6 6 -14 -3 -8 8 -23 25 -36 l29 -22
-41 -37 c-38 -34 -40 -39 -24 -45 18 -7 17 -9 -3 -17 -49 -18 -15 -39 97 -59
79 -14 239 -7 339 15 169 36 468 50 458 22 -5 -17 23 -36 53 -37 18 0 21 -3
11 -9 -20 -13 15 -61 45 -61 17 0 22 -4 18 -15 -7 -17 47 -44 88 -46 19 0 20
-2 6 -7 -16 -7 -16 -10 7 -34 21 -23 22 -28 10 -38 -20 -17 -19 -30 3 -30 13
0 14 -2 3 -9 -18 -11 -5 -31 20 -31 10 0 19 -5 19 -11 0 -6 -6 -9 -14 -6 -16
6 -40 -16 -29 -26 3 -4 -3 -7 -15 -7 -24 0 -30 -15 -9 -24 9 -3 7 -8 -5 -19
-13 -10 -15 -16 -6 -25 16 -16 8 -15 -35 3 -41 17 -71 20 -47 5 12 -7 10 -11
-10 -19 -18 -7 -20 -10 -7 -10 9 -1 17 -6 17 -12 0 -7 -23 -8 -70 -3 -38 3
-70 4 -70 0 0 -3 17 -13 38 -22 24 -10 32 -18 22 -21 -8 -2 -22 -7 -30 -10 -8
-4 -22 -5 -30 -4 -8 2 -4 -6 10 -18 l25 -21 -22 -6 c-13 -4 -20 -11 -16 -20 6
-16 -38 -2 -205 65 -60 24 -135 46 -180 52 -41 6 -117 21 -168 34 l-93 24 -33
-31 c-60 -56 -108 -86 -151 -93 -23 -4 -52 -14 -64 -22 -12 -8 -24 -14 -27
-14 -20 3 -25 -2 -28 -26 -4 -39 -38 -41 -80 -5 -23 20 -51 32 -93 40 -88 15
-173 40 -225 67 -25 13 -68 26 -95 29 -99 13 -115 17 -130 32 -8 9 -15 33 -15
54 0 28 -7 46 -28 68 -33 36 -67 40 -319 44 -123 2 -164 0 -168 -9 -3 -9 9
-13 38 -14 68 -2 98 -12 88 -28 -13 -20 -184 -1 -351 39 -69 16 -140 30 -159
30 -32 0 -33 -1 -27 -30 5 -28 3 -30 -24 -30 -20 0 -35 8 -45 24 -21 32 -55
43 -155 51 -99 8 -140 29 -140 74 0 46 19 54 122 50 51 -2 110 1 130 5 26 6
50 3 80 -8 40 -14 460 -42 738 -49 l85 -2 43 44 c53 54 82 95 82 113 0 7 -21
21 -47 30 -83 30 -212 110 -273 169 -96 92 -134 218 -95 311 9 22 12 49 8 73
-6 35 -4 38 13 31 40 -17 51 -17 95 2 156 67 471 87 667 41z"/>
<path d="M2816 1674 c-5 -14 -4 -15 9 -4 17 14 19 20 6 20 -5 0 -12 -7 -15
-16z"/>
<path d="M0 1830 c0 -214 4 -390 8 -390 21 0 130 81 160 119 157 197 114 490
-91 622 -33 22 -64 39 -69 39 -4 0 -8 -175 -8 -390z"/>
</g>
</svg>
