<?xml version="1.0" standalone="no"?>
<!DOCTYPE svg PUBLIC "-//W3C//DTD SVG 20010904//EN"
 "http://www.w3.org/TR/2001/REC-SVG-20010904/DTD/svg10.dtd">
<svg version="1.0" xmlns="http://www.w3.org/2000/svg"
 width="480.000000pt" height="360.000000pt" viewBox="0 0 480.000000 360.000000"
 preserveAspectRatio="xMidYMid meet">
<metadata>
Created by potrace 1.16, written by Peter Selinger 2001-2019
</metadata>
<rect width="1" height="360" fill="#000000"/>
<rect x="479" width="1" height="360" fill="#000000"/>
<rect width="480" height="1" fill="#000000"/>
<rect y="359" width="480" height="1" fill="#000000"/>
<g transform="translate(0.000000,360.000000) scale(0.100000,-0.100000)"
fill="#000000" stroke="none">
<path d="M2843 3463 c-34 -63 -34 -63 -130 -47 -45 7 -43 -12 7 -61 22 -21 40
-44 40 -51 0 -6 -11 -37 -25 -67 -13 -31 -20 -59 -15 -62 5 -3 36 8 69 25 65
32 71 34 71 22 0 -5 -13 -15 -30 -23 -16 -8 -104 -88 -195 -178 -107 -105
-170 -161 -180 -157 -8 3 -35 -2 -60 -10 -44 -16 -46 -15 -64 8 -19 22 -21 22
-37 6 -14 -14 -15 -22 -7 -40 6 -14 7 -32 2 -46 -8 -20 -14 -23 -38 -17 -63
14 -47 -36 45 -143 37 -43 78 -90 92 -107 14 -16 32 -38 40 -47 12 -15 12 -24
-6 -80 -44 -134 -52 -281 -26 -445 25 -163 40 -204 59 -173 4 6 31 -22 62 -60
30 -39 57 -69 59 -67 2 2 -9 34 -26 70 -16 37 -30 69 -30 72 0 3 30 -24 68
-59 l67 -65 -22 -22 c-17 -17 -35 -23 -71 -24 -32 -1 -58 -8 -79 -23 -17 -12
-55 -27 -84 -33 -101 -20 -159 -40 -159 -54 0 -19 -31 -35 -67 -35 -74 -1
-153 -53 -153 -101 0 -20 -4 -27 -14 -23 -7 3 -66 -22 -129 -56 l-115 -61 -7
62 c-4 34 -4 112 0 173 l7 111 -31 38 c-25 32 -28 43 -20 63 14 37 11 52 -12
75 -15 15 -29 20 -49 16 -34 -7 -68 15 -85 57 -8 17 -25 46 -39 65 -14 19 -26
39 -26 43 0 14 -43 102 -58 121 -22 25 -115 24 -133 -3 -8 -10 -27 -20 -44
-22 -44 -4 -45 26 -1 68 48 47 62 73 42 80 -8 3 -20 3 -25 -1 -19 -11 -83 -16
-76 -5 3 5 15 10 25 10 11 0 27 11 36 25 19 29 9 49 -10 22 -16 -20 -26 -22
-26 -4 0 9 -14 13 -42 13 -40 -1 -44 -4 -63 -41 -15 -31 -20 -61 -20 -130 0
-86 2 -95 50 -204 49 -113 51 -116 107 -148 50 -29 98 -85 98 -115 0 -5 -9
-23 -21 -39 -24 -34 -20 -64 17 -146 34 -75 61 -190 79 -338 18 -144 28 -166
91 -202 51 -29 123 -30 223 -2 67 19 187 62 246 89 11 5 48 21 83 36 45 20 62
32 62 46 0 19 1 19 26 -1 31 -24 89 -27 160 -10 25 6 47 9 49 7 3 -3 -2 -18
-10 -34 -8 -17 -19 -67 -24 -112 -13 -117 12 -248 89 -477 26 -76 28 -91 17
-114 -12 -24 -17 -26 -79 -25 -65 2 -66 1 -72 -27 -3 -16 -3 -35 0 -42 4 -11
-20 -17 -109 -25 -155 -16 -252 -15 -322 4 -40 11 -81 14 -124 10 -60 -5 -84
1 -530 139 -257 79 -479 148 -493 154 -26 10 -32 21 -52 111 -8 38 -59 63
-141 68 -61 4 -476 -31 -512 -43 -10 -3 -13 -75 -13 -315 l0 -310 1695 0 1695
0 -11 27 c-6 15 -15 33 -21 41 -15 17 -4 27 55 46 122 41 161 92 188 246 12
71 12 282 -2 411 l-10 100 27 32 c55 66 68 144 39 232 -12 33 -13 50 -5 64 5
11 13 48 16 83 4 35 13 74 22 88 20 32 24 66 9 78 -7 5 -33 16 -58 26 -26 9
-75 35 -110 57 -84 52 -152 83 -216 99 -29 6 -53 17 -53 23 0 6 -10 21 -22 34
-19 20 -20 26 -8 50 12 25 14 26 18 8 4 -18 29 -44 43 -45 3 0 14 17 24 38
l19 37 4 -27 c4 -36 26 -36 41 0 6 15 22 41 36 57 23 29 24 29 25 8 0 -29 16
-30 25 -3 4 11 17 27 29 35 29 19 41 95 40 245 -1 124 -30 236 -95 366 l-41
80 66 136 c47 95 66 146 66 173 0 30 -3 36 -12 27 -16 -16 -28 -15 -28 2 0 21
-25 26 -48 11 -23 -17 -37 -5 -66 53 -13 24 -23 33 -39 31 -12 -1 -38 4 -57
13 -19 8 -48 18 -63 22 -52 13 -270 190 -265 215 5 21 28 16 105 -19 73 -34
123 -69 175 -125 20 -22 39 -37 41 -35 14 17 57 174 52 191 -11 32 -89 75
-181 100 -50 13 -84 27 -84 35 0 8 -19 15 -47 19 -90 12 -92 12 -98 53 -7 40
-24 82 -35 82 -3 0 -20 -26 -37 -57z m-1623 -1429 c0 -14 -4 -22 -10 -19 -5 3
-10 17 -10 31 0 14 4 22 10 19 6 -3 10 -17 10 -31z m110 -75 c0 -6 -4 -7 -10
-4 -5 3 -10 11 -10 16 0 6 5 7 10 4 6 -3 10 -11 10 -16z"/>
</g>
</svg>
