<?xml version="1.0" standalone="no"?>
<!DOCTYPE svg PUBLIC "-//W3C//DTD SVG 20010904//EN"
 "http://www.w3.org/TR/2001/REC-SVG-20010904/DTD/svg10.dtd">
<svg version="1.0" xmlns="http://www.w3.org/2000/svg"
 width="480.000000pt" height="360.000000pt" viewBox="0 0 480.000000 360.000000"
 preserveAspectRatio="xMidYMid meet">
<metadata>
Created by potrace 1.16, written by Peter Selinger 2001-2019
</metadata>
<rect width="1" height="360" fill="#000000"/>
<rect x="479" width="1" height="360" fill="#000000"/>
<rect width="480" height="1" fill="#000000"/>
<rect y="359" width="480" height="1" fill="#000000"/>
<g transform="translate(0.000000,360.000000) scale(0.100000,-0.100000)"
fill="#000000" stroke="none">
<path d="M3378 3446 c-53 -12 -103 -28 -112 -35 -9 -7 -25 -44 -36 -82 -19
-64 -23 -69 -53 -73 -18 -3 -63 -9 -102 -15 -100 -15 -180 -58 -270 -146 -77
-76 -111 -131 -118 -195 -2 -20 -9 -46 -16 -58 -18 -33 -7 -38 13 -6 23 33 32
24 13 -13 -8 -15 -18 -48 -22 -73 -3 -25 -9 -54 -11 -65 -3 -11 4 -4 15 15
l20 35 -1 -42 c-1 -39 21 -80 36 -66 3 4 6 -6 6 -21 0 -16 4 -25 10 -21 6 3
10 20 10 36 0 18 4 28 10 24 6 -3 10 -31 10 -61 l0 -55 -45 -20 c-53 -23 -56
-39 -15 -85 24 -28 28 -38 20 -58 -6 -18 -4 -39 10 -75 10 -28 21 -70 25 -93
11 -65 16 -68 116 -68 105 0 103 2 111 -123 l5 -77 -46 -37 c-25 -21 -71 -61
-101 -89 -30 -28 -68 -54 -83 -58 -37 -9 -73 -48 -88 -94 -7 -21 -25 -52 -42
-71 -36 -42 -57 -90 -57 -130 0 -17 -9 -45 -20 -63 -11 -19 -20 -51 -20 -75 0
-49 -26 -114 -70 -174 -20 -28 -29 -51 -26 -64 3 -11 1 -27 -4 -35 -10 -16
-12 -12 -113 220 -49 113 -55 134 -61 220 -3 52 -9 110 -12 128 l-6 32 191 -7
c135 -4 191 -3 191 5 0 6 -8 13 -17 16 -25 8 -172 32 -279 46 -51 7 -96 15
-101 19 -4 3 -20 22 -35 42 -34 46 -128 87 -161 71 -12 -6 -40 -13 -61 -16
-21 -3 -48 -14 -60 -24 -39 -36 -69 -45 -138 -43 -37 1 -68 -2 -68 -6 0 -12
58 -43 80 -43 24 0 36 -16 53 -75 12 -44 18 -51 48 -59 31 -7 40 -19 80 -95
32 -60 50 -108 59 -160 7 -40 36 -145 65 -232 30 -88 51 -159 49 -159 -21 0
-67 38 -106 89 -44 56 -75 82 -246 209 -48 36 -98 92 -206 232 -78 102 -155
204 -172 227 -25 37 -33 42 -56 37 -21 -4 -34 1 -51 18 -13 13 -26 30 -29 38
-3 10 -9 10 -24 2 -15 -8 -24 -8 -32 0 -8 8 -13 8 -16 -3 -2 -8 -10 -31 -16
-51 -6 -20 -18 -42 -26 -48 -7 -7 -14 -16 -14 -20 0 -4 58 -84 130 -176 84
-109 126 -172 120 -178 -16 -16 -12 -35 25 -108 21 -40 33 -77 30 -87 -3 -11
16 -60 47 -122 51 -101 54 -104 93 -112 22 -4 60 -15 85 -24 134 -47 325 -113
327 -113 1 0 18 -24 36 -53 41 -64 60 -80 250 -214 82 -58 151 -112 154 -120
3 -8 -6 -26 -19 -41 -54 -57 -63 -119 -28 -187 11 -22 20 -56 20 -77 l0 -38
635 0 635 0 0 25 c0 54 -81 168 -135 191 -31 13 -31 14 -49 131 -30 206 -45
377 -39 460 6 89 -9 128 -53 139 -25 6 -30 20 -15 42 6 10 10 10 20 -2 31 -37
225 -44 219 -8 -3 18 0 19 72 21 47 1 50 2 40 20 -15 30 -14 31 43 31 61 0 99
9 91 21 -8 14 17 87 37 105 17 15 18 15 23 -7 3 -13 7 -44 8 -69 l3 -45 18 30
18 30 -5 -45 c-2 -25 -12 -83 -21 -129 -24 -124 -19 -134 35 -62 44 59 69 79
55 44 -15 -37 -34 -171 -34 -233 l0 -65 20 35 19 35 -1 -60 c-3 -102 1 -185 9
-185 4 0 22 23 41 50 19 28 35 50 36 50 1 0 -3 -33 -10 -72 -22 -131 -24 -148
-15 -148 5 0 35 25 68 55 l59 54 -23 -97 c-30 -121 -30 -121 2 -91 l26 24 -7
-50 -6 -50 25 30 c23 26 26 27 26 10 1 -20 1 -20 15 -1 8 11 15 27 15 36 0 20
60 143 66 137 3 -2 -5 -38 -16 -79 -24 -89 -50 -230 -50 -275 l0 -32 204 -1
205 -1 6 48 c3 26 13 62 21 78 l14 30 -5 -35 c-2 -19 -7 -54 -11 -77 -6 -39
-5 -43 15 -43 l21 0 0 833 0 832 -66 35 c-252 133 -474 329 -622 551 -29 44
-57 77 -62 74 -5 -3 -11 -19 -15 -35 -4 -16 -20 -44 -37 -62 -17 -18 -40 -47
-53 -65 l-21 -32 -23 177 c-18 139 -20 187 -12 222 19 83 13 187 -19 305 -35
131 -74 209 -142 284 -39 45 -48 61 -44 81 20 88 21 87 -24 145 -49 63 -130
125 -163 124 -12 0 -65 -10 -119 -23z m480 -1253 c7 -79 8 -141 3 -146 -10
-10 -10 -10 -37 100 -15 62 -16 79 -5 127 7 31 16 56 20 56 3 0 12 -62 19
-137z m-151 -325 c-3 -8 -6 -5 -6 6 -1 11 2 17 5 13 3 -3 4 -12 1 -19z m-250
-187 c-9 -11 -13 -9 -20 7 -5 12 -6 29 -3 39 7 16 9 15 21 -7 10 -19 11 -28 2
-39z m420 -588 c-8 -7 -37 9 -31 19 3 5 12 4 20 -3 8 -6 13 -14 11 -16z m-462
-477 c17 -167 19 -216 7 -216 -13 0 -72 173 -72 210 0 36 15 146 26 190 l7 25
8 -30 c5 -16 16 -97 24 -179z"/>
</g>
</svg>
