<?xml version="1.0" standalone="no"?>
<!DOCTYPE svg PUBLIC "-//W3C//DTD SVG 20010904//EN"
 "http://www.w3.org/TR/2001/REC-SVG-20010904/DTD/svg10.dtd">
<svg version="1.0" xmlns="http://www.w3.org/2000/svg"
 width="480.000000pt" height="360.000000pt" viewBox="0 0 480.000000 360.000000"
 preserveAspectRatio="xMidYMid meet">
<metadata>
Created by potrace 1.16, written by Peter Selinger 2001-2019
</metadata>
<rect width="1" height="360" fill="#000000"/>
<rect x="479" width="1" height="360" fill="#000000"/>
<rect width="480" height="1" fill="#000000"/>
<rect y="359" width="480" height="1" fill="#000000"/>
<g transform="translate(0.000000,360.000000) scale(0.100000,-0.100000)"
fill="#000000" stroke="none">
<path d="M0 1800 l0 -1800 1230 0 c677 0 1230 3 1230 7 0 4 -8 16 -19 27 -26
30 -41 79 -27 91 35 31 46 35 69 29 29 -7 69 -76 60 -101 -3 -8 -17 -19 -32
-25 l-26 -11 29 -8 c22 -6 75 4 220 41 350 91 312 73 383 176 34 49 62 91 63
95 0 7 -87 49 -104 49 -7 0 -21 -9 -31 -20 -27 -30 -65 -22 -92 18 -18 27 -20
38 -12 59 5 14 8 27 7 28 -2 2 -80 41 -174 88 -94 47 -212 108 -261 136 -50
28 -95 51 -100 51 -6 0 -22 11 -36 24 -28 26 -27 53 3 81 17 16 23 14 87 -25
67 -41 413 -214 486 -244 37 -15 38 -15 48 8 11 24 47 46 75 46 21 0 55 -61
51 -89 -4 -20 4 -27 66 -56 l72 -32 44 44 c24 25 55 52 68 60 29 19 50 67 54
123 3 34 -1 46 -20 61 l-24 19 18 55 c18 59 16 95 -11 236 l-15 75 32 67 c25
55 29 70 19 82 -7 8 -19 15 -26 15 -19 0 -92 68 -110 101 -8 16 -14 40 -14 54
0 37 34 99 71 128 l31 24 -27 22 c-15 11 -34 21 -42 21 -8 0 -13 7 -11 15 4
20 -185 98 -317 130 -141 34 -205 64 -250 119 -20 25 -42 43 -50 40 -7 -3 -16
-26 -20 -52 -4 -26 -9 -51 -12 -55 -11 -18 -33 18 -33 54 l0 39 -282 2 c-702
7 -1521 -13 -1822 -42 -54 -6 -107 -10 -119 -10 -20 0 -20 0 -1 21 83 92 239
117 919 146 189 8 602 10 1040 5 l260 -3 9 45 c11 59 32 60 40 1 6 -38 10 -44
24 -36 9 4 37 9 61 10 24 0 49 5 55 10 6 4 18 9 26 9 8 1 29 4 45 7 26 5 33 0
56 -33 27 -39 28 -39 110 -47 79 -6 85 -5 99 15 63 89 100 127 167 171 66 43
179 89 218 89 7 0 37 11 67 25 76 35 191 50 243 33 37 -12 40 -16 35 -43 -2
-17 -4 -55 -5 -85 l0 -55 58 -29 c50 -25 57 -32 57 -58 0 -18 -12 -45 -30 -68
-16 -21 -30 -42 -30 -47 0 -22 45 -91 78 -121 35 -30 36 -32 16 -38 -21 -6
-21 -6 -3 -44 22 -46 24 -60 6 -60 -8 0 -22 -9 -32 -20 -17 -19 -16 -20 23
-56 70 -62 78 -173 20 -266 -47 -75 -51 -103 -33 -235 21 -153 37 -225 86
-406 37 -136 39 -151 25 -172 -9 -13 -30 -25 -51 -29 -40 -8 -55 -30 -34 -52
13 -12 67 4 394 114 l380 128 3 981 2 980 -102 8 c-130 9 -272 44 -367 91
-143 70 -241 201 -305 409 -14 44 -35 114 -48 155 -22 71 -25 75 -56 78 -18 2
-32 6 -32 9 0 16 37 63 60 77 37 21 53 20 77 -6 31 -34 38 -53 78 -187 20 -68
47 -145 60 -171 25 -49 86 -109 139 -137 90 -47 258 -71 409 -58 l87 7 0 334
0 334 -2400 0 -2400 0 0 -1800z m3685 971 c3 -5 1 -13 -5 -16 -15 -9 -43 3
-35 15 8 13 32 13 40 1z"/>
<path d="M3002 1920 c10 -6 36 -17 58 -25 36 -13 42 -13 47 1 8 21 4 23 -63
29 -45 5 -55 4 -42 -5z"/>
<path d="M4700 430 c-47 -15 -202 -64 -344 -109 -142 -44 -261 -83 -264 -86
-3 -3 -1 -26 6 -50 7 -25 12 -54 12 -64 0 -27 26 -45 123 -85 l87 -36 240 0
240 0 0 230 c0 127 -3 230 -7 229 -5 0 -46 -13 -93 -29z"/>
</g>
</svg>
