<?xml version="1.0" standalone="no"?>
<!DOCTYPE svg PUBLIC "-//W3C//DTD SVG 20010904//EN"
 "http://www.w3.org/TR/2001/REC-SVG-20010904/DTD/svg10.dtd">
<svg version="1.0" xmlns="http://www.w3.org/2000/svg"
 width="480.000000pt" height="360.000000pt" viewBox="0 0 480.000000 360.000000"
 preserveAspectRatio="xMidYMid meet">
<metadata>
Created by potrace 1.16, written by Peter Selinger 2001-2019
</metadata>
<rect width="1" height="360" fill="#000000"/>
<rect x="479" width="1" height="360" fill="#000000"/>
<rect width="480" height="1" fill="#000000"/>
<rect y="359" width="480" height="1" fill="#000000"/>
<g transform="translate(0.000000,360.000000) scale(0.100000,-0.100000)"
fill="#000000" stroke="none">
<path d="M0 1800 l0 -1800 1502 2 1501 3 28 66 c15 37 37 109 48 160 23 96 78
302 88 329 16 39 29 100 24 107 -9 12 -73 33 -82 27 -14 -8 -79 24 -79 39 0 8
7 21 16 28 26 22 98 121 116 161 10 20 22 66 29 102 7 42 23 84 44 118 66 104
70 116 70 223 0 55 -5 114 -12 130 -6 17 -26 67 -44 113 -17 45 -35 82 -40 82
-4 0 -11 -17 -15 -37 -13 -73 -75 -265 -104 -323 -29 -57 -122 -182 -141 -189
-6 -2 3 21 19 50 17 30 33 65 37 79 l8 25 -23 -20 -22 -20 13 30 c7 17 19 37
26 46 7 8 13 20 13 26 0 6 10 32 22 59 26 60 89 294 82 306 -3 4 -14 8 -24 8
-10 0 -90 18 -176 40 -226 57 -305 100 -329 180 -4 14 -32 72 -62 129 -39 74
-53 112 -50 130 4 18 -4 38 -25 67 l-30 42 25 49 c23 44 24 53 14 90 -8 31 -8
48 1 68 14 30 33 26 25 -6 -8 -30 16 -69 44 -69 16 0 23 6 23 20 0 23 4 24 32
9 15 -8 22 -8 28 1 4 7 13 9 19 5 9 -5 9 -10 0 -21 -9 -11 -8 -15 6 -20 14 -6
16 -18 13 -76 -2 -57 0 -72 14 -82 10 -7 36 -68 58 -136 22 -68 45 -129 50
-134 15 -15 373 -87 382 -78 5 5 11 45 15 89 l6 81 -42 26 c-46 29 -49 45 -27
118 14 46 67 133 95 155 14 11 11 22 -29 98 -25 47 -69 115 -97 151 -52 66
-68 105 -61 160 3 25 7 29 40 32 46 4 90 -18 121 -60 41 -55 104 -178 133
-261 29 -83 34 -90 57 -81 11 4 16 31 19 122 5 128 18 170 69 220 49 48 73 57
117 44 45 -14 72 -53 56 -80 -6 -9 -26 -27 -44 -40 -49 -33 -57 -50 -75 -153
-9 -52 -18 -102 -21 -112 -3 -11 1 -20 13 -25 48 -19 134 -86 149 -113 37 -73
48 -136 64 -373 12 -181 35 -262 102 -365 27 -41 51 -84 54 -97 3 -12 4 -76 2
-142 -2 -92 -7 -124 -19 -138 -13 -15 -15 -40 -14 -127 2 -99 5 -111 30 -147
15 -22 47 -56 72 -76 28 -23 42 -42 39 -51 -8 -19 -40 -62 -91 -119 -38 -44
-41 -45 -81 -39 -50 7 -44 21 -64 -170 -7 -60 -20 -155 -31 -210 -10 -55 -19
-135 -19 -177 l0 -78 550 0 550 0 0 1800 0 1800 -2400 0 -2400 0 0 -1800z"/>
<path d="M3458 568 c-10 -18 -49 -114 -89 -213 -39 -99 -88 -215 -110 -259
-21 -43 -39 -82 -39 -87 0 -6 59 -8 138 -7 l137 3 -4 267 c-2 147 -6 282 -10
298 l-6 31 -17 -33z"/>
</g>
</svg>
