<?xml version="1.0" standalone="no"?>
<!DOCTYPE svg PUBLIC "-//W3C//DTD SVG 20010904//EN"
 "http://www.w3.org/TR/2001/REC-SVG-20010904/DTD/svg10.dtd">
<svg version="1.0" xmlns="http://www.w3.org/2000/svg"
 width="480.000000pt" height="360.000000pt" viewBox="0 0 480.000000 360.000000"
 preserveAspectRatio="xMidYMid meet">
<metadata>
Created by potrace 1.16, written by Peter Selinger 2001-2019
</metadata>
<rect width="1" height="360" fill="#000000"/>
<rect x="479" width="1" height="360" fill="#000000"/>
<rect width="480" height="1" fill="#000000"/>
<rect y="359" width="480" height="1" fill="#000000"/>
<g transform="translate(0.000000,360.000000) scale(0.100000,-0.100000)"
fill="#000000" stroke="none">
<path d="M0 3470 c0 -122 1 -130 19 -130 11 0 22 4 25 9 3 5 3 63 -1 130 -5
109 -8 121 -25 121 -17 0 -18 -10 -18 -130z"/>
<path d="M150 3587 c8 -8 78 -72 155 -143 115 -106 155 -137 225 -171 96 -47
129 -71 215 -158 68 -67 127 -149 173 -242 18 -34 55 -87 84 -117 l53 -55 105
-12 c82 -9 122 -9 190 1 47 7 89 17 95 21 5 5 19 9 32 9 46 0 38 -83 -11 -115
-25 -17 -62 -105 -58 -137 2 -9 -6 -19 -17 -23 -27 -8 -65 -91 -55 -124 4 -14
9 -78 11 -141 5 -126 -2 -193 -18 -169 -7 11 -9 11 -9 -4 0 -10 -7 -20 -15
-23 -8 -4 -12 -11 -9 -16 4 -6 2 -13 -4 -17 -5 -3 -26 -37 -46 -74 -25 -48
-38 -64 -42 -53 -5 14 -9 14 -22 4 -13 -11 -15 -10 -8 12 14 48 18 107 8 114
-6 4 -15 -20 -22 -61 -11 -64 -10 -75 19 -186 17 -65 31 -125 31 -133 0 -33
55 -152 99 -214 l46 -65 -35 25 c-19 13 -55 40 -79 59 l-44 36 7 -27 c9 -40 0
-35 -24 12 -21 41 -28 49 -27 28 1 -7 -3 -30 -7 -50 -6 -28 -3 -53 13 -99 11
-35 19 -64 18 -66 -2 -1 -16 11 -32 27 l-29 30 -28 -61 c-15 -34 -28 -76 -28
-93 0 -43 -13 -60 -39 -51 -12 4 -27 2 -34 -3 -18 -15 -123 -32 -200 -32 l-70
0 7 -62 c4 -35 12 -65 17 -69 6 -3 74 -14 152 -23 78 -10 192 -28 252 -41 61
-13 149 -29 197 -36 l87 -12 16 -45 c20 -61 19 -87 -6 -103 -20 -14 -20 -15
15 -73 37 -62 75 -154 134 -328 20 -60 41 -108 46 -108 5 0 19 -9 31 -20 21
-19 24 -20 60 -5 60 26 70 14 40 -44 -14 -28 -25 -53 -25 -56 0 -3 689 -5
1530 -5 l1530 0 0 1800 0 1800 -2332 0 c-1955 0 -2330 -2 -2318 -13z m2262
-1231 c28 -53 87 -226 79 -226 -4 0 -17 12 -28 28 -11 15 -55 72 -97 127 -69
91 -76 104 -76 146 0 25 3 49 8 53 10 10 88 -77 114 -128z m383 -568 c-6 -16
-61 -48 -81 -48 -26 0 -14 16 29 37 50 26 58 27 52 11z"/>
</g>
</svg>
