<?xml version="1.0" standalone="no"?>
<!DOCTYPE svg PUBLIC "-//W3C//DTD SVG 20010904//EN"
 "http://www.w3.org/TR/2001/REC-SVG-20010904/DTD/svg10.dtd">
<svg version="1.0" xmlns="http://www.w3.org/2000/svg"
 width="480.000000pt" height="360.000000pt" viewBox="0 0 480.000000 360.000000"
 preserveAspectRatio="xMidYMid meet">
<metadata>
Created by potrace 1.16, written by Peter Selinger 2001-2019
</metadata>
<rect width="1" height="360" fill="#000000"/>
<rect x="479" width="1" height="360" fill="#000000"/>
<rect width="480" height="1" fill="#000000"/>
<rect y="359" width="480" height="1" fill="#000000"/>
<g transform="translate(0.000000,360.000000) scale(0.100000,-0.100000)"
fill="#000000" stroke="none">
<path d="M0 1800 l0 -1800 394 0 394 0 27 36 c37 49 95 161 95 185 0 15 -7 19
-32 19 -18 0 -42 -7 -52 -15 -23 -17 -56 -20 -56 -5 0 19 40 50 110 85 57 29
70 39 65 54 -4 13 22 52 93 137 148 180 295 363 315 393 9 14 15 32 12 39 -2
6 4 40 15 75 11 34 20 63 20 65 0 1 -11 0 -25 -4 -14 -3 -25 -3 -25 1 0 19 55
114 84 145 102 109 197 269 222 375 23 97 26 362 4 356 -27 -6 -80 -9 -80 -4
0 2 16 60 35 129 19 68 35 129 35 135 0 7 -11 9 -29 6 -31 -6 -71 15 -71 38 0
7 -3 15 -7 17 -14 6 -48 62 -72 118 -13 30 -27 62 -31 70 -4 9 -11 31 -15 50
-4 19 -11 41 -15 50 -4 8 -12 30 -18 49 -15 45 2 128 28 136 19 6 166 -10 237
-25 23 -6 66 -19 95 -30 l54 -20 60 24 c32 13 77 31 99 41 22 9 96 23 165 31
69 8 159 20 200 28 41 7 80 11 85 9 6 -2 23 -22 39 -44 23 -33 28 -52 31 -107
1 -37 10 -85 19 -106 34 -82 46 -129 46 -184 0 -41 -3 -53 -10 -42 -9 13 -11
13 -20 0 -5 -8 -10 -31 -10 -50 0 -19 -10 -60 -21 -90 -11 -30 -23 -65 -26
-77 -6 -27 -18 -30 -27 -6 -6 15 -8 15 -16 3 -6 -8 -10 -25 -10 -37 0 -12 -6
-28 -13 -34 -11 -11 -10 -27 3 -93 l17 -81 59 -20 c168 -58 226 -128 260 -316
9 -51 25 -112 35 -134 9 -22 20 -71 24 -110 4 -38 13 -81 20 -95 8 -14 70 -81
140 -150 70 -69 133 -138 142 -154 18 -35 10 -71 -22 -92 -19 -13 -25 -25 -25
-54 0 -47 27 -83 80 -104 45 -18 47 -22 24 -54 -11 -17 -25 -22 -57 -22 -55 0
-108 42 -126 99 -6 23 -16 41 -22 41 -18 0 -101 -84 -120 -123 l-20 -39 30
-131 c17 -73 40 -186 51 -251 11 -66 23 -123 26 -128 3 -4 428 -8 945 -8 l939
0 0 1800 0 1800 -2400 0 -2400 0 0 -1800z"/>
<path d="M1964 957 c-32 -29 -71 -60 -85 -69 -16 -10 -46 -55 -74 -110 -148
-289 -168 -313 -560 -691 l-90 -87 316 0 315 0 59 203 c92 323 119 388 203
499 41 55 47 68 40 89 -5 13 -6 52 -2 86 3 35 3 63 0 63 -3 0 -20 -15 -37 -32
-22 -24 -32 -29 -36 -20 -4 10 -19 1 -50 -30 -39 -36 -43 -38 -27 -13 10 17
28 44 40 60 27 38 57 96 51 101 -2 2 -30 -20 -63 -49z"/>
<path d="M869 13 c-13 -16 -12 -17 4 -4 9 7 17 15 17 17 0 8 -8 3 -21 -13z"/>
</g>
</svg>
