<?xml version="1.0" standalone="no"?>
<!DOCTYPE svg PUBLIC "-//W3C//DTD SVG 20010904//EN"
 "http://www.w3.org/TR/2001/REC-SVG-20010904/DTD/svg10.dtd">
<svg version="1.0" xmlns="http://www.w3.org/2000/svg"
 width="480.000000pt" height="360.000000pt" viewBox="0 0 480.000000 360.000000"
 preserveAspectRatio="xMidYMid meet">
<metadata>
Created by potrace 1.16, written by Peter Selinger 2001-2019
</metadata>
<rect width="1" height="360" fill="#000000"/>
<rect x="479" width="1" height="360" fill="#000000"/>
<rect width="480" height="1" fill="#000000"/>
<rect y="359" width="480" height="1" fill="#000000"/>
<g transform="translate(0.000000,360.000000) scale(0.100000,-0.100000)"
fill="#000000" stroke="none">
<path d="M0 1800 l0 -1800 2400 0 2400 0 0 1800 0 1800 -2400 0 -2400 0 0
-1800z m2453 1132 l37 -18 -24 -25 c-31 -33 -48 -67 -41 -79 12 -19 53 -10 90
20 48 38 72 44 148 36 46 -5 77 -15 118 -41 31 -19 77 -40 102 -47 52 -13 59
-23 25 -32 -35 -9 -77 -7 -120 6 -46 14 -65 1 -70 -46 -3 -27 1 -31 41 -43 25
-7 59 -26 76 -43 25 -25 39 -30 78 -30 27 0 47 -5 47 -11 0 -6 9 -8 20 -4 11
3 20 2 20 -4 0 -5 10 -12 23 -14 l22 -4 -24 -8 c-24 -8 -24 -8 -3 -16 12 -5
22 -13 22 -20 0 -6 -7 -9 -15 -5 -9 3 -15 0 -15 -8 0 -17 -27 -30 -55 -27 -12
1 -36 -5 -55 -13 -19 -8 -29 -15 -22 -16 6 0 12 -9 12 -21 0 -18 -4 -20 -30
-14 -18 4 -30 3 -30 -4 0 -5 -17 -11 -37 -13 -36 -3 -38 -5 -36 -37 2 -56 19
-60 58 -14 33 38 98 73 112 59 3 -3 8 -39 11 -80 4 -72 5 -74 33 -78 15 -3 73
-3 127 -1 93 3 100 2 105 -17 5 -18 0 -20 -41 -21 l-47 -1 33 -11 c38 -12 40
-40 4 -45 -13 -2 -21 -9 -19 -15 2 -7 10 -11 18 -10 8 1 71 11 141 23 143 24
318 25 318 2 0 -7 6 -15 13 -18 7 -2 14 -14 14 -27 1 -12 7 -23 14 -26 6 -2
18 -11 27 -21 8 -10 21 -16 29 -13 7 3 22 -4 32 -16 10 -11 27 -22 37 -22 18
-1 18 -2 1 -6 -11 -3 -16 -11 -13 -19 3 -8 0 -14 -7 -14 -7 0 -4 -5 6 -11 9
-5 17 -17 17 -24 0 -8 -8 -15 -17 -16 -11 0 -13 -3 -5 -6 19 -7 15 -43 -5 -44
-11 0 -13 -3 -5 -6 6 -2 12 -9 12 -14 0 -6 -4 -8 -9 -5 -5 4 -11 1 -13 -5 -3
-8 -14 -6 -37 5 -18 10 -35 15 -39 12 -3 -3 1 -6 8 -6 9 0 8 -6 -5 -20 -10
-11 -24 -20 -30 -20 -20 0 -38 -27 -23 -34 7 -3 1 -4 -14 -1 -16 3 -28 1 -28
-5 0 -5 -15 -1 -32 10 -49 30 -69 24 -25 -7 20 -14 35 -28 33 -31 -3 -2 -25
10 -50 27 -62 43 -81 49 -230 72 -148 22 -199 38 -271 84 -38 24 -59 31 -83
27 -37 -5 -37 -6 -17 -77 11 -38 13 -59 6 -79 -13 -32 -44 -34 -66 -3 -11 14
-19 18 -22 10 -2 -7 -13 -23 -23 -35 -27 -33 -44 -11 -50 65 -5 61 -5 61 -40
69 -20 5 -74 3 -127 -4 -111 -14 -148 -4 -140 38 7 39 9 39 -223 54 -85 5
-173 12 -195 15 -21 3 -37 3 -34 0 8 -7 106 -32 144 -37 24 -2 29 -7 27 -23
-2 -11 -5 -21 -6 -23 -3 -3 -188 39 -279 64 -50 13 -70 15 -75 7 -4 -6 -19
-14 -34 -18 -23 -6 -29 -2 -42 23 -14 27 -22 31 -77 37 -64 8 -109 36 -109 69
0 30 -22 31 390 -13 102 -11 238 -23 303 -27 l118 -7 32 38 c44 53 118 197
108 210 -5 5 -14 41 -19 78 -11 68 -24 97 -45 97 -14 0 -57 41 -57 54 0 16 52
66 70 66 23 0 23 38 0 45 -11 3 -22 16 -26 28 -4 12 -35 49 -69 82 -66 64 -81
94 -60 122 13 17 15 17 37 -4 14 -13 27 -23 30 -23 4 0 4 25 1 55 l-6 55 40 0
c22 0 56 -8 76 -18z"/>
<path d="M2498 2539 c-19 -11 -24 -39 -9 -54 5 -6 11 -19 13 -30 3 -18 5 -17
22 8 17 25 18 31 5 57 -11 24 -17 27 -31 19z"/>
<path d="M2541 2253 c-8 -21 -27 -57 -43 -81 -26 -38 -58 -102 -58 -117 0 -3
10 -5 23 -5 21 0 128 94 147 131 7 12 1 29 -20 63 -16 25 -31 46 -33 46 -2 0
-9 -17 -16 -37z"/>
<path d="M2917 2176 c-8 -20 57 -36 139 -35 57 0 65 2 44 10 -19 8 -159 39
-175 39 -1 0 -5 -6 -8 -14z"/>
</g>
</svg>
