<?xml version="1.0" standalone="no"?>
<!DOCTYPE svg PUBLIC "-//W3C//DTD SVG 20010904//EN"
 "http://www.w3.org/TR/2001/REC-SVG-20010904/DTD/svg10.dtd">
<svg version="1.0" xmlns="http://www.w3.org/2000/svg"
 width="480.000000pt" height="360.000000pt" viewBox="0 0 480.000000 360.000000"
 preserveAspectRatio="xMidYMid meet">
<metadata>
Created by potrace 1.16, written by Peter Selinger 2001-2019
</metadata>
<rect width="1" height="360" fill="#000000"/>
<rect x="479" width="1" height="360" fill="#000000"/>
<rect width="480" height="1" fill="#000000"/>
<rect y="359" width="480" height="1" fill="#000000"/>
<g transform="translate(0.000000,360.000000) scale(0.100000,-0.100000)"
fill="#000000" stroke="none">
<path d="M3620 3345 c0 -21 -55 -80 -98 -107 -20 -12 -39 -25 -42 -28 -3 -4
-25 -14 -50 -24 -25 -10 -67 -30 -95 -45 -82 -45 -139 -63 -167 -52 -31 12
-58 -3 -58 -33 0 -26 28 -56 53 -56 21 0 22 -23 3 -39 -19 -16 -216 11 -248
33 -38 27 -65 20 -98 -26 -17 -23 -29 -46 -27 -52 2 -6 19 -21 38 -34 32 -22
34 -28 41 -95 6 -72 12 -82 62 -112 15 -8 16 -17 8 -53 -8 -35 -7 -44 4 -49 8
-3 14 -15 14 -27 1 -11 9 -38 18 -58 17 -35 19 -37 35 -21 9 10 17 12 17 6 0
-18 -49 -52 -86 -59 -45 -8 -49 -18 -24 -54 15 -21 20 -39 16 -55 -4 -14 -1
-45 5 -69 10 -39 8 -48 -16 -97 -39 -77 -44 -83 -64 -65 -9 8 -70 41 -137 74
-132 66 -133 68 -212 212 -23 41 -57 92 -77 113 -33 35 -143 97 -172 97 -6 0
-26 16 -45 35 -33 35 -33 37 -39 153 -6 126 -25 195 -63 237 -27 29 -36 31
-36 9 0 -15 -23 -44 -34 -44 -3 0 -6 15 -6 33 0 33 18 57 73 98 38 28 36 59
-3 59 -30 0 -41 14 -17 23 8 4 8 6 -2 6 -11 1 -10 5 5 16 18 14 18 14 -11 15
-41 0 -148 -64 -164 -98 -6 -15 -21 -43 -31 -63 -26 -46 -43 -142 -37 -198 3
-24 29 -92 61 -156 41 -82 56 -124 56 -154 0 -31 9 -54 34 -90 l33 -49 -23
-69 c-64 -193 -104 -474 -71 -501 13 -11 23 -3 70 50 31 35 64 74 74 87 26 32
55 22 93 -33 57 -84 140 -142 332 -231 l127 -59 -17 -29 c-9 -16 -40 -59 -68
-95 -143 -188 -179 -267 -171 -367 2 -33 14 -81 26 -107 20 -44 20 -78 0 -78
-5 0 -9 -13 -9 -30 0 -23 7 -33 30 -45 27 -14 28 -18 18 -40 -6 -14 -15 -25
-20 -25 -35 0 -178 -195 -163 -220 4 -6 19 -10 36 -10 26 0 32 7 55 55 24 50
64 95 85 95 4 0 -1 -21 -13 -46 -13 -32 -19 -59 -15 -84 3 -27 -2 -51 -20 -86
-15 -30 -20 -50 -14 -52 6 -2 11 -10 11 -18 0 -22 11 -17 41 19 20 23 30 29
39 21 13 -13 -10 -183 -34 -253 -23 -63 -21 -73 10 -61 14 6 30 8 35 4 5 -3 9
-48 9 -100 l0 -94 914 0 913 0 7 37 c3 21 6 61 6 88 0 70 -79 412 -135 585
-163 506 -198 677 -176 878 16 156 60 458 71 502 6 19 10 47 10 62 0 15 15 44
36 69 73 88 79 108 79 269 -1 136 -3 151 -31 231 -39 110 -103 206 -197 296
-118 112 -188 156 -296 183 l-43 11 25 27 c13 15 30 38 37 50 10 21 9 27 -11
48 -25 27 -79 34 -79 9z m-420 -1340 c0 -8 -4 -15 -10 -15 -5 0 -10 7 -10 15
0 8 5 15 10 15 6 0 10 -7 10 -15z m-660 -1521 c0 -8 -5 -12 -10 -9 -6 4 -8 11
-5 16 9 14 15 11 15 -7z m920 -51 c1 -10 9 -66 19 -126 9 -59 14 -104 10 -100
-12 13 -61 215 -55 229 8 20 26 17 26 -3z"/>
</g>
</svg>
