<?xml version="1.0" standalone="no"?>
<!DOCTYPE svg PUBLIC "-//W3C//DTD SVG 20010904//EN"
 "http://www.w3.org/TR/2001/REC-SVG-20010904/DTD/svg10.dtd">
<svg version="1.0" xmlns="http://www.w3.org/2000/svg"
 width="480.000000pt" height="360.000000pt" viewBox="0 0 480.000000 360.000000"
 preserveAspectRatio="xMidYMid meet">
<metadata>
Created by potrace 1.16, written by Peter Selinger 2001-2019
</metadata>
<rect width="1" height="360" fill="#000000"/>
<rect x="479" width="1" height="360" fill="#000000"/>
<rect width="480" height="1" fill="#000000"/>
<rect y="359" width="480" height="1" fill="#000000"/>
<g transform="translate(0.000000,360.000000) scale(0.100000,-0.100000)"
fill="#000000" stroke="none">
<path d="M2110 3570 c-20 -47 -37 -56 -63 -33 -30 28 -61 43 -88 43 -31 0 -88
-40 -95 -67 -3 -12 -14 -29 -25 -39 -10 -9 -19 -23 -19 -31 0 -7 -4 -13 -10
-13 -11 0 -12 -81 -1 -120 5 -19 16 -26 51 -33 25 -5 46 -10 48 -11 1 -2 -7
-31 -18 -66 -26 -81 -25 -100 6 -163 39 -76 44 -100 53 -232 6 -81 16 -141 31
-183 23 -65 22 -70 -4 -167 l-13 -50 27 -12 c24 -9 29 -19 35 -65 4 -29 16
-80 27 -113 36 -107 13 -179 -99 -311 -167 -199 -337 -341 -492 -412 -48 -22
-76 -27 -200 -34 -137 -7 -255 -29 -326 -60 -90 -39 -122 -68 -185 -165 -79
-123 -79 -121 -38 -125 l33 -4 -27 -12 c-16 -6 -28 -15 -28 -20 0 -17 33 -53
63 -68 18 -9 36 -23 40 -30 5 -8 24 -14 46 -14 21 0 84 -14 142 -30 57 -17
130 -38 163 -47 61 -18 110 -51 287 -193 52 -42 112 -83 134 -91 78 -31 110
-42 142 -46 17 -3 40 -13 51 -23 50 -47 124 -67 166 -45 22 12 31 13 37 4 5
-8 41 -10 133 -4 l125 7 -6 -54 c-3 -29 -11 -87 -17 -128 -10 -71 -13 -76 -45
-91 -58 -27 -71 -72 -49 -168 l11 -51 522 0 521 0 14 62 c11 51 11 97 2 268
-7 113 -19 252 -27 310 -15 101 -13 160 5 160 5 0 12 -5 15 -10 27 -43 285 95
381 203 38 44 164 269 164 295 0 5 -24 20 -52 34 -29 14 -89 44 -133 67 -44
22 -145 66 -225 97 -80 31 -153 64 -163 73 -17 17 -17 25 -1 182 34 343 -7
641 -115 839 -11 19 -34 62 -51 95 -18 33 -42 74 -54 90 -43 59 -44 57 25 51
85 -8 135 4 130 30 -2 10 -4 42 -5 69 l-1 50 -210 5 c-115 3 -216 9 -222 13
-18 12 -17 67 1 67 8 0 44 -7 81 -15 36 -9 119 -24 184 -33 114 -17 120 -17
152 0 19 10 43 18 54 18 17 0 20 7 21 44 1 40 -2 45 -25 49 -14 3 -66 3 -116
0 -100 -5 -243 14 -365 49 -82 24 -93 32 -85 64 4 17 -1 23 -24 27 -25 5 -29
11 -35 54 -3 26 -18 103 -33 171 l-28 122 -146 0 -147 0 -12 -30z"/>
</g>
</svg>
