<?xml version="1.0" standalone="no"?>
<!DOCTYPE svg PUBLIC "-//W3C//DTD SVG 20010904//EN"
 "http://www.w3.org/TR/2001/REC-SVG-20010904/DTD/svg10.dtd">
<svg version="1.0" xmlns="http://www.w3.org/2000/svg"
 width="480.000000pt" height="360.000000pt" viewBox="0 0 480.000000 360.000000"
 preserveAspectRatio="xMidYMid meet">
<metadata>
Created by potrace 1.16, written by Peter Selinger 2001-2019
</metadata>
<rect width="1" height="360" fill="#000000"/>
<rect x="479" width="1" height="360" fill="#000000"/>
<rect width="480" height="1" fill="#000000"/>
<rect y="359" width="480" height="1" fill="#000000"/>
<g transform="translate(0.000000,360.000000) scale(0.100000,-0.100000)"
fill="#000000" stroke="none">
<path d="M848 3553 c-8 -95 11 -125 180 -274 70 -62 153 -139 185 -170 31 -32
74 -71 94 -86 82 -62 143 -126 153 -161 8 -30 4 -47 -25 -117 -18 -45 -39
-111 -45 -146 -12 -64 -29 -129 -56 -205 -13 -37 -82 -155 -134 -229 -127
-182 -134 -213 -70 -310 22 -33 56 -80 75 -105 61 -79 75 -104 75 -142 0 -43
-31 -85 -200 -273 -14 -16 -35 -43 -46 -60 -10 -16 -41 -55 -69 -85 -144 -156
-213 -228 -248 -255 -45 -35 -54 -63 -36 -108 7 -19 142 -163 324 -347 270
-273 317 -326 358 -397 l48 -83 1017 0 1017 0 30 62 c17 33 55 107 86 163 31
55 62 119 69 141 7 21 49 110 93 197 108 213 111 247 31 372 -17 28 -46 66
-63 85 -27 30 -57 72 -164 229 -30 43 -17 93 60 232 38 69 75 140 81 159 7 18
12 80 12 137 0 135 -13 160 -167 328 -65 72 -147 166 -183 210 -133 166 -155
191 -202 240 -27 28 -66 83 -85 123 l-37 73 17 52 c9 29 25 86 36 127 29 106
207 545 247 608 19 29 34 55 34 57 0 3 -560 5 -1244 5 l-1244 0 -4 -47z"/>
</g>
</svg>
