<?xml version="1.0" standalone="no"?>
<!DOCTYPE svg PUBLIC "-//W3C//DTD SVG 20010904//EN"
 "http://www.w3.org/TR/2001/REC-SVG-20010904/DTD/svg10.dtd">
<svg version="1.0" xmlns="http://www.w3.org/2000/svg"
 width="480.000000pt" height="360.000000pt" viewBox="0 0 480.000000 360.000000"
 preserveAspectRatio="xMidYMid meet">
<metadata>
Created by potrace 1.16, written by Peter Selinger 2001-2019
</metadata>
<rect width="1" height="360" fill="#000000"/>
<rect x="479" width="1" height="360" fill="#000000"/>
<rect width="480" height="1" fill="#000000"/>
<rect y="359" width="480" height="1" fill="#000000"/>
<g transform="translate(0.000000,360.000000) scale(0.100000,-0.100000)"
fill="#000000" stroke="none">
<path d="M1051 2734 c32 -35 33 -36 9 -30 -14 4 -65 9 -115 12 -104 6 -146 -8
-180 -63 -12 -21 -28 -32 -40 -32 -45 2 -63 -2 -83 -19 -16 -15 -19 -21 -9
-31 9 -9 9 -16 -1 -31 -10 -17 -9 -27 7 -59 11 -21 27 -41 36 -45 9 -3 21 -19
26 -35 6 -16 19 -31 30 -34 17 -5 19 -11 13 -49 -15 -112 -38 -204 -56 -229
-20 -26 -42 -167 -37 -229 9 -113 -22 -260 -57 -274 -9 -4 -13 -13 -10 -24 4
-10 -6 -47 -20 -83 -14 -35 -30 -74 -35 -87 -7 -19 -5 -24 16 -34 18 -8 25
-19 25 -38 0 -40 20 -89 40 -100 27 -14 56 -12 70 5 10 12 7 17 -16 27 -39 17
-44 27 -31 55 8 18 17 23 36 21 26 -3 26 -4 29 -98 5 -140 -16 -789 -29 -908
l-12 -102 33 -31 c27 -26 37 -30 66 -24 l34 6 -12 -28 c-6 -15 -15 -32 -20
-37 -13 -16 -9 -53 7 -66 21 -17 129 -9 152 13 25 22 47 100 39 140 -27 127
-22 134 100 142 87 5 91 4 103 -18 9 -18 9 -39 -4 -107 -30 -156 -30 -146 2
-157 40 -13 99 0 129 28 25 24 27 39 11 122 -1 5 16 16 38 24 99 40 123 89 86
173 -31 70 -92 328 -156 655 -35 184 -76 455 -69 466 3 5 1 24 -5 42 -18 54
-61 240 -57 244 2 2 19 -5 37 -16 25 -15 36 -17 46 -9 10 8 26 5 63 -12 60
-28 93 -22 120 23 28 46 25 62 -20 111 -22 24 -40 46 -40 50 0 4 20 37 45 73
24 37 41 71 38 76 -8 13 -231 157 -243 157 -18 0 -11 38 13 67 36 44 57 81 57
99 0 9 8 23 18 30 16 13 16 15 -7 34 -17 15 -19 20 -7 20 14 0 36 28 36 45 0
4 -18 5 -40 4 l-41 -3 -36 69 c-40 79 -66 110 -105 131 -46 24 -53 15 -17 -22z"/>
</g>
</svg>
