<?xml version="1.0" standalone="no"?>
<!DOCTYPE svg PUBLIC "-//W3C//DTD SVG 20010904//EN"
 "http://www.w3.org/TR/2001/REC-SVG-20010904/DTD/svg10.dtd">
<svg version="1.0" xmlns="http://www.w3.org/2000/svg"
 width="480.000000pt" height="360.000000pt" viewBox="0 0 480.000000 360.000000"
 preserveAspectRatio="xMidYMid meet">
<metadata>
Created by potrace 1.16, written by Peter Selinger 2001-2019
</metadata>
<rect width="1" height="360" fill="#000000"/>
<rect x="479" width="1" height="360" fill="#000000"/>
<rect width="480" height="1" fill="#000000"/>
<rect y="359" width="480" height="1" fill="#000000"/>
<g transform="translate(0.000000,360.000000) scale(0.100000,-0.100000)"
fill="#000000" stroke="none">
<path d="M1440 3577 c0 -12 9 -45 19 -72 11 -28 37 -98 59 -156 23 -59 50
-124 61 -145 12 -21 21 -44 21 -50 0 -21 66 -87 89 -89 20 -1 23 -7 25 -61 2
-41 13 -80 35 -129 36 -78 35 -92 -9 -164 -17 -26 -30 -62 -30 -78 0 -33 -16
-82 -48 -154 -11 -25 -23 -58 -27 -74 l-7 -30 20 24 19 24 -3 -94 c-3 -85 -2
-91 10 -64 12 29 13 28 9 -25 -4 -39 -16 -74 -42 -120 -64 -113 -81 -147 -81
-163 0 -8 -7 -20 -15 -27 -8 -7 -18 -28 -21 -48 -4 -20 -13 -42 -19 -49 -24
-23 -72 -187 -80 -269 -2 -17 -7 -40 -13 -50 -5 -11 -10 -37 -10 -59 0 -22 -1
-42 -2 -45 -1 -3 -4 -43 -6 -89 -2 -47 -6 -91 -8 -98 -3 -8 -1 -59 5 -113 5
-55 12 -133 14 -173 2 -39 6 -101 9 -136 5 -57 2 -75 -28 -150 -18 -47 -41
-110 -52 -139 l-18 -52 43 -44 42 -43 -37 -89 c-33 -77 -38 -102 -42 -186 l-4
-98 189 0 190 0 28 58 c128 261 198 519 235 874 13 123 13 362 0 452 -10 68
-7 106 9 106 5 0 20 -42 34 -92 48 -174 50 -196 37 -389 -6 -98 -9 -182 -6
-188 3 -5 2 -19 -2 -32 -5 -13 -5 -34 1 -50 9 -23 5 -37 -26 -96 -49 -93 -79
-180 -122 -353 -20 -80 -49 -177 -65 -217 l-28 -73 767 3 c783 3 823 5 860 42
19 19 28 215 13 283 -9 39 -6 53 28 139 l37 95 -69 152 c-115 250 -204 474
-236 596 -17 63 -38 136 -46 162 -14 47 -13 49 20 119 19 39 34 79 34 89 0 27
-30 40 -94 40 -68 0 -63 -10 -91 228 -11 97 -19 132 -39 167 -30 51 -91 105
-164 147 l-52 30 25 45 c14 25 25 47 25 48 0 1 -23 5 -51 8 -29 4 -53 8 -55
10 -3 2 5 26 17 52 25 56 59 171 59 199 0 29 50 189 64 203 6 7 31 15 56 17
73 8 81 11 98 38 21 35 7 66 -76 177 -88 118 -91 124 -55 117 15 -3 57 -8 93
-12 63 -6 66 -5 77 19 8 18 8 28 1 35 -8 8 -7 13 6 18 10 4 15 13 11 24 -3 9
1 23 9 29 9 8 13 25 11 49 -2 20 1 51 6 69 7 22 7 38 0 52 -7 13 -8 22 -1 26
5 3 10 24 10 46 l0 39 -825 0 -825 0 0 -23z m162 -2149 c-7 -7 -12 -8 -12 -2
0 6 3 14 7 17 3 4 9 5 12 2 2 -3 -1 -11 -7 -17z"/>
</g>
</svg>
