<?xml version="1.0" standalone="no"?>
<!DOCTYPE svg PUBLIC "-//W3C//DTD SVG 20010904//EN"
 "http://www.w3.org/TR/2001/REC-SVG-20010904/DTD/svg10.dtd">
<svg version="1.0" xmlns="http://www.w3.org/2000/svg"
 width="480.000000pt" height="360.000000pt" viewBox="0 0 480.000000 360.000000"
 preserveAspectRatio="xMidYMid meet">
<metadata>
Created by potrace 1.16, written by Peter Selinger 2001-2019
</metadata>
<rect width="1" height="360" fill="#000000"/>
<rect x="479" width="1" height="360" fill="#000000"/>
<rect width="480" height="1" fill="#000000"/>
<rect y="359" width="480" height="1" fill="#000000"/>
<g transform="translate(0.000000,360.000000) scale(0.100000,-0.100000)"
fill="#000000" stroke="none">
<path d="M2040 3150 c-191 -29 -313 -89 -350 -173 -24 -52 -26 -172 -6 -280
21 -109 65 -188 157 -282 43 -44 85 -96 93 -116 25 -60 30 -129 11 -173 -37
-86 7 -157 119 -194 156 -51 421 -70 519 -36 71 24 90 54 84 134 -5 58 -2 72
29 136 32 68 37 74 128 133 52 34 113 82 135 107 22 26 74 69 114 98 164 113
217 186 237 326 22 155 -121 223 -252 121 l-27 -22 -48 37 c-120 92 -331 159
-595 189 -164 18 -203 18 -348 -5z m1179 -266 c26 -33 26 -49 0 -118 -15 -41
-35 -68 -76 -106 -31 -27 -59 -48 -61 -45 -2 2 1 26 7 52 13 57 15 124 6 173
-6 33 -4 37 27 52 48 24 74 22 97 -8z"/>
</g>
</svg>
