<?xml version="1.0" standalone="no"?>
<!DOCTYPE svg PUBLIC "-//W3C//DTD SVG 20010904//EN"
 "http://www.w3.org/TR/2001/REC-SVG-20010904/DTD/svg10.dtd">
<svg version="1.0" xmlns="http://www.w3.org/2000/svg"
 width="480.000000pt" height="360.000000pt" viewBox="0 0 480.000000 360.000000"
 preserveAspectRatio="xMidYMid meet">
<metadata>
Created by potrace 1.16, written by Peter Selinger 2001-2019
</metadata>
<rect width="1" height="360" fill="#000000"/>
<rect x="479" width="1" height="360" fill="#000000"/>
<rect width="480" height="1" fill="#000000"/>
<rect y="359" width="480" height="1" fill="#000000"/>
<g transform="translate(0.000000,360.000000) scale(0.100000,-0.100000)"
fill="#000000" stroke="none">
<path d="M1376 2689 c-14 -11 -26 -29 -26 -40 0 -67 86 -178 239 -309 140
-119 444 -414 416 -404 -75 27 -140 15 -198 -36 -72 -64 -84 -118 -52 -246 4
-18 -1 -22 -34 -28 -53 -8 -147 -93 -161 -145 -10 -38 0 -123 21 -179 8 -21 5
-30 -20 -56 -37 -39 -58 -95 -66 -183 -7 -62 -4 -77 23 -145 36 -90 74 -153
101 -168 31 -16 92 -12 140 10 24 11 49 20 56 20 7 0 37 -30 66 -68 158 -201
554 -617 651 -681 l47 -31 1032 2 1032 3 -49 31 c-65 42 -586 354 -899 539
-262 155 -322 191 -445 260 l-74 43 -1 74 c-3 181 -43 379 -116 563 -69 178
-176 406 -205 436 -34 35 -177 122 -245 149 -29 12 -63 19 -75 16 -12 -3 -43
-26 -69 -51 l-46 -45 -87 62 c-48 34 -130 96 -182 138 -52 41 -131 102 -175
134 -44 33 -123 96 -175 141 -119 102 -187 150 -264 186 -73 34 -123 37 -160
8z"/>
</g>
</svg>
