<?xml version="1.0" standalone="no"?>
<!DOCTYPE svg PUBLIC "-//W3C//DTD SVG 20010904//EN"
 "http://www.w3.org/TR/2001/REC-SVG-20010904/DTD/svg10.dtd">
<svg version="1.0" xmlns="http://www.w3.org/2000/svg"
 width="480.000000pt" height="360.000000pt" viewBox="0 0 480.000000 360.000000"
 preserveAspectRatio="xMidYMid meet">
<metadata>
Created by potrace 1.16, written by Peter Selinger 2001-2019
</metadata>
<rect width="1" height="360" fill="#000000"/>
<rect x="479" width="1" height="360" fill="#000000"/>
<rect width="480" height="1" fill="#000000"/>
<rect y="359" width="480" height="1" fill="#000000"/>
<g transform="translate(0.000000,360.000000) scale(0.100000,-0.100000)"
fill="#000000" stroke="none">
<path d="M0 2815 l0 -786 52 29 c97 54 294 140 394 172 128 41 205 47 325 26
226 -41 310 -59 404 -87 105 -32 285 -113 285 -128 0 -5 -7 -14 -15 -21 -24
-20 -18 -49 18 -90 47 -55 68 -131 68 -244 1 -105 -4 -118 -70 -188 -36 -38
-42 -50 -32 -61 20 -25 96 -40 160 -33 77 9 88 -5 69 -94 -11 -57 -11 -61 10
-87 58 -73 57 -68 33 -133 -24 -65 -19 -93 18 -105 33 -10 41 -28 31 -66 -7
-25 -5 -53 9 -109 12 -50 15 -81 9 -93 -15 -29 -124 -104 -176 -121 -27 -9
-61 -30 -77 -46 l-28 -29 19 -27 c10 -15 23 -33 28 -40 7 -8 4 -24 -9 -48 -16
-29 -17 -39 -7 -61 11 -24 10 -25 -7 -15 -31 16 -32 14 -29 -57 l3 -68 80 -28
c106 -38 135 -42 207 -27 46 9 76 9 130 0 72 -12 91 -28 68 -55 -7 -9 -11 -17
-9 -18 8 -6 108 -29 223 -53 l119 -24 1248 0 1249 0 0 1800 0 1800 -2400 0
-2400 0 0 -785z"/>
</g>
</svg>
