<?xml version="1.0" standalone="no"?>
<!DOCTYPE svg PUBLIC "-//W3C//DTD SVG 20010904//EN"
 "http://www.w3.org/TR/2001/REC-SVG-20010904/DTD/svg10.dtd">
<svg version="1.0" xmlns="http://www.w3.org/2000/svg"
 width="480.000000pt" height="360.000000pt" viewBox="0 0 480.000000 360.000000"
 preserveAspectRatio="xMidYMid meet">
<metadata>
Created by potrace 1.16, written by Peter Selinger 2001-2019
</metadata>
<rect width="1" height="360" fill="#000000"/>
<rect x="479" width="1" height="360" fill="#000000"/>
<rect width="480" height="1" fill="#000000"/>
<rect y="359" width="480" height="1" fill="#000000"/>
<g transform="translate(0.000000,360.000000) scale(0.100000,-0.100000)"
fill="#000000" stroke="none">
<path d="M1691 3479 c-19 -18 -36 -43 -38 -58 -5 -29 -14 -165 -14 -196 1 -11
1 -36 1 -55 0 -19 6 -60 13 -90 15 -63 31 -71 111 -58 28 4 52 5 54 3 3 -3
-23 -40 -56 -83 -81 -104 -89 -124 -69 -155 12 -18 28 -26 66 -31 l51 -7 1
-167 c1 -153 2 -164 15 -134 30 67 27 28 -7 -103 -10 -38 -16 -71 -14 -73 2
-2 13 16 24 40 25 52 26 44 5 -28 -13 -44 -23 -60 -55 -81 -61 -40 -76 -73
-94 -211 -9 -67 -20 -134 -26 -149 -9 -23 -13 -25 -50 -20 -74 10 -84 -5 -48
-75 26 -51 23 -97 -19 -238 -30 -103 -105 -277 -215 -496 l-54 -109 30 -64 30
-63 -13 -97 c-7 -53 -10 -115 -6 -136 10 -60 10 -60 -13 -205 -11 -74 -21
-156 -21 -182 0 -58 25 -125 52 -139 30 -16 68 -18 68 -4 0 7 7 18 15 25 8 7
38 51 66 97 28 46 52 83 54 81 2 -2 -8 -43 -21 -93 -13 -50 -24 -98 -24 -107
0 -17 41 -18 716 -18 569 0 715 3 711 12 -2 7 -19 52 -37 100 l-33 88 27 21
c14 11 33 36 41 56 17 41 35 173 35 260 0 53 4 66 22 81 98 79 103 102 47 209
-38 72 -40 93 -8 93 12 0 16 5 13 14 -3 8 -1 17 4 20 9 5 1 61 -15 106 -3 8
-7 26 -9 40 -2 14 -15 60 -29 103 -14 43 -25 88 -25 102 0 13 -4 26 -9 29 -5
3 -9 16 -9 28 0 28 -89 308 -103 325 -12 14 -14 64 -4 110 7 33 5 36 -62 89
-18 14 -33 33 -33 43 0 9 -6 26 -14 37 -8 11 -25 54 -39 96 -14 43 -32 87 -40
98 -17 24 -12 109 8 125 9 8 10 37 2 130 -5 66 -14 123 -19 126 -15 10 -17
102 -2 129 12 23 13 23 14 5 0 -12 -6 -27 -12 -34 -11 -10 -10 -11 4 -6 28 11
52 76 56 153 4 66 6 72 26 72 36 0 50 20 143 199 30 58 59 111 63 116 13 18
18 55 9 61 -5 3 -7 9 -4 13 17 29 -123 90 -256 111 -102 16 -211 0 -245 -37
l-24 -26 -17 22 c-22 27 -125 55 -174 47 -32 -5 -41 -1 -76 32 -66 62 -226
112 -358 112 -42 -1 -56 -6 -84 -31z m184 -1866 c3 -15 6 -65 5 -112 -1 -47
-2 -97 -1 -111 0 -14 -7 -67 -15 -117 -9 -51 -12 -97 -9 -103 4 -6 1 -17 -5
-25 -7 -8 -9 -26 -6 -39 4 -18 -1 -33 -19 -53 -29 -33 -29 -39 -11 129 8 73
17 183 21 243 8 153 15 215 25 215 4 0 11 -12 15 -27z"/>
</g>
</svg>
