<?xml version="1.0" standalone="no"?>
<!DOCTYPE svg PUBLIC "-//W3C//DTD SVG 20010904//EN"
 "http://www.w3.org/TR/2001/REC-SVG-20010904/DTD/svg10.dtd">
<svg version="1.0" xmlns="http://www.w3.org/2000/svg"
 width="480.000000pt" height="360.000000pt" viewBox="0 0 480.000000 360.000000"
 preserveAspectRatio="xMidYMid meet">
<metadata>
Created by potrace 1.16, written by Peter Selinger 2001-2019
</metadata>
<rect width="1" height="360" fill="#000000"/>
<rect x="479" width="1" height="360" fill="#000000"/>
<rect width="480" height="1" fill="#000000"/>
<rect y="359" width="480" height="1" fill="#000000"/>
<g transform="translate(0.000000,360.000000) scale(0.100000,-0.100000)"
fill="#000000" stroke="none">
<path d="M3830 3053 c-30 -35 -140 -205 -140 -217 0 -8 -51 -118 -98 -211 -8
-16 -26 -52 -39 -80 -13 -27 -28 -57 -33 -65 -5 -8 -40 -73 -78 -145 -39 -71
-93 -167 -120 -212 -28 -46 -59 -99 -68 -119 l-17 -35 -76 80 c-61 64 -85 82
-120 91 -49 13 -129 2 -195 -25 -36 -15 -76 -58 -76 -81 0 -18 -8 -17 -60 1
-23 8 -58 15 -78 15 -50 0 -150 -38 -201 -76 l-43 -33 -41 21 -41 20 -40 -20
c-23 -11 -54 -25 -69 -31 -15 -6 -30 -19 -34 -28 -3 -10 -14 -27 -23 -38 -9
-11 -45 -67 -79 -125 -59 -99 -62 -108 -58 -158 5 -64 23 -85 93 -111 35 -12
49 -22 47 -35 -37 -425 -22 -723 48 -957 66 -223 103 -294 226 -427 l48 -52
727 2 726 3 -121 132 c-67 73 -197 213 -288 310 l-166 178 54 60 c167 185 247
375 314 750 30 168 19 219 -61 306 -17 17 -30 36 -30 43 0 19 75 216 125 326
26 58 77 175 115 260 37 85 97 214 134 285 103 201 135 336 92 384 -21 23 -67
28 -112 11 -19 -8 -30 -8 -38 0 -5 5 -22 10 -36 10 -14 0 -31 5 -36 10 -7 7
-18 1 -34 -17z"/>
</g>
</svg>
