<?xml version="1.0" standalone="no"?>
<!DOCTYPE svg PUBLIC "-//W3C//DTD SVG 20010904//EN"
 "http://www.w3.org/TR/2001/REC-SVG-20010904/DTD/svg10.dtd">
<svg version="1.0" xmlns="http://www.w3.org/2000/svg"
 width="480.000000pt" height="360.000000pt" viewBox="0 0 480.000000 360.000000"
 preserveAspectRatio="xMidYMid meet">
<metadata>
Created by potrace 1.16, written by Peter Selinger 2001-2019
</metadata>
<rect width="1" height="360" fill="#000000"/>
<rect x="479" width="1" height="360" fill="#000000"/>
<rect width="480" height="1" fill="#000000"/>
<rect y="359" width="480" height="1" fill="#000000"/>
<g transform="translate(0.000000,360.000000) scale(0.100000,-0.100000)"
fill="#000000" stroke="none">
<path d="M2123 3216 c-100 -32 -176 -108 -220 -219 -25 -63 -28 -86 -29 -190
-1 -100 -4 -121 -20 -138 -34 -38 -76 -62 -108 -63 -26 -1 -31 -5 -34 -28 -2
-15 -15 -37 -29 -48 l-27 -21 55 -55 c30 -30 69 -64 87 -76 32 -20 34 -20 46
-2 13 17 17 13 50 -39 20 -31 36 -61 36 -68 0 -18 -59 -110 -83 -130 -22 -18
-22 -18 21 -19 37 0 43 -3 38 -17 -3 -10 -8 -36 -11 -58 l-6 -40 35 37 35 37
26 -46 c28 -46 41 -47 47 -3 3 22 8 18 51 -43 51 -71 63 -81 54 -44 -5 20 -4
20 16 -5 24 -29 37 -35 37 -17 0 6 6 16 13 23 19 20 51 -5 42 -33 -7 -24 -33
-31 -189 -56 -205 -31 -249 -72 -326 -300 l-28 -80 -68 -6 c-276 -25 -340 -7
-579 164 -114 82 -159 108 -260 147 -86 34 -105 48 -105 79 0 14 -5 33 -10 41
-15 24 -38 3 -126 -119 -150 -206 -308 -372 -496 -521 l-57 -45 -1 -87 c0 -98
-3 -95 78 -77 45 11 59 9 155 -20 59 -17 118 -31 131 -31 28 0 55 34 88 107
35 80 76 133 103 133 22 0 32 -10 92 -98 15 -23 26 -10 32 40 9 60 26 66 99
33 72 -32 142 -101 142 -140 0 -14 4 -25 9 -25 5 0 43 21 85 47 129 78 213 71
321 -28 23 -21 51 -39 62 -39 11 0 69 36 129 80 117 85 251 166 260 157 3 -3
-6 -21 -20 -40 -26 -33 -26 -35 -6 -40 13 -3 20 -13 20 -31 0 -18 9 -30 31
-42 l32 -16 -5 -166 c-6 -182 -7 -179 61 -223 22 -14 23 -18 13 -50 -6 -18
-16 -53 -22 -77 -10 -38 -17 -46 -56 -64 -36 -15 -44 -23 -38 -36 16 -37 16
-93 0 -111 -14 -16 -14 -21 0 -59 9 -23 21 -39 27 -35 5 3 -23 -55 -62 -129
-39 -74 -71 -138 -71 -141 0 -4 277 -7 615 -7 338 0 615 2 615 4 0 3 -31 67
-69 143 l-69 138 23 40 c42 73 41 80 -10 138 l-46 52 4 115 c5 111 28 325 33
305 1 -6 8 -56 14 -113 16 -131 36 -162 108 -162 55 0 108 24 136 62 16 23 19
42 19 120 -1 51 -8 134 -17 184 -17 97 -14 124 13 124 9 0 27 7 39 16 22 15
26 14 75 -18 29 -19 87 -64 130 -99 154 -125 154 -125 213 -78 54 43 128 79
163 79 42 0 106 -30 179 -84 51 -38 66 -45 78 -35 8 6 14 17 14 23 0 23 51 65
102 84 77 28 132 36 172 22 34 -11 35 -12 38 -72 l3 -60 28 31 c85 91 96 101
119 101 38 0 76 -39 157 -161 51 -75 84 -115 97 -117 11 -2 46 7 77 18 l57 21
0 207 -1 207 -46 35 c-78 59 -243 230 -333 346 -107 137 -143 174 -169 174
-18 0 -21 -6 -21 -38 0 -51 -16 -64 -120 -100 -100 -34 -165 -66 -270 -132
-159 -100 -262 -140 -359 -140 -30 0 -109 10 -175 21 -96 18 -123 20 -139 10
-23 -15 -20 -18 -35 44 -20 82 -119 271 -158 303 -38 31 -96 51 -241 81 -50
11 -110 29 -133 41 -41 21 -41 22 -35 63 9 57 25 70 18 16 l-5 -44 29 31 c33
35 60 40 69 12 7 -24 21 -23 29 2 7 24 23 26 31 5 9 -22 31 -18 45 6 9 17 13
19 20 8 6 -9 9 2 9 33 0 64 21 74 44 23 5 -10 32 17 39 38 1 5 18 0 37 -12 19
-11 38 -21 42 -21 3 0 -5 22 -18 50 -13 27 -24 52 -24 55 0 3 12 5 28 5 50 0
56 14 18 44 -20 15 -43 40 -51 56 -14 27 -14 29 5 35 11 4 20 15 20 26 0 16
23 73 35 87 2 2 12 -1 24 -7 16 -9 23 -7 35 11 9 12 16 39 16 59 0 29 -7 42
-39 70 -57 51 -81 106 -34 80 36 -20 162 -71 176 -71 21 0 39 72 36 146 -1 35
0 67 3 70 4 3 21 7 40 8 18 2 59 9 91 16 63 15 73 33 35 66 -33 29 -95 130
-118 192 -12 31 -22 84 -23 121 l-2 66 -35 -3 c-19 -1 -41 -9 -50 -16 -8 -8
-28 -20 -45 -29 -16 -8 -41 -26 -55 -38 -28 -26 -66 -54 -113 -82 -29 -18 -30
-18 -45 5 -33 48 -98 102 -161 132 l-66 31 -245 2 c-183 2 -256 -1 -287 -11z"/>
</g>
</svg>
