<?xml version="1.0" standalone="no"?>
<!DOCTYPE svg PUBLIC "-//W3C//DTD SVG 20010904//EN"
 "http://www.w3.org/TR/2001/REC-SVG-20010904/DTD/svg10.dtd">
<svg version="1.0" xmlns="http://www.w3.org/2000/svg"
 width="480.000000pt" height="360.000000pt" viewBox="0 0 480.000000 360.000000"
 preserveAspectRatio="xMidYMid meet">
<metadata>
Created by potrace 1.16, written by Peter Selinger 2001-2019
</metadata>
<rect width="1" height="360" fill="#000000"/>
<rect x="479" width="1" height="360" fill="#000000"/>
<rect width="480" height="1" fill="#000000"/>
<rect y="359" width="480" height="1" fill="#000000"/>
<g transform="translate(0.000000,360.000000) scale(0.100000,-0.100000)"
fill="#000000" stroke="none">
<path d="M4779 2653 c-12 -31 -5 -155 10 -194 7 -17 10 9 10 99 1 67 -1 122
-4 122 -3 0 -10 -12 -16 -27z"/>
<path d="M1 1395 l-1 -901 42 -33 c34 -25 49 -31 73 -27 43 8 61 37 116 182
57 152 76 174 148 174 93 0 123 58 120 230 -2 110 -21 196 -65 281 -73 145
-28 196 174 198 48 1 66 5 82 21 44 44 8 129 -48 116 -75 -17 -169 -18 -198
-3 -53 27 -57 38 -65 190 -6 108 -14 161 -33 222 -41 130 -79 155 -154 98 -51
-39 -80 -29 -116 39 -17 32 -41 70 -53 85 l-22 28 0 -900z"/>
<path d="M1756 1874 c-21 -21 -21 -26 13 -76 50 -75 159 -291 171 -338 7 -25
16 -76 20 -113 10 -79 31 -148 60 -195 19 -30 24 -33 63 -30 l42 3 24 -80 c35
-114 40 -257 11 -314 -23 -46 -21 -59 18 -158 23 -56 17 -106 -15 -138 -9 -9
-26 -31 -38 -49 -22 -32 -22 -33 -3 -69 10 -21 23 -38 28 -39 32 -4 35 -2 32
29 -8 80 58 34 69 -49 16 -119 31 -148 75 -148 12 0 33 -9 48 -21 24 -19 27
-19 42 -5 9 9 32 16 54 16 40 0 50 -13 50 -72 l0 -28 191 0 191 0 -69 68 c-86
84 -186 209 -218 272 -22 43 -23 55 -18 136 5 80 3 96 -20 154 -14 36 -28 84
-32 108 -6 40 -4 45 35 89 43 45 43 46 37 107 -3 33 -18 95 -32 136 -23 64
-25 85 -20 146 6 61 3 78 -14 112 -14 27 -26 84 -36 172 -18 150 -38 205 -94
249 -48 38 -81 46 -128 31 -49 -16 -77 -42 -114 -107 -33 -57 -32 -91 3 -130
26 -28 21 -69 -9 -66 -14 2 -30 -7 -43 -24 l-20 -26 -21 22 c-12 12 -26 20
-33 18 -29 -11 -87 72 -171 246 -48 98 -93 177 -100 177 -8 0 -21 -7 -29 -16z
m430 -682 c8 -72 -8 -90 -32 -38 -15 30 -15 40 -4 81 16 57 27 44 36 -43z"/>
<path d="M4781 1233 c-43 -94 -202 -216 -380 -292 -104 -44 -177 -59 -336 -67
-159 -8 -188 -17 -210 -71 -28 -66 6 -142 78 -180 94 -48 400 62 732 264 22
13 61 34 88 46 l47 21 0 153 c0 84 -2 153 -3 153 -2 0 -9 -12 -16 -27z"/>
<path d="M2450 10 c0 -5 12 -10 28 -9 24 0 25 1 7 9 -27 12 -35 12 -35 0z"/>
</g>
</svg>
