<?xml version="1.0" standalone="no"?>
<!DOCTYPE svg PUBLIC "-//W3C//DTD SVG 20010904//EN"
 "http://www.w3.org/TR/2001/REC-SVG-20010904/DTD/svg10.dtd">
<svg version="1.0" xmlns="http://www.w3.org/2000/svg"
 width="480.000000pt" height="360.000000pt" viewBox="0 0 480.000000 360.000000"
 preserveAspectRatio="xMidYMid meet">
<metadata>
Created by potrace 1.16, written by Peter Selinger 2001-2019
</metadata>
<rect width="1" height="360" fill="#000000"/>
<rect x="479" width="1" height="360" fill="#000000"/>
<rect width="480" height="1" fill="#000000"/>
<rect y="359" width="480" height="1" fill="#000000"/>
<g transform="translate(0.000000,360.000000) scale(0.100000,-0.100000)"
fill="#000000" stroke="none">
<path d="M3313 3582 c-78 -32 -95 -63 -69 -123 6 -13 -1 -17 -39 -22 -65 -7
-77 -22 -83 -105 -4 -63 -1 -77 26 -136 24 -52 36 -67 59 -72 43 -10 43 -11
27 -62 -18 -56 -25 -92 -59 -282 -30 -170 -39 -476 -18 -617 7 -45 9 -105 6
-134 l-6 -52 -86 6 c-47 3 -140 15 -206 25 -179 29 -297 44 -303 37 -9 -8 56
-64 81 -70 12 -3 129 -23 260 -44 130 -21 239 -40 242 -42 2 -3 -3 -51 -11
-107 -18 -121 -14 -132 52 -132 23 0 45 -4 48 -8 2 -4 -15 -47 -40 -96 -24
-48 -44 -94 -44 -101 0 -7 -26 -23 -57 -36 -32 -13 -76 -36 -98 -51 -22 -16
-57 -40 -77 -53 -20 -13 -51 -37 -70 -53 -18 -15 -45 -35 -59 -44 -31 -19 -44
-57 -24 -65 9 -3 13 -18 12 -41 -2 -34 0 -36 36 -45 20 -5 37 -13 37 -18 0 -5
24 -9 53 -8 28 1 62 -1 75 -6 23 -7 23 -6 16 42 -5 44 -3 52 21 82 15 17 55
46 89 63 33 17 84 53 111 82 28 28 70 67 95 87 46 37 222 288 267 381 26 54
48 61 79 27 10 -12 34 -28 52 -36 17 -7 32 -20 32 -27 0 -8 -36 -50 -80 -93
-44 -44 -118 -131 -165 -194 -69 -91 -84 -119 -80 -139 3 -17 -5 -43 -25 -80
-17 -30 -46 -89 -66 -130 -19 -41 -46 -97 -59 -125 -27 -56 -80 -320 -90 -452
-6 -85 6 -235 30 -363 7 -41 16 -92 20 -112 l6 -38 610 0 611 0 -7 33 c-4 17
-18 63 -31 100 -36 106 -65 353 -80 687 -3 69 -9 170 -15 224 -6 72 -6 103 2
113 8 8 9 30 5 61 -4 26 -11 83 -17 127 -5 44 -19 105 -29 135 -46 135 -110
454 -110 551 0 35 4 40 39 58 27 14 45 34 60 64 26 54 28 78 11 146 -11 48
-23 64 -95 136 -80 79 -106 117 -86 129 19 12 58 -14 139 -93 89 -87 151 -176
201 -286 17 -38 39 -77 48 -87 20 -22 61 -23 99 -3 16 8 39 15 52 15 31 0 39
26 18 64 -57 104 -197 269 -426 501 -235 238 -249 254 -283 330 -20 44 -41
100 -48 125 -18 72 -55 134 -104 177 -25 23 -45 45 -45 51 0 7 -11 36 -24 67
-24 54 -26 55 -67 55 -39 0 -41 1 -35 24 5 20 0 30 -26 49 -18 14 -43 28 -55
31 -26 8 -63 -9 -63 -28 0 -29 -34 -28 -60 2 -33 39 -56 44 -107 24z m555
-918 c42 -29 19 -46 -33 -22 -29 13 -34 38 -7 38 10 0 28 -7 40 -16z m-480
-118 c22 -30 49 -52 82 -67 28 -12 50 -24 50 -26 0 -1 -16 -28 -37 -60 -48
-76 -66 -135 -58 -199 5 -42 3 -53 -15 -69 -27 -25 -25 -40 10 -72 34 -30 26
-44 -22 -38 -64 8 -64 8 -78 123 -18 144 -23 290 -15 379 6 67 9 73 29 73 15
0 33 -14 54 -44z"/>
<path d="M2350 2437 c-31 -11 -35 -16 -38 -51 -2 -28 5 -54 26 -95 31 -59 31
-93 -1 -130 -8 -9 -22 -31 -32 -50 -16 -33 -16 -35 4 -77 21 -42 21 -42 2 -91
-28 -71 -63 -349 -76 -603 -6 -134 3 -160 58 -160 46 0 79 -26 75 -58 -2 -21
-14 -33 -53 -52 -66 -33 -73 -64 -18 -86 29 -13 62 -15 143 -12 108 4 166 20
125 33 -58 19 -64 25 -79 76 -29 97 -17 115 69 104 47 -5 56 -4 62 11 10 26
-54 403 -93 544 -39 143 -40 150 -18 192 12 23 14 42 8 77 -4 25 -7 59 -5 74
1 16 -3 51 -9 78 -12 47 -11 50 20 89 32 40 32 42 20 87 -19 65 -69 113 -118
112 -20 0 -53 -5 -72 -12z"/>
</g>
</svg>
