<?xml version="1.0" standalone="no"?>
<!DOCTYPE svg PUBLIC "-//W3C//DTD SVG 20010904//EN"
 "http://www.w3.org/TR/2001/REC-SVG-20010904/DTD/svg10.dtd">
<svg version="1.0" xmlns="http://www.w3.org/2000/svg"
 width="480.000000pt" height="360.000000pt" viewBox="0 0 480.000000 360.000000"
 preserveAspectRatio="xMidYMid meet">
<metadata>
Created by potrace 1.16, written by Peter Selinger 2001-2019
</metadata>
<rect width="1" height="360" fill="#000000"/>
<rect x="479" width="1" height="360" fill="#000000"/>
<rect width="480" height="1" fill="#000000"/>
<rect y="359" width="480" height="1" fill="#000000"/>
<g transform="translate(0.000000,360.000000) scale(0.100000,-0.100000)"
fill="#000000" stroke="none">
<path d="M0 1800 l0 -1800 929 0 929 0 16 63 c9 34 32 122 51 196 19 73 51
184 71 245 35 106 36 115 30 211 -3 55 -1 107 4 115 6 10 4 20 -6 31 -14 15
-12 27 15 116 55 180 92 337 107 447 8 60 12 111 10 113 -3 3 4 28 15 55 18
45 19 61 11 151 -9 98 -9 103 15 140 39 62 20 67 -35 9 -56 -58 -74 -62 -104
-21 -17 22 -18 30 -8 49 15 27 83 58 147 66 63 7 103 23 103 40 0 21 43 34
106 34 40 0 56 -4 61 -15 6 -18 65 -45 97 -45 41 0 141 -31 159 -49 17 -17 17
-21 3 -55 -16 -39 -38 -46 -67 -20 -26 23 -52 11 -40 -18 6 -13 15 -68 21
-123 7 -57 20 -116 31 -137 24 -46 26 -86 3 -48 -14 24 -15 22 -9 -30 18 -191
35 -262 123 -524 45 -135 45 -139 26 -153 -16 -12 -19 -24 -16 -91 3 -65 1
-81 -16 -102 l-19 -24 34 -100 c19 -56 54 -180 80 -276 25 -96 50 -192 55
-213 l10 -37 929 0 929 0 0 1800 0 1800 -2400 0 -2400 0 0 -1800z"/>
</g>
</svg>
