<?xml version="1.0" standalone="no"?>
<!DOCTYPE svg PUBLIC "-//W3C//DTD SVG 20010904//EN"
 "http://www.w3.org/TR/2001/REC-SVG-20010904/DTD/svg10.dtd">
<svg version="1.0" xmlns="http://www.w3.org/2000/svg"
 width="480.000000pt" height="360.000000pt" viewBox="0 0 480.000000 360.000000"
 preserveAspectRatio="xMidYMid meet">
<metadata>
Created by potrace 1.16, written by Peter Selinger 2001-2019
</metadata>
<rect width="1" height="360" fill="#000000"/>
<rect x="479" width="1" height="360" fill="#000000"/>
<rect width="480" height="1" fill="#000000"/>
<rect y="359" width="480" height="1" fill="#000000"/>
<g transform="translate(0.000000,360.000000) scale(0.100000,-0.100000)"
fill="#000000" stroke="none">
<path d="M0 1800 l0 -1800 984 0 984 0 10 73 c6 39 21 147 33 239 l22 168 -32
79 c-36 92 -61 190 -61 241 0 40 29 157 54 214 11 27 13 43 6 50 -18 18 -11
60 25 135 19 40 35 74 35 75 0 1 -18 0 -40 -2 -22 -2 -40 0 -40 4 0 5 36 50
81 99 112 126 132 169 154 335 l18 135 -24 38 c-13 21 -45 62 -71 90 -27 28
-48 60 -48 70 0 10 -15 27 -35 38 -41 24 -43 34 -13 66 17 18 20 28 12 40 -16
26 -46 40 -51 25 -4 -10 -8 -10 -19 -1 -11 9 -14 9 -14 -1 0 -22 -36 17 -55
61 -13 28 -21 36 -27 27 -12 -19 -26 7 -34 62 -7 48 -23 89 -24 59 0 -8 -6
-24 -14 -35 -14 -17 -15 -15 -14 26 1 74 36 199 83 296 33 69 57 103 99 141
64 59 196 129 316 169 76 25 99 28 220 28 151 0 209 -15 290 -77 24 -18 62
-45 84 -62 63 -45 111 -103 141 -170 111 -248 137 -409 140 -880 2 -227 7
-348 23 -495 27 -247 41 -438 43 -612 2 -129 3 -139 29 -185 143 -251 195
-350 229 -440 23 -58 41 -109 41 -114 0 -5 258 -9 630 -9 l630 0 0 1800 0
1800 -2400 0 -2400 0 0 -1800z"/>
</g>
</svg>
