<?xml version="1.0" standalone="no"?>
<!DOCTYPE svg PUBLIC "-//W3C//DTD SVG 20010904//EN"
 "http://www.w3.org/TR/2001/REC-SVG-20010904/DTD/svg10.dtd">
<svg version="1.0" xmlns="http://www.w3.org/2000/svg"
 width="480.000000pt" height="360.000000pt" viewBox="0 0 480.000000 360.000000"
 preserveAspectRatio="xMidYMid meet">
<metadata>
Created by potrace 1.16, written by Peter Selinger 2001-2019
</metadata>
<rect width="1" height="360" fill="#000000"/>
<rect x="479" width="1" height="360" fill="#000000"/>
<rect width="480" height="1" fill="#000000"/>
<rect y="359" width="480" height="1" fill="#000000"/>
<g transform="translate(0.000000,360.000000) scale(0.100000,-0.100000)"
fill="#000000" stroke="none">
<path d="M0 2619 l0 -981 38 6 c20 3 82 10 137 16 345 37 676 85 870 126 518
110 930 259 1306 471 204 116 222 123 302 128 l72 4 87 -82 c47 -45 153 -139
235 -210 82 -70 223 -203 313 -295 89 -92 218 -223 285 -292 114 -117 130
-130 226 -178 165 -82 237 -91 524 -68 26 3 30 8 37 42 5 21 18 57 30 79 29
53 247 322 298 369 l40 36 0 92 c-1 85 -2 91 -14 63 -12 -27 -13 -17 -12 90 1
66 -3 133 -7 148 -7 27 -9 27 -59 -48 -28 -41 -52 -74 -54 -72 -2 1 6 31 16
66 22 69 26 142 10 188 -10 27 -15 30 -61 32 -27 1 -62 -5 -77 -13 -15 -8 -39
-12 -54 -9 -25 5 -26 3 -33 -59 -3 -34 -12 -108 -20 -163 -7 -55 -17 -141 -20
-192 -6 -77 -10 -93 -25 -98 -10 -3 -21 -13 -24 -21 -3 -8 -11 -12 -17 -9 -5
4 -19 -1 -29 -10 -12 -11 -20 -13 -25 -6 -11 19 -22 12 -40 -29 -13 -29 -21
-38 -29 -30 -7 7 -14 -1 -21 -27 -11 -37 -12 -34 -27 72 -15 106 -15 108 -18
50 l-3 -60 -11 85 -12 85 -7 -74 c-4 -41 -9 -77 -12 -79 -13 -13 -33 34 -49
118 -10 52 -24 113 -31 135 -13 39 -13 39 -15 10 -2 -46 -15 -6 -29 95 -7 47
-15 96 -18 110 -5 24 -6 24 -15 -9 -5 -18 -11 -31 -14 -28 -4 4 3 67 33 271 6
38 5 39 -18 32 -27 -7 -220 -46 -231 -46 -26 0 30 122 80 173 20 21 89 69 152
107 82 49 120 78 134 102 11 18 39 54 63 80 23 26 43 53 43 59 0 7 14 34 31
61 26 40 29 51 19 63 -9 11 -11 39 -5 106 6 81 4 97 -18 162 -35 101 -40 149
-22 193 8 20 15 38 15 40 0 2 -949 4 -2110 4 l-2110 0 0 -981z"/>
<path d="M2549 2117 c-24 -18 -70 -50 -101 -71 -32 -22 -58 -41 -58 -44 0 -2
9 -15 20 -29 21 -28 25 -59 10 -83 -7 -11 3 -26 40 -60 43 -40 53 -57 91 -165
l42 -120 -22 -105 c-12 -58 -35 -168 -51 -245 -16 -77 -43 -201 -60 -275 -17
-74 -38 -169 -48 -210 -17 -81 -25 -92 -58 -87 -17 3 -26 -6 -44 -42 l-22 -45
-17 22 c-9 13 -34 91 -54 175 -59 242 -153 635 -173 721 l-18 79 43 126 c37
109 48 131 83 162 22 20 36 39 30 43 -5 3 -48 -13 -93 -35 -112 -56 -285 -122
-399 -153 -51 -14 -94 -27 -95 -28 -1 -2 -5 -24 -9 -49 -7 -45 -6 -46 32 -71
35 -23 43 -38 86 -154 55 -147 55 -153 10 -334 -14 -58 -36 -154 -49 -215 -13
-60 -37 -173 -55 -250 -73 -331 -68 -315 -105 -315 -15 0 -31 -10 -41 -25 -37
-57 -33 -69 -199 610 -47 192 -85 359 -85 370 0 11 21 80 46 152 42 119 50
135 81 154 27 17 33 26 29 43 -3 11 -6 29 -6 39 0 26 -23 23 -341 -39 l-288
-57 6 -28 c3 -17 -2 -39 -13 -59 -18 -30 -18 -32 -1 -41 51 -29 69 -59 117
-191 40 -110 48 -142 41 -165 -5 -15 -18 -70 -30 -121 -11 -50 -29 -131 -40
-180 -11 -48 -37 -161 -57 -252 -83 -374 -98 -425 -117 -422 -10 2 -30 -4 -43
-13 -29 -19 -38 -15 -53 22 -9 24 -82 309 -217 845 l-34 138 50 137 c45 125
55 142 96 180 44 39 46 43 36 71 -6 17 -7 33 -4 37 4 4 -20 4 -53 0 -33 -4
-132 -12 -220 -19 l-160 -11 -3 -718 -2 -717 1756 0 1756 0 -6 23 c-3 12 -51
219 -108 460 l-101 437 47 123 c38 96 56 130 86 157 31 29 38 43 43 87 l6 52
-71 93 c-68 90 -175 208 -189 208 -4 0 1 -18 12 -40 10 -21 19 -45 19 -52 0
-7 10 -33 21 -57 l20 -45 -31 -135 c-17 -75 -46 -199 -65 -276 -18 -77 -48
-207 -66 -290 -34 -153 -41 -169 -89 -180 -17 -4 -31 -19 -43 -45 -10 -22 -22
-40 -25 -40 -17 0 -44 92 -96 315 -30 132 -77 333 -104 447 l-49 207 49 127
c37 98 56 134 80 154 25 21 33 36 34 65 0 25 8 43 20 52 18 14 18 15 1 24 -30
17 -86 67 -195 174 -56 55 -106 101 -110 103 -5 1 -28 -12 -53 -31z"/>
<path d="M3766 1172 c-2 -4 -1 -14 5 -22 5 -8 9 -23 9 -32 0 -9 10 -34 22 -54
12 -20 32 -66 43 -102 22 -63 22 -64 4 -130 -27 -99 -116 -471 -124 -517 -4
-22 -10 -49 -15 -60 -5 -11 -16 -52 -25 -92 -19 -81 -31 -96 -72 -91 -23 2
-29 -1 -31 -22 -2 -14 -9 -31 -14 -37 -8 -10 42 -13 246 -13 l256 0 -5 22
c-57 245 -165 723 -165 734 0 7 21 62 46 121 32 74 57 117 80 138 32 29 33 32
23 66 -12 36 -13 37 -108 62 -122 32 -168 40 -175 29z"/>
<path d="M4338 1053 l-47 -4 40 -36 c42 -38 67 -78 80 -128 4 -16 17 -54 27
-84 l20 -54 27 88 c26 85 27 115 5 115 -6 0 -28 16 -48 36 -33 32 -35 37 -19
45 22 13 12 30 -16 27 -12 -1 -43 -3 -69 -5z"/>
<path d="M4372 345 c0 -16 2 -22 5 -12 2 9 2 23 0 30 -3 6 -5 -1 -5 -18z"/>
<path d="M4336 215 c-9 -26 -7 -32 5 -12 6 10 9 21 6 23 -2 3 -7 -2 -11 -11z"/>
</g>
</svg>
