<?xml version="1.0" standalone="no"?>
<!DOCTYPE svg PUBLIC "-//W3C//DTD SVG 20010904//EN"
 "http://www.w3.org/TR/2001/REC-SVG-20010904/DTD/svg10.dtd">
<svg version="1.0" xmlns="http://www.w3.org/2000/svg"
 width="480.000000pt" height="360.000000pt" viewBox="0 0 480.000000 360.000000"
 preserveAspectRatio="xMidYMid meet">
<metadata>
Created by potrace 1.16, written by Peter Selinger 2001-2019
</metadata>
<rect width="1" height="360" fill="#000000"/>
<rect x="479" width="1" height="360" fill="#000000"/>
<rect width="480" height="1" fill="#000000"/>
<rect y="359" width="480" height="1" fill="#000000"/>
<g transform="translate(0.000000,360.000000) scale(0.100000,-0.100000)"
fill="#000000" stroke="none">
<path d="M1237 2685 c-66 -66 2 -208 183 -385 192 -187 531 -573 516 -587 -2
-2 -30 0 -62 6 -73 14 -188 14 -235 1 -50 -14 -99 -49 -127 -90 -20 -30 -23
-45 -21 -110 l3 -75 -40 -20 c-88 -43 -148 -116 -164 -196 -6 -30 -18 -86 -27
-125 -10 -49 -14 -112 -11 -206 3 -124 5 -137 28 -171 46 -68 139 -94 217 -62
19 8 42 15 49 15 7 0 40 -39 72 -87 33 -49 121 -167 197 -263 75 -96 164 -210
198 -252 l61 -78 900 0 c495 0 896 4 890 8 -8 8 -184 130 -429 297 -55 38
-125 86 -155 108 -30 21 -130 89 -222 150 l-168 112 0 65 c0 96 -18 277 -35
342 -41 164 -229 561 -301 638 -46 50 -82 66 -209 95 -16 4 -57 32 -90 63 -33
31 -118 107 -188 167 -280 241 -329 285 -466 417 -208 200 -319 269 -364 223z"/>
</g>
</svg>
