<?xml version="1.0" standalone="no"?>
<!DOCTYPE svg PUBLIC "-//W3C//DTD SVG 20010904//EN"
 "http://www.w3.org/TR/2001/REC-SVG-20010904/DTD/svg10.dtd">
<svg version="1.0" xmlns="http://www.w3.org/2000/svg"
 width="480.000000pt" height="360.000000pt" viewBox="0 0 480.000000 360.000000"
 preserveAspectRatio="xMidYMid meet">
<metadata>
Created by potrace 1.16, written by Peter Selinger 2001-2019
</metadata>
<rect width="1" height="360" fill="#000000"/>
<rect x="479" width="1" height="360" fill="#000000"/>
<rect width="480" height="1" fill="#000000"/>
<rect y="359" width="480" height="1" fill="#000000"/>
<g transform="translate(0.000000,360.000000) scale(0.100000,-0.100000)"
fill="#000000" stroke="none">
<path d="M0 1800 l0 -1800 1415 0 c778 0 1415 4 1415 9 0 4 -5 22 -11 38 -10
30 -38 368 -44 539 -3 102 -21 227 -35 254 -13 24 -96 47 -235 65 -140 18
-156 27 -277 144 -76 72 -80 79 -93 141 -23 107 -20 147 18 196 17 24 44 49
60 56 15 7 27 16 27 19 0 4 11 17 25 30 30 29 30 37 5 69 -11 14 -20 31 -20
38 0 19 28 14 35 -7 14 -46 30 -43 89 14 46 46 55 59 47 74 -8 14 -4 24 20 47
44 42 65 84 47 96 -57 38 -143 64 -155 45 -3 -5 4 -19 17 -29 18 -14 19 -18 6
-18 -10 0 -30 7 -45 15 -16 8 -31 12 -34 8 -4 -3 -23 7 -44 22 -20 16 -34 22
-31 14 23 -56 23 -53 -3 -36 -14 9 -38 37 -53 62 -28 43 -41 50 -88 46 -30 -3
-159 40 -165 55 -6 17 -168 68 -184 58 -12 -7 -49 2 -188 47 -91 30 -170 74
-171 94 0 6 -22 10 -49 11 -73 1 -153 30 -191 69 -31 32 -34 33 -60 20 -24
-12 -30 -12 -46 1 -18 14 -17 16 20 49 l38 34 -35 14 c-19 8 -38 20 -41 26 -4
6 -18 11 -32 11 -40 0 -27 18 33 46 l56 27 -47 24 c-27 13 -46 26 -44 29 5 4
256 33 303 35 17 0 17 2 -5 11 -165 74 -198 95 -226 150 -20 38 -15 146 9 193
8 17 31 64 51 106 38 80 72 109 128 109 24 0 75 -47 117 -108 23 -33 24 -34
80 -27 38 4 93 0 173 -14 149 -27 208 -48 228 -83 14 -25 13 -33 -9 -98 -13
-38 -22 -71 -20 -73 63 -37 69 -38 113 -13 71 39 182 75 283 92 52 8 118 23
147 32 47 16 54 22 86 82 79 144 176 274 266 356 81 73 100 85 214 132 143 60
266 84 517 103 281 21 501 -36 698 -181 269 -197 345 -245 545 -336 76 -35
141 -64 144 -64 3 0 6 142 6 315 l0 315 -2400 0 -2400 0 0 -1800z"/>
<path d="M3910 2953 c-52 -7 -58 -16 -49 -70 4 -27 13 -118 19 -203 7 -85 15
-158 19 -163 4 -4 97 -25 207 -47 109 -22 237 -49 284 -60 47 -11 119 -27 160
-36 41 -8 109 -24 152 -35 42 -10 81 -19 87 -19 8 0 11 73 11 236 l0 237 -42
-9 c-66 -14 -206 -8 -278 11 -36 9 -115 38 -176 65 -183 80 -296 106 -394 93z"/>
<path d="M2913 1433 c-49 -33 -51 -36 -41 -64 16 -47 5 -131 -22 -169 -17 -23
-20 -35 -12 -38 31 -10 73 -58 102 -115 l32 -62 -7 57 c-7 56 -7 57 34 101 23
24 41 52 41 61 0 21 -35 91 -66 133 -29 38 -29 38 -3 62 18 17 19 22 7 44
l-13 24 -52 -34z"/>
<path d="M4480 840 c8 -6 35 -22 60 -35 48 -25 159 -123 125 -110 -39 14 -128
45 -132 45 -12 0 85 -114 127 -149 l50 -42 45 22 46 23 -3 100 c-2 78 -6 100
-16 98 -11 -2 -100 14 -292 53 -20 5 -22 3 -10 -5z"/>
<path d="M4260 744 c0 -3 15 -32 34 -63 63 -104 204 -401 252 -531 37 -101 52
-130 71 -139 13 -6 25 -11 26 -11 1 0 1 84 -1 187 -2 182 0 207 33 308 5 17
-8 27 -97 72 -126 65 -169 89 -230 130 -60 41 -88 56 -88 47z"/>
</g>
</svg>
