<?xml version="1.0" standalone="no"?>
<!DOCTYPE svg PUBLIC "-//W3C//DTD SVG 20010904//EN"
 "http://www.w3.org/TR/2001/REC-SVG-20010904/DTD/svg10.dtd">
<svg version="1.0" xmlns="http://www.w3.org/2000/svg"
 width="480.000000pt" height="360.000000pt" viewBox="0 0 480.000000 360.000000"
 preserveAspectRatio="xMidYMid meet">
<metadata>
Created by potrace 1.16, written by Peter Selinger 2001-2019
</metadata>
<rect width="1" height="360" fill="#000000"/>
<rect x="479" width="1" height="360" fill="#000000"/>
<rect width="480" height="1" fill="#000000"/>
<rect y="359" width="480" height="1" fill="#000000"/>
<g transform="translate(0.000000,360.000000) scale(0.100000,-0.100000)"
fill="#000000" stroke="none">
<path d="M1 3463 c0 -154 11 -154 28 1 15 131 15 136 -9 136 -19 0 -20 -6 -19
-137z"/>
<path d="M0 516 l0 -516 338 1 c185 1 322 5 304 9 -18 4 -50 19 -72 34 -22 14
-42 26 -45 26 -4 0 -30 11 -58 24 -29 13 -83 36 -121 52 -53 21 -76 38 -98 69
-44 60 -60 105 -54 149 3 29 0 46 -14 63 -28 36 -36 122 -15 167 9 20 21 34
25 31 11 -7 40 29 49 62 7 23 4 41 -9 70 -10 22 -21 55 -25 73 -8 36 -118 153
-172 183 l-33 18 0 -515z"/>
<path d="M2485 712 c-31 -22 -85 -143 -89 -200 -4 -48 -3 -50 22 -55 15 -3 41
-11 59 -18 29 -12 35 -10 88 22 l56 34 -6 55 c-8 67 -17 85 -67 133 -42 39
-47 41 -63 29z"/>
<path d="M4773 407 c-12 -7 -45 -36 -75 -64 -29 -29 -85 -83 -124 -120 -76
-73 -131 -147 -144 -194 l-9 -29 190 0 189 0 0 210 c0 116 -1 210 -2 210 -2
-1 -13 -6 -25 -13z"/>
<path d="M1470 15 l-55 -13 63 -1 c49 -1 62 2 62 14 0 8 -3 14 -7 14 -5 -1
-33 -7 -63 -14z"/>
</g>
</svg>
