<?xml version="1.0" standalone="no"?>
<!DOCTYPE svg PUBLIC "-//W3C//DTD SVG 20010904//EN"
 "http://www.w3.org/TR/2001/REC-SVG-20010904/DTD/svg10.dtd">
<svg version="1.0" xmlns="http://www.w3.org/2000/svg"
 width="480.000000pt" height="360.000000pt" viewBox="0 0 480.000000 360.000000"
 preserveAspectRatio="xMidYMid meet">
<metadata>
Created by potrace 1.16, written by Peter Selinger 2001-2019
</metadata>
<rect width="1" height="360" fill="#000000"/>
<rect x="479" width="1" height="360" fill="#000000"/>
<rect width="480" height="1" fill="#000000"/>
<rect y="359" width="480" height="1" fill="#000000"/>
<g transform="translate(0.000000,360.000000) scale(0.100000,-0.100000)"
fill="#000000" stroke="none">
<path d="M366 3583 c-13 -47 -16 -204 -6 -268 6 -38 16 -144 21 -235 5 -91 12
-189 15 -217 6 -47 5 -53 -12 -53 -11 -1 -47 -28 -82 -60 l-63 -60 11 -87 c12
-98 23 -121 47 -98 8 8 21 35 29 60 16 46 34 68 34 41 0 -8 27 -48 60 -89 33
-41 60 -82 60 -91 0 -8 -9 -30 -20 -48 -11 -18 -20 -40 -20 -49 0 -9 -7 -19
-15 -23 -8 -3 -15 -12 -15 -20 0 -22 -54 -47 -117 -53 -39 -4 -53 -10 -49 -19
3 -7 0 -16 -6 -20 -14 -9 10 -24 40 -24 13 0 37 -14 54 -31 27 -26 37 -30 72
-27 23 3 48 8 56 11 10 5 25 -7 45 -35 86 -118 200 -155 240 -77 8 15 15 38
15 50 0 12 7 30 15 39 14 16 13 18 -15 23 -27 6 -30 10 -30 44 0 21 -3 48 -6
59 -5 19 9 32 94 90 100 67 100 68 80 86 -23 19 -54 23 -77 9 -7 -5 -21 -6
-31 -4 -29 8 0 121 50 196 39 58 46 83 15 57 -12 -10 -11 -1 5 45 27 78 27
132 0 140 -11 3 -20 11 -20 16 0 16 -29 41 -39 35 -5 -4 -12 2 -14 11 -4 14
-5 13 -6 -4 0 -13 -6 -23 -12 -23 -14 0 -69 62 -69 78 0 32 81 144 178 246
121 127 177 205 167 235 -3 11 1 34 10 51 15 30 15 30 -10 30 -14 0 -28 7 -31
15 -5 11 -20 15 -58 14 -71 -1 -184 18 -212 36 -19 12 -58 15 -198 15 -158 0
-175 -2 -180 -17z"/>
<path d="M2400 1800 l0 -1800 809 0 809 0 20 48 c29 67 49 152 62 262 6 52 19
128 30 168 22 81 23 91 11 111 -7 10 -23 5 -77 -28 -86 -52 -111 -53 -120 -5
-3 19 -4 71 -2 115 l5 79 -35 -36 c-19 -19 -36 -33 -39 -30 -3 2 -5 21 -5 41
0 36 0 36 -24 20 -32 -21 -32 -20 -29 23 8 96 19 152 42 215 22 60 34 76 118
153 92 85 158 178 133 186 -6 2 16 32 50 67 34 34 62 66 62 71 0 4 16 20 36
35 31 23 39 26 60 16 14 -6 42 -11 63 -11 43 0 66 -20 58 -50 -3 -11 -2 -22 3
-25 12 -8 50 -93 50 -113 0 -20 -29 -52 -48 -52 -6 0 -33 -22 -61 -50 l-50
-50 53 -53 c57 -59 86 -110 86 -151 0 -15 7 -42 14 -61 12 -27 21 -35 40 -35
34 0 47 26 30 59 -18 35 -18 58 2 65 24 9 53 -21 60 -63 3 -20 12 -53 20 -74
38 -102 -11 -197 -146 -282 -54 -34 -53 -53 15 -253 38 -112 57 -185 62 -237
l6 -75 113 0 114 0 0 1800 0 1800 -1200 0 -1200 0 0 -1800z"/>
<path d="M4241 883 c-14 -51 -14 -76 1 -71 12 4 24 108 13 108 -2 0 -9 -17
-14 -37z"/>
</g>
</svg>
