<?xml version="1.0" standalone="no"?>
<!DOCTYPE svg PUBLIC "-//W3C//DTD SVG 20010904//EN"
 "http://www.w3.org/TR/2001/REC-SVG-20010904/DTD/svg10.dtd">
<svg version="1.0" xmlns="http://www.w3.org/2000/svg"
 width="480.000000pt" height="360.000000pt" viewBox="0 0 480.000000 360.000000"
 preserveAspectRatio="xMidYMid meet">
<metadata>
Created by potrace 1.16, written by Peter Selinger 2001-2019
</metadata>
<rect width="1" height="360" fill="#000000"/>
<rect x="479" width="1" height="360" fill="#000000"/>
<rect width="480" height="1" fill="#000000"/>
<rect y="359" width="480" height="1" fill="#000000"/>
<g transform="translate(0.000000,360.000000) scale(0.100000,-0.100000)"
fill="#000000" stroke="none">
<path d="M2565 3240 c-3 -5 6 -17 20 -26 22 -14 65 -72 65 -87 0 -3 -21 -12
-46 -21 -118 -40 -195 -140 -209 -272 l-7 -65 -29 6 c-40 9 -37 -7 11 -59 22
-24 40 -48 40 -53 0 -19 -43 -64 -108 -114 -55 -41 -72 -49 -108 -49 -49 0
-54 -11 -29 -60 15 -28 28 -34 67 -31 9 1 19 -3 23 -9 10 -16 21 -12 56 17 20
17 45 28 67 29 l34 1 -5 -44 c-4 -38 1 -49 18 -40 3 1 15 -14 26 -33 35 -59
60 -80 85 -74 25 6 35 -12 39 -80 2 -23 7 -52 13 -66 14 -36 33 -196 34 -282
1 -69 -2 -77 -41 -141 -39 -63 -48 -98 -19 -69 28 28 25 7 -11 -65 -21 -43
-41 -90 -44 -104 -4 -14 -22 -45 -40 -70 -55 -72 -86 -131 -93 -179 -6 -38
-18 -57 -84 -125 -42 -44 -98 -107 -124 -140 -27 -33 -64 -78 -85 -100 -20
-22 -65 -74 -101 -115 -36 -41 -75 -86 -87 -100 -13 -14 -23 -38 -23 -53 0
-16 -7 -54 -16 -84 -15 -53 -15 -55 5 -77 12 -12 21 -35 21 -50 0 -42 -26
-136 -65 -232 -19 -48 -32 -90 -29 -95 3 -5 17 -9 32 -9 22 1 35 13 71 66 24
35 60 104 80 152 20 49 39 90 43 93 3 2 43 -45 89 -106 129 -173 180 -226 209
-223 21 3 29 16 62 108 l37 105 3 -55 c1 -30 1 -79 0 -107 l-3 -53 690 0 c648
0 690 1 695 18 17 59 46 263 46 328 0 73 14 148 32 168 4 6 8 25 8 44 0 19 7
78 15 132 l16 98 -31 159 c-17 88 -48 213 -69 279 -165 509 -150 452 -167 649
-16 204 -42 441 -50 468 -4 11 5 26 25 43 17 14 31 30 31 34 0 5 -17 17 -37
27 -35 16 -41 26 -67 103 -20 60 -31 115 -36 186 -8 118 -31 177 -104 260 -67
76 -154 117 -312 149 -102 21 -151 26 -232 23 l-104 -3 -26 32 c-15 17 -37 36
-49 42 -27 14 -110 15 -118 1z"/>
</g>
</svg>
