<?xml version="1.0" standalone="no"?>
<!DOCTYPE svg PUBLIC "-//W3C//DTD SVG 20010904//EN"
 "http://www.w3.org/TR/2001/REC-SVG-20010904/DTD/svg10.dtd">
<svg version="1.0" xmlns="http://www.w3.org/2000/svg"
 width="480.000000pt" height="360.000000pt" viewBox="0 0 480.000000 360.000000"
 preserveAspectRatio="xMidYMid meet">
<metadata>
Created by potrace 1.16, written by Peter Selinger 2001-2019
</metadata>
<rect width="1" height="360" fill="#000000"/>
<rect x="479" width="1" height="360" fill="#000000"/>
<rect width="480" height="1" fill="#000000"/>
<rect y="359" width="480" height="1" fill="#000000"/>
<g transform="translate(0.000000,360.000000) scale(0.100000,-0.100000)"
fill="#000000" stroke="none">
<path d="M0 1800 l0 -1800 529 0 c498 0 530 1 529 18 0 9 4 49 8 87 l7 70 109
107 c60 59 115 111 122 115 31 19 166 185 166 206 0 39 24 72 50 72 16 0 26 7
28 18 2 9 19 40 38 68 19 28 34 56 34 63 0 6 8 16 18 22 9 6 30 34 45 62 l28
51 -38 25 c-56 35 -83 64 -77 81 10 26 -17 113 -44 145 -15 17 -40 34 -56 38
-16 5 -42 24 -57 43 -32 40 -49 91 -28 87 19 -4 58 99 59 154 0 25 3 54 6 63
4 9 48 44 98 77 50 34 114 81 143 105 72 61 106 72 269 92 129 16 146 20 179
47 75 60 95 71 142 78 50 7 93 34 93 59 0 8 7 21 16 28 9 7 21 25 26 39 11 25
11 24 20 -15 6 -22 11 -49 12 -60 5 -45 28 -82 67 -105 30 -19 49 -42 74 -94
36 -71 37 -72 185 -159 106 -63 163 -119 190 -187 13 -32 89 -162 125 -214 8
-11 15 -32 15 -46 -1 -59 -79 -243 -111 -260 -16 -9 -19 -7 -20 12 -1 21 -1
21 -7 3 -4 -11 -16 -31 -27 -44 -93 -113 -145 -152 -224 -170 -43 -9 -45 -9
-86 30 -80 76 -70 75 -184 17 -82 -42 -113 -52 -168 -57 -65 -6 -69 -7 -84
-39 -14 -31 -91 -102 -110 -102 -5 0 -18 -18 -29 -40 -11 -22 -22 -40 -25 -40
-6 0 6 32 17 47 5 7 5 14 -1 17 -30 19 -50 -238 -32 -415 6 -63 14 -133 17
-157 l5 -42 1370 0 1369 0 0 1658 0 1657 -26 -45 c-155 -267 -219 -359 -331
-474 -138 -141 -299 -235 -488 -285 -181 -47 -306 -52 -557 -21 -90 11 -251
31 -358 45 -201 25 -245 24 -293 -8 -22 -14 -24 -13 -45 27 -23 42 -47 71
-160 191 -37 39 -110 117 -162 174 -52 57 -106 116 -120 130 -14 15 -57 62
-95 106 -170 193 -199 233 -272 373 l-38 72 -927 0 -928 0 0 -1800z"/>
<path d="M1480 1467 c-7 -23 -21 -59 -32 -80 -18 -37 -19 -39 -1 -69 10 -17
27 -37 39 -44 19 -13 21 -12 21 18 1 18 5 69 8 113 6 65 4 83 -7 93 -12 10
-17 5 -28 -31z"/>
<path d="M1607 1147 c26 -89 46 -124 86 -147 24 -13 28 -13 43 2 15 15 15 18
-2 46 -16 29 -16 32 -1 56 9 14 17 27 17 30 0 12 -69 56 -116 74 l-51 20 24
-81z"/>
<path d="M3048 1153 c-45 -48 -62 -133 -28 -133 6 0 22 25 35 55 46 103 43
131 -7 78z"/>
<path d="M2695 940 c-55 -13 -109 -40 -99 -49 53 -49 109 -81 143 -81 42 0
107 38 159 92 l33 35 -38 6 c-49 9 -160 7 -198 -3z"/>
<path d="M2233 918 c-19 -24 -21 -59 -7 -94 13 -31 18 -34 54 -34 40 0 146 32
163 49 10 10 -152 91 -182 91 -10 0 -23 -6 -28 -12z"/>
</g>
</svg>
