<?xml version="1.0" standalone="no"?>
<!DOCTYPE svg PUBLIC "-//W3C//DTD SVG 20010904//EN"
 "http://www.w3.org/TR/2001/REC-SVG-20010904/DTD/svg10.dtd">
<svg version="1.0" xmlns="http://www.w3.org/2000/svg"
 width="480.000000pt" height="360.000000pt" viewBox="0 0 480.000000 360.000000"
 preserveAspectRatio="xMidYMid meet">
<metadata>
Created by potrace 1.16, written by Peter Selinger 2001-2019
</metadata>
<rect width="1" height="360" fill="#000000"/>
<rect x="479" width="1" height="360" fill="#000000"/>
<rect width="480" height="1" fill="#000000"/>
<rect y="359" width="480" height="1" fill="#000000"/>
<g transform="translate(0.000000,360.000000) scale(0.100000,-0.100000)"
fill="#000000" stroke="none">
<path d="M4129 3277 c-87 -50 -198 -128 -359 -255 -63 -50 -140 -110 -170
-134 -55 -42 -151 -102 -310 -194 -47 -27 -109 -68 -137 -91 -60 -49 -67 -52
-57 -21 21 67 -13 128 -71 128 -38 0 -49 -8 -34 -26 11 -14 1 -42 -24 -62 -11
-9 -24 -8 -58 4 -28 10 -78 17 -134 18 -77 1 -105 -4 -195 -34 -90 -30 -101
-35 -75 -40 l30 -5 -30 -13 c-16 -7 -46 -26 -65 -43 -35 -29 -35 -38 1 -19 25
14 24 7 -5 -38 -30 -45 -47 -107 -44 -155 3 -32 5 -34 19 -21 24 22 30 17 27
-23 -3 -33 -7 -38 -30 -41 -51 -6 -65 11 -70 85 -7 90 -35 151 -105 224 -85
89 -117 104 -233 104 -87 0 -96 2 -121 25 -15 14 -34 51 -44 84 -39 124 -140
238 -269 301 -239 118 -476 39 -631 -210 -92 -147 -125 -337 -83 -475 33 -108
141 -219 273 -281 114 -54 226 -60 357 -19 53 16 63 17 94 4 19 -8 34 -19 34
-24 0 -13 -27 -13 -35 0 -3 5 -20 10 -37 10 -24 0 -43 -13 -92 -63 -33 -35
-82 -78 -108 -96 -49 -33 -56 -48 -37 -79 10 -15 5 -27 -24 -65 -46 -61 -54
-85 -32 -106 15 -15 18 -14 38 10 12 14 27 34 32 44 9 16 14 16 35 5 37 -19
60 -41 60 -58 0 -7 -14 -27 -30 -42 -24 -23 -28 -30 -16 -37 7 -4 15 -17 17
-28 3 -11 14 -21 26 -23 23 -3 26 -20 39 -217 3 -55 14 -125 24 -155 10 -30
21 -76 24 -102 5 -34 12 -49 27 -53 16 -5 19 -16 19 -61 0 -30 -4 -54 -9 -54
-5 0 -17 -7 -25 -16 -12 -12 -16 -37 -16 -111 0 -86 2 -95 20 -100 17 -5 20
-14 20 -59 0 -42 -4 -56 -20 -67 -25 -18 -40 -66 -40 -132 0 -67 8 -93 31
-100 32 -10 22 -120 -12 -130 -18 -6 -21 -16 -33 -108 -4 -32 -2 -37 15 -37
15 0 19 7 20 38 0 20 4 46 8 57 8 19 8 19 19 0 12 -20 12 -20 27 -1 19 26 24
19 32 -43 8 -70 33 -71 33 -2 0 60 -14 101 -35 101 -11 0 -15 12 -15 52 0 45
4 55 28 74 25 21 27 27 30 117 4 94 4 96 -23 113 -25 16 -27 22 -22 63 4 33
12 50 31 64 25 18 26 23 26 113 0 91 -1 95 -25 106 -21 10 -25 18 -25 57 0 66
35 96 122 104 35 3 115 19 178 35 63 16 116 28 118 27 2 -2 -4 -17 -12 -34
-47 -89 -54 -207 -31 -467 18 -204 20 -388 4 -434 -12 -37 -18 -48 -49 -95
-24 -36 -25 -45 -6 -45 8 0 18 9 21 20 3 11 11 20 16 20 6 0 7 -9 4 -20 -6
-20 -2 -20 672 -20 l679 0 54 62 c229 259 240 276 240 372 0 128 -42 198 -247
407 -105 107 -143 152 -143 170 0 29 54 356 74 449 19 85 105 362 117 375 5 5
9 -3 9 -23 0 -18 5 -32 10 -32 6 0 16 -11 22 -25 6 -14 20 -25 31 -25 22 0 60
38 51 51 -3 5 0 9 6 9 16 0 76 63 95 101 10 19 25 43 35 54 10 11 21 31 25 45
4 14 13 32 20 40 7 8 16 26 20 40 4 14 17 45 28 70 28 63 31 208 3 239 -25 28
-117 61 -169 61 -42 0 -136 -37 -169 -67 -14 -12 -27 -14 -64 -7 l-47 9 181
157 181 157 38 -20 c48 -26 109 -21 155 12 18 13 62 33 98 45 80 26 93 44 60
79 -14 15 -39 35 -57 46 -18 12 -33 24 -33 28 0 3 19 13 43 21 54 19 57 48 8
71 l-34 16 109 122 c178 201 186 211 172 211 -7 0 -47 -19 -89 -43z m-1779
-1143 c0 -14 -12 -19 -23 -8 -9 9 4 35 14 28 5 -3 9 -12 9 -20z m-47 -163 c4
-4 3 -20 -3 -35 -19 -50 -13 -65 41 -97 38 -24 48 -35 43 -48 -4 -9 -34 -92
-68 -185 -57 -158 -63 -170 -91 -179 -16 -5 -37 -15 -45 -22 -8 -7 -78 -27
-154 -45 -77 -18 -171 -43 -209 -56 -39 -13 -76 -24 -82 -24 -7 0 -18 48 -28
128 l-17 127 27 22 27 22 -22 24 c-13 14 -29 51 -37 83 -12 54 -12 64 6 118
10 33 19 68 19 78 0 22 1 22 42 -1 60 -35 146 -54 218 -48 87 7 162 42 230
105 53 49 77 57 103 33z m-761 -953 c-9 -9 -12 -7 -12 12 0 19 3 21 12 12 9
-9 9 -15 0 -24z m58 -278 c0 -38 -4 -72 -10 -75 -5 -3 -10 -1 -10 4 0 15 -33
14 -48 -1 -9 -9 -12 5 -12 66 l0 78 30 -7 c20 -4 30 -3 30 5 0 6 5 8 10 5 6
-3 10 -37 10 -75z m1183 -112 c33 -189 49 -344 45 -450 -2 -59 -6 -109 -10
-113 -3 -4 -19 0 -36 9 -20 10 -31 25 -36 48 -3 17 -16 43 -29 56 -21 23 -22
31 -22 195 0 162 2 177 29 260 15 48 32 87 35 87 4 0 15 -42 24 -92z m355
-301 l-23 -32 -8 60 c-9 69 -5 127 13 170 12 29 14 25 27 -68 13 -97 13 -99
-9 -130z m101 172 l24 -20 -24 -27 c-13 -15 -26 -30 -30 -35 -3 -4 -6 17 -7
48 -1 30 2 55 6 55 4 -1 18 -10 31 -21z m-1649 -102 c0 -69 -13 -103 -30 -77
-8 12 -13 13 -30 2 -19 -12 -20 -10 -20 56 0 75 5 88 28 69 12 -10 17 -9 25 5
18 28 27 10 27 -55z m1212 -379 c-12 -12 -42 1 -42 18 0 11 5 11 25 2 14 -6
22 -15 17 -20z"/>
</g>
</svg>
