<?xml version="1.0" standalone="no"?>
<!DOCTYPE svg PUBLIC "-//W3C//DTD SVG 20010904//EN"
 "http://www.w3.org/TR/2001/REC-SVG-20010904/DTD/svg10.dtd">
<svg version="1.0" xmlns="http://www.w3.org/2000/svg"
 width="480.000000pt" height="360.000000pt" viewBox="0 0 480.000000 360.000000"
 preserveAspectRatio="xMidYMid meet">
<metadata>
Created by potrace 1.16, written by Peter Selinger 2001-2019
</metadata>
<rect width="1" height="360" fill="#000000"/>
<rect x="479" width="1" height="360" fill="#000000"/>
<rect width="480" height="1" fill="#000000"/>
<rect y="359" width="480" height="1" fill="#000000"/>
<g transform="translate(0.000000,360.000000) scale(0.100000,-0.100000)"
fill="#000000" stroke="none">
<path d="M3505 3576 c-44 -12 -86 -25 -92 -29 -7 -4 -24 -46 -38 -92 -15 -47
-29 -85 -33 -85 -4 0 -52 -7 -106 -14 -141 -20 -224 -63 -337 -176 -92 -92
-127 -150 -134 -224 -3 -26 -12 -60 -20 -76 -18 -35 -5 -40 19 -7 l17 22 -6
-25 c-3 -14 -13 -51 -21 -83 -15 -63 -10 -89 12 -60 12 16 13 15 14 -17 1 -31
17 -88 19 -67 1 12 31 -19 31 -32 0 -26 30 -9 31 17 1 15 5 3 10 -27 11 -63 6
-72 -56 -96 -25 -9 -45 -23 -45 -30 0 -7 16 -32 35 -55 28 -33 33 -47 28 -71
-3 -17 -1 -40 4 -52 16 -36 31 -89 38 -139 3 -25 11 -51 18 -56 7 -5 59 -12
116 -16 58 -3 106 -8 108 -9 2 -2 7 -48 13 -102 8 -95 3 -135 -19 -135 -5 0
-53 -42 -106 -92 -54 -51 -116 -102 -138 -113 -26 -13 -48 -33 -59 -56 -17
-33 -25 -38 -78 -48 -116 -23 -159 -53 -169 -118 -6 -34 -13 -41 -81 -80 -41
-24 -85 -48 -97 -53 -15 -6 -23 -18 -23 -34 0 -18 -9 -30 -30 -41 -16 -8 -31
-15 -34 -15 -3 0 -5 132 -5 293 1 169 -3 335 -10 396 -7 57 -10 105 -8 107 2
2 83 -16 180 -41 98 -25 187 -45 199 -45 49 0 -19 38 -167 94 -249 94 -237 88
-249 124 -19 57 -65 103 -132 133 -63 29 -104 36 -118 22 -4 -5 -25 -8 -47 -9
-23 -1 -48 -9 -59 -19 -18 -16 -26 -17 -71 -7 -28 7 -55 10 -59 7 -5 -3 -30 3
-57 14 -66 25 -113 35 -113 22 0 -21 76 -80 116 -90 24 -6 46 -16 49 -22 4 -6
16 -14 28 -18 16 -6 20 -18 22 -63 2 -31 9 -69 17 -84 12 -26 19 -29 62 -29
45 0 49 -2 62 -34 8 -18 30 -60 50 -93 39 -64 38 -57 10 -188 -8 -41 -25 -163
-35 -270 -11 -107 -27 -264 -36 -349 -9 -85 -14 -169 -10 -188 7 -41 59 -101
102 -119 78 -33 162 -13 377 89 l150 71 20 -27 c23 -31 69 -301 68 -397 -1
-57 -22 -216 -42 -306 l-11 -52 -102 -1 c-56 -1 -155 -6 -219 -11 -64 -5 -125
-7 -135 -3 -10 3 -43 29 -74 58 -34 31 -72 56 -100 64 -63 19 -136 60 -154 88
-9 13 -33 39 -53 57 -20 18 -104 93 -187 165 -82 73 -163 145 -180 160 -227
205 -230 207 -257 201 -27 -5 -151 -148 -184 -213 l-17 -31 49 -44 c27 -24
109 -95 182 -159 80 -71 131 -122 128 -130 -9 -21 12 -64 60 -125 24 -31 44
-62 44 -70 0 -7 16 -37 35 -66 l36 -52 1166 0 1166 0 -7 33 c-43 203 -76 477
-69 565 7 81 -5 121 -45 153 -20 15 -23 22 -14 31 9 9 20 8 45 -7 26 -16 51
-20 132 -20 96 0 100 1 98 21 -2 20 3 21 69 23 40 1 74 4 77 6 2 3 -3 13 -13
24 -16 17 -15 19 21 25 21 3 59 6 84 6 32 0 52 6 67 20 26 25 30 6 6 -28 -8
-12 -13 -22 -11 -22 2 0 -4 -34 -14 -77 -10 -42 -15 -81 -12 -86 3 -6 9 -24
12 -41 l7 -30 33 46 c35 49 69 73 56 41 -6 -16 -45 -227 -45 -246 0 -5 5 -5
10 -2 6 4 10 -9 10 -30 0 -30 3 -36 16 -31 15 6 16 -3 9 -79 -5 -59 -3 -85 4
-85 6 0 11 -11 11 -25 0 -32 10 -32 40 0 27 29 45 33 32 8 -14 -28 -23 -115
-13 -127 5 -6 11 -21 13 -34 l3 -23 49 31 c26 17 51 29 53 26 3 -3 -2 -19 -10
-35 l-15 -31 164 0 164 0 0 909 0 909 -81 78 c-131 127 -224 244 -323 407 -22
36 -47 24 -70 -36 -10 -26 -32 -57 -56 -76 -21 -17 -56 -59 -77 -93 l-38 -62
-7 140 c-13 286 -13 307 5 382 28 121 23 188 -27 347 -56 183 -84 235 -182
344 l-47 52 13 54 c13 53 12 55 -18 102 -32 49 -78 97 -122 126 -36 25 -164
21 -265 -7z m-1585 -1546 c0 -5 -4 -10 -10 -10 -5 0 -10 5 -10 10 0 6 5 10 10
10 6 0 10 -4 10 -10z m2300 -1125 c0 -31 -7 -31 -45 0 l-30 24 38 1 c33 0 37
-3 37 -25z m-580 -572 c16 -169 12 -184 -24 -96 -30 74 -31 109 -9 233 9 54
19 14 33 -137z"/>
</g>
</svg>
