<?xml version="1.0" standalone="no"?>
<!DOCTYPE svg PUBLIC "-//W3C//DTD SVG 20010904//EN"
 "http://www.w3.org/TR/2001/REC-SVG-20010904/DTD/svg10.dtd">
<svg version="1.0" xmlns="http://www.w3.org/2000/svg"
 width="480.000000pt" height="360.000000pt" viewBox="0 0 480.000000 360.000000"
 preserveAspectRatio="xMidYMid meet">
<metadata>
Created by potrace 1.16, written by Peter Selinger 2001-2019
</metadata>
<rect width="1" height="360" fill="#000000"/>
<rect x="479" width="1" height="360" fill="#000000"/>
<rect width="480" height="1" fill="#000000"/>
<rect y="359" width="480" height="1" fill="#000000"/>
<g transform="translate(0.000000,360.000000) scale(0.100000,-0.100000)"
fill="#000000" stroke="none">
<path d="M0 1800 l0 -1800 63 0 64 0 35 113 35 112 -23 21 c-29 28 -38 58 -24
85 8 14 9 24 2 31 -7 7 4 24 33 52 33 32 45 52 54 94 16 74 14 122 -6 144 -15
17 -15 18 1 18 15 0 16 7 11 44 -7 44 -7 45 26 53 31 8 33 13 55 96 13 47 34
108 48 135 23 46 24 49 6 71 -9 13 -22 21 -29 17 -15 -10 -14 27 3 67 11 26
38 46 137 103 68 39 146 79 172 89 39 15 45 20 32 28 -11 6 -32 2 -67 -13 -67
-29 -99 -23 -182 34 -37 25 -74 46 -81 46 -8 0 -44 -25 -81 -56 -36 -31 -68
-53 -71 -50 -15 14 25 82 63 108 33 22 49 45 82 117 47 100 48 106 26 97 -12
-5 -11 2 7 32 12 20 26 41 31 46 17 21 7 28 -32 21 -22 -4 -40 -4 -40 -2 0 3
20 16 45 28 25 13 51 29 56 36 12 13 55 216 61 282 l3 42 -138 45 c-76 25
-141 52 -144 60 -3 8 2 25 11 39 16 24 15 28 -9 72 -31 60 -33 109 -4 118 11
4 42 4 68 0 42 -6 54 -3 95 23 26 17 61 33 79 36 l33 6 -4 93 c-3 75 0 107 18
167 67 227 213 389 399 444 65 19 233 21 363 5 l88 -12 55 44 c78 62 158 118
171 118 12 1 54 -87 84 -173 11 -32 21 -60 22 -61 2 -1 23 -12 47 -24 148 -75
270 -229 317 -400 13 -44 22 -61 34 -61 30 0 80 -22 74 -32 -3 -5 -23 -7 -44
-3 l-38 6 -7 -98 c-13 -182 -13 -184 24 -255 18 -37 30 -71 27 -77 -4 -6 2
-28 14 -50 25 -49 25 -79 1 -110 -23 -29 -44 -24 -70 19 -10 18 -22 27 -25 21
-15 -23 103 -708 135 -784 11 -27 19 -57 17 -68 -2 -16 -14 -6 -52 45 -28 37
-54 66 -58 66 -5 0 -40 -14 -78 -32 l-69 -32 28 -36 c51 -64 55 -79 32 -104
-26 -28 -26 -40 -1 -81 11 -18 38 -86 59 -151 l39 -119 46 3 c59 5 64 -8 37
-88 -12 -33 -20 -63 -19 -68 1 -4 -2 -20 -7 -35 -8 -31 12 -62 49 -73 29 -9
66 -44 66 -63 0 -8 -10 -25 -22 -38 -13 -14 -21 -35 -20 -55 0 -18 -4 -43 -10
-55 -12 -25 7 -88 72 -236 l44 -97 51 0 51 0 18 318 c9 174 24 430 31 567 8
138 15 263 15 279 l0 29 108 -6 c108 -7 255 -37 392 -80 72 -22 75 -24 74 -54
-2 -29 -32 -133 -220 -758 -46 -155 -84 -284 -84 -288 0 -4 455 -7 1010 -7
l1010 0 0 1800 0 1800 -2400 0 -2400 0 0 -1800z m2878 1467 c3 -13 -4 -17 -27
-17 -34 0 -40 14 -13 29 22 13 36 9 40 -12z m-408 -421 c0 -8 -4 -17 -9 -21
-12 -7 -24 12 -16 25 9 15 25 12 25 -4z m2114 -645 c16 -17 16 -19 0 -25 -26
-10 -54 3 -54 25 0 25 31 25 54 0z m-1854 -541 c0 -5 -2 -10 -4 -10 -3 0 -8 5
-11 10 -3 6 -1 10 4 10 6 0 11 -4 11 -10z m1481 -330 c28 -16 23 -42 -16 -80
-30 -29 -37 -32 -45 -20 -15 23 -12 58 6 85 18 28 26 30 55 15z m-1741 -300
c0 -5 -4 -10 -10 -10 -5 0 -10 5 -10 10 0 6 5 10 10 10 6 0 10 -4 10 -10z"/>
<path d="M1574 1371 c4 -5 48 -19 99 -31 50 -11 100 -23 110 -26 11 -4 17 0
17 10 0 11 -9 16 -28 16 -15 0 -53 9 -85 20 -59 21 -122 27 -113 11z"/>
<path d="M1816 1316 c7 -19 38 -22 32 -3 -3 6 -12 13 -21 15 -12 2 -15 -1 -11
-12z"/>
<path d="M1823 95 c-6 -33 -14 -68 -18 -77 -4 -10 -3 -18 3 -18 12 0 35 100
30 132 -2 13 -8 -3 -15 -37z"/>
</g>
</svg>
