<?xml version="1.0" standalone="no"?>
<!DOCTYPE svg PUBLIC "-//W3C//DTD SVG 20010904//EN"
 "http://www.w3.org/TR/2001/REC-SVG-20010904/DTD/svg10.dtd">
<svg version="1.0" xmlns="http://www.w3.org/2000/svg"
 width="480.000000pt" height="360.000000pt" viewBox="0 0 480.000000 360.000000"
 preserveAspectRatio="xMidYMid meet">
<metadata>
Created by potrace 1.16, written by Peter Selinger 2001-2019
</metadata>
<rect width="1" height="360" fill="#000000"/>
<rect x="479" width="1" height="360" fill="#000000"/>
<rect width="480" height="1" fill="#000000"/>
<rect y="359" width="480" height="1" fill="#000000"/>
<g transform="translate(0.000000,360.000000) scale(0.100000,-0.100000)"
fill="#000000" stroke="none">
<path d="M0 1800 l0 -1800 461 2 462 3 61 180 c84 244 106 284 253 473 40 51
77 101 82 110 4 9 6 71 2 137 l-6 120 -20 -77 c-10 -43 -22 -78 -27 -78 -4 0
-8 1 -8 3 0 1 7 56 15 122 8 65 15 121 15 124 0 3 -7 -4 -15 -15 -19 -25 -19
-32 10 168 45 313 46 333 34 660 -7 220 -7 348 0 455 11 141 13 151 47 218 41
79 113 185 125 185 4 0 2 12 -6 28 -8 15 -19 42 -26 60 -15 42 -45 62 -106 70
-45 7 -48 9 -48 37 0 29 3 31 69 47 48 12 79 27 100 47 17 16 49 36 70 45 25
10 36 20 30 26 -5 5 -49 21 -97 35 -49 14 -109 36 -136 49 -58 30 -131 101
-131 128 0 18 4 19 36 13 20 -3 73 -17 118 -30 44 -13 82 -22 84 -20 2 2 -15
29 -38 60 -50 68 -90 150 -90 188 l0 27 -660 0 -660 0 0 -1800z"/>
<path d="M1463 3510 c48 -50 106 -123 129 -162 42 -71 43 -72 49 -43 4 17 7
51 8 77 0 26 12 82 26 125 14 43 25 81 25 86 0 4 -73 7 -161 7 l-161 0 85 -90z"/>
<path d="M1790 3541 c0 -33 -7 -95 -15 -138 -8 -43 -15 -79 -15 -80 0 -1 53
34 118 78 147 99 168 102 132 21 -29 -63 -115 -149 -203 -200 -43 -25 -74 -48
-70 -53 4 -4 33 -12 63 -18 30 -7 62 -19 73 -28 14 -14 35 -16 98 -14 79 2 79
2 79 -23 0 -21 -8 -29 -40 -42 -60 -24 -80 -55 -80 -124 l0 -58 43 -21 c57
-28 193 -163 216 -216 45 -101 50 -180 21 -338 -17 -100 -18 -117 -5 -215 8
-59 17 -161 20 -227 11 -236 15 -269 31 -253 16 16 21 103 9 155 -6 29 -3 37
28 68 34 34 38 35 110 35 69 0 77 -2 107 -30 29 -27 31 -34 25 -68 -11 -57 -8
-141 6 -158 6 -8 14 -13 16 -11 2 2 8 88 13 191 6 103 17 238 25 301 9 75 11
125 5 146 -27 94 -18 326 15 406 9 20 31 55 49 78 31 38 33 43 20 65 -8 14
-24 57 -36 95 -28 87 -30 253 -4 359 18 74 103 266 118 266 5 0 7 -4 4 -9 -11
-16 -36 -152 -47 -246 -15 -142 11 -340 54 -399 13 -17 16 -17 38 -3 13 8 57
25 97 37 156 47 316 9 420 -100 l49 -51 37 43 c35 40 108 156 123 194 5 14 2
16 -15 12 -24 -7 -55 23 -100 97 -31 50 -31 50 -11 70 16 17 33 20 98 20 l79
-1 11 36 c5 19 13 77 17 129 9 122 16 107 50 -115 l4 -30 60 4 c59 4 61 4 101
-37 l42 -42 -63 -57 c-35 -31 -66 -58 -70 -60 -4 -1 -13 10 -19 27 -7 16 -23
39 -37 52 l-24 22 0 -24 c0 -31 -33 -153 -55 -203 -25 -58 -75 -134 -128 -192
l-46 -51 19 -39 c33 -68 44 -291 30 -618 -7 -154 -10 -318 -6 -365 6 -74 45
-372 61 -468 4 -20 2 -33 -5 -33 -5 0 -10 7 -10 17 0 9 -2 14 -5 11 -5 -5 11
-178 21 -232 11 -51 -13 -19 -26 36 -21 89 -25 81 -25 -45 l0 -122 34 -47 c28
-40 41 -48 85 -59 28 -6 62 -17 76 -24 14 -7 70 -25 125 -39 168 -45 269 -115
395 -271 47 -59 140 -256 140 -296 0 -18 11 -19 230 -19 l230 0 0 1800 0 1800
-1505 0 -1505 0 0 -59z"/>
<path d="M2170 2291 c0 -25 6 -27 13 -6 4 8 2 17 -3 20 -6 4 -10 -3 -10 -14z"/>
<path d="M2610 2276 c0 -22 3 -27 11 -19 8 8 8 16 0 30 -9 16 -10 14 -11 -11z"/>
<path d="M2198 1323 c-22 -25 -6 -72 17 -53 16 13 21 70 7 70 -5 0 -16 -8 -24
-17z"/>
<path d="M2564 1328 c3 -7 7 -25 10 -40 8 -35 24 -36 32 -2 5 18 1 29 -12 39
-24 18 -35 19 -30 3z"/>
<path d="M2372 1253 c-12 -32 -26 -78 -31 -102 -8 -37 -24 -59 -98 -133 l-88
-88 1 -148 c0 -81 4 -168 8 -195 4 -28 3 -47 -2 -47 -5 0 -13 21 -17 47 -10
69 -23 36 -36 -94 -10 -103 -14 -121 -23 -112 -2 2 -20 67 -39 144 -37 148
-41 149 -51 24 -3 -45 -16 -90 -37 -139 l-32 -72 33 -111 c18 -62 40 -138 48
-170 l16 -57 421 2 420 3 18 160 c12 110 14 161 7 163 -27 9 -79 141 -92 233
l-14 94 -28 -115 c-15 -63 -32 -126 -38 -140 l-11 -25 -8 25 c-4 14 -8 66 -9
115 -1 50 -6 104 -9 120 -8 30 -8 30 -20 -15 -29 -106 -31 -96 -18 81 15 213
12 224 -79 305 -86 77 -92 86 -110 166 -12 49 -48 138 -57 138 -1 0 -12 -26
-25 -57z"/>
<path d="M2875 653 c-7 -38 3 -230 14 -286 6 -24 11 2 20 96 11 103 11 138 1
173 -16 58 -26 63 -35 17z"/>
<path d="M1895 658 c-10 -42 -10 -62 -2 -145 5 -46 13 -83 18 -83 5 0 9 54 9
125 0 75 -4 125 -10 125 -5 0 -12 -10 -15 -22z"/>
</g>
</svg>
