<?xml version="1.0" standalone="no"?>
<!DOCTYPE svg PUBLIC "-//W3C//DTD SVG 20010904//EN"
 "http://www.w3.org/TR/2001/REC-SVG-20010904/DTD/svg10.dtd">
<svg version="1.0" xmlns="http://www.w3.org/2000/svg"
 width="480.000000pt" height="360.000000pt" viewBox="0 0 480.000000 360.000000"
 preserveAspectRatio="xMidYMid meet">
<metadata>
Created by potrace 1.16, written by Peter Selinger 2001-2019
</metadata>
<rect width="1" height="360" fill="#000000"/>
<rect x="479" width="1" height="360" fill="#000000"/>
<rect width="480" height="1" fill="#000000"/>
<rect y="359" width="480" height="1" fill="#000000"/>
<g transform="translate(0.000000,360.000000) scale(0.100000,-0.100000)"
fill="#000000" stroke="none">
<path d="M0 2959 l0 -642 41 7 c313 50 781 14 1180 -92 l107 -28 48 28 c27 15
55 26 62 23 9 -3 12 11 12 50 l0 53 -72 -5 c-155 -11 -184 26 -105 134 25 33
77 86 115 118 39 32 74 65 76 72 3 8 6 89 7 181 0 195 9 223 86 298 54 53 166
129 215 146 18 6 47 22 66 34 77 52 237 98 342 97 94 -1 123 -15 260 -125
l102 -82 132 32 c143 35 231 40 276 17 70 -36 9 -136 -162 -267 l-78 -59 51
-67 c28 -37 73 -90 100 -119 51 -54 51 -75 -1 -48 -33 17 -34 15 -20 -35 6
-19 7 -57 4 -84 -6 -40 -9 -46 -19 -33 -14 20 -32 9 -40 -26 -5 -19 -12 -26
-24 -23 -10 3 -28 -10 -48 -35 -32 -39 -32 -42 -17 -71 8 -16 29 -37 45 -46
38 -22 37 -47 -6 -85 -27 -23 -35 -39 -35 -64 0 -23 -7 -37 -24 -49 -14 -9
-22 -22 -19 -29 3 -8 -5 -27 -16 -41 -12 -15 -30 -46 -41 -68 -11 -23 -24 -48
-29 -56 -6 -8 -15 -42 -22 -75 -10 -52 -18 -66 -59 -106 l-48 -47 102 -55 c56
-30 165 -92 241 -137 137 -79 141 -81 167 -66 39 24 53 20 108 -29 28 -25 56
-45 63 -45 8 0 26 -14 43 -31 16 -17 45 -37 64 -45 19 -8 45 -25 58 -37 13
-12 42 -31 65 -42 39 -19 42 -23 45 -65 3 -40 8 -48 45 -75 47 -33 239 -186
247 -196 3 -3 27 -25 53 -47 39 -34 55 -42 86 -40 45 1 59 -6 71 -38 6 -15 18
-24 30 -24 34 0 61 -19 76 -56 9 -21 21 -34 33 -34 22 0 46 -26 56 -60 4 -14
14 -33 22 -42 11 -12 14 -28 9 -49 -5 -28 1 -40 62 -113 88 -105 174 -219 247
-328 l58 -88 154 0 153 0 0 1800 0 1800 -2400 0 -2400 0 0 -641z"/>
<path d="M110 2075 c-47 -8 -91 -14 -97 -15 -10 0 -13 -213 -13 -1030 l0
-1030 935 0 935 0 1 23 c3 42 0 123 -11 312 -16 275 -29 394 -47 428 -11 23
-13 35 -5 48 7 11 7 20 0 27 -7 7 -10 66 -9 158 2 174 -5 235 -25 227 -8 -3
-14 1 -14 11 0 9 -4 16 -10 16 -5 0 -10 -15 -10 -32 0 -18 -5 -40 -10 -48 -8
-13 -10 -13 -10 2 0 9 -5 18 -10 20 -12 4 4 253 21 327 5 24 8 45 6 48 -3 2
-33 8 -68 14 -80 13 -161 56 -239 126 -66 60 -102 115 -119 180 -11 41 -13 43
-79 62 -287 84 -567 129 -847 136 -137 3 -213 1 -275 -10z"/>
<path d="M2730 1193 c67 -125 74 -133 66 -63 -3 30 -6 65 -6 78 0 16 -14 31
-47 52 -26 17 -51 30 -56 30 -4 0 15 -44 43 -97z"/>
<path d="M2733 1128 c31 -78 40 -98 47 -98 20 0 14 27 -12 67 -28 41 -45 56
-35 31z"/>
<path d="M3248 848 l-38 -52 55 -49 c30 -27 55 -57 55 -68 0 -10 -29 -50 -65
-88 -36 -37 -65 -72 -65 -76 0 -9 262 0 322 11 32 6 42 14 69 61 17 31 27 59
22 63 -112 97 -306 251 -315 250 -2 0 -20 -24 -40 -52z"/>
<path d="M3912 300 c-6 -11 -34 -36 -62 -57 -43 -32 -50 -43 -56 -82 -4 -25
-15 -70 -25 -100 -11 -30 -19 -56 -19 -58 0 -1 102 -3 226 -3 l225 0 -68 89
c-101 130 -187 230 -198 230 -6 1 -16 -8 -23 -19z"/>
<path d="M2768 82 l-57 -77 199 -3 c109 -1 292 -1 407 0 l208 3 -50 23 c-128
59 -261 93 -463 117 -194 23 -178 27 -244 -63z"/>
</g>
</svg>
