<?xml version="1.0" standalone="no"?>
<!DOCTYPE svg PUBLIC "-//W3C//DTD SVG 20010904//EN"
 "http://www.w3.org/TR/2001/REC-SVG-20010904/DTD/svg10.dtd">
<svg version="1.0" xmlns="http://www.w3.org/2000/svg"
 width="480.000000pt" height="360.000000pt" viewBox="0 0 480.000000 360.000000"
 preserveAspectRatio="xMidYMid meet">
<metadata>
Created by potrace 1.16, written by Peter Selinger 2001-2019
</metadata>
<rect width="1" height="360" fill="#000000"/>
<rect x="479" width="1" height="360" fill="#000000"/>
<rect width="480" height="1" fill="#000000"/>
<rect y="359" width="480" height="1" fill="#000000"/>
<g transform="translate(0.000000,360.000000) scale(0.100000,-0.100000)"
fill="#000000" stroke="none">
<path d="M0 1800 l0 -1800 2400 0 2400 0 0 1800 0 1800 -2400 0 -2400 0 0
-1800z m2850 1398 c0 -7 -9 -33 -20 -57 -11 -24 -20 -47 -20 -53 0 -19 18 3
38 45 11 24 27 49 36 56 28 23 20 -23 -15 -87 l-31 -57 28 30 c16 17 36 41 45
55 30 44 35 10 6 -41 -15 -27 -25 -49 -22 -49 3 0 23 16 45 36 22 20 43 35 46
32 2 -3 -12 -29 -31 -58 -20 -29 -38 -57 -41 -62 -3 -4 0 -8 7 -8 7 0 32 21
55 47 54 58 70 50 20 -11 -38 -47 -46 -69 -20 -59 19 7 -16 -59 -52 -98 -13
-14 -24 -29 -24 -33 0 -5 -12 -17 -26 -29 -20 -15 -25 -26 -21 -46 5 -22 -1
-32 -29 -54 -19 -16 -34 -34 -34 -41 0 -7 -20 -52 -45 -101 -75 -148 -84 -191
-72 -337 4 -55 19 -88 63 -141 48 -58 68 -127 54 -190 -12 -59 -44 -134 -67
-159 -16 -17 -15 -22 6 -66 32 -64 71 -180 71 -209 0 -16 -8 -27 -24 -33 -14
-5 -35 -23 -47 -39 -12 -17 -27 -27 -33 -23 -6 3 -20 5 -31 4 -19 -3 -21 3
-24 70 -1 40 -3 74 -4 75 -2 1 -27 -22 -58 -50 -30 -29 -71 -64 -89 -78 -29
-22 -34 -33 -40 -85 -4 -32 -5 -132 -2 -221 5 -150 6 -163 24 -169 19 -6 19
-6 0 -27 -31 -34 -31 -59 1 -75 29 -14 37 -42 11 -42 -11 0 -14 -5 -9 -18 4
-9 14 -39 22 -67 8 -27 29 -69 46 -92 38 -54 30 -65 -14 -19 -18 20 -34 34
-36 32 -2 -1 6 -24 18 -50 34 -78 6 -76 -37 2 -26 50 -26 51 -8 -45 8 -41 -10
-44 -29 -6 -14 27 -15 27 -22 4 -10 -31 -32 -10 -46 43 -5 23 -19 52 -29 66
l-20 25 10 -35 c6 -19 10 -48 9 -65 l0 -30 -11 25 c-32 77 -39 91 -47 86 -5
-4 -5 -22 0 -43 11 -48 11 -53 0 -53 -4 0 -14 27 -21 61 -11 51 -16 60 -32 56
-21 -6 -22 -3 -8 24 9 16 7 19 -10 19 -25 0 -25 12 1 80 31 83 32 87 21 119
-7 21 -7 32 1 40 8 8 12 50 12 114 0 56 4 139 9 185 l9 82 -64 0 c-89 1 -143
15 -194 53 -87 63 -123 194 -160 581 -10 109 56 215 214 344 135 110 231 137
376 107 28 -6 32 -3 53 38 12 24 22 47 22 51 0 4 11 32 25 62 14 30 25 58 25
62 0 10 43 111 64 151 10 19 16 45 13 60 -4 17 1 33 14 47 26 27 41 114 33
191 -5 44 -3 63 4 63 7 0 14 -12 18 -27 9 -45 13 -53 23 -53 11 0 51 69 71
120 15 41 29 60 41 60 5 0 9 -6 9 -12z m190 -203 c-7 -9 -15 -13 -17 -11 -7 7
7 26 19 26 6 0 6 -6 -2 -15z"/>
<path d="M2411 544 c0 -11 3 -14 6 -6 3 7 2 16 -1 19 -3 4 -6 -2 -5 -13z"/>
</g>
</svg>
