<?xml version="1.0" standalone="no"?>
<!DOCTYPE svg PUBLIC "-//W3C//DTD SVG 20010904//EN"
 "http://www.w3.org/TR/2001/REC-SVG-20010904/DTD/svg10.dtd">
<svg version="1.0" xmlns="http://www.w3.org/2000/svg"
 width="480.000000pt" height="360.000000pt" viewBox="0 0 480.000000 360.000000"
 preserveAspectRatio="xMidYMid meet">
<metadata>
Created by potrace 1.16, written by Peter Selinger 2001-2019
</metadata>
<rect width="1" height="360" fill="#000000"/>
<rect x="479" width="1" height="360" fill="#000000"/>
<rect width="480" height="1" fill="#000000"/>
<rect y="359" width="480" height="1" fill="#000000"/>
<g transform="translate(0.000000,360.000000) scale(0.100000,-0.100000)"
fill="#000000" stroke="none">
<path d="M2479 3071 c-23 -18 -24 -26 -25 -133 -1 -75 -11 -177 -32 -303 -17
-104 -43 -266 -57 -360 -14 -93 -29 -171 -33 -173 -4 -1 -22 -11 -41 -23 -32
-19 -33 -23 -28 -65 4 -40 -15 -135 -37 -187 -11 -22 2 -88 20 -108 13 -14 10
-37 -22 -185 -109 -515 -150 -691 -185 -796 -22 -65 -39 -128 -38 -140 4 -43
-1 -57 -21 -63 -11 -4 -33 -17 -49 -31 -27 -22 -29 -29 -29 -93 1 -67 -24
-151 -59 -206 -29 -44 -2 -89 65 -110 21 -6 22 -11 16 -51 l-6 -44 70 0 70 0
11 44 c10 43 11 43 43 37 31 -7 33 -10 31 -44 l-2 -37 902 0 903 0 17 64 c20
75 23 354 7 546 -6 63 -16 214 -24 335 l-14 220 30 130 c87 381 117 618 98
802 -13 123 -43 264 -65 296 -8 12 -19 47 -26 77 -6 30 -25 82 -42 115 -84
159 -251 247 -530 277 -135 14 -136 14 -217 -7 -111 -28 -162 -65 -340 -249
-88 -91 -92 -97 -53 -77 23 11 45 21 48 21 3 0 -6 -23 -21 -51 -19 -38 -23
-54 -14 -59 7 -5 10 -19 7 -36 -4 -16 -2 -47 2 -69 5 -22 9 -34 10 -27 2 22
19 13 25 -14 4 -14 12 -24 19 -21 7 2 17 -3 24 -12 11 -14 12 -14 13 3 0 11 3
16 6 13 14 -14 -20 -65 -57 -86 -43 -25 -49 -46 -20 -82 15 -18 17 -29 9 -56
-5 -18 -5 -39 -1 -46 4 -6 9 -21 10 -32 1 -11 7 -46 13 -77 10 -50 15 -58 42
-67 17 -6 41 -11 53 -11 31 0 33 -5 22 -56 -9 -37 -14 -44 -29 -40 -60 19 -63
18 -27 -13 l37 -31 -22 -72 c-20 -65 -26 -74 -71 -105 -79 -53 -87 -49 -145
66 -33 67 -59 139 -80 223 -34 132 -55 177 -119 249 l-40 46 19 131 c10 71 37
226 59 343 36 189 50 250 93 400 12 46 -12 106 -49 120 -41 15 -99 11 -124
-10z m-18 -1460 c50 -32 89 -72 112 -116 21 -38 49 -143 43 -154 -9 -13 -96
-32 -117 -26 -10 3 -27 2 -37 -4 -95 -51 -58 -398 80 -749 34 -84 58 -155 55
-159 -4 -3 -50 14 -103 37 -82 36 -104 41 -143 37 -43 -5 -154 16 -175 34 -5
4 -1 29 8 55 9 26 16 76 16 110 0 34 7 99 16 145 24 132 153 701 180 797 8 28
11 28 65 -7z"/>
</g>
</svg>
