<?xml version="1.0" standalone="no"?>
<!DOCTYPE svg PUBLIC "-//W3C//DTD SVG 20010904//EN"
 "http://www.w3.org/TR/2001/REC-SVG-20010904/DTD/svg10.dtd">
<svg version="1.0" xmlns="http://www.w3.org/2000/svg"
 width="480.000000pt" height="360.000000pt" viewBox="0 0 480.000000 360.000000"
 preserveAspectRatio="xMidYMid meet">
<metadata>
Created by potrace 1.16, written by Peter Selinger 2001-2019
</metadata>
<rect width="1" height="360" fill="#000000"/>
<rect x="479" width="1" height="360" fill="#000000"/>
<rect width="480" height="1" fill="#000000"/>
<rect y="359" width="480" height="1" fill="#000000"/>
<g transform="translate(0.000000,360.000000) scale(0.100000,-0.100000)"
fill="#000000" stroke="none">
<path d="M2570 3428 c-246 -16 -344 -41 -417 -103 -83 -71 -132 -184 -154
-356 l-12 -89 -46 -34 c-25 -18 -72 -48 -104 -66 -56 -31 -60 -32 -98 -20 -36
12 -42 12 -67 -6 -31 -23 -61 -78 -69 -128 -5 -32 -3 -37 23 -47 16 -6 46 -8
66 -5 37 6 37 6 55 -45 20 -58 34 -67 70 -48 23 13 27 11 50 -15 19 -22 24
-38 21 -63 -3 -25 -1 -32 9 -28 8 2 17 -3 20 -13 6 -14 65 -104 80 -122 8 -9
23 26 23 58 0 17 4 32 9 32 13 0 21 -224 7 -232 -8 -6 -7 -11 3 -17 11 -7 13
-23 8 -68 -4 -32 -10 -69 -14 -83 -11 -42 18 -9 57 64 19 36 39 66 44 66 5 0
6 -25 3 -55 -3 -31 -2 -55 4 -55 5 0 9 -21 9 -47 0 -54 12 -46 31 21 12 44 26
38 31 -14 l4 -35 10 35 c6 19 15 35 21 35 6 0 39 -27 74 -59 58 -55 63 -58 70
-37 5 11 13 21 18 21 15 0 23 -18 11 -25 -5 -3 -10 -19 -10 -35 0 -18 -7 -33
-17 -38 -10 -6 -72 -12 -138 -14 -149 -6 -217 -30 -235 -83 -11 -32 -112 -145
-131 -145 -19 0 -59 80 -109 217 -30 82 -72 174 -98 215 -42 66 -46 78 -44
128 2 80 -5 86 -62 54 -30 -17 -53 -39 -66 -63 -20 -40 -86 -140 -119 -181
-11 -14 -21 -30 -21 -37 0 -7 -6 -16 -12 -20 -7 -4 -42 -42 -78 -83 -36 -41
-93 -101 -128 -134 -34 -32 -62 -64 -62 -70 0 -7 19 -17 43 -23 35 -10 47 -19
64 -52 12 -22 18 -43 13 -46 -5 -3 -43 -10 -85 -15 -97 -12 -112 -21 -117 -67
-3 -21 -8 -46 -12 -55 -6 -13 -1 -21 19 -30 14 -6 33 -24 41 -40 14 -27 13
-28 -28 -58 -35 -26 -49 -30 -78 -25 -74 12 -75 -47 -2 -84 20 -11 50 -33 66
-50 20 -20 39 -31 58 -31 15 0 28 -4 28 -10 0 -20 98 -110 120 -110 12 0 60 9
107 21 47 12 89 17 93 12 5 -4 18 -55 29 -113 36 -175 59 -237 105 -281 66
-64 161 -79 215 -33 l31 26 0 -24 c0 -41 -29 -274 -37 -294 -11 -29 -59 -96
-93 -128 -16 -16 -30 -33 -30 -38 0 -4 261 -8 580 -8 319 0 580 2 580 5 0 3
-6 16 -14 28 -8 12 -20 57 -27 100 -16 98 -7 145 60 310 82 203 94 228 111
221 34 -13 107 -16 114 -5 4 6 -2 39 -14 73 -11 33 -17 64 -13 68 4 4 27 12
49 18 54 16 90 45 115 94 24 46 29 46 142 -3 136 -60 313 -178 479 -321 74
-63 156 -118 176 -118 9 0 52 24 96 53 110 73 137 83 185 68 40 -12 168 -91
236 -146 49 -39 103 -68 115 -60 4 3 11 18 15 35 8 38 62 85 125 107 l50 18 0
432 c0 271 -4 433 -10 433 -38 0 -157 -58 -365 -178 -140 -80 -241 -125 -326
-143 -80 -17 -234 -5 -386 30 -144 34 -179 32 -185 -11 -5 -36 -35 -33 -166
13 l-120 43 -6 44 c-3 25 -6 75 -6 111 0 85 -14 133 -50 174 -16 18 -95 71
-176 118 -80 46 -162 98 -181 116 -31 29 -33 34 -22 55 8 13 13 27 14 32 0 5
6 11 14 14 10 3 12 -1 8 -17 -3 -12 1 -27 8 -35 8 -7 12 -16 9 -18 -3 -3 7 -3
21 -1 14 3 25 12 25 21 0 25 33 122 42 122 7 0 13 -38 9 -65 -1 -5 7 0 18 13
31 36 41 27 41 -39 0 -43 4 -59 12 -57 7 3 15 15 18 29 4 13 19 50 34 82 23
47 30 56 42 46 11 -9 14 -8 14 7 0 16 1 16 19 -2 10 -11 23 -30 30 -42 9 -18
42 -24 69 -13 1 0 -5 12 -14 27 -16 24 -16 25 5 31 l21 5 -21 35 c-19 30 -20
42 -14 114 6 64 11 83 27 92 11 7 25 26 33 43 11 27 10 41 -6 100 -28 101 -37
246 -16 278 15 22 20 23 49 14 18 -6 46 -16 61 -24 16 -8 37 -14 47 -14 10 0
21 -4 24 -9 3 -5 47 -25 96 -45 87 -35 92 -36 123 -21 40 19 137 108 167 154
23 34 23 34 4 70 -10 20 -28 43 -39 53 -35 29 -25 31 133 28 104 -2 125 21 77
78 -14 17 -25 37 -25 45 0 8 -9 26 -20 40 -11 14 -20 30 -20 35 0 6 -7 24 -15
41 -8 17 -22 45 -30 62 -8 17 -15 43 -15 58 0 15 -5 32 -11 38 -7 7 -8 17 -3
25 5 7 7 23 6 35 -2 11 2 24 7 28 26 15 1 107 -29 111 -6 1 -11 3 -12 4 -2 1
-28 4 -58 6 -30 2 -74 5 -98 7 -28 2 -46 -1 -54 -10 -7 -9 -21 -12 -35 -8 -13
3 -33 0 -46 -7 -12 -7 -36 -13 -54 -14 -17 -1 -59 -15 -93 -33 -34 -17 -67
-31 -73 -31 -7 0 -37 -13 -67 -29 l-54 -28 -53 43 c-159 130 -291 162 -583
142z"/>
</g>
</svg>
