<?xml version="1.0" standalone="no"?>
<!DOCTYPE svg PUBLIC "-//W3C//DTD SVG 20010904//EN"
 "http://www.w3.org/TR/2001/REC-SVG-20010904/DTD/svg10.dtd">
<svg version="1.0" xmlns="http://www.w3.org/2000/svg"
 width="480.000000pt" height="360.000000pt" viewBox="0 0 480.000000 360.000000"
 preserveAspectRatio="xMidYMid meet">
<metadata>
Created by potrace 1.16, written by Peter Selinger 2001-2019
</metadata>
<rect width="1" height="360" fill="#000000"/>
<rect x="479" width="1" height="360" fill="#000000"/>
<rect width="480" height="1" fill="#000000"/>
<rect y="359" width="480" height="1" fill="#000000"/>
<g transform="translate(0.000000,360.000000) scale(0.100000,-0.100000)"
fill="#000000" stroke="none">
<path d="M305 1849 c-116 -3 -231 -7 -257 -8 -48 -1 -48 -1 -48 -36 0 -32 2
-35 30 -35 17 0 30 -4 30 -9 0 -5 -13 -12 -30 -16 -29 -6 -30 -8 -30 -65 l0
-58 173 -7 c200 -8 4016 2 4125 11 74 6 94 19 45 29 -82 18 -81 17 -43 27 36
9 380 37 458 38 41 0 43 1 40 28 -3 27 -4 27 -113 39 -68 7 -451 16 -1000 22
-490 6 -1059 15 -1265 21 -998 29 -1606 34 -2115 19z"/>
</g>
</svg>
