<?xml version="1.0" standalone="no"?>
<!DOCTYPE svg PUBLIC "-//W3C//DTD SVG 20010904//EN"
 "http://www.w3.org/TR/2001/REC-SVG-20010904/DTD/svg10.dtd">
<svg version="1.0" xmlns="http://www.w3.org/2000/svg"
 width="480.000000pt" height="360.000000pt" viewBox="0 0 480.000000 360.000000"
 preserveAspectRatio="xMidYMid meet">
<metadata>
Created by potrace 1.16, written by Peter Selinger 2001-2019
</metadata>
<rect width="1" height="360" fill="#000000"/>
<rect x="479" width="1" height="360" fill="#000000"/>
<rect width="480" height="1" fill="#000000"/>
<rect y="359" width="480" height="1" fill="#000000"/>
<g transform="translate(0.000000,360.000000) scale(0.100000,-0.100000)"
fill="#000000" stroke="none">
<path d="M0 1800 l0 -1800 901 2 901 3 24 90 c13 50 37 144 53 210 16 66 50
182 75 257 55 167 56 171 33 176 -11 2 -16 -2 -15 -10 4 -19 -33 -10 -59 14
-36 33 -39 73 -9 130 16 30 23 55 18 64 -4 8 10 69 34 146 95 301 133 436 139
490 3 31 13 62 21 68 15 13 9 34 -7 25 -17 -11 -9 22 13 50 18 23 23 48 31
151 6 73 6 142 1 171 -8 42 -12 48 -31 45 -17 -2 -28 6 -43 30 -24 39 -70 174
-70 204 0 47 37 53 255 46 99 -3 264 6 300 16 22 7 70 12 107 12 107 0 114
-20 66 -180 -24 -79 -43 -110 -67 -110 -15 0 -18 -8 -18 -54 0 -30 -6 -68 -13
-85 -7 -19 -11 -64 -8 -123 2 -78 7 -98 26 -125 13 -18 20 -38 17 -43 -4 -6
-1 -17 5 -25 6 -8 15 -51 20 -97 9 -101 44 -234 111 -431 38 -112 48 -152 39
-162 -8 -10 -6 -21 10 -47 37 -60 22 -140 -32 -169 -16 -8 -22 -8 -29 2 -4 7
-11 11 -14 7 -4 -4 16 -78 44 -165 28 -87 60 -199 71 -249 10 -49 31 -132 45
-184 14 -52 25 -107 25 -122 l0 -28 915 0 915 0 0 1800 0 1800 -2400 0 -2400
0 0 -1800z"/>
<path d="M2774 864 c3 -9 6 -21 6 -27 0 -8 3 -8 11 0 13 13 5 43 -12 43 -6 0
-8 -7 -5 -16z"/>
<path d="M1965 830 c-3 -5 -1 -10 4 -10 6 0 11 5 11 10 0 6 -2 10 -4 10 -3 0
-8 -4 -11 -10z"/>
</g>
</svg>
