<?xml version="1.0" standalone="no"?>
<!DOCTYPE svg PUBLIC "-//W3C//DTD SVG 20010904//EN"
 "http://www.w3.org/TR/2001/REC-SVG-20010904/DTD/svg10.dtd">
<svg version="1.0" xmlns="http://www.w3.org/2000/svg"
 width="480.000000pt" height="360.000000pt" viewBox="0 0 480.000000 360.000000"
 preserveAspectRatio="xMidYMid meet">
<metadata>
Created by potrace 1.16, written by Peter Selinger 2001-2019
</metadata>
<rect width="1" height="360" fill="#000000"/>
<rect x="479" width="1" height="360" fill="#000000"/>
<rect width="480" height="1" fill="#000000"/>
<rect y="359" width="480" height="1" fill="#000000"/>
<g transform="translate(0.000000,360.000000) scale(0.100000,-0.100000)"
fill="#000000" stroke="none">
<path d="M3373 3585 c-3 -9 -3 -31 0 -50 l5 -33 -48 -7 c-27 -4 -55 -14 -62
-22 -13 -16 -17 -131 -7 -189 11 -59 51 -117 88 -126 24 -7 32 -13 28 -26 -3
-9 -17 -57 -31 -107 -34 -114 -51 -194 -82 -380 -20 -126 -30 -379 -16 -441 6
-27 13 -77 17 -110 6 -61 5 -62 -21 -68 l-27 -7 32 -33 c41 -42 34 -66 -18
-66 -21 0 -78 7 -127 15 -151 25 -415 65 -499 76 -44 6 -85 15 -92 21 -8 6
-13 34 -13 69 0 32 -5 70 -10 84 -9 24 -6 32 25 66 39 44 40 62 1 134 -29 56
-72 76 -134 63 -57 -12 -68 -21 -75 -56 -4 -19 4 -45 25 -86 35 -69 34 -90
-13 -165 -31 -49 -32 -55 -20 -84 23 -57 24 -76 3 -145 -32 -102 -49 -253 -74
-662 -3 -47 23 -70 81 -70 34 0 61 -28 61 -63 0 -23 -8 -31 -55 -52 -68 -29
-75 -58 -20 -81 36 -15 160 -18 229 -6 41 7 63 32 28 32 -38 0 -62 32 -72 94
-13 79 -4 89 74 84 l61 -3 -1 55 c-2 83 -59 390 -95 517 -27 93 -31 118 -23
150 9 37 10 38 54 36 25 -1 104 -11 175 -22 337 -52 454 -70 503 -76 l52 -7 0
-84 c0 -96 7 -104 83 -104 30 0 49 -6 60 -18 16 -18 15 -22 -13 -73 -16 -30
-39 -83 -51 -118 -21 -61 -23 -64 -78 -88 -58 -26 -81 -41 -235 -161 -91 -70
-120 -107 -91 -119 9 -3 13 -18 12 -41 -2 -32 1 -38 28 -47 17 -5 37 -14 45
-20 8 -5 47 -11 87 -11 l71 -1 -5 51 c-5 46 -2 55 22 84 15 18 58 48 95 67 37
19 79 48 93 64 14 17 57 58 95 91 39 33 79 76 91 95 20 34 44 45 56 25 8 -13
-10 -46 -57 -101 -21 -25 -38 -56 -38 -68 0 -13 -8 -35 -19 -49 -56 -80 -173
-310 -204 -403 -72 -218 -101 -359 -112 -549 -3 -58 -8 -140 -11 -182 l-5 -78
645 0 646 0 -7 63 c-4 34 -6 78 -5 97 2 19 4 240 5 491 2 434 3 458 21 478 17
18 18 26 8 59 -6 20 -14 60 -17 87 -4 28 -22 100 -40 160 -58 187 -109 420
-120 546 l-7 76 31 12 c57 24 113 131 103 199 -3 26 -1 32 15 32 24 0 73 -52
147 -152 77 -105 108 -120 152 -72 18 19 24 36 24 73 l0 49 -252 245 c-139
135 -284 282 -323 326 -63 72 -74 92 -108 188 -20 60 -44 140 -53 178 -20 87
-63 164 -116 209 -25 22 -55 63 -77 108 -20 40 -42 74 -48 74 -7 1 -22 2 -34
3 -15 1 -19 6 -15 17 13 33 -22 54 -90 54 -35 0 -66 -4 -69 -10 -3 -5 -15 -10
-26 -10 -10 0 -19 5 -19 10 0 6 -38 10 -95 10 -77 0 -97 -3 -102 -15z m647
-930 c10 -12 10 -15 -3 -15 -23 0 -47 11 -47 21 0 15 37 10 50 -6z m-532 -47
c36 -67 92 -117 148 -134 30 -8 54 -17 54 -19 0 -1 -18 -29 -39 -62 -48 -71
-65 -135 -58 -213 4 -49 2 -61 -14 -76 -26 -23 -24 -30 13 -65 27 -24 31 -32
22 -47 -9 -13 -24 -17 -72 -15 -83 2 -98 12 -106 70 -39 272 -42 349 -21 509
11 85 43 108 73 52z m48 -807 c-20 -37 -40 -44 -61 -21 -27 30 -12 50 35 50
l41 0 -15 -29z m309 -103 c14 -6 25 -17 25 -24 0 -7 -32 -40 -70 -72 -39 -33
-87 -80 -107 -106 -47 -60 -83 -63 -52 -3 7 12 39 66 71 120 64 103 76 111
133 85z"/>
</g>
</svg>
