<?xml version="1.0" standalone="no"?>
<!DOCTYPE svg PUBLIC "-//W3C//DTD SVG 20010904//EN"
 "http://www.w3.org/TR/2001/REC-SVG-20010904/DTD/svg10.dtd">
<svg version="1.0" xmlns="http://www.w3.org/2000/svg"
 width="480.000000pt" height="360.000000pt" viewBox="0 0 480.000000 360.000000"
 preserveAspectRatio="xMidYMid meet">
<metadata>
Created by potrace 1.16, written by Peter Selinger 2001-2019
</metadata>
<rect width="1" height="360" fill="#000000"/>
<rect x="479" width="1" height="360" fill="#000000"/>
<rect width="480" height="1" fill="#000000"/>
<rect y="359" width="480" height="1" fill="#000000"/>
<g transform="translate(0.000000,360.000000) scale(0.100000,-0.100000)"
fill="#000000" stroke="none">
<path d="M300 3590 c0 -5 -13 -25 -30 -43 -16 -19 -27 -37 -24 -40 3 -3 1 -14
-5 -25 -11 -21 6 -114 49 -272 11 -41 32 -131 46 -199 14 -69 27 -128 29 -131
2 -3 0 -12 -4 -19 -5 -7 -1 -29 10 -51 12 -24 22 -78 28 -152 5 -62 16 -140
25 -173 9 -33 16 -77 16 -97 0 -33 -3 -38 -22 -38 -13 -1 -57 -18 -98 -38 -64
-32 -77 -42 -86 -72 -6 -19 -10 -40 -7 -46 7 -19 51 -33 151 -48 52 -7 99 -19
105 -25 8 -8 5 -11 -11 -11 -25 0 -30 -18 -7 -27 9 -3 29 -32 46 -65 37 -73
63 -88 122 -67 42 14 60 39 102 139 7 18 28 29 80 46 77 25 135 75 135 118 0
62 -109 125 -222 128 -25 1 -28 4 -28 37 0 20 4 41 8 48 7 11 96 63 107 63 2
0 5 -14 7 -32 3 -27 11 -35 50 -55 44 -22 50 -22 81 -9 51 21 55 35 20 65 -37
32 -49 54 -58 108 -9 54 -25 67 -75 60 -22 -3 -40 -2 -40 3 0 4 9 28 21 54 19
44 18 73 -2 61 -5 -4 -9 -2 -9 4 0 5 4 13 10 16 5 3 10 11 10 17 0 6 -12 2
-27 -7 -16 -10 -22 -12 -15 -4 20 21 14 32 -14 25 -22 -6 -25 -4 -22 16 2 18
-2 22 -22 23 -14 0 -30 -7 -37 -15 -6 -8 -13 -13 -16 -10 -2 3 21 52 52 110
50 93 71 120 193 244 118 120 136 142 127 158 -7 14 -7 23 1 33 14 16 5 35
-15 35 -8 0 -21 15 -29 34 -11 26 -23 37 -51 45 -19 5 -51 23 -71 40 -24 22
-45 31 -69 31 -18 0 -37 5 -40 10 -8 13 -475 14 -475 0z"/>
<path d="M2400 1800 l0 -1800 849 0 849 0 6 23 c23 83 45 206 51 287 3 52 15
128 26 168 23 87 24 106 3 137 l-15 24 -79 -40 c-123 -61 -132 -56 -146 81 -4
45 -10 67 -15 58 -12 -19 -11 0 1 23 13 24 1 25 -43 2 -41 -21 -122 -26 -106
-6 9 10 8 13 -5 13 -12 0 -16 7 -14 27 2 16 -2 28 -9 28 -6 0 -14 3 -18 7 -7
7 18 61 47 97 10 13 16 32 13 41 -4 11 9 31 40 59 49 45 49 49 4 25 -17 -8
-33 -13 -36 -11 -4 5 81 58 160 98 62 32 83 49 92 77 5 17 2 22 -13 22 -32 0
-34 12 -6 41 25 26 25 28 9 52 -9 15 -15 40 -13 59 3 30 9 36 71 66 38 19 85
36 105 39 20 4 58 22 84 41 27 19 55 32 63 29 17 -7 40 -50 49 -94 6 -26 3
-34 -13 -44 -19 -13 -19 -13 5 -42 24 -29 32 -75 15 -92 -23 -25 -56 -103 -53
-123 2 -13 32 -53 68 -88 35 -36 64 -71 64 -79 0 -23 18 -18 26 8 4 12 8 38 8
57 1 32 4 35 31 35 25 0 33 -6 48 -39 14 -29 16 -45 9 -61 -7 -15 -6 -28 4
-46 16 -30 18 -73 3 -102 -6 -12 -39 -51 -74 -87 -57 -59 -63 -70 -69 -120 -4
-30 -12 -73 -18 -96 -12 -45 -3 -90 57 -293 14 -46 28 -109 31 -140 3 -31 7
-71 10 -88 l5 -33 119 0 120 0 0 1800 0 1800 -1200 0 -1200 0 0 -1800z"/>
</g>
</svg>
