<?xml version="1.0" standalone="no"?>
<!DOCTYPE svg PUBLIC "-//W3C//DTD SVG 20010904//EN"
 "http://www.w3.org/TR/2001/REC-SVG-20010904/DTD/svg10.dtd">
<svg version="1.0" xmlns="http://www.w3.org/2000/svg"
 width="480.000000pt" height="360.000000pt" viewBox="0 0 480.000000 360.000000"
 preserveAspectRatio="xMidYMid meet">
<metadata>
Created by potrace 1.16, written by Peter Selinger 2001-2019
</metadata>
<rect width="1" height="360" fill="#000000"/>
<rect x="479" width="1" height="360" fill="#000000"/>
<rect width="480" height="1" fill="#000000"/>
<rect y="359" width="480" height="1" fill="#000000"/>
<g transform="translate(0.000000,360.000000) scale(0.100000,-0.100000)"
fill="#000000" stroke="none">
<path d="M0 2705 l0 -896 21 11 c77 42 280 80 524 99 525 42 929 54 1900 55
l900 2 7 53 c11 75 24 94 56 86 39 -10 50 -22 57 -66 l7 -40 71 6 c40 4 97 9
127 12 30 3 63 12 72 20 33 29 81 9 127 -52 23 -30 51 -57 64 -59 20 -5 350
-26 396 -26 12 0 23 11 30 31 33 95 209 252 379 338 l62 31 0 645 0 645 -2400
0 -2400 0 0 -895z m4130 335 c0 -15 -7 -20 -25 -20 -40 0 -25 27 23 39 1 1 2
-8 2 -19z"/>
<path d="M3470 1763 c0 -54 -19 -113 -36 -113 -7 0 -19 -3 -27 -6 -22 -8 -50
40 -57 95 l-5 46 -175 6 c-286 11 -1450 10 -1790 -1 -383 -12 -914 -37 -1070
-50 -63 -6 -159 -13 -212 -17 l-98 -6 0 -859 0 -858 2400 0 2400 0 0 385 c0
331 -2 385 -15 385 -65 0 -198 90 -245 166 -41 65 -25 188 31 249 18 20 18 22
0 80 l-19 59 -63 17 c-72 19 -87 25 -254 104 -134 64 -206 91 -345 130 -205
58 -280 98 -368 198 -18 20 -37 37 -42 37 -6 0 -10 -21 -10 -47z"/>
<path d="M3966 1802 c-10 -16 315 -144 330 -129 8 8 21 107 15 111 -3 2 -51 6
-106 10 -55 3 -130 9 -166 12 -39 3 -69 2 -73 -4z"/>
</g>
</svg>
