<?xml version="1.0" standalone="no"?>
<!DOCTYPE svg PUBLIC "-//W3C//DTD SVG 20010904//EN"
 "http://www.w3.org/TR/2001/REC-SVG-20010904/DTD/svg10.dtd">
<svg version="1.0" xmlns="http://www.w3.org/2000/svg"
 width="480.000000pt" height="360.000000pt" viewBox="0 0 480.000000 360.000000"
 preserveAspectRatio="xMidYMid meet">
<metadata>
Created by potrace 1.16, written by Peter Selinger 2001-2019
</metadata>
<rect width="1" height="360" fill="#000000"/>
<rect x="479" width="1" height="360" fill="#000000"/>
<rect width="480" height="1" fill="#000000"/>
<rect y="359" width="480" height="1" fill="#000000"/>
<g transform="translate(0.000000,360.000000) scale(0.100000,-0.100000)"
fill="#000000" stroke="none">
<path d="M0 1800 l0 -1800 230 0 230 0 0 81 c0 120 -20 180 -139 429 -60 124
-123 266 -140 316 -92 271 -136 676 -112 1019 18 255 45 400 123 676 l41 147
-35 43 c-52 65 -32 99 59 99 56 0 183 -37 396 -116 135 -50 187 -75 207 -99
18 -21 26 -24 229 -86 407 -124 711 -212 716 -207 21 22 81 158 111 248 50
155 75 210 141 308 65 97 84 112 138 112 22 0 60 10 85 21 152 70 285 72 388
6 48 -31 222 -202 222 -218 0 -5 -9 -9 -19 -9 -17 0 -18 -5 -14 -41 8 -56 -37
-133 -77 -134 -28 0 -23 -34 9 -53 31 -17 41 -47 20 -54 -7 -2 -13 -17 -15
-33 -1 -17 -10 -52 -20 -80 -9 -27 -19 -56 -21 -63 -2 -8 -12 -16 -23 -19 -11
-3 -20 -9 -20 -12 0 -12 -37 -6 -56 10 -16 13 -17 12 -10 -15 4 -18 3 -32 -4
-36 -21 -13 81 -77 150 -94 73 -19 133 -56 157 -97 20 -33 17 -32 428 -114
222 -44 263 -50 280 -39 17 11 25 11 50 -2 27 -14 30 -14 50 12 18 23 24 25
43 15 12 -6 22 -16 22 -22 0 -7 6 -7 17 0 12 6 24 6 38 -2 11 -6 25 -12 30
-13 6 0 15 -2 21 -2 7 -1 15 -14 19 -29 l7 -28 9 23 c11 29 40 26 54 -6 5 -12
17 -24 25 -27 35 -10 721 -115 755 -115 3 0 5 428 5 950 l0 950 -2400 0 -2400
0 0 -1800z"/>
<path d="M734 2454 c-55 -131 -150 -447 -174 -579 -20 -108 -37 -383 -35 -548
5 -296 26 -377 251 -975 32 -85 30 -113 -15 -242 l-40 -110 499 0 498 0 94
118 c278 346 356 447 425 552 42 63 100 151 130 196 50 75 53 84 47 122 -6 39
-15 49 -150 157 -78 63 -152 130 -163 149 -43 69 -24 158 64 297 52 82 54 88
48 137 -5 45 -2 57 21 92 28 42 28 78 0 100 -10 9 -17 5 -32 -19 -13 -22 -22
-27 -29 -20 -8 8 -13 8 -17 0 -10 -16 -26 -13 -26 4 0 8 -5 15 -11 15 -6 0 -8
9 -3 22 6 20 5 21 -10 9 -9 -7 -16 -23 -16 -35 0 -17 -2 -18 -10 -6 -5 8 -10
30 -10 48 0 40 -16 34 -26 -11 l-7 -32 -8 35 c-4 19 -4 39 -1 45 10 14 30 95
24 95 -8 0 -50 -53 -69 -87 -42 -79 -33 -2 10 82 14 27 24 51 22 53 -2 3 -19
-1 -36 -7 l-33 -11 22 23 22 24 -102 28 c-171 46 -560 162 -796 236 -163 52
-240 71 -284 72 -60 2 -61 1 -74 -29z"/>
<path d="M1871 2356 l-24 -31 28 27 c16 15 27 29 24 31 -2 3 -15 -10 -28 -27z"/>
<path d="M2000 2250 c0 -5 5 -10 10 -10 6 0 10 5 10 10 0 6 -4 10 -10 10 -5 0
-10 -4 -10 -10z"/>
<path d="M2979 1889 c-11 -21 25 -102 69 -154 39 -46 62 -105 62 -160 0 -27 5
-67 10 -87 l11 -37 48 19 c27 10 143 46 257 80 115 34 215 67 222 74 11 10 11
25 1 78 l-12 66 -206 42 c-113 23 -261 54 -329 69 -118 27 -123 27 -133 10z"/>
<path d="M3976 1631 c-54 -84 -147 -169 -222 -205 -76 -36 -388 -162 -478
-192 -85 -29 -156 -30 -215 -4 -24 11 -44 20 -46 20 -2 0 -3 -16 -3 -36 0 -20
-5 -41 -11 -47 -6 -6 -11 -44 -11 -84 l0 -72 45 -44 c46 -46 59 -89 34 -114
-16 -16 48 -135 125 -229 78 -95 166 -240 166 -271 0 -20 -4 -22 -49 -19 -46
2 -49 1 -41 -18 18 -49 80 -276 80 -295 l0 -21 725 0 725 0 0 760 0 759 -37
10 c-46 13 -427 100 -612 139 l-133 29 -42 -66z"/>
<path d="M2315 1440 l-39 -40 49 -50 c56 -57 71 -62 70 -22 -1 37 -28 152 -35
152 -3 0 -24 -18 -45 -40z"/>
</g>
</svg>
