<?xml version="1.0" standalone="no"?>
<!DOCTYPE svg PUBLIC "-//W3C//DTD SVG 20010904//EN"
 "http://www.w3.org/TR/2001/REC-SVG-20010904/DTD/svg10.dtd">
<svg version="1.0" xmlns="http://www.w3.org/2000/svg"
 width="480.000000pt" height="360.000000pt" viewBox="0 0 480.000000 360.000000"
 preserveAspectRatio="xMidYMid meet">
<metadata>
Created by potrace 1.16, written by Peter Selinger 2001-2019
</metadata>
<rect width="1" height="360" fill="#000000"/>
<rect x="479" width="1" height="360" fill="#000000"/>
<rect width="480" height="1" fill="#000000"/>
<rect y="359" width="480" height="1" fill="#000000"/>
<g transform="translate(0.000000,360.000000) scale(0.100000,-0.100000)"
fill="#000000" stroke="none">
<path d="M4784 2488 c-4 -13 -40 -93 -81 -178 -156 -326 -197 -398 -318 -570
-21 -30 -52 -75 -69 -100 -47 -69 -93 -129 -151 -195 -104 -117 -182 -228
-190 -270 -4 -19 -1 -37 8 -49 13 -18 18 -19 57 -7 37 11 46 10 82 -9 72 -38
124 -17 176 71 32 54 54 69 123 85 35 8 79 24 97 34 47 28 80 26 92 -6 16 -41
12 -266 -6 -347 -33 -151 -51 -192 -110 -246 -144 -132 -462 -211 -847 -211
l-169 0 -29 -31 c-37 -40 -48 -93 -25 -132 9 -16 16 -44 16 -63 0 -51 33 -68
129 -66 77 3 281 31 401 57 90 19 269 39 277 32 21 -22 -156 -152 -294 -217
-24 -10 -43 -21 -43 -24 0 -2 16 -13 36 -25 32 -19 50 -21 204 -21 l168 0 49
39 c64 52 172 164 215 226 44 62 96 165 137 270 17 44 42 96 56 117 l25 36 -1
911 c0 501 -1 911 -4 911 -2 0 -7 -10 -11 -22z"/>
<path d="M2334 2453 c-21 -3 -35 -12 -43 -29 -14 -31 -14 -81 -1 -89 6 -4 20
-27 32 -52 17 -36 19 -49 10 -64 -7 -10 -12 -25 -12 -33 0 -7 -7 -19 -16 -27
-30 -24 -55 -88 -44 -108 5 -11 15 -21 22 -23 16 -6 14 -57 -5 -98 -35 -75
-64 -319 -69 -570 l-3 -195 45 -14 c66 -20 74 -25 84 -54 12 -33 9 -35 -56
-57 -70 -23 -81 -42 -45 -77 27 -27 30 -28 140 -28 127 1 190 10 184 28 -2 7
-17 13 -35 15 -40 4 -47 14 -67 91 -20 77 -17 81 73 81 61 0 62 0 62 28 1 72
-73 477 -110 611 -12 41 -18 81 -14 90 12 29 14 274 2 310 -9 29 -8 35 7 44
74 41 71 111 -8 195 -32 33 -47 36 -133 25z"/>
</g>
</svg>
