<?xml version="1.0" standalone="no"?>
<!DOCTYPE svg PUBLIC "-//W3C//DTD SVG 20010904//EN"
 "http://www.w3.org/TR/2001/REC-SVG-20010904/DTD/svg10.dtd">
<svg version="1.0" xmlns="http://www.w3.org/2000/svg"
 width="480.000000pt" height="360.000000pt" viewBox="0 0 480.000000 360.000000"
 preserveAspectRatio="xMidYMid meet">
<metadata>
Created by potrace 1.16, written by Peter Selinger 2001-2019
</metadata>
<rect width="1" height="360" fill="#000000"/>
<rect x="479" width="1" height="360" fill="#000000"/>
<rect width="480" height="1" fill="#000000"/>
<rect y="359" width="480" height="1" fill="#000000"/>
<g transform="translate(0.000000,360.000000) scale(0.100000,-0.100000)"
fill="#000000" stroke="none">
<path d="M0 1800 l0 -1800 2400 0 2400 0 0 1800 0 1800 -2400 0 -2400 0 0
-1800z m1801 853 c14 -45 32 -30 19 17 -12 43 -4 53 11 12 11 -33 24 -41 31
-20 3 9 26 -43 44 -99 2 -7 13 -13 24 -13 17 0 19 -3 8 -19 -14 -22 3 -51 29
-51 10 0 14 -7 10 -19 -4 -16 89 -149 168 -240 27 -31 68 -51 103 -51 34 0
116 -27 156 -51 20 -12 35 -15 51 -9 48 18 147 -31 181 -90 15 -25 29 -31 96
-46 43 -9 83 -23 89 -30 12 -14 18 -128 8 -139 -4 -3 -35 8 -69 25 -34 17 -64
30 -66 27 -6 -5 28 -90 43 -108 7 -8 13 -22 13 -30 0 -24 145 -149 173 -149 5
0 42 -20 81 -45 73 -45 96 -54 96 -35 0 23 18 8 24 -20 6 -35 29 -39 59 -12
19 16 20 16 15 -4 -5 -19 1 -23 47 -33 28 -6 72 -9 96 -5 34 5 41 4 33 -5 -6
-7 -20 -13 -32 -14 -34 -2 -14 -17 24 -17 24 0 34 -4 32 -12 -3 -8 -21 -12
-49 -10 -33 1 -39 -1 -24 -7 11 -5 33 -12 48 -16 32 -6 27 -25 -6 -25 -17 0
-19 -2 -7 -10 27 -17 1 -23 -60 -13 -67 11 -81 -1 -20 -17 54 -14 60 -29 7
-19 -55 11 -57 11 -57 0 0 -5 19 -16 43 -25 41 -16 26 -16 -40 -1 -28 6 -33 5
-33 -11 0 -17 -3 -16 -20 6 -11 14 -20 19 -20 13 0 -25 -27 -12 -69 32 -23 25
-49 45 -57 45 -8 0 -24 12 -37 26 -12 14 -35 33 -52 41 -16 9 -73 44 -126 79
-54 35 -102 64 -108 64 -6 0 -22 -22 -35 -49 -14 -26 -37 -63 -52 -80 -36 -43
-113 -81 -165 -81 -83 0 -420 132 -471 184 -61 63 -97 182 -98 325 0 119 21
181 89 253 l53 58 -23 29 c-13 16 -53 65 -89 110 -37 46 -73 81 -82 81 -10 0
-18 6 -18 14 0 26 -43 65 -110 101 -61 33 -63 35 -30 33 47 -4 49 15 5 80 -45
68 -45 89 0 38 38 -43 46 -38 15 9 -27 41 -27 64 0 40 11 -10 22 -26 25 -36 4
-11 10 -19 15 -19 5 0 2 16 -6 35 -17 41 -17 45 -4 45 5 0 18 -17 29 -37 22
-42 25 -37 12 20 -8 31 -7 36 4 27 8 -7 19 -27 26 -47z"/>
</g>
</svg>
