<?xml version="1.0" standalone="no"?>
<!DOCTYPE svg PUBLIC "-//W3C//DTD SVG 20010904//EN"
 "http://www.w3.org/TR/2001/REC-SVG-20010904/DTD/svg10.dtd">
<svg version="1.0" xmlns="http://www.w3.org/2000/svg"
 width="480.000000pt" height="360.000000pt" viewBox="0 0 480.000000 360.000000"
 preserveAspectRatio="xMidYMid meet">
<metadata>
Created by potrace 1.16, written by Peter Selinger 2001-2019
</metadata>
<rect width="1" height="360" fill="#000000"/>
<rect x="479" width="1" height="360" fill="#000000"/>
<rect width="480" height="1" fill="#000000"/>
<rect y="359" width="480" height="1" fill="#000000"/>
<g transform="translate(0.000000,360.000000) scale(0.100000,-0.100000)"
fill="#000000" stroke="none">
<path d="M2492 3140 c-70 -19 -110 -40 -160 -84 -28 -25 -62 -87 -62 -114 0
-36 -23 -51 -97 -60 -46 -7 -82 -18 -102 -33 -28 -21 -29 -24 -16 -49 7 -14
32 -43 55 -64 41 -37 41 -38 25 -63 -19 -28 -13 -42 10 -23 12 10 11 3 -4 -33
-12 -27 -16 -49 -11 -52 6 -4 10 -14 10 -23 0 -32 58 -132 76 -132 6 0 19 -9
29 -20 18 -20 18 -21 -11 -51 l-29 -30 28 -21 c15 -11 27 -25 27 -31 0 -7 18
-47 40 -91 22 -43 37 -82 35 -86 -2 -4 13 -4 35 0 37 7 39 6 42 -19 l3 -26 20
33 c19 32 37 43 34 20 -5 -40 15 -53 26 -17 9 28 13 22 34 -55 l19 -67 -23
-48 c-18 -36 -33 -52 -64 -65 -22 -11 -47 -29 -56 -42 -8 -13 -47 -49 -86 -80
-45 -37 -79 -74 -94 -103 -12 -25 -32 -54 -43 -64 -20 -18 -21 -18 -30 0 -5
10 -24 61 -42 113 -25 75 -41 103 -74 136 -22 23 -67 69 -100 103 -68 73 -140
116 -215 132 -46 9 -59 8 -92 -7 -50 -22 -88 -85 -91 -148 -1 -41 3 -51 32
-81 38 -39 44 -38 45 8 0 27 4 32 27 35 20 2 38 -7 70 -36 24 -22 62 -49 86
-61 37 -19 41 -24 32 -41 -8 -16 -1 -40 38 -122 27 -57 62 -141 77 -188 69
-212 75 -219 191 -212 45 3 144 68 227 150 41 39 78 72 82 72 4 0 4 -19 1 -43
-6 -39 24 -261 38 -274 5 -6 8 1 19 37 8 30 65 -79 72 -139 4 -31 13 -99 22
-151 40 -259 40 -244 -2 -354 -47 -125 -67 -192 -99 -333 -14 -61 -29 -118
-32 -127 -6 -15 58 -16 694 -16 633 0 702 2 710 16 8 14 12 14 30 3 19 -12 24
-10 49 13 19 18 35 26 49 22 12 -3 31 3 47 16 25 20 27 27 27 99 0 99 -28 210
-81 318 -22 46 -37 88 -34 93 5 8 -17 65 -42 111 -2 4 20 20 49 37 113 64 179
164 198 295 23 157 -40 297 -235 522 -47 55 -138 179 -202 275 -163 246 -204
295 -293 352 -73 47 -74 48 -41 48 46 0 33 10 -31 25 -31 7 -52 17 -50 24 3
14 -56 41 -75 34 -7 -3 -13 0 -13 5 0 6 9 14 21 17 11 4 18 13 15 20 -3 8 11
17 42 26 26 7 50 17 53 22 3 5 41 13 83 18 42 5 89 15 104 21 15 6 30 11 35
10 4 -1 7 3 7 9 0 7 -10 9 -27 4 -20 -4 -25 -3 -18 4 6 6 38 16 70 22 90 16
94 18 67 33 -16 8 -19 15 -11 23 7 7 1 12 -23 17 -29 7 -31 9 -13 16 19 9 19
9 -2 16 -13 3 -23 10 -23 15 0 5 -12 9 -26 9 -30 0 -60 14 -94 45 -41 37 -223
140 -312 176 -69 29 -87 41 -112 78 -64 93 -97 121 -200 171 -106 51 -201 80
-257 79 -19 0 -67 -9 -107 -19z m406 -1184 c6 -27 -12 -18 -31 16 l-18 31 23
-15 c13 -9 24 -23 26 -32z m653 -1312 c35 -6 39 -11 89 -115 34 -70 58 -109
69 -110 12 0 11 -3 -5 -11 -12 -5 -27 -27 -34 -49 -7 -21 -16 -39 -19 -39 -3
0 -33 51 -66 112 -33 61 -82 136 -109 165 l-48 53 43 0 c24 0 60 -3 80 -6z
m199 -208 c0 -3 -4 -8 -10 -11 -5 -3 -10 -1 -10 4 0 6 5 11 10 11 6 0 10 -2
10 -4z"/>
</g>
</svg>
