<?xml version="1.0" standalone="no"?>
<!DOCTYPE svg PUBLIC "-//W3C//DTD SVG 20010904//EN"
 "http://www.w3.org/TR/2001/REC-SVG-20010904/DTD/svg10.dtd">
<svg version="1.0" xmlns="http://www.w3.org/2000/svg"
 width="480.000000pt" height="360.000000pt" viewBox="0 0 480.000000 360.000000"
 preserveAspectRatio="xMidYMid meet">
<metadata>
Created by potrace 1.16, written by Peter Selinger 2001-2019
</metadata>
<rect width="1" height="360" fill="#000000"/>
<rect x="479" width="1" height="360" fill="#000000"/>
<rect width="480" height="1" fill="#000000"/>
<rect y="359" width="480" height="1" fill="#000000"/>
<g transform="translate(0.000000,360.000000) scale(0.100000,-0.100000)"
fill="#000000" stroke="none">
<path d="M3127 3539 c-19 -24 -41 -35 -104 -53 -112 -32 -204 -100 -314 -233
-58 -70 -62 -86 -17 -62 22 12 21 8 -14 -43 -26 -37 -22 -46 7 -18 26 24 32
21 16 -8 -5 -9 -11 -44 -15 -77 -6 -58 -6 -59 9 -32 21 37 29 34 22 -8 -3 -19
-2 -35 4 -35 5 0 10 -10 10 -22 1 -21 2 -21 6 -3 4 14 9 6 18 -30 7 -27 11
-54 8 -58 -3 -5 -25 -17 -50 -28 -38 -16 -43 -22 -38 -41 4 -13 14 -31 23 -41
13 -15 14 -23 4 -49 -8 -22 -8 -36 -1 -51 6 -11 13 -45 15 -76 2 -31 6 -68 10
-83 6 -31 46 -61 68 -52 9 3 27 3 41 0 21 -5 24 -10 15 -26 -14 -26 -13 -33 6
-26 12 5 14 1 9 -15 -8 -23 3 -20 38 9 16 14 17 12 17 -34 0 -68 -8 -90 -36
-103 -17 -7 -24 -19 -24 -38 -1 -22 -17 -41 -77 -93 -103 -87 -236 -221 -273
-275 -33 -48 -38 -64 -15 -45 13 11 14 8 9 -21 -4 -24 -3 -30 4 -20 9 12 42
25 42 16 0 -1 -26 -56 -57 -121 l-58 -119 -3 -111 c-4 -101 -1 -123 32 -254
39 -155 38 -164 -18 -149 -17 4 -58 13 -91 20 -33 6 -94 21 -135 31 -41 11
-119 28 -172 38 -54 11 -117 28 -141 38 -38 17 -46 26 -64 75 -16 45 -18 57
-7 61 19 7 17 37 -5 65 -24 31 -18 83 15 127 21 28 21 32 7 47 -17 17 -10 39
12 31 20 -8 55 14 55 36 0 10 6 20 13 23 8 2 1 26 -26 78 -20 41 -37 81 -37
90 0 22 -38 69 -55 69 -8 0 -18 -8 -24 -17 -7 -14 -25 -18 -81 -20 -155 -4
-208 -77 -241 -332 -10 -80 -28 -177 -39 -216 -59 -204 -65 -235 -63 -375 2
-141 14 -213 43 -264 10 -17 23 -48 30 -69 7 -22 17 -36 24 -34 36 14 32 -22
-25 -259 -32 -131 -59 -242 -59 -246 0 -5 182 -8 405 -8 322 0 405 3 405 13 0
12 -23 102 -89 350 -45 168 -73 305 -66 317 11 17 68 11 131 -13 32 -13 119
-50 192 -82 102 -44 136 -64 143 -82 11 -30 -20 -225 -61 -380 -17 -62 -30
-114 -30 -117 0 -4 275 -6 610 -6 l610 0 -41 83 c-23 45 -95 168 -160 272 -94
152 -119 200 -123 235 -2 25 -14 70 -26 100 -44 109 -64 350 -38 460 l12 52
38 -5 37 -5 -14 29 c-40 77 -27 177 30 222 42 33 68 81 60 107 -4 14 -2 20 8
20 9 0 17 6 20 13 2 6 4 -12 3 -42 -1 -35 3 -55 12 -58 7 -3 11 3 10 14 -2 10
-1 18 2 18 18 2 50 44 50 66 0 36 -95 409 -113 446 -8 15 -17 42 -21 58 -5 24
-1 21 19 -17 16 -31 30 -45 39 -42 8 3 16 -4 20 -20 8 -32 26 -34 26 -3 0 17
2 19 10 7 7 -11 12 -12 20 -4 19 19 47 4 75 -38 31 -47 45 -39 45 28 0 38 2
41 29 41 25 0 31 -6 42 -39 15 -48 31 -60 23 -18 -5 23 -3 30 10 30 9 0 16 -4
16 -10 0 -5 5 -10 11 -10 8 0 9 12 4 37 -6 34 -5 36 11 22 15 -13 16 -12 9 11
-4 14 -14 37 -21 52 -8 15 -14 30 -14 34 0 14 29 -19 36 -39 10 -34 23 -45 45
-40 14 4 17 9 9 18 -6 7 -10 26 -10 41 0 16 -2 44 -6 62 -6 33 3 41 24 20 8
-8 12 -8 12 -1 0 6 -7 16 -16 23 -8 8 -20 23 -25 34 -10 20 -10 20 5 2 31 -38
25 -9 -14 69 -25 52 -39 94 -40 120 0 22 20 103 43 180 58 185 61 223 37 386
-27 180 -56 240 -159 334 -121 110 -265 175 -391 175 -37 0 -59 6 -77 20 -37
29 -67 25 -96 -11z m-350 -621 c-3 -8 -6 -5 -6 6 -1 11 2 17 5 13 3 -3 4 -12
1 -19z m-1260 -2330 c-3 -8 -6 -5 -6 6 -1 11 2 17 5 13 3 -3 4 -12 1 -19z"/>
</g>
</svg>
