<?xml version="1.0" standalone="no"?>
<!DOCTYPE svg PUBLIC "-//W3C//DTD SVG 20010904//EN"
 "http://www.w3.org/TR/2001/REC-SVG-20010904/DTD/svg10.dtd">
<svg version="1.0" xmlns="http://www.w3.org/2000/svg"
 width="480.000000pt" height="360.000000pt" viewBox="0 0 480.000000 360.000000"
 preserveAspectRatio="xMidYMid meet">
<metadata>
Created by potrace 1.16, written by Peter Selinger 2001-2019
</metadata>
<rect width="1" height="360" fill="#000000"/>
<rect x="479" width="1" height="360" fill="#000000"/>
<rect width="480" height="1" fill="#000000"/>
<rect y="359" width="480" height="1" fill="#000000"/>
<g transform="translate(0.000000,360.000000) scale(0.100000,-0.100000)"
fill="#000000" stroke="none">
<path d="M0 1800 l0 -1800 373 0 372 1 44 62 c272 380 347 481 376 504 18 16
40 45 49 66 17 42 17 41 226 294 83 100 156 186 164 190 7 4 19 18 25 31 16
30 69 62 102 62 15 0 45 -6 67 -14 38 -14 43 -13 67 6 15 12 43 27 63 34 l37
12 21 130 c12 71 31 158 43 193 11 34 21 72 21 82 0 11 -23 87 -50 168 -28 82
-53 175 -56 207 -6 58 -6 60 30 95 27 27 45 37 69 37 41 0 85 -29 113 -75 l22
-37 6 28 c18 88 28 227 35 459 5 172 12 269 20 285 14 28 69 70 93 70 22 0 35
-19 59 -86 19 -52 22 -91 29 -342 4 -156 12 -288 17 -293 6 -6 37 48 82 138
129 261 196 358 300 432 54 38 88 41 97 7 8 -32 -8 -80 -66 -196 -77 -155
-149 -326 -196 -469 -24 -74 -43 -135 -41 -137 1 -2 72 67 157 152 162 163
212 205 295 247 71 37 99 42 119 22 9 -9 16 -20 16 -25 0 -25 -110 -166 -188
-242 -75 -73 -189 -222 -208 -273 -3 -8 47 7 123 37 70 27 161 59 202 69 80
20 177 25 201 9 42 -27 -67 -115 -215 -176 -49 -20 -138 -63 -198 -97 -96 -54
-108 -64 -117 -96 -5 -20 -10 -46 -10 -57 0 -31 -58 -220 -82 -268 -52 -103
-170 -255 -233 -297 -39 -27 -43 -40 -18 -60 9 -8 66 -70 126 -139 165 -188
269 -345 292 -442 6 -23 1 -33 -26 -57 l-32 -30 16 -38 c28 -67 39 -114 35
-149 l-4 -34 968 0 968 0 0 1385 0 1385 -39 0 c-24 0 -51 9 -75 25 -20 14 -51
32 -69 41 -17 9 -53 36 -79 61 -25 25 -50 43 -56 39 -10 -6 -192 182 -240 249
-16 22 -35 55 -43 73 -8 17 -17 32 -20 32 -4 0 -12 21 -19 48 -8 26 -16 49
-19 52 -22 19 -51 107 -51 155 l0 55 -2045 0 -2045 0 0 -1800z"/>
</g>
</svg>
