<?xml version="1.0" standalone="no"?>
<!DOCTYPE svg PUBLIC "-//W3C//DTD SVG 20010904//EN"
 "http://www.w3.org/TR/2001/REC-SVG-20010904/DTD/svg10.dtd">
<svg version="1.0" xmlns="http://www.w3.org/2000/svg"
 width="480.000000pt" height="360.000000pt" viewBox="0 0 480.000000 360.000000"
 preserveAspectRatio="xMidYMid meet">
<metadata>
Created by potrace 1.16, written by Peter Selinger 2001-2019
</metadata>
<rect width="1" height="360" fill="#000000"/>
<rect x="479" width="1" height="360" fill="#000000"/>
<rect width="480" height="1" fill="#000000"/>
<rect y="359" width="480" height="1" fill="#000000"/>
<g transform="translate(0.000000,360.000000) scale(0.100000,-0.100000)"
fill="#000000" stroke="none">
<path d="M0 1800 l0 -1800 149 0 148 0 7 143 c3 78 8 162 11 186 8 71 -21 178
-94 354 -123 293 -160 435 -187 707 -26 264 -3 633 56 902 25 111 87 312 142
460 l40 107 -31 38 c-36 43 -39 63 -13 86 40 36 134 15 348 -78 161 -70 276
-130 299 -155 11 -12 31 -28 45 -35 42 -21 467 -181 760 -286 l275 -98 23 22
23 21 -22 8 c-20 8 -20 10 -7 26 9 9 19 28 23 42 4 14 14 34 21 45 21 29 17
35 -20 35 -18 0 -45 9 -59 20 -14 11 -29 20 -34 19 -30 -5 -73 2 -67 12 3 6 1
15 -6 19 -9 6 -7 10 9 15 11 3 21 10 21 15 0 5 26 28 58 51 31 23 107 93 167
154 61 62 128 126 150 142 54 41 212 123 236 123 11 0 37 -9 57 -19 59 -31 83
-39 162 -55 187 -40 280 -144 325 -362 8 -43 18 -88 22 -98 4 -15 1 -18 -15
-14 -17 5 -25 -2 -43 -38 -11 -24 -27 -44 -35 -44 -8 0 -14 -5 -14 -11 0 -6
-6 -9 -13 -6 -7 3 -24 -3 -37 -13 -17 -13 -28 -15 -36 -9 -21 17 -26 -9 -8
-43 13 -26 14 -33 3 -37 -7 -2 -24 -16 -38 -30 -58 -58 -131 -110 -146 -105
-8 3 -15 2 -15 -4 0 -14 58 -62 76 -62 28 0 107 -44 139 -77 30 -31 54 -40
222 -88 327 -92 493 -134 499 -124 9 14 41 10 59 -7 15 -15 18 -15 39 5 26 25
54 27 63 5 4 -11 13 -13 34 -9 21 5 31 2 35 -9 4 -9 13 -15 22 -14 9 2 22 -9
30 -25 14 -28 14 -28 28 -8 18 25 40 18 52 -17 7 -23 20 -28 148 -58 76 -18
258 -58 404 -89 146 -31 275 -58 288 -60 l22 -5 0 1015 0 1015 -2400 0 -2400
0 0 -1800z"/>
<path d="M739 2592 c-50 -113 -149 -364 -172 -438 -92 -293 -132 -825 -79
-1057 32 -140 57 -230 115 -417 70 -224 70 -254 0 -411 -29 -63 -59 -142 -68
-174 -27 -105 -63 -95 330 -95 190 0 345 4 345 9 0 17 229 234 316 299 49 37
186 128 304 201 223 139 303 195 357 253 74 79 183 223 178 236 -3 7 -5 26 -5
41 0 22 -23 46 -135 139 -74 62 -143 125 -153 140 -11 17 -17 46 -17 87 0 71
21 120 101 231 49 68 52 76 43 104 -13 37 2 88 36 120 22 20 23 28 18 90 -4
49 -1 81 11 116 13 38 13 49 4 56 -20 12 -25 10 -48 -22 -24 -33 -42 -39 -39
-12 3 38 0 45 -16 32 -8 -7 -25 -10 -37 -7 -15 4 -30 -1 -45 -15 -14 -13 -23
-17 -23 -9 0 8 -6 11 -16 7 -13 -5 -15 -1 -11 16 5 18 0 26 -18 35 -14 6 -23
7 -19 2 3 -5 -2 -6 -11 -3 -12 5 -13 10 -6 17 6 6 11 22 11 35 l0 23 -26 -28
c-14 -15 -23 -23 -20 -16 9 17 -11 63 -28 63 -9 0 -30 7 -48 15 -18 8 -116 44
-218 81 -102 36 -315 117 -475 179 -218 84 -306 113 -352 117 l-63 6 -21 -46z"/>
<path d="M2367 2247 c-16 -21 -23 -38 -17 -42 5 -3 10 -2 10 4 0 6 9 19 21 30
12 11 19 25 17 31 -2 7 -16 -4 -31 -23z"/>
<path d="M2906 1905 c-13 -34 -6 -48 91 -197 44 -69 58 -127 44 -183 -8 -30
-8 -52 -2 -64 10 -18 12 -18 63 0 30 10 141 41 248 69 117 31 202 58 213 69
16 15 17 26 10 77 l-8 59 -55 17 c-30 9 -170 49 -310 88 -140 40 -262 74 -271
77 -9 3 -19 -3 -23 -12z"/>
<path d="M3892 1601 c-29 -50 -93 -117 -154 -159 -52 -36 -166 -83 -413 -172
-224 -81 -257 -87 -322 -62 l-51 19 -11 -24 c-6 -13 -11 -56 -11 -95 0 -70 0
-71 45 -119 45 -48 56 -84 34 -106 -17 -17 48 -143 112 -217 88 -103 186 -266
173 -287 -4 -7 -25 -10 -56 -7 -47 5 -49 4 -43 -16 3 -12 25 -96 48 -188 l42
-168 758 0 757 0 0 690 0 689 -147 46 c-82 26 -159 50 -173 55 -59 21 -544
160 -558 160 -5 0 -18 -18 -30 -39z"/>
<path d="M2285 1460 l-39 -40 44 -45 c42 -43 45 -44 52 -24 7 18 -5 135 -15
145 -2 2 -21 -14 -42 -36z"/>
</g>
</svg>
