<?xml version="1.0" standalone="no"?>
<!DOCTYPE svg PUBLIC "-//W3C//DTD SVG 20010904//EN"
 "http://www.w3.org/TR/2001/REC-SVG-20010904/DTD/svg10.dtd">
<svg version="1.0" xmlns="http://www.w3.org/2000/svg"
 width="480.000000pt" height="360.000000pt" viewBox="0 0 480.000000 360.000000"
 preserveAspectRatio="xMidYMid meet">
<metadata>
Created by potrace 1.16, written by Peter Selinger 2001-2019
</metadata>
<rect width="1" height="360" fill="#000000"/>
<rect x="479" width="1" height="360" fill="#000000"/>
<rect width="480" height="1" fill="#000000"/>
<rect y="359" width="480" height="1" fill="#000000"/>
<g transform="translate(0.000000,360.000000) scale(0.100000,-0.100000)"
fill="#000000" stroke="none">
<path d="M1278 3583 c-25 -29 -34 -53 -62 -165 -44 -177 -58 -459 -31 -623 17
-104 17 -105 -4 -140 -11 -20 -21 -47 -21 -60 0 -17 -17 -35 -67 -71 -70 -50
-253 -225 -253 -242 0 -6 -37 -43 -82 -82 -105 -92 -185 -181 -304 -335 -93
-122 -169 -267 -244 -465 -92 -243 -119 -404 -127 -750 -4 -195 -2 -272 11
-375 16 -124 41 -264 49 -272 2 -2 270 -2 596 -1 l591 3 -109 67 c-209 130
-325 267 -412 488 -112 286 -154 516 -166 900 -5 166 -3 225 11 313 26 165 52
233 144 373 60 94 64 97 115 114 29 9 46 24 65 57 45 75 105 149 155 193 40
35 47 47 47 78 1 48 23 73 101 112 80 41 283 100 342 100 186 0 447 -105 577
-233 170 -166 255 -340 270 -552 9 -130 1 -190 -45 -334 -45 -142 -49 -168
-35 -253 23 -144 42 -205 109 -343 66 -136 71 -143 169 -238 85 -81 117 -105
194 -142 51 -25 111 -55 133 -67 32 -17 68 -23 185 -30 91 -5 162 -5 190 1 25
6 65 13 90 17 57 8 198 53 206 65 8 14 21 11 29 -8 12 -32 34 -166 44 -269 6
-55 17 -114 26 -130 8 -16 15 -34 15 -40 0 -6 10 -26 23 -45 20 -29 71 -169
64 -175 -1 -1 -42 -6 -92 -12 -68 -7 49 -10 468 -11 l557 -1 0 1800 0 1800
-75 0 c-41 0 -75 -3 -75 -7 0 -5 12 -75 25 -158 39 -226 45 -575 16 -810 -44
-345 -92 -522 -208 -769 -102 -218 -129 -262 -295 -481 -67 -90 -190 -216
-281 -289 -51 -40 -70 -43 -43 -5 8 13 13 32 11 43 -3 13 12 54 39 106 122
233 177 376 203 530 22 134 22 517 -1 655 -36 216 -116 429 -215 570 -93 133
-255 301 -386 401 -79 61 -231 162 -282 188 l-52 26 -944 0 c-886 0 -945 -1
-959 -17z m1885 -1620 c32 -9 69 -27 82 -39 23 -22 25 -30 25 -121 0 -156 -39
-292 -91 -319 -25 -13 -36 -11 -111 13 -132 43 -203 105 -263 235 -37 78 -31
121 21 175 20 20 126 64 174 72 53 9 84 6 163 -16z"/>
<path d="M1480 1952 c-63 -24 -83 -68 -82 -173 2 -144 56 -265 136 -303 89
-42 289 47 368 163 35 51 18 88 -63 139 -19 11 -40 30 -47 41 -7 12 -21 21
-32 21 -11 0 -59 29 -105 65 -48 37 -95 65 -108 64 -12 0 -42 -8 -67 -17z"/>
</g>
</svg>
