<?xml version="1.0" standalone="no"?>
<!DOCTYPE svg PUBLIC "-//W3C//DTD SVG 20010904//EN"
 "http://www.w3.org/TR/2001/REC-SVG-20010904/DTD/svg10.dtd">
<svg version="1.0" xmlns="http://www.w3.org/2000/svg"
 width="480.000000pt" height="360.000000pt" viewBox="0 0 480.000000 360.000000"
 preserveAspectRatio="xMidYMid meet">
<metadata>
Created by potrace 1.16, written by Peter Selinger 2001-2019
</metadata>
<rect width="1" height="360" fill="#000000"/>
<rect x="479" width="1" height="360" fill="#000000"/>
<rect width="480" height="1" fill="#000000"/>
<rect y="359" width="480" height="1" fill="#000000"/>
<g transform="translate(0.000000,360.000000) scale(0.100000,-0.100000)"
fill="#000000" stroke="none">
<path d="M0 1800 l0 -1800 820 0 c451 0 820 2 820 4 0 1 -34 73 -75 158 -133
277 -207 520 -264 873 -111 686 -64 1309 153 2015 l36 115 -22 18 c-62 51 -85
75 -91 91 -11 28 19 85 50 97 15 6 36 15 45 20 26 13 55 11 164 -11 286 -59
784 -204 853 -248 14 -10 35 -27 46 -39 17 -19 102 -42 510 -137 270 -63 555
-128 635 -146 80 -17 183 -40 230 -50 108 -24 187 -35 178 -25 -4 5 -3 14 2
20 6 7 15 53 21 101 5 49 14 105 19 125 20 75 119 265 164 316 49 55 141 108
205 118 68 11 81 15 81 26 0 9 44 80 86 137 l16 22 -2341 0 -2341 0 0 -1800z"/>
<path d="M2480 2910 c-9 -6 -41 -8 -75 -4 l-60 6 -62 -174 c-170 -473 -222
-689 -243 -1018 -30 -474 -11 -832 60 -1105 37 -140 53 -187 148 -422 l77
-193 1132 0 1132 0 67 98 c37 53 71 99 74 102 3 3 21 26 38 52 l32 47 0 214 0
214 -92 85 c-51 47 -157 148 -235 225 -159 158 -170 177 -158 288 12 114 50
172 249 384 95 101 114 126 104 138 -6 8 -12 45 -13 82 -2 82 -10 99 -36 75
-18 -16 -19 -16 -19 11 0 28 0 28 -20 10 -11 -10 -23 -37 -27 -59 -5 -32 -8
-36 -14 -21 -6 19 -8 18 -17 -5 -10 -23 -11 -22 -11 14 l-1 40 -31 -42 c-33
-45 -50 -54 -42 -21 3 11 0 32 -8 45 -10 19 -10 29 -1 44 9 14 8 19 -3 24 -10
3 -15 20 -15 45 0 34 -3 39 -17 34 -10 -4 -14 -2 -10 4 4 6 0 13 -8 16 -12 5
-11 13 6 52 14 31 18 56 14 75 -5 24 0 37 26 68 41 49 64 118 42 126 -32 13
-51 3 -118 -58 -38 -35 -83 -72 -99 -82 -27 -16 -29 -16 -23 -1 9 24 1 21 -54
-19 -27 -20 -49 -31 -49 -25 0 5 5 13 10 16 15 9 12 25 -3 19 -7 -2 -21 4 -30
14 -13 15 -15 25 -8 48 5 16 11 59 13 97 l4 67 -36 10 c-19 5 -107 25 -195 45
-402 92 -477 109 -1014 241 -188 46 -348 84 -355 84 -6 0 -18 -5 -26 -10z"/>
<path d="M4735 1372 c-33 -24 -61 -47 -63 -52 -2 -4 25 -40 60 -78 l63 -71 3
65 c2 36 2 91 0 123 l-3 57 -60 -44z"/>
</g>
</svg>
