<?xml version="1.0" standalone="no"?>
<!DOCTYPE svg PUBLIC "-//W3C//DTD SVG 20010904//EN"
 "http://www.w3.org/TR/2001/REC-SVG-20010904/DTD/svg10.dtd">
<svg version="1.0" xmlns="http://www.w3.org/2000/svg"
 width="480.000000pt" height="360.000000pt" viewBox="0 0 480.000000 360.000000"
 preserveAspectRatio="xMidYMid meet">
<metadata>
Created by potrace 1.16, written by Peter Selinger 2001-2019
</metadata>
<rect width="1" height="360" fill="#000000"/>
<rect x="479" width="1" height="360" fill="#000000"/>
<rect width="480" height="1" fill="#000000"/>
<rect y="359" width="480" height="1" fill="#000000"/>
<g transform="translate(0.000000,360.000000) scale(0.100000,-0.100000)"
fill="#000000" stroke="none">
<path d="M2232 3323 c-44 -15 -92 -70 -92 -105 0 -10 -13 -24 -30 -33 -41 -21
-65 -69 -51 -104 5 -14 13 -50 16 -79 5 -36 18 -69 42 -105 30 -45 34 -57 29
-92 l-6 -40 20 25 c19 25 20 25 20 3 0 -30 48 -63 60 -42 7 11 12 11 21 2 17
-17 -44 -78 -109 -108 -29 -13 -55 -30 -58 -38 -3 -8 -16 -14 -28 -14 -23 0
-101 -47 -123 -75 -7 -7 -13 -33 -15 -56 -2 -23 -7 -43 -13 -43 -5 -1 -9 13
-7 30 3 23 -3 37 -24 56 -15 14 -34 25 -42 25 -26 0 -90 -50 -112 -87 -25 -43
-25 -47 3 -77 13 -13 36 -51 52 -83 40 -81 52 -93 94 -93 32 0 47 12 168 135
73 74 137 135 143 135 5 0 10 -19 10 -42 0 -24 11 -79 25 -123 14 -44 27 -111
29 -150 2 -38 7 -82 11 -96 4 -15 -2 -49 -14 -85 -10 -32 -25 -90 -31 -129
-18 -111 -75 -245 -186 -440 -12 -22 -33 -58 -45 -80 -27 -51 -115 -186 -212
-329 -50 -73 -69 -126 -62 -173 5 -38 12 -46 52 -70 25 -14 53 -27 62 -28 9 0
22 -5 29 -9 7 -4 25 -5 39 -2 13 4 30 2 37 -3 6 -6 32 -14 57 -20 24 -6 65
-19 91 -31 l47 -20 -19 -63 c-10 -34 -35 -109 -57 -167 -30 -81 -44 -107 -63
-116 -93 -43 -121 -59 -133 -78 -8 -11 -24 -32 -36 -45 -14 -17 -21 -38 -21
-67 0 -39 4 -45 32 -60 70 -36 249 7 333 81 31 27 35 36 37 90 2 39 9 69 21
86 10 14 20 32 21 40 2 8 6 21 9 29 29 72 57 156 54 164 -2 6 12 38 33 71 33
55 40 61 81 68 24 4 78 14 119 22 41 7 99 17 128 20 l53 7 -7 35 c-5 28 -4 35
7 31 8 -3 46 10 85 28 l71 32 27 -29 c16 -16 38 -29 52 -29 32 0 64 33 64 68
0 38 4 42 103 91 73 36 92 51 108 82 25 50 24 65 -7 118 -21 38 -23 49 -14 72
16 37 -2 70 -84 155 -54 56 -68 66 -90 62 -22 -4 -35 4 -82 54 -62 68 -104
146 -174 326 -27 69 -63 143 -81 164 -17 22 -29 41 -28 42 2 2 29 11 59 20 30
10 61 20 68 22 8 4 20 -12 34 -43 11 -26 25 -49 29 -51 5 -2 4 -13 -2 -24 -6
-11 -9 -35 -6 -53 3 -18 1 -37 -5 -43 -18 -18 -4 -56 25 -66 23 -8 36 -6 73
14 25 14 50 33 55 42 11 20 4 65 -21 134 -12 31 -15 55 -9 61 5 5 -6 34 -29
74 -36 60 -38 70 -34 126 4 55 1 68 -32 129 -27 52 -33 71 -24 81 27 33 -64
195 -113 201 -20 2 -31 13 -44 42 -10 22 -37 59 -60 82 -33 34 -44 53 -49 91
-8 52 2 60 31 25 33 -42 81 -75 104 -73 23 2 24 5 21 71 -3 92 -20 172 -43
211 -26 41 -86 95 -127 112 -17 7 -32 17 -32 21 0 20 -57 73 -101 95 -57 29
-139 32 -207 8z"/>
</g>
</svg>
