<?xml version="1.0" standalone="no"?>
<!DOCTYPE svg PUBLIC "-//W3C//DTD SVG 20010904//EN"
 "http://www.w3.org/TR/2001/REC-SVG-20010904/DTD/svg10.dtd">
<svg version="1.0" xmlns="http://www.w3.org/2000/svg"
 width="480.000000pt" height="360.000000pt" viewBox="0 0 480.000000 360.000000"
 preserveAspectRatio="xMidYMid meet">
<metadata>
Created by potrace 1.16, written by Peter Selinger 2001-2019
</metadata>
<rect width="1" height="360" fill="#000000"/>
<rect x="479" width="1" height="360" fill="#000000"/>
<rect width="480" height="1" fill="#000000"/>
<rect y="359" width="480" height="1" fill="#000000"/>
<g transform="translate(0.000000,360.000000) scale(0.100000,-0.100000)"
fill="#000000" stroke="none">
<path d="M0 1800 l0 -1800 1164 0 1163 0 32 153 c17 83 40 193 51 242 11 50
20 113 20 142 0 52 0 52 -42 71 -24 11 -46 18 -49 16 -3 -2 -48 -62 -99 -134
-51 -72 -117 -156 -146 -186 -48 -49 -57 -54 -96 -54 -46 0 -81 18 -98 50 -14
27 12 99 68 185 79 123 131 182 174 199 36 15 39 19 33 45 -4 19 -1 32 10 41
8 7 15 20 15 30 0 9 11 22 25 28 14 7 25 20 25 31 0 11 9 25 20 31 15 8 19 17
14 36 -3 13 -1 30 5 38 17 21 61 109 56 114 -2 2 -24 7 -48 9 -33 4 -75 -4
-153 -27 -71 -21 -110 -28 -112 -21 -2 6 -11 11 -20 11 -9 0 -25 7 -36 15 -10
8 -44 19 -75 26 -31 6 -74 20 -96 31 -33 17 -172 132 -210 174 -14 15 -158
131 -228 184 -44 33 -61 40 -69 32 -16 -16 -45 -15 -51 1 -4 9 -6 9 -6 0 -1
-15 -37 -18 -45 -4 -3 5 -28 14 -55 21 l-49 12 -113 -73 c-63 -40 -139 -88
-169 -107 -30 -19 -72 -46 -92 -59 -21 -14 -44 -23 -51 -20 -19 7 -52 134 -39
150 7 8 6 29 -1 65 -9 42 -8 55 2 61 10 6 10 17 1 51 -6 23 -8 49 -4 59 4 9
13 66 20 126 14 129 33 226 45 240 5 5 9 23 9 40 0 16 6 42 14 57 8 15 17 42
21 60 4 18 16 52 26 75 11 23 19 46 19 50 0 17 112 227 152 286 82 119 187
237 240 270 35 22 34 24 48 -183 6 -91 14 -174 17 -185 4 -11 6 -33 6 -50 l-1
-30 10 26 c9 21 20 28 50 33 23 4 46 1 57 -6 16 -9 27 -8 60 6 76 35 93 6 63
-103 -12 -42 -29 -116 -37 -166 -8 -49 -24 -128 -35 -175 l-19 -85 27 -23 c42
-36 108 -79 131 -87 28 -9 27 -42 -4 -87 l-25 -38 97 -72 c133 -98 365 -249
372 -242 3 3 -1 9 -9 14 -28 17 -2 20 101 9 57 -6 111 -11 120 -11 31 1 133
22 140 30 4 4 9 23 11 42 3 35 3 35 -52 48 -30 8 -59 17 -63 21 -16 15 154
140 219 161 l34 12 0 87 c0 49 -3 115 -6 148 l-6 59 -83 47 c-45 25 -99 52
-121 59 -34 11 -40 19 -52 60 -7 26 -26 61 -43 79 -26 28 -28 34 -15 48 25 29
29 61 11 81 -16 17 -15 23 3 89 10 39 16 71 12 71 -4 0 -25 -14 -46 -30 -72
-58 -112 -27 -74 57 35 79 140 153 280 198 30 10 57 19 59 21 2 2 -7 24 -19
49 -14 28 -26 79 -31 127 -12 122 -38 141 -145 109 -86 -27 -127 -26 -192 4
-104 48 -213 179 -263 314 -12 35 -25 58 -27 50 -6 -19 -23 -29 -47 -29 -15 0
-31 22 -65 85 l-45 85 -787 0 -788 0 0 -1800z"/>
<path d="M1784 3563 c13 -57 114 -113 200 -113 l41 1 -30 25 c-28 23 -196 114
-211 114 -3 0 -3 -12 0 -27z"/>
<path d="M2060 3385 c-43 -24 -104 -28 -161 -11 -29 8 -54 14 -56 13 -1 -2 8
-23 20 -47 50 -99 195 -220 265 -220 41 0 152 34 152 46 0 20 -95 157 -136
197 -43 41 -48 43 -84 22z"/>
<path d="M2394 3018 c10 -65 56 -178 72 -178 8 0 14 4 14 9 0 5 23 35 51 66
29 30 50 58 47 60 -6 6 -177 85 -184 85 -4 0 -4 -19 0 -42z"/>
<path d="M2354 2736 c-89 -29 -169 -72 -200 -109 -37 -44 -29 -51 19 -18 39
27 151 84 236 122 58 26 21 29 -55 5z"/>
<path d="M2335 2653 c-69 -36 -70 -37 -39 -43 17 -4 36 -10 43 -14 14 -9 81
31 81 49 0 7 3 20 6 29 9 24 -13 19 -91 -21z"/>
<path d="M3520 2331 c0 -5 15 -69 34 -142 26 -101 39 -135 52 -137 20 -5 247
18 254 24 7 7 -94 96 -185 163 -91 67 -155 105 -155 92z"/>
<path d="M3713 2016 c-56 -6 -104 -14 -108 -17 -3 -4 3 -71 14 -150 11 -79 23
-182 27 -229 3 -47 28 -206 55 -355 26 -148 59 -336 73 -417 30 -170 54 -253
179 -595 l91 -253 378 0 378 0 0 745 0 745 -32 0 c-18 0 -78 -7 -133 -15 -138
-20 -205 -19 -277 6 -148 50 -300 198 -302 294 -1 17 -6 29 -11 28 -6 -1 -10
22 -10 55 0 56 -2 59 -49 102 -83 77 -83 77 -273 56z"/>
<path d="M4074 1887 c17 -107 113 -250 211 -312 99 -63 183 -77 325 -55 136
21 131 11 48 97 -106 109 -105 109 -179 153 -87 53 -206 103 -320 134 l-91 25
6 -42z"/>
</g>
</svg>
