<?xml version="1.0" standalone="no"?>
<!DOCTYPE svg PUBLIC "-//W3C//DTD SVG 20010904//EN"
 "http://www.w3.org/TR/2001/REC-SVG-20010904/DTD/svg10.dtd">
<svg version="1.0" xmlns="http://www.w3.org/2000/svg"
 width="480.000000pt" height="360.000000pt" viewBox="0 0 480.000000 360.000000"
 preserveAspectRatio="xMidYMid meet">
<metadata>
Created by potrace 1.16, written by Peter Selinger 2001-2019
</metadata>
<rect width="1" height="360" fill="#000000"/>
<rect x="479" width="1" height="360" fill="#000000"/>
<rect width="480" height="1" fill="#000000"/>
<rect y="359" width="480" height="1" fill="#000000"/>
<g transform="translate(0.000000,360.000000) scale(0.100000,-0.100000)"
fill="#000000" stroke="none">
<path d="M0 1800 l0 -1800 403 0 402 0 54 143 c30 78 75 184 99 235 l45 93
-18 57 -18 57 -13 -45 c-6 -25 -13 -38 -14 -30 -1 8 -17 -30 -34 -85 l-33
-100 0 60 c0 33 3 72 8 88 5 17 2 54 -8 100 -11 50 -17 125 -17 242 -1 170 -1
170 42 329 23 87 41 161 39 163 -3 2 -12 -8 -21 -23 -34 -51 -27 -14 14 73 57
122 87 201 115 313 28 113 69 391 85 579 19 227 54 357 120 446 36 49 61 69
165 139 28 18 51 39 53 47 1 8 -21 28 -50 46 -82 49 -110 83 -106 129 3 34 8
41 41 58 21 10 79 24 129 32 50 7 92 15 95 17 2 3 -10 10 -27 17 -44 18 -72
57 -59 81 8 15 21 19 68 19 l58 0 -18 57 c-35 106 -17 200 42 218 37 12 55
-20 90 -156 l34 -130 21 69 c32 105 75 162 179 239 l30 22 -997 1 -998 0 0
-1800z"/>
<path d="M2060 3592 c0 -5 -32 -53 -71 -108 -39 -54 -89 -135 -110 -178 -35
-69 -37 -77 -17 -62 46 32 115 64 193 89 97 30 147 37 153 19 3 -11 -154 -92
-312 -161 -39 -17 -46 -24 -37 -35 6 -7 26 -16 43 -20 51 -10 174 -74 212
-110 38 -36 44 -64 23 -105 -9 -19 -32 -31 -92 -50 -103 -33 -108 -51 -38
-125 54 -56 132 -157 153 -196 40 -74 29 -196 -23 -274 -19 -28 -39 -64 -45
-81 -8 -19 -13 -140 -16 -325 -4 -269 -13 -399 -31 -473 -7 -27 -6 -27 84 28
50 30 97 55 104 55 27 0 34 25 40 130 3 58 9 113 12 122 12 32 69 58 124 58
45 0 57 -4 82 -29 19 -19 29 -40 29 -58 0 -90 16 -206 30 -214 8 -4 54 -30
102 -58 48 -28 90 -51 94 -51 3 0 3 12 -1 27 -22 87 -34 333 -28 568 l6 250
-25 25 c-14 14 -37 33 -52 43 -25 17 -26 21 -26 116 0 110 11 141 91 247 l42
55 -46 87 c-86 165 -119 339 -98 519 7 60 16 112 21 117 5 5 11 -13 15 -40 31
-230 65 -360 132 -492 26 -51 50 -95 55 -98 4 -3 49 16 100 41 173 84 314 86
427 5 l41 -30 9 22 c4 13 11 43 14 68 5 41 4 43 -9 26 -8 -11 -14 -25 -14 -32
0 -13 -22 -24 -50 -24 -16 0 -140 134 -140 151 0 5 15 20 34 34 24 18 53 28
101 34 39 4 70 13 76 22 11 18 11 59 -1 134 -5 33 -6 75 -2 94 l8 34 26 -64
c15 -35 36 -86 46 -114 12 -34 23 -49 33 -46 8 3 35 7 61 9 41 3 50 0 83 -30
l37 -33 -42 -78 c-23 -42 -45 -77 -49 -77 -4 0 -14 12 -23 28 -9 15 -26 36
-37 46 l-21 19 -1 -94 c0 -52 -6 -116 -13 -144 -12 -48 -11 -52 17 -93 74
-110 106 -232 132 -492 9 -91 27 -230 41 -310 28 -163 102 -427 144 -510 49
-99 61 -130 44 -123 -12 4 -13 0 -4 -23 29 -75 80 -268 91 -343 7 -51 10 -139
7 -220 l-5 -136 79 -39 c67 -33 95 -56 180 -145 90 -95 106 -118 159 -227 33
-66 59 -126 59 -132 0 -9 46 -12 165 -12 l165 0 0 1800 0 1800 -1370 0 c-753
0 -1370 -4 -1370 -8z"/>
<path d="M2808 2003 c-4 -192 4 -382 16 -364 4 7 22 50 39 95 29 75 31 89 28
184 -2 97 -5 108 -38 168 -19 35 -36 64 -38 64 -2 0 -5 -66 -7 -147z"/>
<path d="M1947 2085 c-23 -36 -30 -62 -38 -140 -5 -53 -11 -100 -14 -105 -3
-5 -1 -11 3 -14 5 -3 24 -46 41 -96 18 -49 37 -90 42 -90 10 0 11 446 1 472
-6 14 -12 9 -35 -27z"/>
<path d="M2130 1207 c-96 -76 -142 -128 -128 -143 4 -3 48 20 99 50 50 31 98
56 104 56 24 0 36 29 33 75 l-3 46 -105 -84z"/>
<path d="M2560 1235 l0 -56 43 -18 c23 -10 74 -37 112 -61 39 -23 73 -44 78
-47 4 -2 7 5 7 16 0 26 -50 76 -158 159 l-82 63 0 -56z"/>
<path d="M2369 1118 c-38 -128 -39 -130 -156 -210 -59 -41 -157 -112 -218
-158 -60 -45 -124 -89 -142 -98 -24 -11 -34 -25 -42 -58 -22 -88 -13 -152 66
-432 l46 -162 523 0 c413 0 524 3 524 13 0 6 7 102 16 212 16 197 16 200 -6
312 -13 62 -26 113 -30 113 -4 0 -81 53 -172 118 -90 64 -194 137 -231 162
-72 48 -83 65 -116 177 -12 40 -26 75 -31 78 -5 3 -19 -27 -31 -67z"/>
<path d="M3907 814 c-3 -10 -9 -48 -12 -84 -9 -86 7 -147 41 -160 33 -13 34
-13 34 9 0 28 -40 223 -49 240 -7 12 -10 11 -14 -5z"/>
<path d="M919 765 c-4 -5 -9 -46 -12 -90 l-6 -80 14 50 c14 48 17 141 4 120z"/>
</g>
</svg>
