<?xml version="1.0" standalone="no"?>
<!DOCTYPE svg PUBLIC "-//W3C//DTD SVG 20010904//EN"
 "http://www.w3.org/TR/2001/REC-SVG-20010904/DTD/svg10.dtd">
<svg version="1.0" xmlns="http://www.w3.org/2000/svg"
 width="480.000000pt" height="360.000000pt" viewBox="0 0 480.000000 360.000000"
 preserveAspectRatio="xMidYMid meet">
<metadata>
Created by potrace 1.16, written by Peter Selinger 2001-2019
</metadata>
<rect width="1" height="360" fill="#000000"/>
<rect x="479" width="1" height="360" fill="#000000"/>
<rect width="480" height="1" fill="#000000"/>
<rect y="359" width="480" height="1" fill="#000000"/>
<g transform="translate(0.000000,360.000000) scale(0.100000,-0.100000)"
fill="#000000" stroke="none">
<path d="M1780 3571 c0 -32 37 -136 75 -210 33 -67 114 -153 201 -213 l72 -50
-59 -81 c-96 -128 -135 -220 -154 -360 -17 -123 -21 -216 -15 -352 3 -62 0
-87 -13 -112 -20 -38 -13 -42 19 -12 l22 21 19 -64 c11 -40 19 -55 21 -41 3
21 7 19 60 -24 31 -25 62 -55 69 -67 8 -15 21 -21 47 -21 39 0 44 6 20 26 -8
7 -22 26 -30 42 -15 28 -14 28 38 -12 70 -53 170 -111 193 -111 15 0 13 7 -15
35 -30 31 -32 35 -13 35 11 0 32 -11 47 -25 22 -20 26 -33 26 -77 0 -33 -7
-67 -19 -89 -11 -20 -16 -40 -13 -46 11 -16 49 -33 74 -33 24 0 48 -16 48 -33
0 -5 -7 -6 -16 -3 -26 10 -35 -3 -20 -32 14 -30 42 -438 31 -471 -7 -24 11
-37 31 -20 8 6 16 10 18 8 2 -2 13 -69 25 -149 12 -80 30 -202 41 -271 l19
-127 -29 -114 c-15 -62 -31 -147 -35 -188 -9 -104 -8 -102 -47 -86 -30 13
-168 48 -418 106 -52 13 -123 25 -158 28 -52 4 -68 10 -95 35 -17 16 -41 33
-53 37 -18 7 -22 19 -28 87 -8 97 -49 226 -88 276 -17 20 -50 49 -75 64 l-46
27 -111 -13 c-61 -7 -126 -13 -145 -14 -19 -1 -36 -8 -39 -15 -2 -7 -44 -40
-93 -72 -124 -84 -141 -115 -144 -263 -2 -87 1 -123 15 -162 10 -27 21 -68 25
-89 14 -83 81 -169 204 -263 12 -10 335 -12 1435 -13 1314 0 1418 1 1412 17
-4 9 -13 68 -22 130 -8 63 -21 131 -29 150 -8 19 -12 39 -9 44 7 12 -15 146
-28 172 -5 10 -11 40 -12 66 -2 27 -10 65 -17 84 -15 43 -8 55 25 38 38 -21
94 -18 117 6 27 27 20 40 -73 141 -101 110 -158 231 -169 356 -13 157 -18 427
-8 421 5 -4 9 -13 9 -21 0 -50 170 -408 186 -392 2 2 -10 37 -26 77 -17 40
-30 78 -30 84 0 5 32 -36 71 -92 40 -55 76 -101 81 -101 5 0 4 9 -3 21 -18 34
-49 132 -44 137 3 3 19 -7 35 -23 16 -16 32 -26 35 -24 3 3 -14 52 -36 110
-41 105 -99 311 -99 352 0 14 14 -4 41 -53 43 -79 79 -133 85 -128 2 2 -8 35
-22 73 -29 81 -66 233 -60 249 2 6 7 2 12 -9 16 -41 68 -128 71 -119 2 6 -4
32 -12 59 -8 28 -33 160 -56 295 -47 285 -75 413 -126 565 -70 210 -168 391
-276 510 -41 45 -76 97 -99 145 -38 81 -109 167 -188 225 l-48 35 -259 0
c-164 0 -263 -4 -269 -10 -7 -7 -27 -7 -63 1 -53 11 -144 -1 -157 -22 -9 -15
-47 -10 -79 11 -29 19 -48 20 -407 20 l-378 0 0 -29z m2043 -2094 c15 -94 30
-185 33 -202 12 -73 -58 107 -77 199 -18 85 -19 105 -8 138 7 21 15 38 18 38
3 0 19 -78 34 -173z m-777 56 l55 -85 -48 -52 c-26 -28 -69 -79 -95 -114 -27
-34 -52 -62 -56 -62 -8 0 -6 43 4 108 4 26 10 32 29 32 26 0 36 17 24 41 -10
19 -14 203 -5 217 13 22 39 -2 92 -85z m-299 -90 c-3 -10 -5 -2 -5 17 0 19 2
27 5 18 2 -10 2 -26 0 -35z m54 -211 c16 -139 16 -141 -17 -212 -15 -30 -39
-92 -55 -137 -38 -106 -68 -177 -74 -171 -3 2 2 36 10 74 19 92 45 294 45 350
0 42 1 44 29 44 38 0 47 15 27 45 -10 15 -16 46 -16 79 0 48 2 54 18 49 16 -4
21 -23 33 -121z"/>
</g>
</svg>
