<?xml version="1.0" standalone="no"?>
<!DOCTYPE svg PUBLIC "-//W3C//DTD SVG 20010904//EN"
 "http://www.w3.org/TR/2001/REC-SVG-20010904/DTD/svg10.dtd">
<svg version="1.0" xmlns="http://www.w3.org/2000/svg"
 width="480.000000pt" height="360.000000pt" viewBox="0 0 480.000000 360.000000"
 preserveAspectRatio="xMidYMid meet">
<metadata>
Created by potrace 1.16, written by Peter Selinger 2001-2019
</metadata>
<rect width="1" height="360" fill="#000000"/>
<rect x="479" width="1" height="360" fill="#000000"/>
<rect width="480" height="1" fill="#000000"/>
<rect y="359" width="480" height="1" fill="#000000"/>
<g transform="translate(0.000000,360.000000) scale(0.100000,-0.100000)"
fill="#000000" stroke="none">
<path d="M0 1800 l0 -1800 1070 0 1069 0 5 33 c8 46 24 225 31 337 3 52 8 121
11 152 l6 57 -36 15 c-25 10 -36 21 -36 36 0 11 -7 23 -15 26 -8 4 -15 11 -15
16 0 6 7 7 16 4 12 -4 14 -1 9 13 -3 12 3 38 15 62 15 27 29 96 45 208 39 269
41 323 15 414 -26 94 -28 188 -6 241 9 21 16 50 16 65 0 14 9 40 20 56 15 22
18 39 14 64 -6 30 -3 38 24 60 28 23 32 34 38 91 l6 65 -51 39 c-34 28 -49 46
-48 60 2 17 -3 20 -25 18 -19 -2 -30 4 -38 18 -6 11 -17 20 -25 20 -8 0 -15 4
-15 10 0 5 -10 18 -21 29 -20 18 -21 27 -16 84 9 92 31 140 93 196 73 67 148
102 229 109 59 4 71 2 131 -28 136 -67 197 -203 244 -541 11 -79 31 -202 44
-274 41 -217 64 -609 65 -1090 l1 -300 37 -182 37 -183 928 0 928 0 0 1108 0
1109 -125 61 c-170 83 -228 125 -364 261 -188 186 -290 366 -350 614 -26 108
-31 157 -32 315 l-1 132 -1964 0 -1964 0 0 -1800z"/>
<path d="M2390 1991 c0 -23 5 -41 10 -41 6 0 10 15 10 34 0 19 -4 38 -10 41
-6 4 -10 -10 -10 -34z"/>
</g>
</svg>
