<?xml version="1.0" standalone="no"?>
<!DOCTYPE svg PUBLIC "-//W3C//DTD SVG 20010904//EN"
 "http://www.w3.org/TR/2001/REC-SVG-20010904/DTD/svg10.dtd">
<svg version="1.0" xmlns="http://www.w3.org/2000/svg"
 width="480.000000pt" height="360.000000pt" viewBox="0 0 480.000000 360.000000"
 preserveAspectRatio="xMidYMid meet">
<metadata>
Created by potrace 1.16, written by Peter Selinger 2001-2019
</metadata>
<rect width="1" height="360" fill="#000000"/>
<rect x="479" width="1" height="360" fill="#000000"/>
<rect width="480" height="1" fill="#000000"/>
<rect y="359" width="480" height="1" fill="#000000"/>
<g transform="translate(0.000000,360.000000) scale(0.100000,-0.100000)"
fill="#000000" stroke="none">
<path d="M0 2642 l0 -959 93 18 c192 37 447 113 654 195 135 53 205 87 424
202 204 107 212 108 317 14 43 -38 138 -117 212 -177 74 -60 232 -205 350
-321 340 -334 388 -356 775 -351 l214 2 6 34 c16 82 153 301 237 376 60 54
151 102 271 144 159 55 162 65 45 142 -103 67 -98 65 -98 36 0 -13 -9 -34 -20
-46 -10 -13 -22 -43 -26 -67 -8 -56 -24 -67 -25 -17 -1 21 -4 52 -8 68 -6 27
-8 24 -20 -33 -8 -34 -15 -61 -17 -59 -2 2 -8 39 -14 83 -15 113 -18 116 -47
61 -28 -55 -39 -56 -25 -3 11 38 -2 165 -19 199 -6 10 -23 20 -40 24 -16 3
-29 8 -29 12 0 3 -9 12 -20 19 -17 10 -25 9 -50 -10 -35 -26 -44 -21 -30 16
15 40 12 73 -7 80 -15 6 -15 8 1 19 16 12 16 15 -3 57 -11 25 -21 66 -21 93 0
26 -4 47 -9 47 -16 0 -23 -146 -10 -251 18 -158 8 -242 -52 -416 -28 -81 -53
-156 -56 -165 -3 -10 -10 -18 -15 -18 -5 0 -21 -14 -35 -30 -20 -24 -28 -28
-39 -19 -11 9 -14 9 -14 0 0 -7 -5 -9 -10 -6 -6 3 -14 -4 -19 -17 -9 -22 -10
-22 -12 7 -1 18 -3 23 -6 13 -7 -29 -23 -21 -23 11 0 43 -9 61 -27 54 -10 -4
-14 -2 -10 4 4 6 -1 10 -10 9 -12 -1 -18 7 -19 24 -1 14 -13 57 -28 97 -14 39
-29 98 -32 130 -4 32 -11 61 -16 64 -8 5 10 141 29 217 6 23 5 24 -51 17 -31
-4 -56 -5 -56 -1 0 3 15 21 33 39 76 80 124 146 164 228 29 59 56 99 85 123
23 20 40 37 37 39 -2 2 -36 15 -75 30 -117 45 -112 36 -95 182 6 50 11 112 11
139 0 65 31 129 94 189 66 65 112 93 167 101 63 9 106 -20 135 -92 l21 -53 42
55 c91 121 167 179 291 221 114 39 219 48 460 42 350 -10 433 -45 519 -221 61
-125 81 -244 61 -363 l-13 -76 31 -28 c17 -15 48 -33 70 -38 75 -21 103 -70
79 -137 -8 -21 -25 -66 -37 -99 -12 -33 -29 -66 -38 -72 -37 -30 -52 -68 -52
-134 0 -60 -2 -67 -25 -77 -15 -7 -25 -20 -25 -32 0 -26 -7 -25 -31 3 -17 20
-20 20 -31 6 -7 -9 -22 -21 -34 -27 -13 -7 -28 -33 -38 -67 -19 -58 -39 -74
-36 -27 6 83 -14 112 -37 52 -6 -16 -20 -33 -30 -36 -28 -11 -53 -46 -53 -78
0 -28 -1 -29 -14 -10 -18 24 -28 15 -32 -33 -2 -21 -6 -59 -10 -85 -6 -46 -6
-46 37 -74 24 -15 64 -35 89 -45 95 -36 176 -78 214 -108 21 -17 43 -31 48
-31 10 0 89 -158 137 -275 41 -100 46 -105 87 -105 l34 0 0 1155 0 1155 -2400
0 -2400 0 0 -958z"/>
<path d="M1230 1934 c-110 -73 -106 -68 -82 -99 18 -22 19 -30 9 -52 -12 -26
-11 -27 46 -66 9 -7 35 -59 57 -117 l40 -105 -15 -70 c-8 -38 -26 -119 -40
-180 -27 -116 -90 -397 -108 -478 -6 -29 -17 -51 -26 -54 -9 -4 -23 -12 -32
-20 -14 -11 -17 -9 -29 14 -7 16 -54 196 -105 401 l-93 374 39 106 c29 83 46
113 71 135 26 22 30 29 19 37 -10 6 -40 -4 -94 -31 -95 -48 -212 -93 -326
-125 -46 -13 -84 -25 -85 -26 -1 -2 -7 -18 -13 -35 -11 -31 -9 -35 23 -61 27
-22 43 -52 75 -136 l40 -107 -15 -62 c-8 -34 -33 -143 -56 -242 -23 -99 -47
-207 -55 -240 -8 -33 -24 -102 -35 -153 -21 -89 -41 -122 -76 -122 -19 0 -30
36 -129 425 l-97 377 38 107 c28 79 46 114 72 139 28 27 33 37 27 62 -8 36
-10 36 -160 7 l-110 -22 -3 -758 -2 -757 1479 0 1478 0 6 38 c3 20 9 71 12
112 4 41 20 126 36 189 16 63 34 157 40 210 6 53 20 159 31 236 28 188 28 209
3 213 -11 2 -30 15 -42 30 l-22 27 26 27 27 28 -140 -6 c-172 -7 -178 -9 -141
-38 20 -16 39 -51 62 -117 19 -52 35 -104 35 -116 0 -12 -25 -127 -56 -255
-31 -128 -68 -285 -83 -348 -22 -95 -29 -115 -44 -115 -11 0 -24 -8 -31 -18
-7 -9 -16 -17 -18 -17 -12 0 -30 64 -74 260 -25 113 -60 270 -78 350 l-33 145
31 95 c24 72 40 103 67 130 32 32 34 37 23 60 -7 13 -23 28 -36 33 -40 15
-191 47 -225 47 l-32 0 35 -102 c19 -56 34 -112 34 -125 0 -13 -11 -72 -25
-131 -14 -59 -39 -165 -55 -237 -17 -71 -37 -157 -45 -190 -8 -33 -19 -86 -25
-118 -9 -43 -16 -57 -29 -57 -9 0 -22 -5 -29 -12 -10 -9 -15 -9 -27 2 -7 8
-52 180 -99 382 l-85 368 38 105 c35 95 67 144 95 145 4 0 6 12 3 27 -3 15 -1
36 5 46 8 15 -4 35 -65 110 -103 126 -207 223 -207 193 0 -3 14 -44 32 -92 37
-105 50 -19 -99 -679 -34 -150 -48 -193 -61 -180 -3 3 -13 -2 -23 -11 -16 -15
-19 -14 -32 13 -8 15 -18 44 -22 63 -4 19 -43 183 -86 364 l-79 329 36 101
c24 69 45 110 65 128 16 15 29 38 29 51 0 12 7 32 15 44 14 19 12 22 -23 45
-20 14 -80 66 -133 117 -54 50 -103 91 -111 91 -7 0 -51 -25 -98 -56z"/>
<path d="M2733 1780 c0 -25 2 -35 4 -22 2 12 2 32 0 45 -2 12 -4 2 -4 -23z"/>
<path d="M4767 1121 c-5 -19 9 -41 25 -41 4 0 8 14 8 30 0 34 -25 42 -33 11z"/>
<path d="M4770 353 c-12 -54 -28 -120 -36 -147 -8 -27 -14 -85 -14 -128 l0
-78 40 0 40 0 0 225 c0 124 -2 225 -4 225 -2 0 -14 -44 -26 -97z"/>
</g>
</svg>
