<?xml version="1.0" standalone="no"?>
<!DOCTYPE svg PUBLIC "-//W3C//DTD SVG 20010904//EN"
 "http://www.w3.org/TR/2001/REC-SVG-20010904/DTD/svg10.dtd">
<svg version="1.0" xmlns="http://www.w3.org/2000/svg"
 width="480.000000pt" height="360.000000pt" viewBox="0 0 480.000000 360.000000"
 preserveAspectRatio="xMidYMid meet">
<metadata>
Created by potrace 1.16, written by Peter Selinger 2001-2019
</metadata>
<rect width="1" height="360" fill="#000000"/>
<rect x="479" width="1" height="360" fill="#000000"/>
<rect width="480" height="1" fill="#000000"/>
<rect y="359" width="480" height="1" fill="#000000"/>
<g transform="translate(0.000000,360.000000) scale(0.100000,-0.100000)"
fill="#000000" stroke="none">
<path d="M0 1800 l0 -1800 865 0 c816 0 865 1 865 17 0 20 9 48 150 476 112
342 127 380 172 446 31 45 31 48 29 158 -1 64 2 120 8 132 10 19 2 134 -11
146 -3 3 -18 1 -34 -5 -28 -11 -28 -11 -9 9 18 20 11 28 -11 13 -21 -14 -22
-53 -3 -97 19 -42 19 -47 4 -120 -34 -165 -105 -312 -198 -410 -63 -67 -403
-325 -427 -325 -10 0 -23 7 -30 15 -18 22 -30 19 -70 -19 -29 -27 -46 -35 -92
-40 -36 -4 -58 -2 -58 4 0 6 -9 6 -25 0 -38 -14 -32 7 18 59 45 47 47 48 -44
-18 -38 -27 -21 19 27 72 47 53 84 115 84 142 0 18 -42 20 -70 3 -10 -7 -22
-9 -26 -5 -11 11 17 36 73 67 26 14 47 32 45 39 -2 8 23 41 55 75 295 311 318
339 364 425 25 47 54 100 64 118 l20 32 -29 26 -28 26 -25 -23 -25 -23 7 40
c4 22 12 48 16 57 14 26 11 28 -21 22 -36 -8 -38 4 -8 43 13 15 28 37 34 48 6
10 23 22 39 27 37 9 92 64 104 102 13 38 51 252 51 282 0 13 -8 24 -19 27 -19
5 -19 7 4 88 13 46 22 85 21 87 -2 1 -16 -2 -32 -8 -56 -22 -63 -15 -135 132
-5 10 -9 26 -9 37 0 10 -6 31 -14 46 -8 16 -20 58 -27 95 -10 59 -10 70 6 93
17 26 21 27 104 26 55 0 117 -8 173 -22 77 -20 91 -21 125 -9 21 7 76 14 123
16 67 2 98 8 147 29 34 15 101 35 148 43 96 18 106 15 130 -42 18 -43 9 -240
-13 -296 -6 -14 -9 -52 -6 -85 3 -36 1 -51 -4 -39 -10 23 -17 14 -27 -34 -4
-19 -19 -64 -34 -99 -25 -61 -26 -63 -32 -35 -4 16 -7 -28 -8 -99 l-1 -127 28
-11 c15 -6 52 -23 82 -37 48 -24 59 -35 87 -90 18 -35 42 -98 54 -140 11 -43
28 -90 37 -107 9 -16 23 -61 32 -100 l16 -70 153 -125 c95 -78 159 -137 168
-157 15 -31 14 -34 -11 -63 -14 -18 -26 -35 -26 -38 0 -25 69 -95 119 -122
l23 -12 -21 -22 c-17 -16 -34 -21 -75 -21 -64 0 -120 37 -131 85 -9 41 -22 46
-52 19 -38 -35 -62 -97 -77 -199 -7 -50 -16 -93 -19 -97 -4 -3 -23 4 -43 16
-20 12 -38 20 -40 19 -1 -2 3 -24 11 -48 7 -25 36 -126 64 -225 28 -99 60
-210 71 -247 l21 -68 929 0 930 0 0 1800 0 1800 -2400 0 -2400 0 0 -1800z"/>
</g>
</svg>
