<?xml version="1.0" standalone="no"?>
<!DOCTYPE svg PUBLIC "-//W3C//DTD SVG 20010904//EN"
 "http://www.w3.org/TR/2001/REC-SVG-20010904/DTD/svg10.dtd">
<svg version="1.0" xmlns="http://www.w3.org/2000/svg"
 width="480.000000pt" height="360.000000pt" viewBox="0 0 480.000000 360.000000"
 preserveAspectRatio="xMidYMid meet">
<metadata>
Created by potrace 1.16, written by Peter Selinger 2001-2019
</metadata>
<rect width="1" height="360" fill="#000000"/>
<rect x="479" width="1" height="360" fill="#000000"/>
<rect width="480" height="1" fill="#000000"/>
<rect y="359" width="480" height="1" fill="#000000"/>
<g transform="translate(0.000000,360.000000) scale(0.100000,-0.100000)"
fill="#000000" stroke="none">
<path d="M0 1800 l0 -1800 2400 0 2400 0 0 1800 0 1800 -2400 0 -2400 0 0
-1800z m2865 1190 c69 10 105 4 133 -23 45 -43 68 -101 53 -133 -6 -14 -20
-28 -31 -31 -12 -3 -24 -20 -32 -45 -7 -25 -16 -37 -25 -34 -28 11 -11 -10 24
-29 21 -11 39 -28 41 -38 7 -36 63 -75 155 -107 115 -41 126 -50 103 -84 -9
-14 -22 -26 -29 -26 -6 0 -46 20 -87 45 -41 25 -78 45 -82 45 -5 0 -8 -8 -8
-19 0 -10 -8 -29 -18 -42 -35 -46 -27 -110 27 -223 35 -73 54 -131 70 -208 23
-117 27 -188 10 -188 -6 0 -8 9 -4 20 5 16 2 20 -16 20 -21 0 -22 -2 -15 -85
l6 -84 -32 -37 c-26 -29 -28 -36 -13 -31 528 159 601 177 770 192 44 4 87 11
95 15 9 5 47 59 85 120 71 116 116 170 141 170 30 0 54 -38 54 -88 0 -38 -9
-63 -45 -126 -25 -44 -45 -81 -45 -83 0 -2 -11 -21 -25 -41 -14 -20 -25 -44
-25 -54 0 -9 -6 -21 -14 -25 -8 -4 -56 -75 -106 -158 -210 -341 -306 -468
-499 -660 -115 -114 -138 -133 -192 -152 -55 -20 -64 -21 -89 -8 -15 8 -34 25
-43 39 -16 24 -20 25 -85 19 -82 -7 -150 11 -264 68 l-78 39 -164 0 c-180 0
-320 17 -462 55 l-88 23 -203 -59 c-111 -32 -220 -59 -241 -59 -115 0 -408
144 -583 287 l-80 65 -89 8 c-63 6 -107 16 -147 35 -38 18 -73 27 -99 26 -40
-2 -44 1 -100 71 -33 39 -85 97 -118 127 -78 75 -122 165 -93 189 18 15 143
29 452 48 l270 16 250 -40 c620 -102 922 -134 1275 -136 l255 -1 0 40 0 40
-80 18 c-44 10 -95 25 -113 33 -18 8 -40 14 -49 14 -18 0 -53 28 -53 42 0 5
23 34 52 64 42 44 49 57 38 64 -8 6 -21 10 -27 10 -24 0 -13 18 72 111 47 52
115 138 151 192 64 97 65 99 71 180 4 61 1 93 -11 127 -9 25 -16 66 -16 91 0
61 -30 102 -64 89 -19 -7 -25 -5 -29 10 -3 10 -1 22 4 27 11 11 -148 126 -165
120 -14 -5 -48 -119 -66 -218 -22 -122 -28 -235 -18 -342 9 -92 8 -117 -6
-166 -20 -72 -21 -186 -1 -224 13 -26 13 -28 -3 -25 -9 2 -27 23 -40 48 -20
40 -22 59 -23 200 0 85 -1 241 -2 345 -1 175 1 200 28 315 15 69 28 140 29
159 1 19 7 36 14 39 15 5 76 -40 111 -81 21 -25 103 -87 114 -87 3 0 15 30 28
67 28 85 67 128 107 118 15 -4 36 -6 47 -5z"/>
<path d="M2870 1615 c0 -8 5 -15 10 -15 6 0 10 7 10 15 0 8 -4 15 -10 15 -5 0
-10 -7 -10 -15z"/>
</g>
</svg>
