<?xml version="1.0" standalone="no"?>
<!DOCTYPE svg PUBLIC "-//W3C//DTD SVG 20010904//EN"
 "http://www.w3.org/TR/2001/REC-SVG-20010904/DTD/svg10.dtd">
<svg version="1.0" xmlns="http://www.w3.org/2000/svg"
 width="480.000000pt" height="360.000000pt" viewBox="0 0 480.000000 360.000000"
 preserveAspectRatio="xMidYMid meet">
<metadata>
Created by potrace 1.16, written by Peter Selinger 2001-2019
</metadata>
<rect width="1" height="360" fill="#000000"/>
<rect x="479" width="1" height="360" fill="#000000"/>
<rect width="480" height="1" fill="#000000"/>
<rect y="359" width="480" height="1" fill="#000000"/>
<g transform="translate(0.000000,360.000000) scale(0.100000,-0.100000)"
fill="#000000" stroke="none">
<path d="M0 1800 l0 -1800 1281 0 1280 0 -7 23 c-15 51 -65 138 -123 217 -73
98 -128 202 -137 259 l-7 41 59 2 c138 5 436 -24 534 -52 19 -5 36 -10 37 -10
11 0 -2 87 -27 182 -36 138 -78 260 -126 364 -36 77 -64 193 -64 262 0 23 -12
56 -30 87 -54 91 -29 212 67 316 22 24 24 32 18 83 -8 59 -17 69 -35 35 -19
-35 -23 -13 -10 54 12 58 11 73 -10 168 -13 57 -31 120 -41 139 l-18 35 1 -30
c1 -16 8 -38 16 -48 28 -32 5 -27 -44 10 -27 21 -76 52 -109 68 -70 35 -95 68
-125 167 -35 117 -33 131 49 327 17 40 31 76 31 80 0 4 -20 17 -44 28 -24 12
-47 31 -51 43 -8 25 32 91 70 116 34 22 32 37 -15 88 -22 24 -40 46 -40 48 0
9 92 46 132 53 29 6 40 3 57 -14 24 -24 26 -21 36 52 3 26 11 47 17 47 5 0 28
-16 51 -35 22 -19 46 -35 53 -35 7 0 31 16 54 35 23 19 45 35 48 35 4 0 28
-11 55 -24 27 -14 76 -27 115 -31 37 -4 83 -13 102 -20 19 -7 67 -18 107 -24
108 -16 261 -88 362 -169 104 -84 171 -261 201 -527 12 -111 21 -131 88 -193
l47 -43 -58 3 c-66 3 -63 13 -43 -124 7 -49 9 -88 5 -88 -4 0 -20 37 -37 82
-30 83 -59 121 -42 56 5 -18 13 -52 19 -74 14 -53 14 -65 -1 -61 -10 1 -12
-13 -10 -53 l3 -55 -21 25 c-21 24 -21 24 -15 3 4 -13 2 -23 -3 -23 -6 0 -16
26 -24 57 -7 31 -20 59 -27 61 -10 3 -12 -1 -7 -13 8 -22 -4 -89 -14 -78 -5 4
-11 19 -14 33 -2 14 -2 -8 0 -49 5 -65 4 -73 -9 -63 -8 7 -20 26 -27 42 -16
39 -34 39 -25 1 5 -26 4 -29 -13 -24 -11 2 -26 17 -33 31 l-13 27 -4 -29 c-2
-15 -1 -39 3 -53 5 -22 9 -24 43 -18 42 7 190 -25 227 -49 33 -22 83 -98 116
-175 15 -36 31 -67 36 -68 4 -2 25 23 45 54 l37 57 -32 28 c-18 15 -26 27 -19
28 6 0 12 6 12 13 0 6 28 28 62 47 73 41 128 87 128 106 0 7 -16 25 -35 40
-41 31 -45 49 -10 40 32 -8 32 3 -1 84 -23 57 -26 77 -25 183 1 65 6 128 12
138 10 20 3 112 -12 140 -6 12 -1 28 16 53 17 25 23 45 19 61 -5 22 -10 24
-62 22 l-57 -2 0 30 c0 27 5 31 50 46 l49 15 -3 55 c-1 30 -10 113 -21 184
-45 313 -49 454 -18 568 15 57 28 64 40 22 8 -30 62 -400 93 -641 10 -72 21
-137 25 -144 6 -10 18 -10 53 -1 60 15 79 7 75 -32 -3 -28 -8 -33 -58 -47 -53
-15 -55 -17 -55 -49 0 -31 3 -35 43 -46 60 -18 69 -29 83 -93 6 -31 19 -73 29
-92 9 -19 23 -53 30 -75 7 -22 24 -52 38 -68 34 -36 41 -123 18 -231 -20 -98
-20 -106 1 -106 26 0 123 -24 123 -30 0 -3 -24 -18 -54 -32 -47 -23 -58 -35
-82 -85 -27 -54 -29 -65 -27 -163 3 -125 -4 -190 -20 -190 -7 0 -30 14 -51 32
-36 30 -39 30 -50 13 -6 -10 -70 -131 -142 -269 -96 -183 -127 -252 -117 -254
14 -4 14 -18 -3 -73 -3 -12 9 -22 45 -38 27 -11 57 -21 66 -21 38 0 84 -30
115 -76 30 -45 31 -50 18 -72 -14 -23 -13 -28 18 -74 39 -58 42 -80 13 -109
-16 -16 -29 -20 -54 -16 l-33 5 5 -78 c7 -96 -6 -122 -75 -152 -26 -12 -73
-48 -107 -83 -33 -34 -86 -76 -117 -94 -109 -61 -110 -61 402 -61 l460 0 0
1800 0 1800 -2400 0 -2400 0 0 -1800z"/>
<path d="M3602 2010 c0 -14 2 -19 5 -12 2 6 2 18 0 25 -3 6 -5 1 -5 -13z"/>
<path d="M2795 1878 c11 -107 11 -107 18 -114 9 -9 9 44 1 125 -4 33 -11 61
-17 61 -6 0 -7 -26 -2 -72z"/>
<path d="M2862 1847 c-7 -15 -15 -39 -18 -52 -6 -25 -6 -25 68 -25 41 0 88 5
105 10 25 9 29 15 25 39 -4 27 -6 28 -48 23 -26 -3 -50 0 -58 7 -11 9 -15 5
-19 -19 -9 -41 -21 -38 -34 8 l-10 37 -11 -28z"/>
</g>
</svg>
