<?xml version="1.0" standalone="no"?>
<!DOCTYPE svg PUBLIC "-//W3C//DTD SVG 20010904//EN"
 "http://www.w3.org/TR/2001/REC-SVG-20010904/DTD/svg10.dtd">
<svg version="1.0" xmlns="http://www.w3.org/2000/svg"
 width="480.000000pt" height="360.000000pt" viewBox="0 0 480.000000 360.000000"
 preserveAspectRatio="xMidYMid meet">
<metadata>
Created by potrace 1.16, written by Peter Selinger 2001-2019
</metadata>
<rect width="1" height="360" fill="#000000"/>
<rect x="479" width="1" height="360" fill="#000000"/>
<rect width="480" height="1" fill="#000000"/>
<rect y="359" width="480" height="1" fill="#000000"/>
<g transform="translate(0.000000,360.000000) scale(0.100000,-0.100000)"
fill="#000000" stroke="none">
<path d="M0 1800 l0 -1800 2400 0 2400 0 0 459 0 458 -122 66 c-68 36 -128 70
-135 74 -9 6 -14 78 -19 258 l-6 250 70 280 c70 281 80 341 97 615 3 52 13
181 22 285 12 149 13 261 8 523 l-7 332 -2354 0 -2354 0 0 -1800z m4445 -647
c8 -47 0 -53 -35 -25 -18 14 -20 22 -12 42 6 14 13 34 17 45 l7 20 8 -20 c4
-11 11 -39 15 -62z"/>
</g>
</svg>
