<?xml version="1.0" standalone="no"?>
<!DOCTYPE svg PUBLIC "-//W3C//DTD SVG 20010904//EN"
 "http://www.w3.org/TR/2001/REC-SVG-20010904/DTD/svg10.dtd">
<svg version="1.0" xmlns="http://www.w3.org/2000/svg"
 width="480.000000pt" height="360.000000pt" viewBox="0 0 480.000000 360.000000"
 preserveAspectRatio="xMidYMid meet">
<metadata>
Created by potrace 1.16, written by Peter Selinger 2001-2019
</metadata>
<rect width="1" height="360" fill="#000000"/>
<rect x="479" width="1" height="360" fill="#000000"/>
<rect width="480" height="1" fill="#000000"/>
<rect y="359" width="480" height="1" fill="#000000"/>
<g transform="translate(0.000000,360.000000) scale(0.100000,-0.100000)"
fill="#000000" stroke="none">
<path d="M1885 3548 c-9 -29 -19 -82 -22 -118 -7 -77 -16 -89 -100 -136 -52
-29 -66 -33 -83 -24 -12 6 -33 10 -48 8 -24 -3 -27 -8 -30 -45 -2 -34 -9 -47
-33 -63 -16 -12 -29 -25 -29 -29 0 -13 99 -143 149 -193 47 -50 74 -59 89 -32
15 27 34 -8 27 -50 -7 -33 -34 -66 -105 -126 l-25 -21 63 4 64 3 -7 -30 c-3
-17 -8 -51 -11 -76 l-5 -45 29 33 c15 17 31 32 34 32 4 0 14 -34 24 -75 17
-73 34 -98 34 -52 1 33 16 2 25 -51 6 -38 9 -41 20 -26 11 15 13 13 19 -19 9
-48 25 -56 32 -18 9 44 22 38 30 -14 8 -57 24 -58 25 -2 1 42 1 42 9 9 9 -41
18 -51 29 -33 12 19 35 -52 26 -80 -13 -39 17 -16 33 26 20 52 19 51 42 30 20
-18 20 -18 20 15 0 24 3 31 11 23 6 -6 9 -28 7 -49 -3 -36 -5 -39 -30 -36 -32
3 -35 -9 -18 -68 9 -31 7 -37 -12 -52 -13 -9 -50 -24 -83 -33 -92 -26 -206
-82 -247 -122 -46 -45 -50 -42 -119 78 -36 63 -59 91 -75 95 -13 3 -63 0 -111
-6 -130 -19 -323 -16 -408 5 -71 18 -206 78 -267 118 -69 47 -179 106 -340
186 -191 93 -160 93 -298 1 -47 -31 -115 -74 -152 -94 l-68 -38 0 -79 c0 -86
-2 -84 52 -47 35 24 57 23 29 -1 -24 -21 -36 -56 -46 -138 -7 -55 -9 -51 141
-308 13 -22 44 -77 69 -121 48 -87 69 -112 79 -95 11 17 15 90 16 314 l1 217
-37 53 c-20 28 -49 63 -64 77 -16 14 -30 41 -34 62 -7 36 -6 37 60 84 65 47
67 47 93 31 14 -10 51 -31 83 -49 46 -26 57 -37 61 -62 4 -23 -1 -37 -19 -57
-19 -20 -27 -44 -35 -110 l-12 -84 108 -215 c130 -258 154 -299 165 -279 10
17 26 217 35 424 l7 140 -43 65 c-23 36 -51 71 -61 78 -10 7 -18 19 -18 27 0
12 6 12 38 1 61 -22 122 -55 184 -100 45 -33 57 -48 62 -76 4 -28 1 -39 -20
-61 -17 -17 -31 -53 -45 -110 l-20 -84 103 -240 c152 -356 155 -360 173 -185
3 30 12 118 21 195 31 275 31 274 -6 341 -17 32 -43 69 -56 81 -13 12 -24 25
-24 29 0 8 294 -3 348 -13 47 -8 50 -28 13 -67 -24 -24 -40 -57 -57 -117 -28
-96 -34 -66 62 -310 30 -76 54 -143 54 -151 0 -8 4 -18 9 -24 5 -5 20 -36 33
-69 l24 -60 -32 -95 c-39 -116 -79 -263 -94 -350 -17 -97 -16 -96 -93 -138
-40 -21 -156 -93 -257 -159 -102 -65 -218 -139 -259 -163 l-74 -44 -16 24
c-14 23 -33 42 -138 141 -21 20 -54 55 -73 77 -59 67 -162 83 -176 26 -7 -28
13 -57 55 -77 35 -17 36 -31 4 -67 l-29 -32 -119 -3 c-85 -1 -131 -7 -159 -19
-22 -9 -46 -14 -53 -12 -10 4 -13 -27 -13 -154 l0 -160 25 10 c21 8 27 6 32
-8 9 -26 45 -62 61 -62 8 0 46 16 84 35 l69 35 102 -32 c101 -33 104 -33 297
-33 l195 0 245 141 c279 161 383 225 423 263 72 66 123 170 217 446 71 209 83
238 73 175 -4 -25 -8 -164 -10 -310 -4 -464 -2 -446 -67 -587 -31 -67 -56
-124 -56 -127 0 -4 320 -6 711 -6 l710 0 -6 21 c-4 12 -34 77 -66 146 -58 124
-70 168 -47 175 9 3 8 27 -3 99 -15 100 -18 344 -5 394 7 27 12 18 55 -100
108 -295 123 -313 381 -457 74 -41 221 -121 326 -177 l192 -101 254 0 c209 0
263 3 302 16 45 15 51 15 82 0 23 -11 61 -16 115 -16 l80 0 6 30 c3 17 9 30
14 30 5 0 9 26 9 58 0 51 -3 60 -22 70 l-23 11 23 0 c22 1 22 3 22 124 -1 106
-2 120 -15 104 -12 -17 -20 -18 -87 -8 -40 6 -114 10 -165 9 -87 -3 -94 -2
-117 22 -35 34 -45 87 -20 96 30 11 64 46 64 65 0 24 -27 49 -51 49 -11 0 -43
-10 -70 -21 -43 -19 -55 -30 -79 -78 -36 -68 -45 -79 -91 -114 -20 -15 -47
-48 -60 -72 -13 -25 -29 -45 -36 -45 -15 0 -201 105 -379 213 -78 48 -184 109
-235 136 l-94 49 -8 48 c-20 121 -51 254 -84 360 -33 112 -34 118 -20 153 9
20 39 95 68 166 28 72 71 178 94 237 36 89 42 116 39 159 -2 29 2 59 8 66 5 7
8 20 4 28 -3 9 -2 13 4 10 6 -4 7 -23 4 -46 -7 -44 8 -53 27 -16 7 12 15 24
18 27 3 3 19 44 35 92 33 98 34 98 136 98 56 -1 63 -2 48 -14 -10 -7 -36 -46
-59 -87 l-41 -74 6 -90 c4 -49 13 -144 21 -210 8 -66 18 -160 23 -208 6 -49
13 -91 16 -94 15 -15 40 35 147 282 l111 260 -17 85 c-11 59 -24 96 -43 120
-46 60 -35 87 59 155 72 52 175 104 207 105 19 0 14 -18 -8 -32 -12 -7 -41
-46 -66 -86 l-46 -72 16 -263 c18 -286 22 -320 39 -315 7 2 69 120 140 261
l128 259 -12 83 c-9 62 -18 90 -34 108 -15 15 -23 36 -23 59 0 32 4 38 38 53
21 9 57 30 81 46 24 16 50 29 58 29 7 0 42 -20 76 -45 62 -44 63 -46 60 -87
-2 -31 -8 -45 -24 -52 -11 -5 -42 -43 -68 -84 l-46 -75 14 -273 c8 -150 18
-276 22 -280 13 -13 32 15 104 156 39 74 96 184 128 243 l57 109 -13 81 c-10
58 -20 89 -39 111 l-25 31 38 -22 37 -22 0 78 0 79 -72 43 c-40 23 -108 66
-151 95 -97 65 -126 73 -167 44 -16 -12 -87 -49 -158 -82 -70 -34 -199 -104
-286 -156 -143 -86 -254 -139 -326 -155 -25 -6 -26 -5 -23 41 1 26 2 49 3 52
0 3 7 -8 15 -25 l13 -30 1 35 c0 19 -10 107 -24 195 -30 198 -30 201 -4 208
18 5 20 11 15 39 -20 98 -19 146 3 177 67 93 97 238 76 361 -26 152 -66 200
-164 200 -86 0 -167 -36 -243 -109 l-38 -35 0 62 c0 41 -9 91 -26 142 l-27 80
-658 0 -658 0 -16 -52z m1373 -709 c2 -19 -6 -131 -19 -249 -19 -187 -20 -224
-10 -289 7 -41 15 -80 18 -88 4 -11 -6 -13 -59 -7 l-65 6 -74 -122 c-41 -67
-80 -125 -87 -127 -7 -3 -36 17 -66 45 -57 54 -110 84 -226 127 -104 38 -107
42 -87 106 9 28 17 59 17 68 0 9 4 22 9 29 4 8 6 -20 3 -62 -3 -48 -1 -76 6
-76 5 0 13 12 16 26 4 16 12 24 20 21 9 -4 25 16 47 56 l33 62 14 -70 c7 -38
16 -85 19 -102 8 -48 23 -30 24 30 1 29 5 66 9 82 5 18 6 -13 4 -75 -5 -115 5
-112 26 8 12 71 26 93 32 50 5 -34 22 -26 29 13 3 19 12 45 19 59 l15 25 3
-22 c5 -33 14 -28 41 19 22 38 25 41 35 24 6 -10 21 -31 34 -45 l23 -26 -6 89
c-6 79 -5 88 9 83 9 -4 39 -9 68 -12 57 -7 57 -5 -6 40 -12 9 -20 30 -23 62
-5 45 -1 54 61 152 36 57 66 111 66 118 0 30 25 5 28 -28z m-1058 -237 c0 -15
-2 -15 -10 -2 -13 20 -13 33 0 25 6 -3 10 -14 10 -23z m71 -31 c19 -15 58 -37
87 -50 28 -13 49 -28 46 -33 -3 -4 15 -8 40 -8 28 0 46 -5 46 -11 0 -17 -112
-3 -166 21 -25 10 -58 29 -75 41 -24 17 -27 24 -18 35 9 11 8 14 -5 14 -9 0
-16 7 -16 16 0 17 5 15 61 -25z m299 -257 c0 -13 -2 -24 -4 -24 -2 0 -11 -3
-20 -6 -19 -7 -22 17 -5 47 13 25 29 16 29 -17z m662 -271 c2 -10 -8 -34 -22
-54 -14 -19 -38 -63 -54 -97 l-29 -61 -33 26 -34 25 47 57 c65 78 106 121 114
121 4 0 9 -8 11 -17z m-1629 -40 c18 -20 50 -56 71 -80 l40 -44 -31 -31 -31
-31 -40 80 c-22 43 -47 85 -55 91 -16 13 -12 52 5 52 5 0 24 -17 41 -37z"/>
<path d="M2250 2556 c0 -8 59 -46 94 -61 20 -9 36 -11 36 -6 0 5 -12 12 -26
15 -14 4 -43 18 -65 32 -21 13 -39 22 -39 20z"/>
</g>
</svg>
