<?xml version="1.0" standalone="no"?>
<!DOCTYPE svg PUBLIC "-//W3C//DTD SVG 20010904//EN"
 "http://www.w3.org/TR/2001/REC-SVG-20010904/DTD/svg10.dtd">
<svg version="1.0" xmlns="http://www.w3.org/2000/svg"
 width="480.000000pt" height="360.000000pt" viewBox="0 0 480.000000 360.000000"
 preserveAspectRatio="xMidYMid meet">
<metadata>
Created by potrace 1.16, written by Peter Selinger 2001-2019
</metadata>
<rect width="1" height="360" fill="#000000"/>
<rect x="479" width="1" height="360" fill="#000000"/>
<rect width="480" height="1" fill="#000000"/>
<rect y="359" width="480" height="1" fill="#000000"/>
<g transform="translate(0.000000,360.000000) scale(0.100000,-0.100000)"
fill="#000000" stroke="none">
<path d="M0 2640 c0 -626 3 -960 10 -960 5 0 81 70 169 155 88 85 164 155 170
155 6 0 33 -11 59 -25 26 -13 112 -52 192 -85 80 -33 206 -94 280 -134 192
-104 257 -128 362 -134 92 -5 169 6 278 39 65 19 65 19 135 -1 109 -31 105
-33 187 82 116 161 139 183 254 239 128 64 137 73 123 123 -11 41 -10 46 18
50 29 5 26 30 -7 48 -31 17 -31 17 -41 -10 -5 -15 -12 -34 -16 -42 -3 -8 -11
14 -16 50 -10 64 -10 64 -19 31 -7 -26 -12 -31 -18 -21 -6 10 -11 -3 -16 -38
-8 -60 -24 -70 -24 -14 l-1 37 -14 -30 c-13 -29 -13 -28 -16 40 -2 59 -3 62
-6 22 -2 -26 -8 -45 -13 -42 -5 3 -12 -6 -16 -20 -10 -41 -24 -29 -25 23 0 44
-27 136 -28 100 -2 -36 -20 -26 -37 22 -20 56 -29 61 -46 25 -19 -42 -29 -28
-22 30 7 61 4 64 -51 41 -19 -8 -35 -13 -35 -11 0 3 20 32 45 66 47 63 55 85
31 76 -10 -4 -13 -1 -10 7 9 23 -15 28 -28 6 -7 -11 -18 -20 -24 -20 -14 0
-184 129 -184 139 0 5 9 16 20 26 11 10 20 30 20 45 0 29 15 40 54 40 32 0
130 104 121 128 -24 63 -27 112 -13 198 9 49 26 115 38 146 28 76 104 159 178
195 55 27 63 28 297 36 164 7 258 6 297 -1 165 -31 279 -132 341 -305 6 -17 9
-16 36 4 20 14 37 20 53 16 13 -4 37 0 53 9 42 22 119 29 153 15 50 -21 67
-76 65 -211 -1 -63 -2 -137 -2 -164 0 -27 6 -64 14 -84 20 -47 19 -49 -15 -67
-24 -12 -28 -19 -22 -33 13 -26 39 -124 67 -257 29 -137 29 -136 11 -112 -12
15 -14 9 -18 -45 -8 -93 -79 -295 -99 -282 -4 2 -10 -5 -14 -16 -3 -11 -11
-20 -16 -20 -5 0 -9 -10 -10 -22 -1 -18 -3 -16 -10 9 -7 22 -14 31 -24 27 -8
-4 -15 -11 -16 -18 -1 -19 -28 97 -30 129 -1 25 -3 23 -11 -15 -15 -71 -24
-67 -31 12 -4 40 -18 107 -32 148 -14 41 -28 102 -31 135 -9 106 -9 105 -59
105 -24 0 -46 -3 -48 -7 -2 -5 1 -35 8 -68 7 -33 11 -62 8 -65 -2 -3 -17 10
-32 29 l-28 34 -18 -44 c-13 -30 -20 -38 -22 -26 -7 30 -20 19 -32 -29 -10
-39 -14 -44 -26 -34 -13 10 -15 8 -16 -16 -1 -29 -1 -29 -13 6 l-13 35 -17
-54 c-9 -30 -16 -60 -16 -67 0 -7 -5 -16 -11 -19 -7 -5 -8 5 -3 30 5 27 4 36
-5 31 -6 -4 -11 -17 -11 -29 0 -12 -5 -29 -10 -37 -7 -11 -10 4 -11 50 l-1 65
-15 -34 c-11 -26 -17 -31 -23 -21 -7 12 -10 11 -16 -4 -9 -23 -24 -2 -24 34 0
14 -3 20 -8 14 -4 -6 -17 -14 -29 -18 -14 -5 -23 -15 -23 -27 0 -16 5 -19 20
-14 27 8 35 -15 21 -56 -8 -23 -8 -36 0 -45 6 -7 56 -36 112 -63 121 -60 127
-65 198 -157 136 -176 143 -184 168 -184 14 0 59 9 102 21 l77 21 67 -21 c94
-29 218 -42 298 -31 87 13 150 37 282 111 147 82 240 128 360 179 55 23 126
55 157 71 32 16 63 29 69 29 7 0 64 -51 128 -113 112 -109 212 -197 225 -197
3 0 6 425 6 945 l0 945 -2400 0 -2400 0 0 -960z"/>
<path d="M3000 2749 c0 -9 -15 -55 -34 -103 -34 -86 -34 -88 -20 -137 11 -37
22 -52 41 -60 14 -5 28 -7 31 -4 3 3 6 70 6 150 1 102 -3 148 -11 156 -11 11
-13 10 -13 -2z"/>
<path d="M2322 2241 c34 -14 123 -10 153 6 10 6 -21 9 -85 9 -96 -1 -100 -2
-68 -15z"/>
<path d="M4310 1834 c-98 -51 -105 -57 -101 -82 1 -15 7 -30 12 -33 5 -3 23
-40 39 -83 l30 -77 -24 -77 c-137 -432 -138 -434 -156 -416 -5 5 -26 93 -45
194 -20 102 -42 212 -50 245 l-14 60 35 74 c19 41 42 80 52 87 9 7 13 16 9 20
-28 28 -294 -126 -308 -179 -6 -21 -3 -30 12 -41 30 -21 80 -161 69 -194 -5
-15 -34 -121 -66 -237 -31 -116 -63 -216 -70 -224 -18 -20 -22 -9 -84 267
l-52 234 27 64 c15 36 35 72 43 80 8 8 12 17 9 20 -3 3 -65 8 -139 11 -109 4
-137 2 -153 -10 -20 -15 -20 -16 6 -36 15 -11 39 -50 55 -86 l28 -66 -48 -252
c-26 -139 -51 -256 -55 -260 -15 -16 -30 22 -101 255 l-73 236 19 68 c10 37
29 80 42 96 22 26 23 31 10 45 -13 12 -31 14 -101 8 l-85 -7 1 -43 c1 -29 -4
-49 -16 -63 -17 -19 -17 -22 -3 -50 9 -17 20 -34 26 -37 15 -9 -6 -42 -39 -59
l-27 -15 24 -93 c13 -51 26 -129 29 -173 l6 -81 46 -25 c25 -15 125 -84 221
-154 265 -195 232 -177 321 -169 156 13 339 -60 285 -115 -13 -12 -21 -13 -56
-1 -93 31 -54 -38 55 -96 110 -59 172 -76 270 -74 102 3 105 3 105 -14 0 -21
-108 -71 -198 -91 -72 -16 -94 -17 -168 -7 -79 10 -94 17 -204 82 -66 38 -151
82 -190 96 -107 38 -527 284 -603 353 -38 35 -82 109 -108 186 l-14 40 -7 -70
c-4 -46 -2 -109 9 -184 12 -88 13 -115 3 -121 -15 -9 -8 -33 37 -125 50 -101
106 -246 134 -348 l24 -87 877 0 878 0 0 488 c-1 459 -2 495 -24 632 l-23 145
23 47 c20 38 24 63 24 131 l0 84 -43 31 c-24 17 -67 52 -95 78 -29 25 -56 44
-59 40 -4 -3 0 -12 8 -19 9 -6 26 -46 38 -87 l22 -75 -31 -85 c-17 -47 -51
-141 -74 -210 -56 -160 -63 -177 -75 -184 -5 -4 -13 -1 -17 6 -4 7 -26 122
-49 257 l-41 246 34 68 c18 37 45 75 58 83 14 9 24 26 24 39 0 12 7 28 15 35
8 7 15 15 15 19 0 10 -100 121 -108 120 -4 0 -54 -25 -112 -55z"/>
<path d="M311 1801 c-54 -63 -60 -75 -36 -85 8 -3 15 -15 15 -28 0 -12 13 -36
29 -53 16 -16 41 -58 56 -91 l26 -61 -50 -244 c-28 -134 -56 -255 -62 -269
-10 -23 -12 -23 -23 -8 -7 9 -39 108 -71 220 -32 112 -64 222 -72 245 -12 39
-12 46 13 110 15 37 33 75 41 84 30 36 10 29 -34 -12 -27 -25 -69 -60 -95 -78
l-48 -34 0 -96 c0 -64 5 -109 16 -138 15 -39 15 -49 0 -123 -14 -68 -16 -161
-16 -610 l0 -530 878 0 877 0 29 103 c33 112 81 238 128 331 24 47 30 72 30
120 -1 34 4 99 9 146 6 47 7 119 3 160 -7 79 -12 78 -34 -8 -8 -30 -15 -42
-25 -38 -9 3 -23 -11 -39 -38 -39 -66 -102 -117 -319 -260 -266 -174 -329
-211 -412 -240 -39 -13 -119 -46 -180 -72 -109 -48 -111 -49 -210 -48 -71 1
-109 6 -131 17 -18 9 -51 23 -74 31 -51 17 -140 76 -140 92 0 20 28 24 82 13
67 -15 150 -5 268 32 62 20 103 39 117 55 41 45 26 66 -30 45 -18 -7 -30 -6
-43 3 -22 16 -14 39 23 63 39 26 213 26 262 1 19 -10 39 -18 45 -18 6 0 41 24
77 53 263 212 376 301 428 337 55 37 61 44 61 76 0 44 25 167 51 248 17 56 18
62 3 71 -9 6 -29 20 -43 32 l-26 22 34 35 33 34 -22 31 c-14 21 -20 42 -18 64
l3 32 -83 3 c-104 4 -125 -8 -88 -47 14 -15 35 -57 46 -94 l21 -68 -66 -227
c-87 -298 -85 -292 -100 -292 -7 0 -15 15 -19 33 -30 144 -86 465 -86 487 0
40 55 156 80 170 30 16 11 36 -41 43 -40 5 -239 -9 -248 -18 -2 -3 3 -13 11
-22 20 -24 61 -128 60 -156 0 -29 -117 -515 -126 -524 -16 -16 -30 28 -88 270
l-61 258 28 72 c16 40 37 78 47 86 10 7 18 26 18 42 0 24 -12 35 -82 83 -85
55 -213 114 -226 102 -3 -4 -1 -15 6 -24 7 -9 28 -49 48 -89 l35 -71 -58 -264
c-44 -201 -62 -263 -73 -263 -11 0 -31 59 -77 225 -80 290 -80 290 -49 369 14
35 32 71 40 80 7 9 16 28 19 42 6 23 2 27 -51 49 -31 13 -80 36 -108 52 -28
15 -53 28 -56 28 -3 0 -29 -26 -57 -59z"/>
</g>
</svg>
