<?xml version="1.0" standalone="no"?>
<!DOCTYPE svg PUBLIC "-//W3C//DTD SVG 20010904//EN"
 "http://www.w3.org/TR/2001/REC-SVG-20010904/DTD/svg10.dtd">
<svg version="1.0" xmlns="http://www.w3.org/2000/svg"
 width="480.000000pt" height="360.000000pt" viewBox="0 0 480.000000 360.000000"
 preserveAspectRatio="xMidYMid meet">
<metadata>
Created by potrace 1.16, written by Peter Selinger 2001-2019
</metadata>
<rect width="1" height="360" fill="#000000"/>
<rect x="479" width="1" height="360" fill="#000000"/>
<rect width="480" height="1" fill="#000000"/>
<rect y="359" width="480" height="1" fill="#000000"/>
<g transform="translate(0.000000,360.000000) scale(0.100000,-0.100000)"
fill="#000000" stroke="none">
<path d="M357 3593 c-11 -10 -8 -273 3 -334 5 -30 14 -121 20 -204 6 -82 13
-173 16 -202 6 -52 6 -52 -29 -69 -19 -9 -40 -28 -47 -42 -6 -14 -24 -42 -39
-61 -34 -43 -44 -106 -26 -157 25 -72 61 -64 87 19 6 21 14 36 18 35 3 -2 24
-23 47 -48 51 -57 62 -107 38 -183 -17 -56 -53 -87 -100 -87 -13 0 -27 -4 -30
-10 -3 -5 -14 -10 -24 -10 -24 0 -48 -20 -56 -47 -6 -22 -4 -23 54 -23 55 0
61 -2 73 -27 12 -26 18 -28 71 -28 l57 -1 62 -66 c63 -67 98 -85 141 -74 54
14 57 25 42 162 -11 100 -4 117 57 154 29 18 67 43 85 56 29 22 31 27 21 49
-13 30 -15 30 -78 6 -57 -22 -59 -19 -35 49 8 24 33 62 54 85 61 66 73 103 24
72 -7 -4 -1 16 12 45 22 49 23 59 15 121 -6 38 -15 77 -20 88 -12 22 -29 25
-31 7 -1 -7 -4 -2 -8 12 -4 15 -14 24 -24 24 -9 -1 -17 4 -17 12 0 17 -17 19
-22 2 -5 -14 -76 -19 -84 -6 -10 15 63 153 113 216 25 31 80 93 123 137 94 98
122 138 119 168 -2 12 2 32 9 44 17 31 15 43 -7 43 -10 0 -24 7 -32 16 -10 12
-23 14 -54 10 -28 -5 -46 -2 -60 8 -11 9 -42 16 -70 16 -27 0 -61 7 -75 15
-19 11 -68 14 -206 15 -99 0 -184 -3 -187 -7z"/>
<path d="M2400 1800 l0 -1800 823 0 824 0 13 27 c40 86 62 175 71 288 5 66 16
146 24 178 10 39 12 64 5 75 -26 46 -25 46 -83 4 -30 -23 -67 -44 -81 -48 -22
-5 -27 -2 -36 22 -15 39 -10 173 7 207 25 50 5 43 -57 -18 -63 -62 -74 -61
-40 5 22 44 24 50 11 50 -5 0 -14 -14 -21 -30 -13 -30 -13 -30 -27 -10 -14 20
-16 21 -35 3 -15 -13 -19 -14 -16 -3 2 9 -3 14 -11 12 -8 -2 -11 3 -8 12 4 9
1 15 -6 13 -19 -3 -11 77 11 126 11 23 25 57 31 75 18 55 48 88 137 149 60 40
92 69 105 95 12 24 15 38 8 38 -6 0 3 16 20 35 17 20 31 40 31 45 0 5 13 24
29 42 16 18 30 42 32 52 5 26 52 59 84 58 15 0 39 7 54 14 59 31 104 6 84 -47
-10 -24 -8 -31 6 -42 21 -14 61 -88 61 -112 0 -8 -16 -25 -35 -37 -19 -13 -35
-30 -35 -39 0 -19 -54 -72 -63 -62 -4 3 -7 4 -7 1 0 -3 29 -36 65 -72 74 -75
85 -97 85 -165 0 -63 16 -86 53 -72 26 10 38 41 16 41 -5 0 -7 5 -4 10 3 6 -1
10 -9 10 -9 0 -16 6 -16 13 1 50 62 46 84 -6 67 -161 63 -213 -23 -296 -31
-31 -74 -65 -95 -76 -38 -20 -38 -20 -33 -70 3 -27 27 -106 53 -175 29 -77 53
-162 62 -222 l16 -98 118 0 118 0 0 1800 0 1800 -1200 0 -1200 0 0 -1800z"/>
</g>
</svg>
