<?xml version="1.0" standalone="no"?>
<!DOCTYPE svg PUBLIC "-//W3C//DTD SVG 20010904//EN"
 "http://www.w3.org/TR/2001/REC-SVG-20010904/DTD/svg10.dtd">
<svg version="1.0" xmlns="http://www.w3.org/2000/svg"
 width="480.000000pt" height="360.000000pt" viewBox="0 0 480.000000 360.000000"
 preserveAspectRatio="xMidYMid meet">
<metadata>
Created by potrace 1.16, written by Peter Selinger 2001-2019
</metadata>
<rect width="1" height="360" fill="#000000"/>
<rect x="479" width="1" height="360" fill="#000000"/>
<rect width="480" height="1" fill="#000000"/>
<rect y="359" width="480" height="1" fill="#000000"/>
<g transform="translate(0.000000,360.000000) scale(0.100000,-0.100000)"
fill="#000000" stroke="none">
<path d="M0 1800 l0 -1800 2400 0 2400 0 0 1800 0 1800 -1024 0 -1024 0 10
-42 c19 -84 -8 -239 -60 -343 -30 -61 -62 -103 -169 -222 -92 -103 -112 -136
-122 -202 l-7 -46 -13 40 c-8 25 -71 115 -162 230 -82 105 -163 217 -180 251
-41 82 -56 173 -43 263 l10 71 -1008 0 -1008 0 0 -1800z m2428 743 c9 -7 27
-13 40 -13 42 0 100 -41 147 -105 48 -66 66 -74 155 -75 64 0 141 -28 236 -85
52 -31 105 -66 119 -78 26 -22 26 -22 14 -96 -8 -47 -20 -83 -34 -99 -20 -23
-22 -24 -39 -7 -20 20 -27 15 -46 -35 -22 -55 -50 -88 -95 -110 -55 -26 -91
-25 -140 5 -52 32 -66 31 -99 -4 -15 -17 -39 -43 -54 -59 -15 -15 -35 -33 -46
-39 -17 -9 -17 -12 -2 -41 19 -36 20 -59 5 -64 -13 -4 6 -85 26 -108 22 -27
36 -80 25 -100 -12 -22 3 -36 19 -17 13 16 17 65 7 94 -10 32 14 41 37 12 43
-54 -3 -163 -67 -157 -26 3 -33 10 -46 45 -9 24 -21 48 -28 55 -16 16 -15 9 4
-43 8 -24 26 -104 40 -178 13 -74 42 -204 64 -289 23 -85 44 -182 47 -217 5
-58 4 -62 -17 -68 -20 -5 -22 -10 -17 -41 6 -36 6 -36 -32 -36 -21 0 -53 -3
-71 -6 -26 -6 -31 -10 -26 -28 3 -12 0 -35 -6 -53 -9 -26 -9 -36 5 -57 45 -68
0 -128 -69 -91 -37 20 -42 40 -19 71 16 22 20 80 5 89 -6 3 -7 18 -4 31 l7 25
-39 -20 c-21 -12 -46 -21 -56 -21 -12 0 -21 -13 -28 -41 -11 -40 -10 -43 19
-73 17 -18 31 -38 31 -44 0 -14 -75 -51 -103 -52 -28 0 -43 44 -29 84 25 69 7
116 -47 116 -20 0 -47 12 -77 35 -29 22 -57 35 -76 35 -20 0 -39 9 -58 30 -15
17 -38 30 -49 30 -29 0 -37 25 -18 54 14 21 14 25 0 39 -15 15 -13 21 20 69
21 29 60 82 87 118 47 61 62 100 40 100 -5 0 -10 14 -10 31 0 24 -3 29 -12 21
-9 -7 -17 -6 -25 3 -6 7 -10 14 -9 16 2 2 6 33 10 67 7 66 -6 81 -19 22 -4
-17 -11 -30 -16 -30 -5 0 -6 12 -3 28 11 44 10 47 -8 44 -13 -2 -18 4 -18 20
0 32 14 50 32 43 16 -6 33 20 23 35 -3 5 -1 20 5 35 5 14 12 48 14 74 2 34 17
74 50 135 60 109 57 124 -19 118 -70 -6 -107 10 -128 54 -21 43 -38 50 -71 29
-22 -15 -31 -16 -57 -5 -22 10 -28 17 -23 29 4 9 11 43 17 76 5 33 11 71 14
85 7 38 196 219 270 258 34 18 64 40 67 50 2 9 10 42 16 72 18 79 35 106 90
146 32 23 47 40 43 50 -3 8 -2 22 2 32 4 9 9 37 11 62 1 25 3 47 3 50 1 3 17
-24 37 -60 20 -36 43 -71 52 -77z"/>
<path d="M3089 2115 c-34 -19 -42 -49 -21 -86 22 -38 29 -37 41 9 25 103 26
102 -20 77z"/>
<path d="M2929 1975 c-61 -12 -135 -42 -167 -68 -11 -8 -4 -16 30 -33 56 -30
117 -31 152 -3 37 29 83 121 59 118 -5 0 -38 -7 -74 -14z"/>
<path d="M1850 1883 c-1 -10 -7 -35 -14 -55 -12 -35 -12 -38 6 -44 40 -12 60
33 38 90 -11 30 -30 35 -30 9z"/>
<path d="M2540 1837 c0 -15 34 -67 44 -67 7 0 27 16 46 35 l34 35 -62 0 c-34
0 -62 -2 -62 -3z"/>
<path d="M1973 1812 c-13 -2 -23 -5 -23 -7 0 -10 53 -81 65 -88 35 -19 115 -8
148 21 29 25 20 40 -39 62 -51 19 -88 22 -151 12z"/>
<path d="M2530 1515 c0 -5 5 -17 10 -25 5 -8 10 -10 10 -5 0 6 -5 17 -10 25
-5 8 -10 11 -10 5z"/>
<path d="M2051 1104 c0 -11 3 -14 6 -6 3 7 2 16 -1 19 -3 4 -6 -2 -5 -13z"/>
</g>
</svg>
