<?xml version="1.0" standalone="no"?>
<!DOCTYPE svg PUBLIC "-//W3C//DTD SVG 20010904//EN"
 "http://www.w3.org/TR/2001/REC-SVG-20010904/DTD/svg10.dtd">
<svg version="1.0" xmlns="http://www.w3.org/2000/svg"
 width="480.000000pt" height="360.000000pt" viewBox="0 0 480.000000 360.000000"
 preserveAspectRatio="xMidYMid meet">
<metadata>
Created by potrace 1.16, written by Peter Selinger 2001-2019
</metadata>
<rect width="1" height="360" fill="#000000"/>
<rect x="479" width="1" height="360" fill="#000000"/>
<rect width="480" height="1" fill="#000000"/>
<rect y="359" width="480" height="1" fill="#000000"/>
<g transform="translate(0.000000,360.000000) scale(0.100000,-0.100000)"
fill="#000000" stroke="none">
<path d="M3406 3484 c-9 -8 -16 -19 -16 -24 0 -4 -21 -28 -47 -53 -107 -101
-321 -238 -357 -229 -36 10 -65 -33 -46 -69 10 -17 17 -20 47 -14 31 5 35 4
29 -10 -3 -9 -6 -20 -6 -24 0 -30 -225 -53 -283 -29 -25 10 -31 8 -53 -13 -15
-16 -26 -41 -30 -71 -6 -41 -4 -48 12 -54 21 -7 62 -23 82 -33 14 -7 60 -126
69 -179 4 -27 9 -33 25 -29 16 5 19 1 16 -26 -2 -22 1 -31 10 -30 6 2 12 -6
12 -17 0 -12 7 -20 16 -20 11 0 14 -5 10 -16 -3 -9 -6 -19 -6 -23 0 -5 -20
-16 -45 -25 -25 -10 -45 -22 -45 -26 0 -5 11 -21 25 -35 18 -21 23 -34 18 -56
-3 -16 -1 -35 5 -41 6 -7 13 -31 18 -52 5 -31 4 -38 -7 -34 -8 3 -80 52 -161
108 -113 77 -171 126 -245 205 -139 146 -201 184 -370 225 -23 6 -45 16 -49
22 -4 6 -8 36 -9 67 -2 61 -34 154 -66 195 -23 29 -66 35 -75 11 -10 -26 -21
-16 -33 30 -13 51 -5 93 29 160 39 77 15 97 -65 51 -65 -39 -115 -123 -135
-228 -14 -71 -2 -104 81 -237 41 -66 73 -129 76 -150 2 -20 9 -47 14 -61 7
-18 5 -57 -6 -123 -36 -226 -9 -477 53 -477 9 0 53 36 97 79 l80 79 46 -12
c26 -7 68 -30 95 -52 27 -22 142 -101 255 -176 114 -75 209 -140 213 -146 3
-6 -6 -17 -21 -24 -24 -12 -28 -19 -28 -58 -1 -44 -25 -94 -90 -185 -45 -62
-93 -162 -108 -226 -15 -60 -15 -72 -2 -115 8 -27 24 -60 34 -74 l19 -24 -35
-64 c-36 -65 -36 -72 2 -85 6 -2 -8 -25 -30 -50 -22 -25 -51 -60 -64 -78 -24
-31 -24 -32 -6 -45 36 -26 60 -10 88 58 8 20 25 41 36 48 28 14 27 8 -10 -44
-20 -28 -33 -61 -36 -90 -5 -41 -2 -51 22 -76 26 -27 27 -32 20 -95 -4 -39
-12 -68 -20 -71 -17 -7 -30 -293 -20 -428 l7 -96 900 0 900 0 -3 103 c-1 56 1
142 6 192 11 132 -30 324 -161 753 -119 387 -129 431 -145 592 -14 141 8 399
36 430 13 15 14 22 4 37 -9 15 -8 49 4 154 14 125 18 139 51 189 49 75 63 142
48 241 -14 96 -61 234 -104 308 -67 112 -263 278 -381 323 -27 10 -79 22 -113
25 -35 3 -64 9 -64 13 0 3 12 17 26 31 14 13 30 35 36 49 8 20 5 28 -12 42
-27 22 -44 23 -64 2z m29 -2916 c3 -24 19 -135 35 -248 16 -112 27 -206 25
-208 -2 -3 -7 9 -11 24 -3 16 -22 82 -41 147 -39 137 -73 275 -73 299 0 15 15
24 47 27 7 0 14 -18 18 -41z"/>
</g>
</svg>
