<?xml version="1.0" standalone="no"?>
<!DOCTYPE svg PUBLIC "-//W3C//DTD SVG 20010904//EN"
 "http://www.w3.org/TR/2001/REC-SVG-20010904/DTD/svg10.dtd">
<svg version="1.0" xmlns="http://www.w3.org/2000/svg"
 width="480.000000pt" height="360.000000pt" viewBox="0 0 480.000000 360.000000"
 preserveAspectRatio="xMidYMid meet">
<metadata>
Created by potrace 1.16, written by Peter Selinger 2001-2019
</metadata>
<rect width="1" height="360" fill="#000000"/>
<rect x="479" width="1" height="360" fill="#000000"/>
<rect width="480" height="1" fill="#000000"/>
<rect y="359" width="480" height="1" fill="#000000"/>
<g transform="translate(0.000000,360.000000) scale(0.100000,-0.100000)"
fill="#000000" stroke="none">
<path d="M0 1800 l0 -1800 925 0 925 0 0 33 c0 36 36 181 73 293 22 69 22 73
5 94 -23 28 -58 141 -58 186 0 18 7 53 15 77 8 24 21 71 28 103 12 53 17 61
55 82 28 16 64 25 114 28 77 5 144 21 167 38 23 18 8 105 -31 187 -20 41 -68
117 -107 169 -123 165 -143 229 -97 320 18 36 22 120 6 120 -5 0 -10 10 -10
23 0 12 -8 44 -19 71 l-18 48 -7 -33 c-7 -33 -8 -33 -19 -11 -6 13 -16 21 -24
18 -7 -3 -13 1 -13 10 0 9 -5 12 -12 8 -8 -5 -9 3 -5 29 3 20 1 37 -4 39 -7 2
-6 13 0 32 6 15 13 78 15 139 2 62 7 123 10 137 6 20 0 32 -28 59 -29 28 -33
37 -23 49 6 8 12 31 12 51 0 34 2 37 50 52 50 16 60 35 29 52 -25 14 -15 48
25 88 43 43 76 49 116 23 33 -21 50 -13 74 34 37 73 129 81 161 14 l15 -32 27
26 c34 35 71 27 100 -22 18 -31 23 -34 53 -28 43 8 92 -20 100 -55 3 -14 1
-42 -5 -61 -15 -53 -12 -81 11 -106 l21 -23 -21 -35 c-17 -28 -20 -39 -12 -55
6 -11 18 -49 26 -85 8 -35 18 -73 22 -83 5 -14 1 -13 -20 6 l-27 24 0 -69 c0
-52 6 -82 25 -122 28 -60 31 -72 13 -54 -21 21 -30 13 -23 -18 9 -40 -9 -39
-26 2 l-13 31 -10 -31 c-14 -39 -26 -51 -27 -26 -1 27 -28 -33 -29 -65 0 -34
121 -189 243 -310 l106 -105 19 25 20 24 33 -37 c19 -20 43 -37 54 -40 13 -2
21 -12 23 -28 2 -17 16 -32 42 -48 31 -17 40 -29 40 -49 0 -15 8 -35 17 -45 9
-10 18 -38 19 -63 2 -28 11 -56 27 -77 52 -71 43 -146 -26 -201 -63 -51 -143
-57 -136 -11 2 11 0 24 -4 31 -4 7 1 29 11 50 11 21 23 49 27 62 6 20 5 23
-10 17 -10 -4 -28 0 -42 9 -13 9 -35 14 -49 13 -24 -3 -28 2 -44 50 -10 29
-19 55 -22 57 -2 3 -18 -1 -35 -7 -39 -15 -43 -33 -43 -189 0 -75 -4 -120 -11
-125 -15 -9 -4 -59 21 -94 24 -33 26 -63 5 -84 -13 -13 -13 -23 0 -94 9 -44
33 -145 55 -224 21 -78 41 -161 45 -183 3 -22 8 -55 11 -72 l5 -33 934 0 935
0 0 1800 0 1800 -2400 0 -2400 0 0 -1800z"/>
<path d="M2070 1705 c0 -23 2 -24 20 -15 11 6 20 13 20 15 0 2 -9 9 -20 15
-18 9 -20 8 -20 -15z"/>
</g>
</svg>
