<?xml version="1.0" standalone="no"?>
<!DOCTYPE svg PUBLIC "-//W3C//DTD SVG 20010904//EN"
 "http://www.w3.org/TR/2001/REC-SVG-20010904/DTD/svg10.dtd">
<svg version="1.0" xmlns="http://www.w3.org/2000/svg"
 width="480.000000pt" height="360.000000pt" viewBox="0 0 480.000000 360.000000"
 preserveAspectRatio="xMidYMid meet">
<metadata>
Created by potrace 1.16, written by Peter Selinger 2001-2019
</metadata>
<rect width="1" height="360" fill="#000000"/>
<rect x="479" width="1" height="360" fill="#000000"/>
<rect width="480" height="1" fill="#000000"/>
<rect y="359" width="480" height="1" fill="#000000"/>
<g transform="translate(0.000000,360.000000) scale(0.100000,-0.100000)"
fill="#000000" stroke="none">
<path d="M0 1800 l0 -1800 1274 0 1274 0 6 23 c15 58 8 74 -41 91 -62 21 -95
20 -153 -5 -27 -12 -56 -19 -63 -16 -8 3 -17 27 -21 55 -5 41 -12 54 -46 81
-27 21 -43 44 -50 71 -5 22 -15 59 -21 83 -6 23 -20 54 -30 69 -22 30 -24 57
-6 114 12 39 43 91 215 349 130 197 168 285 119 277 -24 -4 -22 3 15 56 18 26
33 49 33 52 2 20 32 93 53 132 15 26 23 50 20 54 -4 3 -25 -7 -47 -22 -34 -24
-42 -37 -51 -81 -12 -55 -42 -103 -66 -103 -8 0 -14 8 -15 18 0 11 -2 12 -6 4
-3 -7 0 -19 7 -26 8 -10 8 -16 0 -21 -8 -5 -8 -11 0 -20 16 -19 4 -35 -25 -35
-20 0 -30 11 -54 57 -50 100 -49 134 1 190 16 17 18 25 9 42 -7 12 -18 21 -26
21 -9 0 -21 22 -32 58 -15 47 -18 87 -15 230 3 206 12 234 122 426 40 70 84
164 103 221 35 103 65 170 99 217 22 32 19 41 -22 58 -16 7 -30 19 -30 28 0
12 10 14 55 9 l54 -5 50 54 c44 48 49 58 39 74 -7 11 -10 22 -6 25 7 7 58 -15
58 -25 0 -13 84 -30 91 -19 3 5 13 7 22 3 10 -3 33 3 53 15 46 27 56 20 15
-10 -17 -13 -31 -26 -31 -30 0 -3 22 -16 49 -28 49 -21 91 -61 91 -87 0 -7 14
-21 31 -31 28 -17 30 -21 25 -59 -5 -37 -3 -42 25 -58 37 -22 31 -31 -19 -28
-32 2 -39 -2 -52 -29 -9 -17 -33 -41 -55 -53 -28 -16 -41 -30 -43 -49 -2 -16
-11 -29 -23 -32 -28 -9 -64 -92 -48 -111 6 -8 16 -14 21 -14 5 0 30 -16 54
-36 41 -34 44 -40 38 -70 -4 -21 -2 -40 6 -49 7 -8 16 -51 21 -95 6 -52 18
-99 34 -130 14 -27 25 -61 25 -74 0 -36 -20 -75 -43 -82 -18 -6 -19 -12 -14
-63 4 -32 2 -62 -2 -67 -6 -5 11 -91 40 -204 26 -107 60 -262 74 -345 15 -82
35 -169 47 -193 12 -26 18 -54 15 -70 -3 -15 1 -45 9 -67 7 -22 20 -71 29
-108 9 -38 31 -111 49 -162 19 -52 37 -117 41 -145 7 -48 6 -50 -20 -60 -15
-6 -39 -20 -54 -31 -24 -19 -34 -20 -122 -14 -87 6 -101 4 -138 -14 -23 -12
-41 -25 -41 -29 0 -4 -6 -40 -14 -79 l-14 -73 924 0 924 0 0 1800 0 1800
-2400 0 -2400 0 0 -1800z"/>
<path d="M2626 1932 c-3 -5 -8 -36 -12 -68 -8 -85 -13 -95 -29 -59 -14 32 -13
33 -39 -40 -8 -22 -18 -39 -23 -38 -6 1 -8 -9 -5 -22 3 -18 11 -25 27 -25 13
0 30 -3 39 -6 11 -4 16 4 20 33 4 21 15 78 26 127 13 54 17 93 11 99 -5 5 -11
5 -15 -1z"/>
<path d="M2761 147 c-6 -8 -10 -31 -9 -53 2 -21 -1 -51 -5 -66 -5 -21 -4 -28
7 -28 16 0 22 21 32 103 7 57 -1 72 -25 44z"/>
</g>
</svg>
