<?xml version="1.0" standalone="no"?>
<!DOCTYPE svg PUBLIC "-//W3C//DTD SVG 20010904//EN"
 "http://www.w3.org/TR/2001/REC-SVG-20010904/DTD/svg10.dtd">
<svg version="1.0" xmlns="http://www.w3.org/2000/svg"
 width="480.000000pt" height="360.000000pt" viewBox="0 0 480.000000 360.000000"
 preserveAspectRatio="xMidYMid meet">
<metadata>
Created by potrace 1.16, written by Peter Selinger 2001-2019
</metadata>
<rect width="1" height="360" fill="#000000"/>
<rect x="479" width="1" height="360" fill="#000000"/>
<rect width="480" height="1" fill="#000000"/>
<rect y="359" width="480" height="1" fill="#000000"/>
<g transform="translate(0.000000,360.000000) scale(0.100000,-0.100000)"
fill="#000000" stroke="none">
<path d="M2390 957 c0 -20 -11 -22 -30 -4 -12 10 -12 9 -1 -5 11 -15 11 -19
-3 -24 -15 -6 -15 -8 1 -20 17 -12 15 -16 -27 -53 -25 -22 -51 -40 -58 -41 -7
0 -20 -9 -29 -20 -10 -11 -25 -20 -35 -20 -26 0 -22 -20 9 -52 24 -25 26 -34
25 -104 0 -42 -3 -78 -6 -81 -3 -3 0 -15 6 -27 27 -47 16 -70 -38 -85 -39 -10
-54 -38 -31 -56 15 -11 17 -19 9 -47 -5 -18 -7 -44 -5 -58 3 -14 4 -67 3 -118
-2 -84 0 -96 20 -117 18 -19 27 -22 46 -15 15 6 24 6 24 0 0 -6 50 -10 125
-10 118 0 125 1 125 20 0 22 10 26 27 9 16 -16 51 6 59 37 4 15 4 57 1 95 -4
42 -2 71 4 75 7 4 8 28 4 64 -5 47 -4 58 9 63 33 13 15 38 -49 69 -63 29 -65
32 -49 49 20 22 28 25 19 7 -4 -7 2 -3 12 10 18 21 18 30 7 110 -10 80 -10 89
7 111 23 29 26 66 4 57 -8 -3 -15 -1 -15 4 0 6 -5 10 -10 10 -13 0 -19 5 -83
61 -47 41 -48 43 -26 54 19 11 20 13 4 19 -14 5 -15 9 -5 21 8 10 9 15 2 15
-6 0 -14 -5 -18 -12 -5 -7 -11 -5 -21 7 -12 17 -13 17 -13 2z"/>
<path d="M3947 873 c-4 -3 1 -12 10 -19 14 -10 16 -17 8 -40 -6 -16 -19 -30
-29 -32 -11 -2 -29 -17 -42 -32 -13 -15 -38 -33 -56 -40 -18 -8 -45 -22 -59
-31 -14 -10 -30 -15 -34 -11 -5 4 -5 -1 -2 -11 5 -14 2 -20 -13 -24 -26 -7
-25 -15 6 -52 25 -30 25 -33 13 -79 -11 -43 -9 -55 11 -116 17 -51 28 -70 46
-76 30 -12 31 -26 1 -34 -13 -3 -42 -28 -66 -55 -40 -49 -41 -51 -26 -75 10
-15 14 -33 9 -50 -3 -14 -3 -42 0 -61 l7 -35 274 0 c151 0 275 3 275 8 0 4 -7
16 -15 26 -8 11 -15 27 -15 36 0 10 -13 35 -29 57 -16 22 -26 45 -21 49 20 22
-10 50 -84 78 -73 27 -98 54 -45 48 19 -2 29 6 48 41 21 39 23 52 18 114 -6
61 -4 71 13 86 33 28 22 105 -12 92 -9 -4 -18 0 -21 9 -4 9 -12 16 -20 16 -7
0 -37 25 -67 55 -42 43 -52 57 -42 67 18 18 15 63 -6 81 -20 19 -26 20 -35 10z"/>
<path d="M861 857 c-7 -10 -24 -17 -37 -17 -27 0 -31 -12 -9 -30 11 -9 12 -16
5 -25 -6 -7 -10 -17 -9 -21 1 -5 1 -14 0 -21 -1 -13 -122 -91 -129 -83 -3 3
-8 -5 -13 -17 -5 -14 -17 -23 -29 -23 -30 0 -25 -27 14 -71 31 -33 34 -42 26
-68 -14 -49 15 -115 55 -122 11 -2 26 -17 35 -32 18 -34 16 -35 -90 -73 -102
-37 -108 -43 -84 -91 10 -21 19 -58 19 -83 2 -85 -12 -80 249 -80 l231 0 14
31 c9 20 11 47 7 77 -5 34 -2 50 10 63 32 35 -5 66 -149 123 -40 16 -46 38
-11 44 54 10 90 83 79 160 -5 41 -3 51 14 66 26 23 30 89 6 80 -8 -4 -15 -1
-15 5 0 6 -7 11 -15 11 -8 0 -15 4 -15 9 0 5 -13 14 -29 20 -15 7 -44 28 -62
48 -30 31 -31 34 -9 23 14 -7 35 -22 48 -34 23 -21 24 -21 38 -2 23 32 17 55
-18 70 -18 8 -50 22 -70 30 -20 9 -38 24 -40 33 -3 15 -4 15 -17 0z"/>
</g>
</svg>
