<?xml version="1.0" standalone="no"?>
<!DOCTYPE svg PUBLIC "-//W3C//DTD SVG 20010904//EN"
 "http://www.w3.org/TR/2001/REC-SVG-20010904/DTD/svg10.dtd">
<svg version="1.0" xmlns="http://www.w3.org/2000/svg"
 width="480.000000pt" height="360.000000pt" viewBox="0 0 480.000000 360.000000"
 preserveAspectRatio="xMidYMid meet">
<metadata>
Created by potrace 1.16, written by Peter Selinger 2001-2019
</metadata>
<rect width="1" height="360" fill="#000000"/>
<rect x="479" width="1" height="360" fill="#000000"/>
<rect width="480" height="1" fill="#000000"/>
<rect y="359" width="480" height="1" fill="#000000"/>
<g transform="translate(0.000000,360.000000) scale(0.100000,-0.100000)"
fill="#000000" stroke="none">
<path d="M1313 2856 c-12 -24 -31 -47 -42 -51 -23 -7 -27 -20 -11 -30 6 -4 7
-12 3 -18 -4 -7 -8 -29 -9 -49 -1 -21 -20 -72 -42 -115 -39 -78 -63 -151 -45
-140 5 4 17 -9 26 -28 18 -39 28 -43 47 -20 12 14 17 12 49 -18 20 -19 44 -37
54 -40 9 -4 17 -16 17 -27 0 -16 -6 -20 -34 -20 -47 0 -64 -22 -42 -55 17 -25
16 -26 -49 -90 -36 -35 -65 -70 -65 -78 0 -7 -15 -30 -34 -50 -70 -76 -53
-158 39 -190 5 -2 8 -42 6 -93 -2 -89 -20 -140 -68 -196 -9 -10 -12 -25 -8
-38 4 -13 -4 -52 -21 -101 -21 -60 -25 -82 -16 -88 9 -6 8 -21 -7 -63 -27 -80
-46 -180 -81 -443 -24 -178 -89 -764 -90 -807 0 -5 214 -8 475 -8 351 0 475 3
475 11 0 7 -11 91 -25 188 -14 97 -34 273 -45 391 -11 121 -31 263 -45 325
-23 99 -91 333 -110 378 -5 12 -3 17 9 17 20 0 20 14 0 31 -20 16 -15 59 21
182 28 99 30 130 11 237 -9 52 -10 77 -3 82 12 7 13 54 3 79 -4 8 0 32 9 52 8
20 15 45 15 55 0 36 -62 207 -83 230 -20 22 -18 26 14 23 8 -1 24 8 34 19 24
27 55 27 48 0 -5 -21 11 -28 22 -10 4 6 10 8 15 5 5 -3 11 -1 15 5 4 6 10 8
15 5 15 -9 60 79 60 118 0 39 -26 151 -43 182 -6 11 -10 36 -8 57 1 28 -4 40
-24 57 -15 11 -39 38 -55 59 -39 55 -91 83 -179 99 -101 19 -119 18 -142 -3
-18 -16 -19 -16 -19 4 0 34 -14 26 -37 -22z m297 -538 c0 -16 -3 -19 -11 -11
-6 6 -8 16 -5 22 11 17 16 13 16 -11z"/>
<path d="M3538 2169 c-39 -40 -187 -169 -194 -169 -2 0 -37 9 -76 20 -40 11
-79 20 -88 20 -25 0 -72 -43 -65 -61 3 -8 39 -42 81 -74 50 -40 71 -62 64 -69
-18 -18 -11 -71 12 -96 19 -20 19 -24 6 -34 -23 -17 -18 -99 8 -128 19 -21 20
-27 9 -63 -10 -34 -17 -41 -49 -48 -32 -8 -40 -16 -61 -62 -13 -29 -53 -97
-89 -151 -37 -54 -69 -107 -72 -119 -3 -12 6 -60 20 -106 14 -46 30 -102 36
-125 7 -28 18 -44 35 -52 14 -6 25 -20 25 -30 0 -10 5 -23 11 -29 7 -7 5 -46
-10 -134 -11 -68 -23 -158 -27 -199 -3 -41 -13 -95 -20 -120 -8 -25 -14 -48
-14 -53 0 -4 20 -27 45 -50 l45 -44 2 -96 2 -97 67 0 67 0 7 42 c21 135 50
142 75 21 l13 -63 73 0 73 0 6 48 c3 26 7 53 8 61 1 8 24 19 50 26 27 7 56 20
65 29 18 18 15 40 -32 210 -33 117 -68 332 -61 367 4 15 17 34 30 43 13 8 29
32 35 53 7 21 30 73 51 115 22 43 39 91 39 108 0 17 -20 77 -44 133 -25 56
-56 134 -71 174 -25 71 -25 72 -9 137 22 86 30 92 83 57 61 -40 117 -65 135
-58 8 3 18 22 22 42 6 32 1 43 -45 105 -28 39 -51 77 -51 85 0 7 22 69 50 137
27 68 50 133 50 145 0 56 -155 173 -240 181 -45 4 -52 2 -82 -29z m51 -1050
c1 -14 -56 -65 -64 -57 -3 3 3 40 22 128 5 24 6 23 23 -15 10 -22 19 -47 19
-56z m-389 30 c-8 -14 -15 -18 -22 -11 -7 7 -4 19 9 38 14 22 19 24 21 12 2
-10 -2 -27 -8 -39z"/>
</g>
</svg>
