<?xml version="1.0" standalone="no"?>
<!DOCTYPE svg PUBLIC "-//W3C//DTD SVG 20010904//EN"
 "http://www.w3.org/TR/2001/REC-SVG-20010904/DTD/svg10.dtd">
<svg version="1.0" xmlns="http://www.w3.org/2000/svg"
 width="480.000000pt" height="360.000000pt" viewBox="0 0 480.000000 360.000000"
 preserveAspectRatio="xMidYMid meet">
<metadata>
Created by potrace 1.16, written by Peter Selinger 2001-2019
</metadata>
<rect width="1" height="360" fill="#000000"/>
<rect x="479" width="1" height="360" fill="#000000"/>
<rect width="480" height="1" fill="#000000"/>
<rect y="359" width="480" height="1" fill="#000000"/>
<g transform="translate(0.000000,360.000000) scale(0.100000,-0.100000)"
fill="#000000" stroke="none">
<path d="M0 1800 l0 -1800 1231 0 1230 0 -7 46 c-5 34 -3 48 7 54 10 7 11 25
1 98 -7 49 -12 107 -12 128 0 69 2 68 -238 89 -94 8 -182 19 -197 25 -14 5
-49 10 -77 10 -48 0 -54 3 -94 45 -65 71 -64 92 14 177 19 21 50 42 69 49 28
9 40 23 74 87 21 43 62 113 89 157 68 110 124 296 135 450 4 50 15 118 26 153
10 35 16 75 13 92 -5 25 7 81 36 170 5 14 10 85 12 158 l4 133 -26 5 c-14 3
-37 12 -53 20 -18 10 -78 18 -175 24 -81 5 -154 11 -162 14 -8 3 -75 12 -148
20 -129 14 -134 16 -230 67 -53 29 -100 57 -105 63 -10 15 -20 56 -15 62 3 2
40 11 82 19 l78 15 101 -50 c56 -28 107 -57 112 -64 8 -10 59 -15 205 -20 107
-3 234 -9 282 -12 70 -5 91 -3 110 10 12 9 36 16 53 16 l30 0 -3 80 c-3 68 -7
82 -24 95 -17 12 -19 17 -9 29 15 18 6 36 -19 36 -10 0 -21 6 -24 13 -26 52
-45 71 -81 82 -22 6 -40 16 -39 23 1 7 2 18 2 25 1 7 26 25 55 39 51 25 53 27
49 60 -3 24 2 40 13 52 14 14 15 19 3 33 -12 15 -10 16 13 10 20 -5 37 1 70
23 33 22 56 30 90 30 33 0 68 10 117 34 81 41 122 53 122 37 0 -6 10 -11 22
-11 20 0 19 -3 -15 -38 -41 -42 -47 -62 -19 -62 29 0 122 -30 122 -39 0 -5
-11 -12 -25 -15 -36 -9 -31 -21 14 -34 64 -20 69 -36 21 -68 -29 -19 -39 -32
-35 -43 4 -9 18 -52 32 -96 14 -44 30 -90 34 -103 5 -12 35 -39 68 -60 33 -20
99 -62 146 -92 100 -63 158 -114 210 -184 l37 -49 -27 7 c-24 6 -26 5 -20 -16
4 -13 16 -38 26 -56 24 -41 24 -41 -3 -35 -23 5 -23 5 -3 -10 32 -26 140 -63
275 -96 179 -44 226 -65 234 -103 3 -17 6 -35 6 -40 0 -12 -34 -8 -139 16 -41
9 -76 14 -78 12 -3 -3 5 -13 16 -23 29 -24 28 -47 -1 -40 -50 12 -95 34 -140
68 -38 29 -68 41 -145 58 -142 32 -220 56 -305 95 l-76 35 -7 -49 c-4 -29 -15
-56 -27 -67 -22 -20 -71 -123 -63 -132 3 -3 17 -7 31 -8 60 -9 73 -19 68 -60
-2 -21 -6 -68 -10 -105 -10 -117 -64 -148 -160 -92 -24 14 -44 23 -44 19 0 -8
101 -158 115 -170 7 -5 22 -25 34 -42 30 -45 88 -76 206 -112 196 -59 274 -74
332 -61 28 6 73 9 100 6 41 -5 54 -12 85 -48 21 -24 45 -58 54 -76 20 -42 9
-74 -44 -125 l-37 -36 -75 9 c-65 7 -81 6 -121 -12 -26 -10 -61 -35 -80 -54
-18 -19 -38 -34 -45 -34 -6 0 -17 -6 -23 -14 -6 -7 -57 -26 -112 -41 -98 -27
-167 -67 -193 -112 -4 -9 -17 -24 -27 -34 -11 -11 -19 -28 -19 -38 0 -11 -5
-23 -11 -26 -5 -4 -14 -18 -19 -31 -10 -26 -16 -29 -73 -39 -32 -5 -37 -9 -32
-25 4 -11 8 -64 10 -117 1 -54 5 -105 8 -113 3 -8 9 -45 12 -83 l7 -67 969 0
969 0 0 1800 0 1800 -2400 0 -2400 0 0 -1800z"/>
<path d="M2980 2283 c0 -4 7 -32 16 -62 13 -46 24 -62 60 -88 24 -18 60 -41
81 -51 44 -22 113 -37 113 -24 0 14 -248 232 -265 232 -3 0 -5 -3 -5 -7z"/>
<path d="M2637 230 c-10 -38 -8 -128 3 -135 5 -3 7 -25 3 -50 -5 -41 -4 -45
16 -45 24 0 25 6 7 80 -9 37 -10 60 -3 71 7 11 5 29 -5 60 -13 40 -15 42 -21
19z"/>
</g>
</svg>
