<?xml version="1.0" standalone="no"?>
<!DOCTYPE svg PUBLIC "-//W3C//DTD SVG 20010904//EN"
 "http://www.w3.org/TR/2001/REC-SVG-20010904/DTD/svg10.dtd">
<svg version="1.0" xmlns="http://www.w3.org/2000/svg"
 width="480.000000pt" height="360.000000pt" viewBox="0 0 480.000000 360.000000"
 preserveAspectRatio="xMidYMid meet">
<metadata>
Created by potrace 1.16, written by Peter Selinger 2001-2019
</metadata>
<rect width="1" height="360" fill="#000000"/>
<rect x="479" width="1" height="360" fill="#000000"/>
<rect width="480" height="1" fill="#000000"/>
<rect y="359" width="480" height="1" fill="#000000"/>
<g transform="translate(0.000000,360.000000) scale(0.100000,-0.100000)"
fill="#000000" stroke="none">
<path d="M2847 3069 c-32 -11 -76 -31 -97 -44 -76 -48 -133 -148 -123 -216 l5
-36 -83 -22 c-98 -26 -139 -41 -139 -50 0 -11 40 -46 78 -67 34 -20 33 -14 19
-124 -1 -10 15 -76 26 -105 15 -41 48 -85 59 -79 4 3 11 -2 14 -11 7 -18 51
-40 72 -36 23 4 12 -30 -20 -60 l-33 -30 26 -23 c14 -12 32 -35 41 -52 77
-147 116 -188 172 -177 17 3 35 10 40 14 17 15 29 10 23 -11 -6 -22 3 -26 21
-8 18 18 36 -39 25 -82 l-8 -35 -70 3 c-39 1 -105 12 -149 22 -92 23 -161 25
-196 5 -36 -20 -305 -21 -357 -1 -21 8 -128 46 -238 84 -110 39 -238 86 -285
105 -53 22 -95 33 -111 30 -19 -3 -38 6 -80 39 -30 24 -70 55 -89 68 -19 13
-61 47 -92 77 -59 55 -80 63 -108 38 -14 -12 -22 -12 -67 1 -28 8 -78 14 -110
12 -50 -3 -58 -6 -58 -23 0 -16 11 -22 50 -31 41 -10 45 -12 19 -13 -60 -2
-141 -49 -114 -66 6 -4 32 -4 58 -1 26 3 70 2 97 -3 l50 -9 -50 -1 c-56 -1
-120 -28 -120 -51 0 -12 16 -15 82 -15 85 0 114 -9 65 -20 -34 -7 -75 -42 -69
-58 5 -15 32 -13 74 4 43 18 97 0 159 -51 26 -21 83 -53 125 -71 75 -30 78
-32 81 -66 l3 -36 95 -28 c99 -29 318 -114 432 -169 89 -42 110 -44 742 -88
l109 -7 13 -45 c8 -25 14 -68 14 -96 0 -77 21 -215 36 -246 8 -15 14 -38 14
-52 0 -22 -3 -24 -37 -20 -21 2 -154 11 -297 19 -194 12 -262 13 -272 4 -11
-9 -18 -3 -34 34 -17 38 -30 50 -75 73 -58 28 -147 36 -168 15 -6 -6 -23 -11
-38 -11 -31 0 -32 -2 -55 -111 -16 -79 -35 -269 -27 -281 2 -4 30 -15 61 -24
65 -19 154 -23 260 -10 l72 8 0 -26 c0 -15 8 -30 19 -36 11 -6 91 -10 188 -10
92 0 218 -5 278 -11 61 -6 157 -14 215 -17 l104 -7 8 -35 c14 -63 11 -212 -5
-257 -19 -50 -43 -182 -52 -281 l-7 -72 636 0 637 0 -66 127 c-91 173 -133
224 -274 332 -126 96 -151 117 -151 131 0 8 84 25 180 36 158 17 337 96 438
193 88 84 126 166 126 276 0 147 -49 243 -194 377 -61 56 -90 90 -94 111 -4
21 -47 70 -147 168 -114 112 -149 140 -178 145 -25 5 -55 24 -96 63 -33 31
-59 61 -57 66 1 6 -12 19 -29 29 l-32 19 24 13 c24 12 23 13 -31 38 -30 14
-49 25 -43 25 7 1 12 7 10 14 -1 7 11 13 33 14 54 2 55 2 43 14 -6 6 -9 18 -6
26 3 8 0 19 -7 23 -19 12 87 32 129 24 32 -6 35 -6 23 9 -8 9 -24 19 -35 23
-22 7 -21 8 3 14 24 6 24 7 -15 28 l-40 23 35 -6 35 -6 -40 25 c-22 13 -52 33
-67 45 -14 12 -29 21 -32 21 -4 0 -53 31 -109 69 l-102 68 -1 64 c-1 88 -42
175 -124 262 -74 80 -156 124 -302 162 -120 31 -210 32 -291 4z m-1744 -846
c-7 -2 -21 -2 -30 0 -10 3 -4 5 12 5 17 0 24 -2 18 -5z"/>
</g>
</svg>
