<?xml version="1.0" standalone="no"?>
<!DOCTYPE svg PUBLIC "-//W3C//DTD SVG 20010904//EN"
 "http://www.w3.org/TR/2001/REC-SVG-20010904/DTD/svg10.dtd">
<svg version="1.0" xmlns="http://www.w3.org/2000/svg"
 width="480.000000pt" height="360.000000pt" viewBox="0 0 480.000000 360.000000"
 preserveAspectRatio="xMidYMid meet">
<metadata>
Created by potrace 1.16, written by Peter Selinger 2001-2019
</metadata>
<rect width="1" height="360" fill="#000000"/>
<rect x="479" width="1" height="360" fill="#000000"/>
<rect width="480" height="1" fill="#000000"/>
<rect y="359" width="480" height="1" fill="#000000"/>
<g transform="translate(0.000000,360.000000) scale(0.100000,-0.100000)"
fill="#000000" stroke="none">
<path d="M0 1800 l0 -1800 1026 0 1026 0 -5 43 c-4 23 -9 68 -13 100 -5 47
-13 66 -46 105 -47 57 -88 140 -88 180 0 52 -19 132 -37 157 -10 13 -37 31
-60 39 l-41 14 -16 -42 c-9 -23 -16 -54 -16 -68 0 -45 -18 -77 -74 -131 -53
-51 -54 -53 -62 -127 -5 -41 -8 -86 -7 -99 2 -22 0 -23 -38 -17 -22 4 -81 19
-132 35 -151 46 -236 70 -352 96 -60 14 -123 30 -140 34 -16 5 -50 12 -75 16
-55 9 -92 30 -147 87 -59 61 -72 98 -62 178 4 36 6 151 4 255 -4 167 -2 199
15 260 11 39 23 84 26 100 3 17 13 48 21 70 16 42 56 203 79 320 14 72 34 149
77 290 49 163 368 1020 392 1055 30 44 116 126 210 202 94 75 110 94 98 110
-6 7 -16 29 -22 48 -13 40 -72 80 -118 80 -100 1 -179 55 -140 97 31 35 154
89 242 107 11 2 -328 4 -752 5 l-773 1 0 -1800z"/>
<path d="M2051 3589 c-29 -12 -20 -22 34 -39 22 -7 45 -16 50 -21 6 -4 64 -22
128 -38 173 -44 208 -65 233 -136 16 -49 3 -62 -86 -80 -99 -20 -114 -41 -90
-126 7 -26 24 -46 62 -74 29 -21 66 -54 81 -74 77 -98 135 -182 162 -236 26
-53 30 -72 33 -165 4 -93 1 -114 -22 -179 -32 -92 -85 -162 -196 -259 -47 -41
-101 -98 -120 -127 -19 -28 -44 -65 -55 -81 -10 -16 -44 -58 -75 -94 -117
-136 -132 -170 -75 -170 14 0 39 -7 54 -15 39 -20 106 -102 131 -159 23 -55
18 -56 115 29 39 34 119 99 179 144 66 50 120 99 136 124 15 23 33 49 41 57 8
8 27 35 41 60 15 25 68 97 118 160 50 62 100 130 110 150 10 20 26 42 34 49 9
8 16 18 16 23 0 14 70 81 109 104 17 10 33 26 36 35 3 10 8 113 10 231 4 193
13 289 28 304 3 4 15 0 26 -8 12 -8 18 -17 15 -20 -3 -3 7 -8 21 -12 l25 -6 0
-128 c1 -167 10 -209 50 -245 26 -23 39 -28 64 -23 17 3 73 1 124 -4 80 -7
103 -14 168 -49 109 -59 184 -145 219 -252 24 -71 23 -71 98 -4 12 11 32 34
44 50 18 23 25 27 32 16 7 -11 10 -11 17 0 4 8 9 22 9 33 1 10 11 26 22 35 11
9 34 39 52 68 l32 51 -15 66 c-9 36 -29 101 -45 143 -44 119 -45 128 -14 148
17 11 46 18 78 18 70 0 126 -32 168 -97 23 -37 33 -46 35 -32 2 10 -5 26 -17
37 -20 19 -20 39 3 68 5 7 15 22 21 34 18 36 39 42 86 24 77 -30 100 -59 122
-151 10 -44 21 -102 24 -128 4 -43 3 -48 -24 -64 -15 -10 -36 -26 -46 -36 -10
-10 -24 -18 -31 -18 -7 0 -35 34 -61 75 -51 79 -65 90 -65 53 0 -13 -9 -36
-20 -53 -12 -16 -27 -45 -35 -64 -14 -32 -41 -69 -97 -133 -16 -17 -28 -38
-28 -46 0 -14 -17 -35 -128 -160 -51 -56 -104 -109 -139 -139 -18 -14 -25 -34
-32 -103 -6 -47 -17 -112 -26 -145 -21 -77 -137 -357 -210 -505 -104 -208
-207 -424 -246 -513 -22 -49 -55 -122 -74 -162 -56 -119 -73 -189 -79 -315 -5
-113 -21 -182 -60 -258 l-17 -32 741 0 740 0 0 1800 0 1800 -1362 -1 c-853 0
-1372 -4 -1387 -10z"/>
</g>
</svg>
