<?xml version="1.0" standalone="no"?>
<!DOCTYPE svg PUBLIC "-//W3C//DTD SVG 20010904//EN"
 "http://www.w3.org/TR/2001/REC-SVG-20010904/DTD/svg10.dtd">
<svg version="1.0" xmlns="http://www.w3.org/2000/svg"
 width="480.000000pt" height="360.000000pt" viewBox="0 0 480.000000 360.000000"
 preserveAspectRatio="xMidYMid meet">
<metadata>
Created by potrace 1.16, written by Peter Selinger 2001-2019
</metadata>
<rect width="1" height="360" fill="#000000"/>
<rect x="479" width="1" height="360" fill="#000000"/>
<rect width="480" height="1" fill="#000000"/>
<rect y="359" width="480" height="1" fill="#000000"/>
<g transform="translate(0.000000,360.000000) scale(0.100000,-0.100000)"
fill="#000000" stroke="none">
<path d="M1 2878 c0 -608 2 -717 14 -687 99 268 374 506 660 569 113 25 298
27 416 4 67 -12 97 -25 163 -66 101 -64 119 -80 157 -140 17 -26 36 -48 41
-48 6 0 23 11 40 25 69 58 80 8 12 -58 l-46 -44 16 -55 c23 -80 21 -159 -5
-192 -15 -19 -22 -46 -26 -104 -7 -95 -27 -137 -93 -192 -28 -24 -53 -53 -56
-68 -14 -65 -27 -90 -63 -127 l-40 -40 31 -32 c54 -56 35 -126 -47 -173 -29
-17 -58 -37 -65 -45 -18 -21 -50 -19 -77 7 -20 18 -23 19 -23 5 0 -9 -5 -17
-12 -17 -6 0 -4 -7 5 -18 10 -10 17 -27 17 -37 0 -10 12 -48 26 -84 34 -83 41
-212 25 -423 -6 -84 -13 -187 -16 -229 -2 -41 -7 -82 -10 -91 -3 -8 3 -49 13
-90 18 -67 19 -106 5 -148 -2 -8 -6 -67 -7 -130 -2 -63 -7 -123 -11 -132 -7
-17 86 -18 1874 -18 l1881 0 0 1800 0 1800 -2400 0 -2400 0 1 -722z m4079 684
c0 -11 -68 -48 -102 -56 -43 -10 -33 1 30 33 61 32 72 36 72 23z m-2295 -59
c-7 -29 -42 -73 -58 -73 -15 0 2 53 25 78 29 30 42 28 33 -5z m795 -123 c0 -5
-18 -10 -40 -10 -22 0 -40 5 -40 10 0 6 18 10 40 10 22 0 40 -4 40 -10z m884
-107 c-19 -14 -64 -17 -101 -7 -44 12 -22 21 48 20 60 0 68 -2 53 -13z m-947
-334 c43 -16 11 -29 -74 -29 -79 0 -95 12 -35 28 51 14 76 14 109 1z m-677
-159 c0 -5 -14 -10 -31 -10 -17 0 -28 4 -24 10 3 6 17 10 31 10 13 0 24 -4 24
-10z m1458 -52 c14 -14 16 -64 4 -72 -15 -9 -52 25 -52 48 0 36 24 48 48 24z
m-1400 -960 c-6 -18 -68 -58 -89 -58 -22 0 -25 23 -5 39 30 25 100 38 94 19z
m2787 -18 c45 -31 66 -78 51 -115 -12 -33 -155 1 -157 38 0 6 -2 20 -4 30 -3
18 40 77 57 77 5 0 29 -14 53 -30z m-2090 -211 c0 -17 -6 -25 -23 -27 -26 -4
-37 17 -28 54 6 24 8 25 29 11 12 -8 22 -25 22 -38z m997 -23 c20 -42 20 -47
6 -98 -16 -59 -37 -71 -69 -42 -10 9 -24 34 -30 54 -9 30 -8 43 6 71 38 74 56
77 87 15z m-511 -6 c-24 -21 -41 -26 -41 -12 0 15 24 32 45 32 19 -1 19 -1 -4
-20z m77 -2 c-6 -18 -56 -41 -69 -32 -8 4 1 14 22 25 41 22 52 23 47 7z m-298
-267 c0 -29 -33 -81 -44 -70 -3 3 -9 19 -12 36 -5 24 -1 35 17 51 27 26 39 20
39 -17z m1860 -71 c13 -8 13 -9 0 -14 -66 -21 -133 -10 -73 12 36 13 55 14 73
2z m-1706 -16 c11 -28 6 -39 -9 -20 -8 11 -15 23 -15 28 0 14 18 9 24 -8z
m216 -66 c0 -18 -65 -68 -89 -68 -35 0 -36 22 -2 52 33 29 91 39 91 16z m1211
-175 c-17 -32 -59 -65 -78 -61 -15 3 -13 9 19 41 38 39 77 52 59 20z m-1966
-147 c24 -24 45 -82 45 -123 0 -27 -6 -29 -27 -8 -8 9 -29 19 -45 22 -20 4
-37 18 -54 44 -29 46 -28 44 -6 68 24 27 58 25 87 -3z m260 -136 c-3 -5 -16
-10 -28 -9 -21 0 -21 1 -2 9 28 12 37 12 30 0z m-1400 -92 c-15 -37 -112 -188
-121 -188 -12 0 -44 43 -44 58 0 21 49 99 80 127 32 29 95 62 98 53 2 -5 -4
-27 -13 -50z m1796 -117 c-24 -44 -111 -94 -111 -63 0 19 87 82 113 82 4 0 3
-9 -2 -19z m1147 -204 c-4 -88 -18 -68 -22 32 -3 79 -3 83 11 58 9 -18 13 -50
11 -90z m-267 93 c26 -14 24 -34 -6 -54 -49 -32 -82 -8 -51 39 18 28 28 30 57
15z m-1536 -57 c-10 -18 -25 -33 -33 -33 -12 0 -12 3 0 23 8 12 21 33 28 47 9
18 15 21 18 11 3 -8 -3 -29 -13 -48z m-825 -151 c0 -12 -71 -94 -77 -88 -6 6
15 47 40 74 21 22 37 29 37 14z"/>
<path d="M1070 1589 c0 -7 25 -19 41 -19 5 0 9 7 9 15 0 10 -9 14 -25 13 -14
-1 -25 -5 -25 -9z"/>
<path d="M0 1168 l0 -409 23 6 c57 17 210 99 290 156 89 63 147 120 218 214
l37 50 -10 60 c-13 80 -23 88 -95 85 -115 -5 -133 -2 -212 35 -66 31 -95 53
-166 125 l-85 87 0 -409z m333 60 c8 -23 -11 -55 -41 -67 -58 -24 -73 20 -19
56 38 25 53 28 60 11z"/>
<path d="M0 154 l0 -154 340 0 339 0 -6 102 c-4 73 -10 106 -20 115 -8 6 -47
11 -91 10 -76 0 -83 2 -163 47 -38 22 -161 27 -256 12 -38 -6 -63 -5 -97 7
l-46 16 0 -155z"/>
<path d="M806 199 c-3 -34 -6 -93 -6 -130 l0 -69 71 0 71 0 -7 113 c-4 61 -12
120 -17 130 -6 12 -21 17 -57 17 l-48 0 -7 -61z"/>
</g>
</svg>
