<?xml version="1.0" standalone="no"?>
<!DOCTYPE svg PUBLIC "-//W3C//DTD SVG 20010904//EN"
 "http://www.w3.org/TR/2001/REC-SVG-20010904/DTD/svg10.dtd">
<svg version="1.0" xmlns="http://www.w3.org/2000/svg"
 width="480.000000pt" height="360.000000pt" viewBox="0 0 480.000000 360.000000"
 preserveAspectRatio="xMidYMid meet">
<metadata>
Created by potrace 1.16, written by Peter Selinger 2001-2019
</metadata>
<rect width="1" height="360" fill="#000000"/>
<rect x="479" width="1" height="360" fill="#000000"/>
<rect width="480" height="1" fill="#000000"/>
<rect y="359" width="480" height="1" fill="#000000"/>
<g transform="translate(0.000000,360.000000) scale(0.100000,-0.100000)"
fill="#000000" stroke="none">
<path d="M1601 3543 c19 -148 -6 -440 -45 -528 -7 -16 -19 -47 -26 -68 -34
-107 -143 -300 -213 -377 -20 -23 -42 -51 -48 -62 -6 -11 -13 -18 -15 -15 -3
3 -28 -19 -56 -49 -27 -29 -91 -81 -142 -115 -110 -76 -313 -174 -378 -183
-27 -4 -48 -11 -48 -15 0 -4 -48 -14 -107 -22 -172 -23 -391 -15 -505 17 -17
5 -18 -50 -18 -1060 l0 -1066 1378 2 1377 3 7 79 c11 114 48 215 164 446 83
164 115 240 160 380 30 96 75 234 100 305 46 136 50 159 34 209 -5 17 -12 43
-15 58 -4 20 -10 26 -21 21 -10 -4 -17 2 -21 16 -8 30 -23 16 -23 -22 0 -22
10 -45 30 -67 33 -40 39 -70 12 -70 -10 0 -50 11 -90 24 -70 23 -122 57 -122
80 0 6 -13 24 -30 39 -39 37 -39 75 0 133 27 38 29 47 19 66 -8 14 -8 23 -2
25 6 2 19 10 29 18 18 13 19 14 1 45 -22 36 -23 34 73 126 36 34 85 90 110
123 32 44 58 68 93 84 56 26 59 41 18 97 -27 37 -30 39 -36 20 -14 -43 -35 -9
-35 56 0 17 -6 37 -14 43 -37 31 -47 175 -16 236 l20 40 -30 40 c-50 66 -56
82 -36 104 56 62 251 92 383 60 121 -30 273 -96 273 -118 0 -5 -18 -28 -41
-50 l-41 -40 7 -76 c8 -80 -21 -345 -37 -345 -17 0 -8 -84 12 -105 10 -11 31
-52 45 -90 15 -38 51 -104 81 -147 59 -85 65 -110 32 -145 l-22 -24 22 -6 c27
-7 27 -4 2 -48 -16 -28 -18 -40 -9 -62 12 -33 15 -109 5 -140 -4 -12 -38 -47
-76 -77 l-69 -56 34 -58 c54 -90 74 -162 106 -377 28 -197 44 -264 150 -657
l54 -198 378 0 377 0 0 1800 0 1800 -1603 0 -1603 0 7 -57z"/>
<path d="M3650 1504 c-15 -39 -12 -49 10 -29 21 19 27 55 10 55 -6 0 -15 -12
-20 -26z"/>
</g>
</svg>
