<?xml version="1.0" standalone="no"?>
<!DOCTYPE svg PUBLIC "-//W3C//DTD SVG 20010904//EN"
 "http://www.w3.org/TR/2001/REC-SVG-20010904/DTD/svg10.dtd">
<svg version="1.0" xmlns="http://www.w3.org/2000/svg"
 width="480.000000pt" height="360.000000pt" viewBox="0 0 480.000000 360.000000"
 preserveAspectRatio="xMidYMid meet">
<metadata>
Created by potrace 1.16, written by Peter Selinger 2001-2019
</metadata>
<rect width="1" height="360" fill="#000000"/>
<rect x="479" width="1" height="360" fill="#000000"/>
<rect width="480" height="1" fill="#000000"/>
<rect y="359" width="480" height="1" fill="#000000"/>
<g transform="translate(0.000000,360.000000) scale(0.100000,-0.100000)"
fill="#000000" stroke="none">
<path d="M2450 3043 c-20 -25 -21 -36 -16 -103 5 -61 -4 -143 -49 -453 -30
-207 -55 -382 -55 -388 0 -5 -16 -17 -35 -24 -43 -19 -55 -41 -46 -85 5 -24 1
-56 -12 -100 -31 -103 -33 -147 -8 -181 l21 -28 -59 -293 c-33 -161 -67 -329
-76 -373 -23 -110 -79 -322 -98 -370 -9 -22 -16 -63 -17 -91 0 -48 -2 -52 -31
-64 -60 -25 -77 -55 -76 -130 1 -67 -5 -87 -54 -198 -10 -23 -19 -49 -19 -57
0 -17 76 -75 98 -75 8 0 12 -6 8 -15 -4 -13 8 -15 74 -15 67 0 80 3 80 16 0
14 7 15 37 11 21 -4 39 -11 41 -17 3 -7 310 -10 938 -10 l934 0 1 23 c4 167
-5 483 -16 597 -15 157 -39 460 -38 500 0 14 12 79 27 145 90 399 116 624 97
831 -13 130 -41 263 -65 299 -8 11 -21 50 -30 85 -23 89 -50 141 -104 202 -62
68 -145 121 -242 153 -85 28 -229 55 -297 55 -25 0 -43 5 -43 11 0 29 -207
-39 -277 -91 -54 -40 -288 -270 -274 -270 3 0 21 9 40 21 18 11 35 18 38 16 2
-3 -9 -32 -26 -66 -17 -33 -25 -58 -18 -55 10 3 12 -12 9 -68 -3 -67 -2 -71
13 -54 8 11 15 15 15 9 0 -7 5 -24 11 -40 7 -19 12 -24 18 -15 6 10 12 6 25
-13 21 -32 15 -42 -40 -67 -49 -21 -54 -36 -23 -79 18 -25 19 -34 10 -60 -6
-17 -8 -36 -4 -42 3 -6 8 -22 9 -36 7 -60 24 -135 32 -143 5 -5 31 -12 58 -16
54 -8 64 -25 45 -75 -11 -27 -11 -27 -47 -12 -50 20 -53 13 -10 -20 20 -15 36
-32 36 -39 0 -6 -10 -44 -21 -83 -16 -53 -27 -74 -42 -79 -11 -3 -40 -26 -64
-51 -25 -26 -49 -43 -57 -40 -28 11 -112 209 -145 344 -34 135 -50 168 -122
255 l-36 43 17 131 c34 253 90 553 127 676 28 96 26 126 -12 164 -20 19 -34
24 -79 24 -48 0 -57 -3 -76 -27z m6 -1461 c89 -65 127 -129 150 -248 5 -30 3
-35 -21 -44 -15 -6 -48 -12 -74 -14 -68 -5 -78 -12 -102 -74 -26 -70 -22 -148
16 -339 31 -157 64 -270 112 -386 20 -48 34 -90 31 -92 -3 -3 -38 9 -79 26
-62 26 -83 30 -129 25 -51 -5 -162 16 -184 35 -4 4 -1 27 7 51 9 23 18 88 21
143 6 117 21 196 183 923 7 29 22 28 69 -6z"/>
</g>
</svg>
