<?xml version="1.0" standalone="no"?>
<!DOCTYPE svg PUBLIC "-//W3C//DTD SVG 20010904//EN"
 "http://www.w3.org/TR/2001/REC-SVG-20010904/DTD/svg10.dtd">
<svg version="1.0" xmlns="http://www.w3.org/2000/svg"
 width="480.000000pt" height="360.000000pt" viewBox="0 0 480.000000 360.000000"
 preserveAspectRatio="xMidYMid meet">
<metadata>
Created by potrace 1.16, written by Peter Selinger 2001-2019
</metadata>
<rect width="1" height="360" fill="#000000"/>
<rect x="479" width="1" height="360" fill="#000000"/>
<rect width="480" height="1" fill="#000000"/>
<rect y="359" width="480" height="1" fill="#000000"/>
<g transform="translate(0.000000,360.000000) scale(0.100000,-0.100000)"
fill="#000000" stroke="none">
<path d="M0 1800 l0 -1800 2400 0 2400 0 0 1800 0 1800 -2400 0 -2400 0 0
-1800z m1824 549 c20 -23 24 -35 16 -44 -8 -9 -7 -14 1 -17 16 -5 125 8 230
28 48 9 94 14 104 12 22 -4 29 -81 14 -156 -6 -30 -9 -55 -7 -58 3 -2 94 4
204 13 216 19 907 25 1019 9 49 -7 65 -14 91 -41 17 -18 38 -48 48 -67 9 -18
48 -84 86 -147 39 -63 70 -124 70 -137 0 -27 -41 -59 -137 -108 -324 -163
-662 -222 -1293 -228 -263 -3 -501 9 -690 33 -153 20 -279 104 -491 326 -81
85 -99 112 -99 149 l0 35 31 -18 c17 -10 33 -24 36 -30 7 -18 23 -16 23 2 0
33 30 74 62 83 39 12 235 38 361 47 84 7 89 8 122 43 19 21 34 42 34 47 -4 42
-18 58 -74 83 -53 24 -72 27 -167 27 -98 0 -141 8 -107 19 8 3 93 7 189 10 96
3 176 6 176 6 1 0 4 13 7 28 6 30 69 82 98 82 10 0 29 -14 43 -31z"/>
<path d="M1915 2271 c-49 -6 -50 -6 -58 -48 -5 -26 -14 -43 -22 -43 -25 0 -26
-20 -3 -61 l23 -41 75 6 c122 11 140 16 151 43 13 34 11 97 -3 128 -10 22 -17
25 -62 23 -28 0 -73 -4 -101 -7z"/>
<path d="M1600 2241 c0 -12 37 -24 50 -16 20 12 10 25 -20 25 -16 0 -30 -4
-30 -9z"/>
<path d="M1770 2085 c0 -8 7 -15 15 -15 8 0 15 7 15 15 0 8 -7 15 -15 15 -8 0
-15 -7 -15 -15z"/>
</g>
</svg>
