<?xml version="1.0" standalone="no"?>
<!DOCTYPE svg PUBLIC "-//W3C//DTD SVG 20010904//EN"
 "http://www.w3.org/TR/2001/REC-SVG-20010904/DTD/svg10.dtd">
<svg version="1.0" xmlns="http://www.w3.org/2000/svg"
 width="480.000000pt" height="360.000000pt" viewBox="0 0 480.000000 360.000000"
 preserveAspectRatio="xMidYMid meet">
<metadata>
Created by potrace 1.16, written by Peter Selinger 2001-2019
</metadata>
<rect width="1" height="360" fill="#000000"/>
<rect x="479" width="1" height="360" fill="#000000"/>
<rect width="480" height="1" fill="#000000"/>
<rect y="359" width="480" height="1" fill="#000000"/>
<g transform="translate(0.000000,360.000000) scale(0.100000,-0.100000)"
fill="#000000" stroke="none">
<path d="M245 3585 c-35 -10 -40 -16 -40 -42 0 -16 -6 -37 -14 -46 -15 -19
-14 -21 80 -312 65 -200 65 -203 44 -219 -15 -10 -17 -22 -12 -58 4 -27 2 -49
-5 -56 -8 -8 -2 -24 19 -59 49 -81 83 -168 83 -212 0 -47 18 -131 31 -146 13
-14 11 -51 -3 -63 -7 -5 -33 -13 -58 -17 -105 -17 -171 -105 -120 -160 20 -21
51 -32 184 -63 16 -4 31 -13 33 -19 3 -9 -9 -11 -46 -6 -57 7 -65 -4 -22 -29
16 -9 37 -29 47 -45 10 -15 31 -43 48 -60 64 -70 174 -28 221 83 13 32 34 41
146 59 48 7 89 46 89 83 0 55 -86 141 -145 147 -5 0 -14 3 -20 7 -5 3 -26 9
-45 13 -59 11 -70 16 -70 30 0 20 58 65 84 65 13 0 49 13 80 29 l57 28 56 -64
c36 -41 61 -62 71 -58 8 3 30 0 48 -7 32 -11 36 -10 62 15 21 22 25 31 16 44
-16 26 -34 27 -34 2 0 -18 -19 -3 -93 74 -55 58 -101 97 -113 97 -19 0 -144
-32 -178 -46 -17 -6 -17 -5 -6 17 7 13 19 32 28 42 9 10 11 17 4 17 -16 0 -4
57 21 99 14 24 17 35 8 40 -6 4 -13 25 -14 47 -2 35 -4 39 -27 36 -14 -2 -33
-11 -43 -20 -16 -14 -14 -6 8 43 52 119 108 189 245 306 60 52 112 101 115
109 3 9 1 31 -5 49 -5 19 -7 44 -4 57 4 17 0 25 -18 35 -12 6 -34 24 -48 40
-15 17 -46 33 -80 43 -30 8 -70 27 -89 41 l-35 25 -250 -1 c-169 -1 -264 -5
-291 -14z"/>
<path d="M2400 1800 l0 -1800 879 0 879 0 11 77 c6 43 16 136 21 208 6 72 15
146 19 165 5 19 12 68 15 109 5 57 4 72 -6 68 -7 -3 -48 -20 -91 -38 -88 -37
-103 -35 -122 21 -6 19 -17 36 -23 38 -8 2 -10 18 -6 45 5 39 4 41 -10 23 -9
-11 -16 -25 -17 -30 0 -6 -4 -2 -9 9 -5 11 -6 35 -3 53 5 33 -4 41 -25 20 -17
-17 -72 -20 -78 -4 -3 8 -15 11 -31 8 -18 -3 -24 -1 -19 7 5 7 0 11 -13 11
-25 0 -26 8 -6 34 14 18 13 21 -9 30 l-25 11 45 60 c25 33 61 77 81 97 42 44
35 47 -26 13 -27 -16 -39 -19 -31 -10 8 9 27 23 43 32 21 10 26 17 17 23 -7 5
26 26 92 60 102 51 138 75 138 92 0 4 -9 8 -20 8 -26 0 -26 21 0 43 l21 18
-31 37 c-41 49 -39 73 8 99 38 21 181 73 202 73 6 0 31 14 56 31 25 17 52 29
62 27 16 -3 53 -61 67 -105 5 -19 1 -25 -19 -33 -31 -11 -31 -10 -5 -54 18
-32 19 -39 8 -73 -7 -21 -19 -45 -27 -55 -26 -31 -5 -106 43 -157 l42 -45 25
40 c50 79 75 81 110 9 l22 -45 -23 -24 c-21 -22 -22 -27 -10 -60 14 -40 13
-45 -60 -164 -33 -56 -39 -75 -46 -150 -4 -48 -8 -96 -8 -107 -1 -62 16 -261
28 -330 8 -44 17 -110 21 -147 l7 -68 118 0 119 0 0 1800 0 1800 -1200 0
-1200 0 0 -1800z"/>
</g>
</svg>
