<?xml version="1.0" standalone="no"?>
<!DOCTYPE svg PUBLIC "-//W3C//DTD SVG 20010904//EN"
 "http://www.w3.org/TR/2001/REC-SVG-20010904/DTD/svg10.dtd">
<svg version="1.0" xmlns="http://www.w3.org/2000/svg"
 width="480.000000pt" height="360.000000pt" viewBox="0 0 480.000000 360.000000"
 preserveAspectRatio="xMidYMid meet">
<metadata>
Created by potrace 1.16, written by Peter Selinger 2001-2019
</metadata>
<rect width="1" height="360" fill="#000000"/>
<rect x="479" width="1" height="360" fill="#000000"/>
<rect width="480" height="1" fill="#000000"/>
<rect y="359" width="480" height="1" fill="#000000"/>
<g transform="translate(0.000000,360.000000) scale(0.100000,-0.100000)"
fill="#000000" stroke="none">
<path d="M0 1800 l0 -1800 915 0 915 0 16 26 c10 14 17 42 16 62 -1 22 16 79
43 148 42 106 45 118 45 208 0 85 -3 103 -26 149 l-27 52 13 113 c10 93 10
121 -1 154 -10 31 -10 46 -1 71 17 44 7 46 -19 3 -44 -76 -71 -17 -39 85 11
34 20 76 20 94 0 36 114 272 150 310 16 17 19 30 14 66 -7 48 10 79 43 79 9 0
-17 35 -63 83 -44 45 -89 103 -101 128 -25 50 -30 118 -12 151 9 17 8 24 -5
33 -21 16 -20 20 6 55 12 17 31 30 42 30 12 0 30 7 41 16 17 13 18 16 5 24 -8
6 -21 8 -27 5 -15 -5 -113 44 -113 56 0 5 7 9 15 9 9 0 15 9 15 25 0 29 24 33
54 10 24 -18 56 -20 56 -2 0 6 -7 47 -15 90 -15 81 -20 183 -9 211 10 26 35
19 87 -25 l48 -41 27 25 c34 31 78 53 123 62 25 5 51 22 84 56 26 27 51 49 56
49 5 0 9 -580 9 -1335 l0 -1335 305 0 305 0 -16 26 c-10 14 -17 41 -16 59 1
19 -18 83 -43 147 -44 110 -45 116 -45 223 0 61 5 187 12 280 6 94 10 196 9
228 -1 31 0 57 2 57 3 0 15 -16 26 -36 12 -19 27 -34 33 -32 23 8 29 65 13
127 -8 32 -15 69 -15 82 0 13 -11 49 -24 79 -13 30 -38 89 -56 130 -17 41 -41
85 -52 97 -16 17 -21 36 -22 80 -1 52 -3 58 -23 61 -13 2 -23 5 -23 7 0 2 37
41 83 87 149 148 165 241 60 350 -17 18 -43 41 -57 51 -25 18 -25 18 -6 37 17
17 24 18 42 9 18 -10 24 -8 35 7 14 20 18 70 5 78 -4 2 -22 -3 -40 -11 -20
-10 -37 -12 -42 -7 -5 5 -1 57 11 124 29 168 17 255 -33 229 -12 -6 -40 -29
-63 -50 -42 -39 -42 -39 -60 -19 -29 32 -75 56 -131 69 -41 10 -58 21 -88 57
-20 24 -48 47 -61 50 l-25 6 0 459 0 459 -1200 0 -1200 0 0 -1800z m2895 176
c18 7 45 -35 45 -69 0 -43 -23 -78 -90 -140 -86 -80 -140 -105 -140 -64 0 10
48 134 57 146 1 2 10 -2 19 -10 14 -11 18 -12 22 -1 3 10 9 9 25 -5 20 -18 20
-18 14 15 -5 24 -3 32 8 32 12 0 11 8 -7 44 -11 24 -18 51 -15 61 6 15 9 15
28 1 12 -8 27 -12 34 -10z m-335 -271 c0 -8 -4 -15 -10 -15 -5 0 -7 7 -4 15 4
8 8 15 10 15 2 0 4 -7 4 -15z m90 -71 c0 -2 -22 -4 -50 -4 -27 0 -50 2 -50 5
0 3 12 24 26 47 l26 41 24 -43 c13 -23 24 -44 24 -46z m190 -1131 c0 -27 -3
-34 -11 -26 -7 7 -9 23 -5 37 9 37 16 32 16 -11z"/>
<path d="M2000 1995 c-7 -8 -18 -15 -25 -15 -22 0 -45 -36 -45 -70 0 -46 38
-106 102 -161 60 -51 94 -72 107 -65 15 10 -5 81 -30 108 -13 14 -31 36 -40
49 l-16 23 -16 -29 -16 -30 -1 34 c0 25 -4 32 -15 27 -18 -7 -19 -2 -1 32 31
61 28 135 -4 97z"/>
<path d="M2250 1706 c0 -8 -4 -16 -9 -18 -5 -1 -13 -15 -16 -30 -7 -27 -5 -28
28 -28 43 0 51 18 26 59 -20 34 -29 39 -29 17z"/>
<path d="M2300 1705 c0 -8 4 -15 10 -15 5 0 7 7 4 15 -4 8 -8 15 -10 15 -2 0
-4 -7 -4 -15z"/>
<path d="M1980 505 c0 -11 3 -30 6 -43 l7 -23 15 22 c13 19 13 23 -7 42 -20
21 -21 21 -21 2z"/>
</g>
</svg>
