<?xml version="1.0" standalone="no"?>
<!DOCTYPE svg PUBLIC "-//W3C//DTD SVG 20010904//EN"
 "http://www.w3.org/TR/2001/REC-SVG-20010904/DTD/svg10.dtd">
<svg version="1.0" xmlns="http://www.w3.org/2000/svg"
 width="480.000000pt" height="360.000000pt" viewBox="0 0 480.000000 360.000000"
 preserveAspectRatio="xMidYMid meet">
<metadata>
Created by potrace 1.16, written by Peter Selinger 2001-2019
</metadata>
<rect width="1" height="360" fill="#000000"/>
<rect x="479" width="1" height="360" fill="#000000"/>
<rect width="480" height="1" fill="#000000"/>
<rect y="359" width="480" height="1" fill="#000000"/>
<g transform="translate(0.000000,360.000000) scale(0.100000,-0.100000)"
fill="#000000" stroke="none">
<path d="M0 1800 l0 -1800 864 0 864 0 47 148 c25 81 83 261 129 401 46 139
81 249 76 245 -4 -5 -64 -87 -134 -182 -70 -94 -134 -172 -142 -172 -29 0 -62
46 -74 104 -11 56 -12 57 -31 40 -10 -9 -21 -25 -24 -35 -4 -11 -15 -19 -26
-19 -23 0 -24 8 -3 40 9 14 -2 5 -24 -20 -35 -38 -42 -42 -47 -27 -5 11 2 32
20 58 14 23 24 43 21 46 -3 3 -21 -20 -41 -51 -19 -31 -42 -56 -50 -56 -22 0
-18 17 16 72 16 28 28 52 26 55 -3 2 -26 -23 -52 -57 -40 -52 -65 -68 -65 -41
0 5 25 46 55 92 65 100 69 115 20 92 -19 -9 -38 -14 -41 -10 -13 13 28 46 93
77 50 23 64 34 59 46 -4 11 30 60 107 152 180 218 194 236 207 294 7 29 19 68
27 86 10 24 11 38 3 53 -6 11 -8 29 -5 39 4 11 1 35 -6 53 -10 28 -9 38 6 67
12 23 14 35 6 38 -6 2 -11 12 -11 23 0 25 -17 24 -25 -1 -7 -22 -25 -27 -25
-7 0 8 7 36 15 63 8 27 15 49 15 50 0 0 -13 -1 -30 -4 -43 -6 -39 22 8 53 52
34 88 67 99 90 6 11 21 71 33 134 17 88 20 115 10 121 -9 6 -9 20 4 63 25 86
23 93 -20 67 -39 -22 -64 -21 -64 5 0 8 -4 15 -9 15 -10 0 -42 77 -46 108 -1
9 -4 24 -7 32 -39 99 -25 162 40 179 70 19 158 23 215 11 43 -8 61 -8 78 0 32
18 175 26 193 11 11 -9 28 -7 78 10 49 18 87 23 166 23 96 1 105 -1 122 -22
14 -16 17 -33 14 -60 -10 -70 -26 -132 -35 -132 -5 0 -9 -11 -9 -24 0 -14 -4
-28 -10 -31 -5 -3 -10 -14 -10 -23 0 -9 -11 -28 -25 -42 -22 -23 -24 -31 -15
-54 15 -41 13 -106 -4 -106 -8 0 -21 -17 -29 -38 -8 -21 -22 -44 -31 -51 -14
-12 -19 -38 -30 -178 l-6 -63 58 -29 c92 -47 89 -39 112 -266 5 -49 13 -106
19 -125 6 -19 11 -56 11 -81 0 -43 3 -48 46 -79 119 -85 282 -221 287 -239 3
-13 26 -30 60 -45 54 -23 75 -41 63 -53 -3 -4 -17 -1 -30 7 -14 7 -32 10 -41
6 -23 -8 -5 -39 67 -107 56 -54 75 -88 43 -75 -8 3 -15 1 -15 -4 0 -6 -10 -10
-23 -10 -13 0 -29 -6 -35 -12 -10 -10 -17 -10 -34 1 -17 11 -22 11 -29 -1 -7
-10 -15 -9 -45 7 -39 21 -104 91 -104 112 0 23 -20 14 -30 -13 -6 -15 -17 -86
-25 -159 -8 -73 -18 -140 -21 -149 -7 -19 -25 -21 -43 -3 -20 18 -13 -8 56
-228 33 -104 66 -216 73 -247 l13 -58 919 0 918 0 0 1800 0 1800 -2400 0
-2400 0 0 -1800z"/>
<path d="M2121 1498 c1 -7 5 -24 9 -38 7 -22 8 -21 9 13 1 20 -3 37 -9 37 -5
0 -10 -6 -9 -12z"/>
<path d="M1894 1475 c-3 -8 -4 -20 -2 -27 3 -7 7 -1 10 15 6 29 1 36 -8 12z"/>
</g>
</svg>
