<?xml version="1.0" standalone="no"?>
<!DOCTYPE svg PUBLIC "-//W3C//DTD SVG 20010904//EN"
 "http://www.w3.org/TR/2001/REC-SVG-20010904/DTD/svg10.dtd">
<svg version="1.0" xmlns="http://www.w3.org/2000/svg"
 width="480.000000pt" height="360.000000pt" viewBox="0 0 480.000000 360.000000"
 preserveAspectRatio="xMidYMid meet">
<metadata>
Created by potrace 1.16, written by Peter Selinger 2001-2019
</metadata>
<rect width="1" height="360" fill="#000000"/>
<rect x="479" width="1" height="360" fill="#000000"/>
<rect width="480" height="1" fill="#000000"/>
<rect y="359" width="480" height="1" fill="#000000"/>
<g transform="translate(0.000000,360.000000) scale(0.100000,-0.100000)"
fill="#000000" stroke="none">
<path d="M0 1800 l0 -1800 845 0 845 0 -20 49 c-58 148 -151 522 -195 781 -65
387 -90 735 -82 1135 8 385 35 641 103 974 30 146 114 487 143 581 12 36 21
68 21 73 0 4 -373 7 -830 7 l-830 0 0 -1800z"/>
<path d="M4005 3595 c9 -4 781 -145 791 -145 2 0 4 34 4 75 l0 75 -402 -1
c-222 0 -398 -2 -393 -4z"/>
<path d="M3135 3482 c-22 -12 -52 -16 -117 -15 l-87 2 -22 -57 c-110 -288
-248 -716 -303 -937 -70 -280 -89 -442 -108 -913 -15 -385 1 -715 52 -1052 14
-95 81 -355 113 -440 l24 -65 1057 -3 1056 -2 0 1590 0 1590 -20 0 c-12 0 -92
14 -178 31 -86 17 -272 53 -412 80 -140 27 -273 54 -295 59 -22 5 -143 30
-270 55 -126 25 -246 50 -265 55 -19 5 -57 12 -85 16 -27 3 -60 10 -73 15 -30
12 -31 11 -67 -9z"/>
</g>
</svg>
