<?xml version="1.0" standalone="no"?>
<!DOCTYPE svg PUBLIC "-//W3C//DTD SVG 20010904//EN"
 "http://www.w3.org/TR/2001/REC-SVG-20010904/DTD/svg10.dtd">
<svg version="1.0" xmlns="http://www.w3.org/2000/svg"
 width="480.000000pt" height="360.000000pt" viewBox="0 0 480.000000 360.000000"
 preserveAspectRatio="xMidYMid meet">
<metadata>
Created by potrace 1.16, written by Peter Selinger 2001-2019
</metadata>
<rect width="1" height="360" fill="#000000"/>
<rect x="479" width="1" height="360" fill="#000000"/>
<rect width="480" height="1" fill="#000000"/>
<rect y="359" width="480" height="1" fill="#000000"/>
<g transform="translate(0.000000,360.000000) scale(0.100000,-0.100000)"
fill="#000000" stroke="none">
<path d="M2775 3395 c-117 -22 -228 -72 -260 -118 -12 -17 -23 -20 -77 -18
-70 2 -111 -9 -145 -41 -20 -19 -23 -19 -29 -4 -20 53 -193 73 -333 37 -108
-27 -153 -49 -169 -84 -13 -27 -11 -35 32 -122 26 -52 51 -97 56 -100 6 -3 10
-14 10 -24 0 -10 9 -26 19 -35 11 -10 21 -28 23 -39 2 -12 19 -32 38 -45 30
-20 36 -31 41 -72 9 -64 38 -140 55 -140 19 0 20 -108 0 -116 -7 -3 -11 -14
-9 -27 2 -12 0 -65 -5 -117 -6 -57 -6 -96 -1 -98 16 -6 10 -56 -12 -97 -12
-22 -40 -65 -63 -96 -22 -31 -50 -72 -61 -90 -11 -18 -29 -48 -40 -66 -47 -75
-93 -160 -104 -193 -7 -19 -19 -46 -26 -60 -13 -24 -32 -86 -61 -200 -7 -30
-22 -129 -32 -220 -28 -242 -30 -318 -12 -365 l12 -30 23 30 c31 38 42 27 16
-16 -23 -37 -26 -73 -11 -128 5 -20 11 -48 14 -62 3 -14 16 -30 29 -36 l23
-11 -12 -88 c-28 -198 -13 -314 44 -339 18 -8 22 -16 17 -35 l-5 -25 14 25 14
24 18 -39 c15 -34 18 -37 21 -18 2 12 -1 32 -7 43 -10 18 -8 26 8 43 28 32
143 227 195 332 65 130 104 276 126 465 28 248 31 299 25 417 -8 144 3 157 31
37 15 -64 17 -95 10 -193 -5 -64 -9 -152 -10 -196 0 -64 -7 -96 -32 -160 -17
-44 -41 -125 -52 -180 -32 -149 -43 -178 -176 -450 l-123 -250 726 -3 c399 -1
727 -1 729 1 2 2 -4 36 -14 75 l-16 70 26 59 c14 32 36 110 47 173 12 63 27
136 35 161 8 26 15 75 15 110 1 35 7 93 15 129 28 126 23 153 -57 317 -109
223 -228 512 -228 555 0 11 7 45 16 75 9 30 13 57 10 60 -3 3 -26 -1 -51 -10
l-46 -15 -10 26 c-13 35 -35 119 -54 215 -18 83 -48 130 -106 164 -29 17 -29
17 -28 118 1 118 12 166 22 90 5 -44 34 -122 42 -113 2 2 -1 64 -6 138 -5 74
-10 162 -12 194 l-2 60 34 2 c35 2 61 25 61 53 -1 21 -15 44 -84 135 -32 42
-57 79 -54 81 2 2 21 0 43 -5 22 -5 55 -10 72 -10 34 0 40 9 47 70 1 14 5 30
9 36 8 14 6 114 -4 142 -5 12 -5 22 1 22 5 0 4 14 -1 33 -6 17 -12 44 -13 60
-1 15 -3 35 -4 46 -1 10 -17 35 -36 55 -39 41 -55 43 -171 21z m-869 -1776 c7
-15 5 -54 -6 -123 -14 -81 -26 -119 -64 -193 -26 -51 -49 -93 -51 -93 -12 0 7
153 26 215 12 39 22 79 23 90 2 11 10 35 20 53 10 19 15 36 12 40 -7 6 13 32
24 32 4 0 11 -10 16 -21z m961 -161 c-2 -13 -4 -5 -4 17 -1 22 1 32 4 23 2
-10 2 -28 0 -40z"/>
</g>
</svg>
