<?xml version="1.0" standalone="no"?>
<!DOCTYPE svg PUBLIC "-//W3C//DTD SVG 20010904//EN"
 "http://www.w3.org/TR/2001/REC-SVG-20010904/DTD/svg10.dtd">
<svg version="1.0" xmlns="http://www.w3.org/2000/svg"
 width="480.000000pt" height="360.000000pt" viewBox="0 0 480.000000 360.000000"
 preserveAspectRatio="xMidYMid meet">
<metadata>
Created by potrace 1.16, written by Peter Selinger 2001-2019
</metadata>
<rect width="1" height="360" fill="#000000"/>
<rect x="479" width="1" height="360" fill="#000000"/>
<rect width="480" height="1" fill="#000000"/>
<rect y="359" width="480" height="1" fill="#000000"/>
<g transform="translate(0.000000,360.000000) scale(0.100000,-0.100000)"
fill="#000000" stroke="none">
<path d="M1446 3139 c-152 -36 -331 -213 -399 -397 -17 -44 -21 -79 -21 -152
0 -85 3 -102 31 -161 42 -92 142 -195 236 -245 72 -39 72 -39 201 -41 92 -2
133 -6 145 -16 9 -8 24 -17 34 -20 9 -4 17 -11 17 -17 0 -6 -11 -3 -25 6 -32
21 -56 14 -135 -37 -36 -23 -78 -46 -95 -52 -16 -6 -43 -18 -60 -27 -28 -16
-30 -21 -30 -72 0 -30 -5 -61 -12 -69 -16 -20 -63 -121 -63 -136 0 -17 39 -27
55 -13 8 6 19 28 26 48 18 57 29 66 46 42 8 -12 13 -22 12 -24 -2 -1 -17 -10
-32 -19 l-28 -18 53 -27 c46 -24 53 -32 56 -61 2 -23 -4 -42 -23 -67 -14 -19
-23 -39 -19 -45 4 -7 7 -21 8 -33 1 -15 9 -22 28 -24 25 -3 27 -7 33 -70 3
-37 13 -121 21 -187 9 -66 20 -156 24 -199 7 -65 13 -83 30 -96 15 -12 24 -31
27 -65 5 -42 3 -50 -18 -66 -22 -17 -24 -24 -23 -111 2 -87 3 -93 28 -113 21
-17 26 -29 26 -67 0 -37 -5 -50 -22 -63 -21 -14 -23 -23 -23 -111 0 -87 2 -97
23 -114 17 -14 22 -28 22 -68 0 -42 -4 -52 -25 -66 -16 -10 -25 -26 -25 -41 0
-27 18 -33 38 -13 9 9 12 9 12 0 0 -7 9 -12 20 -12 11 0 20 7 20 15 0 8 5 15
10 15 6 0 10 -7 10 -15 0 -9 9 -15 21 -15 17 0 20 4 15 23 -3 12 -6 25 -6 29
0 4 -9 10 -20 13 -17 5 -20 15 -20 64 0 52 3 59 25 69 24 11 25 15 25 107 0
88 -2 98 -23 118 -16 14 -26 38 -30 69 -6 43 -4 48 21 67 25 18 27 24 27 93
-1 90 -9 125 -34 133 -13 4 -20 19 -24 57 -6 46 -4 54 18 74 14 13 25 28 25
34 0 6 33 10 88 10 48 0 114 4 146 10 33 5 61 8 62 7 1 -1 -13 -33 -31 -71
-42 -86 -63 -199 -71 -376 -6 -122 9 -469 22 -512 5 -17 32 -18 391 -18 l386
0 -20 23 c-47 49 -56 287 -15 379 24 54 151 248 163 248 4 0 17 -12 29 -27 16
-21 21 -40 20 -78 -4 -78 0 -83 19 -35 l19 45 11 -40 c13 -52 79 -336 91 -395
9 -44 9 -45 -33 -82 l-42 -37 300 -1 301 0 19 32 c16 26 20 51 20 124 0 84 -3
95 -37 165 -20 40 -69 116 -108 168 -104 136 -105 146 -48 566 20 147 52 273
105 408 14 37 29 67 33 67 12 0 28 -24 35 -53 4 -16 14 -31 21 -34 16 -6 63
27 64 45 0 6 5 12 11 12 19 0 71 49 124 116 85 107 150 224 176 318 35 127 22
165 -71 215 -54 29 -69 33 -119 29 -34 -3 -77 -15 -110 -32 -44 -22 -59 -25
-80 -17 -14 6 -37 11 -51 13 -27 3 -21 8 252 206 l127 92 47 -25 c63 -33 123
-33 180 0 24 14 72 31 106 38 47 10 64 18 66 31 5 21 -38 68 -93 104 l-40 25
58 12 c66 13 84 30 60 57 -9 10 -21 18 -27 18 -6 0 -17 4 -25 9 -12 7 2 25 60
79 199 188 243 231 237 237 -18 18 -233 -93 -453 -235 -229 -146 -331 -204
-499 -282 -94 -43 -171 -78 -173 -78 -2 0 -3 15 -3 33 0 43 -35 77 -78 77 -32
0 -44 -14 -19 -23 8 -3 0 -17 -21 -40 -46 -47 -90 -53 -179 -20 -81 30 -188
39 -263 24 -30 -6 -84 -17 -120 -23 -61 -12 -63 -13 -30 -18 l35 -6 -37 -16
c-21 -9 -50 -29 -65 -43 -25 -24 -26 -26 -5 -15 35 17 35 8 1 -32 -35 -43 -59
-106 -59 -155 0 -30 2 -33 19 -24 16 9 19 6 24 -22 8 -50 -1 -54 -103 -44 -23
2 -25 -1 -25 -45 0 -50 -11 -64 -29 -36 -8 13 -6 32 9 75 14 41 20 84 20 148
0 81 -3 96 -32 150 -60 117 -153 185 -273 200 -77 10 -109 46 -121 135 -17
122 -48 189 -122 267 -131 139 -302 199 -461 162z m1174 -956 c0 -5 -5 -15
-10 -23 -8 -12 -10 -11 -10 8 0 12 5 22 10 22 6 0 10 -3 10 -7z m-677 -375
c100 -30 172 -22 286 32 l89 43 34 -23 c18 -13 35 -25 37 -27 2 -1 -2 -22 -9
-44 l-14 -42 64 -57 65 -58 -17 -44 c-9 -23 -32 -83 -51 -131 -31 -80 -39 -91
-83 -121 -45 -31 -63 -35 -234 -60 -102 -15 -211 -34 -244 -42 -32 -8 -64 -13
-70 -11 -7 3 -20 63 -31 142 -18 133 -18 138 -1 151 11 7 24 15 30 17 6 2 3
11 -8 22 -51 51 -72 171 -42 232 8 15 20 47 27 70 l12 42 45 -35 c25 -19 77
-44 115 -56z m-299 -850 c-3 -4 -15 -3 -27 3 -16 9 -22 9 -25 0 -8 -24 -22 -9
-22 23 l0 35 40 -26 c21 -14 37 -30 34 -35z m16 -295 c0 -61 -12 -89 -24 -57
-6 15 -8 15 -25 0 -25 -23 -31 -12 -31 65 l0 69 30 -6 c22 -5 30 -3 30 7 0 11
2 11 10 -1 5 -8 10 -43 10 -77z m10 -360 c0 -34 -4 -65 -10 -68 -5 -3 -10 -1
-10 4 0 6 -9 11 -20 11 -11 0 -20 -5 -20 -11 0 -5 -4 -8 -9 -5 -11 7 -20 87
-14 121 5 21 8 23 20 14 11 -10 18 -9 31 4 23 24 32 5 32 -70z"/>
<path d="M2817 24 c-13 -13 -7 -24 14 -24 11 0 19 5 17 12 -5 14 -22 21 -31
12z"/>
</g>
</svg>
