<?xml version="1.0" standalone="no"?>
<!DOCTYPE svg PUBLIC "-//W3C//DTD SVG 20010904//EN"
 "http://www.w3.org/TR/2001/REC-SVG-20010904/DTD/svg10.dtd">
<svg version="1.0" xmlns="http://www.w3.org/2000/svg"
 width="480.000000pt" height="360.000000pt" viewBox="0 0 480.000000 360.000000"
 preserveAspectRatio="xMidYMid meet">
<metadata>
Created by potrace 1.16, written by Peter Selinger 2001-2019
</metadata>
<rect width="1" height="360" fill="#000000"/>
<rect x="479" width="1" height="360" fill="#000000"/>
<rect width="480" height="1" fill="#000000"/>
<rect y="359" width="480" height="1" fill="#000000"/>
<g transform="translate(0.000000,360.000000) scale(0.100000,-0.100000)"
fill="#000000" stroke="none">
<path d="M0 1800 l0 -1800 885 0 884 0 11 40 c6 21 15 42 19 45 6 3 7 78 4
173 -4 133 -2 181 11 235 9 38 16 70 16 72 0 10 -78 37 -112 39 -21 1 -46 10
-56 19 -10 9 -33 17 -50 17 -18 0 -32 4 -32 9 0 5 -30 32 -67 59 -132 98 -152
133 -123 211 32 87 113 182 245 286 69 54 123 105 147 139 l21 29 -79 -8 c-91
-8 -113 -19 -89 -45 15 -16 14 -18 -7 -25 -13 -4 -27 -8 -33 -9 -5 -1 -15 -5
-22 -9 -12 -8 -21 2 -39 43 l-11 25 -7 -22 c-9 -28 -26 -30 -33 -3 -4 16 -14
20 -52 20 -60 0 -75 -10 -69 -48 2 -17 1 -29 -4 -26 -4 3 -8 20 -8 37 0 32 -1
32 -38 29 -73 -7 -171 36 -159 71 2 7 44 17 103 23 119 13 111 11 96 26 -6 6
-31 14 -54 17 -34 5 -43 10 -43 25 0 26 26 40 58 32 20 -5 27 -13 27 -30 0
-27 34 -63 45 -47 3 6 11 11 16 11 6 0 7 -5 3 -12 -5 -8 8 -9 52 -4 45 5 62
11 74 29 8 12 38 47 67 78 l53 56 -155 73 c-132 63 -155 77 -155 96 0 40 39
33 170 -33 183 -91 165 -93 228 34 29 60 69 135 89 167 37 57 40 69 43 179 0
20 98 120 182 187 l57 45 -26 27 c-24 25 -27 26 -40 10 -12 -16 -14 -16 -27 1
-7 9 -20 15 -28 12 -11 -5 -14 1 -10 25 2 17 0 30 -6 30 -6 0 -14 17 -17 38
-3 20 -13 49 -21 64 -19 35 -18 108 2 138 28 41 107 121 136 136 56 29 137 44
190 34 49 -10 51 -9 97 29 70 58 143 100 182 103 33 3 34 2 39 -42 4 -25 14
-59 23 -77 22 -41 22 -81 0 -105 -14 -16 -14 -18 0 -18 21 0 77 -48 77 -66 0
-14 -42 -73 -106 -153 -26 -31 -31 -33 -71 -27 -40 5 -43 4 -49 -22 -10 -41
-33 -82 -70 -129 l-34 -42 37 -10 c21 -6 47 -11 59 -11 33 0 143 -76 149 -103
4 -13 5 -41 3 -62 -3 -36 0 -41 30 -55 29 -14 91 -94 92 -117 0 -5 16 -19 36
-33 76 -54 80 -58 67 -71 -9 -9 -23 -5 -63 20 -40 25 -55 29 -70 21 -28 -15
-58 -12 -78 7 -28 26 -62 53 -67 53 -3 0 -27 14 -53 30 -27 17 -52 30 -54 30
-6 0 -14 -72 -24 -215 -4 -59 -12 -96 -22 -108 -17 -19 -21 -72 -6 -87 5 -5
28 -5 54 1 25 5 81 15 125 23 44 8 129 26 190 40 134 32 148 28 163 -46 9 -46
8 -50 -12 -58 -11 -5 -115 -25 -231 -45 -262 -45 -246 -40 -239 -73 18 -80 23
-89 72 -105 26 -9 79 -28 117 -42 39 -15 140 -49 225 -76 150 -48 240 -86 240
-101 0 -14 -39 -28 -77 -28 -58 0 -267 63 -470 140 -85 33 -83 37 -54 -85 15
-62 35 -189 43 -264 4 -45 -4 -80 -21 -86 -15 -4 -20 -19 -25 -75 -6 -62 -4
-78 28 -172 31 -91 37 -122 46 -263 6 -94 16 -172 24 -190 22 -47 30 -85 17
-85 -6 0 -11 -4 -11 -10 0 -7 269 -10 788 -10 756 0 786 1 753 18 -68 34 -66
77 4 75 51 -1 88 -28 79 -56 -4 -12 -12 -25 -18 -29 -6 -4 127 -8 297 -8 l307
0 0 1800 0 1800 -367 -1 c-347 0 -367 -1 -343 -17 154 -103 184 -304 65 -439
-67 -76 -128 -103 -234 -103 -95 0 -153 20 -204 68 -30 28 -67 92 -67 115 0 7
-6 21 -12 30 -12 16 -24 16 -193 2 -224 -19 -303 -19 -399 0 -182 34 -287 124
-351 298 l-18 47 -1338 0 -1339 0 0 -1800z m4399 1256 c10 -11 6 -20 -16 -40
-15 -14 -38 -26 -51 -26 -19 0 -22 4 -17 23 8 25 41 57 60 57 7 0 18 -6 24
-14z m-1114 -397 c10 -15 -1 -23 -20 -15 -9 3 -13 10 -10 16 8 13 22 13 30 -1z
m120 -349 c12 -19 -26 -60 -56 -60 -34 0 -39 22 -12 52 17 19 58 24 68 8z
m-2641 -16 c8 -3 31 -26 51 -50 35 -43 36 -46 21 -68 -13 -20 -14 -37 -6 -98
20 -161 33 -195 94 -257 31 -31 56 -61 56 -66 0 -17 -48 -56 -77 -64 l-27 -7
2 -135 c3 -148 6 -172 29 -273 13 -55 13 -70 3 -76 -18 -11 -41 -2 -62 24 -17
21 -17 21 -28 -9 -14 -38 9 -95 39 -95 26 0 36 -17 14 -24 -25 -7 -227 -41
-424 -71 -173 -26 -403 -35 -421 -17 -16 16 22 31 109 43 42 6 87 16 98 22 11
6 63 14 115 18 122 10 243 32 247 46 9 25 -17 64 -48 70 -17 3 -33 12 -36 20
-3 7 9 40 26 73 17 32 40 98 50 145 l19 86 -25 10 c-28 10 -27 4 -7 132 5 33
4 37 -14 37 -42 0 -81 74 -48 92 9 5 16 17 16 27 0 10 7 24 14 31 8 6 23 35
32 63 9 29 23 65 31 81 13 26 13 29 -6 43 -12 8 -18 19 -15 25 4 6 11 49 15
97 8 74 12 89 34 109 26 22 92 30 129 16z m2897 -203 l24 -19 -28 -11 c-40
-16 -100 -14 -123 4 -19 15 -19 15 0 30 28 22 99 19 127 -4z m947 -294 c2 -12
-3 -17 -17 -17 -12 0 -21 6 -21 13 0 31 32 34 38 4z m-638 -621 c0 -3 -4 -8
-10 -11 -5 -3 -10 -1 -10 4 0 6 5 11 10 11 6 0 10 -2 10 -4z"/>
<path d="M726 1230 c-4 -20 -14 -34 -31 -40 -36 -14 -32 -61 6 -71 15 -3 31
-4 36 0 6 3 14 36 17 74 6 55 5 67 -7 67 -8 0 -17 -13 -21 -30z"/>
<path d="M2730 3595 c0 -12 50 -82 77 -108 38 -36 131 -68 216 -74 77 -6 163
5 397 53 91 19 174 34 185 34 42 0 92 22 135 60 l45 40 -527 0 c-291 0 -528
-2 -528 -5z m268 -56 c6 -54 -37 -112 -59 -78 -5 8 -9 31 -9 52 0 30 5 40 23
47 31 12 42 7 45 -21z"/>
<path d="M2337 2363 c-4 -3 -7 -11 -7 -17 0 -6 5 -5 12 2 6 6 9 14 7 17 -3 3
-9 2 -12 -2z"/>
<path d="M1954 1873 c-33 -60 -90 -145 -115 -174 -19 -22 -19 -22 2 -37 14
-10 19 -21 15 -37 -5 -18 1 -25 34 -40 49 -22 63 -16 86 34 9 22 21 38 26 35
4 -3 8 4 8 16 0 11 -8 23 -17 27 -10 3 -26 13 -36 21 -16 14 -16 17 2 48 11
19 27 53 35 76 8 24 17 51 21 61 5 13 2 17 -14 17 -14 0 -28 -15 -47 -47z"/>
<path d="M1710 1500 c0 -15 7 -20 25 -20 27 0 32 9 13 28 -18 18 -38 14 -38
-8z"/>
<path d="M1815 1509 c-10 -14 -1 -21 19 -13 9 3 13 10 10 15 -7 12 -21 11 -29
-2z"/>
<path d="M2284 609 c-16 -27 -81 -43 -181 -43 -56 -1 -104 -4 -107 -7 -3 -3
-17 -84 -31 -180 -13 -96 -28 -198 -33 -227 -5 -29 -7 -75 -4 -102 l5 -50 256
0 256 0 0 63 c-1 58 -58 323 -106 490 -19 64 -38 84 -55 56z"/>
</g>
</svg>
