<?xml version="1.0" standalone="no"?>
<!DOCTYPE svg PUBLIC "-//W3C//DTD SVG 20010904//EN"
 "http://www.w3.org/TR/2001/REC-SVG-20010904/DTD/svg10.dtd">
<svg version="1.0" xmlns="http://www.w3.org/2000/svg"
 width="480.000000pt" height="360.000000pt" viewBox="0 0 480.000000 360.000000"
 preserveAspectRatio="xMidYMid meet">
<metadata>
Created by potrace 1.16, written by Peter Selinger 2001-2019
</metadata>
<rect width="1" height="360" fill="#000000"/>
<rect x="479" width="1" height="360" fill="#000000"/>
<rect width="480" height="1" fill="#000000"/>
<rect y="359" width="480" height="1" fill="#000000"/>
<g transform="translate(0.000000,360.000000) scale(0.100000,-0.100000)"
fill="#000000" stroke="none">
<path d="M2575 2159 c-4 -5 -10 -7 -14 -5 -4 3 -15 -7 -23 -22 -22 -36 -136
-79 -166 -63 -31 16 -44 -6 -31 -53 9 -31 8 -41 -6 -56 -25 -28 -30 -85 -11
-116 23 -33 14 -59 -17 -49 -12 4 -44 12 -72 19 -39 10 -51 17 -55 36 -5 22
-11 24 -55 25 -47 0 -50 -2 -53 -27 -2 -17 -9 -28 -18 -28 -23 0 -66 25 -93
54 -30 31 -42 32 -67 5 -26 -29 -26 -129 0 -158 25 -28 32 -27 77 14 41 36 73
47 63 20 -4 -9 -1 -28 5 -43 10 -23 7 -41 -14 -105 -31 -96 -31 -103 0 -123
23 -15 28 -15 72 1 27 9 74 20 106 24 51 7 57 5 50 -8 -15 -31 -7 -194 11
-229 15 -30 16 -36 3 -56 -15 -23 -39 -89 -92 -260 -24 -75 -36 -97 -83 -148
-47 -51 -56 -66 -60 -107 -4 -45 -2 -49 34 -79 21 -18 54 -37 74 -43 19 -6 42
-18 51 -26 9 -7 24 -11 33 -7 18 7 19 3 17 -76 -1 -30 5 -90 13 -133 9 -45 13
-98 9 -123 -4 -28 -1 -49 7 -59 8 -9 10 -28 5 -55 l-7 -40 -69 0 c-70 0 -139
-20 -139 -39 0 -14 -27 -13 333 -16 l307 -2 0 24 c0 14 -7 53 -17 87 -16 60
-18 84 -27 261 -3 55 -11 105 -22 130 -14 31 -17 63 -16 145 2 94 -15 256 -49
469 -6 35 -19 75 -29 89 -18 22 -18 27 -4 60 13 32 13 41 -2 81 -19 55 -8 96
30 111 29 11 70 70 83 121 11 37 7 60 -12 71 -8 5 -11 40 -11 107 1 97 2 102
29 126 32 31 34 41 7 55 -11 6 -20 17 -20 25 0 8 -3 15 -7 15 -5 0 -16 20 -26
45 -15 36 -17 53 -9 89 7 35 6 46 -4 50 -7 3 -16 1 -19 -5z m-292 -402 c3 -8
1 -20 -4 -28 -8 -12 -12 -11 -24 5 -8 11 -15 23 -15 28 0 14 38 9 43 -5z m61
-13 c30 -30 14 -57 -27 -46 -11 3 -16 10 -13 19 3 8 6 21 6 29 0 18 15 18 34
-2z m-274 -4 c0 -5 -4 -10 -10 -10 -5 0 -10 5 -10 10 0 6 5 10 10 10 6 0 10
-4 10 -10z m537 -82 c-3 -8 -6 -5 -6 6 -1 11 2 17 5 13 3 -3 4 -12 1 -19z
m-417 7 c0 -6 -38 -45 -45 -45 -2 0 1 11 7 25 9 21 38 36 38 20z m325 -1159
c17 -23 44 -138 55 -231 7 -61 -3 -231 -15 -243 -2 -2 -43 1 -90 8 -79 11 -87
15 -97 39 -11 26 -24 411 -15 434 3 8 30 12 77 12 58 0 74 -4 85 -19z"/>
<path d="M1025 2148 c-4 -10 -13 -18 -20 -18 -8 0 -12 -15 -11 -45 1 -42 -2
-47 -58 -97 -33 -29 -67 -53 -75 -53 -26 -1 -61 -16 -61 -26 0 -5 10 -24 23
-40 17 -24 22 -44 22 -92 0 -58 2 -62 32 -82 18 -11 36 -31 39 -45 4 -14 13
-35 21 -48 12 -20 12 -23 -2 -28 -18 -7 -48 -61 -41 -73 3 -5 -3 -20 -14 -34
-11 -14 -20 -33 -20 -42 0 -9 -8 -29 -18 -43 -10 -15 -24 -39 -31 -54 -13 -26
-80 -72 -168 -117 -23 -11 -46 -27 -50 -34 -14 -24 -45 -34 -121 -42 -40 -4
-79 -13 -87 -21 -21 -22 -43 -17 -57 14 -17 36 -51 39 -205 16 l-123 -18 0
-101 0 -100 123 -52 c67 -29 205 -89 307 -134 102 -44 222 -95 267 -112 77
-30 83 -34 81 -59 -3 -33 27 -68 59 -68 35 0 37 -20 9 -106 -14 -43 -26 -98
-26 -121 0 -40 5 -49 90 -137 53 -57 90 -103 90 -115 0 -20 6 -21 105 -21 102
0 105 1 95 20 -6 11 -19 24 -29 30 -27 14 -68 92 -86 161 -9 32 -25 80 -36
106 -22 51 -20 102 6 123 7 6 40 15 72 20 32 5 88 22 126 39 79 37 79 34 42
177 -50 193 -103 348 -133 384 -26 33 -28 40 -25 115 1 44 9 98 17 120 9 22
16 49 16 60 0 11 1 47 3 80 3 57 2 60 -23 65 -41 8 -33 42 13 52 48 10 62 24
77 75 10 34 10 49 -5 94 -9 30 -22 65 -28 77 -9 19 -8 30 6 54 27 48 18 68
-31 68 -25 0 -82 74 -82 105 0 14 -13 43 -29 63 -16 20 -31 46 -34 57 -4 18
-5 18 -12 3z m-172 -975 c17 -60 17 -73 3 -73 -8 0 -21 -6 -28 -12 -34 -33
-86 -49 -152 -49 -37 0 -79 -4 -92 -9 -13 -5 -26 -5 -29 -1 -7 12 22 34 34 27
10 -6 38 8 167 87 43 26 82 47 86 47 3 0 9 -8 11 -17z m-343 -115 c0 -11 -27
-10 -51 2 -32 18 -21 29 16 17 19 -6 35 -14 35 -19z m290 -108 c0 -5 -4 -10
-9 -10 -6 0 -13 5 -16 10 -3 6 1 10 9 10 9 0 16 -4 16 -10z m88 -10 c-4 -18
-37 -24 -58 -10 -19 13 -2 25 34 25 18 0 26 -5 24 -15z"/>
<path d="M4007 2075 c5 -40 4 -45 -11 -39 -12 5 -16 2 -14 -7 1 -8 -26 -51
-62 -96 -47 -59 -70 -80 -82 -77 -25 7 -23 -17 3 -50 18 -23 21 -36 16 -82 -3
-33 0 -74 8 -102 29 -104 29 -101 -12 -118 -21 -8 -48 -20 -60 -26 -15 -8 -26
-8 -35 -1 -24 19 -111 22 -146 6 -33 -16 -34 -17 -29 -67 7 -70 48 -181 78
-212 20 -20 32 -24 52 -19 15 4 27 11 27 15 0 4 16 17 35 29 l35 20 0 -24 c0
-13 -9 -49 -21 -79 -19 -53 -20 -57 -3 -85 16 -28 16 -30 -5 -65 -17 -27 -26
-66 -37 -168 -8 -73 -21 -166 -29 -207 -8 -40 -15 -101 -15 -135 0 -55 3 -64
29 -89 17 -15 45 -34 64 -42 53 -22 62 -68 26 -129 -12 -21 -23 -61 -26 -98
-3 -35 -12 -75 -19 -90 -8 -15 -14 -29 -14 -33 0 -3 26 -5 58 -5 l57 0 48 110
c26 61 51 133 54 161 5 42 10 52 30 60 14 5 39 6 56 1 26 -7 33 -16 49 -61 10
-31 21 -101 24 -163 l7 -108 52 0 52 0 7 37 c9 55 7 153 -3 189 -5 17 -11 57
-15 90 l-6 59 74 48 c93 60 100 80 57 164 -17 32 -43 77 -58 99 -75 111 -102
155 -137 219 -21 39 -47 84 -58 102 l-19 32 41 67 c35 58 41 76 40 119 -3 92
-5 88 41 81 23 -4 71 -24 107 -46 72 -44 85 -47 128 -26 16 8 49 17 74 21 25
3 64 15 86 25 41 19 42 19 83 -2 37 -18 44 -19 57 -7 12 13 11 19 -8 45 -19
27 -36 41 -99 79 -9 6 -24 16 -32 23 -8 7 -43 14 -78 16 -35 1 -78 10 -96 19
-18 10 -45 17 -60 18 -39 1 -128 32 -126 44 1 11 20 18 198 75 65 21 120 42
122 46 1 5 -1 15 -6 23 -7 12 -31 7 -133 -27 -67 -22 -142 -46 -166 -52 -24
-6 -50 -14 -59 -17 -12 -5 -14 -1 -8 18 4 13 16 35 26 48 28 36 33 83 14 140
-15 46 -15 52 0 75 9 14 15 35 13 48 -3 20 -9 23 -45 23 -31 0 -49 7 -70 26
-15 14 -43 36 -60 48 -27 18 -33 29 -33 57 0 38 -15 74 -30 74 -6 0 -7 -19 -3
-45z m509 -444 c-7 -10 -115 -45 -122 -39 -5 6 94 46 114 47 7 1 11 -3 8 -8z"/>
</g>
</svg>
