<?xml version="1.0" standalone="no"?>
<!DOCTYPE svg PUBLIC "-//W3C//DTD SVG 20010904//EN"
 "http://www.w3.org/TR/2001/REC-SVG-20010904/DTD/svg10.dtd">
<svg version="1.0" xmlns="http://www.w3.org/2000/svg"
 width="480.000000pt" height="360.000000pt" viewBox="0 0 480.000000 360.000000"
 preserveAspectRatio="xMidYMid meet">
<metadata>
Created by potrace 1.16, written by Peter Selinger 2001-2019
</metadata>
<rect width="1" height="360" fill="#000000"/>
<rect x="479" width="1" height="360" fill="#000000"/>
<rect width="480" height="1" fill="#000000"/>
<rect y="359" width="480" height="1" fill="#000000"/>
<g transform="translate(0.000000,360.000000) scale(0.100000,-0.100000)"
fill="#000000" stroke="none">
<path d="M0 2180 l0 -1420 124 0 c83 0 127 4 132 11 13 22 18 297 5 313 -10
11 -5 29 24 85 32 64 38 71 65 71 35 0 101 25 112 43 11 18 10 121 -2 133 -19
19 0 40 50 58 46 17 50 20 50 51 0 18 -5 35 -10 37 -13 4 17 68 32 68 5 0 12
-9 15 -20 3 -11 9 -20 14 -20 15 0 10 -27 -5 -33 -11 -4 -12 -14 -6 -40 10
-48 16 -56 53 -65 l32 -8 -3 -90 -3 -89 36 -18 c20 -9 46 -17 58 -17 34 0 52
-19 76 -81 19 -47 20 -62 12 -100 -6 -24 -11 -97 -11 -162 l0 -118 67 3 66 3
3 106 3 105 57 92 c32 51 60 92 64 92 4 0 31 -44 60 -97 49 -89 54 -103 58
-175 l5 -78 31 -4 c17 -3 166 -12 331 -21 l300 -16 49 -47 c27 -26 59 -57 72
-69 46 -45 48 -38 41 181 l-7 203 50 77 c27 42 54 76 59 76 5 0 31 -35 58 -77
l48 -78 -4 -522 -3 -523 1271 0 1271 0 0 1800 0 1800 -2400 0 -2400 0 0 -1420z
m3076 517 c22 -19 29 -36 34 -84 13 -105 21 -113 133 -141 114 -29 127 -42 77
-84 -19 -15 -29 -28 -22 -28 20 0 14 -21 -8 -27 -11 -3 -20 -12 -20 -19 0 -9
-11 -14 -29 -14 -41 0 -47 -16 -14 -34 l28 -15 -28 -1 c-20 0 -26 -4 -20 -12
16 -26 11 -35 -18 -32 l-29 4 0 -63 c0 -36 -5 -68 -12 -75 -9 -9 -9 -12 -1
-12 7 0 15 5 19 11 8 14 144 79 165 79 8 0 18 -2 21 -5 11 -11 -13 -90 -38
-126 -13 -19 -24 -39 -24 -45 0 -5 61 -8 152 -6 l153 2 -29 -24 -30 -25 25 -9
c82 -32 83 -33 68 -43 -19 -12 0 -25 52 -33 43 -7 53 -26 14 -26 -33 0 -32
-17 3 -33 23 -10 64 -48 58 -54 -1 -1 -21 3 -45 8 -24 5 -46 7 -49 4 -3 -3 9
-23 27 -45 22 -28 26 -38 14 -33 -15 5 -16 3 -5 -8 20 -21 14 -32 -15 -25 -23
5 -25 4 -10 -4 9 -6 17 -19 17 -29 0 -12 16 -26 48 -40 32 -14 39 -20 20 -18
-19 3 -25 0 -21 -10 7 -17 3 -17 -52 7 -40 17 -46 18 -41 4 3 -8 6 -20 6 -24
0 -5 16 -12 35 -16 19 -3 35 -11 35 -16 0 -10 -52 -4 -87 9 -12 5 -15 2 -10
-10 3 -8 1 -18 -6 -20 -9 -3 -8 -8 2 -20 17 -21 9 -21 -30 -1 -39 20 -45 14
-24 -27 l17 -33 -43 37 c-47 41 -68 46 -70 20 -4 -41 -6 -49 -18 -78 l-13 -30
-12 39 c-9 33 -20 44 -66 68 -30 15 -56 28 -57 28 -2 0 -3 -17 -3 -37 0 -24
-8 -45 -22 -60 -47 -50 -90 -17 -107 83 -10 55 -18 74 -42 97 -17 15 -39 27
-49 27 -19 0 -23 -10 -66 -162 -21 -72 -94 -16 -94 72 0 30 -44 61 -53 37 -2
-7 -23 9 -46 36 -48 53 -56 56 -64 26 -7 -28 -32 -19 -32 12 0 13 -10 34 -23
47 -14 14 -22 32 -20 45 2 18 11 23 49 27 36 4 52 12 73 37 15 18 42 42 61 53
21 13 37 32 41 48 3 15 10 37 15 50 14 36 -7 107 -37 121 -17 8 -24 19 -24 40
0 15 -6 47 -14 69 -13 36 -13 42 6 73 17 28 19 44 14 93 -8 77 -28 110 -64
103 -15 -3 -43 -8 -63 -12 -30 -6 -41 -3 -58 14 l-21 21 23 14 c12 8 40 22 61
31 l40 17 -25 19 c-25 19 -12 25 26 10 29 -12 87 39 114 99 28 61 81 110 121
110 16 0 41 -10 56 -23z"/>
<path d="M3508 1943 c7 -3 16 -2 19 1 4 3 -2 6 -13 5 -11 0 -14 -3 -6 -6z"/>
<path d="M2849 1721 c-24 -20 -24 -20 -3 -21 12 0 25 7 28 16 10 25 1 27 -25
5z"/>
<path d="M3552 1485 c7 -7 24 -16 38 -20 22 -7 23 -6 12 7 -7 9 -24 18 -38 21
-21 4 -23 2 -12 -8z"/>
</g>
</svg>
