<?xml version="1.0" standalone="no"?>
<!DOCTYPE svg PUBLIC "-//W3C//DTD SVG 20010904//EN"
 "http://www.w3.org/TR/2001/REC-SVG-20010904/DTD/svg10.dtd">
<svg version="1.0" xmlns="http://www.w3.org/2000/svg"
 width="480.000000pt" height="360.000000pt" viewBox="0 0 480.000000 360.000000"
 preserveAspectRatio="xMidYMid meet">
<metadata>
Created by potrace 1.16, written by Peter Selinger 2001-2019
</metadata>
<rect width="1" height="360" fill="#000000"/>
<rect x="479" width="1" height="360" fill="#000000"/>
<rect width="480" height="1" fill="#000000"/>
<rect y="359" width="480" height="1" fill="#000000"/>
<g transform="translate(0.000000,360.000000) scale(0.100000,-0.100000)"
fill="#000000" stroke="none">
<path d="M0 1800 l0 -1800 688 0 687 0 3 68 c2 60 21 195 54 382 6 36 10 106
10 156 -2 100 12 156 52 209 13 17 38 71 54 121 l30 89 -44 38 c-42 37 -43 40
-39 87 4 50 28 96 94 179 74 93 221 355 207 368 -2 3 -7 -4 -10 -14 -12 -38
-75 -124 -112 -154 -34 -27 -86 -59 -96 -59 -15 0 0 53 36 127 65 132 64 129
13 141 -24 6 -69 14 -100 18 -31 4 -57 10 -57 15 0 4 26 13 58 19 161 32 183
46 210 137 34 114 51 211 64 366 l12 149 -38 35 c-36 34 -38 39 -32 80 5 36 3
43 -12 44 -9 0 -35 1 -57 2 -58 3 -55 19 8 41 56 18 56 19 82 85 14 36 25 70
25 74 0 5 -19 40 -41 78 -23 38 -39 72 -36 76 3 3 31 -16 62 -42 l55 -48 98
17 c53 9 133 19 177 23 78 6 80 7 151 65 78 63 99 71 89 36 -7 -21 -60 -159
-71 -183 -3 -6 18 -9 53 -7 66 3 164 -17 170 -35 2 -6 -19 -19 -49 -29 -33
-11 -46 -19 -35 -22 30 -6 13 -26 -30 -37 -53 -13 -56 -16 -42 -51 36 -90 49
-172 49 -309 l0 -141 28 -16 c79 -48 153 -148 163 -222 19 -132 29 -185 44
-229 27 -76 17 -129 -35 -182 l-42 -43 35 -11 c51 -17 60 -32 43 -72 -8 -19
-22 -70 -31 -114 -29 -141 -62 -162 -150 -96 -30 23 -55 40 -55 38 0 -3 15
-38 34 -79 19 -42 49 -120 66 -174 18 -55 50 -145 71 -201 40 -103 53 -187 25
-164 -11 9 -15 -6 -24 -85 -11 -94 -10 -98 24 -222 18 -69 39 -155 44 -191 6
-36 13 -81 16 -99 l5 -32 1074 0 1075 0 0 1800 0 1800 -2400 0 -2400 0 0
-1800z"/>
<path d="M1925 2249 c-4 -17 -5 -33 -2 -36 11 -10 27 9 27 32 0 36 -17 39 -25
4z"/>
<path d="M2392 1716 c-6 -14 -16 -26 -22 -26 -5 0 -10 -23 -10 -51 l0 -50 28
20 c60 46 64 50 58 68 -4 10 -14 28 -24 41 l-18 23 -12 -25z"/>
<path d="M1491 634 c-14 -49 -7 -56 9 -9 7 20 10 39 7 42 -3 3 -10 -12 -16
-33z"/>
</g>
</svg>
