<?xml version="1.0" standalone="no"?>
<!DOCTYPE svg PUBLIC "-//W3C//DTD SVG 20010904//EN"
 "http://www.w3.org/TR/2001/REC-SVG-20010904/DTD/svg10.dtd">
<svg version="1.0" xmlns="http://www.w3.org/2000/svg"
 width="480.000000pt" height="360.000000pt" viewBox="0 0 480.000000 360.000000"
 preserveAspectRatio="xMidYMid meet">
<metadata>
Created by potrace 1.16, written by Peter Selinger 2001-2019
</metadata>
<rect width="1" height="360" fill="#000000"/>
<rect x="479" width="1" height="360" fill="#000000"/>
<rect width="480" height="1" fill="#000000"/>
<rect y="359" width="480" height="1" fill="#000000"/>
<g transform="translate(0.000000,360.000000) scale(0.100000,-0.100000)"
fill="#000000" stroke="none">
<path d="M0 2866 l0 -734 90 -16 c49 -10 145 -33 212 -52 68 -19 152 -37 188
-40 97 -9 283 26 395 74 50 21 118 46 152 56 71 19 202 77 224 98 37 35 101
80 136 94 29 13 54 15 108 10 39 -4 144 -13 235 -21 91 -7 185 -18 210 -24 77
-17 230 -25 230 -12 0 6 -9 11 -20 11 -22 0 -27 15 -7 23 7 3 4 6 -7 6 -14 1
-17 6 -12 26 7 28 4 30 -26 14 -28 -15 -33 -5 -12 27 l18 27 -23 -13 c-15 -7
-21 -8 -17 -1 11 17 -5 13 -27 -7 -19 -16 -20 -16 -8 5 8 16 8 29 0 50 -10 26
-12 27 -23 10 -19 -25 -40 1 -28 34 7 18 5 27 -7 36 -14 10 -14 16 -4 44 15
40 -1 57 -29 32 -17 -15 -18 -15 -18 4 0 11 9 28 19 37 16 15 20 35 23 139 3
117 5 125 41 199 44 90 107 152 207 201 61 30 71 32 175 32 133 0 166 -13 283
-114 95 -82 134 -153 158 -286 9 -49 25 -119 35 -155 21 -71 25 -109 7 -72
-23 48 -30 21 -25 -90 3 -62 9 -126 12 -143 5 -23 4 -27 -4 -15 -10 13 -13 12
-26 -5 -8 -11 -20 -26 -27 -34 -7 -8 -23 -28 -35 -45 -13 -16 -23 -24 -23 -16
0 9 -5 8 -20 -5 -11 -10 -20 -24 -20 -32 0 -7 29 -34 63 -61 333 -248 392
-315 390 -437 -1 -36 -12 -88 -27 -131 -15 -40 -23 -79 -20 -88 4 -10 0 -18
-10 -22 -22 -8 -20 -38 8 -173 17 -82 29 -118 42 -127 43 -30 46 -35 39 -83
-4 -30 -1 -69 9 -107 8 -32 29 -126 47 -209 17 -82 49 -233 70 -335 22 -102
51 -245 66 -318 l26 -132 693 0 694 0 0 1800 0 1800 -2400 0 -2400 0 0 -734z
m1243 99 c1 -15 -3 -30 -10 -32 -15 -5 -28 40 -19 64 9 23 26 4 29 -32z m2657
-364 c0 -13 -50 -28 -77 -23 -34 5 -28 20 10 25 60 7 67 7 67 -2z m-2628 -142
l-10 -34 -1 45 c-1 31 2 41 10 33 7 -7 7 -21 1 -44z m-809 -356 c18 -9 27 -18
20 -20 -12 -4 -73 23 -73 32 0 10 21 5 53 -12z m3831 -941 c11 -40 5 -47 -26
-31 -28 15 -38 28 -38 52 0 14 6 18 27 15 21 -2 29 -10 37 -36z m236 -342 c0
-5 -15 -9 -32 -9 l-33 1 30 8 c17 4 31 8 33 9 1 0 2 -3 2 -9z m-422 -117 c17
-40 19 -51 8 -67 -21 -33 -34 -29 -45 11 -28 98 0 140 37 56z"/>
<path d="M2635 2340 c-28 -44 -34 -74 -10 -50 15 16 49 90 40 90 -2 0 -16 -18
-30 -40z"/>
<path d="M2690 2285 c-8 -9 -8 -15 -2 -15 12 0 26 19 19 26 -2 2 -10 -2 -17
-11z"/>
<path d="M1685 1975 c-143 -20 -175 -27 -175 -36 0 -5 17 -9 38 -9 101 -1 198
-95 248 -241 28 -81 27 -239 -3 -297 l-21 -43 23 -9 c55 -21 32 -41 -47 -41
-24 -1 -61 -1 -83 -2 -24 -1 -57 7 -80 19 -36 19 -40 25 -40 60 l0 39 50 5
c60 6 123 43 131 77 11 44 -3 140 -29 195 -41 85 -53 94 -134 101 -65 6 -72 5
-78 -12 -3 -11 -26 -31 -50 -45 -50 -30 -75 -35 -55 -11 7 9 11 17 9 19 -4 3
-97 -7 -187 -20 -43 -6 -34 -19 25 -33 57 -15 96 -38 87 -53 -4 -7 -37 -8
-100 -3 -108 8 -120 -2 -42 -34 60 -25 59 -36 -3 -22 -24 6 -61 11 -82 11 -20
0 -56 8 -80 18 -54 24 -166 59 -238 76 -100 23 -245 3 -439 -59 -91 -29 -202
-61 -248 -71 l-82 -19 0 -767 0 -768 865 0 865 0 66 45 c283 194 337 246 462
438 145 223 238 362 285 427 26 36 60 83 75 105 23 32 28 48 25 77 -5 36 -5
36 -71 48 -37 6 -87 22 -111 36 -24 13 -54 24 -67 24 -32 0 -31 29 3 87 39 67
54 160 42 253 -10 73 -109 384 -129 404 -18 18 -270 45 -405 45 -71 -1 -170
-7 -220 -14z m-50 -276 c7 -29 -4 -48 -26 -49 -9 0 -18 51 -12 67 9 24 31 13
38 -18z m479 -805 c23 -9 20 -34 -5 -34 -25 0 -59 17 -59 30 0 11 40 13 64 4z
m-1796 -196 c2 -23 -3 -43 -16 -58 -22 -28 -38 -21 -47 21 -6 24 -2 36 16 55
29 31 43 26 47 -18z m1372 -247 c0 -9 -41 -23 -49 -16 -3 4 28 20 47 24 1 1 2
-3 2 -8z"/>
</g>
</svg>
