<?xml version="1.0" standalone="no"?>
<!DOCTYPE svg PUBLIC "-//W3C//DTD SVG 20010904//EN"
 "http://www.w3.org/TR/2001/REC-SVG-20010904/DTD/svg10.dtd">
<svg version="1.0" xmlns="http://www.w3.org/2000/svg"
 width="480.000000pt" height="360.000000pt" viewBox="0 0 480.000000 360.000000"
 preserveAspectRatio="xMidYMid meet">
<metadata>
Created by potrace 1.16, written by Peter Selinger 2001-2019
</metadata>
<rect width="1" height="360" fill="#000000"/>
<rect x="479" width="1" height="360" fill="#000000"/>
<rect width="480" height="1" fill="#000000"/>
<rect y="359" width="480" height="1" fill="#000000"/>
<g transform="translate(0.000000,360.000000) scale(0.100000,-0.100000)"
fill="#000000" stroke="none">
<path d="M0 2694 c0 -832 1 -906 16 -900 72 28 372 54 904 80 576 29 927 36
2034 41 794 4 1112 8 1117 16 4 6 9 32 13 57 3 25 18 65 32 90 25 42 27 44 62
37 70 -13 104 -49 104 -109 0 -30 4 -35 30 -40 17 -3 37 -1 44 5 8 6 28 9 46
6 19 -2 45 2 62 10 20 10 47 14 85 11 45 -4 61 -1 83 15 22 16 36 19 79 14 28
-4 60 -14 70 -23 19 -17 19 3 19 789 l0 807 -2400 0 -2400 0 0 -906z m4380
496 c0 -5 -10 -10 -22 -10 -19 0 -20 2 -8 10 19 13 30 13 30 0z"/>
<path d="M1810 1679 c-445 -8 -753 -20 -1467 -56 l-343 -17 0 -803 0 -803
2400 0 2400 0 0 693 0 692 -92 31 c-209 70 -308 124 -358 197 -13 19 -31 39
-39 44 -14 9 -16 4 -13 -38 3 -38 -2 -58 -25 -98 -26 -48 -30 -51 -69 -51 -61
0 -96 41 -109 128 l-10 67 -180 7 c-241 10 -1676 15 -2095 7z"/>
</g>
</svg>
