<?xml version="1.0" standalone="no"?>
<!DOCTYPE svg PUBLIC "-//W3C//DTD SVG 20010904//EN"
 "http://www.w3.org/TR/2001/REC-SVG-20010904/DTD/svg10.dtd">
<svg version="1.0" xmlns="http://www.w3.org/2000/svg"
 width="480.000000pt" height="360.000000pt" viewBox="0 0 480.000000 360.000000"
 preserveAspectRatio="xMidYMid meet">
<metadata>
Created by potrace 1.16, written by Peter Selinger 2001-2019
</metadata>
<rect width="1" height="360" fill="#000000"/>
<rect x="479" width="1" height="360" fill="#000000"/>
<rect width="480" height="1" fill="#000000"/>
<rect y="359" width="480" height="1" fill="#000000"/>
<g transform="translate(0.000000,360.000000) scale(0.100000,-0.100000)"
fill="#000000" stroke="none">
<path d="M2775 3219 c-69 -7 -144 -37 -197 -79 -20 -17 -43 -27 -51 -24 -18 7
-41 -21 -33 -42 3 -9 -2 -28 -12 -42 -39 -57 -55 -116 -60 -224 -5 -108 -3
-114 30 -109 4 0 15 -13 25 -29 19 -33 36 -40 27 -12 -5 14 -3 14 11 -3 9 -11
21 -19 28 -18 7 1 23 -6 37 -17 22 -17 23 -22 13 -39 -20 -31 -16 -50 12 -57
13 -3 27 -15 30 -25 4 -10 10 -19 13 -19 4 0 29 -18 56 -40 38 -32 52 -38 66
-30 25 13 28 13 33 -7 4 -15 6 -15 12 5 9 26 20 29 29 6 7 -19 -35 -73 -111
-140 -64 -56 -149 -161 -140 -171 4 -3 13 0 22 7 22 18 19 -2 -9 -58 -28 -57
-66 -165 -66 -190 0 -11 9 -54 20 -97 11 -43 18 -80 16 -82 -2 -2 -39 13 -82
35 -44 21 -118 52 -166 67 -86 28 -108 46 -108 90 0 8 -7 30 -16 49 -16 33
-16 36 4 70 12 20 17 38 11 41 -14 9 -11 25 6 25 9 0 20 12 25 26 9 21 5 34
-17 70 -49 79 -59 89 -74 78 -8 -6 -34 -16 -59 -23 -60 -17 -89 -36 -102 -69
-6 -15 -14 -85 -19 -157 -4 -71 -15 -164 -24 -205 -12 -56 -15 -101 -10 -179
6 -101 14 -131 42 -159 23 -24 14 -77 -38 -224 -64 -183 -73 -225 -48 -238 10
-6 26 -10 37 -10 46 0 100 -37 148 -99 27 -35 56 -67 64 -71 89 -44 101 -38
61 36 l-30 55 27 10 c15 6 48 8 74 5 25 -4 49 -2 52 3 3 5 14 7 24 5 9 -2 26
3 36 11 16 12 19 27 19 82 0 59 -44 425 -58 491 -4 16 1 25 18 33 21 10 36 3
120 -51 l97 -62 0 -56 c0 -32 4 -63 9 -70 9 -16 0 -78 -34 -217 -49 -203 -55
-237 -70 -352 -18 -141 -66 -317 -146 -545 -32 -92 -59 -169 -59 -172 0 -4
335 -6 745 -6 l745 0 -19 38 c-11 22 -54 97 -96 168 -100 170 -145 264 -250
529 -92 231 -132 313 -239 485 -40 64 -66 116 -66 133 0 15 -7 44 -15 64 -16
39 -37 204 -30 238 2 11 7 37 10 58 4 23 11 37 21 37 10 0 13 7 8 25 -11 43 5
111 35 148 24 31 29 33 39 19 9 -14 11 -14 9 -2 -1 10 8 16 26 18 33 4 34 13
6 117 -30 116 -59 196 -85 234 -28 41 -24 50 10 27 36 -23 44 -20 52 19 5 28
9 33 20 24 10 -8 15 -5 20 16 4 17 11 24 21 21 11 -5 12 2 7 30 -6 34 -5 36
15 29 19 -6 20 -4 11 20 -15 38 -13 58 5 51 19 -7 19 -7 -5 49 -25 59 -25 68
0 30 31 -47 24 -12 -15 71 -19 42 -46 118 -59 170 -33 124 -57 167 -130 240
-111 110 -160 128 -311 113z"/>
</g>
</svg>
