<?xml version="1.0" standalone="no"?>
<!DOCTYPE svg PUBLIC "-//W3C//DTD SVG 20010904//EN"
 "http://www.w3.org/TR/2001/REC-SVG-20010904/DTD/svg10.dtd">
<svg version="1.0" xmlns="http://www.w3.org/2000/svg"
 width="480.000000pt" height="360.000000pt" viewBox="0 0 480.000000 360.000000"
 preserveAspectRatio="xMidYMid meet">
<metadata>
Created by potrace 1.16, written by Peter Selinger 2001-2019
</metadata>
<rect width="1" height="360" fill="#000000"/>
<rect x="479" width="1" height="360" fill="#000000"/>
<rect width="480" height="1" fill="#000000"/>
<rect y="359" width="480" height="1" fill="#000000"/>
<g transform="translate(0.000000,360.000000) scale(0.100000,-0.100000)"
fill="#000000" stroke="none">
<path d="M2275 3251 c-70 -5 -116 -15 -153 -31 -70 -30 -151 -118 -180 -195
-40 -103 -51 -234 -27 -312 6 -18 -3 -33 -44 -76 -43 -46 -57 -55 -84 -53 -30
1 -32 -1 -35 -36 -2 -20 -10 -42 -18 -48 -24 -21 -16 -34 56 -88 92 -69 115
-79 136 -61 14 11 18 11 29 -5 8 -10 11 -24 9 -31 -3 -8 2 -12 13 -12 14 2 17
-4 15 -27 -4 -35 -54 -137 -77 -156 -22 -18 -1 -31 38 -23 l28 6 -6 -64 -6
-64 35 38 c20 20 38 37 40 37 2 0 15 -18 30 -40 31 -47 46 -51 46 -12 1 26 3
24 56 -33 52 -56 55 -58 51 -30 l-5 29 28 -33 c26 -32 28 -33 38 -15 9 16 11
16 12 3 0 -28 -22 -37 -135 -53 -137 -19 -169 -28 -226 -65 -54 -34 -89 -90
-145 -233 -44 -113 -40 -111 -199 -112 -122 -1 -183 20 -314 110 -232 160
-269 182 -346 214 -95 38 -115 54 -115 90 0 15 -7 33 -15 40 -21 18 -43 -4
-118 -115 -153 -228 -282 -370 -529 -582 l-158 -135 0 -50 c0 -42 2 -49 18
-44 243 73 264 76 385 41 52 -14 106 -25 119 -23 18 2 34 25 78 109 30 59 61
114 69 123 25 29 50 19 83 -34 17 -28 35 -50 39 -50 13 0 29 36 29 65 0 14 6
28 14 31 45 17 206 -107 206 -159 0 -37 18 -35 96 12 82 50 150 67 199 51 19
-6 66 -36 104 -66 38 -30 80 -54 92 -54 18 0 83 44 226 153 7 5 26 6 43 2 24
-5 31 -11 27 -25 -6 -22 10 -50 27 -50 8 0 17 -7 20 -15 7 -18 0 -139 -15
-248 -12 -93 -4 -111 65 -152 l44 -25 -21 -81 c-18 -72 -23 -81 -50 -92 -27
-12 -31 -18 -33 -61 -1 -29 -9 -58 -22 -75 -24 -33 -18 -106 10 -106 9 0 19
-3 23 -7 3 -3 -21 -60 -54 -127 l-61 -121 615 0 c338 0 615 2 615 5 0 9 -76
158 -109 214 l-31 52 30 53 c17 29 30 55 30 58 0 5 -45 65 -80 106 -17 20 -20
38 -20 112 0 133 19 196 35 117 15 -69 74 -98 159 -76 97 24 116 89 90 304
-14 113 -14 141 -4 161 8 13 17 24 21 24 4 0 20 5 34 10 l27 10 -31 35 c-64
73 -31 70 105 -10 50 -30 132 -87 183 -127 183 -143 178 -142 262 -85 35 23
77 48 92 55 66 28 141 6 244 -73 58 -44 83 -45 104 -2 20 41 103 84 191 99 98
17 112 8 109 -70 -3 -64 5 -76 27 -42 7 11 17 20 23 20 6 0 30 20 55 45 64 66
98 60 162 -28 21 -29 51 -74 67 -102 l30 -50 3 300 2 299 -23 21 c-35 31 -145
161 -217 257 -58 77 -106 118 -140 118 -6 0 -10 -18 -10 -39 0 -47 -14 -64
-77 -87 -160 -58 -209 -81 -346 -163 -240 -142 -329 -161 -550 -121 -132 24
-156 23 -164 -11 -8 -30 -55 -22 -64 11 -44 163 -110 308 -164 356 -37 33 -89
51 -235 79 -47 10 -106 28 -131 41 l-47 23 22 43 c20 41 21 42 26 18 5 -24 6
-24 17 -5 6 11 15 17 19 13 4 -4 20 2 35 13 l29 20 0 -20 c0 -22 14 -28 25
-10 4 6 13 8 21 5 8 -3 14 1 14 11 0 11 3 13 13 5 19 -16 43 7 51 48 3 19 11
42 16 50 9 13 12 13 24 -2 19 -25 35 -22 46 7 10 25 11 25 40 10 45 -24 54 -9
20 33 -36 44 -37 52 -7 53 12 0 31 4 41 8 18 7 17 9 -12 26 -17 10 -40 32 -52
47 l-21 29 25 54 c21 46 29 55 51 55 20 0 29 8 41 36 20 48 12 75 -31 108 -33
26 -72 83 -62 92 2 3 56 -20 118 -50 78 -36 119 -51 130 -45 32 17 51 137 29
193 -12 33 -6 36 87 40 119 6 135 17 85 64 -71 68 -122 187 -131 302 l-6 85
-38 3 c-44 4 -160 -38 -200 -72 -24 -20 -63 -45 -115 -75 -23 -12 -27 -10 -78
43 -36 38 -76 68 -121 89 -68 32 -69 32 -238 33 -93 1 -215 -1 -270 -5z"/>
</g>
</svg>
