<?xml version="1.0" standalone="no"?>
<!DOCTYPE svg PUBLIC "-//W3C//DTD SVG 20010904//EN"
 "http://www.w3.org/TR/2001/REC-SVG-20010904/DTD/svg10.dtd">
<svg version="1.0" xmlns="http://www.w3.org/2000/svg"
 width="480.000000pt" height="360.000000pt" viewBox="0 0 480.000000 360.000000"
 preserveAspectRatio="xMidYMid meet">
<metadata>
Created by potrace 1.16, written by Peter Selinger 2001-2019
</metadata>
<rect width="1" height="360" fill="#000000"/>
<rect x="479" width="1" height="360" fill="#000000"/>
<rect width="480" height="1" fill="#000000"/>
<rect y="359" width="480" height="1" fill="#000000"/>
<g transform="translate(0.000000,360.000000) scale(0.100000,-0.100000)"
fill="#000000" stroke="none">
<path d="M0 1800 l0 -1800 870 0 c479 0 870 1 870 3 0 58 125 485 172 587 44
96 98 247 98 275 0 36 -17 31 -27 -8 -7 -28 -9 -22 -14 43 l-5 75 -3 -105 c-5
-147 -15 -187 -24 -95 -15 142 -29 243 -36 254 -5 8 -20 5 -49 -11 -37 -21
-43 -21 -57 -8 -8 9 -18 43 -21 78 l-7 62 42 0 41 0 -1 48 c0 26 -4 68 -7 94
l-7 48 -55 -71 c-65 -84 -98 -110 -154 -120 -60 -11 -98 9 -131 68 -72 127
-103 174 -163 242 -62 72 -64 76 -59 118 5 50 -10 73 -49 73 -80 0 -264 93
-279 141 -8 23 10 49 33 49 8 0 24 8 34 17 19 17 107 21 186 9 56 -9 69 3 51
50 -13 33 -20 40 -55 47 -36 7 -42 12 -52 45 -7 24 -8 60 -3 103 9 72 5 120
-13 131 -8 5 -7 11 2 20 21 21 14 56 -15 75 -16 10 -31 22 -35 28 -14 19 -7
90 15 149 l22 60 70 24 c75 25 84 27 157 24 44 -2 50 -5 74 -42 33 -49 54 -52
54 -7 0 23 10 43 35 70 18 20 38 37 44 37 15 0 31 -68 31 -133 0 -52 -4 -62
-30 -89 -35 -34 -37 -44 -12 -53 9 -3 32 -26 50 -51 26 -36 32 -54 32 -95 0
-57 -19 -110 -47 -130 -25 -18 -39 -44 -47 -91 -4 -20 -21 -54 -39 -75 -18
-22 -39 -49 -47 -61 -8 -12 -39 -30 -68 -41 l-54 -18 27 -21 c36 -29 60 -35
84 -23 33 18 61 13 71 -14 5 -13 22 -31 38 -39 27 -14 62 -75 62 -109 0 -6 10
-32 21 -57 l20 -44 42 75 c36 62 42 81 39 116 -4 40 -1 46 49 96 30 29 61 61
69 71 14 18 13 19 -7 14 -12 -3 -30 0 -39 7 -15 11 -16 21 -8 91 l9 79 53 3
c28 2 52 6 52 9 0 4 13 88 30 187 16 100 34 228 40 285 15 156 47 262 97 329
l25 33 -27 -7 c-22 -6 -27 -2 -38 25 l-12 32 -67 -7 c-63 -6 -68 -5 -93 20
-25 25 -26 31 -20 79 9 70 71 260 93 286 17 20 17 20 122 -13 106 -33 189 -70
291 -132 50 -30 60 -33 88 -23 23 8 44 8 80 -1 46 -11 55 -9 145 24 104 39
193 60 300 70 l69 7 -7 -63 c-3 -35 -20 -119 -36 -188 -23 -96 -34 -128 -52
-142 -31 -23 -45 -22 -97 7 -24 14 -45 24 -47 22 -2 -2 8 -21 23 -42 70 -103
82 -220 35 -340 l-28 -70 11 -207 c5 -113 13 -209 17 -213 3 -4 20 1 37 9 32
17 59 20 85 10 12 -5 16 -21 16 -69 0 -80 -6 -95 -37 -95 -23 0 -23 -2 22 -62
73 -101 88 -135 82 -187 -5 -35 1 -69 25 -141 17 -52 34 -98 37 -103 4 -4 39
26 79 67 64 67 77 76 128 87 48 11 60 11 83 -2 24 -15 29 -14 77 13 42 23 68
29 146 35 122 8 165 0 180 -33 9 -19 9 -30 0 -45 -20 -32 -15 -42 18 -36 26 6
32 2 45 -23 15 -29 14 -30 -14 -45 -16 -8 -93 -31 -171 -50 -169 -43 -190 -50
-190 -68 0 -34 -42 -66 -119 -92 -49 -16 -113 -49 -168 -85 -96 -65 -129 -73
-190 -44 -19 10 -41 28 -50 40 -21 33 -30 30 -37 -10 -4 -19 -15 -45 -25 -57
l-18 -22 -35 21 c-54 34 -61 30 -54 -30 3 -29 2 -82 -3 -118 -8 -59 -6 -73 21
-150 16 -47 47 -124 69 -172 41 -89 183 -499 195 -563 l6 -35 859 0 859 0 0
1800 0 1800 -2400 0 -2400 0 0 -1800z m1331 1187 c-8 -8 -11 -2 -11 19 0 40
14 54 18 19 2 -15 -1 -32 -7 -38z m2275 -442 c8 -12 21 -54 29 -94 16 -73 41
-146 57 -168 6 -7 21 -10 37 -7 24 5 29 2 40 -28 7 -18 20 -49 30 -68 26 -50
54 -169 48 -205 -6 -38 -103 -253 -125 -277 -11 -13 -30 -18 -67 -18 -29 0
-68 -6 -86 -14 -30 -13 -37 -12 -70 5 -58 29 -99 100 -99 169 0 21 -8 58 -18
82 -32 77 -56 188 -44 200 9 9 16 7 30 -5 31 -28 42 -21 42 27 0 41 4 48 44
81 26 21 47 48 51 64 3 16 17 43 31 62 13 18 24 39 24 46 0 21 -27 27 -61 13
-38 -16 -61 0 -41 28 6 9 23 40 36 68 35 75 78 90 112 39z m-2506 -309 c0 -7
-7 -20 -16 -27 -14 -11 -18 -10 -30 5 -7 11 -11 23 -8 27 9 15 54 10 54 -5z"/>
<path d="M3695 1520 c-8 -13 3 -30 19 -30 7 0 21 9 31 20 18 20 17 20 -13 20
-17 0 -34 -4 -37 -10z"/>
<path d="M2782 1480 c0 -14 2 -19 5 -12 2 6 2 18 0 25 -3 6 -5 1 -5 -13z"/>
<path d="M2771 1394 c0 -11 3 -14 6 -6 3 7 2 16 -1 19 -3 4 -6 -2 -5 -13z"/>
<path d="M2763 1325 c0 -27 2 -38 4 -22 2 15 2 37 0 50 -2 12 -4 0 -4 -28z"/>
<path d="M2840 1358 c0 -3 -7 -43 -16 -88 -8 -46 -12 -86 -7 -91 6 -6 83 7
101 17 1 1 -16 39 -38 85 -22 45 -40 80 -40 77z"/>
<path d="M2752 1250 c0 -14 2 -19 5 -12 2 6 2 18 0 25 -3 6 -5 1 -5 -13z"/>
<path d="M1881 1144 c0 -11 3 -14 6 -6 3 7 2 16 -1 19 -3 4 -6 -2 -5 -13z"/>
</g>
</svg>
