<?xml version="1.0" standalone="no"?>
<!DOCTYPE svg PUBLIC "-//W3C//DTD SVG 20010904//EN"
 "http://www.w3.org/TR/2001/REC-SVG-20010904/DTD/svg10.dtd">
<svg version="1.0" xmlns="http://www.w3.org/2000/svg"
 width="480.000000pt" height="360.000000pt" viewBox="0 0 480.000000 360.000000"
 preserveAspectRatio="xMidYMid meet">
<metadata>
Created by potrace 1.16, written by Peter Selinger 2001-2019
</metadata>
<rect width="1" height="360" fill="#000000"/>
<rect x="479" width="1" height="360" fill="#000000"/>
<rect width="480" height="1" fill="#000000"/>
<rect y="359" width="480" height="1" fill="#000000"/>
<g transform="translate(0.000000,360.000000) scale(0.100000,-0.100000)"
fill="#000000" stroke="none">
<path d="M0 2731 l0 -869 148 49 c99 33 164 49 198 49 51 0 52 1 149 92 l97
92 166 -85 c92 -46 237 -126 322 -177 193 -115 241 -132 381 -127 57 1 132 8
166 14 57 11 70 10 146 -14 46 -14 91 -25 100 -25 11 0 32 30 61 88 55 109 90
141 198 181 131 49 154 62 150 90 -2 13 -30 49 -63 81 -32 32 -59 63 -59 69 0
6 -4 11 -10 11 -5 0 -10 -11 -10 -25 0 -29 -8 -32 -24 -9 -10 13 -18 4 -48
-58 -20 -40 -43 -82 -51 -92 -13 -18 -15 -17 -21 17 -5 25 -2 46 9 68 9 17 14
33 11 36 -2 3 -11 -8 -19 -24 -8 -15 -25 -37 -37 -48 l-23 -20 6 25 c3 14 12
50 21 80 18 63 20 100 6 100 -5 0 -10 16 -10 36 0 19 -4 33 -9 30 -5 -4 -11
-1 -13 5 -3 9 -10 9 -27 0 -30 -17 -36 -8 -17 22 9 13 14 32 10 41 -9 24 -102
69 -129 62 -15 -4 -29 2 -44 17 l-21 24 22 21 c13 12 44 40 69 62 25 22 57 60
69 84 23 42 23 46 10 114 -10 55 -10 86 -1 147 21 144 68 217 168 267 65 32
73 33 242 42 327 16 395 9 487 -54 47 -33 111 -123 126 -178 11 -40 10 -41 57
36 61 102 159 95 272 -21 61 -62 83 -108 111 -234 16 -77 18 -96 7 -109 -19
-23 -57 -40 -119 -53 -86 -19 -83 -16 -56 -58 14 -21 37 -74 52 -118 25 -71
28 -95 28 -215 1 -156 -2 -165 -97 -300 -73 -103 -82 -113 -74 -82 7 28 -6 28
-26 0 l-15 -23 -26 24 c-14 14 -26 34 -26 45 0 15 -3 17 -12 8 -9 -9 -18 -4
-40 18 -31 33 -31 35 -28 101 1 25 -5 70 -14 99 -9 30 -16 77 -16 106 0 56
-12 76 -29 47 -9 -17 -10 -17 -16 -1 -10 25 -22 14 -29 -27 -9 -48 -24 -53
-41 -13 l-14 33 -7 -43 c-8 -53 -19 -60 -37 -27 l-13 26 -28 -52 c-21 -37 -31
-47 -37 -38 -7 12 -11 11 -22 -1 -15 -16 -37 -73 -37 -97 0 -8 56 -40 133 -77
154 -73 194 -110 241 -225 17 -39 35 -71 41 -71 6 0 34 7 62 15 44 13 55 13
92 0 56 -20 194 -45 245 -45 70 0 167 35 333 118 87 44 212 101 278 127 66 26
137 56 157 66 21 11 45 19 54 19 9 0 59 -42 110 -94 68 -69 102 -96 126 -101
36 -7 76 -20 123 -40 17 -7 68 -27 115 -43 47 -17 93 -33 103 -37 16 -7 17 43
17 954 l0 961 -2400 0 -2400 0 0 -869z"/>
<path d="M564 1983 c-32 -35 -17 -41 43 -18 43 17 45 19 28 31 -27 20 -43 17
-71 -13z"/>
<path d="M850 1834 c-24 -23 -72 -57 -105 -73 l-60 -31 -122 14 c-122 15 -123
15 -175 -8 -29 -13 -59 -21 -65 -19 -22 8 -103 -39 -103 -60 0 -44 -133 -137
-196 -137 l-24 0 0 -760 0 -760 828 0 827 0 24 118 c71 364 154 713 195 827
22 62 26 93 32 256 l7 186 -25 6 c-31 8 -44 62 -22 88 18 21 18 25 -7 50 -17
17 -20 30 -16 65 5 49 13 45 -122 63 -86 11 -100 6 -122 -45 -16 -38 -27 -48
-76 -70 -66 -29 -64 -29 -242 43 -72 29 -86 32 -100 20 -9 -7 -41 -24 -71 -36
-46 -20 -64 -22 -120 -17 -36 4 -81 11 -100 16 -19 5 -69 14 -110 20 -142 22
-190 33 -190 44 0 7 17 19 38 28 54 24 392 128 415 128 16 0 17 3 7 15 -13 16
-132 76 -146 74 -5 -1 -29 -21 -54 -45z"/>
<path d="M4167 1873 c-14 -13 -6 -22 24 -28 36 -8 47 -1 29 20 -13 15 -42 20
-53 8z"/>
<path d="M3823 1748 c-80 -31 -79 -32 81 -68 49 -12 91 -18 94 -15 3 3 -1 5
-10 5 -8 0 -21 11 -28 25 -7 13 -21 27 -32 31 -10 3 -23 14 -28 25 -13 23 -12
23 -77 -3z"/>
<path d="M4202 1640 c-49 -11 -49 -17 -1 -30 39 -11 42 -13 25 -25 -9 -7 -50
-20 -89 -29 -40 -8 -143 -31 -230 -50 -146 -32 -162 -33 -198 -21 -21 8 -39
12 -39 10 0 -2 20 -16 45 -32 25 -15 45 -32 45 -37 0 -12 -403 1 -452 14 -43
12 -114 82 -129 127 l-11 33 -89 0 c-86 0 -89 -1 -86 -22 1 -15 -6 -26 -25
-36 -35 -16 -35 -32 -3 -70 31 -37 31 -41 0 -67 -14 -11 -27 -31 -28 -45 -2
-31 14 -387 19 -415 21 -107 25 -241 17 -460 l-10 -240 51 -120 51 -120 868
-3 867 -2 0 665 c0 640 -1 665 -19 665 -10 0 -47 15 -82 33 -65 34 -108 86
-109 132 0 12 -18 32 -48 52 -41 27 -53 31 -93 26 -38 -4 -54 -1 -92 21 -25
15 -51 33 -57 41 -13 16 -45 18 -98 5z"/>
<path d="M4765 1615 c-5 -2 -23 -6 -40 -10 l-30 -7 25 -13 c14 -8 37 -14 53
-15 22 0 27 4 27 25 0 23 -10 29 -35 20z"/>
</g>
</svg>
