<?xml version="1.0" standalone="no"?>
<!DOCTYPE svg PUBLIC "-//W3C//DTD SVG 20010904//EN"
 "http://www.w3.org/TR/2001/REC-SVG-20010904/DTD/svg10.dtd">
<svg version="1.0" xmlns="http://www.w3.org/2000/svg"
 width="480.000000pt" height="360.000000pt" viewBox="0 0 480.000000 360.000000"
 preserveAspectRatio="xMidYMid meet">
<metadata>
Created by potrace 1.16, written by Peter Selinger 2001-2019
</metadata>
<rect width="1" height="360" fill="#000000"/>
<rect x="479" width="1" height="360" fill="#000000"/>
<rect width="480" height="1" fill="#000000"/>
<rect y="359" width="480" height="1" fill="#000000"/>
<g transform="translate(0.000000,360.000000) scale(0.100000,-0.100000)"
fill="#000000" stroke="none">
<path d="M0 2175 l0 -1425 109 0 c74 0 112 4 117 12 13 21 18 276 5 291 -8 11
-3 29 22 78 30 59 35 65 77 75 78 19 90 26 96 50 6 23 2 94 -7 124 -3 10 12
23 45 38 48 23 48 24 43 63 -5 36 10 89 24 89 4 0 14 -12 24 -26 12 -19 14
-29 6 -37 -15 -15 -13 -58 2 -78 7 -9 26 -20 42 -26 l30 -10 -3 -80 c-4 -74
-2 -80 20 -95 13 -8 42 -19 65 -22 39 -7 42 -10 68 -71 23 -56 26 -69 16 -96
-6 -18 -11 -86 -11 -151 l0 -119 38 3 37 3 5 100 c5 97 6 102 49 170 69 109
61 108 120 6 48 -86 51 -95 51 -161 0 -48 4 -72 13 -75 6 -2 155 -11 330 -19
l318 -16 70 -63 c38 -34 75 -64 81 -66 8 -3 10 48 5 186 l-6 191 51 76 c28 42
54 76 57 76 3 0 27 -34 53 -74 l46 -74 -6 -511 -5 -511 1351 0 1352 0 0 1800
0 1800 -2400 0 -2400 0 0 -1425z m3120 585 c29 -16 43 -49 45 -106 1 -27 8
-63 16 -79 13 -27 23 -32 113 -51 54 -12 102 -26 107 -31 17 -17 -44 -69 -90
-77 l-44 -7 28 -29 c16 -17 25 -33 22 -37 -4 -4 5 -19 20 -35 l27 -28 -31 6
c-24 5 -36 1 -53 -16 -12 -12 -19 -28 -16 -37 6 -13 4 -14 -9 -3 -24 20 -42
-5 -47 -68 -5 -48 -4 -51 11 -38 20 18 136 72 175 80 28 7 28 7 21 -31 -3 -21
-16 -58 -28 -83 -11 -25 -21 -49 -21 -54 -1 -6 25 -8 59 -6 149 8 243 5 233
-7 -5 -7 -18 -15 -29 -18 -31 -10 -22 -22 31 -40 44 -15 67 -35 40 -35 -5 0
-10 -4 -10 -10 0 -5 27 -12 61 -16 59 -7 68 -19 20 -26 -37 -5 -36 -25 1 -37
18 -6 39 -20 45 -30 12 -19 10 -19 -32 -15 -55 5 -60 -12 -14 -50 29 -25 29
-26 8 -26 -22 0 -22 0 -3 -15 18 -14 18 -14 -11 -15 -23 0 -26 -3 -15 -10 8
-5 15 -17 15 -26 0 -10 16 -23 42 -33 51 -20 68 -36 31 -29 -16 3 -28 1 -28
-5 0 -5 -10 -7 -22 -3 -69 19 -67 19 -61 -3 3 -13 14 -21 27 -21 11 0 28 -5
36 -11 11 -8 2 -9 -37 -6 -45 3 -52 2 -57 -17 -3 -11 0 -24 7 -28 25 -15 -3
-19 -32 -4 -46 24 -46 24 -23 -44 3 -8 -13 2 -34 23 -22 20 -48 37 -57 37 -21
0 -34 -27 -19 -42 7 -7 5 -19 -7 -39 -17 -30 -29 -37 -28 -16 1 41 -6 49 -69
77 -36 17 -69 30 -72 30 -4 0 -7 -21 -7 -46 0 -36 -5 -50 -24 -65 -54 -44 -86
-18 -106 86 -12 64 -20 83 -42 102 -55 45 -66 35 -103 -93 -23 -82 -40 -95
-76 -59 -17 18 -24 35 -24 65 0 36 -3 41 -32 53 -29 12 -34 12 -39 -1 -4 -12
-7 -13 -13 -3 -4 6 -25 23 -47 37 -22 13 -37 29 -34 33 2 5 -2 11 -10 15 -10
3 -15 -1 -15 -13 0 -23 -8 -31 -26 -24 -9 3 -11 14 -7 34 4 23 2 29 -11 29
-19 0 -38 42 -30 65 4 9 19 15 36 15 18 0 38 9 53 26 13 14 36 38 50 54 15 16
40 32 55 35 35 8 43 18 58 70 15 52 1 107 -32 128 -16 11 -26 29 -30 57 -3 22
-9 58 -12 79 -4 27 -1 46 10 64 21 31 15 116 -11 167 -20 38 -31 40 -108 21
-22 -5 -40 -9 -40 -8 0 1 -6 12 -12 24 -12 21 -10 24 31 42 24 10 54 22 66 26
22 7 22 7 -6 36 -30 31 -28 35 10 18 40 -19 81 6 112 68 48 99 112 136 174
103z"/>
<path d="M2895 1759 c-11 -17 1 -21 15 -4 8 9 8 15 2 15 -6 0 -14 -5 -17 -11z"/>
<path d="M3632 1548 c3 -7 15 -14 29 -16 23 -2 23 -2 5 13 -24 18 -39 20 -34
3z"/>
</g>
</svg>
