<?xml version="1.0" standalone="no"?>
<!DOCTYPE svg PUBLIC "-//W3C//DTD SVG 20010904//EN"
 "http://www.w3.org/TR/2001/REC-SVG-20010904/DTD/svg10.dtd">
<svg version="1.0" xmlns="http://www.w3.org/2000/svg"
 width="480.000000pt" height="360.000000pt" viewBox="0 0 480.000000 360.000000"
 preserveAspectRatio="xMidYMid meet">
<metadata>
Created by potrace 1.16, written by Peter Selinger 2001-2019
</metadata>
<rect width="1" height="360" fill="#000000"/>
<rect x="479" width="1" height="360" fill="#000000"/>
<rect width="480" height="1" fill="#000000"/>
<rect y="359" width="480" height="1" fill="#000000"/>
<g transform="translate(0.000000,360.000000) scale(0.100000,-0.100000)"
fill="#000000" stroke="none">
<path d="M138 3588 c7 -7 12 -26 12 -43 0 -29 15 -55 31 -55 4 0 10 12 14 28
5 18 9 22 13 12 3 -8 16 -32 29 -53 25 -40 26 -53 24 -267 l-1 -65 20 25 c11
14 20 28 20 33 0 4 4 7 8 7 15 0 32 -74 25 -113 -7 -44 1 -48 21 -10 l14 27
23 -48 c12 -27 31 -51 41 -54 15 -4 10 -9 -22 -23 -50 -22 -100 -24 -138 -6
-17 9 -54 13 -102 11 -42 -1 -96 3 -123 11 l-47 14 0 -28 c0 -23 5 -30 28 -34
15 -3 40 -10 55 -16 l28 -11 -29 -25 c-17 -14 -42 -45 -56 -69 l-26 -45 0
-1395 0 -1396 205 0 205 0 0 38 c0 60 12 142 21 142 4 0 10 -8 13 -18 3 -10
38 -51 77 -92 78 -82 80 -82 99 5 26 118 42 293 37 405 -6 127 -22 191 -74
294 -19 37 -32 70 -29 73 3 3 17 -4 33 -15 69 -48 115 -64 172 -60 59 5 138
36 161 63 11 14 10 23 -7 58 -53 109 -189 253 -262 277 -40 13 -42 16 -37 44
4 16 17 48 31 71 43 74 174 242 245 315 38 39 72 80 75 91 5 14 -4 38 -26 75
-27 44 -38 54 -60 54 -24 0 -38 -15 -103 -112 -80 -119 -136 -188 -225 -278
l-54 -55 6 61 c12 114 166 490 200 488 9 -1 17 5 17 12 0 12 4 12 20 4 21 -11
24 -8 20 23 -1 17 0 17 22 3 19 -12 131 -46 152 -46 3 0 6 7 6 15 0 19 -1 19
55 -5 62 -27 69 -26 62 10 -7 34 -7 34 63 19 64 -14 81 -3 73 47 -5 31 -3 34
19 34 38 0 59 -29 51 -74 -3 -22 -1 -46 7 -61 8 -15 11 -40 7 -70 -7 -49 -4
-53 20 -29 22 22 32 7 41 -61 l7 -58 24 51 c33 70 50 68 45 -4 -4 -49 -2 -55
12 -50 13 5 15 2 9 -11 -9 -21 -16 -200 -9 -226 3 -9 9 -15 14 -12 16 10 19
-11 9 -85 -9 -78 -6 -94 14 -67 10 15 12 11 14 -25 5 -107 15 -159 28 -154 18
7 24 -14 18 -63 -3 -22 -3 -41 1 -41 3 0 25 11 47 26 36 22 39 23 30 5 -13
-24 -14 -54 -2 -46 16 9 22 -12 22 -72 l0 -57 23 29 c13 16 25 24 29 19 6 -11
-31 -154 -44 -168 -14 -16 -10 -26 7 -19 14 5 15 1 9 -28 -4 -19 -14 -46 -21
-61 -19 -37 -18 -39 12 -28 34 13 34 13 27 -8 -5 -14 -3 -14 9 2 15 20 16 20
21 0 3 -10 4 -32 2 -47 -3 -25 -1 -27 13 -15 9 7 13 8 10 3 -4 -6 -3 -17 1
-24 6 -9 32 23 85 103 42 64 78 116 80 116 1 0 3 -28 4 -62 1 -33 4 -63 7 -66
2 -2 0 -14 -6 -25 -9 -15 -8 -18 2 -12 9 6 11 3 6 -9 -7 -18 15 -50 27 -39 8
8 8 4 -4 -36 -8 -30 -7 -33 10 -28 13 3 20 0 20 -8 0 -8 9 -16 19 -20 15 -4
18 -14 16 -43 -1 -20 -8 -52 -15 -70 -17 -44 -7 -50 21 -13 13 17 26 31 30 31
9 0 5 -42 -6 -60 -5 -8 -4 -11 3 -6 6 3 13 -6 17 -24 4 -17 13 -30 21 -30 11
0 12 -5 6 -17 -5 -10 -12 -31 -16 -48 -7 -30 -7 -30 38 14 25 25 48 43 50 40
2 -2 -2 -21 -9 -42 -13 -39 -6 -57 15 -32 14 17 45 21 35 5 -3 -6 -2 -10 3
-10 9 0 3 -46 -13 -97 -9 -30 9 -30 22 -1 l10 23 7 -22 7 -23 466 0 466 0 -7
158 c-7 151 -37 543 -56 725 -7 73 -6 94 7 125 12 26 18 32 21 20 2 -10 9 -18
17 -18 7 0 16 -8 20 -17 6 -16 8 -15 24 6 l18 24 7 -24 7 -24 11 28 c11 31 23
35 32 10 4 -10 10 -13 16 -7 7 7 28 -7 61 -38 38 -36 55 -46 64 -38 9 8 15 4
20 -12 7 -21 8 -20 18 15 12 43 23 47 39 12 6 -13 15 -22 20 -19 5 3 15 0 23
-6 12 -10 15 -9 15 4 0 9 5 16 11 16 6 0 8 -7 5 -15 -4 -10 3 -20 19 -27 14
-6 25 -18 25 -25 0 -8 4 -12 9 -8 6 3 15 -4 21 -15 9 -16 15 -19 25 -10 9 8
14 6 19 -5 9 -25 26 -7 26 28 0 44 15 67 25 38 3 -12 17 -33 31 -46 13 -13 24
-29 24 -36 0 -6 7 -9 15 -5 8 3 19 -2 24 -12 9 -14 10 -13 11 11 0 38 19 34
64 -12 22 -22 45 -37 52 -34 8 3 21 -1 30 -8 13 -11 14 -9 8 17 -7 29 -7 29
13 11 16 -14 22 -15 26 -5 3 9 12 6 31 -11 l26 -25 -30 73 c-16 40 -43 97 -60
126 -16 29 -30 56 -30 61 0 5 26 -17 58 -47 70 -68 165 -131 185 -123 9 3 25
0 37 -6 45 -24 28 1 -73 106 -163 172 -250 283 -478 614 -183 264 -500 694
-596 808 -77 90 -181 132 -406 162 -343 46 -471 75 -613 140 -155 70 -375 241
-426 333 -16 27 -27 36 -39 32 -10 -3 -20 -1 -24 5 -12 20 -24 10 -35 -29 -6
-22 -18 -48 -28 -60 -18 -22 -181 -105 -190 -97 -2 3 1 25 8 50 10 37 15 43
33 38 17 -4 19 -2 13 14 -12 30 -26 114 -26 152 0 31 2 33 17 21 15 -13 16
-11 10 26 -4 22 -10 133 -14 248 l-6 207 -611 0 c-474 0 -607 -3 -598 -12z
m1121 -688 l1 -85 -55 -21 c-67 -26 -67 -25 -26 96 l28 85 16 -37 c9 -21 18
-38 21 -38 3 0 3 30 1 68 -3 46 -2 59 4 42 5 -14 9 -63 10 -110z m-1102 84
c-3 -3 -12 -4 -19 -1 -8 3 -5 6 6 6 11 1 17 -2 13 -5z m817 -196 c8 24 22 29
29 10 4 -10 8 -9 17 2 10 13 11 12 5 -5 -3 -11 -9 -32 -12 -46 -5 -26 -29 -43
-85 -59 -26 -8 -28 -7 -28 23 0 18 -4 47 -9 65 -5 18 -6 32 -1 32 9 0 25 -20
25 -32 0 -22 15 -14 25 14 l13 33 6 -30 c7 -28 7 -29 15 -7z"/>
</g>
</svg>
