<?xml version="1.0" standalone="no"?>
<!DOCTYPE svg PUBLIC "-//W3C//DTD SVG 20010904//EN"
 "http://www.w3.org/TR/2001/REC-SVG-20010904/DTD/svg10.dtd">
<svg version="1.0" xmlns="http://www.w3.org/2000/svg"
 width="480.000000pt" height="360.000000pt" viewBox="0 0 480.000000 360.000000"
 preserveAspectRatio="xMidYMid meet">
<metadata>
Created by potrace 1.16, written by Peter Selinger 2001-2019
</metadata>
<rect width="1" height="360" fill="#000000"/>
<rect x="479" width="1" height="360" fill="#000000"/>
<rect width="480" height="1" fill="#000000"/>
<rect y="359" width="480" height="1" fill="#000000"/>
<g transform="translate(0.000000,360.000000) scale(0.100000,-0.100000)"
fill="#000000" stroke="none">
<path d="M0 1800 l0 -1800 925 0 925 0 -5 23 c-7 25 51 191 100 287 l28 55 -7
159 c-9 219 -15 263 -36 269 -32 8 -60 132 -41 182 6 14 2 28 -10 44 -11 13
-19 40 -19 59 0 28 45 185 75 263 4 11 -5 29 -23 51 -26 28 -76 130 -96 191
-6 18 -12 21 -57 31 -14 3 -38 17 -52 30 -31 29 -37 88 -12 135 24 47 117 124
206 170 68 35 95 57 144 113 33 38 76 79 97 89 61 31 157 52 210 46 l48 -6 0
704 0 705 -1200 0 -1200 0 0 -1800z"/>
<path d="M2400 1090 l0 -1090 278 2 c325 3 303 -9 248 139 -47 126 -51 186
-36 520 l13 281 19 -31 c11 -17 24 -31 29 -31 18 0 31 44 26 89 -21 162 -28
193 -77 306 l-51 120 25 55 c14 30 32 76 42 102 l16 47 43 -6 c75 -10 145 43
145 111 0 78 -112 191 -257 259 -27 13 -64 38 -84 57 -45 43 -136 113 -168
130 -16 8 -43 10 -78 6 -37 -4 -64 -2 -89 9 -20 8 -38 15 -40 15 -2 0 -4 -491
-4 -1090z m542 736 c67 -49 112 -102 104 -121 -4 -10 -20 -15 -51 -15 -42 0
-46 2 -60 37 -9 21 -25 45 -35 55 -11 11 -20 27 -20 38 0 10 -3 26 -7 36 -9
23 6 17 69 -30z"/>
<path d="M1868 1845 c-61 -41 -120 -102 -116 -122 2 -14 14 -19 53 -21 57 -4
75 12 75 63 0 17 6 39 13 50 18 27 28 55 19 54 -4 0 -24 -11 -44 -24z"/>
<path d="M1991 624 c0 -11 3 -14 6 -6 3 7 2 16 -1 19 -3 4 -6 -2 -5 -13z"/>
<path d="M2001 491 c-1 -42 2 -52 11 -43 8 8 8 23 1 54 l-11 43 -1 -54z"/>
</g>
</svg>
