<?xml version="1.0" standalone="no"?>
<!DOCTYPE svg PUBLIC "-//W3C//DTD SVG 20010904//EN"
 "http://www.w3.org/TR/2001/REC-SVG-20010904/DTD/svg10.dtd">
<svg version="1.0" xmlns="http://www.w3.org/2000/svg"
 width="480.000000pt" height="360.000000pt" viewBox="0 0 480.000000 360.000000"
 preserveAspectRatio="xMidYMid meet">
<metadata>
Created by potrace 1.16, written by Peter Selinger 2001-2019
</metadata>
<rect width="1" height="360" fill="#000000"/>
<rect x="479" width="1" height="360" fill="#000000"/>
<rect width="480" height="1" fill="#000000"/>
<rect y="359" width="480" height="1" fill="#000000"/>
<g transform="translate(0.000000,360.000000) scale(0.100000,-0.100000)"
fill="#000000" stroke="none">
<path d="M0 1800 l0 -1800 1024 0 1023 0 -10 47 c-15 68 -14 425 1 573 7 69
17 175 23 235 6 61 19 153 29 205 10 52 22 151 25 220 4 69 11 139 16 155 5
18 5 51 -1 85 -6 30 -17 125 -24 211 -10 116 -20 169 -36 207 -26 59 -24 132
5 262 30 135 91 245 168 301 22 16 36 29 31 29 -6 0 -15 -5 -21 -11 -8 -8 -24
-3 -60 17 -26 16 -54 34 -61 41 -7 7 -23 13 -34 13 -15 0 -18 4 -13 18 14 31
17 60 8 65 -5 3 -24 2 -43 -2 -44 -10 -87 10 -101 47 -10 25 -11 26 -24 9 -11
-15 -13 -10 -19 45 -11 101 12 184 70 247 l36 41 -16 40 c-9 22 -16 43 -16 45
0 3 16 11 35 19 l35 15 -21 52 c-11 29 -23 57 -25 61 -12 19 22 6 48 -19 15
-14 30 -25 32 -22 2 2 -1 28 -6 57 -6 29 -8 55 -5 59 13 12 121 -64 176 -123
39 -42 66 -63 89 -67 75 -15 130 -48 175 -105 63 -80 90 -140 152 -328 48
-146 65 -182 145 -314 134 -221 169 -299 179 -400 5 -46 6 -90 4 -98 -3 -7 0
-38 7 -68 11 -44 11 -76 1 -167 -20 -187 -22 -197 -34 -197 -7 0 -18 -13 -24
-30 -23 -60 -41 -36 -70 95 l-18 80 -6 -60 c-3 -33 -4 -71 -1 -84 l5 -25 -23
22 c-13 12 -28 22 -32 22 -5 0 -6 4 -3 10 3 5 -3 10 -13 10 -15 0 -23 11 -31
43 -6 23 -22 55 -36 72 -20 25 -25 27 -31 12 -3 -10 6 -36 26 -68 36 -59 34
-74 -3 -30 l-25 30 -11 -31 c-16 -45 -14 -72 8 -110 34 -56 51 -145 51 -259 0
-58 4 -175 10 -260 5 -85 14 -311 20 -504 5 -192 15 -369 21 -393 l11 -42
1004 0 1004 0 0 1800 0 1800 -2400 0 -2400 0 0 -1800z"/>
<path d="M2124 1749 c9 -111 16 -141 29 -136 19 6 20 116 2 164 -28 73 -38 64
-31 -28z"/>
</g>
</svg>
