<?xml version="1.0" standalone="no"?>
<!DOCTYPE svg PUBLIC "-//W3C//DTD SVG 20010904//EN"
 "http://www.w3.org/TR/2001/REC-SVG-20010904/DTD/svg10.dtd">
<svg version="1.0" xmlns="http://www.w3.org/2000/svg"
 width="480.000000pt" height="360.000000pt" viewBox="0 0 480.000000 360.000000"
 preserveAspectRatio="xMidYMid meet">
<metadata>
Created by potrace 1.16, written by Peter Selinger 2001-2019
</metadata>
<rect width="1" height="360" fill="#000000"/>
<rect x="479" width="1" height="360" fill="#000000"/>
<rect width="480" height="1" fill="#000000"/>
<rect y="359" width="480" height="1" fill="#000000"/>
<g transform="translate(0.000000,360.000000) scale(0.100000,-0.100000)"
fill="#000000" stroke="none">
<path d="M2285 1751 c-110 -52 -206 -142 -234 -217 -45 -119 -14 -232 88 -322
87 -76 123 -97 212 -126 l82 -27 87 37 c76 31 97 46 163 112 63 64 79 87 96
139 27 79 26 121 0 200 -21 60 -27 68 -107 129 -92 71 -158 100 -250 109 -51
4 -65 1 -137 -34z"/>
</g>
</svg>
