<?xml version="1.0" standalone="no"?>
<!DOCTYPE svg PUBLIC "-//W3C//DTD SVG 20010904//EN"
 "http://www.w3.org/TR/2001/REC-SVG-20010904/DTD/svg10.dtd">
<svg version="1.0" xmlns="http://www.w3.org/2000/svg"
 width="480.000000pt" height="360.000000pt" viewBox="0 0 480.000000 360.000000"
 preserveAspectRatio="xMidYMid meet">
<metadata>
Created by potrace 1.16, written by Peter Selinger 2001-2019
</metadata>
<rect width="1" height="360" fill="#000000"/>
<rect x="479" width="1" height="360" fill="#000000"/>
<rect width="480" height="1" fill="#000000"/>
<rect y="359" width="480" height="1" fill="#000000"/>
<g transform="translate(0.000000,360.000000) scale(0.100000,-0.100000)"
fill="#000000" stroke="none">
<path d="M0 1800 l0 -1800 870 0 c479 0 870 1 870 3 0 58 126 488 177 602 19
44 48 117 63 162 27 79 28 84 14 136 -8 30 -21 70 -29 88 l-14 34 -1 -36 c0
-20 7 -55 15 -78 15 -43 11 -53 -10 -25 -10 14 -12 12 -12 -16 0 -17 -6 -36
-13 -40 -8 -5 -15 -33 -18 -69 -6 -89 -22 -85 -22 6 0 76 -20 186 -40 224 -10
18 -13 18 -40 4 -37 -19 -60 -10 -60 25 0 15 -3 48 -6 74 -6 38 -4 46 10 46
10 0 16 9 16 25 0 25 -1 25 -30 10 -51 -26 -76 -19 -193 60 -100 66 -269 155
-294 155 -15 0 -40 32 -47 62 -3 15 -15 30 -26 33 -11 3 -20 14 -20 24 0 15
-12 19 -82 24 -133 11 -278 66 -333 127 l-20 22 24 19 c31 25 43 24 71 -6 29
-31 37 -31 36 -2 -1 24 -7 23 123 26 l84 1 -52 54 c-28 30 -51 61 -51 68 0 7
-14 40 -30 73 -33 65 -37 100 -16 128 12 15 12 25 0 64 -20 67 -18 120 5 132
14 8 20 27 25 80 4 43 14 79 25 93 22 28 41 82 41 115 0 14 16 41 38 65 35 37
41 40 68 31 23 -7 32 -20 45 -58 8 -27 23 -53 33 -59 37 -22 112 -102 124
-131 13 -36 31 -398 23 -470 -5 -45 -9 -50 -32 -53 -16 -2 -32 -13 -40 -29 -7
-14 -37 -41 -66 -59 -29 -19 -53 -38 -53 -43 0 -5 24 -22 52 -39 49 -27 54
-28 76 -14 19 13 30 13 56 4 18 -7 42 -12 54 -12 12 0 49 -25 84 -56 65 -59
170 -134 186 -134 10 0 74 171 67 178 -3 3 -18 -24 -33 -59 -16 -35 -33 -75
-39 -89 -18 -40 -15 -1 7 83 10 43 46 130 79 194 43 83 57 121 51 133 -5 9 -5
33 0 56 5 21 10 55 10 75 0 39 12 49 56 49 16 0 25 7 29 23 2 12 18 80 35 150
17 71 37 183 46 250 23 187 60 303 128 403 14 21 26 49 26 62 0 23 -2 24 -47
16 -71 -13 -138 -11 -157 5 -35 29 -10 160 59 307 46 96 50 99 122 79 151 -44
212 -74 325 -157 55 -41 70 -47 86 -39 14 7 35 7 71 -3 48 -12 56 -12 110 10
85 35 166 53 259 61 l82 6 0 -27 c0 -37 -78 -346 -91 -363 -6 -7 -19 -13 -29
-13 -17 0 -17 -3 3 -42 31 -61 31 -205 1 -263 -12 -22 -33 -62 -48 -89 -32
-61 -41 -69 -32 -31 l7 30 -28 -28 c-27 -27 -28 -31 -33 -158 -4 -101 -2 -133
8 -136 8 -3 12 -19 10 -42 -3 -36 -3 -36 38 -37 60 -2 67 -9 60 -61 -5 -40 -2
-50 35 -105 70 -107 119 -203 119 -237 0 -18 -7 -45 -15 -61 -13 -24 -14 -41
-5 -92 5 -35 10 -79 10 -98 0 -19 4 -41 9 -49 13 -21 99 -32 269 -36 140 -3
155 -5 176 -24 12 -12 31 -21 42 -21 11 0 25 -5 30 -10 7 -7 25 -4 55 9 61 27
281 33 306 9 25 -25 9 -48 -34 -49 -50 -1 -85 -12 -81 -24 2 -5 12 -11 23 -11
11 -1 28 -5 38 -9 13 -5 28 0 49 15 30 22 32 22 45 4 13 -18 14 -18 47 0 33
18 33 18 61 -9 25 -22 27 -28 14 -40 -14 -14 -120 -44 -307 -85 -99 -22 -105
-23 -154 -7 -47 15 -52 15 -63 0 -8 -11 -20 -14 -36 -10 -16 4 -30 0 -46 -15
-21 -20 -27 -20 -70 -10 -149 37 -231 52 -347 61 -140 12 -168 22 -205 76 -27
40 -70 142 -71 168 0 39 -19 13 -25 -35 -3 -29 -9 -61 -11 -70 -4 -14 1 -18
20 -18 19 0 26 -5 26 -20 0 -32 -26 -87 -46 -98 -17 -10 -17 -12 10 -33 l29
-23 -6 -97 c-6 -92 -4 -101 28 -193 19 -53 47 -120 61 -149 44 -85 204 -551
204 -593 0 -12 117 -14 860 -14 l860 0 0 1800 0 1800 -2400 0 -2400 0 0 -1800z
m890 524 c0 -40 -4 -56 -15 -61 -26 -9 -28 3 -14 66 16 72 29 70 29 -5z m2980
-330 c6 -14 10 -41 10 -61 0 -27 8 -42 36 -68 19 -19 39 -37 44 -42 5 -4 25
-27 45 -49 l35 -41 -16 -44 c-9 -28 -13 -59 -9 -85 6 -46 -9 -85 -68 -176 -32
-49 -42 -58 -67 -58 -19 0 -34 7 -42 20 -15 23 -31 26 -47 6 -9 -11 -19 -12
-44 -4 -70 22 -82 32 -83 68 0 23 -20 71 -58 139 -65 117 -77 160 -51 181 14
12 18 12 26 -1 5 -8 9 -21 9 -30 0 -9 12 -29 26 -44 37 -40 45 -21 42 109 -3
90 0 110 12 114 8 3 27 18 42 34 31 34 54 36 62 6 5 -22 7 -21 36 15 37 44 47
46 60 11z"/>
<path d="M1786 1173 c8 -32 12 -39 19 -31 9 8 -6 58 -16 58 -5 0 -6 -12 -3
-27z"/>
</g>
</svg>
