<?xml version="1.0" standalone="no"?>
<!DOCTYPE svg PUBLIC "-//W3C//DTD SVG 20010904//EN"
 "http://www.w3.org/TR/2001/REC-SVG-20010904/DTD/svg10.dtd">
<svg version="1.0" xmlns="http://www.w3.org/2000/svg"
 width="480.000000pt" height="360.000000pt" viewBox="0 0 480.000000 360.000000"
 preserveAspectRatio="xMidYMid meet">
<metadata>
Created by potrace 1.16, written by Peter Selinger 2001-2019
</metadata>
<rect width="1" height="360" fill="#000000"/>
<rect x="479" width="1" height="360" fill="#000000"/>
<rect width="480" height="1" fill="#000000"/>
<rect y="359" width="480" height="1" fill="#000000"/>
<g transform="translate(0.000000,360.000000) scale(0.100000,-0.100000)"
fill="#000000" stroke="none">
<path d="M0 1800 l0 -1800 343 0 342 1 49 117 c79 189 152 332 206 402 139
179 180 236 180 249 0 8 -11 37 -24 65 -13 28 -27 69 -31 91 -4 22 -15 65 -25
95 -60 183 -63 205 -52 355 7 89 29 231 61 390 27 138 57 318 65 400 38 364
65 432 241 610 33 33 74 70 91 82 38 27 158 48 225 39 46 -6 49 -5 64 23 24
47 18 74 -26 130 -29 36 -39 56 -34 71 3 11 10 20 14 20 4 0 36 -18 71 -41 50
-32 69 -39 89 -33 14 4 49 6 76 6 45 -1 52 2 66 27 9 16 29 35 44 42 20 11 35
36 61 99 38 95 84 166 143 224 48 47 64 42 27 -7 -29 -38 -34 -56 -11 -37 32
26 24 1 -13 -44 -36 -43 -102 -163 -102 -184 0 -5 21 1 47 14 77 39 104 25 36
-18 l-38 -23 33 -3 c17 -2 32 -6 32 -10 -1 -4 -23 -18 -49 -31 -39 -19 -51
-30 -60 -60 -6 -21 -20 -46 -30 -56 -20 -17 -20 -18 4 -53 14 -20 25 -45 25
-55 0 -33 19 -55 75 -89 56 -33 65 -47 42 -66 -9 -8 -29 -6 -69 5 -65 18 -108
8 -135 -33 -14 -22 -12 -26 36 -89 77 -102 94 -157 89 -289 -2 -75 -7 -111
-16 -114 -6 -2 -13 -16 -13 -30 -2 -24 -2 -24 -6 -4 -6 31 -18 28 -43 -13 -20
-32 -31 -40 -54 -36 -5 1 -17 -6 -28 -16 -22 -19 -58 -29 -39 -10 19 19 12 28
-11 16 -16 -9 -23 -9 -26 0 -6 18 -30 13 -42 -10 -9 -15 -9 -28 0 -49 15 -36
7 -50 -27 -50 -15 0 -36 -8 -47 -19 -12 -10 -34 -23 -51 -28 -23 -8 -32 -19
-44 -55 l-14 -46 49 -74 c71 -107 126 -218 120 -241 -3 -11 4 -37 15 -58 10
-21 19 -51 18 -66 l-1 -28 -10 28 c-23 62 -42 14 -20 -52 11 -32 17 -40 24
-30 6 9 7 1 3 -23 -3 -21 -3 -38 1 -38 3 0 70 33 148 73 77 41 156 79 174 85
l33 11 -2 83 c-2 117 21 185 70 205 42 18 126 13 147 -9 24 -24 37 -84 41
-190 4 -79 7 -98 20 -98 8 0 86 -36 174 -80 87 -44 161 -80 164 -80 3 0 3 17
0 38 -4 24 -3 32 3 23 13 -19 41 66 32 99 -7 25 -7 25 -23 -10 -14 -29 -16
-31 -17 -12 0 12 7 39 16 60 9 20 18 54 20 76 4 43 50 133 124 243 45 66 48
74 39 106 -10 39 -22 51 -59 62 -14 4 -34 15 -45 25 -11 10 -33 20 -50 22 -26
3 -30 7 -27 28 7 55 4 80 -12 105 -10 15 -20 24 -23 21 -3 -3 0 -12 7 -21 9
-11 9 -15 1 -15 -7 0 -9 -4 -6 -10 8 -13 -25 -13 -45 0 -9 6 -17 5 -21 -2 -6
-9 -12 -8 -23 1 -8 7 -19 10 -25 7 -10 -6 -71 58 -71 74 0 19 -18 10 -24 -12
-11 -42 -24 0 -31 101 -11 171 19 257 135 383 l61 68 -32 60 c-26 49 -34 58
-46 48 -8 -6 -17 -7 -22 -2 -4 5 -29 32 -55 61 l-48 52 22 39 22 39 -41 88
c-23 48 -41 91 -41 94 1 3 23 -19 51 -49 l50 -55 -41 83 c-23 46 -40 88 -38
94 2 5 28 -19 58 -54 30 -35 70 -78 90 -96 19 -18 49 -55 65 -82 77 -126 150
-221 165 -216 127 43 165 49 253 38 73 -9 95 -16 132 -43 25 -18 45 -36 45
-39 0 -4 36 -45 81 -90 134 -136 163 -222 194 -580 9 -102 25 -234 35 -295 35
-200 50 -328 56 -480 l6 -150 -46 -115 c-49 -122 -76 -211 -76 -254 0 -32 42
-129 75 -172 16 -21 36 -34 62 -39 21 -4 70 -17 108 -30 39 -12 104 -31 145
-41 41 -10 109 -33 150 -52 63 -29 92 -51 182 -142 98 -98 112 -118 161 -217
30 -60 56 -119 59 -131 6 -21 12 -22 102 -22 l96 0 0 1800 0 1800 -2400 0
-2400 0 0 -1800z"/>
<path d="M2815 2160 c3 -5 8 -10 11 -10 2 0 4 5 4 10 0 6 -5 10 -11 10 -5 0
-7 -4 -4 -10z"/>
<path d="M2390 1635 c0 -14 5 -25 10 -25 6 0 10 11 10 25 0 14 -4 25 -10 25
-5 0 -10 -11 -10 -25z"/>
<path d="M2392 1365 c0 -16 2 -22 5 -12 2 9 2 23 0 30 -3 6 -5 -1 -5 -18z"/>
<path d="M2070 1146 c-85 -57 -168 -108 -185 -112 -51 -12 -66 -32 -46 -62 6
-11 45 3 177 61 93 42 181 79 197 82 25 7 27 11 26 54 -1 92 2 92 -169 -23z"/>
<path d="M2560 1188 l0 -63 52 -19 c28 -10 109 -44 179 -76 157 -72 164 -74
164 -36 0 25 -5 30 -41 41 -22 6 -104 55 -181 108 -77 53 -148 99 -157 103
-14 5 -16 -3 -16 -58z"/>
<path d="M2365 1033 c-16 -48 -35 -95 -42 -104 -8 -9 -55 -38 -106 -64 -118
-61 -217 -118 -217 -125 0 -3 14 -14 31 -24 44 -26 28 -31 -20 -6 l-42 21 -64
-36 c-36 -20 -68 -41 -71 -47 -8 -13 85 -108 161 -164 32 -24 56 -44 53 -44
-15 0 -208 106 -276 151 -40 27 -77 49 -83 49 -12 0 -2 -65 17 -102 18 -34 17
-38 -2 -38 -12 0 -14 -7 -10 -28 3 -15 8 -47 11 -72 8 -55 64 -358 71 -382 5
-17 45 -18 665 -18 l659 0 0 200 0 200 -28 0 c-45 0 -45 11 -2 47 37 32 40 38
38 84 -1 27 -4 49 -6 49 -2 0 -23 -14 -48 -30 -24 -17 -44 -26 -44 -20 0 17
27 65 45 80 9 7 25 26 36 41 l20 28 -58 -20 c-361 -122 -383 -127 -226 -50 79
39 122 71 73 56 -16 -5 -20 -4 -15 4 4 7 1 18 -5 26 -16 19 -137 85 -156 85
-8 0 -13 4 -10 8 3 5 -36 28 -86 53 -148 72 -161 84 -193 181 -15 45 -30 87
-35 91 -4 5 -20 -31 -35 -80z"/>
<path d="M4082 25 c6 -14 17 -25 25 -25 11 0 10 5 -3 25 -21 32 -37 32 -22 0z"/>
</g>
</svg>
