<?xml version="1.0" standalone="no"?>
<!DOCTYPE svg PUBLIC "-//W3C//DTD SVG 20010904//EN"
 "http://www.w3.org/TR/2001/REC-SVG-20010904/DTD/svg10.dtd">
<svg version="1.0" xmlns="http://www.w3.org/2000/svg"
 width="480.000000pt" height="360.000000pt" viewBox="0 0 480.000000 360.000000"
 preserveAspectRatio="xMidYMid meet">
<metadata>
Created by potrace 1.16, written by Peter Selinger 2001-2019
</metadata>
<rect width="1" height="360" fill="#000000"/>
<rect x="479" width="1" height="360" fill="#000000"/>
<rect width="480" height="1" fill="#000000"/>
<rect y="359" width="480" height="1" fill="#000000"/>
<g transform="translate(0.000000,360.000000) scale(0.100000,-0.100000)"
fill="#000000" stroke="none">
<path d="M1836 3503 c-71 -12 -103 -62 -90 -140 4 -27 7 -62 5 -80 -1 -18 4
-47 12 -65 8 -18 17 -52 20 -75 3 -23 14 -54 26 -68 16 -21 18 -30 9 -44 -9
-14 -5 -26 16 -57 14 -21 26 -49 26 -62 0 -33 57 -100 91 -107 16 -4 29 -7 29
-8 0 -1 -7 -24 -15 -51 -21 -68 -18 -137 10 -231 19 -65 23 -74 24 -45 l1 35
25 -53 c35 -75 34 -194 -1 -193 -5 0 -8 -8 -7 -17 4 -29 -38 -266 -53 -296
-17 -36 -17 -36 1 -36 8 0 15 -2 15 -5 0 -21 -55 -254 -63 -270 -7 -12 -12
-86 -13 -190 0 -107 -5 -178 -12 -191 -8 -15 -25 -24 -54 -28 -59 -9 -118 -64
-118 -109 0 -7 23 -42 51 -77 49 -61 51 -66 45 -109 -3 -25 -9 -84 -12 -131
-6 -95 -31 -235 -46 -264 -14 -25 -73 -197 -103 -301 -14 -44 -35 -115 -49
-157 l-24 -78 845 0 845 0 -6 28 c-4 15 -11 52 -15 82 -5 30 -27 132 -49 225
-65 271 -67 287 -53 438 7 72 14 133 16 136 3 2 11 -1 18 -7 7 -6 40 -14 73
-18 32 -4 67 -13 76 -21 22 -19 44 -97 57 -198 11 -79 51 -584 51 -637 l0 -28
375 0 c358 0 375 1 375 19 0 10 -35 92 -79 182 -86 178 -123 272 -170 420 -16
53 -46 123 -67 155 -80 127 -130 202 -180 271 l-53 72 6 64 c8 87 0 109 -46
141 -36 25 -47 28 -113 24 l-72 -3 -71 141 c-38 77 -78 149 -87 158 -10 10
-18 27 -18 39 0 11 -9 117 -21 235 -11 118 -19 221 -17 229 2 9 21 -30 42 -86
22 -56 41 -99 43 -97 3 2 -5 60 -16 128 -19 114 -35 247 -32 265 0 5 26 8 57
9 49 0 60 4 80 28 41 47 37 61 -91 304 -16 29 -26 55 -23 57 3 3 18 -1 34 -10
16 -8 36 -15 44 -15 9 0 20 -4 25 -9 6 -6 30 -14 55 -20 41 -9 47 -8 62 12 10
12 15 30 12 40 -4 11 0 17 11 17 10 0 15 7 13 19 -2 10 5 28 15 38 9 11 19 37
20 59 2 21 9 52 16 69 9 22 9 36 1 54 -9 21 -9 27 5 37 13 9 16 25 14 61 -1
26 1 56 6 66 4 10 5 33 2 51 -3 19 0 39 6 45 8 8 8 14 -1 23 -7 7 -12 20 -12
30 0 10 -6 21 -14 24 -8 3 -16 19 -20 35 -7 36 -22 42 -162 64 -129 21 -242
16 -353 -15 -94 -26 -148 -54 -156 -81 -7 -22 -8 -22 -85 6 -33 12 -69 16
-137 13 -80 -3 -95 -6 -117 -27 -29 -27 -30 -27 -43 14 -7 24 -25 38 -84 68
-41 20 -102 44 -136 53 -35 8 -73 18 -85 21 -30 7 -324 12 -362 6z m320 -1610
c-3 -7 -13 -13 -21 -13 -13 0 -15 7 -11 28 2 15 8 45 12 67 l7 40 9 -55 c5
-30 6 -60 4 -67z m-97 -136 c1 -17 -34 -56 -51 -57 -13 0 -9 14 14 66 18 42
22 46 29 29 4 -11 8 -28 8 -38z m1141 33 c0 -5 -4 -10 -10 -10 -5 0 -10 5 -10
10 0 6 5 10 10 10 6 0 10 -4 10 -10z"/>
</g>
</svg>
