<?xml version="1.0" standalone="no"?>
<!DOCTYPE svg PUBLIC "-//W3C//DTD SVG 20010904//EN"
 "http://www.w3.org/TR/2001/REC-SVG-20010904/DTD/svg10.dtd">
<svg version="1.0" xmlns="http://www.w3.org/2000/svg"
 width="480.000000pt" height="360.000000pt" viewBox="0 0 480.000000 360.000000"
 preserveAspectRatio="xMidYMid meet">
<metadata>
Created by potrace 1.16, written by Peter Selinger 2001-2019
</metadata>
<rect width="1" height="360" fill="#000000"/>
<rect x="479" width="1" height="360" fill="#000000"/>
<rect width="480" height="1" fill="#000000"/>
<rect y="359" width="480" height="1" fill="#000000"/>
<g transform="translate(0.000000,360.000000) scale(0.100000,-0.100000)"
fill="#000000" stroke="none">
<path d="M0 1800 l0 -1800 2400 0 2400 0 0 1800 0 1800 -2400 0 -2400 0 0
-1800z m2290 229 c33 -99 51 -119 105 -119 61 0 73 18 131 180 8 24 20 -5 29
-70 11 -80 29 -118 61 -126 56 -14 84 10 159 137 l20 34 5 -98 c4 -83 8 -101
24 -113 40 -29 69 -13 134 78 68 93 74 89 42 -31 -24 -89 -24 -101 -5 -127 14
-18 18 -16 85 55 39 40 74 71 77 68 3 -3 -13 -43 -34 -89 -71 -148 -68 -159
15 -68 30 34 57 59 59 56 6 -5 -108 -175 -152 -228 -32 -38 -55 -96 -55 -139
0 -21 12 -28 92 -59 162 -62 298 -156 356 -247 17 -27 36 -75 42 -110 11 -53
10 -68 -5 -115 -47 -140 -195 -255 -441 -341 -193 -67 -394 -97 -653 -97 -539
0 -1004 193 -1072 445 -15 54 -5 135 23 191 36 73 145 166 259 224 54 27 123
57 154 66 36 12 55 23 55 33 0 39 -25 101 -64 161 -24 36 -49 76 -56 90 -12
23 -12 24 3 12 9 -8 21 -11 27 -7 19 12 10 54 -30 131 -22 43 -39 79 -37 80 1
2 24 -24 51 -56 54 -65 69 -75 96 -60 35 19 35 66 0 169 -10 31 -17 57 -15 59
1 2 20 -21 41 -50 80 -112 107 -128 155 -89 22 18 24 26 23 115 0 53 1 96 3
96 1 0 16 -26 32 -59 46 -89 76 -121 117 -121 54 0 79 34 94 130 7 44 15 80
19 80 4 0 17 -32 31 -71z"/>
<path d="M1743 1025 c0 -22 2 -30 4 -17 2 12 2 30 0 40 -3 9 -5 -1 -4 -23z"/>
<path d="M3005 930 c-3 -5 -1 -10 4 -10 6 0 11 5 11 10 0 6 -2 10 -4 10 -3 0
-8 -4 -11 -10z"/>
<path d="M2946 863 c-6 -14 -5 -15 5 -6 7 7 10 15 7 18 -3 3 -9 -2 -12 -12z"/>
<path d="M1836 855 c10 -8 23 -15 28 -15 6 0 1 7 -10 15 -10 8 -23 15 -28 15
-6 0 -1 -7 10 -15z"/>
<path d="M2885 825 c-22 -14 -35 -25 -30 -25 12 0 75 38 75 45 0 7 -1 7 -45
-20z"/>
<path d="M1885 820 c3 -5 11 -10 16 -10 6 0 7 5 4 10 -3 6 -11 10 -16 10 -6 0
-7 -4 -4 -10z"/>
<path d="M2790 784 c-99 -43 -200 -58 -395 -59 -193 0 -258 9 -384 51 -24 8
-46 13 -48 10 -5 -5 106 -41 172 -55 213 -45 541 -21 674 49 43 23 30 26 -19
4z"/>
</g>
</svg>
