<?xml version="1.0" standalone="no"?>
<!DOCTYPE svg PUBLIC "-//W3C//DTD SVG 20010904//EN"
 "http://www.w3.org/TR/2001/REC-SVG-20010904/DTD/svg10.dtd">
<svg version="1.0" xmlns="http://www.w3.org/2000/svg"
 width="480.000000pt" height="360.000000pt" viewBox="0 0 480.000000 360.000000"
 preserveAspectRatio="xMidYMid meet">
<metadata>
Created by potrace 1.16, written by Peter Selinger 2001-2019
</metadata>
<rect width="1" height="360" fill="#000000"/>
<rect x="479" width="1" height="360" fill="#000000"/>
<rect width="480" height="1" fill="#000000"/>
<rect y="359" width="480" height="1" fill="#000000"/>
<g transform="translate(0.000000,360.000000) scale(0.100000,-0.100000)"
fill="#000000" stroke="none">
<path d="M660 3527 c-81 -40 -100 -72 -100 -168 l0 -66 -42 -29 c-122 -80
-214 -225 -240 -373 -12 -70 0 -147 27 -174 15 -16 95 -149 95 -159 0 -4 5 -8
10 -8 6 0 10 9 10 20 0 28 11 25 50 -15 46 -48 56 -44 24 10 -14 25 -21 45
-16 45 14 0 64 -88 57 -99 -3 -5 -1 -12 4 -15 11 -7 2 -46 -10 -46 -19 0 -8
-49 15 -67 13 -11 34 -44 47 -74 28 -68 27 -66 43 -43 14 18 16 16 40 -36 22
-48 33 -58 27 -26 -1 5 9 2 23 -8 32 -20 47 -20 91 1 31 15 37 15 46 3 7 -11
1 -21 -23 -40 -18 -14 -55 -46 -83 -71 -27 -25 -65 -51 -84 -57 -54 -19 -170
-120 -171 -149 0 -7 -13 -27 -29 -45 -48 -55 -62 -93 -56 -146 4 -38 2 -51
-15 -71 -11 -13 -22 -22 -24 -20 -26 34 -90 172 -126 274 -26 72 -50 138 -55
148 -5 13 -2 17 12 17 43 0 397 31 402 35 2 3 2 7 0 9 -10 10 -182 28 -334 35
-145 7 -165 10 -212 34 -29 15 -55 27 -58 27 -3 0 -5 -81 -5 -180 l0 -180 36
-40 c30 -33 37 -51 46 -107 5 -37 38 -156 73 -263 35 -107 62 -197 60 -199 -3
-2 -21 9 -41 25 -53 43 -158 114 -166 114 -5 0 -8 -81 -8 -180 l0 -181 118
-127 c66 -70 124 -137 131 -149 15 -29 -1 -63 -39 -85 -15 -9 -36 -28 -46 -43
-17 -25 -17 -28 1 -57 19 -33 20 -19 -26 -351 -10 -76 -19 -147 -19 -158 0
-19 16 -19 685 -19 541 0 685 3 685 13 0 17 -64 122 -106 172 -19 23 -34 45
-34 48 0 3 23 -3 50 -14 71 -27 109 -24 163 12 55 36 87 74 87 101 0 24 -106
129 -166 164 -23 14 -69 29 -103 35 -60 11 -61 12 -61 44 0 70 92 361 150 476
11 21 20 49 20 63 0 30 -52 76 -85 76 -28 0 -40 -19 -50 -75 -23 -130 -123
-403 -151 -412 -16 -5 -54 93 -54 141 0 64 51 364 66 388 4 5 22 8 43 7 25 -2
35 1 33 10 -2 9 6 11 28 6 33 -7 35 -4 19 27 -11 21 -10 21 55 14 36 -3 73 -9
83 -13 12 -5 15 -3 10 10 -4 9 -10 24 -13 32 -5 12 2 15 36 15 37 0 41 2 35
20 -5 15 -2 20 12 21 10 1 23 2 28 4 6 1 23 3 39 3 28 2 29 2 11 22 -18 19
-17 20 4 20 18 0 21 4 16 20 -5 16 -2 20 19 20 20 0 24 4 19 17 -4 10 -2 14 4
10 6 -4 14 -43 18 -87 4 -48 12 -84 21 -91 8 -6 14 -21 14 -33 1 -19 2 -19 11
-3 11 19 29 23 29 5 0 -17 34 -87 42 -88 4 0 11 18 14 40 4 22 10 40 13 40 4
0 17 -19 28 -43 21 -41 21 -41 30 -18 14 35 24 10 13 -30 -14 -46 -12 -105 3
-157 10 -33 15 -40 25 -30 9 9 12 1 12 -39 0 -29 5 -55 10 -58 6 -3 10 -26 10
-51 0 -50 11 -57 26 -16 10 25 11 23 18 -33 5 -33 14 -70 22 -82 8 -12 14 -29
14 -37 0 -9 6 -13 14 -10 10 4 12 -1 9 -19 -3 -14 0 -28 6 -31 6 -4 11 -18 11
-32 0 -34 9 -31 53 18 l38 43 -6 -32 c-7 -33 12 -113 27 -113 4 0 8 -15 8 -32
l1 -33 21 43 c36 74 43 57 38 -88 -1 -41 -8 -92 -15 -112 -7 -21 -9 -38 -4
-38 5 0 9 -14 9 -32 l0 -31 23 21 c29 27 37 28 37 3 0 -11 5 -23 10 -26 6 -3
10 -21 10 -38 1 -27 3 -30 13 -17 20 25 37 22 38 -8 l0 -27 14 30 c8 17 31 75
51 130 20 55 38 102 40 104 2 2 10 -2 19 -9 10 -8 15 -30 15 -64 l1 -51 14 30
13 30 1 -36 c2 -68 23 -150 37 -145 11 4 14 -6 14 -37 l0 -42 35 40 34 40 7
-32 c7 -36 13 -40 32 -21 9 9 12 4 12 -25 l0 -37 620 0 c378 0 620 4 620 9 0
29 -189 498 -310 771 -94 212 -94 214 -76 207 9 -4 16 2 19 15 6 19 7 19 31
-8 23 -26 25 -27 26 -9 1 19 2 18 23 -5 18 -21 66 -50 82 -50 2 0 5 26 7 57
l3 58 28 -43 c27 -42 29 -43 48 -26 18 16 19 16 19 -2 1 -18 1 -18 16 1 14 19
15 19 39 -10 21 -25 26 -28 35 -15 6 9 13 11 18 5 4 -5 16 -17 26 -25 18 -14
19 -13 14 38 -3 28 -2 52 2 52 3 0 22 -16 41 -36 18 -20 42 -40 51 -45 15 -8
17 -6 12 20 -6 28 -5 29 27 27 19 -2 51 -13 72 -26 21 -12 40 -20 43 -17 3 3
-4 24 -16 47 -12 23 -19 44 -16 47 2 3 24 -8 48 -25 52 -35 95 -51 83 -31 -27
46 -75 110 -117 156 -52 58 -61 75 -25 49 49 -35 139 -76 208 -95 41 -11 76
-18 78 -15 5 5 17 -4 -121 91 -165 115 -275 209 -498 428 -107 105 -233 223
-280 263 -308 262 -390 328 -435 348 -87 40 -178 44 -433 23 -249 -22 -337
-20 -497 12 -107 22 -280 89 -361 141 -71 45 -177 97 -186 92 -4 -3 -8 -23 -8
-45 0 -55 -41 -133 -112 -213 l-28 -30 0 72 c0 71 1 72 21 62 32 -18 33 -6 5
43 -14 24 -29 66 -33 93 -6 45 -5 48 10 35 22 -18 21 -11 -8 62 -26 66 -70
193 -110 317 -39 119 -144 279 -256 390 -50 50 -80 71 -130 89 -81 31 -86 35
-93 74 -13 68 -40 88 -155 113 -35 7 -71 16 -80 18 -9 3 -45 -9 -81 -27z m854
-1276 c20 -38 36 -76 36 -84 0 -24 -157 -167 -183 -167 -4 0 -7 32 -7 72 0 68
1 70 18 55 23 -21 32 -21 32 -2 0 20 17 19 28 -1 10 -17 22 69 22 152 0 24 4
44 9 44 5 0 25 -31 45 -69z m-77 -83 c-3 -8 -6 -5 -6 6 -1 11 2 17 5 13 3 -3
4 -12 1 -19z m-177 -102 c9 -21 9 -21 16 2 5 18 9 20 15 10 13 -19 10 -79 -5
-113 -15 -34 -18 -31 -40 50 -7 28 -17 58 -21 68 -6 13 -4 16 10 11 9 -4 21
-16 25 -28z m2330 -1061 c0 -5 -5 -3 -10 5 -5 8 -10 20 -10 25 0 6 5 3 10 -5
5 -8 10 -19 10 -25z"/>
<path d="M0 1583 c0 -72 3 -79 34 -67 22 9 19 41 -9 94 l-24 45 -1 -72z"/>
</g>
</svg>
