<?xml version="1.0" standalone="no"?>
<!DOCTYPE svg PUBLIC "-//W3C//DTD SVG 20010904//EN"
 "http://www.w3.org/TR/2001/REC-SVG-20010904/DTD/svg10.dtd">
<svg version="1.0" xmlns="http://www.w3.org/2000/svg"
 width="480.000000pt" height="360.000000pt" viewBox="0 0 480.000000 360.000000"
 preserveAspectRatio="xMidYMid meet">
<metadata>
Created by potrace 1.16, written by Peter Selinger 2001-2019
</metadata>
<rect width="1" height="360" fill="#000000"/>
<rect x="479" width="1" height="360" fill="#000000"/>
<rect width="480" height="1" fill="#000000"/>
<rect y="359" width="480" height="1" fill="#000000"/>
<g transform="translate(0.000000,360.000000) scale(0.100000,-0.100000)"
fill="#000000" stroke="none">
<path d="M2502 2508 c-72 -11 -144 -50 -227 -123 -60 -53 -76 -62 -110 -63
-32 0 -47 6 -73 31 -29 28 -34 30 -47 16 -20 -20 -12 -41 25 -63 52 -30 54
-48 11 -93 -93 -99 -132 -277 -97 -445 19 -85 37 -119 100 -186 100 -107 246
-185 426 -228 79 -19 144 -17 189 5 53 27 224 197 250 247 11 23 35 51 54 62
116 68 127 197 37 418 -70 173 -196 331 -307 387 -60 31 -158 45 -231 35z"/>
</g>
</svg>
