<?xml version="1.0" standalone="no"?>
<!DOCTYPE svg PUBLIC "-//W3C//DTD SVG 20010904//EN"
 "http://www.w3.org/TR/2001/REC-SVG-20010904/DTD/svg10.dtd">
<svg version="1.0" xmlns="http://www.w3.org/2000/svg"
 width="480.000000pt" height="360.000000pt" viewBox="0 0 480.000000 360.000000"
 preserveAspectRatio="xMidYMid meet">
<metadata>
Created by potrace 1.16, written by Peter Selinger 2001-2019
</metadata>
<rect width="1" height="360" fill="#000000"/>
<rect x="479" width="1" height="360" fill="#000000"/>
<rect width="480" height="1" fill="#000000"/>
<rect y="359" width="480" height="1" fill="#000000"/>
<g transform="translate(0.000000,360.000000) scale(0.100000,-0.100000)"
fill="#000000" stroke="none">
<path d="M0 2630 c0 -533 2 -970 6 -970 15 0 162 127 262 227 63 62 121 113
130 113 10 0 31 -8 47 -18 17 -10 82 -40 145 -66 121 -51 283 -130 387 -189
86 -49 184 -87 256 -98 73 -12 196 1 298 31 l71 21 84 -22 c70 -18 86 -20 99
-9 9 8 54 66 101 131 89 124 133 162 244 208 97 41 103 48 96 103 -4 30 -3 48
4 49 5 1 15 2 22 3 21 2 19 24 -4 40 -33 23 -46 20 -53 -14 -11 -50 -23 -43
-31 17 l-7 58 -10 -35 c-8 -30 -10 -32 -17 -15 -5 15 -9 7 -15 -33 -7 -56 -24
-62 -26 -9 l-1 32 -11 -35 c-10 -33 -11 -33 -15 -10 -6 38 -25 44 -39 12 -11
-24 -12 -25 -13 -5 0 12 -5 44 -12 72 -9 40 -14 48 -25 40 -10 -9 -18 0 -37
42 l-25 52 -12 -26 c-19 -42 -31 -32 -27 24 3 55 6 54 -61 33 l-25 -7 25 32
c61 83 70 101 54 107 -8 4 -15 13 -15 22 0 12 -5 11 -24 -7 -15 -14 -30 -20
-38 -15 -31 18 -168 127 -168 134 0 4 9 15 20 25 11 10 20 31 20 47 0 25 3 28
34 28 39 0 76 26 117 83 24 34 27 42 17 61 -8 12 -12 57 -11 107 2 141 48 267
126 341 93 88 153 101 467 96 217 -3 239 -5 292 -26 102 -41 213 -165 233
-260 6 -30 8 -31 28 -17 12 8 30 15 41 15 10 0 43 12 72 26 135 66 197 35 224
-113 12 -69 2 -163 -24 -214 -17 -34 -13 -73 12 -133 15 -36 15 -39 -3 -52
-18 -13 -17 -16 3 -86 21 -71 62 -263 62 -289 0 -7 -6 -5 -15 7 -13 18 -14 16
-13 -26 2 -82 -45 -238 -86 -284 -14 -16 -26 -32 -26 -37 0 -5 -4 -9 -10 -9
-5 0 -10 -12 -11 -27 -1 -28 -1 -28 -12 5 -10 25 -15 30 -24 21 -13 -13 -15
-11 -29 46 -4 17 -6 41 -6 55 1 21 -1 18 -16 -13 l-17 -39 -13 80 c-7 44 -22
107 -33 139 -11 32 -23 93 -26 136 l-6 77 -54 0 c-50 0 -53 -1 -48 -22 18 -80
23 -113 19 -117 -2 -3 -17 11 -33 29 l-28 34 -12 -37 c-12 -35 -31 -51 -31
-25 0 18 -14 -1 -26 -35 -6 -18 -15 -31 -20 -29 -4 2 -12 -5 -16 -15 -6 -16
-7 -16 -14 5 -10 34 -22 27 -34 -20 -6 -24 -15 -54 -20 -68 -8 -22 -9 -21 -10
15 l-2 40 -12 -40 -13 -40 -4 55 -4 55 -17 -30 c-10 -16 -18 -23 -18 -15 -1
12 -3 12 -14 -2 -15 -21 -26 -13 -26 18 0 21 -2 22 -30 13 -35 -13 -45 -55
-10 -44 27 8 35 -15 21 -56 -15 -42 -8 -49 97 -99 117 -56 137 -73 230 -192
44 -57 91 -116 105 -132 l24 -29 91 23 c82 21 95 22 134 10 89 -27 166 -39
251 -40 118 0 199 28 392 135 82 46 206 107 275 135 69 29 146 63 172 76 77
39 85 36 203 -81 88 -87 157 -147 263 -228 9 -8 12 186 12 962 l0 971 -2400 0
-2400 0 0 -970z"/>
<path d="M2958 2645 c-37 -94 -37 -94 -22 -145 11 -38 21 -53 41 -61 14 -5 28
-7 32 -4 10 10 6 269 -4 287 -8 14 -17 -1 -47 -77z"/>
<path d="M2051 2240 c0 -19 4 -42 9 -50 8 -12 10 -10 9 10 -1 14 -5 36 -9 50
-7 23 -8 22 -9 -10z"/>
<path d="M2320 2242 c36 -15 124 -12 155 5 10 6 -22 9 -87 9 -98 0 -101 -1
-68 -14z"/>
<path d="M4263 1827 c-86 -44 -101 -55 -96 -72 3 -11 13 -27 22 -35 10 -8 32
-44 50 -78 30 -58 32 -69 26 -120 -16 -135 -75 -466 -84 -475 -14 -14 -21 4
-107 265 -77 234 -78 239 -66 285 7 27 23 69 37 95 13 26 20 50 15 53 -17 10
-121 -37 -210 -96 -73 -47 -90 -63 -90 -83 0 -14 8 -31 19 -38 10 -7 33 -42
51 -78 l33 -65 -12 -95 c-16 -133 -51 -358 -63 -404 -8 -33 -12 -37 -23 -25
-7 8 -49 124 -94 258 l-80 243 21 67 c11 36 27 74 36 84 8 9 12 20 8 24 -4 4
-70 9 -147 11 -153 5 -184 -4 -142 -36 12 -9 36 -48 54 -86 l32 -68 -44 -259
c-24 -143 -47 -265 -51 -272 -5 -8 -10 -8 -17 -2 -16 17 -155 488 -153 519 2
45 32 128 55 153 33 36 16 53 -51 53 -33 0 -74 -3 -91 -6 -27 -6 -31 -10 -31
-40 0 -21 -8 -42 -20 -54 -19 -19 -19 -22 -5 -50 9 -17 20 -30 25 -30 6 0 10
-6 10 -13 0 -16 -42 -57 -58 -57 -15 0 -16 12 13 -105 14 -55 28 -133 32 -172
l6 -73 46 -27 c25 -14 125 -83 221 -153 244 -177 216 -162 302 -154 128 11
288 -39 288 -92 0 -25 -34 -34 -65 -18 -36 19 -53 5 -37 -30 8 -17 41 -41 104
-72 116 -59 172 -74 271 -74 68 0 78 -2 75 -17 -5 -27 -86 -67 -174 -87 -72
-17 -91 -17 -165 -6 -89 13 -111 21 -237 98 -46 28 -116 63 -155 78 -71 27
-351 181 -499 276 -81 52 -142 112 -159 156 -10 26 -11 26 -24 8 -12 -16 -17
-17 -30 -6 -19 16 -19 13 0 -115 11 -73 13 -106 5 -120 -9 -17 1 -45 53 -160
66 -144 90 -209 127 -352 l22 -83 879 0 879 0 -2 563 -3 562 -25 62 -25 63 28
82 c15 46 27 101 27 123 0 36 -4 42 -38 62 -20 12 -65 44 -99 72 -35 28 -63
47 -63 43 0 -5 13 -33 29 -63 l28 -54 -18 -110 c-10 -60 -26 -159 -34 -220
-20 -133 -33 -185 -46 -185 -13 0 -28 37 -112 283 l-75 218 25 75 c14 42 34
80 44 87 10 7 19 23 19 36 0 13 7 33 17 43 15 17 13 21 -34 76 -28 31 -56 58
-64 59 -8 0 -60 -22 -116 -50z"/>
<path d="M352 1812 c-50 -57 -50 -57 -31 -80 10 -13 15 -30 12 -38 -3 -8 5
-24 19 -37 15 -14 34 -52 46 -93 l21 -70 -78 -225 c-93 -265 -91 -259 -101
-259 -16 0 -19 15 -61 257 l-41 240 31 62 c33 65 30 77 -9 36 -13 -14 -55 -47
-92 -72 -66 -45 -68 -48 -68 -90 0 -24 4 -51 10 -61 5 -9 18 -43 29 -75 l20
-57 -30 -91 -29 -90 0 -534 0 -535 879 0 879 0 7 32 c20 92 80 268 130 379 54
122 56 126 61 239 9 166 8 170 -16 225 l-21 50 -23 -56 c-46 -113 -78 -143
-332 -311 -262 -172 -299 -194 -427 -243 -62 -24 -152 -60 -202 -81 -86 -35
-92 -36 -175 -31 -57 4 -107 15 -150 32 -92 37 -107 45 -148 81 -33 29 -35 33
-18 40 10 4 46 2 80 -4 71 -13 158 0 288 44 64 21 81 31 94 55 18 36 4 46 -40
29 -57 -21 -79 38 -25 65 48 25 213 25 263 1 31 -16 42 -17 58 -7 11 7 110 85
221 174 111 89 225 177 254 195 48 31 52 37 58 80 8 66 35 187 55 250 l18 53
-29 14 c-48 25 -53 48 -18 84 l30 32 -21 26 c-11 14 -20 40 -20 59 l0 32 -65
7 c-104 12 -141 -8 -95 -50 10 -9 29 -48 40 -86 l22 -69 -47 -168 c-68 -240
-95 -322 -105 -322 -11 0 -21 37 -55 200 -14 69 -35 165 -45 213 l-20 88 26
62 c14 34 37 74 50 88 22 23 23 27 9 39 -12 10 -47 12 -144 8 -142 -6 -160
-11 -138 -36 8 -10 24 -46 36 -82 l21 -65 -79 -238 c-74 -225 -93 -269 -106
-255 -4 3 -25 117 -47 252 l-41 247 28 62 c16 34 39 72 52 84 42 40 31 63 -55
121 -72 49 -180 101 -209 102 -17 0 -16 -15 0 -43 8 -12 22 -50 32 -85 21 -73
30 -34 -84 -361 -62 -180 -75 -206 -90 -182 -8 13 -81 449 -81 484 0 24 66
154 84 164 8 4 16 18 18 30 3 19 -11 29 -100 73 -57 27 -107 50 -112 50 -4 0
-31 -26 -58 -58z"/>
</g>
</svg>
