<?xml version="1.0" standalone="no"?>
<!DOCTYPE svg PUBLIC "-//W3C//DTD SVG 20010904//EN"
 "http://www.w3.org/TR/2001/REC-SVG-20010904/DTD/svg10.dtd">
<svg version="1.0" xmlns="http://www.w3.org/2000/svg"
 width="480.000000pt" height="360.000000pt" viewBox="0 0 480.000000 360.000000"
 preserveAspectRatio="xMidYMid meet">
<metadata>
Created by potrace 1.16, written by Peter Selinger 2001-2019
</metadata>
<rect width="1" height="360" fill="#000000"/>
<rect x="479" width="1" height="360" fill="#000000"/>
<rect width="480" height="1" fill="#000000"/>
<rect y="359" width="480" height="1" fill="#000000"/>
<g transform="translate(0.000000,360.000000) scale(0.100000,-0.100000)"
fill="#000000" stroke="none">
<path d="M0 3065 c0 -294 1 -535 3 -535 1 0 34 11 72 24 l70 23 1 69 c4 175
92 374 217 492 106 99 202 127 404 120 l133 -5 89 78 c88 75 152 123 199 148
21 11 24 9 46 -41 13 -30 34 -92 46 -138 13 -47 27 -93 32 -103 5 -9 38 -31
75 -47 178 -81 315 -238 375 -431 17 -56 23 -98 23 -174 0 -88 -4 -107 -28
-159 -18 -40 -25 -66 -21 -85 11 -41 41 -97 76 -137 l32 -36 -25 -22 c-14 -11
-38 -30 -54 -41 l-27 -20 16 -125 c21 -152 47 -274 87 -400 45 -147 79 -230
94 -230 26 0 65 -60 65 -98 l0 -37 -38 45 c-20 25 -48 55 -61 67 l-23 22 -83
-42 c-59 -30 -79 -45 -73 -54 12 -15 2 -33 -17 -33 -30 0 -24 -23 21 -87 26
-38 49 -70 51 -72 2 -3 13 5 26 16 37 34 226 129 332 167 163 59 267 77 468
83 193 6 264 -1 432 -43 347 -87 655 -302 876 -611 38 -53 69 -101 69 -105 0
-5 15 -32 33 -61 58 -93 63 -106 46 -121 -12 -12 -77 -48 -334 -186 -206 -111
-245 -132 -245 -136 0 -2 297 -4 660 -4 l660 0 0 981 c0 888 -2 982 -16 997
-15 14 -15 17 0 27 14 11 16 87 16 804 l0 791 -2400 0 -2400 0 0 -535z m3968
438 c3 -19 -1 -23 -21 -23 -28 0 -52 23 -42 40 4 6 19 10 33 8 19 -2 28 -10
30 -25z m-763 -413 c-3 -5 -15 -10 -26 -10 -10 0 -19 5 -19 10 0 6 12 10 26
10 14 0 23 -4 19 -10z m-627 -516 c5 -37 -31 -97 -83 -136 -55 -42 -65 -45
-65 -23 0 10 -7 15 -17 13 -14 -2 -19 5 -21 31 -3 27 3 41 30 68 37 40 103 74
133 70 12 -1 21 -11 23 -23z m-148 -359 c0 -29 -6 -68 -14 -86 -18 -43 -62
-92 -79 -87 -17 6 -59 137 -53 163 10 38 50 73 78 68 14 -3 29 0 33 7 15 25
35 -12 35 -65z m595 -605 c3 -5 1 -10 -4 -10 -6 0 -11 5 -11 10 0 6 2 10 4 10
3 0 8 -4 11 -10z m1725 -570 c27 -27 25 -63 -5 -97 -24 -27 -25 -28 -40 -9
-25 32 -16 126 11 126 8 0 23 -9 34 -20z"/>
<path d="M79 2178 c-22 -17 -30 -18 -49 -8 -12 6 -24 10 -26 7 -2 -2 -3 -112
-2 -243 l3 -239 17 70 c10 39 37 140 59 225 56 208 56 234 -2 188z"/>
<path d="M13 1383 c-10 -3 -13 -50 -13 -186 l0 -182 25 52 c22 47 31 56 92 86
37 19 112 57 166 85 54 28 124 59 155 68 l57 18 -54 7 c-43 6 -65 3 -103 -12
-70 -27 -104 -24 -194 20 -91 44 -114 51 -131 44z"/>
<path d="M1 832 c-1 -157 10 -192 24 -80 11 83 9 134 -9 188 -14 44 -14 40
-15 -108z"/>
<path d="M1692 228 c9 -42 5 -144 -8 -200 -6 -27 -5 -28 30 -28 32 0 36 3 36
25 0 13 5 35 11 49 19 42 2 134 -31 168 -40 40 -50 36 -38 -14z"/>
</g>
</svg>
