<?xml version="1.0" standalone="no"?>
<!DOCTYPE svg PUBLIC "-//W3C//DTD SVG 20010904//EN"
 "http://www.w3.org/TR/2001/REC-SVG-20010904/DTD/svg10.dtd">
<svg version="1.0" xmlns="http://www.w3.org/2000/svg"
 width="480.000000pt" height="360.000000pt" viewBox="0 0 480.000000 360.000000"
 preserveAspectRatio="xMidYMid meet">
<metadata>
Created by potrace 1.16, written by Peter Selinger 2001-2019
</metadata>
<rect width="1" height="360" fill="#000000"/>
<rect x="479" width="1" height="360" fill="#000000"/>
<rect width="480" height="1" fill="#000000"/>
<rect y="359" width="480" height="1" fill="#000000"/>
<g transform="translate(0.000000,360.000000) scale(0.100000,-0.100000)"
fill="#000000" stroke="none">
<path d="M1433 3300 c-18 -4 -48 -19 -67 -34 -19 -14 -39 -26 -43 -26 -5 0
-17 -17 -28 -37 -10 -21 -20 -32 -22 -25 -14 39 -33 -7 -52 -124 -6 -39 -20
-76 -40 -106 -35 -52 -37 -63 -15 -76 13 -7 14 -13 5 -30 -15 -28 -14 -53 2
-46 9 3 16 -17 24 -68 6 -40 22 -103 34 -139 l22 -66 -32 -106 c-28 -92 -60
-235 -61 -276 0 -10 3 -11 14 -2 12 10 20 1 47 -49 33 -60 57 -81 43 -37 -14
44 -24 93 -24 122 0 25 4 21 25 -29 31 -77 49 -94 43 -43 -2 20 -1 37 2 37 3
0 24 -18 45 -40 21 -22 47 -40 56 -40 20 0 55 -48 51 -70 -2 -8 -11 -21 -20
-28 -15 -11 -14 -16 6 -55 12 -23 27 -50 34 -59 18 -25 -4 -65 -46 -82 -67
-28 -236 -221 -236 -270 0 -10 -22 -42 -49 -71 -69 -73 -93 -125 -94 -201 0
-100 45 -160 141 -189 46 -14 56 -56 49 -215 -8 -172 -25 -246 -72 -311 -20
-26 -40 -62 -47 -81 -6 -18 -22 -42 -35 -53 -32 -28 -43 -71 -28 -120 11 -37
9 -49 -26 -148 l-37 -107 582 0 582 0 24 58 c29 71 67 141 139 257 67 107 71
100 41 -72 -11 -66 -20 -148 -20 -182 l0 -61 205 0 c113 0 205 3 205 6 0 4
-18 27 -41 51 -30 33 -38 49 -33 65 3 11 6 49 5 84 0 35 3 64 7 64 5 0 32 -39
60 -87 43 -72 52 -95 52 -135 l0 -48 301 0 302 0 -7 38 c-3 20 -11 141 -17
267 -13 280 -24 327 -102 431 l-54 71 -6 94 c-4 52 -10 117 -13 144 -7 45 -6
49 9 37 27 -23 40 -4 34 52 -2 28 -8 60 -12 70 -7 17 -5 18 19 12 l28 -7 -21
29 c-18 25 -19 34 -9 68 20 67 48 88 48 35 0 -16 6 -33 13 -39 9 -8 13 8 14
75 2 48 5 88 7 90 2 2 43 -3 92 -11 168 -27 394 -41 458 -28 33 7 65 17 72 23
15 12 18 78 7 143 -13 80 -113 146 -403 266 -58 24 -110 48 -117 52 -6 5 -14
51 -17 106 -3 53 -8 131 -11 173 l-5 77 35 6 c68 13 113 126 85 211 -24 73
-98 135 -161 135 -18 0 -55 11 -83 25 -28 14 -96 34 -151 46 -55 11 -118 25
-140 30 -124 32 -133 33 -177 20 -86 -26 -150 -133 -127 -213 10 -36 2 -84
-21 -118 -9 -14 -43 -88 -75 -165 -32 -77 -63 -146 -68 -152 -10 -14 -327 -19
-327 -5 0 4 15 25 34 47 l34 40 -3 -45 -2 -44 43 49 c43 49 44 49 44 22 0 -16
4 -26 9 -23 8 5 46 99 66 160 3 10 8 16 11 13 3 -3 -2 -35 -11 -72 -9 -36 -15
-68 -12 -71 2 -2 28 53 57 123 48 116 53 135 53 203 0 70 -3 83 -51 184 -51
105 -85 158 -145 223 -19 20 -33 49 -38 79 -11 57 -50 117 -93 143 -17 11 -58
28 -91 39 -33 10 -83 34 -110 51 -28 17 -72 38 -99 46 -69 21 -196 18 -281 -6
-99 -27 -100 -27 -103 1 -4 28 -29 61 -46 59 -6 -1 -26 -5 -43 -9z m-109 -179
c3 -4 -3 -16 -14 -26 -20 -18 -25 -11 -14 19 7 18 20 21 28 7z m884 -999 c-7
-29 -16 -42 -28 -42 -10 0 -33 -3 -51 -6 l-34 -6 33 32 c19 17 40 29 47 26 7
-2 18 7 24 21 17 37 22 24 9 -25z m-714 -98 c3 -8 2 -12 -4 -9 -6 3 -10 10
-10 16 0 14 7 11 14 -7z m966 -400 c0 -8 -4 -14 -10 -14 -5 0 -10 2 -10 4 0 2
-3 12 -6 20 -5 12 -2 15 10 10 9 -3 16 -12 16 -20z m790 -504 c0 -5 -2 -10 -4
-10 -3 0 -8 5 -11 10 -3 6 -1 10 4 10 6 0 11 -4 11 -10z m-1144 -211 l36 -36
-97 -174 c-102 -183 -134 -233 -142 -225 -15 14 93 422 128 489 11 20 12 20
25 1 8 -10 30 -35 50 -55z"/>
</g>
</svg>
