<?xml version="1.0" standalone="no"?>
<!DOCTYPE svg PUBLIC "-//W3C//DTD SVG 20010904//EN"
 "http://www.w3.org/TR/2001/REC-SVG-20010904/DTD/svg10.dtd">
<svg version="1.0" xmlns="http://www.w3.org/2000/svg"
 width="480.000000pt" height="360.000000pt" viewBox="0 0 480.000000 360.000000"
 preserveAspectRatio="xMidYMid meet">
<metadata>
Created by potrace 1.16, written by Peter Selinger 2001-2019
</metadata>
<rect width="1" height="360" fill="#000000"/>
<rect x="479" width="1" height="360" fill="#000000"/>
<rect width="480" height="1" fill="#000000"/>
<rect y="359" width="480" height="1" fill="#000000"/>
<g transform="translate(0.000000,360.000000) scale(0.100000,-0.100000)"
fill="#000000" stroke="none">
<path d="M4170 1405 c-30 -36 9 -79 126 -138 77 -39 81 -49 35 -81 -46 -32
-140 -49 -358 -65 -164 -13 -199 -19 -213 -36 -11 -14 -3 -45 12 -45 5 0 24
-11 41 -24 44 -33 117 -55 215 -67 46 -5 109 -20 140 -33 31 -13 84 -29 117
-35 33 -7 104 -26 158 -44 72 -24 99 -37 103 -52 4 -11 29 -72 56 -135 51
-118 101 -293 137 -480 22 -117 39 -170 52 -170 5 0 9 250 9 600 0 441 -3 600
-11 600 -7 0 -48 18 -93 39 -44 21 -97 42 -116 46 -19 4 -87 31 -150 61 -153
71 -235 90 -260 59z"/>
<path d="M2023 170 c-45 -5 -110 -16 -145 -25 -69 -19 -228 -93 -268 -124
l-25 -21 804 0 c796 0 804 0 786 19 -26 29 -171 97 -245 115 -36 9 -108 20
-160 25 -136 14 -650 21 -747 11z"/>
</g>
</svg>
