<?xml version="1.0" standalone="no"?>
<!DOCTYPE svg PUBLIC "-//W3C//DTD SVG 20010904//EN"
 "http://www.w3.org/TR/2001/REC-SVG-20010904/DTD/svg10.dtd">
<svg version="1.0" xmlns="http://www.w3.org/2000/svg"
 width="480.000000pt" height="360.000000pt" viewBox="0 0 480.000000 360.000000"
 preserveAspectRatio="xMidYMid meet">
<metadata>
Created by potrace 1.16, written by Peter Selinger 2001-2019
</metadata>
<rect width="1" height="360" fill="#000000"/>
<rect x="479" width="1" height="360" fill="#000000"/>
<rect width="480" height="1" fill="#000000"/>
<rect y="359" width="480" height="1" fill="#000000"/>
<g transform="translate(0.000000,360.000000) scale(0.100000,-0.100000)"
fill="#000000" stroke="none">
<path d="M1597 3563 c13 -62 6 -312 -11 -410 -18 -98 -96 -322 -127 -362 -11
-13 -19 -28 -19 -33 0 -17 -102 -160 -164 -231 -55 -62 -109 -110 -229 -204
-100 -78 -360 -185 -514 -213 -119 -21 -418 -12 -511 16 l-22 6 0 -1066 0
-1066 1310 0 1310 0 0 28 c1 88 53 322 114 510 40 123 78 265 96 360 65 332
96 522 88 537 -5 8 -14 53 -20 101 -8 64 -15 87 -27 90 -71 21 -121 78 -121
139 0 16 16 61 35 98 19 38 35 73 35 78 0 13 -56 3 -166 -32 -136 -43 -144
-41 -168 34 -5 17 -8 17 -28 3 -30 -22 -35 -20 -46 12 -10 28 -12 29 -98 35
-85 5 -310 66 -416 111 -21 9 -47 16 -59 16 -11 0 -48 16 -80 36 -52 33 -64
36 -104 31 -46 -7 -55 -1 -32 22 10 10 6 12 -17 9 -36 -4 -47 18 -14 31 22 9
21 10 -8 10 -40 1 -48 10 -27 33 32 35 140 16 268 -49 81 -40 106 -47 262 -73
95 -16 181 -34 192 -39 22 -12 64 -14 109 -5 21 4 32 13 37 31 6 24 7 24 30 9
33 -22 42 -20 49 8 9 35 34 39 99 17 32 -11 94 -25 140 -31 45 -7 84 -13 87
-15 4 -2 25 1 48 7 40 10 41 11 27 31 -20 28 -19 34 6 42 32 10 16 30 -25 30
-35 0 -39 4 -71 60 -19 33 -37 65 -41 72 -3 6 4 21 16 33 l22 22 -27 14 c-15
8 -30 12 -34 9 -10 -6 -41 60 -41 86 0 11 -4 18 -9 15 -12 -8 -6 37 9 65 7 13
24 39 37 57 l25 33 -32 76 c-39 92 -35 123 13 123 37 0 253 -80 294 -109 16
-10 51 -26 79 -35 36 -12 69 -33 107 -71 66 -64 83 -109 99 -265 6 -66 21
-137 39 -191 19 -58 29 -106 29 -146 l0 -61 58 -48 c31 -27 65 -58 74 -69 19
-21 24 -70 9 -79 -5 -4 -3 -20 6 -38 12 -23 13 -35 5 -48 -8 -14 -3 -33 28
-91 44 -85 45 -89 65 -310 9 -91 24 -197 35 -235 11 -38 20 -91 20 -117 0 -38
5 -53 25 -73 14 -14 25 -27 25 -29 0 -10 -47 -4 -58 7 -19 19 -14 -4 7 -36 11
-17 18 -33 15 -38 -9 -15 -44 12 -63 50 -28 53 -26 23 3 -43 17 -37 21 -55 12
-55 -6 0 -18 6 -24 12 -10 10 -15 10 -22 -2 -15 -24 -47 14 -70 86 -12 35 -26
62 -30 59 -18 -11 77 -253 206 -527 47 -99 103 -232 124 -296 l39 -117 456 -3
455 -2 0 1800 0 1800 -1605 0 -1606 0 8 -37z"/>
<path d="M3441 1573 c0 -10 -4 -60 -9 -110 -8 -80 -6 -101 9 -145 11 -33 18
-82 19 -129 0 -43 7 -96 16 -124 15 -42 18 -45 28 -29 21 36 12 229 -17 364
-15 69 -27 139 -27 157 0 18 -4 33 -9 33 -6 0 -10 -8 -10 -17z"/>
</g>
</svg>
