<?xml version="1.0" standalone="no"?>
<!DOCTYPE svg PUBLIC "-//W3C//DTD SVG 20010904//EN"
 "http://www.w3.org/TR/2001/REC-SVG-20010904/DTD/svg10.dtd">
<svg version="1.0" xmlns="http://www.w3.org/2000/svg"
 width="480.000000pt" height="360.000000pt" viewBox="0 0 480.000000 360.000000"
 preserveAspectRatio="xMidYMid meet">
<metadata>
Created by potrace 1.16, written by Peter Selinger 2001-2019
</metadata>
<rect width="1" height="360" fill="#000000"/>
<rect x="479" width="1" height="360" fill="#000000"/>
<rect width="480" height="1" fill="#000000"/>
<rect y="359" width="480" height="1" fill="#000000"/>
<g transform="translate(0.000000,360.000000) scale(0.100000,-0.100000)"
fill="#000000" stroke="none">
<path d="M0 1800 l0 -1800 158 0 159 0 13 135 c18 182 8 231 -87 455 -126 298
-165 441 -194 709 -15 142 -6 565 15 707 34 226 95 458 181 687 l34 90 -29 34
c-54 61 -32 109 49 107 84 -2 528 -192 587 -252 21 -23 84 -51 244 -112 238
-91 579 -215 769 -279 68 -24 130 -45 137 -48 8 -3 14 0 14 6 0 6 -9 11 -20
11 -25 0 -25 7 0 28 11 10 26 41 34 71 l14 53 -54 -7 c-34 -4 -54 -3 -54 3 0
6 6 13 12 15 7 3 -16 6 -51 6 -53 1 -62 3 -52 15 9 11 9 15 -1 19 -9 4 -8 6 3
6 9 1 23 9 30 18 12 15 12 16 -4 10 -29 -11 -3 28 35 52 36 21 88 79 213 235
85 106 151 161 256 214 l66 33 39 -17 c21 -9 46 -18 54 -19 191 -33 271 -65
340 -134 49 -50 86 -133 115 -257 8 -38 18 -77 21 -86 4 -12 0 -18 -10 -18 -9
0 -16 5 -16 11 0 5 -4 7 -10 4 -5 -3 -10 -14 -10 -24 0 -22 -67 -98 -77 -88
-3 4 -17 0 -29 -8 -13 -8 -29 -12 -37 -9 -24 9 -30 -15 -12 -42 17 -26 14 -54
-5 -54 -5 0 -39 -29 -75 -65 -37 -38 -73 -65 -85 -65 -11 0 -20 -4 -20 -9 0
-17 63 -57 110 -70 52 -15 95 -42 130 -83 27 -31 42 -36 458 -148 207 -56 235
-62 257 -50 21 11 27 11 43 -3 24 -22 35 -21 56 2 19 21 51 18 60 -6 5 -12 9
-13 20 -4 14 12 46 5 46 -9 0 -5 10 -10 22 -12 12 -2 28 -14 35 -28 10 -21 13
-22 19 -7 10 28 44 21 57 -13 11 -28 18 -31 137 -59 69 -16 244 -55 390 -85
146 -31 273 -58 283 -60 16 -4 17 51 17 1045 l0 1049 -2400 0 -2400 0 0 -1800z"/>
<path d="M766 2551 c-31 -50 -183 -452 -205 -539 -46 -187 -81 -482 -81 -692
0 -228 28 -360 167 -799 35 -110 44 -152 39 -181 -3 -21 -30 -96 -60 -167 -30
-70 -57 -138 -61 -150 l-6 -23 430 0 430 0 118 89 c135 102 123 92 342 274
222 185 295 258 411 414 89 118 98 134 91 160 -4 15 -6 33 -4 39 2 7 -38 47
-89 90 -133 112 -198 175 -214 206 -34 65 -10 147 82 284 51 77 54 83 48 127
-6 41 -3 53 21 89 25 38 29 52 30 133 1 49 5 101 9 115 l8 25 -17 -23 c-13
-18 -20 -20 -31 -12 -10 9 -19 6 -38 -15 -22 -24 -27 -25 -32 -11 -5 13 -9 14
-20 5 -8 -6 -14 -10 -15 -8 0 2 -3 15 -5 28 -6 33 -11 36 -30 20 -16 -13 -17
-11 -11 24 6 41 2 45 -25 20 -17 -15 -18 -15 -18 3 0 11 5 25 11 31 8 8 6 14
-9 22 -15 8 -23 7 -32 -4 -17 -21 -33 -19 -26 3 6 16 -22 29 -221 100 -126 44
-370 135 -543 202 -260 100 -326 122 -378 125 -34 1 -64 0 -66 -4z"/>
<path d="M2620 2171 c0 -5 5 -13 10 -16 6 -3 10 -2 10 4 0 5 -4 13 -10 16 -5
3 -10 2 -10 -4z"/>
<path d="M2942 1838 c-25 -25 -4 -79 73 -188 45 -63 59 -111 52 -185 -9 -97
-4 -100 123 -64 58 16 169 46 247 66 78 19 150 41 159 48 15 11 16 21 8 81
l-9 69 -105 28 c-197 52 -505 139 -521 148 -10 5 -20 4 -27 -3z"/>
<path d="M3921 1511 c-53 -78 -131 -145 -216 -186 -71 -34 -449 -171 -538
-195 -54 -14 -111 -9 -158 14 -18 9 -33 15 -34 14 -17 -34 -25 -71 -25 -125 0
-63 1 -67 45 -115 46 -51 53 -74 35 -108 -14 -26 42 -137 105 -211 92 -106
194 -277 179 -300 -3 -6 -24 -9 -45 -7 -22 2 -39 0 -39 -5 0 -5 18 -66 40
-134 22 -69 40 -132 40 -139 0 -12 120 -14 745 -14 l745 0 0 660 0 659 -132
41 c-73 23 -160 50 -193 60 -33 11 -157 47 -275 80 -118 33 -221 62 -227 65
-7 2 -31 -22 -52 -54z"/>
<path d="M2298 1396 l-37 -43 51 -49 50 -49 -6 84 c-3 47 -9 88 -13 92 -5 4
-25 -12 -45 -35z"/>
</g>
</svg>
