<?xml version="1.0" standalone="no"?>
<!DOCTYPE svg PUBLIC "-//W3C//DTD SVG 20010904//EN"
 "http://www.w3.org/TR/2001/REC-SVG-20010904/DTD/svg10.dtd">
<svg version="1.0" xmlns="http://www.w3.org/2000/svg"
 width="480.000000pt" height="360.000000pt" viewBox="0 0 480.000000 360.000000"
 preserveAspectRatio="xMidYMid meet">
<metadata>
Created by potrace 1.16, written by Peter Selinger 2001-2019
</metadata>
<rect width="1" height="360" fill="#000000"/>
<rect x="479" width="1" height="360" fill="#000000"/>
<rect width="480" height="1" fill="#000000"/>
<rect y="359" width="480" height="1" fill="#000000"/>
<g transform="translate(0.000000,360.000000) scale(0.100000,-0.100000)"
fill="#000000" stroke="none">
<path d="M0 2180 l0 -1420 124 0 c69 0 127 4 130 8 2 4 8 70 12 145 5 102 4
144 -5 161 -11 20 -9 31 19 87 36 72 44 79 82 79 15 0 43 7 61 16 32 15 35 20
41 77 4 36 2 65 -4 71 -23 23 -10 44 39 61 27 9 52 23 55 31 10 25 7 52 -6 56
-14 5 11 68 28 68 21 0 34 -46 21 -79 -15 -41 8 -82 53 -94 34 -9 49 -32 31
-50 -6 -6 -11 -39 -11 -72 l0 -62 38 -16 c20 -9 53 -20 72 -25 32 -7 38 -15
63 -77 17 -42 24 -72 18 -79 -5 -6 -12 -75 -16 -154 l-8 -143 69 3 68 3 1 105
0 105 57 88 c32 48 61 87 66 87 4 0 31 -41 60 -91 51 -89 52 -93 52 -170 0
-73 1 -79 23 -83 12 -3 164 -12 337 -21 l315 -16 70 -69 c39 -39 74 -70 78
-70 4 0 7 92 7 205 l0 206 50 74 c28 41 53 75 56 75 2 0 27 -35 55 -77 l51
-78 -7 -522 -8 -523 1282 0 1281 0 0 1800 0 1800 -2400 0 -2400 0 0 -1420z
m3079 510 c23 -12 45 -64 37 -86 -9 -23 22 -112 42 -123 10 -5 55 -17 100 -26
49 -11 86 -24 89 -32 3 -8 -6 -27 -21 -42 -24 -25 -25 -28 -9 -44 16 -16 16
-17 -10 -17 -15 0 -27 -4 -27 -9 0 -5 -15 -12 -32 -15 l-33 -7 25 -14 c25 -14
25 -15 4 -21 -22 -6 -25 -18 -11 -41 6 -9 2 -12 -10 -11 -47 4 -50 0 -52 -58
0 -30 -6 -64 -11 -75 -14 -24 -5 -24 31 2 31 21 140 69 160 69 20 0 1 -81 -31
-133 -17 -27 -28 -52 -25 -57 3 -5 74 -7 158 -5 l152 4 -30 -24 -29 -24 37
-16 c20 -8 41 -15 47 -15 7 0 9 -8 5 -19 -5 -16 1 -22 32 -30 21 -6 46 -11 56
-11 10 0 15 -4 12 -10 -3 -5 -16 -10 -29 -10 -12 0 -26 -3 -29 -7 -8 -8 23
-32 43 -33 8 0 23 -12 34 -26 18 -26 18 -26 0 -21 -51 14 -84 18 -84 9 0 -6
11 -24 25 -40 30 -35 31 -44 8 -35 -16 6 -16 4 1 -15 19 -22 19 -22 -2 -22
-19 0 -20 -2 -7 -28 9 -16 29 -33 50 -41 19 -7 35 -16 35 -21 0 -5 -7 -7 -16
-3 -9 3 -19 0 -23 -6 -6 -9 -17 -8 -44 5 -20 10 -39 15 -42 12 -14 -13 11 -39
46 -48 56 -15 48 -23 -15 -16 -48 6 -54 5 -59 -13 -2 -10 0 -24 6 -30 8 -8 6
-11 -5 -11 -9 0 -19 4 -22 9 -3 5 -15 11 -27 14 -22 6 -22 0 -3 -48 5 -14 -5
-8 -35 18 -48 43 -66 44 -66 1 0 -16 -2 -31 -5 -34 -3 -3 -10 -16 -16 -30 -11
-24 -11 -24 -18 13 -6 32 -14 40 -52 58 -24 12 -47 25 -50 30 -12 21 -30 8
-26 -19 5 -38 -31 -82 -68 -82 -38 0 -47 14 -62 95 -10 59 -18 75 -48 103 -19
18 -42 31 -50 30 -8 -2 -24 -39 -41 -96 -15 -51 -30 -96 -33 -99 -3 -3 -16 -3
-29 1 -29 7 -50 44 -51 93 -1 33 -5 38 -34 47 -18 5 -53 27 -78 49 -43 38 -45
39 -51 18 -6 -23 -11 -25 -31 -13 -7 5 -10 16 -6 26 4 11 0 22 -13 31 -24 17
-35 59 -20 74 6 6 30 11 54 11 32 0 45 5 53 20 6 11 31 35 56 54 83 59 99 174
31 229 -16 13 -26 31 -25 43 1 12 -4 40 -12 63 -12 38 -12 45 7 79 17 30 20
47 15 92 -4 30 -15 66 -24 79 -15 21 -22 23 -60 17 -24 -4 -53 -9 -65 -13 -17
-4 -23 -1 -23 10 0 9 -8 20 -17 25 -14 8 -5 16 47 42 l64 32 -27 14 c-36 19
-34 27 4 19 51 -11 104 20 127 76 11 25 34 62 52 82 27 31 39 37 72 37 21 0
47 -4 57 -10z"/>
<path d="M2854 1706 c-10 -8 -15 -18 -11 -22 4 -4 15 0 24 9 22 21 12 31 -13
13z"/>
<path d="M3566 1461 c5 -5 20 -12 34 -16 22 -7 23 -6 11 9 -7 9 -23 16 -34 16
-13 0 -17 -4 -11 -9z"/>
</g>
</svg>
