<?xml version="1.0" standalone="no"?>
<!DOCTYPE svg PUBLIC "-//W3C//DTD SVG 20010904//EN"
 "http://www.w3.org/TR/2001/REC-SVG-20010904/DTD/svg10.dtd">
<svg version="1.0" xmlns="http://www.w3.org/2000/svg"
 width="480.000000pt" height="360.000000pt" viewBox="0 0 480.000000 360.000000"
 preserveAspectRatio="xMidYMid meet">
<metadata>
Created by potrace 1.16, written by Peter Selinger 2001-2019
</metadata>
<rect width="1" height="360" fill="#000000"/>
<rect x="479" width="1" height="360" fill="#000000"/>
<rect width="480" height="1" fill="#000000"/>
<rect y="359" width="480" height="1" fill="#000000"/>
<g transform="translate(0.000000,360.000000) scale(0.100000,-0.100000)"
fill="#000000" stroke="none">
<path d="M1390 3585 c0 -9 7 -30 17 -48 9 -18 20 -45 24 -62 8 -34 26 -85 45
-130 7 -16 16 -42 19 -58 4 -15 11 -30 16 -33 5 -3 9 -13 9 -23 0 -9 14 -36
31 -59 28 -38 35 -42 72 -42 l42 0 2 -62 c1 -35 4 -94 6 -132 4 -62 1 -79 -28
-145 -18 -42 -44 -99 -59 -128 -34 -69 -33 -83 5 -47 31 29 31 29 24 4 -67
-215 -85 -278 -85 -295 0 -13 7 -6 19 20 l19 40 3 -45 c2 -25 2 -74 1 -110 -2
-47 0 -61 7 -50 6 8 11 27 11 42 0 44 18 41 25 -4 5 -36 1 -56 -28 -118 -45
-101 -63 -145 -83 -210 -9 -30 -20 -62 -25 -72 -4 -9 -15 -44 -24 -79 -9 -35
-23 -76 -31 -91 -10 -20 -12 -34 -5 -47 6 -10 8 -21 5 -24 -11 -11 -16 -92
-19 -332 l-3 -240 -102 -250 c-55 -137 -110 -275 -122 -305 l-21 -54 42 -37
c22 -20 41 -45 41 -56 0 -10 -14 -59 -31 -107 -17 -49 -33 -113 -36 -142 l-6
-54 225 0 225 0 27 59 c72 162 145 404 175 581 38 226 59 571 43 695 -10 69
-9 85 6 114 9 19 22 36 28 38 7 2 24 -41 43 -104 50 -173 53 -201 41 -373 -18
-264 -18 -283 -8 -300 9 -13 2 -31 -27 -81 -51 -87 -98 -207 -130 -330 -23
-93 -70 -253 -82 -286 -4 -10 150 -13 751 -13 416 0 756 4 756 8 0 5 18 14 40
21 88 26 115 113 84 275 l-18 97 32 65 c18 35 32 77 32 93 0 16 -32 100 -71
187 -128 289 -191 455 -226 598 -18 76 -33 149 -33 162 0 12 16 49 35 81 19
32 35 67 35 79 0 32 -32 54 -98 65 -70 13 -65 1 -82 194 -6 66 -16 136 -22
155 -15 46 -108 143 -175 181 -29 17 -53 33 -53 35 0 3 11 22 25 42 14 20 25
39 25 43 0 3 -37 9 -81 12 -45 4 -84 8 -86 10 -8 8 38 115 52 121 19 7 92 153
125 250 l27 80 48 2 c52 2 85 29 85 69 0 25 -32 95 -70 155 -29 46 -46 102
-36 118 5 9 28 6 112 -13 25 -6 36 -3 54 15 12 12 19 28 16 35 -2 7 2 19 9 25
8 7 12 17 9 22 -3 5 1 17 10 27 15 17 27 77 30 151 1 19 6 43 12 53 5 9 8 33
6 52 l-4 35 -849 0 c-760 0 -849 -2 -849 -15z m510 -1873 c0 -46 -3 -53 -17
-50 -19 4 -20 27 -8 97 9 50 25 20 25 -47z"/>
<path d="M1560 2118 c0 -19 2 -20 10 -8 13 19 13 30 0 30 -5 0 -10 -10 -10
-22z"/>
</g>
</svg>
