<?xml version="1.0" standalone="no"?>
<!DOCTYPE svg PUBLIC "-//W3C//DTD SVG 20010904//EN"
 "http://www.w3.org/TR/2001/REC-SVG-20010904/DTD/svg10.dtd">
<svg version="1.0" xmlns="http://www.w3.org/2000/svg"
 width="480.000000pt" height="360.000000pt" viewBox="0 0 480.000000 360.000000"
 preserveAspectRatio="xMidYMid meet">
<metadata>
Created by potrace 1.16, written by Peter Selinger 2001-2019
</metadata>
<rect width="1" height="360" fill="#000000"/>
<rect x="479" width="1" height="360" fill="#000000"/>
<rect width="480" height="1" fill="#000000"/>
<rect y="359" width="480" height="1" fill="#000000"/>
<g transform="translate(0.000000,360.000000) scale(0.100000,-0.100000)"
fill="#000000" stroke="none">
<path d="M0 2735 c0 -483 4 -865 9 -865 4 0 31 18 59 40 93 74 167 95 235 66
49 -20 134 -116 142 -160 11 -59 -2 -104 -35 -121 -16 -8 -39 -15 -51 -15 -20
0 -21 -3 -15 -72 14 -158 30 -218 63 -237 16 -8 15 -15 -10 -88 -44 -131 -49
-162 -56 -328 -7 -180 -8 -183 -82 -149 -22 9 -42 15 -45 12 -3 -3 -7 -39 -10
-79 -3 -41 -10 -93 -16 -116 -10 -39 -8 -48 26 -116 19 -41 54 -95 77 -120 22
-26 37 -47 32 -47 -15 0 -67 53 -111 113 -39 53 -62 70 -62 48 0 -5 -34 -65
-75 -133 l-75 -123 0 -122 0 -123 2400 0 2400 0 0 1800 0 1800 -2400 0 -2400
0 0 -865z m2231 -447 c90 -93 120 -168 188 -462 29 -124 66 -216 127 -315 26
-41 26 -43 6 -32 -34 18 -372 357 -435 437 -60 74 -130 212 -142 277 -6 32 -5
37 11 37 11 0 37 -12 59 -25 49 -30 52 -31 61 -2 19 62 54 127 68 127 9 0 34
-19 57 -42z"/>
<path d="M23 455 c-6 -11 -13 -40 -17 -65 l-6 -45 20 55 c20 55 22 92 3 55z"/>
</g>
</svg>
