<?xml version="1.0" standalone="no"?>
<!DOCTYPE svg PUBLIC "-//W3C//DTD SVG 20010904//EN"
 "http://www.w3.org/TR/2001/REC-SVG-20010904/DTD/svg10.dtd">
<svg version="1.0" xmlns="http://www.w3.org/2000/svg"
 width="480.000000pt" height="360.000000pt" viewBox="0 0 480.000000 360.000000"
 preserveAspectRatio="xMidYMid meet">
<metadata>
Created by potrace 1.16, written by Peter Selinger 2001-2019
</metadata>
<rect width="1" height="360" fill="#000000"/>
<rect x="479" width="1" height="360" fill="#000000"/>
<rect width="480" height="1" fill="#000000"/>
<rect y="359" width="480" height="1" fill="#000000"/>
<g transform="translate(0.000000,360.000000) scale(0.100000,-0.100000)"
fill="#000000" stroke="none">
<path d="M0 2790 l0 -809 119 80 c142 94 382 213 536 265 128 43 192 46 360
21 268 -40 452 -94 614 -181 l33 -18 -26 -27 c-14 -15 -26 -31 -26 -35 0 -4
16 -27 36 -52 20 -24 40 -60 45 -81 17 -66 31 -166 30 -207 -2 -37 -27 -96
-42 -96 -4 0 -11 -9 -14 -20 -3 -11 -11 -20 -16 -20 -6 0 -17 -7 -26 -15 -41
-41 38 -80 144 -71 85 8 89 3 78 -97 -7 -62 -6 -64 29 -106 38 -46 39 -49 10
-120 -22 -54 -18 -69 27 -91 28 -15 39 -26 35 -38 -2 -9 -7 -27 -11 -39 -3
-13 1 -50 9 -84 9 -33 16 -69 16 -79 0 -28 -98 -108 -163 -133 -100 -38 -136
-92 -98 -144 20 -27 21 -31 7 -71 -9 -23 -12 -50 -9 -59 5 -13 2 -15 -11 -10
-15 6 -17 0 -14 -56 l3 -62 95 -33 c94 -33 96 -33 176 -21 44 6 94 9 110 6 60
-11 105 -25 120 -37 13 -11 13 -16 -2 -37 -8 -14 -14 -26 -12 -28 4 -4 166
-61 372 -131 l160 -54 1053 0 1053 0 0 1800 0 1800 -2400 0 -2400 0 0 -810z"/>
</g>
</svg>
