<?xml version="1.0" standalone="no"?>
<!DOCTYPE svg PUBLIC "-//W3C//DTD SVG 20010904//EN"
 "http://www.w3.org/TR/2001/REC-SVG-20010904/DTD/svg10.dtd">
<svg version="1.0" xmlns="http://www.w3.org/2000/svg"
 width="480.000000pt" height="360.000000pt" viewBox="0 0 480.000000 360.000000"
 preserveAspectRatio="xMidYMid meet">
<metadata>
Created by potrace 1.16, written by Peter Selinger 2001-2019
</metadata>
<rect width="1" height="360" fill="#000000"/>
<rect x="479" width="1" height="360" fill="#000000"/>
<rect width="480" height="1" fill="#000000"/>
<rect y="359" width="480" height="1" fill="#000000"/>
<g transform="translate(0.000000,360.000000) scale(0.100000,-0.100000)"
fill="#000000" stroke="none">
<path d="M1604 3413 c0 -272 -25 -385 -135 -608 -53 -108 -137 -227 -222 -314
-77 -80 -232 -200 -297 -232 -32 -15 -61 -33 -65 -38 -3 -6 -38 -20 -78 -32
-40 -12 -76 -25 -82 -29 -23 -18 -192 -52 -302 -61 -138 -11 -314 0 -406 27
-16 5 -17 -50 -17 -1060 l0 -1066 1850 0 1850 0 0 215 c0 158 5 251 19 352 11
76 23 175 27 221 l7 82 -54 0 c-57 0 -99 19 -99 46 0 8 -5 23 -12 34 -13 21 2
59 67 170 18 30 58 119 89 197 61 152 61 151 33 266 -8 35 -18 52 -37 62 -14
7 -36 25 -50 40 -44 47 -26 139 45 223 17 20 29 51 35 89 8 51 15 63 56 101
37 34 44 46 34 52 -12 7 -11 12 3 28 24 26 10 34 -25 16 -28 -15 -32 -14 -69
13 -21 15 -52 38 -69 50 -17 12 -26 24 -20 28 31 19 -20 60 -63 49 -17 -4 -31
4 -56 31 l-33 37 6 81 6 82 -55 43 c-30 24 -62 56 -70 71 -13 26 -13 30 4 45
15 14 53 19 182 27 301 19 335 18 407 -15 74 -34 160 -123 214 -219 18 -33 65
-93 103 -133 39 -41 88 -106 110 -147 26 -49 75 -110 142 -181 106 -112 143
-173 177 -289 9 -30 23 -60 31 -67 13 -11 15 92 15 944 l0 956 -1598 0 -1597
0 -1 -187z"/>
<path d="M4210 1972 c6 -13 14 -21 18 -18 3 4 -2 14 -12 24 -18 16 -18 16 -6
-6z"/>
<path d="M4329 1764 c-11 -14 -11 -18 4 -28 13 -10 15 -19 7 -48 -9 -30 -6
-45 25 -111 35 -76 35 -77 45 -279 6 -119 16 -222 24 -248 8 -25 18 -70 22
-100 12 -96 104 -260 257 -458 l82 -107 3 413 2 413 -27 55 c-15 31 -39 65
-53 77 -14 12 -41 48 -59 80 -19 33 -81 106 -145 170 -61 62 -122 129 -136
149 -28 43 -32 44 -51 22z"/>
<path d="M4160 1545 c1 -17 7 -46 14 -66 7 -20 11 -50 9 -65 -2 -21 5 -39 27
-64 34 -40 34 -38 16 84 -11 71 -19 93 -40 114 l-26 27 0 -30z"/>
</g>
</svg>
