<?xml version="1.0" standalone="no"?>
<!DOCTYPE svg PUBLIC "-//W3C//DTD SVG 20010904//EN"
 "http://www.w3.org/TR/2001/REC-SVG-20010904/DTD/svg10.dtd">
<svg version="1.0" xmlns="http://www.w3.org/2000/svg"
 width="480.000000pt" height="360.000000pt" viewBox="0 0 480.000000 360.000000"
 preserveAspectRatio="xMidYMid meet">
<metadata>
Created by potrace 1.16, written by Peter Selinger 2001-2019
</metadata>
<rect width="1" height="360" fill="#000000"/>
<rect x="479" width="1" height="360" fill="#000000"/>
<rect width="480" height="1" fill="#000000"/>
<rect y="359" width="480" height="1" fill="#000000"/>
<g transform="translate(0.000000,360.000000) scale(0.100000,-0.100000)"
fill="#000000" stroke="none">
<path d="M2569 3363 c-104 -106 -104 -105 -73 -196 l25 -76 -75 -71 c-88 -84
-126 -154 -152 -280 -18 -90 -14 -163 11 -223 8 -20 15 -49 16 -64 l1 -28 13
29 13 30 7 -35 c4 -19 18 -54 31 -79 19 -37 23 -41 24 -21 l0 24 21 -27 c14
-18 28 -26 40 -23 11 3 22 -1 27 -8 4 -7 18 -16 32 -20 24 -8 23 -6 -8 29 -30
34 -37 46 -28 46 2 0 24 -24 50 -54 l46 -54 -26 -37 c-14 -21 -23 -43 -20 -51
3 -7 23 -18 45 -25 29 -8 47 -22 61 -46 10 -18 24 -33 30 -33 5 0 36 -25 67
-55 32 -30 62 -55 67 -55 5 0 15 -8 22 -17 11 -16 13 -16 19 10 l7 28 24 -22
23 -21 7 38 c6 33 8 35 20 20 7 -10 17 -15 23 -11 7 4 11 -8 11 -32 0 -35 -8
-46 -84 -122 -65 -65 -91 -84 -116 -86 -46 -4 -100 -63 -100 -110 0 -10 -18
-37 -40 -62 -44 -50 -55 -90 -47 -164 5 -42 1 -60 -29 -126 -20 -43 -44 -114
-53 -158 l-17 -79 -54 99 c-29 55 -61 111 -71 125 -10 14 -27 67 -39 116 -11
50 -34 119 -51 154 -16 35 -28 64 -27 65 2 1 85 19 186 39 190 38 239 52 228
63 -9 9 -108 4 -290 -17 -158 -17 -162 -17 -188 1 -32 23 -102 49 -133 49 -12
0 -33 -8 -46 -18 -13 -11 -36 -22 -51 -26 -16 -4 -34 -18 -43 -35 -9 -19 -26
-32 -45 -36 -16 -4 -32 -11 -35 -16 -4 -5 -10 -9 -15 -9 -4 0 -52 75 -106 168
-54 92 -98 168 -99 170 -1 1 -19 3 -39 4 -20 1 -39 5 -42 10 -3 4 -14 4 -24
-2 -13 -7 -21 -7 -26 1 -7 12 -94 -67 -94 -86 0 -5 47 -89 105 -185 68 -113
101 -178 95 -184 -17 -17 -11 -58 15 -113 16 -37 22 -63 18 -86 -5 -33 34
-169 63 -214 7 -11 37 -29 65 -38 29 -10 68 -28 87 -41 19 -13 85 -49 146 -79
122 -59 166 -88 166 -111 0 -48 66 -123 270 -307 l74 -67 -12 -56 c-7 -37 -19
-62 -33 -72 -48 -34 -64 -133 -29 -190 12 -20 20 -50 20 -77 l0 -45 635 0 635
0 0 28 c0 55 -100 189 -146 196 -16 2 -22 20 -36 107 -31 188 -49 387 -43 472
6 72 4 86 -15 116 -17 26 -26 32 -46 28 -26 -5 -31 12 -18 60 l6 22 30 -22
c25 -19 43 -22 113 -22 90 1 105 6 85 30 -11 13 -4 15 59 15 68 0 71 1 61 19
-5 11 -10 22 -10 24 0 2 32 8 71 11 57 6 68 10 59 21 -8 10 -6 25 12 61 32 67
48 68 48 5 0 -53 13 -73 29 -44 18 34 24 -12 7 -59 -15 -43 -41 -196 -34 -203
2 -2 28 27 57 66 30 38 55 68 56 67 2 -2 -5 -34 -15 -73 -10 -38 -21 -110 -25
-160 l-6 -90 20 25 20 25 3 -120 3 -120 39 53 c21 29 40 51 42 50 1 -2 -1 -21
-6 -43 -4 -22 -11 -69 -15 -104 l-7 -63 32 18 c18 11 45 35 61 54 34 41 35 32
10 -75 -11 -44 -18 -82 -15 -84 2 -2 16 6 30 20 24 22 26 22 21 4 -3 -11 -8
-36 -12 -55 l-6 -35 26 30 c13 17 25 24 25 18 0 -28 18 -10 30 30 15 52 59
141 66 134 3 -3 -2 -29 -11 -59 -19 -65 -55 -261 -55 -302 0 -28 1 -29 15 -10
18 24 19 7 0 -26 -8 -14 -14 -28 -15 -32 0 -5 89 -8 198 -8 l198 0 13 128 c12
122 23 163 36 130 4 -9 -1 -50 -9 -91 -9 -42 -16 -97 -16 -122 l0 -45 40 0 40
0 0 840 c0 618 -3 840 -11 840 -15 0 -176 91 -269 153 -171 114 -344 285 -446
441 -27 42 -52 76 -55 76 -3 0 -11 -19 -18 -41 -7 -23 -25 -53 -39 -68 -15
-14 -46 -55 -70 -91 -70 -106 -272 -338 -336 -386 l-59 -44 -24 25 c-22 21
-25 35 -30 134 -6 108 -5 111 15 111 15 0 20 5 16 15 -14 35 15 12 34 -27 12
-25 21 -35 22 -25 0 13 5 17 19 12 17 -5 19 3 25 83 4 49 4 101 1 115 -4 16
-3 27 3 27 18 0 52 -66 52 -99 0 -19 4 -30 10 -26 6 3 10 15 10 25 0 13 5 18
15 13 14 -5 14 -2 3 22 -9 21 -9 31 0 46 7 11 10 24 6 30 -3 5 -3 32 1 60 6
42 9 48 21 38 29 -24 25 1 -5 38 -38 46 -41 66 -5 32 26 -24 26 -23 -6 41 -18
35 -47 84 -65 107 -25 33 -39 71 -65 175 -59 239 -90 294 -245 424 -96 82
-203 144 -246 144 -11 0 -40 5 -64 11 -40 10 -46 15 -61 58 -10 25 -23 53 -31
61 -20 22 -89 40 -178 46 l-80 6 -76 -79z m805 -1441 c15 -30 24 -127 13 -138
-4 -4 -7 -1 -7 7 0 8 -12 38 -26 67 -20 41 -23 55 -14 71 14 27 17 26 34 -7z
m-1529 -372 c3 -5 1 -10 -4 -10 -6 0 -11 5 -11 10 0 6 2 10 4 10 3 0 8 -4 11
-10z m148 -157 c19 -27 54 -72 76 -102 23 -30 39 -56 36 -59 -3 -3 -51 39
-106 94 -98 97 -99 99 -72 105 15 4 29 7 30 8 0 0 17 -20 36 -46z m1857 -253
c0 -5 -4 -10 -10 -10 -5 0 -10 5 -10 10 0 6 5 10 10 10 6 0 10 -4 10 -10z
m-450 -391 c12 -73 26 -339 17 -339 -3 0 -19 36 -36 81 -35 90 -39 147 -20
275 13 86 22 83 39 -17z"/>
</g>
</svg>
