<?xml version="1.0" standalone="no"?>
<!DOCTYPE svg PUBLIC "-//W3C//DTD SVG 20010904//EN"
 "http://www.w3.org/TR/2001/REC-SVG-20010904/DTD/svg10.dtd">
<svg version="1.0" xmlns="http://www.w3.org/2000/svg"
 width="480.000000pt" height="360.000000pt" viewBox="0 0 480.000000 360.000000"
 preserveAspectRatio="xMidYMid meet">
<metadata>
Created by potrace 1.16, written by Peter Selinger 2001-2019
</metadata>
<rect width="1" height="360" fill="#000000"/>
<rect x="479" width="1" height="360" fill="#000000"/>
<rect width="480" height="1" fill="#000000"/>
<rect y="359" width="480" height="1" fill="#000000"/>
<g transform="translate(0.000000,360.000000) scale(0.100000,-0.100000)"
fill="#000000" stroke="none">
<path d="M0 1800 l0 -1800 471 0 471 0 -6 23 c-73 250 158 507 589 654 145 49
441 113 526 113 33 0 35 10 18 75 -38 153 24 297 155 356 88 40 212 11 289
-66 71 -70 82 -102 83 -235 l0 -115 115 -11 c277 -28 575 -108 763 -206 163
-85 300 -207 353 -315 30 -63 43 -189 25 -242 l-11 -31 480 0 479 0 0 1800 0
1800 -2400 0 -2400 0 0 -1800z"/>
<path d="M2520 695 c0 -3 15 -25 33 -49 38 -48 49 -93 68 -272 14 -138 6 -160
-71 -193 -81 -35 -152 -43 -231 -26 -75 15 -115 33 -143 64 -17 18 -18 31 -12
118 11 152 25 235 46 276 25 48 25 51 -5 65 -40 19 -120 14 -240 -13 -148 -34
-223 -59 -330 -112 -152 -76 -245 -157 -291 -256 -34 -74 -34 -174 2 -245 l26
-52 1023 0 1022 0 28 62 c54 121 19 245 -104 361 -136 128 -347 217 -626 262
-88 15 -195 20 -195 10z"/>
</g>
</svg>
