<?xml version="1.0" standalone="no"?>
<!DOCTYPE svg PUBLIC "-//W3C//DTD SVG 20010904//EN"
 "http://www.w3.org/TR/2001/REC-SVG-20010904/DTD/svg10.dtd">
<svg version="1.0" xmlns="http://www.w3.org/2000/svg"
 width="480.000000pt" height="360.000000pt" viewBox="0 0 480.000000 360.000000"
 preserveAspectRatio="xMidYMid meet">
<metadata>
Created by potrace 1.16, written by Peter Selinger 2001-2019
</metadata>
<rect width="1" height="360" fill="#000000"/>
<rect x="479" width="1" height="360" fill="#000000"/>
<rect width="480" height="1" fill="#000000"/>
<rect y="359" width="480" height="1" fill="#000000"/>
<g transform="translate(0.000000,360.000000) scale(0.100000,-0.100000)"
fill="#000000" stroke="none">
<path d="M0 3552 l0 -49 153 -7 c83 -3 199 -13 257 -22 173 -25 221 -28 218
-13 -6 25 33 20 71 -10 21 -17 44 -31 51 -31 7 0 54 -18 106 -41 78 -34 101
-50 147 -101 52 -57 58 -60 114 -67 67 -8 96 -24 174 -97 30 -28 88 -68 127
-88 39 -20 78 -46 86 -59 25 -41 38 -126 35 -230 l-4 -102 81 -21 c136 -36
163 -56 124 -92 -30 -28 -54 -32 -235 -38 -88 -3 -162 -8 -164 -10 -3 -3 6
-26 18 -52 35 -71 40 -96 25 -117 -8 -10 -14 -36 -14 -57 0 -45 -20 -97 -43
-117 -10 -7 -17 -22 -17 -33 0 -11 -13 -36 -30 -55 -16 -18 -30 -39 -30 -46 0
-7 -13 -31 -29 -54 -15 -23 -31 -61 -35 -84 -13 -80 -40 -101 -71 -53 -22 35
-36 20 -64 -63 -11 -35 -31 -78 -44 -95 -14 -18 -28 -44 -32 -58 -4 -14 -14
-32 -22 -42 -27 -31 -42 -123 -53 -318 -16 -319 -20 -292 48 -341 31 -23 87
-72 123 -108 37 -36 81 -77 98 -89 39 -30 67 -86 76 -154 4 -29 13 -71 20 -93
26 -81 28 -154 6 -262 -14 -65 -19 -117 -15 -143 l7 -40 1768 0 1769 0 0 1239
0 1239 -22 27 c-89 106 -83 102 -153 108 -49 3 -75 12 -103 31 -46 31 -57 32
-124 6 -61 -23 -107 -26 -132 -7 -18 13 -46 109 -46 159 0 36 30 54 102 63 48
5 61 11 80 37 80 106 133 150 244 204 115 56 124 64 124 125 0 15 7 32 15 39
12 10 15 42 15 171 l0 159 -2400 0 -2400 0 0 -48z"/>
<path d="M706 1522 c-8 -14 51 -36 92 -35 43 1 65 20 31 27 -60 13 -118 16
-123 8z"/>
</g>
</svg>
