<?xml version="1.0" standalone="no"?>
<!DOCTYPE svg PUBLIC "-//W3C//DTD SVG 20010904//EN"
 "http://www.w3.org/TR/2001/REC-SVG-20010904/DTD/svg10.dtd">
<svg version="1.0" xmlns="http://www.w3.org/2000/svg"
 width="480.000000pt" height="360.000000pt" viewBox="0 0 480.000000 360.000000"
 preserveAspectRatio="xMidYMid meet">
<metadata>
Created by potrace 1.16, written by Peter Selinger 2001-2019
</metadata>
<rect width="1" height="360" fill="#000000"/>
<rect x="479" width="1" height="360" fill="#000000"/>
<rect width="480" height="1" fill="#000000"/>
<rect y="359" width="480" height="1" fill="#000000"/>
<g transform="translate(0.000000,360.000000) scale(0.100000,-0.100000)"
fill="#000000" stroke="none">
<path d="M2206 3590 c85 -34 404 -40 474 -8 33 15 20 16 -230 17 -151 0 -256
-4 -244 -9z"/>
<path d="M3586 3544 c60 -31 159 -84 219 -117 424 -232 458 -245 732 -296 126
-24 185 -26 232 -10 l31 11 0 234 0 234 -662 0 -662 0 110 -56z"/>
<path d="M1965 543 c-439 -26 -653 -62 -718 -120 -43 -40 -1 -245 76 -366 l37
-57 550 0 550 0 42 46 c24 25 53 62 65 82 52 84 96 284 73 327 -24 45 -128 69
-365 85 -144 9 -200 10 -310 3z"/>
</g>
</svg>
