<?xml version="1.0" standalone="no"?>
<!DOCTYPE svg PUBLIC "-//W3C//DTD SVG 20010904//EN"
 "http://www.w3.org/TR/2001/REC-SVG-20010904/DTD/svg10.dtd">
<svg version="1.0" xmlns="http://www.w3.org/2000/svg"
 width="480.000000pt" height="360.000000pt" viewBox="0 0 480.000000 360.000000"
 preserveAspectRatio="xMidYMid meet">
<metadata>
Created by potrace 1.16, written by Peter Selinger 2001-2019
</metadata>
<rect width="1" height="360" fill="#000000"/>
<rect x="479" width="1" height="360" fill="#000000"/>
<rect width="480" height="1" fill="#000000"/>
<rect y="359" width="480" height="1" fill="#000000"/>
<g transform="translate(0.000000,360.000000) scale(0.100000,-0.100000)"
fill="#000000" stroke="none">
<path d="M2086 3528 c56 -158 135 -192 449 -191 315 1 634 49 793 119 52 23
152 112 152 135 0 5 -304 9 -710 9 l-710 0 26 -72z"/>
<path d="M2338 2087 c-75 -52 -119 -125 -126 -211 -4 -46 0 -62 24 -106 33
-61 115 -136 161 -149 92 -26 216 62 263 185 25 67 25 95 3 157 -36 100 -121
167 -212 167 -42 0 -59 -7 -113 -43z"/>
<path d="M4751 106 c-25 -30 -57 -61 -73 -70 -15 -10 -28 -21 -28 -27 0 -5 34
-9 75 -9 l75 0 0 80 c0 44 -1 80 -2 80 -2 0 -23 -24 -47 -54z"/>
</g>
</svg>
