<?xml version="1.0" standalone="no"?>
<!DOCTYPE svg PUBLIC "-//W3C//DTD SVG 20010904//EN"
 "http://www.w3.org/TR/2001/REC-SVG-20010904/DTD/svg10.dtd">
<svg version="1.0" xmlns="http://www.w3.org/2000/svg"
 width="480.000000pt" height="360.000000pt" viewBox="0 0 480.000000 360.000000"
 preserveAspectRatio="xMidYMid meet">
<metadata>
Created by potrace 1.16, written by Peter Selinger 2001-2019
</metadata>
<rect width="1" height="360" fill="#000000"/>
<rect x="479" width="1" height="360" fill="#000000"/>
<rect width="480" height="1" fill="#000000"/>
<rect y="359" width="480" height="1" fill="#000000"/>
<g transform="translate(0.000000,360.000000) scale(0.100000,-0.100000)"
fill="#000000" stroke="none">
<path d="M1565 2913 c-11 -2 -42 -11 -68 -20 -36 -11 -52 -12 -60 -4 -17 17
-49 13 -73 -10 -18 -17 -21 -26 -13 -41 7 -14 4 -35 -11 -82 l-22 -63 23 -52
c23 -54 55 -83 69 -61 6 9 9 9 15 0 4 -7 -1 -24 -12 -38 l-20 -27 50 -62 c28
-35 55 -63 61 -63 5 0 -9 -12 -32 -27 -50 -33 -55 -42 -36 -78 15 -29 11 -45
-11 -45 -15 0 -118 -121 -110 -128 2 -3 -4 -17 -14 -31 -21 -31 -27 -112 -11
-150 6 -15 25 -35 42 -45 l31 -19 -6 -80 c-5 -62 -12 -89 -32 -119 -14 -20
-25 -42 -25 -47 0 -5 -7 -14 -15 -21 -11 -9 -14 -22 -10 -40 4 -18 -3 -51 -21
-95 -19 -46 -23 -69 -16 -74 8 -5 7 -20 -3 -55 -18 -59 -49 -224 -70 -376 -9
-63 -27 -178 -40 -255 -13 -77 -29 -201 -35 -275 -13 -162 -26 -271 -44 -362
l-13 -68 509 0 508 0 -5 23 c-14 61 -77 473 -95 627 -26 219 -104 537 -175
713 -5 12 -2 17 9 17 20 0 21 14 1 30 -9 7 -30 31 -47 52 l-31 39 42 88 41 87
-10 100 c-6 54 -13 104 -15 111 -2 6 5 24 17 38 19 25 19 27 3 39 -17 12 -17
16 -2 64 23 68 22 83 -12 191 -30 94 -31 132 -5 110 10 -8 16 -6 25 9 12 20
13 20 30 -2 18 -21 18 -20 19 27 0 26 5 47 10 47 6 0 10 12 10 27 0 25 1 26
13 8 19 -25 33 -13 41 34 5 32 10 39 22 34 22 -8 13 21 -32 110 -18 37 -34 79
-34 93 0 15 -14 39 -37 63 -21 21 -50 54 -66 74 -38 50 -128 77 -202 60z"/>
</g>
</svg>
