<?xml version="1.0" standalone="no"?>
<!DOCTYPE svg PUBLIC "-//W3C//DTD SVG 20010904//EN"
 "http://www.w3.org/TR/2001/REC-SVG-20010904/DTD/svg10.dtd">
<svg version="1.0" xmlns="http://www.w3.org/2000/svg"
 width="480.000000pt" height="360.000000pt" viewBox="0 0 480.000000 360.000000"
 preserveAspectRatio="xMidYMid meet">
<metadata>
Created by potrace 1.16, written by Peter Selinger 2001-2019
</metadata>
<rect width="1" height="360" fill="#000000"/>
<rect x="479" width="1" height="360" fill="#000000"/>
<rect width="480" height="1" fill="#000000"/>
<rect y="359" width="480" height="1" fill="#000000"/>
<g transform="translate(0.000000,360.000000) scale(0.100000,-0.100000)"
fill="#000000" stroke="none">
<path d="M0 2681 l0 -919 67 20 c262 76 399 130 653 259 97 49 187 89 201 89
17 0 46 -18 85 -53 32 -29 126 -106 209 -172 82 -66 227 -195 321 -286 229
-222 288 -261 446 -293 89 -18 478 -19 478 -1 0 20 99 215 138 272 65 96 174
166 365 234 47 17 47 31 -2 53 -21 10 -58 31 -82 47 -24 16 -47 29 -51 29 -5
0 -8 -24 -9 -52 -1 -62 -12 -101 -21 -76 -4 8 -10 36 -13 62 -9 55 -14 53 -35
-16 -23 -78 -35 -69 -35 25 0 45 -4 91 -8 101 -6 16 -12 13 -37 -27 -32 -52
-56 -64 -40 -21 17 44 12 82 -12 95 -13 7 -46 32 -75 56 -29 25 -57 42 -63 38
-5 -3 -10 0 -10 7 0 7 -9 24 -19 37 -18 23 -18 23 -5 -40 18 -84 17 -142 -1
-209 -24 -89 -43 -172 -50 -224 -5 -35 -9 -45 -16 -35 -6 10 -9 8 -9 -11 0
-18 -3 -21 -9 -12 -7 11 -10 10 -15 -3 -3 -9 -6 -26 -6 -38 -1 -20 -2 -21 -14
-5 -7 10 -16 15 -19 11 -4 -3 -8 23 -9 58 -1 41 -3 49 -5 24 -5 -68 -26 -156
-34 -148 -4 4 -9 19 -11 33 l-5 25 -10 -25 c-12 -28 -18 -19 -26 40 -3 19 -12
51 -21 70 l-16 35 5 -54 c6 -69 -6 -59 -46 40 -60 146 -72 251 -49 413 6 38 9
70 7 72 -1 2 -33 -2 -70 -9 -44 -7 -70 -8 -77 -1 -6 6 27 44 100 109 60 55
111 109 114 120 3 11 20 43 38 70 44 68 70 127 61 136 -4 4 -43 21 -86 38
-121 48 -195 89 -214 117 -17 26 -16 28 22 102 76 144 129 199 253 262 129 65
207 62 246 -11 l19 -35 42 40 c104 103 251 156 431 156 132 0 311 -22 405 -50
82 -24 156 -87 193 -163 36 -73 66 -201 63 -271 l-2 -58 49 -34 c28 -20 60
-34 78 -34 17 0 38 -10 53 -24 24 -24 24 -25 8 -71 -11 -32 -25 -53 -45 -64
-18 -10 -33 -30 -40 -55 -7 -21 -22 -45 -34 -52 -15 -10 -20 -21 -17 -35 3
-11 -2 -28 -13 -40 -18 -20 -18 -22 11 -91 5 -13 3 -18 -8 -18 -12 0 -17 -13
-19 -57 -2 -31 -8 -58 -14 -60 -6 -2 -25 8 -42 22 l-31 26 -6 -38 c-7 -41 -38
-106 -53 -111 -5 -1 -15 32 -22 75 -8 43 -15 71 -16 63 -2 -8 -6 -33 -9 -54
-5 -28 -9 -35 -15 -26 -6 10 -12 0 -21 -33 -13 -52 -29 -62 -29 -19 l-1 27
-19 -23 c-25 -30 -13 -69 19 -64 25 4 25 6 6 -49 -16 -44 -16 -44 12 -66 15
-12 54 -32 88 -44 86 -32 173 -77 216 -111 40 -32 83 -107 145 -252 l37 -89
121 6 c67 3 145 11 174 18 41 10 66 10 116 1 144 -27 309 -6 428 54 l68 34 0
1065 0 1065 -2400 0 -2400 0 0 -919z"/>
<path d="M2401 2458 c-8 -17 -9 -41 -2 -92 11 -76 21 -98 21 -44 0 19 3 63 6
97 7 64 -3 79 -25 39z"/>
<path d="M3451 2194 c0 -11 3 -14 6 -6 3 7 2 16 -1 19 -3 4 -6 -2 -5 -13z"/>
<path d="M787 1911 c-43 -27 -80 -51 -83 -54 -3 -3 2 -17 12 -32 15 -23 16
-30 4 -48 -11 -19 -10 -24 19 -47 38 -32 84 -171 78 -235 -2 -22 -32 -130 -66
-240 -34 -110 -78 -250 -97 -311 -38 -125 -55 -150 -72 -107 -6 16 -30 132
-52 258 -22 127 -47 268 -56 314 -8 46 -17 88 -20 92 -3 5 16 56 41 113 32 71
54 107 71 116 28 15 27 36 -2 34 -10 -1 -64 -22 -119 -47 -55 -26 -150 -61
-211 -79 -106 -32 -111 -34 -121 -66 -9 -29 -8 -35 16 -53 18 -14 35 -50 58
-117 l33 -96 -65 -200 c-35 -111 -84 -267 -109 -348 l-46 -147 0 -306 0 -305
1198 0 1198 0 12 154 c7 84 21 187 32 227 10 41 23 112 29 159 27 230 32 282
30 351 -1 47 4 90 15 117 16 45 15 47 -28 54 -10 2 -24 11 -30 20 -8 13 -5 21
17 38 15 12 32 30 37 40 10 19 5 19 -157 13 -93 -3 -170 -7 -172 -9 -2 -2 7
-14 21 -26 17 -15 36 -53 54 -109 l27 -87 -56 -193 c-110 -382 -129 -444 -142
-458 -20 -20 -30 7 -54 144 -12 66 -26 140 -31 165 -5 25 -21 111 -35 192
l-27 146 33 87 c23 63 41 94 65 113 28 22 31 28 22 48 -13 29 -84 51 -218 69
-25 3 -58 9 -73 11 -25 5 -27 4 -18 -13 5 -10 22 -55 36 -101 l27 -83 -72
-242 c-136 -458 -130 -441 -151 -420 -11 11 -128 611 -129 658 0 11 17 60 37
108 27 63 46 93 65 105 17 10 28 25 28 38 0 12 3 29 6 37 9 24 -165 219 -248
277 -70 49 -98 58 -64 21 10 -11 31 -61 47 -112 l29 -92 -101 -331 c-55 -182
-106 -337 -114 -345 -12 -13 -15 -11 -23 10 -5 13 -28 130 -51 259 -23 129
-49 267 -57 307 -8 40 -14 84 -14 98 0 42 61 177 97 214 18 19 33 41 33 51 0
9 5 21 11 27 7 7 -2 20 -33 44 -24 18 -78 66 -120 106 -50 47 -86 73 -100 73
-13 0 -58 -22 -101 -49z"/>
<path d="M2382 1885 c0 -16 2 -22 5 -12 2 9 2 23 0 30 -3 6 -5 -1 -5 -18z"/>
<path d="M2371 1714 c0 -11 3 -14 6 -6 3 7 2 16 -1 19 -3 4 -6 -2 -5 -13z"/>
<path d="M4655 1300 c-115 -17 -165 -32 -180 -52 -13 -19 -12 -24 13 -52 15
-17 42 -70 61 -118 l33 -87 -82 -298 c-45 -164 -88 -313 -96 -332 -13 -30 -16
-33 -29 -20 -13 13 -145 617 -145 666 0 36 69 176 98 200 15 11 25 23 22 25
-3 1 -96 2 -207 0 l-203 -3 0 -28 c0 -15 8 -35 18 -44 10 -9 31 -57 47 -106
l28 -89 -75 -273 -75 -274 14 -80 c10 -58 13 -116 8 -207 l-6 -128 450 0 451
0 0 291 0 291 -60 272 -60 272 39 92 39 92 -26 -1 c-15 -1 -49 -5 -77 -9z"/>
</g>
</svg>
