<?xml version="1.0" standalone="no"?>
<!DOCTYPE svg PUBLIC "-//W3C//DTD SVG 20010904//EN"
 "http://www.w3.org/TR/2001/REC-SVG-20010904/DTD/svg10.dtd">
<svg version="1.0" xmlns="http://www.w3.org/2000/svg"
 width="480.000000pt" height="360.000000pt" viewBox="0 0 480.000000 360.000000"
 preserveAspectRatio="xMidYMid meet">
<metadata>
Created by potrace 1.16, written by Peter Selinger 2001-2019
</metadata>
<rect width="1" height="360" fill="#000000"/>
<rect x="479" width="1" height="360" fill="#000000"/>
<rect width="480" height="1" fill="#000000"/>
<rect y="359" width="480" height="1" fill="#000000"/>
<g transform="translate(0.000000,360.000000) scale(0.100000,-0.100000)"
fill="#000000" stroke="none">
<path d="M3901 2998 c-45 -72 -119 -442 -210 -1053 -46 -308 -122 -814 -132
-880 -6 -38 -26 -153 -46 -255 -19 -102 -46 -243 -59 -315 -25 -130 -56 -302
-74 -403 -5 -30 -12 -62 -15 -73 -6 -18 2 -19 188 -19 l195 0 6 37 c9 60 44
423 71 738 13 160 33 367 44 460 24 193 34 289 56 495 9 80 22 204 30 275 37
321 70 772 61 810 -4 17 -12 25 -23 23 -21 -4 -43 36 -43 77 0 37 -18 105 -28
105 -4 0 -13 -10 -21 -22z"/>
</g>
</svg>
