<?xml version="1.0" standalone="no"?>
<!DOCTYPE svg PUBLIC "-//W3C//DTD SVG 20010904//EN"
 "http://www.w3.org/TR/2001/REC-SVG-20010904/DTD/svg10.dtd">
<svg version="1.0" xmlns="http://www.w3.org/2000/svg"
 width="480.000000pt" height="360.000000pt" viewBox="0 0 480.000000 360.000000"
 preserveAspectRatio="xMidYMid meet">
<metadata>
Created by potrace 1.16, written by Peter Selinger 2001-2019
</metadata>
<rect width="1" height="360" fill="#000000"/>
<rect x="479" width="1" height="360" fill="#000000"/>
<rect width="480" height="1" fill="#000000"/>
<rect y="359" width="480" height="1" fill="#000000"/>
<g transform="translate(0.000000,360.000000) scale(0.100000,-0.100000)"
fill="#000000" stroke="none">
<path d="M2255 2505 c-250 -33 -468 -114 -691 -255 -425 -270 -668 -392 -885
-444 -56 -14 -355 -56 -398 -56 -43 0 15 -13 159 -36 202 -32 319 -69 554
-178 263 -123 662 -300 806 -358 251 -102 503 -146 770 -135 170 7 278 25 415
69 115 37 405 181 580 288 254 155 282 172 360 209 163 78 286 106 512 118 68
3 120 9 116 13 -4 4 -61 17 -125 29 -171 32 -259 65 -566 215 -902 438 -1030
491 -1259 521 -129 17 -214 17 -348 0z m285 -251 c252 -57 424 -321 380 -583
-47 -282 -330 -478 -602 -417 -241 54 -398 232 -415 470 -10 143 37 273 137
379 134 143 307 195 500 151z"/>
</g>
</svg>
