<?xml version="1.0" standalone="no"?>
<!DOCTYPE svg PUBLIC "-//W3C//DTD SVG 20010904//EN"
 "http://www.w3.org/TR/2001/REC-SVG-20010904/DTD/svg10.dtd">
<svg version="1.0" xmlns="http://www.w3.org/2000/svg"
 width="480.000000pt" height="360.000000pt" viewBox="0 0 480.000000 360.000000"
 preserveAspectRatio="xMidYMid meet">
<metadata>
Created by potrace 1.16, written by Peter Selinger 2001-2019
</metadata>
<rect width="1" height="360" fill="#000000"/>
<rect x="479" width="1" height="360" fill="#000000"/>
<rect width="480" height="1" fill="#000000"/>
<rect y="359" width="480" height="1" fill="#000000"/>
<g transform="translate(0.000000,360.000000) scale(0.100000,-0.100000)"
fill="#000000" stroke="none">
<path d="M0 1800 l0 -1800 233 0 c166 0 236 3 245 12 9 9 17 9 36 -1 13 -7 29
-12 34 -10 16 6 224 269 262 331 23 38 26 83 7 91 -7 3 -19 30 -26 62 -11 49
-11 61 4 92 11 22 15 48 12 68 -3 20 0 41 7 51 11 15 11 24 0 51 -18 42 -18
63 0 63 24 0 31 21 31 89 0 51 4 65 18 72 9 5 24 12 33 17 8 4 27 39 41 77 21
54 27 90 28 158 l1 87 49 50 c27 28 53 50 58 50 26 0 177 53 177 62 0 6 -7 7
-17 3 -10 -5 -41 -9 -68 -10 -28 -1 -69 -12 -92 -24 -70 -35 -98 -29 -220 49
l-52 33 -71 -58 c-38 -31 -70 -61 -70 -66 0 -5 -5 -9 -11 -9 -16 0 -1 39 31
86 54 76 149 388 189 616 12 64 21 119 21 121 0 2 -12 2 -27 0 -19 -3 -63 13
-138 50 -60 29 -122 57 -137 61 -30 7 -37 33 -16 54 9 9 6 28 -13 82 -29 85
-23 94 61 85 47 -5 60 -2 90 18 19 13 60 34 90 46 l55 23 1 136 c1 121 4 147
28 222 61 185 149 301 280 366 56 27 95 38 186 50 160 21 154 19 185 65 15 23
45 61 67 85 l41 44 -822 0 -821 0 0 -1800z"/>
<path d="M1716 3557 c22 -24 53 -64 71 -89 27 -39 37 -47 75 -52 193 -29 341
-110 454 -247 123 -150 183 -365 141 -507 -21 -70 -4 -124 77 -237 l36 -49
-37 -38 c-20 -21 -45 -38 -55 -38 -10 0 -18 -1 -18 -2 0 -2 7 -70 15 -151 l14
-149 55 -74 c31 -40 56 -76 56 -79 0 -4 -13 3 -29 14 -16 12 -32 21 -36 21 -4
0 9 -29 29 -64 20 -35 36 -67 36 -71 0 -4 -16 3 -36 16 l-36 22 6 -74 6 -74
-20 40 c-18 37 -20 38 -15 10 2 -16 7 -66 11 -110 4 -51 13 -91 25 -111 19
-32 27 -114 10 -114 -4 0 -16 19 -25 43 -9 23 -26 55 -39 70 l-22 28 -87 -34
-88 -33 120 -57 c66 -31 124 -65 129 -76 6 -11 11 -38 11 -60 0 -38 -7 -46
-32 -42 -13 2 -9 -9 11 -37 30 -43 51 -99 81 -217 20 -80 32 -109 41 -106 24
7 79 13 79 9 0 -2 -9 -22 -19 -44 -10 -21 -25 -67 -31 -102 -11 -54 -10 -68 4
-105 20 -52 76 -115 116 -129 25 -8 28 -13 19 -24 -6 -8 -20 -14 -30 -14 -12
0 -19 -7 -19 -19 0 -10 -9 -25 -20 -32 -18 -12 -19 -19 -11 -44 5 -16 30 -96
56 -178 l46 -147 979 0 980 0 0 1800 0 1800 -1561 0 -1562 0 39 -43z m2935
-334 c11 -29 5 -73 -10 -73 -12 0 -51 49 -51 64 0 16 21 36 37 36 8 0 18 -12
24 -27z m-693 -565 c18 -18 15 -38 -6 -38 -26 0 -56 25 -48 38 9 15 39 15 54
0z m-1043 -668 c-3 -5 -12 -10 -18 -10 -7 0 -6 4 3 10 19 12 23 12 15 0z m-95
-110 c0 -5 -4 -10 -10 -10 -5 0 -10 5 -10 10 0 6 5 10 10 10 6 0 10 -4 10 -10z
m257 -737 c5 -14 -40 -28 -57 -18 -8 5 -8 11 1 21 14 17 51 15 56 -3z"/>
<path d="M1274 1486 c-10 -8 -17 -17 -14 -20 7 -6 85 16 96 27 14 13 -62 7
-82 -7z"/>
<path d="M2335 10 c-3 -5 -1 -10 4 -10 6 0 11 5 11 10 0 6 -2 10 -4 10 -3 0
-8 -4 -11 -10z"/>
</g>
</svg>
