<?xml version="1.0" standalone="no"?>
<!DOCTYPE svg PUBLIC "-//W3C//DTD SVG 20010904//EN"
 "http://www.w3.org/TR/2001/REC-SVG-20010904/DTD/svg10.dtd">
<svg version="1.0" xmlns="http://www.w3.org/2000/svg"
 width="480.000000pt" height="360.000000pt" viewBox="0 0 480.000000 360.000000"
 preserveAspectRatio="xMidYMid meet">
<metadata>
Created by potrace 1.16, written by Peter Selinger 2001-2019
</metadata>
<rect width="1" height="360" fill="#000000"/>
<rect x="479" width="1" height="360" fill="#000000"/>
<rect width="480" height="1" fill="#000000"/>
<rect y="359" width="480" height="1" fill="#000000"/>
<g transform="translate(0.000000,360.000000) scale(0.100000,-0.100000)"
fill="#000000" stroke="none">
<path d="M0 1800 l0 -1800 925 0 925 0 -6 26 c-4 14 -26 44 -50 66 -104 96
-114 240 -23 334 22 23 29 38 25 52 -18 56 -15 90 10 128 l26 38 -26 23 c-14
12 -26 29 -26 38 0 9 -7 27 -16 41 -14 20 -15 29 -5 51 10 22 9 29 -9 48 -24
25 -25 43 -5 69 8 11 15 33 15 48 0 46 26 86 57 90 26 3 29 8 34 54 8 65 21
88 57 103 29 12 29 13 36 118 3 58 6 155 6 215 0 85 3 108 14 108 24 0 34 23
55 119 11 51 34 118 51 148 l30 56 -26 161 c-14 89 -43 269 -64 401 -67 418
-64 389 -46 489 19 99 39 156 55 156 14 0 74 -82 101 -135 19 -39 37 -195 81
-680 5 -60 14 -148 19 -195 5 -47 10 -90 10 -95 0 -6 14 -16 31 -22 36 -14 37
-46 1 -51 -28 -4 -28 -5 7 -39 45 -46 52 -142 15 -216 -13 -23 -12 -43 2 -147
9 -66 14 -126 11 -134 -10 -26 -67 -49 -92 -38 -13 6 -26 8 -29 5 -3 -4 -6
-35 -6 -71 l0 -64 40 32 c41 33 69 40 106 27 20 -7 21 -3 27 90 4 54 7 560 7
1126 l0 1027 -1175 0 -1175 0 0 -1800z"/>
<path d="M2340 670 l0 -670 243 0 242 1 -31 27 c-18 15 -44 37 -58 49 -24 20
-26 28 -26 99 0 79 -13 118 -80 246 -11 20 -20 45 -19 55 0 16 2 15 16 -5 22
-31 30 -28 37 18 7 42 14 48 34 28 16 -16 15 -9 -3 42 -14 40 -14 42 6 47 20
6 20 6 -1 28 l-21 23 30 60 c18 35 39 63 51 67 12 4 19 12 16 18 -23 57 -29
89 -16 97 11 7 9 19 -9 64 -13 30 -33 66 -46 80 -13 14 -25 44 -29 70 -4 27
-16 55 -28 66 -21 19 -96 40 -146 40 -20 0 -42 14 -77 51 -94 95 -85 159 -85
-601z m270 -305 c0 -8 -11 -11 -27 -8 -52 9 -53 10 -41 43 l10 31 29 -27 c16
-15 29 -33 29 -39z"/>
<path d="M1791 375 c-42 -48 -58 -104 -41 -145 12 -28 63 -80 78 -80 11 0 13
248 3 254 -5 3 -23 -10 -40 -29z"/>
<path d="M1860 254 c0 -60 4 -114 8 -120 4 -6 18 -17 31 -24 23 -12 23 -11 18
21 -3 19 -9 71 -13 116 -5 62 -11 86 -25 99 -18 17 -19 14 -19 -92z"/>
<path d="M1933 225 c0 -22 2 -30 4 -17 2 12 2 30 0 40 -3 9 -5 -1 -4 -23z"/>
<path d="M1870 14 c0 -9 11 -14 31 -14 35 0 31 15 -6 22 -17 4 -25 1 -25 -8z"/>
</g>
</svg>
