<?xml version="1.0" standalone="no"?>
<!DOCTYPE svg PUBLIC "-//W3C//DTD SVG 20010904//EN"
 "http://www.w3.org/TR/2001/REC-SVG-20010904/DTD/svg10.dtd">
<svg version="1.0" xmlns="http://www.w3.org/2000/svg"
 width="480.000000pt" height="360.000000pt" viewBox="0 0 480.000000 360.000000"
 preserveAspectRatio="xMidYMid meet">
<metadata>
Created by potrace 1.16, written by Peter Selinger 2001-2019
</metadata>
<rect width="1" height="360" fill="#000000"/>
<rect x="479" width="1" height="360" fill="#000000"/>
<rect width="480" height="1" fill="#000000"/>
<rect y="359" width="480" height="1" fill="#000000"/>
<g transform="translate(0.000000,360.000000) scale(0.100000,-0.100000)"
fill="#000000" stroke="none">
<path d="M0 1800 l0 -1800 2400 0 2400 0 0 1800 0 1800 -2400 0 -2400 0 0
-1800z m2276 243 c49 -139 79 -166 149 -143 27 9 34 15 26 23 -17 17 -13 25
11 29 17 2 28 18 47 68 13 36 26 67 28 70 9 10 21 -26 28 -79 13 -108 39 -138
111 -129 25 3 29 7 26 31 -3 25 0 28 17 22 17 -5 26 5 57 59 21 36 42 62 47
59 5 -3 6 -41 2 -88 -5 -55 -3 -89 4 -103 26 -48 91 -53 91 -6 0 17 6 24 20
24 10 0 32 16 47 36 15 20 35 46 45 57 27 36 31 12 9 -55 -27 -82 -30 -143 -9
-165 16 -15 22 -10 92 62 42 43 78 76 81 73 3 -2 -15 -45 -40 -94 -24 -49 -47
-102 -51 -119 -6 -29 -4 -27 53 28 32 31 62 57 66 57 4 0 -9 -25 -28 -55 -19
-30 -35 -59 -35 -65 0 -6 -7 -13 -15 -17 -9 -3 -24 -22 -35 -43 -10 -20 -30
-44 -43 -53 -21 -13 -57 -89 -57 -118 0 -4 30 -17 68 -30 218 -72 394 -195
457 -320 79 -155 14 -320 -175 -447 -93 -63 -138 -85 -259 -129 -208 -75 -443
-112 -719 -113 -505 -1 -953 148 -1117 371 -171 232 -18 473 398 629 l89 33
-7 36 c-4 20 -12 43 -18 52 -7 9 -36 51 -65 92 l-52 77 30 -6 c28 -6 30 -4 30
23 0 15 -17 62 -37 103 -21 41 -39 80 -41 85 -3 6 25 -21 61 -60 71 -76 85
-79 116 -23 13 22 12 34 -13 112 -15 49 -25 90 -23 92 2 2 21 -21 42 -51 43
-62 98 -115 121 -115 9 0 29 14 46 30 l31 31 -7 89 c-4 50 -5 90 -2 90 2 0 19
-26 37 -57 60 -108 75 -123 123 -123 48 0 72 16 54 37 -6 7 -8 17 -4 20 4 4
11 1 16 -7 12 -19 25 15 34 89 11 86 18 90 42 24z m-316 -158 c0 -8 -4 -15 -9
-15 -13 0 -22 16 -14 24 11 11 23 6 23 -9z m-210 -81 c0 -9 -5 -14 -12 -12
-18 6 -21 28 -4 28 9 0 16 -7 16 -16z m-133 -99 c3 -9 3 -19 -1 -22 -8 -9 -37
18 -30 28 8 14 24 11 31 -6z m-17 -111 c0 -14 -3 -14 -15 -4 -8 7 -15 14 -15
16 0 2 7 4 15 4 8 0 15 -7 15 -16z m108 -85 c-2 -6 -8 -10 -13 -10 -5 0 -11 4
-13 10 -2 6 4 11 13 11 9 0 15 -5 13 -11z"/>
<path d="M1695 1135 c-22 -25 -45 -58 -52 -73 -17 -37 -16 -126 1 -167 32 -75
161 -171 298 -221 249 -91 604 -95 869 -10 215 69 349 192 349 321 0 43 -42
124 -84 164 l-36 35 0 -30 c0 -16 7 -54 15 -84 20 -73 19 -104 -4 -148 -131
-252 -772 -337 -1145 -151 -167 83 -212 167 -171 319 16 61 19 90 7 90 -4 0
-25 -20 -47 -45z"/>
</g>
</svg>
