<?xml version="1.0" standalone="no"?>
<!DOCTYPE svg PUBLIC "-//W3C//DTD SVG 20010904//EN"
 "http://www.w3.org/TR/2001/REC-SVG-20010904/DTD/svg10.dtd">
<svg version="1.0" xmlns="http://www.w3.org/2000/svg"
 width="480.000000pt" height="360.000000pt" viewBox="0 0 480.000000 360.000000"
 preserveAspectRatio="xMidYMid meet">
<metadata>
Created by potrace 1.16, written by Peter Selinger 2001-2019
</metadata>
<rect width="1" height="360" fill="#000000"/>
<rect x="479" width="1" height="360" fill="#000000"/>
<rect width="480" height="1" fill="#000000"/>
<rect y="359" width="480" height="1" fill="#000000"/>
<g transform="translate(0.000000,360.000000) scale(0.100000,-0.100000)"
fill="#000000" stroke="none">
<path d="M0 1800 l0 -1800 1075 0 1075 0 0 93 c0 50 -5 144 -10 207 -9 110
-17 145 -84 359 -54 174 -50 286 16 420 18 38 31 78 29 94 -1 17 12 56 33 97
20 38 36 72 36 76 0 3 -11 3 -25 0 -39 -10 -29 9 26 50 61 45 94 107 85 159
-6 30 -1 38 62 103 l69 71 7 83 c4 46 9 93 13 106 4 17 1 22 -14 22 -23 0 -48
25 -57 56 -4 12 -15 29 -26 39 -11 10 -20 23 -20 30 0 7 -9 20 -19 29 -11 10
-22 29 -26 43 -3 14 -19 36 -35 50 -35 29 -37 44 -9 61 11 7 27 29 35 49 14
31 14 38 1 50 -13 13 -14 12 -10 -11 5 -26 -10 -36 -22 -16 -4 6 -10 8 -15 5
-5 -3 -12 0 -16 6 -5 8 -9 7 -14 -2 -6 -9 -12 -2 -18 22 l-10 34 -1 -33 c-1
-46 -16 -32 -43 40 -19 54 -23 59 -28 38 -6 -25 -6 -25 -14 -3 -4 12 -11 51
-15 85 l-8 63 -17 -39 c-25 -55 -30 -38 -11 35 39 156 137 338 210 394 55 41
190 100 290 126 73 19 114 24 220 23 197 -1 253 -26 416 -186 92 -91 96 -98
127 -184 93 -266 116 -496 92 -942 -8 -155 -6 -205 17 -455 18 -193 27 -362
29 -537 2 -140 6 -380 10 -532 l7 -278 694 0 693 0 0 1800 0 1800 -2400 0
-2400 0 0 -1800z"/>
</g>
</svg>
