<?xml version="1.0" standalone="no"?>
<!DOCTYPE svg PUBLIC "-//W3C//DTD SVG 20010904//EN"
 "http://www.w3.org/TR/2001/REC-SVG-20010904/DTD/svg10.dtd">
<svg version="1.0" xmlns="http://www.w3.org/2000/svg"
 width="480.000000pt" height="360.000000pt" viewBox="0 0 480.000000 360.000000"
 preserveAspectRatio="xMidYMid meet">
<metadata>
Created by potrace 1.16, written by Peter Selinger 2001-2019
</metadata>
<rect width="1" height="360" fill="#000000"/>
<rect x="479" width="1" height="360" fill="#000000"/>
<rect width="480" height="1" fill="#000000"/>
<rect y="359" width="480" height="1" fill="#000000"/>
<g transform="translate(0.000000,360.000000) scale(0.100000,-0.100000)"
fill="#000000" stroke="none">
<path d="M0 1800 l0 -1800 1215 0 1215 0 64 128 c35 70 76 144 90 165 67 96
76 110 76 119 0 5 -5 6 -11 3 -20 -13 -68 17 -86 53 -16 33 -18 60 -15 237 4
279 -5 460 -27 486 -13 16 -35 22 -116 30 -117 12 -143 23 -219 90 -71 64 -85
91 -92 182 l-7 73 44 44 c24 23 54 52 66 63 21 19 21 23 8 44 -8 12 -15 30
-15 40 1 15 5 13 23 -9 28 -34 34 -35 59 -3 31 40 77 58 145 59 35 1 63 3 63
6 -1 13 -18 29 -48 44 -46 24 -49 41 -13 81 17 20 31 38 31 40 0 7 -92 75
-101 75 -13 0 -11 -34 3 -49 11 -11 9 -12 -12 -7 -14 4 -33 9 -42 10 -10 1
-27 11 -39 22 -21 18 -22 18 -16 1 13 -35 -17 -12 -50 37 -27 42 -40 51 -99
72 -37 13 -70 28 -74 34 -8 13 -128 60 -154 60 -21 0 -121 34 -186 64 -48 22
-94 62 -86 74 10 17 -29 33 -62 26 -34 -7 -64 7 -106 48 -19 17 -41 28 -58 28
-39 0 -35 11 15 40 l42 25 -31 3 c-17 2 -42 14 -54 27 -21 22 -21 25 -6 31 13
5 15 14 11 36 -6 24 1 42 39 99 49 73 70 88 142 96 28 4 55 -1 87 -15 l47 -21
-14 27 c-47 95 -12 162 114 220 81 37 158 46 267 32 108 -13 160 -30 170 -56
8 -22 -15 -63 -87 -154 -49 -60 -60 -81 -60 -111 l0 -37 62 20 c35 10 104 23
155 28 107 10 124 17 154 67 61 102 147 208 215 267 65 55 90 69 177 100 126
43 287 61 474 53 203 -9 298 -46 508 -201 156 -116 214 -150 411 -245 56 -27
119 -60 140 -75 l38 -25 -40 -17 c-21 -9 -79 -22 -127 -27 -138 -17 -186 -5
-417 99 -75 34 -96 39 -175 42 -131 5 -126 12 -113 -178 6 -85 13 -158 17
-162 5 -6 90 -24 526 -113 94 -19 267 -71 310 -93 53 -27 144 -102 170 -140
34 -50 32 -70 -10 -88 -38 -15 -42 -23 -22 -43 9 -10 9 -15 0 -18 -7 -2 -9
-11 -6 -19 3 -10 -2 -14 -19 -14 -26 0 -48 -17 -48 -37 0 -19 -35 -51 -62 -55
-20 -4 -18 -6 17 -22 95 -42 255 -105 315 -124 36 -11 73 -23 83 -27 16 -7 17
43 17 964 l0 971 -2400 0 -2400 0 0 -1800z"/>
<path d="M1921 2676 c2 -2 18 -6 34 -10 22 -5 26 -4 15 4 -14 9 -59 15 -49 6z"/>
<path d="M2737 1677 c-32 -16 -70 -30 -83 -31 -19 -1 -22 -5 -17 -21 28 -89
32 -119 19 -150 -8 -18 -19 -36 -25 -40 -7 -4 3 -22 28 -51 22 -25 50 -70 62
-100 13 -30 26 -54 30 -54 4 0 19 15 34 32 26 30 27 37 21 98 -6 64 -5 67 25
96 36 34 34 54 -13 128 -26 40 -29 51 -20 67 6 10 8 26 4 37 -7 17 -11 16 -65
-11z"/>
<path d="M4590 1636 c25 -14 70 -27 100 -31 30 -3 67 -9 83 -11 23 -5 27 -2
27 19 0 23 -3 24 -92 31 -51 3 -109 9 -128 12 l-35 5 45 -25z"/>
<path d="M4762 1561 c-11 -7 -10 -10 3 -15 26 -10 35 -7 35 9 0 17 -18 19 -38
6z"/>
<path d="M3828 1285 c49 -52 55 -76 12 -45 l-30 21 0 -23 c0 -13 -4 -18 -8
-13 -13 20 -99 85 -111 85 -17 0 -13 -18 9 -50 41 -57 227 -439 257 -525 26
-80 34 -92 64 -107 19 -9 37 -17 40 -18 3 0 9 43 13 94 15 223 77 304 256 336
l65 12 26 -30 c18 -19 31 -52 39 -89 14 -69 31 -113 45 -113 5 0 37 9 71 19
34 11 98 25 142 32 l82 12 0 137 0 136 -44 22 c-63 32 -77 26 -31 -14 28 -25
40 -44 41 -65 2 -29 1 -29 -20 -15 -31 22 -127 72 -154 81 -22 6 -23 5 -12
-16 l12 -22 -29 21 c-16 12 -36 28 -43 37 -13 16 -62 45 -76 45 -4 0 2 -10 13
-22 17 -19 20 -31 15 -62 l-7 -39 -57 47 c-63 51 -65 52 -70 31 -2 -12 -15 -7
-53 21 -63 45 -195 125 -195 119 0 -3 34 -28 76 -55 96 -62 214 -152 214 -162
0 -18 -41 -5 -122 41 -48 27 -114 57 -145 66 -32 9 -110 36 -173 60 -63 23
-124 46 -134 49 -12 4 -4 -9 22 -39z"/>
<path d="M2957 478 c-47 -206 -85 -297 -173 -421 -19 -26 -34 -49 -34 -52 0
-3 106 -5 235 -5 l234 0 18 33 c10 17 25 50 34 72 l17 40 -50 98 c-28 53 -86
143 -130 200 -44 56 -87 114 -96 130 -9 15 -19 27 -22 27 -3 0 -18 -55 -33
-122z"/>
<path d="M4245 189 c8 -12 146 -82 151 -76 4 4 -81 53 -129 74 -15 7 -25 8
-22 2z"/>
</g>
</svg>
