<?xml version="1.0" standalone="no"?>
<!DOCTYPE svg PUBLIC "-//W3C//DTD SVG 20010904//EN"
 "http://www.w3.org/TR/2001/REC-SVG-20010904/DTD/svg10.dtd">
<svg version="1.0" xmlns="http://www.w3.org/2000/svg"
 width="480.000000pt" height="360.000000pt" viewBox="0 0 480.000000 360.000000"
 preserveAspectRatio="xMidYMid meet">
<metadata>
Created by potrace 1.16, written by Peter Selinger 2001-2019
</metadata>
<rect width="1" height="360" fill="#000000"/>
<rect x="479" width="1" height="360" fill="#000000"/>
<rect width="480" height="1" fill="#000000"/>
<rect y="359" width="480" height="1" fill="#000000"/>
<g transform="translate(0.000000,360.000000) scale(0.100000,-0.100000)"
fill="#000000" stroke="none">
<path d="M530 3586 c0 -25 29 -85 58 -118 41 -48 60 -96 72 -177 11 -81 30
-125 61 -142 28 -15 46 3 70 73 28 79 33 157 19 273 l-13 105 -133 0 c-107 0
-134 -3 -134 -14z"/>
<path d="M1890 3586 c0 -21 46 -136 75 -188 14 -26 36 -50 48 -54 26 -7 83
-65 92 -93 6 -21 20 -124 35 -274 12 -116 27 -156 68 -185 20 -15 32 -34 37
-59 7 -37 11 -203 6 -253 -2 -14 2 -43 7 -65 10 -37 9 -42 -15 -67 -20 -21
-26 -38 -26 -70 0 -64 16 -88 59 -88 21 0 47 -9 61 -20 36 -28 79 -26 99 5 14
22 15 32 5 66 -12 40 -10 51 16 79 8 8 20 23 27 34 10 14 19 17 44 12 28 -7
32 -12 38 -53 4 -27 1 -67 -6 -98 -18 -75 3 -210 63 -410 12 -42 41 -74 67
-75 46 0 86 21 108 60 19 34 28 40 56 40 45 0 71 30 70 81 -1 21 -8 49 -16 61
-41 65 -98 270 -98 352 0 40 -48 181 -68 199 -10 9 -38 23 -62 32 -25 9 -54
25 -67 37 -25 24 -57 18 -50 -9 3 -10 8 -43 12 -75 7 -61 -2 -76 -34 -59 -15
8 -22 6 -33 -11 -17 -25 -44 -16 -32 11 4 9 6 44 5 78 -1 37 3 73 12 90 9 17
11 37 6 53 -4 14 -7 64 -8 112 -1 105 -12 138 -44 138 -18 0 -39 21 -89 88
-82 111 -76 97 -88 183 -6 41 -18 89 -26 107 -21 45 -39 135 -31 155 4 10 18
22 32 27 28 11 31 17 38 78 l5 42 -199 0 c-163 0 -199 -3 -199 -14z"/>
<path d="M4120 3491 c0 -126 18 -196 60 -236 33 -31 61 -28 78 10 6 14 16 25
22 25 17 0 11 -43 -10 -75 -40 -61 -23 -149 62 -310 11 -22 29 -56 39 -76 26
-53 44 -63 122 -70 64 -6 74 -10 98 -38 24 -29 30 -31 67 -25 38 6 41 5 58
-27 24 -46 22 -131 -6 -213 -17 -53 -32 -76 -81 -122 -75 -74 -105 -119 -113
-170 -3 -23 -20 -73 -38 -110 l-31 -69 2 -190 c3 -185 2 -193 -24 -256 -14
-36 -43 -84 -64 -107 -35 -37 -39 -46 -45 -118 -9 -100 -22 -128 -95 -216 -34
-39 -61 -77 -61 -83 0 -24 -40 -92 -81 -139 -27 -31 -63 -58 -97 -73 -70 -31
-64 -48 14 -43 89 7 158 2 162 -9 2 -6 17 -11 34 -11 17 0 47 -9 67 -21 31
-17 40 -31 55 -77 16 -54 16 -57 -2 -81 -10 -15 -35 -30 -54 -35 -34 -9 -36
-12 -40 -58 -5 -46 -11 -56 -79 -125 -83 -84 -163 -133 -259 -159 -36 -9 -68
-20 -73 -24 -4 -3 -4 -41 -1 -83 l7 -77 493 0 494 0 0 1800 0 1800 -340 0
-340 0 0 -109z"/>
<path d="M0 1616 l0 -1616 415 0 415 0 0 39 c0 22 4 50 9 63 4 13 11 39 15 59
l6 36 -66 28 c-160 68 -233 146 -294 314 -18 51 -38 91 -45 91 -23 0 -75 51
-75 72 0 36 23 102 43 125 22 25 58 38 129 48 26 3 49 9 51 13 2 4 0 21 -4 37
-8 29 -40 68 -91 111 -78 66 -179 288 -180 394 0 45 -18 86 -47 106 -31 23
-93 123 -106 175 -8 28 -19 57 -24 62 -6 6 -11 18 -11 27 0 9 -14 26 -31 39
l-30 23 4 221 c3 122 7 245 10 272 2 28 8 89 12 136 l8 87 58 56 c41 40 62 54
75 49 31 -12 44 24 44 121 -1 139 -10 172 -61 217 -29 25 -54 38 -73 39 -47 0
-91 35 -115 89 -11 28 -21 54 -21 60 0 5 -4 13 -10 16 -7 4 -10 -535 -10
-1609z"/>
<path d="M2095 2130 c-3 -5 -3 -20 1 -33 4 -12 7 -48 5 -79 -2 -45 1 -58 16
-66 24 -14 47 0 63 38 11 27 10 36 -16 88 -28 54 -55 75 -69 52z"/>
<path d="M3020 830 c-13 -40 -13 -48 14 -255 8 -60 22 -204 31 -320 18 -240
21 -255 39 -255 10 0 15 28 19 107 3 60 11 125 17 147 13 42 110 206 147 247
30 33 29 55 -5 73 -41 21 -63 50 -107 138 -32 66 -50 89 -91 119 l-51 38 -13
-39z"/>
<path d="M1650 809 c-19 -3 -64 -20 -100 -38 l-65 -31 -170 0 c-138 0 -175 -3
-193 -16 -27 -19 -29 -64 -5 -105 15 -26 21 -28 53 -23 60 10 64 13 90 54 14
22 29 39 35 37 5 -2 14 -41 18 -88 12 -119 12 -121 65 -155 53 -34 106 -106
122 -165 6 -21 14 -79 19 -129 5 -50 11 -93 13 -96 3 -2 17 0 32 6 15 5 37 10
50 10 54 0 58 12 77 236 9 115 23 259 30 320 13 123 8 180 -19 186 -9 2 -33 1
-52 -3z"/>
<path d="M3518 651 c-33 -39 -35 -50 -7 -48 24 2 42 29 37 60 -3 20 -5 19 -30
-12z"/>
</g>
</svg>
