<?xml version="1.0" standalone="no"?>
<!DOCTYPE svg PUBLIC "-//W3C//DTD SVG 20010904//EN"
 "http://www.w3.org/TR/2001/REC-SVG-20010904/DTD/svg10.dtd">
<svg version="1.0" xmlns="http://www.w3.org/2000/svg"
 width="480.000000pt" height="360.000000pt" viewBox="0 0 480.000000 360.000000"
 preserveAspectRatio="xMidYMid meet">
<metadata>
Created by potrace 1.16, written by Peter Selinger 2001-2019
</metadata>
<rect width="1" height="360" fill="#000000"/>
<rect x="479" width="1" height="360" fill="#000000"/>
<rect width="480" height="1" fill="#000000"/>
<rect y="359" width="480" height="1" fill="#000000"/>
<g transform="translate(0.000000,360.000000) scale(0.100000,-0.100000)"
fill="#000000" stroke="none">
<path d="M0 1800 l0 -1800 870 0 c479 0 870 2 870 4 0 59 107 424 166 565 20
47 51 127 70 176 l34 90 -26 115 c-14 63 -30 125 -35 138 l-9 22 -40 -25 c-67
-42 -83 -31 -96 63 l-7 52 36 0 c20 0 47 -4 61 -10 15 -5 28 -6 31 0 5 8 -15
230 -22 239 -2 2 -20 -14 -41 -37 -37 -40 -42 -42 -95 -42 -80 0 -105 25 -161
166 -24 61 -64 141 -89 177 -50 72 -65 123 -48 155 16 30 14 50 -6 56 -44 14
-75 52 -87 106 -11 48 -17 58 -49 75 -48 26 -54 45 -23 72 l26 22 67 -20 c96
-27 145 -47 170 -71 12 -11 27 -17 33 -13 6 4 30 -6 53 -21 23 -16 48 -27 55
-26 6 2 17 -10 23 -25 24 -63 34 -60 39 13 l5 69 37 3 c20 2 53 -4 74 -13 20
-8 39 -14 41 -12 2 2 10 93 18 203 21 289 34 419 52 509 18 91 25 109 61 148
32 33 25 34 -37 2 -43 -21 -58 -24 -115 -18 -44 4 -66 2 -66 -5 0 -21 22 -67
42 -89 19 -21 20 -27 10 -75 -6 -29 -11 -107 -12 -173 -1 -111 -3 -124 -30
-181 -18 -37 -30 -77 -30 -101 0 -34 -6 -46 -30 -67 -44 -37 -100 -51 -141
-37 -18 6 -47 9 -64 5 -36 -6 -65 14 -65 46 0 11 -13 29 -30 41 -35 26 -48 61
-42 111 3 31 1 37 -20 43 -32 10 -36 20 -28 63 4 23 1 49 -6 67 -7 17 -13 47
-14 67 0 32 4 40 33 54 71 37 112 117 100 200 -7 53 3 125 22 150 13 18 15 17
51 -23 l37 -41 29 21 30 22 28 -35 c30 -37 31 -37 49 -2 13 25 39 29 47 7 4
-8 11 -12 16 -9 7 4 8 63 3 169 -4 96 -3 165 2 168 13 8 145 -10 218 -29 58
-16 137 -46 222 -86 32 -15 46 -17 62 -9 26 14 96 14 119 0 15 -9 34 -4 103
29 130 62 248 96 359 103 l45 4 0 -195 0 -195 -45 -3 c-25 -1 -54 -7 -66 -13
-17 -9 -31 -6 -72 15 -28 14 -54 26 -57 26 -3 0 5 -15 19 -33 14 -18 32 -53
41 -76 15 -45 47 -344 64 -615 5 -87 12 -160 14 -163 3 -2 22 3 42 11 21 9 53
16 71 16 40 0 47 -16 42 -105 l-3 -60 -34 2 -33 1 30 -31 c16 -18 32 -39 34
-47 3 -8 9 3 13 25 9 46 54 124 73 125 6 0 12 6 12 13 1 28 19 41 58 39 34 -2
43 2 65 31 l26 34 -35 16 c-43 21 -63 21 -92 1 -32 -22 -66 -15 -70 15 -3 20
0 23 17 18 28 -7 26 5 -5 36 -21 21 -25 32 -19 56 9 43 -1 67 -36 81 -16 7
-41 26 -55 43 -22 27 -25 38 -22 79 4 33 13 57 29 74 24 26 28 79 9 145 -5 17
-6 67 -3 110 5 68 9 79 24 79 12 0 24 13 34 36 8 19 24 49 36 65 27 38 40 28
64 -47 18 -57 38 -67 43 -21 4 29 35 57 64 57 10 0 24 -12 32 -27 8 -16 26
-39 40 -52 25 -23 28 -24 43 -8 12 12 18 41 22 101 6 86 12 103 30 92 12 -8
20 -62 25 -186 3 -52 8 -125 12 -162 5 -52 3 -77 -12 -117 -17 -48 -17 -53 -1
-86 36 -76 13 -164 -67 -254 -25 -28 -46 -57 -46 -64 0 -7 -7 -24 -14 -39 -17
-33 -14 -34 64 -13 101 27 150 17 150 -31 0 -16 -11 -25 -45 -38 -50 -20 -62
-33 -46 -49 27 -27 2 -82 -54 -115 -27 -17 -29 -21 -26 -74 2 -48 -3 -67 -38
-137 -23 -44 -57 -136 -77 -203 -30 -102 -42 -129 -70 -155 -30 -29 -40 -33
-90 -33 -52 0 -59 3 -97 40 -22 22 -42 39 -44 36 -8 -7 9 -186 17 -186 4 0 23
7 42 14 55 23 74 13 70 -37 -7 -94 -15 -101 -85 -72 l-35 15 -7 -31 c-4 -16
-4 -52 0 -79 4 -27 3 -79 -1 -117 -6 -58 -8 -64 -15 -38 -4 17 -10 74 -14 128
-5 72 -12 103 -25 120 -15 18 -22 20 -37 11 -9 -6 -20 -22 -23 -35 -6 -22 -7
-23 -17 -5 -8 14 -12 15 -18 6 -5 -8 -1 -18 10 -26 16 -12 17 -24 11 -113 -8
-111 -3 -130 83 -332 44 -104 170 -470 192 -557 l13 -52 858 0 858 0 0 1800 0
1800 -2400 0 -2400 0 0 -1800z"/>
<path d="M1780 1915 c0 -20 17 -28 23 -11 3 8 -1 17 -9 20 -8 3 -14 -1 -14 -9z"/>
<path d="M1983 1293 c3 -92 9 -115 26 -97 5 5 1 46 -10 99 l-19 90 3 -92z"/>
<path d="M2841 1364 c0 -11 3 -14 6 -6 3 7 2 16 -1 19 -3 4 -6 -2 -5 -13z"/>
<path d="M2836 1303 c-10 -65 -7 -103 10 -110 28 -10 33 10 19 75 -16 77 -21
83 -29 35z"/>
<path d="M2766 1247 c-5 -15 -6 -31 -2 -34 11 -11 18 5 14 34 l-4 28 -8 -28z"/>
<path d="M2000 1079 l0 -42 21 27 c22 28 20 56 -6 56 -11 0 -15 -11 -15 -41z"/>
</g>
</svg>
