<?xml version="1.0" standalone="no"?>
<!DOCTYPE svg PUBLIC "-//W3C//DTD SVG 20010904//EN"
 "http://www.w3.org/TR/2001/REC-SVG-20010904/DTD/svg10.dtd">
<svg version="1.0" xmlns="http://www.w3.org/2000/svg"
 width="480.000000pt" height="360.000000pt" viewBox="0 0 480.000000 360.000000"
 preserveAspectRatio="xMidYMid meet">
<metadata>
Created by potrace 1.16, written by Peter Selinger 2001-2019
</metadata>
<rect width="1" height="360" fill="#000000"/>
<rect x="479" width="1" height="360" fill="#000000"/>
<rect width="480" height="1" fill="#000000"/>
<rect y="359" width="480" height="1" fill="#000000"/>
<g transform="translate(0.000000,360.000000) scale(0.100000,-0.100000)"
fill="#000000" stroke="none">
<path d="M0 2952 c0 -586 2 -650 17 -672 31 -48 67 -80 87 -80 26 0 75 29 136
81 25 21 50 39 54 39 4 0 22 -15 39 -32 98 -100 273 -246 326 -273 32 -16 35
-16 60 3 32 24 86 100 147 210 26 45 52 81 58 78 165 -74 347 -136 456 -156
53 -10 66 -9 98 7 l37 18 -1 80 c-1 68 -8 98 -46 200 -25 66 -62 154 -82 197
-20 42 -36 79 -36 82 0 3 49 30 109 61 60 31 136 73 170 95 74 48 84 74 49
128 -31 46 -283 296 -326 324 -18 11 -32 25 -32 32 0 7 19 30 41 51 62 60 119
134 119 156 0 19 -18 19 -740 19 l-740 0 0 -648z"/>
<path d="M3036 3569 c-133 -69 -282 -119 -476 -159 -196 -41 -250 -60 -271
-94 -25 -41 -24 -83 6 -194 110 -411 343 -721 660 -878 137 -69 209 -69 256
-2 11 15 46 92 77 171 31 78 62 142 67 142 6 0 13 -54 17 -130 9 -178 16 -226
37 -262 37 -59 155 -92 331 -93 244 0 479 71 645 195 133 100 291 275 379 421
36 59 36 59 36 179 l0 120 -33 21 c-17 11 -129 68 -247 126 -291 143 -427 235
-595 407 l-60 61 -385 0 -385 -1 -59 -30z"/>
<path d="M3652 1786 c-12 -7 -34 -29 -48 -50 -27 -39 -108 -209 -139 -288 -10
-27 -23 -48 -29 -48 -6 0 -38 10 -71 21 -100 33 -284 77 -402 95 -128 19 -191
14 -230 -20 -23 -20 -26 -30 -25 -78 2 -90 92 -291 224 -500 26 -43 48 -82 48
-86 0 -5 -26 -24 -57 -43 -84 -49 -231 -157 -280 -205 -49 -47 -55 -79 -23
-124 38 -53 408 -350 437 -350 5 0 19 -9 31 -21 l22 -20 -26 -35 -26 -34 352
0 c331 0 352 1 345 18 -4 9 -10 51 -13 92 l-5 75 21 -19 c12 -10 35 -42 51
-70 16 -28 41 -62 57 -76 l27 -25 -31 55 c-36 64 -107 258 -98 267 4 4 12 1
18 -5 21 -21 30 -13 24 23 -11 55 2 61 44 20 l38 -38 -1 48 c-1 27 3 50 9 52
6 2 33 -14 59 -36 27 -22 51 -39 53 -36 2 2 -1 18 -7 36 -14 41 -10 44 23 18
31 -25 43 -20 26 11 -6 12 -10 24 -7 26 2 2 31 -6 63 -18 50 -19 76 -40 171
-138 65 -67 122 -134 134 -160 12 -25 35 -62 51 -82 l30 -38 154 0 c153 0 154
0 154 23 0 12 -7 31 -15 41 -20 26 -20 110 0 126 13 11 15 85 15 552 l0 540
-66 -4 -65 -3 -24 58 c-38 94 -85 167 -157 241 -61 63 -69 68 -98 62 -40 -8
-93 -49 -154 -121 l-48 -55 -61 48 c-74 59 -329 233 -374 256 -61 31 -78 34
-101 22z"/>
<path d="M362 1763 c-32 -46 -90 -202 -118 -318 -22 -91 -25 -127 -22 -215 3
-99 6 -112 40 -181 20 -41 67 -109 103 -153 36 -43 63 -81 61 -84 -3 -2 -49
21 -103 51 -107 61 -187 93 -270 106 l-53 8 0 -222 0 -222 122 -31 c125 -33
168 -52 168 -76 0 -34 -141 -151 -248 -205 l-42 -21 0 -95 c0 -66 4 -95 12
-95 6 0 43 24 82 53 151 115 266 177 325 177 46 0 55 -26 47 -142 l-6 -98 261
0 260 0 -6 23 c-4 12 -20 60 -37 107 -45 128 -44 130 18 60 32 -36 87 -93 123
-127 l65 -63 439 0 439 0 -44 52 c-23 29 -117 127 -208 219 -229 231 -316 284
-485 298 l-80 6 135 66 c282 137 393 257 598 644 49 94 108 201 131 240 43 72
50 102 28 111 -7 2 -58 -9 -112 -26 -55 -17 -185 -55 -290 -85 -304 -86 -474
-159 -604 -259 -67 -52 -204 -195 -234 -244 -11 -18 -22 -31 -24 -28 -3 2 0
30 7 60 33 159 -32 283 -319 609 -84 96 -117 127 -135 127 -2 0 -13 -12 -24
-27z"/>
</g>
</svg>
