<?xml version="1.0" standalone="no"?>
<!DOCTYPE svg PUBLIC "-//W3C//DTD SVG 20010904//EN"
 "http://www.w3.org/TR/2001/REC-SVG-20010904/DTD/svg10.dtd">
<svg version="1.0" xmlns="http://www.w3.org/2000/svg"
 width="480.000000pt" height="360.000000pt" viewBox="0 0 480.000000 360.000000"
 preserveAspectRatio="xMidYMid meet">
<metadata>
Created by potrace 1.16, written by Peter Selinger 2001-2019
</metadata>
<rect width="1" height="360" fill="#000000"/>
<rect x="479" width="1" height="360" fill="#000000"/>
<rect width="480" height="1" fill="#000000"/>
<rect y="359" width="480" height="1" fill="#000000"/>
<g transform="translate(0.000000,360.000000) scale(0.100000,-0.100000)"
fill="#000000" stroke="none">
<path d="M0 1800 l0 -1800 993 0 993 0 13 128 c7 70 21 174 33 232 17 88 19
126 13 235 -4 87 -3 145 5 176 10 38 9 55 -5 103 -9 32 -14 67 -11 78 5 20 -9
117 -19 126 -14 14 -247 -41 -358 -85 -76 -31 -92 -34 -114 -24 -14 7 -26 10
-28 9 -1 -2 -13 -23 -27 -48 -15 -25 -48 -70 -75 -100 -27 -30 -56 -67 -66
-82 -22 -35 -34 -35 -49 -3 -8 19 -8 29 2 42 7 10 2 6 -11 -8 -13 -14 -29 -35
-36 -45 -11 -18 -12 -18 -33 2 l-22 22 32 47 c37 54 34 73 -4 21 -14 -20 -38
-52 -53 -73 l-26 -36 -19 23 c-11 13 -17 32 -15 42 4 15 0 13 -27 -7 -40 -30
-42 -30 -56 -5 -13 25 -2 49 49 105 42 46 151 190 151 199 0 6 -34 2 -81 -9
-17 -5 -30 -1 -38 9 -19 23 1 43 53 56 108 28 241 72 255 84 9 8 27 20 41 26
14 6 36 17 50 25 15 9 53 15 96 15 71 0 232 23 290 41 29 9 32 14 42 78 9 51
9 82 0 123 -10 46 -9 66 6 129 10 41 29 95 42 121 41 80 73 194 67 238 -5 37
-2 42 58 102 35 36 74 71 85 79 12 8 25 27 28 43 6 25 5 28 -11 21 -74 -31
-68 -31 -118 13 -26 23 -52 42 -56 42 -5 0 -9 7 -9 16 0 8 -16 22 -35 30 -19
8 -35 16 -35 19 0 2 9 19 20 38 l20 34 -25 23 c-19 18 -32 22 -63 17 -35 -4
-43 -1 -71 28 -17 19 -34 48 -38 66 l-6 32 -19 -24 c-17 -21 -19 -22 -14 -4 2
11 10 47 16 80 7 33 23 96 37 140 22 70 32 86 79 130 l54 50 -20 64 c-10 35
-17 67 -15 71 2 4 28 12 58 20 40 9 59 10 75 1 42 -23 47 -16 59 85 6 53 14
99 18 102 4 4 17 -6 30 -23 13 -16 25 -27 27 -25 2 3 14 26 27 53 13 26 30 47
38 47 60 0 243 -247 243 -327 0 -16 10 -27 32 -37 62 -28 100 -76 168 -214 55
-114 92 -259 130 -517 20 -136 59 -256 152 -475 51 -118 98 -398 70 -408 -7
-2 -12 -19 -12 -38 0 -18 -7 -51 -16 -73 -12 -31 -13 -47 -5 -78 14 -48 14
-105 1 -135 -47 -112 -112 -314 -130 -403 -11 -60 -27 -119 -35 -131 -18 -28
-39 -350 -30 -460 l7 -84 989 0 989 0 0 1800 0 1800 -2400 0 -2400 0 0 -1800z"/>
<path d="M2071 1098 c1 -13 5 -34 9 -48 7 -20 8 -16 9 23 1 26 -3 47 -9 47 -5
0 -10 -10 -9 -22z"/>
<path d="M1153 858 c-31 -35 -40 -56 -14 -33 21 18 46 55 38 55 -2 0 -13 -10
-24 -22z"/>
</g>
</svg>
