<?xml version="1.0" standalone="no"?>
<!DOCTYPE svg PUBLIC "-//W3C//DTD SVG 20010904//EN"
 "http://www.w3.org/TR/2001/REC-SVG-20010904/DTD/svg10.dtd">
<svg version="1.0" xmlns="http://www.w3.org/2000/svg"
 width="480.000000pt" height="360.000000pt" viewBox="0 0 480.000000 360.000000"
 preserveAspectRatio="xMidYMid meet">
<metadata>
Created by potrace 1.16, written by Peter Selinger 2001-2019
</metadata>
<rect width="1" height="360" fill="#000000"/>
<rect x="479" width="1" height="360" fill="#000000"/>
<rect width="480" height="1" fill="#000000"/>
<rect y="359" width="480" height="1" fill="#000000"/>
<g transform="translate(0.000000,360.000000) scale(0.100000,-0.100000)"
fill="#000000" stroke="none">
<path d="M3517 3547 c-29 -29 -76 -91 -106 -137 -71 -110 -124 -190 -126 -190
-4 0 26 85 34 95 19 25 34 96 23 107 -6 6 -8 17 -5 24 8 22 -5 17 -53 -20 -29
-23 -65 -39 -102 -46 -160 -33 -211 -97 -166 -210 16 -40 16 -42 -7 -67 -20
-21 -21 -27 -9 -31 23 -8 80 -68 80 -83 -1 -8 -49 -45 -107 -84 -59 -38 -130
-92 -159 -118 -51 -46 -56 -48 -117 -51 -42 -1 -77 -9 -105 -24 -41 -21 -43
-21 -104 -5 -81 21 -206 20 -284 -2 -59 -16 -63 -16 -89 1 -20 13 -48 19 -92
19 -60 0 -64 2 -79 30 -8 16 -23 38 -32 49 -19 21 -94 56 -121 56 -27 0 -58
39 -78 99 -24 72 -70 110 -133 111 -68 1 -180 -11 -180 -20 0 -4 25 -20 55
-34 71 -35 155 -144 155 -201 0 -13 9 -30 19 -38 11 -7 38 -40 60 -73 22 -32
58 -77 80 -99 23 -21 41 -47 41 -56 0 -29 30 -51 61 -45 30 6 75 -24 124 -83
l27 -32 -42 -85 c-42 -85 -43 -87 -37 -167 6 -91 31 -172 72 -237 26 -41 27
-48 21 -119 -4 -42 -16 -134 -26 -206 -37 -250 -60 -557 -60 -808 l0 -138 -30
-11 c-17 -5 -37 -22 -45 -37 -35 -62 -36 -63 -106 -46 -156 36 -287 -1 -416
-119 -104 -95 -166 -251 -148 -371 l6 -45 865 0 864 0 0 27 c0 14 11 49 24 77
31 66 56 141 56 169 1 18 2 19 10 6 22 -37 80 -217 80 -246 l0 -33 146 0 c134
0 145 1 140 18 -3 9 -21 93 -40 187 -19 94 -53 258 -76 365 -22 107 -50 267
-61 355 -23 177 -33 204 -103 282 -39 44 -46 57 -46 94 0 36 -6 47 -38 79
l-39 36 35 79 c38 91 95 249 123 345 21 71 24 152 10 227 -5 26 -12 81 -15
121 -6 70 -5 72 13 63 10 -6 39 -30 63 -54 52 -52 77 -67 116 -67 30 0 52 29
52 70 0 12 7 20 16 20 11 0 15 6 11 20 -3 10 1 24 9 30 7 7 16 33 19 58 4 26
12 62 18 80 9 25 8 37 -2 53 -10 18 -10 23 4 33 14 10 15 18 6 51 -8 28 -7 41
1 46 6 4 8 18 4 35 -4 16 -8 36 -9 44 -5 33 -90 120 -129 132 -34 10 -53 28
-29 28 6 0 30 28 55 63 52 72 106 178 178 347 71 167 123 252 202 331 l28 29
-102 0 -102 0 -51 -53z"/>
</g>
</svg>
