<?xml version="1.0" standalone="no"?>
<!DOCTYPE svg PUBLIC "-//W3C//DTD SVG 20010904//EN"
 "http://www.w3.org/TR/2001/REC-SVG-20010904/DTD/svg10.dtd">
<svg version="1.0" xmlns="http://www.w3.org/2000/svg"
 width="480.000000pt" height="360.000000pt" viewBox="0 0 480.000000 360.000000"
 preserveAspectRatio="xMidYMid meet">
<metadata>
Created by potrace 1.16, written by Peter Selinger 2001-2019
</metadata>
<rect width="1" height="360" fill="#000000"/>
<rect x="479" width="1" height="360" fill="#000000"/>
<rect width="480" height="1" fill="#000000"/>
<rect y="359" width="480" height="1" fill="#000000"/>
<g transform="translate(0.000000,360.000000) scale(0.100000,-0.100000)"
fill="#000000" stroke="none">
<path d="M2546 2264 c-3 -8 -10 -13 -15 -10 -5 4 -12 -6 -15 -21 -9 -40 -138
-118 -167 -100 -30 19 -43 -3 -23 -42 15 -29 15 -35 0 -65 -21 -44 -20 -64 4
-104 23 -37 26 -71 8 -94 -19 -23 -145 -13 -153 12 -7 21 -50 31 -82 19 -17
-6 -23 -16 -23 -40 0 -31 -1 -32 -41 -26 -22 3 -59 18 -81 33 l-40 28 -19 -23
c-31 -38 -20 -123 23 -168 l22 -23 41 45 c23 25 46 45 51 45 5 0 15 -18 22
-40 10 -33 9 -47 -3 -82 -18 -52 -19 -80 -3 -96 19 -19 39 -14 98 22 30 19 71
37 90 41 l35 6 0 -83 c1 -65 5 -92 22 -124 l22 -41 -26 -42 c-13 -23 -49 -114
-79 -203 -40 -121 -63 -173 -93 -213 -49 -64 -60 -112 -34 -143 17 -20 151
-92 173 -92 7 0 8 -24 4 -68 -4 -45 -1 -92 10 -145 12 -61 13 -82 4 -103 -9
-20 -9 -30 0 -45 13 -20 15 -61 6 -95 -5 -19 -15 -22 -79 -26 -80 -5 -105 -18
-105 -52 0 -28 32 -56 89 -81 37 -17 67 -19 225 -18 99 1 193 2 208 2 17 1 32
9 38 21 15 28 15 148 0 185 -14 32 -20 122 -19 251 0 53 -5 94 -15 119 -21 49
-20 68 5 117 18 35 20 54 17 132 -6 129 -46 383 -69 435 -22 50 -25 87 -6 94
9 3 8 17 -7 59 -23 69 -16 106 27 133 42 27 92 127 77 155 -6 11 -16 19 -22
17 -14 -3 -30 51 -17 59 5 3 9 -3 9 -12 0 -10 3 -15 6 -11 3 3 1 52 -6 108
l-11 101 28 30 c26 27 27 29 7 34 -33 9 -118 148 -98 162 15 11 14 64 -2 58
-8 -3 -11 0 -7 10 3 7 3 14 0 14 -3 0 -8 -7 -11 -16z m-176 -479 c0 -8 -9 -15
-20 -15 -22 0 -27 15 -7 23 21 9 27 7 27 -8z m-70 -15 c0 -12 -28 -20 -45 -14
-22 9 -18 22 8 26 25 5 37 1 37 -12z m-210 -60 c0 -5 -4 -10 -10 -10 -5 0 -10
5 -10 10 0 6 5 10 10 10 6 0 10 -4 10 -10z m412 -1099 c4 -4 18 -54 31 -111
24 -113 28 -272 7 -336 -10 -31 -13 -32 -43 -23 -17 5 -46 9 -63 9 -36 0 -46
10 -63 66 -10 31 -10 46 -2 62 8 15 8 29 0 49 -10 26 -6 188 7 269 l4 31 58
-5 c31 -2 60 -7 64 -11z"/>
<path d="M3975 2245 c4 -11 8 -31 9 -45 1 -20 -3 -25 -22 -22 -18 1 -22 -2
-18 -16 8 -24 -93 -125 -116 -117 -9 4 -18 0 -22 -10 -3 -9 -14 -15 -23 -13
-29 5 -26 -28 7 -66 26 -29 29 -39 21 -55 -20 -37 -13 -128 14 -181 14 -28 23
-50 20 -50 -3 0 -47 -9 -98 -19 -166 -35 -195 -36 -223 -10 -44 41 -144 19
-144 -32 0 -25 33 -91 54 -108 9 -7 29 -36 45 -65 52 -89 82 -93 192 -26 35
22 70 40 78 40 17 0 10 -52 -20 -153 -19 -65 -19 -69 -2 -97 16 -28 16 -31 -4
-67 -13 -24 -32 -96 -48 -188 -46 -257 -48 -277 -36 -323 12 -44 70 -112 96
-112 14 0 35 -56 35 -93 0 -10 -9 -46 -21 -80 -17 -50 -20 -76 -15 -136 5 -57
2 -81 -10 -108 -13 -26 -14 -37 -5 -46 6 -6 11 -19 11 -29 0 -15 8 -18 44 -18
50 0 56 8 56 73 0 39 16 112 54 247 9 30 16 74 16 98 0 36 4 44 26 52 14 6 47
10 74 10 l49 0 21 -57 c12 -32 26 -87 31 -123 5 -36 15 -94 21 -130 6 -36 10
-89 9 -117 l-2 -53 60 0 c34 0 61 3 61 8 0 4 -5 25 -12 47 -6 22 -11 43 -10
48 10 38 1 219 -12 256 -9 24 -19 74 -22 111 l-7 67 29 10 c16 6 55 27 87 47
48 31 57 41 57 66 0 30 -15 51 -121 166 -37 41 -76 101 -114 175 -32 63 -67
127 -78 142 l-20 29 32 73 c18 40 35 98 38 129 3 31 10 59 15 62 5 3 21 -2 35
-11 48 -32 81 -36 129 -15 24 11 64 29 89 40 25 11 52 20 60 20 16 0 28 31 20
51 -10 24 -118 100 -133 94 -8 -3 -21 0 -28 6 -11 9 -18 8 -31 -2 -10 -8 -14
-9 -10 -2 10 16 -12 28 -26 14 -16 -16 -31 -14 -55 7 -20 17 -18 18 91 36 176
29 220 34 244 25 13 -5 25 -4 28 1 9 15 -4 47 -20 54 -8 3 -87 -6 -175 -21
-88 -14 -162 -24 -165 -21 -3 2 0 20 5 39 13 45 13 103 -2 151 -10 34 -9 42
10 68 12 16 22 33 22 37 0 15 -47 52 -73 58 -15 4 -46 22 -69 41 -39 31 -43
37 -43 80 0 38 -4 49 -25 63 -23 15 -24 15 -15 -4z m490 -514 c-12 -11 -294
-55 -302 -48 -3 3 17 9 44 12 26 4 89 15 138 25 107 21 133 23 120 11z m-790
-120 c-6 -5 -32 -11 -60 -15 -58 -6 -49 0 16 13 24 5 46 9 49 10 2 1 0 -3 -5
-8z m-36 -43 c-6 -13 -22 -31 -36 -42 -22 -16 -27 -17 -39 -4 -23 22 -7 44 39
55 23 6 43 11 44 12 2 0 -2 -9 -8 -21z"/>
<path d="M1020 2212 c-8 -10 -16 -33 -16 -52 -1 -29 -11 -43 -63 -90 -44 -39
-70 -55 -92 -56 -42 -2 -45 -9 -20 -55 19 -32 22 -49 16 -87 -6 -43 -4 -51 21
-75 15 -15 31 -27 35 -27 5 0 9 -8 9 -17 0 -10 11 -37 24 -59 l24 -42 -24 -11
c-13 -6 -26 -22 -29 -38 -4 -15 -11 -35 -16 -43 -5 -8 -17 -31 -25 -50 -40
-87 -72 -119 -167 -166 -51 -25 -102 -55 -114 -66 -15 -15 -44 -23 -105 -29
-66 -7 -87 -14 -101 -31 -15 -18 -20 -20 -28 -7 -5 7 -9 19 -9 25 0 29 -46 31
-190 10 l-145 -21 -3 -93 -3 -93 43 -18 c144 -63 672 -282 716 -297 50 -18 52
-20 46 -50 -7 -36 21 -74 54 -74 37 0 40 -19 11 -80 -42 -87 -51 -136 -33
-179 8 -20 53 -75 99 -122 48 -48 85 -95 85 -106 0 -10 7 -28 15 -39 18 -24
19 -61 3 -67 -7 -3 46 -6 117 -6 l130 0 -37 30 c-28 23 -38 39 -38 60 0 27
-29 69 -48 69 -12 0 -51 81 -58 121 -4 19 -22 68 -41 109 -44 97 -37 122 42
145 29 8 65 15 80 15 14 0 60 16 102 35 l76 35 -7 61 c-13 111 -104 373 -156
446 -16 24 -30 55 -30 69 0 14 -5 35 -12 47 -12 24 -12 111 1 136 5 9 12 53
16 99 7 80 6 84 -15 89 -12 3 -26 17 -31 30 -13 36 -11 46 9 41 10 -3 36 5 58
17 58 32 65 70 29 174 l-29 81 23 31 c13 17 21 32 19 33 -1 1 -19 9 -37 16
-52 21 -90 68 -91 111 0 20 -6 42 -14 48 -8 7 -22 27 -31 46 -18 39 -23 41
-45 17z m-160 -905 c0 -1 9 -26 19 -54 l19 -52 -29 -6 c-16 -4 -31 -11 -34
-16 -4 -5 -15 -9 -25 -9 -10 0 -20 -6 -23 -12 -2 -9 -30 -13 -88 -14 -46 -1
-98 -5 -115 -9 -21 -4 -34 -3 -39 5 -8 13 24 41 42 35 6 -2 17 3 23 10 7 8 16
12 21 9 5 -3 42 15 82 39 102 63 147 86 147 74z m-354 -120 c2 -2 2 -11 -2
-20 -5 -14 -10 -14 -49 1 -24 9 -41 20 -38 25 5 9 79 4 89 -6z m302 -132 c-3
-3 -13 -2 -22 1 -14 5 -15 9 -4 15 13 8 36 -6 26 -16z m113 -18 c-10 -26 -10
-26 -50 -10 -44 17 -45 33 -3 33 15 0 34 5 42 10 19 12 23 0 11 -33z"/>
</g>
</svg>
