<?xml version="1.0" standalone="no"?>
<!DOCTYPE svg PUBLIC "-//W3C//DTD SVG 20010904//EN"
 "http://www.w3.org/TR/2001/REC-SVG-20010904/DTD/svg10.dtd">
<svg version="1.0" xmlns="http://www.w3.org/2000/svg"
 width="480.000000pt" height="360.000000pt" viewBox="0 0 480.000000 360.000000"
 preserveAspectRatio="xMidYMid meet">
<metadata>
Created by potrace 1.16, written by Peter Selinger 2001-2019
</metadata>
<rect width="1" height="360" fill="#000000"/>
<rect x="479" width="1" height="360" fill="#000000"/>
<rect width="480" height="1" fill="#000000"/>
<rect y="359" width="480" height="1" fill="#000000"/>
<g transform="translate(0.000000,360.000000) scale(0.100000,-0.100000)"
fill="#000000" stroke="none">
<path d="M1380 1800 l0 -1800 1710 0 1710 0 0 1800 0 1800 -1710 0 -1710 0 0
-1800z m1964 893 c4 -5 22 -8 39 -8 l32 0 -2 -63 -2 -64 45 -20 c43 -18 48
-19 85 -4 79 32 136 15 212 -60 29 -28 51 -62 61 -92 17 -53 46 -203 46 -236
-1 -37 -67 49 -85 110 -18 63 -35 68 -64 19 l-20 -35 49 -95 c28 -52 50 -102
50 -109 0 -8 -8 -22 -17 -32 -17 -16 -19 -14 -48 48 -29 62 -66 118 -79 118
-12 0 -6 -40 19 -117 13 -43 27 -98 31 -122 7 -44 7 -44 25 -23 37 47 55 24
80 -105 11 -60 14 -64 108 -156 109 -107 85 -98 316 -121 157 -15 211 -28 310
-78 75 -37 85 -46 85 -69 0 -11 7 -19 18 -20 9 0 12 -3 5 -5 -11 -5 -4 -49 14
-76 4 -7 8 -17 8 -23 0 -5 16 -13 35 -16 33 -5 32 -8 -10 -22 -8 -3 -4 -6 10
-6 34 -1 56 -51 33 -74 -12 -11 -12 -18 -3 -33 13 -21 -1 -74 -20 -74 -5 0 -9
-3 -9 -7 4 -24 -2 -43 -12 -38 -6 4 -16 -1 -24 -11 -13 -18 -15 -17 -47 14
-33 31 -52 34 -42 7 4 -9 -5 -11 -30 -9 -26 2 -36 -2 -36 -13 0 -10 -6 -12
-20 -8 -15 5 -18 3 -14 -8 11 -31 -16 -26 -50 8 -40 40 -52 45 -36 14 23 -42
3 -27 -31 23 -37 57 -51 65 -279 172 -74 34 -134 71 -167 100 -28 25 -54 46
-58 46 -4 0 -16 -12 -28 -26 -22 -29 -78 -57 -99 -49 -21 8 -34 -7 -49 -55
-17 -53 -39 -62 -72 -27 -17 19 -29 24 -50 20 -24 -5 -29 -1 -42 31 -9 20 -13
47 -9 60 5 20 -5 31 -66 79 -56 43 -85 59 -129 68 -71 14 -105 34 -127 75 -15
27 -15 35 -5 48 13 15 7 55 -5 43 -4 -3 -23 2 -43 12 -20 10 -126 49 -236 86
-110 38 -212 74 -227 81 -49 25 -48 15 1 -53 40 -55 52 -80 60 -133 7 -36 14
-75 16 -87 4 -17 1 -23 -12 -23 -25 0 -39 25 -53 96 -7 32 -17 68 -23 79 -13
25 -69 89 -114 128 -30 27 -37 29 -60 18 -18 -8 -29 -9 -37 -1 -15 15 -24 12
-28 -7 -5 -25 -53 43 -51 71 1 16 -12 27 -58 48 -50 23 -63 34 -79 70 -39 85
-18 98 92 53 34 -14 70 -25 80 -25 11 0 38 -11 61 -24 44 -26 262 -112 512
-202 l150 -54 22 25 c12 14 28 25 36 25 23 0 141 128 155 168 8 22 11 58 9 89
-5 51 -4 54 40 103 l46 51 -26 27 c-30 31 -53 112 -34 124 8 5 6 13 -8 28 -10
11 -19 28 -20 38 -1 9 -14 35 -28 56 -15 21 -27 43 -27 48 0 6 -8 22 -19 36
-24 35 -32 81 -18 103 10 16 13 16 27 4 15 -13 18 -11 30 20 14 36 21 41 34
28z"/>
<path d="M3426 1857 c-12 -32 -31 -55 -73 -86 -38 -28 -49 -41 -36 -41 38 0
123 31 152 56 27 23 29 28 19 52 -7 15 -19 35 -28 45 -16 17 -18 16 -34 -26z"/>
<path d="M3781 1642 c6 -17 16 -35 21 -38 15 -9 -1 37 -18 56 -13 13 -13 11
-3 -18z"/>
<path d="M3890 1560 c0 -12 28 -25 36 -17 3 3 -4 10 -15 17 -15 7 -21 7 -21 0z"/>
<path d="M0 1829 l0 -410 23 7 c78 24 171 92 215 157 113 165 100 381 -31 532
-37 43 -124 100 -175 115 l-32 9 0 -410z"/>
</g>
</svg>
