<?xml version="1.0" standalone="no"?>
<!DOCTYPE svg PUBLIC "-//W3C//DTD SVG 20010904//EN"
 "http://www.w3.org/TR/2001/REC-SVG-20010904/DTD/svg10.dtd">
<svg version="1.0" xmlns="http://www.w3.org/2000/svg"
 width="480.000000pt" height="360.000000pt" viewBox="0 0 480.000000 360.000000"
 preserveAspectRatio="xMidYMid meet">
<metadata>
Created by potrace 1.16, written by Peter Selinger 2001-2019
</metadata>
<rect width="1" height="360" fill="#000000"/>
<rect x="479" width="1" height="360" fill="#000000"/>
<rect width="480" height="1" fill="#000000"/>
<rect y="359" width="480" height="1" fill="#000000"/>
<g transform="translate(0.000000,360.000000) scale(0.100000,-0.100000)"
fill="#000000" stroke="none">
<path d="M1737 3533 c18 -153 -14 -470 -54 -528 -7 -11 -13 -27 -13 -36 0 -46
-122 -284 -181 -354 -10 -11 -35 -41 -56 -67 -93 -113 -267 -249 -403 -315
-109 -53 -181 -83 -202 -83 -11 0 -34 -6 -51 -14 -55 -25 -290 -49 -407 -42
-108 7 -242 33 -319 60 -24 9 -45 16 -47 16 -2 0 -4 -488 -4 -1085 l0 -1085
1723 0 1722 0 29 102 c15 57 48 148 73 203 135 302 210 489 259 650 48 156 68
211 112 298 l44 87 -40 58 c-42 62 -55 67 -60 26 -2 -14 -12 -40 -23 -58 -10
-17 -19 -46 -19 -63 0 -42 -20 -172 -31 -200 -5 -14 -18 -23 -36 -25 -24 -3
-28 -8 -31 -40 -6 -67 -45 -41 -112 71 -43 72 -45 78 -48 171 -3 73 0 112 13
156 13 44 17 90 16 179 -1 103 2 130 22 191 14 38 31 83 39 100 9 16 19 67 23
114 13 159 41 248 103 330 15 19 39 66 54 103 94 232 243 313 588 319 116 3
140 0 163 -15 15 -9 27 -26 27 -37 0 -11 -30 -51 -66 -89 l-65 -70 15 -52 c9
-29 16 -65 16 -79 0 -30 -56 -94 -92 -106 -13 -4 -59 -43 -103 -86 -72 -71
-83 -79 -111 -75 -28 5 -30 3 -26 -18 3 -20 12 -25 51 -31 25 -4 58 -13 72
-20 37 -18 95 -107 123 -189 13 -38 36 -96 51 -128 15 -32 24 -65 21 -73 -4
-9 3 -18 19 -24 29 -11 32 -25 8 -38 -14 -8 -12 -12 14 -25 41 -22 46 -40 24
-90 -10 -23 -23 -54 -29 -69 -10 -23 -18 -28 -46 -28 -35 0 -96 -40 -96 -63 0
-6 31 -75 70 -152 38 -77 93 -196 121 -263 52 -126 111 -239 180 -347 l39 -60
0 1528 0 1527 -1536 0 -1536 0 9 -67z"/>
</g>
</svg>
