<?xml version="1.0" standalone="no"?>
<!DOCTYPE svg PUBLIC "-//W3C//DTD SVG 20010904//EN"
 "http://www.w3.org/TR/2001/REC-SVG-20010904/DTD/svg10.dtd">
<svg version="1.0" xmlns="http://www.w3.org/2000/svg"
 width="480.000000pt" height="360.000000pt" viewBox="0 0 480.000000 360.000000"
 preserveAspectRatio="xMidYMid meet">
<metadata>
Created by potrace 1.16, written by Peter Selinger 2001-2019
</metadata>
<rect width="1" height="360" fill="#000000"/>
<rect x="479" width="1" height="360" fill="#000000"/>
<rect width="480" height="1" fill="#000000"/>
<rect y="359" width="480" height="1" fill="#000000"/>
<g transform="translate(0.000000,360.000000) scale(0.100000,-0.100000)"
fill="#000000" stroke="none">
<path d="M0 1800 l0 -1800 2400 0 2400 0 0 1800 0 1800 -2400 0 -2400 0 0
-1800z m2567 511 c147 -67 252 -147 307 -235 35 -54 56 -123 56 -179 0 -38 12
-47 60 -47 16 0 77 -9 136 -21 67 -13 110 -17 116 -11 6 6 20 4 38 -5 34 -17
111 -11 171 14 50 20 60 11 23 -21 l-29 -24 35 -16 c19 -8 56 -18 82 -21 69
-9 70 -25 1 -26 l-58 -1 52 -16 c28 -10 55 -20 59 -24 11 -12 -51 -10 -82 2
-48 19 -37 2 18 -26 56 -29 47 -46 -14 -25 -52 18 -54 12 -4 -20 26 -17 45
-33 43 -36 -3 -2 -28 5 -56 17 -59 23 -61 23 -61 12 0 -5 23 -22 52 -37 62
-34 51 -44 -15 -16 -56 24 -61 11 -10 -24 58 -39 31 -30 -65 21 -67 36 -90 44
-103 36 -13 -9 -19 -6 -28 15 -10 22 -16 24 -47 18 -27 -5 -39 -2 -47 9 -11
15 -126 45 -256 67 -53 10 -54 9 -108 -33 -31 -24 -70 -53 -87 -66 -44 -32
-178 -71 -271 -78 -72 -6 -84 -10 -115 -39 -41 -38 -144 -115 -153 -115 -9 0
-100 70 -109 84 -16 24 -6 35 53 63 l60 28 -72 49 c-87 58 -196 100 -260 98
-26 0 -76 -9 -111 -20 -35 -11 -86 -24 -113 -28 -29 -4 -58 -16 -70 -28 -17
-18 -26 -19 -49 -11 -28 9 -44 -1 -60 -39 -3 -8 -7 -7 -13 2 -12 16 -92 -26
-145 -77 -44 -41 -49 -33 -11 17 27 35 22 35 -29 0 -45 -31 -55 -19 -15 18 21
20 36 38 34 41 -3 2 -24 -5 -47 -17 -70 -36 -66 -12 6 38 18 12 18 13 -1 6
-46 -15 -55 -16 -55 -5 0 6 17 19 38 30 20 10 46 28 56 40 l19 21 -47 -20
c-52 -23 -85 -23 -39 0 41 21 73 46 67 53 -3 3 -24 -1 -46 -9 -44 -15 -66 -11
-27 5 13 5 38 15 56 22 24 10 29 16 21 26 -16 19 -1 28 18 12 15 -12 16 -11
10 8 -7 22 -6 22 74 16 59 -4 88 -2 106 8 20 10 27 11 33 0 6 -10 24 -8 87 8
88 22 272 57 292 55 9 -1 12 20 12 75 0 98 18 147 70 193 51 45 82 61 270 133
80 31 153 59 163 63 27 11 104 7 134 -7z"/>
</g>
</svg>
