<?xml version="1.0" standalone="no"?>
<!DOCTYPE svg PUBLIC "-//W3C//DTD SVG 20010904//EN"
 "http://www.w3.org/TR/2001/REC-SVG-20010904/DTD/svg10.dtd">
<svg version="1.0" xmlns="http://www.w3.org/2000/svg"
 width="480.000000pt" height="360.000000pt" viewBox="0 0 480.000000 360.000000"
 preserveAspectRatio="xMidYMid meet">
<metadata>
Created by potrace 1.16, written by Peter Selinger 2001-2019
</metadata>
<rect width="1" height="360" fill="#000000"/>
<rect x="479" width="1" height="360" fill="#000000"/>
<rect width="480" height="1" fill="#000000"/>
<rect y="359" width="480" height="1" fill="#000000"/>
<g transform="translate(0.000000,360.000000) scale(0.100000,-0.100000)"
fill="#000000" stroke="none">
<path d="M0 1800 l0 -1800 2400 0 2400 0 0 1800 0 1800 -1365 0 c-1111 0
-1365 -2 -1365 -13 0 -26 112 -465 156 -612 61 -202 86 -269 150 -407 41 -87
54 -126 52 -153 -4 -49 -19 -48 -36 3 -10 32 -25 50 -56 70 -201 129 -438 375
-637 663 -78 114 -216 343 -244 407 l-19 42 -718 0 -718 0 0 -1800z m2441 439
c22 -42 -18 -88 -49 -57 -13 13 -16 60 -5 71 13 14 43 6 54 -14z"/>
</g>
</svg>
