<?xml version="1.0" standalone="no"?>
<!DOCTYPE svg PUBLIC "-//W3C//DTD SVG 20010904//EN"
 "http://www.w3.org/TR/2001/REC-SVG-20010904/DTD/svg10.dtd">
<svg version="1.0" xmlns="http://www.w3.org/2000/svg"
 width="480.000000pt" height="360.000000pt" viewBox="0 0 480.000000 360.000000"
 preserveAspectRatio="xMidYMid meet">
<metadata>
Created by potrace 1.16, written by Peter Selinger 2001-2019
</metadata>
<rect width="1" height="360" fill="#000000"/>
<rect x="479" width="1" height="360" fill="#000000"/>
<rect width="480" height="1" fill="#000000"/>
<rect y="359" width="480" height="1" fill="#000000"/>
<g transform="translate(0.000000,360.000000) scale(0.100000,-0.100000)"
fill="#000000" stroke="none">
<path d="M1476 2879 c-41 -14 -62 -17 -69 -10 -17 17 -62 13 -80 -7 -20 -21
-22 -43 -6 -59 8 -8 7 -17 -2 -34 -7 -13 -18 -42 -24 -64 -13 -43 -3 -82 37
-137 21 -30 52 -39 42 -13 -5 11 -2 13 10 9 22 -8 20 -37 -4 -59 -21 -19 -23
-15 86 -147 12 -16 12 -18 -5 -18 -11 0 -31 -14 -45 -31 -25 -29 -25 -32 -11
-60 16 -31 13 -49 -9 -49 -41 0 -166 -190 -166 -252 0 -29 43 -93 72 -109 19
-10 20 -17 15 -95 -5 -84 -23 -131 -78 -202 -14 -18 -16 -28 -8 -40 8 -13 3
-36 -21 -96 -22 -57 -28 -81 -19 -86 8 -6 6 -24 -10 -71 -12 -35 -24 -80 -25
-99 -6 -61 -56 -388 -86 -566 -16 -94 -34 -225 -40 -290 -6 -66 -17 -158 -24
-206 l-13 -88 509 0 c391 0 508 3 508 12 0 7 -13 89 -30 183 -16 93 -41 256
-54 360 -14 105 -36 238 -50 297 -35 146 -103 373 -127 419 l-19 38 23 3 c21
3 20 5 -18 48 -70 77 -69 75 -48 107 9 15 39 56 65 90 27 34 48 73 48 86 0 13
-9 59 -20 102 -25 96 -25 124 -2 141 16 13 16 15 1 27 -18 13 -20 62 -5 86 18
28 7 97 -27 190 -33 87 -38 121 -16 121 5 0 9 -6 9 -12 0 -7 5 -5 11 6 9 15
13 16 20 5 8 -11 12 -10 24 5 12 16 18 17 27 8 21 -21 29 -13 23 21 -7 38 15
70 40 61 11 -4 15 1 15 17 0 40 12 69 27 69 10 0 12 6 7 23 -9 31 -43 97 -65
129 -11 14 -19 38 -19 53 0 40 -127 178 -179 193 -56 17 -128 14 -195 -9z"/>
<path d="M3180 2179 c-47 -16 -99 -34 -116 -39 -36 -12 -71 -47 -75 -75 -5
-33 10 -73 30 -80 18 -5 31 -43 31 -91 0 -17 -10 -29 -39 -44 -22 -11 -67 -45
-100 -76 -71 -65 -90 -113 -72 -175 18 -59 61 -74 199 -72 99 1 112 0 112 -15
0 -9 3 -28 7 -41 7 -27 28 -28 -182 8 -130 23 -199 51 -312 127 -69 46 -93 54
-93 29 0 -12 -6 -11 -32 5 -35 21 -73 26 -83 11 -3 -5 4 -12 15 -16 11 -3 20
-10 20 -15 0 -13 -32 -28 -47 -23 -7 3 -13 -1 -13 -9 1 -16 24 -48 35 -48 17
0 34 -37 35 -76 0 -31 6 -46 29 -68 25 -24 43 -30 136 -43 81 -11 118 -12 156
-4 74 16 162 13 268 -9 107 -22 131 -38 131 -88 0 -20 6 -43 14 -51 26 -29 86
-177 81 -201 -2 -13 -9 -38 -16 -57 -6 -19 -8 -40 -5 -48 3 -8 -8 -41 -24 -73
-24 -50 -55 -139 -102 -302 -6 -19 -32 -91 -59 -159 -27 -68 -49 -129 -49
-135 0 -36 84 -79 195 -100 64 -12 72 -22 74 -93 l1 -33 144 0 144 0 13 65
c12 62 14 65 48 75 20 5 39 10 43 10 4 0 32 9 63 21 76 28 84 48 46 107 -45
71 -56 104 -86 262 -15 80 -37 187 -49 237 -13 57 -18 97 -13 102 6 6 1 42
-11 93 -12 45 -26 121 -32 167 -7 46 -20 111 -30 145 -11 33 -17 63 -14 66 3
3 60 3 127 1 307 -9 380 -6 424 14 26 13 43 27 43 38 0 20 32 36 38 19 6 -18
27 -14 47 8 10 11 25 20 33 20 8 0 12 6 8 15 -3 9 0 15 8 15 14 0 29 37 20 51
-2 4 -28 15 -57 25 -31 11 -45 20 -34 22 9 2 17 8 17 13 0 13 -59 10 -103 -6
-37 -13 -39 -12 -34 6 3 10 2 21 -2 23 -4 3 -46 -13 -93 -34 -130 -58 -224
-87 -318 -101 -128 -18 -180 -17 -194 4 -8 13 -8 20 2 26 7 4 12 21 10 38 -1
17 3 38 10 46 8 9 10 29 6 52 l-6 38 33 -7 c39 -8 79 15 73 41 -3 12 8 27 30
43 49 35 88 99 81 129 -11 43 -47 83 -93 103 -37 17 -62 19 -154 17 l-110 -4
-29 42 c-17 25 -25 44 -19 48 14 9 12 57 -3 76 -16 21 -51 39 -74 38 -10 0
-56 -13 -103 -30z"/>
</g>
</svg>
