<?xml version="1.0" standalone="no"?>
<!DOCTYPE svg PUBLIC "-//W3C//DTD SVG 20010904//EN"
 "http://www.w3.org/TR/2001/REC-SVG-20010904/DTD/svg10.dtd">
<svg version="1.0" xmlns="http://www.w3.org/2000/svg"
 width="480.000000pt" height="360.000000pt" viewBox="0 0 480.000000 360.000000"
 preserveAspectRatio="xMidYMid meet">
<metadata>
Created by potrace 1.16, written by Peter Selinger 2001-2019
</metadata>
<rect width="1" height="360" fill="#000000"/>
<rect x="479" width="1" height="360" fill="#000000"/>
<rect width="480" height="1" fill="#000000"/>
<rect y="359" width="480" height="1" fill="#000000"/>
<g transform="translate(0.000000,360.000000) scale(0.100000,-0.100000)"
fill="#000000" stroke="none">
<path d="M0 1800 l0 -1800 869 0 870 0 11 58 c27 135 122 444 175 567 68 161
71 173 50 212 -24 44 -35 27 -35 -52 -1 -98 -17 -97 -24 1 -11 146 -18 192
-30 209 -11 15 -14 15 -42 -1 -47 -27 -61 -15 -69 57 -6 52 -5 63 9 71 9 5 16
16 16 24 0 8 -5 12 -10 9 -6 -3 -10 1 -10 9 0 13 -8 14 -42 10 -39 -5 -56 1
-178 63 -74 38 -169 79 -210 92 -109 31 -138 46 -142 73 -2 12 -14 28 -28 35
-14 7 -25 20 -25 30 0 15 -13 19 -88 25 -144 12 -293 65 -346 122 l-24 25 24
20 c31 26 31 26 59 -4 27 -29 42 -32 38 -7 -3 15 9 17 107 20 61 2 114 7 118
11 5 5 -16 22 -47 39 -48 27 -56 37 -62 69 -4 21 -12 49 -20 63 -7 14 -18 55
-24 90 -6 36 -22 92 -35 125 -27 69 -28 72 -26 143 1 54 16 70 27 27 3 -13 13
-30 21 -36 22 -19 33 5 33 74 0 32 7 74 15 94 8 19 15 50 15 69 0 39 16 84 29
84 5 0 17 -22 26 -49 20 -60 41 -68 80 -29 16 16 35 26 43 23 21 -8 50 12 54
37 2 13 7 22 13 21 12 -3 31 -97 39 -203 5 -67 11 -89 28 -108 21 -21 22 -34
26 -208 2 -114 -1 -198 -7 -217 -13 -38 -61 -73 -113 -82 -57 -11 -54 -30 9
-64 51 -28 58 -29 73 -16 19 18 46 20 56 4 4 -7 20 -8 41 -4 30 5 44 0 102
-38 36 -24 93 -58 125 -76 62 -34 76 -31 76 15 0 39 47 159 103 264 49 93 57
116 66 194 10 85 19 105 48 106 7 0 16 8 22 18 12 24 45 185 77 377 40 243
117 451 185 499 29 20 8 28 -43 16 -64 -14 -131 -12 -156 6 -30 21 -29 73 4
166 32 89 89 200 114 223 18 16 22 16 62 0 24 -10 55 -19 70 -21 49 -6 133
-51 222 -118 94 -71 98 -72 231 -77 11 0 60 14 110 31 71 26 107 32 175 34
l85 1 -2 -39 c-3 -47 -61 -292 -76 -321 -5 -11 -15 -23 -20 -27 -7 -4 -2 -26
12 -59 19 -42 22 -66 19 -123 -4 -72 -17 -106 -76 -208 -38 -65 -45 -69 -38
-23 l7 40 -18 -24 c-10 -14 -26 -34 -35 -45 l-17 -21 -1 23 c0 12 -4 22 -9 22
-6 0 -10 -60 -10 -140 -1 -132 0 -140 20 -151 17 -9 20 -17 16 -44 -5 -33 -4
-34 31 -37 34 -3 37 -6 42 -38 3 -21 36 -82 85 -155 45 -66 86 -133 93 -148
16 -38 15 -98 -2 -123 -11 -15 -12 -31 -6 -60 4 -21 11 -74 15 -116 5 -59 10
-78 23 -82 43 -14 210 -37 311 -45 91 -6 115 -11 134 -28 12 -11 33 -24 47
-28 14 -4 28 -12 31 -17 3 -5 25 0 50 11 95 44 361 9 312 -40 -5 -5 -37 -11
-71 -12 -92 -3 -99 -26 -12 -47 42 -10 52 -9 72 4 28 20 48 20 48 1 0 -18 4
-18 45 -4 27 10 35 9 53 -7 45 -38 30 -44 -208 -85 l-180 -31 -62 20 c-53 17
-64 18 -71 7 -5 -10 -17 -12 -38 -8 -21 4 -35 0 -50 -13 -18 -16 -24 -17 -62
-5 -140 42 -228 61 -352 79 l-140 20 -41 45 c-25 28 -50 70 -63 109 -40 111
-37 108 -50 49 -8 -40 -8 -57 0 -67 9 -11 7 -28 -10 -73 -27 -75 -27 -89 5
-114 26 -20 27 -21 20 -117 -8 -110 0 -140 99 -365 54 -124 178 -481 190 -547
l7 -38 859 0 859 0 0 1800 0 1800 -2400 0 -2400 0 0 -1800z m3867 -2 c6 -7 16
-31 23 -53 12 -37 98 -135 119 -135 33 0 -4 -186 -51 -253 -30 -43 -36 -47
-88 -47 -26 0 -51 -5 -57 -11 -7 -7 -24 -4 -59 13 -47 22 -49 25 -49 64 0 37
-6 47 -57 96 -54 51 -58 58 -58 101 0 60 16 69 50 28 34 -40 45 -29 53 53 7
72 34 106 84 106 24 0 37 7 49 25 18 28 27 31 41 13z"/>
<path d="M1676 1543 c-17 -44 -22 -71 -16 -77 5 -5 11 -8 13 -5 7 10 38 142
34 146 -3 2 -16 -26 -31 -64z"/>
</g>
</svg>
