<?xml version="1.0" standalone="no"?>
<!DOCTYPE svg PUBLIC "-//W3C//DTD SVG 20010904//EN"
 "http://www.w3.org/TR/2001/REC-SVG-20010904/DTD/svg10.dtd">
<svg version="1.0" xmlns="http://www.w3.org/2000/svg"
 width="480.000000pt" height="360.000000pt" viewBox="0 0 480.000000 360.000000"
 preserveAspectRatio="xMidYMid meet">
<metadata>
Created by potrace 1.16, written by Peter Selinger 2001-2019
</metadata>
<rect width="1" height="360" fill="#000000"/>
<rect x="479" width="1" height="360" fill="#000000"/>
<rect width="480" height="1" fill="#000000"/>
<rect y="359" width="480" height="1" fill="#000000"/>
<g transform="translate(0.000000,360.000000) scale(0.100000,-0.100000)"
fill="#000000" stroke="none">
<path d="M2373 1648 c3 -9 1 -19 -6 -22 -9 -3 -8 -7 2 -14 10 -7 10 -14 3 -29
-16 -28 -104 -99 -120 -95 -20 5 -42 -17 -35 -36 4 -9 14 -28 24 -42 12 -17
19 -55 23 -122 4 -54 9 -104 12 -112 5 -14 -32 -36 -98 -59 -15 -5 -16 -11 -6
-37 6 -20 8 -60 4 -103 -5 -58 -3 -77 10 -95 13 -19 15 -36 10 -81 -5 -39 -2
-68 7 -90 12 -28 11 -39 -6 -89 -16 -49 -18 -74 -13 -172 5 -106 16 -234 32
-388 l6 -62 214 0 c166 0 212 3 209 13 -3 7 23 23 73 42 68 27 79 35 96 69
l19 40 -31 60 c-18 34 -64 97 -103 141 -38 44 -93 121 -121 170 -28 50 -66
111 -85 137 -28 38 -32 50 -24 70 6 12 15 43 22 67 l11 44 34 -37 c33 -36 36
-37 57 -23 20 13 22 22 23 128 1 63 4 124 8 136 11 35 -9 61 -51 65 -38 3 -60
28 -25 28 11 0 25 7 32 15 13 15 12 30 -10 153 -12 66 -11 77 3 102 24 40 22
58 -5 53 -18 -3 -35 11 -77 58 -50 56 -53 63 -38 74 16 12 16 13 1 19 -14 5
-14 9 -3 24 13 16 12 16 -4 3 -15 -12 -20 -12 -27 -2 -5 10 -9 10 -15 2 -5 -9
-11 -9 -23 1 -13 11 -15 11 -9 -4z"/>
<path d="M901 1587 c-7 -7 -17 -12 -24 -12 -7 0 -10 -16 -8 -46 2 -45 1 -47
-63 -104 -45 -39 -71 -55 -82 -51 -22 9 -54 -21 -47 -42 4 -10 16 -29 26 -44
18 -25 19 -32 8 -69 -15 -49 -4 -80 34 -97 14 -7 26 -26 35 -56 7 -25 17 -46
21 -46 16 0 9 -20 -8 -27 -45 -16 -56 -42 -59 -137 -5 -135 -17 -161 -95 -207
-35 -21 -86 -51 -113 -67 -35 -22 -66 -32 -115 -37 -37 -4 -73 -10 -80 -14
-20 -13 -89 26 -106 58 -20 40 -37 43 -135 26 -47 -8 -86 -15 -87 -15 -2 0 -3
-69 -3 -153 l0 -152 123 -62 c160 -81 386 -201 414 -219 18 -11 90 -14 403
-14 258 0 380 3 380 10 0 6 -8 28 -19 48 -131 260 -206 401 -225 422 -21 24
-22 30 -15 125 4 55 13 120 19 145 7 25 14 63 17 86 4 38 2 43 -47 92 -29 29
-50 55 -48 58 6 5 45 15 66 16 19 2 52 71 52 110 0 18 -10 61 -21 94 l-22 62
22 35 c27 44 27 43 -8 50 -16 4 -46 20 -65 38 -32 27 -36 36 -30 64 5 27 0 37
-30 70 -20 21 -36 44 -36 51 0 19 -15 25 -29 11z m-129 -1009 c10 -30 -6 -65
-40 -88 -20 -14 -40 -29 -43 -33 -10 -13 -191 -17 -186 -3 2 6 11 10 20 8 8
-1 18 2 22 8 3 5 13 10 22 10 9 0 32 12 52 27 34 27 129 81 143 82 3 1 8 -4
10 -11z m8 -234 c0 -12 -4 -12 -20 -4 -11 6 -18 15 -15 20 8 13 35 0 35 -16z"/>
<path d="M3967 1583 c-3 -4 -1 -29 5 -53 10 -42 8 -49 -19 -90 -17 -25 -38
-64 -48 -87 -11 -24 -25 -43 -33 -43 -7 0 -22 -5 -33 -10 -18 -10 -17 -13 16
-44 26 -25 35 -42 35 -67 0 -18 8 -75 17 -126 13 -72 20 -93 30 -88 10 3 13
-1 11 -12 -2 -11 -15 -20 -33 -23 -27 -5 -31 -10 -39 -53 -6 -38 -5 -52 8 -70
67 -92 70 -99 71 -156 0 -44 -5 -63 -24 -90 -24 -33 -24 -34 -5 -48 23 -17 20
-49 -6 -78 -24 -26 -36 -59 -59 -163 -16 -73 -56 -196 -86 -264 -7 -17 13 -18
338 -18 l345 0 -48 93 c-27 50 -68 139 -91 197 -23 58 -52 121 -65 141 l-22
35 39 79 c48 99 57 151 35 208 -9 24 -16 48 -16 54 0 22 83 0 185 -47 l101
-48 112 6 112 5 0 62 0 62 -62 23 c-35 12 -120 38 -190 58 -69 21 -129 40
-132 43 -3 3 45 67 107 143 142 175 134 163 119 178 -10 10 -15 8 -28 -10 -52
-74 -247 -302 -259 -302 -8 0 -19 9 -25 20 -9 17 -17 20 -45 14 -18 -3 -47 -3
-64 1 -29 6 -30 8 -16 28 8 12 15 36 15 55 0 20 4 31 10 27 6 -3 10 1 10 10 0
9 7 23 15 31 20 20 19 88 -1 105 -16 13 -16 66 1 115 6 19 3 20 -42 18 -26 -1
-54 3 -62 10 -7 6 -43 27 -79 46 -60 32 -67 39 -74 75 -9 42 -22 62 -31 48z"/>
</g>
</svg>
