<?xml version="1.0" standalone="no"?>
<!DOCTYPE svg PUBLIC "-//W3C//DTD SVG 20010904//EN"
 "http://www.w3.org/TR/2001/REC-SVG-20010904/DTD/svg10.dtd">
<svg version="1.0" xmlns="http://www.w3.org/2000/svg"
 width="480.000000pt" height="360.000000pt" viewBox="0 0 480.000000 360.000000"
 preserveAspectRatio="xMidYMid meet">
<metadata>
Created by potrace 1.16, written by Peter Selinger 2001-2019
</metadata>
<rect width="1" height="360" fill="#000000"/>
<rect x="479" width="1" height="360" fill="#000000"/>
<rect width="480" height="1" fill="#000000"/>
<rect y="359" width="480" height="1" fill="#000000"/>
<g transform="translate(0.000000,360.000000) scale(0.100000,-0.100000)"
fill="#000000" stroke="none">
<path d="M2295 1544 c-152 -27 -320 -92 -436 -170 l-68 -45 -118 29 c-209 53
-385 52 -623 -4 -364 -85 -794 -317 -993 -535 l-57 -63 2 -328 3 -328 115 57
c63 31 149 75 190 98 41 23 91 51 110 62 173 98 362 225 612 411 245 183 398
272 480 280 26 2 48 2 48 -2 0 -3 -15 -27 -34 -53 -59 -85 -103 -176 -121
-253 -10 -41 -30 -100 -45 -130 -34 -68 -61 -154 -95 -293 -15 -60 -35 -130
-46 -155 l-20 -47 25 30 c32 38 97 149 113 189 6 17 12 24 12 16 1 -22 -26
-239 -35 -277 l-6 -33 1116 0 1117 0 -3 95 c-2 52 0 95 3 95 4 0 12 -21 19
-47 6 -27 23 -69 37 -95 24 -44 29 -48 65 -48 21 0 38 2 38 4 0 2 -7 20 -15
40 -8 20 -31 102 -49 184 -34 147 -84 296 -112 340 -9 13 -28 69 -44 126 -20
69 -45 130 -80 190 -29 48 -49 90 -46 94 4 3 35 8 70 10 56 4 70 1 112 -24 46
-26 133 -83 144 -94 10 -10 381 -294 430 -330 166 -118 652 -410 684 -410 3 0
6 163 6 363 l0 362 -68 59 c-136 120 -401 271 -612 350 -111 41 -292 89 -403
107 -160 25 -446 -3 -572 -55 -35 -15 -35 -15 -79 23 -176 153 -533 247 -771
205z"/>
</g>
</svg>
