<?xml version="1.0" standalone="no"?>
<!DOCTYPE svg PUBLIC "-//W3C//DTD SVG 20010904//EN"
 "http://www.w3.org/TR/2001/REC-SVG-20010904/DTD/svg10.dtd">
<svg version="1.0" xmlns="http://www.w3.org/2000/svg"
 width="480.000000pt" height="360.000000pt" viewBox="0 0 480.000000 360.000000"
 preserveAspectRatio="xMidYMid meet">
<metadata>
Created by potrace 1.16, written by Peter Selinger 2001-2019
</metadata>
<rect width="1" height="360" fill="#000000"/>
<rect x="479" width="1" height="360" fill="#000000"/>
<rect width="480" height="1" fill="#000000"/>
<rect y="359" width="480" height="1" fill="#000000"/>
<g transform="translate(0.000000,360.000000) scale(0.100000,-0.100000)"
fill="#000000" stroke="none">
<path d="M0 2790 l0 -810 976 0 c613 0 982 4 993 10 10 5 22 26 26 47 4 20 15
54 26 75 25 49 24 68 -7 97 -24 23 -26 31 -23 95 3 100 1 130 -14 150 -11 16
-15 16 -41 2 -20 -10 -35 -12 -47 -6 -18 10 -59 58 -59 69 0 3 16 17 36 30 30
21 39 23 55 13 42 -26 50 -66 -91 448 -34 124 -71 259 -81 300 -11 41 -29 104
-39 140 -10 36 -24 84 -30 108 l-11 42 -834 0 -835 0 0 -810z"/>
<path d="M1754 3584 c5 -13 69 -245 121 -439 81 -300 140 -509 156 -554 l19
-56 -2 55 c-4 99 9 111 94 91 43 -10 54 -2 60 44 2 24 12 34 47 52 56 28 81
19 142 -49 l47 -52 68 17 c109 27 397 17 479 -17 76 -32 152 -154 142 -228 -3
-23 -16 -52 -30 -67 -18 -20 -22 -32 -16 -51 13 -45 10 -86 -9 -103 -28 -26
-65 -21 -97 13 -27 29 -85 43 -85 21 0 -5 -8 -11 -17 -14 -10 -3 -45 -15 -77
-26 -73 -26 -109 -26 -165 -1 -60 28 -64 26 -56 -19 7 -43 -7 -81 -30 -81 -46
0 -14 -62 42 -80 21 -7 52 -23 70 -36 l32 -24 1055 0 1056 0 0 810 0 810
-1526 0 c-1384 0 -1526 -1 -1520 -16z"/>
<path d="M0 950 l0 -950 1325 0 c1055 0 1324 3 1320 13 -2 6 -43 158 -91 337
-48 179 -92 331 -97 338 -12 15 -49 16 -64 1 -7 -7 -9 -31 -6 -63 17 -167
-178 -218 -217 -57 -17 74 -32 82 -131 79 l-83 -3 -10 -34 c-7 -24 -19 -37
-44 -48 -55 -23 -82 -7 -123 72 -12 22 -23 41 -24 43 -1 2 -38 15 -81 31 -158
55 -216 114 -260 261 -36 124 -28 396 17 515 53 141 239 261 439 284 l55 6 -1
60 0 60 -962 3 -962 2 0 -950z"/>
<path d="M2663 1887 c-18 -6 -33 -16 -33 -23 0 -6 -6 -17 -14 -23 -11 -10 -13
-28 -9 -79 7 -79 -2 -92 -72 -100 -37 -4 -46 -9 -51 -29 -12 -46 15 -110 68
-161 108 -103 173 -223 185 -339 7 -64 -21 -150 -75 -230 l-35 -54 37 -92 c38
-91 150 -351 268 -619 l61 -138 904 0 903 0 0 950 0 950 -1052 -1 c-715 -1
-1063 -5 -1085 -12z"/>
<path d="M2539 748 c-3 -30 28 -157 80 -333 5 -16 32 -117 61 -222 l53 -193
59 0 c32 0 58 3 58 8 0 9 -67 189 -80 217 -6 11 -19 45 -29 75 -29 82 -125
327 -154 391 -25 57 -46 81 -48 57z"/>
</g>
</svg>
