<?xml version="1.0" standalone="no"?>
<!DOCTYPE svg PUBLIC "-//W3C//DTD SVG 20010904//EN"
 "http://www.w3.org/TR/2001/REC-SVG-20010904/DTD/svg10.dtd">
<svg version="1.0" xmlns="http://www.w3.org/2000/svg"
 width="480.000000pt" height="360.000000pt" viewBox="0 0 480.000000 360.000000"
 preserveAspectRatio="xMidYMid meet">
<metadata>
Created by potrace 1.16, written by Peter Selinger 2001-2019
</metadata>
<rect width="1" height="360" fill="#000000"/>
<rect x="479" width="1" height="360" fill="#000000"/>
<rect width="480" height="1" fill="#000000"/>
<rect y="359" width="480" height="1" fill="#000000"/>
<g transform="translate(0.000000,360.000000) scale(0.100000,-0.100000)"
fill="#000000" stroke="none">
<path d="M2880 3588 c1 -25 46 -124 78 -170 38 -56 39 -58 9 -58 -44 0 -169
-41 -250 -82 -160 -80 -262 -162 -332 -268 -26 -38 -50 -72 -55 -75 -10 -6
-49 -109 -85 -228 -17 -53 -41 -105 -62 -132 -19 -25 -31 -45 -28 -45 13 0 50
24 68 44 l18 21 -6 -29 c-15 -72 -17 -91 -6 -76 8 11 10 -9 6 -75 -4 -73 -3
-86 6 -67 7 12 15 22 19 22 4 0 13 -26 21 -57 l13 -58 6 45 6 45 8 -35 c5 -19
15 -48 23 -64 12 -22 17 -26 24 -15 5 8 9 9 9 3 0 -5 7 -19 16 -30 13 -16 15
-16 10 -2 -3 10 -1 20 4 23 4 3 14 -11 20 -30 6 -19 15 -33 20 -30 4 3 13 -2
20 -10 7 -8 16 -12 21 -9 5 3 12 -2 15 -10 11 -28 24 -17 18 14 -4 19 -2 30 5
30 14 0 14 -69 0 -107 -5 -15 -27 -45 -47 -66 -43 -44 -40 -54 29 -103 35 -24
45 -37 47 -65 4 -39 27 -69 53 -69 38 0 49 -12 49 -50 0 -24 5 -40 14 -43 8
-3 33 -34 56 -69 39 -58 42 -66 37 -113 -3 -27 -8 -60 -12 -72 -6 -20 -4 -23
20 -23 24 0 26 -3 21 -27 -4 -14 -3 -29 2 -32 9 -5 62 -269 62 -305 0 -18
-120 -117 -131 -110 -5 3 -16 20 -24 38 -9 18 -37 57 -64 87 -26 30 -60 77
-75 106 -14 29 -39 67 -55 85 -28 32 -28 35 -21 108 17 181 -39 344 -137 391
-39 19 -56 21 -146 16 -56 -3 -111 -7 -122 -9 -17 -2 -21 4 -25 41 -3 25 -10
46 -17 48 -18 6 -26 -38 -13 -71 5 -15 8 -31 5 -36 -3 -5 -40 -20 -83 -34 -43
-15 -96 -42 -121 -61 -24 -19 -47 -35 -51 -35 -11 0 -26 -43 -49 -140 l-21
-85 25 -80 c14 -44 25 -87 25 -95 1 -83 142 -263 227 -290 21 -7 41 -16 46
-19 4 -4 -7 -39 -24 -77 -60 -131 -79 -232 -94 -489 -4 -60 -15 -152 -26 -204
-10 -51 -19 -99 -19 -107 0 -12 51 -14 305 -14 l305 0 46 93 c43 86 142 233
150 224 3 -2 0 -35 -6 -73 -5 -38 -10 -108 -10 -156 l0 -88 886 0 c488 0 892
4 898 9 6 4 34 16 61 26 56 21 154 76 155 88 0 4 -13 7 -30 7 -16 0 -30 3 -30
8 0 4 16 27 35 51 19 24 35 46 35 49 0 3 -26 2 -58 0 -51 -5 -70 -14 -166 -78
-59 -39 -125 -78 -147 -85 -37 -13 -40 -13 -53 8 -23 36 -63 139 -70 182 -4
22 -14 50 -21 61 -8 12 -12 30 -9 40 3 11 -9 75 -26 144 -17 69 -36 148 -42
175 -6 28 -16 56 -22 64 -6 8 -10 22 -8 32 2 10 -4 31 -12 48 -18 35 -20 51
-6 51 6 0 10 -6 10 -14 0 -8 5 -18 11 -22 8 -4 9 1 5 17 l-7 24 18 -21 c10
-11 23 -19 29 -17 5 2 36 -52 69 -119 72 -150 76 -140 40 95 -32 217 -32 226
6 157 32 -59 57 -90 45 -55 -21 58 -57 194 -66 248 -13 82 -13 247 0 227 5 -8
10 -25 10 -37 0 -36 77 -230 122 -307 59 -104 100 -167 104 -163 2 2 -7 35
-21 74 -28 82 -61 210 -69 273 l-6 45 28 -50 c32 -58 139 -212 153 -220 12 -8
12 -1 -11 106 -23 109 -33 220 -55 594 -32 546 -90 834 -235 1175 -32 74 -61
151 -65 170 -20 97 -98 232 -180 309 -79 75 -130 95 -238 97 l-89 1 -50 66
-50 67 -324 0 c-253 0 -324 -3 -324 -12z m197 -2087 c10 -16 8 -22 -8 -37 -18
-17 -19 -16 -19 19 0 41 9 47 27 18z"/>
</g>
</svg>
