<?xml version="1.0" standalone="no"?>
<!DOCTYPE svg PUBLIC "-//W3C//DTD SVG 20010904//EN"
 "http://www.w3.org/TR/2001/REC-SVG-20010904/DTD/svg10.dtd">
<svg version="1.0" xmlns="http://www.w3.org/2000/svg"
 width="480.000000pt" height="360.000000pt" viewBox="0 0 480.000000 360.000000"
 preserveAspectRatio="xMidYMid meet">
<metadata>
Created by potrace 1.16, written by Peter Selinger 2001-2019
</metadata>
<rect width="1" height="360" fill="#000000"/>
<rect x="479" width="1" height="360" fill="#000000"/>
<rect width="480" height="1" fill="#000000"/>
<rect y="359" width="480" height="1" fill="#000000"/>
<g transform="translate(0.000000,360.000000) scale(0.100000,-0.100000)"
fill="#000000" stroke="none">
<path d="M0 1800 l0 -1800 2400 0 2400 0 0 1800 0 1800 -382 0 -383 0 0 -207
c0 -196 -2 -214 -29 -318 -76 -295 -240 -536 -493 -727 -122 -92 -198 -132
-359 -187 -132 -45 -237 -60 -430 -61 -239 0 -506 83 -689 217 -79 57 -256
231 -298 291 -17 26 -44 63 -58 82 -69 92 -159 318 -190 482 -13 68 -16 318
-4 386 l7 42 -746 0 -746 0 0 -1800z"/>
</g>
</svg>
