<?xml version="1.0" standalone="no"?>
<!DOCTYPE svg PUBLIC "-//W3C//DTD SVG 20010904//EN"
 "http://www.w3.org/TR/2001/REC-SVG-20010904/DTD/svg10.dtd">
<svg version="1.0" xmlns="http://www.w3.org/2000/svg"
 width="480.000000pt" height="360.000000pt" viewBox="0 0 480.000000 360.000000"
 preserveAspectRatio="xMidYMid meet">
<metadata>
Created by potrace 1.16, written by Peter Selinger 2001-2019
</metadata>
<rect width="1" height="360" fill="#000000"/>
<rect x="479" width="1" height="360" fill="#000000"/>
<rect width="480" height="1" fill="#000000"/>
<rect y="359" width="480" height="1" fill="#000000"/>
<g transform="translate(0.000000,360.000000) scale(0.100000,-0.100000)"
fill="#000000" stroke="none">
<path d="M0 1800 l0 -1800 961 0 962 0 -26 20 c-51 40 -54 102 -12 235 8 28
24 91 35 140 11 50 43 160 70 247 l51 156 -21 34 c-22 37 -25 79 -9 127 9 27
9 36 -3 48 -14 13 -12 25 13 104 76 236 132 486 129 585 0 22 9 62 20 88 20
44 21 54 11 153 -11 106 -11 107 14 145 39 59 29 67 -22 15 -25 -26 -53 -47
-60 -47 -20 0 -73 58 -73 79 0 9 4 21 8 28 13 20 101 53 160 59 88 8 102 13
102 32 0 15 11 17 85 17 75 0 85 -2 85 -17 0 -14 9 -18 43 -18 53 0 165 -26
194 -46 27 -17 29 -43 7 -85 -11 -22 -21 -30 -34 -26 -27 7 -47 -13 -53 -53
-8 -56 12 -198 33 -240 24 -48 28 -89 4 -50 -14 24 -14 22 -10 -30 12 -165 42
-294 125 -542 48 -143 49 -147 30 -164 -15 -14 -17 -26 -12 -74 5 -48 2 -66
-16 -103 l-22 -46 39 -123 c22 -68 50 -166 62 -218 12 -52 28 -115 36 -140 49
-161 49 -229 -3 -270 l-26 -20 962 0 961 0 0 1800 0 1800 -2400 0 -2400 0 0
-1800z"/>
<path d="M2166 1744 c-4 -9 -4 -19 -1 -22 2 -3 7 3 11 12 4 9 4 19 1 22 -2 3
-7 -3 -11 -12z"/>
<path d="M2375 20 c-18 -20 -17 -20 25 -20 42 0 43 0 25 20 -10 11 -21 20 -25
20 -4 0 -15 -9 -25 -20z"/>
</g>
</svg>
