<?xml version="1.0" standalone="no"?>
<!DOCTYPE svg PUBLIC "-//W3C//DTD SVG 20010904//EN"
 "http://www.w3.org/TR/2001/REC-SVG-20010904/DTD/svg10.dtd">
<svg version="1.0" xmlns="http://www.w3.org/2000/svg"
 width="480.000000pt" height="360.000000pt" viewBox="0 0 480.000000 360.000000"
 preserveAspectRatio="xMidYMid meet">
<metadata>
Created by potrace 1.16, written by Peter Selinger 2001-2019
</metadata>
<rect width="1" height="360" fill="#000000"/>
<rect x="479" width="1" height="360" fill="#000000"/>
<rect width="480" height="1" fill="#000000"/>
<rect y="359" width="480" height="1" fill="#000000"/>
<g transform="translate(0.000000,360.000000) scale(0.100000,-0.100000)"
fill="#000000" stroke="none">
<path d="M0 1800 l0 -1800 1008 0 1009 0 6 118 c3 65 16 174 27 242 20 115 21
134 10 232 -10 84 -10 121 0 171 10 55 9 73 -5 125 -13 46 -14 64 -6 81 7 12
9 25 6 30 -3 5 -7 81 -9 168 -4 142 -6 163 -26 197 -18 30 -25 35 -35 24 -6
-7 -35 -41 -64 -76 -30 -34 -73 -74 -97 -88 -53 -31 -70 -30 -235 14 -64 17
-152 34 -195 37 -130 10 -144 14 -156 41 -7 15 -23 27 -40 31 -24 5 -28 10
-28 38 l0 32 -86 7 c-92 7 -315 57 -370 84 -49 23 -45 46 6 39 l40 -5 -20 25
c-21 27 -26 53 -11 53 4 0 25 -13 46 -30 48 -38 69 -40 53 -6 -6 14 -8 32 -4
42 6 15 9 15 30 -5 21 -20 28 -21 63 -12 26 7 50 7 73 1 19 -6 51 -10 71 -10
20 0 62 -13 93 -29 52 -26 58 -27 66 -11 7 14 24 17 82 18 59 0 86 -5 143 -30
54 -23 268 -88 289 -88 2 0 37 60 77 133 61 108 73 139 71 168 -4 43 26 83
109 146 60 45 78 76 72 121 -5 30 1 39 58 96 35 35 72 67 82 73 10 5 20 26 24
48 6 35 4 38 -13 30 -82 -33 -62 -44 -197 105 -8 8 -22 20 -33 26 -18 11 -18
12 3 36 l23 24 -29 28 c-17 16 -43 29 -61 31 -36 3 -89 57 -90 92 0 29 -16 38
-29 16 -21 -36 -11 12 23 118 56 171 70 193 154 249 21 14 22 18 10 71 -6 31
-9 62 -6 71 9 22 106 32 135 13 34 -23 50 -9 74 63 21 65 37 101 59 132 9 13
13 11 30 -10 l19 -25 45 44 46 45 26 -25 c30 -28 112 -145 141 -204 32 -62 43
-113 32 -143 -9 -23 -5 -30 34 -68 52 -49 117 -175 147 -284 24 -89 43 -197
70 -420 19 -151 26 -180 84 -345 112 -314 170 -545 137 -545 -5 0 -12 7 -15
16 -10 25 -16 13 -31 -60 -12 -57 -12 -72 0 -107 21 -59 20 -70 -30 -219 -40
-117 -69 -241 -90 -383 -5 -28 -14 -43 -34 -55 l-28 -16 -8 -170 c-4 -94 -7
-180 -8 -191 0 -11 0 -57 1 -102 l2 -83 990 0 990 0 0 1800 0 1800 -2400 0
-2400 0 0 -1800z"/>
<path d="M2087 1138 c8 -70 13 -74 13 -10 0 28 -4 53 -10 57 -5 3 -7 -15 -3
-47z"/>
</g>
</svg>
