<?xml version="1.0" standalone="no"?>
<!DOCTYPE svg PUBLIC "-//W3C//DTD SVG 20010904//EN"
 "http://www.w3.org/TR/2001/REC-SVG-20010904/DTD/svg10.dtd">
<svg version="1.0" xmlns="http://www.w3.org/2000/svg"
 width="480.000000pt" height="360.000000pt" viewBox="0 0 480.000000 360.000000"
 preserveAspectRatio="xMidYMid meet">
<metadata>
Created by potrace 1.16, written by Peter Selinger 2001-2019
</metadata>
<rect width="1" height="360" fill="#000000"/>
<rect x="479" width="1" height="360" fill="#000000"/>
<rect width="480" height="1" fill="#000000"/>
<rect y="359" width="480" height="1" fill="#000000"/>
<g transform="translate(0.000000,360.000000) scale(0.100000,-0.100000)"
fill="#000000" stroke="none">
<path d="M0 1800 l0 -1800 235 0 234 0 10 38 c6 20 15 60 21 87 5 28 12 60 15
73 4 15 1 22 -10 22 -8 0 -24 19 -36 42 -20 39 -20 43 -5 75 9 19 13 45 10 61
-5 23 -1 32 19 45 38 25 44 98 13 162 -23 48 -23 50 -5 53 16 3 19 12 19 57 0
47 3 57 25 71 27 18 36 60 10 50 -45 -17 -125 72 -125 138 0 31 5 39 34 52 51
25 86 86 88 159 4 126 6 154 18 295 7 80 12 183 12 230 -1 79 -3 87 -27 108
-20 17 -30 20 -45 12 -44 -24 -109 2 -75 30 8 6 14 19 13 28 -1 10 14 51 34
92 57 117 58 134 4 203 -85 109 -122 259 -107 431 8 89 15 120 40 171 40 81
126 162 257 242 216 132 287 161 471 188 59 9 126 20 148 25 22 5 71 10 108
10 l68 0 -7 79 c-7 86 1 155 17 145 5 -3 53 -72 106 -152 57 -88 116 -165 146
-192 68 -60 139 -172 166 -261 33 -108 68 -177 99 -193 15 -8 57 -21 95 -31
53 -13 74 -14 99 -6 17 6 32 11 33 11 1 0 15 -11 30 -24 22 -19 33 -22 52 -15
33 12 36 -3 15 -90 -23 -100 -43 -110 -114 -59 -15 10 -21 10 -35 0 -10 -7
-26 -15 -35 -18 -22 -8 -22 -8 -4 -42 7 -15 16 -45 19 -67 3 -22 8 -48 12 -57
5 -13 2 -18 -9 -18 -11 0 -16 -9 -16 -27 0 -16 -7 -39 -15 -53 -8 -14 -18 -33
-21 -42 -7 -21 -24 -24 -24 -5 0 8 -4 7 -10 -3 -5 -8 -10 -30 -10 -49 0 -25
-4 -32 -15 -27 -8 3 -19 -2 -24 -12 -9 -15 -10 -15 -11 4 0 38 -14 36 -53 -8
l-39 -43 5 -125 c4 -103 8 -133 26 -168 26 -52 14 -54 -29 -6 -17 20 -32 35
-33 33 -16 -27 -47 -103 -47 -114 0 -8 -4 -15 -9 -15 -5 0 -14 -14 -21 -30 -7
-17 -27 -42 -44 -56 -29 -25 -35 -26 -101 -20 -38 3 -82 9 -97 12 -27 6 -28 5
-28 -34 0 -45 2 -47 90 -57 47 -6 361 -69 397 -80 7 -2 19 -19 29 -36 15 -31
15 -33 -2 -46 -10 -7 -24 -11 -32 -8 -15 5 -10 -4 25 -51 29 -38 92 -175 128
-276 34 -95 43 -105 84 -84 51 27 62 22 40 -20 -23 -46 -33 -113 -24 -160 8
-43 90 -127 143 -146 17 -7 32 -16 32 -20 0 -5 -20 -17 -45 -28 -52 -22 -56
-37 -23 -104 24 -51 58 -70 50 -28 l-5 25 99 -7 c54 -3 114 -9 132 -12 24 -5
32 -3 32 9 0 32 24 35 138 12 110 -21 114 -21 125 -3 15 24 27 23 146 -8 92
-23 102 -24 117 -10 20 20 13 21 125 -18 86 -31 98 -33 112 -19 13 13 24 11
107 -26 73 -33 95 -39 106 -30 11 9 31 2 95 -35 49 -29 87 -45 98 -41 12 4 36
-10 73 -40 30 -25 63 -45 72 -45 10 0 35 -18 56 -40 l38 -40 351 0 351 0 0
1800 0 1800 -2400 0 -2400 0 0 -1800z m2447 1636 c10 -10 -2 -16 -57 -31 -45
-12 -58 -12 -87 0 -34 14 -42 29 -20 39 16 7 155 1 164 -8z m908 -1289 c33
-25 8 -37 -74 -37 -42 0 -82 -5 -88 -11 -7 -7 -13 -7 -17 -1 -4 6 13 22 36 36
48 29 113 34 143 13z"/>
<path d="M1098 1433 c-15 -4 -33 -31 -25 -39 8 -8 87 20 84 30 -4 12 -32 17
-59 9z"/>
<path d="M1020 1385 c0 -9 6 -12 15 -9 8 4 15 10 15 15 0 5 -7 9 -15 9 -8 0
-15 -7 -15 -15z"/>
<path d="M936 111 c8 -103 11 -111 39 -111 23 0 25 4 25 48 0 26 -3 63 -6 84
-5 30 -11 37 -35 40 l-28 4 5 -65z"/>
</g>
</svg>
