<?xml version="1.0" standalone="no"?>
<!DOCTYPE svg PUBLIC "-//W3C//DTD SVG 20010904//EN"
 "http://www.w3.org/TR/2001/REC-SVG-20010904/DTD/svg10.dtd">
<svg version="1.0" xmlns="http://www.w3.org/2000/svg"
 width="480.000000pt" height="360.000000pt" viewBox="0 0 480.000000 360.000000"
 preserveAspectRatio="xMidYMid meet">
<metadata>
Created by potrace 1.16, written by Peter Selinger 2001-2019
</metadata>
<rect width="1" height="360" fill="#000000"/>
<rect x="479" width="1" height="360" fill="#000000"/>
<rect width="480" height="1" fill="#000000"/>
<rect y="359" width="480" height="1" fill="#000000"/>
<g transform="translate(0.000000,360.000000) scale(0.100000,-0.100000)"
fill="#000000" stroke="none">
<path d="M0 1800 l0 -1800 304 0 304 0 7 46 c8 56 69 176 120 238 74 88 217
192 371 269 165 83 486 178 694 206 41 6 104 15 140 20 36 5 102 11 147 13
l82 3 7 30 c8 39 38 98 58 114 26 21 19 35 -27 54 -71 29 -133 90 -157 155
-28 73 -24 176 9 241 55 106 179 179 287 168 110 -11 212 -86 243 -176 14 -42
14 -134 1 -180 -15 -53 -68 -133 -105 -161 -19 -14 -35 -28 -35 -32 0 -3 21
-16 46 -29 46 -22 104 -94 104 -129 0 -32 25 -52 71 -56 24 -1 89 -8 144 -13
519 -53 951 -217 1184 -450 95 -95 155 -198 167 -284 l7 -47 313 0 314 0 0
1800 0 1800 -2400 0 -2400 0 0 -1800z"/>
<path d="M2075 760 c-322 -34 -682 -158 -895 -308 -125 -89 -237 -224 -261
-316 -6 -23 -14 -56 -19 -74 -5 -19 -6 -40 -3 -48 4 -12 222 -14 1494 -14
1340 0 1490 2 1496 16 10 27 -25 142 -66 212 -73 126 -201 231 -396 327 -147
73 -287 122 -455 159 -119 27 -339 60 -346 53 -10 -9 24 -539 35 -550 6 -6 11
-25 11 -42 0 -128 -349 -182 -504 -77 -50 34 -61 64 -41 106 12 23 19 84 25
251 5 121 10 231 11 245 2 45 -1 70 -8 69 -5 -1 -39 -5 -78 -9z"/>
</g>
</svg>
