<?xml version="1.0" standalone="no"?>
<!DOCTYPE svg PUBLIC "-//W3C//DTD SVG 20010904//EN"
 "http://www.w3.org/TR/2001/REC-SVG-20010904/DTD/svg10.dtd">
<svg version="1.0" xmlns="http://www.w3.org/2000/svg"
 width="480.000000pt" height="360.000000pt" viewBox="0 0 480.000000 360.000000"
 preserveAspectRatio="xMidYMid meet">
<metadata>
Created by potrace 1.16, written by Peter Selinger 2001-2019
</metadata>
<rect width="1" height="360" fill="#000000"/>
<rect x="479" width="1" height="360" fill="#000000"/>
<rect width="480" height="1" fill="#000000"/>
<rect y="359" width="480" height="1" fill="#000000"/>
<g transform="translate(0.000000,360.000000) scale(0.100000,-0.100000)"
fill="#000000" stroke="none">
<path d="M331 3577 c-18 -34 -9 -233 16 -382 12 -66 29 -181 38 -255 17 -133
17 -136 -4 -217 -24 -92 -26 -125 -10 -154 8 -16 7 -25 -5 -38 -9 -10 -16 -25
-16 -35 0 -18 41 -63 74 -81 10 -6 19 -26 23 -51 5 -37 3 -42 -18 -49 -13 -4
-26 -8 -29 -9 -3 -1 -21 -6 -40 -10 -19 -5 -42 -14 -50 -21 -8 -7 -24 -15 -35
-16 -11 -2 -28 -20 -37 -39 -23 -45 -17 -48 111 -56 64 -5 101 -11 100 -18 -5
-39 2 -46 39 -46 34 0 41 -5 86 -66 26 -36 54 -68 62 -71 21 -8 83 17 88 35 2
9 8 50 11 90 7 67 9 74 36 88 33 16 36 26 14 44 -21 18 -19 23 18 45 17 10 56
37 85 59 l53 41 -26 22 c-21 19 -35 22 -86 19 l-61 -4 6 46 c3 26 18 64 32 85
14 21 27 46 29 55 2 10 7 26 11 37 7 18 6 19 -11 5 -17 -14 -18 -13 -11 5 15
38 46 155 46 174 0 10 -7 22 -16 25 -11 4 -15 14 -12 31 4 19 1 25 -11 23 -9
-2 -15 3 -14 10 4 15 -9 16 -25 0 -9 -9 -17 -9 -36 1 -18 10 -29 10 -45 2 -19
-11 -21 -9 -21 16 0 51 82 172 195 288 120 123 170 189 161 211 -3 9 -1 24 4
34 16 30 -8 62 -43 57 -15 -2 -32 2 -38 9 -6 8 -33 17 -60 20 -31 4 -65 18
-89 35 l-40 29 -218 0 -219 0 -12 -23z"/>
<path d="M2400 1800 l0 -1800 834 0 834 0 15 39 c30 75 47 158 57 291 6 74 17
159 24 188 14 50 13 55 -5 73 -27 27 -42 24 -98 -16 -87 -63 -105 -46 -106 97
l0 76 -49 -3 c-61 -4 -76 2 -76 26 0 10 -7 19 -15 19 -8 0 -15 7 -15 15 0 8 7
30 15 50 8 19 22 50 30 69 11 26 11 36 2 40 -7 3 1 17 23 37 115 105 147 141
158 177 16 51 15 62 -3 62 -21 0 -19 13 6 41 13 15 18 30 13 44 -11 34 -15 89
-7 100 11 15 119 65 157 72 17 4 55 22 84 42 l54 35 19 -24 c25 -33 35 -88 20
-112 -10 -15 -8 -24 9 -47 25 -37 26 -76 0 -108 -11 -14 -20 -31 -20 -39 0 -7
-12 -26 -26 -43 l-26 -31 75 -72 c77 -75 98 -117 84 -169 -9 -34 2 -50 24 -38
21 11 27 61 7 56 -7 -1 -14 8 -16 20 -2 17 3 24 21 28 34 9 66 -10 72 -43 3
-15 12 -47 20 -72 35 -105 14 -162 -91 -258 -91 -82 -91 -85 -28 -277 38 -116
74 -277 74 -332 0 -10 32 -13 125 -13 l125 0 0 1800 0 1800 -1200 0 -1200 0 0
-1800z"/>
</g>
</svg>
