<?xml version="1.0" standalone="no"?>
<!DOCTYPE svg PUBLIC "-//W3C//DTD SVG 20010904//EN"
 "http://www.w3.org/TR/2001/REC-SVG-20010904/DTD/svg10.dtd">
<svg version="1.0" xmlns="http://www.w3.org/2000/svg"
 width="480.000000pt" height="360.000000pt" viewBox="0 0 480.000000 360.000000"
 preserveAspectRatio="xMidYMid meet">
<metadata>
Created by potrace 1.16, written by Peter Selinger 2001-2019
</metadata>
<rect width="1" height="360" fill="#000000"/>
<rect x="479" width="1" height="360" fill="#000000"/>
<rect width="480" height="1" fill="#000000"/>
<rect y="359" width="480" height="1" fill="#000000"/>
<g transform="translate(0.000000,360.000000) scale(0.100000,-0.100000)"
fill="#000000" stroke="none">
<path d="M0 3035 l0 -564 35 20 c19 11 62 27 95 35 112 26 111 25 114 145 4
155 60 302 158 421 95 115 186 156 377 168 l136 9 102 105 c130 133 168 163
187 147 14 -11 86 -173 86 -192 0 -4 9 -33 21 -63 18 -50 24 -57 59 -66 117
-32 257 -126 341 -230 138 -172 190 -426 116 -567 -35 -68 -34 -90 8 -193 37
-91 36 -99 -17 -126 l-28 -15 0 -107 c0 -131 7 -157 70 -262 50 -84 59 -107
25 -70 -34 37 -35 20 -4 -41 16 -34 29 -63 26 -65 -2 -2 -22 10 -44 26 l-41
30 2 -147 2 -148 32 -32 c24 -23 32 -40 32 -67 0 -39 -18 -57 -32 -32 -11 19
-47 21 -54 2 -3 -7 18 -49 47 -94 l51 -81 57 25 c31 13 68 33 82 43 14 11 61
29 105 41 43 12 93 28 109 36 39 18 187 42 345 56 95 8 149 8 225 -1 55 -7
120 -14 145 -16 25 -2 74 -13 110 -24 36 -11 74 -21 85 -21 33 0 242 -93 340
-150 180 -106 350 -261 468 -428 76 -106 181 -307 173 -329 -3 -8 -59 -39
-123 -70 -65 -31 -158 -75 -208 -99 l-90 -43 538 -1 537 0 0 1800 0 1800
-2400 0 -2400 0 0 -565z m4078 423 c8 -8 9 -15 1 -25 -15 -17 -34 -17 -49 2
-23 28 21 50 48 23z m-738 -398 c0 -5 -12 -10 -26 -10 -14 0 -23 4 -19 10 3 6
15 10 26 10 10 0 19 -4 19 -10z m-642 -532 c35 -45 18 -146 -34 -207 -30 -34
-33 -35 -50 -20 -11 9 -27 19 -36 22 -27 10 -24 79 6 126 24 37 80 91 96 91 4
0 12 -6 18 -12z m226 -314 c7 -18 -9 -96 -28 -133 -16 -30 -50 -63 -83 -80
-20 -10 -24 -8 -39 20 -30 59 -3 159 49 178 31 12 81 29 88 30 4 1 10 -6 13
-15z m807 -1069 c0 -13 -41 -19 -41 -7 0 11 20 22 33 18 5 -1 8 -6 8 -11z"/>
<path d="M0 1963 c0 -170 4 -273 9 -267 39 39 190 367 194 419 2 21 -11 30
-100 74 l-103 50 0 -276z"/>
<path d="M0 864 c0 -366 4 -603 9 -599 5 3 17 27 27 53 10 26 21 52 25 58 5 6
12 43 15 83 5 55 4 75 -6 81 -7 4 -18 24 -25 44 -13 36 -12 36 15 36 25 0 29
4 35 43 4 23 12 48 17 55 6 6 17 45 25 85 7 39 16 84 19 99 4 18 -2 43 -16 73
-21 43 -21 46 -5 94 9 27 21 54 28 59 7 6 77 44 158 85 134 69 214 100 328
128 51 12 46 20 -28 49 -51 20 -54 20 -66 3 -13 -17 -13 -17 -12 2 2 19 -4 20
-93 19 -78 -1 -106 -6 -157 -28 -83 -35 -128 -34 -184 3 -24 17 -55 41 -68 55
-14 14 -28 26 -33 26 -4 0 -8 -273 -8 -606z"/>
<path d="M1770 1262 c0 -5 11 -14 25 -20 23 -11 24 -10 13 8 -13 20 -38 28
-38 12z"/>
<path d="M1 113 c-1 -113 -1 -113 23 -113 26 0 38 32 52 138 l7 53 -36 -6
c-32 -6 -36 -4 -40 17 -2 12 -5 -28 -6 -89z"/>
<path d="M510 55 c0 -42 3 -55 15 -55 16 0 20 44 9 88 -11 40 -24 23 -24 -33z"/>
</g>
</svg>
