<?xml version="1.0" standalone="no"?>
<!DOCTYPE svg PUBLIC "-//W3C//DTD SVG 20010904//EN"
 "http://www.w3.org/TR/2001/REC-SVG-20010904/DTD/svg10.dtd">
<svg version="1.0" xmlns="http://www.w3.org/2000/svg"
 width="480.000000pt" height="360.000000pt" viewBox="0 0 480.000000 360.000000"
 preserveAspectRatio="xMidYMid meet">
<metadata>
Created by potrace 1.16, written by Peter Selinger 2001-2019
</metadata>
<rect width="1" height="360" fill="#000000"/>
<rect x="479" width="1" height="360" fill="#000000"/>
<rect width="480" height="1" fill="#000000"/>
<rect y="359" width="480" height="1" fill="#000000"/>
<g transform="translate(0.000000,360.000000) scale(0.100000,-0.100000)"
fill="#000000" stroke="none">
<path d="M1642 2800 c-44 -15 -54 -15 -59 -4 -14 38 -77 -1 -67 -42 4 -13 1
-37 -4 -52 -30 -75 -9 -163 43 -176 28 -7 32 -18 10 -36 -12 -10 -8 -20 31
-71 25 -32 50 -59 56 -59 6 0 -8 -17 -31 -38 -40 -36 -42 -41 -30 -60 12 -19
10 -25 -17 -54 -51 -56 -65 -76 -68 -91 -1 -8 -7 -21 -13 -28 -34 -44 -43 -81
-34 -141 0 -4 20 -20 42 -34 l42 -26 -6 -67 c-4 -49 -13 -81 -34 -117 -16 -27
-27 -57 -25 -67 2 -10 -6 -46 -19 -79 -15 -42 -19 -62 -11 -67 8 -5 4 -30 -13
-85 -31 -95 -47 -196 -79 -486 -35 -310 -58 -681 -47 -750 10 -61 26 -78 129
-135 l63 -35 245 0 c236 0 263 3 298 31 6 5 21 17 34 27 40 30 45 84 22 290
-11 103 -27 286 -35 407 -9 121 -23 258 -31 305 -19 106 -68 293 -94 362 -24
63 -23 58 -5 58 22 0 19 10 -16 46 l-30 31 35 89 c20 48 36 97 36 108 0 11
-10 60 -22 108 -20 84 -20 89 -4 107 17 18 17 20 0 29 -14 8 -16 19 -11 61 5
41 0 70 -20 134 -14 45 -32 89 -39 98 -15 17 -18 30 -6 27 4 -2 18 7 32 20 13
12 29 21 35 20 16 -4 75 57 75 76 0 9 5 16 10 16 14 0 3 63 -21 119 -11 24
-19 54 -19 66 0 34 -104 151 -152 169 -50 21 -110 19 -176 -4z"/>
</g>
</svg>
