<?xml version="1.0" standalone="no"?>
<!DOCTYPE svg PUBLIC "-//W3C//DTD SVG 20010904//EN"
 "http://www.w3.org/TR/2001/REC-SVG-20010904/DTD/svg10.dtd">
<svg version="1.0" xmlns="http://www.w3.org/2000/svg"
 width="480.000000pt" height="360.000000pt" viewBox="0 0 480.000000 360.000000"
 preserveAspectRatio="xMidYMid meet">
<metadata>
Created by potrace 1.16, written by Peter Selinger 2001-2019
</metadata>
<rect width="1" height="360" fill="#000000"/>
<rect x="479" width="1" height="360" fill="#000000"/>
<rect width="480" height="1" fill="#000000"/>
<rect y="359" width="480" height="1" fill="#000000"/>
<g transform="translate(0.000000,360.000000) scale(0.100000,-0.100000)"
fill="#000000" stroke="none">
<path d="M0 1800 l0 -1800 601 0 c477 0 600 3 596 13 -3 6 -50 106 -105 222
-109 229 -132 288 -132 339 0 44 45 128 120 226 36 48 64 96 71 124 7 30 23
56 49 80 22 20 41 49 45 68 25 112 131 201 292 243 32 8 90 31 129 51 l71 36
7 212 c7 206 7 214 -19 320 -18 72 -27 141 -28 202 l-2 94 -50 0 c-81 0 -236
29 -276 52 -32 18 -42 19 -70 9 -43 -15 -59 -14 -59 3 0 21 129 183 194 244
31 29 56 55 56 57 0 2 -20 15 -45 29 -66 39 -168 127 -158 137 4 4 56 16 116
25 122 19 115 9 92 127 -17 88 -20 177 -6 177 5 0 67 -61 139 -135 l130 -135
49 22 c75 33 272 57 523 64 245 7 295 1 328 -40 l18 -24 41 27 c23 14 47 37
53 51 27 58 134 240 141 240 5 0 6 -21 2 -48 -3 -26 0 -96 6 -156 11 -98 15
-111 41 -137 15 -16 32 -45 37 -65 l8 -37 145 -36 c79 -20 145 -41 147 -47 4
-13 -73 -56 -180 -100 l-80 -32 34 -15 c19 -7 40 -21 48 -31 12 -14 11 -19 -3
-35 -24 -27 -95 -55 -201 -81 -49 -13 -95 -24 -102 -26 -9 -2 -8 -11 4 -35 12
-25 14 -44 7 -98 -9 -69 -9 -96 -2 -594 l5 -307 59 -38 c81 -53 130 -111 175
-206 106 -226 115 -338 35 -433 -21 -25 -27 -42 -26 -80 0 -26 -2 -82 -6 -123
-3 -47 0 -120 10 -197 9 -67 16 -140 16 -162 l0 -41 855 0 855 0 0 1800 0
1800 -2400 0 -2400 0 0 -1800z"/>
<path d="M2330 1669 c-14 -6 -53 -9 -87 -7 -76 4 -67 -13 10 -20 37 -3 63 1
85 12 48 25 42 35 -8 15z"/>
<path d="M1615 699 c-11 -4 -42 -8 -69 -8 -39 -1 -55 -7 -82 -31 -19 -16 -47
-32 -62 -35 -53 -11 -103 -29 -109 -38 -3 -5 36 -139 88 -298 l93 -289 66 0
67 0 -5 182 c-4 148 0 215 17 352 12 93 20 170 19 171 -2 1 -12 -1 -23 -6z"/>
</g>
</svg>
