<?xml version="1.0" standalone="no"?>
<!DOCTYPE svg PUBLIC "-//W3C//DTD SVG 20010904//EN"
 "http://www.w3.org/TR/2001/REC-SVG-20010904/DTD/svg10.dtd">
<svg version="1.0" xmlns="http://www.w3.org/2000/svg"
 width="480.000000pt" height="360.000000pt" viewBox="0 0 480.000000 360.000000"
 preserveAspectRatio="xMidYMid meet">
<metadata>
Created by potrace 1.16, written by Peter Selinger 2001-2019
</metadata>
<rect width="1" height="360" fill="#000000"/>
<rect x="479" width="1" height="360" fill="#000000"/>
<rect width="480" height="1" fill="#000000"/>
<rect y="359" width="480" height="1" fill="#000000"/>
<g transform="translate(0.000000,360.000000) scale(0.100000,-0.100000)"
fill="#000000" stroke="none">
<path d="M0 1800 l0 -1800 2400 0 2400 0 0 1800 0 1800 -2400 0 -2400 0 0
-1800z m2990 1221 c31 -22 68 -87 69 -123 1 -20 -9 -34 -34 -54 -19 -14 -35
-30 -35 -35 0 -4 -5 -20 -11 -36 -8 -22 -12 -24 -19 -13 -7 11 -10 12 -10 2 0
-7 16 -20 35 -28 22 -9 37 -23 41 -39 3 -14 10 -25 14 -25 5 0 21 -11 37 -24
16 -14 77 -41 136 -62 92 -31 107 -39 107 -58 0 -27 -18 -46 -42 -46 -10 0
-58 22 -106 50 l-87 50 -3 -33 c-2 -17 -11 -40 -20 -51 -21 -23 -25 -101 -8
-141 8 -16 31 -66 52 -110 22 -44 38 -87 37 -95 -1 -8 5 -37 13 -65 21 -72 31
-215 14 -215 -7 0 -10 7 -6 15 7 18 -21 32 -35 18 -5 -5 -6 -33 -1 -69 10 -70
2 -107 -29 -140 -12 -13 -21 -26 -18 -28 2 -1 139 37 304 85 254 75 321 91
440 105 77 9 150 18 163 20 15 3 40 32 78 92 98 154 117 180 145 196 25 15 28
14 54 -6 25 -19 27 -26 23 -77 -3 -48 -14 -73 -71 -167 -36 -61 -70 -120 -73
-130 -4 -10 -15 -28 -24 -39 -10 -11 -73 -108 -140 -215 -200 -318 -328 -479
-528 -665 -99 -92 -129 -114 -174 -128 -30 -9 -60 -17 -67 -17 -6 0 -31 18
-56 41 -41 38 -46 40 -87 34 -73 -11 -164 12 -288 72 l-115 56 -150 -2 c-167
-2 -308 14 -467 54 l-100 25 -209 -60 c-115 -33 -227 -60 -248 -60 -122 0
-405 141 -613 307 -64 50 -70 53 -126 53 -65 0 -150 22 -202 52 -23 13 -45 18
-67 15 -28 -5 -37 0 -70 36 -21 23 -53 62 -70 87 -17 25 -56 68 -86 96 -55 51
-87 106 -87 149 0 18 8 26 33 34 46 14 276 30 537 37 219 6 230 6 410 -24 631
-105 997 -144 1378 -146 242 -1 242 -1 242 56 0 32 -18 44 -87 59 -103 22
-119 26 -138 36 -11 6 -33 15 -50 20 -49 14 -44 44 14 99 28 27 51 52 51 56 0
4 -11 10 -25 14 -14 3 -25 8 -25 11 0 15 29 52 82 106 66 66 161 190 206 266
24 42 27 55 27 146 0 80 -4 105 -18 127 -13 18 -16 36 -12 60 7 45 -12 79 -55
93 -25 9 -34 18 -33 31 1 14 -19 34 -69 69 -78 55 -106 70 -112 64 -3 -3 -17
-45 -31 -94 -43 -148 -58 -278 -51 -455 5 -121 3 -167 -9 -210 -19 -71 -19
-161 0 -207 19 -45 19 -46 -5 -33 -45 24 -55 65 -56 235 -1 88 -7 187 -13 220
-6 33 -11 87 -11 120 0 88 27 284 56 404 13 57 22 112 18 123 -11 36 25 31 81
-11 30 -23 55 -46 55 -51 0 -5 25 -26 56 -47 63 -42 63 -42 91 46 10 29 30 67
45 83 24 26 32 29 66 23 20 -3 49 -2 62 4 31 12 77 5 110 -18z"/>
<path d="M2725 2820 c-3 -5 -1 -10 4 -10 6 0 11 5 11 10 0 6 -2 10 -4 10 -3 0
-8 -4 -11 -10z"/>
<path d="M2877 1644 c-4 -4 -7 -14 -7 -23 0 -11 3 -12 11 -4 6 6 10 16 7 23
-2 6 -7 8 -11 4z"/>
</g>
</svg>
