<?xml version="1.0" standalone="no"?>
<!DOCTYPE svg PUBLIC "-//W3C//DTD SVG 20010904//EN"
 "http://www.w3.org/TR/2001/REC-SVG-20010904/DTD/svg10.dtd">
<svg version="1.0" xmlns="http://www.w3.org/2000/svg"
 width="480.000000pt" height="360.000000pt" viewBox="0 0 480.000000 360.000000"
 preserveAspectRatio="xMidYMid meet">
<metadata>
Created by potrace 1.16, written by Peter Selinger 2001-2019
</metadata>
<rect width="1" height="360" fill="#000000"/>
<rect x="479" width="1" height="360" fill="#000000"/>
<rect width="480" height="1" fill="#000000"/>
<rect y="359" width="480" height="1" fill="#000000"/>
<g transform="translate(0.000000,360.000000) scale(0.100000,-0.100000)"
fill="#000000" stroke="none">
<path d="M0 1800 l0 -1800 456 0 456 0 -57 63 c-108 118 -146 190 -159 298 -9
72 14 174 56 248 40 72 175 205 258 256 36 21 84 54 107 71 23 18 57 35 75 39
18 4 58 18 89 31 153 63 422 129 659 161 166 22 716 25 870 5 284 -38 536 -99
708 -174 39 -16 52 -17 106 -7 56 11 65 10 104 -10 33 -17 48 -33 63 -67 10
-25 19 -51 19 -58 0 -7 27 -34 59 -59 179 -141 256 -337 202 -515 -23 -77 -62
-134 -149 -225 l-56 -57 467 0 467 0 0 1800 0 1800 -2400 0 -2400 0 0 -1800z
m2694 218 c41 -37 39 -88 -5 -129 -38 -35 -62 -37 -94 -4 -36 35 -34 88 4 126
35 35 61 37 95 7z m-549 -33 c35 -34 34 -83 -3 -118 -15 -15 -38 -27 -51 -27
-31 0 -81 52 -81 85 0 35 50 85 85 85 14 0 37 -11 50 -25z m1073 -5 c46 -43
36 -117 -19 -146 -85 -43 -149 67 -80 137 34 34 69 37 99 9z m-1604 -63 c24
-19 29 -31 28 -62 -4 -93 -105 -117 -148 -34 -13 26 -13 36 -3 60 24 60 75 74
123 36z m2091 -69 c33 -39 32 -73 -4 -109 -38 -37 -82 -39 -116 -4 -33 32 -34
93 -2 122 43 39 84 36 122 -9z m-2540 -43 c33 -32 33 -84 1 -122 -19 -22 -31
-27 -62 -25 -112 7 -111 172 1 172 25 0 44 -8 60 -25z m2923 -112 c34 -21 52
-70 40 -106 -12 -32 -61 -67 -95 -67 -82 0 -131 92 -82 154 37 47 83 53 137
19z m-3324 -67 c70 -29 87 -97 37 -147 -32 -31 -64 -36 -106 -17 -35 16 -67
70 -60 101 8 29 41 63 70 70 11 3 21 5 23 6 1 0 18 -5 36 -13z m3536 -141 c30
-16 60 -61 60 -90 0 -59 -63 -115 -130 -115 -37 0 -85 43 -96 86 -9 37 22 92
67 116 41 22 61 23 99 3z m-3670 -80 c78 -40 81 -143 5 -180 -41 -19 -45 -19
-94 1 -52 20 -80 78 -61 124 26 64 89 87 150 55z m3592 -192 c62 -67 65 -119
9 -174 -43 -44 -88 -51 -141 -24 -53 28 -80 107 -54 161 21 44 56 63 115 64
37 0 50 -5 71 -27z m-3449 -37 c70 -29 91 -87 55 -150 -47 -81 -129 -96 -190
-36 -21 21 -28 38 -28 66 0 47 34 102 74 120 40 17 50 17 89 0z"/>
<path d="M2175 1159 c-273 -23 -560 -99 -775 -205 l-90 -44 0 -62 c-1 -83 -26
-139 -73 -161 -48 -23 -66 -21 -111 10 l-39 26 -25 -29 c-13 -16 -38 -58 -55
-94 -36 -75 -49 -199 -27 -266 34 -105 63 -150 156 -242 l93 -92 1157 0 1157
0 36 27 c56 41 109 94 142 141 120 170 129 321 29 486 -31 51 -35 54 -65 49
-41 -7 -110 28 -128 65 -8 15 -17 44 -21 64 -8 45 -48 75 -178 136 -336 157
-767 226 -1183 191z m740 -379 c142 -69 92 -305 -61 -287 -84 9 -138 89 -125
184 8 57 29 88 76 108 42 19 63 18 110 -5z m-893 -27 c51 -46 63 -134 28 -203
-61 -119 -220 -76 -220 59 0 127 116 213 192 144z m552 -74 c96 -47 109 -105
36 -158 -53 -38 -138 -55 -255 -49 -78 4 -104 10 -152 34 -62 31 -81 60 -69
107 7 31 39 54 110 79 78 28 262 21 330 -13z"/>
</g>
</svg>
