<?xml version="1.0" standalone="no"?>
<!DOCTYPE svg PUBLIC "-//W3C//DTD SVG 20010904//EN"
 "http://www.w3.org/TR/2001/REC-SVG-20010904/DTD/svg10.dtd">
<svg version="1.0" xmlns="http://www.w3.org/2000/svg"
 width="480.000000pt" height="360.000000pt" viewBox="0 0 480.000000 360.000000"
 preserveAspectRatio="xMidYMid meet">
<metadata>
Created by potrace 1.16, written by Peter Selinger 2001-2019
</metadata>
<rect width="1" height="360" fill="#000000"/>
<rect x="479" width="1" height="360" fill="#000000"/>
<rect width="480" height="1" fill="#000000"/>
<rect y="359" width="480" height="1" fill="#000000"/>
<g transform="translate(0.000000,360.000000) scale(0.100000,-0.100000)"
fill="#000000" stroke="none">
<path d="M0 1800 l0 -1800 810 0 c656 0 810 2 810 13 0 14 96 66 170 93 25 8
92 26 150 38 l105 22 6 175 c4 96 10 207 14 247 l7 73 -38 -7 c-22 -3 -68 -18
-104 -31 -187 -71 -448 -155 -522 -168 -55 -10 -81 0 -127 48 -63 65 -103 195
-87 281 6 29 16 41 51 62 53 31 155 140 155 165 0 33 22 64 80 111 53 43 57
50 63 97 13 111 79 178 266 270 75 37 163 73 197 80 l60 13 12 291 c7 161 16
312 22 337 5 25 9 93 10 151 0 92 3 110 21 133 24 30 32 25 -106 62 -54 14
-111 32 -125 39 -19 10 -37 11 -66 5 -57 -14 -104 -12 -104 3 0 20 159 165
265 242 l28 20 -59 39 c-77 51 -174 135 -174 150 0 15 246 30 299 20 17 -4 31
-3 31 0 0 31 45 226 57 244 21 34 34 18 99 -117 71 -145 67 -142 107 -130 41
12 453 -26 632 -57 84 -15 93 -19 131 -59 l40 -42 33 22 c26 19 140 175 141
194 1 3 12 20 26 36 l26 30 -7 -30 c-13 -57 -25 -150 -25 -202 0 -50 1 -52 37
-70 45 -21 63 -53 63 -110 0 -51 6 -57 90 -92 92 -38 91 -52 -13 -101 -46 -22
-90 -40 -98 -40 -17 0 -3 -13 41 -38 27 -15 34 -25 32 -43 -6 -48 -22 -54
-175 -57 l-142 -4 0 -86 c-1 -75 -5 -100 -35 -177 l-35 -90 -3 -257 -3 -258
60 -64 c71 -76 77 -87 131 -245 67 -196 66 -267 -7 -358 -28 -35 -33 -50 -33
-93 0 -28 -7 -64 -15 -80 -8 -16 -20 -71 -25 -124 -9 -79 -8 -103 5 -149 l16
-54 62 -7 c88 -10 127 -24 127 -46 0 -43 -41 -142 -88 -214 -29 -44 -52 -85
-52 -92 0 -12 122 -14 740 -14 l740 0 0 1800 0 1800 -2400 0 -2400 0 0 -1800z"/>
</g>
</svg>
