<?xml version="1.0" standalone="no"?>
<!DOCTYPE svg PUBLIC "-//W3C//DTD SVG 20010904//EN"
 "http://www.w3.org/TR/2001/REC-SVG-20010904/DTD/svg10.dtd">
<svg version="1.0" xmlns="http://www.w3.org/2000/svg"
 width="480.000000pt" height="360.000000pt" viewBox="0 0 480.000000 360.000000"
 preserveAspectRatio="xMidYMid meet">
<metadata>
Created by potrace 1.16, written by Peter Selinger 2001-2019
</metadata>
<rect width="1" height="360" fill="#000000"/>
<rect x="479" width="1" height="360" fill="#000000"/>
<rect width="480" height="1" fill="#000000"/>
<rect y="359" width="480" height="1" fill="#000000"/>
<g transform="translate(0.000000,360.000000) scale(0.100000,-0.100000)"
fill="#000000" stroke="none">
<path d="M2178 2814 c-435 -36 -862 -121 -1263 -251 -77 -25 -310 -108 -518
-184 -208 -77 -382 -139 -387 -139 -6 0 -10 -163 -10 -444 l0 -444 118 -27
c166 -38 342 -80 527 -125 907 -221 1463 -281 2171 -235 653 43 1078 148 1808
446 l176 71 -2 436 -3 436 -140 43 c-77 24 -194 60 -260 80 -458 137 -449 135
-600 178 -323 92 -584 141 -868 165 -170 13 -554 11 -749 -6z m384 -457 c29
-13 103 -38 163 -56 61 -18 121 -36 134 -40 15 -4 39 -31 63 -71 21 -34 70
-103 109 -152 l71 -89 2 -205 c2 -179 0 -209 -14 -227 -9 -12 -39 -53 -65 -92
-27 -38 -72 -99 -101 -135 -49 -62 -56 -67 -150 -103 -55 -20 -124 -42 -154
-47 -30 -6 -69 -15 -86 -20 -52 -18 -206 21 -325 82 -86 44 -109 61 -165 127
-37 41 -71 89 -77 105 -6 17 -23 55 -39 85 -41 78 -57 220 -34 319 9 39 16 81
16 92 0 33 86 163 168 253 57 63 83 84 115 94 23 6 69 21 102 32 33 11 94 31
135 44 41 13 76 25 77 26 1 0 26 -9 55 -22z"/>
<path d="M2043 2123 c-17 -21 -36 -49 -43 -63 -12 -23 -12 -24 4 -11 23 20 79
101 73 107 -2 3 -18 -12 -34 -33z"/>
<path d="M1907 1821 c-9 -44 -8 -111 2 -136 13 -30 25 107 14 142 l-10 28 -6
-34z"/>
<path d="M1977 1452 c14 -37 103 -154 103 -136 0 16 -70 131 -94 153 l-26 24
17 -41z"/>
<path d="M2230 1215 c0 -14 139 -65 175 -65 20 1 -41 30 -104 50 -69 22 -71
22 -71 15z"/>
<path d="M2666 1184 c-22 -8 -42 -17 -45 -20 -10 -10 62 7 89 22 33 17 6 16
-44 -2z"/>
</g>
</svg>
