<?xml version="1.0" standalone="no"?>
<!DOCTYPE svg PUBLIC "-//W3C//DTD SVG 20010904//EN"
 "http://www.w3.org/TR/2001/REC-SVG-20010904/DTD/svg10.dtd">
<svg version="1.0" xmlns="http://www.w3.org/2000/svg"
 width="480.000000pt" height="360.000000pt" viewBox="0 0 480.000000 360.000000"
 preserveAspectRatio="xMidYMid meet">
<metadata>
Created by potrace 1.16, written by Peter Selinger 2001-2019
</metadata>
<rect width="1" height="360" fill="#000000"/>
<rect x="479" width="1" height="360" fill="#000000"/>
<rect width="480" height="1" fill="#000000"/>
<rect y="359" width="480" height="1" fill="#000000"/>
<g transform="translate(0.000000,360.000000) scale(0.100000,-0.100000)"
fill="#000000" stroke="none">
<path d="M0 1800 l0 -1800 998 0 997 0 2 113 c3 204 46 637 83 846 14 79 18
133 14 176 -4 40 -1 85 9 131 15 66 14 85 -7 184 -3 14 -10 88 -15 165 -8 117
-14 150 -35 195 -28 59 -35 150 -17 219 6 20 17 70 26 111 21 95 67 189 121
249 47 53 50 45 -32 85 -17 8 -34 22 -37 31 -4 8 -18 15 -32 15 -24 0 -25 2
-19 38 8 51 -12 70 -61 55 -28 -9 -38 -8 -63 10 -16 12 -34 33 -39 47 l-10 25
-12 -25 c-9 -20 -10 0 -6 98 6 136 12 156 55 211 l31 38 -26 44 c-34 60 -32
72 16 93 32 14 46 16 65 7 29 -13 30 -6 9 63 -22 73 -20 81 14 57 16 -12 32
-21 35 -21 3 0 6 23 6 50 0 41 3 50 18 50 36 0 187 -118 221 -174 16 -25 36
-39 80 -55 133 -49 234 -216 312 -524 24 -92 53 -167 119 -307 138 -291 134
-271 134 -623 1 -273 0 -300 -16 -311 -10 -7 -18 -19 -18 -27 -1 -10 -4 -9
-14 4 -12 16 -14 15 -20 -17 -7 -36 -22 -54 -34 -41 -4 3 -21 50 -39 103 l-33
97 4 -77 c5 -82 -3 -98 -24 -48 -17 40 -27 38 -41 -10 -11 -36 -10 -49 9 -103
19 -54 24 -97 32 -322 20 -504 29 -781 30 -852 l0 -73 1005 0 1005 0 0 1800 0
1800 -2400 0 -2400 0 0 -1800z"/>
<path d="M2113 1593 c1 -61 5 -115 9 -118 33 -33 40 125 8 190 l-20 40 3 -112z"/>
</g>
</svg>
