<?xml version="1.0" standalone="no"?>
<!DOCTYPE svg PUBLIC "-//W3C//DTD SVG 20010904//EN"
 "http://www.w3.org/TR/2001/REC-SVG-20010904/DTD/svg10.dtd">
<svg version="1.0" xmlns="http://www.w3.org/2000/svg"
 width="480.000000pt" height="360.000000pt" viewBox="0 0 480.000000 360.000000"
 preserveAspectRatio="xMidYMid meet">
<metadata>
Created by potrace 1.16, written by Peter Selinger 2001-2019
</metadata>
<rect width="1" height="360" fill="#000000"/>
<rect x="479" width="1" height="360" fill="#000000"/>
<rect width="480" height="1" fill="#000000"/>
<rect y="359" width="480" height="1" fill="#000000"/>
<g transform="translate(0.000000,360.000000) scale(0.100000,-0.100000)"
fill="#000000" stroke="none">
<path d="M1317 2847 c-10 -18 -19 -49 -20 -69 -1 -20 -5 -34 -8 -32 -4 2 -10
-27 -13 -66 -6 -61 -5 -72 16 -104 13 -20 28 -34 34 -32 6 2 18 -4 28 -15 13
-15 14 -23 5 -38 -10 -14 -8 -22 5 -37 19 -20 86 -122 86 -130 0 -3 -16 -12
-35 -20 -43 -18 -52 -37 -32 -67 14 -22 12 -25 -43 -74 -31 -29 -65 -68 -74
-88 -10 -20 -29 -53 -42 -72 -13 -20 -24 -47 -24 -60 0 -36 27 -80 57 -95 27
-13 28 -15 26 -94 -1 -44 -7 -92 -13 -105 -18 -38 -46 -87 -60 -104 -9 -11
-10 -19 -3 -26 13 -13 -22 -110 -45 -123 -36 -20 -60 -55 -67 -96 -6 -38 -5
-45 19 -64 l27 -21 -15 -70 c-20 -96 -166 -1098 -166 -1142 0 -2 220 -3 489
-3 l488 0 -9 53 c-16 101 -47 374 -63 552 -20 219 -77 495 -136 650 -24 63
-24 65 3 65 20 0 19 3 -15 38 l-36 37 40 74 c22 41 46 83 54 95 21 29 19 124
-4 220 -19 77 -19 78 1 98 20 20 20 20 0 34 -17 12 -19 22 -15 84 4 57 0 84
-22 152 -15 46 -34 90 -41 99 -19 22 -18 26 21 66 29 30 35 33 35 17 1 -18 1
-18 14 -1 9 11 20 15 31 11 11 -5 21 -1 27 10 5 9 13 14 17 11 12 -7 41 103
41 154 0 40 -29 113 -50 126 -5 3 -10 17 -10 30 0 29 -106 152 -153 177 -53
28 -109 32 -189 13 -40 -10 -77 -21 -82 -26 -19 -17 -36 -9 -36 16 0 35 -22
31 -43 -8z"/>
<path d="M3533 460 c-100 -20 -139 -63 -129 -139 5 -42 -9 -146 -30 -212 -3
-11 -29 -23 -72 -34 -106 -27 -158 -44 -178 -60 -17 -13 46 -14 491 -14 l510
1 -80 25 c-171 52 -163 48 -180 111 -8 31 -20 70 -25 87 -8 24 -6 35 15 67 14
21 25 42 25 48 0 24 -34 90 -46 90 -8 0 -14 5 -14 10 0 6 -24 10 -54 10 -30 0
-58 5 -61 10 -7 12 -112 11 -172 0z"/>
</g>
</svg>
