<?xml version="1.0" standalone="no"?>
<!DOCTYPE svg PUBLIC "-//W3C//DTD SVG 20010904//EN"
 "http://www.w3.org/TR/2001/REC-SVG-20010904/DTD/svg10.dtd">
<svg version="1.0" xmlns="http://www.w3.org/2000/svg"
 width="480.000000pt" height="360.000000pt" viewBox="0 0 480.000000 360.000000"
 preserveAspectRatio="xMidYMid meet">
<metadata>
Created by potrace 1.16, written by Peter Selinger 2001-2019
</metadata>
<rect width="1" height="360" fill="#000000"/>
<rect x="479" width="1" height="360" fill="#000000"/>
<rect width="480" height="1" fill="#000000"/>
<rect y="359" width="480" height="1" fill="#000000"/>
<g transform="translate(0.000000,360.000000) scale(0.100000,-0.100000)"
fill="#000000" stroke="none">
<path d="M0 1800 l0 -1800 1465 0 1465 0 0 35 c0 28 -4 35 -20 35 -23 0 -23 1
-9 108 l11 82 -31 35 c-71 81 -74 133 -15 231 l33 55 -20 89 c-11 49 -26 93
-32 99 -31 25 -134 54 -255 72 -73 10 -148 25 -167 33 -44 19 -224 191 -241
232 -19 46 -29 196 -14 224 16 29 90 110 101 110 5 0 24 17 43 37 l34 37 -24
35 c-26 38 -30 56 -14 66 5 3 21 -13 36 -35 l28 -41 40 47 c24 28 40 56 38 67
-2 11 9 33 26 51 16 17 36 44 45 61 l15 30 -82 52 -81 52 -9 -31 c-8 -26 -6
-33 15 -49 l24 -19 -35 12 c-19 6 -47 12 -62 13 -16 1 -36 9 -45 17 -38 32
-46 33 -39 4 7 -27 6 -27 -15 -13 -35 25 -87 105 -94 145 -6 37 -7 37 -98 65
-51 16 -103 39 -117 52 -28 26 -167 77 -220 80 -60 4 -330 107 -330 126 0 4
-18 18 -39 30 -23 13 -37 27 -34 35 2 7 -7 20 -20 29 -21 13 -32 14 -65 6 -35
-10 -46 -8 -113 23 -77 36 -129 79 -110 91 16 9 13 25 -4 25 -9 0 -29 -7 -46
-16 -32 -16 -73 -10 -66 9 2 7 24 23 49 37 41 23 44 26 29 42 -9 9 -28 22 -43
28 -15 7 -24 18 -21 26 3 8 -6 14 -29 16 l-33 4 31 13 c18 7 34 21 37 32 3 11
14 19 27 19 19 0 21 2 9 16 -7 9 -25 21 -39 27 -24 11 -24 11 15 15 22 1 45
10 52 19 11 14 23 15 100 5 48 -6 142 -17 208 -23 66 -6 170 -17 230 -24 61
-7 112 -11 115 -8 8 8 -60 60 -122 93 -32 17 -71 42 -87 56 -42 35 -90 115
-112 183 -10 33 -32 86 -48 119 -17 33 -38 90 -47 126 -15 62 -15 69 0 110 9
23 37 64 63 89 l47 47 -642 0 -642 0 0 -1800z"/>
<path d="M1756 3549 c-4 -28 -5 -53 -3 -55 2 -3 75 -13 161 -25 160 -20 206
-36 245 -83 28 -34 -29 -134 -179 -316 -70 -84 -95 -156 -67 -193 11 -15 19
-14 100 14 48 16 127 35 177 40 49 6 120 20 157 33 67 22 69 24 108 92 138
239 306 424 442 485 37 17 82 37 98 44 26 12 -60 14 -601 14 l-631 1 -7 -51z"/>
<path d="M4170 3589 c8 -5 31 -18 50 -28 19 -11 80 -57 136 -102 92 -77 384
-321 427 -357 16 -14 17 -2 17 241 l0 257 -322 0 c-224 0 -318 -3 -308 -11z"/>
<path d="M4062 3038 c-21 -11 -23 -16 -17 -52 4 -23 12 -119 19 -213 6 -95 16
-177 21 -182 6 -5 118 -25 250 -45 132 -20 287 -46 345 -56 58 -11 108 -20
113 -20 4 0 7 69 7 153 l0 153 -36 13 c-35 13 -134 68 -268 151 -129 79 -198
103 -311 107 -64 2 -108 -1 -123 -9z"/>
<path d="M3002 1382 c-30 -27 -31 -28 -20 -78 14 -62 6 -94 -33 -138 l-30 -35
30 -15 c17 -9 44 -34 61 -55 l32 -39 38 38 c62 61 61 81 -11 187 -34 49 -37
78 -9 93 24 13 26 30 5 30 -8 0 -15 6 -15 14 0 26 -16 26 -48 -2z"/>
<path d="M4346 813 c105 -158 304 -527 381 -708 72 -170 73 -166 73 287 l0
393 -76 23 c-75 23 -105 24 -66 3 27 -15 92 -97 69 -88 -9 4 -24 10 -33 14
-14 5 -15 3 -4 -18 9 -17 10 -24 2 -27 -7 -2 0 -21 18 -47 17 -24 30 -46 30
-49 0 -3 -17 6 -37 20 -23 15 -39 21 -43 14 -4 -6 -24 3 -52 25 -62 47 -266
185 -274 185 -3 0 2 -12 12 -27z"/>
</g>
</svg>
