<?xml version="1.0" standalone="no"?>
<!DOCTYPE svg PUBLIC "-//W3C//DTD SVG 20010904//EN"
 "http://www.w3.org/TR/2001/REC-SVG-20010904/DTD/svg10.dtd">
<svg version="1.0" xmlns="http://www.w3.org/2000/svg"
 width="480.000000pt" height="360.000000pt" viewBox="0 0 480.000000 360.000000"
 preserveAspectRatio="xMidYMid meet">
<metadata>
Created by potrace 1.16, written by Peter Selinger 2001-2019
</metadata>
<rect width="1" height="360" fill="#000000"/>
<rect x="479" width="1" height="360" fill="#000000"/>
<rect width="480" height="1" fill="#000000"/>
<rect y="359" width="480" height="1" fill="#000000"/>
<g transform="translate(0.000000,360.000000) scale(0.100000,-0.100000)"
fill="#000000" stroke="none">
<path d="M0 1800 l0 -1800 785 0 c443 0 785 4 785 9 0 5 18 136 41 291 39 274
41 332 15 347 -7 5 -18 18 -25 31 -7 13 -21 22 -36 22 -19 0 -30 10 -50 49
-13 27 -33 56 -42 63 -54 39 -75 126 -62 249 8 72 56 226 78 253 5 6 32 57 61
114 42 86 67 120 148 206 53 57 110 121 125 144 17 25 61 64 112 98 63 41 85
61 85 77 0 24 -28 219 -55 387 -48 300 -123 616 -199 845 -44 130 -127 350
-148 393 l-11 22 -804 0 -803 0 0 -1800z"/>
<path d="M2304 3583 c14 -45 90 -901 112 -1258 9 -148 21 -274 25 -279 5 -5
73 -13 151 -17 79 -4 177 -14 218 -23 41 -9 77 -12 81 -8 4 4 14 75 23 157 75
693 150 916 385 1138 95 89 198 166 328 243 l108 64 -718 0 c-680 0 -718 -1
-713 -17z"/>
<path d="M4723 3240 c-69 -65 -175 -140 -274 -193 -93 -50 -266 -101 -563
-167 -202 -45 -291 -86 -369 -169 -80 -85 -117 -194 -196 -571 -13 -58 -36
-161 -53 -230 l-30 -125 109 -105 c61 -58 118 -119 129 -135 10 -17 33 -48 51
-71 18 -23 33 -45 33 -49 0 -5 11 -25 25 -44 31 -46 127 -345 155 -482 47
-241 52 -523 14 -842 l-7 -57 527 0 526 0 0 1650 c0 908 -3 1650 -7 1650 -5
-1 -36 -27 -70 -60z"/>
<path d="M1836 239 c-2 -8 -9 -48 -15 -89 -6 -41 -14 -93 -17 -115 -5 -31 -4
-37 6 -29 12 12 45 232 36 242 -3 2 -7 -1 -10 -9z"/>
</g>
</svg>
