<?xml version="1.0" standalone="no"?>
<!DOCTYPE svg PUBLIC "-//W3C//DTD SVG 20010904//EN"
 "http://www.w3.org/TR/2001/REC-SVG-20010904/DTD/svg10.dtd">
<svg version="1.0" xmlns="http://www.w3.org/2000/svg"
 width="480.000000pt" height="360.000000pt" viewBox="0 0 480.000000 360.000000"
 preserveAspectRatio="xMidYMid meet">
<metadata>
Created by potrace 1.16, written by Peter Selinger 2001-2019
</metadata>
<rect width="1" height="360" fill="#000000"/>
<rect x="479" width="1" height="360" fill="#000000"/>
<rect width="480" height="1" fill="#000000"/>
<rect y="359" width="480" height="1" fill="#000000"/>
<g transform="translate(0.000000,360.000000) scale(0.100000,-0.100000)"
fill="#000000" stroke="none">
<path d="M3113 3519 c-12 -4 -26 -17 -32 -28 -7 -12 -41 -29 -93 -47 -107 -35
-148 -64 -255 -179 -102 -112 -116 -131 -84 -122 25 6 27 -2 6 -29 -19 -25
-19 -40 0 -24 21 18 27 8 15 -24 -5 -15 -10 -48 -9 -74 1 -44 2 -46 12 -19 12
31 32 37 22 7 -8 -26 3 -60 20 -60 11 0 17 -16 27 -75 2 -15 -7 -25 -39 -40
-47 -21 -55 -44 -28 -83 11 -15 14 -33 9 -56 -3 -19 -2 -41 2 -48 5 -7 10 -22
11 -33 4 -48 20 -132 27 -143 4 -6 14 -12 22 -12 8 0 14 -4 14 -9 0 -5 19 -7
42 -4 36 5 40 4 35 -10 -4 -10 -10 -24 -14 -33 -5 -14 -2 -14 23 2 l29 19 -18
-28 c-25 -39 -16 -43 23 -11 l32 28 -7 -65 c-6 -55 -11 -67 -37 -88 -19 -15
-27 -29 -23 -39 6 -17 -38 -62 -130 -132 -57 -44 -122 -110 -188 -193 -46 -58
-62 -92 -32 -67 17 14 20 3 6 -20 -16 -24 -2 -31 20 -9 11 11 23 19 25 16 2
-2 -18 -51 -45 -108 -72 -150 -85 -207 -72 -321 6 -51 22 -133 36 -183 31
-112 31 -119 3 -112 -64 15 -183 48 -263 72 -49 15 -122 33 -162 41 -39 7 -93
22 -120 34 -43 18 -50 26 -67 72 -13 36 -15 53 -7 56 17 6 13 34 -9 67 -27 41
-25 71 7 113 21 29 24 38 15 53 -16 26 -16 27 15 31 25 3 60 45 62 74 1 5 -15
36 -34 68 -19 32 -35 67 -35 77 0 10 -11 30 -24 46 -24 28 -24 28 -46 8 -15
-14 -38 -20 -76 -21 -69 -2 -141 -37 -172 -83 -32 -50 -50 -118 -66 -266 -9
-72 -29 -177 -45 -235 -44 -152 -57 -264 -45 -396 8 -82 17 -123 37 -167 15
-32 27 -63 27 -70 0 -17 29 -56 30 -39 0 7 8 4 21 -9 l20 -20 -65 -279 c-36
-154 -66 -282 -66 -285 0 -3 185 -5 411 -5 l411 0 -6 28 c-4 15 -11 59 -16 97
-5 39 -17 95 -26 125 -9 30 -42 157 -74 282 -59 237 -60 248 -12 248 35 0 392
-177 398 -198 3 -9 9 -24 14 -33 11 -20 -27 -240 -69 -401 -17 -64 -31 -124
-31 -132 0 -14 65 -16 610 -16 336 0 610 3 610 7 0 18 -140 269 -233 419 -78
125 -107 179 -107 203 0 17 -13 66 -29 109 -32 85 -58 296 -46 368 17 100 24
114 54 114 l29 0 -18 49 c-27 69 -9 134 54 201 47 50 50 56 46 99 -1 15 3 22
12 19 7 -3 14 -22 16 -44 4 -41 22 -74 22 -38 0 11 10 31 22 44 21 22 22 22
30 4 20 -49 -8 117 -44 256 -23 85 -42 168 -43 183 -2 32 13 46 27 26 7 -11
11 -11 15 -1 10 26 43 12 63 -28 30 -59 39 -54 55 28 5 26 10 31 20 22 7 -6
18 -9 25 -8 7 2 18 -13 25 -32 11 -27 14 -30 14 -12 1 24 20 29 40 10 11 -11
13 -6 8 25 -3 20 -2 37 4 37 5 0 9 -6 9 -12 1 -9 5 -7 13 3 7 10 23 15 40 13
28 -3 28 -2 13 21 -20 31 -20 45 -1 45 12 0 13 4 5 19 -5 11 -10 32 -10 47 0
22 3 25 12 16 27 -27 28 -9 3 36 l-26 47 25 -30 c14 -16 26 -27 26 -24 0 3
-16 46 -35 95 -42 105 -42 120 11 296 49 163 55 214 38 328 -33 210 -62 275
-168 368 -116 103 -249 159 -389 163 -29 1 -59 7 -67 14 -23 19 -43 23 -67 14z
m-1566 -2876 c-9 -53 -23 -59 -19 -8 2 25 9 45 14 45 7 0 8 -14 5 -37z"/>
</g>
</svg>
