<?xml version="1.0" standalone="no"?>
<!DOCTYPE svg PUBLIC "-//W3C//DTD SVG 20010904//EN"
 "http://www.w3.org/TR/2001/REC-SVG-20010904/DTD/svg10.dtd">
<svg version="1.0" xmlns="http://www.w3.org/2000/svg"
 width="480.000000pt" height="360.000000pt" viewBox="0 0 480.000000 360.000000"
 preserveAspectRatio="xMidYMid meet">
<metadata>
Created by potrace 1.16, written by Peter Selinger 2001-2019
</metadata>
<rect width="1" height="360" fill="#000000"/>
<rect x="479" width="1" height="360" fill="#000000"/>
<rect width="480" height="1" fill="#000000"/>
<rect y="359" width="480" height="1" fill="#000000"/>
<g transform="translate(0.000000,360.000000) scale(0.100000,-0.100000)"
fill="#000000" stroke="none">
<path d="M2995 3578 c3 -13 24 -59 45 -102 22 -43 37 -83 34 -87 -3 -5 -18 -9
-33 -9 -44 0 -195 -47 -264 -81 -147 -75 -232 -144 -328 -270 -55 -73 -70
-103 -133 -275 -15 -39 -42 -89 -61 -112 -19 -22 -35 -43 -35 -46 0 -10 42 13
68 37 26 24 26 20 8 -51 -8 -28 -10 -49 -5 -46 6 4 8 -24 4 -73 -4 -63 -3 -74
6 -55 17 32 26 27 33 -20 9 -60 29 -87 23 -30 -3 24 -1 40 4 36 5 -3 9 -14 9
-24 0 -31 33 -92 41 -78 5 8 12 2 20 -17 10 -27 12 -28 19 -10 7 18 9 18 21
-10 8 -16 23 -38 34 -47 19 -15 20 -15 26 0 5 13 8 11 14 -10 10 -38 28 -36
23 2 -3 17 -1 30 4 30 15 0 8 -64 -11 -106 -10 -23 -33 -51 -50 -63 -17 -12
-31 -31 -31 -41 0 -20 38 -55 71 -65 19 -6 32 -39 33 -85 1 -16 10 -28 29 -37
15 -7 39 -19 55 -26 23 -11 27 -19 27 -56 1 -29 6 -46 17 -52 27 -15 88 -124
88 -157 0 -17 -5 -43 -10 -58 -12 -29 2 -48 28 -39 9 3 12 -5 11 -28 -1 -31
37 -309 46 -335 7 -20 -19 -74 -50 -102 l-27 -25 -17 25 c-9 14 -34 45 -56 70
-23 25 -49 65 -60 90 -10 25 -40 78 -67 119 -45 69 -47 76 -38 110 24 85 4
255 -39 340 -26 51 -83 99 -127 107 -19 3 -84 4 -144 2 l-108 -4 -7 43 c-9 62
-31 51 -27 -14 l2 -50 -87 -32 c-107 -38 -185 -103 -201 -167 -38 -154 -38
-141 1 -289 l36 -136 72 -86 c68 -80 85 -93 167 -124 l22 -9 -29 -57 c-43 -87
-68 -179 -91 -335 -11 -78 -29 -171 -40 -206 -21 -66 -27 -209 -14 -306 l7
-46 293 0 293 0 51 97 c28 54 60 109 71 123 l20 25 -6 -82 c-4 -45 -4 -100 0
-122 l7 -41 64 0 c63 0 64 0 65 28 l1 27 10 -27 10 -28 755 0 c738 0 758 0
827 21 39 11 96 35 125 52 55 30 55 31 28 40 -15 5 -27 12 -27 16 0 4 16 22
35 41 53 52 48 63 -27 55 -50 -6 -78 -18 -152 -63 -92 -55 -162 -91 -181 -92
-16 0 -47 64 -43 91 4 31 -22 158 -33 165 -5 3 -9 20 -9 37 0 18 -14 86 -31
152 -16 66 -36 143 -43 171 -7 27 -16 56 -21 64 -10 17 -13 32 -21 129 -5 59
-4 73 7 69 7 -2 20 -28 29 -56 8 -28 19 -54 23 -59 4 -4 5 1 1 12 -7 19 -7 19
13 2 11 -9 22 -15 25 -12 3 3 29 -49 58 -115 28 -66 56 -120 62 -120 5 0 7 18
3 42 -5 38 -23 195 -40 353 l-6 50 38 -72 c20 -40 40 -73 43 -73 3 0 -4 42
-17 92 -35 138 -49 253 -43 343 5 79 5 79 13 33 20 -119 129 -374 200 -469 21
-29 22 -34 -21 129 -17 62 -34 139 -37 170 l-6 57 30 -53 c40 -71 141 -222
148 -222 3 0 3 17 -1 37 -29 164 -37 234 -46 423 -25 509 -32 622 -46 735 -33
260 -87 478 -172 695 -23 58 -51 140 -61 183 -45 175 -168 342 -284 385 -40
15 -81 22 -131 22 l-73 0 -47 70 -46 70 -321 0 -320 0 6 -22z"/>
</g>
</svg>
