<?xml version="1.0" standalone="no"?>
<!DOCTYPE svg PUBLIC "-//W3C//DTD SVG 20010904//EN"
 "http://www.w3.org/TR/2001/REC-SVG-20010904/DTD/svg10.dtd">
<svg version="1.0" xmlns="http://www.w3.org/2000/svg"
 width="480.000000pt" height="360.000000pt" viewBox="0 0 480.000000 360.000000"
 preserveAspectRatio="xMidYMid meet">
<metadata>
Created by potrace 1.16, written by Peter Selinger 2001-2019
</metadata>
<rect width="1" height="360" fill="#000000"/>
<rect x="479" width="1" height="360" fill="#000000"/>
<rect width="480" height="1" fill="#000000"/>
<rect y="359" width="480" height="1" fill="#000000"/>
<g transform="translate(0.000000,360.000000) scale(0.100000,-0.100000)"
fill="#000000" stroke="none">
<path d="M0 1800 l0 -1800 429 0 428 0 -22 67 c-13 42 -30 74 -46 85 -13 10
-64 25 -113 34 -102 17 -118 24 -164 67 -30 29 -35 30 -71 21 -49 -13 -57 -9
-66 37 -5 27 -1 47 13 75 11 22 25 59 32 84 13 51 35 80 60 80 9 0 24 8 33 18
21 23 22 39 2 22 -10 -8 -15 -9 -15 -1 0 14 189 209 215 222 17 9 18 8 4 -3
-8 -7 -24 -26 -35 -43 l-19 -30 49 35 c48 35 80 70 71 78 -2 3 -11 -1 -20 -8
-10 -8 -15 -9 -15 -1 0 6 19 28 43 48 75 67 238 227 258 255 20 27 20 27 -3
70 -13 24 -27 46 -31 49 -4 3 4 30 18 60 13 30 25 59 25 65 0 5 22 35 50 66
57 64 57 56 -6 220 -45 120 -44 152 8 240 39 66 41 71 24 84 -11 8 -20 31 -23
57 -4 37 -2 48 18 66 13 12 40 26 61 32 25 6 43 19 52 37 8 15 25 40 39 56 22
26 42 108 28 121 -2 2 -30 -22 -61 -54 -57 -57 -153 -194 -181 -258 -19 -44
-33 -42 -25 5 l7 37 -20 -25 c-11 -14 -37 -53 -57 -87 -20 -35 -39 -63 -41
-63 -3 0 -2 15 2 33 6 31 5 31 -10 12 -9 -11 -44 -66 -78 -122 -63 -106 -83
-127 -65 -70 5 17 12 40 15 50 8 26 -13 21 -36 -10 -12 -14 -24 -23 -28 -19
-4 3 -1 12 5 18 7 7 12 17 12 22 0 19 -52 -65 -86 -140 -18 -41 -36 -74 -40
-74 -4 0 -4 20 -2 45 9 72 -15 51 -42 -37 -16 -53 -27 -55 -41 -9 -9 29 -9 47
0 72 15 43 7 49 -14 10 -8 -17 -19 -31 -23 -31 -4 0 -25 -16 -46 -35 -43 -38
-62 -45 -52 -19 3 9 9 27 12 41 6 23 5 24 -15 14 -12 -7 -25 -10 -30 -7 -4 3
-14 -7 -21 -22 -9 -19 -14 -23 -18 -12 -3 8 -13 23 -24 34 -21 23 -22 41 -4
121 34 147 48 187 103 295 52 103 67 123 144 195 47 44 125 109 173 145 217
160 279 229 316 345 12 39 26 83 31 99 10 32 44 79 102 142 34 38 37 44 26 68
-7 15 -23 29 -36 31 -13 3 -34 7 -48 10 -16 3 -25 12 -25 24 0 24 14 35 74 55
61 20 85 41 79 67 -3 10 -9 19 -14 19 -13 0 -159 91 -159 99 0 4 6 13 13 20
10 11 9 14 -1 18 -6 3 -10 9 -6 14 3 5 0 9 -5 9 -6 0 -11 5 -11 11 0 26 154
-39 212 -90 20 -17 42 -31 51 -31 18 0 32 -16 44 -55 9 -29 13 -30 83 -37 40
-4 79 -13 86 -19 24 -20 15 -43 -24 -64 -57 -31 -55 -84 4 -85 41 0 124 -52
171 -107 41 -48 45 -57 35 -74 -7 -11 -10 -24 -7 -29 6 -9 -17 -62 -38 -88 -7
-9 -12 -10 -17 -2 -5 7 -11 6 -19 -4 -11 -13 -8 -20 14 -42 l26 -26 -24 -52
c-14 -28 -27 -60 -29 -71 -2 -16 -12 -21 -46 -23 -40 -3 -42 -5 -42 -34 0 -25
13 -42 70 -95 54 -51 74 -78 90 -121 13 -33 45 -84 80 -125 74 -87 94 -128 86
-173 -4 -18 -13 -39 -20 -47 -39 -38 -66 -153 -66 -274 0 -50 31 -268 45 -313
4 -14 63 -442 86 -630 6 -47 12 -112 13 -145 2 -33 8 -80 14 -105 12 -49 7
-267 -9 -359 -10 -59 -20 -71 -61 -71 -17 0 -34 -10 -48 -27 l-22 -28 788 -3
c433 -1 789 -1 791 1 5 5 -35 118 -47 132 -6 7 -26 16 -45 19 -29 6 -35 13
-49 53 -9 26 -16 57 -16 69 0 13 -4 26 -10 29 -5 3 -10 22 -10 40 0 19 -6 52
-14 72 -8 21 -19 97 -25 168 -14 164 -36 736 -34 875 1 58 3 191 5 295 3 185
2 191 -21 235 -67 123 -65 117 -47 163 9 23 42 72 74 108 39 44 66 86 80 127
19 50 35 72 92 124 58 52 70 69 72 98 3 35 3 35 -34 32 -35 -3 -37 -1 -57 44
-12 25 -21 51 -21 57 0 6 -7 19 -17 29 -15 17 -14 19 10 42 29 27 35 49 13 44
-18 -4 -79 60 -73 75 21 50 21 51 4 44 -24 -9 -22 -2 19 59 57 86 98 115 198
138 56 14 49 0 92 179 34 145 46 136 48 -38 1 -108 2 -119 14 -92 21 50 51
178 45 193 -3 8 0 20 6 27 6 7 15 37 22 65 6 29 14 52 19 52 5 0 11 -18 15
-40 l7 -40 47 0 c26 0 55 -6 65 -13 17 -13 17 -16 -10 -54 -16 -23 -42 -47
-59 -55 -26 -11 -32 -22 -47 -88 -22 -95 -22 -109 0 -117 31 -12 93 -67 127
-113 18 -25 44 -81 59 -125 14 -44 41 -103 60 -130 18 -28 113 -129 210 -225
218 -216 277 -297 300 -415 9 -44 23 -105 31 -135 27 -98 -3 -300 -55 -365
-18 -23 -30 -31 -33 -23 -4 10 -6 10 -6 1 -2 -21 -21 -15 -21 6 0 26 -17 36
-23 14 -4 -15 -6 -15 -12 4 -4 13 -11 20 -16 18 -4 -3 -12 2 -17 11 -8 15 -12
13 -33 -15 -26 -36 -39 -39 -39 -11 0 25 -8 25 -27 2 -13 -15 -14 -15 -9 0 3
12 1 15 -10 11 -9 -3 -14 2 -14 16 0 11 -9 26 -20 33 -15 10 -20 24 -21 63 -1
44 -15 117 -18 89 -1 -5 -7 -18 -13 -27 -11 -15 -12 -9 -9 34 2 29 -2 56 -8
62 -8 8 -11 -4 -12 -44 0 -29 -4 -63 -9 -74 -7 -18 -9 -16 -16 13 -4 23 -11
31 -21 28 -9 -4 -16 4 -20 24 -5 28 -7 29 -20 13 -12 -16 -13 -13 -8 23 4 27
1 54 -9 79 -9 21 -16 52 -16 69 0 33 -48 143 -49 114 -2 -29 -16 -21 -41 25
-13 23 -35 58 -49 77 -14 19 -30 41 -36 49 -28 37 -130 141 -139 141 -7 0 -10
-18 -9 -46 1 -34 8 -53 27 -73 14 -14 30 -41 36 -58 8 -22 22 -36 48 -46 57
-23 87 -61 83 -107 -1 -10 -6 -8 -17 8 -25 37 -36 25 -14 -17 11 -22 17 -46
15 -54 -3 -7 10 -39 29 -71 56 -94 56 -100 -19 -299 -14 -37 -25 -74 -25 -81
0 -7 39 -32 88 -56 73 -37 102 -59 177 -138 50 -51 152 -154 227 -228 151
-149 213 -224 224 -269 4 -16 21 -64 39 -105 50 -113 67 -306 38 -405 -6 -18
-7 -18 -13 5 -8 26 -9 25 -26 -27 -4 -15 -6 -15 -14 -3 -8 12 -10 11 -10 -6 0
-28 -27 -50 -57 -46 -32 5 -93 -16 -121 -41 -13 -12 -41 -51 -64 -87 -36 -59
-45 -68 -84 -78 -25 -7 -71 -12 -105 -12 -63 0 -94 -11 -162 -61 -22 -16 -46
-29 -53 -29 -7 0 -14 -5 -16 -10 -2 -7 -19 -5 -47 5 -55 19 -53 19 -49 -7 l3
-23 523 -3 522 -2 0 1800 0 1800 -2400 0 -2400 0 0 -1800z"/>
<path d="M1165 2097 c-22 -12 -41 -30 -43 -39 -4 -19 33 -42 53 -35 14 6 45
62 45 84 0 18 -8 16 -55 -10z"/>
<path d="M3531 1953 c-21 -96 -23 -114 -16 -155 9 -53 18 -39 50 80 22 80 23
88 8 104 -24 27 -30 23 -42 -29z"/>
<path d="M1352 1897 l-22 -24 24 -102 c29 -124 40 -140 56 -81 9 34 8 61 -5
136 -10 52 -21 94 -24 94 -4 0 -17 -11 -29 -23z"/>
<path d="M3540 10 c0 -5 5 -10 11 -10 5 0 7 5 4 10 -3 6 -8 10 -11 10 -2 0 -4
-4 -4 -10z"/>
</g>
</svg>
