<?xml version="1.0" standalone="no"?>
<!DOCTYPE svg PUBLIC "-//W3C//DTD SVG 20010904//EN"
 "http://www.w3.org/TR/2001/REC-SVG-20010904/DTD/svg10.dtd">
<svg version="1.0" xmlns="http://www.w3.org/2000/svg"
 width="480.000000pt" height="360.000000pt" viewBox="0 0 480.000000 360.000000"
 preserveAspectRatio="xMidYMid meet">
<metadata>
Created by potrace 1.16, written by Peter Selinger 2001-2019
</metadata>
<rect width="1" height="360" fill="#000000"/>
<rect x="479" width="1" height="360" fill="#000000"/>
<rect width="480" height="1" fill="#000000"/>
<rect y="359" width="480" height="1" fill="#000000"/>
<g transform="translate(0.000000,360.000000) scale(0.100000,-0.100000)"
fill="#000000" stroke="none">
<path d="M0 1800 l0 -1800 970 0 969 0 6 38 c4 20 11 51 16 67 21 69 10 199
-21 253 l-19 32 29 74 c17 41 30 87 30 102 0 31 116 276 164 344 l31 45 3 519
3 518 41 -6 c59 -10 73 -20 87 -65 6 -23 15 -41 19 -41 4 0 15 24 24 53 9 28
43 130 76 225 l60 173 -52 77 c-28 42 -70 113 -92 156 l-42 79 -6 -39 c-3 -21
-8 -74 -12 -117 -3 -42 -10 -79 -14 -82 -20 -12 -40 9 -40 40 0 24 -7 38 -25
52 l-25 18 2 190 3 190 28 -55 c16 -30 25 -44 22 -30 -4 14 -9 50 -12 81 -4
43 -2 59 12 72 67 68 227 -11 271 -134 17 -47 46 -69 61 -46 5 6 18 31 30 57
l21 45 1 -52 c1 -70 19 -70 91 0 71 67 167 114 287 138 133 28 239 13 378 -52
33 -15 76 -32 95 -38 32 -9 33 -10 13 -16 -32 -10 -29 -18 22 -56 47 -37 59
-54 48 -72 -4 -7 -9 -43 -10 -82 -2 -38 -9 -80 -15 -92 -9 -18 -8 -29 1 -46 9
-17 10 -34 3 -59 -6 -24 -6 -41 1 -54 6 -10 16 -59 23 -109 14 -109 8 -123
-68 -155 -76 -31 -82 -50 -60 -170 l17 -95 81 -50 c48 -30 105 -78 144 -120
35 -38 102 -112 149 -162 161 -174 202 -279 183 -467 -5 -56 -12 -108 -14
-115 -2 -11 18 -22 67 -38 39 -12 89 -30 113 -39 l42 -16 -1 -91 c-2 -172 -13
-272 -31 -291 -15 -14 -18 -37 -19 -124 0 -59 -2 -114 -3 -122 -2 -8 -6 -66
-10 -127 l-7 -113 330 0 331 0 0 1800 0 1800 -1114 0 -1113 0 -6 -37 c-3 -21
-10 -51 -16 -67 -12 -31 -32 -32 -99 -5 -28 12 -39 11 -81 -4 -27 -9 -63 -17
-80 -17 -35 0 -48 22 -58 93 l-6 37 -1113 0 -1114 0 0 -1800z m2250 485 c3 -5
-4 -11 -15 -13 -11 -2 -24 -8 -29 -13 -18 -17 -26 -9 -26 25 l0 34 33 -12 c18
-6 35 -15 37 -21z"/>
<path d="M2250 2741 c0 -6 4 -13 10 -16 6 -3 7 1 4 9 -7 18 -14 21 -14 7z"/>
<path d="M2408 1834 c-3 -3 -20 -6 -37 -6 -38 -1 -41 -24 -7 -39 29 -14 76 -4
76 15 0 16 -24 38 -32 30z"/>
<path d="M2796 148 c-3 -7 -12 -38 -22 -68 -9 -30 -19 -61 -22 -67 -3 -10 13
-13 58 -13 60 0 62 1 55 23 -3 12 -11 40 -17 61 -13 44 -46 85 -52 64z"/>
</g>
</svg>
