<?xml version="1.0" standalone="no"?>
<!DOCTYPE svg PUBLIC "-//W3C//DTD SVG 20010904//EN"
 "http://www.w3.org/TR/2001/REC-SVG-20010904/DTD/svg10.dtd">
<svg version="1.0" xmlns="http://www.w3.org/2000/svg"
 width="480.000000pt" height="360.000000pt" viewBox="0 0 480.000000 360.000000"
 preserveAspectRatio="xMidYMid meet">
<metadata>
Created by potrace 1.16, written by Peter Selinger 2001-2019
</metadata>
<rect width="1" height="360" fill="#000000"/>
<rect x="479" width="1" height="360" fill="#000000"/>
<rect width="480" height="1" fill="#000000"/>
<rect y="359" width="480" height="1" fill="#000000"/>
<g transform="translate(0.000000,360.000000) scale(0.100000,-0.100000)"
fill="#000000" stroke="none">
<path d="M1735 1693 c-65 -10 -82 -52 -95 -237 -14 -200 12 -295 126 -464 51
-76 64 -103 69 -147 7 -56 -4 -103 -32 -137 -22 -25 -37 -152 -23 -193 47
-142 455 -314 649 -274 40 8 65 21 88 44 29 29 33 39 33 87 0 51 4 60 51 120
50 63 52 65 70 47 23 -23 56 -14 63 16 9 35 59 45 232 45 272 0 414 41 492
143 56 72 72 120 65 198 -6 83 -29 145 -63 169 -25 18 -27 18 -42 1 -14 -16
-14 -19 1 -30 13 -10 10 -11 -18 -6 -18 3 -56 5 -83 5 -46 0 -48 1 -38 21 7
11 9 27 6 36 -5 13 -9 13 -23 2 -14 -12 -17 -12 -21 -1 -26 78 -267 222 -537
320 -38 14 -75 29 -81 34 -27 20 -309 106 -522 158 -185 45 -275 56 -367 43z
m1638 -692 c41 -10 66 -34 67 -65 0 -20 -66 -116 -80 -116 -5 0 -12 -9 -15
-20 -3 -11 -17 -23 -29 -26 -22 -5 -33 -34 -12 -34 6 0 6 -3 1 -9 -25 -23
-226 -62 -318 -61 -41 1 -41 1 -16 13 37 17 88 64 144 133 26 32 49 61 51 63
2 3 15 -6 29 -19 38 -35 84 -2 57 41 -19 30 -14 46 25 78 41 34 42 34 96 22z"/>
</g>
</svg>
