<?xml version="1.0" standalone="no"?>
<!DOCTYPE svg PUBLIC "-//W3C//DTD SVG 20010904//EN"
 "http://www.w3.org/TR/2001/REC-SVG-20010904/DTD/svg10.dtd">
<svg version="1.0" xmlns="http://www.w3.org/2000/svg"
 width="480.000000pt" height="360.000000pt" viewBox="0 0 480.000000 360.000000"
 preserveAspectRatio="xMidYMid meet">
<metadata>
Created by potrace 1.16, written by Peter Selinger 2001-2019
</metadata>
<rect width="1" height="360" fill="#000000"/>
<rect x="479" width="1" height="360" fill="#000000"/>
<rect width="480" height="1" fill="#000000"/>
<rect y="359" width="480" height="1" fill="#000000"/>
<g transform="translate(0.000000,360.000000) scale(0.100000,-0.100000)"
fill="#000000" stroke="none">
<path d="M0 968 c0 -154 3 -218 11 -218 8 0 9 -11 4 -32 -4 -18 -10 -124 -12
-235 l-4 -203 66 50 c170 129 311 155 258 49 -22 -43 -127 -148 -235 -233 -83
-66 -88 -71 -88 -108 l0 -38 432 0 431 0 -24 27 c-13 15 -28 31 -34 35 -5 4
-44 40 -85 80 -41 41 -88 81 -103 91 -15 10 -55 44 -88 75 -34 31 -66 59 -72
61 -18 6 -77 72 -77 86 0 6 -9 23 -21 36 -11 13 -23 36 -26 51 -3 15 -9 26
-13 23 -7 -5 -30 38 -30 56 0 6 -6 25 -14 42 -65 144 -91 197 -115 232 -37 55
-49 75 -67 110 -8 17 -33 64 -54 105 l-39 75 -1 -217z"/>
</g>
</svg>
