<?xml version="1.0" standalone="no"?>
<!DOCTYPE svg PUBLIC "-//W3C//DTD SVG 20010904//EN"
 "http://www.w3.org/TR/2001/REC-SVG-20010904/DTD/svg10.dtd">
<svg version="1.0" xmlns="http://www.w3.org/2000/svg"
 width="480.000000pt" height="360.000000pt" viewBox="0 0 480.000000 360.000000"
 preserveAspectRatio="xMidYMid meet">
<metadata>
Created by potrace 1.16, written by Peter Selinger 2001-2019
</metadata>
<rect width="1" height="360" fill="#000000"/>
<rect x="479" width="1" height="360" fill="#000000"/>
<rect width="480" height="1" fill="#000000"/>
<rect y="359" width="480" height="1" fill="#000000"/>
<g transform="translate(0.000000,360.000000) scale(0.100000,-0.100000)"
fill="#000000" stroke="none">
<path d="M1763 2598 c-6 -7 -18 -37 -27 -66 -14 -40 -23 -53 -42 -58 -25 -7
-34 -39 -11 -47 26 -9 -135 -212 -192 -242 -15 -7 -45 -32 -66 -55 -34 -35
-44 -40 -70 -35 -16 3 -48 8 -70 11 -22 3 -61 10 -87 15 -54 12 -62 9 -151
-74 -49 -45 -58 -59 -55 -82 4 -37 21 -42 38 -11 16 30 30 25 30 -12 0 -55 8
-57 125 -38 59 9 110 15 113 12 3 -3 -9 -32 -27 -63 -76 -137 -156 -355 -346
-949 -47 -149 -47 -150 18 -168 28 -8 61 -16 72 -18 17 -3 14 -7 -15 -22 -64
-34 -96 -65 -108 -103 -15 -50 -1 -64 67 -65 38 0 68 8 109 29 50 25 58 33 69
70 8 28 8 54 2 75 -5 18 -5 47 -1 63 8 27 13 30 56 33 63 4 76 -8 76 -74 0
-39 4 -55 17 -62 15 -9 14 -16 -15 -79 -35 -76 -38 -93 -20 -111 21 -21 94
-15 122 11 21 18 27 35 34 92 6 65 9 70 32 73 14 2 40 15 59 29 l33 26 -6 76
c-22 279 -19 339 34 657 29 170 49 243 69 245 6 1 16 2 22 3 6 0 37 51 68 112
62 122 111 192 212 299 37 38 69 80 73 92 6 18 14 21 57 21 61 1 68 6 50 35
-8 13 -10 22 -4 24 6 2 19 10 29 18 19 13 19 14 -1 51 -14 26 -19 54 -18 94 1
62 -11 81 -79 123 -24 15 -28 15 -28 3 0 -12 -8 -12 -44 5 -65 28 -128 35
-165 16 -31 -15 -31 -15 -25 9 7 26 2 31 -13 12z"/>
</g>
</svg>
