<?xml version="1.0" standalone="no"?>
<!DOCTYPE svg PUBLIC "-//W3C//DTD SVG 20010904//EN"
 "http://www.w3.org/TR/2001/REC-SVG-20010904/DTD/svg10.dtd">
<svg version="1.0" xmlns="http://www.w3.org/2000/svg"
 width="480.000000pt" height="360.000000pt" viewBox="0 0 480.000000 360.000000"
 preserveAspectRatio="xMidYMid meet">
<metadata>
Created by potrace 1.16, written by Peter Selinger 2001-2019
</metadata>
<rect width="1" height="360" fill="#000000"/>
<rect x="479" width="1" height="360" fill="#000000"/>
<rect width="480" height="1" fill="#000000"/>
<rect y="359" width="480" height="1" fill="#000000"/>
<g transform="translate(0.000000,360.000000) scale(0.100000,-0.100000)"
fill="#000000" stroke="none">
<path d="M4 3188 c6 -505 6 -432 0 -628 -4 -142 -3 -162 9 -140 42 79 36 77
61 23 69 -143 67 -137 51 -170 -8 -16 -18 -52 -21 -79 -3 -27 -15 -68 -27 -91
-18 -35 -19 -47 -10 -76 10 -34 9 -37 -28 -73 l-39 -38 0 -958 0 -958 2400 0
2400 0 0 101 0 102 -46 56 c-81 98 -199 175 -349 227 -44 15 -86 32 -92 37
-17 13 -16 90 2 322 42 515 10 670 -194 918 -98 119 -317 287 -499 382 -39 20
-72 43 -72 49 0 6 9 48 20 93 24 102 60 191 94 236 14 19 26 38 26 43 0 5 -33
9 -72 9 -129 0 -553 27 -562 36 -6 5 13 56 46 126 66 139 124 283 143 356 58
220 89 316 130 402 26 55 49 95 51 89 3 -6 -28 -114 -67 -240 -67 -213 -92
-332 -63 -301 19 19 113 188 213 379 l92 178 -1801 0 -1801 0 5 -412z"/>
</g>
</svg>
