<?xml version="1.0" standalone="no"?>
<!DOCTYPE svg PUBLIC "-//W3C//DTD SVG 20010904//EN"
 "http://www.w3.org/TR/2001/REC-SVG-20010904/DTD/svg10.dtd">
<svg version="1.0" xmlns="http://www.w3.org/2000/svg"
 width="480.000000pt" height="360.000000pt" viewBox="0 0 480.000000 360.000000"
 preserveAspectRatio="xMidYMid meet">
<metadata>
Created by potrace 1.16, written by Peter Selinger 2001-2019
</metadata>
<rect width="1" height="360" fill="#000000"/>
<rect x="479" width="1" height="360" fill="#000000"/>
<rect width="480" height="1" fill="#000000"/>
<rect y="359" width="480" height="1" fill="#000000"/>
<g transform="translate(0.000000,360.000000) scale(0.100000,-0.100000)"
fill="#000000" stroke="none">
<path d="M0 2170 l0 -1430 26 10 c14 6 51 10 83 10 31 0 80 6 107 14 27 8 75
18 107 22 32 3 61 12 63 19 3 7 1 28 -3 46 -8 28 -15 35 -47 42 -21 5 -40 15
-42 22 -3 7 13 48 36 91 23 45 48 112 57 156 16 74 16 79 -2 111 -14 27 -17
46 -11 88 13 108 15 102 -26 112 -33 8 -39 14 -50 49 -10 34 -10 42 3 52 18
14 57 98 91 198 25 76 26 77 7 94 -12 11 -17 24 -13 33 3 9 8 51 10 93 3 90
17 124 60 153 43 29 139 21 163 -15 9 -12 28 -35 43 -50 33 -33 34 -44 9 -76
-16 -21 -18 -30 -9 -55 5 -16 7 -40 4 -53 -3 -13 1 -45 9 -72 9 -27 20 -71 25
-98 10 -49 29 -72 124 -153 14 -13 26 -26 26 -30 0 -17 -72 -83 -89 -83 -10 0
-23 -6 -28 -12 -16 -21 2 -392 23 -463 30 -110 31 -105 -9 -105 -26 0 -39 6
-47 20 -13 25 -40 26 -40 2 0 -10 -5 -23 -12 -30 -17 -17 36 -82 67 -82 26 0
41 -15 26 -25 -25 -15 -672 -155 -719 -155 l-22 0 0 -310 0 -310 305 0 305 0
-6 28 c-4 15 -10 31 -14 35 -4 4 -42 -4 -86 -19 -112 -37 -208 -37 -264 0 -56
37 -53 59 12 84 150 57 228 86 278 104 30 11 56 21 58 23 2 2 -2 13 -8 25 -9
17 -17 20 -43 15 l-32 -5 30 13 c40 18 18 32 -50 32 l-50 0 -3 38 c-3 32 0 39
17 44 12 3 21 8 21 12 0 3 9 12 21 19 16 10 28 11 55 2 38 -13 44 -35 20 -73
-13 -20 -12 -25 8 -50 l23 -29 31 31 c54 54 73 35 22 -22 -16 -19 -30 -37 -30
-40 0 -18 834 362 1130 515 l65 33 30 105 c17 58 34 111 39 118 5 9 -8 19 -46
36 -92 40 -95 41 -113 7 -16 -33 -51 -42 -61 -17 -3 7 2 30 10 50 14 35 14 37
-7 50 -12 8 -71 35 -130 61 -152 64 -291 127 -442 199 -71 35 -147 68 -167 75
-53 17 -62 33 -48 76 16 48 50 56 105 26 156 -88 558 -273 698 -322 43 -15 36
-19 89 53 15 22 17 22 34 6 15 -14 16 -21 6 -43 -7 -14 -12 -30 -12 -35 0 -11
129 -72 141 -68 4 2 -40 86 -97 188 -86 153 -104 192 -104 227 0 54 16 133 42
203 21 58 39 141 39 175 -1 11 -1 41 -2 66 -2 79 42 142 192 270 30 25 64 51
77 58 16 9 22 19 20 38 -3 23 3 28 46 43 28 9 51 21 54 28 6 18 -30 65 -39 51
-4 -8 -14 2 -28 27 l-20 39 -1 -33 c0 -18 -4 -31 -9 -28 -5 3 -12 -5 -15 -19
-8 -30 -22 -32 -31 -4 -5 16 -13 20 -31 16 -20 -4 -25 1 -30 30 -6 31 -8 32
-20 16 -11 -15 -13 0 -14 109 0 116 3 137 31 225 51 161 90 233 161 298 118
107 210 144 308 124 69 -14 142 -50 201 -99 l46 -38 56 122 c52 113 117 264
117 272 0 2 -317 4 -705 4 l-705 0 6 -24 c3 -13 1 -27 -6 -31 -15 -9 -40 13
-40 36 0 18 -22 19 -720 19 l-720 0 0 -1430z m154 1331 c9 -15 -23 -36 -36
-23 -5 5 -7 15 -4 21 9 13 33 14 40 2z m617 -47 c12 -14 11 -16 -5 -13 -11 2
-21 10 -24 17 -5 17 13 15 29 -4z m394 -534 c-3 -5 -17 -10 -30 -10 -13 0 -27
5 -30 10 -4 6 8 10 30 10 22 0 34 -4 30 -10z"/>
<path d="M2952 3528 c3 -59 11 -89 42 -155 38 -80 38 -83 22 -109 -10 -14 -37
-35 -62 -45 -24 -11 -48 -28 -53 -37 -5 -9 -12 -87 -15 -172 -9 -194 -26 -263
-72 -293 -27 -18 -34 -29 -34 -54 0 -18 -4 -33 -8 -33 -5 0 -15 -19 -22 -42
-6 -24 -20 -56 -29 -73 l-16 -30 -5 60 -5 60 -24 -52 c-13 -29 -27 -53 -31
-53 -11 0 -21 30 -14 41 3 5 1 9 -5 9 -13 0 -81 -59 -81 -70 0 -4 23 -13 51
-20 37 -9 53 -19 61 -36 6 -13 31 -36 56 -50 24 -15 61 -41 81 -59 20 -18 53
-38 73 -44 52 -17 114 -65 134 -103 9 -18 24 -69 33 -113 l16 -80 85 -17 c161
-31 368 -58 448 -58 65 0 92 -5 141 -26 34 -15 61 -30 61 -35 0 -17 41 -19 72
-3 25 13 307 182 463 277 11 7 53 35 93 62 41 28 93 61 117 75 24 14 51 33 62
41 10 9 33 24 50 33 29 15 36 15 68 1 20 -8 49 -24 66 -35 l29 -21 0 665 0
666 -926 0 -926 0 4 -72z m943 -149 c10 -15 -1 -23 -20 -15 -9 3 -13 10 -10
16 8 13 22 13 30 -1z m98 -805 c8 -9 -11 -44 -23 -44 -6 0 -10 8 -10 18 0 27
18 41 33 26z m-1233 -134 c0 -12 -28 -25 -36 -17 -9 9 6 27 22 27 8 0 14 -5
14 -10z m976 -228 c-4 -3 -11 -1 -18 6 -8 8 -8 15 3 28 13 16 14 16 17 -5 2
-13 1 -25 -2 -29z"/>
<path d="M2257 2563 c-21 -41 -30 -73 -20 -73 14 0 54 88 43 95 -5 3 -16 -7
-23 -22z"/>
<path d="M4595 2159 c-16 -11 -145 -89 -285 -173 -408 -244 -415 -248 -418
-276 -6 -53 -14 -72 -45 -108 -19 -20 -43 -53 -55 -73 -22 -36 -45 -49 -88
-49 -26 0 -66 42 -59 62 7 18 -20 44 -30 28 -3 -6 6 -35 21 -65 27 -53 27 -55
9 -75 -26 -29 -38 -25 -79 25 -21 25 -41 45 -46 45 -4 0 -64 -31 -132 -69 -68
-38 -134 -72 -147 -76 -12 -3 -26 -17 -31 -29 -5 -15 -71 -54 -231 -135 -123
-62 -226 -115 -228 -117 -2 -2 11 -52 30 -110 22 -70 41 -111 54 -120 52 -33
602 -229 950 -338 197 -62 245 -81 245 -95 0 -5 -12 -19 -26 -30 -54 -42 -198
-24 -460 59 -113 36 -305 102 -379 131 -164 62 -277 101 -282 95 -3 -3 23 -54
59 -113 53 -88 165 -302 245 -470 9 -18 13 -43 11 -57 l-5 -26 803 0 804 0 0
1078 -1 1077 -38 -73 c-22 -41 -54 -87 -73 -104 -109 -99 -217 -161 -189 -109
6 10 27 40 47 66 46 61 71 119 79 189 4 31 6 56 4 55 -2 0 -17 -10 -34 -20z
m-285 -474 c11 -13 8 -15 -13 -15 -26 0 -42 12 -30 24 11 11 30 7 43 -9z
m-856 -1356 c-19 -21 -34 -25 -34 -8 0 15 44 50 49 38 1 -6 -5 -19 -15 -30z"/>
<path d="M2677 1763 c-4 -108 3 -186 29 -306 5 -25 4 -27 -18 -22 -36 9 -52
-16 -51 -83 1 -100 3 -112 11 -112 10 0 70 31 305 157 94 51 164 82 174 79 8
-4 29 2 47 13 42 26 147 84 224 123 53 27 61 35 56 52 -16 51 -22 53 -236 61
-218 7 -274 18 -319 61 -16 15 -46 30 -72 35 -25 4 -61 19 -82 33 -21 15 -43
26 -50 26 -9 0 -14 -35 -18 -117z m253 -311 c0 -13 -12 -22 -22 -16 -10 6 -1
24 13 24 5 0 9 -4 9 -8z"/>
<path d="M2048 1783 c-8 -10 -29 -42 -47 -71 -32 -51 -33 -53 -18 -89 8 -20
18 -38 23 -40 5 -1 21 30 37 70 45 117 47 179 5 130z"/>
<path d="M3555 1690 c3 -5 10 -10 16 -10 5 0 9 5 9 10 0 6 -7 10 -16 10 -8 0
-12 -4 -9 -10z"/>
<path d="M557 954 c-4 -4 -7 -15 -7 -24 0 -21 -31 -50 -54 -50 -25 0 -31 -27
-12 -55 12 -18 25 -25 50 -25 l33 0 9 63 c4 34 8 68 9 76 0 16 -18 25 -28 15z"/>
<path d="M1579 489 c-263 -130 -488 -226 -856 -365 -57 -21 -105 -44 -107 -51
-3 -6 0 -25 7 -42 l11 -31 472 0 472 0 7 38 c3 20 26 98 50 172 52 162 105
335 105 344 0 13 -21 4 -161 -65z"/>
</g>
</svg>
