<?xml version="1.0" standalone="no"?>
<!DOCTYPE svg PUBLIC "-//W3C//DTD SVG 20010904//EN"
 "http://www.w3.org/TR/2001/REC-SVG-20010904/DTD/svg10.dtd">
<svg version="1.0" xmlns="http://www.w3.org/2000/svg"
 width="480.000000pt" height="360.000000pt" viewBox="0 0 480.000000 360.000000"
 preserveAspectRatio="xMidYMid meet">
<metadata>
Created by potrace 1.16, written by Peter Selinger 2001-2019
</metadata>
<rect width="1" height="360" fill="#000000"/>
<rect x="479" width="1" height="360" fill="#000000"/>
<rect width="480" height="1" fill="#000000"/>
<rect y="359" width="480" height="1" fill="#000000"/>
<g transform="translate(0.000000,360.000000) scale(0.100000,-0.100000)"
fill="#000000" stroke="none">
<path d="M0 3014 l0 -586 42 36 c50 43 126 73 217 86 38 5 76 12 85 16 10 4
53 51 96 105 89 111 88 104 33 214 -40 79 -57 155 -50 221 5 52 5 55 -24 70
-50 25 -64 92 -29 136 24 31 72 42 115 27 50 -19 83 -5 105 44 28 60 26 103
-5 123 -14 9 -25 23 -25 31 0 16 -25 15 -109 -3 -25 -5 -32 -4 -27 4 4 7 1 12
-6 12 -8 1 -6 6 6 15 11 8 14 15 7 15 -7 0 -9 5 -6 10 4 7 -68 10 -209 10
l-216 0 0 -586z"/>
<path d="M1040 3578 c0 -28 58 -91 124 -136 27 -18 50 -42 53 -53 6 -23 4 -23
69 -2 62 19 73 14 50 -21 -9 -14 -16 -32 -16 -41 0 -18 180 -200 450 -455 417
-394 534 -523 616 -681 28 -52 67 -186 59 -199 -3 -4 9 -10 26 -14 18 -3 431
-6 920 -6 l889 0 0 -35 0 -35 -892 0 c-491 0 -910 -3 -930 -6 -21 -4 -35 -11
-32 -18 2 -6 -6 -40 -19 -76 -17 -50 -28 -68 -50 -78 -17 -8 -33 -10 -38 -5
-5 5 -16 45 -25 90 -20 98 -6 93 -249 93 -187 0 -235 -5 -235 -26 0 -24 -43
-54 -117 -81 -55 -21 -70 -30 -62 -40 8 -9 1 -16 -28 -29 -88 -38 -171 -27
-247 31 -25 19 -62 43 -83 54 -21 11 -53 33 -71 50 -37 34 -102 44 -102 16 0
-13 24 -80 55 -150 36 -85 59 -143 65 -172 7 -30 5 -33 -24 -42 -27 -8 -133
-24 -298 -46 -57 -7 -68 -20 -30 -33 15 -5 42 -23 60 -40 39 -37 43 -84 10
-141 l-22 -38 40 -49 c41 -50 74 -99 74 -109 0 -12 -59 -28 -135 -35 -99 -10
-209 -44 -238 -73 -61 -63 -113 -74 -146 -31 -23 30 -26 59 -10 101 6 15 15
51 19 78 4 28 13 64 20 81 18 43 6 75 -40 106 -21 15 -47 43 -57 62 -23 44
-206 211 -258 236 -66 31 -177 80 -181 80 -2 0 -4 -373 -4 -830 l0 -830 2400
0 2400 0 0 1800 0 1800 -1880 0 -1880 0 0 -22z"/>
<path d="M886 3539 c-27 -7 -76 -45 -76 -59 0 -3 14 -11 30 -17 22 -8 30 -18
30 -35 0 -28 48 -68 80 -68 24 0 80 51 80 72 -1 16 -46 65 -86 94 -22 16 -36
19 -58 13z"/>
<path d="M1265 3110 c-3 -5 -7 -56 -9 -112 -4 -133 -20 -172 -78 -198 -24 -10
-68 -21 -98 -25 -118 -13 -119 -14 -135 -51 -27 -64 -3 -128 52 -139 59 -11
88 -30 179 -120 96 -95 98 -96 284 -124 161 -24 228 -53 298 -128 28 -32 52
-61 52 -65 0 -5 17 -15 38 -23 33 -14 39 -20 39 -47 0 -17 7 -36 16 -43 14
-10 15 -14 2 -32 -13 -19 -13 -21 8 -27 33 -9 300 -7 315 2 23 15 -79 201
-202 371 -91 125 -181 223 -506 557 -185 190 -238 232 -255 204z"/>
<path d="M570 1470 c-12 -8 -11 -13 8 -39 12 -17 22 -37 22 -44 0 -30 60 -54
105 -43 37 9 31 29 -25 86 -49 50 -78 60 -110 40z"/>
</g>
</svg>
