<?xml version="1.0" standalone="no"?>
<!DOCTYPE svg PUBLIC "-//W3C//DTD SVG 20010904//EN"
 "http://www.w3.org/TR/2001/REC-SVG-20010904/DTD/svg10.dtd">
<svg version="1.0" xmlns="http://www.w3.org/2000/svg"
 width="480.000000pt" height="360.000000pt" viewBox="0 0 480.000000 360.000000"
 preserveAspectRatio="xMidYMid meet">
<metadata>
Created by potrace 1.16, written by Peter Selinger 2001-2019
</metadata>
<rect width="1" height="360" fill="#000000"/>
<rect x="479" width="1" height="360" fill="#000000"/>
<rect width="480" height="1" fill="#000000"/>
<rect y="359" width="480" height="1" fill="#000000"/>
<g transform="translate(0.000000,360.000000) scale(0.100000,-0.100000)"
fill="#000000" stroke="none">
<path d="M2053 2469 c-5 -17 -12 -20 -39 -17 -40 5 -35 -8 6 -17 16 -4 32 -11
35 -16 4 -5 22 -9 41 -9 28 0 36 -5 45 -27 6 -16 6 -30 1 -35 -6 -6 -62 -7
-133 -4 -68 3 -137 6 -154 7 -34 1 -84 -10 -100 -23 -5 -4 -22 -17 -37 -29
-34 -25 -41 -77 -9 -59 25 13 51 13 51 0 0 -5 -6 -10 -14 -10 -7 0 -25 -11
-40 -25 -15 -14 -33 -25 -41 -25 -8 0 -18 -8 -24 -17 -7 -14 -5 -21 12 -30
l22 -12 -24 -1 c-17 0 -22 -4 -17 -16 6 -17 -49 -95 -86 -122 -19 -14 -102
-114 -176 -211 -42 -55 -142 -245 -142 -269 0 -7 -12 -17 -26 -22 -18 -7 -24
-15 -20 -26 3 -9 6 -21 6 -28 0 -14 106 -66 134 -66 17 0 21 -26 7 -48 -4 -7
-30 -24 -57 -36 -136 -63 -155 -146 -34 -146 47 0 141 46 178 87 18 20 23 35
20 65 -3 34 -1 38 17 36 16 -2 19 -9 17 -31 -4 -35 11 -54 49 -62 45 -10 39
-48 -21 -127 -80 -106 -87 -147 -28 -167 25 -9 38 -8 67 6 50 25 122 166 119
233 -3 45 -3 45 32 47 19 1 43 2 52 2 10 1 24 12 33 24 14 22 14 28 -1 68 -10
26 -17 79 -18 129 -1 103 6 119 127 282 119 159 225 265 273 274 55 10 223 -3
274 -21 78 -29 167 -12 316 57 15 7 20 16 16 30 -3 14 4 27 24 43 29 23 29 24
12 54 -14 26 -15 31 -1 51 20 28 12 96 -15 123 -22 22 -112 37 -112 18 0 -33
-95 27 -112 70 -9 23 -65 39 -97 27 -13 -5 -43 -6 -66 -2 -24 3 -51 1 -61 -4
-14 -7 -25 -6 -39 4 -10 8 -43 14 -74 14 -33 1 -64 7 -75 15 -11 8 -35 15 -54
15 -26 0 -35 -5 -39 -21z"/>
</g>
</svg>
