<?xml version="1.0" standalone="no"?>
<!DOCTYPE svg PUBLIC "-//W3C//DTD SVG 20010904//EN"
 "http://www.w3.org/TR/2001/REC-SVG-20010904/DTD/svg10.dtd">
<svg version="1.0" xmlns="http://www.w3.org/2000/svg"
 width="480.000000pt" height="360.000000pt" viewBox="0 0 480.000000 360.000000"
 preserveAspectRatio="xMidYMid meet">
<metadata>
Created by potrace 1.16, written by Peter Selinger 2001-2019
</metadata>
<rect width="1" height="360" fill="#000000"/>
<rect x="479" width="1" height="360" fill="#000000"/>
<rect width="480" height="1" fill="#000000"/>
<rect y="359" width="480" height="1" fill="#000000"/>
<g transform="translate(0.000000,360.000000) scale(0.100000,-0.100000)"
fill="#000000" stroke="none">
<path d="M0 1800 l0 -1800 680 0 c374 0 680 2 680 5 0 2 -18 14 -39 25 -22 11
-65 51 -99 93 -46 55 -76 81 -124 107 -86 45 -98 57 -98 98 0 20 -7 43 -15 52
-14 16 -12 19 22 42 21 13 46 27 55 31 20 7 23 22 8 32 -20 12 -9 52 23 81 40
37 75 56 162 88 94 36 269 124 351 179 93 60 157 126 274 281 54 72 124 162
156 200 l57 69 -27 20 c-15 10 -36 37 -47 59 -17 33 -24 38 -42 32 -22 -7 -22
-6 -3 15 18 20 19 25 2 163 -9 78 -22 148 -28 155 -7 9 -7 13 1 13 16 0 3 47
-21 83 -28 40 -57 126 -52 156 2 14 12 43 20 63 17 37 13 75 -6 63 -5 -3 -10
-1 -10 6 0 6 -8 9 -20 6 -11 -3 -23 -1 -26 4 -3 5 -13 8 -22 7 -12 -2 -18 5
-20 23 -2 21 -7 26 -23 22 -22 -6 -26 16 -8 49 9 18 8 19 -10 13 -12 -3 -21
-2 -21 3 0 30 29 82 62 110 21 19 38 38 38 44 0 6 21 54 46 106 26 55 53 132
64 181 26 119 25 119 114 216 74 81 88 90 200 146 147 72 251 102 426 124 127
16 142 16 274 0 258 -32 448 -105 648 -252 143 -105 248 -228 350 -408 41 -73
46 -89 57 -186 12 -111 9 -131 -30 -214 -30 -63 -55 -88 -80 -80 -21 7 -33 -2
-88 -71 -18 -23 -76 -54 -101 -54 -9 0 -25 7 -36 15 -27 21 -36 19 -101 -19
-102 -60 -164 -64 -226 -16 -32 25 -43 25 -103 -1 -87 -39 -171 -26 -236 35
-30 29 -67 33 -129 14 -45 -13 -46 -15 -109 -238 -23 -80 -48 -163 -56 -185
-16 -47 -18 -79 -5 -103 6 -12 3 -37 -10 -76 -11 -32 -18 -65 -15 -72 3 -8 -6
-21 -19 -30 -45 -29 -27 -103 32 -133 24 -12 63 -14 88 -5 21 9 45 56 45 92 0
16 7 35 16 42 24 21 47 -10 47 -63 0 -55 -29 -100 -85 -128 -69 -35 -159 -8
-212 64 -16 22 -21 42 -20 87 1 56 0 58 -34 74 -19 9 -37 14 -40 11 -5 -5 56
-467 85 -640 18 -109 57 -291 76 -360 8 -27 31 -108 51 -180 20 -72 37 -142
38 -158 l1 -27 1024 0 1023 0 0 970 0 969 -25 13 c-28 15 -75 75 -75 97 0 29
35 123 48 128 7 3 22 -3 32 -12 20 -18 20 -13 20 708 l0 727 -965 0 -965 0 14
-35 c10 -22 11 -37 5 -41 -16 -9 -49 26 -49 53 l0 23 -1420 0 -1420 0 0 -1800z
m2780 1740 c0 -14 -75 -50 -104 -50 -41 0 -38 17 7 39 44 22 97 28 97 11z
m-880 -25 c0 -25 -23 -65 -37 -65 -16 0 -16 0 2 44 15 36 35 48 35 21z m-870
-146 c0 -27 -2 -30 -15 -19 -8 7 -15 21 -15 31 0 11 7 19 15 19 10 0 15 -10
15 -31z m2600 -139 c-19 -36 -23 -15 -9 42 l14 53 3 -37 c2 -20 -2 -47 -8 -58z
m-1520 71 c0 -5 -13 -11 -30 -13 -36 -5 -39 -1 -7 12 29 12 37 12 37 1z m1280
-72 c0 -18 -4 -28 -10 -24 -5 3 -10 20 -10 36 0 18 4 28 10 24 6 -3 10 -20 10
-36z m-1532 -29 c28 -17 52 -35 52 -40 0 -15 -6 -13 -53 17 -86 56 -85 72 1
23z m-1004 -296 c19 -7 21 -44 3 -44 -22 0 -51 26 -43 38 8 13 17 15 40 6z
m511 -34 c10 -16 -16 -43 -28 -31 -11 11 -2 41 12 41 5 0 13 -5 16 -10z m-482
-292 c-13 -12 -25 -19 -29 -15 -10 10 16 37 34 37 13 0 12 -4 -5 -22z m-433
-18 c0 -5 -2 -10 -4 -10 -3 0 -8 5 -11 10 -3 6 -1 10 4 10 6 0 11 -4 11 -10z
m576 -165 c-22 -17 -46 -20 -46 -6 0 10 22 18 50 20 11 0 10 -4 -4 -14z m3419
-476 c5 -6 1 -9 -10 -9 -33 0 -65 12 -59 21 6 10 54 1 69 -12z m-15 -369 c14
-25 5 -57 -20 -70 -33 -17 -58 36 -32 69 21 26 38 27 52 1z m-3395 -10 c-23
-22 -95 -54 -95 -42 0 21 64 60 100 61 11 1 10 -4 -5 -19z m2142 -11 c17 -17
4 -39 -22 -39 -32 0 -42 20 -20 37 23 16 28 16 42 2z m-2567 -287 c0 -8 -43
-32 -56 -32 -12 0 10 22 30 30 27 11 26 11 26 2z m3280 -54 c-1 -28 -2 -30
-11 -15 -6 10 -8 25 -5 33 9 24 16 16 16 -18z m-3780 -44 c0 -19 -47 -29 -76
-15 -40 18 -28 32 26 30 34 -2 50 -6 50 -15z m3138 -436 c-5 -32 -28 -35 -28
-4 0 17 5 26 16 26 10 0 14 -7 12 -22z m-2682 -89 c3 -6 1 -16 -5 -22 -13 -13
-42 0 -49 21 -5 15 44 16 54 1z m284 -128 c0 -5 -22 -23 -50 -40 -49 -30 -56
-30 -44 4 11 27 94 58 94 36z m-370 -316 c-14 -8 -32 -14 -40 -14 -8 0 -1 7
15 14 39 18 57 18 25 0z"/>
<path d="M2265 2286 c-18 -18 -25 -21 -29 -10 -8 22 -36 17 -36 -6 0 -15 13
-26 44 -40 25 -10 62 -34 83 -53 34 -31 53 -38 165 -62 70 -15 134 -25 143
-21 16 6 16 9 2 29 -13 19 -23 22 -89 22 -64 0 -80 4 -116 27 -23 16 -49 40
-59 55 -22 37 -65 83 -75 83 -5 0 -20 -11 -33 -24z"/>
<path d="M2170 2280 c0 -5 5 -10 11 -10 5 0 7 5 4 10 -3 6 -8 10 -11 10 -2 0
-4 -4 -4 -10z"/>
<path d="M1967 2225 c-10 -14 -14 -25 -10 -25 14 1 43 27 43 39 0 18 -14 12
-33 -14z"/>
<path d="M2746 1943 c-4 -5 -51 -8 -104 -8 l-95 0 -12 -50 c-7 -27 -21 -68
-33 -90 -16 -31 -21 -63 -24 -140 l-3 -100 45 -1 c25 -1 62 -5 82 -9 l36 -7
32 104 c17 56 36 114 40 128 21 60 51 172 47 176 -2 2 -7 1 -11 -3z"/>
</g>
</svg>
