<?xml version="1.0" standalone="no"?>
<!DOCTYPE svg PUBLIC "-//W3C//DTD SVG 20010904//EN"
 "http://www.w3.org/TR/2001/REC-SVG-20010904/DTD/svg10.dtd">
<svg version="1.0" xmlns="http://www.w3.org/2000/svg"
 width="480.000000pt" height="360.000000pt" viewBox="0 0 480.000000 360.000000"
 preserveAspectRatio="xMidYMid meet">
<metadata>
Created by potrace 1.16, written by Peter Selinger 2001-2019
</metadata>
<rect width="1" height="360" fill="#000000"/>
<rect x="479" width="1" height="360" fill="#000000"/>
<rect width="480" height="1" fill="#000000"/>
<rect y="359" width="480" height="1" fill="#000000"/>
<g transform="translate(0.000000,360.000000) scale(0.100000,-0.100000)"
fill="#000000" stroke="none">
<path d="M0 1800 l0 -1800 2400 0 2400 0 0 1248 0 1248 -97 65 c-382 256 -835
560 -1163 780 l-386 259 -1577 0 -1577 0 0 -1800z m2056 861 c2 -2 15 6 30 18
33 26 118 29 152 5 17 -12 35 -14 80 -8 l57 7 -23 -25 c-21 -23 -21 -27 -8
-53 14 -26 13 -29 -15 -59 -23 -25 -29 -40 -29 -77 0 -81 8 -104 43 -115 16
-5 34 -16 38 -24 5 -8 22 -39 39 -68 16 -29 30 -63 30 -76 0 -12 -23 -54 -50
-94 -48 -68 -50 -71 -31 -82 22 -11 22 -11 -12 -90 -15 -34 -14 -37 21 -96 21
-33 47 -72 59 -88 20 -25 22 -63 3 -51 -5 3 9 -25 31 -62 21 -38 55 -106 74
-152 34 -81 35 -83 14 -88 -13 -4 -19 -12 -16 -22 13 -44 12 -46 -11 -43 -13
2 -41 -8 -63 -22 -21 -14 -50 -26 -63 -26 -15 0 -34 -12 -49 -29 -24 -29 -25
-33 -23 -193 1 -144 0 -164 -16 -180 -24 -24 -42 -23 -74 6 -25 21 -27 26 -16
52 11 28 13 244 2 244 -3 0 -23 -10 -46 -22 l-41 -21 -55 23 c-32 13 -64 20
-73 16 -10 -3 -15 -9 -12 -12 3 -3 1 -18 -4 -33 -6 -14 -14 -71 -17 -126 l-7
-100 -31 -3 c-39 -4 -102 21 -111 44 -4 12 4 25 25 43 31 25 32 29 32 98 0 39
5 75 10 78 15 9 12 45 -5 51 -8 4 -15 17 -15 30 0 12 -7 27 -17 32 -24 14 -13
84 36 226 46 131 50 159 24 149 -14 -5 -15 -2 -8 28 6 29 12 125 17 279 1 19
-2 49 -6 66 -7 27 -5 33 12 38 28 9 45 65 47 149 3 89 0 82 41 127 36 40 37
41 31 107 -3 42 -10 69 -18 72 -30 10 -57 48 -52 74 4 19 0 28 -16 36 -26 15
-27 31 -2 31 37 0 51 12 51 44 l1 31 16 -30 c8 -16 17 -32 19 -34z"/>
<path d="M2324 2196 c-3 -8 -4 -31 -2 -52 l3 -39 23 44 c19 35 21 45 10 52
-19 12 -28 11 -34 -5z"/>
<path d="M4300 3587 c21 -20 473 -372 488 -381 9 -6 12 36 12 193 l0 201 -257
0 c-216 0 -255 -2 -243 -13z"/>
</g>
</svg>
