<?xml version="1.0" standalone="no"?>
<!DOCTYPE svg PUBLIC "-//W3C//DTD SVG 20010904//EN"
 "http://www.w3.org/TR/2001/REC-SVG-20010904/DTD/svg10.dtd">
<svg version="1.0" xmlns="http://www.w3.org/2000/svg"
 width="480.000000pt" height="360.000000pt" viewBox="0 0 480.000000 360.000000"
 preserveAspectRatio="xMidYMid meet">
<metadata>
Created by potrace 1.16, written by Peter Selinger 2001-2019
</metadata>
<rect width="1" height="360" fill="#000000"/>
<rect x="479" width="1" height="360" fill="#000000"/>
<rect width="480" height="1" fill="#000000"/>
<rect y="359" width="480" height="1" fill="#000000"/>
<g transform="translate(0.000000,360.000000) scale(0.100000,-0.100000)"
fill="#000000" stroke="none">
<path d="M0 3592 c0 -5 14 -48 30 -97 32 -95 100 -327 100 -341 0 -5 -13 -17
-29 -26 -34 -19 -48 -68 -32 -110 8 -21 6 -29 -9 -43 -19 -17 -19 -18 5 -49
47 -63 117 -213 141 -305 14 -52 34 -116 46 -143 12 -28 17 -52 12 -57 -9 -7
-110 -33 -146 -36 -26 -2 -97 -86 -104 -122 -12 -65 67 -125 211 -159 50 -12
75 -22 75 -32 0 -10 -7 -12 -22 -8 -33 10 -148 20 -148 13 0 -3 18 -16 40 -28
24 -14 61 -51 90 -90 70 -96 84 -104 165 -89 78 15 119 41 158 98 38 56 68 70
167 76 91 6 125 21 141 64 27 69 -41 173 -145 222 -35 17 -69 30 -77 30 -8 0
-23 7 -33 15 -11 8 -28 15 -37 15 -10 0 -19 6 -22 13 -3 9 -7 9 -20 -1 -16
-14 -37 -9 -37 9 0 6 19 18 43 29 32 14 73 19 177 21 l135 4 50 -34 c28 -19
70 -52 94 -73 32 -27 48 -35 59 -29 10 6 27 3 48 -6 55 -27 104 4 104 67 0 25
-29 41 -49 28 -18 -11 -67 17 -190 108 l-70 50 -119 13 c-65 6 -137 9 -158 5
-35 -5 -42 -3 -55 18 -17 26 -17 114 0 131 6 6 11 26 11 45 0 18 10 56 22 84
13 31 18 52 11 56 -5 4 -9 26 -7 49 1 28 -3 43 -12 47 -12 4 -9 17 15 63 50
100 114 176 247 293 140 122 164 151 164 193 l0 27 -520 0 c-286 0 -520 -4
-520 -8z"/>
<path d="M2400 1800 l0 -1800 884 0 885 0 6 57 c10 94 44 262 70 345 15 52 21
91 18 118 -5 36 -9 40 -33 40 -15 0 -47 -7 -70 -15 -112 -39 -126 5 -41 130
27 38 27 55 1 24 -10 -13 -19 -19 -20 -12 0 18 40 106 57 126 27 29 8 30 -46
2 -73 -36 -150 -55 -178 -42 -13 6 -23 14 -23 19 0 4 -16 8 -35 8 -19 0 -35 5
-35 10 0 6 -10 10 -22 10 l-21 0 23 25 c19 21 21 25 7 25 -25 0 -21 15 18 57
19 21 35 46 35 56 0 9 12 36 26 59 19 30 22 39 10 34 -9 -3 -23 -9 -33 -13
-11 -4 -14 -3 -9 5 4 6 59 37 123 69 127 62 166 90 189 134 17 34 11 49 -35
93 -17 17 -31 37 -31 45 0 23 60 58 127 75 85 21 126 38 167 69 49 38 86 25
169 -59 27 -26 27 -29 11 -41 -10 -7 -35 -13 -56 -13 -42 0 -45 -7 -22 -52 9
-17 24 -56 34 -87 16 -48 17 -57 4 -64 -8 -5 -12 -12 -9 -17 3 -4 10 -43 16
-86 5 -44 19 -97 29 -119 10 -22 21 -64 25 -92 4 -29 11 -55 16 -59 5 -3 9
-26 10 -52 0 -26 4 -69 10 -97 5 -27 11 -68 13 -90 5 -50 24 -155 64 -355 17
-85 34 -181 37 -213 5 -40 11 -57 21 -57 12 0 14 247 14 1800 l0 1800 -1200 0
-1200 0 0 -1800z"/>
</g>
</svg>
