<?xml version="1.0" standalone="no"?>
<!DOCTYPE svg PUBLIC "-//W3C//DTD SVG 20010904//EN"
 "http://www.w3.org/TR/2001/REC-SVG-20010904/DTD/svg10.dtd">
<svg version="1.0" xmlns="http://www.w3.org/2000/svg"
 width="480.000000pt" height="360.000000pt" viewBox="0 0 480.000000 360.000000"
 preserveAspectRatio="xMidYMid meet">
<metadata>
Created by potrace 1.16, written by Peter Selinger 2001-2019
</metadata>
<rect width="1" height="360" fill="#000000"/>
<rect x="479" width="1" height="360" fill="#000000"/>
<rect width="480" height="1" fill="#000000"/>
<rect y="359" width="480" height="1" fill="#000000"/>
<g transform="translate(0.000000,360.000000) scale(0.100000,-0.100000)"
fill="#000000" stroke="none">
<path d="M0 1800 l0 -1800 995 0 c547 0 995 4 995 8 0 50 26 255 46 362 22
116 24 142 15 195 -14 80 -14 158 0 206 10 31 9 49 -5 100 -10 33 -15 71 -12
83 5 20 -8 135 -16 141 -5 4 -252 -25 -303 -35 -27 -6 -81 -20 -118 -32 -58
-19 -71 -20 -89 -9 -19 12 -23 11 -41 -15 -11 -16 -56 -64 -99 -107 -81 -78
-115 -94 -125 -57 -7 25 -9 25 -41 -1 l-27 -21 -20 26 c-19 24 -23 25 -40 11
-27 -20 -53 -19 -67 4 -9 15 -16 17 -31 10 -25 -14 -47 -4 -47 20 0 17 66 91
81 91 9 0 149 161 149 170 0 13 -59 20 -83 11 -37 -14 -79 24 -48 44 16 9 252
55 286 55 18 0 38 7 45 15 7 8 24 15 38 15 13 0 30 8 37 17 11 14 37 17 196
18 101 1 196 5 210 9 25 7 28 15 42 94 9 48 15 107 14 132 -2 96 15 169 53
233 47 77 72 163 64 214 -5 34 -2 43 36 86 23 26 61 61 85 77 28 19 44 39 48
57 3 15 3 30 1 32 -2 2 -22 -4 -43 -14 l-40 -17 -55 48 c-31 27 -56 55 -56 61
0 7 -16 19 -35 27 -19 8 -35 18 -35 21 0 3 10 19 22 35 l22 30 -25 26 c-20 21
-31 25 -60 21 -33 -4 -41 0 -73 33 -22 24 -36 48 -36 64 0 31 -16 34 -25 5 -4
-11 -9 -18 -12 -15 -7 7 23 137 53 229 23 68 32 83 83 129 l58 52 -19 64 c-23
75 -21 78 59 88 36 4 58 2 68 -6 27 -23 42 -4 48 62 4 34 12 81 18 103 l11 39
24 -27 c12 -15 25 -27 28 -27 3 0 14 17 25 38 29 57 42 64 72 44 69 -46 185
-215 201 -292 10 -49 16 -60 44 -75 48 -26 78 -61 123 -145 71 -134 111 -285
151 -571 20 -139 28 -170 97 -353 77 -207 118 -360 129 -484 6 -61 5 -72 -9
-72 -11 0 -17 -14 -22 -48 -3 -26 -10 -54 -15 -61 -5 -8 -2 -31 6 -54 21 -59
17 -104 -16 -186 -52 -127 -88 -245 -110 -357 -11 -60 -28 -119 -36 -132 -25
-38 -47 -449 -28 -519 l6 -23 989 0 989 0 0 1800 0 1800 -2400 0 -2400 0 0
-1800z"/>
<path d="M2072 1147 c-8 -9 -7 -27 3 -62 l13 -50 1 63 c1 66 0 70 -17 49z"/>
<path d="M1189 924 c-13 -14 -17 -23 -9 -19 13 5 46 45 37 45 -2 0 -14 -11
-28 -26z"/>
</g>
</svg>
