<?xml version="1.0" standalone="no"?>
<!DOCTYPE svg PUBLIC "-//W3C//DTD SVG 20010904//EN"
 "http://www.w3.org/TR/2001/REC-SVG-20010904/DTD/svg10.dtd">
<svg version="1.0" xmlns="http://www.w3.org/2000/svg"
 width="480.000000pt" height="360.000000pt" viewBox="0 0 480.000000 360.000000"
 preserveAspectRatio="xMidYMid meet">
<metadata>
Created by potrace 1.16, written by Peter Selinger 2001-2019
</metadata>
<rect width="1" height="360" fill="#000000"/>
<rect x="479" width="1" height="360" fill="#000000"/>
<rect width="480" height="1" fill="#000000"/>
<rect y="359" width="480" height="1" fill="#000000"/>
<g transform="translate(0.000000,360.000000) scale(0.100000,-0.100000)"
fill="#000000" stroke="none">
<path d="M1615 3538 c-11 -114 45 -280 126 -372 39 -44 130 -113 174 -131 18
-7 17 -9 -10 -15 -47 -12 -114 -11 -197 2 -89 13 -99 9 -117 -51 -9 -32 -21
-45 -64 -69 -54 -32 -107 -77 -107 -92 0 -13 30 -40 44 -40 22 0 47 -37 72
-105 29 -80 30 -124 4 -193 -26 -67 -25 -75 3 -67 12 4 27 8 32 9 9 1 12 -62
14 -253 0 -34 -6 -63 -17 -79 -17 -26 -18 -59 -10 -264 1 -32 -3 -63 -10 -70
-14 -18 -34 -154 -27 -182 4 -12 11 -31 17 -43 8 -17 8 -40 -1 -90 -18 -95
-25 -263 -12 -276 14 -14 14 -144 1 -152 -17 -10 -12 -207 5 -229 20 -26 20
-116 0 -142 -20 -27 -21 -193 0 -220 17 -22 11 -122 -11 -164 -21 -43 -27
-159 -11 -205 13 -38 16 -40 58 -43 69 -5 83 17 87 135 3 77 1 98 -13 113 -13
15 -15 29 -9 81 4 35 13 73 20 84 19 27 18 171 -1 209 -18 35 -20 147 -2 164
19 20 16 195 -4 218 -21 25 -26 129 -6 148 27 27 31 206 6 222 -15 9 -10 133
6 158 20 30 25 174 6 208 -9 19 -11 39 -4 78 l8 53 39 -59 c51 -76 157 -179
388 -376 l188 -160 -65 -92 c-36 -50 -123 -176 -193 -281 -284 -421 -333 -558
-293 -817 l14 -88 31 0 c40 0 139 64 227 147 l66 63 7 -42 c4 -24 11 -71 17
-105 l11 -63 554 0 553 0 10 32 9 33 7 -32 c7 -30 11 -33 45 -33 l37 0 -4 73
c-6 109 -43 564 -51 632 -9 79 14 274 36 298 9 10 21 16 28 13 7 -3 18 2 24
10 7 8 19 14 26 14 17 0 131 76 141 94 5 7 16 17 26 23 34 18 158 168 187 227
24 47 30 72 30 123 0 89 -18 199 -42 256 -12 28 -17 52 -12 57 5 4 60 29 122
54 l112 46 49 -35 c26 -19 68 -44 92 -55 24 -11 59 -32 77 -46 17 -15 32 -23
32 -18 0 17 -76 104 -124 144 -53 44 -47 51 14 20 22 -11 49 -20 61 -20 21 0
21 1 5 19 -16 17 -16 24 -5 55 29 81 -46 128 -213 134 -68 3 -119 0 -140 -8
-18 -7 -66 -14 -106 -15 -49 -3 -89 -11 -118 -25 -74 -36 -85 -10 -24 56 24
26 44 60 51 87 10 40 16 47 55 62 57 22 100 75 115 142 13 59 53 103 92 103
31 0 96 40 121 73 15 20 22 51 27 110 4 45 6 84 4 86 -2 2 -12 0 -22 -4 -21
-9 -21 -9 -50 0 -17 4 -23 2 -23 -8 0 -9 6 -17 13 -20 18 -7 -4 -26 -107 -91
-68 -42 -93 -53 -103 -45 -18 16 -41 4 -45 -22 -2 -16 -27 -38 -86 -75 -73
-46 -86 -51 -117 -44 -48 11 -77 -7 -88 -53 -7 -28 -20 -45 -52 -67 -24 -17
-49 -30 -55 -30 -6 0 -41 18 -77 40 -110 66 -157 79 -290 82 -187 3 -219 0
-220 -22 -1 -16 4 -18 33 -13 19 3 34 3 34 0 0 -9 -108 -57 -129 -57 -11 0
-23 -4 -26 -10 -3 -5 1 -10 9 -10 15 0 0 -26 -83 -141 -12 -18 -12 -19 5 -13
18 7 18 7 2 -13 -22 -24 -23 -37 -3 -29 12 4 15 -3 15 -34 0 -46 -8 -49 -64
-20 -22 10 -43 17 -47 14 -5 -3 -9 -24 -9 -48 0 -33 -6 -47 -25 -64 -16 -14
-25 -32 -25 -52 0 -20 -8 -35 -25 -46 -14 -9 -25 -22 -25 -30 0 -7 -7 -29 -16
-48 -23 -48 -14 -71 66 -178 65 -86 79 -108 64 -108 -3 0 -47 38 -97 85 -116
106 -207 179 -323 258 l-91 62 -7 80 c-5 73 -48 357 -62 412 -5 18 -2 23 13
23 32 0 33 10 8 50 -52 83 -65 140 -31 140 8 0 30 14 48 30 37 34 48 37 48 13
0 -29 54 -115 101 -161 58 -57 127 -89 219 -102 41 -6 79 -15 84 -20 6 -6 24
-38 41 -73 22 -45 36 -63 53 -65 14 -2 22 2 22 11 0 8 14 20 31 27 l31 13 -7
70 -6 69 79 73 c109 102 127 143 127 290 0 100 -2 115 -27 160 -14 28 -51 74
-82 104 -41 41 -53 58 -45 67 7 9 7 19 1 31 -8 13 -2 33 23 83 51 103 73 233
52 313 l-7 27 -504 0 -504 0 -7 -62z m-58 -764 c-8 -8 -57 8 -57 18 0 5 12 20
28 33 l27 23 3 -35 c2 -19 1 -37 -1 -39z m2137 -396 c-13 -23 -37 -48 -46 -48
-11 0 33 59 45 59 5 1 5 -5 1 -11z m-2060 -401 c13 -54 13 -55 -8 -47 -12 4
-25 9 -31 11 -10 4 -10 14 1 78 7 45 22 29 38 -42z m-23 -210 c-13 -13 -15 50
-3 80 5 13 8 5 10 -26 2 -24 -2 -49 -7 -54z m17 -87 c13 0 16 -30 6 -79 -6
-29 -10 -31 -38 -28 -33 4 -32 1 -28 83 2 32 4 36 25 30 12 -3 28 -6 35 -6z
m-37 -273 c-8 -8 -11 2 -11 34 0 59 14 73 18 19 2 -24 -2 -48 -7 -53z m39
-129 c0 -67 -7 -77 -49 -70 -32 4 -33 6 -27 41 3 20 6 44 6 53 0 10 10 18 28
21 15 2 30 5 35 6 4 0 7 -23 7 -51z m-30 -198 c0 -27 -4 -52 -10 -55 -6 -4
-10 17 -10 55 0 38 4 59 10 55 6 -3 10 -28 10 -55z m30 -185 l0 -65 -30 0
c-35 0 -44 15 -44 74 -1 34 3 41 24 47 49 14 50 12 50 -56z m-30 -190 c0 -30
-4 -55 -10 -55 -5 0 -10 25 -10 55 0 30 5 55 10 55 6 0 10 -25 10 -55z m30
-187 l0 -63 -35 -1 -35 -1 0 64 0 63 35 0 35 0 0 -62z m-30 -182 c0 -25 -4
-48 -10 -51 -6 -4 -10 13 -10 44 0 28 5 51 10 51 6 0 10 -20 10 -44z m16 -241
c-2 -7 -18 -15 -36 -17 l-31 -5 3 60 c3 55 5 60 27 64 14 2 27 6 30 9 7 7 14
-94 7 -111z"/>
</g>
</svg>
