<?xml version="1.0" standalone="no"?>
<!DOCTYPE svg PUBLIC "-//W3C//DTD SVG 20010904//EN"
 "http://www.w3.org/TR/2001/REC-SVG-20010904/DTD/svg10.dtd">
<svg version="1.0" xmlns="http://www.w3.org/2000/svg"
 width="480.000000pt" height="360.000000pt" viewBox="0 0 480.000000 360.000000"
 preserveAspectRatio="xMidYMid meet">
<metadata>
Created by potrace 1.16, written by Peter Selinger 2001-2019
</metadata>
<rect width="1" height="360" fill="#000000"/>
<rect x="479" width="1" height="360" fill="#000000"/>
<rect width="480" height="1" fill="#000000"/>
<rect y="359" width="480" height="1" fill="#000000"/>
<g transform="translate(0.000000,360.000000) scale(0.100000,-0.100000)"
fill="#000000" stroke="none">
<path d="M2227 3306 c-51 -19 -63 -31 -83 -82 -11 -29 -28 -50 -50 -64 -41
-23 -60 -64 -45 -96 5 -12 13 -50 17 -83 3 -34 10 -61 14 -61 5 0 20 -21 35
-46 23 -39 26 -54 21 -93 -5 -42 -4 -44 9 -27 8 11 15 24 15 29 0 4 5 5 10 2
6 -4 8 -11 5 -16 -4 -5 -1 -17 4 -26 6 -10 11 -14 11 -9 0 5 9 1 21 -10 14
-13 22 -15 27 -7 4 7 13 8 20 4 18 -11 -45 -73 -103 -101 -25 -12 -53 -33 -64
-46 -10 -13 -25 -24 -32 -24 -8 0 -38 -23 -68 -50 -51 -48 -53 -52 -48 -92 4
-31 0 -48 -16 -74 l-22 -33 -51 54 c-27 30 -57 55 -66 55 -30 0 -77 -50 -106
-112 l-29 -62 28 -24 c21 -17 36 -22 56 -18 23 5 40 -3 93 -44 36 -27 73 -49
82 -50 29 0 86 59 175 182 47 65 89 118 94 118 5 0 9 -18 9 -39 0 -22 12 -77
27 -123 15 -48 27 -112 29 -152 2 -38 7 -73 12 -78 6 -6 0 -40 -18 -91 -16
-45 -36 -133 -45 -195 -9 -67 -28 -145 -47 -195 -31 -80 -231 -484 -308 -622
-55 -98 -73 -160 -57 -205 18 -51 24 -58 70 -81 29 -15 64 -22 117 -24 86 -3
110 -11 110 -34 0 -9 -7 -56 -16 -106 -8 -49 -19 -117 -25 -150 -12 -68 -11
-67 -66 -98 -134 -73 -188 -132 -165 -182 11 -24 14 -25 124 -25 102 1 120 3
182 30 102 44 106 49 106 144 1 55 5 87 15 100 8 10 12 22 10 27 -3 4 -1 10 5
14 6 4 7 22 4 45 -4 24 0 56 11 89 9 29 14 58 11 66 -12 33 5 43 82 50 42 4
97 16 120 27 24 10 67 23 95 28 97 16 152 31 169 47 9 8 21 12 27 9 10 -7 103
33 109 47 2 4 16 7 32 7 29 0 52 17 70 51 6 10 16 19 23 19 21 0 191 87 224
114 45 38 51 91 17 158 -23 45 -25 57 -16 82 16 42 -5 80 -88 161 -65 62 -71
66 -104 60 -33 -7 -37 -4 -81 52 -44 55 -82 126 -126 236 l-19 49 29 -7 c20
-4 44 2 85 22 48 23 57 32 62 62 4 20 1 61 -5 91 -7 30 -12 69 -12 85 1 17
-10 51 -23 77 -22 44 -23 50 -10 85 25 70 11 146 -40 224 -16 23 -22 44 -19
62 4 18 -6 47 -32 94 -46 83 -63 103 -86 103 -12 0 -27 16 -40 43 -12 23 -46
65 -75 94 -47 44 -54 56 -54 89 l0 38 33 -30 c52 -49 66 -57 102 -61 30 -3 34
-1 33 19 -1 45 -27 194 -38 222 -17 45 -89 125 -132 147 -21 11 -47 33 -57 49
-20 33 -51 59 -98 84 -39 20 -152 21 -206 2z m584 -1333 c6 -16 17 -40 24 -55
12 -24 12 -32 0 -55 -8 -16 -15 -38 -15 -50 0 -27 -10 -53 -20 -53 -4 0 -17
27 -29 60 -12 33 -37 79 -55 103 l-34 44 47 16 c64 21 70 21 82 -10z"/>
</g>
</svg>
