<?xml version="1.0" standalone="no"?>
<!DOCTYPE svg PUBLIC "-//W3C//DTD SVG 20010904//EN"
 "http://www.w3.org/TR/2001/REC-SVG-20010904/DTD/svg10.dtd">
<svg version="1.0" xmlns="http://www.w3.org/2000/svg"
 width="480.000000pt" height="360.000000pt" viewBox="0 0 480.000000 360.000000"
 preserveAspectRatio="xMidYMid meet">
<metadata>
Created by potrace 1.16, written by Peter Selinger 2001-2019
</metadata>
<rect width="1" height="360" fill="#000000"/>
<rect x="479" width="1" height="360" fill="#000000"/>
<rect width="480" height="1" fill="#000000"/>
<rect y="359" width="480" height="1" fill="#000000"/>
<g transform="translate(0.000000,360.000000) scale(0.100000,-0.100000)"
fill="#000000" stroke="none">
<path d="M250 3551 c0 -27 -3 -63 -6 -80 -8 -39 5 -40 31 -1 11 16 23 30 28
30 4 0 7 -36 7 -81 0 -80 0 -81 18 -59 l18 22 30 -61 c35 -71 35 -71 -69 -71
-55 0 -80 5 -105 20 -32 20 -74 22 -114 5 -9 -3 -32 -2 -52 3 -36 10 -36 10
-36 -20 0 -21 6 -31 20 -35 26 -7 26 -20 0 -28 -20 -6 -20 -15 -20 -1601 l0
-1594 85 0 84 0 6 32 c3 18 12 100 19 181 8 82 16 151 19 153 3 3 15 -11 27
-30 12 -20 25 -36 29 -36 4 0 24 -23 44 -50 42 -57 60 -62 76 -22 32 79 81
365 81 471 0 84 -26 202 -62 284 -32 74 -31 92 5 60 12 -12 44 -35 71 -52 40
-25 61 -31 105 -31 58 0 143 21 167 41 33 27 9 89 -83 220 -60 86 -104 129
-164 160 -36 18 -40 23 -34 46 12 50 70 120 237 286 92 93 168 174 168 180 0
7 -15 37 -33 67 -52 86 -69 82 -157 -35 -50 -68 -226 -247 -282 -290 -35 -25
-38 -26 -38 -8 0 53 76 233 171 405 64 116 87 144 103 127 19 -17 25 -9 19 24
l-6 32 29 -27 c36 -33 163 -76 173 -59 6 9 21 6 55 -9 63 -27 70 -26 63 10 -7
34 -8 34 58 16 32 -8 59 -10 74 -5 22 9 23 16 4 67 -6 15 31 16 58 1 21 -11
20 -3 19 -182 l-1 -58 25 16 c30 20 33 14 35 -54 0 -30 2 -56 4 -58 2 -2 15
17 28 42 37 70 53 68 45 -5 -7 -61 2 -78 23 -42 17 29 12 7 -10 -42 -11 -26
-17 -55 -14 -65 3 -11 1 -49 -6 -86 -11 -64 -7 -93 10 -66 17 27 20 -19 6 -96
-14 -81 -12 -99 8 -72 10 13 12 -1 14 -69 3 -97 9 -122 29 -122 15 0 13 -35
-3 -94 -5 -17 -1 -16 41 8 l46 27 -7 -31 c-4 -23 -2 -30 8 -28 10 2 13 -12 12
-66 l-2 -69 30 28 c36 36 36 27 1 -74 -16 -44 -25 -78 -20 -75 17 11 7 -49
-17 -96 -28 -56 -31 -67 -11 -51 21 17 74 22 79 6 3 -7 2 -29 -3 -49 -7 -30
-6 -35 5 -26 10 9 14 6 17 -12 3 -19 16 -7 78 76 94 125 99 130 103 125 2 -2
1 -39 -2 -82 -6 -81 5 -137 26 -130 9 3 9 -5 -2 -31 -18 -41 -19 -49 -5 -41 5
3 21 -2 35 -11 31 -20 32 -51 5 -104 -28 -56 -25 -68 10 -35 35 33 49 27 29
-12 -23 -47 -23 -49 -4 -33 17 14 18 13 12 -2 -3 -10 -2 -18 4 -18 6 0 8 -9 4
-22 -6 -17 -4 -20 9 -15 20 8 20 4 0 -34 -8 -17 -13 -33 -10 -36 2 -3 26 11
52 31 26 20 49 34 51 32 2 -2 -3 -21 -11 -41 -22 -51 -20 -58 8 -40 23 15 25
15 34 -2 7 -13 6 -30 -5 -58 -24 -66 -26 -75 -15 -75 5 0 13 8 17 18 6 16 7
16 16 -1 7 -12 7 -33 1 -62 l-10 -45 478 0 478 0 7 187 c4 104 5 296 3 429 -6
260 0 434 13 434 5 0 9 -10 9 -22 0 -22 1 -21 25 7 13 17 24 24 25 17 0 -7 9
-23 21 -35 19 -20 21 -21 30 -4 14 23 25 21 34 -5 6 -23 7 -22 17 5 11 31 23
35 32 11 5 -13 9 -14 21 -4 12 10 15 10 15 -2 0 -23 86 -98 99 -85 7 7 12 1
17 -16 8 -34 20 -27 28 18 l7 35 33 -35 c40 -42 49 -43 63 -7 l11 27 1 -30 c1
-34 73 -121 90 -110 6 3 14 -1 17 -9 10 -25 21 -10 28 39 4 25 11 45 17 45 5
0 9 -6 9 -14 0 -7 14 -30 30 -51 17 -21 30 -44 30 -51 0 -8 6 -11 15 -8 8 4
15 1 15 -5 0 -6 5 -11 10 -11 6 0 10 11 10 25 0 36 18 31 57 -15 19 -22 42
-40 52 -40 9 0 22 -5 29 -12 9 -9 12 -5 12 18 1 27 2 28 14 11 10 -13 15 -15
19 -5 3 10 9 8 26 -6 11 -11 21 -15 21 -9 0 17 -36 114 -70 187 -17 37 -29 70
-27 72 2 3 17 -12 33 -33 60 -79 182 -179 207 -170 7 2 24 -2 40 -10 15 -7 27
-12 27 -9 0 7 -112 150 -130 166 -33 29 -232 310 -301 425 -23 39 -78 131
-122 205 -44 74 -159 258 -255 409 -313 492 -325 509 -419 558 -82 43 -133 58
-335 98 -447 88 -607 163 -858 402 -63 59 -96 100 -113 137 -22 48 -28 53 -56
52 -25 -1 -33 -7 -41 -32 -8 -22 -25 -39 -58 -57 -51 -27 -163 -69 -169 -63
-3 2 -1 20 2 40 6 32 9 34 27 25 20 -11 20 -9 13 27 -11 59 -14 184 -4 184 5
0 10 -6 11 -12 3 -23 15 135 17 210 l1 72 -565 0 -565 0 0 -49z m1006 -378 c9
-77 -3 -153 -26 -153 -10 0 -34 -7 -55 -16 -20 -8 -39 -13 -42 -10 -3 3 10 44
28 91 l34 86 17 -38 17 -38 0 80 c1 89 15 88 27 -2z m-321 -153 c-7 -34 10
-42 20 -9 6 17 9 18 22 7 13 -10 17 -10 20 0 7 17 23 15 23 -4 0 -40 -32 -71
-87 -84 -30 -6 -56 -10 -58 -8 -1 1 -6 27 -10 56 -5 35 -3 52 4 52 6 0 11 -6
11 -14 0 -28 19 -26 35 4 20 38 28 38 20 0z"/>
</g>
</svg>
