<?xml version="1.0" standalone="no"?>
<!DOCTYPE svg PUBLIC "-//W3C//DTD SVG 20010904//EN"
 "http://www.w3.org/TR/2001/REC-SVG-20010904/DTD/svg10.dtd">
<svg version="1.0" xmlns="http://www.w3.org/2000/svg"
 width="480.000000pt" height="360.000000pt" viewBox="0 0 480.000000 360.000000"
 preserveAspectRatio="xMidYMid meet">
<metadata>
Created by potrace 1.16, written by Peter Selinger 2001-2019
</metadata>
<rect width="1" height="360" fill="#000000"/>
<rect x="479" width="1" height="360" fill="#000000"/>
<rect width="480" height="1" fill="#000000"/>
<rect y="359" width="480" height="1" fill="#000000"/>
<g transform="translate(0.000000,360.000000) scale(0.100000,-0.100000)"
fill="#000000" stroke="none">
<path d="M0 2564 l0 -1036 51 -92 c107 -190 359 -530 626 -844 32 -38 92 -108
133 -157 101 -120 260 -307 321 -377 l50 -58 1810 0 1809 0 0 1659 0 1658 -69
12 c-120 19 -143 13 -120 -31 6 -13 8 -20 4 -16 -13 12 -35 -19 -32 -44 3 -18
20 -29 80 -52 54 -22 73 -33 66 -42 -5 -6 -73 -39 -152 -74 -81 -36 -180 -89
-230 -124 -86 -59 -91 -61 -163 -64 -62 -4 -74 -7 -72 -21 2 -9 14 -21 27 -27
23 -11 21 -13 -55 -64 -106 -71 -229 -173 -214 -178 6 -2 -29 -46 -79 -97 -58
-58 -91 -100 -91 -114 0 -12 -21 -47 -46 -78 -47 -57 -46 -80 1 -49 14 9 37
21 53 27 19 7 8 -6 -38 -48 -168 -150 -168 -152 -39 -107 41 14 88 29 105 34
l32 7 -19 -31 c-10 -18 -20 -41 -22 -51 -2 -11 -9 -33 -15 -48 -15 -35 -15
-40 -2 -32 13 8 13 2 -2 -30 -14 -30 -18 -30 -100 -5 -91 28 -169 83 -270 189
-94 99 -109 105 -165 71 -43 -26 -66 -74 -93 -195 -12 -55 -29 -112 -36 -127
-18 -36 -78 -66 -167 -84 -38 -8 -78 -19 -88 -25 -31 -16 -66 -90 -78 -166
-24 -141 -125 -245 -221 -228 -100 18 -133 18 -147 -1 -7 -10 -13 -33 -13 -52
0 -29 -14 -47 -99 -137 -116 -120 -161 -191 -161 -252 0 -56 17 -104 99 -275
80 -169 126 -286 136 -348 7 -44 5 -42 -106 105 -299 398 -596 725 -1066 1174
-100 96 -194 191 -209 212 -25 37 -27 45 -34 231 -10 241 -21 318 -101 763
-22 121 -121 626 -141 718 l-12 57 -318 0 -318 0 0 -1036z m3952 -381 c-16
-27 -31 -55 -34 -65 -4 -9 -35 -39 -70 -68 -35 -28 -76 -63 -91 -77 -15 -14
-30 -23 -32 -21 -6 6 119 195 153 232 28 30 55 44 84 45 15 1 13 -6 -10 -46z"/>
<path d="M1358 3573 c29 -41 158 -163 222 -210 107 -80 257 -151 476 -227 132
-45 198 -79 222 -113 12 -18 32 -96 55 -213 34 -172 39 -187 66 -210 46 -39
54 -72 36 -143 -14 -55 -14 -61 1 -79 22 -23 56 -23 77 0 21 23 21 42 2 90
-15 33 -14 40 0 73 l17 36 91 11 c134 17 167 30 183 69 8 19 14 72 15 125 1
51 4 137 8 192 l6 98 41 37 c23 20 104 69 180 110 233 123 389 236 472 340
l33 41 -1111 0 -1111 0 19 -27z"/>
</g>
</svg>
