<?xml version="1.0" standalone="no"?>
<!DOCTYPE svg PUBLIC "-//W3C//DTD SVG 20010904//EN"
 "http://www.w3.org/TR/2001/REC-SVG-20010904/DTD/svg10.dtd">
<svg version="1.0" xmlns="http://www.w3.org/2000/svg"
 width="480.000000pt" height="360.000000pt" viewBox="0 0 480.000000 360.000000"
 preserveAspectRatio="xMidYMid meet">
<metadata>
Created by potrace 1.16, written by Peter Selinger 2001-2019
</metadata>
<rect width="1" height="360" fill="#000000"/>
<rect x="479" width="1" height="360" fill="#000000"/>
<rect width="480" height="1" fill="#000000"/>
<rect y="359" width="480" height="1" fill="#000000"/>
<g transform="translate(0.000000,360.000000) scale(0.100000,-0.100000)"
fill="#000000" stroke="none">
<path d="M0 1800 l0 -1800 298 0 297 0 110 137 c61 75 113 142 117 148 3 6 0
41 -8 78 -12 60 -12 71 2 92 10 15 14 42 13 77 -1 31 3 62 11 75 12 18 11 25
-6 48 -47 66 -64 102 -64 137 0 34 4 40 38 57 46 24 60 39 73 83 14 48 74 358
104 533 22 132 23 151 10 164 -12 12 -17 12 -27 3 -19 -19 -44 -14 -75 12 -24
21 -26 27 -16 43 30 43 93 216 93 254 0 10 -20 37 -45 60 -55 51 -97 123 -129
217 -78 228 -50 417 80 562 47 52 277 234 357 283 34 21 116 55 182 77 66 21
145 48 175 58 30 11 82 23 115 27 76 9 86 17 74 58 -11 44 -30 199 -24 205 8
9 33 -18 149 -163 64 -78 145 -168 181 -200 76 -66 144 -157 181 -241 32 -74
80 -151 99 -158 8 -3 53 -10 100 -17 66 -8 97 -8 136 1 41 10 56 10 75 0 19
-11 29 -11 50 -1 15 6 29 10 31 7 10 -9 -18 -162 -32 -176 -12 -12 -21 -12
-47 -2 -26 10 -33 9 -43 -5 -9 -11 -21 -14 -42 -10 -23 4 -35 1 -48 -13 -16
-18 -16 -20 3 -47 31 -44 73 -156 56 -149 -11 4 -14 -5 -14 -39 0 -25 -6 -50
-15 -58 -7 -8 -17 -26 -21 -41 -3 -14 -10 -26 -15 -26 -5 0 -9 -19 -9 -41 0
-36 -2 -40 -15 -29 -12 10 -15 10 -15 -4 0 -23 -17 -20 -23 5 -9 33 -30 18
-59 -43 -26 -54 -27 -60 -16 -120 6 -35 17 -71 26 -80 14 -16 13 -20 -3 -38
-18 -19 -17 -21 14 -71 17 -28 30 -54 27 -56 -2 -2 -20 10 -39 27 -20 17 -37
27 -40 23 -2 -4 -19 -54 -36 -109 -42 -133 -59 -149 -166 -162 -46 -5 -87 -6
-97 -1 -9 5 -26 9 -37 9 -18 0 -21 -6 -21 -50 0 -60 -5 -57 155 -95 61 -15
173 -47 250 -72 115 -37 147 -51 178 -81 42 -41 45 -48 17 -55 -34 -9 -36 -53
-4 -118 19 -40 31 -56 38 -49 5 5 44 10 85 10 42 1 96 5 121 11 54 12 148 11
210 -2 32 -7 51 -7 67 2 19 10 40 8 125 -15 62 -16 105 -23 111 -17 9 9 67 -8
151 -44 22 -9 57 -18 78 -20 21 -2 76 -24 122 -49 46 -25 91 -46 100 -46 8 0
53 -27 99 -60 47 -33 89 -60 96 -60 16 0 191 -165 253 -240 60 -71 160 -231
162 -258 1 -12 -37 -36 -134 -84 l-135 -67 313 0 312 -1 0 1800 0 1800 -2400
0 -2400 0 0 -1800z m4425 949 c-8 -12 -32 -12 -40 1 -11 18 5 31 26 20 11 -6
17 -15 14 -21z m-1413 -435 c37 -24 53 -56 46 -91 -2 -10 -11 -16 -19 -14 -8
1 -41 5 -74 8 -33 3 -68 10 -77 15 -22 11 -23 41 -3 58 8 7 15 18 15 26 0 18
31 34 55 28 11 -3 37 -17 57 -30z m1768 -254 c0 -5 -4 -10 -10 -10 -5 0 -10 5
-10 10 0 6 5 10 10 10 6 0 10 -4 10 -10z m-4120 -290 c0 -53 -4 -90 -10 -90
-5 0 -10 11 -10 24 0 13 -7 40 -15 59 -25 61 -18 84 33 96 1 1 2 -39 2 -89z
m3960 -16 c0 -8 -4 -14 -9 -14 -12 0 -32 26 -25 33 10 9 34 -4 34 -19z m101
-179 c-1 -15 -24 -12 -29 3 -3 9 2 13 12 10 10 -1 17 -7 17 -13z m-736 -295
c3 -5 -1 -10 -10 -10 -9 0 -13 5 -10 10 3 6 8 10 10 10 2 0 7 -4 10 -10z
m-3568 -987 c7 -17 -35 -57 -69 -66 -25 -7 -23 -2 15 43 36 44 45 48 54 23z"/>
<path d="M2512 2250 c0 -14 2 -19 5 -12 2 6 2 18 0 25 -3 6 -5 1 -5 -13z"/>
</g>
</svg>
