<?xml version="1.0" standalone="no"?>
<!DOCTYPE svg PUBLIC "-//W3C//DTD SVG 20010904//EN"
 "http://www.w3.org/TR/2001/REC-SVG-20010904/DTD/svg10.dtd">
<svg version="1.0" xmlns="http://www.w3.org/2000/svg"
 width="480.000000pt" height="360.000000pt" viewBox="0 0 480.000000 360.000000"
 preserveAspectRatio="xMidYMid meet">
<metadata>
Created by potrace 1.16, written by Peter Selinger 2001-2019
</metadata>
<rect width="1" height="360" fill="#000000"/>
<rect x="479" width="1" height="360" fill="#000000"/>
<rect width="480" height="1" fill="#000000"/>
<rect y="359" width="480" height="1" fill="#000000"/>
<g transform="translate(0.000000,360.000000) scale(0.100000,-0.100000)"
fill="#000000" stroke="none">
<path d="M1510 2894 c-8 -3 -32 -13 -53 -22 -26 -10 -41 -12 -45 -5 -16 24
-50 24 -78 -1 -26 -22 -27 -26 -16 -48 11 -21 10 -32 -7 -76 -26 -66 -26 -69
1 -131 23 -50 62 -82 71 -58 3 9 8 9 16 1 9 -8 6 -17 -9 -36 -21 -27 -26 -48
-12 -48 5 0 23 -23 42 -51 18 -28 39 -53 46 -56 21 -8 17 -23 -7 -23 -23 0
-58 -36 -59 -61 0 -8 6 -24 14 -35 15 -20 5 -44 -19 -44 -17 0 -92 -85 -111
-125 -8 -16 -24 -46 -35 -65 -10 -19 -19 -46 -19 -59 0 -32 33 -84 65 -101 28
-15 30 -34 15 -140 -6 -41 -22 -88 -42 -125 -18 -33 -33 -76 -34 -95 0 -19
-13 -64 -27 -100 -15 -36 -22 -66 -17 -68 15 -5 12 -29 -6 -57 -9 -13 -13 -29
-9 -35 4 -6 -1 -20 -10 -30 -10 -11 -14 -26 -10 -39 3 -11 -3 -84 -14 -163
-62 -433 -82 -591 -96 -756 -8 -101 -15 -197 -15 -213 l0 -29 485 0 c267 0
485 4 485 8 0 5 -13 94 -29 198 -17 104 -33 216 -36 249 -28 278 -81 531 -155
741 -46 130 -45 125 -26 118 27 -10 19 5 -34 64 -27 31 -50 60 -50 64 0 5 17
32 38 61 69 93 72 111 51 277 -10 82 -10 84 13 102 l23 17 -21 15 c-23 16 -22
42 4 108 12 30 1 84 -40 199 -21 56 -22 67 -10 79 11 10 16 10 22 0 5 -9 12
-6 24 11 17 24 17 24 28 4 11 -18 13 -15 23 30 9 43 13 50 35 50 20 0 26 7 35
45 8 33 16 44 28 42 14 -2 14 3 -4 54 -10 32 -29 74 -41 93 -11 20 -20 50 -19
67 1 25 -6 38 -30 59 -18 14 -47 46 -65 69 -44 58 -86 76 -171 75 -37 0 -75
-3 -83 -5z"/>
<path d="M3185 2139 c-80 -25 -155 -59 -182 -83 -33 -29 -32 -88 3 -115 17
-14 27 -33 30 -58 5 -37 3 -39 -63 -83 -37 -25 -83 -66 -103 -92 -40 -55 -25
-59 -168 44 -86 62 -102 65 -117 17 -6 -18 -8 -18 -28 -4 -27 19 -51 19 -44 1
10 -26 -20 -39 -76 -33 -28 3 -60 8 -69 12 -13 5 -18 2 -18 -9 0 -24 70 -65
125 -72 73 -10 87 -19 73 -49 -18 -39 -5 -51 74 -65 126 -22 418 -147 458
-195 7 -8 21 -15 32 -15 25 0 68 -23 92 -48 15 -17 17 -28 9 -59 -8 -33 -5
-44 24 -92 18 -30 42 -80 54 -110 20 -54 20 -58 4 -110 -12 -38 -14 -56 -6
-61 8 -4 4 -21 -13 -51 -38 -67 -52 -114 -107 -341 -27 -114 -56 -227 -64
-252 -8 -24 -13 -51 -9 -59 8 -22 99 -55 172 -63 l63 -7 11 -43 12 -44 132 0
132 0 14 43 c13 41 15 42 72 54 77 15 82 21 62 79 -9 27 -21 103 -27 169 -15
184 -39 364 -55 427 -8 31 -11 64 -8 73 4 9 -2 58 -14 108 -11 51 -30 144 -42
207 -12 63 -28 125 -36 138 -22 33 -7 47 106 100 126 60 284 107 404 122 85
11 99 16 108 35 6 13 26 27 48 34 20 6 49 20 64 32 52 41 23 69 -73 69 -63 0
-81 11 -60 36 18 21 2 30 -20 10 -16 -15 -19 -15 -31 -1 -32 38 -47 37 -117
-8 -58 -38 -447 -247 -459 -247 -9 0 -3 39 6 45 6 4 7 12 3 18 -19 31 -19 78
0 89 8 4 41 28 74 52 111 84 139 155 87 224 -49 64 -169 95 -275 73 -54 -12
-54 -12 -81 18 -24 27 -27 37 -22 74 6 39 3 46 -21 65 -33 26 -60 26 -140 1z"/>
</g>
</svg>
