<?xml version="1.0" standalone="no"?>
<!DOCTYPE svg PUBLIC "-//W3C//DTD SVG 20010904//EN"
 "http://www.w3.org/TR/2001/REC-SVG-20010904/DTD/svg10.dtd">
<svg version="1.0" xmlns="http://www.w3.org/2000/svg"
 width="480.000000pt" height="360.000000pt" viewBox="0 0 480.000000 360.000000"
 preserveAspectRatio="xMidYMid meet">
<metadata>
Created by potrace 1.16, written by Peter Selinger 2001-2019
</metadata>
<rect width="1" height="360" fill="#000000"/>
<rect x="479" width="1" height="360" fill="#000000"/>
<rect width="480" height="1" fill="#000000"/>
<rect y="359" width="480" height="1" fill="#000000"/>
<g transform="translate(0.000000,360.000000) scale(0.100000,-0.100000)"
fill="#000000" stroke="none">
<path d="M2266 3160 c-41 -13 -84 -57 -92 -94 -3 -17 -22 -45 -40 -62 l-34
-32 0 -111 c0 -77 5 -123 15 -148 8 -19 15 -44 15 -55 0 -11 5 -28 11 -39 10
-20 11 -20 46 1 42 24 47 22 38 -18 -4 -21 -16 -34 -43 -46 -49 -22 -167 -29
-183 -10 -17 21 -31 17 -87 -18 -40 -27 -57 -47 -91 -111 -39 -75 -40 -80 -26
-108 21 -39 55 -38 175 7 52 19 114 41 138 49 l42 13 0 -44 c0 -37 4 -46 23
-53 20 -7 22 -15 22 -77 0 -53 6 -80 25 -116 13 -27 26 -48 29 -48 3 0 16 -8
29 -18 l23 -18 -20 -47 c-11 -26 -25 -87 -31 -134 -14 -110 -41 -162 -166
-319 -52 -66 -117 -153 -144 -194 -27 -41 -61 -90 -76 -108 -14 -18 -34 -47
-44 -65 -9 -17 -24 -45 -33 -62 -25 -45 -20 -67 21 -96 37 -25 187 -68 198
-56 4 3 23 -1 43 -9 20 -9 63 -20 95 -24 65 -10 89 -2 139 44 15 14 39 26 52
26 13 0 35 4 49 10 32 12 35 -6 7 -59 -37 -73 -61 -160 -51 -186 14 -38 54
-49 97 -28 64 30 97 75 127 170 14 49 26 96 26 106 0 10 4 16 9 12 15 -9 101
-175 101 -195 0 -10 -14 -52 -31 -93 -16 -42 -31 -88 -32 -104 -2 -28 -1 -28
58 -31 81 -4 106 19 130 117 9 39 21 74 26 77 21 13 9 70 -21 99 -20 20 -39
57 -61 124 -18 53 -34 102 -37 109 -2 7 4 12 16 12 14 0 24 -13 36 -45 18 -45
18 -45 66 -45 27 0 60 -4 75 -10 20 -8 34 -6 58 7 18 9 37 18 44 19 20 3 101
63 117 86 14 20 13 25 -10 69 -24 43 -25 50 -13 82 15 42 8 55 -79 155 -35 40
-66 65 -86 70 -22 6 -41 23 -67 61 -35 53 -51 87 -130 278 -26 66 -56 120 -81
148 -22 25 -39 47 -37 48 2 2 21 15 42 30 20 16 42 25 47 22 18 -11 41 -65 49
-113 5 -26 12 -55 16 -64 5 -14 2 -18 -14 -18 -28 0 -27 -16 4 -36 32 -21 89
-13 120 16 25 23 23 40 -9 130 -9 24 -14 50 -11 58 3 7 -19 48 -49 90 -70 102
-107 193 -99 249 4 34 0 51 -27 97 -38 67 -56 87 -74 80 -9 -3 -24 16 -45 55
l-31 60 35 73 c55 114 45 217 -25 269 -17 13 -40 40 -51 59 -32 57 -81 84
-158 87 -36 1 -79 -2 -95 -7z m344 -2146 c0 -8 -4 -14 -10 -14 -5 0 -10 9 -10
21 0 11 5 17 10 14 6 -3 10 -13 10 -21z"/>
</g>
</svg>
