<?xml version="1.0" standalone="no"?>
<!DOCTYPE svg PUBLIC "-//W3C//DTD SVG 20010904//EN"
 "http://www.w3.org/TR/2001/REC-SVG-20010904/DTD/svg10.dtd">
<svg version="1.0" xmlns="http://www.w3.org/2000/svg"
 width="480.000000pt" height="360.000000pt" viewBox="0 0 480.000000 360.000000"
 preserveAspectRatio="xMidYMid meet">
<metadata>
Created by potrace 1.16, written by Peter Selinger 2001-2019
</metadata>
<rect width="1" height="360" fill="#000000"/>
<rect x="479" width="1" height="360" fill="#000000"/>
<rect width="480" height="1" fill="#000000"/>
<rect y="359" width="480" height="1" fill="#000000"/>
<g transform="translate(0.000000,360.000000) scale(0.100000,-0.100000)"
fill="#000000" stroke="none">
<path d="M0 1800 l0 -1800 650 0 649 0 42 87 c38 81 42 95 44 178 2 91 15 139
59 215 l21 35 5 -30 c5 -27 6 -24 19 25 7 30 27 84 43 120 39 87 47 123 23
118 -59 -11 -27 131 52 228 25 31 70 71 99 90 59 38 61 42 40 82 -7 15 -17 41
-21 59 -6 29 -3 34 26 52 18 11 50 23 71 26 22 4 42 15 48 25 10 18 1 265 -16
471 -8 91 8 175 45 245 l28 51 -19 144 c-17 135 -20 145 -45 166 -75 59 -76
61 -70 117 l5 53 -79 -5 c-69 -4 -79 -3 -73 11 3 9 38 27 77 40 l72 24 14 81
14 81 -52 77 c-74 110 -72 113 34 38 58 -40 62 -41 93 -29 36 16 230 60 307
70 46 6 57 14 136 91 75 73 109 98 109 79 0 -9 -58 -230 -65 -247 -6 -15 -3
-16 32 -6 43 12 203 5 230 -10 14 -8 2 -17 -62 -50 l-79 -39 42 -8 c23 -4 40
-11 37 -15 -4 -7 -67 -32 -113 -46 -11 -3 -8 -14 11 -47 27 -46 70 -173 86
-254 6 -29 14 -117 17 -195 7 -143 7 -143 40 -183 18 -22 38 -53 43 -68 16
-42 13 -143 -5 -185 -13 -27 -17 -72 -18 -172 -1 -74 -6 -143 -10 -152 -10
-23 -26 -23 -26 0 0 14 -2 15 -10 2 -5 -8 -10 -38 -10 -66 l0 -51 58 -6 c72
-8 145 -33 167 -57 15 -17 15 -23 -4 -92 -11 -40 -25 -101 -32 -135 -6 -34
-20 -75 -30 -92 -28 -46 -78 -43 -144 9 -27 21 -51 37 -53 36 -1 -2 17 -43 41
-92 24 -49 65 -148 91 -219 26 -72 65 -168 86 -215 64 -144 83 -231 36 -168
l-17 23 6 -25 c3 -14 10 -83 15 -155 5 -72 9 -131 9 -132 1 -2 446 -3 991 -3
l990 0 0 1800 0 1800 -2400 0 -2400 0 0 -1800z"/>
<path d="M2050 2160 c0 -26 22 -35 50 -20 22 12 23 31 2 38 -7 2 -12 -6 -12
-17 0 -12 -4 -21 -10 -21 -5 0 -10 6 -10 14 0 8 -4 18 -10 21 -5 3 -10 -3 -10
-15z"/>
</g>
</svg>
