<?xml version="1.0" standalone="no"?>
<!DOCTYPE svg PUBLIC "-//W3C//DTD SVG 20010904//EN"
 "http://www.w3.org/TR/2001/REC-SVG-20010904/DTD/svg10.dtd">
<svg version="1.0" xmlns="http://www.w3.org/2000/svg"
 width="480.000000pt" height="360.000000pt" viewBox="0 0 480.000000 360.000000"
 preserveAspectRatio="xMidYMid meet">
<metadata>
Created by potrace 1.16, written by Peter Selinger 2001-2019
</metadata>
<rect width="1" height="360" fill="#000000"/>
<rect x="479" width="1" height="360" fill="#000000"/>
<rect width="480" height="1" fill="#000000"/>
<rect y="359" width="480" height="1" fill="#000000"/>
<g transform="translate(0.000000,360.000000) scale(0.100000,-0.100000)"
fill="#000000" stroke="none">
<path d="M2994 3573 c3 -16 24 -64 46 -107 22 -44 38 -82 35 -84 -3 -3 -33 -9
-67 -14 -192 -26 -440 -167 -544 -309 -21 -30 -48 -65 -60 -78 -12 -13 -34
-55 -49 -95 -63 -164 -80 -199 -118 -242 -44 -49 -29 -61 23 -18 17 15 33 24
36 22 2 -3 -3 -24 -11 -48 -18 -52 -20 -83 -4 -60 9 13 10 13 6 -1 -3 -9 -8
-42 -12 -75 -6 -54 -5 -57 9 -40 15 18 16 18 24 -5 5 -13 13 -43 17 -66 4 -24
10 -43 14 -43 3 0 6 19 5 43 -2 26 0 31 3 13 2 -16 11 -35 19 -43 8 -8 14 -21
14 -29 0 -8 4 -14 10 -14 5 0 7 8 4 18 -3 9 3 2 14 -17 12 -21 21 -29 24 -21
6 18 28 4 28 -18 0 -9 12 -25 26 -36 l26 -19 -7 34 c-15 75 -14 81 5 29 32
-88 33 -88 40 -50 l7 35 1 -35 c2 -48 -29 -112 -67 -139 -45 -32 -41 -61 13
-95 44 -28 56 -48 56 -99 0 -24 7 -31 48 -48 59 -25 72 -42 65 -84 -4 -24 -1
-36 14 -46 10 -8 38 -43 61 -78 43 -65 52 -104 31 -143 -12 -23 -7 -30 24 -34
12 -1 23 -3 25 -3 1 -1 -2 -10 -8 -22 -7 -13 -8 -25 -2 -32 5 -7 12 -41 16
-77 4 -36 14 -102 22 -147 17 -92 15 -100 -41 -153 l-37 -35 -16 25 c-10 14
-34 43 -54 65 -20 23 -46 65 -57 94 -12 29 -40 80 -63 114 l-42 62 -1 145 c-1
116 -5 156 -20 200 -24 69 -86 134 -140 149 -50 14 -169 14 -215 1 -40 -11
-50 -2 -50 48 0 22 -5 32 -16 32 -13 0 -15 -10 -12 -51 l3 -51 -79 -29 c-85
-31 -183 -99 -197 -137 -5 -12 -18 -60 -29 -105 l-20 -82 24 -80 c13 -44 27
-99 31 -122 14 -83 136 -229 220 -263 30 -12 55 -23 55 -25 0 -1 -15 -36 -34
-77 -37 -78 -54 -142 -82 -298 -9 -52 -24 -113 -34 -135 -35 -82 -43 -144 -37
-279 3 -72 8 -139 12 -148 7 -17 30 -18 284 -18 l278 0 41 83 c41 82 140 232
148 224 2 -2 0 -35 -6 -73 -11 -80 -13 -158 -4 -203 6 -31 7 -31 70 -31 59 0
64 2 65 23 l0 22 11 -22 11 -23 756 0 756 1 73 24 c40 13 98 39 130 57 l57 33
-32 3 c-18 2 -33 6 -33 9 0 3 18 27 40 53 22 26 38 49 35 51 -2 3 -31 2 -63
-1 -50 -5 -77 -16 -178 -77 -151 -90 -158 -93 -178 -54 -9 16 -13 36 -10 45 7
18 -24 164 -37 172 -5 3 -9 20 -9 37 0 18 -14 86 -31 152 -17 66 -35 137 -40
159 -5 21 -15 48 -21 60 -7 11 -13 32 -14 46 -1 14 -7 45 -13 70 -26 113 1
151 31 44 9 -32 17 -61 17 -64 1 -3 6 2 11 10 7 12 11 10 19 -10 5 -14 10 -19
10 -12 1 6 6 12 11 12 6 0 10 -6 10 -12 1 -7 25 -62 54 -123 52 -105 54 -108
55 -70 0 22 -10 121 -23 220 -13 99 -22 182 -20 184 1 1 19 -29 38 -67 20 -39
39 -73 43 -75 5 -3 -7 54 -25 126 -26 105 -34 158 -37 262 -4 99 -2 122 6 95
50 -173 79 -251 130 -347 58 -108 109 -184 94 -138 -45 139 -91 341 -80 353 2
2 13 -15 25 -37 26 -52 138 -219 152 -227 7 -5 8 2 3 22 -31 122 -46 268 -65
627 -32 628 -75 876 -210 1235 -27 73 -50 141 -50 150 -1 39 -62 187 -104 251
-90 134 -165 182 -298 189 l-87 4 -52 79 -52 79 -314 0 -315 0 6 -27z"/>
</g>
</svg>
