<?xml version="1.0" standalone="no"?>
<!DOCTYPE svg PUBLIC "-//W3C//DTD SVG 20010904//EN"
 "http://www.w3.org/TR/2001/REC-SVG-20010904/DTD/svg10.dtd">
<svg version="1.0" xmlns="http://www.w3.org/2000/svg"
 width="480.000000pt" height="360.000000pt" viewBox="0 0 480.000000 360.000000"
 preserveAspectRatio="xMidYMid meet">
<metadata>
Created by potrace 1.16, written by Peter Selinger 2001-2019
</metadata>
<rect width="1" height="360" fill="#000000"/>
<rect x="479" width="1" height="360" fill="#000000"/>
<rect width="480" height="1" fill="#000000"/>
<rect y="359" width="480" height="1" fill="#000000"/>
<g transform="translate(0.000000,360.000000) scale(0.100000,-0.100000)"
fill="#000000" stroke="none">
<path d="M0 2255 l0 -1345 48 6 c26 3 81 9 122 14 41 5 102 12 135 14 33 3
148 12 255 21 107 8 244 19 305 23 l110 7 62 94 c76 116 149 201 211 243 25
17 56 43 69 57 l22 26 -66 67 -67 67 25 34 c52 73 119 143 229 239 133 117
306 288 371 368 92 112 251 330 394 540 43 63 97 142 120 175 42 60 42 60 54
194 6 74 10 136 8 137 -1 2 -20 -1 -42 -6 -59 -14 -93 -12 -133 7 -82 39 -164
161 -199 297 l-18 66 -1007 0 -1008 0 0 -1345z"/>
<path d="M3206 3553 c-4 -27 -9 -68 -13 -93 -14 -114 -104 -637 -128 -744 -15
-66 -37 -143 -50 -172 -13 -29 -77 -119 -142 -201 -387 -483 -508 -670 -644
-994 -54 -130 -114 -252 -149 -305 l-20 -31 67 -7 c38 -3 154 -11 258 -17 105
-5 240 -15 302 -22 61 -7 116 -11 122 -9 6 2 50 80 96 172 47 93 107 195 132
227 26 32 51 63 56 70 6 9 -11 31 -57 75 -44 43 -66 71 -66 87 0 33 85 203
131 261 21 27 39 52 39 56 0 3 38 61 84 127 178 259 296 495 462 927 25 63 63
161 84 217 22 56 40 105 40 108 0 3 16 46 36 96 l36 91 -29 64 -28 63 -306 1
-306 0 -7 -47z"/>
<path d="M4761 3098 c-132 -253 -360 -718 -411 -837 -94 -220 -160 -427 -195
-611 -32 -170 -84 -344 -135 -455 -38 -82 -39 -84 -87 -97 -32 -10 -47 -19
-45 -29 2 -8 6 -78 9 -156 3 -79 8 -143 10 -143 5 0 277 -71 403 -105 90 -24
469 -143 482 -151 4 -3 8 591 8 1320 0 729 -1 1326 -3 1326 -2 0 -18 -28 -36
-62z"/>
<path d="M1962 533 c-21 -3 -45 -18 -70 -44 -49 -53 -96 -61 -138 -26 l-30 25
-59 -39 c-33 -22 -70 -42 -83 -46 -31 -7 -67 10 -88 42 l-17 25 -53 -50 c-64
-60 -100 -66 -143 -22 -15 15 -30 34 -33 42 -4 11 -21 0 -66 -42 -33 -32 -66
-58 -72 -58 -19 0 -64 27 -86 52 -13 14 -23 42 -27 71 -2 26 -7 51 -11 54 -12
12 -862 -52 -963 -73 l-23 -4 0 -220 0 -220 2401 0 c1880 0 2400 3 2397 12 -3
7 -96 42 -209 79 -293 95 -349 111 -597 174 l-223 56 -31 -26 c-40 -34 -71
-32 -117 10 -44 40 -44 40 -86 -45 -15 -30 -34 -63 -43 -72 -25 -29 -74 -22
-131 17 l-51 35 -16 -40 c-32 -80 -140 -95 -209 -30 -21 19 -21 19 -57 -5 -42
-29 -41 -28 -90 -15 -75 21 -85 57 -39 148 34 67 50 159 29 166 -54 19 -897
79 -966 69z"/>
<path d="M3146 403 c-6 -14 -5 -15 5 -6 7 7 10 15 7 18 -3 3 -9 -2 -12 -12z"/>
</g>
</svg>
