<?xml version="1.0" standalone="no"?>
<!DOCTYPE svg PUBLIC "-//W3C//DTD SVG 20010904//EN"
 "http://www.w3.org/TR/2001/REC-SVG-20010904/DTD/svg10.dtd">
<svg version="1.0" xmlns="http://www.w3.org/2000/svg"
 width="480.000000pt" height="360.000000pt" viewBox="0 0 480.000000 360.000000"
 preserveAspectRatio="xMidYMid meet">
<metadata>
Created by potrace 1.16, written by Peter Selinger 2001-2019
</metadata>
<rect width="1" height="360" fill="#000000"/>
<rect x="479" width="1" height="360" fill="#000000"/>
<rect width="480" height="1" fill="#000000"/>
<rect y="359" width="480" height="1" fill="#000000"/>
<g transform="translate(0.000000,360.000000) scale(0.100000,-0.100000)"
fill="#000000" stroke="none">
<path d="M1545 2913 c-11 -2 -40 -11 -63 -20 -32 -11 -47 -12 -55 -4 -18 18
-54 13 -84 -13 -24 -20 -25 -26 -14 -40 11 -14 10 -26 -8 -84 l-22 -67 21 -42
c11 -23 20 -46 20 -51 0 -15 48 -33 53 -19 3 9 8 9 16 1 10 -9 7 -18 -12 -40
l-24 -28 34 -35 c19 -20 41 -48 49 -63 8 -16 20 -28 26 -28 7 0 -7 -12 -30
-27 -43 -28 -51 -48 -32 -83 8 -15 -2 -29 -55 -84 -36 -36 -65 -71 -65 -77 0
-6 -9 -23 -19 -38 -11 -15 -22 -43 -26 -63 -9 -47 23 -123 59 -140 23 -10 26
-17 26 -62 -1 -84 -14 -128 -57 -193 -27 -41 -38 -64 -31 -71 11 -11 -1 -58
-35 -130 -15 -32 -17 -46 -8 -51 8 -6 5 -34 -13 -112 -14 -57 -35 -169 -46
-249 -11 -80 -34 -221 -50 -315 -16 -93 -36 -249 -45 -345 -8 -96 -22 -208
-30 -249 -8 -40 -15 -77 -15 -82 0 -5 218 -9 511 -9 l512 0 -6 32 c-3 18 -19
112 -36 208 -16 96 -41 265 -56 375 -26 208 -72 407 -140 611 -20 60 -39 115
-42 122 -3 8 1 10 11 6 31 -12 16 22 -29 66 -25 24 -45 50 -45 58 0 7 19 45
41 84 l42 71 -7 138 c-7 126 -6 138 11 147 16 10 17 12 1 29 -14 15 -15 25 -7
58 23 85 21 101 -15 210 -20 59 -34 110 -31 113 3 3 5 0 5 -8 0 -9 3 -10 13
-1 8 6 17 8 20 4 4 -3 16 2 27 12 18 16 20 16 26 1 10 -26 24 -18 24 13 0 50
17 83 39 76 17 -5 21 1 27 40 5 33 10 45 20 41 25 -10 15 31 -26 109 -22 42
-40 87 -40 101 0 15 -14 39 -37 63 -21 21 -50 54 -66 74 -38 51 -132 78 -212
60z"/>
</g>
</svg>
