<?xml version="1.0" standalone="no"?>
<!DOCTYPE svg PUBLIC "-//W3C//DTD SVG 20010904//EN"
 "http://www.w3.org/TR/2001/REC-SVG-20010904/DTD/svg10.dtd">
<svg version="1.0" xmlns="http://www.w3.org/2000/svg"
 width="480.000000pt" height="360.000000pt" viewBox="0 0 480.000000 360.000000"
 preserveAspectRatio="xMidYMid meet">
<metadata>
Created by potrace 1.16, written by Peter Selinger 2001-2019
</metadata>
<rect width="1" height="360" fill="#000000"/>
<rect x="479" width="1" height="360" fill="#000000"/>
<rect width="480" height="1" fill="#000000"/>
<rect y="359" width="480" height="1" fill="#000000"/>
<g transform="translate(0.000000,360.000000) scale(0.100000,-0.100000)"
fill="#000000" stroke="none">
<path d="M0 1800 l0 -1800 1253 0 1252 0 38 55 38 55 -35 80 c-34 78 -115 204
-183 285 -36 42 -82 170 -67 185 5 5 43 14 84 21 96 15 297 6 455 -21 66 -11
126 -20 134 -20 12 0 13 36 8 228 -6 226 -22 372 -52 467 -9 28 -19 95 -22
150 -3 59 -11 108 -19 120 -27 39 -10 145 39 242 39 75 35 194 -3 122 -18 -33
-19 -18 -4 49 14 59 13 67 -11 163 -23 88 -58 179 -69 179 -12 0 2 -62 18 -79
29 -32 11 -25 -47 18 -29 21 -67 43 -85 49 -78 26 -106 61 -148 186 -36 105
-35 116 34 295 l36 93 -25 22 c-15 11 -40 29 -58 38 -23 13 -31 24 -31 45 0
34 48 97 91 119 28 14 29 16 14 43 -8 16 -26 43 -41 60 -15 18 -24 34 -22 37
3 2 30 13 61 24 77 27 111 26 136 -6 18 -23 20 -24 29 -7 6 10 13 39 17 66 4
26 12 50 17 53 5 4 26 -10 47 -30 50 -49 76 -47 141 11 50 45 53 46 83 34 18
-7 71 -23 119 -35 48 -13 96 -30 105 -38 10 -9 40 -19 66 -22 62 -9 137 -35
239 -84 110 -52 160 -91 204 -156 48 -73 108 -256 129 -391 20 -133 40 -178
106 -240 l50 -47 -61 4 -61 3 5 -86 c3 -48 8 -100 11 -115 5 -27 4 -27 -10 5
-9 18 -23 40 -31 48 -7 8 -14 20 -14 28 0 15 -39 65 -40 50 0 -6 5 -26 11 -45
6 -19 11 -75 13 -123 1 -74 0 -85 -11 -71 -12 17 -13 17 -14 -2 0 -15 -2 -14
-9 6 -4 14 -11 37 -14 53 -9 40 -23 33 -32 -15 l-8 -43 -8 51 c-6 32 -17 59
-30 70 l-21 19 7 -70 c4 -38 9 -85 12 -102 8 -44 -7 -42 -34 5 -14 23 -22 31
-22 19 0 -10 -5 -24 -12 -31 -9 -10 -17 -6 -39 18 -15 17 -30 28 -33 25 -3 -3
-3 -28 1 -54 8 -63 38 -95 89 -95 149 0 230 -110 281 -386 l8 -41 145 184 c80
102 149 194 154 204 7 15 3 26 -19 49 l-28 29 23 9 c15 6 19 11 12 16 -18 11
-14 25 6 20 18 -5 151 64 152 79 0 4 -11 12 -25 19 -25 11 -25 31 0 21 20 -7
19 25 -1 48 -15 17 -14 19 10 25 33 8 32 12 -3 82 -21 41 -32 84 -40 152 -6
52 -17 114 -23 137 -8 32 -8 46 1 57 9 11 8 15 -4 20 -20 7 -19 27 2 65 27 46
8 58 -52 36 -51 -20 -69 -13 -63 26 2 17 17 31 51 48 56 28 57 7 -10 241 -71
251 -78 304 -57 434 6 39 6 40 20 15 18 -31 71 -200 130 -414 25 -93 50 -180
55 -192 l8 -22 49 21 c58 24 82 19 82 -17 0 -22 -9 -30 -56 -52 -72 -33 -71
-56 3 -63 29 -3 57 -10 62 -15 11 -12 81 -169 121 -274 16 -40 31 -76 34 -79
3 -3 6 254 6 571 l0 577 -2400 0 -2400 0 0 -1800z"/>
<path d="M2985 2100 c-4 -11 -3 -45 0 -75 6 -46 10 -53 21 -44 15 12 18 56 8
108 -7 35 -20 40 -29 11z"/>
<path d="M3071 2053 c0 -6 -4 -20 -7 -30 -5 -14 -4 -15 5 -7 7 7 11 20 8 30
-3 11 -5 14 -6 7z"/>
<path d="M3120 2035 c0 -8 11 -17 25 -21 42 -10 48 1 11 19 -31 14 -36 14 -36
2z"/>
<path d="M3230 2010 c-24 -8 -23 -8 8 -9 17 -1 32 4 32 9 0 11 -5 11 -40 0z"/>
<path d="M4791 1914 c0 -11 3 -14 6 -6 3 7 2 16 -1 19 -3 4 -6 -2 -5 -13z"/>
<path d="M4783 1750 c-3 -17 -9 -33 -14 -36 -12 -7 -66 23 -78 43 -10 17 -12
17 -27 -2 -8 -11 -45 -69 -81 -130 -181 -304 -209 -349 -246 -391 -49 -56 -86
-75 -157 -83 l-55 -6 -8 -95 c-5 -52 -17 -120 -28 -150 l-19 -55 21 -17 c12
-10 31 -18 43 -18 54 0 113 -31 144 -76 37 -52 37 -52 16 -75 -15 -17 -14 -21
15 -55 42 -47 54 -79 40 -105 -13 -25 -50 -40 -79 -32 -18 5 -21 3 -17 -13 41
-134 31 -169 -63 -218 -71 -38 -99 -38 -113 -3 -3 9 -23 13 -68 11 -98 -3
-102 -5 -94 -79 6 -52 3 -71 -14 -110 -12 -26 -21 -49 -21 -51 0 -2 207 -4
460 -4 l460 0 0 890 c0 490 -2 890 -5 890 -3 0 -8 -14 -12 -30z"/>
<path d="M4120 279 c0 -5 5 -7 10 -4 6 3 10 8 10 11 0 2 -4 4 -10 4 -5 0 -10
-5 -10 -11z"/>
</g>
</svg>
