<?xml version="1.0" standalone="no"?>
<!DOCTYPE svg PUBLIC "-//W3C//DTD SVG 20010904//EN"
 "http://www.w3.org/TR/2001/REC-SVG-20010904/DTD/svg10.dtd">
<svg version="1.0" xmlns="http://www.w3.org/2000/svg"
 width="480.000000pt" height="360.000000pt" viewBox="0 0 480.000000 360.000000"
 preserveAspectRatio="xMidYMid meet">
<metadata>
Created by potrace 1.16, written by Peter Selinger 2001-2019
</metadata>
<rect width="1" height="360" fill="#000000"/>
<rect x="479" width="1" height="360" fill="#000000"/>
<rect width="480" height="1" fill="#000000"/>
<rect y="359" width="480" height="1" fill="#000000"/>
<g transform="translate(0.000000,360.000000) scale(0.100000,-0.100000)"
fill="#000000" stroke="none">
<path d="M2000 2962 c-25 -9 -55 -22 -66 -29 -25 -15 -54 -71 -54 -106 0 -13
-13 -38 -30 -55 -28 -30 -30 -37 -30 -104 1 -95 17 -137 77 -202 67 -73 83
-83 99 -61 12 15 13 15 23 -3 8 -15 7 -23 -3 -31 -8 -7 -20 -35 -26 -64 -7
-29 -17 -60 -21 -69 -18 -34 2 -100 42 -139 53 -52 57 -77 24 -162 -15 -40
-36 -88 -45 -107 -24 -49 -13 -216 15 -236 26 -19 59 -17 78 4 31 34 13 78
-20 50 -15 -12 -16 -9 -10 27 4 22 13 45 22 51 8 6 24 41 35 78 12 36 23 66
25 66 3 0 11 -12 19 -28 12 -24 12 -32 -1 -62 -12 -26 -18 -90 -24 -245 -9
-247 -16 -285 -62 -334 -35 -37 -87 -147 -87 -183 0 -12 8 -30 17 -40 12 -14
17 -38 17 -91 1 -93 20 -128 68 -122 59 6 113 34 125 65 9 24 18 30 58 36 26
3 80 4 119 1 100 -9 105 -17 137 -224 8 -58 17 -79 40 -104 25 -27 34 -30 61
-25 18 3 43 16 56 29 21 19 23 29 19 82 -2 33 -16 93 -30 133 -33 92 -34 102
-2 102 19 0 28 -8 36 -28 14 -35 69 -298 69 -327 0 -29 30 -55 65 -55 32 0 95
44 95 66 0 9 -16 52 -35 96 -44 99 -74 263 -52 285 15 15 145 49 228 58 30 4
64 11 77 18 17 8 25 8 34 -1 9 -9 16 -8 30 5 25 23 22 64 -7 107 -19 29 -23
41 -15 56 5 10 10 27 10 37 0 10 -54 71 -121 135 -102 99 -126 118 -153 118
-25 0 -42 12 -94 68 -35 37 -100 121 -144 187 -44 66 -97 137 -116 157 -20 21
-34 39 -31 41 2 1 23 15 46 31 82 55 107 168 58 260 -14 26 -25 48 -25 49 0 2
18 1 40 -1 51 -5 70 10 70 58 0 44 -19 64 -77 79 -25 7 -47 20 -54 32 -13 26
-67 49 -113 49 -28 0 -40 7 -68 42 -33 42 -33 43 -30 135 3 101 -9 145 -60
221 -20 29 -39 45 -59 49 -16 3 -39 17 -50 31 -48 62 -127 78 -219 44z"/>
</g>
</svg>
