<?xml version="1.0" standalone="no"?>
<!DOCTYPE svg PUBLIC "-//W3C//DTD SVG 20010904//EN"
 "http://www.w3.org/TR/2001/REC-SVG-20010904/DTD/svg10.dtd">
<svg version="1.0" xmlns="http://www.w3.org/2000/svg"
 width="480.000000pt" height="360.000000pt" viewBox="0 0 480.000000 360.000000"
 preserveAspectRatio="xMidYMid meet">
<metadata>
Created by potrace 1.16, written by Peter Selinger 2001-2019
</metadata>
<rect width="1" height="360" fill="#000000"/>
<rect x="479" width="1" height="360" fill="#000000"/>
<rect width="480" height="1" fill="#000000"/>
<rect y="359" width="480" height="1" fill="#000000"/>
<g transform="translate(0.000000,360.000000) scale(0.100000,-0.100000)"
fill="#000000" stroke="none">
<path d="M3690 3591 c0 -6 5 -13 10 -16 19 -12 10 -63 -17 -95 -24 -30 -29
-31 -72 -25 -25 3 -54 8 -63 11 -11 3 -18 0 -18 -9 0 -8 -15 -26 -33 -40 -33
-25 -36 -25 -138 -18 -103 8 -104 8 -139 -19 -19 -15 -51 -53 -71 -86 -23 -38
-44 -60 -57 -62 -26 -4 -28 -28 -7 -59 8 -12 14 -33 13 -46 -3 -29 -9 -27 -83
23 -52 35 -69 41 -135 46 -30 3 -65 12 -77 19 -13 9 -43 13 -78 12 l-58 -2
-26 -47 c-25 -46 -26 -48 -9 -78 17 -30 17 -30 -6 -30 -13 0 -29 -6 -35 -14
-9 -11 -2 -17 36 -31 59 -22 73 -33 73 -55 0 -9 11 -43 24 -76 28 -68 54 -88
136 -105 59 -12 104 -35 95 -48 -2 -5 -22 -12 -42 -16 -21 -3 -57 -17 -80 -31
l-41 -24 2 -78 c2 -43 6 -84 11 -91 11 -18 -1 -24 -116 -56 l-99 -29 -28 26
c-26 25 -31 26 -126 22 -54 -2 -103 -8 -110 -13 -6 -5 -22 -11 -36 -13 -16 -2
-26 -10 -28 -24 -2 -13 -18 -28 -40 -39 l-37 -17 23 -15 c30 -21 28 -29 -8
-36 -30 -6 -42 -27 -16 -27 8 0 16 -7 20 -15 3 -8 17 -15 31 -15 16 0 24 -4
19 -11 -4 -6 1 -9 13 -7 11 2 32 -3 46 -11 21 -11 24 -17 14 -32 -8 -14 -8
-36 3 -91 7 -40 15 -158 17 -263 5 -214 5 -215 78 -235 60 -17 142 -9 196 19
56 29 177 120 226 169 35 36 42 39 81 34 41 -4 43 -6 37 -29 -19 -77 -28 -212
-28 -397 l1 -208 40 -42 c33 -33 39 -44 31 -59 -6 -9 -8 -25 -5 -35 3 -9 -1
-28 -9 -42 -66 -118 -97 -192 -147 -350 -65 -210 -146 -385 -238 -513 -30 -44
-59 -86 -65 -95 -5 -9 -19 -24 -30 -34 -19 -17 15 -17 798 -18 449 0 817 1
817 3 0 2 -14 40 -30 86 -17 45 -71 222 -121 394 -96 333 -126 410 -192 497
-23 30 -40 61 -39 69 6 27 -8 60 -29 66 -21 7 -21 7 3 30 13 12 34 25 45 29
11 4 28 15 37 25 16 18 16 24 -3 99 -27 102 -26 114 4 252 34 152 63 209 151
295 99 96 106 129 81 339 l-12 99 -45 11 c-25 6 -45 16 -45 21 0 13 51 145 87
223 15 34 33 96 39 137 l11 75 142 44 c77 24 241 75 363 113 213 65 223 69
223 93 0 14 -3 20 -8 14 -7 -11 -104 -41 -167 -52 -16 -2 -32 -8 -35 -11 -10
-12 -326 -111 -353 -111 -16 0 -26 -4 -22 -10 4 -6 -8 -10 -29 -10 -20 0 -36
-4 -36 -9 0 -5 -12 -12 -27 -15 -16 -4 -36 -9 -45 -12 -11 -3 -18 0 -18 9 0
10 88 44 288 111 454 152 446 149 450 180 2 14 2 26 0 26 -8 0 -434 -141 -453
-150 -11 -5 -36 -13 -55 -19 -19 -5 -82 -23 -139 -41 -95 -28 -106 -30 -120
-15 -15 14 -13 18 15 40 58 45 86 115 47 115 -10 0 -13 5 -8 18 4 9 12 31 17
47 6 17 15 34 19 40 5 5 9 14 9 19 0 6 -25 -14 -55 -44 -30 -29 -57 -52 -60
-49 -2 3 11 43 30 88 19 45 35 85 35 88 0 2 -18 2 -41 -2 -39 -7 -42 -5 -83
39 -25 28 -50 46 -64 46 -12 0 -39 16 -61 35 -21 19 -49 35 -61 35 -21 0 -20
3 14 40 42 47 47 87 15 131 -17 25 -27 29 -65 29 -24 0 -44 -4 -44 -9z m-810
-1170 c0 -11 -33 -24 -130 -51 -41 -12 -83 -24 -94 -27 -12 -3 -17 -1 -14 8 2
7 49 28 104 45 105 34 134 39 134 25z m55 -41 c-3 -5 10 -17 29 -27 50 -24 45
-32 -16 -27 -53 5 -53 5 -81 -36 -15 -23 -26 -49 -23 -58 4 -13 -6 -22 -37
-35 -23 -11 -57 -25 -75 -33 -31 -14 -33 -13 -42 8 -6 13 -15 31 -22 40 -10
14 -10 24 -1 49 8 21 9 37 3 44 -7 9 22 21 108 47 120 37 168 45 157 28z"/>
<path d="M317 3144 c-4 -4 -7 -23 -7 -43 0 -27 -3 -32 -12 -23 -18 18 -28 14
-28 -10 0 -13 -8 -36 -18 -53 -16 -26 -17 -33 -5 -51 13 -20 9 -26 -59 -92
-40 -39 -89 -92 -108 -116 -19 -25 -45 -49 -57 -52 -23 -6 -23 -7 -23 -205 l0
-199 28 -30 c15 -17 54 -41 87 -53 52 -20 60 -27 60 -50 1 -14 10 -35 20 -47
11 -12 15 -24 10 -28 -43 -31 -127 -82 -161 -98 l-42 -19 -1 -280 -1 -280 73
-43 c57 -34 80 -55 107 -98 19 -31 47 -70 61 -87 14 -18 40 -59 58 -91 l33
-59 -18 -41 c-11 -23 -31 -59 -45 -81 -31 -46 -93 -193 -104 -245 -4 -19 -11
-39 -15 -45 -4 -5 -11 -26 -15 -45 -3 -19 -14 -62 -24 -95 -10 -33 -24 -80
-30 -105 -7 -25 -26 -94 -43 -155 -17 -60 -33 -136 -35 -167 l-5 -58 595 0
595 0 -48 118 c-60 147 -93 277 -120 474 -25 178 -50 270 -91 339 -20 34 -27
58 -23 74 4 18 0 27 -20 40 -28 19 -37 51 -11 41 19 -7 95 22 95 37 0 6 -27
67 -61 136 -47 97 -64 145 -76 214 -15 87 -14 90 7 135 55 115 70 139 106 167
36 29 54 65 32 65 -5 0 -7 4 -4 9 3 4 -23 16 -58 25 -77 21 -166 61 -166 75 0
6 6 8 13 6 8 -4 12 7 11 35 0 23 4 39 10 38 6 0 23 4 38 10 l27 11 -34 52
c-19 28 -32 56 -29 61 4 6 10 5 15 -3 7 -11 9 -11 9 -1 0 21 21 3 36 -32 l13
-31 1 34 c0 18 -12 56 -26 85 -14 28 -40 100 -56 160 -16 61 -34 118 -39 129
-14 25 6 107 38 153 27 40 25 51 -6 35 -11 -7 -22 -7 -25 -2 -3 5 -24 7 -45 4
-33 -5 -41 -2 -53 17 -9 15 -220 201 -256 226 -2 1 1 19 7 41 10 34 8 40 -10
54 -17 13 -19 22 -14 52 9 47 -11 50 -24 5 l-9 -33 -2 30 c-2 38 -14 68 -23
59z m-22 -1135 c13 -20 -26 -47 -83 -58 -31 -6 -74 -15 -94 -20 -27 -6 -38 -6
-38 3 0 17 96 67 148 76 26 4 50 8 54 9 4 0 10 -4 13 -10z"/>
</g>
</svg>
