<?xml version="1.0" standalone="no"?>
<!DOCTYPE svg PUBLIC "-//W3C//DTD SVG 20010904//EN"
 "http://www.w3.org/TR/2001/REC-SVG-20010904/DTD/svg10.dtd">
<svg version="1.0" xmlns="http://www.w3.org/2000/svg"
 width="480.000000pt" height="360.000000pt" viewBox="0 0 480.000000 360.000000"
 preserveAspectRatio="xMidYMid meet">
<metadata>
Created by potrace 1.16, written by Peter Selinger 2001-2019
</metadata>
<rect width="1" height="360" fill="#000000"/>
<rect x="479" width="1" height="360" fill="#000000"/>
<rect width="480" height="1" fill="#000000"/>
<rect y="359" width="480" height="1" fill="#000000"/>
<g transform="translate(0.000000,360.000000) scale(0.100000,-0.100000)"
fill="#000000" stroke="none">
<path d="M0 2311 l0 -1290 33 13 c17 7 68 17 111 20 44 4 92 14 107 21 15 8
74 20 131 25 202 21 190 17 186 58 -3 33 -7 37 -40 45 -21 5 -38 13 -38 17 0
5 16 39 35 77 41 82 63 172 65 273 3 117 3 118 -27 125 -16 3 -36 17 -46 31
-18 24 -18 25 2 51 12 14 21 33 21 42 0 10 5 22 10 27 11 11 43 138 42 169 -1
11 -3 54 -5 95 -4 97 5 139 39 169 24 20 34 22 78 17 39 -5 57 -13 74 -34 12
-15 29 -34 37 -43 18 -19 19 -33 4 -57 -9 -14 -8 -26 5 -51 16 -30 16 -34 1
-51 -14 -16 -14 -22 -2 -56 8 -22 20 -57 26 -80 7 -27 29 -59 66 -96 30 -30
55 -58 55 -62 0 -17 -45 -66 -61 -66 -9 0 -21 -6 -27 -12 -15 -19 2 -339 22
-411 9 -32 16 -65 16 -72 0 -23 -48 -18 -62 5 -17 27 -35 25 -42 -6 -7 -28 2
-46 43 -81 l25 -22 -25 -5 c-44 -11 -312 -55 -454 -75 -189 -27 -311 -35 -362
-23 l-43 10 0 -504 0 -504 878 0 878 0 13 58 c11 50 10 68 -6 142 -21 98 -24
340 -6 403 10 33 9 39 -5 44 -9 3 -24 12 -32 18 -8 7 -44 23 -80 35 -36 12
-72 29 -81 36 -8 8 -22 14 -30 14 -8 0 -26 11 -40 23 -59 53 -43 165 55 382
55 120 141 345 133 345 -2 0 -68 -11 -148 -24 -79 -13 -182 -27 -229 -31 -121
-11 -134 -17 -127 -60 3 -19 2 -35 -3 -35 -5 0 -10 16 -12 36 l-3 37 -69 3
c-69 3 -111 21 -123 51 -9 23 12 30 107 38 48 4 92 10 98 14 14 9 -7 37 -32
42 -26 5 -30 23 -11 43 35 34 95 8 65 -29 -18 -22 -2 -37 31 -30 23 5 28 3 24
-8 -5 -12 5 -12 72 0 79 15 103 26 103 47 0 6 9 29 21 50 25 47 20 62 -24 74
-18 5 -85 31 -148 57 -63 26 -124 51 -137 56 -17 7 -22 16 -20 32 5 35 45 26
226 -47 131 -54 166 -65 182 -56 26 14 63 81 90 165 29 90 58 169 83 225 16
37 18 50 8 75 -6 17 -11 43 -11 57 0 45 100 152 152 163 15 4 30 10 33 14 7
12 -59 66 -77 63 -8 -2 -20 4 -27 12 -7 8 -18 13 -26 10 -8 -4 -15 5 -20 23
-7 32 -38 73 -55 73 -14 0 -49 40 -50 58 0 6 -7 12 -15 12 -10 0 -15 10 -15
28 0 39 -26 65 -450 452 -69 63 -192 181 -275 262 l-150 148 -357 0 -358 0 0
-1289z"/>
<path d="M865 3503 c260 -252 457 -439 589 -558 55 -50 104 -95 110 -100 25
-24 84 -65 92 -65 5 0 18 14 28 30 38 65 125 137 198 164 83 31 92 32 168 6
l59 -20 76 25 c83 28 196 38 215 19 9 -9 9 -17 0 -34 -17 -33 -3 -158 21 -184
11 -11 19 -24 19 -28 0 -5 -35 -45 -77 -89 -74 -77 -80 -80 -114 -75 -35 6
-35 5 -54 -46 l-18 -52 24 -15 c13 -9 39 -30 57 -47 41 -41 45 -97 7 -142
l-24 -29 24 5 c27 5 34 -12 11 -25 -8 -4 -15 -17 -17 -27 -2 -10 -12 -23 -21
-27 -10 -5 -26 -13 -35 -18 -26 -12 -34 -88 -23 -220 8 -94 7 -116 -5 -125 -7
-6 -15 -18 -16 -26 -3 -21 11 -70 21 -70 14 0 225 50 373 88 l149 39 15 -24
c9 -13 16 -40 17 -60 1 -34 -2 -37 -34 -45 -19 -4 -127 -28 -240 -53 -113 -26
-210 -48 -217 -50 -12 -4 8 -78 28 -101 8 -10 73 -32 249 -83 36 -11 133 -36
215 -56 163 -40 190 -54 162 -82 -33 -33 -161 -14 -437 65 -74 21 -136 35
-138 31 -2 -4 14 -40 34 -81 41 -81 47 -97 75 -211 25 -102 24 -132 -6 -191
-14 -27 -25 -58 -25 -68 0 -10 -16 -35 -35 -57 -19 -21 -35 -42 -35 -46 0 -4
15 -42 34 -85 42 -95 63 -191 71 -330 5 -84 12 -116 32 -158 19 -39 23 -55 14
-66 -7 -8 -9 -31 -5 -60 l7 -46 1158 0 1159 0 0 1800 0 1800 -830 0 c-807 0
-830 -1 -830 -19 0 -10 -8 -29 -19 -42 -16 -20 -21 -21 -35 -10 -9 7 -16 26
-16 42 l0 29 -166 0 -165 0 22 -39 c28 -50 86 -110 119 -123 73 -28 120 -28
264 -2 77 14 159 29 181 34 180 39 352 32 538 -24 62 -19 146 -42 187 -52 96
-21 124 -36 183 -92 193 -188 46 -526 -228 -526 -124 -1 -218 62 -272 182 -22
46 -24 64 -21 135 3 45 6 88 9 96 3 11 -16 20 -71 33 -65 17 -99 18 -250 13
-96 -3 -218 -8 -271 -11 -83 -6 -107 -3 -170 15 -61 19 -80 31 -123 75 -28 29
-75 93 -105 144 -29 50 -65 101 -78 114 l-25 23 -931 2 -932 3 100 -97z m3700
-407 c18 -13 18 -15 -10 -40 -31 -29 -75 -35 -75 -11 0 17 43 65 58 65 4 0 17
-6 27 -14z m-1874 -442 c22 -11 29 -21 27 -37 -7 -47 -78 -20 -78 30 0 27 10
29 51 7z m690 1 c-1 -15 -24 -12 -29 3 -3 9 2 13 12 10 10 -1 17 -7 17 -13z
m225 -280 c9 -23 -15 -45 -47 -45 -31 0 -40 25 -17 48 17 17 58 15 64 -3z
m-1136 -215 c0 -5 -7 -10 -15 -10 -8 0 -15 5 -15 10 0 6 7 10 15 10 8 0 15 -4
15 -10z m1424 -9 c17 -18 16 -20 -26 -35 -37 -15 -49 -15 -82 -4 -22 7 -41 19
-44 26 -10 33 124 44 152 13z m894 -384 c2 -11 -3 -17 -17 -17 -23 0 -35 15
-26 31 10 15 39 6 43 -14z m-734 -598 c-3 -5 -10 -7 -15 -3 -5 3 -7 10 -3 15
3 5 10 7 15 3 5 -3 7 -10 3 -15z m272 -981 c20 -20 6 -57 -24 -65 -29 -7 -87
20 -97 45 -15 39 86 55 121 20z"/>
<path d="M1762 1963 c-43 -62 -122 -209 -122 -228 0 -17 11 -25 53 -38 49 -16
53 -16 65 0 6 9 12 23 12 32 0 8 7 22 16 32 19 21 9 44 -27 63 -28 15 -28 11
5 99 14 37 24 67 22 67 -3 0 -13 -12 -24 -27z"/>
<path d="M1600 1615 c-10 -12 -10 -15 3 -15 25 0 47 11 41 21 -8 14 -30 11
-44 -6z"/>
<path d="M716 1226 c-5 -28 -12 -36 -36 -41 -50 -11 -37 -55 20 -68 38 -9 46
2 54 76 6 62 5 67 -13 67 -14 0 -21 -9 -25 -34z"/>
<path d="M2126 677 c-31 -16 -44 -18 -72 -9 -26 8 -36 7 -46 -5 -6 -8 -22 -13
-34 -10 -37 7 -46 -7 -54 -89 -12 -111 -16 -471 -6 -521 l9 -43 223 0 223 0
-10 32 c-5 17 -14 35 -21 39 -7 5 -12 35 -13 76 -2 86 -126 532 -152 545 -4 2
-25 -5 -47 -15z"/>
</g>
</svg>
