<?xml version="1.0" standalone="no"?>
<!DOCTYPE svg PUBLIC "-//W3C//DTD SVG 20010904//EN"
 "http://www.w3.org/TR/2001/REC-SVG-20010904/DTD/svg10.dtd">
<svg version="1.0" xmlns="http://www.w3.org/2000/svg"
 width="480.000000pt" height="360.000000pt" viewBox="0 0 480.000000 360.000000"
 preserveAspectRatio="xMidYMid meet">
<metadata>
Created by potrace 1.16, written by Peter Selinger 2001-2019
</metadata>
<rect width="1" height="360" fill="#000000"/>
<rect x="479" width="1" height="360" fill="#000000"/>
<rect width="480" height="1" fill="#000000"/>
<rect y="359" width="480" height="1" fill="#000000"/>
<g transform="translate(0.000000,360.000000) scale(0.100000,-0.100000)"
fill="#000000" stroke="none">
<path d="M0 1800 l0 -1800 322 2 322 3 13 60 c16 77 16 72 -5 77 -29 8 -48 89
-33 138 8 26 8 46 1 65 -9 23 -6 30 20 54 30 27 30 28 15 57 -8 16 -15 36 -15
45 0 8 -5 20 -12 27 -9 9 -7 17 10 33 14 13 21 27 17 38 -3 10 -6 36 -7 57 -1
31 -9 47 -40 78 -21 21 -43 56 -50 79 -11 36 -10 42 6 51 46 28 66 50 76 84 5
20 10 132 10 247 1 175 11 415 22 500 3 23 -8 26 -38 13 -15 -7 -32 -5 -60 7
-38 16 -39 17 -19 33 25 20 85 175 85 218 0 17 -7 34 -18 40 -10 7 -34 36 -55
65 -87 128 -118 364 -68 519 23 69 31 82 110 160 67 66 116 103 220 164 164
97 221 121 366 152 61 13 125 29 141 35 16 6 76 14 133 18 l104 6 -2 128 c-1
70 1 127 6 127 11 0 65 -79 153 -225 40 -66 100 -153 132 -194 56 -70 107
-158 123 -211 4 -14 23 -60 42 -102 35 -76 37 -78 92 -99 71 -26 150 -35 192
-20 30 10 35 9 64 -19 21 -20 37 -28 48 -24 21 8 21 -6 3 -66 -32 -105 -47
-130 -75 -130 -14 0 -37 9 -51 20 -32 25 -47 25 -60 1 -11 -21 1 -106 21 -143
9 -17 9 -20 -4 -15 -16 6 -27 -18 -27 -61 0 -12 -7 -25 -15 -28 -8 -4 -15 -13
-15 -20 0 -8 -6 -17 -14 -20 -8 -3 -17 -23 -21 -45 -6 -36 -24 -55 -26 -26 0
6 -5 1 -12 -13 l-11 -25 -4 28 c-2 15 -7 27 -12 27 -23 0 -40 -14 -40 -35 0
-12 -10 -30 -21 -41 -20 -17 -21 -25 -13 -89 4 -38 7 -90 6 -114 -1 -26 7 -59
18 -82 29 -55 25 -58 -18 -16 l-39 38 -16 -43 c-10 -24 -17 -53 -17 -65 0 -22
-8 -33 -75 -107 l-36 -39 -77 7 c-42 3 -88 7 -102 9 -21 2 -25 -3 -28 -29 -2
-17 3 -35 10 -41 7 -6 69 -20 138 -32 69 -11 176 -31 239 -44 97 -20 115 -27
127 -48 19 -34 17 -59 -4 -59 -32 0 -32 -11 3 -61 19 -27 37 -58 40 -69 8 -25
0 -25 120 6 161 42 181 44 365 49 196 5 320 -11 498 -66 51 -16 97 -29 103
-29 24 0 239 -116 333 -180 189 -128 331 -275 462 -476 50 -76 154 -281 154
-304 0 -7 95 -10 285 -10 l285 0 0 1800 0 1800 -957 -1 c-527 -1 -950 -3 -940
-6 9 -2 17 -8 17 -13 0 -9 -86 -30 -121 -30 -31 0 -61 20 -55 36 5 12 -184 14
-1369 14 l-1375 0 0 -1800z m3223 363 c-7 -2 -21 -2 -30 0 -10 3 -4 5 12 5 17
0 24 -2 18 -5z m102 -51 c-3 -3 -16 5 -28 17 l-22 23 28 -17 c15 -10 25 -20
22 -23z"/>
<path d="M1221 1311 c-30 -14 -43 -31 -23 -31 17 1 72 25 72 31 0 16 -16 16
-49 0z"/>
<path d="M1145 1280 c-3 -5 1 -10 10 -10 9 0 13 5 10 10 -3 6 -8 10 -10 10 -2
0 -7 -4 -10 -10z"/>
<path d="M1086 63 c9 -52 14 -54 14 -5 0 23 -5 42 -10 42 -7 0 -8 -14 -4 -37z"/>
</g>
</svg>
