<?xml version="1.0" standalone="no"?>
<!DOCTYPE svg PUBLIC "-//W3C//DTD SVG 20010904//EN"
 "http://www.w3.org/TR/2001/REC-SVG-20010904/DTD/svg10.dtd">
<svg version="1.0" xmlns="http://www.w3.org/2000/svg"
 width="480.000000pt" height="360.000000pt" viewBox="0 0 480.000000 360.000000"
 preserveAspectRatio="xMidYMid meet">
<metadata>
Created by potrace 1.16, written by Peter Selinger 2001-2019
</metadata>
<rect width="1" height="360" fill="#000000"/>
<rect x="479" width="1" height="360" fill="#000000"/>
<rect width="480" height="1" fill="#000000"/>
<rect y="359" width="480" height="1" fill="#000000"/>
<g transform="translate(0.000000,360.000000) scale(0.100000,-0.100000)"
fill="#000000" stroke="none">
<path d="M2197 3576 c-105 -43 -186 -136 -247 -283 -24 -56 -34 -99 -38 -153
-5 -80 -5 -80 -80 -129 -35 -24 -50 -28 -86 -24 -43 5 -43 5 -50 -30 -4 -22
-17 -43 -33 -55 -34 -24 -28 -39 49 -131 76 -90 91 -100 118 -83 18 11 22 9
32 -12 14 -31 -2 -59 -66 -112 -25 -21 -43 -40 -41 -44 2 -4 25 -4 51 0 l46 7
-7 -46 c-3 -25 -9 -57 -11 -71 -5 -23 -3 -23 24 10 l30 34 10 -39 c6 -22 14
-53 18 -69 6 -26 8 -27 19 -12 12 15 13 15 19 0 3 -8 6 -29 6 -45 0 -29 14
-40 23 -16 2 6 8 -1 12 -18 11 -43 14 -46 33 -36 13 7 20 4 29 -12 11 -20 12
-19 13 15 0 56 20 58 21 1 l1 -48 16 35 17 35 5 -70 6 -70 17 37 c9 21 17 43
17 49 0 7 10 5 26 -6 l27 -17 -7 26 c-4 15 -2 26 4 26 5 0 10 -21 10 -46 0
-40 -2 -45 -19 -39 -27 8 -34 -10 -21 -51 16 -46 9 -53 -95 -89 -103 -35 -165
-67 -211 -107 -29 -26 -38 -29 -45 -17 -4 8 -32 50 -61 94 -60 91 -49 87 -203
65 -55 -7 -133 -10 -200 -7 -137 7 -216 32 -369 121 -169 98 -455 236 -475
228 -9 -3 -59 -34 -111 -69 -98 -66 -276 -157 -367 -189 l-53 -19 0 -155 1
-155 21 40 c12 22 22 56 24 75 5 65 26 90 103 120 39 16 71 26 71 23 0 -3 -13
-22 -29 -42 -29 -36 -30 -42 -40 -202 -23 -381 -24 -386 -10 -395 8 -5 17 -1
23 10 6 10 26 41 44 69 18 29 42 70 53 92 11 22 24 47 29 55 6 8 42 71 81 139
l71 123 -7 71 c-3 39 -12 81 -18 92 -6 11 -12 40 -12 64 0 43 2 46 59 88 l58
43 42 -26 c22 -14 60 -34 82 -44 36 -16 41 -22 37 -44 -3 -14 -13 -28 -23 -31
-28 -9 -102 -152 -96 -184 3 -14 17 -135 30 -269 25 -238 29 -262 45 -262 11
0 41 74 131 317 28 76 58 151 66 166 14 25 14 36 -1 110 -9 45 -23 89 -31 98
-19 22 -18 49 4 49 32 -1 127 -46 189 -91 71 -50 83 -84 39 -112 -27 -18 -86
-137 -86 -175 0 -44 78 -543 86 -551 13 -13 37 39 84 184 28 88 65 199 81 248
16 48 29 95 29 105 0 36 -31 138 -50 164 -11 15 -20 30 -20 34 0 3 76 4 168 3
128 -3 173 -7 186 -18 16 -14 15 -17 -18 -45 -22 -20 -45 -57 -64 -103 -32
-78 -32 -71 2 -223 67 -296 88 -386 98 -403 10 -19 12 -19 23 -4 7 10 21 53
31 97 15 66 21 80 37 80 24 0 24 0 -37 -194 -26 -81 -56 -200 -69 -263 l-21
-115 -49 -25 c-27 -13 -138 -82 -246 -152 -108 -70 -210 -136 -227 -146 l-31
-18 -121 121 c-90 90 -130 124 -159 132 -47 14 -83 1 -83 -30 0 -21 33 -57 62
-66 25 -8 22 -30 -8 -61 -24 -24 -30 -25 -92 -19 -50 5 -86 2 -140 -12 l-73
-19 -35 35 c-22 22 -34 44 -34 61 0 35 -22 64 -45 60 -18 -4 -75 -125 -75
-161 0 -9 20 -43 45 -76 25 -33 45 -64 45 -69 0 -5 14 -31 31 -57 l30 -48 55
4 c52 5 56 3 70 -24 18 -36 48 -36 114 -3 l49 25 73 -24 c40 -14 128 -36 195
-50 122 -26 123 -26 171 -8 52 20 363 192 503 278 151 94 190 153 285 437 27
81 52 147 56 147 4 0 10 -10 13 -22 9 -36 11 -351 3 -489 -6 -120 -9 -130 -48
-215 -48 -102 -100 -230 -100 -244 0 -6 242 -10 670 -10 423 0 670 4 670 10 0
16 -38 108 -102 248 -55 118 -60 135 -49 156 10 18 10 39 0 102 -16 98 -16
341 0 357 8 8 11 8 11 -1 0 -22 87 -245 113 -292 56 -96 106 -132 431 -310 93
-51 205 -110 250 -132 l81 -40 110 6 c105 6 254 34 296 57 16 8 34 3 90 -25
81 -41 103 -37 117 17 7 29 12 32 53 35 66 5 113 60 108 126 -3 25 6 45 34 83
43 58 44 70 17 121 -10 20 -25 57 -32 82 -21 72 -78 62 -78 -14 0 -21 -11 -41
-36 -67 -33 -33 -39 -36 -67 -28 -18 5 -82 9 -143 9 -122 0 -138 7 -149 66 -5
25 -1 32 27 49 36 22 46 48 28 70 -17 20 -46 19 -95 -5 -31 -15 -49 -34 -75
-81 -19 -33 -46 -67 -61 -76 -14 -8 -40 -37 -58 -64 l-34 -48 -30 16 c-17 8
-89 51 -161 96 -208 127 -318 192 -366 218 -40 22 -46 30 -53 69 -21 112 -72
304 -107 401 l-38 107 26 11 c32 15 35 9 58 -84 9 -38 22 -76 30 -84 22 -24
21 -27 111 389 36 170 37 176 23 225 -8 30 -9 49 -3 57 6 7 20 39 32 71 32 87
39 92 143 92 48 0 88 -1 88 -3 0 -1 -6 -13 -14 -25 -8 -12 -22 -55 -32 -95
-20 -79 -21 -77 36 -227 10 -27 41 -113 69 -191 53 -150 80 -214 92 -214 12 0
19 29 29 128 6 53 20 178 31 278 l21 180 -38 73 c-21 41 -51 83 -66 94 -16 12
-28 29 -28 38 0 27 86 95 178 141 96 48 117 44 87 -18 -9 -20 -22 -67 -27
-103 l-10 -66 85 -190 c161 -360 158 -354 171 -318 9 21 25 335 26 472 0 102
-1 104 -37 165 -20 33 -41 63 -46 65 -16 6 -47 40 -47 51 0 5 19 19 43 31 23
12 56 32 74 45 43 33 61 30 127 -17 52 -37 57 -44 51 -69 -3 -16 -2 -31 4 -35
7 -4 5 -14 -5 -31 -11 -16 -16 -48 -17 -99 0 -83 -6 -70 125 -255 22 -30 75
-104 117 -165 43 -60 86 -112 95 -113 24 -5 23 1 -45 471 -7 47 -19 87 -31
102 -11 14 -18 25 -16 25 2 0 31 -11 66 -23 65 -24 92 -53 92 -101 0 -11 7
-30 15 -40 13 -18 15 -7 15 105 l0 124 -67 24 c-89 30 -263 117 -352 174 -130
85 -153 91 -199 58 -15 -10 -79 -44 -142 -76 -63 -32 -172 -93 -242 -137 -143
-89 -214 -123 -297 -142 l-56 -13 3 38 c4 36 22 57 22 25 0 -8 4 -17 8 -20 5
-3 7 9 5 27 -8 65 -43 293 -49 312 -4 16 2 23 27 32 28 11 31 16 25 40 -20 92
-19 121 9 190 52 130 30 351 -40 397 -34 22 -139 21 -190 -3 -22 -10 -54 -30
-71 -44 -17 -15 -34 -24 -38 -20 -3 3 -6 25 -6 47 0 97 -46 202 -122 283 -86
90 -150 117 -440 183 -215 49 -302 52 -391 16z m937 -1063 c-4 -76 -8 -206 -9
-289 l0 -151 -38 5 c-44 6 -69 -12 -99 -73 -31 -62 -92 -155 -102 -155 -5 0
-28 18 -52 39 -46 43 -129 88 -210 115 -88 29 -89 30 -69 119 9 42 19 77 20
77 2 0 2 -33 -1 -72 -5 -68 -4 -72 10 -54 9 11 16 23 16 28 0 4 5 7 12 6 6 -2
23 18 37 44 14 26 27 45 29 43 3 -2 8 -21 13 -42 5 -21 14 -60 21 -87 l13 -49
12 74 12 74 -3 -68 c-2 -37 0 -70 5 -73 5 -3 9 2 9 10 0 8 5 39 11 67 11 51
12 52 25 28 10 -18 13 -20 14 -7 0 10 7 36 17 59 16 40 16 41 28 18 12 -22 13
-22 30 14 23 50 30 52 45 17 7 -16 18 -34 25 -40 11 -9 13 2 8 65 l-6 76 59
-7 c58 -6 59 -6 34 11 -69 49 -67 80 12 212 33 57 66 103 71 103 7 0 7 -47 1
-137z m-914 -116 c0 -5 -4 -5 -10 -2 -5 3 -10 14 -10 23 0 15 2 15 10 2 5 -8
10 -19 10 -23z m145 -67 c19 -6 33 -16 30 -21 -4 -5 9 -9 27 -9 18 0 40 -5 48
-10 21 -14 -34 -13 -99 1 -60 13 -151 67 -132 79 9 5 10 10 2 14 -6 4 -11 11
-11 16 0 5 22 -6 50 -25 27 -18 65 -39 85 -45z m165 -159 c0 -20 -17 -37 -27
-28 -7 8 7 47 18 47 5 0 9 -9 9 -19z m608 -245 c8 -18 7 -27 -4 -38 -16 -16
-54 -108 -61 -150 l-5 -27 -44 32 c-24 18 -42 35 -41 39 4 13 130 168 137 168
4 0 12 -11 18 -24z m-1455 -48 c14 -18 41 -51 61 -72 l37 -39 -38 -39 -38 -39
-27 58 c-15 32 -27 64 -28 72 0 8 -7 22 -16 32 -12 14 -13 22 -4 38 15 28 23
27 53 -11z m1644 -25 c-3 -10 -5 -4 -5 12 0 17 2 24 5 18 2 -7 2 -21 0 -30z
m-187 -417 c0 -18 -2 -18 -25 4 -27 26 -32 46 -12 53 14 5 36 -29 37 -57z
m-1480 30 c0 -8 -4 -18 -10 -21 -5 -3 -10 3 -10 14 0 12 5 21 10 21 6 0 10 -6
10 -14z m2805 -1166 c-3 -5 -12 -7 -20 -3 -21 7 -19 13 6 13 11 0 18 -4 14
-10z"/>
<path d="M2338 2313 c7 -3 16 -2 19 1 4 3 -2 6 -13 5 -11 0 -14 -3 -6 -6z"/>
</g>
</svg>
