<?xml version="1.0" standalone="no"?>
<!DOCTYPE svg PUBLIC "-//W3C//DTD SVG 20010904//EN"
 "http://www.w3.org/TR/2001/REC-SVG-20010904/DTD/svg10.dtd">
<svg version="1.0" xmlns="http://www.w3.org/2000/svg"
 width="480.000000pt" height="360.000000pt" viewBox="0 0 480.000000 360.000000"
 preserveAspectRatio="xMidYMid meet">
<metadata>
Created by potrace 1.16, written by Peter Selinger 2001-2019
</metadata>
<rect width="1" height="360" fill="#000000"/>
<rect x="479" width="1" height="360" fill="#000000"/>
<rect width="480" height="1" fill="#000000"/>
<rect y="359" width="480" height="1" fill="#000000"/>
<g transform="translate(0.000000,360.000000) scale(0.100000,-0.100000)"
fill="#000000" stroke="none">
<path d="M0 2135 c0 -806 2 -1465 4 -1465 2 0 18 12 35 27 29 26 31 31 31 100
0 42 -4 73 -10 73 -15 0 -12 36 5 50 8 7 15 18 15 26 0 7 23 21 52 32 44 16
54 25 61 52 5 20 4 36 -3 45 -13 15 -1 51 32 95 24 33 48 39 48 13 0 -9 7 -25
16 -35 12 -13 14 -21 6 -30 -5 -7 -13 -30 -17 -51 -9 -48 17 -79 80 -97 49
-14 63 -35 40 -60 -11 -12 -15 -40 -15 -107 l0 -91 29 -7 c16 -3 32 -13 35
-21 4 -10 22 -14 65 -14 l60 0 19 -42 c59 -136 66 -159 53 -168 -10 -5 -17
-41 -22 -107 -13 -158 -12 -175 9 -169 13 5 28 -12 65 -74 30 -49 55 -80 65
-80 9 0 107 -7 217 -15 135 -10 365 -15 711 -15 l512 0 -2 177 -1 178 68 105
c37 58 72 109 77 114 5 5 42 -42 86 -108 l77 -116 -7 -175 -7 -175 1155 0
1156 0 0 1800 0 1800 -2400 0 -2400 0 0 -1465z m3338 948 c29 -18 45 -59 38
-101 -4 -30 33 -165 52 -184 4 -4 64 -17 132 -28 155 -26 158 -27 165 -51 7
-21 -39 -87 -61 -88 -7 -1 -14 -8 -18 -16 -3 -8 -11 -15 -19 -15 -25 0 -16
-39 14 -60 36 -26 38 -44 5 -36 -14 3 -28 1 -31 -4 -4 -6 -11 -8 -16 -4 -6 3
-17 3 -26 0 -14 -6 -14 -8 3 -21 12 -9 14 -15 7 -16 -17 -2 -25 -4 -46 -14
-16 -7 -17 -9 -2 -25 16 -17 14 -18 -19 -15 -49 5 -58 -12 -60 -108 -1 -45 -5
-90 -10 -100 -5 -11 18 -2 70 29 84 50 186 94 217 94 17 0 18 -5 12 -42 -4
-24 -14 -61 -22 -83 -8 -22 -17 -47 -19 -56 -5 -14 20 -16 218 -16 123 0 231
3 241 8 37 20 15 -10 -30 -39 l-46 -30 49 -25 c27 -13 67 -30 89 -37 36 -12
37 -14 17 -21 -50 -19 -20 -43 76 -60 76 -14 89 -30 31 -40 -75 -12 -71 -41 8
-61 27 -6 40 -14 33 -18 -8 -5 -2 -14 19 -26 44 -26 39 -32 -16 -23 -81 14
-86 14 -91 0 -3 -10 1 -12 18 -8 21 5 21 5 3 -15 -18 -20 -17 -21 27 -60 32
-29 38 -39 23 -34 -17 5 -23 3 -23 -8 0 -8 5 -18 10 -21 25 -15 6 -24 -42 -19
l-53 5 63 -30 c63 -30 77 -53 26 -43 -20 4 -25 1 -22 -9 3 -8 40 -27 84 -44
63 -24 73 -31 52 -33 -15 -2 -36 2 -47 7 -11 7 -22 7 -25 2 -3 -5 1 -11 9 -15
8 -3 15 -10 15 -15 0 -6 -31 1 -69 14 -89 33 -96 32 -69 -10 18 -26 34 -37 71
-47 69 -17 44 -34 -29 -19 -76 15 -79 14 -81 -11 -1 -12 -10 -26 -19 -31 -15
-9 -15 -11 7 -28 44 -33 11 -32 -50 2 -61 33 -87 34 -60 2 17 -21 51 -94 46
-99 -2 -2 -21 15 -43 36 -42 43 -119 100 -135 100 -5 0 -10 -13 -10 -30 -1
-16 -2 -36 -3 -42 -1 -7 5 -24 14 -38 14 -22 14 -24 -2 -18 -13 6 -20 -3 -33
-43 -9 -27 -19 -49 -22 -49 -3 0 -3 21 0 47 3 32 2 42 -5 30 -15 -28 -29 -19
-26 18 2 38 -21 64 -58 65 -11 0 -38 14 -61 30 -22 17 -58 37 -78 46 l-37 15
6 -62 c6 -67 -8 -110 -48 -141 -51 -42 -128 0 -141 78 -28 163 -34 178 -72
211 -45 39 -73 50 -83 33 -4 -6 -24 -71 -45 -143 -21 -73 -43 -138 -48 -144
-16 -21 -52 -15 -79 14 -30 32 -48 89 -48 151 0 32 -5 44 -17 49 -10 3 -28 15
-40 26 l-23 20 0 -23 0 -24 -28 27 c-15 15 -32 27 -38 27 -5 0 -15 9 -22 20
-15 25 -42 26 -42 3 0 -10 -4 -24 -9 -32 -14 -22 -41 4 -41 40 0 17 -10 38
-26 54 -19 19 -24 34 -22 58 3 29 7 33 46 41 36 9 45 16 63 54 31 63 65 100
125 133 45 26 53 35 59 67 3 20 12 48 19 61 11 19 11 33 -1 75 -23 83 -21 80
-38 66 -12 -10 -21 -10 -41 -2 -20 10 -23 15 -15 31 6 10 8 34 5 53 -6 31 -9
34 -33 30 -14 -3 -44 -18 -65 -33 l-40 -29 -23 22 c-32 30 -29 63 8 90 17 13
37 39 45 58 32 73 41 86 82 108 l43 24 -7 61 c-3 34 -14 73 -24 87 -19 27 -32
28 -157 16 -57 -5 -63 -4 -63 13 0 10 -12 23 -26 30 l-27 12 22 23 c13 13 50
36 83 51 58 26 59 27 42 46 -25 28 -11 34 35 16 37 -15 40 -15 57 5 11 11 29
24 41 29 14 5 35 37 61 92 40 85 100 163 137 177 26 11 94 2 123 -17z"/>
<path d="M2991 1674 c-36 -30 -39 -44 -10 -44 21 0 38 15 60 53 15 27 -14 22
-50 -9z"/>
<path d="M4110 1370 c0 -11 32 -26 78 -36 l27 -6 -25 21 c-14 11 -29 19 -35
17 -5 -2 -18 1 -27 6 -12 6 -18 5 -18 -2z"/>
</g>
</svg>
