<?xml version="1.0" standalone="no"?>
<!DOCTYPE svg PUBLIC "-//W3C//DTD SVG 20010904//EN"
 "http://www.w3.org/TR/2001/REC-SVG-20010904/DTD/svg10.dtd">
<svg version="1.0" xmlns="http://www.w3.org/2000/svg"
 width="480.000000pt" height="360.000000pt" viewBox="0 0 480.000000 360.000000"
 preserveAspectRatio="xMidYMid meet">
<metadata>
Created by potrace 1.16, written by Peter Selinger 2001-2019
</metadata>
<rect width="1" height="360" fill="#000000"/>
<rect x="479" width="1" height="360" fill="#000000"/>
<rect width="480" height="1" fill="#000000"/>
<rect y="359" width="480" height="1" fill="#000000"/>
<g transform="translate(0.000000,360.000000) scale(0.100000,-0.100000)"
fill="#000000" stroke="none">
<path d="M0 1800 l0 -1800 866 0 c853 0 865 0 859 19 -8 25 14 39 119 81 75
30 156 51 259 65 54 7 52 -6 25 123 -11 52 -12 54 -42 49 -17 -2 -113 -27
-212 -55 -191 -53 -266 -66 -299 -49 -63 31 -105 111 -105 202 0 55 62 239
116 343 9 19 9 29 -2 52 -14 27 -13 32 41 114 48 75 53 89 45 111 -35 92 26
211 187 366 91 88 136 116 219 135 41 9 77 21 81 28 5 6 13 112 19 236 9 191
8 236 -5 295 -15 75 -21 306 -8 340 8 19 1 21 -102 38 -61 9 -133 25 -161 36
-40 15 -58 17 -91 10 -52 -12 -69 0 -47 33 29 44 179 197 213 218 l34 21 -82
80 c-94 92 -94 93 27 103 80 6 101 17 90 46 -3 8 -8 73 -11 144 -6 122 -5 128
13 124 15 -3 70 -68 224 -270 20 -27 21 -27 58 -10 73 32 614 26 734 -8 21 -6
50 -21 65 -34 26 -22 28 -22 65 -7 28 12 56 39 103 101 124 164 148 184 126
103 -6 -21 -14 -84 -18 -141 -6 -97 -5 -104 16 -126 13 -13 25 -42 28 -65 3
-22 11 -45 17 -50 6 -5 63 -26 126 -46 112 -36 140 -49 140 -65 0 -10 -148
-68 -212 -82 l-47 -11 37 -33 37 -33 -20 -20 c-21 -21 -105 -41 -245 -58 -58
-7 -65 -10 -61 -28 2 -11 3 -47 2 -80 -1 -33 -2 -235 -1 -448 l0 -388 39 -52
c36 -47 80 -142 147 -315 26 -67 32 -151 14 -198 -6 -15 -24 -43 -39 -63 -28
-35 -29 -39 -19 -90 8 -44 6 -61 -7 -91 -15 -34 -15 -41 4 -117 24 -94 26
-121 5 -78 -14 29 -15 28 -10 -31 6 -91 14 -100 97 -114 44 -8 73 -17 76 -27
10 -25 -26 -132 -62 -189 -33 -52 -42 -93 -29 -128 6 -14 75 -16 685 -16 l679
0 0 1800 0 1800 -2400 0 -2400 0 0 -1800z"/>
<path d="M2043 773 c-17 -43 -29 -79 -28 -81 2 -2 24 0 49 3 l46 7 0 74 c0 65
-2 74 -18 74 -14 0 -27 -20 -49 -77z"/>
<path d="M2288 248 c4 -73 7 -86 18 -76 7 8 -7 148 -15 148 -4 0 -5 -33 -3
-72z"/>
</g>
</svg>
