<?xml version="1.0" standalone="no"?>
<!DOCTYPE svg PUBLIC "-//W3C//DTD SVG 20010904//EN"
 "http://www.w3.org/TR/2001/REC-SVG-20010904/DTD/svg10.dtd">
<svg version="1.0" xmlns="http://www.w3.org/2000/svg"
 width="480.000000pt" height="360.000000pt" viewBox="0 0 480.000000 360.000000"
 preserveAspectRatio="xMidYMid meet">
<metadata>
Created by potrace 1.16, written by Peter Selinger 2001-2019
</metadata>
<rect width="1" height="360" fill="#000000"/>
<rect x="479" width="1" height="360" fill="#000000"/>
<rect width="480" height="1" fill="#000000"/>
<rect y="359" width="480" height="1" fill="#000000"/>
<g transform="translate(0.000000,360.000000) scale(0.100000,-0.100000)"
fill="#000000" stroke="none">
<path d="M0 1800 l0 -1800 1055 0 1055 0 4 23 c2 12 12 69 21 127 10 58 30
158 46 223 38 160 40 201 8 233 l-25 25 -91 -113 c-119 -148 -213 -238 -248
-238 -36 0 -75 41 -75 80 0 44 29 95 119 208 79 100 126 142 155 142 33 0 14
39 -46 91 -114 98 -170 153 -213 209 -68 89 -71 97 -45 132 12 17 28 53 35 82
7 28 15 58 19 67 5 12 -63 74 -276 250 -321 265 -368 307 -368 323 0 25 81
121 102 121 11 0 37 18 58 39 21 21 43 35 49 32 6 -4 29 6 50 23 21 17 47 31
57 31 9 0 37 12 61 26 24 14 49 23 56 21 7 -2 29 4 49 14 21 11 49 19 63 19
14 0 41 6 59 14 18 7 71 17 117 20 46 4 106 9 133 13 l49 5 -24 19 c-19 15
-20 19 -7 19 25 0 30 14 32 89 1 45 8 77 19 94 26 40 21 42 -24 5 -47 -39 -91
-68 -101 -68 -21 0 -48 43 -48 75 0 52 21 95 68 137 54 49 88 65 206 103 90
28 101 34 109 60 5 17 24 51 42 76 31 43 32 49 24 99 -4 29 -10 55 -13 57 -2
3 -39 -2 -81 -11 -46 -9 -94 -13 -118 -10 -100 16 -244 175 -297 328 -17 51
-74 136 -90 136 -4 0 -13 -13 -20 -29 -23 -56 -60 -51 -58 7 1 20 -5 67 -12
105 l-14 67 -813 0 -813 0 0 -1800z"/>
<path d="M4770 3596 c0 -2 7 -9 15 -16 12 -10 15 -10 15 4 0 9 -7 16 -15 16
-8 0 -15 -2 -15 -4z"/>
<path d="M1820 3535 c0 -2 5 -27 11 -55 10 -47 15 -54 53 -71 42 -19 141 -26
150 -10 8 12 -17 32 -113 90 -78 47 -101 58 -101 46z"/>
<path d="M2050 3323 c-43 -14 -103 -13 -158 3 l-23 7 16 -39 c45 -110 168
-248 233 -260 37 -7 151 3 171 15 19 12 -64 181 -119 244 -45 51 -52 53 -120
30z"/>
<path d="M2364 2970 c8 -43 10 -44 35 -28 28 17 27 20 -11 42 l-31 19 7 -33z"/>
<path d="M4775 2759 c-17 -61 -16 -62 4 -83 l21 -20 0 82 c0 45 -2 82 -4 82
-2 0 -11 -28 -21 -61z"/>
<path d="M2145 2666 c-139 -45 -225 -105 -225 -157 0 -54 22 -53 99 6 40 30
103 72 139 92 69 38 82 49 82 71 0 16 -13 15 -95 -12z"/>
<path d="M2155 2560 c-33 -22 -53 -40 -44 -40 9 0 30 -3 47 -6 22 -5 35 -1 51
15 20 20 30 72 14 70 -5 0 -35 -18 -68 -39z"/>
<path d="M3366 2196 l-26 -35 27 -113 28 -113 55 -12 c60 -12 312 -34 319 -27
15 15 -339 334 -370 334 -4 0 -18 -15 -33 -34z"/>
<path d="M3400 1884 c0 -34 52 -344 68 -409 12 -44 46 -199 76 -345 64 -301
90 -382 241 -735 57 -132 114 -275 127 -317 l23 -78 433 0 432 0 0 480 c0 264
-4 480 -8 480 -4 0 -22 24 -39 53 -34 56 -59 134 -68 209 -6 43 -9 47 -47 63
-34 13 -73 15 -227 13 l-186 -3 -75 36 c-142 68 -248 205 -271 351 -5 35 -12
78 -15 96 -4 28 -12 37 -47 52 -24 10 -81 21 -132 25 -116 8 -251 24 -270 31
-8 4 -15 2 -15 -2z"/>
<path d="M3900 1764 c0 -11 7 -47 15 -82 33 -140 116 -246 238 -303 l72 -34
172 1 c95 0 176 4 180 7 14 15 -185 193 -294 263 -73 47 -200 106 -283 132
-36 11 -73 23 -82 27 -13 5 -18 2 -18 -11z"/>
<path d="M2318 1398 c-20 -19 -118 -96 -150 -119 -10 -7 27 -99 40 -99 11 0
60 53 116 127 37 50 45 67 40 88 -8 31 -14 31 -46 3z"/>
<path d="M4730 1229 c0 -36 24 -119 46 -159 l19 -35 3 99 c1 54 1 100 -1 102
-2 2 -18 7 -35 10 -29 6 -32 4 -32 -17z"/>
<path d="M3745 220 c5 -14 18 -68 29 -120 18 -82 24 -95 43 -98 20 -3 19 3
-24 115 -42 109 -66 162 -48 103z"/>
<path d="M3847 74 c16 -59 28 -82 38 -72 6 5 -33 107 -46 122 -5 5 -1 -17 8
-50z"/>
</g>
</svg>
