<?xml version="1.0" standalone="no"?>
<!DOCTYPE svg PUBLIC "-//W3C//DTD SVG 20010904//EN"
 "http://www.w3.org/TR/2001/REC-SVG-20010904/DTD/svg10.dtd">
<svg version="1.0" xmlns="http://www.w3.org/2000/svg"
 width="480.000000pt" height="360.000000pt" viewBox="0 0 480.000000 360.000000"
 preserveAspectRatio="xMidYMid meet">
<metadata>
Created by potrace 1.16, written by Peter Selinger 2001-2019
</metadata>
<rect width="1" height="360" fill="#000000"/>
<rect x="479" width="1" height="360" fill="#000000"/>
<rect width="480" height="1" fill="#000000"/>
<rect y="359" width="480" height="1" fill="#000000"/>
<g transform="translate(0.000000,360.000000) scale(0.100000,-0.100000)"
fill="#000000" stroke="none">
<path d="M0 1800 l0 -1800 908 0 908 0 12 88 c7 48 29 186 48 307 20 121 37
261 39 310 3 87 23 173 59 257 l16 36 -31 -3 c-44 -6 -56 30 -30 93 11 26 22
66 25 90 7 47 19 69 82 152 41 53 44 61 78 235 19 99 38 206 42 238 l6 58 -46
45 c-26 25 -52 58 -58 74 -5 16 -18 32 -28 35 -9 3 -25 14 -35 25 -18 20 -18
21 3 49 l21 28 -29 28 c-23 22 -31 25 -35 14 -3 -8 -15 -15 -26 -16 -15 -1
-27 12 -47 53 -20 42 -28 51 -33 37 -6 -15 -9 -13 -19 12 -6 17 -17 57 -24 90
l-13 60 -21 -45 c-42 -92 -17 76 34 229 52 157 99 225 203 296 244 166 576
206 748 91 199 -134 237 -179 308 -371 54 -143 66 -224 72 -459 3 -127 1 -290
-6 -385 -10 -137 -9 -200 3 -361 8 -107 20 -278 26 -379 6 -102 15 -192 20
-202 8 -15 132 -182 243 -329 103 -136 211 -321 252 -433 l18 -47 553 0 554 0
0 1800 0 1800 -2400 0 -2400 0 0 -1800z"/>
</g>
</svg>
