<?xml version="1.0" standalone="no"?>
<!DOCTYPE svg PUBLIC "-//W3C//DTD SVG 20010904//EN"
 "http://www.w3.org/TR/2001/REC-SVG-20010904/DTD/svg10.dtd">
<svg version="1.0" xmlns="http://www.w3.org/2000/svg"
 width="480.000000pt" height="360.000000pt" viewBox="0 0 480.000000 360.000000"
 preserveAspectRatio="xMidYMid meet">
<metadata>
Created by potrace 1.16, written by Peter Selinger 2001-2019
</metadata>
<rect width="1" height="360" fill="#000000"/>
<rect x="479" width="1" height="360" fill="#000000"/>
<rect width="480" height="1" fill="#000000"/>
<rect y="359" width="480" height="1" fill="#000000"/>
<g transform="translate(0.000000,360.000000) scale(0.100000,-0.100000)"
fill="#000000" stroke="none">
<path d="M0 1800 l0 -1800 888 0 887 0 33 135 c18 74 59 217 91 317 33 101 61
189 62 196 3 8 -11 19 -32 26 -32 11 -39 11 -60 -5 -28 -21 -79 -25 -97 -7
-10 10 -15 10 -21 -1 -7 -11 -13 -8 -26 13 -14 21 -16 37 -10 81 6 50 11 59
51 92 24 21 44 44 44 52 0 8 21 58 47 111 93 192 124 264 153 366 26 87 30
119 29 201 -1 54 4 111 10 126 17 44 13 52 -14 27 -36 -34 -43 -17 -9 26 16
20 35 44 41 53 16 22 49 288 40 324 -6 20 -14 27 -31 27 -37 0 -62 39 -110
169 -51 140 -39 156 124 152 156 -3 167 -3 273 5 66 4 97 3 97 -4 0 -7 23 -3
58 9 33 12 96 23 152 26 117 7 125 1 117 -85 -3 -31 -10 -70 -17 -87 -6 -16
-11 -31 -10 -33 0 -1 -7 -17 -16 -35 -9 -17 -20 -39 -24 -47 -3 -8 -21 -22
-38 -30 -25 -12 -31 -20 -27 -35 19 -68 17 -143 -4 -131 -21 13 -33 -55 -28
-159 5 -109 5 -110 50 -136 11 -6 17 -22 17 -42 0 -65 19 -303 28 -344 5 -23
53 -114 107 -202 53 -88 95 -166 92 -173 -2 -7 11 -30 30 -52 61 -67 77 -130
48 -187 -16 -31 -39 -32 -28 -1 6 16 5 16 -14 -1 -29 -25 -58 -21 -95 13 l-33
29 28 1 c15 0 27 3 27 6 0 19 -49 84 -64 84 -3 0 -8 -21 -11 -47 -4 -27 -11
-63 -17 -81 -8 -28 -1 -58 55 -230 36 -108 77 -256 91 -329 14 -73 31 -144 36
-158 l10 -25 910 0 910 0 0 1800 0 1800 -2400 0 -2400 0 0 -1800z"/>
<path d="M1856 733 c-12 -12 -6 -33 9 -33 8 0 15 6 15 14 0 17 -14 28 -24 19z"/>
</g>
</svg>
