<?xml version="1.0" standalone="no"?>
<!DOCTYPE svg PUBLIC "-//W3C//DTD SVG 20010904//EN"
 "http://www.w3.org/TR/2001/REC-SVG-20010904/DTD/svg10.dtd">
<svg version="1.0" xmlns="http://www.w3.org/2000/svg"
 width="480.000000pt" height="360.000000pt" viewBox="0 0 480.000000 360.000000"
 preserveAspectRatio="xMidYMid meet">
<metadata>
Created by potrace 1.16, written by Peter Selinger 2001-2019
</metadata>
<rect width="1" height="360" fill="#000000"/>
<rect x="479" width="1" height="360" fill="#000000"/>
<rect width="480" height="1" fill="#000000"/>
<rect y="359" width="480" height="1" fill="#000000"/>
<g transform="translate(0.000000,360.000000) scale(0.100000,-0.100000)"
fill="#000000" stroke="none">
<path d="M2674 3455 c-91 -16 -188 -60 -221 -99 -24 -29 -28 -30 -92 -28 -71
4 -114 -8 -147 -39 -21 -19 -21 -19 -32 5 -16 35 -76 50 -207 50 -107 1 -231
-21 -262 -46 -29 -23 -26 -76 8 -161 18 -45 39 -91 46 -102 7 -11 13 -26 13
-35 0 -8 9 -26 20 -40 11 -14 20 -32 20 -41 0 -18 50 -69 68 -69 7 0 12 -16
12 -42 0 -27 11 -67 30 -106 29 -61 43 -162 22 -162 -13 0 -34 -130 -36 -220
-2 -66 -7 -93 -23 -120 -11 -19 -46 -76 -76 -126 -82 -135 -158 -303 -162
-359 0 -5 -3 -14 -7 -20 -8 -14 -17 -61 -23 -115 -2 -25 -8 -65 -13 -90 -5
-25 -7 -88 -5 -140 2 -52 4 -132 4 -177 0 -46 4 -85 9 -88 9 -5 -4 -56 -31
-121 -11 -28 -10 -34 14 -69 l26 -38 -27 -51 c-24 -45 -26 -61 -24 -140 1 -67
6 -94 19 -108 16 -17 15 -24 -10 -111 -51 -178 -51 -252 -1 -295 20 -17 24
-26 15 -35 -6 -6 -11 -16 -11 -22 0 -5 9 1 19 15 l19 24 7 -38 c5 -26 10 -34
16 -25 4 8 6 24 2 37 -4 17 2 32 25 55 34 37 161 244 220 363 122 242 184 547
187 919 1 110 3 207 4 214 3 33 21 -8 46 -104 25 -93 26 -109 19 -230 -10
-192 -11 -218 -4 -240 5 -12 -5 -45 -26 -90 -19 -38 -52 -142 -75 -229 -41
-160 -69 -234 -232 -598 l-75 -168 754 0 c469 0 754 4 754 9 0 6 -25 97 -55
203 l-56 193 23 73 c20 65 27 75 56 87 l32 14 0 104 c0 78 5 118 20 162 30 88
26 128 -24 236 -65 139 -139 326 -190 481 l-46 137 25 66 c29 76 25 82 -49 71
l-43 -7 -11 44 c-6 23 -18 84 -26 135 -8 50 -23 108 -32 127 -18 38 -77 91
-131 119 -36 18 -39 29 -18 66 8 14 10 29 5 35 -5 6 0 42 12 85 12 46 21 113
23 171 2 94 9 124 24 115 12 -8 95 14 103 27 18 28 4 61 -58 139 -37 46 -71
89 -77 96 -8 10 -5 11 14 4 38 -15 113 -23 126 -14 25 16 29 83 23 397 0 11
-16 37 -35 58 -31 34 -38 37 -87 36 -29 0 -85 -7 -124 -14z m-804 -1625 c0 -5
-5 -10 -11 -10 -5 0 -7 5 -4 10 3 6 8 10 11 10 2 0 4 -4 4 -10z m-59 -235 c-5
-27 -13 -79 -17 -115 -6 -61 -31 -134 -35 -100 -4 49 13 191 33 269 11 41 12
42 21 20 5 -15 5 -43 -2 -74z"/>
</g>
</svg>
