<?xml version="1.0" standalone="no"?>
<!DOCTYPE svg PUBLIC "-//W3C//DTD SVG 20010904//EN"
 "http://www.w3.org/TR/2001/REC-SVG-20010904/DTD/svg10.dtd">
<svg version="1.0" xmlns="http://www.w3.org/2000/svg"
 width="480.000000pt" height="360.000000pt" viewBox="0 0 480.000000 360.000000"
 preserveAspectRatio="xMidYMid meet">
<metadata>
Created by potrace 1.16, written by Peter Selinger 2001-2019
</metadata>
<rect width="1" height="360" fill="#000000"/>
<rect x="479" width="1" height="360" fill="#000000"/>
<rect width="480" height="1" fill="#000000"/>
<rect y="359" width="480" height="1" fill="#000000"/>
<g transform="translate(0.000000,360.000000) scale(0.100000,-0.100000)"
fill="#000000" stroke="none">
<path d="M2940 3590 c0 -20 43 -117 72 -163 17 -26 29 -49 27 -51 -2 -2 -35
-9 -73 -15 -282 -49 -586 -296 -657 -534 -32 -106 -71 -188 -108 -224 -40 -40
-17 -45 29 -7 17 15 33 24 36 21 3 -3 -1 -29 -10 -58 -8 -29 -13 -55 -11 -58
3 -2 5 1 5 7 0 7 4 12 9 12 4 0 5 -19 0 -42 -4 -24 -8 -58 -9 -77 l0 -33 19
23 19 23 13 -59 13 -60 7 40 c3 22 7 30 8 18 2 -34 34 -93 48 -88 7 2 15 -5
18 -16 7 -22 21 -25 28 -6 3 6 10 -3 17 -20 7 -18 16 -30 21 -27 5 3 12 -2 15
-10 9 -25 26 -19 20 7 -3 12 2 6 11 -13 l17 -35 7 35 6 35 2 -43 c1 -56 -18
-100 -63 -139 -31 -27 -35 -35 -27 -52 6 -11 30 -30 53 -43 38 -21 43 -28 46
-63 4 -43 25 -75 51 -75 9 0 27 -7 40 -16 18 -13 22 -23 17 -44 -4 -22 2 -36
25 -62 17 -18 46 -57 64 -86 32 -49 33 -55 25 -105 -9 -57 -6 -67 17 -67 11 0
14 -6 10 -21 -3 -12 0 -31 8 -43 7 -11 18 -55 24 -96 5 -41 16 -105 23 -142
13 -75 11 -80 -63 -139 l-37 -29 -31 48 c-17 27 -42 59 -57 73 -14 13 -38 51
-54 84 -15 33 -42 80 -61 105 l-33 45 -1 145 c0 128 -3 152 -24 204 -29 72
-87 132 -136 142 -20 3 -88 4 -151 2 l-114 -4 0 37 c0 36 -14 58 -28 44 -4 -4
-7 -29 -7 -57 l0 -50 -78 -28 c-44 -16 -92 -41 -110 -57 -18 -17 -40 -33 -50
-36 -21 -8 -30 -31 -58 -142 l-20 -85 24 -87 c14 -49 30 -109 37 -135 8 -32
32 -71 77 -125 66 -79 115 -117 165 -128 33 -8 33 -6 9 -47 -35 -58 -79 -210
-96 -326 -9 -63 -24 -132 -32 -155 -12 -31 -18 -90 -21 -229 l-4 -188 284 0
283 0 47 93 c66 130 186 290 164 220 -9 -28 -23 -174 -21 -210 1 -18 2 -49 3
-68 l2 -35 65 0 c61 0 65 2 66 23 l0 22 11 -22 11 -23 774 0 775 0 76 27 c43
15 99 40 126 57 48 29 49 30 25 40 -13 5 -26 11 -28 12 -2 2 14 23 34 48 21
26 33 47 29 47 -5 1 -33 0 -63 -1 -49 -2 -66 -10 -161 -71 -89 -57 -188 -107
-195 -97 -11 17 -29 76 -26 88 4 21 -20 130 -36 163 -8 15 -11 32 -8 37 6 9
-31 169 -59 260 -8 25 -18 62 -21 83 -4 20 -11 40 -16 43 -5 3 -9 16 -9 29 0
14 -6 42 -14 62 -8 21 -17 58 -20 81 -9 62 14 51 34 -16 14 -49 30 -77 30 -55
0 8 7 8 24 0 16 -8 35 -38 61 -98 20 -47 45 -99 56 -115 l19 -29 0 45 c0 25
-5 72 -10 105 -17 105 -38 280 -35 284 2 1 20 -29 40 -69 20 -40 38 -70 41
-68 2 3 -12 66 -32 142 -28 110 -36 159 -37 246 -2 60 1 106 5 104 4 -3 8 -14
8 -25 0 -26 44 -155 82 -239 34 -75 129 -240 139 -240 4 0 -7 42 -23 93 -32
99 -58 207 -58 246 0 17 20 -7 69 -85 38 -60 80 -119 93 -132 l24 -22 -22 107
c-24 115 -38 263 -54 598 -26 537 -81 834 -216 1175 -29 74 -58 156 -63 182
-18 78 -49 147 -103 225 -94 135 -181 187 -316 185 l-72 -1 -50 75 -51 74
-319 0 c-199 0 -320 -4 -320 -10z m-451 -1350 c0 -10 -3 -8 -9 5 -12 27 -12
43 0 25 5 -8 9 -22 9 -30z m595 -746 c8 -21 8 -21 -9 -28 -11 -4 -15 1 -15 19
0 28 15 33 24 9z"/>
</g>
</svg>
