<?xml version="1.0" standalone="no"?>
<!DOCTYPE svg PUBLIC "-//W3C//DTD SVG 20010904//EN"
 "http://www.w3.org/TR/2001/REC-SVG-20010904/DTD/svg10.dtd">
<svg version="1.0" xmlns="http://www.w3.org/2000/svg"
 width="480.000000pt" height="360.000000pt" viewBox="0 0 480.000000 360.000000"
 preserveAspectRatio="xMidYMid meet">
<metadata>
Created by potrace 1.16, written by Peter Selinger 2001-2019
</metadata>
<rect width="1" height="360" fill="#000000"/>
<rect x="479" width="1" height="360" fill="#000000"/>
<rect width="480" height="1" fill="#000000"/>
<rect y="359" width="480" height="1" fill="#000000"/>
<g transform="translate(0.000000,360.000000) scale(0.100000,-0.100000)"
fill="#000000" stroke="none">
<path d="M0 2630 l0 -970 23 0 c82 0 500 81 712 137 357 95 549 174 1004 413
158 83 179 83 272 -5 38 -36 124 -111 192 -166 175 -146 264 -228 396 -364
274 -282 349 -342 486 -384 110 -34 232 -46 322 -33 43 7 106 12 140 12 60 0
63 1 69 28 10 49 24 76 112 207 144 215 220 274 461 360 70 24 118 47 125 59
8 13 8 20 0 23 -6 2 -52 28 -103 58 -89 53 -119 66 -106 45 7 -11 -14 -54 -22
-46 -10 9 -30 -39 -44 -101 l-13 -58 -7 84 c-5 46 -12 88 -16 92 -5 5 -15 -24
-22 -66 -8 -41 -17 -75 -21 -75 -4 0 -10 46 -13 102 -4 56 -10 105 -14 109 -5
5 -24 -16 -42 -47 -35 -59 -50 -65 -32 -13 12 35 15 119 5 167 -5 22 -14 34
-35 41 -16 5 -44 26 -64 45 -37 37 -50 43 -60 26 -3 -5 -15 -15 -26 -20 -18
-10 -19 -8 -17 31 3 34 -1 43 -17 49 -20 8 -21 6 -12 -69 11 -95 2 -198 -23
-277 -10 -34 -26 -96 -35 -139 -17 -84 -75 -187 -109 -193 -11 -2 -28 -13 -40
-24 -21 -19 -21 -19 -25 4 -3 18 -7 14 -17 -22 -13 -44 -14 -44 -10 -7 5 35
-7 51 -17 25 -3 -7 -6 1 -6 17 -1 28 -21 74 -21 49 0 -7 -6 -14 -14 -17 -10
-4 -12 0 -9 14 4 13 1 19 -7 17 -6 -2 -16 4 -20 12 -20 36 -70 216 -76 268 -3
31 -8 68 -10 82 l-6 25 -14 -25 c-14 -24 -14 -23 -9 20 4 25 15 82 26 126 28
120 33 113 -61 96 -45 -8 -84 -12 -87 -8 -8 8 73 125 111 159 17 16 52 42 78
58 38 24 54 44 80 97 20 42 51 86 85 118 29 28 53 54 53 58 0 4 -21 16 -48 27
-85 37 -94 55 -70 143 9 36 9 59 -2 113 -26 130 -12 188 69 290 45 57 117 98
193 109 45 6 50 4 83 -29 22 -22 35 -45 35 -60 0 -14 4 -28 8 -31 5 -3 37 24
73 60 35 36 88 81 117 100 28 19 52 37 52 40 0 2 -891 4 -1980 4 l-1980 0 0
-970z"/>
<path d="M1735 1988 c-49 -33 -92 -62 -94 -64 -3 -2 5 -14 17 -27 19 -20 20
-28 12 -57 -9 -33 -8 -36 31 -70 33 -29 47 -54 80 -139 21 -58 39 -114 39
-125 0 -23 -22 -128 -111 -526 -32 -146 -59 -273 -59 -283 0 -10 -14 -23 -34
-31 -18 -8 -37 -19 -40 -25 -25 -40 -38 0 -146 444 l-102 416 38 112 c30 87
46 119 72 144 59 54 28 54 -96 -3 -66 -29 -177 -72 -248 -95 -174 -56 -174
-56 -168 -73 3 -8 1 -17 -5 -21 -20 -12 -11 -40 19 -60 34 -23 45 -44 93 -175
34 -94 34 -97 21 -155 -7 -33 -27 -121 -43 -195 -51 -231 -129 -577 -138 -609
-2 -8 -11 -11 -23 -8 -13 3 -25 -2 -34 -15 -14 -20 -14 -20 -30 4 -8 13 -63
215 -121 449 l-107 426 43 119 c40 113 49 127 92 159 17 12 18 17 6 49 -11 30
-16 34 -38 30 -45 -7 -434 -83 -487 -94 -44 -9 -51 -14 -47 -31 3 -10 0 -33
-7 -49 -12 -29 -11 -32 23 -63 39 -35 117 -207 117 -257 0 -25 -33 -178 -99
-455 -16 -66 -41 -174 -56 -240 -47 -207 -48 -209 -75 -215 -24 -6 -25 -10
-28 -93 l-3 -87 1620 0 1619 0 -9 33 c-10 36 -141 617 -160 713 -12 60 -12 63
27 165 28 75 48 113 72 135 33 30 34 32 19 61 -14 27 -26 32 -124 56 -59 15
-122 27 -140 27 l-31 0 34 -87 c64 -163 67 -119 -41 -568 -18 -77 -43 -183
-55 -235 -30 -136 -29 -133 -55 -128 -17 4 -27 -2 -39 -24 -34 -57 -41 -41
-106 249 -28 125 -69 304 -91 397 l-40 169 41 106 c30 77 50 114 75 136 26 24
34 40 38 79 l5 49 -88 111 c-85 107 -175 194 -187 182 -3 -3 -1 -11 4 -18 6
-7 23 -51 38 -97 l28 -83 -22 -102 c-50 -227 -93 -418 -121 -534 -17 -67 -30
-132 -30 -143 0 -24 -29 -37 -41 -18 -5 8 -9 9 -9 3 0 -6 -10 -24 -22 -39
l-21 -27 -13 25 c-8 14 -57 207 -109 428 l-95 404 36 110 c29 85 45 117 71
142 19 18 33 42 33 55 0 13 7 33 15 45 15 21 13 24 -42 66 -32 25 -94 82 -138
126 -48 49 -88 81 -100 81 -11 0 -60 -28 -110 -62z"/>
<path d="M3483 1083 c-46 -2 -83 -7 -83 -10 0 -4 14 -22 32 -40 22 -22 41 -62
65 -133 18 -56 33 -109 33 -118 0 -22 -20 -106 -95 -407 -35 -137 -66 -267
-69 -288 -5 -26 -14 -41 -29 -46 -12 -5 -24 -7 -27 -5 -4 1 -11 -6 -18 -17
-12 -18 -8 -19 97 -19 l109 0 17 93 c9 50 29 130 45 177 15 47 38 150 50 230
11 80 33 208 47 285 34 182 34 187 4 195 -13 3 -33 18 -44 32 -19 26 -20 29
-4 46 24 27 21 32 -15 30 -18 -1 -70 -4 -115 -5z"/>
</g>
</svg>
