<?xml version="1.0" standalone="no"?>
<!DOCTYPE svg PUBLIC "-//W3C//DTD SVG 20010904//EN"
 "http://www.w3.org/TR/2001/REC-SVG-20010904/DTD/svg10.dtd">
<svg version="1.0" xmlns="http://www.w3.org/2000/svg"
 width="480.000000pt" height="360.000000pt" viewBox="0 0 480.000000 360.000000"
 preserveAspectRatio="xMidYMid meet">
<metadata>
Created by potrace 1.16, written by Peter Selinger 2001-2019
</metadata>
<rect width="1" height="360" fill="#000000"/>
<rect x="479" width="1" height="360" fill="#000000"/>
<rect width="480" height="1" fill="#000000"/>
<rect y="359" width="480" height="1" fill="#000000"/>
<g transform="translate(0.000000,360.000000) scale(0.100000,-0.100000)"
fill="#000000" stroke="none">
<path d="M0 1800 l0 -1800 1015 0 1016 0 -8 63 c-20 157 21 765 67 987 11 54
19 136 20 189 0 52 5 120 11 150 10 46 9 71 -5 137 -9 45 -16 110 -16 145 0
92 -16 189 -39 240 -33 71 -25 168 29 349 24 79 89 181 138 217 47 34 65 52
32 31 -23 -15 -28 -14 -75 10 -27 15 -54 32 -60 38 -5 7 -19 14 -30 16 -13 3
-19 10 -17 23 10 60 10 60 -38 61 -69 0 -95 11 -109 47 -11 29 -13 30 -21 12
l-9 -20 -1 20 c-4 57 2 188 10 217 6 17 28 51 51 74 l41 41 -21 41 c-27 53
-26 58 7 70 54 21 55 24 33 83 -12 30 -21 55 -21 57 0 9 23 -2 48 -23 17 -14
32 -25 35 -25 2 0 -1 25 -8 55 -8 33 -10 57 -4 61 22 13 164 -91 208 -152 18
-26 38 -38 79 -50 79 -23 113 -47 162 -111 58 -79 99 -170 155 -348 26 -82 64
-177 83 -210 20 -33 59 -98 87 -145 123 -203 149 -285 159 -510 3 -52 10 -126
16 -165 6 -38 10 -99 9 -134 -2 -63 -3 -64 -20 -43 -24 31 -27 28 -22 -22 9
-73 -14 -66 -50 16 -17 40 -44 98 -59 128 l-27 55 6 -40 c3 -22 13 -70 23
-107 9 -38 12 -68 8 -68 -5 0 -27 38 -48 84 -22 46 -44 87 -50 91 -14 9 -13 4
15 -70 14 -37 20 -65 13 -65 -5 0 -7 -8 -4 -17 3 -10 -21 11 -54 46 -60 65
-87 77 -54 24 10 -16 12 -23 4 -15 -21 19 -26 15 -39 -28 -10 -35 -9 -44 13
-87 51 -102 50 -86 76 -923 6 -206 13 -403 16 -437 l6 -63 1009 0 1009 0 0
1800 0 1800 -2400 0 -2400 0 0 -1800z"/>
<path d="M2124 1697 c5 -117 10 -134 31 -117 21 17 12 127 -14 181 l-21 44 4
-108z"/>
<path d="M2703 1695 c1 -30 44 -111 53 -102 3 2 -9 33 -25 68 -24 52 -30 59
-28 34z"/>
</g>
</svg>
