<?xml version="1.0" standalone="no"?>
<!DOCTYPE svg PUBLIC "-//W3C//DTD SVG 20010904//EN"
 "http://www.w3.org/TR/2001/REC-SVG-20010904/DTD/svg10.dtd">
<svg version="1.0" xmlns="http://www.w3.org/2000/svg"
 width="480.000000pt" height="360.000000pt" viewBox="0 0 480.000000 360.000000"
 preserveAspectRatio="xMidYMid meet">
<metadata>
Created by potrace 1.16, written by Peter Selinger 2001-2019
</metadata>
<rect width="1" height="360" fill="#000000"/>
<rect x="479" width="1" height="360" fill="#000000"/>
<rect width="480" height="1" fill="#000000"/>
<rect y="359" width="480" height="1" fill="#000000"/>
<g transform="translate(0.000000,360.000000) scale(0.100000,-0.100000)"
fill="#000000" stroke="none">
<path d="M1725 3583 c3 -10 9 -30 12 -46 10 -47 23 -40 23 12 0 45 -2 51 -21
51 -16 0 -20 -4 -14 -17z"/>
<path d="M1880 3505 c0 -114 14 -124 48 -35 13 33 27 60 32 60 4 0 6 -8 3 -18
-4 -16 17 -113 33 -156 8 -20 -8 -26 -176 -72 -262 -71 -412 -146 -539 -270
-36 -35 -68 -64 -71 -64 -6 0 -50 73 -123 201 -14 25 -33 52 -42 59 -22 19
-97 16 -235 -8 -63 -11 -166 -26 -228 -33 -144 -15 -425 -7 -505 15 -32 9 -62
16 -67 16 -6 0 -10 -49 -10 -116 l0 -115 48 7 c63 10 467 10 514 1 21 -4 42
-16 48 -26 8 -16 -1 -25 -62 -62 l-72 -44 -64 -160 -64 -160 67 -305 c105
-481 115 -518 133 -522 10 -2 71 -1 137 3 66 4 293 15 505 23 212 9 477 21
590 27 113 6 721 13 1352 16 1054 5 1148 6 1152 22 10 34 89 399 147 676 l18
90 -30 79 c-30 78 -32 99 -6 78 10 -9 17 -8 25 0 9 9 12 6 12 -16 0 -15 4 -25
9 -22 5 3 16 -11 24 -32 l16 -37 1 45 c0 29 3 40 9 32 10 -16 16 13 27 123 10
99 24 126 19 35 -6 -85 5 -62 25 58 6 39 16 72 21 72 8 0 14 -96 9 -163 -2
-26 0 -28 19 -17 12 6 21 15 21 21 0 5 7 26 15 46 12 29 18 33 29 24 12 -10
15 -3 21 46 3 32 7 65 8 73 1 10 16 16 40 18 l37 3 0 290 0 289 -316 0 -316 0
7 -47 c4 -27 15 -82 25 -123 10 -41 21 -108 25 -147 l7 -73 -43 0 c-24 0 -106
9 -182 20 -75 11 -165 20 -198 21 -74 2 -75 1 -178 -181 -39 -69 -79 -135 -88
-147 l-18 -23 -95 93 c-53 51 -122 113 -154 136 -70 52 -194 111 -296 141 -87
25 -95 31 -81 56 6 11 37 76 70 147 l60 127 -94 0 c-52 0 -96 -4 -99 -8 -3 -5
-8 -68 -12 -140 -7 -141 -9 -143 -59 -120 -16 7 -24 17 -20 26 3 7 5 18 5 23
0 5 5 8 11 6 9 -1 55 161 58 206 1 4 -167 7 -373 7 l-375 0 -4 -37 -4 -38 -1
38 -2 37 -90 0 -90 0 0 -95z m850 25 c0 -5 -10 -10 -22 -10 -19 0 -20 2 -8 10
19 13 30 13 30 0z m1995 -160 c-3 -5 -12 -10 -18 -10 -7 0 -6 4 3 10 19 12 23
12 15 0z m-1847 -54 c-2 -10 -8 -13 -16 -7 -7 4 -10 15 -6 25 8 21 28 6 22
-18z m1367 -348 c1 -21 1 -38 0 -38 -4 0 -47 23 -63 33 -21 14 5 49 35 45 22
-3 26 -8 28 -40z m-309 -5 c3 -10 12 -31 20 -47 14 -27 13 -31 -5 -50 -11 -12
-31 -51 -46 -88 -15 -38 -33 -68 -40 -68 -7 0 -23 8 -36 19 -13 10 -39 26 -57
35 l-33 17 48 61 c60 76 120 138 133 138 6 0 13 -8 16 -17z m-3042 -34 c30
-24 146 -163 146 -176 0 -13 -101 -94 -113 -90 -5 1 -16 21 -24 42 -8 22 -20
54 -26 70 -6 17 -25 42 -41 57 -27 25 -28 28 -12 43 9 10 20 30 23 46 7 34 12
35 47 8z m3446 -4 c0 -8 4 -15 8 -15 7 0 20 -53 38 -150 5 -32 5 -33 -8 -15
-8 11 -25 45 -37 75 -13 30 -29 62 -37 71 -18 20 -18 29 1 29 8 0 15 5 15 10
0 6 5 10 10 10 6 0 10 -7 10 -15z"/>
<path d="M3062 3504 c9 -107 25 -181 38 -168 4 5 18 37 30 71 12 35 26 61 30
58 4 -2 10 -36 14 -75 13 -133 29 -93 42 108 l7 102 -85 0 -84 0 8 -96z"/>
<path d="M3250 3558 c0 -84 13 -210 20 -196 4 7 11 36 15 64 4 35 11 51 21 50
8 0 26 26 43 62 l30 62 -64 0 -65 0 0 -42z"/>
<path d="M3420 3583 c0 -10 4 -24 9 -32 7 -11 13 -7 25 18 16 31 16 31 -9 31
-17 0 -25 -5 -25 -17z"/>
<path d="M4751 2763 c-49 -157 -49 -151 8 -328 l39 -120 1 293 c1 160 0 292
-2 292 -2 0 -23 -62 -46 -137z"/>
<path d="M0 2534 c0 -197 2 -355 4 -353 3 2 30 91 61 197 l56 194 -52 154
c-28 85 -55 156 -60 160 -5 3 -9 -141 -9 -352z"/>
<path d="M2145 1409 c-439 -9 -987 -27 -1190 -39 -88 -6 -210 -10 -271 -10
l-111 0 -47 -127 c-85 -235 -146 -467 -175 -665 l-17 -121 -110 -47 c-60 -25
-135 -61 -167 -79 l-57 -32 0 -145 0 -144 397 2 396 3 53 94 c48 86 192 431
259 624 15 42 31 77 34 77 4 0 7 -48 7 -107 0 -60 3 -240 8 -400 l9 -293 1230
0 1229 0 -3 132 c-4 152 9 419 22 439 9 14 7 18 52 -106 44 -122 107 -267 160
-368 l50 -97 449 0 449 0 -3 127 -3 126 -85 43 c-47 23 -137 64 -200 90 -63
26 -120 51 -126 56 -7 5 -15 48 -19 96 -13 165 -75 433 -155 673 -40 117 -41
125 -26 150 38 64 102 59 -841 57 -472 -1 -1011 -5 -1198 -9z"/>
</g>
</svg>
