<?xml version="1.0" standalone="no"?>
<!DOCTYPE svg PUBLIC "-//W3C//DTD SVG 20010904//EN"
 "http://www.w3.org/TR/2001/REC-SVG-20010904/DTD/svg10.dtd">
<svg version="1.0" xmlns="http://www.w3.org/2000/svg"
 width="480.000000pt" height="360.000000pt" viewBox="0 0 480.000000 360.000000"
 preserveAspectRatio="xMidYMid meet">
<metadata>
Created by potrace 1.16, written by Peter Selinger 2001-2019
</metadata>
<rect width="1" height="360" fill="#000000"/>
<rect x="479" width="1" height="360" fill="#000000"/>
<rect width="480" height="1" fill="#000000"/>
<rect y="359" width="480" height="1" fill="#000000"/>
<g transform="translate(0.000000,360.000000) scale(0.100000,-0.100000)"
fill="#000000" stroke="none">
<path d="M1605 3423 c0 -197 -19 -333 -61 -435 -13 -32 -24 -62 -24 -68 0 -22
-92 -198 -134 -259 -117 -166 -295 -330 -434 -400 -33 -17 -63 -35 -67 -41 -3
-5 -38 -19 -78 -31 -40 -12 -76 -25 -82 -29 -23 -18 -192 -52 -302 -61 -138
-11 -314 0 -406 27 -16 5 -17 -50 -17 -1060 l0 -1066 1474 0 1473 0 7 57 c4
32 14 114 21 183 8 69 28 177 45 240 55 209 78 313 100 455 33 224 40 265 63
365 23 105 23 103 9 249 -8 85 -13 106 -28 114 -43 24 -74 69 -74 106 0 43 28
107 69 158 16 21 36 62 45 92 9 30 30 75 47 102 26 41 29 51 19 70 -10 17 -9
23 1 30 8 5 17 9 22 9 4 0 7 5 7 10 0 7 -6 7 -19 0 -28 -14 -59 -13 -68 4 -13
24 -71 84 -85 88 -10 4 -9 10 5 26 24 26 17 38 -28 46 -42 8 -75 37 -75 66 0
12 -5 17 -14 14 -11 -4 -12 4 -4 48 5 29 15 66 22 83 12 29 11 33 -34 90 -106
134 -76 154 185 120 196 -25 245 -35 293 -59 94 -48 143 -115 195 -267 15 -41
47 -106 71 -143 48 -70 69 -127 87 -235 8 -43 32 -104 72 -183 52 -103 61
-129 68 -201 24 -213 32 -262 55 -312 24 -56 46 -188 37 -228 -13 -59 -26 -89
-33 -77 -4 7 -15 -26 -24 -76 -17 -92 -30 -120 -45 -95 -7 11 -13 6 -25 -18
-9 -17 -24 -31 -32 -31 -13 0 -14 8 -9 41 9 54 8 97 -4 134 l-9 30 -1 -33 c-1
-18 -8 -44 -17 -58 l-17 -25 -15 23 c-9 13 -22 27 -29 31 -9 6 -11 20 -7 48 4
22 2 64 -4 92 -6 29 -18 93 -27 142 -9 50 -35 135 -57 190 -22 55 -55 153 -74
219 -18 65 -37 122 -40 125 -7 6 0 -50 12 -101 5 -20 0 -33 -18 -51 -13 -13
-24 -36 -26 -52 -1 -16 -7 -34 -12 -39 -15 -15 -12 -92 5 -133 8 -19 15 -46
15 -60 0 -13 25 -60 56 -105 77 -113 98 -159 165 -354 68 -202 115 -306 231
-510 103 -180 155 -284 193 -381 l28 -73 279 0 278 0 0 1800 0 1800 -1598 0
-1598 0 1 -177z"/>
<path d="M3485 2190 c3 -5 11 -10 16 -10 6 0 7 5 4 10 -3 6 -11 10 -16 10 -6
0 -7 -4 -4 -10z"/>
</g>
</svg>
