<?xml version="1.0" standalone="no"?>
<!DOCTYPE svg PUBLIC "-//W3C//DTD SVG 20010904//EN"
 "http://www.w3.org/TR/2001/REC-SVG-20010904/DTD/svg10.dtd">
<svg version="1.0" xmlns="http://www.w3.org/2000/svg"
 width="480.000000pt" height="360.000000pt" viewBox="0 0 480.000000 360.000000"
 preserveAspectRatio="xMidYMid meet">
<metadata>
Created by potrace 1.16, written by Peter Selinger 2001-2019
</metadata>
<rect width="1" height="360" fill="#000000"/>
<rect x="479" width="1" height="360" fill="#000000"/>
<rect width="480" height="1" fill="#000000"/>
<rect y="359" width="480" height="1" fill="#000000"/>
<g transform="translate(0.000000,360.000000) scale(0.100000,-0.100000)"
fill="#000000" stroke="none">
<path d="M0 1800 l0 -1800 199 0 198 0 7 46 c18 132 -1 211 -100 422 -177 376
-228 588 -241 1007 -11 389 33 691 161 1077 l45 137 -35 35 c-37 37 -41 53
-21 80 34 47 132 26 412 -86 186 -75 222 -93 260 -128 32 -31 45 -36 455 -175
307 -104 620 -205 638 -205 7 0 12 11 12 24 0 13 3 38 6 55 l7 31 -58 -6 c-43
-5 -56 -4 -51 4 6 10 -1 14 -24 14 -3 0 -27 -2 -55 -6 -46 -6 -48 -5 -26 7 18
11 20 16 10 20 -10 4 -7 8 10 13 21 6 22 9 8 19 -14 10 -10 16 25 51 44 42 83
98 171 240 57 92 112 154 203 230 71 59 90 67 138 59 22 -4 95 -6 161 -5 137
2 225 -19 287 -67 48 -38 113 -131 156 -222 19 -42 37 -80 39 -84 3 -5 -5 -7
-18 -5 -20 2 -24 -1 -21 -22 3 -31 -32 -90 -59 -97 -10 -3 -19 -8 -19 -12 0
-3 -9 -12 -21 -19 -12 -8 -18 -9 -15 -4 3 6 -2 8 -14 5 -26 -7 -25 -15 7 -54
l27 -32 -22 -17 c-12 -10 -26 -29 -32 -41 -33 -77 -117 -157 -135 -129 -8 12
-45 8 -45 -5 0 -20 107 -83 170 -101 49 -14 75 -29 119 -70 57 -53 58 -53 217
-93 341 -86 516 -123 527 -112 16 16 38 13 59 -6 17 -15 19 -14 42 10 30 32
30 32 55 5 16 -16 23 -18 34 -10 10 9 18 8 33 -3 10 -8 27 -15 37 -15 10 0 22
-12 28 -27 l10 -26 15 21 c18 26 39 19 57 -19 11 -21 29 -27 142 -51 173 -37
572 -108 601 -108 l24 0 0 1025 0 1025 -2400 0 -2400 0 0 -1800z"/>
<path d="M750 2429 c-40 -94 -109 -286 -144 -400 -58 -193 -91 -460 -90 -744
0 -279 16 -351 171 -806 l78 -227 -22 -63 c-11 -35 -32 -92 -46 -127 l-26 -62
528 0 527 0 40 42 c22 24 70 77 105 119 35 42 75 89 89 105 154 181 249 300
283 354 23 36 70 106 104 157 60 88 62 94 56 138 -6 44 -10 49 -132 149 -69
57 -138 116 -153 132 -74 80 -63 162 46 329 53 81 56 89 47 122 -11 38 -3 68
28 112 16 22 18 34 10 71 -5 25 -11 67 -15 95 l-6 49 -18 -24 c-14 -19 -21
-22 -32 -12 -11 9 -18 5 -33 -21 -15 -25 -20 -28 -23 -14 -4 19 -17 23 -27 7
-10 -16 -25 -12 -19 5 4 8 1 15 -6 15 -7 0 -9 8 -5 20 7 23 -10 28 -19 5 -11
-29 -26 -15 -21 20 2 19 0 35 -5 35 -6 0 -10 -4 -10 -8 0 -5 -6 -16 -13 -27
-13 -17 -14 -16 -12 11 2 16 10 44 19 61 28 54 8 59 -41 11 -39 -37 -44 -40
-38 -18 4 14 14 33 22 42 16 18 10 38 -11 38 -18 0 -567 183 -826 275 -164 58
-230 77 -277 79 l-62 2 -21 -47z"/>
<path d="M2406 2164 c-8 -22 1 -31 16 -16 9 9 9 15 1 23 -7 7 -12 5 -17 -7z"/>
<path d="M2977 1813 c-13 -13 -6 -58 13 -83 11 -14 20 -29 20 -33 0 -4 18 -34
40 -65 42 -60 62 -131 53 -187 -3 -19 1 -44 11 -62 l15 -31 103 32 c57 18 171
50 255 70 84 21 159 43 168 50 14 10 15 22 8 81 l-8 69 -335 83 c-184 45 -335
82 -336 83 0 0 -4 -3 -7 -7z"/>
<path d="M3985 1514 c-49 -76 -131 -154 -202 -191 -57 -30 -379 -150 -517
-192 -90 -28 -148 -27 -213 4 l-53 24 0 -34 c0 -19 -4 -37 -10 -40 -5 -3 -10
-40 -10 -81 l0 -76 45 -45 c46 -45 58 -86 34 -110 -15 -15 57 -154 116 -222
84 -98 175 -247 175 -287 0 -14 -9 -16 -55 -12 -34 3 -55 1 -55 -5 0 -6 9 -45
20 -86 11 -42 24 -95 30 -118 l11 -43 749 0 750 0 0 683 0 682 -152 43 c-84
23 -252 67 -373 97 -121 31 -228 58 -237 61 -12 4 -27 -11 -53 -52z"/>
<path d="M2308 1366 l-37 -43 49 -48 c51 -50 58 -52 62 -19 3 23 -22 143 -31
148 -3 2 -23 -15 -43 -38z"/>
</g>
</svg>
