<?xml version="1.0" standalone="no"?>
<!DOCTYPE svg PUBLIC "-//W3C//DTD SVG 20010904//EN"
 "http://www.w3.org/TR/2001/REC-SVG-20010904/DTD/svg10.dtd">
<svg version="1.0" xmlns="http://www.w3.org/2000/svg"
 width="480.000000pt" height="360.000000pt" viewBox="0 0 480.000000 360.000000"
 preserveAspectRatio="xMidYMid meet">
<metadata>
Created by potrace 1.16, written by Peter Selinger 2001-2019
</metadata>
<rect width="1" height="360" fill="#000000"/>
<rect x="479" width="1" height="360" fill="#000000"/>
<rect width="480" height="1" fill="#000000"/>
<rect y="359" width="480" height="1" fill="#000000"/>
<g transform="translate(0.000000,360.000000) scale(0.100000,-0.100000)"
fill="#000000" stroke="none">
<path d="M0 1800 l0 -1800 846 0 c825 0 845 0 839 19 -4 15 4 24 40 44 68 38
150 67 245 86 l84 17 -3 144 c-1 80 -5 147 -7 149 -2 3 -73 -15 -157 -38 -238
-68 -338 -91 -393 -91 -44 0 -54 4 -80 32 -45 48 -59 92 -59 185 0 69 3 86 22
112 13 16 48 72 79 123 45 75 54 99 50 122 -7 34 8 61 68 124 39 40 41 46 42
105 2 108 53 180 216 302 114 85 152 108 218 125 25 6 52 13 60 15 13 4 14 28
12 154 -2 82 3 236 12 343 8 106 12 232 9 281 -5 75 -3 90 12 107 10 11 16 22
13 25 -2 3 -47 13 -100 24 -52 10 -120 31 -150 45 -48 23 -62 25 -122 19 -66
-6 -68 -5 -58 14 13 24 156 154 235 212 l57 43 -49 32 c-65 41 -174 147 -163
158 5 5 67 11 138 14 71 3 132 8 135 10 3 2 9 54 13 116 8 115 16 148 41 148
8 0 48 -57 89 -127 41 -71 79 -134 83 -141 6 -9 17 -10 48 -1 46 13 439 5 565
-11 153 -20 182 -29 222 -71 l37 -39 33 22 c18 12 63 67 101 123 37 55 76 111
88 125 l21 25 -7 -30 c-14 -62 -25 -152 -25 -211 0 -55 2 -62 24 -72 33 -15
55 -50 64 -103 l7 -43 98 -39 c54 -22 96 -45 94 -51 -5 -15 -43 -33 -149 -71
l-87 -31 45 -24 c56 -29 70 -52 46 -73 -26 -24 -71 -38 -111 -35 -21 1 -43 -2
-51 -7 -8 -5 -44 -11 -80 -14 l-65 -6 3 -47 c4 -61 -13 -152 -45 -253 -25 -74
-27 -97 -32 -320 l-6 -240 61 -61 c67 -67 101 -128 154 -284 43 -125 51 -229
22 -286 -11 -21 -32 -50 -46 -63 -23 -22 -25 -29 -20 -76 5 -39 2 -60 -12 -86
-22 -43 -32 -224 -15 -286 13 -46 7 -43 126 -59 79 -10 84 -15 73 -76 -11 -61
-34 -108 -94 -197 -24 -35 -44 -67 -44 -72 0 -5 310 -9 720 -9 l720 0 0 1800
0 1800 -2400 0 -2400 0 0 -1800z"/>
<path d="M2038 857 c-32 -6 -48 -14 -51 -28 -4 -15 0 -19 21 -19 46 0 70 11
76 33 3 12 4 22 3 22 -1 1 -23 -3 -49 -8z"/>
<path d="M2226 308 c-3 -29 -6 -72 -6 -95 0 -39 2 -43 25 -43 23 0 25 3 20 38
-2 20 -7 63 -10 95 -4 31 -10 57 -14 57 -5 0 -11 -24 -15 -52z"/>
</g>
</svg>
