<?xml version="1.0" standalone="no"?>
<!DOCTYPE svg PUBLIC "-//W3C//DTD SVG 20010904//EN"
 "http://www.w3.org/TR/2001/REC-SVG-20010904/DTD/svg10.dtd">
<svg version="1.0" xmlns="http://www.w3.org/2000/svg"
 width="480.000000pt" height="360.000000pt" viewBox="0 0 480.000000 360.000000"
 preserveAspectRatio="xMidYMid meet">
<metadata>
Created by potrace 1.16, written by Peter Selinger 2001-2019
</metadata>
<rect width="1" height="360" fill="#000000"/>
<rect x="479" width="1" height="360" fill="#000000"/>
<rect width="480" height="1" fill="#000000"/>
<rect y="359" width="480" height="1" fill="#000000"/>
<g transform="translate(0.000000,360.000000) scale(0.100000,-0.100000)"
fill="#000000" stroke="none">
<path d="M3159 2952 c-13 -10 -44 -24 -69 -31 -101 -29 -173 -86 -286 -224
-37 -45 -83 -99 -103 -119 -41 -45 -36 -48 20 -12 23 14 42 24 44 22 2 -2 -9
-32 -25 -68 -20 -45 -25 -67 -17 -72 6 -3 13 -36 15 -72 4 -61 14 -83 25 -53
2 6 7 -3 11 -20 8 -35 26 -55 26 -29 0 26 17 27 35 0 16 -24 16 -27 -2 -46
-10 -12 -33 -27 -50 -35 -39 -16 -41 -32 -9 -79 19 -28 22 -42 16 -65 -8 -26
0 -67 20 -109 4 -9 11 -36 15 -60 9 -57 20 -70 59 -70 17 0 41 -3 54 -6 20 -6
22 -11 16 -38 -10 -46 -12 -47 -51 -31 -51 21 -52 11 -4 -22 22 -15 39 -33 37
-38 -2 -6 -11 -45 -21 -88 -16 -72 -20 -80 -55 -102 -45 -28 -80 -71 -80 -96
0 -15 -84 -161 -111 -192 -3 -5 -25 1 -47 12 -61 31 -89 33 -113 8 -28 -29
-59 -92 -75 -147 -7 -25 -13 -36 -13 -26 -2 31 59 371 76 429 8 29 14 66 14
82 -13 277 25 819 71 1003 25 102 19 136 -32 163 -48 26 -102 24 -135 -4 -23
-19 -26 -30 -24 -67 13 -233 -35 -905 -75 -1055 -8 -27 -17 -114 -20 -193 -6
-139 -18 -203 -31 -157 -4 11 -16 45 -28 75 l-22 55 -60 3 -60 3 -52 83 c-29
45 -55 91 -59 102 -40 112 -78 163 -168 223 -79 53 -146 81 -192 81 -38 0
-103 -63 -102 -100 0 -14 -3 -81 -5 -150 -8 -187 -10 -185 187 -259 99 -37
156 -71 156 -92 0 -4 -24 -21 -54 -38 -49 -28 -58 -40 -95 -115 -61 -122 -77
-212 -63 -352 22 -222 90 -471 179 -651 l56 -113 218 0 c121 0 219 3 219 8 0
4 27 57 61 117 33 61 86 156 117 212 31 57 59 103 62 103 12 -1 91 -129 100
-160 7 -30 30 -228 30 -267 0 -11 130 -13 726 -13 l726 0 -6 73 c-3 39 -8 122
-11 182 -4 61 -19 204 -35 320 -16 116 -39 290 -51 387 l-21 177 26 143 c76
422 93 671 60 895 -16 115 -66 284 -89 303 -8 6 -24 41 -35 76 -32 96 -67 152
-133 217 -117 113 -318 177 -559 177 -32 0 -58 5 -58 10 0 16 -46 11 -71 -8z"/>
<path d="M1263 2665 c-3 -9 -3 -37 -1 -63 l5 -47 -61 0 c-34 0 -70 -4 -80 -8
-18 -7 -16 -10 18 -33 21 -15 53 -30 72 -36 33 -9 34 -10 31 -55 -2 -55 10
-63 50 -29 30 25 30 25 48 6 10 -11 24 -20 32 -20 16 0 17 43 2 72 -10 19 -9
20 20 16 37 -5 41 8 6 24 -25 11 -34 28 -16 28 5 0 17 14 25 32 21 41 8 57
-33 41 -29 -11 -51 -2 -51 20 0 14 -40 67 -51 67 -5 0 -12 -7 -16 -15z"/>
</g>
</svg>
