<?xml version="1.0" standalone="no"?>
<!DOCTYPE svg PUBLIC "-//W3C//DTD SVG 20010904//EN"
 "http://www.w3.org/TR/2001/REC-SVG-20010904/DTD/svg10.dtd">
<svg version="1.0" xmlns="http://www.w3.org/2000/svg"
 width="480.000000pt" height="360.000000pt" viewBox="0 0 480.000000 360.000000"
 preserveAspectRatio="xMidYMid meet">
<metadata>
Created by potrace 1.16, written by Peter Selinger 2001-2019
</metadata>
<rect width="1" height="360" fill="#000000"/>
<rect x="479" width="1" height="360" fill="#000000"/>
<rect width="480" height="1" fill="#000000"/>
<rect y="359" width="480" height="1" fill="#000000"/>
<g transform="translate(0.000000,360.000000) scale(0.100000,-0.100000)"
fill="#000000" stroke="none">
<path d="M0 3375 c0 -124 2 -225 4 -225 2 0 35 18 72 40 177 104 316 134 594
129 l195 -4 12 115 c6 63 12 121 12 128 3 38 49 -21 169 -214 45 -72 112 -167
150 -212 71 -84 116 -165 150 -268 23 -70 65 -156 84 -171 7 -6 51 -23 98 -38
66 -21 96 -25 134 -20 37 5 52 2 67 -11 12 -10 27 -14 42 -10 35 8 37 0 17
-58 -30 -89 -48 -116 -75 -116 -13 0 -27 4 -30 10 -7 11 -64 2 -83 -13 -8 -6
-11 -20 -8 -31 2 -12 11 -47 20 -78 8 -32 11 -58 7 -58 -5 0 -18 -39 -31 -87
-24 -96 -36 -116 -50 -93 -7 11 -11 9 -19 -13 -6 -16 -11 -35 -11 -44 0 -13
-3 -13 -16 -2 -14 11 -20 8 -45 -20 -16 -19 -29 -41 -30 -50 0 -13 -1 -14 -6
-1 -3 8 -10 18 -16 21 -5 4 -4 15 3 29 15 28 20 69 9 75 -4 3 -11 -9 -14 -27
-4 -18 -13 -45 -21 -59 -10 -21 -11 -58 -5 -177 7 -130 12 -158 35 -207 37
-82 32 -88 -23 -25 l-49 54 -25 -51 -26 -51 24 -61 c14 -33 25 -67 25 -76 0
-21 -39 -19 -79 6 -32 19 -34 19 -53 2 -16 -14 -36 -18 -89 -17 -68 1 -70 0
-114 -42 l-46 -42 48 -10 c26 -6 77 -15 113 -22 104 -17 188 -37 315 -73 102
-30 122 -39 147 -68 34 -42 35 -66 3 -81 l-24 -11 22 -30 c12 -17 49 -80 82
-141 l60 -111 58 0 c78 -1 83 -9 63 -89 -9 -36 -16 -72 -16 -80 0 -15 92 -66
120 -66 46 0 67 -81 30 -115 -36 -32 -27 -82 30 -163 28 -39 58 -75 68 -80 9
-5 45 -12 79 -14 l62 -4 -6 28 c-5 25 -3 28 20 28 36 0 229 -20 248 -26 12 -3
19 3 23 21 8 32 28 32 173 4 l108 -21 14 21 c18 28 45 27 168 -8 100 -27 103
-28 119 -10 23 25 27 25 148 -17 99 -34 106 -35 129 -19 28 18 33 16 146 -39
51 -24 78 -33 85 -26 19 19 52 10 125 -36 58 -36 79 -44 101 -39 16 3 31 2 35
-4 4 -8 156 -11 476 -11 l469 0 0 1800 0 1800 -2400 0 -2400 0 0 -225z m2835
-878 c39 -39 55 -89 55 -170 0 -50 -3 -60 -20 -64 -10 -3 -22 -14 -25 -24 -9
-27 -20 -24 -53 17 -36 44 -54 101 -54 175 0 102 36 127 97 66z m-163 -1924
c38 -41 60 -90 56 -126 -4 -45 -27 -44 -80 3 -55 48 -68 87 -41 124 23 32 33
32 65 -1z"/>
<path d="M1550 78 c0 -24 18 -41 35 -34 17 6 17 8 0 26 -21 23 -35 26 -35 8z"/>
</g>
</svg>
