<?xml version="1.0" standalone="no"?>
<!DOCTYPE svg PUBLIC "-//W3C//DTD SVG 20010904//EN"
 "http://www.w3.org/TR/2001/REC-SVG-20010904/DTD/svg10.dtd">
<svg version="1.0" xmlns="http://www.w3.org/2000/svg"
 width="480.000000pt" height="360.000000pt" viewBox="0 0 480.000000 360.000000"
 preserveAspectRatio="xMidYMid meet">
<metadata>
Created by potrace 1.16, written by Peter Selinger 2001-2019
</metadata>
<rect width="1" height="360" fill="#000000"/>
<rect x="479" width="1" height="360" fill="#000000"/>
<rect width="480" height="1" fill="#000000"/>
<rect y="359" width="480" height="1" fill="#000000"/>
<g transform="translate(0.000000,360.000000) scale(0.100000,-0.100000)"
fill="#000000" stroke="none">
<path d="M0 1800 l0 -1800 989 0 c963 0 989 1 984 19 -3 11 23 69 66 147 79
145 93 192 120 408 24 186 14 356 -31 536 -42 168 -42 239 0 343 18 43 32 88
32 99 0 12 16 49 35 83 19 34 32 65 28 68 -3 4 -7 24 -9 46 -3 35 -1 42 29 60
69 43 96 81 106 154 8 55 7 72 -5 85 -8 9 -32 37 -54 62 -22 25 -40 50 -40 57
0 7 -12 23 -27 37 -26 25 -26 26 -8 46 16 18 17 23 5 48 -11 22 -14 24 -17 10
-9 -36 -56 -13 -72 34 -9 26 -14 30 -21 18 -6 -10 -12 -1 -21 35 -7 27 -14 44
-17 37 -9 -29 -19 -8 -17 36 4 70 61 198 112 253 53 57 152 111 258 140 160
44 299 10 411 -100 58 -57 115 -177 139 -291 15 -73 35 -347 35 -488 0 -51 13
-200 30 -330 16 -130 34 -331 40 -447 5 -115 15 -284 21 -375 11 -159 7 -535
-7 -738 l-7 -92 857 0 856 0 0 1800 0 1800 -2400 0 -2400 0 0 -1800z"/>
</g>
</svg>
