<?xml version="1.0" standalone="no"?>
<!DOCTYPE svg PUBLIC "-//W3C//DTD SVG 20010904//EN"
 "http://www.w3.org/TR/2001/REC-SVG-20010904/DTD/svg10.dtd">
<svg version="1.0" xmlns="http://www.w3.org/2000/svg"
 width="480.000000pt" height="360.000000pt" viewBox="0 0 480.000000 360.000000"
 preserveAspectRatio="xMidYMid meet">
<metadata>
Created by potrace 1.16, written by Peter Selinger 2001-2019
</metadata>
<rect width="1" height="360" fill="#000000"/>
<rect x="479" width="1" height="360" fill="#000000"/>
<rect width="480" height="1" fill="#000000"/>
<rect y="359" width="480" height="1" fill="#000000"/>
<g transform="translate(0.000000,360.000000) scale(0.100000,-0.100000)"
fill="#000000" stroke="none">
<path d="M0 1800 l0 -1800 871 0 c824 0 870 1 865 18 -7 23 2 34 46 54 32 15
37 23 43 61 5 32 2 53 -9 76 -15 28 -15 52 -4 251 11 210 11 221 -7 234 -18
13 -18 17 -2 117 l16 104 -44 41 c-60 58 -66 101 -30 226 55 191 117 284 219
328 l42 18 19 228 c27 323 26 385 -5 459 -21 51 -25 76 -25 166 l0 107 -105 6
c-140 9 -220 25 -220 43 0 22 88 141 156 210 l60 61 -43 58 c-55 73 -56 94 -5
94 64 0 68 8 49 92 -58 259 -50 262 133 49 65 -75 100 -108 110 -104 111 43
584 70 735 42 33 -7 84 -12 113 -12 l53 0 124 121 c68 67 129 122 136 122 7 0
9 -10 7 -27 -14 -76 -65 -337 -75 -380 -4 -19 0 -22 33 -28 80 -12 152 -28
254 -57 102 -29 130 -42 130 -59 0 -9 -155 -60 -244 -80 -58 -13 -58 -13 -37
-30 11 -9 21 -19 21 -22 0 -11 -100 -37 -185 -48 -49 -6 -96 -13 -102 -15 -16
-4 -17 -72 -3 -109 5 -14 17 -71 27 -128 19 -113 25 -515 10 -662 l-9 -80 49
-62 c26 -34 84 -126 128 -205 l79 -143 1 -80 c0 -71 -3 -85 -27 -119 -25 -36
-26 -40 -12 -78 7 -22 13 -72 13 -111 -1 -89 34 -271 66 -343 22 -50 26 -54
59 -54 59 0 86 -15 86 -49 0 -32 -34 -132 -57 -167 -10 -16 -11 -32 -2 -77
l12 -57 643 0 644 0 0 1800 0 1800 -2400 0 -2400 0 0 -1800z"/>
<path d="M2278 163 c7 -3 16 -2 19 1 4 3 -2 6 -13 5 -11 0 -14 -3 -6 -6z"/>
</g>
</svg>
