<?xml version="1.0" standalone="no"?>
<!DOCTYPE svg PUBLIC "-//W3C//DTD SVG 20010904//EN"
 "http://www.w3.org/TR/2001/REC-SVG-20010904/DTD/svg10.dtd">
<svg version="1.0" xmlns="http://www.w3.org/2000/svg"
 width="480.000000pt" height="360.000000pt" viewBox="0 0 480.000000 360.000000"
 preserveAspectRatio="xMidYMid meet">
<metadata>
Created by potrace 1.16, written by Peter Selinger 2001-2019
</metadata>
<rect width="1" height="360" fill="#000000"/>
<rect x="479" width="1" height="360" fill="#000000"/>
<rect width="480" height="1" fill="#000000"/>
<rect y="359" width="480" height="1" fill="#000000"/>
<g transform="translate(0.000000,360.000000) scale(0.100000,-0.100000)"
fill="#000000" stroke="none">
<path d="M0 1800 l0 -1800 854 0 854 0 24 33 c13 17 39 72 57 122 18 50 50
126 71 170 32 68 48 88 99 127 51 40 66 59 96 124 19 43 47 92 60 110 24 31
25 39 25 169 l0 136 -35 -7 c-45 -8 -58 3 -97 80 -27 54 -55 88 -133 166 -14
15 -25 37 -25 52 0 45 -21 76 -61 92 -66 27 -72 69 -15 113 30 24 76 91 76
110 0 8 -13 19 -29 24 -17 6 -46 19 -65 29 -20 10 -36 16 -36 13 0 -2 11 -19
26 -38 35 -46 15 -52 -39 -11 -42 32 -44 32 -39 10 2 -14 0 -24 -7 -24 -6 0
-11 5 -11 10 0 6 -9 10 -19 10 -11 0 -29 12 -40 28 -11 15 -27 34 -35 43 -22
22 -86 166 -86 192 0 12 -4 28 -9 36 -7 11 -14 8 -35 -15 -25 -28 -26 -28 -17
-4 5 14 18 45 30 70 19 42 28 100 15 100 -3 0 -17 -14 -31 -30 -14 -17 -33
-35 -43 -40 -14 -8 -11 9 20 93 70 192 130 315 202 415 79 108 297 251 466
306 28 10 52 22 52 27 0 5 -24 56 -54 114 -121 232 -199 307 -426 410 -231
105 -270 124 -352 179 l-86 56 -601 0 -601 0 0 -1800z"/>
<path d="M1985 3590 c3 -5 11 -10 16 -10 6 0 7 5 4 10 -3 6 -11 10 -16 10 -6
0 -7 -4 -4 -10z"/>
<path d="M2453 3587 c5 -13 59 -285 109 -552 l23 -120 85 -7 c186 -14 321 -59
454 -152 33 -23 85 -55 116 -71 32 -17 91 -61 131 -97 64 -58 81 -81 127 -172
67 -134 152 -384 186 -551 15 -71 35 -170 46 -220 10 -49 28 -157 40 -240 24
-165 69 -453 105 -670 l23 -141 146 -297 146 -297 305 0 305 0 0 1800 0 1800
-1176 0 c-968 0 -1175 -2 -1171 -13z"/>
</g>
</svg>
