<?xml version="1.0" standalone="no"?>
<!DOCTYPE svg PUBLIC "-//W3C//DTD SVG 20010904//EN"
 "http://www.w3.org/TR/2001/REC-SVG-20010904/DTD/svg10.dtd">
<svg version="1.0" xmlns="http://www.w3.org/2000/svg"
 width="480.000000pt" height="360.000000pt" viewBox="0 0 480.000000 360.000000"
 preserveAspectRatio="xMidYMid meet">
<metadata>
Created by potrace 1.16, written by Peter Selinger 2001-2019
</metadata>
<rect width="1" height="360" fill="#000000"/>
<rect x="479" width="1" height="360" fill="#000000"/>
<rect width="480" height="1" fill="#000000"/>
<rect y="359" width="480" height="1" fill="#000000"/>
<g transform="translate(0.000000,360.000000) scale(0.100000,-0.100000)"
fill="#000000" stroke="none">
<path d="M0 2590 c0 -870 2 -1010 14 -1010 25 0 277 133 366 193 184 124 241
170 402 324 59 56 118 105 132 109 19 4 39 -6 98 -53 40 -32 109 -83 153 -113
114 -76 183 -130 320 -248 139 -119 207 -167 286 -199 69 -28 227 -48 303 -39
l57 8 24 54 c13 30 32 80 41 112 35 120 45 141 92 183 26 23 75 55 109 72 55
27 63 35 63 59 0 34 -9 35 -44 7 l-27 -21 7 26 c7 30 -3 34 -22 9 -12 -17 -13
-16 -14 4 0 55 -20 66 -57 31 -25 -23 -29 -15 -13 26 14 38 -1 38 -40 0 -51
-51 -62 -45 -35 19 21 51 19 72 -10 85 -25 11 -25 13 -10 41 8 17 15 33 15 36
0 13 -108 52 -135 48 -24 -4 -36 2 -59 26 -17 17 -35 31 -42 31 -7 0 -17 14
-23 30 -12 36 -24 38 -39 8 -10 -19 -11 -15 -6 25 4 26 2 47 -2 47 -5 0 -28
-15 -52 -34 -59 -47 -87 -52 -128 -24 -34 23 -58 63 -49 79 4 5 19 9 34 9 22
0 44 16 98 73 101 106 136 160 132 205 -11 153 9 243 73 327 55 72 209 163
347 205 66 20 88 22 210 17 83 -3 159 -12 196 -23 33 -9 83 -22 112 -28 28 -6
61 -20 72 -30 69 -62 216 -343 236 -449 9 -45 -9 -94 -36 -102 -10 -4 -19 -12
-19 -19 0 -21 107 -132 139 -146 34 -14 48 -44 32 -64 -17 -20 -58 -25 -73
-10 -16 16 -98 30 -98 17 0 -6 9 -18 20 -28 15 -14 17 -21 9 -31 -9 -11 -7
-20 5 -39 23 -35 21 -38 -24 -30 -43 7 -49 1 -24 -26 9 -10 13 -23 9 -28 -8
-15 -38 -14 -53 1 -21 21 -25 0 -8 -48 9 -26 16 -51 16 -56 0 -18 -39 -6 -71
21 -18 17 -35 28 -37 27 -1 -2 2 -16 8 -31 9 -23 8 -28 -10 -32 -23 -6 -23 -4
-10 -37 11 -29 -3 -44 -24 -27 -7 6 -21 9 -29 5 -9 -3 -30 2 -47 13 -27 15
-32 16 -40 3 -15 -23 -12 -29 14 -41 21 -10 23 -15 15 -36 -18 -48 -12 -59 64
-97 117 -61 135 -76 152 -126 8 -25 36 -82 61 -125 25 -44 50 -90 55 -102 6
-16 17 -23 36 -23 53 1 168 20 239 41 71 21 73 21 169 4 112 -20 232 -17 310
10 66 23 166 79 300 171 61 41 173 107 249 147 77 40 158 82 180 95 39 21 57
22 114 6 l22 -6 0 751 0 751 -2400 0 -2400 0 0 -1010z"/>
<path d="M821 1998 c-56 -57 -59 -62 -45 -82 7 -11 14 -33 14 -48 0 -15 10
-37 24 -51 29 -29 70 -157 64 -200 -4 -28 -53 -198 -142 -496 -25 -87 -48
-123 -66 -105 -5 5 -30 124 -54 264 -25 140 -50 279 -56 309 -9 51 -8 59 20
119 25 53 27 62 11 51 -10 -8 -53 -38 -94 -68 -74 -53 -76 -55 -75 -95 1 -23
7 -48 14 -56 15 -19 34 -108 34 -160 0 -30 -32 -105 -141 -324 -77 -157 -145
-288 -151 -292 -26 -16 -29 31 -24 339 l5 318 33 52 c18 29 37 55 43 59 6 5 3
8 -7 8 -9 0 -44 -16 -77 -35 -54 -32 -60 -38 -59 -68 2 -93 -12 -257 -23 -278
-6 -13 -25 -40 -41 -59 l-28 -35 0 -532 0 -533 869 0 869 0 7 30 c12 56 202
353 255 400 4 3 32 37 64 75 33 39 76 88 96 111 37 40 38 43 48 152 8 87 7
137 -4 224 -8 62 -19 151 -24 198 -6 47 -12 90 -14 95 -2 6 0 35 5 65 10 66 1
80 -52 80 -44 0 -48 -8 -19 -35 20 -18 29 -43 50 -145 11 -51 9 -60 -15 -125
-15 -38 -38 -101 -50 -140 -111 -334 -136 -388 -166 -358 -11 11 -24 102 -33
233 -3 41 -12 141 -20 222 l-15 147 34 75 c19 41 47 84 61 95 59 46 3 73 -179
87 l-87 7 15 -37 c8 -20 22 -66 29 -102 l14 -67 -45 -136 c-26 -75 -58 -172
-73 -216 -14 -44 -37 -114 -51 -155 -19 -60 -28 -76 -46 -78 -28 -4 -30 7 -73
383 -7 55 -13 109 -15 120 -2 11 -6 41 -10 66 -6 40 -3 56 20 105 16 33 28 62
27 66 -1 4 15 24 36 45 52 53 49 76 -18 153 -75 85 -241 212 -257 196 -4 -3 2
-14 11 -25 22 -24 66 -147 66 -186 0 -25 -36 -168 -97 -385 -8 -30 -22 -80
-30 -110 -8 -30 -18 -66 -22 -79 -4 -14 -15 -29 -24 -35 -31 -19 -32 -17 -107
398 l-39 219 31 76 c17 42 40 86 52 99 11 13 25 37 31 55 10 32 9 33 -55 81
-36 27 -83 64 -104 82 -22 19 -45 34 -52 34 -8 0 -40 -28 -73 -62z"/>
<path d="M4689 1946 c-20 -14 -59 -35 -88 -47 -60 -27 -65 -46 -25 -104 14
-21 37 -64 51 -94 l25 -56 -22 -95 c-11 -52 -25 -117 -30 -145 -10 -52 -38
-189 -49 -240 -6 -24 -13 -31 -38 -33 l-31 -3 -36 118 c-21 65 -53 170 -72
233 -20 63 -40 128 -45 144 -7 21 -4 45 11 93 11 36 20 69 20 74 0 24 -200
-140 -213 -173 -6 -16 -1 -29 21 -52 16 -17 42 -59 57 -94 26 -58 27 -66 16
-120 -25 -130 -42 -231 -51 -303 -5 -41 -15 -94 -22 -117 -11 -37 -16 -42 -38
-40 -26 3 -38 33 -159 410 -37 117 -38 129 -7 213 l24 65 -72 -1 c-160 -1
-200 -22 -150 -75 16 -17 39 -58 52 -90 l23 -59 -21 -130 c-11 -71 -28 -175
-36 -230 -22 -146 -26 -158 -53 -160 -28 -2 -39 20 -76 140 -15 50 -49 158
-75 242 l-49 152 21 63 c11 35 30 73 41 85 11 13 18 26 14 29 -8 9 -266 -16
-272 -26 -3 -4 4 -19 14 -32 20 -25 75 -152 74 -172 0 -13 -48 -252 -64 -318
-9 -41 -8 -55 10 -101 30 -82 34 -155 20 -347 -21 -274 -19 -324 15 -395 16
-33 35 -80 41 -105 l12 -45 672 -3 671 -2 0 671 0 671 -40 125 c-22 69 -40
135 -40 147 0 40 37 140 59 157 30 25 31 134 0 173 -25 32 -44 33 -90 2z"/>
<path d="M3166 1515 c4 -9 13 -15 21 -13 23 5 20 23 -4 26 -18 3 -21 0 -17
-13z"/>
<path d="M2955 1139 c-9 -29 4 -192 21 -259 8 -30 26 -83 41 -118 22 -53 24
-65 13 -72 -12 -7 -3 -31 45 -124 32 -63 60 -114 61 -113 2 1 -3 79 -11 173
-7 93 -11 188 -8 211 5 35 1 49 -24 87 -16 24 -49 88 -73 140 -24 53 -47 96
-51 96 -4 0 -11 -9 -14 -21z"/>
<path d="M1962 29 l-24 -29 31 0 c28 0 31 3 31 30 0 37 -9 37 -38 -1z"/>
</g>
</svg>
