<?xml version="1.0" standalone="no"?>
<!DOCTYPE svg PUBLIC "-//W3C//DTD SVG 20010904//EN"
 "http://www.w3.org/TR/2001/REC-SVG-20010904/DTD/svg10.dtd">
<svg version="1.0" xmlns="http://www.w3.org/2000/svg"
 width="480.000000pt" height="360.000000pt" viewBox="0 0 480.000000 360.000000"
 preserveAspectRatio="xMidYMid meet">
<metadata>
Created by potrace 1.16, written by Peter Selinger 2001-2019
</metadata>
<rect width="1" height="360" fill="#000000"/>
<rect x="479" width="1" height="360" fill="#000000"/>
<rect width="480" height="1" fill="#000000"/>
<rect y="359" width="480" height="1" fill="#000000"/>
<g transform="translate(0.000000,360.000000) scale(0.100000,-0.100000)"
fill="#000000" stroke="none">
<path d="M0 1800 l0 -1800 925 0 925 0 11 26 c5 15 7 35 4 45 -3 9 15 69 40
132 42 107 45 122 45 206 0 83 -2 94 -30 138 -34 54 -36 78 -16 208 8 50 14
108 13 130 -1 22 2 57 6 78 10 47 -3 48 -34 2 -13 -19 -29 -35 -35 -35 -14 0
-24 23 -24 51 0 39 70 229 104 283 20 30 46 78 59 108 13 29 32 59 41 67 14
12 16 24 11 62 -8 58 5 85 45 94 16 4 30 8 30 11 0 2 -26 30 -58 62 -33 31
-76 84 -98 116 -37 56 -39 63 -39 136 0 59 -3 76 -12 73 -7 -3 -16 2 -19 11
-8 22 33 76 59 76 12 0 31 7 42 16 17 13 18 16 5 24 -8 5 -24 10 -36 10 -11 0
-29 7 -40 15 -10 8 -27 15 -36 15 -20 0 -36 22 -20 28 7 2 12 12 12 23 0 28
26 34 56 14 28 -18 70 -17 67 2 -41 203 -42 323 -4 323 5 0 32 -21 60 -46 l52
-47 27 26 c31 29 107 66 137 67 11 0 44 24 73 54 l52 55 0 470 0 471 -1200 0
-1200 0 0 -1800z"/>
<path d="M2406 2653 c-3 -4 -6 -602 -6 -1330 l0 -1323 300 0 c284 0 300 1 291
18 -5 9 -9 33 -8 52 0 20 -20 86 -48 155 l-48 120 14 235 c8 129 13 272 12
318 -1 45 2 82 6 82 3 0 15 -14 24 -30 21 -36 32 -38 48 -9 18 35 -10 207 -45
278 -13 25 -36 78 -51 116 -15 39 -35 80 -45 92 -13 17 -16 34 -12 72 5 55 -7
81 -39 81 -27 0 -23 15 9 36 85 55 177 168 202 247 23 72 -29 156 -129 207
-36 18 -62 50 -42 50 5 0 11 -6 14 -12 3 -10 9 -8 24 4 14 13 22 15 31 6 16
-16 39 5 47 44 10 42 -4 51 -49 33 -21 -9 -40 -14 -43 -11 -3 3 2 41 11 85 34
172 30 281 -10 281 -7 0 -38 -20 -68 -45 -30 -24 -58 -41 -61 -36 -14 24 -103
71 -151 81 -43 9 -60 19 -87 50 -32 38 -79 65 -91 53z m545 -705 c45 -55 13
-131 -92 -220 -73 -61 -94 -71 -119 -58 -21 11 -28 52 -9 47 6 -1 20 23 32 53
26 69 24 67 41 45 7 -10 18 -15 25 -11 6 4 19 2 28 -6 15 -12 16 -10 10 20 -5
25 -3 32 8 32 13 0 12 7 -5 40 -29 57 -25 91 8 58 10 -9 16 -8 29 5 22 21 21
21 44 -5z m-375 -274 c-4 -9 -9 -15 -11 -12 -3 3 -3 13 1 22 4 9 9 15 11 12 3
-3 3 -13 -1 -22z m79 -25 c9 -16 14 -32 13 -36 -3 -6 -89 -5 -96 2 -5 5 22 49
38 61 18 15 26 11 45 -27z m193 -1191 c-4 -22 -5 -22 -18 4 -11 23 -11 30 1
44 13 16 14 16 17 -4 2 -12 2 -32 0 -44z"/>
<path d="M2014 1975 c-4 -8 -14 -15 -24 -15 -40 0 -41 -79 -2 -141 33 -52 141
-151 154 -143 15 9 -1 75 -25 105 -12 14 -28 35 -35 45 -8 12 -15 15 -18 8 -2
-6 -11 -20 -19 -30 -13 -18 -14 -17 -15 15 0 25 -4 32 -15 27 -19 -7 -19 -2 1
36 18 34 26 108 12 108 -5 0 -11 -7 -14 -15z"/>
<path d="M2258 1664 c-25 -48 -23 -54 18 -54 36 0 36 1 30 32 -11 54 -28 62
-48 22z"/>
<path d="M2320 1675 c0 -8 4 -15 10 -15 5 0 7 7 4 15 -4 8 -8 15 -10 15 -2 0
-4 -7 -4 -15z"/>
<path d="M1991 424 c0 -11 3 -14 6 -6 3 7 2 16 -1 19 -3 4 -6 -2 -5 -13z"/>
</g>
</svg>
