<?xml version="1.0" standalone="no"?>
<!DOCTYPE svg PUBLIC "-//W3C//DTD SVG 20010904//EN"
 "http://www.w3.org/TR/2001/REC-SVG-20010904/DTD/svg10.dtd">
<svg version="1.0" xmlns="http://www.w3.org/2000/svg"
 width="480.000000pt" height="360.000000pt" viewBox="0 0 480.000000 360.000000"
 preserveAspectRatio="xMidYMid meet">
<metadata>
Created by potrace 1.16, written by Peter Selinger 2001-2019
</metadata>
<rect width="1" height="360" fill="#000000"/>
<rect x="479" width="1" height="360" fill="#000000"/>
<rect width="480" height="1" fill="#000000"/>
<rect y="359" width="480" height="1" fill="#000000"/>
<g transform="translate(0.000000,360.000000) scale(0.100000,-0.100000)"
fill="#000000" stroke="none">
<path d="M2843 3336 c-74 -27 -92 -41 -110 -83 -20 -48 -16 -114 11 -187 27
-74 30 -68 -58 -121 -122 -73 -232 -196 -286 -317 -11 -25 -24 -86 -30 -137
-6 -51 -18 -109 -27 -129 -9 -20 -19 -41 -21 -47 -3 -5 5 -1 17 9 21 19 21 19
21 -3 0 -12 4 -20 9 -17 11 7 21 -42 21 -103 1 -43 1 -45 14 -22 l13 24 11
-32 c14 -38 26 -41 18 -3 -5 23 -4 22 12 -8 9 -19 22 -35 27 -36 23 -2 52 -19
83 -47 36 -34 40 -31 16 14 -19 39 -12 48 10 14 9 -14 21 -23 26 -20 6 4 10
-12 10 -38 0 -31 -8 -56 -26 -83 -31 -45 -25 -62 26 -79 24 -8 37 -21 44 -42
6 -17 33 -51 60 -75 l48 -45 -3 -85 c-3 -61 0 -89 9 -98 8 -7 10 -20 6 -33
-12 -36 -10 -52 6 -52 23 0 29 -22 29 -112 1 -67 -4 -93 -26 -145 -15 -35 -28
-65 -29 -67 -2 -2 -21 4 -44 13 -83 33 -132 10 -135 -65 -4 -128 -1 -119 -80
-202 l-73 -78 -39 19 c-75 38 -455 154 -477 146 -6 -2 -26 12 -42 33 -28 34
-31 47 -37 129 -12 195 -84 258 -257 224 -25 -4 -46 -7 -48 -5 -2 2 -4 19 -5
39 -1 22 -7 36 -15 36 -10 0 -13 -12 -11 -42 4 -47 3 -47 -84 -79 -84 -30
-104 -52 -128 -138 -18 -67 -19 -77 -5 -120 8 -25 14 -60 14 -77 1 -49 25 -94
86 -161 62 -68 101 -85 249 -113 37 -7 67 -14 67 -17 0 -2 -11 -48 -24 -101
-14 -53 -31 -147 -39 -208 -8 -61 -19 -120 -25 -130 -13 -25 -58 -160 -67
-202 l-7 -32 559 2 558 3 8 40 c4 22 16 83 27 135 l19 95 -5 -80 c-2 -44 -7
-106 -11 -137 l-6 -58 652 0 c459 0 651 3 651 11 0 6 -25 60 -56 121 -51 103
-56 118 -61 199 l-6 87 59 12 c87 18 136 40 130 57 -4 8 7 25 26 41 l32 27
-49 7 c-41 6 -60 2 -134 -28 -46 -19 -86 -34 -87 -34 -2 0 -6 17 -9 38 -11 67
-50 257 -84 400 -10 45 -17 82 -15 82 2 0 13 -6 24 -12 15 -10 22 -10 32 0 10
10 10 17 -2 35 -73 114 -91 186 -70 278 24 108 26 109 55 22 9 -29 21 -56 27
-60 7 -4 9 0 5 10 -3 9 -9 40 -13 69 l-7 53 20 -25 c11 -14 34 -62 52 -108 32
-78 62 -125 47 -71 -15 55 -19 112 -8 105 7 -4 12 -12 12 -17 0 -13 52 -90 57
-85 9 9 3 735 -7 851 -13 152 -16 174 -47 320 -30 141 -54 216 -99 307 -18 36
-38 96 -44 133 -6 37 -18 82 -27 99 -47 92 -139 193 -206 228 -55 28 -149 34
-206 15 -42 -15 -49 -15 -105 4 -34 11 -74 33 -91 48 -65 60 -200 143 -229
140 -6 -1 -39 -11 -73 -23z m208 -1677 c25 -51 24 -58 -22 -98 l-39 -33 0 58
c0 33 3 76 6 97 6 31 9 35 21 25 8 -6 23 -29 34 -49z"/>
</g>
</svg>
