<?xml version="1.0" standalone="no"?>
<!DOCTYPE svg PUBLIC "-//W3C//DTD SVG 20010904//EN"
 "http://www.w3.org/TR/2001/REC-SVG-20010904/DTD/svg10.dtd">
<svg version="1.0" xmlns="http://www.w3.org/2000/svg"
 width="480.000000pt" height="360.000000pt" viewBox="0 0 480.000000 360.000000"
 preserveAspectRatio="xMidYMid meet">
<metadata>
Created by potrace 1.16, written by Peter Selinger 2001-2019
</metadata>
<rect width="1" height="360" fill="#000000"/>
<rect x="479" width="1" height="360" fill="#000000"/>
<rect width="480" height="1" fill="#000000"/>
<rect y="359" width="480" height="1" fill="#000000"/>
<g transform="translate(0.000000,360.000000) scale(0.100000,-0.100000)"
fill="#000000" stroke="none">
<path d="M938 3573 c-35 -38 -63 -96 -112 -233 -55 -155 -55 -233 -3 -434 44
-167 48 -246 18 -366 -12 -47 -24 -121 -28 -165 -5 -70 -3 -86 16 -123 24 -47
64 -76 126 -93 71 -20 134 -58 159 -97 44 -66 61 -234 30 -295 -9 -18 -62 -78
-119 -133 -84 -83 -125 -134 -220 -278 -131 -199 -150 -237 -160 -316 -11 -91
17 -149 124 -256 111 -111 116 -125 108 -319 -7 -172 -30 -264 -92 -380 l-46
-85 1472 0 1472 0 -5 57 c-9 91 -47 217 -83 275 -117 185 -138 240 -137 354 0
77 25 227 57 350 17 67 91 207 130 250 54 57 90 61 319 36 332 -37 432 -27
470 47 31 58 14 155 -37 210 -41 44 -128 102 -210 140 -45 21 -125 57 -177 81
-149 68 -181 92 -225 170 -17 29 -21 58 -23 169 -5 158 2 185 64 276 60 87 74
123 74 187 -1 119 -65 189 -231 252 -168 64 -428 131 -580 151 -66 8 -137 -11
-188 -50 -70 -55 -88 -90 -110 -215 -19 -109 -61 -220 -117 -310 -12 -19 -28
-53 -35 -75 -22 -68 -78 -144 -116 -160 -49 -21 -79 -19 -97 7 -14 20 -14 25
11 67 14 26 41 67 60 93 18 25 47 85 64 133 26 77 29 94 23 163 -11 125 -72
264 -203 457 -38 55 -87 136 -110 179 -72 136 -96 158 -254 236 l-139 70 -457
0 -457 0 -26 -27z m1033 -3047 c7 -14 8 -37 5 -52 -7 -28 -77 -104 -96 -104
-11 0 -13 61 -4 108 13 65 74 95 95 48z"/>
</g>
</svg>
