<?xml version="1.0" standalone="no"?>
<!DOCTYPE svg PUBLIC "-//W3C//DTD SVG 20010904//EN"
 "http://www.w3.org/TR/2001/REC-SVG-20010904/DTD/svg10.dtd">
<svg version="1.0" xmlns="http://www.w3.org/2000/svg"
 width="480.000000pt" height="360.000000pt" viewBox="0 0 480.000000 360.000000"
 preserveAspectRatio="xMidYMid meet">
<metadata>
Created by potrace 1.16, written by Peter Selinger 2001-2019
</metadata>
<rect width="1" height="360" fill="#000000"/>
<rect x="479" width="1" height="360" fill="#000000"/>
<rect width="480" height="1" fill="#000000"/>
<rect y="359" width="480" height="1" fill="#000000"/>
<g transform="translate(0.000000,360.000000) scale(0.100000,-0.100000)"
fill="#000000" stroke="none">
<path d="M3146 3578 c-32 -49 -67 -140 -82 -209 -17 -83 -21 -289 -6 -336 14
-44 -6 -73 -93 -130 -22 -14 -65 -51 -97 -83 -47 -47 -65 -58 -112 -69 -31 -7
-58 -17 -62 -22 -13 -21 6 -57 36 -67 26 -10 29 -14 24 -39 -8 -41 15 -59 57
-44 36 12 34 13 161 -65 69 -43 93 -52 116 -48 39 8 56 -15 49 -66 -5 -40 6
-63 17 -35 7 19 25 19 47 -1 17 -16 16 -19 -22 -75 -22 -33 -43 -59 -47 -59
-4 0 -18 -10 -32 -21 l-25 -20 68 4 c37 3 67 1 67 -3 0 -5 -9 -30 -20 -56 -22
-50 -20 -65 5 -44 13 11 15 8 15 -22 0 -19 -7 -56 -16 -82 -20 -58 -14 -67 16
-23 22 32 77 63 89 51 3 -3 5 -30 5 -61 l0 -55 17 38 c11 25 18 32 18 20 1
-18 2 -18 20 -2 11 10 24 15 30 12 5 -4 14 2 20 11 6 10 11 12 11 6 0 -20 20
-15 20 5 0 13 6 10 25 -13 l24 -30 1 25 c0 14 9 31 19 37 17 11 24 8 50 -23
30 -34 51 -38 51 -9 0 7 7 15 15 19 10 4 22 -8 37 -37 20 -37 23 -39 26 -19 5
29 24 23 36 -11 12 -34 -7 -72 -43 -86 -14 -6 -76 -22 -137 -35 -180 -40 -259
-75 -349 -155 -42 -38 -115 -92 -161 -121 -47 -28 -100 -65 -119 -81 -39 -34
-75 -103 -75 -143 l0 -27 -32 18 c-18 10 -116 99 -218 198 -166 161 -195 185
-280 230 -90 47 -95 52 -101 88 -7 45 -5 43 -50 50 -32 5 -40 1 -71 -31 -19
-20 -61 -75 -93 -122 -73 -108 -69 -104 -93 -89 -18 11 -25 9 -57 -15 -47 -36
-77 -84 -106 -170 -18 -52 -35 -79 -66 -109 -61 -57 -210 -176 -342 -275 -114
-85 -153 -121 -145 -133 4 -8 99 -5 240 6 112 9 89 16 254 -77 50 -29 134 -45
145 -28 14 23 36 7 56 -40 38 -88 99 -120 269 -141 78 -10 92 -15 174 -67 48
-32 129 -97 180 -145 92 -90 147 -126 224 -146 23 -7 42 -15 43 -19 3 -31 12
-51 43 -97 27 -40 47 -59 88 -78 61 -28 158 -47 246 -47 52 0 62 -3 67 -20 6
-20 15 -20 796 -20 l789 0 0 829 0 829 -47 20 c-41 17 -211 74 -293 98 -30 8
-116 63 -147 93 -13 12 -23 32 -23 44 0 17 2 19 10 7 7 -12 13 -9 30 13 29 37
50 35 50 -4 l0 -32 25 28 c18 18 33 25 46 22 14 -4 35 10 76 49 41 39 60 51
69 44 8 -8 17 -3 31 16 l20 27 56 -32 c52 -30 55 -30 50 -10 -5 18 -3 21 10
16 11 -4 20 1 27 13 13 24 14 892 1 938 -6 20 -6 32 0 32 5 0 9 114 9 280 l0
280 -820 0 -820 0 -14 -22z"/>
</g>
</svg>
