<?xml version="1.0" standalone="no"?>
<!DOCTYPE svg PUBLIC "-//W3C//DTD SVG 20010904//EN"
 "http://www.w3.org/TR/2001/REC-SVG-20010904/DTD/svg10.dtd">
<svg version="1.0" xmlns="http://www.w3.org/2000/svg"
 width="480.000000pt" height="360.000000pt" viewBox="0 0 480.000000 360.000000"
 preserveAspectRatio="xMidYMid meet">
<metadata>
Created by potrace 1.16, written by Peter Selinger 2001-2019
</metadata>
<rect width="1" height="360" fill="#000000"/>
<rect x="479" width="1" height="360" fill="#000000"/>
<rect width="480" height="1" fill="#000000"/>
<rect y="359" width="480" height="1" fill="#000000"/>
<g transform="translate(0.000000,360.000000) scale(0.100000,-0.100000)"
fill="#000000" stroke="none">
<path d="M4490 1176 c0 -6 -192 -571 -195 -574 -2 -2 -20 2 -40 9 -30 11 -35
17 -30 36 6 25 -16 87 -42 115 -12 14 -14 30 -9 78 6 50 5 60 -9 60 -8 0 -15
-5 -15 -11 0 -17 -89 -1 -166 30 -56 23 -69 33 -78 59 -12 34 -32 59 -42 50
-3 -3 1 -19 8 -35 17 -35 16 -69 -5 -109 -9 -17 -21 -52 -28 -77 -6 -26 -16
-47 -22 -47 -12 0 -47 -40 -47 -54 0 -7 13 -17 30 -23 30 -11 50 -45 50 -84 0
-12 14 -51 30 -89 36 -82 38 -95 10 -78 -33 21 -45 -3 -42 -80 4 -117 11 -133
70 -166 57 -33 82 -77 82 -146 l0 -40 170 0 170 0 0 90 c0 57 -5 104 -15 126
-12 30 -13 39 -1 57 8 12 16 34 20 50 4 15 11 27 16 27 5 0 24 13 42 28 56 47
213 102 292 102 22 0 55 5 73 12 l33 12 0 78 0 78 -41 0 c-28 0 -39 -4 -37
-12 3 -8 -13 -18 -41 -26 -104 -30 -316 -82 -333 -82 -25 0 -41 35 -28 60 15
28 190 549 190 566 0 8 -4 14 -10 14 -5 0 -10 -2 -10 -4z m-260 -696 c-19 -12
-30 -12 -30 -1 0 10 31 20 40 14 2 -2 -2 -8 -10 -13z"/>
<path d="M2441 1101 c-1 -20 -4 -22 -13 -13 -17 17 -33 15 -18 -3 10 -12 9
-16 -5 -22 -16 -6 -16 -7 4 -15 23 -8 23 -8 4 -37 -26 -42 -82 -101 -94 -101
-7 0 -6 -6 2 -17 13 -15 12 -15 -10 -4 -27 15 -23 3 11 -35 20 -23 48 -164 48
-248 0 -46 -1 -48 -25 -43 -48 9 -52 -39 -13 -126 19 -40 37 -63 62 -78 28
-16 39 -32 50 -69 8 -27 12 -57 10 -67 -3 -11 2 -25 10 -32 22 -19 20 -31 -14
-78 -17 -22 -37 -57 -45 -77 l-15 -36 185 0 c114 0 185 4 185 10 0 5 -7 28
-16 51 -14 34 -15 46 -4 79 17 51 6 201 -19 251 l-17 37 40 -5 c23 -3 65 -14
94 -24 68 -25 87 -24 106 3 22 32 21 38 -24 98 -48 64 -50 75 -11 52 26 -15
32 -15 57 -2 57 31 70 136 23 186 -34 36 -67 31 -111 -17 -32 -35 -40 -39 -57
-29 -12 6 -21 8 -21 5 0 -4 -12 3 -26 14 -29 23 -73 28 -91 10 -9 -9 -14 -5
-19 16 -4 17 -2 30 5 35 9 5 7 21 -8 66 -17 52 -18 61 -5 86 22 43 3 72 -42
65 -27 -5 -44 1 -84 26 -52 34 -61 47 -32 48 13 0 12 2 -5 9 -13 5 -21 15 -19
22 1 7 1 10 -1 6 -8 -14 -21 -9 -26 10 -3 12 -5 9 -6 -7z m266 -476 c3 -9 3
-19 -1 -22 -7 -7 -36 16 -36 28 0 15 30 10 37 -6z"/>
<path d="M1054 975 c-4 -8 -15 -15 -26 -15 -14 0 -18 -5 -14 -16 10 -25 -31
-72 -87 -100 -29 -15 -62 -35 -74 -47 -22 -20 -23 -20 -43 -2 -15 14 -23 15
-34 6 -12 -10 -12 -16 0 -39 19 -37 18 -66 -6 -104 -26 -43 -25 -60 5 -108 17
-26 25 -54 25 -82 0 -24 7 -55 14 -70 17 -32 14 -35 -51 -49 -109 -23 -135
-22 -217 6 -60 21 -89 25 -124 21 -26 -3 -78 -9 -117 -12 -78 -7 -115 -30
-115 -72 0 -21 2 -22 15 -12 12 10 15 9 15 -4 0 -15 2 -15 24 -1 17 12 35 14
60 9 43 -8 51 -17 36 -43 -16 -31 5 -34 38 -6 28 24 32 24 88 14 75 -14 79
-17 58 -40 -14 -15 -15 -22 -6 -31 10 -10 17 -10 32 0 18 11 20 10 20 -10 0
-17 3 -19 12 -10 20 20 28 13 16 -13 -15 -33 -6 -39 36 -25 38 12 106 4 118
-14 4 -6 8 -32 8 -58 l0 -48 185 0 c111 0 185 4 185 10 0 5 -5 42 -11 83 -10
67 -9 78 8 112 17 33 18 40 6 54 -16 19 -63 90 -63 96 0 3 15 11 34 19 51 21
68 95 45 195 -9 42 -8 46 20 75 l30 31 -27 13 c-18 8 -35 29 -50 66 -22 51
-23 56 -7 85 17 34 12 53 -24 85 -14 13 -19 26 -15 42 7 27 -13 34 -22 9z
m-194 -605 c0 -5 -2 -10 -4 -10 -3 0 -8 5 -11 10 -3 6 -1 10 4 10 6 0 11 -4
11 -10z"/>
</g>
</svg>
