<?xml version="1.0" standalone="no"?>
<!DOCTYPE svg PUBLIC "-//W3C//DTD SVG 20010904//EN"
 "http://www.w3.org/TR/2001/REC-SVG-20010904/DTD/svg10.dtd">
<svg version="1.0" xmlns="http://www.w3.org/2000/svg"
 width="480.000000pt" height="360.000000pt" viewBox="0 0 480.000000 360.000000"
 preserveAspectRatio="xMidYMid meet">
<metadata>
Created by potrace 1.16, written by Peter Selinger 2001-2019
</metadata>
<rect width="1" height="360" fill="#000000"/>
<rect x="479" width="1" height="360" fill="#000000"/>
<rect width="480" height="1" fill="#000000"/>
<rect y="359" width="480" height="1" fill="#000000"/>
<g transform="translate(0.000000,360.000000) scale(0.100000,-0.100000)"
fill="#000000" stroke="none">
<path d="M1601 3543 c14 -113 9 -247 -15 -386 -13 -76 -28 -143 -35 -150 -6
-6 -11 -19 -11 -29 0 -50 -115 -268 -197 -371 -21 -27 -47 -61 -58 -76 -11
-14 -23 -28 -27 -29 -4 -1 -30 -27 -59 -57 -103 -109 -392 -276 -511 -294 -28
-5 -53 -13 -57 -18 -11 -17 -204 -38 -341 -37 -116 1 -204 11 -272 30 -17 5
-18 -50 -18 -1060 l0 -1066 1350 0 c1318 0 1350 0 1350 19 0 36 41 223 66 303
14 45 52 138 84 207 31 69 69 160 84 201 33 90 104 358 141 532 26 118 27 129
12 160 -8 18 -22 73 -30 121 -13 80 -18 92 -48 117 -43 37 -48 37 -56 0 -6
-30 -6 -30 -30 -14 -25 16 -26 15 -67 -24 -45 -43 -75 -62 -101 -62 -9 0 -64
18 -121 41 -92 36 -111 40 -155 34 -59 -8 -75 -28 -53 -69 29 -58 14 -79 -35
-52 -14 8 -30 12 -35 10 -17 -6 -56 59 -56 92 0 75 144 153 258 140 30 -4 84
-14 119 -23 64 -16 64 -16 89 8 15 14 22 29 18 39 -3 8 -8 20 -11 26 -2 6 10
14 26 17 33 7 42 32 20 54 -20 20 -3 39 73 77 65 34 178 133 178 156 0 10 75
40 100 40 37 0 29 19 -37 86 -36 38 -75 83 -85 99 -10 17 -18 27 -18 22 0 -13
-78 32 -94 55 -21 29 -21 110 0 149 15 31 15 31 -35 89 -67 77 -79 107 -51
134 24 24 84 26 325 12 157 -9 194 -21 268 -87 46 -40 89 -124 117 -229 7 -25
28 -76 46 -115 47 -97 61 -198 45 -330 -11 -96 -10 -105 12 -176 24 -72 29
-166 12 -219 -3 -10 1 -43 9 -71 21 -70 20 -115 -5 -169 -16 -34 -23 -77 -30
-174 -7 -119 -6 -138 17 -235 13 -58 34 -146 46 -196 25 -112 88 -309 138
-435 43 -110 94 -256 110 -317 l11 -43 414 0 415 0 0 1800 0 1800 -1603 0
-1603 0 7 -57z"/>
</g>
</svg>
