<?xml version="1.0" standalone="no"?>
<!DOCTYPE svg PUBLIC "-//W3C//DTD SVG 20010904//EN"
 "http://www.w3.org/TR/2001/REC-SVG-20010904/DTD/svg10.dtd">
<svg version="1.0" xmlns="http://www.w3.org/2000/svg"
 width="480.000000pt" height="360.000000pt" viewBox="0 0 480.000000 360.000000"
 preserveAspectRatio="xMidYMid meet">
<metadata>
Created by potrace 1.16, written by Peter Selinger 2001-2019
</metadata>
<rect width="1" height="360" fill="#000000"/>
<rect x="479" width="1" height="360" fill="#000000"/>
<rect width="480" height="1" fill="#000000"/>
<rect y="359" width="480" height="1" fill="#000000"/>
<g transform="translate(0.000000,360.000000) scale(0.100000,-0.100000)"
fill="#000000" stroke="none">
<path d="M0 1800 l0 -1800 1070 0 c589 0 1070 4 1070 8 0 5 -12 20 -27 34 -19
18 -62 36 -131 57 -90 25 -110 35 -152 75 -41 38 -56 46 -88 46 -26 0 -45 7
-57 20 -10 11 -26 22 -36 25 -27 9 -24 17 27 74 45 50 46 52 29 71 -16 18 -16
20 6 49 32 39 93 86 273 210 246 169 304 228 472 481 49 74 117 171 150 215
82 108 90 123 89 175 0 45 0 45 -45 57 -25 6 -67 12 -93 12 -27 1 -47 4 -45 9
33 64 52 115 56 152 l4 45 -45 -43 c-69 -68 -75 -84 -45 -129 26 -39 27 -65 7
-115 -8 -19 -8 -41 0 -78 13 -62 14 -137 2 -144 -5 -4 -12 -24 -16 -46 -8 -47
-19 -57 -41 -35 -12 12 -15 28 -11 61 5 46 -7 69 -18 34 -9 -29 -23 -25 -17 6
2 14 0 35 -6 47 -6 12 -13 39 -16 61 -3 21 -12 43 -21 50 -9 6 -22 38 -31 71
-8 33 -19 77 -25 98 -13 51 2 79 102 197 45 52 98 116 119 142 l38 48 -5 97
c-3 54 -9 105 -14 113 -5 9 -9 10 -9 3 0 -7 -7 -10 -15 -7 -8 4 -15 2 -15 -4
0 -5 -11 -7 -25 -4 -29 5 -55 47 -55 87 0 14 -4 25 -10 25 -5 0 -3 18 7 41 13
34 15 59 8 152 -16 222 -7 255 83 345 46 46 81 72 112 82 l45 15 11 70 c17
105 24 123 55 146 16 11 29 25 29 32 0 6 10 21 22 34 22 23 21 33 -10 123 -9
27 -12 65 -6 80 4 8 8 27 9 41 1 15 9 41 18 58 l15 31 -1399 0 -1399 0 0
-1800z m360 1695 c0 -9 -9 -15 -25 -15 -24 0 -32 10 -18 23 12 13 43 7 43 -8z
m124 -140 c-7 -16 -24 -21 -24 -6 0 8 7 13 27 20 1 1 0 -6 -3 -14z m56 -250
c0 -8 -6 -15 -14 -15 -17 0 -28 14 -19 24 12 12 33 6 33 -9z m-300 -390 c0
-14 -21 -25 -51 -25 -28 0 -23 17 8 34 30 15 43 13 43 -9z m4 -291 c-24 -36
-29 -15 -8 33 15 33 18 35 21 16 2 -12 -4 -34 -13 -49z m1894 -513 c11 -7 10
-10 -3 -15 -37 -14 -111 -3 -99 15 7 11 85 12 102 0z m-972 -519 c6 -4 13 -15
17 -24 11 -29 -51 -40 -74 -12 -11 14 -10 18 6 30 21 16 35 17 51 6z m-628
-200 c-3 -37 -21 -53 -31 -28 -3 8 -3 31 0 51 5 29 8 33 20 23 8 -7 13 -25 11
-46z m218 -180 c-19 -37 -52 -66 -60 -53 -8 13 19 67 36 74 32 13 39 8 24 -21z
m454 -537 c0 -8 -82 -57 -87 -52 -7 7 51 46 85 56 1 1 2 -1 2 -4z m-930 -184
c0 -13 -60 -55 -67 -48 -7 7 43 57 57 57 5 0 10 -4 10 -9z"/>
<path d="M3017 3585 c-4 -8 -2 -17 4 -21 6 -3 8 -13 4 -21 -3 -9 3 -25 12 -36
14 -15 15 -21 5 -24 -10 -4 -10 -10 3 -29 14 -22 14 -25 0 -30 -12 -5 -14 -14
-9 -37 6 -28 5 -29 -18 -24 -22 6 -24 4 -20 -23 5 -33 -8 -39 -29 -13 -13 14
-15 13 -19 -13 -5 -23 -11 -28 -28 -27 -23 3 -48 -26 -54 -62 -1 -11 6 -37 16
-59 17 -36 17 -41 1 -100 -9 -33 -21 -75 -27 -93 -11 -30 -10 -33 45 -83 36
-33 61 -66 71 -93 16 -46 30 -179 16 -157 -13 21 -23 6 -25 -40 -1 -24 3 -44
11 -51 10 -8 11 -16 3 -31 -9 -17 -13 -18 -20 -7 -8 12 -11 12 -19 -1 -5 -8
-10 -25 -10 -37 0 -12 -4 -25 -10 -28 -5 -3 -10 -1 -10 4 0 22 -16 10 -29 -21
-8 -19 -13 -58 -12 -93 3 -56 2 -59 -13 -40 -15 19 -15 19 -16 -12 0 -21 6
-36 18 -42 23 -12 180 -191 210 -239 31 -50 25 -122 -18 -226 -33 -79 -33 -79
-21 -159 9 -60 18 -84 34 -97 18 -15 19 -20 9 -33 -11 -13 -10 -33 7 -114 11
-54 43 -224 72 -378 67 -368 100 -511 165 -731 53 -176 59 -224 33 -240 -5 -3
-9 -9 -9 -15 0 -5 281 -9 730 -9 l730 0 0 1800 0 1800 -889 0 c-772 0 -890 -2
-894 -15z m1343 -1629 c0 -13 -9 -34 -20 -47 l-19 -24 -1 28 c0 32 16 67 30
67 6 0 10 -11 10 -24z m287 -462 c-3 -3 -12 -4 -19 -1 -8 3 -5 6 6 6 11 1 17
-2 13 -5z"/>
</g>
</svg>
