<?xml version="1.0" standalone="no"?>
<!DOCTYPE svg PUBLIC "-//W3C//DTD SVG 20010904//EN"
 "http://www.w3.org/TR/2001/REC-SVG-20010904/DTD/svg10.dtd">
<svg version="1.0" xmlns="http://www.w3.org/2000/svg"
 width="480.000000pt" height="360.000000pt" viewBox="0 0 480.000000 360.000000"
 preserveAspectRatio="xMidYMid meet">
<metadata>
Created by potrace 1.16, written by Peter Selinger 2001-2019
</metadata>
<rect width="1" height="360" fill="#000000"/>
<rect x="479" width="1" height="360" fill="#000000"/>
<rect width="480" height="1" fill="#000000"/>
<rect y="359" width="480" height="1" fill="#000000"/>
<g transform="translate(0.000000,360.000000) scale(0.100000,-0.100000)"
fill="#000000" stroke="none">
<path d="M3020 3594 c0 -3 7 -31 16 -62 24 -81 16 -267 -15 -342 -51 -123 -67
-156 -98 -193 -18 -21 -33 -45 -33 -52 0 -7 27 -37 59 -67 69 -64 110 -78 230
-78 64 0 95 6 146 26 61 24 68 25 117 13 91 -21 157 -16 231 19 37 17 67 33
67 36 0 3 -20 32 -44 63 -69 90 -119 224 -140 374 -6 41 5 173 20 242 l6 27
-281 0 c-154 0 -281 -3 -281 -6z"/>
</g>
</svg>
