<?xml version="1.0" standalone="no"?>
<!DOCTYPE svg PUBLIC "-//W3C//DTD SVG 20010904//EN"
 "http://www.w3.org/TR/2001/REC-SVG-20010904/DTD/svg10.dtd">
<svg version="1.0" xmlns="http://www.w3.org/2000/svg"
 width="480.000000pt" height="360.000000pt" viewBox="0 0 480.000000 360.000000"
 preserveAspectRatio="xMidYMid meet">
<metadata>
Created by potrace 1.16, written by Peter Selinger 2001-2019
</metadata>
<rect width="1" height="360" fill="#000000"/>
<rect x="479" width="1" height="360" fill="#000000"/>
<rect width="480" height="1" fill="#000000"/>
<rect y="359" width="480" height="1" fill="#000000"/>
<g transform="translate(0.000000,360.000000) scale(0.100000,-0.100000)"
fill="#000000" stroke="none">
<path d="M0 3382 l0 -219 83 -17 c179 -38 167 -38 214 5 50 46 94 52 138 18
28 -22 29 -35 9 -99 -7 -24 -6 -24 12 -9 10 9 33 24 51 33 60 30 281 15 254
-18 -7 -8 -4 -15 9 -24 21 -13 45 -85 36 -108 -4 -10 2 -14 19 -14 17 0 25 -6
25 -18 0 -10 6 -26 13 -37 7 -11 19 -39 27 -63 12 -39 12 -44 -8 -65 -12 -13
-22 -33 -22 -46 0 -29 57 -82 138 -127 43 -24 71 -48 88 -77 30 -48 47 -64
121 -113 108 -71 122 -101 93 -195 -26 -85 -25 -165 1 -337 35 -227 220 -840
243 -803 4 6 9 55 11 108 2 54 9 136 15 183 6 47 16 166 21 265 9 185 11 209
21 235 3 8 16 49 28 90 12 41 30 100 40 130 10 30 21 67 24 82 3 15 24 48 47
74 37 43 40 51 35 88 -5 33 3 67 38 168 54 154 60 199 51 345 l-7 114 -40 46
c-40 47 -161 282 -156 305 2 7 -7 17 -19 23 -17 7 -23 18 -23 45 -1 58 -12
152 -24 200 l-11 45 -797 3 -798 2 0 -218z"/>
<path d="M0 2358 l0 -763 20 44 c11 24 23 62 26 85 23 156 54 231 185 443 104
167 122 212 123 303 1 52 -6 95 -21 140 -14 40 -24 101 -27 160 -3 52 -5 96
-6 98 0 1 -10 -4 -22 -12 -41 -25 -72 -27 -106 -6 -18 11 -35 27 -39 36 -3 9
9 47 28 85 33 69 33 70 14 88 -17 16 -139 61 -166 61 -5 0 -9 -321 -9 -762z"/>
<path d="M887 1946 c-4 -40 -9 -100 -13 -132 -5 -41 -3 -56 4 -49 21 20 62
114 62 141 0 26 -33 114 -43 114 -2 0 -7 -33 -10 -74z"/>
<path d="M695 1770 c3 -63 9 -123 11 -132 3 -10 1 -18 -5 -18 -10 0 -35 71
-47 137 -8 41 -15 35 -39 -34 -17 -47 -17 -62 -7 -142 7 -50 15 -98 19 -108 6
-16 5 -16 -10 -4 -9 7 -17 20 -17 28 0 33 -19 -1 -26 -45 -3 -26 -11 -55 -16
-65 -8 -16 -12 -17 -26 -4 -35 30 -60 27 -92 -11 -16 -19 -32 -49 -36 -64 -3
-16 -19 -43 -36 -60 -35 -36 -41 -31 -58 45 -18 85 -14 113 26 156 l35 40 -7
70 c-4 43 -11 72 -20 75 -8 3 -11 0 -7 -10 3 -8 -1 -14 -10 -14 -8 0 -38 -36
-67 -80 -29 -44 -56 -80 -60 -80 -17 0 -19 15 -4 39 8 14 -5 4 -30 -24 -31
-34 -45 -44 -46 -33 0 15 -4 16 -26 8 -14 -6 -30 -8 -35 -4 -5 3 -9 0 -9 -6 0
-8 -9 -10 -25 -6 l-25 6 0 -715 0 -715 368 2 367 3 11 80 c25 178 25 165 -4
178 -15 6 -65 11 -112 12 -82 0 -84 1 -97 28 -43 91 -30 82 -120 80 -45 -1
-91 -6 -102 -13 -33 -17 -46 27 -31 109 8 49 8 66 -1 71 -9 6 -8 13 4 30 8 12
13 29 10 38 -4 10 -2 13 5 8 8 -5 12 1 12 15 0 24 45 124 60 134 5 3 7 11 4
18 -2 8 11 33 31 58 19 24 35 54 35 67 0 13 4 20 10 17 6 -3 10 0 10 7 0 7 32
69 71 138 74 128 172 328 203 413 17 44 17 50 2 88 -9 22 -14 45 -10 50 6 10
-24 240 -33 249 -3 3 -2 -47 2 -110z"/>
<path d="M452 1634 c-1 -12 -5 -37 -8 -55 -5 -26 -4 -31 5 -23 7 7 11 29 8 55
-2 24 -4 34 -5 23z"/>
<path d="M1634 643 c-4 -20 -4 -84 -1 -142 4 -58 3 -112 -2 -119 -4 -8 -31
-19 -58 -25 -42 -10 -57 -20 -85 -57 l-35 -45 -119 3 c-65 2 -129 0 -141 -3
-25 -6 -29 -23 -37 -162 l-6 -93 431 0 430 0 -6 58 c-4 38 -1 73 9 106 10 32
12 55 6 66 -13 24 -78 80 -93 80 -7 0 -21 14 -31 31 -10 17 -30 36 -44 42 -55
25 -143 119 -156 167 -19 72 -30 100 -39 100 -5 0 -7 7 -3 15 3 8 1 15 -4 15
-5 0 -12 -17 -16 -37z"/>
<path d="M948 203 c-11 -3 -22 -21 -28 -46 -6 -23 -18 -65 -26 -94 -7 -28 -14
-54 -14 -57 0 -3 34 -6 76 -6 l77 0 -7 77 c-13 139 -15 143 -78 126z"/>
</g>
</svg>
