<?xml version="1.0" standalone="no"?>
<!DOCTYPE svg PUBLIC "-//W3C//DTD SVG 20010904//EN"
 "http://www.w3.org/TR/2001/REC-SVG-20010904/DTD/svg10.dtd">
<svg version="1.0" xmlns="http://www.w3.org/2000/svg"
 width="480.000000pt" height="360.000000pt" viewBox="0 0 480.000000 360.000000"
 preserveAspectRatio="xMidYMid meet">
<metadata>
Created by potrace 1.16, written by Peter Selinger 2001-2019
</metadata>
<rect width="1" height="360" fill="#000000"/>
<rect x="479" width="1" height="360" fill="#000000"/>
<rect width="480" height="1" fill="#000000"/>
<rect y="359" width="480" height="1" fill="#000000"/>
<g transform="translate(0.000000,360.000000) scale(0.100000,-0.100000)"
fill="#000000" stroke="none">
<path d="M0 3525 c0 -41 1 -75 3 -75 1 0 54 34 116 75 l114 75 -117 0 -116 0
0 -75z"/>
<path d="M1660 3595 c0 -2 32 -23 70 -45 137 -80 319 -244 423 -383 281 -371
376 -902 240 -1347 -67 -221 -89 -375 -79 -563 15 -298 101 -554 274 -816 72
-108 258 -297 375 -379 l87 -62 790 0 790 0 85 57 85 56 0 1744 0 1743 -1570
0 c-863 0 -1570 -2 -1570 -5z m2362 -1203 c74 -36 134 -96 170 -170 30 -61 33
-74 33 -162 0 -83 -4 -102 -27 -150 -38 -76 -99 -137 -177 -174 -58 -27 -77
-31 -151 -31 -71 0 -95 5 -142 27 -297 138 -284 546 21 669 66 27 208 22 273
-9z"/>
<path d="M860 1987 c-120 -27 -226 -115 -283 -235 -30 -63 -32 -74 -32 -177 0
-104 2 -114 32 -175 44 -89 115 -160 199 -201 95 -45 212 -52 308 -18 119 41
209 132 257 258 30 81 24 222 -13 303 -70 151 -190 238 -348 252 -37 3 -88 0
-120 -7z"/>
</g>
</svg>
