<?xml version="1.0" standalone="no"?>
<!DOCTYPE svg PUBLIC "-//W3C//DTD SVG 20010904//EN"
 "http://www.w3.org/TR/2001/REC-SVG-20010904/DTD/svg10.dtd">
<svg version="1.0" xmlns="http://www.w3.org/2000/svg"
 width="480.000000pt" height="360.000000pt" viewBox="0 0 480.000000 360.000000"
 preserveAspectRatio="xMidYMid meet">
<metadata>
Created by potrace 1.16, written by Peter Selinger 2001-2019
</metadata>
<rect width="1" height="360" fill="#000000"/>
<rect x="479" width="1" height="360" fill="#000000"/>
<rect width="480" height="1" fill="#000000"/>
<rect y="359" width="480" height="1" fill="#000000"/>
<g transform="translate(0.000000,360.000000) scale(0.100000,-0.100000)"
fill="#000000" stroke="none">
<path d="M2005 3460 c-11 -43 -34 -70 -60 -70 -29 0 -31 -11 -8 -46 15 -24 15
-29 -1 -80 -15 -47 -27 -63 -94 -120 -42 -36 -91 -72 -108 -79 -17 -7 -38 -23
-47 -35 -15 -21 -21 -22 -91 -16 -83 7 -86 5 -100 -60 -6 -27 -1 -38 32 -77
46 -52 77 -126 69 -159 -3 -13 -13 -50 -21 -83 -29 -113 -29 -113 91 -243 18
-19 38 -53 44 -76 29 -116 41 -147 57 -153 9 -4 22 -14 29 -22 10 -14 12 -14
18 2 9 23 18 22 55 -9 l31 -27 -22 -20 c-55 -51 -114 -88 -171 -108 -79 -26
-90 -35 -87 -73 2 -17 0 -37 -5 -44 -4 -6 1 -25 10 -41 17 -29 17 -29 -19 -79
-21 -27 -37 -54 -37 -60 0 -5 -14 -39 -30 -74 -20 -42 -34 -93 -41 -149 -5
-46 -16 -93 -23 -104 -7 -11 -17 -35 -20 -52 -7 -32 -22 -45 -171 -154 -33
-24 -96 -62 -140 -84 -53 -27 -87 -52 -100 -73 -11 -17 -26 -31 -34 -32 -8 0
-25 -10 -37 -21 -20 -19 -35 -22 -126 -22 -57 0 -129 0 -160 2 -41 1 -72 -5
-108 -20 -42 -18 -61 -20 -113 -15 -114 13 -157 26 -157 46 0 35 -23 69 -53
80 -16 5 -81 10 -143 10 l-114 0 0 -308 0 -308 87 -29 c216 -69 431 -139 733
-235 124 -39 272 -87 330 -106 l104 -34 901 0 901 0 88 30 c136 46 195 92 238
185 20 44 23 70 26 210 3 132 1 163 -11 173 -20 17 -142 31 -272 32 -81 0
-169 -9 -337 -36 -220 -36 -228 -37 -318 -24 l-91 13 -35 68 c-18 37 -61 97
-94 132 -33 36 -60 67 -60 70 0 3 39 25 87 49 108 53 137 82 154 150 16 64 16
211 0 334 -12 89 -12 91 14 140 23 43 26 56 20 104 -4 30 -8 96 -10 145 -2 50
-5 101 -6 115 -1 14 1 39 5 55 12 53 -2 60 -113 60 -92 -1 -100 1 -105 19 -3
12 -1 25 4 30 7 7 10 1 10 -14 l1 -25 14 25 c9 15 15 19 15 10 0 -11 6 -8 20
9 l20 23 0 -27 0 -28 29 30 c34 36 61 48 61 28 0 -28 18 -15 50 36 48 79 70
143 70 208 0 75 -41 238 -80 318 l-31 62 21 41 c11 23 37 59 57 80 23 26 30
40 20 40 -8 0 -17 9 -20 20 -4 15 -14 20 -41 20 -34 0 -36 2 -42 40 -6 39 -7
39 -23 18 -15 -17 -21 -19 -39 -9 -12 6 -22 16 -22 22 0 5 -54 64 -120 131
-110 110 -138 148 -110 148 6 0 21 -11 33 -25 52 -59 80 -85 92 -85 7 0 20 21
28 48 30 93 30 98 -3 125 -16 14 -43 28 -59 32 -16 3 -35 13 -42 21 -6 8 -19
14 -28 14 -25 0 -41 20 -41 51 0 31 -14 44 -47 44 -15 1 -24 -7 -28 -25z
m-456 -2483 c-3 -52 14 -88 32 -69 19 18 26 15 31 -12 5 -26 -11 -36 -64 -36
-21 0 -28 -5 -28 -19 0 -27 -18 -31 -138 -31 l-106 0 30 31 c39 42 223 177
242 179 2 0 2 -19 1 -43z"/>
<path d="M4354 3085 c-66 -21 -100 -42 -153 -96 -78 -79 -100 -171 -61 -257
35 -76 136 -102 242 -62 28 11 54 17 56 15 3 -3 -2 -22 -11 -42 -9 -21 -19
-60 -22 -88 -8 -61 -22 -88 -41 -81 -11 4 -14 -4 -14 -33 0 -33 -4 -39 -32
-52 -29 -12 -36 -24 -59 -96 -15 -45 -54 -138 -88 -206 -34 -68 -61 -134 -61
-146 0 -58 65 -125 132 -136 24 -4 59 -15 78 -25 19 -10 56 -27 83 -39 46 -20
57 -34 37 -46 -37 -23 -61 -126 -90 -380 l-11 -100 25 -22 c14 -12 34 -26 43
-32 16 -8 16 -13 5 -31 -7 -12 -10 -30 -7 -40 4 -11 -4 -35 -19 -59 -35 -54
-68 -146 -96 -261 -12 -52 -46 -185 -75 -295 -71 -268 -91 -376 -86 -452 l1
-23 335 0 335 0 0 1440 0 1439 -62 3 c-72 3 -101 -5 -140 -41 -35 -31 -43 -24
-22 18 20 40 14 118 -14 164 -23 41 -87 77 -132 76 -19 -1 -53 -7 -76 -14z
m174 -914 l2 -98 -52 -7 c-28 -4 -55 -3 -60 2 -5 5 3 30 18 58 26 49 84 144
88 144 2 0 3 -44 4 -99z"/>
</g>
</svg>
