<?xml version="1.0" standalone="no"?>
<!DOCTYPE svg PUBLIC "-//W3C//DTD SVG 20010904//EN"
 "http://www.w3.org/TR/2001/REC-SVG-20010904/DTD/svg10.dtd">
<svg version="1.0" xmlns="http://www.w3.org/2000/svg"
 width="480.000000pt" height="360.000000pt" viewBox="0 0 480.000000 360.000000"
 preserveAspectRatio="xMidYMid meet">
<metadata>
Created by potrace 1.16, written by Peter Selinger 2001-2019
</metadata>
<rect width="1" height="360" fill="#000000"/>
<rect x="479" width="1" height="360" fill="#000000"/>
<rect width="480" height="1" fill="#000000"/>
<rect y="359" width="480" height="1" fill="#000000"/>
<g transform="translate(0.000000,360.000000) scale(0.100000,-0.100000)"
fill="#000000" stroke="none">
<path d="M0 2180 l0 -1420 125 0 124 0 5 33 c3 17 8 87 11 154 6 107 5 122
-10 130 -15 9 -13 17 19 80 34 68 37 71 78 78 24 3 58 13 77 22 l34 15 -6 85
-5 85 49 20 c41 17 49 25 49 47 0 15 -5 32 -11 38 -9 9 -6 20 11 42 21 31 40
33 40 5 0 -8 5 -14 10 -14 6 0 10 -7 10 -15 0 -8 -4 -15 -10 -15 -14 0 -12
-63 3 -83 6 -10 26 -21 42 -25 l30 -9 -4 -85 -3 -86 29 -15 c16 -9 45 -18 65
-22 44 -8 48 -13 78 -88 19 -48 21 -62 11 -83 -6 -15 -11 -79 -11 -155 l0
-130 63 3 62 3 -3 90 c-3 85 -2 93 29 150 43 81 89 146 98 141 4 -3 31 -46 59
-96 50 -87 52 -94 52 -165 0 -87 -10 -81 150 -89 63 -3 205 -11 315 -17 l200
-11 76 -69 c42 -38 80 -69 84 -69 5 0 5 90 2 201 l-7 200 42 62 c73 110 64
109 123 19 l52 -80 -5 -521 -5 -521 1287 0 1286 0 0 1800 0 1800 -2400 0
-2400 0 0 -1420z m3091 491 c18 -14 24 -32 29 -83 4 -35 13 -77 21 -93 13 -27
22 -31 100 -46 93 -17 109 -24 109 -43 0 -14 -60 -74 -61 -60 0 5 -5 -2 -10
-15 -8 -20 -5 -29 17 -53 31 -31 27 -46 -6 -28 -13 7 -25 8 -29 3 -30 -45 -43
-55 -63 -55 -22 0 -24 -5 -27 -66 -1 -36 -7 -75 -13 -86 -10 -18 -8 -17 20 3
32 22 119 64 161 76 23 7 24 6 19 -33 -6 -38 -10 -50 -51 -122 -10 -17 -17
-33 -15 -35 2 -2 72 -5 156 -6 143 -2 179 -9 131 -24 -30 -10 -18 -28 29 -45
39 -13 56 -30 32 -30 -5 0 -10 -4 -10 -8 0 -5 25 -15 55 -22 60 -14 73 -30 25
-30 -34 0 -40 -15 -10 -25 11 -4 33 -18 48 -32 l27 -26 -47 6 c-58 8 -63 -5
-18 -48 34 -32 33 -43 -2 -24 -22 12 -23 11 -5 -8 21 -24 22 -33 2 -33 -34 0
4 -51 55 -74 30 -14 32 -16 8 -13 -19 3 -25 0 -21 -10 7 -17 -1 -17 -38 3 -17
8 -37 14 -45 12 -25 -5 12 -48 42 -48 13 0 24 -5 24 -11 0 -11 -21 -9 -79 7
-20 6 -23 4 -18 -9 8 -22 -1 -22 -25 0 -10 9 -21 13 -26 8 -4 -4 -1 -10 6 -12
20 -7 67 -53 54 -53 -6 0 -24 8 -41 17 -31 18 -51 13 -34 -9 30 -39 20 -48
-17 -14 -22 20 -46 36 -54 36 -15 0 -28 -48 -15 -56 5 -3 2 -12 -6 -20 -8 -9
-15 -22 -15 -30 0 -8 -5 -14 -10 -14 -6 0 -8 12 -4 28 4 21 3 24 -5 12 -9 -12
-11 -10 -11 12 0 21 -7 29 -34 38 -19 6 -40 18 -46 26 -22 25 -40 16 -40 -20
0 -25 -7 -40 -26 -55 -53 -42 -82 -19 -100 78 -14 73 -42 117 -86 134 -22 8
-29 -6 -57 -102 -22 -81 -38 -105 -63 -96 -21 8 -48 65 -48 102 0 23 -7 32
-37 48 -21 11 -56 34 -79 52 -48 39 -54 40 -54 12 0 -14 -5 -19 -17 -17 -18 4
-19 10 -8 39 4 10 -3 19 -20 27 -22 10 -26 18 -23 45 l3 32 58 -1 c31 -1 57 3
57 8 0 4 25 33 55 63 31 31 55 64 55 76 0 11 5 29 10 39 16 30 -6 105 -34 118
-17 8 -25 22 -30 54 -3 23 -9 60 -12 80 -5 28 -1 44 15 66 18 26 19 36 11 85
-5 30 -15 65 -22 77 -12 19 -19 21 -67 15 -30 -4 -60 -9 -67 -12 -7 -2 -15 5
-19 16 -3 12 -12 21 -18 21 -12 0 32 39 44 40 4 0 24 7 45 16 l38 16 -27 14
c-37 20 -34 26 7 19 45 -9 89 23 110 79 9 24 31 59 50 79 28 31 40 37 74 37
24 0 49 -7 63 -19z"/>
<path d="M3528 1903 c7 -3 16 -2 19 1 4 3 -2 6 -13 5 -11 0 -14 -3 -6 -6z"/>
<path d="M2864 1696 c-10 -8 -15 -18 -11 -22 4 -4 15 0 24 9 22 21 12 31 -13
13z"/>
</g>
</svg>
