<?xml version="1.0" standalone="no"?>
<!DOCTYPE svg PUBLIC "-//W3C//DTD SVG 20010904//EN"
 "http://www.w3.org/TR/2001/REC-SVG-20010904/DTD/svg10.dtd">
<svg version="1.0" xmlns="http://www.w3.org/2000/svg"
 width="480.000000pt" height="360.000000pt" viewBox="0 0 480.000000 360.000000"
 preserveAspectRatio="xMidYMid meet">
<metadata>
Created by potrace 1.16, written by Peter Selinger 2001-2019
</metadata>
<rect width="1" height="360" fill="#000000"/>
<rect x="479" width="1" height="360" fill="#000000"/>
<rect width="480" height="1" fill="#000000"/>
<rect y="359" width="480" height="1" fill="#000000"/>
<g transform="translate(0.000000,360.000000) scale(0.100000,-0.100000)"
fill="#000000" stroke="none">
<path d="M1244 2757 c-25 -22 -28 -31 -26 -73 4 -92 41 -144 297 -424 66 -72
144 -159 173 -193 47 -55 209 -265 224 -292 4 -6 -47 -10 -145 -10 -137 0
-156 -2 -192 -22 -88 -47 -130 -121 -120 -208 7 -52 7 -52 -24 -63 -40 -14
-128 -97 -152 -143 -55 -109 -82 -449 -41 -528 30 -59 61 -75 155 -77 134 -2
133 -1 215 -122 75 -109 409 -553 440 -585 17 -16 70 -17 901 -15 l883 3 -89
65 c-197 144 -821 588 -865 615 l-48 30 0 100 c-1 261 -32 377 -189 690 -85
172 -114 219 -156 261 -43 43 -61 54 -108 63 -48 11 -62 19 -104 65 -26 29
-100 100 -163 156 -191 171 -365 336 -534 506 -208 208 -275 249 -332 201z"/>
</g>
</svg>
