<?xml version="1.0" standalone="no"?>
<!DOCTYPE svg PUBLIC "-//W3C//DTD SVG 20010904//EN"
 "http://www.w3.org/TR/2001/REC-SVG-20010904/DTD/svg10.dtd">
<svg version="1.0" xmlns="http://www.w3.org/2000/svg"
 width="480.000000pt" height="360.000000pt" viewBox="0 0 480.000000 360.000000"
 preserveAspectRatio="xMidYMid meet">
<metadata>
Created by potrace 1.16, written by Peter Selinger 2001-2019
</metadata>
<rect width="1" height="360" fill="#000000"/>
<rect x="479" width="1" height="360" fill="#000000"/>
<rect width="480" height="1" fill="#000000"/>
<rect y="359" width="480" height="1" fill="#000000"/>
<g transform="translate(0.000000,360.000000) scale(0.100000,-0.100000)"
fill="#000000" stroke="none">
<path d="M0 1800 l0 -1800 1593 0 1592 0 -85 51 c-47 29 -115 67 -152 85 -67
34 -108 73 -108 103 0 9 9 31 20 49 26 43 53 41 121 -6 47 -34 204 -125 421
-245 l66 -37 482 0 482 0 -7 43 c-5 27 -16 49 -32 62 l-25 20 13 100 12 100
-43 160 c-24 88 -43 170 -43 182 1 11 15 42 32 67 30 43 32 51 29 122 l-3 76
-78 23 c-209 60 -286 219 -172 355 33 39 33 42 21 78 -12 35 -17 38 -90 59
-43 13 -112 40 -154 61 -129 66 -212 99 -337 136 -184 53 -241 83 -307 155
-31 34 -59 58 -62 52 -3 -5 -9 -31 -12 -58 -8 -61 -20 -83 -44 -83 -27 0 -50
38 -50 81 l0 36 -92 6 c-170 9 -1378 8 -1718 -3 -510 -16 -1005 -46 -1159 -71
-35 -5 -65 -8 -67 -6 -7 6 76 87 106 102 40 21 195 61 283 74 78 12 413 36
622 46 72 3 168 9 215 12 47 3 472 7 945 8 l860 3 7 47 c9 65 14 75 37 75 29
0 51 -27 51 -64 0 -32 1 -33 40 -33 22 0 43 4 46 8 3 5 16 6 30 3 14 -4 31 -1
39 6 9 7 27 10 44 7 19 -4 33 -1 41 8 7 8 23 15 37 15 23 0 42 -15 93 -77 24
-28 31 -30 115 -37 50 -3 124 -9 165 -12 l75 -6 17 39 c50 113 242 264 417
327 38 14 98 39 132 56 75 38 170 60 267 60 l72 0 0 590 0 590 -2400 0 -2400
0 0 -1800z m4005 1159 c0 -8 -10 -15 -22 -17 -25 -4 -33 22 -10 31 18 8 32 2
32 -14z"/>
<path d="M3610 1842 c0 -12 238 -109 245 -100 7 10 14 88 8 91 -17 10 -253 18
-253 9z"/>
</g>
</svg>
