<?xml version="1.0" standalone="no"?>
<!DOCTYPE svg PUBLIC "-//W3C//DTD SVG 20010904//EN"
 "http://www.w3.org/TR/2001/REC-SVG-20010904/DTD/svg10.dtd">
<svg version="1.0" xmlns="http://www.w3.org/2000/svg"
 width="480.000000pt" height="360.000000pt" viewBox="0 0 480.000000 360.000000"
 preserveAspectRatio="xMidYMid meet">
<metadata>
Created by potrace 1.16, written by Peter Selinger 2001-2019
</metadata>
<rect width="1" height="360" fill="#000000"/>
<rect x="479" width="1" height="360" fill="#000000"/>
<rect width="480" height="1" fill="#000000"/>
<rect y="359" width="480" height="1" fill="#000000"/>
<g transform="translate(0.000000,360.000000) scale(0.100000,-0.100000)"
fill="#000000" stroke="none">
<path d="M4041 3305 c-106 -67 -148 -99 -266 -200 -38 -34 -92 -76 -120 -95
-27 -18 -78 -59 -112 -89 -33 -31 -125 -94 -203 -141 -78 -47 -172 -108 -210
-137 -81 -62 -93 -65 -78 -23 21 60 -17 120 -75 120 -39 0 -51 -8 -36 -26 7
-9 6 -22 -6 -44 -14 -27 -21 -31 -43 -26 -15 3 -61 11 -103 18 -70 11 -84 10
-150 -9 -147 -42 -249 -84 -169 -70 32 6 33 6 15 -8 -72 -51 -105 -78 -101
-83 3 -3 12 1 21 8 27 23 28 2 1 -33 -29 -38 -49 -121 -39 -168 5 -25 8 -28
15 -15 16 28 29 17 26 -21 -3 -40 -19 -50 -62 -39 -20 5 -24 14 -30 65 -10 85
-55 168 -127 235 -75 70 -138 91 -244 83 -90 -7 -113 10 -149 105 -79 212
-289 348 -518 336 -206 -12 -399 -202 -464 -457 -25 -99 -16 -248 18 -324 53
-114 184 -224 318 -267 59 -19 85 -22 158 -18 50 3 114 15 151 27 54 19 69 20
92 10 16 -6 29 -15 29 -20 0 -12 -27 -11 -35 1 -3 6 -17 10 -31 10 -18 0 -50
-23 -107 -78 -45 -43 -94 -86 -109 -96 -29 -19 -36 -44 -17 -63 8 -8 -2 -28
-35 -73 -37 -50 -44 -65 -36 -81 16 -29 37 -23 66 21 30 45 33 46 74 25 47
-24 49 -78 3 -104 -16 -9 -16 -11 -2 -28 9 -10 19 -26 22 -35 4 -10 15 -18 25
-18 17 0 20 -14 32 -142 7 -79 18 -165 25 -193 8 -27 17 -78 21 -113 5 -44 12
-65 24 -72 11 -6 19 -26 23 -57 4 -42 2 -50 -20 -71 -24 -22 -25 -27 -21 -109
4 -79 7 -88 31 -107 22 -18 27 -30 27 -68 0 -35 -5 -50 -19 -60 -11 -8 -22
-29 -26 -48 -9 -52 11 -162 34 -180 11 -9 21 -34 25 -62 5 -42 2 -51 -19 -72
-20 -20 -25 -35 -25 -76 0 -43 3 -50 20 -50 17 0 20 7 20 46 0 40 2 45 15 34
13 -10 19 -10 34 4 17 15 19 16 25 1 3 -9 6 -32 6 -51 0 -28 4 -34 20 -34 19
0 20 4 14 53 -8 61 -19 87 -38 87 -14 0 -26 42 -26 89 0 15 8 31 20 39 18 11
20 23 20 106 0 73 -4 98 -16 110 -8 9 -19 16 -24 16 -4 0 -11 20 -15 45 -5 40
-3 49 20 77 26 31 27 37 23 116 -4 73 -8 87 -27 101 -15 11 -24 32 -28 60 -5
37 -2 45 24 71 20 20 44 31 74 35 67 9 135 25 229 51 46 13 87 24 91 24 4 0
-4 -32 -18 -72 -23 -66 -25 -82 -20 -202 2 -72 12 -238 22 -369 17 -220 17
-239 1 -255 -9 -10 -16 -28 -16 -40 0 -11 -11 -33 -23 -49 -13 -15 -31 -43
-40 -60 l-15 -33 704 0 705 0 32 37 c74 84 206 258 232 304 31 58 35 119 11
200 -27 89 -64 139 -239 316 l-169 172 41 208 c46 228 74 340 127 510 34 108
54 147 54 104 0 -12 5 -21 10 -21 6 0 16 -11 22 -25 6 -14 17 -25 25 -25 17 0
58 37 58 53 1 7 6 11 13 10 7 -2 12 1 12 7 0 5 10 19 22 30 38 35 148 240 148
275 0 9 7 30 16 47 25 47 25 185 1 222 -22 32 -70 55 -137 63 -58 7 -104 -8
-171 -53 -49 -33 -102 -44 -114 -25 -3 5 36 47 87 93 51 46 127 116 169 156
l76 72 50 -10 c57 -12 87 -4 156 43 21 14 60 33 87 42 66 22 76 35 49 69 -22
28 -88 66 -114 66 -28 0 -6 19 35 31 22 7 48 21 57 31 17 19 17 20 -1 33 -10
8 -16 20 -13 27 7 17 134 166 203 240 30 31 54 59 54 62 0 19 -49 -2 -139 -59z
m-1711 -1157 c0 -7 -5 -20 -10 -28 -8 -12 -10 -9 -10 13 0 15 5 27 10 27 6 0
10 -6 10 -12z m-47 -228 c-5 -36 -3 -40 34 -63 l40 -25 -66 -196 c-52 -158
-69 -197 -85 -202 -12 -4 -28 -13 -37 -21 -9 -7 -84 -31 -166 -53 -82 -21
-180 -50 -218 -65 -37 -14 -69 -24 -70 -23 -1 2 -11 59 -22 128 -22 134 -22
132 26 159 10 6 8 14 -12 33 -47 47 -57 122 -30 223 l17 63 37 -24 c55 -34
119 -47 212 -42 104 6 172 36 246 112 47 48 56 53 76 44 19 -9 22 -16 18 -48z
m-750 -906 c-7 -19 -23 -7 -23 18 0 17 3 18 14 8 8 -6 12 -18 9 -26z m47 -15
c0 -6 -4 -7 -10 -4 -5 3 -10 11 -10 16 0 6 5 7 10 4 6 -3 10 -11 10 -16z m-10
-209 c14 22 23 5 28 -55 6 -73 -1 -90 -29 -73 -17 10 -23 10 -26 1 -12 -34
-23 -5 -23 62 0 73 1 75 20 63 17 -11 22 -10 30 2z m1194 -309 c13 -99 13
-114 -4 -185 -32 -138 -48 -127 -61 42 -10 117 -3 199 23 287 l11 40 9 -38 c4
-21 14 -86 22 -146z m412 77 c41 -28 74 -56 74 -62 0 -6 -31 -52 -68 -103 -37
-50 -83 -114 -102 -142 -19 -28 -38 -51 -41 -51 -12 0 2 173 22 270 27 132 29
140 35 140 3 0 39 -23 80 -52z m-1623 -120 c3 -10 9 -10 25 -1 11 6 23 9 26 6
3 -4 6 -37 6 -75 0 -66 -1 -68 -20 -56 -17 11 -22 10 -30 -2 -17 -26 -30 8
-30 78 0 56 11 81 23 50z m1221 -272 c-4 -26 -10 -43 -15 -39 -11 12 -13 45
-4 76 12 44 26 17 19 -37z m-814 -114 c0 -5 -6 -17 -14 -28 -19 -25 -31 -12
-14 15 13 21 28 28 28 13z"/>
</g>
</svg>
