<?xml version="1.0" standalone="no"?>
<!DOCTYPE svg PUBLIC "-//W3C//DTD SVG 20010904//EN"
 "http://www.w3.org/TR/2001/REC-SVG-20010904/DTD/svg10.dtd">
<svg version="1.0" xmlns="http://www.w3.org/2000/svg"
 width="480.000000pt" height="360.000000pt" viewBox="0 0 480.000000 360.000000"
 preserveAspectRatio="xMidYMid meet">
<metadata>
Created by potrace 1.16, written by Peter Selinger 2001-2019
</metadata>
<rect width="1" height="360" fill="#000000"/>
<rect x="479" width="1" height="360" fill="#000000"/>
<rect width="480" height="1" fill="#000000"/>
<rect y="359" width="480" height="1" fill="#000000"/>
<g transform="translate(0.000000,360.000000) scale(0.100000,-0.100000)"
fill="#000000" stroke="none">
<path d="M3910 1216 c0 -2 7 -16 15 -32 10 -20 11 -32 4 -41 -6 -6 -8 -17 -4
-23 4 -6 2 -16 -3 -23 -19 -23 -72 -129 -72 -144 0 -8 -6 -13 -12 -10 -18 6
-48 -11 -48 -26 0 -7 13 -23 29 -34 24 -19 29 -30 35 -88 4 -37 16 -90 26
-118 27 -70 27 -91 0 -77 -15 8 -21 8 -25 -2 -7 -20 2 -187 14 -248 13 -66 50
-107 82 -90 31 17 42 2 35 -50 -5 -36 -3 -50 9 -60 22 -18 18 -43 -11 -71 -14
-13 -35 -36 -46 -51 l-19 -28 200 0 201 0 -12 26 c-9 19 -9 30 -1 43 6 10 15
78 19 150 6 116 5 136 -11 172 -23 49 -15 66 37 84 30 10 53 10 130 -3 78 -12
104 -12 158 -2 35 7 86 12 112 11 l48 -1 0 80 0 79 -37 -1 c-21 0 -45 -5 -55
-9 -9 -5 -35 -3 -65 6 -29 9 -93 15 -163 16 -63 0 -122 3 -131 7 -13 6 -6 30
47 157 34 83 67 158 73 167 15 24 14 48 -2 48 -9 0 -43 -70 -86 -173 -40 -95
-76 -178 -80 -185 -5 -8 -22 -10 -54 -6 -47 7 -47 7 -47 45 0 22 4 39 8 39 15
0 35 77 28 106 -4 15 -16 40 -27 55 -23 32 -24 57 -4 83 21 28 19 56 -4 56
-11 0 -22 -4 -25 -9 -10 -15 -67 4 -141 45 -58 33 -70 45 -76 72 -7 33 -25 62
-40 62 -5 0 -9 -2 -9 -4z m27 -622 c-3 -3 -12 -4 -19 -1 -8 3 -5 6 6 6 11 1
17 -2 13 -5z"/>
<path d="M2530 1155 c0 -9 -6 -12 -15 -9 -11 5 -13 2 -9 -10 3 -9 1 -23 -5
-30 -8 -9 -8 -16 -2 -20 6 -4 -12 -29 -39 -57 -28 -31 -53 -48 -60 -44 -16 10
-57 -2 -63 -19 -3 -7 5 -29 18 -47 l23 -34 -24 -95 c-28 -112 -31 -148 -10
-131 11 9 15 6 20 -15 8 -32 2 -39 -49 -57 -43 -15 -57 -45 -34 -74 14 -16 33
-48 45 -73 4 -8 16 -26 26 -39 22 -29 17 -76 -15 -133 -19 -35 -19 -39 -4 -56
19 -20 22 -53 8 -67 -9 -9 -41 -117 -41 -137 0 -4 88 -8 196 -8 l196 0 -6 28
c-4 15 -23 60 -42 101 l-36 73 23 51 c17 35 33 54 55 63 17 7 36 20 44 28 20
25 44 19 77 -19 34 -38 57 -44 84 -19 16 14 18 13 24 -18 10 -47 13 -49 44
-33 57 29 114 115 96 144 -3 6 -24 11 -45 11 -81 0 -150 48 -150 105 0 8 -4
15 -10 15 -5 0 -10 7 -10 15 0 23 -46 41 -64 26 -13 -11 -18 -8 -34 18 -10 17
-21 28 -25 25 -7 -8 -92 30 -102 46 -4 7 -3 15 2 19 6 3 14 17 18 31 4 13 19
33 32 43 33 26 45 61 33 93 -9 22 -6 32 15 60 30 39 31 44 5 44 -10 0 -23 6
-27 13 -4 6 -12 12 -18 12 -5 0 -34 25 -62 56 -41 44 -50 58 -40 68 9 9 9 14
-2 20 -8 5 -10 14 -6 21 5 9 4 11 -3 6 -7 -4 -12 -1 -12 8 0 9 -4 16 -10 16
-5 0 -10 -7 -10 -15z"/>
<path d="M856 1025 c-3 -8 -12 -15 -19 -15 -10 0 -13 -13 -12 -47 2 -48 2 -48
-67 -107 -56 -47 -73 -57 -93 -52 -21 5 -27 2 -35 -19 -8 -20 -5 -32 16 -62
17 -25 23 -44 19 -58 -21 -63 -18 -82 18 -109 21 -16 38 -40 42 -57 4 -16 18
-43 32 -60 14 -16 24 -31 22 -33 -2 -1 -22 -9 -43 -17 -21 -8 -42 -21 -46 -29
-20 -40 -27 -69 -29 -115 -1 -27 -7 -55 -14 -62 -13 -13 -128 -53 -151 -53 -8
0 -21 -6 -28 -13 -19 -18 -65 -35 -127 -47 -52 -10 -57 -9 -126 27 -58 30 -75
43 -84 70 -12 32 -14 33 -72 33 l-59 0 0 -100 0 -100 255 0 c228 0 258 2 287
18 37 21 124 52 145 52 8 0 21 -16 29 -35 l14 -35 185 0 c102 0 185 3 185 8 0
4 -6 33 -14 64 -7 31 -9 62 -5 70 4 7 8 39 8 72 -1 51 -6 68 -40 124 -31 50
-37 68 -28 78 6 8 17 14 23 14 15 0 46 63 46 93 0 12 -12 57 -27 100 l-27 77
22 30 c25 34 29 65 8 57 -8 -3 -20 1 -26 9 -7 8 -20 14 -30 14 -29 0 -54 37
-52 77 2 29 -4 43 -31 72 -19 20 -38 46 -42 59 -7 25 -20 29 -29 7z"/>
</g>
</svg>
