<?xml version="1.0" standalone="no"?>
<!DOCTYPE svg PUBLIC "-//W3C//DTD SVG 20010904//EN"
 "http://www.w3.org/TR/2001/REC-SVG-20010904/DTD/svg10.dtd">
<svg version="1.0" xmlns="http://www.w3.org/2000/svg"
 width="480.000000pt" height="360.000000pt" viewBox="0 0 480.000000 360.000000"
 preserveAspectRatio="xMidYMid meet">
<metadata>
Created by potrace 1.16, written by Peter Selinger 2001-2019
</metadata>
<rect width="1" height="360" fill="#000000"/>
<rect x="479" width="1" height="360" fill="#000000"/>
<rect width="480" height="1" fill="#000000"/>
<rect y="359" width="480" height="1" fill="#000000"/>
<g transform="translate(0.000000,360.000000) scale(0.100000,-0.100000)"
fill="#000000" stroke="none">
<path d="M2905 3493 c-106 -16 -205 -53 -205 -78 0 -24 -19 -27 -46 -6 -37 29
-153 30 -206 1 l-37 -19 -6 20 c-12 37 -141 79 -245 79 -70 0 -234 -33 -256
-51 -21 -17 -55 -89 -47 -102 3 -6 8 -20 9 -31 4 -29 15 -78 22 -96 3 -8 6
-24 8 -35 9 -76 18 -105 64 -195 8 -16 43 -18 103 -6 l37 8 0 -45 c0 -27 -10
-66 -25 -99 -14 -29 -25 -67 -25 -84 0 -37 29 -66 65 -66 14 0 25 -6 25 -12 0
-7 20 -54 45 -104 53 -109 77 -208 55 -222 -8 -6 -25 -10 -37 -10 -27 0 -28
-6 -8 -40 8 -14 14 -28 15 -31 0 -3 -26 -22 -59 -42 -96 -60 -121 -105 -141
-255 -6 -46 -13 -89 -16 -97 -6 -14 -35 -25 -70 -25 -29 0 -74 -37 -74 -61 0
-11 13 -42 29 -70 l28 -50 -39 -122 c-25 -79 -81 -206 -159 -362 l-119 -241
25 -73 25 -74 -20 -65 c-11 -35 -20 -75 -20 -89 0 -40 28 -82 67 -101 36 -17
37 -20 64 -128 15 -61 34 -124 42 -141 15 -29 14 -36 -18 -139 -19 -60 -35
-115 -35 -121 0 -10 152 -13 729 -13 l729 0 -13 38 c-8 20 -32 89 -55 152 -76
210 -120 344 -141 425 -37 147 -75 241 -135 336 -12 20 -19 40 -15 45 5 5 2
83 -6 174 -16 194 -13 239 27 365 23 69 34 93 45 89 36 -14 42 -46 51 -289 10
-279 9 -354 -7 -450 -8 -51 -9 -70 0 -73 6 -2 11 -10 11 -18 0 -17 12 -18 27
-3 8 8 15 -12 27 -68 41 -190 139 -411 273 -610 l75 -113 114 0 c63 0 114 2
114 4 0 12 -34 150 -56 230 -23 83 -24 90 -8 107 20 22 14 105 -17 237 -10 46
-19 89 -19 95 0 7 14 28 30 47 16 19 30 40 30 46 0 7 -27 69 -60 138 -33 70
-60 128 -60 130 0 2 -20 46 -43 97 -24 52 -54 116 -66 142 -21 47 -81 292 -81
333 0 11 11 42 25 68 41 78 33 96 -45 96 -20 0 -42 6 -48 13 -6 7 -18 73 -27
147 -20 166 -19 163 -60 203 l-33 32 13 55 c9 35 14 45 14 28 1 -15 5 -29 9
-32 4 -2 5 21 1 52 -3 31 -3 62 2 67 4 6 1 35 -7 65 -17 67 -13 86 10 42 25
-48 30 -34 12 34 -42 164 -57 255 -45 270 12 14 8 155 -7 215 -6 26 -5 26 43
22 48 -5 49 -5 67 33 11 22 24 48 29 59 11 21 26 75 32 113 2 13 8 29 14 36 6
7 8 15 5 19 -3 3 1 20 9 39 26 58 29 87 10 129 -13 31 -24 41 -52 48 -105 27
-233 42 -286 34z m4 -1697 c10 -39 8 -56 -9 -56 -4 0 -10 25 -12 55 -3 60 5
61 21 1z m-14 -96 c3 -5 1 -10 -4 -10 -6 0 -11 5 -11 10 0 6 2 10 4 10 3 0 8
-4 11 -10z"/>
</g>
</svg>
