<?xml version="1.0" standalone="no"?>
<!DOCTYPE svg PUBLIC "-//W3C//DTD SVG 20010904//EN"
 "http://www.w3.org/TR/2001/REC-SVG-20010904/DTD/svg10.dtd">
<svg version="1.0" xmlns="http://www.w3.org/2000/svg"
 width="480.000000pt" height="360.000000pt" viewBox="0 0 480.000000 360.000000"
 preserveAspectRatio="xMidYMid meet">
<metadata>
Created by potrace 1.16, written by Peter Selinger 2001-2019
</metadata>
<rect width="1" height="360" fill="#000000"/>
<rect x="479" width="1" height="360" fill="#000000"/>
<rect width="480" height="1" fill="#000000"/>
<rect y="359" width="480" height="1" fill="#000000"/>
<g transform="translate(0.000000,360.000000) scale(0.100000,-0.100000)"
fill="#000000" stroke="none">
<path d="M0 1800 l0 -1800 1049 0 c947 0 1049 2 1055 16 12 32 6 54 -14 54
-11 0 -20 2 -20 4 0 3 18 56 40 118 59 168 87 290 105 449 11 95 28 178 48
243 31 98 31 98 11 115 -15 12 -18 22 -13 41 12 42 10 60 -5 54 -22 -8 -32 37
-12 51 24 18 20 22 -23 29 -23 3 -61 23 -92 46 -29 22 -57 40 -62 40 -5 0 -22
-11 -39 -25 -32 -27 -81 -33 -95 -12 -7 10 -13 32 -39 132 -7 27 56 122 139
209 43 47 86 79 142 109 l79 42 19 81 c21 96 55 142 129 180 27 14 48 28 45
30 -3 3 -15 0 -27 -6 -29 -16 -32 -10 -14 25 8 16 16 51 16 77 1 26 4 45 8 43
3 -2 16 -24 28 -48 12 -25 29 -48 37 -51 23 -8 18 -34 -7 -39 -13 -2 0 -5 27
-6 80 -3 121 -27 185 -111 l56 -75 82 -11 c148 -21 296 -78 345 -132 21 -23
47 -106 47 -150 0 -29 -2 -32 -19 -22 -28 14 -29 14 -36 -24 -10 -52 -42 -96
-81 -112 -32 -14 -42 -13 -110 6 -41 11 -76 20 -79 20 -3 0 -17 -19 -31 -42
-45 -74 -117 -117 -192 -118 l-43 0 7 -37 c3 -21 12 -48 20 -59 7 -12 13 -30
12 -40 0 -11 14 -61 31 -113 19 -55 30 -103 27 -117 -3 -12 -2 -25 2 -28 12
-7 2 -74 -14 -87 -19 -15 -18 -49 1 -49 11 0 15 -11 15 -36 0 -33 -2 -35 -27
-32 -25 3 -29 -1 -33 -32 -6 -37 11 -72 130 -260 29 -47 62 -106 72 -132 15
-41 16 -49 3 -62 -12 -11 -12 -20 -3 -46 12 -36 1 -50 -38 -50 -19 0 -54 -28
-54 -43 0 -4 452 -7 1005 -7 l1005 0 0 1800 0 1800 -1064 0 -1063 0 29 -82
c32 -91 68 -282 68 -361 0 -79 -28 -224 -59 -302 -30 -77 -102 -190 -196 -305
-84 -105 -103 -137 -123 -221 l-19 -74 -17 51 c-10 32 -74 132 -172 270 -172
242 -226 341 -249 456 -29 146 -10 336 49 492 14 37 26 70 26 72 0 2 -452 4
-1005 4 l-1005 0 0 -1800z"/>
<path d="M3163 1604 c-3 -8 3 -27 14 -42 31 -42 41 -38 29 13 -11 45 -31 59
-43 29z"/>
<path d="M3090 1496 c-81 -18 -159 -63 -146 -84 9 -14 122 -35 150 -28 17 4
33 21 46 46 20 39 27 81 13 79 -5 0 -33 -6 -63 -13z"/>
<path d="M2676 1359 c-27 -4 -53 -12 -57 -16 -6 -6 -3 -26 4 -49 12 -33 19
-39 45 -42 53 -5 114 17 154 58 21 21 38 43 38 49 0 13 -108 13 -184 0z"/>
<path d="M1950 1325 c-20 -21 -22 -29 -14 -57 12 -40 48 -49 83 -21 20 17 21
21 10 46 -7 15 -22 33 -34 41 -21 14 -25 13 -45 -9z"/>
<path d="M2136 1287 l-40 -12 40 -32 c72 -57 124 -68 124 -26 0 10 7 31 15 47
8 15 15 30 15 32 0 9 -118 2 -154 -9z"/>
</g>
</svg>
