<?xml version="1.0" standalone="no"?>
<!DOCTYPE svg PUBLIC "-//W3C//DTD SVG 20010904//EN"
 "http://www.w3.org/TR/2001/REC-SVG-20010904/DTD/svg10.dtd">
<svg version="1.0" xmlns="http://www.w3.org/2000/svg"
 width="480.000000pt" height="360.000000pt" viewBox="0 0 480.000000 360.000000"
 preserveAspectRatio="xMidYMid meet">
<metadata>
Created by potrace 1.16, written by Peter Selinger 2001-2019
</metadata>
<rect width="1" height="360" fill="#000000"/>
<rect x="479" width="1" height="360" fill="#000000"/>
<rect width="480" height="1" fill="#000000"/>
<rect y="359" width="480" height="1" fill="#000000"/>
<g transform="translate(0.000000,360.000000) scale(0.100000,-0.100000)"
fill="#000000" stroke="none">
<path d="M3815 3584 c47 -34 55 -45 55 -74 0 -20 -9 -40 -26 -57 -22 -22 -32
-25 -68 -20 -49 7 -86 0 -86 -17 0 -7 -13 -22 -28 -33 -25 -19 -40 -21 -139
-18 -66 1 -119 -2 -131 -9 -24 -13 -65 -67 -87 -114 -11 -23 -24 -34 -46 -39
-33 -6 -32 -1 -11 -85 l10 -37 -47 24 c-25 13 -93 33 -151 45 -58 11 -115 23
-127 25 -17 4 -27 -5 -53 -51 -29 -52 -30 -57 -16 -80 21 -32 21 -34 -13 -34
-42 0 -48 -18 -12 -31 17 -6 31 -15 31 -19 0 -5 12 -15 26 -22 19 -9 32 -30
46 -73 11 -33 28 -68 36 -78 9 -9 53 -29 99 -43 46 -14 83 -29 83 -34 0 -4
-18 -11 -39 -15 -22 -3 -58 -19 -81 -33 l-42 -27 4 -88 3 -87 -80 -25 c-134
-40 -131 -40 -156 -11 -21 24 -29 26 -103 26 -94 0 -161 -21 -200 -63 -14 -15
-32 -27 -41 -27 -8 0 -15 -7 -15 -15 0 -8 5 -15 10 -15 6 0 10 -9 10 -20 0
-11 -7 -20 -15 -20 -8 0 -15 -4 -15 -9 0 -25 14 -41 36 -41 14 0 39 -13 57
-29 l32 -30 -2 -133 c-1 -73 -7 -164 -13 -203 -30 -184 -28 -195 33 -227 65
-34 166 -32 235 5 66 35 140 86 209 143 47 41 56 44 108 44 49 0 56 -2 52 -17
-27 -99 -32 -145 -32 -353 0 -124 4 -238 8 -254 5 -16 24 -44 43 -61 34 -31
35 -33 24 -78 -5 -26 -30 -83 -55 -128 -24 -44 -49 -95 -54 -112 -88 -283
-211 -580 -270 -652 -24 -29 -61 -83 -61 -90 0 -2 -14 -18 -31 -35 l-32 -30
803 0 c760 0 802 1 795 18 -12 28 -82 264 -126 427 -92 338 -126 426 -195 512
-27 33 -33 47 -28 71 5 24 1 33 -23 52 -15 12 -23 24 -18 26 26 10 110 70 110
79 0 6 -11 54 -25 107 l-24 97 29 136 c33 161 62 216 159 309 92 87 94 98 70
356 l-6 66 -52 15 c-40 11 -51 19 -49 34 1 22 37 111 85 214 16 36 33 92 36
125 l7 60 80 24 c44 13 123 37 175 52 277 82 310 94 310 107 0 7 -1 13 -2 13
-2 0 -128 -38 -281 -83 -244 -74 -313 -88 -281 -57 5 4 63 24 129 45 66 20
138 43 160 50 22 8 93 30 158 50 106 34 117 40 117 61 0 16 -6 24 -17 24 -16
1 -16 2 1 15 24 18 19 19 -23 4 -24 -9 -29 -14 -19 -20 10 -7 8 -9 -7 -10 -11
-1 -26 -1 -33 0 -8 1 -19 -2 -25 -7 -7 -6 -34 -13 -62 -17 -55 -9 -96 -29 -73
-38 9 -4 7 -6 -4 -6 -10 -1 -18 3 -18 8 0 5 -9 7 -20 4 -11 -3 -18 -8 -16 -12
2 -3 -13 -7 -34 -7 -21 -1 -65 -14 -97 -29 -32 -15 -77 -29 -101 -30 -36 -3
-45 0 -59 21 -15 23 -15 26 3 39 10 8 22 15 25 15 9 0 59 77 59 90 0 5 -7 10
-15 10 -20 0 -19 19 4 71 11 24 18 46 15 48 -2 3 -27 -17 -54 -44 -28 -27 -50
-44 -50 -38 0 6 14 43 30 81 38 89 38 95 1 87 -36 -8 -64 6 -102 50 -19 21
-36 31 -47 28 -11 -2 -35 11 -64 36 -25 22 -48 38 -51 35 -3 -3 -15 -3 -27 1
-20 6 -20 7 5 27 41 32 62 96 43 132 -27 53 -49 66 -112 66 -56 -1 -59 -2 -41
-16z m-737 -1186 c-3 -7 -47 -25 -99 -40 -139 -40 -142 -41 -137 -26 4 12 185
75 221 77 11 1 17 -4 15 -11z m62 -40 c0 -7 14 -21 30 -30 42 -24 38 -37 -9
-31 -69 9 -105 -3 -124 -42 -9 -20 -17 -42 -17 -49 0 -17 -133 -62 -138 -46
-2 5 -11 18 -20 26 -15 15 -15 20 0 60 9 26 11 45 5 47 -12 4 220 75 251 76
12 1 22 -5 22 -11z"/>
<path d="M442 3120 c3 -38 -4 -51 -17 -30 -12 19 -38 11 -32 -9 2 -11 -6 -38
-19 -60 -22 -40 -22 -41 -3 -55 19 -13 19 -14 -13 -43 -18 -16 -49 -49 -69
-73 -21 -25 -51 -61 -69 -80 -17 -19 -35 -39 -38 -45 -17 -26 -75 -57 -95 -51
-31 8 -87 -14 -87 -34 0 -9 17 -28 37 -41 21 -13 51 -44 67 -68 27 -41 28 -47
20 -100 -14 -89 18 -161 88 -197 15 -8 35 -14 46 -14 25 0 78 -55 62 -65 -8
-5 -5 -14 9 -29 l21 -22 -33 -31 c-55 -52 -127 -87 -221 -108 l-91 -20 -3 -63
-3 -62 56 30 c67 37 83 37 91 5 9 -38 1 -49 -52 -64 -104 -30 -94 -3 -94 -264
l0 -230 69 66 c38 37 72 67 75 67 4 0 38 -19 77 -42 52 -31 81 -57 109 -98 21
-30 49 -68 63 -85 13 -16 39 -58 57 -91 38 -71 37 -79 -30 -183 -31 -48 -71
-139 -130 -296 -5 -11 -22 -67 -39 -125 -18 -58 -48 -156 -67 -218 -20 -62
-42 -138 -49 -170 -7 -31 -17 -72 -23 -89 l-11 -33 600 0 c329 0 599 2 599 5
0 3 -9 22 -19 43 -51 99 -99 317 -126 562 -19 179 -37 259 -74 326 -18 33 -27
62 -24 77 3 17 -2 29 -16 39 -24 17 -19 47 7 46 24 -1 72 20 72 31 0 5 -25 63
-55 129 -56 120 -94 268 -81 317 25 100 73 188 116 213 27 16 48 62 28 62 -5
0 -7 4 -4 8 2 4 -28 18 -67 31 -40 12 -97 34 -127 49 -53 26 -55 28 -51 62 4
48 20 77 32 59 15 -24 17 -5 7 48 -11 54 -5 89 12 78 5 -3 10 -19 10 -36 0
-16 4 -29 9 -29 13 0 20 62 9 90 -5 14 -21 76 -34 139 -13 62 -33 133 -44 157
-18 41 -18 48 -4 86 8 24 24 58 34 76 11 18 20 34 20 35 0 2 -29 1 -65 -1 -53
-3 -66 0 -71 13 -7 16 -238 213 -262 222 -16 7 -6 64 14 76 20 12 17 26 -4 20
-28 -7 -44 19 -32 51 12 34 13 46 1 46 -5 0 -14 -12 -19 -27 l-9 -28 -13 43
c-17 53 -33 55 -28 2z m-62 -1130 c23 -14 2 -28 -60 -40 -30 -6 -63 -13 -72
-16 -38 -12 -15 13 35 38 57 29 74 32 97 18z"/>
</g>
</svg>
