<?xml version="1.0" standalone="no"?>
<!DOCTYPE svg PUBLIC "-//W3C//DTD SVG 20010904//EN"
 "http://www.w3.org/TR/2001/REC-SVG-20010904/DTD/svg10.dtd">
<svg version="1.0" xmlns="http://www.w3.org/2000/svg"
 width="480.000000pt" height="360.000000pt" viewBox="0 0 480.000000 360.000000"
 preserveAspectRatio="xMidYMid meet">
<metadata>
Created by potrace 1.16, written by Peter Selinger 2001-2019
</metadata>
<rect width="1" height="360" fill="#000000"/>
<rect x="479" width="1" height="360" fill="#000000"/>
<rect width="480" height="1" fill="#000000"/>
<rect y="359" width="480" height="1" fill="#000000"/>
<g transform="translate(0.000000,360.000000) scale(0.100000,-0.100000)"
fill="#000000" stroke="none">
<path d="M0 1800 l0 -1800 1265 0 1264 0 7 60 c3 33 10 57 14 55 8 -5 20 18
20 39 0 9 -22 15 -62 20 -34 3 -73 13 -86 22 -24 16 -105 25 -206 24 -47 -1
-63 11 -75 57 -8 28 -5 50 14 110 13 41 30 82 38 91 7 9 24 46 37 82 12 36 65
153 116 261 52 108 94 204 94 214 0 10 -15 22 -39 32 l-39 15 21 47 c12 25 31
62 43 81 11 19 28 55 36 80 9 25 19 53 23 63 6 13 3 16 -9 11 -18 -7 -62 18
-88 50 -10 12 -18 38 -18 60 0 31 -3 37 -12 28 -23 -23 -35 -12 -42 38 -7 53
-29 68 -41 29 -14 -43 -28 1 -28 93 -2 117 14 212 47 284 15 32 24 59 22 61
-2 3 -16 -3 -30 -12 -14 -10 -26 -14 -26 -11 0 14 42 84 84 141 77 103 113
175 165 333 28 85 51 160 51 168 0 8 -7 14 -16 14 -26 0 -94 22 -94 31 0 4 22
24 50 44 l50 37 -48 37 c-69 55 -77 67 -51 74 20 5 110 -6 149 -18 12 -4 26 4
43 25 32 38 67 41 67 5 0 -17 6 -25 18 -25 72 -1 205 -21 231 -34 31 -16 31
-16 41 9 6 15 10 31 10 36 0 6 5 7 10 4 6 -3 10 -16 10 -29 0 -15 12 -31 38
-47 36 -24 37 -26 36 -84 0 -41 4 -63 14 -71 24 -17 7 -31 -48 -38 -50 -7 -50
-7 -50 -44 0 -20 -7 -55 -15 -77 -21 -58 -20 -273 1 -317 l15 -33 100 3 99 3
0 35 c0 51 59 138 86 127 17 -6 18 -45 2 -61 -9 -9 -8 -12 4 -12 9 0 24 9 32
21 18 26 36 17 36 -19 -1 -41 -36 -180 -50 -197 -14 -17 -41 -20 -56 -5 -10
10 -26 7 -174 -39 l-54 -17 -13 -85 c-11 -75 -10 -95 8 -192 11 -59 17 -112
14 -116 -3 -5 19 -56 49 -113 30 -56 79 -172 110 -255 30 -84 69 -180 86 -214
17 -34 33 -73 35 -88 1 -14 3 -30 4 -36 1 -5 5 -4 10 3 16 27 32 -42 29 -129
-2 -61 -6 -83 -16 -81 -9 1 -12 -35 -10 -166 3 -186 1 -193 -59 -219 -18 -7
-47 -13 -65 -13 -26 0 -37 -6 -50 -31 -10 -17 -23 -27 -29 -23 -6 3 -24 -3
-41 -16 -39 -29 -88 -36 -123 -18 -25 14 -31 13 -69 -8 -23 -12 -54 -25 -70
-27 -26 -3 -32 -11 -46 -53 -32 -93 -140 -84 996 -84 l1004 0 0 1800 0 1800
-2400 0 -2400 0 0 -1800z"/>
<path d="M2900 2270 c0 -11 5 -20 10 -20 6 0 10 9 10 20 0 11 -4 20 -10 20 -5
0 -10 -9 -10 -20z"/>
</g>
</svg>
