<?xml version="1.0" standalone="no"?>
<!DOCTYPE svg PUBLIC "-//W3C//DTD SVG 20010904//EN"
 "http://www.w3.org/TR/2001/REC-SVG-20010904/DTD/svg10.dtd">
<svg version="1.0" xmlns="http://www.w3.org/2000/svg"
 width="480.000000pt" height="360.000000pt" viewBox="0 0 480.000000 360.000000"
 preserveAspectRatio="xMidYMid meet">
<metadata>
Created by potrace 1.16, written by Peter Selinger 2001-2019
</metadata>
<rect width="1" height="360" fill="#000000"/>
<rect x="479" width="1" height="360" fill="#000000"/>
<rect width="480" height="1" fill="#000000"/>
<rect y="359" width="480" height="1" fill="#000000"/>
<g transform="translate(0.000000,360.000000) scale(0.100000,-0.100000)"
fill="#000000" stroke="none">
<path d="M0 1800 l0 -1800 173 0 174 0 11 107 c15 146 2 211 -88 420 -167 387
-205 553 -217 944 -12 402 35 700 173 1106 l56 162 -32 40 c-57 71 -26 109 78
99 91 -9 494 -183 558 -241 39 -35 266 -125 704 -280 355 -125 438 -151 454
-138 12 11 30 76 31 116 0 6 -25 9 -60 7 -59 -2 -60 -2 -30 12 27 14 28 15 5
11 -14 -2 -50 -6 -80 -10 l-55 -5 25 20 c17 13 20 20 10 20 -9 0 -5 6 10 15
l25 14 -23 1 c-20 0 -16 6 30 52 30 29 96 112 147 183 115 160 155 203 251
267 90 62 116 70 159 52 18 -7 68 -18 112 -24 100 -12 151 -26 210 -55 104
-53 149 -120 204 -307 l32 -106 -23 8 c-20 8 -23 5 -29 -19 -8 -38 -63 -100
-74 -83 -6 9 -12 8 -25 -7 -10 -10 -25 -17 -35 -14 -27 7 -35 -14 -17 -42 18
-27 21 -55 6 -55 -5 0 -42 -33 -81 -74 -52 -54 -76 -72 -90 -69 -10 3 -19 0
-19 -6 0 -14 88 -71 109 -71 33 0 117 -48 149 -85 37 -42 61 -49 492 -161 172
-45 218 -54 233 -45 19 13 57 6 57 -10 0 -16 25 -9 38 11 15 25 48 26 64 1 9
-15 15 -17 30 -7 16 9 22 8 33 -8 7 -10 18 -15 24 -12 12 8 41 -21 41 -42 1
-16 2 -16 14 1 19 24 45 21 56 -7 5 -13 13 -27 18 -30 18 -11 739 -166 773
-166 5 0 9 436 9 1055 l0 1055 -2400 0 -2400 0 0 -1800z"/>
<path d="M776 2508 c-19 -29 -115 -268 -160 -396 -73 -211 -117 -517 -116
-817 0 -267 17 -349 156 -777 33 -100 54 -183 54 -210 -1 -28 -19 -86 -54
-173 l-53 -130 499 -3 500 -2 62 44 c62 45 326 306 455 451 39 44 96 117 127
162 30 45 78 113 105 150 36 50 47 73 42 88 -4 11 -7 30 -6 43 1 16 -13 34
-44 60 -204 167 -251 212 -268 256 -15 39 -16 53 -6 93 14 54 55 131 112 212
30 42 36 57 29 72 -16 29 -11 72 12 109 19 30 22 50 23 142 0 58 -3 104 -8
101 -4 -2 -15 -19 -24 -36 -13 -25 -18 -28 -21 -14 -4 19 -17 23 -27 7 -9 -15
-25 -12 -19 4 3 8 0 17 -5 21 -6 3 -9 11 -6 16 4 5 1 9 -5 9 -6 0 -13 -7 -16
-15 -12 -30 -22 -14 -13 22 4 21 6 39 4 41 -2 2 -15 -8 -29 -23 -30 -32 -33
-21 -9 30 15 31 15 37 3 45 -11 7 -25 0 -49 -23 -25 -24 -32 -27 -26 -12 21
54 23 52 -215 134 -228 79 -468 167 -730 269 -99 38 -157 55 -183 54 -20 -2
-46 2 -57 8 -16 8 -22 6 -34 -12z"/>
<path d="M2630 2141 c0 -5 5 -13 10 -16 6 -3 10 -2 10 4 0 5 -4 13 -10 16 -5
3 -10 2 -10 -4z"/>
<path d="M2961 1807 c-20 -20 -11 -51 34 -122 78 -123 89 -151 90 -242 0 -45
5 -87 11 -93 7 -7 23 -6 51 4 23 8 135 38 249 66 115 29 217 56 228 62 16 9
18 18 12 77 -4 36 -10 69 -14 73 -4 4 -135 41 -292 83 -157 42 -302 83 -322
90 -26 8 -40 9 -47 2z"/>
<path d="M3950 1484 c-39 -62 -112 -133 -176 -170 -46 -27 -365 -145 -512
-190 -99 -30 -170 -34 -225 -11 -20 9 -40 17 -44 17 -13 2 -33 -78 -33 -136 0
-58 2 -62 45 -107 46 -48 58 -90 34 -114 -16 -16 49 -136 123 -226 77 -92 170
-244 166 -271 -4 -23 -32 -29 -70 -16 -34 11 -34 11 -4 -92 13 -46 29 -102 35
-125 l12 -43 749 0 750 0 0 653 0 654 -97 31 c-147 47 -698 203 -712 202 -3
-1 -22 -26 -41 -56z"/>
<path d="M2297 1362 l-38 -38 50 -43 c27 -23 51 -44 53 -46 2 -2 5 6 6 18 3
30 -19 147 -27 147 -4 0 -24 -17 -44 -38z"/>
</g>
</svg>
