<?xml version="1.0" standalone="no"?>
<!DOCTYPE svg PUBLIC "-//W3C//DTD SVG 20010904//EN"
 "http://www.w3.org/TR/2001/REC-SVG-20010904/DTD/svg10.dtd">
<svg version="1.0" xmlns="http://www.w3.org/2000/svg"
 width="480.000000pt" height="360.000000pt" viewBox="0 0 480.000000 360.000000"
 preserveAspectRatio="xMidYMid meet">
<metadata>
Created by potrace 1.16, written by Peter Selinger 2001-2019
</metadata>
<rect width="1" height="360" fill="#000000"/>
<rect x="479" width="1" height="360" fill="#000000"/>
<rect width="480" height="1" fill="#000000"/>
<rect y="359" width="480" height="1" fill="#000000"/>
<g transform="translate(0.000000,360.000000) scale(0.100000,-0.100000)"
fill="#000000" stroke="none">
<path d="M2980 3494 c-19 -2 -91 -9 -160 -14 -321 -27 -853 -127 -1157 -216
-48 -15 -101 -30 -118 -34 -215 -55 -584 -185 -870 -307 -173 -73 -204 -87
-458 -211 l-217 -106 0 -1052 0 -1052 198 -8 c108 -5 453 -9 767 -9 454 0 616
4 795 18 529 42 899 99 1345 209 647 159 1164 359 1586 614 l109 66 0 942 0
941 -52 14 c-29 7 -73 17 -98 21 -25 4 -61 13 -80 19 -19 7 -57 16 -85 21 -27
5 -93 18 -145 30 -52 11 -120 24 -150 30 -30 5 -109 18 -175 29 -241 41 -383
53 -695 56 -168 2 -321 1 -340 -1z m-242 -893 c53 -37 159 -86 275 -125 l118
-41 38 -86 c36 -82 105 -190 172 -270 l30 -36 -16 -74 c-9 -41 -19 -146 -22
-234 -3 -88 -8 -165 -12 -171 -18 -33 -197 -233 -243 -272 -15 -13 -35 -37
-45 -52 -29 -51 -219 -110 -373 -117 -171 -8 -201 -5 -300 27 -83 27 -102 38
-150 85 -30 29 -67 57 -83 60 -30 8 -143 124 -187 193 -19 29 -30 62 -35 106
-3 35 -15 80 -26 100 -26 49 -28 276 -3 334 9 20 25 68 35 107 14 52 25 75 46
90 15 10 38 33 52 49 14 16 73 80 131 142 l105 113 55 6 c102 11 225 35 300
59 93 30 105 31 138 7z"/>
<path d="M1887 1964 c-10 -11 -9 -92 2 -98 13 -8 25 69 14 89 -5 8 -12 12 -16
9z"/>
<path d="M1931 1605 c0 -16 6 -47 13 -68 14 -39 92 -147 107 -147 18 0 -61
174 -100 220 l-20 25 0 -30z"/>
<path d="M3153 1413 c-58 -72 -69 -88 -57 -80 21 12 116 127 106 127 -6 0 -28
-21 -49 -47z"/>
<path d="M2222 1249 c13 -17 39 -39 58 -49 44 -22 171 -62 178 -55 14 13 -169
116 -231 130 l-28 6 23 -32z"/>
<path d="M2800 1194 c-70 -11 -151 -37 -138 -45 21 -14 58 -11 143 12 103 27
124 39 65 37 -25 0 -56 -2 -70 -4z"/>
</g>
</svg>
