<?xml version="1.0" standalone="no"?>
<!DOCTYPE svg PUBLIC "-//W3C//DTD SVG 20010904//EN"
 "http://www.w3.org/TR/2001/REC-SVG-20010904/DTD/svg10.dtd">
<svg version="1.0" xmlns="http://www.w3.org/2000/svg"
 width="480.000000pt" height="360.000000pt" viewBox="0 0 480.000000 360.000000"
 preserveAspectRatio="xMidYMid meet">
<metadata>
Created by potrace 1.16, written by Peter Selinger 2001-2019
</metadata>
<rect width="1" height="360" fill="#000000"/>
<rect x="479" width="1" height="360" fill="#000000"/>
<rect width="480" height="1" fill="#000000"/>
<rect y="359" width="480" height="1" fill="#000000"/>
<g transform="translate(0.000000,360.000000) scale(0.100000,-0.100000)"
fill="#000000" stroke="none">
<path d="M0 2704 l0 -897 20 26 c18 23 94 57 127 57 21 0 14 -22 -17 -60 -17
-19 -30 -37 -30 -41 0 -4 127 -9 283 -11 277 -5 284 -5 403 -36 213 -55 242
-54 489 19 72 22 131 34 133 29 2 -6 16 -7 30 -4 15 4 24 4 21 0 -6 -6 -42
-13 -77 -15 -28 -2 1 -21 32 -21 22 0 47 11 79 36 31 24 67 40 111 51 43 9 66
20 66 29 0 9 11 14 35 14 20 0 49 10 71 25 30 21 49 25 103 25 71 -1 520 -16
716 -24 66 -3 192 -8 280 -11 195 -7 377 -21 459 -36 92 -17 142 -1 167 54 21
46 25 92 8 82 -6 -4 -14 -17 -19 -29 l-9 -21 0 22 c-1 23 -26 37 -78 42 -7 0
-13 13 -13 28 0 33 -38 113 -57 120 -18 7 -54 78 -45 88 4 5 2 5 -5 1 -6 -3
-24 -1 -40 6 -50 21 -83 60 -100 118 -8 30 -20 58 -24 61 -9 5 46 171 74 226
48 91 166 173 308 212 133 37 213 26 329 -44 143 -87 190 -169 245 -427 14
-62 36 -156 50 -208 15 -54 23 -106 20 -120 l-6 -24 -21 32 c-19 31 -29 40
-27 25 4 -25 -2 -43 -12 -37 -9 5 -10 -6 -6 -42 3 -26 3 -64 -1 -83 l-5 -34
-24 29 -23 29 0 -28 c0 -16 -4 -26 -9 -22 -5 3 -12 1 -16 -5 -3 -5 0 -10 8
-10 16 0 49 -36 64 -70 6 -14 33 -52 60 -85 28 -33 55 -70 62 -82 6 -12 33
-51 60 -85 58 -77 76 -111 85 -163 9 -47 182 -416 201 -427 7 -4 66 -51 131
-103 66 -52 122 -95 127 -95 4 0 7 632 7 1405 l0 1405 -2400 0 -2400 0 0 -896z
m4598 664 c-6 -17 -36 -34 -44 -25 -4 4 1 14 12 22 23 18 37 19 32 3z m-1163
-178 c0 -7 -6 -15 -12 -17 -8 -3 -13 4 -13 17 0 13 5 20 13 18 6 -3 12 -11 12
-18z m755 -240 c-20 -13 -63 -13 -55 0 3 6 21 10 38 10 24 0 28 -3 17 -10z
m15 -149 c3 -5 1 -13 -5 -16 -15 -9 -60 22 -60 40 0 14 3 14 29 0 17 -8 32
-19 36 -24z m368 -478 c-7 -2 -19 -2 -25 0 -7 3 -2 5 12 5 14 0 19 -2 13 -5z
m-238 -235 c24 -13 45 -26 45 -30 0 -13 -58 -38 -88 -38 -29 0 -82 33 -82 50
0 11 49 39 68 40 7 0 32 -10 57 -22z m210 -658 c-3 -5 -11 -10 -16 -10 -6 0
-7 5 -4 10 3 6 11 10 16 10 6 0 7 -4 4 -10z"/>
<path d="M3313 2249 c-7 -9 -9 -20 -3 -29 12 -19 22 -7 18 21 -2 19 -5 20 -15
8z"/>
<path d="M3557 2023 c-12 -12 -7 -22 8 -17 8 4 15 10 15 15 0 11 -14 12 -23 2z"/>
<path d="M1767 1643 c-15 -15 -5 -22 41 -29 60 -8 93 -25 125 -64 64 -76 62
-213 -4 -305 -34 -47 -100 -91 -149 -99 -41 -7 -136 28 -154 57 -15 24 5 53
35 50 89 -8 142 -3 172 14 65 39 96 138 62 203 -21 40 -45 51 -129 57 -69 5
-73 4 -93 -21 -27 -33 -43 -33 -95 4 -29 20 -61 31 -98 36 l-55 6 29 -20 c27
-19 27 -20 8 -26 -11 -4 -31 -4 -44 -1 -13 3 -34 2 -46 -2 -21 -8 -18 -11 28
-27 65 -23 65 -39 0 -30 -55 7 -71 -10 -20 -21 17 -4 28 -11 25 -15 -3 -5 -16
-6 -28 -1 -12 4 -27 6 -32 4 -6 -2 -62 15 -124 37 -62 22 -134 45 -159 51 -66
16 -168 12 -281 -12 -131 -27 -281 -34 -441 -20 -146 13 -282 28 -317 36 l-23
5 0 -755 0 -755 1663 0 1663 0 18 53 c63 180 159 369 238 469 28 35 28 39 14
60 -23 32 -20 64 9 86 38 30 32 49 -17 57 -24 4 -56 14 -72 22 -32 17 -32 18
9 128 21 58 24 80 19 130 -8 71 -33 149 -84 264 -21 47 -46 115 -55 151 -22
86 -52 124 -107 138 -57 14 -413 59 -598 74 -198 17 -606 17 -752 -1 -107 -13
-119 -13 -142 2 -29 19 -30 20 -39 10z m-787 -225 c24 -40 25 -65 4 -118 -19
-48 -34 -47 -53 4 -12 30 -12 46 -2 91 7 30 17 55 22 55 5 0 18 -15 29 -32z
m1165 -347 c6 -11 -29 -33 -39 -24 -7 7 12 33 25 33 4 0 10 -4 14 -9z m10
-292 c12 -19 -5 -23 -22 -6 -16 16 -16 17 -1 17 9 0 20 -5 23 -11z m234 -133
c26 -14 57 -79 45 -98 -9 -14 -56 25 -70 59 -24 56 -20 62 25 39z"/>
<path d="M4308 796 c-36 -13 -37 -54 -3 -115 14 -23 25 -55 25 -70 0 -17 22
-61 56 -111 68 -102 125 -215 190 -377 l49 -123 88 0 87 0 0 203 0 203 -152
150 c-183 180 -264 249 -292 249 -12 1 -33 -4 -48 -9z"/>
</g>
</svg>
