<?xml version="1.0" standalone="no"?>
<!DOCTYPE svg PUBLIC "-//W3C//DTD SVG 20010904//EN"
 "http://www.w3.org/TR/2001/REC-SVG-20010904/DTD/svg10.dtd">
<svg version="1.0" xmlns="http://www.w3.org/2000/svg"
 width="480.000000pt" height="360.000000pt" viewBox="0 0 480.000000 360.000000"
 preserveAspectRatio="xMidYMid meet">
<metadata>
Created by potrace 1.16, written by Peter Selinger 2001-2019
</metadata>
<rect width="1" height="360" fill="#000000"/>
<rect x="479" width="1" height="360" fill="#000000"/>
<rect width="480" height="1" fill="#000000"/>
<rect y="359" width="480" height="1" fill="#000000"/>
<g transform="translate(0.000000,360.000000) scale(0.100000,-0.100000)"
fill="#000000" stroke="none">
<path d="M4203 3576 c-25 -21 -40 -24 -158 -29 -140 -5 -238 -28 -378 -88
-258 -109 -443 -299 -478 -490 -16 -86 -48 -120 -175 -189 -89 -47 -107 -53
-180 -59 -45 -3 -89 -12 -98 -20 -21 -18 -56 -97 -56 -127 0 -25 16 -40 41
-36 10 2 23 -16 38 -53 33 -80 60 -98 136 -90 33 4 64 11 70 16 5 5 17 9 26 9
13 0 19 -12 24 -52 3 -29 14 -69 22 -88 14 -30 17 -32 23 -15 6 18 9 16 25
-15 17 -35 74 -95 76 -82 1 4 0 16 -1 27 -2 17 2 16 30 -10 l32 -30 -8 29 -7
30 32 -23 c17 -13 39 -33 47 -46 14 -21 14 -26 -2 -50 -9 -14 -30 -36 -47 -49
-36 -29 -31 -51 16 -71 41 -17 55 -33 63 -73 4 -17 15 -39 25 -48 11 -9 19
-23 19 -30 0 -7 8 -18 18 -23 36 -19 45 -53 28 -109 -17 -58 -9 -66 25 -24 13
16 23 22 26 15 2 -7 20 -15 38 -19 30 -5 34 -10 37 -42 l3 -36 32 52 c18 29
36 52 41 52 5 0 14 -18 21 -39 14 -49 39 -60 63 -29 10 13 18 27 18 31 0 5 10
23 22 39 l21 31 23 -51 c28 -63 23 -116 -13 -151 -17 -16 -23 -32 -21 -52 3
-28 -5 -35 -99 -98 l-103 -69 -111 6 c-100 4 -114 3 -125 -13 -11 -14 -16 -16
-28 -6 -20 17 -54 -2 -62 -33 -3 -13 1 -46 9 -74 9 -28 13 -53 10 -56 -10 -10
-150 -7 -177 4 -23 8 -26 7 -26 -11 0 -11 7 -36 15 -56 9 -20 12 -40 8 -44 -5
-3 -47 -23 -95 -42 -103 -41 -206 -97 -232 -126 -18 -20 -19 -19 -92 91 -41
61 -94 136 -119 167 -24 31 -105 135 -179 231 -181 236 -180 235 -318 276 -62
18 -131 36 -153 39 -22 4 -71 16 -110 27 -101 28 -319 37 -374 14 -23 -9 -67
-16 -99 -16 -31 0 -94 -3 -139 -7 l-83 -6 0 -37 c0 -69 27 -124 91 -185 76
-73 103 -123 104 -195 l0 -55 68 -10 c57 -8 70 -14 80 -35 l13 -25 144 3 c93
3 160 9 188 19 30 10 48 11 54 5 34 -34 163 -234 393 -608 98 -159 173 -246
270 -311 82 -55 124 -67 209 -60 74 6 163 30 330 91 54 19 103 33 108 30 5 -3
6 -20 4 -37 -3 -18 -8 -83 -11 -144 l-6 -113 488 0 489 0 43 155 c24 85 47
157 51 160 10 6 259 -13 330 -25 64 -12 164 -57 229 -103 25 -18 52 -36 58
-41 10 -5 13 125 13 616 -1 351 -4 616 -9 608 -5 -8 -23 -80 -41 -160 -50
-227 -73 -284 -140 -346 -22 -21 -43 -48 -46 -61 -8 -29 -9 -29 -72 2 -29 14
-56 25 -61 25 -5 0 -9 35 -9 78 0 98 -21 197 -65 309 -86 217 -97 249 -97 271
0 27 16 29 25 2 3 -11 12 -20 20 -20 7 0 20 -11 29 -25 24 -36 38 -32 30 10
-8 45 5 45 45 0 29 -34 31 -34 31 -12 0 13 -5 49 -11 80 -7 38 -7 63 0 74 9
16 20 8 85 -62 86 -91 93 -89 82 21 -6 61 -5 66 14 71 11 3 20 14 20 25 0 16
6 14 46 -17 54 -41 64 -43 56 -13 -3 14 -1 19 6 14 6 -3 13 -2 17 3 3 6 13 7
22 4 14 -5 13 -1 -5 24 -28 40 -28 45 3 37 l25 -6 0 951 0 951 -284 0 -284 0
-29 -24z m-998 -1336 l20 -25 -22 19 c-13 11 -23 24 -23 29 0 6 1 8 3 6 1 -2
11 -15 22 -29z"/>
</g>
</svg>
