<?xml version="1.0" standalone="no"?>
<!DOCTYPE svg PUBLIC "-//W3C//DTD SVG 20010904//EN"
 "http://www.w3.org/TR/2001/REC-SVG-20010904/DTD/svg10.dtd">
<svg version="1.0" xmlns="http://www.w3.org/2000/svg"
 width="480.000000pt" height="360.000000pt" viewBox="0 0 480.000000 360.000000"
 preserveAspectRatio="xMidYMid meet">
<metadata>
Created by potrace 1.16, written by Peter Selinger 2001-2019
</metadata>
<rect width="1" height="360" fill="#000000"/>
<rect x="479" width="1" height="360" fill="#000000"/>
<rect width="480" height="1" fill="#000000"/>
<rect y="359" width="480" height="1" fill="#000000"/>
<g transform="translate(0.000000,360.000000) scale(0.100000,-0.100000)"
fill="#000000" stroke="none">
<path d="M0 3365 l0 -235 38 0 c21 0 62 -6 92 -14 107 -27 136 -27 162 1 28
30 70 53 97 53 12 0 35 -13 52 -28 30 -27 31 -31 21 -62 -18 -49 -16 -51 30
-25 36 21 57 25 124 25 100 0 147 -8 140 -25 -2 -7 6 -23 20 -36 13 -12 22
-24 19 -27 -2 -2 2 -20 10 -38 12 -30 12 -34 -1 -34 -8 0 -12 -4 -9 -10 3 -5
17 -10 31 -10 13 0 24 -5 24 -11 0 -5 11 -35 25 -65 30 -66 31 -79 5 -101 -33
-28 -25 -63 25 -116 25 -26 50 -47 55 -47 25 0 109 -63 126 -95 19 -37 53 -66
139 -125 28 -19 58 -43 67 -55 22 -26 23 -92 2 -146 -14 -33 -16 -64 -11 -167
8 -194 35 -305 198 -827 70 -223 118 -351 119 -312 0 10 9 31 21 46 14 19 24
53 30 106 4 43 13 92 19 110 15 46 64 87 156 135 102 51 118 68 110 113 -3 19
-9 76 -11 128 -3 52 -12 114 -19 139 -8 25 -17 61 -19 80 -8 59 -39 139 -63
163 -32 32 -45 71 -50 151 -2 38 -7 85 -10 105 -10 70 -13 185 -5 195 15 18
51 134 51 163 0 26 -61 140 -84 155 -15 11 -78 3 -112 -14 -15 -7 -40 -33 -54
-58 -14 -25 -33 -46 -42 -48 -9 -2 -26 12 -39 30 -19 26 -24 46 -25 98 0 36
-5 83 -11 105 -6 22 -11 63 -11 90 -1 28 -17 106 -38 175 -38 131 -51 178 -61
220 -3 14 -17 39 -30 56 -12 17 -23 39 -23 50 0 10 -9 66 -21 124 -11 58 -23
115 -25 128 l-4 22 -615 0 -615 0 0 -235z"/>
<path d="M0 1550 l0 -1550 369 0 c344 0 370 1 375 18 2 9 7 49 11 87 3 39 8
78 11 87 10 34 -42 53 -140 53 l-90 0 -21 54 c-25 66 -45 76 -128 60 -53 -9
-63 -9 -73 6 -11 15 -14 15 -39 -1 -23 -15 -28 -15 -36 -3 -12 19 -11 76 2
122 7 26 7 42 0 51 -7 9 -3 23 16 49 14 20 27 50 29 68 2 18 16 53 31 78 15
25 35 61 45 80 9 18 24 41 32 50 36 38 63 77 63 92 0 9 29 63 65 121 71 113
127 219 190 362 36 83 39 94 29 128 -10 32 -9 43 8 77 19 37 20 47 10 153 -6
62 -8 139 -5 171 3 31 2 57 -3 57 -4 0 -11 -75 -14 -167 -4 -93 -12 -188 -20
-213 l-13 -45 -14 118 c-7 64 -16 117 -19 117 -7 0 -49 -141 -57 -190 -11 -69
-15 -81 -27 -77 -7 2 -18 -9 -24 -25 -10 -24 -10 -36 2 -65 17 -40 19 -101 5
-123 -8 -12 -11 -12 -28 3 -10 9 -30 17 -43 17 -28 0 -56 -41 -79 -115 -7 -22
-22 -53 -33 -69 -18 -25 -21 -26 -30 -11 -5 9 -18 51 -28 93 -10 41 -23 80
-30 86 -8 8 -10 5 -4 -14 17 -64 17 -66 -8 -36 -15 16 -26 23 -29 16 -8 -25
-56 31 -82 96 -24 59 -28 90 -38 250 -10 177 -9 185 13 251 12 37 63 151 113
253 l91 185 0 95 c-1 73 -6 109 -23 155 -17 45 -22 81 -22 152 0 51 -3 93 -7
93 -5 0 -17 -7 -27 -15 -27 -21 -86 -18 -115 4 -20 15 -23 24 -17 52 3 19 18
51 32 73 40 59 26 79 -79 111 -45 14 -86 25 -90 25 -4 0 -7 -697 -7 -1550z"/>
<path d="M890 1935 c0 -33 -5 -89 -10 -125 -5 -35 -7 -66 -5 -68 2 -2 15 19
29 47 28 55 32 99 15 152 -20 58 -29 56 -29 -6z"/>
<path d="M190 1493 c0 -15 5 -35 10 -43 7 -11 10 -6 10 22 0 20 -4 40 -10 43
-6 4 -10 -6 -10 -22z"/>
<path d="M1634 506 c3 -65 8 -121 11 -124 3 -3 5 2 5 11 0 10 5 14 14 11 11
-4 13 0 9 15 -3 11 -9 18 -14 15 -5 -3 -9 -4 -9 -2 0 2 -3 44 -7 93 -9 133
-16 119 -9 -19z"/>
<path d="M1626 341 c-3 -4 -27 -11 -53 -14 -48 -5 -58 -13 -106 -82 l-19 -26
-132 7 c-100 5 -135 4 -141 -5 -4 -7 -10 -60 -13 -117 l-5 -104 273 0 c240 0
271 2 266 15 -3 9 -13 43 -21 76 -19 71 -31 102 -63 151 -26 40 -20 71 18 83
11 3 20 11 20 16 0 11 -17 12 -24 0z"/>
<path d="M949 173 c-10 -2 -24 -32 -38 -82 -11 -43 -21 -81 -21 -85 0 -3 32
-6 71 -6 l72 0 -7 73 c-11 111 -15 117 -77 100z"/>
</g>
</svg>
