<?xml version="1.0" standalone="no"?>
<!DOCTYPE svg PUBLIC "-//W3C//DTD SVG 20010904//EN"
 "http://www.w3.org/TR/2001/REC-SVG-20010904/DTD/svg10.dtd">
<svg version="1.0" xmlns="http://www.w3.org/2000/svg"
 width="480.000000pt" height="360.000000pt" viewBox="0 0 480.000000 360.000000"
 preserveAspectRatio="xMidYMid meet">
<metadata>
Created by potrace 1.16, written by Peter Selinger 2001-2019
</metadata>
<rect width="1" height="360" fill="#000000"/>
<rect x="479" width="1" height="360" fill="#000000"/>
<rect width="480" height="1" fill="#000000"/>
<rect y="359" width="480" height="1" fill="#000000"/>
<g transform="translate(0.000000,360.000000) scale(0.100000,-0.100000)"
fill="#000000" stroke="none">
<path d="M0 2573 c1 -736 4 -1023 11 -1010 11 18 77 52 85 44 10 -9 -23 -56
-58 -82 -35 -26 -38 -33 -38 -78 0 -29 4 -46 10 -42 6 3 10 -5 10 -19 0 -14
-5 -28 -10 -31 -7 -4 -10 -242 -10 -681 l0 -674 743 0 742 0 -75 38 c-61 30
-77 43 -83 67 -17 59 -33 80 -82 106 -31 16 -54 37 -61 54 -17 43 -10 132 13
158 11 12 27 42 36 67 27 71 167 194 324 285 206 120 252 159 375 324 39 53
106 138 147 190 42 52 72 96 66 98 -44 15 -74 46 -89 90 l-16 49 -51 0 c-40
-1 -54 3 -65 19 -14 19 -13 20 20 26 19 3 46 13 61 23 26 17 27 18 20 104 -12
164 -24 237 -46 286 -16 38 -20 63 -17 111 4 58 3 62 -17 57 -18 -5 -17 -2 8
27 40 47 33 55 -23 26 -55 -28 -64 -30 -55 -14 8 11 -29 51 -42 47 -4 -2 -18
7 -29 18 -16 16 -20 30 -16 49 3 19 1 26 -6 21 -18 -11 -25 14 -8 33 20 22 20
31 1 31 -8 0 -15 3 -15 8 1 19 49 61 81 71 53 17 127 108 182 221 39 82 110
148 181 166 52 14 63 13 114 -1 113 -33 189 -88 222 -161 11 -24 20 -47 20
-51 0 -4 7 -17 15 -27 14 -19 16 -18 69 18 50 34 64 38 197 57 138 21 146 21
253 4 132 -20 233 -52 340 -106 104 -53 135 -76 237 -179 142 -143 222 -295
270 -508 21 -96 22 -108 9 -185 -22 -141 -38 -186 -91 -263 -46 -66 -66 -83
-107 -90 -6 -1 -33 -20 -60 -41 -76 -63 -122 -76 -171 -49 -21 12 -31 11 -76
-9 -49 -22 -82 -28 -132 -26 -13 1 -41 17 -63 37 -39 36 -42 37 -79 25 -21 -6
-49 -11 -62 -11 -44 1 -107 37 -136 79 -24 35 -35 41 -83 51 -30 5 -70 15 -89
21 -31 10 -37 9 -53 -11 -13 -16 -16 -32 -12 -60 5 -32 3 -40 -14 -49 -11 -6
-30 -31 -42 -56 -17 -36 -27 -45 -47 -45 -22 0 -24 -3 -19 -27 14 -60 103
-101 155 -72 13 8 32 28 41 44 9 17 26 31 38 33 19 3 22 -1 22 -33 0 -50 -23
-89 -64 -109 -38 -18 -102 -21 -139 -7 -14 6 -27 8 -29 6 -2 -3 2 -55 9 -117
6 -62 21 -198 33 -303 11 -104 33 -269 50 -365 16 -96 30 -196 30 -222 l0 -48
1020 0 1020 0 0 1800 0 1800 -2192 -1 c-1206 -1 -2182 -4 -2169 -8 14 -4 27
-13 29 -20 6 -18 -58 -5 -74 15 -9 11 -50 14 -203 14 l-191 0 0 -1027z m2760
946 c12 -22 -3 -79 -21 -79 -13 0 -22 46 -15 75 8 30 22 32 36 4z m-1210 -39
c0 -5 -7 -10 -15 -10 -8 0 -15 5 -15 10 0 6 7 10 15 10 8 0 15 -4 15 -10z
m1110 -7 c0 -16 -41 -74 -55 -80 -27 -10 -26 3 5 45 27 38 50 54 50 35z
m-1733 -75 c1 -27 -1 -29 -7 -13 -11 27 -12 45 -2 45 5 0 9 -15 9 -32z m113
-3 l35 -14 -40 6 c-22 3 -49 9 -60 14 -18 7 -17 8 5 8 14 0 41 -7 60 -14z
m1193 -216 c-12 -12 -83 -20 -83 -8 0 11 20 17 60 18 24 1 31 -2 23 -10z
m-1960 -54 c-3 -32 -26 -55 -55 -55 -29 0 -25 68 5 80 37 15 52 7 50 -25z
m1387 5 c0 -5 -7 -10 -15 -10 -8 0 -15 5 -15 10 0 6 7 10 15 10 8 0 15 -4 15
-10z m-800 -30 c0 -21 -15 -27 -25 -10 -7 12 2 30 16 30 5 0 9 -9 9 -20z
m1607 -36 c-3 -3 -12 -4 -19 -1 -8 3 -5 6 6 6 11 1 17 -2 13 -5z m-1955 -101
c21 -19 23 -33 5 -33 -22 0 -51 26 -43 38 10 16 16 15 38 -5z m3842 -333 c-7
-7 -19 -7 -35 -1 -23 9 -22 10 11 10 23 1 31 -2 24 -9z m-2949 -30 c10 -11 16
-22 14 -25 -7 -7 -52 19 -57 33 -6 19 23 14 43 -8z m253 -16 c34 -9 26 -21
-18 -29 -43 -7 -100 1 -100 15 0 16 75 25 118 14z m-1348 -53 c0 -12 -37 -24
-50 -16 -20 12 -10 25 20 25 17 0 30 -4 30 -9z m1518 -415 c2 -10 -1 -23 -8
-30 -14 -14 -41 19 -33 40 8 20 37 13 41 -10z m-518 -316 c12 -8 11 -10 -7
-10 -13 0 -23 5 -23 10 0 13 11 13 30 0z m3157 -739 c14 -41 13 -46 -5 -70
-27 -36 -50 -38 -62 -6 -16 42 -12 77 12 102 28 30 37 26 55 -26z m-4387 -127
c0 -25 -7 -28 -34 -18 -21 8 -20 31 1 43 23 12 33 5 33 -25z m275 16 c4 -6
-19 -10 -62 -10 -48 0 -63 3 -53 10 20 13 107 13 115 0z m1004 -71 c5 -16 6
-29 1 -29 -14 0 -40 42 -40 63 0 27 25 5 39 -34z m-929 -57 c0 -27 -64 -72
-102 -72 -48 0 -29 22 52 61 41 20 50 22 50 11z m4090 -388 c22 -9 40 -20 40
-24 0 -24 -88 -27 -130 -5 -36 19 -37 23 -7 35 33 13 52 12 97 -6z"/>
<path d="M2370 2290 c-23 -29 -23 -30 -37 -10 -18 25 -33 26 -33 2 0 -25 19
-42 48 -42 17 0 27 9 38 36 20 47 13 52 -16 14z"/>
<path d="M2046 2219 c-15 -12 -25 -23 -23 -26 5 -4 77 36 77 43 0 11 -30 2
-54 -17z"/>
<path d="M2549 1643 c-2 -22 2 -122 7 -145 4 -22 15 -30 57 -44 29 -9 57 -19
62 -21 6 -2 21 10 33 27 20 26 21 35 13 67 -12 41 -47 83 -71 83 -9 0 -33 9
-55 20 -44 23 -45 23 -46 13z"/>
</g>
</svg>
