<?xml version="1.0" standalone="no"?>
<!DOCTYPE svg PUBLIC "-//W3C//DTD SVG 20010904//EN"
 "http://www.w3.org/TR/2001/REC-SVG-20010904/DTD/svg10.dtd">
<svg version="1.0" xmlns="http://www.w3.org/2000/svg"
 width="480.000000pt" height="360.000000pt" viewBox="0 0 480.000000 360.000000"
 preserveAspectRatio="xMidYMid meet">
<metadata>
Created by potrace 1.16, written by Peter Selinger 2001-2019
</metadata>
<rect width="1" height="360" fill="#000000"/>
<rect x="479" width="1" height="360" fill="#000000"/>
<rect width="480" height="1" fill="#000000"/>
<rect y="359" width="480" height="1" fill="#000000"/>
<g transform="translate(0.000000,360.000000) scale(0.100000,-0.100000)"
fill="#000000" stroke="none">
<path d="M0 1800 l0 -1800 99 0 98 0 43 110 42 110 -26 35 c-23 30 -25 37 -14
54 11 17 10 23 -7 34 -18 14 -17 16 21 40 56 36 80 66 93 119 12 52 15 111 4
121 -3 4 -8 32 -9 63 l-3 55 36 -3 37 -3 31 100 c17 55 44 123 59 152 30 55
28 80 -4 63 -26 -14 -33 2 -20 47 14 53 14 53 124 117 131 77 189 103 259 117
31 6 57 15 57 19 0 4 -12 12 -26 19 -22 10 -28 9 -40 -6 -13 -17 -13 -17 -14
3 0 29 -30 35 -87 18 -25 -8 -69 -14 -97 -14 -28 0 -64 -7 -81 -16 -16 -9 -47
-20 -67 -24 -40 -8 -48 -2 -152 92 -28 26 -30 26 -60 11 -17 -9 -57 -35 -88
-59 -60 -45 -79 -44 -54 3 21 42 63 80 94 86 20 4 41 27 86 94 71 108 184 336
225 458 37 109 39 125 11 100 -16 -14 -25 -16 -43 -8 -28 13 -201 142 -205
153 -2 4 15 22 36 39 38 29 39 33 34 76 -3 28 0 50 8 60 15 18 61 19 105 4 25
-10 39 -8 75 8 l43 19 2 104 c3 116 24 194 87 312 47 89 165 206 249 247 100
49 217 66 349 52 160 -17 145 -21 251 77 88 82 149 132 163 132 11 0 54 -97
90 -205 l37 -110 55 -35 c96 -61 185 -169 230 -281 47 -116 66 -262 44 -338
-10 -36 -2 -63 65 -236 40 -103 41 -122 14 -151 -28 -30 -38 -30 -64 1 -19 24
-21 24 -42 7 l-22 -17 13 -180 c13 -174 25 -231 56 -250 5 -3 10 -11 10 -17 0
-6 -8 -4 -18 5 -37 33 -36 40 -17 -223 7 -88 15 -161 21 -182 9 -32 -10 -18
-46 33 -45 65 -59 72 -107 55 -34 -12 -36 -14 -16 -20 22 -7 83 -69 102 -104
8 -15 5 -27 -15 -55 -23 -35 -24 -38 -9 -61 22 -33 71 -179 86 -255 12 -61 12
-62 40 -56 16 4 38 3 50 0 24 -8 23 -15 -12 -110 -38 -104 -40 -125 -18 -154
11 -13 33 -33 50 -43 41 -25 46 -44 18 -74 -16 -17 -22 -35 -21 -56 2 -20 -5
-39 -17 -52 -20 -21 -20 -21 6 -124 l25 -102 79 0 c73 0 79 1 83 23 3 12 17
90 32 172 15 83 31 170 35 195 17 93 30 166 38 210 5 25 28 152 52 283 23 131
48 245 54 254 10 14 22 13 111 -7 93 -22 166 -49 178 -68 2 -4 -4 -46 -14 -93
-56 -245 -148 -640 -209 -892 l-18 -77 1033 0 1034 0 0 1800 0 1800 -2400 0
-2400 0 0 -1800z m2773 1535 c-3 -17 -29 -29 -48 -21 -14 5 -15 9 -5 22 14 16
56 16 53 -1z m-363 -419 c0 -16 -18 -31 -27 -22 -8 8 5 36 17 36 5 0 10 -6 10
-14z m2081 -636 c26 -15 24 -40 -3 -40 -32 0 -52 15 -45 34 7 19 21 20 48 6z
m-447 -873 c9 -16 5 -24 -29 -52 -44 -37 -55 -37 -55 3 0 61 57 93 84 49z
m-1629 -327 c3 -5 1 -10 -4 -10 -6 0 -11 5 -11 10 0 6 2 10 4 10 3 0 8 -4 11
-10z"/>
</g>
</svg>
