<?xml version="1.0" standalone="no"?>
<!DOCTYPE svg PUBLIC "-//W3C//DTD SVG 20010904//EN"
 "http://www.w3.org/TR/2001/REC-SVG-20010904/DTD/svg10.dtd">
<svg version="1.0" xmlns="http://www.w3.org/2000/svg"
 width="480.000000pt" height="360.000000pt" viewBox="0 0 480.000000 360.000000"
 preserveAspectRatio="xMidYMid meet">
<metadata>
Created by potrace 1.16, written by Peter Selinger 2001-2019
</metadata>
<rect width="1" height="360" fill="#000000"/>
<rect x="479" width="1" height="360" fill="#000000"/>
<rect width="480" height="1" fill="#000000"/>
<rect y="359" width="480" height="1" fill="#000000"/>
<g transform="translate(0.000000,360.000000) scale(0.100000,-0.100000)"
fill="#000000" stroke="none">
<path d="M2896 3218 c-68 -125 -212 -328 -251 -354 -27 -17 -33 -52 -13 -72
17 -17 31 -15 57 9 28 26 34 21 20 -19 -9 -25 -24 -38 -72 -61 -34 -16 -75
-33 -92 -37 -16 -4 -35 -10 -40 -15 -6 -4 -28 -9 -50 -11 l-40 -3 2 -44 c3
-56 23 -79 56 -64 25 12 74 7 94 -9 7 -5 17 -7 23 -3 21 13 30 -6 13 -31 -16
-25 -16 -25 10 -19 25 7 26 6 17 -26 -10 -35 -3 -82 11 -73 5 3 9 -7 9 -22 0
-22 2 -25 15 -14 12 10 15 9 16 -6 0 -19 1 -19 8 0 6 17 10 16 33 -12 22 -27
25 -38 21 -74 -3 -24 -10 -44 -14 -46 -13 -5 -11 -40 3 -44 8 -3 9 -28 0 -102
-6 -54 -12 -100 -14 -101 -2 -2 -37 6 -78 16 -41 11 -122 29 -179 40 -57 12
-170 41 -251 65 -213 63 -307 77 -469 71 -77 -2 -136 -9 -140 -15 -4 -7 -19
-7 -48 1 -39 10 -49 8 -145 -32 -154 -64 -171 -70 -250 -81 -143 -20 -165 -32
-133 -73 7 -11 11 -26 8 -35 -6 -14 10 -15 148 -9 85 4 181 12 214 18 157 29
143 29 163 -6 16 -26 20 -62 26 -211 9 -241 17 -334 28 -334 6 0 51 31 102 68
126 95 164 119 216 136 92 31 128 35 198 21 37 -7 110 -18 162 -25 94 -12 312
-49 318 -54 1 -2 -18 -52 -44 -112 -92 -216 -115 -280 -129 -349 -7 -38 -18
-87 -23 -107 -10 -38 -1 -58 25 -58 7 0 21 -8 31 -19 9 -10 41 -43 70 -73 51
-53 52 -56 46 -98 -7 -44 -114 -217 -141 -227 -20 -8 -15 -46 10 -70 18 -16
23 -30 20 -55 -9 -81 -9 -81 19 -89 17 -4 29 -3 33 4 3 7 3 -52 1 -130 l-4
-143 510 0 c480 0 509 1 504 18 -26 89 -27 104 -13 136 39 82 70 167 82 226 7
36 20 83 29 105 8 22 15 53 16 68 0 15 8 44 19 65 29 58 45 262 37 466 l-7
172 27 23 26 23 -27 28 c-24 25 -27 38 -34 131 -6 78 -3 139 10 244 10 77 27
210 38 295 21 169 31 189 77 168 18 -9 28 -8 36 0 7 7 20 12 30 12 29 0 21 15
-27 54 -93 77 -108 130 -62 228 65 137 61 210 -20 331 -59 89 -181 211 -257
256 -65 39 -231 104 -306 120 -74 16 -140 13 -209 -8 -34 -10 -61 -17 -61 -15
0 2 12 26 28 54 21 39 25 53 16 67 -24 40 -47 27 -88 -49z m-317 -2734 c-16
-82 -17 -86 -30 -79 -13 9 -3 78 18 118 21 41 24 29 12 -39z"/>
</g>
</svg>
