<?xml version="1.0" standalone="no"?>
<!DOCTYPE svg PUBLIC "-//W3C//DTD SVG 20010904//EN"
 "http://www.w3.org/TR/2001/REC-SVG-20010904/DTD/svg10.dtd">
<svg version="1.0" xmlns="http://www.w3.org/2000/svg"
 width="480.000000pt" height="360.000000pt" viewBox="0 0 480.000000 360.000000"
 preserveAspectRatio="xMidYMid meet">
<metadata>
Created by potrace 1.16, written by Peter Selinger 2001-2019
</metadata>
<rect width="1" height="360" fill="#000000"/>
<rect x="479" width="1" height="360" fill="#000000"/>
<rect width="480" height="1" fill="#000000"/>
<rect y="359" width="480" height="1" fill="#000000"/>
<g transform="translate(0.000000,360.000000) scale(0.100000,-0.100000)"
fill="#000000" stroke="none">
<path d="M0 3120 c0 -460 1 -480 18 -480 21 0 56 -33 45 -43 -3 -4 -19 -7 -35
-7 l-28 0 0 -432 0 -433 35 -23 c45 -29 45 -45 0 -26 l-35 14 0 -845 0 -845
584 0 c456 0 585 3 588 12 4 10 10 10 32 0 21 -9 414 -12 1812 -12 l1784 0 -2
583 -3 582 -27 -3 c-20 -2 -33 6 -54 33 -26 35 -26 36 -8 56 18 20 37 21 77 4
16 -7 17 14 17 356 l-1 364 -48 22 c-66 32 -93 93 -40 93 11 0 35 -7 54 -14
32 -14 35 -14 35 3 0 13 -7 18 -24 16 -17 -2 -30 4 -40 21 -20 30 -20 36 2 33
9 -1 27 -1 40 0 l22 1 0 725 0 725 -2400 0 -2400 0 0 -480z m1508 459 c28 -9
37 -24 48 -76 7 -35 -86 12 -104 53 -7 14 -12 27 -12 29 0 9 36 5 68 -6z
m1522 5 c0 -17 -35 -61 -58 -72 -45 -21 -45 -13 -1 33 39 41 59 54 59 39z
m-2203 -229 c8 -22 -6 -33 -17 -15 -13 20 -12 30 0 30 6 0 13 -7 17 -15z
m-487 -15 c12 -23 3 -25 -22 -6 -22 16 -23 26 -3 26 8 0 19 -9 25 -20z m225
-47 c28 -44 50 -101 41 -110 -15 -16 -86 94 -86 135 0 23 20 12 45 -25z m648
5 c3 -11 -27 -95 -38 -107 -9 -8 -35 22 -35 39 0 19 46 80 60 80 5 0 10 -6 13
-12z m1477 -47 c0 -5 -12 -19 -27 -31 -20 -16 -36 -20 -58 -16 -42 9 -53 23
-29 41 21 16 114 21 114 6z m-2305 -61 c25 -6 27 -8 12 -15 -20 -9 -84 2 -92
15 -7 11 35 11 80 0z m3158 -79 c14 -21 23 -42 20 -45 -23 -23 -69 28 -58 64
3 11 8 20 9 20 2 0 15 -18 29 -39z m-2008 -41 c3 -5 2 -10 -3 -10 -6 0 -10
-16 -10 -36 0 -43 -7 -52 -30 -38 -26 17 -26 43 0 69 26 26 34 29 43 15z
m1292 -20 c18 -10 40 -31 49 -46 18 -26 18 -27 -11 -49 -37 -30 -137 -58 -177
-50 -37 9 -108 82 -108 112 0 19 6 23 33 23 17 1 43 7 57 15 37 21 119 19 157
-5z m419 -87 c25 -21 48 -62 40 -70 -8 -9 -34 16 -68 65 -31 45 -21 46 28 5z
m478 -57 c31 -13 81 -64 72 -73 -5 -6 -111 62 -120 76 -10 15 8 14 48 -3z
m-864 -282 c0 -61 -49 -55 -64 8 -4 20 -1 30 11 37 29 16 53 -5 53 -45z m-513
-30 c-7 -69 -57 -120 -72 -74 -14 46 -8 81 20 110 38 39 59 25 52 -36z m145
-19 c7 -32 -9 -43 -27 -19 -20 26 -18 44 4 44 12 0 20 -9 23 -25z m103 -11 c0
-13 -12 -23 -42 -34 -23 -8 -45 -11 -48 -8 -11 10 19 47 45 57 33 12 45 8 45
-15z m110 12 c0 -10 -51 -16 -72 -8 -7 2 -10 8 -7 14 7 11 79 6 79 -6z m359
-92 c19 -18 22 -109 5 -120 -18 -10 -49 29 -56 69 -4 30 -2 41 13 52 23 18 20
18 38 -1z m-2952 -56 c-9 -9 -15 -9 -24 0 -10 10 -10 15 2 22 20 12 38 -6 22
-22z m20 -40 c3 -7 2 -23 0 -35 -3 -18 -11 -23 -36 -23 -18 0 -40 6 -50 13
-15 11 -17 17 -7 35 9 17 21 22 51 22 21 0 40 -5 42 -12z m3628 -12 c0 -7 -63
-43 -87 -51 -40 -12 -25 15 20 35 40 19 67 25 67 16z m-3545 -55 c-6 -4 -23
-11 -40 -15 l-30 -6 25 15 c27 16 60 21 45 6z m1298 -19 c9 -8 17 -19 17 -23
0 -5 -8 -6 -17 -2 -22 8 -53 33 -53 44 0 11 31 0 53 -19z m1905 -55 c31 -32
32 -35 17 -51 -15 -15 -48 -21 -85 -16 -23 2 -68 52 -75 82 -6 24 -3 28 27 36
40 11 69 -2 116 -51z m-2188 29 c0 -2 3 -11 6 -20 7 -18 -12 -21 -35 -7 -16
10 -6 31 15 31 8 0 14 -2 14 -4z m503 -109 c15 -12 27 -29 27 -38 0 -8 5 -20
12 -27 21 -21 -22 -27 -58 -7 -34 18 -53 47 -35 53 6 2 11 12 11 23 0 25 11
24 43 -4z m2741 -5 c7 -11 -93 -112 -111 -112 -23 0 24 78 60 100 36 22 43 24
51 12z m-1217 -103 c18 -6 23 -13 16 -20 -13 -13 -56 -2 -82 22 -31 29 -26 42
9 24 16 -8 42 -20 57 -26z m-1697 -7 c22 -17 56 -99 45 -110 -2 -3 -30 0 -62
7 -41 8 -66 20 -90 43 -37 36 -42 58 -13 58 12 0 20 7 20 16 0 14 7 15 37 11
21 -4 49 -15 63 -25z m-405 -13 c0 -8 4 -20 8 -26 12 -20 -24 -62 -63 -73 -42
-12 -60 -13 -60 -2 0 7 37 83 53 109 10 16 62 9 62 -8z m1195 -54 c-1 -17 -40
36 -40 54 0 10 7 6 20 -14 11 -16 20 -34 20 -40z m610 13 c1 -13 7 -34 15 -48
16 -29 18 -40 7 -40 -4 0 -15 13 -25 29 -19 32 -23 81 -7 81 6 0 10 -10 10
-22z m-389 -49 c47 -43 40 -42 -28 4 -46 30 -51 37 -29 37 7 0 33 -18 57 -41z
m-1933 -66 c30 -33 24 -47 -20 -51 -41 -4 -98 37 -98 70 0 18 4 20 48 14 32
-5 54 -15 70 -33z m1185 15 c32 -16 46 -39 47 -71 0 -16 4 -36 10 -46 7 -14 5
-22 -8 -33 -33 -29 -97 -32 -86 -3 3 7 -2 15 -10 18 -9 3 -22 23 -31 44 -15
35 -14 40 2 70 19 35 40 41 76 21z m522 -18 c6 -9 1 -30 -21 -99 -3 -11 -7
-11 -19 -1 -20 17 -19 56 3 85 19 27 28 30 37 15z m1744 -48 c5 -26 9 -54 7
-62 -4 -29 -39 -110 -46 -110 -12 0 -30 58 -30 95 0 44 29 125 45 125 8 0 18
-20 24 -48z m-2893 -17 c19 -14 19 -14 -3 -15 -28 0 -53 10 -53 21 0 14 34 11
56 -6z m2371 -36 c43 -27 42 -39 -6 -39 -39 0 -100 33 -109 59 -7 20 72 6 115
-20z m93 -141 c56 -19 62 -22 43 -31 -29 -13 -66 -2 -100 28 -35 30 -24 31 57
3z m673 -136 c19 -20 25 -34 20 -50 -5 -20 -10 -22 -32 -17 -51 13 -80 54 -55
79 22 23 36 20 67 -12z m-1389 -12 c38 -19 49 -45 15 -35 -32 10 -59 35 -59
54 0 9 3 12 8 6 4 -5 20 -17 36 -25z m1708 12 c11 -11 -8 -26 -51 -41 -44 -14
-71 -14 -104 2 -57 26 0 61 88 52 32 -3 63 -9 67 -13z m-3832 -59 c0 -71 -9
-74 -28 -7 -15 52 -15 54 3 54 8 0 15 5 15 10 0 6 2 10 5 10 3 0 5 -30 5 -67z
m2518 27 c1 -8 -7 -21 -18 -28 -18 -11 -25 -10 -51 9 -24 17 -28 24 -17 30 21
14 82 6 86 -11z m550 -29 c18 -11 12 -41 -9 -54 -13 -8 -24 -6 -44 7 -26 17
-26 18 -9 37 18 20 41 24 62 10z m827 -46 c-11 -8 -26 -19 -33 -26 -9 -8 -17
-8 -24 -1 -7 7 -1 15 18 26 38 20 67 21 39 1z m-1707 -36 c11 -18 11 -23 -5
-35 -45 -35 -99 -31 -95 6 5 49 75 69 100 29z m-1395 -108 c29 -15 32 -26 17
-65 -13 -36 -50 -36 -50 0 0 14 -5 34 -10 45 -11 19 -5 43 8 37 4 -2 19 -10
35 -17z m1275 -10 c12 -11 22 -24 22 -29 0 -11 -33 -22 -68 -22 -19 0 -22 5
-19 26 3 22 21 44 37 44 3 -1 15 -9 28 -19z m112 -102 c0 -17 -6 -20 -32 -17
-25 2 -34 9 -41 32 -8 24 -6 32 9 43 17 12 21 11 42 -12 12 -14 22 -35 22 -46z
m-2537 49 c56 -32 45 -54 -29 -63 -24 -2 -74 28 -74 44 0 7 48 27 73 30 4 1
17 -5 30 -11z m2226 -107 c28 -70 23 -104 -6 -46 -24 47 -38 105 -26 105 5 0
19 -27 32 -59z m767 15 c18 -14 18 -15 -8 -21 -32 -8 -49 0 -41 20 7 19 24 19
49 1z m-661 -260 c26 -21 28 -25 12 -31 -9 -4 -28 -4 -42 -1 -19 5 -24 12 -23
31 3 31 15 31 53 1z m-1895 -25 c0 -35 -65 -60 -103 -40 -18 10 -18 12 -2 29
9 10 27 20 39 22 27 4 66 -2 66 -11z m1360 13 c0 -13 -68 -31 -100 -26 l-35 5
35 13 c36 13 100 18 100 8z m1947 -99 c12 -22 21 -56 21 -76 l0 -37 -47 29
c-46 30 -59 47 -60 84 -1 20 33 45 54 40 6 -1 20 -19 32 -40z m-3777 -21 c0
-18 5 -36 10 -39 30 -18 -8 -125 -45 -125 -32 0 -38 27 -25 112 6 46 16 89 22
96 17 19 38 -5 38 -44z m2239 -5 c22 -48 17 -74 -16 -96 -31 -20 -40 -10 -48
53 -6 40 -4 54 10 67 25 25 34 21 54 -24z m1074 -246 c23 -12 37 -33 22 -33
-10 0 -105 50 -105 55 0 8 51 -6 83 -22z m-2563 -414 c0 -6 -4 -7 -10 -4 -5 3
-10 11 -10 16 0 6 5 7 10 4 6 -3 10 -11 10 -16z"/>
</g>
</svg>
