<?xml version="1.0" standalone="no"?>
<!DOCTYPE svg PUBLIC "-//W3C//DTD SVG 20010904//EN"
 "http://www.w3.org/TR/2001/REC-SVG-20010904/DTD/svg10.dtd">
<svg version="1.0" xmlns="http://www.w3.org/2000/svg"
 width="480.000000pt" height="360.000000pt" viewBox="0 0 480.000000 360.000000"
 preserveAspectRatio="xMidYMid meet">
<metadata>
Created by potrace 1.16, written by Peter Selinger 2001-2019
</metadata>
<rect width="1" height="360" fill="#000000"/>
<rect x="479" width="1" height="360" fill="#000000"/>
<rect width="480" height="1" fill="#000000"/>
<rect y="359" width="480" height="1" fill="#000000"/>
<g transform="translate(0.000000,360.000000) scale(0.100000,-0.100000)"
fill="#000000" stroke="none">
<path d="M3215 3574 c-141 -58 -224 -117 -287 -202 -66 -89 -127 -259 -128
-354 0 -42 -21 -68 -54 -68 -31 0 -130 -44 -173 -77 -19 -14 -41 -39 -49 -56
-14 -26 -14 -33 0 -67 14 -36 14 -38 -9 -48 -18 -8 -35 -5 -86 15 -48 19 -69
23 -89 17 -62 -22 -127 -190 -98 -252 16 -33 59 -40 112 -18 33 14 35 14 42
-6 3 -11 0 -31 -7 -44 -19 -36 0 -51 46 -37 32 10 39 9 64 -12 15 -13 40 -51
54 -83 35 -78 59 -99 93 -84 39 18 72 6 80 -31 3 -18 20 -61 37 -97 27 -60 31
-79 43 -255 14 -198 17 -645 5 -822 -5 -83 -9 -105 -24 -116 -11 -7 -17 -20
-16 -28 5 -21 -64 -123 -101 -149 -28 -20 -35 -21 -58 -10 -15 7 -82 20 -150
29 l-124 16 -119 195 c-65 107 -122 201 -125 208 -4 7 7 43 24 80 16 37 34 90
40 117 17 82 26 249 14 283 -15 43 21 195 98 416 23 65 39 124 36 132 -3 8
-14 14 -25 14 -11 0 -23 5 -26 10 -11 18 -51 11 -72 -12 -31 -36 -29 -30 -118
-278 -32 -91 -62 -155 -79 -169 -11 -9 -20 -6 -42 12 -83 69 -163 74 -210 12
-18 -24 -36 -35 -64 -40 -52 -9 -96 -57 -159 -175 -26 -49 -28 -58 -16 -79 7
-14 28 -31 46 -40 34 -16 34 -17 42 -101 22 -249 57 -351 200 -582 63 -101
140 -231 171 -290 55 -104 57 -108 42 -136 -18 -35 -60 -144 -86 -222 -9 -30
-21 -63 -25 -72 -7 -17 66 -18 1454 -18 l1461 0 0 1581 0 1582 -30 51 c-75
130 -186 236 -347 334 l-88 52 -530 0 -530 -1 -60 -25z m58 -2179 c42 -17 41
-15 25 -101 -11 -61 -12 -63 -55 -79 -24 -10 -47 -15 -49 -12 -6 6 -44 240
-44 272 0 16 8 11 43 -22 23 -23 59 -49 80 -58z"/>
</g>
</svg>
