<?xml version="1.0" standalone="no"?>
<!DOCTYPE svg PUBLIC "-//W3C//DTD SVG 20010904//EN"
 "http://www.w3.org/TR/2001/REC-SVG-20010904/DTD/svg10.dtd">
<svg version="1.0" xmlns="http://www.w3.org/2000/svg"
 width="480.000000pt" height="360.000000pt" viewBox="0 0 480.000000 360.000000"
 preserveAspectRatio="xMidYMid meet">
<metadata>
Created by potrace 1.16, written by Peter Selinger 2001-2019
</metadata>
<rect width="1" height="360" fill="#000000"/>
<rect x="479" width="1" height="360" fill="#000000"/>
<rect width="480" height="1" fill="#000000"/>
<rect y="359" width="480" height="1" fill="#000000"/>
<g transform="translate(0.000000,360.000000) scale(0.100000,-0.100000)"
fill="#000000" stroke="none">
<path d="M2470 1804 c0 -6 -11 -17 -25 -24 -13 -7 -22 -17 -19 -21 8 -14 -76
-51 -101 -45 -14 4 -37 -1 -55 -12 -27 -15 -30 -21 -25 -47 9 -44 9 -75 -3
-117 -6 -25 -6 -40 1 -47 14 -14 4 -23 -17 -15 -9 3 -16 15 -16 25 0 20 -30
51 -52 55 -7 1 -19 3 -27 5 -8 2 -20 -7 -27 -20 -12 -23 -12 -23 -19 -2 -11
37 -55 81 -81 81 -13 0 -38 -13 -56 -29 -29 -26 -33 -35 -33 -80 0 -44 4 -54
35 -86 26 -27 41 -35 58 -32 22 4 23 2 17 -32 -3 -20 -16 -64 -28 -98 l-22
-62 22 -28 c22 -30 22 -30 131 -17 34 4 62 5 62 3 0 -2 -7 -22 -15 -44 -17
-49 -20 -208 -3 -234 9 -14 8 -28 -6 -61 -22 -56 -33 -117 -46 -253 -16 -170
12 -343 63 -385 12 -10 14 -30 9 -97 l-5 -85 57 0 56 0 0 75 c0 41 3 75 8 75
80 3 135 10 145 18 6 5 22 12 35 15 27 6 42 -19 73 -118 l20 -65 51 0 51 0 -6
44 c-4 24 -14 63 -22 87 -30 81 -30 77 13 89 41 11 102 72 102 103 0 21 -45
85 -104 147 -71 74 -116 152 -167 286 -11 29 -34 71 -51 95 -27 38 -29 45 -17
63 7 12 14 41 14 66 3 65 20 99 55 112 24 8 37 24 60 74 47 99 39 131 -28 125
-30 -2 -33 0 -24 15 5 9 7 25 5 35 -3 11 0 19 6 19 6 0 11 -5 11 -11 0 -5 5
-7 10 -4 6 3 7 17 4 31 -9 37 17 156 39 178 14 14 16 21 7 26 -7 4 -10 13 -6
19 5 7 1 8 -10 4 -13 -5 -15 -2 -9 15 4 15 2 22 -7 22 -7 0 -23 15 -35 33 -33
49 -38 66 -18 73 13 5 14 9 4 15 -10 6 -10 11 2 25 13 16 12 17 -5 11 -12 -5
-23 -3 -28 5 -4 7 -8 8 -8 2z"/>
<path d="M920 1761 c-9 -9 -16 -34 -16 -54 0 -33 -8 -46 -59 -97 -41 -40 -66
-58 -77 -54 -19 6 -58 -12 -58 -26 0 -5 11 -25 24 -45 21 -30 24 -44 19 -89
-5 -52 -5 -53 29 -74 24 -15 38 -34 47 -62 6 -22 16 -40 21 -40 20 0 9 -21
-15 -30 -28 -11 -45 -44 -43 -87 0 -15 -9 -55 -20 -88 -11 -33 -24 -78 -29
-99 -6 -32 -20 -50 -73 -93 -36 -30 -82 -69 -103 -88 -22 -19 -49 -35 -60 -36
-12 0 -49 -4 -82 -8 -78 -10 -148 16 -164 60 -14 40 -44 44 -161 24 l-100 -18
0 -131 0 -131 133 -67 c72 -37 224 -113 337 -168 133 -66 208 -108 212 -121 8
-22 44 -38 93 -42 l33 -2 -5 -48 -6 -47 131 0 130 0 7 43 c9 50 20 67 48 67
12 0 54 16 94 36 87 42 89 49 44 164 -44 113 -160 352 -182 376 -17 18 -18 27
-10 65 6 24 11 64 11 88 0 24 7 64 15 90 38 121 39 130 24 157 -7 14 -26 32
-41 40 -15 8 -28 21 -28 28 0 13 29 44 37 39 16 -13 42 2 56 32 23 48 21 108
-4 183 l-21 62 22 30 c12 17 21 32 19 33 -2 1 -14 8 -26 15 -13 6 -29 12 -36
12 -25 0 -77 64 -71 86 4 15 -5 36 -30 69 -20 25 -36 51 -36 56 0 14 -13 9
-30 -10z m-140 -1023 c0 -13 4 -29 9 -37 7 -10 1 -23 -22 -43 -46 -44 -81 -58
-139 -58 l-53 1 25 19 c14 11 36 31 50 44 33 33 113 95 123 95 4 1 7 -9 7 -21z"/>
<path d="M3995 1623 c6 -46 4 -53 -39 -123 -25 -41 -46 -80 -46 -86 0 -7 -18
-15 -40 -19 -22 -4 -40 -12 -40 -18 0 -7 16 -27 35 -46 32 -31 35 -38 35 -94
0 -93 19 -187 36 -180 25 9 15 -15 -16 -39 -45 -35 -51 -100 -16 -160 37 -63
35 -110 -8 -178 -33 -52 -34 -56 -18 -74 20 -22 17 -53 -8 -81 -9 -11 -27 -58
-39 -105 -33 -125 -50 -176 -91 -270 -21 -47 -41 -100 -45 -117 l-7 -33 374 0
c278 0 377 3 386 12 27 27 13 68 -44 131 -59 65 -107 155 -146 273 -13 39 -34
88 -46 108 -12 20 -22 40 -22 43 0 4 18 34 39 67 47 73 64 130 52 173 -8 28
-6 34 15 47 13 9 31 16 40 16 9 0 62 -26 117 -58 99 -55 104 -57 162 -53 33 3
88 5 123 4 l62 0 0 73 c0 68 -2 74 -21 74 -11 0 -53 13 -92 28 -40 16 -114 40
-166 53 -51 13 -95 29 -98 35 -2 7 38 72 90 145 51 74 109 155 127 182 26 36
31 50 22 59 -15 15 -6 26 -156 -189 -106 -153 -131 -183 -151 -183 -18 0 -25
6 -25 19 0 31 -21 41 -65 31 -22 -5 -52 -10 -67 -10 l-28 0 20 20 c11 11 23
34 27 51 3 16 10 32 14 35 5 3 9 12 9 21 0 8 9 26 20 40 24 31 25 66 3 103
-16 28 -13 54 13 116 3 8 -10 10 -38 8 -31 -2 -49 2 -63 16 -11 10 -47 34 -80
54 -52 31 -61 41 -70 78 -16 63 -39 64 -30 1z"/>
</g>
</svg>
