<?xml version="1.0" standalone="no"?>
<!DOCTYPE svg PUBLIC "-//W3C//DTD SVG 20010904//EN"
 "http://www.w3.org/TR/2001/REC-SVG-20010904/DTD/svg10.dtd">
<svg version="1.0" xmlns="http://www.w3.org/2000/svg"
 width="480.000000pt" height="360.000000pt" viewBox="0 0 480.000000 360.000000"
 preserveAspectRatio="xMidYMid meet">
<metadata>
Created by potrace 1.16, written by Peter Selinger 2001-2019
</metadata>
<rect width="1" height="360" fill="#000000"/>
<rect x="479" width="1" height="360" fill="#000000"/>
<rect width="480" height="1" fill="#000000"/>
<rect y="359" width="480" height="1" fill="#000000"/>
<g transform="translate(0.000000,360.000000) scale(0.100000,-0.100000)"
fill="#000000" stroke="none">
<path d="M0 1800 l0 -1800 1063 0 1063 0 17 108 c9 60 30 162 47 228 32 126
46 242 33 259 -10 13 -92 50 -96 44 -2 -2 -19 -26 -37 -54 -57 -85 -177 -238
-217 -277 -21 -21 -53 -40 -70 -44 -27 -5 -37 -1 -63 24 -18 18 -30 41 -30 57
0 37 49 128 118 220 77 103 97 123 130 131 39 10 44 14 32 29 -13 15 -5 55 11
55 5 0 9 9 9 20 0 13 10 24 25 30 15 6 25 17 25 29 0 10 7 24 15 31 8 7 15 20
15 29 0 10 11 45 24 79 l25 62 -29 0 c-31 0 -147 -33 -197 -57 -30 -14 -36
-13 -75 5 -24 11 -74 30 -113 42 -89 29 -104 45 -248 263 -63 94 -151 219
-196 276 -45 58 -81 113 -81 125 0 49 52 126 137 204 l85 79 -16 32 c-16 31
-16 34 5 68 12 19 39 55 61 80 21 24 38 48 38 53 0 5 9 11 20 15 11 3 27 18
36 33 9 15 43 50 75 77 32 28 58 54 59 58 0 10 48 51 114 98 28 20 76 60 107
90 65 63 136 101 249 131 44 12 80 25 80 30 0 5 -14 41 -31 81 -17 40 -37 99
-44 132 -22 94 -76 129 -132 85 -31 -24 -64 -19 -152 23 -81 39 -186 142 -235
230 -24 42 -49 73 -72 86 -21 13 -42 37 -54 63 -11 24 -35 64 -52 90 l-33 47
-722 0 -723 1 0 -1800z"/>
<path d="M4640 3591 c0 -6 7 -40 16 -78 21 -87 13 -266 -16 -408 -38 -180 -50
-240 -50 -255 1 -8 48 -59 105 -113 l105 -99 0 481 0 481 -80 0 c-44 0 -80 -4
-80 -9z"/>
<path d="M1610 3529 c0 -44 123 -135 209 -155 117 -28 73 17 -121 120 -49 25
-88 41 -88 35z"/>
<path d="M1694 3332 c48 -93 173 -200 269 -231 32 -11 43 -10 71 3 19 9 41 16
50 16 25 0 19 20 -23 86 -63 95 -67 97 -174 98 -81 1 -100 5 -146 29 -29 15
-55 27 -57 27 -3 0 2 -13 10 -28z"/>
<path d="M2200 3007 c0 -17 44 -147 60 -177 11 -21 13 -20 72 40 33 34 58 63
56 65 -5 5 -176 85 -182 85 -3 0 -6 -6 -6 -13z"/>
<path d="M2160 2585 c-33 -33 -41 -48 -33 -56 9 -9 20 -5 45 12 41 28 48 38
48 67 0 32 -10 28 -60 -23z"/>
<path d="M1785 2195 c-147 -153 -174 -186 -159 -192 25 -9 64 -51 64 -68 0 -7
-9 -17 -20 -20 -24 -8 -24 -12 -4 -60 8 -20 14 -47 12 -58 -3 -20 -7 -18 -47
18 l-44 40 6 -33 c9 -46 -26 -116 -54 -109 -10 3 -19 3 -19 0 0 -2 35 -41 78
-86 42 -45 106 -114 142 -153 l65 -71 101 -11 c74 -9 117 -9 165 0 71 13 99
27 77 39 -12 7 -59 1 -120 -16 -24 -6 -28 -4 -28 13 0 12 5 24 10 27 10 6 23
32 64 130 10 22 28 53 42 69 22 25 28 27 47 17 22 -13 80 -81 129 -155 l28
-41 0 40 c-1 82 -29 475 -35 485 -9 14 -200 110 -220 110 -8 0 -18 12 -21 28
-7 30 -45 102 -53 102 -3 0 -12 4 -20 9 -11 7 -9 13 8 30 25 25 27 53 6 71 -8
7 -12 16 -9 21 3 5 1 9 -4 9 -5 0 -89 -83 -187 -185z"/>
<path d="M3260 2318 c0 -6 13 -59 30 -117 16 -58 33 -122 38 -141 8 -33 10
-35 57 -38 30 -2 69 4 104 17 31 11 71 23 89 26 17 4 32 11 32 16 0 14 -193
164 -269 208 -76 45 -81 47 -81 29z"/>
<path d="M3515 2005 c-38 -13 -91 -24 -117 -25 -57 0 -54 12 -29 -157 11 -71
27 -186 35 -256 9 -71 32 -206 51 -300 19 -95 48 -246 65 -337 37 -199 62
-284 191 -635 55 -148 102 -276 104 -282 3 -10 111 -13 495 -13 l490 0 0 546
0 546 -52 57 c-50 54 -99 144 -112 206 -6 26 -20 37 -99 78 l-92 48 -89 -19
c-67 -14 -103 -16 -150 -10 -114 15 -234 92 -315 202 -37 50 -101 198 -101
233 0 10 -28 47 -63 81 -56 56 -67 62 -102 61 -22 0 -71 -11 -110 -24z"/>
<path d="M3827 1893 c-7 -7 49 -148 76 -190 62 -98 201 -193 304 -209 41 -6
161 9 186 23 5 3 -16 30 -45 61 -30 32 -74 85 -98 119 -37 53 -54 67 -114 96
-104 50 -297 113 -309 100z"/>
<path d="M4685 1359 c15 -51 54 -126 83 -159 l31 -35 1 103 0 102 -37 0 c-21
0 -49 3 -62 7 -21 5 -23 3 -16 -18z"/>
</g>
</svg>
