<?xml version="1.0" standalone="no"?>
<!DOCTYPE svg PUBLIC "-//W3C//DTD SVG 20010904//EN"
 "http://www.w3.org/TR/2001/REC-SVG-20010904/DTD/svg10.dtd">
<svg version="1.0" xmlns="http://www.w3.org/2000/svg"
 width="480.000000pt" height="360.000000pt" viewBox="0 0 480.000000 360.000000"
 preserveAspectRatio="xMidYMid meet">
<metadata>
Created by potrace 1.16, written by Peter Selinger 2001-2019
</metadata>
<rect width="1" height="360" fill="#000000"/>
<rect x="479" width="1" height="360" fill="#000000"/>
<rect width="480" height="1" fill="#000000"/>
<rect y="359" width="480" height="1" fill="#000000"/>
<g transform="translate(0.000000,360.000000) scale(0.100000,-0.100000)"
fill="#000000" stroke="none">
<path d="M4 3513 c3 -48 10 -91 15 -96 5 -5 71 -13 147 -18 195 -13 320 -26
457 -49 65 -11 152 -20 193 -20 73 0 75 -1 132 -46 31 -26 71 -61 87 -79 32
-34 86 -55 145 -55 59 0 130 -42 203 -119 37 -39 71 -71 76 -71 19 0 80 -81
88 -117 11 -51 8 -169 -5 -215 -13 -46 -6 -53 75 -71 82 -20 117 -38 121 -63
5 -33 -66 -46 -251 -49 -87 -2 -161 -6 -165 -10 -3 -3 2 -27 12 -53 29 -73 31
-159 6 -244 -33 -109 -62 -180 -87 -211 -13 -16 -23 -33 -23 -38 0 -5 -7 -26
-16 -47 l-16 -37 -29 35 -30 35 -19 -23 c-11 -13 -24 -43 -30 -65 -6 -23 -15
-49 -20 -57 -51 -78 -50 -70 -76 -606 l-6 -131 76 -62 c42 -35 94 -89 116
-121 22 -32 44 -61 50 -65 21 -13 39 -74 44 -150 3 -44 8 -114 12 -155 4 -57
1 -95 -15 -158 -20 -82 -20 -100 1 -219 l10 -63 1759 0 1759 0 0 1800 0 1800
-2401 0 -2402 0 7 -87z"/>
<path d="M729 1530 c24 -21 94 -28 120 -11 18 11 -2 17 -84 25 l-60 7 24 -21z"/>
</g>
</svg>
