<?xml version="1.0" standalone="no"?>
<!DOCTYPE svg PUBLIC "-//W3C//DTD SVG 20010904//EN"
 "http://www.w3.org/TR/2001/REC-SVG-20010904/DTD/svg10.dtd">
<svg version="1.0" xmlns="http://www.w3.org/2000/svg"
 width="480.000000pt" height="360.000000pt" viewBox="0 0 480.000000 360.000000"
 preserveAspectRatio="xMidYMid meet">
<metadata>
Created by potrace 1.16, written by Peter Selinger 2001-2019
</metadata>
<rect width="1" height="360" fill="#000000"/>
<rect x="479" width="1" height="360" fill="#000000"/>
<rect width="480" height="1" fill="#000000"/>
<rect y="359" width="480" height="1" fill="#000000"/>
<g transform="translate(0.000000,360.000000) scale(0.100000,-0.100000)"
fill="#000000" stroke="none">
<path d="M2831 3329 c-30 -10 -63 -27 -74 -36 -49 -44 -60 -131 -27 -223 11
-30 19 -58 20 -62 0 -4 -39 -33 -87 -65 -107 -70 -186 -149 -238 -238 -48 -83
-52 -94 -70 -217 -8 -54 -24 -116 -35 -138 -20 -40 -14 -54 11 -24 11 14 14
13 25 -8 8 -13 14 -36 14 -53 0 -16 3 -48 7 -70 6 -36 7 -37 13 -15 7 25 7 25
23 -10 14 -32 15 -33 17 -10 1 24 2 23 15 -7 13 -31 35 -45 35 -24 0 6 17 -6
38 -25 20 -19 45 -40 55 -45 16 -9 16 -7 -2 30 -27 52 -27 65 1 23 13 -22 23
-29 28 -22 10 16 20 -12 20 -54 0 -21 -11 -48 -30 -74 -27 -38 -28 -42 -13
-58 9 -9 29 -21 45 -26 18 -7 30 -19 34 -36 4 -15 29 -48 57 -74 l50 -46 -7
-77 c-4 -41 -9 -82 -13 -90 -3 -10 2 -15 16 -15 18 0 20 -5 17 -47 -2 -27 0
-50 5 -54 5 -3 15 -43 24 -90 l14 -84 -31 -78 c-25 -60 -36 -76 -48 -71 -39
17 -110 16 -136 -1 -26 -17 -27 -19 -20 -95 7 -87 8 -86 -94 -193 l-45 -47
-70 29 c-92 37 -408 141 -432 141 -10 1 -30 18 -44 38 -21 31 -26 50 -27 106
-2 80 -23 162 -53 200 -36 46 -74 59 -148 52 -36 -3 -76 -9 -87 -12 -19 -5
-23 -1 -29 35 -9 53 -27 53 -24 1 4 -46 -2 -53 -56 -70 -22 -7 -61 -24 -88
-38 -41 -22 -49 -32 -62 -74 -31 -106 -31 -115 6 -277 13 -58 100 -164 157
-191 46 -22 152 -50 192 -50 45 -1 53 -12 40 -56 -6 -22 -15 -113 -20 -204 -5
-98 -15 -187 -24 -220 -9 -30 -19 -85 -23 -122 l-6 -68 1162 0 c639 0 1161 3
1159 8 -2 4 -28 56 -58 115 -51 102 -54 113 -53 180 1 82 9 91 81 102 55 8
125 42 117 56 -4 5 5 19 19 30 35 28 33 35 -14 43 -33 5 -61 -1 -147 -34 -59
-22 -109 -40 -113 -40 -4 0 -12 37 -19 83 -7 45 -17 88 -23 94 -6 7 -8 22 -5
32 2 11 -2 46 -10 78 -8 32 -15 65 -15 73 0 8 -13 78 -29 154 -16 77 -29 141
-29 144 0 10 30 -21 30 -32 1 -20 42 -101 47 -90 2 6 14 9 27 7 37 -7 38 10 5
61 -24 35 -33 65 -41 124 -11 87 -5 219 11 235 8 8 11 7 11 -4 0 -18 59 -161
72 -174 10 -10 9 -4 -7 54 -5 16 -4 21 4 17 14 -9 14 17 0 67 -13 49 -3 62 13
16 19 -56 89 -189 98 -189 6 0 5 12 -1 27 -12 32 -39 156 -35 161 2 1 21 -24
42 -58 55 -85 62 -82 44 24 -5 33 -12 177 -15 320 -9 426 -18 541 -61 726 -32
136 -59 219 -101 302 -20 41 -33 81 -33 106 0 51 -16 95 -59 162 -48 76 -132
157 -188 183 -57 25 -149 27 -205 4 -34 -14 -39 -14 -75 4 -20 10 -47 19 -58
19 -11 0 -47 22 -78 49 -119 100 -193 123 -286 90z m202 -1678 l29 -52 -44
-38 c-23 -22 -44 -38 -46 -36 -2 1 0 44 4 94 5 60 11 90 18 88 6 -2 24 -27 39
-56z"/>
</g>
</svg>
