<?xml version="1.0" standalone="no"?>
<!DOCTYPE svg PUBLIC "-//W3C//DTD SVG 20010904//EN"
 "http://www.w3.org/TR/2001/REC-SVG-20010904/DTD/svg10.dtd">
<svg version="1.0" xmlns="http://www.w3.org/2000/svg"
 width="480.000000pt" height="360.000000pt" viewBox="0 0 480.000000 360.000000"
 preserveAspectRatio="xMidYMid meet">
<metadata>
Created by potrace 1.16, written by Peter Selinger 2001-2019
</metadata>
<rect width="1" height="360" fill="#000000"/>
<rect x="479" width="1" height="360" fill="#000000"/>
<rect width="480" height="1" fill="#000000"/>
<rect y="359" width="480" height="1" fill="#000000"/>
<g transform="translate(0.000000,360.000000) scale(0.100000,-0.100000)"
fill="#000000" stroke="none">
<path d="M1680 1712 c0 -4 16 -24 36 -43 20 -18 49 -53 64 -77 22 -33 46 -52
113 -86 110 -57 157 -89 171 -118 9 -19 294 -199 356 -226 8 -3 47 -24 85 -46
93 -53 296 -159 480 -252 143 -73 524 -275 630 -336 28 -16 144 -76 259 -134
192 -97 211 -105 222 -89 13 18 47 17 122 -2 35 -8 27 21 -15 55 -101 79 -173
124 -793 489 -107 64 -251 153 -320 198 -169 111 -311 202 -395 254 -38 24
-89 57 -113 72 -23 16 -45 29 -48 29 -3 0 -38 20 -77 43 -40 24 -116 67 -169
95 -83 44 -101 50 -123 42 -22 -8 -33 -5 -73 23 -85 60 -188 117 -210 117 -14
0 -27 -9 -34 -25 -6 -14 -15 -25 -19 -25 -5 0 -38 11 -75 25 -75 28 -74 28
-74 17z"/>
</g>
</svg>
