<?xml version="1.0" standalone="no"?>
<!DOCTYPE svg PUBLIC "-//W3C//DTD SVG 20010904//EN"
 "http://www.w3.org/TR/2001/REC-SVG-20010904/DTD/svg10.dtd">
<svg version="1.0" xmlns="http://www.w3.org/2000/svg"
 width="480.000000pt" height="360.000000pt" viewBox="0 0 480.000000 360.000000"
 preserveAspectRatio="xMidYMid meet">
<metadata>
Created by potrace 1.16, written by Peter Selinger 2001-2019
</metadata>
<rect width="1" height="360" fill="#000000"/>
<rect x="479" width="1" height="360" fill="#000000"/>
<rect width="480" height="1" fill="#000000"/>
<rect y="359" width="480" height="1" fill="#000000"/>
<g transform="translate(0.000000,360.000000) scale(0.100000,-0.100000)"
fill="#000000" stroke="none">
<path d="M0 2169 l0 -1431 89 4 c49 1 93 6 97 10 13 14 18 249 5 257 -8 6 -5
22 12 59 32 69 44 82 77 82 16 0 43 8 60 18 31 17 31 17 28 91 l-3 74 30 10
c17 5 36 14 42 20 16 12 17 54 1 59 -7 3 -5 13 7 31 22 34 28 34 46 0 11 -20
11 -27 2 -30 -15 -5 -17 -37 -3 -63 5 -10 23 -23 39 -28 l30 -10 -6 -74 -6
-74 39 -16 c22 -9 51 -19 65 -22 21 -5 31 -17 49 -66 14 -38 19 -64 13 -73 -5
-6 -10 -25 -12 -41 -4 -38 10 -28 59 45 23 32 44 59 48 59 4 0 26 -32 50 -71
38 -63 42 -77 42 -133 0 -46 4 -65 14 -69 8 -3 147 -11 308 -17 161 -6 303
-13 316 -16 13 -2 51 -32 85 -65 l62 -60 5 183 5 183 43 63 c23 34 44 62 46
62 2 0 24 -31 49 -70 l47 -69 -5 -203 c-3 -112 -7 -332 -10 -490 l-5 -288
1470 0 1470 0 0 1800 0 1800 -2400 0 -2400 0 0 -1431z m3258 525 c33 -23 44
-51 47 -116 4 -88 17 -101 127 -127 119 -28 122 -29 93 -65 -17 -21 -33 -29
-69 -33 -25 -3 -46 -7 -46 -8 0 -1 22 -26 50 -56 49 -53 49 -54 25 -57 -15 -2
-23 -8 -19 -14 5 -7 1 -9 -9 -5 -20 7 -55 -4 -57 -18 -1 -5 -7 -9 -12 -7 -6 2
-3 -8 6 -23 9 -14 12 -25 7 -25 -5 0 -11 6 -14 13 -8 20 -36 -25 -37 -59 0
-16 -5 -35 -12 -42 -21 -21 5 -13 78 24 38 19 89 38 113 41 39 5 43 4 38 -13
-3 -10 -8 -33 -12 -49 -3 -17 -19 -51 -35 -75 -17 -25 -30 -47 -30 -50 0 -3
80 -5 177 -4 l177 1 -29 -23 -29 -23 53 -23 c30 -12 49 -24 43 -26 -26 -8 -9
-22 51 -41 l62 -19 -45 -9 -45 -9 35 -18 c71 -38 78 -61 15 -52 -25 4 -45 3
-45 -1 0 -5 14 -25 31 -46 19 -23 24 -35 14 -30 -15 5 -16 3 -6 -15 10 -18 9
-22 -4 -22 -8 0 -15 -2 -15 -5 0 -13 45 -65 55 -65 6 0 20 -7 31 -16 18 -15
18 -15 -9 -9 -19 4 -26 2 -22 -5 9 -15 -22 -12 -56 6 -17 8 -33 13 -36 11 -11
-12 19 -46 47 -52 16 -4 30 -11 30 -16 0 -6 -8 -8 -17 -5 -10 2 -33 8 -52 11
-28 6 -33 5 -28 -8 3 -9 1 -18 -6 -20 -9 -3 -8 -8 2 -20 16 -21 5 -21 -29 -2
-32 18 -56 20 -42 3 5 -7 13 -24 17 -38 7 -21 2 -19 -40 18 -26 23 -52 42 -56
42 -11 0 -23 -46 -15 -58 3 -5 -1 -24 -10 -41 -16 -31 -31 -44 -21 -16 4 8 2
17 -3 20 -6 4 -10 15 -10 25 0 11 -10 22 -22 25 -13 4 -44 20 -71 36 -55 34
-57 34 -57 13 0 -43 -24 -95 -47 -100 -61 -16 -83 11 -99 121 -8 56 -49 105
-88 105 -19 0 -25 -12 -46 -91 -28 -102 -39 -117 -75 -101 -26 12 -47 68 -38
101 4 15 -4 23 -39 39 -49 21 -72 19 -59 -6 5 -10 5 -26 1 -37 -6 -17 -9 -14
-19 17 -7 20 -23 43 -36 52 -13 8 -25 25 -27 37 -4 30 -24 35 -31 8 -8 -29
-32 -18 -32 14 0 16 -9 33 -22 42 -30 21 -32 70 -2 78 11 3 36 3 55 0 29 -5
39 -1 71 31 21 20 53 44 72 54 27 13 37 26 46 62 7 25 13 50 15 55 8 24 -14
85 -35 99 -14 9 -25 30 -30 53 -4 20 -13 50 -21 65 -12 24 -12 33 5 75 23 60
19 142 -9 188 l-20 32 -61 -9 c-33 -4 -66 -11 -71 -15 -6 -3 -8 -1 -4 5 3 5 2
12 -4 14 -20 6 20 46 58 59 53 17 57 30 19 61 -35 30 -25 36 28 14 29 -13 35
-13 46 0 6 8 18 14 26 14 8 0 23 20 34 45 11 25 37 63 58 85 42 45 88 53 129
24z"/>
<path d="M3758 1903 c7 -3 16 -2 19 1 4 3 -2 6 -13 5 -11 0 -14 -3 -6 -6z"/>
<path d="M3802 1424 c7 -6 24 -15 38 -19 24 -7 24 -6 8 11 -10 10 -27 18 -38
19 -17 1 -19 -1 -8 -11z"/>
</g>
</svg>
