<?xml version="1.0" standalone="no"?>
<!DOCTYPE svg PUBLIC "-//W3C//DTD SVG 20010904//EN"
 "http://www.w3.org/TR/2001/REC-SVG-20010904/DTD/svg10.dtd">
<svg version="1.0" xmlns="http://www.w3.org/2000/svg"
 width="480.000000pt" height="360.000000pt" viewBox="0 0 480.000000 360.000000"
 preserveAspectRatio="xMidYMid meet">
<metadata>
Created by potrace 1.16, written by Peter Selinger 2001-2019
</metadata>
<rect width="1" height="360" fill="#000000"/>
<rect x="479" width="1" height="360" fill="#000000"/>
<rect width="480" height="1" fill="#000000"/>
<rect y="359" width="480" height="1" fill="#000000"/>
<g transform="translate(0.000000,360.000000) scale(0.100000,-0.100000)"
fill="#000000" stroke="none">
<path d="M1010 3577 c0 -13 9 -72 20 -132 27 -149 27 -173 -6 -185 -14 -6
-135 -10 -270 -10 -244 0 -284 -5 -284 -35 0 -29 40 -105 64 -120 23 -16 31
-16 103 -1 85 17 283 39 291 32 2 -3 -1 -21 -8 -41 -7 -20 -10 -68 -8 -108 l3
-72 -55 -21 c-30 -11 -90 -34 -133 -49 -112 -39 -169 -93 -118 -110 14 -4 21
-17 23 -43 l3 -37 53 4 54 3 -4 -58 c-3 -33 -11 -74 -19 -92 -21 -50 -4 -68
59 -64 48 2 50 1 61 -28 5 -17 13 -81 17 -143 9 -161 -20 -259 -111 -377 -54
-70 -86 -137 -79 -165 7 -27 -39 -144 -116 -295 -32 -63 -77 -159 -100 -213
-23 -53 -51 -108 -61 -121 -11 -14 -28 -43 -38 -66 -11 -25 -55 -77 -105 -125
-75 -73 -86 -88 -86 -118 0 -42 9 -50 142 -121 127 -67 205 -96 262 -96 43 0
225 -26 232 -33 4 -3 22 -68 79 -277 32 -118 58 -187 82 -222 l26 -38 208 0
c147 0 208 3 211 11 3 9 9 9 25 0 14 -7 96 -11 242 -11 l220 0 44 58 c25 32
73 100 107 152 l61 95 -6 -67 c-4 -36 -13 -88 -21 -114 -8 -26 -14 -64 -14
-86 l0 -38 99 0 c81 0 100 3 105 16 3 9 3 67 0 129 -8 140 12 416 33 463 26
54 137 147 200 166 37 12 46 -22 23 -83 -38 -97 -24 -163 59 -290 62 -93 66
-108 82 -273 l12 -128 692 0 693 0 7 48 c16 104 -1 351 -51 720 l-37 273 10
207 c6 114 21 277 34 362 32 216 32 495 -1 655 -24 116 -80 276 -109 310 -10
11 -26 40 -36 65 -68 160 -185 259 -362 304 -109 28 -475 24 -510 -5 -10 -9
-39 -23 -64 -33 -77 -28 -158 -112 -269 -277 -55 -83 -95 -147 -88 -143 7 4
28 19 47 33 22 16 33 20 29 11 -29 -81 -40 -124 -30 -128 6 -2 16 -34 23 -73
11 -63 28 -93 29 -51 1 10 10 0 23 -23 19 -36 22 -38 25 -17 l4 23 24 -26 c29
-31 23 -48 -31 -89 -19 -15 -35 -31 -35 -35 0 -5 14 -26 31 -47 21 -27 29 -46
26 -63 -3 -14 7 -50 22 -85 15 -34 31 -74 35 -91 11 -44 24 -55 68 -55 37 0
40 -2 34 -22 -3 -13 -6 -31 -6 -42 0 -14 -6 -17 -27 -14 -16 3 -37 8 -48 12
-20 8 -20 7 1 -11 11 -10 30 -25 43 -33 l23 -15 -18 -82 c-20 -94 -17 -89 -68
-127 -24 -18 -46 -47 -59 -78 -17 -40 -29 -54 -67 -73 l-48 -24 -48 45 c-75
69 -75 69 -127 24 -24 -22 -59 -62 -77 -90 -18 -28 -35 -49 -37 -46 -7 7 25
249 38 285 8 24 8 48 -2 99 -28 134 -9 826 26 991 14 69 14 75 -3 105 -25 43
-58 58 -116 53 -69 -6 -91 -33 -82 -102 4 -27 10 -87 14 -131 9 -102 -13 -850
-27 -924 -5 -30 -12 -153 -15 -272 -6 -280 -23 -319 -78 -182 -15 38 -36 76
-46 84 -10 9 -22 29 -26 45 -11 41 -80 104 -167 153 -58 32 -84 54 -119 101
-36 48 -49 60 -66 56 -17 -4 -32 7 -66 48 -70 83 -87 111 -94 158 -9 62 -27
93 -76 131 -23 18 -77 66 -120 107 -83 79 -98 108 -98 190 0 57 76 281 102
300 21 15 91 121 132 198 23 42 24 49 11 63 -14 15 -10 24 34 91 27 41 64 103
83 139 29 58 33 74 33 145 0 65 -4 87 -22 118 -13 21 -23 40 -23 42 0 2 15 7
34 10 43 8 106 81 106 122 0 50 -22 77 -70 90 -55 15 -109 8 -178 -23 -52 -23
-55 -23 -103 -8 -46 15 -51 15 -68 0 -9 -9 -25 -16 -35 -16 -15 0 -16 8 -10
70 l7 70 -122 0 c-120 0 -121 0 -121 -23z m-80 -862 c0 -19 -24 -30 -41 -19
-9 5 -7 11 6 21 24 17 35 17 35 -2z m118 -2217 c22 -45 83 -284 74 -293 -3 -3
-13 -5 -22 -5 -17 0 -32 55 -60 220 -6 36 -13 73 -15 83 -5 24 10 21 23 -5z"/>
</g>
</svg>
