<?xml version="1.0" standalone="no"?>
<!DOCTYPE svg PUBLIC "-//W3C//DTD SVG 20010904//EN"
 "http://www.w3.org/TR/2001/REC-SVG-20010904/DTD/svg10.dtd">
<svg version="1.0" xmlns="http://www.w3.org/2000/svg"
 width="480.000000pt" height="360.000000pt" viewBox="0 0 480.000000 360.000000"
 preserveAspectRatio="xMidYMid meet">
<metadata>
Created by potrace 1.16, written by Peter Selinger 2001-2019
</metadata>
<rect width="1" height="360" fill="#000000"/>
<rect x="479" width="1" height="360" fill="#000000"/>
<rect width="480" height="1" fill="#000000"/>
<rect y="359" width="480" height="1" fill="#000000"/>
<g transform="translate(0.000000,360.000000) scale(0.100000,-0.100000)"
fill="#000000" stroke="none">
<path d="M4295 1025 c-67 -8 -276 -34 -465 -59 -358 -47 -386 -50 -865 -91
-313 -27 -438 -41 -725 -81 -236 -32 -296 -47 -325 -78 -13 -14 -39 -27 -61
-31 -22 -3 -46 -7 -54 -9 -8 -1 -14 -8 -12 -14 1 -7 -5 -15 -15 -19 -18 -7
-53 -39 -53 -49 0 -4 6 -2 13 4 8 7 24 8 43 3 27 -7 26 -8 -21 -15 -60 -10
-395 -93 -403 -100 -3 -4 24 -6 60 -6 44 0 85 -7 122 -21 54 -21 58 -21 123
-6 38 9 112 21 166 27 94 10 99 9 115 -10 16 -20 21 -20 117 -10 295 32 703
100 1255 209 217 43 478 93 580 111 259 45 573 107 633 126 9 3 17 15 17 27 0
16 14 30 57 52 31 17 56 35 55 40 -3 15 -220 15 -357 0z"/>
</g>
</svg>
