<?xml version="1.0" standalone="no"?>
<!DOCTYPE svg PUBLIC "-//W3C//DTD SVG 20010904//EN"
 "http://www.w3.org/TR/2001/REC-SVG-20010904/DTD/svg10.dtd">
<svg version="1.0" xmlns="http://www.w3.org/2000/svg"
 width="480.000000pt" height="360.000000pt" viewBox="0 0 480.000000 360.000000"
 preserveAspectRatio="xMidYMid meet">
<metadata>
Created by potrace 1.16, written by Peter Selinger 2001-2019
</metadata>
<rect width="1" height="360" fill="#000000"/>
<rect x="479" width="1" height="360" fill="#000000"/>
<rect width="480" height="1" fill="#000000"/>
<rect y="359" width="480" height="1" fill="#000000"/>
<g transform="translate(0.000000,360.000000) scale(0.100000,-0.100000)"
fill="#000000" stroke="none">
<path d="M1603 3523 c18 -165 -10 -393 -69 -558 -98 -274 -217 -432 -487 -642
-100 -78 -360 -185 -514 -213 -119 -21 -418 -12 -511 16 l-22 6 0 -1066 0
-1066 1325 0 1325 0 0 34 c0 82 54 319 115 505 73 224 82 262 129 536 20 110
42 231 50 270 9 45 11 75 5 87 -5 9 -15 57 -22 105 l-12 88 -46 22 c-51 24
-73 51 -83 104 -5 31 0 49 34 115 22 42 38 79 37 81 -5 5 -103 -30 -186 -66
-81 -36 -103 -34 -121 9 -13 32 -28 37 -49 18 -10 -11 -17 -8 -34 13 -20 24
-27 26 -87 22 -58 -4 -81 1 -210 45 -80 27 -163 57 -185 67 -22 9 -61 23 -87
30 -26 7 -60 22 -77 34 -37 26 -73 27 -96 1 -23 -26 -38 -26 -30 1 6 18 5 19
-13 8 -17 -10 -23 -10 -37 4 -24 24 -7 66 35 89 58 31 123 24 220 -22 62 -31
120 -48 229 -71 80 -16 166 -37 191 -45 61 -22 127 -6 136 32 5 18 11 23 23
18 40 -16 46 -15 58 17 14 35 2 35 173 9 75 -12 234 -10 246 3 4 4 -1 16 -11
28 -17 17 -17 22 -5 29 8 6 18 10 23 10 4 0 7 7 7 15 0 13 -7 15 -34 9 -33 -6
-36 -4 -58 36 -33 61 -42 76 -57 94 -12 14 -10 19 14 38 l27 21 -38 17 c-40
19 -63 51 -64 88 0 13 -4 21 -10 17 -22 -14 2 60 35 106 l36 51 -26 73 c-15
40 -25 83 -23 95 7 48 28 47 165 -4 70 -27 142 -59 159 -71 17 -13 50 -29 75
-35 33 -9 60 -28 110 -79 64 -64 68 -71 82 -142 9 -41 18 -114 22 -163 3 -57
13 -105 26 -135 16 -35 38 -158 39 -212 0 -3 26 -24 58 -47 85 -60 106 -85 99
-121 -3 -16 -2 -44 3 -61 6 -19 6 -39 1 -49 -6 -10 -3 -24 9 -41 9 -14 27 -44
39 -68 21 -42 22 -50 15 -250 -6 -176 -4 -215 10 -261 9 -30 16 -80 16 -111 0
-42 5 -64 20 -83 25 -31 25 -37 1 -37 -11 0 -27 10 -35 22 -22 32 -20 5 4 -41
10 -21 16 -41 13 -44 -12 -13 -45 16 -63 56 -25 57 -25 31 1 -38 23 -61 20
-78 -9 -52 -16 15 -19 15 -30 -4 -11 -16 -6 -35 32 -127 25 -59 81 -184 125
-278 45 -94 99 -225 120 -290 l39 -119 441 -3 441 -2 0 1800 0 1800 -1603 0
-1603 0 9 -77z"/>
<path d="M3500 1468 c0 -29 5 -60 10 -68 7 -11 10 3 10 47 0 34 -4 65 -10 68
-6 4 -10 -14 -10 -47z"/>
</g>
</svg>
