<?xml version="1.0" standalone="no"?>
<!DOCTYPE svg PUBLIC "-//W3C//DTD SVG 20010904//EN"
 "http://www.w3.org/TR/2001/REC-SVG-20010904/DTD/svg10.dtd">
<svg version="1.0" xmlns="http://www.w3.org/2000/svg"
 width="480.000000pt" height="360.000000pt" viewBox="0 0 480.000000 360.000000"
 preserveAspectRatio="xMidYMid meet">
<metadata>
Created by potrace 1.16, written by Peter Selinger 2001-2019
</metadata>
<rect width="1" height="360" fill="#000000"/>
<rect x="479" width="1" height="360" fill="#000000"/>
<rect width="480" height="1" fill="#000000"/>
<rect y="359" width="480" height="1" fill="#000000"/>
<g transform="translate(0.000000,360.000000) scale(0.100000,-0.100000)"
fill="#000000" stroke="none">
<path d="M0 1800 l0 -1800 904 0 904 0 23 36 c12 20 22 50 21 66 -1 34 48 178
84 250 27 52 32 149 13 243 -9 47 -26 239 -29 330 0 22 -7 49 -15 59 -15 19
-15 19 -29 1 -13 -18 -14 -18 -26 4 -12 24 -10 64 10 143 8 33 8 52 1 66 -13
24 -3 54 67 203 28 59 61 114 73 123 19 13 22 23 20 66 -2 48 -1 51 28 56 l29
6 -72 72 c-40 40 -80 90 -91 112 -26 55 -31 125 -12 164 15 30 15 31 -9 40
-13 5 -24 12 -24 15 0 15 46 65 60 65 22 0 62 29 55 41 -4 5 -19 9 -35 9 -16
0 -50 10 -75 22 -45 22 -58 38 -30 38 8 0 15 6 15 13 0 7 6 21 13 32 13 17 15
17 44 -5 20 -14 38 -20 51 -16 17 6 19 11 11 39 -4 18 -15 76 -24 129 -14 86
-14 102 -1 133 8 19 19 35 24 35 5 0 32 -18 60 -40 27 -22 54 -40 59 -40 6 0
18 10 29 21 24 27 91 58 124 59 18 0 42 17 79 55 30 30 57 55 62 55 5 0 9 201
9 450 l0 450 -1200 0 -1200 0 0 -1800z"/>
<path d="M2400 1350 l0 -1350 305 0 306 0 -13 21 c-33 54 -37 65 -32 84 5 21
-28 123 -71 221 -28 62 -33 155 -15 289 5 39 12 157 16 264 l7 194 25 -42 c28
-48 39 -51 53 -13 9 21 8 42 -5 92 -9 36 -18 85 -21 109 -7 56 -98 257 -133
294 -21 22 -27 38 -27 75 0 38 -4 49 -22 56 -20 9 -17 14 51 80 89 88 120 148
114 222 -3 38 -12 61 -31 84 -15 17 -27 40 -27 50 0 10 -12 23 -30 30 -42 17
-45 26 -17 56 16 17 27 22 31 15 11 -16 43 -13 50 5 3 9 6 27 6 40 0 26 -26
32 -59 15 -9 -5 -23 -6 -30 -2 -11 7 -10 23 3 86 35 167 30 265 -12 265 -9 0
-40 -20 -67 -44 l-50 -44 -37 34 c-22 19 -61 40 -93 50 -44 12 -68 27 -104 65
-26 27 -53 49 -59 49 -9 0 -12 -317 -12 -1350z m449 654 c37 -19 51 -41 51
-86 0 -46 -28 -87 -100 -147 -80 -67 -99 -77 -106 -56 -8 20 -1 47 28 117 23
53 25 55 37 36 10 -17 15 -18 22 -7 6 11 11 11 21 1 20 -20 28 -14 21 20 -5
26 -4 30 10 25 22 -8 22 -7 -8 49 -14 25 -22 50 -19 55 7 12 6 12 43 -7z
m-175 -256 c9 -36 7 -41 -9 -28 -16 13 -21 50 -6 50 5 0 11 -10 15 -22z m-147
-30 c-3 -8 -6 -5 -6 6 -1 11 2 17 5 13 3 -3 4 -12 1 -19z m66 -13 c9 -20 17
-38 17 -40 0 -3 -18 -5 -40 -5 -22 0 -40 2 -40 5 0 11 34 75 40 75 3 0 14 -16
23 -35z m232 -1203 c-13 -13 -23 22 -12 42 11 20 12 20 15 -7 2 -16 1 -32 -3
-35z"/>
<path d="M1972 2003 c-68 -58 -56 -128 34 -214 57 -53 103 -89 115 -89 5 0 9
14 9 30 0 34 -25 90 -40 90 -5 0 -16 14 -25 30 -18 35 -35 39 -42 10 -8 -31
-23 -24 -23 11 0 17 -4 28 -10 24 -13 -8 -13 -2 6 55 24 72 17 87 -24 53z"/>
<path d="M2157 1758 c-19 -50 -19 -54 -2 -37 9 9 15 25 13 35 -5 18 -5 18 -11
2z"/>
<path d="M1990 540 c0 -27 2 -50 4 -50 2 0 13 15 24 34 19 33 19 35 3 50 -27
24 -31 20 -31 -34z"/>
</g>
</svg>
