<?xml version="1.0" standalone="no"?>
<!DOCTYPE svg PUBLIC "-//W3C//DTD SVG 20010904//EN"
 "http://www.w3.org/TR/2001/REC-SVG-20010904/DTD/svg10.dtd">
<svg version="1.0" xmlns="http://www.w3.org/2000/svg"
 width="480.000000pt" height="360.000000pt" viewBox="0 0 480.000000 360.000000"
 preserveAspectRatio="xMidYMid meet">
<metadata>
Created by potrace 1.16, written by Peter Selinger 2001-2019
</metadata>
<rect width="1" height="360" fill="#000000"/>
<rect x="479" width="1" height="360" fill="#000000"/>
<rect width="480" height="1" fill="#000000"/>
<rect y="359" width="480" height="1" fill="#000000"/>
<g transform="translate(0.000000,360.000000) scale(0.100000,-0.100000)"
fill="#000000" stroke="none">
<path d="M4284 3554 c9 -68 26 -97 70 -118 35 -17 46 -18 100 -7 121 24 121
24 137 4 28 -32 53 -116 53 -178 1 -52 -4 -68 -33 -113 -43 -68 -34 -80 44
-57 56 16 57 16 101 -10 l44 -26 0 276 0 275 -261 0 -262 0 7 -46z"/>
<path d="M2466 2930 c-14 -17 -30 -48 -36 -69 -6 -22 -10 -176 -10 -367 0
-288 -12 -572 -26 -612 -3 -10 -18 -5 -57 18 -96 57 -181 93 -228 98 -39 4
-61 -2 -113 -26 -78 -36 -101 -69 -111 -153 -7 -55 -9 -59 -33 -59 -56 0 -164
-76 -196 -138 -8 -15 -17 -50 -21 -77 -4 -28 -20 -77 -36 -110 -17 -34 -39
-103 -49 -155 -29 -136 -14 -186 66 -216 35 -13 52 -14 84 -6 48 12 36 31 111
-173 67 -183 209 -503 266 -600 26 -44 86 -122 141 -180 l97 -103 643 -1 c353
-1 642 2 642 5 0 4 -64 73 -143 153 -78 80 -233 239 -345 354 -111 114 -202
215 -202 225 0 9 14 82 30 162 51 247 50 341 -11 620 -38 176 -93 330 -117
330 -4 0 -19 11 -33 24 -21 20 -29 40 -38 103 -17 117 -41 447 -41 570 0 129
-16 322 -30 357 -7 21 -16 26 -42 26 -18 0 -42 7 -52 15 -34 26 -81 19 -110
-15z"/>
</g>
</svg>
