<?xml version="1.0" standalone="no"?>
<!DOCTYPE svg PUBLIC "-//W3C//DTD SVG 20010904//EN"
 "http://www.w3.org/TR/2001/REC-SVG-20010904/DTD/svg10.dtd">
<svg version="1.0" xmlns="http://www.w3.org/2000/svg"
 width="480.000000pt" height="360.000000pt" viewBox="0 0 480.000000 360.000000"
 preserveAspectRatio="xMidYMid meet">
<metadata>
Created by potrace 1.16, written by Peter Selinger 2001-2019
</metadata>
<rect width="1" height="360" fill="#000000"/>
<rect x="479" width="1" height="360" fill="#000000"/>
<rect width="480" height="1" fill="#000000"/>
<rect y="359" width="480" height="1" fill="#000000"/>
<g transform="translate(0.000000,360.000000) scale(0.100000,-0.100000)"
fill="#000000" stroke="none">
<path d="M0 1800 l0 -1800 2400 0 2400 0 0 1800 0 1800 -2400 0 -2400 0 0
-1800z m2314 1015 c3 -8 16 -15 28 -15 42 0 49 -13 28 -45 -28 -42 -25 -55 12
-55 24 0 42 10 71 38 l38 37 88 0 c87 0 88 0 157 -46 38 -25 79 -52 92 -58 12
-6 22 -16 22 -21 0 -17 -52 -11 -108 12 -60 25 -75 18 -87 -38 -6 -32 -6 -32
59 -54 51 -17 74 -31 104 -65 21 -24 50 -47 65 -50 15 -4 24 -11 21 -16 -3 -5
2 -9 11 -9 20 0 67 -35 58 -43 -3 -4 -15 -1 -27 5 -19 10 -19 8 3 -16 24 -26
24 -26 3 -26 -12 0 -22 -5 -22 -11 0 -7 -18 -9 -50 -5 -39 4 -50 2 -50 -9 0
-23 -18 -27 -50 -10 -17 9 -30 11 -30 5 0 -5 5 -10 12 -10 6 0 9 -2 6 -5 -3
-3 -18 -1 -33 5 -16 6 -32 7 -37 2 -10 -10 20 -102 33 -102 5 0 23 15 39 34
17 18 43 39 60 46 46 19 60 1 60 -76 0 -34 4 -65 8 -68 4 -2 46 -9 92 -15 160
-21 160 -21 160 -43 0 -14 -5 -18 -17 -14 -24 7 -165 27 -169 23 -1 -1 36 -19
84 -39 l87 -36 65 14 c146 32 370 30 370 -3 0 -9 6 -13 14 -10 9 4 14 -2 14
-19 0 -36 41 -75 72 -67 23 6 24 5 11 -11 -12 -14 -12 -16 3 -10 9 3 16 1 16
-5 0 -6 10 -11 23 -11 17 0 19 -2 8 -9 -20 -13 -22 -39 -4 -49 13 -8 13 -11
-1 -25 -12 -12 -13 -17 -3 -21 9 -5 9 -7 -1 -12 -10 -5 -10 -9 0 -22 11 -13 9
-15 -17 -9 -29 7 -30 7 -6 -6 l23 -14 -23 -6 c-12 -3 -29 -2 -37 2 -18 10
-115 -47 -105 -62 4 -6 0 -8 -10 -4 -10 3 -17 2 -17 -4 0 -5 -18 0 -40 11 -55
28 -60 25 -20 -11 21 -19 25 -25 10 -15 -99 63 -108 66 -261 92 -107 17 -173
34 -215 53 -59 28 -146 47 -162 37 -5 -3 -2 -33 7 -66 12 -45 13 -65 5 -78
-17 -26 -41 -26 -67 2 l-23 25 -11 -30 c-24 -62 -66 -21 -62 59 3 45 3 46 -31
54 -19 5 -73 5 -120 1 -47 -4 -96 -7 -110 -6 -30 3 -52 30 -45 54 3 10 2 20
-3 23 -5 3 -109 13 -231 21 -218 16 -308 16 -203 1 41 -6 55 -13 62 -30 4 -11
24 -30 44 -40 38 -20 40 -24 27 -45 -7 -10 -23 -5 -76 27 -37 23 -107 54 -157
71 l-91 30 -25 -19 c-34 -28 -52 -25 -65 9 -12 31 -31 41 -85 41 -54 0 -101
34 -102 73 0 20 40 22 170 7 159 -19 265 -29 453 -44 l189 -16 26 32 c30 35
112 186 112 206 0 6 -4 12 -9 12 -5 0 -14 21 -20 48 -20 81 -32 102 -67 117
-19 8 -39 26 -46 40 -11 24 -9 29 12 46 57 44 104 29 99 -31 -2 -14 7 -41 19
-60 12 -19 22 -39 22 -43 0 -5 5 -5 10 -2 6 3 10 13 10 22 0 8 9 26 19 40 17
20 18 29 9 49 -8 17 -18 24 -30 21 -20 -6 -69 48 -62 67 2 6 -4 16 -14 21 -33
18 -103 69 -149 109 -66 59 -54 95 24 71 23 -7 23 -7 8 29 -18 43 -19 73 -2
79 24 10 45 7 51 -8z"/>
<path d="M2490 2158 c-7 -18 -30 -60 -51 -93 -45 -72 -59 -115 -36 -115 19 0
143 103 158 131 8 15 5 29 -13 61 -29 53 -42 57 -58 16z"/>
<path d="M2870 2070 c0 -11 109 -45 117 -36 7 6 -82 46 -103 46 -8 0 -14 -4
-14 -10z"/>
</g>
</svg>
