<?xml version="1.0" standalone="no"?>
<!DOCTYPE svg PUBLIC "-//W3C//DTD SVG 20010904//EN"
 "http://www.w3.org/TR/2001/REC-SVG-20010904/DTD/svg10.dtd">
<svg version="1.0" xmlns="http://www.w3.org/2000/svg"
 width="480.000000pt" height="360.000000pt" viewBox="0 0 480.000000 360.000000"
 preserveAspectRatio="xMidYMid meet">
<metadata>
Created by potrace 1.16, written by Peter Selinger 2001-2019
</metadata>
<rect width="1" height="360" fill="#000000"/>
<rect x="479" width="1" height="360" fill="#000000"/>
<rect width="480" height="1" fill="#000000"/>
<rect y="359" width="480" height="1" fill="#000000"/>
<g transform="translate(0.000000,360.000000) scale(0.100000,-0.100000)"
fill="#000000" stroke="none">
<path d="M1359 2865 c-11 -25 -26 -45 -33 -45 -19 0 -40 -27 -27 -34 12 -8 3
-72 -17 -111 -8 -16 -34 -54 -58 -83 -48 -58 -60 -87 -46 -105 5 -7 13 -25 17
-42 4 -16 10 -24 12 -17 8 20 20 14 67 -32 34 -32 51 -42 69 -39 25 5 53 -19
42 -37 -3 -6 -22 -17 -41 -25 -37 -15 -42 -30 -20 -60 12 -16 7 -24 -49 -79
-60 -59 -71 -75 -114 -161 -36 -70 -22 -118 41 -151 l31 -16 -7 -85 c-4 -51
-13 -97 -24 -115 -31 -54 -38 -66 -51 -82 -7 -9 -10 -23 -7 -33 6 -15 -9 -72
-63 -245 -10 -34 -14 -63 -9 -72 5 -8 2 -57 -7 -113 -40 -267 -78 -588 -91
-778 -7 -117 -18 -233 -23 -258 l-8 -47 482 0 481 0 -32 198 c-18 108 -42 283
-54 387 -15 130 -34 238 -61 343 -32 125 -93 324 -116 380 -2 6 2 12 11 12 22
0 20 12 -4 33 -11 9 -20 25 -20 35 0 19 24 88 60 171 l23 53 -16 111 c-9 60
-13 115 -9 121 12 16 13 58 1 72 -6 7 -4 26 6 54 8 23 15 53 15 66 0 27 -57
189 -78 222 -11 18 -12 25 -2 37 7 8 9 22 6 31 -5 13 -4 14 7 6 8 -7 17 -8 21
-4 5 4 7 -2 6 -13 -4 -35 0 -39 20 -20 11 10 20 15 20 11 0 -4 10 -2 22 5 18
9 20 9 15 -4 -7 -19 18 -30 41 -18 9 5 19 9 22 8 18 -3 39 25 54 71 l18 52
-33 93 c-18 50 -36 97 -41 103 -4 6 -5 26 -2 43 6 27 2 37 -24 64 -17 18 -48
52 -69 76 -41 47 -101 80 -145 81 -15 0 -48 5 -72 12 -38 10 -48 9 -70 -5 -25
-17 -26 -17 -26 3 0 34 -20 22 -41 -25z"/>
<path d="M3475 2176 c-17 -7 -47 -33 -67 -57 -20 -24 -54 -62 -75 -85 l-38
-41 -60 10 c-33 6 -78 7 -100 3 -46 -9 -105 -63 -105 -97 0 -34 43 -88 109
-139 33 -25 64 -56 70 -69 19 -39 24 -106 11 -131 -11 -20 -10 -22 5 -16 15 5
17 2 12 -27 -6 -41 -30 -94 -57 -127 -11 -14 -34 -72 -51 -130 -17 -58 -50
-142 -74 -187 l-44 -81 23 -49 c13 -26 28 -67 35 -90 10 -38 51 -85 82 -95 8
-3 1 -48 -25 -158 -64 -268 -68 -284 -93 -328 -24 -42 -24 -44 -7 -63 10 -11
50 -30 90 -41 80 -24 84 -29 84 -129 l0 -49 79 0 80 0 7 58 c8 69 9 71 34 65
15 -4 22 -20 31 -64 l12 -59 73 0 73 0 6 37 c4 21 7 45 8 53 2 11 20 17 64 22
71 8 103 22 103 45 0 9 -18 71 -40 138 -33 104 -100 373 -100 405 0 5 9 10 20
10 11 0 34 13 52 29 27 24 32 36 34 78 0 27 7 59 13 72 17 30 11 49 -59 196
-33 69 -60 130 -60 135 0 5 -16 43 -35 85 -26 58 -32 81 -25 98 5 12 12 48 15
81 l7 58 31 -7 c119 -25 185 -15 206 31 28 63 4 122 -82 196 l-42 36 29 111
c15 62 26 122 22 135 -3 13 -21 37 -40 52 -109 92 -113 94 -163 94 -26 -1 -62
-7 -78 -14z m82 -768 c-3 -8 -6 -5 -6 6 -1 11 2 17 5 13 3 -3 4 -12 1 -19z
m-363 -537 c6 -9 -12 -71 -20 -71 -3 0 -14 9 -25 19 -18 16 -19 22 -7 40 13
21 42 28 52 12z m476 -71 c0 -18 -26 -40 -48 -40 -5 0 -14 11 -20 24 -12 26
-10 27 56 35 6 0 12 -8 12 -19z"/>
</g>
</svg>
