<?xml version="1.0" standalone="no"?>
<!DOCTYPE svg PUBLIC "-//W3C//DTD SVG 20010904//EN"
 "http://www.w3.org/TR/2001/REC-SVG-20010904/DTD/svg10.dtd">
<svg version="1.0" xmlns="http://www.w3.org/2000/svg"
 width="480.000000pt" height="360.000000pt" viewBox="0 0 480.000000 360.000000"
 preserveAspectRatio="xMidYMid meet">
<metadata>
Created by potrace 1.16, written by Peter Selinger 2001-2019
</metadata>
<rect width="1" height="360" fill="#000000"/>
<rect x="479" width="1" height="360" fill="#000000"/>
<rect width="480" height="1" fill="#000000"/>
<rect y="359" width="480" height="1" fill="#000000"/>
<g transform="translate(0.000000,360.000000) scale(0.100000,-0.100000)"
fill="#000000" stroke="none">
<path d="M0 1800 l0 -1800 263 0 263 0 105 126 c57 69 112 143 122 165 16 36
17 43 2 100 -15 56 -15 65 -1 100 9 22 16 62 16 89 0 39 4 52 19 60 17 9 18
15 10 39 -9 25 -7 33 11 51 18 18 21 31 18 79 -3 65 9 88 49 93 21 2 29 13 48
65 12 35 28 69 34 77 8 10 9 16 1 21 -14 8 -13 78 2 110 6 14 33 39 60 56 27
18 47 37 45 43 -5 16 -96 48 -118 41 -11 -4 -38 -31 -60 -61 -42 -55 -59 -66
-59 -38 0 20 17 53 42 80 22 25 71 201 56 206 -5 2 -2 23 7 47 17 48 14 61
-10 41 -19 -15 -19 -7 -1 28 7 15 17 38 21 51 7 23 6 24 -29 18 -20 -3 -36 -5
-36 -3 0 1 22 17 49 34 l48 32 12 100 c6 55 11 129 11 164 l0 63 -57 13 c-74
16 -216 60 -226 70 -4 4 0 23 9 43 17 34 16 36 -8 79 -55 95 -41 135 43 125
43 -5 51 -3 100 33 28 22 61 42 71 46 14 4 18 12 14 27 -25 102 -13 220 38
363 39 108 86 182 159 251 106 100 224 143 397 143 114 0 102 -7 221 135 78
93 169 185 182 185 13 0 77 -130 121 -247 l47 -121 72 -35 c150 -72 267 -215
327 -400 27 -82 32 -221 11 -285 -14 -41 -13 -45 15 -104 16 -34 44 -86 62
-116 17 -30 32 -64 32 -76 0 -24 -38 -66 -58 -66 -7 0 -12 -4 -12 -8 0 -11 85
-260 105 -307 93 -219 167 -357 216 -405 65 -63 80 -119 19 -69 -14 11 -44 33
-68 50 l-43 31 -56 -39 c-31 -21 -67 -46 -82 -55 -40 -27 -87 -22 -143 13 -28
18 -67 34 -93 37 -40 4 -45 2 -45 -16 0 -32 -18 -36 -22 -5 -3 25 -7 28 -38
26 -37 -2 -150 -41 -150 -52 1 -7 174 -68 235 -82 37 -9 151 -79 167 -103 4
-6 12 -35 19 -64 9 -46 8 -56 -5 -71 -15 -16 -14 -22 9 -74 13 -31 32 -94 42
-142 l18 -85 38 0 c42 0 55 -16 38 -48 -5 -10 -12 -30 -15 -43 -3 -13 -10 -42
-15 -64 -18 -70 -13 -108 19 -152 16 -22 43 -46 60 -53 36 -15 37 -23 9 -49
-15 -14 -20 -27 -16 -43 5 -16 -1 -30 -18 -48 l-24 -25 24 -90 c13 -50 25 -93
25 -97 0 -5 457 -8 1015 -8 l1015 0 0 1800 0 1800 -1198 0 -1198 0 -17 -21
c-21 -24 -53 -21 -51 4 2 16 -70 17 -1167 17 l-1169 0 0 -1800z m4168 708 c18
-18 14 -38 -7 -38 -33 0 -51 11 -51 31 0 22 38 27 58 7z m-780 -753 c-4 -12
-98 -45 -98 -34 0 4 12 17 27 29 26 21 76 24 71 5z m-68 -725 c0 -6 -7 -13
-15 -16 -20 -8 -48 3 -40 16 8 13 55 13 55 0z"/>
<path d="M2301 118 c-4 -13 -11 -44 -14 -71 -6 -45 -6 -47 18 -47 24 0 25 3
25 64 0 68 -14 94 -29 54z"/>
</g>
</svg>
