<?xml version="1.0" standalone="no"?>
<!DOCTYPE svg PUBLIC "-//W3C//DTD SVG 20010904//EN"
 "http://www.w3.org/TR/2001/REC-SVG-20010904/DTD/svg10.dtd">
<svg version="1.0" xmlns="http://www.w3.org/2000/svg"
 width="480.000000pt" height="360.000000pt" viewBox="0 0 480.000000 360.000000"
 preserveAspectRatio="xMidYMid meet">
<metadata>
Created by potrace 1.16, written by Peter Selinger 2001-2019
</metadata>
<rect width="1" height="360" fill="#000000"/>
<rect x="479" width="1" height="360" fill="#000000"/>
<rect width="480" height="1" fill="#000000"/>
<rect y="359" width="480" height="1" fill="#000000"/>
<g transform="translate(0.000000,360.000000) scale(0.100000,-0.100000)"
fill="#000000" stroke="none">
<path d="M0 1800 l0 -1800 2400 0 2400 0 0 1800 0 1800 -1017 0 -1018 0 0
-142 c0 -126 -3 -150 -23 -200 -33 -83 -87 -159 -197 -277 -105 -114 -124
-142 -134 -210 l-8 -46 -12 30 c-22 56 -33 72 -135 197 -239 293 -256 323
-263 478 -3 52 -1 112 5 133 l10 37 -1004 0 -1004 0 0 -1800z m2351 803 c46
-89 50 -93 74 -93 60 0 121 -46 176 -132 l30 -46 77 -7 c185 -15 248 -42 346
-151 l69 -75 -11 -67 c-18 -106 -58 -143 -113 -103 -15 12 -31 21 -33 21 -3 0
-18 -24 -32 -52 -34 -69 -50 -85 -106 -114 -59 -30 -80 -30 -162 1 -80 30 -90
31 -115 6 -15 -15 -18 -29 -14 -67 3 -27 12 -59 19 -72 11 -17 12 -27 4 -42
-13 -25 1 -83 27 -112 12 -14 18 -37 19 -71 1 -58 14 -69 38 -32 13 19 16 37
11 65 -4 25 -2 40 6 46 19 11 39 -25 39 -72 0 -32 -7 -49 -29 -73 -49 -52
-103 -35 -117 37 -7 34 -24 54 -24 28 0 -8 4 -26 9 -40 6 -13 20 -98 31 -188
13 -93 43 -247 71 -360 27 -108 49 -201 49 -207 0 -6 -9 -11 -21 -11 -19 0
-20 -4 -14 -38 5 -33 4 -39 -12 -39 -10 1 -42 0 -71 -1 -50 -2 -52 -3 -46 -26
3 -13 1 -27 -5 -30 -18 -11 -12 -55 9 -73 41 -36 12 -103 -45 -103 -30 0 -68
38 -59 59 27 65 28 70 14 110 -7 23 -15 41 -17 41 -9 0 -59 -35 -70 -49 -21
-25 -15 -55 17 -83 17 -14 30 -33 30 -42 0 -15 -78 -56 -106 -56 -27 0 -38 45
-24 94 10 37 10 52 0 76 -12 29 -13 29 -71 23 -55 -5 -60 -4 -94 26 -21 18
-52 33 -75 37 -26 4 -45 15 -55 31 -9 14 -32 31 -51 39 -37 15 -40 24 -23 56
8 15 8 27 -2 44 -11 22 -8 30 40 97 134 186 150 215 140 250 -5 17 -9 45 -10
62 l-1 30 -8 -33 c-13 -53 -20 -49 -20 11 0 53 -10 71 -25 47 -12 -19 -25 1
-25 37 0 31 2 35 23 30 20 -6 22 -2 24 36 2 59 12 137 18 147 3 5 1 11 -5 15
-5 3 -10 -1 -10 -9 0 -9 -4 -16 -10 -16 -12 0 7 51 59 161 22 47 43 103 46
123 6 32 4 36 -14 36 -12 0 -21 -4 -21 -9 0 -19 -87 -51 -137 -51 -54 0 -69
10 -94 65 -12 25 -20 30 -46 27 -39 -4 -48 10 -30 45 8 15 18 55 22 88 12 98
83 181 234 269 42 25 82 49 89 53 7 4 20 39 28 76 18 90 37 122 88 159 40 28
44 35 54 95 6 35 8 71 5 79 -3 8 -1 14 4 14 5 0 20 -21 34 -47z"/>
<path d="M3085 2060 c-3 -5 -19 -10 -35 -10 -19 0 -36 -10 -54 -31 l-26 -31
35 -28 c41 -33 58 -31 74 8 22 56 26 125 6 92z"/>
<path d="M2800 1909 c-30 -5 -84 -23 -120 -40 l-65 -30 77 -31 c70 -28 80 -29
109 -18 42 18 86 56 104 91 8 15 15 30 15 34 0 7 -54 4 -120 -6z"/>
<path d="M1831 1894 c0 -11 3 -14 6 -6 3 7 2 16 -1 19 -3 4 -6 -2 -5 -13z"/>
<path d="M1806 1811 c-4 -7 -5 -15 -2 -18 9 -9 19 4 14 18 -4 11 -6 11 -12 0z"/>
<path d="M1875 1800 c-3 -5 5 -29 18 -52 27 -48 58 -60 117 -45 75 19 78 44
11 80 -50 28 -133 37 -146 17z"/>
</g>
</svg>
