<?xml version="1.0" standalone="no"?>
<!DOCTYPE svg PUBLIC "-//W3C//DTD SVG 20010904//EN"
 "http://www.w3.org/TR/2001/REC-SVG-20010904/DTD/svg10.dtd">
<svg version="1.0" xmlns="http://www.w3.org/2000/svg"
 width="480.000000pt" height="360.000000pt" viewBox="0 0 480.000000 360.000000"
 preserveAspectRatio="xMidYMid meet">
<metadata>
Created by potrace 1.16, written by Peter Selinger 2001-2019
</metadata>
<rect width="1" height="360" fill="#000000"/>
<rect x="479" width="1" height="360" fill="#000000"/>
<rect width="480" height="1" fill="#000000"/>
<rect y="359" width="480" height="1" fill="#000000"/>
<g transform="translate(0.000000,360.000000) scale(0.100000,-0.100000)"
fill="#000000" stroke="none">
<path d="M0 2835 c0 -726 3 -811 26 -750 4 9 14 19 23 24 9 4 149 5 311 0 361
-10 528 1 567 37 l24 23 -25 16 c-51 33 -25 55 65 55 70 0 107 -10 112 -30 8
-32 75 -42 215 -33 119 8 127 9 124 28 -2 11 -7 22 -11 25 -4 3 -13 27 -21 53
-8 32 -17 46 -26 43 -22 -8 -37 20 -24 44 14 27 5 70 -15 70 -31 0 -16 46 25
79 22 17 40 40 40 50 0 23 -28 35 -45 21 -7 -5 -25 -7 -41 -4 -22 4 -29 11
-29 30 0 16 6 24 18 24 10 0 31 10 47 22 30 22 34 21 90 -9 3 -2 12 25 19 59
37 174 52 218 90 252 20 19 21 27 21 328 l0 308 -790 0 -790 0 0 -765z"/>
<path d="M1580 1566 l0 -1415 -42 -3 -42 -3 -18 -60 c-26 -87 -26 -85 42 -85
l60 0 0 74 c0 82 3 86 68 84 19 -1 38 5 42 12 11 17 24 -4 59 -95 l27 -70 177
-3 c97 -1 177 1 177 5 0 5 -19 69 -41 143 -63 207 -62 194 -23 215 20 10 34
26 34 36 0 11 9 21 23 24 12 3 56 40 96 81 73 73 74 75 60 101 -8 15 -45 59
-83 98 -38 38 -70 79 -72 90 -1 11 -3 23 -3 27 -1 3 -37 48 -81 100 -46 53
-79 100 -76 108 2 8 16 60 31 115 14 55 33 124 41 154 l15 54 35 -48 c19 -27
34 -58 34 -69 0 -12 -12 -59 -25 -105 -14 -47 -25 -86 -25 -87 0 -2 16 4 36
12 25 11 40 12 47 5 7 -7 19 -5 39 7 36 21 44 34 53 92 5 30 19 57 42 83 l34
38 31 -68 c29 -62 32 -77 32 -168 1 -87 -3 -112 -32 -193 -17 -51 -32 -97 -32
-103 0 -5 17 -8 37 -7 l36 3 24 100 c34 142 28 229 -21 355 -67 170 -59 182
37 58 120 -154 146 -237 124 -396 -8 -51 -12 -94 -10 -96 2 -2 21 2 43 8 46
12 46 9 30 184 -13 146 -37 196 -172 355 -32 37 -58 72 -58 78 0 9 17 35 96
148 9 11 9 34 2 81 -12 80 -17 90 -56 115 -33 21 -52 53 -52 86 0 24 -91 114
-135 134 -17 7 -58 41 -93 74 -54 54 -65 60 -83 51 -16 -9 -26 -6 -54 17 -50
42 -45 59 20 78 70 21 122 77 166 183 40 97 49 174 23 203 -18 20 -18 22 4 82
28 80 29 123 1 138 -18 9 -26 6 -59 -26 l-38 -37 -21 47 c-12 26 -21 54 -21
61 0 37 -51 114 -76 114 -7 0 -30 -14 -50 -32 l-36 -32 -46 18 c-26 10 -83 20
-127 23 -56 4 -86 11 -100 23 -20 18 -59 40 -69 40 -3 0 -6 -636 -6 -1414z
m250 515 c0 -4 -14 -6 -30 -3 -24 3 -28 7 -19 18 8 10 16 11 30 3 10 -5 19
-13 19 -18z m115 -7 c34 -30 37 -34 15 -28 -26 7 -70 42 -70 56 0 15 15 8 55
-28z m103 -140 c46 -39 52 -54 23 -54 -12 0 -32 18 -50 45 -37 54 -29 57 27 9z
m-145 -403 c4 -4 -4 -29 -18 -55 -33 -62 -32 -76 3 -35 53 65 59 69 73 53 9
-11 9 -27 0 -71 -17 -88 -81 -283 -91 -283 -6 0 -19 14 -30 32 -14 24 -16 36
-8 51 13 25 12 121 -1 125 -18 6 -24 71 -11 137 l12 64 32 -6 c17 -3 34 -9 39
-12z"/>
<path d="M1428 2153 c6 -2 18 -2 25 0 6 3 1 5 -13 5 -14 0 -19 -2 -12 -5z"/>
<path d="M820 1861 c-10 -7 -1 -11 30 -13 25 -2 -156 -3 -402 -3 l-448 1 0
-923 0 -923 550 0 550 0 0 28 c0 15 9 69 20 120 42 193 68 406 51 426 -24 28
-51 190 -51 303 0 96 4 122 26 180 72 191 83 236 119 461 21 128 34 244 31
258 -6 22 -11 25 -34 20 -144 -31 -161 -31 -210 -6 -26 14 -53 37 -60 53 -13
26 -16 27 -85 27 -40 0 -79 -4 -87 -9z"/>
</g>
</svg>
