<?xml version="1.0" standalone="no"?>
<!DOCTYPE svg PUBLIC "-//W3C//DTD SVG 20010904//EN"
 "http://www.w3.org/TR/2001/REC-SVG-20010904/DTD/svg10.dtd">
<svg version="1.0" xmlns="http://www.w3.org/2000/svg"
 width="480.000000pt" height="360.000000pt" viewBox="0 0 480.000000 360.000000"
 preserveAspectRatio="xMidYMid meet">
<metadata>
Created by potrace 1.16, written by Peter Selinger 2001-2019
</metadata>
<rect width="1" height="360" fill="#000000"/>
<rect x="479" width="1" height="360" fill="#000000"/>
<rect width="480" height="1" fill="#000000"/>
<rect y="359" width="480" height="1" fill="#000000"/>
<g transform="translate(0.000000,360.000000) scale(0.100000,-0.100000)"
fill="#000000" stroke="none">
<path d="M3199 3441 c-54 -58 -73 -123 -67 -237 l5 -93 -45 -16 c-25 -8 -52
-15 -60 -15 -25 0 -164 -60 -227 -98 -76 -46 -187 -158 -219 -220 -13 -26 -32
-74 -41 -105 -9 -32 -32 -78 -51 -102 -35 -47 -36 -52 -3 -35 17 10 18 8 9
-15 -9 -25 3 -37 14 -12 3 6 3 -21 -1 -62 -4 -52 -3 -72 5 -67 7 4 14 -10 20
-36 l10 -43 2 40 2 40 10 -42 c5 -26 15 -43 24 -43 8 0 14 -8 14 -17 0 -15 2
-16 10 -3 5 8 10 10 10 4 0 -14 54 -74 67 -74 5 0 8 15 6 33 -4 30 -3 31 11
13 9 -11 16 -28 16 -39 0 -32 -29 -83 -60 -106 -39 -28 -38 -46 5 -73 25 -17
37 -33 41 -58 4 -19 11 -41 17 -49 17 -20 34 -51 61 -108 30 -61 48 -74 89
-62 16 5 34 6 38 3 12 -7 11 -55 -2 -93 -10 -29 -9 -34 10 -47 19 -13 21 -25
21 -98 0 -81 -1 -85 -60 -202 -33 -65 -60 -123 -60 -129 0 -5 -11 -34 -25 -62
-22 -49 -27 -53 -59 -53 -22 0 -45 -8 -61 -23 l-27 -22 16 -83 16 -82 -68
-105 c-60 -94 -69 -104 -92 -100 -80 17 -237 36 -395 50 l-180 15 -32 35 c-30
31 -33 41 -33 97 -1 183 -71 279 -194 265 -28 -4 -68 -9 -88 -13 l-38 -7 0 42
c0 22 -4 41 -10 41 -11 0 -20 -35 -17 -69 2 -21 -6 -28 -48 -44 -79 -30 -136
-61 -144 -77 -19 -38 -43 -153 -37 -183 3 -17 10 -61 16 -97 12 -72 31 -109
92 -181 59 -68 113 -88 338 -127 l44 -7 3 -150 c1 -83 6 -168 11 -190 l7 -40
1173 -3 c946 -2 1172 0 1172 11 0 13 -60 120 -119 213 -32 50 -61 174 -48 207
2 7 30 21 61 31 73 22 129 55 122 71 -2 7 6 23 20 36 34 32 30 39 -20 39 -35
0 -73 -14 -168 -61 l-123 -60 -8 33 c-4 18 -10 65 -12 103 -12 199 -33 403
-41 417 -3 4 2 8 11 8 9 0 22 -15 30 -34 8 -19 26 -51 39 -71 l25 -36 7 35 c3
20 7 95 8 168 l1 133 21 -88 c12 -48 24 -90 28 -94 3 -3 6 20 6 53 1 56 1 58
15 34 7 -14 12 -36 9 -50 -5 -23 -4 -23 7 -6 10 16 15 11 41 -50 45 -103 52
-103 44 1 -4 49 -9 107 -12 130 l-5 40 26 -48 c15 -27 28 -47 31 -44 3 2 -4
38 -16 78 -28 102 -50 242 -49 314 1 54 2 57 9 25 24 -99 131 -340 175 -395
19 -23 22 -40 -26 145 -16 63 -28 121 -26 130 1 8 24 -19 52 -64 28 -43 60
-90 73 -105 l24 -26 -6 25 c-6 29 -32 185 -82 500 -62 396 -103 565 -202 846
-27 76 -56 170 -66 208 -50 208 -156 317 -315 322 l-74 3 -59 88 c-191 285
-169 263 -259 263 -71 0 -73 -1 -110 -39z m681 -2365 c0 -25 -4 -19 -18 24
-11 32 -10 33 3 16 8 -11 15 -29 15 -40z m30 -600 c0 -3 -4 -8 -10 -11 -5 -3
-10 -1 -10 4 0 6 5 11 10 11 6 0 10 -2 10 -4z"/>
</g>
</svg>
