<?xml version="1.0" standalone="no"?>
<!DOCTYPE svg PUBLIC "-//W3C//DTD SVG 20010904//EN"
 "http://www.w3.org/TR/2001/REC-SVG-20010904/DTD/svg10.dtd">
<svg version="1.0" xmlns="http://www.w3.org/2000/svg"
 width="480.000000pt" height="360.000000pt" viewBox="0 0 480.000000 360.000000"
 preserveAspectRatio="xMidYMid meet">
<metadata>
Created by potrace 1.16, written by Peter Selinger 2001-2019
</metadata>
<rect width="1" height="360" fill="#000000"/>
<rect x="479" width="1" height="360" fill="#000000"/>
<rect width="480" height="1" fill="#000000"/>
<rect y="359" width="480" height="1" fill="#000000"/>
<g transform="translate(0.000000,360.000000) scale(0.100000,-0.100000)"
fill="#000000" stroke="none">
<path d="M2002 3436 c-71 -14 -107 -31 -97 -46 3 -4 -2 -13 -10 -20 -8 -7 -15
-27 -15 -44 1 -60 38 -281 54 -320 l16 -39 50 7 c28 4 57 9 65 12 26 10 17
-19 -30 -93 -56 -91 -62 -113 -37 -143 13 -16 30 -23 57 -24 37 -1 39 -3 55
-51 9 -27 26 -70 38 -95 11 -25 29 -72 40 -105 12 -33 23 -67 27 -76 5 -13 -3
-18 -39 -23 -50 -8 -54 -14 -30 -51 16 -24 15 -25 -17 -42 -19 -10 -57 -40
-85 -68 -57 -55 -63 -71 -85 -220 l-14 -90 -38 -6 c-52 -8 -87 -29 -87 -51 0
-10 11 -40 26 -67 l25 -49 -37 -114 c-36 -111 -105 -255 -210 -435 -58 -98
-62 -120 -38 -198 11 -36 13 -70 8 -120 -7 -79 7 -145 37 -183 10 -14 19 -38
19 -54 0 -54 31 -183 55 -230 l24 -48 -49 -171 c-28 -94 -50 -172 -50 -175 0
-2 338 -4 750 -4 451 0 750 4 750 9 0 5 -45 121 -101 258 -109 269 -164 425
-204 573 -14 52 -45 135 -70 184 -33 66 -42 93 -34 102 6 7 8 18 4 23 -7 13
-20 207 -19 301 0 66 20 158 49 227 l16 37 26 -26 c26 -26 26 -28 24 -160 -4
-286 37 -592 104 -789 40 -114 101 -235 177 -346 59 -88 194 -252 213 -259 10
-4 12 -18 8 -53 -3 -31 -1 -51 6 -55 8 -5 11 9 11 43 0 28 3 50 8 49 17 -5 50
14 62 37 21 40 7 156 -34 283 -20 62 -34 117 -31 122 14 23 5 155 -16 226
l-22 74 27 38 c14 21 26 43 26 49 0 6 -28 69 -61 140 -34 70 -84 175 -111 233
-55 115 -77 195 -78 280 0 30 -4 69 -9 87 -7 25 -5 38 15 69 32 54 31 72 -8
82 -21 5 -34 15 -36 28 -2 10 -9 35 -16 54 -8 19 -26 76 -42 125 -15 50 -33
97 -41 106 -16 19 -17 60 -2 113 8 29 13 36 20 25 15 -24 10 17 -16 134 l-23
109 25 -24 c24 -21 25 -21 18 -3 -4 11 -23 61 -41 112 -32 90 -33 93 -17 130
11 28 14 57 10 110 l-5 72 26 -5 c20 -4 33 1 50 19 13 14 24 31 26 38 1 8 6
21 11 29 10 15 44 107 73 195 9 28 19 52 22 55 10 8 9 49 -1 55 -5 4 -7 10 -4
15 10 16 -38 38 -135 60 -74 17 -113 21 -175 17 -100 -7 -173 -32 -187 -62
l-10 -23 -37 25 c-32 22 -44 24 -115 21 -51 -2 -81 -8 -84 -16 -2 -7 -16 2
-35 22 -59 62 -219 89 -365 62z m795 -1611 c-13 -9 -14 -14 -5 -23 9 -9 8 -16
-5 -29 -16 -16 -17 -13 -17 62 0 44 3 91 7 105 6 21 10 14 21 -39 13 -58 13
-66 -1 -76z"/>
</g>
</svg>
