<?xml version="1.0" standalone="no"?>
<!DOCTYPE svg PUBLIC "-//W3C//DTD SVG 20010904//EN"
 "http://www.w3.org/TR/2001/REC-SVG-20010904/DTD/svg10.dtd">
<svg version="1.0" xmlns="http://www.w3.org/2000/svg"
 width="480.000000pt" height="360.000000pt" viewBox="0 0 480.000000 360.000000"
 preserveAspectRatio="xMidYMid meet">
<metadata>
Created by potrace 1.16, written by Peter Selinger 2001-2019
</metadata>
<rect width="1" height="360" fill="#000000"/>
<rect x="479" width="1" height="360" fill="#000000"/>
<rect width="480" height="1" fill="#000000"/>
<rect y="359" width="480" height="1" fill="#000000"/>
<g transform="translate(0.000000,360.000000) scale(0.100000,-0.100000)"
fill="#000000" stroke="none">
<path d="M0 1800 l0 -1800 265 0 265 0 0 1800 0 1800 -265 0 -265 0 0 -1800z"/>
<path d="M2124 3583 c3 -10 19 -86 36 -169 17 -84 47 -198 67 -255 45 -130 47
-204 9 -369 -30 -135 -31 -156 -10 -210 9 -23 14 -43 11 -46 -8 -9 -423 15
-474 27 -39 8 -47 7 -59 -8 -7 -10 -14 -24 -14 -31 0 -7 -20 -33 -44 -58 -75
-76 -124 -202 -52 -135 12 12 25 21 29 21 13 0 7 -68 -9 -116 -24 -72 -14 -72
81 4 38 30 69 65 84 95 27 55 16 53 226 32 133 -13 373 -49 381 -57 2 -2 4
-32 6 -67 2 -53 -1 -65 -19 -79 -11 -10 -23 -30 -27 -45 -6 -27 -9 -28 -50
-22 -30 5 -54 2 -82 -11 -21 -9 -47 -16 -56 -15 -27 3 -98 -19 -98 -30 0 -6
-7 -8 -16 -5 -9 4 -24 0 -33 -8 -9 -8 -25 -16 -35 -17 -24 -5 -74 -85 -75
-121 -1 -33 52 -80 112 -97 23 -7 60 -25 82 -40 51 -36 72 -42 164 -50 l75 -6
41 -73 c50 -91 112 -171 161 -208 33 -25 46 -29 105 -29 53 0 71 4 89 20 30
27 55 79 70 145 18 83 18 83 45 113 27 29 24 33 -25 39 -22 3 -25 7 -22 41 2
21 8 55 15 75 13 38 17 41 137 77 55 17 266 111 285 128 6 5 3 13 -9 22 -10 8
-16 20 -14 27 5 14 -27 50 -36 40 -3 -3 -6 2 -6 12 0 12 -7 17 -22 16 -13 -1
-25 -1 -28 0 -3 1 -52 2 -108 3 l-104 2 6 37 c3 20 15 58 26 84 20 46 21 47
35 27 8 -12 44 -37 80 -57 53 -29 70 -34 85 -26 11 6 43 9 71 8 59 -3 73 11
29 30 -39 18 -48 52 -23 89 10 15 24 39 31 53 7 14 24 40 37 59 48 66 18 137
-63 148 -45 6 -49 11 -29 32 18 20 -31 4 -66 -21 -16 -11 -31 -17 -34 -14 -3
3 10 33 29 68 43 78 81 178 68 178 -6 0 -10 18 -10 41 0 22 -5 71 -11 108
l-11 68 -26 -26 c-24 -24 -26 -24 -33 -6 -4 11 -11 34 -14 50 -5 21 -9 25 -14
15 -9 -23 -31 -23 -31 0 0 11 -4 20 -9 20 -5 0 -17 3 -27 7 -14 5 -16 2 -12
-15 4 -13 1 -22 -5 -22 -6 0 -21 -12 -34 -27 l-22 -28 -1 24 0 24 -26 -24
c-15 -13 -45 -46 -67 -74 -38 -48 -75 -81 -82 -74 -2 2 12 49 30 104 19 55 31
102 28 105 -2 3 -15 -7 -27 -22 -26 -34 -36 -35 -36 -6 0 22 0 22 -20 3 -11
-11 -35 -49 -54 -84 -37 -70 -50 -70 -34 2 7 32 29 73 69 128 61 81 107 165
154 279 15 36 40 91 56 122 16 32 29 60 29 63 0 3 -187 5 -416 5 -391 0 -415
-1 -410 -17z"/>
<path d="M4270 1800 l0 -1800 265 0 265 0 0 1800 0 1800 -265 0 -265 0 0
-1800z"/>
</g>
</svg>
