<?xml version="1.0" standalone="no"?>
<!DOCTYPE svg PUBLIC "-//W3C//DTD SVG 20010904//EN"
 "http://www.w3.org/TR/2001/REC-SVG-20010904/DTD/svg10.dtd">
<svg version="1.0" xmlns="http://www.w3.org/2000/svg"
 width="480.000000pt" height="360.000000pt" viewBox="0 0 480.000000 360.000000"
 preserveAspectRatio="xMidYMid meet">
<metadata>
Created by potrace 1.16, written by Peter Selinger 2001-2019
</metadata>
<rect width="1" height="360" fill="#000000"/>
<rect x="479" width="1" height="360" fill="#000000"/>
<rect width="480" height="1" fill="#000000"/>
<rect y="359" width="480" height="1" fill="#000000"/>
<g transform="translate(0.000000,360.000000) scale(0.100000,-0.100000)"
fill="#000000" stroke="none">
<path d="M1603 3523 c10 -93 2 -255 -18 -375 -17 -94 -96 -318 -126 -357 -11
-13 -19 -28 -19 -33 0 -17 -102 -160 -164 -231 -57 -65 -130 -129 -234 -206
-118 -87 -349 -183 -509 -211 -120 -21 -418 -12 -511 16 l-22 6 0 -1066 0
-1066 1318 0 1318 0 27 169 c20 127 42 216 86 353 75 231 83 264 120 478 17
96 41 228 53 293 18 95 20 123 11 150 -7 17 -15 59 -19 92 -8 73 -17 91 -46
98 -40 10 -89 70 -95 116 -5 35 1 54 32 117 20 42 34 78 31 81 -8 8 -74 -12
-175 -53 -46 -19 -93 -34 -105 -32 -18 3 -35 25 -49 63 -2 6 -14 1 -26 -9 -23
-21 -23 -21 -39 10 -10 19 -23 22 -99 27 -74 4 -110 13 -227 56 -76 29 -151
58 -166 66 -15 8 -49 19 -76 26 -27 6 -62 22 -79 34 -43 32 -71 38 -111 25
-40 -13 -53 -8 -34 15 11 13 8 14 -19 9 -37 -8 -41 6 -8 30 22 16 22 16 -10
11 -42 -8 -49 8 -16 35 25 20 36 21 98 15 54 -5 94 -17 175 -55 74 -34 145
-57 243 -79 76 -17 158 -38 183 -47 68 -23 134 -4 134 38 0 15 4 18 18 13 41
-17 48 -16 60 10 7 14 18 28 25 31 8 3 59 -4 113 -14 98 -19 275 -25 290 -10
4 5 -1 17 -11 29 -17 17 -17 22 -5 29 8 6 18 10 23 10 4 0 7 7 7 15 0 13 -7
15 -33 10 -37 -7 -41 -4 -78 65 -13 25 -30 53 -38 62 -12 16 -11 20 10 37 24
20 24 20 4 35 -11 8 -27 16 -36 16 -17 0 -39 39 -39 70 0 11 -4 20 -9 20 -8 0
-9 22 -2 62 0 3 17 27 36 53 l36 46 -26 64 c-31 78 -33 131 -6 140 25 7 254
-78 297 -110 17 -13 44 -27 60 -31 84 -20 184 -111 205 -186 17 -65 29 -149
29 -208 0 -33 11 -84 25 -125 14 -38 28 -95 31 -125 9 -90 11 -94 79 -144 83
-60 102 -88 87 -121 -8 -17 -8 -26 -1 -31 6 -3 8 -12 5 -19 -2 -7 0 -17 6 -23
6 -6 6 -16 -2 -29 -10 -16 -7 -27 18 -68 43 -69 50 -114 56 -325 4 -125 10
-201 21 -234 8 -27 15 -75 15 -106 0 -43 5 -64 21 -84 29 -37 12 -54 -24 -26
l-27 22 9 -26 c6 -13 16 -34 23 -45 7 -11 9 -23 6 -27 -15 -14 -40 8 -59 52
-12 25 -22 44 -24 42 -6 -6 24 -99 36 -115 17 -20 2 -29 -23 -14 -17 10 -22
10 -29 0 -6 -10 -10 -10 -23 0 -9 8 -16 11 -16 8 0 -16 99 -245 168 -387 77
-160 138 -310 161 -397 l12 -43 444 0 445 0 0 1800 0 1800 -1603 0 -1603 0 9
-77z"/>
<path d="M3457 1624 c-30 -105 -48 -276 -36 -337 12 -57 67 -205 80 -212 12
-8 22 118 16 213 -15 250 -42 400 -60 336z"/>
</g>
</svg>
