<?xml version="1.0" standalone="no"?>
<!DOCTYPE svg PUBLIC "-//W3C//DTD SVG 20010904//EN"
 "http://www.w3.org/TR/2001/REC-SVG-20010904/DTD/svg10.dtd">
<svg version="1.0" xmlns="http://www.w3.org/2000/svg"
 width="480.000000pt" height="360.000000pt" viewBox="0 0 480.000000 360.000000"
 preserveAspectRatio="xMidYMid meet">
<metadata>
Created by potrace 1.16, written by Peter Selinger 2001-2019
</metadata>
<rect width="1" height="360" fill="#000000"/>
<rect x="479" width="1" height="360" fill="#000000"/>
<rect width="480" height="1" fill="#000000"/>
<rect y="359" width="480" height="1" fill="#000000"/>
<g transform="translate(0.000000,360.000000) scale(0.100000,-0.100000)"
fill="#000000" stroke="none">
<path d="M0 1800 l0 -1800 533 0 532 1 57 92 c68 110 286 387 403 512 68 73
105 125 192 275 125 216 259 475 301 581 16 40 51 136 77 212 38 111 45 140
35 152 -11 13 -14 13 -25 -2 -11 -14 -15 -15 -29 -4 -8 7 -21 11 -28 8 -29 -9
-80 31 -104 83 -13 29 -24 58 -24 64 0 7 -9 21 -20 31 -11 10 -20 26 -20 37 0
10 -7 18 -15 18 -20 0 -12 39 50 244 39 131 78 201 154 276 138 136 428 240
673 240 83 0 198 -22 261 -50 44 -20 162 -102 198 -139 9 -9 49 -43 89 -76 64
-52 78 -70 111 -140 58 -127 78 -277 60 -466 -9 -103 -41 -257 -102 -489 -17
-68 -21 -102 -16 -170 3 -47 3 -79 0 -72 -8 19 -23 14 -23 -9 0 -27 -20 -14
-21 14 -1 20 -2 21 -6 2 -3 -11 -10 -26 -16 -33 -7 -9 -2 -22 23 -47 19 -19
42 -37 52 -41 10 -3 18 -10 18 -15 0 -18 148 -184 282 -315 133 -132 220 -204
443 -369 185 -137 302 -232 395 -322 l85 -83 113 0 112 0 0 1800 0 1800 -2400
0 -2400 0 0 -1800z"/>
<path d="M2201 1495 c-17 -38 -38 -83 -47 -100 -53 -99 -96 -187 -92 -190 2
-3 22 19 43 48 22 28 42 54 45 57 34 33 130 170 130 185 0 5 -11 24 -24 40
l-24 30 -31 -70z"/>
<path d="M1864 747 c-79 -83 -134 -149 -159 -192 -31 -53 139 134 228 253 25
33 -8 5 -69 -61z"/>
<path d="M1822 527 c-54 -67 -134 -176 -176 -242 -43 -66 -87 -133 -98 -148
-11 -16 -30 -52 -44 -80 -20 -44 -21 -53 -8 -55 28 -7 40 5 93 99 50 89 217
332 308 451 42 55 52 81 34 92 -5 3 -54 -49 -109 -117z"/>
<path d="M1821 373 c-23 -37 -60 -97 -83 -133 -22 -36 -60 -104 -84 -152 l-44
-88 53 0 52 0 29 93 c16 50 51 148 77 216 27 68 47 126 45 128 -2 2 -22 -27
-45 -64z"/>
<path d="M3172 90 c3 -44 7 -82 10 -85 3 -3 56 -4 119 -3 l113 3 -64 51 c-60
48 -163 114 -177 114 -3 0 -3 -36 -1 -80z"/>
<path d="M1905 60 c-14 -27 -25 -52 -25 -55 0 -3 19 -5 41 -5 41 0 41 0 35 31
-3 17 -6 42 -6 55 0 38 -18 28 -45 -26z"/>
</g>
</svg>
