<?xml version="1.0" standalone="no"?>
<!DOCTYPE svg PUBLIC "-//W3C//DTD SVG 20010904//EN"
 "http://www.w3.org/TR/2001/REC-SVG-20010904/DTD/svg10.dtd">
<svg version="1.0" xmlns="http://www.w3.org/2000/svg"
 width="480.000000pt" height="360.000000pt" viewBox="0 0 480.000000 360.000000"
 preserveAspectRatio="xMidYMid meet">
<metadata>
Created by potrace 1.16, written by Peter Selinger 2001-2019
</metadata>
<rect width="1" height="360" fill="#000000"/>
<rect x="479" width="1" height="360" fill="#000000"/>
<rect width="480" height="1" fill="#000000"/>
<rect y="359" width="480" height="1" fill="#000000"/>
<g transform="translate(0.000000,360.000000) scale(0.100000,-0.100000)"
fill="#000000" stroke="none">
<path d="M0 2317 l0 -1283 63 9 c34 5 85 17 112 27 31 12 113 25 213 34 89 8
166 17 170 20 4 2 7 19 6 38 -1 28 -5 35 -35 44 -40 14 -40 15 -4 139 14 50
33 139 41 200 15 103 15 110 -2 122 -10 7 -25 13 -35 13 -9 0 -27 8 -40 19
-23 18 -23 20 -7 52 21 45 56 154 64 204 4 22 13 52 20 67 20 38 17 48 -11 48
-29 0 -32 21 -10 60 8 14 14 42 15 62 0 57 16 85 58 107 33 17 45 18 81 9 25
-6 49 -21 59 -35 9 -14 25 -32 35 -41 22 -21 22 -38 -1 -66 -21 -27 -20 -86 2
-200 17 -83 18 -84 120 -168 20 -15 20 -17 3 -35 -9 -11 -17 -30 -17 -43 0
-20 -4 -22 -30 -17 -16 4 -32 2 -35 -3 -9 -15 34 -328 56 -408 27 -96 13 -118
-42 -66 -62 59 -84 -16 -24 -82 l35 -38 -33 -14 c-41 -17 -158 -38 -267 -47
-47 -3 -143 -16 -215 -27 -71 -12 -178 -22 -237 -22 l-108 -1 0 -497 0 -498
884 0 884 0 8 32 c3 18 13 42 21 54 7 12 11 27 9 35 -3 8 -10 66 -16 130 -9
98 -8 131 6 213 9 54 12 101 8 105 -5 4 -48 20 -97 35 -108 34 -119 49 -87
115 13 25 42 80 66 121 53 93 70 153 79 269 7 87 7 91 -11 83 -11 -4 -64 -29
-119 -56 -180 -86 -223 -106 -233 -106 -5 0 -15 -7 -22 -15 -10 -12 -9 -20 4
-40 9 -14 13 -25 8 -25 -5 0 -15 11 -22 25 -16 29 -15 29 -70 10 -63 -22 -95
-19 -132 14 -18 16 -31 31 -28 33 3 2 50 23 105 48 132 58 130 55 105 97 -16
28 -18 37 -7 53 15 25 28 25 61 -1 30 -24 32 -32 10 -53 -33 -34 18 -16 149
53 222 116 214 111 221 150 3 19 4 37 2 39 -3 2 -23 6 -45 9 -34 5 -44 2 -60
-18 -16 -20 -21 -21 -35 -10 -9 7 -16 24 -16 37 0 13 -3 24 -7 24 -20 0 -260
42 -362 64 -120 25 -154 43 -131 70 16 21 31 20 132 -4 46 -10 139 -28 208
-40 69 -11 134 -23 145 -25 16 -3 24 3 32 25 14 38 42 39 56 1 9 -24 18 -30
55 -36 24 -4 45 -5 46 -3 38 54 62 133 51 167 -3 11 -15 21 -25 24 -24 6 -25
24 -6 94 14 52 9 114 -9 120 -6 2 -36 -17 -67 -42 -49 -38 -57 -49 -56 -77 0
-18 -5 -55 -11 -83 -14 -62 -11 -71 28 -78 17 -4 31 -11 31 -17 0 -16 -46 -23
-87 -13 -54 12 -86 75 -80 154 6 70 13 83 106 205 l74 96 -17 28 c-27 46 -21
96 19 156 25 37 45 56 70 64 19 6 37 16 40 21 3 5 -10 23 -30 40 -20 18 -44
48 -55 68 -25 50 -104 131 -170 175 -30 20 -78 53 -106 74 -29 20 -110 79
-180 129 -178 128 -289 222 -351 296 -69 82 -43 67 214 -125 120 -90 255 -190
301 -223 45 -33 102 -75 127 -92 24 -18 46 -33 48 -33 3 0 7 13 10 28 9 45 83
127 141 156 29 15 83 31 119 37 58 9 71 8 109 -9 39 -17 48 -17 83 -5 84 29
210 29 250 -1 16 -12 16 -15 1 -44 -22 -42 -20 -75 4 -90 11 -7 20 -18 20 -26
0 -21 -122 -196 -137 -196 -19 0 -16 -31 7 -60 23 -30 25 -44 5 -36 -10 4 -15
-1 -15 -15 0 -16 -4 -19 -20 -14 -11 4 -20 2 -20 -4 0 -6 -7 -11 -15 -11 -39
0 7 -63 55 -75 38 -9 54 -25 79 -78 23 -48 92 -105 184 -150 49 -25 100 -86
117 -139 8 -24 15 -45 16 -47 2 -1 21 7 43 20 30 16 43 19 53 11 16 -13 53
-81 47 -86 -3 -3 -210 -127 -416 -249 -57 -34 -61 -43 -38 -87 11 -21 24 -30
52 -34 93 -15 308 -36 478 -48 102 -7 191 -15 197 -19 21 -13 -1 -38 -44 -50
-50 -13 -276 -8 -465 12 -67 7 -125 10 -129 6 -10 -10 20 -50 98 -134 38 -42
96 -116 129 -166 64 -99 70 -127 45 -194 -8 -21 -17 -50 -20 -64 -8 -37 -63
-87 -108 -100 -21 -5 -38 -14 -38 -19 0 -5 -23 -21 -51 -36 -43 -21 -50 -29
-45 -47 28 -96 36 -140 45 -244 9 -96 17 -128 39 -170 23 -45 25 -56 14 -73
-8 -13 -10 -34 -6 -55 l6 -35 1129 0 1129 0 0 1800 0 1800 -499 0 -499 0 21
-67 c18 -60 19 -73 8 -127 -13 -63 -58 -150 -101 -193 -52 -54 -123 -87 -215
-103 -50 -8 -374 19 -456 39 -104 24 -264 150 -368 289 -28 37 -69 82 -91 100
-22 18 -40 40 -40 48 0 12 -171 14 -1280 14 l-1280 0 0 -1283z m4080 868 c0
-8 -7 -15 -15 -15 -16 0 -20 12 -8 23 11 12 23 8 23 -8z m-837 -485 c27 -22
27 -50 -1 -50 -22 0 -52 30 -52 52 0 24 21 23 53 -2z m407 -5 c0 -8 -4 -15 -9
-15 -13 0 -22 16 -14 24 11 11 23 6 23 -9z m615 -94 c8 -13 -27 -31 -60 -31
-17 0 -25 5 -23 13 4 10 26 18 70 26 4 0 9 -3 13 -8z m-1865 -186 c0 -8 -9
-15 -20 -15 -20 0 -26 11 -13 23 12 13 33 7 33 -8z m2225 -99 c41 -18 42 -22
13 -47 -26 -21 -97 -26 -116 -7 -19 19 -14 44 11 56 31 15 52 14 92 -2z
m-2024 -49 c-13 -13 -26 -3 -16 12 3 6 11 8 17 5 6 -4 6 -10 -1 -17z m1729
-1056 c0 -14 -18 -23 -30 -16 -6 4 -8 11 -5 16 8 12 35 12 35 0z m429 -751
c13 -6 17 -17 14 -35 -5 -21 -11 -25 -42 -25 -57 0 -108 47 -68 63 21 9 78 7
96 -3z"/>
<path d="M2780 3586 c14 -8 40 -17 59 -21 43 -9 130 -48 182 -81 62 -39 104
-24 178 65 l43 51 -244 0 c-209 -1 -240 -3 -218 -14z"/>
<path d="M2365 2070 c-3 -5 -21 -10 -40 -10 -19 0 -37 -4 -40 -10 -9 -15 -52
-12 -85 5 -23 12 -30 13 -30 3 0 -35 42 -181 69 -241 34 -76 38 -97 17 -97 -7
0 -19 -7 -26 -15 -11 -13 -9 -22 6 -50 10 -19 21 -35 24 -35 6 0 316 182 343
202 17 12 15 17 -31 70 -28 32 -53 66 -56 76 -5 16 -125 112 -139 112 -3 0 -9
-4 -12 -10z"/>
<path d="M600 1876 c0 -8 5 -18 10 -21 6 -3 10 3 10 14 0 12 -4 21 -10 21 -5
0 -10 -6 -10 -14z"/>
<path d="M634 1185 c-7 -16 21 -61 42 -69 9 -3 24 -1 35 4 15 8 18 17 13 38
-8 33 -2 28 -47 35 -27 4 -40 2 -43 -8z"/>
<path d="M2137 550 c-21 -17 -32 -19 -64 -11 -21 5 -46 12 -55 16 -23 9 -44
-27 -52 -90 -4 -27 -15 -119 -26 -204 -11 -84 -22 -157 -25 -161 -3 -5 -1 -11
5 -15 5 -3 10 -24 10 -46 l0 -39 245 0 c237 0 245 1 245 20 0 10 -8 27 -19 37
-14 14 -18 30 -17 68 1 29 -7 81 -21 125 -12 41 -37 127 -56 190 l-33 115 -43
-4 c-23 -1 -48 2 -55 8 -10 8 -20 6 -39 -9z"/>
</g>
</svg>
