<?xml version="1.0" standalone="no"?>
<!DOCTYPE svg PUBLIC "-//W3C//DTD SVG 20010904//EN"
 "http://www.w3.org/TR/2001/REC-SVG-20010904/DTD/svg10.dtd">
<svg version="1.0" xmlns="http://www.w3.org/2000/svg"
 width="480.000000pt" height="360.000000pt" viewBox="0 0 480.000000 360.000000"
 preserveAspectRatio="xMidYMid meet">
<metadata>
Created by potrace 1.16, written by Peter Selinger 2001-2019
</metadata>
<rect width="1" height="360" fill="#000000"/>
<rect x="479" width="1" height="360" fill="#000000"/>
<rect width="480" height="1" fill="#000000"/>
<rect y="359" width="480" height="1" fill="#000000"/>
<g transform="translate(0.000000,360.000000) scale(0.100000,-0.100000)"
fill="#000000" stroke="none">
<path d="M0 1800 l0 -1801 128 3 127 3 29 88 28 87 -27 36 c-24 32 -26 39 -15
60 11 19 11 26 -1 40 -12 15 -11 18 5 28 52 31 76 60 90 110 20 67 20 93 2
129 -8 15 -11 27 -5 27 5 0 8 21 6 48 -2 46 -2 47 30 50 29 3 34 8 43 45 28
115 57 187 106 262 16 24 15 25 -4 25 -12 0 -24 -5 -27 -11 -4 -6 -13 -8 -20
-6 -7 3 -24 -20 -43 -62 -43 -92 -84 -146 -122 -160 -31 -10 -35 -9 -65 24
-34 36 -52 96 -40 134 3 11 18 22 34 26 16 3 35 14 43 23 16 18 58 103 58 116
0 5 13 36 29 70 39 83 116 306 150 437 24 96 26 107 10 98 -24 -12 -86 -12
-94 2 -4 5 0 18 9 28 9 10 16 25 16 35 0 9 7 30 15 46 8 16 26 58 39 94 23 63
23 66 6 103 -9 21 -27 47 -40 58 -59 52 -112 221 -113 360 -2 108 15 181 56
255 43 77 103 133 237 221 155 103 262 156 362 178 124 29 329 61 383 61 l48
0 -7 98 c-4 53 -3 107 1 120 9 23 9 22 39 -15 17 -21 69 -96 116 -168 47 -71
110 -155 140 -187 59 -61 114 -156 148 -256 27 -83 62 -136 97 -150 62 -25
163 -40 198 -29 29 9 38 7 54 -8 14 -11 30 -16 51 -13 27 4 30 2 29 -21 0 -14
-8 -53 -17 -86 -19 -68 -38 -78 -92 -50 -25 13 -37 14 -70 4 -44 -13 -47 -19
-26 -52 8 -12 19 -40 25 -62 5 -22 13 -51 17 -64 5 -16 4 -22 -4 -17 -11 6
-15 -4 -27 -61 -4 -18 -11 -36 -16 -39 -6 -3 -14 -17 -20 -31 -5 -13 -13 -21
-19 -18 -6 4 -10 -8 -10 -29 0 -20 -4 -36 -10 -36 -5 0 -10 5 -10 12 0 6 -6 4
-13 -7 -13 -17 -14 -17 -21 6 l-7 24 -17 -23 c-9 -13 -27 -35 -39 -49 -13 -14
-23 -31 -24 -37 -3 -31 3 -95 12 -129 7 -28 7 -42 -1 -52 -13 -16 0 -71 27
-113 23 -36 7 -38 -22 -3 -15 17 -31 31 -36 31 -6 0 -19 -21 -31 -47 -42 -100
-60 -132 -86 -158 -26 -26 -30 -27 -107 -22 -44 3 -92 9 -107 13 -28 6 -28 6
-28 -45 0 -50 2 -53 34 -66 62 -26 309 -92 404 -109 109 -18 120 -24 162 -75
l31 -40 -15 -46 c-21 -59 -20 -68 5 -117 20 -38 22 -40 57 -34 20 3 42 12 48
21 8 11 40 17 115 21 75 5 107 11 115 22 9 13 29 14 118 9 73 -5 112 -3 125 5
14 8 40 7 110 -6 51 -9 107 -14 124 -11 21 4 62 -3 117 -20 47 -15 100 -26
119 -26 20 1 69 -15 121 -39 48 -22 98 -40 111 -40 14 0 60 -22 104 -50 44
-27 87 -50 96 -50 8 0 53 -29 99 -65 46 -36 87 -65 92 -65 5 0 50 -42 100 -92
91 -93 182 -207 215 -271 10 -19 33 -62 50 -95 18 -34 30 -67 28 -74 -3 -8
-38 -26 -78 -41 -40 -15 -79 -32 -87 -37 -10 -6 117 -10 353 -10 l367 0 0
1800 0 1800 -2400 0 -2400 0 0 -1800z m4530 1770 c0 -11 -4 -20 -9 -20 -14 0
-23 18 -16 30 10 17 25 11 25 -10z m-1969 -643 c-13 -13 -26 -3 -16 12 3 6 11
8 17 5 6 -4 6 -10 -1 -17z m492 -846 c17 -7 15 -11 -24 -45 -58 -50 -110 -76
-152 -76 -43 0 -48 6 -34 37 8 19 8 26 -3 33 -20 12 -4 39 32 56 33 14 136 12
181 -5z m-2713 -193 c0 -19 -32 -48 -52 -48 -27 0 -19 31 12 47 31 16 40 16
40 1z m4133 -673 c1 -5 -6 -11 -15 -13 -11 -2 -18 3 -18 13 0 17 30 18 33 0z"/>
<path d="M1130 1375 c-7 -8 -10 -18 -7 -21 9 -10 48 7 44 19 -6 18 -23 19 -37
2z"/>
<path d="M570 1200 c0 -11 6 -20 14 -20 24 0 28 18 6 30 -17 9 -20 8 -20 -10z"/>
<path d="M1908 105 c-14 -45 -19 -105 -9 -105 11 0 25 77 19 106 -4 18 -5 18
-10 -1z"/>
</g>
</svg>
