<?xml version="1.0" standalone="no"?>
<!DOCTYPE svg PUBLIC "-//W3C//DTD SVG 20010904//EN"
 "http://www.w3.org/TR/2001/REC-SVG-20010904/DTD/svg10.dtd">
<svg version="1.0" xmlns="http://www.w3.org/2000/svg"
 width="480.000000pt" height="360.000000pt" viewBox="0 0 480.000000 360.000000"
 preserveAspectRatio="xMidYMid meet">
<metadata>
Created by potrace 1.16, written by Peter Selinger 2001-2019
</metadata>
<rect width="1" height="360" fill="#000000"/>
<rect x="479" width="1" height="360" fill="#000000"/>
<rect width="480" height="1" fill="#000000"/>
<rect y="359" width="480" height="1" fill="#000000"/>
<g transform="translate(0.000000,360.000000) scale(0.100000,-0.100000)"
fill="#000000" stroke="none">
<path d="M1113 3517 c4 -46 16 -135 27 -198 33 -191 80 -386 80 -332 0 6 20
39 46 73 92 126 216 135 277 21 38 -71 47 -126 38 -218 -8 -83 -32 -139 -70
-166 -13 -8 -20 -30 -23 -69 l-5 -57 63 -31 c105 -51 159 -113 422 -480 61
-85 130 -182 154 -215 101 -140 246 -331 261 -344 14 -11 20 -11 34 0 21 18
158 201 408 549 288 400 316 432 433 490 l59 29 -5 58 c-3 40 -10 62 -23 70
-61 43 -93 197 -62 303 42 147 116 194 222 140 48 -24 108 -98 132 -161 21
-55 26 -168 8 -200 -8 -16 -7 -29 6 -56 28 -58 29 -102 5 -166 -12 -32 -28
-61 -36 -64 -11 -4 -7 -14 16 -43 90 -114 177 -379 231 -707 26 -154 27 -349
5 -470 -9 -46 -23 -120 -32 -165 -12 -64 -14 -120 -10 -243 4 -121 2 -174 -9
-220 -24 -100 -30 -94 93 -94 120 -1 166 -12 237 -61 25 -17 45 -26 45 -20 0
5 5 10 10 10 6 0 10 -6 10 -14 0 -8 21 -36 46 -63 26 -27 43 -39 39 -28 -4 11
-22 62 -41 113 -19 51 -34 97 -34 101 0 5 37 -5 81 -21 45 -16 83 -27 85 -25
1 1 -26 32 -62 67 -95 94 -179 226 -196 305 -17 85 -27 340 -17 489 5 82 11
152 14 154 2 2 40 -16 84 -42 79 -45 114 -55 126 -36 11 18 53 11 60 -10 4
-11 17 -28 31 -36 22 -15 26 -14 68 10 80 47 126 125 126 213 0 36 -44 105
-99 158 -23 22 -61 76 -84 120 -55 105 -99 146 -193 181 -41 15 -77 30 -79 34
-3 4 9 35 26 68 91 183 93 339 5 557 -128 318 -389 600 -707 765 l-117 60
-611 0 -612 0 -55 -35 c-30 -19 -59 -35 -64 -35 -6 0 -33 16 -61 35 l-51 35
-381 0 -380 0 6 -83z"/>
<path d="M1118 2959 c-21 -5 -65 -26 -98 -46 -49 -30 -66 -48 -86 -90 -26 -52
-26 -54 -14 -140 9 -57 19 -95 31 -109 11 -11 19 -24 19 -30 1 -12 65 -44 90
-44 22 0 35 -16 21 -25 -32 -19 -300 -459 -288 -471 3 -3 18 1 35 10 18 9 42
13 64 9 35 -5 35 -6 30 -48 -6 -58 30 -215 50 -215 13 0 25 32 37 100 20 108
78 321 110 405 17 44 51 110 76 147 l45 68 -20 28 c-12 16 -26 57 -32 93 -10
57 -9 68 9 105 13 27 17 48 12 61 -11 29 -14 142 -4 176 7 25 5 27 -21 26 -16
-1 -46 -5 -66 -10z"/>
</g>
</svg>
