<?xml version="1.0" standalone="no"?>
<!DOCTYPE svg PUBLIC "-//W3C//DTD SVG 20010904//EN"
 "http://www.w3.org/TR/2001/REC-SVG-20010904/DTD/svg10.dtd">
<svg version="1.0" xmlns="http://www.w3.org/2000/svg"
 width="480.000000pt" height="360.000000pt" viewBox="0 0 480.000000 360.000000"
 preserveAspectRatio="xMidYMid meet">
<metadata>
Created by potrace 1.16, written by Peter Selinger 2001-2019
</metadata>
<rect width="1" height="360" fill="#000000"/>
<rect x="479" width="1" height="360" fill="#000000"/>
<rect width="480" height="1" fill="#000000"/>
<rect y="359" width="480" height="1" fill="#000000"/>
<g transform="translate(0.000000,360.000000) scale(0.100000,-0.100000)"
fill="#000000" stroke="none">
<path d="M0 2660 c0 -517 2 -940 5 -940 2 0 76 34 164 75 87 41 171 75 186 75
21 0 52 23 131 100 58 55 110 100 116 100 11 0 179 -69 323 -133 39 -17 126
-62 195 -99 69 -36 152 -76 185 -86 84 -28 231 -28 343 -1 l83 21 70 -26 c39
-14 76 -26 82 -26 7 0 34 41 61 91 60 108 100 142 231 189 50 18 96 38 104 45
22 21 4 70 -44 114 -24 22 -49 51 -56 63 l-12 22 -9 -23 c-5 -13 -6 -32 -3
-42 5 -13 2 -17 -8 -14 -9 4 -22 -16 -43 -67 -24 -61 -29 -68 -32 -45 -2 17
-8 25 -14 21 -7 -5 -9 -1 -5 9 3 8 9 33 12 54 l6 38 -23 -44 c-24 -44 -58 -72
-44 -36 9 25 26 142 26 188 0 43 -15 48 -33 10 l-12 -27 -5 39 c-5 42 -14 46
-69 29 l-24 -7 27 36 c26 33 48 117 31 117 -4 0 -15 -10 -24 -21 l-17 -21 -41
21 c-23 11 -49 18 -58 15 -17 -7 -55 22 -55 40 0 6 21 26 45 45 25 18 63 61
86 95 37 56 40 64 33 101 -4 22 -8 83 -8 135 1 127 26 195 99 267 76 74 147
95 310 91 66 -1 154 1 196 6 95 11 205 -11 272 -54 57 -36 110 -107 135 -180
l19 -55 15 35 c23 55 71 90 122 90 47 0 70 -13 139 -79 63 -60 86 -106 102
-205 7 -45 16 -92 20 -106 9 -37 -14 -60 -72 -74 -28 -6 -52 -14 -52 -19 -1
-4 21 -53 48 -110 64 -133 84 -210 85 -322 0 -77 -4 -100 -29 -159 -22 -54
-30 -65 -35 -50 -6 15 -10 11 -19 -21 -6 -22 -11 -46 -11 -52 0 -7 -4 -13 -9
-13 -5 0 -12 6 -14 13 -4 8 -6 6 -6 -4 -2 -30 -32 -16 -53 25 -21 40 -22 40
-29 16 -4 -14 -7 -19 -8 -12 -1 7 -12 18 -26 24 -14 6 -25 19 -25 29 0 10 -23
71 -50 135 -38 88 -52 137 -59 196 -5 44 -11 81 -12 82 -7 6 -59 16 -59 12 0
-2 7 -23 15 -46 19 -53 13 -61 -20 -30 l-26 24 -6 -22 c-4 -16 -11 -21 -23
-17 -14 4 -19 -2 -24 -31 -5 -26 -11 -34 -22 -30 -9 3 -18 6 -20 6 -2 0 -4 12
-5 28 -1 25 -2 25 -11 -8 -19 -68 -42 -110 -58 -105 -10 3 -22 -10 -36 -36
-11 -23 -24 -40 -28 -39 -4 1 -13 -6 -20 -16 -11 -15 -13 -15 -19 -1 -3 9 -2
30 3 48 5 18 7 35 5 38 -11 10 -23 -16 -30 -64 -5 -43 -3 -51 13 -60 11 -5 66
-33 123 -61 125 -61 179 -115 229 -228 18 -43 39 -76 47 -76 8 0 45 7 83 16
65 14 72 14 133 -5 35 -11 100 -25 143 -31 124 -18 185 -1 416 117 213 108
398 192 441 200 24 5 42 -10 170 -139 146 -149 215 -204 349 -277 l78 -43 0
1046 0 1046 -2400 0 -2400 0 0 -940z"/>
<path d="M2946 2575 c-4 -11 -16 -44 -26 -72 l-19 -53 26 -20 c14 -11 30 -20
34 -20 10 0 10 123 0 160 -7 24 -7 24 -15 5z"/>
<path d="M569 1902 c-67 -70 -52 -77 49 -24 76 40 77 44 26 70 -19 10 -28 5
-75 -46z"/>
<path d="M4153 1838 c-18 -11 -33 -23 -33 -28 0 -9 106 -90 118 -90 5 0 17 9
27 20 17 19 16 21 -17 67 -19 26 -41 49 -49 50 -8 1 -29 -8 -46 -19z"/>
<path d="M889 1784 c-24 -30 -64 -68 -89 -83 -42 -27 -54 -30 -200 -38 -110
-7 -164 -15 -187 -26 -18 -10 -55 -17 -83 -17 -66 0 -130 -31 -130 -63 0 -13
-11 -34 -25 -47 -14 -13 -25 -29 -25 -36 0 -13 -119 -94 -138 -94 -9 0 -12
-166 -12 -690 l0 -690 810 0 810 0 5 23 c2 12 14 78 25 147 34 210 129 635
160 722 22 61 36 127 51 253 11 94 24 185 29 203 8 29 6 34 -15 44 -32 14 -39
57 -14 84 24 25 24 28 -2 64 -16 21 -20 37 -16 59 7 34 11 32 -93 50 -42 7
-60 6 -75 -4 -28 -18 -65 -54 -65 -63 0 -4 -29 -25 -65 -45 l-65 -38 -156 13
c-126 10 -159 9 -176 -1 -22 -14 -250 -30 -425 -31 -97 0 -103 1 -103 20 0 17
41 41 221 129 198 98 225 108 262 104 l42 -5 -30 22 c-40 28 -74 46 -132 69
l-49 19 -45 -54z"/>
<path d="M3859 1730 c-25 -10 -61 -28 -79 -39 l-33 -20 24 -10 c13 -6 91 -37
174 -70 82 -32 151 -63 153 -69 4 -13 -36 -25 -170 -53 -60 -12 -108 -25 -108
-29 0 -3 14 -14 31 -24 58 -34 23 -38 -231 -25 l-242 12 -58 38 c-32 21 -64
48 -71 61 -6 13 -23 35 -37 51 -25 26 -30 27 -125 27 -89 0 -98 -2 -93 -17 5
-11 -1 -23 -15 -34 l-22 -17 22 -37 c22 -38 22 -39 11 -269 -6 -127 -16 -243
-21 -258 -8 -19 -8 -37 -1 -60 21 -65 32 -147 57 -398 14 -140 34 -308 46
-373 l22 -117 853 0 854 0 0 696 c-1 613 -3 695 -16 690 -8 -3 -46 -15 -85
-27 -60 -18 -77 -20 -109 -10 -52 16 -80 53 -80 107 0 23 5 46 10 49 17 10 11
19 -27 44 -32 21 -40 22 -73 12 -21 -6 -59 -11 -85 -11 -42 0 -52 4 -82 36
l-34 37 -75 -17 c-113 -25 -131 -22 -174 23 -25 26 -39 52 -44 80 -3 23 -10
41 -14 40 -4 0 -28 -9 -53 -19z"/>
<path d="M1959 649 c-20 -54 -35 -99 -33 -99 2 0 22 36 44 80 27 54 37 85 32
99 -5 15 -16 -4 -43 -80z"/>
<path d="M1837 320 c-24 -69 -36 -142 -22 -129 7 8 57 200 53 205 -3 2 -16
-32 -31 -76z"/>
</g>
</svg>
