<?xml version="1.0" standalone="no"?>
<!DOCTYPE svg PUBLIC "-//W3C//DTD SVG 20010904//EN"
 "http://www.w3.org/TR/2001/REC-SVG-20010904/DTD/svg10.dtd">
<svg version="1.0" xmlns="http://www.w3.org/2000/svg"
 width="480.000000pt" height="360.000000pt" viewBox="0 0 480.000000 360.000000"
 preserveAspectRatio="xMidYMid meet">
<metadata>
Created by potrace 1.16, written by Peter Selinger 2001-2019
</metadata>
<rect width="1" height="360" fill="#000000"/>
<rect x="479" width="1" height="360" fill="#000000"/>
<rect width="480" height="1" fill="#000000"/>
<rect y="359" width="480" height="1" fill="#000000"/>
<g transform="translate(0.000000,360.000000) scale(0.100000,-0.100000)"
fill="#000000" stroke="none">
<path d="M4015 2633 c14 -35 10 -47 -20 -57 -16 -6 -36 -18 -42 -28 -14 -18
-76 -59 -96 -62 -6 -1 -23 -8 -37 -16 -14 -8 -34 -15 -45 -15 -28 0 -31 -38
-5 -75 17 -24 19 -33 9 -51 -11 -21 -8 -102 7 -186 7 -37 15 -35 -190 -58
l-128 -15 -20 25 c-33 42 -129 31 -154 -17 -9 -17 -14 -31 -12 -31 52 -26 81
-67 108 -155 11 -36 25 -71 31 -79 20 -23 72 -14 147 27 46 25 86 40 109 40
l35 0 -7 -38 c-12 -72 -9 -201 5 -227 11 -21 12 -30 2 -43 -18 -24 -65 -124
-103 -216 -18 -44 -52 -109 -77 -145 -83 -125 -91 -159 -44 -204 27 -26 130
-77 157 -77 43 0 57 -64 30 -140 -17 -49 -19 -134 -5 -211 7 -37 7 -63 -1 -87
-8 -25 -8 -40 1 -62 10 -24 10 -39 -1 -74 -13 -43 -13 -44 -65 -49 -77 -8 -97
-21 -89 -60 4 -18 23 -49 43 -69 l36 -38 -50 0 c-42 0 -55 -5 -77 -28 -33 -34
-55 -91 -39 -101 6 -4 29 -5 52 -3 35 4 43 9 60 42 11 21 25 40 32 42 7 3 35
-4 63 -15 27 -11 73 -25 101 -31 28 -6 58 -17 66 -24 20 -16 468 -23 468 -7 0
11 -23 32 -56 51 -25 15 -37 63 -38 154 -2 78 -10 121 -32 155 -20 32 -28 93
-14 110 8 9 10 28 6 48 -4 20 0 51 9 77 19 54 19 124 0 223 -8 43 -15 116 -15
162 0 54 -7 105 -20 146 -10 35 -31 126 -44 202 -14 76 -35 155 -46 177 -24
47 -25 63 -4 81 11 9 14 22 9 43 -17 82 1 152 55 205 37 37 40 44 40 95 0 53
-2 56 -32 72 -18 9 -34 18 -36 19 -2 2 10 16 25 33 27 29 33 31 197 51 92 11
171 23 174 26 3 3 -2 13 -11 22 -15 15 -26 16 -114 5 -54 -7 -118 -16 -143
-19 l-45 -5 0 90 c0 71 4 94 18 109 18 21 24 58 7 48 -5 -3 -10 0 -10 8 0 10
-7 13 -20 10 -11 -3 -20 -1 -20 4 0 5 -20 36 -45 68 -38 49 -43 60 -30 67 18
11 20 69 3 86 -18 18 -31 15 -23 -5z m360 -482 c-10 -9 -184 -32 -227 -30 -24
1 167 35 212 38 14 0 20 -3 15 -8z m-755 -111 c0 -5 -6 -10 -14 -10 -8 0 -24
-13 -34 -28 -11 -15 -32 -34 -47 -42 -23 -12 -28 -12 -35 0 -6 8 -10 25 -10
37 0 23 34 38 105 46 17 2 31 5 33 6 1 0 2 -3 2 -9z m391 -1213 c26 -62 27
-75 23 -165 -3 -53 -7 -119 -8 -147 -1 -27 -7 -59 -13 -70 -8 -14 -8 -37 -1
-78 14 -80 8 -91 -45 -84 -23 3 -62 9 -87 12 -80 11 -89 15 -104 43 -32 63 14
526 56 554 7 4 44 7 82 6 l69 -3 28 -68z"/>
<path d="M2470 2580 c-1 -8 -2 -18 -1 -22 0 -4 -7 -4 -17 -1 -9 3 -14 3 -10
-2 4 -4 3 -14 -3 -22 -9 -9 -8 -17 1 -28 9 -11 1 -25 -48 -76 -39 -40 -66 -60
-76 -56 -8 3 -20 -1 -26 -8 -10 -12 -7 -21 14 -46 28 -33 29 -36 26 -90 -1
-21 5 -43 13 -51 8 -8 15 -31 15 -50 0 -20 3 -45 6 -56 6 -17 2 -21 -21 -24
-23 -2 -29 -8 -31 -34 -3 -27 -7 -30 -38 -31 -23 -1 -41 -9 -54 -25 -23 -27
-24 -41 -7 -69 18 -31 -21 -59 -83 -59 -87 0 -104 -58 -36 -126 63 -63 92 -56
208 53 31 29 61 53 66 53 15 0 28 -21 55 -86 l24 -61 -33 -53 c-18 -29 -72
-130 -119 -224 -68 -135 -88 -185 -94 -232 -3 -32 -5 -67 -3 -77 4 -18 111
-77 140 -77 15 0 15 -7 -3 -77 -8 -31 -15 -85 -15 -120 0 -34 -5 -73 -11 -87
-9 -20 -9 -29 0 -40 22 -26 -4 -84 -44 -100 -46 -19 -58 -71 -24 -97 28 -21
123 -59 149 -59 10 0 23 -7 30 -15 10 -12 1 -19 -54 -45 -37 -16 -75 -30 -85
-30 -10 0 -24 -7 -31 -15 -10 -12 -6 -23 19 -60 17 -25 31 -50 31 -55 0 -5
-14 -22 -31 -39 -29 -29 -33 -30 -88 -25 -60 7 -76 -1 -65 -29 7 -20 49 -37
93 -37 32 0 39 4 53 33 16 34 33 42 143 68 36 8 61 8 88 1 85 -24 213 25 235
88 7 20 19 30 41 35 37 8 43 40 9 51 -41 12 -47 22 -35 54 7 20 8 35 1 51 -8
18 -7 30 8 55 16 27 17 34 5 46 -16 15 -47 139 -53 203 -1 22 -8 76 -15 119
-11 68 -11 80 2 85 27 9 69 60 69 84 0 13 -8 57 -19 98 -12 49 -20 131 -25
244 -3 94 -11 191 -18 217 -10 40 -9 48 6 64 11 11 15 24 11 38 -35 116 -36
122 -15 167 11 24 20 50 20 57 0 8 10 27 21 44 25 34 23 37 -51 67 -30 13 -58
26 -63 30 -4 4 4 23 19 42 23 31 25 40 19 94 -4 33 -11 74 -16 92 -8 24 -6 39
5 62 18 34 19 42 9 39 -5 0 -16 2 -26 7 -10 4 -20 5 -23 2 -3 -3 -13 2 -23 11
-9 10 -32 29 -50 45 -23 19 -32 33 -28 47 3 11 1 20 -5 20 -6 0 -8 7 -5 14 4
10 1 13 -8 10 -8 -4 -15 3 -18 18 -2 13 -5 16 -7 8z m74 -1631 c17 -15 66
-143 66 -172 0 -16 4 -36 9 -46 6 -11 5 -39 -2 -76 l-12 -60 -101 -3 c-99 -3
-102 -2 -108 21 -14 58 39 321 70 344 17 12 60 8 78 -8z m-189 -659 c3 -5 1
-10 -4 -10 -6 0 -11 5 -11 10 0 6 2 10 4 10 3 0 8 -4 11 -10z"/>
<path d="M1042 2502 c-15 -11 -21 -24 -17 -34 10 -27 -10 -53 -82 -105 -58
-42 -72 -48 -96 -42 -39 10 -46 -12 -19 -60 20 -35 20 -41 7 -84 l-14 -46 35
-42 c19 -22 34 -51 34 -64 0 -13 13 -37 30 -55 30 -32 32 -50 5 -50 -20 0 -39
-38 -41 -85 -1 -22 -6 -65 -11 -95 -9 -61 5 -53 -140 -79 -34 -6 -74 -18 -90
-26 -15 -8 -54 -15 -86 -15 -49 0 -62 -4 -80 -24 -17 -19 -26 -22 -46 -15 -15
5 -34 23 -43 39 -15 27 -22 30 -65 29 -26 0 -109 -10 -183 -22 l-135 -22 -3
-72 -3 -72 38 -16 c21 -9 155 -64 298 -122 143 -58 314 -128 380 -155 100 -41
127 -48 163 -44 23 3 42 4 42 2 0 -3 -9 -26 -21 -53 -25 -58 -21 -114 12 -149
l23 -24 -33 -65 c-43 -82 -39 -93 74 -205 47 -47 85 -92 85 -102 0 -9 12 -31
27 -48 21 -26 24 -33 12 -41 -8 -5 -18 -9 -23 -9 -20 0 -116 -72 -138 -103
-13 -17 -23 -45 -23 -62 0 -25 -7 -33 -45 -52 -25 -12 -72 -31 -105 -42 -33
-11 -76 -26 -95 -34 -19 -8 -55 -18 -80 -22 -43 -6 -49 -4 -140 59 -58 40
-105 66 -120 65 -14 0 -92 -24 -174 -52 l-149 -52 -4 -57 c-2 -31 1 -59 6 -62
11 -7 660 -10 667 -4 2 3 -5 13 -16 23 -11 10 -20 23 -20 29 0 22 176 96 226
96 20 0 24 -5 24 -29 0 -16 7 -34 15 -41 21 -17 19 -33 -6 -48 -45 -29 -15
-35 166 -33 l179 2 68 64 c37 35 81 71 98 80 64 33 57 79 -20 126 -48 29 -49
32 -35 52 23 34 18 54 -26 102 -23 25 -45 60 -48 77 -4 22 -16 37 -33 45 -14
7 -38 30 -53 50 -16 21 -40 50 -54 64 -14 14 -43 44 -64 66 l-38 41 43 36 c23
20 48 34 56 31 40 -15 91 -16 126 -1 21 9 47 16 58 16 27 0 89 34 117 64 23
25 24 28 12 79 -17 77 -97 340 -111 368 -7 13 -24 36 -38 51 -23 25 -24 30
-13 51 11 21 10 30 -7 63 -29 58 -94 255 -88 270 3 7 -2 18 -11 25 -34 29 -34
57 -1 103 28 40 31 52 30 113 0 38 -6 81 -11 96 -12 30 -4 53 23 77 23 18 20
28 -12 34 -41 10 -94 92 -86 133 5 25 0 39 -20 66 -14 18 -26 41 -26 50 0 21
-9 21 -38 -1z m-82 -935 c0 -5 -11 -6 -24 -3 -14 3 -28 2 -31 -4 -3 -6 -17 -7
-29 -4 -16 4 -25 0 -30 -11 -5 -14 -19 -16 -88 -14 -46 2 -94 -1 -108 -5 -17
-6 -22 -5 -15 2 6 6 33 15 60 20 98 20 193 42 216 51 18 7 27 5 37 -7 6 -9 12
-20 12 -25z m-387 2 c22 -6 36 -15 34 -22 -5 -14 -41 -13 -82 3 -23 9 -26 13
-15 20 19 12 17 12 63 -1z m457 -159 c0 -13 -7 -20 -20 -20 -21 0 -80 26 -80
35 0 3 23 5 50 5 43 0 50 -3 50 -20z"/>
</g>
</svg>
