<?xml version="1.0" standalone="no"?>
<!DOCTYPE svg PUBLIC "-//W3C//DTD SVG 20010904//EN"
 "http://www.w3.org/TR/2001/REC-SVG-20010904/DTD/svg10.dtd">
<svg version="1.0" xmlns="http://www.w3.org/2000/svg"
 width="480.000000pt" height="360.000000pt" viewBox="0 0 480.000000 360.000000"
 preserveAspectRatio="xMidYMid meet">
<metadata>
Created by potrace 1.16, written by Peter Selinger 2001-2019
</metadata>
<rect width="1" height="360" fill="#000000"/>
<rect x="479" width="1" height="360" fill="#000000"/>
<rect width="480" height="1" fill="#000000"/>
<rect y="359" width="480" height="1" fill="#000000"/>
<g transform="translate(0.000000,360.000000) scale(0.100000,-0.100000)"
fill="#000000" stroke="none">
<path d="M0 1800 l0 -1800 2400 0 2400 0 0 1800 0 1800 -1445 0 -1445 0 0 -21
c0 -36 60 -490 81 -614 35 -207 77 -394 135 -606 76 -279 127 -427 185 -538
53 -102 57 -117 34 -161 -18 -34 -36 -31 -52 9 -6 17 -32 42 -64 63 -177 114
-387 338 -563 603 -121 180 -179 281 -280 490 -119 243 -159 341 -259 627
l-52 148 -537 0 -538 0 0 -1800z"/>
</g>
</svg>
