<?xml version="1.0" standalone="no"?>
<!DOCTYPE svg PUBLIC "-//W3C//DTD SVG 20010904//EN"
 "http://www.w3.org/TR/2001/REC-SVG-20010904/DTD/svg10.dtd">
<svg version="1.0" xmlns="http://www.w3.org/2000/svg"
 width="480.000000pt" height="360.000000pt" viewBox="0 0 480.000000 360.000000"
 preserveAspectRatio="xMidYMid meet">
<metadata>
Created by potrace 1.16, written by Peter Selinger 2001-2019
</metadata>
<rect width="1" height="360" fill="#000000"/>
<rect x="479" width="1" height="360" fill="#000000"/>
<rect width="480" height="1" fill="#000000"/>
<rect y="359" width="480" height="1" fill="#000000"/>
<g transform="translate(0.000000,360.000000) scale(0.100000,-0.100000)"
fill="#000000" stroke="none">
<path d="M0 2761 c0 -662 3 -840 13 -844 10 -3 10 -9 0 -26 -10 -16 -13 -226
-13 -956 l0 -935 644 0 644 0 -23 65 c-13 36 -27 70 -30 75 -10 16 -74 46
-152 70 -53 16 -81 32 -109 61 -28 29 -46 39 -70 39 -77 0 -126 13 -136 36 -6
12 -23 28 -39 34 -15 7 -35 20 -43 29 -14 16 -14 20 9 51 22 30 23 35 10 50
-17 19 -20 56 -4 65 12 8 49 -23 49 -42 0 -7 4 -13 10 -13 15 0 30 36 30 71 0
66 129 155 294 203 111 32 353 128 426 168 30 17 81 51 114 76 63 49 296 281
296 295 0 8 -10 25 -83 131 -21 30 -27 51 -27 91 0 41 -4 54 -17 60 -16 6 -16
8 4 25 32 26 89 302 73 358 -5 20 -10 58 -10 85 0 38 -3 47 -17 47 -13 0 -14
3 -5 12 25 25 14 39 -28 32 -27 -4 -40 -3 -40 5 0 6 5 11 11 11 24 0 -3 18
-36 23 -25 4 -45 0 -68 -13 -18 -10 -50 -22 -72 -25 -61 -11 -81 -28 -94 -81
-14 -54 -42 -99 -73 -115 -12 -6 -50 -15 -86 -19 -36 -5 -69 -14 -73 -22 -5
-7 -11 -33 -15 -56 -9 -63 -47 -85 -131 -77 l-62 5 -3 -47 c-3 -44 -5 -48 -28
-46 -64 5 -91 16 -105 42 -54 105 -80 293 -64 456 22 219 84 386 222 598 55
84 65 97 124 165 18 20 33 40 33 43 0 3 -13 18 -30 34 -16 16 -30 34 -30 39 0
6 14 -4 30 -21 16 -18 35 -33 41 -33 6 0 37 22 68 49 194 167 421 284 636 327
186 36 499 12 558 -44 30 -29 34 -42 12 -42 -19 0 -19 -18 0 -63 8 -20 15 -41
15 -47 0 -20 -40 -50 -67 -50 -47 0 -56 -13 -54 -74 2 -91 -32 -136 -111 -150
-73 -13 -93 -98 -37 -152 34 -32 70 -97 89 -160 10 -35 10 -46 -5 -75 -29 -57
-99 -121 -81 -74 9 24 -10 17 -21 -8 -6 -13 -17 -55 -24 -94 -7 -40 -17 -69
-22 -66 -6 3 -18 -5 -28 -18 -15 -20 -19 -21 -19 -6 0 21 -10 22 -36 3 -14
-10 -22 -11 -32 -4 -10 8 -17 7 -29 -5 -14 -13 -14 -19 -3 -32 7 -9 20 -13 27
-10 18 6 53 -12 53 -28 0 -7 55 -62 122 -122 81 -74 127 -123 139 -150 21 -48
159 -185 185 -185 11 0 45 -25 77 -55 32 -30 62 -55 67 -55 6 0 10 -11 10 -25
0 -55 82 -69 114 -19 32 47 12 113 -43 149 -17 11 -31 27 -31 36 0 51 100 10
137 -56 75 -132 -57 -277 -186 -204 l-41 23 -22 -21 c-13 -11 -37 -28 -54 -36
-17 -9 -34 -23 -37 -32 -4 -8 -15 -15 -25 -15 -10 0 -27 -9 -37 -20 -12 -13
-31 -20 -55 -20 -20 0 -44 -6 -54 -13 -20 -15 -19 -41 21 -392 12 -105 14
-194 10 -355 -5 -193 -3 -223 14 -295 13 -50 23 -132 26 -218 l6 -137 1153 0
1154 0 0 1360 c0 1180 -2 1361 -15 1366 -16 7 -51 91 -41 101 4 4 16 2 26 -5
11 -7 22 -12 25 -12 3 0 5 178 5 395 l0 395 -2400 0 -2400 0 0 -839z m3464
598 c28 -22 34 -68 10 -76 -18 -6 -64 37 -64 61 0 41 15 45 54 15z m-530 -4
c-2 -15 -43 -33 -65 -28 -26 7 -24 22 4 33 27 11 62 8 61 -5z m996 -110 c19
-14 27 -25 19 -25 -18 0 -59 28 -59 41 0 13 2 12 40 -16z m-3245 -115 c4 -6
-5 -10 -20 -10 -15 0 -24 4 -20 10 3 6 12 10 20 10 8 0 17 -4 20 -10z m2948
-145 c29 -71 44 -140 27 -130 -30 18 -75 150 -63 182 7 18 7 18 36 -52z
m-3115 15 c42 -26 40 -36 -9 -44 -70 -11 -131 38 -69 55 39 11 43 10 78 -11z
m186 -26 c9 -3 16 -10 16 -14 0 -10 -38 -1 -46 11 -6 10 7 12 30 3z m2336 -24
c0 -16 -39 -31 -73 -28 l-32 3 45 17 c54 20 60 21 60 8z m1634 4 c9 -3 16 -10
16 -15 0 -14 -33 -10 -54 6 -19 15 -19 15 1 15 12 0 28 -3 37 -6z m-1648 -152
c17 -10 15 -11 -14 -12 -35 0 -72 15 -72 29 0 11 59 -1 86 -17z m-2543 -219
c-7 -2 -19 -2 -25 0 -7 3 -2 5 12 5 14 0 19 -2 13 -5z m2212 -27 c16 -24 12
-76 -6 -76 -18 0 -41 50 -35 75 8 31 21 32 41 1z m-375 -124 c0 -16 -6 -37
-14 -47 -13 -18 -14 -18 -25 3 -8 16 -8 27 1 46 15 35 38 33 38 -2z m1100 -80
c0 -23 -35 -56 -49 -47 -17 10 -13 43 7 54 26 16 42 13 42 -7z m-1670 -392 c0
-24 -54 -87 -63 -73 -7 11 42 93 55 93 5 0 8 -9 8 -20z m1125 -36 c48 -31 -1
-47 -55 -19 -17 9 -30 20 -30 25 0 16 58 11 85 -6z m1885 -109 c0 -28 -5 -37
-30 -50 -16 -8 -31 -15 -35 -15 -7 0 -6 85 2 93 3 4 19 7 35 7 25 0 28 -3 28
-35z m-4363 -366 c24 -11 43 -25 43 -30 0 -18 -77 -9 -104 12 -53 42 -13 54
61 18z m3033 -168 c0 -5 -9 -7 -20 -4 -11 3 -20 7 -20 9 0 2 9 4 20 4 11 0 20
-4 20 -9z m-188 -361 c18 -16 27 -30 21 -30 -7 0 -27 13 -45 30 -18 16 -27 30
-21 30 7 0 27 -13 45 -30z m1171 -56 c54 -27 67 -44 67 -86 0 -21 -4 -38 -9
-38 -17 0 -101 61 -111 80 -15 28 -12 60 5 60 9 0 30 -7 48 -16z m353 -229
c31 -20 31 -35 0 -35 -24 0 -76 34 -76 51 0 13 47 3 76 -16z m-1902 -37 c45
-29 47 -33 30 -45 -37 -27 -106 -10 -148 36 -15 16 -16 22 -5 25 8 2 21 7 29
9 31 11 48 6 94 -25z m-2151 -394 c13 -13 -34 -62 -74 -78 -84 -34 -70 24 15
64 48 21 51 22 59 14z m2556 -68 c18 -19 30 -39 27 -44 -3 -6 -29 -13 -57 -17
-45 -6 -53 -4 -76 16 -59 56 -52 79 28 79 38 0 50 -5 78 -34z"/>
<path d="M2410 1805 c0 -13 -11 -54 -25 -91 -14 -36 -25 -71 -25 -76 0 -5 16
-6 35 -2 20 3 50 7 68 8 28 1 34 7 47 44 l14 42 -49 50 c-27 27 -53 50 -57 50
-4 0 -8 -11 -8 -25z"/>
</g>
</svg>
