<?xml version="1.0" standalone="no"?>
<!DOCTYPE svg PUBLIC "-//W3C//DTD SVG 20010904//EN"
 "http://www.w3.org/TR/2001/REC-SVG-20010904/DTD/svg10.dtd">
<svg version="1.0" xmlns="http://www.w3.org/2000/svg"
 width="480.000000pt" height="360.000000pt" viewBox="0 0 480.000000 360.000000"
 preserveAspectRatio="xMidYMid meet">
<metadata>
Created by potrace 1.16, written by Peter Selinger 2001-2019
</metadata>
<rect width="1" height="360" fill="#000000"/>
<rect x="479" width="1" height="360" fill="#000000"/>
<rect width="480" height="1" fill="#000000"/>
<rect y="359" width="480" height="1" fill="#000000"/>
<g transform="translate(0.000000,360.000000) scale(0.100000,-0.100000)"
fill="#000000" stroke="none">
<path d="M0 2595 l0 -1004 51 30 c172 101 253 163 395 301 62 59 117 108 124
108 26 0 330 -135 506 -225 102 -52 202 -96 230 -101 69 -13 248 -1 316 21 55
18 60 18 132 1 42 -10 82 -16 90 -13 8 3 42 45 77 94 88 121 124 154 221 200
105 51 114 60 98 110 -16 47 -30 65 -46 59 -8 -3 -14 4 -16 17 -2 12 -10 23
-19 25 -13 2 -17 -10 -23 -60 -3 -35 -10 -76 -15 -93 -9 -29 -9 -28 -11 15 -1
25 -4 37 -7 28 -10 -39 -19 -15 -16 40 5 67 -8 55 -27 -26 -7 -29 -14 -51 -17
-48 -3 3 -7 38 -8 79 -4 90 -23 167 -35 147 -7 -11 -12 -7 -21 16 -18 41 -18
41 -39 14 l-20 -25 0 38 c0 39 -8 44 -42 26 -33 -18 -31 -3 6 46 20 25 36 53
36 60 0 23 -20 28 -41 9 -18 -16 -24 -16 -52 -5 -18 8 -42 14 -54 13 -12 0
-32 11 -44 24 l-23 24 25 17 c43 29 124 117 142 155 16 34 16 40 1 99 -32 123
16 292 107 373 71 64 135 82 284 79 66 -2 153 2 193 7 185 25 333 -42 408
-184 l28 -53 24 28 c45 54 128 26 227 -77 46 -49 62 -83 90 -194 8 -36 18 -75
22 -87 4 -18 -1 -26 -26 -40 -17 -10 -31 -24 -31 -31 0 -7 -7 -27 -16 -43 -14
-28 -14 -34 0 -70 22 -55 68 -310 59 -329 -4 -8 -8 -26 -9 -40 -2 -32 -53
-192 -66 -205 -6 -6 -7 10 -4 45 l5 55 -9 -45 c-5 -25 -7 -53 -4 -64 5 -15 3
-18 -10 -13 -11 5 -16 1 -16 -14 0 -11 -4 -17 -10 -14 -6 3 -10 -4 -11 -17 0
-23 0 -23 -9 -2 -11 27 -32 42 -38 26 -7 -21 -22 -2 -22 27 0 36 -10 45 -25
24 -11 -15 -14 -11 -20 28 -4 24 -20 83 -36 132 -23 70 -29 105 -29 176 0 81
-2 90 -20 96 -29 9 -42 -2 -30 -26 9 -16 7 -19 -8 -19 -15 0 -18 -6 -15 -27
l4 -28 -26 29 c-27 29 -28 29 -42 10 -8 -10 -20 -18 -26 -17 -13 3 -57 -111
-57 -146 0 -12 -4 -21 -10 -21 -5 0 -10 7 -10 16 0 31 -18 3 -34 -56 -9 -33
-19 -60 -22 -60 -3 0 -2 24 0 53 l6 52 -14 -45 c-17 -54 -19 -47 -16 45 l2 69
-35 -34 c-35 -36 -60 -89 -48 -107 7 -13 86 -53 102 -53 28 0 138 -63 178
-102 24 -24 63 -78 88 -120 25 -43 48 -80 52 -82 4 -3 38 4 75 15 l67 20 87
-20 c207 -48 277 -38 467 65 188 101 507 254 532 254 8 0 63 -45 122 -100 156
-145 298 -247 461 -330 l40 -20 0 1000 0 1000 -2400 0 -2400 0 0 -1005z"/>
<path d="M2891 2556 c-37 -82 -38 -100 -6 -131 46 -47 55 -36 55 73 0 132 -11
145 -49 58z"/>
<path d="M4064 1890 l-91 -47 57 -59 58 -60 6 -74 c3 -41 8 -146 11 -232 9
-224 4 -222 -167 72 l-89 155 6 63 c3 35 11 72 17 82 21 33 1 33 -68 1 -89
-42 -197 -119 -187 -134 4 -7 22 -32 39 -57 55 -77 55 -77 24 -310 -16 -117
-34 -218 -40 -224 -22 -22 -36 9 -152 346 l-30 87 22 61 c12 34 20 64 17 66
-2 3 -55 5 -116 5 -124 1 -155 -9 -126 -41 10 -11 18 -44 21 -86 l6 -69 -49
-75 c-27 -41 -77 -120 -111 -175 -87 -139 -99 -154 -112 -135 -20 28 1 -80 31
-161 16 -43 42 -146 59 -231 35 -174 120 -634 120 -648 0 -6 290 -10 790 -10
l790 0 0 579 0 579 -72 69 c-40 37 -86 82 -104 98 -50 48 -58 71 -57 170 l1
90 -51 32 c-29 17 -53 30 -54 29 -3 -2 13 -90 43 -248 42 -220 35 -221 -121
-19 -44 57 -95 122 -113 144 -56 68 -65 94 -58 161 3 33 11 65 16 70 6 6 10
20 10 32 0 13 5 26 10 29 6 3 10 12 10 18 0 14 -86 108 -97 106 -5 -1 -49 -23
-99 -49z"/>
<path d="M571 1904 c-11 -8 -34 -32 -51 -55 -25 -30 -30 -43 -21 -52 6 -6 11
-21 11 -33 0 -12 7 -24 15 -28 14 -5 46 -66 60 -114 5 -16 -10 -55 -52 -140
-32 -64 -61 -118 -65 -120 -5 -2 -8 -12 -8 -22 0 -19 -25 -50 -39 -50 -11 0
-26 55 -56 204 -20 100 -24 135 -16 158 l11 30 -37 -32 c-20 -18 -61 -48 -90
-67 -29 -18 -53 -38 -53 -42 0 -5 16 -32 35 -61 56 -83 56 -85 -21 -241 -69
-141 -94 -168 -109 -116 -4 12 -22 71 -41 131 -19 59 -34 121 -34 136 0 16 15
46 35 74 38 49 29 62 -20 30 l-25 -16 0 -739 0 -739 874 0 874 0 32 87 c17 48
49 150 70 228 44 156 60 202 119 330 33 70 41 99 40 139 -1 28 2 92 6 142 8
95 -1 232 -15 218 -4 -5 -17 -35 -29 -67 -58 -159 -90 -193 -346 -362 -182
-120 -295 -185 -321 -185 -8 0 -74 -23 -147 -51 -112 -44 -141 -51 -194 -50
-108 2 -303 78 -303 118 0 13 9 14 68 7 98 -12 138 -7 238 26 81 27 114 48
114 73 0 5 -17 6 -38 2 -40 -6 -71 12 -57 35 24 39 177 62 240 36 20 -9 44
-16 52 -16 8 0 49 28 90 63 150 124 309 248 350 275 53 34 56 62 10 114 -87
99 -200 252 -208 283 -12 42 -6 104 12 134 12 20 12 24 -6 38 -16 12 -40 14
-124 9 -57 -3 -108 -9 -114 -15 -6 -6 1 -28 19 -60 l29 -50 -17 -58 c-62 -222
-86 -289 -103 -286 -6 0 -17 21 -26 45 -9 23 -35 96 -59 161 -40 109 -42 120
-31 158 7 21 24 54 40 72 15 17 25 40 23 50 -7 34 -251 172 -270 153 -3 -4 -1
-16 5 -29 30 -65 43 -99 43 -112 0 -14 -103 -240 -134 -295 -31 -54 -40 -38
-79 137 l-37 167 21 43 c11 24 34 55 50 70 31 29 38 53 16 53 -7 0 -52 20
-100 44 -76 38 -89 42 -106 30z"/>
<path d="M3063 1630 c-47 -4 -79 -12 -91 -23 -10 -9 -26 -17 -35 -17 -9 0 -18
-4 -21 -9 -7 -10 40 -82 60 -94 20 -12 7 -27 -22 -27 -29 0 -29 -6 -9 -103 31
-149 35 -169 35 -197 0 -16 4 -31 9 -35 12 -7 16 17 36 200 22 203 22 202 75
257 26 27 44 50 41 51 -3 2 -38 0 -78 -3z"/>
<path d="M1640 1622 c0 -3 20 -24 44 -46 58 -55 63 -66 70 -171 9 -115 16
-165 24 -165 6 0 24 52 49 142 3 11 -5 22 -26 32 -38 20 -39 37 -6 70 l26 26
-22 29 c-14 18 -20 38 -16 51 3 12 0 23 -6 25 -23 7 -137 13 -137 7z"/>
<path d="M2786 940 c4 -30 8 -91 9 -135 2 -69 7 -89 37 -150 49 -96 104 -247
128 -347 10 -46 28 -108 38 -138 17 -48 20 -52 26 -32 10 31 9 35 -94 347 -49
149 -98 317 -110 374 -24 118 -46 170 -34 81z"/>
</g>
</svg>
