<?xml version="1.0" standalone="no"?>
<!DOCTYPE svg PUBLIC "-//W3C//DTD SVG 20010904//EN"
 "http://www.w3.org/TR/2001/REC-SVG-20010904/DTD/svg10.dtd">
<svg version="1.0" xmlns="http://www.w3.org/2000/svg"
 width="480.000000pt" height="360.000000pt" viewBox="0 0 480.000000 360.000000"
 preserveAspectRatio="xMidYMid meet">
<metadata>
Created by potrace 1.16, written by Peter Selinger 2001-2019
</metadata>
<rect width="1" height="360" fill="#000000"/>
<rect x="479" width="1" height="360" fill="#000000"/>
<rect width="480" height="1" fill="#000000"/>
<rect y="359" width="480" height="1" fill="#000000"/>
<g transform="translate(0.000000,360.000000) scale(0.100000,-0.100000)"
fill="#000000" stroke="none">
<path d="M0 1800 l0 -1800 1095 0 1095 0 0 73 c0 69 -2 75 -32 105 -18 17 -51
37 -73 44 -39 13 -40 15 -50 71 -7 43 -17 65 -36 81 -26 22 -35 49 -45 131 -6
49 16 102 118 283 93 165 178 325 178 336 0 4 -7 5 -16 2 -11 -4 -19 5 -30 30
-15 35 -14 38 13 78 29 43 93 174 93 191 0 6 -13 17 -28 26 -18 10 -32 30 -41
60 -7 24 -19 60 -25 79 l-11 35 -3 -35 c-1 -19 -5 -46 -8 -60 -6 -23 -7 -24
-14 -5 -5 11 -9 35 -9 53 -1 36 -21 35 -22 -1 0 -21 -1 -21 -10 2 -7 18 -5 45
6 92 17 79 20 143 5 119 -5 -8 -10 -27 -10 -42 0 -45 -18 -32 -26 17 -5 33 1
74 22 157 34 138 65 210 149 344 38 61 84 153 111 221 24 64 58 140 75 169
l30 53 -41 26 c-63 40 -56 48 33 45 45 -1 52 2 102 49 30 28 62 51 72 51 11 0
24 5 31 12 9 9 17 7 35 -10 12 -12 42 -28 66 -37 42 -15 43 -14 89 17 l47 31
-34 -36 c-19 -20 -33 -38 -30 -40 2 -2 18 -13 35 -25 26 -18 33 -31 38 -71 4
-28 11 -53 17 -56 5 -4 7 -14 4 -24 -4 -12 8 -26 41 -49 55 -39 54 -58 -4 -54
-33 3 -42 0 -42 -12 0 -9 -4 -16 -9 -16 -5 0 -13 -9 -16 -20 -4 -14 -19 -22
-47 -26 -39 -7 -40 -8 -33 -40 5 -29 3 -34 -13 -34 -24 0 -48 -27 -57 -62 -6
-24 -2 -29 33 -47 23 -11 43 -25 47 -30 3 -6 28 -22 56 -38 50 -27 79 -64 79
-101 0 -11 7 -25 15 -32 8 -7 15 -19 15 -26 0 -8 16 -46 35 -84 19 -38 35 -82
35 -98 0 -17 -19 -58 -47 -102 -26 -40 -48 -84 -49 -98 -2 -14 -19 -51 -38
-82 -20 -32 -36 -66 -36 -77 0 -10 17 -58 39 -108 21 -49 53 -137 71 -195 18
-58 43 -134 55 -170 44 -123 53 -164 42 -178 -7 -9 -7 -20 1 -36 6 -13 34 -86
63 -162 28 -77 62 -161 75 -189 26 -54 25 -75 -4 -75 -29 0 -32 -10 -17 -47
19 -44 19 -43 -5 -43 -10 0 -25 -10 -31 -23 -6 -12 -13 -24 -15 -25 -1 -2 -30
6 -63 19 l-61 22 -50 -34 -50 -34 0 -87 c0 -48 5 -90 10 -93 6 -3 10 -17 10
-31 l0 -24 900 0 900 0 0 1800 0 1800 -2400 0 -2400 0 0 -1800z"/>
<path d="M2850 1911 c0 -37 -3 -96 -6 -130 -6 -56 -5 -61 13 -61 15 0 29 21
61 90 l41 90 -45 30 c-24 17 -44 35 -44 40 0 6 -4 10 -10 10 -6 0 -10 -30 -10
-69z"/>
<path d="M2431 1822 c-25 -85 -24 -106 6 -110 19 -3 22 3 28 50 3 29 2 71 -2
93 l-9 40 -23 -73z"/>
<path d="M3080 986 c0 -16 5 -26 15 -26 8 0 15 6 15 14 0 7 -7 19 -15 26 -13
11 -15 8 -15 -14z"/>
<path d="M2709 179 c-83 -54 -115 -63 -186 -50 -39 8 -68 8 -95 0 -41 -11 -51
-25 -63 -93 l-7 -36 221 0 221 0 0 24 c0 13 5 26 11 28 13 4 -12 160 -27 165
-6 2 -39 -15 -75 -38z"/>
</g>
</svg>
