<?xml version="1.0" standalone="no"?>
<!DOCTYPE svg PUBLIC "-//W3C//DTD SVG 20010904//EN"
 "http://www.w3.org/TR/2001/REC-SVG-20010904/DTD/svg10.dtd">
<svg version="1.0" xmlns="http://www.w3.org/2000/svg"
 width="480.000000pt" height="360.000000pt" viewBox="0 0 480.000000 360.000000"
 preserveAspectRatio="xMidYMid meet">
<metadata>
Created by potrace 1.16, written by Peter Selinger 2001-2019
</metadata>
<rect width="1" height="360" fill="#000000"/>
<rect x="479" width="1" height="360" fill="#000000"/>
<rect width="480" height="1" fill="#000000"/>
<rect y="359" width="480" height="1" fill="#000000"/>
<g transform="translate(0.000000,360.000000) scale(0.100000,-0.100000)"
fill="#000000" stroke="none">
<path d="M2380 3577 c0 -70 80 -221 152 -289 l40 -37 -44 -22 c-106 -54 -248
-179 -324 -285 -38 -54 -56 -91 -105 -224 -5 -14 -20 -83 -34 -155 -16 -84
-36 -150 -54 -187 -16 -32 -26 -58 -21 -58 5 0 25 16 45 37 l35 36 0 -49 c0
-87 12 -186 21 -172 5 7 9 33 9 58 l1 45 21 -45 c11 -25 32 -70 45 -100 l25
-55 12 30 12 29 19 -32 c19 -32 35 -42 35 -21 0 6 24 -9 54 -35 59 -50 72 -56
56 -27 -5 11 -10 36 -10 57 0 37 0 37 21 18 66 -60 65 -156 -3 -243 -18 -24
-18 -25 2 -46 11 -12 38 -27 60 -34 34 -10 41 -18 51 -51 8 -28 22 -46 46 -60
22 -13 33 -27 32 -42 -1 -48 -26 -364 -30 -378 -3 -11 4 -14 28 -13 31 3 32 2
38 -45 15 -123 37 -262 49 -314 7 -32 11 -58 9 -58 -2 0 -25 12 -49 26 -28 16
-62 27 -90 28 -36 2 -51 9 -82 38 -20 20 -50 43 -67 51 -16 8 -52 42 -80 76
-27 33 -55 63 -62 65 -9 4 -11 23 -7 68 16 176 -83 383 -193 404 -37 7 -212
-8 -244 -21 -13 -5 -18 2 -23 34 -3 23 -11 41 -16 41 -16 0 -28 -34 -23 -67 5
-31 3 -33 -75 -72 -88 -44 -147 -102 -161 -160 -45 -181 -46 -189 -23 -244 11
-29 30 -87 42 -129 22 -73 27 -81 108 -162 65 -65 96 -88 133 -100 26 -9 54
-16 61 -16 40 -1 41 -16 4 -106 -56 -141 -68 -202 -75 -392 l-6 -172 1342 0
c884 0 1344 3 1348 10 4 6 -8 10 -29 10 -20 0 -36 2 -36 4 0 2 22 26 50 53 27
26 50 53 50 60 0 8 -18 9 -61 6 -51 -5 -80 -17 -176 -70 -65 -36 -124 -63
-136 -61 -17 2 -23 14 -34 67 -7 35 -18 70 -24 77 -6 8 -9 24 -6 35 6 24 -20
158 -34 173 -5 6 -9 25 -9 43 0 36 -31 178 -55 254 -8 26 -15 57 -15 70 0 13
-7 36 -14 51 -27 51 2 38 32 -14 60 -106 79 -116 58 -33 -26 100 -26 105 -16
105 6 0 13 -6 15 -12 37 -108 49 -129 75 -143 29 -15 58 -11 72 9 12 18 11 20
-53 92 -73 83 -82 99 -124 228 -34 106 -53 240 -36 250 5 4 13 -4 17 -16 8
-27 105 -185 134 -219 16 -19 14 -11 -9 41 -31 70 -31 90 0 51 25 -31 24 -17
-6 57 -14 34 -25 65 -25 68 0 4 29 -35 65 -85 82 -116 118 -161 128 -161 5 0
-1 15 -12 33 -18 29 -91 209 -91 225 0 3 34 -29 76 -72 42 -42 77 -76 79 -74
2 2 -14 55 -35 118 -53 159 -67 267 -84 630 -25 531 -77 803 -201 1050 -32 65
-44 102 -49 155 -13 119 -59 201 -187 332 -95 97 -156 131 -250 139 -68 7
-158 -12 -204 -42 -20 -13 -27 -12 -76 10 -30 13 -72 40 -94 60 l-40 36 -342
0 -343 0 0 -23z m613 -2039 c13 -18 32 -47 42 -65 l18 -31 -35 -41 c-57 -67
-172 -284 -219 -415 -29 -79 -49 -115 -49 -85 0 7 7 61 15 119 8 58 15 126 15
153 0 46 1 47 30 47 31 0 39 17 19 37 -12 12 -3 240 10 260 10 16 84 52 108
53 14 0 31 -13 46 -32z"/>
</g>
</svg>
