<?xml version="1.0" standalone="no"?>
<!DOCTYPE svg PUBLIC "-//W3C//DTD SVG 20010904//EN"
 "http://www.w3.org/TR/2001/REC-SVG-20010904/DTD/svg10.dtd">
<svg version="1.0" xmlns="http://www.w3.org/2000/svg"
 width="480.000000pt" height="360.000000pt" viewBox="0 0 480.000000 360.000000"
 preserveAspectRatio="xMidYMid meet">
<metadata>
Created by potrace 1.16, written by Peter Selinger 2001-2019
</metadata>
<rect width="1" height="360" fill="#000000"/>
<rect x="479" width="1" height="360" fill="#000000"/>
<rect width="480" height="1" fill="#000000"/>
<rect y="359" width="480" height="1" fill="#000000"/>
<g transform="translate(0.000000,360.000000) scale(0.100000,-0.100000)"
fill="#000000" stroke="none">
<path d="M0 2249 l0 -1351 33 7 32 7 -19 -21 c-11 -11 -25 -21 -33 -21 -11 0
-13 -77 -13 -435 l0 -435 735 0 c404 0 735 3 735 6 0 26 -43 70 -95 96 -79 40
-93 54 -101 97 -10 61 -13 65 -54 91 -25 16 -40 32 -40 45 0 30 24 92 43 113
9 10 17 32 17 48 0 54 171 196 363 303 187 103 214 129 489 467 l97 119 -33
17 c-41 21 -53 35 -70 84 -11 33 -17 39 -40 36 -28 -3 -86 23 -86 38 0 5 21
20 48 32 l47 23 -3 157 c-2 123 -6 170 -22 220 -31 98 -27 143 16 190 19 22
33 42 30 45 -3 3 -26 -7 -53 -22 -27 -17 -48 -24 -50 -18 -8 23 -42 55 -53 48
-5 -3 -13 0 -16 8 -3 8 -14 17 -25 20 -17 5 -19 9 -10 26 15 28 14 31 -14 31
-30 0 -32 15 -5 32 26 16 26 28 -1 28 -19 0 -19 2 7 36 15 19 44 42 64 50 39
16 104 104 147 203 52 117 154 201 245 201 51 0 152 -36 204 -73 59 -42 97
-101 123 -194 8 -26 7 -31 -5 -26 -10 3 -14 -2 -14 -18 0 -28 -71 -94 -82 -76
-5 8 -11 7 -22 -2 -20 -17 -21 -45 -1 -61 13 -11 11 -16 -13 -39 -15 -14 -42
-44 -59 -65 -27 -33 -34 -37 -47 -27 -8 7 -20 10 -26 6 -24 -15 -6 -37 56 -66
69 -33 117 -84 129 -139 8 -36 45 -72 53 -50 3 8 29 40 57 70 29 30 50 60 48
67 -5 14 86 75 144 97 21 8 81 22 134 31 94 17 97 17 185 -4 130 -32 167 -46
289 -106 79 -39 129 -72 175 -114 35 -33 68 -58 72 -55 4 3 8 -4 8 -16 0 -11
11 -42 24 -69 33 -65 53 -146 67 -277 10 -96 10 -128 -6 -235 -9 -68 -23 -135
-31 -149 -53 -99 -152 -207 -228 -247 -22 -12 -33 -12 -50 -3 -18 9 -34 6 -93
-19 -78 -34 -111 -31 -133 8 -9 18 -20 20 -88 19 -91 -1 -117 10 -136 57 -18
41 -36 52 -103 58 -52 5 -52 5 -64 -30 -16 -51 -60 -74 -134 -72 l-60 2 2 -29
c16 -194 62 -556 98 -775 14 -81 25 -170 25 -198 l0 -51 995 0 995 0 0 1800 0
1800 -1178 0 c-879 0 -1181 -3 -1190 -12 -8 -8 -15 -8 -28 3 -10 8 -15 9 -11
2 9 -14 -54 -83 -77 -83 -9 0 -16 3 -16 8 1 13 29 45 57 64 27 17 -7 18 -1164
18 l-1193 0 0 -1351z m679 1225 c12 -11 -9 -10 -44 2 l-40 13 40 -6 c22 -3 42
-7 44 -9z m574 -7 c-24 -10 -58 -3 -49 11 3 5 20 6 38 4 31 -5 32 -6 11 -15z
m-530 -4 c-7 -2 -19 -2 -25 0 -7 3 -2 5 12 5 14 0 19 -2 13 -5z m1257 -13 c0
-12 -53 -40 -75 -40 -28 0 -11 24 26 37 43 15 49 15 49 3z m-1890 -163 c0 -36
-22 -63 -55 -69 -17 -3 -20 3 -20 37 0 32 5 42 25 52 40 20 50 16 50 -20z
m612 -42 c0 -5 -5 -11 -11 -13 -6 -2 -11 4 -11 13 0 9 5 15 11 13 6 -2 11 -8
11 -13z m-344 -141 c31 -21 28 -38 -5 -29 -31 7 -53 23 -53 36 0 14 34 10 58
-7z m1827 6 c3 -6 -1 -7 -9 -4 -18 7 -21 14 -7 14 6 0 13 -4 16 -10z m-937
-375 c15 -11 27 -13 39 -7 10 5 23 8 28 7 6 -2 23 -6 40 -10 29 -6 29 -7 11
-21 -22 -16 -103 -19 -126 -4 -8 5 -10 10 -5 10 6 0 -1 9 -15 20 -31 24 -6 28
28 5z m-1158 -70 c10 -12 9 -16 -4 -21 -18 -7 -49 13 -40 27 8 14 30 11 44 -6z
m155 -155 c3 -6 -5 -10 -19 -10 -14 0 -28 5 -31 10 -3 6 5 10 19 10 14 0 28
-4 31 -10z m1389 -226 c11 -29 6 -44 -14 -44 -25 0 -36 25 -20 45 16 19 26 19
34 -1z m-574 -214 c0 -5 -18 -10 -41 -10 -24 0 -38 4 -34 10 3 6 22 10 41 10
19 0 34 -4 34 -10z m455 -490 c15 -6 6 -9 -33 -9 -33 -1 -51 3 -47 9 7 12 52
12 80 0z m2624 -246 c13 -36 13 -39 -13 -61 -35 -29 -44 -29 -56 3 -15 38 -12
58 11 88 25 32 38 25 58 -30z m59 -121 c2 -8 -5 -13 -17 -13 -12 0 -21 6 -21
16 0 18 31 15 38 -3z m-2994 -56 c5 -20 6 -40 2 -44 -12 -12 -36 28 -36 60 0
40 23 30 34 -16z m-1077 -28 c42 -17 11 -22 -52 -9 -63 13 -77 36 -16 26 22
-3 52 -11 68 -17z m3949 -534 c21 -32 14 -39 -37 -37 -49 2 -59 7 -59 32 0 36
73 40 96 5z m154 -449 c0 -17 -51 -30 -80 -21 -11 3 -20 13 -20 21 0 10 13 14
50 14 37 0 50 -4 50 -14z"/>
<path d="M2335 2290 c3 -5 8 -10 11 -10 2 0 4 5 4 10 0 6 -5 10 -11 10 -5 0
-7 -4 -4 -10z"/>
<path d="M2590 1590 c0 -103 20 -155 65 -166 34 -8 45 2 45 41 0 28 -8 41 -51
76 -47 41 -50 46 -48 86 2 23 0 45 -4 49 -4 4 -7 -35 -7 -86z"/>
<path d="M2786 1302 c-4 -11 -18 -25 -32 -33 -14 -7 -36 -26 -49 -41 -13 -15
-28 -28 -34 -28 -6 0 -11 -8 -11 -18 0 -34 25 -54 73 -59 42 -5 50 -2 82 26
20 17 43 31 51 31 14 0 14 2 0 16 -9 8 -16 27 -16 41 0 30 -30 83 -46 83 -7 0
-15 -8 -18 -18z"/>
</g>
</svg>
