<?xml version="1.0" standalone="no"?>
<!DOCTYPE svg PUBLIC "-//W3C//DTD SVG 20010904//EN"
 "http://www.w3.org/TR/2001/REC-SVG-20010904/DTD/svg10.dtd">
<svg version="1.0" xmlns="http://www.w3.org/2000/svg"
 width="480.000000pt" height="360.000000pt" viewBox="0 0 480.000000 360.000000"
 preserveAspectRatio="xMidYMid meet">
<metadata>
Created by potrace 1.16, written by Peter Selinger 2001-2019
</metadata>
<rect width="1" height="360" fill="#000000"/>
<rect x="479" width="1" height="360" fill="#000000"/>
<rect width="480" height="1" fill="#000000"/>
<rect y="359" width="480" height="1" fill="#000000"/>
<g transform="translate(0.000000,360.000000) scale(0.100000,-0.100000)"
fill="#000000" stroke="none">
<path d="M0 2317 l0 -1284 53 10 c28 5 81 17 117 27 40 11 115 21 196 24 72 3
146 9 163 12 29 6 32 10 29 38 -2 25 -9 32 -35 39 -17 5 -34 15 -36 22 -3 6 6
54 19 106 17 62 27 135 31 216 l6 123 -35 14 c-48 20 -65 43 -50 64 7 10 14
22 16 27 12 31 45 159 56 213 10 55 9 65 -4 75 -13 10 -14 19 -7 47 5 19 12
60 16 91 7 64 27 89 87 108 32 11 42 9 76 -8 27 -14 43 -31 51 -52 6 -18 18
-40 26 -49 14 -15 13 -19 -5 -40 -23 -27 -23 -22 -10 -56 8 -21 7 -31 -6 -45
-15 -17 -15 -21 0 -59 9 -22 16 -49 16 -60 0 -20 60 -81 111 -112 30 -18 30
-19 14 -44 -10 -16 -14 -35 -11 -50 5 -19 2 -24 -12 -24 -10 0 -23 5 -30 12
-10 10 -18 7 -37 -12 l-25 -25 35 -205 c19 -112 39 -218 44 -235 4 -16 6 -36
4 -42 -6 -17 -32 -16 -39 1 -7 19 -63 41 -74 30 -5 -5 -12 -21 -15 -36 -6 -22
-3 -29 11 -34 11 -4 29 -16 42 -27 l23 -21 -38 -19 c-42 -21 -204 -46 -301
-47 -34 0 -123 -9 -198 -21 -74 -11 -166 -19 -204 -17 l-70 3 0 -497 0 -498
905 0 c681 0 905 3 905 12 0 6 13 32 29 57 22 35 35 78 55 181 21 112 33 150
71 224 45 89 45 89 26 110 -23 25 -52 141 -53 211 0 28 7 94 17 148 9 53 15
101 13 106 -2 5 -38 -11 -80 -36 -73 -42 -77 -46 -71 -74 5 -28 -9 -59 -29
-59 -5 0 -20 11 -34 25 l-24 24 -41 -21 c-48 -25 -56 -40 -40 -75 18 -39 5
-40 -15 -1 -9 18 -18 34 -19 36 -1 1 -22 -7 -46 -18 -24 -11 -60 -20 -79 -20
-38 0 -80 23 -80 43 0 7 72 50 159 95 86 46 220 123 296 170 132 83 140 89
152 130 12 42 11 43 -13 52 -38 15 -59 12 -79 -10 -10 -11 -23 -20 -30 -20
-17 0 -45 33 -45 53 0 9 -3 17 -7 17 -48 0 -388 67 -415 82 -22 11 -24 46 -3
54 8 3 45 -1 82 -10 70 -15 311 -56 336 -56 8 0 19 11 25 25 15 33 45 32 71
-1 16 -21 32 -28 69 -31 46 -5 47 -4 80 41 17 26 32 52 32 58 0 6 7 19 15 28
19 21 11 44 -21 58 -28 13 -29 22 -8 63 20 40 14 171 -10 218 -16 31 -16 37 0
113 10 44 28 96 41 115 13 18 23 38 23 43 0 5 11 15 25 22 l24 13 -37 40 c-35
38 -124 96 -532 344 -91 55 -205 126 -254 158 -49 32 -121 74 -161 94 -39 20
-79 48 -88 62 -9 15 -30 28 -49 32 -98 20 -250 70 -297 98 -59 35 -123 102
-152 159 l-19 37 55 58 c38 39 55 65 53 79 -3 24 18 54 38 54 8 0 16 16 20 40
6 38 8 40 43 40 129 0 354 -113 472 -237 73 -76 159 -239 159 -301 0 -28 -3
-30 -51 -35 -36 -5 -60 -15 -84 -35 l-33 -30 26 -19 c73 -54 735 -463 715
-442 -20 20 -16 114 7 158 43 86 170 161 269 161 31 0 64 -8 92 -24 25 -13 70
-26 100 -30 31 -4 83 -20 116 -35 57 -28 60 -31 70 -77 6 -27 13 -56 17 -64 4
-10 -9 -32 -39 -63 -48 -51 -55 -79 -28 -109 15 -17 15 -18 -2 -18 -12 0 -15
-5 -11 -16 5 -13 1 -15 -20 -10 -21 6 -25 4 -21 -8 4 -10 1 -16 -8 -16 -8 0
-15 -7 -15 -16 0 -12 -6 -15 -23 -10 -16 4 -29 -1 -41 -15 -9 -12 -16 -23 -14
-25 3 -2 46 -12 96 -23 101 -20 134 -37 156 -79 8 -15 28 -40 46 -55 27 -24
31 -35 28 -64 -4 -33 -1 -36 55 -69 33 -19 62 -33 65 -30 5 6 53 -25 92 -59
14 -12 38 -26 54 -29 40 -10 22 -24 -50 -39 -49 -10 -93 -35 -266 -150 l-207
-138 20 -38 c18 -34 25 -39 67 -45 59 -7 313 -25 492 -34 l135 -7 0 -25 c0
-18 -9 -30 -35 -43 -32 -17 -54 -18 -230 -13 -107 4 -230 9 -273 13 l-79 6 17
-33 c9 -17 38 -53 64 -78 64 -64 264 -241 329 -292 40 -32 52 -48 52 -69 0
-15 -5 -32 -11 -38 -5 -5 -18 -25 -27 -44 -11 -21 -26 -35 -40 -37 -13 -2 -26
-11 -29 -20 -9 -24 -25 -33 -46 -26 -12 4 -29 -3 -45 -19 -15 -13 -40 -29 -57
-35 -16 -5 -29 -13 -28 -18 10 -52 23 -223 23 -296 0 -74 4 -102 20 -133 21
-42 26 -85 10 -85 -5 0 -10 -7 -10 -15 0 -13 114 -15 965 -15 l965 0 0 1800 0
1800 -1007 0 c-692 0 -1003 -4 -993 -11 8 -5 38 -21 65 -36 95 -49 270 -172
335 -235 36 -35 101 -106 145 -158 127 -150 173 -196 233 -237 32 -21 59 -39
62 -41 2 -2 -2 -7 -10 -12 -19 -12 -99 20 -157 63 -26 20 -117 106 -202 191
-84 86 -159 156 -166 156 -8 0 -14 -20 -17 -53 -12 -146 -138 -267 -278 -267
-72 0 -119 17 -148 55 -28 36 -38 74 -58 220 -14 98 -15 130 -5 183 11 59 10
66 -9 95 -11 18 -28 44 -37 59 l-18 28 -1267 0 -1268 0 0 -1283z m4208 945 c2
-7 -6 -12 -17 -12 -21 0 -27 11 -14 24 9 9 26 2 31 -12z m-388 -526 c0 -11
-19 -15 -25 -6 -3 5 1 10 9 10 9 0 16 -2 16 -4z m-161 -25 c28 -21 20 -45 -12
-35 -22 6 -47 31 -47 46 0 14 34 8 59 -11z m1111 8 c0 -16 -71 -42 -83 -30
-15 15 -4 23 40 31 21 4 39 8 41 9 1 0 2 -4 2 -10z m-2075 -369 c-3 -5 -10
-10 -16 -10 -5 0 -9 5 -9 10 0 6 7 10 16 10 8 0 12 -4 9 -10z m1745 -1080
c-20 -12 -33 -1 -19 16 9 11 15 12 23 4 8 -8 7 -13 -4 -20z"/>
<path d="M2510 1946 c0 -20 20 -32 64 -39 71 -11 84 -53 26 -77 -16 -7 -31
-10 -33 -9 -11 10 -37 -27 -37 -53 0 -50 22 -168 32 -168 5 0 78 48 162 107
l154 106 -70 46 c-65 41 -76 45 -137 45 -58 1 -72 5 -100 29 -35 29 -61 35
-61 13z"/>
<path d="M635 1160 c3 -5 8 -10 11 -10 2 0 4 5 4 10 0 6 -5 10 -11 10 -5 0 -7
-4 -4 -10z"/>
<path d="M2570 481 c-9 -17 -20 -21 -61 -21 -33 0 -56 -6 -66 -16 -13 -12 -28
-15 -64 -10 -30 4 -48 3 -51 -4 -2 -7 -24 -6 -66 5 -120 31 -113 37 -205 -175
-49 -114 -80 -199 -81 -223 l-1 -37 383 0 c248 0 382 4 382 10 0 6 -4 10 -10
10 -6 0 -10 28 -10 63 0 34 -11 111 -24 170 -14 59 -28 132 -31 161 -9 66 -12
72 -52 80 -26 6 -34 4 -43 -13z"/>
</g>
</svg>
