<?xml version="1.0" standalone="no"?>
<!DOCTYPE svg PUBLIC "-//W3C//DTD SVG 20010904//EN"
 "http://www.w3.org/TR/2001/REC-SVG-20010904/DTD/svg10.dtd">
<svg version="1.0" xmlns="http://www.w3.org/2000/svg"
 width="480.000000pt" height="360.000000pt" viewBox="0 0 480.000000 360.000000"
 preserveAspectRatio="xMidYMid meet">
<metadata>
Created by potrace 1.16, written by Peter Selinger 2001-2019
</metadata>
<rect width="1" height="360" fill="#000000"/>
<rect x="479" width="1" height="360" fill="#000000"/>
<rect width="480" height="1" fill="#000000"/>
<rect y="359" width="480" height="1" fill="#000000"/>
<g transform="translate(0.000000,360.000000) scale(0.100000,-0.100000)"
fill="#000000" stroke="none">
<path d="M0 1800 l0 -1800 2400 0 2400 0 0 1800 0 1800 -846 0 -845 0 6 -137
c18 -370 -110 -713 -364 -972 -296 -302 -705 -438 -1128 -375 -59 9 -142 27
-183 41 -96 32 -271 117 -326 159 -23 18 -52 37 -64 44 -27 14 -170 159 -211
215 -92 122 -114 157 -164 257 -30 60 -55 120 -55 132 0 12 -11 54 -24 92 -39
113 -49 194 -45 377 l4 167 -277 0 -278 0 0 -1800z"/>
</g>
</svg>
