<?xml version="1.0" standalone="no"?>
<!DOCTYPE svg PUBLIC "-//W3C//DTD SVG 20010904//EN"
 "http://www.w3.org/TR/2001/REC-SVG-20010904/DTD/svg10.dtd">
<svg version="1.0" xmlns="http://www.w3.org/2000/svg"
 width="480.000000pt" height="360.000000pt" viewBox="0 0 480.000000 360.000000"
 preserveAspectRatio="xMidYMid meet">
<metadata>
Created by potrace 1.16, written by Peter Selinger 2001-2019
</metadata>
<rect width="1" height="360" fill="#000000"/>
<rect x="479" width="1" height="360" fill="#000000"/>
<rect width="480" height="1" fill="#000000"/>
<rect y="359" width="480" height="1" fill="#000000"/>
<g transform="translate(0.000000,360.000000) scale(0.100000,-0.100000)"
fill="#000000" stroke="none">
<path d="M0 2734 l0 -866 28 6 c15 3 77 15 137 26 250 48 486 127 735 246 97
46 188 84 204 84 21 0 42 -13 80 -53 28 -29 123 -116 211 -194 88 -78 205
-192 260 -254 155 -172 265 -274 335 -309 82 -41 194 -69 308 -77 87 -6 92 -5
92 14 0 26 37 118 94 235 59 119 123 184 241 243 44 21 80 39 81 40 1 0 4 15
7 33 5 22 3 31 -4 27 -7 -5 -8 5 -3 30 6 36 6 37 -15 26 -11 -7 -21 -17 -22
-24 0 -7 -6 0 -12 14 -7 14 -18 34 -26 43 -13 16 -16 15 -37 -11 -25 -30 -30
-21 -15 21 8 18 6 28 -6 37 -13 11 -21 7 -54 -31 -43 -51 -48 -44 -18 25 28
63 20 91 -31 106 -22 7 -40 16 -40 22 0 5 10 26 21 47 l22 38 -22 28 c-21 26
-81 61 -81 47 0 -4 10 -17 22 -30 32 -34 15 -28 -28 9 -33 29 -36 30 -30 10
10 -29 -10 -29 -41 0 -16 15 -23 17 -23 8 0 -8 -8 -3 -17 10 -9 14 -23 29 -30
33 -7 4 -13 22 -14 40 -1 18 -4 43 -8 57 -7 24 -8 24 -29 -17 -13 -24 -24 -43
-26 -43 -2 0 0 17 5 37 10 47 5 52 -29 30 -69 -45 -90 -51 -119 -37 -16 8 -36
21 -45 30 -9 8 -24 21 -33 28 -8 7 -15 24 -15 37 0 20 5 25 26 25 27 0 85 46
216 170 l59 55 -16 70 c-22 106 -20 170 7 189 12 9 30 16 38 16 9 0 27 19 40
43 58 103 192 207 359 279 76 33 77 33 231 32 130 -1 168 -5 235 -24 44 -13
98 -24 120 -24 36 -1 47 -9 118 -80 109 -110 142 -153 179 -232 29 -61 33 -79
33 -154 0 -53 -7 -112 -19 -156 l-19 -70 27 -54 c36 -72 101 -147 146 -170 47
-24 53 -40 29 -79 -23 -37 -41 -39 -59 -6 -8 15 -21 24 -34 23 -12 0 -39 3
-60 7 l-39 8 21 -35 c27 -43 27 -47 2 -41 -19 5 -19 4 -4 -33 9 -22 21 -45 26
-51 15 -18 0 -16 -49 8 -24 12 -46 19 -49 16 -3 -3 2 -19 12 -36 14 -24 15
-32 5 -45 -7 -8 -10 -20 -6 -26 13 -21 -12 -9 -40 20 -16 17 -32 30 -36 30 -9
0 -6 -47 6 -124 l8 -50 -29 21 c-16 12 -37 30 -47 41 -28 31 -50 17 -44 -25 5
-28 3 -34 -9 -29 -15 6 -14 -4 3 -51 3 -7 0 -13 -6 -13 -6 0 -11 3 -11 8 0 4
-10 18 -21 32 -20 24 -20 24 -14 3 9 -32 -3 -29 -47 14 l-38 37 0 -33 c0 -42
-15 -32 -26 16 l-8 38 -7 -40 c-5 -35 -7 -37 -14 -17 -11 32 -25 27 -16 -5 6
-22 14 -29 39 -31 34 -3 38 -14 22 -56 -8 -23 -6 -27 18 -39 15 -8 61 -24 102
-36 122 -37 154 -60 194 -144 19 -40 37 -88 41 -107 4 -19 22 -64 39 -99 l31
-64 140 7 c77 3 165 13 195 21 38 10 104 15 214 15 238 0 332 32 493 170 l83
71 0 919 0 920 -2400 0 -2400 0 0 -866z"/>
<path d="M1019 2042 c-30 -16 -73 -41 -97 -55 -41 -27 -42 -28 -26 -52 8 -13
13 -32 10 -42 -3 -13 5 -24 27 -38 17 -11 56 -55 85 -99 l54 -78 -9 -342 c-5
-188 -13 -347 -17 -354 -6 -10 -11 -10 -22 -1 -7 6 -81 148 -164 316 l-150
304 15 92 c8 51 15 95 15 99 0 3 11 19 24 35 21 25 22 31 10 47 -13 19 -16 18
-81 -12 -82 -37 -225 -85 -308 -103 -78 -17 -95 -38 -51 -61 33 -18 146 -166
146 -192 0 -11 3 -160 6 -331 6 -328 3 -355 -35 -321 -10 10 -36 48 -55 84
-20 37 -41 74 -46 82 -6 8 -36 62 -68 120 -32 58 -68 122 -80 143 -12 20 -31
54 -43 75 -12 20 -26 43 -31 49 -16 20 11 212 35 246 16 24 17 32 7 57 -14 33
-24 35 -117 24 l-53 -7 0 -863 0 -864 1164 0 1164 0 6 58 c4 31 14 95 22 140
13 72 13 87 1 105 -22 35 -247 632 -247 656 0 51 43 190 65 211 33 31 16 73
-39 94 -51 18 -192 49 -205 44 -5 -1 8 -32 30 -68 l40 -65 -6 -120 c-10 -201
-44 -585 -54 -602 -7 -14 -11 -12 -25 10 -10 14 -67 149 -127 299 -61 150
-117 288 -124 306 -13 28 -13 43 4 128 14 72 25 103 44 122 17 18 26 42 29 72
5 43 2 49 -63 135 -65 86 -169 198 -169 181 0 -4 16 -36 36 -71 l35 -64 -16
-318 c-8 -175 -18 -333 -20 -350 -9 -50 -32 -40 -61 25 -149 331 -254 580
-254 601 1 65 29 184 49 205 12 13 21 36 21 54 0 17 4 34 10 37 8 5 -222 245
-234 245 -2 0 -28 -13 -57 -28z"/>
<path d="M4769 1583 c-31 -33 -27 -77 9 -101 l22 -14 0 71 c0 39 -1 71 -3 71
-2 0 -15 -12 -28 -27z"/>
<path d="M4485 1455 c-113 -21 -154 -34 -165 -55 -9 -17 -7 -22 13 -31 15 -7
38 -41 65 -95 l42 -84 -15 -88 c-39 -221 -93 -474 -102 -483 -26 -26 -28 -22
-138 325 l-77 239 28 76 c15 42 36 86 47 98 11 13 19 25 16 27 -2 2 -35 0 -74
-5 -38 -4 -121 -8 -182 -8 -103 -1 -113 -3 -113 -19 0 -11 9 -27 21 -38 12
-10 37 -50 56 -88 42 -84 42 -86 -11 -421 -36 -222 -50 -272 -72 -243 -13 17
-49 114 -111 297 -34 102 -49 136 -51 116 -5 -37 26 -376 40 -439 7 -34 9
-131 4 -293 l-6 -243 550 0 550 0 0 460 c0 253 -2 460 -4 460 -2 0 -12 -35
-21 -77 -23 -108 -25 -113 -40 -113 -21 0 -25 11 -115 299 l-82 264 30 89 c35
102 42 96 -83 73z"/>
<path d="M3660 1351 c-22 -17 -23 -22 -11 -47 l12 -27 24 24 c17 17 23 31 19
47 -8 27 -12 27 -44 3z"/>
<path d="M2350 1168 l35 -36 28 26 c41 39 35 47 -35 47 l-63 0 35 -37z"/>
<path d="M2392 1111 c2 -3 16 -31 32 -61 28 -52 30 -54 37 -30 10 34 11 90 2
91 -37 5 -73 6 -71 0z"/>
<path d="M2442 835 c0 -16 2 -22 5 -12 2 9 2 23 0 30 -3 6 -5 -1 -5 -18z"/>
<path d="M2426 668 c-11 -107 -16 -213 -7 -188 4 14 11 73 15 133 8 111 3 146
-8 55z"/>
</g>
</svg>
