<?xml version="1.0" standalone="no"?>
<!DOCTYPE svg PUBLIC "-//W3C//DTD SVG 20010904//EN"
 "http://www.w3.org/TR/2001/REC-SVG-20010904/DTD/svg10.dtd">
<svg version="1.0" xmlns="http://www.w3.org/2000/svg"
 width="480.000000pt" height="360.000000pt" viewBox="0 0 480.000000 360.000000"
 preserveAspectRatio="xMidYMid meet">
<metadata>
Created by potrace 1.16, written by Peter Selinger 2001-2019
</metadata>
<rect width="1" height="360" fill="#000000"/>
<rect x="479" width="1" height="360" fill="#000000"/>
<rect width="480" height="1" fill="#000000"/>
<rect y="359" width="480" height="1" fill="#000000"/>
<g transform="translate(0.000000,360.000000) scale(0.100000,-0.100000)"
fill="#000000" stroke="none">
<path d="M2 3203 l3 -398 125 -22 c404 -70 604 -77 780 -29 52 14 137 37 189
51 198 53 518 55 866 4 118 -17 339 -62 423 -85 13 -4 22 -2 22 5 0 20 101
160 120 166 31 10 80 61 80 84 0 15 -8 22 -37 26 -64 11 -153 37 -159 47 -3 5
0 16 7 24 10 12 9 16 -9 21 -39 10 -26 44 41 108 37 34 108 85 168 119 57 33
105 60 107 61 1 1 13 40 26 86 12 46 26 94 30 107 l7 22 -1395 0 -1396 0 2
-397z"/>
<path d="M4522 3560 c-40 -49 -181 -143 -284 -190 -43 -19 -79 -40 -82 -46 -5
-12 83 -225 114 -276 30 -50 24 -56 -16 -17 l-36 34 4 -37 c2 -21 0 -38 -4
-38 -4 0 -8 -12 -8 -27 0 -20 -3 -24 -9 -14 -6 10 -16 -4 -32 -50 -13 -36 -25
-56 -27 -46 -5 25 -27 21 -52 -10 -15 -20 -20 -22 -15 -9 6 19 5 19 -13 3 -10
-9 -24 -17 -30 -17 -6 0 -28 -8 -48 -17 -35 -17 -36 -19 -31 -61 3 -29 14 -53
31 -71 32 -33 27 -55 -16 -77 -29 -15 -30 -18 -26 -66 13 -130 -56 -323 -139
-388 -30 -24 -33 -20 47 -67 77 -46 404 -255 428 -274 18 -14 34 -16 77 -12
53 6 57 4 134 -46 43 -29 100 -72 127 -96 27 -25 54 -45 61 -45 6 0 31 -15 55
-33 24 -18 49 -36 56 -41 9 -6 12 204 12 1033 l0 1041 -122 0 -123 0 -33 -40z"/>
<path d="M1283 2539 c-106 -12 -221 -44 -326 -90 -228 -101 -280 -113 -505
-113 l-183 -1 -29 -91 c-40 -126 -105 -389 -124 -506 -9 -54 -37 -232 -63
-395 l-46 -298 -4 -522 -4 -523 1368 0 1368 0 37 63 c20 34 47 93 59 132 l22
70 -14 380 c-15 414 -18 685 -7 868 6 118 0 144 -22 85 -10 -29 -13 -31 -19
-14 -7 19 -8 19 -15 1 -10 -26 -25 -7 -28 35 -4 70 78 397 126 501 6 14 -2 17
-61 21 -96 5 -167 43 -268 141 -93 92 -119 103 -380 166 -223 55 -382 79 -580
91 -190 11 -201 11 -302 -1z"/>
<path d="M3920 1609 c1 -8 20 -61 45 -119 24 -58 42 -107 39 -109 -2 -2 -10 2
-19 9 -26 21 -26 7 -4 -66 12 -39 24 -112 28 -169 l6 -100 19 30 c80 127 111
173 128 192 16 17 18 25 8 42 -6 12 -18 59 -25 104 -16 89 -15 87 -112 152
-58 40 -113 56 -113 34z"/>
<path d="M4777 989 c13 -22 19 -26 21 -14 4 17 -15 45 -30 45 -5 0 -1 -14 9
-31z"/>
<path d="M4745 792 c-27 -26 -63 -57 -80 -69 l-30 -22 83 -1 82 0 0 70 c0 39
-1 70 -2 70 -2 0 -25 -22 -53 -48z"/>
<path d="M4099 272 c-30 -32 -96 -106 -147 -165 l-93 -107 470 0 471 0 0 64 0
63 -89 41 c-49 22 -129 55 -178 72 -89 32 -320 90 -359 90 -14 0 -42 -22 -75
-58z"/>
</g>
</svg>
