<?xml version="1.0" standalone="no"?>
<!DOCTYPE svg PUBLIC "-//W3C//DTD SVG 20010904//EN"
 "http://www.w3.org/TR/2001/REC-SVG-20010904/DTD/svg10.dtd">
<svg version="1.0" xmlns="http://www.w3.org/2000/svg"
 width="480.000000pt" height="360.000000pt" viewBox="0 0 480.000000 360.000000"
 preserveAspectRatio="xMidYMid meet">
<metadata>
Created by potrace 1.16, written by Peter Selinger 2001-2019
</metadata>
<rect width="1" height="360" fill="#000000"/>
<rect x="479" width="1" height="360" fill="#000000"/>
<rect width="480" height="1" fill="#000000"/>
<rect y="359" width="480" height="1" fill="#000000"/>
<g transform="translate(0.000000,360.000000) scale(0.100000,-0.100000)"
fill="#000000" stroke="none">
<path d="M2578 3446 c-78 -23 -139 -57 -149 -83 -8 -23 -10 -23 -31 -9 -26 19
-122 22 -165 6 -15 -6 -34 -19 -42 -28 -10 -12 -15 -14 -18 -4 -26 68 -215 97
-385 58 -104 -23 -123 -40 -122 -105 1 -27 9 -60 18 -73 9 -12 16 -32 16 -43
0 -12 4 -25 8 -31 4 -5 14 -27 21 -49 23 -68 58 -140 76 -155 10 -8 30 -13 46
-12 27 3 28 2 27 -45 -1 -26 2 -71 7 -99 7 -49 5 -56 -34 -129 -22 -43 -41
-83 -41 -89 0 -6 4 -4 10 4 23 37 19 -6 -9 -86 -35 -100 -34 -97 -21 -89 6 4
10 -19 11 -62 l1 -68 11 39 c18 58 36 57 30 -1 -3 -29 -24 -88 -53 -148 -26
-55 -54 -118 -61 -140 -7 -22 -16 -44 -20 -50 -12 -19 -51 -159 -54 -199 -2
-23 -8 -54 -12 -71 -6 -24 -9 -260 -4 -350 1 -16 -59 -161 -165 -401 -3 -6 9
-28 26 -49 16 -21 30 -41 30 -44 0 -3 -10 -31 -21 -61 -29 -76 -38 -213 -15
-238 15 -17 14 -24 -8 -103 -53 -183 -54 -278 -4 -313 19 -14 20 -18 9 -42
-15 -34 -8 -42 9 -9 19 35 30 31 30 -10 0 -19 5 -35 10 -35 6 0 10 22 10 48 0
39 5 53 25 72 65 62 241 371 296 521 78 214 117 455 126 774 5 200 8 222 26
247 12 16 24 28 27 28 4 0 20 -42 36 -92 31 -101 35 -166 23 -386 -4 -62 -3
-115 2 -117 4 -3 -12 -45 -36 -93 -28 -56 -59 -141 -84 -237 -34 -127 -133
-388 -298 -782 -4 -10 150 -13 752 -13 716 0 756 1 751 18 -3 9 -37 130 -76
267 -65 227 -71 253 -60 288 8 26 16 37 30 37 43 0 64 90 51 220 -2 21 7 62
23 104 l27 70 -47 105 c-91 204 -145 347 -174 463 -17 64 -30 124 -30 133 0
10 11 39 25 67 14 27 25 56 25 63 0 20 -32 35 -75 35 -45 0 -53 18 -61 138 -3
48 -10 102 -16 121 -13 43 -79 115 -135 148 -24 14 -43 27 -43 30 0 3 9 16 20
30 26 33 18 43 -34 43 -23 0 -45 3 -49 6 -6 7 27 97 71 194 17 36 34 83 37
104 8 40 22 50 87 61 30 5 39 11 44 31 8 31 -4 60 -64 146 -25 38 -43 70 -40
73 2 3 30 0 62 -6 41 -9 60 -9 68 -1 23 23 49 127 52 208 2 47 6 88 10 91 23
24 -16 143 -52 158 -34 14 -246 15 -294 1z m-529 -1605 c1 -73 -1 -82 -14 -71
-12 10 -13 16 -4 26 9 11 7 15 -6 20 -14 6 -16 15 -10 53 3 25 9 57 12 71 6
22 7 23 14 5 4 -11 8 -58 8 -104z"/>
</g>
</svg>
