<?xml version="1.0" standalone="no"?>
<!DOCTYPE svg PUBLIC "-//W3C//DTD SVG 20010904//EN"
 "http://www.w3.org/TR/2001/REC-SVG-20010904/DTD/svg10.dtd">
<svg version="1.0" xmlns="http://www.w3.org/2000/svg"
 width="480.000000pt" height="360.000000pt" viewBox="0 0 480.000000 360.000000"
 preserveAspectRatio="xMidYMid meet">
<metadata>
Created by potrace 1.16, written by Peter Selinger 2001-2019
</metadata>
<rect width="1" height="360" fill="#000000"/>
<rect x="479" width="1" height="360" fill="#000000"/>
<rect width="480" height="1" fill="#000000"/>
<rect y="359" width="480" height="1" fill="#000000"/>
<g transform="translate(0.000000,360.000000) scale(0.100000,-0.100000)"
fill="#000000" stroke="none">
<path d="M1913 3504 c-33 -37 -35 -42 -41 -98 -8 -73 -7 -284 0 -330 11 -61
24 -69 98 -57 35 6 65 9 67 7 2 -2 -16 -25 -39 -51 -62 -68 -118 -145 -118
-160 0 -13 39 -66 40 -54 0 11 93 -10 101 -23 4 -6 5 -52 2 -102 -4 -70 0
-112 15 -181 12 -51 17 -94 12 -100 -5 -6 -2 -18 6 -29 23 -32 17 -60 -16 -74
-48 -22 -127 -99 -143 -141 -9 -22 -23 -81 -31 -133 -9 -51 -20 -110 -26 -131
l-11 -37 -53 6 c-32 4 -56 2 -59 -3 -4 -6 3 -39 15 -74 24 -72 26 -64 -44
-259 -48 -135 -106 -271 -193 -455 -30 -64 -55 -124 -55 -134 0 -9 9 -50 20
-91 13 -50 20 -108 20 -173 0 -66 5 -107 15 -126 7 -15 19 -64 24 -108 6 -44
16 -98 24 -119 8 -21 20 -54 27 -72 10 -27 9 -44 -9 -110 -12 -43 -21 -81 -21
-85 0 -4 338 -7 750 -7 413 0 750 2 750 4 0 1 -39 88 -86 192 -125 276 -141
318 -189 503 -24 92 -56 192 -71 222 -23 46 -27 68 -29 149 -1 52 -5 149 -9
215 -7 110 -5 128 17 215 14 52 30 108 36 124 l11 28 21 -27 c21 -25 21 -36
20 -263 -2 -263 8 -393 44 -557 45 -210 113 -372 260 -620 98 -165 116 -185
171 -185 38 0 43 3 59 37 23 48 16 149 -19 258 -25 79 -25 80 -6 100 15 16 21
41 26 105 5 83 5 87 -30 158 l-36 73 30 26 c17 13 30 32 30 41 0 8 -23 73 -50
144 -53 136 -54 143 -64 373 -3 72 -8 148 -11 170 -10 71 -23 139 -35 180 -6
22 -13 50 -16 63 -15 69 -107 270 -178 386 -19 32 -43 81 -52 108 -15 46 -15
50 1 68 12 14 15 28 11 47 -16 66 -25 121 -25 161 -1 23 -5 42 -11 42 -6 0
-10 26 -10 58 0 43 6 67 25 97 25 41 33 36 15 -11 -18 -45 -2 -40 20 7 13 29
20 66 20 107 0 44 4 62 13 62 34 0 115 135 177 295 13 33 27 64 32 69 12 14
10 61 -3 90 -9 19 -26 30 -65 41 -184 53 -377 46 -435 -16 -21 -22 -28 -25
-32 -14 -15 38 -168 71 -215 46 -19 -10 -22 -9 -22 8 0 63 -221 151 -380 151
-57 0 -68 -3 -87 -26z m847 -1729 c0 -8 -4 -15 -10 -15 -5 0 -7 7 -4 15 4 8 8
15 10 15 2 0 4 -7 4 -15z"/>
</g>
</svg>
