<?xml version="1.0" standalone="no"?>
<!DOCTYPE svg PUBLIC "-//W3C//DTD SVG 20010904//EN"
 "http://www.w3.org/TR/2001/REC-SVG-20010904/DTD/svg10.dtd">
<svg version="1.0" xmlns="http://www.w3.org/2000/svg"
 width="480.000000pt" height="360.000000pt" viewBox="0 0 480.000000 360.000000"
 preserveAspectRatio="xMidYMid meet">
<metadata>
Created by potrace 1.16, written by Peter Selinger 2001-2019
</metadata>
<rect width="1" height="360" fill="#000000"/>
<rect x="479" width="1" height="360" fill="#000000"/>
<rect width="480" height="1" fill="#000000"/>
<rect y="359" width="480" height="1" fill="#000000"/>
<g transform="translate(0.000000,360.000000) scale(0.100000,-0.100000)"
fill="#000000" stroke="none">
<path d="M1170 3083 c0 -4 14 -22 32 -40 37 -38 38 -38 -65 -18 -154 29 -225
16 -288 -56 l-36 -40 -61 20 c-104 35 -125 27 -93 -37 14 -27 29 -42 48 -47
24 -6 25 -8 10 -16 -9 -6 -17 -19 -17 -30 0 -11 -7 -33 -15 -50 -15 -29 -15
-31 15 -69 18 -22 37 -40 43 -40 7 0 20 -14 30 -31 9 -17 23 -29 30 -26 9 3
11 -17 6 -94 -10 -145 -18 -178 -55 -232 -25 -37 -34 -60 -34 -91 0 -23 -9
-67 -20 -99 -24 -68 -25 -96 -5 -144 33 -79 20 -103 -177 -325 -66 -74 -71
-98 -33 -149 14 -19 31 -48 39 -64 8 -17 25 -36 38 -43 41 -21 110 -42 139
-42 26 0 32 7 53 53 27 58 31 46 16 -53 -19 -132 -51 -653 -60 -965 -4 -176
-11 -328 -15 -337 -7 -17 6 -18 179 -18 l186 0 0 43 c0 54 25 70 86 57 44 -10
64 -32 64 -72 l0 -28 174 0 174 0 6 30 c3 17 1 42 -5 57 -5 14 -16 98 -25 187
-8 89 -26 244 -40 346 -60 439 -84 636 -99 805 -18 204 -28 269 -56 373 l-19
74 22 18 c22 18 24 17 80 -11 87 -44 143 -37 173 21 23 45 19 93 -11 121 -14
13 -39 41 -55 61 l-30 37 52 76 c28 41 48 79 45 83 -4 4 -67 48 -139 98 -124
85 -132 92 -129 120 2 16 12 38 22 49 34 36 78 108 74 119 -2 7 10 17 27 23
25 10 29 16 24 33 -4 11 -1 27 5 35 10 11 5 18 -22 35 -18 11 -41 20 -50 20
-18 0 -26 16 -74 134 -26 64 -62 109 -106 132 -29 15 -58 19 -58 7z"/>
</g>
</svg>
