<?xml version="1.0" standalone="no"?>
<!DOCTYPE svg PUBLIC "-//W3C//DTD SVG 20010904//EN"
 "http://www.w3.org/TR/2001/REC-SVG-20010904/DTD/svg10.dtd">
<svg version="1.0" xmlns="http://www.w3.org/2000/svg"
 width="480.000000pt" height="360.000000pt" viewBox="0 0 480.000000 360.000000"
 preserveAspectRatio="xMidYMid meet">
<metadata>
Created by potrace 1.16, written by Peter Selinger 2001-2019
</metadata>
<rect width="1" height="360" fill="#000000"/>
<rect x="479" width="1" height="360" fill="#000000"/>
<rect width="480" height="1" fill="#000000"/>
<rect y="359" width="480" height="1" fill="#000000"/>
<g transform="translate(0.000000,360.000000) scale(0.100000,-0.100000)"
fill="#000000" stroke="none">
<path d="M0 1800 l0 -1800 1179 0 c1171 0 1180 0 1186 20 9 29 -1 54 -27 65
-13 6 -38 33 -55 60 -24 36 -45 56 -78 70 -52 23 -65 38 -65 76 0 44 -19 83
-49 103 -26 18 -30 27 -36 94 l-7 74 66 133 c37 73 88 167 116 208 70 108 134
227 121 227 -6 0 -13 11 -17 25 -3 14 -10 25 -15 25 -17 0 -9 26 20 61 28 34
71 143 71 181 0 11 -7 18 -18 18 -21 0 -52 30 -52 49 0 8 -6 11 -15 7 -11 -4
-19 3 -25 19 -5 14 -16 25 -25 25 -12 0 -15 15 -15 81 0 49 -4 78 -10 74 -5
-3 -12 6 -15 20 -3 14 -7 36 -10 50 -8 37 33 239 62 310 13 33 58 119 98 190
41 72 95 182 120 245 25 63 56 133 69 154 l24 40 -39 28 c-55 40 -51 51 19 46
56 -5 58 -4 106 39 64 57 113 79 141 62 11 -7 40 -20 65 -30 l45 -17 40 27
c66 45 72 46 25 4 l-44 -40 31 -17 c39 -20 63 -52 63 -86 0 -15 7 -35 15 -46
8 -10 15 -29 15 -40 0 -14 15 -31 40 -48 22 -14 40 -30 40 -35 0 -14 -35 -23
-64 -15 -16 4 -26 2 -26 -5 0 -21 -52 -69 -81 -75 -28 -5 -30 -8 -24 -36 5
-24 3 -30 -9 -30 -25 0 -76 -51 -76 -76 0 -14 8 -25 21 -29 12 -4 38 -22 58
-39 20 -18 50 -42 67 -54 32 -22 38 -33 73 -142 11 -36 32 -87 45 -115 14 -27
26 -55 26 -62 0 -7 -25 -49 -56 -95 -32 -46 -51 -84 -45 -86 19 -6 12 -40 -19
-102 l-30 -60 29 -57 c36 -73 72 -180 100 -303 13 -52 31 -120 40 -151 12 -37
14 -56 7 -55 -6 0 -11 -3 -11 -9 0 -5 6 -10 14 -10 20 0 47 -83 34 -104 -8
-13 5 -59 52 -186 34 -94 73 -192 86 -218 l24 -48 -25 -19 c-22 -16 -23 -21
-12 -45 13 -29 8 -47 -11 -39 -7 2 -21 -10 -31 -27 -16 -28 -22 -30 -50 -24
-106 24 -114 24 -171 -12 l-55 -35 0 -67 c0 -37 6 -79 13 -94 l12 -27 868 0
867 0 0 1800 0 1800 -2400 0 -2400 0 0 -1800z"/>
<path d="M2974 1856 l-1 -61 19 42 c18 42 16 68 -5 76 -9 3 -12 -14 -13 -57z"/>
<path d="M2564 1899 c-6 -8 -17 -32 -24 -54 -7 -22 -17 -43 -22 -46 -12 -8
-20 -72 -11 -85 4 -7 21 -14 38 -15 26 -4 30 0 36 26 9 39 9 134 0 164 -5 19
-8 21 -17 10z"/>
<path d="M2780 149 c-73 -40 -120 -49 -184 -38 -16 3 -22 -6 -32 -46 -8 -27
-14 -53 -14 -57 0 -5 70 -8 155 -8 148 0 155 1 155 20 0 11 5 20 11 20 7 0 8
19 3 58 -12 98 -9 97 -94 51z"/>
</g>
</svg>
