<?xml version="1.0" standalone="no"?>
<!DOCTYPE svg PUBLIC "-//W3C//DTD SVG 20010904//EN"
 "http://www.w3.org/TR/2001/REC-SVG-20010904/DTD/svg10.dtd">
<svg version="1.0" xmlns="http://www.w3.org/2000/svg"
 width="480.000000pt" height="360.000000pt" viewBox="0 0 480.000000 360.000000"
 preserveAspectRatio="xMidYMid meet">
<metadata>
Created by potrace 1.16, written by Peter Selinger 2001-2019
</metadata>
<rect width="1" height="360" fill="#000000"/>
<rect x="479" width="1" height="360" fill="#000000"/>
<rect width="480" height="1" fill="#000000"/>
<rect y="359" width="480" height="1" fill="#000000"/>
<g transform="translate(0.000000,360.000000) scale(0.100000,-0.100000)"
fill="#000000" stroke="none">
<path d="M0 3183 l0 -417 33 31 c68 66 198 109 251 85 43 -19 35 -62 -21 -111
-44 -39 -45 -42 -27 -55 18 -14 128 -46 389 -115 258 -68 427 -101 516 -101
31 0 101 9 155 21 292 62 740 -13 1154 -194 212 -92 363 -175 668 -367 l53
-33 34 33 c28 28 32 36 24 57 -19 51 -4 163 23 163 13 0 9 28 -8 61 -30 60
-27 107 15 189 21 41 41 92 45 113 4 21 23 72 42 114 19 42 34 77 34 78 0 1
-26 8 -59 15 -79 16 -91 24 -70 45 10 11 40 18 80 21 35 3 74 7 85 9 23 5 89
87 122 152 38 73 84 134 109 144 52 19 427 -1 573 -31 25 -5 48 -9 52 -10 3 0
20 -11 37 -25 l30 -26 17 28 c22 36 55 73 65 73 3 0 12 -21 18 -47 15 -61 56
-143 84 -166 19 -17 20 -21 7 -44 -8 -15 -31 -35 -50 -46 -51 -27 -59 -38 -53
-73 5 -31 7 -32 105 -53 62 -14 107 -30 119 -42 36 -36 15 -42 -131 -37 l-138
5 -5 -96 c-3 -53 -10 -113 -17 -135 -13 -44 -93 -125 -98 -101 -2 8 -7 15 -12
15 -12 0 -52 -68 -48 -81 2 -6 35 -22 73 -35 38 -13 79 -34 91 -45 31 -29 64
-102 64 -141 0 -43 -42 -132 -77 -163 -30 -26 -97 -50 -113 -40 -5 3 -17 2
-26 -3 -13 -7 -1 -20 62 -68 48 -37 89 -77 107 -107 27 -45 28 -50 17 -96
l-11 -49 48 -68 c27 -38 78 -113 112 -168 113 -177 129 -231 92 -311 -32 -70
-43 -75 -187 -82 -71 -3 -131 -7 -134 -10 -2 -2 4 -19 14 -36 132 -222 218
-419 276 -632 23 -82 43 -156 45 -162 3 -9 27 -13 75 -13 l70 0 0 1800 0 1800
-2400 0 -2400 0 0 -417z"/>
<path d="M1 2199 c1 -216 4 -380 6 -364 10 75 68 354 102 488 l38 148 -41 31
c-23 17 -56 45 -73 62 l-33 30 1 -395z"/>
<path d="M1345 2326 c-27 -7 -85 -25 -128 -39 -118 -40 -185 -48 -300 -36 -80
8 -102 7 -108 -3 -14 -21 -77 -217 -98 -303 -22 -95 -122 -598 -151 -770 -77
-450 -75 -736 6 -1102 l16 -73 1047 0 1048 0 47 101 c26 55 60 130 75 167 67
162 124 257 221 377 83 102 128 177 145 241 8 32 13 59 11 61 -2 2 -63 -25
-135 -62 -146 -72 -160 -74 -212 -23 -32 33 -69 105 -69 137 0 23 17 65 41
101 17 26 52 90 142 256 41 79 52 106 44 119 -5 10 -7 48 -5 86 4 52 13 81 37
124 18 32 29 61 24 65 -4 5 -84 55 -178 111 -417 251 -707 373 -1070 450 -126
26 -375 35 -450 15z"/>
<path d="M4024 1261 c-14 -34 -14 -36 18 -68 30 -30 40 -33 113 -39 78 -7 80
-6 64 12 -8 10 -35 42 -58 71 -36 43 -48 52 -83 55 -37 3 -40 2 -54 -31z"/>
<path d="M3805 927 c-19 -46 3 -162 59 -312 60 -161 94 -298 122 -493 l17
-122 235 0 c188 0 233 3 229 13 -3 7 -15 48 -26 90 -58 203 -150 404 -275 595
-50 78 -64 92 -81 87 -11 -3 -49 -11 -84 -17 l-65 -12 -45 50 c-25 28 -53 70
-62 95 -13 35 -18 40 -24 26z"/>
<path d="M1 278 l-1 -278 95 0 95 0 -16 38 c-80 182 -106 255 -153 442 l-19
75 -1 -277z"/>
</g>
</svg>
