<?xml version="1.0" standalone="no"?>
<!DOCTYPE svg PUBLIC "-//W3C//DTD SVG 20010904//EN"
 "http://www.w3.org/TR/2001/REC-SVG-20010904/DTD/svg10.dtd">
<svg version="1.0" xmlns="http://www.w3.org/2000/svg"
 width="480.000000pt" height="360.000000pt" viewBox="0 0 480.000000 360.000000"
 preserveAspectRatio="xMidYMid meet">
<metadata>
Created by potrace 1.16, written by Peter Selinger 2001-2019
</metadata>
<rect width="1" height="360" fill="#000000"/>
<rect x="479" width="1" height="360" fill="#000000"/>
<rect width="480" height="1" fill="#000000"/>
<rect y="359" width="480" height="1" fill="#000000"/>
<g transform="translate(0.000000,360.000000) scale(0.100000,-0.100000)"
fill="#000000" stroke="none">
<path d="M0 1800 l0 -1800 423 0 422 0 54 152 c30 83 73 190 96 237 36 74 43
98 47 171 3 47 3 96 -1 110 l-7 25 -7 -25 c-3 -14 -9 -53 -13 -88 -4 -34 -10
-65 -14 -67 -15 -9 -31 91 -37 224 -4 101 -1 163 12 241 9 58 20 134 25 170 4
36 15 85 24 109 21 56 20 61 -5 32 -11 -13 -22 -22 -24 -19 -3 2 9 40 26 84
93 241 140 481 159 804 21 363 54 498 139 571 20 17 55 48 78 68 35 30 43 42
43 72 0 35 -2 37 -62 63 -84 37 -108 60 -108 107 0 56 21 63 288 105 41 6 41
21 0 29 -133 28 -238 92 -238 146 0 26 25 27 114 7 43 -10 81 -17 83 -15 2 2
-5 15 -15 28 -51 66 -94 156 -99 206 l-6 53 -698 0 -699 0 0 -1800z"/>
<path d="M1517 3548 c62 -67 105 -129 139 -204 l27 -59 9 50 c5 28 13 74 18
103 5 29 21 76 35 103 14 28 25 53 25 55 0 2 -68 4 -151 4 l-152 0 50 -52z"/>
<path d="M1870 3581 c0 -11 -20 -82 -45 -158 -24 -75 -43 -138 -42 -140 2 -1
25 14 53 33 51 37 214 119 258 130 98 24 -109 -152 -266 -227 -31 -15 -48 -29
-48 -41 0 -18 1 -19 110 -37 36 -6 94 -25 130 -43 l65 -33 0 -50 0 -50 -72
-24 -72 -23 -7 -46 c-6 -38 -4 -46 12 -55 33 -18 181 -183 212 -237 11 -19 26
-62 33 -95 13 -64 10 -77 -39 -213 -25 -68 -32 -74 -32 -27 0 27 -3 36 -11 28
-11 -11 8 -330 36 -632 8 -85 15 -160 15 -166 0 -17 104 38 107 56 1 8 5 61 8
119 7 106 7 106 40 128 20 14 55 25 87 29 48 5 57 2 85 -21 30 -25 31 -28 38
-137 4 -62 9 -118 12 -125 3 -7 25 -24 49 -38 38 -21 44 -22 48 -8 6 19 38
375 57 624 l12 158 -42 45 c-37 40 -41 50 -42 97 -4 136 2 156 76 253 l55 71
-34 65 c-64 119 -81 196 -81 354 0 115 4 156 24 230 12 50 27 94 32 99 5 6 9
-32 9 -95 0 -199 34 -379 96 -501 19 -38 38 -68 42 -66 4 2 36 18 72 35 187
93 349 81 484 -38 l46 -41 29 63 c15 35 31 76 35 92 l7 28 -21 -21 c-11 -11
-26 -20 -33 -20 -18 0 -128 140 -125 158 6 30 54 53 124 60 68 7 69 8 82 42 8
24 10 66 6 133 -3 55 -2 97 3 97 9 0 40 -92 64 -188 9 -39 13 -43 32 -37 12 4
41 10 64 12 39 5 46 2 89 -40 l48 -44 -38 -34 c-21 -18 -49 -50 -62 -71 -13
-21 -28 -38 -33 -38 -5 0 -14 14 -20 32 -11 30 -48 78 -60 78 -4 0 -7 -29 -8
-63 -2 -79 -25 -168 -65 -259 -26 -57 -29 -73 -20 -91 42 -81 59 -180 82 -474
32 -411 63 -565 164 -836 28 -73 32 -92 16 -82 -13 8 -15 18 24 -136 44 -172
58 -286 54 -429 l-3 -114 70 -26 c110 -41 155 -68 223 -134 101 -96 159 -176
212 -293 27 -59 50 -114 50 -120 0 -10 44 -13 185 -13 l185 0 0 1800 0 1800
-1465 0 c-1445 0 -1465 0 -1465 -19z"/>
<path d="M2010 1975 c-1 -33 -3 -118 -6 -188 -4 -83 -2 -138 5 -155 6 -15 13
-52 15 -82 6 -79 18 -150 25 -155 4 -2 13 0 21 5 11 7 10 35 -3 177 -9 92 -22
229 -28 303 -13 143 -29 195 -29 95z"/>
<path d="M2777 2010 c-3 -14 -18 -142 -32 -285 -14 -143 -28 -272 -31 -286 -5
-27 17 -56 34 -45 11 7 23 71 27 146 2 30 8 68 14 83 12 31 13 166 2 317 -5
62 -9 86 -14 70z"/>
<path d="M2201 1276 c-29 -31 -26 -83 4 -78 25 5 22 -1 30 55 8 53 0 59 -34
23z"/>
<path d="M2560 1262 c0 -47 24 -85 40 -62 18 28 11 67 -15 84 l-25 16 0 -38z"/>
<path d="M2372 1167 c-12 -37 -22 -75 -22 -85 0 -31 -38 -80 -93 -121 -52 -38
-55 -43 -61 -93 -3 -29 -7 -77 -8 -105 -1 -29 -5 -53 -10 -53 -4 0 -8 8 -8 19
0 30 -21 81 -31 75 -5 -3 -9 7 -9 21 0 19 -4 26 -14 22 -24 -9 -226 -179 -226
-190 0 -12 76 -148 131 -236 22 -35 39 -65 37 -66 -6 -6 -53 40 -98 95 -25 30
-59 71 -77 90 -33 35 -33 35 -34 10 l-1 -25 -8 25 c-7 21 -8 17 -9 -21 -1 -66
14 -142 71 -347 l50 -182 493 0 492 0 7 68 c7 73 22 280 31 432 5 88 5 93 -9
65 l-14 -30 -1 33 c-1 36 -13 41 -33 13 -21 -30 -164 -180 -193 -203 l-28 -21
13 24 c13 24 60 89 71 99 15 14 109 176 109 190 0 9 -53 58 -117 109 l-117 92
-15 -28 c-8 -15 -25 -55 -37 -88 l-23 -60 0 117 -1 117 -42 29 c-62 43 -74 60
-92 130 -9 35 -24 82 -34 105 l-18 41 -22 -67z"/>
<path d="M2690 1159 c10 -34 17 -45 25 -38 6 7 -18 69 -26 69 -4 0 -4 -14 1
-31z"/>
<path d="M2085 1140 c-3 -5 -1 -10 4 -10 6 0 11 5 11 10 0 6 -2 10 -4 10 -3 0
-8 -4 -11 -10z"/>
<path d="M3782 729 c-18 -100 -16 -118 14 -129 14 -6 28 -10 31 -10 8 0 -6
111 -20 161 l-13 43 -12 -65z"/>
</g>
</svg>
