<?xml version="1.0" standalone="no"?>
<!DOCTYPE svg PUBLIC "-//W3C//DTD SVG 20010904//EN"
 "http://www.w3.org/TR/2001/REC-SVG-20010904/DTD/svg10.dtd">
<svg version="1.0" xmlns="http://www.w3.org/2000/svg"
 width="480.000000pt" height="360.000000pt" viewBox="0 0 480.000000 360.000000"
 preserveAspectRatio="xMidYMid meet">
<metadata>
Created by potrace 1.16, written by Peter Selinger 2001-2019
</metadata>
<rect width="1" height="360" fill="#000000"/>
<rect x="479" width="1" height="360" fill="#000000"/>
<rect width="480" height="1" fill="#000000"/>
<rect y="359" width="480" height="1" fill="#000000"/>
<g transform="translate(0.000000,360.000000) scale(0.100000,-0.100000)"
fill="#000000" stroke="none">
<path d="M1039 3353 c-61 -34 -88 -61 -111 -110 -18 -38 -18 -47 -7 -97 l12
-54 -39 -33 c-64 -54 -135 -131 -166 -179 -40 -63 -78 -189 -78 -260 0 -54 4
-65 55 -142 70 -107 86 -128 96 -128 5 0 6 7 3 15 -9 23 7 18 41 -14 16 -16
41 -32 55 -36 23 -7 24 -7 10 10 -14 17 -14 17 8 6 29 -15 29 -59 1 -95 -26
-33 -20 -51 24 -65 27 -9 39 -22 58 -64 23 -50 59 -97 59 -77 0 17 20 11 27
-7 16 -46 71 -61 121 -34 33 18 52 13 63 -16 9 -25 7 -30 -28 -58 -21 -16 -63
-53 -93 -81 -30 -29 -72 -59 -92 -67 -22 -9 -46 -31 -61 -54 -14 -21 -50 -64
-80 -96 -67 -68 -86 -118 -70 -179 10 -37 8 -44 -20 -89 -16 -27 -33 -49 -36
-49 -8 0 -161 312 -161 328 0 6 -18 53 -39 102 -26 60 -35 93 -28 95 7 2 82
13 167 25 189 27 250 39 250 51 0 12 -58 12 -286 -3 -189 -11 -192 -11 -243
11 -28 12 -72 26 -98 30 -41 8 -53 6 -88 -14 -22 -13 -50 -33 -62 -45 -37 -34
-59 -26 -90 33 -26 49 -31 52 -70 55 l-43 3 0 -414 c0 -339 2 -416 13 -420 15
-5 204 -145 269 -198 21 -16 41 -42 44 -57 14 -58 42 -93 211 -264 202 -202
201 -200 118 -282 -48 -49 -56 -76 -29 -114 13 -19 14 -40 8 -122 l-7 -100
696 0 696 0 31 38 c44 54 47 76 15 118 -39 51 -140 122 -183 129 -20 3 -52 8
-69 11 -33 5 -33 5 -33 62 0 87 61 362 108 491 30 81 6 131 -62 131 -34 0 -43
-20 -56 -126 -21 -171 -91 -428 -110 -407 -5 4 -23 46 -40 93 -29 77 -31 92
-25 160 6 74 42 298 50 310 2 3 31 3 64 0 46 -4 61 -3 61 7 0 8 13 13 36 13
36 0 36 0 21 24 -9 13 -14 26 -12 28 3 2 39 0 81 -5 42 -4 78 -6 82 -3 3 3 -2
14 -10 23 -8 10 -18 28 -20 40 -5 18 2 24 41 40 35 15 52 17 74 9 15 -5 27
-15 27 -22 0 -7 5 -25 10 -39 l10 -27 20 24 19 23 1 -25 c1 -30 35 -106 42
-94 3 5 9 24 13 41 8 38 25 54 25 24 0 -11 7 -26 15 -35 8 -8 15 -21 15 -28 1
-7 7 2 15 19 20 47 29 41 21 -15 -23 -167 -25 -194 -14 -220 6 -15 12 -22 15
-14 3 6 9 12 15 12 7 0 9 -26 6 -78 -4 -51 -2 -86 6 -100 12 -22 12 -22 31 15
l19 38 7 -100 c7 -118 14 -141 37 -123 13 11 14 7 10 -40 -3 -32 -1 -58 7 -68
10 -14 18 -9 59 37 l47 54 -6 -67 c-5 -45 -3 -79 6 -105 7 -21 12 -44 11 -51
-5 -24 8 -11 29 30 21 40 22 41 33 20 7 -13 16 -19 20 -15 5 4 6 -1 3 -12 -3
-11 -9 -60 -12 -110 -4 -49 -11 -100 -16 -112 l-9 -24 137 3 137 3 10 33 c12
42 26 41 26 -3 l0 -35 831 0 831 0 -20 32 c-11 18 -67 116 -124 218 -58 102
-146 252 -197 333 l-92 149 21 44 c12 24 23 44 25 44 2 0 17 -25 34 -55 17
-30 33 -55 35 -55 3 0 2 26 0 58 l-5 57 28 -53 c15 -28 31 -52 35 -52 4 0 8
17 8 38 l1 37 30 -35 31 -35 -7 50 c-3 28 -9 61 -12 75 -5 23 -2 22 38 -16 24
-22 61 -51 83 -64 35 -21 38 -22 32 -4 -3 10 -10 43 -16 72 -5 30 -13 59 -17
65 -4 7 12 -4 36 -23 60 -49 104 -80 113 -80 12 0 -25 70 -64 121 -51 67 -52
70 -6 44 24 -13 66 -29 93 -35 28 -6 58 -13 69 -16 33 -10 9 13 -87 85 -104
78 -221 196 -352 356 -126 155 -577 602 -642 638 -85 46 -219 60 -422 46 -270
-19 -483 -1 -647 55 -113 38 -230 102 -260 141 -19 26 -32 34 -46 29 -11 -3
-36 5 -63 20 -24 14 -55 26 -69 26 -23 0 -26 -3 -20 -24 7 -28 -39 -150 -68
-181 -11 -11 -26 -32 -34 -47 -23 -44 -34 -33 -34 31 l0 60 34 -6 33 -5 -34
69 c-22 44 -33 81 -31 98 3 27 4 28 21 11 26 -27 21 -2 -16 72 -19 37 -40 85
-47 107 -19 59 -120 315 -138 350 -22 43 -161 213 -211 258 -44 39 -139 87
-175 87 -33 0 -42 11 -57 69 -16 64 -30 74 -129 94 -133 27 -143 27 -191 0z
m871 -1255 c8 -24 23 -55 33 -69 23 -33 19 -42 -69 -154 -92 -117 -102 -127
-114 -120 -6 3 -10 48 -10 106 l0 100 29 -16 c36 -18 57 -12 70 23 9 27 9 27
11 -8 0 -29 2 -32 11 -17 6 10 10 58 10 107 0 50 3 90 8 90 4 0 14 -19 21 -42z
m-231 -229 c12 -33 15 -79 4 -49 -3 8 -14 27 -24 41 -17 24 -16 39 2 39 4 0
12 -14 18 -31z m-1389 -139 c0 -5 -4 -10 -10 -10 -5 0 -10 5 -10 10 0 6 5 10
10 10 6 0 10 -4 10 -10z m43 -106 c10 -20 40 -59 67 -88 46 -48 50 -58 60
-123 5 -39 30 -128 56 -199 57 -162 74 -214 66 -214 -3 0 -22 11 -41 24 -20
13 -56 35 -81 49 -34 19 -55 43 -88 97 -24 40 -40 75 -37 78 4 4 25 14 48 22
28 10 43 22 45 36 2 12 -35 89 -83 175 -46 85 -85 157 -85 161 0 4 10 9 23 11
12 2 25 5 28 6 3 0 13 -15 22 -35z m1747 -380 c0 -25 -6 -25 -37 -1 -17 12 -7
27 18 27 14 0 19 -7 19 -26z"/>
</g>
</svg>
