<?xml version="1.0" standalone="no"?>
<!DOCTYPE svg PUBLIC "-//W3C//DTD SVG 20010904//EN"
 "http://www.w3.org/TR/2001/REC-SVG-20010904/DTD/svg10.dtd">
<svg version="1.0" xmlns="http://www.w3.org/2000/svg"
 width="480.000000pt" height="360.000000pt" viewBox="0 0 480.000000 360.000000"
 preserveAspectRatio="xMidYMid meet">
<metadata>
Created by potrace 1.16, written by Peter Selinger 2001-2019
</metadata>
<rect width="1" height="360" fill="#000000"/>
<rect x="479" width="1" height="360" fill="#000000"/>
<rect width="480" height="1" fill="#000000"/>
<rect y="359" width="480" height="1" fill="#000000"/>
<g transform="translate(0.000000,360.000000) scale(0.100000,-0.100000)"
fill="#000000" stroke="none">
<path d="M0 1800 l0 -1800 188 0 189 0 21 163 c24 184 36 344 25 333 -4 -4
-10 -31 -14 -59 l-6 -52 -2 67 c-1 74 -8 84 -57 79 -18 -1 -35 2 -38 8 -8 13
35 76 71 104 15 12 32 27 36 34 4 7 21 20 37 28 28 14 29 18 24 59 -5 36 -2
52 17 82 12 21 17 34 11 30 -7 -4 -12 -2 -12 7 0 7 18 23 40 36 40 22 51 33
28 29 -7 -2 -17 12 -23 30 -6 19 -16 37 -22 40 -6 4 -13 17 -17 30 -4 12 -12
22 -17 22 -17 0 -9 19 11 25 11 3 20 15 20 26 0 10 5 19 10 19 6 0 21 9 33 21
17 15 32 20 64 17 41 -3 41 -3 36 27 -3 16 -12 35 -19 41 -18 14 -18 39 0 72
34 64 96 222 96 244 0 19 12 33 44 54 24 16 77 52 119 79 76 50 91 70 61 82
-13 5 -14 15 -8 57 11 77 11 95 3 170 -6 59 -4 74 13 102 11 19 18 41 14 49
-3 8 6 22 22 34 15 12 30 24 34 28 4 5 16 18 28 31 11 12 31 22 45 22 25 0 89
49 180 139 54 53 95 68 165 58 38 -5 86 13 180 68 14 8 34 15 45 15 26 0 39
10 54 37 9 18 17 21 41 16 40 -7 39 12 -1 32 -20 11 -28 22 -25 33 2 9 7 40
11 67 10 74 26 104 92 172 40 42 63 74 67 96 3 19 19 54 35 79 32 51 46 55
211 57 47 1 117 9 157 18 64 15 74 15 105 1 18 -9 51 -21 73 -28 73 -23 96
-40 116 -84 10 -24 24 -48 31 -53 19 -15 78 -24 78 -13 0 6 9 10 20 10 29 0
53 -63 43 -115 -4 -22 -6 -49 -5 -59 3 -25 39 -59 53 -50 8 4 7 0 0 -15 -7
-12 -9 -26 -6 -31 3 -5 8 -31 11 -57 3 -26 8 -63 12 -82 l7 -33 25 38 c14 21
32 40 40 42 8 3 -1 -15 -20 -39 -18 -24 -38 -49 -43 -56 -6 -8 2 -14 26 -18
31 -6 39 -3 84 43 45 45 49 52 46 93 -2 41 -2 42 6 11 5 -18 11 -35 14 -38 3
-3 19 19 35 48 17 29 43 65 58 78 l28 25 -21 -35 c-44 -76 -69 -114 -93 -140
-14 -15 -24 -32 -22 -39 2 -6 -6 -11 -17 -11 -12 0 -28 -12 -38 -27 -9 -16
-27 -40 -39 -55 -17 -21 -22 -38 -20 -78 1 -28 -1 -53 -6 -56 -4 -3 -8 -10 -8
-15 0 -6 5 -7 11 -3 23 14 28 -20 7 -43 -15 -16 -18 -27 -11 -34 13 -13 32 10
35 42 1 14 10 33 21 44 18 20 18 20 8 -8 -16 -42 -14 -49 12 -36 21 11 21 11
6 -7 -18 -21 -34 -74 -21 -74 4 0 17 6 28 14 15 11 20 23 17 48 l-3 33 11 -34
11 -35 29 32 c16 17 30 35 31 39 1 12 39 36 45 29 4 -4 -8 -21 -25 -39 -18
-18 -32 -39 -32 -45 0 -7 -14 -18 -31 -24 -19 -7 -28 -15 -25 -24 3 -9 -4 -16
-19 -20 -29 -7 -30 -13 -11 -39 13 -18 14 -17 31 9 10 15 29 32 42 37 13 5 30
23 37 40 11 27 14 29 21 13 5 -11 7 -25 6 -31 -3 -23 9 -14 86 60 47 45 83 89
95 117 11 25 29 55 40 68 12 12 18 22 14 22 -4 0 -2 6 4 13 6 6 23 32 39 56
24 37 27 49 20 75 -13 45 -10 56 5 21 l13 -30 13 28 c11 23 15 25 22 12 6 -10
4 -23 -6 -36 -8 -12 -13 -26 -10 -33 2 -6 -14 -33 -36 -61 -34 -43 -37 -51
-22 -56 14 -6 13 -8 -8 -17 -30 -12 -59 -42 -41 -42 20 0 101 51 96 60 -3 4 4
6 15 3 12 -3 22 1 26 10 3 9 12 13 21 10 13 -5 15 0 10 28 -3 19 -9 51 -13 72
-4 24 -2 37 5 37 6 0 11 -11 11 -24 0 -35 20 -86 35 -86 12 0 87 75 96 96 2 5
17 20 33 34 29 24 28 23 -7 -27 -30 -43 -34 -53 -19 -53 11 -1 7 -6 -13 -17
-16 -9 -46 -29 -67 -45 -20 -15 -54 -36 -75 -45 -34 -15 -35 -17 -15 -21 13
-2 34 4 48 12 13 9 24 12 24 6 0 -27 108 3 120 33 4 12 22 38 40 57 l31 35
-25 -40 c-14 -22 -26 -43 -26 -46 0 -4 38 13 84 36 59 29 88 39 98 33 10 -8 9
-9 -4 -5 -9 3 -18 0 -21 -7 -3 -7 -23 -18 -46 -26 -23 -7 -41 -17 -41 -21 0
-4 -10 -11 -22 -15 -12 -3 -35 -15 -52 -26 l-31 -20 29 7 c26 5 27 4 13 -9 -9
-9 -22 -13 -31 -10 -20 7 -263 -35 -297 -52 -18 -9 -28 -26 -36 -56 -6 -24
-14 -52 -19 -63 -8 -20 -8 -20 21 -1 17 10 37 26 45 35 18 20 56 25 40 6 -5
-7 -7 -15 -3 -18 3 -4 -2 -7 -13 -7 -10 0 -58 -27 -107 -60 -48 -33 -95 -60
-105 -60 -24 0 -42 -19 -35 -37 3 -8 13 -11 24 -8 33 11 21 -4 -16 -19 -32
-14 -35 -19 -35 -56 0 -38 2 -41 22 -34 20 6 19 3 -10 -30 -44 -51 -40 -64 8
-25 22 18 42 30 45 27 3 -3 -19 -25 -49 -49 -68 -54 -74 -80 -9 -39 26 17 53
30 61 30 8 0 29 9 46 19 17 11 49 23 71 27 41 7 107 37 159 72 34 23 67 108
54 141 -6 17 -3 21 12 21 23 0 36 50 20 80 -6 12 -9 24 -7 27 3 2 8 -5 12 -16
9 -28 21 -26 29 4 4 14 10 25 15 25 5 0 7 -10 3 -22 -5 -20 -3 -21 10 -11 8 7
17 10 21 7 6 -6 25 26 38 65 7 22 8 21 6 -11 -3 -43 8 -48 44 -20 24 18 109
54 109 46 0 -2 -18 -13 -40 -24 -33 -17 -40 -26 -40 -50 0 -22 5 -30 18 -30
10 0 22 4 27 9 12 12 105 52 105 46 0 -3 -23 -16 -50 -30 -27 -14 -50 -27 -50
-29 0 -2 12 -1 28 2 24 5 25 3 14 -11 -8 -9 -20 -13 -28 -10 -17 6 -74 -15
-74 -28 0 -5 -7 -9 -16 -9 -17 0 -104 -59 -104 -70 0 -14 56 -32 113 -37 32
-3 60 -9 62 -13 2 -4 -8 -5 -23 -3 -21 4 -24 2 -12 -6 24 -17 -5 -14 -79 9
-36 11 -67 17 -70 13 -3 -5 -15 -8 -26 -8 -11 0 -29 -15 -43 -35 -13 -20 -54
-54 -95 -78 l-72 -44 43 6 c24 4 67 19 95 34 72 37 75 38 52 12 -21 -24 -11
-21 37 12 41 28 45 21 9 -16 -36 -38 -37 -37 42 -51 36 -6 40 -3 81 42 24 26
47 45 51 41 4 -4 -9 -23 -29 -43 -36 -36 -45 -55 -25 -55 23 0 49 22 50 43 1
21 1 21 8 -3 4 -14 17 -27 31 -31 l25 -6 -25 -4 c-19 -3 -24 -9 -22 -24 4 -20
19 -35 36 -35 5 0 3 7 -4 15 -7 9 -11 18 -8 20 3 3 11 -1 18 -9 10 -14 18 -12
61 9 54 28 53 25 40 75 -16 63 -21 100 -12 100 5 0 14 -21 21 -47 7 -27 20
-56 29 -67 9 -10 15 -20 14 -22 -7 -10 -2 -24 8 -24 15 0 4 61 -22 119 -10 24
-19 55 -19 68 0 13 -5 33 -10 44 -6 11 -7 19 -1 19 5 0 15 -24 22 -52 6 -29
20 -66 30 -82 l18 -29 7 27 c3 15 4 61 2 103 -4 58 -3 71 6 57 7 -11 11 -68
10 -141 -1 -106 2 -123 15 -124 10 0 8 -4 -6 -9 -22 -9 -28 -29 -23 -75 1 -11
4 -22 6 -24 7 -7 55 30 50 38 -3 5 6 9 20 8 13 0 32 7 42 15 29 25 134 90 127
78 -4 -6 -37 -31 -74 -54 -92 -60 -95 -63 -74 -120 19 -49 33 -55 44 -15 6 20
7 21 8 4 1 -17 3 -18 14 -5 7 8 21 20 32 25 11 6 38 48 60 93 45 91 78 133 45
58 -25 -59 -20 -70 11 -23 13 19 36 43 52 53 15 11 31 31 34 46 3 15 9 25 14
22 14 -9 4 -42 -21 -69 -16 -17 -19 -25 -9 -25 8 0 0 -7 -16 -15 -28 -14 -74
-79 -64 -90 3 -2 16 3 29 13 13 9 49 26 79 37 31 12 60 30 66 40 25 48 67 106
72 101 3 -3 -6 -23 -21 -44 -31 -45 -36 -72 -9 -51 14 12 16 12 8 0 -16 -28
49 -1 90 37 23 20 5 2 -38 -41 -44 -43 -96 -89 -117 -102 -34 -21 -39 -30 -50
-90 -7 -36 -10 -68 -7 -72 4 -3 20 8 36 25 25 25 30 36 26 64 l-5 33 12 -35
c6 -19 12 -36 13 -38 1 -1 37 14 81 35 74 34 114 48 114 39 0 -4 -80 -43 -155
-75 -27 -12 -58 -29 -68 -39 -18 -16 -18 -17 0 -23 13 -6 9 -8 -14 -8 -18 -1
-32 -4 -30 -9 5 -17 -43 -63 -74 -69 -28 -5 -30 -7 -14 -14 11 -4 54 -9 95
-10 58 -2 64 -3 28 -6 -27 -2 -48 -8 -48 -14 0 -5 -18 -9 -40 -9 -41 0 -47 -8
-30 -41 21 -39 0 -17 -26 27 -27 47 -34 49 -88 28 -10 -4 -16 -1 -16 9 0 18
-41 30 -54 17 -7 -7 -6 -10 3 -10 7 0 9 -5 6 -11 -4 -6 -9 -8 -12 -5 -3 3 -22
-3 -42 -13 -20 -11 -70 -29 -111 -41 -41 -12 -91 -32 -110 -45 -19 -13 -57
-31 -84 -40 -102 -35 -278 -166 -361 -270 -34 -43 -58 -59 -164 -110 -68 -34
-130 -70 -138 -82 -14 -21 -13 -22 24 -32 51 -15 64 -14 93 5 l25 16 -23 -21
c-22 -19 -22 -20 -3 -30 11 -6 29 -11 40 -11 20 0 38 -17 28 -26 -3 -3 -22 2
-43 11 -22 9 -60 17 -86 18 -25 1 -44 5 -41 10 6 9 -39 9 -55 -1 -24 -16 24
-52 71 -53 l42 -1 -53 -10 c-45 -8 -51 -12 -41 -24 7 -9 21 -13 34 -10 15 4
29 -2 46 -20 21 -22 21 -24 4 -18 -11 4 -25 15 -32 23 -10 13 -11 11 -7 -13 4
-26 3 -28 -11 -16 -18 15 -45 -2 -45 -29 -1 -34 -19 15 -22 58 -2 49 -17 60
-54 41 -52 -28 -70 -212 -32 -320 14 -41 17 -286 4 -387 l-9 -73 750 0 751 0
4 23 c3 13 1 32 -3 43 -4 10 -8 42 -8 71 -1 28 -6 74 -12 100 -10 43 -16 51
-50 66 -54 23 -73 56 -66 112 4 25 16 63 27 85 11 22 27 74 35 117 14 74 14
79 -7 123 -12 25 -28 50 -36 56 -13 9 -12 13 5 25 20 14 46 64 63 121 7 24 3
30 -51 69 -69 51 -74 72 -28 119 74 73 137 76 185 8 16 -22 38 -51 50 -63 11
-12 19 -31 17 -41 -2 -11 -5 -24 -5 -31 -1 -7 -5 -10 -9 -7 -4 2 -10 0 -13 -5
-7 -10 22 -71 34 -71 4 0 22 -24 38 -53 16 -29 37 -59 46 -66 9 -7 16 -27 16
-43 0 -26 2 -29 15 -18 13 11 15 183 15 1436 l0 1424 -835 0 c-824 0 -834 0
-845 -20 -6 -11 -15 -20 -21 -20 -6 0 -6 7 1 20 11 20 8 20 -1545 20 l-1555 0
0 -1800z m3320 1591 c0 -12 -20 -25 -27 -18 -7 7 6 27 18 27 5 0 9 -4 9 -9z
m-1960 -27 c0 -14 -3 -14 -15 -4 -8 7 -15 14 -15 16 0 2 7 4 15 4 8 0 15 -7
15 -16z m2073 -50 c-6 -17 -44 -15 -51 4 -2 8 7 12 27 12 23 0 29 -4 24 -16z
m-1203 -84 c0 -5 -4 -10 -10 -10 -5 0 -10 5 -10 10 0 6 5 10 10 10 6 0 10 -4
10 -10z m-1100 -50 c-6 -11 -17 -20 -25 -20 -8 0 -15 9 -15 20 0 15 7 20 25
20 23 0 24 -2 15 -20z m1081 -3 c-10 -9 -11 -8 -5 6 3 10 9 15 12 12 3 -3 0
-11 -7 -18z m366 -33 c-9 -9 -28 6 -21 18 4 6 10 6 17 -1 6 -6 8 -13 4 -17z
m-1377 -153 c0 -12 -20 -25 -27 -18 -7 7 6 27 18 27 5 0 9 -4 9 -9z m-255
-101 c12 -23 13 -30 2 -30 -20 0 -57 30 -57 46 0 26 39 15 55 -16z m2897 -182
c-16 -16 -26 30 -10 49 12 15 13 13 16 -12 2 -15 -1 -32 -6 -37z m-348 4 c-4
-18 -11 -32 -16 -32 -6 0 -7 8 -3 18 4 9 10 25 12 35 9 29 14 13 7 -21z m-84
9 c14 -27 13 -51 -3 -51 -21 0 -50 37 -44 55 9 21 34 19 47 -4z m120 -44 c0
-2 -10 -12 -22 -23 l-23 -19 19 23 c18 21 26 27 26 19z m190 -97 c-24 -15 -36
-11 -14 4 10 8 21 12 24 10 2 -3 -2 -9 -10 -14z m-610 1 c-8 -5 -28 -11 -45
-14 l-30 -6 30 14 c34 16 72 21 45 6z m-1916 -40 c4 -5 3 -17 0 -26 -9 -21
-79 -17 -79 5 0 12 19 21 67 29 4 0 9 -3 12 -8z m1786 -149 c-61 -83 -77 -93
-41 -27 10 19 21 32 24 29 3 -3 8 4 12 15 3 12 11 19 16 15 5 -3 1 -17 -11
-32z m520 -32 c0 -5 -4 -10 -10 -10 -5 0 -10 5 -10 10 0 6 5 10 10 10 6 0 10
-4 10 -10z m57 -42 c-3 -8 -6 -5 -6 6 -1 11 2 17 5 13 3 -3 4 -12 1 -19z m-9
-35 c0 -10 3 -34 7 -53 4 -19 5 -33 2 -30 -10 9 -35 89 -29 95 11 10 21 5 20
-12z m-51 1 c-3 -3 -12 -4 -19 -1 -8 3 -5 6 6 6 11 1 17 -2 13 -5z m448 -54
c-3 -5 -10 -10 -16 -10 -5 0 -9 5 -9 10 0 6 7 10 16 10 8 0 12 -4 9 -10z
m-621 -46 c18 -7 12 -24 -10 -24 -8 0 -14 7 -14 15 0 17 2 18 24 9z m519 -1
c-7 -2 -19 -2 -25 0 -7 3 -2 5 12 5 14 0 19 -2 13 -5z m677 -173 c-6 -12 -14
-20 -17 -17 -2 3 1 14 8 26 17 26 24 19 9 -9z m-595 -19 c7 -12 -12 -24 -25
-16 -11 7 -4 25 10 25 5 0 11 -4 15 -9z m561 -46 c-11 -8 -25 -15 -30 -15 -6
0 -2 7 8 15 11 8 25 15 30 15 6 0 2 -7 -8 -15z m-4056 -45 c0 -13 -28 -25 -38
-16 -3 4 0 11 8 16 20 13 30 12 30 0z m4165 -240 c-3 -5 -14 -10 -23 -9 -14 0
-13 2 3 9 27 11 27 11 20 0z m-497 -464 c40 -21 122 -112 122 -135 0 -14 -13
-26 -45 -40 -24 -11 -65 -36 -91 -55 -54 -41 -64 -43 -88 -17 -13 14 -16 28
-11 55 6 27 2 41 -14 62 -25 32 -26 57 -4 94 28 48 80 62 131 36z m-3918 -174
c-7 -3 -19 3 -28 13 -16 15 -15 16 12 4 15 -7 23 -15 16 -17z m3035 -122 c-3
-5 -11 -10 -16 -10 -6 0 -7 5 -4 10 3 6 11 10 16 10 6 0 7 -4 4 -10z"/>
<path d="M2810 2561 c0 -6 5 -13 10 -16 6 -3 10 1 10 9 0 9 -4 16 -10 16 -5 0
-10 -4 -10 -9z"/>
<path d="M2809 2518 c0 -2 -2 -28 -4 -59 -3 -40 0 -62 11 -75 14 -18 15 -17
11 11 -3 16 1 42 9 57 11 21 12 33 4 48 -9 17 -28 27 -31 18z"/>
<path d="M2781 2367 c-15 -38 -14 -62 3 -76 11 -9 16 -5 26 18 9 24 9 34 -3
58 l-15 28 -11 -28z"/>
<path d="M3257 2269 c-55 -60 -87 -109 -71 -109 4 0 60 31 92 51 16 10 62 103
62 125 0 16 -27 -6 -83 -67z"/>
<path d="M3724 2296 c-22 -17 -11 -35 13 -20 19 12 29 34 16 34 -5 0 -18 -6
-29 -14z"/>
<path d="M3663 2225 c-9 -19 -14 -38 -10 -42 8 -7 54 33 68 60 8 14 5 17 -16
17 -19 0 -29 -8 -42 -35z"/>
<path d="M3740 2239 c0 -5 5 -7 10 -4 6 3 10 8 10 11 0 2 -4 4 -10 4 -5 0 -10
-5 -10 -11z"/>
<path d="M3600 2178 c0 -9 -7 -18 -15 -22 -8 -3 -15 -10 -15 -15 0 -6 7 -8 15
-5 16 6 30 42 21 51 -3 4 -6 -1 -6 -9z"/>
<path d="M2910 2169 c0 -5 5 -7 10 -4 6 3 10 8 10 11 0 2 -4 4 -10 4 -5 0 -10
-5 -10 -11z"/>
<path d="M2910 2102 c-19 -20 -51 -49 -70 -63 -41 -31 -79 -129 -50 -129 5 0
15 19 21 43 8 26 14 35 16 25 6 -24 9 -23 52 15 68 58 103 105 96 127 -9 29
-25 25 -65 -18z"/>
<path d="M3058 2110 c-17 -17 -28 -33 -25 -36 11 -11 47 8 47 24 0 14 2 14 9
3 13 -21 41 -6 34 18 -8 29 -30 26 -65 -9z"/>
<path d="M3130 2129 c0 -5 5 -7 10 -4 6 3 10 8 10 11 0 2 -4 4 -10 4 -5 0 -10
-5 -10 -11z"/>
<path d="M2780 2081 c-14 -26 -13 -31 6 -31 8 0 12 5 9 10 -3 6 0 10 8 10 8 0
20 7 27 15 11 13 8 15 -13 15 -16 0 -31 -8 -37 -19z"/>
<path d="M3064 2062 c-38 -15 -159 -130 -149 -140 2 -2 19 6 37 19 21 14 12 2
-23 -32 -53 -51 -57 -58 -63 -113 -4 -33 -3 -63 2 -68 8 -8 62 20 102 54 8 7
18 12 23 10 5 -1 20 6 35 17 29 20 57 95 53 141 -1 19 0 22 8 10 15 -22 35 35
21 60 -7 13 -7 21 0 25 12 7 14 35 3 34 -5 0 -27 -8 -49 -17z"/>
<path d="M3540 1950 c-9 -6 -10 -10 -3 -10 6 0 15 5 18 10 8 12 4 12 -15 0z"/>
<path d="M3256 1869 c-39 -25 -95 -58 -125 -73 -30 -15 -72 -42 -92 -61 -21
-19 -51 -41 -67 -49 -16 -8 -32 -23 -36 -31 -10 -28 -7 -70 8 -90 13 -19 16
-17 56 23 23 23 46 42 51 42 5 0 0 -9 -11 -20 -12 -12 -25 -31 -30 -43 -6 -12
-15 -30 -22 -39 -9 -13 -10 -20 -1 -29 8 -8 24 -1 60 25 28 20 52 33 55 30 9
-8 151 61 171 84 11 11 24 19 31 16 7 -3 25 0 40 6 24 9 27 14 22 38 -6 26 -6
26 9 8 8 -11 15 -23 15 -28 0 -14 70 -9 71 5 0 6 3 5 7 -4 6 -15 12 -15 61 5
30 11 71 37 92 57 21 19 40 30 41 24 2 -6 26 3 56 21 l53 32 -43 30 c-24 16
-52 39 -62 51 -19 21 -27 21 -180 19 l-160 -3 -70 -46z"/>
<path d="M3676 1901 c5 -5 31 -25 58 -45 53 -40 66 -37 66 16 0 30 -17 47 -26
25 -4 -12 -11 -12 -42 -1 -43 15 -70 18 -56 5z"/>
<path d="M3952 1888 c-7 -7 -12 -18 -12 -26 0 -8 -6 -12 -14 -9 -8 3 -20 0
-26 -8 -8 -10 -7 -16 7 -27 10 -7 18 -19 18 -27 0 -8 8 -19 17 -25 35 -22 86
65 55 95 -7 8 -12 20 -9 27 5 15 -20 16 -36 0z"/>
<path d="M4522 1859 c-24 -17 -41 -33 -38 -36 7 -8 74 38 81 55 6 16 7 16 -43
-19z"/>
<path d="M3844 1825 c-4 -8 -9 -13 -13 -11 -4 3 -18 -4 -31 -15 -20 -15 -22
-19 -7 -19 9 0 17 5 17 11 0 5 4 8 9 5 4 -3 19 6 31 19 13 14 18 25 11 25 -6
0 -14 -7 -17 -15z"/>
<path d="M3865 1810 c-3 -5 1 -10 9 -10 9 0 16 5 16 10 0 6 -4 10 -9 10 -6 0
-13 -4 -16 -10z"/>
<path d="M4091 1791 c-15 -10 -9 -35 18 -71 26 -33 32 -24 19 33 -10 49 -14
53 -37 38z"/>
<path d="M3858 1760 c-5 -33 7 -38 36 -17 21 15 12 47 -14 47 -12 0 -19 -10
-22 -30z"/>
<path d="M4410 1750 c-34 -28 -28 -40 10 -20 21 11 46 50 32 50 -4 0 -23 -13
-42 -30z"/>
<path d="M3779 1731 c-22 -21 -39 -43 -39 -49 0 -6 23 1 50 14 28 13 50 28 50
33 0 5 3 16 6 25 12 30 -28 17 -67 -23z"/>
<path d="M4047 1763 c-12 -20 -28 -127 -23 -149 l6 -24 30 22 c18 13 30 31 30
44 0 12 5 24 11 26 8 3 4 18 -10 46 -20 40 -34 51 -44 35z"/>
<path d="M3699 1741 c-58 -23 -109 -53 -109 -64 0 -6 19 -7 42 -4 23 3 49 2
58 -3 12 -7 24 3 53 41 41 56 34 61 -44 30z"/>
<path d="M3956 1741 c-4 -7 -5 -15 -2 -18 9 -9 19 4 14 18 -4 11 -6 11 -12 0z"/>
<path d="M3878 1719 c-31 -17 -21 -37 20 -42 25 -2 16 -4 -26 -5 -61 -2 -142
-21 -142 -33 0 -3 -11 -4 -25 -1 -18 3 -25 0 -25 -12 0 -10 6 -13 15 -10 20 8
19 -3 -5 -37 -12 -16 -20 -36 -18 -46 2 -13 -3 -17 -19 -16 -14 2 -23 -3 -23
-11 0 -7 -16 -30 -35 -50 -19 -21 -35 -41 -35 -46 0 -11 32 -1 41 12 3 5 53
24 111 44 l105 36 12 53 c14 60 44 101 32 43 -3 -18 -5 -45 -3 -60 3 -23 8
-28 32 -28 25 0 60 21 60 36 0 3 -7 18 -15 34 -9 17 -12 30 -7 30 5 0 15 -11
22 -25 20 -38 31 -10 21 55 -12 73 -49 105 -93 79z"/>
<path d="M4385 1704 c-22 -8 -49 -25 -60 -38 -11 -13 -38 -33 -60 -45 l-40
-21 35 0 c19 0 64 8 99 18 66 19 79 32 80 80 1 25 1 25 -54 6z"/>
<path d="M3818 1693 c7 -3 16 -2 19 1 4 3 -2 6 -13 5 -11 0 -14 -3 -6 -6z"/>
<path d="M3530 1631 c-41 -15 -100 -59 -100 -75 0 -3 16 -6 35 -6 28 0 35 4
35 20 0 11 -6 20 -12 21 -7 0 -2 5 11 10 13 5 27 6 30 3 3 -4 0 -9 -6 -11 -15
-5 -17 -29 -4 -37 5 -3 40 8 78 25 l68 31 -24 19 c-27 22 -50 22 -111 0z"/>
<path d="M3297 1600 c-27 -22 -42 -53 -33 -69 8 -12 148 30 153 46 5 14 -47
43 -75 43 -11 0 -31 -9 -45 -20z"/>
<path d="M3430 1610 c-13 -8 -13 -10 2 -10 9 0 20 5 23 10 8 13 -5 13 -25 0z"/>
<path d="M4405 1606 l-30 -12 25 -7 c18 -5 31 -1 45 13 23 24 7 26 -40 6z"/>
<path d="M3588 1564 c-55 -28 -59 -40 -21 -55 25 -9 30 -7 60 28 52 61 40 69
-39 27z"/>
<path d="M4272 1581 c-49 -9 -39 -26 15 -26 38 0 48 4 51 18 4 18 -6 19 -66 8z"/>
<path d="M4355 1570 c3 -5 13 -10 21 -10 8 0 12 5 9 10 -3 6 -13 10 -21 10 -8
0 -12 -4 -9 -10z"/>
<path d="M3217 1553 c-12 -11 -8 -23 8 -23 8 0 15 7 15 15 0 16 -12 20 -23 8z"/>
<path d="M4096 1535 c-27 -8 -56 -21 -65 -30 -15 -14 -13 -15 14 -6 17 6 49
15 73 21 23 6 42 15 42 20 0 12 -2 12 -64 -5z"/>
<path d="M3405 1520 c-16 -4 -24 -8 -16 -9 8 0 11 -4 8 -8 -4 -3 -18 -1 -31 7
-19 10 -32 10 -57 1 -17 -6 -47 -11 -66 -11 -31 0 -34 -2 -27 -22 11 -40 31
-82 47 -103 15 -19 17 -17 46 48 17 37 32 67 35 67 6 0 2 -13 -30 -97 -26 -66
-29 -99 -14 -123 8 -12 11 -11 16 8 5 17 9 20 15 11 10 -16 77 18 155 79 46
36 55 47 49 65 -4 12 -8 33 -9 47 -2 43 -49 58 -121 40z"/>
<path d="M4378 1513 c6 -2 18 -2 25 0 6 3 1 5 -13 5 -14 0 -19 -2 -12 -5z"/>
<path d="M3169 1493 c5 -10 16 -27 25 -38 15 -19 15 -19 9 5 -7 29 -21 50 -35
50 -5 0 -5 -7 1 -17z"/>
<path d="M3090 1480 c-11 -11 -20 -23 -20 -27 1 -9 121 -102 156 -121 16 -8
24 -9 24 -2 0 22 -28 76 -49 94 -11 11 -21 24 -21 31 0 17 -33 45 -53 45 -9 0
-26 -9 -37 -20z"/>
<path d="M3540 1481 c0 -11 4 -22 9 -25 12 -8 34 21 26 34 -11 17 -35 11 -35
-9z"/>
<path d="M3768 1449 c-20 -11 -25 -63 -6 -57 7 3 20 19 30 36 19 34 10 41 -24
21z"/>
<path d="M3826 1444 c-4 -10 -1 -14 6 -12 15 5 23 28 10 28 -5 0 -13 -7 -16
-16z"/>
<path d="M3054 1428 c-5 -7 -9 -15 -9 -18 -1 -3 -4 -15 -9 -28 -5 -14 0 -45
13 -85 11 -34 23 -77 26 -94 4 -18 10 -33 14 -33 4 0 43 15 87 34 65 29 80 39
82 59 2 18 -5 31 -23 44 -14 10 -52 38 -83 63 -96 76 -89 72 -98 58z"/>
<path d="M3600 1405 c-19 -14 -39 -25 -46 -25 -6 0 -18 -7 -25 -16 -12 -15
-11 -16 11 -9 32 9 107 52 115 65 12 19 -21 10 -55 -15z"/>
<path d="M3683 1386 c-35 -29 -121 -76 -140 -76 -26 0 -214 -101 -219 -118 -3
-9 -13 -31 -21 -48 -18 -34 -11 -84 11 -84 18 0 88 52 165 122 35 32 67 58 71
58 4 0 18 16 31 35 14 19 49 48 80 65 55 29 77 54 59 65 -4 3 -21 -6 -37 -19z"/>
<path d="M3175 1137 c-47 -25 -81 -50 -83 -61 -3 -15 1 -17 27 -12 17 3 43 8
59 11 30 6 85 67 80 90 -2 11 -23 4 -83 -28z"/>
<path d="M3240 1105 c-8 -9 -8 -15 -2 -15 12 0 26 19 19 26 -2 2 -10 -2 -17
-11z"/>
<path d="M3235 1070 c-3 -5 -1 -10 4 -10 6 0 11 5 11 10 0 6 -2 10 -4 10 -3 0
-8 -4 -11 -10z"/>
<path d="M3130 1040 c-29 -4 -36 -10 -38 -32 -2 -19 2 -28 15 -31 15 -4 15 -5
2 -6 -16 -1 -32 -35 -22 -45 8 -8 163 95 163 110 0 13 -43 15 -120 4z"/>
<path d="M714 944 c2 -6 -4 -17 -15 -24 -24 -18 -24 -51 -2 -93 9 -18 17 -36
18 -42 0 -5 6 -21 14 -34 8 -15 11 -37 7 -60 -4 -20 -8 -48 -9 -63 -1 -14 -11
-37 -23 -50 -35 -40 -52 -89 -68 -198 -14 -95 -14 -110 0 -165 18 -70 34 -101
69 -143 22 -26 24 -35 15 -52 l-11 -20 996 0 c605 0 995 4 995 9 0 5 5 43 10
83 6 40 14 119 18 174 8 90 13 108 42 155 29 47 35 69 47 173 7 65 11 121 9
124 -3 2 -42 20 -87 38 -76 31 -85 33 -132 22 -52 -11 -66 -22 -129 -98 l-37
-45 -138 0 c-130 0 -142 -2 -202 -28 l-64 -29 -106 34 c-96 31 -117 34 -213
33 -97 -1 -110 -4 -145 -27 -52 -35 -63 -38 -97 -21 -24 12 -39 13 -92 3 -68
-13 -73 -11 -144 54 -24 21 -80 47 -90 41 -11 -7 -152 31 -207 55 -23 11 -45
26 -50 33 -4 8 -32 31 -60 51 -29 21 -69 56 -89 79 -20 23 -33 37 -30 31z"/>
<path d="M2775 850 c-3 -5 -16 -10 -28 -10 -14 0 0 -10 36 -27 49 -22 60 -24
68 -12 14 23 10 39 -10 39 -11 0 -23 5 -26 10 -3 6 -12 10 -20 10 -8 0 -17 -4
-20 -10z"/>
<path d="M3080 826 c0 -9 -4 -16 -10 -16 -5 0 -10 -5 -10 -12 0 -9 3 -9 11 -1
6 6 18 9 26 6 11 -4 14 0 12 12 -5 23 -29 32 -29 11z"/>
<path d="M647 734 c-4 -4 -7 -14 -7 -23 0 -11 3 -12 11 -4 6 6 10 16 7 23 -2
6 -7 8 -11 4z"/>
<path d="M3147 733 c-4 -3 -7 -11 -7 -17 0 -6 5 -5 12 2 6 6 9 14 7 17 -3 3
-9 2 -12 -2z"/>
<path d="M4783 709 c-7 -7 -13 -22 -13 -32 0 -11 -8 -25 -17 -32 -15 -11 -14
-15 13 -41 l29 -29 3 38 c2 20 2 53 0 73 -2 28 -5 33 -15 23z"/>
<path d="M4715 549 c3 -13 23 -64 43 -114 l37 -90 3 84 c3 90 4 87 -62 126
-28 17 -28 17 -21 -6z"/>
<path d="M4785 280 c-3 -5 -27 -10 -52 -10 -51 0 -49 7 -14 -90 12 -33 20 -80
21 -117 l0 -63 30 0 30 0 0 145 c0 80 -2 145 -4 145 -3 0 -8 -4 -11 -10z"/>
<path d="M4637 36 c-4 -10 -5 -21 -2 -24 9 -9 17 6 13 25 -3 17 -4 17 -11 -1z"/>
</g>
</svg>
