<?xml version="1.0" standalone="no"?>
<!DOCTYPE svg PUBLIC "-//W3C//DTD SVG 20010904//EN"
 "http://www.w3.org/TR/2001/REC-SVG-20010904/DTD/svg10.dtd">
<svg version="1.0" xmlns="http://www.w3.org/2000/svg"
 width="480.000000pt" height="360.000000pt" viewBox="0 0 480.000000 360.000000"
 preserveAspectRatio="xMidYMid meet">
<metadata>
Created by potrace 1.16, written by Peter Selinger 2001-2019
</metadata>
<rect width="1" height="360" fill="#000000"/>
<rect x="479" width="1" height="360" fill="#000000"/>
<rect width="480" height="1" fill="#000000"/>
<rect y="359" width="480" height="1" fill="#000000"/>
<g transform="translate(0.000000,360.000000) scale(0.100000,-0.100000)"
fill="#000000" stroke="none">
<path d="M2220 3310 c-24 -6 -22 -8 28 -39 28 -18 52 -36 52 -39 0 -4 -41 -8
-90 -9 -208 -4 -298 -49 -341 -170 -11 -32 -13 -33 -66 -33 -51 0 -116 -21
-129 -41 -8 -13 24 -55 52 -68 17 -7 31 -8 44 -1 34 18 42 11 21 -19 -11 -15
-17 -31 -13 -35 4 -4 0 -11 -9 -16 -11 -6 -15 -22 -14 -52 2 -39 6 -46 50 -76
27 -18 58 -32 69 -30 12 2 31 -6 44 -18 20 -18 24 -35 33 -140 l9 -119 -24
-20 c-59 -48 -106 -218 -88 -323 5 -32 6 -83 2 -117 -5 -33 -9 -68 -9 -77 -1
-10 -37 -58 -81 -107 -44 -49 -87 -105 -95 -125 -18 -42 -20 -143 -4 -197 25
-81 97 -139 174 -139 l37 0 -7 -67 c-4 -38 -27 -189 -51 -338 -53 -320 -90
-588 -99 -705 -3 -47 -8 -109 -11 -138 l-5 -52 497 0 497 0 -7 88 c-3 48 -26
287 -51 532 -54 547 -61 655 -46 664 7 5 11 -3 12 -21 0 -15 4 -37 8 -48 12
-30 21 30 22 149 l0 101 20 -40 c10 -22 17 -31 15 -20 -30 133 -28 199 4 160
13 -16 50 -21 50 -7 0 5 -25 46 -55 92 -49 75 -71 131 -45 115 6 -3 10 3 10
14 0 13 6 21 18 21 30 0 60 28 73 68 6 20 29 75 51 121 32 67 39 92 35 125 -4
36 2 50 45 118 28 42 48 81 46 87 -6 18 -272 213 -294 216 -11 1 -26 5 -31 8
-6 4 -17 -1 -24 -10 -12 -14 -15 -3 -20 78 -4 71 -2 98 8 110 7 9 11 18 8 20
-2 3 5 29 16 58 18 47 18 55 5 70 -13 14 -11 18 25 35 43 21 46 27 24 46 -14
12 -13 16 6 36 l22 24 -36 15 c-20 8 -46 15 -57 15 -23 0 -44 19 -80 73 -14
20 -28 37 -32 37 -3 0 -16 20 -28 45 -33 69 -134 130 -190 115z"/>
</g>
</svg>
