<?xml version="1.0" standalone="no"?>
<!DOCTYPE svg PUBLIC "-//W3C//DTD SVG 20010904//EN"
 "http://www.w3.org/TR/2001/REC-SVG-20010904/DTD/svg10.dtd">
<svg version="1.0" xmlns="http://www.w3.org/2000/svg"
 width="480.000000pt" height="360.000000pt" viewBox="0 0 480.000000 360.000000"
 preserveAspectRatio="xMidYMid meet">
<metadata>
Created by potrace 1.16, written by Peter Selinger 2001-2019
</metadata>
<rect width="1" height="360" fill="#000000"/>
<rect x="479" width="1" height="360" fill="#000000"/>
<rect width="480" height="1" fill="#000000"/>
<rect y="359" width="480" height="1" fill="#000000"/>
<g transform="translate(0.000000,360.000000) scale(0.100000,-0.100000)"
fill="#000000" stroke="none">
<path d="M888 3213 c-3 -62 -2 -77 5 -106 6 -20 4 -28 -5 -26 -28 3 -64 -2
-78 -11 -13 -9 -11 -14 13 -35 15 -14 37 -25 47 -25 19 0 19 -1 0 -32 -11 -18
-20 -36 -20 -40 0 -17 40 -6 69 18 l31 26 6 -31 c4 -17 11 -28 16 -25 5 3 6
20 2 36 -6 30 -5 30 22 23 31 -9 83 -9 92 0 8 8 -39 55 -55 55 -7 0 -13 5 -13
10 0 6 7 10 15 10 16 0 71 87 61 97 -8 9 -84 -17 -97 -34 -17 -20 -29 -16 -29
10 0 25 -56 117 -71 117 -5 0 -10 -17 -11 -37z"/>
<path d="M3290 2973 c-8 -3 -23 -12 -32 -21 -10 -8 -39 -18 -65 -23 -101 -19
-169 -64 -310 -205 -73 -73 -133 -136 -133 -139 0 -4 21 5 47 19 25 15 47 25
49 23 2 -2 -13 -34 -32 -71 -20 -38 -31 -65 -24 -61 9 6 11 -12 9 -74 -4 -80
2 -102 16 -58 8 22 8 22 12 -3 9 -56 14 -73 23 -64 4 5 10 18 12 29 4 18 6 17
18 -8 17 -36 7 -56 -43 -80 -41 -19 -48 -47 -21 -86 11 -15 14 -33 10 -53 -3
-17 -1 -60 5 -97 6 -36 11 -78 10 -93 -2 -42 28 -65 98 -73 65 -7 67 -9 51
-50 -11 -28 -18 -28 -77 -9 -10 3 0 -9 21 -28 l39 -34 -23 -89 c-21 -77 -28
-90 -54 -104 -48 -25 -86 -67 -86 -94 0 -14 -29 -71 -65 -128 -36 -56 -65
-106 -65 -111 0 -4 9 -8 20 -8 25 0 25 -6 -2 -47 -17 -25 -29 -33 -47 -31 -20
3 -28 16 -52 79 -15 42 -30 110 -34 150 -9 100 -22 178 -47 277 -20 83 -20 83
-1 135 16 42 19 64 13 112 -16 134 54 773 101 913 34 102 3 158 -93 169 -37 4
-49 1 -72 -19 -30 -26 -33 -48 -22 -166 9 -97 -87 -871 -114 -922 -6 -10 -10
-47 -10 -82 -1 -58 -2 -61 -15 -44 -10 13 -15 43 -15 87 0 66 -15 99 -39 85
-13 -9 -71 -123 -71 -141 0 -7 -11 -27 -25 -43 -14 -17 -25 -39 -25 -50 0 -11
-11 -27 -25 -36 -23 -15 -25 -23 -25 -87 0 -39 5 -80 12 -92 6 -12 44 -62 84
-112 l72 -90 -18 -100 c-10 -55 -35 -192 -55 -305 -21 -113 -50 -245 -66 -294
-16 -49 -29 -107 -29 -130 0 -39 -3 -43 -35 -54 -37 -14 -85 -64 -85 -89 0 -9
7 -24 16 -34 15 -16 15 -20 0 -41 -9 -12 -16 -38 -16 -58 0 -19 -7 -44 -15
-54 -8 -11 -15 -30 -15 -43 l0 -23 1126 0 1126 0 -7 128 c-3 70 -15 195 -26
277 -86 674 -86 672 -47 890 72 398 88 611 63 810 -18 135 -57 286 -85 326
-11 14 -24 48 -30 75 -37 164 -159 295 -345 369 -70 28 -247 64 -317 65 -27 0
-40 6 -48 20 -11 20 -22 23 -50 13z"/>
</g>
</svg>
