<?xml version="1.0" standalone="no"?>
<!DOCTYPE svg PUBLIC "-//W3C//DTD SVG 20010904//EN"
 "http://www.w3.org/TR/2001/REC-SVG-20010904/DTD/svg10.dtd">
<svg version="1.0" xmlns="http://www.w3.org/2000/svg"
 width="480.000000pt" height="360.000000pt" viewBox="0 0 480.000000 360.000000"
 preserveAspectRatio="xMidYMid meet">
<metadata>
Created by potrace 1.16, written by Peter Selinger 2001-2019
</metadata>
<rect width="1" height="360" fill="#000000"/>
<rect x="479" width="1" height="360" fill="#000000"/>
<rect width="480" height="1" fill="#000000"/>
<rect y="359" width="480" height="1" fill="#000000"/>
<g transform="translate(0.000000,360.000000) scale(0.100000,-0.100000)"
fill="#000000" stroke="none">
<path d="M0 1800 l0 -1800 2400 0 2400 0 0 23 c0 12 -25 98 -55 191 -30 92
-55 175 -55 184 0 8 -3 12 -7 8 -4 -4 -13 8 -20 26 -12 32 -12 32 -8 -17 l5
-50 -21 65 c-47 145 -56 181 -46 187 10 6 -49 42 -70 43 -7 0 7 -30 32 -66 25
-36 45 -72 45 -80 0 -22 -24 -17 -50 11 -13 14 -25 23 -27 22 -2 -2 21 -48 51
-103 60 -111 71 -140 57 -148 -9 -6 -35 22 -99 103 l-19 24 -24 -44 c-31 -57
-96 -93 -153 -84 -89 13 -151 98 -171 232 -26 169 -58 293 -76 293 -5 0 -29
18 -53 40 -24 22 -45 40 -48 40 -3 0 -10 -18 -17 -40 -6 -21 -22 -52 -35 -67
-24 -29 -65 -156 -114 -347 -22 -89 -32 -113 -54 -129 -51 -38 -118 4 -164
105 -24 53 -29 79 -32 161 -4 87 -6 97 -23 97 -31 0 -33 1 -49 15 -8 7 -30 16
-48 20 -30 6 -33 5 -39 -26 l-6 -32 -13 25 c-10 19 -24 27 -53 31 -59 7 -123
65 -140 125 -8 26 -24 58 -36 72 -18 19 -23 35 -21 68 2 33 -2 46 -16 53 -24
13 -46 57 -54 108 -6 37 -4 41 20 51 15 5 38 10 50 10 17 0 27 9 37 33 7 17
22 42 33 55 40 45 145 117 219 152 69 32 76 38 77 65 0 44 40 161 62 185 19
20 19 21 0 53 -11 17 -23 48 -26 67 -4 19 -28 102 -54 183 l-47 148 -32 -6
c-18 -3 -42 -1 -54 6 -17 9 -29 7 -60 -6 -35 -16 -40 -17 -63 -2 -23 16 -28
15 -80 -9 -49 -22 -56 -29 -62 -62 -4 -20 -2 -54 4 -77 6 -22 9 -42 7 -44 -2
-2 -24 -6 -47 -8 -32 -4 -47 -1 -56 10 -9 10 -10 17 -2 22 26 16 2 110 -31
120 -9 3 -25 17 -34 31 -9 13 -23 23 -32 22 -10 -2 -22 7 -29 20 -8 16 -13 19
-16 10 -3 -9 -8 -6 -16 9 -18 34 -4 100 30 139 41 47 117 94 150 94 42 0 88
-48 88 -92 l1 -33 27 31 c15 18 37 37 49 43 12 6 24 24 28 40 9 43 27 53 119
71 l81 16 -1 96 c0 90 -2 99 -29 133 -25 34 -31 37 -66 32 -22 -3 -41 -1 -44
3 -3 5 -23 3 -44 -5 -34 -12 -118 -19 -179 -16 -19 1 -21 5 -16 27 6 24 5 26
-16 19 -18 -6 -22 -4 -17 8 3 9 -4 19 -19 26 -17 8 -23 15 -17 25 15 26 85 76
154 109 37 17 68 38 68 45 1 6 -3 12 -9 12 -5 0 -10 13 -10 30 l0 29 53 -24
c28 -14 58 -25 65 -25 7 0 30 16 50 35 20 19 49 40 63 46 19 7 34 29 54 77 80
192 175 325 260 363 49 22 139 25 187 5 34 -15 87 -62 114 -102 19 -27 3 -67
-33 -83 -14 -6 -23 -17 -21 -24 3 -6 22 -67 43 -135 22 -69 46 -127 54 -132 9
-4 117 -22 241 -39 124 -18 235 -36 248 -41 42 -18 20 -94 -40 -138 -10 -7
-18 -20 -18 -28 0 -8 -4 -13 -9 -10 -5 3 -11 -3 -14 -13 -3 -14 -11 -18 -26
-14 -15 4 -21 1 -21 -10 0 -9 4 -19 10 -22 17 -10 11 -35 -7 -35 -10 0 21 -21
70 -47 48 -26 87 -51 87 -55 0 -5 -32 -8 -70 -7 -39 1 -73 -1 -77 -4 -3 -4 -1
-7 5 -7 7 0 12 -5 12 -10 0 -6 -18 -10 -41 -8 -30 1 -43 -2 -51 -16 -5 -9 -19
-21 -31 -25 -20 -7 -17 -11 28 -35 l50 -27 -67 4 c-68 5 -78 1 -56 -21 15 -15
3 -16 -23 -2 -38 21 -20 -17 29 -61 l47 -43 -56 32 c-52 28 -58 29 -78 16 -11
-8 -21 -11 -21 -6 0 5 -9 12 -19 15 -22 5 -31 -10 -31 -54 0 -17 -4 -28 -9
-25 -14 9 -21 -32 -21 -122 0 -53 -5 -93 -15 -111 -12 -24 -12 -31 -1 -46 13
-17 18 -16 84 28 39 26 73 47 76 47 2 0 37 15 78 34 104 49 212 82 291 89 74
7 71 10 58 -62 -13 -63 -8 -69 46 -61 25 4 54 5 65 2 17 -4 18 22 18 737 l0
741 -2400 0 -2400 0 0 -1800z"/>
<path d="M4781 310 c1 -19 5 -46 9 -60 7 -21 8 -17 9 20 0 25 -4 52 -9 60 -7
11 -9 6 -9 -20z"/>
</g>
</svg>
