<?xml version="1.0" standalone="no"?>
<!DOCTYPE svg PUBLIC "-//W3C//DTD SVG 20010904//EN"
 "http://www.w3.org/TR/2001/REC-SVG-20010904/DTD/svg10.dtd">
<svg version="1.0" xmlns="http://www.w3.org/2000/svg"
 width="480.000000pt" height="360.000000pt" viewBox="0 0 480.000000 360.000000"
 preserveAspectRatio="xMidYMid meet">
<metadata>
Created by potrace 1.16, written by Peter Selinger 2001-2019
</metadata>
<rect width="1" height="360" fill="#000000"/>
<rect x="479" width="1" height="360" fill="#000000"/>
<rect width="480" height="1" fill="#000000"/>
<rect y="359" width="480" height="1" fill="#000000"/>
<g transform="translate(0.000000,360.000000) scale(0.100000,-0.100000)"
fill="#000000" stroke="none">
<path d="M2275 3540 c-114 -17 -223 -102 -287 -226 -50 -96 -72 -169 -72 -239
l-1 -60 -75 -42 c-49 -28 -78 -39 -84 -33 -6 6 -22 10 -37 10 -26 0 -39 -15
-39 -46 0 -8 -11 -25 -25 -37 l-26 -22 81 -97 c45 -54 85 -98 89 -98 4 0 16 6
26 14 17 12 21 11 38 -10 26 -33 15 -57 -52 -122 l-56 -55 53 6 c52 6 54 5 48
-16 -3 -12 -8 -42 -12 -66 l-7 -45 31 34 30 35 7 -40 c5 -22 12 -51 17 -64 8
-23 9 -23 23 -5 13 18 14 17 15 -16 0 -19 3 -46 7 -59 6 -23 7 -23 14 -5 6 17
7 18 13 2 3 -10 9 -26 12 -35 5 -14 9 -10 19 17 l13 35 12 -49 c12 -47 14 -48
24 -25 l10 24 4 -27 c3 -24 6 -27 23 -18 17 10 19 7 19 -30 0 -49 12 -46 30 9
13 40 40 57 40 26 0 -8 5 -15 10 -15 6 0 8 11 4 26 -5 19 -4 25 5 20 17 -11
15 -90 -2 -83 -28 11 -41 -9 -28 -43 6 -18 11 -39 11 -46 0 -7 -37 -26 -82
-43 -121 -46 -181 -76 -222 -112 -20 -17 -38 -30 -40 -28 -2 2 -29 43 -59 91
-31 47 -60 88 -64 91 -4 2 -53 -2 -108 -9 -122 -16 -252 -18 -328 -3 -72 13
-178 57 -265 111 -77 47 -443 228 -461 228 -7 0 -62 -32 -123 -71 -128 -83
-223 -133 -328 -173 -41 -15 -85 -32 -98 -37 -21 -8 -22 -12 -22 -160 0 -133
2 -150 15 -139 24 20 75 115 75 141 1 30 26 61 64 77 16 7 29 11 31 10 1 -2
-20 -104 -46 -228 -27 -124 -51 -244 -55 -267 -11 -72 9 -59 126 86 47 57 119
146 161 197 76 93 76 94 82 166 5 53 3 76 -7 88 -8 9 -12 34 -11 60 3 41 7 47
55 82 29 21 59 38 65 38 7 0 39 -16 70 -35 32 -19 67 -37 77 -41 26 -8 23 -18
-15 -47 -18 -14 -50 -49 -70 -79 l-37 -53 -11 -263 c-10 -263 -8 -306 14 -299
7 2 69 111 140 243 136 256 139 264 116 364 -23 99 -23 100 -3 100 28 0 118
-45 185 -91 66 -46 76 -76 36 -102 -13 -8 -41 -44 -62 -79 -43 -72 -43 -62
-25 -358 21 -348 23 -351 98 -170 22 52 69 167 106 254 l67 159 -17 76 c-9 42
-23 84 -32 94 -8 9 -12 20 -8 25 4 4 71 6 149 6 190 -2 245 -20 179 -60 -18
-10 -46 -47 -70 -89 l-41 -72 35 -274 c19 -151 39 -285 45 -298 10 -23 10 -23
23 -5 7 10 25 57 40 104 16 47 32 89 36 93 6 7 80 -16 80 -26 0 -1 -16 -50
-35 -108 -40 -118 -77 -260 -95 -365 -12 -68 -15 -73 -48 -89 -20 -9 -131 -78
-246 -152 -116 -75 -223 -141 -238 -147 -24 -9 -30 -7 -50 20 -12 16 -36 40
-52 54 -16 14 -55 50 -85 81 -31 31 -66 62 -78 68 -33 17 -90 14 -97 -5 -12
-31 -6 -45 29 -65 38 -23 45 -48 19 -73 -12 -12 -37 -16 -102 -16 -48 0 -109
-7 -136 -15 -63 -19 -57 -20 -94 14 -23 20 -35 41 -40 72 -7 38 -11 44 -32 44
-20 0 -27 -9 -46 -60 -11 -33 -24 -67 -28 -76 -4 -10 6 -33 28 -65 19 -27 49
-75 65 -106 40 -75 67 -92 126 -84 35 6 45 4 45 -7 0 -8 9 -22 20 -32 20 -18
22 -18 80 10 60 29 61 29 108 12 75 -26 242 -67 302 -73 49 -5 63 -1 125 29
82 40 410 226 475 270 117 78 149 131 235 382 30 90 45 113 45 72 0 -15 10
-41 22 -57 20 -28 21 -35 13 -192 -4 -90 -7 -186 -6 -214 1 -39 -6 -68 -35
-130 -53 -114 -114 -265 -114 -281 0 -11 116 -13 660 -13 544 0 660 2 660 13
0 17 -63 171 -119 290 -43 93 -48 116 -30 134 8 8 8 26 1 64 -18 91 -23 194
-16 284 4 47 10 85 14 85 3 0 19 -37 35 -82 41 -121 92 -225 132 -269 19 -21
62 -56 96 -77 102 -64 549 -300 593 -312 54 -16 204 0 331 36 l93 26 55 -31
c30 -17 61 -31 68 -31 20 0 45 31 49 60 3 22 7 25 35 22 18 -2 41 -1 52 3 28
9 63 70 67 116 1 23 15 56 33 83 31 44 41 99 21 111 -5 3 -14 25 -20 48 -16
61 -31 87 -51 87 -23 0 -29 -10 -35 -57 -3 -25 -15 -49 -38 -71 l-33 -33 -62
11 c-34 6 -88 8 -121 4 -75 -8 -115 6 -129 49 -10 28 -9 33 24 60 36 29 44 54
23 75 -17 17 -35 15 -85 -9 -31 -15 -50 -33 -64 -62 -12 -22 -47 -67 -80 -99
-32 -32 -61 -68 -64 -78 -4 -11 -11 -20 -17 -20 -15 0 -97 48 -273 158 -82 52
-187 115 -232 139 -46 25 -83 47 -83 50 0 40 -60 281 -98 391 l-49 143 38 19
c48 25 58 41 34 54 -34 20 -85 68 -84 80 0 11 58 61 63 55 2 -4 45 -121 93
-254 41 -116 55 -137 67 -97 3 9 19 142 37 296 26 229 29 282 19 301 -11 20
-8 36 16 106 16 45 34 87 40 94 13 13 160 29 176 19 5 -4 3 -13 -6 -22 -8 -10
-20 -54 -27 -99 -11 -74 -11 -85 6 -120 10 -21 62 -128 114 -239 53 -110 103
-212 113 -225 l16 -24 10 25 c5 14 10 126 11 249 1 123 4 241 8 263 4 36 0 48
-42 109 -26 38 -60 79 -76 90 -16 11 -29 27 -29 35 0 19 148 128 204 149 56
22 80 15 66 -17 -5 -13 -14 -56 -18 -97 l-9 -74 69 -111 c38 -61 92 -146 119
-189 27 -43 49 -82 49 -86 0 -14 72 -91 80 -86 5 3 7 27 5 53 -2 26 -11 137
-20 247 -8 110 -18 214 -20 231 -6 33 -107 154 -130 154 -24 0 -25 29 -2 36
12 4 49 24 83 45 34 22 64 39 68 39 4 0 33 -17 64 -39 54 -36 57 -41 59 -82 1
-24 -3 -56 -8 -70 -7 -17 -7 -47 0 -89 l11 -64 182 -183 c101 -101 188 -183
195 -183 22 0 15 33 -48 256 -34 118 -60 217 -57 219 2 2 20 -1 40 -7 35 -11
58 -40 58 -76 0 -9 17 -41 38 -71 l37 -55 3 139 c1 76 -1 141 -5 145 -4 3 -39
17 -78 29 -100 33 -272 117 -399 194 -60 37 -116 67 -124 67 -9 0 -23 -6 -31
-14 -9 -8 -83 -49 -166 -92 -82 -43 -175 -94 -205 -114 -144 -96 -244 -145
-336 -164 -29 -7 -31 -5 -32 24 -1 36 5 38 18 8 8 -21 9 -21 9 7 1 17 -8 90
-19 164 -12 83 -16 140 -11 150 6 10 5 33 -1 57 -10 38 -9 43 25 91 70 96 82
135 81 258 0 91 -4 118 -22 160 -29 66 -63 85 -150 85 -70 0 -152 -29 -181
-63 -19 -24 -40 -22 -34 3 8 31 -26 159 -60 222 -68 132 -166 193 -387 244
-304 70 -339 76 -415 64z m839 -1064 c-4 -72 -8 -195 -9 -274 l0 -142 -41 0
c-48 0 -55 -7 -113 -110 -23 -41 -51 -86 -62 -99 l-20 -24 -37 35 c-57 54 -89
72 -194 113 -103 40 -116 53 -98 99 5 15 10 40 10 56 0 16 4 32 10 35 6 4 8
-5 5 -22 -12 -78 -13 -103 -4 -103 5 0 14 11 19 25 5 14 15 25 22 25 7 0 24
19 37 42 l24 42 22 -89 c23 -92 29 -93 38 -5 2 19 5 1 7 -40 l3 -75 14 78 c11
56 18 76 26 68 17 -17 27 -13 27 9 0 10 5 30 12 44 10 23 12 24 23 9 11 -15
14 -13 29 15 20 40 31 40 51 3 28 -55 35 -46 28 35 -6 71 -5 77 11 71 10 -4
36 -10 59 -13 l42 -6 -32 22 c-18 12 -33 29 -34 38 -1 10 -2 33 -4 52 -2 28 8
51 51 117 30 46 57 90 60 98 3 8 11 12 16 8 8 -4 8 -48 2 -137z m-756 -177
c20 -6 41 -15 47 -20 5 -5 19 -9 31 -9 13 0 26 -5 30 -12 11 -18 -97 -3 -152
22 -62 27 -89 50 -72 62 10 6 10 8 1 8 -7 0 -13 7 -13 15 0 12 13 6 46 -19 25
-19 62 -40 82 -47z m165 -153 c3 -8 -1 -20 -9 -26 -12 -10 -14 -8 -14 14 0 28
14 35 23 12z m596 -237 c8 -14 9 -24 3 -28 -16 -10 -52 -164 -45 -191 7 -25
-5 -18 -110 71 -8 6 119 169 132 169 4 0 12 -10 20 -21z m-1394 -84 l67 -75
-43 -45 c-40 -42 -62 -56 -57 -37 3 10 -43 155 -53 168 -7 8 9 63 18 64 0 0
31 -34 68 -75z m-60 -359 c18 -13 18 -14 -6 -43 -24 -30 -58 -57 -64 -51 -5 5
37 108 44 108 4 0 16 -6 26 -14z m2745 -1146 c0 -5 -4 -10 -9 -10 -6 0 -13 5
-16 10 -3 6 1 10 9 10 9 0 16 -4 16 -10z"/>
</g>
</svg>
