<?xml version="1.0" standalone="no"?>
<!DOCTYPE svg PUBLIC "-//W3C//DTD SVG 20010904//EN"
 "http://www.w3.org/TR/2001/REC-SVG-20010904/DTD/svg10.dtd">
<svg version="1.0" xmlns="http://www.w3.org/2000/svg"
 width="480.000000pt" height="360.000000pt" viewBox="0 0 480.000000 360.000000"
 preserveAspectRatio="xMidYMid meet">
<metadata>
Created by potrace 1.16, written by Peter Selinger 2001-2019
</metadata>
<rect width="1" height="360" fill="#000000"/>
<rect x="479" width="1" height="360" fill="#000000"/>
<rect width="480" height="1" fill="#000000"/>
<rect y="359" width="480" height="1" fill="#000000"/>
<g transform="translate(0.000000,360.000000) scale(0.100000,-0.100000)"
fill="#000000" stroke="none">
<path d="M2935 3382 c-89 -21 -103 -28 -125 -64 -32 -53 -36 -126 -11 -205 12
-37 24 -73 27 -80 3 -6 -24 -27 -63 -47 -83 -44 -187 -125 -237 -185 -82 -98
-115 -177 -132 -309 -3 -29 -17 -74 -30 -100 -30 -58 -30 -58 3 -37 22 15 25
15 20 2 -3 -9 -1 -17 5 -19 6 -2 13 -32 16 -66 3 -49 7 -60 17 -52 10 8 15 4
20 -17 6 -25 8 -26 14 -9 7 17 9 16 19 -13 8 -23 16 -31 27 -27 8 3 15 1 15
-4 0 -6 7 -10 15 -10 9 0 18 -6 21 -14 3 -8 17 -22 31 -32 l26 -16 -7 28 c-7
28 -7 28 8 9 9 -12 15 -15 16 -7 0 7 5 10 10 7 26 -16 3 -113 -34 -144 -26
-22 -19 -39 24 -61 24 -12 45 -32 51 -48 6 -15 24 -40 41 -57 73 -71 81 -88
76 -170 -2 -41 1 -75 6 -75 5 0 6 -18 3 -40 -4 -35 -2 -40 14 -40 17 0 19 -8
19 -107 0 -91 -4 -116 -26 -172 -15 -36 -27 -67 -29 -69 -1 -1 -18 5 -38 13
-50 21 -89 19 -121 -6 -24 -19 -26 -26 -26 -100 l0 -79 -72 -79 -73 -79 -35
18 c-54 28 -409 140 -462 147 -40 5 -51 11 -73 44 -22 31 -28 54 -35 133 -9
105 -33 163 -83 200 -31 23 -94 27 -179 13 l-48 -8 0 41 c0 29 -4 40 -12 37
-8 -2 -13 -21 -13 -47 0 -43 0 -43 -53 -61 -68 -23 -129 -58 -137 -78 -4 -9
-15 -47 -25 -86 -15 -61 -16 -74 -4 -108 8 -22 14 -52 14 -67 0 -49 22 -94 79
-159 63 -73 99 -92 221 -116 47 -10 90 -19 96 -20 8 -2 2 -33 -17 -92 -16 -48
-43 -146 -59 -216 -16 -70 -45 -163 -65 -206 -31 -70 -65 -157 -65 -167 0 -2
257 -3 572 -2 l572 3 38 150 c20 83 37 155 38 160 1 6 5 1 9 -10 4 -11 2 -76
-5 -145 -7 -69 -13 -133 -13 -142 -1 -17 37 -18 659 -18 445 0 660 3 660 10 0
12 -61 137 -89 185 -19 31 -31 95 -34 179 l-2 50 65 16 c75 19 142 51 122 58
-10 3 -4 14 18 37 l31 32 -43 6 c-35 5 -59 -1 -127 -28 -47 -19 -86 -33 -88
-32 -4 4 -31 135 -42 202 -5 28 -13 68 -19 90 -6 22 -15 63 -21 90 -6 28 -13
60 -17 72 -4 16 -1 23 15 28 29 9 26 30 -10 87 l-31 48 4 125 c5 154 17 174
47 76 22 -72 45 -100 31 -37 -4 19 -3 39 2 44 5 5 5 32 0 66 -11 69 2 85 17
19 11 -54 81 -227 88 -219 3 2 -1 39 -7 81 -6 42 -9 79 -7 81 3 3 21 -22 42
-55 20 -34 37 -61 38 -61 1 0 1 183 1 408 -2 435 -8 512 -60 745 -29 135 -46
187 -91 286 -19 42 -39 105 -44 140 -13 86 -59 171 -140 251 -50 50 -78 70
-118 83 -64 20 -122 21 -176 2 -37 -13 -43 -13 -85 7 -25 12 -71 45 -104 75
-32 29 -91 74 -130 101 l-71 48 -60 -14z m124 -1720 l29 -58 -41 -34 -40 -34
6 70 c4 38 7 79 7 92 0 34 7 27 39 -36z"/>
</g>
</svg>
