<?xml version="1.0" standalone="no"?>
<!DOCTYPE svg PUBLIC "-//W3C//DTD SVG 20010904//EN"
 "http://www.w3.org/TR/2001/REC-SVG-20010904/DTD/svg10.dtd">
<svg version="1.0" xmlns="http://www.w3.org/2000/svg"
 width="480.000000pt" height="360.000000pt" viewBox="0 0 480.000000 360.000000"
 preserveAspectRatio="xMidYMid meet">
<metadata>
Created by potrace 1.16, written by Peter Selinger 2001-2019
</metadata>
<rect width="1" height="360" fill="#000000"/>
<rect x="479" width="1" height="360" fill="#000000"/>
<rect width="480" height="1" fill="#000000"/>
<rect y="359" width="480" height="1" fill="#000000"/>
<g transform="translate(0.000000,360.000000) scale(0.100000,-0.100000)"
fill="#000000" stroke="none">
<path d="M3394 3566 c-148 -54 -230 -102 -314 -186 -111 -111 -171 -251 -187
-438 l-6 -74 -55 -24 c-104 -46 -209 -156 -215 -225 -3 -37 -4 -38 -99 -23
-26 3 -58 4 -72 0 -33 -8 -71 -74 -87 -151 -25 -123 12 -155 124 -110 14 6 17
1 17 -33 0 -23 -4 -43 -10 -47 -5 -3 -6 -13 -3 -21 5 -12 15 -15 44 -10 35 6
42 3 76 -32 21 -21 54 -67 73 -102 l36 -65 64 0 64 0 37 -65 c35 -60 38 -74
49 -195 27 -291 24 -499 -12 -803 -10 -85 -13 -95 -39 -115 -16 -11 -29 -28
-29 -37 0 -9 -9 -25 -20 -35 -11 -10 -20 -25 -20 -33 0 -15 -7 -22 -72 -68
l-37 -26 -34 26 c-45 34 -129 64 -241 85 l-90 16 -26 45 c-14 25 -37 65 -50
90 -14 25 -49 87 -78 138 l-54 94 25 56 c35 80 47 147 47 265 0 71 -5 111 -15
131 -20 37 -19 191 0 391 19 193 19 256 0 281 -14 18 -16 18 -48 -16 -35 -36
-67 -48 -67 -24 0 8 -4 14 -10 14 -5 0 -10 -2 -10 -4 0 -2 -4 -25 -9 -53 -6
-27 -15 -107 -21 -179 -10 -118 -35 -272 -45 -283 -3 -2 -24 4 -48 13 -23 9
-55 16 -70 16 -25 0 -189 -78 -211 -101 -6 -5 -20 -9 -31 -9 -34 0 -73 -50
-99 -128 -28 -82 -26 -87 42 -124 33 -18 31 -12 76 -206 44 -189 68 -250 167
-422 52 -91 121 -217 153 -281 l60 -117 -28 -61 c-24 -54 -116 -290 -116 -298
0 -2 659 -3 1465 -3 l1465 0 0 1689 0 1689 -82 66 c-46 37 -122 86 -170 111
l-86 45 -489 0 -488 -1 -91 -33z m-76 -2169 c26 -26 29 -35 20 -45 -7 -7 -20
-43 -29 -80 l-15 -67 -8 95 c-4 52 -10 103 -12 113 -8 26 9 20 44 -16z"/>
</g>
</svg>
