<?xml version="1.0" standalone="no"?>
<!DOCTYPE svg PUBLIC "-//W3C//DTD SVG 20010904//EN"
 "http://www.w3.org/TR/2001/REC-SVG-20010904/DTD/svg10.dtd">
<svg version="1.0" xmlns="http://www.w3.org/2000/svg"
 width="480.000000pt" height="360.000000pt" viewBox="0 0 480.000000 360.000000"
 preserveAspectRatio="xMidYMid meet">
<metadata>
Created by potrace 1.16, written by Peter Selinger 2001-2019
</metadata>
<rect width="1" height="360" fill="#000000"/>
<rect x="479" width="1" height="360" fill="#000000"/>
<rect width="480" height="1" fill="#000000"/>
<rect y="359" width="480" height="1" fill="#000000"/>
<g transform="translate(0.000000,360.000000) scale(0.100000,-0.100000)"
fill="#000000" stroke="none">
<path d="M0 1960 l0 -1640 52 37 c61 44 156 93 181 93 9 0 27 6 38 12 17 11
23 10 39 -10 14 -17 25 -21 44 -16 31 7 62 -2 70 -22 12 -31 -97 -193 -174
-258 -57 -48 -155 -86 -222 -86 -25 0 -28 -4 -28 -35 l0 -35 708 1 c547 1 699
4 671 13 -74 23 -75 31 -6 102 59 61 64 64 110 64 40 0 54 -5 78 -29 16 -16
29 -34 29 -39 0 -5 -25 -32 -55 -60 l-55 -52 69 0 69 0 -5 43 c-3 28 0 49 11
62 14 19 16 19 33 2 11 -11 18 -33 18 -62 l0 -45 1563 0 1562 0 0 1800 0 1800
-1932 0 -1931 0 21 -23 c25 -27 30 -77 7 -77 -21 0 -126 48 -147 67 -10 9 -15
20 -12 24 3 5 -174 9 -400 9 l-406 0 0 -1640z m900 1412 c0 -9 -64 -42 -80
-42 -22 0 -8 16 28 32 43 19 52 21 52 10z m250 -96 c-13 -13 -56 -20 -99 -17
-38 3 37 28 89 30 21 1 22 -1 10 -13z m1204 -74 c11 -18 -65 -42 -130 -42 -36
0 -63 4 -60 9 5 7 74 24 146 35 14 2 28 4 32 5 4 0 9 -3 12 -7z m1626 -54 c0
-7 -11 -31 -23 -53 -20 -35 -28 -40 -56 -38 -49 2 -57 16 -31 53 12 17 32 35
44 40 32 13 66 12 66 -2z m-2725 -378 c4 -6 -14 -10 -47 -10 -38 0 -49 3 -38
10 20 13 77 13 85 0z m1138 -10 c14 -11 30 -20 36 -20 17 0 13 -17 -5 -24 -35
-14 -107 -6 -142 16 -32 20 -33 22 -16 35 27 20 97 16 127 -7z m-2068 -204
c38 -16 61 -47 68 -92 10 -62 -25 -69 -77 -15 -35 36 -56 121 -30 121 3 0 20
-6 39 -14z m3898 -500 c23 -18 22 -22 -12 -36 -34 -14 -51 -7 -51 19 0 33 30
42 63 17z m-1768 -237 c9 -13 -13 -66 -30 -73 -20 -7 -37 19 -29 47 5 23 16
31 46 36 4 0 10 -4 13 -10z m-2330 -155 c23 -36 6 -53 -29 -30 -25 16 -33 36
-19 49 13 14 31 6 48 -19z m2150 12 c41 -12 64 -44 81 -110 6 -25 5 -26 -40
-26 -25 0 -63 7 -85 16 -32 12 -43 25 -60 64 -12 27 -21 53 -21 59 0 14 74 13
125 -3z m-1564 -143 c7 -19 6 -35 -2 -55 -18 -43 -33 -51 -59 -30 -40 32 -13
102 43 111 4 0 12 -11 18 -26z m3109 -12 c0 -6 -4 -12 -9 -16 -6 -3 -24 -31
-42 -63 -44 -78 -193 -302 -197 -297 -8 7 22 111 49 173 30 67 87 140 146 185
38 28 53 33 53 18z m-1375 -206 c33 -3 71 -9 85 -12 25 -6 25 -6 -5 -13 -44
-11 -198 -11 -214 -1 -11 7 -7 12 15 24 16 9 36 14 44 12 8 -2 42 -7 75 -10z
m372 -27 c-21 -50 -88 -139 -101 -135 -6 2 -12 13 -14 25 -2 12 -10 22 -18 22
-38 0 5 65 54 81 20 7 48 20 61 31 31 24 35 18 18 -24z m-787 -64 c0 -4 -12
-28 -27 -56 -17 -31 -32 -48 -42 -46 -43 8 -2 108 44 108 14 0 25 -3 25 -6z
m-625 -58 c22 -6 59 -59 48 -70 -17 -17 -58 -3 -91 30 -29 29 -33 37 -21 45 8
5 21 7 29 5 8 -3 24 -7 35 -10z m1925 -230 c10 -43 8 -52 -9 -41 -34 20 -65
137 -44 159 9 9 40 -61 53 -118z m-1819 -12 c14 -7 32 -20 40 -30 13 -15 12
-16 -11 -9 -35 11 -120 54 -120 61 0 8 61 -6 91 -22z m359 -154 c0 -14 -55
-40 -85 -40 -32 0 -29 20 6 37 29 15 79 17 79 3z m2462 -34 c39 -14 138 -84
138 -98 0 -14 -64 -8 -102 10 -41 19 -108 76 -108 92 0 13 27 12 72 -4z
m-2068 -92 c24 -9 9 -24 -24 -24 -34 0 -60 9 -60 21 0 10 60 12 84 3z m1015
-31 c8 -30 7 -45 -11 -85 -21 -50 -32 -58 -42 -33 -3 8 -12 15 -21 15 -11 0
-15 11 -15 39 0 32 6 46 33 70 17 17 35 31 39 31 4 0 12 -16 17 -37z m-559
-32 c0 -9 -75 -31 -106 -31 -29 0 -3 18 41 29 54 12 65 13 65 2z m1356 -350
c28 -17 104 -100 104 -113 0 -15 -83 -17 -118 -2 -49 19 -120 102 -107 124 10
17 88 11 121 -9z m-3401 -62 c4 -27 4 -53 1 -56 -8 -9 -26 44 -26 78 0 48 18
33 25 -22z m3896 -40 c36 -12 99 -55 99 -67 0 -13 -115 -52 -154 -52 -51 0
-136 37 -136 60 0 11 19 27 53 43 58 29 88 32 138 16z m-2421 -54 c0 -37 -4
-55 -12 -56 -54 -5 -107 17 -114 48 -9 33 7 46 64 54 26 3 50 7 55 8 4 0 7
-24 7 -54z"/>
</g>
</svg>
