<?xml version="1.0" standalone="no"?>
<!DOCTYPE svg PUBLIC "-//W3C//DTD SVG 20010904//EN"
 "http://www.w3.org/TR/2001/REC-SVG-20010904/DTD/svg10.dtd">
<svg version="1.0" xmlns="http://www.w3.org/2000/svg"
 width="480.000000pt" height="360.000000pt" viewBox="0 0 480.000000 360.000000"
 preserveAspectRatio="xMidYMid meet">
<metadata>
Created by potrace 1.16, written by Peter Selinger 2001-2019
</metadata>
<rect width="1" height="360" fill="#000000"/>
<rect x="479" width="1" height="360" fill="#000000"/>
<rect width="480" height="1" fill="#000000"/>
<rect y="359" width="480" height="1" fill="#000000"/>
<g transform="translate(0.000000,360.000000) scale(0.100000,-0.100000)"
fill="#000000" stroke="none">
<path d="M0 2679 l0 -921 32 5 c78 14 328 37 508 47 107 5 269 15 360 20 601
37 1058 45 2344 42 1037 -2 1281 0 1287 10 5 7 9 30 9 51 0 64 76 192 108 183
9 -2 33 -7 52 -10 20 -3 50 -19 68 -35 l32 -30 0 780 0 779 -2400 0 -2400 0 0
-921z m4473 574 c-7 -2 -19 -2 -25 0 -7 3 -2 5 12 5 14 0 19 -2 13 -5z m-13
-193 c0 -5 -4 -10 -10 -10 -5 0 -10 5 -10 10 0 6 5 10 10 10 6 0 10 -4 10 -10z"/>
<path d="M2235 1609 c-247 -4 -616 -12 -820 -19 -331 -10 -504 -17 -1180 -50
-104 -5 -200 -9 -212 -10 l-23 0 0 -765 c0 -722 1 -765 18 -765 12 0 26 21 46
70 17 39 33 70 38 70 4 0 8 -31 8 -70 l0 -70 2345 0 2345 0 0 706 0 705 -28
-30 c-27 -30 -30 -31 -75 -22 -78 14 -123 63 -132 141 -10 89 -18 101 -67 100
-72 -2 -1658 10 -1738 13 -41 2 -277 0 -525 -4z"/>
</g>
</svg>
