<?xml version="1.0" standalone="no"?>
<!DOCTYPE svg PUBLIC "-//W3C//DTD SVG 20010904//EN"
 "http://www.w3.org/TR/2001/REC-SVG-20010904/DTD/svg10.dtd">
<svg version="1.0" xmlns="http://www.w3.org/2000/svg"
 width="480.000000pt" height="360.000000pt" viewBox="0 0 480.000000 360.000000"
 preserveAspectRatio="xMidYMid meet">
<metadata>
Created by potrace 1.16, written by Peter Selinger 2001-2019
</metadata>
<rect width="1" height="360" fill="#000000"/>
<rect x="479" width="1" height="360" fill="#000000"/>
<rect width="480" height="1" fill="#000000"/>
<rect y="359" width="480" height="1" fill="#000000"/>
<g transform="translate(0.000000,360.000000) scale(0.100000,-0.100000)"
fill="#000000" stroke="none">
<path d="M0 1800 l0 -1800 993 1 c588 1 976 5 952 10 -22 4 -65 14 -95 20 -87
18 -217 58 -314 96 -193 76 -332 184 -404 312 -34 61 -37 72 -37 146 0 105 29
168 125 269 60 62 88 83 188 134 107 55 117 63 114 86 -3 26 20 37 33 16 11
-17 56 -11 170 23 l110 33 -3 37 c-4 46 10 48 45 6 l26 -31 14 44 c32 99 123
130 189 64 19 -19 34 -41 34 -50 0 -9 8 -16 18 -16 13 0 22 12 31 40 6 22 15
40 20 40 4 0 17 -18 30 -40 l22 -40 135 0 134 0 28 40 c15 21 30 39 34 40 3 0
13 -19 20 -42 19 -56 42 -61 58 -11 22 67 69 103 137 103 52 0 95 -29 117 -78
11 -25 23 -39 32 -35 9 3 14 -7 16 -37 l3 -42 80 -25 c115 -34 159 -39 189
-19 28 18 39 9 34 -28 -3 -22 9 -30 103 -78 172 -88 281 -215 310 -361 31
-152 -112 -340 -346 -456 -109 -54 -264 -108 -390 -135 -44 -10 -96 -21 -115
-26 -19 -4 414 -8 963 -9 l997 -1 0 1800 0 1800 -2400 0 -2400 0 0 -1800z
m2661 441 c16 -16 29 -36 29 -45 0 -30 -22 -63 -55 -80 -30 -16 -35 -17 -63
-2 -62 32 -57 119 9 145 38 15 49 13 80 -18z m-492 -27 c29 -37 27 -76 -6
-109 -24 -23 -34 -26 -68 -22 -46 7 -65 28 -65 74 0 73 96 112 139 57z m963
-4 c25 -26 29 -36 24 -63 -7 -37 -48 -77 -79 -77 -33 0 -76 40 -83 77 -5 27
-1 37 24 63 19 18 41 30 57 30 16 0 38 -12 57 -30z m-1441 -43 c45 -35 50 -85
10 -129 -27 -30 -31 -31 -66 -23 -29 8 -43 19 -57 47 -22 42 -18 68 15 98 23
22 74 26 98 7z m1848 -32 c51 -26 58 -96 14 -137 -42 -40 -81 -41 -118 -3 -43
42 -28 112 30 143 27 15 41 15 74 -3z m-2248 -74 c20 -20 29 -39 29 -61 0 -42
-47 -90 -88 -90 -46 0 -92 43 -92 87 0 62 29 91 93 92 19 1 39 -9 58 -28z
m2589 -56 c60 -31 69 -107 20 -157 -27 -27 -36 -30 -71 -25 -48 6 -68 21 -86
65 -11 27 -11 37 1 66 26 61 78 81 136 51z m-2899 -104 c51 -52 35 -127 -36
-161 l-42 -20 10 -39 c33 -123 -131 -182 -197 -71 -36 62 -4 133 69 152 35 9
44 16 39 28 -34 78 7 138 94 139 24 1 42 -7 63 -28z m3108 -87 c26 -22 31 -33
31 -71 0 -38 -5 -50 -34 -79 -22 -22 -44 -34 -61 -34 -25 0 -25 -1 -11 -22 20
-29 20 -97 0 -126 -34 -48 -101 -65 -154 -37 -41 21 -60 53 -60 101 0 34 6 49
30 72 16 17 43 33 59 37 29 6 29 7 25 63 -3 38 0 62 8 72 46 56 118 66 167 24z
m-3043 -258 c28 -28 34 -41 34 -78 0 -24 -7 -54 -16 -66 -19 -27 -65 -52 -96
-52 -33 0 -85 35 -103 69 -25 50 -19 89 19 127 29 29 41 34 81 34 40 0 52 -5
81 -34z m2525 -99 c22 -15 39 -38 49 -65 14 -40 13 -46 -5 -80 -12 -22 -37
-46 -63 -61 -40 -21 -48 -22 -85 -11 -23 6 -56 27 -74 45 -27 27 -33 41 -33
74 0 75 49 120 131 121 32 0 57 -7 80 -23z m-2142 -42 c73 -37 80 -158 13
-218 -89 -81 -225 51 -167 163 33 64 95 86 154 55z"/>
<path d="M2217 1079 c-49 -4 -106 -15 -128 -23 -22 -9 -56 -16 -77 -16 -96 0
-317 -99 -410 -184 -107 -98 -136 -212 -80 -323 70 -140 319 -276 556 -303 48
-5 112 -14 141 -20 81 -15 325 -12 396 5 33 8 75 14 93 15 36 0 143 27 237 60
134 46 275 153 319 242 81 163 -26 337 -274 444 -211 92 -488 129 -773 103z"/>
</g>
</svg>
