<?xml version="1.0" standalone="no"?>
<!DOCTYPE svg PUBLIC "-//W3C//DTD SVG 20010904//EN"
 "http://www.w3.org/TR/2001/REC-SVG-20010904/DTD/svg10.dtd">
<svg version="1.0" xmlns="http://www.w3.org/2000/svg"
 width="480.000000pt" height="360.000000pt" viewBox="0 0 480.000000 360.000000"
 preserveAspectRatio="xMidYMid meet">
<metadata>
Created by potrace 1.16, written by Peter Selinger 2001-2019
</metadata>
<rect width="1" height="360" fill="#000000"/>
<rect x="479" width="1" height="360" fill="#000000"/>
<rect width="480" height="1" fill="#000000"/>
<rect y="359" width="480" height="1" fill="#000000"/>
<g transform="translate(0.000000,360.000000) scale(0.100000,-0.100000)"
fill="#000000" stroke="none">
<path d="M1331 2867 c-12 -25 -33 -49 -47 -56 -21 -9 -24 -14 -14 -26 6 -8 8
-19 4 -26 -4 -6 -8 -26 -9 -43 -2 -33 -17 -68 -65 -156 -28 -52 -39 -100 -22
-100 4 0 15 -15 26 -33 l18 -32 15 22 15 22 35 -42 c20 -23 42 -42 50 -42 17
0 37 -31 28 -45 -3 -6 -19 -10 -34 -10 -38 0 -59 -25 -43 -51 19 -30 15 -38
-39 -87 -29 -26 -58 -60 -66 -77 -7 -16 -29 -49 -48 -73 -24 -30 -35 -54 -35
-76 0 -40 30 -81 65 -90 14 -4 25 -14 26 -24 4 -59 -4 -161 -15 -182 -19 -39
-40 -73 -54 -92 -8 -9 -11 -25 -8 -35 3 -11 -3 -46 -15 -79 -12 -32 -23 -81
-25 -109 -1 -27 -14 -102 -28 -165 -33 -150 -81 -518 -111 -850 -14 -146 -25
-275 -25 -287 l0 -23 476 0 477 0 -6 28 c-15 73 -59 407 -77 577 -25 239 -59
391 -157 688 -3 11 0 17 11 17 22 0 20 9 -6 37 l-21 23 38 130 38 131 -16 102
c-11 71 -13 105 -5 114 6 7 8 19 5 27 -3 7 -1 18 4 23 6 6 5 14 -5 22 -12 11
-12 18 5 56 13 29 17 54 13 72 -16 69 -57 180 -75 206 -19 26 -19 28 -2 33 10
3 30 11 45 19 25 13 29 12 38 -4 5 -10 6 -21 3 -25 -4 -3 8 -1 25 5 18 6 32
16 32 22 0 8 3 8 9 -1 11 -18 62 61 68 107 5 36 -30 185 -47 206 -5 6 -7 27
-4 47 5 30 2 38 -21 56 -14 12 -42 42 -61 67 -42 54 -89 80 -164 90 -30 4 -63
11 -72 16 -12 6 -30 4 -54 -6 -45 -19 -48 -19 -41 0 4 8 2 17 -3 20 -4 3 -18
-15 -29 -38z m271 -549 c-7 -7 -12 -8 -12 -2 0 6 3 14 7 17 3 4 9 5 12 2 2 -3
-1 -11 -7 -17z"/>
<path d="M3437 2125 l-118 -107 -64 16 c-90 22 -117 21 -146 -10 l-24 -26 36
-31 c19 -18 57 -47 83 -65 33 -23 45 -37 39 -45 -18 -25 -14 -66 9 -97 21 -29
21 -32 6 -41 -14 -7 -15 -15 -7 -45 7 -24 7 -39 -1 -48 -8 -10 -3 -16 20 -26
22 -9 29 -17 25 -29 -4 -9 -9 -28 -12 -44 -4 -19 -13 -29 -32 -33 -14 -3 -31
-7 -37 -9 -6 -2 -55 -78 -109 -169 -111 -190 -107 -162 -51 -341 29 -93 38
-112 63 -126 23 -13 28 -22 27 -50 -2 -63 -54 -353 -75 -414 -11 -33 -21 -66
-22 -74 -2 -14 67 -74 95 -83 9 -3 14 -36 16 -116 l4 -112 69 0 69 0 0 29 c0
35 20 133 30 144 4 4 18 4 31 -2 22 -8 28 -21 43 -90 l17 -81 69 0 69 0 5 43
c3 23 7 55 8 72 3 26 8 31 41 36 44 7 84 27 91 44 2 7 -11 71 -30 142 -45 167
-86 390 -79 425 4 15 15 30 25 33 14 4 26 28 40 78 12 40 30 100 42 135 11 36
18 77 15 95 -2 18 -30 93 -60 167 -57 139 -77 221 -59 243 5 6 12 28 16 48 13
74 22 76 111 25 44 -25 85 -46 92 -46 7 0 17 9 23 19 21 40 11 68 -47 136
l-58 68 44 121 c24 66 46 138 49 159 4 35 0 42 -39 77 -57 54 -140 99 -192
106 l-43 6 -117 -107z m-244 -942 c-7 -46 -10 -50 -24 -36 -8 8 -8 20 2 42 19
42 29 39 22 -6z m376 -38 c0 -11 -14 -31 -30 -44 l-30 -23 7 28 c4 16 11 40
16 52 4 13 6 28 2 33 -3 5 -2 14 2 21 9 14 33 -35 33 -67z"/>
</g>
</svg>
