<?xml version="1.0" standalone="no"?>
<!DOCTYPE svg PUBLIC "-//W3C//DTD SVG 20010904//EN"
 "http://www.w3.org/TR/2001/REC-SVG-20010904/DTD/svg10.dtd">
<svg version="1.0" xmlns="http://www.w3.org/2000/svg"
 width="480.000000pt" height="360.000000pt" viewBox="0 0 480.000000 360.000000"
 preserveAspectRatio="xMidYMid meet">
<metadata>
Created by potrace 1.16, written by Peter Selinger 2001-2019
</metadata>
<rect width="1" height="360" fill="#000000"/>
<rect x="479" width="1" height="360" fill="#000000"/>
<rect width="480" height="1" fill="#000000"/>
<rect y="359" width="480" height="1" fill="#000000"/>
<g transform="translate(0.000000,360.000000) scale(0.100000,-0.100000)"
fill="#000000" stroke="none">
<path d="M0 1800 l0 -1800 919 0 919 0 -5 39 c-4 28 5 78 30 168 20 70 45 167
57 215 12 48 39 139 60 203 l39 117 -39 37 c-45 42 -50 69 -25 128 9 22 13 49
10 65 -4 18 4 61 23 121 47 144 120 417 126 472 6 50 21 106 37 137 13 25 11
31 -6 24 -21 -8 -19 10 5 42 17 22 20 44 21 127 1 55 -2 120 -6 145 -6 41 -9
46 -33 45 -23 0 -32 10 -64 73 -69 133 -48 157 129 157 81 0 114 4 118 13 5
14 165 18 165 3 0 -4 54 -6 120 -4 117 3 121 3 145 -21 l24 -25 -19 -55 c-41
-119 -65 -147 -98 -114 -17 17 -15 -4 4 -30 13 -19 14 -25 2 -39 -14 -18 -16
-38 -17 -162 0 -68 3 -89 19 -111 24 -33 25 -44 5 -37 -22 9 -29 -12 -10 -33
9 -10 14 -24 10 -30 -4 -6 -2 -17 4 -24 6 -7 16 -51 22 -97 9 -77 80 -343 129
-483 23 -68 25 -93 8 -99 -10 -3 -10 -11 1 -38 31 -79 26 -116 -20 -159 l-31
-28 42 -128 c23 -71 55 -183 70 -249 15 -66 38 -158 50 -205 18 -68 21 -92 13
-122 l-10 -38 928 0 929 0 0 1800 0 1800 -2400 0 -2400 0 0 -1800z"/>
</g>
</svg>
