<?xml version="1.0" standalone="no"?>
<!DOCTYPE svg PUBLIC "-//W3C//DTD SVG 20010904//EN"
 "http://www.w3.org/TR/2001/REC-SVG-20010904/DTD/svg10.dtd">
<svg version="1.0" xmlns="http://www.w3.org/2000/svg"
 width="480.000000pt" height="360.000000pt" viewBox="0 0 480.000000 360.000000"
 preserveAspectRatio="xMidYMid meet">
<metadata>
Created by potrace 1.16, written by Peter Selinger 2001-2019
</metadata>
<rect width="1" height="360" fill="#000000"/>
<rect x="479" width="1" height="360" fill="#000000"/>
<rect width="480" height="1" fill="#000000"/>
<rect y="359" width="480" height="1" fill="#000000"/>
<g transform="translate(0.000000,360.000000) scale(0.100000,-0.100000)"
fill="#000000" stroke="none">
<path d="M0 1800 l0 -1800 251 0 251 0 -4 148 c-5 169 -11 190 -121 399 -137
260 -190 401 -232 610 -38 184 -55 373 -55 608 0 302 25 481 111 808 l42 158
-38 39 c-35 35 -37 42 -27 64 26 57 118 46 397 -47 200 -67 246 -87 282 -119
26 -24 285 -101 801 -238 32 -8 33 -7 58 43 15 28 41 92 59 142 38 105 67 164
107 220 16 22 43 63 62 90 39 60 87 95 130 95 39 0 95 20 166 58 71 39 121 52
207 53 59 1 79 -3 134 -31 35 -18 101 -60 147 -93 74 -55 80 -62 63 -72 -15
-7 -18 -14 -11 -25 22 -35 -5 -171 -31 -155 -4 3 -13 -4 -20 -17 -10 -18 -8
-24 11 -40 12 -10 28 -18 36 -18 16 0 19 -26 3 -35 -6 -4 -9 -21 -8 -39 2 -17
-1 -58 -5 -91 -6 -46 -15 -67 -37 -88 -24 -24 -30 -26 -48 -15 -23 14 -41 4
-23 -14 7 -7 12 -18 12 -26 0 -12 -3 -12 -15 -2 -13 10 -15 9 -15 -12 0 -18
12 -31 53 -55 28 -17 70 -34 92 -38 58 -10 115 -42 160 -91 l40 -43 322 -57
c284 -51 325 -56 347 -45 22 12 29 12 51 -3 25 -17 27 -17 46 8 25 31 33 32
59 6 11 -11 22 -15 25 -10 9 15 45 12 51 -4 3 -8 13 -12 24 -9 13 3 23 -4 33
-23 14 -27 15 -27 22 -5 8 28 36 24 50 -7 5 -12 17 -24 25 -27 37 -11 688 -95
738 -95 l22 0 0 870 0 870 -2400 0 -2400 0 0 -1800z"/>
<path d="M804 2553 l-52 -4 -20 -57 c-76 -212 -139 -444 -159 -586 -13 -90
-17 -194 -17 -406 0 -256 2 -295 22 -386 27 -126 88 -304 186 -548 42 -106 76
-205 76 -223 0 -26 -63 -240 -97 -331 -4 -9 76 -12 379 -12 l385 0 51 63 c28
34 66 78 84 97 18 19 62 67 97 105 36 39 160 167 275 285 137 140 234 248 276
308 36 52 83 119 106 149 62 84 55 98 -122 240 -79 62 -152 128 -163 147 -45
73 -19 181 78 325 38 55 40 62 34 109 -4 41 -2 58 16 87 23 40 30 88 9 67 -7
-7 -20 -12 -31 -12 -11 0 -22 -11 -29 -30 -7 -22 -13 -28 -22 -21 -9 7 -16 7
-24 -1 -9 -9 -12 -7 -12 10 0 13 -6 22 -15 22 -8 0 -15 8 -15 18 -1 16 -1 16
-11 0 -16 -29 -29 -21 -29 18 0 44 -15 36 -25 -13 l-8 -38 -7 33 c-5 21 -2 54
6 85 8 29 14 54 14 56 0 11 -33 -28 -61 -71 -18 -28 -35 -46 -36 -41 -2 6 10
44 26 86 16 43 27 77 24 77 -2 0 -13 -5 -25 -11 -29 -16 -31 -6 -6 26 18 23
19 27 6 22 -13 -4 -15 -2 -11 10 5 13 2 13 -20 -2 -15 -9 -27 -21 -27 -25 0
-4 -7 -10 -14 -13 -10 -4 -13 -1 -9 9 3 7 1 14 -3 14 -5 0 -10 16 -11 36 -1
20 -6 41 -12 47 -18 18 -143 36 -186 27 -41 -9 -59 -5 -37 9 21 13 -6 28 -93
52 -44 11 -212 59 -372 105 -349 101 -307 91 -369 87z"/>
<path d="M2980 1991 c0 -16 7 -34 15 -41 8 -6 17 -22 21 -33 4 -12 22 -44 42
-70 43 -60 61 -108 62 -169 0 -26 4 -58 10 -72 9 -25 9 -25 47 -9 21 9 137 47
257 84 120 37 223 72 228 77 10 10 1 110 -12 131 -6 10 -613 131 -657 131 -8
0 -13 -12 -13 -29z"/>
<path d="M3996 1806 c-35 -74 -109 -156 -193 -215 -52 -36 -446 -201 -568
-238 -61 -19 -133 -12 -182 17 -19 11 -35 20 -36 20 -1 0 0 -23 2 -51 2 -29
-2 -56 -8 -62 -6 -6 -11 -42 -11 -80 0 -69 1 -71 45 -118 46 -49 54 -75 34
-108 -16 -25 40 -130 134 -246 85 -107 162 -238 153 -261 -6 -17 -32 -16 -95
2 -21 6 -23 5 -17 -12 13 -33 64 -255 82 -356 l17 -98 724 0 723 0 0 839 c0
791 -1 840 -17 845 -36 11 -453 96 -593 121 -80 14 -152 28 -161 31 -11 3 -22
-6 -33 -30z"/>
<path d="M2326 1544 l-38 -46 48 -49 c52 -53 61 -57 71 -33 6 17 -27 174 -37
174 -3 0 -23 -21 -44 -46z"/>
</g>
</svg>
