<?xml version="1.0" standalone="no"?>
<!DOCTYPE svg PUBLIC "-//W3C//DTD SVG 20010904//EN"
 "http://www.w3.org/TR/2001/REC-SVG-20010904/DTD/svg10.dtd">
<svg version="1.0" xmlns="http://www.w3.org/2000/svg"
 width="480.000000pt" height="360.000000pt" viewBox="0 0 480.000000 360.000000"
 preserveAspectRatio="xMidYMid meet">
<metadata>
Created by potrace 1.16, written by Peter Selinger 2001-2019
</metadata>
<rect width="1" height="360" fill="#000000"/>
<rect x="479" width="1" height="360" fill="#000000"/>
<rect width="480" height="1" fill="#000000"/>
<rect y="359" width="480" height="1" fill="#000000"/>
<g transform="translate(0.000000,360.000000) scale(0.100000,-0.100000)"
fill="#000000" stroke="none">
<path d="M0 2331 l0 -1268 52 9 c259 41 833 98 1203 118 110 6 205 13 212 15
6 2 34 37 61 77 55 81 98 128 155 165 20 14 37 29 37 34 0 5 -22 20 -49 34
-27 13 -52 29 -56 35 -12 20 68 135 165 239 136 146 269 326 362 493 98 176
222 404 269 498 13 26 22 87 33 240 8 112 14 205 13 207 -1 1 -29 -11 -62 -27
-33 -16 -66 -30 -73 -30 -8 0 -40 -16 -71 -35 -108 -67 -175 -72 -278 -20
-105 52 -179 141 -224 270 -20 56 -27 154 -14 194 l6 21 -870 0 -871 0 0
-1269z"/>
<path d="M3196 3591 c-3 -5 -21 -16 -40 -25 -33 -15 -34 -19 -45 -98 -62 -448
-133 -890 -154 -958 -8 -25 -55 -112 -105 -194 -51 -81 -92 -150 -92 -152 0
-2 -21 -38 -46 -81 -112 -190 -195 -378 -244 -553 -35 -127 -70 -236 -94 -292
l-16 -37 33 -5 c17 -3 103 -10 190 -16 88 -6 216 -17 285 -26 69 -8 129 -11
133 -7 4 5 26 55 50 112 24 58 58 125 77 150 32 42 33 45 17 57 -70 52 -78 64
-71 117 8 55 53 171 115 295 113 225 198 538 276 1007 10 55 24 116 31 135 14
32 12 45 -42 240 -31 113 -65 235 -76 273 l-20 67 -78 0 c-44 0 -81 -4 -84 -9z"/>
<path d="M4400 3589 c-14 -6 -68 -19 -120 -30 -52 -10 -100 -21 -106 -23 -7
-3 -8 -24 -2 -68 61 -478 61 -502 3 -674 -55 -164 -135 -433 -170 -571 -51
-205 -53 -226 -79 -648 -5 -75 -41 -232 -59 -253 -6 -8 -28 -22 -49 -33 -39
-20 -39 -21 -32 -65 3 -24 9 -88 13 -142 l6 -97 130 -38 c270 -79 565 -188
853 -314 9 -4 12 296 12 1481 l0 1486 -187 -1 c-104 0 -199 -5 -213 -10z"/>
<path d="M1185 784 c-408 -26 -726 -59 -1108 -115 l-77 -11 0 -329 0 -329
2400 0 2401 0 -3 121 -3 120 -90 40 c-125 57 -364 147 -530 202 -279 92 -626
178 -683 170 -21 -4 -39 0 -50 10 -36 31 -58 30 -86 -8 -17 -22 -35 -35 -50
-35 -26 0 -66 38 -66 63 0 27 -18 20 -35 -13 -31 -59 -107 -43 -130 28 -6 17
-13 33 -16 36 -14 14 -591 66 -741 66 -44 0 -78 -4 -78 -10 0 -23 -50 -34
-160 -36 -88 -2 -121 1 -138 12 -21 14 -30 13 -87 -6 -55 -18 -69 -20 -106
-10 -36 10 -53 9 -99 -5 -52 -16 -59 -16 -88 -1 -17 9 -33 25 -37 36 -8 24
-32 24 -340 4z"/>
</g>
</svg>
