<?xml version="1.0" standalone="no"?>
<!DOCTYPE svg PUBLIC "-//W3C//DTD SVG 20010904//EN"
 "http://www.w3.org/TR/2001/REC-SVG-20010904/DTD/svg10.dtd">
<svg version="1.0" xmlns="http://www.w3.org/2000/svg"
 width="480.000000pt" height="360.000000pt" viewBox="0 0 480.000000 360.000000"
 preserveAspectRatio="xMidYMid meet">
<metadata>
Created by potrace 1.16, written by Peter Selinger 2001-2019
</metadata>
<rect width="1" height="360" fill="#000000"/>
<rect x="479" width="1" height="360" fill="#000000"/>
<rect width="480" height="1" fill="#000000"/>
<rect y="359" width="480" height="1" fill="#000000"/>
<g transform="translate(0.000000,360.000000) scale(0.100000,-0.100000)"
fill="#000000" stroke="none">
<path d="M0 1800 l0 -1800 293 0 292 1 65 90 c36 50 87 120 113 157 55 76 66
108 45 125 -8 7 -20 37 -27 67 -9 46 -9 61 3 85 16 32 23 167 12 202 -6 16 -3
23 12 27 23 8 32 33 32 93 0 49 -13 62 -28 28 -6 -13 -22 -31 -36 -40 -21 -14
-29 -15 -53 -3 -39 19 -74 84 -71 133 3 36 7 41 50 64 51 27 68 54 73 118 2
23 8 50 13 60 14 25 66 271 97 453 14 84 28 157 30 160 2 4 -17 5 -43 3 -60
-5 -83 8 -61 34 19 22 51 139 56 208 4 49 3 51 -46 99 -130 123 -198 416 -141
597 41 130 103 198 336 374 158 119 244 153 584 232 36 9 66 17 68 18 1 1 -4
42 -13 90 -8 49 -13 90 -10 93 2 2 55 -47 117 -111 62 -63 124 -118 138 -122
49 -15 143 -91 201 -162 32 -40 59 -77 59 -81 0 -5 11 -31 25 -59 13 -28 27
-64 31 -80 4 -15 10 -30 13 -33 3 -3 18 -21 33 -41 23 -31 38 -40 106 -58 65
-17 88 -19 131 -11 28 5 60 14 71 20 15 8 25 4 51 -17 18 -16 41 -27 51 -25
10 2 18 -3 18 -10 -1 -29 -39 -161 -55 -184 -18 -28 -39 -26 -88 9 -29 20 -29
20 -49 0 -19 -20 -19 -20 2 -84 12 -35 27 -70 33 -78 10 -11 8 -13 -9 -7 -20
6 -22 3 -21 -44 0 -28 -4 -55 -10 -58 -7 -4 -17 -20 -22 -35 -6 -16 -15 -25
-21 -22 -6 4 -10 -10 -10 -35 0 -29 -4 -40 -12 -37 -7 2 -18 -3 -25 -12 -11
-14 -12 -12 -13 11 0 15 -4 29 -9 32 -11 7 -38 -32 -47 -68 -3 -14 -10 -26
-14 -26 -16 0 -20 -34 -10 -98 6 -36 16 -72 22 -79 8 -10 7 -21 -3 -40 -12
-23 -11 -30 18 -84 36 -65 32 -75 -12 -29 -16 17 -32 30 -36 30 -3 0 -16 -28
-29 -62 -67 -190 -77 -200 -213 -197 -54 1 -103 -3 -108 -8 -6 -6 -9 -30 -7
-54 l3 -44 60 -12 c197 -42 244 -56 385 -116 129 -55 191 -102 124 -95 -51 6
-52 -22 -1 -107 30 -51 62 -129 93 -224 26 -80 48 -147 49 -149 1 -1 19 5 39
13 20 9 41 13 46 10 5 -3 -2 -29 -15 -58 -14 -28 -25 -57 -25 -63 0 -16 34
-24 103 -24 44 0 57 3 57 15 0 12 14 15 68 14 37 0 93 -4 124 -8 51 -6 59 -5
64 11 7 22 4 22 127 -3 77 -16 106 -18 119 -10 26 16 44 14 143 -18 67 -23 93
-27 103 -19 15 13 49 3 151 -45 47 -22 65 -26 71 -17 8 14 36 1 125 -55 30
-19 60 -32 71 -29 13 3 38 -12 77 -45 31 -27 67 -53 79 -56 49 -16 258 -258
258 -300 0 -6 -33 -27 -72 -47 l-73 -37 253 0 252 -1 0 1800 0 1800 -2400 0
-2400 0 0 -1800z m4330 989 c0 -11 -27 -12 -34 0 -3 4 -3 11 0 14 8 8 34 -3
34 -14z m-1231 -398 c67 -67 67 -149 -1 -98 -18 13 -54 34 -80 45 -53 23 -62
47 -24 62 13 5 27 14 31 19 12 20 35 11 74 -28z m-2713 -436 c3 -8 1 -46 -6
-85 -9 -51 -16 -70 -27 -70 -13 0 -14 8 -9 43 4 23 10 61 13 85 6 42 19 55 29
27z m4139 -156 c12 -19 -5 -23 -22 -6 -16 16 -16 17 -1 17 9 0 20 -5 23 -11z
m65 -209 c0 -5 -4 -10 -10 -10 -5 0 -10 5 -10 10 0 6 5 10 10 10 6 0 10 -4 10
-10z m-4386 -1241 c-27 -30 -37 -22 -12 12 12 16 24 25 26 19 2 -6 -4 -20 -14
-31z"/>
<path d="M2432 2360 c0 -14 2 -19 5 -12 2 6 2 18 0 25 -3 6 -5 1 -5 -13z"/>
<path d="M1510 1500 c-14 -27 -11 -31 18 -23 14 3 22 12 20 21 -5 24 -26 25
-38 2z"/>
<path d="M857 968 c-8 -18 -13 -34 -11 -36 7 -10 44 21 44 38 0 33 -19 32 -33
-2z"/>
</g>
</svg>
