<?xml version="1.0" standalone="no"?>
<!DOCTYPE svg PUBLIC "-//W3C//DTD SVG 20010904//EN"
 "http://www.w3.org/TR/2001/REC-SVG-20010904/DTD/svg10.dtd">
<svg version="1.0" xmlns="http://www.w3.org/2000/svg"
 width="480.000000pt" height="360.000000pt" viewBox="0 0 480.000000 360.000000"
 preserveAspectRatio="xMidYMid meet">
<metadata>
Created by potrace 1.16, written by Peter Selinger 2001-2019
</metadata>
<rect width="1" height="360" fill="#000000"/>
<rect x="479" width="1" height="360" fill="#000000"/>
<rect width="480" height="1" fill="#000000"/>
<rect y="359" width="480" height="1" fill="#000000"/>
<g transform="translate(0.000000,360.000000) scale(0.100000,-0.100000)"
fill="#000000" stroke="none">
<path d="M1597 3558 c13 -71 6 -307 -11 -406 -28 -158 -135 -413 -214 -508
-15 -18 -45 -56 -67 -84 -45 -58 -232 -230 -250 -230 -7 0 -20 -10 -31 -21
-17 -19 -88 -60 -184 -105 -34 -16 -143 -52 -245 -80 -121 -34 -449 -36 -549
-3 -16 5 -33 9 -37 9 -5 0 -9 -479 -9 -1065 l0 -1065 1310 0 1310 0 0 24 c0
79 57 320 120 511 68 206 84 278 164 702 31 162 33 185 21 220 -7 21 -16 68
-20 105 l-7 68 -44 19 c-89 40 -107 129 -46 230 39 63 35 64 -103 16 -127 -45
-153 -45 -162 -5 -7 39 -18 45 -48 26 -24 -16 -25 -15 -31 9 -3 14 -11 25 -18
25 -90 1 -258 27 -371 56 -77 20 -163 39 -191 44 -28 4 -69 17 -92 29 -48 24
-77 26 -112 6 -36 -21 -44 -18 -27 9 l16 24 -39 -5 c-41 -6 -50 3 -27 26 10
11 8 13 -10 8 -34 -8 -36 7 -7 38 25 27 28 28 107 22 56 -3 108 -15 164 -35
61 -23 119 -34 230 -46 81 -9 176 -21 211 -27 34 -6 82 -8 107 -5 37 6 46 12
51 32 5 18 11 23 23 18 42 -17 51 -16 60 9 13 34 26 36 106 16 78 -21 219 -25
277 -8 37 10 38 10 22 34 -14 22 -14 24 5 35 32 17 25 29 -13 23 -31 -5 -36
-2 -65 40 -17 25 -31 50 -31 55 0 6 -7 12 -15 16 -8 3 -15 12 -15 20 0 7 7 16
15 20 23 8 18 34 -7 42 -13 5 -26 7 -30 6 -13 -3 -48 51 -48 75 0 13 -4 22 -8
19 -23 -14 -7 58 22 107 l33 55 -28 53 c-51 93 -55 149 -9 149 32 0 263 -70
298 -91 18 -10 41 -19 51 -19 44 0 111 -34 162 -83 64 -61 93 -133 104 -257 4
-52 16 -96 38 -145 29 -64 32 -80 35 -190 l4 -120 64 -61 c66 -63 75 -86 49
-120 -18 -24 -19 -34 -2 -34 14 0 15 -34 3 -60 -4 -10 8 -47 29 -93 35 -76 36
-82 46 -260 6 -100 15 -207 20 -237 5 -30 14 -98 19 -150 7 -71 14 -98 27
-107 13 -10 14 -16 5 -25 -9 -9 -18 -6 -37 12 -30 28 -32 18 -6 -32 11 -19 17
-38 14 -42 -12 -12 -45 18 -64 57 l-19 42 6 -35 c4 -19 14 -50 22 -67 17 -36
11 -53 -13 -33 -9 7 -18 10 -21 7 -7 -7 45 -131 139 -332 81 -174 118 -268
146 -367 l18 -63 456 -3 457 -2 0 1800 0 1800 -1605 0 -1605 0 7 -42z"/>
<path d="M3461 1444 c0 -11 3 -14 6 -6 3 7 2 16 -1 19 -3 4 -6 -2 -5 -13z"/>
<path d="M3455 1398 c-4 -14 -2 -44 5 -66 6 -23 10 -81 9 -129 -1 -94 7 -135
22 -111 13 20 10 124 -6 228 -9 52 -18 96 -20 98 -2 2 -7 -7 -10 -20z"/>
</g>
</svg>
