<?xml version="1.0" standalone="no"?>
<!DOCTYPE svg PUBLIC "-//W3C//DTD SVG 20010904//EN"
 "http://www.w3.org/TR/2001/REC-SVG-20010904/DTD/svg10.dtd">
<svg version="1.0" xmlns="http://www.w3.org/2000/svg"
 width="480.000000pt" height="360.000000pt" viewBox="0 0 480.000000 360.000000"
 preserveAspectRatio="xMidYMid meet">
<metadata>
Created by potrace 1.16, written by Peter Selinger 2001-2019
</metadata>
<rect width="1" height="360" fill="#000000"/>
<rect x="479" width="1" height="360" fill="#000000"/>
<rect width="480" height="1" fill="#000000"/>
<rect y="359" width="480" height="1" fill="#000000"/>
<g transform="translate(0.000000,360.000000) scale(0.100000,-0.100000)"
fill="#000000" stroke="none">
<path d="M2259 3260 c-186 -32 -305 -195 -326 -450 -3 -44 -12 -82 -21 -92 -8
-10 -38 -24 -66 -33 -58 -17 -79 -33 -124 -91 -26 -34 -36 -40 -60 -36 -18 2
-33 -2 -42 -13 -13 -16 -11 -20 18 -45 23 -19 32 -35 32 -56 0 -38 17 -56 41
-44 14 8 29 0 73 -36 31 -25 56 -49 56 -55 0 -5 3 -8 8 -7 4 1 17 -3 30 -10
16 -10 22 -22 22 -49 0 -29 2 -33 14 -24 12 10 20 4 45 -33 43 -62 40 -86 -14
-134 -24 -21 -42 -42 -38 -46 3 -3 26 -6 51 -6 l45 0 -8 -47 c-8 -49 -13 -123
-8 -123 1 0 12 19 24 42 12 23 31 55 43 71 l21 29 6 -24 c4 -13 7 -44 8 -70 1
-55 16 -71 26 -28 4 17 11 27 16 24 6 -3 8 -13 5 -21 -5 -12 -1 -14 17 -11 20
4 30 -4 53 -38 16 -24 33 -44 37 -44 5 0 6 27 2 60 -4 33 -5 60 -3 60 3 0 24
-31 46 -69 37 -62 45 -100 23 -102 -3 0 -71 -4 -151 -8 -193 -11 -218 -19
-283 -95 -28 -34 -83 -94 -121 -133 -68 -71 -71 -73 -118 -73 -44 0 -54 4 -97
45 -26 24 -76 91 -111 147 -111 179 -134 211 -196 278 l-62 65 5 51 c4 33 1
54 -6 58 -19 12 -66 -25 -121 -94 -132 -165 -220 -256 -345 -354 -72 -56 -151
-115 -177 -130 -25 -16 -50 -37 -56 -47 -10 -15 -5 -18 41 -24 97 -12 106 -15
138 -58 106 -138 135 -141 214 -19 15 23 31 42 35 42 4 0 10 -23 14 -51 10
-73 32 -64 91 36 9 15 15 16 33 6 32 -17 92 -131 92 -175 0 -43 16 -53 61 -37
43 15 47 8 15 -29 -31 -38 -32 -40 -5 -74 16 -20 26 -25 45 -20 19 5 24 2 24
-12 0 -30 29 -54 60 -47 22 4 29 1 35 -16 3 -11 17 -24 31 -27 13 -3 24 -12
24 -20 0 -7 11 -21 25 -30 25 -16 25 -18 25 -153 1 -120 3 -141 23 -180 59
-120 211 -149 262 -51 9 17 18 30 22 30 8 0 -5 -135 -23 -240 -16 -93 -41
-143 -104 -211 -21 -24 -40 -47 -40 -51 0 -5 268 -8 596 -8 l596 0 -34 27
c-47 39 -48 41 -48 120 l0 71 30 7 c47 10 88 51 95 93 17 105 80 341 98 370 5
7 18 10 31 6 12 -3 34 0 50 6 26 9 28 14 22 45 -6 28 -4 35 9 35 8 0 15 5 15
10 0 6 -4 10 -8 10 -5 0 -14 11 -20 25 -10 23 -9 26 19 41 17 9 50 33 73 54
l42 39 74 -33 c99 -43 253 -140 403 -253 67 -51 131 -92 142 -92 11 -1 51 20
89 44 149 97 179 89 448 -115 l27 -21 20 45 c22 51 62 76 158 101 65 17 179
20 217 5 25 -9 26 -13 26 -85 0 -43 4 -75 10 -75 7 0 10 187 9 543 -1 298 -5
525 -9 504 -4 -21 -14 -45 -22 -54 -9 -8 -76 -32 -150 -53 -139 -40 -164 -51
-428 -186 -168 -87 -258 -114 -375 -114 -68 0 -103 6 -282 47 -92 21 -115 23
-128 13 -8 -7 -15 -18 -15 -26 0 -30 -28 -42 -72 -33 -122 27 -114 21 -122 97
-10 103 -34 193 -61 234 -27 40 -87 76 -170 101 -60 18 -218 97 -259 130 -24
19 -27 27 -19 42 10 17 11 17 22 -3 7 -12 16 -22 21 -22 5 0 23 28 40 63 l31
62 -3 -42 c-2 -24 -2 -43 0 -43 1 0 11 19 21 43 l19 42 7 -37 c7 -36 24 -52
26 -25 0 6 5 -4 11 -23 9 -32 11 -33 23 -17 10 13 14 15 17 5 6 -16 64 83 80
135 6 20 15 37 20 37 5 0 21 -20 36 -45 30 -50 38 -54 47 -25 6 19 8 19 28 5
36 -25 40 -17 13 29 -34 57 -34 82 0 90 l26 7 -26 34 c-33 43 -36 114 -6 152
13 17 17 33 14 53 -4 17 2 45 13 71 37 84 38 99 4 130 -34 30 -46 66 -37 104
6 25 39 35 50 16 3 -4 27 -14 53 -20 27 -7 61 -19 76 -28 16 -8 31 -12 34 -9
4 3 13 0 22 -7 23 -19 150 -59 163 -50 22 13 73 75 101 121 31 52 31 100 1
133 -10 11 -15 21 -13 23 2 3 47 7 99 11 52 3 104 7 115 9 28 4 31 34 5 61
-35 37 -140 243 -140 274 0 10 -3 21 -7 25 -10 9 -10 76 -1 76 11 0 3 63 -10
88 -12 21 -18 22 -94 17 -44 -2 -86 -10 -94 -16 -8 -6 -20 -9 -28 -6 -8 3 -26
-3 -41 -15 -14 -11 -29 -18 -32 -15 -5 5 -201 -91 -228 -112 -34 -26 -56 -19
-107 36 -61 64 -179 125 -272 142 -67 12 -457 13 -527 1z m-269 -1057 c0 -13
-4 -23 -9 -23 -10 0 -21 35 -21 70 l1 25 14 -25 c8 -14 14 -35 15 -47z"/>
</g>
</svg>
