<?xml version="1.0" standalone="no"?>
<!DOCTYPE svg PUBLIC "-//W3C//DTD SVG 20010904//EN"
 "http://www.w3.org/TR/2001/REC-SVG-20010904/DTD/svg10.dtd">
<svg version="1.0" xmlns="http://www.w3.org/2000/svg"
 width="480.000000pt" height="360.000000pt" viewBox="0 0 480.000000 360.000000"
 preserveAspectRatio="xMidYMid meet">
<metadata>
Created by potrace 1.16, written by Peter Selinger 2001-2019
</metadata>
<rect width="1" height="360" fill="#000000"/>
<rect x="479" width="1" height="360" fill="#000000"/>
<rect width="480" height="1" fill="#000000"/>
<rect y="359" width="480" height="1" fill="#000000"/>
<g transform="translate(0.000000,360.000000) scale(0.100000,-0.100000)"
fill="#000000" stroke="none">
<path d="M0 1800 l0 -1800 369 0 368 0 12 72 c7 40 15 107 18 149 l6 77 -37
12 c-24 8 -61 9 -109 5 -80 -8 -89 -3 -101 48 -13 55 -37 67 -135 67 -85 0
-90 1 -109 27 -19 27 -20 27 -47 9 -14 -10 -33 -15 -41 -12 -19 7 -18 61 3
121 12 35 13 50 5 53 -20 6 -13 31 11 43 23 12 66 58 67 72 0 4 -7 7 -16 7
-14 0 -13 5 5 33 11 17 25 32 31 32 17 0 39 35 33 52 -4 9 19 39 62 83 40 40
65 73 60 79 -4 7 30 67 78 139 74 111 177 297 177 319 0 5 -10 9 -22 9 -13 1
-33 5 -45 9 -21 7 -23 4 -23 -27 0 -19 -6 -42 -13 -52 -12 -16 -14 -16 -31 3
-42 46 -92 17 -130 -73 -8 -20 -22 -36 -30 -36 -8 0 -19 -8 -25 -18 -9 -16
-11 -16 -27 0 -12 12 -17 35 -18 91 -1 85 6 97 85 149 l48 30 -44 37 c-24 20
-47 44 -50 54 -8 21 -25 23 -25 3 0 -8 -8 -21 -18 -28 -11 -7 -21 -20 -25 -28
-4 -12 -6 -11 -6 3 -1 26 -17 21 -44 -14 l-24 -31 -20 28 c-11 16 -24 39 -27
52 -8 24 -26 30 -26 9 0 -16 -44 -60 -52 -51 -4 3 -9 -4 -13 -15 -11 -36 -23
-23 -27 32 -3 30 3 86 14 134 10 45 17 85 16 90 -8 29 72 194 150 312 48 71
61 100 85 195 40 160 46 264 17 357 -18 59 -21 86 -15 138 4 36 11 75 15 87
13 33 -6 45 -46 28 -41 -17 -74 -10 -104 21 -27 29 -21 53 27 113 32 39 34 45
23 72 -8 18 -34 41 -73 64 -34 20 -84 57 -110 83 -50 48 -57 71 -11 34 31 -25
46 -27 38 -6 -10 25 6 18 78 -35 38 -27 71 -50 74 -50 4 0 4 9 1 20 -7 29 2
25 36 -15 16 -19 36 -35 43 -35 7 0 35 14 61 30 57 36 92 38 127 5 30 -28 33
-51 10 -83 -23 -33 -12 -37 40 -17 34 13 64 16 118 13 72 -5 166 -35 140 -45
-10 -4 -6 -13 14 -34 24 -25 26 -34 22 -78 -5 -48 -4 -51 18 -51 18 0 24 -6
24 -23 0 -12 9 -47 20 -77 l20 -54 -31 -32 c-51 -52 -26 -92 115 -184 35 -23
67 -54 80 -76 11 -21 46 -57 76 -81 30 -23 74 -60 98 -81 50 -45 53 -73 21
-154 -18 -46 -20 -66 -15 -148 13 -209 34 -300 193 -850 24 -85 50 -173 58
-195 89 -263 93 -282 101 -461 7 -137 6 -142 -14 -153 -11 -6 -34 -11 -51 -11
-26 0 -37 -9 -67 -50 -43 -59 -65 -67 -149 -51 -76 14 -140 14 -164 1 -15 -7
-20 -27 -25 -102 -4 -51 -10 -114 -13 -140 l-6 -48 581 0 582 0 -10 26 c-6 14
-21 40 -35 59 -14 18 -28 43 -31 56 -3 13 -6 29 -7 34 -2 6 -5 15 -9 20 -3 6
-16 35 -27 65 -24 63 -81 150 -98 150 -6 0 -14 8 -16 18 -3 9 -10 39 -17 65
-7 26 -20 53 -29 60 -9 7 -22 34 -29 61 -7 27 -26 77 -42 110 -17 33 -30 68
-30 77 0 9 -11 28 -25 43 -14 15 -25 33 -25 40 0 7 -26 37 -57 68 -56 52 -87
87 -153 173 -17 22 -44 52 -62 67 -23 20 -33 39 -39 78 -4 28 -20 75 -35 105
-36 76 -44 170 -17 222 11 21 28 65 38 98 10 33 24 67 30 75 7 8 15 31 19 50
3 19 15 43 25 55 11 11 27 47 36 80 10 33 23 67 30 75 47 58 82 170 84 270 1
28 8 55 21 72 20 28 51 79 81 136 10 18 22 39 28 46 26 31 73 186 82 266 5 47
14 106 20 131 5 25 9 50 8 55 -1 5 1 52 5 104 7 83 5 103 -13 157 -17 51 -21
87 -21 198 l0 135 -1000 0 -1000 0 0 -1800z"/>
<path d="M903 1937 l-3 -102 25 40 c27 42 28 79 6 138 -19 48 -26 29 -28 -76z"/>
<path d="M716 1974 c-9 -23 -7 -36 4 -29 5 3 12 -7 16 -22 17 -76 21 -87 32
-91 9 -3 10 3 2 24 -6 15 -8 34 -6 41 6 16 -22 93 -34 93 -4 0 -11 -7 -14 -16z"/>
<path d="M701 1808 c4 -24 8 -46 9 -49 0 -4 9 -18 20 -32 27 -34 50 -25 50 20
0 28 -8 42 -37 69 -21 18 -41 34 -44 34 -4 0 -3 -19 2 -42z"/>
<path d="M968 243 c-23 -4 -30 -12 -39 -46 -6 -23 -19 -73 -30 -112 -10 -38
-19 -73 -19 -77 0 -5 26 -8 58 -8 90 0 107 32 94 170 -7 79 -9 82 -64 73z"/>
</g>
</svg>
