<?xml version="1.0" standalone="no"?>
<!DOCTYPE svg PUBLIC "-//W3C//DTD SVG 20010904//EN"
 "http://www.w3.org/TR/2001/REC-SVG-20010904/DTD/svg10.dtd">
<svg version="1.0" xmlns="http://www.w3.org/2000/svg"
 width="480.000000pt" height="360.000000pt" viewBox="0 0 480.000000 360.000000"
 preserveAspectRatio="xMidYMid meet">
<metadata>
Created by potrace 1.16, written by Peter Selinger 2001-2019
</metadata>
<rect width="1" height="360" fill="#000000"/>
<rect x="479" width="1" height="360" fill="#000000"/>
<rect width="480" height="1" fill="#000000"/>
<rect y="359" width="480" height="1" fill="#000000"/>
<g transform="translate(0.000000,360.000000) scale(0.100000,-0.100000)"
fill="#000000" stroke="none">
<path d="M0 1800 l0 -1800 1070 0 c739 0 1070 3 1070 10 0 6 7 70 15 143 22
195 46 517 39 528 -3 5 -19 16 -35 24 -16 9 -27 20 -23 26 3 6 -2 17 -12 25
-14 11 -16 17 -6 20 6 3 10 10 7 14 -3 5 8 35 24 67 27 52 32 79 52 263 l22
205 -28 112 c-27 103 -28 117 -17 165 7 29 16 69 21 88 4 19 18 54 30 78 12
23 17 42 11 42 -18 0 -10 49 11 63 16 12 22 30 26 75 l6 59 -47 33 c-26 19
-45 40 -44 49 2 10 -5 16 -19 16 -30 1 -70 24 -89 53 -13 19 -18 22 -25 11 -5
-9 -9 21 -9 76 0 112 17 153 89 217 112 100 216 125 321 77 59 -28 121 -92
158 -164 31 -63 70 -199 91 -325 11 -63 31 -162 44 -220 14 -58 31 -152 37
-210 6 -58 18 -159 25 -225 15 -126 22 -287 30 -721 6 -274 10 -310 65 -542
l32 -132 929 0 929 0 0 1069 0 1068 -57 18 c-159 49 -335 155 -470 281 -224
208 -345 429 -404 734 -19 101 -21 135 -16 273 l6 157 -1929 0 -1930 0 0
-1800z"/>
<path d="M2372 1985 c0 -16 2 -22 5 -12 2 9 2 23 0 30 -3 6 -5 -1 -5 -18z"/>
</g>
</svg>
