<?xml version="1.0" standalone="no"?>
<!DOCTYPE svg PUBLIC "-//W3C//DTD SVG 20010904//EN"
 "http://www.w3.org/TR/2001/REC-SVG-20010904/DTD/svg10.dtd">
<svg version="1.0" xmlns="http://www.w3.org/2000/svg"
 width="480.000000pt" height="360.000000pt" viewBox="0 0 480.000000 360.000000"
 preserveAspectRatio="xMidYMid meet">
<metadata>
Created by potrace 1.16, written by Peter Selinger 2001-2019
</metadata>
<rect width="1" height="360" fill="#000000"/>
<rect x="479" width="1" height="360" fill="#000000"/>
<rect width="480" height="1" fill="#000000"/>
<rect y="359" width="480" height="1" fill="#000000"/>
<g transform="translate(0.000000,360.000000) scale(0.100000,-0.100000)"
fill="#000000" stroke="none">
<path d="M0 2900 c0 -697 0 -700 20 -700 12 0 121 11 243 25 437 49 514 55
700 55 180 0 187 1 187 20 0 27 14 25 33 -4 13 -19 30 -26 89 -36 109 -17 174
-37 265 -82 l83 -41 57 13 c81 20 174 83 207 142 20 35 39 53 78 72 29 14 60
26 70 26 14 0 18 8 18 35 0 19 -4 35 -10 35 -5 0 -10 9 -10 20 0 10 -7 23 -16
28 -28 16 -9 64 34 87 34 19 37 24 35 60 -1 22 -2 67 -4 100 -3 96 45 211 115
272 18 17 60 43 92 59 52 25 70 29 149 29 73 0 100 -5 140 -23 92 -43 158
-123 228 -279 36 -83 42 -101 26 -93 -25 14 -25 -10 0 -66 10 -23 22 -57 25
-75 l7 -34 -18 30 -18 30 -3 -49 c-2 -26 4 -69 12 -94 14 -40 14 -47 1 -62 -8
-9 -15 -21 -15 -26 0 -6 -7 -19 -16 -30 -12 -15 -15 -16 -10 -2 9 28 -17 26
-48 -4 -16 -16 -34 -27 -42 -24 -7 3 -17 -1 -23 -8 -19 -23 12 -76 72 -120
146 -109 293 -229 309 -254 45 -67 40 -149 -17 -277 -28 -65 -31 -120 -11
-230 9 -53 19 -77 40 -98 24 -24 26 -32 21 -70 -4 -29 0 -69 14 -122 11 -44
47 -216 80 -382 61 -304 111 -518 157 -670 l25 -83 714 0 715 0 0 1800 0 1800
-2400 0 -2400 0 0 -700z m1093 -2 l-11 -23 -10 25 c-6 17 -6 32 1 45 10 19 10
19 20 -3 7 -15 7 -29 0 -44z m2637 -436 c0 -10 -45 -32 -65 -32 -27 0 -16 17
18 28 42 13 47 14 47 4z m-551 -906 c33 -18 59 -46 42 -46 -18 0 -66 26 -80
44 -17 21 0 21 38 2z m1213 -503 c10 -9 18 -20 18 -25 0 -11 -49 24 -50 35 0
12 12 8 32 -10z m-64 -190 c-10 -2 -26 -2 -35 0 -10 3 -2 5 17 5 19 0 27 -2
18 -5z m183 -255 c34 -36 64 -88 51 -88 -5 0 -30 27 -55 60 -50 64 -48 81 4
28z"/>
<path d="M2614 2340 c-21 -31 -24 -44 -16 -52 13 -13 34 1 38 24 1 7 5 25 9
41 10 38 0 34 -31 -13z"/>
<path d="M2150 2050 c0 -5 4 -10 8 -10 20 0 92 -87 120 -143 55 -114 79 -285
48 -345 -8 -15 -26 -34 -39 -41 -49 -26 -127 36 -109 87 2 6 19 19 38 28 29
14 34 21 34 51 0 56 -20 120 -46 144 -13 12 -24 30 -24 40 0 24 -29 29 -65 11
-41 -20 -41 -19 -14 -41 l24 -20 -25 -2 c-14 -1 -47 -1 -75 0 l-50 2 33 -28
c18 -15 32 -31 32 -34 0 -4 -21 -2 -47 3 -27 5 -60 7 -75 4 -37 -7 -103 18
-144 54 -34 30 -46 34 -117 44 -31 4 -53 -3 -115 -34 -42 -21 -104 -46 -137
-55 -84 -23 -421 -32 -574 -15 -178 18 -422 50 -430 54 -4 3 -38 7 -76 11 -39
3 -77 7 -85 10 -16 4 -217 35 -232 35 -4 0 -8 -418 -8 -930 l0 -930 618 0 618
0 40 43 c29 30 41 52 43 75 6 117 132 227 334 293 123 40 364 157 435 212 31
25 91 80 132 123 69 73 98 106 225 267 26 31 43 62 40 67 -4 6 -10 8 -14 6 -4
-3 -13 -1 -20 3 -8 6 -3 10 16 14 28 5 53 39 53 70 0 13 -31 49 -69 79 -11 10
-23 35 -27 58 -7 45 -18 57 -54 62 -31 4 -38 39 -16 73 9 13 16 41 16 62 0 20
10 97 22 170 l22 133 -39 113 c-21 61 -42 118 -48 125 -12 15 -177 17 -177 2z
m-470 -456 c12 -31 12 -34 0 -34 -5 0 -16 14 -25 30 -14 27 -14 30 0 30 9 0
20 -12 25 -26z m-84 -368 c18 -14 18 -15 -11 -26 -22 -8 -36 -8 -55 0 -24 11
-24 12 -5 26 24 18 46 18 71 0z m469 -228 c35 -16 31 -28 -8 -28 -31 0 -57 14
-57 32 0 12 35 10 65 -4z m-1520 -490 c-4 -13 -22 -39 -41 -58 l-34 -35 0 30
c0 18 10 40 27 57 33 35 57 37 48 6z m991 -113 c-11 -8 -27 -15 -35 -15 -13 1
-12 4 3 15 11 8 27 15 35 15 13 -1 12 -4 -3 -15z"/>
</g>
</svg>
