<?xml version="1.0" standalone="no"?>
<!DOCTYPE svg PUBLIC "-//W3C//DTD SVG 20010904//EN"
 "http://www.w3.org/TR/2001/REC-SVG-20010904/DTD/svg10.dtd">
<svg version="1.0" xmlns="http://www.w3.org/2000/svg"
 width="480.000000pt" height="360.000000pt" viewBox="0 0 480.000000 360.000000"
 preserveAspectRatio="xMidYMid meet">
<metadata>
Created by potrace 1.16, written by Peter Selinger 2001-2019
</metadata>
<rect width="1" height="360" fill="#000000"/>
<rect x="479" width="1" height="360" fill="#000000"/>
<rect width="480" height="1" fill="#000000"/>
<rect y="359" width="480" height="1" fill="#000000"/>
<g transform="translate(0.000000,360.000000) scale(0.100000,-0.100000)"
fill="#000000" stroke="none">
<path d="M0 2260 c0 -805 4 -1340 9 -1340 15 0 18 22 7 62 -7 27 -6 59 3 113
24 146 42 163 126 126 53 -23 127 -28 142 -8 6 6 19 34 29 62 20 53 78 118
153 170 24 17 60 43 82 58 21 16 58 34 81 41 l43 12 7 269 c4 148 6 271 4 273
-2 2 -30 6 -62 9 -43 4 -86 20 -156 55 -54 27 -98 52 -98 55 0 4 10 17 22 30
16 17 21 34 20 63 -3 39 -3 40 40 46 29 5 54 19 80 43 l39 36 -59 61 c-74 78
-89 111 -73 163 6 22 9 45 6 53 -12 32 48 71 160 104 23 7 38 25 70 86 140
268 296 316 880 268 110 -9 151 -17 194 -36 29 -13 60 -24 68 -24 28 0 114
-51 156 -93 43 -42 98 -117 110 -148 3 -10 35 -26 74 -39 70 -23 97 -39 77
-47 -6 -2 -19 -10 -29 -17 -20 -14 -19 -19 28 -126 19 -42 19 -45 2 -77 -10
-17 -28 -42 -41 -54 -13 -12 -24 -29 -24 -36 0 -23 39 -92 75 -132 61 -67 56
-122 -13 -145 -88 -30 -94 -49 -68 -206 8 -47 17 -141 21 -210 3 -69 8 -152
12 -185 6 -54 8 -82 12 -176 0 -14 15 -44 32 -65 80 -100 135 -260 125 -361
-5 -49 -2 -73 14 -115 27 -71 26 -117 -5 -162 -29 -42 -35 -125 -11 -145 28
-23 25 -57 -8 -90 -17 -18 -39 -37 -49 -44 -17 -12 -17 -18 4 -132 12 -66 21
-162 22 -212 l1 -93 1233 0 1233 0 0 1800 0 1800 -2400 0 -2400 0 0 -1340z"/>
<path d="M503 2718 c-24 -12 -43 -28 -43 -36 0 -19 78 -81 103 -82 12 0 34 59
39 100 3 33 1 35 -27 37 -16 1 -49 -7 -72 -19z"/>
<path d="M0 281 l0 -281 135 0 c74 0 135 3 135 8 0 4 -56 123 -125 266 -69
142 -125 262 -125 267 0 4 -4 11 -10 14 -7 4 -10 -90 -10 -274z"/>
<path d="M550 125 c0 -8 5 -15 10 -15 6 0 10 7 10 15 0 8 -4 15 -10 15 -5 0
-10 -7 -10 -15z"/>
</g>
</svg>
