<?xml version="1.0" standalone="no"?>
<!DOCTYPE svg PUBLIC "-//W3C//DTD SVG 20010904//EN"
 "http://www.w3.org/TR/2001/REC-SVG-20010904/DTD/svg10.dtd">
<svg version="1.0" xmlns="http://www.w3.org/2000/svg"
 width="480.000000pt" height="360.000000pt" viewBox="0 0 480.000000 360.000000"
 preserveAspectRatio="xMidYMid meet">
<metadata>
Created by potrace 1.16, written by Peter Selinger 2001-2019
</metadata>
<rect width="1" height="360" fill="#000000"/>
<rect x="479" width="1" height="360" fill="#000000"/>
<rect width="480" height="1" fill="#000000"/>
<rect y="359" width="480" height="1" fill="#000000"/>
<g transform="translate(0.000000,360.000000) scale(0.100000,-0.100000)"
fill="#000000" stroke="none">
<path d="M0 2185 l0 -1415 140 0 c77 0 140 1 141 3 0 1 4 74 8 162 7 137 6
161 -7 171 -13 9 -9 21 24 85 39 74 39 74 88 81 27 4 52 11 55 16 3 5 15 11
26 14 18 3 20 11 20 97 0 88 1 93 25 106 14 8 33 14 42 15 31 0 53 73 26 82
-9 3 -7 14 6 42 10 20 22 36 27 34 6 -2 9 -6 7 -10 -2 -3 6 -15 16 -27 18 -20
18 -22 2 -40 -16 -17 -16 -25 -6 -56 10 -29 21 -40 56 -55 43 -19 54 -33 34
-45 -5 -3 -10 -39 -10 -78 l0 -72 43 -18 c23 -9 51 -17 62 -17 33 0 43 -12 75
-89 25 -61 28 -77 18 -89 -9 -10 -14 -63 -16 -158 -4 -166 -9 -160 111 -149
l73 7 1 114 2 114 58 95 c32 52 63 94 68 95 6 0 36 -46 68 -103 56 -102 57
-104 57 -184 l0 -81 63 -6 c34 -3 183 -13 331 -22 l270 -15 45 -39 c25 -21 62
-54 80 -74 19 -20 39 -36 45 -36 6 0 7 79 3 213 l-7 214 52 81 c29 45 58 80
63 79 6 -2 32 -39 60 -82 l50 -78 -4 -534 -3 -533 1206 0 1206 0 0 1800 0
1800 -2400 0 -2400 0 0 -1415z m3060 643 c12 -13 20 -35 20 -57 0 -43 15 -101
32 -124 8 -10 47 -23 102 -34 110 -22 126 -39 79 -83 -18 -17 -39 -30 -47 -30
-22 0 -20 -34 4 -55 29 -26 25 -32 -17 -27 -33 4 -36 3 -25 -10 10 -13 9 -17
-9 -21 -18 -5 -20 -9 -10 -21 10 -12 7 -14 -21 -13 l-32 2 -3 -60 c-1 -33 -4
-68 -7 -77 -3 -14 4 -12 37 9 60 38 147 74 159 67 15 -9 0 -72 -28 -121 -13
-23 -24 -43 -24 -45 0 -3 24 -3 53 -1 90 7 227 8 227 2 0 -3 -11 -12 -25 -19
-31 -17 -20 -32 36 -49 31 -9 39 -15 30 -24 -20 -20 -12 -26 39 -33 60 -8 72
-20 30 -29 -38 -8 -38 -19 -1 -35 16 -6 37 -20 47 -31 17 -19 16 -19 -29 -13
-56 8 -61 -5 -20 -48 23 -24 24 -28 9 -28 -16 0 -17 -2 -5 -16 12 -15 10 -16
-21 -10 -31 5 -32 5 -13 -5 13 -7 21 -20 20 -32 -1 -15 8 -23 38 -33 50 -18
73 -40 32 -30 -19 4 -26 3 -22 -4 8 -13 6 -13 -45 5 -23 8 -44 15 -46 15 -2 0
-1 -7 2 -15 4 -9 0 -15 -7 -15 -26 0 14 -20 41 -20 14 0 32 -5 40 -11 11 -8 0
-9 -42 -6 -46 5 -56 3 -51 -9 3 -8 -1 -14 -8 -14 -10 0 -10 -3 -1 -12 22 -22
13 -29 -18 -13 -44 23 -53 19 -35 -15 20 -38 12 -38 -25 0 -38 39 -70 40 -70
2 0 -29 -20 -82 -32 -82 -3 0 -4 10 0 22 3 14 2 19 -6 14 -8 -5 -12 0 -12 14
0 15 -14 26 -56 45 -31 14 -58 25 -60 25 -2 0 2 -14 8 -30 20 -58 -25 -119
-78 -106 -28 7 -36 25 -54 119 -11 58 -16 70 -41 82 -56 30 -66 23 -94 -69
-31 -101 -42 -114 -78 -86 -18 14 -28 34 -32 64 -5 32 -13 46 -30 54 -18 9
-25 8 -29 -4 -4 -11 -16 -4 -47 28 -41 42 -42 43 -52 20 -13 -28 -32 -23 -33
9 0 14 -10 35 -22 47 -31 31 -29 60 6 68 47 10 52 13 59 31 12 36 55 84 91
102 32 16 40 27 50 68 17 64 7 109 -28 130 -23 13 -29 25 -33 62 -3 25 -8 58
-12 73 -5 19 0 36 19 64 26 39 35 71 16 59 -6 -4 -10 9 -10 32 0 69 -20 80
-127 69 -26 -2 -43 0 -43 6 0 6 -7 16 -17 23 -22 16 -13 26 44 54 62 31 59 28
38 51 -21 23 -11 25 24 6 23 -12 28 -11 58 13 19 14 45 51 59 81 37 82 68 110
120 110 32 0 49 -6 64 -22z"/>
<path d="M2819 1840 c-17 -14 -20 -19 -9 -20 8 0 21 9 28 20 15 25 11 25 -19
0z"/>
<path d="M2825 1680 c3 -5 8 -10 11 -10 2 0 4 5 4 10 0 6 -5 10 -11 10 -5 0
-7 -4 -4 -10z"/>
<path d="M3520 1645 c35 -20 62 -19 36 0 -11 8 -29 15 -40 15 -19 -1 -19 -2 4
-15z"/>
</g>
</svg>
