<?xml version="1.0" standalone="no"?>
<!DOCTYPE svg PUBLIC "-//W3C//DTD SVG 20010904//EN"
 "http://www.w3.org/TR/2001/REC-SVG-20010904/DTD/svg10.dtd">
<svg version="1.0" xmlns="http://www.w3.org/2000/svg"
 width="480.000000pt" height="360.000000pt" viewBox="0 0 480.000000 360.000000"
 preserveAspectRatio="xMidYMid meet">
<metadata>
Created by potrace 1.16, written by Peter Selinger 2001-2019
</metadata>
<rect width="1" height="360" fill="#000000"/>
<rect x="479" width="1" height="360" fill="#000000"/>
<rect width="480" height="1" fill="#000000"/>
<rect y="359" width="480" height="1" fill="#000000"/>
<g transform="translate(0.000000,360.000000) scale(0.100000,-0.100000)"
fill="#000000" stroke="none">
<path d="M0 1800 l0 -1800 1000 0 c550 0 1000 2 1000 5 0 4 -7 19 -15 36 -27
52 -39 233 -27 387 7 76 12 185 12 243 0 57 5 131 10 164 10 58 9 61 -15 78
-25 19 -25 19 -25 186 0 210 18 357 56 455 9 23 -1 21 -126 -23 -113 -41 -143
-40 -186 3 -19 19 -34 44 -34 56 0 21 39 105 124 263 30 57 34 71 24 87 -7 11
-21 20 -33 22 -14 2 -4 11 38 31 32 16 65 40 74 54 17 25 16 26 -13 50 -16 14
-71 61 -122 105 l-93 80 -23 -21 -22 -20 -27 25 c-15 13 -29 35 -31 47 -3 12
-8 35 -11 51 -9 44 -60 86 -104 86 -26 0 -40 6 -50 21 -11 19 -10 25 8 50 l21
29 -50 64 c-68 86 -71 109 -27 183 19 32 41 71 49 88 9 20 28 35 61 49 45 19
50 19 75 4 23 -14 27 -25 30 -67 2 -28 0 -51 -5 -51 -4 0 -18 12 -31 28 l-23
27 17 -28 c14 -23 15 -33 5 -53 -12 -28 -5 -48 29 -79 12 -11 28 -32 36 -47
10 -19 19 -25 30 -21 15 5 16 0 10 -40 -6 -40 -4 -47 14 -57 28 -15 81 -26
136 -29 20 -1 25 -33 9 -51 -14 -16 -6 -23 107 -101 68 -46 142 -101 165 -122
36 -34 188 -105 199 -94 2 2 9 41 15 87 5 46 12 87 15 92 3 4 1 8 -5 8 -5 0
-13 -4 -16 -10 -12 -19 -24 -10 -31 25 -3 19 -13 39 -21 44 -10 5 -12 11 -5
15 6 4 8 27 5 59 -9 86 47 175 139 223 28 15 29 17 23 69 -7 50 -5 54 19 70
25 17 55 17 98 0 12 -5 21 2 34 27 28 56 43 69 68 56 40 -20 66 -51 60 -70 -7
-22 7 -23 47 -3 35 19 49 13 49 -21 0 -28 8 -33 75 -42 66 -10 86 -39 94 -135
5 -59 12 -83 36 -118 32 -48 54 -114 55 -169 0 -19 -21 -94 -46 -167 l-46
-132 15 -51 15 -52 -23 6 c-27 7 -39 -6 -53 -54 -10 -34 -10 -32 -11 25 -2 70
-12 59 -31 -33 -7 -34 -17 -65 -23 -69 -6 -4 -8 2 -5 15 4 12 2 22 -3 22 -5 0
-9 12 -9 28 0 15 -5 34 -11 42 -8 11 -9 6 -5 -23 4 -33 3 -37 -13 -32 -15 4
-20 -1 -25 -30 -6 -30 -10 -34 -21 -25 -24 20 -34 2 -28 -53 8 -74 -24 -179
-112 -372 -40 -88 -76 -170 -79 -182 -8 -27 20 -75 62 -105 68 -50 218 -187
229 -209 6 -13 17 -40 24 -59 7 -19 24 -52 37 -72 28 -44 27 -92 -5 -157 l-19
-38 53 -144 c58 -159 103 -293 128 -381 l16 -58 894 0 895 0 0 1800 0 1800
-2400 0 -2400 0 0 -1800z"/>
<path d="M2030 1955 c0 -24 2 -25 43 -19 54 9 55 10 18 28 -44 23 -61 20 -61
-9z"/>
<path d="M2522 930 c12 -16 23 -28 26 -26 7 7 -17 43 -33 50 -11 4 -9 -3 7
-24z"/>
<path d="M2658 755 c-3 -3 5 -31 18 -63 13 -31 24 -63 24 -71 0 -8 3 -12 6 -9
4 5 -34 148 -40 148 -2 0 -5 -2 -8 -5z"/>
<path d="M2724 550 c3 -14 19 -86 35 -160 32 -151 70 -285 78 -277 12 13 -95
440 -114 457 -3 3 -3 -6 1 -20z"/>
</g>
</svg>
