<?xml version="1.0" standalone="no"?>
<!DOCTYPE svg PUBLIC "-//W3C//DTD SVG 20010904//EN"
 "http://www.w3.org/TR/2001/REC-SVG-20010904/DTD/svg10.dtd">
<svg version="1.0" xmlns="http://www.w3.org/2000/svg"
 width="480.000000pt" height="360.000000pt" viewBox="0 0 480.000000 360.000000"
 preserveAspectRatio="xMidYMid meet">
<metadata>
Created by potrace 1.16, written by Peter Selinger 2001-2019
</metadata>
<rect width="1" height="360" fill="#000000"/>
<rect x="479" width="1" height="360" fill="#000000"/>
<rect width="480" height="1" fill="#000000"/>
<rect y="359" width="480" height="1" fill="#000000"/>
<g transform="translate(0.000000,360.000000) scale(0.100000,-0.100000)"
fill="#000000" stroke="none">
<path d="M0 1800 l0 -1800 948 0 948 0 33 83 c19 45 64 147 102 227 65 137 69
150 78 250 17 168 31 473 29 630 -3 275 -3 274 16 308 l17 33 -67 62 c-37 34
-73 76 -80 94 -20 48 -18 120 6 158 20 32 20 32 0 50 -19 17 -19 17 2 45 12
17 34 31 54 35 40 7 41 12 14 115 -21 81 -25 156 -10 180 8 12 18 6 58 -33
l48 -48 32 40 c31 39 51 51 135 85 l37 15 0 635 0 636 -1200 0 -1200 0 0
-1800z"/>
<path d="M2443 2336 l-42 -21 -1 -1157 0 -1158 371 0 371 0 -17 27 c-10 16
-41 51 -70 80 -33 33 -52 61 -52 75 0 13 -22 77 -49 143 l-48 120 0 170 c0
238 12 271 61 170 30 -60 36 -60 74 2 18 28 19 38 10 61 -6 15 -25 33 -41 41
-24 10 -30 19 -30 44 0 37 -21 115 -44 169 -20 46 -12 146 12 156 15 5 152
-26 209 -49 41 -17 76 -2 94 41 13 29 16 31 49 24 19 -5 64 -8 99 -8 l65 -1
48 -115 c122 -286 103 -256 181 -295 38 -19 78 -35 88 -35 29 0 88 40 104 69
16 32 6 53 -94 201 -125 185 -162 249 -155 275 13 51 -4 93 -50 124 -33 23
-53 49 -81 105 -40 81 -48 86 -131 86 -39 0 -57 -5 -77 -23 -33 -28 -34 -47
-5 -96 l22 -38 -26 -31 c-15 -18 -29 -27 -35 -21 -5 5 -69 15 -143 24 -73 8
-138 19 -143 24 -5 5 8 21 35 39 63 44 135 121 153 166 28 68 -1 160 -65 206
-23 16 -30 30 -32 63 -3 44 -4 45 -61 31 l-27 -6 6 139 c9 193 -10 225 -82
138 l-37 -46 -26 24 c-56 53 -80 61 -172 63 -48 1 -96 7 -107 13 -29 15 -60
12 -109 -13z m637 -494 c56 -55 54 -77 -16 -142 -31 -28 -83 -64 -115 -81 -67
-33 -69 -30 -46 49 l13 43 37 -26 c46 -30 47 -30 40 -5 -3 11 -1 20 4 20 10 0
10 3 19 108 3 39 10 72 15 72 4 0 26 -17 49 -38z m-300 -283 c0 -5 -7 -9 -15
-9 -15 0 -20 12 -9 23 8 8 24 -1 24 -14z m100 -890 c0 -77 -4 -118 -10 -114
-6 4 -10 55 -10 121 0 69 4 114 10 114 6 0 10 -47 10 -121z"/>
<path d="M2050 1750 c0 -24 33 -66 77 -98 41 -31 73 -37 73 -12 0 14 -17 13
-23 -2 -2 -7 -7 -10 -11 -6 -4 3 -3 15 3 26 6 12 11 32 11 46 0 21 -5 26 -24
26 -14 0 -28 5 -31 10 -5 8 -11 8 -19 1 -9 -7 -19 -6 -34 5 -14 10 -22 11 -22
4z"/>
<path d="M2226 1656 c-3 -13 -8 -31 -12 -39 -3 -8 1 -17 9 -20 11 -4 13 0 10
14 -4 13 0 19 11 19 19 0 20 9 2 33 -13 16 -14 16 -20 -7z"/>
</g>
</svg>
