<?xml version="1.0" standalone="no"?>
<!DOCTYPE svg PUBLIC "-//W3C//DTD SVG 20010904//EN"
 "http://www.w3.org/TR/2001/REC-SVG-20010904/DTD/svg10.dtd">
<svg version="1.0" xmlns="http://www.w3.org/2000/svg"
 width="480.000000pt" height="360.000000pt" viewBox="0 0 480.000000 360.000000"
 preserveAspectRatio="xMidYMid meet">
<metadata>
Created by potrace 1.16, written by Peter Selinger 2001-2019
</metadata>
<rect width="1" height="360" fill="#000000"/>
<rect x="479" width="1" height="360" fill="#000000"/>
<rect width="480" height="1" fill="#000000"/>
<rect y="359" width="480" height="1" fill="#000000"/>
<g transform="translate(0.000000,360.000000) scale(0.100000,-0.100000)"
fill="#000000" stroke="none">
<path d="M1292 2932 c-14 -20 -18 -32 -11 -44 6 -11 4 -30 -5 -55 -24 -63 -26
-134 -6 -168 10 -16 22 -29 27 -28 6 1 21 -9 34 -23 21 -22 22 -26 7 -41 -15
-14 -13 -20 22 -67 21 -28 48 -61 59 -74 22 -24 19 -48 -7 -57 -10 -3 -27 -14
-40 -24 -22 -19 -22 -20 -5 -50 18 -30 17 -31 -4 -46 -28 -20 -114 -131 -107
-138 3 -3 -3 -14 -14 -25 -12 -12 -23 -41 -27 -71 -8 -59 9 -95 51 -111 34
-13 42 -43 34 -131 -5 -54 -13 -85 -28 -107 -12 -16 -22 -34 -22 -39 0 -5 -6
-15 -12 -21 -7 -7 -13 -32 -13 -55 -1 -23 -12 -67 -27 -99 -18 -38 -23 -58
-15 -61 8 -2 7 -24 -6 -78 -39 -170 -104 -717 -112 -949 -6 -183 -13 -301 -21
-342 l-6 -28 477 0 477 0 -6 27 c-24 121 -78 465 -91 583 -9 80 -23 183 -31
230 -24 132 -102 420 -135 498 -15 35 -16 42 -4 42 22 0 19 6 -31 67 -54 67
-53 75 11 171 54 80 57 113 21 223 -19 58 -22 78 -13 97 9 20 8 27 -6 37 -18
13 -17 22 8 80 7 17 12 46 10 66 -5 60 -37 193 -51 213 -19 28 2 57 33 45 32
-12 33 -12 33 9 0 9 12 28 25 41 14 13 25 18 25 12 0 -9 5 -9 20 -1 11 6 20
17 20 25 0 25 23 65 38 65 10 0 12 7 8 23 -4 12 -13 51 -22 87 -9 36 -22 72
-30 81 -8 8 -14 25 -14 37 0 26 -121 164 -158 182 -52 24 -135 24 -210 1 -86
-26 -92 -26 -92 -1 0 30 -35 25 -58 -8z"/>
</g>
</svg>
