<?xml version="1.0" standalone="no"?>
<!DOCTYPE svg PUBLIC "-//W3C//DTD SVG 20010904//EN"
 "http://www.w3.org/TR/2001/REC-SVG-20010904/DTD/svg10.dtd">
<svg version="1.0" xmlns="http://www.w3.org/2000/svg"
 width="480.000000pt" height="360.000000pt" viewBox="0 0 480.000000 360.000000"
 preserveAspectRatio="xMidYMid meet">
<metadata>
Created by potrace 1.16, written by Peter Selinger 2001-2019
</metadata>
<rect width="1" height="360" fill="#000000"/>
<rect x="479" width="1" height="360" fill="#000000"/>
<rect width="480" height="1" fill="#000000"/>
<rect y="359" width="480" height="1" fill="#000000"/>
<g transform="translate(0.000000,360.000000) scale(0.100000,-0.100000)"
fill="#000000" stroke="none">
<path d="M0 1800 l0 -1800 878 0 877 0 43 63 c28 42 42 73 42 95 0 35 50 174
94 260 21 42 26 65 26 128 0 119 -29 476 -42 504 l-10 25 -9 -22 c-5 -13 -15
-23 -23 -23 -25 0 -30 63 -11 135 14 50 15 69 7 77 -21 21 -13 67 28 163 22
52 40 99 40 105 0 6 18 30 40 54 34 37 40 50 40 89 0 43 1 45 33 51 l34 6 -71
73 c-40 40 -86 100 -104 135 -30 55 -33 71 -31 125 2 34 0 68 -4 74 -11 18 33
73 58 73 12 0 30 6 40 14 19 14 19 15 -5 24 -80 31 -111 47 -121 59 -9 10 -8
13 4 13 8 0 20 14 26 30 12 35 21 37 46 10 10 -11 29 -20 43 -20 20 0 23 4 18
23 -16 57 -36 223 -30 251 10 49 21 58 53 42 14 -8 39 -28 55 -45 l29 -30 47
34 c27 20 71 40 101 47 44 10 63 22 107 66 l52 54 0 419 0 419 -1200 0 -1200
0 0 -1800z"/>
<path d="M2400 1375 l0 -1375 326 0 325 0 -42 61 c-31 43 -43 72 -45 102 -2
23 -24 94 -50 157 l-47 115 8 215 c4 118 10 276 14 350 l7 135 23 -48 c12 -27
28 -46 34 -44 25 8 31 66 14 136 -10 38 -17 85 -17 105 0 20 -13 62 -28 94
-16 31 -39 82 -51 113 -12 31 -36 69 -52 85 -23 22 -29 36 -29 72 0 35 -4 45
-20 49 -11 3 -20 8 -20 11 0 3 35 42 79 86 157 162 170 273 41 357 -55 36 -56
37 -37 63 11 15 18 16 34 7 24 -12 36 -2 46 39 10 41 -3 51 -46 38 -20 -6 -39
-9 -41 -7 -2 2 4 45 15 94 26 122 29 219 8 241 -20 19 -41 11 -101 -44 -36
-32 -41 -34 -50 -19 -14 25 -78 64 -129 77 -30 8 -56 26 -89 61 -88 94 -80
227 -80 -1326z m435 684 c4 -5 19 -7 34 -4 23 5 29 1 39 -20 17 -37 15 -53
-13 -101 -25 -43 -158 -164 -180 -164 -29 0 -33 23 -13 69 11 25 24 57 29 70
9 23 10 23 25 5 11 -14 17 -16 21 -6 4 10 10 9 25 -5 20 -18 20 -17 16 17 -2
25 1 34 10 32 15 -3 10 22 -13 68 -18 36 1 71 20 39z m-246 -279 c1 13 41 -51
41 -65 0 -3 -17 -5 -39 -5 -34 0 -39 3 -44 28 -3 17 1 34 11 45 16 18 17 18
23 0 6 -13 8 -14 8 -3z m234 -1211 c-3 -12 -9 -17 -15 -11 -10 10 0 44 12 37
5 -3 6 -14 3 -26z"/>
<path d="M1980 2085 c-6 -7 -21 -15 -33 -17 -13 -2 -25 -14 -31 -31 -14 -38
17 -97 90 -176 65 -71 91 -88 107 -72 13 13 -3 88 -17 83 -5 -2 -18 11 -29 30
-12 18 -22 35 -25 38 -2 3 -12 -6 -22 -20 l-20 -25 0 32 c0 26 -3 31 -16 26
-15 -5 -15 -3 0 24 33 64 30 149 -4 108z"/>
<path d="M2226 1795 c4 -11 4 -17 -1 -13 -9 9 -55 -53 -48 -64 11 -19 31 -5
48 32 15 32 16 43 6 53 -10 9 -11 8 -5 -8z"/>
<path d="M1990 638 c0 -65 13 -76 38 -35 l20 35 -29 21 -29 22 0 -43z"/>
</g>
</svg>
