<?xml version="1.0" standalone="no"?>
<!DOCTYPE svg PUBLIC "-//W3C//DTD SVG 20010904//EN"
 "http://www.w3.org/TR/2001/REC-SVG-20010904/DTD/svg10.dtd">
<svg version="1.0" xmlns="http://www.w3.org/2000/svg"
 width="480.000000pt" height="360.000000pt" viewBox="0 0 480.000000 360.000000"
 preserveAspectRatio="xMidYMid meet">
<metadata>
Created by potrace 1.16, written by Peter Selinger 2001-2019
</metadata>
<rect width="1" height="360" fill="#000000"/>
<rect x="479" width="1" height="360" fill="#000000"/>
<rect width="480" height="1" fill="#000000"/>
<rect y="359" width="480" height="1" fill="#000000"/>
<g transform="translate(0.000000,360.000000) scale(0.100000,-0.100000)"
fill="#000000" stroke="none">
<path d="M0 1800 l0 -1800 984 0 984 0 6 38 c3 20 13 118 21 217 19 231 23
263 42 360 16 78 19 113 27 305 2 52 9 113 14 135 11 37 4 135 -12 175 -3 8
-10 87 -15 175 -8 154 -10 163 -41 225 -44 85 -44 136 -3 311 46 197 75 261
150 337 34 35 54 60 44 57 -12 -3 -34 4 -56 20 -21 14 -43 25 -49 25 -6 0 -17
9 -24 20 -7 11 -23 20 -35 20 -34 0 -38 9 -22 41 8 15 12 35 9 43 -8 22 -48
30 -83 18 -25 -9 -34 -7 -54 8 -13 11 -27 17 -30 14 -3 -3 -11 11 -17 32 l-13
37 -13 -24 c-12 -22 -13 -19 -14 41 0 36 5 103 11 150 8 70 16 91 43 129 l33
46 -33 60 c-36 64 -43 95 -20 95 7 0 20 7 27 16 14 17 81 16 123 -1 17 -7 18
-4 11 36 -3 24 -11 59 -17 77 -13 43 -6 49 30 23 34 -24 42 -19 42 24 0 17 6
39 13 49 13 17 15 17 44 2 59 -30 178 -134 206 -179 18 -28 41 -50 60 -57 68
-25 100 -46 136 -89 112 -134 186 -315 236 -571 9 -47 47 -164 85 -260 79
-204 82 -215 109 -340 27 -125 31 -185 12 -185 -9 0 -19 -19 -26 -52 -7 -29
-17 -59 -24 -67 -9 -11 -9 -27 4 -74 22 -86 20 -97 -31 -218 -25 -60 -56 -145
-68 -189 -23 -78 -23 -85 -15 -355 4 -151 13 -360 19 -465 5 -104 10 -200 10
-212 l0 -23 990 0 990 0 0 1800 0 1800 -2400 0 -2400 0 0 -1800z"/>
<path d="M2081 1413 c1 -97 8 -134 27 -141 18 -6 16 149 -2 193 -8 19 -17 35
-20 35 -4 0 -6 -39 -5 -87z"/>
</g>
</svg>
