<?xml version="1.0" standalone="no"?>
<!DOCTYPE svg PUBLIC "-//W3C//DTD SVG 20010904//EN"
 "http://www.w3.org/TR/2001/REC-SVG-20010904/DTD/svg10.dtd">
<svg version="1.0" xmlns="http://www.w3.org/2000/svg"
 width="480.000000pt" height="360.000000pt" viewBox="0 0 480.000000 360.000000"
 preserveAspectRatio="xMidYMid meet">
<metadata>
Created by potrace 1.16, written by Peter Selinger 2001-2019
</metadata>
<rect width="1" height="360" fill="#000000"/>
<rect x="479" width="1" height="360" fill="#000000"/>
<rect width="480" height="1" fill="#000000"/>
<rect y="359" width="480" height="1" fill="#000000"/>
<g transform="translate(0.000000,360.000000) scale(0.100000,-0.100000)"
fill="#000000" stroke="none">
<path d="M2217 2604 c-177 -32 -347 -93 -492 -177 -77 -45 -112 -68 -290 -197
-253 -183 -468 -314 -608 -370 -111 -44 -208 -67 -380 -89 -82 -11 -151 -22
-154 -25 -3 -2 17 -7 44 -11 242 -33 377 -75 573 -177 74 -39 257 -133 405
-208 149 -76 308 -157 355 -182 275 -144 555 -218 822 -218 368 0 630 101
1078 413 437 305 537 348 843 364 64 3 117 9 117 13 0 4 -39 15 -87 24 -198
39 -229 53 -753 341 -435 239 -784 415 -900 452 -186 62 -398 79 -573 47z
m328 -339 c87 -23 172 -73 240 -140 205 -203 207 -530 5 -736 -251 -256 -683
-190 -843 129 -47 94 -61 166 -54 274 18 276 239 485 517 487 42 1 102 -6 135
-14z"/>
</g>
</svg>
