<?xml version="1.0" standalone="no"?>
<!DOCTYPE svg PUBLIC "-//W3C//DTD SVG 20010904//EN"
 "http://www.w3.org/TR/2001/REC-SVG-20010904/DTD/svg10.dtd">
<svg version="1.0" xmlns="http://www.w3.org/2000/svg"
 width="480.000000pt" height="360.000000pt" viewBox="0 0 480.000000 360.000000"
 preserveAspectRatio="xMidYMid meet">
<metadata>
Created by potrace 1.16, written by Peter Selinger 2001-2019
</metadata>
<rect width="1" height="360" fill="#000000"/>
<rect x="479" width="1" height="360" fill="#000000"/>
<rect width="480" height="1" fill="#000000"/>
<rect y="359" width="480" height="1" fill="#000000"/>
<g transform="translate(0.000000,360.000000) scale(0.100000,-0.100000)"
fill="#000000" stroke="none">
<path d="M0 1800 l0 -1800 2400 0 2400 0 0 779 0 779 -35 6 c-19 4 -41 17 -50
29 -19 28 -19 91 0 107 35 29 21 38 -134 80 -85 23 -111 78 -72 151 l20 36
-39 12 c-76 23 -106 106 -61 170 13 18 20 36 15 40 -5 5 -72 36 -149 70 -184
81 -189 83 -270 124 -38 19 -91 42 -117 52 -26 10 -53 24 -59 31 -6 8 -20 14
-30 14 -17 0 -125 47 -377 166 -50 24 -94 44 -97 44 -8 0 -269 117 -362 163
-51 25 -109 51 -130 57 -21 7 -97 41 -169 76 -72 35 -135 64 -140 64 -9 0
-142 62 -254 119 -41 21 -100 47 -130 56 -30 10 -76 33 -102 51 -27 18 -63 38
-82 44 -19 6 -37 17 -40 25 -5 14 34 139 68 218 l16 37 -1010 0 -1010 0 0
-1800z m2030 884 c0 -24 20 -25 46 -5 33 26 118 29 152 5 17 -12 35 -14 72 -9
54 7 60 2 33 -27 -16 -18 -16 -22 -2 -46 14 -26 14 -28 -16 -57 -29 -29 -30
-32 -27 -107 3 -73 5 -78 26 -78 13 0 31 -8 40 -19 18 -20 86 -146 86 -160 0
-4 -25 -42 -55 -84 -54 -76 -54 -76 -33 -91 l22 -15 -24 -52 -24 -51 34 -66
c19 -36 43 -74 53 -85 13 -12 17 -28 14 -45 -4 -19 8 -54 38 -117 24 -49 52
-113 63 -142 20 -52 20 -52 0 -59 -13 -4 -17 -11 -13 -22 12 -29 10 -47 -4
-44 -24 5 -56 -6 -82 -28 -14 -13 -33 -20 -46 -17 -14 3 -30 -4 -44 -19 -20
-21 -21 -32 -21 -193 0 -150 -2 -171 -18 -186 -19 -17 -64 -12 -77 8 -9 14 -7
247 3 270 12 33 -10 38 -48 12 -42 -29 -74 -31 -114 -10 -54 28 -71 21 -84
-37 -7 -29 -13 -84 -13 -122 1 -77 -8 -96 -41 -96 -41 0 -96 21 -106 40 -10
20 -5 28 43 66 9 8 15 36 16 80 1 38 6 73 12 79 14 14 11 45 -6 45 -10 0 -15
10 -15 30 0 19 -6 33 -16 37 -24 9 -12 87 36 229 44 131 48 159 25 150 -18 -6
-20 20 -5 60 7 19 7 37 0 60 -9 26 -8 52 4 115 14 72 14 85 1 117 -9 19 -14
36 -13 37 2 1 13 7 24 13 15 8 26 28 33 59 10 44 11 62 9 134 0 26 47 109 63
109 5 0 9 33 9 74 0 73 0 74 -36 101 -28 21 -35 33 -31 52 3 17 -3 29 -21 43
-25 20 -22 25 23 32 15 2 21 12 23 43 3 37 5 39 18 21 8 -11 14 -25 14 -32z"/>
<path d="M2300 2153 l0 -58 20 25 c26 34 34 71 18 81 -30 20 -38 9 -38 -48z"/>
<path d="M2401 1694 c0 -11 3 -14 6 -6 3 7 2 16 -1 19 -3 4 -6 -2 -5 -13z"/>
<path d="M3560 3579 c14 -11 58 -48 99 -82 41 -34 89 -73 107 -87 18 -14 68
-54 111 -90 44 -36 149 -121 233 -190 84 -69 223 -183 309 -253 164 -134 254
-208 334 -271 l47 -38 0 516 0 516 -632 0 -633 -1 25 -20z"/>
</g>
</svg>
