<?xml version="1.0" standalone="no"?>
<!DOCTYPE svg PUBLIC "-//W3C//DTD SVG 20010904//EN"
 "http://www.w3.org/TR/2001/REC-SVG-20010904/DTD/svg10.dtd">
<svg version="1.0" xmlns="http://www.w3.org/2000/svg"
 width="480.000000pt" height="360.000000pt" viewBox="0 0 480.000000 360.000000"
 preserveAspectRatio="xMidYMid meet">
<metadata>
Created by potrace 1.16, written by Peter Selinger 2001-2019
</metadata>
<rect width="1" height="360" fill="#000000"/>
<rect x="479" width="1" height="360" fill="#000000"/>
<rect width="480" height="1" fill="#000000"/>
<rect y="359" width="480" height="1" fill="#000000"/>
<g transform="translate(0.000000,360.000000) scale(0.100000,-0.100000)"
fill="#000000" stroke="none">
<path d="M2320 3580 c0 -15 -7 -20 -25 -20 -34 0 -41 -22 -18 -60 16 -27 16
-32 3 -40 -28 -17 -36 -25 -110 -110 -40 -47 -80 -89 -88 -94 -8 -4 -30 -6
-49 -3 -44 8 -51 -9 -28 -69 13 -35 14 -49 6 -57 -9 -9 -22 -1 -52 31 -45 47
-59 47 -59 -1 0 -22 -7 -36 -21 -45 -12 -8 -19 -22 -18 -35 1 -12 -2 -30 -6
-41 -12 -27 7 -69 36 -83 14 -7 40 -30 58 -53 l32 -40 -12 -58 c-21 -96 -16
-232 15 -382 16 -74 32 -139 37 -145 15 -16 10 -32 -13 -40 -13 -4 -27 -6 -33
-5 -5 2 -21 2 -34 1 -14 0 -35 6 -49 15 -20 13 -29 14 -55 3 -37 -15 -47 -26
-47 -56 0 -16 -8 -23 -32 -28 -54 -11 -75 -31 -129 -122 -54 -92 -138 -201
-222 -290 -65 -68 -74 -82 -82 -124 -8 -46 37 -135 85 -167 57 -38 105 -23
269 87 103 68 145 88 219 100 40 6 78 12 84 14 14 3 14 -14 4 -185 -7 -126
-12 -147 -53 -265 -50 -143 -57 -186 -31 -191 10 -2 30 -16 47 -31 26 -24 27
-29 15 -46 -9 -12 -12 -30 -9 -46 4 -19 -4 -48 -29 -98 -47 -96 -64 -163 -107
-426 -21 -131 -62 -325 -74 -357 -7 -17 29 -18 669 -18 744 0 691 -5 662 62
-8 18 -38 94 -66 168 -102 268 -203 516 -232 571 -16 31 -52 83 -79 115 -27
32 -49 61 -49 64 0 3 14 32 30 64 17 32 30 64 30 71 0 7 24 64 54 126 81 171
89 224 61 393 -9 61 -11 95 -4 108 12 22 18 22 47 3 12 -9 44 -19 72 -22 34
-4 63 -15 88 -34 20 -16 66 -50 102 -76 36 -26 67 -50 70 -53 13 -17 107 -74
153 -95 116 -52 149 -45 272 55 104 85 163 124 272 179 99 49 123 73 123 121
0 13 10 21 32 25 46 11 68 27 68 51 0 11 8 28 18 37 22 20 82 13 111 -14 34
-32 151 -89 182 -89 45 0 104 35 119 69 45 110 -80 210 -169 135 -32 -27 -61
-26 -61 1 0 8 5 15 10 15 19 0 11 69 -10 90 -16 16 -33 20 -80 20 -49 0 -62 3
-66 18 -15 47 -52 68 -77 43 -8 -8 -14 -1 -22 26 -9 32 -16 39 -40 41 -40 5
-53 -17 -47 -79 6 -63 -15 -65 -32 -4 -6 21 -18 42 -27 48 -23 15 -49 1 -49
-25 0 -13 -5 -30 -10 -38 -8 -13 -14 -10 -33 14 -18 22 -28 27 -45 22 -12 -4
-22 -14 -22 -22 0 -10 -7 -13 -22 -9 -13 3 -90 14 -173 25 -82 11 -195 27
-250 35 -55 8 -156 21 -225 30 -69 9 -134 20 -145 24 -16 7 5 24 127 104 80
52 216 137 302 188 86 51 156 98 156 104 0 7 -5 26 -11 44 -9 25 -16 31 -39
31 -16 0 -32 -5 -35 -10 -12 -19 -179 -127 -335 -215 -85 -48 -197 -112 -249
-141 l-94 -54 7 40 c8 49 35 120 46 120 5 0 10 -8 12 -17 2 -10 15 13 28 52
13 38 29 75 36 82 38 39 24 197 -26 300 l-31 62 20 39 c11 22 32 53 47 71 15
18 23 38 20 46 -3 9 2 34 11 56 18 47 9 78 -32 105 -23 15 -27 15 -51 -1 -25
-16 -27 -16 -63 9 -20 14 -44 26 -53 26 -8 0 -29 14 -47 31 -27 26 -37 29 -64
24 -18 -4 -38 -12 -44 -17 -9 -7 -34 3 -85 34 -40 25 -81 48 -90 51 -15 5 -18
18 -18 67 l0 60 -40 0 c-33 0 -40 -3 -40 -20z m1133 -888 c-2 -11 -74 -61
-166 -118 -193 -118 -198 -121 -217 -130 -8 -4 -26 -15 -40 -24 -41 -28 -160
-92 -160 -87 0 3 42 31 93 63 50 32 181 116 291 186 109 70 200 128 201 128 2
0 1 -8 -2 -18z m247 -618 c0 -27 -135 -171 -232 -248 l-48 -38 -97 88 c-54 48
-99 91 -101 96 -2 4 52 8 120 8 147 0 187 9 209 49 13 22 28 31 65 39 61 12
84 14 84 6z"/>
</g>
</svg>
