<?xml version="1.0" standalone="no"?>
<!DOCTYPE svg PUBLIC "-//W3C//DTD SVG 20010904//EN"
 "http://www.w3.org/TR/2001/REC-SVG-20010904/DTD/svg10.dtd">
<svg version="1.0" xmlns="http://www.w3.org/2000/svg"
 width="480.000000pt" height="360.000000pt" viewBox="0 0 480.000000 360.000000"
 preserveAspectRatio="xMidYMid meet">
<metadata>
Created by potrace 1.16, written by Peter Selinger 2001-2019
</metadata>
<rect width="1" height="360" fill="#000000"/>
<rect x="479" width="1" height="360" fill="#000000"/>
<rect width="480" height="1" fill="#000000"/>
<rect y="359" width="480" height="1" fill="#000000"/>
<g transform="translate(0.000000,360.000000) scale(0.100000,-0.100000)"
fill="#000000" stroke="none">
<path d="M0 1800 l0 -1800 870 0 870 0 19 37 c11 21 34 58 50 83 20 29 31 58
31 80 0 36 47 171 94 270 21 45 26 70 26 134 0 132 -21 470 -31 480 -5 5 -14
4 -22 -3 -11 -9 -17 -8 -27 5 -16 18 -17 59 -3 130 7 40 7 56 -4 70 -22 30
-15 66 33 191 32 83 55 127 76 147 27 25 31 35 29 72 -2 48 6 56 64 64 35 4
40 9 43 34 2 15 1 38 -2 50 -5 19 -11 21 -40 18 -48 -6 -86 20 -180 119 -107
111 -146 199 -113 255 35 61 64 82 127 95 l62 12 -6 36 c-30 178 -29 271 5
271 6 0 30 -21 54 -47 l43 -46 37 36 c43 42 109 67 177 67 27 0 64 7 83 14
l35 15 0 -1345 0 -1344 330 0 331 0 -17 32 c-10 18 -32 55 -51 82 -24 34 -33
59 -33 87 0 24 -19 88 -46 157 l-47 117 8 235 c4 129 10 289 14 355 l6 120 23
-43 c26 -48 41 -50 55 -7 7 20 5 47 -7 95 -9 37 -16 85 -16 106 0 20 -13 67
-29 103 -16 36 -41 91 -54 123 -14 31 -37 64 -51 73 -22 15 -26 25 -26 65 0
52 -9 60 -77 60 -29 0 -33 3 -33 28 0 59 7 67 54 64 53 -5 83 10 160 80 79 70
143 158 151 207 9 54 -15 101 -66 132 -22 13 -47 30 -55 38 -8 7 -23 11 -33 8
-40 -10 -43 5 -22 110 22 105 25 143 15 181 -9 33 -23 28 -81 -30 -29 -29 -53
-47 -53 -41 0 17 -72 84 -107 99 -17 7 -58 16 -90 20 -32 3 -79 16 -105 28
l-47 21 -1 448 0 447 -1200 0 -1200 0 0 -1800z m2961 407 c65 -43 45 -105 -65
-200 -58 -50 -76 -57 -76 -31 0 10 6 14 14 11 9 -4 12 0 9 13 -3 10 2 29 11
41 8 13 18 43 22 67 6 40 4 45 -27 73 -23 20 -27 28 -14 24 47 -17 54 -16 64
4 15 26 20 26 62 -2z m-177 -230 c34 -27 28 -47 -13 -47 -38 0 -52 16 -39 46
14 30 16 30 52 1z m-169 -157 c7 -43 25 -45 25 -4 0 14 4 22 10 19 6 -3 10
-22 10 -41 0 -33 -1 -34 -43 -34 -40 0 -44 2 -56 37 -13 34 -12 37 10 54 30
22 36 18 44 -31z m210 -1218 c-6 -24 -7 -25 -17 -8 -7 13 -7 26 3 45 10 22 13
23 17 8 2 -10 1 -31 -3 -45z"/>
<path d="M1868 2240 c-74 -40 -55 -114 54 -215 61 -57 78 -66 78 -40 0 8 -7
15 -15 15 -18 0 -18 8 0 40 18 32 18 40 1 40 -7 0 -19 7 -27 16 -8 10 -21 13
-37 9 -17 -4 -28 0 -38 12 -20 26 -18 30 30 58 57 33 70 49 54 63 -26 21 -63
22 -100 2z"/>
<path d="M2017 1988 c-15 -31 -15 -33 4 -40 30 -12 62 8 50 31 -6 10 -16 23
-24 29 -12 10 -17 6 -30 -20z"/>
<path d="M2190 1832 l-14 -54 -11 39 -11 38 -11 -42 c-6 -23 -8 -45 -5 -48 3
-3 25 -5 49 -5 40 0 45 3 60 35 13 28 14 37 3 50 -7 8 -18 15 -25 15 -8 0 -15
6 -18 13 -2 6 -10 -12 -17 -41z"/>
<path d="M1990 680 l0 -85 31 49 30 48 -23 27 c-12 14 -26 30 -30 36 -5 5 -8
-29 -8 -75z"/>
</g>
</svg>
