<?xml version="1.0" standalone="no"?>
<!DOCTYPE svg PUBLIC "-//W3C//DTD SVG 20010904//EN"
 "http://www.w3.org/TR/2001/REC-SVG-20010904/DTD/svg10.dtd">
<svg version="1.0" xmlns="http://www.w3.org/2000/svg"
 width="480.000000pt" height="360.000000pt" viewBox="0 0 480.000000 360.000000"
 preserveAspectRatio="xMidYMid meet">
<metadata>
Created by potrace 1.16, written by Peter Selinger 2001-2019
</metadata>
<rect width="1" height="360" fill="#000000"/>
<rect x="479" width="1" height="360" fill="#000000"/>
<rect width="480" height="1" fill="#000000"/>
<rect y="359" width="480" height="1" fill="#000000"/>
<g transform="translate(0.000000,360.000000) scale(0.100000,-0.100000)"
fill="#000000" stroke="none">
<path d="M0 2210 l0 -1390 38 16 c576 251 1256 412 2052 484 178 16 167 12
180 72 6 29 16 56 23 60 9 5 6 11 -8 22 -61 44 -58 37 -39 86 10 25 54 106 98
180 89 150 141 265 228 510 33 91 66 181 73 201 10 25 17 128 24 340 l10 304
-21 23 -22 22 -45 -44 c-64 -63 -110 -77 -241 -74 -97 3 -110 5 -147 30 -62
41 -98 121 -98 218 0 84 13 116 72 181 44 49 100 79 146 79 46 0 97 27 97 51
0 18 -27 19 -1210 19 l-1210 0 0 -1390z"/>
<path d="M4670 3591 c0 -6 5 -13 10 -16 11 -7 87 -106 107 -140 10 -17 12 -5
13 73 l0 92 -65 0 c-36 0 -65 -4 -65 -9z"/>
<path d="M3220 3089 c-41 -22 -78 -44 -83 -48 -4 -4 -20 -126 -36 -272 -55
-492 -48 -451 -108 -594 -93 -221 -160 -436 -178 -565 -8 -63 -20 -144 -25
-179 -6 -35 -8 -66 -5 -70 4 -3 94 -9 201 -13 107 -4 202 -9 212 -12 27 -9 36
4 65 84 15 41 36 86 47 100 l18 24 -39 37 -39 36 14 46 c7 25 42 99 76 164 95
180 133 298 235 733 19 83 19 104 -5 236 -20 109 -20 109 -67 151 -27 24 -52
43 -58 43 -5 0 -41 31 -80 70 l-70 69 -75 -40z"/>
<path d="M4060 2646 l0 -174 -49 -123 c-103 -262 -152 -444 -171 -634 -16
-166 -38 -257 -66 -273 -13 -7 -13 -19 2 -98 21 -116 20 -114 41 -114 20 -1
249 -76 331 -109 l53 -21 8 23 c5 12 28 78 51 147 l43 125 -7 152 c-8 193 -30
406 -61 598 -13 83 -33 220 -44 305 -27 211 -35 243 -82 311 -22 32 -42 59
-44 59 -3 0 -5 -78 -5 -174z"/>
<path d="M2782 1070 c-23 -24 -30 -25 -155 -29 -278 -7 -273 -7 -296 13 -18
16 -30 18 -103 12 -120 -10 -397 -44 -513 -62 -55 -8 -129 -20 -165 -25 -229
-34 -712 -149 -920 -219 -97 -33 -294 -107 -365 -137 -144 -61 -158 -68 -209
-94 l-51 -26 -3 -251 -2 -252 2063 0 2064 0 9 138 c11 181 11 226 -4 362 -11
108 -7 209 13 327 5 30 3 34 -37 52 -64 30 -280 98 -390 123 -91 21 -98 21
-116 5 -25 -22 -38 -21 -64 5 -14 14 -23 17 -26 10 -2 -6 -12 -22 -22 -34 -18
-23 -19 -23 -53 -5 -26 14 -40 16 -54 9 -24 -13 -79 11 -95 42 -15 29 -14 29
-37 17 -16 -9 -22 -7 -34 9 -15 22 -83 29 -297 33 -111 2 -116 1 -138 -23z"/>
</g>
</svg>
