<?xml version="1.0" standalone="no"?>
<!DOCTYPE svg PUBLIC "-//W3C//DTD SVG 20010904//EN"
 "http://www.w3.org/TR/2001/REC-SVG-20010904/DTD/svg10.dtd">
<svg version="1.0" xmlns="http://www.w3.org/2000/svg"
 width="480.000000pt" height="360.000000pt" viewBox="0 0 480.000000 360.000000"
 preserveAspectRatio="xMidYMid meet">
<metadata>
Created by potrace 1.16, written by Peter Selinger 2001-2019
</metadata>
<rect width="1" height="360" fill="#000000"/>
<rect x="479" width="1" height="360" fill="#000000"/>
<rect width="480" height="1" fill="#000000"/>
<rect y="359" width="480" height="1" fill="#000000"/>
<g transform="translate(0.000000,360.000000) scale(0.100000,-0.100000)"
fill="#000000" stroke="none">
<path d="M3549 3550 c-12 -48 -14 -50 -48 -50 -63 -1 -125 -20 -165 -52 -32
-25 -42 -29 -55 -19 -84 61 -116 71 -237 78 -104 6 -152 -2 -313 -55 -103 -33
-117 -40 -135 -71 -21 -36 -29 -127 -13 -148 11 -16 -6 -48 -59 -104 -23 -26
-56 -73 -72 -105 -32 -64 -97 -248 -106 -303 -6 -33 -5 -34 13 -17 18 16 19
14 23 -61 5 -91 28 -143 88 -203 22 -22 46 -56 54 -75 9 -20 22 -43 31 -51 9
-10 13 -24 10 -35 -4 -11 2 -33 14 -53 26 -41 27 -122 6 -310 -13 -125 -13
-130 5 -154 15 -18 20 -41 21 -86 0 -33 4 -92 8 -131 4 -38 4 -83 -1 -100 -41
-141 -108 -403 -108 -424 0 -33 -25 -113 -50 -161 -16 -32 -17 -49 -9 -190 5
-94 16 -184 28 -228 14 -53 16 -74 8 -77 -135 -45 -496 -197 -588 -247 l-36
-20 -44 22 c-24 13 -65 42 -90 65 -82 77 -135 93 -224 70 -76 -20 -127 -54
-162 -106 l-27 -41 -26 31 c-15 17 -30 31 -33 31 -14 0 -7 -28 14 -53 l20 -27
-35 -35 c-20 -20 -36 -40 -36 -45 0 -7 450 -10 1245 -10 685 0 1245 3 1245 8
0 4 -7 46 -17 94 -9 49 -13 91 -10 95 4 3 46 -9 95 -28 l87 -35 -3 -67 -4 -67
451 0 451 0 -21 42 c-59 117 -110 191 -191 274 -97 100 -114 132 -134 249
l-13 80 35 31 35 32 -37 6 c-37 7 -38 12 -19 58 5 12 1 17 -17 20 -37 6 -60
-10 -103 -69 -35 -48 -62 -73 -78 -73 -15 0 -217 371 -217 398 0 10 -6 26 -14
37 -27 40 -40 159 -20 195 13 25 13 24 7 -9 -5 -27 -3 -32 7 -26 10 6 12 -2 7
-44 -3 -29 -2 -49 3 -46 18 11 99 133 132 200 69 136 117 437 130 800 3 64 5
70 26 73 31 5 92 67 92 95 -1 34 -35 102 -96 189 -38 54 -62 101 -74 146 -10
37 -22 75 -25 85 -6 14 -2 17 16 15 36 -4 45 39 37 183 -10 184 -71 442 -143
605 l-24 54 -250 0 -249 0 -13 -50z m-574 -1735 c11 -30 16 -57 12 -61 -4 -4
-51 -15 -104 -25 -54 -10 -110 -26 -125 -34 -27 -16 -28 -15 -28 7 0 16 9 27
31 37 26 11 29 17 24 42 -4 16 -4 42 0 59 7 30 6 30 99 45 16 2 31 7 34 10 12
11 40 -28 57 -80z m790 -1447 c4 -11 -5 -27 -27 -47 -18 -17 -36 -31 -40 -31
-12 0 -9 32 8 90 l16 54 19 -25 c10 -13 21 -32 24 -41z"/>
</g>
</svg>
