<?xml version="1.0" standalone="no"?>
<!DOCTYPE svg PUBLIC "-//W3C//DTD SVG 20010904//EN"
 "http://www.w3.org/TR/2001/REC-SVG-20010904/DTD/svg10.dtd">
<svg version="1.0" xmlns="http://www.w3.org/2000/svg"
 width="480.000000pt" height="360.000000pt" viewBox="0 0 480.000000 360.000000"
 preserveAspectRatio="xMidYMid meet">
<metadata>
Created by potrace 1.16, written by Peter Selinger 2001-2019
</metadata>
<rect width="1" height="360" fill="#000000"/>
<rect x="479" width="1" height="360" fill="#000000"/>
<rect width="480" height="1" fill="#000000"/>
<rect y="359" width="480" height="1" fill="#000000"/>
<g transform="translate(0.000000,360.000000) scale(0.100000,-0.100000)"
fill="#000000" stroke="none">
<path d="M0 1800 l0 -1800 1296 0 1296 0 -6 26 c-15 58 -72 156 -142 245 -70
89 -137 205 -149 260 -8 33 4 37 140 45 104 6 322 -13 460 -42 39 -8 73 -14
78 -14 33 0 -48 325 -139 555 -50 128 -60 169 -70 285 -3 47 -13 98 -21 114
-24 47 -12 125 31 208 35 68 37 74 30 139 -4 38 -9 69 -13 69 -3 0 -14 -12
-24 -27 l-18 -28 5 30 c17 87 18 146 2 221 -21 96 -45 164 -59 164 -5 0 -4 -6
2 -14 9 -11 9 -15 -1 -19 -9 -3 -6 -12 11 -31 37 -39 5 -32 -42 10 -22 20 -58
45 -81 55 -81 35 -110 76 -141 192 -25 96 -17 152 38 275 26 56 47 104 47 107
0 3 -23 16 -50 30 -42 21 -50 30 -50 54 0 34 46 100 83 120 15 8 27 17 27 21
0 4 -18 28 -40 53 -22 25 -40 49 -40 55 0 14 113 62 148 62 20 0 36 -7 46 -22
20 -29 25 -22 33 43 9 81 18 86 69 39 24 -22 52 -40 61 -40 10 0 38 16 62 35
24 19 46 35 49 35 3 0 28 -11 56 -25 28 -13 85 -29 126 -35 41 -6 85 -17 98
-26 12 -8 57 -24 98 -34 41 -11 95 -28 121 -40 25 -11 55 -20 66 -20 11 0 30
-10 41 -22 12 -13 48 -41 79 -63 32 -22 73 -62 92 -90 59 -86 107 -245 125
-410 14 -133 23 -156 81 -219 27 -30 49 -57 49 -61 0 -4 -25 -5 -55 -3 l-56 5
6 -71 c3 -39 8 -91 10 -116 4 -45 4 -45 -37 39 -23 46 -44 79 -45 74 -2 -6 3
-39 11 -74 10 -43 11 -66 4 -70 -6 -4 -9 -27 -7 -53 4 -44 -3 -61 -14 -33 -3
6 -6 3 -6 -7 -1 -31 -15 -9 -26 41 -12 54 -35 70 -35 24 0 -16 -5 -33 -10 -36
-6 -4 -10 8 -10 29 0 45 -9 66 -27 66 -10 0 -13 -9 -9 -32 12 -81 16 -158 8
-158 -5 0 -17 19 -28 41 -10 23 -20 35 -23 28 -20 -66 -20 -66 -49 -23 -25 37
-27 38 -30 15 -2 -13 5 -36 16 -50 18 -25 24 -26 114 -27 112 -2 166 -21 214
-76 39 -44 77 -124 97 -201 9 -33 17 -61 19 -63 4 -3 92 110 124 160 18 29 18
29 -9 50 -28 22 -36 46 -16 46 6 0 9 6 6 14 -4 10 3 17 21 21 43 10 136 69
151 97 13 23 12 28 -7 56 -12 17 -18 32 -13 34 6 1 -4 35 -22 73 -25 56 -32
87 -35 153 -6 126 3 165 49 218 23 27 38 53 35 61 -3 8 -6 19 -6 24 0 5 -7 9
-15 9 -23 0 -18 31 11 73 31 46 28 73 -6 69 -68 -8 -65 -9 -65 27 0 31 4 36
43 49 42 14 42 14 42 64 0 27 -7 131 -16 231 -15 178 -15 449 1 510 l7 27
-2136 0 -2136 0 0 -1800z"/>
<path d="M4313 3568 c7 -42 35 -355 50 -573 l12 -170 58 4 58 3 -3 -33 c-3
-30 -8 -36 -43 -47 -48 -16 -51 -19 -59 -58 -7 -30 -5 -32 35 -45 40 -14 43
-17 93 -128 49 -109 53 -115 101 -140 27 -14 55 -37 63 -51 19 -36 8 -158 -23
-255 -14 -44 -25 -81 -25 -82 0 -2 20 0 45 4 43 5 95 -14 95 -35 0 -5 -24 -18
-54 -31 -58 -24 -88 -58 -126 -144 -17 -37 -21 -65 -20 -130 1 -45 -1 -91 -5
-102 -26 -76 -36 -81 -85 -35 -18 16 -34 30 -36 30 -1 0 -38 -62 -80 -137
-173 -311 -208 -370 -243 -413 -20 -24 -37 -54 -37 -65 -1 -11 -5 -39 -9 -62
l-7 -42 38 -10 c22 -5 60 -15 87 -22 35 -9 55 -21 76 -48 43 -56 44 -61 26
-82 -17 -18 -16 -21 19 -66 40 -51 46 -91 18 -116 -10 -10 -31 -17 -46 -17
-23 0 -27 -3 -21 -17 15 -39 27 -123 21 -147 -4 -16 -26 -37 -65 -60 -67 -41
-90 -44 -116 -16 -18 20 -19 20 -74 -33 -31 -30 -66 -59 -78 -66 -20 -10 -23
-20 -23 -71 l0 -60 435 0 435 0 0 1800 0 1800 -246 0 -246 0 5 -32z"/>
<path d="M4300 2337 c0 -12 4 -28 9 -36 7 -11 11 -10 20 7 16 29 14 39 -9 45
-15 4 -20 0 -20 -16z"/>
<path d="M2844 1997 c-7 -11 -8 -36 -3 -65 4 -26 8 -66 8 -90 1 -26 5 -41 11
-37 11 7 12 132 1 180 -6 27 -8 28 -17 12z"/>
<path d="M2915 1915 c-4 -16 -14 -43 -22 -58 -8 -16 -13 -30 -11 -31 7 -5 215
11 225 17 6 4 8 18 5 32 -4 23 -8 25 -34 20 -19 -5 -41 0 -68 14 l-39 20 -6
-32 c-12 -54 -19 -54 -31 -2 -11 49 -11 49 -19 20z"/>
</g>
</svg>
