<?xml version="1.0" standalone="no"?>
<!DOCTYPE svg PUBLIC "-//W3C//DTD SVG 20010904//EN"
 "http://www.w3.org/TR/2001/REC-SVG-20010904/DTD/svg10.dtd">
<svg version="1.0" xmlns="http://www.w3.org/2000/svg"
 width="480.000000pt" height="360.000000pt" viewBox="0 0 480.000000 360.000000"
 preserveAspectRatio="xMidYMid meet">
<metadata>
Created by potrace 1.16, written by Peter Selinger 2001-2019
</metadata>
<rect width="1" height="360" fill="#000000"/>
<rect x="479" width="1" height="360" fill="#000000"/>
<rect width="480" height="1" fill="#000000"/>
<rect y="359" width="480" height="1" fill="#000000"/>
<g transform="translate(0.000000,360.000000) scale(0.100000,-0.100000)"
fill="#000000" stroke="none">
<path d="M0 1800 l0 -1800 1140 0 1140 0 0 38 c0 20 4 51 9 69 7 23 5 37 -7
55 -8 12 -16 24 -17 25 0 1 -23 -4 -50 -12 -83 -26 -114 -20 -174 29 -43 36
-64 45 -107 51 -49 6 -57 10 -84 50 -24 35 -37 44 -70 50 -22 4 -42 10 -45 15
-3 4 0 31 7 59 10 45 10 53 -6 64 -16 12 -16 15 4 62 12 28 47 81 79 120 81
99 114 150 177 272 64 124 101 237 86 256 -7 8 -7 33 2 79 10 54 10 65 -1 61
-7 -3 -13 -4 -13 -2 0 13 40 140 49 158 10 17 9 27 -5 49 -15 27 -15 30 5 67
23 43 27 65 11 65 -5 0 -10 -4 -10 -10 0 -5 -4 -10 -10 -10 -5 0 -10 11 -10
25 0 24 -1 24 -65 18 -84 -8 -108 3 -184 83 -62 65 -62 65 -87 49 -14 -9 -39
-15 -57 -13 l-32 3 -9 107 c-9 104 -8 107 17 151 31 53 195 211 273 262 31 21
82 47 113 59 62 24 53 8 108 191 16 55 46 92 109 135 35 25 42 36 53 87 7 32
17 68 22 81 5 13 9 34 9 47 0 36 19 41 26 6 4 -17 13 -36 20 -42 8 -6 14 -22
14 -35 0 -14 8 -25 19 -29 11 -3 24 -19 30 -35 6 -18 17 -30 28 -30 26 0 135
-54 155 -76 9 -10 38 -55 65 -99 l50 -79 104 -13 c97 -12 113 -18 239 -81 91
-45 152 -83 188 -117 l54 -50 -20 -80 c-28 -110 -38 -134 -62 -143 -12 -4 -36
-35 -54 -67 -66 -121 -178 -158 -300 -98 -50 24 -58 25 -81 13 -14 -8 -35 -29
-46 -47 -21 -34 -122 -113 -145 -113 -24 0 -25 -20 -2 -59 25 -44 19 -64 -12
-36 -18 16 -20 16 -20 2 0 -9 4 -26 9 -39 5 -13 19 -67 31 -120 19 -78 21
-100 11 -112 -7 -8 -20 -12 -28 -9 -13 5 -15 1 -11 -21 4 -21 -1 -36 -22 -60
-20 -23 -29 -45 -32 -84 -5 -47 -3 -55 18 -68 22 -15 22 -17 8 -56 -20 -57 -3
-144 82 -417 24 -78 49 -175 56 -213 10 -63 10 -72 -5 -83 -12 -8 -17 -27 -17
-57 0 -43 -2 -46 -31 -52 -17 -3 -44 -6 -59 -6 -40 0 -43 -21 -19 -119 16 -65
19 -89 10 -103 -11 -17 32 -18 1084 -18 l1095 0 0 1800 0 1800 -2400 0 -2400
0 0 -1800z"/>
<path d="M2440 2819 c0 -5 5 -7 10 -4 6 3 10 8 10 11 0 2 -4 4 -10 4 -5 0 -10
-5 -10 -11z"/>
<path d="M3296 2205 c-29 -27 -35 -75 -11 -95 12 -10 15 -7 20 17 4 15 12 45
20 66 16 43 8 47 -29 12z"/>
<path d="M3095 2036 c-58 -14 -130 -48 -171 -81 l-29 -23 65 -32 c73 -34 107
-34 173 3 38 21 97 100 97 130 0 21 -58 22 -135 3z"/>
<path d="M1690 1948 c0 -76 8 -98 35 -98 36 0 47 21 36 71 -9 40 -40 79 -62
79 -5 0 -9 -24 -9 -52z"/>
<path d="M2578 1885 c-3 -3 7 -26 23 -50 16 -23 29 -50 29 -59 0 -22 12 -20
68 8 45 23 110 81 101 90 -7 8 -214 18 -221 11z"/>
<path d="M1913 1870 c-45 -3 -85 -8 -88 -12 -4 -3 18 -31 47 -61 63 -65 108
-82 176 -66 76 17 102 36 102 76 0 18 -11 25 -67 43 -87 28 -75 26 -170 20z"/>
<path d="M2423 202 c-49 -31 -54 -54 -19 -95 14 -16 27 -46 31 -68 l7 -39 46
1 c45 2 45 2 12 8 -34 6 -35 7 -34 53 0 35 6 54 22 71 25 27 27 36 10 72 -14
31 -22 30 -75 -3z"/>
</g>
</svg>
