<?xml version="1.0" standalone="no"?>
<!DOCTYPE svg PUBLIC "-//W3C//DTD SVG 20010904//EN"
 "http://www.w3.org/TR/2001/REC-SVG-20010904/DTD/svg10.dtd">
<svg version="1.0" xmlns="http://www.w3.org/2000/svg"
 width="480.000000pt" height="360.000000pt" viewBox="0 0 480.000000 360.000000"
 preserveAspectRatio="xMidYMid meet">
<metadata>
Created by potrace 1.16, written by Peter Selinger 2001-2019
</metadata>
<rect width="1" height="360" fill="#000000"/>
<rect x="479" width="1" height="360" fill="#000000"/>
<rect width="480" height="1" fill="#000000"/>
<rect y="359" width="480" height="1" fill="#000000"/>
<g transform="translate(0.000000,360.000000) scale(0.100000,-0.100000)"
fill="#000000" stroke="none">
<path d="M2145 3573 c27 -153 99 -509 110 -550 28 -98 93 -119 335 -110 157 6
298 26 381 53 50 16 92 53 108 96 5 15 13 120 16 235 3 114 8 229 11 256 l5
47 -485 0 -485 0 4 -27z"/>
<path d="M4390 2781 c-41 -14 -143 -70 -180 -100 -49 -39 -85 -94 -129 -198
-35 -82 -47 -125 -87 -308 -32 -147 -63 -256 -87 -300 -21 -41 -92 -109 -133
-129 -21 -11 -56 -28 -76 -38 -73 -37 -155 -59 -258 -70 -124 -13 -174 -34
-241 -105 -78 -82 -126 -184 -165 -353 -21 -93 -61 -194 -108 -274 -43 -71
-191 -230 -226 -241 -11 -3 -20 -11 -20 -16 0 -5 -9 -9 -19 -9 -11 0 -23 -4
-26 -10 -3 -5 -15 -10 -26 -10 -10 0 -19 -4 -19 -8 0 -19 -110 -32 -263 -33
-203 0 -221 -6 -259 -79 -26 -49 -28 -61 -22 -116 5 -50 3 -67 -12 -90 -45
-70 -130 -163 -206 -227 -32 -26 -58 -52 -58 -57 0 -7 550 -10 1515 -10 l1515
0 0 1237 0 1236 -52 56 c-29 31 -83 91 -120 133 -88 99 -172 141 -238 119z"/>
<path d="M2410 2389 c-48 -19 -70 -49 -70 -95 0 -52 34 -97 86 -114 48 -16
118 9 139 50 25 49 17 117 -20 153 -19 19 -94 22 -135 6z"/>
<path d="M0 485 l0 -485 528 0 527 0 -222 218 c-268 262 -413 396 -593 545
-47 39 -110 94 -141 122 -30 27 -65 58 -77 67 l-22 18 0 -485z"/>
</g>
</svg>
