<?xml version="1.0" standalone="no"?>
<!DOCTYPE svg PUBLIC "-//W3C//DTD SVG 20010904//EN"
 "http://www.w3.org/TR/2001/REC-SVG-20010904/DTD/svg10.dtd">
<svg version="1.0" xmlns="http://www.w3.org/2000/svg"
 width="480.000000pt" height="360.000000pt" viewBox="0 0 480.000000 360.000000"
 preserveAspectRatio="xMidYMid meet">
<metadata>
Created by potrace 1.16, written by Peter Selinger 2001-2019
</metadata>
<rect width="1" height="360" fill="#000000"/>
<rect x="479" width="1" height="360" fill="#000000"/>
<rect width="480" height="1" fill="#000000"/>
<rect y="359" width="480" height="1" fill="#000000"/>
<g transform="translate(0.000000,360.000000) scale(0.100000,-0.100000)"
fill="#000000" stroke="none">
<path d="M0 3020 l0 -580 62 46 c83 60 204 118 308 145 66 18 113 23 210 24
206 0 308 -34 423 -144 48 -46 90 -133 82 -170 -3 -15 1 -43 10 -64 8 -20 15
-60 15 -88 0 -43 -5 -57 -30 -86 -29 -32 -37 -68 -32 -143 2 -33 -52 -110 -94
-135 -35 -21 -45 -34 -60 -77 -9 -29 -23 -63 -31 -75 -14 -20 -11 -26 36 -83
78 -93 68 -128 -53 -196 -68 -38 -84 -44 -103 -35 -19 9 -23 8 -23 -5 0 -9 -5
-12 -12 -8 -9 6 -9 3 0 -9 8 -9 11 -21 7 -27 -4 -6 5 -38 19 -70 36 -79 47
-182 44 -392 -1 -128 1 -181 10 -190 7 -7 12 -20 12 -30 0 -23 5 -23 43 5 32
22 76 47 83 47 12 0 -22 -45 -80 -108 -70 -76 -83 -101 -67 -131 6 -11 11 -45
11 -75 0 -44 -4 -57 -18 -65 -16 -8 -20 -27 -26 -103 -3 -51 -10 -109 -14
-128 -17 -75 -42 -70 357 -70 l357 0 12 34 c13 35 52 78 52 57 0 -6 -7 -28
-15 -48 -8 -19 -15 -37 -15 -39 0 -2 747 -4 1660 -4 l1660 0 0 768 0 767 -37
2 c-99 4 -134 31 -69 53 27 9 42 8 70 -4 l36 -15 0 1015 0 1014 -2400 0 -2400
0 0 -580z m2123 470 c24 0 28 -3 17 -10 -25 -16 -80 -12 -80 6 0 11 5 14 16
10 9 -3 30 -6 47 -6z m-473 -25 c0 -8 -13 -29 -29 -47 -24 -27 -32 -31 -42
-21 -10 11 -6 20 21 48 37 38 50 43 50 20z m2040 0 c0 -11 -80 -57 -91 -53 -7
2 7 16 32 30 45 26 59 32 59 23z m-1266 -25 c13 -13 -3 -30 -28 -30 -29 0 -61
24 -52 38 7 12 64 6 80 -8z m821 -259 l30 -7 -37 -7 c-43 -9 -111 1 -102 14 6
10 64 10 109 0z m-1048 -240 c14 -8 6 -10 -39 -11 -62 0 -88 7 -88 22 0 13
101 4 127 -11z m-432 -171 c-3 -5 -17 -10 -31 -10 -14 0 -22 4 -19 10 3 6 17
10 31 10 14 0 22 -4 19 -10z m1421 -48 c13 -8 34 -46 34 -61 0 -20 -51 -11
-75 14 -34 33 -32 55 3 55 15 0 32 -4 38 -8z m-1826 -202 c12 -22 8 -32 -32
-79 -31 -36 -43 -39 -58 -12 -12 24 0 61 30 91 25 25 46 26 60 0z m350 -800
c0 -28 -88 -85 -105 -68 -11 11 10 50 34 63 31 17 71 19 71 5z m2595 -148 c35
-20 51 -35 57 -56 11 -43 2 -49 -64 -43 -69 6 -103 26 -111 62 -4 22 1 30 27
46 37 23 30 23 91 -9z m-1160 7 c10 -16 -25 -49 -52 -49 -30 0 -29 9 5 37 31
25 38 27 47 12z m259 -88 c23 -33 27 -47 24 -97 -3 -55 -5 -59 -28 -62 -18 -2
-35 7 -60 33 -32 33 -35 41 -33 87 4 88 50 107 97 39z m-414 20 c0 -12 -29
-41 -41 -41 -13 0 -11 24 3 38 14 14 38 16 38 3z m-620 -81 c25 -25 26 -46 3
-58 -22 -12 -63 2 -63 20 0 30 13 58 26 58 8 0 23 -9 34 -20z m350 -303 c0
-36 -15 -57 -41 -57 -15 0 -29 19 -29 40 0 14 42 50 57 50 8 0 13 -12 13 -33z
m146 -12 c11 -27 0 -36 -24 -19 -12 8 -20 20 -17 25 9 14 35 11 41 -6z m1544
-15 c0 -17 -38 -30 -69 -24 -32 7 -40 19 -18 27 22 9 87 7 87 -3z m-1460 -87
c9 -8 -50 -53 -70 -53 -56 0 -67 33 -17 55 28 13 73 12 87 -2z m1364 -135
c-18 -58 -74 -104 -74 -60 0 30 38 82 61 82 17 0 19 -4 13 -22z m-2426 -268
c34 -28 54 -86 47 -131 -4 -22 -9 -39 -11 -39 -3 0 -17 11 -32 25 -15 14 -38
25 -52 25 -14 0 -31 5 -38 12 -17 17 -15 68 2 68 8 0 17 14 21 30 8 35 29 38
63 10z m812 -10 c-20 -13 -43 -13 -35 0 3 6 16 10 28 10 18 0 19 -2 7 -10z
m400 -175 c-33 -32 -100 -58 -100 -39 0 12 101 74 120 74 9 0 2 -13 -20 -35z
m810 -120 c16 -20 3 -54 -27 -68 -21 -9 -27 -8 -39 7 -11 16 -11 23 3 47 19
32 44 37 63 14z m-1480 -28 c0 -28 -32 -89 -50 -95 -15 -5 -10 22 15 81 17 41
35 49 35 14z m1416 -113 c8 -32 -2 -113 -17 -130 -12 -14 -41 -19 -52 -8 -3 3
-2 16 3 27 5 12 14 48 20 80 12 61 35 77 46 31z"/>
<path d="M758 1573 c-21 -5 -22 -14 -5 -35 18 -23 43 -28 63 -13 18 13 18 14
0 34 -19 21 -26 23 -58 14z"/>
<path d="M392 1358 c-7 -7 -8 -17 -1 -30 14 -27 26 -22 27 12 1 32 -7 37 -26
18z"/>
<path d="M0 1092 l0 -214 51 37 c74 53 113 90 186 174 59 69 63 77 57 110 -12
69 -31 101 -58 101 -23 0 -25 -3 -20 -30 5 -25 1 -35 -26 -60 -38 -36 -64 -36
-67 0 -3 28 10 47 47 73 29 20 27 20 -87 21 l-83 1 0 -213z"/>
<path d="M0 190 l0 -190 206 0 c191 0 205 1 200 18 -13 46 -27 149 -25 188 4
64 -16 81 -104 87 -121 10 -132 13 -178 44 -24 16 -56 33 -71 37 l-28 6 0
-190z"/>
<path d="M508 258 c-2 -24 -2 -91 0 -150 l5 -108 65 0 65 0 -8 142 c-4 79 -9
146 -12 151 -2 4 -28 7 -58 7 l-53 0 -4 -42z"/>
</g>
</svg>
