<?xml version="1.0" standalone="no"?>
<!DOCTYPE svg PUBLIC "-//W3C//DTD SVG 20010904//EN"
 "http://www.w3.org/TR/2001/REC-SVG-20010904/DTD/svg10.dtd">
<svg version="1.0" xmlns="http://www.w3.org/2000/svg"
 width="480.000000pt" height="360.000000pt" viewBox="0 0 480.000000 360.000000"
 preserveAspectRatio="xMidYMid meet">
<metadata>
Created by potrace 1.16, written by Peter Selinger 2001-2019
</metadata>
<rect width="1" height="360" fill="#000000"/>
<rect x="479" width="1" height="360" fill="#000000"/>
<rect width="480" height="1" fill="#000000"/>
<rect y="359" width="480" height="1" fill="#000000"/>
<g transform="translate(0.000000,360.000000) scale(0.100000,-0.100000)"
fill="#000000" stroke="none">
<path d="M1412 2908 c-42 -14 -66 -18 -70 -11 -16 24 -48 23 -72 -2 -21 -22
-22 -28 -11 -49 11 -19 10 -29 -4 -57 -27 -51 -24 -125 6 -179 21 -38 28 -45
52 -42 32 4 34 -7 8 -39 -19 -23 -19 -24 3 -46 39 -41 53 -58 65 -80 6 -13 21
-23 31 -23 11 0 20 -4 20 -10 0 -5 -4 -10 -10 -10 -5 0 -10 -7 -10 -15 0 -8
-8 -15 -18 -15 -10 0 -29 -11 -41 -24 -22 -24 -23 -25 -6 -54 l17 -29 -45 -46
c-25 -26 -62 -82 -83 -124 -60 -121 -52 -189 25 -226 25 -12 26 -15 24 -100
-1 -82 -4 -92 -37 -149 -22 -36 -34 -68 -31 -78 3 -10 -4 -45 -15 -77 -32 -87
-34 -94 -22 -102 7 -4 3 -30 -14 -81 -41 -124 -52 -177 -115 -521 -60 -334
-109 -642 -109 -691 l0 -28 520 0 c286 0 520 1 520 3 0 2 -11 75 -25 163 -13
87 -33 247 -45 354 -11 107 -30 240 -41 295 -24 116 -94 373 -116 424 -35 83
-35 83 -13 76 30 -9 24 7 -15 45 -39 38 -44 64 -16 79 10 6 26 32 35 58 9 26
39 87 66 135 28 48 50 98 50 110 0 13 -16 50 -35 83 -51 88 -67 126 -62 147 4
14 -2 22 -20 29 -22 8 -24 14 -20 42 3 19 -4 60 -18 102 -24 74 -44 144 -45
159 0 6 6 11 15 12 8 1 15 -2 15 -7 0 -5 4 -9 10 -9 5 0 12 16 16 36 4 19 12
38 19 41 7 2 16 15 19 29 7 26 26 33 26 10 0 -36 20 -22 35 24 14 43 20 50 36
45 17 -6 19 -3 13 22 -4 15 -18 60 -31 98 -13 39 -28 86 -32 107 -11 49 -129
181 -182 202 -54 22 -142 19 -217 -6z"/>
<path d="M3985 93 c-35 -5 -61 -27 -81 -65 l-15 -28 221 0 c208 0 220 1 211
18 -17 32 -53 57 -84 59 -18 1 -57 6 -87 12 -57 10 -113 11 -165 4z"/>
</g>
</svg>
