<?xml version="1.0" standalone="no"?>
<!DOCTYPE svg PUBLIC "-//W3C//DTD SVG 20010904//EN"
 "http://www.w3.org/TR/2001/REC-SVG-20010904/DTD/svg10.dtd">
<svg version="1.0" xmlns="http://www.w3.org/2000/svg"
 width="480.000000pt" height="360.000000pt" viewBox="0 0 480.000000 360.000000"
 preserveAspectRatio="xMidYMid meet">
<metadata>
Created by potrace 1.16, written by Peter Selinger 2001-2019
</metadata>
<rect width="1" height="360" fill="#000000"/>
<rect x="479" width="1" height="360" fill="#000000"/>
<rect width="480" height="1" fill="#000000"/>
<rect y="359" width="480" height="1" fill="#000000"/>
<g transform="translate(0.000000,360.000000) scale(0.100000,-0.100000)"
fill="#000000" stroke="none">
<path d="M1725 3578 c-48 -37 -65 -91 -65 -203 0 -184 32 -268 162 -428 53
-64 53 -65 72 -191 l13 -89 -29 -51 c-34 -63 -34 -67 -2 -105 45 -53 192 -106
410 -146 173 -32 251 -33 289 -3 26 20 27 25 22 80 -5 53 -2 63 30 118 29 49
41 60 62 60 35 0 48 10 52 40 6 36 43 50 199 76 222 37 371 104 437 197 33 46
63 127 63 166 -1 40 -43 114 -80 139 -42 28 -109 29 -170 1 -34 -15 -46 -17
-49 -7 -2 7 -32 41 -66 75 -50 49 -87 73 -186 122 -127 62 -279 115 -429 151
-76 18 -119 20 -396 20 -304 0 -312 0 -339 -22z m1599 -403 c41 -27 51 -66 32
-123 -35 -103 -132 -173 -306 -221 -110 -31 -119 -28 -72 17 42 40 112 139
112 159 0 19 17 24 44 12 49 -23 78 34 34 64 l-23 15 21 28 c23 33 78 64 112
64 12 0 33 -7 46 -15z"/>
</g>
</svg>
