<?xml version="1.0" standalone="no"?>
<!DOCTYPE svg PUBLIC "-//W3C//DTD SVG 20010904//EN"
 "http://www.w3.org/TR/2001/REC-SVG-20010904/DTD/svg10.dtd">
<svg version="1.0" xmlns="http://www.w3.org/2000/svg"
 width="480.000000pt" height="360.000000pt" viewBox="0 0 480.000000 360.000000"
 preserveAspectRatio="xMidYMid meet">
<metadata>
Created by potrace 1.16, written by Peter Selinger 2001-2019
</metadata>
<rect width="1" height="360" fill="#000000"/>
<rect x="479" width="1" height="360" fill="#000000"/>
<rect width="480" height="1" fill="#000000"/>
<rect y="359" width="480" height="1" fill="#000000"/>
<g transform="translate(0.000000,360.000000) scale(0.100000,-0.100000)"
fill="#000000" stroke="none">
<path d="M2017 3575 c-279 -75 -700 -218 -957 -325 -285 -118 -627 -279 -835
-394 -55 -31 -128 -70 -162 -88 l-63 -32 0 -1325 0 -1324 100 7 c55 3 132 10
172 16 40 5 159 16 263 25 466 40 975 101 1320 160 116 20 236 40 268 46 32 5
124 25 205 44 81 19 179 42 217 51 140 33 416 114 611 180 573 193 1137 466
1520 738 l124 88 0 1073 0 1073 -31 6 c-17 3 -624 6 -1348 5 l-1316 -1 -88
-23z m779 -930 c48 -8 103 -15 123 -15 76 0 103 -16 160 -94 56 -78 119 -142
211 -217 30 -24 58 -48 61 -52 4 -5 9 -70 12 -145 4 -98 12 -157 27 -207 47
-155 49 -135 -28 -243 -93 -131 -108 -159 -122 -217 -7 -27 -23 -69 -36 -91
-28 -49 -67 -70 -394 -209 -106 -45 -141 -50 -262 -36 -112 13 -163 28 -216
65 -21 14 -61 30 -90 36 -67 12 -101 30 -185 98 -79 63 -99 91 -116 167 -9 40
-22 63 -47 87 -19 18 -43 57 -55 88 -32 85 -71 172 -91 202 -10 14 -18 39 -18
55 0 34 33 124 59 161 37 52 75 118 107 182 17 36 50 85 73 110 23 25 57 70
75 100 l35 55 98 28 c59 17 149 55 227 96 l130 68 88 -29 c48 -15 126 -35 174
-43z"/>
<path d="M1956 2318 c-10 -15 -16 -33 -14 -40 3 -8 11 -2 22 14 10 15 16 33
14 40 -3 8 -11 2 -22 -14z"/>
<path d="M1965 1486 c8 -25 19 -54 25 -65 12 -22 149 -141 162 -141 27 0 -97
168 -160 218 l-40 32 13 -44z"/>
<path d="M2912 1235 c-40 -19 -72 -36 -72 -39 0 -5 160 61 169 70 15 15 -35
-1 -97 -31z"/>
<path d="M2342 1209 c8 -24 76 -50 172 -66 86 -14 120 -14 104 2 -11 12 -136
53 -179 59 -24 4 -57 10 -73 13 -20 4 -27 2 -24 -8z"/>
</g>
</svg>
