<?xml version="1.0" standalone="no"?>
<!DOCTYPE svg PUBLIC "-//W3C//DTD SVG 20010904//EN"
 "http://www.w3.org/TR/2001/REC-SVG-20010904/DTD/svg10.dtd">
<svg version="1.0" xmlns="http://www.w3.org/2000/svg"
 width="480.000000pt" height="360.000000pt" viewBox="0 0 480.000000 360.000000"
 preserveAspectRatio="xMidYMid meet">
<metadata>
Created by potrace 1.16, written by Peter Selinger 2001-2019
</metadata>
<rect width="1" height="360" fill="#000000"/>
<rect x="479" width="1" height="360" fill="#000000"/>
<rect width="480" height="1" fill="#000000"/>
<rect y="359" width="480" height="1" fill="#000000"/>
<g transform="translate(0.000000,360.000000) scale(0.100000,-0.100000)"
fill="#000000" stroke="none">
<path d="M0 1800 l0 -1800 346 0 346 0 -4 127 c-6 160 -20 202 -139 423 -152
283 -217 474 -259 762 -66 446 -40 843 86 1305 l36 132 -36 32 c-46 40 -48 72
-4 95 48 25 118 14 323 -51 224 -70 323 -109 355 -140 19 -17 90 -41 280 -94
475 -131 572 -154 581 -139 15 23 11 25 -53 32 -119 13 -144 19 -123 26 16 6
12 9 -20 15 -54 9 -95 23 -72 24 9 1 17 6 17 11 0 6 10 10 21 10 17 0 19 3 10
14 -14 16 -11 19 44 36 55 17 78 36 260 215 205 202 209 205 289 215 47 6 80
17 123 44 85 52 163 76 250 76 63 0 84 -5 146 -34 40 -19 107 -59 149 -88 72
-50 75 -55 57 -67 -15 -9 -18 -15 -10 -25 18 -21 16 -104 -2 -124 -10 -10 -17
-22 -17 -26 0 -4 -10 -16 -22 -26 -19 -15 -20 -20 -10 -33 7 -8 24 -18 37 -21
25 -7 35 -39 15 -51 -7 -4 -6 -13 1 -26 6 -11 7 -28 3 -37 -4 -9 -8 -41 -9
-70 -1 -44 -6 -57 -28 -78 -22 -20 -34 -24 -57 -19 -33 7 -35 4 -20 -26 8 -15
7 -19 -4 -19 -9 0 -12 -7 -9 -20 3 -11 9 -20 13 -20 4 0 25 -12 46 -27 21 -14
67 -32 102 -39 86 -19 134 -45 182 -103 32 -37 49 -50 78 -54 20 -3 89 -15
152 -27 301 -56 455 -78 468 -68 7 6 31 8 56 5 33 -5 47 -2 57 9 9 11 23 14
43 11 70 -11 102 -19 112 -28 7 -5 35 -12 63 -16 39 -4 57 -12 72 -31 18 -24
34 -28 182 -49 89 -12 192 -25 229 -29 l68 -7 0 847 0 846 -2400 0 -2400 0 0
-1800z"/>
<path d="M881 2386 c-99 -301 -114 -374 -135 -651 -18 -253 -18 -266 -1 -445
23 -235 52 -337 204 -711 58 -144 91 -239 91 -263 0 -28 -54 -215 -87 -304 -4
-9 25 -12 123 -12 73 0 123 4 116 9 -11 6 -9 16 8 47 12 21 30 48 40 59 10 11
25 34 33 51 41 80 289 265 487 361 58 29 164 75 235 103 72 28 143 57 160 63
92 37 232 114 292 161 38 30 102 93 141 139 66 77 71 87 61 109 -6 12 -56 59
-111 103 -201 160 -258 223 -258 288 0 52 35 133 96 224 61 90 64 97 55 130
-11 37 4 89 33 123 8 9 12 28 9 48 -5 32 -16 41 -28 21 -4 -6 -13 -8 -21 -5
-9 3 -22 -9 -36 -34 -26 -46 -33 -49 -41 -18 -5 18 -9 19 -21 9 -8 -7 -24 -10
-35 -6 -16 5 -24 0 -33 -19 -11 -26 -28 -35 -28 -15 0 6 -7 8 -17 5 -11 -5
-23 1 -35 16 -15 19 -19 21 -27 9 -8 -12 -11 -9 -16 12 -8 32 -13 33 -32 10
-8 -10 -11 -12 -7 -4 3 7 1 17 -5 21 -9 5 -5 22 13 63 14 32 21 57 17 57 -4 0
-22 -18 -40 -40 -17 -22 -35 -40 -39 -40 -4 0 -8 13 -9 29 -1 20 8 41 32 69
19 22 35 43 35 46 0 3 -12 6 -27 6 l-27 0 32 29 c17 17 32 34 32 39 0 13 -101
33 -129 26 -14 -5 -26 -2 -31 6 -7 11 -14 11 -35 2 -30 -14 -48 -16 -41 -3 15
24 -36 45 -299 116 -154 42 -327 90 -385 107 -69 21 -130 32 -177 33 l-73 2
-59 -181z"/>
<path d="M2183 2398 c-28 -14 -30 -28 -3 -28 10 0 24 9 30 20 12 22 6 24 -27
8z"/>
<path d="M3245 2020 c-5 -14 1 -32 19 -55 14 -18 26 -40 26 -47 0 -7 9 -26 21
-43 41 -60 58 -104 69 -171 14 -88 32 -119 61 -103 21 11 311 104 417 134 93
26 96 31 80 111 l-14 68 -64 13 c-36 7 -180 33 -320 58 -140 25 -263 48 -272
51 -11 3 -19 -2 -23 -16z"/>
<path d="M4290 1794 c-37 -66 -108 -145 -167 -185 -72 -50 -524 -239 -630
-265 -60 -14 -126 -2 -188 35 l-35 20 6 -39 c5 -28 2 -47 -9 -63 -9 -14 -15
-49 -16 -91 l-1 -68 50 -55 c51 -56 61 -85 36 -112 -12 -14 -10 -25 22 -89 21
-40 67 -110 103 -155 78 -98 173 -252 166 -271 -5 -13 -41 -10 -106 10 -21 6
-23 5 -17 -12 12 -31 45 -201 64 -329 l17 -120 608 -3 607 -2 0 879 0 879 -47
11 c-44 10 -418 81 -427 81 -2 0 -18 -25 -36 -56z"/>
<path d="M2542 1567 c-23 -23 -42 -47 -42 -53 0 -10 101 -114 112 -114 15 0
17 70 3 116 -8 27 -15 59 -15 72 0 31 -10 28 -58 -21z"/>
</g>
</svg>
