<?xml version="1.0" standalone="no"?>
<!DOCTYPE svg PUBLIC "-//W3C//DTD SVG 20010904//EN"
 "http://www.w3.org/TR/2001/REC-SVG-20010904/DTD/svg10.dtd">
<svg version="1.0" xmlns="http://www.w3.org/2000/svg"
 width="480.000000pt" height="360.000000pt" viewBox="0 0 480.000000 360.000000"
 preserveAspectRatio="xMidYMid meet">
<metadata>
Created by potrace 1.16, written by Peter Selinger 2001-2019
</metadata>
<rect width="1" height="360" fill="#000000"/>
<rect x="479" width="1" height="360" fill="#000000"/>
<rect width="480" height="1" fill="#000000"/>
<rect y="359" width="480" height="1" fill="#000000"/>
<g transform="translate(0.000000,360.000000) scale(0.100000,-0.100000)"
fill="#000000" stroke="none">
<path d="M1385 3054 c-16 -9 -38 -26 -47 -38 l-18 -21 0 28 c0 43 -18 23 -36
-41 -10 -39 -25 -66 -46 -84 -26 -22 -29 -30 -19 -42 7 -8 10 -19 7 -24 -3 -5
-1 -46 4 -90 l10 -81 -55 -109 c-52 -104 -65 -142 -47 -142 5 0 15 -19 22 -42
l14 -43 6 40 5 40 9 -30 9 -30 6 28 6 27 35 -47 c19 -26 48 -54 65 -63 16 -8
35 -21 41 -29 9 -11 13 -11 25 0 20 20 61 20 57 0 -2 -10 -14 -16 -33 -17 -53
-1 -60 -4 -73 -25 -11 -17 -10 -25 8 -53 22 -37 19 -62 -10 -71 -27 -9 -150
-142 -150 -163 0 -10 -14 -31 -31 -48 -38 -35 -68 -98 -69 -140 0 -42 37 -93
85 -118 35 -18 40 -26 43 -59 6 -68 -16 -207 -38 -241 -11 -17 -26 -45 -34
-62 -8 -17 -22 -37 -31 -44 -13 -11 -15 -24 -10 -56 5 -33 -1 -60 -30 -135
-19 -52 -35 -103 -35 -113 0 -11 -6 -27 -13 -35 -37 -44 -59 -155 -35 -179 8
-8 7 -30 -5 -89 -9 -43 -26 -134 -37 -203 -12 -69 -32 -182 -45 -253 -14 -70
-25 -134 -25 -142 0 -13 68 -15 546 -15 l545 0 -4 93 c-6 120 -70 442 -128
641 l-21 68 30 32 c16 17 41 50 56 73 17 27 34 43 46 43 14 0 20 7 20 21 0 12
17 37 41 58 33 29 46 52 69 122 30 93 74 185 145 304 27 46 45 89 45 107 0 45
-53 136 -126 216 -37 41 -62 76 -59 84 3 8 -3 23 -15 33 -11 10 -20 26 -20 36
0 11 -9 19 -22 21 -17 2 -27 17 -44 68 -25 72 -57 105 -133 141 -77 35 -94 48
-81 64 8 10 8 19 1 34 -14 25 4 39 17 14 9 -14 13 -15 26 -4 14 11 16 11 16
-5 0 -16 2 -15 23 5 16 14 30 19 42 15 11 -5 21 -1 27 11 7 12 12 14 18 6 7
-13 78 90 99 146 22 55 -24 231 -78 299 -11 14 -17 33 -14 44 9 32 -17 78 -56
102 -20 12 -58 41 -84 64 -69 62 -143 87 -235 81 -51 -3 -75 0 -80 8 -12 21
-64 26 -97 9z m385 -1344 c0 -6 10 -24 22 -41 20 -27 26 -29 60 -24 33 6 43 2
83 -30 l45 -38 -56 -106 c-32 -58 -83 -143 -115 -189 -34 -49 -60 -99 -64
-121 -5 -32 -11 -40 -40 -48 -41 -13 -60 0 -42 28 9 14 6 30 -17 78 -35 73
-33 104 18 272 51 168 75 229 92 229 8 0 14 -5 14 -10z"/>
<path d="M3285 2416 c-17 -7 -39 -25 -48 -39 -22 -34 -22 -93 -1 -105 15 -8
12 -17 -23 -68 l-40 -59 -144 0 c-104 0 -152 -4 -172 -14 -32 -17 -87 -95 -87
-125 0 -33 107 -127 200 -175 46 -24 92 -51 102 -60 17 -15 16 -17 -14 -48
-25 -26 -28 -33 -14 -33 13 0 16 -5 11 -20 -4 -11 -2 -20 4 -20 6 0 9 -6 7
-12 -15 -47 -15 -78 -1 -78 10 0 15 -10 15 -30 0 -16 5 -30 10 -30 6 0 10 -6
10 -14 0 -8 -15 -17 -36 -21 -33 -6 -39 -12 -66 -73 -16 -37 -70 -148 -118
-247 -114 -231 -180 -389 -180 -431 0 -22 9 -44 29 -66 16 -19 31 -51 36 -75
12 -76 133 -158 184 -126 27 17 22 29 -19 48 -43 19 -46 25 -30 56 9 16 85 72
100 74 3 0 10 3 16 7 6 4 0 -39 -12 -100 -13 -59 -28 -177 -34 -262 -6 -85
-15 -179 -20 -209 -6 -30 -8 -56 -7 -58 2 -2 191 -2 420 -1 l416 3 -40 95
c-55 131 -213 600 -212 629 1 13 6 27 12 31 8 5 6 25 -9 71 -11 35 -19 84 -19
109 l1 45 14 -44 c7 -24 37 -86 65 -138 49 -87 56 -95 106 -119 40 -19 63 -23
86 -18 31 6 31 6 15 -17 -8 -13 -26 -27 -39 -30 -13 -4 -20 -7 -15 -8 5 -1 3
-7 -3 -15 -17 -21 21 -40 64 -32 71 14 97 56 100 161 1 28 7 64 15 81 21 48 7
78 -63 130 -157 120 -167 131 -225 254 -91 195 -119 293 -91 326 6 7 9 35 7
61 l-3 48 50 -5 c28 -3 103 -5 167 -5 109 0 118 1 142 24 21 20 26 34 26 73 0
27 -7 62 -15 77 -20 41 -89 98 -183 154 -74 44 -81 50 -77 75 3 15 9 63 15
107 5 44 16 94 25 112 31 63 -14 126 -104 143 -29 5 -57 12 -62 15 -7 5 -193
36 -208 35 -3 -1 -20 -7 -36 -14z m-197 -1370 c2 -132 1 -140 -24 -194 l-27
-57 -8 60 c-5 33 -14 72 -20 88 -6 15 -9 49 -7 75 6 53 58 173 73 168 6 -1 11
-60 13 -140z m-31 -294 c8 -5 6 -17 -8 -42 l-18 -35 -1 43 c0 42 5 48 27 34z"/>
</g>
</svg>
