<?xml version="1.0" standalone="no"?>
<!DOCTYPE svg PUBLIC "-//W3C//DTD SVG 20010904//EN"
 "http://www.w3.org/TR/2001/REC-SVG-20010904/DTD/svg10.dtd">
<svg version="1.0" xmlns="http://www.w3.org/2000/svg"
 width="480.000000pt" height="360.000000pt" viewBox="0 0 480.000000 360.000000"
 preserveAspectRatio="xMidYMid meet">
<metadata>
Created by potrace 1.16, written by Peter Selinger 2001-2019
</metadata>
<rect width="1" height="360" fill="#000000"/>
<rect x="479" width="1" height="360" fill="#000000"/>
<rect width="480" height="1" fill="#000000"/>
<rect y="359" width="480" height="1" fill="#000000"/>
<g transform="translate(0.000000,360.000000) scale(0.100000,-0.100000)"
fill="#000000" stroke="none">
<path d="M0 2834 l0 -766 33 6 c213 45 407 60 677 53 208 -6 378 -22 529 -51
81 -15 76 -18 86 58 8 56 42 96 101 118 33 12 34 14 34 66 0 52 -1 54 -22 48
-45 -14 -144 -18 -170 -7 -35 13 -36 42 -5 94 25 42 141 163 170 179 18 9 19
22 13 189 -7 207 -4 219 71 300 47 51 184 149 207 149 7 0 30 13 52 28 53 39
175 88 252 102 115 20 156 5 324 -121 l80 -60 116 37 c64 20 147 38 183 41 59
5 69 3 88 -16 20 -20 20 -23 6 -58 -21 -49 -94 -133 -166 -189 -32 -26 -59
-51 -59 -56 0 -9 48 -65 139 -162 31 -32 48 -56 39 -53 -10 4 -18 2 -18 -4 0
-6 -7 -6 -20 1 -23 12 -24 6 -9 -37 5 -17 9 -51 7 -74 l-3 -44 -17 35 c-12 26
-17 30 -17 15 -1 -11 -6 -37 -12 -58 -8 -32 -13 -36 -25 -26 -9 7 -14 8 -14 1
0 -6 -12 -25 -26 -42 -23 -26 -25 -35 -16 -55 6 -13 24 -31 41 -41 43 -26 45
-41 9 -77 -23 -23 -31 -41 -31 -64 1 -19 -6 -38 -18 -49 -10 -9 -19 -25 -19
-35 0 -10 -4 -20 -8 -23 -13 -8 -59 -134 -71 -194 -19 -90 -53 -137 -121 -164
l-35 -15 60 -57 c53 -51 79 -67 219 -127 146 -63 160 -67 179 -54 28 20 46 19
87 -5 19 -11 58 -31 85 -45 28 -14 66 -34 85 -44 59 -32 146 -71 157 -71 21 0
45 -39 40 -66 -4 -23 2 -31 62 -67 36 -23 138 -90 227 -148 l160 -107 43 11
c42 11 44 11 70 -20 14 -17 40 -35 56 -39 39 -9 55 -22 55 -46 0 -12 12 -24
35 -34 24 -10 37 -23 41 -42 4 -15 15 -38 26 -51 10 -13 16 -32 13 -42 -4 -13
23 -47 102 -126 160 -160 333 -371 463 -566 l45 -67 68 0 67 0 0 1800 0 1800
-2400 0 -2400 0 0 -766z"/>
<path d="M345 1873 c-79 -7 -247 -35 -296 -49 l-49 -15 0 -904 0 -905 919 0
920 0 22 31 c33 46 69 158 69 215 0 65 -36 421 -55 537 -9 59 -21 98 -34 111
-28 31 -52 83 -45 100 3 8 0 24 -6 35 -8 16 -8 43 1 104 14 101 15 157 2 166
-5 3 -13 15 -18 26 -8 17 -10 14 -13 -17 -4 -44 -14 -48 -30 -13 -13 29 -15
223 -3 298 l8 47 -38 0 c-49 0 -132 31 -194 72 -26 18 -60 40 -74 50 -50 31
-345 84 -611 108 -106 9 -382 11 -475 3z"/>
<path d="M2696 1267 c3 -10 9 -15 12 -12 3 3 0 11 -7 18 -10 9 -11 8 -5 -6z"/>
<path d="M3165 1017 c-14 -24 -25 -50 -25 -58 0 -8 23 -37 50 -64 28 -27 50
-54 50 -60 0 -6 -22 -35 -50 -64 -27 -29 -50 -55 -50 -57 0 -10 171 -2 264 12
l102 16 24 44 c13 26 19 48 14 53 -28 26 -336 221 -348 221 -3 0 -17 -20 -31
-43z"/>
<path d="M3814 496 c-57 -57 -61 -65 -73 -130 -14 -80 -42 -141 -72 -157 -27
-14 -72 -3 -249 61 -146 52 -247 71 -485 90 -71 5 -140 11 -151 13 -16 1 -35
-15 -73 -62 -28 -35 -51 -71 -51 -80 0 -9 5 -64 12 -124 l11 -107 859 0 859 0
-76 99 c-134 175 -413 465 -442 459 -4 -1 -35 -29 -69 -62z"/>
</g>
</svg>
