<?xml version="1.0" standalone="no"?>
<!DOCTYPE svg PUBLIC "-//W3C//DTD SVG 20010904//EN"
 "http://www.w3.org/TR/2001/REC-SVG-20010904/DTD/svg10.dtd">
<svg version="1.0" xmlns="http://www.w3.org/2000/svg"
 width="480.000000pt" height="360.000000pt" viewBox="0 0 480.000000 360.000000"
 preserveAspectRatio="xMidYMid meet">
<metadata>
Created by potrace 1.16, written by Peter Selinger 2001-2019
</metadata>
<rect width="1" height="360" fill="#000000"/>
<rect x="479" width="1" height="360" fill="#000000"/>
<rect width="480" height="1" fill="#000000"/>
<rect y="359" width="480" height="1" fill="#000000"/>
<g transform="translate(0.000000,360.000000) scale(0.100000,-0.100000)"
fill="#000000" stroke="none">
<path d="M0 1800 l0 -1800 1004 0 1004 0 7 128 c3 70 16 183 27 252 17 100 19
148 14 238 -5 86 -3 128 9 172 11 44 12 65 5 86 -17 45 -31 178 -34 324 -2
107 -7 143 -21 173 -10 20 -22 37 -26 37 -4 0 -22 -19 -40 -43 -50 -65 -121
-137 -151 -153 -40 -21 -87 -17 -164 12 -83 31 -207 60 -294 69 -89 9 -98 12
-115 45 -8 15 -26 31 -41 34 -22 6 -25 11 -22 36 5 33 4 33 -106 45 -76 9
-127 27 -181 66 -70 50 -102 157 -62 206 14 19 27 5 27 -30 l0 -32 21 42 c25
51 46 70 60 56 8 -8 6 -20 -5 -41 -18 -36 -20 -52 -6 -52 6 0 10 7 10 15 0 15
38 55 52 55 4 0 5 -25 2 -55 -4 -30 -3 -55 1 -55 5 0 23 11 42 26 36 27 54 25
46 -6 -4 -13 0 -20 9 -20 9 0 42 -13 74 -30 l59 -29 21 20 c17 16 26 18 41 11
11 -6 37 -8 59 -5 33 4 53 -1 110 -30 73 -37 245 -97 276 -97 12 0 24 12 33
34 8 18 37 75 65 126 44 82 49 97 43 133 -6 40 -6 40 86 127 82 77 93 92 106
141 12 46 24 64 85 122 57 55 70 73 70 98 0 26 -3 30 -17 24 -43 -18 -51 -15
-101 37 -29 29 -52 59 -52 65 0 7 -13 19 -30 28 -31 16 -37 29 -20 40 23 14
28 40 14 65 l-15 25 6 -29 6 -29 -36 31 c-20 18 -46 32 -58 32 -27 1 -77 63
-77 97 0 12 -4 23 -10 23 -5 0 -10 -4 -10 -10 0 -5 -4 -10 -9 -10 -9 0 26 125
65 230 17 45 37 76 64 100 l39 35 -14 60 c-25 102 -25 102 49 110 50 6 72 4
97 -9 49 -25 78 -8 112 63 15 33 45 79 67 103 36 41 39 42 53 24 13 -18 16
-17 63 19 l49 37 45 -49 c57 -62 138 -216 146 -276 5 -35 2 -53 -11 -73 -16
-25 -16 -28 -1 -36 24 -13 89 -115 114 -178 38 -94 69 -229 92 -395 12 -88 28
-207 36 -263 14 -103 89 -342 154 -492 16 -36 35 -90 43 -120 32 -115 27 -187
-8 -120 -19 37 -35 39 -36 3 -4 -72 -1 -92 19 -146 29 -77 28 -105 -13 -260
-21 -78 -39 -179 -45 -247 -11 -110 -12 -116 -41 -141 -30 -24 -31 -29 -40
-135 -5 -60 -14 -127 -21 -149 -13 -42 -17 -260 -5 -308 l7 -27 965 0 965 0 0
1800 0 1800 -2400 0 -2400 0 0 -1800z"/>
<path d="M2073 1174 c7 -98 15 -134 28 -134 23 0 1 202 -23 216 -8 5 -9 -19
-5 -82z"/>
</g>
</svg>
