<?xml version="1.0" standalone="no"?>
<!DOCTYPE svg PUBLIC "-//W3C//DTD SVG 20010904//EN"
 "http://www.w3.org/TR/2001/REC-SVG-20010904/DTD/svg10.dtd">
<svg version="1.0" xmlns="http://www.w3.org/2000/svg"
 width="480.000000pt" height="360.000000pt" viewBox="0 0 480.000000 360.000000"
 preserveAspectRatio="xMidYMid meet">
<metadata>
Created by potrace 1.16, written by Peter Selinger 2001-2019
</metadata>
<rect width="1" height="360" fill="#000000"/>
<rect x="479" width="1" height="360" fill="#000000"/>
<rect width="480" height="1" fill="#000000"/>
<rect y="359" width="480" height="1" fill="#000000"/>
<g transform="translate(0.000000,360.000000) scale(0.100000,-0.100000)"
fill="#000000" stroke="none">
<path d="M2360 3321 c0 -5 15 -19 33 -30 18 -11 42 -30 53 -42 19 -22 19 -22
-6 -16 -64 15 -172 18 -240 8 -96 -15 -153 -48 -193 -112 -16 -27 -35 -49 -41
-50 -11 -1 -19 -2 -81 -13 -37 -7 -98 -57 -88 -71 5 -6 21 -21 37 -33 26 -20
30 -20 57 -7 l28 15 -20 -35 c-19 -32 -20 -35 -4 -42 17 -6 17 -7 1 -19 -11
-7 -19 -30 -21 -58 -3 -45 -3 -47 39 -71 24 -14 52 -25 62 -25 33 0 44 -21 44
-84 1 -34 5 -92 10 -131 9 -69 8 -71 -19 -100 -16 -16 -33 -45 -40 -64 -16
-49 -14 -226 3 -259 15 -30 36 -170 36 -243 0 -26 -7 -77 -15 -114 -9 -36 -29
-172 -45 -303 -16 -130 -54 -410 -85 -622 -30 -212 -61 -455 -69 -540 -9 -85
-18 -179 -21 -208 l-5 -52 530 0 530 0 0 40 c0 55 -29 254 -115 785 -108 665
-107 656 -102 662 3 2 8 -9 12 -26 12 -56 28 -48 21 10 -4 30 -9 79 -11 111
-4 53 -2 57 20 62 14 4 33 15 43 26 18 20 19 19 66 -35 26 -30 54 -55 62 -55
21 0 19 4 -35 59 -45 46 -131 164 -131 180 0 4 27 5 60 3 81 -6 105 10 125 86
9 31 28 89 42 127 15 39 26 88 25 110 -1 31 8 54 43 109 25 38 45 75 45 81 0
17 -279 228 -294 222 -8 -3 -18 -1 -24 5 -11 11 -53 -25 -79 -67 -10 -16 -11
3 -6 95 3 63 9 117 13 120 4 3 19 24 33 47 14 23 31 44 37 48 15 9 12 36 -5
55 -14 16 -14 17 9 13 14 -3 39 1 55 8 29 13 30 14 15 38 -13 19 -14 25 -3 32
19 13 -41 68 -82 76 -25 5 -36 17 -65 74 -19 38 -34 75 -34 82 0 20 -74 102
-114 126 -34 21 -96 29 -96 12z"/>
</g>
</svg>
