<?xml version="1.0" standalone="no"?>
<!DOCTYPE svg PUBLIC "-//W3C//DTD SVG 20010904//EN"
 "http://www.w3.org/TR/2001/REC-SVG-20010904/DTD/svg10.dtd">
<svg version="1.0" xmlns="http://www.w3.org/2000/svg"
 width="480.000000pt" height="360.000000pt" viewBox="0 0 480.000000 360.000000"
 preserveAspectRatio="xMidYMid meet">
<metadata>
Created by potrace 1.16, written by Peter Selinger 2001-2019
</metadata>
<rect width="1" height="360" fill="#000000"/>
<rect x="479" width="1" height="360" fill="#000000"/>
<rect width="480" height="1" fill="#000000"/>
<rect y="359" width="480" height="1" fill="#000000"/>
<g transform="translate(0.000000,360.000000) scale(0.100000,-0.100000)"
fill="#000000" stroke="none">
<path d="M0 1800 l0 -1800 879 0 c864 0 879 0 874 19 -4 16 7 26 54 49 l58 30
-30 13 c-57 26 -96 74 -116 141 -9 31 5 159 41 383 9 52 7 62 -9 80 -18 20
-18 22 11 122 l30 102 -27 36 c-54 70 -43 159 43 332 51 104 98 165 144 189
16 8 64 25 106 37 70 20 77 24 83 52 4 17 7 123 8 236 1 159 -2 216 -14 248
-31 88 -57 263 -51 337 l7 71 -119 6 c-66 3 -145 3 -177 0 -54 -6 -58 -5 -51
13 14 35 101 157 154 215 l53 58 -46 45 c-25 25 -45 50 -45 55 0 15 29 28 78
36 23 4 42 10 42 14 0 3 -11 50 -24 103 -34 132 -43 218 -24 218 8 0 25 -12
38 -27 106 -123 218 -238 230 -236 8 1 42 9 75 17 130 34 593 48 693 22 30 -7
74 -11 99 -8 43 5 53 12 151 113 94 98 135 126 117 80 -4 -9 -10 -65 -15 -126
-5 -60 -12 -137 -16 -171 -8 -71 7 -94 60 -94 63 0 327 -77 334 -98 3 -11
-176 -74 -250 -87 -42 -8 -49 -20 -18 -28 27 -7 25 -21 -3 -34 -22 -10 -65
-18 -227 -40 -52 -8 -55 -10 -58 -38 -2 -16 3 -43 12 -60 32 -62 63 -382 72
-745 8 -286 5 -275 100 -422 66 -102 83 -141 90 -202 6 -48 3 -63 -21 -110
l-27 -54 21 -65 c15 -45 20 -77 16 -101 -7 -36 45 -295 68 -345 7 -15 25 -28
45 -33 27 -7 32 -13 32 -37 0 -16 -7 -48 -15 -71 -12 -34 -13 -55 -5 -104 5
-33 10 -78 10 -98 l0 -38 630 0 630 0 0 1800 0 1800 -2400 0 -2400 0 0 -1800z"/>
<path d="M2280 243 c0 -15 -3 -38 -6 -50 -5 -17 -2 -23 10 -23 12 0 16 10 16
44 0 25 -4 48 -10 51 -6 4 -10 -6 -10 -22z"/>
<path d="M2080 164 l-25 -15 25 7 c28 7 35 12 29 18 -2 2 -15 -2 -29 -10z"/>
</g>
</svg>
