<?xml version="1.0" standalone="no"?>
<!DOCTYPE svg PUBLIC "-//W3C//DTD SVG 20010904//EN"
 "http://www.w3.org/TR/2001/REC-SVG-20010904/DTD/svg10.dtd">
<svg version="1.0" xmlns="http://www.w3.org/2000/svg"
 width="480.000000pt" height="360.000000pt" viewBox="0 0 480.000000 360.000000"
 preserveAspectRatio="xMidYMid meet">
<metadata>
Created by potrace 1.16, written by Peter Selinger 2001-2019
</metadata>
<rect width="1" height="360" fill="#000000"/>
<rect x="479" width="1" height="360" fill="#000000"/>
<rect width="480" height="1" fill="#000000"/>
<rect y="359" width="480" height="1" fill="#000000"/>
<g transform="translate(0.000000,360.000000) scale(0.100000,-0.100000)"
fill="#000000" stroke="none">
<path d="M2446 3538 c-9 -12 -16 -28 -16 -34 0 -7 -13 -15 -29 -19 -41 -9
-101 -77 -101 -114 0 -17 -4 -33 -10 -36 -22 -14 -3 -118 26 -141 9 -7 33 -9
59 -6 25 2 45 2 45 -2 0 -4 -9 -24 -20 -46 -11 -22 -20 -59 -20 -83 l0 -44
-55 -7 c-30 -3 -65 -11 -79 -17 -64 -30 -76 -173 -20 -247 15 -20 34 -42 42
-47 10 -8 3 -16 -32 -33 -26 -12 -46 -26 -46 -32 0 -6 -8 -14 -17 -18 -37 -15
-135 -130 -144 -169 -14 -62 -10 -90 16 -121 22 -27 29 -29 61 -22 19 5 38 11
41 14 4 3 13 0 22 -8 24 -20 71 -29 71 -13 0 7 6 22 14 32 13 18 14 18 38 -8
14 -15 30 -27 36 -27 6 0 18 -12 26 -28 16 -31 9 -56 -38 -130 -30 -47 -33
-84 -10 -103 19 -16 16 -52 -15 -164 -26 -90 -35 -147 -56 -321 -17 -148 -30
-189 -108 -334 -57 -104 -68 -118 -126 -160 -159 -113 -225 -166 -252 -203
-31 -43 -45 -93 -35 -132 8 -33 155 -195 177 -195 9 0 19 -6 22 -14 5 -13 98
-32 172 -35 17 -1 99 -4 183 -7 145 -6 152 -7 157 -27 3 -12 21 -95 40 -185
19 -90 40 -183 46 -208 l11 -44 209 0 209 0 0 34 c0 25 -8 42 -32 65 l-31 31
12 147 c7 82 15 160 18 175 7 34 45 43 70 16 15 -16 30 -19 122 -17 67 1 116
7 134 16 16 8 40 12 56 8 32 -7 278 54 337 83 64 32 177 74 199 74 11 0 40 -3
64 -8 40 -6 43 -6 37 13 -5 15 -1 22 14 26 14 3 19 12 18 28 -2 17 4 24 26 30
62 17 81 61 52 117 -8 15 -56 68 -107 117 -51 50 -119 122 -150 160 -30 39
-96 108 -145 155 -203 192 -394 389 -423 435 -17 28 -58 73 -90 100 -74 62
-128 127 -153 183 -20 44 -20 45 2 185 30 195 29 191 76 198 78 11 112 48 121
133 4 40 0 62 -17 99 -21 44 -80 107 -100 107 -15 0 -12 26 5 40 24 20 29 91
10 161 -10 35 -19 73 -22 85 -5 20 1 21 201 32 113 7 213 15 222 19 10 4 14
13 10 27 -3 11 2 28 10 38 15 16 12 18 -38 33 -51 14 -61 14 -154 -4 -54 -11
-144 -21 -199 -23 l-100 -3 -30 57 c-17 32 -44 71 -60 88 -41 43 -122 87 -182
100 -50 11 -50 11 -57 56 -13 97 -63 144 -153 144 -42 0 -55 -4 -67 -22z m88
-1450 c8 -30 8 -82 0 -102 -14 -36 -24 -12 -24 54 0 69 12 92 24 48z m150
-1651 c9 -53 19 -272 12 -266 -10 9 -57 281 -51 296 8 22 33 3 39 -30z"/>
</g>
</svg>
