<?xml version="1.0" standalone="no"?>
<!DOCTYPE svg PUBLIC "-//W3C//DTD SVG 20010904//EN"
 "http://www.w3.org/TR/2001/REC-SVG-20010904/DTD/svg10.dtd">
<svg version="1.0" xmlns="http://www.w3.org/2000/svg"
 width="480.000000pt" height="360.000000pt" viewBox="0 0 480.000000 360.000000"
 preserveAspectRatio="xMidYMid meet">
<metadata>
Created by potrace 1.16, written by Peter Selinger 2001-2019
</metadata>
<rect width="1" height="360" fill="#000000"/>
<rect x="479" width="1" height="360" fill="#000000"/>
<rect width="480" height="1" fill="#000000"/>
<rect y="359" width="480" height="1" fill="#000000"/>
<g transform="translate(0.000000,360.000000) scale(0.100000,-0.100000)"
fill="#000000" stroke="none">
<path d="M0 3248 l0 -351 51 99 c73 141 129 234 214 352 70 99 172 223 187
230 5 2 8 8 8 13 0 5 -97 9 -230 9 l-230 0 0 -352z"/>
<path d="M4380 3563 c159 -191 242 -311 349 -508 l71 -130 0 338 0 337 -226 0
-226 0 32 -37z"/>
<path d="M925 3178 c-158 -16 -414 -106 -543 -191 -98 -65 -239 -186 -306
-264 l-76 -88 0 -958 0 -957 56 -111 c96 -192 207 -360 353 -531 l66 -78 1928
0 1929 0 43 48 c136 152 282 366 376 553 l50 97 -3 157 -3 156 -40 -52 c-89
-117 -233 -244 -365 -322 -66 -39 -241 -117 -263 -117 -8 0 -39 -8 -69 -19
-186 -66 -510 -62 -724 8 -83 28 -234 95 -278 123 -11 7 -43 27 -70 44 -178
110 -380 358 -472 579 -77 186 -93 276 -104 565 -10 267 -23 349 -79 495 -167
434 -512 741 -946 839 -150 34 -289 41 -460 24z m358 -1030 c58 -29 122 -93
148 -146 33 -68 34 -207 1 -274 -54 -109 -152 -169 -279 -170 -91 0 -153 23
-216 81 -62 57 -87 119 -86 221 0 103 13 144 67 208 83 99 253 136 365 80z"/>
<path d="M3580 2091 c-147 -31 -259 -152 -280 -302 -13 -93 -6 -137 36 -220
83 -167 283 -231 460 -148 58 28 132 104 162 169 23 48 26 68 26 155 0 84 -3
109 -23 153 -59 131 -241 223 -381 193z"/>
</g>
</svg>
