<?xml version="1.0" standalone="no"?>
<!DOCTYPE svg PUBLIC "-//W3C//DTD SVG 20010904//EN"
 "http://www.w3.org/TR/2001/REC-SVG-20010904/DTD/svg10.dtd">
<svg version="1.0" xmlns="http://www.w3.org/2000/svg"
 width="480.000000pt" height="360.000000pt" viewBox="0 0 480.000000 360.000000"
 preserveAspectRatio="xMidYMid meet">
<metadata>
Created by potrace 1.16, written by Peter Selinger 2001-2019
</metadata>
<rect width="1" height="360" fill="#000000"/>
<rect x="479" width="1" height="360" fill="#000000"/>
<rect width="480" height="1" fill="#000000"/>
<rect y="359" width="480" height="1" fill="#000000"/>
<g transform="translate(0.000000,360.000000) scale(0.100000,-0.100000)"
fill="#000000" stroke="none">
<path d="M0 1800 l0 -1800 474 0 c468 0 474 0 469 20 -4 14 36 77 139 222 357
501 424 608 513 819 78 185 105 277 105 359 0 83 -18 365 -26 399 l-5 24 -22
-20 c-12 -11 -27 -18 -34 -16 -7 2 -21 -1 -32 -7 -26 -14 -26 -11 -2 99 47
209 61 274 59 276 -2 1 -17 7 -35 14 -51 21 -176 212 -213 328 -7 21 -19 47
-26 58 -8 11 -14 28 -14 37 0 10 -5 26 -11 36 -8 12 -9 36 -5 65 6 37 13 50
34 61 25 13 39 10 172 -33 80 -26 162 -55 183 -65 44 -22 74 -13 147 43 89 68
207 105 330 105 63 -1 89 -7 165 -38 101 -41 174 -76 161 -76 -4 0 8 -18 27
-39 46 -51 67 -120 76 -246 4 -55 6 -101 5 -103 -1 -2 -12 1 -23 8 -20 10 -21
8 -23 -42 -1 -29 -1 -70 0 -92 2 -28 -3 -43 -18 -56 -13 -12 -20 -30 -20 -56
0 -35 -1 -36 -14 -19 -14 19 -15 19 -35 1 -15 -13 -19 -26 -15 -50 5 -31 5
-31 -12 -9 -9 13 -20 23 -25 23 -17 0 -9 -37 24 -120 l34 -83 61 -22 c34 -12
79 -35 99 -50 57 -42 123 -107 123 -122 0 -7 9 -17 20 -23 15 -8 20 -21 20
-55 0 -31 10 -66 34 -112 60 -117 63 -148 40 -360 -7 -60 -6 -61 23 -76 16 -9
44 -29 61 -45 29 -27 32 -36 32 -87 0 -53 3 -60 55 -127 30 -38 55 -78 55 -89
0 -10 -14 -35 -32 -54 -28 -33 -32 -44 -32 -98 l0 -62 41 -19 c68 -32 65 -86
-4 -86 -19 0 -43 5 -55 11 -11 6 -22 9 -24 7 -2 -3 4 -83 14 -179 l17 -174
873 -3 872 -2 0 1800 0 1800 -2400 0 -2400 0 0 -1800z"/>
<path d="M2203 599 c-17 -21 -84 -179 -75 -179 4 0 26 29 50 65 33 49 43 71
40 96 -2 27 -5 30 -15 18z"/>
<path d="M1991 349 c-14 -42 -7 -49 9 -9 7 17 10 33 8 36 -3 3 -11 -9 -17 -27z"/>
<path d="M2016 240 c-25 -38 -48 -70 -51 -70 -2 0 3 17 12 38 15 36 15 37 -4
19 -11 -9 -22 -15 -25 -12 -3 3 -14 -14 -24 -39 -20 -49 -30 -57 -37 -28 -3
14 -6 13 -16 -8 -14 -29 -81 -77 -81 -58 0 9 -3 9 -11 1 -6 -6 -17 -9 -23 -7
-10 4 -46 -53 -46 -71 0 -3 61 -5 135 -5 l134 0 11 43 c15 56 45 160 64 220 8
26 14 47 12 47 -2 0 -24 -31 -50 -70z"/>
<path d="M1966 285 c-9 -26 -7 -32 5 -12 6 10 9 21 6 23 -2 3 -7 -2 -11 -11z"/>
</g>
</svg>
