<?xml version="1.0" standalone="no"?>
<!DOCTYPE svg PUBLIC "-//W3C//DTD SVG 20010904//EN"
 "http://www.w3.org/TR/2001/REC-SVG-20010904/DTD/svg10.dtd">
<svg version="1.0" xmlns="http://www.w3.org/2000/svg"
 width="480.000000pt" height="360.000000pt" viewBox="0 0 480.000000 360.000000"
 preserveAspectRatio="xMidYMid meet">
<metadata>
Created by potrace 1.16, written by Peter Selinger 2001-2019
</metadata>
<rect width="1" height="360" fill="#000000"/>
<rect x="479" width="1" height="360" fill="#000000"/>
<rect width="480" height="1" fill="#000000"/>
<rect y="359" width="480" height="1" fill="#000000"/>
<g transform="translate(0.000000,360.000000) scale(0.100000,-0.100000)"
fill="#000000" stroke="none">
<path d="M0 1800 l0 -1800 2400 0 2400 0 0 1800 0 1800 -2400 0 -2400 0 0
-1800z m2020 724 c71 -8 100 -26 100 -62 0 -16 -4 -32 -10 -38 -8 -8 -39 -135
-57 -234 -3 -14 2 -53 11 -87 9 -33 16 -72 16 -85 0 -27 66 -168 112 -241 17
-26 29 -49 27 -51 -30 -22 -82 -46 -101 -46 -14 0 -39 -5 -56 -11 -35 -12 -35
-24 -6 -98 17 -40 18 -67 4 -76 -19 -12 -36 13 -50 70 -14 58 -29 64 -31 12
-1 -28 -2 -27 -8 10 -4 24 -11 46 -14 50 -4 4 -42 2 -85 -4 -42 -6 -80 -9 -84
-7 -5 3 -8 17 -9 32 0 15 -6 43 -12 62 -11 29 -10 44 5 93 26 84 24 229 -3
310 -34 102 -71 155 -164 236 l-39 33 31 28 c30 27 87 50 126 50 10 0 32 8 50
17 55 31 121 50 157 47 19 -2 60 -6 90 -10z m-16 -1033 c-6 -6 -11 1 -18 29
l-7 25 15 -25 c8 -14 12 -27 10 -29z"/>
</g>
</svg>
