<?xml version="1.0" standalone="no"?>
<!DOCTYPE svg PUBLIC "-//W3C//DTD SVG 20010904//EN"
 "http://www.w3.org/TR/2001/REC-SVG-20010904/DTD/svg10.dtd">
<svg version="1.0" xmlns="http://www.w3.org/2000/svg"
 width="480.000000pt" height="360.000000pt" viewBox="0 0 480.000000 360.000000"
 preserveAspectRatio="xMidYMid meet">
<metadata>
Created by potrace 1.16, written by Peter Selinger 2001-2019
</metadata>
<rect width="1" height="360" fill="#000000"/>
<rect x="479" width="1" height="360" fill="#000000"/>
<rect width="480" height="1" fill="#000000"/>
<rect y="359" width="480" height="1" fill="#000000"/>
<g transform="translate(0.000000,360.000000) scale(0.100000,-0.100000)"
fill="#000000" stroke="none">
<path d="M0 1800 l0 -1800 1016 0 c826 0 1014 2 1006 13 -7 8 -7 18 -2 27 14
23 12 30 -12 40 -22 8 -22 9 4 9 37 1 44 19 14 33 -14 6 -26 16 -26 22 0 6 26
58 59 116 58 105 94 221 116 375 18 122 -2 382 -39 531 -35 135 -35 237 0 319
14 33 26 71 25 84 -1 13 12 47 29 75 25 44 28 60 24 103 -4 49 -3 52 28 71 67
42 88 73 95 144 7 78 -6 103 -119 217 -25 26 -25 28 -10 54 15 25 15 28 -1 44
-10 11 -17 13 -17 5 0 -26 -41 -11 -61 23 -12 19 -25 33 -29 30 -5 -3 -14 11
-20 31 -8 23 -15 32 -20 24 -5 -8 -10 -3 -14 15 -8 30 24 155 53 213 25 49
106 124 168 156 97 48 166 66 265 66 107 0 140 -12 233 -87 48 -39 67 -64 101
-133 63 -126 86 -255 99 -545 4 -77 22 -250 40 -385 19 -135 39 -330 45 -435
5 -104 15 -244 21 -310 8 -81 9 -253 5 -532 l-7 -413 866 0 865 0 0 1800 0
1800 -2400 0 -2400 0 0 -1800z"/>
</g>
</svg>
