<?xml version="1.0" standalone="no"?>
<!DOCTYPE svg PUBLIC "-//W3C//DTD SVG 20010904//EN"
 "http://www.w3.org/TR/2001/REC-SVG-20010904/DTD/svg10.dtd">
<svg version="1.0" xmlns="http://www.w3.org/2000/svg"
 width="480.000000pt" height="360.000000pt" viewBox="0 0 480.000000 360.000000"
 preserveAspectRatio="xMidYMid meet">
<metadata>
Created by potrace 1.16, written by Peter Selinger 2001-2019
</metadata>
<rect width="1" height="360" fill="#000000"/>
<rect x="479" width="1" height="360" fill="#000000"/>
<rect width="480" height="1" fill="#000000"/>
<rect y="359" width="480" height="1" fill="#000000"/>
<g transform="translate(0.000000,360.000000) scale(0.100000,-0.100000)"
fill="#000000" stroke="none">
<path d="M0 1800 l0 -1800 2400 0 2400 0 0 1800 0 1800 -2400 0 -2400 0 0
-1800z m3543 225 c23 -22 30 -69 22 -140 -8 -81 -6 -82 167 -97 138 -11 221
-4 397 36 74 17 97 10 108 -32 13 -44 9 -154 -6 -189 -16 -40 -36 -42 -142
-12 -134 37 -496 36 -520 -2 -5 -8 -9 -49 -9 -91 0 -65 -3 -81 -20 -98 -11
-11 -28 -20 -39 -20 -26 0 -104 29 -112 41 -3 6 -7 45 -8 87 -1 42 -6 81 -12
87 -6 6 -207 10 -567 10 -615 1 -660 4 -827 60 -173 58 -219 77 -204 85 33 19
307 30 827 35 307 3 607 8 668 11 l112 6 7 104 c4 57 12 107 18 111 37 23 121
28 140 8z"/>
</g>
</svg>
