<?xml version="1.0" standalone="no"?>
<!DOCTYPE svg PUBLIC "-//W3C//DTD SVG 20010904//EN"
 "http://www.w3.org/TR/2001/REC-SVG-20010904/DTD/svg10.dtd">
<svg version="1.0" xmlns="http://www.w3.org/2000/svg"
 width="480.000000pt" height="360.000000pt" viewBox="0 0 480.000000 360.000000"
 preserveAspectRatio="xMidYMid meet">
<metadata>
Created by potrace 1.16, written by Peter Selinger 2001-2019
</metadata>
<rect width="1" height="360" fill="#000000"/>
<rect x="479" width="1" height="360" fill="#000000"/>
<rect width="480" height="1" fill="#000000"/>
<rect y="359" width="480" height="1" fill="#000000"/>
<g transform="translate(0.000000,360.000000) scale(0.100000,-0.100000)"
fill="#000000" stroke="none">
<path d="M3131 3524 c-29 -42 -55 -74 -58 -71 -2 3 0 15 7 26 24 46 -4 41 -49
-8 -45 -48 -71 -63 -71 -41 0 22 -29 8 -63 -29 -47 -52 -61 -106 -54 -209 l6
-83 -122 -130 c-67 -72 -135 -151 -152 -175 -51 -74 -86 -69 -59 9 14 40 14
53 3 79 -22 53 -105 86 -148 59 -12 -8 -12 -13 0 -33 18 -28 5 -76 -29 -108
-12 -12 -22 -27 -22 -35 0 -15 -13 -20 -75 -30 -22 -3 -53 -11 -70 -17 -31
-12 -235 -155 -235 -165 0 -3 10 -3 21 0 l21 6 -20 -22 c-27 -31 -44 -65 -33
-71 4 -3 6 -28 3 -55 -8 -88 18 -161 53 -147 15 5 40 -47 31 -63 -4 -6 -23
-13 -42 -17 -45 -8 -52 -28 -24 -66 15 -21 19 -33 12 -40 -18 -18 -37 -2 -52
42 -22 67 -82 141 -143 178 -145 87 -294 80 -418 -20 -47 -37 -69 -32 -163 39
-117 89 -273 121 -426 89 -252 -53 -404 -248 -404 -516 0 -213 107 -425 252
-499 136 -69 363 -67 491 4 52 30 54 30 43 8 -5 -10 -10 -53 -10 -95 -1 -88
14 -106 49 -58 21 28 22 28 47 12 14 -9 32 -17 41 -17 8 0 18 -13 23 -30 9
-34 -6 -188 -27 -268 -7 -29 -18 -88 -25 -132 -12 -81 -26 -145 -54 -245 -9
-30 -16 -71 -16 -90 -1 -32 -13 -106 -40 -235 -7 -35 -7 -80 1 -152 l12 -103
63 0 c73 0 70 -5 53 100 -7 37 -9 88 -5 113 l7 44 75 6 c95 7 150 33 267 127
48 38 91 70 94 70 4 0 18 10 32 23 22 19 23 19 11 2 -8 -11 -27 -35 -44 -53
-16 -17 -25 -32 -19 -32 6 0 16 7 23 16 8 8 22 20 32 25 11 6 -28 -46 -86
-115 -64 -76 -101 -128 -95 -132 6 -4 14 -3 18 2 11 16 62 45 72 42 5 -2 -12
-33 -38 -70 -25 -38 -43 -71 -39 -75 4 -4 25 3 48 15 22 13 42 21 46 18 3 -3
-11 -30 -31 -59 -21 -30 -37 -57 -37 -60 0 -13 32 -7 58 11 48 33 57 36 33 9
l-25 -27 749 2 749 3 48 125 c83 216 111 316 105 375 -7 67 -44 160 -93 232
-22 31 -138 162 -259 291 -236 252 -232 245 -236 363 -2 60 2 73 33 130 92
164 197 418 228 547 9 38 16 52 26 48 8 -3 14 1 14 11 0 11 6 8 21 -11 11 -14
28 -26 36 -26 19 0 42 29 43 53 0 9 5 17 10 17 6 0 10 5 10 12 0 6 11 34 24
62 25 54 41 125 37 164 -1 13 2 29 8 35 13 16 -2 183 -23 253 -18 56 -44 86
-98 109 -82 34 -151 10 -205 -72 -20 -29 -38 -52 -40 -50 -5 6 65 126 132 227
67 101 221 412 331 668 l14 32 -68 0 -68 0 -53 -76z m-1139 -1643 c5 -31 2
-74 -12 -140 -11 -53 -24 -141 -30 -196 -19 -171 -13 -161 -163 -274 -73 -55
-146 -112 -164 -126 -17 -14 -34 -22 -37 -17 -8 13 -46 169 -46 189 0 10 9 24
21 31 20 13 20 13 -10 48 -32 36 -69 140 -55 154 5 4 41 10 80 12 83 4 174 44
246 107 50 45 103 136 113 196 10 60 13 67 32 63 12 -2 20 -17 25 -47z m-656
-899 c-10 -10 -29 15 -21 28 6 9 10 8 17 -4 6 -10 7 -20 4 -24z m-11 -118 c0
-35 -3 -39 -25 -39 -19 0 -24 5 -22 19 13 72 47 87 47 20z m448 34 c-5 -7 -18
-35 -28 -63 -20 -55 -32 -70 -67 -85 -20 -9 -18 -9 10 -4 37 7 37 8 16 -41
l-15 -37 -101 7 c-80 5 -99 4 -96 -6 3 -8 23 -18 46 -24 22 -5 44 -13 48 -17
4 -4 19 -5 33 -2 l26 6 -25 -21 c-30 -25 -24 -26 23 -6 21 8 38 11 42 6 8 -14
-4 -19 -111 -42 -138 -29 -133 -26 -99 -54 23 -18 26 -25 15 -28 -8 -3 -44
-15 -79 -26 -35 -11 -79 -32 -98 -47 -19 -14 -37 -23 -40 -20 -4 3 4 45 15 94
12 48 22 104 22 124 0 29 19 109 56 231 6 18 7 17 21 -2 20 -29 86 -61 125
-61 40 0 138 45 204 94 50 36 74 46 57 24z m923 -84 c32 -43 276 -246 311
-258 1 -1 -16 -51 -36 -111 -21 -61 -53 -163 -71 -228 -25 -85 -38 -117 -50
-117 -27 0 -138 89 -145 117 -3 14 -15 37 -25 52 -17 23 -21 50 -26 211 -7
184 1 360 15 360 5 0 17 -11 27 -26z m-1409 -115 c-6 -46 -11 -54 -27 -44 -7
4 -9 19 -4 38 8 39 12 47 26 47 7 0 9 -15 5 -41z m-22 -156 c-4 -21 -8 -39 -8
-39 -1 -1 -12 -5 -24 -8 -19 -6 -23 -3 -23 13 0 38 19 71 41 71 19 0 21 -4 14
-37z m-42 -158 c-2 -29 -18 -53 -28 -43 -4 3 -3 22 1 42 7 43 30 43 27 1z m-8
-135 c3 -5 3 -21 -1 -35 -8 -33 -44 -35 -44 -2 0 35 31 60 45 37z m1540 -131
c-11 -17 -35 -9 -35 11 0 18 3 19 20 10 11 -6 18 -15 15 -21z m-1542 -46 c3
-16 3 -32 0 -36 -9 -14 -33 15 -33 39 0 33 26 30 33 -3z m1551 -50 c3 -7 0
-13 -7 -13 -17 0 -37 20 -37 37 0 11 4 11 20 1 11 -7 22 -18 24 -25z"/>
</g>
</svg>
