<?xml version="1.0" standalone="no"?>
<!DOCTYPE svg PUBLIC "-//W3C//DTD SVG 20010904//EN"
 "http://www.w3.org/TR/2001/REC-SVG-20010904/DTD/svg10.dtd">
<svg version="1.0" xmlns="http://www.w3.org/2000/svg"
 width="480.000000pt" height="360.000000pt" viewBox="0 0 480.000000 360.000000"
 preserveAspectRatio="xMidYMid meet">
<metadata>
Created by potrace 1.16, written by Peter Selinger 2001-2019
</metadata>
<rect width="1" height="360" fill="#000000"/>
<rect x="479" width="1" height="360" fill="#000000"/>
<rect width="480" height="1" fill="#000000"/>
<rect y="359" width="480" height="1" fill="#000000"/>
<g transform="translate(0.000000,360.000000) scale(0.100000,-0.100000)"
fill="#000000" stroke="none">
<path d="M0 1800 l0 -1800 2400 0 2400 0 0 935 c0 807 -2 935 -14 935 -8 0
-17 -4 -21 -9 -3 -6 -20 -4 -42 6 -32 13 -89 14 -438 8 -304 -6 -410 -5 -438
4 -48 16 -157 97 -157 116 0 19 109 91 160 106 30 9 118 4 441 -25 494 -44
486 -44 499 -10 6 15 10 314 10 780 l0 754 -2400 0 -2400 0 0 -1800z"/>
</g>
</svg>
