<?xml version="1.0" standalone="no"?>
<!DOCTYPE svg PUBLIC "-//W3C//DTD SVG 20010904//EN"
 "http://www.w3.org/TR/2001/REC-SVG-20010904/DTD/svg10.dtd">
<svg version="1.0" xmlns="http://www.w3.org/2000/svg"
 width="480.000000pt" height="360.000000pt" viewBox="0 0 480.000000 360.000000"
 preserveAspectRatio="xMidYMid meet">
<metadata>
Created by potrace 1.16, written by Peter Selinger 2001-2019
</metadata>
<rect width="1" height="360" fill="#000000"/>
<rect x="479" width="1" height="360" fill="#000000"/>
<rect width="480" height="1" fill="#000000"/>
<rect y="359" width="480" height="1" fill="#000000"/>
<g transform="translate(0.000000,360.000000) scale(0.100000,-0.100000)"
fill="#000000" stroke="none">
<path d="M0 1800 l0 -1800 604 0 605 0 6 48 c12 85 33 197 44 224 8 21 6 31
-9 48 -17 20 -23 21 -47 11 -16 -6 -68 -18 -118 -26 -104 -18 -194 -12 -228
15 -22 18 -22 18 -59 -41 -39 -62 -75 -82 -103 -59 -12 10 -21 10 -41 1 -14
-6 -29 -9 -33 -6 -5 2 -8 33 -8 69 1 60 3 65 30 81 16 10 59 47 96 84 40 40
88 77 121 93 66 30 197 132 234 180 43 57 55 105 43 172 -8 42 -7 84 1 154 15
123 15 173 -3 297 -20 137 -19 215 6 341 23 120 101 364 153 476 18 40 50 95
70 121 l37 49 -17 44 c-22 59 -15 123 20 169 39 51 71 68 125 69 92 2 181 -95
168 -182 -6 -35 -4 -38 43 -69 27 -18 83 -72 126 -120 81 -93 323 -401 368
-468 32 -48 159 -204 166 -204 8 0 106 120 152 186 75 107 386 479 458 547 38
36 87 75 108 87 38 22 39 25 38 75 -1 92 75 164 173 164 50 0 57 -3 96 -43 62
-62 72 -106 40 -186 l-24 -62 43 -64 c72 -105 166 -372 201 -574 20 -113 19
-277 -2 -376 -12 -57 -17 -132 -18 -260 -1 -99 -5 -199 -9 -221 -14 -69 7
-109 105 -206 51 -50 100 -90 116 -94 79 -19 173 -91 256 -196 20 -25 53 -56
72 -68 19 -12 35 -30 35 -39 0 -31 -78 -141 -99 -141 -38 0 -51 13 -117 116
-36 58 -71 103 -78 101 -6 -2 -18 -30 -26 -62 -13 -52 -19 -60 -50 -71 -48
-17 -100 -17 -193 1 -43 8 -85 15 -92 15 -17 0 -24 -98 -12 -157 l9 -43 609 0
609 0 0 1800 0 1800 -2400 0 -2400 0 0 -1800z"/>
<path d="M1287 43 c-11 -10 -8 -43 3 -43 6 0 10 11 10 25 0 26 -2 29 -13 18z"/>
</g>
</svg>
