<?xml version="1.0" standalone="no"?>
<!DOCTYPE svg PUBLIC "-//W3C//DTD SVG 20010904//EN"
 "http://www.w3.org/TR/2001/REC-SVG-20010904/DTD/svg10.dtd">
<svg version="1.0" xmlns="http://www.w3.org/2000/svg"
 width="480.000000pt" height="360.000000pt" viewBox="0 0 480.000000 360.000000"
 preserveAspectRatio="xMidYMid meet">
<metadata>
Created by potrace 1.16, written by Peter Selinger 2001-2019
</metadata>
<rect width="1" height="360" fill="#000000"/>
<rect x="479" width="1" height="360" fill="#000000"/>
<rect width="480" height="1" fill="#000000"/>
<rect y="359" width="480" height="1" fill="#000000"/>
<g transform="translate(0.000000,360.000000) scale(0.100000,-0.100000)"
fill="#000000" stroke="none">
<path d="M2160 961 c0 -5 17 -20 38 -32 49 -30 48 -29 32 -39 -12 -8 -9 -15
19 -39 32 -27 33 -30 18 -46 -30 -30 -21 -65 29 -112 26 -24 45 -43 42 -43 -2
0 -47 13 -98 30 -92 29 -160 38 -160 22 0 -4 33 -18 73 -31 39 -13 83 -30 97
-38 l25 -14 -30 6 c-65 14 -128 17 -121 6 4 -6 15 -11 24 -12 9 0 35 -9 57
-19 l40 -19 -35 0 c-39 -1 -165 -24 -192 -36 -10 -4 -18 -18 -18 -31 0 -31 44
-53 138 -70 76 -13 182 -52 182 -66 0 -4 -5 -8 -12 -8 -25 0 -118 -51 -137
-76 -11 -14 -39 -39 -63 -56 -51 -37 -58 -46 -58 -75 0 -29 44 -43 101 -33 24
5 96 11 159 15 102 6 119 4 154 -13 38 -19 39 -20 15 -26 -50 -14 -156 -69
-167 -87 -12 -19 7 -19 855 -18 478 1 855 5 838 9 -16 4 -68 20 -115 35 -47
15 -132 40 -190 55 -58 16 -118 33 -133 39 -41 16 -64 14 -87 -9 -11 -11 -23
-20 -26 -20 -3 0 -28 19 -56 43 -190 160 -290 240 -368 292 -30 20 -81 60
-113 88 -32 28 -86 66 -120 85 -34 19 -75 46 -92 61 -47 43 -185 134 -319 211
-102 58 -226 97 -226 71z"/>
</g>
</svg>
