<?xml version="1.0" standalone="no"?>
<!DOCTYPE svg PUBLIC "-//W3C//DTD SVG 20010904//EN"
 "http://www.w3.org/TR/2001/REC-SVG-20010904/DTD/svg10.dtd">
<svg version="1.0" xmlns="http://www.w3.org/2000/svg"
 width="480.000000pt" height="360.000000pt" viewBox="0 0 480.000000 360.000000"
 preserveAspectRatio="xMidYMid meet">
<metadata>
Created by potrace 1.16, written by Peter Selinger 2001-2019
</metadata>
<rect width="1" height="360" fill="#000000"/>
<rect x="479" width="1" height="360" fill="#000000"/>
<rect width="480" height="1" fill="#000000"/>
<rect y="359" width="480" height="1" fill="#000000"/>
<g transform="translate(0.000000,360.000000) scale(0.100000,-0.100000)"
fill="#000000" stroke="none">
<path d="M2072 3538 c21 -153 52 -323 79 -442 35 -148 38 -248 14 -369 -22
-113 -19 -175 10 -254 14 -37 27 -71 28 -76 1 -4 -23 -18 -53 -31 -30 -13 -92
-47 -137 -77 -45 -30 -101 -65 -124 -79 -84 -51 -125 -101 -153 -188 -43 -136
-85 -237 -142 -341 -47 -86 -59 -101 -90 -111 -25 -9 -43 -9 -66 -1 -43 15
-84 14 -102 -4 -8 -8 -19 -15 -25 -15 -5 0 -17 -7 -25 -16 -12 -12 -13 -20 -5
-35 9 -18 7 -19 -15 -13 -37 9 -34 -19 5 -44 24 -15 27 -20 15 -25 -32 -12
-15 -27 31 -27 67 0 182 35 300 90 88 42 107 47 134 40 59 -17 69 -4 124 168
20 62 57 156 83 209 l47 96 100 39 c65 25 118 53 150 80 99 81 198 110 227 66
20 -31 22 -92 2 -84 -8 3 -14 1 -14 -4 0 -6 -11 -10 -24 -10 -34 0 -53 -22
-61 -72 -4 -24 -13 -57 -20 -74 -10 -23 -10 -35 -2 -43 8 -8 5 -11 -11 -11
-12 0 -39 -15 -59 -32 -21 -18 -60 -44 -86 -58 -48 -25 -100 -72 -178 -162
-31 -36 -40 -54 -37 -73 3 -14 1 -25 -4 -25 -5 0 -7 -27 -5 -60 4 -60 25 -100
53 -100 7 0 68 18 136 40 119 39 123 40 157 24 27 -13 51 -15 118 -10 l84 7
52 -54 c102 -106 190 -147 318 -147 171 0 236 39 276 165 12 39 31 102 43 141
21 76 61 139 110 175 16 13 30 26 30 29 0 4 -20 4 -44 0 -43 -6 -84 -25 -199
-90 -32 -18 -62 -28 -66 -24 -5 5 -17 34 -27 64 -10 30 -24 65 -30 78 -7 13
-11 30 -10 37 1 8 47 53 102 101 203 177 264 242 264 279 0 19 -5 25 -21 25
-16 0 -19 4 -14 22 6 17 4 20 -9 15 -9 -4 -16 -2 -16 3 0 9 -57 25 -77 21 -7
-1 -13 3 -13 9 0 13 -38 4 -60 -15 -8 -7 -29 -16 -47 -20 -17 -3 -37 -13 -43
-21 -7 -7 -16 -12 -20 -9 -11 7 13 112 37 165 18 38 92 135 136 177 108 103
137 134 137 148 0 11 -5 15 -16 11 -31 -12 4 58 68 132 40 47 97 165 120 247
10 38 22 79 25 90 5 18 4 19 -12 5 -17 -14 -17 -13 -11 10 l7 25 -18 -25 c-31
-43 -62 -75 -63 -65 0 6 18 37 39 69 57 85 38 97 -38 27 -18 -17 -35 -31 -37
-31 -2 0 14 28 36 62 39 59 49 88 32 88 -5 0 -19 -11 -32 -25 -29 -31 -40 -32
-32 -2 5 20 2 19 -32 -10 -41 -37 -51 -41 -42 -17 4 12 2 15 -9 10 -8 -3 -15
-1 -15 4 0 25 -36 4 -101 -60 -40 -38 -76 -70 -82 -70 -5 0 -6 15 -2 37 19
103 11 161 -15 105 -12 -25 -13 -26 -20 -7 -6 17 -11 13 -32 -28 l-24 -49 -13
44 c-14 48 -37 88 -50 88 -5 0 -11 -37 -12 -83 -4 -79 -6 -87 -47 -148 -41
-60 -43 -62 -37 -29 16 86 24 234 14 247 -13 15 -27 8 -40 -21 -6 -14 -7 3 -3
51 7 82 -2 109 -22 72 -12 -22 -13 -19 -7 26 3 28 12 62 19 77 8 15 14 29 14
33 0 3 -177 5 -393 5 l-394 0 9 -62z m545 -478 c3 -13 1 -49 -6 -80 -7 -30
-14 -63 -14 -72 -2 -33 -13 -18 -36 47 -20 56 -21 69 -11 102 19 57 31 69 47
46 8 -10 17 -29 20 -43z"/>
</g>
</svg>
