<?xml version="1.0" standalone="no"?>
<!DOCTYPE svg PUBLIC "-//W3C//DTD SVG 20010904//EN"
 "http://www.w3.org/TR/2001/REC-SVG-20010904/DTD/svg10.dtd">
<svg version="1.0" xmlns="http://www.w3.org/2000/svg"
 width="480.000000pt" height="360.000000pt" viewBox="0 0 480.000000 360.000000"
 preserveAspectRatio="xMidYMid meet">
<metadata>
Created by potrace 1.16, written by Peter Selinger 2001-2019
</metadata>
<rect width="1" height="360" fill="#000000"/>
<rect x="479" width="1" height="360" fill="#000000"/>
<rect width="480" height="1" fill="#000000"/>
<rect y="359" width="480" height="1" fill="#000000"/>
<g transform="translate(0.000000,360.000000) scale(0.100000,-0.100000)"
fill="#000000" stroke="none">
<path d="M0 1800 l0 -1800 955 0 c525 0 955 3 955 7 0 4 -25 39 -55 78 -94
123 -100 146 -66 270 11 39 24 106 30 150 6 44 14 92 17 107 l6 28 -41 -15
c-23 -8 -73 -21 -112 -29 -85 -17 -119 -9 -119 28 0 46 103 110 275 171 79 28
94 38 123 76 18 24 43 58 56 75 28 36 151 98 216 109 49 9 114 8 142 -1 17 -5
18 51 18 1270 l0 1276 -1200 0 -1200 0 0 -1800z"/>
<path d="M2446 1042 c-3 -5 -15 -8 -26 -5 -20 5 -20 0 -20 -516 l0 -521 255 0
c243 0 255 1 255 19 0 10 18 41 40 67 78 95 86 197 23 317 -23 44 -27 65 -27
134 -1 46 0 83 0 83 1 0 26 -11 57 -25 138 -61 227 -65 227 -11 0 49 -112 124
-330 220 -19 9 -75 52 -125 96 -117 104 -158 125 -233 116 -50 -6 -58 -4 -73
15 -10 13 -19 18 -23 11z"/>
</g>
</svg>
