<?xml version="1.0" standalone="no"?>
<!DOCTYPE svg PUBLIC "-//W3C//DTD SVG 20010904//EN"
 "http://www.w3.org/TR/2001/REC-SVG-20010904/DTD/svg10.dtd">
<svg version="1.0" xmlns="http://www.w3.org/2000/svg"
 width="480.000000pt" height="360.000000pt" viewBox="0 0 480.000000 360.000000"
 preserveAspectRatio="xMidYMid meet">
<metadata>
Created by potrace 1.16, written by Peter Selinger 2001-2019
</metadata>
<rect width="1" height="360" fill="#000000"/>
<rect x="479" width="1" height="360" fill="#000000"/>
<rect width="480" height="1" fill="#000000"/>
<rect y="359" width="480" height="1" fill="#000000"/>
<g transform="translate(0.000000,360.000000) scale(0.100000,-0.100000)"
fill="#000000" stroke="none">
<path d="M2135 2364 c-343 -35 -568 -91 -985 -244 -467 -172 -835 -275 -1093
-306 l-57 -6 0 -49 c0 -42 3 -49 19 -49 28 0 257 -47 338 -69 37 -11 178 -49
313 -86 135 -36 367 -100 515 -140 634 -174 822 -204 1262 -206 491 -1 805 66
1483 319 288 107 414 146 545 171 100 19 264 41 308 41 13 0 17 8 17 34 l0 33
-87 18 c-132 26 -243 56 -513 140 -578 180 -1110 334 -1259 364 -238 49 -540
63 -806 35z m245 -113 c30 -5 97 -12 147 -15 l93 -6 72 -72 c40 -40 96 -89
123 -108 l50 -35 8 -85 c5 -49 19 -111 33 -146 29 -73 30 -97 5 -132 -34 -49
-68 -126 -81 -182 -7 -31 -17 -63 -24 -71 -6 -8 -40 -27 -76 -42 -36 -15 -83
-41 -105 -57 -116 -86 -109 -82 -156 -70 -23 7 -97 15 -164 19 -119 7 -122 8
-151 38 -16 16 -72 69 -125 117 -90 81 -97 90 -103 134 -3 26 -17 96 -30 156
l-23 110 39 85 c22 47 51 110 64 139 13 29 24 57 24 62 0 5 26 22 58 38 31 16
98 54 147 85 50 31 97 54 105 52 8 -2 40 -8 70 -14z"/>
</g>
</svg>
