<?xml version="1.0" standalone="no"?>
<!DOCTYPE svg PUBLIC "-//W3C//DTD SVG 20010904//EN"
 "http://www.w3.org/TR/2001/REC-SVG-20010904/DTD/svg10.dtd">
<svg version="1.0" xmlns="http://www.w3.org/2000/svg"
 width="480.000000pt" height="360.000000pt" viewBox="0 0 480.000000 360.000000"
 preserveAspectRatio="xMidYMid meet">
<metadata>
Created by potrace 1.16, written by Peter Selinger 2001-2019
</metadata>
<rect width="1" height="360" fill="#000000"/>
<rect x="479" width="1" height="360" fill="#000000"/>
<rect width="480" height="1" fill="#000000"/>
<rect y="359" width="480" height="1" fill="#000000"/>
<g transform="translate(0.000000,360.000000) scale(0.100000,-0.100000)"
fill="#000000" stroke="none">
<path d="M0 1800 l0 -1800 2400 0 2400 0 0 1800 0 1800 -1167 0 -1168 0 -2
-163 c-1 -115 -9 -215 -27 -342 -14 -99 -27 -200 -27 -225 -1 -44 -2 -43 -10
15 -38 276 -51 403 -56 548 l-6 167 -1168 0 -1169 0 0 -1800z m2460 880 c7
-19 22 -43 32 -53 10 -10 18 -24 18 -31 0 -8 17 -16 41 -20 76 -12 119 -44
176 -132 23 -36 33 -43 71 -48 25 -3 58 -6 73 -6 67 0 317 -113 345 -155 12
-18 17 -49 18 -103 1 -80 0 -82 -43 -71 -8 3 -19 -11 -27 -35 -20 -56 -61
-106 -102 -123 -30 -12 -48 -13 -117 -2 l-82 12 -48 -52 c-26 -28 -70 -61 -97
-74 -49 -22 -55 -33 -39 -65 17 -31 91 -199 91 -206 0 -4 -5 -4 -11 0 -8 5
-10 -3 -6 -27 17 -94 19 -117 8 -123 -8 -5 -7 -12 4 -22 8 -8 17 -14 21 -14
12 3 24 -24 24 -53 0 -24 -3 -27 -20 -22 -18 6 -20 2 -20 -39 0 -25 -4 -46
-10 -46 -5 0 -10 16 -10 35 0 58 -15 40 -26 -31 -12 -79 -10 -84 87 -214 94
-126 104 -146 89 -175 -9 -17 -9 -28 -1 -44 15 -27 9 -37 -26 -44 -17 -4 -35
-18 -45 -36 -13 -24 -24 -31 -47 -31 -20 0 -44 -13 -76 -40 -40 -35 -51 -40
-79 -35 -42 8 -61 -12 -52 -57 17 -82 18 -99 6 -113 -17 -20 -52 -19 -89 3
-44 24 -46 40 -10 73 28 26 31 33 23 61 -8 26 -17 34 -44 40 -19 4 -41 5 -47
3 -18 -6 -16 -58 4 -99 16 -34 16 -37 -2 -56 -22 -24 -71 -26 -97 -3 -22 20
-23 46 -3 67 12 11 14 30 11 78 l-4 63 -86 0 -86 -1 7 39 c5 33 3 39 -15 44
-25 6 -25 4 19 191 30 126 63 318 74 432 8 77 25 145 53 217 19 45 19 54 7 66
-10 10 -12 26 -8 51 5 30 3 35 -10 30 -10 -3 -17 2 -22 15 -4 15 -15 21 -36
21 -37 0 -97 30 -144 71 -33 29 -37 30 -54 15 -39 -35 -62 -16 -100 82 -26 66
-20 85 72 198 80 99 129 142 204 179 32 16 59 30 61 31 2 1 10 31 18 65 8 35
19 76 25 91 11 28 81 98 98 98 13 0 27 67 30 145 1 43 11 39 31 -15z"/>
<path d="M3182 2178 c-27 -27 -9 -98 25 -98 8 0 13 14 13 39 0 64 -13 84 -38
59z"/>
<path d="M3064 2041 c-67 -19 -117 -47 -153 -84 l-23 -25 55 -12 c100 -23 164
9 199 99 19 49 18 49 -78 22z"/>
<path d="M1930 1914 c0 -17 44 -104 53 -104 6 0 18 7 28 16 16 15 17 18 2 49
-15 30 -37 44 -70 45 -7 0 -13 -3 -13 -6z"/>
<path d="M2678 1903 c-27 -2 -48 -8 -48 -12 0 -20 33 -101 41 -101 32 0 159
89 159 111 0 9 -55 9 -152 2z"/>
<path d="M2170 1854 c-48 -8 -100 -25 -100 -33 0 -12 89 -70 118 -78 13 -3 37
-2 54 3 27 8 30 14 34 55 3 45 2 47 -28 53 -31 6 -34 6 -78 0z"/>
</g>
</svg>
