<?xml version="1.0" standalone="no"?>
<!DOCTYPE svg PUBLIC "-//W3C//DTD SVG 20010904//EN"
 "http://www.w3.org/TR/2001/REC-SVG-20010904/DTD/svg10.dtd">
<svg version="1.0" xmlns="http://www.w3.org/2000/svg"
 width="480.000000pt" height="360.000000pt" viewBox="0 0 480.000000 360.000000"
 preserveAspectRatio="xMidYMid meet">
<metadata>
Created by potrace 1.16, written by Peter Selinger 2001-2019
</metadata>
<rect width="1" height="360" fill="#000000"/>
<rect x="479" width="1" height="360" fill="#000000"/>
<rect width="480" height="1" fill="#000000"/>
<rect y="359" width="480" height="1" fill="#000000"/>
<g transform="translate(0.000000,360.000000) scale(0.100000,-0.100000)"
fill="#000000" stroke="none">
<path d="M2624 2601 c-28 -10 -107 -54 -174 -99 -128 -86 -162 -101 -184 -83
-7 6 -17 7 -21 3 -5 -4 -5 -1 -1 6 4 7 4 26 1 43 -6 25 -11 30 -33 27 -22 -2
-28 -9 -30 -35 -2 -18 6 -49 18 -73 l21 -41 -54 -67 c-84 -104 -163 -221 -191
-286 -34 -77 -36 -197 -6 -280 42 -111 155 -253 284 -355 129 -103 343 -194
482 -207 57 -5 79 -2 127 16 31 12 70 32 85 44 15 12 38 27 52 33 46 20 138
112 160 161 18 39 31 53 76 76 53 28 126 102 154 155 7 14 16 57 21 95 32 289
-254 767 -517 862 -80 29 -193 31 -270 5z"/>
</g>
</svg>
