<?xml version="1.0" standalone="no"?>
<!DOCTYPE svg PUBLIC "-//W3C//DTD SVG 20010904//EN"
 "http://www.w3.org/TR/2001/REC-SVG-20010904/DTD/svg10.dtd">
<svg version="1.0" xmlns="http://www.w3.org/2000/svg"
 width="480.000000pt" height="360.000000pt" viewBox="0 0 480.000000 360.000000"
 preserveAspectRatio="xMidYMid meet">
<metadata>
Created by potrace 1.16, written by Peter Selinger 2001-2019
</metadata>
<rect width="1" height="360" fill="#000000"/>
<rect x="479" width="1" height="360" fill="#000000"/>
<rect width="480" height="1" fill="#000000"/>
<rect y="359" width="480" height="1" fill="#000000"/>
<g transform="translate(0.000000,360.000000) scale(0.100000,-0.100000)"
fill="#000000" stroke="none">
<path d="M0 1800 l0 -1800 968 0 967 1 -93 87 c-92 87 -106 107 -77 118 8 4
15 10 15 14 0 5 -38 54 -85 109 -47 56 -85 104 -85 108 0 3 8 11 17 18 16 12
16 14 -2 41 -104 157 -125 197 -111 213 11 14 6 31 -40 126 -53 110 -62 139
-45 149 5 3 -8 52 -27 108 -22 64 -36 124 -37 158 -1 30 -10 91 -20 135 -14
65 -18 137 -21 380 -3 287 -1 324 28 460 6 27 10 68 10 90 -1 22 12 85 30 140
18 55 33 120 33 145 1 31 15 75 46 140 36 76 43 99 35 113 -8 13 -7 25 8 50
10 17 28 48 38 67 11 19 34 54 50 78 22 32 27 47 19 55 -20 20 -12 38 64 134
70 89 88 123 65 123 -26 0 -2 33 97 132 l108 108 -978 0 -977 0 0 -1800z"/>
<path d="M2100 3563 c18 -21 53 -60 79 -88 26 -27 94 -103 151 -169 152 -172
276 -312 435 -491 144 -161 265 -299 439 -497 55 -62 125 -142 158 -177 l58
-64 87 17 c119 23 151 34 163 57 6 10 28 27 49 38 38 18 40 18 75 -2 35 -20
37 -20 158 -4 91 13 194 17 394 17 149 0 312 3 362 6 l92 7 0 693 0 694 -1366
0 -1366 0 32 -37z"/>
<path d="M4336 1653 c-17 -3 -53 -24 -80 -47 -72 -61 -184 -140 -233 -164 -22
-12 -62 -40 -88 -62 -45 -39 -54 -44 -85 -41 -8 1 -22 -12 -31 -27 -14 -25
-25 -30 -87 -40 -104 -18 -129 -16 -157 13 -14 13 -25 33 -25 44 0 25 -16 29
-112 33 l-78 2 -102 -149 c-243 -359 -386 -569 -466 -689 -48 -70 -147 -215
-219 -322 -73 -106 -133 -195 -133 -198 0 -3 531 -6 1180 -6 l1180 0 0 824 c0
742 -2 824 -16 830 -17 7 -402 6 -448 -1z"/>
</g>
</svg>
