<?xml version="1.0" standalone="no"?>
<!DOCTYPE svg PUBLIC "-//W3C//DTD SVG 20010904//EN"
 "http://www.w3.org/TR/2001/REC-SVG-20010904/DTD/svg10.dtd">
<svg version="1.0" xmlns="http://www.w3.org/2000/svg"
 width="480.000000pt" height="360.000000pt" viewBox="0 0 480.000000 360.000000"
 preserveAspectRatio="xMidYMid meet">
<metadata>
Created by potrace 1.16, written by Peter Selinger 2001-2019
</metadata>
<rect width="1" height="360" fill="#000000"/>
<rect x="479" width="1" height="360" fill="#000000"/>
<rect width="480" height="1" fill="#000000"/>
<rect y="359" width="480" height="1" fill="#000000"/>
<g transform="translate(0.000000,360.000000) scale(0.100000,-0.100000)"
fill="#000000" stroke="none">
<path d="M0 1800 l0 -1800 254 0 255 0 -39 83 c-104 223 -170 516 -201 887
-16 201 -13 651 5 827 20 178 55 409 73 475 3 13 -11 27 -49 52 -65 42 -91 65
-106 93 -16 30 -15 98 2 131 34 65 128 121 202 122 73 0 86 -46 29 -106 -19
-20 -35 -40 -35 -45 0 -12 54 -24 230 -53 445 -74 597 -83 721 -42 173 58 192
60 409 60 163 0 231 -5 330 -22 246 -42 472 -111 743 -229 146 -63 148 -63
176 -47 21 12 30 27 34 53 3 20 8 44 12 54 5 13 2 17 -13 17 -30 0 -70 20 -77
39 -9 22 62 85 120 107 40 15 49 25 88 98 24 44 49 97 56 117 14 43 53 83 101
103 113 47 349 82 446 66 83 -14 113 -36 176 -131 l57 -87 68 -6 c157 -16 223
-38 223 -76 0 -27 -71 -71 -160 -100 -39 -12 -72 -26 -75 -30 -2 -3 5 -40 15
-81 30 -113 28 -125 -28 -181 -35 -35 -54 -46 -87 -52 -40 -8 -95 -54 -95 -80
0 -9 18 -33 41 -53 100 -92 106 -249 12 -308 -18 -11 -32 -22 -33 -26 0 -3 41
-38 90 -78 50 -41 125 -106 167 -145 41 -39 92 -77 111 -84 44 -15 82 -49 82
-73 0 -9 7 -22 15 -29 8 -6 17 -21 21 -33 4 -12 32 -51 63 -87 107 -124 258
-358 328 -507 19 -40 36 -73 39 -73 2 0 4 693 4 1540 l0 1540 -2400 0 -2400 0
0 -1800z"/>
<path d="M1549 2295 c-37 -7 -93 -25 -125 -38 -33 -14 -87 -37 -121 -51 -80
-34 -146 -46 -249 -46 -46 0 -86 -5 -89 -10 -8 -13 -37 -135 -59 -245 -17 -86
-55 -449 -82 -770 -35 -434 -11 -786 74 -1070 l18 -60 917 -3 c867 -2 918 -1
924 15 22 68 69 150 169 299 100 149 117 181 134 250 24 91 20 150 -11 159
-25 8 -86 71 -106 109 -8 15 -21 53 -29 83 -13 51 -13 56 5 79 11 13 29 56 41
95 20 67 20 74 6 110 -21 52 -20 117 3 187 10 31 24 80 30 107 26 106 57 188
81 214 20 21 25 36 25 79 0 41 -3 52 -15 51 -39 -5 -109 51 -124 98 -11 34
-393 199 -620 267 -292 89 -620 126 -797 91z"/>
<path d="M3784 988 c-4 -13 -20 -42 -35 -65 -16 -23 -47 -79 -70 -125 l-40
-83 4 -120 c3 -91 14 -167 44 -310 23 -104 44 -211 47 -237 l7 -48 524 0 524
0 -59 173 c-69 197 -179 426 -276 572 -82 123 -114 163 -114 140 0 -18 -28
-65 -50 -82 -44 -34 -121 -23 -197 29 -24 16 -67 33 -100 39 -83 16 -130 43
-161 94 -31 51 -38 54 -48 23z"/>
</g>
</svg>
