<?xml version="1.0" standalone="no"?>
<!DOCTYPE svg PUBLIC "-//W3C//DTD SVG 20010904//EN"
 "http://www.w3.org/TR/2001/REC-SVG-20010904/DTD/svg10.dtd">
<svg version="1.0" xmlns="http://www.w3.org/2000/svg"
 width="480.000000pt" height="360.000000pt" viewBox="0 0 480.000000 360.000000"
 preserveAspectRatio="xMidYMid meet">
<metadata>
Created by potrace 1.16, written by Peter Selinger 2001-2019
</metadata>
<rect width="1" height="360" fill="#000000"/>
<rect x="479" width="1" height="360" fill="#000000"/>
<rect width="480" height="1" fill="#000000"/>
<rect y="359" width="480" height="1" fill="#000000"/>
<g transform="translate(0.000000,360.000000) scale(0.100000,-0.100000)"
fill="#000000" stroke="none">
<path d="M0 3365 l0 -235 38 0 c21 0 62 -6 92 -14 30 -7 77 -16 104 -20 45 -6
51 -4 87 29 50 44 103 48 139 10 21 -23 22 -28 12 -64 -16 -53 -16 -55 16 -33
43 30 62 34 152 33 98 -2 133 -9 127 -25 -3 -6 5 -21 16 -34 23 -25 29 -41 31
-92 1 -30 5 -35 24 -32 16 2 22 -2 22 -15 0 -10 6 -27 13 -38 7 -11 19 -37 26
-58 12 -35 11 -41 -7 -60 -39 -43 -37 -63 10 -110 24 -24 69 -59 102 -78 40
-23 68 -48 87 -80 17 -26 55 -65 90 -90 118 -84 129 -96 129 -144 0 -23 -7
-59 -15 -78 -18 -43 -20 -204 -5 -312 17 -114 64 -284 155 -554 47 -139 85
-261 85 -270 0 -9 15 -48 33 -86 19 -39 39 -95 46 -125 7 -30 20 -81 28 -113
l16 -58 22 21 c29 27 39 90 25 154 -43 192 -64 250 -102 286 -12 11 -19 20
-15 20 3 0 -12 37 -34 83 -44 91 -45 100 -5 190 21 47 36 63 80 92 51 33 55
38 75 107 12 40 36 105 54 143 29 64 31 78 31 170 -1 128 -12 279 -24 330 -5
22 -10 94 -10 160 0 66 -5 168 -11 226 -10 95 -9 116 11 215 11 60 30 127 40
149 10 22 43 93 74 157 31 65 56 122 56 127 0 5 4 11 9 13 6 2 11 14 13 28 2
14 6 30 10 35 8 13 11 71 9 183 l-1 92 -980 0 -980 0 0 -235z"/>
<path d="M0 1551 l0 -1551 374 0 374 0 6 68 c4 37 9 84 12 104 5 34 3 39 -23
49 -17 7 -57 8 -106 4 l-77 -6 -25 56 c-30 67 -52 78 -141 69 -56 -6 -67 -4
-78 12 -14 18 -15 18 -35 0 -45 -41 -65 16 -41 119 6 25 5 42 -1 46 -11 6 -2
39 11 39 13 0 50 64 40 70 -17 10 63 152 127 228 25 29 43 56 39 59 -3 4 -6 0
-6 -7 0 -7 -3 -11 -6 -8 -3 4 20 48 52 100 118 193 148 249 230 443 30 69 32
83 23 110 -9 25 -8 37 5 63 19 37 20 93 5 214 -8 60 -8 100 -1 127 8 32 7 43
-4 52 -16 13 -21 2 -60 -131 -14 -49 -43 -136 -65 -192 -73 -185 -72 -183 -55
-235 26 -75 -1 -162 -32 -107 -14 25 -54 11 -76 -27 -10 -17 -28 -63 -40 -103
-30 -98 -45 -94 -74 19 l-23 90 22 41 c17 32 19 45 11 60 -10 17 -12 16 -26
-18 -9 -21 -16 -43 -16 -50 0 -6 -7 -3 -15 8 -15 18 -16 17 -10 -13 8 -40 1
-42 -20 -5 -15 27 -15 27 -9 -18 5 -41 4 -43 -9 -27 -11 13 -17 15 -22 7 -5
-8 -18 1 -39 23 -51 56 -67 127 -72 334 l-5 179 30 83 c17 46 59 136 95 201
84 154 106 204 117 270 10 59 0 134 -28 205 -10 27 -15 71 -14 138 1 53 -2 97
-7 97 -5 0 -23 -7 -41 -16 -54 -27 -121 3 -121 54 0 14 14 47 31 75 27 44 29
53 18 73 -11 21 -67 44 -171 69 l-28 7 0 -1551z"/>
<path d="M890 1910 c0 -36 -2 -90 -5 -120 l-5 -55 25 50 c27 55 31 85 14 136
-20 59 -29 56 -29 -11z"/>
<path d="M171 1485 c1 -40 1 -40 11 -12 7 21 7 32 -1 40 -8 8 -11 0 -10 -28z"/>
<path d="M425 1500 c-3 -11 -13 -20 -21 -20 -9 0 -14 -11 -14 -32 l1 -33 24
30 c14 17 25 40 25 53 0 27 -7 28 -15 2z"/>
<path d="M1647 563 c-4 -20 -2 -43 3 -52 7 -13 10 -10 10 14 1 17 3 40 6 53 2
12 0 22 -5 22 -5 0 -11 -16 -14 -37z"/>
<path d="M1650 365 c0 -27 -17 -39 -72 -49 -30 -5 -44 -16 -68 -51 -16 -24
-40 -47 -51 -50 -12 -4 -65 -4 -119 0 -107 8 -155 2 -164 -20 -3 -8 -8 -55
-12 -105 l-7 -90 477 0 c262 0 476 2 476 5 0 18 -26 55 -39 55 -9 1 -34 14
-56 30 -22 16 -56 40 -75 54 -19 13 -48 38 -63 55 -16 17 -33 31 -38 31 -6 0
-7 4 -4 10 3 5 -6 20 -21 32 -15 13 -33 37 -40 54 -13 30 -15 31 -53 24 -42
-8 -63 3 -54 26 3 8 0 14 -6 14 -6 0 -11 -11 -11 -25z"/>
<path d="M965 161 c-27 -6 -31 -12 -51 -84 l-21 -77 68 0 69 0 -1 43 c0 60
-12 120 -24 122 -6 2 -23 0 -40 -4z"/>
</g>
</svg>
