<?xml version="1.0" standalone="no"?>
<!DOCTYPE svg PUBLIC "-//W3C//DTD SVG 20010904//EN"
 "http://www.w3.org/TR/2001/REC-SVG-20010904/DTD/svg10.dtd">
<svg version="1.0" xmlns="http://www.w3.org/2000/svg"
 width="480.000000pt" height="360.000000pt" viewBox="0 0 480.000000 360.000000"
 preserveAspectRatio="xMidYMid meet">
<metadata>
Created by potrace 1.16, written by Peter Selinger 2001-2019
</metadata>
<rect width="1" height="360" fill="#000000"/>
<rect x="479" width="1" height="360" fill="#000000"/>
<rect width="480" height="1" fill="#000000"/>
<rect y="359" width="480" height="1" fill="#000000"/>
<g transform="translate(0.000000,360.000000) scale(0.100000,-0.100000)"
fill="#000000" stroke="none">
<path d="M0 1800 l0 -1800 496 0 496 0 -7 38 c-15 83 -39 144 -111 277 -165
306 -223 443 -275 644 -68 262 -94 526 -86 858 7 300 38 499 128 814 l39 141
-42 38 c-39 34 -42 40 -33 66 8 22 21 31 58 43 45 14 54 13 145 -9 107 -25
435 -129 509 -161 27 -11 59 -31 73 -44 26 -25 182 -72 636 -190 215 -56 221
-57 242 -39 12 10 36 23 54 28 18 6 37 20 43 31 9 19 20 32 85 105 14 16 50
68 80 115 30 47 75 113 100 147 25 33 59 83 75 111 24 41 40 55 80 72 28 11
76 37 107 57 85 56 189 88 288 88 78 0 86 -2 198 -56 85 -41 129 -68 161 -101
24 -26 36 -43 26 -39 -15 5 -16 2 -10 -21 15 -57 9 -140 -13 -168 -12 -15 -24
-36 -29 -48 -6 -20 -7 -20 -14 8 -6 29 -7 29 -8 -8 -1 -34 2 -39 34 -53 34
-14 45 -36 24 -49 -6 -4 -7 -19 -4 -36 4 -16 3 -34 -2 -41 -15 -24 -9 -73 11
-97 18 -21 19 -23 3 -18 -13 5 -20 0 -27 -18 -5 -14 -14 -25 -20 -25 -5 0 -10
-7 -10 -15 0 -12 -4 -14 -16 -7 -22 13 -54 3 -54 -15 0 -13 -3 -13 -15 -3 -19
16 -19 9 -1 -35 8 -19 21 -35 28 -35 8 0 38 -15 67 -34 34 -22 71 -37 104 -41
124 -16 176 -43 224 -118 15 -23 28 -44 30 -46 4 -6 167 -36 466 -86 229 -39
274 -44 309 -35 22 7 51 9 64 6 13 -4 24 -1 26 6 3 7 18 12 34 13 l29 0 3 793
2 792 -2400 0 -2400 0 0 -1800z"/>
<path d="M1244 2506 c-72 -188 -155 -489 -173 -631 -20 -153 -34 -431 -27
-550 19 -340 52 -466 248 -934 49 -118 92 -229 95 -247 3 -18 -2 -54 -11 -80
-9 -26 -16 -51 -16 -56 0 -4 117 -8 260 -8 258 0 261 0 310 25 27 14 83 34
125 46 136 37 234 88 410 213 39 28 72 53 75 56 3 3 34 29 70 58 168 136 197
160 248 207 30 28 79 82 109 120 86 111 123 158 149 187 13 15 24 34 24 41 0
7 -69 72 -152 143 -84 70 -175 149 -202 174 -52 48 -85 107 -86 152 0 52 42
139 121 249 64 90 77 114 69 129 -6 10 -10 39 -10 64 0 49 -14 61 -26 24 -7
-23 -7 -23 -15 -2 -10 27 -48 38 -56 16 -6 -13 -8 -13 -14 4 -4 10 -8 33 -9
49 -1 27 -2 28 -13 12 -34 -53 -38 -54 -36 -12 2 66 1 71 -13 57 -20 -20 -24
-14 -22 38 1 28 -3 50 -8 50 -5 0 -4 9 2 20 6 11 8 25 5 30 -4 6 3 24 15 40
26 37 19 38 -26 4 -19 -15 -34 -22 -34 -17 0 20 -33 9 -62 -21 -28 -27 -30
-28 -23 -7 6 21 5 22 -14 12 -17 -10 -20 -9 -15 4 4 8 1 15 -4 15 -6 0 -10 17
-9 40 2 27 -3 45 -13 54 -8 7 -141 46 -295 86 -154 40 -392 104 -530 143 -196
55 -266 70 -322 71 l-73 1 -26 -69z"/>
<path d="M3856 1974 c-4 -11 6 -29 27 -54 32 -35 55 -99 42 -119 -3 -5 3 -24
14 -43 11 -18 24 -52 30 -74 6 -23 27 -68 46 -100 59 -103 34 -100 255 -28
107 35 234 75 282 89 93 28 123 47 113 74 -4 9 -9 37 -12 63 -3 27 -12 53 -19
59 -7 5 -115 28 -241 50 -252 44 -489 87 -514 95 -10 3 -19 -3 -23 -12z"/>
<path d="M3006 1493 l-59 -55 69 -69 c38 -38 71 -69 75 -69 15 0 15 88 1 150
-25 108 -20 105 -86 43z"/>
<path d="M4705 1418 c-151 -67 -426 -175 -504 -198 -53 -16 -86 -20 -118 -15
-75 11 -154 43 -210 86 l-54 41 15 -31 c20 -39 23 -100 6 -131 -9 -16 -13 -51
-11 -98 3 -72 3 -74 46 -113 54 -50 72 -91 58 -129 -9 -25 -4 -40 46 -136 32
-60 87 -151 124 -201 60 -83 137 -210 137 -226 0 -3 -10 -7 -22 -9 -13 -2 -23
-5 -23 -8 1 -3 21 -60 45 -127 l44 -123 258 0 258 0 0 730 c0 402 -1 730 -2
729 -2 0 -43 -19 -93 -41z"/>
</g>
</svg>
