<?xml version="1.0" standalone="no"?>
<!DOCTYPE svg PUBLIC "-//W3C//DTD SVG 20010904//EN"
 "http://www.w3.org/TR/2001/REC-SVG-20010904/DTD/svg10.dtd">
<svg version="1.0" xmlns="http://www.w3.org/2000/svg"
 width="480.000000pt" height="360.000000pt" viewBox="0 0 480.000000 360.000000"
 preserveAspectRatio="xMidYMid meet">
<metadata>
Created by potrace 1.16, written by Peter Selinger 2001-2019
</metadata>
<rect width="1" height="360" fill="#000000"/>
<rect x="479" width="1" height="360" fill="#000000"/>
<rect width="480" height="1" fill="#000000"/>
<rect y="359" width="480" height="1" fill="#000000"/>
<g transform="translate(0.000000,360.000000) scale(0.100000,-0.100000)"
fill="#000000" stroke="none">
<path d="M0 1800 l0 -1800 682 2 681 3 8 25 c4 14 42 131 84 260 85 257 119
350 165 440 36 71 80 244 80 313 0 27 7 73 16 103 15 52 15 55 -5 80 -31 39
-29 132 5 204 39 84 149 244 195 283 l41 35 -8 149 c-10 202 -10 200 -12 271
-2 62 -3 65 -53 115 l-51 52 4 80 3 80 -107 6 c-151 9 -172 30 -73 74 40 18
55 31 64 57 28 74 55 121 87 154 35 34 35 34 18 66 -9 18 -29 51 -44 73 -44
66 -110 191 -110 210 0 25 14 17 142 -77 144 -107 133 -101 165 -85 56 29 385
72 549 72 l121 0 27 34 c14 19 65 74 112 123 63 65 92 88 110 88 20 0 24 -4
20 -17 -3 -10 -12 -63 -20 -118 -20 -133 -32 -194 -45 -228 -15 -38 -15 -37
17 -31 58 12 386 -48 379 -69 -2 -6 -53 -31 -113 -56 -60 -24 -111 -46 -113
-47 -2 -2 2 -10 8 -18 10 -12 6 -18 -26 -34 -21 -10 -69 -27 -106 -37 -37 -10
-70 -22 -73 -26 -3 -5 2 -21 10 -37 25 -48 66 -202 85 -322 32 -190 51 -279
88 -405 43 -146 71 -204 132 -271 25 -28 58 -68 72 -90 96 -146 163 -264 154
-272 -3 -3 -19 8 -36 24 -31 29 -31 29 -24 4 4 -14 33 -70 64 -125 63 -111
133 -254 149 -300 6 -16 31 -88 56 -160 41 -116 44 -127 22 -103 -13 15 -57
79 -97 143 -44 69 -76 110 -80 103 -9 -15 -7 -20 63 -167 32 -68 57 -126 54
-128 -2 -2 -20 19 -41 47 -20 27 -39 50 -41 50 -3 0 -2 -28 2 -61 5 -46 4 -60
-5 -55 -14 9 -15 15 14 -78 14 -44 23 -82 21 -84 -3 -2 -15 15 -28 37 -16 29
-28 40 -40 37 -9 -2 -25 5 -34 15 -43 48 -45 8 -3 -66 17 -30 28 -55 25 -55
-4 0 -24 11 -46 25 -21 13 -41 21 -43 17 -2 -4 -17 -45 -32 -92 -39 -119 -60
-158 -90 -166 -37 -9 -86 3 -112 28 -34 32 -35 19 -5 -45 l27 -56 848 -1 847
0 0 1800 0 1800 -2400 0 -2400 0 0 -1800z"/>
<path d="M2101 1893 c-1 -66 2 -83 13 -83 18 0 22 6 30 53 5 29 4 37 -8 37 -8
0 -18 16 -24 38 -9 33 -10 29 -11 -45z"/>
<path d="M1984 965 c-25 -23 -38 -52 -58 -125 -15 -52 -35 -117 -45 -145 -10
-27 -21 -62 -25 -77 l-6 -28 105 0 c82 0 107 3 111 14 3 8 -2 52 -12 98 -9 46
-22 130 -28 188 l-11 105 -31 -30z"/>
<path d="M1676 224 c-60 -114 -106 -210 -106 -220 0 -2 42 -4 94 -4 l94 0 51
74 c28 41 51 79 51 84 0 17 -33 72 -91 155 l-27 37 -66 -126z"/>
</g>
</svg>
