<?xml version="1.0" standalone="no"?>
<!DOCTYPE svg PUBLIC "-//W3C//DTD SVG 20010904//EN"
 "http://www.w3.org/TR/2001/REC-SVG-20010904/DTD/svg10.dtd">
<svg version="1.0" xmlns="http://www.w3.org/2000/svg"
 width="480.000000pt" height="360.000000pt" viewBox="0 0 480.000000 360.000000"
 preserveAspectRatio="xMidYMid meet">
<metadata>
Created by potrace 1.16, written by Peter Selinger 2001-2019
</metadata>
<rect width="1" height="360" fill="#000000"/>
<rect x="479" width="1" height="360" fill="#000000"/>
<rect width="480" height="1" fill="#000000"/>
<rect y="359" width="480" height="1" fill="#000000"/>
<g transform="translate(0.000000,360.000000) scale(0.100000,-0.100000)"
fill="#000000" stroke="none">
<path d="M4155 3559 c7 -39 5 -44 -31 -75 -30 -27 -46 -34 -80 -34 -37 0 -106
-26 -234 -89 -23 -12 -76 -95 -100 -157 -30 -81 -46 -187 -34 -221 9 -26 13
-28 61 -25 l50 2 21 -47 c11 -27 23 -58 27 -71 11 -36 39 -45 69 -21 32 25 65
20 156 -24 l65 -32 -2 -45 -3 -45 23 28 c12 15 25 27 28 27 16 0 99 -123 99
-148 1 -23 2 -25 11 -9 9 15 16 12 64 -30 50 -45 54 -51 60 -106 7 -58 7 -59
-26 -87 -19 -16 -40 -29 -46 -30 -7 0 -13 -5 -13 -11 0 -8 17 -10 49 -7 l49 5
6 -36 c12 -72 3 -159 -29 -291 -4 -14 12 4 35 40 46 70 88 120 102 120 5 0 6
-5 3 -10 -4 -7 2 -9 18 -5 37 10 47 -17 42 -113 -3 -45 -1 -83 4 -86 4 -3 21
36 37 87 l29 92 5 -63 c3 -34 9 -63 14 -65 5 -1 16 18 23 43 24 76 26 77 39
25 6 -27 13 -41 13 -29 1 11 10 30 21 42 20 21 20 35 20 782 l0 760 -326 0
-326 0 7 -41z m241 -1014 c7 -27 6 -29 -9 -16 -10 7 -17 25 -17 39 0 33 16 18
26 -23z"/>
<path d="M1543 1884 c-23 -36 -21 -199 5 -314 12 -54 17 -106 14 -143 -2 -33
1 -69 8 -86 10 -26 9 -33 -10 -59 -27 -36 -37 -108 -21 -152 10 -29 7 -38 -24
-89 -27 -43 -35 -67 -35 -103 0 -61 64 -283 96 -331 47 -71 294 -213 617 -355
205 -89 236 -99 437 -147 202 -48 286 -73 301 -91 10 -12 150 -14 940 -14
l929 0 0 884 0 885 -62 -18 c-145 -42 -252 -95 -306 -150 -10 -11 -75 -34
-152 -55 -216 -58 -322 -122 -378 -229 l-20 -38 -48 58 c-74 88 -161 169 -238
221 -95 64 -138 106 -130 126 3 9 3 27 0 41 -6 22 -9 24 -27 12 -17 -10 -22
-9 -30 6 -7 12 -17 16 -30 12 -13 -5 -25 -1 -33 10 -11 15 -13 16 -25 1 -12
-15 -16 -12 -32 24 -10 22 -22 40 -28 40 -15 0 -70 -72 -164 -216 -47 -72
-126 -180 -175 -240 -91 -110 -242 -264 -259 -264 -6 0 -29 48 -53 107 -23 60
-70 173 -105 253 -35 80 -71 170 -80 200 -26 81 -52 128 -76 135 -62 20 -139
-35 -139 -100 0 -18 11 -61 24 -96 45 -122 43 -309 -3 -309 -10 0 -46 18 -80
40 -34 22 -83 51 -109 64 -27 14 -77 43 -112 67 l-64 42 40 16 c75 31 85 40
82 73 -6 56 -43 73 -166 74 l-107 1 -6 59 c-7 72 -17 92 -71 138 -50 43 -72
45 -95 10z m1757 -1134 c10 -18 8 -20 -27 -19 -21 1 -30 3 -20 6 9 2 17 11 17
19 0 21 18 17 30 -6z"/>
</g>
</svg>
