<?xml version="1.0" standalone="no"?>
<!DOCTYPE svg PUBLIC "-//W3C//DTD SVG 20010904//EN"
 "http://www.w3.org/TR/2001/REC-SVG-20010904/DTD/svg10.dtd">
<svg version="1.0" xmlns="http://www.w3.org/2000/svg"
 width="480.000000pt" height="360.000000pt" viewBox="0 0 480.000000 360.000000"
 preserveAspectRatio="xMidYMid meet">
<metadata>
Created by potrace 1.16, written by Peter Selinger 2001-2019
</metadata>
<rect width="1" height="360" fill="#000000"/>
<rect x="479" width="1" height="360" fill="#000000"/>
<rect width="480" height="1" fill="#000000"/>
<rect y="359" width="480" height="1" fill="#000000"/>
<g transform="translate(0.000000,360.000000) scale(0.100000,-0.100000)"
fill="#000000" stroke="none">
<path d="M0 2624 l0 -975 78 60 c43 33 130 112 194 176 64 63 122 115 129 115
27 0 400 -169 526 -238 70 -38 146 -78 168 -87 138 -59 268 -60 467 -4 43 12
56 11 130 -8 45 -12 85 -20 90 -17 9 6 109 138 160 212 32 46 108 99 190 132
31 13 68 33 82 44 24 19 25 24 15 59 -11 42 -10 47 18 51 28 4 27 31 -2 44
-37 17 -43 15 -50 -18 -9 -42 -25 -47 -26 -8 -1 18 -5 44 -9 58 -7 23 -8 24
-9 3 -1 -12 -7 -26 -15 -30 -8 -4 -18 -28 -24 -53 -8 -39 -10 -41 -11 -14 -1
43 -13 50 -26 17 -10 -25 -11 -22 -8 27 3 30 0 66 -5 80 -8 20 -9 14 -5 -28 5
-43 3 -51 -9 -47 -9 4 -18 -4 -25 -22 -10 -27 -11 -26 -13 17 -2 45 -28 131
-29 97 -1 -30 -22 -14 -39 28 -21 54 -20 53 -48 20 l-25 -30 7 59 c7 58 6 59
-17 52 -81 -21 -77 -22 -43 15 17 19 39 48 49 65 17 30 17 32 -1 52 -17 21
-18 21 -31 2 -8 -11 -20 -20 -26 -20 -7 0 -52 29 -100 66 l-88 65 21 26 c11
14 20 36 20 48 0 24 17 35 54 35 15 0 42 20 75 55 42 45 51 59 45 78 -18 55
-20 87 -13 152 22 178 91 300 204 357 64 33 135 40 385 36 l246 -3 66 -33 c88
-43 169 -129 199 -212 12 -33 24 -60 26 -60 2 0 11 7 19 15 9 8 26 15 40 15
13 0 46 11 72 24 147 76 217 19 217 -179 0 -68 -5 -101 -19 -134 -20 -44 -20
-50 11 -170 4 -16 1 -26 -10 -32 -13 -8 -13 -14 0 -56 16 -52 73 -306 73 -325
0 -7 -7 -3 -15 8 -13 17 -14 15 -15 -36 0 -93 -59 -269 -91 -277 -11 -3 -19
-14 -19 -24 0 -11 -4 -19 -10 -19 -5 0 -10 -12 -11 -27 l-1 -28 -11 32 c-7 18
-15 33 -19 33 -5 0 -12 0 -16 0 -11 0 -32 67 -33 106 -1 23 -3 20 -11 -16 -12
-54 -21 -39 -33 55 -4 32 -15 81 -26 107 -10 26 -24 87 -30 135 l-11 88 -47
-1 c-51 -2 -50 1 -37 -89 l7 -50 -29 35 -30 34 -16 -39 c-13 -31 -19 -36 -26
-25 -11 18 -16 13 -27 -28 -4 -18 -13 -33 -18 -32 -5 1 -13 -7 -17 -17 -6 -16
-7 -16 -14 5 -10 34 -22 27 -34 -20 -6 -24 -15 -54 -20 -68 -8 -22 -9 -21 -10
15 l-2 40 -12 -40 -13 -40 -4 55 -4 55 -17 -30 c-10 -16 -18 -23 -18 -15 0 12
-4 11 -15 -4 -15 -20 -19 -15 -27 26 -3 15 -6 16 -28 5 -32 -16 -42 -52 -11
-42 28 8 37 -15 22 -57 -15 -41 -11 -45 114 -106 110 -55 122 -66 245 -225 46
-59 87 -110 92 -113 4 -3 48 5 97 17 l88 23 78 -23 c96 -29 232 -38 315 -22
73 15 143 46 314 139 70 39 190 97 265 128 75 32 150 66 166 76 55 33 73 25
165 -68 80 -81 188 -176 273 -238 l37 -28 0 976 0 976 -2400 0 -2400 0 0 -976z"/>
<path d="M2957 2641 c-35 -86 -36 -94 -26 -137 13 -52 54 -89 70 -63 10 17 11
246 0 273 -6 15 -16 -1 -44 -73z"/>
<path d="M2310 2246 c16 -16 113 -19 149 -4 32 13 29 13 -62 13 -60 0 -93 -3
-87 -9z"/>
<path d="M388 1842 c-71 -77 -72 -78 -55 -103 9 -12 13 -28 10 -36 -3 -8 6
-26 19 -41 14 -15 35 -56 46 -91 l21 -63 -20 -62 c-56 -170 -143 -403 -154
-415 -18 -19 -27 17 -70 277 l-35 212 30 60 31 61 -53 -43 c-29 -24 -77 -59
-106 -77 -48 -31 -52 -38 -52 -72 0 -21 4 -40 9 -43 5 -4 21 -38 36 -76 l27
-70 -36 -103 -36 -104 0 -527 0 -526 879 0 879 0 21 83 c33 125 78 251 128
357 40 84 45 104 48 175 1 44 6 110 10 148 4 40 3 72 -3 80 -5 6 -15 30 -22
51 l-13 40 -34 -74 c-45 -93 -87 -135 -253 -246 -284 -190 -378 -246 -482
-284 -57 -21 -148 -57 -203 -81 -96 -40 -103 -41 -181 -36 -122 7 -313 90
-322 140 -4 19 28 22 89 8 46 -11 141 3 251 36 92 27 128 51 128 83 0 17 -6
20 -47 17 -43 -2 -48 0 -51 20 -5 36 46 55 153 57 68 1 100 -4 131 -17 31 -14
47 -16 61 -9 10 6 106 81 213 167 107 86 223 175 258 197 60 40 62 42 62 84 0
36 45 234 65 285 4 12 -4 22 -29 37 -34 20 -51 62 -26 62 5 0 17 11 26 25 15
24 15 27 0 44 -9 9 -16 34 -16 53 0 23 -5 38 -16 42 -27 10 -162 7 -169 -4 -4
-6 4 -22 18 -35 23 -24 67 -122 67 -150 0 -7 -16 -75 -36 -152 -19 -76 -44
-174 -56 -218 -34 -132 -48 -145 -71 -62 -32 113 -97 403 -97 429 0 41 38 130
65 155 42 37 14 45 -139 41 -74 -1 -137 -6 -141 -10 -4 -3 0 -17 9 -30 9 -13
24 -49 35 -81 l20 -56 -78 -235 c-42 -129 -80 -238 -84 -242 -4 -4 -12 -3 -18
3 -9 9 -88 424 -89 467 0 31 51 139 77 161 43 38 31 60 -62 121 -79 52 -141
83 -192 99 -27 8 -31 -13 -10 -48 8 -12 22 -50 32 -83 l18 -62 -67 -188 c-108
-307 -108 -306 -125 -289 -5 6 -26 119 -47 253 l-38 242 34 71 c19 39 43 75
52 80 10 5 18 20 18 32 0 18 -18 32 -104 74 l-103 52 -35 -37z"/>
<path d="M4263 1827 c-86 -42 -103 -54 -103 -73 0 -13 8 -29 19 -36 10 -7 34
-44 53 -83 l36 -70 -38 -253 c-21 -140 -43 -259 -49 -265 -12 -12 -25 16 -70
147 -16 45 -49 143 -75 219 l-47 137 16 58 c9 31 25 72 36 91 12 20 16 38 11
43 -15 15 -115 -29 -212 -93 -73 -48 -90 -63 -90 -83 0 -15 8 -30 21 -36 24
-14 82 -134 82 -170 -1 -25 -45 -334 -64 -447 -19 -107 -25 -97 -113 173 -97
300 -92 271 -67 352 11 38 28 76 37 83 15 12 14 14 -7 20 -40 11 -277 10 -284
-1 -4 -6 4 -23 17 -39 14 -15 35 -56 47 -91 l23 -62 -41 -207 c-22 -113 -43
-225 -47 -248 -4 -24 -12 -50 -19 -60 -12 -15 -13 -15 -23 3 -14 28 -132 478
-132 507 0 37 38 138 61 163 12 13 18 27 14 33 -7 12 -113 15 -164 5 -27 -6
-30 -10 -25 -31 5 -17 0 -34 -15 -54 -18 -25 -20 -33 -10 -52 7 -12 19 -27 26
-32 20 -15 6 -43 -28 -61 -33 -16 -35 -26 -15 -80 19 -56 49 -230 43 -254 -4
-16 7 -27 55 -56 32 -20 110 -73 171 -117 62 -44 145 -105 186 -134 l75 -54
77 7 c132 11 289 -38 289 -91 0 -31 -25 -39 -63 -20 -39 19 -55 7 -39 -29 14
-31 160 -107 249 -130 34 -9 93 -16 132 -16 56 0 71 -3 71 -15 0 -28 -89 -72
-180 -90 -79 -15 -94 -15 -174 -2 -78 14 -101 23 -204 85 -64 38 -146 80 -182
93 -65 23 -387 203 -502 280 -88 58 -106 77 -135 133 -24 47 -26 49 -39 30 -7
-10 -18 -25 -24 -32 -9 -10 -8 -38 4 -109 11 -72 12 -100 3 -114 -9 -14 -7
-27 10 -61 89 -181 128 -282 173 -455 l22 -83 879 0 879 0 0 549 0 549 -30 71
-30 71 16 67 c9 38 23 75 30 84 8 8 14 33 14 55 0 37 -4 41 -59 77 -33 21 -80
56 -105 79 -25 22 -46 36 -46 32 0 -4 13 -31 30 -60 l30 -53 -15 -103 c-8 -57
-23 -172 -34 -257 -11 -85 -25 -159 -30 -164 -12 -12 -21 5 -81 169 -28 76
-67 178 -86 227 -19 48 -34 93 -34 100 0 30 44 153 61 173 11 11 19 29 19 39
0 10 7 26 15 35 14 15 11 22 -26 69 -22 28 -48 55 -57 60 -12 6 -48 -7 -119
-42z"/>
</g>
</svg>
