<?xml version="1.0" standalone="no"?>
<!DOCTYPE svg PUBLIC "-//W3C//DTD SVG 20010904//EN"
 "http://www.w3.org/TR/2001/REC-SVG-20010904/DTD/svg10.dtd">
<svg version="1.0" xmlns="http://www.w3.org/2000/svg"
 width="480.000000pt" height="360.000000pt" viewBox="0 0 480.000000 360.000000"
 preserveAspectRatio="xMidYMid meet">
<metadata>
Created by potrace 1.16, written by Peter Selinger 2001-2019
</metadata>
<rect width="1" height="360" fill="#000000"/>
<rect x="479" width="1" height="360" fill="#000000"/>
<rect width="480" height="1" fill="#000000"/>
<rect y="359" width="480" height="1" fill="#000000"/>
<g transform="translate(0.000000,360.000000) scale(0.100000,-0.100000)"
fill="#000000" stroke="none">
<path d="M0 1800 l0 -1800 1115 0 c613 0 1115 3 1115 8 -1 9 -19 91 -26 113
-3 11 3 18 17 22 16 4 20 11 15 24 -13 32 -36 217 -36 288 0 39 -7 108 -15
155 -8 47 -19 145 -24 218 -6 74 -13 137 -16 142 -3 5 -38 7 -78 4 -39 -2
-167 -9 -282 -15 -240 -13 -288 -9 -338 29 -47 36 -55 51 -72 134 -9 40 -17
74 -20 76 -2 2 -34 -6 -70 -18 -61 -20 -73 -21 -128 -10 -68 13 -101 30 -117
60 -8 16 -4 25 26 55 65 65 94 76 238 85 409 27 515 41 573 78 16 9 56 39 90
66 71 55 69 42 37 203 -20 103 -19 121 10 129 13 3 63 -1 112 -10 105 -18 107
-16 100 67 -5 68 -9 75 -32 53 -9 -9 -29 -20 -45 -23 -16 -3 -32 -10 -35 -14
-3 -5 -9 -9 -14 -9 -11 0 46 107 76 143 27 32 29 46 12 70 -11 15 -42 18 -251
22 -157 3 -284 11 -375 24 -75 11 -184 22 -242 26 -58 3 -130 13 -160 22 -89
25 -107 50 -40 55 l41 3 -91 48 c-53 29 -90 55 -90 64 0 12 7 14 33 9 17 -3
73 -10 124 -16 101 -11 94 -9 213 -56 85 -33 87 -33 260 -34 171 0 241 7 263
29 6 6 20 11 31 11 12 0 31 11 43 24 26 26 63 34 138 26 30 -3 64 0 85 8 66
26 104 47 108 60 3 11 -16 13 -102 11 -85 -3 -109 -1 -116 11 -5 8 -5 21 0 30
6 11 3 20 -11 28 -25 16 -24 48 1 62 26 14 120 148 120 171 0 10 -9 21 -20 24
-29 9 -80 54 -80 70 0 8 -20 28 -45 45 -25 17 -45 35 -45 39 0 9 73 21 126 21
l34 0 0 63 c0 35 3 67 7 70 8 9 53 -19 78 -50 19 -23 23 -24 70 -13 72 16 220
-2 292 -37 18 -8 43 -13 54 -10 12 3 47 1 78 -4 108 -19 128 -41 66 -75 -19
-10 -35 -21 -35 -25 0 -3 14 -18 30 -32 37 -33 38 -47 5 -47 -19 0 -25 -5 -25
-20 0 -13 -12 -28 -30 -38 -16 -9 -30 -20 -30 -24 0 -16 103 -88 133 -92 18
-3 65 -11 106 -17 46 -7 82 -19 95 -30 11 -11 23 -19 28 -19 4 0 8 -7 8 -14 0
-9 37 -34 83 -58 111 -57 130 -79 121 -135 -5 -38 -3 -48 17 -69 l23 -25 -28
-54 c-16 -30 -35 -56 -42 -59 -8 -3 -14 -12 -14 -20 0 -8 -13 -25 -30 -39 -27
-23 -35 -25 -107 -20 -73 5 -79 3 -91 -17 -12 -20 -11 -25 10 -49 25 -26 27
-61 4 -61 -7 0 -39 21 -71 46 -35 27 -66 43 -76 41 -10 -3 -29 7 -46 25 -59
62 -119 98 -157 96 -43 -3 -42 -2 -50 -185 -3 -67 -7 -127 -8 -133 -2 -8 33
-12 107 -13 l110 -2 -3 -72 c-2 -40 -2 -73 1 -73 3 0 18 5 32 10 15 6 32 7 38
3 14 -9 19 -10 52 -12 24 -1 75 -61 75 -88 0 -7 -19 -17 -42 -24 -24 -6 -87
-25 -140 -41 -116 -35 -115 -32 -61 -156 23 -54 32 -87 25 -90 -15 -5 -5 -29
42 -93 87 -120 157 -152 331 -150 66 1 134 2 151 2 69 1 147 -62 160 -130 8
-41 -32 -94 -83 -113 -71 -24 -231 -16 -403 22 -152 34 -264 43 -322 27 -24
-6 -27 -13 -34 -74 -9 -71 -10 -123 -5 -313 2 -83 -2 -137 -15 -195 -10 -44
-19 -105 -19 -135 -1 -30 -5 -70 -10 -87 l-7 -33 1106 0 1106 0 0 1800 0 1800
-2400 0 -2400 0 0 -1800z"/>
<path d="M2393 708 c4 -137 10 -172 38 -243 12 -31 11 36 -3 222 -9 123 -15
164 -26 168 -12 4 -14 -18 -9 -147z"/>
</g>
</svg>
