<?xml version="1.0" standalone="no"?>
<!DOCTYPE svg PUBLIC "-//W3C//DTD SVG 20010904//EN"
 "http://www.w3.org/TR/2001/REC-SVG-20010904/DTD/svg10.dtd">
<svg version="1.0" xmlns="http://www.w3.org/2000/svg"
 width="480.000000pt" height="360.000000pt" viewBox="0 0 480.000000 360.000000"
 preserveAspectRatio="xMidYMid meet">
<metadata>
Created by potrace 1.16, written by Peter Selinger 2001-2019
</metadata>
<rect width="1" height="360" fill="#000000"/>
<rect x="479" width="1" height="360" fill="#000000"/>
<rect width="480" height="1" fill="#000000"/>
<rect y="359" width="480" height="1" fill="#000000"/>
<g transform="translate(0.000000,360.000000) scale(0.100000,-0.100000)"
fill="#000000" stroke="none">
<path d="M1826 2635 c-21 -21 -21 -22 8 -60 56 -73 220 -390 212 -410 -2 -7 4
-29 15 -49 10 -20 19 -51 19 -68 0 -82 45 -155 110 -179 19 -7 36 -33 68 -105
23 -52 40 -99 37 -104 -3 -4 -1 -19 4 -33 7 -17 5 -44 -4 -83 -7 -33 -16 -84
-20 -114 -3 -30 -13 -80 -22 -111 -13 -51 -13 -63 6 -165 25 -129 25 -124 7
-124 -7 0 -19 -7 -26 -15 -14 -17 4 -83 28 -101 16 -12 10 -44 -7 -44 -6 0
-39 27 -74 60 -36 33 -69 60 -75 60 -30 0 -16 -23 43 -70 36 -29 73 -66 81
-82 9 -16 31 -36 50 -44 38 -16 45 -27 49 -77 2 -18 3 -37 4 -44 1 -12 156
-93 178 -93 20 0 73 -51 112 -109 22 -31 51 -67 66 -81 36 -34 43 -47 59 -127
18 -82 57 -171 90 -202 20 -19 24 -20 29 -7 9 23 22 20 36 -8 16 -30 73 -46
156 -45 70 1 95 6 95 21 0 5 8 17 19 26 24 22 43 99 30 124 -11 20 -3 42 12
33 5 -4 9 -2 9 4 0 5 -4 12 -9 16 -6 3 -9 14 -8 24 1 16 5 18 22 9 16 -9 18
-8 8 3 -7 7 -13 24 -13 37 0 13 -5 32 -11 44 -12 23 -2 40 11 18 5 -8 12 -11
16 -7 4 4 -5 20 -20 36 -15 16 -27 32 -26 36 1 4 -30 31 -68 60 -38 30 -87 78
-109 107 -22 29 -70 89 -107 133 -37 44 -92 121 -122 171 l-55 91 7 79 c6 80
-3 131 -40 229 -10 26 -15 76 -16 141 0 97 2 106 37 179 38 81 41 103 28 233
-5 42 -11 62 -20 62 -15 0 -19 10 -36 98 -11 57 -10 64 6 76 17 12 18 22 7
159 -12 155 -20 181 -74 242 -63 73 -130 84 -215 35 -38 -22 -60 -45 -87 -88
-48 -80 -47 -112 3 -164 22 -22 37 -46 35 -52 -3 -7 -23 -18 -44 -25 -22 -6
-45 -21 -51 -32 l-11 -21 -23 22 c-18 17 -30 20 -53 15 -52 -11 -104 54 -201
250 -46 94 -89 181 -95 195 -14 30 -47 37 -70 15z m502 -753 c6 -39 8 -81 3
-98 -8 -29 -8 -29 -39 33 -18 34 -32 68 -32 75 0 12 39 58 50 58 3 0 11 -31
18 -68z m378 -1280 c15 -10 45 -125 35 -135 -14 -14 -171 85 -171 108 0 2 12
11 28 19 29 16 90 21 108 8z"/>
</g>
</svg>
