<?xml version="1.0" standalone="no"?>
<!DOCTYPE svg PUBLIC "-//W3C//DTD SVG 20010904//EN"
 "http://www.w3.org/TR/2001/REC-SVG-20010904/DTD/svg10.dtd">
<svg version="1.0" xmlns="http://www.w3.org/2000/svg"
 width="480.000000pt" height="360.000000pt" viewBox="0 0 480.000000 360.000000"
 preserveAspectRatio="xMidYMid meet">
<metadata>
Created by potrace 1.16, written by Peter Selinger 2001-2019
</metadata>
<rect width="1" height="360" fill="#000000"/>
<rect x="479" width="1" height="360" fill="#000000"/>
<rect width="480" height="1" fill="#000000"/>
<rect y="359" width="480" height="1" fill="#000000"/>
<g transform="translate(0.000000,360.000000) scale(0.100000,-0.100000)"
fill="#000000" stroke="none">
<path d="M0 1800 l0 -1800 508 0 c434 1 503 3 476 14 -17 8 -46 17 -65 21 -44
9 -161 46 -174 55 -10 8 -132 35 -198 45 -28 5 -51 20 -92 60 -89 90 -89 89
-79 310 13 282 11 367 -11 500 -30 179 -28 567 3 750 58 334 130 535 337 940
68 133 126 257 130 276 4 23 1 49 -8 71 -13 31 -24 39 -83 61 -38 14 -77 28
-86 31 -26 8 -23 55 21 361 6 39 11 78 11 88 0 16 -23 17 -345 17 l-345 0 0
-1800z"/>
<path d="M3696 3558 c32 -23 79 -58 104 -78 70 -57 85 -63 128 -49 109 35 118
43 128 117 l7 52 -213 0 -213 0 59 -42z"/>
<path d="M4400 3586 c0 -8 4 -17 9 -20 18 -12 33 -105 33 -201 -1 -55 -9 -218
-18 -361 -16 -244 -16 -269 0 -370 37 -247 42 -489 14 -699 -17 -125 -80 -285
-131 -333 l-24 -23 -12 45 c-6 26 -15 46 -19 45 -4 0 -31 -49 -61 -110 -66
-133 -213 -369 -300 -479 -84 -107 -220 -233 -326 -305 -395 -265 -817 -341
-1225 -218 -376 112 -666 433 -711 786 -16 123 7 272 58 370 44 85 148 157
230 157 53 0 103 -40 139 -112 13 -26 28 -48 33 -48 5 0 50 -49 100 -109 110
-132 165 -181 253 -225 80 -41 199 -66 222 -47 11 10 13 19 5 38 -13 34 1 53
91 134 126 111 152 138 145 149 -3 5 -24 10 -46 10 -93 0 -151 68 -209 245
-47 144 -96 210 -215 291 -91 61 -229 104 -336 104 -137 0 -324 -73 -430 -167
-92 -83 -180 -218 -224 -343 -51 -144 -68 -355 -41 -506 40 -232 152 -472 288
-620 47 -51 159 -144 224 -186 85 -55 243 -127 364 -166 195 -63 292 -77 525
-76 243 0 367 20 585 94 159 53 403 160 436 191 28 27 48 26 32 -2 -33 -54
-256 -171 -454 -239 -222 -76 -388 -100 -689 -100 -146 0 -196 -3 -193 -12 5
-14 96 -47 163 -58 28 -4 88 -15 135 -23 47 -9 150 -25 230 -37 80 -12 165
-27 190 -33 31 -8 282 -12 803 -14 l757 -3 0 1800 0 1800 -200 0 c-167 0 -200
-2 -200 -14z"/>
<path d="M2983 2799 c47 -50 116 -136 153 -190 37 -55 73 -104 81 -111 71 -59
-52 208 -128 276 -50 46 -157 116 -176 116 -8 0 24 -41 70 -91z"/>
<path d="M2423 2243 c9 -9 20 -13 24 -9 4 4 1 11 -7 16 -25 16 -35 11 -17 -7z"/>
<path d="M1216 24 c-33 -8 -62 -17 -65 -19 -2 -3 56 -5 130 -4 119 1 131 2
104 14 -50 21 -107 25 -169 9z"/>
</g>
</svg>
