<?xml version="1.0" standalone="no"?>
<!DOCTYPE svg PUBLIC "-//W3C//DTD SVG 20010904//EN"
 "http://www.w3.org/TR/2001/REC-SVG-20010904/DTD/svg10.dtd">
<svg version="1.0" xmlns="http://www.w3.org/2000/svg"
 width="480.000000pt" height="360.000000pt" viewBox="0 0 480.000000 360.000000"
 preserveAspectRatio="xMidYMid meet">
<metadata>
Created by potrace 1.16, written by Peter Selinger 2001-2019
</metadata>
<rect width="1" height="360" fill="#000000"/>
<rect x="479" width="1" height="360" fill="#000000"/>
<rect width="480" height="1" fill="#000000"/>
<rect y="359" width="480" height="1" fill="#000000"/>
<g transform="translate(0.000000,360.000000) scale(0.100000,-0.100000)"
fill="#000000" stroke="none">
<path d="M2225 2314 c-328 -33 -557 -89 -904 -220 -326 -124 -650 -226 -836
-263 -109 -22 -345 -51 -412 -51 -23 0 -48 -3 -57 -6 -19 -7 -22 -44 -4 -44
39 0 289 -34 378 -51 58 -12 188 -45 290 -74 102 -29 230 -65 285 -80 55 -14
226 -62 380 -105 154 -43 318 -88 365 -99 212 -50 457 -82 625 -80 l90 1 -44
14 c-25 8 -85 18 -135 23 -89 9 -91 9 -120 47 -16 22 -67 76 -113 120 -71 70
-83 86 -83 115 0 19 -9 90 -19 159 l-20 124 34 56 c18 30 55 95 81 144 41 76
54 91 80 98 18 4 83 34 145 66 l114 58 55 -19 c30 -10 99 -24 154 -30 l99 -11
37 -51 c47 -63 85 -102 133 -135 46 -31 46 -34 52 -140 3 -49 14 -113 25 -145
11 -32 20 -64 20 -71 0 -6 -16 -31 -36 -55 -39 -47 -84 -129 -84 -154 0 -27
-40 -95 -56 -95 -32 0 -171 -62 -204 -91 l-35 -31 148 6 c335 14 569 73 1142
286 313 117 425 150 580 174 79 12 342 35 413 36 6 0 12 7 12 15 0 8 -6 15
-12 15 -39 0 -298 44 -388 66 -58 13 -240 67 -405 119 -165 51 -403 125 -530
163 -596 180 -658 192 -980 197 -121 1 -238 1 -260 -1z"/>
</g>
</svg>
