<?xml version="1.0" standalone="no"?>
<!DOCTYPE svg PUBLIC "-//W3C//DTD SVG 20010904//EN"
 "http://www.w3.org/TR/2001/REC-SVG-20010904/DTD/svg10.dtd">
<svg version="1.0" xmlns="http://www.w3.org/2000/svg"
 width="480.000000pt" height="360.000000pt" viewBox="0 0 480.000000 360.000000"
 preserveAspectRatio="xMidYMid meet">
<metadata>
Created by potrace 1.16, written by Peter Selinger 2001-2019
</metadata>
<rect width="1" height="360" fill="#000000"/>
<rect x="479" width="1" height="360" fill="#000000"/>
<rect width="480" height="1" fill="#000000"/>
<rect y="359" width="480" height="1" fill="#000000"/>
<g transform="translate(0.000000,360.000000) scale(0.100000,-0.100000)"
fill="#000000" stroke="none">
<path d="M0 1800 l0 -1800 779 0 779 0 15 22 16 23 0 -22 1 -23 565 0 566 0
-16 30 c-8 16 -15 45 -15 65 0 60 -99 382 -146 476 -15 28 -26 65 -27 82 -1
55 14 148 24 145 21 -7 215 -196 265 -258 61 -76 79 -87 104 -65 24 22 34 19
71 -22 18 -21 51 -46 73 -56 22 -10 49 -26 59 -35 18 -16 20 -16 34 3 14 20
14 20 29 1 18 -25 18 -55 0 -62 -24 -9 -15 -44 11 -44 18 0 23 -6 23 -24 0
-20 16 -36 36 -36 3 0 12 16 20 36 12 29 13 45 3 96 -17 84 -69 145 -178 207
-72 41 -85 52 -88 77 -2 20 -21 46 -61 84 -32 30 -102 101 -156 157 l-98 102
-10 76 c-18 132 4 160 78 100 25 -20 47 -35 50 -32 9 9 24 79 24 114 0 30 -2
31 -50 38 -47 6 -51 9 -69 50 -10 23 -24 46 -30 49 -6 4 -11 14 -11 22 0 19
71 19 136 -1 74 -22 101 -19 135 15 25 25 33 28 49 18 31 -20 114 25 151 81
32 49 33 83 1 131 -11 16 -19 55 -22 110 -4 72 -8 85 -23 88 -37 7 -86 -9
-132 -45 -44 -33 -47 -38 -41 -69 3 -19 9 -50 12 -69 l7 -35 -189 4 c-196 4
-244 13 -244 47 0 18 -19 29 -52 29 -20 0 -21 4 -15 66 4 37 9 69 12 72 11 11
46 -48 65 -110 12 -40 26 -68 34 -68 25 0 121 115 155 185 54 110 52 196 -6
266 -33 38 -74 60 -143 74 -55 12 -55 12 -52 47 4 49 -26 121 -47 113 -9 -4
-20 -7 -24 -8 -5 -1 -15 21 -22 48 -37 140 -94 235 -140 235 -14 0 -41 -16
-65 -39 -36 -35 -47 -39 -108 -44 -37 -3 -87 -13 -109 -22 l-42 -17 -45 31
c-81 56 -109 39 -141 -86 -8 -32 -20 -79 -28 -106 l-13 -47 -34 35 c-19 19
-37 35 -41 35 -4 0 -10 -13 -14 -28 -4 -20 5 -59 30 -128 32 -90 34 -100 19
-111 -10 -7 -23 -9 -33 -4 -20 11 -41 3 -41 -14 0 -19 50 -53 85 -57 44 -5 45
-35 3 -52 -18 -8 -36 -17 -40 -21 -10 -10 10 -45 24 -45 6 0 19 -7 29 -16 14
-13 20 -13 39 -2 18 11 23 11 34 -4 7 -10 15 -16 18 -13 2 3 15 -6 28 -20 24
-26 50 -33 50 -14 0 5 5 7 11 3 8 -4 8 -9 0 -17 -17 -17 -13 -34 8 -40 12 -3
26 -25 39 -58 17 -46 18 -57 7 -83 -7 -17 -16 -72 -20 -123 -7 -91 -8 -92 -63
-168 -47 -65 -72 -88 -156 -143 -56 -37 -105 -69 -109 -70 -4 -2 -5 557 -1
1242 l7 1246 -801 0 -802 0 0 -1800z m2641 247 c93 -60 92 -137 -2 -245 -46
-54 -65 -53 -88 1 -22 51 -28 142 -9 134 7 -3 20 -8 29 -12 12 -4 18 1 21 19
3 14 2 29 -3 33 -4 4 -17 32 -28 61 l-20 54 26 -7 c14 -3 48 -20 74 -38z
m-637 -363 c7 -18 0 -34 -15 -34 -5 0 -9 11 -9 25 0 28 15 34 24 9z m426 -15
c0 -5 -9 -9 -19 -9 -14 0 -18 5 -14 20 4 16 8 18 19 9 8 -6 14 -15 14 -20z
m-519 -502 c-50 -107 -111 -294 -160 -489 -38 -153 -44 -223 -15 -183 7 9 17
15 23 14 6 -2 -11 -50 -38 -109 -62 -134 -93 -225 -86 -253 3 -13 -3 -36 -17
-57 l-23 -35 -3 193 c-2 157 0 196 13 215 8 12 37 99 65 192 74 247 96 306
161 440 54 108 86 155 109 155 5 0 -8 -37 -29 -83z m-161 -12 c0 -3 -24 -54
-54 -113 -29 -59 -64 -136 -77 -172 l-24 -65 -5 120 -5 120 -48 -60 c-26 -33
-68 -90 -92 -127 -36 -53 -49 -65 -65 -61 -22 6 -26 18 -10 28 6 4 8 14 5 24
-3 11 10 34 40 67 25 27 71 77 101 112 58 65 74 74 74 42 0 -16 13 -10 72 35
68 51 88 63 88 50z m270 -19 c0 -49 -32 -191 -65 -288 -35 -103 -75 -179 -75
-145 0 31 58 262 91 362 31 93 49 119 49 71z m-430 -496 c0 -136 -1 -140 -19
-130 -11 5 -27 7 -35 4 -27 -10 -20 70 15 173 17 51 33 93 35 93 2 0 4 -63 4
-140z"/>
</g>
</svg>
