<?xml version="1.0" standalone="no"?>
<!DOCTYPE svg PUBLIC "-//W3C//DTD SVG 20010904//EN"
 "http://www.w3.org/TR/2001/REC-SVG-20010904/DTD/svg10.dtd">
<svg version="1.0" xmlns="http://www.w3.org/2000/svg"
 width="480.000000pt" height="360.000000pt" viewBox="0 0 480.000000 360.000000"
 preserveAspectRatio="xMidYMid meet">
<metadata>
Created by potrace 1.16, written by Peter Selinger 2001-2019
</metadata>
<rect width="1" height="360" fill="#000000"/>
<rect x="479" width="1" height="360" fill="#000000"/>
<rect width="480" height="1" fill="#000000"/>
<rect y="359" width="480" height="1" fill="#000000"/>
<g transform="translate(0.000000,360.000000) scale(0.100000,-0.100000)"
fill="#000000" stroke="none">
<path d="M2775 3405 c-38 -7 -90 -20 -114 -29 -63 -23 -159 -84 -166 -105 -5
-16 -13 -18 -45 -14 -60 8 -127 -6 -159 -33 l-29 -24 -29 29 c-23 23 -43 31
-88 36 -90 12 -211 0 -302 -29 -79 -26 -83 -28 -93 -64 -11 -35 -8 -43 65
-187 76 -151 103 -190 137 -201 14 -4 18 -16 18 -57 0 -37 9 -70 30 -115 30
-64 38 -120 21 -137 -10 -10 -28 -193 -28 -270 1 -34 -12 -59 -84 -165 -46
-69 -92 -139 -101 -155 -35 -60 -108 -213 -108 -227 0 -8 -4 -18 -9 -24 -9 -9
-33 -94 -57 -202 -25 -115 -45 -572 -25 -572 6 0 11 -7 11 -15 0 -20 19 -19
26 0 4 9 15 20 26 26 16 8 14 1 -12 -44 -16 -29 -30 -67 -29 -83 1 -61 24
-142 46 -160 l22 -19 -19 -90 c-41 -198 -36 -275 22 -318 21 -15 26 -26 22
-41 -6 -19 -5 -19 10 -7 15 13 19 13 27 0 5 -8 9 -20 9 -26 0 -7 4 -13 8 -13
5 0 6 17 2 38 -5 31 -2 43 20 72 91 120 214 352 260 488 55 165 100 491 100
730 0 68 4 121 8 118 5 -3 17 -40 27 -82 15 -64 17 -96 10 -198 -5 -66 -9
-155 -9 -196 -1 -59 -8 -92 -33 -155 -17 -44 -41 -124 -52 -179 -32 -148 -50
-194 -181 -457 -66 -133 -120 -244 -120 -246 0 -1 329 -3 730 -3 577 0 730 3
730 13 0 6 -11 54 -24 105 l-23 94 27 71 c15 40 36 110 45 157 10 47 24 92 32
101 8 10 18 58 23 120 5 57 14 122 19 144 23 91 15 137 -45 258 -31 61 -72
148 -92 192 -31 74 -48 114 -127 322 l-27 72 21 63 c12 36 17 66 12 71 -5 5
-25 4 -47 -2 -22 -6 -44 -11 -50 -11 -10 0 -41 117 -64 241 -13 66 -57 125
-126 165 -49 29 -46 10 -25 169 l8 60 7 -60 c4 -33 13 -76 21 -95 11 -31 13
-21 20 127 6 143 4 212 -11 264 -4 15 4 19 49 20 79 2 88 50 25 132 -24 30
-58 74 -77 97 -27 33 -30 41 -15 37 10 -3 31 -9 47 -12 15 -3 38 -7 51 -10 30
-6 59 20 51 45 -3 10 -2 21 2 23 11 7 15 165 6 181 -4 6 -8 27 -9 46 -5 118
-11 141 -50 181 -42 43 -46 43 -149 24z m-471 -1112 c-7 -31 -21 -50 -29 -41
-8 7 15 68 26 68 5 0 6 -12 3 -27z m-359 -502 c-7 -23 -25 -29 -25 -8 0 14 21
39 28 33 2 -3 1 -14 -3 -25z m-60 -164 c13 -21 13 -35 -1 -133 -14 -92 -24
-123 -62 -199 -43 -86 -46 -89 -52 -60 -4 17 -5 44 -3 60 2 17 5 46 7 65 2 19
11 62 21 95 9 33 17 67 19 75 1 8 8 28 14 43 7 16 12 34 12 41 0 10 19 36 27
36 1 0 9 -10 18 -23z"/>
</g>
</svg>
