<?xml version="1.0" standalone="no"?>
<!DOCTYPE svg PUBLIC "-//W3C//DTD SVG 20010904//EN"
 "http://www.w3.org/TR/2001/REC-SVG-20010904/DTD/svg10.dtd">
<svg version="1.0" xmlns="http://www.w3.org/2000/svg"
 width="480.000000pt" height="360.000000pt" viewBox="0 0 480.000000 360.000000"
 preserveAspectRatio="xMidYMid meet">
<metadata>
Created by potrace 1.16, written by Peter Selinger 2001-2019
</metadata>
<rect width="1" height="360" fill="#000000"/>
<rect x="479" width="1" height="360" fill="#000000"/>
<rect width="480" height="1" fill="#000000"/>
<rect y="359" width="480" height="1" fill="#000000"/>
<g transform="translate(0.000000,360.000000) scale(0.100000,-0.100000)"
fill="#000000" stroke="none">
<path d="M0 1800 l0 -1800 2185 0 2185 0 1 43 c5 170 17 319 24 300 6 -19 15
-23 46 -23 26 0 41 6 48 17 8 16 10 14 16 -10 8 -29 25 -37 25 -11 0 13 3 14
14 4 12 -9 16 -5 25 27 18 70 23 121 16 167 -4 25 -11 43 -16 40 -6 -3 -7 45
-3 119 5 89 4 126 -5 131 -7 5 -11 44 -12 109 0 72 -3 96 -10 82 -7 -14 -8 -4
-5 36 2 30 0 77 -5 105 -6 27 -12 105 -14 174 -2 69 -11 168 -19 220 -9 52
-16 118 -16 145 0 28 -6 82 -14 120 -30 142 -49 251 -53 300 -4 46 -2 52 24
71 15 11 46 27 68 34 22 7 55 19 73 26 18 8 40 14 48 14 8 0 30 11 48 25 18
14 40 25 49 25 9 0 18 4 21 8 4 7 -60 85 -104 127 -80 75 -91 90 -85 112 7 31
-29 237 -91 513 -8 36 -21 112 -29 170 -9 58 -20 121 -26 140 -16 57 -39 183
-39 213 l0 27 -2185 0 -2185 0 0 -1800z m3485 200 c-4 -14 -2 -20 8 -20 35 0
57 -36 82 -133 14 -53 25 -106 25 -117 0 -20 -1 -20 -30 -5 -33 17 -36 26 -19
53 17 27 -51 172 -81 172 -24 0 -25 4 -3 41 20 34 27 37 18 9z m161 -487 c-9
-10 -40 10 -44 29 -2 8 2 28 9 44 l12 29 15 -47 c9 -27 12 -51 8 -55z m138 5
c24 -71 207 -636 260 -807 26 -82 29 -113 6 -72 -6 12 -13 34 -15 50 -4 37
-64 181 -75 181 -5 0 -12 10 -15 23 -20 70 -63 157 -94 189 -27 29 -32 41 -23
50 9 9 6 22 -14 57 -15 25 -38 58 -52 74 -23 24 -27 39 -35 152 -10 123 -3
175 22 175 5 0 21 -33 35 -72z m396 -1244 c0 -8 -4 -14 -10 -14 -5 0 -10 9
-10 21 0 11 5 17 10 14 6 -3 10 -13 10 -21z"/>
</g>
</svg>
