<?xml version="1.0" standalone="no"?>
<!DOCTYPE svg PUBLIC "-//W3C//DTD SVG 20010904//EN"
 "http://www.w3.org/TR/2001/REC-SVG-20010904/DTD/svg10.dtd">
<svg version="1.0" xmlns="http://www.w3.org/2000/svg"
 width="480.000000pt" height="360.000000pt" viewBox="0 0 480.000000 360.000000"
 preserveAspectRatio="xMidYMid meet">
<metadata>
Created by potrace 1.16, written by Peter Selinger 2001-2019
</metadata>
<rect width="1" height="360" fill="#000000"/>
<rect x="479" width="1" height="360" fill="#000000"/>
<rect width="480" height="1" fill="#000000"/>
<rect y="359" width="480" height="1" fill="#000000"/>
<g transform="translate(0.000000,360.000000) scale(0.100000,-0.100000)"
fill="#000000" stroke="none">
<path d="M0 1800 l0 -1800 1585 0 1585 0 0 58 c0 31 4 73 9 92 6 19 12 55 14
80 3 25 12 70 20 100 8 30 20 84 27 120 6 36 18 76 26 90 12 23 20 54 43 180
5 25 10 106 10 181 l2 136 -31 13 c-17 7 -39 23 -49 35 -9 13 -34 30 -54 38
-33 14 -38 14 -56 -1 -11 -9 -39 -54 -61 -98 -22 -45 -47 -87 -56 -94 -18 -16
-42 -19 -194 -24 -109 -4 -135 -9 -310 -60 -30 -9 -86 -19 -125 -22 -59 -5
-82 -1 -145 21 -114 40 -116 40 -159 12 -49 -32 -84 -42 -107 -29 -13 7 -22 6
-32 -4 -16 -16 -54 -18 -68 -4 -6 6 -33 6 -74 0 -94 -14 -108 -13 -115 10 -3
11 -12 20 -19 20 -7 0 -21 10 -32 21 -36 41 -102 61 -174 55 -66 -7 -223 13
-291 35 -81 27 -174 127 -236 254 -22 44 -49 96 -61 115 -13 20 -22 52 -22 74
0 30 -6 44 -31 65 -72 61 -77 69 -84 117 -4 27 -14 64 -21 82 -12 31 -12 33 9
41 12 5 33 21 47 36 22 23 25 37 27 107 2 79 3 81 34 100 17 11 72 61 121 111
l89 92 -5 85 c-2 47 -10 123 -16 169 l-12 85 42 36 c40 34 43 40 37 73 -5 30
-2 40 15 51 13 10 17 19 12 28 -5 7 -7 36 -6 64 3 42 -1 55 -22 81 -14 17 -26
35 -26 41 0 5 11 43 25 84 20 60 23 80 15 108 -6 19 -10 45 -10 58 0 29 35
103 77 166 38 56 40 67 15 90 -21 18 -48 141 -43 194 l3 32 -571 0 -571 0 0
-1800z m1035 1210 c3 -5 -1 -10 -9 -10 -9 0 -16 5 -16 10 0 6 4 10 9 10 6 0
13 -4 16 -10z m-765 -208 c0 -23 -4 -32 -12 -30 -15 5 -23 52 -13 76 9 25 25
-4 25 -46z m-208 -194 c-6 -6 -15 -8 -19 -4 -4 4 -1 11 7 16 19 12 27 3 12
-12z m2928 -2398 c0 -5 -2 -10 -4 -10 -3 0 -8 5 -11 10 -3 6 -1 10 4 10 6 0
11 -4 11 -10z"/>
<path d="M3574 3573 c-9 -16 -25 -40 -35 -55 -14 -20 -16 -33 -9 -56 9 -34 1
-63 -43 -152 -28 -55 -29 -88 -5 -117 15 -19 23 -16 36 12 6 14 18 25 26 25 7
0 17 11 20 25 4 14 10 23 15 20 10 -5 21 17 21 41 0 8 -11 32 -25 52 -35 51
-31 60 7 16 18 -20 33 -42 33 -49 0 -7 13 -28 28 -46 l28 -34 -7 30 c-4 17
-11 36 -17 43 -7 8 -5 12 6 12 8 0 18 -11 21 -25 6 -22 9 -24 27 -14 17 9 25
7 44 -11 15 -14 25 -18 30 -11 3 6 0 11 -8 11 -8 0 -17 7 -21 15 -3 8 -2 14 3
12 10 -3 101 80 101 93 0 13 61 102 87 125 12 11 24 30 28 43 l6 22 -190 0
-191 0 -16 -27z m97 -199 c-5 -16 -10 -21 -10 -12 -1 18 10 51 15 45 2 -1 -1
-16 -5 -33z"/>
<path d="M4039 3563 c-49 -52 -188 -268 -195 -303 -4 -19 -11 -27 -20 -23 -8
3 -14 -1 -14 -11 0 -13 4 -15 19 -7 10 6 21 7 25 4 3 -3 6 8 6 25 0 18 5 32
10 32 6 0 10 -4 10 -10 0 -18 19 -10 25 11 4 11 9 18 11 16 3 -3 28 19 56 49
28 29 55 51 60 48 5 -3 -12 -28 -37 -56 -54 -57 -53 -74 2 -30 34 26 56 68 67
122 2 8 8 26 14 40 10 23 11 23 11 4 1 -12 -6 -38 -15 -59 -8 -20 -14 -41 -12
-46 2 -5 26 9 53 31 28 23 68 55 89 73 62 50 70 56 80 57 5 0 -12 -16 -38 -36
-46 -37 -56 -55 -18 -35 12 6 27 11 34 11 7 -1 -18 -16 -57 -34 -38 -19 -104
-64 -145 -100 -41 -36 -92 -76 -112 -88 -32 -20 -57 -62 -45 -74 2 -3 35 12
72 31 37 20 69 34 72 32 2 -3 -17 -16 -43 -28 -26 -13 -68 -43 -93 -66 l-46
-43 45 5 45 5 -30 -14 c-16 -9 -35 -15 -41 -16 -23 -1 -37 -48 -29 -105 l7
-56 25 16 c37 24 39 12 3 -19 -29 -24 -59 -91 -46 -103 3 -4 40 20 81 52 42
32 77 56 80 54 4 -5 -129 -117 -167 -141 -19 -12 -28 -26 -28 -44 0 -25 0 -25
63 20 34 25 94 61 132 80 39 18 76 40 83 49 8 9 44 26 80 38 136 44 242 117
264 181 10 30 88 118 88 100 0 -4 5 0 9 8 10 17 3 72 -9 65 -4 -3 -10 19 -12
48 -3 32 -17 77 -37 116 -17 35 -30 65 -28 68 5 4 46 -59 59 -89 4 -10 12 -18
17 -18 5 0 7 -9 4 -20 -3 -11 -1 -20 5 -20 6 0 12 8 15 18 3 13 6 11 16 -12 9
-23 14 -26 26 -16 12 10 15 10 15 -3 0 -8 -5 -17 -12 -19 -7 -3 -9 -12 -4 -24
7 -18 8 -18 20 5 15 27 10 111 -8 126 -11 10 -16 105 -5 105 3 0 11 -15 17
-32 l10 -33 1 29 c1 17 -9 45 -21 63 l-23 33 -250 0 -251 0 -35 -37z m58 -55
c-3 -7 -5 -2 -5 12 0 14 2 19 5 13 2 -7 2 -19 0 -25z m408 -278 c3 -5 1 -10
-4 -10 -6 0 -11 5 -11 10 0 6 2 10 4 10 3 0 8 -4 11 -10z"/>
<path d="M4600 3591 c0 -10 28 -41 36 -41 2 0 4 11 4 25 0 18 -5 25 -20 25
-11 0 -20 -4 -20 -9z"/>
<path d="M4657 3583 c-3 -10 -8 -31 -12 -47 -6 -27 -5 -28 12 -16 31 24 41 40
36 60 -7 25 -30 26 -36 3z"/>
<path d="M4707 3585 c6 -17 25 -15 31 3 2 7 -5 12 -17 12 -14 0 -19 -5 -14
-15z"/>
<path d="M4745 3570 l-29 -30 32 0 c17 0 34 -4 37 -10 3 -6 -4 -10 -18 -10
-21 0 -24 -5 -23 -32 1 -18 6 -36 11 -41 6 -4 0 -10 -12 -13 -26 -7 -30 -35
-9 -53 10 -9 16 -8 26 4 21 26 29 17 28 -35 0 -43 -2 -49 -14 -39 -19 16 -19
-3 2 -42 8 -17 14 -48 12 -72 l-3 -42 -15 33 c-8 17 -21 32 -28 32 -10 0 -9
-7 3 -30 24 -47 19 -71 -7 -33 -20 29 -28 33 -70 33 -37 0 -48 -4 -48 -16 0
-8 -4 -13 -9 -9 -11 6 -51 -47 -51 -68 0 -8 -8 -18 -17 -21 -15 -6 -15 -8 0
-23 19 -19 17 -21 40 30 9 21 22 35 27 32 7 -4 7 -13 0 -26 -8 -14 -7 -19 1
-19 7 0 5 -8 -6 -20 -17 -19 -17 -21 0 -40 14 -16 31 -20 82 -20 47 0 63 3 63
14 0 9 7 12 20 9 13 -3 20 -14 20 -29 0 -21 -5 -24 -37 -25 -36 0 -37 -1 -18
-14 51 -36 60 -44 54 -50 -7 -7 -61 15 -71 30 -4 5 -10 7 -13 3 -3 -3 17 -29
45 -57 l50 -52 0 390 c0 426 1 419 -55 361z"/>
<path d="M4687 3503 c-11 -10 -8 -43 4 -43 5 0 7 5 4 10 -3 6 1 13 9 16 9 3
13 10 10 15 -6 11 -18 12 -27 2z"/>
<path d="M4650 3308 c0 -19 2 -20 10 -8 13 19 13 30 0 30 -5 0 -10 -10 -10
-22z"/>
<path d="M3606 3269 c-7 -35 -3 -45 13 -34 13 7 14 35 2 53 -6 10 -10 4 -15
-19z"/>
<path d="M4550 3290 c0 -5 5 -10 11 -10 5 0 7 5 4 10 -3 6 -8 10 -11 10 -2 0
-4 -4 -4 -10z"/>
<path d="M4699 3284 c-10 -13 -10 -17 2 -25 8 -5 22 -9 31 -9 15 0 16 4 6 25
-13 29 -21 31 -39 9z"/>
<path d="M3680 3264 c-6 -14 -10 -28 -10 -31 0 -9 31 19 41 39 7 14 6 18 -6
18 -8 0 -20 -12 -25 -26z"/>
<path d="M3621 3214 c-24 -28 -22 -46 3 -21 9 8 21 17 28 20 9 3 10 8 2 16 -7
8 -16 4 -33 -15z"/>
<path d="M4685 3220 c-19 -8 -19 -9 3 -9 12 -1 22 4 22 9 0 6 -1 10 -2 9 -2 0
-12 -4 -23 -9z"/>
<path d="M3447 3176 c-3 -8 2 -21 12 -30 17 -16 19 -16 23 1 10 37 -22 63 -35
29z"/>
<path d="M3850 3165 c-8 -9 -8 -15 -2 -15 12 0 26 19 19 26 -2 2 -10 -2 -17
-11z"/>
<path d="M3700 3149 c0 -5 5 -7 10 -4 6 3 10 8 10 11 0 2 -4 4 -10 4 -5 0 -10
-5 -10 -11z"/>
<path d="M3416 3106 c-4 -19 -13 -39 -21 -46 -8 -7 -15 -19 -15 -26 0 -12 5
-12 31 1 25 14 30 21 25 41 -5 17 -2 24 9 24 18 0 19 12 3 28 -19 19 -25 14
-32 -22z"/>
<path d="M3800 3110 c0 -5 5 -10 10 -10 6 0 10 5 10 10 0 6 -4 10 -10 10 -5 0
-10 -4 -10 -10z"/>
<path d="M3790 3064 c0 -8 5 -12 10 -9 6 3 10 10 10 16 0 5 -4 9 -10 9 -5 0
-10 -7 -10 -16z"/>
<path d="M3742 3049 c2 -7 10 -15 17 -17 8 -3 12 1 9 9 -2 7 -10 15 -17 17 -8
3 -12 -1 -9 -9z"/>
<path d="M3813 3035 c-3 -9 -3 -18 -1 -21 3 -3 8 4 11 16 6 23 -1 27 -10 5z"/>
<path d="M4464 3022 c-21 -16 -70 -47 -109 -71 -62 -38 -66 -42 -35 -37 31 6
173 70 209 95 12 8 12 12 2 25 -18 21 -22 21 -67 -12z"/>
<path d="M3607 3004 c-4 -4 -7 -14 -7 -23 0 -11 3 -12 11 -4 6 6 10 16 7 23
-2 6 -7 8 -11 4z"/>
<path d="M3415 2987 c-73 -24 -97 -38 -90 -55 3 -9 9 -29 12 -44 3 -16 9 -28
13 -28 3 0 17 23 30 50 13 28 27 50 32 50 11 0 42 29 37 34 -2 1 -17 -2 -34
-7z"/>
<path d="M3756 2978 c-8 -12 -13 -26 -9 -31 3 -5 -1 -13 -8 -18 -7 -4 -10 -11
-6 -15 4 -4 13 1 21 11 8 11 18 15 26 10 10 -6 10 -9 -1 -15 -10 -7 -9 -14 5
-35 21 -32 31 -23 41 38 5 29 3 43 -11 58 -22 25 -39 24 -58 -3z"/>
<path d="M4565 2989 c-10 -15 1 -23 20 -15 9 3 13 10 10 16 -8 13 -22 13 -30
-1z"/>
<path d="M3717 2966 c-4 -10 -5 -21 -2 -24 9 -9 17 6 13 25 -3 17 -4 17 -11
-1z"/>
<path d="M4500 2970 c-13 -8 -13 -10 2 -10 9 0 20 5 23 10 8 13 -5 13 -25 0z"/>
<path d="M3662 2940 c-10 -16 -10 -20 2 -20 19 0 27 13 17 28 -4 8 -11 5 -19
-8z"/>
<path d="M4584 2950 c-11 -4 -46 -11 -77 -15 -31 -4 -54 -11 -51 -16 3 -5 -6
-9 -19 -9 -14 0 -31 -9 -39 -21 -8 -13 -26 -23 -44 -24 -16 -1 -40 -5 -54 -9
-24 -8 -24 -8 -5 7 20 15 19 16 -8 22 -39 10 -142 -43 -280 -146 -34 -25 -95
-63 -135 -84 -50 -26 -87 -55 -122 -96 -28 -31 -70 -69 -94 -83 -23 -13 -57
-41 -74 -62 -31 -36 -31 -38 -15 -58 76 -91 98 -102 143 -66 35 27 41 26 94
-21 26 -23 49 -39 53 -36 3 3 -9 36 -26 73 -17 36 -31 69 -31 72 0 13 52 -70
62 -98 12 -35 17 -36 66 -11 20 10 96 47 167 81 72 34 149 73 172 86 24 14 45
25 48 25 2 0 24 8 48 18 24 10 72 22 107 27 36 4 68 9 73 10 4 1 12 2 17 3 6
0 10 9 10 19 0 14 4 12 19 -8 l19 -24 7 49 c10 82 24 99 24 33 1 -45 4 -58 16
-58 8 0 15 -7 15 -15 0 -21 23 -19 51 5 l24 20 -34 -7 c-25 -4 -32 -3 -27 5 4
7 16 12 27 12 32 0 26 15 -26 58 -31 26 -14 32 22 7 21 -14 47 -25 58 -25 14
0 16 3 7 8 -7 5 -10 16 -6 26 17 44 24 -24 24 -245 l0 -235 -82 -86 c-104
-107 -211 -241 -245 -304 -14 -27 -38 -70 -54 -95 -17 -26 -29 -51 -28 -55 1
-5 -1 -17 -6 -27 -6 -13 -10 -15 -15 -7 -6 9 -34 0 -101 -35 -105 -52 -121
-63 -113 -76 3 -5 -2 -9 -10 -9 -25 0 -19 -14 25 -61 40 -44 40 -44 34 -14 -7
30 -7 30 13 -5 20 -37 50 -48 99 -35 21 5 24 10 18 38 -6 30 -5 31 10 13 8
-11 15 -23 15 -28 0 -19 27 -5 62 33 46 49 50 42 7 -12 -34 -43 -30 -46 27
-24 30 12 35 13 22 2 -16 -13 -11 -15 43 -21 64 -6 86 0 127 38 15 14 21 15
17 5 -3 -8 -20 -24 -38 -34 l-31 -19 34 -14 c19 -8 50 -14 68 -14 17 1 32 -3
32 -9 0 -11 -104 -4 -123 8 -4 2 -35 6 -70 8 -34 3 -73 6 -87 7 -16 2 -24 -2
-22 -10 2 -10 -7 -11 -34 -6 -29 5 -35 4 -29 -6 6 -10 1 -12 -23 -7 -17 4 -33
3 -36 -2 -6 -9 58 -74 66 -66 8 9 167 21 162 13 -3 -4 -24 -8 -47 -8 -23 0
-59 -5 -80 -11 -32 -8 -36 -13 -27 -25 7 -7 17 -11 23 -7 6 4 7 1 3 -6 -5 -8
-3 -12 5 -10 29 4 80 -14 75 -26 -2 -7 1 -18 7 -24 16 -16 -5 -14 -30 4 -20
14 -22 14 -28 -5 -4 -11 -11 -18 -16 -14 -5 3 -7 14 -4 24 4 13 -1 22 -15 30
-30 16 -35 6 -22 -36 9 -29 8 -33 -3 -24 -7 6 -16 25 -19 43 -8 44 -33 77 -57
77 -11 0 -17 -5 -14 -10 3 -6 -3 -10 -14 -10 -27 0 -27 20 -1 27 24 6 25 11 5
33 -13 14 -28 16 -87 12 l-71 -5 20 20 c11 11 26 22 33 25 17 5 -25 46 -75 73
l-36 19 -41 -42 -41 -43 62 -55 c52 -48 61 -61 61 -90 0 -35 -2 -37 -104 -99
-12 -7 -19 -30 -23 -69 -5 -44 -10 -60 -24 -63 -18 -5 -42 -98 -41 -155 1 -14
-5 -29 -13 -32 -19 -7 -18 -39 4 -151 15 -79 20 -92 44 -103 54 -26 62 -90 9
-79 -15 3 -35 9 -44 12 -32 13 -30 -37 7 -196 19 -85 40 -171 46 -191 l10 -38
419 0 420 0 -1 1408 c0 858 -4 1395 -10 1376 -7 -25 -14 -32 -36 -32 -26 0
-42 12 -43 31 0 4 11 5 25 1 40 -10 32 10 -41 95 -17 20 -36 46 -43 59 -12 23
-31 27 -67 12z m-404 -180 c15 -28 9 -75 -10 -75 -8 0 -18 14 -23 32 -16 54
10 86 33 43z m67 -1692 c-3 -8 -6 -5 -6 6 -1 11 2 17 5 13 3 -3 4 -12 1 -19z"/>
<path d="M3677 2900 c-9 -11 -24 -20 -33 -20 -14 0 -14 3 -4 15 7 8 9 15 5 15
-16 0 -115 -53 -115 -61 0 -5 -5 -8 -11 -6 -24 5 -68 -106 -77 -192 -8 -80 -7
-86 16 -122 l25 -38 75 52 c41 29 91 63 111 76 55 36 81 63 81 82 0 16 -4 17
-26 9 -40 -15 -41 -12 -3 15 19 14 42 42 51 62 15 33 15 40 2 65 -8 15 -11 28
-7 28 6 1 -65 40 -72 40 0 0 -8 -9 -18 -20z m83 -66 c0 -8 -5 -12 -10 -9 -6 4
-8 11 -5 16 9 14 15 11 15 -7z"/>
<path d="M3090 2750 c0 -5 -7 -10 -15 -10 -17 0 -20 -11 -6 -25 5 -6 11 -30
14 -55 13 -109 28 -140 65 -140 13 0 12 3 -1 18 -10 10 -17 30 -17 45 0 14 -5
29 -11 32 -6 4 -10 26 -9 49 3 71 0 96 -10 96 -5 0 -10 -4 -10 -10z m7 -62
c-3 -7 -5 -2 -5 12 0 14 2 19 5 13 2 -7 2 -19 0 -25z"/>
<path d="M3093 2480 c-2 -48 20 -55 35 -12 8 24 7 31 -9 40 -25 16 -25 17 -26
-28z"/>
<path d="M3142 2435 c-10 -21 -9 -26 8 -35 29 -15 33 -12 25 18 -10 40 -20 46
-33 17z"/>
<path d="M4530 2450 c0 -5 9 -10 20 -10 11 0 20 5 20 10 0 6 -9 10 -20 10 -11
0 -20 -4 -20 -10z"/>
<path d="M4690 2430 c0 -6 7 -10 15 -10 8 0 15 2 15 4 0 2 -7 6 -15 10 -8 3
-15 1 -15 -4z"/>
<path d="M4400 2408 c0 -14 -9 -17 -47 -16 -27 1 -58 -2 -71 -6 -31 -10 -81
-116 -54 -116 41 0 222 75 200 83 -10 3 -8 9 7 21 14 10 16 15 6 16 -8 0 -20
8 -27 18 -12 16 -13 16 -14 0z"/>
<path d="M4570 2393 c-23 -5 -49 -28 -50 -45 0 -13 84 -1 88 11 3 8 8 9 16 2
8 -7 23 -7 42 -2 16 5 22 10 14 12 -30 4 -45 6 -68 8 -13 0 -20 6 -17 11 3 6
5 9 3 9 -2 -1 -14 -4 -28 -6z"/>
<path d="M4175 2328 c-45 -23 -75 -47 -75 -60 0 -7 21 -5 70 8 15 4 56 62 48
69 -1 2 -21 -6 -43 -17z"/>
<path d="M4500 2300 c-11 -6 -12 -12 -4 -20 13 -13 40 -4 48 16 6 16 -21 19
-44 4z"/>
<path d="M4344 2266 c-38 -22 -132 -52 -194 -62 -21 -4 -22 -3 -5 4 16 8 15
10 -14 15 -57 12 -58 11 -65 -58 -5 -54 -3 -74 14 -112 19 -43 22 -45 51 -39
25 5 29 3 21 -7 -8 -10 -3 -21 24 -45 19 -18 42 -32 51 -32 17 0 117 62 169
104 18 14 36 26 40 26 5 0 22 11 38 25 16 14 33 25 39 25 5 0 7 9 4 19 -3 13
1 21 11 23 13 2 10 9 -11 32 -14 15 -29 36 -32 45 -4 13 -79 61 -95 61 -3 0
-24 -11 -46 -24z"/>
<path d="M3760 2274 c0 -13 34 -54 46 -54 28 0 22 19 -11 39 -19 11 -35 18
-35 15z"/>
<path d="M4563 2261 c4 -17 2 -19 -20 -10 -31 12 -41 4 -26 -19 11 -18 43 -17
55 1 12 18 9 47 -3 47 -6 0 -9 -9 -6 -19z"/>
<path d="M4031 2214 c0 -11 3 -14 6 -6 3 7 2 16 -1 19 -3 4 -6 -2 -5 -13z"/>
<path d="M3972 2198 c-7 -7 -12 -8 -12 -4 0 5 -7 3 -15 -4 -22 -18 2 -53 92
-133 l22 -20 -10 37 c-6 21 -9 54 -7 74 3 33 1 37 -19 34 -16 -2 -23 2 -23 12
0 19 -11 21 -28 4z"/>
<path d="M4565 2200 c3 -5 11 -10 16 -10 6 0 7 5 4 10 -3 6 -11 10 -16 10 -6
0 -7 -4 -4 -10z"/>
<path d="M3879 2114 l-24 -26 44 -39 c31 -28 53 -39 75 -39 58 0 62 14 15 56
-23 22 -49 47 -58 57 -20 22 -23 22 -52 -9z"/>
<path d="M3865 1949 c-11 -17 1 -21 15 -4 8 9 8 15 2 15 -6 0 -14 -5 -17 -11z"/>
<path d="M4329 1862 c-77 -37 -89 -49 -89 -87 0 -32 -35 -88 -67 -108 -21 -13
-16 -36 7 -30 11 3 20 11 20 18 0 8 21 35 48 63 26 27 62 68 81 91 18 23 44
47 57 53 25 12 32 28 12 27 -7 0 -38 -12 -69 -27z"/>
<path d="M4073 1613 c-26 -5 -38 -32 -19 -39 16 -6 66 23 66 37 0 9 -8 10 -47
2z"/>
<path d="M3993 1583 c-18 -7 -16 -33 2 -33 8 0 15 9 15 20 0 11 -1 20 -2 19
-2 0 -9 -3 -15 -6z"/>
</g>
</svg>
