<?xml version="1.0" standalone="no"?>
<!DOCTYPE svg PUBLIC "-//W3C//DTD SVG 20010904//EN"
 "http://www.w3.org/TR/2001/REC-SVG-20010904/DTD/svg10.dtd">
<svg version="1.0" xmlns="http://www.w3.org/2000/svg"
 width="480.000000pt" height="360.000000pt" viewBox="0 0 480.000000 360.000000"
 preserveAspectRatio="xMidYMid meet">
<metadata>
Created by potrace 1.16, written by Peter Selinger 2001-2019
</metadata>
<rect width="1" height="360" fill="#000000"/>
<rect x="479" width="1" height="360" fill="#000000"/>
<rect width="480" height="1" fill="#000000"/>
<rect y="359" width="480" height="1" fill="#000000"/>
<g transform="translate(0.000000,360.000000) scale(0.100000,-0.100000)"
fill="#000000" stroke="none">
<path d="M1970 2139 c-169 -21 -308 -69 -362 -127 -30 -32 -36 -48 -47 -117
-10 -67 -10 -91 3 -151 33 -154 84 -239 202 -336 71 -58 103 -109 128 -204 11
-42 13 -70 7 -91 -5 -17 -9 -54 -9 -82 -1 -46 2 -52 31 -70 44 -26 145 -40
354 -47 145 -6 193 -4 257 10 44 9 85 21 91 26 21 17 38 121 26 153 -9 22 -8
40 3 75 29 100 53 136 135 200 148 117 168 148 243 381 39 121 50 172 52 227
1 67 -1 75 -30 110 -17 22 -42 43 -56 48 -39 14 -91 -1 -134 -38 l-38 -33 -71
19 c-150 39 -247 50 -480 53 -126 2 -264 -1 -305 -6z"/>
</g>
</svg>
