<?xml version="1.0" standalone="no"?>
<!DOCTYPE svg PUBLIC "-//W3C//DTD SVG 20010904//EN"
 "http://www.w3.org/TR/2001/REC-SVG-20010904/DTD/svg10.dtd">
<svg version="1.0" xmlns="http://www.w3.org/2000/svg"
 width="480.000000pt" height="360.000000pt" viewBox="0 0 480.000000 360.000000"
 preserveAspectRatio="xMidYMid meet">
<metadata>
Created by potrace 1.16, written by Peter Selinger 2001-2019
</metadata>
<rect width="1" height="360" fill="#000000"/>
<rect x="479" width="1" height="360" fill="#000000"/>
<rect width="480" height="1" fill="#000000"/>
<rect y="359" width="480" height="1" fill="#000000"/>
<g transform="translate(0.000000,360.000000) scale(0.100000,-0.100000)"
fill="#000000" stroke="none">
<path d="M2007 3411 c41 -37 49 -70 29 -110 -22 -41 -50 -54 -100 -47 l-41 6
25 -21 c16 -14 21 -23 13 -26 -7 -3 -70 -50 -141 -107 -123 -98 -129 -101
-162 -93 -64 15 -73 13 -92 -20 -19 -31 -19 -32 1 -50 10 -10 32 -48 47 -85
l27 -66 -27 -66 c-37 -93 -34 -115 20 -188 27 -36 43 -52 39 -38 -7 22 -6 23
8 12 9 -7 21 -37 26 -65 27 -129 63 -209 77 -173 5 14 8 14 30 -1 14 -9 21
-19 17 -23 -13 -12 -206 -31 -241 -24 -23 5 -38 2 -50 -9 -11 -9 -52 -18 -110
-24 l-93 -9 -16 33 c-10 21 -13 45 -9 67 6 33 6 34 -41 47 -56 16 -182 16
-212 0 -12 -7 -21 -17 -21 -24 0 -7 -22 -20 -50 -30 -80 -28 -145 -125 -125
-188 7 -20 7 -20 27 -2 19 17 21 17 42 -10 18 -22 30 -27 64 -27 l42 0 0 -84
c0 -113 -7 -144 -33 -148 -28 -4 -66 -61 -60 -91 3 -14 -2 -29 -11 -36 -21
-17 -20 -40 1 -64 17 -18 17 -19 0 -32 -24 -17 -21 -25 7 -25 14 0 28 -4 31
-10 4 -6 -6 -10 -24 -10 -21 0 -35 -8 -50 -29 -27 -38 -26 -64 2 -97 21 -24
27 -26 73 -20 63 9 67 12 86 61 11 29 24 42 44 49 16 4 43 14 60 21 27 11 34
10 69 -11 55 -33 130 -40 228 -20 45 9 105 16 132 16 28 0 79 7 115 14 86 18
102 7 93 -65 -5 -43 -3 -53 17 -74 13 -13 26 -22 31 -20 4 3 10 1 13 -4 11
-17 -17 -76 -59 -126 -49 -58 -67 -92 -125 -235 -24 -58 -80 -184 -125 -280
-46 -96 -94 -215 -108 -265 -23 -84 -47 -197 -47 -222 0 -14 70 -93 83 -93 10
0 48 -16 165 -71 62 -30 82 -44 82 -59 0 -20 7 -20 310 -20 297 0 312 1 332
20 12 11 31 20 43 20 12 0 41 13 63 30 23 16 46 30 51 30 17 0 73 65 98 114
l25 49 -16 89 c-9 49 -29 121 -45 161 -43 108 -68 207 -91 362 -31 202 -47
275 -75 328 -31 57 -31 86 -3 123 15 18 23 42 23 68 0 58 -31 261 -60 391 -13
61 -29 148 -35 195 -11 90 -33 164 -57 192 -14 15 -13 18 13 24 16 4 32 11 35
17 4 5 107 22 230 38 123 16 237 31 252 35 18 4 37 0 55 -12 38 -25 57 -26 83
-5 23 18 23 18 3 43 -10 13 -36 39 -57 58 -35 31 -40 32 -75 22 -20 -5 -80
-17 -132 -26 -202 -33 -288 -46 -302 -46 -12 0 -13 20 -10 118 3 91 0 132 -13
182 -29 107 -29 116 -4 152 13 18 35 43 49 55 25 22 25 22 5 37 -11 8 -29 16
-40 16 -26 0 -45 18 -45 43 0 13 -5 17 -15 13 -9 -3 -22 5 -32 20 -46 65 -149
192 -176 215 l-30 26 26 18 c23 15 26 23 26 68 -1 29 0 57 1 62 7 33 -4 48
-52 70 -72 33 -90 32 -51 -4z m788 -1081 c7 -11 -6 -14 -126 -29 -108 -14
-120 -14 -94 1 42 25 209 46 220 28z m-1370 -190 c-16 -4 -48 -8 -70 -8 l-40
1 35 7 c19 4 51 7 70 8 l35 0 -30 -8z m-125 -70 c-6 -11 -13 -20 -15 -20 -3 0
-5 9 -5 20 0 11 7 20 15 20 13 0 14 -4 5 -20z"/>
<path d="M0 1807 l0 -1373 119 3 c82 1 124 -2 136 -11 12 -8 29 -67 56 -192
21 -98 39 -191 39 -206 l0 -28 106 0 106 0 -7 28 c-4 15 -8 106 -9 202 -1 109
-6 183 -13 195 -16 30 20 61 81 70 26 4 50 14 53 21 3 8 16 14 30 14 41 0 151
69 231 144 34 32 92 134 92 163 0 27 -59 123 -121 197 -93 110 -164 225 -265
424 -51 101 -102 194 -113 206 -27 28 -27 70 0 107 18 26 20 38 14 97 -14 130
-32 237 -49 276 -9 22 -15 40 -14 41 2 1 30 9 63 19 48 14 73 15 124 8 67 -10
101 -5 162 21 43 19 55 32 63 72 6 26 0 38 -41 85 -81 92 -119 143 -142 188
-12 23 -25 42 -30 42 -13 0 -21 27 -14 46 4 12 14 14 40 9 46 -8 147 21 178
53 14 14 28 36 30 49 3 12 7 34 10 47 12 60 -51 174 -118 214 -29 17 -61 20
-154 13 -28 -2 -82 -64 -98 -110 -9 -27 -14 -53 -13 -59 2 -5 -1 -11 -7 -11
-5 -1 -11 7 -13 19 -5 31 -29 38 -117 36 -118 -3 -119 -2 -83 72 19 40 19 46
6 56 -8 6 -19 26 -23 44 -8 41 -31 51 -128 56 -40 3 -90 10 -112 15 -22 6 -43
11 -47 11 -5 0 -8 -618 -8 -1373z"/>
</g>
</svg>
