<?xml version="1.0" standalone="no"?>
<!DOCTYPE svg PUBLIC "-//W3C//DTD SVG 20010904//EN"
 "http://www.w3.org/TR/2001/REC-SVG-20010904/DTD/svg10.dtd">
<svg version="1.0" xmlns="http://www.w3.org/2000/svg"
 width="480.000000pt" height="360.000000pt" viewBox="0 0 480.000000 360.000000"
 preserveAspectRatio="xMidYMid meet">
<metadata>
Created by potrace 1.16, written by Peter Selinger 2001-2019
</metadata>
<rect width="1" height="360" fill="#000000"/>
<rect x="479" width="1" height="360" fill="#000000"/>
<rect width="480" height="1" fill="#000000"/>
<rect y="359" width="480" height="1" fill="#000000"/>
<g transform="translate(0.000000,360.000000) scale(0.100000,-0.100000)"
fill="#000000" stroke="none">
<path d="M0 1800 l0 -1800 843 0 843 0 -4 35 c-4 30 3 43 51 99 45 53 57 75
63 113 11 83 135 464 177 548 30 60 40 94 43 141 l4 61 -30 -5 c-21 -3 -38 2
-51 14 -12 11 -32 17 -48 16 -16 -2 -38 6 -55 19 -27 21 -34 22 -164 16 -133
-5 -166 -1 -184 27 -13 19 -9 27 22 37 34 12 35 16 15 43 -17 23 -20 46 -5 46
5 0 28 -16 50 -36 36 -32 44 -36 77 -29 82 15 195 91 220 148 15 32 26 33 61
9 15 -10 40 -18 57 -18 27 1 30 5 37 41 4 22 7 53 7 68 1 25 -1 27 -19 17 -16
-8 -27 -7 -48 6 -28 16 -30 16 -98 -27 -124 -76 -140 -83 -174 -69 -17 7 -42
26 -56 43 -34 40 -28 65 37 174 41 68 49 87 38 94 -8 5 -17 9 -21 9 -4 0 -12
9 -18 20 -7 14 -7 22 2 29 7 5 34 28 60 51 26 23 53 40 60 38 8 -2 27 11 43
29 38 41 129 77 145 58 8 -10 8 -20 0 -35 -13 -25 -10 -31 16 -32 52 -4 243
48 261 70 15 18 18 142 4 142 -4 0 -15 -17 -23 -37 l-14 -38 -13 75 c-8 41
-18 78 -23 81 -6 4 -5 14 3 27 11 17 11 25 -1 47 -8 14 -19 24 -26 21 -9 -3
-14 7 -16 32 -2 24 -8 36 -16 34 -10 -2 -12 5 -8 25 3 15 8 51 12 78 4 28 11
60 15 73 5 13 4 43 -3 73 -11 49 -11 53 11 70 19 15 21 22 12 33 -17 21 10 69
54 96 36 23 69 20 79 -5 9 -24 23 -17 35 15 14 40 33 46 100 29 44 -11 56 -19
61 -37 l5 -24 24 26 c36 38 66 34 96 -14 14 -22 27 -40 29 -40 2 0 20 7 40 15
32 13 40 14 64 1 48 -25 67 -54 72 -115 5 -53 7 -56 38 -66 24 -7 31 -13 25
-25 -4 -8 -6 -31 -5 -50 2 -19 4 -107 6 -195 2 -88 7 -172 11 -188 6 -24 5
-27 -16 -25 -15 2 -23 -2 -21 -9 1 -7 -2 -13 -7 -13 -5 0 -12 6 -14 13 -7 17
-27 -11 -27 -39 0 -11 -9 -29 -20 -39 -20 -18 -20 -17 -21 11 -1 29 -1 29 -9
4 l-7 -25 -11 25 c-6 14 -11 19 -11 12 -1 -8 -10 -21 -20 -30 -26 -22 -32 -57
-10 -57 9 0 23 -5 30 -12 8 -6 27 -15 43 -19 45 -11 66 -68 66 -185 0 -85 -3
-102 -27 -150 -23 -44 -38 -59 -77 -79 l-50 -26 -37 -129 c-21 -72 -40 -156
-44 -188 -9 -77 5 -98 82 -120 79 -21 248 -107 297 -150 l40 -34 -17 -44 c-11
-30 -51 -80 -116 -149 l-100 -105 31 -55 c76 -135 189 -273 268 -326 19 -13
54 -37 78 -54 l43 -30 789 0 790 0 0 1800 0 1800 -2400 0 -2400 0 0 -1800z"/>
<path d="M2313 1973 c-8 -3 -13 -23 -13 -48 l0 -44 42 4 c44 4 75 26 64 44
-11 16 -24 13 -29 -6 -2 -13 -8 -8 -22 20 -19 38 -21 39 -42 30z"/>
<path d="M2840 193 c0 -4 17 -49 37 -100 l36 -93 111 0 111 1 -83 42 c-45 23
-111 68 -147 100 -36 32 -65 55 -65 50z"/>
</g>
</svg>
