<?xml version="1.0" standalone="no"?>
<!DOCTYPE svg PUBLIC "-//W3C//DTD SVG 20010904//EN"
 "http://www.w3.org/TR/2001/REC-SVG-20010904/DTD/svg10.dtd">
<svg version="1.0" xmlns="http://www.w3.org/2000/svg"
 width="480.000000pt" height="360.000000pt" viewBox="0 0 480.000000 360.000000"
 preserveAspectRatio="xMidYMid meet">
<metadata>
Created by potrace 1.16, written by Peter Selinger 2001-2019
</metadata>
<rect width="1" height="360" fill="#000000"/>
<rect x="479" width="1" height="360" fill="#000000"/>
<rect width="480" height="1" fill="#000000"/>
<rect y="359" width="480" height="1" fill="#000000"/>
<g transform="translate(0.000000,360.000000) scale(0.100000,-0.100000)"
fill="#000000" stroke="none">
<path d="M0 1800 l0 -1800 1069 0 1069 0 6 38 c17 115 46 460 46 554 0 43 -3
49 -30 63 -16 9 -30 21 -30 27 0 6 -7 20 -17 30 -15 17 -15 18 2 18 15 0 16 3
7 12 -9 9 -6 21 13 53 24 43 37 114 70 395 14 124 14 125 -11 214 -17 61 -24
107 -21 141 5 62 33 168 58 218 11 20 15 37 9 37 -20 0 -9 45 15 65 21 16 27
32 32 78 6 56 5 59 -28 93 -18 18 -39 34 -47 34 -8 0 -12 9 -10 23 2 18 -2 22
-26 23 -16 1 -35 8 -41 18 -7 9 -16 16 -21 16 -5 0 -15 9 -22 20 -7 12 -17 18
-22 15 -14 -9 -13 116 2 173 16 63 95 142 184 184 54 25 78 31 130 30 187 -3
291 -160 344 -518 11 -72 30 -184 44 -250 14 -65 28 -153 31 -194 8 -104 13
-150 25 -260 7 -52 13 -282 15 -511 l4 -415 35 -160 c19 -87 40 -183 47 -212
l12 -52 929 0 928 0 0 1069 0 1069 -40 16 c-22 9 -46 16 -53 16 -22 1 -220
104 -297 155 -88 58 -225 194 -311 307 -167 222 -262 536 -245 812 3 61 9 121
12 134 l6 22 -1936 0 -1936 0 0 -1800z"/>
<path d="M2382 1995 c0 -16 2 -22 5 -12 2 9 2 23 0 30 -3 6 -5 -1 -5 -18z"/>
</g>
</svg>
