<?xml version="1.0" standalone="no"?>
<!DOCTYPE svg PUBLIC "-//W3C//DTD SVG 20010904//EN"
 "http://www.w3.org/TR/2001/REC-SVG-20010904/DTD/svg10.dtd">
<svg version="1.0" xmlns="http://www.w3.org/2000/svg"
 width="480.000000pt" height="360.000000pt" viewBox="0 0 480.000000 360.000000"
 preserveAspectRatio="xMidYMid meet">
<metadata>
Created by potrace 1.16, written by Peter Selinger 2001-2019
</metadata>
<rect width="1" height="360" fill="#000000"/>
<rect x="479" width="1" height="360" fill="#000000"/>
<rect width="480" height="1" fill="#000000"/>
<rect y="359" width="480" height="1" fill="#000000"/>
<g transform="translate(0.000000,360.000000) scale(0.100000,-0.100000)"
fill="#000000" stroke="none">
<path d="M958 3323 c-3 -153 -6 -963 -7 -1801 l-3 -1522 1926 0 1926 0 0 1800
0 1800 -1918 0 -1919 0 -5 -277z m1944 -942 c34 -13 203 -142 203 -155 0 -25
-49 -16 -105 18 -85 53 -98 49 -81 -27 5 -25 16 -32 86 -56 157 -55 158 -56
116 -99 l-30 -29 60 -27 c32 -16 59 -32 59 -37 0 -5 7 -9 16 -9 8 0 13 -4 9
-9 -3 -6 3 -14 12 -20 12 -7 13 -10 4 -11 -9 0 -11 -8 -7 -26 5 -20 4 -25 -7
-21 -27 10 -36 -6 -26 -48 5 -22 11 -65 15 -96 l5 -57 92 -16 c194 -35 197
-36 197 -69 0 -31 1 -31 -75 -11 -12 3 -8 -2 10 -14 30 -19 32 -19 135 0 119
21 244 27 343 15 59 -8 67 -11 62 -27 -5 -14 -1 -17 22 -12 23 4 26 2 16 -9
-20 -20 -15 -38 12 -51 14 -6 25 -18 25 -25 0 -11 8 -13 30 -8 26 6 29 4 23
-11 -5 -13 -3 -16 9 -11 10 3 19 0 22 -9 3 -8 16 -14 28 -15 l23 0 -22 -9
c-23 -9 -31 -44 -14 -55 9 -5 5 -54 -5 -64 -2 -2 1 -10 7 -18 9 -10 6 -13 -17
-13 l-29 -1 24 -13 24 -13 -28 -7 c-18 -5 -35 -2 -51 9 -29 19 -34 19 -34 0 0
-8 -7 -15 -15 -15 -8 0 -15 -6 -15 -14 0 -8 -14 -18 -32 -21 -28 -7 -30 -9
-15 -20 24 -17 21 -28 -3 -15 -11 6 -25 8 -30 5 -6 -4 -25 3 -44 14 -49 31
-66 25 -26 -9 19 -16 30 -30 23 -30 -6 0 -14 4 -17 8 -3 5 -22 21 -43 35 -44
30 -147 59 -278 77 -49 7 -119 23 -155 35 -45 16 -90 23 -147 24 -46 0 -83 -2
-83 -5 0 -3 7 -33 16 -67 8 -33 13 -70 10 -83 -12 -46 -80 -38 -92 11 -8 34
-21 31 -29 -4 -9 -43 -32 -59 -53 -37 -12 12 -17 34 -17 81 l0 66 -35 9 c-19
5 -90 11 -157 13 -101 3 -126 7 -143 22 -13 12 -18 25 -14 40 3 12 0 26 -8 32
-18 14 -134 31 -258 38 -58 3 -152 11 -209 16 -57 5 -105 8 -108 5 -8 -8 194
-66 229 -66 42 0 47 -5 40 -32 -4 -19 -10 -20 -61 -15 -64 7 -141 30 -249 76
l-74 31 -32 -25 c-30 -23 -34 -23 -54 -9 -12 8 -22 24 -22 34 0 26 -10 30 -88
41 -72 10 -112 39 -112 81 0 20 3 20 118 13 64 -4 135 -11 157 -15 47 -10 398
-47 535 -56 l95 -6 42 43 c23 24 62 76 87 114 49 75 59 126 35 179 -10 20 -9
30 4 49 36 55 33 137 -5 137 -12 0 -36 16 -55 35 -19 19 -54 41 -81 49 -158
50 -202 79 -202 132 0 27 5 37 19 41 11 3 22 11 25 19 8 22 72 18 94 -6 18
-19 24 -20 65 -10 34 9 50 20 68 48 39 59 82 82 155 82 34 0 73 -4 86 -9z"/>
<path d="M3020 1829 c15 -33 31 -63 33 -66 3 -2 24 14 46 36 23 23 48 41 57
41 14 0 14 3 3 16 -8 10 -21 13 -36 9 -14 -3 -33 1 -48 11 -14 9 -29 14 -33
10 -3 -4 0 -11 8 -16 24 -15 2 -11 -30 5 l-29 15 29 -61z"/>
<path d="M2806 1686 c-6 -36 -18 -59 -49 -95 -86 -97 -82 -90 -64 -97 30 -11
187 114 187 150 0 6 -15 29 -34 50 l-33 40 -7 -48z"/>
<path d="M3199 1586 c16 -18 117 -59 133 -54 15 6 -103 68 -128 68 -13 0 -14
-3 -5 -14z"/>
</g>
</svg>
