<?xml version="1.0" standalone="no"?>
<!DOCTYPE svg PUBLIC "-//W3C//DTD SVG 20010904//EN"
 "http://www.w3.org/TR/2001/REC-SVG-20010904/DTD/svg10.dtd">
<svg version="1.0" xmlns="http://www.w3.org/2000/svg"
 width="480.000000pt" height="360.000000pt" viewBox="0 0 480.000000 360.000000"
 preserveAspectRatio="xMidYMid meet">
<metadata>
Created by potrace 1.16, written by Peter Selinger 2001-2019
</metadata>
<rect width="1" height="360" fill="#000000"/>
<rect x="479" width="1" height="360" fill="#000000"/>
<rect width="480" height="1" fill="#000000"/>
<rect y="359" width="480" height="1" fill="#000000"/>
<g transform="translate(0.000000,360.000000) scale(0.100000,-0.100000)"
fill="#000000" stroke="none">
<path d="M0 3030 l0 -570 37 -76 c20 -42 55 -96 76 -120 59 -67 94 -60 204 40
l53 48 52 -45 c29 -24 76 -59 103 -77 28 -18 61 -43 75 -55 40 -36 162 -105
184 -105 39 1 63 31 145 178 28 50 51 99 51 107 0 24 22 27 65 10 89 -38 286
-87 412 -104 122 -16 173 8 173 82 0 59 -165 450 -199 471 -22 14 -11 42 23
58 47 23 182 121 233 169 24 23 43 49 43 59 0 45 -286 320 -363 349 -43 17
-43 36 2 89 23 26 41 51 41 55 0 4 -317 7 -705 7 l-705 0 0 -570z"/>
<path d="M2650 3585 c-30 -7 -118 -20 -195 -30 -77 -9 -164 -23 -193 -31 -46
-13 -56 -20 -68 -49 -20 -48 -18 -119 6 -228 61 -274 203 -570 344 -715 65
-68 216 -174 302 -212 124 -56 189 -34 251 88 81 155 118 222 124 222 4 0 9
-78 11 -172 5 -190 15 -231 64 -262 62 -41 142 -57 319 -63 157 -5 180 -4 305
21 235 47 417 142 564 296 148 156 243 319 254 437 9 103 -6 118 -258 253
-247 133 -432 264 -565 399 l-59 61 -576 -1 c-424 -1 -589 -5 -630 -14z"/>
<path d="M3705 1843 c-12 -10 -33 -36 -47 -58 -65 -100 -125 -203 -138 -235
-7 -19 -16 -38 -19 -42 -3 -4 -37 6 -74 22 -122 53 -314 108 -444 130 -112 18
-134 19 -178 8 l-50 -13 -9 -52 c-7 -41 -4 -69 14 -140 25 -100 120 -328 149
-356 23 -23 41 -15 41 19 0 33 17 30 58 -8 l35 -33 -6 38 c-8 48 13 59 55 27
28 -21 29 -21 19 -2 -24 44 -7 43 47 -4 50 -42 52 -40 11 12 -34 43 -26 53 23
28 66 -33 135 -93 173 -150 22 -33 61 -82 87 -110 26 -29 72 -90 103 -138 61
-94 102 -128 200 -166 117 -46 160 -73 230 -145 67 -69 75 -74 167 -105 120
-41 131 -38 112 25 -12 43 -12 48 6 67 10 11 16 27 13 35 -3 8 -1 18 6 22 14
9 41 103 41 144 0 20 -12 41 -40 69 -44 45 -49 71 -21 106 33 38 85 21 114
-38 15 -31 50 -37 83 -16 22 15 24 23 24 85 0 80 23 145 67 185 38 36 71 33
164 -13 l79 -40 0 140 0 139 -44 0 c-49 0 -48 -2 -71 97 -21 89 -65 169 -129
232 -78 77 -101 78 -201 3 -44 -32 -86 -66 -94 -75 -20 -25 -33 -21 -76 24
-42 43 -188 159 -306 243 -79 56 -139 70 -174 39z"/>
<path d="M260 1758 c-49 -109 -90 -257 -97 -348 -12 -172 59 -345 204 -498 15
-16 17 -32 4 -32 -5 0 -55 18 -111 41 -56 22 -129 45 -163 50 -108 15 -97 38
-97 -205 l0 -214 78 -21 c43 -12 87 -21 98 -21 32 -1 104 -38 104 -55 0 -46
-90 -141 -212 -223 l-68 -45 0 -76 c0 -64 3 -78 19 -88 17 -10 28 -5 86 40
158 123 241 175 301 187 55 12 59 11 76 -10 10 -12 18 -36 18 -54 0 -17 5 -66
12 -109 l11 -77 254 0 c248 0 253 0 253 20 0 12 -20 75 -45 141 -25 66 -45
125 -45 130 0 19 20 7 86 -54 38 -34 78 -69 90 -77 131 -92 165 -111 249 -134
88 -26 94 -26 425 -26 313 1 336 2 357 19 13 11 23 27 23 37 0 21 -228 253
-377 383 -189 165 -319 231 -455 231 -66 0 -80 12 -41 36 310 190 435 335 571
664 17 41 61 145 97 231 36 86 65 164 65 173 0 23 -36 20 -116 -10 -38 -14
-143 -52 -234 -84 -220 -78 -292 -105 -359 -137 -176 -83 -323 -203 -442 -358
-39 -52 -72 -95 -73 -95 -1 0 -2 39 -2 88 -1 48 -7 100 -13 117 -31 77 -127
198 -279 349 -88 87 -166 162 -173 167 -33 21 -50 9 -79 -53z"/>
<path d="M2750 824 c-41 -30 -90 -65 -107 -77 -42 -28 -60 -69 -45 -101 33
-73 328 -360 417 -406 l47 -24 19 24 c25 34 24 44 -11 95 -16 24 -34 55 -39
69 -6 13 -35 43 -65 65 -83 61 -120 121 -131 214 -8 66 3 74 31 21 18 -34 69
-72 81 -60 3 3 -6 24 -22 47 -28 44 -65 139 -65 171 0 30 -31 20 -110 -38z"/>
<path d="M4627 224 c-32 -29 -56 -58 -52 -64 3 -5 24 -10 45 -10 27 0 48 -8
69 -26 l30 -25 7 26 c8 31 -13 130 -30 144 -7 6 -31 -9 -69 -45z"/>
<path d="M2957 80 c-31 -38 -57 -72 -57 -75 0 -3 49 -5 109 -5 l109 0 28 33
27 32 -49 3 c-53 4 -79 20 -88 58 -4 13 -10 24 -14 24 -4 0 -33 -31 -65 -70z"/>
<path d="M3217 143 c-13 -12 -7 -23 13 -23 11 0 20 7 20 15 0 15 -21 21 -33 8z"/>
<path d="M4726 24 c-9 -23 -8 -24 19 -24 23 0 24 2 15 20 -13 24 -26 26 -34 4z"/>
</g>
</svg>
