<?xml version="1.0" standalone="no"?>
<!DOCTYPE svg PUBLIC "-//W3C//DTD SVG 20010904//EN"
 "http://www.w3.org/TR/2001/REC-SVG-20010904/DTD/svg10.dtd">
<svg version="1.0" xmlns="http://www.w3.org/2000/svg"
 width="480.000000pt" height="360.000000pt" viewBox="0 0 480.000000 360.000000"
 preserveAspectRatio="xMidYMid meet">
<metadata>
Created by potrace 1.16, written by Peter Selinger 2001-2019
</metadata>
<rect width="1" height="360" fill="#000000"/>
<rect x="479" width="1" height="360" fill="#000000"/>
<rect width="480" height="1" fill="#000000"/>
<rect y="359" width="480" height="1" fill="#000000"/>
<g transform="translate(0.000000,360.000000) scale(0.100000,-0.100000)"
fill="#000000" stroke="none">
<path d="M0 1800 l0 -1800 1109 0 1108 0 -8 44 c-7 41 -13 111 -39 491 -6 77
-14 255 -20 395 -5 140 -12 275 -15 300 -4 45 -9 182 -24 725 -13 510 -6 1098
20 1465 5 74 9 145 9 158 l0 22 -1070 0 -1070 0 0 -1800z"/>
<path d="M4777 3078 c-9 -35 -33 -169 -52 -298 -20 -129 -38 -242 -40 -250 -6
-19 -32 -458 -45 -753 -20 -461 -7 -1188 30 -1603 16 -184 12 -174 76 -174
l54 0 0 1570 c0 864 -2 1570 -4 1570 -1 0 -10 -28 -19 -62z"/>
</g>
</svg>
