<?xml version="1.0" standalone="no"?>
<!DOCTYPE svg PUBLIC "-//W3C//DTD SVG 20010904//EN"
 "http://www.w3.org/TR/2001/REC-SVG-20010904/DTD/svg10.dtd">
<svg version="1.0" xmlns="http://www.w3.org/2000/svg"
 width="480.000000pt" height="360.000000pt" viewBox="0 0 480.000000 360.000000"
 preserveAspectRatio="xMidYMid meet">
<metadata>
Created by potrace 1.16, written by Peter Selinger 2001-2019
</metadata>
<rect width="1" height="360" fill="#000000"/>
<rect x="479" width="1" height="360" fill="#000000"/>
<rect width="480" height="1" fill="#000000"/>
<rect y="359" width="480" height="1" fill="#000000"/>
<g transform="translate(0.000000,360.000000) scale(0.100000,-0.100000)"
fill="#000000" stroke="none">
<path d="M0 2170 l0 -1430 88 0 c48 0 94 5 102 10 12 7 15 38 16 160 1 135 3
156 24 199 19 42 27 50 57 54 75 13 92 27 99 84 4 36 2 58 -6 68 -16 20 -5 34
46 55 34 15 44 25 44 43 0 12 -5 28 -11 34 -8 8 -6 18 6 37 22 33 27 32 43 -1
8 -18 9 -30 2 -37 -27 -27 -3 -77 45 -93 22 -7 29 -15 26 -29 -2 -10 -5 -44
-8 -76 -5 -56 -4 -56 29 -71 18 -9 47 -18 65 -22 28 -5 35 -14 58 -72 17 -44
23 -68 16 -73 -17 -10 -20 -252 -3 -257 9 -4 12 17 12 83 l0 88 51 78 c28 43
55 78 59 78 4 0 28 -37 53 -83 42 -73 47 -89 47 -144 l0 -61 63 -6 c34 -3 139
-8 232 -11 94 -3 212 -8 264 -12 l94 -6 65 -60 c85 -79 87 -74 78 136 l-7 159
47 69 c26 38 51 69 55 69 4 0 28 -33 53 -72 l47 -72 -6 -151 c-2 -82 -7 -304
-10 -492 l-6 -343 1436 0 1435 0 0 1800 0 1800 -2400 0 -2400 0 0 -1430z
m3214 599 c33 -26 51 -66 36 -84 -7 -8 -5 -30 8 -71 l18 -59 104 -20 c60 -12
105 -26 108 -33 5 -17 -58 -74 -75 -68 -7 3 -13 0 -13 -7 0 -16 37 -57 50 -57
6 0 10 -4 10 -10 0 -5 -11 -10 -25 -10 -14 0 -25 -4 -25 -10 0 -5 -6 -7 -14
-4 -8 3 -17 0 -22 -7 -4 -7 -2 -15 4 -17 7 -2 12 -8 12 -13 0 -6 -10 -5 -22 2
-13 6 -20 8 -16 4 9 -10 -17 -36 -40 -40 -14 -2 -16 -11 -14 -59 2 -35 -1 -62
-8 -71 -18 -22 -4 -18 38 10 53 35 163 78 173 68 13 -13 -14 -94 -50 -153 -28
-46 -30 -65 -5 -40 6 6 80 12 175 14 l164 4 -27 -22 c-16 -12 -28 -25 -28 -28
0 -4 23 -14 51 -23 37 -12 48 -20 40 -28 -20 -20 -12 -26 39 -33 60 -8 72 -20
30 -29 -41 -9 -45 -21 -11 -33 16 -6 39 -20 52 -33 l22 -22 -54 6 c-30 3 -48
4 -41 1 6 -3 12 -14 12 -25 0 -10 9 -24 20 -31 25 -16 26 -30 3 -21 -15 5 -16
3 -5 -8 20 -21 14 -30 -15 -24 l-28 6 28 -16 c26 -15 27 -18 11 -29 -15 -11
-11 -15 35 -31 53 -20 71 -40 25 -29 -19 5 -25 4 -20 -5 9 -15 4 -14 -44 5
-47 19 -51 17 -39 -13 5 -15 17 -23 31 -23 13 0 30 -5 38 -11 11 -8 -1 -9 -44
-5 -50 6 -57 4 -52 -9 3 -8 0 -15 -6 -15 -9 0 -9 -3 0 -12 23 -23 12 -28 -23
-11 -44 21 -51 14 -29 -29 l17 -33 -42 38 c-50 45 -81 49 -82 10 0 -16 -7 -44
-14 -63 -11 -28 -14 -30 -14 -12 -1 12 -5 22 -11 22 -5 0 -10 9 -10 20 0 15
-17 27 -66 50 -37 16 -68 30 -69 30 -2 0 -8 -21 -15 -47 -14 -59 -35 -83 -71
-83 -36 0 -55 28 -64 95 -3 28 -9 60 -12 72 -5 22 -62 63 -87 63 -8 0 -22 -33
-36 -82 -13 -46 -27 -91 -32 -100 -22 -44 -77 5 -81 73 -3 38 -6 44 -27 47
-36 5 -51 22 -48 50 2 14 -2 27 -8 29 -14 5 -25 -45 -13 -53 5 -3 9 -17 9 -32
l-1 -27 -20 25 c-12 14 -37 43 -57 64 -36 40 -36 40 -42 15 -9 -36 -36 -31
-33 6 2 23 -3 33 -20 40 -16 7 -22 19 -22 40 0 30 1 30 61 33 55 3 62 5 78 33
10 17 40 46 66 65 40 28 50 42 55 74 4 22 10 42 15 45 14 8 -15 84 -38 101
-13 9 -22 26 -22 42 -1 15 -7 38 -15 52 -19 32 -18 90 0 114 22 29 18 100 -7
156 -26 56 -35 58 -110 35 -27 -8 -48 -10 -48 -5 0 4 -3 15 -6 24 -4 11 12 24
58 47 55 28 61 33 45 43 -40 24 -52 35 -45 41 3 4 20 -1 37 -10 37 -18 71 -6
71 25 0 12 7 20 18 20 10 0 27 18 41 46 48 89 117 118 175 73z"/>
<path d="M2978 1772 c-32 -19 -36 -32 -10 -32 11 0 24 11 30 25 6 14 11 25 9
25 -1 0 -14 -8 -29 -18z"/>
<path d="M3740 1541 c0 -12 39 -25 48 -16 7 7 -17 25 -35 25 -7 0 -13 -4 -13
-9z"/>
</g>
</svg>
