<?xml version="1.0" standalone="no"?>
<!DOCTYPE svg PUBLIC "-//W3C//DTD SVG 20010904//EN"
 "http://www.w3.org/TR/2001/REC-SVG-20010904/DTD/svg10.dtd">
<svg version="1.0" xmlns="http://www.w3.org/2000/svg"
 width="480.000000pt" height="360.000000pt" viewBox="0 0 480.000000 360.000000"
 preserveAspectRatio="xMidYMid meet">
<metadata>
Created by potrace 1.16, written by Peter Selinger 2001-2019
</metadata>
<rect width="1" height="360" fill="#000000"/>
<rect x="479" width="1" height="360" fill="#000000"/>
<rect width="480" height="1" fill="#000000"/>
<rect y="359" width="480" height="1" fill="#000000"/>
<g transform="translate(0.000000,360.000000) scale(0.100000,-0.100000)"
fill="#000000" stroke="none">
<path d="M1030 3588 c0 -15 43 -130 84 -228 15 -36 38 -76 51 -90 13 -14 35
-49 49 -77 15 -29 28 -53 30 -53 2 0 -5 26 -16 57 -25 77 -20 98 12 53 24 -33
25 -43 28 -204 3 -170 -3 -205 -30 -178 -31 31 -59 -9 -36 -52 10 -19 12 -51
7 -123 -4 -54 -10 -199 -14 -323 -6 -195 -10 -229 -26 -256 -20 -33 -24 -48
-11 -41 4 3 24 2 44 -2 l38 -6 3 -213 c3 -164 1 -217 -9 -230 -8 -9 -14 -24
-14 -33 0 -8 -13 -28 -29 -43 -16 -16 -35 -41 -41 -57 -7 -16 -28 -45 -46 -65
-19 -19 -34 -40 -34 -46 0 -6 -17 -34 -39 -62 -65 -86 -94 -135 -87 -151 3 -9
-6 -23 -25 -37 -42 -31 -122 -158 -109 -173 7 -8 -3 -24 -31 -51 -40 -39 -129
-181 -129 -207 0 -7 -12 -29 -26 -48 -40 -53 -107 -190 -111 -228 -2 -18 -14
-47 -27 -65 -41 -55 -48 -73 -34 -96 11 -17 8 -24 -23 -57 -40 -43 -61 -86
-53 -108 3 -8 -4 -26 -15 -41 -12 -15 -21 -33 -21 -40 0 -12 351 -14 2223 -14
l2223 0 2 62 c12 417 12 552 3 561 -15 15 -174 21 -246 9 -33 -6 -64 -7 -68
-2 -26 24 -120 414 -157 650 -25 162 -42 225 -81 302 -52 102 -185 225 -335
308 l-42 23 -6 186 c-3 102 -10 293 -16 425 -6 131 -9 240 -7 242 2 2 20 -60
41 -139 75 -281 93 -337 111 -337 6 0 18 -18 25 -40 7 -22 15 -38 18 -36 2 3
-3 58 -12 123 -19 146 -43 363 -51 463 -9 116 -54 476 -66 527 -7 36 -7 49 3
59 19 17 75 27 83 15 8 -14 72 -14 80 -1 5 8 11 7 21 -1 21 -17 38 -6 74 48
33 47 44 112 26 141 -11 18 -3156 17 -3156 0z m600 -925 l43 -77 -27 -86 c-15
-47 -36 -106 -47 -132 -10 -26 -19 -64 -19 -85 -1 -21 -7 -49 -15 -63 -14 -24
-14 -23 -15 30 0 106 27 490 35 490 2 0 22 -35 45 -77z m-135 -633 c6 -10 -34
-55 -42 -46 -3 3 -3 17 1 31 6 25 29 34 41 15z"/>
</g>
</svg>
