<?xml version="1.0" standalone="no"?>
<!DOCTYPE svg PUBLIC "-//W3C//DTD SVG 20010904//EN"
 "http://www.w3.org/TR/2001/REC-SVG-20010904/DTD/svg10.dtd">
<svg version="1.0" xmlns="http://www.w3.org/2000/svg"
 width="480.000000pt" height="360.000000pt" viewBox="0 0 480.000000 360.000000"
 preserveAspectRatio="xMidYMid meet">
<metadata>
Created by potrace 1.16, written by Peter Selinger 2001-2019
</metadata>
<rect width="1" height="360" fill="#000000"/>
<rect x="479" width="1" height="360" fill="#000000"/>
<rect width="480" height="1" fill="#000000"/>
<rect y="359" width="480" height="1" fill="#000000"/>
<g transform="translate(0.000000,360.000000) scale(0.100000,-0.100000)"
fill="#000000" stroke="none">
<path d="M2607 3243 c-4 -3 11 -22 33 -40 71 -61 71 -67 -13 -106 -125 -58
-180 -132 -193 -262 -7 -64 -7 -65 -37 -65 l-29 0 18 -27 c10 -16 28 -36 41
-46 13 -10 23 -25 23 -34 0 -21 -125 -148 -165 -167 -18 -9 -47 -16 -64 -16
-38 0 -42 -24 -10 -64 14 -18 30 -26 53 -26 17 0 37 -5 44 -12 11 -11 13 -11
63 31 9 8 31 15 49 16 31 3 31 3 25 -36 -7 -41 2 -70 15 -49 4 7 19 -7 39 -38
37 -58 61 -73 62 -39 1 20 2 20 13 -6 7 -15 15 -25 18 -22 9 9 31 -92 23 -105
-4 -6 -2 -16 3 -23 16 -18 32 -157 32 -268 0 -90 -2 -104 -24 -132 -50 -67
-70 -130 -31 -97 22 18 19 7 -21 -72 -20 -40 -59 -95 -86 -124 -27 -29 -66
-78 -86 -111 -32 -50 -37 -66 -37 -118 -1 -52 -5 -67 -35 -110 -40 -57 -30
-39 -147 -261 -50 -94 -117 -214 -148 -265 -56 -91 -58 -96 -61 -176 -2 -60 0
-84 11 -93 25 -21 26 -65 4 -146 -12 -43 -28 -91 -35 -106 l-15 -28 50 0 c58
0 57 -1 107 130 17 46 36 85 40 87 5 1 38 -22 74 -53 36 -31 97 -80 136 -110
l71 -54 658 2 659 3 23 90 c12 50 27 137 32 195 5 58 16 123 24 146 9 22 28
99 42 170 l27 129 -22 160 c-13 98 -41 233 -72 350 -113 427 -106 389 -118
645 -11 241 -25 415 -35 441 -3 9 6 23 25 37 31 23 41 62 16 62 -56 0 -118
156 -120 305 -1 75 -6 100 -28 148 -37 78 -126 170 -202 207 -92 44 -295 83
-419 78 -98 -3 -99 -3 -119 25 -11 15 -33 34 -49 42 -28 15 -120 21 -132 8z"/>
</g>
</svg>
