<?xml version="1.0" standalone="no"?>
<!DOCTYPE svg PUBLIC "-//W3C//DTD SVG 20010904//EN"
 "http://www.w3.org/TR/2001/REC-SVG-20010904/DTD/svg10.dtd">
<svg version="1.0" xmlns="http://www.w3.org/2000/svg"
 width="480.000000pt" height="360.000000pt" viewBox="0 0 480.000000 360.000000"
 preserveAspectRatio="xMidYMid meet">
<metadata>
Created by potrace 1.16, written by Peter Selinger 2001-2019
</metadata>
<rect width="1" height="360" fill="#000000"/>
<rect x="479" width="1" height="360" fill="#000000"/>
<rect width="480" height="1" fill="#000000"/>
<rect y="359" width="480" height="1" fill="#000000"/>
<g transform="translate(0.000000,360.000000) scale(0.100000,-0.100000)"
fill="#000000" stroke="none">
<path d="M0 1800 l0 -1800 1205 0 c859 0 1205 3 1205 11 0 6 -34 81 -76 167
-109 224 -177 390 -182 443 -3 34 1 57 18 88 23 47 79 129 121 177 14 17 29
50 33 72 4 29 17 52 44 79 25 25 43 55 52 88 26 92 123 166 263 201 34 9 94
31 133 51 l71 35 7 51 c15 131 -1 419 -29 502 -9 24 -19 90 -23 147 l-7 103
-65 8 c-100 12 -222 38 -252 53 -15 8 -47 14 -73 14 -25 0 -45 4 -45 8 0 22
222 272 241 272 5 0 9 6 9 13 0 6 -21 22 -47 34 -55 25 -178 122 -168 131 4 4
57 16 118 27 l112 20 -4 80 c-2 44 -4 91 -5 105 -1 21 4 25 29 28 30 3 43 -5
145 -95 21 -18 41 -33 45 -33 5 0 17 -8 27 -17 18 -16 25 -16 131 5 211 40
456 62 689 62 97 0 188 4 202 9 16 7 37 34 62 81 40 77 72 103 99 80 8 -7 15
-27 15 -45 0 -64 18 -93 63 -104 23 -5 60 -14 82 -19 22 -6 69 -15 105 -22
119 -21 187 -63 176 -107 -8 -29 9 -37 123 -58 94 -17 111 -26 111 -62 0 -39
-36 -76 -102 -103 -34 -14 -63 -30 -65 -36 -2 -6 17 -22 42 -35 24 -13 47 -29
49 -36 12 -30 -103 -82 -259 -119 -44 -10 -87 -26 -96 -35 -33 -33 -44 -328
-21 -608 10 -132 10 -168 -4 -261 -20 -140 -12 -161 84 -218 37 -22 90 -65
117 -95 65 -72 68 -76 85 -117 8 -19 24 -51 37 -70 27 -43 63 -178 63 -243 0
-58 -21 -112 -61 -153 -29 -30 -30 -33 -35 -155 -2 -68 -9 -158 -14 -199 -5
-41 -9 -103 -8 -137 l1 -63 114 0 113 0 0 1800 0 1800 -2400 0 -2400 0 0
-1800z"/>
</g>
</svg>
