<?xml version="1.0" standalone="no"?>
<!DOCTYPE svg PUBLIC "-//W3C//DTD SVG 20010904//EN"
 "http://www.w3.org/TR/2001/REC-SVG-20010904/DTD/svg10.dtd">
<svg version="1.0" xmlns="http://www.w3.org/2000/svg"
 width="480.000000pt" height="360.000000pt" viewBox="0 0 480.000000 360.000000"
 preserveAspectRatio="xMidYMid meet">
<metadata>
Created by potrace 1.16, written by Peter Selinger 2001-2019
</metadata>
<rect width="1" height="360" fill="#000000"/>
<rect x="479" width="1" height="360" fill="#000000"/>
<rect width="480" height="1" fill="#000000"/>
<rect y="359" width="480" height="1" fill="#000000"/>
<g transform="translate(0.000000,360.000000) scale(0.100000,-0.100000)"
fill="#000000" stroke="none">
<path d="M3255 3462 c-6 -4 -20 -21 -30 -39 -44 -70 -260 -273 -321 -301 -16
-8 -40 -19 -54 -26 -17 -8 -26 -21 -28 -43 -4 -36 15 -47 54 -32 15 5 29 8 31
5 12 -11 -11 -48 -38 -62 -40 -20 -171 -48 -232 -48 -61 -1 -77 -20 -77 -94
l0 -54 30 6 c17 3 30 1 30 -4 0 -6 12 -10 28 -10 15 0 32 -4 37 -8 19 -13 55
-90 55 -115 0 -14 5 -38 10 -52 9 -23 13 -25 25 -15 12 10 15 9 15 -7 0 -11
14 -36 31 -54 22 -25 29 -28 25 -14 -3 11 -1 27 4 35 7 11 10 5 10 -22 0 -41
-23 -72 -65 -88 -32 -12 -32 -43 0 -64 19 -13 24 -22 19 -38 -3 -11 -1 -30 6
-43 9 -16 9 -32 0 -64 l-11 -42 -77 42 c-42 23 -115 61 -162 85 -52 27 -110
67 -150 104 -195 182 -262 227 -412 276 -78 25 -88 31 -93 56 -9 38 -89 145
-115 153 -23 7 -50 -9 -50 -31 0 -25 -17 -15 -44 26 -42 63 -48 88 -47 182 0
48 -3 89 -8 92 -5 4 -29 -14 -54 -37 -35 -35 -47 -55 -56 -96 -18 -86 -8 -191
22 -227 21 -26 50 -58 120 -130 l68 -71 -20 -74 c-28 -102 -40 -182 -51 -336
-9 -138 -5 -202 15 -209 6 -3 61 18 121 47 150 71 219 69 329 -9 27 -19 152
-87 277 -149 150 -76 228 -120 228 -130 0 -16 -12 -38 -134 -252 -86 -151
-110 -230 -90 -303 7 -27 21 -63 32 -81 l19 -33 -23 -45 c-30 -57 -30 -67 1
-75 14 -3 25 -10 25 -15 0 -5 -20 -27 -45 -50 -25 -23 -66 -76 -92 -118 -26
-42 -60 -91 -75 -109 -31 -37 -35 -54 -13 -72 22 -18 49 -4 76 40 25 42 55 84
44 62 -9 -17 48 -69 85 -77 28 -6 30 -10 30 -50 0 -29 -5 -47 -15 -53 -16 -8
-34 -126 -29 -187 1 -16 3 -94 3 -173 l1 -142 807 2 808 3 12 65 c7 36 10 96
7 135 -4 51 -1 83 10 117 16 45 15 60 -8 277 -23 208 -33 257 -101 528 -101
398 -105 426 -99 625 6 181 19 352 29 368 3 5 15 10 26 10 24 0 24 2 -5 56
-15 28 -22 57 -20 77 1 18 5 64 8 104 5 58 12 82 39 124 28 46 32 62 36 136 3
93 -14 163 -71 278 -63 127 -133 202 -278 300 -135 91 -210 117 -321 113 l-86
-3 33 44 c35 46 43 78 22 99 -14 14 -28 15 -43 4z"/>
</g>
</svg>
