<?xml version="1.0" standalone="no"?>
<!DOCTYPE svg PUBLIC "-//W3C//DTD SVG 20010904//EN"
 "http://www.w3.org/TR/2001/REC-SVG-20010904/DTD/svg10.dtd">
<svg version="1.0" xmlns="http://www.w3.org/2000/svg"
 width="480.000000pt" height="360.000000pt" viewBox="0 0 480.000000 360.000000"
 preserveAspectRatio="xMidYMid meet">
<metadata>
Created by potrace 1.16, written by Peter Selinger 2001-2019
</metadata>
<rect width="1" height="360" fill="#000000"/>
<rect x="479" width="1" height="360" fill="#000000"/>
<rect width="480" height="1" fill="#000000"/>
<rect y="359" width="480" height="1" fill="#000000"/>
<g transform="translate(0.000000,360.000000) scale(0.100000,-0.100000)"
fill="#000000" stroke="none">
<path d="M0 1800 l0 -1800 998 0 c618 0 991 4 982 10 -17 11 -14 20 70 225 79
191 114 304 101 330 -18 39 -21 58 -10 71 6 7 17 10 25 7 8 -3 14 0 14 6 0 7
9 73 21 148 16 105 19 141 10 155 -8 13 -8 24 -1 38 16 31 13 61 -7 58 -23 -4
-31 42 -10 57 13 9 12 14 -7 35 -12 14 -37 33 -55 44 -32 18 -33 18 -54 -2
-33 -30 -62 -42 -99 -42 -39 0 -78 24 -78 48 0 10 -11 37 -24 62 -26 48 -24
67 13 119 10 14 24 43 30 63 22 66 106 141 219 195 l102 48 30 97 c33 105 57
135 127 159 34 11 35 13 16 18 -22 6 -22 7 -8 35 8 15 13 31 10 35 -2 4 2 24
9 44 l12 36 16 -32 c21 -42 32 -70 30 -80 -1 -4 3 -6 9 -5 19 5 21 -20 2 -25
-11 -3 -6 -5 12 -6 45 -2 108 -21 129 -39 10 -10 39 -47 63 -84 24 -37 47 -69
51 -72 4 -2 48 -11 99 -20 128 -22 212 -52 268 -94 40 -32 50 -47 71 -109 20
-62 22 -79 14 -124 -12 -64 -52 -119 -85 -119 -23 0 -116 43 -112 52 3 7 -46
-48 -85 -95 -72 -86 -160 -107 -262 -62 -31 14 -59 25 -62 25 -12 0 10 -97 30
-134 15 -28 18 -40 9 -43 -19 -7 -16 -64 7 -108 35 -69 43 -102 29 -127 -7
-13 -12 -33 -10 -46 6 -56 -37 -117 -69 -97 -5 3 -10 1 -10 -6 0 -34 70 -232
130 -369 75 -171 91 -229 66 -250 -9 -7 -16 -16 -16 -21 0 -5 442 -9 1020 -9
l1020 0 0 1800 0 1800 -884 0 -883 0 -1 -92 c-2 -153 -43 -349 -103 -498 -59
-144 -148 -267 -358 -494 -101 -110 -146 -188 -156 -271 -9 -67 -20 -78 -30
-29 -12 68 -52 139 -206 369 -267 399 -281 426 -330 610 -15 59 -22 124 -26
243 l-6 162 -908 0 -909 0 0 -1800z"/>
<path d="M3101 1428 c-32 -9 -91 -46 -91 -57 0 -3 24 -19 53 -35 47 -25 56
-27 75 -15 18 11 52 83 52 111 0 10 -46 9 -89 -4z"/>
<path d="M2775 1300 c-63 -7 -147 -32 -168 -50 -6 -6 74 -44 136 -64 36 -12
109 16 149 56 68 68 53 76 -117 58z"/>
<path d="M1900 1274 c0 -3 7 -28 16 -55 12 -37 22 -51 40 -55 29 -7 62 0 88
19 18 13 18 16 3 37 -25 36 -69 60 -109 60 -21 0 -38 -3 -38 -6z"/>
<path d="M2190 1223 c-8 -2 -21 -6 -28 -9 -9 -3 -3 -13 18 -30 35 -30 33 -30
48 14 10 28 9 32 -6 31 -9 0 -24 -3 -32 -6z"/>
</g>
</svg>
