<?xml version="1.0" standalone="no"?>
<!DOCTYPE svg PUBLIC "-//W3C//DTD SVG 20010904//EN"
 "http://www.w3.org/TR/2001/REC-SVG-20010904/DTD/svg10.dtd">
<svg version="1.0" xmlns="http://www.w3.org/2000/svg"
 width="480.000000pt" height="360.000000pt" viewBox="0 0 480.000000 360.000000"
 preserveAspectRatio="xMidYMid meet">
<metadata>
Created by potrace 1.16, written by Peter Selinger 2001-2019
</metadata>
<rect width="1" height="360" fill="#000000"/>
<rect x="479" width="1" height="360" fill="#000000"/>
<rect width="480" height="1" fill="#000000"/>
<rect y="359" width="480" height="1" fill="#000000"/>
<g transform="translate(0.000000,360.000000) scale(0.100000,-0.100000)"
fill="#000000" stroke="none">
<path d="M674 3518 c-325 -339 -511 -666 -637 -1118 l-32 -115 -3 -476 -3
-477 30 -119 c46 -181 94 -312 181 -488 122 -248 255 -440 439 -627 87 -90 98
-98 133 -98 l39 0 -18 31 c-10 18 -23 39 -28 48 -41 64 -97 185 -127 276 -37
113 -49 180 -54 325 -5 122 -3 164 15 262 76 424 339 753 735 922 119 51 370
90 516 81 203 -13 345 -55 538 -156 211 -112 296 -138 510 -160 180 -19 351 5
551 75 95 33 241 109 254 132 4 8 13 14 18 14 18 0 142 107 189 162 67 78 110
135 110 144 0 4 9 17 19 28 41 44 142 275 165 379 47 208 35 473 -30 671 -28
86 -97 230 -150 314 l-34 52 -1623 0 -1624 0 -79 -82z m2436 -454 c112 -51
170 -138 170 -257 0 -158 -112 -274 -275 -284 -65 -4 -75 -2 -135 30 -108 57
-160 146 -160 272 0 90 73 198 160 238 92 43 147 43 240 1z"/>
<path d="M4151 3493 c130 -134 195 -215 293 -365 147 -223 246 -444 321 -713
l34 -120 0 653 1 652 -377 0 -376 0 104 -107z"/>
<path d="M4771 1203 c-92 -384 -334 -820 -621 -1116 -44 -45 -80 -83 -80 -84
0 -2 164 -3 365 -3 l365 0 0 650 c0 358 -1 650 -3 650 -2 0 -14 -44 -26 -97z"/>
<path d="M1735 1101 c-147 -39 -245 -168 -245 -325 0 -71 41 -166 96 -219 107
-104 277 -129 391 -57 105 67 154 160 155 294 1 156 -139 300 -303 311 -35 2
-77 1 -94 -4z"/>
</g>
</svg>
