<?xml version="1.0" standalone="no"?>
<!DOCTYPE svg PUBLIC "-//W3C//DTD SVG 20010904//EN"
 "http://www.w3.org/TR/2001/REC-SVG-20010904/DTD/svg10.dtd">
<svg version="1.0" xmlns="http://www.w3.org/2000/svg"
 width="480.000000pt" height="360.000000pt" viewBox="0 0 480.000000 360.000000"
 preserveAspectRatio="xMidYMid meet">
<metadata>
Created by potrace 1.16, written by Peter Selinger 2001-2019
</metadata>
<rect width="1" height="360" fill="#000000"/>
<rect x="479" width="1" height="360" fill="#000000"/>
<rect width="480" height="1" fill="#000000"/>
<rect y="359" width="480" height="1" fill="#000000"/>
<g transform="translate(0.000000,360.000000) scale(0.100000,-0.100000)"
fill="#000000" stroke="none">
<path d="M2330 1742 c-49 -24 -99 -126 -97 -197 2 -37 6 -50 17 -50 12 0 14
-12 12 -58 -3 -37 2 -74 14 -107 18 -49 18 -50 -3 -72 -12 -13 -33 -45 -48
-73 -15 -27 -49 -84 -75 -125 -58 -90 -75 -148 -65 -227 6 -48 13 -63 43 -93
69 -66 126 -109 154 -115 24 -6 28 -12 28 -40 0 -28 5 -35 31 -44 60 -21 156
-25 182 -8 25 16 43 77 23 77 -6 0 -17 4 -24 9 -11 7 -7 19 20 57 35 52 62
130 60 177 -1 15 -26 89 -56 165 -63 159 -73 192 -57 192 6 0 11 -11 11 -24 0
-26 45 -66 75 -66 24 0 72 27 79 45 10 27 7 90 -6 103 -9 9 -9 17 1 36 19 35
6 133 -20 149 -10 6 -19 18 -19 25 0 7 -12 1 -26 -15 -18 -19 -23 -34 -19 -50
5 -21 2 -23 -30 -23 -25 0 -37 5 -41 18 -3 9 -10 25 -15 34 -5 10 -6 24 -3 32
3 8 0 24 -6 37 -11 19 -8 25 24 55 41 38 44 60 17 120 -31 68 -109 92 -181 56z
m170 -406 c0 -3 -4 -8 -10 -11 -5 -3 -10 -1 -10 4 0 6 5 11 10 11 6 0 10 -2
10 -4z m6 -93 c-5 -12 -10 -13 -18 -5 -8 8 -8 15 3 28 15 18 25 4 15 -23z"/>
</g>
</svg>
