<?xml version="1.0" standalone="no"?>
<!DOCTYPE svg PUBLIC "-//W3C//DTD SVG 20010904//EN"
 "http://www.w3.org/TR/2001/REC-SVG-20010904/DTD/svg10.dtd">
<svg version="1.0" xmlns="http://www.w3.org/2000/svg"
 width="480.000000pt" height="360.000000pt" viewBox="0 0 480.000000 360.000000"
 preserveAspectRatio="xMidYMid meet">
<metadata>
Created by potrace 1.16, written by Peter Selinger 2001-2019
</metadata>
<rect width="1" height="360" fill="#000000"/>
<rect x="479" width="1" height="360" fill="#000000"/>
<rect width="480" height="1" fill="#000000"/>
<rect y="359" width="480" height="1" fill="#000000"/>
<g transform="translate(0.000000,360.000000) scale(0.100000,-0.100000)"
fill="#000000" stroke="none">
<path d="M0 1800 l0 -1800 925 0 925 0 0 1134 c0 1073 1 1134 18 1138 24 7
365 -13 375 -21 4 -4 -16 -14 -45 -22 -71 -19 -148 -90 -148 -138 0 -53 72
-101 190 -126 50 -11 56 -18 75 -96 21 -86 41 -112 84 -112 43 0 56 15 80 99
12 40 27 76 34 82 6 5 46 17 87 26 123 27 184 78 161 134 -20 48 -98 112 -153
126 -29 7 -37 24 -15 31 23 7 328 24 342 18 13 -4 15 -157 15 -1139 l0 -1134
238 0 238 0 13 47 c8 27 25 75 38 107 14 33 27 69 29 80 11 55 26 159 34 231
11 103 23 149 72 265 22 52 47 113 55 135 8 22 18 42 22 45 5 3 63 65 130 139
66 73 149 158 183 188 154 136 405 401 465 490 90 132 146 283 160 430 l6 62
-34 5 c-19 3 -48 7 -66 8 l-31 3 33 55 c117 192 125 207 125 246 0 33 11 87
31 163 2 9 -5 17 -16 19 -11 2 -23 7 -27 11 -11 10 18 425 29 428 6 2 18 10
29 17 18 13 17 15 -1 57 -11 24 -34 62 -51 85 -45 58 -48 77 -28 144 20 68 38
80 119 80 54 0 55 0 55 30 l0 30 -925 0 -925 0 0 -605 0 -605 -27 -11 c-37
-14 -323 -22 -323 -9 0 5 -7 7 -16 3 -14 -5 -15 -1 -10 25 3 18 9 45 12 61 7
41 -14 50 -28 11 l-11 -32 -18 54 c-27 77 -24 123 10 193 16 33 50 105 76 159
25 54 74 140 109 190 88 127 121 193 107 220 -5 12 -13 40 -16 64 -6 35 -11
43 -33 48 -53 11 -110 35 -126 53 -15 17 -16 28 -7 96 6 42 11 78 11 81 0 2
-20 4 -45 4 l-45 0 0 -41 c0 -53 -20 -119 -35 -119 -7 0 -33 9 -58 20 l-46 20
-56 -21 c-43 -16 -64 -19 -93 -12 -41 10 -49 27 -51 106 l-1 47 -45 0 -45 0 7
-57 c4 -32 8 -78 8 -103 l0 -45 -58 -14 c-49 -11 -58 -17 -63 -40 -3 -14 -12
-41 -21 -59 -16 -31 -16 -37 2 -89 11 -31 39 -88 63 -127 60 -97 108 -193 147
-297 19 -49 42 -100 51 -114 14 -22 16 -43 11 -140 -8 -170 6 -159 -208 -151
-98 3 -190 11 -204 16 l-25 10 0 605 0 605 -925 0 -925 0 0 -1800z"/>
<path d="M4761 1130 c-18 -35 -57 -96 -85 -135 -29 -38 -81 -111 -115 -161
-34 -50 -78 -108 -97 -130 -20 -21 -45 -52 -57 -69 -20 -30 -37 -50 -128 -156
-26 -30 -64 -77 -85 -105 -110 -143 -159 -204 -166 -204 -4 0 -8 -5 -8 -11 0
-6 -34 -44 -76 -85 l-77 -74 285 0 285 0 11 38 c16 53 25 112 18 112 -3 0 -13
-15 -23 -32 -12 -24 -18 -29 -21 -16 -2 9 6 35 17 57 26 49 28 69 6 51 -14
-11 -14 -10 -5 16 57 152 252 554 324 667 l37 57 -3 122 -3 122 -34 -64z"/>
<path d="M4773 81 c-31 -65 -36 -81 -27 -81 14 0 56 86 52 107 -2 14 -9 7 -25
-26z"/>
<path d="M4780 20 c0 -11 5 -20 10 -20 6 0 10 9 10 20 0 11 -4 20 -10 20 -5 0
-10 -9 -10 -20z"/>
<path d="M3703 3 c9 -2 23 -2 30 0 6 3 -1 5 -18 5 -16 0 -22 -2 -12 -5z"/>
</g>
</svg>
