<?xml version="1.0" standalone="no"?>
<!DOCTYPE svg PUBLIC "-//W3C//DTD SVG 20010904//EN"
 "http://www.w3.org/TR/2001/REC-SVG-20010904/DTD/svg10.dtd">
<svg version="1.0" xmlns="http://www.w3.org/2000/svg"
 width="480.000000pt" height="360.000000pt" viewBox="0 0 480.000000 360.000000"
 preserveAspectRatio="xMidYMid meet">
<metadata>
Created by potrace 1.16, written by Peter Selinger 2001-2019
</metadata>
<rect width="1" height="360" fill="#000000"/>
<rect x="479" width="1" height="360" fill="#000000"/>
<rect width="480" height="1" fill="#000000"/>
<rect y="359" width="480" height="1" fill="#000000"/>
<g transform="translate(0.000000,360.000000) scale(0.100000,-0.100000)"
fill="#000000" stroke="none">
<path d="M0 2624 l0 -975 42 6 c599 80 944 159 1303 297 136 52 455 205 587
281 98 57 128 67 194 67 51 0 55 -2 114 -60 33 -33 104 -95 158 -138 203 -165
416 -366 535 -506 83 -97 229 -220 314 -263 138 -72 225 -84 511 -72 97 4 101
7 107 59 4 34 59 123 166 266 118 158 200 217 394 284 127 43 175 66 175 81 0
5 -17 17 -37 26 -21 8 -72 35 -114 59 -42 24 -79 44 -82 44 -3 0 -8 -13 -12
-29 -3 -16 -14 -31 -24 -34 -13 -3 -22 -22 -32 -66 -15 -71 -29 -79 -30 -18
-1 60 -15 135 -22 117 -3 -8 -13 -47 -22 -85 -26 -114 -35 -112 -35 10 0 108
-6 155 -19 155 -3 0 -21 -27 -40 -60 -19 -33 -36 -58 -39 -55 -3 2 1 26 9 52
15 55 16 146 0 185 -9 25 -12 26 -40 15 -29 -11 -33 -9 -70 27 -33 32 -44 37
-66 32 -25 -6 -27 -5 -23 18 4 21 -7 36 -27 36 -2 0 -1 -48 2 -107 5 -98 2
-120 -26 -233 -17 -69 -31 -142 -31 -164 0 -61 -89 -184 -123 -170 -9 3 -17
-3 -20 -18 -5 -18 -9 -20 -19 -10 -18 18 -28 15 -28 -10 0 -19 -2 -20 -10 -8
-9 13 -11 13 -19 1 -6 -10 -11 4 -16 45 -4 32 -10 70 -15 84 -8 25 -8 25 -10
-5 -1 -16 -5 -39 -9 -49 -6 -17 -9 -15 -20 12 -8 18 -17 32 -22 32 -5 0 -9 15
-9 34 0 36 -18 98 -31 106 -13 9 -39 145 -39 203 l0 52 -20 -25 c-26 -33 -25
-21 5 125 14 66 25 122 25 126 0 3 -39 -2 -87 -12 -103 -21 -113 -22 -113 -10
0 5 22 42 49 83 48 72 104 122 186 167 30 16 47 36 63 71 12 26 49 78 82 114
33 37 60 73 60 81 0 7 -18 24 -40 36 -49 28 -56 50 -41 132 10 54 9 72 -8 138
-22 87 -19 143 12 204 46 93 135 174 191 176 17 0 40 4 51 9 11 5 -825 9
-1912 9 l-1933 1 0 -976z"/>
<path d="M3913 3589 c9 -6 30 -33 46 -60 l28 -50 63 60 63 61 -109 0 c-79 -1
-104 -3 -91 -11z"/>
<path d="M1964 2019 c-113 -77 -110 -73 -85 -100 22 -24 27 -54 12 -78 -7 -11
4 -26 40 -59 27 -24 49 -50 49 -58 0 -8 16 -57 36 -109 l37 -95 -38 -168 c-38
-168 -59 -267 -95 -442 -11 -52 -27 -117 -35 -144 -8 -27 -15 -62 -15 -77 0
-22 -6 -29 -30 -34 -16 -4 -38 -18 -48 -32 l-18 -25 -16 23 c-8 13 -30 85 -47
159 -18 74 -64 261 -102 415 -47 188 -69 293 -66 320 2 22 20 85 39 140 34 93
50 117 97 145 14 8 14 11 1 19 -10 7 -30 2 -70 -19 -117 -61 -303 -132 -446
-169 -39 -10 -42 -14 -48 -53 -7 -40 -5 -44 32 -75 28 -23 43 -46 52 -80 7
-26 16 -52 20 -58 4 -5 17 -38 30 -73 19 -53 21 -69 12 -100 -6 -20 -18 -68
-26 -107 -8 -38 -45 -203 -81 -365 -37 -162 -70 -311 -74 -331 -10 -49 -18
-59 -46 -59 -12 0 -25 -7 -29 -15 -8 -21 -23 -19 -36 5 -6 12 -54 193 -105
403 -52 210 -102 409 -110 441 l-16 59 42 121 c34 100 48 127 79 156 37 34 38
36 24 68 -8 17 -16 32 -18 32 -1 0 -130 -25 -286 -55 -156 -30 -285 -55 -287
-55 -2 0 -1 -9 2 -20 4 -11 1 -37 -6 -57 -12 -38 -8 -44 38 -72 7 -3 35 -62
63 -130 l50 -123 -26 -111 c-15 -62 -35 -148 -45 -192 -17 -73 -49 -214 -99
-445 -10 -47 -21 -92 -24 -100 -3 -8 -10 -34 -16 -57 -9 -36 -15 -43 -35 -43
-13 0 -27 -5 -30 -10 -21 -35 -43 19 -106 265 -28 110 -53 202 -55 204 -2 2
-4 -131 -4 -297 l0 -302 1741 0 1741 0 -5 23 c-25 97 -167 751 -167 764 0 40
74 209 106 243 29 30 32 40 26 65 -7 25 -17 33 -62 48 -68 22 -209 49 -220 42
-9 -5 -1 -39 20 -90 70 -167 71 -116 -5 -445 -7 -30 -27 -116 -45 -190 -17
-74 -39 -170 -49 -212 -19 -83 -33 -108 -62 -108 -10 0 -29 -16 -43 -37 l-25
-36 -15 34 c-8 19 -43 156 -76 304 -34 149 -75 327 -91 396 -16 70 -29 134
-29 144 0 9 19 65 41 123 33 85 49 114 79 139 29 25 36 38 33 57 -3 13 -1 32
5 42 8 14 -5 36 -66 116 -72 94 -188 215 -197 206 -3 -2 9 -40 26 -84 31 -81
38 -145 21 -192 -5 -15 -15 -54 -22 -87 -7 -33 -21 -96 -31 -140 -10 -44 -38
-174 -64 -290 -45 -207 -62 -252 -86 -228 -9 9 -16 4 -28 -19 -20 -39 -36 -45
-50 -20 -11 21 -189 772 -198 838 -8 61 58 246 104 287 23 21 33 39 33 60 0
17 6 38 14 46 13 14 4 25 -81 96 -53 44 -116 103 -140 132 -25 29 -53 53 -62
53 -10 0 -57 -27 -107 -61z"/>
<path d="M18 1453 c-14 -4 -18 -15 -18 -59 0 -30 3 -54 8 -54 4 1 20 11 35 24
23 19 26 26 19 47 -5 13 -7 30 -5 37 5 12 -7 14 -39 5z"/>
<path d="M3743 1073 c-40 -2 -73 -7 -73 -11 0 -5 16 -23 35 -42 19 -19 35 -41
35 -51 0 -9 10 -38 22 -65 37 -84 48 -142 37 -188 -5 -23 -47 -192 -93 -376
l-84 -335 50 -3 c28 -2 52 -1 55 1 2 3 13 45 23 93 10 49 30 116 43 150 26 65
34 106 73 349 13 88 35 206 48 262 13 57 21 105 18 108 -3 3 -13 5 -23 5 -10
0 -29 15 -43 32 -22 29 -23 34 -11 49 22 23 19 29 -12 27 -16 -1 -61 -4 -100
-5z"/>
</g>
</svg>
