<?xml version="1.0" standalone="no"?>
<!DOCTYPE svg PUBLIC "-//W3C//DTD SVG 20010904//EN"
 "http://www.w3.org/TR/2001/REC-SVG-20010904/DTD/svg10.dtd">
<svg version="1.0" xmlns="http://www.w3.org/2000/svg"
 width="480.000000pt" height="360.000000pt" viewBox="0 0 480.000000 360.000000"
 preserveAspectRatio="xMidYMid meet">
<metadata>
Created by potrace 1.16, written by Peter Selinger 2001-2019
</metadata>
<rect width="1" height="360" fill="#000000"/>
<rect x="479" width="1" height="360" fill="#000000"/>
<rect width="480" height="1" fill="#000000"/>
<rect y="359" width="480" height="1" fill="#000000"/>
<g transform="translate(0.000000,360.000000) scale(0.100000,-0.100000)"
fill="#000000" stroke="none">
<path d="M2910 3591 c0 -27 46 -153 71 -193 l28 -47 -42 -11 c-226 -58 -415
-188 -536 -366 -60 -88 -75 -121 -101 -225 -20 -82 -58 -167 -84 -188 -9 -8
-16 -18 -16 -23 0 -12 49 18 68 41 10 13 11 8 6 -33 -5 -33 -3 -47 4 -42 7 4
9 -21 6 -76 -4 -77 -3 -81 10 -53 l14 29 13 -57 c15 -71 35 -89 26 -26 -4 29
-3 37 3 24 5 -11 9 -30 9 -42 1 -13 6 -23 11 -23 6 0 10 -7 10 -15 0 -18 20
-20 20 -2 1 6 8 -1 16 -17 12 -21 18 -25 24 -15 7 10 11 7 20 -12 6 -13 23
-33 37 -43 l26 -19 -6 24 c-17 63 -16 69 5 19 l23 -55 5 35 c4 27 7 31 13 17
19 -47 -1 -107 -55 -163 -38 -40 -32 -60 26 -95 35 -22 45 -34 54 -72 11 -41
16 -46 54 -59 39 -12 43 -16 40 -42 -2 -21 5 -38 26 -60 50 -54 62 -82 62
-141 0 -31 -5 -65 -11 -77 -13 -23 -11 -26 22 -31 26 -4 31 -20 16 -51 -6 -12
-5 -21 1 -25 5 -3 13 -26 16 -51 4 -25 14 -89 23 -143 16 -92 16 -100 -1 -154
-14 -45 -33 -72 -84 -125 -36 -38 -71 -68 -78 -68 -7 0 -16 17 -20 38 -8 48
-46 107 -100 155 -24 21 -59 67 -79 102 -19 35 -47 78 -61 94 -24 28 -25 34
-13 68 26 81 -10 286 -64 357 -42 54 -85 69 -196 67 -53 -1 -106 -4 -118 -7
-19 -5 -23 0 -30 37 -5 23 -13 44 -20 46 -17 6 -24 -28 -14 -65 11 -37 15 -34
-80 -68 -104 -37 -175 -93 -193 -153 -40 -136 -40 -146 -6 -286 27 -112 37
-137 72 -183 76 -99 111 -128 181 -151 l65 -22 -48 -102 c-65 -134 -88 -235
-100 -437 -6 -91 -17 -190 -24 -220 -8 -30 -17 -67 -20 -82 l-6 -28 404 0 404
0 12 35 c15 45 30 45 30 0 l0 -35 60 0 60 0 0 53 c0 58 14 50 25 -15 l7 -38
739 0 c727 0 739 0 739 20 0 15 15 23 73 41 109 32 196 89 137 89 -29 0 -25
11 20 55 22 21 40 43 40 47 0 5 -30 5 -67 2 -59 -6 -83 -16 -188 -76 -67 -37
-128 -68 -136 -68 -17 0 -34 55 -48 150 -11 68 -30 141 -42 156 -5 6 -7 18 -4
26 5 12 -44 225 -62 268 -3 8 -7 28 -9 44 -3 17 -11 40 -20 53 -8 13 -12 28
-9 33 3 5 -1 24 -8 42 -8 18 -14 48 -15 65 -1 29 2 32 18 23 10 -5 21 -22 25
-37 l7 -28 10 25 c7 20 11 22 18 10 5 -8 10 -23 10 -32 0 -9 16 -37 35 -62 19
-25 45 -67 59 -93 l25 -48 1 46 c0 25 -7 108 -16 183 -8 75 -14 142 -11 149 2
6 18 -16 35 -50 17 -34 37 -65 43 -68 8 -5 8 -2 1 11 -27 53 -64 255 -69 374
-3 89 -1 121 6 110 6 -8 11 -24 11 -36 0 -40 70 -227 121 -323 53 -100 98
-168 84 -126 -21 63 -65 249 -70 300 l-6 60 30 -53 c38 -67 142 -224 146 -220
2 2 -5 46 -16 98 -19 100 -32 268 -49 660 -19 455 -78 759 -203 1061 -24 57
-51 135 -61 173 -43 176 -167 339 -294 387 -48 18 -71 20 -143 16 l-86 -5 -57
74 -57 74 -305 0 c-172 0 -304 -4 -304 -9z m210 -2082 c0 -3 -7 -12 -15 -19
-13 -11 -15 -7 -15 26 1 36 2 38 15 20 8 -11 15 -23 15 -27z"/>
</g>
</svg>
