<?xml version="1.0" standalone="no"?>
<!DOCTYPE svg PUBLIC "-//W3C//DTD SVG 20010904//EN"
 "http://www.w3.org/TR/2001/REC-SVG-20010904/DTD/svg10.dtd">
<svg version="1.0" xmlns="http://www.w3.org/2000/svg"
 width="480.000000pt" height="360.000000pt" viewBox="0 0 480.000000 360.000000"
 preserveAspectRatio="xMidYMid meet">
<metadata>
Created by potrace 1.16, written by Peter Selinger 2001-2019
</metadata>
<rect width="1" height="360" fill="#000000"/>
<rect x="479" width="1" height="360" fill="#000000"/>
<rect width="480" height="1" fill="#000000"/>
<rect y="359" width="480" height="1" fill="#000000"/>
<g transform="translate(0.000000,360.000000) scale(0.100000,-0.100000)"
fill="#000000" stroke="none">
<path d="M0 1800 l0 -1800 291 0 291 0 22 27 c11 15 59 73 105 128 132 159
133 161 120 227 -9 47 -9 60 6 87 12 24 15 46 10 80 -5 39 -3 50 14 65 12 11
21 27 21 38 0 10 9 27 20 38 15 15 20 33 20 79 0 76 6 91 39 91 37 0 45 8 80
77 25 51 31 75 31 127 0 62 1 66 37 95 l38 31 -31 0 c-17 0 -53 12 -80 26 -27
15 -69 37 -94 50 l-45 23 -35 -26 c-19 -14 -54 -44 -77 -67 -38 -36 -43 -38
-43 -18 0 12 13 36 29 54 68 79 165 332 221 578 41 180 46 223 26 239 -14 11
-19 10 -34 -10 l-19 -23 -49 29 c-75 43 -193 129 -193 140 -1 6 15 22 34 38
30 24 33 30 25 53 -14 35 -12 78 2 92 16 16 57 15 88 -3 23 -13 30 -11 90 22
36 20 66 36 67 37 1 1 -5 23 -14 50 -14 43 -15 61 -4 133 51 358 236 560 536
587 136 13 125 7 200 114 71 100 163 212 175 212 13 0 80 -108 136 -222 l59
-118 50 -16 c96 -31 169 -77 251 -160 105 -103 168 -224 192 -367 15 -86 15
-98 -1 -162 -17 -68 -17 -69 6 -119 13 -28 47 -77 76 -108 l53 -58 -31 -39
c-18 -22 -42 -43 -54 -47 -12 -4 -25 -11 -28 -16 -6 -10 68 -312 125 -503 54
-186 83 -264 110 -304 13 -20 28 -49 32 -65 6 -25 -1 -21 -60 38 l-66 66 -33
-14 c-18 -7 -53 -26 -77 -41 -61 -39 -121 -44 -171 -15 -29 16 -60 23 -112 25
-40 1 -92 6 -117 10 -25 4 -42 4 -37 0 8 -9 168 -66 249 -90 67 -19 180 -103
191 -142 9 -30 11 -31 86 -38 42 -4 108 -9 147 -10 62 -2 148 -17 264 -44 248
-60 539 -231 736 -433 156 -161 238 -274 316 -440 l42 -88 273 0 273 0 0 1800
0 1800 -2400 0 -2400 0 0 -1800z m4334 877 c6 -9 7 -19 3 -23 -9 -9 -37 15
-37 33 0 18 20 12 34 -10z m-1094 -372 c0 -37 -10 -92 -27 -155 -5 -21 -8 -17
-15 25 -4 28 -11 78 -14 112 l-7 62 32 -2 c29 -2 31 -4 31 -42z m-2782 -1497
c3 -22 -1 -28 -15 -28 -30 0 -57 25 -50 44 5 12 16 16 34 14 22 -2 29 -9 31
-30z m4012 -198 c0 -5 -2 -10 -4 -10 -3 0 -8 5 -11 10 -3 6 -1 10 4 10 6 0 11
-4 11 -10z"/>
</g>
</svg>
