<?xml version="1.0" standalone="no"?>
<!DOCTYPE svg PUBLIC "-//W3C//DTD SVG 20010904//EN"
 "http://www.w3.org/TR/2001/REC-SVG-20010904/DTD/svg10.dtd">
<svg version="1.0" xmlns="http://www.w3.org/2000/svg"
 width="480.000000pt" height="360.000000pt" viewBox="0 0 480.000000 360.000000"
 preserveAspectRatio="xMidYMid meet">
<metadata>
Created by potrace 1.16, written by Peter Selinger 2001-2019
</metadata>
<rect width="1" height="360" fill="#000000"/>
<rect x="479" width="1" height="360" fill="#000000"/>
<rect width="480" height="1" fill="#000000"/>
<rect y="359" width="480" height="1" fill="#000000"/>
<g transform="translate(0.000000,360.000000) scale(0.100000,-0.100000)"
fill="#000000" stroke="none">
<path d="M0 2780 l0 -820 53 0 c70 0 825 54 1201 85 571 49 1213 119 1230 136
5 4 13 33 17 63 4 29 10 63 13 74 5 16 1 21 -21 27 -15 3 -56 18 -91 31 -43
18 -86 26 -141 29 -59 2 -93 9 -140 30 -54 25 -65 26 -86 15 -20 -11 -38 -11
-97 -1 -138 23 -164 21 -208 -16 -45 -39 -53 -40 -72 -10 -40 62 -9 178 70
270 64 74 67 83 30 91 -31 6 -31 6 -25 60 14 133 144 281 459 522 98 75 196
157 219 182 l41 47 -276 3 c-152 1 -399 1 -550 0 l-274 -3 34 -110 c18 -60 33
-125 34 -144 0 -18 -18 -74 -40 -123 -22 -49 -45 -112 -51 -141 -13 -59 -6
-183 13 -242 18 -54 74 -109 130 -124 61 -17 60 -41 -1 -41 -89 1 -196 70
-245 159 -61 113 -81 242 -56 368 17 85 8 127 -55 273 l-53 125 -531 3 -531 2
0 -820z"/>
<path d="M3001 3578 c6 -13 31 -48 54 -79 96 -123 139 -221 103 -234 -7 -2
-29 -6 -48 -8 l-35 -3 4 -226 c3 -226 3 -226 -21 -249 -12 -13 -33 -36 -45
-52 -12 -17 -32 -35 -45 -41 -41 -20 -60 -77 -62 -184 0 -53 3 -114 7 -134 8
-36 7 -38 -18 -38 -17 0 -25 -5 -25 -18 0 -25 -19 -42 -47 -42 -21 0 -51 -35
-39 -47 15 -15 393 61 961 192 643 148 721 167 988 246 l67 20 0 459 0 460
-905 0 -906 0 12 -22z"/>
<path d="M4694 1393 c-184 -215 -571 -597 -673 -666 -39 -26 -166 -73 -366
-137 -99 -31 -212 -71 -250 -88 -39 -17 -90 -37 -115 -46 -59 -19 -216 -56
-241 -56 -11 0 -105 -20 -208 -45 -103 -25 -255 -57 -337 -71 -139 -24 -156
-25 -259 -14 -60 7 -133 18 -161 26 -40 10 -72 11 -136 4 -274 -32 -557 7
-989 134 -298 88 -375 119 -718 290 -124 61 -229 113 -233 114 -4 2 -8 -186
-8 -417 l0 -421 2400 0 2400 0 0 755 c0 415 -1 755 -3 755 -1 0 -48 -53 -103
-117z"/>
</g>
</svg>
