<?xml version="1.0" standalone="no"?>
<!DOCTYPE svg PUBLIC "-//W3C//DTD SVG 20010904//EN"
 "http://www.w3.org/TR/2001/REC-SVG-20010904/DTD/svg10.dtd">
<svg version="1.0" xmlns="http://www.w3.org/2000/svg"
 width="480.000000pt" height="360.000000pt" viewBox="0 0 480.000000 360.000000"
 preserveAspectRatio="xMidYMid meet">
<metadata>
Created by potrace 1.16, written by Peter Selinger 2001-2019
</metadata>
<rect width="1" height="360" fill="#000000"/>
<rect x="479" width="1" height="360" fill="#000000"/>
<rect width="480" height="1" fill="#000000"/>
<rect y="359" width="480" height="1" fill="#000000"/>
<g transform="translate(0.000000,360.000000) scale(0.100000,-0.100000)"
fill="#000000" stroke="none">
<path d="M3855 3551 c-60 -47 -61 -48 -165 -59 -210 -21 -420 -122 -571 -273
-83 -82 -150 -209 -157 -296 -7 -79 -42 -120 -161 -191 -76 -44 -106 -56 -155
-61 -88 -10 -102 -21 -116 -87 -15 -70 -9 -88 28 -81 26 5 31 1 56 -42 38 -65
56 -74 127 -66 33 4 62 11 65 16 12 20 23 6 34 -45 11 -56 60 -127 60 -89 0
12 5 8 15 -12 16 -31 95 -83 95 -62 0 8 4 7 12 -1 24 -24 29 -11 8 23 -26 42
-23 43 16 10 16 -14 34 -25 40 -25 21 0 35 -27 28 -54 -3 -14 -21 -41 -40 -60
-19 -19 -34 -39 -34 -45 0 -7 20 -20 45 -31 32 -14 46 -26 51 -46 4 -14 33
-58 65 -96 33 -39 59 -76 60 -82 1 -6 2 -18 3 -26 2 -8 3 -24 4 -34 2 -18 3
-18 20 -3 27 25 89 12 96 -19 9 -36 22 -29 42 21 9 25 20 45 25 45 5 0 15 -21
22 -47 15 -51 20 -49 48 21 21 52 34 55 49 11 15 -45 4 -94 -27 -118 -18 -15
-23 -26 -19 -46 5 -23 -2 -32 -83 -90 -49 -35 -98 -76 -109 -91 -18 -24 -32
-29 -104 -39 -46 -7 -92 -18 -104 -26 -11 -7 -31 -15 -44 -17 -46 -6 -49 -34
-14 -139 8 -22 -43 -39 -117 -39 l-58 0 9 -29 c4 -15 13 -38 19 -49 10 -19 4
-26 -66 -73 -43 -28 -102 -72 -131 -96 -29 -25 -54 -44 -56 -42 -2 2 -47 63
-101 134 -160 212 -364 464 -390 481 -34 22 -212 72 -303 85 -95 14 -266 14
-482 2 -91 -6 -166 -11 -167 -12 -2 0 -3 -12 -3 -26 0 -44 39 -130 78 -170 75
-79 106 -132 107 -183 l0 -46 64 -11 c56 -9 67 -14 81 -40 16 -29 19 -30 86
-29 60 0 207 24 248 40 20 8 118 -144 299 -461 160 -281 225 -360 343 -420 48
-25 62 -27 125 -23 61 5 86 13 181 62 61 31 112 55 114 54 1 -2 -4 -66 -12
-143 -7 -77 -13 -146 -14 -152 0 -10 92 -13 429 -13 l429 0 6 31 c3 17 6 45 6
61 0 64 52 271 102 406 l19 52 112 0 c238 -1 340 -36 466 -162 72 -72 188
-212 266 -323 l40 -57 3 292 c1 161 1 295 -1 296 -2 2 -17 7 -35 10 -25 5 -36
1 -56 -19 l-26 -26 -57 53 -56 52 18 66 c23 86 55 142 82 146 33 5 42 22 54
105 12 78 16 86 36 66 7 -7 19 -9 27 -6 14 6 16 50 16 379 l0 373 -36 53 c-40
59 -74 79 -105 59 -17 -11 -24 -7 -54 28 -41 48 -44 64 -10 57 23 -4 23 -3
-11 33 -19 21 -33 39 -31 41 7 7 109 -25 144 -46 l37 -22 23 29 c43 53 29 88
-56 135 -34 18 -142 175 -161 233 -10 31 -8 42 23 112 50 110 67 176 67 255 0
43 4 68 11 68 6 0 9 7 6 14 -4 10 2 18 16 22 26 8 97 76 97 93 0 6 9 11 20 11
18 0 20 7 20 64 0 60 -1 64 -27 73 -70 25 -102 33 -134 33 -19 0 -40 5 -46 11
-5 5 -30 12 -54 14 -53 6 -101 24 -93 36 3 5 9 7 14 4 10 -6 70 15 70 25 0 5
21 12 46 16 26 4 56 16 67 27 13 13 22 16 26 8 5 -7 18 -3 41 14 28 21 34 32
35 65 1 30 -2 40 -14 40 -13 1 -12 4 4 16 16 12 17 16 6 23 -11 7 -11 9 0 13
12 4 12 7 0 21 -7 10 -21 17 -30 17 -14 1 -14 2 2 11 20 12 23 29 3 29 -7 0
-19 7 -26 15 -9 10 -9 15 -1 15 6 0 11 9 11 20 0 20 -7 20 -392 20 l-393 -1
-60 -48z m697 -1690 c31 -7 64 -11 74 -9 15 3 17 -6 15 -70 -3 -78 -2 -77 -81
-347 -69 -237 -104 -312 -170 -360 -28 -21 -57 -50 -66 -66 -8 -16 -17 -29
-21 -29 -4 0 -42 15 -86 32 -77 32 -78 33 -74 63 10 60 -14 186 -58 309 -24
68 -51 138 -59 154 -19 36 -20 60 -5 99 l11 28 24 -30 c20 -25 24 -27 24 -11
0 17 5 15 35 -14 33 -32 35 -33 35 -11 l0 22 29 -20 28 -21 -3 75 c-3 77 4 90
29 54 8 -11 33 -34 55 -50 39 -28 41 -29 47 -10 3 11 1 46 -4 78 -6 31 -11 60
-11 63 0 10 81 -4 107 -18 30 -17 35 -15 23 8 -9 17 -8 20 10 20 13 0 19 4 14
11 -5 9 1 10 20 5 l28 -7 -29 38 c-17 22 -22 35 -13 31 9 -3 41 -11 72 -17z"/>
</g>
</svg>
