<?xml version="1.0" standalone="no"?>
<!DOCTYPE svg PUBLIC "-//W3C//DTD SVG 20010904//EN"
 "http://www.w3.org/TR/2001/REC-SVG-20010904/DTD/svg10.dtd">
<svg version="1.0" xmlns="http://www.w3.org/2000/svg"
 width="480.000000pt" height="360.000000pt" viewBox="0 0 480.000000 360.000000"
 preserveAspectRatio="xMidYMid meet">
<metadata>
Created by potrace 1.16, written by Peter Selinger 2001-2019
</metadata>
<rect width="1" height="360" fill="#000000"/>
<rect x="479" width="1" height="360" fill="#000000"/>
<rect width="480" height="1" fill="#000000"/>
<rect y="359" width="480" height="1" fill="#000000"/>
<g transform="translate(0.000000,360.000000) scale(0.100000,-0.100000)"
fill="#000000" stroke="none">
<path d="M0 1800 l0 -1800 877 0 876 0 62 42 c34 23 66 52 71 63 103 212 338
615 427 730 141 185 413 331 652 351 95 8 223 -9 325 -43 286 -97 490 -383
516 -723 7 -88 -6 -214 -30 -311 -7 -30 -16 -66 -20 -82 l-6 -27 525 0 525 0
0 1800 0 1800 -2400 0 -2400 0 0 -1800z"/>
</g>
</svg>
