<?xml version="1.0" standalone="no"?>
<!DOCTYPE svg PUBLIC "-//W3C//DTD SVG 20010904//EN"
 "http://www.w3.org/TR/2001/REC-SVG-20010904/DTD/svg10.dtd">
<svg version="1.0" xmlns="http://www.w3.org/2000/svg"
 width="480.000000pt" height="360.000000pt" viewBox="0 0 480.000000 360.000000"
 preserveAspectRatio="xMidYMid meet">
<metadata>
Created by potrace 1.16, written by Peter Selinger 2001-2019
</metadata>
<rect width="1" height="360" fill="#000000"/>
<rect x="479" width="1" height="360" fill="#000000"/>
<rect width="480" height="1" fill="#000000"/>
<rect y="359" width="480" height="1" fill="#000000"/>
<g transform="translate(0.000000,360.000000) scale(0.100000,-0.100000)"
fill="#000000" stroke="none">
<path d="M2040 3523 c0 -43 -4 -73 -8 -66 -9 14 -80 42 -136 53 -89 18 -243
-24 -318 -87 -141 -117 -268 -389 -268 -572 0 -200 116 -371 252 -371 25 0 38
-31 39 -97 0 -64 12 -150 22 -159 12 -12 64 18 107 61 l43 44 36 -25 c20 -13
43 -24 51 -24 9 0 21 -5 28 -12 8 -8 12 -8 12 -1 0 6 -7 16 -15 23 -26 22 -16
28 28 18 29 -7 58 -6 95 2 45 10 62 21 109 71 61 64 69 64 100 6 l15 -29 32
31 c17 17 35 31 39 31 4 0 7 -77 7 -170 l0 -171 -30 -42 c-17 -23 -72 -104
-123 -179 -51 -75 -121 -174 -156 -220 -78 -101 -95 -136 -75 -155 12 -12 2
-26 -60 -91 -123 -128 -227 -276 -260 -370 -38 -106 16 -256 55 -154 l10 26
14 -27 c8 -15 17 -32 20 -37 11 -18 32 7 39 45 8 42 12 43 38 10 32 -41 40
-31 33 38 -6 54 -4 69 15 105 12 23 43 59 68 80 72 59 99 89 128 142 35 65 86
105 113 90 35 -18 48 -11 74 38 58 110 216 348 320 480 53 67 77 133 97 264 5
35 16 104 24 155 9 51 20 154 26 230 9 129 21 239 36 341 7 42 7 43 38 35 17
-4 74 -8 126 -8 93 1 133 8 422 76 172 41 269 109 373 264 35 52 69 92 89 102
82 42 175 122 176 152 0 16 101 10 200 -12 63 -15 282 -22 548 -18 l112 1 0
80 0 80 -1380 0 -1380 0 0 -77z m110 -1073 c0 -5 -5 -10 -11 -10 -5 0 -7 5 -4
10 3 6 8 10 11 10 2 0 4 -4 4 -10z"/>
</g>
</svg>
