<?xml version="1.0" standalone="no"?>
<!DOCTYPE svg PUBLIC "-//W3C//DTD SVG 20010904//EN"
 "http://www.w3.org/TR/2001/REC-SVG-20010904/DTD/svg10.dtd">
<svg version="1.0" xmlns="http://www.w3.org/2000/svg"
 width="480.000000pt" height="360.000000pt" viewBox="0 0 480.000000 360.000000"
 preserveAspectRatio="xMidYMid meet">
<metadata>
Created by potrace 1.16, written by Peter Selinger 2001-2019
</metadata>
<rect width="1" height="360" fill="#000000"/>
<rect x="479" width="1" height="360" fill="#000000"/>
<rect width="480" height="1" fill="#000000"/>
<rect y="359" width="480" height="1" fill="#000000"/>
<g transform="translate(0.000000,360.000000) scale(0.100000,-0.100000)"
fill="#000000" stroke="none">
<path d="M2154 3180 c-185 -39 -306 -226 -291 -453 l5 -78 -45 -34 c-31 -24
-57 -35 -79 -35 -28 0 -35 -5 -40 -25 -3 -14 -17 -34 -30 -44 -13 -10 -24 -23
-24 -28 0 -13 135 -143 148 -143 6 0 14 5 17 10 3 6 10 10 14 10 10 0 71 -97
71 -113 0 -17 -37 -77 -68 -109 l-26 -28 27 0 c36 0 41 -16 23 -68 -18 -49 -8
-54 27 -12 14 17 28 30 31 30 3 0 15 -19 27 -42 16 -31 23 -38 30 -27 5 8 9
22 9 32 0 26 13 14 38 -36 12 -24 31 -52 42 -62 19 -18 20 -18 20 1 0 15 4 14
18 -8 22 -37 32 -35 32 5 0 23 3 28 9 18 5 -8 18 -16 28 -17 18 -3 53 -39 53
-55 0 -16 -47 -29 -159 -45 -189 -27 -246 -55 -294 -141 -33 -62 -87 -225 -87
-264 0 -37 -27 -39 -40 -4 l-10 26 -168 -7 c-222 -9 -262 2 -433 119 -174 119
-245 160 -329 191 -97 35 -108 44 -112 91 -5 70 -28 57 -126 -72 -134 -177
-230 -282 -352 -385 l-110 -93 0 -130 0 -131 114 -37 c62 -21 120 -35 129 -31
16 6 51 59 92 136 10 20 33 54 51 75 29 34 34 37 60 28 18 -7 43 -32 68 -70
34 -51 40 -56 47 -40 4 11 8 34 8 51 2 67 61 70 163 7 60 -37 98 -81 98 -115
0 -26 15 -22 73 16 65 43 141 76 175 76 38 0 105 -36 161 -86 27 -24 56 -44
64 -44 8 0 56 29 107 65 108 77 240 158 294 180 47 20 66 8 42 -26 -21 -31
-20 -46 5 -52 17 -5 19 -9 10 -25 -8 -16 -4 -24 24 -50 l35 -30 0 -150 c0
-142 1 -150 23 -173 13 -13 31 -28 41 -34 16 -9 16 -14 1 -80 -9 -38 -18 -77
-21 -86 -2 -9 -26 -24 -52 -34 -62 -23 -69 -31 -48 -54 22 -25 32 -87 16 -105
-9 -12 -8 -20 4 -38 21 -29 20 -54 -2 -86 -21 -30 -112 -199 -112 -207 0 -3
268 -5 596 -5 564 0 596 1 589 18 -3 9 -27 63 -52 119 l-45 101 31 62 c17 35
27 68 23 75 -4 7 -24 31 -44 54 l-38 40 0 103 c1 57 7 146 13 198 7 53 10 128
7 170 -4 41 -5 77 -3 80 11 12 21 -31 32 -132 17 -157 28 -202 57 -229 48 -45
161 -23 201 38 27 41 21 231 -13 390 -3 15 2 26 15 32 21 12 53 -10 207 -141
51 -43 96 -78 101 -78 5 0 36 19 69 42 135 94 200 91 341 -17 25 -19 50 -35
54 -35 5 0 17 17 28 39 14 26 33 45 63 58 61 29 150 47 192 39 l36 -7 0 -67 1
-67 30 35 c76 88 100 110 121 110 31 0 103 -80 163 -181 62 -103 72 -106 189
-55 46 19 101 38 124 42 l42 7 0 117 0 117 -47 33 c-27 18 -52 38 -58 44 -5 6
-37 33 -70 60 -99 81 -255 245 -340 356 -98 129 -124 158 -150 162 -17 2 -21
-3 -23 -37 -2 -22 -8 -45 -13 -52 -6 -6 -47 -24 -92 -39 -102 -34 -142 -53
-291 -142 -65 -40 -144 -81 -175 -93 -77 -30 -208 -35 -326 -12 l-89 18 -21
60 c-26 76 -109 231 -144 269 -35 39 -87 60 -206 85 -121 26 -195 49 -213 66
-17 15 -7 38 31 74 l26 23 6 -36 c9 -44 20 -46 40 -6 17 33 35 40 35 13 1 -42
17 -45 39 -9 13 20 27 34 32 31 8 -5 11 3 22 60 4 16 6 14 17 -12 15 -41 25
-42 39 -3 5 17 13 30 17 30 3 0 20 -12 37 -26 36 -30 45 -19 22 26 -22 42 -14
58 32 62 l38 3 -29 25 c-30 27 -86 116 -86 139 0 11 4 11 18 -2 25 -23 42 -21
42 4 0 17 26 72 47 98 1 2 12 -4 23 -14 18 -17 22 -17 36 -4 8 9 17 32 21 53
5 34 2 41 -34 79 -22 23 -48 55 -57 71 -18 28 -18 29 0 21 11 -4 37 -14 59
-22 22 -8 55 -21 73 -29 18 -8 36 -13 41 -10 16 10 34 124 26 172 -6 41 -5 46
10 40 9 -3 22 -3 28 1 6 4 24 8 39 10 39 4 107 35 113 51 3 8 -14 35 -38 62
-77 86 -137 226 -137 322 0 31 -3 36 -17 31 -16 -6 -128 -93 -160 -124 -65
-63 -105 -88 -112 -67 -2 7 -26 36 -53 64 -54 57 -135 99 -220 114 -76 13
-405 20 -454 10z"/>
</g>
</svg>
