<?xml version="1.0" standalone="no"?>
<!DOCTYPE svg PUBLIC "-//W3C//DTD SVG 20010904//EN"
 "http://www.w3.org/TR/2001/REC-SVG-20010904/DTD/svg10.dtd">
<svg version="1.0" xmlns="http://www.w3.org/2000/svg"
 width="480.000000pt" height="360.000000pt" viewBox="0 0 480.000000 360.000000"
 preserveAspectRatio="xMidYMid meet">
<metadata>
Created by potrace 1.16, written by Peter Selinger 2001-2019
</metadata>
<rect width="1" height="360" fill="#000000"/>
<rect x="479" width="1" height="360" fill="#000000"/>
<rect width="480" height="1" fill="#000000"/>
<rect y="359" width="480" height="1" fill="#000000"/>
<g transform="translate(0.000000,360.000000) scale(0.100000,-0.100000)"
fill="#000000" stroke="none">
<path d="M0 1800 l0 -1800 433 2 432 3 12 95 c18 139 40 426 38 490 -3 102 -4
106 -31 119 -14 6 -24 17 -22 23 3 7 -4 19 -14 28 -17 14 -16 19 28 95 54 95
63 135 71 325 6 138 4 150 -21 240 -36 124 -29 214 25 337 13 31 16 49 10 66
-11 27 -5 39 27 56 21 11 23 18 20 73 -3 60 -4 62 -49 93 -25 17 -44 36 -42
42 2 5 -10 16 -27 23 -63 26 -109 68 -116 105 -10 56 11 151 45 197 38 51 131
122 181 137 62 18 139 13 196 -13 50 -23 126 -103 158 -165 22 -42 75 -239 90
-336 8 -49 26 -137 39 -195 14 -58 33 -157 42 -220 9 -63 23 -153 30 -200 18
-108 42 -324 50 -459 3 -58 15 -173 26 -255 10 -83 19 -170 19 -193 0 -41 -2
-43 -40 -54 -22 -7 -40 -13 -40 -15 0 -16 58 -271 87 -381 l16 -63 1563 0
1564 0 0 1084 0 1084 -77 -24 c-43 -13 -135 -31 -206 -40 -243 -30 -485 9
-696 112 -152 74 -247 140 -357 249 -211 208 -304 383 -365 682 -18 89 -22
139 -21 281 l2 172 -1540 0 -1540 0 0 -1800z"/>
</g>
</svg>
