<?xml version="1.0" standalone="no"?>
<!DOCTYPE svg PUBLIC "-//W3C//DTD SVG 20010904//EN"
 "http://www.w3.org/TR/2001/REC-SVG-20010904/DTD/svg10.dtd">
<svg version="1.0" xmlns="http://www.w3.org/2000/svg"
 width="480.000000pt" height="360.000000pt" viewBox="0 0 480.000000 360.000000"
 preserveAspectRatio="xMidYMid meet">
<metadata>
Created by potrace 1.16, written by Peter Selinger 2001-2019
</metadata>
<rect width="1" height="360" fill="#000000"/>
<rect x="479" width="1" height="360" fill="#000000"/>
<rect width="480" height="1" fill="#000000"/>
<rect y="359" width="480" height="1" fill="#000000"/>
<g transform="translate(0.000000,360.000000) scale(0.100000,-0.100000)"
fill="#000000" stroke="none">
<path d="M1419 2957 c-58 -20 -69 -21 -87 -9 -27 18 -55 8 -72 -23 -11 -20
-11 -27 0 -40 10 -12 9 -22 -6 -52 -28 -57 -24 -128 10 -181 23 -37 31 -43 52
-38 30 8 32 -13 4 -39 l-21 -19 26 -23 c14 -13 25 -27 25 -31 0 -4 16 -24 36
-46 36 -40 39 -66 6 -66 -10 0 -28 -11 -40 -23 l-22 -24 20 -25 c22 -29 18
-54 -10 -63 -25 -8 -89 -96 -129 -177 -27 -53 -32 -74 -27 -102 7 -35 46 -76
72 -76 21 0 27 -37 19 -119 -7 -74 -31 -135 -73 -184 -12 -14 -14 -22 -5 -35
8 -13 4 -37 -19 -101 -21 -61 -26 -86 -18 -91 9 -6 9 -17 0 -46 -43 -143 -57
-223 -94 -521 -39 -314 -52 -455 -62 -660 l-7 -143 497 0 c316 0 496 4 496 10
0 5 -15 103 -34 218 -19 115 -42 273 -51 353 -29 266 -103 565 -190 772 -6 13
-2 17 16 17 22 0 21 2 -12 36 -29 31 -32 37 -19 47 9 7 26 39 38 72 13 33 43
92 68 131 27 44 44 83 44 102 0 17 -20 71 -46 119 -33 64 -44 95 -40 116 4 20
1 27 -9 27 -21 0 -35 41 -35 97 0 42 -17 109 -55 216 -12 34 -5 54 9 25 5 -10
7 -10 12 -1 3 7 12 9 21 6 9 -4 21 1 29 12 12 16 14 17 20 2 11 -31 24 -17 24
26 1 49 20 83 38 65 8 -8 14 -4 23 18 6 16 12 39 12 51 2 17 6 21 20 17 25 -8
18 15 -34 120 -21 43 -39 89 -39 102 0 33 -131 168 -182 189 -54 21 -121 18
-199 -8z"/>
<path d="M4758 434 c-19 -10 -31 -28 -39 -57 -7 -23 -17 -60 -24 -82 -7 -22
-20 -71 -30 -109 -13 -49 -24 -71 -39 -77 -12 -5 -74 -15 -139 -23 -66 -8
-123 -18 -127 -22 -5 -5 -12 -21 -15 -36 l-7 -28 231 0 231 0 0 225 c0 124 -3
225 -7 225 -5 -1 -20 -7 -35 -16z"/>
</g>
</svg>
