<?xml version="1.0" standalone="no"?>
<!DOCTYPE svg PUBLIC "-//W3C//DTD SVG 20010904//EN"
 "http://www.w3.org/TR/2001/REC-SVG-20010904/DTD/svg10.dtd">
<svg version="1.0" xmlns="http://www.w3.org/2000/svg"
 width="480.000000pt" height="360.000000pt" viewBox="0 0 480.000000 360.000000"
 preserveAspectRatio="xMidYMid meet">
<metadata>
Created by potrace 1.16, written by Peter Selinger 2001-2019
</metadata>
<rect width="1" height="360" fill="#000000"/>
<rect x="479" width="1" height="360" fill="#000000"/>
<rect width="480" height="1" fill="#000000"/>
<rect y="359" width="480" height="1" fill="#000000"/>
<g transform="translate(0.000000,360.000000) scale(0.100000,-0.100000)"
fill="#000000" stroke="none">
<path d="M3338 3570 c-20 -17 -39 -38 -42 -48 -5 -15 -18 -17 -99 -14 -76 3
-103 0 -152 -18 -89 -32 -116 -36 -127 -16 -13 24 -73 51 -155 71 -114 28
-333 17 -484 -23 -137 -36 -161 -46 -179 -75 -23 -38 -30 -85 -13 -99 13 -10
13 -13 -1 -24 -14 -10 -14 -13 4 -29 15 -14 17 -21 8 -32 -12 -14 1 -49 31
-85 7 -10 15 -32 16 -49 2 -20 16 -44 39 -68 41 -42 42 -40 -11 -148 -39 -79
-54 -180 -35 -243 22 -73 92 -254 111 -285 26 -45 12 -120 -23 -129 -16 -4
-25 -15 -29 -33 -28 -157 -64 -312 -77 -335 -14 -25 -13 -27 15 -38 24 -9 25
-13 25 -98 0 -140 11 -241 25 -236 8 3 15 -10 20 -38 7 -40 10 -33 31 96 33
204 42 236 65 236 15 0 19 7 19 33 0 47 74 320 88 325 7 2 21 -17 32 -43 l20
-47 -21 -61 c-13 -38 -23 -98 -26 -155 -5 -87 -7 -94 -32 -110 -46 -29 -66
-78 -70 -172 -2 -46 -8 -71 -24 -92 -21 -29 -22 -36 -18 -268 3 -230 2 -238
-17 -252 -27 -19 -72 -97 -72 -125 0 -13 16 -41 36 -63 l36 -40 2 -204 2 -203
-69 -74 c-82 -88 -217 -246 -217 -254 0 -3 356 -5 790 -5 435 0 790 1 790 3 0
1 -9 45 -20 97 -22 105 -26 253 -10 346 16 90 72 284 82 284 5 0 16 -17 25
-37 11 -28 12 -41 4 -53 -28 -38 -51 -92 -51 -116 0 -16 11 -37 30 -54 35 -32
59 -122 39 -146 -6 -7 -8 -17 -6 -21 3 -5 8 -60 11 -123 4 -63 9 -130 12 -147
l6 -33 132 0 131 0 3 41 c1 23 -3 47 -9 55 -9 11 -9 14 0 14 8 0 10 8 5 22
-11 35 -12 148 -2 154 6 4 30 -13 55 -37 l45 -44 -6 -60 c-3 -33 -9 -79 -12
-102 l-7 -43 362 0 c261 0 361 3 361 11 0 22 -56 136 -147 302 -134 242 -155
273 -250 363 l-85 81 -7 93 c-6 89 -8 94 -40 120 -38 32 -82 43 -139 34 -37
-6 -40 -4 -49 22 l-10 29 -6 -28 c-4 -15 -11 -27 -16 -27 -11 0 -97 132 -161
250 -29 52 -69 117 -89 145 -43 59 -61 92 -61 113 0 8 -7 24 -17 34 -13 15
-14 23 -5 44 7 13 12 39 12 57 0 18 22 112 49 209 51 183 75 292 86 390 7 64
11 66 90 58 115 -12 185 21 185 87 0 45 -44 130 -133 255 -90 128 -107 154
-107 168 0 6 9 4 23 -4 12 -9 52 -24 89 -36 51 -15 72 -18 93 -10 14 5 24 14
20 19 -3 5 -1 12 5 16 13 8 13 45 0 45 -18 0 -10 18 11 23 17 5 19 9 11 23 -7
13 -6 27 4 47 8 15 12 37 9 48 -6 19 -15 151 -16 229 0 42 -18 120 -32 138 -6
8 -6 16 1 25 7 8 6 24 -5 52 -8 22 -17 54 -20 70 -3 17 -11 37 -18 45 -7 8
-16 25 -19 38 l-7 22 -302 0 -302 0 -37 -30z m-1048 -1131 c0 -11 -4 -17 -10
-14 -5 3 -10 13 -10 21 0 8 5 14 10 14 6 0 10 -9 10 -21z"/>
</g>
</svg>
