<?xml version="1.0" standalone="no"?>
<!DOCTYPE svg PUBLIC "-//W3C//DTD SVG 20010904//EN"
 "http://www.w3.org/TR/2001/REC-SVG-20010904/DTD/svg10.dtd">
<svg version="1.0" xmlns="http://www.w3.org/2000/svg"
 width="480.000000pt" height="360.000000pt" viewBox="0 0 480.000000 360.000000"
 preserveAspectRatio="xMidYMid meet">
<metadata>
Created by potrace 1.16, written by Peter Selinger 2001-2019
</metadata>
<rect width="1" height="360" fill="#000000"/>
<rect x="479" width="1" height="360" fill="#000000"/>
<rect width="480" height="1" fill="#000000"/>
<rect y="359" width="480" height="1" fill="#000000"/>
<g transform="translate(0.000000,360.000000) scale(0.100000,-0.100000)"
fill="#000000" stroke="none">
<path d="M2177 3403 c-2 -4 -10 -24 -16 -45 -10 -30 -18 -38 -47 -45 l-36 -8
23 -29 22 -28 -22 -62 c-24 -66 -85 -132 -187 -201 -28 -18 -56 -41 -63 -49
-15 -18 -69 -21 -119 -7 -31 9 -34 8 -52 -22 -27 -44 -25 -69 10 -102 29 -27
60 -84 75 -133 4 -12 -3 -64 -15 -114 -12 -51 -19 -104 -16 -118 2 -14 34 -56
70 -95 52 -55 69 -82 82 -125 25 -89 36 -114 56 -132 25 -22 38 -23 38 -3 0 8
5 15 10 15 6 0 10 -4 10 -9 0 -4 19 -21 42 -36 39 -26 41 -28 22 -41 -10 -8
-32 -27 -49 -43 -41 -39 -61 -47 -126 -55 -43 -6 -62 -13 -80 -34 -35 -40 -38
-53 -18 -92 25 -47 24 -55 -14 -109 -74 -102 -116 -194 -127 -277 -9 -68 -25
-119 -59 -184 -18 -34 -299 -200 -339 -200 -6 0 -30 -18 -53 -40 -24 -22 -48
-40 -55 -40 -6 0 -18 -9 -25 -21 -13 -19 -24 -21 -129 -21 -63 -1 -138 0 -166
2 -35 2 -62 -4 -92 -19 -48 -25 -83 -25 -212 -3 -80 14 -95 20 -98 37 -6 38
-24 74 -40 81 -27 11 -224 17 -306 9 l-76 -7 2 -286 3 -286 185 -59 c102 -32
235 -74 295 -93 151 -49 315 -101 405 -128 41 -13 161 -51 265 -85 l190 -61
1045 0 c1033 0 1046 0 1083 20 82 44 132 107 156 195 12 46 14 87 12 236 -1
106 -1 107 -28 117 -39 16 -172 32 -256 32 -71 0 -188 -16 -437 -60 l-125 -22
-155 26 c-85 14 -156 30 -158 36 -7 20 -120 157 -143 174 -25 17 -35 11 148
88 110 45 133 90 133 256 0 57 -7 149 -16 204 -14 87 -14 102 -1 116 18 22 37
78 37 112 0 15 -8 45 -17 66 -18 42 -26 216 -11 246 4 9 5 30 2 47 -6 30 -8
31 -65 31 -67 0 -72 8 -32 51 30 32 53 38 53 14 0 -40 32 3 99 133 50 96 30
282 -49 450 l-30 65 22 44 c12 24 37 62 56 84 24 28 29 39 18 39 -9 0 -16 6
-16 14 0 10 -14 16 -42 18 -42 3 -43 4 -43 41 0 38 -8 48 -19 22 -10 -27 -53
-18 -75 18 -11 17 -68 79 -126 136 -59 58 -105 111 -105 122 0 28 15 23 45
-13 45 -56 78 -88 91 -88 15 0 32 51 41 121 l5 46 -95 47 c-89 44 -96 50 -104
84 -7 30 -14 38 -35 40 -14 2 -28 0 -31 -5z m273 -1444 l-9 -34 20 24 c25 30
37 20 15 -14 -26 -40 -76 -31 -75 14 0 23 1 24 8 6 7 -18 10 -17 25 13 21 42
29 37 16 -9z m-758 -1079 c-1 -40 -5 -76 -8 -79 -3 -3 -65 -7 -137 -9 l-132
-3 30 26 c56 47 223 145 240 141 6 -2 9 -34 7 -76z"/>
<path d="M4313 2980 c-99 -49 -162 -142 -164 -238 -2 -81 48 -155 120 -177 29
-9 105 11 153 42 20 12 44 20 53 17 18 -7 20 -21 3 -26 -9 -3 -14 -34 -16 -91
-3 -66 -7 -87 -18 -87 -9 0 -14 -12 -14 -36 0 -30 -4 -37 -29 -45 -28 -10 -61
-59 -61 -91 0 -8 -34 -83 -75 -167 -41 -84 -75 -165 -75 -179 0 -73 80 -131
181 -132 30 0 75 -6 100 -14 24 -8 61 -17 82 -21 21 -3 41 -13 44 -21 3 -8 -4
-37 -16 -64 -14 -33 -25 -89 -32 -163 -6 -61 -14 -146 -18 -187 l-8 -75 43
-40 c38 -35 41 -42 29 -58 -7 -10 -11 -27 -8 -38 3 -12 -8 -39 -30 -72 -20
-28 -65 -126 -100 -217 -76 -194 -94 -234 -237 -525 -60 -121 -111 -232 -115
-247 l-5 -28 350 0 350 0 0 1415 c0 855 -4 1415 -9 1415 -5 0 -34 -27 -64 -61
l-54 -61 -44 22 c-66 34 -68 36 -58 78 5 25 3 53 -7 88 -32 112 -129 145 -251
84z m359 -703 l37 -32 -10 -60 c-6 -33 -12 -74 -15 -91 -3 -21 -13 -35 -30
-42 -25 -12 -144 -17 -144 -7 0 11 33 69 68 122 28 43 33 59 28 84 -6 29 6 59
23 59 3 0 23 -15 43 -33z"/>
</g>
</svg>
