<?xml version="1.0" standalone="no"?>
<!DOCTYPE svg PUBLIC "-//W3C//DTD SVG 20010904//EN"
 "http://www.w3.org/TR/2001/REC-SVG-20010904/DTD/svg10.dtd">
<svg version="1.0" xmlns="http://www.w3.org/2000/svg"
 width="480.000000pt" height="360.000000pt" viewBox="0 0 480.000000 360.000000"
 preserveAspectRatio="xMidYMid meet">
<metadata>
Created by potrace 1.16, written by Peter Selinger 2001-2019
</metadata>
<rect width="1" height="360" fill="#000000"/>
<rect x="479" width="1" height="360" fill="#000000"/>
<rect width="480" height="1" fill="#000000"/>
<rect y="359" width="480" height="1" fill="#000000"/>
<g transform="translate(0.000000,360.000000) scale(0.100000,-0.100000)"
fill="#000000" stroke="none">
<path d="M2833 3326 c-73 -25 -98 -46 -114 -94 -15 -44 -5 -131 21 -190 11
-24 20 -46 20 -47 0 -2 -33 -23 -73 -48 -205 -128 -326 -315 -327 -503 0 -23
-11 -62 -25 -89 -28 -56 -27 -66 5 -33 l23 23 -6 -23 c-4 -18 -2 -22 9 -18 10
4 14 -3 14 -23 0 -15 3 -50 7 -77 6 -40 8 -45 13 -24 7 24 7 24 23 -12 18 -43
27 -49 21 -15 -3 17 -1 15 8 -6 9 -19 18 -27 30 -24 11 3 35 -10 62 -34 53
-47 62 -49 41 -9 -19 37 -19 51 1 25 8 -11 20 -20 27 -20 7 0 13 -17 15 -40 2
-31 -4 -50 -23 -79 -31 -46 -27 -62 20 -82 22 -9 40 -25 46 -42 6 -15 32 -48
60 -74 53 -52 55 -59 40 -165 -6 -41 -4 -53 7 -58 11 -4 13 -16 9 -50 -6 -39
-4 -45 12 -45 20 0 31 -49 31 -135 0 -38 -40 -158 -60 -179 -5 -5 -26 -2 -50
8 -44 17 -83 13 -112 -12 -14 -12 -18 -32 -18 -96 l-1 -81 -73 -79 -73 -80
-37 18 c-80 38 -435 146 -480 146 -14 0 -26 4 -26 9 0 5 -11 22 -24 38 -19 23
-24 43 -28 116 -8 118 -40 186 -103 217 -41 20 -50 21 -121 10 -41 -6 -78 -9
-81 -7 -3 3 -5 22 -6 41 -1 51 -22 38 -22 -14 l0 -42 -61 -22 c-86 -32 -131
-62 -138 -94 -4 -15 -14 -50 -22 -79 -15 -47 -15 -55 1 -102 9 -28 14 -55 11
-60 -13 -20 36 -118 87 -174 59 -65 112 -89 242 -109 86 -13 84 -8 55 -118
-11 -41 -24 -122 -31 -180 -6 -64 -23 -146 -44 -210 -18 -58 -37 -122 -40
-142 l-7 -38 551 0 551 0 5 23 c3 12 12 54 20 92 l14 70 -6 -93 -6 -92 647 0
c510 0 646 3 646 13 0 6 -26 62 -57 122 -55 107 -57 112 -57 195 l-1 84 70 17
c39 9 82 22 98 29 28 14 36 30 15 30 -7 0 2 12 20 26 17 14 32 30 32 35 0 20
-101 8 -175 -21 -42 -16 -80 -30 -84 -30 -5 0 -12 15 -16 32 -19 101 -58 289
-85 407 -12 51 -19 95 -17 97 2 2 12 -5 22 -16 10 -11 24 -20 31 -20 26 0 25
22 -5 68 -65 102 -80 186 -49 287 l21 70 24 -65 c14 -36 27 -67 30 -70 2 -3 1
24 -2 60 -6 59 -6 63 8 45 8 -11 29 -56 47 -100 43 -106 53 -115 45 -40 l-6
60 30 -47 c16 -25 34 -48 38 -51 5 -3 7 94 5 215 -4 179 -2 219 8 213 10 -6
12 -3 6 11 -4 10 -11 118 -16 239 -11 251 -21 345 -56 500 -31 139 -58 223
-100 306 -18 37 -38 94 -43 126 -12 79 -29 116 -84 189 -107 142 -239 197
-355 149 -34 -15 -41 -15 -103 5 -43 14 -85 37 -120 67 -51 43 -182 114 -204
112 -5 -1 -38 -11 -72 -23z m217 -1676 c13 -27 22 -51 19 -53 -2 -1 -24 -17
-48 -36 l-43 -34 7 89 c4 49 10 93 12 97 8 14 28 -10 53 -63z m677 -592 c-3
-7 -5 -2 -5 12 0 14 2 19 5 13 2 -7 2 -19 0 -25z"/>
</g>
</svg>
