<?xml version="1.0" standalone="no"?>
<!DOCTYPE svg PUBLIC "-//W3C//DTD SVG 20010904//EN"
 "http://www.w3.org/TR/2001/REC-SVG-20010904/DTD/svg10.dtd">
<svg version="1.0" xmlns="http://www.w3.org/2000/svg"
 width="480.000000pt" height="360.000000pt" viewBox="0 0 480.000000 360.000000"
 preserveAspectRatio="xMidYMid meet">
<metadata>
Created by potrace 1.16, written by Peter Selinger 2001-2019
</metadata>
<rect width="1" height="360" fill="#000000"/>
<rect x="479" width="1" height="360" fill="#000000"/>
<rect width="480" height="1" fill="#000000"/>
<rect y="359" width="480" height="1" fill="#000000"/>
<g transform="translate(0.000000,360.000000) scale(0.100000,-0.100000)"
fill="#000000" stroke="none">
<path d="M0 2643 l0 -958 107 -38 c180 -66 384 -167 335 -167 -5 0 -14 -12
-21 -26 -10 -23 -9 -31 14 -63 13 -20 29 -57 33 -81 5 -25 21 -64 35 -87 18
-28 27 -56 27 -83 0 -55 -20 -130 -34 -130 -17 0 -34 -77 -29 -126 3 -24 0
-44 -6 -48 -6 -4 -11 -25 -11 -48 l0 -40 66 7 c51 5 69 4 75 -7 12 -19 11 -73
-2 -102 -15 -32 -6 -64 31 -111 34 -43 38 -80 14 -127 -20 -39 -12 -87 21
-127 27 -31 31 -51 14 -68 -7 -7 -5 -34 6 -92 10 -45 15 -91 12 -102 -5 -19 7
-19 704 -19 l709 0 139 76 c111 60 147 86 175 121 232 298 568 505 920 568
111 20 262 16 354 -9 170 -46 331 -199 432 -411 36 -75 69 -217 70 -292 l0
-53 305 0 305 0 0 1800 0 1800 -2400 0 -2400 0 0 -957z"/>
</g>
</svg>
