<?xml version="1.0" standalone="no"?>
<!DOCTYPE svg PUBLIC "-//W3C//DTD SVG 20010904//EN"
 "http://www.w3.org/TR/2001/REC-SVG-20010904/DTD/svg10.dtd">
<svg version="1.0" xmlns="http://www.w3.org/2000/svg"
 width="480.000000pt" height="360.000000pt" viewBox="0 0 480.000000 360.000000"
 preserveAspectRatio="xMidYMid meet">
<metadata>
Created by potrace 1.16, written by Peter Selinger 2001-2019
</metadata>
<rect width="1" height="360" fill="#000000"/>
<rect x="479" width="1" height="360" fill="#000000"/>
<rect width="480" height="1" fill="#000000"/>
<rect y="359" width="480" height="1" fill="#000000"/>
<g transform="translate(0.000000,360.000000) scale(0.100000,-0.100000)"
fill="#000000" stroke="none">
<path d="M0 1800 l0 -1800 341 0 340 0 31 68 c122 267 199 411 266 494 l70 87
-14 98 c-7 54 -14 148 -14 209 0 93 -4 122 -26 185 -24 70 -25 82 -20 214 5
138 19 224 90 545 23 107 39 207 66 421 23 188 65 283 173 394 40 41 84 88 99
104 51 55 109 74 224 75 97 1 104 2 114 24 18 40 11 77 -22 122 -18 24 -37 49
-43 56 -7 10 -5 19 6 30 15 14 20 14 60 -6 24 -13 57 -32 73 -43 24 -17 33
-18 60 -9 17 6 49 9 71 6 35 -5 41 -3 50 18 6 12 26 34 47 47 25 16 41 37 53
70 31 81 84 159 153 221 37 33 69 55 71 49 2 -6 -9 -23 -23 -38 -31 -32 -34
-46 -6 -31 32 17 24 1 -33 -59 -53 -58 -131 -188 -106 -178 45 18 122 38 137
35 12 -3 4 -11 -28 -28 l-45 -24 35 -7 c32 -6 33 -7 12 -14 -66 -22 -106 -51
-114 -82 -5 -18 -17 -38 -29 -46 -20 -14 -20 -15 6 -62 14 -26 25 -56 25 -65
0 -9 28 -36 65 -61 36 -24 65 -46 65 -50 0 -3 -6 -13 -13 -23 -12 -17 -16 -17
-71 -1 -66 19 -102 11 -136 -32 l-20 -25 41 -47 c84 -94 115 -194 105 -330 -4
-53 -11 -90 -20 -96 -7 -5 -15 -17 -19 -25 -4 -12 -6 -11 -6 3 -1 17 -21 25
-21 8 0 -17 -52 -72 -64 -68 -6 2 -22 -4 -35 -14 -13 -11 -31 -19 -39 -19 -12
0 -12 4 4 21 19 21 19 21 -9 8 -23 -11 -30 -10 -37 1 -5 7 -15 10 -25 6 -17
-6 -18 -36 -4 -96 3 -11 -6 -16 -33 -18 -25 -2 -42 -10 -48 -22 -6 -11 -26
-22 -45 -26 -39 -7 -48 -16 -62 -60 -9 -26 -8 -35 12 -60 28 -35 126 -199 143
-237 6 -15 12 -41 12 -56 0 -16 9 -49 21 -75 11 -26 18 -52 16 -59 -3 -7 -10
2 -17 18 l-12 30 -9 -24 c-12 -31 9 -104 28 -97 11 5 12 -2 7 -30 l-7 -36 159
81 c88 44 167 83 177 85 15 5 17 17 16 93 -1 97 22 169 64 198 28 20 106 19
136 -1 40 -28 61 -95 61 -195 0 -77 3 -90 18 -95 9 -2 88 -41 176 -85 l158
-81 -4 36 c-3 25 -1 32 7 26 16 -14 40 83 26 107 -9 16 -11 15 -21 -11 -20
-54 -23 -17 -3 41 11 32 25 79 31 104 11 43 95 194 149 265 12 17 23 38 23 46
0 28 -39 66 -75 72 -19 4 -39 15 -45 26 -6 12 -23 20 -48 22 -31 2 -36 6 -34
23 2 11 6 34 9 50 3 22 -1 38 -16 55 -14 16 -21 20 -20 10 4 -43 0 -50 -27
-40 -14 6 -30 8 -35 5 -5 -3 -18 -1 -29 5 -15 8 -20 8 -20 -2 0 -17 -68 51
-76 76 -6 18 -7 18 -19 -5 -13 -23 -14 -23 -22 -4 -4 11 -8 81 -8 155 0 124 2
139 26 191 15 31 56 87 93 126 36 39 66 76 66 82 0 10 -43 93 -57 111 -2 2 -8
-2 -13 -10 -8 -12 -21 -3 -64 45 -30 33 -55 67 -56 76 0 9 9 28 20 42 l20 25
-46 97 c-25 53 -43 99 -41 102 3 2 24 -21 48 -51 24 -30 45 -54 47 -52 2 2
-15 40 -37 85 -23 45 -38 81 -33 81 23 0 280 -321 348 -436 11 -18 13 -18 75
4 88 31 143 36 228 23 55 -9 85 -20 117 -43 24 -17 44 -35 44 -38 0 -4 36 -44
81 -89 62 -64 88 -99 115 -159 44 -97 48 -114 79 -368 14 -115 32 -243 41
-284 55 -267 74 -416 74 -570 -1 -115 -4 -161 -15 -180 -10 -18 -13 -44 -9
-90 5 -56 -4 -205 -22 -375 l-6 -50 84 -24 c45 -13 130 -36 188 -51 165 -42
233 -82 359 -210 94 -95 113 -121 164 -219 31 -61 57 -118 57 -126 0 -12 18
-15 100 -15 l100 0 0 1800 0 1800 -2400 0 -2400 0 0 -1800z"/>
<path d="M2800 2166 c0 -2 7 -7 16 -10 8 -3 12 -2 9 4 -6 10 -25 14 -25 6z"/>
<path d="M2390 1635 c0 -14 5 -25 10 -25 6 0 10 11 10 25 0 14 -4 25 -10 25
-5 0 -10 -11 -10 -25z"/>
<path d="M2392 1375 c0 -16 2 -22 5 -12 2 9 2 23 0 30 -3 6 -5 -1 -5 -18z"/>
<path d="M2562 1195 l3 -67 70 -28 c39 -15 124 -53 189 -83 66 -31 123 -54
128 -51 12 8 10 40 -4 52 -7 5 -24 13 -38 17 -14 4 -76 42 -138 84 -62 42
-135 91 -163 109 l-50 33 3 -66z"/>
<path d="M2139 1194 c-197 -135 -225 -154 -239 -154 -28 0 -60 -30 -60 -56 0
-13 2 -24 4 -24 5 0 130 57 249 114 51 24 104 46 120 50 25 6 27 10 27 54 0
79 -7 80 -101 16z"/>
<path d="M2372 1064 c-12 -38 -22 -74 -22 -80 0 -28 -50 -68 -168 -132 -70
-39 -179 -100 -241 -136 -124 -71 -168 -81 -216 -50 l-25 16 0 -93 c0 -105 15
-211 62 -436 l31 -153 647 0 647 0 6 202 c4 112 7 265 7 341 l0 138 -30 -16
c-51 -27 -88 -19 -195 41 -55 31 -154 86 -220 122 -197 107 -191 102 -215 179
-11 38 -26 81 -33 97 l-12 29 -23 -69z"/>
</g>
</svg>
