<?xml version="1.0" standalone="no"?>
<!DOCTYPE svg PUBLIC "-//W3C//DTD SVG 20010904//EN"
 "http://www.w3.org/TR/2001/REC-SVG-20010904/DTD/svg10.dtd">
<svg version="1.0" xmlns="http://www.w3.org/2000/svg"
 width="480.000000pt" height="360.000000pt" viewBox="0 0 480.000000 360.000000"
 preserveAspectRatio="xMidYMid meet">
<metadata>
Created by potrace 1.16, written by Peter Selinger 2001-2019
</metadata>
<rect width="1" height="360" fill="#000000"/>
<rect x="479" width="1" height="360" fill="#000000"/>
<rect width="480" height="1" fill="#000000"/>
<rect y="359" width="480" height="1" fill="#000000"/>
<g transform="translate(0.000000,360.000000) scale(0.100000,-0.100000)"
fill="#000000" stroke="none">
<path d="M0 1800 l0 -1800 1004 0 1005 0 5 53 c3 28 8 84 11 122 3 39 15 126
27 194 17 106 19 134 9 192 -14 85 -14 163 0 212 8 29 7 50 -4 90 -11 38 -15
106 -15 253 0 178 -2 205 -18 233 -10 17 -21 31 -24 30 -3 0 -27 -29 -55 -65
-99 -129 -136 -142 -281 -103 -113 30 -200 45 -317 54 -69 6 -79 9 -89 30 -6
13 -24 28 -39 34 -22 8 -29 16 -29 37 0 26 -1 26 -42 20 -61 -10 -417 42 -444
65 -23 19 -16 29 23 29 35 0 36 0 18 20 -10 11 -15 26 -11 35 5 15 9 14 33 -3
16 -11 39 -23 51 -27 22 -6 23 -5 17 17 -4 12 -8 27 -9 32 -1 11 73 19 194 20
84 1 101 -2 150 -26 l55 -27 21 26 c18 23 23 24 43 13 19 -10 28 -9 47 0 20
11 36 8 126 -27 90 -36 286 -90 293 -81 1 2 33 61 70 133 56 105 68 137 66
170 -2 45 16 69 119 158 54 47 55 48 53 99 -2 51 -1 53 55 108 31 31 67 62 80
70 14 10 25 29 29 53 l6 37 -36 -15 c-20 -8 -44 -15 -54 -15 -18 0 -104 91
-116 123 -3 9 -13 17 -20 17 -8 0 -20 7 -27 15 -10 13 -10 19 4 33 9 10 16 26
16 35 0 22 -41 48 -80 51 -34 2 -90 55 -90 84 0 9 -4 24 -10 32 -8 12 -10 12
-16 -3 -3 -9 -10 -17 -14 -17 -11 0 46 180 80 257 26 57 63 95 128 132 11 6
11 19 3 66 -7 40 -8 62 -1 70 13 15 110 17 127 3 22 -18 40 -1 52 49 16 62 57
153 70 153 5 0 16 -9 24 -21 14 -20 16 -19 52 25 21 25 42 46 47 46 26 0 133
-145 180 -246 24 -51 29 -75 26 -107 -5 -39 -2 -44 32 -72 60 -48 119 -164
159 -309 23 -84 43 -206 70 -426 11 -86 28 -177 39 -205 88 -223 155 -458 178
-619 6 -46 6 -48 -15 -41 -18 5 -21 2 -21 -22 0 -15 -5 -44 -10 -63 -8 -25 -7
-53 1 -95 11 -58 10 -63 -31 -180 -51 -145 -85 -276 -94 -368 -6 -53 -13 -73
-31 -90 -22 -20 -25 -34 -34 -167 -6 -80 -11 -200 -11 -267 l0 -123 995 0 995
0 0 1800 0 1800 -2400 0 -2400 0 0 -1800z"/>
<path d="M925 1500 c3 -5 10 -10 16 -10 5 0 9 5 9 10 0 6 -7 10 -16 10 -8 0
-12 -4 -9 -10z"/>
<path d="M2082 1150 c0 -19 2 -27 5 -17 2 9 2 25 0 35 -3 9 -5 1 -5 -18z"/>
</g>
</svg>
