<?xml version="1.0" standalone="no"?>
<!DOCTYPE svg PUBLIC "-//W3C//DTD SVG 20010904//EN"
 "http://www.w3.org/TR/2001/REC-SVG-20010904/DTD/svg10.dtd">
<svg version="1.0" xmlns="http://www.w3.org/2000/svg"
 width="480.000000pt" height="360.000000pt" viewBox="0 0 480.000000 360.000000"
 preserveAspectRatio="xMidYMid meet">
<metadata>
Created by potrace 1.16, written by Peter Selinger 2001-2019
</metadata>
<rect width="1" height="360" fill="#000000"/>
<rect x="479" width="1" height="360" fill="#000000"/>
<rect width="480" height="1" fill="#000000"/>
<rect y="359" width="480" height="1" fill="#000000"/>
<g transform="translate(0.000000,360.000000) scale(0.100000,-0.100000)"
fill="#000000" stroke="none">
<path d="M3083 3452 c-12 -9 -31 -37 -42 -62 -26 -57 -29 -211 -6 -267 8 -19
15 -37 15 -38 0 -2 -24 -8 -52 -15 -29 -6 -100 -35 -158 -63 -90 -44 -117 -63
-187 -134 -89 -89 -122 -144 -148 -243 -19 -73 -38 -115 -68 -147 -24 -27 -16
-30 18 -7 l24 16 -9 -32 c-8 -28 -7 -30 7 -18 14 12 15 6 9 -55 -7 -59 -6 -66
8 -61 12 5 16 0 16 -17 0 -13 5 -31 10 -39 8 -12 10 -12 10 5 1 14 5 11 15
-13 8 -18 19 -31 25 -27 5 3 10 2 10 -4 0 -6 7 -8 15 -5 9 4 15 0 15 -8 0 -17
41 -58 57 -58 7 0 13 10 16 23 3 19 4 20 11 4 14 -31 -4 -87 -39 -123 -39 -39
-37 -55 10 -83 23 -13 35 -29 40 -53 4 -18 22 -51 40 -73 18 -22 42 -59 54
-83 12 -24 33 -47 46 -52 28 -10 31 -33 15 -89 -8 -29 -7 -36 9 -47 15 -11 20
-33 26 -134 l7 -120 -41 -76 c-23 -41 -41 -83 -41 -93 0 -9 -7 -26 -15 -38
-13 -19 -22 -21 -63 -16 -38 4 -52 1 -74 -17 -27 -21 -28 -22 -22 -108 l6 -87
-69 -87 c-44 -56 -73 -86 -83 -83 -8 2 -46 13 -85 25 -88 26 -465 101 -475 95
-4 -2 -21 13 -39 35 -27 34 -31 46 -31 102 0 119 -39 211 -103 244 -24 13 -46
15 -96 10 -127 -13 -116 -15 -119 27 -3 34 -21 54 -23 25 0 -7 -1 -29 -2 -48
-2 -33 -5 -36 -67 -58 -104 -37 -124 -58 -145 -147 -15 -63 -16 -85 -7 -123 6
-26 13 -67 17 -92 11 -86 104 -197 191 -229 46 -18 202 -51 236 -51 6 0 8 -10
4 -22 -17 -62 -57 -254 -72 -343 -9 -55 -25 -117 -35 -138 l-19 -37 1245 0
c685 0 1245 3 1245 8 0 4 -23 47 -50 97 -90 162 -100 187 -103 261 l-2 68 60
17 c65 17 120 42 130 59 3 5 1 10 -6 10 -7 0 2 15 20 34 l33 34 -48 4 c-38 3
-63 -4 -130 -34 -46 -21 -87 -38 -92 -38 -8 0 -30 98 -31 140 0 14 -5 52 -10
85 -31 184 -38 265 -32 375 l6 115 19 -62 c28 -91 40 -80 33 27 -6 99 6 114
19 23 8 -57 8 -57 13 -20 l6 37 31 -22 c18 -12 40 -35 50 -50 41 -60 51 -15
19 80 -26 76 -50 196 -59 297 l-6 60 52 -105 c53 -104 127 -222 150 -236 8 -5
9 -2 3 12 -4 10 -18 47 -31 81 -20 53 -21 61 -7 56 12 -5 15 -2 11 8 -15 38
-49 171 -45 175 2 3 27 -32 56 -75 50 -78 71 -102 71 -83 0 5 -11 54 -24 108
-27 110 -37 177 -66 436 -29 261 -84 503 -154 674 -14 34 -30 93 -36 130 -13
78 -51 164 -110 246 -32 45 -54 64 -105 89 -60 29 -70 31 -145 27 l-81 -5 -56
75 c-31 41 -84 105 -119 142 -34 38 -67 78 -74 89 -9 19 -20 21 -93 21 -62 0
-87 -5 -104 -18z m643 -2495 c4 -23 9 -53 10 -67 1 -14 6 -38 10 -54 5 -20 4
-27 -4 -22 -15 9 -39 95 -45 159 -4 38 -2 45 8 37 8 -6 17 -30 21 -53z"/>
</g>
</svg>
