<?xml version="1.0" standalone="no"?>
<!DOCTYPE svg PUBLIC "-//W3C//DTD SVG 20010904//EN"
 "http://www.w3.org/TR/2001/REC-SVG-20010904/DTD/svg10.dtd">
<svg version="1.0" xmlns="http://www.w3.org/2000/svg"
 width="480.000000pt" height="360.000000pt" viewBox="0 0 480.000000 360.000000"
 preserveAspectRatio="xMidYMid meet">
<metadata>
Created by potrace 1.16, written by Peter Selinger 2001-2019
</metadata>
<rect width="1" height="360" fill="#000000"/>
<rect x="479" width="1" height="360" fill="#000000"/>
<rect width="480" height="1" fill="#000000"/>
<rect y="359" width="480" height="1" fill="#000000"/>
<g transform="translate(0.000000,360.000000) scale(0.100000,-0.100000)"
fill="#000000" stroke="none">
<path d="M3903 877 c-13 -5 -23 -16 -23 -22 0 -7 -6 -18 -14 -24 -9 -7 -14
-30 -14 -56 1 -52 14 -57 66 -25 18 11 45 20 60 20 33 0 89 -33 116 -68 46
-60 121 -133 160 -156 22 -13 60 -44 83 -68 34 -35 43 -53 50 -97 l8 -55 75
-32 c41 -18 82 -38 90 -46 20 -18 63 -42 137 -77 115 -54 104 -74 101 169 l-3
212 -108 58 c-97 51 -114 56 -155 53 -48 -5 -89 14 -187 83 -122 87 -376 162
-442 131z"/>
</g>
</svg>
