<?xml version="1.0" standalone="no"?>
<!DOCTYPE svg PUBLIC "-//W3C//DTD SVG 20010904//EN"
 "http://www.w3.org/TR/2001/REC-SVG-20010904/DTD/svg10.dtd">
<svg version="1.0" xmlns="http://www.w3.org/2000/svg"
 width="480.000000pt" height="360.000000pt" viewBox="0 0 480.000000 360.000000"
 preserveAspectRatio="xMidYMid meet">
<metadata>
Created by potrace 1.16, written by Peter Selinger 2001-2019
</metadata>
<rect width="1" height="360" fill="#000000"/>
<rect x="479" width="1" height="360" fill="#000000"/>
<rect width="480" height="1" fill="#000000"/>
<rect y="359" width="480" height="1" fill="#000000"/>
<g transform="translate(0.000000,360.000000) scale(0.100000,-0.100000)"
fill="#000000" stroke="none">
<path d="M0 1800 l0 -1800 1820 0 c1583 0 1820 2 1820 15 0 7 7 18 15 22 13 8
10 14 -15 38 -17 16 -30 39 -30 53 0 13 -5 32 -10 43 -8 13 -7 31 1 59 12 40
12 42 -23 78 -45 46 -66 88 -78 154 -8 42 -7 56 6 76 15 23 20 24 82 19 92 -8
144 -20 178 -44 28 -19 191 -83 210 -83 5 1 32 20 60 43 28 23 79 64 112 91
68 54 76 70 92 191 17 130 45 202 124 314 l29 41 -47 55 c-37 43 -49 65 -56
107 -16 101 -76 304 -116 393 -20 45 -74 217 -74 235 0 27 -10 29 -52 14 -54
-19 -74 -18 -126 8 l-45 21 -74 -22 -74 -21 -36 29 -36 30 -51 -21 c-118 -48
-270 -96 -324 -103 -122 -14 -172 20 -319 216 -98 130 -95 129 -126 76 -30
-51 -90 -107 -115 -107 -15 0 -15 -2 -2 -10 8 -5 33 -10 56 -10 22 0 43 -2 46
-5 5 -5 -1 -50 -22 -170 -10 -51 -9 -68 5 -105 9 -25 18 -59 20 -77 4 -28 0
-33 -28 -42 -37 -12 -175 -12 -183 0 -3 5 2 22 11 38 17 34 20 93 6 137 -5 16
-12 68 -15 116 l-5 87 35 7 c49 9 50 20 4 44 -22 11 -50 30 -60 40 -20 20 -20
20 -19 -12 0 -18 4 -56 8 -84 13 -89 -7 -98 -67 -29 l-40 45 -11 -31 c-13 -39
-23 -32 -55 36 -30 63 -31 76 -10 138 28 82 92 138 234 205 212 101 246 100
390 -8 41 -31 103 -76 138 -99 34 -23 79 -56 98 -73 l35 -31 37 22 c20 12 76
42 124 66 65 34 87 50 90 67 2 15 21 32 58 53 40 22 57 39 63 60 28 97 69 119
247 135 179 16 164 4 156 124 -12 172 -23 214 -75 274 -53 62 -72 69 -142 51
-45 -12 -52 -12 -60 3 -9 16 -13 15 -57 -4 -34 -16 -74 -23 -147 -26 -202 -9
-220 -4 -204 51 5 18 9 33 9 35 0 2 -13 1 -30 -3 -25 -6 -30 -4 -30 13 0 13
-10 24 -29 30 -16 6 -34 19 -40 30 -25 47 121 202 279 296 68 40 90 62 90 89
0 41 24 52 57 28 l28 -21 90 30 c50 17 112 35 140 41 27 5 54 14 59 19 7 7
-679 10 -1997 10 l-2007 0 0 -1800z"/>
<path d="M2676 2149 c-8 -50 -3 -59 34 -59 42 0 59 69 21 90 -36 19 -48 12
-55 -31z"/>
<path d="M3766 104 c-9 -24 -7 -28 9 -14 17 14 20 30 6 30 -5 0 -12 -7 -15
-16z"/>
</g>
</svg>
