<?xml version="1.0" standalone="no"?>
<!DOCTYPE svg PUBLIC "-//W3C//DTD SVG 20010904//EN"
 "http://www.w3.org/TR/2001/REC-SVG-20010904/DTD/svg10.dtd">
<svg version="1.0" xmlns="http://www.w3.org/2000/svg"
 width="480.000000pt" height="360.000000pt" viewBox="0 0 480.000000 360.000000"
 preserveAspectRatio="xMidYMid meet">
<metadata>
Created by potrace 1.16, written by Peter Selinger 2001-2019
</metadata>
<rect width="1" height="360" fill="#000000"/>
<rect x="479" width="1" height="360" fill="#000000"/>
<rect width="480" height="1" fill="#000000"/>
<rect y="359" width="480" height="1" fill="#000000"/>
<g transform="translate(0.000000,360.000000) scale(0.100000,-0.100000)"
fill="#000000" stroke="none">
<path d="M0 2607 l0 -992 46 4 c25 2 51 -2 57 -8 12 -12 -19 -16 -75 -12 l-28
2 0 -134 c0 -130 1 -135 20 -130 11 3 27 2 36 -1 15 -6 14 -9 -6 -31 -13 -14
-29 -25 -37 -25 -10 0 -13 -45 -13 -226 0 -177 3 -224 13 -218 6 4 42 27 79
51 55 36 79 45 125 50 89 7 91 9 53 48 -36 37 -28 45 19 21 31 -16 73 -86 55
-93 -6 -2 -39 -24 -73 -49 -71 -53 -131 -74 -213 -74 l-58 0 0 -395 0 -395
568 0 c566 0 567 0 527 20 -22 10 -56 35 -75 55 -45 47 -82 62 -183 75 -70 8
-85 14 -101 35 -10 14 -32 33 -50 41 -72 37 -88 70 -65 131 10 27 11 27 21 8
6 -11 13 -22 15 -24 8 -10 73 64 73 83 0 59 71 117 198 163 87 32 220 101 312
162 124 83 233 201 377 411 29 42 68 91 88 110 19 19 35 41 35 50 0 9 -21 49
-46 90 -75 122 -74 102 -22 385 19 106 27 291 14 332 -5 15 -14 19 -39 16 -29
-4 -30 -3 -14 10 9 8 17 22 17 32 0 13 -3 15 -13 7 -7 -6 -27 -10 -45 -10 -31
1 -32 2 -16 20 16 17 16 18 -10 18 -18 0 -39 -13 -65 -40 -22 -23 -51 -43 -70
-46 -41 -8 -47 -20 -19 -35 39 -20 67 -50 73 -80 10 -43 0 -49 -52 -29 -51 19
-83 52 -86 88 -1 12 -6 21 -11 19 -22 -7 -35 -107 -13 -107 24 0 122 -53 105
-57 -9 -2 -39 7 -66 21 l-50 25 -44 -44 c-37 -37 -53 -45 -96 -51 -69 -9 -81
-20 -91 -82 -10 -65 -33 -90 -91 -100 -39 -7 -45 -11 -47 -34 -3 -39 -21 -68
-43 -68 -29 0 -50 -11 -50 -26 0 -23 -38 -16 -65 14 -33 35 -72 101 -90 153
-49 138 -60 387 -25 558 39 193 144 422 261 572 l29 36 -100 99 c-55 53 -98
99 -96 102 6 5 120 -72 178 -121 l48 -40 77 74 c292 278 607 405 961 386 136
-7 171 -16 215 -53 26 -22 28 -26 10 -20 -27 9 -29 -3 -7 -45 16 -32 22 -84
10 -96 -3 -4 -25 -9 -49 -12 l-42 -6 -5 -82 c-6 -96 -28 -129 -92 -140 -70
-11 -89 -67 -35 -104 61 -42 89 -74 123 -141 39 -78 42 -104 14 -159 -16 -30
-18 -44 -10 -58 13 -25 13 -78 0 -86 -5 -3 -18 11 -27 32 -10 21 -21 39 -25
41 -4 2 -4 11 -1 20 5 13 3 14 -7 5 -14 -13 -40 -113 -40 -157 0 -28 -1 -29
-15 -10 -14 18 -14 18 -15 -11 -1 -21 -10 -37 -30 -53 l-29 -23 15 37 c8 20
13 38 11 40 -2 3 -19 -10 -37 -28 -21 -21 -34 -29 -37 -21 -3 10 -10 10 -24 2
-17 -8 -18 -13 -8 -25 7 -8 19 -14 28 -13 31 3 41 -1 53 -24 7 -13 47 -54 88
-92 165 -150 170 -156 181 -199 9 -33 25 -52 81 -98 42 -35 79 -58 94 -58 14
0 42 -16 67 -38 23 -21 55 -46 70 -56 17 -10 26 -23 23 -31 -7 -19 31 -45 66
-45 50 0 85 80 58 131 -6 11 -29 31 -50 44 -62 39 -48 89 18 64 63 -24 102
-83 102 -156 0 -57 -26 -105 -72 -133 -42 -25 -69 -25 -119 1 l-40 20 -36 -31
c-19 -17 -46 -36 -59 -42 -13 -6 -24 -17 -24 -24 0 -6 -12 -17 -27 -23 -16 -7
-39 -18 -53 -26 -14 -8 -42 -15 -62 -15 -50 0 -57 -18 -47 -105 5 -38 17 -144
28 -235 11 -91 23 -203 26 -250 4 -47 18 -209 31 -360 14 -151 28 -302 30
-335 3 -33 7 -75 10 -92 l5 -33 1219 0 1220 0 0 1296 c0 1231 -1 1296 -17
1289 -36 -16 -78 -16 -98 -1 -20 14 -19 15 10 26 17 6 47 9 68 7 l37 -5 0 494
0 494 -2400 0 -2400 0 0 -993z m125 890 c-7 -28 -51 -74 -61 -64 -10 10 4 51
27 81 25 32 43 22 34 -17z m2430 -33 c14 -9 23 -20 20 -24 -6 -10 -85 21 -85
33 0 13 40 7 65 -9z m419 -179 c20 -8 36 -20 36 -25 0 -13 -17 -13 -25 0 -3 6
-14 10 -24 10 -9 0 -26 7 -37 15 -16 12 -16 14 -3 15 9 0 33 -7 53 -15z m1181
-274 c3 -16 1 -48 -6 -71 -12 -38 -14 -40 -26 -24 -16 22 -17 65 -1 99 15 33
25 32 33 -4z m-1615 -370 c0 -19 -54 -51 -86 -51 -36 0 -41 9 -24 41 8 15 22
19 60 19 28 0 50 -4 50 -9z m1855 -32 c2 -13 -2 -33 -8 -44 -10 -19 -10 -19
-18 4 -11 27 -1 73 14 68 6 -2 11 -14 12 -28z m41 -135 c9 -47 -19 -112 -40
-95 -26 22 -28 60 -6 97 27 43 37 43 46 -2z m-1238 -104 c12 0 22 -4 22 -10 0
-11 -49 -14 -74 -4 -25 9 -19 27 7 20 12 -3 32 -6 45 -6z m473 -107 c3 -40
-19 -83 -43 -83 -11 0 -10 57 2 81 13 24 40 25 41 2z m527 -8 c20 -7 14 -21
-13 -33 -33 -15 -67 -15 -100 0 -66 30 31 58 113 33z m-1628 -401 c0 -20 -22
-27 -52 -15 -30 11 -47 49 -28 61 16 10 80 -27 80 -46z m288 29 c16 -31 24
-93 12 -93 -13 0 -40 61 -40 90 0 25 16 26 28 3z m551 -72 c7 -23 10 -45 7
-48 -12 -12 -34 21 -40 61 -10 53 14 44 33 -13z m1381 -192 c0 -29 -6 -35 -26
-21 -13 8 -25 77 -16 87 12 11 42 -36 42 -66z m-3430 4 c0 -12 -33 -43 -47
-43 -17 0 -17 37 0 43 18 8 47 8 47 0z m210 -90 c0 -22 -42 -71 -69 -83 -39
-16 -45 -10 -29 24 14 33 98 82 98 59z m2515 -79 c12 -13 13 -20 5 -28 -8 -8
-15 -6 -26 8 -26 36 -10 51 21 20z m-289 -90 c32 -21 30 -34 -3 -34 -39 1
-116 37 -107 51 9 15 77 4 110 -17z m-346 -116 c39 -64 17 -81 -25 -21 -29 43
-31 53 -10 53 8 0 24 -15 35 -32z m-3176 -651 c6 -9 7 -19 3 -23 -9 -10 -48
26 -41 38 8 12 25 6 38 -15z m4424 -30 c22 -17 13 -27 -25 -27 -39 1 -73 19
-73 39 0 13 77 4 98 -12z m-1096 -134 c31 -29 35 -43 15 -43 -18 0 -57 38 -57
55 0 22 10 19 42 -12z m-778 -90 c26 -28 36 -47 36 -71 0 -44 -25 -40 -57 7
-19 29 -33 101 -19 101 3 0 21 -17 40 -37z"/>
<path d="M2236 1758 c-4 -29 -9 -68 -13 -86 l-5 -33 53 7 c60 8 69 15 69 61 0
25 -9 41 -37 68 -21 19 -43 35 -49 35 -6 0 -14 -24 -18 -52z"/>
<path d="M890 1674 c0 -8 5 -12 10 -9 6 3 10 10 10 16 0 5 -4 9 -10 9 -5 0
-10 -7 -10 -16z"/>
</g>
</svg>
