<?xml version="1.0" standalone="no"?>
<!DOCTYPE svg PUBLIC "-//W3C//DTD SVG 20010904//EN"
 "http://www.w3.org/TR/2001/REC-SVG-20010904/DTD/svg10.dtd">
<svg version="1.0" xmlns="http://www.w3.org/2000/svg"
 width="480.000000pt" height="360.000000pt" viewBox="0 0 480.000000 360.000000"
 preserveAspectRatio="xMidYMid meet">
<metadata>
Created by potrace 1.16, written by Peter Selinger 2001-2019
</metadata>
<rect width="1" height="360" fill="#000000"/>
<rect x="479" width="1" height="360" fill="#000000"/>
<rect width="480" height="1" fill="#000000"/>
<rect y="359" width="480" height="1" fill="#000000"/>
<g transform="translate(0.000000,360.000000) scale(0.100000,-0.100000)"
fill="#000000" stroke="none">
<path d="M0 1800 l0 -1800 1553 1 c853 1 1538 4 1521 8 -36 9 -35 8 -149 84
-49 33 -106 74 -125 92 -19 18 -49 36 -67 40 -45 9 -45 9 -97 165 -20 56 -26
65 -53 72 -28 7 -79 59 -125 127 -32 47 -23 92 34 161 15 19 28 42 28 51 0 29
62 193 80 213 14 14 22 16 38 7 12 -6 23 -8 25 -4 3 5 19 78 37 163 21 106 37
161 50 174 18 19 19 18 25 -20 26 -162 80 -363 101 -380 8 -7 52 -17 97 -23
118 -17 127 -20 127 -35 0 -15 -62 -54 -120 -76 -19 -7 -39 -16 -43 -20 -13
-12 124 -285 201 -400 66 -98 167 -211 256 -287 52 -44 45 -61 -34 -89 l-65
-22 753 -1 752 -1 0 1800 0 1800 -2400 0 -2400 0 0 -1800z m511 1410 c64 -33
187 -76 284 -99 153 -37 174 -43 184 -55 6 -6 14 -40 20 -75 21 -127 57 -213
121 -288 76 -87 109 -136 117 -173 4 -23 2 -30 -11 -30 -9 0 -16 -8 -16 -19 0
-11 -3 -22 -8 -25 -12 -7 -145 62 -332 174 -25 14 -56 33 -69 41 -155 90 -339
249 -381 329 -22 41 -40 122 -40 183 l0 57 45 0 c26 0 63 -9 86 -20z m2373
-1546 c101 -109 275 -210 396 -230 84 -13 80 -10 80 -65 0 -61 -7 -65 -104
-50 -145 21 -302 99 -413 205 -50 47 -68 92 -59 149 13 76 22 76 100 -9z
m-2076 -183 c37 -110 149 -260 238 -322 33 -22 226 -89 258 -89 4 0 -22 29
-57 63 -48 47 -70 79 -86 121 -11 31 -21 59 -21 61 0 18 32 -5 103 -73 45 -43
104 -93 131 -111 72 -50 448 -230 556 -267 90 -30 95 -34 111 -72 10 -22 22
-43 27 -46 6 -3 13 -32 17 -64 11 -106 9 -102 69 -102 36 0 58 -5 66 -15 25
-30 -5 -38 -167 -44 -113 -5 -148 -9 -123 -14 19 -5 87 -20 150 -35 82 -19
145 -27 220 -27 l104 -1 48 -120 c26 -65 47 -126 48 -134 0 -25 -106 -88 -200
-119 -116 -37 -211 -53 -317 -52 -154 1 -250 29 -308 91 -28 29 -30 36 -31
115 -1 75 -4 91 -34 147 -18 35 -46 82 -62 105 -15 23 -28 44 -28 47 0 3 -11
16 -25 30 -30 30 -31 41 -6 106 22 59 27 55 -79 69 -70 10 -198 55 -295 103
-86 44 -274 220 -344 322 -33 48 -71 157 -71 201 0 62 22 150 42 168 33 28 45
20 66 -42z m3021 -345 c23 -21 175 -86 201 -86 12 0 59 18 106 41 69 33 87 39
99 29 24 -20 18 -36 -32 -79 -75 -63 -217 -108 -381 -118 -56 -3 -105 -10
-108 -15 -10 -15 87 -174 164 -271 81 -102 182 -188 285 -244 37 -21 67 -41
67 -45 0 -5 -16 -24 -35 -44 -26 -25 -35 -43 -35 -67 0 -47 -45 -131 -91 -170
-46 -40 -97 -57 -166 -57 -44 0 -58 6 -108 42 -74 55 -135 137 -174 235 -40
98 -46 109 -62 105 -7 -2 -27 5 -44 14 -32 17 -32 17 -74 -16 -48 -39 -87 -43
-146 -14 -43 20 -145 111 -145 128 1 6 49 45 107 86 58 41 133 99 168 130 34
30 103 84 153 120 50 36 91 68 91 73 1 4 -19 7 -43 7 -80 0 -306 88 -306 119
0 4 9 16 19 25 19 17 23 17 85 -8 35 -14 80 -26 100 -26 47 0 126 31 206 80
73 44 77 45 99 26z"/>
<path d="M3729 322 c48 -134 97 -202 146 -202 46 0 110 31 138 67 15 20 27 42
27 50 0 15 -36 18 -45 3 -17 -27 -115 11 -115 45 0 7 -33 32 -74 54 -41 22
-78 45 -81 51 -3 5 -10 10 -15 10 -4 0 4 -35 19 -78z"/>
</g>
</svg>
