<?xml version="1.0" standalone="no"?>
<!DOCTYPE svg PUBLIC "-//W3C//DTD SVG 20010904//EN"
 "http://www.w3.org/TR/2001/REC-SVG-20010904/DTD/svg10.dtd">
<svg version="1.0" xmlns="http://www.w3.org/2000/svg"
 width="480.000000pt" height="360.000000pt" viewBox="0 0 480.000000 360.000000"
 preserveAspectRatio="xMidYMid meet">
<metadata>
Created by potrace 1.16, written by Peter Selinger 2001-2019
</metadata>
<rect width="1" height="360" fill="#000000"/>
<rect x="479" width="1" height="360" fill="#000000"/>
<rect width="480" height="1" fill="#000000"/>
<rect y="359" width="480" height="1" fill="#000000"/>
<g transform="translate(0.000000,360.000000) scale(0.100000,-0.100000)"
fill="#000000" stroke="none">
<path d="M1139 3582 c-38 -25 -104 -81 -98 -84 2 -2 51 21 109 49 l105 53 -45
-1 c-25 0 -57 -8 -71 -17z"/>
<path d="M2071 3561 c282 -127 485 -349 589 -648 42 -117 50 -173 51 -328 0
-185 -31 -327 -111 -490 -52 -108 -107 -184 -219 -301 -161 -170 -216 -267
-297 -524 -12 -40 -18 -102 -22 -230 -4 -154 -2 -186 17 -265 78 -326 290
-598 576 -736 l79 -39 1033 0 1033 0 0 612 0 613 -37 -55 c-147 -222 -365
-481 -582 -692 -95 -93 -177 -168 -183 -168 -7 0 -5 7 4 18 8 9 43 50 77 91
218 263 389 633 457 988 36 189 45 485 19 665 -83 593 -379 1105 -846 1463
l-84 65 -820 0 -820 0 86 -39z m1171 -2310 c90 -38 158 -140 158 -236 0 -90
-61 -189 -142 -231 -43 -22 -138 -29 -192 -14 -101 28 -176 133 -176 246 0
180 188 306 352 235z"/>
<path d="M885 3383 c-130 -105 -317 -281 -455 -430 -158 -170 -316 -371 -404
-510 l-26 -43 0 -1200 0 -1200 575 0 c316 0 575 2 575 4 0 2 -35 31 -77 64
-84 65 -337 316 -401 397 -178 227 -335 557 -401 845 -77 334 -75 669 5 999
64 260 160 479 312 706 84 127 107 154 250 298 70 70 124 127 122 127 -3 0
-36 -26 -75 -57z"/>
<path d="M1526 2850 c-60 -24 -129 -88 -158 -150 -30 -61 -31 -167 -2 -230 30
-65 95 -125 162 -151 138 -52 303 16 366 151 30 65 29 179 -2 240 -66 130
-231 193 -366 140z"/>
</g>
</svg>
