<?xml version="1.0" standalone="no"?>
<!DOCTYPE svg PUBLIC "-//W3C//DTD SVG 20010904//EN"
 "http://www.w3.org/TR/2001/REC-SVG-20010904/DTD/svg10.dtd">
<svg version="1.0" xmlns="http://www.w3.org/2000/svg"
 width="480.000000pt" height="360.000000pt" viewBox="0 0 480.000000 360.000000"
 preserveAspectRatio="xMidYMid meet">
<metadata>
Created by potrace 1.16, written by Peter Selinger 2001-2019
</metadata>
<rect width="1" height="360" fill="#000000"/>
<rect x="479" width="1" height="360" fill="#000000"/>
<rect width="480" height="1" fill="#000000"/>
<rect y="359" width="480" height="1" fill="#000000"/>
<g transform="translate(0.000000,360.000000) scale(0.100000,-0.100000)"
fill="#000000" stroke="none">
<path d="M0 1800 l0 -1800 1085 0 c1078 0 1085 0 1073 20 -10 15 -10 22 0 32
18 18 64 -9 56 -34 -5 -17 41 -18 1290 -18 l1296 0 0 1800 0 1800 -1190 0
c-1183 0 -1190 0 -1190 -20 0 -11 -7 -20 -15 -20 -8 0 -20 9 -27 20 -12 19
-59 29 -57 13 1 -5 1 -16 0 -25 -1 -24 -31 -11 -31 13 0 18 -17 19 -564 19
-442 0 -565 -3 -569 -12 -3 -10 -9 -10 -26 0 -16 9 -150 12 -576 12 l-555 0 0
-1800z m1570 1729 c12 -23 20 -43 18 -45 -8 -7 -68 55 -68 70 0 31 30 16 50
-25z m-236 5 c23 -9 20 -44 -3 -44 -22 0 -45 25 -36 40 7 11 17 13 39 4z m636
-14 c0 -13 -7 -20 -18 -20 -26 0 -34 11 -21 27 17 20 39 16 39 -7z m-481 3
c10 9 15 8 27 -7 16 -23 17 -26 5 -45 -7 -11 -13 -11 -32 0 -13 7 -30 14 -37
15 -20 4 -25 11 -18 29 4 12 10 13 24 6 13 -7 23 -6 31 2z m292 -126 c4 -15 4
-27 0 -27 -15 0 -43 39 -36 50 11 17 28 6 36 -23z m-671 -12 c0 -25 -23 -35
-35 -15 -10 16 2 40 20 40 9 0 15 -9 15 -25z m1843 -22 c3 -5 1 -19 -4 -32 -8
-19 -12 -21 -24 -11 -22 18 -19 50 4 50 11 0 22 -3 24 -7z m-1140 -90 c14 -22
-10 -14 -42 14 -38 34 -39 49 -3 61 26 8 27 7 32 -27 3 -20 9 -42 13 -48z
m737 52 c13 -16 10 -47 -6 -52 -14 -5 -38 42 -30 56 10 15 21 14 36 -4z
m-1146 -41 c3 -9 6 -22 6 -30 0 -12 -4 -12 -24 3 -17 13 -21 21 -14 31 14 16
25 15 32 -4z m1418 10 c4 -3 -1 -18 -10 -34 -16 -28 -16 -28 -27 -6 -7 11 -10
27 -7 34 4 12 34 17 44 6z m418 -66 c-1 -7 -11 -26 -24 -42 l-24 -28 5 28 c7
46 11 54 28 54 8 0 15 -6 15 -12z m-482 -27 c-5 -24 -38 -27 -38 -3 0 10 3 21
6 25 11 11 35 -5 32 -22z m-2051 7 c6 -7 13 -21 16 -30 5 -14 1 -18 -19 -18
-26 0 -40 20 -30 45 7 18 20 19 33 3z m329 -92 c18 -19 36 -46 40 -60 6 -25 5
-25 -26 -15 -17 7 -34 19 -37 28 -3 9 -15 26 -26 38 -19 21 -16 43 5 43 6 0
26 -15 44 -34z m1873 20 c10 -12 9 -20 -5 -41 -19 -28 -34 -19 -34 21 0 35 19
44 39 20z m-1546 -117 c4 -13 0 -19 -13 -19 -25 0 -43 23 -29 37 15 15 36 6
42 -18z m132 11 c7 -23 -1 -40 -20 -40 -8 0 -17 5 -20 10 -9 15 4 50 20 50 8
0 16 -9 20 -20z m-451 -38 c15 -28 14 -29 -13 -27 -37 2 -51 12 -51 36 0 32
46 25 64 -9z m476 -12 c0 -5 -7 -10 -15 -10 -8 0 -15 5 -15 10 0 6 7 10 15 10
8 0 15 -4 15 -10z m1365 0 c3 -5 0 -19 -9 -31 l-14 -21 -12 21 c-6 12 -8 26
-5 31 8 13 32 13 40 0z m-165 -76 c0 -8 -6 -14 -14 -14 -18 0 -29 27 -13 33
16 6 27 -1 27 -19z m-250 -50 c0 -14 9 -33 21 -42 17 -14 19 -24 13 -60 -4
-26 -12 -42 -20 -42 -8 0 -14 7 -14 16 0 9 -9 27 -20 41 -15 19 -17 30 -10 43
6 10 10 30 10 44 0 14 5 26 10 26 6 0 10 -12 10 -26z m-1112 -16 c14 -14 16
-48 4 -48 -20 0 -45 28 -39 44 8 19 19 20 35 4z m1529 -65 c-3 -16 -11 -41
-18 -58 l-13 -30 -4 25 c-2 14 -8 29 -13 35 -5 5 -9 19 -9 32 0 19 5 23 31 23
29 0 31 -2 26 -27z m629 -26 c3 -8 -9 -29 -26 -46 l-30 -33 0 34 c0 35 15 58
37 58 8 0 16 -6 19 -13z m132 -65 c2 -14 -2 -22 -11 -22 -17 0 -30 27 -21 41
9 16 29 4 32 -19z m-2369 -71 c25 -34 19 -43 -20 -29 -27 9 -38 35 -22 51 12
12 21 7 42 -22z m2271 -4 c0 -12 -13 -35 -29 -50 l-30 -28 6 38 c3 21 10 44
16 51 15 20 37 14 37 -11z m-213 -113 c4 -12 -56 -78 -64 -70 -3 3 0 12 6 20
7 8 10 20 6 26 -4 6 -1 18 6 26 13 16 40 15 46 -2z m-103 -57 c17 -12 17 -15
-5 -52 l-24 -39 -7 43 c-10 60 0 74 36 48z m-814 -42 c0 -35 -36 -34 -44 0 -9
35 0 48 25 35 11 -6 19 -21 19 -35z m-692 17 c7 -5 14 -22 15 -37 2 -36 -25
-45 -54 -19 -24 21 -24 40 -1 53 21 13 24 13 40 3z m1367 -22 c3 -6 -3 -22
-15 -37 -19 -24 -20 -29 -6 -39 20 -14 20 -33 -1 -75 l-17 -34 -8 35 c-4 19
-4 51 -1 70 4 19 6 41 4 49 -6 33 28 57 44 31z m-979 -66 c-3 -9 -10 -12 -16
-9 -14 9 -13 48 3 64 10 10 13 7 15 -14 2 -15 1 -33 -2 -41z m-994 -1 c35 -34
36 -47 1 -38 -37 9 -53 23 -53 46 0 27 19 24 52 -8z m892 -39 c9 -24 7 -64 -3
-64 -15 0 -53 59 -46 70 10 16 42 12 49 -6z m1471 6 c3 -5 -3 -18 -15 -30 -11
-11 -20 -27 -20 -36 0 -21 -18 -54 -30 -54 -13 0 -13 57 0 65 6 3 10 16 10 29
0 12 3 26 7 29 10 10 41 8 48 -3z m-2241 -42 c8 -13 7 -21 -1 -29 -16 -16 -54
16 -46 37 7 19 33 14 47 -8z m1709 8 c3 -8 -3 -22 -14 -32 -18 -16 -19 -16
-19 8 0 37 22 53 33 24z m-718 -66 c0 -41 -27 -53 -45 -20 -16 30 -3 62 23 58
18 -2 22 -10 22 -38z m-177 -83 c-2 -11 -8 -22 -14 -24 -13 -4 -28 43 -18 58
9 16 35 -11 32 -34z m578 -8 c8 -14 -16 -60 -28 -53 -14 9 -9 64 6 64 8 0 18
-5 22 -11z m-306 -64 c0 -53 -21 -61 -44 -17 -17 33 -5 62 24 62 17 0 20 -7
20 -45z m799 26 c8 -14 4 -24 -17 -45 -45 -43 -62 -34 -41 21 17 44 42 55 58
24z m-534 -61 c3 -36 -18 -90 -35 -90 -6 0 -10 17 -11 38 0 20 -2 46 -4 56 -5
27 3 38 27 34 16 -2 21 -12 23 -38z m-1070 -10 c3 -6 17 -7 29 -4 30 7 82 -52
64 -73 -9 -11 -14 -11 -28 2 -9 8 -26 15 -38 15 -50 0 -90 39 -65 63 10 10 31
8 38 -3z m2166 -56 c11 -14 10 -18 -6 -30 -24 -18 -34 -18 -41 1 -15 38 21 60
47 29z m-1277 -37 c-3 -9 -10 -17 -15 -17 -14 0 -22 27 -15 47 6 15 8 15 22 2
8 -9 12 -23 8 -32z m1181 13 c0 -14 -8 -26 -22 -31 -26 -9 -31 8 -12 42 13 26
34 19 34 -11z m-2486 -36 c15 -11 19 -20 13 -26 -13 -13 -52 8 -52 27 0 19 10
19 39 -1z m2436 -14 c3 -5 1 -10 -4 -10 -6 0 -11 5 -11 10 0 6 2 10 4 10 3 0
8 -4 11 -10z m-120 -11 c4 -6 -7 -24 -24 -41 l-31 -30 0 34 c0 19 3 38 7 41
10 11 41 8 48 -4z m-1259 -70 c10 -17 -23 -46 -37 -32 -7 7 -9 19 -6 27 7 18
33 21 43 5z m169 -39 c0 -49 -30 -54 -49 -8 -17 40 -12 50 22 46 24 -3 27 -8
27 -38z m523 -67 c3 -22 -52 -88 -66 -79 -13 8 -2 66 13 66 7 0 15 9 18 21 7
26 31 20 35 -8z m-83 -4 c4 -13 0 -27 -11 -40 -32 -35 -44 -17 -24 35 12 31
26 33 35 5z m-185 -134 c13 -16 10 -23 -33 -77 -49 -64 -76 -41 -41 33 31 62
49 74 74 44z m-393 -119 c-8 -20 -47 -21 -47 -1 0 18 32 37 44 25 5 -5 6 -16
3 -24z m147 25 c9 -15 -23 -36 -36 -23 -5 5 -7 15 -4 21 9 13 33 14 40 2z
m-598 -26 c4 -8 3 -22 0 -30 -8 -22 -46 -1 -46 25 0 24 38 28 46 5z m902 -33
c2 -12 -4 -25 -16 -31 -22 -12 -33 -6 -26 15 2 8 6 21 9 30 7 21 29 12 33 -14z
m30 -74 c18 -18 14 -36 -9 -43 -27 -9 -39 4 -28 33 9 25 19 28 37 10z m587
-34 c0 -18 -69 -63 -81 -51 -9 9 15 75 29 80 21 7 52 -10 52 -29z m-942 4 c6
-19 -11 -48 -28 -48 -18 0 -20 31 -3 48 15 15 25 15 31 0z m738 -38 c28 -15
24 -26 -20 -48 -47 -25 -59 -12 -29 31 22 31 22 31 49 17z m-766 -60 c9 -15
-4 -50 -20 -50 -19 0 -25 13 -18 38 6 23 27 29 38 12z m105 -29 c0 -22 -25
-45 -40 -36 -13 8 -13 28 2 43 18 18 38 14 38 -7z m-475 -31 c0 -18 -6 -26
-23 -28 -27 -4 -40 22 -22 44 19 22 45 13 45 -16z m573 8 c-3 -23 -28 -34 -54
-24 -24 9 2 46 32 46 21 0 25 -4 22 -22z m578 11 c6 -11 -31 -57 -40 -48 -2 2
-2 16 1 32 5 27 26 36 39 16z m-821 -16 c16 -16 16 -18 -5 -35 -26 -21 -40
-16 -40 16 0 39 18 46 45 19z m1285 -47 c0 -13 -53 -56 -70 -56 -14 0 -13 18
3 35 6 8 18 21 25 29 13 17 42 11 42 -8z m-1050 -49 c0 -17 -20 -37 -37 -37
-13 0 -18 32 -6 43 11 12 43 7 43 -6z m424 -76 c15 -17 15 -20 1 -34 -44 -45
-89 -24 -52 24 26 34 29 34 51 10z m-714 -36 c0 -28 -12 -32 -30 -10 -14 16
-6 35 16 35 8 0 14 -10 14 -25z m-112 -78 c4 -20 -25 -34 -40 -19 -15 15 -1
44 19 40 10 -2 19 -11 21 -21z m607 -18 c0 -17 -6 -25 -22 -27 -17 -3 -23 2
-23 15 0 22 20 45 35 40 5 -2 10 -15 10 -28z m-215 -64 c0 -8 -9 -19 -20 -25
-21 -11 -25 -4 -14 24 8 20 34 21 34 1z m257 -39 c-7 -18 -52 -22 -63 -5 -4 7
4 20 17 30 20 15 26 16 38 4 7 -7 11 -21 8 -29z m397 -2 c24 -9 19 -41 -6 -48
-36 -9 -58 -7 -58 6 0 12 30 46 42 47 3 1 13 -2 22 -5z m-944 -49 c12 -15 7
-45 -8 -45 -4 0 -17 6 -27 14 -16 12 -17 16 -6 30 17 20 25 20 41 1z m1045
-31 c0 -15 -8 -19 -43 -22 -29 -2 -41 1 -37 8 3 5 12 10 19 10 8 0 19 7 26 15
16 20 35 14 35 -11z m150 -10 c0 -15 -8 -20 -37 -22 -45 -4 -49 11 -10 31 34
18 47 16 47 -9z m-701 -20 c9 -32 -4 -47 -35 -42 -29 4 -36 30 -14 52 24 23
42 20 49 -10z m394 -36 c19 -19 14 -34 -13 -46 -14 -6 -25 -19 -25 -27 0 -17
-46 -39 -67 -31 -42 16 24 115 78 116 8 0 20 -5 27 -12z m-690 -135 c4 -26 -6
-28 -43 -11 -37 17 -33 40 8 36 24 -2 33 -8 35 -25z m320 -61 c3 -20 -1 -22
-37 -22 -46 0 -57 24 -18 40 33 13 52 8 55 -18z m338 -51 c-6 -9 -30 -10 -81
-2 -5 1 6 10 25 21 29 15 37 16 49 5 7 -7 10 -18 7 -24z m-925 -71 c37 -20 10
-68 -31 -55 -32 10 -26 56 8 64 2 1 12 -4 23 -9z m1320 -31 c9 -17 8 -23 -2
-30 -18 -11 -44 14 -36 35 9 22 24 20 38 -5z m-679 -88 c4 -3 3 -13 -2 -21
-12 -19 -63 -2 -68 23 -3 14 2 16 30 11 18 -4 36 -9 40 -13z m536 -20 c-2 -9
-11 -17 -21 -19 -21 -4 -35 27 -17 38 19 12 42 0 38 -19z m-96 -49 c10 -10 9
-15 -4 -28 -14 -14 -18 -14 -45 3 -16 10 -28 23 -26 28 4 14 60 12 75 -3z"/>
</g>
</svg>
