<?xml version="1.0" standalone="no"?>
<!DOCTYPE svg PUBLIC "-//W3C//DTD SVG 20010904//EN"
 "http://www.w3.org/TR/2001/REC-SVG-20010904/DTD/svg10.dtd">
<svg version="1.0" xmlns="http://www.w3.org/2000/svg"
 width="480.000000pt" height="360.000000pt" viewBox="0 0 480.000000 360.000000"
 preserveAspectRatio="xMidYMid meet">
<metadata>
Created by potrace 1.16, written by Peter Selinger 2001-2019
</metadata>
<rect width="1" height="360" fill="#000000"/>
<rect x="479" width="1" height="360" fill="#000000"/>
<rect width="480" height="1" fill="#000000"/>
<rect y="359" width="480" height="1" fill="#000000"/>
<g transform="translate(0.000000,360.000000) scale(0.100000,-0.100000)"
fill="#000000" stroke="none">
<path d="M0 1800 l0 -1800 389 0 389 0 6 31 c3 17 6 46 6 64 0 45 -34 58 -141
53 l-82 -3 -21 50 c-11 28 -25 54 -30 58 -6 5 -43 6 -83 3 -55 -3 -75 -1 -84
10 -10 13 -14 13 -29 -1 -41 -37 -59 5 -43 99 6 34 6 63 2 64 -14 6 -10 28 6
42 8 7 21 33 29 59 14 48 80 185 101 211 7 8 27 42 45 75 18 33 59 105 90 160
81 140 111 203 184 378 35 83 72 169 81 189 17 34 17 45 6 123 -7 47 -15 84
-18 82 -2 -3 -15 -47 -27 -98 l-24 -94 5 115 c2 63 5 127 7 143 5 53 -19 21
-30 -39 -11 -64 -44 -178 -75 -262 -22 -62 -24 -98 -4 -132 19 -33 19 -91 0
-116 -15 -19 -15 -19 -30 0 -21 28 -38 14 -57 -44 -18 -55 -16 -75 8 -66 7 3
16 1 19 -4 4 -6 -6 -15 -20 -20 -24 -9 -26 -14 -20 -48 5 -31 2 -39 -15 -50
-18 -11 -21 -10 -29 10 -5 13 -14 62 -21 110 -12 79 -11 94 5 148 l18 60 -27
29 c-16 16 -32 44 -36 63 l-7 33 -12 -28 c-6 -16 -11 -40 -12 -55 l-1 -27 -12
29 -13 28 -13 -46 c-13 -49 -28 -59 -37 -26 -7 25 -23 16 -24 -13 0 -17 -4
-14 -15 13 l-14 35 4 -52 c5 -56 -4 -68 -22 -30 -6 12 -11 16 -11 9 -1 -7 -13
-1 -31 14 -20 19 -32 42 -40 78 -12 62 -12 371 1 441 5 30 54 140 119 270 77
153 113 237 119 275 9 55 0 159 -19 231 -8 30 -7 58 6 121 8 46 17 90 17 98 2
12 -10 14 -61 11 -50 -2 -67 1 -83 15 -27 25 -24 49 14 91 58 68 59 70 47 93
-6 12 -59 44 -128 76 -127 60 -128 61 -120 70 4 3 30 -1 60 -10 29 -9 96 -28
148 -42 52 -15 103 -32 113 -38 13 -8 22 -8 35 2 73 53 126 58 165 14 19 -20
18 -22 -4 -61 -12 -23 -20 -43 -17 -46 3 -4 29 2 58 11 44 14 64 15 119 7 80
-13 151 -40 133 -52 -9 -6 -7 -12 9 -27 17 -16 20 -28 17 -79 -3 -56 -1 -60
19 -63 16 -2 22 -10 22 -25 -1 -22 12 -77 25 -107 4 -10 -6 -28 -29 -50 -19
-19 -35 -38 -35 -44 0 -5 11 -24 26 -43 14 -18 20 -33 13 -33 -7 0 21 -23 60
-51 40 -28 80 -65 90 -82 9 -18 60 -75 114 -128 109 -107 116 -125 75 -202
-21 -39 -23 -54 -22 -197 1 -171 10 -211 117 -550 25 -80 64 -206 87 -280 23
-74 52 -159 66 -187 13 -29 36 -106 51 -170 24 -99 28 -140 28 -257 l0 -139
-25 -8 c-14 -4 -37 -10 -51 -13 -18 -4 -38 -23 -58 -55 -18 -27 -41 -51 -53
-54 -12 -4 -72 -3 -133 0 -69 4 -114 2 -118 -4 -3 -5 -9 -40 -13 -76 l-7 -67
1212 0 c962 0 1211 3 1211 13 -1 6 -7 66 -14 131 -15 134 -23 148 -93 161 -55
10 -63 20 -63 85 0 42 -4 59 -15 64 -8 3 -15 12 -15 21 0 8 7 15 15 15 21 0
19 13 -5 35 -15 13 -20 31 -20 67 0 28 4 48 11 48 12 0 3 71 -11 80 -18 12
-21 157 -5 260 23 148 34 264 41 420 3 74 10 171 15 215 12 103 12 105 -6 99
-21 -8 -19 24 6 108 23 80 21 109 -6 58 -10 -19 -21 -37 -24 -40 -4 -3 -15
-18 -25 -33 -9 -16 -20 -26 -23 -24 -7 7 54 203 78 249 11 21 17 38 15 38 -4
0 -82 -109 -144 -202 -14 -21 -27 -36 -30 -34 -8 9 70 220 105 285 19 36 42
87 49 112 12 39 26 57 85 104 38 32 81 78 95 101 14 24 43 57 64 74 24 19 51
57 75 106 37 75 37 76 17 90 -18 12 -20 24 -19 99 1 75 3 85 19 85 19 0 25 25
7 35 -6 4 -9 32 -6 71 5 72 12 81 107 129 51 26 60 27 142 22 88 -6 89 -5 105
21 27 42 136 173 140 168 2 -2 -21 -53 -51 -114 -30 -60 -52 -112 -49 -116 14
-14 32 -3 73 45 31 36 39 53 31 59 -9 5 0 16 28 36 43 31 51 53 26 74 -22 18
-19 26 23 64 33 31 39 33 53 20 14 -13 18 -13 29 1 21 25 21 12 1 -46 -21 -60
-97 -201 -143 -265 -26 -37 -28 -45 -17 -65 7 -13 18 -29 24 -36 7 -6 21 -42
30 -78 17 -63 18 -70 1 -138 -22 -92 -36 -121 -119 -243 -66 -98 -68 -102 -83
-199 -8 -55 -17 -107 -19 -116 -3 -8 8 -28 25 -44 36 -35 38 -68 6 -98 l-24
-23 28 -97 c19 -63 32 -136 38 -210 l9 -114 66 -62 c39 -37 88 -98 121 -151
30 -49 88 -129 128 -178 40 -50 92 -123 116 -162 39 -65 46 -87 67 -209 13
-75 27 -161 30 -193 9 -70 -11 -198 -30 -198 -8 0 -16 8 -18 18 -3 9 -5 2 -6
-15 -1 -35 -3 -36 -96 -48 -51 -7 -62 -15 -161 -127 -30 -35 -31 -35 -135 -40
-100 -5 -108 -8 -190 -50 -47 -25 -84 -49 -83 -54 2 -5 5 -44 9 -86 l7 -78
389 0 389 0 0 1800 0 1800 -2400 0 -2400 0 0 -1800z m3487 854 c26 -7 35 -27
27 -59 -11 -44 -70 -41 -94 6 -24 44 7 69 67 53z"/>
<path d="M4100 2147 c0 -17 38 -53 46 -44 7 7 -25 57 -37 57 -5 0 -9 -6 -9
-13z"/>
<path d="M4004 1849 c-12 -16 -34 -88 -34 -112 0 -14 67 -43 77 -33 2 2 -4 39
-14 81 -14 60 -21 75 -29 64z"/>
<path d="M222 1485 c0 -16 2 -22 5 -12 2 9 2 23 0 30 -3 6 -5 -1 -5 -18z"/>
<path d="M502 1460 c0 -14 4 -38 8 -55 6 -25 8 -27 15 -12 4 10 3 28 -3 40 -6
12 -13 29 -15 37 -3 8 -5 4 -5 -10z"/>
<path d="M1570 765 c0 -5 5 -17 10 -25 5 -8 10 -10 10 -5 0 6 -5 17 -10 25 -5
8 -10 11 -10 5z"/>
<path d="M3760 220 c-11 -7 -15 -36 -18 -114 l-4 -106 70 0 71 0 -25 91 c-14
50 -29 102 -34 115 -10 25 -34 31 -60 14z"/>
<path d="M1002 90 c-41 -10 -48 -16 -57 -58 l-7 -32 62 0 63 0 -7 42 c-9 53
-13 57 -54 48z"/>
</g>
</svg>
