<?xml version="1.0" standalone="no"?>
<!DOCTYPE svg PUBLIC "-//W3C//DTD SVG 20010904//EN"
 "http://www.w3.org/TR/2001/REC-SVG-20010904/DTD/svg10.dtd">
<svg version="1.0" xmlns="http://www.w3.org/2000/svg"
 width="480.000000pt" height="360.000000pt" viewBox="0 0 480.000000 360.000000"
 preserveAspectRatio="xMidYMid meet">
<metadata>
Created by potrace 1.16, written by Peter Selinger 2001-2019
</metadata>
<rect width="1" height="360" fill="#000000"/>
<rect x="479" width="1" height="360" fill="#000000"/>
<rect width="480" height="1" fill="#000000"/>
<rect y="359" width="480" height="1" fill="#000000"/>
<g transform="translate(0.000000,360.000000) scale(0.100000,-0.100000)"
fill="#000000" stroke="none">
<path d="M663 3350 c-13 -5 -30 -27 -39 -49 -13 -32 -21 -40 -50 -46 -20 -3
-34 -9 -32 -13 2 -4 9 -19 17 -33 33 -66 -34 -158 -173 -240 -36 -21 -87 -39
-128 -44 -30 -4 -53 -13 -61 -25 -15 -22 -73 -29 -103 -12 -17 9 -24 9 -34 -3
-6 -7 -21 -15 -33 -17 -18 -2 -22 -10 -25 -49 -3 -40 0 -48 23 -63 28 -18 81
-119 91 -172 4 -21 -1 -44 -14 -70 -10 -22 -22 -61 -25 -89 -3 -27 -9 -65 -13
-83 -6 -30 -2 -36 51 -87 31 -30 61 -55 65 -55 23 0 61 -71 74 -141 8 -41 19
-87 26 -103 12 -31 56 -81 72 -81 5 0 18 -11 28 -25 20 -25 20 -25 20 -2 0 12
6 22 15 22 18 0 65 -21 65 -30 0 -3 -23 -30 -51 -59 -37 -38 -65 -58 -102 -70
-45 -14 -55 -22 -77 -64 -14 -26 -33 -58 -43 -70 -46 -58 -87 -118 -87 -127 0
-6 9 -28 20 -50 18 -35 18 -41 5 -74 -19 -45 -19 -70 1 -123 12 -29 14 -56 10
-87 -8 -49 -14 -53 -118 -72 l-38 -6 0 -125 c0 -112 2 -124 16 -119 23 9 156
27 161 22 2 -2 -10 -6 -28 -10 -27 -5 -31 -9 -27 -31 5 -23 2 -25 -27 -25 -18
0 -47 -3 -64 -6 l-31 -6 0 -369 0 -369 730 0 729 0 -40 115 c-79 228 -120 297
-218 365 -50 35 -60 47 -55 65 3 13 -1 27 -10 34 -14 12 -10 20 29 66 l45 52
4 94 c5 108 -6 183 -55 347 -18 62 -18 64 1 102 12 24 20 59 20 89 0 28 5 70
12 94 6 23 8 59 4 79 -9 49 -114 204 -165 246 -23 18 -41 40 -41 48 0 17 17
19 23 2 3 -8 8 -6 13 7 11 30 26 36 41 17 12 -16 14 -16 29 3 39 49 86 166 91
228 6 81 -26 235 -72 341 l-34 80 21 43 c12 24 41 63 65 87 24 24 43 47 43 50
0 3 -11 6 -24 6 -19 0 -23 4 -19 20 5 18 0 20 -35 20 -64 0 -72 7 -72 56 0 49
-5 53 -30 24 -17 -19 -18 -18 -61 34 -24 30 -73 87 -109 127 -52 58 -60 71
-40 65 56 -17 61 -14 81 49 10 33 19 70 19 82 0 22 -52 73 -74 73 -8 0 -24 8
-37 19 -13 10 -33 20 -44 22 -14 3 -22 17 -30 54 -11 54 -27 64 -72 45z m107
-290 c0 -5 -2 -10 -4 -10 -3 0 -8 5 -11 10 -3 6 -1 10 4 10 6 0 11 -4 11 -10z
m186 -1267 c-10 -10 -19 5 -10 18 6 11 8 11 12 0 2 -7 1 -15 -2 -18z m-696
-967 c0 -9 -39 -13 -51 -5 -10 6 -4 9 19 9 17 0 32 -2 32 -4z"/>
<path d="M4237 2993 c-4 -3 -7 -19 -7 -34 0 -37 -18 -47 -26 -14 -9 36 -30 25
-26 -13 3 -27 -1 -32 -35 -48 -21 -10 -40 -19 -41 -20 -2 -1 4 -19 14 -39 15
-32 15 -38 3 -45 -8 -5 -59 -53 -114 -107 -97 -96 -102 -100 -187 -127 -86
-28 -102 -39 -75 -49 7 -3 27 -34 45 -69 33 -63 33 -64 17 -108 -9 -25 -23
-76 -32 -115 -20 -88 -34 -116 -92 -178 -25 -28 -38 -48 -28 -44 15 6 16 4 7
-13 -12 -23 -1 -26 32 -9 31 17 31 6 -2 -37 -32 -42 -36 -54 -20 -54 6 0 26
-15 45 -33 58 -56 30 -105 -72 -122 -65 -10 -68 -38 -10 -90 49 -43 67 -72 67
-105 0 -23 34 -95 56 -121 12 -13 12 -32 -2 -130 -15 -102 -22 -125 -69 -218
l-53 -103 54 -24 c30 -13 54 -26 54 -29 0 -3 -12 -10 -26 -15 -21 -9 -25 -15
-19 -38 4 -20 -4 -47 -33 -103 -41 -78 -53 -125 -97 -369 -26 -139 -45 -218
-79 -322 l-15 -48 548 0 549 0 -24 82 c-14 46 -43 153 -65 238 -69 266 -94
334 -173 464 -20 33 -36 68 -36 78 0 26 42 107 108 205 52 78 61 87 139 129
54 30 89 43 102 39 11 -3 40 -30 66 -61 40 -46 89 -84 110 -84 3 0 5 155 5
344 0 323 -1 344 -17 340 -10 -3 -53 13 -95 35 -42 22 -94 43 -115 46 -51 8
-109 34 -129 56 -10 11 -22 19 -29 19 -19 0 -51 40 -39 48 6 4 10 24 10 44 0
21 6 44 13 50 11 10 13 10 7 1 -11 -20 18 -15 47 7 14 11 32 20 40 20 8 0 29
19 46 43 16 23 34 47 39 52 6 6 2 36 -9 74 -17 61 -18 66 -2 100 10 20 39 58
66 85 30 30 46 54 43 63 -5 12 -9 13 -20 3 -11 -9 -21 -8 -44 4 -17 9 -32 21
-34 28 -3 7 -19 11 -41 10 -37 -3 -44 3 -117 88 -12 14 -49 53 -83 88 -47 49
-58 65 -47 72 12 7 12 14 -3 45 -14 29 -15 40 -6 51 7 8 9 18 5 22 -4 4 -13
-1 -20 -11 -22 -29 -27 -20 -20 33 6 49 5 57 -9 43z m117 -1119 l-7 29 32 -19
c47 -28 54 -39 39 -63 -16 -26 -65 -28 -108 -6 -34 18 -37 31 -14 64 l17 23
23 -28 24 -29 -6 29z m185 -97 c8 -11 5 -13 -19 -9 -17 2 -30 8 -30 13 0 14
36 11 49 -4z m88 -59 c8 -7 7 -17 -5 -41 -9 -18 -18 -34 -19 -35 -1 -2 -11 -1
-22 3 -16 5 -21 15 -21 39 0 17 5 37 12 44 9 9 9 12 0 12 -7 0 -12 5 -12 10 0
9 31 -6 67 -32z"/>
</g>
</svg>
