<?xml version="1.0" standalone="no"?>
<!DOCTYPE svg PUBLIC "-//W3C//DTD SVG 20010904//EN"
 "http://www.w3.org/TR/2001/REC-SVG-20010904/DTD/svg10.dtd">
<svg version="1.0" xmlns="http://www.w3.org/2000/svg"
 width="480.000000pt" height="360.000000pt" viewBox="0 0 480.000000 360.000000"
 preserveAspectRatio="xMidYMid meet">
<metadata>
Created by potrace 1.16, written by Peter Selinger 2001-2019
</metadata>
<rect width="1" height="360" fill="#000000"/>
<rect x="479" width="1" height="360" fill="#000000"/>
<rect width="480" height="1" fill="#000000"/>
<rect y="359" width="480" height="1" fill="#000000"/>
<g transform="translate(0.000000,360.000000) scale(0.100000,-0.100000)"
fill="#000000" stroke="none">
<path d="M1604 3413 c0 -272 -25 -385 -135 -608 -53 -108 -137 -227 -222 -314
-77 -80 -232 -200 -297 -232 -32 -15 -61 -33 -65 -38 -3 -6 -38 -20 -78 -32
-40 -12 -76 -25 -82 -29 -23 -18 -192 -52 -302 -61 -138 -11 -314 0 -406 27
-16 5 -17 -50 -17 -1060 l0 -1066 1886 0 1887 0 -9 118 c-13 173 -9 299 14
467 12 83 23 179 24 214 l3 64 -40 4 c-45 5 -60 15 -81 54 -21 41 -18 58 22
135 73 141 84 164 118 263 35 99 35 103 25 184 -5 45 -12 91 -14 102 -2 11 -4
23 -4 26 -1 4 -12 10 -25 13 -36 9 -86 71 -86 107 0 35 38 117 75 161 13 16
27 45 30 66 3 20 8 48 11 61 5 24 43 68 79 90 14 8 16 14 8 17 -18 8 -16 31 4
38 12 5 14 9 5 18 -9 9 -15 9 -24 0 -22 -22 -58 -13 -109 28 -28 22 -55 40
-60 40 -6 0 -6 8 1 19 5 11 10 22 10 24 0 10 -59 25 -78 20 -13 -3 -27 6 -45
27 -15 17 -32 28 -37 25 -10 -6 -9 30 5 140 4 38 2 42 -47 80 -96 75 -109 117
-39 134 20 5 136 14 258 21 l222 12 71 -33 c83 -38 164 -118 220 -219 19 -34
65 -93 101 -130 60 -61 139 -175 139 -201 0 -5 48 -60 107 -122 81 -86 114
-128 139 -182 l33 -70 0 893 1 892 -1598 0 -1597 0 -1 -187z"/>
<path d="M4269 1972 c6 -12 16 -24 22 -28 8 -4 8 -1 0 14 -6 12 -16 24 -22 28
-8 4 -8 1 0 -14z"/>
<path d="M4387 1763 c-22 -25 -22 -29 5 -36 18 -5 19 -8 8 -22 -7 -8 -10 -18
-7 -22 4 -3 3 -11 -3 -18 -6 -7 3 -40 25 -95 l33 -85 -5 -195 -6 -195 28 -70
c68 -172 191 -383 307 -526 l28 -34 -3 390 -2 390 -28 53 c-15 28 -31 52 -36
52 -5 0 -16 18 -25 41 -26 65 -92 157 -175 244 -42 44 -88 95 -101 113 -25 33
-26 33 -43 15z"/>
<path d="M4224 1519 c4 -24 11 -65 15 -92 4 -26 13 -53 19 -59 18 -18 16 104
-2 146 -23 55 -40 57 -32 5z"/>
</g>
</svg>
