<?xml version="1.0" standalone="no"?>
<!DOCTYPE svg PUBLIC "-//W3C//DTD SVG 20010904//EN"
 "http://www.w3.org/TR/2001/REC-SVG-20010904/DTD/svg10.dtd">
<svg version="1.0" xmlns="http://www.w3.org/2000/svg"
 width="480.000000pt" height="360.000000pt" viewBox="0 0 480.000000 360.000000"
 preserveAspectRatio="xMidYMid meet">
<metadata>
Created by potrace 1.16, written by Peter Selinger 2001-2019
</metadata>
<rect width="1" height="360" fill="#000000"/>
<rect x="479" width="1" height="360" fill="#000000"/>
<rect width="480" height="1" fill="#000000"/>
<rect y="359" width="480" height="1" fill="#000000"/>
<g transform="translate(0.000000,360.000000) scale(0.100000,-0.100000)"
fill="#000000" stroke="none">
<path d="M0 1800 l0 -1800 2400 0 2400 0 0 1800 0 1800 -2400 0 -2400 0 0
-1800z m2278 -43 c6 -7 12 -37 14 -67 l3 -55 55 -8 c60 -9 136 -5 244 12 82
13 86 10 86 -64 0 -79 -1 -80 -125 -60 -70 11 -129 14 -169 10 -96 -10 -96
-10 -96 -64 0 -62 -15 -76 -75 -67 -41 7 -45 10 -51 41 -3 18 -4 38 -1 42 3 5
2 15 -3 23 -8 13 -62 15 -327 17 -343 2 -433 10 -538 48 -37 14 -70 25 -73 25
-4 0 -1 5 6 12 8 8 144 14 459 19 246 5 454 11 461 14 8 3 12 26 12 64 l0 60
33 4 c63 8 75 7 85 -6z"/>
</g>
</svg>
