<?xml version="1.0" standalone="no"?>
<!DOCTYPE svg PUBLIC "-//W3C//DTD SVG 20010904//EN"
 "http://www.w3.org/TR/2001/REC-SVG-20010904/DTD/svg10.dtd">
<svg version="1.0" xmlns="http://www.w3.org/2000/svg"
 width="480.000000pt" height="360.000000pt" viewBox="0 0 480.000000 360.000000"
 preserveAspectRatio="xMidYMid meet">
<metadata>
Created by potrace 1.16, written by Peter Selinger 2001-2019
</metadata>
<rect width="1" height="360" fill="#000000"/>
<rect x="479" width="1" height="360" fill="#000000"/>
<rect width="480" height="1" fill="#000000"/>
<rect y="359" width="480" height="1" fill="#000000"/>
<g transform="translate(0.000000,360.000000) scale(0.100000,-0.100000)"
fill="#000000" stroke="none">
<path d="M0 3525 c0 -41 2 -75 4 -75 5 0 106 138 106 145 0 3 -25 5 -55 5
l-55 0 0 -75z"/>
<path d="M4726 3548 c81 -113 74 -111 74 -24 l0 76 -56 0 -56 0 38 -52z"/>
<path d="M855 2711 c-27 -5 -79 -16 -115 -26 -36 -9 -85 -22 -110 -27 -25 -6
-50 -14 -55 -18 -6 -5 -48 -22 -94 -39 -46 -17 -98 -41 -115 -54 -17 -13 -39
-26 -49 -30 -47 -17 -198 -134 -304 -234 -10 -9 -13 -234 -13 -1059 l0 -1047
66 -88 66 -89 2272 0 2272 0 62 84 62 84 0 606 c0 333 -3 606 -6 606 -3 0 -47
-37 -98 -82 -145 -129 -213 -172 -403 -258 -188 -84 -332 -113 -563 -112 -242
1 -394 35 -605 137 -252 122 -441 285 -591 512 -55 81 -134 233 -134 256 0 22
-121 230 -178 306 -65 86 -170 193 -257 262 -174 137 -377 234 -605 289 -94
23 -412 36 -505 21z m349 -1083 c86 -25 164 -87 201 -159 90 -176 44 -364
-114 -463 -85 -54 -209 -64 -301 -26 -106 44 -152 95 -196 216 -42 113 -26
205 53 316 73 102 230 153 357 116z"/>
<path d="M3575 2669 c-115 -42 -183 -97 -243 -195 -36 -59 -56 -180 -41 -252
28 -135 112 -247 227 -300 76 -35 196 -42 273 -17 156 52 258 184 267 346 10
176 -104 358 -254 404 -65 20 -191 28 -229 14z"/>
</g>
</svg>
