<?xml version="1.0" standalone="no"?>
<!DOCTYPE svg PUBLIC "-//W3C//DTD SVG 20010904//EN"
 "http://www.w3.org/TR/2001/REC-SVG-20010904/DTD/svg10.dtd">
<svg version="1.0" xmlns="http://www.w3.org/2000/svg"
 width="480.000000pt" height="360.000000pt" viewBox="0 0 480.000000 360.000000"
 preserveAspectRatio="xMidYMid meet">
<metadata>
Created by potrace 1.16, written by Peter Selinger 2001-2019
</metadata>
<rect width="1" height="360" fill="#000000"/>
<rect x="479" width="1" height="360" fill="#000000"/>
<rect width="480" height="1" fill="#000000"/>
<rect y="359" width="480" height="1" fill="#000000"/>
<g transform="translate(0.000000,360.000000) scale(0.100000,-0.100000)"
fill="#000000" stroke="none">
<path d="M3340 1800 l0 -1800 730 0 730 0 0 1800 0 1800 -730 0 -730 0 0
-1800z"/>
<path d="M1597 2443 c-4 -3 -7 -20 -7 -37 0 -67 -6 -74 -98 -102 -79 -24 -91
-31 -152 -92 -79 -80 -95 -124 -94 -252 0 -97 28 -201 76 -291 44 -85 142
-181 225 -220 65 -32 75 -33 203 -37 215 -6 302 19 401 118 71 70 103 134 119
232 20 122 -17 265 -89 343 -15 17 -40 48 -56 70 -47 67 -98 116 -146 140 -71
37 -166 58 -231 52 -32 -3 -58 -2 -58 1 0 11 -68 82 -78 82 -5 0 -12 -3 -15
-7z"/>
</g>
</svg>
