<?xml version="1.0" standalone="no"?>
<!DOCTYPE svg PUBLIC "-//W3C//DTD SVG 20010904//EN"
 "http://www.w3.org/TR/2001/REC-SVG-20010904/DTD/svg10.dtd">
<svg version="1.0" xmlns="http://www.w3.org/2000/svg"
 width="480.000000pt" height="360.000000pt" viewBox="0 0 480.000000 360.000000"
 preserveAspectRatio="xMidYMid meet">
<metadata>
Created by potrace 1.16, written by Peter Selinger 2001-2019
</metadata>
<rect width="1" height="360" fill="#000000"/>
<rect x="479" width="1" height="360" fill="#000000"/>
<rect width="480" height="1" fill="#000000"/>
<rect y="359" width="480" height="1" fill="#000000"/>
<g transform="translate(0.000000,360.000000) scale(0.100000,-0.100000)"
fill="#000000" stroke="none">
<path d="M0 1800 l0 -1800 940 0 940 0 12 27 c6 16 29 65 49 111 37 80 38 86
32 162 -5 67 -9 82 -28 94 -28 19 -37 60 -23 109 10 32 9 43 -6 68 -22 37 -46
130 -46 177 0 20 7 58 15 84 13 46 13 49 -15 105 -26 50 -30 69 -30 142 0 75
-2 82 -17 76 -97 -39 -103 -40 -131 -24 -24 14 -27 21 -24 60 5 72 52 138 162
226 89 72 89 72 140 147 72 107 96 131 163 164 79 39 156 56 219 49 l48 -6 0
914 0 915 -1200 0 -1200 0 0 -1800z"/>
<path d="M2400 881 l0 -881 260 0 c255 0 260 0 250 19 -10 19 -13 631 -3 631
2 0 13 -5 23 -10 24 -13 50 21 50 65 -1 31 -28 137 -51 192 -11 27 -11 35 2
50 27 33 39 73 39 135 0 52 2 59 15 48 27 -23 86 -30 117 -14 23 12 28 21 28
50 0 73 -86 192 -203 279 -34 26 -68 59 -76 73 -19 38 -46 66 -126 132 -94 76
-104 81 -204 90 -47 4 -94 11 -103 15 -17 7 -18 -39 -18 -874z m584 408 c53
-57 66 -79 47 -79 -13 0 -82 49 -102 73 -19 23 -26 67 -10 67 5 0 34 -27 65
-61z"/>
<path d="M1804 1293 c-45 -42 -55 -57 -42 -60 20 -5 67 18 89 43 17 20 31 74
19 74 -4 0 -33 -26 -66 -57z"/>
<path d="M2003 342 c0 -34 4 -59 9 -54 5 5 4 33 -1 63 l-9 54 1 -63z"/>
</g>
</svg>
