<?xml version="1.0" standalone="no"?>
<!DOCTYPE svg PUBLIC "-//W3C//DTD SVG 20010904//EN"
 "http://www.w3.org/TR/2001/REC-SVG-20010904/DTD/svg10.dtd">
<svg version="1.0" xmlns="http://www.w3.org/2000/svg"
 width="480.000000pt" height="360.000000pt" viewBox="0 0 480.000000 360.000000"
 preserveAspectRatio="xMidYMid meet">
<metadata>
Created by potrace 1.16, written by Peter Selinger 2001-2019
</metadata>
<rect width="1" height="360" fill="#000000"/>
<rect x="479" width="1" height="360" fill="#000000"/>
<rect width="480" height="1" fill="#000000"/>
<rect y="359" width="480" height="1" fill="#000000"/>
<g transform="translate(0.000000,360.000000) scale(0.100000,-0.100000)"
fill="#000000" stroke="none">
<path d="M0 1800 l0 -1800 244 0 244 0 6 83 c12 151 -5 212 -141 484 -180 361
-232 549 -264 948 -28 359 9 698 122 1097 l30 108 -36 31 c-68 60 -30 114 75
105 110 -9 521 -150 574 -196 32 -29 191 -78 655 -204 187 -51 205 -54 216
-39 7 9 34 78 60 152 51 144 81 211 125 276 15 22 39 59 55 83 35 53 82 83
137 87 50 4 70 10 119 41 55 34 164 64 234 64 53 0 75 -6 137 -37 71 -36 226
-149 227 -166 1 -5 -3 -6 -7 -3 -17 10 -34 -11 -25 -30 15 -29 9 -99 -10 -118
-9 -10 -17 -23 -17 -31 0 -7 -9 -15 -21 -18 -29 -8 -20 -29 20 -47 26 -11 31
-18 25 -35 -3 -11 -7 -33 -8 -50 -6 -104 -19 -150 -49 -177 -24 -22 -33 -25
-49 -17 -23 13 -37 4 -20 -13 18 -18 14 -30 -8 -23 -30 10 -25 -13 12 -47 41
-38 73 -54 127 -62 60 -9 99 -31 149 -84 l42 -45 148 -29 c361 -69 505 -91
523 -79 25 15 44 14 59 -4 17 -21 25 -19 38 10 14 30 47 33 64 6 9 -15 15 -17
30 -8 14 9 23 9 38 -1 11 -6 27 -12 35 -12 9 0 21 -12 27 -26 12 -25 12 -25
20 -4 10 27 39 23 53 -8 5 -12 17 -24 25 -27 40 -12 675 -95 733 -95 l27 0 0
880 0 880 -2400 0 -2400 0 0 -1800z"/>
<path d="M739 2513 c-63 -165 -144 -450 -164 -578 -25 -158 -37 -457 -26 -625
17 -241 47 -351 203 -743 54 -137 78 -211 78 -240 0 -24 -20 -102 -45 -177
-25 -74 -45 -138 -45 -142 0 -4 181 -8 403 -8 l402 0 79 92 c81 96 171 195
437 479 86 92 178 198 205 236 26 37 74 105 106 151 53 75 58 86 52 121 -5 34
-17 46 -102 112 -217 167 -254 217 -232 314 13 56 27 85 92 187 48 75 49 78
37 116 -12 41 -8 58 31 119 16 25 14 30 -14 35 -14 2 -22 -5 -29 -27 -13 -39
-16 -42 -28 -25 -8 11 -12 12 -16 3 -8 -22 -25 -14 -18 9 6 16 4 20 -8 15 -11
-4 -17 1 -20 16 l-4 22 -8 -22 c-11 -34 -25 -28 -25 12 0 43 -18 46 -27 5 -3
-17 -10 -33 -16 -37 -7 -4 -8 0 -3 12 4 10 2 21 -5 25 -7 5 -8 13 -1 26 14 27
24 94 15 94 -5 0 -24 -26 -43 -57 -28 -46 -36 -53 -38 -36 -2 11 9 49 23 83
26 61 27 86 3 62 -7 -7 -19 -12 -27 -12 -12 0 -11 3 2 18 27 30 20 38 -10 11
-20 -18 -25 -20 -20 -6 4 9 2 17 -3 17 -6 0 -10 7 -10 15 0 8 -5 15 -11 15 -7
0 -9 10 -7 25 5 22 1 26 -35 36 -57 15 -131 19 -166 9 -27 -7 -30 -6 -28 12 1
11 -5 24 -13 29 -8 4 -114 36 -235 69 -121 34 -287 82 -370 107 -110 33 -171
46 -228 49 -76 3 -78 2 -88 -23z"/>
<path d="M2981 1978 c0 -21 15 -55 39 -93 92 -142 92 -142 99 -225 4 -43 10
-82 13 -85 4 -4 85 18 180 48 95 31 214 69 263 84 l90 29 -3 58 c-1 32 -6 66
-11 74 -6 11 -63 25 -192 49 -219 40 -437 82 -461 89 -15 4 -18 -1 -17 -28z"/>
<path d="M3985 1767 c-36 -66 -115 -151 -180 -192 -52 -33 -275 -131 -479
-210 -136 -53 -186 -57 -261 -22 l-50 24 -2 -46 c-1 -25 -5 -83 -8 -129 l-7
-83 46 -49 c47 -50 55 -76 35 -108 -16 -25 42 -135 123 -234 72 -88 162 -232
162 -262 1 -24 -31 -29 -77 -14 -15 6 -30 8 -33 6 -2 -3 6 -50 19 -104 14 -54
35 -154 47 -222 l23 -122 728 0 729 0 0 829 0 829 -72 16 c-40 9 -208 44 -373
77 -165 32 -309 61 -321 64 -17 4 -26 -5 -49 -48z"/>
<path d="M2318 1526 l-37 -42 54 -54 c30 -30 57 -52 60 -49 18 18 -9 180 -31
185 -5 1 -26 -17 -46 -40z"/>
</g>
</svg>
