<?xml version="1.0" standalone="no"?>
<!DOCTYPE svg PUBLIC "-//W3C//DTD SVG 20010904//EN"
 "http://www.w3.org/TR/2001/REC-SVG-20010904/DTD/svg10.dtd">
<svg version="1.0" xmlns="http://www.w3.org/2000/svg"
 width="480.000000pt" height="360.000000pt" viewBox="0 0 480.000000 360.000000"
 preserveAspectRatio="xMidYMid meet">
<metadata>
Created by potrace 1.16, written by Peter Selinger 2001-2019
</metadata>
<rect width="1" height="360" fill="#000000"/>
<rect x="479" width="1" height="360" fill="#000000"/>
<rect width="480" height="1" fill="#000000"/>
<rect y="359" width="480" height="1" fill="#000000"/>
<g transform="translate(0.000000,360.000000) scale(0.100000,-0.100000)"
fill="#000000" stroke="none">
<path d="M1310 3595 c0 -20 86 -190 106 -210 14 -14 39 -56 56 -92 28 -63 30
-73 29 -187 -1 -70 -6 -123 -12 -127 -6 -3 -21 -4 -33 -2 -28 6 -41 -19 -25
-49 7 -13 9 -57 5 -127 -3 -58 -11 -200 -17 -316 -8 -166 -14 -214 -26 -228
-21 -22 -14 -28 40 -34 l45 -5 1 -102 c1 -55 6 -152 12 -214 l10 -112 -35 -58
c-20 -31 -45 -84 -57 -117 -22 -64 -49 -208 -49 -264 0 -23 -10 -45 -32 -71
-55 -64 -91 -129 -80 -143 11 -13 2 -22 -172 -179 -80 -72 -99 -117 -101 -239
-1 -88 -3 -99 -27 -128 -33 -39 -44 -71 -28 -81 9 -5 2 -19 -22 -46 -42 -46
-58 -75 -58 -103 0 -11 -8 -27 -17 -37 -11 -11 -17 -31 -17 -55 1 -29 -6 -46
-28 -71 -22 -25 -27 -38 -23 -60 5 -19 0 -36 -14 -57 -11 -15 -25 -40 -31 -55
l-10 -26 1604 0 1603 0 7 73 c4 39 10 81 13 92 6 19 6 18 14 -4 5 -12 12 -54
15 -92 l7 -69 419 0 419 0 -4 113 c-3 82 -10 131 -28 185 l-23 73 27 82 c26
76 28 94 27 239 l0 157 -45 7 c-25 3 -89 3 -143 -2 -53 -5 -103 -9 -111 -9
-28 0 -118 346 -156 595 -49 329 -76 385 -247 512 -64 48 -67 52 -78 107 -6
31 -17 85 -26 121 -9 36 -18 106 -20 155 l-5 90 20 -44 c12 -24 21 -50 21 -57
0 -8 7 -17 15 -21 9 -3 29 -31 46 -62 16 -31 28 -49 25 -41 -3 8 -25 78 -50
155 -38 117 -127 457 -126 482 0 5 6 -1 12 -12 43 -76 121 -196 124 -192 3 2
-11 61 -31 130 -33 118 -96 407 -110 508 -5 31 -2 65 9 100 8 30 18 66 21 80
3 19 13 29 32 34 17 4 29 2 31 -4 5 -15 55 -14 70 1 8 8 15 8 26 -1 12 -10 21
-3 50 41 20 29 36 58 36 65 0 10 -287 13 -1440 13 -792 0 -1440 -2 -1440 -5z
m193 -282 c9 -40 -10 -34 -22 6 -6 21 -11 42 -11 47 0 14 26 -29 33 -53z m297
-477 c0 -7 27 -57 60 -112 33 -54 60 -109 60 -121 0 -11 -11 -63 -24 -115 -14
-51 -24 -105 -24 -120 0 -14 -13 -55 -30 -90 -44 -91 -53 -116 -42 -123 18
-11 10 -34 -25 -69 -19 -20 -36 -42 -36 -51 -2 -24 -4 -29 -14 -46 -10 -15
-77 -69 -87 -69 -5 0 18 207 27 246 5 25 53 38 73 22 21 -18 24 -2 7 37 -13
32 -14 54 -5 144 5 58 14 171 20 251 13 191 20 241 31 234 5 -3 9 -11 9 -18z
m2066 -705 c27 -59 28 -58 -53 -25 l-33 14 21 41 c24 48 30 45 65 -30z"/>
</g>
</svg>
