<?xml version="1.0" standalone="no"?>
<!DOCTYPE svg PUBLIC "-//W3C//DTD SVG 20010904//EN"
 "http://www.w3.org/TR/2001/REC-SVG-20010904/DTD/svg10.dtd">
<svg version="1.0" xmlns="http://www.w3.org/2000/svg"
 width="480.000000pt" height="360.000000pt" viewBox="0 0 480.000000 360.000000"
 preserveAspectRatio="xMidYMid meet">
<metadata>
Created by potrace 1.16, written by Peter Selinger 2001-2019
</metadata>
<rect width="1" height="360" fill="#000000"/>
<rect x="479" width="1" height="360" fill="#000000"/>
<rect width="480" height="1" fill="#000000"/>
<rect y="359" width="480" height="1" fill="#000000"/>
<g transform="translate(0.000000,360.000000) scale(0.100000,-0.100000)"
fill="#000000" stroke="none">
<path d="M0 1800 l0 -1800 65 0 65 0 0 1800 0 1800 -65 0 -65 0 0 -1800z"/>
<path d="M2135 3518 c11 -142 25 -247 46 -347 33 -156 36 -297 9 -421 -27
-125 -24 -208 11 -269 l23 -41 -22 -15 c-11 -9 -56 -64 -99 -123 -112 -155
-152 -202 -202 -234 -54 -34 -66 -35 -94 -5 -26 26 -87 51 -87 35 0 -6 -7 -8
-15 -4 -8 3 -15 0 -15 -5 0 -7 -10 -4 -25 5 -14 9 -25 12 -25 6 0 -5 -6 -10
-14 -10 -8 0 -18 -9 -21 -20 -5 -16 -10 -18 -25 -10 -10 6 -21 10 -24 10 -14
0 -4 -39 15 -64 l21 -26 -28 10 c-40 16 -57 -5 -26 -31 49 -39 148 -61 315
-69 143 -7 162 -10 189 -30 30 -22 31 -22 45 -4 7 10 20 27 29 38 9 10 32 43
51 75 51 81 191 239 230 259 36 20 50 14 72 -28 22 -42 28 -75 11 -65 -5 3
-25 -1 -44 -9 -36 -15 -67 -62 -80 -122 -5 -23 -15 -33 -41 -43 -19 -7 -40
-21 -46 -33 -7 -13 -17 -18 -30 -15 -12 3 -31 -4 -47 -17 -15 -13 -52 -34 -82
-48 -52 -24 -130 -86 -130 -104 0 -4 -11 -19 -24 -33 -47 -51 -53 -173 -10
-216 26 -26 55 -26 174 -1 107 22 117 23 145 8 19 -10 59 -16 107 -17 l77 -2
39 -49 c55 -70 137 -141 191 -165 67 -30 183 -37 256 -14 71 23 94 54 140 192
43 130 55 153 111 202 26 23 44 44 41 48 -12 12 -121 -19 -189 -53 l-68 -34
-6 27 c-3 16 -13 55 -21 88 -14 56 -14 61 4 73 10 7 61 40 113 74 253 165 321
235 260 268 -11 6 -20 18 -20 28 0 22 -50 44 -106 46 -24 0 -44 4 -44 8 0 9
-62 -2 -74 -13 -6 -5 -19 -9 -29 -9 -17 0 -18 5 -13 35 11 58 72 178 108 211
18 17 62 49 98 72 67 43 158 127 148 137 -3 4 -24 -3 -47 -14 -22 -12 -42 -21
-45 -21 -14 0 14 43 80 126 85 107 128 195 149 306 8 44 15 82 15 84 0 2 -8 4
-18 4 -11 0 -26 -15 -37 -37 -16 -33 -19 -35 -23 -16 -2 12 6 40 17 62 12 22
21 43 21 46 0 16 -30 0 -68 -37 -46 -46 -46 -39 1 50 32 60 29 77 -7 43 -16
-15 -25 -19 -28 -10 -3 9 -14 6 -35 -11 -29 -21 -33 -22 -48 -6 -21 21 -24 20
-53 -6 -18 -17 -26 -19 -29 -10 -4 10 -9 9 -24 -4 -18 -16 -19 -15 -29 12 -6
16 -16 35 -23 42 -9 12 -12 11 -18 -5 -4 -10 -8 -33 -8 -50 -1 -22 -6 -33 -15
-33 -8 0 -32 -21 -55 -46 -25 -28 -45 -43 -52 -38 -7 4 -9 3 -5 -4 3 -6 -1
-15 -9 -20 -9 -5 -25 -22 -36 -38 -23 -35 -24 -22 -4 37 9 24 23 76 32 114 8
39 20 78 25 88 5 10 5 24 0 32 -10 18 -36 -12 -119 -135 -28 -42 -60 -87 -72
-100 -11 -14 -29 -36 -40 -50 -16 -21 -15 -11 10 85 48 182 40 180 -47 -12
-32 -73 -61 -133 -64 -133 -3 0 -29 14 -57 30 -75 43 -70 77 28 205 30 39 69
93 86 120 32 50 143 273 143 288 0 4 -169 7 -376 7 l-376 0 7 -82z m1155 -313
c-7 -8 -17 -15 -23 -15 -5 0 -2 9 8 20 21 23 35 19 15 -5z m-175 -72 c-6 -27
-44 -77 -52 -69 -4 4 49 96 56 96 2 0 0 -12 -4 -27z"/>
<path d="M4670 1800 l0 -1800 65 0 65 0 0 1800 0 1800 -65 0 -65 0 0 -1800z"/>
</g>
</svg>
