<?xml version="1.0" standalone="no"?>
<!DOCTYPE svg PUBLIC "-//W3C//DTD SVG 20010904//EN"
 "http://www.w3.org/TR/2001/REC-SVG-20010904/DTD/svg10.dtd">
<svg version="1.0" xmlns="http://www.w3.org/2000/svg"
 width="480.000000pt" height="360.000000pt" viewBox="0 0 480.000000 360.000000"
 preserveAspectRatio="xMidYMid meet">
<metadata>
Created by potrace 1.16, written by Peter Selinger 2001-2019
</metadata>
<rect width="1" height="360" fill="#000000"/>
<rect x="479" width="1" height="360" fill="#000000"/>
<rect width="480" height="1" fill="#000000"/>
<rect y="359" width="480" height="1" fill="#000000"/>
<g transform="translate(0.000000,360.000000) scale(0.100000,-0.100000)"
fill="#000000" stroke="none">
<path d="M0 1800 l0 -1800 400 0 400 0 0 1800 0 1800 -400 0 -400 0 0 -1800z"/>
<path d="M2034 3532 c49 -98 101 -228 132 -335 14 -51 44 -136 65 -189 l39
-98 -5 -197 c-3 -109 -5 -208 -5 -220 0 -21 -4 -23 -47 -21 -27 1 -154 -3
-283 -9 -150 -8 -253 -8 -284 -2 -53 10 -66 3 -66 -34 0 -10 -14 -30 -30 -44
-47 -39 -89 -133 -60 -133 5 0 14 9 20 20 6 11 16 20 22 20 16 0 1 -78 -23
-118 -23 -39 -23 -42 -6 -42 21 0 137 126 137 148 0 12 8 23 18 26 22 6 287
10 500 8 l162 -2 0 -76 c0 -73 -1 -77 -34 -110 -38 -38 -35 -37 -193 -35 -97
1 -112 -1 -107 -14 4 -8 1 -15 -6 -15 -6 0 -8 -4 -5 -10 3 -5 -1 -10 -9 -10
-43 0 19 -36 121 -71 29 -9 32 -14 26 -40 -11 -57 45 -99 134 -99 37 0 40 -4
83 -122 17 -45 47 -105 68 -133 l38 -50 69 0 c67 0 70 1 91 32 12 17 24 57 28
88 7 62 58 231 78 258 8 10 47 27 93 38 109 28 255 80 255 90 0 5 -10 9 -22 9
-17 0 -19 3 -10 9 11 6 10 10 -3 15 -14 5 -15 9 -5 21 10 12 -7 14 -124 12
-99 -1 -136 1 -136 10 0 18 67 214 77 223 18 18 529 48 549 33 6 -4 25 -35 42
-68 42 -84 79 -117 120 -109 35 7 39 13 20 32 -9 9 -9 12 3 12 10 1 10 4 -4
14 -10 8 -17 18 -16 23 1 4 -6 10 -17 12 -30 5 -44 22 -38 45 2 11 -2 50 -10
86 -8 36 -17 78 -20 94 -10 55 -26 62 -103 44 -93 -23 -426 -45 -431 -30 -2 7
-14 9 -28 6 l-25 -6 22 53 c37 93 39 100 39 112 0 7 -9 1 -19 -12 -18 -24 -18
-23 -25 77 -4 56 -5 112 -1 124 6 22 6 22 -9 4 -9 -11 -16 -23 -16 -27 0 -4
-9 -9 -19 -12 -15 -4 -21 2 -26 24 -7 30 -41 79 -55 79 -5 0 -7 -6 -4 -13 2
-7 -4 -22 -16 -32 -11 -10 -20 -14 -20 -9 0 5 -9 -2 -20 -16 -17 -22 -20 -23
-20 -6 0 18 -2 18 -24 -3 -14 -13 -29 -20 -35 -16 -21 12 -10 51 35 120 25 39
59 99 75 135 95 203 147 298 207 376 37 48 73 95 81 105 13 19 0 19 -503 19
l-516 0 34 -68z m197 -1620 c-7 -2 -18 1 -23 6 -8 8 -4 9 13 5 13 -4 18 -8 10
-11z"/>
<path d="M4000 1800 l0 -1800 400 0 400 0 0 1800 0 1800 -400 0 -400 0 0
-1800z"/>
</g>
</svg>
