<?xml version="1.0" standalone="no"?>
<!DOCTYPE svg PUBLIC "-//W3C//DTD SVG 20010904//EN"
 "http://www.w3.org/TR/2001/REC-SVG-20010904/DTD/svg10.dtd">
<svg version="1.0" xmlns="http://www.w3.org/2000/svg"
 width="480.000000pt" height="360.000000pt" viewBox="0 0 480.000000 360.000000"
 preserveAspectRatio="xMidYMid meet">
<metadata>
Created by potrace 1.16, written by Peter Selinger 2001-2019
</metadata>
<rect width="1" height="360" fill="#000000"/>
<rect x="479" width="1" height="360" fill="#000000"/>
<rect width="480" height="1" fill="#000000"/>
<rect y="359" width="480" height="1" fill="#000000"/>
<g transform="translate(0.000000,360.000000) scale(0.100000,-0.100000)"
fill="#000000" stroke="none">
<path d="M0 1800 l0 -1800 997 0 997 0 -67 68 c-69 70 -78 86 -52 96 8 3 15 9
15 13 0 4 -38 53 -85 108 -47 55 -85 105 -85 111 0 6 7 17 15 24 12 10 6 25
-44 98 -32 48 -65 101 -75 119 -14 29 -14 33 0 41 13 7 6 27 -47 135 -49 99
-59 129 -50 140 9 11 2 41 -29 136 -24 70 -39 130 -35 141 3 11 -3 66 -15 122
-40 194 -46 668 -10 848 10 52 16 107 13 121 -3 16 10 74 31 144 26 85 33 121
25 131 -7 9 4 43 41 126 39 88 49 121 44 145 -5 25 5 48 59 139 60 100 65 110
50 126 -14 16 -9 26 66 124 55 73 78 111 71 118 -22 22 -6 51 76 136 l87 90
-997 0 -996 0 0 -1800z"/>
<path d="M2190 3593 c0 -4 31 -39 69 -78 38 -38 118 -125 178 -192 59 -66 191
-212 293 -323 180 -196 298 -326 584 -641 77 -85 162 -178 189 -207 l50 -54
103 21 c120 24 148 36 169 68 9 12 22 23 30 23 9 0 24 5 34 12 16 10 26 8 55
-7 33 -18 41 -18 123 -6 48 8 111 17 138 21 28 4 173 5 323 2 l272 -5 0 686 0
687 -1305 0 c-718 0 -1305 -3 -1305 -7z"/>
<path d="M4430 1621 c-69 -61 -203 -157 -255 -183 -22 -11 -59 -38 -82 -59
-24 -22 -48 -40 -55 -40 -7 -1 -18 -2 -25 -3 -6 0 -20 -13 -32 -27 -16 -21
-35 -29 -84 -38 -129 -22 -179 -9 -192 49 -8 35 -17 38 -120 42 l-80 3 -453
-679 c-248 -374 -452 -681 -452 -683 0 -1 495 -3 1100 -3 l1100 0 0 835 0 835
-157 0 -158 0 -55 -49z"/>
</g>
</svg>
