<?xml version="1.0" standalone="no"?>
<!DOCTYPE svg PUBLIC "-//W3C//DTD SVG 20010904//EN"
 "http://www.w3.org/TR/2001/REC-SVG-20010904/DTD/svg10.dtd">
<svg version="1.0" xmlns="http://www.w3.org/2000/svg"
 width="480.000000pt" height="360.000000pt" viewBox="0 0 480.000000 360.000000"
 preserveAspectRatio="xMidYMid meet">
<metadata>
Created by potrace 1.16, written by Peter Selinger 2001-2019
</metadata>
<rect width="1" height="360" fill="#000000"/>
<rect x="479" width="1" height="360" fill="#000000"/>
<rect width="480" height="1" fill="#000000"/>
<rect y="359" width="480" height="1" fill="#000000"/>
<g transform="translate(0.000000,360.000000) scale(0.100000,-0.100000)"
fill="#000000" stroke="none">
<path d="M3185 3552 c-59 -48 -112 -108 -149 -167 -11 -16 -25 -34 -33 -38 -7
-4 -13 -17 -13 -28 0 -10 -9 -52 -21 -92 -12 -41 -23 -118 -26 -180 -8 -150
-4 -145 -229 -247 -33 -15 -80 -40 -103 -54 -40 -26 -43 -26 -90 -12 -43 12
-52 12 -70 0 -45 -32 -68 -214 -37 -289 13 -29 20 -35 46 -35 17 0 47 7 67 15
19 8 42 15 49 15 21 0 47 -59 40 -92 l-6 -29 53 6 c52 7 54 6 85 -29 18 -20
43 -58 56 -84 35 -69 49 -78 92 -63 34 12 54 9 54 -10 0 -6 9 -29 19 -52 15
-33 21 -76 26 -192 4 -83 8 -175 9 -205 9 -190 -28 -520 -86 -765 -29 -122
-33 -132 -70 -167 -82 -76 -104 -85 -215 -92 -98 -6 -103 -5 -118 16 -19 27
-207 320 -276 431 l-49 79 35 58 c62 102 88 255 77 450 -2 29 61 201 128 350
66 146 67 156 31 175 -71 36 -90 16 -199 -208 -44 -90 -93 -185 -109 -210
l-29 -47 -52 40 c-84 63 -160 64 -187 2 -8 -17 -16 -21 -33 -17 -26 6 -112
-28 -112 -44 0 -6 -6 -11 -14 -11 -30 0 -116 -124 -116 -168 0 -22 27 -48 55
-54 18 -3 21 -14 28 -123 10 -148 30 -282 55 -355 10 -31 57 -114 104 -185
100 -153 177 -281 276 -461 l72 -131 -34 -74 c-19 -41 -44 -98 -55 -127 l-21
-52 1355 0 1355 0 0 1800 0 1800 -778 0 -777 0 -60 -48z m293 -2067 l42 -28
-6 -56 c-4 -31 -13 -66 -20 -78 -8 -13 -23 -66 -34 -120 -11 -53 -25 -102 -31
-110 -6 -7 -24 -13 -39 -13 l-28 0 -6 130 c-3 72 -9 190 -12 263 l-6 132 49
-46 c27 -25 68 -59 91 -74z"/>
</g>
</svg>
