<?xml version="1.0" standalone="no"?>
<!DOCTYPE svg PUBLIC "-//W3C//DTD SVG 20010904//EN"
 "http://www.w3.org/TR/2001/REC-SVG-20010904/DTD/svg10.dtd">
<svg version="1.0" xmlns="http://www.w3.org/2000/svg"
 width="480.000000pt" height="360.000000pt" viewBox="0 0 480.000000 360.000000"
 preserveAspectRatio="xMidYMid meet">
<metadata>
Created by potrace 1.16, written by Peter Selinger 2001-2019
</metadata>
<rect width="1" height="360" fill="#000000"/>
<rect x="479" width="1" height="360" fill="#000000"/>
<rect width="480" height="1" fill="#000000"/>
<rect y="359" width="480" height="1" fill="#000000"/>
<g transform="translate(0.000000,360.000000) scale(0.100000,-0.100000)"
fill="#000000" stroke="none">
<path d="M342 3588 c-19 -19 -15 -218 7 -339 10 -57 22 -140 25 -184 4 -44 12
-118 18 -166 10 -74 9 -94 -7 -153 -11 -41 -31 -84 -52 -109 -18 -23 -33 -48
-33 -55 0 -7 -5 -21 -11 -31 -15 -23 -6 -60 21 -89 30 -32 46 -28 72 18 34 59
36 57 58 -53 17 -85 8 -111 -43 -126 -23 -7 -53 -19 -65 -28 -13 -8 -26 -12
-29 -9 -11 11 -60 -27 -70 -54 -13 -35 -4 -40 75 -40 74 0 102 -8 102 -29 0
-28 20 -39 59 -34 35 5 39 2 99 -66 54 -60 68 -71 96 -71 57 0 66 15 72 115 3
65 9 93 20 102 14 10 14 14 0 35 -15 24 -15 24 47 61 78 46 137 97 119 104 -7
2 -19 11 -26 19 -14 13 -36 13 -103 -2 -32 -6 -33 -6 -24 22 5 16 12 41 15 55
3 14 19 43 36 64 30 38 39 62 18 49 -13 -8 -4 9 21 41 10 13 11 16 1 8 -28
-26 -28 -12 1 51 36 77 42 122 16 120 -15 -2 -16 4 -11 32 5 28 3 34 -10 34
-10 0 -15 4 -12 8 8 13 -57 11 -73 -2 -12 -9 -13 -8 -8 6 4 12 2 15 -7 12 -8
-3 -17 -1 -21 5 -10 17 -25 13 -19 -4 6 -16 -12 -45 -27 -45 -5 0 -9 17 -9 38
0 25 12 59 40 105 50 86 64 104 165 208 93 97 158 188 154 216 -2 10 1 28 5
41 11 33 -19 64 -59 61 -17 -2 -37 1 -45 6 -8 5 -39 12 -69 16 -30 4 -67 17
-82 28 -26 20 -42 21 -232 21 -144 0 -206 -3 -215 -12z"/>
<path d="M2400 1800 l0 -1800 834 0 835 0 21 57 c33 88 50 171 50 248 0 39 5
99 11 135 5 36 13 82 16 103 4 28 1 42 -12 57 -17 18 -19 18 -82 -31 -35 -27
-68 -49 -73 -49 -5 0 -14 8 -19 19 -13 23 -30 159 -23 183 7 27 -5 22 -23 -9
l-15 -28 6 30 c3 17 8 37 10 45 2 8 -3 23 -10 33 -12 16 -16 16 -42 3 -15 -9
-47 -15 -70 -14 -23 0 -48 -3 -55 -7 -9 -6 -11 -4 -6 8 4 12 2 14 -11 10 -14
-5 -15 -3 -4 8 13 14 16 40 5 38 -32 -5 -33 3 -8 36 14 20 40 65 56 100 16 36
33 65 37 65 23 0 179 115 194 143 23 43 22 57 -3 57 -19 0 -18 3 10 37 28 34
30 39 16 60 -24 36 -19 76 13 99 38 28 126 64 156 64 14 0 28 5 31 10 8 12 80
50 95 50 6 0 18 -17 27 -37 12 -31 13 -44 3 -70 -10 -29 -9 -37 9 -62 26 -36
27 -83 2 -105 -11 -10 -22 -30 -26 -44 -3 -15 -16 -37 -28 -50 l-21 -23 67
-67 c84 -83 87 -87 87 -142 1 -82 20 -112 50 -76 9 12 7 18 -9 33 -27 22 -27
39 0 54 28 15 71 -16 80 -57 3 -16 11 -39 17 -51 7 -12 12 -48 12 -81 0 -73
-28 -117 -123 -191 l-64 -51 8 -47 c4 -27 28 -111 54 -188 35 -104 48 -161 52
-222 l6 -83 128 0 129 0 0 1800 0 1800 -1200 0 -1200 0 0 -1800z"/>
</g>
</svg>
