<?xml version="1.0" standalone="no"?>
<!DOCTYPE svg PUBLIC "-//W3C//DTD SVG 20010904//EN"
 "http://www.w3.org/TR/2001/REC-SVG-20010904/DTD/svg10.dtd">
<svg version="1.0" xmlns="http://www.w3.org/2000/svg"
 width="480.000000pt" height="360.000000pt" viewBox="0 0 480.000000 360.000000"
 preserveAspectRatio="xMidYMid meet">
<metadata>
Created by potrace 1.16, written by Peter Selinger 2001-2019
</metadata>
<rect width="1" height="360" fill="#000000"/>
<rect x="479" width="1" height="360" fill="#000000"/>
<rect width="480" height="1" fill="#000000"/>
<rect y="359" width="480" height="1" fill="#000000"/>
<g transform="translate(0.000000,360.000000) scale(0.100000,-0.100000)"
fill="#000000" stroke="none">
<path d="M1411 3583 c99 -130 158 -193 178 -193 8 0 23 8 33 17 16 14 21 15
28 3 5 -8 4 -22 -2 -33 -7 -13 -7 -22 1 -30 8 -8 11 -8 11 1 0 7 5 12 10 12 6
0 10 -6 10 -14 0 -17 -113 -123 -147 -139 -60 -27 7 -59 81 -38 20 5 38 6 40
3 2 -4 -2 -47 -10 -97 -7 -49 -11 -92 -7 -95 3 -3 22 15 43 39 l39 45 7 -30
c4 -16 15 -60 25 -98 19 -76 39 -108 39 -62 0 44 18 20 25 -34 7 -50 25 -79
25 -41 0 39 16 21 35 -36 20 -64 21 -63 30 21 4 32 10 54 15 50 4 -5 16 -44
25 -87 19 -86 35 -109 35 -48 0 22 5 43 10 46 6 3 10 -3 10 -14 0 -10 3 -27 7
-36 5 -15 8 -14 19 6 8 15 13 18 14 9 0 -13 1 -13 10 0 7 10 10 -9 10 -62 0
-43 4 -78 9 -78 4 0 16 21 26 48 22 58 21 58 40 42 9 -7 18 -10 21 -7 8 8 34
-18 34 -33 0 -7 -13 -10 -32 -8 -33 3 -33 3 -30 -37 9 -110 21 -95 -113 -140
-183 -62 -255 -99 -337 -173 -14 -13 -31 -21 -37 -18 -6 4 -34 46 -62 94 -28
48 -61 100 -72 116 -23 32 -1 32 -297 2 -99 -10 -160 -12 -230 -5 -182 19
-273 53 -491 185 -106 64 -469 254 -486 254 -2 0 -3 -45 -3 -100 l0 -100 48
-24 c46 -24 48 -26 44 -62 -3 -25 -14 -45 -31 -60 -21 -18 -31 -40 -44 -101
-22 -104 -21 -161 4 -220 11 -26 65 -163 119 -305 54 -141 106 -270 115 -287
15 -30 38 -40 49 -22 8 12 24 124 41 286 8 77 22 194 30 260 22 182 21 190
-30 286 -25 46 -56 94 -70 106 -26 22 -34 53 -14 53 25 0 149 -56 202 -92 103
-70 123 -91 121 -133 -2 -27 -10 -44 -33 -63 -24 -22 -36 -48 -61 -133 l-30
-107 60 -178 c33 -99 72 -215 87 -259 l28 -80 65 3 c82 3 94 16 109 119 7 43
23 154 37 247 l25 170 -38 89 c-23 54 -52 103 -73 124 l-35 36 205 -7 c303 -9
315 -14 233 -94 -42 -41 -53 -60 -83 -148 l-34 -101 23 -84 c27 -98 42 -152
66 -233 l18 -58 71 5 c39 3 118 11 176 16 155 16 661 48 1015 66 422 21 459
23 785 35 410 15 462 18 472 28 26 26 86 310 89 420 1 12 6 22 11 22 7 0 9
-21 6 -55 -3 -30 -2 -55 1 -55 11 0 81 117 81 136 0 10 11 42 24 71 l24 51 81
4 c45 2 81 1 81 -1 0 -2 -11 -12 -24 -22 -13 -10 -45 -62 -70 -115 l-47 -97
11 -91 c20 -154 39 -249 53 -263 18 -19 202 -6 228 16 17 14 32 52 100 244
l21 58 -27 107 c-22 89 -32 113 -60 142 -31 31 -34 40 -28 73 4 28 16 46 47
71 69 57 165 114 219 132 29 9 58 19 65 22 22 8 13 -35 -10 -50 -13 -9 -46
-58 -75 -110 -41 -75 -51 -103 -48 -129 2 -19 11 -110 20 -204 19 -215 35
-335 47 -357 6 -13 21 -18 53 -18 l45 0 27 57 c14 32 60 137 102 233 l75 175
4 153 3 153 -36 33 c-29 27 -35 39 -35 72 0 34 4 41 33 54 l32 15 3 102 3 102
-148 -70 c-81 -39 -222 -114 -313 -168 -198 -118 -215 -127 -299 -157 -101
-37 -97 -41 -74 80 l5 29 19 -24 19 -24 -6 60 c-10 108 -45 369 -55 414 -8 35
-7 47 4 58 12 12 12 22 0 66 -8 31 -12 83 -10 128 3 75 4 78 54 140 52 65 93
128 93 142 0 4 -606 7 -1346 7 -1281 0 -1346 -1 -1333 -17z m2087 -293 c1 -51
-6 -177 -18 -279 -11 -102 -20 -213 -20 -246 0 -59 22 -195 40 -247 5 -17 5
-30 -1 -33 -5 -3 -45 -1 -89 6 -58 9 -86 9 -103 2 -14 -7 -44 -46 -72 -95 -27
-46 -66 -109 -87 -141 l-39 -58 -73 68 c-75 70 -196 139 -286 163 -72 19 -130
50 -130 70 0 10 9 37 19 61 10 24 23 64 28 89 7 41 8 36 13 -55 5 -93 6 -98
18 -69 8 19 20 31 30 30 12 -1 30 24 58 77 l40 78 12 -78 c7 -43 18 -82 26
-88 7 -5 17 -32 23 -60 l9 -50 8 85 c12 146 21 155 26 30 l5 -115 13 70 c21
116 23 125 33 125 5 0 9 -8 9 -17 0 -15 2 -15 9 -4 7 11 13 12 23 3 12 -10 14
-3 14 38 -1 34 4 55 17 67 16 16 17 16 17 -15 0 -18 4 -32 8 -32 5 0 23 27 42
60 19 33 37 60 40 60 4 0 15 -18 25 -40 10 -22 26 -47 36 -56 17 -16 18 -12
16 92 l-2 109 73 -4 c83 -4 91 7 32 40 -35 20 -54 49 -32 49 5 0 6 27 4 60 -4
58 -3 61 60 167 35 59 72 125 82 146 28 60 41 42 44 -63z m-1344 -226 c9 -23
7 -36 -3 -30 -12 8 -21 46 -11 46 4 0 11 -7 14 -16z m62 -35 c13 -12 67 -43
120 -69 66 -33 91 -50 78 -53 -11 -3 -1 -6 21 -7 22 -1 49 -5 60 -10 36 -15
-66 -11 -130 5 -61 16 -153 64 -175 90 -26 31 -1 25 56 -14 33 -22 70 -42 84
-46 14 -3 1 7 -28 24 -28 16 -66 41 -83 55 -17 14 -35 26 -40 26 -5 0 -9 5 -9
10 0 17 22 11 46 -11z m-29 -361 c-2 -13 -4 -3 -4 22 0 25 2 35 4 23 2 -13 2
-33 0 -45z m435 -4 c3 -29 0 -39 -19 -51 -13 -9 -26 -13 -29 -10 -8 7 26 97
36 97 4 0 10 -16 12 -36z m813 -381 c16 -24 16 -27 2 -38 -9 -6 -35 -55 -58
-109 -23 -53 -45 -95 -48 -94 -28 14 -90 65 -88 74 3 16 156 194 166 194 5 0
17 -12 26 -27z m-1967 -83 c39 -47 72 -88 72 -91 0 -3 -16 -25 -36 -48 -44
-51 -46 -50 -94 64 -18 44 -39 87 -47 96 -16 19 -16 20 -3 54 13 34 22 29 108
-75z"/>
<path d="M2368 2913 c7 -3 16 -2 19 1 4 3 -2 6 -13 5 -11 0 -14 -3 -6 -6z"/>
<path d="M4042 1394 c2 -11 11 -20 22 -22 13 -3 17 1 14 14 -2 11 -11 20 -22
22 -13 3 -17 -1 -14 -14z"/>
<path d="M3350 1393 c-30 -1 -176 -7 -325 -13 -148 -6 -328 -13 -400 -15 -71
-3 -204 -10 -295 -15 -91 -5 -226 -12 -300 -15 -154 -6 -264 -12 -365 -20 -38
-3 -145 -9 -237 -14 -92 -5 -172 -12 -177 -15 -6 -4 -6 -19 0 -41 8 -29 6 -47
-11 -92 -28 -75 -85 -297 -105 -409 l-17 -91 -91 -46 c-51 -26 -162 -90 -247
-143 -341 -212 -487 -301 -539 -329 -53 -29 -54 -29 -68 -10 -62 87 -89 118
-128 145 l-45 31 0 -151 0 -150 453 0 452 0 157 93 c310 186 345 231 487 621
32 88 69 193 81 231 12 39 27 75 33 80 7 7 7 4 1 -10 -5 -11 -9 -153 -10 -315
-1 -384 -10 -645 -24 -669 -5 -11 -10 -22 -10 -25 0 -3 351 -6 780 -6 429 0
780 2 780 5 0 3 -9 23 -20 45 -22 43 -27 110 -9 110 13 0 12 14 -14 266 -11
104 -12 153 -2 247 6 64 14 119 17 122 3 3 24 -50 48 -117 52 -152 118 -294
167 -360 41 -56 143 -135 248 -193 39 -21 105 -57 147 -81 l77 -44 481 0 480
0 0 173 c-1 116 -4 167 -10 155 -6 -9 -33 -33 -61 -54 -31 -23 -62 -57 -81
-91 -17 -30 -37 -57 -44 -60 -16 -6 -139 59 -459 246 -137 79 -311 176 -385
214 -74 38 -136 71 -138 72 -2 2 -10 47 -18 101 -19 133 -66 320 -121 484 -43
130 -58 162 -72 158 -3 -1 -31 -3 -61 -5z"/>
<path d="M3475 1348 c8 -55 29 -108 44 -108 20 0 32 28 55 133 6 27 6 27 -50
27 l-56 0 7 -52z"/>
</g>
</svg>
