<?xml version="1.0" standalone="no"?>
<!DOCTYPE svg PUBLIC "-//W3C//DTD SVG 20010904//EN"
 "http://www.w3.org/TR/2001/REC-SVG-20010904/DTD/svg10.dtd">
<svg version="1.0" xmlns="http://www.w3.org/2000/svg"
 width="480.000000pt" height="360.000000pt" viewBox="0 0 480.000000 360.000000"
 preserveAspectRatio="xMidYMid meet">
<metadata>
Created by potrace 1.16, written by Peter Selinger 2001-2019
</metadata>
<rect width="1" height="360" fill="#000000"/>
<rect x="479" width="1" height="360" fill="#000000"/>
<rect width="480" height="1" fill="#000000"/>
<rect y="359" width="480" height="1" fill="#000000"/>
<g transform="translate(0.000000,360.000000) scale(0.100000,-0.100000)"
fill="#000000" stroke="none">
<path d="M0 1800 l0 -1800 903 0 902 0 23 33 c13 19 22 48 22 69 0 38 39 151
84 248 21 45 26 69 25 135 0 44 -5 103 -10 130 -6 28 -15 120 -21 205 -6 99
-15 161 -24 174 -12 18 -14 18 -20 3 -8 -21 -30 -22 -38 -1 -10 26 -7 56 13
120 15 51 16 64 5 79 -17 23 -10 51 31 135 18 36 37 81 44 101 6 20 27 54 46
77 29 33 35 48 35 86 0 44 2 47 30 52 l30 6 -79 84 c-104 110 -134 191 -96
265 15 28 15 30 -10 39 -14 5 -25 14 -25 20 0 17 43 60 60 60 8 0 26 7 39 17
22 15 22 17 7 29 -9 6 -25 10 -35 7 -10 -2 -36 5 -59 17 -46 24 -61 40 -39 40
8 0 20 14 26 30 12 36 14 36 50 9 34 -25 77 -19 66 9 -4 10 -15 66 -25 127
-15 88 -16 116 -7 144 7 19 17 36 23 38 6 2 33 -15 61 -37 28 -22 54 -40 58
-40 4 0 23 13 41 30 30 26 60 38 134 55 14 3 36 20 50 39 14 19 37 42 52 51
l28 16 0 450 0 449 -1200 0 -1200 0 0 -1800z"/>
<path d="M2400 1350 l0 -1350 306 0 306 0 -23 36 c-12 20 -23 55 -24 78 -1 22
-23 94 -49 158 l-47 117 4 113 c2 62 10 194 16 293 7 99 11 201 8 227 -2 27 0
48 4 48 5 0 18 -18 29 -40 11 -22 25 -40 30 -40 43 0 7 233 -58 378 -23 51
-42 96 -42 101 0 5 -14 24 -32 42 -26 28 -32 42 -33 78 0 40 -8 53 -43 67 -1
1 31 35 73 76 119 120 143 201 85 291 -16 26 -30 54 -30 61 0 8 -14 19 -30 26
-40 17 -44 25 -24 49 13 15 25 18 47 14 33 -7 47 7 47 50 0 30 -24 36 -62 16
-36 -19 -39 2 -16 138 24 142 20 205 -15 211 -9 2 -40 -16 -70 -41 l-52 -45
-40 34 c-21 19 -63 42 -93 50 -40 12 -66 28 -101 65 -26 27 -53 49 -59 49 -9
0 -12 -317 -12 -1350z m444 656 c86 -44 71 -138 -37 -228 -54 -45 -108 -78
-118 -73 -9 6 1 45 30 123 23 60 24 62 39 41 11 -16 16 -18 23 -8 6 11 11 11
21 1 20 -20 27 -14 18 18 -7 23 -5 30 6 30 18 0 18 3 -6 51 -12 22 -18 44 -15
49 8 13 8 13 39 -4z m-169 -284 c-9 -9 -25 19 -24 43 0 16 2 15 15 -8 9 -16
13 -32 9 -35z m-148 -4 c-3 -8 -6 -5 -6 6 -1 11 2 17 5 13 3 -3 4 -12 1 -19z
m66 -13 c9 -20 17 -38 17 -40 0 -3 -18 -5 -40 -5 -22 0 -40 3 -40 6 0 13 33
74 39 74 4 0 15 -16 24 -35z m232 -1203 c-13 -13 -23 22 -12 42 11 20 12 20
15 -7 2 -16 1 -32 -3 -35z"/>
<path d="M1967 1999 c-50 -50 -51 -97 -3 -160 34 -45 103 -106 144 -128 21
-11 22 -10 22 19 0 36 -14 66 -44 96 -12 11 -26 29 -33 40 -12 18 -13 18 -32
-6 l-21 -25 0 33 c0 20 -4 31 -10 27 -13 -8 -13 -2 6 55 9 27 14 57 12 67 -3
15 -9 13 -41 -18z"/>
<path d="M2157 1764 c-4 -4 -7 -17 -7 -28 1 -19 1 -20 11 -3 11 19 8 43 -4 31z"/>
<path d="M1990 551 c0 -60 10 -64 33 -17 12 26 13 37 4 44 -34 26 -37 24 -37
-27z"/>
</g>
</svg>
