<?xml version="1.0" standalone="no"?>
<!DOCTYPE svg PUBLIC "-//W3C//DTD SVG 20010904//EN"
 "http://www.w3.org/TR/2001/REC-SVG-20010904/DTD/svg10.dtd">
<svg version="1.0" xmlns="http://www.w3.org/2000/svg"
 width="480.000000pt" height="360.000000pt" viewBox="0 0 480.000000 360.000000"
 preserveAspectRatio="xMidYMid meet">
<metadata>
Created by potrace 1.16, written by Peter Selinger 2001-2019
</metadata>
<rect width="1" height="360" fill="#000000"/>
<rect x="479" width="1" height="360" fill="#000000"/>
<rect width="480" height="1" fill="#000000"/>
<rect y="359" width="480" height="1" fill="#000000"/>
<g transform="translate(0.000000,360.000000) scale(0.100000,-0.100000)"
fill="#000000" stroke="none">
<path d="M667 3276 c-3 -8 1 -20 9 -27 27 -22 7 -20 -44 6 -51 26 -72 31 -72
17 0 -10 142 -148 215 -208 33 -27 66 -54 73 -61 7 -7 65 -55 130 -107 418
-338 535 -433 686 -559 278 -234 388 -318 455 -348 35 -16 79 -43 98 -59 18
-17 45 -30 58 -30 14 0 54 -18 90 -40 74 -45 86 -49 59 -19 -10 11 -23 32 -29
45 -5 13 -37 45 -70 72 -33 26 -69 64 -80 85 -19 35 -119 124 -325 287 -137
109 -322 258 -484 389 -135 109 -387 307 -533 418 -207 158 -225 169 -236 139z"/>
</g>
</svg>
