<?xml version="1.0" standalone="no"?>
<!DOCTYPE svg PUBLIC "-//W3C//DTD SVG 20010904//EN"
 "http://www.w3.org/TR/2001/REC-SVG-20010904/DTD/svg10.dtd">
<svg version="1.0" xmlns="http://www.w3.org/2000/svg"
 width="480.000000pt" height="360.000000pt" viewBox="0 0 480.000000 360.000000"
 preserveAspectRatio="xMidYMid meet">
<metadata>
Created by potrace 1.16, written by Peter Selinger 2001-2019
</metadata>
<rect width="1" height="360" fill="#000000"/>
<rect x="479" width="1" height="360" fill="#000000"/>
<rect width="480" height="1" fill="#000000"/>
<rect y="359" width="480" height="1" fill="#000000"/>
<g transform="translate(0.000000,360.000000) scale(0.100000,-0.100000)"
fill="#000000" stroke="none">
<path d="M0 1800 l0 -1800 2400 0 2400 0 0 700 0 701 -37 32 c-59 52 -98 76
-144 86 -89 20 -267 51 -379 67 -69 9 -139 25 -175 41 -85 36 -132 51 -193 61
-70 12 -78 2 -63 -80 12 -72 2 -127 -30 -159 -25 -25 -38 -24 -90 5 -41 23
-46 31 -74 113 l-30 88 -95 -1 c-52 0 -129 -6 -171 -14 -63 -11 -82 -11 -108
-1 -33 14 -41 44 -21 80 8 16 3 19 -43 25 -29 3 -114 9 -190 13 l-139 6 4 -24
c2 -16 12 -26 35 -33 32 -9 50 -36 38 -56 -10 -17 -27 -12 -165 45 -73 30
-138 55 -146 55 -7 0 -17 -8 -23 -17 -9 -16 -12 -16 -37 7 l-27 25 5 -27 c6
-32 -7 -36 -41 -12 -14 10 -21 23 -18 35 5 19 -11 29 -49 29 -43 0 -92 27
-109 60 -11 22 -13 36 -7 42 11 11 155 6 337 -11 61 -5 196 -15 301 -21 l192
-11 43 46 c61 64 58 60 116 156 57 95 68 126 58 166 l-6 27 -22 -28 c-20 -25
-25 -26 -51 -16 l-29 11 7 94 c7 87 6 96 -11 101 -10 3 -33 12 -50 19 -61 27
-53 104 14 135 32 15 45 40 20 40 -7 0 -29 9 -50 20 -20 11 -43 20 -50 20 -7
0 -18 5 -25 12 -6 6 -20 13 -29 14 -10 1 -40 8 -68 15 -80 22 -94 60 -29 76
l34 8 -30 37 c-17 21 -28 42 -25 48 12 19 51 11 65 -15 7 -13 26 -29 42 -34
25 -9 35 -7 66 13 20 13 52 27 70 31 24 5 37 16 52 45 40 78 129 130 225 130
21 0 69 -15 113 -36 42 -20 98 -42 125 -50 52 -16 58 -27 26 -45 -21 -11 -80
-8 -156 7 l-33 6 0 -53 c0 -65 6 -75 45 -84 17 -4 72 -20 124 -37 77 -25 104
-30 154 -25 33 3 64 11 68 19 7 10 9 9 9 -4 0 -9 -4 -20 -10 -23 -17 -11 -11
-23 9 -18 32 8 32 -13 1 -36 -42 -31 -37 -39 20 -33 28 2 50 1 50 -4 0 -5 -25
-22 -55 -39 -30 -16 -55 -32 -55 -36 0 -11 -78 -39 -109 -39 -48 0 -42 -23 13
-52 l51 -27 -34 -1 c-26 0 -32 -3 -27 -16 5 -13 1 -15 -19 -12 -20 4 -23 3
-14 -8 15 -18 7 -18 -37 1 l-36 15 7 -33 c4 -17 13 -47 21 -65 l13 -32 58 30
c32 16 79 33 104 36 42 6 48 4 59 -16 12 -22 9 -73 -6 -127 l-6 -23 136 0 c75
0 136 -4 136 -8 0 -4 -5 -13 -12 -20 -9 -9 -9 -12 0 -13 7 -1 17 -2 23 -3 10
-1 48 -46 49 -58 0 -17 -168 -19 -260 -4 -63 11 -96 13 -98 6 -6 -16 -29 -12
-83 16 -71 35 -85 24 -17 -14 141 -81 239 -84 509 -16 168 42 198 46 341 51
l158 6 0 748 0 749 -2400 0 -2400 0 0 -1800z"/>
<path d="M3280 2499 c0 -5 5 -7 10 -4 6 3 10 8 10 11 0 2 -4 4 -10 4 -5 0 -10
-5 -10 -11z"/>
<path d="M3626 2405 c10 -8 24 -14 29 -14 6 0 1 6 -9 14 -11 8 -24 15 -30 15
-5 0 -1 -7 10 -15z"/>
<path d="M3395 2081 c-3 -11 -23 -42 -44 -69 -21 -26 -44 -59 -51 -72 l-13
-25 23 20 c78 67 123 136 102 157 -7 7 -12 4 -17 -11z"/>
<path d="M4776 1449 c20 -23 24 -23 24 -5 0 7 -9 16 -21 19 -20 5 -20 5 -3
-14z"/>
</g>
</svg>
