<?xml version="1.0" standalone="no"?>
<!DOCTYPE svg PUBLIC "-//W3C//DTD SVG 20010904//EN"
 "http://www.w3.org/TR/2001/REC-SVG-20010904/DTD/svg10.dtd">
<svg version="1.0" xmlns="http://www.w3.org/2000/svg"
 width="480.000000pt" height="360.000000pt" viewBox="0 0 480.000000 360.000000"
 preserveAspectRatio="xMidYMid meet">
<metadata>
Created by potrace 1.16, written by Peter Selinger 2001-2019
</metadata>
<rect width="1" height="360" fill="#000000"/>
<rect x="479" width="1" height="360" fill="#000000"/>
<rect width="480" height="1" fill="#000000"/>
<rect y="359" width="480" height="1" fill="#000000"/>
<g transform="translate(0.000000,360.000000) scale(0.100000,-0.100000)"
fill="#000000" stroke="none">
<path d="M2849 2783 c-34 -37 -51 -67 -78 -135 -24 -61 -36 -67 -83 -49 -13 5
-73 21 -135 36 -199 48 -314 29 -412 -67 -117 -115 -184 -295 -198 -528 -9
-167 35 -378 99 -475 70 -105 135 -149 237 -161 41 -4 75 -15 99 -32 91 -62
140 -77 252 -77 97 0 111 3 179 33 209 92 375 287 474 557 39 109 50 170 44
254 -11 162 -93 257 -294 340 -39 16 -98 35 -130 41 -32 7 -63 16 -69 21 -12
9 29 107 67 160 10 14 16 29 12 33 -3 3 1 6 10 6 23 0 22 33 -1 53 -26 24 -45
21 -73 -10z"/>
</g>
</svg>
