<?xml version="1.0" standalone="no"?>
<!DOCTYPE svg PUBLIC "-//W3C//DTD SVG 20010904//EN"
 "http://www.w3.org/TR/2001/REC-SVG-20010904/DTD/svg10.dtd">
<svg version="1.0" xmlns="http://www.w3.org/2000/svg"
 width="480.000000pt" height="360.000000pt" viewBox="0 0 480.000000 360.000000"
 preserveAspectRatio="xMidYMid meet">
<metadata>
Created by potrace 1.16, written by Peter Selinger 2001-2019
</metadata>
<rect width="1" height="360" fill="#000000"/>
<rect x="479" width="1" height="360" fill="#000000"/>
<rect width="480" height="1" fill="#000000"/>
<rect y="359" width="480" height="1" fill="#000000"/>
<g transform="translate(0.000000,360.000000) scale(0.100000,-0.100000)"
fill="#000000" stroke="none">
<path d="M1350 3588 c1 -7 7 -24 15 -38 8 -14 14 -37 15 -51 0 -15 7 -32 15
-39 8 -7 15 -27 15 -44 0 -18 5 -37 11 -43 6 -6 13 -26 16 -44 2 -19 11 -41
19 -50 8 -8 14 -22 14 -29 0 -20 47 -97 64 -103 7 -3 31 -1 52 4 54 12 53 13
43 -25 -5 -19 -9 -65 -9 -102 1 -145 -14 -224 -66 -339 -18 -41 -54 -135 -54
-141 0 -13 23 11 46 48 14 22 27 38 29 36 2 -2 -14 -77 -35 -167 -42 -172 -50
-229 -21 -146 l18 50 6 -64 c4 -35 7 -96 8 -135 l1 -71 12 62 c7 35 15 66 19
69 3 3 9 -15 12 -40 6 -37 3 -56 -17 -99 -30 -63 -94 -258 -90 -271 2 -6 -2
-19 -8 -31 -6 -12 -17 -45 -23 -75 -10 -46 -16 -55 -40 -61 -67 -18 -72 -45
-22 -119 19 -29 33 -55 30 -60 -2 -4 -7 -52 -10 -106 -13 -225 -22 -255 -210
-694 -36 -85 -71 -168 -77 -183 -6 -16 -21 -49 -34 -75 l-23 -47 48 -45 49
-45 -39 -130 c-21 -72 -39 -133 -39 -137 0 -5 112 -8 249 -8 l248 0 42 113
c24 61 47 122 52 135 16 41 57 216 78 332 43 246 66 558 51 709 -8 89 -7 108
6 138 9 18 22 32 28 30 16 -5 51 -109 76 -226 19 -94 20 -113 11 -227 -6 -69
-11 -156 -11 -194 0 -38 -4 -80 -10 -95 -8 -20 -7 -27 5 -31 22 -9 19 -18 -28
-97 -56 -93 -89 -175 -128 -317 -17 -63 -42 -150 -55 -192 l-22 -78 763 0
c633 0 764 2 768 14 3 7 20 16 37 20 18 3 47 21 66 40 32 32 34 38 34 103 0
38 -9 101 -20 141 l-20 73 35 80 c19 44 35 86 35 93 0 8 -22 60 -49 117 -51
109 -99 221 -174 405 -43 106 -117 364 -117 409 0 12 14 40 31 63 17 23 33 60
36 81 7 52 -18 76 -96 92 -70 13 -66 4 -81 183 -15 178 -54 246 -185 323 -33
19 -61 36 -63 38 -2 2 9 22 24 45 34 51 25 60 -56 60 -30 0 -65 3 -76 6 l-22
6 25 61 c14 34 31 84 38 111 8 27 19 54 26 60 9 8 10 6 4 -9 -16 -43 -26 -87
-22 -98 7 -22 114 193 141 284 2 10 20 19 45 23 44 7 71 35 71 74 0 13 -16 60
-35 105 -24 56 -35 96 -35 130 l0 49 43 -6 c103 -16 110 -14 133 29 13 22 23
47 23 56 1 9 7 22 15 28 8 7 14 25 14 41 -1 16 5 42 12 59 7 17 10 42 8 56 -3
14 1 30 8 36 8 6 14 29 14 50 0 21 5 41 10 44 6 3 10 10 10 16 0 5 -335 9
-875 9 -694 0 -875 -3 -875 -12z m498 -1875 c-2 -41 -8 -68 -16 -71 -7 -2 -12
6 -12 23 0 29 20 115 27 115 2 0 3 -30 1 -67z"/>
</g>
</svg>
