<?xml version="1.0" standalone="no"?>
<!DOCTYPE svg PUBLIC "-//W3C//DTD SVG 20010904//EN"
 "http://www.w3.org/TR/2001/REC-SVG-20010904/DTD/svg10.dtd">
<svg version="1.0" xmlns="http://www.w3.org/2000/svg"
 width="480.000000pt" height="360.000000pt" viewBox="0 0 480.000000 360.000000"
 preserveAspectRatio="xMidYMid meet">
<metadata>
Created by potrace 1.16, written by Peter Selinger 2001-2019
</metadata>
<rect width="1" height="360" fill="#000000"/>
<rect x="479" width="1" height="360" fill="#000000"/>
<rect width="480" height="1" fill="#000000"/>
<rect y="359" width="480" height="1" fill="#000000"/>
<g transform="translate(0.000000,360.000000) scale(0.100000,-0.100000)"
fill="#000000" stroke="none">
<path d="M3015 3562 c-135 -72 -206 -170 -241 -337 -18 -89 -22 -266 -6 -307
14 -35 0 -53 -120 -150 -77 -62 -103 -77 -150 -87 -60 -13 -68 -23 -48 -62 6
-10 18 -19 26 -19 13 0 15 -7 10 -34 -8 -41 9 -58 51 -50 24 5 47 -6 131 -57
79 -48 105 -60 114 -51 7 7 23 12 36 12 23 0 24 -3 20 -55 -3 -52 3 -68 17
-45 9 14 45 12 45 -2 0 -21 -57 -101 -97 -136 l-38 -33 58 7 c66 7 68 4 37
-64 l-19 -43 34 7 34 6 -6 -38 c-3 -22 -12 -54 -19 -73 -8 -18 -14 -35 -14
-38 0 -8 75 50 98 76 l24 26 -5 -59 c-3 -44 -1 -55 7 -45 6 8 20 16 31 17 26
5 55 31 55 51 1 11 8 8 26 -13 14 -16 29 -25 32 -20 4 5 14 15 24 22 14 11 20
10 38 -10 20 -22 22 -22 50 -6 32 18 42 12 55 -31 7 -23 7 -23 23 8 l15 32 14
-40 c15 -45 7 -73 -25 -90 -10 -5 -65 -19 -123 -31 -191 -38 -268 -71 -344
-150 -27 -29 -87 -81 -132 -116 -93 -73 -140 -123 -159 -171 -8 -18 -20 -33
-28 -33 -25 0 -129 85 -231 190 -118 120 -169 160 -284 220 -86 46 -92 51
-108 105 -10 36 -45 45 -75 18 -11 -10 -61 -78 -111 -151 -167 -246 -308 -391
-607 -626 -123 -97 -150 -122 -150 -138 0 -13 87 -10 216 9 l120 17 112 -53
c151 -72 154 -71 217 50 62 119 83 151 97 147 6 -2 23 -26 38 -53 21 -37 35
-51 53 -53 23 -3 27 1 32 35 12 72 15 83 29 83 19 0 78 -103 105 -185 31 -91
53 -134 86 -165 23 -22 34 -24 100 -23 l73 1 15 -42 c9 -22 25 -75 37 -116 28
-96 60 -158 101 -198 58 -56 178 -78 257 -47 31 13 44 14 68 4 16 -6 58 -14
94 -18 l65 -6 -1 -110 c-1 -109 -5 -125 -52 -217 -2 -5 273 -8 612 -8 432 0
616 3 616 11 0 7 18 8 54 4 69 -9 116 6 168 53 54 49 69 82 69 155 1 34 3 142
6 241 5 172 6 179 29 199 13 11 24 31 24 44 0 25 5 28 61 37 33 6 35 8 31 39
-2 18 -18 47 -36 65 l-31 34 30 24 c38 31 51 28 194 -44 62 -31 117 -58 122
-60 5 -2 9 76 9 173 0 174 -6 202 -31 138 -11 -29 -26 -28 -112 11 l-52 23
-38 118 c-45 136 -116 287 -155 328 -39 41 -168 100 -312 142 -113 34 -175 64
-244 119 -16 13 -18 20 -8 41 13 28 32 33 32 8 0 -14 2 -15 18 -1 9 8 25 18
35 21 13 5 17 1 17 -19 l0 -25 28 19 c15 11 39 26 53 35 15 9 39 36 55 61 27
42 44 57 44 39 1 -26 17 -33 45 -19 26 13 32 13 68 -6 26 -13 42 -16 46 -9 4
5 16 14 28 18 l22 8 -19 42 c-34 76 -31 86 22 98 58 12 66 20 38 37 -12 7 -37
39 -57 71 -35 59 -36 60 -31 148 5 80 10 99 45 167 22 42 46 92 53 111 13 33
13 34 -34 75 -34 30 -51 54 -61 89 l-15 49 63 -7 c34 -4 74 -13 88 -21 15 -7
29 -10 32 -7 4 3 12 1 19 -4 7 -6 37 -18 67 -26 51 -15 56 -15 98 5 32 15 43
26 43 43 0 12 7 39 15 58 19 46 19 120 0 183 -8 27 -15 50 -15 50 0 3 75 18
90 19 13 0 15 25 18 153 l3 153 -31 44 -31 45 -266 0 c-225 0 -269 -2 -283
-15 -17 -15 -50 -11 -50 6 0 5 -224 9 -527 9 l-528 -1 -70 -37z"/>
</g>
</svg>
