<?xml version="1.0" standalone="no"?>
<!DOCTYPE svg PUBLIC "-//W3C//DTD SVG 20010904//EN"
 "http://www.w3.org/TR/2001/REC-SVG-20010904/DTD/svg10.dtd">
<svg version="1.0" xmlns="http://www.w3.org/2000/svg"
 width="480.000000pt" height="360.000000pt" viewBox="0 0 480.000000 360.000000"
 preserveAspectRatio="xMidYMid meet">
<metadata>
Created by potrace 1.16, written by Peter Selinger 2001-2019
</metadata>
<rect width="1" height="360" fill="#000000"/>
<rect x="479" width="1" height="360" fill="#000000"/>
<rect width="480" height="1" fill="#000000"/>
<rect y="359" width="480" height="1" fill="#000000"/>
<g transform="translate(0.000000,360.000000) scale(0.100000,-0.100000)"
fill="#000000" stroke="none">
<path d="M1348 2890 c-9 -14 -19 -34 -22 -46 -4 -12 -18 -26 -31 -32 -25 -12
-34 -32 -15 -32 7 0 7 -6 1 -19 -6 -10 -8 -21 -6 -23 9 -9 -25 -91 -60 -148
-44 -72 -52 -105 -31 -125 9 -9 16 -22 16 -29 0 -8 6 -19 14 -25 12 -10 17 -8
26 9 10 19 12 18 48 -23 20 -24 46 -48 57 -53 31 -14 24 -37 -13 -45 -50 -10
-57 -22 -36 -59 19 -31 19 -32 -1 -42 -31 -17 -115 -109 -115 -126 0 -9 -14
-30 -30 -47 -58 -60 -50 -147 17 -179 l36 -17 -5 -84 c-6 -83 -28 -142 -75
-197 -9 -10 -12 -25 -8 -38 4 -12 -4 -53 -20 -101 -20 -60 -24 -83 -16 -89 9
-5 8 -17 -3 -46 -8 -21 -22 -75 -30 -119 -24 -122 -84 -591 -101 -791 -9 -99
-20 -215 -25 -259 -6 -44 -10 -85 -10 -92 0 -10 97 -13 479 -13 l478 0 -8 53
c-26 160 -61 422 -74 562 -17 171 -61 373 -121 560 -19 61 -38 116 -40 123 -3
6 1 12 10 12 21 0 20 5 -4 38 l-21 28 37 123 37 123 -11 102 c-8 66 -9 114 -3
140 7 27 6 44 -2 57 -9 14 -7 26 6 54 9 20 17 44 17 55 0 34 -62 204 -83 227
-19 22 -19 23 -1 29 10 4 33 13 51 20 28 11 32 10 36 -6 3 -12 12 -17 23 -15
11 2 30 6 45 9 19 4 32 20 54 65 l28 60 -28 93 c-15 51 -29 113 -32 138 -5 38
-16 56 -72 119 -72 81 -101 97 -186 107 -30 4 -58 11 -61 15 -6 10 -54 1 -68
-12 -16 -15 -24 -10 -28 14 l-3 22 -17 -25z m266 -564 c-3 -9 -10 -13 -16 -10
-5 3 -4 12 3 20 15 18 22 13 13 -10z"/>
<path d="M3459 2154 c-46 -44 -97 -91 -113 -106 -34 -33 -25 -32 -101 -13 -82
20 -105 18 -139 -9 -39 -32 -30 -51 53 -111 l69 -50 -1 -48 c0 -35 4 -51 18
-61 13 -9 16 -19 10 -32 -4 -10 -8 -40 -9 -66 -1 -40 3 -49 22 -60 24 -12 24
-24 2 -83 -7 -18 -17 -25 -35 -25 -21 0 -35 -15 -83 -90 -95 -151 -133 -220
-139 -256 -4 -24 6 -70 33 -156 35 -108 43 -123 72 -141 17 -10 32 -23 32 -29
0 -5 -9 -53 -20 -106 -10 -54 -26 -143 -35 -200 -10 -66 -24 -121 -41 -155
-31 -60 -28 -68 41 -106 l50 -27 8 -70 c4 -38 5 -88 2 -111 l-5 -43 69 0 69 0
7 37 c22 124 26 133 50 133 28 0 55 -24 55 -50 0 -10 5 -41 12 -69 l11 -51 74
0 73 0 0 63 c0 34 4 67 8 73 4 6 27 14 51 18 93 14 97 27 51 186 -17 58 -40
152 -51 210 -11 58 -24 123 -29 145 -11 51 -3 93 20 100 10 3 22 18 28 33 16
42 62 244 62 272 0 14 -23 79 -51 145 -76 179 -80 202 -56 297 20 80 28 88 62
65 37 -25 142 -65 152 -59 14 9 33 47 33 65 0 8 -27 47 -60 86 -33 40 -60 74
-60 76 0 2 20 61 45 132 50 141 52 158 29 191 -29 42 -160 121 -213 128 l-48
6 -84 -78z m-268 -971 c-6 -36 -31 -60 -31 -29 0 19 21 66 30 66 4 0 4 -17 1
-37z m368 -12 c11 -33 9 -36 -16 -57 -16 -12 -29 -21 -30 -20 -1 1 3 30 10 64
12 65 17 67 36 13z"/>
</g>
</svg>
