<?xml version="1.0" standalone="no"?>
<!DOCTYPE svg PUBLIC "-//W3C//DTD SVG 20010904//EN"
 "http://www.w3.org/TR/2001/REC-SVG-20010904/DTD/svg10.dtd">
<svg version="1.0" xmlns="http://www.w3.org/2000/svg"
 width="480.000000pt" height="360.000000pt" viewBox="0 0 480.000000 360.000000"
 preserveAspectRatio="xMidYMid meet">
<metadata>
Created by potrace 1.16, written by Peter Selinger 2001-2019
</metadata>
<rect width="1" height="360" fill="#000000"/>
<rect x="479" width="1" height="360" fill="#000000"/>
<rect width="480" height="1" fill="#000000"/>
<rect y="359" width="480" height="1" fill="#000000"/>
<g transform="translate(0.000000,360.000000) scale(0.100000,-0.100000)"
fill="#000000" stroke="none">
<path d="M0 3091 c0 -398 3 -511 13 -515 9 -5 9 -7 -1 -12 -9 -4 -12 -69 -12
-274 l0 -268 33 -21 c37 -23 73 -59 65 -66 -2 -3 -25 9 -51 25 l-47 30 0 -995
0 -995 2400 0 2400 0 0 961 0 961 -29 -7 c-37 -8 -94 16 -115 47 -18 28 -9 73
14 73 9 0 14 7 12 18 -2 13 4 17 32 17 19 0 46 -4 60 -10 l26 -10 0 775 0 775
-830 0 c-689 0 -830 -2 -830 -13 0 -20 -30 -44 -65 -53 l-30 -7 34 37 35 36
-1333 0 c-1194 0 -1332 -2 -1321 -15 21 -25 2 -30 -23 -7 -22 21 -32 22 -230
22 l-207 0 0 -509z m938 446 c3 -21 0 -26 -12 -21 -19 7 -22 58 -3 52 6 -3 13
-17 15 -31z m-208 -57 c26 -51 37 -114 19 -108 -21 7 -56 77 -64 128 -7 41 -6
43 9 30 10 -7 26 -30 36 -50z m600 -20 c0 -16 -17 -53 -48 -104 -7 -12 -32 23
-32 45 0 17 57 79 72 79 4 0 8 -9 8 -20z m-842 -41 c13 -5 21 -13 18 -18 -8
-12 -77 6 -96 26 -13 13 -11 14 20 8 19 -4 45 -11 58 -16z m2246 -118 c17 -7
17 -8 2 -24 -20 -20 -68 -22 -98 -6 -21 11 -21 12 -3 25 20 15 68 17 99 5z
m-1104 -77 c0 -3 -5 -25 -11 -50 -12 -45 -27 -55 -49 -29 -14 17 -4 55 15 55
7 0 15 7 19 15 5 14 26 22 26 9z m1411 -123 c68 -67 44 -99 -81 -108 -56 -4
-69 -2 -93 17 -26 21 -67 87 -67 109 0 10 46 16 149 19 50 2 56 -1 92 -37z
m560 -17 c23 -38 23 -44 -1 -44 -24 0 -55 44 -46 66 8 22 27 13 47 -22z m-316
-181 c3 -13 3 -23 -2 -23 -12 1 -73 85 -73 101 0 19 66 -51 75 -78z m-3167
-16 c25 -27 20 -37 -17 -37 -32 0 -61 38 -39 51 21 14 33 11 56 -14z m3668
-31 c28 -28 45 -66 30 -66 -8 0 -81 62 -93 80 -25 36 25 24 63 -14z m-1376
-155 c0 -42 -39 -101 -66 -101 -13 0 -20 39 -14 80 3 23 41 60 62 60 14 0 18
-8 18 -39z m482 12 c25 -23 22 -83 -5 -83 -35 0 -65 81 -34 93 19 8 19 8 39
-10z m-2792 -43 c0 -5 -4 -10 -10 -10 -5 0 -10 5 -10 10 0 6 5 10 10 10 6 0
10 -4 10 -10z m2418 -23 c4 -31 -12 -36 -28 -8 -15 29 -12 43 8 39 10 -2 18
-14 20 -31z m232 3 c13 -9 13 -11 0 -20 -8 -5 -22 -10 -31 -10 -19 0 -42 24
-32 33 10 10 46 8 63 -3z m-130 -19 c0 -15 -10 -21 -41 -26 -50 -9 -57 -3 -30
24 27 27 71 28 71 2z m-2480 -6 c7 -8 10 -25 6 -40 -5 -19 -13 -25 -34 -25
-16 0 -37 6 -48 14 -30 23 -2 56 57 65 4 1 12 -6 19 -14z m108 -62 c-10 -2
-26 -2 -35 0 -10 3 -2 5 17 5 19 0 27 -2 18 -5z m2880 -32 c16 -10 32 -74 25
-101 -7 -28 -28 -25 -52 6 -20 26 -28 83 -14 97 9 9 25 8 41 -2z m-1543 -81
c-8 -13 -45 0 -55 20 -5 10 -7 20 -3 23 8 9 64 -33 58 -43z m-395 -52 c0 -12
-28 -10 -35 2 -4 6 -4 19 0 28 6 16 8 15 21 -2 8 -11 14 -23 14 -28z m2480
-53 c0 -9 -87 -55 -105 -55 -14 0 -16 3 -8 11 24 24 113 59 113 44z m-1948
-35 c28 0 61 -81 38 -95 -16 -10 -43 3 -62 29 -14 20 -15 29 -5 55 6 18 13 27
15 21 2 -5 8 -10 14 -10z m1703 -8 c11 -10 31 -30 44 -45 24 -27 24 -27 5 -42
-10 -8 -35 -15 -56 -15 -28 0 -42 7 -61 30 -33 39 -43 70 -26 81 23 14 73 9
94 -9z m-2222 -84 c6 -41 -24 -76 -76 -88 -47 -10 -48 1 -6 69 39 63 74 70 82
19z m389 -43 c10 -16 18 -43 18 -58 0 -27 -1 -28 -37 -21 -50 9 -87 31 -114
67 -20 28 -21 31 -5 42 9 7 16 17 16 23 0 6 19 4 52 -6 36 -12 57 -26 70 -47z
m-825 -3 c-14 -16 -15 -21 -4 -30 7 -6 14 -23 15 -38 2 -26 1 -26 -40 -21 -78
11 -122 95 -47 89 25 -2 41 3 54 18 12 14 22 17 29 10 6 -6 4 -16 -7 -28z
m1581 -59 c8 -25 8 -31 -2 -27 -17 7 -38 53 -30 66 8 13 19 0 32 -39z m2112
12 c0 -18 -99 -117 -110 -110 -16 10 11 64 46 95 37 32 64 39 64 15z m-1220
-15 c48 -24 50 -30 11 -30 -34 0 -100 49 -68 50 10 0 36 -9 57 -20z m-582 -44
c0 -11 3 -29 7 -39 6 -15 2 -14 -27 5 -19 13 -43 34 -53 47 l-18 23 32 -7 c21
-4 31 -3 31 5 0 10 3 10 15 0 8 -7 14 -22 13 -34z m325 -48 c7 -43 -10 -52
-19 -10 -3 15 -8 33 -10 40 -2 8 -1 18 2 24 9 14 20 -8 27 -54z m-1129 32 c44
-16 82 -125 48 -137 -9 -3 -24 -12 -32 -19 -14 -12 -41 -18 -68 -15 -8 1 -10
9 -7 24 4 15 -2 37 -15 60 -21 35 -21 37 -4 67 19 32 36 36 78 20z m552 -77
c-7 -53 -17 -68 -40 -60 -33 13 -5 107 32 107 12 0 14 -9 8 -47z m-1268 10 c5
-18 -20 -16 -44 2 -18 15 -18 15 10 13 16 -2 31 -9 34 -15z m2941 -122 c20
-36 19 -104 0 -148 -22 -51 -33 -54 -48 -12 -15 44 -14 77 5 132 17 51 28 58
43 28z m-611 -49 c30 -14 59 -48 49 -58 -10 -10 -91 16 -113 37 -51 48 -18 59
64 21z m-2628 -118 c0 -84 -12 -105 -25 -43 -8 36 3 129 16 129 5 0 9 -39 9
-86z m2760 -31 c51 -23 55 -48 5 -40 -34 6 -84 35 -85 50 0 12 38 8 80 -10z
m-674 -98 c41 -36 32 -47 -16 -18 -26 15 -48 53 -31 53 4 0 25 -16 47 -35z
m312 -31 c29 -8 28 -27 -3 -44 -21 -11 -28 -10 -51 5 -26 17 -27 18 -9 31 21
15 30 17 63 8z m1015 -44 c33 -39 29 -66 -9 -62 -42 5 -68 34 -60 66 9 35 38
34 69 -4z m288 -10 c29 -16 23 -27 -24 -45 -36 -14 -48 -14 -81 -3 -47 15 -57
34 -24 47 31 13 105 13 129 1z m-703 -18 c23 -15 2 -42 -33 -42 -43 0 -52 14
-23 34 25 18 37 19 56 8z m-858 -29 c13 -12 13 -15 -5 -26 -29 -17 -57 -24
-82 -19 -31 6 -29 26 4 51 28 23 56 21 83 -6z m-2524 -6 c32 -28 27 -42 -17
-51 -52 -10 -121 54 -71 67 38 10 62 6 88 -16z m1084 -72 c0 -29 -13 -45 -36
-45 -20 0 -24 5 -24 28 0 15 -5 33 -11 39 -7 7 -9 19 -5 28 5 14 11 13 41 -11
19 -14 35 -32 35 -39z m3080 11 c0 -6 -80 -46 -93 -46 -17 0 30 31 61 40 15 5
28 9 30 9 1 1 2 -1 2 -3z m-1757 -41 c18 -13 18 -14 -2 -24 -21 -12 -64 -15
-73 -5 -3 3 -4 14 -1 25 6 23 49 25 76 4z m71 -66 c18 -26 12 -45 -17 -53 -25
-6 -37 8 -37 47 0 34 32 37 54 6z m-274 -65 c24 -71 22 -91 -5 -50 -17 25 -34
116 -22 116 3 0 15 -30 27 -66z m1991 -3 c29 -29 37 -55 20 -65 -4 -3 -27 -2
-51 2 -50 8 -73 35 -59 70 12 32 54 29 90 -7z m-1258 -43 c21 -11 21 -11 2
-18 -23 -9 -58 6 -50 21 8 12 22 11 48 -3z m-2496 -40 c-4 -14 0 -26 10 -34
16 -11 16 -14 0 -38 -19 -29 -34 -32 -72 -14 -33 15 -32 21 8 52 17 14 27 26
20 26 -7 0 -10 7 -7 15 4 8 15 15 26 15 16 0 19 -5 15 -22z m-462 -163 c6 -53
4 -64 -15 -88 -12 -15 -28 -27 -35 -27 -23 0 -36 35 -25 65 5 14 10 41 10 58
0 18 7 43 16 56 24 33 40 11 49 -64z m2295 3 c37 -27 38 -38 2 -38 -32 0 -52
16 -52 42 0 24 14 23 50 -4z m-575 3 c-9 -16 -75 -33 -101 -27 -34 9 -30 24 9
29 63 8 98 7 92 -2z m451 -118 c30 -40 6 -113 -36 -113 -19 0 -30 27 -30 76 0
50 39 72 66 37z m1423 -56 c25 -31 38 -82 29 -116 l-9 -34 -30 29 c-16 15 -29
24 -29 20 0 -5 -7 -3 -15 4 -23 19 -20 77 5 85 11 3 20 11 20 16 0 13 16 11
29 -4z m-461 -263 c20 -13 30 -34 16 -34 -9 0 -94 51 -94 57 0 9 53 -7 78 -23z
m-2498 -225 c0 -6 -4 -7 -10 -4 -5 3 -10 11 -10 16 0 6 5 7 10 4 6 -3 10 -11
10 -16z m43 -43 c23 -18 12 -46 -18 -46 -22 0 -35 17 -35 46 0 18 29 18 53 0z"/>
<path d="M4761 2016 c-9 -11 -6 -20 13 -42 l25 -29 1 43 c0 44 -16 56 -39 28z"/>
</g>
</svg>
