<?xml version="1.0" standalone="no"?>
<!DOCTYPE svg PUBLIC "-//W3C//DTD SVG 20010904//EN"
 "http://www.w3.org/TR/2001/REC-SVG-20010904/DTD/svg10.dtd">
<svg version="1.0" xmlns="http://www.w3.org/2000/svg"
 width="480.000000pt" height="360.000000pt" viewBox="0 0 480.000000 360.000000"
 preserveAspectRatio="xMidYMid meet">
<metadata>
Created by potrace 1.16, written by Peter Selinger 2001-2019
</metadata>
<rect width="1" height="360" fill="#000000"/>
<rect x="479" width="1" height="360" fill="#000000"/>
<rect width="480" height="1" fill="#000000"/>
<rect y="359" width="480" height="1" fill="#000000"/>
<g transform="translate(0.000000,360.000000) scale(0.100000,-0.100000)"
fill="#000000" stroke="none">
<path d="M0 1800 l0 -1800 1131 0 c1001 0 1130 2 1119 15 -8 10 -10 28 -5 51
6 35 6 36 -19 30 -16 -4 -38 0 -56 9 -16 8 -55 15 -90 15 l-60 0 0 39 c0 27
-5 41 -16 45 -14 6 -16 18 -11 90 5 66 19 119 62 243 31 87 71 217 90 289 18
72 47 159 64 193 27 52 29 64 19 81 -7 11 -16 20 -20 20 -4 0 -5 20 -1 45 5
38 3 45 -10 39 -10 -3 -17 2 -22 15 -8 25 1 41 21 41 8 0 14 7 14 15 0 19 4
19 -54 -10 -77 -39 -124 -35 -189 19 -51 41 -56 43 -71 28 -26 -26 -47 -4 -67
69 -10 35 -18 71 -19 80 -1 58 178 242 287 295 57 28 55 25 82 155 12 58 27
79 86 124 22 18 35 36 35 51 0 12 3 25 8 27 4 3 6 28 6 56 -1 28 1 51 5 51 4
0 15 -17 26 -37 11 -21 28 -46 38 -57 10 -10 16 -24 13 -32 -4 -10 3 -14 25
-14 67 0 124 -38 191 -127 36 -49 42 -53 81 -53 81 0 159 -19 259 -64 137 -62
164 -84 184 -151 8 -30 14 -67 12 -82 -3 -27 -6 -28 -57 -28 l-54 0 -23 -50
c-43 -93 -74 -115 -164 -115 -36 1 -84 5 -108 9 -42 8 -43 8 -96 -45 -63 -61
-77 -101 -46 -129 11 -10 20 -26 20 -37 0 -19 -16 -25 -22 -8 -2 5 -9 6 -16 1
-11 -6 -2 -29 39 -102 28 -52 63 -103 76 -114 28 -24 42 -88 23 -110 -10 -12
-8 -19 9 -41 23 -29 27 -60 10 -66 -8 -3 -4 -19 10 -47 31 -60 21 -61 -14 -1
-38 66 -62 68 -34 3 21 -49 19 -79 -6 -69 -18 7 -18 7 1 -39 14 -34 14 -37 0
-32 -8 3 -18 2 -22 -4 -3 -6 -19 0 -39 15 -19 15 -36 26 -39 26 -11 0 66 -144
108 -203 115 -162 109 -150 87 -166 -19 -12 -19 -15 -5 -42 19 -37 14 -45 -32
-52 -20 -3 -46 -17 -59 -32 -18 -18 -34 -25 -63 -25 -53 0 -77 -20 -77 -64 l0
-36 1123 0 1122 0 0 1800 0 1800 -1075 0 c-1021 0 -1075 -1 -1067 -17 20 -38
63 -171 77 -238 19 -91 19 -245 0 -337 -22 -102 -82 -218 -164 -318 -144 -173
-181 -235 -181 -301 0 -16 -4 -29 -10 -29 -5 0 -10 8 -10 18 0 26 -40 90 -136
219 -48 65 -109 147 -136 183 -115 155 -143 247 -135 445 5 137 24 220 73 317
13 26 24 50 24 53 0 3 -463 5 -1030 5 l-1030 0 0 -1800z"/>
<path d="M3090 1680 c-8 -5 -23 -11 -32 -14 -12 -3 -18 -15 -18 -34 0 -25 5
-30 31 -36 52 -10 59 -8 59 22 0 34 -10 72 -19 71 -3 0 -13 -4 -21 -9z"/>
<path d="M2936 1554 c-73 -14 -164 -54 -192 -85 -15 -17 -14 -19 12 -26 16 -4
59 -7 96 -8 75 0 109 18 141 73 31 53 22 60 -57 46z"/>
<path d="M1846 1393 c13 -52 24 -74 34 -68 16 10 12 62 -6 79 -24 24 -35 19
-28 -11z"/>
<path d="M2536 1412 c-2 -4 8 -22 22 -40 l27 -33 40 41 39 40 -61 0 c-34 0
-64 -3 -67 -8z"/>
<path d="M1972 1360 c-47 -11 -48 -16 -12 -47 48 -41 71 -52 106 -53 49 0 134
42 134 68 0 30 -148 51 -228 32z"/>
<path d="M2338 54 c-5 -4 -8 -18 -8 -31 0 -22 3 -23 70 -23 55 0 70 3 70 15 0
8 -9 19 -20 25 -26 14 -103 24 -112 14z"/>
</g>
</svg>
