<?xml version="1.0" standalone="no"?>
<!DOCTYPE svg PUBLIC "-//W3C//DTD SVG 20010904//EN"
 "http://www.w3.org/TR/2001/REC-SVG-20010904/DTD/svg10.dtd">
<svg version="1.0" xmlns="http://www.w3.org/2000/svg"
 width="480.000000pt" height="360.000000pt" viewBox="0 0 480.000000 360.000000"
 preserveAspectRatio="xMidYMid meet">
<metadata>
Created by potrace 1.16, written by Peter Selinger 2001-2019
</metadata>
<rect width="1" height="360" fill="#000000"/>
<rect x="479" width="1" height="360" fill="#000000"/>
<rect width="480" height="1" fill="#000000"/>
<rect y="359" width="480" height="1" fill="#000000"/>
<g transform="translate(0.000000,360.000000) scale(0.100000,-0.100000)"
fill="#000000" stroke="none">
<path d="M0 2658 c0 -939 0 -943 20 -911 18 31 20 31 47 18 70 -35 91 -72 97
-173 3 -60 7 -68 35 -92 44 -35 422 -383 444 -408 11 -12 26 -18 35 -15 24 9
112 73 111 81 -4 29 12 47 91 103 84 60 90 66 90 99 0 72 41 97 262 155 251
68 261 71 269 92 13 35 28 194 35 368 l6 170 -46 67 c-40 58 -46 74 -46 117 0
27 -4 53 -10 56 -5 3 -33 -1 -61 -9 -58 -18 -73 -13 -67 19 4 20 -1 24 -48 35
-64 16 -85 35 -73 67 9 24 77 63 147 83 23 7 42 17 42 21 0 4 16 28 35 53 19
25 32 46 28 46 -3 0 2 9 12 20 17 19 17 21 -8 57 -40 58 -149 291 -142 303 10
15 16 13 91 -32 53 -32 84 -44 134 -51 109 -14 131 -12 255 17 93 22 153 30
270 34 116 4 157 9 182 22 25 13 49 16 100 13 66 -4 69 -3 104 29 69 64 154
135 171 141 18 6 32 -7 34 -33 1 -8 2 -25 3 -37 1 -19 7 -23 35 -23 47 0 66
-22 66 -77 0 -44 -22 -143 -40 -175 -13 -23 6 -28 112 -28 78 0 253 -19 327
-36 21 -4 22 -7 10 -19 -16 -15 -274 -105 -305 -105 -12 -1 -2 -9 26 -23 80
-39 56 -73 -91 -132 -103 -41 -105 -45 -55 -197 45 -138 63 -250 76 -484 14
-238 35 -391 59 -424 37 -52 114 -184 147 -253 60 -127 62 -191 8 -268 l-26
-38 18 -43 c13 -32 17 -66 16 -133 -2 -117 22 -259 62 -365 18 -47 48 -147 66
-223 l34 -137 803 0 803 0 0 1800 0 1800 -2400 0 -2400 0 0 -942z"/>
<path d="M0 500 l0 -500 550 0 c443 0 550 3 550 13 0 13 69 47 162 82 42 15
46 19 38 39 -20 46 -41 204 -39 285 3 99 20 228 44 321 25 100 26 104 17 118
-7 10 -19 10 -58 2 -143 -33 -162 -42 -295 -131 -38 -25 -150 -81 -184 -91
-16 -5 -75 -13 -130 -18 -55 -5 -126 -12 -157 -16 -88 -10 -130 10 -241 119
-51 51 -111 112 -133 137 -21 25 -58 67 -81 92 l-43 48 0 -500z"/>
<path d="M1488 432 c-23 -5 -34 -102 -29 -249 l1 -33 83 0 c112 0 128 5 121
39 -3 14 -18 55 -34 91 -15 36 -30 73 -34 83 -3 11 -15 21 -26 24 -11 3 -20 9
-20 13 0 13 -44 36 -62 32z"/>
</g>
</svg>
