<?xml version="1.0" standalone="no"?>
<!DOCTYPE svg PUBLIC "-//W3C//DTD SVG 20010904//EN"
 "http://www.w3.org/TR/2001/REC-SVG-20010904/DTD/svg10.dtd">
<svg version="1.0" xmlns="http://www.w3.org/2000/svg"
 width="480.000000pt" height="360.000000pt" viewBox="0 0 480.000000 360.000000"
 preserveAspectRatio="xMidYMid meet">
<metadata>
Created by potrace 1.16, written by Peter Selinger 2001-2019
</metadata>
<rect width="1" height="360" fill="#000000"/>
<rect x="479" width="1" height="360" fill="#000000"/>
<rect width="480" height="1" fill="#000000"/>
<rect y="359" width="480" height="1" fill="#000000"/>
<g transform="translate(0.000000,360.000000) scale(0.100000,-0.100000)"
fill="#000000" stroke="none">
<path d="M0 2740 l0 -860 30 0 c45 0 306 56 438 95 159 46 270 89 460 179 88
42 173 76 189 76 22 0 45 -15 98 -66 37 -36 125 -117 195 -179 71 -63 172
-163 227 -222 258 -283 309 -327 433 -376 82 -32 163 -47 259 -47 72 0 76 1
77 23 2 33 99 245 141 305 47 68 148 144 246 183 79 32 94 46 83 75 -5 14 -9
14 -23 3 -15 -12 -16 -12 -10 4 4 11 10 30 13 43 6 22 4 23 -27 14 -19 -6 -35
-10 -36 -10 -2 0 -3 -7 -3 -15 0 -8 -4 -15 -10 -15 -5 0 -10 11 -10 23 0 13
-9 32 -20 42 -19 17 -20 17 -39 -6 -22 -26 -27 -15 -12 24 7 18 5 26 -9 34
-14 10 -23 4 -55 -33 -20 -25 -39 -44 -41 -42 -2 2 8 32 22 66 30 74 23 96
-36 112 -38 10 -52 31 -30 45 6 3 17 20 26 37 14 28 14 31 -3 50 -22 24 -73
52 -81 44 -3 -3 5 -18 19 -33 18 -21 19 -24 4 -13 -11 8 -30 23 -42 34 -19 16
-23 17 -23 4 0 -20 -29 -17 -45 5 -7 9 -15 14 -18 10 -14 -13 -59 51 -64 91
-8 71 -13 74 -39 26 l-25 -45 6 43 c3 23 3 42 0 42 -3 0 -24 -13 -47 -30 -62
-45 -96 -39 -165 27 -43 42 -42 60 5 72 27 8 70 41 152 119 l114 108 -17 77
c-9 43 -17 97 -17 121 0 44 10 55 66 71 12 3 28 20 35 37 21 50 133 162 209
208 38 23 107 58 152 78 l83 37 155 -1 c128 -1 168 -6 230 -24 41 -12 92 -21
113 -20 36 1 46 -6 123 -82 192 -188 248 -318 209 -488 -29 -126 -30 -145 -4
-187 49 -82 111 -151 149 -168 32 -15 40 -23 40 -45 0 -15 -9 -35 -20 -45 -20
-18 -21 -18 -43 3 -23 21 -127 43 -127 26 0 -5 7 -18 15 -28 21 -27 19 -39 -5
-31 -19 6 -19 4 -8 -22 7 -15 19 -38 26 -50 18 -28 10 -29 -45 -2 -53 26 -64
19 -35 -21 18 -24 19 -31 9 -42 -8 -7 -12 -19 -9 -26 6 -20 -13 -14 -38 13
-13 14 -27 25 -31 25 -15 0 -18 -33 -8 -80 17 -81 10 -88 -38 -39 -24 24 -43
37 -43 30 0 -7 -4 -10 -9 -6 -12 7 -23 -28 -15 -49 4 -9 1 -16 -6 -16 -9 0
-11 -10 -6 -32 l6 -33 -29 35 -29 34 5 -29 5 -30 -44 44 -43 45 -4 -30 -3 -29
-18 40 -19 40 0 -32 c-1 -17 -7 -33 -13 -36 -10 -3 -10 -8 1 -21 9 -10 21 -14
34 -10 17 6 19 3 13 -22 -17 -69 -19 -66 94 -104 150 -50 164 -61 211 -155 21
-45 39 -89 39 -98 0 -10 16 -49 36 -89 l36 -71 151 6 c95 3 175 12 212 22 45
13 80 15 145 10 217 -17 383 39 536 178 l64 59 0 924 0 924 -2400 0 -2400 0 0
-860z"/>
<path d="M988 2019 c-82 -47 -102 -69 -78 -84 6 -3 10 -17 10 -30 0 -14 7 -26
19 -30 10 -3 47 -42 82 -88 l64 -82 3 -329 c2 -220 -1 -333 -8 -340 -15 -15
-32 5 -98 124 -32 58 -102 182 -155 275 l-96 170 14 103 c10 79 18 109 34 126
18 19 19 25 7 41 -13 18 -17 17 -97 -17 -96 -41 -217 -80 -301 -98 -57 -11
-85 -30 -57 -38 17 -5 129 -118 152 -152 13 -20 20 -85 34 -320 9 -163 14
-304 10 -314 -6 -15 -10 -16 -22 -6 -9 7 -95 126 -192 263 l-175 251 6 95 c5
71 12 103 26 123 18 25 18 28 3 58 -13 28 -19 31 -47 26 -17 -3 -52 -8 -78
-12 l-48 -6 0 -864 0 -864 1168 0 1167 0 19 128 c10 70 19 138 19 152 0 14
-42 131 -93 260 -50 129 -106 273 -124 320 l-32 85 22 91 c23 96 34 123 57
143 23 18 -5 67 -46 80 -36 12 -198 51 -210 51 -5 0 10 -35 33 -79 l42 -78
-26 -332 c-14 -183 -29 -339 -34 -347 -14 -26 -37 11 -100 166 -33 80 -89 216
-125 304 l-66 158 20 96 c14 68 26 104 43 122 13 14 26 42 29 66 4 37 0 47
-53 118 -78 105 -147 183 -173 197 l-21 12 19 -29 c10 -16 29 -45 42 -65 l23
-35 -10 -250 c-16 -373 -20 -434 -34 -434 -17 0 -26 17 -173 324 l-134 281 15
104 c11 77 20 109 36 126 15 16 19 30 15 47 -4 16 -1 29 8 37 13 10 -4 31
-107 131 -66 66 -125 120 -131 120 -5 0 -49 -23 -97 -51z"/>
<path d="M4776 1575 c-22 -33 -20 -68 4 -83 19 -12 20 -10 20 48 0 33 -2 60
-4 60 -2 0 -11 -11 -20 -25z"/>
<path d="M4535 1459 c-186 -34 -229 -57 -177 -96 15 -11 45 -55 66 -97 l40
-77 -28 -187 c-35 -233 -63 -392 -71 -400 -3 -3 -12 1 -19 9 -14 14 -206 541
-206 564 0 33 53 170 71 183 35 24 12 28 -93 15 -60 -8 -138 -11 -185 -7 -77
5 -83 5 -83 -14 0 -10 9 -27 21 -38 12 -10 39 -55 61 -98 l40 -80 -26 -205
c-55 -422 -53 -413 -79 -377 -8 11 -54 125 -102 255 -86 232 -114 293 -102
221 4 -19 11 -102 17 -185 5 -82 18 -202 27 -265 13 -93 15 -160 10 -347 l-6
-233 544 0 545 0 0 364 c0 332 -1 364 -16 362 -11 -1 -23 15 -35 44 -43 106
-179 505 -179 524 0 12 11 56 24 99 27 87 32 82 -59 66z"/>
<path d="M3683 1347 c-29 -21 -31 -26 -20 -47 17 -34 30 -34 50 -1 18 30 23
71 9 71 -4 0 -22 -10 -39 -23z"/>
<path d="M2369 1162 c33 -32 34 -32 53 -15 46 41 41 49 -25 49 l-62 0 34 -34z"/>
<path d="M2410 1104 c0 -3 13 -28 29 -56 28 -49 30 -50 36 -26 4 14 5 39 3 54
-3 25 -8 29 -35 31 -18 1 -33 -1 -33 -3z"/>
<path d="M2432 550 c0 -14 2 -19 5 -12 2 6 2 18 0 25 -3 6 -5 1 -5 -13z"/>
</g>
</svg>
