<?xml version="1.0" standalone="no"?>
<!DOCTYPE svg PUBLIC "-//W3C//DTD SVG 20010904//EN"
 "http://www.w3.org/TR/2001/REC-SVG-20010904/DTD/svg10.dtd">
<svg version="1.0" xmlns="http://www.w3.org/2000/svg"
 width="480.000000pt" height="360.000000pt" viewBox="0 0 480.000000 360.000000"
 preserveAspectRatio="xMidYMid meet">
<metadata>
Created by potrace 1.16, written by Peter Selinger 2001-2019
</metadata>
<rect width="1" height="360" fill="#000000"/>
<rect x="479" width="1" height="360" fill="#000000"/>
<rect width="480" height="1" fill="#000000"/>
<rect y="359" width="480" height="1" fill="#000000"/>
<g transform="translate(0.000000,360.000000) scale(0.100000,-0.100000)"
fill="#000000" stroke="none">
<path d="M0 1800 l0 -1800 1055 0 1055 0 4 23 c3 12 12 72 21 132 10 61 28
153 41 205 13 52 24 102 24 112 0 17 -69 80 -82 76 -4 -2 -36 -41 -73 -88 -81
-105 -173 -200 -194 -201 -36 -3 -57 4 -79 24 -49 45 -14 126 131 305 33 41
66 76 73 79 21 8 17 18 -27 75 -45 59 -47 94 -10 146 10 15 22 46 26 67 3 22
8 50 11 62 3 18 -34 56 -219 220 -122 109 -256 227 -297 263 -115 99 -170 153
-170 165 0 18 107 118 121 113 8 -3 33 10 56 28 23 19 52 34 65 34 13 0 41 12
62 26 21 14 50 27 65 29 14 1 46 9 71 18 124 43 191 52 397 52 l203 0 0 31 c0
29 -5 33 -100 79 -55 26 -111 48 -123 49 -17 1 -25 11 -36 44 -7 23 -27 56
-43 73 l-31 30 22 16 c18 12 21 21 15 42 -9 35 -6 74 10 121 15 44 15 44 -52
-7 -50 -38 -77 -42 -92 -14 -28 53 1 143 63 198 32 28 170 93 199 93 7 0 30 5
51 11 33 9 41 18 61 62 21 48 21 56 9 107 -7 30 -13 67 -13 83 0 47 -36 55
-131 27 -76 -22 -81 -22 -122 -6 -115 44 -225 175 -274 328 -14 46 -33 90 -41
98 -13 13 -13 12 -3 -7 23 -45 9 -80 -27 -69 -20 7 -102 188 -102 225 l0 21
-785 0 -785 0 0 -1800z"/>
<path d="M1620 3598 c0 -11 33 -99 36 -96 4 5 -20 85 -29 94 -4 4 -7 5 -7 2z"/>
<path d="M4755 3548 c13 -29 28 -87 33 -128 l9 -75 2 128 1 127 -34 0 -35 0
24 -52z"/>
<path d="M1740 3515 c0 -24 35 -77 73 -112 60 -55 167 -89 206 -64 17 11 -17
37 -154 120 -90 55 -125 71 -125 56z"/>
<path d="M1796 3308 c13 -43 78 -142 117 -180 45 -44 124 -88 158 -88 17 0 95
19 147 36 17 5 -45 126 -91 179 l-32 36 -33 -17 c-51 -25 -136 -15 -212 24
-57 29 -61 30 -54 10z"/>
<path d="M4777 3057 c-10 -50 -31 -144 -47 -207 l-29 -115 50 -50 49 -50 0
258 c0 141 -1 257 -2 257 -2 0 -11 -42 -21 -93z"/>
<path d="M2305 2948 c11 -67 16 -70 54 -36 36 32 36 32 -21 63 -39 21 -41 20
-33 -27z"/>
<path d="M2125 2659 c-132 -45 -195 -91 -195 -143 1 -52 14 -50 114 18 53 36
119 77 146 91 35 18 50 31 50 45 0 26 -8 25 -115 -11z"/>
<path d="M2157 2562 l-57 -38 39 -10 c50 -14 91 12 91 57 0 16 -3 29 -7 28 -5
0 -34 -17 -66 -37z"/>
<path d="M3343 2235 c-3 -10 9 -79 28 -154 l34 -136 126 3 c70 2 139 6 154 11
28 7 27 8 -56 84 -92 84 -181 153 -241 187 -35 19 -39 20 -45 5z"/>
<path d="M3559 1906 c-2 -3 -35 -6 -72 -7 -37 -1 -69 -5 -72 -8 -2 -4 1 -29 6
-56 5 -28 20 -117 33 -200 75 -474 177 -891 289 -1180 42 -108 132 -377 142
-422 l7 -33 454 0 454 0 0 491 0 491 -34 41 c-18 23 -40 56 -49 72 -19 38 -47
144 -47 178 0 19 -12 33 -51 58 -59 38 -83 39 -242 14 -122 -19 -172 -13 -260
31 -151 76 -247 220 -272 406 -5 38 -14 53 -50 87 l-45 41 -93 0 c-52 0 -96
-2 -98 -4z"/>
<path d="M3870 1806 c0 -28 59 -192 81 -228 68 -106 191 -186 298 -195 63 -4
251 18 252 30 1 5 -29 44 -66 88 -106 125 -254 213 -475 283 -85 27 -90 28
-90 22z"/>
<path d="M4710 1272 c0 -25 42 -141 65 -177 l24 -40 1 98 c0 92 -1 98 -22 106
-50 19 -68 22 -68 13z"/>
<path d="M3691 260 c-1 -24 23 -189 34 -237 3 -15 13 -23 26 -23 17 0 19 4 13
22 -4 13 -22 77 -40 143 -18 66 -33 109 -33 95z"/>
<path d="M3807 55 c6 -54 9 -62 20 -52 3 4 -1 28 -10 55 l-16 47 6 -50z"/>
</g>
</svg>
