<?xml version="1.0" standalone="no"?>
<!DOCTYPE svg PUBLIC "-//W3C//DTD SVG 20010904//EN"
 "http://www.w3.org/TR/2001/REC-SVG-20010904/DTD/svg10.dtd">
<svg version="1.0" xmlns="http://www.w3.org/2000/svg"
 width="480.000000pt" height="360.000000pt" viewBox="0 0 480.000000 360.000000"
 preserveAspectRatio="xMidYMid meet">
<metadata>
Created by potrace 1.16, written by Peter Selinger 2001-2019
</metadata>
<rect width="1" height="360" fill="#000000"/>
<rect x="479" width="1" height="360" fill="#000000"/>
<rect width="480" height="1" fill="#000000"/>
<rect y="359" width="480" height="1" fill="#000000"/>
<g transform="translate(0.000000,360.000000) scale(0.100000,-0.100000)"
fill="#000000" stroke="none">
<path d="M3354 3579 c-16 -18 -26 -20 -76 -14 -54 6 -60 5 -96 -23 l-38 -30
-104 7 c-93 7 -108 5 -132 -11 -28 -19 -98 -109 -98 -125 0 -15 -35 -43 -53
-43 -21 0 -21 -3 -1 -42 11 -21 14 -45 11 -72 -4 -31 0 -49 20 -83 19 -33 23
-50 17 -71 -4 -15 -7 -30 -6 -34 2 -9 -11 -11 -44 -9 -11 1 -50 30 -85 64
-102 100 -148 127 -229 136 -49 5 -79 14 -101 30 -26 19 -35 21 -56 12 -13 -6
-32 -11 -42 -11 -24 0 -72 -88 -64 -118 3 -12 9 -22 14 -22 20 0 7 -16 -21
-27 -41 -15 -38 -31 8 -39 48 -9 72 -21 72 -39 0 -28 69 -165 87 -172 10 -4
54 -17 98 -28 48 -13 80 -26 80 -34 0 -7 -22 -21 -49 -32 -81 -30 -93 -48 -91
-130 2 -38 5 -73 9 -76 3 -4 6 -14 6 -23 0 -13 -17 -21 -67 -32 -38 -9 -107
-26 -155 -39 l-87 -24 -29 28 c-27 26 -32 27 -134 27 -59 0 -109 -4 -112 -9
-3 -4 -19 -11 -35 -14 -16 -4 -32 -14 -35 -25 -4 -10 -22 -26 -42 -36 -34 -15
-35 -18 -19 -30 19 -14 13 -36 -9 -36 -8 0 -19 -7 -26 -15 -11 -13 -8 -15 14
-15 14 0 26 -4 26 -10 0 -5 11 -12 25 -16 14 -3 25 -10 25 -15 0 -5 7 -9 16
-9 9 0 40 -7 70 -16 46 -13 54 -19 54 -39 0 -13 -4 -27 -10 -30 -18 -11 -10
-45 23 -98 48 -77 111 -210 147 -312 18 -49 39 -98 47 -107 20 -22 115 -42
167 -34 23 4 63 19 89 34 51 29 243 215 253 244 4 14 9 15 30 6 19 -9 24 -17
19 -32 -11 -37 -24 -187 -34 -386 -10 -215 -8 -230 49 -270 25 -18 28 -25 19
-36 -6 -8 -9 -27 -6 -44 5 -22 -4 -48 -38 -112 -45 -86 -74 -171 -119 -360
-28 -118 -79 -285 -102 -335 -8 -17 -14 -34 -14 -39 0 -4 -12 -32 -26 -63 -14
-31 -33 -72 -42 -91 -9 -19 -27 -50 -39 -69 -44 -65 -103 -61 792 -61 547 0
815 3 815 10 0 6 -10 27 -23 48 -62 100 -122 252 -247 622 -81 241 -128 343
-189 412 -28 32 -41 55 -41 76 0 16 -7 35 -15 42 -26 21 -17 39 35 71 28 17
50 36 50 42 0 7 -7 45 -15 86 -15 72 -15 77 10 190 51 227 70 269 147 331 48
39 87 117 89 180 2 71 -9 242 -16 249 -4 3 -23 11 -43 17 -23 7 -36 16 -34 25
5 20 68 182 97 249 13 30 27 65 30 77 7 24 17 28 170 68 55 15 141 38 190 51
50 13 162 42 250 65 271 69 286 76 229 116 -14 10 -37 27 -51 39 l-26 21 -121
-38 c-225 -69 -261 -80 -444 -130 -101 -28 -185 -49 -186 -47 -5 6 -46 131
-43 133 28 16 63 52 77 79 17 34 17 36 -3 49 -20 13 -20 13 6 70 14 31 24 57
21 57 -2 0 -25 -19 -49 -41 -25 -23 -48 -40 -51 -37 -2 3 9 42 25 87 16 44 27
81 23 82 -4 1 -22 0 -40 -1 -27 -1 -40 6 -70 38 -20 22 -48 42 -62 45 -14 4
-44 22 -67 42 -23 19 -46 35 -52 35 -6 0 1 16 14 36 14 20 25 41 25 45 0 5
-26 9 -58 9 -47 0 -63 -4 -78 -21z m1016 -599 c0 -10 -8 -24 -18 -29 -30 -16
-568 -159 -604 -161 -5 0 -8 7 -8 15 0 8 17 19 43 26 35 9 166 48 422 126 55
16 146 41 158 42 4 1 7 -8 7 -19z m-1902 -530 c-24 -14 -266 -80 -313 -86 -70
-8 -13 17 135 57 132 37 215 50 178 29z m1104 -22 c-7 -7 -12 -8 -12 -2 0 14
12 26 19 19 2 -3 -1 -11 -7 -17z m-1042 -24 c0 -8 -4 -24 -10 -34 -7 -13 -6
-21 5 -30 26 -21 17 -38 -32 -60 -109 -48 -161 -104 -149 -162 4 -20 1 -30 -9
-34 -8 -3 -17 -14 -20 -25 -4 -10 -12 -19 -20 -19 -7 0 -15 -8 -17 -17 -7 -31
-34 35 -47 112 -16 88 -30 125 -47 125 -20 0 -38 50 -24 64 12 12 311 94 348
95 14 1 22 -5 22 -15z"/>
<path d="M157 3133 c-4 -3 -7 -17 -7 -30 0 -14 -6 -23 -15 -23 -9 0 -15 -9
-15 -24 0 -14 -5 -28 -11 -32 -7 -4 -9 -22 -6 -45 3 -22 2 -39 -3 -39 -4 0
-28 -18 -54 -41 l-46 -41 0 -415 c0 -410 0 -415 20 -410 11 3 20 1 20 -3 0 -4
8 -6 19 -3 10 3 22 -1 26 -8 10 -15 -32 -48 -62 -49 l-23 0 0 -409 0 -409 36
-64 37 -63 -37 -67 -36 -67 0 -446 0 -445 475 0 c314 0 475 3 475 10 0 6 -24
72 -54 148 -67 171 -87 244 -126 456 -34 182 -54 246 -100 319 -21 33 -28 55
-24 71 4 18 -1 28 -25 45 -27 20 -46 52 -21 36 13 -8 87 15 100 30 7 9 -9 54
-55 151 -48 103 -68 159 -76 215 l-12 75 37 65 c77 132 86 145 115 170 40 33
41 79 1 80 -14 0 -45 8 -69 17 -50 19 -67 42 -26 35 25 -5 35 10 15 22 -5 3
-10 13 -10 20 0 11 8 13 33 8 l32 -6 -25 28 -25 28 25 -7 c14 -3 39 -9 55 -12
l30 -6 -33 27 c-18 15 -31 33 -28 41 3 7 0 15 -7 18 -7 3 -1 3 13 0 14 -4 28
-12 32 -18 4 -6 8 -7 8 -3 0 17 -40 85 -78 131 -40 48 -65 111 -96 234 -21 86
-21 90 18 168 37 72 37 89 2 80 -52 -14 -98 15 -225 138 -69 67 -123 126 -122
131 19 60 18 73 -6 84 -17 8 -23 17 -19 27 22 56 16 80 -12 52 -9 -9 -12 -7
-12 10 0 22 -10 28 -23 15z"/>
</g>
</svg>
