<?xml version="1.0" standalone="no"?>
<!DOCTYPE svg PUBLIC "-//W3C//DTD SVG 20010904//EN"
 "http://www.w3.org/TR/2001/REC-SVG-20010904/DTD/svg10.dtd">
<svg version="1.0" xmlns="http://www.w3.org/2000/svg"
 width="480.000000pt" height="360.000000pt" viewBox="0 0 480.000000 360.000000"
 preserveAspectRatio="xMidYMid meet">
<metadata>
Created by potrace 1.16, written by Peter Selinger 2001-2019
</metadata>
<rect width="1" height="360" fill="#000000"/>
<rect x="479" width="1" height="360" fill="#000000"/>
<rect width="480" height="1" fill="#000000"/>
<rect y="359" width="480" height="1" fill="#000000"/>
<g transform="translate(0.000000,360.000000) scale(0.100000,-0.100000)"
fill="#000000" stroke="none">
<path d="M1658 2693 c-9 -10 -15 -33 -13 -50 1 -18 -1 -33 -5 -33 -4 0 -10
-24 -12 -52 -6 -54 11 -98 37 -98 22 0 39 -28 26 -44 -9 -10 -4 -25 21 -64 18
-28 39 -51 46 -51 22 -1 -6 -40 -33 -47 -27 -7 -30 -16 -15 -44 8 -15 6 -24
-8 -38 -33 -33 -72 -89 -66 -95 3 -3 -6 -21 -20 -40 -31 -41 -35 -96 -8 -120
10 -10 24 -17 30 -17 39 0 43 -115 7 -179 -14 -24 -25 -51 -23 -60 1 -9 -6
-40 -16 -69 -10 -28 -16 -58 -13 -65 2 -6 -1 -23 -8 -37 -25 -49 -56 -199 -91
-430 -52 -351 -72 -504 -80 -617 l-7 -103 38 -34 c20 -19 58 -44 84 -57 25
-12 63 -31 83 -41 20 -10 69 -27 109 -37 l73 -18 -31 -16 c-18 -10 -78 -20
-154 -26 -68 -5 -142 -16 -164 -24 -36 -13 -40 -17 -40 -48 l0 -34 365 0 c314
0 365 2 365 15 0 18 -69 57 -116 65 -24 4 -43 16 -58 35 l-21 29 22 13 c13 7
26 11 30 10 13 -3 99 37 133 64 19 14 37 38 40 55 4 16 0 143 -9 282 -9 139
-21 320 -26 402 -10 158 -44 344 -84 463 -18 51 -21 73 -13 81 8 8 7 15 -5 27
-18 18 -10 55 36 157 32 72 32 85 -4 177 -26 65 -28 76 -15 89 12 13 12 16 -2
26 -9 7 -16 30 -18 61 -3 48 -43 154 -71 185 -21 23 -7 52 22 46 44 -8 107 77
106 143 -1 79 -84 217 -156 261 -40 24 -111 25 -175 0 -48 -18 -49 -18 -54 0
-6 24 -19 24 -39 2z m279 -905 c-3 -8 -6 -5 -6 6 -1 11 2 17 5 13 3 -3 4 -12
1 -19z"/>
</g>
</svg>
