<?xml version="1.0" standalone="no"?>
<!DOCTYPE svg PUBLIC "-//W3C//DTD SVG 20010904//EN"
 "http://www.w3.org/TR/2001/REC-SVG-20010904/DTD/svg10.dtd">
<svg version="1.0" xmlns="http://www.w3.org/2000/svg"
 width="480.000000pt" height="360.000000pt" viewBox="0 0 480.000000 360.000000"
 preserveAspectRatio="xMidYMid meet">
<metadata>
Created by potrace 1.16, written by Peter Selinger 2001-2019
</metadata>
<rect width="1" height="360" fill="#000000"/>
<rect x="479" width="1" height="360" fill="#000000"/>
<rect width="480" height="1" fill="#000000"/>
<rect y="359" width="480" height="1" fill="#000000"/>
<g transform="translate(0.000000,360.000000) scale(0.100000,-0.100000)"
fill="#000000" stroke="none">
<path d="M0 3248 l0 -352 53 51 c114 111 400 276 537 308 68 16 203 25 400 28
l115 2 8 90 c5 50 8 98 8 108 0 9 6 17 12 17 12 0 42 -43 170 -240 41 -63 87
-126 102 -140 63 -57 121 -162 155 -275 21 -73 51 -134 77 -158 11 -9 53 -28
93 -42 57 -19 84 -23 124 -19 41 5 55 3 65 -10 8 -9 28 -16 48 -16 34 0 35 -1
29 -30 -12 -60 -51 -145 -68 -148 -10 -2 -31 6 -46 17 -51 36 -117 13 -94 -31
7 -13 19 -47 27 -77 12 -46 12 -55 -1 -68 -8 -8 -14 -23 -14 -33 0 -25 -43
-130 -52 -130 -5 0 -8 6 -8 13 0 25 -20 -18 -20 -45 0 -31 -14 -37 -28 -11 -9
14 -10 14 -17 -6 -3 -11 -10 -19 -15 -16 -9 6 -31 -18 -47 -54 -11 -25 -11
-25 -12 -3 -1 12 -5 22 -10 22 -14 0 -33 -28 -26 -39 3 -6 7 -68 8 -138 3
-114 6 -134 29 -185 15 -32 23 -58 18 -58 -4 0 -26 21 -48 48 l-40 47 -12 -30
c-10 -25 -8 -38 9 -80 12 -28 21 -60 21 -72 l0 -22 -47 20 -48 20 -25 -30
c-33 -39 -63 -50 -128 -43 -39 3 -57 1 -70 -11 -9 -8 -29 -18 -43 -22 -20 -5
-25 -11 -22 -26 6 -21 22 -26 258 -83 311 -75 329 -82 378 -150 l21 -29 -28
-24 -27 -23 21 -35 c12 -19 37 -67 56 -106 33 -67 36 -71 61 -64 15 3 32 13
37 21 6 8 54 22 108 32 53 11 103 24 111 30 7 7 61 14 118 18 57 3 114 10 125
16 15 7 55 6 129 -2 79 -8 110 -8 115 0 5 8 39 4 117 -14 61 -14 119 -23 130
-20 10 3 63 -11 117 -30 54 -20 108 -36 120 -36 11 0 62 -20 112 -45 50 -25
100 -47 111 -49 12 -3 64 -34 117 -70 53 -36 102 -66 108 -66 6 0 44 -31 84
-70 39 -38 76 -70 81 -70 18 0 174 -189 239 -288 35 -53 76 -125 90 -159 l27
-63 349 0 348 0 0 1800 0 1800 -2400 0 -2400 0 0 -352z m4160 242 c0 -11 -7
-20 -15 -20 -15 0 -21 21 -8 33 12 13 23 7 23 -13z m-1205 -1111 c41 -36 58
-85 53 -154 -3 -43 -6 -50 -25 -53 -13 -2 -23 -10 -23 -17 0 -21 -19 -28 -37
-13 -44 36 -74 169 -53 232 15 45 37 47 85 5z"/>
<path d="M0 2050 c0 -154 0 -155 18 -125 27 44 52 113 58 156 5 34 1 42 -35
81 l-40 43 -1 -155z"/>
<path d="M1 1228 l1 -553 19 84 c10 46 25 93 32 104 11 17 11 27 -1 64 -8 25
-21 47 -28 50 -8 3 -10 13 -4 31 18 61 35 84 80 107 46 23 47 24 56 89 6 36 8
66 5 66 -3 0 -17 -12 -33 -27 -15 -14 -30 -24 -33 -22 -2 3 7 39 22 80 32 92
40 191 24 323 -18 148 -18 148 -41 136 -14 -8 -29 -6 -56 5 -20 8 -38 15 -40
15 -2 0 -4 -249 -3 -552z"/>
<path d="M1680 60 c0 -53 2 -60 20 -60 17 0 20 7 20 50 0 39 -4 52 -20 60 -19
10 -20 8 -20 -50z"/>
</g>
</svg>
