<?xml version="1.0" standalone="no"?>
<!DOCTYPE svg PUBLIC "-//W3C//DTD SVG 20010904//EN"
 "http://www.w3.org/TR/2001/REC-SVG-20010904/DTD/svg10.dtd">
<svg version="1.0" xmlns="http://www.w3.org/2000/svg"
 width="480.000000pt" height="360.000000pt" viewBox="0 0 480.000000 360.000000"
 preserveAspectRatio="xMidYMid meet">
<metadata>
Created by potrace 1.16, written by Peter Selinger 2001-2019
</metadata>
<rect width="1" height="360" fill="#000000"/>
<rect x="479" width="1" height="360" fill="#000000"/>
<rect width="480" height="1" fill="#000000"/>
<rect y="359" width="480" height="1" fill="#000000"/>
<g transform="translate(0.000000,360.000000) scale(0.100000,-0.100000)"
fill="#000000" stroke="none">
<path d="M0 1800 l0 -1800 2323 0 2322 1 -45 40 c-25 23 -63 53 -85 67 -92 61
-166 141 -206 221 -18 36 -38 73 -45 81 -18 22 -82 212 -104 313 -11 48 -24
96 -30 106 -5 11 -7 33 -4 50 8 36 2 38 -37 10 -43 -31 -38 1 7 40 20 18 32
36 28 43 -5 8 -10 7 -18 -4 -6 -8 -19 -17 -29 -21 -15 -5 -16 -3 -8 12 6 10
17 21 25 24 24 9 31 73 12 102 -17 25 -14 85 4 110 9 12 19 113 12 120 -3 3
-11 0 -17 -5 -9 -7 -27 -7 -55 -1 -30 7 -48 6 -61 -2 -15 -9 -21 -8 -32 8 -8
10 -23 20 -33 21 -46 6 -79 16 -87 27 -4 7 -5 0 -1 -15 6 -27 -8 -39 -21 -18
-3 6 -15 10 -25 10 -11 0 -27 11 -36 25 -9 14 -22 25 -29 25 -6 0 -26 7 -43
16 -28 13 -31 19 -25 46 6 29 5 30 -16 18 -13 -6 -25 -9 -28 -6 -7 7 -6 47 2
72 5 17 2 23 -15 27 -15 4 -21 11 -17 21 3 8 9 49 13 91 6 64 4 75 -9 75 -8 0
-38 18 -66 40 -57 45 -66 49 -51 20 6 -11 8 -20 5 -20 -18 0 -47 24 -60 50 -9
17 -22 30 -29 30 -8 0 -17 11 -20 25 -8 31 -34 44 -48 24 -12 -18 0 85 14 121
6 14 16 55 24 92 17 90 73 208 123 259 23 24 41 47 41 51 0 5 -10 22 -21 37
-23 32 -19 51 12 51 32 0 59 19 59 40 0 17 7 20 40 20 23 0 59 9 80 20 22 11
54 19 71 18 24 -2 36 3 47 20 17 26 37 28 50 6 8 -15 16 -15 88 0 51 10 146
17 264 18 247 4 269 -3 466 -151 33 -24 74 -58 92 -74 l32 -31 0 592 0 592
-2400 0 -2400 0 0 -1800z m3571 -303 c-8 -8 -11 -7 -11 4 0 20 13 34 18 19 3
-7 -1 -17 -7 -23z"/>
<path d="M3675 1450 c-4 -6 5 -10 20 -10 15 0 24 4 20 10 -3 6 -12 10 -20 10
-8 0 -17 -4 -20 -10z"/>
<path d="M3970 1390 c0 -5 5 -10 11 -10 5 0 7 5 4 10 -3 6 -8 10 -11 10 -2 0
-4 -4 -4 -10z"/>
<path d="M4117 1134 c-16 -16 -7 -44 14 -44 15 0 20 5 17 22 -3 22 -19 33 -31
22z"/>
</g>
</svg>
