<?xml version="1.0" standalone="no"?>
<!DOCTYPE svg PUBLIC "-//W3C//DTD SVG 20010904//EN"
 "http://www.w3.org/TR/2001/REC-SVG-20010904/DTD/svg10.dtd">
<svg version="1.0" xmlns="http://www.w3.org/2000/svg"
 width="480.000000pt" height="360.000000pt" viewBox="0 0 480.000000 360.000000"
 preserveAspectRatio="xMidYMid meet">
<metadata>
Created by potrace 1.16, written by Peter Selinger 2001-2019
</metadata>
<rect width="1" height="360" fill="#000000"/>
<rect x="479" width="1" height="360" fill="#000000"/>
<rect width="480" height="1" fill="#000000"/>
<rect y="359" width="480" height="1" fill="#000000"/>
<g transform="translate(0.000000,360.000000) scale(0.100000,-0.100000)"
fill="#000000" stroke="none">
<path d="M844 3199 c-6 -10 13 -20 122 -62 230 -89 346 -177 478 -362 35 -49
53 -85 61 -127 14 -64 46 -108 95 -128 16 -7 41 -31 56 -53 93 -142 254 -311
376 -395 35 -24 47 -40 52 -66 9 -46 84 -116 125 -116 17 0 41 5 55 11 47 22
151 -55 162 -119 1 -8 10 -22 18 -31 9 -10 16 -31 16 -47 1 -16 10 -45 20 -64
28 -51 36 -70 50 -115 6 -22 23 -57 36 -77 13 -21 33 -62 44 -91 11 -30 31
-64 45 -77 14 -13 25 -27 25 -32 0 -5 15 -21 33 -37 l32 -29 1 -269 c1 -147 6
-313 12 -368 6 -55 12 -200 12 -322 l0 -223 1015 0 1015 0 0 1134 0 1134 -67
8 c-178 19 -473 -19 -674 -86 l-86 -29 -44 22 c-40 20 -59 22 -204 22 -142 0
-165 -2 -206 -21 -39 -18 -50 -20 -75 -9 -16 6 -67 21 -114 33 -166 42 -262
56 -415 57 -136 1 -153 3 -185 23 -38 24 -98 29 -147 12 -25 -9 -48 -4 -149
31 -65 23 -147 54 -181 69 -55 25 -63 32 -72 67 -18 65 -64 125 -122 160 -56
34 -135 55 -171 45 -15 -4 -49 25 -154 129 -126 126 -134 136 -153 198 -44
144 -155 211 -271 165 -37 -15 -46 -15 -103 -1 -107 27 -353 51 -363 36z
m1187 -658 c13 -11 22 -22 19 -25 -3 -3 -19 6 -35 19 -17 13 -25 24 -19 25 7
0 22 -9 35 -19z"/>
<path d="M4775 2780 c-18 -20 -18 -21 3 -43 l22 -21 0 42 c0 23 -2 42 -3 42
-2 0 -12 -9 -22 -20z"/>
</g>
</svg>
