<?xml version="1.0" standalone="no"?>
<!DOCTYPE svg PUBLIC "-//W3C//DTD SVG 20010904//EN"
 "http://www.w3.org/TR/2001/REC-SVG-20010904/DTD/svg10.dtd">
<svg version="1.0" xmlns="http://www.w3.org/2000/svg"
 width="480.000000pt" height="360.000000pt" viewBox="0 0 480.000000 360.000000"
 preserveAspectRatio="xMidYMid meet">
<metadata>
Created by potrace 1.16, written by Peter Selinger 2001-2019
</metadata>
<rect width="1" height="360" fill="#000000"/>
<rect x="479" width="1" height="360" fill="#000000"/>
<rect width="480" height="1" fill="#000000"/>
<rect y="359" width="480" height="1" fill="#000000"/>
<g transform="translate(0.000000,360.000000) scale(0.100000,-0.100000)"
fill="#000000" stroke="none">
<path d="M0 1800 l0 -1800 273 0 272 0 115 140 c148 180 153 190 139 263 -10
47 -9 63 4 96 16 38 16 58 2 93 -5 11 2 26 20 43 17 18 24 33 20 46 -4 13 0
25 14 37 16 14 21 31 23 86 3 72 8 80 58 90 19 4 30 17 45 58 11 28 25 66 32
83 7 16 12 53 12 82 1 47 4 54 38 82 20 17 35 32 32 33 -23 16 -157 78 -167
78 -8 0 -43 -28 -78 -62 -60 -57 -64 -60 -64 -35 0 15 13 41 29 59 40 46 57
88 121 297 17 56 19 75 10 81 -9 6 -9 9 0 15 20 12 28 49 50 212 11 87 23 172
27 188 l6 30 -20 -24 -19 -23 -88 36 c-49 21 -111 48 -137 62 l-49 24 27 41
c26 39 26 41 10 75 -21 44 -22 88 -1 105 12 10 25 10 57 2 33 -9 48 -8 72 2
51 23 110 71 106 86 -26 97 -24 148 10 284 47 191 163 351 304 421 74 37 205
64 307 64 51 0 41 -9 175 161 23 30 67 79 97 109 54 52 56 53 71 35 16 -20
103 -196 145 -292 21 -47 28 -54 79 -74 206 -83 354 -275 396 -515 15 -82 15
-94 -1 -163 l-18 -74 34 -66 c19 -36 49 -84 67 -108 18 -24 33 -50 33 -57 0
-23 -50 -76 -71 -76 -10 0 -19 -4 -19 -9 0 -13 76 -262 105 -341 72 -203 161
-411 180 -422 17 -10 40 -47 50 -78 7 -23 5 -22 -31 11 -22 20 -56 48 -76 63
-41 31 -33 33 -143 -36 -70 -43 -110 -46 -174 -14 -28 15 -62 25 -74 24 -12
-1 -53 1 -90 6 -66 7 -147 1 -147 -12 0 -7 123 -51 226 -81 60 -17 187 -98
197 -125 3 -7 9 -34 12 -60 6 -36 4 -51 -8 -64 -15 -16 -14 -23 8 -79 14 -33
31 -96 38 -139 13 -79 14 -79 43 -76 16 1 35 -2 43 -7 16 -10 16 -9 -25 -139
-23 -71 -18 -122 16 -169 17 -22 41 -44 55 -47 30 -8 34 -41 6 -55 -13 -7 -17
-18 -14 -35 3 -15 -3 -35 -17 -54 -22 -29 -22 -31 -6 -107 9 -42 16 -79 16
-81 0 -2 452 -4 1005 -4 l1005 0 0 1800 0 1800 -1228 0 c-956 0 -1231 -3
-1240 -12 -10 -10 -17 -10 -32 0 -15 9 -278 12 -1160 12 l-1140 0 0 -1800z
m4143 722 c10 -10 14 -22 10 -25 -19 -20 -82 10 -69 31 11 18 41 14 59 -6z
m-1183 -712 c0 -5 -4 -10 -10 -10 -5 0 -10 5 -10 10 0 6 5 10 10 10 6 0 10 -4
10 -10z m364 -6 c27 -10 18 -21 -26 -33 -24 -7 -49 -15 -57 -18 -24 -10 -1 17
33 38 36 22 30 21 50 13z m-36 -761 c2 -9 -7 -13 -27 -13 -31 0 -42 14 -18 23
19 8 40 3 45 -10z"/>
<path d="M2349 55 c-5 -50 -4 -63 7 -53 3 3 4 28 2 54 l-3 49 -6 -50z"/>
</g>
</svg>
