<?xml version="1.0" standalone="no"?>
<!DOCTYPE svg PUBLIC "-//W3C//DTD SVG 20010904//EN"
 "http://www.w3.org/TR/2001/REC-SVG-20010904/DTD/svg10.dtd">
<svg version="1.0" xmlns="http://www.w3.org/2000/svg"
 width="480.000000pt" height="360.000000pt" viewBox="0 0 480.000000 360.000000"
 preserveAspectRatio="xMidYMid meet">
<metadata>
Created by potrace 1.16, written by Peter Selinger 2001-2019
</metadata>
<rect width="1" height="360" fill="#000000"/>
<rect x="479" width="1" height="360" fill="#000000"/>
<rect width="480" height="1" fill="#000000"/>
<rect y="359" width="480" height="1" fill="#000000"/>
<g transform="translate(0.000000,360.000000) scale(0.100000,-0.100000)"
fill="#000000" stroke="none">
<path d="M0 1800 l0 -1800 123 0 122 0 44 119 43 120 -22 30 c-13 19 -19 38
-15 50 3 11 0 30 -7 42 -10 16 -10 23 -1 26 35 13 80 53 96 86 19 38 25 117
16 227 l-4 55 40 0 39 0 27 85 c25 81 46 128 89 195 17 26 18 39 11 85 -5 30
-7 58 -5 61 2 4 21 16 43 27 78 41 130 78 123 87 -4 6 -20 17 -36 25 -28 14
-29 14 -59 -20 -16 -19 -27 -29 -23 -23 4 7 3 13 -2 13 -5 0 -14 -15 -20 -32
l-10 -33 -1 39 c-1 38 -1 39 -21 21 -24 -22 -28 -1 -5 29 17 23 20 46 5 46 -6
0 -39 -21 -73 -47 -34 -27 -78 -54 -98 -62 -27 -10 -42 -25 -58 -58 -11 -24
-28 -46 -37 -50 -9 -3 -35 3 -58 14 l-42 21 -22 -39 c-76 -132 -153 -146 -139
-27 8 67 35 94 104 107 29 6 61 16 72 23 23 14 66 91 105 188 15 36 31 74 36
85 21 44 115 355 108 359 -2 1 -28 13 -58 26 -30 13 -68 33 -84 44 l-28 19 32
25 c54 42 143 140 161 177 17 34 17 35 -16 87 -47 75 -59 127 -59 258 -1 123
22 225 66 300 31 52 135 156 201 202 130 89 232 122 432 138 72 6 151 13 177
16 l46 6 37 98 c35 93 77 170 93 170 11 0 70 -82 143 -199 51 -82 75 -110 116
-138 65 -43 142 -126 182 -196 40 -69 78 -187 86 -267 4 -36 13 -75 21 -87 23
-36 91 -66 136 -60 36 5 38 4 48 -31 13 -47 13 -62 0 -62 -14 0 -12 -38 2 -42
9 -3 8 -12 -6 -32 -9 -15 -20 -52 -23 -82 -6 -60 -23 -83 -43 -59 -20 24 -25
18 -26 -27 -1 -24 -3 -57 -4 -75 -2 -17 6 -50 17 -72 23 -46 10 -55 -22 -15
l-20 25 -38 -51 -38 -51 43 -51 c24 -29 35 -49 26 -45 -10 4 -25 10 -35 14
-14 5 -15 1 -10 -33 4 -21 9 -66 11 -99 5 -56 5 -57 -5 -19 -5 23 -21 52 -36
65 l-26 24 6 -25 c14 -64 50 -340 45 -346 -3 -3 -34 17 -69 45 -66 53 -79 59
-79 39 0 -7 -7 -4 -16 7 -14 19 -15 19 -20 -3 -7 -24 -20 -29 -27 -9 -3 9 -9
8 -23 -5 -11 -9 -45 -29 -76 -43 -31 -14 -61 -32 -68 -40 -7 -8 -28 -17 -47
-21 -22 -4 -31 -10 -25 -16 14 -14 249 -85 355 -108 93 -20 109 -27 170 -81
34 -31 39 -41 48 -104 5 -38 7 -81 4 -94 -3 -13 2 -46 12 -73 17 -49 18 -49
53 -43 19 3 40 13 47 22 8 11 39 16 115 20 75 4 106 9 115 20 10 13 30 14 121
9 79 -6 115 -4 129 4 15 10 40 8 122 -9 69 -14 108 -18 120 -11 13 6 45 0 112
-22 52 -17 109 -30 127 -29 18 0 54 -9 80 -20 103 -47 136 -60 148 -55 7 3 57
-22 111 -55 54 -32 105 -59 113 -59 8 0 47 -26 87 -58 40 -31 97 -72 128 -91
30 -18 55 -39 55 -45 0 -6 25 -36 56 -66 30 -30 72 -77 91 -105 20 -27 47 -61
59 -75 12 -14 46 -71 74 -127 l51 -103 255 0 254 0 0 1209 0 1208 -26 -5 c-22
-4 -25 -2 -22 19 1 13 13 28 26 34 l22 10 0 562 0 563 -1819 0 c-1446 0 -1820
-3 -1824 -12 -4 -10 -7 -10 -18 0 -10 9 -139 12 -576 12 l-563 0 0 -1800z
m3417 1555 c-7 -16 -37 -21 -37 -5 0 10 32 31 39 25 2 -2 1 -11 -2 -20z m393
-865 c0 -5 -4 -10 -9 -10 -6 0 -13 5 -16 10 -3 6 1 10 9 10 9 0 16 -4 16 -10z
m-427 -335 c-3 -8 -14 -15 -24 -15 -23 0 -24 4 -3 24 18 19 36 12 27 -9z m12
-209 c2 -65 -94 -145 -172 -146 -42 0 -44 22 -5 76 29 40 134 106 162 101 9
-1 15 -14 15 -31z m537 -868 c-6 -6 -15 -8 -19 -4 -4 4 -1 11 7 16 19 12 27 3
12 -12z"/>
<path d="M1171 1391 c-9 -6 -10 -11 -2 -15 13 -8 31 1 31 15 0 11 -11 11 -29
0z"/>
<path d="M866 1335 c-3 -8 -1 -15 4 -15 6 0 10 7 10 15 0 8 -2 15 -4 15 -2 0
-6 -7 -10 -15z"/>
<path d="M1837 98 c-4 -29 -9 -63 -13 -75 -6 -21 -3 -23 35 -23 l41 0 0 75 0
75 -29 0 c-27 0 -29 -3 -34 -52z"/>
</g>
</svg>
