<?xml version="1.0" standalone="no"?>
<!DOCTYPE svg PUBLIC "-//W3C//DTD SVG 20010904//EN"
 "http://www.w3.org/TR/2001/REC-SVG-20010904/DTD/svg10.dtd">
<svg version="1.0" xmlns="http://www.w3.org/2000/svg"
 width="480.000000pt" height="360.000000pt" viewBox="0 0 480.000000 360.000000"
 preserveAspectRatio="xMidYMid meet">
<metadata>
Created by potrace 1.16, written by Peter Selinger 2001-2019
</metadata>
<rect width="1" height="360" fill="#000000"/>
<rect x="479" width="1" height="360" fill="#000000"/>
<rect width="480" height="1" fill="#000000"/>
<rect y="359" width="480" height="1" fill="#000000"/>
<g transform="translate(0.000000,360.000000) scale(0.100000,-0.100000)"
fill="#000000" stroke="none">
<path d="M1547 3589 c17 -17 95 -19 123 -3 23 12 18 13 -54 14 -59 0 -77 -3
-69 -11z"/>
<path d="M1785 3528 c3 -40 8 -96 11 -124 4 -39 -2 -70 -26 -141 -41 -122 -40
-169 3 -210 20 -20 45 -33 66 -35 33 -3 38 -7 59 -58 49 -113 81 -180 133
-273 61 -107 81 -165 94 -264 l7 -53 -44 -1 c-23 0 -64 -4 -91 -7 l-47 -7 24
-36 c13 -19 27 -55 30 -80 l7 -44 -72 -40 c-85 -47 -190 -141 -224 -199 -45
-76 -56 -126 -70 -318 -7 -103 -16 -192 -20 -197 -3 -6 -14 -11 -25 -11 -10 0
-47 -9 -82 -20 -78 -24 -131 -72 -146 -132 -16 -63 15 -154 73 -210 25 -24 45
-51 45 -60 0 -23 -66 -303 -84 -353 -18 -51 -111 -260 -213 -480 l-79 -170
1054 -3 c581 -1 1057 0 1059 2 3 2 -1 80 -8 173 -11 152 -11 177 6 268 20 115
83 336 117 419 l24 57 27 -22 c56 -43 59 -59 51 -302 -4 -122 -3 -306 1 -410
l7 -187 419 0 c277 0 419 3 419 10 0 6 -32 74 -70 153 -68 136 -72 149 -106
322 -19 99 -44 221 -55 272 -12 54 -18 105 -14 125 4 19 33 71 66 117 70 98
78 140 32 183 -42 39 -65 48 -155 59 -46 6 -86 13 -89 17 -12 12 -39 228 -45
354 -9 191 -39 278 -119 347 l-28 23 6 176 c6 195 8 202 74 202 36 0 40 9 19
48 -12 22 -82 404 -90 492 -4 39 -5 40 -30 40 -31 0 -33 4 -50 90 l-13 71 33
44 c19 24 34 48 34 53 0 6 11 32 25 59 41 78 55 197 34 293 l-11 50 -979 0
-979 0 5 -72z m1872 -280 c-3 -8 -6 -5 -6 6 -1 11 2 17 5 13 3 -3 4 -12 1 -19z
m-100 -1126 c5 -45 4 -52 -10 -47 -16 7 -33 87 -21 106 11 19 24 -6 31 -59z
m133 -99 c0 -33 -2 -36 -15 -23 -8 9 -12 24 -9 38 10 35 24 26 24 -15z m-294
-713 c13 -51 23 -94 21 -96 -1 -2 -13 -1 -25 3 -20 5 -22 11 -22 83 0 43 -3
87 -7 97 -3 10 -3 15 1 12 4 -4 18 -48 32 -99z m-6 -200 c0 -5 -4 -10 -10 -10
-5 0 -10 5 -10 10 0 6 5 10 10 10 6 0 10 -4 10 -10z"/>
</g>
</svg>
