<?xml version="1.0" standalone="no"?>
<!DOCTYPE svg PUBLIC "-//W3C//DTD SVG 20010904//EN"
 "http://www.w3.org/TR/2001/REC-SVG-20010904/DTD/svg10.dtd">
<svg version="1.0" xmlns="http://www.w3.org/2000/svg"
 width="480.000000pt" height="360.000000pt" viewBox="0 0 480.000000 360.000000"
 preserveAspectRatio="xMidYMid meet">
<metadata>
Created by potrace 1.16, written by Peter Selinger 2001-2019
</metadata>
<rect width="1" height="360" fill="#000000"/>
<rect x="479" width="1" height="360" fill="#000000"/>
<rect width="480" height="1" fill="#000000"/>
<rect y="359" width="480" height="1" fill="#000000"/>
<g transform="translate(0.000000,360.000000) scale(0.100000,-0.100000)"
fill="#000000" stroke="none">
<path d="M0 1800 l0 -1800 2400 0 2400 0 0 1800 0 1800 -2400 0 -2400 0 0
-1800z m3061 1168 c40 -13 209 -126 209 -139 0 -18 -76 -8 -125 16 -72 35 -77
33 -73 -22 l3 -48 60 -13 c73 -16 136 -38 160 -56 25 -18 13 -64 -20 -72 -14
-3 -25 -9 -25 -13 0 -4 27 -23 60 -42 45 -26 55 -36 42 -41 -13 -5 -9 -8 16
-13 22 -5 32 -13 32 -26 0 -11 5 -19 10 -19 6 0 10 -4 10 -9 0 -5 -9 -7 -20
-4 -21 5 -28 -11 -10 -22 6 -3 10 -11 10 -17 0 -6 -7 -5 -17 3 -14 12 -15 12
-9 0 7 -10 4 -12 -13 -6 -23 7 -22 -2 6 -55 7 -14 13 -43 13 -65 0 -22 4 -45
8 -51 4 -6 64 -18 134 -27 144 -19 158 -23 158 -44 0 -16 -19 -16 -155 3 -64
9 -51 -5 38 -40 81 -31 84 -31 232 -6 156 27 426 26 409 -1 -3 -5 0 -9 7 -9 9
0 10 -3 2 -11 -8 -8 -4 -17 12 -35 12 -13 27 -24 32 -24 5 0 19 -9 32 -21 12
-12 30 -19 39 -17 17 5 51 -21 43 -32 -3 -3 8 -8 25 -11 27 -6 27 -7 7 -14
-13 -4 -19 -12 -16 -21 3 -8 -1 -14 -8 -14 -8 -1 -1 -8 15 -16 22 -13 26 -18
15 -25 -8 -5 -9 -9 -4 -10 6 0 1 -4 -10 -9 -19 -8 -19 -9 2 -9 12 -1 25 -6 29
-13 4 -7 3 -8 -5 -4 -6 4 -20 4 -32 1 -19 -7 -20 -7 -2 -21 17 -12 16 -13 -12
-14 -29 -1 -29 -2 -7 -12 12 -6 22 -14 22 -18 0 -9 -94 -5 -110 5 -7 4 -10 0
-8 -11 2 -11 -2 -18 -9 -17 -7 2 -10 -4 -6 -13 5 -13 2 -15 -16 -9 -14 4 -30
0 -47 -14 -20 -15 -22 -21 -10 -21 9 0 16 -4 16 -8 0 -11 -68 -6 -105 7 l-30
11 35 -31 c19 -17 31 -29 25 -27 -22 8 -70 33 -75 39 -11 14 -88 47 -135 58
-27 6 -109 20 -180 30 -72 11 -166 33 -210 49 -61 21 -97 28 -150 28 -57 -1
-69 -4 -67 -16 2 -8 6 -39 9 -67 6 -60 -7 -86 -42 -81 -12 1 -29 -5 -38 -14
-18 -18 -50 -14 -68 9 -7 8 -15 44 -18 81 l-6 67 -50 7 c-29 5 -93 3 -151 -4
-82 -9 -108 -9 -133 1 -17 8 -31 19 -32 25 -1 6 -2 22 -2 35 -2 19 -8 24 -32
26 -16 1 -70 5 -120 9 -223 16 -235 17 -235 7 0 -6 22 -22 49 -36 40 -20 48
-28 44 -45 -3 -11 -8 -20 -10 -20 -3 0 -44 18 -92 39 -48 22 -127 47 -175 57
-83 16 -89 16 -98 0 -5 -9 -14 -13 -20 -10 -6 4 -14 1 -18 -6 -10 -16 -44 2
-66 35 -11 17 -25 25 -46 25 -83 0 -148 36 -148 82 0 15 9 18 60 18 34 0 120
-6 193 -14 198 -22 358 -35 497 -42 l125 -7 42 46 c23 25 56 72 73 104 17 32
38 70 47 84 16 25 15 35 -6 69 -5 8 -13 46 -18 85 l-8 70 -47 22 c-41 20 -48
27 -48 52 0 23 9 37 35 57 20 15 34 28 32 30 -2 2 -43 18 -93 35 -88 31 -138
58 -161 87 -24 29 -15 42 29 42 l42 0 -32 29 c-40 37 -40 52 -1 85 37 31 49
32 72 6 9 -11 28 -20 42 -20 31 0 41 -20 25 -50 -6 -12 -9 -24 -7 -26 12 -13
76 27 96 59 47 76 171 116 262 85z"/>
<path d="M2870 2541 c0 -12 6 -21 16 -21 9 0 14 7 12 17 -5 25 -28 28 -28 4z"/>
<path d="M3135 2453 c4 -10 16 -40 27 -68 26 -66 35 -73 43 -36 4 18 19 43 33
56 24 23 25 25 7 25 -11 0 -33 9 -50 20 -39 26 -70 27 -60 3z"/>
<path d="M2932 2232 c-5 -15 -32 -63 -61 -106 -53 -82 -61 -106 -36 -106 21 0
143 125 151 154 6 24 -21 86 -37 86 -4 0 -11 -12 -17 -28z"/>
<path d="M3366 2163 c-4 -4 16 -15 45 -25 67 -23 77 -15 15 12 -55 23 -51 22
-60 13z"/>
</g>
</svg>
