<?xml version="1.0" standalone="no"?>
<!DOCTYPE svg PUBLIC "-//W3C//DTD SVG 20010904//EN"
 "http://www.w3.org/TR/2001/REC-SVG-20010904/DTD/svg10.dtd">
<svg version="1.0" xmlns="http://www.w3.org/2000/svg"
 width="480.000000pt" height="360.000000pt" viewBox="0 0 480.000000 360.000000"
 preserveAspectRatio="xMidYMid meet">
<metadata>
Created by potrace 1.16, written by Peter Selinger 2001-2019
</metadata>
<rect width="1" height="360" fill="#000000"/>
<rect x="479" width="1" height="360" fill="#000000"/>
<rect width="480" height="1" fill="#000000"/>
<rect y="359" width="480" height="1" fill="#000000"/>
<g transform="translate(0.000000,360.000000) scale(0.100000,-0.100000)"
fill="#000000" stroke="none">
<path d="M1604 3413 c0 -272 -25 -385 -135 -608 -53 -108 -137 -227 -222 -314
-77 -80 -232 -200 -297 -232 -32 -15 -61 -33 -65 -38 -3 -6 -38 -20 -78 -32
-40 -12 -76 -25 -82 -29 -23 -18 -192 -52 -302 -61 -138 -11 -314 0 -406 27
-16 5 -17 -50 -17 -1060 l0 -1066 1565 0 1565 0 0 45 c0 25 9 68 20 97 11 29
27 91 36 138 20 113 36 168 95 334 27 76 58 175 69 220 18 75 18 82 3 94 -9 6
-25 12 -34 12 -17 0 -39 45 -39 80 0 10 16 49 36 86 72 139 85 166 119 256 29
78 33 98 26 132 -5 23 -12 69 -16 103 -7 60 -9 64 -48 91 -23 15 -50 44 -60
63 -17 36 -17 38 3 92 11 30 34 72 51 93 16 20 32 49 35 63 21 91 28 108 66
143 36 33 39 40 27 54 -11 14 -11 18 6 30 27 20 11 29 -24 14 -29 -12 -33 -10
-80 29 -27 22 -53 41 -59 41 -15 0 -22 26 -10 38 19 19 -11 44 -46 39 -24 -3
-36 2 -53 20 -13 13 -23 29 -23 35 0 5 -7 8 -15 4 -18 -7 -18 -7 -4 89 l12 76
-62 63 c-63 66 -78 107 -44 120 9 4 122 9 252 13 l236 5 64 -33 c81 -43 137
-109 180 -215 18 -43 38 -83 44 -89 19 -16 63 -77 82 -114 23 -45 44 -168 45
-258 0 -48 7 -89 20 -122 10 -28 29 -86 40 -131 19 -74 20 -89 9 -188 l-12
-108 37 -75 c48 -97 65 -185 65 -335 1 -100 -2 -124 -13 -124 -8 0 -19 -12
-24 -27 l-10 -28 -21 46 c-21 48 -45 67 -57 47 -18 -29 -4 -118 36 -232 40
-114 66 -175 193 -454 50 -108 105 -264 122 -345 l5 -27 195 0 195 0 0 1800 0
1800 -1598 0 -1597 0 -1 -187z"/>
</g>
</svg>
