<?xml version="1.0" standalone="no"?>
<!DOCTYPE svg PUBLIC "-//W3C//DTD SVG 20010904//EN"
 "http://www.w3.org/TR/2001/REC-SVG-20010904/DTD/svg10.dtd">
<svg version="1.0" xmlns="http://www.w3.org/2000/svg"
 width="480.000000pt" height="360.000000pt" viewBox="0 0 480.000000 360.000000"
 preserveAspectRatio="xMidYMid meet">
<metadata>
Created by potrace 1.16, written by Peter Selinger 2001-2019
</metadata>
<rect width="1" height="360" fill="#000000"/>
<rect x="479" width="1" height="360" fill="#000000"/>
<rect width="480" height="1" fill="#000000"/>
<rect y="359" width="480" height="1" fill="#000000"/>
<g transform="translate(0.000000,360.000000) scale(0.100000,-0.100000)"
fill="#000000" stroke="none">
<path d="M0 2356 c0 -1084 2 -1247 15 -1272 18 -36 18 -86 0 -289 -9 -98 -15
-283 -15 -477 l0 -318 2400 0 2400 0 0 785 c0 432 -3 785 -7 785 -26 -1 -32
-17 -17 -45 14 -28 14 -30 -8 -46 -18 -14 -20 -20 -10 -32 10 -12 6 -15 -30
-20 -23 -3 -56 -3 -73 0 -26 5 -28 4 -18 -8 17 -21 5 -59 -18 -59 -11 0 -19
-5 -19 -11 0 -6 -6 -9 -14 -6 -10 4 -12 0 -9 -14 6 -20 5 -20 -28 0 -46 28
-73 28 -64 0 6 -17 4 -20 -13 -15 -23 8 -47 -17 -38 -39 3 -8 1 -15 -5 -15 -5
0 -18 19 -28 43 -24 56 -43 70 -83 64 -18 -2 -42 0 -53 5 -14 6 -11 1 8 -17
56 -50 21 -44 -54 10 -73 53 -81 56 -190 76 -149 26 -173 34 -242 81 -32 22
-60 38 -62 36 -3 -2 7 -38 21 -79 22 -63 24 -79 14 -111 -13 -45 -43 -68 -87
-68 -42 0 -49 15 -63 125 -12 97 -15 105 -35 105 -21 0 -33 -30 -48 -117 -12
-73 -15 -78 -40 -81 -20 -3 -29 3 -41 27 -9 16 -16 39 -16 51 0 12 -7 34 -16
51 -8 16 -12 39 -9 50 6 17 4 18 -20 9 -18 -7 -33 -7 -45 0 -14 8 -30 6 -56
-5 -43 -18 -97 -19 -126 -4 -16 9 -19 17 -14 44 11 59 -4 66 -171 69 -39 1
-43 -32 -8 -60 20 -16 25 -27 20 -43 l-6 -21 -32 24 c-18 14 -60 39 -95 56
-51 25 -66 29 -78 19 -11 -9 -18 -8 -32 5 -26 23 -33 20 -26 -9 4 -18 2 -25
-7 -25 -25 0 -37 14 -41 45 -2 25 -8 31 -33 33 -41 5 -77 40 -73 72 3 24 5 25
83 25 44 0 138 -6 208 -13 70 -6 167 -12 215 -12 l87 1 32 43 c37 51 113 199
113 221 0 20 -36 91 -51 100 -6 4 -16 2 -22 -4 -16 -16 -52 -14 -67 4 -8 10
-9 24 -2 47 14 47 14 89 1 105 -7 7 -9 16 -5 20 3 3 0 16 -7 27 -33 51 -27 98
18 140 l25 23 -26 27 c-15 14 -30 26 -34 26 -5 0 -13 14 -19 30 -9 27 -28 37
-56 30 -5 -2 -26 -4 -45 -5 -19 -2 -39 -4 -45 -5 -20 -5 -35 0 -35 11 0 6 -7
17 -15 26 -24 24 -2 40 65 48 33 4 62 11 65 16 3 4 -12 17 -33 28 -21 11 -45
27 -52 36 -12 15 -12 19 5 31 27 20 32 18 50 -16 15 -29 52 -57 62 -47 2 3 -3
19 -11 36 -18 33 -21 71 -7 71 5 0 22 -16 38 -36 24 -30 32 -35 56 -29 18 5
34 20 47 44 25 49 98 115 144 131 44 14 105 7 144 -17 37 -23 112 -104 106
-115 -8 -12 -41 -10 -81 7 l-36 15 7 -52 c3 -29 6 -61 6 -70 0 -24 20 -33 141
-63 57 -14 109 -28 116 -30 17 -6 -14 -65 -33 -65 -9 0 -24 -5 -35 -11 -19
-10 -17 -13 25 -51 25 -22 46 -47 46 -56 0 -10 12 -41 25 -71 14 -30 24 -58
23 -63 -2 -5 -25 12 -50 38 l-47 48 5 -35 c4 -26 1 -41 -15 -59 l-20 -25 -1
28 c0 15 -4 27 -10 27 -5 0 -10 -10 -10 -22 0 -20 -1 -20 -19 -4 -14 13 -21
14 -27 5 -5 -9 -10 -5 -16 11 -8 22 -9 22 -22 4 -14 -18 -15 -18 -35 0 -33 30
-36 -2 -6 -77 36 -88 46 -96 86 -63 61 52 223 117 250 101 14 -9 3 -77 -22
-134 -10 -24 -16 -47 -13 -52 3 -5 31 -9 62 -9 l57 0 -36 -24 c-19 -13 -49
-26 -65 -28 -28 -3 -28 -3 25 -41 l53 -38 108 40 c59 22 127 45 151 50 59 14
346 14 354 1 4 -7 24 -8 53 -4 50 7 51 -4 1 -21 -42 -15 -38 -27 20 -55 28
-14 49 -30 47 -36 -3 -7 14 -20 37 -30 57 -25 72 -41 58 -58 -9 -11 -6 -15 11
-20 13 -3 26 -6 31 -6 4 0 7 412 7 915 l0 915 -2400 0 -2400 0 0 -1244z"/>
<path d="M3695 1946 c62 -42 75 -46 128 -46 63 0 67 9 15 36 -19 10 -42 14
-60 10 -19 -4 -43 1 -66 13 -76 38 -85 32 -17 -13z"/>
<path d="M4785 1740 c-3 -5 -1 -10 4 -10 6 0 11 5 11 10 0 6 -2 10 -4 10 -3 0
-8 -4 -11 -10z"/>
</g>
</svg>
