<?xml version="1.0" standalone="no"?>
<!DOCTYPE svg PUBLIC "-//W3C//DTD SVG 20010904//EN"
 "http://www.w3.org/TR/2001/REC-SVG-20010904/DTD/svg10.dtd">
<svg version="1.0" xmlns="http://www.w3.org/2000/svg"
 width="480.000000pt" height="360.000000pt" viewBox="0 0 480.000000 360.000000"
 preserveAspectRatio="xMidYMid meet">
<metadata>
Created by potrace 1.16, written by Peter Selinger 2001-2019
</metadata>
<rect width="1" height="360" fill="#000000"/>
<rect x="479" width="1" height="360" fill="#000000"/>
<rect width="480" height="1" fill="#000000"/>
<rect y="359" width="480" height="1" fill="#000000"/>
<g transform="translate(0.000000,360.000000) scale(0.100000,-0.100000)"
fill="#000000" stroke="none">
<path d="M0 2169 l0 -1431 103 7 c56 4 103 8 104 9 2 1 6 62 9 134 5 96 4 135
-5 146 -10 12 -6 26 18 74 27 53 34 60 66 65 77 13 92 26 99 85 4 35 2 59 -5
68 -18 22 -4 39 40 52 44 14 64 50 41 76 -9 12 -8 20 5 40 22 33 27 32 43 -1
8 -18 9 -30 2 -37 -27 -27 -1 -80 44 -92 31 -7 44 -30 27 -47 -12 -12 -15 -96
-3 -112 10 -14 50 -33 91 -42 29 -7 36 -16 57 -68 20 -47 23 -65 14 -83 -5
-13 -10 -77 -10 -143 0 -109 2 -120 18 -117 14 3 18 18 22 98 5 93 6 96 53
168 26 40 51 71 56 68 5 -3 28 -38 52 -78 38 -64 44 -81 47 -144 l4 -72 137
-6 c75 -4 220 -11 323 -15 l187 -9 68 -61 c37 -34 72 -61 76 -61 5 0 7 82 5
183 l-3 182 48 68 c26 37 50 67 52 67 3 0 25 -30 50 -68 l46 -67 -7 -502 -7
-503 1416 0 1417 0 0 1800 0 1800 -2400 0 -2400 0 0 -1431z m3181 661 c28 -15
52 -68 45 -101 -3 -15 2 -48 10 -73 17 -50 16 -49 149 -77 82 -17 90 -24 62
-60 -14 -18 -35 -31 -59 -35 -40 -7 -49 -18 -22 -28 10 -4 14 -12 10 -22 -4
-9 4 -28 19 -46 25 -29 27 -54 3 -30 -17 17 -51 15 -45 -1 3 -7 -4 -19 -15
-26 -16 -10 -18 -15 -7 -29 11 -14 11 -15 -1 -4 -8 6 -25 12 -38 12 -22 0 -23
-3 -21 -52 1 -29 -2 -62 -6 -72 -8 -19 -8 -19 21 1 42 29 121 62 167 70 l40 6
-7 -39 c-4 -21 -16 -56 -27 -78 -11 -21 -19 -40 -17 -41 2 -2 74 -5 161 -7
l158 -3 -27 -21 -27 -22 24 -15 c13 -8 34 -18 47 -22 18 -5 21 -10 12 -20 -13
-16 -9 -18 52 -35 49 -13 56 -30 12 -30 -32 0 -31 -17 3 -33 15 -6 36 -21 47
-31 19 -19 18 -19 -33 -12 -33 4 -51 3 -51 -4 0 -5 5 -10 10 -10 6 0 10 -5 10
-12 0 -6 10 -22 22 -35 17 -19 19 -23 5 -17 -20 7 -23 -6 -5 -24 9 -9 7 -12
-12 -12 -22 0 -22 -1 -6 -19 12 -14 14 -20 5 -23 -7 -2 11 -14 39 -26 54 -24
69 -38 28 -28 -14 3 -26 1 -28 -5 -3 -8 -16 -6 -42 5 -22 9 -41 14 -43 12 -9
-9 19 -46 35 -46 9 0 24 -5 32 -11 11 -8 1 -9 -39 -4 -45 5 -53 4 -48 -9 3 -8
1 -17 -6 -20 -9 -3 -8 -7 3 -15 30 -21 1 -21 -34 0 -43 25 -55 20 -32 -13 27
-39 19 -55 -11 -21 -16 17 -40 39 -54 48 -26 15 -27 15 -33 -10 -4 -14 -4 -30
-1 -34 2 -5 -3 -24 -12 -42 l-17 -34 -11 35 c-13 46 -23 60 -41 60 -8 0 -32
11 -52 25 -20 14 -41 25 -47 25 -5 0 -11 -21 -13 -47 -5 -78 -64 -120 -105
-75 -9 9 -21 47 -27 84 -13 82 -18 98 -35 98 -7 0 -18 7 -25 15 -7 9 -22 15
-33 13 -16 -2 -25 -21 -44 -88 -14 -47 -30 -91 -37 -98 -28 -29 -76 26 -76 87
0 25 -5 30 -32 37 -71 15 -80 14 -74 -9 4 -12 10 -37 13 -56 9 -49 -11 -32
-27 23 -7 27 -22 52 -36 61 -13 8 -24 24 -24 35 0 26 -16 26 -23 -1 -9 -33
-32 -17 -29 20 1 22 -2 31 -13 31 -18 0 -40 43 -32 63 3 8 23 17 44 20 27 5
49 18 74 46 21 21 57 46 82 56 42 16 47 22 58 64 21 80 15 122 -20 151 -21 16
-31 34 -31 51 0 15 -7 43 -15 63 -14 32 -14 40 1 74 33 76 5 222 -43 222 -12
0 -32 -4 -45 -9 -13 -4 -35 -11 -50 -15 -23 -5 -26 -3 -21 11 4 10 2 14 -4 10
-7 -4 -10 -1 -9 8 3 20 31 39 79 54 44 15 46 23 11 46 -33 21 -24 31 14 16 42
-17 85 11 118 77 46 92 116 133 175 102z"/>
<path d="M3705 1602 c6 -5 21 -13 34 -17 17 -5 22 -4 19 6 -3 8 -18 15 -34 17
-19 2 -25 0 -19 -6z"/>
</g>
</svg>
