<?xml version="1.0" standalone="no"?>
<!DOCTYPE svg PUBLIC "-//W3C//DTD SVG 20010904//EN"
 "http://www.w3.org/TR/2001/REC-SVG-20010904/DTD/svg10.dtd">
<svg version="1.0" xmlns="http://www.w3.org/2000/svg"
 width="480.000000pt" height="360.000000pt" viewBox="0 0 480.000000 360.000000"
 preserveAspectRatio="xMidYMid meet">
<metadata>
Created by potrace 1.16, written by Peter Selinger 2001-2019
</metadata>
<rect width="1" height="360" fill="#000000"/>
<rect x="479" width="1" height="360" fill="#000000"/>
<rect width="480" height="1" fill="#000000"/>
<rect y="359" width="480" height="1" fill="#000000"/>
<g transform="translate(0.000000,360.000000) scale(0.100000,-0.100000)"
fill="#000000" stroke="none">
<path d="M2527 2459 c-92 -22 -150 -71 -172 -146 -20 -70 -13 -113 25 -157 23
-26 30 -43 30 -76 0 -35 2 -41 14 -31 11 10 16 8 20 -6 3 -10 16 -23 28 -28
31 -14 23 -28 -24 -42 -64 -19 -88 -39 -88 -76 0 -24 -5 -33 -17 -34 -38 -3
-118 -24 -126 -32 -5 -5 -6 -15 -1 -22 4 -8 10 -83 11 -169 2 -85 8 -159 13
-164 17 -17 11 -72 -20 -186 -33 -123 -31 -146 21 -169 36 -16 46 -52 29 -100
-16 -44 -120 -282 -163 -371 -20 -40 -32 -82 -33 -110 -1 -25 -5 -61 -9 -81
-6 -33 -2 -41 62 -126 37 -50 71 -89 75 -87 4 2 9 -4 12 -13 8 -22 142 -110
176 -115 21 -3 25 -11 35 -58 l10 -55 73 -3 c41 -2 71 1 68 6 -2 4 -1 30 3 58
8 51 12 47 27 -21 l9 -40 78 -3 78 -3 -7 48 c-3 26 -11 56 -16 66 -5 10 -7 22
-3 25 4 4 49 17 101 28 132 31 234 100 234 160 0 14 9 46 21 71 16 36 19 56
14 91 -11 74 -60 213 -111 313 -25 51 -68 158 -95 236 -47 139 -86 226 -128
288 -20 29 -20 30 -2 50 15 16 20 44 25 135 4 63 12 120 17 126 6 8 5 21 -2
38 -9 20 -9 32 -1 51 7 14 12 34 12 45 0 10 7 31 17 47 25 45 11 79 -47 115
-28 17 -50 36 -50 41 0 6 13 34 29 62 29 51 29 51 21 163 -9 122 -23 158 -82
207 -62 52 -124 70 -191 54z"/>
</g>
</svg>
