<?xml version="1.0" standalone="no"?>
<!DOCTYPE svg PUBLIC "-//W3C//DTD SVG 20010904//EN"
 "http://www.w3.org/TR/2001/REC-SVG-20010904/DTD/svg10.dtd">
<svg version="1.0" xmlns="http://www.w3.org/2000/svg"
 width="480.000000pt" height="360.000000pt" viewBox="0 0 480.000000 360.000000"
 preserveAspectRatio="xMidYMid meet">
<metadata>
Created by potrace 1.16, written by Peter Selinger 2001-2019
</metadata>
<rect width="1" height="360" fill="#000000"/>
<rect x="479" width="1" height="360" fill="#000000"/>
<rect width="480" height="1" fill="#000000"/>
<rect y="359" width="480" height="1" fill="#000000"/>
<g transform="translate(0.000000,360.000000) scale(0.100000,-0.100000)"
fill="#000000" stroke="none">
<path d="M0 1800 l0 -1800 2400 0 2400 0 0 1800 0 1800 -2400 0 -2400 0 0
-1800z m2425 920 c4 -7 24 -8 50 -4 42 6 45 5 64 -27 12 -19 21 -46 21 -61 0
-24 5 -28 42 -35 29 -6 44 -14 46 -27 4 -16 -1 -17 -49 -11 l-52 7 8 -33 c24
-110 24 -113 4 -155 -32 -67 -44 -73 -119 -61 -36 5 -85 9 -110 9 -25 -1 -81
3 -125 9 -115 16 -154 4 -228 -73 -57 -59 -57 -59 -92 -48 -20 7 -53 9 -74 5
-51 -8 -74 5 -105 58 -38 67 -41 108 -11 164 14 26 25 59 25 73 1 14 14 49 29
79 l28 54 73 -2 c55 -2 80 -7 98 -22 32 -25 74 -24 97 1 10 11 30 20 44 20 48
1 202 39 254 64 59 28 73 30 82 16z"/>
</g>
</svg>
