<?xml version="1.0" standalone="no"?>
<!DOCTYPE svg PUBLIC "-//W3C//DTD SVG 20010904//EN"
 "http://www.w3.org/TR/2001/REC-SVG-20010904/DTD/svg10.dtd">
<svg version="1.0" xmlns="http://www.w3.org/2000/svg"
 width="480.000000pt" height="360.000000pt" viewBox="0 0 480.000000 360.000000"
 preserveAspectRatio="xMidYMid meet">
<metadata>
Created by potrace 1.16, written by Peter Selinger 2001-2019
</metadata>
<rect width="1" height="360" fill="#000000"/>
<rect x="479" width="1" height="360" fill="#000000"/>
<rect width="480" height="1" fill="#000000"/>
<rect y="359" width="480" height="1" fill="#000000"/>
<g transform="translate(0.000000,360.000000) scale(0.100000,-0.100000)"
fill="#000000" stroke="none">
<path d="M0 1835 c0 -1314 3 -1765 11 -1765 7 0 17 -7 23 -15 7 -9 38 -17 84
-21 48 -5 76 -12 79 -21 4 -11 385 -13 2304 -13 l2299 0 0 484 0 484 -55 31
c-71 40 -99 42 -63 4 28 -29 61 -91 73 -133 7 -23 3 -21 -36 16 -77 71 -235
181 -246 171 -9 -9 17 -47 32 -47 21 0 19 -13 -4 -27 -17 -11 -18 -16 -7 -45
6 -18 17 -44 25 -56 15 -28 9 -39 -9 -17 -24 29 -36 15 -47 -51 -16 -94 -37
-110 -30 -24 3 43 2 57 -4 42 -13 -33 -36 -9 -31 32 3 24 1 28 -7 16 -8 -12
-11 -8 -11 17 0 25 -9 39 -45 69 -25 20 -48 34 -51 31 -3 -3 8 -13 25 -23 17
-10 31 -22 31 -27 0 -16 -45 5 -113 51 -91 62 -108 72 -134 72 -27 0 -27 3 -8
-49 8 -22 10 -41 5 -41 -6 0 -10 -7 -10 -15 0 -22 -15 -18 -32 7 -14 20 -14
18 -7 -32 11 -78 11 -110 -1 -110 -5 0 -15 20 -21 45 l-12 46 -18 -31 c-23
-36 -75 -70 -109 -70 -36 0 -86 34 -105 70 -9 17 -23 70 -31 118 -18 108 -42
192 -53 192 -5 0 -28 16 -51 35 -23 19 -47 35 -54 35 -6 0 -17 -17 -23 -38 -6
-20 -31 -109 -57 -197 -57 -199 -79 -221 -150 -150 -41 41 -71 129 -63 181 8
49 -3 105 -22 111 -9 3 -31 12 -48 21 -26 13 -35 14 -45 4 -9 -9 -9 -15 0 -24
13 -13 17 -78 4 -78 -4 0 -18 21 -31 46 -23 43 -63 74 -95 74 -8 0 -17 8 -19
18 -4 14 -6 13 -12 -6 -5 -14 -14 -22 -24 -20 -22 4 -41 47 -31 72 6 16 1 26
-22 46 -18 16 -31 38 -35 62 -7 46 9 68 48 68 25 0 31 7 50 50 27 63 105 136
187 175 56 26 60 31 66 69 4 22 15 59 25 82 21 47 24 31 -44 246 l-37 117 -37
-3 c-33 -3 -37 -8 -54 -52 -17 -46 -18 -59 -3 -95 6 -13 0 -18 -24 -21 -41 -6
-66 12 -53 38 6 10 8 44 6 75 l-5 56 -59 -28 c-33 -16 -70 -29 -84 -29 -26 0
-55 33 -55 62 0 22 131 170 167 188 16 8 36 21 45 28 10 8 46 22 80 31 l62 16
-3 65 c-1 38 -10 79 -20 100 -15 30 -24 36 -62 40 -24 3 -60 0 -79 -5 -19 -6
-57 -11 -85 -10 -44 0 -50 3 -56 25 -4 14 -7 22 -8 18 -1 -10 -41 24 -41 34 0
16 49 52 110 81 81 38 77 33 55 57 -27 30 -10 37 43 18 l47 -17 30 28 c16 15
41 34 55 43 17 10 36 40 54 86 40 104 98 187 153 223 43 27 55 30 107 26 56
-3 62 -6 98 -47 40 -45 48 -82 24 -109 -12 -14 -9 -30 19 -114 17 -53 35 -100
39 -104 4 -5 89 -21 189 -38 l182 -30 3 -31 c2 -23 -6 -41 -30 -72 -18 -22
-39 -41 -46 -41 -8 -1 -22 -11 -32 -23 -19 -23 -19 -23 37 -74 l57 -50 -67 4
c-37 2 -75 1 -84 -3 -16 -6 -15 -8 6 -19 24 -13 24 -14 3 -25 -11 -6 -33 -11
-48 -11 -22 0 -25 -3 -16 -12 17 -17 15 -29 -3 -22 -26 11 -16 -15 13 -30 26
-15 26 -15 4 -16 -13 0 -32 5 -43 10 -16 9 -19 7 -19 -10 0 -18 -3 -19 -20
-10 -11 6 -21 7 -21 3 -1 -4 -3 -18 -4 -31 -1 -13 -7 -28 -14 -35 -6 -6 -11
-43 -11 -84 0 -40 -5 -82 -12 -93 -23 -36 0 -32 77 15 92 55 208 104 277 114
l51 8 -7 -56 c-3 -31 -9 -68 -12 -83 -5 -23 -2 -28 21 -34 15 -4 88 -1 164 6
101 9 151 10 191 2 81 -16 219 -18 263 -3 60 20 55 5 -12 -36 -33 -21 -61 -40
-61 -43 0 -5 134 -80 144 -80 3 0 6 367 6 815 l0 815 -2400 0 -2400 0 0 -1765z"/>
<path d="M3165 1525 c-42 -18 -72 -52 -57 -67 8 -8 22 0 53 31 23 22 40 43 38
45 -2 2 -18 -3 -34 -9z"/>
<path d="M4725 1089 c6 -16 63 -44 72 -36 3 4 3 13 -1 22 -4 11 -12 14 -26 10
-12 -4 -28 -1 -36 6 -12 9 -13 9 -9 -2z"/>
</g>
</svg>
