<?xml version="1.0" standalone="no"?>
<!DOCTYPE svg PUBLIC "-//W3C//DTD SVG 20010904//EN"
 "http://www.w3.org/TR/2001/REC-SVG-20010904/DTD/svg10.dtd">
<svg version="1.0" xmlns="http://www.w3.org/2000/svg"
 width="480.000000pt" height="360.000000pt" viewBox="0 0 480.000000 360.000000"
 preserveAspectRatio="xMidYMid meet">
<metadata>
Created by potrace 1.16, written by Peter Selinger 2001-2019
</metadata>
<rect width="1" height="360" fill="#000000"/>
<rect x="479" width="1" height="360" fill="#000000"/>
<rect width="480" height="1" fill="#000000"/>
<rect y="359" width="480" height="1" fill="#000000"/>
<g transform="translate(0.000000,360.000000) scale(0.100000,-0.100000)"
fill="#000000" stroke="none">
<path d="M2065 2877 c-13 -21 -13 -28 4 -72 16 -42 49 -202 113 -538 8 -45 8
-63 -2 -81 -9 -18 -10 -33 -2 -57 6 -19 13 -51 17 -71 3 -21 12 -41 19 -45 16
-10 36 -152 43 -313 3 -69 11 -131 17 -139 6 -8 16 -48 22 -90 11 -73 11 -77
-10 -94 -14 -13 -17 -20 -8 -24 6 -2 12 -12 12 -22 0 -9 5 -22 12 -29 8 -8 8
-12 1 -12 -6 0 -10 -14 -9 -31 1 -23 8 -34 23 -40 13 -4 25 -18 27 -31 5 -24
49 -303 66 -423 6 -38 17 -99 24 -134 8 -36 11 -74 7 -85 -5 -12 -9 -77 -10
-145 -1 -69 -4 -127 -7 -130 -9 -9 -24 23 -24 52 0 39 -17 67 -41 67 -25 0
-36 -27 -20 -53 24 -38 50 -149 40 -174 -7 -18 -1 -38 29 -94 l37 -71 344 6
c265 4 348 9 358 19 7 7 20 45 28 84 15 74 9 148 -18 198 -15 29 -16 77 -1 92
16 17 37 114 37 173 0 64 -11 109 -38 158 -22 40 -23 49 -18 165 2 67 0 194
-5 282 -8 143 -16 186 -46 256 -4 9 -1 22 7 30 7 8 27 73 43 144 27 119 29
146 29 320 0 105 -4 206 -9 225 -4 19 -15 82 -23 140 -26 188 -113 290 -247
290 -115 0 -232 -68 -278 -160 -27 -56 -48 -187 -28 -175 6 3 10 -5 10 -19 0
-14 3 -26 8 -26 4 0 39 -29 77 -65 l70 -65 -47 0 c-51 0 -83 -23 -94 -67 -4
-13 -10 -23 -14 -23 -5 0 -27 30 -50 66 l-42 66 -43 -5 c-42 -6 -45 -5 -76 34
-18 22 -49 51 -70 64 -31 20 -39 32 -48 75 -23 105 -70 418 -77 505 -4 50 -11
96 -17 103 -5 6 -27 12 -48 12 -29 0 -42 -6 -54 -23z m555 -1167 c0 -23 6 -53
14 -68 7 -15 17 -61 20 -102 4 -41 9 -91 12 -111 l5 -36 -134 2 c-74 2 -139 5
-145 9 -5 3 -12 22 -15 43 -4 21 -9 49 -13 63 -5 22 0 28 33 43 22 9 75 55
123 105 47 49 88 90 93 91 4 0 7 -17 7 -39z m-125 -553 c4 -23 25 -83 46 -133
l40 -91 -26 -143 c-31 -174 -40 -193 -50 -115 -4 32 -11 70 -17 84 -14 38 -78
398 -78 442 0 4 12 12 28 17 34 12 48 -3 57 -61z"/>
</g>
</svg>
