<?xml version="1.0" standalone="no"?>
<!DOCTYPE svg PUBLIC "-//W3C//DTD SVG 20010904//EN"
 "http://www.w3.org/TR/2001/REC-SVG-20010904/DTD/svg10.dtd">
<svg version="1.0" xmlns="http://www.w3.org/2000/svg"
 width="480.000000pt" height="360.000000pt" viewBox="0 0 480.000000 360.000000"
 preserveAspectRatio="xMidYMid meet">
<metadata>
Created by potrace 1.16, written by Peter Selinger 2001-2019
</metadata>
<rect width="1" height="360" fill="#000000"/>
<rect x="479" width="1" height="360" fill="#000000"/>
<rect width="480" height="1" fill="#000000"/>
<rect y="359" width="480" height="1" fill="#000000"/>
<g transform="translate(0.000000,360.000000) scale(0.100000,-0.100000)"
fill="#000000" stroke="none">
<path d="M1422 3290 c-19 -4 -46 -19 -60 -33 -15 -13 -32 -23 -38 -20 -6 2
-20 -15 -29 -39 -13 -29 -20 -37 -22 -25 -12 48 -35 -5 -54 -125 -6 -34 -22
-77 -39 -105 -34 -53 -38 -73 -14 -73 11 0 14 -5 9 -17 -16 -39 -16 -53 -2
-67 8 -8 18 -37 22 -63 4 -26 18 -82 32 -124 l25 -77 -35 -113 c-33 -107 -50
-175 -60 -242 -4 -23 -1 -27 14 -22 12 4 19 1 19 -7 0 -18 60 -121 67 -114 3
3 1 19 -5 36 -6 16 -13 58 -16 93 l-6 62 14 -41 c17 -49 44 -104 53 -104 3 0
3 16 0 35 -7 46 4 44 45 -6 19 -22 41 -41 51 -43 24 -3 67 -47 67 -68 0 -10
-7 -21 -15 -24 -22 -9 -19 -28 16 -84 28 -45 30 -54 19 -79 -7 -17 -22 -32
-36 -35 -55 -14 -244 -226 -244 -273 0 -8 -23 -40 -50 -70 -28 -31 -57 -68
-65 -83 -61 -117 -22 -256 81 -296 25 -9 54 -30 66 -47 20 -28 21 -37 14 -176
-8 -183 -22 -244 -75 -323 -22 -33 -41 -67 -41 -75 0 -7 -16 -30 -35 -52 -37
-41 -41 -57 -30 -136 6 -42 2 -64 -24 -133 -17 -46 -31 -88 -31 -93 0 -5 227
-9 578 -9 l577 0 43 93 c58 124 176 317 180 294 2 -9 -6 -78 -17 -152 -12 -74
-21 -157 -21 -185 l0 -50 211 0 211 0 -39 48 c-38 46 -39 49 -41 136 -3 103 3
103 60 8 48 -81 61 -117 56 -157 l-4 -35 304 0 c280 0 304 1 298 17 -4 9 -11
113 -17 232 -16 347 -24 384 -111 498 -33 43 -39 59 -35 85 2 18 -3 86 -13
150 -13 93 -14 115 -3 107 19 -17 43 -3 43 24 0 14 -7 44 -15 67 l-15 42 26
-6 25 -7 -21 29 c-19 26 -20 34 -11 69 6 23 18 46 25 53 12 9 17 4 26 -29 6
-23 14 -41 18 -41 4 0 7 40 7 89 0 50 4 93 7 97 4 3 27 2 50 -4 71 -18 316
-44 423 -45 108 -1 157 13 163 47 2 10 1 48 -3 83 -6 55 -12 71 -42 104 -38
42 -171 113 -380 202 l-111 48 -6 82 c-3 45 -8 126 -10 179 l-5 98 27 6 c36 9
71 41 88 81 48 112 -35 263 -146 263 -25 0 -54 7 -65 16 -29 22 -168 63 -252
75 -40 5 -89 17 -108 25 -130 54 -270 -36 -266 -170 4 -103 2 -116 -22 -158
-14 -24 -51 -104 -83 -178 -31 -74 -60 -138 -64 -143 -4 -4 -77 -6 -164 -5
l-158 3 31 39 c29 36 31 37 32 15 1 -13 1 -31 0 -39 -1 -8 17 5 40 30 43 45
43 45 50 20 6 -23 9 -20 33 33 14 32 26 62 26 67 0 5 5 21 10 36 19 49 22 17
5 -51 -9 -36 -15 -68 -12 -71 7 -7 95 216 107 271 13 60 8 102 -24 175 -13 30
-32 75 -42 100 -20 46 -86 142 -134 195 -19 20 -30 46 -35 79 -10 71 -76 135
-171 166 -38 13 -81 31 -96 42 -15 10 -53 31 -85 46 -53 24 -68 27 -168 26
-84 -1 -126 -6 -175 -22 -81 -27 -80 -27 -80 2 0 29 -24 56 -48 55 -9 -1 -32
-5 -50 -9z m-104 -187 c-2 -10 -11 -19 -21 -21 -16 -3 -17 -1 -7 17 13 25 33
28 28 4z m889 -978 c-7 -32 -15 -45 -27 -45 -10 0 -33 -3 -51 -6 l-34 -6 27
25 c15 14 24 27 21 30 -3 3 4 3 15 0 14 -3 25 3 37 21 10 14 18 26 20 26 1 0
-2 -20 -8 -45z m-721 -112 c-7 -7 -26 7 -26 19 0 6 6 6 15 -2 9 -7 13 -15 11
-17z m968 -362 c4 -5 3 -17 -1 -27 -6 -16 -7 -16 -20 2 -7 10 -13 21 -13 26 0
11 27 10 34 -1z m-363 -728 c27 -27 49 -51 49 -55 0 -9 -220 -391 -232 -403
-16 -16 0 94 29 193 45 158 94 312 99 312 3 0 28 -21 55 -47z"/>
</g>
</svg>
