<?xml version="1.0" standalone="no"?>
<!DOCTYPE svg PUBLIC "-//W3C//DTD SVG 20010904//EN"
 "http://www.w3.org/TR/2001/REC-SVG-20010904/DTD/svg10.dtd">
<svg version="1.0" xmlns="http://www.w3.org/2000/svg"
 width="480.000000pt" height="360.000000pt" viewBox="0 0 480.000000 360.000000"
 preserveAspectRatio="xMidYMid meet">
<metadata>
Created by potrace 1.16, written by Peter Selinger 2001-2019
</metadata>
<rect width="1" height="360" fill="#000000"/>
<rect x="479" width="1" height="360" fill="#000000"/>
<rect width="480" height="1" fill="#000000"/>
<rect y="359" width="480" height="1" fill="#000000"/>
<g transform="translate(0.000000,360.000000) scale(0.100000,-0.100000)"
fill="#000000" stroke="none">
<path d="M0 2750 c0 -467 1 -850 3 -850 2 0 68 9 148 20 354 49 560 110 875
259 82 39 160 71 173 71 29 0 432 -395 556 -545 215 -261 346 -338 596 -352
l105 -6 42 88 c98 203 197 312 350 384 48 23 98 47 112 54 27 14 30 35 16 95
-7 32 -7 32 28 32 32 0 36 3 36 25 0 30 -8 31 -49 8 -22 -13 -36 -34 -51 -75
-24 -66 -40 -75 -40 -23 0 44 -19 46 -53 5 -17 -20 -31 -28 -42 -24 -13 5 -15
16 -9 60 3 30 3 54 -2 54 -4 0 -25 -17 -46 -37 -42 -41 -49 -33 -17 22 12 19
18 42 15 51 -4 12 -19 4 -66 -36 -64 -53 -87 -65 -53 -27 25 26 63 100 63 121
0 15 -21 26 -49 26 -36 0 -41 21 -15 59 13 19 24 45 24 57 0 26 -30 54 -58 54
-11 0 -24 5 -27 10 -3 6 -11 10 -17 10 -7 0 1 -13 17 -30 33 -35 26 -39 -16
-9 -22 16 -27 17 -23 5 9 -23 -23 -10 -59 23 -24 22 -27 23 -21 6 6 -16 3 -15
-18 6 -13 15 -31 48 -38 75 -19 70 -22 72 -41 28 -14 -30 -18 -34 -18 -16 -1
27 -4 27 -59 1 l-44 -22 -29 22 c-16 12 -34 19 -39 16 -12 -7 -48 29 -60 61
-8 20 -6 26 8 32 26 10 130 99 186 160 l50 53 -22 62 c-30 84 -29 142 1 162
13 8 38 18 56 21 28 6 36 15 57 62 38 86 98 157 186 223 160 118 298 166 454
155 127 -9 194 -22 304 -59 93 -31 97 -34 196 -132 79 -78 109 -115 135 -170
32 -66 34 -76 34 -175 0 -75 -5 -120 -18 -157 -18 -50 -18 -53 1 -90 39 -75
110 -160 154 -184 34 -19 44 -31 46 -54 2 -17 -4 -39 -12 -50 -14 -20 -14 -20
-38 1 -20 18 -128 49 -128 37 0 -3 9 -18 21 -34 l21 -30 -26 7 c-32 8 -32 6
-1 -51 28 -50 23 -54 -32 -25 -58 31 -70 26 -38 -16 27 -35 27 -38 10 -50 -10
-7 -15 -20 -12 -29 8 -20 -5 -19 -35 4 -39 31 -52 14 -39 -48 20 -93 15 -98
-45 -48 -54 46 -75 39 -69 -21 2 -26 7 -56 11 -67 7 -20 7 -20 -14 -2 -11 11
-25 16 -30 13 -5 -3 -22 8 -37 24 -38 39 -49 38 -41 -6 4 -19 2 -51 -4 -69
-19 -57 -7 -72 94 -119 51 -24 108 -59 127 -78 21 -21 59 -87 99 -172 l65
-138 130 6 c72 4 162 14 200 23 46 10 127 16 235 17 149 1 172 4 242 27 42 15
108 48 147 73 l71 48 0 979 0 979 -2400 0 -2400 0 0 -850z"/>
<path d="M1070 2044 c-92 -56 -85 -50 -70 -69 7 -8 10 -27 7 -42 -5 -22 0 -33
22 -53 28 -25 96 -178 94 -210 -1 -8 -20 -89 -42 -180 -22 -91 -56 -230 -75
-309 -19 -79 -39 -148 -46 -155 -16 -16 -36 14 -50 77 -7 29 -25 106 -40 172
-16 66 -41 172 -55 235 -15 63 -30 126 -35 140 -10 34 57 205 90 230 24 18 22
58 -3 46 -93 -42 -210 -83 -293 -104 -90 -22 -103 -28 -109 -49 -4 -19 0 -29
19 -44 14 -11 38 -55 60 -109 l35 -91 -29 -117 c-15 -64 -49 -206 -75 -314
-46 -194 -61 -232 -83 -206 -14 17 -165 606 -164 636 3 39 63 172 89 196 20
19 22 26 14 49 -12 32 -8 32 -189 10 l-142 -17 0 -93 c0 -66 5 -106 19 -140
18 -47 18 -50 0 -123 -17 -69 -18 -131 -19 -742 l0 -668 1149 0 c1086 0 1150
1 1155 18 3 9 19 75 35 145 17 70 45 163 62 205 25 62 36 119 60 297 16 121
37 261 46 310 10 50 18 94 18 100 0 5 -18 13 -39 17 -22 5 -42 10 -44 12 -2 3
15 23 37 45 56 56 54 65 -17 57 -33 -4 -71 -2 -85 3 -33 13 -34 2 -3 -28 13
-12 38 -62 56 -112 l32 -89 -82 -317 c-45 -175 -87 -324 -92 -331 -17 -20 -27
-14 -37 26 -29 105 -124 583 -124 622 -1 54 43 162 83 205 36 38 27 68 -27 90
-38 16 -225 66 -229 62 -2 -1 11 -44 29 -94 l31 -91 -78 -313 c-43 -173 -83
-322 -88 -331 -22 -44 -38 -10 -72 152 -13 63 -43 202 -66 308 l-41 192 36 93
c27 71 42 97 64 110 24 14 28 22 27 60 -2 34 -13 59 -56 122 -57 84 -206 242
-217 232 -3 -4 1 -15 10 -24 20 -24 67 -148 67 -181 0 -57 -152 -655 -167
-660 -19 -6 -38 49 -79 233 -20 94 -43 195 -50 225 -47 213 -46 197 -19 272
33 92 51 125 75 138 13 7 20 21 20 40 0 16 5 32 11 35 6 4 -12 27 -44 56 -31
27 -79 78 -107 114 -35 45 -59 65 -73 65 -12 0 -56 -21 -97 -46z"/>
<path d="M4635 1439 c-122 -22 -186 -42 -200 -62 -13 -19 -11 -23 18 -56 18
-20 45 -69 61 -109 l30 -73 -23 -102 c-12 -56 -34 -149 -47 -207 -14 -58 -34
-145 -46 -195 -23 -102 -40 -129 -57 -97 -6 11 -20 56 -30 99 -11 43 -45 176
-76 296 l-57 217 32 78 c18 42 44 90 59 106 l26 29 -50 -7 c-27 -3 -114 -9
-192 -12 l-143 -7 0 -27 c0 -16 6 -30 13 -33 7 -3 31 -46 52 -96 l38 -91 -43
-188 c-69 -307 -98 -423 -104 -430 -17 -17 -38 42 -90 253 -31 127 -60 238
-64 249 -9 22 -6 -67 11 -299 13 -191 16 -468 5 -592 l-7 -83 525 0 524 0 -3
357 -3 358 -48 175 c-26 96 -60 221 -76 277 l-28 103 34 87 c19 47 34 88 34
90 0 4 -16 2 -75 -8z"/>
<path d="M3756 1316 c-28 -23 -28 -26 -16 -56 l13 -31 28 33 c29 34 39 78 17
78 -7 -1 -26 -11 -42 -24z"/>
</g>
</svg>
