<?xml version="1.0" standalone="no"?>
<!DOCTYPE svg PUBLIC "-//W3C//DTD SVG 20010904//EN"
 "http://www.w3.org/TR/2001/REC-SVG-20010904/DTD/svg10.dtd">
<svg version="1.0" xmlns="http://www.w3.org/2000/svg"
 width="480.000000pt" height="360.000000pt" viewBox="0 0 480.000000 360.000000"
 preserveAspectRatio="xMidYMid meet">
<metadata>
Created by potrace 1.16, written by Peter Selinger 2001-2019
</metadata>
<rect width="1" height="360" fill="#000000"/>
<rect x="479" width="1" height="360" fill="#000000"/>
<rect width="480" height="1" fill="#000000"/>
<rect y="359" width="480" height="1" fill="#000000"/>
<g transform="translate(0.000000,360.000000) scale(0.100000,-0.100000)"
fill="#000000" stroke="none">
<path d="M2711 3071 c-55 -59 -67 -130 -97 -561 -15 -223 -38 -412 -55 -457
-10 -26 -24 -30 -36 -9 -13 21 -105 83 -136 90 -32 8 -227 -10 -273 -25 -46
-15 -75 -51 -94 -121 -16 -59 -19 -63 -61 -79 -24 -9 -66 -22 -94 -28 -85 -21
-144 -81 -163 -169 -6 -26 -20 -50 -36 -63 -48 -38 -123 -215 -133 -314 -9
-90 54 -151 155 -149 46 1 53 -1 57 -20 3 -11 16 -72 30 -135 87 -393 238
-785 369 -957 l53 -69 834 -2 834 -2 -31 27 c-58 50 -729 629 -759 655 l-29
25 41 103 c84 213 103 300 103 479 0 152 -26 429 -47 487 -20 58 -53 104 -91
128 l-32 20 4 280 c2 154 9 325 15 380 6 55 16 141 22 191 11 101 1 156 -25
135 -20 -17 -116 -23 -133 -10 -10 9 -13 5 -14 -22 0 -20 -10 12 -23 74 -14
61 -31 116 -41 127 -28 31 -81 26 -114 -9z"/>
</g>
</svg>
