<?xml version="1.0" standalone="no"?>
<!DOCTYPE svg PUBLIC "-//W3C//DTD SVG 20010904//EN"
 "http://www.w3.org/TR/2001/REC-SVG-20010904/DTD/svg10.dtd">
<svg version="1.0" xmlns="http://www.w3.org/2000/svg"
 width="480.000000pt" height="360.000000pt" viewBox="0 0 480.000000 360.000000"
 preserveAspectRatio="xMidYMid meet">
<metadata>
Created by potrace 1.16, written by Peter Selinger 2001-2019
</metadata>
<rect width="1" height="360" fill="#000000"/>
<rect x="479" width="1" height="360" fill="#000000"/>
<rect width="480" height="1" fill="#000000"/>
<rect y="359" width="480" height="1" fill="#000000"/>
<g transform="translate(0.000000,360.000000) scale(0.100000,-0.100000)"
fill="#000000" stroke="none">
<path d="M0 1800 l0 -1800 2400 0 2400 0 0 1800 0 1800 -2400 0 -2400 0 0
-1800z m2490 1009 c0 -6 -11 -33 -24 -59 l-24 -48 39 -17 c38 -18 53 -45 24
-45 -11 0 -10 -7 6 -35 12 -20 17 -40 13 -47 -5 -7 -9 -21 -9 -31 -2 -22 -33
-46 -62 -47 -12 0 -28 -7 -36 -15 -8 -8 -17 -12 -20 -9 -2 3 -10 -23 -16 -58
-12 -72 -11 -75 59 -110 24 -13 47 -30 51 -38 51 -101 92 -201 92 -225 0 -18
-16 -57 -42 -99 -28 -45 -41 -76 -37 -90 3 -12 -7 -44 -24 -78 -17 -32 -30
-63 -30 -69 0 -5 16 -45 36 -87 20 -42 47 -104 60 -137 12 -33 31 -78 42 -100
11 -22 25 -65 32 -95 7 -30 22 -73 35 -95 12 -22 48 -91 80 -154 l59 -113 -22
-17 c-20 -15 -21 -18 -7 -45 14 -26 14 -30 -2 -42 -12 -10 -33 -12 -64 -8 -34
4 -49 2 -59 -10 -19 -24 -70 -45 -115 -48 l-40 -3 0 -90 c0 -49 3 -169 5 -266
4 -156 3 -178 -13 -202 -29 -44 -87 -36 -114 17 -14 26 -17 64 -18 236 l0 205
-65 -1 c-55 -1 -73 -6 -118 -33 -55 -35 -79 -40 -124 -28 -26 7 -26 6 -35 -61
-4 -37 -7 -103 -5 -146 3 -99 -11 -126 -65 -126 -42 0 -139 52 -148 79 -9 28
12 73 47 102 29 24 31 31 37 115 5 76 3 95 -14 131 -20 42 -48 63 -85 63 -16
0 -20 7 -20 34 0 19 -7 39 -16 47 -37 30 3 185 104 405 28 60 53 123 57 140 6
28 6 28 -10 9 -14 -17 -17 -18 -25 -5 -15 23 -12 38 19 109 87 195 88 201 50
201 -25 0 -48 37 -55 91 -3 24 -9 56 -14 71 -10 31 0 43 43 53 18 5 32 18 39
34 15 38 28 194 17 206 -5 5 -9 17 -9 26 0 29 40 112 67 141 24 25 25 32 24
125 0 54 3 115 8 135 10 42 -1 58 -54 78 l-30 12 36 17 c20 9 34 21 32 28 -2
6 6 26 18 45 19 30 26 33 75 35 29 1 62 7 73 12 27 15 108 13 155 -4 37 -13
40 -12 79 16 43 31 57 36 57 18z"/>
<path d="M2410 2054 c0 -23 22 -84 30 -84 5 0 14 16 20 36 10 30 10 38 -1 45
-8 5 -15 4 -17 -2 -3 -6 -9 -6 -18 2 -8 6 -14 8 -14 3z"/>
<path d="M1905 1419 c-4 -6 -5 -12 -2 -15 2 -3 7 2 10 11 7 17 1 20 -8 4z"/>
<path d="M2570 1344 c0 -8 5 -12 10 -9 6 4 8 11 5 16 -9 14 -15 11 -15 -7z"/>
</g>
</svg>
