<?xml version="1.0" standalone="no"?>
<!DOCTYPE svg PUBLIC "-//W3C//DTD SVG 20010904//EN"
 "http://www.w3.org/TR/2001/REC-SVG-20010904/DTD/svg10.dtd">
<svg version="1.0" xmlns="http://www.w3.org/2000/svg"
 width="480.000000pt" height="360.000000pt" viewBox="0 0 480.000000 360.000000"
 preserveAspectRatio="xMidYMid meet">
<metadata>
Created by potrace 1.16, written by Peter Selinger 2001-2019
</metadata>
<rect width="1" height="360" fill="#000000"/>
<rect x="479" width="1" height="360" fill="#000000"/>
<rect width="480" height="1" fill="#000000"/>
<rect y="359" width="480" height="1" fill="#000000"/>
<g transform="translate(0.000000,360.000000) scale(0.100000,-0.100000)"
fill="#000000" stroke="none">
<path d="M2154 3019 c-42 -12 -82 -54 -90 -95 -4 -23 -15 -38 -32 -46 -34 -17
-68 -68 -89 -135 -16 -52 -16 -58 0 -116 10 -34 23 -84 29 -110 6 -27 16 -46
22 -44 18 6 44 68 52 120 8 57 27 58 34 1 7 -45 18 -67 31 -59 10 7 29 -36 29
-66 0 -11 -16 -29 -41 -44 -27 -18 -46 -40 -59 -70 -11 -25 -23 -45 -28 -45
-10 0 -62 -99 -62 -118 0 -7 5 -20 11 -30 14 -23 -26 -131 -79 -209 -63 -94
-66 -101 -48 -128 9 -14 25 -48 36 -78 25 -68 67 -102 115 -93 19 4 40 17 49
31 14 21 14 30 4 66 -7 22 -21 45 -30 50 -26 14 -22 41 13 112 17 34 40 87 50
119 11 32 25 70 31 85 11 27 12 26 18 -28 4 -32 23 -88 44 -132 20 -41 36 -80
36 -85 0 -5 -9 -30 -20 -55 -11 -25 -27 -83 -35 -128 -31 -166 -97 -288 -302
-556 -69 -91 -93 -130 -93 -152 0 -38 19 -81 37 -81 7 0 13 -8 13 -18 0 -10
10 -28 23 -39 43 -39 136 -95 147 -88 6 4 19 0 28 -8 9 -8 32 -22 51 -32 34
-17 50 -10 51 21 0 18 77 45 105 38 25 -6 33 -28 16 -39 -5 -3 4 -42 21 -88
18 -49 28 -95 26 -114 -2 -18 1 -34 6 -36 9 -3 -52 -88 -81 -112 -16 -14 -26
-77 -14 -94 14 -22 119 -17 172 7 24 11 61 36 83 56 l38 36 -7 66 c-4 36 -16
85 -26 109 -22 50 -60 216 -52 228 3 5 69 5 147 2 162 -9 240 3 286 41 16 14
62 36 102 51 40 14 100 38 132 53 l60 28 3 53 c2 42 -2 61 -23 96 -14 24 -24
51 -23 61 1 9 1 25 0 35 -1 26 -108 126 -158 148 -65 30 -105 87 -178 252 -80
182 -105 227 -147 266 l-31 29 30 15 c97 51 137 173 87 268 -9 18 -12 43 -8
71 5 39 1 50 -38 108 -29 44 -51 66 -66 68 -14 2 -29 16 -39 36 -14 30 -14 39
6 116 12 46 21 102 21 124 0 51 -48 155 -85 184 -14 11 -39 39 -55 60 -17 24
-44 46 -69 56 -44 17 -136 20 -187 5z"/>
</g>
</svg>
