<?xml version="1.0" standalone="no"?>
<!DOCTYPE svg PUBLIC "-//W3C//DTD SVG 20010904//EN"
 "http://www.w3.org/TR/2001/REC-SVG-20010904/DTD/svg10.dtd">
<svg version="1.0" xmlns="http://www.w3.org/2000/svg"
 width="480.000000pt" height="360.000000pt" viewBox="0 0 480.000000 360.000000"
 preserveAspectRatio="xMidYMid meet">
<metadata>
Created by potrace 1.16, written by Peter Selinger 2001-2019
</metadata>
<rect width="1" height="360" fill="#000000"/>
<rect x="479" width="1" height="360" fill="#000000"/>
<rect width="480" height="1" fill="#000000"/>
<rect y="359" width="480" height="1" fill="#000000"/>
<g transform="translate(0.000000,360.000000) scale(0.100000,-0.100000)"
fill="#000000" stroke="none">
<path d="M2311 3019 c-15 -14 -20 -26 -15 -38 13 -28 16 -217 6 -460 -9 -223
-10 -235 -31 -250 -20 -15 -21 -21 -13 -58 5 -23 7 -45 4 -48 -12 -11 -8 -61
5 -77 13 -14 12 -50 -7 -269 -11 -138 -25 -274 -31 -302 -5 -27 -9 -65 -9 -83
0 -21 -6 -37 -17 -43 -13 -7 -18 -23 -19 -58 0 -26 -4 -65 -9 -86 -7 -34 -5
-39 14 -44 26 -7 27 -31 6 -333 -8 -118 -16 -260 -18 -315 -2 -55 -9 -116 -15
-135 -55 -168 -82 -294 -82 -377 l0 -43 106 0 106 0 -4 198 c-4 169 -7 201
-23 225 -15 23 -17 39 -11 100 4 40 9 164 12 277 2 113 8 243 12 290 7 83 8
85 34 88 32 4 34 -2 42 -121 8 -106 39 -225 90 -348 18 -42 40 -46 120 -23 27
8 51 12 53 10 2 -2 -12 -64 -31 -137 -19 -74 -44 -186 -56 -249 -11 -63 -27
-142 -34 -175 -8 -33 -17 -77 -19 -98 l-6 -37 387 2 387 3 -3 23 c-2 13 5 46
16 75 47 126 50 144 41 225 -6 49 -20 99 -38 137 -29 60 -29 60 -24 210 8 223
-9 453 -40 537 -13 37 -21 72 -17 78 6 9 9 9 13 -1 7 -21 13 2 26 106 5 50 18
128 27 175 17 93 25 411 11 490 -4 25 -11 106 -16 181 -7 122 -10 140 -37 189
-42 78 -100 133 -157 149 -99 28 -242 -9 -326 -85 -49 -44 -69 -82 -91 -169
-7 -27 -15 -58 -17 -68 -4 -12 -1 -16 9 -12 12 5 14 -1 10 -27 -2 -18 -2 -30
2 -27 8 8 86 -65 86 -81 0 -7 19 -30 42 -52 l41 -38 -34 0 c-20 0 -44 -7 -55
-15 -10 -8 -22 -15 -27 -15 -4 0 -18 25 -32 55 -22 51 -26 55 -59 55 -34 0
-96 40 -96 61 0 22 -52 86 -85 103 -40 22 -38 6 -25 221 13 205 28 362 42 447
10 61 9 70 -7 88 -25 27 -84 27 -114 -1z m119 -969 c10 -7 12 -12 4 -17 -6 -5
-26 -34 -44 -66 -18 -32 -35 -56 -37 -53 -3 3 -2 37 2 75 7 68 8 71 34 71 14
0 33 -5 41 -10z m222 -455 c-3 -33 2 -54 18 -80 26 -42 43 -205 21 -205 -6 0
-69 11 -139 25 -70 14 -136 25 -147 24 -11 -1 -40 6 -63 16 -41 17 -43 20 -38
48 3 16 6 58 6 93 l0 63 68 -35 69 -36 40 20 c21 11 66 41 99 66 32 25 61 45
64 46 3 0 4 -20 2 -45z m498 -229 c0 -8 -4 -18 -10 -21 -5 -3 -10 3 -10 14 0
12 5 21 10 21 6 0 10 -6 10 -14z"/>
</g>
</svg>
