<?xml version="1.0" standalone="no"?>
<!DOCTYPE svg PUBLIC "-//W3C//DTD SVG 20010904//EN"
 "http://www.w3.org/TR/2001/REC-SVG-20010904/DTD/svg10.dtd">
<svg version="1.0" xmlns="http://www.w3.org/2000/svg"
 width="480.000000pt" height="360.000000pt" viewBox="0 0 480.000000 360.000000"
 preserveAspectRatio="xMidYMid meet">
<metadata>
Created by potrace 1.16, written by Peter Selinger 2001-2019
</metadata>
<rect width="1" height="360" fill="#000000"/>
<rect x="479" width="1" height="360" fill="#000000"/>
<rect width="480" height="1" fill="#000000"/>
<rect y="359" width="480" height="1" fill="#000000"/>
<g transform="translate(0.000000,360.000000) scale(0.100000,-0.100000)"
fill="#000000" stroke="none">
<path d="M0 1800 l0 -1800 625 2 626 3 33 75 c77 177 215 408 404 682 91 132
272 556 342 804 41 143 41 148 25 178 -17 31 -17 33 9 71 l27 39 -29 12 c-57
24 -72 26 -72 11 0 -10 -11 -13 -37 -12 -34 2 -41 8 -65 49 -25 42 -56 112
-73 161 -5 17 -8 17 -25 -10 l-20 -30 0 27 c0 14 -5 28 -12 30 -9 3 -7 25 5
87 31 153 136 379 210 451 42 41 177 116 280 154 109 41 278 69 360 61 129
-12 249 -59 342 -134 28 -22 80 -61 116 -86 83 -57 109 -85 148 -160 50 -96
81 -231 88 -375 7 -167 -14 -315 -97 -685 -6 -27 -11 -60 -11 -72 1 -13 -5
-42 -13 -65 -23 -71 -27 -96 -16 -103 7 -5 8 -11 1 -19 -7 -8 17 -45 82 -126
156 -195 296 -327 592 -560 228 -180 419 -355 471 -435 l16 -25 234 0 234 0 0
1800 0 1800 -2400 0 -2400 0 0 -1800z"/>
<path d="M2421 1362 c-7 -13 -11 -28 -8 -35 2 -7 9 -2 16 11 7 13 11 28 8 35
-2 7 -9 2 -16 -11z"/>
<path d="M1871 560 c-17 -28 -31 -53 -31 -56 0 -3 -8 -18 -18 -32 -10 -15 -29
-52 -42 -82 -12 -30 -36 -84 -52 -119 -27 -58 -62 -171 -55 -177 2 -2 62 114
133 256 104 206 127 260 113 260 -10 0 -30 -21 -48 -50z"/>
<path d="M1839 285 c-26 -60 -57 -139 -70 -175 -13 -36 -27 -66 -31 -68 -4 -2
-8 -12 -8 -23 0 -16 7 -19 40 -19 22 0 40 2 40 4 0 3 18 73 41 156 25 94 39
166 37 193 -3 42 -3 41 -49 -68z"/>
<path d="M3082 175 c3 -11 16 -55 29 -97 l24 -78 80 0 80 0 -70 66 c-38 36
-88 80 -109 97 -33 26 -39 28 -34 12z"/>
</g>
</svg>
