<?xml version="1.0" standalone="no"?>
<!DOCTYPE svg PUBLIC "-//W3C//DTD SVG 20010904//EN"
 "http://www.w3.org/TR/2001/REC-SVG-20010904/DTD/svg10.dtd">
<svg version="1.0" xmlns="http://www.w3.org/2000/svg"
 width="480.000000pt" height="360.000000pt" viewBox="0 0 480.000000 360.000000"
 preserveAspectRatio="xMidYMid meet">
<metadata>
Created by potrace 1.16, written by Peter Selinger 2001-2019
</metadata>
<rect width="1" height="360" fill="#000000"/>
<rect x="479" width="1" height="360" fill="#000000"/>
<rect width="480" height="1" fill="#000000"/>
<rect y="359" width="480" height="1" fill="#000000"/>
<g transform="translate(0.000000,360.000000) scale(0.100000,-0.100000)"
fill="#000000" stroke="none">
<path d="M2074 3567 c68 -36 110 -92 120 -159 26 -167 102 -522 116 -546 28
-45 91 -56 275 -49 82 3 186 13 230 22 183 38 179 30 193 423 9 238 14 298 27
318 l15 24 -517 0 -518 -1 59 -32z"/>
<path d="M4720 2849 c-41 -46 -84 -93 -95 -105 -55 -57 -215 -256 -215 -268 0
-3 8 -2 17 1 12 5 15 2 10 -10 -8 -22 -5 -21 35 3 76 46 62 30 -125 -150 l-78
-75 -147 152 c-173 179 -185 185 -278 137 -73 -38 -125 -92 -153 -156 -13 -29
-27 -60 -32 -70 -7 -14 -20 -64 -77 -308 -23 -98 -64 -167 -123 -200 -71 -42
-155 -70 -255 -85 -51 -8 -104 -19 -116 -26 -90 -48 -137 -122 -174 -274 -44
-186 -88 -279 -173 -368 -55 -58 -109 -92 -182 -113 -52 -16 -83 -15 -222 2
-112 14 -169 -32 -166 -132 3 -71 -14 -94 -197 -275 -100 -99 -174 -183 -209
-234 -57 -87 -109 -198 -120 -257 l-7 -38 1581 0 1581 0 0 1122 0 1121 -22
-20 c-87 -77 -167 -137 -175 -129 -8 8 30 71 114 189 l83 118 -2 266 -3 265
-75 -83z m-110 -533 c0 -8 -51 -101 -61 -110 -5 -6 -9 -17 -9 -25 0 -10 13 -3
35 21 19 21 35 34 35 30 0 -4 -4 -12 -8 -17 -5 -6 -21 -40 -36 -77 -16 -38
-30 -68 -32 -68 -25 0 -224 125 -224 141 0 3 55 25 123 49 67 23 129 46 137
51 16 9 40 12 40 5z"/>
<path d="M2415 2439 c-81 -47 -68 -138 24 -169 70 -23 126 20 123 94 -2 59
-93 106 -147 75z"/>
<path d="M0 761 l0 -761 796 0 c469 0 794 4 792 9 -5 16 -299 330 -469 502
-155 156 -358 352 -445 428 -83 72 -191 168 -245 216 -30 28 -90 78 -132 112
-41 34 -88 73 -104 87 -15 14 -65 57 -110 96 l-83 72 0 -761z"/>
</g>
</svg>
