<?xml version="1.0" standalone="no"?>
<!DOCTYPE svg PUBLIC "-//W3C//DTD SVG 20010904//EN"
 "http://www.w3.org/TR/2001/REC-SVG-20010904/DTD/svg10.dtd">
<svg version="1.0" xmlns="http://www.w3.org/2000/svg"
 width="480.000000pt" height="360.000000pt" viewBox="0 0 480.000000 360.000000"
 preserveAspectRatio="xMidYMid meet">
<metadata>
Created by potrace 1.16, written by Peter Selinger 2001-2019
</metadata>
<rect width="1" height="360" fill="#000000"/>
<rect x="479" width="1" height="360" fill="#000000"/>
<rect width="480" height="1" fill="#000000"/>
<rect y="359" width="480" height="1" fill="#000000"/>
<g transform="translate(0.000000,360.000000) scale(0.100000,-0.100000)"
fill="#000000" stroke="none">
<path d="M0 2895 l0 -706 21 12 c12 6 42 24 67 40 25 16 49 29 52 29 4 0 20
-19 37 -42 43 -60 198 -236 247 -281 86 -78 87 -77 311 200 l21 25 69 -42
c160 -98 371 -190 437 -190 71 0 94 44 84 161 -6 76 -57 296 -90 386 -18 51
-20 49 104 93 117 41 219 86 242 107 26 23 22 55 -12 112 -39 67 -171 240
-240 314 l-54 59 29 25 c17 14 60 52 98 85 84 74 86 92 18 146 -54 43 -203
122 -266 142 -22 7 -44 16 -50 21 -13 13 -945 12 -945 -1 0 -6 -11 -15 -24
-22 -20 -9 -31 -7 -61 11 -20 11 -49 21 -66 21 l-29 0 0 -705z"/>
<path d="M3325 3517 c-120 -118 -296 -235 -455 -302 -47 -20 -94 -40 -105 -45
-11 -4 -72 -27 -135 -50 -209 -77 -223 -89 -203 -183 37 -177 198 -450 363
-616 197 -200 537 -355 650 -298 51 26 62 54 129 342 4 17 14 30 21 30 11 0
21 -33 36 -121 42 -234 62 -271 166 -298 70 -18 192 -13 328 14 260 51 461
169 623 368 l57 69 0 331 0 331 -97 31 c-143 45 -308 108 -388 148 -137 68
-297 179 -406 279 l-57 53 -223 -2 -224 -2 -80 -79z"/>
<path d="M500 1665 c-45 -66 -122 -225 -160 -330 -28 -76 -33 -105 -34 -185
-1 -118 15 -173 94 -306 32 -55 56 -101 54 -103 -1 -2 -45 28 -97 67 -124 93
-209 134 -325 157 l-32 7 0 -225 0 -224 63 -28 c160 -70 196 -88 202 -103 10
-27 -62 -88 -166 -139 l-99 -48 0 -88 0 -89 57 33 c32 17 65 36 73 40 40 22
141 58 194 69 80 16 90 4 81 -97 l-7 -73 237 0 237 0 -7 32 c-4 18 -9 43 -12
56 -6 26 14 30 24 5 4 -10 18 -35 31 -55 l25 -38 398 0 c369 0 424 4 389 25
-6 3 -34 39 -64 78 -114 155 -242 251 -372 280 -30 7 -55 17 -55 22 0 6 33 19
74 31 311 87 471 216 729 590 26 38 81 112 123 164 66 84 86 125 70 142 -3 2
-44 -1 -93 -9 -48 -7 -178 -26 -288 -43 -240 -35 -331 -53 -441 -86 -180 -54
-307 -128 -451 -266 -29 -28 -55 -48 -58 -46 -2 3 2 31 11 64 8 32 15 78 15
101 0 99 -72 249 -238 498 -124 185 -133 191 -182 120z"/>
<path d="M3492 1607 c-24 -25 -99 -235 -122 -339 -14 -63 -16 -64 -85 -48 -82
19 -297 40 -404 40 -127 0 -199 -13 -237 -42 -24 -20 -26 -26 -21 -78 2 -31
15 -76 27 -101 45 -89 212 -324 298 -419 30 -34 28 -43 -15 -76 -68 -51 -253
-228 -279 -267 -47 -71 -13 -109 227 -255 l36 -22 646 0 c507 0 646 3 650 13
4 9 7 9 18 0 23 -22 29 -14 23 27 -8 50 12 54 44 10 31 -41 40 -38 35 14 -7
56 7 64 49 28 72 -61 70 -60 62 -17 l-7 38 24 -16 c33 -24 42 -21 35 9 -6 23
-5 25 16 19 50 -16 119 -57 151 -90 30 -31 40 -35 86 -35 l51 0 0 646 0 645
-57 -6 c-32 -4 -80 -13 -107 -21 -27 -8 -51 -14 -52 -14 -1 0 -12 21 -25 46
-44 91 -170 228 -246 268 -59 30 -103 0 -187 -127 -21 -31 -44 -57 -51 -57 -8
0 -34 14 -59 30 -79 54 -415 212 -459 217 -35 4 -46 1 -65 -20z"/>
</g>
</svg>
