<?xml version="1.0" standalone="no"?>
<!DOCTYPE svg PUBLIC "-//W3C//DTD SVG 20010904//EN"
 "http://www.w3.org/TR/2001/REC-SVG-20010904/DTD/svg10.dtd">
<svg version="1.0" xmlns="http://www.w3.org/2000/svg"
 width="480.000000pt" height="360.000000pt" viewBox="0 0 480.000000 360.000000"
 preserveAspectRatio="xMidYMid meet">
<metadata>
Created by potrace 1.16, written by Peter Selinger 2001-2019
</metadata>
<rect width="1" height="360" fill="#000000"/>
<rect x="479" width="1" height="360" fill="#000000"/>
<rect width="480" height="1" fill="#000000"/>
<rect y="359" width="480" height="1" fill="#000000"/>
<g transform="translate(0.000000,360.000000) scale(0.100000,-0.100000)"
fill="#000000" stroke="none">
<path d="M1949 3351 c-224 -49 -290 -126 -275 -322 13 -177 61 -284 182 -409
56 -58 65 -73 78 -130 20 -85 20 -106 -4 -155 -50 -104 23 -172 237 -220 210
-48 406 -43 460 11 21 21 24 32 22 91 -2 61 2 76 34 140 27 53 48 80 81 102
25 17 48 31 51 31 4 0 42 25 86 55 43 31 93 61 111 67 59 20 200 110 245 155
57 57 96 140 101 218 3 54 1 64 -27 102 -17 24 -42 45 -56 49 -45 11 -123 -2
-161 -27 l-37 -24 -36 33 c-76 71 -219 140 -381 185 -158 44 -264 59 -450 63
-144 3 -190 0 -261 -15z m1313 -308 c9 -10 19 -28 23 -41 9 -31 -21 -117 -56
-157 -31 -34 -156 -121 -164 -113 -6 6 30 113 52 154 13 26 14 39 5 75 -13 49
-11 54 32 80 39 24 88 24 108 2z"/>
</g>
</svg>
