<?xml version="1.0" standalone="no"?>
<!DOCTYPE svg PUBLIC "-//W3C//DTD SVG 20010904//EN"
 "http://www.w3.org/TR/2001/REC-SVG-20010904/DTD/svg10.dtd">
<svg version="1.0" xmlns="http://www.w3.org/2000/svg"
 width="480.000000pt" height="360.000000pt" viewBox="0 0 480.000000 360.000000"
 preserveAspectRatio="xMidYMid meet">
<metadata>
Created by potrace 1.16, written by Peter Selinger 2001-2019
</metadata>
<rect width="1" height="360" fill="#000000"/>
<rect x="479" width="1" height="360" fill="#000000"/>
<rect width="480" height="1" fill="#000000"/>
<rect y="359" width="480" height="1" fill="#000000"/>
<g transform="translate(0.000000,360.000000) scale(0.100000,-0.100000)"
fill="#000000" stroke="none">
<path d="M0 3469 l0 -131 86 119 c48 65 91 124 96 131 8 9 -10 12 -86 12 l-96
0 0 -131z"/>
<path d="M3386 3530 c13 -39 29 -110 35 -158 15 -115 15 -342 -1 -417 -38
-186 -54 -246 -80 -300 -15 -33 -35 -76 -44 -95 -52 -118 -179 -293 -292 -400
-172 -164 -379 -286 -574 -339 -245 -66 -391 -137 -565 -274 -69 -54 -165
-147 -200 -193 -16 -22 -35 -45 -43 -53 -35 -36 -118 -172 -166 -273 -93 -194
-138 -389 -138 -596 0 -140 21 -277 58 -384 l16 -48 1597 0 1597 0 66 88 c36
48 84 115 107 149 l41 62 0 1504 0 1504 -62 89 c-33 49 -81 115 -106 147 l-45
57 -612 0 -613 0 24 -70z m-522 -2739 c57 -26 111 -74 150 -134 27 -40 48
-171 36 -223 -22 -98 -97 -201 -167 -231 -161 -68 -297 -52 -393 46 -54 55
-84 114 -101 199 -13 60 -12 67 15 145 43 126 113 187 251 223 66 17 134 9
209 -25z"/>
<path d="M1990 3451 c-150 -38 -227 -117 -271 -277 -18 -68 -19 -78 -6 -141
19 -91 49 -147 111 -208 99 -95 205 -127 336 -101 205 42 312 169 314 376 1
77 -2 92 -31 151 -63 128 -200 220 -325 218 -35 0 -92 -8 -128 -18z"/>
<path d="M0 138 l0 -138 101 0 102 0 -26 32 c-15 18 -55 73 -89 121 -35 49
-68 96 -75 105 -10 14 -12 -10 -13 -120z"/>
</g>
</svg>
