<?xml version="1.0" standalone="no"?>
<!DOCTYPE svg PUBLIC "-//W3C//DTD SVG 20010904//EN"
 "http://www.w3.org/TR/2001/REC-SVG-20010904/DTD/svg10.dtd">
<svg version="1.0" xmlns="http://www.w3.org/2000/svg"
 width="480.000000pt" height="360.000000pt" viewBox="0 0 480.000000 360.000000"
 preserveAspectRatio="xMidYMid meet">
<metadata>
Created by potrace 1.16, written by Peter Selinger 2001-2019
</metadata>
<rect width="1" height="360" fill="#000000"/>
<rect x="479" width="1" height="360" fill="#000000"/>
<rect width="480" height="1" fill="#000000"/>
<rect y="359" width="480" height="1" fill="#000000"/>
<g transform="translate(0.000000,360.000000) scale(0.100000,-0.100000)"
fill="#000000" stroke="none">
<path d="M1601 3543 c14 -113 9 -247 -15 -386 -13 -76 -28 -143 -35 -150 -6
-6 -11 -19 -11 -29 0 -50 -115 -268 -197 -371 -21 -27 -47 -61 -58 -76 -11
-14 -23 -28 -27 -29 -4 -1 -30 -27 -59 -57 -103 -109 -392 -276 -511 -294 -28
-5 -53 -13 -57 -18 -11 -17 -204 -38 -341 -37 -116 1 -204 11 -272 30 -17 5
-18 -50 -18 -1060 l0 -1066 1358 0 1357 0 19 101 c24 136 54 222 131 384 107
223 130 288 200 545 20 74 45 162 55 196 29 98 34 146 17 195 -8 24 -20 80
-27 124 -11 73 -30 115 -52 115 -4 0 -8 -13 -8 -30 0 -31 -17 -39 -37 -19 -9
9 -19 4 -40 -21 -15 -18 -31 -38 -35 -45 -4 -7 -21 -18 -37 -24 -24 -10 -34
-10 -59 3 -17 9 -33 25 -37 36 -3 11 -11 20 -16 20 -18 0 -22 -33 -10 -64 12
-28 16 -74 8 -82 -7 -8 -98 34 -116 52 -44 48 -53 93 -22 122 85 76 148 112
201 112 42 1 44 2 26 15 -11 8 -18 16 -15 18 2 1 16 9 32 17 30 15 34 31 12
50 -26 22 -17 37 59 99 41 34 101 94 133 134 54 66 64 73 113 85 30 8 56 15
58 17 2 2 -3 14 -10 26 -23 42 -67 67 -53 32 4 -12 3 -14 -3 -8 -5 6 -15 27
-22 48 -6 20 -15 35 -20 32 -5 -3 -17 7 -27 22 -10 15 -40 49 -66 75 -60 59
-69 98 -38 177 20 54 19 65 -10 91 -3 3 -18 22 -33 42 -48 65 -18 109 89 129
56 10 166 -3 320 -38 39 -8 93 -21 120 -27 49 -11 50 -12 50 -47 0 -20 5 -42
12 -50 24 -29 34 -74 38 -168 2 -64 13 -127 31 -190 24 -86 26 -103 21 -210
-4 -64 -9 -127 -12 -141 -5 -20 3 -35 36 -70 78 -85 87 -111 52 -152 -16 -18
-10 -38 12 -38 12 0 12 -5 2 -27 -6 -16 -15 -31 -19 -34 -5 -3 -2 -23 5 -45
36 -102 31 -136 -33 -219 -53 -70 -61 -139 -26 -222 14 -33 41 -142 61 -244
44 -228 69 -323 151 -564 35 -104 72 -221 82 -260 l18 -70 402 -3 402 -2 0
1800 0 1800 -1603 0 -1603 0 7 -57z"/>
</g>
</svg>
