<?xml version="1.0" standalone="no"?>
<!DOCTYPE svg PUBLIC "-//W3C//DTD SVG 20010904//EN"
 "http://www.w3.org/TR/2001/REC-SVG-20010904/DTD/svg10.dtd">
<svg version="1.0" xmlns="http://www.w3.org/2000/svg"
 width="480.000000pt" height="360.000000pt" viewBox="0 0 480.000000 360.000000"
 preserveAspectRatio="xMidYMid meet">
<metadata>
Created by potrace 1.16, written by Peter Selinger 2001-2019
</metadata>
<rect width="1" height="360" fill="#000000"/>
<rect x="479" width="1" height="360" fill="#000000"/>
<rect width="480" height="1" fill="#000000"/>
<rect y="359" width="480" height="1" fill="#000000"/>
<g transform="translate(0.000000,360.000000) scale(0.100000,-0.100000)"
fill="#000000" stroke="none">
<path d="M2585 1959 c-16 -5 -46 -15 -65 -21 -112 -34 -239 -117 -336 -220
-123 -128 -174 -234 -175 -364 0 -93 18 -148 85 -248 58 -87 111 -135 199
-177 26 -13 47 -25 47 -28 0 -4 -25 -34 -56 -69 -34 -38 -54 -68 -50 -77 13
-34 55 -6 122 80 l31 39 42 -36 c56 -48 103 -58 271 -58 137 0 144 1 205 30
80 38 159 123 213 229 69 133 77 172 77 376 l0 180 -32 65 c-36 74 -67 107
-137 145 -27 15 -80 53 -118 85 -45 38 -84 62 -113 69 -52 13 -168 13 -210 0z"/>
</g>
</svg>
