<?xml version="1.0" standalone="no"?>
<!DOCTYPE svg PUBLIC "-//W3C//DTD SVG 20010904//EN"
 "http://www.w3.org/TR/2001/REC-SVG-20010904/DTD/svg10.dtd">
<svg version="1.0" xmlns="http://www.w3.org/2000/svg"
 width="480.000000pt" height="360.000000pt" viewBox="0 0 480.000000 360.000000"
 preserveAspectRatio="xMidYMid meet">
<metadata>
Created by potrace 1.16, written by Peter Selinger 2001-2019
</metadata>
<rect width="1" height="360" fill="#000000"/>
<rect x="479" width="1" height="360" fill="#000000"/>
<rect width="480" height="1" fill="#000000"/>
<rect y="359" width="480" height="1" fill="#000000"/>
<g transform="translate(0.000000,360.000000) scale(0.100000,-0.100000)"
fill="#000000" stroke="none">
<path d="M0 1800 l0 -1800 1085 0 1085 0 0 71 c0 67 -2 73 -33 104 -20 20 -48
36 -71 40 -40 8 -56 32 -56 85 0 42 -9 59 -40 75 -29 15 -40 49 -43 140 -2 49
47 155 162 355 122 211 148 266 118 254 -14 -5 -37 35 -37 64 0 10 12 35 27
57 33 49 83 151 83 172 0 8 -13 26 -30 39 -17 15 -32 39 -36 60 -8 42 -24 55
-24 19 0 -39 -19 -20 -26 26 -7 42 -23 53 -25 17 -1 -18 -3 -16 -10 9 -6 21
-5 52 5 97 14 66 11 120 -5 110 -5 -3 -9 -23 -9 -45 0 -47 -15 -52 -24 -8 -10
54 -7 90 23 209 30 124 54 176 153 341 36 59 77 142 93 185 15 44 46 114 68
157 22 43 38 79 36 80 -42 28 -79 60 -75 65 4 3 31 4 61 3 53 -2 58 0 107 44
28 25 62 48 77 52 14 3 29 11 32 16 4 6 18 2 35 -10 16 -12 46 -28 67 -36 35
-15 39 -15 75 5 l37 22 -25 -29 c-18 -20 -21 -29 -12 -32 36 -13 65 -52 74
-99 5 -27 11 -61 14 -75 4 -16 21 -35 50 -52 64 -39 60 -50 -16 -48 -30 1 -37
-3 -51 -31 -12 -26 -24 -35 -57 -42 -44 -9 -48 -15 -32 -46 9 -16 5 -22 -25
-36 -32 -15 -49 -44 -47 -80 0 -7 15 -16 126 -81 61 -36 86 -66 86 -102 0 -13
7 -32 16 -42 8 -9 16 -24 18 -32 1 -8 19 -48 40 -89 37 -73 37 -76 23 -110 -8
-20 -31 -61 -51 -92 -20 -31 -36 -64 -36 -72 0 -9 -19 -51 -42 -94 l-41 -77
40 -94 c22 -52 57 -148 78 -214 20 -66 46 -142 57 -168 11 -27 17 -51 14 -54
-3 -3 -8 2 -12 11 -8 21 -24 11 -24 -16 0 -15 5 -19 20 -15 15 4 22 -4 36 -39
12 -32 14 -47 6 -57 -8 -9 6 -57 57 -187 37 -96 77 -193 89 -216 22 -44 16
-64 -20 -64 -22 0 -23 -21 -3 -60 15 -29 15 -30 -9 -30 -15 0 -25 -7 -29 -20
-6 -24 -31 -26 -97 -4 l-48 16 -51 -34 -51 -33 0 -87 c0 -48 5 -90 10 -93 6
-3 10 -17 10 -31 l0 -24 915 0 915 0 0 1800 0 1800 -2400 0 -2400 0 0 -1800z"/>
<path d="M2821 1859 c0 -66 -3 -125 -6 -130 -4 -5 3 -9 14 -9 15 0 29 20 61
88 l41 87 -28 22 c-15 12 -37 31 -49 43 -12 11 -23 20 -26 20 -3 0 -6 -54 -7
-121z"/>
<path d="M2407 1831 c-22 -78 -22 -131 -2 -131 21 0 35 42 34 103 -1 88 -13
98 -32 28z"/>
<path d="M2685 177 c-88 -55 -106 -59 -177 -46 -45 9 -68 9 -103 -1 -41 -11
-46 -16 -56 -54 -5 -22 -12 -49 -15 -58 -5 -17 10 -18 215 -18 l221 0 0 24 c0
13 5 26 12 28 9 3 9 22 -1 79 -6 41 -15 77 -19 81 -4 4 -39 -12 -77 -35z"/>
</g>
</svg>
