<?xml version="1.0" standalone="no"?>
<!DOCTYPE svg PUBLIC "-//W3C//DTD SVG 20010904//EN"
 "http://www.w3.org/TR/2001/REC-SVG-20010904/DTD/svg10.dtd">
<svg version="1.0" xmlns="http://www.w3.org/2000/svg"
 width="480.000000pt" height="360.000000pt" viewBox="0 0 480.000000 360.000000"
 preserveAspectRatio="xMidYMid meet">
<metadata>
Created by potrace 1.16, written by Peter Selinger 2001-2019
</metadata>
<rect width="1" height="360" fill="#000000"/>
<rect x="479" width="1" height="360" fill="#000000"/>
<rect width="480" height="1" fill="#000000"/>
<rect y="359" width="480" height="1" fill="#000000"/>
<g transform="translate(0.000000,360.000000) scale(0.100000,-0.100000)"
fill="#000000" stroke="none">
<path d="M1321 2924 c-12 -15 -19 -35 -16 -45 3 -9 1 -20 -5 -24 -6 -4 -9 -13
-6 -21 3 -7 1 -16 -3 -19 -5 -2 -12 -34 -16 -70 -6 -57 -4 -69 16 -101 13 -21
24 -31 28 -25 5 7 16 2 30 -15 22 -25 22 -26 4 -46 -15 -17 -16 -21 -3 -32 19
-14 60 -72 60 -84 0 -5 9 -17 20 -27 29 -27 25 -40 -20 -58 -39 -15 -55 -47
-30 -62 17 -11 11 -43 -10 -50 -35 -11 -86 -82 -158 -219 -22 -43 -2 -102 44
-123 41 -20 49 -43 39 -121 -6 -53 -55 -175 -75 -187 -5 -3 -7 -18 -4 -34 4
-18 -3 -51 -20 -93 -15 -36 -24 -72 -21 -80 3 -8 -6 -65 -20 -126 -14 -61 -34
-174 -46 -249 -11 -76 -31 -204 -44 -285 -13 -81 -29 -213 -35 -295 -10 -141
-33 -334 -46 -401 l-6 -32 496 0 c273 0 496 2 496 4 0 2 -16 102 -35 222 -19
121 -44 306 -55 413 -11 107 -30 235 -41 285 -29 124 -96 368 -115 411 -14 34
-13 35 7 35 18 0 16 6 -20 46 -23 26 -41 53 -41 60 0 8 12 44 26 81 25 65 26
74 20 210 -6 139 -6 143 16 154 l22 12 -22 18 -22 18 20 58 20 59 -20 100
c-11 54 -29 111 -40 126 -17 23 -17 28 -4 39 8 6 17 9 20 6 3 -3 19 9 35 26
24 27 30 30 39 17 9 -13 11 -13 20 0 5 8 14 15 19 15 6 0 21 21 35 47 33 63
32 167 -2 215 -12 17 -25 45 -28 62 -4 17 -19 43 -34 59 -15 15 -39 44 -54 64
-57 77 -161 97 -291 57 -71 -22 -75 -21 -79 7 -4 28 -22 27 -45 -2z m179 -514
c0 -5 -5 -10 -11 -10 -5 0 -7 5 -4 10 3 6 8 10 11 10 2 0 4 -4 4 -10z"/>
<path d="M4010 247 c-32 -16 -51 -55 -44 -89 3 -14 1 -44 -4 -65 -6 -21 -13
-50 -16 -66 l-6 -27 220 0 c207 0 220 1 220 18 0 11 9 27 21 38 16 14 20 27
16 54 -7 56 -34 109 -59 119 -79 30 -301 42 -348 18z"/>
</g>
</svg>
