<?xml version="1.0" standalone="no"?>
<!DOCTYPE svg PUBLIC "-//W3C//DTD SVG 20010904//EN"
 "http://www.w3.org/TR/2001/REC-SVG-20010904/DTD/svg10.dtd">
<svg version="1.0" xmlns="http://www.w3.org/2000/svg"
 width="480.000000pt" height="360.000000pt" viewBox="0 0 480.000000 360.000000"
 preserveAspectRatio="xMidYMid meet">
<metadata>
Created by potrace 1.16, written by Peter Selinger 2001-2019
</metadata>
<rect width="1" height="360" fill="#000000"/>
<rect x="479" width="1" height="360" fill="#000000"/>
<rect width="480" height="1" fill="#000000"/>
<rect y="359" width="480" height="1" fill="#000000"/>
<g transform="translate(0.000000,360.000000) scale(0.100000,-0.100000)"
fill="#000000" stroke="none">
<path d="M1150 1800 l0 -1800 1825 0 1825 0 0 1800 0 1800 -1825 0 -1825 0 0
-1800z m1872 721 c57 -28 220 -169 212 -183 -12 -19 -82 -1 -122 31 -46 36
-84 52 -100 42 -16 -9 7 -101 28 -112 8 -4 61 -21 117 -39 112 -35 138 -49
138 -77 0 -14 12 -20 50 -28 49 -9 80 -27 68 -39 -4 -3 2 -6 13 -6 10 -1 30
-7 44 -15 25 -14 25 -14 -15 -15 l-40 0 31 -19 c46 -28 54 -45 16 -36 -34 7
-53 -10 -22 -20 11 -3 20 -11 20 -17 0 -7 -22 -9 -65 -5 -42 4 -64 3 -60 -3 4
-6 -1 -13 -9 -16 -9 -3 -13 -10 -10 -15 7 -11 -10 -11 -61 1 -22 5 -41 7 -43
5 -8 -7 63 -45 84 -45 23 0 34 -17 34 -55 0 -13 7 -31 17 -40 9 -9 21 -44 27
-78 11 -59 12 -61 46 -68 19 -4 99 -11 177 -15 l141 -7 1 -31 c0 -31 3 -66 6
-66 1 0 50 9 111 21 123 24 305 29 329 9 8 -7 34 -10 60 -8 25 2 45 0 45 -4 0
-5 -5 -8 -12 -8 -6 0 -4 -7 5 -18 10 -10 17 -24 17 -30 0 -6 11 -19 24 -28 14
-8 23 -21 20 -29 -6 -15 48 -45 83 -45 14 0 21 -4 18 -10 -3 -5 -1 -10 5 -10
7 0 10 -7 6 -15 -3 -8 -2 -15 3 -15 10 0 51 -35 51 -44 0 -3 -9 -6 -19 -6 -14
0 -18 -5 -14 -20 3 -11 8 -20 12 -20 3 0 7 -11 7 -25 2 -21 -3 -25 -24 -25
l-26 0 22 -21 c13 -12 19 -25 15 -32 -4 -7 -8 -16 -8 -22 0 -5 -20 -11 -45
-11 -75 -3 -81 -4 -75 -14 4 -6 -10 -8 -37 -4 -43 6 -44 6 -43 -22 1 -15 7
-30 13 -32 26 -8 10 -22 -25 -22 l-38 -1 30 -16 c40 -22 15 -29 -26 -8 -18 10
-43 18 -56 20 -13 1 -34 11 -46 22 -56 50 -101 65 -261 89 -136 20 -251 46
-306 68 -8 3 -31 -4 -50 -16 -34 -21 -95 -43 -153 -55 -24 -4 -28 -9 -23 -27
16 -52 18 -116 6 -131 -31 -37 -91 0 -105 65 -7 34 -20 37 -47 14 -14 -14 -20
-14 -33 -4 -8 7 -15 22 -15 34 0 47 -11 62 -43 64 -245 12 -328 20 -352 36
-29 19 -32 51 -7 79 16 19 16 20 -7 35 -13 9 -33 17 -45 18 -53 7 -530 34
-533 30 -2 -2 17 -9 42 -15 49 -12 64 -41 20 -41 -14 0 -25 -3 -25 -6 0 -4 27
-36 61 -71 56 -60 59 -66 42 -79 -20 -15 -53 -19 -53 -6 0 5 -25 36 -56 70
-41 46 -74 71 -127 96 -93 44 -156 61 -170 47 -6 -6 -19 -11 -30 -11 -14 0
-17 -5 -12 -20 5 -16 2 -20 -19 -20 -29 0 -56 24 -56 49 0 29 -20 39 -95 46
-93 9 -119 20 -141 60 -15 28 -16 36 -5 49 11 13 34 15 140 12 70 -2 145 -9
166 -15 39 -10 409 -45 615 -57 58 -3 113 -8 123 -11 25 -7 102 80 152 171 22
41 47 81 55 91 11 14 15 44 15 114 0 82 3 101 23 132 36 59 28 119 -17 119
-17 0 -38 11 -56 30 -18 19 -49 35 -84 45 -207 56 -268 84 -290 132 -14 32 -7
43 29 43 37 0 48 18 16 26 -26 6 -53 31 -44 40 3 3 43 -3 89 -12 95 -19 88
-19 154 -1 43 12 53 20 75 59 29 53 56 85 85 101 59 32 181 31 247 -2z"/>
<path d="M3380 2040 c20 -13 33 -13 25 0 -3 6 -14 10 -23 10 -15 0 -15 -2 -2
-10z"/>
<path d="M3120 1907 c0 -8 3 -17 7 -21 4 -4 14 -30 23 -59 20 -66 42 -73 59
-16 7 23 23 52 36 65 13 13 20 26 15 29 -4 3 -38 7 -74 10 -51 4 -66 2 -66 -8z"/>
<path d="M2880 1688 c-17 -62 -37 -96 -91 -157 -81 -91 -57 -110 45 -37 34 24
79 63 99 85 l37 41 -19 38 c-10 20 -28 45 -39 55 -20 19 -21 18 -32 -25z"/>
<path d="M3370 1582 c0 -16 13 -26 57 -42 31 -11 72 -20 90 -18 l34 3 -53 32
c-29 17 -70 34 -91 38 -33 6 -37 5 -37 -13z"/>
<path d="M3620 1562 c0 -20 39 -31 77 -20 l38 12 -40 7 c-53 10 -75 11 -75 1z"/>
<path d="M0 1830 c0 -293 -1 -289 58 -163 24 52 27 70 27 163 0 93 -3 112 -27
163 -59 126 -58 130 -58 -163z"/>
</g>
</svg>
