<?xml version="1.0" standalone="no"?>
<!DOCTYPE svg PUBLIC "-//W3C//DTD SVG 20010904//EN"
 "http://www.w3.org/TR/2001/REC-SVG-20010904/DTD/svg10.dtd">
<svg version="1.0" xmlns="http://www.w3.org/2000/svg"
 width="480.000000pt" height="360.000000pt" viewBox="0 0 480.000000 360.000000"
 preserveAspectRatio="xMidYMid meet">
<metadata>
Created by potrace 1.16, written by Peter Selinger 2001-2019
</metadata>
<rect width="1" height="360" fill="#000000"/>
<rect x="479" width="1" height="360" fill="#000000"/>
<rect width="480" height="1" fill="#000000"/>
<rect y="359" width="480" height="1" fill="#000000"/>
<g transform="translate(0.000000,360.000000) scale(0.100000,-0.100000)"
fill="#000000" stroke="none">
<path d="M2594 3166 c-18 -13 -22 -29 -27 -108 -4 -70 -113 -661 -152 -825 -3
-14 -19 -29 -40 -37 -39 -17 -53 -39 -37 -59 8 -9 8 -25 1 -52 -6 -22 -13 -53
-16 -70 -3 -16 -9 -35 -14 -41 -5 -6 -2 -28 7 -52 16 -40 16 -42 -60 -349 -83
-330 -110 -428 -150 -538 -14 -38 -26 -82 -26 -98 0 -19 -7 -30 -23 -36 -34
-13 -44 -30 -50 -87 -3 -29 -20 -82 -36 -119 -34 -74 -32 -84 20 -105 26 -11
29 -17 24 -39 -23 -89 -115 -516 -115 -532 0 -16 7 -19 49 -19 39 0 51 4 55
18 3 9 23 100 45 202 76 352 69 331 100 324 14 -4 27 -8 29 -9 5 -4 -62 -242
-104 -370 -19 -60 -39 -122 -44 -137 l-9 -28 791 0 790 0 -7 63 c-9 88 -40
215 -69 287 -22 54 -24 68 -16 113 12 61 46 170 65 207 8 16 20 106 29 216 9
104 23 232 31 284 8 52 22 183 30 290 9 107 26 247 38 310 26 136 30 413 8
515 -21 94 -62 217 -86 255 -54 86 -154 143 -289 165 -112 18 -266 -1 -371
-45 -46 -20 -126 -103 -187 -194 -22 -34 -52 -73 -66 -88 -14 -16 -21 -28 -14
-28 6 0 14 5 17 10 12 20 22 9 20 -25 0 -19 3 -35 7 -35 4 0 8 -17 8 -39 0
-22 6 -44 15 -51 12 -10 15 -10 15 4 0 28 14 17 33 -27 17 -37 20 -40 27 -22
5 11 9 14 9 7 1 -20 -18 -52 -46 -76 l-25 -21 21 -27 c12 -14 21 -34 21 -45 0
-10 13 -49 28 -88 22 -54 34 -71 53 -75 27 -7 27 -5 16 -77 -9 -60 -20 -72
-35 -38 -10 22 -61 45 -103 45 -9 0 -23 8 -31 18 -21 23 -71 141 -96 227 -18
58 -30 79 -72 120 -61 60 -63 24 16 380 64 290 108 459 135 522 21 50 18 82
-14 112 -30 27 -96 37 -123 17z m-79 -1346 c54 -25 69 -39 89 -79 19 -36 15
-91 -7 -109 -6 -5 -34 -12 -62 -15 -77 -8 -89 -29 -82 -147 6 -128 36 -235
115 -420 61 -140 70 -157 102 -172 23 -12 37 -27 41 -45 10 -42 10 -143 1
-143 -10 0 -261 103 -293 120 -12 7 -45 16 -73 20 -28 5 -69 15 -91 23 -45 17
-46 24 -26 127 6 30 16 82 22 115 14 80 162 637 194 733 6 17 23 15 70 -8z"/>
</g>
</svg>
