<?xml version="1.0" standalone="no"?>
<!DOCTYPE svg PUBLIC "-//W3C//DTD SVG 20010904//EN"
 "http://www.w3.org/TR/2001/REC-SVG-20010904/DTD/svg10.dtd">
<svg version="1.0" xmlns="http://www.w3.org/2000/svg"
 width="480.000000pt" height="360.000000pt" viewBox="0 0 480.000000 360.000000"
 preserveAspectRatio="xMidYMid meet">
<metadata>
Created by potrace 1.16, written by Peter Selinger 2001-2019
</metadata>
<rect width="1" height="360" fill="#000000"/>
<rect x="479" width="1" height="360" fill="#000000"/>
<rect width="480" height="1" fill="#000000"/>
<rect y="359" width="480" height="1" fill="#000000"/>
<g transform="translate(0.000000,360.000000) scale(0.100000,-0.100000)"
fill="#000000" stroke="none">
<path d="M0 1800 l0 -1800 944 0 943 0 12 93 c11 84 19 180 37 428 9 111 -1
176 -26 184 -26 8 -55 66 -38 76 7 4 9 11 5 15 -4 4 9 36 29 71 37 67 39 77
65 308 11 110 11 110 -21 233 -21 81 -30 138 -28 165 6 53 35 159 53 194 9 17
13 41 9 59 -5 25 -1 34 20 48 23 15 26 23 26 76 0 58 0 59 -45 91 -25 18 -45
40 -45 51 0 12 -7 18 -23 18 -32 0 -117 67 -118 94 -8 123 10 178 83 249 170
168 363 140 483 -68 32 -55 72 -200 100 -358 13 -73 35 -181 49 -242 13 -60
30 -162 36 -225 6 -63 15 -133 20 -155 11 -50 27 -225 36 -375 3 -63 17 -202
30 -309 30 -246 30 -249 -1 -257 -51 -13 -52 5 26 -332 l31 -132 1054 0 1054
0 0 1059 0 1059 -32 7 c-18 4 -61 15 -95 25 -56 17 -80 27 -123 52 -15 8 -24
12 -74 31 -31 11 -196 118 -235 151 -81 69 -218 222 -263 293 -148 231 -207
431 -209 705 0 81 3 163 7 182 l6 36 -1891 0 -1891 0 0 -1800z"/>
</g>
</svg>
