<?xml version="1.0" standalone="no"?>
<!DOCTYPE svg PUBLIC "-//W3C//DTD SVG 20010904//EN"
 "http://www.w3.org/TR/2001/REC-SVG-20010904/DTD/svg10.dtd">
<svg version="1.0" xmlns="http://www.w3.org/2000/svg"
 width="480.000000pt" height="360.000000pt" viewBox="0 0 480.000000 360.000000"
 preserveAspectRatio="xMidYMid meet">
<metadata>
Created by potrace 1.16, written by Peter Selinger 2001-2019
</metadata>
<rect width="1" height="360" fill="#000000"/>
<rect x="479" width="1" height="360" fill="#000000"/>
<rect width="480" height="1" fill="#000000"/>
<rect y="359" width="480" height="1" fill="#000000"/>
<g transform="translate(0.000000,360.000000) scale(0.100000,-0.100000)"
fill="#000000" stroke="none">
<path d="M0 2749 c0 -677 3 -849 12 -843 7 4 36 24 63 44 28 21 100 58 160 83
216 87 321 126 383 142 77 19 209 81 277 130 60 43 89 75 200 220 95 125 262
293 320 322 47 24 201 48 249 39 28 -5 34 -3 44 19 25 55 13 94 -51 162 -25
27 -28 35 -17 48 18 22 30 19 105 -20 51 -28 70 -33 85 -25 10 5 40 10 67 10
43 1 50 4 68 33 11 17 30 37 43 43 13 6 38 43 61 91 46 95 109 156 184 178 71
21 88 19 57 -5 l-25 -21 28 7 c38 9 34 -2 -12 -25 -36 -19 -138 -121 -184
-185 l-20 -28 24 7 c59 19 98 24 148 18 48 -5 52 -8 36 -20 -17 -12 -17 -13
-2 -13 32 0 17 -18 -20 -24 -21 -4 -64 -14 -95 -23 -49 -13 -60 -21 -84 -59
-16 -24 -32 -44 -38 -44 -5 0 1 -11 13 -24 13 -13 28 -41 35 -63 10 -30 27
-47 77 -81 35 -23 65 -46 67 -50 1 -4 -3 -15 -10 -25 -12 -15 -18 -15 -67 -3
-59 16 -90 10 -128 -26 -30 -28 -29 -39 8 -74 46 -43 83 -101 108 -167 16 -45
21 -80 21 -162 0 -63 -4 -105 -10 -105 -5 0 -10 -12 -10 -26 0 -31 -20 -22
-21 9 0 21 -1 21 -12 3 -25 -40 -69 -86 -78 -80 -5 3 -19 -2 -31 -10 -28 -20
-39 -20 -32 -1 5 13 2 14 -20 5 -17 -6 -26 -6 -26 0 0 15 -27 12 -33 -4 -3 -8
-1 -31 6 -51 12 -40 2 -55 -37 -55 -10 0 -29 -11 -41 -24 -12 -13 -26 -25 -32
-27 -6 -2 -24 -35 -41 -73 l-30 -69 23 -21 c34 -31 104 -169 119 -236 7 -31
21 -68 29 -81 9 -13 18 -44 21 -69 5 -41 5 -43 -6 -17 -15 35 -23 34 -39 -5
-14 -34 -14 -44 2 -87 10 -26 11 -26 26 -6 15 20 15 20 10 -3 -7 -28 -4 -28
152 40 63 27 129 52 147 55 46 8 52 31 14 61 -34 26 -29 45 14 56 19 5 24 14
28 50 3 24 15 58 27 74 l21 31 -22 3 c-13 2 -23 10 -23 18 0 8 -8 18 -17 22
-24 10 -22 22 5 36 31 16 46 17 94 8 22 -4 56 -3 75 2 23 6 45 6 68 -2 39 -13
52 -36 20 -36 -13 0 -20 -5 -18 -14 2 -8 -5 -21 -16 -29 -18 -13 -18 -15 3
-55 11 -23 21 -52 21 -66 0 -27 24 -56 46 -56 22 0 17 -24 -10 -49 -27 -25
-24 -51 5 -51 10 0 84 -27 163 -60 80 -33 147 -60 151 -60 3 0 1 9 -5 19 -5
11 -10 26 -10 33 0 7 6 2 13 -11 19 -38 34 -36 44 6 7 29 6 46 -6 70 -15 30
-31 43 -31 25 0 -5 -6 -17 -14 -28 -13 -17 -14 -14 -5 26 6 24 18 58 28 75 10
16 22 48 26 70 7 44 76 190 107 230 l20 25 -31 75 c-34 80 -68 125 -95 125
-10 0 -26 5 -37 10 -18 10 -18 13 -4 41 18 33 12 69 -11 69 -8 0 -14 -5 -14
-11 0 -6 -8 -7 -22 -3 -13 5 -40 9 -60 9 -42 1 -82 32 -103 80 -13 29 -14 29
-20 8 -16 -51 -25 -17 -25 92 0 119 12 200 37 249 8 15 51 66 94 111 l80 83
-31 61 c-30 60 -42 71 -55 51 -14 -22 -41 -7 -97 52 -32 35 -58 66 -58 70 0 3
21 25 46 47 l46 41 -33 82 c-19 45 -35 86 -37 90 -2 4 0 8 5 8 4 0 26 -25 48
-56 64 -89 66 -83 10 40 -14 32 -24 63 -22 69 6 18 171 -201 254 -335 65 -107
81 -127 98 -123 148 39 146 39 242 27 61 -8 110 -21 141 -36 59 -31 213 -180
321 -311 91 -110 148 -162 215 -195 54 -26 180 -45 561 -85 60 -7 276 -63 290
-76 5 -5 13 -9 17 -9 4 0 8 322 8 715 l0 715 -2400 0 -2400 0 0 -851z"/>
<path d="M2850 2160 c0 -5 5 -10 11 -10 5 0 7 5 4 10 -3 6 -8 10 -11 10 -2 0
-4 -4 -4 -10z"/>
<path d="M3573 1726 c3 -8 11 -34 18 -57 7 -24 21 -56 31 -71 10 -14 18 -31
18 -37 0 -6 8 -11 18 -10 10 0 12 3 5 6 -18 7 -16 30 3 37 9 3 28 6 42 6 25 1
21 6 -45 70 -69 67 -102 87 -90 56z"/>
<path d="M1183 1648 c-24 -27 -63 -84 -63 -92 0 -4 60 13 60 17 0 1 7 23 15
50 8 26 13 47 11 47 -1 0 -12 -10 -23 -22z"/>
<path d="M2386 1623 c-8 -21 10 -41 24 -27 11 11 3 44 -10 44 -4 0 -11 -8 -14
-17z"/>
<path d="M3710 1565 c14 -8 36 -14 49 -15 24 0 24 0 5 15 -10 8 -32 14 -49 14
l-30 0 25 -14z"/>
<path d="M3798 1478 c-37 -13 -35 -24 5 -33 54 -12 12 -17 -49 -6 -65 12 -111
14 -101 5 6 -7 11 -8 105 -20 65 -8 70 -27 5 -20 -35 4 -41 3 -23 -3 14 -5 61
-9 105 -8 44 0 62 2 41 4 -30 3 -36 7 -25 14 11 8 11 12 2 16 -19 7 -16 23 4
23 14 0 14 2 -2 20 -20 22 -27 23 -67 8z"/>
<path d="M1855 1471 c-3 -5 -1 -12 4 -15 5 -3 11 1 15 9 6 16 -9 21 -19 6z"/>
<path d="M2920 1473 c0 -5 4 -14 9 -21 7 -11 9 -11 14 1 3 8 3 18 0 21 -9 8
-23 7 -23 -1z"/>
<path d="M3685 1420 c-3 -5 -1 -10 4 -10 6 0 11 5 11 10 0 6 -2 10 -4 10 -3 0
-8 -4 -11 -10z"/>
<path d="M4431 1416 c14 -13 262 -112 342 -136 27 -8 27 -8 27 34 l0 43 -77
16 c-153 32 -304 54 -292 43z"/>
<path d="M4190 1380 c0 -5 14 -25 30 -43 17 -19 30 -37 30 -39 0 -3 -26 8 -57
23 -32 16 -61 29 -65 29 -11 0 20 -55 43 -76 11 -10 26 -28 31 -39 11 -19 11
-19 -18 -1 -16 11 -58 39 -93 63 l-64 45 -61 -20 c-62 -20 -198 -24 -258 -7
-36 9 -42 -7 -27 -71 6 -27 14 -137 18 -244 7 -176 10 -199 31 -240 44 -85 68
-109 129 -126 31 -8 72 -21 91 -29 19 -8 76 -24 125 -36 100 -24 211 -75 266
-123 20 -17 69 -58 109 -91 40 -33 104 -97 143 -143 59 -70 178 -172 201 -172
3 0 5 271 4 602 l-3 601 -85 19 c-73 15 -261 64 -436 114 -59 16 -84 18 -84 4z"/>
<path d="M1097 1279 c-31 -18 -210 -59 -255 -59 -29 0 -54 -8 -75 -22 -25 -18
-29 -19 -24 -5 5 13 1 17 -16 19 -32 2 -38 3 -72 17 -16 7 -43 13 -60 14 -32
0 -163 -60 -350 -161 -60 -33 -137 -74 -170 -92 l-60 -32 40 37 c22 20 47 39
55 43 30 14 210 145 210 154 0 4 -10 8 -22 8 -21 0 -21 0 -2 15 44 34 -10 10
-146 -64 l-145 -78 -3 -537 -2 -536 249 0 c213 0 252 2 265 16 32 32 106 134
218 304 64 96 149 211 190 255 167 184 178 208 178 401 0 74 5 166 11 204 14
89 10 112 -14 99z m-832 -99 c-3 -5 -11 -10 -16 -10 -6 0 -7 5 -4 10 3 6 11
10 16 10 6 0 7 -4 4 -10z"/>
<path d="M2151 1174 c-47 -25 -121 -67 -165 -93 -70 -42 -113 -61 -174 -77
-10 -3 -12 -13 -7 -36 4 -18 9 -35 10 -36 2 -2 82 21 177 51 95 30 187 58 205
62 30 6 32 9 38 63 3 31 9 69 11 85 3 15 2 27 -3 27 -4 0 -46 -21 -92 -46z"/>
<path d="M2554 1203 c2 -10 7 -48 11 -86 6 -62 8 -67 33 -73 15 -3 106 -30
203 -60 97 -30 179 -54 183 -54 3 0 6 8 6 17 0 18 -47 73 -63 73 -5 0 -71 35
-146 79 -138 80 -215 121 -226 121 -4 0 -4 -8 -1 -17z"/>
<path d="M2367 993 c-14 -32 -32 -74 -40 -93 -21 -51 -41 -65 -158 -109 -57
-22 -173 -69 -257 -105 -84 -36 -163 -66 -175 -66 -12 0 -37 9 -56 21 -18 11
-35 18 -38 15 -18 -17 38 -372 92 -588 l17 -68 683 0 684 0 5 53 c4 28 11 135
16 237 6 102 13 227 17 279 3 54 2 92 -3 90 -5 -3 -26 -13 -47 -24 -37 -19
-39 -19 -90 -1 -29 10 -99 39 -157 64 -58 24 -156 64 -219 88 -63 24 -124 53
-136 64 -11 10 -38 60 -59 110 -22 49 -42 90 -46 90 -4 0 -19 -26 -33 -57z"/>
</g>
</svg>
