<?xml version="1.0" standalone="no"?>
<!DOCTYPE svg PUBLIC "-//W3C//DTD SVG 20010904//EN"
 "http://www.w3.org/TR/2001/REC-SVG-20010904/DTD/svg10.dtd">
<svg version="1.0" xmlns="http://www.w3.org/2000/svg"
 width="480.000000pt" height="360.000000pt" viewBox="0 0 480.000000 360.000000"
 preserveAspectRatio="xMidYMid meet">
<metadata>
Created by potrace 1.16, written by Peter Selinger 2001-2019
</metadata>
<rect width="1" height="360" fill="#000000"/>
<rect x="479" width="1" height="360" fill="#000000"/>
<rect width="480" height="1" fill="#000000"/>
<rect y="359" width="480" height="1" fill="#000000"/>
<g transform="translate(0.000000,360.000000) scale(0.100000,-0.100000)"
fill="#000000" stroke="none">
<path d="M1 2468 c0 -623 3 -1127 6 -1119 3 8 19 26 34 39 23 19 29 32 29 65
0 35 6 46 45 83 26 24 45 50 45 62 0 13 12 29 28 39 79 48 132 85 137 93 3 6
15 10 25 10 10 0 32 11 47 24 l28 24 -17 50 c-21 58 -22 82 -7 116 9 19 9 53
2 128 -12 112 -10 118 41 180 17 20 31 44 31 54 0 11 11 21 31 26 17 4 42 21
56 36 21 24 37 30 87 36 53 6 64 11 86 40 14 19 38 36 53 40 15 3 49 26 76 50
76 70 104 80 207 72 49 -4 96 -3 106 2 10 5 43 21 73 37 42 22 74 30 135 34
l79 6 10 34 c6 23 6 39 -2 51 -8 14 -5 43 17 131 23 93 32 116 50 125 13 7 31
26 42 43 10 17 23 31 29 31 6 0 18 16 27 35 9 19 20 35 25 35 4 0 8 10 8 23 0
31 69 97 111 106 19 4 93 1 164 -7 98 -10 145 -11 191 -3 90 16 131 14 153 -8
10 -10 49 -29 87 -41 45 -15 81 -35 103 -57 18 -18 45 -36 60 -39 36 -9 50
-22 66 -61 16 -39 40 -51 66 -35 10 7 28 12 39 12 18 0 20 -4 14 -34 -7 -43
27 -111 67 -132 25 -13 26 -15 16 -59 -10 -44 -10 -47 18 -69 27 -22 28 -24
17 -72 -28 -125 -26 -139 14 -109 15 12 16 16 5 24 -10 6 -11 13 -2 27 9 17
10 17 11 2 0 -34 20 -28 47 14 15 24 32 45 37 47 6 2 21 15 34 28 13 13 26 22
28 20 4 -4 -57 -79 -130 -160 l-35 -39 37 7 c78 14 94 14 34 -1 l-62 -16 20
-25 c11 -14 20 -32 20 -40 0 -21 -72 -155 -87 -160 -7 -3 -11 -9 -8 -14 3 -4
6 -24 7 -44 1 -40 5 -42 24 -17 11 14 12 11 3 -23 -6 -22 -18 -46 -26 -52 -26
-20 9 -28 44 -10 38 21 148 125 140 134 -4 3 0 14 9 24 9 10 14 25 10 34 -3 9
3 32 14 53 11 20 20 48 20 62 0 19 3 22 9 11 6 -10 4 -27 -6 -50 -38 -86 -22
-126 27 -69 16 18 30 28 30 23 0 -6 -16 -26 -35 -45 -19 -19 -35 -42 -35 -51
0 -9 -19 -29 -42 -45 -39 -26 -70 -56 -64 -61 1 -1 18 2 37 7 18 5 56 15 82
22 27 7 53 21 58 30 5 10 16 18 23 18 15 0 76 64 76 80 0 5 8 11 18 14 9 3 23
18 30 33 10 24 10 30 -3 39 -19 14 -19 24 0 24 9 0 20 -10 25 -22 9 -20 9 -19
5 7 -5 28 -1 33 51 65 l56 35 -5 80 c-3 46 -1 71 3 60 5 -11 9 -40 10 -65 1
-43 1 -44 16 -25 16 19 16 19 10 -10 -4 -16 -8 -38 -9 -47 -1 -9 -5 -14 -10
-11 -5 3 -11 -4 -14 -15 -2 -11 -18 -29 -34 -41 -36 -27 -40 -56 -6 -44 12 4
39 7 59 6 21 0 36 3 33 7 -3 4 2 14 11 21 12 10 14 23 9 58 -4 31 -3 43 3 36
6 -5 12 -26 14 -45 2 -22 9 -36 19 -38 16 -3 64 38 101 86 26 33 43 27 19 -7
-12 -16 -21 -33 -21 -38 0 -12 -95 -74 -160 -104 l-55 -26 88 2 c65 2 92 6
105 19 10 9 28 16 39 16 12 0 24 8 27 17 5 13 9 14 15 5 6 -10 20 -8 63 11 31
14 71 28 89 31 31 6 32 6 16 -8 -11 -8 -36 -18 -58 -21 -21 -4 -39 -10 -39
-15 0 -4 -23 -16 -51 -26 -28 -11 -54 -25 -56 -31 -3 -7 -11 -13 -19 -13 -8 0
-14 -6 -14 -12 0 -9 -2 -10 -8 -2 -4 6 -20 10 -37 9 -16 -1 -73 -6 -125 -10
-103 -8 -169 -32 -177 -66 -3 -10 -10 -16 -15 -13 -5 3 -47 -30 -92 -75 -84
-82 -85 -88 -6 -59 29 11 80 63 80 83 0 8 5 17 11 21 9 5 10 -1 5 -20 -8 -33
4 -33 43 0 17 14 31 20 31 14 0 -9 4 -9 13 -2 10 8 13 6 13 -8 0 -13 -7 -18
-26 -18 -15 1 -50 -15 -81 -37 -30 -20 -64 -41 -76 -46 -13 -5 -23 -13 -23
-19 0 -5 -19 -10 -42 -10 -46 -1 -77 -17 -71 -37 3 -7 17 -10 39 -6 46 8 43
-4 -4 -17 -44 -11 -59 -37 -54 -88 3 -27 7 -32 20 -27 13 5 12 1 -4 -17 -27
-30 -37 -58 -21 -58 7 -1 1 -10 -12 -21 -34 -28 -20 -33 30 -10 50 23 128 51
212 77 31 9 57 21 57 26 0 4 6 8 13 8 18 0 47 32 47 52 0 8 11 25 26 38 18 18
23 31 19 47 -3 13 -1 23 4 23 6 0 13 17 16 38 15 96 15 97 5 82 -6 -9 -10 -10
-10 -3 0 6 -6 13 -12 16 -7 2 -5 3 4 2 10 -2 21 1 24 6 7 12 54 11 54 -1 0 -5
-7 -10 -15 -10 -8 0 -15 -7 -15 -15 0 -12 10 -14 45 -11 60 6 101 32 110 70 5
22 9 26 12 14 2 -10 9 -18 14 -18 5 0 9 -5 9 -11 0 -5 -6 -7 -13 -3 -9 5 -9 3
1 -7 10 -11 15 -11 20 -2 8 12 103 46 109 39 2 -2 -21 -14 -52 -26 -30 -12
-58 -26 -60 -31 -8 -12 6 -63 14 -52 9 13 70 40 106 48 22 4 19 1 -13 -13 -24
-10 -43 -22 -43 -27 0 -5 17 -15 38 -21 37 -11 36 -12 -32 -10 -67 1 -73 -1
-137 -42 -38 -24 -68 -47 -68 -51 0 -13 98 -54 142 -60 23 -3 43 -12 46 -20 4
-11 -5 -12 -43 -7 -25 4 -65 14 -87 22 -22 8 -58 14 -79 14 -33 0 -42 -5 -58
-31 -18 -29 -129 -109 -151 -109 -5 0 -12 -5 -16 -12 -12 -19 82 -1 144 27 65
30 76 31 42 5 -14 -10 -22 -21 -20 -24 5 -4 32 6 103 41 40 20 33 7 -14 -24
l-41 -27 49 -12 c33 -8 52 -9 60 -2 9 7 15 6 19 -6 5 -13 16 -6 56 34 28 28
53 49 56 46 2 -3 -14 -24 -37 -46 -59 -57 -55 -64 34 -57 42 3 75 1 75 -4 0
-5 -6 -9 -12 -9 -7 0 -24 -9 -38 -20 l-25 -20 23 0 c12 0 22 -4 22 -10 0 -13
-6 -13 -31 0 -15 8 -19 7 -19 -4 0 -9 -7 -12 -20 -9 -11 3 -20 1 -20 -4 0 -6
-18 -15 -40 -22 -22 -6 -40 -16 -40 -22 0 -6 9 -8 20 -4 23 7 28 -10 5 -19
-16 -6 -21 -56 -6 -56 5 0 14 7 21 15 14 17 30 20 30 5 0 -6 -24 -22 -52 -35
-29 -14 -48 -26 -43 -26 6 -1 15 -3 20 -4 6 -2 21 -4 35 -5 26 -3 -50 -16
-133 -24 -60 -5 -80 -21 -53 -42 19 -14 19 -14 -2 -14 -13 0 -22 6 -22 15 0 9
-14 22 -32 29 -27 12 -38 12 -72 0 -22 -8 -46 -12 -54 -9 -12 4 -86 -9 -122
-22 -8 -4 -18 -6 -21 -5 -4 1 -9 -10 -12 -23 -2 -14 0 -25 4 -25 5 0 9 7 9 15
0 8 5 15 10 15 6 0 10 -7 10 -15 0 -18 13 -18 60 -1 31 11 32 13 12 18 -38 10
-24 23 29 25 34 1 49 -3 46 -10 -2 -7 -10 -11 -18 -10 -8 2 -20 -6 -27 -17
-11 -18 -9 -19 36 -19 40 1 81 13 126 37 5 3 6 0 2 -6 -4 -7 -13 -12 -20 -12
-7 0 -23 -11 -35 -24 -23 -24 -23 -24 -3 -35 29 -15 32 -14 33 12 1 18 3 17
15 -11 13 -30 18 -33 42 -27 34 8 33 7 35 41 2 21 8 28 20 26 12 -2 19 6 23
28 9 40 24 49 24 13 0 -22 2 -25 10 -13 5 8 10 11 10 7 0 -10 -52 -81 -62 -85
-5 -2 -8 -7 -8 -12 0 -5 -13 -22 -30 -38 -27 -28 -44 -82 -20 -67 5 3 10 2 10
-2 0 -5 -18 -17 -40 -27 -42 -19 -56 -42 -17 -31 38 12 116 57 121 70 4 10 -2
11 -25 5 -16 -5 -29 -5 -29 0 0 5 19 14 43 20 23 6 65 17 92 25 28 7 93 21
145 31 52 9 108 23 125 32 34 17 85 66 85 81 0 6 7 11 16 11 10 0 14 -6 11
-14 -12 -31 20 -4 36 30 19 38 21 48 9 40 -4 -2 -7 30 -7 72 -1 53 -6 88 -18
111 -19 37 -21 51 -9 51 8 0 36 -76 47 -127 8 -37 25 -54 25 -24 0 11 6 26 13
33 34 33 40 68 24 138 -3 14 -9 47 -12 74 -8 57 9 56 18 -2 4 -20 13 -46 21
-57 21 -28 40 -7 41 48 1 23 3 78 4 122 l3 80 13 -70 c7 -38 10 -74 7 -80 -3
-6 -1 -6 6 0 6 6 18 46 27 90 l15 80 -5 -81 c-5 -76 -12 -103 -92 -338 -6 -18
-3 -17 35 4 28 16 42 31 42 44 0 18 1 18 13 4 11 -15 20 -12 87 28 41 25 85
49 98 54 12 5 22 14 22 20 0 5 5 10 10 10 7 0 7 -6 0 -19 -5 -11 -10 -22 -10
-24 0 -7 54 -5 60 2 3 3 28 22 55 41 28 19 51 37 53 41 2 4 12 4 23 2 20 -6
19 -7 -8 -29 -15 -13 -35 -23 -44 -24 -9 0 -24 -9 -34 -20 -18 -20 -18 -20 21
-4 21 9 59 27 84 41 26 14 35 17 22 6 -13 -10 -40 -31 -60 -48 -20 -16 -32
-24 -27 -16 6 11 4 13 -11 6 -10 -4 -29 -10 -42 -13 -26 -5 -52 -42 -30 -42 7
0 0 -8 -17 -19 -33 -20 -73 -61 -60 -61 4 0 23 11 40 24 29 23 139 66 165 66
19 0 1 -18 -25 -24 -13 -3 -41 -17 -61 -31 -20 -14 -45 -25 -55 -25 -11 0 -19
-4 -19 -8 0 -5 -22 -19 -50 -31 -50 -23 -60 -34 -39 -46 6 -4 8 -13 5 -21 -8
-20 0 -18 93 21 46 20 86 33 89 30 6 -5 -80 -45 -141 -65 -21 -6 -41 -19 -44
-29 -4 -9 -11 -20 -17 -24 -6 -5 1 -7 17 -4 48 8 18 -7 -36 -18 -28 -5 -52
-15 -54 -21 -2 -7 6 -10 24 -6 31 5 31 4 -15 -27 l-33 -23 6 31 c4 23 2 31 -9
31 -19 0 -30 -17 -14 -22 18 -6 18 -68 -1 -69 -12 0 -11 -3 4 -9 16 -7 11 -9
-22 -9 -35 -1 -40 -4 -36 -20 4 -16 -3 -19 -54 -24 -119 -11 -209 -29 -241
-48 -18 -10 -39 -19 -46 -19 -7 0 -34 -11 -62 -24 -27 -13 -73 -31 -102 -41
-52 -16 -154 -78 -160 -96 -2 -5 -8 -9 -14 -9 -12 0 -94 -67 -158 -131 -45
-44 -94 -72 -185 -105 -51 -19 -102 -68 -127 -121 -18 -41 -51 -59 -60 -33 -2
6 -17 8 -36 4 -26 -5 -36 -15 -52 -52 -11 -24 -20 -53 -20 -64 0 -11 -7 -27
-16 -36 -13 -13 -15 -29 -10 -84 3 -37 13 -93 21 -125 9 -32 19 -111 22 -175
l6 -118 964 0 963 0 0 1800 0 1800 -2400 0 -2400 0 1 -1132z m3884 1092 c-3
-5 -10 -10 -16 -10 -5 0 -9 5 -9 10 0 6 7 10 16 10 8 0 12 -4 9 -10z m245 -9
c0 -21 -13 -41 -26 -41 -8 0 -14 10 -14 25 0 18 5 25 20 25 11 0 20 -4 20 -9z
m-904 -703 c20 -39 15 -42 -21 -14 -19 16 -26 28 -22 40 9 22 23 13 43 -26z
m247 -173 c-3 -9 -8 -14 -10 -11 -3 3 -2 9 2 15 9 16 15 13 8 -4z m-2969 -124
c9 -13 -3 -39 -21 -45 -22 -9 -27 -1 -19 29 6 25 29 34 40 16z m3176 -31 c-8
-5 -19 -10 -25 -10 -5 0 -3 5 5 10 8 5 20 10 25 10 6 0 3 -5 -5 -10z m-548
-112 c-7 -7 -12 -8 -12 -2 0 14 12 26 19 19 2 -3 -1 -11 -7 -17z m108 -28 c0
-5 -4 -10 -10 -10 -5 0 -10 5 -10 10 0 6 5 10 10 10 6 0 10 -4 10 -10z m1430
-4 c0 -2 -7 -7 -16 -10 -8 -3 -12 -2 -9 4 6 10 25 14 25 6z m-993 -12 c-3 -3
-12 -4 -19 -1 -8 3 -5 6 6 6 11 1 17 -2 13 -5z m-792 -114 c-10 -11 -23 -20
-28 -20 -6 0 0 9 13 20 13 11 25 20 28 20 3 0 -3 -9 -13 -20z m597 -42 c-7 -7
-12 -8 -12 -2 0 14 12 26 19 19 2 -3 -1 -11 -7 -17z m353 -77 c-3 -6 -14 -11
-23 -11 -13 0 -13 2 4 14 21 15 30 14 19 -3z m-45 -1 c0 -5 -4 -10 -10 -10 -5
0 -10 5 -10 10 0 6 5 10 10 10 6 0 10 -4 10 -10z m-105 -50 c19 -8 19 -9 -2
-9 -12 -1 -25 4 -28 9 -7 12 2 12 30 0z m-655 -215 c-23 -25 -40 -32 -40 -17
0 7 49 41 59 42 3 0 -6 -11 -19 -25z m825 -105 c-11 -5 -29 -9 -40 -9 l-20 0
20 9 c11 5 29 9 40 9 l20 0 -20 -9z m655 -30 c-19 -13 -30 -13 -30 0 0 6 10
10 23 10 18 0 19 -2 7 -10z m-863 -66 c-3 -3 -12 -4 -19 -1 -8 3 -5 6 6 6 11
1 17 -2 13 -5z m166 -11 c-7 -2 -19 -2 -25 0 -7 3 -2 5 12 5 14 0 19 -2 13 -5z
m764 -69 c-3 -3 -12 -4 -19 -1 -8 3 -5 6 6 6 11 1 17 -2 13 -5z m-107 -84 c0
-5 -4 -10 -10 -10 -5 0 -10 5 -10 10 0 6 5 10 10 10 6 0 10 -4 10 -10z m-147
-167 c-13 -2 -33 -2 -45 0 -13 2 -3 4 22 4 25 0 35 -2 23 -4z"/>
<path d="M3300 2456 c0 -9 5 -16 10 -16 6 0 10 4 10 9 0 6 -4 13 -10 16 -5 3
-10 -1 -10 -9z"/>
<path d="M3346 2404 c-27 -7 -54 -18 -59 -23 -23 -23 3 -19 69 9 73 31 70 36
-10 14z"/>
<path d="M3368 2353 c6 -2 18 -2 25 0 6 3 1 5 -13 5 -14 0 -19 -2 -12 -5z"/>
<path d="M2980 2169 l-35 -18 31 -1 c17 0 37 6 43 14 19 23 -1 26 -39 5z"/>
<path d="M3506 2155 c4 -8 8 -15 10 -15 2 0 4 7 4 15 0 8 -4 15 -10 15 -5 0
-7 -7 -4 -15z"/>
<path d="M3550 2149 c-7 -11 -9 -23 -6 -26 7 -7 46 26 46 39 0 17 -30 7 -40
-13z"/>
<path d="M3471 2154 c1 -21 16 -47 21 -38 4 5 0 18 -8 29 -8 10 -14 15 -13 9z"/>
<path d="M3432 2103 c-8 -18 -9 -30 -2 -37 15 -15 22 -2 18 33 l-3 31 -13 -27z"/>
<path d="M2802 2062 c-13 -9 -6 -42 9 -42 8 0 29 32 29 44 0 9 -23 7 -38 -2z"/>
<path d="M2935 2044 c-33 -30 -29 -38 13 -23 21 7 32 18 32 30 0 26 -12 24
-45 -7z"/>
<path d="M2760 2011 c-7 -15 -7 -21 0 -21 12 0 25 28 17 36 -3 3 -10 -4 -17
-15z"/>
<path d="M2920 1978 c0 -20 -1 -21 -13 -4 -12 16 -14 16 -31 -3 -17 -19 -17
-21 5 -50 26 -35 36 -38 42 -13 4 14 6 14 12 -5 8 -25 24 -31 26 -10 1 6 3 33
4 60 2 44 1 47 -21 47 -18 0 -24 -6 -24 -22z"/>
<path d="M3145 1809 c-3 -4 -31 -22 -61 -40 l-56 -32 6 -41 c4 -22 12 -44 19
-48 9 -6 9 -8 0 -8 -21 0 -16 -65 7 -85 21 -19 42 -13 22 7 -7 7 -12 19 -11
28 0 10 4 7 11 -8 13 -25 60 -42 66 -24 2 7 8 9 13 6 5 -3 30 -7 55 -9 32 -2
47 2 53 13 5 9 16 13 29 10 15 -4 32 4 58 29 21 20 43 32 51 29 8 -4 27 2 41
12 15 10 39 23 55 30 15 6 27 18 27 26 0 7 9 16 21 19 29 8 21 38 -16 56 -17
8 -38 18 -48 23 -24 12 -336 18 -342 7z m-65 -133 c0 -3 -4 -8 -10 -11 -5 -3
-10 -1 -10 4 0 6 5 11 10 11 6 0 10 -2 10 -4z"/>
<path d="M3586 1773 c-3 -4 -1 -12 5 -20 13 -15 69 -18 69 -4 0 5 8 7 18 4 10
-2 24 3 31 11 12 14 10 16 -11 16 -13 0 -28 -4 -34 -10 -6 -6 -21 -6 -41 -1
-17 5 -34 7 -37 4z"/>
<path d="M4370 1752 c0 -5 -6 -9 -13 -9 -6 0 -42 -17 -80 -38 -61 -36 -67 -42
-67 -72 0 -17 4 -34 9 -38 12 -7 38 19 46 45 7 23 21 26 27 8 3 -8 17 0 36 22
20 21 32 29 32 20 1 -8 7 3 15 25 18 48 17 45 5 45 -5 0 -10 -4 -10 -8z"/>
<path d="M4426 1733 c-6 -14 -5 -15 5 -6 7 7 10 15 7 18 -3 3 -9 -2 -12 -12z"/>
<path d="M4490 1670 c0 -5 7 -7 15 -4 8 4 15 8 15 10 0 2 -7 4 -15 4 -8 0 -15
-4 -15 -10z"/>
<path d="M3521 1608 c-34 -35 -40 -54 -13 -43 9 4 24 9 34 12 14 4 27 31 28
56 0 15 -19 6 -49 -25z"/>
<path d="M4132 1619 c-45 -21 -56 -36 -50 -65 3 -17 4 -17 21 0 16 17 17 16
17 -3 0 -27 17 -27 25 -1 3 11 15 25 26 30 18 10 28 60 12 60 -5 -1 -27 -10
-51 -21z"/>
<path d="M3460 1616 c-48 -16 -110 -48 -110 -57 0 -8 37 -19 68 -19 14 0 37
15 57 38 50 54 48 59 -15 38z"/>
<path d="M3280 1549 c0 -5 5 -7 10 -4 6 3 10 8 10 11 0 2 -4 4 -10 4 -5 0 -10
-5 -10 -11z"/>
<path d="M4309 1548 c-4 -39 -4 -68 -1 -68 11 0 31 37 32 58 0 23 -29 32 -31
10z"/>
<path d="M4275 1520 c3 -5 2 -10 -4 -10 -13 0 -46 -49 -38 -56 8 -8 57 46 57
62 0 8 -5 14 -11 14 -5 0 -7 -4 -4 -10z"/>
<path d="M4110 1509 c0 -5 5 -7 10 -4 6 3 10 8 10 11 0 2 -4 4 -10 4 -5 0 -10
-5 -10 -11z"/>
<path d="M4158 1399 c-10 -5 -18 -15 -18 -21 0 -9 3 -9 12 0 7 7 20 12 30 12
10 0 18 5 18 10 0 13 -20 12 -42 -1z"/>
<path d="M3114 1339 c3 -31 14 -75 24 -98 l19 -41 28 40 c15 22 30 38 33 35 3
-3 -9 -26 -26 -50 -28 -40 -43 -95 -27 -95 11 0 69 33 83 46 7 8 17 14 21 14
4 0 21 11 37 25 16 14 34 25 40 25 17 0 25 28 14 48 -5 9 -11 28 -14 42 -5 26
-14 29 -76 31 -13 1 -33 7 -44 15 -25 17 -68 18 -84 2 -10 -10 -15 -10 -23 2
-8 11 -9 -1 -5 -41z"/>
<path d="M4188 1363 c6 -2 18 -2 25 0 6 3 1 5 -13 5 -14 0 -19 -2 -12 -5z"/>
<path d="M3908 1353 c-10 -3 -18 -11 -18 -19 0 -18 11 -18 35 -1 20 15 10 26
-17 20z"/>
<path d="M3380 1324 c0 -8 5 -12 10 -9 6 4 8 11 5 16 -9 14 -15 11 -15 -7z"/>
<path d="M4045 1325 c-39 -17 -11 -18 35 0 23 9 28 14 15 14 -11 0 -33 -6 -50
-14z"/>
<path d="M3836 1308 c-9 -12 -16 -26 -16 -31 0 -13 49 27 50 41 0 19 -17 14
-34 -10z"/>
<path d="M3700 1305 c-52 -7 -95 -14 -96 -14 0 -1 -33 -26 -73 -56 -41 -30
-97 -62 -125 -71 -58 -19 -180 -76 -201 -94 -8 -6 -19 -9 -25 -5 -5 3 -10 0
-10 -9 0 -8 4 -16 9 -18 4 -1 17 -29 28 -61 l20 -57 26 24 c15 14 27 22 27 19
0 -4 15 7 33 23 17 17 57 46 87 65 30 18 66 45 80 59 14 14 48 35 75 47 149
65 184 84 225 121 25 23 38 41 30 40 -8 0 -58 -6 -110 -13z"/>
<path d="M4073 1303 c-18 -2 -33 -9 -33 -14 0 -9 22 -6 80 12 28 8 10 9 -47 2z"/>
<path d="M7 1043 c-4 -3 -7 -240 -7 -525 l0 -518 93 0 c88 0 101 3 145 36 2 1
-1 10 -7 21 -17 29 -41 112 -41 138 0 20 10 29 53 49 28 13 72 30 97 36 25 7
62 21 83 32 21 11 47 18 58 15 26 -7 24 11 -7 86 -20 46 -25 72 -21 102 l6 41
-66 25 c-47 17 -73 34 -94 61 -16 20 -53 50 -82 66 -95 55 -161 141 -143 187
3 8 -6 23 -21 35 -23 18 -26 27 -24 70 2 46 -5 60 -22 43z"/>
<path d="M2522 503 c-24 -10 -47 -11 -88 -4 -53 8 -57 7 -80 -18 -13 -14 -27
-33 -30 -43 -5 -16 -52 -38 -84 -38 -10 0 -23 6 -29 14 -9 10 -44 13 -159 11
-151 -3 -219 -12 -308 -41 l-50 -17 -110 37 c-92 30 -122 36 -197 36 -51 0
-115 7 -150 16 l-62 17 -48 -33 c-39 -29 -56 -34 -105 -34 l-57 -1 2 -39 c1
-28 -7 -57 -28 -97 -29 -53 -30 -59 -15 -81 10 -16 13 -36 9 -65 -6 -47 -8
-48 -49 -33 -37 14 -48 1 -39 -49 l7 -41 808 0 807 0 5 44 c3 25 21 75 40 113
29 56 39 91 53 193 9 68 19 130 22 136 8 22 -29 32 -65 17z"/>
</g>
</svg>
