<?xml version="1.0" standalone="no"?>
<!DOCTYPE svg PUBLIC "-//W3C//DTD SVG 20010904//EN"
 "http://www.w3.org/TR/2001/REC-SVG-20010904/DTD/svg10.dtd">
<svg version="1.0" xmlns="http://www.w3.org/2000/svg"
 width="480.000000pt" height="360.000000pt" viewBox="0 0 480.000000 360.000000"
 preserveAspectRatio="xMidYMid meet">
<metadata>
Created by potrace 1.16, written by Peter Selinger 2001-2019
</metadata>
<rect width="1" height="360" fill="#000000"/>
<rect x="479" width="1" height="360" fill="#000000"/>
<rect width="480" height="1" fill="#000000"/>
<rect y="359" width="480" height="1" fill="#000000"/>
<g transform="translate(0.000000,360.000000) scale(0.100000,-0.100000)"
fill="#000000" stroke="none">
<path d="M1435 3323 c-16 -3 -41 -13 -56 -24 -15 -10 -32 -19 -37 -19 -6 0
-16 -13 -24 -30 -13 -29 -28 -40 -28 -20 0 6 -4 10 -10 10 -10 0 -24 -46 -38
-122 -5 -24 -23 -64 -41 -88 -26 -36 -29 -46 -17 -48 19 -4 20 -16 5 -43 -8
-16 -7 -23 4 -32 8 -7 17 -38 21 -74 3 -34 12 -81 20 -105 15 -42 14 -46 -19
-143 -33 -95 -65 -215 -65 -244 0 -7 6 -11 14 -8 10 4 24 -11 42 -48 16 -30
30 -53 32 -51 2 2 -2 32 -9 65 -11 58 -7 97 6 55 4 -10 14 -35 23 -54 14 -31
16 -33 20 -12 5 30 23 28 57 -8 16 -16 30 -28 33 -25 2 2 16 -10 30 -27 21
-25 23 -33 14 -47 -24 -32 -24 -42 3 -86 30 -52 27 -80 -11 -89 -51 -13 -214
-199 -214 -244 0 -8 -21 -37 -46 -64 -58 -62 -74 -102 -74 -180 0 -85 27 -127
105 -158 41 -17 57 -29 62 -47 8 -32 -14 -271 -29 -315 -6 -18 -23 -51 -39
-73 -15 -22 -34 -57 -42 -77 -8 -20 -23 -41 -33 -46 -18 -10 -22 -55 -14 -133
1 -9 -19 -71 -45 -139 -25 -68 -48 -144 -49 -169 -3 -31 -9 -47 -19 -49 -17
-4 -18 -5 -58 -119 -36 -103 -36 -126 0 -163 l28 -30 592 0 c556 0 591 1 591
18 0 9 -20 75 -43 145 l-43 128 28 17 c26 15 28 20 22 59 -6 40 -4 44 38 85
41 40 47 53 77 162 38 135 83 248 182 455 101 210 99 232 -53 537 -20 40 -20
42 -3 72 16 26 17 35 7 57 -6 14 -22 30 -34 36 -20 9 -23 18 -24 72 -1 76 -25
127 -87 184 -48 45 -85 66 -132 77 -59 15 -122 66 -80 66 25 0 28 26 9 59 -19
33 -11 57 10 29 12 -17 14 -17 31 2 22 25 45 26 45 3 0 -12 9 -5 27 20 29 41
43 47 43 17 0 -32 28 -36 51 -6 18 23 48 28 34 5 -4 -5 -1 -9 5 -9 6 0 18 17
27 38 16 36 16 36 23 12 5 -20 13 -6 45 80 56 148 55 192 -9 325 -27 55 -70
129 -96 165 -28 39 -49 81 -53 104 -11 67 -48 111 -124 146 -37 17 -75 35 -83
40 -153 94 -225 105 -410 65 -21 -5 -27 0 -40 27 -16 34 -25 38 -75 31z m-95
-147 c0 -2 -7 -9 -15 -16 -12 -10 -15 -10 -15 4 0 9 7 16 15 16 8 0 15 -2 15
-4z m94 -952 c3 -8 2 -12 -4 -9 -6 3 -10 10 -10 16 0 14 7 11 14 -7z m594
-882 l43 -37 -24 -60 c-13 -33 -39 -98 -57 -145 -38 -99 -141 -310 -151 -310
-3 0 -16 22 -27 48 -21 49 -21 49 -2 140 10 51 39 157 64 237 58 181 75 195
154 127z"/>
<path d="M2967 2629 c-24 -13 -44 -33 -53 -54 -17 -41 -18 -91 -3 -101 12 -7
5 -41 -21 -100 -11 -23 -28 -63 -38 -90 l-20 -49 -114 -11 c-195 -20 -306 -53
-356 -107 -36 -40 -62 -100 -62 -146 0 -39 5 -49 44 -86 47 -46 190 -121 301
-158 56 -19 70 -28 68 -43 -8 -71 -14 -107 -18 -115 -4 -5 -2 -9 4 -9 5 0 7
-12 5 -27 -2 -16 -6 -51 -8 -79 -4 -43 -2 -51 12 -50 9 0 18 -9 22 -24 3 -14
11 -25 17 -25 32 0 34 -23 5 -69 -34 -53 -44 -77 -138 -336 -36 -102 -73 -198
-81 -214 -45 -87 -52 -162 -28 -296 9 -47 22 -150 30 -229 8 -79 20 -149 26
-157 6 -7 26 -18 45 -24 19 -6 34 -16 34 -21 0 -5 188 -9 466 -9 438 0 465 1
460 18 -3 9 -14 54 -26 99 -11 45 -25 94 -30 108 -8 20 -6 25 6 25 9 0 33 14
54 30 21 17 40 30 43 30 9 0 31 -74 29 -100 -1 -14 -12 -33 -24 -43 -20 -17
-21 -20 -7 -30 9 -7 14 -17 12 -23 -6 -19 47 -35 93 -28 53 8 68 24 94 99 27
79 25 109 -11 200 -31 75 -31 78 -15 112 9 18 16 40 16 48 0 8 -60 59 -132
114 -216 163 -199 143 -209 246 -5 49 -17 105 -27 125 -10 19 -31 59 -46 87
l-28 53 21 26 c25 32 25 38 4 125 -15 64 -15 70 0 87 22 24 22 81 1 111 -13
18 -14 28 -5 47 10 23 14 24 129 24 122 0 268 20 325 44 18 7 44 26 60 41 23
23 27 36 27 83 0 30 -5 73 -12 95 -26 85 -150 174 -338 242 l-85 30 -11 88
c-5 48 -8 90 -5 92 2 3 12 5 22 5 50 0 77 106 44 170 -17 32 -74 80 -96 80 -8
0 -57 13 -109 29 -100 31 -191 49 -275 57 -38 3 -60 -1 -88 -17z m-100 -1837
c48 -90 83 -177 83 -210 0 -21 -55 -142 -65 -142 -2 0 -14 19 -26 43 -12 23
-39 69 -61 101 -38 55 -40 62 -34 110 9 73 41 176 55 176 3 0 25 -35 48 -78z"/>
</g>
</svg>
