<?xml version="1.0" standalone="no"?>
<!DOCTYPE svg PUBLIC "-//W3C//DTD SVG 20010904//EN"
 "http://www.w3.org/TR/2001/REC-SVG-20010904/DTD/svg10.dtd">
<svg version="1.0" xmlns="http://www.w3.org/2000/svg"
 width="480.000000pt" height="360.000000pt" viewBox="0 0 480.000000 360.000000"
 preserveAspectRatio="xMidYMid meet">
<metadata>
Created by potrace 1.16, written by Peter Selinger 2001-2019
</metadata>
<rect width="1" height="360" fill="#000000"/>
<rect x="479" width="1" height="360" fill="#000000"/>
<rect width="480" height="1" fill="#000000"/>
<rect y="359" width="480" height="1" fill="#000000"/>
<g transform="translate(0.000000,360.000000) scale(0.100000,-0.100000)"
fill="#000000" stroke="none">
<path d="M0 1800 l0 -1800 2400 0 2400 0 0 1800 0 1800 -2400 0 -2400 0 0
-1800z m2967 491 c23 -6 28 -13 26 -37 -6 -110 -58 -224 -205 -444 -133 -200
-199 -284 -316 -397 -88 -86 -115 -107 -232 -171 -50 -27 -252 -92 -288 -92
-38 0 -68 39 -75 100 -8 67 -26 86 -102 105 -122 32 -131 77 -45 216 115 182
273 356 440 481 139 104 373 213 525 243 70 14 213 12 272 -4z"/>
</g>
</svg>
