<?xml version="1.0" standalone="no"?>
<!DOCTYPE svg PUBLIC "-//W3C//DTD SVG 20010904//EN"
 "http://www.w3.org/TR/2001/REC-SVG-20010904/DTD/svg10.dtd">
<svg version="1.0" xmlns="http://www.w3.org/2000/svg"
 width="480.000000pt" height="360.000000pt" viewBox="0 0 480.000000 360.000000"
 preserveAspectRatio="xMidYMid meet">
<metadata>
Created by potrace 1.16, written by Peter Selinger 2001-2019
</metadata>
<rect width="1" height="360" fill="#000000"/>
<rect x="479" width="1" height="360" fill="#000000"/>
<rect width="480" height="1" fill="#000000"/>
<rect y="359" width="480" height="1" fill="#000000"/>
<g transform="translate(0.000000,360.000000) scale(0.100000,-0.100000)"
fill="#000000" stroke="none">
<path d="M0 3371 l0 -229 58 -6 c31 -4 80 -13 107 -20 97 -26 141 -28 161 -5
46 50 105 62 148 28 30 -23 33 -54 10 -87 -24 -35 -11 -37 47 -8 58 29 102 32
195 15 69 -13 81 -18 63 -30 -11 -7 -10 -11 5 -22 23 -17 46 -89 39 -118 -5
-17 -2 -20 17 -17 19 3 25 -4 39 -49 9 -28 20 -55 24 -59 14 -14 7 -47 -18
-76 -14 -16 -25 -33 -25 -38 0 -21 81 -100 139 -135 43 -26 73 -53 92 -84 16
-25 43 -56 61 -69 18 -12 61 -42 95 -67 47 -33 63 -40 67 -29 3 8 3 21 0 29
-4 9 14 39 45 75 31 37 55 78 61 103 17 68 51 126 100 170 56 50 76 108 90
264 5 54 14 141 21 194 15 111 5 195 -45 383 -9 33 -13 72 -11 88 l5 28 -795
0 -795 0 0 -229z"/>
<path d="M0 1555 l0 -1555 378 2 377 3 9 93 c4 51 5 96 1 100 -4 4 -49 7 -100
7 -52 0 -98 5 -103 10 -5 6 -15 27 -22 48 -16 50 -39 61 -124 54 -54 -4 -75
-2 -88 10 -13 12 -21 12 -38 3 -48 -26 -63 19 -39 117 9 34 9 47 0 52 -8 6 -2
20 23 49 22 28 32 48 29 62 -3 11 7 39 23 67 16 27 37 65 48 85 10 20 29 47
42 59 13 12 24 28 24 36 0 7 4 13 10 13 5 0 7 7 3 15 -3 10 0 15 8 13 8 -2 13
2 12 9 -2 7 20 52 48 100 72 125 119 219 183 370 43 103 54 139 49 166 -3 22
1 46 12 66 14 29 15 45 4 149 -13 129 -22 163 -32 113 -4 -17 -36 -93 -71
-168 -78 -166 -95 -221 -78 -258 18 -40 16 -124 -4 -132 -10 -4 -22 0 -29 10
-19 27 -50 9 -74 -41 -11 -26 -23 -58 -25 -72 -23 -131 -42 -134 -76 -12 -26
93 -25 120 4 162 l23 35 -21 28 -21 28 -17 -38 -17 -38 0 32 c-1 50 -18 48
-37 -4 -22 -59 -23 -61 -34 -43 -8 13 -10 12 -10 -2 0 -21 -16 -24 -23 -5 -3
6 -6 0 -6 -15 -1 -33 -17 -45 -26 -19 -4 13 -12 17 -25 14 -14 -4 -20 0 -20
11 0 10 -4 15 -9 11 -11 -6 -15 5 -31 89 -7 36 -9 84 -5 120 4 34 8 113 10
177 4 138 18 176 143 403 44 77 86 160 95 184 22 55 22 162 1 232 -10 32 -18
101 -20 164 -2 59 -5 110 -8 113 -2 3 -14 0 -25 -6 -39 -22 -90 -16 -118 12
-24 24 -25 28 -13 57 7 18 24 48 37 68 38 54 21 74 -91 112 -50 16 -97 30
-104 30 -9 0 -12 -319 -12 -1555z"/>
<path d="M899 1853 c-4 -93 5 -108 22 -36 6 28 4 54 -5 84 l-13 44 -4 -92z"/>
<path d="M411 1479 c5 -28 10 -53 12 -56 8 -7 38 48 33 60 -2 7 -5 4 -5 -6 -1
-27 -25 -15 -29 14 -2 13 -7 28 -11 32 -5 5 -5 -15 0 -44z"/>
<path d="M146 1484 c-4 -14 -5 -28 -3 -31 3 -2 8 8 11 23 4 14 5 28 3 31 -3 2
-8 -8 -11 -23z"/>
<path d="M1655 462 c8 -108 2 -142 -23 -142 -53 0 -91 -22 -116 -65 -14 -24
-34 -46 -44 -49 -9 -3 -74 -5 -144 -3 -93 1 -130 -1 -140 -11 -8 -8 -15 -48
-18 -102 l-5 -90 478 0 c375 0 477 3 477 13 -1 17 -21 42 -47 56 -13 6 -23 18
-23 25 0 18 -107 116 -126 116 -7 0 -20 13 -29 29 -8 17 -42 57 -75 91 -33 34
-60 67 -60 75 0 11 -19 38 -80 112 -6 7 -10 19 -10 28 0 8 -5 15 -11 15 -7 0
-8 -30 -4 -98z"/>
<path d="M965 141 c-30 -6 -35 -17 -59 -113 l-6 -28 65 0 65 0 0 53 c0 64 -9
97 -24 96 -6 -1 -24 -4 -41 -8z"/>
</g>
</svg>
