<?xml version="1.0" standalone="no"?>
<!DOCTYPE svg PUBLIC "-//W3C//DTD SVG 20010904//EN"
 "http://www.w3.org/TR/2001/REC-SVG-20010904/DTD/svg10.dtd">
<svg version="1.0" xmlns="http://www.w3.org/2000/svg"
 width="480.000000pt" height="360.000000pt" viewBox="0 0 480.000000 360.000000"
 preserveAspectRatio="xMidYMid meet">
<metadata>
Created by potrace 1.16, written by Peter Selinger 2001-2019
</metadata>
<rect width="1" height="360" fill="#000000"/>
<rect x="479" width="1" height="360" fill="#000000"/>
<rect width="480" height="1" fill="#000000"/>
<rect y="359" width="480" height="1" fill="#000000"/>
<g transform="translate(0.000000,360.000000) scale(0.100000,-0.100000)"
fill="#000000" stroke="none">
<path d="M0 1800 l0 -1800 867 2 866 3 39 120 c21 66 68 214 104 330 65 207
111 318 161 383 23 30 25 44 29 158 l4 124 -26 -6 -26 -7 27 42 c29 43 27 65
-3 43 -32 -23 -45 -25 -64 -13 -26 16 -30 11 -45 -60 -25 -123 -150 -334 -264
-446 -35 -35 -109 -95 -164 -134 -169 -122 -263 -198 -284 -232 -11 -18 -42
-54 -70 -81 -40 -39 -59 -50 -98 -57 -26 -4 -56 -10 -65 -14 -13 -5 -18 -2
-18 9 0 13 -4 15 -19 6 -48 -25 -41 4 16 70 l48 55 -49 -42 c-81 -71 -92 -48
-20 43 49 63 94 144 94 169 0 24 -26 29 -70 11 -25 -10 -41 -12 -45 -5 -10 16
9 33 74 63 45 22 60 35 65 55 3 14 35 60 72 101 325 367 423 497 409 541 -4
11 -11 19 -16 19 -5 0 -9 6 -9 14 0 27 -21 28 -47 5 l-26 -24 7 40 c4 22 16
60 27 84 16 37 17 42 3 37 -84 -32 -85 -5 -1 66 34 29 94 87 134 128 79 82 84
96 118 290 20 112 20 110 -15 110 -16 0 -30 5 -30 11 0 5 11 50 25 99 32 115
32 114 -9 106 -33 -6 -37 -4 -74 47 -34 46 -52 80 -92 182 -47 120 -56 174
-35 215 l17 33 116 -6 c75 -3 144 -13 192 -27 59 -17 79 -19 99 -10 39 18 182
50 223 50 21 0 76 11 122 24 46 14 111 28 143 31 58 7 60 6 86 -25 30 -35 29
-32 31 -110 1 -31 5 -60 9 -66 3 -6 2 -25 -3 -42 -8 -29 -1 -115 16 -195 5
-24 3 -28 -12 -25 -16 2 -21 -7 -30 -55 -7 -31 -16 -63 -21 -70 -5 -6 -15 -32
-22 -56 -9 -29 -15 -40 -21 -31 -15 24 -30 -1 -30 -49 0 -26 3 -76 7 -110 5
-56 9 -64 32 -73 14 -5 59 -25 98 -45 69 -33 75 -38 112 -106 22 -40 49 -107
60 -150 11 -44 29 -93 40 -110 10 -18 24 -63 30 -102 l12 -70 155 -150 c170
-165 176 -177 129 -233 -14 -17 -25 -41 -25 -55 0 -35 36 -76 87 -98 39 -17
43 -21 33 -39 -13 -24 -41 -40 -70 -40 -52 0 -130 67 -130 112 0 7 -4 19 -9
27 -8 12 -15 10 -44 -12 -47 -36 -72 -79 -93 -160 -17 -68 -17 -68 -47 -61
-26 5 -29 4 -22 -12 4 -11 37 -137 73 -282 l65 -262 944 0 943 0 0 1800 0
1800 -2400 0 -2400 0 0 -1800z"/>
</g>
</svg>
