<?xml version="1.0" standalone="no"?>
<!DOCTYPE svg PUBLIC "-//W3C//DTD SVG 20010904//EN"
 "http://www.w3.org/TR/2001/REC-SVG-20010904/DTD/svg10.dtd">
<svg version="1.0" xmlns="http://www.w3.org/2000/svg"
 width="480.000000pt" height="360.000000pt" viewBox="0 0 480.000000 360.000000"
 preserveAspectRatio="xMidYMid meet">
<metadata>
Created by potrace 1.16, written by Peter Selinger 2001-2019
</metadata>
<rect width="1" height="360" fill="#000000"/>
<rect x="479" width="1" height="360" fill="#000000"/>
<rect width="480" height="1" fill="#000000"/>
<rect y="359" width="480" height="1" fill="#000000"/>
<g transform="translate(0.000000,360.000000) scale(0.100000,-0.100000)"
fill="#000000" stroke="none">
<path d="M0 1800 l0 -1800 2400 0 2400 0 0 1800 0 1800 -2400 0 -2400 0 0
-1800z m2540 453 c30 -8 72 -24 93 -35 52 -26 122 -92 137 -128 15 -35 11 -34
58 -14 20 8 71 27 112 41 41 14 79 31 83 39 4 8 19 14 33 14 31 0 70 24 111
70 21 23 32 30 33 19 0 -8 -5 -20 -12 -27 -23 -23 6 -30 62 -16 69 19 97 13
50 -9 l-35 -17 43 5 c23 3 42 1 42 -4 0 -11 -24 -21 -53 -22 -24 -1 -18 -4 26
-13 36 -8 25 -26 -16 -27 l-32 -1 33 -9 c30 -9 37 -32 9 -28 -28 3 -48 -2 -42
-11 3 -5 23 -10 43 -11 l37 -1 -45 -12 c-27 -7 -39 -15 -30 -18 29 -10 3 -17
-75 -19 -49 -1 -89 -7 -103 -16 -13 -8 -30 -12 -38 -9 -8 3 -36 -2 -62 -11
-26 -9 -76 -23 -112 -32 l-65 -16 -35 -85 c-28 -68 -47 -97 -96 -146 -34 -34
-83 -74 -110 -89 -71 -41 -80 -51 -119 -129 -20 -39 -43 -81 -53 -93 -17 -22
-18 -22 -69 -7 -76 22 -82 35 -39 82 20 22 36 42 36 45 0 3 -17 7 -37 10 -21
2 -64 11 -96 18 -55 13 -60 12 -102 -11 -25 -14 -66 -44 -91 -67 -25 -24 -66
-60 -90 -80 -26 -21 -43 -42 -40 -50 4 -9 -3 -13 -19 -13 -29 0 -50 -31 -33
-48 9 -9 7 -12 -8 -12 -21 -1 -60 -55 -70 -98 -11 -44 -18 -49 -25 -17 l-6 30
-11 -27 c-6 -16 -17 -28 -23 -28 -7 0 -8 7 -4 18 18 43 16 55 -5 25 -12 -18
-26 -33 -31 -33 -12 0 -11 6 7 43 l17 32 -27 -24 c-19 -18 -26 -20 -26 -10 0
8 4 19 9 24 17 17 42 85 31 85 -5 0 -10 -4 -10 -10 0 -5 -9 -19 -20 -30 -24
-24 -25 -22 -4 19 20 40 9 54 -16 21 -11 -14 -20 -21 -20 -16 0 6 9 19 20 31
11 12 21 37 23 55 2 31 7 35 40 43 21 5 51 22 67 38 15 16 34 29 40 29 6 0 40
24 75 53 35 28 87 70 114 91 28 22 51 43 51 48 0 4 -15 29 -34 55 -25 35 -36
64 -41 104 -9 74 12 118 119 245 105 126 186 201 222 209 16 4 34 9 39 11 20
7 161 -7 215 -23z"/>
</g>
</svg>
