<?xml version="1.0" standalone="no"?>
<!DOCTYPE svg PUBLIC "-//W3C//DTD SVG 20010904//EN"
 "http://www.w3.org/TR/2001/REC-SVG-20010904/DTD/svg10.dtd">
<svg version="1.0" xmlns="http://www.w3.org/2000/svg"
 width="480.000000pt" height="360.000000pt" viewBox="0 0 480.000000 360.000000"
 preserveAspectRatio="xMidYMid meet">
<metadata>
Created by potrace 1.16, written by Peter Selinger 2001-2019
</metadata>
<rect width="1" height="360" fill="#000000"/>
<rect x="479" width="1" height="360" fill="#000000"/>
<rect width="480" height="1" fill="#000000"/>
<rect y="359" width="480" height="1" fill="#000000"/>
<g transform="translate(0.000000,360.000000) scale(0.100000,-0.100000)"
fill="#000000" stroke="none">
<path d="M1120 1800 l0 -1800 1840 0 1840 0 0 1800 0 1800 -1840 0 -1840 0 0
-1800z m1880 687 c40 -20 200 -153 200 -167 0 -24 -73 -9 -119 23 -85 62 -107
58 -88 -18 l12 -48 85 -27 c111 -35 170 -60 170 -71 0 -5 -5 -9 -11 -9 -8 0
-8 -5 1 -15 7 -8 28 -15 46 -15 19 0 42 -4 52 -9 9 -5 35 -17 57 -27 34 -16
37 -19 18 -22 -28 -4 -30 -19 -3 -27 11 -3 20 -11 20 -17 0 -6 -9 -8 -20 -5
-23 6 -26 -3 -8 -21 9 -9 7 -12 -10 -12 -12 0 -22 -5 -22 -10 0 -7 -13 -8 -34
-4 -27 5 -38 2 -52 -14 -10 -12 -23 -18 -33 -14 -14 5 -14 4 -2 -11 19 -23 10
-30 -23 -17 -42 15 -51 12 -25 -9 l24 -20 -45 4 c-25 2 -54 7 -64 11 -14 5
-17 4 -12 -4 4 -7 1 -12 -8 -12 -12 0 -9 -13 14 -62 15 -35 34 -63 41 -63 7 0
17 15 24 34 6 18 21 42 34 52 29 24 71 25 71 3 0 -9 9 -23 20 -32 14 -12 24
-38 31 -82 6 -36 13 -68 17 -72 4 -4 79 -13 166 -20 l158 -13 4 -38 3 -38 -37
1 c-54 3 -59 1 -34 -13 19 -11 48 -9 180 16 147 26 163 27 247 17 50 -7 107
-13 128 -14 24 0 36 -5 33 -13 -3 -6 2 -14 10 -17 8 -3 14 -9 13 -13 -4 -21 3
-31 19 -29 12 1 16 -5 14 -22 -2 -16 4 -25 22 -32 14 -5 26 -15 26 -21 0 -8
11 -9 33 -5 30 5 31 5 13 -9 -19 -14 -18 -15 10 -15 20 0 25 -3 15 -9 -15 -10
-5 -19 37 -31 l27 -7 -29 -12 c-27 -11 -28 -12 -12 -36 11 -16 12 -25 5 -25
-8 0 -8 -4 1 -15 11 -13 8 -15 -21 -16 -31 0 -32 -1 -12 -11 22 -11 39 -48 21
-48 -6 0 -8 -9 -5 -20 5 -19 2 -20 -46 -15 -28 4 -55 9 -59 11 -4 3 -8 -2 -8
-10 0 -14 -26 -22 -54 -17 -19 4 -25 -24 -9 -41 15 -17 14 -18 -18 -19 -34 0
-34 0 -11 -16 40 -28 23 -34 -28 -8 -59 30 -61 30 -53 7 4 -10 -8 -4 -32 17
-59 51 -106 67 -275 91 -85 12 -188 33 -229 46 -63 21 -76 23 -90 11 -23 -20
-69 -35 -129 -42 l-53 -7 8 -32 c13 -54 10 -118 -8 -129 -31 -20 -65 0 -83 48
l-18 45 -20 -25 c-37 -48 -68 -22 -68 59 0 44 -1 45 -32 45 -148 4 -317 18
-335 29 -24 14 -32 59 -13 78 36 36 -103 59 -395 68 -82 2 -136 2 -120 -1 41
-6 49 -17 29 -37 -16 -16 -14 -20 35 -70 28 -28 51 -56 51 -62 0 -14 -51 -37
-60 -27 -3 4 -22 28 -40 52 -45 58 -107 96 -209 128 -67 21 -87 24 -102 15
-10 -7 -25 -12 -34 -12 -9 0 -12 -6 -8 -16 4 -12 0 -15 -23 -12 -22 2 -33 12
-46 40 -19 39 -25 41 -131 53 -40 5 -64 13 -78 28 -27 29 -35 67 -18 78 16 11
235 2 294 -11 45 -11 429 -46 607 -56 l118 -7 40 44 c22 24 52 64 67 89 14 25
39 67 56 93 28 46 30 52 24 130 -5 71 -3 86 15 115 21 34 30 83 21 115 -3 13
-11 17 -26 13 -28 -6 -99 56 -91 79 5 11 0 15 -17 13 -13 0 -56 9 -95 20 -39
12 -77 22 -83 22 -7 0 -35 10 -62 21 -56 24 -75 60 -44 83 16 12 16 13 1 19
-9 4 -16 13 -16 20 0 22 90 30 140 13 27 -9 50 -11 64 -6 11 5 32 11 46 14 17
4 33 20 48 50 28 52 66 89 107 105 41 15 163 8 205 -12z"/>
<path d="M3368 2033 c7 -3 16 -2 19 1 4 3 -2 6 -13 5 -11 0 -14 -3 -6 -6z"/>
<path d="M2877 1723 c-2 -5 -12 -31 -21 -58 -9 -28 -38 -77 -66 -110 -50 -61
-63 -95 -35 -95 21 0 159 105 179 135 22 33 20 44 -11 93 -27 41 -38 49 -46
35z"/>
<path d="M3334 1595 c-3 -8 -3 -19 1 -24 9 -16 140 -53 172 -49 25 3 18 8 -54
46 -89 45 -110 50 -119 27z"/>
<path d="M2 1825 l0 -210 19 43 c45 97 46 240 4 329 l-23 48 0 -210z"/>
</g>
</svg>
