<?xml version="1.0" standalone="no"?>
<!DOCTYPE svg PUBLIC "-//W3C//DTD SVG 20010904//EN"
 "http://www.w3.org/TR/2001/REC-SVG-20010904/DTD/svg10.dtd">
<svg version="1.0" xmlns="http://www.w3.org/2000/svg"
 width="480.000000pt" height="360.000000pt" viewBox="0 0 480.000000 360.000000"
 preserveAspectRatio="xMidYMid meet">
<metadata>
Created by potrace 1.16, written by Peter Selinger 2001-2019
</metadata>
<rect width="1" height="360" fill="#000000"/>
<rect x="479" width="1" height="360" fill="#000000"/>
<rect width="480" height="1" fill="#000000"/>
<rect y="359" width="480" height="1" fill="#000000"/>
<g transform="translate(0.000000,360.000000) scale(0.100000,-0.100000)"
fill="#000000" stroke="none">
<path d="M0 1800 l0 -1800 1273 0 c1215 0 1275 1 1290 18 15 17 15 22 -4 71
-31 84 -57 129 -128 229 -36 51 -78 114 -93 140 -33 57 -52 133 -35 144 54 33
508 8 675 -38 21 -6 22 -3 22 44 0 105 -72 439 -131 608 -23 69 -32 113 -36
194 -3 58 -12 117 -19 132 -19 37 -18 68 6 135 20 59 37 219 26 249 -6 15 -9
15 -33 -7 -23 -21 -25 -22 -18 -4 29 73 35 121 25 190 -16 99 -18 103 -53 122
-18 8 -44 26 -59 38 -15 12 -47 32 -72 45 -62 30 -91 68 -118 153 -35 113 -31
163 23 287 25 58 44 110 42 116 -2 6 -23 20 -48 32 -24 11 -46 30 -50 42 -8
27 24 79 76 123 l40 33 -40 46 c-23 25 -41 50 -41 55 0 13 81 60 129 74 41 12
45 12 61 -9 22 -27 30 -19 30 32 0 50 9 86 21 86 5 0 29 -16 55 -35 25 -19 54
-35 63 -35 10 0 35 14 56 30 21 17 41 30 45 30 4 0 28 -12 54 -26 35 -19 69
-28 142 -35 55 -5 104 -15 113 -22 9 -8 42 -19 74 -25 32 -6 85 -23 120 -36
40 -17 65 -22 71 -16 19 19 45 11 52 -15 4 -16 28 -40 64 -65 137 -93 200
-229 236 -504 18 -139 41 -200 103 -264 48 -49 41 -58 -39 -49 l-48 6 0 -37
c-1 -20 -1 -71 -1 -112 l1 -75 -26 38 c-14 21 -29 49 -32 62 -9 36 -27 44 -21
9 17 -84 19 -116 8 -110 -7 5 -11 -9 -11 -43 0 -49 -1 -51 -20 -39 -11 7 -20
20 -20 30 0 24 -11 48 -21 48 -5 0 -9 -6 -9 -13 0 -7 -7 -22 -15 -33 -15 -18
-16 -17 -10 13 8 40 -2 73 -21 73 -10 0 -14 -13 -15 -47 0 -27 -4 -68 -7 -92
l-7 -44 -18 38 -18 38 -15 -29 c-11 -20 -12 -35 -6 -50 9 -18 16 -20 65 -16
87 7 152 -13 202 -63 56 -54 81 -106 111 -223 13 -53 27 -98 29 -101 3 -2 12
4 19 15 8 10 55 71 105 134 50 63 90 120 91 126 0 6 -11 21 -24 33 l-24 23 21
34 c12 18 33 36 47 40 53 12 140 66 140 87 0 5 -11 20 -25 33 -21 20 -24 27
-15 44 8 16 4 32 -22 82 -29 57 -32 73 -36 170 -4 101 -3 110 22 154 30 54 33
80 10 105 -15 17 -15 21 9 62 34 57 24 74 -32 60 -74 -19 -86 38 -14 72 56 27
57 0 -6 418 -22 145 -26 267 -12 330 l9 37 -2154 0 -2154 0 0 -1800z"/>
<path d="M4340 3592 c0 -4 5 -23 10 -42 10 -35 69 -364 89 -497 6 -40 16 -95
22 -122 l10 -49 51 20 c38 14 53 16 64 7 33 -27 6 -65 -69 -97 -23 -10 -28
-18 -25 -39 3 -24 9 -29 46 -36 44 -8 72 -42 72 -85 0 -11 8 -30 19 -43 10
-13 31 -49 46 -79 15 -30 46 -70 67 -90 22 -19 44 -44 49 -55 4 -11 8 258 8
598 l1 617 -230 0 c-126 0 -230 -3 -230 -8z"/>
<path d="M4783 2161 c-13 -66 -11 -83 8 -64 5 5 9 37 7 69 l-3 59 -12 -64z"/>
<path d="M2897 2042 c-9 -13 -5 -182 4 -182 4 0 9 30 13 68 6 68 -4 136 -17
114z"/>
<path d="M3020 1974 c-18 -47 -14 -52 59 -59 80 -8 110 -1 107 23 -2 13 -12
16 -42 14 -29 -2 -49 4 -77 22 l-38 26 -9 -26z"/>
<path d="M2957 1946 c-19 -43 -15 -58 9 -34 9 9 14 27 12 44 l-4 29 -17 -39z"/>
<path d="M4767 1938 c-39 -68 -52 -136 -39 -199 9 -44 8 -56 -4 -65 -7 -6 -17
-25 -20 -42 -9 -42 -54 -53 -95 -23 l-28 21 -18 -24 c-10 -14 -74 -117 -142
-230 -140 -231 -191 -296 -254 -322 l-43 -18 -12 -92 c-6 -50 -14 -99 -18
-107 -4 -11 1 -18 18 -21 126 -26 128 -27 163 -74 34 -43 35 -46 19 -70 -15
-23 -15 -25 14 -56 47 -48 57 -84 34 -115 -10 -15 -31 -27 -46 -29 -23 -3 -27
-7 -22 -25 22 -75 30 -129 20 -145 -15 -25 -116 -91 -138 -92 -11 0 -30 9 -42
21 -18 17 -26 19 -43 9 -12 -6 -31 -8 -42 -5 -13 5 -31 -2 -54 -20 l-35 -26 0
-95 0 -94 430 0 430 0 0 990 c0 545 -2 990 -4 990 -2 0 -15 -19 -29 -42z"/>
</g>
</svg>
