<?xml version="1.0" standalone="no"?>
<!DOCTYPE svg PUBLIC "-//W3C//DTD SVG 20010904//EN"
 "http://www.w3.org/TR/2001/REC-SVG-20010904/DTD/svg10.dtd">
<svg version="1.0" xmlns="http://www.w3.org/2000/svg"
 width="480.000000pt" height="360.000000pt" viewBox="0 0 480.000000 360.000000"
 preserveAspectRatio="xMidYMid meet">
<metadata>
Created by potrace 1.16, written by Peter Selinger 2001-2019
</metadata>
<rect width="1" height="360" fill="#000000"/>
<rect x="479" width="1" height="360" fill="#000000"/>
<rect width="480" height="1" fill="#000000"/>
<rect y="359" width="480" height="1" fill="#000000"/>
<g transform="translate(0.000000,360.000000) scale(0.100000,-0.100000)"
fill="#000000" stroke="none">
<path d="M0 1800 l0 -1800 864 0 863 0 32 103 c18 56 75 233 127 394 52 161
97 300 100 310 3 12 -1 9 -13 -7 -60 -82 -277 -347 -294 -359 -31 -22 -66 17
-81 92 l-13 59 -36 -42 c-45 -52 -70 -47 -38 8 19 34 17 33 -24 -13 -32 -35
-49 -47 -56 -39 -8 7 -4 20 15 45 14 18 30 42 36 53 19 35 -11 6 -53 -50 -22
-30 -44 -54 -49 -54 -16 0 -11 36 9 61 44 58 37 69 -11 16 -29 -31 -56 -57
-60 -57 -18 0 -4 31 52 113 33 49 60 93 60 98 0 14 -23 11 -48 -7 -12 -8 -27
-12 -33 -9 -18 12 22 46 89 76 52 24 62 32 57 48 -4 14 15 42 73 107 200 227
240 280 260 346 11 35 29 88 40 118 26 74 36 130 22 130 -6 0 -17 -15 -25 -32
l-14 -33 -7 43 c-3 23 -11 45 -16 48 -5 3 1 21 12 40 19 30 20 35 5 40 -9 4
-25 -2 -37 -12 -23 -21 -23 -27 -2 74 5 25 3 29 -17 28 -39 -2 -32 22 18 56
101 69 108 80 133 217 18 95 20 125 11 130 -9 6 -8 23 5 74 10 37 15 69 11 73
-3 4 -18 -1 -31 -10 -14 -9 -32 -16 -40 -16 -31 0 -73 96 -101 232 -14 70 -14
81 0 107 22 44 73 51 290 42 133 -5 300 7 345 24 27 10 86 19 148 22 90 5 105
3 123 -13 17 -15 19 -27 15 -74 -7 -75 -12 -95 -46 -175 -7 -16 -14 -38 -15
-47 -1 -10 -9 -26 -18 -36 -14 -15 -15 -31 -10 -87 5 -51 3 -66 -5 -61 -8 5
-19 -9 -32 -39 -11 -25 -26 -53 -34 -61 -14 -13 -17 -34 -31 -181 l-6 -62 60
-26 c77 -35 97 -58 105 -120 13 -108 36 -262 45 -305 5 -25 7 -54 5 -66 -4
-17 25 -43 170 -153 106 -80 176 -139 176 -149 0 -11 17 -24 44 -35 46 -19 74
-43 62 -54 -3 -3 -17 -1 -30 7 -14 7 -32 10 -41 7 -14 -6 -14 -9 0 -36 8 -16
40 -51 70 -78 54 -47 65 -66 45 -78 -15 -9 -52 -18 -85 -19 -16 -1 -36 -5 -42
-9 -25 -16 -123 56 -143 103 -7 17 -18 29 -24 27 -22 -7 -35 -55 -50 -183 -17
-147 -23 -168 -42 -160 -8 3 -21 9 -29 12 -10 4 -14 2 -11 -7 3 -8 32 -99 65
-204 55 -176 69 -226 85 -298 l6 -27 920 0 920 0 0 1800 0 1800 -2400 0 -2400
0 0 -1800z"/>
<path d="M1866 1584 c-4 -9 -4 -19 -1 -22 7 -8 35 19 29 29 -8 14 -21 11 -28
-7z"/>
<path d="M2110 1478 c0 -18 5 -40 10 -48 7 -11 10 -2 10 33 0 26 -4 47 -10 47
-5 0 -10 -15 -10 -32z"/>
</g>
</svg>
