<?xml version="1.0" standalone="no"?>
<!DOCTYPE svg PUBLIC "-//W3C//DTD SVG 20010904//EN"
 "http://www.w3.org/TR/2001/REC-SVG-20010904/DTD/svg10.dtd">
<svg version="1.0" xmlns="http://www.w3.org/2000/svg"
 width="480.000000pt" height="360.000000pt" viewBox="0 0 480.000000 360.000000"
 preserveAspectRatio="xMidYMid meet">
<metadata>
Created by potrace 1.16, written by Peter Selinger 2001-2019
</metadata>
<rect width="1" height="360" fill="#000000"/>
<rect x="479" width="1" height="360" fill="#000000"/>
<rect width="480" height="1" fill="#000000"/>
<rect y="359" width="480" height="1" fill="#000000"/>
<g transform="translate(0.000000,360.000000) scale(0.100000,-0.100000)"
fill="#000000" stroke="none">
<path d="M3298 3583 c-9 -10 -34 -46 -56 -80 -22 -34 -42 -60 -45 -57 -3 3 -4
-2 -3 -12 0 -9 -4 -19 -11 -21 -12 -4 -11 6 3 55 9 32 -3 27 -57 -23 -26 -24
-60 -47 -76 -50 -65 -14 -114 -38 -142 -70 -41 -47 -46 -81 -22 -144 11 -29
17 -59 15 -66 -3 -8 6 -31 20 -51 24 -36 25 -39 8 -57 -9 -11 -42 -38 -72 -60
-30 -22 -88 -74 -129 -114 -40 -40 -85 -76 -100 -80 -14 -3 -38 -14 -53 -24
-25 -18 -29 -18 -89 -3 -81 21 -176 15 -246 -16 -50 -21 -54 -22 -79 -5 -14 9
-50 19 -80 22 -47 5 -57 10 -69 34 -21 39 -76 79 -119 86 -42 7 -76 43 -76 82
0 73 -78 128 -164 117 -127 -17 -127 -17 -115 -32 6 -8 18 -14 25 -14 41 0
155 -157 141 -194 -3 -8 6 -24 20 -37 14 -13 34 -41 44 -62 11 -21 35 -55 53
-75 19 -20 37 -52 41 -70 7 -36 30 -52 72 -52 20 0 39 -11 60 -33 l32 -32 -45
-85 c-57 -107 -73 -195 -45 -250 10 -19 37 -74 61 -121 49 -100 49 -71 -1
-394 -38 -250 -58 -451 -67 -665 -7 -172 -8 -174 -24 -144 -17 31 -70 64 -102
64 -9 0 -32 -23 -53 -51 -29 -41 -40 -49 -57 -44 -12 3 -55 9 -97 12 -84 6
-144 -8 -233 -55 -62 -34 -162 -142 -192 -209 -28 -62 -48 -175 -39 -221 5
-25 2 -34 -12 -38 -10 -4 -56 -24 -102 -46 -65 -31 -100 -56 -152 -109 -38
-39 -69 -74 -69 -79 0 -6 396 -10 1060 -10 583 0 1060 4 1060 8 0 5 -9 17 -20
27 -31 28 -35 91 -10 155 13 30 32 87 44 125 l22 70 48 -121 c26 -67 47 -134
46 -150 -1 -16 -2 -48 -1 -71 l1 -43 150 0 c113 0 150 3 150 13 0 27 -42 228
-104 497 -69 303 -89 404 -106 540 -13 106 -32 159 -70 195 -26 25 -30 36 -30
83 0 50 -3 58 -40 94 -22 22 -40 44 -40 48 0 4 17 45 38 91 98 213 141 477
112 679 -5 35 -7 66 -5 68 6 6 76 -49 103 -80 23 -27 32 -31 90 -43 30 -6 33
-4 46 26 8 18 12 39 9 46 -3 7 0 13 6 13 6 0 11 10 11 23 0 13 5 28 11 34 6 6
13 31 14 55 1 24 6 56 10 71 4 17 3 39 -4 54 -8 18 -9 29 -1 38 8 10 8 25 0
54 -6 23 -8 46 -5 51 14 22 -22 94 -70 139 -42 40 -60 49 -113 60 -65 13 -73
19 -44 37 25 16 104 180 147 306 79 236 122 337 156 373 26 27 8 35 -74 35
-67 0 -87 -3 -99 -17z m-1095 -1890 c3 -5 -6 -28 -19 -53 -26 -51 -29 -48 -13
16 11 41 22 54 32 37z m-166 -1265 c-3 -8 -6 -5 -6 6 -1 11 2 17 5 13 3 -3 4
-12 1 -19z"/>
</g>
</svg>
