<?xml version="1.0" standalone="no"?>
<!DOCTYPE svg PUBLIC "-//W3C//DTD SVG 20010904//EN"
 "http://www.w3.org/TR/2001/REC-SVG-20010904/DTD/svg10.dtd">
<svg version="1.0" xmlns="http://www.w3.org/2000/svg"
 width="480.000000pt" height="360.000000pt" viewBox="0 0 480.000000 360.000000"
 preserveAspectRatio="xMidYMid meet">
<metadata>
Created by potrace 1.16, written by Peter Selinger 2001-2019
</metadata>
<rect width="1" height="360" fill="#000000"/>
<rect x="479" width="1" height="360" fill="#000000"/>
<rect width="480" height="1" fill="#000000"/>
<rect y="359" width="480" height="1" fill="#000000"/>
<g transform="translate(0.000000,360.000000) scale(0.100000,-0.100000)"
fill="#000000" stroke="none">
<path d="M0 1800 l0 -1800 2400 0 2400 0 0 759 0 759 -23 6 c-13 3 -45 24 -70
46 l-47 41 -147 -30 c-170 -34 -173 -33 -214 44 -20 39 -28 46 -49 42 -14 -2
-126 -34 -250 -70 -331 -96 -409 -111 -570 -112 -107 0 -146 4 -189 19 -61 21
-159 92 -346 252 -177 151 -344 284 -357 284 -20 0 -84 -79 -137 -169 -62
-105 -131 -176 -161 -166 -23 7 -63 -12 -55 -26 4 -5 35 -9 71 -9 36 0 74 -5
85 -10 18 -10 18 -13 4 -40 -8 -16 -20 -64 -26 -107 -6 -43 -17 -100 -24 -128
-8 -27 -17 -66 -20 -86 -8 -44 18 -148 51 -208 13 -24 24 -47 24 -50 0 -4 -23
-17 -50 -29 -57 -25 -126 -28 -173 -8 -18 7 -47 11 -64 9 -17 -3 -44 2 -61 11
l-31 16 35 65 c36 65 36 66 29 153 -4 48 -7 119 -8 159 -1 63 -4 73 -22 77
-11 3 -46 26 -77 50 -53 42 -58 49 -69 106 -6 33 -14 58 -17 56 -2 -3 -8 -39
-12 -81 -4 -42 -10 -78 -13 -81 -14 -14 -50 22 -72 73 -14 31 -33 62 -43 69
-13 10 -17 28 -17 86 0 64 5 82 37 148 43 87 145 204 216 248 88 54 337 181
405 207 79 29 158 33 237 9 29 -9 128 -47 219 -86 91 -39 227 -93 301 -120
183 -66 226 -89 376 -193 11 -7 32 0 82 27 96 52 287 137 432 193 69 26 127
49 130 52 3 2 -6 13 -20 24 -23 18 -24 20 -8 33 10 7 68 35 130 61 62 26 118
52 124 56 6 5 14 29 17 54 13 88 58 149 137 184 45 20 178 41 257 41 l43 0 0
359 0 359 -25 4 c-14 3 -42 -3 -63 -13 -20 -10 -57 -19 -82 -21 -40 -3 -45 -1
-48 20 -3 18 -10 22 -37 22 -20 0 -38 -6 -42 -15 -17 -30 -142 -67 -232 -68
-58 -1 -86 3 -89 11 -6 18 -87 15 -102 -3 -16 -20 -89 -20 -96 -1 -4 10 -19
15 -42 14 -59 -1 -108 26 -116 62 -3 18 -1 40 4 50 15 29 12 32 -19 25 -35 -8
-76 25 -68 55 3 11 -1 21 -10 24 -8 3 -851 6 -1874 6 l-1859 0 0 -1800z"/>
<path d="M2163 2012 c-12 -7 -43 -132 -43 -171 0 -26 47 -45 65 -27 8 8 23 12
32 10 37 -10 57 19 61 90 l4 66 -43 20 c-49 22 -58 23 -76 12z"/>
<path d="M1973 1814 c-18 -26 -19 -36 -11 -109 7 -60 16 -90 36 -120 l27 -40
3 66 3 67 50 4 c78 8 80 21 7 59 -46 25 -67 43 -79 68 l-16 34 -20 -29z"/>
</g>
</svg>
