<?xml version="1.0" standalone="no"?>
<!DOCTYPE svg PUBLIC "-//W3C//DTD SVG 20010904//EN"
 "http://www.w3.org/TR/2001/REC-SVG-20010904/DTD/svg10.dtd">
<svg version="1.0" xmlns="http://www.w3.org/2000/svg"
 width="480.000000pt" height="360.000000pt" viewBox="0 0 480.000000 360.000000"
 preserveAspectRatio="xMidYMid meet">
<metadata>
Created by potrace 1.16, written by Peter Selinger 2001-2019
</metadata>
<rect width="1" height="360" fill="#000000"/>
<rect x="479" width="1" height="360" fill="#000000"/>
<rect width="480" height="1" fill="#000000"/>
<rect y="359" width="480" height="1" fill="#000000"/>
<g transform="translate(0.000000,360.000000) scale(0.100000,-0.100000)"
fill="#000000" stroke="none">
<path d="M0 2734 c0 -819 1 -865 18 -860 9 3 67 12 127 21 298 42 530 114 815
251 96 46 183 84 193 84 10 0 91 -69 180 -152 209 -197 234 -224 392 -404 156
-177 207 -222 307 -269 112 -53 301 -85 403 -67 39 7 42 10 97 115 110 208
170 271 328 344 148 68 160 75 160 90 0 16 -28 73 -36 73 -3 0 -15 -12 -27
-26 -20 -22 -25 -24 -51 -14 -16 6 -37 8 -47 5 -15 -5 -19 -1 -19 18 0 18 -10
31 -35 46 l-35 20 -27 -34 c-36 -45 -47 -44 -28 1 20 48 19 61 -2 42 -10 -9
-38 -28 -63 -43 l-45 -28 48 51 c52 56 60 82 25 82 -30 -1 -55 -22 -110 -95
-67 -87 -191 -201 -208 -190 -5 3 -11 1 -15 -5 -9 -15 -22 -12 -29 5 -3 9 4
24 19 37 14 12 25 25 25 30 0 14 -37 9 -50 -7 -10 -12 -14 -12 -26 0 -18 17
-18 29 1 66 16 30 16 30 -10 23 -26 -6 -26 -6 -21 42 3 27 19 94 36 149 41
129 62 216 56 223 -3 3 -14 -3 -25 -12 -34 -30 -77 -24 -121 19 l-39 38 -32
-27 c-39 -34 -50 -25 -57 45 l-5 53 57 51 58 51 -42 61 c-41 58 -41 61 -26 85
9 15 61 46 126 78 92 44 111 57 116 79 2 14 12 51 20 81 49 173 247 373 424
428 81 24 369 24 460 -2 127 -35 262 -118 356 -218 95 -100 125 -195 104 -324
-17 -105 -16 -116 11 -153 30 -40 130 -121 183 -146 47 -23 68 -63 47 -89 -12
-14 -16 -14 -38 4 -31 24 -61 25 -109 5 -36 -15 -37 -21 -6 -58 22 -25 9 -31
-27 -12 -42 21 -39 7 8 -39 34 -33 38 -41 26 -53 -12 -11 -20 -11 -55 3 -53
21 -61 12 -24 -27 l29 -32 -27 5 c-19 4 -28 1 -28 -8 0 -8 -6 -11 -15 -8 -11
5 -13 2 -9 -10 7 -19 -20 -22 -62 -6 -15 6 -29 9 -31 6 -2 -2 8 -24 22 -49 29
-53 31 -61 10 -53 -11 4 -15 -1 -15 -19 l0 -24 -50 29 c-56 33 -56 32 -36 -55
8 -33 12 -62 10 -64 -2 -3 -28 19 -57 47 -29 29 -56 52 -60 52 -4 0 -4 -12 -1
-26 7 -26 7 -26 -19 -9 -14 9 -33 28 -42 42 -22 32 -25 27 -15 -24 6 -34 4
-43 -6 -43 -8 0 -14 -4 -14 -9 0 -18 33 -42 51 -38 28 7 31 -6 13 -49 -16 -38
-16 -38 12 -60 15 -13 65 -37 112 -55 47 -18 107 -49 134 -68 43 -32 56 -50
107 -156 32 -66 64 -135 71 -152 7 -19 20 -33 29 -33 73 0 296 23 338 34 38
10 91 12 200 9 170 -6 248 7 351 59 l62 31 0 1028 0 1029 -2400 0 -2400 0 0
-866z"/>
<path d="M1030 2024 c-77 -45 -89 -57 -71 -69 14 -8 14 -62 0 -71 -7 -4 -1
-16 15 -33 21 -22 31 -49 45 -127 l19 -99 -28 -65 c-44 -103 -215 -481 -238
-526 -24 -48 -47 -70 -57 -55 -3 6 -13 165 -22 354 l-15 343 55 85 c30 47 67
93 82 103 54 36 10 36 -74 1 -72 -31 -201 -71 -281 -89 -15 -3 -30 -17 -39
-36 -12 -29 -11 -33 8 -54 16 -17 27 -51 39 -120 l16 -97 -154 -310 c-85 -171
-163 -318 -173 -327 -16 -14 -19 -14 -27 -2 -6 9 -10 165 -10 357 l0 342 52
77 c29 43 65 85 81 93 20 12 27 22 25 41 -3 29 -15 30 -175 10 l-103 -12 0
-869 0 -869 1165 0 c641 0 1165 3 1165 7 0 37 58 274 82 333 22 57 36 119 54
255 13 99 35 246 49 327 14 81 25 150 25 153 0 3 -16 5 -35 3 -49 -3 -53 8
-18 45 17 17 35 41 41 53 11 21 10 21 -103 20 -63 -1 -115 -3 -115 -5 0 -3 11
-16 24 -30 23 -25 56 -146 56 -207 0 -20 -184 -500 -227 -591 -17 -37 -28 -41
-38 -15 -7 19 -49 408 -61 563 l-7 97 42 75 c23 42 54 87 70 99 42 36 27 61
-51 87 -90 29 -228 60 -228 50 0 -4 4 -10 8 -13 5 -3 16 -49 26 -103 l17 -98
-118 -295 c-65 -162 -123 -304 -130 -315 -27 -46 -36 2 -67 336 l-30 331 45
84 c30 57 55 91 77 105 17 11 32 29 32 39 0 10 2 24 5 32 5 13 -90 152 -151
219 -48 53 -122 119 -135 119 -8 0 -6 -7 4 -18 16 -18 47 -151 47 -203 0 -22
-212 -546 -254 -628 -42 -80 -48 -43 -77 455 l-12 211 49 88 c27 48 59 92 73
99 13 7 29 28 35 46 11 33 11 33 -101 147 -61 62 -115 113 -120 112 -4 0 -42
-20 -83 -45z"/>
<path d="M3053 2013 c-18 -7 -16 -23 2 -23 8 0 15 7 15 15 0 8 -1 15 -2 14 -2
0 -9 -3 -15 -6z"/>
<path d="M2269 1963 c-13 -16 -12 -17 4 -4 9 7 17 15 17 17 0 8 -8 3 -21 -13z"/>
<path d="M4695 1389 c-143 -24 -196 -40 -207 -65 -10 -21 -8 -28 14 -52 28
-29 78 -157 78 -199 0 -26 -183 -595 -200 -623 -7 -11 -12 -12 -21 -3 -6 6
-36 157 -65 334 l-53 321 40 82 c22 44 52 91 67 103 l26 22 -174 -5 c-96 -3
-185 -7 -196 -10 -30 -5 -38 -43 -15 -69 10 -11 31 -60 45 -108 l27 -89 -71
-221 c-102 -316 -129 -391 -144 -402 -9 -7 -14 -63 -19 -207 l-6 -198 490 0
490 0 -3 313 -3 312 -53 302 -52 303 40 80 c22 44 40 82 40 85 0 6 -9 5 -75
-6z"/>
<path d="M3813 1273 c-23 -15 -31 -43 -14 -43 5 0 19 9 32 19 31 25 14 46 -18
24z"/>
</g>
</svg>
