<?xml version="1.0" standalone="no"?>
<!DOCTYPE svg PUBLIC "-//W3C//DTD SVG 20010904//EN"
 "http://www.w3.org/TR/2001/REC-SVG-20010904/DTD/svg10.dtd">
<svg version="1.0" xmlns="http://www.w3.org/2000/svg"
 width="480.000000pt" height="360.000000pt" viewBox="0 0 480.000000 360.000000"
 preserveAspectRatio="xMidYMid meet">
<metadata>
Created by potrace 1.16, written by Peter Selinger 2001-2019
</metadata>
<rect width="1" height="360" fill="#000000"/>
<rect x="479" width="1" height="360" fill="#000000"/>
<rect width="480" height="1" fill="#000000"/>
<rect y="359" width="480" height="1" fill="#000000"/>
<g transform="translate(0.000000,360.000000) scale(0.100000,-0.100000)"
fill="#000000" stroke="none">
<path d="M2515 3573 c-14 -15 -25 -34 -25 -41 0 -10 -13 -11 -57 -7 -73 9
-165 -14 -202 -49 l-27 -26 -28 29 c-54 56 -242 78 -394 46 -151 -31 -194 -47
-214 -80 -24 -39 -19 -71 25 -166 19 -41 38 -84 41 -95 4 -12 15 -29 26 -39
11 -10 20 -27 20 -38 0 -11 11 -34 24 -51 13 -17 26 -40 29 -51 4 -11 24 -38
45 -60 32 -33 40 -50 46 -95 4 -30 25 -95 48 -145 32 -72 39 -97 35 -129 -3
-21 -10 -42 -15 -45 -5 -3 -15 -58 -22 -121 -6 -63 -15 -125 -20 -137 -6 -14
-4 -27 4 -39 17 -22 4 -85 -27 -128 -12 -17 -26 -38 -32 -48 -5 -9 -31 -48
-56 -85 -73 -107 -109 -166 -109 -176 0 -6 -7 -18 -15 -27 -20 -23 -78 -143
-100 -210 -10 -30 -25 -70 -33 -89 -8 -19 -15 -46 -16 -60 -1 -14 -4 -30 -8
-36 -3 -5 -15 -68 -26 -140 -15 -94 -21 -184 -21 -325 -1 -107 -4 -203 -7
-212 -3 -10 0 -18 6 -18 7 0 8 -6 1 -18 -6 -10 -8 -27 -5 -38 3 -10 6 -37 7
-59 2 -25 7 -39 15 -37 6 1 12 -7 12 -17 0 -34 18 -32 40 4 27 43 43 44 80 3
26 -28 30 -30 36 -13 7 17 8 17 19 1 11 -14 6 -29 -26 -92 -23 -44 -39 -88
-38 -107 1 -67 25 -166 43 -186 21 -23 21 -23 -11 -108 -4 -10 196 -13 950
-13 947 0 955 0 960 20 3 12 14 20 25 20 54 0 75 85 52 211 -9 47 -7 66 9 120
11 35 25 93 32 129 l12 66 -87 178 c-141 291 -306 697 -306 752 0 12 11 52 25
88 14 37 23 72 20 77 -8 12 -61 12 -103 0 -29 -9 -34 -7 -42 12 -14 34 -37
132 -55 237 -20 117 -47 166 -123 222 -31 24 -59 46 -60 51 -2 4 -7 5 -11 2
-5 -2 -16 2 -26 9 -13 9 -16 20 -11 39 8 35 32 34 42 0 13 -46 34 148 39 347
l4 175 63 13 c126 25 119 72 -37 255 -37 42 -63 77 -58 77 4 0 24 -5 43 -10
39 -11 137 -16 146 -7 3 3 6 22 7 41 1 20 5 36 10 36 5 0 6 11 3 24 -3 14 -2
27 4 31 9 6 7 115 -5 235 -3 30 -7 71 -8 90 -2 19 -4 41 -5 48 -2 9 -64 12
-277 12 l-274 0 -26 -27z m-605 -894 c0 -6 -4 -7 -10 -4 -5 3 -10 11 -10 16 0
6 5 7 10 4 6 -3 10 -11 10 -16z m955 -326 c0 -21 -5 -37 -10 -35 -6 1 -10 9
-9 17 3 56 5 66 12 61 5 -3 8 -22 7 -43z m-645 -52 c-7 -31 -17 -51 -26 -51
-20 0 -17 24 7 71 26 53 35 44 19 -20z m-384 -587 c-1 -57 -1 -57 -40 -70
l-38 -14 7 28 c3 15 14 38 23 52 9 14 18 30 18 35 1 6 2 13 3 18 0 4 7 7 15 7
10 0 13 -15 12 -56z m-38 -417 l-3 -142 -62 -155 c-99 -249 -104 -259 -113
-233 -5 11 -11 50 -13 85 -3 34 -6 68 -7 73 -1 6 -1 15 0 20 1 6 1 28 1 50 -1
22 -2 45 -2 50 -1 50 13 149 35 248 9 38 15 72 14 75 -1 4 6 24 15 44 10 21
17 44 17 53 0 9 8 27 17 42 l17 25 44 -46 43 -46 -3 -143z m324 -649 c-8 -8
-9 -4 -5 13 4 13 8 18 11 10 2 -7 -1 -18 -6 -23z"/>
</g>
</svg>
