<?xml version="1.0" standalone="no"?>
<!DOCTYPE svg PUBLIC "-//W3C//DTD SVG 20010904//EN"
 "http://www.w3.org/TR/2001/REC-SVG-20010904/DTD/svg10.dtd">
<svg version="1.0" xmlns="http://www.w3.org/2000/svg"
 width="480.000000pt" height="360.000000pt" viewBox="0 0 480.000000 360.000000"
 preserveAspectRatio="xMidYMid meet">
<metadata>
Created by potrace 1.16, written by Peter Selinger 2001-2019
</metadata>
<rect width="1" height="360" fill="#000000"/>
<rect x="479" width="1" height="360" fill="#000000"/>
<rect width="480" height="1" fill="#000000"/>
<rect y="359" width="480" height="1" fill="#000000"/>
<g transform="translate(0.000000,360.000000) scale(0.100000,-0.100000)"
fill="#000000" stroke="none">
<path d="M0 1800 l0 -1800 130 0 130 0 11 27 c5 14 24 73 42 130 31 103 31
105 12 119 -33 24 -44 65 -28 97 8 15 11 37 8 47 -4 13 2 24 20 36 54 36 81
147 51 218 -20 47 -19 46 -1 46 11 0 15 12 15 46 0 40 3 46 28 55 27 9 35 29
78 196 4 13 -2 39 -15 62 -24 47 -17 82 28 141 35 45 49 72 22 41 -20 -22 -21
-22 -21 -3 0 14 -9 21 -32 26 -17 3 -35 3 -39 -1 -4 -5 -30 -53 -58 -109 -62
-123 -120 -194 -161 -194 -24 0 -34 8 -55 43 -27 47 -33 104 -12 128 6 9 31
21 54 27 74 21 76 26 175 312 46 135 88 285 104 373 7 42 9 41 -72 37 -53 -2
-76 12 -55 33 6 6 11 21 11 34 0 12 13 46 28 75 16 29 37 76 47 105 20 57 26
41 -48 144 -54 74 -79 166 -85 304 -9 254 58 369 303 514 255 152 337 175 718
208 l67 6 0 93 c0 52 3 94 8 94 8 -1 52 -59 129 -170 29 -41 67 -85 85 -98
130 -90 209 -215 258 -408 17 -70 49 -106 120 -136 67 -28 121 -35 162 -19 20
7 30 4 58 -21 20 -17 41 -27 52 -25 12 4 18 0 18 -12 0 -29 -56 -163 -72 -172
-11 -6 -28 0 -57 21 -48 35 -53 36 -75 12 -15 -17 -15 -22 0 -57 8 -21 14 -46
11 -55 -2 -9 0 -25 5 -34 6 -11 4 -21 -6 -32 -9 -8 -16 -24 -16 -34 0 -22 -37
-97 -53 -107 -6 -3 -7 -1 -3 5 4 7 3 12 -2 12 -11 0 -22 -34 -22 -67 0 -24
-20 -33 -20 -10 0 7 -7 4 -15 -7 -14 -19 -15 -18 -23 4 l-9 24 -18 -27 c-9
-15 -21 -25 -25 -22 -4 3 -14 -5 -22 -18 -15 -23 -18 -162 -4 -185 4 -6 2 -19
-5 -29 -8 -14 -6 -29 9 -68 11 -28 23 -59 27 -70 5 -13 -5 -8 -31 18 -22 20
-43 37 -47 37 -4 0 -23 -33 -42 -72 -19 -40 -49 -90 -67 -112 l-32 -39 -92 6
c-80 6 -94 4 -108 -12 -37 -41 -14 -55 121 -71 51 -5 144 -24 207 -40 63 -17
124 -30 135 -30 25 0 61 -45 61 -76 0 -19 -5 -24 -25 -24 -30 0 -31 -9 -6 -41
27 -35 73 -131 116 -244 49 -127 53 -132 94 -110 21 11 43 14 66 9 23 -4 41
-2 51 7 11 9 49 14 120 15 60 0 108 5 116 12 10 8 39 8 113 -3 55 -7 111 -11
125 -8 14 2 68 -7 119 -20 52 -14 100 -23 108 -20 7 3 53 -11 103 -31 50 -20
99 -36 111 -36 23 0 35 -6 134 -64 39 -22 76 -39 83 -38 8 2 49 -24 92 -57 43
-34 83 -61 89 -61 6 0 58 -44 115 -97 149 -141 254 -278 333 -435 l34 -68 354
0 355 0 0 1800 0 1800 -2400 0 -2400 0 0 -1800z m2057 1562 c16 -10 16 -12
-10 -21 -37 -14 -113 -14 -139 0 -21 11 -21 12 -2 26 21 16 118 13 151 -5z
m-1982 -62 c3 -5 -1 -10 -9 -10 -8 0 -18 5 -21 10 -3 6 1 10 9 10 8 0 18 -4
21 -10z m3293 -1162 c7 -7 12 -24 12 -39 0 -34 -69 -99 -105 -99 -14 0 -25 -4
-25 -10 0 -15 -20 -12 -26 5 -11 27 33 99 78 128 48 31 50 31 66 15z"/>
<path d="M1034 1494 c-4 -14 -18 -30 -33 -36 -20 -9 -22 -12 -9 -15 9 -2 32 3
52 11 34 14 35 17 24 40 -14 33 -26 33 -34 0z"/>
<path d="M940 1447 c0 -19 4 -25 15 -21 8 4 15 10 15 14 0 4 -7 13 -15 20 -13
11 -15 8 -15 -13z"/>
<path d="M680 1374 c-45 -71 -39 -81 23 -45 41 23 53 36 55 58 2 27 2 27 -13
9 -13 -17 -15 -17 -15 -4 0 35 -21 27 -50 -18z"/>
<path d="M602 1290 c-7 -11 -9 -20 -4 -20 10 0 32 22 32 32 0 15 -15 8 -28
-12z"/>
<path d="M836 517 c-17 -41 -6 -95 24 -122 16 -14 18 -12 24 26 6 40 -6 103
-25 123 -4 5 -14 -7 -23 -27z"/>
<path d="M857 333 c-3 -4 -8 -30 -12 -58 -11 -85 -13 -88 -50 -82 l-32 5 -7
-60 c-3 -34 -6 -78 -6 -99 l0 -39 80 0 80 0 -1 38 c-2 103 -25 296 -36 299 -6
2 -13 0 -16 -4z"/>
</g>
</svg>
