<?xml version="1.0" standalone="no"?>
<!DOCTYPE svg PUBLIC "-//W3C//DTD SVG 20010904//EN"
 "http://www.w3.org/TR/2001/REC-SVG-20010904/DTD/svg10.dtd">
<svg version="1.0" xmlns="http://www.w3.org/2000/svg"
 width="480.000000pt" height="360.000000pt" viewBox="0 0 480.000000 360.000000"
 preserveAspectRatio="xMidYMid meet">
<metadata>
Created by potrace 1.16, written by Peter Selinger 2001-2019
</metadata>
<rect width="1" height="360" fill="#000000"/>
<rect x="479" width="1" height="360" fill="#000000"/>
<rect width="480" height="1" fill="#000000"/>
<rect y="359" width="480" height="1" fill="#000000"/>
<g transform="translate(0.000000,360.000000) scale(0.100000,-0.100000)"
fill="#000000" stroke="none">
<path d="M0 2634 l0 -966 43 33 c23 18 100 91 171 161 70 70 134 128 142 128
7 0 39 -13 71 -29 32 -16 114 -52 183 -81 69 -28 195 -89 280 -135 219 -118
258 -130 400 -129 92 1 133 7 205 28 l90 26 88 -23 89 -22 25 30 c13 17 53 71
89 122 81 115 115 145 229 199 118 57 131 70 115 120 -10 30 -10 38 1 45 8 5
20 7 27 4 27 -10 11 35 -18 50 -30 15 -30 15 -40 -12 -6 -15 -13 -35 -17 -43
-3 -8 -10 12 -14 44 -9 64 -19 86 -19 43 0 -28 -15 -37 -23 -14 -2 6 -7 -14
-11 -45 -9 -70 -26 -86 -27 -26 l-1 43 -11 -30 c-11 -30 -11 -30 -17 -6 -8 37
-29 38 -36 2 -4 -17 -11 -28 -16 -25 -5 4 -7 17 -3 31 3 13 -2 49 -12 80 -15
48 -19 53 -24 32 -6 -22 -9 -19 -30 29 -13 28 -26 52 -29 52 -4 0 -13 -12 -21
-27 -14 -27 -14 -27 -17 30 -2 31 -4 57 -6 57 -2 0 -22 -7 -45 -15 -45 -16
-52 -8 -20 21 40 35 90 128 59 109 -6 -3 -10 1 -10 9 0 20 -14 20 -30 1 -7 -8
-18 -15 -25 -15 -15 0 -185 128 -185 139 0 5 9 16 20 26 11 10 20 31 20 46 0
25 5 29 38 34 50 8 60 14 105 68 37 43 39 48 28 78 -26 75 -2 271 45 361 47
90 125 154 227 183 48 14 98 16 315 13 l257 -3 65 -31 c107 -50 173 -122 216
-234 22 -58 20 -56 43 -35 11 9 39 19 63 20 24 2 71 11 105 21 58 15 65 15 96
1 26 -13 39 -29 53 -64 18 -47 20 -99 14 -292 -1 -43 4 -76 16 -103 19 -43 20
-41 -30 -73 -14 -9 -14 -14 -1 -51 27 -78 89 -381 69 -336 -12 26 -19 10 -20
-46 -1 -85 -75 -288 -100 -278 -10 4 -14 -4 -14 -25 0 -17 -4 -28 -9 -24 -5 3
-11 -3 -14 -12 -2 -13 -7 -7 -14 17 -6 19 -12 27 -12 17 -1 -10 -5 -16 -10
-13 -5 4 -11 0 -14 -6 -5 -15 -27 80 -28 125 -1 29 -3 27 -13 -15 -16 -68 -22
-66 -30 7 -4 36 -18 102 -32 146 -19 59 -42 191 -44 247 0 1 -22 2 -50 2 -27
0 -50 -3 -50 -7 1 -5 7 -36 14 -70 7 -35 10 -63 5 -63 -4 0 -18 14 -32 31
l-24 31 -17 -42 c-15 -38 -18 -41 -30 -25 -11 16 -14 13 -26 -29 -10 -37 -15
-44 -26 -35 -11 9 -14 6 -15 -17 l-1 -29 -13 35 c-14 39 -14 38 -40 -52 -16
-60 -32 -80 -21 -28 3 17 1 30 -4 30 -6 0 -10 -10 -10 -22 0 -13 -5 -30 -10
-38 -7 -11 -10 4 -11 50 l-1 65 -15 -34 c-11 -26 -17 -31 -23 -21 -7 12 -10
11 -16 -4 -9 -23 -24 -2 -24 34 0 14 -3 20 -8 14 -4 -6 -17 -14 -29 -18 -14
-5 -23 -15 -23 -27 0 -16 5 -19 20 -14 27 8 35 -15 21 -56 -15 -42 -7 -51 97
-100 122 -58 143 -74 223 -179 111 -146 132 -170 153 -170 11 0 55 10 99 21
l79 22 71 -23 c90 -28 264 -38 344 -20 74 16 122 38 298 136 83 46 213 110
290 142 77 33 158 69 180 81 22 11 44 21 49 21 4 0 58 -48 120 -108 96 -93
151 -141 229 -201 16 -13 17 33 17 938 l0 951 -2400 0 -2400 0 0 -966z"/>
<path d="M2970 2662 c-36 -100 -39 -136 -14 -184 13 -25 49 -46 61 -34 9 9 7
280 -3 298 -7 13 -17 -5 -44 -80z"/>
<path d="M2043 2230 c0 -25 2 -35 4 -22 2 12 2 32 0 45 -2 12 -4 2 -4 -23z"/>
<path d="M2322 2241 c34 -14 123 -10 153 6 10 6 -21 9 -85 9 -96 -1 -100 -2
-68 -15z"/>
<path d="M4300 1833 c-90 -46 -105 -57 -102 -76 2 -12 12 -31 21 -42 24 -27
61 -122 61 -155 0 -34 -127 -481 -141 -495 -15 -15 -26 10 -50 115 -11 52 -36
160 -54 240 l-33 145 30 70 c16 39 36 75 44 81 16 13 19 34 4 34 -30 0 -133
-50 -208 -101 -94 -64 -106 -87 -66 -131 25 -28 69 -135 66 -163 -2 -23 -97
-413 -113 -462 -22 -67 -30 -47 -114 288 l-46 185 26 69 c14 38 32 77 41 86
13 15 9 17 -47 23 -78 8 -212 8 -233 0 -22 -9 -20 -23 8 -45 13 -10 36 -48 51
-84 l28 -65 -42 -252 c-24 -139 -45 -256 -48 -260 -13 -23 -29 14 -104 242
l-81 250 18 66 c10 37 29 80 42 96 23 27 24 31 9 45 -14 14 -29 15 -104 7
l-88 -9 3 -38 c3 -30 -2 -45 -19 -63 -14 -15 -19 -28 -14 -32 10 -7 30 -36 42
-61 6 -14 -31 -54 -58 -63 -9 -3 -8 -16 4 -53 23 -72 47 -197 47 -248 l0 -43
93 -61 c50 -34 160 -111 242 -173 83 -62 160 -116 172 -121 14 -5 45 -4 79 3
47 9 69 8 133 -6 98 -23 163 -59 159 -89 -2 -17 -9 -22 -33 -21 -16 1 -40 5
-52 9 -20 6 -23 4 -23 -17 0 -32 18 -47 118 -97 115 -58 179 -73 275 -65 74 7
79 6 75 -12 -5 -27 -87 -68 -178 -89 -60 -14 -98 -16 -161 -11 -91 7 -117 18
-258 100 -52 31 -126 68 -165 83 -68 26 -142 66 -371 201 -230 135 -274 178
-317 302 l-22 65 -8 -55 c-9 -59 -3 -166 14 -244 8 -36 7 -54 -3 -72 -11 -21
-6 -37 48 -151 59 -125 107 -255 134 -360 l13 -53 878 0 878 0 0 518 c-1 504
-1 520 -24 632 l-24 114 24 48 c20 39 24 62 24 130 l-1 83 -51 35 c-28 19 -72
54 -98 77 -48 43 -77 59 -47 25 9 -10 28 -49 42 -87 l27 -70 -41 -125 c-22
-69 -58 -179 -79 -244 -21 -66 -43 -121 -49 -123 -16 -6 -25 32 -77 290 l-43
218 33 69 c18 38 44 76 58 85 15 10 26 27 26 40 0 12 7 28 15 35 13 11 12 15
-5 39 -30 41 -88 101 -97 100 -4 -1 -55 -26 -113 -56z"/>
<path d="M311 1798 c-44 -55 -48 -64 -34 -75 9 -7 17 -23 18 -37 2 -14 14 -36
28 -48 13 -13 37 -53 52 -90 l28 -67 -17 -68 c-10 -37 -38 -153 -64 -257 -26
-104 -52 -191 -59 -193 -11 -4 -33 53 -52 132 -20 89 -91 357 -96 365 -7 12
50 148 72 172 36 40 -3 14 -65 -43 -37 -33 -79 -68 -94 -77 -27 -16 -28 -18
-28 -109 0 -63 5 -106 17 -134 15 -39 15 -47 0 -123 -15 -70 -17 -154 -17
-613 l0 -533 880 0 c739 0 880 2 880 14 0 34 87 282 133 376 46 95 51 112 52
180 1 41 5 125 10 186 5 77 4 117 -3 130 -10 17 -11 17 -12 2 0 -32 -23 -68
-39 -64 -11 4 -26 -12 -49 -50 -42 -68 -87 -105 -322 -259 -239 -157 -312
-200 -385 -225 -33 -11 -120 -46 -194 -77 l-135 -56 -92 6 c-64 4 -103 11
-132 26 -23 12 -47 21 -55 21 -24 0 -137 79 -137 95 0 14 13 15 98 10 85 -6
109 -3 192 19 125 33 166 51 186 82 23 34 8 48 -34 33 -70 -24 -87 31 -20 64
58 28 199 28 255 -1 l41 -22 49 38 c27 20 125 98 218 173 94 74 197 154 230
178 l60 42 12 87 c7 47 25 127 39 176 18 59 23 91 16 94 -24 8 -62 44 -62 59
0 8 11 24 25 35 30 24 31 31 4 67 -12 17 -19 39 -17 57 3 28 1 29 -52 36 -61
9 -116 3 -126 -13 -3 -6 3 -20 14 -32 11 -12 30 -54 42 -93 l23 -71 -73 -239
c-40 -132 -78 -250 -85 -264 l-13 -25 -11 25 c-12 26 -91 468 -91 506 0 35 49
137 77 161 24 19 25 24 12 39 -12 15 -27 16 -129 10 -63 -3 -128 -9 -143 -12
-25 -6 -26 -8 -14 -23 8 -9 26 -48 40 -86 l25 -70 -68 -258 c-37 -142 -70
-261 -74 -264 -3 -4 -11 -2 -17 4 -11 11 -26 77 -99 414 l-22 105 31 73 c17
40 40 80 50 89 35 30 18 62 -62 114 -75 48 -193 108 -214 108 -15 0 -17 -26
-4 -34 5 -4 23 -40 41 -82 l31 -76 -52 -211 c-68 -280 -79 -317 -90 -317 -5 0
-14 11 -19 25 -13 33 -120 477 -120 496 0 26 50 142 71 165 30 32 25 63 -13
76 -18 6 -66 29 -106 50 -40 21 -77 38 -82 38 -5 0 -32 -28 -59 -62z"/>
</g>
</svg>
