<?xml version="1.0" standalone="no"?>
<!DOCTYPE svg PUBLIC "-//W3C//DTD SVG 20010904//EN"
 "http://www.w3.org/TR/2001/REC-SVG-20010904/DTD/svg10.dtd">
<svg version="1.0" xmlns="http://www.w3.org/2000/svg"
 width="480.000000pt" height="360.000000pt" viewBox="0 0 480.000000 360.000000"
 preserveAspectRatio="xMidYMid meet">
<metadata>
Created by potrace 1.16, written by Peter Selinger 2001-2019
</metadata>
<rect width="1" height="360" fill="#000000"/>
<rect x="479" width="1" height="360" fill="#000000"/>
<rect width="480" height="1" fill="#000000"/>
<rect y="359" width="480" height="1" fill="#000000"/>
<g transform="translate(0.000000,360.000000) scale(0.100000,-0.100000)"
fill="#000000" stroke="none">
<path d="M1756 3207 c1 -249 6 -407 13 -432 16 -60 15 -62 -47 -74 -57 -11
-152 -61 -152 -80 0 -5 -8 -12 -19 -16 -56 -17 -124 -191 -137 -350 -15 -178
81 -371 209 -420 38 -14 51 -15 82 -5 44 14 45 14 76 -71 11 -30 31 -68 43
-84 l23 -29 29 62 c28 62 30 63 62 57 18 -3 40 -9 48 -12 8 -3 14 0 14 6 0 6
8 8 18 4 14 -6 15 -4 4 9 -11 14 -8 17 22 22 42 8 94 49 108 85 10 25 11 25
18 6 29 -69 0 -211 -112 -554 -30 -94 -39 -134 -35 -164 5 -34 1 -47 -23 -76
-69 -88 -160 -302 -160 -377 0 -40 18 -83 45 -106 25 -21 35 -22 35 -4 0 23
20 29 39 12 21 -19 41 -4 41 31 0 20 2 22 25 11 35 -16 41 -4 20 42 -24 53
-11 99 49 172 23 29 49 71 56 93 7 22 23 61 36 87 20 39 29 47 56 50 30 3 33
7 41 48 19 103 59 254 101 385 52 164 56 197 67 540 5 143 10 281 11 307 l3
47 50 6 c28 4 69 15 91 25 63 27 239 164 327 255 89 91 125 157 153 280 18 82
43 142 75 183 10 13 25 47 35 75 9 29 19 55 23 59 4 4 41 16 83 27 42 11 152
56 244 101 93 45 207 98 254 117 47 19 87 37 89 39 2 2 -477 4 -1065 4 l-1069
0 1 -393z"/>
</g>
</svg>
