<?xml version="1.0" standalone="no"?>
<!DOCTYPE svg PUBLIC "-//W3C//DTD SVG 20010904//EN"
 "http://www.w3.org/TR/2001/REC-SVG-20010904/DTD/svg10.dtd">
<svg version="1.0" xmlns="http://www.w3.org/2000/svg"
 width="480.000000pt" height="360.000000pt" viewBox="0 0 480.000000 360.000000"
 preserveAspectRatio="xMidYMid meet">
<metadata>
Created by potrace 1.16, written by Peter Selinger 2001-2019
</metadata>
<rect width="1" height="360" fill="#000000"/>
<rect x="479" width="1" height="360" fill="#000000"/>
<rect width="480" height="1" fill="#000000"/>
<rect y="359" width="480" height="1" fill="#000000"/>
<g transform="translate(0.000000,360.000000) scale(0.100000,-0.100000)"
fill="#000000" stroke="none">
<path d="M3210 2972 c-8 -2 -24 -12 -35 -21 -11 -10 -42 -23 -70 -30 -102 -25
-193 -99 -332 -269 l-86 -106 46 28 c26 15 47 24 47 21 0 -3 -13 -35 -30 -72
-35 -77 -35 -74 -13 -66 14 5 15 1 10 -33 -4 -22 -4 -56 0 -77 5 -32 7 -35 18
-20 11 14 13 12 19 -20 7 -39 26 -51 26 -17 0 28 12 25 32 -10 16 -29 16 -30
-13 -54 -16 -14 -38 -27 -49 -31 -26 -8 -25 -35 1 -69 17 -22 20 -35 15 -67
-3 -21 -2 -47 3 -56 12 -24 31 -108 31 -137 0 -33 21 -47 82 -55 52 -6 53 -7
50 -36 -5 -41 -13 -47 -51 -34 -46 16 -47 6 -2 -25 l38 -27 -21 -87 c-20 -77
-26 -89 -57 -110 -45 -29 -79 -69 -79 -91 0 -9 -25 -57 -56 -107 -68 -107 -70
-111 -50 -116 12 -2 12 -6 2 -20 -11 -15 -16 -15 -66 2 -32 11 -62 15 -74 11
-25 -9 -64 -81 -73 -134 -9 -56 -19 -53 -35 11 -10 40 -11 72 -5 107 42 242
61 339 78 393 16 53 18 69 8 108 -13 49 -10 114 16 424 22 268 43 437 67 523
27 103 20 134 -42 165 -53 26 -92 22 -129 -13 -27 -26 -28 -39 -16 -170 10
-113 -59 -829 -91 -934 -8 -30 -14 -61 -11 -71 6 -23 -13 -228 -24 -257 -5
-13 -17 -23 -29 -23 -27 0 -80 107 -113 227 -30 109 -36 120 -104 204 -51 61
-113 109 -143 109 -7 0 -23 11 -35 24 -18 20 -28 22 -60 17 -33 -5 -41 -12
-64 -56 -14 -27 -29 -51 -33 -53 -5 -2 -8 -18 -8 -37 0 -18 -7 -38 -16 -46
-11 -9 -14 -22 -9 -47 5 -25 2 -39 -11 -53 -13 -14 -15 -28 -10 -64 9 -60 46
-101 139 -156 93 -55 171 -114 191 -144 15 -23 14 -24 -38 -54 -65 -36 -77
-52 -118 -156 -45 -116 -49 -235 -14 -406 32 -157 81 -320 139 -464 33 -81 42
-115 36 -127 -9 -17 45 -18 1082 -18 l1091 0 -6 48 c-3 26 -8 101 -11 167 -4
66 -19 214 -35 330 -48 344 -70 527 -70 577 0 26 11 113 26 195 67 391 82 661
48 870 -17 110 -67 275 -88 293 -8 6 -24 41 -36 78 -46 143 -131 238 -275 307
-101 49 -195 71 -359 81 -58 4 -106 10 -106 14 0 11 -23 18 -40 12z m-1280
-1234 c11 -18 20 -36 20 -39 0 -17 -30 -16 -59 2 -32 19 -32 19 -14 44 24 32
30 31 53 -7z m724 -1437 c4 -6 36 -237 36 -259 0 -7 -158 3 -164 9 -8 7 105
259 116 259 4 0 9 -4 12 -9z"/>
<path d="M1129 2758 c-6 -24 -13 -49 -15 -56 -3 -10 -9 -10 -25 -2 -29 16
-119 29 -125 18 -3 -4 20 -33 51 -63 l56 -55 -22 -29 c-12 -16 -18 -34 -15
-40 9 -14 46 -14 66 -1 11 7 21 2 42 -23 31 -37 42 -31 43 24 0 42 1 42 50 24
19 -8 18 -6 -2 17 -30 32 -29 40 7 60 18 10 30 25 30 38 0 16 -6 20 -34 20
-29 0 -35 4 -40 28 -21 90 -49 106 -67 40z"/>
</g>
</svg>
