<?xml version="1.0" standalone="no"?>
<!DOCTYPE svg PUBLIC "-//W3C//DTD SVG 20010904//EN"
 "http://www.w3.org/TR/2001/REC-SVG-20010904/DTD/svg10.dtd">
<svg version="1.0" xmlns="http://www.w3.org/2000/svg"
 width="480.000000pt" height="360.000000pt" viewBox="0 0 480.000000 360.000000"
 preserveAspectRatio="xMidYMid meet">
<metadata>
Created by potrace 1.16, written by Peter Selinger 2001-2019
</metadata>
<rect width="1" height="360" fill="#000000"/>
<rect x="479" width="1" height="360" fill="#000000"/>
<rect width="480" height="1" fill="#000000"/>
<rect y="359" width="480" height="1" fill="#000000"/>
<g transform="translate(0.000000,360.000000) scale(0.100000,-0.100000)"
fill="#000000" stroke="none">
<path d="M0 1800 l0 -1800 23 1 c18 0 29 16 59 77 20 42 41 90 47 105 19 49
62 99 76 87 8 -7 18 -3 34 11 24 23 21 40 -4 19 -12 -10 -15 -10 -15 0 0 26
206 208 389 343 264 196 374 302 531 512 37 50 91 117 119 150 28 32 51 65 51
72 0 7 -28 26 -62 41 -77 35 -85 45 -100 114 -11 51 -10 59 17 122 l28 67 -25
27 c-27 29 -40 57 -31 65 3 3 16 -6 29 -20 31 -33 54 -24 54 21 0 19 3 41 6
50 10 26 -30 20 -65 -10 -33 -28 -43 -15 -16 22 8 12 12 24 9 27 -6 6 49 47
64 47 5 0 15 13 21 28 7 16 25 36 41 46 40 23 46 38 54 135 7 88 22 137 50
160 12 10 14 16 5 22 -7 4 -33 -10 -63 -35 -28 -23 -69 -52 -91 -65 -141 -85
-186 -122 -277 -231 -33 -39 -36 -41 -28 -16 6 16 9 31 7 33 -3 2 -39 -34 -82
-79 -43 -46 -75 -74 -70 -63 30 80 17 71 -84 -53 -43 -53 -88 -105 -99 -116
-21 -18 -21 -18 -13 10 21 69 36 102 69 154 58 93 10 41 -189 -200 -66 -81
-79 -94 -85 -88 -3 4 1 29 9 57 18 60 13 66 -11 13 -24 -52 -62 -112 -72 -112
-15 0 -30 63 -24 99 l7 34 -31 -22 c-17 -12 -34 -26 -37 -32 -4 -5 -29 -21
-56 -34 -52 -27 -60 -21 -34 25 8 14 14 36 15 49 0 24 0 24 -21 5 -20 -18 -21
-18 -49 12 l-28 31 13 64 c13 59 54 182 86 254 7 17 34 55 60 85 25 31 60 78
77 105 49 80 142 142 415 275 296 144 349 186 477 375 26 39 57 78 68 89 24
21 131 76 149 76 7 0 17 9 22 19 18 32 -5 77 -52 103 -22 13 -42 28 -44 35 -7
22 35 35 81 25 61 -13 130 14 134 53 3 23 -9 38 -72 97 -42 38 -76 73 -76 78
0 4 13 10 29 13 39 8 44 28 15 71 -14 20 -21 36 -17 36 21 0 135 -107 169
-158 21 -31 51 -71 68 -89 24 -27 28 -37 23 -68 -5 -32 -2 -40 26 -65 18 -16
50 -33 72 -39 86 -22 99 -63 25 -76 -71 -12 -106 -70 -57 -92 12 -6 45 -31 74
-57 51 -46 90 -112 111 -188 9 -32 8 -38 -7 -43 -9 -3 -21 -19 -26 -36 -7 -22
-24 -39 -55 -57 -27 -16 -40 -20 -32 -10 10 13 10 17 -2 21 -32 13 -50 -49
-21 -73 20 -17 19 -30 -4 -55 -11 -11 -39 -42 -62 -68 -26 -29 -48 -46 -57
-42 -7 3 -25 8 -39 11 -23 6 -25 4 -18 -17 4 -13 36 -53 71 -89 51 -52 65 -75
75 -115 16 -67 65 -178 106 -241 61 -92 55 -173 -18 -250 -64 -67 -76 -217
-45 -549 14 -157 18 -299 20 -662 l1 -463 667 0 667 0 -36 76 c-32 67 -36 83
-34 147 2 98 16 184 57 372 40 177 40 170 -1 400 -25 139 -26 162 -20 328 5
146 4 195 -10 273 -16 87 -21 99 -67 157 -49 61 -50 63 -46 119 3 42 13 70 38
110 51 80 79 143 91 201 16 74 33 103 105 179 61 63 84 108 48 94 -56 -21 -64
-19 -102 25 -20 24 -49 55 -64 68 l-27 24 20 25 c24 31 24 49 -1 62 -17 9 -19
8 -13 -7 6 -17 5 -17 -13 -2 -10 9 -24 15 -30 12 -17 -6 -54 45 -54 74 0 19
-4 24 -16 19 -13 -5 -14 -1 -9 27 29 135 97 231 194 275 20 9 37 17 39 18 1 1
-4 55 -12 120 -19 154 -25 254 -17 254 4 0 15 -22 25 -50 10 -27 27 -62 39
-76 19 -25 29 -60 43 -161 4 -24 9 -43 13 -43 8 0 -5 195 -14 210 -4 7 -9 60
-10 118 l-3 107 25 -52 26 -51 73 5 c60 5 75 3 79 -9 7 -17 -26 -80 -62 -118
-22 -25 -23 -28 -11 -109 7 -46 17 -85 23 -86 164 -44 231 -86 304 -190 92
-132 188 -192 476 -300 198 -74 432 -190 522 -259 40 -31 75 -56 78 -56 3 0 5
286 5 635 l0 635 -2400 0 -2400 0 0 -1800z"/>
<path d="M3518 2415 c-10 -22 -8 -29 12 -49 19 -21 23 -40 30 -131 l8 -107 41
-41 c23 -22 44 -51 47 -63 4 -15 12 -21 25 -19 10 2 18 0 16 -6 -1 -5 9 -15
23 -22 37 -19 40 -92 7 -152 l-25 -44 25 -62 c48 -118 17 -197 -89 -236 -27
-9 -54 -23 -59 -29 -16 -20 44 -61 108 -73 256 -49 382 -109 543 -260 35 -32
105 -84 125 -92 36 -14 249 -150 290 -185 87 -75 101 -88 128 -129 l27 -40 -1
585 c0 359 -4 576 -9 563 -5 -13 -13 -23 -18 -23 -5 0 -14 -10 -20 -22 -6 -13
-11 -17 -11 -10 -2 21 -19 13 -25 -13 -7 -28 -26 -34 -26 -9 0 11 -6 15 -20
11 -13 -3 -20 0 -20 9 0 7 -9 18 -21 24 -11 7 -28 28 -37 48 l-16 37 -4 -28
c-5 -38 -26 -29 -30 14 -5 49 -41 85 -43 42 0 -15 -2 -15 -9 2 -13 32 -112
122 -117 107 -3 -7 -30 11 -71 49 -47 43 -68 56 -70 46 -4 -20 -45 -7 -82 27
-27 24 -75 56 -86 56 -3 0 -4 -7 0 -15 9 -25 -11 -17 -59 25 -55 48 -129 86
-240 125 -95 33 -186 77 -204 99 -19 22 -30 20 -43 -9z"/>
<path d="M4660 2364 c0 -4 24 -35 53 -70 28 -35 60 -73 69 -86 17 -23 17 -22
18 39 l0 63 -47 24 c-57 28 -93 40 -93 30z"/>
<path d="M3630 1944 c1 -26 37 -104 48 -104 17 0 35 29 35 56 0 31 -18 50 -55
59 -23 6 -28 4 -28 -11z"/>
<path d="M525 562 c-34 -21 -60 -50 -53 -57 3 -3 25 13 49 34 48 44 50 50 4
23z"/>
</g>
</svg>
