<?xml version="1.0" standalone="no"?>
<!DOCTYPE svg PUBLIC "-//W3C//DTD SVG 20010904//EN"
 "http://www.w3.org/TR/2001/REC-SVG-20010904/DTD/svg10.dtd">
<svg version="1.0" xmlns="http://www.w3.org/2000/svg"
 width="480.000000pt" height="360.000000pt" viewBox="0 0 480.000000 360.000000"
 preserveAspectRatio="xMidYMid meet">
<metadata>
Created by potrace 1.16, written by Peter Selinger 2001-2019
</metadata>
<rect width="1" height="360" fill="#000000"/>
<rect x="479" width="1" height="360" fill="#000000"/>
<rect width="480" height="1" fill="#000000"/>
<rect y="359" width="480" height="1" fill="#000000"/>
<g transform="translate(0.000000,360.000000) scale(0.100000,-0.100000)"
fill="#000000" stroke="none">
<path d="M354 3547 c-112 -82 -143 -107 -252 -197 l-102 -85 1 -300 0 -300 25
64 c62 162 210 433 307 561 57 75 175 218 186 225 5 3 24 23 41 45 l32 40 -84
-1 -83 0 -71 -52z"/>
<path d="M2766 3588 c5 -7 19 -29 32 -48 39 -56 111 -209 132 -280 106 -357
69 -688 -114 -1013 -87 -156 -262 -341 -404 -427 -234 -143 -399 -323 -512
-563 -120 -255 -156 -542 -100 -808 27 -132 99 -307 168 -411 l25 -38 1098 0
1097 0 87 97 c210 235 386 521 491 796 l34 89 0 818 0 818 -55 138 c-111 276
-275 537 -476 757 l-80 87 -715 0 c-570 0 -714 -3 -708 -12z m351 -2543 c63
-19 139 -85 171 -147 49 -99 35 -239 -31 -315 -116 -133 -287 -158 -415 -61
-83 64 -117 134 -117 243 1 114 39 185 130 243 81 52 170 64 262 37z"/>
<path d="M1685 3156 c-87 -33 -171 -95 -205 -151 -27 -44 -50 -126 -50 -182 0
-66 47 -171 100 -223 73 -74 127 -95 240 -95 84 0 101 3 150 28 169 86 234
244 174 420 -18 52 -86 135 -130 157 -16 8 -36 19 -44 26 -41 31 -176 43 -235
20z"/>
<path d="M1 468 l-1 -468 302 0 302 0 -60 63 c-203 209 -373 480 -532 847 -8
18 -11 -98 -11 -442z"/>
<path d="M4733 308 c-26 -22 -57 -49 -68 -59 -36 -32 -89 -74 -145 -115 -108
-79 -170 -126 -170 -130 0 -2 101 -4 225 -4 l225 0 0 175 c0 102 -4 175 -9
175 -6 0 -31 -19 -58 -42z"/>
</g>
</svg>
