<?xml version="1.0" standalone="no"?>
<!DOCTYPE svg PUBLIC "-//W3C//DTD SVG 20010904//EN"
 "http://www.w3.org/TR/2001/REC-SVG-20010904/DTD/svg10.dtd">
<svg version="1.0" xmlns="http://www.w3.org/2000/svg"
 width="480.000000pt" height="360.000000pt" viewBox="0 0 480.000000 360.000000"
 preserveAspectRatio="xMidYMid meet">
<metadata>
Created by potrace 1.16, written by Peter Selinger 2001-2019
</metadata>
<rect width="1" height="360" fill="#000000"/>
<rect x="479" width="1" height="360" fill="#000000"/>
<rect width="480" height="1" fill="#000000"/>
<rect y="359" width="480" height="1" fill="#000000"/>
<g transform="translate(0.000000,360.000000) scale(0.100000,-0.100000)"
fill="#000000" stroke="none">
<path d="M0 1800 l0 -1800 899 0 898 0 11 68 c13 74 89 356 126 467 13 39 41
111 62 160 35 83 39 101 46 220 4 72 13 172 19 222 7 51 10 96 6 99 -4 4 -24
-5 -45 -20 -49 -34 -77 -33 -99 1 -9 16 -18 30 -20 32 -2 3 -19 -14 -39 -38
-69 -81 -114 -88 -226 -37 -105 48 -211 85 -292 102 -70 15 -106 35 -106 60 0
8 -14 21 -31 29 -22 12 -28 21 -24 34 5 17 -3 19 -87 26 -112 8 -219 35 -297
74 -76 39 -88 54 -71 86 15 29 32 32 50 9 8 -8 22 -20 33 -26 18 -9 19 -8 14
12 -5 19 -3 21 21 17 14 -3 52 0 84 6 46 8 55 13 47 24 -6 7 -18 13 -25 13
-20 0 -46 56 -55 120 -15 108 -29 154 -54 180 -14 15 -28 43 -32 63 -5 31 -1
40 30 71 37 37 60 45 73 24 5 -7 11 -5 21 7 21 29 16 52 -17 75 -31 22 -47 71
-36 113 3 13 26 45 51 71 25 27 48 59 51 73 9 35 26 23 38 -27 15 -58 34 -63
42 -11 8 48 21 62 28 29 3 -13 7 -34 10 -48 15 -78 29 -120 42 -131 12 -10 17
-5 31 30 9 22 21 41 28 41 7 0 19 -18 27 -39 11 -28 23 -40 39 -43 17 -2 31
-18 51 -58 33 -69 34 -96 3 -191 -13 -43 -24 -100 -23 -129 0 -29 -5 -56 -11
-59 -16 -10 -58 -98 -66 -137 -7 -40 -46 -67 -67 -46 -14 14 -64 16 -72 3 -3
-5 12 -11 33 -14 21 -2 56 -17 79 -31 l42 -26 29 21 c23 17 33 19 49 10 11 -6
34 -8 51 -5 24 5 44 -3 105 -41 41 -25 111 -62 155 -80 l79 -34 41 120 c35
101 39 122 29 144 -15 33 1 68 74 156 51 62 53 68 50 113 -2 26 -10 50 -16 52
-7 3 -36 -6 -65 -20 -55 -25 -88 -25 -93 2 -2 8 -1 41 2 71 l5 56 39 6 c25 4
52 1 74 -8 19 -8 40 -12 47 -9 7 2 15 33 19 73 37 376 89 597 173 742 23 39
23 43 7 36 -37 -15 -71 -17 -85 -3 -9 9 -36 14 -74 13 l-59 0 -9 38 c-9 39 18
332 33 356 9 15 138 -3 229 -31 68 -21 205 -86 253 -120 24 -17 32 -18 62 -7
26 9 44 9 80 0 46 -11 50 -10 144 33 109 49 322 119 349 114 16 -3 17 -18 14
-173 -3 -180 -11 -215 -51 -215 -11 0 -25 -9 -32 -20 -17 -26 -57 -26 -109 1
-23 11 -43 18 -46 15 -3 -2 8 -24 25 -48 52 -76 64 -109 69 -187 4 -60 1 -87
-14 -127 l-20 -51 24 -134 c13 -74 31 -176 40 -227 9 -51 20 -95 24 -98 5 -3
22 2 38 11 17 8 45 15 64 15 41 0 47 -13 47 -103 0 -71 -10 -76 -76 -43 -27
14 -52 22 -56 18 -7 -7 13 -117 82 -457 10 -49 17 -91 15 -93 -2 -2 -12 16
-23 40 l-20 43 -1 -117 -1 -117 48 -38 c26 -20 61 -51 78 -69 18 -17 63 -52
100 -79 83 -57 97 -73 90 -101 -5 -17 6 -31 57 -68 34 -25 85 -61 112 -79 56
-36 71 -71 35 -82 -15 -5 -19 -12 -15 -23 16 -37 35 -119 35 -147 0 -37 -25
-75 -49 -75 -10 0 -24 -6 -30 -13 -18 -23 -90 -39 -140 -32 -63 9 -79 19 -62
39 8 9 19 16 27 16 26 0 23 19 -12 84 -19 37 -40 95 -46 129 -13 75 -22 88
-57 81 -24 -5 -37 6 -120 95 -51 56 -96 101 -100 101 -4 0 -8 -6 -8 -12 -1 -7
-13 -56 -27 -108 l-25 -95 4 70 c2 39 0 97 -4 130 -7 60 -8 60 -20 30 -7 -16
-10 -45 -7 -62 5 -33 -7 -46 -18 -18 -10 27 -23 16 -29 -25 -5 -41 14 -101
117 -373 53 -140 153 -457 161 -511 l7 -46 844 0 844 0 0 1800 0 1800 -2400 0
-2400 0 0 -1800z m2897 -852 c-3 -8 -6 -5 -6 6 -1 11 2 17 5 13 3 -3 4 -12 1
-19z"/>
<path d="M1980 2130 c0 -18 4 -29 10 -25 6 3 10 15 10 25 0 10 -4 22 -10 25
-6 4 -10 -7 -10 -25z"/>
<path d="M1956 1354 c-14 -26 -26 -48 -26 -50 0 -2 18 -4 40 -4 50 0 59 17 36
65 -9 19 -19 35 -21 35 -2 0 -15 -21 -29 -46z"/>
</g>
</svg>
