<?xml version="1.0" standalone="no"?>
<!DOCTYPE svg PUBLIC "-//W3C//DTD SVG 20010904//EN"
 "http://www.w3.org/TR/2001/REC-SVG-20010904/DTD/svg10.dtd">
<svg version="1.0" xmlns="http://www.w3.org/2000/svg"
 width="480.000000pt" height="360.000000pt" viewBox="0 0 480.000000 360.000000"
 preserveAspectRatio="xMidYMid meet">
<metadata>
Created by potrace 1.16, written by Peter Selinger 2001-2019
</metadata>
<rect width="1" height="360" fill="#000000"/>
<rect x="479" width="1" height="360" fill="#000000"/>
<rect width="480" height="1" fill="#000000"/>
<rect y="359" width="480" height="1" fill="#000000"/>
<g transform="translate(0.000000,360.000000) scale(0.100000,-0.100000)"
fill="#000000" stroke="none">
<path d="M1360 3590 c0 -5 5 -10 11 -10 7 0 9 -12 5 -34 -5 -27 -3 -37 11 -44
13 -8 14 -13 6 -24 -14 -17 5 -84 28 -99 11 -7 123 -5 214 4 38 4 17 -43 -75
-167 -50 -66 -98 -141 -107 -165 -16 -42 -16 -45 3 -80 10 -20 26 -36 34 -37
8 0 22 -4 30 -7 8 -3 26 -6 40 -7 92 -1 95 -3 93 -40 -11 -208 -13 -338 -5
-515 6 -155 10 -199 16 -168 5 24 13 40 18 37 7 -5 58 -109 58 -120 0 -1 -24
-13 -52 -27 -67 -31 -167 -106 -202 -152 -40 -53 -54 -94 -76 -223 -17 -98
-43 -209 -76 -329 -7 -26 -7 -26 -93 -12 -81 13 -121 5 -121 -24 0 -11 17 -68
37 -126 l37 -104 -21 -56 c-173 -458 -197 -511 -375 -841 -52 -96 -100 -185
-107 -197 l-12 -23 1046 0 1045 0 0 42 c0 22 -9 113 -21 202 -27 203 -22 324
20 479 16 60 31 110 34 113 2 2 7 -107 10 -243 6 -220 26 -488 43 -566 l6 -27
445 0 c445 0 446 0 428 20 -17 19 -17 20 0 20 12 0 15 5 10 18 -4 9 -9 37 -10
62 -2 25 -8 88 -14 140 -6 52 -13 125 -15 161 -2 37 -7 72 -11 79 -4 7 -9 44
-12 84 -2 39 -5 80 -6 91 -9 55 -19 102 -29 125 -6 14 -12 36 -14 50 -9 69
-17 106 -27 119 -7 7 -10 26 -9 41 2 16 -2 31 -8 35 -5 3 -8 10 -5 15 7 11
-15 60 -27 60 -4 0 -8 17 -8 39 0 22 -6 44 -15 51 -8 7 -15 21 -15 31 0 27
-97 240 -121 265 -10 11 -19 28 -19 37 0 18 -22 57 -49 90 -8 10 -16 25 -17
32 -3 17 -113 197 -127 206 -10 7 -29 39 -51 85 -8 17 -22 36 -30 44 -9 7 -16
21 -16 31 0 10 -4 21 -10 24 -5 3 -10 22 -10 42 0 27 5 36 21 40 16 4 19 11
14 27 -10 30 -24 215 -24 324 -1 85 -2 92 -21 92 -18 0 -20 7 -20 81 0 85 17
129 78 204 l25 30 -7 -40 c-4 -21 -17 -57 -28 -78 -24 -49 -8 -40 31 17 38 54
63 140 62 214 -1 77 7 110 27 117 24 10 95 93 97 114 1 18 34 69 68 106 10 11
16 28 13 38 -3 12 8 32 28 55 39 44 56 74 56 100 0 11 7 22 15 26 8 3 15 12
15 21 0 13 -117 15 -1080 15 -713 0 -1080 -3 -1080 -10z m369 -1237 c1 -78 0
-83 -20 -83 -20 0 -21 4 -15 41 4 22 9 68 13 102 9 83 21 48 22 -60z m890
-105 c20 -57 20 -58 1 -58 -24 0 -26 4 -35 75 -8 71 3 65 34 -17z m699 -1165
c-3 -12 22 -85 39 -111 7 -12 11 -27 8 -33 -4 -5 3 -42 14 -82 25 -91 33 -124
36 -162 2 -16 8 -31 14 -33 6 -2 8 -14 5 -27 -3 -13 -1 -33 6 -45 8 -15 8 -25
1 -34 -7 -8 -6 -20 3 -38 8 -14 10 -31 6 -38 -4 -7 -30 32 -68 102 -54 103
-61 122 -71 208 -6 52 -17 132 -23 177 -10 76 -10 85 7 103 19 21 26 25 23 13z"/>
</g>
</svg>
