<?xml version="1.0" standalone="no"?>
<!DOCTYPE svg PUBLIC "-//W3C//DTD SVG 20010904//EN"
 "http://www.w3.org/TR/2001/REC-SVG-20010904/DTD/svg10.dtd">
<svg version="1.0" xmlns="http://www.w3.org/2000/svg"
 width="480.000000pt" height="360.000000pt" viewBox="0 0 480.000000 360.000000"
 preserveAspectRatio="xMidYMid meet">
<metadata>
Created by potrace 1.16, written by Peter Selinger 2001-2019
</metadata>
<rect width="1" height="360" fill="#000000"/>
<rect x="479" width="1" height="360" fill="#000000"/>
<rect width="480" height="1" fill="#000000"/>
<rect y="359" width="480" height="1" fill="#000000"/>
<g transform="translate(0.000000,360.000000) scale(0.100000,-0.100000)"
fill="#000000" stroke="none">
<path d="M0 2730 c0 -721 2 -870 13 -870 117 0 1197 88 1655 135 468 48 904
103 917 116 7 8 34 183 29 189 -3 3 -51 6 -107 6 -64 1 -119 8 -147 18 -53 19
-96 21 -106 5 -5 -8 -28 -9 -78 -4 -167 18 -238 11 -272 -27 -34 -36 -94 -13
-94 37 0 13 -5 27 -10 30 -18 11 48 115 119 189 36 38 62 70 56 72 -5 1 -22 5
-37 8 -21 5 -29 14 -33 39 -9 49 31 120 115 202 150 146 452 477 500 546 l50
72 -48 53 -47 52 -483 1 -484 1 7 -42 c4 -24 23 -106 42 -183 51 -198 52 -207
9 -304 -47 -111 -62 -205 -47 -296 16 -96 45 -143 104 -172 53 -27 60 -43 18
-43 -75 0 -174 63 -213 137 -58 108 -71 202 -54 383 8 84 8 86 -33 195 -57
147 -79 221 -87 278 l-7 47 -623 0 -624 0 0 -870z"/>
<path d="M3000 3591 c0 -6 5 -13 10 -16 6 -3 10 -23 10 -43 1 -50 27 -104 90
-182 66 -82 98 -137 102 -175 3 -30 2 -30 -50 -33 l-54 -3 7 -67 c3 -37 10
-131 14 -209 7 -122 6 -150 -9 -193 -9 -27 -24 -58 -33 -68 -10 -10 -17 -24
-17 -31 0 -7 -15 -18 -34 -26 -32 -13 -35 -19 -41 -68 -7 -57 5 -118 36 -179
24 -47 24 -48 -6 -48 -20 0 -25 -5 -25 -25 0 -19 -7 -26 -32 -34 l-33 -9 40
-1 c22 0 126 19 230 43 915 213 1013 237 1337 328 l258 73 0 488 0 487 -900 0
c-556 0 -900 -4 -900 -9z"/>
<path d="M2820 2185 c-6 -15 -8 -30 -6 -32 7 -8 105 8 111 17 3 5 -11 12 -32
16 -21 4 -44 11 -50 16 -9 7 -16 3 -23 -17z"/>
<path d="M4725 1418 c-211 -249 -819 -814 -975 -905 -83 -49 -445 -140 -835
-210 -65 -11 -150 -18 -245 -18 -151 0 -221 11 -380 60 -66 21 -96 23 -250 23
-147 0 -196 4 -305 26 -358 70 -669 183 -1016 371 -151 82 -161 86 -236 91
-56 4 -132 -2 -266 -20 -103 -14 -194 -26 -202 -26 -13 0 -15 -54 -15 -405 l0
-405 2400 0 2400 0 0 750 c0 413 -1 750 -3 750 -1 0 -34 -37 -72 -82z"/>
</g>
</svg>
