<?xml version="1.0" standalone="no"?>
<!DOCTYPE svg PUBLIC "-//W3C//DTD SVG 20010904//EN"
 "http://www.w3.org/TR/2001/REC-SVG-20010904/DTD/svg10.dtd">
<svg version="1.0" xmlns="http://www.w3.org/2000/svg"
 width="480.000000pt" height="360.000000pt" viewBox="0 0 480.000000 360.000000"
 preserveAspectRatio="xMidYMid meet">
<metadata>
Created by potrace 1.16, written by Peter Selinger 2001-2019
</metadata>
<rect width="1" height="360" fill="#000000"/>
<rect x="479" width="1" height="360" fill="#000000"/>
<rect width="480" height="1" fill="#000000"/>
<rect y="359" width="480" height="1" fill="#000000"/>
<g transform="translate(0.000000,360.000000) scale(0.100000,-0.100000)"
fill="#000000" stroke="none">
<path d="M3895 1279 c19 -60 16 -84 -14 -146 -17 -34 -31 -66 -31 -72 0 -5
-16 -22 -35 -37 -32 -24 -47 -54 -26 -54 4 0 20 -11 35 -25 19 -18 26 -34 26
-62 0 -21 12 -69 25 -108 30 -84 30 -83 8 -81 -25 2 -33 -87 -17 -167 14 -68
29 -87 69 -91 48 -5 79 -96 51 -151 -14 -27 -14 -31 6 -52 l21 -22 -33 -37
c-26 -30 -90 -151 -90 -170 0 -2 102 -4 226 -4 l226 0 -6 38 c-4 20 -16 55
-26 76 -13 26 -16 44 -10 51 6 7 18 67 27 135 16 117 16 124 -1 169 -28 72
-26 83 13 93 24 7 64 4 131 -7 107 -19 91 -23 215 50 22 13 45 24 52 24 7 1
24 13 38 27 22 22 26 33 23 77 l-3 51 -45 2 c-25 1 -51 -2 -58 -8 -7 -6 -36
-9 -65 -7 -28 2 -112 2 -184 0 -73 -1 -137 0 -143 4 -6 4 13 34 45 71 57 68
62 78 44 90 -7 4 -24 -8 -41 -27 -97 -115 -121 -139 -139 -139 -16 0 -19 7
-19 41 0 24 4 38 10 34 6 -4 10 6 10 24 0 16 4 31 9 33 14 4 -7 94 -25 109
-17 14 -18 51 -2 96 13 37 6 52 -17 33 -19 -16 -78 -2 -166 40 -55 26 -65 35
-78 71 -17 46 -50 71 -36 28z"/>
<path d="M2580 1265 c0 -16 -15 -21 -23 -7 -2 4 -2 1 0 -7 2 -7 -1 -19 -7 -26
-6 -7 -9 -17 -8 -22 2 -5 -16 -25 -39 -46 -33 -31 -46 -37 -67 -31 -49 12 -72
-32 -41 -79 13 -20 13 -29 -1 -77 -9 -30 -22 -77 -30 -104 -18 -62 -18 -71 2
-55 14 11 15 9 9 -27 -9 -49 -20 -62 -59 -72 -38 -10 -44 -32 -17 -69 11 -15
30 -54 42 -86 22 -61 20 -83 -12 -164 -11 -28 -11 -34 5 -52 17 -19 17 -23 2
-63 -13 -37 -46 -224 -46 -265 0 -10 45 -13 225 -13 124 0 225 2 225 4 0 15
-95 267 -112 297 -11 21 -18 44 -15 52 3 8 26 19 51 26 24 6 48 15 51 21 10
16 41 11 60 -10 32 -36 69 -22 77 30 l4 25 14 -30 c7 -16 14 -54 15 -82 1 -29
4 -56 8 -59 17 -17 157 96 157 127 0 12 -43 29 -74 29 -45 0 -116 72 -116 117
0 28 -50 84 -69 78 -26 -8 -59 43 -54 81 5 29 2 32 -29 38 -56 10 -71 26 -58
62 6 17 21 37 34 44 31 16 47 52 40 88 -4 21 1 36 20 59 14 17 26 33 26 36 0
14 -49 54 -57 46 -5 -5 -30 19 -57 52 -42 52 -48 64 -38 80 7 11 8 20 2 24 -5
3 -6 13 -3 22 4 11 3 14 -5 9 -7 -4 -12 -2 -12 3 0 6 -4 11 -10 11 -5 0 -10
-7 -10 -15z"/>
<path d="M876 1165 c-3 -8 -12 -15 -20 -15 -10 0 -14 -13 -14 -47 0 -44 -3
-51 -44 -83 -23 -19 -55 -48 -70 -63 -23 -24 -30 -26 -48 -17 -43 23 -54 -24
-20 -83 16 -28 18 -40 10 -61 -18 -48 -12 -81 19 -108 16 -15 31 -41 35 -62 4
-22 16 -42 31 -52 33 -22 32 -28 -11 -43 -51 -18 -74 -61 -74 -139 l0 -63 -46
-20 c-26 -10 -66 -24 -90 -30 -24 -6 -44 -15 -44 -20 0 -14 -62 -37 -134 -47
-66 -11 -71 -10 -127 19 -41 20 -60 36 -65 54 -10 40 -26 46 -98 39 l-66 -7 0
-158 0 -159 576 0 576 0 -26 31 c-21 25 -26 41 -26 87 0 32 -5 73 -10 92 -7
24 -7 61 1 117 12 89 11 91 -54 175 -28 37 -29 58 -2 58 8 0 24 19 36 42 25
49 22 111 -10 183 l-20 45 26 30 c27 33 25 60 -6 60 -11 0 -34 12 -51 27 -29
24 -32 30 -26 69 5 39 3 45 -32 78 -20 20 -40 36 -44 36 -4 0 -8 11 -8 25 0
27 -15 34 -24 10z m-147 -965 c6 -17 19 -43 31 -57 25 -32 26 -53 0 -53 -10 0
-23 -6 -27 -13 -4 -8 -32 -18 -62 -24 -51 -10 -56 -9 -127 26 -41 20 -74 39
-74 43 0 4 12 10 28 14 15 3 68 26 117 50 50 24 93 44 97 44 3 0 11 -14 17
-30z"/>
</g>
</svg>
