<?xml version="1.0" standalone="no"?>
<!DOCTYPE svg PUBLIC "-//W3C//DTD SVG 20010904//EN"
 "http://www.w3.org/TR/2001/REC-SVG-20010904/DTD/svg10.dtd">
<svg version="1.0" xmlns="http://www.w3.org/2000/svg"
 width="480.000000pt" height="360.000000pt" viewBox="0 0 480.000000 360.000000"
 preserveAspectRatio="xMidYMid meet">
<metadata>
Created by potrace 1.16, written by Peter Selinger 2001-2019
</metadata>
<rect width="1" height="360" fill="#000000"/>
<rect x="479" width="1" height="360" fill="#000000"/>
<rect width="480" height="1" fill="#000000"/>
<rect y="359" width="480" height="1" fill="#000000"/>
<g transform="translate(0.000000,360.000000) scale(0.100000,-0.100000)"
fill="#000000" stroke="none">
<path d="M1676 3518 c16 -173 -9 -415 -52 -515 -8 -17 -14 -36 -14 -42 0 -24
-81 -194 -125 -262 -128 -198 -315 -368 -515 -466 -107 -53 -181 -83 -202 -83
-11 0 -34 -6 -51 -14 -100 -44 -422 -54 -587 -17 -52 12 -102 21 -112 21 -17
0 -18 -47 -18 -1070 l0 -1070 1635 0 c1332 0 1633 2 1629 13 -5 15 71 194 123
286 52 91 126 245 163 338 57 140 109 291 103 297 -4 3 -1 16 5 29 6 12 12 39
14 60 3 29 0 37 -12 37 -9 0 -22 6 -29 13 -11 10 -12 3 -7 -38 4 -27 9 -58 12
-67 16 -55 -76 15 -112 85 -87 166 -78 118 -80 425 -1 271 -1 276 24 341 55
147 61 168 62 218 0 104 47 242 104 310 13 15 38 62 55 103 62 147 154 244
255 271 23 6 56 17 75 25 41 18 287 38 358 29 67 -8 99 -32 88 -65 -4 -14 -34
-52 -67 -86 l-58 -61 16 -63 c15 -58 15 -66 0 -97 -9 -18 -34 -45 -57 -60 -23
-16 -56 -42 -73 -59 -17 -17 -55 -52 -85 -78 -48 -43 -57 -47 -90 -42 -20 3
-30 3 -23 0 6 -3 12 -14 12 -24 0 -12 10 -20 30 -24 17 -3 42 -8 58 -11 15 -3
34 -11 42 -18 37 -29 83 -101 104 -164 13 -37 35 -91 50 -120 14 -29 26 -66
26 -83 0 -23 6 -33 25 -42 29 -13 32 -26 9 -35 -12 -4 -8 -12 20 -35 39 -32
39 -29 -6 -130 -20 -45 -24 -48 -58 -48 -27 0 -43 -7 -64 -29 -35 -36 -31 -57
24 -145 22 -35 71 -134 110 -221 38 -87 88 -190 111 -229 51 -86 219 -340 253
-381 l25 -30 1 1603 0 1602 -1566 0 -1566 0 8 -82z"/>
<path d="M3714 1469 c-10 -17 -15 -317 -5 -324 5 -2 32 40 60 95 l51 99 -46
71 c-25 38 -47 70 -49 70 -2 0 -7 -5 -11 -11z"/>
</g>
</svg>
