<?xml version="1.0" standalone="no"?>
<!DOCTYPE svg PUBLIC "-//W3C//DTD SVG 20010904//EN"
 "http://www.w3.org/TR/2001/REC-SVG-20010904/DTD/svg10.dtd">
<svg version="1.0" xmlns="http://www.w3.org/2000/svg"
 width="480.000000pt" height="360.000000pt" viewBox="0 0 480.000000 360.000000"
 preserveAspectRatio="xMidYMid meet">
<metadata>
Created by potrace 1.16, written by Peter Selinger 2001-2019
</metadata>
<rect width="1" height="360" fill="#000000"/>
<rect x="479" width="1" height="360" fill="#000000"/>
<rect width="480" height="1" fill="#000000"/>
<rect y="359" width="480" height="1" fill="#000000"/>
<g transform="translate(0.000000,360.000000) scale(0.100000,-0.100000)"
fill="#000000" stroke="none">
<path d="M0 1800 l0 -1800 665 0 665 0 0 1800 0 1800 -665 0 -665 0 0 -1800z"/>
<path d="M2137 3581 c-3 -13 -24 -23 -71 -36 -65 -18 -66 -18 -66 -52 0 -20
-9 -48 -21 -65 l-22 -30 28 -71 c15 -40 57 -123 92 -186 69 -121 90 -166 130
-276 14 -38 39 -98 54 -133 l29 -62 -9 -132 c-7 -98 -14 -135 -25 -143 -14
-11 -454 -14 -501 -4 -13 3 -20 -2 -23 -16 -2 -11 -14 -31 -26 -45 -27 -30
-45 -70 -39 -88 4 -10 8 -10 19 -1 26 21 16 -16 -11 -41 -27 -25 -33 -50 -12
-50 17 0 47 32 82 89 l27 44 241 -8 c133 -4 245 -9 250 -12 4 -2 7 -19 7 -36
l0 -33 -57 1 c-32 0 -70 -4 -86 -8 -36 -10 -107 -74 -107 -97 0 -32 54 -65
153 -95 l97 -29 14 -45 c8 -25 25 -80 36 -121 12 -41 27 -81 32 -87 6 -7 30
-13 54 -13 52 0 61 11 94 114 26 83 56 146 73 150 7 2 52 11 101 20 94 18 146
45 146 76 0 10 -24 39 -53 64 -40 34 -65 47 -102 53 -49 9 -50 10 -48 42 0 18
5 37 11 43 12 12 357 33 404 24 31 -6 41 -15 66 -59 33 -59 56 -82 72 -72 19
12 10 43 -17 64 -22 16 -24 20 -10 21 23 0 22 18 -8 76 -14 27 -25 56 -25 65
0 23 -23 30 -62 18 -18 -5 -117 -9 -220 -9 l-187 0 5 33 c4 24 3 28 -5 17 -9
-12 -11 -9 -10 15 0 17 4 49 8 72 11 56 -3 77 -21 32 l-15 -34 -7 30 c-10 38
-34 65 -52 58 -24 -9 -17 67 12 116 14 25 39 78 56 118 46 112 102 209 180
313 87 117 123 190 112 228 -4 15 -9 32 -9 37 -1 6 -7 23 -13 38 -7 16 -12 35
-12 42 0 18 -24 30 -75 39 -22 4 -57 18 -77 32 -37 24 -39 24 -307 24 -253 0
-269 -1 -274 -19z"/>
<path d="M3470 1800 l0 -1800 665 0 665 0 0 1800 0 1800 -665 0 -665 0 0
-1800z"/>
</g>
</svg>
