<?xml version="1.0" standalone="no"?>
<!DOCTYPE svg PUBLIC "-//W3C//DTD SVG 20010904//EN"
 "http://www.w3.org/TR/2001/REC-SVG-20010904/DTD/svg10.dtd">
<svg version="1.0" xmlns="http://www.w3.org/2000/svg"
 width="480.000000pt" height="360.000000pt" viewBox="0 0 480.000000 360.000000"
 preserveAspectRatio="xMidYMid meet">
<metadata>
Created by potrace 1.16, written by Peter Selinger 2001-2019
</metadata>
<rect width="1" height="360" fill="#000000"/>
<rect x="479" width="1" height="360" fill="#000000"/>
<rect width="480" height="1" fill="#000000"/>
<rect y="359" width="480" height="1" fill="#000000"/>
<g transform="translate(0.000000,360.000000) scale(0.100000,-0.100000)"
fill="#000000" stroke="none">
<path d="M0 1839 c0 -1306 3 -1772 12 -1800 l11 -39 2389 0 2388 0 0 1800 0
1800 -151 0 -151 0 8 -82 c40 -379 -100 -772 -369 -1040 -315 -315 -742 -444
-1177 -357 -84 17 -138 33 -205 59 -49 19 -212 104 -230 120 -11 9 -42 32 -69
50 -133 89 -296 284 -379 450 -55 113 -68 148 -109 300 -28 107 -31 128 -31
285 0 94 3 180 7 193 l7 22 -975 0 -976 0 0 -1761z"/>
</g>
</svg>
