<?xml version="1.0" standalone="no"?>
<!DOCTYPE svg PUBLIC "-//W3C//DTD SVG 20010904//EN"
 "http://www.w3.org/TR/2001/REC-SVG-20010904/DTD/svg10.dtd">
<svg version="1.0" xmlns="http://www.w3.org/2000/svg"
 width="480.000000pt" height="360.000000pt" viewBox="0 0 480.000000 360.000000"
 preserveAspectRatio="xMidYMid meet">
<metadata>
Created by potrace 1.16, written by Peter Selinger 2001-2019
</metadata>
<rect width="1" height="360" fill="#000000"/>
<rect x="479" width="1" height="360" fill="#000000"/>
<rect width="480" height="1" fill="#000000"/>
<rect y="359" width="480" height="1" fill="#000000"/>
<g transform="translate(0.000000,360.000000) scale(0.100000,-0.100000)"
fill="#000000" stroke="none">
<path d="M4496 3534 l-129 -66 -80 12 c-263 41 -650 -87 -828 -276 -71 -76
-104 -125 -128 -197 -30 -87 -72 -118 -239 -177 -85 -30 -96 -32 -146 -22 -90
18 -116 5 -152 -77 -30 -67 -29 -97 3 -94 17 2 24 -4 29 -25 31 -139 51 -158
164 -149 l80 6 0 -49 c0 -59 18 -104 35 -90 9 7 15 -1 23 -28 6 -21 25 -53 41
-71 l29 -33 4 29 3 28 23 -35 22 -35 -5 43 c-3 23 -13 55 -22 69 -10 15 -12
24 -5 19 15 -9 55 -86 45 -86 -4 0 8 -15 26 -34 41 -43 36 -65 -25 -106 -24
-17 -44 -38 -44 -46 0 -8 16 -24 35 -35 41 -25 55 -46 55 -87 0 -16 7 -35 15
-42 8 -7 15 -21 15 -31 0 -10 5 -21 11 -25 6 -4 24 -35 40 -70 23 -51 27 -68
19 -89 -16 -41 -12 -50 13 -28 12 12 43 24 70 28 l47 7 -6 -51 c-3 -28 -3 -51
0 -51 3 0 22 25 42 56 20 31 38 54 40 51 2 -2 10 -24 17 -48 18 -61 37 -60 80
6 21 30 40 55 43 55 14 0 35 -80 36 -141 1 -59 -2 -72 -21 -93 -16 -17 -22
-34 -19 -55 3 -29 -2 -33 -72 -73 l-75 -43 -95 17 c-130 22 -166 22 -175 1 -6
-17 -7 -17 -19 0 -18 23 -28 22 -55 -7 -24 -25 -24 -40 -4 -123 5 -22 2 -23
-56 -23 -33 0 -81 7 -107 16 -25 8 -48 13 -51 10 -3 -3 0 -26 7 -51 8 -27 9
-49 4 -54 -5 -5 -47 -18 -94 -31 -113 -30 -216 -67 -266 -96 l-41 -23 -46 72
c-25 40 -114 158 -199 262 -340 423 -347 429 -457 455 -30 7 -82 25 -115 40
-34 15 -74 30 -91 34 -16 4 -53 18 -82 31 -89 41 -162 55 -292 55 -94 0 -131
-4 -168 -19 -28 -10 -90 -21 -148 -25 -136 -10 -145 -12 -145 -45 0 -15 7 -52
16 -82 13 -45 28 -65 85 -119 82 -78 114 -141 97 -191 -9 -27 -8 -34 7 -46 11
-7 41 -13 67 -13 34 0 50 -5 54 -15 3 -8 36 -29 72 -47 65 -32 69 -33 207 -33
77 0 152 4 167 8 24 8 30 4 72 -50 26 -32 108 -146 183 -253 231 -330 275
-383 376 -459 98 -74 161 -103 232 -108 55 -5 265 21 487 60 l76 13 7 -88 c4
-48 4 -148 0 -223 l-7 -135 495 0 496 0 16 58 c46 162 57 192 68 192 63 -1
288 -34 331 -49 74 -26 155 -81 215 -147 27 -30 54 -54 60 -54 8 0 11 65 11
202 l0 202 -26 27 -26 27 26 56 26 55 0 1515 0 1516 -87 -1 -88 0 -129 -65z
m274 -1995 c0 -6 -4 -7 -10 -4 -5 3 -10 11 -10 16 0 6 5 7 10 4 6 -3 10 -11
10 -16z m-48 -89 c5 0 7 8 4 18 -4 13 0 18 15 19 17 2 19 -2 15 -25 -3 -15
-11 -70 -17 -122 -13 -114 -91 -482 -113 -535 -9 -20 -29 -52 -45 -71 -16 -18
-34 -41 -39 -51 -10 -17 -12 -17 -34 3 -13 11 -41 32 -64 46 l-41 26 5 76 c6
105 -11 199 -68 373 -44 132 -46 145 -24 118 l24 -30 0 25 c1 50 15 54 48 14
l32 -38 -7 97 c-4 65 -3 97 4 97 12 0 34 -22 95 -99 63 -79 68 -77 68 19 0 77
1 82 20 77 16 -4 20 0 20 20 0 24 1 24 46 -16 26 -23 51 -41 56 -41z"/>
</g>
</svg>
