<?xml version="1.0" standalone="no"?>
<!DOCTYPE svg PUBLIC "-//W3C//DTD SVG 20010904//EN"
 "http://www.w3.org/TR/2001/REC-SVG-20010904/DTD/svg10.dtd">
<svg version="1.0" xmlns="http://www.w3.org/2000/svg"
 width="480.000000pt" height="360.000000pt" viewBox="0 0 480.000000 360.000000"
 preserveAspectRatio="xMidYMid meet">
<metadata>
Created by potrace 1.16, written by Peter Selinger 2001-2019
</metadata>
<rect width="1" height="360" fill="#000000"/>
<rect x="479" width="1" height="360" fill="#000000"/>
<rect width="480" height="1" fill="#000000"/>
<rect y="359" width="480" height="1" fill="#000000"/>
<g transform="translate(0.000000,360.000000) scale(0.100000,-0.100000)"
fill="#000000" stroke="none">
<path d="M1226 3580 c-17 -10 -36 -30 -43 -44 -8 -15 -20 -26 -28 -26 -23 0
-42 -49 -54 -145 -7 -49 -19 -102 -27 -117 -8 -16 -21 -42 -30 -59 -10 -19
-14 -40 -10 -57 4 -15 9 -45 11 -67 5 -55 51 -261 70 -310 21 -56 19 -79 -14
-213 -16 -64 -35 -162 -42 -217 -12 -101 -12 -101 12 -126 13 -14 34 -38 46
-54 l22 -30 0 38 c1 41 6 45 33 21 13 -13 21 -14 31 -6 10 8 20 7 39 -6 88
-58 105 -71 117 -86 14 -17 11 -52 -10 -104 -13 -31 -12 -37 19 -94 30 -53 32
-63 22 -89 -7 -15 -31 -39 -54 -53 -80 -47 -233 -245 -255 -329 -6 -24 -30
-66 -56 -97 -71 -84 -97 -143 -103 -226 -8 -120 34 -204 125 -250 76 -39 87
-61 88 -169 1 -217 -22 -385 -61 -460 -15 -27 -44 -84 -65 -125 l-37 -75 1245
-3 c686 -1 1249 0 1252 3 2 3 0 71 -6 152 -11 141 -13 149 -52 227 -22 44 -58
104 -79 132 -51 66 -59 95 -67 232 -6 113 -6 114 20 138 25 23 26 29 24 105
-1 58 2 83 11 89 8 5 14 28 14 58 1 57 20 86 51 78 20 -5 22 0 33 81 6 48 16
91 22 97 6 6 39 4 97 -7 273 -52 529 -72 566 -44 23 16 31 71 22 152 -5 54
-12 73 -38 102 -52 59 -123 105 -325 209 -153 78 -197 105 -209 128 -11 22
-16 79 -21 232 l-5 204 35 14 c98 41 136 202 76 321 -37 74 -89 115 -147 115
-16 0 -62 16 -102 36 -41 21 -118 47 -178 61 -58 13 -141 35 -183 49 -116 39
-194 19 -251 -63 -38 -55 -49 -91 -47 -153 3 -108 0 -139 -19 -172 -20 -35
-98 -229 -127 -317 -9 -29 -26 -66 -38 -84 l-22 -32 -197 -3 c-167 -2 -197 0
-197 12 0 24 50 58 66 45 10 -8 20 -6 41 11 l28 22 14 -21 c18 -27 31 -26 60
4 13 14 32 25 42 25 10 0 26 12 36 28 9 15 27 38 40 51 41 43 103 243 103 334
0 37 -13 83 -51 176 -58 145 -97 219 -167 314 -36 49 -52 82 -57 115 -16 109
-85 182 -210 222 -22 7 -65 30 -96 52 -94 64 -112 68 -276 68 -103 -1 -160 -5
-188 -15 -51 -19 -71 -19 -79 0 -9 24 -172 21 -210 -5z m1224 -1971 c0 -24
-23 -21 -28 4 -2 10 3 17 12 17 10 0 16 -9 16 -21z m-386 -925 c21 -25 38 -55
38 -67 0 -27 -184 -402 -217 -443 l-24 -29 -1 35 c0 54 45 252 102 445 36 123
43 127 102 59z"/>
</g>
</svg>
