<?xml version="1.0" standalone="no"?>
<!DOCTYPE svg PUBLIC "-//W3C//DTD SVG 20010904//EN"
 "http://www.w3.org/TR/2001/REC-SVG-20010904/DTD/svg10.dtd">
<svg version="1.0" xmlns="http://www.w3.org/2000/svg"
 width="480.000000pt" height="360.000000pt" viewBox="0 0 480.000000 360.000000"
 preserveAspectRatio="xMidYMid meet">
<metadata>
Created by potrace 1.16, written by Peter Selinger 2001-2019
</metadata>
<rect width="1" height="360" fill="#000000"/>
<rect x="479" width="1" height="360" fill="#000000"/>
<rect width="480" height="1" fill="#000000"/>
<rect y="359" width="480" height="1" fill="#000000"/>
<g transform="translate(0.000000,360.000000) scale(0.100000,-0.100000)"
fill="#000000" stroke="none">
<path d="M0 1800 l0 -1800 554 0 554 0 -82 178 c-95 202 -126 287 -126 338 0
45 51 144 125 242 33 44 57 87 61 110 7 44 21 68 63 110 17 17 31 41 31 54 1
37 34 100 78 145 48 49 134 95 224 120 35 9 82 29 104 43 23 14 60 32 83 40
l42 13 -3 221 c-3 191 -6 231 -25 291 -31 103 -46 204 -41 273 l4 62 -43 0
c-111 0 -301 42 -318 70 -3 5 -25 2 -48 -5 -76 -23 -78 -6 -12 82 33 43 95
114 138 158 42 44 73 81 68 83 -20 7 -127 81 -166 115 -26 23 -36 39 -30 45 6
5 57 17 115 26 57 9 105 18 106 19 2 1 -6 54 -17 117 -20 124 -24 190 -10 190
5 0 72 -65 150 -145 139 -144 141 -146 164 -130 60 39 391 75 676 75 146 -1
202 -13 228 -49 l14 -21 29 20 c15 11 33 20 39 20 6 0 18 15 27 33 34 68 149
257 157 257 4 0 5 -30 1 -67 -3 -38 -1 -112 4 -166 8 -85 12 -100 35 -121 15
-14 32 -45 38 -70 8 -34 16 -46 30 -46 15 0 214 -48 272 -66 9 -3 17 -10 17
-15 0 -10 -176 -100 -234 -119 l-40 -13 41 -19 c51 -24 60 -44 33 -73 -23 -24
-137 -66 -247 -91 -68 -15 -86 -25 -64 -38 17 -11 20 -63 9 -157 -10 -79 -9
-132 5 -295 14 -167 24 -501 17 -554 -1 -8 -8 3 -15 25 l-13 40 -1 -48 c-1
-37 3 -49 17 -54 38 -14 132 -85 161 -122 39 -49 111 -201 140 -295 36 -117
24 -206 -37 -269 -23 -24 -28 -39 -30 -95 -8 -154 -5 -283 7 -374 l14 -98 863
0 864 0 0 1800 0 1800 -2400 0 -2400 0 0 -1800z"/>
<path d="M2300 1659 c-14 -6 -57 -9 -97 -7 -73 3 -77 -4 -10 -22 41 -12 98 -1
132 24 23 18 11 19 -25 5z"/>
<path d="M1501 653 c-33 -3 -55 -13 -84 -39 -23 -19 -49 -34 -59 -34 -19 0
-96 -28 -114 -41 -7 -6 4 -55 37 -156 26 -82 64 -201 84 -265 l36 -118 64 0
64 0 0 158 c0 100 7 214 20 315 25 186 25 188 9 185 -7 -1 -33 -3 -57 -5z"/>
</g>
</svg>
