<?xml version="1.0" standalone="no"?>
<!DOCTYPE svg PUBLIC "-//W3C//DTD SVG 20010904//EN"
 "http://www.w3.org/TR/2001/REC-SVG-20010904/DTD/svg10.dtd">
<svg version="1.0" xmlns="http://www.w3.org/2000/svg"
 width="480.000000pt" height="360.000000pt" viewBox="0 0 480.000000 360.000000"
 preserveAspectRatio="xMidYMid meet">
<metadata>
Created by potrace 1.16, written by Peter Selinger 2001-2019
</metadata>
<rect width="1" height="360" fill="#000000"/>
<rect x="479" width="1" height="360" fill="#000000"/>
<rect width="480" height="1" fill="#000000"/>
<rect y="359" width="480" height="1" fill="#000000"/>
<g transform="translate(0.000000,360.000000) scale(0.100000,-0.100000)"
fill="#000000" stroke="none">
<path d="M0 1800 l0 -1800 2400 0 2400 0 0 1800 0 1800 -2400 0 -2400 0 0
-1800z m2568 390 c30 -19 32 -23 32 -77 0 -32 -7 -112 -16 -178 -41 -309 -43
-318 -118 -430 -39 -59 -158 -185 -175 -185 -33 0 -181 114 -181 139 0 4 16
26 35 48 19 23 35 44 35 48 0 4 15 25 33 48 18 23 44 59 58 79 20 32 29 38 60
38 43 0 98 17 119 37 12 11 16 51 20 186 5 148 9 179 28 220 12 26 25 47 29
47 4 0 23 -9 41 -20z"/>
</g>
</svg>
