<?xml version="1.0" standalone="no"?>
<!DOCTYPE svg PUBLIC "-//W3C//DTD SVG 20010904//EN"
 "http://www.w3.org/TR/2001/REC-SVG-20010904/DTD/svg10.dtd">
<svg version="1.0" xmlns="http://www.w3.org/2000/svg"
 width="480.000000pt" height="360.000000pt" viewBox="0 0 480.000000 360.000000"
 preserveAspectRatio="xMidYMid meet">
<metadata>
Created by potrace 1.16, written by Peter Selinger 2001-2019
</metadata>
<rect width="1" height="360" fill="#000000"/>
<rect x="479" width="1" height="360" fill="#000000"/>
<rect width="480" height="1" fill="#000000"/>
<rect y="359" width="480" height="1" fill="#000000"/>
<g transform="translate(0.000000,360.000000) scale(0.100000,-0.100000)"
fill="#000000" stroke="none">
<path d="M2050 3589 c0 -6 9 -45 19 -87 31 -121 60 -296 71 -427 11 -131 23
-206 47 -304 14 -60 14 -69 -2 -120 -24 -80 -68 -144 -139 -202 -79 -66 -93
-84 -178 -231 -39 -68 -106 -175 -148 -239 -116 -172 -118 -178 -146 -372 -29
-204 -44 -271 -92 -395 -25 -68 -32 -96 -24 -104 8 -8 4 -24 -15 -57 -61 -107
-83 -125 -197 -165 -33 -12 -61 -26 -63 -33 -6 -18 46 -28 89 -16 21 6 38 9
38 7 0 -2 -31 -19 -69 -39 -75 -37 -91 -52 -70 -66 24 -15 62 -10 119 16 l55
25 -40 -35 c-22 -19 -55 -45 -74 -58 -46 -30 -51 -47 -12 -47 41 0 75 16 144
68 32 24 61 42 64 39 2 -3 -13 -29 -34 -59 -61 -84 -70 -106 -51 -124 14 -14
18 -13 41 8 15 13 59 72 100 133 60 89 78 110 98 110 20 0 25 7 32 40 5 22 20
66 34 97 26 56 41 68 90 68 32 0 72 20 77 39 3 9 10 63 16 121 13 117 34 224
83 412 28 109 38 133 73 175 187 224 220 271 279 398 69 150 84 163 233 214
103 36 102 36 102 16 0 -8 14 -24 30 -37 18 -13 30 -31 30 -44 0 -13 5 -34 11
-47 16 -35 -1 -59 -67 -97 l-56 -31 7 -67 c9 -85 11 -96 24 -119 6 -12 6 -25
0 -34 -19 -30 -10 -46 30 -53 48 -7 57 -19 36 -43 -55 -63 -146 -207 -160
-255 -4 -13 -23 -47 -42 -76 -25 -39 -32 -56 -24 -66 11 -13 -15 -86 -32 -86
-11 0 -47 -80 -47 -107 0 -12 7 -29 17 -38 14 -14 14 -18 2 -26 -8 -5 -17 -9
-21 -9 -16 0 -7 -22 17 -44 16 -15 24 -32 23 -47 -2 -18 2 -24 17 -24 13 0 21
-8 23 -22 4 -29 20 -29 54 0 14 12 59 49 99 82 40 33 98 82 128 108 50 44 59
47 92 42 49 -8 137 23 220 80 l66 45 44 -18 c89 -38 211 -74 293 -86 155 -23
319 15 476 110 157 95 189 183 156 429 -27 198 -6 333 73 468 41 69 40 79 -7
50 -78 -48 -163 -129 -217 -205 -95 -134 -143 -178 -196 -178 -31 0 -231 194
-243 234 -7 26 -1 49 38 140 26 60 62 159 80 220 42 142 91 364 83 373 -4 3
-17 -3 -30 -15 -31 -29 -37 -28 -37 7 0 32 -23 47 -55 35 -13 -5 -16 -4 -11 4
5 8 0 12 -13 12 -15 0 -21 -6 -21 -21 0 -18 -2 -19 -15 -9 -18 15 -31 5 -37
-25 -2 -11 -11 -20 -20 -20 -31 0 -103 -93 -94 -122 3 -11 -6 -31 -23 -53 -26
-30 -31 -33 -53 -23 -19 8 -29 26 -42 76 -16 59 -16 69 -2 108 31 91 65 170
106 246 106 199 189 404 190 471 0 9 -152 12 -725 12 -514 0 -725 -3 -725 -11z
m1305 -50 c-4 -16 -29 -76 -56 -132 -27 -56 -46 -91 -43 -77 7 30 97 240 102
240 2 0 1 -14 -3 -31z"/>
<path d="M4767 2563 c-4 -570 -7 -1380 -7 -1800 0 -756 0 -763 20 -763 20 0
20 7 20 1800 0 1494 -2 1800 -13 1800 -11 0 -15 -182 -20 -1037z"/>
</g>
</svg>
