<?xml version="1.0" standalone="no"?>
<!DOCTYPE svg PUBLIC "-//W3C//DTD SVG 20010904//EN"
 "http://www.w3.org/TR/2001/REC-SVG-20010904/DTD/svg10.dtd">
<svg version="1.0" xmlns="http://www.w3.org/2000/svg"
 width="480.000000pt" height="360.000000pt" viewBox="0 0 480.000000 360.000000"
 preserveAspectRatio="xMidYMid meet">
<metadata>
Created by potrace 1.16, written by Peter Selinger 2001-2019
</metadata>
<rect width="1" height="360" fill="#000000"/>
<rect x="479" width="1" height="360" fill="#000000"/>
<rect width="480" height="1" fill="#000000"/>
<rect y="359" width="480" height="1" fill="#000000"/>
<g transform="translate(0.000000,360.000000) scale(0.100000,-0.100000)"
fill="#000000" stroke="none">
<path d="M1604 3413 c0 -272 -25 -385 -135 -608 -53 -108 -137 -227 -222 -314
-77 -79 -224 -194 -294 -230 -34 -17 -64 -35 -68 -41 -3 -5 -38 -19 -78 -31
-40 -12 -76 -25 -82 -29 -23 -18 -192 -52 -302 -61 -138 -11 -314 0 -406 27
-16 5 -17 -50 -17 -1060 l0 -1066 1530 0 1530 0 0 38 c0 20 5 55 10 77 5 22
17 98 26 169 11 88 31 181 64 292 56 188 70 254 105 489 14 94 37 216 51 272
17 69 22 108 16 120 -5 10 -12 58 -16 107 -6 87 -16 116 -40 116 -7 0 -25 14
-42 31 -23 24 -29 39 -28 72 1 46 28 107 69 155 14 17 34 61 44 97 13 46 29
77 52 101 30 31 32 37 20 56 -12 19 -11 23 10 39 27 21 13 25 -24 8 -24 -11
-46 2 -145 86 -2 2 3 13 10 24 11 18 11 23 -2 31 -8 6 -27 9 -42 8 -29 -3 -78
35 -78 60 0 9 -6 12 -16 8 -13 -5 -14 1 -9 42 4 26 11 65 17 86 9 39 9 41 -29
72 -52 43 -95 106 -87 128 3 9 16 19 28 22 13 3 128 4 257 2 l234 -3 55 -31
c70 -40 138 -123 176 -216 16 -40 47 -95 70 -123 75 -92 98 -153 113 -306 6
-50 17 -102 29 -125 11 -22 32 -79 47 -129 26 -84 27 -95 17 -165 -6 -46 -7
-93 -2 -120 8 -41 2 -91 -17 -140 -3 -8 -5 -40 -4 -72 2 -31 -3 -85 -10 -120
-13 -66 -53 -158 -69 -158 -5 0 -7 7 -4 15 10 26 -5 17 -20 -12 -13 -25 -11
-36 26 -143 61 -172 108 -276 217 -475 133 -242 154 -286 191 -393 l33 -92
218 0 219 0 0 1800 0 1800 -1598 0 -1597 0 -1 -187z"/>
<path d="M3979 1524 c-3 -10 -2 -32 1 -49 l6 -30 7 27 c4 14 3 37 -1 49 -8 21
-9 21 -13 3z"/>
</g>
</svg>
