<?xml version="1.0" standalone="no"?>
<!DOCTYPE svg PUBLIC "-//W3C//DTD SVG 20010904//EN"
 "http://www.w3.org/TR/2001/REC-SVG-20010904/DTD/svg10.dtd">
<svg version="1.0" xmlns="http://www.w3.org/2000/svg"
 width="480.000000pt" height="360.000000pt" viewBox="0 0 480.000000 360.000000"
 preserveAspectRatio="xMidYMid meet">
<metadata>
Created by potrace 1.16, written by Peter Selinger 2001-2019
</metadata>
<rect width="1" height="360" fill="#000000"/>
<rect x="479" width="1" height="360" fill="#000000"/>
<rect width="480" height="1" fill="#000000"/>
<rect y="359" width="480" height="1" fill="#000000"/>
<g transform="translate(0.000000,360.000000) scale(0.100000,-0.100000)"
fill="#000000" stroke="none">
<path d="M0 2959 l0 -641 32 6 c72 14 449 18 579 7 180 -16 414 -55 581 -97
100 -25 149 -32 178 -28 l40 7 0 58 c0 33 -3 59 -7 59 -5 0 -24 -4 -43 -9 -54
-14 -120 -19 -126 -10 -3 5 -13 9 -23 9 -10 0 -24 7 -31 15 -23 27 30 111 135
216 l95 95 -9 95 c-15 141 -13 265 4 305 8 19 37 59 65 88 60 63 189 156 218
156 10 0 27 10 38 22 46 52 263 128 365 128 70 0 127 -28 255 -124 101 -76 82
-74 259 -22 125 38 202 45 245 23 61 -31 25 -103 -121 -241 -118 -112 -120
-84 19 -227 66 -68 80 -88 67 -93 -9 -3 -26 -1 -37 5 -20 11 -21 10 -13 -22
13 -55 16 -139 5 -139 -6 0 -10 7 -10 16 0 32 -25 6 -35 -37 -10 -40 -12 -42
-23 -24 -6 11 -12 15 -12 8 0 -7 -14 -28 -31 -48 -28 -32 -30 -39 -20 -61 6
-13 27 -34 46 -45 44 -27 46 -55 4 -90 -25 -20 -32 -33 -31 -60 0 -22 -7 -42
-20 -56 -12 -13 -19 -26 -15 -29 3 -4 -7 -30 -22 -59 -15 -28 -30 -62 -34 -74
-3 -13 -19 -27 -36 -34 -22 -8 -31 -18 -31 -34 0 -65 -24 -129 -62 -167 -21
-22 -35 -42 -31 -47 4 -4 51 -29 103 -56 110 -57 322 -177 363 -206 26 -18 29
-18 46 -3 28 26 67 19 108 -18 21 -18 52 -40 68 -49 17 -8 41 -27 54 -41 14
-14 30 -26 36 -26 15 0 142 -80 173 -109 17 -15 21 -28 17 -50 -4 -26 1 -33
53 -71 91 -68 191 -149 268 -217 63 -55 76 -62 120 -65 42 -3 51 -7 62 -30 10
-21 20 -28 43 -28 33 0 69 -31 69 -60 0 -13 9 -22 28 -26 38 -9 52 -23 52 -50
0 -13 10 -34 21 -45 17 -17 20 -29 16 -57 -6 -32 -1 -40 44 -90 58 -63 233
-295 298 -394 l45 -68 153 0 153 0 0 1800 0 1800 -2400 0 -2400 0 0 -641z"/>
<path d="M245 2084 c-44 -2 -117 -9 -163 -15 l-82 -11 0 -1029 0 -1029 929 0
930 0 3 47 c3 54 -14 341 -33 538 -10 102 -17 140 -37 178 -18 34 -22 51 -14
59 8 8 6 17 -4 34 -13 19 -14 37 -4 125 13 115 5 228 -16 236 -8 3 -14 14 -14
24 0 30 -20 22 -21 -8 0 -16 -4 -37 -9 -48 -8 -19 -9 -19 -9 3 -1 15 -5 21
-12 16 -9 -5 -10 31 -5 137 4 79 9 158 12 175 l6 31 -59 5 c-76 5 -174 54
-253 125 -71 64 -103 116 -119 196 -7 34 -19 61 -29 66 -9 5 -71 22 -137 39
-296 76 -625 116 -860 106z"/>
<path d="M2660 1306 c0 -3 25 -52 56 -110 57 -108 65 -135 19 -69 -30 45 -32
32 -5 -31 37 -81 54 -50 42 73 l-7 75 -52 33 c-29 19 -53 31 -53 29z"/>
<path d="M3226 868 l-37 -53 56 -51 c30 -28 55 -58 55 -67 0 -8 -33 -50 -72
-92 l-73 -78 160 6 c88 3 172 9 187 14 26 8 93 96 86 112 -7 16 -309 261 -321
261 -2 0 -21 -24 -41 -52z"/>
<path d="M3879 304 c-18 -19 -48 -44 -65 -54 -26 -17 -32 -29 -43 -87 -7 -37
-21 -88 -32 -112 -10 -24 -18 -46 -16 -48 2 -2 110 -2 240 -1 l237 3 -62 80
c-74 96 -209 255 -218 255 -3 0 -22 -16 -41 -36z"/>
<path d="M2742 92 l-63 -87 221 -3 c121 -1 320 -1 442 0 l222 3 -129 52 c-145
58 -262 85 -472 108 -78 8 -146 15 -150 15 -4 0 -36 -40 -71 -88z"/>
</g>
</svg>
