<?xml version="1.0" standalone="no"?>
<!DOCTYPE svg PUBLIC "-//W3C//DTD SVG 20010904//EN"
 "http://www.w3.org/TR/2001/REC-SVG-20010904/DTD/svg10.dtd">
<svg version="1.0" xmlns="http://www.w3.org/2000/svg"
 width="480.000000pt" height="360.000000pt" viewBox="0 0 480.000000 360.000000"
 preserveAspectRatio="xMidYMid meet">
<metadata>
Created by potrace 1.16, written by Peter Selinger 2001-2019
</metadata>
<rect width="1" height="360" fill="#000000"/>
<rect x="479" width="1" height="360" fill="#000000"/>
<rect width="480" height="1" fill="#000000"/>
<rect y="359" width="480" height="1" fill="#000000"/>
<g transform="translate(0.000000,360.000000) scale(0.100000,-0.100000)"
fill="#000000" stroke="none">
<path d="M0 1800 l0 -1800 2032 0 2033 0 -30 29 c-25 24 -94 69 -214 139 -12
7 -12 11 0 29 12 20 8 32 -39 128 -29 58 -64 117 -76 130 -24 26 -40 60 -50
106 -3 14 -26 56 -51 94 -25 38 -45 76 -45 85 0 42 -119 247 -186 323 -19 20
-34 47 -34 60 0 12 -9 41 -19 64 -16 34 -27 44 -60 54 -45 13 -50 28 -29 85 9
26 8 44 -4 91 -57 206 -58 220 -20 229 42 10 72 32 66 49 -4 8 1 17 10 21 25
10 19 45 -20 107 -35 56 -36 62 -39 161 -1 56 -6 113 -10 127 -8 26 11 1 92
-121 24 -35 43 -61 43 -57 0 3 -11 35 -23 69 -13 35 -24 86 -25 113 0 34 -13
78 -37 135 -63 147 -60 115 -95 980 l-11 256 26 57 25 57 -1605 0 -1605 0 0
-1800z m3152 -226 c25 -69 16 -79 -15 -16 -30 59 -33 76 -15 70 7 -3 21 -27
30 -54z m42 -116 c4 -20 2 -28 -7 -28 -25 0 -36 21 -24 46 12 28 21 22 31 -18z"/>
</g>
</svg>
