<?xml version="1.0" standalone="no"?>
<!DOCTYPE svg PUBLIC "-//W3C//DTD SVG 20010904//EN"
 "http://www.w3.org/TR/2001/REC-SVG-20010904/DTD/svg10.dtd">
<svg version="1.0" xmlns="http://www.w3.org/2000/svg"
 width="480.000000pt" height="360.000000pt" viewBox="0 0 480.000000 360.000000"
 preserveAspectRatio="xMidYMid meet">
<metadata>
Created by potrace 1.16, written by Peter Selinger 2001-2019
</metadata>
<rect width="1" height="360" fill="#000000"/>
<rect x="479" width="1" height="360" fill="#000000"/>
<rect width="480" height="1" fill="#000000"/>
<rect y="359" width="480" height="1" fill="#000000"/>
<g transform="translate(0.000000,360.000000) scale(0.100000,-0.100000)"
fill="#000000" stroke="none">
<path d="M2 3143 l3 -458 155 -23 c118 -18 200 -24 345 -25 l190 -1 158 47
c212 63 282 70 571 64 266 -6 392 -21 674 -83 90 -19 165 -34 166 -32 2 2 19
38 39 80 29 61 45 83 76 103 23 14 45 25 51 25 10 0 40 59 40 79 0 5 -19 12
-42 16 -24 3 -67 13 -96 21 -44 12 -52 18 -47 33 4 13 0 20 -15 24 -25 6 -25
23 0 64 26 44 114 110 225 172 52 29 96 60 99 69 7 21 55 206 66 250 l8 32
-1334 0 -1334 0 2 -457z"/>
<path d="M4356 3574 c30 -29 27 -60 -12 -111 -31 -41 -156 -124 -266 -176 -48
-23 -87 -46 -88 -52 0 -17 87 -222 115 -270 28 -47 20 -64 -9 -20 -20 30 -42
35 -26 5 14 -26 3 -45 -16 -29 -12 9 -14 5 -14 -25 0 -20 -4 -36 -9 -36 -5 0
-15 -17 -22 -37 -17 -54 -19 -56 -35 -36 -13 17 -15 17 -35 -6 -11 -14 -30
-27 -42 -29 -36 -6 -41 -8 -74 -28 -44 -25 -45 -67 -3 -119 17 -21 30 -41 30
-46 0 -11 -50 -49 -66 -49 -27 0 -44 -31 -44 -80 0 -126 -56 -294 -119 -354
l-30 -29 115 -69 c63 -37 184 -113 268 -167 153 -98 153 -98 207 -93 54 4 55
4 162 -72 59 -42 107 -80 107 -85 0 -5 14 -14 31 -22 18 -7 53 -29 80 -48 26
-20 62 -44 79 -54 30 -16 32 -19 28 -71 l-3 -55 62 -55 c33 -31 64 -56 67 -56
3 0 6 540 6 1200 l0 1200 -235 0 -234 0 25 -26z"/>
<path d="M1130 2454 c-142 -22 -187 -35 -348 -105 -193 -84 -284 -102 -521
-103 l-124 -1 -24 -74 c-14 -41 -43 -140 -66 -220 l-42 -146 -3 -902 -3 -903
1315 0 1314 0 25 47 c68 132 69 144 47 673 -13 326 -15 526 -6 803 1 48 0 87
-4 87 -3 0 -12 -22 -19 -50 -7 -27 -15 -50 -18 -50 -2 0 -12 7 -21 16 -24 25
-19 100 18 239 28 109 74 267 85 298 4 9 -12 12 -62 12 -90 0 -156 32 -260
129 -90 82 -99 86 -378 156 -267 68 -514 100 -735 99 -80 -1 -156 -3 -170 -5z"/>
<path d="M3750 1544 c0 -3 20 -53 45 -111 25 -58 45 -107 45 -111 0 -3 -9 3
-20 13 -18 16 -20 17 -20 1 0 -9 9 -49 20 -89 11 -39 23 -102 27 -139 3 -38 9
-68 12 -68 3 0 21 26 39 58 18 31 48 74 67 95 30 34 32 41 24 70 -5 17 -14 64
-19 102 -11 79 -21 91 -121 150 -54 31 -99 45 -99 29z"/>
<path d="M4520 1006 c0 -2 17 -30 38 -62 79 -121 77 -144 -20 -224 -35 -29
-67 -56 -72 -61 -6 -5 44 -9 120 -9 l129 1 38 66 38 67 -48 45 c-138 131 -223
199 -223 177z"/>
<path d="M3859 160 c-74 -78 -135 -145 -137 -151 -2 -5 203 -9 537 -9 365 0
541 3 541 10 0 6 -8 13 -17 17 -62 21 -162 63 -253 106 -130 61 -246 100 -392
133 -62 13 -120 27 -129 30 -12 3 -58 -39 -150 -136z"/>
</g>
</svg>
