<?xml version="1.0" standalone="no"?>
<!DOCTYPE svg PUBLIC "-//W3C//DTD SVG 20010904//EN"
 "http://www.w3.org/TR/2001/REC-SVG-20010904/DTD/svg10.dtd">
<svg version="1.0" xmlns="http://www.w3.org/2000/svg"
 width="480.000000pt" height="360.000000pt" viewBox="0 0 480.000000 360.000000"
 preserveAspectRatio="xMidYMid meet">
<metadata>
Created by potrace 1.16, written by Peter Selinger 2001-2019
</metadata>
<rect width="1" height="360" fill="#000000"/>
<rect x="479" width="1" height="360" fill="#000000"/>
<rect width="480" height="1" fill="#000000"/>
<rect y="359" width="480" height="1" fill="#000000"/>
<g transform="translate(0.000000,360.000000) scale(0.100000,-0.100000)"
fill="#000000" stroke="none">
<path d="M0 1800 l0 -1800 2400 0 2400 0 0 1800 0 1800 -2400 0 -2400 0 0
-1800z m2308 868 c37 -71 62 -95 112 -102 59 -9 96 -36 147 -106 l42 -58 88
-7 c196 -15 343 -75 343 -139 0 -11 12 -37 27 -58 25 -38 26 -41 15 -101 -16
-87 -38 -112 -93 -111 -24 0 -56 4 -71 8 -24 7 -29 4 -47 -32 -54 -105 -116
-144 -224 -141 l-72 2 1 -47 c1 -28 8 -54 18 -65 18 -19 22 -61 6 -61 -5 0
-10 7 -10 16 0 23 -24 11 -28 -13 -3 -20 10 -54 45 -117 13 -25 14 -36 2 -83
-10 -43 -19 -57 -41 -69 -24 -13 -28 -20 -28 -59 0 -32 4 -45 14 -45 27 0 34
-50 11 -74 -11 -11 -13 -21 -6 -38 5 -13 9 -40 9 -59 0 -18 14 -70 30 -114 16
-44 47 -127 68 -184 l38 -104 -21 -14 c-18 -12 -20 -19 -12 -40 13 -34 5 -41
-51 -49 -52 -7 -56 -10 -40 -34 5 -9 5 -19 -2 -27 -6 -7 -7 -26 -3 -45 4 -18
7 -53 8 -78 2 -43 1 -45 -28 -48 -34 -3 -95 30 -95 52 0 8 11 23 25 34 25 20
33 56 15 67 -5 3 -10 15 -10 27 0 16 -4 18 -17 12 -10 -5 -38 -8 -63 -9 -25 0
-51 -4 -57 -8 -23 -15 -14 -57 17 -84 17 -13 30 -31 30 -39 0 -22 -61 -55 -95
-52 l-30 3 3 78 3 77 -36 0 c-20 0 -55 11 -78 24 -23 13 -62 27 -87 30 -32 5
-55 17 -80 41 -20 19 -54 38 -79 45 l-43 11 5 42 c4 29 2 44 -9 52 -13 9 -13
17 5 58 12 27 49 92 85 145 77 118 137 236 171 336 24 72 35 138 15 91 -18
-42 -10 60 10 134 12 40 19 76 16 79 -3 2 2 18 10 34 15 30 13 43 -9 43 -7 0
-11 8 -11 18 1 12 -17 27 -57 48 l-60 30 -34 -27 c-19 -14 -52 -28 -74 -31
-34 -5 -43 -2 -67 23 -14 16 -38 47 -51 68 -25 38 -25 40 -9 89 9 27 16 64 16
81 0 68 88 162 232 248 72 43 71 41 88 138 15 86 32 115 85 148 33 20 42 31
34 39 -7 7 -8 17 -1 29 5 11 8 40 7 67 -1 26 1 47 5 47 3 0 16 -19 28 -42z"/>
<path d="M2980 2108 c-41 -28 -75 -72 -66 -86 10 -17 94 -26 111 -12 7 6 22
32 31 57 15 38 15 46 3 54 -23 14 -44 11 -79 -13z"/>
<path d="M2753 1969 c-60 -10 -145 -41 -192 -70 -30 -18 -32 -22 -19 -36 23
-23 165 -30 204 -10 37 19 81 63 100 99 14 27 14 28 -13 27 -16 -1 -51 -5 -80
-10z"/>
<path d="M1848 1854 c-15 -14 -8 -33 23 -69 21 -23 40 -35 58 -35 28 0 91 34
91 49 0 5 -14 20 -32 32 -32 23 -126 38 -140 23z"/>
<path d="M2160 1833 c-8 -3 -31 -12 -50 -20 l-35 -15 45 -23 c60 -32 80 -32
80 1 0 14 5 34 10 45 9 16 7 19 -12 18 -13 0 -30 -3 -38 -6z"/>
<path d="M2524 1476 c7 -55 10 -61 25 -51 18 10 12 51 -10 76 l-20 24 5 -49z"/>
</g>
</svg>
