<?xml version="1.0" standalone="no"?>
<!DOCTYPE svg PUBLIC "-//W3C//DTD SVG 20010904//EN"
 "http://www.w3.org/TR/2001/REC-SVG-20010904/DTD/svg10.dtd">
<svg version="1.0" xmlns="http://www.w3.org/2000/svg"
 width="480.000000pt" height="360.000000pt" viewBox="0 0 480.000000 360.000000"
 preserveAspectRatio="xMidYMid meet">
<metadata>
Created by potrace 1.16, written by Peter Selinger 2001-2019
</metadata>
<rect width="1" height="360" fill="#000000"/>
<rect x="479" width="1" height="360" fill="#000000"/>
<rect width="480" height="1" fill="#000000"/>
<rect y="359" width="480" height="1" fill="#000000"/>
<g transform="translate(0.000000,360.000000) scale(0.100000,-0.100000)"
fill="#000000" stroke="none">
<path d="M2015 3429 c-147 -10 -187 -21 -429 -113 -194 -74 -313 -86 -602 -60
l-71 7 -32 -88 c-94 -260 -155 -498 -236 -920 -20 -104 -45 -233 -55 -285 -11
-52 -42 -219 -70 -370 -124 -678 -170 -1056 -170 -1407 l0 -193 1493 0 1492 0
24 37 c13 20 53 75 90 122 165 212 211 306 218 446 3 50 -2 250 -11 445 -20
449 -20 588 1 778 16 151 16 153 -3 173 l-21 20 -12 -41 c-14 -47 -17 -47 -25
-6 -7 37 -16 46 -17 15 l0 -24 -10 24 c-5 14 -7 31 -4 39 3 9 0 12 -9 9 -24
-10 -23 58 2 163 31 129 38 152 83 247 22 45 39 86 39 92 0 14 -50 51 -70 51
-10 0 -55 14 -101 31 -95 37 -142 78 -189 166 -17 32 -40 74 -51 93 -56 102
-81 202 -72 282 6 47 5 48 -31 63 -20 9 -112 37 -204 64 -388 113 -692 157
-947 140z"/>
<path d="M4730 337 c0 -27 59 -330 65 -336 3 -2 5 72 5 166 l0 170 -35 10
c-33 10 -35 10 -35 -10z"/>
</g>
</svg>
