<?xml version="1.0" standalone="no"?>
<!DOCTYPE svg PUBLIC "-//W3C//DTD SVG 20010904//EN"
 "http://www.w3.org/TR/2001/REC-SVG-20010904/DTD/svg10.dtd">
<svg version="1.0" xmlns="http://www.w3.org/2000/svg"
 width="480.000000pt" height="360.000000pt" viewBox="0 0 480.000000 360.000000"
 preserveAspectRatio="xMidYMid meet">
<metadata>
Created by potrace 1.16, written by Peter Selinger 2001-2019
</metadata>
<rect width="1" height="360" fill="#000000"/>
<rect x="479" width="1" height="360" fill="#000000"/>
<rect width="480" height="1" fill="#000000"/>
<rect y="359" width="480" height="1" fill="#000000"/>
<g transform="translate(0.000000,360.000000) scale(0.100000,-0.100000)"
fill="#000000" stroke="none">
<path d="M2717 3344 c-3 -3 -3 -27 -1 -53 7 -62 -14 -116 -72 -187 -25 -32
-59 -86 -74 -120 -30 -67 -38 -74 -84 -83 -60 -13 -35 -81 31 -81 40 0 45 -25
11 -57 -36 -33 -138 -83 -169 -83 -30 0 -69 -30 -69 -54 0 -7 3 -28 6 -46 6
-29 10 -31 35 -26 24 5 33 0 61 -35 31 -39 35 -40 82 -37 l50 3 20 -52 c12
-29 25 -53 29 -53 5 0 15 -7 23 -15 9 -8 24 -15 34 -15 10 0 22 -6 27 -12 5
-9 10 -3 14 17 5 24 7 27 14 12 10 -24 -1 -61 -30 -95 -32 -39 -32 -51 3 -58
42 -9 62 -61 62 -161 0 -84 -5 -93 -49 -93 -10 0 -34 -11 -53 -24 -24 -16 -56
-25 -104 -30 -38 -4 -111 -14 -163 -22 -52 -8 -144 -21 -205 -29 -61 -8 -169
-31 -241 -51 -71 -20 -168 -45 -215 -55 -170 -38 -213 -52 -218 -71 -2 -10
-25 -31 -51 -47 -60 -37 -110 -104 -156 -211 -20 -47 -52 -121 -72 -164 -50
-109 -51 -210 -1 -191 8 3 22 20 30 38 18 36 97 143 178 240 l55 66 3 -232 c1
-128 4 -238 7 -246 7 -17 10 -15 270 179 303 226 334 246 402 260 32 6 101 22
153 34 142 35 220 49 226 43 3 -3 -7 -24 -22 -48 -67 -106 -89 -192 -65 -254
4 -11 2 -39 -6 -64 -10 -35 -11 -52 -2 -72 14 -35 -2 -61 -61 -99 -25 -16 -84
-69 -132 -117 l-87 -88 21 -25 20 -25 36 41 c21 22 53 60 73 85 l37 44 11 -27
c5 -15 28 -37 51 -50 33 -19 40 -27 35 -45 -4 -19 -1 -23 18 -23 13 0 36 11
51 25 15 14 29 25 32 25 12 0 -28 -60 -62 -93 -29 -28 -35 -40 -27 -48 19 -19
71 9 104 54 33 46 38 39 10 -15 -17 -30 -22 -70 -31 -259 -5 -123 -13 -257
-16 -296 l-7 -73 522 0 522 0 -7 53 c-3 28 -10 68 -15 87 -15 58 -10 109 15
169 13 31 28 85 34 121 6 36 24 128 40 205 19 88 32 187 36 265 5 112 3 136
-19 223 -41 166 -42 201 -5 277 18 36 45 86 62 113 17 26 28 53 25 60 -7 19
-69 47 -104 47 -16 0 -34 5 -41 12 -19 19 -14 169 12 365 13 98 27 207 31 243
10 87 18 105 55 120 25 10 39 11 61 3 26 -10 30 -9 35 12 9 37 -4 62 -43 82
-20 10 -49 37 -66 60 l-29 41 26 76 c47 136 30 220 -69 352 -91 121 -205 195
-368 240 -124 34 -253 42 -335 20 -35 -9 -66 -16 -68 -16 -2 0 -4 22 -4 48 0
26 -5 53 -12 60 -12 12 -60 16 -71 6z m-114 -2414 c14 -12 -13 -137 -34 -156
-18 -17 -19 -16 -19 33 0 28 -3 71 -6 97 l-7 47 29 -7 c16 -4 33 -10 37 -14z"/>
</g>
</svg>
