<?xml version="1.0" standalone="no"?>
<!DOCTYPE svg PUBLIC "-//W3C//DTD SVG 20010904//EN"
 "http://www.w3.org/TR/2001/REC-SVG-20010904/DTD/svg10.dtd">
<svg version="1.0" xmlns="http://www.w3.org/2000/svg"
 width="480.000000pt" height="360.000000pt" viewBox="0 0 480.000000 360.000000"
 preserveAspectRatio="xMidYMid meet">
<metadata>
Created by potrace 1.16, written by Peter Selinger 2001-2019
</metadata>
<rect width="1" height="360" fill="#000000"/>
<rect x="479" width="1" height="360" fill="#000000"/>
<rect width="480" height="1" fill="#000000"/>
<rect y="359" width="480" height="1" fill="#000000"/>
<g transform="translate(0.000000,360.000000) scale(0.100000,-0.100000)"
fill="#000000" stroke="none">
<path d="M0 3185 c0 -371 2 -415 16 -415 9 0 14 7 12 17 -2 9 9 29 24 45 27
29 30 29 105 25 43 -3 105 -10 137 -16 41 -8 62 -9 70 -1 5 5 22 10 37 10 14
0 37 10 50 23 23 21 31 22 129 17 59 -3 108 -2 111 3 4 5 4 28 1 51 -12 82 -9
101 15 101 13 0 23 3 23 7 1 4 7 26 15 49 8 23 15 54 15 69 0 18 11 38 33 58
31 30 45 44 106 107 16 17 36 36 45 43 9 7 16 24 16 38 0 30 26 55 92 88 47
24 48 24 145 9 54 -8 121 -17 148 -20 28 -3 56 -10 63 -16 7 -6 43 -11 80 -12
125 -4 222 -17 222 -31 0 -16 9 -22 46 -28 16 -3 34 -12 40 -21 6 -8 20 -15
32 -15 11 0 41 -18 67 -39 42 -35 58 -41 132 -52 94 -14 121 -30 138 -80 14
-43 52 -63 90 -49 14 5 37 10 50 10 l24 0 -20 -35 c-29 -49 -21 -120 18 -151
28 -22 28 -23 11 -53 -11 -21 -14 -39 -9 -58 7 -24 13 -28 41 -26 l33 1 -6
-55 c-3 -30 -10 -60 -16 -67 -7 -8 -7 -31 -2 -64 5 -34 4 -53 -3 -55 -6 -2 -1
-16 12 -32 29 -37 28 -60 -9 -140 -29 -60 -31 -73 -26 -133 6 -73 14 -102 28
-102 5 0 28 18 51 40 24 22 46 40 49 40 4 0 18 9 33 21 20 16 24 24 16 34 -8
9 -5 14 10 18 11 3 20 13 20 24 0 10 11 34 24 53 12 19 29 52 35 73 13 39 25
47 34 23 5 -13 -1 -25 -50 -85 -12 -15 -21 -38 -20 -50 1 -20 6 -18 46 24 24
26 41 39 37 28 -4 -10 -8 -22 -9 -28 -1 -5 -21 -30 -44 -54 -24 -24 -43 -50
-43 -58 0 -7 -20 -23 -45 -35 -25 -12 -45 -25 -45 -29 0 -17 18 -17 36 -1 11
9 37 32 59 51 22 19 40 40 40 47 0 6 15 24 33 39 17 15 32 34 32 42 0 13 3 13
15 3 12 -10 15 -10 15 1 0 8 25 38 55 67 31 30 55 63 56 75 1 12 5 33 10 47 9
25 9 25 5 -2 -4 -31 5 -36 24 -14 13 17 40 10 40 -10 0 -21 -20 -17 -20 4 -1
10 -9 2 -21 -21 -11 -21 -17 -41 -15 -46 3 -5 -17 -27 -44 -50 -53 -45 -57
-65 -12 -56 l27 5 -27 -11 c-39 -15 -35 -30 5 -17 17 6 46 13 62 16 l30 6 -35
7 -35 6 40 2 40 1 -1 57 c-1 39 0 44 3 16 6 -63 24 -72 72 -34 22 18 43 41 46
51 5 17 25 29 25 15 0 -33 -119 -135 -160 -135 -8 0 -33 -9 -55 -18 l-39 -18
109 1 c147 2 140 1 165 38 16 23 20 26 15 10 -8 -28 0 -29 65 -3 54 21 106 28
60 8 -51 -23 -87 -37 -152 -59 l-68 -24 -2 -40 c-5 -139 -6 -133 19 -144 18
-8 32 -7 58 4 48 20 44 8 -5 -14 l-39 -17 64 -13 c36 -7 68 -18 72 -24 4 -7 0
-8 -13 -3 -10 4 -42 13 -71 19 -44 9 -57 8 -95 -8 -65 -29 -121 -74 -108 -90
5 -6 6 -16 2 -20 -4 -5 -2 -5 5 -1 7 4 27 -1 45 -10 18 -10 53 -22 77 -29 25
-6 46 -16 48 -22 5 -13 -129 18 -150 35 -22 17 -67 23 -90 11 -12 -7 -38 -28
-57 -48 -19 -20 -60 -50 -90 -68 l-55 -32 40 -1 c39 0 106 19 149 42 19 10 20
10 6 -6 -8 -10 -26 -23 -40 -29 -21 -9 -22 -11 -7 -14 10 -3 41 5 69 17 58 25
89 22 39 -4 l-34 -18 68 -23 68 -23 25 30 c13 16 38 36 56 44 25 13 22 8 -18
-27 -44 -38 -47 -44 -31 -55 12 -9 25 -10 42 -3 16 6 31 6 41 -1 15 -8 14 -9
-5 -10 -12 0 -25 -5 -28 -11 -4 -5 -18 -14 -32 -20 -19 -7 -23 -13 -17 -31 6
-19 5 -21 -8 -11 -8 7 -25 9 -39 6 -29 -8 -79 -43 -79 -56 0 -5 7 -4 15 3 9 7
18 11 21 8 2 -3 -7 -13 -21 -22 -14 -9 -25 -25 -25 -36 0 -21 15 -27 25 -10 3
5 11 10 16 10 18 0 0 -17 -38 -35 -33 -16 -35 -19 -20 -30 16 -12 16 -13 -3
-18 -14 -4 -20 0 -20 11 0 11 -3 13 -8 6 -4 -6 -32 -15 -62 -19 -30 -4 -59
-13 -63 -19 -6 -8 -10 -8 -14 2 -8 21 -23 13 -23 -13 0 -17 6 -25 18 -25 10 0
13 -3 6 -8 -13 -9 -17 -102 -4 -102 6 0 11 10 11 23 1 20 2 20 6 2 3 -11 10
-23 17 -27 8 -6 8 -10 -1 -16 -10 -6 -10 -12 1 -27 13 -18 14 -18 26 6 13 25
30 46 67 81 13 12 23 34 23 49 0 15 5 31 11 35 8 4 10 -6 6 -35 -4 -37 -30
-79 -68 -111 -10 -8 -50 -90 -45 -90 3 0 16 11 29 25 19 21 41 29 113 40 49 8
112 15 140 15 37 0 54 4 58 15 3 8 16 15 29 15 13 0 32 7 43 15 10 8 33 15 51
15 17 0 35 5 38 10 3 5 15 10 25 10 11 0 24 9 30 21 7 12 17 18 26 15 9 -3 24
-1 35 5 16 8 18 13 8 25 -8 10 -8 14 0 14 6 0 11 -4 11 -10 0 -5 7 -10 16 -10
9 0 14 8 13 18 -3 32 1 41 16 36 12 -5 15 4 17 42 3 75 -2 127 -13 140 -7 8
-7 14 0 18 6 4 15 -12 21 -36 6 -24 13 -49 15 -56 7 -19 39 -14 53 8 15 25 33
26 26 3 -4 -13 -3 -15 4 -5 5 8 6 29 0 55 -21 97 -27 134 -27 177 -1 33 2 41
9 30 5 -8 10 -30 10 -49 0 -48 31 -152 43 -148 16 5 55 135 57 187 1 25 5 63
10 85 8 32 9 24 5 -40 -4 -76 -4 -79 10 -47 8 18 17 55 21 82 4 28 11 50 16
50 5 0 7 -8 4 -18 -3 -9 -8 -35 -11 -57 -8 -51 -56 -180 -100 -270 -19 -38
-32 -71 -30 -73 2 -2 18 6 35 18 24 17 28 25 19 31 -8 4 -10 11 -6 15 4 4 15
0 26 -10 16 -15 19 -15 31 -1 7 9 21 13 31 10 13 -4 19 -1 19 9 0 9 12 23 28
33 15 10 31 22 35 28 5 6 6 2 3 -8 -4 -13 -2 -17 6 -13 7 3 21 9 31 12 9 4 17
14 18 23 0 10 2 11 6 3 2 -6 9 -10 14 -6 5 3 9 1 9 -4 0 -6 -7 -13 -16 -16
-10 -4 -13 -13 -9 -25 3 -11 1 -22 -5 -26 -5 -3 -10 -13 -10 -20 0 -12 4 -12
19 2 11 9 18 20 15 25 -3 4 -1 8 5 8 5 0 16 7 25 15 8 9 41 29 73 46 32 17 66
38 76 46 9 9 19 14 22 11 8 -7 -36 -44 -80 -67 -22 -12 -35 -21 -30 -21 6 0
-5 -8 -24 -17 -18 -9 -44 -34 -58 -55 -14 -21 -30 -38 -35 -38 -5 0 -6 -4 -3
-10 3 -5 1 -10 -4 -10 -6 0 -11 -5 -11 -11 0 -5 6 -7 13 -3 9 6 8 3 -1 -8 -7
-9 -28 -20 -45 -24 -36 -8 -89 -43 -81 -55 3 -5 -1 -6 -9 -3 -8 3 -18 0 -23
-7 -5 -8 -3 -10 7 -4 8 5 5 -1 -5 -13 -21 -24 -16 -28 14 -12 13 7 19 6 24 -6
3 -8 2 -12 -4 -9 -6 3 -10 3 -10 -2 0 -4 -18 -16 -39 -27 -39 -18 -99 -72 -90
-80 2 -2 29 5 59 16 81 30 115 34 65 8 -22 -11 -47 -30 -55 -41 -9 -11 -27
-20 -40 -21 -44 -1 -130 -21 -130 -30 0 -5 42 -6 93 -4 l92 6 -95 -14 c-52 -8
-113 -14 -135 -14 -52 0 -143 -24 -231 -60 -38 -16 -94 -35 -124 -42 -66 -15
-111 -34 -165 -70 -22 -15 -70 -47 -107 -71 -60 -39 -67 -47 -68 -77 0 -28
-14 -47 -95 -128 -52 -52 -95 -100 -95 -108 0 -7 -13 -22 -30 -34 -29 -22 -29
-22 -40 -2 -15 27 -35 22 -103 -29 -32 -23 -73 -49 -90 -56 -18 -8 -45 -23
-62 -35 -16 -11 -41 -20 -54 -20 -24 0 -24 0 -18 -89 3 -49 10 -106 16 -127 6
-22 13 -83 17 -136 l6 -98 1324 0 1324 0 0 1800 0 1800 -2400 0 -2400 0 0
-415z m427 200 c-9 -19 -23 -35 -32 -35 -8 0 -15 2 -15 4 0 2 -3 11 -6 20 -8
20 45 71 60 56 7 -7 4 -21 -7 -45z m2083 -530 c-7 -8 -20 -15 -29 -15 -12 0
-10 5 9 20 28 21 39 18 20 -5z m469 -141 c25 -32 28 -74 6 -74 -9 0 -21 11
-27 25 -6 14 -15 25 -20 25 -4 0 -8 11 -8 25 0 33 23 32 49 -1z m-142 -76 c-3
-8 -6 -5 -6 6 -1 11 2 17 5 13 3 -3 4 -12 1 -19z m-127 -168 c0 -5 -4 -10 -10
-10 -5 0 -10 5 -10 10 0 6 5 10 10 10 6 0 10 -4 10 -10z m591 -48 c-13 -2 -27
0 -32 5 -6 6 3 7 23 4 28 -4 29 -6 9 -9z m-851 -152 c0 -5 -4 -10 -10 -10 -5
0 -10 5 -10 10 0 6 5 10 10 10 6 0 10 -4 10 -10z m667 -56 c-3 -3 -12 -4 -19
-1 -8 3 -5 6 6 6 11 1 17 -2 13 -5z m-194 -361 c-7 -2 -19 -2 -25 0 -7 3 -2 5
12 5 14 0 19 -2 13 -5z m111 -232 c14 -15 15 -21 4 -27 -7 -4 -10 -3 -5 1 4 5
0 17 -10 27 -9 10 -14 18 -11 18 3 0 13 -9 22 -19z m891 -20 c-3 -6 10 -8 32
-5 27 3 20 -1 -25 -14 -34 -11 -71 -27 -81 -36 -9 -9 -21 -16 -25 -16 -12 0
16 24 52 45 17 11 32 23 32 27 0 4 5 8 11 8 5 0 8 -4 4 -9z m865 -1 c0 -5 -5
-10 -11 -10 -5 0 -7 5 -4 10 3 6 8 10 11 10 2 0 4 -4 4 -10z m-1395 -61 c-5
-42 -15 -50 -15 -12 0 26 6 43 16 43 2 0 1 -14 -1 -31z m-52 -38 l-6 -25 -9
23 c-9 25 -1 48 13 34 5 -5 6 -19 2 -32z m437 -31 c0 -5 -5 -10 -11 -10 -5 0
-7 5 -4 10 3 6 8 10 11 10 2 0 4 -4 4 -10z m148 -32 c4 -34 -10 -36 -38 -6
-27 30 -25 40 8 36 21 -2 28 -9 30 -30z m-208 -3 c-7 -8 -17 -15 -22 -15 -6 0
-5 7 2 15 7 8 17 15 22 15 6 0 5 -7 -2 -15z m-990 -15 c0 -5 -4 -10 -10 -10
-5 0 -10 5 -10 10 0 6 5 10 10 10 6 0 10 -4 10 -10z m590 -4 c0 -3 -4 -8 -10
-11 -5 -3 -10 -1 -10 4 0 6 5 11 10 11 6 0 10 -2 10 -4z"/>
<path d="M2814 2494 c-18 -14 -18 -15 4 -4 12 6 22 13 22 15 0 8 -5 6 -26 -11z"/>
<path d="M2700 2365 c-11 -13 -8 -13 19 -4 35 12 40 19 12 19 -10 0 -24 -7
-31 -15z"/>
<path d="M2755 2320 c-88 -8 -110 -22 -126 -79 -7 -25 -16 -52 -22 -58 -6 -9
-6 -13 2 -13 26 0 7 -18 -41 -41 -29 -13 -54 -27 -56 -31 -5 -12 -52 -10 -52
2 0 6 5 10 11 10 18 0 95 38 108 54 7 8 10 20 6 25 -3 6 3 19 15 31 21 21 26
40 12 40 -17 0 -54 -49 -47 -61 5 -7 4 -10 -3 -6 -5 4 -29 -8 -51 -27 -23 -19
-50 -38 -61 -41 -23 -7 -26 -21 -7 -28 6 -3 3 -6 -8 -6 -27 -1 -65 -28 -65
-46 0 -14 21 -14 74 0 20 5 27 4 22 -3 -3 -5 -24 -13 -46 -17 -22 -4 -42 -10
-44 -14 -8 -12 25 -53 89 -112 l60 -55 46 15 c25 9 66 28 91 43 40 24 47 34
54 70 4 24 8 57 8 73 -1 17 3 33 8 36 6 4 10 22 11 40 2 35 17 55 28 38 4 -7
8 -5 12 4 4 11 -7 16 -52 21 -32 4 -66 4 -76 0 -12 -5 -16 -3 -13 6 5 15 58
33 58 20 0 -13 73 -21 81 -8 8 13 29 2 29 -16 0 -8 6 -19 14 -25 11 -9 12 -20
4 -51 -11 -42 -6 -70 13 -70 6 0 13 9 16 20 3 11 9 20 13 20 5 0 12 9 15 21 4
11 19 35 34 52 33 38 51 86 51 138 l0 39 -72 -1 c-40 -1 -104 -5 -143 -9z
m116 -166 c10 -12 1 -69 -9 -59 -3 3 -7 38 -7 78 -1 40 0 54 2 32 2 -22 9 -45
14 -51z m-144 -36 c-3 -7 -5 -2 -5 12 0 14 2 19 5 13 2 -7 2 -19 0 -25z m-23
-124 c9 -22 8 -24 -9 -24 -8 0 -15 9 -15 20 0 24 15 27 24 4z"/>
<path d="M2425 2190 c-3 -6 1 -7 9 -4 18 7 21 14 7 14 -6 0 -13 -4 -16 -10z"/>
<path d="M2918 2110 c-9 -17 -15 -30 -13 -30 7 0 45 43 45 52 0 17 -16 6 -32
-22z"/>
<path d="M2965 2119 c-12 -19 5 -23 22 -6 16 16 16 17 1 17 -9 0 -20 -5 -23
-11z"/>
<path d="M2796 2098 c-18 -88 -14 -107 13 -74 8 10 9 16 2 21 -6 3 -8 21 -5
41 6 37 -3 48 -10 12z"/>
<path d="M2341 2047 c-1 -11 -7 -17 -17 -15 -10 2 -19 -3 -21 -9 -3 -7 1 -13
9 -13 24 0 40 17 35 36 -4 17 -5 17 -6 1z"/>
<path d="M2748 2048 c-6 -18 3 -58 13 -58 5 0 9 16 9 35 0 34 -14 48 -22 23z"/>
<path d="M2820 1990 c0 -5 7 -10 16 -10 8 0 12 5 9 10 -3 6 -10 10 -16 10 -5
0 -9 -4 -9 -10z"/>
<path d="M2520 1784 c0 -14 14 -24 48 -37 40 -14 52 -24 65 -54 9 -21 18 -51
19 -67 4 -37 23 -45 33 -14 l7 23 6 -22 7 -22 55 20 c30 10 56 23 58 29 2 5 9
7 16 4 19 -7 36 47 29 89 l-5 34 -142 12 c-77 7 -153 15 -168 18 -23 4 -28 2
-28 -13z"/>
<path d="M2879 1707 c-2 -26 -3 -47 -2 -47 9 0 53 24 53 29 0 3 -11 19 -24 36
l-24 29 -3 -47z"/>
<path d="M2930 1720 c24 -33 22 -32 44 -24 25 10 19 23 -20 39 -48 20 -49 20
-24 -15z"/>
<path d="M3765 1650 c-4 -6 -11 -8 -16 -5 -5 4 -9 -1 -9 -9 0 -9 -5 -16 -12
-16 -6 0 -9 -2 -6 -5 8 -9 69 26 63 36 -8 12 -12 11 -20 -1z"/>
<path d="M3740 1602 c-71 -44 -90 -58 -90 -66 0 -5 6 -4 13 1 6 5 25 15 41 22
26 11 28 10 16 -3 -10 -13 -10 -16 1 -16 21 0 33 12 46 42 15 34 6 41 -27 20z"/>
<path d="M2725 1564 c-32 -13 -65 -30 -73 -38 -11 -11 -7 -14 29 -20 40 -6 44
-5 81 33 57 60 54 62 -37 25z"/>
<path d="M2797 1562 c-36 -38 -36 -55 1 -40 15 7 28 12 29 13 1 0 4 12 8 28 9
35 -4 34 -38 -1z"/>
<path d="M3517 1514 c-22 -14 -36 -28 -34 -31 3 -3 19 4 35 16 17 12 35 21 41
21 6 0 11 5 11 10 0 15 -11 12 -53 -16z"/>
<path d="M3665 1510 c-8 -13 15 -13 35 0 12 8 11 10 -7 10 -12 0 -25 -4 -28
-10z"/>
<path d="M3535 1410 c4 -6 11 -8 16 -5 14 9 11 15 -7 15 -8 0 -12 -5 -9 -10z"/>
<path d="M3498 1393 c7 -3 16 -2 19 1 4 3 -2 6 -13 5 -11 0 -14 -3 -6 -6z"/>
<path d="M2661 1264 c0 -11 3 -14 6 -6 3 7 2 16 -1 19 -3 4 -6 -2 -5 -13z"/>
<path d="M3566 1261 c-4 -5 3 -7 14 -4 23 6 26 13 6 13 -8 0 -17 -4 -20 -9z"/>
<path d="M3138 1254 c-3 -3 -46 -6 -94 -8 -97 -3 -107 -6 -212 -81 -35 -25
-81 -49 -102 -55 -36 -10 -40 -15 -54 -64 -20 -67 -20 -82 -1 -90 17 -6 45 2
45 13 0 4 24 20 53 34 64 31 85 52 62 61 -27 10 -16 23 33 40 26 10 56 21 67
26 11 5 38 14 60 20 89 27 175 76 175 101 0 10 -23 12 -32 3z"/>
<path d="M2677 1234 c-4 -4 -7 -14 -7 -23 0 -11 3 -12 11 -4 6 6 10 16 7 23
-2 6 -7 8 -11 4z"/>
<path d="M2803 1231 c-18 -3 -43 -15 -55 -26 -13 -11 -32 -22 -42 -25 -11 -3
-22 -12 -24 -19 -6 -19 61 -6 109 21 32 18 70 60 52 57 -5 -1 -23 -4 -40 -8z"/>
<path d="M205 389 c-46 -23 -68 -28 -95 -24 -19 3 -52 8 -73 11 l-37 6 0 -191
0 -191 134 0 134 0 -25 53 c-50 100 -42 175 29 279 21 32 41 64 44 73 10 25
-44 17 -111 -16z"/>
<path d="M1745 388 c-10 -6 -30 -24 -43 -40 -27 -32 -74 -38 -109 -13 -14 10
-32 13 -48 9 -27 -7 -85 12 -85 28 0 6 -13 7 -32 2 -18 -3 -76 -8 -128 -9
-116 -3 -287 -23 -314 -37 -11 -6 -39 -10 -63 -10 -31 1 -43 -3 -43 -13 0 -7
5 -17 10 -20 6 -3 10 -17 10 -30 0 -13 5 -27 10 -30 16 -10 11 -25 -8 -25 -38
0 -43 -42 -16 -124 l26 -76 384 0 384 0 0 35 c0 27 5 38 23 46 13 6 30 27 39
47 17 42 42 252 31 263 -5 4 -17 3 -28 -3z"/>
</g>
</svg>
