<?xml version="1.0" standalone="no"?>
<!DOCTYPE svg PUBLIC "-//W3C//DTD SVG 20010904//EN"
 "http://www.w3.org/TR/2001/REC-SVG-20010904/DTD/svg10.dtd">
<svg version="1.0" xmlns="http://www.w3.org/2000/svg"
 width="480.000000pt" height="360.000000pt" viewBox="0 0 480.000000 360.000000"
 preserveAspectRatio="xMidYMid meet">
<metadata>
Created by potrace 1.16, written by Peter Selinger 2001-2019
</metadata>
<rect width="1" height="360" fill="#000000"/>
<rect x="479" width="1" height="360" fill="#000000"/>
<rect width="480" height="1" fill="#000000"/>
<rect y="359" width="480" height="1" fill="#000000"/>
<g transform="translate(0.000000,360.000000) scale(0.100000,-0.100000)"
fill="#000000" stroke="none">
<path d="M2700 3230 c-13 -9 -11 -13 10 -30 14 -11 28 -20 32 -20 8 0 52 -70
47 -74 -2 -2 -27 -11 -55 -20 -143 -47 -212 -133 -229 -287 -6 -53 -7 -56 -31
-51 -34 6 -30 -11 11 -57 19 -21 35 -45 35 -53 0 -26 -59 -105 -114 -152 -38
-32 -66 -47 -96 -52 -49 -8 -57 -21 -35 -63 17 -33 42 -39 75 -19 15 10 22 9
38 -5 27 -25 44 -21 82 18 19 19 38 35 42 35 5 0 5 -26 2 -57 -6 -52 -5 -56 8
-39 14 18 15 17 27 -11 7 -16 26 -45 44 -64 l31 -34 6 30 c5 26 7 27 12 10 21
-66 40 -288 36 -423 -3 -126 -7 -153 -25 -188 -16 -30 -19 -44 -11 -52 19 -19
-9 -65 -69 -112 -120 -96 -223 -228 -223 -286 0 -28 8 -39 60 -79 33 -25 60
-48 60 -51 0 -3 -10 -23 -21 -46 -41 -79 -69 -168 -149 -470 -81 -302 -81
-303 -69 -366 6 -34 12 -85 12 -112 l1 -50 52 0 c48 0 52 2 64 30 7 16 19 30
27 30 21 0 63 -31 63 -46 0 -12 97 -14 613 -14 l613 0 17 68 c9 37 17 87 17
112 0 25 9 64 20 87 10 24 37 113 60 199 l40 157 -14 181 c-11 131 -31 260
-72 471 l-56 290 12 260 c7 143 11 307 8 365 l-5 105 31 20 c34 22 48 65 22
65 -60 0 -116 152 -115 315 0 100 -14 150 -62 220 -30 44 -87 100 -134 132
-76 52 -346 109 -471 100 -70 -5 -72 -5 -94 25 -38 52 -140 84 -180 58z"/>
</g>
</svg>
