<?xml version="1.0" standalone="no"?>
<!DOCTYPE svg PUBLIC "-//W3C//DTD SVG 20010904//EN"
 "http://www.w3.org/TR/2001/REC-SVG-20010904/DTD/svg10.dtd">
<svg version="1.0" xmlns="http://www.w3.org/2000/svg"
 width="480.000000pt" height="360.000000pt" viewBox="0 0 480.000000 360.000000"
 preserveAspectRatio="xMidYMid meet">
<metadata>
Created by potrace 1.16, written by Peter Selinger 2001-2019
</metadata>
<rect width="1" height="360" fill="#000000"/>
<rect x="479" width="1" height="360" fill="#000000"/>
<rect width="480" height="1" fill="#000000"/>
<rect y="359" width="480" height="1" fill="#000000"/>
<g transform="translate(0.000000,360.000000) scale(0.100000,-0.100000)"
fill="#000000" stroke="none">
<path d="M2730 3593 c0 -5 9 -21 20 -38 11 -16 20 -38 20 -47 0 -9 9 -38 21
-65 28 -65 46 -135 54 -213 4 -36 11 -78 15 -95 16 -52 19 -85 26 -239 7 -174
-14 -420 -42 -483 -9 -21 -18 -44 -20 -51 -1 -7 -10 -49 -19 -94 -11 -57 -25
-93 -44 -117 -33 -41 -71 -122 -71 -148 0 -10 -11 -35 -25 -55 -14 -20 -25
-40 -25 -43 0 -4 -16 -23 -35 -42 -19 -19 -35 -39 -35 -44 0 -5 -11 -27 -25
-49 -14 -22 -25 -49 -25 -60 0 -11 -6 -20 -12 -20 -7 -1 -22 -15 -33 -33 -12
-19 -33 -36 -52 -41 -23 -7 -34 -18 -40 -40 -5 -17 -18 -35 -28 -41 -11 -6
-36 -26 -56 -45 -19 -19 -48 -44 -62 -55 -15 -11 -34 -32 -42 -47 -10 -18 -29
-31 -53 -37 -21 -6 -53 -28 -75 -50 -31 -32 -243 -151 -270 -151 -4 0 -16 -9
-27 -20 -11 -11 -27 -20 -35 -20 -9 0 -26 -7 -38 -15 -12 -8 -51 -21 -87 -30
-36 -9 -81 -21 -100 -26 -19 -5 -78 -16 -130 -24 -52 -8 -124 -20 -160 -27
-132 -26 -460 -4 -630 42 -99 27 -271 85 -315 107 -124 60 -215 109 -232 124
-10 9 -24 19 -30 23 -10 6 -13 -125 -13 -638 l0 -646 2349 0 c2272 0 2350 1
2355 18 4 11 0 34 -8 53 -13 31 -12 47 5 148 23 136 41 206 74 295 l25 66 0
883 0 884 -25 23 c-28 26 -32 72 -15 145 9 40 9 40 -46 89 -110 97 -106 137
16 144 l70 4 0 424 0 424 -1035 0 c-569 0 -1035 -3 -1035 -7z"/>
</g>
</svg>
