<?xml version="1.0" standalone="no"?>
<!DOCTYPE svg PUBLIC "-//W3C//DTD SVG 20010904//EN"
 "http://www.w3.org/TR/2001/REC-SVG-20010904/DTD/svg10.dtd">
<svg version="1.0" xmlns="http://www.w3.org/2000/svg"
 width="480.000000pt" height="360.000000pt" viewBox="0 0 480.000000 360.000000"
 preserveAspectRatio="xMidYMid meet">
<metadata>
Created by potrace 1.16, written by Peter Selinger 2001-2019
</metadata>
<rect width="1" height="360" fill="#000000"/>
<rect x="479" width="1" height="360" fill="#000000"/>
<rect width="480" height="1" fill="#000000"/>
<rect y="359" width="480" height="1" fill="#000000"/>
<g transform="translate(0.000000,360.000000) scale(0.100000,-0.100000)"
fill="#000000" stroke="none">
<path d="M0 2115 c0 -1580 -2 -1515 44 -1470 20 20 33 19 48 -5 9 -14 24 -20
50 -20 46 0 57 -24 32 -72 -18 -36 -118 -161 -153 -192 -20 -18 -21 -28 -21
-188 l0 -168 768 0 767 0 -3 43 c-3 31 1 47 13 57 15 12 19 12 30 -4 8 -10 17
-35 20 -57 l7 -39 1599 0 1599 0 0 799 0 798 -45 -10 c-25 -6 -47 -8 -50 -5
-7 7 72 88 85 88 6 0 10 354 10 965 l0 965 -1960 0 -1960 0 0 -25 c0 -14 -6
-28 -14 -31 -15 -6 -101 30 -111 46 -4 6 -141 10 -381 10 l-374 0 0 -1485z
m840 1247 c0 -12 -47 -32 -73 -31 -17 0 -13 5 18 19 46 21 55 23 55 12z m260
-77 c-14 -17 -73 -30 -96 -21 -9 4 -14 9 -11 12 8 8 65 22 96 23 20 1 21 -1
11 -14z m1155 -85 c9 -14 -49 -37 -117 -45 -106 -13 -55 29 54 45 29 4 54 8
55 9 1 0 5 -4 8 -9z m1585 -53 c0 -13 -15 -40 -32 -61 -31 -35 -35 -37 -65
-26 -18 7 -33 16 -33 21 0 16 69 77 92 82 13 2 26 5 31 6 4 0 7 -10 7 -22z
m-1539 -388 c73 -32 65 -49 -24 -51 -36 -1 -63 5 -85 17 -33 20 -33 31 2 45
33 14 54 12 107 -11z m-1096 1 c4 -6 -15 -10 -50 -10 -35 0 -54 4 -50 10 3 6
26 10 50 10 24 0 47 -4 50 -10z m-912 -230 c33 -37 40 -110 9 -110 -36 0 -102
89 -102 137 0 25 61 8 93 -27z m3907 -395 c7 -9 3 -15 -15 -23 -41 -19 -73 6
-44 35 12 12 44 6 59 -12z m-1830 -314 c0 -26 -34 -66 -48 -57 -16 10 -15 63
1 69 27 12 47 7 47 -12z m-185 -137 c19 -9 39 -13 44 -10 13 8 36 -67 28 -88
-8 -21 -107 -22 -146 -1 -49 25 -91 117 -59 127 19 7 95 -9 133 -28z m-2109
-10 c12 -18 14 -28 6 -36 -15 -15 -62 16 -62 42 0 29 36 25 56 -6z m3379 -166
c-27 -51 -59 -109 -71 -129 -13 -21 -39 -68 -59 -105 l-37 -69 6 58 c8 74 36
155 76 217 33 51 118 136 127 126 3 -3 -16 -47 -42 -98z m-2835 1 c11 -26 10
-36 -3 -65 -18 -37 -37 -43 -61 -18 -23 23 -19 61 9 89 31 32 40 31 55 -6z
m2017 -189 c-8 -38 -88 -160 -105 -160 -8 0 -16 9 -19 20 -3 11 -12 20 -19 20
-39 0 11 76 63 96 23 9 50 25 59 35 23 26 27 24 21 -11z m-333 -41 c42 0 47
-2 28 -10 -36 -14 -155 -23 -198 -14 -37 6 -38 7 -19 22 15 11 35 13 79 9 32
-3 82 -6 110 -7z m-350 -17 c13 -22 -63 -136 -80 -119 -12 12 7 75 31 101 25
27 40 32 49 18z m-598 -117 c34 -34 28 -61 -11 -57 -29 3 -85 51 -85 72 0 6
16 10 35 10 25 0 44 -8 61 -25z m1828 -102 c31 -63 49 -126 33 -120 -25 8 -66
73 -68 107 -4 75 2 77 35 13z m-1780 -101 c16 -10 31 -23 34 -30 4 -14 -88 19
-122 44 -20 15 -19 16 19 9 22 -3 53 -14 69 -23z m366 -207 c0 -11 -66 -45
-87 -45 -29 0 -29 14 -1 34 21 15 88 23 88 11z m2494 -27 c53 -26 95 -60 95
-77 1 -10 -9 -12 -46 -6 -57 8 -74 17 -131 63 -30 25 -39 38 -30 43 17 11 65
1 112 -23z m-2044 -58 c12 -8 12 -10 -3 -16 -21 -8 -84 3 -92 16 -8 13 75 13
95 0z m918 -69 c2 -27 -3 -60 -14 -83 -16 -36 -34 -50 -34 -28 0 6 -12 15 -26
20 -23 9 -26 15 -20 41 7 38 56 99 76 96 10 -2 16 -16 18 -46z m-466 17 c-15
-15 -132 -24 -132 -10 0 10 19 13 120 20 18 2 21 -1 12 -10z m1337 -283 c31
-16 105 -101 94 -108 -51 -29 -121 -11 -180 46 -43 41 -54 71 -30 81 18 8 85
-3 116 -19z m-3406 -72 c3 -10 8 -36 12 -58 6 -37 5 -39 -10 -24 -19 19 -33
99 -17 99 6 0 13 -8 15 -17z m742 -48 c14 -13 25 -30 25 -37 0 -18 -118 -118
-139 -118 -22 0 -112 30 -128 43 -16 12 -17 37 -2 37 6 0 32 23 59 50 47 48
50 50 105 50 46 0 60 -4 80 -25z m3160 -39 c28 -12 56 -30 63 -39 12 -13 7
-18 -35 -37 -76 -35 -131 -37 -197 -7 -31 14 -56 32 -56 40 0 22 89 65 135 66
22 0 62 -9 90 -23z m-2497 -48 c-3 -47 -6 -53 -27 -56 -50 -7 -111 27 -111 63
0 22 49 44 98 45 l43 0 -3 -52z"/>
</g>
</svg>
