<?xml version="1.0" standalone="no"?>
<!DOCTYPE svg PUBLIC "-//W3C//DTD SVG 20010904//EN"
 "http://www.w3.org/TR/2001/REC-SVG-20010904/DTD/svg10.dtd">
<svg version="1.0" xmlns="http://www.w3.org/2000/svg"
 width="480.000000pt" height="360.000000pt" viewBox="0 0 480.000000 360.000000"
 preserveAspectRatio="xMidYMid meet">
<metadata>
Created by potrace 1.16, written by Peter Selinger 2001-2019
</metadata>
<rect width="1" height="360" fill="#000000"/>
<rect x="479" width="1" height="360" fill="#000000"/>
<rect width="480" height="1" fill="#000000"/>
<rect y="359" width="480" height="1" fill="#000000"/>
<g transform="translate(0.000000,360.000000) scale(0.100000,-0.100000)"
fill="#000000" stroke="none">
<path d="M0 1800 l0 -1800 862 2 863 3 9 42 c7 37 5 52 -18 102 -36 81 -35
142 5 217 28 53 29 62 20 101 -12 47 -3 84 30 119 19 20 19 20 -11 49 -17 16
-30 39 -30 53 0 13 -5 33 -11 44 -8 15 -8 26 1 43 11 20 9 28 -9 53 -25 36
-26 40 -5 63 9 10 20 39 25 65 11 59 24 76 55 68 23 -6 24 -4 24 51 0 69 12
93 54 110 29 12 34 20 40 61 3 26 6 116 6 200 l0 153 27 13 c23 11 30 27 53
113 26 99 49 154 77 187 9 10 13 27 10 40 -3 13 -29 210 -57 438 -40 317 -50
434 -46 495 5 83 38 209 58 221 15 9 77 -60 105 -117 24 -47 22 -27 58 -669 8
-146 17 -274 20 -285 2 -11 14 -24 27 -30 30 -13 37 -45 9 -45 -32 0 -35 -19
-7 -41 14 -11 26 -31 26 -43 0 -12 7 -31 15 -42 13 -17 14 87 15 874 l0 892
-1150 0 -1150 0 0 -1800z"/>
<path d="M2281 1765 c-8 -27 -20 -57 -28 -66 -11 -13 -11 -38 -1 -144 l11
-128 -28 -25 c-22 -18 -36 -23 -61 -19 -29 5 -32 3 -38 -25 -8 -38 -8 -78 0
-78 3 0 23 14 44 31 33 27 45 31 75 26 24 -4 38 -2 41 6 2 7 3 116 2 242 -3
217 -4 227 -17 180z"/>
<path d="M2299 1319 c0 -2 -3 -300 -6 -662 l-6 -657 213 0 212 0 -26 31 c-25
29 -26 35 -26 162 0 117 -3 138 -23 182 -21 44 -22 55 -13 90 8 26 14 36 19
28 18 -29 25 -10 12 28 -14 39 -14 41 5 46 26 7 25 17 -2 35 l-22 15 19 43
c27 59 53 90 76 90 18 0 18 3 -6 50 -26 51 -26 70 1 70 16 0 19 16 5 25 -5 3
-18 27 -27 53 -10 26 -26 54 -36 62 -10 8 -22 40 -28 70 -14 76 -38 96 -132
105 l-73 7 -67 66 c-38 36 -68 63 -69 61z m250 -949 c6 0 11 8 11 17 0 16 2
15 20 -2 10 -11 26 -37 35 -59 l16 -39 -23 7 c-13 4 -45 11 -72 16 -27 6 -50
11 -52 13 -1 1 5 19 14 41 13 34 17 37 27 22 7 -9 17 -16 24 -16z"/>
<path d="M1751 329 c-23 -40 -29 -88 -16 -128 7 -23 25 -29 26 -8 0 6 6 47 13
90 7 43 10 80 6 82 -4 2 -17 -14 -29 -36z"/>
<path d="M1791 255 c-6 -42 -11 -85 -11 -97 0 -19 25 -47 43 -48 4 0 7 44 7
99 0 71 -4 102 -14 110 -11 9 -15 -2 -25 -64z"/>
<path d="M1851 187 c-1 -60 3 -98 9 -102 16 -10 17 -8 24 76 6 65 5 78 -12 99
l-19 23 -2 -96z"/>
<path d="M1756 48 c-11 -42 -7 -48 29 -48 41 0 46 17 12 48 -29 27 -33 27 -41
0z"/>
</g>
</svg>
