<?xml version="1.0" standalone="no"?>
<!DOCTYPE svg PUBLIC "-//W3C//DTD SVG 20010904//EN"
 "http://www.w3.org/TR/2001/REC-SVG-20010904/DTD/svg10.dtd">
<svg version="1.0" xmlns="http://www.w3.org/2000/svg"
 width="480.000000pt" height="360.000000pt" viewBox="0 0 480.000000 360.000000"
 preserveAspectRatio="xMidYMid meet">
<metadata>
Created by potrace 1.16, written by Peter Selinger 2001-2019
</metadata>
<rect width="1" height="360" fill="#000000"/>
<rect x="479" width="1" height="360" fill="#000000"/>
<rect width="480" height="1" fill="#000000"/>
<rect y="359" width="480" height="1" fill="#000000"/>
<g transform="translate(0.000000,360.000000) scale(0.100000,-0.100000)"
fill="#000000" stroke="none">
<path d="M0 2696 c0 -895 0 -904 20 -909 12 -3 20 -14 20 -27 0 -13 -8 -24
-20 -27 -20 -5 -20 -14 -20 -535 l0 -530 34 21 c18 12 73 37 122 57 227 91
399 212 539 381 l52 63 -9 57 c-5 32 -12 72 -14 89 -4 27 -10 33 -38 38 -18 4
-46 2 -60 -4 -37 -14 -101 2 -201 49 -64 31 -96 55 -162 122 l-82 84 -32 125
c-29 113 -31 135 -26 225 33 595 585 1018 1179 905 104 -20 126 -28 210 -77
117 -70 131 -82 181 -168 75 -128 108 -315 68 -382 -12 -19 -22 -60 -27 -105
-9 -102 -34 -156 -100 -212 -30 -26 -54 -54 -54 -61 0 -8 -11 -38 -24 -67 -22
-50 -55 -90 -101 -122 -19 -14 -19 -14 0 -49 27 -51 10 -105 -48 -146 -122
-88 -114 -83 -138 -70 -13 6 -31 21 -40 32 -16 20 -16 20 -23 -7 -5 -20 -2
-34 9 -45 8 -10 15 -29 15 -43 0 -14 11 -50 24 -79 15 -32 30 -93 37 -150 12
-99 13 -91 -23 -547 -8 -104 -8 -152 0 -180 12 -41 14 -103 7 -205 -3 -37 -6
-96 -8 -132 l-3 -65 1768 0 1768 0 0 1800 0 1800 -1470 0 -1470 0 0 -29 c0
-28 -33 -81 -51 -81 -17 0 -9 57 12 84 l20 26 -920 0 -921 0 0 -904z m3600
729 c-16 -19 -70 -19 -96 0 -17 13 -13 14 45 15 55 0 62 -2 51 -15z m-985 -55
c-3 -5 -14 -10 -24 -10 -9 0 -22 -5 -29 -12 -6 -6 -15 -8 -19 -4 -5 4 1 14 11
22 22 16 70 19 61 4z m210 -294 l30 -13 -32 -16 c-20 -11 -56 -17 -98 -17 -57
0 -66 2 -63 17 7 35 108 53 163 29z m-940 -246 c0 -8 -10 -16 -22 -18 -22 -3
-32 16 -16 32 12 11 38 2 38 -14z m1459 -85 c7 -18 -14 -55 -30 -55 -25 0 -34
26 -18 48 18 26 39 29 48 7z m-1300 -904 c6 -9 -36 -32 -81 -46 -17 -5 -23 -2
-23 9 0 29 90 61 104 37z m666 -176 c15 -18 6 -45 -14 -45 -18 0 -35 29 -29
48 6 16 28 15 43 -3z m994 -77 c12 -47 5 -82 -26 -130 l-32 -50 -18 22 c-39
49 -36 96 11 148 35 38 56 41 65 10z m-564 -47 c0 -12 -39 -25 -48 -16 -7 7
17 25 36 25 6 0 12 -4 12 -9z m-20 -61 c0 -14 -49 -32 -63 -23 -9 5 17 19 61
32 1 1 2 -4 2 -9z m-190 -149 c0 -34 -22 -72 -35 -59 -11 10 -8 67 4 82 22 26
31 19 31 -23z m168 -142 c2 -23 2 -23 -13 -5 -18 24 -20 39 -2 34 6 -3 13 -15
15 -29z m-2718 -8 c0 -19 -32 -41 -60 -41 -33 0 -46 13 -27 28 23 19 87 28 87
13z m3040 -24 c0 -14 -83 -87 -99 -87 -12 0 -14 29 -3 46 4 6 24 23 46 38 38
25 56 26 56 3z m1080 -206 c0 -13 -50 -51 -66 -51 -22 0 -16 27 8 44 25 18 58
21 58 7z m-1668 -86 c23 -22 57 -110 47 -119 -2 -2 -19 3 -38 12 -38 18 -106
105 -96 122 12 19 62 11 87 -15z m-92 -205 c-8 -5 -26 -9 -40 -9 l-25 1 25 8
c14 4 32 8 40 9 13 1 13 0 0 -9z m-1192 -240 c-4 -61 -54 -190 -73 -190 -19 0
-40 50 -40 94 0 42 36 111 87 166 21 22 23 23 26 5 3 -10 2 -44 0 -75z m3047
-34 c17 -56 20 -115 6 -100 -9 8 -51 161 -51 181 1 19 32 -36 45 -81z m-392
30 c9 -7 17 -17 17 -21 0 -27 -81 -47 -95 -24 -8 12 32 59 49 59 6 0 19 -7 29
-14z m-1093 -20 c0 -24 -40 -64 -76 -76 -19 -7 -38 -10 -40 -7 -11 11 30 59
65 77 44 23 51 24 51 6z m-630 -125 c0 -14 -40 -60 -62 -72 -24 -13 -19 -1 22
49 25 31 40 40 40 23z m-777 -154 c-14 -25 -83 -79 -83 -67 0 7 16 28 36 46
36 34 62 45 47 21z"/>
<path d="M0 616 c0 -22 3 -27 11 -19 8 8 8 16 0 30 -9 16 -10 14 -11 -11z"/>
<path d="M0 236 l0 -236 431 0 432 0 -7 77 c-4 43 -12 81 -18 84 -6 4 -37 7
-69 6 -50 0 -66 5 -126 41 -90 54 -148 61 -263 33 -62 -16 -92 -19 -114 -12
-17 5 -49 12 -71 16 -122 20 -133 29 -143 132 -6 53 -11 69 -29 81 l-23 14 0
-236z"/>
<path d="M1033 197 c-27 -14 -33 -34 -33 -124 l0 -73 71 0 71 0 -7 77 c-10
129 -12 133 -48 132 -18 -1 -42 -6 -54 -12z"/>
</g>
</svg>
