<?xml version="1.0" standalone="no"?>
<!DOCTYPE svg PUBLIC "-//W3C//DTD SVG 20010904//EN"
 "http://www.w3.org/TR/2001/REC-SVG-20010904/DTD/svg10.dtd">
<svg version="1.0" xmlns="http://www.w3.org/2000/svg"
 width="480.000000pt" height="360.000000pt" viewBox="0 0 480.000000 360.000000"
 preserveAspectRatio="xMidYMid meet">
<metadata>
Created by potrace 1.16, written by Peter Selinger 2001-2019
</metadata>
<rect width="1" height="360" fill="#000000"/>
<rect x="479" width="1" height="360" fill="#000000"/>
<rect width="480" height="1" fill="#000000"/>
<rect y="359" width="480" height="1" fill="#000000"/>
<g transform="translate(0.000000,360.000000) scale(0.100000,-0.100000)"
fill="#000000" stroke="none">
<path d="M0 3294 l0 -306 23 6 c12 3 61 6 110 6 l87 0 0 43 c0 88 22 222 42
255 25 40 46 41 100 2 22 -16 48 -30 58 -30 23 0 75 -54 131 -137 27 -40 59
-78 71 -84 13 -7 115 -15 262 -20 133 -5 340 -15 461 -23 159 -11 232 -13 258
-5 33 9 44 7 84 -15 48 -27 78 -33 88 -16 10 16 41 11 60 -10 17 -19 44 -34
138 -74 46 -19 67 -62 67 -135 0 -49 17 -81 43 -81 7 0 27 -9 45 -20 42 -26
36 -35 -64 -90 -41 -22 -74 -44 -74 -49 0 -5 32 -21 72 -37 80 -33 104 -57 75
-79 -21 -15 -159 -49 -270 -66 l-79 -12 6 -31 c3 -17 9 -76 12 -131 6 -87 4
-108 -15 -160 -12 -33 -27 -82 -32 -110 -6 -27 -22 -68 -36 -92 -13 -23 -22
-50 -19 -60 2 -10 7 -130 11 -266 3 -136 8 -254 11 -260 2 -7 19 -21 37 -30
51 -28 143 -118 170 -167 51 -93 96 -264 97 -368 0 -84 -20 -129 -89 -197 -25
-23 -41 -48 -41 -62 0 -13 -9 -49 -20 -81 -29 -80 -50 -187 -50 -249 l0 -53
1485 0 1485 0 0 1800 0 1800 -2400 0 -2400 0 0 -306z"/>
<path d="M0 2725 c0 -36 3 -65 7 -65 14 0 102 66 103 76 0 10 -86 54 -104 54
-3 0 -6 -29 -6 -65z"/>
<path d="M0 1770 c0 -481 3 -610 13 -610 30 1 173 42 201 58 l31 18 -3 265
c-5 373 13 618 57 794 5 22 7 43 3 46 -9 8 -225 39 -269 39 l-33 0 0 -610z"/>
<path d="M80 360 c-14 -4 -37 -11 -52 -14 l-28 -6 0 -170 0 -170 99 0 98 0 7
37 c3 21 9 92 12 158 6 113 5 121 -16 148 -23 29 -66 35 -120 17z"/>
</g>
</svg>
