<?xml version="1.0" standalone="no"?>
<!DOCTYPE svg PUBLIC "-//W3C//DTD SVG 20010904//EN"
 "http://www.w3.org/TR/2001/REC-SVG-20010904/DTD/svg10.dtd">
<svg version="1.0" xmlns="http://www.w3.org/2000/svg"
 width="480.000000pt" height="360.000000pt" viewBox="0 0 480.000000 360.000000"
 preserveAspectRatio="xMidYMid meet">
<metadata>
Created by potrace 1.16, written by Peter Selinger 2001-2019
</metadata>
<rect width="1" height="360" fill="#000000"/>
<rect x="479" width="1" height="360" fill="#000000"/>
<rect width="480" height="1" fill="#000000"/>
<rect y="359" width="480" height="1" fill="#000000"/>
<g transform="translate(0.000000,360.000000) scale(0.100000,-0.100000)"
fill="#000000" stroke="none">
<path d="M3144 3574 c8 -14 20 -30 29 -37 8 -7 22 -35 31 -64 10 -28 25 -62
35 -75 10 -13 26 -45 35 -72 9 -27 23 -58 31 -69 8 -12 15 -29 15 -39 0 -10 9
-37 19 -60 25 -56 51 -148 51 -179 0 -14 6 -49 14 -79 27 -102 44 -344 35
-480 -14 -191 -36 -351 -52 -363 -15 -12 -22 -39 -33 -130 -4 -26 -11 -50 -15
-53 -5 -3 -9 -21 -9 -40 0 -21 -4 -33 -10 -29 -5 3 -13 -12 -16 -35 -4 -23
-13 -44 -20 -47 -8 -3 -14 -11 -14 -19 0 -8 -5 -14 -12 -14 -6 0 -9 -3 -6 -6
8 -7 -18 -71 -44 -107 -11 -15 -17 -34 -15 -42 3 -7 -1 -19 -9 -25 -8 -7 -14
-9 -14 -6 0 4 -9 2 -21 -5 -14 -7 -19 -17 -16 -30 3 -12 -8 -35 -34 -66 -21
-26 -39 -53 -39 -60 0 -7 -6 -13 -14 -13 -8 0 -18 -12 -24 -27 -5 -16 -48 -68
-96 -116 -47 -48 -86 -90 -86 -93 0 -10 -44 -43 -57 -44 -7 0 -23 -14 -35 -31
-13 -17 -33 -35 -46 -40 -12 -5 -32 -24 -43 -43 -14 -24 -29 -36 -52 -40 -21
-4 -51 -24 -82 -56 -27 -28 -56 -50 -64 -50 -7 0 -51 -22 -97 -50 -46 -27 -88
-50 -94 -50 -6 0 -21 -6 -33 -14 -12 -8 -60 -26 -107 -41 -47 -15 -98 -33
-115 -40 -35 -15 -181 -45 -210 -43 -19 1 -88 -11 -202 -34 -67 -14 -349 -3
-455 17 -43 8 -111 21 -150 29 -40 8 -100 23 -133 34 -33 11 -96 32 -140 46
-44 14 -105 38 -135 55 -30 16 -91 47 -135 70 -44 23 -107 62 -140 86 -33 25
-73 53 -89 63 -16 9 -49 34 -75 56 -25 21 -57 47 -71 58 -14 12 -37 32 -52 46
l-28 26 0 -552 0 -552 2400 0 2400 0 0 1800 0 1800 -834 0 -835 0 13 -26z"/>
</g>
</svg>
