<?xml version="1.0" standalone="no"?>
<!DOCTYPE svg PUBLIC "-//W3C//DTD SVG 20010904//EN"
 "http://www.w3.org/TR/2001/REC-SVG-20010904/DTD/svg10.dtd">
<svg version="1.0" xmlns="http://www.w3.org/2000/svg"
 width="480.000000pt" height="360.000000pt" viewBox="0 0 480.000000 360.000000"
 preserveAspectRatio="xMidYMid meet">
<metadata>
Created by potrace 1.16, written by Peter Selinger 2001-2019
</metadata>
<rect width="1" height="360" fill="#000000"/>
<rect x="479" width="1" height="360" fill="#000000"/>
<rect width="480" height="1" fill="#000000"/>
<rect y="359" width="480" height="1" fill="#000000"/>
<g transform="translate(0.000000,360.000000) scale(0.100000,-0.100000)"
fill="#000000" stroke="none">
<path d="M0 1800 l0 -1800 89 0 89 0 12 33 c6 17 24 68 40 112 l27 81 -28 33
c-24 29 -26 37 -16 58 9 19 8 26 -4 34 -12 8 -11 12 6 22 39 23 93 88 99 119
10 51 7 143 -6 156 -9 9 -9 12 0 12 8 0 10 13 6 44 l-7 45 39 3 c38 3 39 4 50
53 14 64 49 160 75 204 25 42 18 66 -16 57 -29 -7 -33 9 -14 62 9 26 33 45
120 98 121 73 195 105 281 124 62 14 66 24 16 35 -24 6 -35 3 -45 -11 -12 -17
-13 -17 -13 0 0 16 -5 17 -37 10 -21 -4 -67 -8 -103 -9 -37 -1 -85 -10 -110
-20 -60 -24 -83 -17 -158 50 l-61 56 -33 -17 c-18 -9 -57 -35 -86 -56 -30 -22
-56 -37 -59 -34 -22 22 49 113 96 122 36 7 81 69 165 224 54 100 127 291 142
373 5 29 3 37 -8 37 -26 0 -238 109 -238 122 0 6 11 24 25 38 25 26 25 28 10
63 -40 97 -5 136 95 106 33 -10 43 -8 96 19 39 19 57 34 54 43 -3 8 -5 57 -4
109 1 78 6 109 28 170 44 120 94 199 170 275 118 117 215 155 392 155 57 0
137 -5 179 -11 l76 -10 72 67 c68 63 163 134 179 134 13 0 53 -90 87 -191 30
-92 33 -96 74 -116 109 -53 232 -207 282 -353 26 -77 29 -99 30 -230 2 -146
15 -229 41 -251 8 -6 14 -21 14 -33 0 -11 10 -49 22 -82 21 -59 21 -63 5 -88
-23 -35 -53 -33 -72 4 -17 34 -27 37 -45 15 -16 -20 16 -410 36 -440 16 -23
18 -39 4 -30 -6 4 -10 -9 -10 -32 0 -61 20 -284 31 -337 5 -27 8 -51 5 -53 -2
-2 -15 15 -29 39 -14 24 -37 54 -51 67 -24 23 -28 23 -71 11 -49 -14 -69 -30
-36 -30 22 0 89 -73 98 -108 4 -16 -1 -30 -17 -47 l-23 -24 33 -68 c18 -37 44
-114 59 -171 l26 -103 31 6 c62 11 80 -16 48 -77 -8 -16 -17 -40 -18 -52 -2
-11 -9 -33 -16 -48 -20 -42 -5 -75 47 -109 65 -40 71 -55 39 -88 -17 -18 -26
-38 -26 -61 0 -18 -7 -42 -16 -52 -16 -16 -15 -24 9 -111 44 -158 35 -147 120
-147 l73 0 93 568 c51 312 95 573 97 580 2 6 13 12 24 12 34 0 195 -38 255
-61 l57 -21 -7 -37 c-7 -41 -10 -53 -145 -615 -55 -230 -100 -420 -100 -422 0
-2 464 -4 1030 -4 l1030 0 0 1800 0 1800 -2400 0 -2400 0 0 -1800z m2808 1514
c-5 -25 -47 -38 -55 -18 -7 18 12 34 40 34 12 0 17 -6 15 -16z m-381 -429 c-4
-8 -11 -15 -17 -15 -14 0 -13 27 3 33 16 6 21 1 14 -18z m2111 -653 c6 -19
-58 -15 -65 4 -9 23 18 36 41 20 11 -7 22 -18 24 -24z m-1858 -552 c0 -5 -4
-10 -10 -10 -5 0 -10 5 -10 10 0 6 5 10 10 10 6 0 10 -4 10 -10z m1411 -290
c30 -17 22 -45 -21 -74 -22 -14 -42 -26 -45 -26 -12 0 -4 67 11 88 17 25 27
27 55 12z m-1661 -326 c0 -8 -4 -12 -10 -9 -5 3 -10 10 -10 16 0 5 5 9 10 9 6
0 10 -7 10 -16z"/>
</g>
</svg>
