<?xml version="1.0" standalone="no"?>
<!DOCTYPE svg PUBLIC "-//W3C//DTD SVG 20010904//EN"
 "http://www.w3.org/TR/2001/REC-SVG-20010904/DTD/svg10.dtd">
<svg version="1.0" xmlns="http://www.w3.org/2000/svg"
 width="480.000000pt" height="360.000000pt" viewBox="0 0 480.000000 360.000000"
 preserveAspectRatio="xMidYMid meet">
<metadata>
Created by potrace 1.16, written by Peter Selinger 2001-2019
</metadata>
<rect width="1" height="360" fill="#000000"/>
<rect x="479" width="1" height="360" fill="#000000"/>
<rect width="480" height="1" fill="#000000"/>
<rect y="359" width="480" height="1" fill="#000000"/>
<g transform="translate(0.000000,360.000000) scale(0.100000,-0.100000)"
fill="#000000" stroke="none">
<path d="M0 2610 l0 -991 23 12 c97 52 250 172 383 301 99 95 111 100 172 69
20 -10 98 -43 172 -74 74 -30 210 -93 301 -140 102 -52 189 -90 225 -97 78
-16 209 -8 310 19 l82 23 67 -21 c104 -32 103 -33 164 70 65 108 119 158 209
194 37 15 72 31 78 36 16 13 6 49 -12 42 -10 -4 -14 3 -14 24 0 17 -6 45 -12
64 -13 34 -13 34 -18 -36 -6 -75 -10 -73 -34 17 -11 38 -21 56 -29 52 -8 -3
-17 12 -25 42 -10 35 -16 45 -28 40 -11 -4 -19 3 -27 24 -14 37 -24 38 -39 3
-12 -28 -12 -28 -16 14 l-3 43 -29 -15 c-43 -22 -44 -20 -5 37 19 29 35 61 35
70 0 21 1 21 -39 7 -25 -9 -36 -8 -56 5 -13 9 -30 13 -38 10 -8 -3 -27 5 -42
18 l-27 23 50 40 c27 22 66 63 87 90 36 48 37 52 30 105 -25 181 4 315 86 398
68 69 185 106 299 94 73 -7 118 -7 221 3 96 9 164 -3 240 -41 54 -27 123 -101
139 -150 13 -39 20 -42 38 -14 15 25 42 25 92 0 52 -26 155 -123 170 -159 7
-17 22 -37 35 -45 49 -32 58 -203 15 -303 l-20 -48 37 -95 c36 -93 36 -97 35
-225 -2 -118 -5 -135 -29 -187 -25 -54 -43 -73 -43 -47 0 8 -5 7 -16 -2 -13
-11 -17 -11 -24 1 -5 8 -16 24 -24 35 -14 18 -15 18 -16 3 0 -36 -16 -13 -79
110 l-63 127 -8 145 c-11 193 -22 250 -50 250 -4 0 -19 -26 -33 -57 -30 -69
-27 -116 9 -140 30 -19 31 -33 3 -33 -18 0 -20 -4 -15 -26 6 -23 4 -25 -15
-19 -19 6 -21 4 -16 -14 7 -28 -1 -27 -33 4 -42 40 -55 15 -55 -106 0 -99 -6
-119 -21 -76 -5 16 -9 1 -13 -53 -7 -76 -10 -73 -24 20 -3 14 -5 0 -7 -30 l-2
-55 -14 50 c-7 28 -16 76 -20 108 -4 31 -11 57 -16 57 -5 0 -36 -27 -69 -59
-45 -45 -59 -66 -59 -88 0 -26 7 -33 53 -53 215 -96 249 -124 317 -257 19 -37
39 -71 44 -74 4 -4 29 0 55 8 52 16 88 14 181 -12 48 -13 87 -16 155 -12 116
6 138 14 275 93 111 64 452 234 469 234 5 0 33 -28 64 -62 172 -196 334 -318
560 -422 l97 -45 0 1069 0 1070 -2400 0 -2400 0 0 -990z"/>
<path d="M2200 2092 c0 -66 5 -76 31 -61 16 8 18 17 13 52 -13 85 -44 91 -44
9z"/>
<path d="M474 1852 c-30 -31 -54 -60 -54 -64 0 -4 21 -24 48 -45 92 -74 97
-88 76 -207 -9 -50 -22 -124 -29 -164 -14 -86 -24 -101 -56 -78 -31 21 -169
290 -169 328 0 30 -1 30 -23 14 -49 -37 -168 -115 -180 -119 -7 -2 7 -23 36
-52 26 -27 50 -60 54 -73 7 -31 -71 -372 -86 -372 -22 2 -56 32 -71 66 -18 38
-18 29 -19 -523 l-1 -563 625 0 625 0 0 41 c0 23 7 68 16 102 18 69 79 147
183 232 34 28 70 64 81 80 10 17 50 108 89 203 39 96 94 219 122 275 41 81 54
120 65 192 7 49 11 91 9 93 -2 3 -35 -25 -73 -62 -38 -36 -72 -66 -75 -66 -15
0 -4 53 47 228 29 100 60 190 69 200 21 24 22 68 1 76 -9 3 -53 9 -99 12 l-84
7 -6 -26 c-4 -14 -4 -30 -1 -36 3 -5 -2 -41 -11 -81 l-17 -71 -91 -77 c-49
-42 -99 -86 -111 -97 -49 -48 -157 -135 -166 -135 -26 0 1 101 62 235 96 213
106 230 156 258 l49 28 -103 -4 c-57 -3 -106 -7 -109 -10 -2 -3 5 -27 16 -52
12 -26 21 -54 21 -61 0 -8 -16 -54 -36 -102 -20 -48 -46 -114 -59 -147 -12
-33 -32 -80 -44 -103 l-22 -43 -24 30 c-15 17 -25 42 -25 60 0 17 -4 50 -10
73 -5 24 -16 88 -24 143 -16 115 -11 134 48 199 20 22 36 41 36 42 0 1 -31 23
-69 48 -64 43 -181 102 -181 91 0 -2 11 -21 25 -41 14 -20 25 -46 25 -58 0
-29 -65 -345 -73 -352 -14 -14 -48 22 -77 83 -64 135 -110 244 -110 264 0 24
25 75 51 102 26 28 24 36 -13 49 -18 6 -66 29 -107 50 l-74 38 -53 -58z"/>
<path d="M4045 1871 c-6 -5 -43 -26 -83 -46 -65 -32 -73 -39 -67 -58 4 -12 9
-47 12 -77 6 -71 -9 -90 -119 -156 -114 -67 -147 -84 -153 -74 -2 4 9 61 24
126 16 65 28 120 26 122 -8 8 -125 -80 -125 -94 0 -9 11 -29 25 -46 57 -68 43
-104 -97 -252 -21 -21 -38 -43 -38 -48 0 -16 -47 -8 -91 15 -24 13 -81 43
-126 67 -51 27 -86 53 -93 68 -19 43 -24 110 -9 128 39 48 -119 57 -185 11
-17 -12 -33 -23 -34 -24 -2 -1 10 -14 26 -30 26 -24 33 -44 52 -133 11 -58 30
-151 42 -208 12 -56 18 -106 14 -110 -5 -4 -28 16 -52 43 -24 28 -44 46 -44
40 0 -46 33 -222 46 -248 28 -52 133 -467 201 -792 l19 -90 792 -3 792 -2 0
579 0 579 -37 7 c-21 5 -47 10 -58 12 -11 2 -53 10 -92 19 -69 15 -89 27 -60
37 11 4 -27 9 -168 23 -97 10 -94 17 30 94 39 23 83 52 99 63 15 10 46 22 68
24 l39 6 -58 33 c-65 38 -91 42 -99 17 -16 -56 -58 -122 -82 -131 -32 -12
-269 -33 -289 -25 -7 3 -13 8 -13 12 0 3 42 50 93 104 87 94 94 99 140 104
l48 6 -38 31 c-21 17 -60 51 -87 76 -45 41 -49 43 -43 19 9 -34 -19 -115 -45
-133 -30 -21 -277 -100 -285 -92 -4 4 2 24 13 44 12 20 40 73 63 117 50 96 68
113 132 121 81 11 85 20 37 82 -42 54 -48 58 -63 43z"/>
<path d="M3303 1573 c15 -10 41 -45 57 -78 27 -55 29 -57 24 -23 -4 24 -1 48
10 69 9 18 16 35 16 39 0 4 -30 8 -67 9 l-68 1 28 -17z"/>
<path d="M4748 1363 c-17 -21 -30 -53 -21 -53 4 0 22 5 40 12 35 13 45 41 17
52 -21 8 -19 9 -36 -11z"/>
<path d="M1971 932 c-27 -89 -122 -273 -281 -542 -14 -25 -39 -76 -55 -113
-21 -50 -41 -78 -72 -104 -44 -36 -52 -58 -32 -94 9 -17 17 -19 50 -14 23 4
39 3 39 -3 0 -9 -40 -40 -70 -54 -8 -4 31 -7 87 -7 l102 -1 21 58 c12 31 37
113 56 182 48 171 77 255 136 389 35 80 47 116 38 121 -8 5 -9 22 -1 66 17
101 23 182 14 187 -5 3 -19 -29 -32 -71z"/>
<path d="M2775 795 c3 -97 5 -104 53 -205 52 -110 83 -199 127 -365 36 -138
45 -147 45 -50 0 88 -3 98 -120 385 -34 85 -73 196 -85 245 l-23 90 3 -100z"/>
<path d="M1301 44 c0 -11 3 -14 6 -6 3 7 2 16 -1 19 -3 4 -6 -2 -5 -13z"/>
</g>
</svg>
