<?xml version="1.0" standalone="no"?>
<!DOCTYPE svg PUBLIC "-//W3C//DTD SVG 20010904//EN"
 "http://www.w3.org/TR/2001/REC-SVG-20010904/DTD/svg10.dtd">
<svg version="1.0" xmlns="http://www.w3.org/2000/svg"
 width="480.000000pt" height="360.000000pt" viewBox="0 0 480.000000 360.000000"
 preserveAspectRatio="xMidYMid meet">
<metadata>
Created by potrace 1.16, written by Peter Selinger 2001-2019
</metadata>
<rect width="1" height="360" fill="#000000"/>
<rect x="479" width="1" height="360" fill="#000000"/>
<rect width="480" height="1" fill="#000000"/>
<rect y="359" width="480" height="1" fill="#000000"/>
<g transform="translate(0.000000,360.000000) scale(0.100000,-0.100000)"
fill="#000000" stroke="none">
<path d="M1313 2830 c-36 -67 -40 -98 -32 -255 1 -16 -3 -55 -9 -85 -9 -51 -8
-58 15 -98 24 -41 43 -47 43 -15 0 12 3 13 13 4 8 -6 16 -8 20 -5 6 7 57 -25
57 -36 0 -4 -16 -18 -35 -31 -34 -24 -47 -60 -25 -74 19 -12 10 -34 -18 -49
-28 -14 -65 -58 -118 -139 -50 -78 -40 -160 25 -206 28 -20 29 -24 25 -84 -5
-76 -16 -118 -43 -156 -12 -16 -21 -33 -21 -39 0 -5 -7 -15 -16 -23 -10 -8
-13 -21 -9 -36 3 -14 -6 -53 -24 -100 -17 -42 -28 -80 -25 -84 2 -4 -5 -13
-16 -19 -11 -6 -20 -21 -20 -33 0 -12 -7 -32 -15 -44 -18 -26 -10 -53 17 -53
16 0 19 -5 15 -23 -6 -26 -10 -53 -38 -282 -11 -93 -26 -210 -34 -260 -8 -49
-19 -171 -25 -270 -10 -183 -17 -259 -26 -307 l-6 -28 486 0 c267 0 486 2 486
4 0 3 -15 92 -34 198 -19 106 -46 281 -60 388 -30 226 -100 508 -169 679 -25
61 -25 62 -4 55 18 -6 15 1 -16 39 l-38 46 47 93 47 93 -8 100 c-11 133 -9
173 6 191 10 12 9 17 -5 27 -16 12 -16 16 -2 57 9 25 16 57 16 71 0 33 -58
197 -77 221 -11 12 -11 18 -3 23 7 4 9 18 6 31 -5 17 -3 22 8 18 9 -3 18 6 26
28 15 42 25 21 11 -26 -11 -42 0 -47 23 -11 9 13 25 29 37 35 18 10 19 10 10
-7 -5 -11 -6 -25 -2 -32 6 -9 13 -6 29 13 24 31 29 32 34 9 6 -27 37 75 39
127 3 63 -9 106 -42 160 -16 26 -29 59 -29 72 0 34 -132 161 -185 178 -24 8
-65 11 -112 7 -41 -3 -75 -1 -79 4 -3 5 -23 8 -45 7 -38 -3 -42 -6 -76 -68z"/>
<path d="M3280 2151 c-79 -22 -169 -66 -192 -95 -25 -30 -23 -72 4 -90 26 -19
29 -16 -52 -54 -116 -55 -179 -139 -180 -239 0 -94 72 -149 232 -177 44 -8 81
-16 84 -18 2 -3 1 -19 -2 -37 -5 -24 -29 -51 -98 -110 -50 -44 -108 -97 -128
-119 l-38 -40 -50 19 c-90 34 -126 22 -152 -52 -6 -19 -23 -49 -37 -68 -16
-22 -22 -36 -14 -38 8 -3 9 -13 2 -36 -11 -39 -11 -56 0 -39 4 7 6 -10 4 -40
-4 -49 -3 -54 21 -65 24 -10 26 -9 26 15 0 25 1 25 15 6 14 -18 14 -17 15 13
0 24 4 31 14 27 11 -4 13 0 9 17 l-6 23 28 -22 c38 -30 78 -28 144 9 70 40
111 77 111 101 0 10 6 33 13 51 15 35 134 187 146 187 5 0 5 -18 1 -40 -5 -28
-3 -45 7 -60 8 -11 26 -57 40 -102 25 -79 25 -85 12 -139 -10 -37 -12 -61 -5
-71 6 -11 4 -26 -6 -49 -30 -64 -58 -162 -93 -328 -19 -91 -42 -191 -51 -221
-21 -73 -22 -111 -4 -121 39 -22 89 -38 134 -43 56 -7 61 -12 70 -67 l6 -39
155 0 154 0 7 46 c7 51 13 55 106 74 78 15 82 23 52 99 -14 35 -32 96 -39 135
-8 39 -28 145 -46 236 -17 91 -38 184 -46 208 -11 34 -12 47 -2 58 9 11 7 29
-9 82 -11 37 -23 84 -26 105 l-5 39 40 -46 c41 -46 68 -58 219 -95 25 -6 67
-17 93 -26 47 -14 48 -14 57 10 13 33 33 31 63 -5 28 -32 43 -39 33 -15 -8 23
9 18 28 -8 l17 -22 -5 30 -4 30 18 -23 c21 -25 30 -28 30 -8 0 8 6 16 13 19
12 4 11 9 -19 82 -7 18 -6 18 9 6 26 -21 20 3 -8 33 -19 20 -21 26 -8 26 14 0
14 2 -2 20 -10 11 -27 20 -37 20 -40 0 -106 39 -116 69 -10 28 -12 28 -54 20
-23 -4 -61 -14 -83 -22 -22 -8 -63 -18 -90 -21 l-50 -7 -32 63 c-18 35 -64
102 -102 149 -55 70 -68 92 -64 113 3 14 10 23 15 19 7 -3 9 5 6 24 -4 28 0
32 61 64 127 66 190 157 160 233 -39 99 -124 157 -260 180 -66 11 -74 15 -86
42 -6 16 -12 43 -13 61 0 22 -8 38 -26 52 -31 25 -48 25 -134 2z"/>
<path d="M2630 1021 c0 -5 -3 -18 -6 -28 -5 -16 -4 -16 10 1 18 23 20 36 6 36
-5 0 -10 -4 -10 -9z"/>
</g>
</svg>
