<?xml version="1.0" standalone="no"?>
<!DOCTYPE svg PUBLIC "-//W3C//DTD SVG 20010904//EN"
 "http://www.w3.org/TR/2001/REC-SVG-20010904/DTD/svg10.dtd">
<svg version="1.0" xmlns="http://www.w3.org/2000/svg"
 width="480.000000pt" height="360.000000pt" viewBox="0 0 480.000000 360.000000"
 preserveAspectRatio="xMidYMid meet">
<metadata>
Created by potrace 1.16, written by Peter Selinger 2001-2019
</metadata>
<rect width="1" height="360" fill="#000000"/>
<rect x="479" width="1" height="360" fill="#000000"/>
<rect width="480" height="1" fill="#000000"/>
<rect y="359" width="480" height="1" fill="#000000"/>
<g transform="translate(0.000000,360.000000) scale(0.100000,-0.100000)"
fill="#000000" stroke="none">
<path d="M0 2650 l0 -950 43 0 c23 0 233 23 467 50 534 64 711 78 1030 87 364
9 599 -12 865 -78 188 -46 274 -54 405 -40 131 14 268 45 440 100 201 64 241
72 302 63 l53 -9 -53 -8 c-79 -12 -77 -28 3 -23 72 3 86 -5 45 -27 -23 -13
-23 -14 -4 -15 13 0 47 27 90 70 47 48 80 73 104 79 19 5 79 19 132 31 86 19
99 25 111 48 12 25 17 27 78 28 57 0 71 4 98 27 46 38 70 42 211 29 69 -7 182
-15 253 -18 l127 -7 0 756 0 757 -2400 0 -2400 0 0 -950z"/>
<path d="M3511 1745 c-32 -8 -40 -13 -28 -18 24 -9 75 3 81 19 6 16 7 16 -53
-1z"/>
<path d="M3560 1625 c-10 -12 -4 -25 11 -25 5 0 13 8 18 18 8 14 6 19 -5 19
-8 0 -19 -6 -24 -12z"/>
<path d="M4482 1570 c-34 -4 -65 -9 -68 -12 -3 -3 16 -14 41 -24 64 -24 138
-103 183 -194 36 -73 37 -77 37 -191 -1 -111 -2 -118 -35 -185 -60 -123 -189
-231 -302 -254 -77 -15 -215 24 -270 78 -36 33 -37 74 -3 107 29 30 35 30 145
7 118 -24 164 -22 234 12 47 23 65 40 97 89 37 56 39 65 39 136 0 58 -6 88
-24 126 -26 57 -79 108 -128 124 -51 16 -192 31 -295 31 l-93 0 -20 -40 c-12
-23 -27 -43 -34 -46 -7 -3 -42 13 -78 36 -53 33 -84 44 -169 60 -120 23 -386
39 -376 23 4 -6 28 -16 54 -22 68 -16 123 -42 123 -57 0 -15 -59 -28 -98 -21
-15 2 -49 1 -77 -2 l-50 -7 65 -22 c119 -39 160 -57 165 -71 5 -11 -9 -13 -80
-7 -50 4 -85 3 -85 -2 0 -8 51 -30 108 -47 31 -9 28 -25 -5 -21 -31 3 -50 9
-198 60 -283 96 -454 136 -587 136 -76 0 -317 -32 -338 -45 -15 -9 -206 -35
-330 -44 -308 -24 -846 18 -1425 109 -183 29 -590 90 -600 90 -3 0 -5 -333 -5
-740 l0 -740 2400 0 2400 0 0 790 0 790 -127 -1 c-71 -1 -156 -5 -191 -9z"/>
</g>
</svg>
