<?xml version="1.0" standalone="no"?>
<!DOCTYPE svg PUBLIC "-//W3C//DTD SVG 20010904//EN"
 "http://www.w3.org/TR/2001/REC-SVG-20010904/DTD/svg10.dtd">
<svg version="1.0" xmlns="http://www.w3.org/2000/svg"
 width="480.000000pt" height="360.000000pt" viewBox="0 0 480.000000 360.000000"
 preserveAspectRatio="xMidYMid meet">
<metadata>
Created by potrace 1.16, written by Peter Selinger 2001-2019
</metadata>
<rect width="1" height="360" fill="#000000"/>
<rect x="479" width="1" height="360" fill="#000000"/>
<rect width="480" height="1" fill="#000000"/>
<rect y="359" width="480" height="1" fill="#000000"/>
<g transform="translate(0.000000,360.000000) scale(0.100000,-0.100000)"
fill="#000000" stroke="none">
<path d="M0 1800 l0 -1800 2400 0 2400 0 0 1800 0 1800 -2400 0 -2400 0 0
-1800z m1977 858 c6 -5 15 -27 18 -50 11 -65 73 -186 109 -210 17 -12 52 -41
78 -65 52 -47 109 -76 203 -103 56 -16 60 -19 63 -49 3 -24 -7 -47 -38 -93
l-41 -62 43 -37 c40 -35 42 -39 26 -54 -15 -16 -17 -16 -39 9 -29 33 -40 33
-71 -2 -14 -16 -45 -38 -69 -50 -52 -25 -139 -39 -139 -24 0 6 -22 35 -50 64
-27 29 -50 61 -50 72 0 40 -70 164 -113 201 -73 63 -161 100 -240 101 -78 2
-101 16 -99 63 1 45 28 93 68 121 19 14 43 41 53 60 20 36 54 72 106 107 26
19 40 21 100 16 39 -3 75 -10 82 -15z"/>
</g>
</svg>
