<?xml version="1.0" standalone="no"?>
<!DOCTYPE svg PUBLIC "-//W3C//DTD SVG 20010904//EN"
 "http://www.w3.org/TR/2001/REC-SVG-20010904/DTD/svg10.dtd">
<svg version="1.0" xmlns="http://www.w3.org/2000/svg"
 width="480.000000pt" height="360.000000pt" viewBox="0 0 480.000000 360.000000"
 preserveAspectRatio="xMidYMid meet">
<metadata>
Created by potrace 1.16, written by Peter Selinger 2001-2019
</metadata>
<rect width="1" height="360" fill="#000000"/>
<rect x="479" width="1" height="360" fill="#000000"/>
<rect width="480" height="1" fill="#000000"/>
<rect y="359" width="480" height="1" fill="#000000"/>
<g transform="translate(0.000000,360.000000) scale(0.100000,-0.100000)"
fill="#000000" stroke="none">
<path d="M0 1800 l0 -1800 1905 0 1905 0 -21 53 c-16 38 -22 77 -23 147 -2 85
-4 95 -22 98 -10 2 -28 12 -39 22 -19 17 -31 22 -87 34 -22 5 -28 3 -28 -10 0
-11 -5 -14 -17 -9 -10 4 -36 9 -58 12 -48 7 -102 37 -110 62 -3 11 -14 21 -24
24 -26 6 -63 114 -62 182 0 48 -3 57 -24 71 -30 19 -47 74 -35 113 7 25 5 30
-16 39 -32 15 -56 67 -58 126 l-1 51 77 10 c70 9 80 13 110 46 48 54 154 139
207 167 114 60 104 47 117 142 5 30 9 60 9 66 1 19 38 94 47 94 4 0 8 7 8 15
0 8 5 15 10 15 16 0 12 18 -14 58 -14 20 -29 64 -35 96 -6 32 -27 104 -47 160
-19 56 -43 125 -51 154 -16 52 -17 54 -46 48 -16 -3 -47 -1 -68 6 -33 9 -45 8
-79 -7 -40 -18 -41 -18 -70 3 -29 22 -30 22 -62 4 -68 -38 -170 -72 -213 -72
-38 0 -45 -3 -50 -23 -4 -13 1 -45 10 -71 12 -35 14 -51 6 -59 -11 -11 -115
-16 -125 -6 -3 3 0 22 6 43 9 28 9 45 0 70 -19 53 -15 123 8 146 l21 21 -36
34 c-42 39 -55 27 -36 -34 22 -74 6 -93 -39 -46 -20 22 -25 23 -32 10 -13 -22
-27 -18 -34 9 -4 15 -11 23 -19 19 -21 -8 -30 44 -16 96 13 53 47 88 142 144
69 40 119 48 155 22 12 -8 35 -43 52 -78 17 -36 36 -68 42 -72 15 -9 101 43
107 65 3 9 22 27 44 39 21 12 39 29 39 36 0 29 23 64 50 75 15 6 64 17 109 24
45 8 86 17 91 22 4 5 4 54 -1 108 -7 88 -12 105 -41 148 l-33 49 -47 -6 c-25
-3 -49 -1 -52 4 -4 5 -26 2 -53 -9 -33 -12 -78 -18 -142 -18 l-93 -1 5 28 c5
25 3 28 -13 24 -13 -4 -20 0 -20 10 0 8 -11 18 -25 21 -15 4 -25 14 -25 24 0
34 99 110 205 157 57 25 65 35 41 54 -8 6 -16 20 -19 31 -4 17 0 17 69 -8 l73
-25 51 47 c28 26 69 55 91 65 37 17 44 26 75 102 40 98 85 187 125 247 l28 42
-1889 0 -1890 0 0 -1800z"/>
<path d="M4307 3571 c-4 -20 -16 -33 -41 -45 -19 -9 -37 -20 -40 -24 -5 -9 89
-301 101 -313 8 -7 77 -19 323 -54 58 -9 115 -18 128 -20 l22 -5 0 245 0 245
-244 0 -243 0 -6 -29z"/>
<path d="M4732 2562 c-7 -15 -8 -28 -4 -30 5 -1 18 -9 28 -17 17 -13 12 -14
-53 -15 -61 0 -71 -2 -67 -15 5 -13 2 -14 -19 -6 -55 21 -50 -26 8 -68 66 -47
66 -59 1 -22 -53 31 -58 32 -80 17 -22 -14 -27 -14 -55 0 -35 18 -51 12 -51
-19 0 -46 -15 -46 -39 -1 -30 55 -46 45 -25 -16 23 -67 16 -300 -9 -328 -16
-17 -17 -24 -6 -44 23 -45 30 -50 48 -35 9 8 43 29 76 47 33 18 67 38 75 45 8
7 56 29 105 49 50 21 100 42 113 48 22 11 22 13 22 225 l0 213 -27 0 c-21 0
-31 -7 -41 -28z"/>
<path d="M3350 744 c0 -23 1 -24 16 -10 8 9 12 20 9 26 -12 19 -25 10 -25 -16z"/>
<path d="M4305 544 c-3 -13 -7 -35 -10 -48 -7 -32 -50 -82 -95 -111 -39 -25
-46 -42 -119 -312 l-20 -73 234 0 234 0 -23 34 c-16 24 -26 61 -35 128 -7 51
-14 104 -16 118 -4 32 -40 166 -55 206 -6 17 -28 42 -50 57 l-40 26 -5 -25z"/>
</g>
</svg>
