<?xml version="1.0" standalone="no"?>
<!DOCTYPE svg PUBLIC "-//W3C//DTD SVG 20010904//EN"
 "http://www.w3.org/TR/2001/REC-SVG-20010904/DTD/svg10.dtd">
<svg version="1.0" xmlns="http://www.w3.org/2000/svg"
 width="480.000000pt" height="360.000000pt" viewBox="0 0 480.000000 360.000000"
 preserveAspectRatio="xMidYMid meet">
<metadata>
Created by potrace 1.16, written by Peter Selinger 2001-2019
</metadata>
<rect width="1" height="360" fill="#000000"/>
<rect x="479" width="1" height="360" fill="#000000"/>
<rect width="480" height="1" fill="#000000"/>
<rect y="359" width="480" height="1" fill="#000000"/>
<g transform="translate(0.000000,360.000000) scale(0.100000,-0.100000)"
fill="#000000" stroke="none">
<path d="M0 1800 l0 -1800 1065 0 1065 0 0 103 c0 204 -16 321 -64 477 -60
199 -71 276 -52 369 8 40 31 104 51 142 20 39 33 78 30 87 -4 14 8 44 63 155
2 4 -6 7 -17 7 -32 0 -25 13 24 49 59 42 89 100 81 155 -6 39 -4 43 46 93 29
29 63 61 75 70 18 15 24 35 33 103 15 126 14 137 -12 136 -18 -1 -28 10 -44
43 -12 24 -28 48 -38 53 -9 5 -16 17 -16 26 0 9 -8 22 -19 29 -10 6 -21 27
-25 46 -4 23 -14 38 -31 45 -39 18 -41 39 -7 70 36 33 51 78 32 95 -10 9 -11
7 -6 -10 8 -26 -7 -38 -24 -18 -14 17 -40 20 -40 5 0 -21 -20 -9 -21 13 0 20
-1 21 -8 2 -7 -18 -9 -18 -25 8 -10 14 -24 46 -31 69 -10 31 -14 36 -14 18 -2
-50 -23 -2 -28 64 -3 36 -9 66 -13 66 -3 0 -14 -15 -23 -32 -25 -52 -21 -7 8
79 49 145 112 258 181 327 120 118 454 202 644 162 126 -27 183 -61 300 -184
116 -121 127 -142 176 -343 41 -168 47 -282 40 -689 -6 -337 -4 -398 15 -595
13 -141 24 -354 29 -595 5 -206 12 -448 16 -537 l7 -163 689 0 688 0 0 1800 0
1800 -2400 0 -2400 0 0 -1800z"/>
</g>
</svg>
