<?xml version="1.0" standalone="no"?>
<!DOCTYPE svg PUBLIC "-//W3C//DTD SVG 20010904//EN"
 "http://www.w3.org/TR/2001/REC-SVG-20010904/DTD/svg10.dtd">
<svg version="1.0" xmlns="http://www.w3.org/2000/svg"
 width="480.000000pt" height="360.000000pt" viewBox="0 0 480.000000 360.000000"
 preserveAspectRatio="xMidYMid meet">
<metadata>
Created by potrace 1.16, written by Peter Selinger 2001-2019
</metadata>
<rect width="1" height="360" fill="#000000"/>
<rect x="479" width="1" height="360" fill="#000000"/>
<rect width="480" height="1" fill="#000000"/>
<rect y="359" width="480" height="1" fill="#000000"/>
<g transform="translate(0.000000,360.000000) scale(0.100000,-0.100000)"
fill="#000000" stroke="none">
<path d="M920 1800 l0 -1800 1940 0 1940 0 0 1800 0 1800 -1940 0 -1940 0 0
-1800z m1774 406 c45 -1 51 -3 48 -21 -9 -59 -9 -60 35 -63 35 -3 50 2 80 26
21 17 52 33 69 36 34 8 112 -7 161 -30 31 -15 180 -190 170 -200 -12 -12 -64
13 -109 52 -65 58 -71 58 -83 -7 -6 -34 -5 -35 43 -58 53 -25 92 -57 119 -97
14 -22 14 -28 2 -50 -12 -23 -11 -27 5 -36 25 -14 76 -63 76 -73 0 -5 8 -17
17 -27 16 -18 16 -18 -2 -12 -15 6 -17 4 -12 -10 4 -10 7 -43 7 -74 l0 -57
140 -48 c129 -45 140 -51 140 -74 0 -25 0 -25 68 -16 171 21 412 -1 404 -36
-1 -7 7 -15 18 -18 11 -3 17 -9 14 -14 -8 -14 6 -49 21 -49 7 0 15 -9 18 -21
3 -12 10 -18 17 -14 6 4 18 4 28 0 14 -5 14 -7 2 -15 -13 -8 -13 -10 1 -10 9
0 31 -8 50 -17 l34 -18 -28 -3 c-22 -3 -27 -7 -22 -20 16 -37 17 -54 6 -61 -8
-6 -9 -15 -2 -34 9 -24 8 -27 -10 -27 -18 0 -19 -2 -9 -15 11 -13 10 -14 -4
-9 -9 3 -16 1 -16 -5 0 -8 -11 -6 -32 5 -22 11 -33 13 -36 5 -2 -6 -10 -11
-18 -11 -8 0 -14 -5 -14 -10 0 -6 -11 -16 -25 -22 -20 -9 -22 -14 -13 -25 9
-11 6 -12 -16 -3 -15 5 -31 8 -35 6 -4 -3 -20 4 -37 15 -43 28 -52 23 -19 -11
16 -16 24 -30 18 -30 -6 0 -16 7 -24 16 -45 54 -110 80 -339 134 -52 12 -113
31 -134 42 -33 17 -43 18 -62 7 -15 -8 -42 -10 -78 -5 l-55 6 6 -68 c4 -54 2
-70 -10 -81 -26 -21 -51 -9 -73 37 l-21 44 -17 -46 c-12 -31 -23 -46 -36 -46
-24 0 -30 19 -30 95 0 62 -1 63 -32 75 -18 7 -84 15 -146 20 -123 8 -158 23
-148 66 8 30 -19 49 -89 63 -54 10 -437 61 -460 61 -6 0 23 -19 62 -42 40 -23
71 -44 68 -46 -3 -3 14 -25 36 -49 38 -42 40 -45 22 -58 -16 -12 -24 -8 -76
50 -44 49 -77 74 -139 105 -86 43 -122 50 -132 24 -3 -8 -10 -13 -15 -10 -5 4
-11 0 -14 -6 -6 -18 -47 20 -47 43 0 20 -28 39 -57 39 -47 0 -95 22 -113 53
-33 54 -28 61 38 53 88 -11 155 -22 307 -50 77 -15 217 -38 310 -52 94 -13
177 -27 185 -29 10 -3 51 28 108 81 91 84 92 86 92 133 0 25 -7 56 -15 68 -13
19 -13 25 1 59 14 33 19 85 13 137 -2 10 -11 17 -24 17 -20 0 -39 25 -55 71
-3 9 -40 44 -82 78 -43 34 -87 75 -98 92 -25 34 -23 75 3 73 20 -2 22 7 5 25
-11 10 -9 15 6 26 10 8 23 12 29 8 5 -3 33 -6 61 -7z"/>
<path d="M3155 1600 c3 -5 8 -10 11 -10 2 0 4 5 4 10 0 6 -5 10 -11 10 -5 0
-7 -4 -4 -10z"/>
<path d="M2921 1507 c-8 -36 -21 -52 -71 -91 -58 -45 -73 -66 -49 -66 19 0
132 72 161 102 l27 29 -21 34 c-11 19 -23 35 -28 35 -4 0 -13 -19 -19 -43z"/>
<path d="M3281 1424 c27 -32 139 -92 139 -74 0 16 -106 90 -130 90 -20 0 -21
-2 -9 -16z"/>
<path d="M3460 1406 c0 -4 12 -18 28 -31 27 -25 66 -33 76 -16 5 8 -12 17 -91
48 -7 3 -13 2 -13 -1z"/>
</g>
</svg>
