<?xml version="1.0" standalone="no"?>
<!DOCTYPE svg PUBLIC "-//W3C//DTD SVG 20010904//EN"
 "http://www.w3.org/TR/2001/REC-SVG-20010904/DTD/svg10.dtd">
<svg version="1.0" xmlns="http://www.w3.org/2000/svg"
 width="480.000000pt" height="360.000000pt" viewBox="0 0 480.000000 360.000000"
 preserveAspectRatio="xMidYMid meet">
<metadata>
Created by potrace 1.16, written by Peter Selinger 2001-2019
</metadata>
<rect width="1" height="360" fill="#000000"/>
<rect x="479" width="1" height="360" fill="#000000"/>
<rect width="480" height="1" fill="#000000"/>
<rect y="359" width="480" height="1" fill="#000000"/>
<g transform="translate(0.000000,360.000000) scale(0.100000,-0.100000)"
fill="#000000" stroke="none">
<path d="M3529 3575 c-201 -60 -213 -100 -67 -236 l71 -66 -18 -26 c-9 -15
-14 -34 -11 -44 6 -14 11 -12 38 13 l31 29 -6 -25 c-28 -110 -31 -137 -14
-173 9 -19 17 -44 17 -56 0 -12 4 -21 10 -21 5 0 21 -21 36 -47 33 -58 58 -84
105 -105 19 -10 44 -27 54 -38 19 -21 19 -21 -23 -58 -25 -22 -39 -41 -35 -48
5 -6 27 -23 50 -37 32 -21 44 -35 49 -62 4 -24 18 -44 45 -66 31 -24 39 -37
39 -62 0 -24 8 -39 31 -57 35 -29 59 -69 59 -101 0 -17 3 -19 14 -10 12 10 20
9 40 -4 16 -11 35 -15 51 -11 21 5 25 3 26 -16 l0 -23 17 24 c9 14 25 34 35
45 17 21 17 21 47 -13 l29 -34 9 23 c10 27 18 19 27 -32 6 -32 4 -38 -19 -53
-14 -9 -30 -32 -36 -51 -6 -18 -26 -43 -43 -55 -43 -29 -57 -48 -57 -75 0 -33
-13 -36 -56 -15 -80 39 -145 50 -341 56 -176 6 -196 5 -236 -13 -41 -18 -50
-30 -71 -94 -3 -10 -15 -19 -28 -22 -135 -26 -355 -70 -400 -81 -54 -13 -61
-12 -120 10 -35 13 -117 40 -183 60 -66 20 -131 40 -144 46 -12 5 -53 18 -90
28 -36 11 -145 47 -241 81 -148 51 -178 59 -196 49 -26 -13 -23 -15 -144 77
-53 39 -123 89 -155 109 -33 21 -70 50 -83 66 -32 40 -89 72 -114 66 -12 -4
-68 9 -127 29 -131 45 -210 54 -235 29 -17 -17 -17 -19 1 -37 11 -10 64 -31
119 -46 95 -27 175 -60 114 -48 -120 23 -192 29 -232 17 -107 -31 -111 -71 -7
-71 58 0 189 -23 216 -38 8 -5 -19 -7 -64 -5 -68 4 -84 2 -123 -19 -88 -47
-58 -68 95 -68 46 0 90 -3 99 -6 23 -9 9 -24 -21 -24 -34 0 -113 -50 -113 -72
0 -23 35 -23 115 -3 55 15 65 15 125 -2 54 -14 76 -27 132 -79 41 -38 87 -69
115 -80 178 -65 188 -70 185 -90 -1 -10 -5 -36 -9 -56 -5 -33 -3 -38 18 -42
13 -3 78 -17 144 -31 141 -31 350 -99 565 -184 85 -34 174 -66 198 -72 72 -16
635 21 862 56 52 8 152 18 221 22 l126 6 11 -34 c6 -19 14 -72 17 -119 23
-320 79 -467 269 -700 43 -52 84 -106 91 -120 7 -14 15 -76 17 -140 5 -123 30
-218 70 -274 12 -17 23 -51 26 -78 l5 -48 123 0 124 0 0 1800 0 1800 -597 -1
c-594 -1 -599 -1 -674 -24z"/>
</g>
</svg>
