<?xml version="1.0" standalone="no"?>
<!DOCTYPE svg PUBLIC "-//W3C//DTD SVG 20010904//EN"
 "http://www.w3.org/TR/2001/REC-SVG-20010904/DTD/svg10.dtd">
<svg version="1.0" xmlns="http://www.w3.org/2000/svg"
 width="480.000000pt" height="360.000000pt" viewBox="0 0 480.000000 360.000000"
 preserveAspectRatio="xMidYMid meet">
<metadata>
Created by potrace 1.16, written by Peter Selinger 2001-2019
</metadata>
<rect width="1" height="360" fill="#000000"/>
<rect x="479" width="1" height="360" fill="#000000"/>
<rect width="480" height="1" fill="#000000"/>
<rect y="359" width="480" height="1" fill="#000000"/>
<g transform="translate(0.000000,360.000000) scale(0.100000,-0.100000)"
fill="#000000" stroke="none">
<path d="M1480 2914 c-30 -8 -59 -19 -63 -23 -5 -5 -21 -3 -35 5 -37 19 -45
18 -72 -11 -21 -22 -22 -28 -11 -49 11 -19 10 -28 -2 -52 -28 -55 -30 -97 -7
-151 13 -32 31 -55 47 -62 22 -10 25 -9 19 4 -5 13 -2 14 15 4 19 -10 19 -12
5 -32 -28 -38 -28 -43 4 -77 17 -19 38 -46 46 -62 8 -15 19 -28 24 -28 20 0 9
-15 -22 -30 -47 -22 -56 -43 -35 -80 l18 -30 -35 -21 c-50 -29 -92 -88 -150
-206 -21 -42 -11 -85 27 -123 17 -17 34 -30 39 -30 13 0 8 -151 -6 -191 -7
-20 -27 -58 -45 -84 -23 -34 -29 -50 -21 -60 7 -9 2 -35 -20 -95 -22 -59 -27
-86 -20 -95 8 -9 5 -34 -9 -86 -28 -102 -36 -156 -71 -449 -28 -231 -80 -739
-80 -782 0 -17 30 -18 490 -18 270 0 490 2 490 5 0 2 -13 83 -30 180 -16 96
-41 264 -55 373 -13 108 -31 229 -39 268 -32 153 -110 413 -140 473 -15 28
-15 30 4 33 18 3 15 9 -22 52 l-41 48 24 45 c13 24 50 77 81 116 40 50 58 81
58 101 0 16 -16 67 -35 115 -22 55 -33 98 -30 118 3 24 0 32 -16 36 -23 6 -24
25 -4 63 8 16 15 37 15 46 0 24 -60 210 -72 225 -7 9 -5 17 5 28 10 10 18 12
22 5 5 -8 11 -8 20 0 10 8 15 8 20 0 5 -7 11 -5 20 7 11 14 16 16 26 6 22 -22
26 -15 21 43 -5 55 -4 56 18 44 28 -15 31 -11 38 45 4 39 7 45 23 40 19 -6 19
-5 -1 44 -11 28 -31 69 -45 91 -14 22 -25 52 -25 68 0 22 -17 46 -72 104 -40
42 -82 80 -93 86 -38 19 -137 22 -195 6z"/>
</g>
</svg>
