<?xml version="1.0" standalone="no"?>
<!DOCTYPE svg PUBLIC "-//W3C//DTD SVG 20010904//EN"
 "http://www.w3.org/TR/2001/REC-SVG-20010904/DTD/svg10.dtd">
<svg version="1.0" xmlns="http://www.w3.org/2000/svg"
 width="480.000000pt" height="360.000000pt" viewBox="0 0 480.000000 360.000000"
 preserveAspectRatio="xMidYMid meet">
<metadata>
Created by potrace 1.16, written by Peter Selinger 2001-2019
</metadata>
<rect width="1" height="360" fill="#000000"/>
<rect x="479" width="1" height="360" fill="#000000"/>
<rect width="480" height="1" fill="#000000"/>
<rect y="359" width="480" height="1" fill="#000000"/>
<g transform="translate(0.000000,360.000000) scale(0.100000,-0.100000)"
fill="#000000" stroke="none">
<path d="M0 1800 l0 -1800 920 0 919 0 13 23 c6 12 11 36 9 52 -1 17 12 69 29
115 62 169 79 227 90 320 23 188 81 403 141 522 24 47 29 70 29 127 0 63 -2
72 -22 82 -43 22 -88 73 -99 112 -29 107 34 239 165 345 l29 23 -49 31 c-116
73 -174 145 -174 215 0 56 19 92 72 137 l42 36 -30 0 c-29 0 -54 15 -54 32 0
4 7 8 15 8 9 0 30 7 47 16 24 12 36 14 49 6 22 -14 30 -5 19 21 -5 12 -16 60
-25 106 -32 179 -10 225 68 139 l38 -42 35 38 c30 33 87 66 114 66 15 0 14
-746 -1 -789 -9 -24 -9 -35 0 -44 8 -8 11 -243 11 -854 l0 -843 300 0 c165 0
300 2 300 6 0 3 -11 22 -25 42 -30 44 -31 52 -6 52 48 0 131 102 131 162 0 47
-15 78 -68 142 -23 27 -38 55 -35 63 3 8 -13 53 -35 101 -35 73 -43 101 -48
173 -7 85 -6 87 22 123 16 20 35 36 41 36 7 0 65 -26 128 -58 104 -51 115 -59
110 -79 -4 -16 1 -25 14 -33 33 -17 66 -11 100 19 28 25 37 28 64 20 46 -13
83 -11 96 5 16 19 7 37 -43 76 -27 22 -49 49 -56 72 -7 20 -30 53 -50 73 -45
44 -117 65 -225 65 -90 0 -114 7 -108 29 2 10 -3 23 -11 30 -9 8 -16 29 -16
50 0 20 -11 71 -25 114 -23 72 -24 82 -13 146 11 62 10 71 -8 102 -24 41 -65
62 -161 84 l-73 17 4 39 c3 35 37 89 55 89 4 0 17 -17 30 -39 17 -28 29 -37
43 -33 10 2 18 -1 18 -7 0 -8 6 -8 18 -2 9 5 56 28 104 50 214 101 267 265
122 376 -34 26 -34 28 -28 77 7 55 11 53 -42 31 -14 -5 -16 -1 -11 23 22 102
37 224 32 252 -10 53 -31 51 -84 -8 l-47 -54 -22 32 c-37 51 -85 74 -174 83
-45 4 -86 13 -91 18 -15 15 -44 13 -92 -4 -22 -8 -61 -14 -87 -15 l-48 0 0
530 0 530 -1200 0 -1200 0 0 -1800z m3089 225 c65 -74 51 -126 -48 -185 -59
-35 -140 -70 -161 -70 -12 0 18 113 36 138 3 4 43 -19 67 -37 15 -13 17 -12
17 8 0 12 4 19 10 16 13 -8 13 18 -1 32 -7 7 -6 20 5 44 8 19 17 46 21 62 7
36 17 34 54 -8z m-639 -290 c13 -14 18 -25 12 -25 -7 0 -12 -6 -12 -14 0 -9
-8 -12 -25 -8 -21 4 -25 10 -25 38 0 41 17 44 50 9z m420 -933 c0 -7 -4 -10
-10 -7 -5 3 -10 16 -10 28 0 18 2 19 10 7 5 -8 10 -21 10 -28z m74 -602 c-7
-6 -24 22 -23 40 0 9 6 5 14 -10 7 -14 11 -27 9 -30z"/>
<path d="M2100 2049 c-22 -18 -22 -19 -3 -10 12 6 25 16 28 21 9 15 3 12 -25
-11z"/>
<path d="M2051 1998 c-33 -53 16 -122 132 -182 116 -61 156 -37 78 46 l-38 42
-16 -30 c-11 -20 -16 -23 -17 -11 0 9 -7 17 -16 17 -12 0 -14 5 -9 18 19 43
17 70 -5 82 -16 9 -25 9 -35 0 -11 -9 -19 -7 -38 12 -23 23 -25 23 -36 6z"/>
<path d="M2136 952 c-33 -53 -115 -423 -88 -397 16 15 72 218 88 314 13 81 13
103 0 83z"/>
</g>
</svg>
