<?xml version="1.0" standalone="no"?>
<!DOCTYPE svg PUBLIC "-//W3C//DTD SVG 20010904//EN"
 "http://www.w3.org/TR/2001/REC-SVG-20010904/DTD/svg10.dtd">
<svg version="1.0" xmlns="http://www.w3.org/2000/svg"
 width="480.000000pt" height="360.000000pt" viewBox="0 0 480.000000 360.000000"
 preserveAspectRatio="xMidYMid meet">
<metadata>
Created by potrace 1.16, written by Peter Selinger 2001-2019
</metadata>
<rect width="1" height="360" fill="#000000"/>
<rect x="479" width="1" height="360" fill="#000000"/>
<rect width="480" height="1" fill="#000000"/>
<rect y="359" width="480" height="1" fill="#000000"/>
<g transform="translate(0.000000,360.000000) scale(0.100000,-0.100000)"
fill="#000000" stroke="none">
<path d="M1604 3423 c1 -244 -21 -359 -107 -558 -26 -61 -97 -183 -140 -245
-30 -43 -181 -200 -222 -230 -11 -8 -41 -32 -66 -53 -112 -91 -366 -198 -539
-227 -137 -23 -408 -15 -513 16 -16 5 -17 -50 -17 -1060 l0 -1066 1338 0 1337
0 32 163 c19 95 58 244 96 362 73 223 94 313 132 560 14 94 31 189 36 211 20
80 10 83 -61 19 -36 -32 -79 -67 -97 -77 -18 -11 -35 -29 -38 -41 -4 -12 -11
-32 -17 -44 -9 -18 -8 -27 5 -41 36 -40 10 -81 -51 -82 -50 0 -96 51 -89 100
9 66 76 160 219 305 88 88 138 146 138 160 0 11 -12 31 -25 44 -14 13 -25 28
-25 33 0 6 -11 23 -25 40 -43 51 -32 115 38 216 24 35 37 68 42 104 6 47 13
59 58 101 46 44 49 50 39 73 -11 22 -9 26 13 34 39 15 29 28 -17 23 -39 -4
-45 -2 -60 24 -35 57 -43 68 -55 76 -18 11 -16 34 2 41 35 13 6 44 -47 50 -17
2 -48 47 -48 70 0 14 -5 28 -10 31 -13 8 -6 32 27 100 l24 51 -36 59 c-62 103
-60 135 7 135 59 0 266 -48 304 -71 17 -11 40 -19 51 -19 61 0 149 -55 201
-124 32 -43 60 -125 72 -209 7 -47 26 -103 53 -162 l42 -90 1 -145 c0 -96 6
-169 16 -215 27 -116 31 -194 14 -249 -10 -33 -12 -55 -5 -67 5 -10 14 -76 19
-146 6 -70 15 -164 20 -208 14 -114 12 -224 -5 -281 -8 -27 -15 -61 -15 -76 0
-14 -5 -28 -10 -30 -13 -4 42 -138 153 -373 73 -156 157 -380 157 -422 0 -11
77 -13 425 -13 l425 0 0 1800 0 1800 -1598 0 -1598 0 0 -177z"/>
</g>
</svg>
