<?xml version="1.0" standalone="no"?>
<!DOCTYPE svg PUBLIC "-//W3C//DTD SVG 20010904//EN"
 "http://www.w3.org/TR/2001/REC-SVG-20010904/DTD/svg10.dtd">
<svg version="1.0" xmlns="http://www.w3.org/2000/svg"
 width="480.000000pt" height="360.000000pt" viewBox="0 0 480.000000 360.000000"
 preserveAspectRatio="xMidYMid meet">
<metadata>
Created by potrace 1.16, written by Peter Selinger 2001-2019
</metadata>
<rect width="1" height="360" fill="#000000"/>
<rect x="479" width="1" height="360" fill="#000000"/>
<rect width="480" height="1" fill="#000000"/>
<rect y="359" width="480" height="1" fill="#000000"/>
<g transform="translate(0.000000,360.000000) scale(0.100000,-0.100000)"
fill="#000000" stroke="none">
<path d="M0 2286 l0 -1314 30 -12 c32 -13 60 -45 60 -67 0 -16 -75 19 -83 39
-3 7 -6 -200 -6 -459 l0 -473 724 0 725 0 -22 35 c-19 30 -51 50 -185 115
-141 70 -167 86 -205 131 -32 38 -63 61 -118 88 -69 33 -75 39 -78 69 -2 24
-10 36 -28 44 -13 6 -24 15 -24 19 0 13 71 57 103 64 27 7 36 28 17 40 -43 26
36 101 140 133 385 118 503 164 607 238 85 60 230 200 335 322 l80 92 -30 34
c-17 19 -33 44 -37 55 -4 15 -15 21 -36 21 -34 0 -35 4 -9 32 24 26 24 26 5
200 -14 131 -16 138 -54 198 -61 95 -64 165 -11 240 25 35 19 55 -12 39 -16
-9 -19 -8 -13 1 6 10 1 11 -19 6 -15 -4 -26 -2 -26 4 0 5 -11 10 -25 10 -19 0
-25 5 -25 23 0 16 -6 23 -21 24 -28 2 -34 10 -21 26 6 7 9 22 6 34 -3 11 -1
24 5 27 6 4 11 12 11 18 0 7 -6 6 -15 -2 -8 -7 -15 -19 -15 -26 0 -8 -4 -14
-10 -14 -27 0 -5 52 44 105 24 25 34 44 90 169 46 100 47 120 6 111 -28 -6
-32 -4 -45 29 -8 19 -15 49 -15 66 0 17 -4 39 -9 49 -6 11 -4 36 7 75 14 50
25 66 86 123 151 139 339 244 542 300 92 25 114 27 322 29 122 2 227 6 234 10
6 4 16 0 22 -9 7 -8 34 -18 61 -22 28 -4 95 -23 150 -42 316 -109 543 -297
710 -589 38 -67 45 -87 45 -134 0 -66 -8 -100 -24 -100 -6 0 -22 -20 -34 -44
-13 -24 -35 -55 -48 -67 -21 -19 -28 -21 -42 -11 -53 38 -60 38 -105 -5 -50
-48 -76 -63 -112 -63 -28 0 -85 28 -85 42 0 19 -56 5 -96 -24 -35 -25 -57 -33
-102 -36 -52 -3 -62 0 -112 32 -63 41 -61 41 -102 20 -16 -9 -55 -22 -86 -30
-50 -13 -60 -13 -96 1 -22 9 -52 25 -67 36 -27 19 -28 19 -34 0 -8 -28 -33
-195 -29 -200 2 -2 20 6 40 18 20 12 38 21 39 19 4 -4 -22 -84 -42 -128 -8
-19 -27 -46 -42 -60 -19 -18 -30 -43 -39 -90 -6 -36 -21 -114 -32 -173 -23
-124 -25 -158 -9 -174 9 -9 9 -27 -1 -72 -7 -33 -10 -70 -7 -81 4 -14 -1 -25
-14 -33 -31 -19 -26 -90 7 -116 35 -28 76 -27 110 2 22 19 28 34 32 81 3 38
10 60 19 63 44 17 65 -102 27 -154 -33 -44 -70 -66 -121 -70 -89 -8 -149 43
-160 135 -6 58 -23 72 -82 72 -49 0 -61 -18 -50 -75 5 -27 19 -122 30 -210 40
-327 93 -650 144 -870 15 -67 44 -222 45 -237 0 -5 475 -8 1055 -8 l1055 0 0
1800 0 1800 -2400 0 -2400 0 0 -1314z m2705 1274 c16 -7 11 -9 -20 -9 -22 0
-47 4 -55 9 -19 13 46 13 75 0z m435 -112 c0 -13 -8 -9 -30 14 -11 12 -20 33
-20 47 1 24 2 23 25 -14 14 -22 25 -43 25 -47z m-1978 42 c-3 -32 -20 -49 -52
-52 -22 -3 -25 1 -25 32 0 28 5 35 25 41 41 12 55 6 52 -21z m1064 -65 c-17
-32 -43 -51 -54 -41 -6 7 36 74 51 79 21 7 22 -3 3 -38z m1047 -2 c29 -17 -63
-57 -110 -48 -44 8 -42 19 9 44 38 18 72 20 101 4z m-2072 -239 c-9 -20 -15
-24 -23 -16 -9 9 -8 18 1 38 9 20 15 24 23 16 9 -9 8 -18 -1 -38z m2840 -41
c-11 -21 -20 -30 -21 -21 0 20 34 81 38 68 2 -5 -6 -26 -17 -47z m-313 -25 c6
-71 -13 -52 -22 22 -6 43 -5 52 5 43 6 -6 14 -36 17 -65z m-2458 -183 c14 -16
10 -18 -14 -9 -9 3 -16 10 -16 15 0 14 16 11 30 -6z m326 -191 c-3 -8 -10 -14
-16 -14 -20 0 -22 31 -4 52 l19 20 3 -22 c2 -12 1 -28 -2 -36z m-1440 -18 c10
-8 16 -17 12 -21 -7 -7 -48 16 -48 27 0 12 14 9 36 -6z m1114 -375 c0 -17 -29
-32 -57 -29 l-28 3 30 17 c33 19 55 23 55 9z m-604 -68 c-7 -7 -26 7 -26 19 0
6 6 6 15 -2 9 -7 13 -15 11 -17z m-426 -91 c0 -16 -27 -45 -39 -41 -8 3 -7 11
4 27 16 22 35 30 35 14z m845 -122 c16 -7 11 -9 -22 -9 -23 -1 -45 4 -48 9 -8
12 42 12 70 0z m3581 -361 c40 -33 -23 -27 -68 6 -23 17 -23 17 15 12 22 -4
45 -11 53 -18z m-996 -266 c0 -18 -28 -53 -42 -53 -14 0 -9 32 9 52 20 22 33
23 33 1z m1008 -78 c17 -37 15 -49 -14 -76 -25 -24 -26 -24 -40 -5 -20 28 -17
56 8 83 27 29 32 29 46 -2z m-3368 0 c0 -7 -77 -45 -90 -45 -19 0 1 21 34 36
32 14 56 18 56 9z m1356 -181 c43 -21 44 -36 2 -22 -18 5 -43 12 -56 15 -12 3
-25 9 -28 14 -9 15 46 10 82 -7z m-1769 0 c-3 -3 -12 -4 -19 -1 -8 3 -5 6 6 6
11 1 17 -2 13 -5z m3367 -70 c9 -22 8 -24 -9 -24 -8 0 -15 9 -15 20 0 24 15
27 24 4z m-4070 -262 c11 -6 -33 -31 -56 -32 -9 0 -29 5 -45 11 -22 8 -24 12
-13 20 15 9 97 10 114 1z m3436 -158 c0 -18 -36 -18 -43 0 -8 20 13 38 30 25
7 -7 13 -18 13 -25z m-2862 -235 c3 -19 -29 -31 -49 -19 -10 7 -10 11 1 25 16
19 44 16 48 -6z m-358 -339 c-20 -13 -40 -13 -40 0 0 6 12 10 28 10 21 0 24
-2 12 -10z"/>
<path d="M2415 2469 c-10 -10 -23 -18 -29 -16 -19 7 -67 -27 -63 -44 2 -9 -13
-32 -35 -54 -21 -22 -41 -49 -44 -61 -4 -16 -11 -20 -30 -16 -15 3 -24 0 -24
-9 0 -8 -5 -6 -13 6 -10 13 -16 15 -21 6 -11 -17 1 -41 20 -41 21 0 65 -31
138 -97 94 -86 169 -139 174 -122 9 25 167 176 208 197 61 31 99 124 69 165
-13 17 -16 18 -62 2 -30 -11 -62 -14 -86 -11 -37 6 -109 45 -121 65 -4 6 -19
19 -35 30 -28 20 -28 20 -46 0z"/>
<path d="M2731 2216 c-8 -9 -11 -19 -7 -23 9 -9 29 13 24 27 -2 8 -8 7 -17 -4z"/>
<path d="M2280 2145 c13 -14 26 -25 28 -25 3 0 -5 11 -18 25 -13 14 -26 25
-28 25 -3 0 5 -11 18 -25z"/>
<path d="M2640 1877 c-35 -67 -73 -142 -84 -165 -20 -42 -22 -44 -58 -39 -34
4 -39 2 -44 -18 -9 -37 -1 -58 28 -75 22 -12 30 -12 40 -2 9 9 8 15 -8 27 -17
13 -17 14 -2 15 9 0 20 -4 23 -10 8 -13 30 -13 75 0 34 9 36 12 47 77 6 38 21
121 33 187 11 65 19 120 17 122 -2 2 -32 -51 -67 -119z"/>
</g>
</svg>
