<?xml version="1.0" standalone="no"?>
<!DOCTYPE svg PUBLIC "-//W3C//DTD SVG 20010904//EN"
 "http://www.w3.org/TR/2001/REC-SVG-20010904/DTD/svg10.dtd">
<svg version="1.0" xmlns="http://www.w3.org/2000/svg"
 width="480.000000pt" height="360.000000pt" viewBox="0 0 480.000000 360.000000"
 preserveAspectRatio="xMidYMid meet">
<metadata>
Created by potrace 1.16, written by Peter Selinger 2001-2019
</metadata>
<rect width="1" height="360" fill="#000000"/>
<rect x="479" width="1" height="360" fill="#000000"/>
<rect width="480" height="1" fill="#000000"/>
<rect y="359" width="480" height="1" fill="#000000"/>
<g transform="translate(0.000000,360.000000) scale(0.100000,-0.100000)"
fill="#000000" stroke="none">
<path d="M1033 3473 c-56 -171 -95 -327 -243 -983 -159 -705 -242 -1142 -280
-1477 -36 -316 -48 -662 -33 -906 l6 -107 1563 0 1563 0 64 98 c36 53 98 140
139 192 166 213 214 296 244 424 15 67 15 90 -6 431 -38 633 -38 645 6 968 13
96 15 130 6 139 -9 9 -13 7 -18 -8 -4 -10 -14 -35 -22 -54 -14 -31 -16 -33
-19 -12 -3 12 -8 20 -13 17 -5 -3 -12 5 -16 17 -6 21 -7 21 -20 3 -13 -17 -14
-16 -14 16 l0 34 -19 -24 -18 -24 -6 34 c-3 20 4 69 18 119 12 47 28 108 34
135 7 28 32 93 58 144 l45 95 -23 21 c-13 11 -32 32 -42 48 -15 23 -24 27 -64
27 -135 0 -233 93 -277 264 -8 31 -27 91 -41 132 -46 139 -30 254 47 333 l30
31 -1304 0 -1304 0 -41 -127z"/>
<path d="M3756 3584 c-10 -25 1 -29 14 -5 6 12 7 21 1 21 -5 0 -12 -7 -15 -16z"/>
</g>
</svg>
