<?xml version="1.0" standalone="no"?>
<!DOCTYPE svg PUBLIC "-//W3C//DTD SVG 20010904//EN"
 "http://www.w3.org/TR/2001/REC-SVG-20010904/DTD/svg10.dtd">
<svg version="1.0" xmlns="http://www.w3.org/2000/svg"
 width="480.000000pt" height="360.000000pt" viewBox="0 0 480.000000 360.000000"
 preserveAspectRatio="xMidYMid meet">
<metadata>
Created by potrace 1.16, written by Peter Selinger 2001-2019
</metadata>
<rect width="1" height="360" fill="#000000"/>
<rect x="479" width="1" height="360" fill="#000000"/>
<rect width="480" height="1" fill="#000000"/>
<rect y="359" width="480" height="1" fill="#000000"/>
<g transform="translate(0.000000,360.000000) scale(0.100000,-0.100000)"
fill="#000000" stroke="none">
<path d="M0 2456 l0 -1143 53 8 c28 5 158 20 287 34 373 41 607 71 1025 129
827 116 1287 156 1811 156 383 0 586 -20 951 -95 252 -52 383 -64 529 -46 54
7 109 15 122 18 l22 5 0 860 c0 684 -3 859 -12 855 -137 -60 -240 -86 -268
-68 -12 8 -13 16 -4 40 8 19 8 33 2 39 -11 11 -1 52 13 52 5 0 20 18 34 40 24
38 51 71 103 126 13 13 33 24 46 24 13 0 38 3 55 6 30 6 31 9 31 55 l0 49
-733 0 -732 0 -32 -58 c-53 -96 -99 -125 -152 -98 -16 9 -32 21 -35 28 -3 8
-23 -6 -55 -40 l-49 -54 -7 -94 -7 -94 34 -38 c20 -22 40 -59 48 -87 8 -30 25
-61 42 -78 46 -43 35 -62 -37 -62 -48 0 -59 -3 -56 -15 12 -53 10 -101 -4
-106 -9 -4 -15 -19 -15 -40 0 -29 -3 -34 -24 -34 -13 0 -40 11 -61 25 -20 15
-39 24 -41 22 -2 -2 3 -20 11 -40 37 -88 6 -131 -53 -75 -84 81 -154 245 -171
403 -17 150 -14 189 33 368 l43 167 -1374 0 -1373 0 0 -1144z"/>
<path d="M0 581 l0 -581 2400 0 2400 0 0 489 0 489 -32 6 c-215 37 -339 31
-623 -33 -289 -65 -501 -89 -835 -98 -530 -13 -1091 30 -1940 147 -489 68
-549 75 -930 116 -184 19 -359 38 -387 41 l-53 6 0 -582z"/>
</g>
</svg>
