<?xml version="1.0" standalone="no"?>
<!DOCTYPE svg PUBLIC "-//W3C//DTD SVG 20010904//EN"
 "http://www.w3.org/TR/2001/REC-SVG-20010904/DTD/svg10.dtd">
<svg version="1.0" xmlns="http://www.w3.org/2000/svg"
 width="480.000000pt" height="360.000000pt" viewBox="0 0 480.000000 360.000000"
 preserveAspectRatio="xMidYMid meet">
<metadata>
Created by potrace 1.16, written by Peter Selinger 2001-2019
</metadata>
<rect width="1" height="360" fill="#000000"/>
<rect x="479" width="1" height="360" fill="#000000"/>
<rect width="480" height="1" fill="#000000"/>
<rect y="359" width="480" height="1" fill="#000000"/>
<g transform="translate(0.000000,360.000000) scale(0.100000,-0.100000)"
fill="#000000" stroke="none">
<path d="M4174 3450 c-12 -33 -21 -46 -26 -37 -6 9 -10 9 -17 -3 -9 -12 -11
-12 -17 3 -8 23 -20 14 -27 -21 -6 -28 -8 -29 -89 -38 -105 -11 -108 -26 -21
-83 61 -39 62 -40 53 -73 -10 -31 1 -61 14 -40 3 6 15 8 25 5 18 -5 19 -7 5
-46 -9 -27 -11 -43 -4 -47 6 -3 -44 -87 -115 -194 -69 -104 -125 -193 -125
-198 0 -4 -11 -6 -25 -2 -15 4 -39 0 -59 -10 -19 -9 -41 -13 -50 -10 -13 5
-16 -1 -16 -33 0 -58 -20 -79 -81 -86 -62 -8 -67 -11 -46 -35 23 -25 21 -32
-8 -32 -14 0 -25 -3 -25 -7 1 -5 48 -42 106 -83 58 -41 126 -93 150 -116 l44
-41 -14 -40 c-22 -63 -39 -229 -32 -312 11 -112 83 -311 122 -334 8 -5 22 -16
32 -25 31 -32 110 -92 120 -92 5 0 15 -7 22 -15 9 -11 15 -12 20 -5 4 6 12 0
20 -15 7 -13 21 -27 32 -31 10 -3 18 -9 18 -14 0 -10 -29 -17 -115 -25 -38 -4
-74 -11 -80 -15 -23 -17 -207 -52 -250 -48 -41 5 -48 2 -86 -33 -23 -22 -52
-39 -64 -39 -77 0 -165 -53 -187 -112 -7 -20 -29 -36 -86 -63 -42 -20 -99 -50
-126 -66 -26 -17 -54 -28 -60 -26 -20 8 -65 163 -91 315 -14 79 -29 151 -34
161 -6 10 -26 30 -46 45 -34 26 -36 31 -34 80 1 28 0 51 -3 51 -3 0 -13 7 -22
15 -20 16 -140 24 -164 11 -10 -6 -44 5 -101 31 -47 22 -138 64 -201 93 -127
59 -217 78 -239 51 -21 -25 -4 -50 68 -97 39 -24 70 -46 70 -49 1 -3 -23 -20
-51 -37 -47 -28 -67 -33 -168 -42 -63 -6 -169 -11 -235 -12 -114 -1 -121 -2
-138 -25 -14 -19 -15 -27 -6 -42 23 -37 78 -63 175 -83 53 -11 105 -24 113
-29 46 -24 350 -99 404 -100 28 0 37 -4 37 -17 0 -9 20 -50 44 -92 97 -170
128 -246 201 -486 39 -129 50 -152 86 -171 44 -22 135 -53 189 -64 85 -17 251
30 524 146 126 54 155 63 185 57 43 -8 90 -8 151 1 39 6 51 2 93 -24 26 -17
52 -43 58 -58 6 -15 21 -90 34 -167 27 -161 36 -203 62 -300 l19 -70 357 -3
357 -2 0 1494 0 1495 -34 -6 c-34 -5 -161 44 -317 123 -37 19 -71 34 -77 34
-6 0 -16 9 -22 20 -8 15 -8 20 2 20 31 0 143 -41 203 -74 36 -20 75 -36 87
-36 12 0 40 -11 64 -25 32 -19 44 -22 52 -12 12 15 37 191 29 211 -14 35 -141
72 -279 82 -69 4 -86 9 -81 20 4 11 -6 14 -43 15 -27 0 -66 3 -87 7 -36 6 -41
12 -65 69 -15 35 -30 63 -33 63 -4 0 -15 -22 -25 -50z"/>
<path d="M1530 320 c-47 -5 -148 -18 -225 -29 -77 -12 -248 -38 -380 -57 -399
-58 -427 -63 -514 -78 -46 -9 -95 -22 -109 -28 -32 -16 -52 -52 -52 -95 l0
-33 1038 1 1037 0 -150 40 c-286 75 -287 75 -310 154 -18 63 -33 76 -125 104
-91 27 -114 29 -210 21z"/>
</g>
</svg>
