<?xml version="1.0" standalone="no"?>
<!DOCTYPE svg PUBLIC "-//W3C//DTD SVG 20010904//EN"
 "http://www.w3.org/TR/2001/REC-SVG-20010904/DTD/svg10.dtd">
<svg version="1.0" xmlns="http://www.w3.org/2000/svg"
 width="480.000000pt" height="360.000000pt" viewBox="0 0 480.000000 360.000000"
 preserveAspectRatio="xMidYMid meet">
<metadata>
Created by potrace 1.16, written by Peter Selinger 2001-2019
</metadata>
<rect width="1" height="360" fill="#000000"/>
<rect x="479" width="1" height="360" fill="#000000"/>
<rect width="480" height="1" fill="#000000"/>
<rect y="359" width="480" height="1" fill="#000000"/>
<g transform="translate(0.000000,360.000000) scale(0.100000,-0.100000)"
fill="#000000" stroke="none">
<path d="M2387 920 c-5 -21 -8 -22 -23 -9 -15 12 -16 12 -10 -9 6 -17 3 -22
-11 -22 -17 -1 -17 -1 1 -15 19 -14 19 -15 0 -36 -10 -12 -39 -33 -64 -47 -25
-14 -49 -32 -53 -39 -4 -7 -15 -13 -22 -13 -22 0 -18 -25 10 -58 21 -25 25
-40 25 -90 0 -34 4 -63 9 -66 7 -5 9 -59 2 -99 0 -4 -21 -17 -46 -28 -53 -23
-61 -34 -43 -56 7 -9 14 -43 14 -77 1 -34 2 -68 3 -76 1 -8 -1 -52 -5 -98 l-7
-82 211 0 c117 1 214 5 216 9 3 4 6 76 8 159 2 110 6 153 16 157 6 2 12 13 12
23 0 14 -18 28 -57 48 -47 23 -59 34 -61 56 -4 34 15 71 33 64 20 -7 24 14 13
77 -9 49 -8 61 6 76 21 23 22 83 1 75 -8 -4 -15 -2 -15 3 0 5 -17 19 -37 30
-21 12 -51 35 -66 51 l-28 29 23 8 c20 6 20 8 5 12 -13 3 -16 10 -11 26 6 19
5 20 -9 8 -15 -11 -18 -10 -25 10 l-9 23 -6 -24z"/>
<path d="M856 815 c-3 -8 -17 -15 -31 -15 -26 0 -32 -9 -16 -25 5 -6 7 -25 4
-43 -5 -32 -39 -62 -116 -102 -16 -8 -33 -22 -38 -32 -5 -10 -16 -18 -24 -18
-25 0 -17 -37 15 -74 27 -30 30 -39 24 -75 -5 -31 -2 -47 15 -75 13 -20 28
-33 35 -30 8 3 23 -8 35 -25 l22 -31 -33 -20 c-18 -11 -64 -32 -102 -47 -75
-30 -87 -44 -61 -74 11 -12 20 -41 23 -74 l5 -55 246 2 246 3 0 56 c0 32 6 63
13 72 24 29 9 50 -64 88 -39 20 -81 38 -92 41 -12 4 -22 12 -22 20 0 16 57 61
77 61 16 0 27 56 21 112 -5 37 -2 47 18 66 29 27 35 95 9 85 -9 -3 -18 1 -21
9 -4 8 -12 15 -20 15 -8 0 -14 5 -14 10 0 6 -6 10 -14 10 -16 0 -106 79 -90
80 6 0 30 -14 53 -30 l41 -30 11 24 c15 32 6 54 -28 67 -70 26 -103 44 -103
56 0 18 -17 16 -24 -2z"/>
<path d="M3963 815 c23 -17 19 -54 -8 -69 -11 -6 -35 -23 -53 -38 -18 -15 -45
-31 -59 -34 -37 -10 -93 -44 -93 -57 0 -6 -7 -18 -16 -28 -15 -17 -14 -20 6
-49 20 -29 21 -35 10 -76 -14 -49 -10 -78 19 -146 15 -35 26 -48 41 -48 30 0
24 -17 -12 -35 -18 -9 -48 -39 -66 -67 -30 -45 -32 -52 -18 -67 10 -11 13 -28
9 -59 l-6 -42 266 0 266 0 -9 31 c-5 17 -17 43 -27 58 -9 14 -16 35 -15 46 4
31 -17 49 -90 81 -67 28 -78 37 -58 49 6 3 10 1 10 -4 0 -25 22 -8 56 43 35
53 36 56 25 105 -12 57 -7 78 20 86 23 8 26 50 6 88 -10 19 -17 23 -25 15 -12
-12 -11 -13 -106 74 -43 39 -47 47 -37 66 24 46 8 92 -33 92 -20 -1 -20 -1 -3
-15z"/>
</g>
</svg>
