<?xml version="1.0" standalone="no"?>
<!DOCTYPE svg PUBLIC "-//W3C//DTD SVG 20010904//EN"
 "http://www.w3.org/TR/2001/REC-SVG-20010904/DTD/svg10.dtd">
<svg version="1.0" xmlns="http://www.w3.org/2000/svg"
 width="480.000000pt" height="360.000000pt" viewBox="0 0 480.000000 360.000000"
 preserveAspectRatio="xMidYMid meet">
<metadata>
Created by potrace 1.16, written by Peter Selinger 2001-2019
</metadata>
<rect width="1" height="360" fill="#000000"/>
<rect x="479" width="1" height="360" fill="#000000"/>
<rect width="480" height="1" fill="#000000"/>
<rect y="359" width="480" height="1" fill="#000000"/>
<g transform="translate(0.000000,360.000000) scale(0.100000,-0.100000)"
fill="#000000" stroke="none">
<path d="M0 2931 c0 -436 3 -672 10 -676 13 -8 13 -52 0 -60 -6 -3 -10 -27
-10 -52 l0 -45 323 5 c177 2 351 10 386 16 35 7 111 34 170 60 125 58 184 76
306 97 132 22 387 28 523 12 l112 -14 22 44 c11 25 38 56 59 71 31 21 38 32
39 59 0 35 -2 36 -70 22 -48 -9 -80 1 -80 25 0 9 31 45 70 83 l69 67 6 134 c7
152 12 165 93 227 63 48 254 140 318 153 71 14 97 4 197 -73 l85 -66 44 16
c130 46 208 49 208 7 0 -17 -69 -88 -134 -139 l-39 -31 67 -76 c61 -70 65 -77
42 -77 -23 0 -24 -2 -14 -34 13 -40 3 -80 -13 -56 -7 12 -10 11 -15 -6 -3 -12
-19 -31 -35 -43 -36 -26 -37 -53 -4 -79 30 -24 31 -33 5 -57 -11 -10 -20 -27
-20 -38 0 -11 -11 -39 -24 -61 -13 -23 -32 -68 -41 -101 -20 -68 -59 -141 -83
-154 -9 -5 -15 -11 -12 -14 3 -2 65 -28 137 -57 112 -45 137 -52 157 -42 19 8
34 5 84 -19 33 -15 63 -33 67 -39 3 -5 13 -10 21 -10 9 0 40 -11 70 -25 44
-20 54 -29 54 -49 0 -19 12 -31 58 -57 31 -18 99 -59 151 -92 82 -52 96 -58
117 -48 29 13 51 6 59 -19 4 -12 12 -17 21 -13 19 7 44 -15 44 -39 0 -13 6
-18 18 -16 25 4 42 -10 42 -37 0 -12 7 -25 15 -29 8 -3 15 -13 15 -22 0 -9 64
-83 143 -163 173 -177 264 -298 424 -558 152 -248 172 -270 253 -279 72 -8 89
-24 119 -117 42 -131 37 -210 -17 -224 -55 -14 -184 86 -285 220 -30 40 -108
163 -173 275 -65 112 -154 251 -198 310 -74 101 -343 383 -362 381 -5 0 -27
-21 -48 -45 -29 -33 -41 -57 -47 -95 -12 -77 -31 -99 -82 -99 -23 0 -77 7
-120 15 -96 18 -155 19 -316 3 -120 -12 -124 -12 -164 10 l-41 22 -23 -27
c-22 -26 -24 -34 -19 -118 3 -49 19 -168 35 -263 27 -157 35 -245 57 -605 l6
-107 984 0 984 0 0 1800 0 1800 -2400 0 -2400 0 0 -669z"/>
<path d="M1329 2129 c-204 -14 -307 -46 -460 -146 -78 -50 -144 -74 -255 -93
-83 -13 -75 1 -95 -176 -8 -77 -10 -226 -5 -509 9 -563 33 -824 104 -1095 l27
-105 582 -3 582 -2 14 52 c8 29 35 126 60 215 62 221 93 288 210 465 55 84
109 174 119 201 28 73 23 184 -26 572 -8 66 -18 154 -22 194 -6 68 -8 73 -21
55 -12 -16 -15 -17 -23 -4 -6 8 -8 20 -6 27 3 6 8 54 12 107 l7 96 -29 0 c-52
0 -102 20 -162 64 -65 48 -101 58 -262 75 -161 17 -231 19 -351 10z"/>
<path d="M2760 1769 c25 -49 33 -47 19 4 -6 21 -16 37 -25 37 -12 0 -10 -8 6
-41z"/>
<path d="M3086 1619 c-14 -20 -12 -25 21 -65 42 -51 43 -47 -56 -142 l-66 -64
73 6 c40 4 114 20 165 36 85 27 95 33 110 65 9 20 17 37 17 39 0 7 -232 146
-244 146 -3 0 -12 -10 -20 -21z"/>
<path d="M1 298 l-1 -298 86 0 c78 0 85 2 79 18 -49 115 -83 229 -130 432
l-34 145 0 -297z"/>
</g>
</svg>
