<?xml version="1.0" standalone="no"?>
<!DOCTYPE svg PUBLIC "-//W3C//DTD SVG 20010904//EN"
 "http://www.w3.org/TR/2001/REC-SVG-20010904/DTD/svg10.dtd">
<svg version="1.0" xmlns="http://www.w3.org/2000/svg"
 width="480.000000pt" height="360.000000pt" viewBox="0 0 480.000000 360.000000"
 preserveAspectRatio="xMidYMid meet">
<metadata>
Created by potrace 1.16, written by Peter Selinger 2001-2019
</metadata>
<rect width="1" height="360" fill="#000000"/>
<rect x="479" width="1" height="360" fill="#000000"/>
<rect width="480" height="1" fill="#000000"/>
<rect y="359" width="480" height="1" fill="#000000"/>
<g transform="translate(0.000000,360.000000) scale(0.100000,-0.100000)"
fill="#000000" stroke="none">
<path d="M0 1800 l0 -1800 2400 0 2400 0 0 1800 0 1800 -1102 0 -1103 0 -2
-128 c-3 -157 -26 -247 -114 -435 -43 -92 -62 -146 -68 -190 l-7 -62 -7 45
c-5 24 -26 85 -49 135 -70 154 -127 304 -138 363 -5 30 -10 104 -10 164 l0
108 -1100 0 -1100 0 0 -1800z m2500 844 c0 -3 10 -14 23 -24 l22 -19 -25 -9
c-20 -8 -13 -11 49 -20 82 -12 111 -32 173 -123 29 -43 37 -49 69 -49 118 0
342 -73 391 -127 23 -26 45 -166 30 -196 -6 -12 -16 -39 -22 -59 -12 -41 -61
-88 -90 -88 -11 0 -41 9 -68 19 -27 11 -53 16 -58 13 -6 -4 -25 -28 -42 -53
-64 -95 -153 -139 -239 -118 -24 7 -47 8 -51 5 -4 -4 3 -24 14 -44 14 -24 20
-51 19 -77 -2 -29 6 -55 27 -94 28 -50 29 -60 23 -118 -7 -67 -21 -79 -55 -48
-16 15 -17 11 -15 -57 2 -40 12 -98 23 -128 28 -80 103 -226 161 -316 58 -89
69 -119 53 -145 -8 -12 -9 -27 -3 -42 11 -29 -3 -47 -36 -47 -16 0 -30 -10
-41 -30 -12 -21 -27 -32 -52 -36 -19 -4 -55 -22 -80 -41 -36 -28 -51 -34 -77
-30 -49 8 -59 -11 -43 -79 16 -64 7 -87 -32 -92 -14 -2 -40 6 -58 17 -26 15
-44 18 -81 14 -76 -9 -102 29 -59 84 22 28 25 45 11 71 -5 9 -12 25 -15 34 -4
14 -18 18 -68 20 -35 1 -73 1 -85 0 -21 -1 -22 3 -18 39 4 30 2 41 -11 46 -22
8 -15 57 27 188 62 196 89 314 83 357 -5 28 -3 42 7 48 15 10 31 287 17 306
-5 7 -6 31 -2 54 6 39 6 42 -14 36 -17 -6 -21 -1 -27 23 -5 23 -21 39 -63 66
l-56 35 -26 -24 c-30 -28 -67 -38 -92 -25 -10 5 -34 42 -54 81 l-36 71 49 95
c65 128 120 186 226 242 78 41 86 48 92 80 22 129 63 195 137 225 23 9 38 20
32 23 -5 4 -13 12 -18 17 -6 6 -7 3 -3 -7 4 -12 1 -18 -8 -18 -18 0 -20 21 -3
38 7 7 13 22 13 35 1 12 2 35 3 51 l2 29 25 -37 c14 -20 25 -39 25 -42z"/>
<path d="M3200 2195 c0 -14 4 -25 9 -25 4 0 6 11 3 25 -2 14 -6 25 -8 25 -2 0
-4 -11 -4 -25z"/>
<path d="M3126 2075 c-60 -24 -122 -74 -109 -86 5 -3 30 -14 56 -24 40 -15 51
-16 72 -5 41 22 86 140 53 140 -7 0 -39 -11 -72 -25z"/>
<path d="M2797 1930 c-27 -5 -71 -17 -98 -26 -44 -16 -50 -21 -47 -43 4 -33
40 -51 100 -51 76 0 126 28 180 103 l19 27 -53 -1 c-29 -1 -75 -5 -101 -9z"/>
<path d="M1982 1885 c-10 -12 -8 -23 10 -60 18 -37 27 -45 49 -45 15 0 37 8
49 18 22 18 22 19 6 44 -16 24 -72 59 -93 58 -4 -1 -14 -7 -21 -15z"/>
<path d="M2227 1836 c-26 -7 -50 -15 -53 -18 -6 -6 91 -68 106 -68 6 0 10 12
10 28 0 15 3 37 6 50 7 26 1 26 -69 8z"/>
<path d="M2430 541 c0 -16 18 -80 26 -89 8 -11 54 34 54 53 0 43 -10 55 -46
55 -26 0 -34 -4 -34 -19z"/>
</g>
</svg>
