<?xml version="1.0" standalone="no"?>
<!DOCTYPE svg PUBLIC "-//W3C//DTD SVG 20010904//EN"
 "http://www.w3.org/TR/2001/REC-SVG-20010904/DTD/svg10.dtd">
<svg version="1.0" xmlns="http://www.w3.org/2000/svg"
 width="480.000000pt" height="360.000000pt" viewBox="0 0 480.000000 360.000000"
 preserveAspectRatio="xMidYMid meet">
<metadata>
Created by potrace 1.16, written by Peter Selinger 2001-2019
</metadata>
<rect width="1" height="360" fill="#000000"/>
<rect x="479" width="1" height="360" fill="#000000"/>
<rect width="480" height="1" fill="#000000"/>
<rect y="359" width="480" height="1" fill="#000000"/>
<g transform="translate(0.000000,360.000000) scale(0.100000,-0.100000)"
fill="#000000" stroke="none">
<path d="M1130 3345 c-19 -14 -43 -39 -53 -55 -22 -35 -27 -36 -69 -10 -18 11
-36 20 -40 20 -12 0 -10 -68 2 -75 15 -9 12 -35 -3 -35 -7 0 -22 -7 -33 -15
-16 -13 -17 -16 -4 -25 8 -5 32 -10 53 -10 l38 0 -16 -30 c-18 -34 -7 -40 20
-10 18 20 19 20 47 -15 40 -48 61 -47 56 4 -3 39 -3 39 39 46 23 3 52 14 64
24 l22 18 -42 16 c-23 9 -50 17 -61 17 -24 0 -24 4 -6 33 11 18 31 127 22 127
-1 0 -17 -11 -36 -25z"/>
<path d="M2454 2976 c-23 -19 -28 -31 -26 -62 10 -183 4 -255 -75 -887 -5 -38
-11 -50 -32 -60 -23 -11 -91 -123 -91 -150 0 -5 -7 -15 -15 -23 -8 -9 -15 -27
-15 -41 0 -14 -11 -39 -25 -55 -14 -17 -24 -38 -21 -47 2 -9 8 -35 11 -58 5
-35 16 -51 56 -86 l48 -42 -55 -315 c-71 -406 -90 -498 -114 -555 -12 -29 -20
-69 -20 -106 0 -58 -1 -59 -35 -73 -69 -29 -106 -91 -73 -124 9 -9 9 -18 0
-37 -7 -14 -12 -39 -12 -55 0 -15 -6 -41 -14 -57 -16 -32 -36 -87 -43 -120
l-5 -23 1142 0 1141 0 -6 118 c-4 64 -11 146 -15 182 -4 36 -24 217 -45 403
l-38 339 22 116 c88 461 94 513 95 757 0 219 -2 235 -28 335 -15 58 -36 121
-46 140 -11 19 -26 63 -34 97 -40 163 -141 280 -311 359 -83 38 -202 71 -292
80 -46 5 -66 12 -71 23 -12 34 -48 36 -84 4 -9 -8 -51 -21 -93 -28 -52 -9 -94
-24 -132 -47 -66 -40 -233 -184 -233 -201 0 -7 -16 -23 -35 -36 -46 -31 -37
-39 15 -12 22 11 43 21 46 21 3 0 -10 -29 -30 -64 -38 -67 -43 -81 -26 -71 10
6 9 -15 -6 -112 -5 -34 11 -47 18 -15 2 9 8 -4 12 -30 8 -51 20 -62 30 -26 6
25 20 17 31 -20 6 -20 1 -25 -44 -44 -28 -12 -52 -27 -55 -34 -3 -7 4 -30 15
-51 15 -29 17 -44 9 -63 -9 -24 -8 -58 8 -185 7 -59 7 -60 47 -72 22 -6 57
-14 78 -18 34 -5 37 -8 31 -33 -10 -42 -13 -43 -51 -27 -49 21 -51 13 -7 -23
l36 -30 -21 -74 c-12 -40 -24 -81 -27 -91 -3 -9 -23 -26 -44 -37 -49 -25 -81
-65 -78 -99 1 -17 -14 -49 -41 -89 -24 -35 -44 -62 -46 -60 -14 14 -70 178
-81 238 -22 116 -42 179 -85 260 -57 111 -63 156 -44 367 27 298 64 563 91
660 30 107 26 135 -26 171 -44 30 -100 29 -136 -2z m16 -1702 c46 -62 88 -139
104 -191 6 -19 0 -23 -61 -43 -78 -25 -103 -49 -135 -130 -19 -48 -22 -74 -22
-205 0 -104 5 -177 17 -239 10 -48 17 -90 15 -91 -4 -5 -119 22 -125 29 -3 3
2 26 12 52 12 32 17 70 16 123 -2 83 10 176 65 484 35 203 51 277 59 277 2 0
27 -30 55 -66z"/>
</g>
</svg>
