<?xml version="1.0" standalone="no"?>
<!DOCTYPE svg PUBLIC "-//W3C//DTD SVG 20010904//EN"
 "http://www.w3.org/TR/2001/REC-SVG-20010904/DTD/svg10.dtd">
<svg version="1.0" xmlns="http://www.w3.org/2000/svg"
 width="480.000000pt" height="360.000000pt" viewBox="0 0 480.000000 360.000000"
 preserveAspectRatio="xMidYMid meet">
<metadata>
Created by potrace 1.16, written by Peter Selinger 2001-2019
</metadata>
<rect width="1" height="360" fill="#000000"/>
<rect x="479" width="1" height="360" fill="#000000"/>
<rect width="480" height="1" fill="#000000"/>
<rect y="359" width="480" height="1" fill="#000000"/>
<g transform="translate(0.000000,360.000000) scale(0.100000,-0.100000)"
fill="#000000" stroke="none">
<path d="M2 3373 l3 -227 60 -13 c159 -33 553 -103 663 -117 144 -19 318 -21
394 -5 29 6 100 24 158 41 155 45 237 57 415 64 262 10 595 -30 913 -109 l134
-34 36 31 c79 67 133 127 130 143 -2 12 -22 20 -70 29 -68 13 -100 25 -130 52
-15 13 -16 17 -3 35 12 18 12 22 0 31 -36 27 63 120 238 226 50 30 92 61 95
68 3 9 -305 12 -1517 12 l-1521 0 2 -227z"/>
<path d="M4596 3564 l-68 -35 7 -47 c7 -51 65 -195 102 -254 32 -52 29 -55
-14 -17 l-38 33 -3 -45 c-4 -65 -10 -76 -26 -54 -12 17 -15 13 -30 -41 -10
-32 -19 -67 -22 -76 -7 -25 -24 -22 -24 3 0 21 -1 20 -20 -4 -12 -16 -27 -24
-35 -20 -9 3 -22 0 -29 -6 -11 -9 -15 -9 -19 1 -4 9 -11 7 -24 -8 -10 -12 -25
-24 -34 -27 -34 -11 -31 -54 5 -109 47 -70 64 -166 47 -262 -20 -114 -48 -173
-113 -240 -54 -56 -58 -62 -41 -74 10 -7 101 -67 203 -134 102 -66 202 -134
223 -150 34 -27 40 -29 67 -18 22 9 38 9 60 2 l30 -11 0 815 0 814 -67 0 c-57
-1 -79 -6 -137 -36z"/>
<path d="M1575 2793 c-133 -15 -201 -35 -380 -110 -205 -86 -354 -112 -558
-95 -65 5 -101 4 -106 -3 -14 -17 -78 -221 -115 -365 -47 -180 -148 -791 -235
-1410 -39 -284 -81 -678 -81 -777 l0 -33 1433 0 1432 1 42 62 c73 109 102 165
124 238 24 80 24 132 -3 776 -9 227 -9 316 2 457 12 157 12 176 -3 190 -18 18
-47 11 -47 -11 0 -8 -4 -12 -10 -8 -5 3 -7 12 -4 19 3 7 -2 19 -11 26 -22 18
-19 58 14 206 28 120 69 242 107 317 l16 30 -37 -7 c-45 -9 -135 16 -190 51
-95 62 -187 159 -229 241 -20 39 -27 42 -216 93 -330 90 -733 138 -945 112z"/>
<path d="M4290 1757 c0 -8 19 -63 43 -123 40 -101 43 -114 37 -175 -3 -37 -2
-77 1 -90 4 -13 8 -53 8 -89 l1 -65 56 95 c31 52 67 108 81 124 17 20 22 36
18 50 -4 12 -17 63 -30 115 -13 51 -27 97 -32 101 -48 44 -100 70 -140 70 -29
0 -43 -4 -43 -13z"/>
<path d="M4454 338 c-38 -46 -93 -113 -122 -149 -63 -81 -88 -98 -153 -106
-50 -6 -51 -6 -45 -36 3 -16 6 -33 6 -38 0 -5 148 -9 330 -9 l330 0 0 185 0
184 -37 10 c-55 15 -195 41 -219 41 -13 0 -44 -28 -90 -82z"/>
</g>
</svg>
