<?xml version="1.0" standalone="no"?>
<!DOCTYPE svg PUBLIC "-//W3C//DTD SVG 20010904//EN"
 "http://www.w3.org/TR/2001/REC-SVG-20010904/DTD/svg10.dtd">
<svg version="1.0" xmlns="http://www.w3.org/2000/svg"
 width="480.000000pt" height="360.000000pt" viewBox="0 0 480.000000 360.000000"
 preserveAspectRatio="xMidYMid meet">
<metadata>
Created by potrace 1.16, written by Peter Selinger 2001-2019
</metadata>
<rect width="1" height="360" fill="#000000"/>
<rect x="479" width="1" height="360" fill="#000000"/>
<rect width="480" height="1" fill="#000000"/>
<rect y="359" width="480" height="1" fill="#000000"/>
<g transform="translate(0.000000,360.000000) scale(0.100000,-0.100000)"
fill="#000000" stroke="none">
<path d="M2980 3543 c-6 -32 -12 -66 -14 -75 -6 -25 11 -23 19 2 9 27 24 25
23 -2 -3 -50 3 -89 11 -83 9 5 31 -53 31 -81 0 -13 -43 -34 -68 -34 -42 0 -53
-39 -25 -88 15 -26 15 -35 4 -70 -8 -23 -10 -46 -5 -53 5 -8 10 -52 12 -98 1
-49 9 -98 18 -117 9 -18 12 -38 8 -45 -5 -9 -2 -10 12 -4 22 11 100 13 110 3
3 -4 -4 -23 -16 -43 -12 -20 -20 -38 -18 -40 2 -2 24 9 48 25 25 17 48 30 51
30 3 0 3 -22 -1 -50 -5 -38 -4 -47 6 -39 8 7 13 3 18 -13 13 -51 6 -84 -24
-113 -16 -16 -30 -38 -30 -49 0 -21 -81 -103 -205 -211 -72 -62 -215 -231
-215 -253 0 -10 3 -13 8 -7 4 6 16 17 26 25 18 14 19 13 14 -12 -6 -34 -2 -35
21 -6 38 46 27 -3 -26 -112 -86 -180 -106 -250 -100 -340 3 -41 21 -131 41
-200 41 -144 53 -215 62 -357 l7 -102 -159 -103 c-193 -126 -239 -155 -329
-204 -68 -38 -73 -39 -165 -39 -52 1 -120 4 -151 8 -55 8 -56 9 -70 50 -8 23
-33 66 -57 95 -34 42 -39 52 -23 47 30 -9 26 6 -9 40 -38 36 -38 61 1 114 28
39 29 44 15 60 -19 20 -12 31 19 31 25 0 55 29 55 53 0 9 5 17 10 17 20 0 9
50 -25 114 -19 37 -35 76 -35 89 0 54 -51 85 -84 51 -9 -8 -20 -12 -26 -9 -5
3 -16 3 -22 -1 -7 -5 -40 -9 -74 -9 -145 -4 -216 -106 -249 -360 -10 -79 -34
-190 -61 -281 -78 -271 -84 -309 -74 -469 4 -77 14 -158 22 -180 l13 -40 102
-1 102 -1 4 81 c2 44 9 99 15 121 5 22 13 76 17 120 6 62 9 75 16 57 5 -13 18
-26 29 -29 26 -7 25 -10 -10 -43 -37 -34 -37 -43 -3 -74 l27 -25 -22 -24 c-27
-29 -28 -45 -1 -73 19 -20 20 -27 10 -55 -22 -62 -38 -59 285 -59 l296 0 -7
28 c-5 26 -2 30 52 56 92 45 509 183 520 172 3 -3 -27 -167 -44 -233 l-5 -23
701 0 701 0 -26 53 c-35 70 -74 134 -226 380 -72 114 -128 213 -125 220 9 25
-12 118 -42 180 -25 53 -33 85 -42 188 -12 132 -7 289 11 352 10 33 14 36 35
31 29 -7 30 -1 10 57 -14 39 -14 50 1 118 15 70 21 80 64 118 26 23 53 56 60
73 7 16 19 30 26 30 8 0 15 8 16 18 0 9 4 -3 7 -27 8 -57 31 -67 32 -14 0 21
3 32 6 26 9 -23 33 -14 33 13 0 26 -14 130 -30 223 -7 35 -6 58 0 66 13 15 -5
115 -31 173 -24 54 -8 46 27 -13 22 -39 28 -43 40 -31 8 8 14 19 14 25 0 25
39 7 89 -42 l54 -52 -6 63 c-5 57 -4 62 15 62 19 0 19 2 -7 48 -39 67 -16 40
39 -47 50 -78 69 -88 42 -21 -9 22 -16 43 -16 45 0 8 73 -33 83 -47 6 -9 7 -6
4 9 -3 12 0 24 7 26 7 3 3 13 -11 28 -22 24 -58 98 -51 105 2 2 28 -15 57 -37
29 -22 55 -39 57 -37 2 2 -6 39 -16 83 -11 43 -18 80 -15 83 3 3 -2 16 -10 28
-27 41 -83 188 -89 234 -5 38 -1 59 29 130 66 156 104 266 110 327 7 61 -8
246 -26 316 l-10 37 -644 0 -644 0 -11 -57z m-1390 -3050 c0 -27 -7 -57 -15
-67 -15 -20 -15 -19 -15 1 0 43 13 113 21 113 5 0 9 -21 9 -47z"/>
</g>
</svg>
