<?xml version="1.0" standalone="no"?>
<!DOCTYPE svg PUBLIC "-//W3C//DTD SVG 20010904//EN"
 "http://www.w3.org/TR/2001/REC-SVG-20010904/DTD/svg10.dtd">
<svg version="1.0" xmlns="http://www.w3.org/2000/svg"
 width="480.000000pt" height="360.000000pt" viewBox="0 0 480.000000 360.000000"
 preserveAspectRatio="xMidYMid meet">
<metadata>
Created by potrace 1.16, written by Peter Selinger 2001-2019
</metadata>
<rect width="1" height="360" fill="#000000"/>
<rect x="479" width="1" height="360" fill="#000000"/>
<rect width="480" height="1" fill="#000000"/>
<rect y="359" width="480" height="1" fill="#000000"/>
<g transform="translate(0.000000,360.000000) scale(0.100000,-0.100000)"
fill="#000000" stroke="none">
<path d="M0 1800 l0 -1800 936 0 935 0 -15 22 c-22 31 -20 68 10 178 14 52 39
147 55 210 15 63 46 169 68 235 l41 119 -30 27 c-26 24 -30 35 -30 76 1 26 7
59 15 73 12 21 11 27 -1 41 -13 14 -13 22 0 60 43 127 134 472 140 528 3 35
11 70 17 77 6 8 9 20 6 28 -3 8 1 22 8 33 8 10 15 26 15 37 0 15 -3 16 -15 6
-22 -18 -19 2 6 45 20 33 21 45 16 153 -4 64 -7 123 -7 130 0 10 -5 10 -21 1
-17 -9 -25 -7 -46 13 -27 25 -73 108 -73 131 0 8 7 20 15 27 22 18 130 39 203
40 47 0 62 3 62 14 0 12 18 15 85 14 67 0 85 -4 85 -15 0 -11 9 -13 44 -8 65
10 190 -13 215 -39 19 -20 19 -24 5 -67 -8 -25 -25 -58 -38 -74 l-23 -29 -27
27 c-40 40 -45 32 -5 -9 l34 -36 -22 -15 c-21 -14 -23 -23 -23 -123 0 -92 3
-111 20 -133 25 -32 27 -56 4 -36 -16 13 -16 9 -9 -46 4 -33 11 -67 15 -75 5
-9 12 -45 15 -80 9 -78 50 -235 111 -423 43 -130 45 -140 29 -157 -15 -16 -15
-22 -2 -60 18 -53 8 -103 -26 -137 l-24 -25 42 -131 c24 -73 50 -166 60 -207
9 -41 30 -122 46 -180 32 -118 37 -185 13 -218 l-15 -22 940 0 941 0 0 1800 0
1800 -2400 0 -2400 0 0 -1800z"/>
</g>
</svg>
