<?xml version="1.0" standalone="no"?>
<!DOCTYPE svg PUBLIC "-//W3C//DTD SVG 20010904//EN"
 "http://www.w3.org/TR/2001/REC-SVG-20010904/DTD/svg10.dtd">
<svg version="1.0" xmlns="http://www.w3.org/2000/svg"
 width="480.000000pt" height="360.000000pt" viewBox="0 0 480.000000 360.000000"
 preserveAspectRatio="xMidYMid meet">
<metadata>
Created by potrace 1.16, written by Peter Selinger 2001-2019
</metadata>
<rect width="1" height="360" fill="#000000"/>
<rect x="479" width="1" height="360" fill="#000000"/>
<rect width="480" height="1" fill="#000000"/>
<rect y="359" width="480" height="1" fill="#000000"/>
<g transform="translate(0.000000,360.000000) scale(0.100000,-0.100000)"
fill="#000000" stroke="none">
<path d="M0 3065 l0 -535 26 0 c15 0 41 9 58 19 17 10 58 24 91 31 33 7 72 19
87 26 27 14 28 17 27 97 -3 209 117 451 271 549 57 36 159 68 219 68 103 0
115 6 188 94 37 44 89 105 117 134 l49 52 -567 0 -566 0 0 -535z m550 495 c0
-5 -4 -10 -9 -10 -6 0 -13 5 -16 10 -3 6 1 10 9 10 9 0 16 -4 16 -10z"/>
<path d="M1234 3575 c9 -14 41 -85 70 -158 l53 -132 76 -27 c114 -39 184 -83
267 -168 80 -81 126 -150 168 -252 22 -53 26 -82 30 -188 4 -124 3 -126 -27
-182 -29 -55 -30 -58 -17 -105 7 -26 24 -77 37 -112 23 -62 24 -64 5 -75 -57
-33 -59 -40 -52 -159 8 -129 18 -162 75 -251 22 -36 41 -68 41 -71 0 -3 -11 2
-25 11 -24 16 -25 16 -18 -2 5 -11 19 -39 31 -62 13 -24 22 -46 19 -48 -2 -2
-23 11 -47 28 l-43 32 8 -87 c4 -48 4 -87 2 -87 -3 0 -13 26 -23 58 -18 60
-29 51 -22 -19 2 -21 0 -40 -5 -42 -5 -1 -11 -30 -14 -63 l-5 -61 51 -54 c53
-56 60 -69 37 -69 -8 0 -22 -10 -30 -22 -14 -19 -13 -24 10 -51 27 -32 99
-176 110 -220 6 -28 8 -28 53 -22 69 9 75 -3 49 -99 -21 -77 -21 -78 -1 -104
11 -16 40 -34 69 -44 27 -9 55 -26 63 -37 12 -19 11 -25 -13 -59 -43 -62 -35
-103 44 -237 37 -61 93 -162 126 -223 l58 -112 1178 0 1178 0 0 1800 0 1800
-1791 0 -1791 0 16 -25z m2016 -685 c8 -5 11 -12 8 -16 -11 -10 -60 5 -53 16
8 12 26 12 45 0z m1500 -289 c0 -24 -21 -61 -35 -61 -27 0 -30 31 -6 52 25 20
41 23 41 9z m-610 -130 c0 -7 -51 -31 -67 -31 -2 0 1 9 7 20 11 20 60 29 60
11z m-1694 -1023 c10 -15 -23 -37 -46 -31 -25 7 -25 19 -2 32 23 14 39 14 48
-1z m2134 -902 c0 -16 -18 -31 -27 -22 -8 8 5 36 17 36 5 0 10 -6 10 -14z"/>
<path d="M0 1985 c0 -173 2 -315 4 -315 11 0 132 191 170 267 44 89 102 241
95 247 -12 11 -244 116 -255 116 -12 0 -14 -57 -14 -315z"/>
<path d="M0 775 l0 -775 35 0 c39 0 39 0 69 152 20 96 20 100 -1 97 -35 -3
-44 1 -53 27 -8 19 -6 34 9 62 58 112 89 250 59 269 -7 4 -18 22 -24 40 -11
30 -11 32 15 35 22 3 26 8 29 39 2 21 12 45 23 54 10 10 19 27 19 38 0 10 10
56 22 101 22 86 20 122 -8 150 -19 20 -12 60 19 104 30 44 288 174 411 208 50
14 98 28 106 30 10 4 6 11 -16 24 -41 27 -94 37 -94 19 0 -8 -7 -4 -16 9 -13
18 -25 22 -72 22 -35 0 -66 -6 -79 -15 -16 -11 -22 -12 -25 -3 -3 9 -29 3 -86
-20 -44 -18 -90 -32 -102 -32 -34 0 -93 29 -130 64 -45 42 -90 76 -101 76 -5
0 -9 -346 -9 -775z"/>
<path d="M563 173 c-9 -3 -13 -31 -13 -89 l0 -84 30 0 c28 0 30 2 30 40 0 47
-19 140 -28 139 -4 0 -13 -3 -19 -6z"/>
</g>
</svg>
