<?xml version="1.0" standalone="no"?>
<!DOCTYPE svg PUBLIC "-//W3C//DTD SVG 20010904//EN"
 "http://www.w3.org/TR/2001/REC-SVG-20010904/DTD/svg10.dtd">
<svg version="1.0" xmlns="http://www.w3.org/2000/svg"
 width="480.000000pt" height="360.000000pt" viewBox="0 0 480.000000 360.000000"
 preserveAspectRatio="xMidYMid meet">
<metadata>
Created by potrace 1.16, written by Peter Selinger 2001-2019
</metadata>
<rect width="1" height="360" fill="#000000"/>
<rect x="479" width="1" height="360" fill="#000000"/>
<rect width="480" height="1" fill="#000000"/>
<rect y="359" width="480" height="1" fill="#000000"/>
<g transform="translate(0.000000,360.000000) scale(0.100000,-0.100000)"
fill="#000000" stroke="none">
<path d="M1598 3553 c12 -80 5 -302 -12 -400 -18 -99 -96 -322 -127 -362 -11
-13 -19 -28 -19 -33 0 -17 -102 -160 -164 -231 -55 -62 -109 -111 -229 -204
-103 -80 -326 -173 -502 -209 -119 -25 -423 -18 -523 12 l-22 6 0 -1066 0
-1066 1304 0 1303 0 23 133 c28 169 49 250 105 417 62 183 78 250 125 513 22
124 46 254 54 290 9 43 10 70 3 82 -5 10 -14 56 -21 103 -10 79 -13 86 -37 92
-65 18 -109 73 -109 137 0 15 16 59 35 97 19 39 35 72 35 74 0 10 -100 -8
-178 -33 -106 -33 -133 -31 -146 13 -9 33 -15 35 -57 18 -12 -5 -18 0 -23 18
-7 29 -18 32 -126 40 -49 3 -126 21 -220 50 -257 80 -244 75 -344 128 -33 18
-45 20 -78 11 -30 -8 -38 -8 -38 3 0 8 5 14 10 14 6 0 10 5 10 11 0 7 -11 8
-29 4 -29 -6 -51 8 -31 20 17 10 11 22 -12 29 l-23 5 23 23 22 23 83 -17 c51
-11 112 -33 162 -59 72 -37 98 -44 255 -70 96 -16 185 -33 198 -39 25 -11 85
-13 119 -4 12 3 24 17 27 30 6 24 7 24 38 8 22 -11 33 -13 36 -5 2 6 11 20 21
32 l17 21 84 -25 c121 -35 210 -47 260 -35 41 11 41 11 24 36 -13 20 -14 26
-3 33 8 5 18 9 22 9 5 0 7 6 4 13 -2 7 -20 12 -41 12 -35 0 -39 4 -71 60 -19
33 -38 66 -41 73 -4 8 2 20 15 28 11 8 21 19 21 23 0 8 -32 22 -55 25 -15 2
-45 53 -45 77 0 16 -4 19 -16 15 -13 -5 -14 -3 -7 6 5 7 10 23 11 36 0 13 17
45 36 72 l35 49 -30 66 c-36 81 -36 128 0 133 30 5 257 -75 296 -103 17 -12
46 -26 65 -30 52 -11 74 -25 135 -84 66 -64 81 -107 96 -264 6 -77 17 -126 35
-170 18 -43 28 -87 32 -144 2 -44 7 -85 11 -90 3 -5 34 -33 69 -62 65 -57 81
-86 63 -119 -8 -15 -7 -28 5 -51 13 -26 13 -35 3 -47 -10 -12 -5 -29 28 -97
40 -80 41 -88 62 -285 12 -111 28 -220 36 -241 7 -22 17 -72 21 -112 5 -58 12
-77 30 -94 13 -12 21 -25 17 -28 -12 -13 -42 -7 -52 11 -9 15 -10 15 -11 1 0
-9 9 -28 20 -42 25 -31 25 -37 1 -37 -18 0 -51 36 -64 70 -5 13 -6 13 -6 -1
-1 -8 10 -37 23 -62 25 -50 24 -62 -5 -47 -9 6 -25 7 -33 4 -25 -10 -43 12
-66 82 -12 35 -26 66 -31 70 -29 18 68 -237 193 -505 55 -118 117 -266 137
-328 l36 -113 458 0 457 0 0 1800 0 1800 -1605 0 -1605 0 8 -47z"/>
<path d="M3433 1535 c-18 -88 -17 -174 1 -220 8 -22 15 -64 16 -93 0 -58 27
-189 40 -197 12 -7 18 17 26 97 5 61 0 102 -29 248 -20 96 -37 186 -39 200 -2
17 -7 5 -15 -35z"/>
</g>
</svg>
