<?xml version="1.0" standalone="no"?>
<!DOCTYPE svg PUBLIC "-//W3C//DTD SVG 20010904//EN"
 "http://www.w3.org/TR/2001/REC-SVG-20010904/DTD/svg10.dtd">
<svg version="1.0" xmlns="http://www.w3.org/2000/svg"
 width="480.000000pt" height="360.000000pt" viewBox="0 0 480.000000 360.000000"
 preserveAspectRatio="xMidYMid meet">
<metadata>
Created by potrace 1.16, written by Peter Selinger 2001-2019
</metadata>
<rect width="1" height="360" fill="#000000"/>
<rect x="479" width="1" height="360" fill="#000000"/>
<rect width="480" height="1" fill="#000000"/>
<rect y="359" width="480" height="1" fill="#000000"/>
<g transform="translate(0.000000,360.000000) scale(0.100000,-0.100000)"
fill="#000000" stroke="none">
<path d="M0 1800 l0 -1800 2400 0 2400 0 0 1800 0 1800 -2400 0 -2400 0 0
-1800z m1861 568 c21 -21 27 -34 19 -42 -5 -5 -10 -13 -10 -18 0 -4 78 -9 172
-10 l173 -3 -3 -76 -4 -76 159 -2 c326 -4 639 -30 909 -77 211 -36 240 -43
261 -67 25 -27 143 -347 143 -387 0 -19 -9 -35 -25 -48 -34 -27 -286 -109
-404 -132 -283 -55 -719 -51 -1101 11 -69 11 -154 24 -190 29 -36 4 -141 22
-235 40 -177 33 -272 67 -352 126 -76 57 -227 205 -249 245 -13 22 -42 61 -64
87 -32 35 -40 53 -38 76 4 40 18 42 56 5 l31 -31 18 39 c30 64 57 71 298 78
116 3 220 8 233 11 19 4 22 11 22 47 0 42 -1 42 -69 79 -60 33 -77 38 -144 40
-73 1 -108 10 -95 23 3 3 41 1 85 -5 43 -5 94 -10 113 -10 19 1 58 -2 87 -6
45 -6 52 -4 62 15 13 24 79 71 99 71 8 0 27 -14 43 -32z"/>
<path d="M1890 2256 c-5 -15 -10 -32 -10 -37 0 -5 -12 -14 -26 -19 -19 -7 -25
-16 -22 -33 3 -21 8 -22 98 -25 52 -2 114 0 138 3 40 6 42 8 42 40 0 19 -5 46
-12 60 -10 22 -18 25 -58 25 -26 0 -68 3 -93 6 -44 6 -47 5 -57 -20z"/>
</g>
</svg>
