<?xml version="1.0" standalone="no"?>
<!DOCTYPE svg PUBLIC "-//W3C//DTD SVG 20010904//EN"
 "http://www.w3.org/TR/2001/REC-SVG-20010904/DTD/svg10.dtd">
<svg version="1.0" xmlns="http://www.w3.org/2000/svg"
 width="480.000000pt" height="360.000000pt" viewBox="0 0 480.000000 360.000000"
 preserveAspectRatio="xMidYMid meet">
<metadata>
Created by potrace 1.16, written by Peter Selinger 2001-2019
</metadata>
<rect width="1" height="360" fill="#000000"/>
<rect x="479" width="1" height="360" fill="#000000"/>
<rect width="480" height="1" fill="#000000"/>
<rect y="359" width="480" height="1" fill="#000000"/>
<g transform="translate(0.000000,360.000000) scale(0.100000,-0.100000)"
fill="#000000" stroke="none">
<path d="M2385 2191 c-108 -19 -206 -94 -254 -194 -25 -52 -69 -243 -78 -339
l-5 -58 -75 0 c-59 0 -75 -3 -80 -16 -12 -31 25 -45 107 -42 l75 3 2 -83 c4
-184 72 -283 256 -377 92 -46 103 -49 175 -50 88 0 193 24 302 68 95 39 148
74 233 156 148 142 184 286 113 453 -9 21 -16 61 -16 90 0 102 -84 200 -240
282 -102 54 -166 75 -290 96 -119 21 -157 22 -225 11z"/>
</g>
</svg>
