<?xml version="1.0" standalone="no"?>
<!DOCTYPE svg PUBLIC "-//W3C//DTD SVG 20010904//EN"
 "http://www.w3.org/TR/2001/REC-SVG-20010904/DTD/svg10.dtd">
<svg version="1.0" xmlns="http://www.w3.org/2000/svg"
 width="480.000000pt" height="360.000000pt" viewBox="0 0 480.000000 360.000000"
 preserveAspectRatio="xMidYMid meet">
<metadata>
Created by potrace 1.16, written by Peter Selinger 2001-2019
</metadata>
<rect width="1" height="360" fill="#000000"/>
<rect x="479" width="1" height="360" fill="#000000"/>
<rect width="480" height="1" fill="#000000"/>
<rect y="359" width="480" height="1" fill="#000000"/>
<g transform="translate(0.000000,360.000000) scale(0.100000,-0.100000)"
fill="#000000" stroke="none">
<path d="M0 1800 l0 -1800 954 0 955 0 16 78 c10 42 42 152 72 244 40 123 51
172 44 185 -16 30 -23 107 -13 134 8 20 7 30 -4 41 -14 13 -13 22 5 74 42 128
111 405 117 475 3 41 15 101 26 133 16 50 18 78 14 175 -4 104 -3 119 16 149
11 18 18 35 15 38 -10 11 -46 -16 -67 -51 -27 -44 -66 -45 -90 -3 -28 51 20
87 150 112 59 11 78 19 96 41 17 22 31 28 80 32 53 5 62 3 87 -21 29 -27 71
-41 147 -51 93 -11 132 -59 94 -113 -19 -27 -36 -28 -59 -2 -10 11 -22 17 -26
13 -14 -16 12 -257 37 -331 27 -83 28 -86 13 -76 -32 20 33 -257 115 -491 33
-95 34 -101 18 -115 -14 -12 -18 -31 -18 -87 -1 -50 -6 -80 -18 -98 -16 -25
-15 -30 32 -178 28 -84 57 -187 67 -229 l16 -78 955 0 954 0 0 1800 0 1800
-2400 0 -2400 0 0 -1800z"/>
</g>
</svg>
