<?xml version="1.0" standalone="no"?>
<!DOCTYPE svg PUBLIC "-//W3C//DTD SVG 20010904//EN"
 "http://www.w3.org/TR/2001/REC-SVG-20010904/DTD/svg10.dtd">
<svg version="1.0" xmlns="http://www.w3.org/2000/svg"
 width="480.000000pt" height="360.000000pt" viewBox="0 0 480.000000 360.000000"
 preserveAspectRatio="xMidYMid meet">
<metadata>
Created by potrace 1.16, written by Peter Selinger 2001-2019
</metadata>
<rect width="1" height="360" fill="#000000"/>
<rect x="479" width="1" height="360" fill="#000000"/>
<rect width="480" height="1" fill="#000000"/>
<rect y="359" width="480" height="1" fill="#000000"/>
<g transform="translate(0.000000,360.000000) scale(0.100000,-0.100000)"
fill="#000000" stroke="none">
<path d="M0 1800 l0 -1800 808 4 c444 2 814 5 822 6 8 2 39 -1 68 -5 l52 -8
-1 44 c0 31 -3 38 -8 25 -16 -41 -21 8 -18 161 2 87 1 147 -3 133 -13 -45 -23
126 -13 204 6 39 9 72 8 74 -2 2 -12 -1 -23 -7 -12 -6 -49 -11 -84 -11 -53 0
-72 5 -109 29 -25 16 -55 44 -66 62 -11 19 -39 104 -62 189 -31 116 -57 186
-103 279 -61 124 -84 210 -59 225 6 4 11 17 11 30 0 12 7 31 15 42 24 31 18
42 -38 74 -91 51 -111 78 -136 185 -11 46 -17 53 -74 90 -35 23 -64 49 -66 60
-5 34 -30 53 -98 77 -42 15 -85 40 -120 71 -30 26 -61 47 -69 47 -17 0 -15 -5
-20 92 -3 73 -2 78 23 98 29 23 88 27 127 8 22 -9 29 -8 46 7 28 26 25 53 -21
200 -58 182 -67 239 -46 263 9 10 22 34 28 53 7 19 20 43 29 54 27 30 53 148
48 214 -4 52 -44 144 -131 306 -9 17 -31 74 -48 128 l-31 97 -319 0 -319 0 0
-1800z"/>
<path d="M860 3537 c4 -34 12 -79 19 -100 11 -31 10 -42 -3 -68 -18 -36 -21
-75 -6 -84 6 -3 10 -1 10 4 0 19 18 12 25 -9 4 -11 17 -28 30 -36 23 -15 26
-14 53 8 27 21 30 32 41 120 6 53 20 120 31 148 32 82 35 80 -93 80 l-113 0 6
-63z"/>
<path d="M1520 3586 c0 -19 46 -66 65 -66 23 0 87 35 109 59 l19 21 -96 0
c-75 0 -97 -3 -97 -14z"/>
<path d="M2306 3523 c-6 -82 -38 -224 -79 -358 -21 -67 -26 -108 -31 -255 l-5
-175 38 -27 c40 -29 66 -35 76 -19 9 15 136 25 155 13 13 -8 23 -7 38 4 21 14
21 15 3 47 -23 40 -34 104 -19 114 7 3 23 -8 38 -25 53 -63 84 -31 115 121 3
15 12 27 19 27 8 0 18 -12 24 -27 5 -16 27 -52 48 -80 31 -42 45 -53 67 -53
58 0 64 10 71 122 4 57 9 133 13 171 5 62 4 67 -14 67 -11 0 -28 -9 -38 -20
-24 -26 -37 -25 -65 6 -17 17 -31 23 -46 20 -29 -8 -40 9 -47 69 -3 28 -12 82
-21 120 -9 39 -16 103 -16 143 l0 72 -159 0 -158 0 -7 -77z"/>
<path d="M2990 3585 c0 -20 22 -65 31 -65 4 0 11 5 14 10 3 6 21 10 40 10 31
0 65 27 65 52 0 5 -34 8 -75 8 -59 0 -75 -3 -75 -15z"/>
<path d="M3387 3583 c4 -10 16 -32 28 -49 11 -17 25 -39 30 -48 6 -10 19 -18
29 -19 15 -2 22 9 31 48 7 28 16 58 20 68 6 15 0 17 -69 17 -68 0 -75 -2 -69
-17z"/>
<path d="M3774 3583 c5 -18 14 -95 37 -313 6 -63 8 -137 4 -165 -12 -82 -8
-344 5 -361 20 -23 40 -17 86 26 47 44 51 45 89 30 36 -14 43 -43 33 -138 -11
-100 -4 -112 57 -112 58 0 68 -15 63 -95 -3 -53 -9 -71 -34 -102 -17 -21 -43
-44 -57 -51 -24 -12 -30 -10 -61 13 l-34 26 -39 -18 c-43 -21 -92 -87 -118
-160 -26 -74 -68 -163 -82 -175 -21 -17 -15 -28 13 -28 29 0 94 -62 94 -90 0
-24 -29 -48 -81 -66 -41 -14 -47 -20 -89 -107 -44 -89 -47 -93 -105 -123 -34
-17 -67 -33 -75 -36 -11 -3 -10 -10 8 -33 49 -62 51 -143 5 -245 -47 -104 -81
-218 -108 -362 -37 -197 -51 -243 -85 -282 -45 -51 -121 -80 -192 -73 l-58 5
0 -275 c0 -258 1 -275 18 -268 93 40 127 44 142 15 11 -20 21 -20 800 -20
l790 0 0 1800 0 1800 -516 0 c-486 0 -515 -1 -510 -17z"/>
<path d="M3436 3418 c-3 -7 -7 -31 -10 -53 -2 -22 -8 -61 -12 -87 -7 -51 9
-68 25 -25 14 37 22 165 11 172 -6 3 -12 0 -14 -7z"/>
<path d="M2947 3393 c-12 -12 -7 -94 9 -151 27 -95 45 -104 75 -38 21 49 17
71 -18 99 -12 10 -28 36 -34 58 -12 38 -19 46 -32 32z"/>
<path d="M2933 1870 c4 -47 13 -184 21 -305 9 -121 16 -234 16 -252 0 -35 27
-70 42 -55 5 5 13 64 18 131 5 67 14 130 20 141 5 10 10 27 10 37 0 10 9 36
20 58 15 29 20 59 20 117 0 74 -1 78 -22 78 -15 0 -45 24 -86 68 l-64 67 5
-85z"/>
<path d="M1790 1784 c-40 -62 -89 -92 -125 -76 -31 14 -43 3 -51 -45 -5 -36
-2 -47 25 -86 42 -62 49 -84 61 -190 6 -50 12 -92 13 -94 2 -1 20 2 40 8 30 8
37 15 41 42 10 57 38 452 34 474 -2 16 -10 10 -38 -33z"/>
<path d="M3190 1766 c0 -9 5 -16 10 -16 6 0 10 4 10 9 0 6 -4 13 -10 16 -5 3
-10 -1 -10 -9z"/>
<path d="M2962 200 c0 -14 2 -19 5 -12 2 6 2 18 0 25 -3 6 -5 1 -5 -13z"/>
<path d="M2958 135 c-16 -67 -20 -135 -9 -135 18 0 22 22 19 96 -2 53 -5 62
-10 39z"/>
</g>
</svg>
