<?xml version="1.0" standalone="no"?>
<!DOCTYPE svg PUBLIC "-//W3C//DTD SVG 20010904//EN"
 "http://www.w3.org/TR/2001/REC-SVG-20010904/DTD/svg10.dtd">
<svg version="1.0" xmlns="http://www.w3.org/2000/svg"
 width="480.000000pt" height="360.000000pt" viewBox="0 0 480.000000 360.000000"
 preserveAspectRatio="xMidYMid meet">
<metadata>
Created by potrace 1.16, written by Peter Selinger 2001-2019
</metadata>
<rect width="1" height="360" fill="#000000"/>
<rect x="479" width="1" height="360" fill="#000000"/>
<rect width="480" height="1" fill="#000000"/>
<rect y="359" width="480" height="1" fill="#000000"/>
<g transform="translate(0.000000,360.000000) scale(0.100000,-0.100000)"
fill="#000000" stroke="none">
<path d="M0 1800 l0 -1800 332 2 332 3 58 130 c112 249 155 325 259 455 107
134 125 164 139 223 7 33 6 36 -7 26 -8 -7 -23 -29 -34 -48 -10 -20 -39 -67
-64 -106 -25 -38 -63 -101 -86 -138 -22 -38 -43 -67 -45 -64 -3 2 16 45 41 95
69 140 118 252 110 252 -6 0 -82 -112 -130 -191 -46 -76 -97 -155 -119 -184
-15 -19 -15 -19 -16 11 0 17 7 48 15 67 32 78 12 63 -89 -63 -48 -61 -92 -110
-97 -110 -11 0 -2 43 16 83 23 47 38 138 26 150 -8 8 -11 8 -11 -2 0 -7 -4 -9
-10 -6 -6 3 -10 -4 -11 -17 0 -13 -3 -18 -5 -11 -3 7 -12 9 -20 6 -18 -7 -18
1 1 37 10 19 11 30 4 32 -7 2 1 24 20 52 17 27 28 52 26 57 -3 4 10 31 29 59
19 29 32 58 30 65 -3 7 -1 16 5 20 6 3 11 19 11 36 0 16 5 29 10 29 6 0 10 6
10 13 0 7 9 19 20 27 11 8 20 21 20 29 0 7 8 20 17 27 10 7 15 16 11 19 -4 4
-71 -31 -150 -78 -79 -46 -153 -90 -166 -97 -30 -15 -133 -42 -140 -36 -2 3
19 19 47 37 29 17 50 33 48 35 -5 6 -110 -26 -124 -38 -7 -6 -20 -8 -28 -4
-13 4 -14 10 -5 26 14 26 10 25 -53 -6 l-52 -26 29 31 c17 17 26 31 20 31 -5
0 -2 5 6 10 12 8 10 10 -10 10 -15 0 -32 -6 -39 -12 -10 -10 -15 -10 -18 -1
-2 7 -12 9 -21 6 -15 -6 -15 -4 1 15 11 11 16 25 13 30 -3 6 15 26 41 45 74
54 106 92 99 115 -8 26 29 120 60 153 13 14 24 32 24 40 0 9 11 29 25 45 14
16 28 37 31 47 3 9 9 17 13 17 3 0 15 15 26 33 25 42 60 81 180 196 186 179
303 299 344 353 57 76 98 171 136 321 44 169 82 243 173 342 41 44 83 90 94
102 11 12 44 34 73 49 45 21 71 27 152 30 90 3 99 5 110 26 24 44 16 82 -27
131 -73 82 -45 108 57 52 63 -35 69 -36 104 -25 20 7 52 10 71 7 30 -6 34 -4
48 26 8 17 30 39 48 49 21 10 41 32 55 60 47 95 146 167 265 193 36 8 45 -9 9
-20 -21 -7 -20 -8 8 -14 29 -7 29 -7 -24 -25 -41 -14 -73 -37 -132 -94 -44
-41 -79 -78 -79 -83 0 -4 13 -3 29 2 43 15 153 17 158 2 2 -6 -6 -13 -19 -16
-21 -4 -20 -4 4 -6 42 -2 43 -19 1 -26 -34 -5 -98 -19 -144 -31 -9 -3 -22 -18
-29 -35 -7 -16 -22 -36 -33 -44 -20 -14 -19 -14 6 -45 15 -17 31 -48 37 -68 8
-30 19 -43 58 -64 59 -33 76 -52 68 -74 -5 -12 -14 -15 -34 -10 -15 3 -48 9
-73 12 -43 6 -49 4 -85 -29 l-38 -35 54 -58 c84 -93 103 -145 107 -291 2 -77
-1 -123 -7 -123 -6 0 -10 -9 -10 -20 0 -11 -4 -20 -10 -20 -5 0 -10 7 -10 15
0 8 -4 15 -10 15 -5 0 -10 -4 -10 -9 0 -18 -52 -71 -70 -71 -10 0 -23 -7 -30
-15 -16 -20 -41 -20 -34 0 5 13 2 14 -21 5 -23 -9 -26 -8 -21 5 3 9 0 15 -10
15 -21 0 -33 -39 -22 -77 5 -18 6 -38 2 -44 -10 -16 -6 -162 12 -429 8 -129
13 -250 9 -267 -4 -20 -2 -33 5 -33 5 0 62 23 125 52 82 37 115 57 115 69 0
10 14 28 31 41 28 23 30 29 33 95 1 44 8 78 17 89 13 16 12 16 -8 6 -26 -14
-53 -16 -53 -3 0 5 16 26 35 47 31 32 39 36 70 31 22 -4 50 0 72 9 48 20 92
11 128 -26 28 -29 27 -34 -7 -31 -12 2 -15 -4 -11 -19 4 -16 1 -20 -17 -20
-21 0 -21 -1 -7 -23 12 -18 37 -117 37 -144 0 -2 5 -3 10 -3 14 0 50 -38 50
-53 0 -10 128 -77 149 -77 4 0 8 11 9 24 1 14 13 87 27 163 63 333 92 643 63
643 -8 0 -12 -16 -9 -38 2 -10 -4 -12 -19 -7 -20 6 -34 9 -92 18 -23 4 -47 26
-64 59 -16 30 -34 37 -34 13 0 -8 -4 -15 -10 -15 -18 0 -18 184 1 280 14 72
38 109 126 201 l74 77 -19 33 c-10 19 -24 44 -31 57 -8 16 -16 20 -24 14 -8
-6 -29 9 -65 49 l-54 59 22 44 21 44 -24 59 c-14 32 -32 75 -41 96 -23 53 -7
45 39 -19 66 -93 66 -86 1 60 -15 32 -25 60 -23 62 4 4 61 -61 129 -148 32
-40 172 -249 203 -303 10 -17 13 -17 65 1 41 14 80 19 150 18 147 -2 168 -11
274 -117 137 -138 180 -204 211 -328 67 -266 102 -336 224 -459 85 -85 290
-257 361 -302 14 -8 55 -43 92 -77 36 -33 70 -61 75 -61 17 0 219 -199 203
-200 -17 -1 88 -59 107 -60 7 0 26 -8 42 -18 28 -17 29 -20 17 -44 -8 -15 -12
-29 -8 -32 3 -3 0 -6 -7 -6 -17 0 -3 -20 23 -31 16 -7 12 -8 -19 -5 -26 3 -47
0 -59 -9 -23 -17 -23 -17 29 -38 l40 -17 -75 7 c-69 6 -74 5 -61 -11 8 -9 11
-19 8 -23 -13 -12 -118 -2 -179 17 -34 10 -64 18 -65 16 -7 -7 96 -45 155 -57
78 -16 59 -28 -28 -19 -142 16 -361 82 -460 140 -72 41 -153 80 -169 80 -6 0
-11 -4 -11 -10 0 -5 4 -10 9 -10 5 0 8 -6 8 -13 -2 -12 29 -66 92 -161 47 -73
93 -165 86 -176 -3 -5 11 -36 33 -67 45 -68 67 -117 57 -132 -3 -6 -1 -11 4
-11 6 0 11 -9 11 -20 0 -11 5 -20 10 -20 6 0 10 -4 10 -10 0 -6 -9 -6 -25 0
-23 9 -24 8 -14 -17 12 -31 4 -43 -14 -19 -12 16 -13 16 -14 -3 -1 -16 15 -31
68 -62 46 -28 103 -77 172 -148 88 -92 112 -125 167 -229 l65 -122 98 0 97 0
0 634 c0 498 -3 635 -12 639 -10 4 -10 6 0 6 9 1 12 240 12 1161 l0 1160
-2400 0 -2400 0 0 -1800z m280 -650 c0 -5 -4 -10 -10 -10 -5 0 -10 5 -10 10 0
6 5 10 10 10 6 0 10 -4 10 -10z m3830 -311 c0 -6 -4 -7 -10 -4 -5 3 -10 11
-10 16 0 6 5 7 10 4 6 -3 10 -11 10 -16z"/>
<path d="M1660 1950 c0 -12 101 -128 113 -129 4 -1 7 26 7 59 0 33 -2 60 -4
60 -3 0 -16 -4 -29 -9 -18 -7 -32 -5 -56 10 -17 10 -31 14 -31 9z"/>
<path d="M3000 1931 c0 -15 -3 -57 -7 -92 l-6 -64 63 67 c75 80 94 107 85 116
-3 3 -9 1 -13 -5 -4 -7 -19 -16 -33 -21 -20 -8 -30 -6 -50 9 -33 25 -39 24
-39 -10z"/>
<path d="M4635 1280 c3 -5 11 -10 16 -10 6 0 7 5 4 10 -3 6 -11 10 -16 10 -6
0 -7 -4 -4 -10z"/>
<path d="M2085 1139 c-82 -49 -155 -95 -162 -100 -12 -11 -28 -67 -21 -75 6
-5 57 11 193 60 55 19 108 36 117 36 21 0 31 44 26 117 l-3 53 -150 -91z"/>
<path d="M2560 1167 c0 -79 8 -107 30 -107 9 0 43 -9 75 -20 32 -11 61 -20 64
-20 4 0 4 26 1 57 l-5 57 -82 48 -83 47 0 -62z"/>
<path d="M2387 1053 c-17 -54 -71 -171 -88 -189 -11 -12 -52 -34 -92 -49 -40
-15 -137 -58 -217 -95 -80 -37 -162 -73 -182 -81 -21 -7 -59 -34 -85 -61 l-47
-48 22 -117 c11 -65 40 -184 63 -266 l42 -147 633 0 632 0 5 23 c3 12 13 98
21 192 9 94 20 217 26 275 5 58 10 118 10 133 0 27 0 27 -30 12 -16 -8 -45
-15 -65 -15 -37 0 -44 -10 -20 -30 8 -7 15 -17 15 -23 0 -6 -10 -1 -23 11 -40
38 -49 26 -22 -28 38 -75 30 -80 -22 -12 -26 34 -48 60 -50 59 -1 -2 2 -17 7
-33 46 -135 62 -180 94 -254 21 -46 35 -82 32 -80 -2 3 -35 48 -72 100 -83
118 -159 259 -175 325 -6 28 -17 59 -24 70 -7 12 -64 42 -137 73 -69 29 -134
62 -145 75 -11 12 -35 61 -54 109 -19 48 -37 88 -40 88 -4 0 -9 -8 -12 -17z"/>
<path d="M2884 1004 c3 -9 6 -21 6 -28 0 -12 79 -50 87 -42 5 5 -80 86 -91 86
-4 0 -5 -7 -2 -16z"/>
<path d="M3730 811 c0 -23 62 -156 78 -168 22 -18 33 -16 25 5 -13 32 -103
175 -103 163z"/>
<path d="M4095 571 c-6 -11 13 -26 22 -17 4 3 1 6 -6 6 -7 0 -9 5 -6 10 3 6 4
10 1 10 -3 0 -7 -4 -11 -9z"/>
</g>
</svg>
