<?xml version="1.0" standalone="no"?>
<!DOCTYPE svg PUBLIC "-//W3C//DTD SVG 20010904//EN"
 "http://www.w3.org/TR/2001/REC-SVG-20010904/DTD/svg10.dtd">
<svg version="1.0" xmlns="http://www.w3.org/2000/svg"
 width="480.000000pt" height="360.000000pt" viewBox="0 0 480.000000 360.000000"
 preserveAspectRatio="xMidYMid meet">
<metadata>
Created by potrace 1.16, written by Peter Selinger 2001-2019
</metadata>
<rect width="1" height="360" fill="#000000"/>
<rect x="479" width="1" height="360" fill="#000000"/>
<rect width="480" height="1" fill="#000000"/>
<rect y="359" width="480" height="1" fill="#000000"/>
<g transform="translate(0.000000,360.000000) scale(0.100000,-0.100000)"
fill="#000000" stroke="none">
<path d="M0 1845 l0 -1755 22 -5 c13 -2 149 -14 303 -25 154 -11 397 -29 540
-40 188 -14 356 -20 607 -20 l347 0 44 48 c25 26 68 76 97 112 29 36 58 70 64
75 35 32 170 202 218 276 31 47 96 164 144 259 55 108 116 209 160 269 l72 96
-21 30 c-29 40 -565 577 -597 598 -14 9 -68 26 -120 37 -194 40 -220 53 -322
157 -95 96 -108 125 -108 241 l0 89 38 39 c21 21 59 59 85 83 32 30 47 52 45
65 -2 17 2 21 26 20 18 0 40 10 55 24 66 62 141 76 241 46 44 -13 69 -31 133
-93 152 -147 196 -320 106 -411 l-29 -28 58 -46 c31 -25 90 -69 130 -98 40
-29 126 -97 191 -150 65 -54 124 -98 130 -98 5 0 13 17 16 38 3 20 10 44 14
52 6 11 -5 30 -36 65 -42 46 -44 52 -38 89 7 45 23 74 107 192 81 114 91 142
89 246 -1 53 2 89 9 93 6 4 21 24 34 44 21 32 23 44 16 83 -9 44 -33 96 -71
149 -15 22 -17 32 -8 63 6 21 8 40 5 43 -3 3 -29 -4 -57 -17 -28 -12 -75 -24
-103 -27 -61 -6 -94 15 -128 80 -11 23 -45 68 -74 100 -30 32 -54 66 -54 76 0
10 -18 30 -40 45 -21 14 -44 35 -50 45 -9 17 -5 24 20 43 l31 22 -23 18 c-13
10 -33 18 -44 18 -12 0 -27 7 -35 16 -7 8 -21 13 -30 11 -10 -3 -25 4 -35 14
-9 10 -21 16 -26 13 -5 -4 -24 7 -41 24 -35 33 -87 62 -111 62 -17 0 -179 99
-185 113 -12 29 -186 141 -207 133 -7 -3 -16 -1 -19 4 -4 6 -304 10 -796 10
l-789 0 0 -1755z"/>
<path d="M4305 2372 c46 -44 56 -49 125 -61 79 -13 114 -21 220 -51 l65 -19
-45 -1 c-25 -1 -65 -5 -90 -8 l-45 -7 35 -21 c19 -12 56 -29 83 -39 84 -31 42
-28 -73 5 -61 18 -114 30 -117 26 -12 -11 70 -86 117 -107 57 -25 140 -81 140
-94 0 -5 15 -18 33 -29 17 -10 27 -20 21 -23 -10 -3 -136 27 -233 56 -19 6
-78 13 -130 16 -93 4 -95 4 -69 -12 37 -23 46 -47 16 -40 -13 2 -31 8 -40 12
-28 11 -23 -31 5 -48 12 -8 48 -29 79 -47 32 -19 56 -36 53 -38 -4 -5 -122 28
-249 69 -50 15 -91 27 -93 25 -2 -1 16 -47 40 -102 48 -109 119 -295 138 -361
9 -32 19 -44 40 -52 15 -5 30 -7 33 -4 3 4 6 42 6 86 0 262 70 356 278 372 84
7 98 -2 128 -92 l23 -68 1 263 0 263 -46 19 c-25 11 -52 20 -60 20 -7 0 -47
14 -89 30 -49 19 -93 30 -126 30 -39 0 -65 8 -123 40 -40 22 -79 40 -87 40 -8
0 9 -22 36 -48z"/>
<path d="M3140 1129 c-51 -61 -149 -135 -189 -144 -27 -6 -61 -52 -61 -82 0
-13 -101 -159 -213 -307 -182 -240 -257 -366 -257 -431 -1 -22 -7 -68 -14
-102 l-14 -63 120 0 c130 0 129 0 208 71 15 15 46 40 67 55 103 77 353 315
431 413 20 25 42 51 48 56 41 38 134 203 134 238 0 5 -10 24 -23 41 -13 17
-44 70 -69 117 -49 94 -109 189 -119 189 -3 0 -25 -23 -49 -51z"/>
<path d="M4490 953 c0 -9 185 -133 263 -177 26 -15 47 -23 47 -19 0 12 -158
125 -232 166 -69 39 -78 42 -78 30z"/>
</g>
</svg>
