<?xml version="1.0" standalone="no"?>
<!DOCTYPE svg PUBLIC "-//W3C//DTD SVG 20010904//EN"
 "http://www.w3.org/TR/2001/REC-SVG-20010904/DTD/svg10.dtd">
<svg version="1.0" xmlns="http://www.w3.org/2000/svg"
 width="480.000000pt" height="360.000000pt" viewBox="0 0 480.000000 360.000000"
 preserveAspectRatio="xMidYMid meet">
<metadata>
Created by potrace 1.16, written by Peter Selinger 2001-2019
</metadata>
<rect width="1" height="360" fill="#000000"/>
<rect x="479" width="1" height="360" fill="#000000"/>
<rect width="480" height="1" fill="#000000"/>
<rect y="359" width="480" height="1" fill="#000000"/>
<g transform="translate(0.000000,360.000000) scale(0.100000,-0.100000)"
fill="#000000" stroke="none">
<path d="M2 2899 c3 -673 4 -704 21 -707 33 -7 62 7 132 59 l68 51 91 -98
c138 -148 252 -244 289 -244 39 0 80 44 167 178 36 55 71 101 78 101 7 1 56
-21 110 -48 118 -59 266 -115 348 -132 97 -20 144 11 144 94 0 65 -91 371
-135 458 -18 33 -15 36 85 79 191 83 270 134 270 175 0 25 -117 171 -238 296
l-122 126 92 91 c87 86 92 92 82 119 -5 16 -32 43 -64 65 l-55 37 -620 -3
c-341 -2 -624 -4 -630 -5 -5 -1 -34 1 -63 5 l-52 7 2 -704z"/>
<path d="M3186 3544 c-185 -127 -364 -202 -676 -284 -148 -40 -169 -57 -170
-139 0 -103 107 -363 222 -536 155 -234 468 -460 655 -473 60 -4 64 -3 96 29
26 27 43 64 81 179 27 80 52 152 56 160 14 26 28 -26 40 -149 21 -215 39 -255
133 -288 72 -24 298 -24 415 1 302 64 493 191 691 456 l71 95 0 225 0 225
-112 44 c-359 140 -558 257 -749 439 l-76 72 -299 -1 -299 -1 -79 -54z"/>
<path d="M437 1742 c-48 -53 -147 -305 -172 -437 -19 -102 -15 -178 16 -261
20 -54 104 -190 142 -231 40 -44 7 -35 -80 22 -103 68 -165 98 -248 120 -105
27 -96 46 -93 -207 l3 -221 121 -42 c124 -42 154 -57 154 -80 0 -24 -109 -111
-195 -156 l-85 -44 0 -92 c0 -51 2 -93 6 -93 3 0 40 23 82 51 163 107 300 159
338 128 14 -12 16 -27 10 -106 l-6 -93 249 0 249 0 -18 68 c-10 37 -22 77 -25
90 -14 42 11 21 78 -68 l67 -90 425 0 c234 0 425 2 425 5 0 9 -238 281 -276
315 -129 114 -242 170 -346 170 -21 0 -38 4 -38 9 0 5 48 28 108 51 288 111
431 243 631 585 29 50 89 144 132 211 43 66 79 129 79 139 0 15 -6 17 -48 12
-26 -3 -86 -14 -132 -25 -47 -11 -139 -32 -205 -47 -317 -73 -400 -98 -539
-166 -113 -56 -198 -120 -303 -229 -51 -52 -93 -93 -93 -90 0 3 7 27 15 54 27
89 16 176 -36 277 -65 129 -337 489 -368 489 -4 0 -15 -8 -24 -18z"/>
<path d="M3594 1719 c-12 -4 -31 -20 -42 -36 -21 -29 -132 -301 -132 -322 0
-7 -4 -20 -9 -30 -9 -16 -15 -16 -103 6 -202 51 -434 81 -533 68 -80 -10 -110
-38 -109 -102 2 -82 75 -230 223 -451 94 -140 91 -131 57 -156 -65 -48 -237
-185 -275 -219 -77 -69 -79 -99 -13 -165 27 -26 56 -53 65 -59 38 -30 111 -80
232 -161 l130 -87 443 -3 c409 -2 442 -1 442 14 0 16 1 16 19 0 11 -10 26 -16
35 -14 13 3 12 13 -9 73 -32 91 -32 100 1 78 l27 -17 -7 47 c-9 57 6 63 44 17
32 -39 42 -38 34 4 -3 19 -2 42 3 51 8 14 16 11 58 -24 49 -40 73 -45 55 -11
-18 33 -12 44 15 26 33 -22 38 -20 31 9 -8 32 1 32 70 -1 57 -27 77 -44 203
-177 l73 -77 89 0 89 0 0 641 0 642 -85 -7 c-85 -6 -85 -6 -95 20 -24 61 -100
173 -160 236 -104 107 -137 105 -241 -15 -40 -45 -76 -83 -79 -85 -4 -1 -51
27 -105 63 -54 36 -131 84 -172 108 -41 23 -95 54 -121 69 -66 39 -123 57
-148 47z"/>
</g>
</svg>
