<?xml version="1.0" standalone="no"?>
<!DOCTYPE svg PUBLIC "-//W3C//DTD SVG 20010904//EN"
 "http://www.w3.org/TR/2001/REC-SVG-20010904/DTD/svg10.dtd">
<svg version="1.0" xmlns="http://www.w3.org/2000/svg"
 width="480.000000pt" height="360.000000pt" viewBox="0 0 480.000000 360.000000"
 preserveAspectRatio="xMidYMid meet">
<metadata>
Created by potrace 1.16, written by Peter Selinger 2001-2019
</metadata>
<rect width="1" height="360" fill="#000000"/>
<rect x="479" width="1" height="360" fill="#000000"/>
<rect width="480" height="1" fill="#000000"/>
<rect y="359" width="480" height="1" fill="#000000"/>
<g transform="translate(0.000000,360.000000) scale(0.100000,-0.100000)"
fill="#000000" stroke="none">
<path d="M1570 2670 c-39 -9 -47 -49 -21 -104 27 -54 135 -173 216 -236 66
-51 355 -309 355 -316 0 -3 -9 -3 -20 1 -54 17 -141 -40 -156 -102 -6 -21 21
-151 41 -205 6 -14 0 -16 -53 -11 -50 5 -66 2 -94 -15 -68 -42 -73 -96 -24
-241 l35 -101 -39 -20 c-47 -24 -76 -60 -92 -113 -10 -33 -9 -50 4 -101 30
-114 81 -241 108 -267 37 -37 126 -57 186 -41 l44 12 38 -42 c185 -211 487
-497 632 -602 41 -30 122 -79 179 -110 l104 -56 894 0 893 0 0 93 0 92 -192
105 c-106 57 -263 141 -348 186 -85 44 -270 142 -410 216 -140 74 -299 156
-352 184 l-98 49 0 66 c0 78 -32 282 -62 388 -31 114 -141 396 -211 541 -55
116 -225 262 -320 276 -42 6 -51 3 -73 -17 -18 -17 -24 -33 -24 -66 0 -69 30
-114 109 -166 61 -41 71 -52 84 -94 19 -58 39 -154 34 -160 -2 -2 -16 14 -31
36 -15 21 -44 54 -64 73 -58 53 -238 189 -342 258 -52 35 -147 102 -210 150
-63 47 -149 112 -191 142 -42 31 -110 84 -150 119 -174 145 -309 216 -379 199z"/>
</g>
</svg>
