<?xml version="1.0" standalone="no"?>
<!DOCTYPE svg PUBLIC "-//W3C//DTD SVG 20010904//EN"
 "http://www.w3.org/TR/2001/REC-SVG-20010904/DTD/svg10.dtd">
<svg version="1.0" xmlns="http://www.w3.org/2000/svg"
 width="480.000000pt" height="360.000000pt" viewBox="0 0 480.000000 360.000000"
 preserveAspectRatio="xMidYMid meet">
<metadata>
Created by potrace 1.16, written by Peter Selinger 2001-2019
</metadata>
<rect width="1" height="360" fill="#000000"/>
<rect x="479" width="1" height="360" fill="#000000"/>
<rect width="480" height="1" fill="#000000"/>
<rect y="359" width="480" height="1" fill="#000000"/>
<g transform="translate(0.000000,360.000000) scale(0.100000,-0.100000)"
fill="#000000" stroke="none">
<path d="M0 1800 l0 -1800 1128 0 1127 0 0 78 c0 42 -4 87 -8 99 -11 29 -44
38 -93 24 -64 -18 -87 -13 -143 29 -33 25 -64 40 -81 40 -21 0 -36 9 -56 35
-14 19 -32 35 -38 35 -7 0 -20 6 -30 13 -17 12 -17 17 -5 50 10 27 10 39 1 50
-14 16 -2 34 81 126 56 63 113 144 151 218 21 39 29 71 32 130 3 43 9 104 13
135 6 48 5 56 -6 47 -26 -22 -13 24 37 136 46 103 48 110 29 117 -27 10 -24
36 6 50 14 6 25 15 25 20 0 12 -4 11 -56 -17 -84 -45 -164 -31 -197 34 -20 41
-41 47 -72 23 -63 -50 -115 -13 -79 54 16 29 17 37 6 55 -12 18 -10 28 12 74
33 67 180 209 259 250 31 17 59 37 61 45 2 8 12 50 21 92 18 88 38 117 103
155 33 20 42 29 29 31 -19 4 -23 27 -7 37 6 4 9 14 6 23 -3 10 -1 35 3 57 8
39 8 40 19 15 34 -72 88 -126 135 -133 49 -8 87 -36 140 -105 l43 -57 106 -11
c88 -9 120 -17 185 -48 100 -47 181 -96 187 -113 7 -17 -17 -130 -33 -160 -13
-25 -37 -30 -44 -10 -5 15 -6 15 -42 -58 -52 -104 -137 -134 -219 -79 -34 24
-41 25 -63 13 -14 -8 -38 -32 -53 -54 -15 -22 -40 -50 -54 -62 -29 -26 -35
-76 -12 -102 14 -16 19 -34 17 -60 -1 -11 -5 -10 -15 5 -8 10 -17 16 -21 12
-10 -10 13 -83 36 -112 14 -18 22 -44 24 -74 1 -39 6 -49 28 -62 42 -23 63 -4
60 54 -2 33 1 46 11 46 19 0 35 -22 42 -57 5 -25 0 -37 -24 -64 -52 -58 -138
-38 -162 38 -7 21 -18 43 -24 48 -7 6 -15 18 -19 28 -13 35 -25 15 -29 -46 -5
-103 36 -367 83 -532 31 -109 59 -235 59 -266 0 -11 -7 -19 -16 -19 -12 0 -15
-9 -12 -42 2 -39 1 -42 -22 -43 -14 0 -27 -4 -28 -10 -2 -5 -8 -16 -14 -22 -7
-9 -5 -29 7 -66 24 -77 18 -101 -24 -105 -19 -2 -45 -1 -58 3 -28 7 -28 29 -2
93 11 26 11 36 1 52 -6 11 -12 26 -12 34 0 17 -51 30 -79 21 -23 -7 -45 -66
-37 -98 3 -12 19 -30 36 -39 44 -25 40 -54 -12 -78 -43 -19 -36 -20 1205 -20
l1247 0 0 1800 0 1800 -1059 0 -1059 0 24 -63 c52 -146 65 -269 40 -400 -27
-141 -60 -197 -220 -382 -89 -103 -126 -163 -126 -206 0 -13 -5 -31 -10 -39
-8 -13 -10 -12 -10 3 0 31 -38 93 -118 194 -125 157 -218 285 -241 330 -69
137 -63 342 14 511 l24 52 -1030 0 -1029 0 0 -1800z"/>
<path d="M3016 1837 c-21 -21 -26 -31 -17 -40 6 -6 11 -22 11 -35 0 -14 5 -22
12 -20 15 5 30 61 26 97 l-3 26 -29 -28z"/>
<path d="M2863 1705 c-55 -15 -128 -49 -137 -63 -9 -15 54 -54 93 -59 49 -6
92 23 119 81 12 25 22 48 22 51 0 9 -43 4 -97 -10z"/>
<path d="M1790 1547 c0 -12 -7 -33 -16 -45 -14 -21 -14 -23 8 -31 44 -16 73
29 52 83 -10 25 -44 20 -44 -7z"/>
<path d="M2484 1559 c-6 -11 42 -69 58 -69 11 0 68 61 68 72 0 12 -118 9 -126
-3z"/>
<path d="M1943 1510 c-13 -5 -23 -12 -23 -15 0 -10 34 -60 50 -72 35 -28 135
-8 173 35 18 20 18 20 -38 41 -58 22 -124 26 -162 11z"/>
<path d="M2442 1240 c0 -19 2 -27 5 -17 2 9 2 25 0 35 -3 9 -5 1 -5 -18z"/>
</g>
</svg>
