<?xml version="1.0" standalone="no"?>
<!DOCTYPE svg PUBLIC "-//W3C//DTD SVG 20010904//EN"
 "http://www.w3.org/TR/2001/REC-SVG-20010904/DTD/svg10.dtd">
<svg version="1.0" xmlns="http://www.w3.org/2000/svg"
 width="480.000000pt" height="360.000000pt" viewBox="0 0 480.000000 360.000000"
 preserveAspectRatio="xMidYMid meet">
<metadata>
Created by potrace 1.16, written by Peter Selinger 2001-2019
</metadata>
<rect width="1" height="360" fill="#000000"/>
<rect x="479" width="1" height="360" fill="#000000"/>
<rect width="480" height="1" fill="#000000"/>
<rect y="359" width="480" height="1" fill="#000000"/>
<g transform="translate(0.000000,360.000000) scale(0.100000,-0.100000)"
fill="#000000" stroke="none">
<path d="M0 2500 l0 -1100 33 0 c17 0 38 -4 46 -9 11 -7 5 -13 -24 -25 -20 -9
-41 -16 -46 -16 -5 0 -9 -294 -9 -675 l0 -675 240 0 240 0 -6 28 c-9 36 -35
83 -54 93 -8 5 -33 17 -55 26 -39 18 -40 19 -37 64 3 42 0 49 -28 71 l-32 25
29 33 c23 28 27 41 25 79 -4 55 -7 52 163 180 250 189 373 321 545 586 l26 40
-11 209 -10 208 -63 29 c-51 23 -72 27 -106 23 -54 -8 -89 8 -185 84 -58 47
-85 78 -134 158 l-62 99 1 150 c1 118 6 166 22 227 171 632 863 978 1487 743
152 -57 337 -196 377 -284 41 -90 58 -172 58 -276 0 -122 -10 -159 -54 -204
-24 -24 -39 -52 -46 -86 -13 -58 -53 -135 -87 -167 -13 -13 -52 -36 -86 -53
-51 -25 -67 -39 -90 -80 -16 -27 -43 -65 -60 -83 -35 -37 -120 -82 -153 -82
-13 0 -25 -4 -29 -10 -10 -17 44 -89 82 -108 35 -18 36 -20 16 -30 -13 -7 -23
-26 -27 -50 -3 -21 -14 -46 -23 -55 -34 -30 -168 -117 -181 -117 -23 0 -70 55
-83 98 -6 23 -15 39 -19 37 -4 -3 -11 -34 -15 -70 -6 -55 -4 -70 12 -93 10
-15 19 -40 19 -57 1 -16 13 -58 28 -92 39 -92 56 -228 56 -458 1 -298 15 -508
41 -616 18 -72 20 -95 11 -110 -6 -10 -9 -31 -6 -47 7 -33 -8 -48 -51 -55 -16
-2 40 -5 126 -6 103 -1 159 3 166 10 9 9 20 9 44 0 23 -8 414 -11 1405 -11
l1374 0 0 1800 0 1800 -1264 0 c-1225 0 -1264 -1 -1259 -19 7 -27 -24 -53 -61
-49 -28 3 -31 6 -30 36 l2 32 -1094 0 -1094 0 0 -1100z m2953 1024 c15 -15 25
-29 22 -32 -10 -10 -85 50 -85 69 0 14 30 -4 63 -37z m1160 9 c50 -34 47 -47
-8 -41 -50 6 -130 52 -119 69 10 18 85 1 127 -28z m-1243 -191 c0 -18 -111
-102 -134 -102 -11 0 -6 17 12 36 47 53 122 93 122 66z m-370 -268 c0 -40 -6
-42 -37 -12 -21 20 -22 23 -7 39 23 26 44 13 44 -27z m1263 -311 c-7 -2 -21
-2 -30 0 -10 3 -4 5 12 5 17 0 24 -2 18 -5z m-903 -743 c0 -5 -20 -10 -45 -10
-25 0 -45 5 -45 10 0 6 20 10 45 10 25 0 45 -4 45 -10z m1440 -430 c0 -31
-171 -113 -192 -92 -13 13 38 71 77 88 35 16 115 18 115 4z m-820 -82 c0 -11
-68 -10 -75 1 -3 6 12 9 35 8 22 -1 40 -5 40 -9z m-550 -134 c0 -8 -4 -12 -10
-9 -5 3 -10 10 -10 16 0 5 5 9 10 9 6 0 10 -7 10 -16z m454 -26 c-14 -47 -54
-71 -54 -33 0 15 38 55 53 55 4 0 5 -10 1 -22z m1096 4 c0 -14 -82 -124 -87
-118 -11 11 8 57 38 91 30 34 49 44 49 27z m-1252 -275 c2 -11 -3 -17 -16 -17
-26 0 -34 11 -20 27 14 17 32 12 36 -10z m339 -69 c33 -32 41 -48 23 -48 -13
0 -80 60 -80 71 0 18 25 8 57 -23z m-2769 -115 c-2 -10 -11 -19 -20 -21 -12
-2 -15 2 -11 17 7 25 36 28 31 4z m-255 -30 c29 -16 30 -18 10 -21 -25 -4 -63
14 -63 28 0 15 17 12 53 -7z m-207 -307 c18 -14 18 -16 -16 -51 -53 -56 -90
-79 -102 -67 -17 17 9 68 51 102 41 35 41 35 67 16z m3165 -79 c19 -14 69 -86
69 -98 0 -21 -20 -5 -64 51 -43 55 -45 78 -5 47z m-506 -8 c9 -14 2 -19 -37
-28 -42 -10 -58 -4 -58 20 0 16 7 19 44 19 25 0 48 -5 51 -11z"/>
<path d="M1726 1721 c-3 -5 1 -11 9 -15 8 -3 15 -1 15 4 0 13 -18 22 -24 11z"/>
</g>
</svg>
