<?xml version="1.0" standalone="no"?>
<!DOCTYPE svg PUBLIC "-//W3C//DTD SVG 20010904//EN"
 "http://www.w3.org/TR/2001/REC-SVG-20010904/DTD/svg10.dtd">
<svg version="1.0" xmlns="http://www.w3.org/2000/svg"
 width="480.000000pt" height="360.000000pt" viewBox="0 0 480.000000 360.000000"
 preserveAspectRatio="xMidYMid meet">
<metadata>
Created by potrace 1.16, written by Peter Selinger 2001-2019
</metadata>
<rect width="1" height="360" fill="#000000"/>
<rect x="479" width="1" height="360" fill="#000000"/>
<rect width="480" height="1" fill="#000000"/>
<rect y="359" width="480" height="1" fill="#000000"/>
<g transform="translate(0.000000,360.000000) scale(0.100000,-0.100000)"
fill="#000000" stroke="none">
<path d="M2029 3548 c-72 -92 -129 -231 -129 -317 0 -72 -8 -85 -68 -122 -46
-28 -66 -34 -111 -34 l-56 0 -6 -36 c-3 -22 -16 -46 -33 -60 l-27 -24 64 -80
c35 -44 78 -93 95 -109 30 -28 32 -29 51 -12 18 16 20 16 34 -5 21 -30 5 -61
-65 -124 l-53 -47 59 6 c47 5 57 4 53 -7 -3 -8 -8 -40 -12 -73 l-7 -59 29 34
30 35 18 -72 c9 -40 19 -72 21 -72 3 0 8 10 13 23 8 20 9 18 16 -18 10 -62 16
-74 24 -51 6 15 10 10 20 -24 10 -35 16 -41 33 -37 15 4 22 0 26 -16 5 -20 6
-20 13 -1 4 10 8 37 9 59 2 41 4 39 16 -30 l7 -40 13 30 c15 37 22 23 27 -55
l3 -55 18 42 c16 36 22 41 37 33 27 -15 30 -12 23 16 -5 19 -4 25 5 20 6 -4
11 -25 11 -47 0 -35 -3 -39 -25 -39 -28 0 -32 -20 -14 -67 13 -34 1 -44 -90
-74 -107 -35 -185 -74 -229 -113 l-40 -37 -44 72 c-23 39 -54 84 -69 101 l-25
30 -118 -16 c-274 -37 -399 -12 -636 129 -120 71 -431 225 -454 225 -8 0 -67
-34 -133 -76 -65 -42 -171 -102 -235 -133 l-118 -56 0 -67 0 -66 52 20 c28 10
70 28 92 39 22 10 41 17 43 15 3 -2 -9 -31 -26 -65 -35 -69 -36 -79 -17 -164
14 -60 46 -226 68 -352 6 -33 15 -71 20 -85 9 -24 10 -24 23 -6 8 10 41 104
75 210 34 105 68 209 76 231 8 23 14 54 14 71 0 40 -35 142 -58 169 -17 19
-23 80 -9 102 4 6 31 27 61 48 l56 38 37 -25 c21 -14 57 -35 81 -47 34 -17 42
-27 42 -49 0 -16 -8 -32 -19 -39 -28 -18 -74 -146 -68 -191 3 -31 66 -260 123
-449 15 -50 29 -71 40 -60 7 7 34 118 84 344 l43 192 -28 68 c-14 37 -36 78
-48 91 -15 17 -18 25 -9 34 20 20 154 -45 253 -124 23 -19 17 -60 -13 -96 -15
-18 -37 -63 -49 -100 l-22 -68 58 -205 c95 -342 103 -359 125 -306 5 12 34
134 65 270 l54 248 -29 77 c-17 42 -40 85 -53 95 -21 17 -17 18 155 15 153 -3
180 -5 195 -20 16 -17 16 -19 -15 -45 -22 -20 -40 -50 -57 -100 -14 -40 -25
-80 -25 -90 0 -21 159 -514 171 -529 5 -5 -4 -52 -20 -105 -29 -97 -52 -191
-71 -292 -11 -55 -13 -58 -62 -83 -28 -14 -141 -85 -252 -157 -110 -72 -218
-141 -239 -153 l-39 -22 -122 124 c-68 68 -135 128 -150 134 -57 21 -106 8
-106 -30 0 -18 35 -54 63 -63 24 -9 21 -34 -8 -62 -22 -23 -32 -25 -118 -25
-55 0 -115 -6 -145 -15 l-52 -16 -40 33 c-31 26 -40 40 -40 65 0 48 -9 63 -40
63 -22 0 -30 -7 -40 -32 -6 -18 -20 -52 -31 -76 -26 -59 -25 -70 21 -129 21
-29 49 -74 60 -102 12 -27 32 -59 45 -71 21 -20 32 -22 74 -17 47 6 51 4 63
-21 18 -38 59 -40 120 -7 l50 27 83 -26 c101 -32 273 -66 337 -66 52 0 86 16
377 182 220 126 296 176 343 225 49 51 103 170 174 385 33 98 61 178 64 178 5
0 3 -449 -3 -630 -3 -83 -7 -103 -35 -156 -36 -72 -102 -228 -102 -243 0 -8
209 -11 681 -11 l681 0 -7 27 c-3 15 -38 96 -76 179 -67 148 -79 184 -59 184
9 0 7 56 -8 185 -5 39 -8 90 -8 115 1 25 3 81 4 124 1 45 6 76 10 70 5 -5 24
-52 41 -104 44 -127 93 -232 133 -282 43 -54 114 -99 417 -263 350 -189 322
-178 466 -171 112 5 250 30 307 56 21 10 33 7 91 -25 81 -45 110 -42 127 10 6
19 9 38 6 43 -3 5 19 7 48 4 51 -4 54 -3 78 29 37 50 52 94 40 116 -8 14 -2
30 29 73 45 64 48 84 15 129 -14 18 -27 50 -31 71 -14 82 -75 91 -85 13 -3
-25 -17 -54 -40 -82 l-36 -42 -44 10 c-25 6 -93 11 -151 11 -114 0 -122 3
-147 62 -10 25 -8 28 23 47 42 25 57 68 30 88 -43 31 -122 -5 -161 -74 -15
-26 -55 -77 -88 -113 -34 -36 -66 -74 -72 -85 -12 -20 -13 -19 -65 9 -30 16
-135 79 -234 140 -99 61 -218 131 -265 156 l-84 45 -17 95 c-9 52 -31 146 -48
209 -22 78 -29 117 -22 125 6 7 40 104 76 217 37 112 75 232 87 267 11 36 18
77 15 95 -5 32 5 60 29 84 6 7 24 43 38 80 38 99 34 96 125 101 45 2 81 1 81
-3 0 -4 -8 -17 -18 -30 -10 -12 -29 -54 -42 -93 l-24 -71 43 -183 c24 -101 53
-223 64 -273 11 -49 26 -99 33 -109 13 -18 13 -18 23 5 11 25 56 205 110 436
l31 131 -31 80 c-19 52 -39 86 -55 96 -23 16 -32 50 -16 71 28 39 160 125 229
149 37 13 42 13 47 -1 4 -9 -2 -25 -14 -38 -11 -11 -31 -54 -45 -95 l-25 -73
25 -91 c13 -50 45 -172 70 -271 25 -99 51 -184 56 -190 16 -16 26 10 54 135
29 130 34 151 71 309 l27 115 -24 70 c-14 42 -35 82 -51 98 -49 46 -39 69 52
122 44 25 83 46 87 46 4 0 36 -19 69 -42 l62 -41 -3 -49 c-1 -27 -10 -57 -19
-66 -8 -10 -23 -52 -31 -93 l-16 -75 84 -215 c47 -118 90 -230 97 -250 17 -46
36 -73 49 -65 11 7 13 19 42 281 35 315 35 284 0 353 -17 34 -31 64 -31 66 0
3 28 -8 63 -23 113 -51 107 -53 107 28 0 47 -4 71 -11 71 -24 0 -238 111 -338
175 -58 37 -115 71 -127 75 -19 7 -58 -9 -211 -88 -103 -54 -228 -123 -278
-154 -113 -70 -175 -101 -255 -128 -69 -23 -85 -18 -74 24 6 25 7 25 20 9 7
-10 14 -15 14 -11 0 15 -42 296 -51 337 -11 47 -10 48 23 66 15 7 22 18 20 31
-17 97 -14 143 12 201 63 136 44 367 -35 423 -64 46 -204 15 -286 -63 l-33
-31 0 50 c0 158 -109 328 -258 403 l-61 31 -400 0 -401 0 -41 -52z m1142 -915
c-1 -43 -9 -141 -17 -218 -15 -132 -15 -195 2 -274 l7 -34 -46 6 c-56 8 -59 5
-121 -105 -26 -46 -55 -94 -66 -108 l-18 -24 -41 37 c-60 54 -116 87 -205 119
-126 46 -127 47 -107 112 6 17 14 47 20 66 9 33 10 31 9 -25 -1 -87 1 -93 15
-66 6 13 16 22 20 20 5 -2 23 23 42 55 l33 59 7 -39 c7 -45 24 -110 35 -139 6
-15 9 -7 11 30 1 28 5 64 10 80 6 21 7 6 4 -47 -4 -91 10 -105 20 -20 8 70 20
95 30 63 9 -29 25 -26 25 4 0 15 8 40 17 58 l17 32 6 -25 6 -25 22 35 c12 19
22 38 22 43 0 18 19 4 30 -23 7 -16 18 -34 25 -40 11 -9 12 4 8 71 -6 77 -5
81 13 76 50 -15 94 -19 94 -8 0 6 -5 11 -10 11 -6 0 -22 11 -35 25 -42 41 -34
78 42 199 37 58 69 104 71 101 3 -2 4 -39 3 -82z m-964 -175 c-3 -8 -6 -5 -6
6 -1 11 2 17 5 13 3 -3 4 -12 1 -19z m69 -24 c16 -13 51 -33 77 -44 26 -12 47
-25 47 -30 0 -6 17 -10 37 -10 24 0 34 -3 27 -10 -28 -28 -229 45 -229 83 0 9
-4 19 -8 23 -4 4 -7 11 -7 16 0 10 12 4 56 -28z m263 -245 c-8 -5 -17 -9 -21
-9 -13 0 -9 35 4 48 10 10 15 9 22 -8 7 -16 6 -24 -5 -31z m626 -230 c4 -12 1
-27 -9 -38 -8 -9 -30 -48 -47 -86 -17 -39 -33 -72 -34 -74 -2 -1 -20 9 -40 25
l-36 27 34 36 c18 20 50 57 71 84 42 52 52 57 61 26z m-1472 -83 l66 -73 -34
-33 c-19 -19 -36 -32 -38 -29 -2 2 -16 35 -32 72 -15 38 -34 75 -42 83 -14 14
-10 54 6 54 4 0 37 -33 74 -74z m1461 -581 l6 -30 -14 25 c-8 14 -12 28 -9 33
7 11 9 7 17 -28z m1411 -1025 c3 -5 -1 -10 -9 -10 -8 0 -18 5 -21 10 -3 6 1
10 9 10 8 0 18 -4 21 -10z"/>
<path d="M2275 2406 c17 -14 34 -26 39 -26 11 0 11 0 -34 29 l-35 23 30 -26z"/>
<path d="M2 1920 c0 -14 2 -19 5 -12 2 6 2 18 0 25 -3 6 -5 1 -5 -13z"/>
</g>
</svg>
