<?xml version="1.0" standalone="no"?>
<!DOCTYPE svg PUBLIC "-//W3C//DTD SVG 20010904//EN"
 "http://www.w3.org/TR/2001/REC-SVG-20010904/DTD/svg10.dtd">
<svg version="1.0" xmlns="http://www.w3.org/2000/svg"
 width="480.000000pt" height="360.000000pt" viewBox="0 0 480.000000 360.000000"
 preserveAspectRatio="xMidYMid meet">
<metadata>
Created by potrace 1.16, written by Peter Selinger 2001-2019
</metadata>
<rect width="1" height="360" fill="#000000"/>
<rect x="479" width="1" height="360" fill="#000000"/>
<rect width="480" height="1" fill="#000000"/>
<rect y="359" width="480" height="1" fill="#000000"/>
<g transform="translate(0.000000,360.000000) scale(0.100000,-0.100000)"
fill="#000000" stroke="none">
<path d="M1605 3413 c-1 -206 -23 -363 -64 -439 -12 -21 -21 -45 -21 -52 0
-23 -89 -197 -134 -261 -117 -166 -295 -330 -434 -400 -33 -17 -63 -35 -67
-41 -3 -5 -38 -19 -78 -31 -40 -12 -76 -25 -82 -29 -23 -18 -192 -52 -302 -61
-138 -11 -314 0 -406 27 -16 5 -17 -50 -17 -1060 l0 -1066 1484 0 1483 0 7 53
c4 28 13 110 21 182 8 72 26 173 40 225 68 248 96 377 125 563 17 111 41 242
52 292 19 83 20 99 9 209 l-11 118 -50 47 c-35 33 -50 55 -50 73 0 37 34 113
70 156 17 21 39 67 50 103 11 37 34 83 50 104 28 35 29 40 16 61 -14 20 -13
23 7 37 21 14 20 15 -20 10 -27 -4 -43 -2 -43 5 0 12 -13 26 -60 66 -30 25
-32 29 -20 51 16 30 9 40 -31 43 -38 3 -79 37 -79 65 0 13 -5 17 -15 13 -19
-7 -19 -5 5 88 l19 77 -45 56 c-122 149 -87 159 358 104 163 -21 251 -100 316
-288 16 -44 45 -103 65 -131 52 -70 73 -123 92 -227 12 -66 31 -119 70 -200
69 -143 72 -153 86 -330 8 -106 18 -171 35 -222 15 -44 24 -95 24 -133 0 -68
-26 -174 -41 -164 -5 3 -6 10 -3 16 4 6 3 8 -3 5 -5 -3 -15 -32 -22 -64 -7
-32 -20 -75 -29 -96 -14 -34 -17 -37 -28 -22 -11 14 -14 13 -30 -14 -10 -17
-24 -31 -31 -31 -15 0 -17 38 -4 74 6 13 7 41 4 61 -6 35 -6 35 -19 13 -8 -13
-17 -31 -20 -40 -3 -10 -11 -18 -16 -18 -12 0 -7 -17 44 -155 49 -132 101
-239 217 -440 79 -139 181 -353 181 -382 0 -10 61 -13 270 -13 l270 0 0 1800
0 1800 -1598 0 -1597 0 0 -187z"/>
<path d="M3515 2190 c3 -5 8 -10 11 -10 2 0 4 5 4 10 0 6 -5 10 -11 10 -5 0
-7 -4 -4 -10z"/>
<path d="M3622 1710 c-12 -16 -23 -41 -24 -57 -1 -15 -10 -36 -19 -45 -20 -19
-16 -83 7 -129 7 -14 10 -35 7 -47 -3 -15 11 -44 52 -102 31 -44 75 -115 96
-158 l40 -77 -6 110 c-9 152 -27 245 -68 356 -19 51 -38 111 -42 132 -4 20
-10 39 -14 41 -3 2 -16 -9 -29 -24z"/>
</g>
</svg>
