<?xml version="1.0" standalone="no"?>
<!DOCTYPE svg PUBLIC "-//W3C//DTD SVG 20010904//EN"
 "http://www.w3.org/TR/2001/REC-SVG-20010904/DTD/svg10.dtd">
<svg version="1.0" xmlns="http://www.w3.org/2000/svg"
 width="480.000000pt" height="360.000000pt" viewBox="0 0 480.000000 360.000000"
 preserveAspectRatio="xMidYMid meet">
<metadata>
Created by potrace 1.16, written by Peter Selinger 2001-2019
</metadata>
<rect width="1" height="360" fill="#000000"/>
<rect x="479" width="1" height="360" fill="#000000"/>
<rect width="480" height="1" fill="#000000"/>
<rect y="359" width="480" height="1" fill="#000000"/>
<g transform="translate(0.000000,360.000000) scale(0.100000,-0.100000)"
fill="#000000" stroke="none">
<path d="M0 2660 l0 -940 23 4 c28 7 185 22 412 41 328 27 596 14 790 -40 139
-39 236 -35 414 15 141 40 198 49 186 30 -3 -5 -15 -10 -26 -10 -11 0 -17 -5
-14 -10 14 -23 73 -10 115 25 23 19 54 38 69 41 79 18 103 26 108 40 3 7 18
14 34 14 15 0 50 12 76 26 l48 25 200 -6 c574 -17 1134 -44 1249 -61 186 -27
233 -16 260 61 10 31 12 53 6 64 -9 17 -8 19 -25 -34 -7 -24 -25 -17 -25 9 0
24 -23 56 -41 56 -5 0 -9 -4 -9 -10 0 -5 -6 -10 -14 -10 -8 0 -15 17 -19 50
-3 27 -14 62 -24 77 -30 48 -97 115 -128 129 -16 8 -39 22 -50 31 -24 21 -55
83 -55 110 0 10 -5 24 -11 30 -21 21 61 227 121 302 77 96 279 180 402 167
157 -16 366 -179 397 -311 30 -128 64 -253 86 -312 16 -46 21 -70 13 -74 -6
-4 -8 -12 -4 -17 4 -6 -3 -46 -14 -88 -11 -43 -20 -91 -20 -108 0 -28 -1 -29
-15 -10 -15 20 -15 24 -20 -124 0 -25 10 -46 45 -88 25 -31 65 -85 90 -120 25
-34 57 -72 71 -82 39 -31 79 -115 88 -184 5 -38 9 175 10 530 1 533 -1 595
-15 610 -15 14 -15 17 0 27 14 11 16 66 16 539 l0 526 -2400 0 -2400 0 0 -940z
m4776 186 c33 -25 5 -37 -39 -17 -20 9 -34 20 -30 24 11 12 48 8 69 -7z
m-3373 -759 c-37 -58 -62 -88 -84 -101 -33 -19 -59 -21 -59 -3 0 24 52 89 83
102 41 18 71 19 60 2z"/>
<path d="M3736 2234 c-8 -30 -3 -39 18 -31 9 4 12 14 9 27 -8 31 -20 33 -27 4z"/>
<path d="M4460 1900 c0 -6 -5 -8 -12 -4 -7 4 -8 3 -4 -4 9 -14 36 -16 36 -3 0
6 -4 13 -10 16 -5 3 -10 1 -10 -5z"/>
<path d="M2180 1629 c0 -6 -7 -8 -17 -4 -11 4 -14 3 -8 -3 6 -5 37 -14 70 -21
92 -17 144 -67 163 -156 27 -125 -44 -255 -163 -301 -41 -15 -54 -16 -94 -5
-57 14 -95 41 -99 69 -5 32 27 44 86 31 66 -16 114 -5 156 34 41 39 59 96 46
151 -12 53 -36 74 -99 86 -86 16 -107 13 -141 -20 -32 -32 -35 -32 -85 6 -23
17 -139 54 -171 54 -16 0 2 -18 29 -29 l32 -13 -25 -8 c-14 -4 -41 -9 -60 -10
l-35 -2 47 -21 c60 -28 61 -41 3 -35 -25 3 -45 2 -45 -3 0 -5 6 -9 13 -9 7 0
22 -7 33 -16 18 -14 15 -15 -36 -9 -30 3 -82 17 -115 30 -194 78 -294 90 -470
56 -136 -26 -392 -28 -595 -6 -124 14 -541 79 -582 91 -17 5 -18 -37 -18 -780
l0 -786 1886 2 1886 3 37 90 c59 144 108 234 182 338 67 93 69 98 54 119 -22
33 -19 56 14 86 23 21 28 33 24 54 -5 28 -26 38 -80 38 -33 0 -83 18 -83 30 0
3 14 32 31 64 60 110 46 234 -46 421 -24 50 -54 123 -65 164 -22 84 -48 117
-99 131 -47 12 -391 55 -611 76 -221 21 -582 24 -757 5 -120 -13 -134 -13
-157 2 -30 20 -36 21 -36 6z m844 -831 c18 -25 21 -74 7 -83 -15 -9 -51 45
-51 76 0 35 22 38 44 7z m-2669 -328 c7 -12 -63 -33 -95 -28 l-25 3 30 17 c33
19 81 23 90 8z"/>
<path d="M4776 781 c-3 -4 -16 -6 -28 -4 -24 4 -25 0 -19 -78 0 -9 13 -34 28
-55 17 -25 26 -50 24 -71 -1 -17 3 -34 9 -38 7 -4 10 38 10 124 0 118 -7 151
-24 122z"/>
</g>
</svg>
