<?xml version="1.0" standalone="no"?>
<!DOCTYPE svg PUBLIC "-//W3C//DTD SVG 20010904//EN"
 "http://www.w3.org/TR/2001/REC-SVG-20010904/DTD/svg10.dtd">
<svg version="1.0" xmlns="http://www.w3.org/2000/svg"
 width="480.000000pt" height="360.000000pt" viewBox="0 0 480.000000 360.000000"
 preserveAspectRatio="xMidYMid meet">
<metadata>
Created by potrace 1.16, written by Peter Selinger 2001-2019
</metadata>
<rect width="1" height="360" fill="#000000"/>
<rect x="479" width="1" height="360" fill="#000000"/>
<rect width="480" height="1" fill="#000000"/>
<rect y="359" width="480" height="1" fill="#000000"/>
<g transform="translate(0.000000,360.000000) scale(0.100000,-0.100000)"
fill="#000000" stroke="none">
<path d="M890 3582 c-29 -14 -36 -23 -38 -52 -4 -45 34 -85 76 -82 24 2 30 -5
54 -56 15 -31 32 -77 37 -102 6 -25 24 -99 40 -165 45 -185 46 -196 21 -252
-30 -66 -60 -156 -54 -163 3 -2 23 -5 46 -5 l40 0 -8 -40 c-4 -22 -9 -89 -9
-150 -2 -154 -15 -276 -30 -301 -38 -59 -72 -317 -46 -347 6 -8 9 -21 7 -28
-3 -8 -10 -59 -16 -113 -6 -55 -15 -105 -21 -112 -32 -39 -66 -346 -42 -376 7
-8 8 -33 2 -68 -4 -30 -8 -81 -8 -112 -1 -37 -8 -71 -21 -96 -40 -77 -61 -349
-30 -387 10 -12 -8 -275 -20 -290 -11 -14 -28 -127 -33 -212 l-4 -73 48 0 49
0 0 78 c0 92 10 109 64 114 l38 3 0 -97 -1 -98 45 0 45 0 -3 145 c-2 113 -6
148 -17 155 -12 7 -13 29 -4 137 6 70 18 147 27 171 34 89 45 332 17 366 -14
17 6 245 23 266 19 23 25 44 41 151 19 125 19 194 1 222 -21 31 1 218 30 264
l20 32 33 -78 c37 -93 115 -221 211 -346 110 -145 535 -645 666 -785 l62 -65
-39 -60 c-22 -33 -51 -81 -66 -108 -17 -30 -33 -47 -45 -47 -53 0 -92 -41
-123 -130 -7 -21 -30 -59 -50 -85 -43 -57 -61 -98 -70 -160 l-7 -45 1065 0
1065 0 21 35 c17 30 149 195 155 195 4 0 10 -149 8 -193 l-2 -37 273 0 c150 1
277 4 282 8 6 4 15 16 21 27 6 12 25 22 45 25 l34 5 3 583 2 583 -55 -2 c-48
-2 -57 1 -75 24 -11 14 -45 38 -75 53 -53 25 -69 49 -43 59 7 3 65 16 128 28
l115 23 3 289 2 288 -92 -6 -92 -6 -43 40 c-23 21 -51 39 -62 39 -11 0 -26 3
-35 6 -24 9 -20 -23 4 -36 11 -6 20 -14 20 -18 0 -4 -39 -16 -87 -27 l-87 -19
-41 50 c-75 92 -280 290 -342 333 -98 66 -335 151 -420 151 -23 0 -68 7 -100
15 -63 16 -144 20 -108 5 11 -5 29 -11 39 -14 38 -12 9 -14 -67 -5 -102 13
-132 -1 -68 -30 l45 -20 -35 -15 c-19 -8 -47 -18 -64 -22 -16 -3 -25 -8 -18
-11 13 -5 -19 -34 -92 -88 -22 -16 -42 -32 -45 -35 -3 -3 -16 -14 -30 -23 -19
-13 -21 -17 -7 -17 23 0 22 -13 -3 -35 -20 -19 -28 -41 -10 -30 16 10 12 -11
-5 -25 -20 -16 -19 -34 1 -26 17 6 12 -6 -16 -39 -9 -11 -17 -31 -18 -44 -1
-23 1 -22 36 12 36 35 72 49 72 27 0 -5 -8 -28 -17 -50 -37 -85 -149 -78 -251
15 -34 31 -44 35 -61 26 -20 -11 -41 -66 -41 -108 0 -26 -39 -59 -81 -68 -35
-8 -49 -31 -49 -79 0 -23 -9 -45 -26 -66 -22 -26 -34 -31 -63 -29 -55 3 -61 1
-61 -21 0 -11 -15 -37 -34 -57 -40 -45 -56 -75 -56 -102 0 -11 24 -68 54 -128
36 -72 60 -135 71 -187 9 -43 14 -80 12 -82 -2 -3 -26 24 -53 58 -108 139
-296 350 -414 463 -68 66 -150 145 -180 175 l-57 55 -12 136 c-10 121 -52 371
-111 653 -11 55 -18 101 -15 104 3 3 20 1 38 -5 57 -17 80 10 33 40 -22 15
-54 65 -109 171 -20 38 -20 39 -2 52 10 8 34 14 52 14 22 0 31 4 27 13 -3 8
14 22 46 36 28 13 52 22 53 20 2 -2 11 -44 20 -94 35 -181 153 -359 291 -440
32 -19 95 -46 140 -61 152 -50 153 -50 177 -169 13 -66 55 -165 69 -165 5 0
16 13 24 29 13 23 23 29 61 33 74 9 85 26 85 127 0 61 4 93 15 108 8 12 50 40
92 63 162 88 247 169 310 293 65 128 92 320 63 454 -13 60 -61 154 -119 233
l-44 60 -991 0 c-913 -1 -994 -2 -1026 -18z m227 -66 c-3 -7 -8 -35 -12 -62
-10 -78 -8 -77 -76 -41 -35 18 -64 38 -66 44 -2 6 24 25 59 42 68 33 103 40
95 17z m71 -1234 c-5 -61 -28 -52 -28 11 0 75 11 103 22 58 5 -18 8 -49 6 -69z
m-9 -162 c11 0 23 -4 26 -10 6 -10 -11 -155 -20 -170 -8 -13 -95 23 -95 40 0
24 21 143 26 152 3 4 14 4 24 -2 10 -5 28 -10 39 -10z m-43 -347 c-10 -104
-17 -133 -32 -133 -23 0 -25 18 -14 102 13 93 15 98 37 98 13 0 15 -10 9 -67z
m3 -259 c5 -5 -15 -184 -22 -190 -3 -3 -26 -2 -52 2 l-48 7 7 76 c11 123 10
121 65 114 25 -3 48 -7 50 -9z m-70 -356 c-2 -101 -12 -152 -33 -156 -18 -4
-19 1 -12 94 7 90 15 113 39 114 4 0 7 -24 6 -52z m6 -368 c-9 -119 -8 -117
-61 -122 -25 -2 -48 1 -51 5 -6 9 5 160 13 188 3 12 17 16 55 15 l51 -1 -7
-85z m-60 -347 c-7 -94 -16 -125 -32 -109 -8 8 -5 184 3 198 3 4 12 8 21 8 13
0 14 -13 8 -97z"/>
</g>
</svg>
