<?xml version="1.0" standalone="no"?>
<!DOCTYPE svg PUBLIC "-//W3C//DTD SVG 20010904//EN"
 "http://www.w3.org/TR/2001/REC-SVG-20010904/DTD/svg10.dtd">
<svg version="1.0" xmlns="http://www.w3.org/2000/svg"
 width="480.000000pt" height="360.000000pt" viewBox="0 0 480.000000 360.000000"
 preserveAspectRatio="xMidYMid meet">
<metadata>
Created by potrace 1.16, written by Peter Selinger 2001-2019
</metadata>
<rect width="1" height="360" fill="#000000"/>
<rect x="479" width="1" height="360" fill="#000000"/>
<rect width="480" height="1" fill="#000000"/>
<rect y="359" width="480" height="1" fill="#000000"/>
<g transform="translate(0.000000,360.000000) scale(0.100000,-0.100000)"
fill="#000000" stroke="none">
<path d="M0 3003 l0 -598 31 -65 c39 -84 70 -124 108 -139 35 -15 67 -2 145
57 27 20 54 41 60 45 7 5 43 -12 93 -45 163 -106 229 -147 285 -174 55 -27 59
-27 91 -12 33 16 159 177 188 241 14 31 14 31 67 13 118 -42 387 -96 482 -97
92 -1 117 10 122 58 9 74 -77 314 -167 465 -40 68 -42 81 -16 94 10 5 69 57
130 115 126 120 133 137 82 205 -44 59 -240 248 -288 278 -24 14 -43 31 -43
37 0 6 13 29 28 52 16 23 32 48 36 55 6 9 -140 12 -713 12 l-721 0 0 -597z"/>
<path d="M2615 3590 c-22 -5 -87 -13 -145 -20 -275 -30 -318 -42 -331 -93 -8
-29 12 -191 32 -262 20 -73 69 -230 79 -250 5 -11 26 -60 46 -110 42 -105 107
-230 161 -312 76 -115 323 -269 450 -280 39 -4 73 -1 92 7 31 13 78 74 156
208 34 58 52 79 59 72 6 -6 13 -74 17 -153 6 -158 17 -194 72 -227 50 -31 161
-52 305 -57 261 -11 503 43 752 167 94 47 110 59 151 114 164 219 250 414 251
570 0 44 -5 82 -14 96 -8 14 -95 62 -244 135 -296 145 -443 234 -585 357 l-56
48 -604 -1 c-332 -1 -622 -5 -644 -9z"/>
<path d="M3723 1856 c-24 -8 -56 -41 -118 -121 -47 -60 -95 -129 -106 -152
l-20 -42 -82 30 c-199 73 -528 139 -623 124 -64 -9 -84 -33 -84 -96 0 -61 46
-225 89 -321 37 -82 57 -91 52 -22 -1 11 7 28 19 39 11 10 20 29 20 42 0 28
11 29 35 3 22 -24 37 -26 33 -4 -3 18 18 26 70 27 20 0 32 6 32 14 0 54 161
-82 209 -175 11 -21 46 -67 78 -103 32 -35 80 -106 107 -157 57 -108 82 -131
217 -195 78 -37 107 -57 148 -104 29 -32 63 -81 76 -109 30 -63 34 -66 117
-97 85 -33 95 -25 78 60 -7 32 -16 64 -20 72 -4 8 0 21 11 32 11 11 19 28 19
39 0 11 4 20 8 20 5 0 16 32 25 71 20 82 12 107 -47 153 -42 31 -47 67 -16
104 25 31 53 22 103 -30 35 -38 40 -40 80 -35 86 12 93 18 101 88 13 113 84
209 155 209 46 0 149 -49 289 -138 l22 -14 0 116 0 116 -35 0 c-28 0 -36 4
-39 23 -38 186 -54 223 -125 290 -32 30 -75 63 -97 72 -35 15 -42 15 -80 0
-22 -8 -70 -40 -107 -70 -37 -30 -72 -55 -79 -55 -7 0 -29 15 -49 34 -45 43
-223 170 -309 221 -78 46 -115 55 -157 41z"/>
<path d="M272 1805 c-27 -34 -107 -224 -127 -300 -20 -78 -19 -134 4 -225 26
-102 59 -172 120 -254 28 -38 51 -73 51 -77 0 -15 -31 -10 -106 15 -40 14
-104 28 -143 32 l-71 7 0 -229 0 -229 101 -29 c56 -16 110 -37 121 -46 19 -15
20 -19 7 -56 -15 -43 -116 -147 -186 -192 l-43 -27 0 -92 c0 -85 2 -93 19 -93
11 0 69 36 130 79 117 84 198 128 253 136 55 8 71 -14 88 -121 6 -38 13 -77
16 -86 5 -17 27 -18 270 -18 l264 0 -6 28 c-4 15 -22 72 -41 126 -18 55 -33
101 -33 103 0 15 36 -7 91 -55 99 -88 207 -156 281 -180 64 -21 85 -22 455
-22 364 0 389 2 412 19 20 15 23 23 15 40 -5 11 -79 95 -164 187 -291 313
-430 414 -591 431 -33 3 -62 9 -64 13 -3 4 23 29 58 56 187 145 317 309 402
509 48 111 173 467 182 518 8 45 13 46 -347 -72 -85 -28 -196 -66 -247 -85
-103 -39 -279 -126 -309 -154 -10 -9 -47 -39 -81 -65 -34 -26 -97 -85 -139
-132 -43 -46 -80 -82 -84 -80 -4 2 -10 34 -13 69 -7 75 -29 124 -90 198 -45
54 -167 176 -246 245 -24 21 -68 59 -98 86 -60 53 -83 58 -111 22z"/>
<path d="M2645 759 c-25 -23 -48 -52 -51 -64 -8 -32 20 -90 72 -151 87 -103
246 -264 260 -264 7 0 21 11 30 25 16 25 15 27 -25 85 -26 37 -41 69 -39 83 3
19 10 22 56 25 44 3 58 -1 83 -22 29 -25 63 -25 71 -1 2 5 -45 39 -104 75
-146 89 -222 150 -253 204 -15 25 -33 46 -41 46 -8 0 -35 -19 -59 -41z"/>
<path d="M4655 582 c-3 -3 -5 -27 -5 -54 0 -36 -4 -48 -15 -48 -8 0 -15 -9
-15 -19 0 -11 -4 -23 -10 -26 -5 -3 -10 -22 -10 -41 0 -31 -2 -35 -21 -29 -17
6 -20 3 -17 -14 5 -34 -16 -26 -35 13 -9 20 -21 36 -26 36 -15 0 -114 -68
-123 -84 -11 -19 7 -29 38 -22 29 8 76 -15 98 -46 24 -33 20 -86 -9 -128 l-25
-36 21 -42 21 -42 130 0 c111 0 129 2 119 14 -37 45 -31 174 10 199 17 11 19
25 19 172 l0 161 -70 21 c-38 11 -72 18 -75 15z"/>
<path d="M3190 386 c0 -19 44 -50 48 -36 4 12 -26 50 -40 50 -4 0 -8 -6 -8
-14z"/>
</g>
</svg>
