<?xml version="1.0" standalone="no"?>
<!DOCTYPE svg PUBLIC "-//W3C//DTD SVG 20010904//EN"
 "http://www.w3.org/TR/2001/REC-SVG-20010904/DTD/svg10.dtd">
<svg version="1.0" xmlns="http://www.w3.org/2000/svg"
 width="480.000000pt" height="360.000000pt" viewBox="0 0 480.000000 360.000000"
 preserveAspectRatio="xMidYMid meet">
<metadata>
Created by potrace 1.16, written by Peter Selinger 2001-2019
</metadata>
<rect width="1" height="360" fill="#000000"/>
<rect x="479" width="1" height="360" fill="#000000"/>
<rect width="480" height="1" fill="#000000"/>
<rect y="359" width="480" height="1" fill="#000000"/>
<g transform="translate(0.000000,360.000000) scale(0.100000,-0.100000)"
fill="#000000" stroke="none">
<path d="M4128 3277 c-88 -51 -181 -117 -328 -233 -225 -178 -316 -241 -487
-339 -48 -27 -116 -71 -151 -97 -35 -27 -65 -48 -67 -48 -2 0 1 14 7 30 25 73
-37 140 -106 114 -20 -8 -21 -24 -1 -24 14 0 14 -3 0 -31 -21 -40 -32 -43
-103 -25 -96 25 -188 21 -294 -14 -50 -16 -97 -30 -104 -30 -8 0 -14 -5 -14
-10 0 -6 12 -8 28 -5 24 5 25 4 9 -7 -11 -7 -42 -30 -70 -52 -49 -36 -49 -39
-4 -21 23 10 22 -8 -3 -30 -26 -23 -50 -107 -48 -164 2 -41 3 -42 16 -22 22
32 32 25 32 -19 0 -34 -4 -41 -24 -46 -48 -12 -63 8 -69 90 -7 99 -40 171
-111 241 -73 73 -125 95 -229 95 -104 1 -125 16 -156 114 -44 137 -132 236
-276 307 -67 33 -97 42 -166 48 -144 13 -246 -26 -360 -139 -74 -73 -125 -154
-165 -262 -24 -63 -27 -88 -28 -188 -1 -114 -1 -117 37 -192 86 -175 292 -291
487 -275 36 3 85 13 110 22 38 14 51 14 83 4 20 -7 37 -19 37 -27 0 -10 -5
-12 -18 -7 -54 23 -68 19 -138 -47 -38 -35 -88 -79 -111 -97 -42 -32 -53 -57
-33 -77 7 -7 -2 -29 -30 -71 -43 -64 -50 -97 -24 -107 21 -8 31 -1 50 36 14
27 19 29 47 24 30 -6 67 -37 67 -56 0 -5 -14 -23 -32 -40 -20 -20 -27 -34 -20
-39 6 -3 15 -19 21 -34 7 -17 18 -27 31 -27 18 0 20 -6 20 -82 1 -136 17 -265
38 -307 11 -20 23 -56 27 -79 4 -26 14 -46 26 -52 29 -16 27 -102 -3 -122 -21
-14 -23 -25 -26 -106 -4 -87 -3 -92 22 -115 14 -13 26 -33 26 -44 0 -42 -13
-83 -26 -83 -23 0 -34 -45 -34 -135 0 -76 2 -84 24 -98 21 -14 24 -22 19 -59
-3 -29 -13 -50 -29 -64 -18 -14 -27 -37 -34 -80 -13 -77 -13 -74 9 -74 15 0
19 10 23 50 5 51 17 76 25 53 7 -19 30 -16 38 5 12 32 28 -16 21 -64 -4 -34
-2 -44 8 -44 18 0 26 22 26 68 0 55 -10 81 -32 88 -18 5 -20 12 -14 58 6 39
14 56 34 73 26 20 27 24 25 115 -2 81 -5 95 -23 107 -15 10 -20 24 -20 61 0
40 4 51 25 67 29 21 42 91 31 168 -6 36 -13 48 -32 55 -21 8 -24 16 -24 59 0
42 4 52 23 62 12 7 24 15 27 19 3 3 46 12 95 20 50 7 128 23 175 36 47 12 86
21 87 20 1 -1 -9 -29 -22 -63 -37 -91 -45 -191 -28 -378 7 -88 14 -232 16
-320 2 -162 -7 -229 -36 -250 -13 -10 -37 -48 -37 -59 0 -13 24 -5 36 12 13
16 13 16 14 0 0 -17 27 -18 422 -18 367 0 419 2 402 14 -10 8 -17 17 -14 20
10 10 50 -6 50 -20 0 -12 43 -14 248 -14 l247 0 100 111 c124 139 184 215 191
245 4 13 5 57 3 97 -6 115 -37 164 -216 348 -151 155 -153 157 -153 202 0 48
31 283 54 414 15 84 84 333 107 388 l13 30 4 -25 c2 -14 7 -27 11 -30 3 -3 14
-17 24 -32 10 -16 22 -28 27 -28 18 0 61 44 56 57 -3 8 2 13 14 13 11 0 20 7
20 15 0 8 9 19 20 25 11 6 29 30 41 53 12 23 29 51 39 62 10 11 21 31 25 45 4
14 13 32 20 40 7 8 16 26 20 40 4 14 16 43 26 66 10 22 21 74 24 115 9 105 -8
134 -95 167 -92 34 -164 22 -255 -43 -23 -17 -40 -21 -72 -17 -24 2 -43 6 -43
9 0 6 78 77 215 195 61 52 116 102 123 111 12 14 17 14 53 -5 50 -26 113 -21
161 13 18 13 62 33 98 45 83 27 95 46 55 82 -17 15 -43 37 -59 48 l-30 21 47
21 c57 25 60 47 12 68 -29 12 -34 18 -26 32 8 14 129 151 264 300 33 35 1 28
-85 -21z m-1778 -1142 c0 -8 -4 -15 -10 -15 -5 0 -10 7 -10 15 0 8 5 15 10 15
6 0 10 -7 10 -15z m-68 -156 c18 -10 20 -17 14 -60 l-7 -49 50 -35 50 -36 -23
-62 c-13 -34 -41 -111 -61 -172 -21 -60 -43 -116 -48 -123 -17 -22 -100 -52
-217 -79 -63 -14 -159 -39 -214 -55 -54 -16 -100 -28 -101 -26 -1 2 -9 59 -18
128 -14 120 -14 126 4 142 11 9 25 18 31 20 8 3 4 13 -10 28 -23 25 -52 106
-52 144 0 12 9 46 20 76 11 30 20 62 20 71 0 13 11 10 62 -15 53 -26 76 -31
153 -34 119 -5 183 18 263 94 31 29 58 53 60 54 2 0 13 -5 24 -11z m-722 -960
c0 -5 -4 -9 -10 -9 -5 0 -10 7 -10 16 0 8 5 12 10 9 6 -3 10 -10 10 -16z m55
-274 c0 -59 -12 -96 -22 -67 -3 6 -11 12 -18 12 -7 0 -15 -6 -18 -12 -10 -29
-22 8 -22 67 0 60 12 96 22 68 7 -19 33 -16 33 4 0 14 3 15 13 5 7 -8 12 -39
12 -77z m1209 -180 c43 -221 61 -387 52 -477 -8 -69 -20 -84 -45 -54 -7 8 -27
21 -46 30 -24 12 -35 25 -40 49 -4 17 -16 42 -28 54 -15 17 -22 42 -27 100 -9
113 -2 250 16 313 22 77 68 180 76 172 3 -4 22 -88 42 -187z m365 -98 c11 -51
11 -61 -4 -83 -9 -14 -18 -24 -20 -22 -12 12 -21 125 -13 151 13 37 22 26 37
-46z m71 9 c0 -3 -4 -8 -10 -11 -5 -3 -10 -1 -10 4 0 6 5 11 10 11 6 0 10 -2
10 -4z m-1683 -18 c3 6 9 12 14 12 12 0 12 -147 -1 -155 -5 -3 -10 1 -10 9 0
20 -29 21 -36 1 -18 -46 -34 62 -18 122 5 19 9 20 26 10 16 -9 22 -9 25 1z"/>
</g>
</svg>
