<?xml version="1.0" standalone="no"?>
<!DOCTYPE svg PUBLIC "-//W3C//DTD SVG 20010904//EN"
 "http://www.w3.org/TR/2001/REC-SVG-20010904/DTD/svg10.dtd">
<svg version="1.0" xmlns="http://www.w3.org/2000/svg"
 width="480.000000pt" height="360.000000pt" viewBox="0 0 480.000000 360.000000"
 preserveAspectRatio="xMidYMid meet">
<metadata>
Created by potrace 1.16, written by Peter Selinger 2001-2019
</metadata>
<rect width="1" height="360" fill="#000000"/>
<rect x="479" width="1" height="360" fill="#000000"/>
<rect width="480" height="1" fill="#000000"/>
<rect y="359" width="480" height="1" fill="#000000"/>
<g transform="translate(0.000000,360.000000) scale(0.100000,-0.100000)"
fill="#000000" stroke="none">
<path d="M3580 3566 c-189 -67 -271 -116 -360 -214 -95 -106 -152 -231 -180
-392 -19 -118 -13 -110 -73 -104 -30 3 -74 0 -98 -6 -24 -6 -53 -13 -64 -15
-98 -17 -234 -132 -286 -243 -33 -68 -56 -169 -45 -197 5 -15 15 -17 61 -12
63 6 66 2 35 -56 -11 -21 -18 -42 -15 -48 4 -5 27 -7 54 -3 46 6 47 5 73 -32
15 -22 36 -65 48 -97 22 -60 43 -78 63 -58 18 18 49 13 105 -20 43 -24 58 -40
78 -82 22 -48 24 -64 24 -218 0 -276 -34 -558 -100 -827 -30 -124 -117 -402
-126 -402 -2 0 -21 19 -42 42 -73 82 -185 131 -360 159 l-83 13 -90 128 c-49
70 -94 130 -99 133 -5 3 -7 48 -3 103 10 165 -43 366 -165 622 -17 36 -42 94
-55 130 -14 36 -32 83 -41 105 l-17 40 4 -34 c4 -31 3 -32 -10 -16 -7 11 -13
27 -13 36 0 27 -20 33 -21 7 -1 -22 -1 -22 -7 -2 -10 31 -48 74 -66 74 -8 0
-22 -13 -30 -28 -18 -36 -6 -97 49 -242 19 -52 44 -128 54 -168 l19 -74 -21 7
c-44 13 -152 17 -180 6 -18 -7 -34 -25 -45 -50 -9 -22 -33 -50 -52 -63 -43
-29 -56 -55 -70 -143 -19 -112 -12 -126 74 -152 26 -7 36 -25 100 -173 39 -91
78 -183 87 -205 9 -22 58 -98 109 -170 124 -173 230 -343 230 -369 0 -12 -14
-64 -30 -116 -17 -51 -30 -104 -30 -117 l0 -23 1415 0 1415 0 0 1768 0 1768
-65 32 -65 32 -498 0 -497 0 -95 -34z m-221 -2105 c44 -67 179 -194 240 -226
80 -40 63 -65 -43 -65 -40 0 -54 5 -83 30 -18 17 -40 30 -48 30 -24 0 -42 -40
-60 -130 -12 -64 -23 -91 -41 -110 l-26 -25 6 200 c6 200 15 345 21 345 2 0
17 -22 34 -49z"/>
</g>
</svg>
