<?xml version="1.0" standalone="no"?>
<!DOCTYPE svg PUBLIC "-//W3C//DTD SVG 20010904//EN"
 "http://www.w3.org/TR/2001/REC-SVG-20010904/DTD/svg10.dtd">
<svg version="1.0" xmlns="http://www.w3.org/2000/svg"
 width="480.000000pt" height="360.000000pt" viewBox="0 0 480.000000 360.000000"
 preserveAspectRatio="xMidYMid meet">
<metadata>
Created by potrace 1.16, written by Peter Selinger 2001-2019
</metadata>
<rect width="1" height="360" fill="#000000"/>
<rect x="479" width="1" height="360" fill="#000000"/>
<rect width="480" height="1" fill="#000000"/>
<rect y="359" width="480" height="1" fill="#000000"/>
<g transform="translate(0.000000,360.000000) scale(0.100000,-0.100000)"
fill="#000000" stroke="none">
<path d="M0 1800 l0 -1800 1111 0 c744 0 1108 3 1104 10 -10 16 5 50 21 50 8
0 20 -13 25 -30 l11 -30 113 0 112 0 -5 26 c-4 22 -2 25 19 22 18 -2 24 -9 23
-25 l-1 -23 1134 0 1133 0 0 1800 0 1800 -2400 0 -2400 0 0 -1800z m2399 1629
c-13 -25 -26 -24 -34 2 -8 25 13 43 32 27 9 -7 10 -15 2 -29z m-1289 -189 c9
-17 8 -20 -9 -20 -22 0 -35 15 -26 30 10 16 23 12 35 -10z m355 -187 c8 -41
-9 -44 -29 -4 -11 21 -12 31 -3 40 14 14 23 4 32 -36z m997 5 c-10 -10 -16 -8
-30 5 -15 16 -15 19 -2 27 21 13 49 -15 32 -32z m178 -33 c7 -8 9 -22 6 -31
-5 -13 -9 -14 -21 -4 -16 13 -21 50 -6 50 5 0 14 -7 21 -15z m-630 -10 c0 -8
-6 -15 -14 -15 -17 0 -28 14 -19 24 12 12 33 6 33 -9z m-317 -22 c3 -5 2 -16
-2 -26 -6 -15 -9 -16 -25 -4 -11 8 -16 19 -12 25 8 13 33 16 39 5z m145 -36
c6 -5 12 -30 12 -55 l0 -45 -25 23 c-14 13 -25 29 -25 36 0 7 -7 17 -16 22 -9
5 -14 14 -10 20 8 13 46 12 64 -1z m631 -14 c0 -10 -4 -26 -8 -36 -6 -17 -8
-16 -19 8 -7 14 -10 31 -7 36 10 16 35 10 34 -8z m-859 -48 c7 -9 11 -18 8
-20 -9 -10 -38 7 -38 21 0 18 14 18 30 -1z m915 -3 c0 -18 -20 -15 -23 4 -3
10 1 15 10 12 7 -3 13 -10 13 -16z m-313 -33 l5 -31 -18 23 c-17 23 -17 39 0
39 5 0 11 -14 13 -31z m-685 -15 c8 -20 -8 -36 -26 -25 -15 10 -8 41 9 41 6 0
13 -7 17 -16z m510 -9 c3 -9 3 -19 -1 -22 -8 -9 -37 18 -30 28 8 14 24 11 31
-6z m-25 -100 c4 -39 -23 -41 -36 -2 -8 22 -7 30 4 37 19 12 27 2 32 -35z
m711 29 c9 -9 -31 -84 -44 -84 -7 0 -9 9 -4 23 3 12 9 32 12 45 5 21 23 29 36
16z m317 -37 c0 -8 -9 -22 -20 -32 -22 -20 -27 -7 -10 26 12 22 30 25 30 6z
m-433 -29 c6 -9 6 -21 -2 -35 l-12 -23 -13 24 c-18 35 4 63 27 34z m-1007 -56
c0 -13 -3 -12 -15 4 -19 25 -19 40 0 24 8 -7 15 -20 15 -28z m1318 11 c-4 -22
-22 -20 -26 1 -2 10 3 16 13 16 10 0 15 -7 13 -17z m-1628 -81 c0 -13 -11 -10
-38 11 -10 8 -10 13 0 24 10 13 14 12 25 -3 7 -10 13 -24 13 -32z m205 -38
c23 -15 36 -64 18 -64 -18 1 -76 58 -69 68 10 16 22 15 51 -4z m295 -23 c5
-11 10 -30 10 -43 -1 -23 -1 -23 -25 5 -13 15 -22 34 -19 42 8 21 21 19 34 -4z
m1027 -80 c-13 -30 -37 -61 -48 -61 -20 0 -12 39 15 73 32 41 52 34 33 -12z
m-347 -40 c0 -5 -3 -17 -6 -26 -5 -12 -9 -14 -14 -4 -5 7 -6 18 -3 26 6 15 23
18 23 4z m-909 -61 c4 -19 6 -36 4 -38 -1 -2 -15 8 -29 21 -33 31 -35 60 -4
55 16 -2 24 -12 29 -38z m1163 -29 c8 -13 -4 -42 -15 -35 -12 7 -12 44 0 44 6
0 12 -4 15 -9z m-1164 -92 c0 -18 -18 -17 -39 2 -18 17 -20 23 -9 36 11 13 14
12 30 -7 10 -12 18 -26 18 -31z m188 18 c3 -14 -1 -18 -20 -15 -12 2 -24 11
-26 21 -3 14 1 18 20 15 12 -2 24 -11 26 -21z m766 -86 c3 -5 3 -23 0 -40 -5
-22 -12 -31 -23 -29 -17 3 -26 39 -17 64 6 16 32 19 40 5z m700 -28 c4 -9 2
-21 -3 -26 -7 -7 -7 -15 1 -24 9 -11 6 -20 -15 -41 l-27 -27 0 42 c0 71 28
119 44 76z m136 -23 c0 -11 -2 -20 -4 -20 -2 0 -11 -3 -19 -6 -11 -4 -13 1
-10 20 6 31 33 35 33 6z m-510 -13 c0 -16 -37 -57 -50 -57 -11 0 -14 53 -3 63
12 12 53 7 53 -6z m-926 -83 c10 -25 7 -44 -7 -44 -16 0 -40 38 -32 50 9 15
32 12 39 -6z m516 7 c0 -17 -12 -41 -21 -41 -5 0 -9 11 -9 25 0 16 6 25 15 25
8 0 15 -4 15 -9z m630 -37 c0 -13 -37 -44 -52 -44 -14 0 -9 33 8 51 17 19 44
15 44 -7z m-1536 -39 c-9 -22 -34 -26 -65 -10 -30 16 -39 35 -15 35 7 0 19 7
26 15 12 14 16 13 36 -6 12 -12 20 -27 18 -34z m686 -21 c0 -13 -4 -24 -9 -24
-11 0 -22 40 -15 52 9 15 24 -2 24 -28z m660 13 c0 -15 -36 -48 -43 -40 -7 7
4 36 17 45 16 11 26 9 26 -5z m-763 -40 c15 -32 1 -56 -21 -38 -16 14 -21 42
-9 54 11 12 20 8 30 -16z m701 -49 c-4 -27 -28 -36 -28 -10 0 20 8 32 22 32 5
0 8 -10 6 -22z m282 4 c0 -25 -35 -58 -45 -42 -4 6 -4 22 -1 36 8 29 46 34 46
6z m-805 -47 c0 -16 -6 -30 -13 -33 -17 -5 -33 39 -19 56 16 20 32 8 32 -23z
m-157 -19 c3 -20 0 -27 -10 -24 -7 3 -14 17 -16 32 -3 20 0 27 10 24 7 -3 14
-17 16 -32z m427 -26 c10 -16 -16 -43 -28 -31 -11 11 -2 41 12 41 5 0 13 -5
16 -10z m638 -26 c-3 -8 -9 -14 -15 -14 -5 0 -7 -8 -4 -18 4 -12 -2 -26 -15
-38 l-22 -19 5 47 c6 57 24 84 44 67 7 -6 10 -17 7 -25z m-273 -1 c0 -10 -7
-27 -16 -38 -13 -17 -16 -18 -24 -5 -11 18 -13 44 -3 53 13 14 43 7 43 -10z
m-420 -59 c0 -13 -4 -24 -10 -24 -5 0 -10 14 -10 31 0 17 4 28 10 24 6 -3 10
-17 10 -31z m-1056 -3 c20 -22 10 -32 -21 -20 -23 8 -29 20 -16 32 10 11 19 8
37 -12z m326 -38 c0 -19 -14 -16 -36 8 -16 17 -16 22 -4 29 16 10 40 -12 40
-37z m1120 25 c0 -16 -30 -48 -46 -48 -21 0 -24 15 -8 38 16 23 54 30 54 10z
m-504 -29 c3 -6 1 -16 -5 -22 -9 -9 -14 -8 -21 3 -9 15 -4 30 10 30 5 0 12 -5
16 -11z m142 -43 c4 -20 -18 -50 -29 -39 -11 12 2 64 15 60 6 -2 12 -11 14
-21z m-458 -6 c0 -23 -25 -27 -33 -6 -7 16 1 26 20 26 7 0 13 -9 13 -20z m338
-15 c1 -11 -2 -27 -8 -35 -9 -13 -12 -12 -25 4 -8 11 -15 28 -15 39 0 26 44
19 48 -8z m-494 -10 c17 -26 14 -45 -8 -45 -18 0 -59 47 -51 59 11 19 42 12
59 -14z m1384 -87 c-2 -18 -12 -24 -47 -30 -53 -9 -65 -3 -50 23 8 16 17 19
35 15 14 -4 24 -2 24 4 0 5 9 10 21 10 15 0 20 -5 17 -22z m-159 -41 c8 -11 6
-18 -9 -32 -18 -16 -20 -16 -26 -1 -7 19 1 46 14 46 5 0 15 -6 21 -13z m-767
-57 c2 -16 -3 -25 -14 -28 -23 -4 -37 46 -17 59 17 10 28 0 31 -31z m316 -38
c2 -12 -1 -22 -7 -22 -6 0 -11 -7 -11 -15 0 -21 -31 -34 -57 -24 -19 7 -21 12
-14 31 6 15 16 22 29 21 13 -2 22 5 25 18 7 26 31 20 35 -9z m-478 -7 c0 -8
-7 -15 -15 -15 -16 0 -20 12 -8 23 11 12 23 8 23 -8z m-95 -13 c0 -18 -20 -15
-23 4 -3 10 1 15 10 12 7 -3 13 -10 13 -16z m381 -47 c6 -18 -23 -46 -40 -39
-16 6 -22 35 -9 48 10 10 46 3 49 -9z m-66 -35 c13 -8 13 -11 -2 -27 -21 -20
-45 -5 -35 21 7 18 16 20 37 6z m-512 -78 c3 -16 -2 -22 -16 -22 -24 0 -35 23
-19 39 16 16 31 8 35 -17z m597 -53 c0 -13 4 -30 8 -36 5 -7 5 -17 2 -23 -9
-15 -37 -12 -32 3 2 6 0 23 -5 36 -5 14 -6 31 -3 39 8 21 30 8 30 -19z m-275
-4 c0 -19 -20 -29 -32 -17 -15 15 -2 43 17 36 8 -3 15 -12 15 -19z m110 -91
c0 -27 -20 -54 -35 -48 -20 8 -19 33 1 55 18 20 34 17 34 -7z m-65 -29 c0 -13
-8 -21 -22 -23 -17 -3 -23 2 -23 16 0 10 3 22 7 26 13 13 38 1 38 -19z m-297
-7 c-2 -13 -7 -23 -13 -23 -5 0 -11 10 -13 23 -2 15 2 22 13 22 11 0 15 -7 13
-22z m222 -4 c0 -20 -29 -30 -43 -15 -9 10 -8 16 7 26 21 16 36 11 36 -11z
m707 10 c7 -18 -12 -34 -39 -34 -18 0 -25 30 -11 43 12 13 44 7 50 -9z m-152
-14 c8 -13 -13 -40 -31 -40 -17 0 -18 22 -2 38 15 15 25 15 33 2z m73 -127
c-4 -23 -48 -31 -48 -10 0 9 6 18 13 20 25 11 38 7 35 -10z m-441 -9 c8 -21
-13 -42 -28 -27 -13 13 -5 43 11 43 6 0 13 -7 17 -16z m-309 -28 c3 -13 -1
-17 -14 -14 -11 2 -20 11 -22 22 -3 13 1 17 14 14 11 -2 20 -11 22 -22z m1075
-33 c11 -10 -13 -33 -34 -33 -22 0 -24 11 -7 28 13 13 31 16 41 5z m-943 -24
c0 -14 -5 -19 -17 -17 -26 5 -29 38 -4 38 15 0 21 -6 21 -21z m293 -15 c-3 -8
-9 -14 -13 -14 -14 0 -22 20 -16 37 5 12 9 13 21 3 7 -6 11 -18 8 -26z m152
-14 c4 -6 1 -18 -6 -26 -11 -13 -14 -13 -27 0 -8 8 -11 19 -8 25 9 14 33 14
41 1z m-541 -75 c-7 -17 -30 -20 -39 -5 -4 6 -4 18 -1 26 4 11 10 12 25 4 12
-6 18 -16 15 -25z m400 26 c9 -15 -23 -36 -36 -23 -5 5 -7 15 -4 21 9 13 33
14 40 2z m-164 -25 c0 -8 -4 -17 -9 -21 -12 -7 -24 12 -16 25 9 15 25 12 25
-4z m105 -59 c0 -26 -20 -25 -23 2 -3 16 1 22 10 19 7 -3 13 -12 13 -21z m333
11 c19 -19 14 -28 -13 -28 -18 0 -25 5 -25 20 0 22 20 26 38 8z m-635 -21 c3
-8 1 -20 -4 -28 -7 -12 -11 -11 -25 3 -17 17 -12 38 11 38 7 0 15 -6 18 -13z
m757 -17 c0 -23 -31 -27 -49 -7 -14 17 -4 27 26 27 16 0 23 -6 23 -20z m-463
-26 c5 -15 -20 -24 -37 -14 -7 4 -9 13 -5 19 8 14 37 11 42 -5z m368 -14 c0
-9 -11 -16 -27 -18 -20 -2 -28 1 -28 12 0 8 6 17 13 19 21 9 42 2 42 -13z
m-108 -37 c2 -36 0 -43 -15 -43 -10 0 -27 6 -38 14 -15 12 -17 17 -6 27 6 7
12 21 12 32 0 13 6 18 22 15 18 -2 23 -10 25 -45z m10 -79 c9 -23 -13 -40 -32
-24 -12 10 -13 16 -4 26 15 18 28 18 36 -2z m-260 -20 c7 -18 -14 -35 -34 -27
-7 3 -13 14 -13 24 0 24 38 26 47 3z m-369 -60 c2 -12 -4 -24 -12 -27 -19 -7
-40 18 -32 39 8 22 40 13 44 -12z m542 -8 c0 -19 -14 -28 -34 -20 -25 10 -19
34 9 34 15 0 25 -6 25 -14z m-193 -42 c9 -23 -11 -38 -26 -20 -13 16 -7 36 10
36 5 0 12 -7 16 -16z m420 -40 c9 -25 -11 -38 -36 -22 -11 7 -21 18 -21 25 0
19 50 16 57 -3z m-100 -15 c12 -12 6 -54 -11 -68 -7 -6 -19 -4 -34 8 -20 14
-22 21 -13 44 11 28 38 36 58 16z m-622 -28 c0 -8 -8 -19 -17 -25 -22 -13 -44
5 -34 29 7 20 51 16 51 -4z m431 -55 c15 -12 16 -17 7 -27 -10 -10 -15 -9 -28
1 -16 13 -21 40 -7 40 5 0 17 -6 28 -14z m-178 -20 c3 -13 -1 -17 -14 -14 -11
2 -20 11 -22 22 -3 13 1 17 14 14 11 -2 20 -11 22 -22z m-240 -40 c4 -21 -14
-37 -35 -29 -14 5 -18 35 -6 47 12 12 38 1 41 -18z"/>
</g>
</svg>
