<?xml version="1.0" standalone="no"?>
<!DOCTYPE svg PUBLIC "-//W3C//DTD SVG 20010904//EN"
 "http://www.w3.org/TR/2001/REC-SVG-20010904/DTD/svg10.dtd">
<svg version="1.0" xmlns="http://www.w3.org/2000/svg"
 width="480.000000pt" height="360.000000pt" viewBox="0 0 480.000000 360.000000"
 preserveAspectRatio="xMidYMid meet">
<metadata>
Created by potrace 1.16, written by Peter Selinger 2001-2019
</metadata>
<rect width="1" height="360" fill="#000000"/>
<rect x="479" width="1" height="360" fill="#000000"/>
<rect width="480" height="1" fill="#000000"/>
<rect y="359" width="480" height="1" fill="#000000"/>
<g transform="translate(0.000000,360.000000) scale(0.100000,-0.100000)"
fill="#000000" stroke="none">
<path d="M0 1800 l0 -1800 2400 0 2400 0 0 1800 0 1800 -2400 0 -2400 0 0
-1800z m2230 1055 c0 -22 4 -25 33 -25 18 0 41 -6 51 -13 18 -13 18 -16 -9
-60 -36 -63 -30 -75 34 -67 46 6 57 12 99 58 61 66 101 82 200 82 100 0 152
-16 233 -70 35 -24 92 -56 126 -70 79 -33 82 -37 49 -50 -41 -15 -100 -12
-148 9 -57 24 -100 33 -115 23 -6 -4 -15 -34 -18 -67 l-7 -60 104 -32 c93 -29
112 -38 167 -88 51 -46 68 -55 99 -55 29 0 34 -3 22 -11 -11 -8 -3 -9 30 -5
28 4 40 3 31 -3 -10 -6 -5 -11 19 -16 l33 -7 -24 -19 c-17 -13 -20 -19 -8 -19
8 0 24 -7 35 -15 18 -13 17 -15 -24 -31 -28 -11 -38 -20 -30 -25 12 -8 -99
-26 -137 -22 -18 2 -18 1 -3 -9 15 -11 15 -13 -5 -23 -12 -7 -21 -18 -19 -25
5 -20 -17 -28 -62 -23 -38 4 -40 3 -21 -11 18 -13 13 -13 -40 0 -76 17 -76 17
-68 -3 4 -11 3 -14 -5 -9 -16 10 -15 2 10 -66 27 -77 49 -89 71 -42 31 65 168
127 204 92 10 -11 15 -42 16 -112 1 -92 3 -99 24 -107 12 -4 91 -13 175 -20
154 -11 204 -21 193 -38 -3 -5 -1 -12 5 -16 18 -11 10 -25 -15 -25 -18 0 -26
-7 -31 -26 -6 -25 -9 -26 -58 -20 -28 4 -108 18 -179 32 -104 21 -130 24 -143
13 -32 -27 34 -47 216 -64 l145 -14 173 29 c182 31 273 36 431 20 87 -8 135
-25 104 -37 -27 -10 -12 -22 19 -16 29 6 31 5 24 -18 -4 -13 -8 -30 -9 -38 -3
-18 81 -63 105 -55 12 3 18 0 18 -10 0 -10 9 -16 21 -16 17 0 19 -3 10 -14
-14 -17 -8 -22 41 -31 37 -7 44 -25 10 -25 -26 0 -25 -40 0 -67 14 -15 17 -23
9 -23 -11 0 -11 -3 -1 -15 10 -13 9 -15 -9 -15 -19 0 -20 -3 -11 -20 8 -15 8
-20 -1 -20 -7 0 -5 -8 6 -20 24 -27 14 -35 -27 -21 l-33 11 30 -26 c27 -23 28
-25 8 -21 -13 3 -25 1 -29 -4 -3 -5 -22 -2 -42 7 -69 29 -65 29 -53 6 16 -30
14 -32 -20 -32 -18 0 -28 -4 -24 -10 4 -7 -3 -9 -22 -5 -26 5 -27 5 -5 -6 37
-20 27 -34 -20 -30 -23 3 -23 -14 0 -31 39 -28 35 -39 -8 -22 -22 9 -43 14
-46 11 -3 -3 -35 8 -70 25 -36 17 -68 28 -71 25 -3 -3 16 -20 41 -38 25 -18
46 -37 46 -42 0 -9 -7 -5 -107 60 -56 38 -138 59 -336 87 -160 23 -251 48
-336 91 -68 34 -77 36 -154 33 -52 -2 -81 -7 -80 -14 1 -6 12 -45 24 -86 25
-85 21 -120 -16 -144 -23 -15 -27 -15 -51 0 -14 10 -34 38 -46 64 -20 46 -20
46 -30 22 -32 -79 -38 -90 -58 -90 -29 0 -49 53 -52 138 -1 67 -2 68 -25 64
-14 -3 -35 1 -47 7 -18 10 -52 9 -165 -4 -78 -9 -156 -13 -172 -10 -38 9 -63
46 -56 84 11 52 22 50 -388 75 -143 8 -276 18 -295 20 -53 8 -15 -10 52 -23
46 -10 57 -16 60 -33 2 -16 18 -26 67 -43 63 -21 83 -37 62 -49 -6 -4 -8 -13
-4 -21 3 -8 1 -15 -5 -15 -5 0 -113 38 -238 84 -287 104 -275 102 -304 71 -13
-13 -27 -22 -31 -19 -5 3 -9 0 -9 -5 0 -17 -47 -13 -65 6 -11 10 -15 27 -13
45 3 16 2 31 -2 33 -4 3 -50 9 -101 15 -124 14 -125 14 -155 66 l-27 46 21 20
c20 20 24 21 137 9 64 -6 120 -9 124 -7 5 3 23 1 42 -4 38 -11 439 -54 649
-69 74 -6 167 -13 205 -17 l71 -6 57 62 c32 34 71 88 87 120 16 32 43 80 60
107 l31 48 -25 8 c-20 7 -27 18 -36 65 -37 190 -34 184 -94 197 -36 8 -86 57
-86 85 0 11 12 32 26 45 14 13 23 28 20 33 -3 6 4 10 17 11 12 0 35 2 51 3 24
2 34 -4 54 -32 15 -23 22 -44 18 -60 -3 -16 7 -50 29 -95 33 -69 39 -73 35
-27 -1 12 10 36 24 52 31 37 41 69 27 83 -6 6 -11 19 -11 29 0 16 -6 18 -32
13 -30 -5 -37 -1 -72 41 -30 35 -36 48 -26 54 20 12 -5 39 -29 33 -11 -3 -28
5 -42 19 -25 25 -78 60 -142 93 -22 10 -47 29 -57 42 -10 13 -23 23 -29 23
-17 0 -46 73 -32 78 6 2 8 8 5 14 -5 7 2 9 20 4 67 -16 82 -18 64 -7 -9 6 -26
27 -39 47 -18 29 -20 39 -10 57 15 29 79 66 114 67 22 0 27 -4 27 -25z"/>
<path d="M2539 1873 c-14 -43 -44 -99 -81 -150 -65 -90 -86 -153 -51 -153 45
0 243 184 243 226 0 15 -66 130 -79 139 -5 3 -19 -25 -32 -62z"/>
</g>
</svg>
