<?xml version="1.0" standalone="no"?>
<!DOCTYPE svg PUBLIC "-//W3C//DTD SVG 20010904//EN"
 "http://www.w3.org/TR/2001/REC-SVG-20010904/DTD/svg10.dtd">
<svg version="1.0" xmlns="http://www.w3.org/2000/svg"
 width="480.000000pt" height="360.000000pt" viewBox="0 0 480.000000 360.000000"
 preserveAspectRatio="xMidYMid meet">
<metadata>
Created by potrace 1.16, written by Peter Selinger 2001-2019
</metadata>
<rect width="1" height="360" fill="#000000"/>
<rect x="479" width="1" height="360" fill="#000000"/>
<rect width="480" height="1" fill="#000000"/>
<rect y="359" width="480" height="1" fill="#000000"/>
<g transform="translate(0.000000,360.000000) scale(0.100000,-0.100000)"
fill="#000000" stroke="none">
<path d="M2977 3573 c11 -45 44 -115 69 -149 26 -35 23 -44 -15 -44 -39 0
-155 -35 -227 -69 -218 -102 -397 -288 -453 -472 -39 -127 -64 -182 -99 -221
-41 -45 -21 -53 28 -11 l32 27 -7 -35 c-17 -84 -17 -85 -6 -69 8 11 9 -9 6
-70 -5 -69 -3 -81 6 -62 7 12 16 22 21 22 4 0 8 -10 9 -22 0 -13 7 -41 15 -63
l14 -40 -5 55 c-3 51 -3 52 7 20 17 -57 41 -101 49 -88 5 8 12 2 20 -16 12
-25 14 -26 20 -9 6 15 9 13 20 -14 8 -18 19 -33 26 -33 6 0 17 -8 22 -17 9
-16 10 -15 11 7 1 23 2 23 15 -7 19 -44 28 -42 19 3 -5 27 -4 35 5 30 13 -9
15 -65 1 -100 -5 -14 -25 -43 -45 -65 -20 -22 -35 -48 -33 -58 2 -9 19 -28 38
-40 55 -36 60 -42 60 -78 0 -41 19 -61 69 -75 43 -11 51 -23 44 -62 -3 -18 2
-32 20 -49 45 -44 67 -93 67 -148 0 -29 -5 -61 -11 -73 -13 -24 -8 -31 25 -30
23 0 25 -4 24 -37 -1 -20 8 -105 21 -190 27 -180 23 -205 -37 -264 l-39 -38
-27 44 c-14 25 -42 60 -61 78 -19 18 -50 65 -68 104 -19 38 -49 90 -68 115
-31 41 -34 49 -27 90 27 175 -21 356 -110 416 -40 27 -115 36 -217 25 -44 -4
-82 -7 -83 -5 -2 1 -6 21 -9 43 -4 25 -11 41 -19 41 -15 0 -17 -12 -14 -70 1
-35 0 -36 -57 -54 -74 -23 -123 -48 -147 -75 -11 -12 -25 -21 -31 -21 -22 0
-35 -26 -61 -129 l-26 -102 25 -92 c14 -51 30 -113 37 -139 9 -33 32 -69 84
-130 70 -81 85 -91 189 -130 4 -2 -8 -32 -27 -68 -70 -133 -92 -233 -106 -480
-6 -98 -19 -216 -30 -267 -11 -51 -20 -97 -20 -103 0 -7 115 -10 338 -10 l338
0 38 85 c21 47 43 85 48 85 6 0 8 -24 5 -59 -2 -33 -2 -71 0 -85 5 -25 9 -26
69 -26 l64 0 1 38 2 37 10 -37 11 -38 759 0 c742 0 762 0 831 21 39 11 96 35
126 52 51 30 53 32 28 35 -37 4 -35 21 7 62 53 51 47 62 -26 54 -52 -6 -81
-18 -178 -75 -65 -38 -131 -72 -149 -75 -29 -6 -32 -4 -32 18 0 13 -7 33 -15
45 -9 12 -13 32 -10 45 3 13 -4 57 -15 98 -12 41 -25 98 -30 125 -4 28 -20 97
-35 155 -15 58 -32 125 -37 150 -6 25 -14 49 -19 54 -5 6 -9 20 -9 32 0 12 -7
38 -15 57 -16 39 -20 93 -7 101 15 9 29 -8 45 -54 8 -25 16 -37 16 -27 1 15 7
13 36 -14 19 -19 35 -37 35 -41 0 -15 90 -201 95 -197 4 4 -15 192 -40 399
l-6 45 41 -79 c23 -43 43 -76 44 -75 2 2 -7 47 -21 99 -35 140 -50 263 -43
355 4 44 7 64 8 45 4 -59 77 -260 136 -370 54 -100 99 -163 82 -115 -27 75
-65 233 -71 291 l-6 69 25 -48 c32 -59 135 -215 149 -224 6 -4 8 3 4 18 -21
83 -39 241 -47 419 -25 530 -32 631 -46 739 -34 267 -88 484 -174 696 -27 66
-55 148 -64 182 -34 136 -136 297 -226 357 -56 37 -149 59 -219 52 l-56 -6
-45 65 -45 65 -323 0 -322 0 7 -27z m143 -2085 c0 -5 -4 -8 -10 -8 -5 0 -10
10 -10 23 0 18 2 19 10 7 5 -8 10 -18 10 -22z"/>
</g>
</svg>
