<?xml version="1.0" standalone="no"?>
<!DOCTYPE svg PUBLIC "-//W3C//DTD SVG 20010904//EN"
 "http://www.w3.org/TR/2001/REC-SVG-20010904/DTD/svg10.dtd">
<svg version="1.0" xmlns="http://www.w3.org/2000/svg"
 width="480.000000pt" height="360.000000pt" viewBox="0 0 480.000000 360.000000"
 preserveAspectRatio="xMidYMid meet">
<metadata>
Created by potrace 1.16, written by Peter Selinger 2001-2019
</metadata>
<rect width="1" height="360" fill="#000000"/>
<rect x="479" width="1" height="360" fill="#000000"/>
<rect width="480" height="1" fill="#000000"/>
<rect y="359" width="480" height="1" fill="#000000"/>
<g transform="translate(0.000000,360.000000) scale(0.100000,-0.100000)"
fill="#000000" stroke="none">
<path d="M0 1800 l0 -1800 220 0 c121 0 220 1 220 3 0 10 40 228 45 249 6 24
3 29 -21 38 -15 6 -33 9 -39 6 -6 -2 -19 -33 -29 -68 -10 -37 -29 -77 -47 -98
l-30 -35 6 30 c3 17 10 53 13 80 4 28 11 56 16 63 5 8 2 18 -9 25 -13 10 -14
18 -6 40 6 15 17 27 24 27 9 0 12 9 9 28 -2 18 2 35 13 45 8 9 21 30 26 47 14
39 32 49 126 68 l31 7 -15 40 c-26 70 -25 79 6 139 35 66 37 74 16 56 -10 -9
-15 -9 -16 -1 -1 6 -2 14 -3 19 -1 4 -6 27 -10 52 -9 51 -27 90 -51 110 -9 7
-13 21 -10 31 3 10 -1 31 -9 46 -12 24 -15 26 -21 10 -4 -9 -11 -17 -16 -17
-12 0 -12 57 0 64 11 7 8 103 -3 129 -6 13 3 44 28 100 20 45 36 92 36 104 0
12 5 25 10 28 21 13 60 84 54 99 -3 9 5 21 23 32 54 33 118 78 121 86 2 4 7 8
12 8 18 0 90 55 90 68 0 9 -7 23 -16 33 -14 15 -15 26 -5 76 14 68 14 66 6
118 -16 117 -15 124 10 161 14 20 25 44 25 54 0 18 30 50 47 50 6 0 22 15 36
34 21 27 35 34 71 38 34 4 56 15 85 41 21 19 48 38 58 41 11 4 34 24 52 46 48
60 81 73 186 75 83 1 95 4 155 37 57 32 93 42 190 54 25 3 50 28 50 51 0 7 -9
17 -21 24 -19 10 -20 16 -14 67 15 129 22 143 95 221 39 41 70 82 70 93 0 30
30 78 73 117 21 20 183 31 239 17 27 -7 56 -5 110 7 82 19 119 21 134 8 5 -5
42 -21 83 -35 89 -31 105 -44 127 -105 10 -25 25 -55 36 -66 15 -17 21 -18 38
-7 11 6 26 12 34 12 19 0 59 -88 53 -117 -2 -14 1 -23 8 -23 7 0 24 -11 38
-24 23 -22 25 -27 14 -55 -9 -24 -8 -37 5 -64 21 -45 34 -142 19 -151 -6 -4
-11 -16 -11 -28 0 -14 5 -18 16 -14 10 4 22 -1 30 -11 13 -17 15 -16 38 8 12
15 32 32 43 38 17 9 20 18 17 58 -4 45 -3 46 6 16 13 -41 25 -42 44 -4 19 36
95 120 96 104 0 -6 -16 -31 -35 -55 -19 -24 -46 -60 -60 -80 -13 -20 -34 -42
-46 -48 -34 -19 -17 -20 41 -5 61 16 83 19 60 6 -8 -4 -43 -14 -77 -21 -65
-13 -94 -34 -98 -72 -2 -13 -19 -61 -39 -107 -21 -48 -34 -92 -31 -102 7 -21
25 -26 25 -6 0 7 8 3 16 -8 11 -14 18 -16 21 -7 6 17 23 15 23 -2 0 -27 16
-25 48 5 27 26 32 37 32 77 0 73 12 152 22 152 6 0 7 -15 3 -37 -20 -107 -2
-167 41 -136 31 23 54 34 54 26 0 -4 -20 -21 -45 -36 -25 -16 -54 -41 -65 -57
-18 -26 -19 -28 -3 -34 15 -6 14 -9 -6 -19 -26 -13 -36 -43 -21 -67 8 -12 12
-11 30 8 11 12 29 22 38 22 21 0 42 19 42 38 0 10 -9 12 -32 8 l-33 -5 35 10
c19 6 45 15 58 20 14 5 22 5 22 -2 0 -5 -7 -12 -15 -15 -19 -8 -19 -20 0 -28
20 -7 171 141 190 187 7 18 23 41 34 51 12 11 21 23 21 27 0 4 10 19 23 33 54
60 68 85 62 113 -5 22 -4 25 4 13 10 -13 13 -13 22 3 6 9 14 15 20 12 5 -4 2
-17 -7 -30 -9 -13 -14 -30 -11 -37 2 -7 -16 -35 -41 -62 -42 -45 -44 -50 -26
-57 18 -7 18 -8 -2 -8 -11 -1 -31 -12 -44 -26 -29 -31 -22 -31 38 -4 26 12 67
30 91 41 l44 18 -6 78 c-4 48 -3 70 3 57 5 -11 9 -30 9 -42 1 -12 6 -34 11
-48 l10 -26 31 22 c17 12 44 40 61 63 29 40 70 75 53 45 -4 -8 -17 -24 -28
-36 -10 -12 -17 -27 -15 -34 5 -14 -89 -79 -157 -110 l-40 -18 38 0 c21 -1 48
4 59 10 16 9 19 8 13 -2 -12 -19 77 -2 93 18 6 9 12 13 12 9 0 -5 6 -3 13 3 8
6 16 9 19 6 3 -3 32 8 64 24 32 15 70 32 84 36 14 4 30 11 35 15 6 4 21 3 35
-1 25 -9 25 -9 -2 -5 -16 2 -28 0 -28 -5 0 -4 -25 -16 -55 -25 -30 -10 -55
-21 -55 -25 0 -3 -23 -17 -52 -29 -38 -16 -47 -24 -37 -31 11 -7 11 -9 -3 -9
-10 0 -18 -6 -18 -12 0 -9 -3 -9 -9 1 -8 12 -28 11 -137 -4 -136 -18 -194 -37
-201 -66 -3 -10 -10 -15 -17 -13 -12 5 -170 -155 -162 -163 7 -7 91 30 111 48
10 11 27 38 37 61 l18 43 -6 -39 c-7 -38 -6 -38 17 -26 13 7 27 18 31 23 7 12
50 18 42 6 -2 -4 8 -10 23 -12 23 -4 22 -4 -7 -4 -19 0 -46 -5 -60 -12 -27
-12 -115 -72 -140 -95 -13 -11 -37 -18 -107 -28 -8 -1 -9 -7 -2 -20 6 -10 15
-16 20 -12 6 3 22 7 37 9 24 3 25 2 7 -11 -10 -8 -29 -14 -42 -14 -28 0 -43
-31 -36 -77 5 -28 8 -31 24 -22 13 6 19 6 19 0 0 -6 -9 -15 -20 -21 -22 -12
-45 -49 -36 -58 3 -3 16 4 29 15 12 11 29 23 37 27 8 4 -11 -16 -43 -46 -72
-66 -75 -91 -6 -43 28 19 56 35 63 35 6 0 27 8 46 19 19 10 55 22 80 26 49 8
135 52 162 84 21 24 58 147 58 190 0 18 -5 42 -11 53 -8 16 -8 22 2 29 7 4 16
6 20 3 4 -2 12 3 19 11 7 8 18 15 25 15 16 0 35 -51 36 -94 l1 -31 11 26 c7
14 22 38 35 53 13 17 22 43 22 62 0 19 5 34 11 34 8 0 10 -15 7 -45 -3 -25 -2
-45 1 -45 14 0 31 25 31 44 0 12 5 28 10 36 7 11 8 6 4 -17 -4 -18 -4 -33 -1
-33 4 0 30 9 58 20 72 29 72 18 -1 -14 -44 -20 -60 -32 -60 -47 0 -31 25 -33
85 -4 31 14 61 25 66 23 5 -2 -13 -12 -41 -23 -27 -11 -50 -22 -50 -26 0 -3
31 -11 70 -18 38 -7 70 -17 70 -22 0 -12 -17 -11 -60 1 -63 19 -114 14 -164
-14 -55 -31 -106 -67 -106 -76 0 -13 77 -42 128 -47 29 -3 55 -9 57 -14 11
-16 -35 -19 -91 -4 -32 8 -80 15 -106 15 -44 0 -50 -3 -68 -33 -13 -21 -45
-48 -90 -73 -92 -52 -93 -65 -3 -44 23 5 65 23 92 40 62 36 66 31 9 -10 -56
-41 -29 -38 51 5 l66 36 -39 -34 -40 -34 47 -11 c68 -18 74 -16 124 33 53 50
74 52 25 2 -50 -51 -44 -66 26 -62 51 4 53 3 14 -4 -53 -9 -81 -33 -63 -55 11
-13 38 -12 51 3 3 3 22 14 43 24 21 9 35 22 32 27 -4 6 6 10 22 10 l28 0 -38
-25 c-20 -14 -37 -31 -37 -38 0 -7 -10 -13 -22 -14 -12 -1 -28 -9 -36 -17 -13
-12 -11 -16 17 -30 33 -17 39 -30 19 -42 -6 -4 -8 -3 -5 3 10 16 -19 36 -41
28 -12 -3 -22 -17 -24 -36 -4 -26 -2 -30 14 -25 58 19 61 19 54 8 -4 -7 -13
-12 -19 -12 -7 0 -30 -9 -52 -20 -24 -12 -32 -20 -20 -20 33 0 5 -15 -48 -26
-37 -7 -51 -14 -48 -25 2 -8 4 -19 4 -26 0 -6 7 -8 16 -5 10 4 6 -7 -12 -31
-15 -20 -25 -42 -22 -47 3 -6 -2 -13 -11 -17 -22 -8 -72 -62 -80 -86 -9 -27 2
-32 31 -13 37 24 160 63 241 76 94 15 110 23 117 58 3 16 18 43 32 58 l26 29
-21 -43 c-11 -23 -18 -47 -15 -52 18 -29 71 15 60 48 -3 11 -1 23 5 27 5 3 10
-3 10 -14 0 -30 16 -33 29 -5 16 35 14 89 -4 104 -8 7 -22 38 -31 69 -19 63
-41 112 -58 123 -8 6 -8 8 1 8 6 0 20 3 30 7 15 6 16 4 5 -9 -10 -13 -10 -19
3 -31 8 -9 15 -19 15 -23 0 -15 43 -124 49 -124 4 0 19 25 34 56 25 50 27 60
16 93 -6 20 -16 41 -23 46 -6 6 -11 21 -12 35 0 14 -4 50 -8 80 -9 70 0 60 21
-21 19 -76 42 -125 53 -113 14 15 15 86 2 139 -16 67 -24 154 -12 135 5 -8 12
-37 16 -65 3 -27 11 -61 17 -75 l10 -25 7 30 c4 17 8 53 9 82 2 76 21 78 21 3
0 -67 -18 -154 -55 -267 -13 -40 -20 -73 -16 -73 12 0 81 51 81 59 0 5 8 7 18
4 10 -2 36 9 58 26 23 16 61 39 85 51 l44 23 -19 -22 c-11 -11 -23 -21 -28
-21 -5 0 -38 -19 -74 -41 l-66 -42 6 -41 c3 -22 5 -43 5 -45 1 -2 8 2 16 9 18
15 20 -1 3 -18 -16 -16 -3 -27 14 -13 79 69 98 92 119 141 26 63 64 126 56 95
-3 -11 -12 -42 -20 -68 -13 -41 -13 -46 -1 -36 8 6 24 28 35 49 12 21 41 50
65 65 24 15 44 31 44 35 0 3 7 15 15 26 15 18 15 18 12 -7 -1 -14 -16 -38 -32
-53 -17 -15 -24 -25 -17 -21 20 10 14 -9 -8 -23 -11 -7 -20 -19 -20 -27 0 -13
7 -12 40 5 21 11 46 20 54 20 9 0 31 14 49 30 19 17 38 30 41 30 13 0 -60 -58
-99 -78 -27 -15 -34 -21 -20 -21 11 0 31 6 45 14 14 8 34 14 45 14 15 0 10 -5
-16 -19 -19 -10 -41 -26 -48 -34 -9 -11 -22 -14 -40 -9 -24 6 -25 5 -11 -12 8
-10 10 -16 4 -12 -7 4 -14 1 -17 -7 -3 -8 -22 -19 -41 -26 -39 -13 -42 -22
-23 -68 l12 -30 60 25 c33 14 64 29 70 34 5 5 15 9 23 9 28 0 -1 -19 -74 -50
-90 -37 -127 -66 -104 -80 11 -7 7 -10 -18 -10 -19 0 -35 -6 -38 -14 -3 -8
-13 -17 -21 -20 -13 -5 -14 -4 -3 9 10 12 10 15 -1 15 -23 0 -46 -21 -31 -27
19 -8 14 -30 -9 -36 -12 -3 -18 -10 -14 -17 4 -6 14 -9 22 -6 17 7 53 -10 53
-26 0 -7 -5 -6 -15 2 -13 11 -23 11 -55 0 -35 -12 -38 -15 -29 -37 11 -30 11
-33 -1 -33 -5 0 -10 5 -10 11 0 24 -42 80 -54 71 -6 -5 -32 -15 -58 -22 -26
-7 -46 -16 -43 -20 5 -8 -62 -30 -94 -30 -26 0 -121 -39 -121 -50 0 -4 -13
-10 -29 -13 -58 -12 -227 -95 -281 -139 -110 -88 -132 -108 -174 -154 -36 -41
-63 -59 -133 -89 -49 -21 -100 -46 -115 -56 -14 -11 -30 -19 -35 -19 -11 0
-63 -43 -63 -51 0 -3 18 -14 40 -24 49 -22 44 -38 -7 -19 -47 16 -69 17 -95 3
-20 -11 -20 -11 2 -34 l22 -23 -27 -4 c-26 -3 -27 -3 -8 -23 10 -11 27 -22 38
-23 36 -6 36 -18 0 -17 -22 1 -43 -6 -55 -17 -11 -11 -25 -16 -30 -13 -18 11
-23 -48 -11 -119 7 -39 16 -93 21 -121 5 -27 12 -116 16 -197 l7 -148 859 0
858 0 0 726 0 726 -24 -6 c-27 -7 -56 1 -56 15 0 5 18 9 40 9 l40 0 0 851 c0
782 -1 851 -16 845 -15 -6 -15 -4 0 18 13 21 16 57 16 221 l0 195 -2400 0
-2400 0 0 -1800z m2140 1725 c18 -21 2 -35 -50 -45 -32 -6 -46 -4 -62 10 l-21
17 24 16 c30 21 92 22 109 2z m-720 -85 c0 -11 -7 -20 -15 -20 -18 0 -19 12
-3 28 16 16 18 15 18 -8z m2130 -210 c0 -5 -5 -10 -11 -10 -5 0 -7 5 -4 10 3
6 8 10 11 10 2 0 4 -4 4 -10z m-250 -209 c0 -6 -4 -13 -10 -16 -5 -3 -10 1
-10 9 0 9 5 16 10 16 6 0 10 -4 10 -9z m281 -358 c-12 -20 -14 -14 -5 12 4 9
9 14 11 11 3 -2 0 -13 -6 -23z m610 -26 c-13 -13 -26 -3 -16 12 3 6 11 8 17 5
6 -4 6 -10 -1 -17z m-383 -147 c-22 -30 -35 -41 -22 -17 9 16 36 47 41 47 2 0
-6 -13 -19 -30z m-664 -135 c-20 -25 -39 -43 -42 -41 -2 3 12 24 32 47 20 24
36 47 37 53 0 6 3 5 6 -1 2 -7 -12 -33 -33 -58z m1136 35 c0 -5 -9 -10 -20
-10 -11 0 -20 5 -20 10 0 6 9 10 20 10 11 0 20 -4 20 -10z m-223 -196 c-3 -3
-12 -4 -19 -1 -8 3 -5 6 6 6 11 1 17 -2 13 -5z m-3537 -28 c0 -16 -28 -42 -36
-33 -3 3 -3 15 1 26 7 23 35 29 35 7z m2547 -2 c-3 -3 -12 -4 -19 -1 -8 3 -5
6 6 6 11 1 17 -2 13 -5z m823 -45 c9 -5 1 -6 -20 -3 -19 4 -39 11 -45 16 -12
11 41 0 65 -13z m-3233 -121 c-3 -8 -6 -5 -6 6 -1 11 2 17 5 13 3 -3 4 -12 1
-19z m4053 -67 c-6 -12 -15 -21 -21 -21 -5 0 -2 11 7 25 20 30 31 26 14 -4z
m60 -4 c0 -2 -10 -12 -22 -23 l-23 -19 19 23 c18 21 26 27 26 19z m-70 -51 c0
-2 -15 -9 -32 -15 -30 -10 -31 -9 -14 4 18 14 46 20 46 11z m-850 -70 c0 -3
-4 -8 -10 -11 -5 -3 -10 -1 -10 4 0 6 5 11 10 11 6 0 10 -2 10 -4z m745 -256
c-27 -12 -43 -12 -25 0 8 5 22 9 30 9 10 0 8 -3 -5 -9z m-295 -160 c0 -5 -9
-10 -19 -10 -11 0 -28 -3 -38 -6 -12 -5 -15 -4 -8 4 9 9 30 17 58 21 4 0 7 -3
7 -9z m361 -413 c39 -32 45 -62 17 -81 -12 -9 -32 -16 -45 -16 -29 0 -38 -16
-34 -62 2 -33 -3 -44 -33 -74 -33 -33 -41 -36 -75 -31 -132 17 -170 167 -55
214 24 10 44 23 44 28 0 20 56 43 105 44 38 0 57 -5 76 -22z m-4355 -52 c19
-14 19 -14 -2 -15 -12 0 -27 7 -34 15 -17 20 9 21 36 0z m2914 -145 c-24 -15
-36 -11 -14 4 10 8 21 12 24 10 2 -3 -2 -9 -10 -14z"/>
<path d="M3538 2383 c7 -3 16 -2 19 1 4 3 -2 6 -13 5 -11 0 -14 -3 -6 -6z"/>
<path d="M3625 2230 c-3 -5 -3 -15 1 -21 6 -11 23 6 24 24 0 10 -18 9 -25 -3z"/>
<path d="M3706 2174 c-9 -20 -15 -38 -13 -41 8 -7 67 48 67 63 0 29 -36 14
-54 -22z"/>
<path d="M2963 2140 c-13 -5 -23 -14 -23 -20 0 -8 28 5 59 27 9 6 -15 1 -36
-7z"/>
<path d="M3612 2138 c-13 -13 -16 -58 -4 -58 14 0 32 23 32 41 0 23 -14 31
-28 17z"/>
<path d="M2920 2081 c-83 -53 -94 -74 -56 -110 l25 -23 35 21 c20 12 53 43 75
67 32 36 38 50 32 67 -5 12 -14 23 -22 24 -8 1 -48 -20 -89 -46z"/>
<path d="M3116 2073 c-8 -16 -15 -22 -16 -14 0 11 -3 11 -16 0 -8 -7 -13 -21
-11 -30 3 -11 -2 -21 -12 -25 -9 -3 -43 -36 -76 -72 -46 -51 -56 -68 -43 -70
9 -2 29 4 45 14 l28 17 -29 -24 -28 -25 37 -44 c20 -25 39 -46 40 -48 2 -2 12
1 23 7 21 11 63 124 55 149 -4 14 -3 15 5 2 9 -12 13 -9 22 15 8 20 8 35 2 46
-6 9 -7 21 -1 30 15 24 10 29 -23 22 -22 -4 -29 -3 -24 5 4 7 15 12 25 12 24
0 40 18 34 41 -7 27 -20 24 -37 -8z"/>
<path d="M3342 1853 c-75 -41 -159 -97 -181 -122 -15 -17 -21 -20 -17 -8 7 22
-3 21 -30 -1 -31 -25 -36 -71 -15 -147 10 -36 21 -69 25 -72 3 -4 16 3 29 14
12 11 29 24 37 28 13 8 13 7 1 -8 -17 -21 -11 -21 34 0 37 18 49 39 15 28 -11
-3 -20 -2 -20 3 0 13 26 22 36 13 15 -14 77 8 70 25 -17 40 -16 46 4 22 22
-28 70 -39 70 -16 0 9 3 9 12 0 16 -16 37 -15 72 3 15 8 35 15 44 15 13 0 12
-3 -4 -16 -19 -15 -19 -15 2 -5 11 5 39 27 62 49 23 21 43 35 44 30 4 -10 133
56 143 72 2 4 -18 29 -46 55 l-50 47 -127 -3 c-70 -1 -138 1 -152 5 -16 4 -37
0 -58 -11z m-202 -163 c0 -5 -4 -10 -9 -10 -5 0 -13 -9 -16 -21 -4 -11 -9 -18
-13 -15 -7 8 19 56 30 56 4 0 8 -4 8 -10z"/>
<path d="M3745 1820 c38 -25 49 -25 35 0 -7 12 -21 20 -38 20 l-27 0 30 -20z"/>
<path d="M4548 1798 c-20 -24 -23 -38 -9 -38 8 0 41 43 41 55 0 12 -16 3 -32
-17z"/>
<path d="M4558 1736 c-10 -7 -18 -16 -18 -19 0 -8 59 13 66 24 8 14 -29 10
-48 -5z"/>
<path d="M3769 1713 c-13 -17 -13 -17 6 -3 11 8 22 16 24 17 2 2 0 3 -6 3 -6
0 -17 -8 -24 -17z"/>
<path d="M4233 1698 c-38 -23 -41 -43 -13 -76 20 -24 40 -22 40 4 0 17 16 19
24 2 4 -7 4 2 1 21 -3 18 -5 42 -5 52 0 23 -6 23 -47 -3z"/>
<path d="M3774 1681 c-26 -16 -64 -60 -64 -75 0 -2 17 3 39 12 25 11 42 26 49
46 7 16 10 31 9 32 -2 2 -16 -5 -33 -15z"/>
<path d="M3063 1683 c-15 -5 -18 -43 -4 -43 9 0 26 39 19 44 -1 2 -9 1 -15 -1z"/>
<path d="M3689 1675 c-60 -22 -120 -55 -115 -64 3 -5 27 -9 54 -9 45 -1 50 1
86 43 39 47 35 52 -25 30z"/>
<path d="M4510 1658 c0 -9 -5 -18 -11 -20 -6 -2 -9 -23 -7 -48 l3 -45 23 25
c18 19 22 32 17 55 -6 34 -25 58 -25 33z"/>
<path d="M4456 1645 c-16 -12 -17 -15 -4 -15 8 0 21 7 28 15 16 19 1 19 -24 0z"/>
<path d="M4171 1619 c-11 -33 -15 -79 -6 -79 13 0 55 33 55 44 0 6 -9 24 -19
39 l-18 29 -12 -33z"/>
<path d="M4420 1608 c-24 -6 -46 -24 -68 -54 -36 -48 -34 -49 50 -32 50 10 59
16 68 41 20 59 15 63 -50 45z"/>
<path d="M3530 1565 c-14 -8 -32 -14 -40 -15 -17 0 -72 -65 -63 -74 4 -3 15
-6 25 -6 12 0 18 7 18 24 0 14 5 28 10 31 6 3 10 -4 10 -18 0 -34 9 -38 41
-21 37 18 85 37 78 29 -4 -3 -26 -16 -50 -28 -48 -24 -67 -54 -29 -44 13 3 28
0 37 -9 24 -23 50 -16 82 23 36 43 39 63 11 63 -10 0 -29 11 -42 24 -31 32
-58 38 -88 21z"/>
<path d="M3418 1553 c-20 -5 -23 -18 -7 -29 6 -3 18 0 26 9 17 16 7 26 -19 20z"/>
<path d="M3640 1545 c0 -11 7 -15 23 -13 12 2 22 8 22 13 0 6 -10 11 -22 13
-16 2 -23 -2 -23 -13z"/>
<path d="M3288 1534 c-34 -18 -41 -74 -10 -74 27 0 120 29 127 39 5 8 -66 52
-83 51 -4 -1 -19 -8 -34 -16z"/>
<path d="M3218 1489 c-24 -13 -23 -29 2 -29 13 0 20 7 20 20 0 23 1 23 -22 9z"/>
<path d="M4268 1473 c7 -3 16 -2 19 1 4 3 -2 6 -13 5 -11 0 -14 -3 -6 -6z"/>
<path d="M4310 1460 c0 -5 7 -7 15 -4 8 4 15 8 15 10 0 2 -7 4 -15 4 -8 0 -15
-4 -15 -10z"/>
<path d="M3375 1440 c-3 -6 -23 -8 -43 -5 -57 9 -67 -3 -53 -62 7 -27 20 -62
31 -78 l18 -28 36 56 c20 31 36 60 36 66 0 5 5 13 11 17 18 11 1 -30 -42 -101
-40 -67 -46 -89 -29 -115 9 -13 12 -13 24 2 7 10 16 15 19 12 8 -8 134 76 166
109 22 24 22 27 7 49 -9 12 -16 30 -16 39 0 32 -148 67 -165 39z"/>
<path d="M3138 1433 c-22 -5 -24 -23 -3 -23 8 0 15 -6 15 -13 0 -7 9 -29 19
-50 16 -31 17 -37 4 -37 -12 0 -14 -7 -9 -31 3 -17 6 -44 6 -58 0 -15 9 -37
20 -49 11 -12 20 -26 20 -32 0 -5 6 -10 13 -10 19 0 77 39 77 52 0 6 -22 33
-50 58 -53 49 -69 76 -24 41 60 -47 77 -10 29 62 -66 100 -70 103 -117 90z"/>
<path d="M4185 1425 c-22 -8 -41 -15 -42 -15 -2 0 -3 -4 -3 -9 0 -5 23 -2 50
7 28 9 50 19 50 24 0 11 -8 10 -55 -7z"/>
<path d="M4258 1433 c7 -3 16 -2 19 1 4 3 -2 6 -13 5 -11 0 -14 -3 -6 -6z"/>
<path d="M3220 1423 c0 -5 9 -19 20 -33 15 -19 20 -21 20 -8 0 9 -7 24 -16 32
-17 18 -24 20 -24 9z"/>
<path d="M4023 1408 c-13 -6 -23 -15 -23 -20 0 -14 27 -9 51 12 27 22 10 26
-28 8z"/>
<path d="M3560 1403 c0 -5 5 -15 10 -23 9 -13 11 -13 20 0 15 22 12 30 -10 30
-11 0 -20 -3 -20 -7z"/>
<path d="M3950 1369 c-7 -11 -10 -22 -8 -25 8 -7 48 27 43 37 -10 15 -24 10
-35 -12z"/>
<path d="M3804 1361 c-22 -10 -56 -32 -75 -48 -49 -42 -99 -71 -160 -92 -30
-10 -84 -33 -121 -52 -60 -31 -70 -40 -98 -94 -24 -46 -30 -67 -25 -92 3 -18
8 -33 11 -33 26 0 226 148 311 230 24 23 78 58 128 80 64 30 88 47 95 66 7 17
15 24 25 20 9 -3 19 3 25 14 10 18 7 20 -32 20 -24 0 -61 -9 -84 -19z"/>
<path d="M3664 1346 c-18 -8 -35 -19 -39 -26 -4 -6 -28 -20 -53 -31 -24 -11
-42 -22 -39 -26 15 -14 175 67 177 90 0 10 -10 8 -46 -7z"/>
<path d="M3340 1105 c0 -8 2 -15 4 -15 2 0 6 7 10 15 3 8 1 15 -4 15 -6 0 -10
-7 -10 -15z"/>
<path d="M3276 1085 c-14 -11 -17 -21 -12 -41 9 -34 -21 -94 -46 -94 -17 0
-58 -44 -58 -64 0 -6 -12 -22 -25 -35 -14 -13 -25 -28 -25 -35 0 -7 3 -8 8 0
4 5 41 31 83 57 l76 47 12 87 c6 48 10 88 8 89 -1 1 -10 -4 -21 -11z"/>
<path d="M2670 624 c-14 -8 -54 -14 -92 -14 -60 0 -69 -3 -85 -25 -52 -75 -34
-69 -214 -70 -135 0 -172 -4 -209 -19 -76 -31 -109 -31 -204 3 -74 26 -102 31
-181 31 -53 0 -109 6 -132 14 -36 13 -41 12 -64 -5 -63 -51 -139 -74 -155 -48
-4 8 -33 9 -90 4 l-83 -7 -48 40 c-61 50 -97 68 -153 77 l-45 7 -1 -46 c0 -25
-7 -52 -14 -61 -9 -11 -10 -21 -1 -42 13 -35 11 -71 -6 -77 -7 -3 -13 -1 -13
4 0 5 -6 7 -13 4 -24 -9 -55 -106 -72 -224 -9 -63 -19 -127 -22 -142 l-5 -28
974 0 975 0 7 46 c3 26 6 71 6 101 0 42 8 72 36 131 30 62 39 98 50 187 7 61
13 117 14 127 0 11 -16 22 -47 32 -55 19 -79 19 -113 0z"/>
<path d="M778 591 c-5 -34 3 -39 22 -15 11 12 11 18 -2 30 -14 14 -16 13 -20
-15z"/>
</g>
</svg>
