<?xml version="1.0" standalone="no"?>
<!DOCTYPE svg PUBLIC "-//W3C//DTD SVG 20010904//EN"
 "http://www.w3.org/TR/2001/REC-SVG-20010904/DTD/svg10.dtd">
<svg version="1.0" xmlns="http://www.w3.org/2000/svg"
 width="480.000000pt" height="360.000000pt" viewBox="0 0 480.000000 360.000000"
 preserveAspectRatio="xMidYMid meet">
<metadata>
Created by potrace 1.16, written by Peter Selinger 2001-2019
</metadata>
<rect width="1" height="360" fill="#000000"/>
<rect x="479" width="1" height="360" fill="#000000"/>
<rect width="480" height="1" fill="#000000"/>
<rect y="359" width="480" height="1" fill="#000000"/>
<g transform="translate(0.000000,360.000000) scale(0.100000,-0.100000)"
fill="#000000" stroke="none">
<path d="M0 2735 c0 -723 2 -865 14 -865 30 0 227 43 324 71 191 55 327 114
572 246 144 77 136 78 238 -19 48 -46 145 -135 216 -198 71 -63 188 -181 262
-261 137 -151 221 -218 314 -252 99 -37 276 -57 358 -41 26 5 33 14 52 68 82
225 150 314 293 385 81 39 87 44 87 73 0 26 -3 30 -21 25 -17 -5 -20 -2 -16
14 4 15 2 18 -7 10 -16 -14 -26 -4 -26 24 0 35 -23 48 -43 25 -33 -39 -42 -23
-20 36 11 30 -20 21 -57 -17 -22 -23 -43 -40 -45 -37 -3 3 4 26 15 52 35 82
34 93 -8 107 -53 16 -57 24 -33 55 28 35 27 52 -6 86 -36 38 -60 38 -36 1 l18
-28 -33 24 c-23 16 -37 20 -44 13 -12 -12 -83 21 -92 44 -3 8 -12 14 -20 14
-10 0 -17 15 -22 45 -7 50 -19 65 -29 36 -3 -11 -12 -24 -20 -31 -12 -10 -13
-7 -9 17 2 15 7 34 9 41 7 19 -11 14 -62 -18 -57 -36 -82 -38 -115 -6 -14 12
-33 26 -42 29 -17 7 -37 47 -29 59 2 4 19 10 38 14 26 5 63 34 151 119 l117
113 -9 54 c-4 29 -8 82 -9 118 0 57 3 66 21 74 11 5 31 29 44 52 63 121 210
229 398 296 111 39 337 31 474 -18 22 -8 55 -14 73 -14 27 0 46 -14 120 -87
155 -154 203 -257 191 -406 -4 -43 -13 -98 -22 -122 -14 -41 -13 -47 5 -82 38
-75 110 -162 151 -183 29 -15 40 -27 40 -44 0 -42 -58 -74 -77 -43 -8 15 -102
42 -111 33 -3 -3 2 -14 11 -24 21 -23 22 -42 2 -42 -13 0 -12 -7 5 -41 12 -23
19 -43 16 -47 -3 -3 -24 3 -46 13 -47 21 -58 16 -35 -18 14 -21 14 -29 3 -46
-16 -26 -19 -26 -51 -1 -14 11 -27 20 -29 20 -2 0 0 -32 5 -70 6 -39 7 -73 4
-77 -4 -3 -25 11 -48 32 -42 38 -58 36 -59 -7 0 -10 -5 -18 -11 -18 -7 0 -9
-12 -5 -35 7 -38 5 -40 -25 -25 -14 8 -19 7 -19 -1 0 -6 -19 6 -42 27 l-42 38
-6 -25 c-6 -24 -7 -24 -14 -2 -9 28 -38 19 -34 -10 2 -14 14 -24 36 -31 35
-10 37 -13 22 -52 -6 -15 -7 -31 -2 -36 4 -4 53 -24 107 -43 55 -20 116 -47
137 -60 38 -25 88 -109 108 -183 6 -22 25 -71 42 -108 l31 -67 117 6 c63 3
149 13 190 23 67 15 89 15 201 4 233 -24 363 17 574 182 l120 93 3 898 2 897
-2400 0 -2400 0 0 -865z"/>
<path d="M954 2059 c-116 -72 -114 -70 -97 -96 9 -13 13 -32 10 -42 -3 -13 4
-26 23 -39 15 -11 49 -55 76 -98 56 -90 55 -77 29 -369 -7 -88 -17 -208 -20
-267 -4 -59 -13 -115 -19 -123 -11 -15 -13 -14 -30 4 -16 18 -93 198 -202 476
-19 50 -40 100 -46 113 -18 35 17 204 50 243 18 22 22 33 14 41 -8 8 -35 0
-99 -29 -89 -41 -234 -93 -259 -93 -8 0 -19 -12 -25 -27 -8 -21 -7 -28 6 -35
28 -16 52 -48 90 -120 l37 -70 -21 -162 c-12 -88 -30 -237 -41 -330 -11 -93
-23 -173 -28 -178 -14 -14 -49 34 -72 102 -23 68 -73 205 -118 325 -14 39 -27
72 -27 75 0 3 -11 32 -23 64 l-23 59 25 96 c18 68 32 101 48 113 19 14 21 21
12 45 -11 33 -3 32 -127 14 l-97 -15 0 -868 0 -868 1115 0 1115 0 6 28 c40
173 99 386 124 444 27 67 30 82 30 188 0 105 16 432 22 461 2 7 -15 19 -37 26
-51 18 -52 19 -28 46 23 25 43 60 43 76 0 5 -10 8 -22 5 -13 -3 -53 -5 -91 -6
l-67 0 24 -19 c14 -11 45 -56 69 -102 l45 -82 -13 -160 c-41 -481 -45 -516
-62 -522 -8 -3 -20 1 -27 8 -7 8 -65 155 -129 327 l-116 313 21 92 c14 63 28
100 45 118 21 23 22 29 12 52 -7 15 -25 31 -43 37 -62 20 -206 48 -206 39 0
-4 16 -37 35 -72 42 -77 42 -79 15 -422 -27 -338 -28 -345 -50 -345 -26 0 -32
12 -207 470 -13 36 -34 89 -45 118 -19 49 -20 59 -8 125 14 80 33 132 57 160
10 10 18 36 19 57 2 35 -6 50 -58 117 -68 87 -148 173 -161 173 -5 0 8 -30 29
-67 37 -66 37 -66 31 -157 -25 -392 -40 -582 -47 -590 -5 -5 -16 -6 -25 -2
-19 7 -43 60 -160 351 -31 77 -70 172 -87 212 l-30 72 20 92 c11 50 30 104 41
120 12 15 21 36 21 46 0 10 4 24 9 32 7 11 -19 42 -102 122 -62 60 -114 109
-118 109 -3 0 -27 -14 -55 -31z"/>
<path d="M4723 1607 c-69 -69 -77 -100 -37 -138 12 -11 37 -57 54 -100 l32
-78 -42 -153 c-52 -188 -99 -348 -109 -368 -5 -8 -17 -16 -28 -18 -27 -4 -31
8 -104 302 l-61 248 36 79 35 79 -42 0 c-72 0 -220 -29 -236 -46 -15 -14 -13
-17 11 -37 15 -13 42 -58 62 -104 29 -68 33 -87 26 -115 -5 -18 -15 -62 -24
-98 -8 -36 -26 -112 -40 -170 -13 -58 -27 -118 -31 -135 -16 -75 -26 -103 -41
-109 -26 -10 -40 9 -59 81 -10 38 -44 160 -77 271 l-59 204 31 80 c16 44 40
89 53 100 l22 19 -85 -5 c-47 -3 -129 -6 -182 -6 -89 0 -98 -2 -98 -19 0 -10
7 -25 17 -32 9 -8 32 -48 51 -89 36 -79 37 -98 13 -220 -5 -25 -17 -85 -26
-135 -9 -49 -25 -134 -36 -189 -10 -54 -19 -100 -19 -102 0 -10 -39 -3 -47 9
-5 6 -18 39 -28 72 -16 53 -35 92 -35 71 0 -4 9 -60 21 -124 18 -103 20 -141
15 -307 -3 -104 -9 -220 -12 -257 l-7 -68 582 0 581 0 0 835 c0 459 -3 835 -7
834 -5 0 -36 -28 -70 -62z"/>
<path d="M3553 1374 c-7 -18 11 -39 26 -30 17 11 13 46 -4 46 -9 0 -18 -7 -22
-16z"/>
</g>
</svg>
