<?xml version="1.0" standalone="no"?>
<!DOCTYPE svg PUBLIC "-//W3C//DTD SVG 20010904//EN"
 "http://www.w3.org/TR/2001/REC-SVG-20010904/DTD/svg10.dtd">
<svg version="1.0" xmlns="http://www.w3.org/2000/svg"
 width="480.000000pt" height="360.000000pt" viewBox="0 0 480.000000 360.000000"
 preserveAspectRatio="xMidYMid meet">
<metadata>
Created by potrace 1.16, written by Peter Selinger 2001-2019
</metadata>
<rect width="1" height="360" fill="#000000"/>
<rect x="479" width="1" height="360" fill="#000000"/>
<rect width="480" height="1" fill="#000000"/>
<rect y="359" width="480" height="1" fill="#000000"/>
<g transform="translate(0.000000,360.000000) scale(0.100000,-0.100000)"
fill="#000000" stroke="none">
<path d="M1455 3147 c-118 -31 -268 -148 -346 -272 -66 -103 -83 -160 -84
-275 0 -97 2 -110 31 -170 35 -75 123 -174 193 -219 88 -57 152 -73 272 -69
95 4 108 2 118 -14 6 -10 20 -18 31 -18 11 0 20 -7 20 -16 0 -14 -2 -14 -22 0
-33 23 -58 20 -119 -17 -83 -51 -90 -54 -152 -82 -32 -14 -60 -32 -63 -40 -3
-8 -1 -30 6 -49 10 -32 9 -39 -14 -69 -30 -39 -56 -98 -56 -126 0 -30 40 -38
59 -12 l17 22 54 -28 c69 -36 77 -66 31 -123 -17 -21 -26 -41 -21 -46 4 -5 10
-20 12 -34 2 -19 10 -26 29 -28 26 -3 27 -5 34 -95 4 -51 11 -121 17 -157 5
-36 12 -114 15 -173 5 -100 7 -109 29 -124 20 -13 24 -24 24 -65 0 -40 -5 -54
-22 -68 -21 -17 -23 -27 -23 -110 0 -88 1 -92 28 -112 24 -17 27 -26 27 -73 0
-41 -4 -56 -17 -64 -15 -8 -18 -25 -18 -105 0 -92 2 -97 28 -121 22 -21 27
-34 27 -73 0 -35 -5 -52 -20 -65 -26 -22 -27 -57 -1 -57 11 0 22 6 24 13 4 9
6 9 6 0 1 -18 30 -16 37 2 8 19 24 19 24 0 0 -8 9 -15 20 -15 13 0 20 7 20 20
0 21 -33 60 -50 60 -5 0 -10 25 -10 55 0 43 4 56 19 64 26 14 33 65 22 147 -7
49 -16 72 -30 84 -14 10 -23 32 -27 64 -6 44 -5 50 17 67 23 17 24 23 21 111
-2 85 -5 95 -27 113 -21 17 -25 30 -25 73 0 39 4 54 16 59 9 3 19 15 23 26 7
18 16 20 102 18 52 0 123 3 159 8 35 6 66 8 69 6 2 -3 -3 -13 -11 -22 -96
-109 -125 -388 -91 -864 l6 -89 390 0 390 0 -21 23 c-27 29 -47 158 -40 258 6
76 46 166 125 279 63 88 60 86 82 59 17 -19 20 -39 21 -103 0 -81 11 -92 27
-28 4 17 13 32 18 32 10 0 43 -122 92 -339 l27 -123 -34 -29 -35 -28 293 -1
293 0 15 37 c11 26 15 61 12 118 -3 70 -8 92 -40 156 -21 40 -67 113 -103 161
-61 81 -66 90 -76 163 -8 61 -7 108 6 224 32 287 55 391 132 593 23 60 27 65
44 55 11 -7 19 -19 19 -28 0 -9 8 -27 18 -39 l17 -21 28 21 c15 12 27 28 27
35 0 8 6 12 14 9 8 -3 19 3 25 15 6 11 19 22 28 25 28 9 146 168 184 246 12
25 27 52 34 60 21 25 45 124 45 185 0 47 -4 60 -26 80 -80 74 -188 90 -285 42
-47 -22 -61 -26 -84 -17 -14 5 -38 10 -53 10 l-27 1 30 25 c17 13 75 56 130
93 55 38 134 94 175 125 65 49 76 54 90 41 24 -22 86 -45 119 -45 16 0 57 13
91 29 34 16 83 32 110 36 90 12 87 52 -10 121 -28 20 -50 37 -50 37 0 1 10 3
23 3 36 2 97 32 97 47 0 8 -17 22 -37 33 -21 10 -40 20 -42 21 -2 1 23 26 55
55 120 109 259 241 263 251 12 33 -220 -80 -409 -198 -245 -154 -401 -243
-497 -285 -85 -37 -191 -85 -215 -98 -5 -2 -8 13 -8 33 0 46 -36 85 -79 85
-34 0 -51 -17 -26 -26 25 -10 -40 -74 -75 -74 -14 0 -31 -5 -36 -10 -7 -7 -25
-5 -56 9 -92 39 -178 54 -253 42 -94 -13 -205 -38 -213 -47 -4 -4 5 -4 21 0
39 9 34 -10 -7 -24 -18 -6 -43 -21 -56 -35 l-22 -24 23 6 c22 6 21 4 -8 -33
-38 -48 -63 -113 -63 -160 0 -32 2 -35 15 -24 19 16 20 14 28 -27 6 -29 4 -33
-19 -39 -15 -4 -42 -2 -62 4 -19 6 -39 9 -44 6 -5 -3 -6 -28 -2 -55 6 -42 4
-49 -10 -49 -28 0 -29 28 -6 125 16 68 21 110 17 150 -12 116 -106 253 -201
296 -24 10 -71 22 -103 25 -52 6 -63 11 -89 43 -24 28 -32 49 -37 97 -15 143
-91 265 -221 351 -121 81 -241 108 -351 80z m1161 -983 c-4 -9 -9 -15 -11 -12
-3 3 -3 13 1 22 4 9 9 15 11 12 3 -3 3 -13 -1 -22z m-791 -299 c53 -40 157
-75 224 -75 55 0 134 25 205 66 l49 27 44 -23 c39 -21 44 -27 38 -49 -20 -79
-20 -76 39 -121 31 -23 56 -47 56 -52 0 -6 -22 -60 -49 -122 -26 -61 -54 -126
-61 -144 -15 -37 -58 -72 -98 -78 -15 -2 -83 -11 -152 -19 -69 -9 -172 -25
-228 -36 -57 -11 -105 -19 -107 -17 -1 2 -10 55 -19 118 -9 63 -20 127 -23
142 -4 22 0 29 26 43 30 15 31 17 15 33 -51 51 -75 181 -42 232 9 14 19 44 23
68 4 23 9 42 11 42 2 0 24 -16 49 -35z m-431 -81 c10 -25 7 -30 -20 -43 -35
-15 -39 -9 -19 28 17 34 30 39 39 15z m205 -784 c35 -30 36 -59 0 -37 -16 10
-21 9 -28 -1 -6 -10 -10 -8 -14 10 -9 32 -9 58 1 58 4 -1 22 -14 41 -30z m41
-344 c0 -67 -1 -69 -19 -52 -16 15 -19 15 -31 1 -20 -24 -30 -1 -30 73 0 61 1
62 24 56 14 -3 27 -1 31 6 14 23 25 -13 25 -84z m14 -297 c10 -50 7 -117 -6
-125 -6 -4 -8 -3 -5 3 11 17 -21 24 -37 8 -21 -21 -26 -8 -26 65 0 66 0 67 25
62 15 -2 25 0 25 7 0 24 18 9 24 -20z"/>
</g>
</svg>
