<?xml version="1.0" standalone="no"?>
<!DOCTYPE svg PUBLIC "-//W3C//DTD SVG 20010904//EN"
 "http://www.w3.org/TR/2001/REC-SVG-20010904/DTD/svg10.dtd">
<svg version="1.0" xmlns="http://www.w3.org/2000/svg"
 width="480.000000pt" height="360.000000pt" viewBox="0 0 480.000000 360.000000"
 preserveAspectRatio="xMidYMid meet">
<metadata>
Created by potrace 1.16, written by Peter Selinger 2001-2019
</metadata>
<rect width="1" height="360" fill="#000000"/>
<rect x="479" width="1" height="360" fill="#000000"/>
<rect width="480" height="1" fill="#000000"/>
<rect y="359" width="480" height="1" fill="#000000"/>
<g transform="translate(0.000000,360.000000) scale(0.100000,-0.100000)"
fill="#000000" stroke="none">
<path d="M1100 3013 c0 -9 10 -28 23 -41 l22 -25 -25 6 c-14 3 -64 11 -112 18
-112 17 -156 5 -215 -58 -32 -34 -47 -43 -62 -38 -28 9 -94 -11 -116 -35 -18
-20 -18 -21 2 -48 11 -15 29 -27 40 -26 15 0 18 -7 18 -38 0 -25 -4 -38 -13
-38 -9 0 -12 -13 -10 -47 3 -46 5 -49 52 -72 l48 -24 -4 -113 -3 -113 -38 -39
c-41 -42 -61 -100 -73 -207 -10 -89 -129 -527 -179 -658 -6 -13 0 -20 23 -28
27 -9 30 -15 26 -37 -7 -38 35 -82 79 -82 43 0 77 25 77 56 0 19 -5 24 -24 24
-14 0 -27 3 -30 8 -2 4 19 5 47 2 l52 -5 -3 -65 c-1 -36 -7 -153 -12 -260 -5
-107 -12 -319 -15 -470 -3 -151 -7 -321 -10 -378 -6 -134 0 -142 115 -142 79
0 91 -5 68 -28 -9 -9 8 -12 80 -12 104 0 107 3 76 80 -10 25 -14 52 -10 73 4
17 7 40 7 49 0 22 33 26 83 12 46 -13 49 -22 49 -136 l-1 -78 96 0 c75 0 93 3
84 12 -19 19 -14 25 26 33 20 3 56 15 78 26 47 22 60 55 43 111 -5 18 -18 112
-29 208 -11 96 -42 330 -70 520 -38 267 -80 602 -80 644 0 2 9 6 19 9 19 4 18
6 -4 54 -13 27 -31 83 -40 124 -9 41 -18 86 -22 102 -4 18 -1 27 7 27 8 0 21
7 31 16 16 14 21 13 68 -10 28 -14 62 -26 76 -26 35 0 71 39 85 90 l12 43 -53
53 -52 53 53 81 c48 73 51 82 36 93 -9 7 -72 48 -141 92 l-124 80 6 35 c3 22
16 45 34 60 16 14 29 33 29 43 0 12 8 17 30 17 29 0 30 1 30 48 0 46 -18 87
-51 115 -8 6 -25 39 -37 72 -42 112 -64 147 -111 177 -52 33 -61 34 -61 11z"/>
</g>
</svg>
