<?xml version="1.0" standalone="no"?>
<!DOCTYPE svg PUBLIC "-//W3C//DTD SVG 20010904//EN"
 "http://www.w3.org/TR/2001/REC-SVG-20010904/DTD/svg10.dtd">
<svg version="1.0" xmlns="http://www.w3.org/2000/svg"
 width="480.000000pt" height="360.000000pt" viewBox="0 0 480.000000 360.000000"
 preserveAspectRatio="xMidYMid meet">
<metadata>
Created by potrace 1.16, written by Peter Selinger 2001-2019
</metadata>
<rect width="1" height="360" fill="#000000"/>
<rect x="479" width="1" height="360" fill="#000000"/>
<rect width="480" height="1" fill="#000000"/>
<rect y="359" width="480" height="1" fill="#000000"/>
<g transform="translate(0.000000,360.000000) scale(0.100000,-0.100000)"
fill="#000000" stroke="none">
<path d="M2565 2153 c-28 -10 -70 -32 -95 -49 -25 -17 -67 -46 -95 -64 -27
-19 -72 -52 -98 -73 -35 -29 -51 -37 -56 -28 -5 7 -12 12 -17 11 -5 -1 -13 6
-19 16 -14 26 -32 44 -37 39 -3 -3 -11 6 -18 20 -15 28 -45 33 -54 9 -8 -21 8
-49 61 -108 23 -26 43 -53 43 -60 0 -6 -42 -56 -92 -111 -118 -129 -143 -182
-142 -290 1 -46 9 -99 18 -125 57 -155 243 -353 411 -437 169 -85 323 -100
442 -42 54 26 148 119 171 168 13 28 27 39 59 49 51 17 137 91 163 141 85 167
27 442 -141 672 -159 217 -351 316 -504 262z"/>
</g>
</svg>
