<?xml version="1.0" standalone="no"?>
<!DOCTYPE svg PUBLIC "-//W3C//DTD SVG 20010904//EN"
 "http://www.w3.org/TR/2001/REC-SVG-20010904/DTD/svg10.dtd">
<svg version="1.0" xmlns="http://www.w3.org/2000/svg"
 width="480.000000pt" height="360.000000pt" viewBox="0 0 480.000000 360.000000"
 preserveAspectRatio="xMidYMid meet">
<metadata>
Created by potrace 1.16, written by Peter Selinger 2001-2019
</metadata>
<rect width="1" height="360" fill="#000000"/>
<rect x="479" width="1" height="360" fill="#000000"/>
<rect width="480" height="1" fill="#000000"/>
<rect y="359" width="480" height="1" fill="#000000"/>
<g transform="translate(0.000000,360.000000) scale(0.100000,-0.100000)"
fill="#000000" stroke="none">
<path d="M0 1800 l0 -1800 929 0 c877 0 930 1 934 18 2 9 5 33 6 52 2 42 13
79 58 189 33 79 35 94 45 257 9 156 8 178 -8 219 -20 54 -16 120 17 293 27
136 22 149 -42 102 l-44 -32 -6 29 c-10 45 -10 120 1 148 8 20 14 24 33 20 20
-5 26 0 40 32 30 70 131 204 172 229 22 13 41 28 41 34 1 5 2 24 3 40 1 22 6
30 20 30 54 0 48 13 -24 61 -193 129 -225 271 -85 374 30 22 31 24 12 34 -12
6 -31 11 -44 11 -24 0 -48 16 -48 32 0 4 11 8 25 8 14 0 25 5 25 11 0 6 16 9
44 6 l43 -5 -13 61 c-7 34 -16 98 -20 142 -5 65 -3 84 10 100 16 20 17 19 66
-33 46 -49 50 -51 60 -32 12 23 106 80 133 80 16 0 17 -25 17 -395 l0 -396
-25 -27 c-29 -31 -28 -46 3 -50 19 -3 22 1 22 32 0 40 5 43 30 21 23 -20 15
-65 -11 -65 -18 0 -19 -23 -19 -815 l0 -815 300 0 c165 0 300 2 300 4 0 2 -7
17 -15 32 -8 16 -15 39 -15 52 0 13 -12 58 -26 99 -25 73 -26 78 -10 110 9 18
16 49 16 68 0 18 4 36 9 40 5 3 12 19 16 36 5 23 26 44 88 89 45 33 142 104
214 158 l133 97 0 81 c0 92 -7 104 -68 128 -86 33 -90 31 -253 -130 -80 -80
-149 -142 -151 -137 -3 4 3 53 11 108 l17 100 12 -63 c12 -56 15 -61 32 -52
10 5 21 19 25 30 8 24 -13 96 -37 132 -23 33 -23 34 7 70 34 41 32 81 -11 191
-27 69 -37 112 -40 172 -3 44 -7 90 -10 102 -6 29 -53 50 -164 72 -83 17 -85
18 -82 44 2 16 -2 27 -9 27 -6 0 0 12 15 27 29 29 31 28 54 -18 31 -60 82 -59
212 7 115 58 171 112 190 185 14 52 -11 119 -66 173 -43 43 -43 45 -29 73 8
15 15 36 15 47 0 15 -5 17 -27 11 -56 -14 -54 -25 -23 110 27 122 26 225 -1
225 -6 0 -32 -21 -59 -46 l-50 -47 -48 45 c-50 47 -108 68 -185 68 -18 0 -45
9 -62 20 -16 11 -39 20 -50 20 -11 0 -33 -9 -50 -20 -19 -13 -47 -20 -77 -20
l-48 0 0 540 0 540 -1200 0 -1200 0 0 -1800z m3107 112 c12 -30 12 -37 -4 -70
-10 -19 -29 -44 -43 -54 -29 -21 -165 -78 -187 -78 -18 0 -16 10 18 90 28 67
28 67 37 55 4 -6 22 -21 41 -34 l34 -24 -7 26 c-5 21 -3 25 9 21 18 -7 19 -3
4 30 -9 19 -8 35 7 75 l18 51 29 -28 c16 -15 36 -42 44 -60z"/>
<path d="M2078 1973 c-25 -4 -28 -9 -28 -40 0 -30 8 -44 44 -79 37 -35 156
-114 172 -114 2 0 4 14 4 30 0 28 -44 110 -59 110 -4 0 -13 -15 -20 -32 l-14
-33 -4 27 c-3 18 -9 25 -19 21 -18 -7 -18 6 1 31 25 34 19 63 -16 75 -18 6
-32 10 -33 10 -1 -1 -13 -4 -28 -6z"/>
<path d="M2007 638 c-12 -45 -19 -224 -9 -208 15 23 35 211 24 222 -6 6 -12 1
-15 -14z"/>
<path d="M2054 606 c-3 -13 -4 -37 -2 -52 l3 -29 23 42 c27 52 28 63 2 63 -12
0 -22 -9 -26 -24z"/>
</g>
</svg>
