<?xml version="1.0" standalone="no"?>
<!DOCTYPE svg PUBLIC "-//W3C//DTD SVG 20010904//EN"
 "http://www.w3.org/TR/2001/REC-SVG-20010904/DTD/svg10.dtd">
<svg version="1.0" xmlns="http://www.w3.org/2000/svg"
 width="480.000000pt" height="360.000000pt" viewBox="0 0 480.000000 360.000000"
 preserveAspectRatio="xMidYMid meet">
<metadata>
Created by potrace 1.16, written by Peter Selinger 2001-2019
</metadata>
<rect width="1" height="360" fill="#000000"/>
<rect x="479" width="1" height="360" fill="#000000"/>
<rect width="480" height="1" fill="#000000"/>
<rect y="359" width="480" height="1" fill="#000000"/>
<g transform="translate(0.000000,360.000000) scale(0.100000,-0.100000)"
fill="#000000" stroke="none">
<path d="M2853 3375 c-73 -20 -134 -53 -140 -76 -6 -23 -6 -23 -45 -3 -43 22
-149 14 -187 -14 l-26 -19 -18 23 c-19 25 -56 38 -158 55 -58 10 -80 9 -170
-11 -103 -21 -155 -43 -144 -59 2 -5 -2 -15 -11 -22 -12 -10 -14 -23 -9 -58 4
-25 10 -50 15 -56 4 -5 11 -30 15 -55 8 -51 23 -108 36 -130 5 -8 17 -34 28
-57 22 -47 45 -54 96 -31 14 6 28 9 31 5 14 -13 16 -94 4 -158 -12 -63 -12
-71 5 -89 9 -10 22 -18 29 -17 6 1 21 -18 34 -43 21 -41 23 -54 18 -140 -6
-89 -5 -94 10 -75 15 19 16 16 10 -42 -5 -42 -3 -63 4 -63 22 0 8 -18 -39 -49
-86 -55 -100 -79 -140 -237 -11 -40 -13 -42 -61 -48 -30 -4 -59 -15 -70 -26
-25 -25 -26 -85 -2 -125 l18 -29 -57 -113 c-31 -63 -109 -191 -173 -286 -126
-188 -130 -200 -102 -292 10 -34 9 -47 -6 -88 -29 -77 -25 -114 21 -156 34
-31 41 -46 56 -116 48 -218 101 -315 172 -315 l35 0 -16 -25 c-9 -14 -14 -30
-11 -35 3 -4 -17 -74 -44 -154 l-50 -146 709 0 c563 0 709 3 705 13 -2 6 -20
68 -41 137 -20 69 -60 201 -90 294 -29 93 -52 171 -51 173 2 1 20 -32 40 -75
20 -42 58 -110 86 -151 59 -89 239 -311 252 -311 5 0 9 -18 9 -40 0 -22 5 -40
10 -40 6 0 10 13 10 29 0 24 5 29 30 35 24 4 35 15 47 43 14 33 14 49 4 118
-6 44 -26 132 -45 195 -27 92 -32 127 -28 174 3 33 -1 103 -8 156 -12 91 -12
97 9 137 11 23 21 51 21 62 0 17 -128 241 -217 380 -29 44 -38 73 -56 176
l-21 122 32 50 c49 76 42 94 -38 110 -53 10 -57 20 -59 157 -1 113 -22 160
-86 200 -49 31 -50 42 -19 113 9 20 12 48 9 75 -5 36 -4 39 5 19 6 -13 13 -22
15 -19 6 6 -13 285 -21 310 -3 11 4 23 21 34 45 30 49 49 21 107 -14 29 -28
73 -32 100 l-6 47 56 -6 c31 -4 56 -5 56 -3 0 2 9 29 21 59 20 51 26 78 33
140 1 14 5 32 8 40 3 8 11 44 17 80 10 61 9 67 -13 101 -21 30 -32 37 -72 43
-78 10 -226 6 -281 -9z m45 -1952 c-1 -87 -8 -183 -14 -213 l-11 -55 -8 40
c-5 22 -9 94 -9 160 -1 92 3 132 17 173 10 28 21 52 24 52 2 0 3 -71 1 -157z"/>
</g>
</svg>
