<?xml version="1.0" standalone="no"?>
<!DOCTYPE svg PUBLIC "-//W3C//DTD SVG 20010904//EN"
 "http://www.w3.org/TR/2001/REC-SVG-20010904/DTD/svg10.dtd">
<svg version="1.0" xmlns="http://www.w3.org/2000/svg"
 width="480.000000pt" height="360.000000pt" viewBox="0 0 480.000000 360.000000"
 preserveAspectRatio="xMidYMid meet">
<metadata>
Created by potrace 1.16, written by Peter Selinger 2001-2019
</metadata>
<rect width="1" height="360" fill="#000000"/>
<rect x="479" width="1" height="360" fill="#000000"/>
<rect width="480" height="1" fill="#000000"/>
<rect y="359" width="480" height="1" fill="#000000"/>
<g transform="translate(0.000000,360.000000) scale(0.100000,-0.100000)"
fill="#000000" stroke="none">
<path d="M4678 3381 c-59 -27 -135 -70 -170 -95 -35 -26 -93 -61 -130 -79 -68
-32 -84 -47 -50 -47 34 0 32 -13 -13 -62 -25 -28 -45 -54 -45 -60 0 -5 -9 -28
-21 -51 -11 -23 -23 -67 -25 -97 -2 -30 -9 -74 -15 -97 -8 -30 -8 -51 -1 -70
13 -38 30 -101 36 -140 4 -25 1 -36 -17 -48 -12 -8 -31 -15 -43 -15 -57 0 -66
-23 -38 -97 14 -37 15 -47 3 -75 -9 -20 -14 -72 -14 -133 -1 -55 -5 -119 -9
-141 -10 -52 9 -75 86 -101 88 -30 152 -67 165 -93 9 -19 10 -44 2 -95 -15
-111 -14 -110 -165 -110 -156 0 -182 -9 -265 -96 -55 -57 -62 -61 -124 -71
-83 -14 -104 -5 -149 65 -40 62 -99 117 -125 117 -24 0 -51 -24 -89 -77 -42
-60 -103 -108 -154 -121 -23 -7 -97 -19 -163 -28 -66 -8 -147 -22 -180 -30
-95 -22 -177 -17 -305 17 -299 80 -664 163 -760 174 -30 3 -70 10 -88 16 -46
15 -71 -4 -111 -86 l-34 -68 -115 7 c-64 4 -122 12 -129 17 -7 6 -30 48 -53
94 -22 47 -51 92 -65 102 -14 10 -44 35 -68 55 -64 57 -183 100 -277 101 -66
0 -84 -4 -153 -37 -58 -28 -85 -47 -108 -79 -79 -108 -94 -180 -86 -396 6
-146 8 -162 33 -210 27 -52 96 -121 120 -121 7 0 14 -4 16 -8 2 -5 27 -21 56
-35 50 -25 63 -27 180 -27 70 1 152 7 182 14 63 15 162 60 180 81 6 8 30 25
53 39 23 14 62 46 86 71 25 25 48 42 52 38 14 -16 37 -100 54 -196 13 -79 14
-112 6 -170 -29 -199 -64 -739 -53 -805 l4 -22 929 0 929 0 0 64 c0 114 -42
254 -152 506 -54 125 -63 153 -63 205 0 50 4 66 25 92 14 17 37 37 52 43 15 7
29 17 31 24 3 7 29 18 59 25 47 12 58 11 85 -3 82 -42 99 -119 54 -246 -37
-106 -51 -183 -51 -279 0 -96 20 -344 32 -393 l9 -38 639 0 640 0 0 1715 c0
943 -3 1715 -7 1715 -5 -1 -56 -23 -115 -49z m-368 -785 c0 -15 -40 -49 -48
-41 -7 7 27 55 38 55 6 0 10 -6 10 -14z m-2737 -1285 c6 -46 -2 -93 -14 -85
-12 7 -12 124 0 124 4 0 11 -17 14 -39z"/>
</g>
</svg>
