<?xml version="1.0" standalone="no"?>
<!DOCTYPE svg PUBLIC "-//W3C//DTD SVG 20010904//EN"
 "http://www.w3.org/TR/2001/REC-SVG-20010904/DTD/svg10.dtd">
<svg version="1.0" xmlns="http://www.w3.org/2000/svg"
 width="480.000000pt" height="360.000000pt" viewBox="0 0 480.000000 360.000000"
 preserveAspectRatio="xMidYMid meet">
<metadata>
Created by potrace 1.16, written by Peter Selinger 2001-2019
</metadata>
<rect width="1" height="360" fill="#000000"/>
<rect x="479" width="1" height="360" fill="#000000"/>
<rect width="480" height="1" fill="#000000"/>
<rect y="359" width="480" height="1" fill="#000000"/>
<g transform="translate(0.000000,360.000000) scale(0.100000,-0.100000)"
fill="#000000" stroke="none">
<path d="M2602 2280 c-247 -34 -467 -167 -551 -334 -31 -61 -34 -76 -43 -208
-14 -208 -9 -270 28 -349 103 -217 383 -451 612 -510 173 -44 336 -10 448 93
24 22 92 112 150 200 58 87 110 161 117 164 7 2 34 -7 61 -21 65 -33 74 -32
74 10 0 41 -4 44 -72 59 l-51 12 0 104 c0 84 5 120 24 178 44 136 15 249 -97
372 -94 105 -229 188 -344 214 -81 19 -275 27 -356 16z"/>
</g>
</svg>
