<?xml version="1.0" standalone="no"?>
<!DOCTYPE svg PUBLIC "-//W3C//DTD SVG 20010904//EN"
 "http://www.w3.org/TR/2001/REC-SVG-20010904/DTD/svg10.dtd">
<svg version="1.0" xmlns="http://www.w3.org/2000/svg"
 width="480.000000pt" height="360.000000pt" viewBox="0 0 480.000000 360.000000"
 preserveAspectRatio="xMidYMid meet">
<metadata>
Created by potrace 1.16, written by Peter Selinger 2001-2019
</metadata>
<rect width="1" height="360" fill="#000000"/>
<rect x="479" width="1" height="360" fill="#000000"/>
<rect width="480" height="1" fill="#000000"/>
<rect y="359" width="480" height="1" fill="#000000"/>
<g transform="translate(0.000000,360.000000) scale(0.100000,-0.100000)"
fill="#000000" stroke="none">
<path d="M0 1800 l0 -1800 353 0 353 0 10 67 c16 96 63 189 139 271 225 243
712 422 1243 458 l102 7 30 40 30 41 -50 24 c-81 38 -136 101 -161 184 -16 51
-20 85 -16 124 15 147 138 258 287 258 109 0 192 -49 248 -144 23 -39 26 -55
26 -135 0 -79 -3 -96 -28 -145 -16 -30 -49 -74 -73 -97 l-45 -42 41 -17 c23
-9 54 -33 71 -54 l29 -37 117 -7 c154 -9 416 -57 581 -107 288 -86 484 -192
624 -336 104 -107 159 -213 159 -310 l0 -43 365 0 365 0 0 1800 0 1800 -2400
0 -2400 0 0 -1800z"/>
<path d="M2070 734 c-218 -36 -294 -54 -454 -109 -110 -38 -252 -109 -329
-164 -80 -59 -165 -153 -202 -223 -33 -62 -37 -78 -38 -151 l-2 -82 1348 -3
1347 -2 0 70 c0 230 -217 435 -600 564 -140 47 -344 93 -463 103 l-68 6 8 -89
c4 -49 8 -181 8 -294 l0 -205 -60 -30 c-113 -57 -318 -43 -392 27 -21 20 -23
29 -23 130 0 60 5 175 11 255 6 81 11 158 12 172 2 24 -2 26 -38 27 -22 1 -51
0 -65 -2z"/>
</g>
</svg>
