<?xml version="1.0" standalone="no"?>
<!DOCTYPE svg PUBLIC "-//W3C//DTD SVG 20010904//EN"
 "http://www.w3.org/TR/2001/REC-SVG-20010904/DTD/svg10.dtd">
<svg version="1.0" xmlns="http://www.w3.org/2000/svg"
 width="480.000000pt" height="360.000000pt" viewBox="0 0 480.000000 360.000000"
 preserveAspectRatio="xMidYMid meet">
<metadata>
Created by potrace 1.16, written by Peter Selinger 2001-2019
</metadata>
<rect width="1" height="360" fill="#000000"/>
<rect x="479" width="1" height="360" fill="#000000"/>
<rect width="480" height="1" fill="#000000"/>
<rect y="359" width="480" height="1" fill="#000000"/>
<g transform="translate(0.000000,360.000000) scale(0.100000,-0.100000)"
fill="#000000" stroke="none">
<path d="M920 1800 l0 -1800 1940 0 1940 0 0 1800 0 1800 -1940 0 -1940 0 0
-1800z m1972 556 c37 -13 208 -143 208 -158 0 -20 -69 -6 -111 22 -59 40 -79
39 -79 -2 0 -46 7 -52 80 -78 88 -31 140 -58 140 -73 -1 -19 -24 -44 -45 -49
-15 -3 -3 -13 47 -41 61 -35 101 -67 83 -67 -5 0 0 -9 10 -20 16 -18 16 -20 2
-20 -20 0 -22 -11 -4 -29 10 -11 8 -12 -11 -6 -20 6 -23 4 -18 -12 3 -10 8
-50 12 -90 l6 -72 72 -15 c39 -8 89 -18 111 -21 80 -13 105 -25 105 -51 0 -28
1 -28 -70 -9 -83 22 -102 17 -40 -11 l55 -25 131 20 c136 22 221 25 337 14 58
-5 67 -8 62 -24 -5 -14 -1 -16 15 -12 18 5 19 2 14 -25 -6 -27 -3 -32 20 -38
14 -3 26 -13 26 -21 0 -11 7 -14 26 -10 18 3 24 1 20 -9 -3 -8 1 -14 9 -14 8
0 15 -4 15 -10 0 -5 9 -10 20 -10 22 0 27 -16 8 -22 -13 -5 -20 -38 -8 -38 5
0 8 -25 7 -55 -2 -49 -4 -54 -22 -49 l-20 5 20 -17 c14 -12 15 -15 4 -11 -9 3
-21 1 -26 -4 -5 -5 -20 -2 -37 6 -34 18 -39 19 -31 4 8 -11 -17 -34 -52 -49
-23 -10 -32 -30 -13 -30 6 0 10 -5 10 -10 0 -7 -7 -7 -20 0 -11 6 -25 8 -30 5
-5 -3 -27 3 -49 15 -57 29 -62 25 -16 -16 47 -41 30 -35 -38 14 -52 37 -137
63 -277 83 -47 6 -110 21 -140 32 -36 13 -88 21 -151 23 l-97 3 14 -46 c28
-91 12 -142 -40 -129 -15 4 -28 18 -36 38 l-12 33 -12 -34 c-30 -85 -76 -58
-76 44 l0 62 -39 11 c-21 7 -87 12 -147 12 -125 0 -154 11 -154 59 0 51 -1 51
-325 76 -110 8 -212 18 -227 21 -53 11 -27 -11 40 -34 37 -13 81 -30 97 -37
17 -8 46 -15 65 -17 29 -2 34 -7 32 -23 -2 -11 -6 -22 -8 -24 -2 -2 -34 1 -71
7 -43 7 -105 29 -171 62 -101 49 -142 60 -142 40 0 -5 -6 -10 -14 -10 -8 0
-16 -6 -18 -12 -7 -19 -56 17 -60 44 -2 18 -12 24 -48 30 -107 17 -108 18
-131 54 -14 23 -18 39 -12 45 11 11 176 -1 338 -24 118 -17 252 -32 423 -48
l124 -11 45 43 c24 24 60 69 80 99 20 30 41 58 45 61 13 9 12 103 -1 128 -9
16 -8 27 2 48 33 66 32 149 -2 138 -11 -3 -29 7 -51 30 -21 22 -60 44 -104 61
-76 28 -156 70 -168 88 -4 6 -8 25 -8 41 0 17 4 35 8 40 13 18 51 35 79 35 33
0 47 -9 56 -34 5 -12 13 -16 25 -11 9 3 30 9 45 12 17 4 39 21 59 49 49 68
140 92 230 60z"/>
<path d="M3032 1852 c5 -19 3 -20 -12 -12 -31 16 -31 12 -3 -45 l27 -55 38 42
c38 44 47 63 26 55 -7 -2 -28 5 -47 16 l-34 21 5 -22z"/>
<path d="M2807 1693 c-3 -10 -8 -30 -11 -45 -3 -15 -31 -53 -61 -85 -51 -53
-67 -83 -47 -83 16 0 146 96 165 122 l20 27 -27 41 c-30 45 -33 47 -39 23z"/>
<path d="M3179 1576 c15 -18 96 -56 118 -56 10 0 -9 16 -42 35 -64 37 -97 46
-76 21z"/>
</g>
</svg>
