<?xml version="1.0" standalone="no"?>
<!DOCTYPE svg PUBLIC "-//W3C//DTD SVG 20010904//EN"
 "http://www.w3.org/TR/2001/REC-SVG-20010904/DTD/svg10.dtd">
<svg version="1.0" xmlns="http://www.w3.org/2000/svg"
 width="480.000000pt" height="360.000000pt" viewBox="0 0 480.000000 360.000000"
 preserveAspectRatio="xMidYMid meet">
<metadata>
Created by potrace 1.16, written by Peter Selinger 2001-2019
</metadata>
<rect width="1" height="360" fill="#000000"/>
<rect x="479" width="1" height="360" fill="#000000"/>
<rect width="480" height="1" fill="#000000"/>
<rect y="359" width="480" height="1" fill="#000000"/>
<g transform="translate(0.000000,360.000000) scale(0.100000,-0.100000)"
fill="#000000" stroke="none">
<path d="M1964 3531 c-31 -5 -49 -15 -70 -40 -29 -34 -29 -34 -30 -189 -1
-112 2 -164 12 -188 8 -18 11 -39 8 -47 -3 -8 3 -22 12 -32 17 -17 28 -16 117
1 15 3 27 2 27 -3 0 -5 -22 -34 -48 -64 -77 -87 -92 -110 -92 -139 0 -36 18
-50 72 -56 66 -7 78 -28 78 -133 0 -76 20 -187 45 -253 4 -10 -1 -17 -15 -21
-20 -5 -21 -7 -6 -36 22 -41 21 -43 -25 -69 -53 -31 -117 -89 -135 -123 -7
-15 -21 -72 -30 -126 -8 -54 -20 -119 -25 -145 l-10 -47 -50 6 c-74 9 -83 -4
-53 -77 13 -33 24 -65 24 -73 0 -24 -90 -287 -134 -389 -24 -57 -71 -161 -105
-232 -34 -72 -61 -142 -61 -160 0 -17 9 -60 21 -96 15 -50 20 -90 19 -173 -1
-92 2 -111 19 -133 11 -15 22 -49 26 -87 4 -34 17 -94 30 -132 l23 -71 -27
-99 -28 -100 373 -3 c205 -1 544 -1 753 0 l380 3 -85 195 c-123 281 -149 351
-184 488 -33 133 -69 238 -101 290 -15 26 -17 38 -8 53 5 11 7 30 3 42 -4 12
-6 40 -5 62 1 22 -3 89 -8 149 -9 89 -8 121 4 175 22 96 57 211 64 211 3 0 17
-16 30 -36 24 -35 24 -37 22 -252 -3 -349 22 -542 100 -769 58 -167 161 -365
290 -555 l40 -58 55 0 c54 0 55 1 71 37 19 46 8 134 -30 256 -24 74 -24 76 -6
93 16 14 19 32 19 108 0 80 -4 98 -30 154 -17 35 -30 69 -30 76 0 7 14 23 31
35 23 17 30 29 26 45 -3 11 -37 105 -76 207 l-71 187 0 103 c0 57 -5 136 -11
174 -6 39 -12 88 -14 110 -2 22 -10 71 -18 110 -9 38 -14 72 -11 76 2 4 -3 12
-11 19 -8 7 -15 19 -15 28 0 9 -8 34 -19 56 -10 23 -30 70 -45 106 -15 36 -40
85 -55 110 -51 84 -62 118 -59 173 2 38 7 51 17 49 8 -2 11 3 8 11 -22 58 -47
155 -47 183 0 19 -7 51 -15 71 -21 49 -19 96 6 144 26 52 34 45 14 -11 -13
-36 -13 -41 -1 -30 25 20 49 108 44 161 -5 45 -3 49 17 49 38 0 67 49 156 264
51 126 57 155 36 196 -17 33 -110 59 -238 67 -129 8 -224 -10 -260 -48 -26
-28 -27 -28 -44 -9 -32 36 -160 54 -206 30 -15 -9 -21 -7 -26 7 -30 85 -252
156 -419 134z m819 -1737 c5 -27 3 -33 -15 -37 -18 -5 -20 -2 -14 25 3 17 6
42 7 57 0 23 1 24 8 6 4 -11 11 -34 14 -51z"/>
</g>
</svg>
