<?xml version="1.0" standalone="no"?>
<!DOCTYPE svg PUBLIC "-//W3C//DTD SVG 20010904//EN"
 "http://www.w3.org/TR/2001/REC-SVG-20010904/DTD/svg10.dtd">
<svg version="1.0" xmlns="http://www.w3.org/2000/svg"
 width="480.000000pt" height="360.000000pt" viewBox="0 0 480.000000 360.000000"
 preserveAspectRatio="xMidYMid meet">
<metadata>
Created by potrace 1.16, written by Peter Selinger 2001-2019
</metadata>
<rect width="1" height="360" fill="#000000"/>
<rect x="479" width="1" height="360" fill="#000000"/>
<rect width="480" height="1" fill="#000000"/>
<rect y="359" width="480" height="1" fill="#000000"/>
<g transform="translate(0.000000,360.000000) scale(0.100000,-0.100000)"
fill="#000000" stroke="none">
<path d="M1994 2555 c-196 -30 -330 -100 -364 -189 -12 -33 -16 -184 -5 -231
17 -75 50 -163 75 -200 15 -22 68 -78 117 -125 80 -77 90 -91 107 -147 10 -34
18 -74 17 -90 -1 -15 -3 -62 -4 -103 -2 -73 -2 -74 30 -96 98 -66 466 -95 619
-49 79 23 89 40 89 154 1 87 4 102 32 161 26 53 43 72 90 105 118 81 180 151
224 255 12 30 37 71 54 90 52 59 89 152 109 275 9 54 -25 123 -74 149 -47 25
-95 16 -155 -30 l-46 -35 -62 25 c-86 34 -194 62 -309 81 -119 18 -426 19
-544 0z m1092 -160 c12 -18 14 -36 9 -73 -7 -55 -25 -92 -25 -54 0 27 -24 77
-51 106 -19 19 -19 21 -3 33 27 20 52 15 70 -12z"/>
</g>
</svg>
