<?xml version="1.0" standalone="no"?>
<!DOCTYPE svg PUBLIC "-//W3C//DTD SVG 20010904//EN"
 "http://www.w3.org/TR/2001/REC-SVG-20010904/DTD/svg10.dtd">
<svg version="1.0" xmlns="http://www.w3.org/2000/svg"
 width="480.000000pt" height="360.000000pt" viewBox="0 0 480.000000 360.000000"
 preserveAspectRatio="xMidYMid meet">
<metadata>
Created by potrace 1.16, written by Peter Selinger 2001-2019
</metadata>
<rect width="1" height="360" fill="#000000"/>
<rect x="479" width="1" height="360" fill="#000000"/>
<rect width="480" height="1" fill="#000000"/>
<rect y="359" width="480" height="1" fill="#000000"/>
<g transform="translate(0.000000,360.000000) scale(0.100000,-0.100000)"
fill="#000000" stroke="none">
<path d="M0 2611 c0 -976 0 -989 20 -994 11 -3 25 -17 32 -32 11 -24 9 -28
-20 -51 l-32 -25 0 -755 0 -754 1136 0 c1032 0 1136 1 1130 16 -3 9 -6 31 -6
50 l0 34 -92 -6 c-82 -5 -97 -3 -124 14 -36 23 -60 75 -41 90 7 5 73 21 147
36 74 15 139 31 144 36 5 5 -2 22 -18 40 -39 47 -33 83 14 94 31 7 53 -9 67
-50 12 -34 3 -53 -26 -55 -9 0 -3 -5 13 -9 21 -7 47 -4 90 10 34 10 136 40
227 66 l166 48 48 74 c53 80 53 80 -15 102 -34 11 -40 10 -67 -9 -18 -13 -36
-19 -46 -15 -24 9 -49 59 -42 86 5 21 -14 33 -245 146 -220 108 -250 125 -250
146 0 12 9 31 20 41 19 17 21 16 68 -14 50 -32 311 -159 395 -192 l49 -19 28
30 c15 16 35 30 43 30 22 0 57 -48 57 -77 0 -20 10 -29 55 -49 67 -29 81 -30
95 -5 5 11 30 34 54 52 49 34 53 42 66 109 8 41 6 47 -16 65 -25 20 -25 21 -8
54 19 38 23 119 10 226 -6 61 -5 75 13 110 12 21 21 44 21 50 0 7 -18 27 -41
45 -79 63 -87 141 -21 206 l37 36 -27 23 c-15 13 -32 25 -38 27 -9 3 -8 10 1
30 10 22 9 31 -1 43 -7 9 -19 14 -26 11 -7 -3 -16 -1 -19 4 -4 6 -11 10 -16
10 -6 0 -7 -5 -4 -10 7 -12 -45 10 -62 26 -6 6 -47 18 -91 27 -104 21 -162 49
-201 98 -48 58 -64 52 -73 -30 -4 -36 -28 -39 -28 -4 0 56 27 54 -566 55 -302
1 -605 -2 -674 -5 -69 -4 -213 -12 -320 -17 -107 -6 -244 -15 -303 -21 -59 -7
-110 -9 -114 -6 -3 4 5 16 18 27 62 54 186 84 409 100 80 6 168 13 195 16 28
3 343 9 700 12 l650 7 3 38 c2 24 8 37 18 37 10 0 14 -13 14 -45 0 -46 9 -56
29 -32 6 8 26 14 44 15 19 1 56 9 83 18 l48 16 23 -28 c13 -16 23 -32 23 -36
0 -10 57 -20 78 -14 11 4 28 22 38 42 19 37 110 111 175 144 19 10 69 28 110
39 41 11 99 29 129 40 58 21 173 28 199 12 12 -8 13 -18 3 -59 -16 -70 -6 -97
47 -124 68 -35 71 -47 27 -111 -45 -66 -44 -89 9 -136 39 -34 42 -41 20 -41
-19 0 -19 -2 2 -44 16 -35 16 -36 -7 -56 l-24 -21 43 -43 c32 -32 44 -54 48
-84 8 -62 -5 -109 -42 -151 -19 -21 -38 -48 -43 -62 -18 -45 12 -292 60 -510
12 -53 18 -103 15 -113 -6 -15 -24 -25 -71 -41 -13 -4 -16 -9 -10 -15 7 -7 45
2 110 24 118 42 452 163 545 199 l67 25 25 -26 c25 -26 66 -106 67 -129 0 -13
-74 -40 -415 -153 -137 -46 -264 -89 -282 -97 -17 -7 -38 -13 -46 -13 -26 0
-27 -14 -4 -85 l22 -69 70 -28 c142 -59 347 -133 610 -220 149 -50 279 -99
291 -109 13 -12 35 -19 62 -19 l42 0 0 1330 0 1330 -32 0 c-18 0 -85 -7 -148
-15 -369 -47 -442 -51 -540 -30 -103 22 -153 48 -225 119 -99 98 -192 311
-168 382 l11 29 26 -60 c56 -125 89 -184 129 -225 55 -58 133 -92 222 -98 71
-4 211 13 220 27 2 5 -9 21 -26 37 -41 39 -75 107 -89 181 -10 52 -10 73 4
133 36 159 163 280 349 330 71 20 90 21 141 12 34 -7 72 -22 92 -37 l34 -26 0
90 0 91 -2400 0 -2400 0 0 -989z m3528 78 c-2 -6 -8 -10 -13 -10 -5 0 -11 4
-13 10 -2 6 4 11 13 11 9 0 15 -5 13 -11z"/>
<path d="M3784 194 c11 -27 96 -150 120 -173 22 -21 30 -21 237 -19 l214 3
-85 29 c-47 15 -174 62 -283 102 -109 41 -201 74 -204 74 -3 0 -2 -7 1 -16z"/>
<path d="M2560 174 c-30 -7 -89 -21 -130 -29 -162 -34 -165 -36 -154 -106 l7
-39 102 0 102 0 74 81 c41 44 78 87 82 95 10 17 -7 17 -83 -2z"/>
</g>
</svg>
