<?xml version="1.0" standalone="no"?>
<!DOCTYPE svg PUBLIC "-//W3C//DTD SVG 20010904//EN"
 "http://www.w3.org/TR/2001/REC-SVG-20010904/DTD/svg10.dtd">
<svg version="1.0" xmlns="http://www.w3.org/2000/svg"
 width="480.000000pt" height="360.000000pt" viewBox="0 0 480.000000 360.000000"
 preserveAspectRatio="xMidYMid meet">
<metadata>
Created by potrace 1.16, written by Peter Selinger 2001-2019
</metadata>
<rect width="1" height="360" fill="#000000"/>
<rect x="479" width="1" height="360" fill="#000000"/>
<rect width="480" height="1" fill="#000000"/>
<rect y="359" width="480" height="1" fill="#000000"/>
<g transform="translate(0.000000,360.000000) scale(0.100000,-0.100000)"
fill="#000000" stroke="none">
<path d="M0 1800 l0 -1800 429 0 428 0 7 72 c4 46 3 75 -4 82 -6 6 -48 13 -93
14 -45 2 -87 8 -93 13 -6 5 -17 29 -24 54 -19 67 -35 76 -145 84 -78 6 -99 12
-119 30 -21 20 -25 20 -52 6 -16 -8 -34 -15 -41 -15 -21 0 -26 66 -9 116 9 26
16 59 16 72 0 15 15 39 41 64 32 32 38 42 28 49 -11 7 -5 17 26 44 22 19 43
35 48 35 4 0 7 12 7 27 0 27 43 83 64 83 19 1 100 80 82 80 -9 0 -16 3 -16 6
0 3 31 40 69 83 129 147 251 323 251 364 0 16 -3 17 -14 8 -20 -17 -37 17 -43
88 -4 45 0 70 22 126 33 85 95 276 95 290 -1 25 -41 -47 -65 -114 -15 -40 -53
-127 -86 -193 -32 -66 -59 -128 -59 -138 0 -9 7 -31 15 -48 22 -43 31 -127 15
-137 -12 -8 -34 12 -43 38 -1 5 -12 7 -24 3 -14 -5 -32 -34 -57 -95 -34 -79
-80 -141 -106 -141 -17 0 -22 43 -15 123 7 91 16 121 57 189 40 65 83 197 113
348 14 70 25 133 25 140 0 29 -22 -9 -56 -98 -20 -53 -43 -104 -50 -112 -7 -9
-17 -27 -23 -40 -15 -38 -14 1 3 79 7 36 10 76 7 89 l-7 25 -15 -24 c-23 -36
-66 -159 -74 -212 -8 -55 -25 -63 -25 -12 l0 36 -25 -18 c-17 -13 -24 -28 -25
-50 0 -41 -14 -42 -32 -3 -16 37 -24 38 -32 5 -10 -39 -25 -29 -19 12 8 48
-12 36 -39 -23 -18 -42 -38 -58 -38 -32 0 6 -7 3 -15 -8 -14 -18 -14 -18 -16
11 -1 29 -1 29 -13 -9 -9 -27 -15 -36 -20 -27 -7 11 -10 11 -17 0 -7 -11 -9
-11 -9 1 0 9 -9 23 -20 33 -16 14 -20 29 -20 82 0 37 4 85 9 108 21 96 54 244
62 277 16 64 102 181 267 359 108 117 148 220 137 350 -6 74 10 174 37 224 17
32 -7 47 -63 40 -39 -5 -53 -2 -69 12 -11 10 -20 24 -20 32 0 8 25 39 55 69
l55 56 -20 28 c-12 17 -44 38 -86 54 -37 15 -81 38 -99 51 -17 14 -37 25 -43
25 -7 0 -12 5 -12 10 0 6 5 10 12 10 14 0 132 -35 206 -61 30 -11 62 -19 73
-19 10 0 28 -9 39 -20 20 -20 20 -20 66 5 58 31 97 32 124 3 26 -28 25 -40 -4
-75 -36 -43 -22 -56 41 -42 43 10 62 9 119 -5 73 -19 138 -52 129 -67 -3 -5 0
-19 6 -31 14 -25 12 -83 -2 -111 -8 -14 -5 -19 15 -27 22 -8 25 -16 31 -86 6
-62 5 -78 -7 -85 -8 -5 -25 -16 -37 -26 -22 -18 -22 -19 -6 -61 13 -31 34 -54
85 -92 40 -30 79 -69 94 -94 14 -24 62 -77 106 -117 98 -91 108 -115 74 -189
-25 -55 -42 -163 -38 -246 4 -75 21 -162 64 -329 84 -324 163 -693 163 -755
-1 -25 3 -50 8 -56 12 -15 17 -170 10 -303 -7 -113 -8 -115 -73 -126 -30 -5
-41 -13 -63 -50 -38 -66 -51 -70 -168 -55 -115 16 -120 13 -132 -67 -4 -25 -9
-52 -12 -59 -4 -12 175 -14 1146 -14 941 0 1151 2 1151 13 0 41 -42 232 -52
239 -7 4 -29 4 -48 0 -19 -4 -59 -6 -88 -5 -49 1 -57 5 -107 52 -32 31 -63 51
-77 51 -45 0 -52 13 -45 84 4 38 2 68 -3 71 -16 10 -12 35 5 35 18 0 19 14 3
32 -16 16 -21 42 -19 86 0 13 5 21 10 18 17 -11 29 20 35 94 4 50 3 70 -3 60
-6 -8 -12 -12 -15 -9 -8 8 12 127 34 195 41 128 71 263 96 423 14 91 37 226
51 299 21 111 24 155 21 260 -3 107 -7 134 -26 169 -41 77 -34 95 72 197 52
50 99 103 105 118 5 14 41 50 79 80 63 48 112 112 112 146 0 5 -16 23 -35 39
l-36 28 12 78 c10 60 16 77 29 77 27 0 30 11 14 41 -16 32 -11 73 13 101 8 9
12 21 9 27 -9 14 40 45 102 66 60 19 138 15 187 -11 l29 -15 93 93 c51 51 93
88 93 83 0 -6 -27 -53 -60 -104 -34 -51 -59 -98 -58 -103 2 -5 42 32 88 82
119 128 202 211 207 206 2 -2 -5 -22 -17 -45 -16 -33 -18 -41 -6 -41 8 0 28
-11 43 -24 l28 -24 -48 -21 c-54 -23 -77 -26 -77 -10 0 6 -21 -18 -47 -53 -25
-34 -59 -77 -75 -94 l-29 -31 25 -49 c25 -48 59 -181 50 -196 -3 -4 -5 -47 -5
-96 0 -104 24 -188 68 -235 16 -17 100 -77 188 -135 110 -73 180 -127 227
-176 l68 -71 0 753 0 752 -2400 0 -2400 0 0 -1800z"/>
<path d="M3850 2113 c0 -19 11 -43 21 -43 13 0 11 14 -6 36 -8 10 -15 14 -15
7z"/>
<path d="M3854 2044 c10 -24 46 -140 81 -259 27 -90 27 -91 84 -128 32 -20 60
-37 64 -37 3 0 -19 53 -48 118 -30 65 -57 132 -61 148 -8 36 -75 164 -85 164
-4 0 -15 3 -25 7 -14 5 -16 3 -10 -13z"/>
<path d="M3741 1900 c-1 -53 29 -124 58 -140 12 -6 21 -9 21 -7 0 6 -27 73
-50 122 -10 22 -20 47 -23 55 -3 8 -6 -5 -6 -30z"/>
<path d="M4457 1919 c18 -20 35 -52 48 -89 1 -3 12 -26 24 -53 12 -26 19 -52
16 -57 -3 -6 -2 -10 3 -10 5 0 7 -13 4 -30 -2 -16 -8 -27 -14 -24 -5 3 -2 -11
7 -32 8 -20 13 -39 11 -41 -2 -2 -28 23 -57 56 -29 34 -57 61 -62 61 -5 0 -6
-15 -3 -34 4 -18 2 -44 -3 -57 -9 -24 -9 -23 -25 13 -10 23 -21 35 -29 32 -8
-3 -18 6 -25 21 -6 14 -16 25 -22 25 -6 0 -4 -13 5 -32 16 -32 16 -32 -2 -12
-10 12 -36 52 -58 89 -43 72 -89 132 -79 103 3 -10 1 -18 -4 -18 -6 0 -16 8
-21 18 -18 30 -12 -5 10 -60 20 -51 20 -52 1 -34 -20 17 -20 17 -5 -36 39
-138 64 -210 92 -262 18 -32 35 -84 41 -123 10 -58 19 -79 69 -148 110 -153
161 -268 161 -364 0 -17 11 -74 24 -128 40 -162 41 -256 3 -224 -13 10 -16 8
-19 -10 -3 -22 -3 -22 -35 5 -18 15 -42 43 -54 63 -26 42 -38 29 -15 -16 17
-33 21 -78 7 -100 -5 -8 -42 -17 -96 -23 -111 -12 -118 -15 -193 -82 -62 -56
-63 -56 -127 -56 l-64 0 4 -27 c2 -16 9 -59 15 -98 6 -38 13 -82 16 -98 l6
-27 394 0 394 0 0 894 0 894 -31 11 c-17 6 -52 24 -78 39 -25 16 -59 32 -76
36 -16 4 -52 18 -80 31 -27 13 -61 26 -75 30 l-25 7 22 -23z"/>
<path d="M1048 1727 c-61 -123 -65 -133 -50 -150 19 -22 20 -21 85 87 32 54
42 81 45 126 2 32 0 60 -5 63 -5 3 -39 -53 -75 -126z"/>
<path d="M3740 206 l-35 -13 0 -69 c0 -38 4 -81 8 -96 7 -27 10 -28 77 -28 51
0 70 4 70 13 0 32 -62 207 -73 206 -7 0 -28 -6 -47 -13z"/>
<path d="M1105 105 c-5 -2 -22 -6 -36 -9 -19 -4 -31 -17 -43 -46 -9 -22 -16
-43 -16 -45 0 -3 29 -5 64 -5 71 0 76 4 76 71 0 38 -10 46 -45 34z"/>
</g>
</svg>
