<?xml version="1.0" standalone="no"?>
<!DOCTYPE svg PUBLIC "-//W3C//DTD SVG 20010904//EN"
 "http://www.w3.org/TR/2001/REC-SVG-20010904/DTD/svg10.dtd">
<svg version="1.0" xmlns="http://www.w3.org/2000/svg"
 width="480.000000pt" height="360.000000pt" viewBox="0 0 480.000000 360.000000"
 preserveAspectRatio="xMidYMid meet">
<metadata>
Created by potrace 1.16, written by Peter Selinger 2001-2019
</metadata>
<rect width="1" height="360" fill="#000000"/>
<rect x="479" width="1" height="360" fill="#000000"/>
<rect width="480" height="1" fill="#000000"/>
<rect y="359" width="480" height="1" fill="#000000"/>
<g transform="translate(0.000000,360.000000) scale(0.100000,-0.100000)"
fill="#000000" stroke="none">
<path d="M0 1800 l0 -1800 2400 0 2400 0 0 1800 0 1800 -2400 0 -2400 0 0
-1800z m2686 1504 c-5 -13 -10 -14 -18 -6 -6 6 -8 18 -4 28 5 13 10 14 18 6 6
-6 8 -18 4 -28z m-772 -86 c3 -7 7 -26 11 -43 l6 -30 -24 30 c-14 16 -22 35
-20 42 7 17 22 17 27 1z m322 -319 c10 -17 -13 -36 -27 -22 -12 12 -4 33 11
33 5 0 12 -5 16 -11z m244 -165 c0 -26 -17 -33 -26 -9 -8 20 3 48 16 40 5 -3
10 -17 10 -31z m-769 -217 c4 -15 3 -27 -1 -27 -13 0 -40 42 -34 52 10 16 28
3 35 -25z m-131 8 c0 -8 -7 -15 -15 -15 -8 0 -15 7 -15 15 0 8 7 15 15 15 8 0
15 -7 15 -15z m204 -50 c3 -8 1 -15 -3 -15 -5 0 -11 7 -15 15 -3 8 -1 15 3 15
5 0 11 -7 15 -15z m136 -22 c0 -25 -1 -26 -20 -8 -21 19 -18 35 6 35 9 0 14
-10 14 -27z m60 -8 c0 -28 -12 -32 -30 -10 -14 16 -6 35 16 35 8 0 14 -10 14
-25z m230 -12 c0 -25 -1 -26 -16 -11 -9 9 -13 21 -10 27 13 20 26 11 26 -16z
m280 -12 c0 -26 -16 -35 -24 -15 -10 25 -7 34 9 34 8 0 15 -9 15 -19z m32 -32
c-1 -13 5 -29 14 -36 9 -6 13 -16 9 -22 -12 -20 -24 -11 -34 27 -14 49 -14 65
2 59 6 -2 11 -15 9 -28z m-462 -17 c0 -15 -4 -34 -9 -41 -16 -25 -36 31 -22
58 15 27 31 18 31 -17z m768 11 c-5 -25 -28 -28 -28 -4 0 12 6 21 16 21 9 0
14 -7 12 -17z m-210 -50 c-2 -16 -10 -29 -19 -31 -12 -2 -15 4 -11 28 6 39 35
42 30 3z m-831 -30 c-4 -3 -13 0 -22 7 -12 10 -13 16 -3 27 11 13 14 12 22 -6
5 -12 6 -24 3 -28z m543 22 c0 -28 -15 -33 -24 -8 -4 9 -1 20 6 25 18 11 18
11 18 -17z m-140 -16 c0 -10 -4 -19 -9 -19 -12 0 -23 29 -15 41 8 14 24 0 24
-22z m484 22 c7 -11 -3 -41 -14 -41 -10 0 -20 37 -12 44 8 9 20 7 26 -3z
m-564 -16 c0 -21 -30 -31 -40 -14 -11 17 -3 29 21 29 10 0 19 -7 19 -15z
m-296 -41 c4 -9 4 -19 2 -21 -8 -8 -26 8 -26 23 0 19 16 18 24 -2z m761 -79
c0 -10 -6 -20 -12 -22 -8 -3 -13 5 -13 22 0 17 5 25 13 23 6 -3 12 -13 12 -23z
m235 -39 c0 -2 -3 -11 -6 -20 -9 -23 -24 -20 -24 4 0 11 7 20 15 20 8 0 15 -2
15 -4z m-830 -105 c13 -25 13 -31 -1 -31 -12 0 -38 29 -39 43 0 15 30 6 40
-12z m-300 -32 c7 -11 9 -23 7 -26 -8 -7 -47 21 -47 34 0 21 28 15 40 -8z
m753 -29 c-3 -11 -9 -20 -14 -20 -10 0 -12 33 -3 43 12 12 22 -3 17 -23z m252
-10 c0 -36 -29 -33 -33 3 -3 23 0 28 15 25 12 -2 18 -12 18 -28z m-830 -9 c3
-5 -2 -17 -11 -26 -15 -14 -19 -15 -32 -2 -8 8 -11 20 -8 26 9 13 43 15 51 2z
m-95 -86 c0 -8 -4 -16 -9 -19 -12 -8 -34 21 -27 33 9 14 36 2 36 -14z m108
-78 c2 -15 -1 -27 -5 -27 -15 0 -33 23 -33 43 0 30 34 16 38 -16z m802 19 c0
-8 -4 -18 -10 -21 -5 -3 -10 3 -10 14 0 12 5 21 10 21 6 0 10 -6 10 -14z m250
-91 c0 -15 -46 -32 -57 -22 -3 4 -3 13 0 22 8 20 57 20 57 0z m120 -15 c-24
-16 -31 -11 -19 11 8 16 14 18 22 10 9 -9 8 -14 -3 -21z m-1030 -26 c0 -18
-14 -18 -30 1 -16 19 -3 40 16 24 8 -6 14 -18 14 -25z m410 -4 c0 -11 -4 -20
-10 -20 -5 0 -10 2 -10 4 0 2 -3 11 -6 20 -4 11 -1 16 10 16 9 0 16 -8 16 -20z
m-632 -33 c2 -10 -3 -17 -12 -17 -9 0 -16 2 -16 4 0 2 -3 12 -6 21 -5 13 -2
16 12 13 10 -2 20 -11 22 -21z m272 3 c0 -21 -15 -27 -25 -10 -7 12 2 30 16
30 5 0 9 -9 9 -20z m423 -37 l-10 -28 -12 23 c-10 18 -10 26 0 38 19 23 33 1
22 -33z m197 8 c0 -14 -28 -33 -39 -27 -16 10 -1 36 20 36 10 0 19 -4 19 -9z
m50 -4 c0 -7 -6 -22 -14 -33 -14 -18 -15 -18 -21 -1 -4 9 -5 24 -1 32 7 18 36
20 36 2z m80 -6 c0 -12 -29 -35 -36 -28 -11 10 5 37 21 37 8 0 15 -4 15 -9z
m-1072 -25 c3 -13 -1 -17 -14 -14 -11 2 -20 11 -22 22 -3 13 1 17 14 14 11 -2
20 -11 22 -22z m526 -15 c8 -13 -4 -42 -15 -35 -12 7 -12 44 0 44 6 0 12 -4
15 -9z m-84 -22 c0 -24 -23 -21 -28 4 -2 10 3 17 12 17 10 0 16 -9 16 -21z
m488 -1 c-6 -18 -28 -21 -28 -4 0 9 7 16 16 16 9 0 14 -5 12 -12z m-468 -58
c0 -11 -7 -20 -15 -20 -8 0 -15 2 -15 4 0 2 -3 11 -6 20 -4 12 0 16 15 16 14
0 21 -6 21 -20z m127 9 c16 -16 5 -39 -18 -39 -20 0 -23 8 -13 34 7 19 16 20
31 5z m159 -34 c-3 -8 -10 -15 -16 -15 -14 0 -12 37 3 43 15 5 21 -8 13 -28z
m434 -51 c11 -29 6 -44 -15 -44 -18 0 -38 37 -31 56 9 23 36 16 46 -12z
m-1169 -6 c10 -18 9 -20 -6 -15 -9 4 -19 7 -21 7 -2 0 -4 7 -4 15 0 22 18 18
31 -7z m707 -5 c-4 -22 -22 -20 -26 1 -2 10 3 16 13 16 10 0 15 -7 13 -17z
m-378 -28 c0 -8 -6 -15 -14 -15 -17 0 -28 14 -19 24 12 12 33 6 33 -9z m295 6
c7 -12 -12 -24 -25 -16 -11 7 -4 25 10 25 5 0 11 -4 15 -9z m325 -16 c0 -16
-27 -32 -37 -22 -3 4 -3 13 0 22 8 20 37 20 37 0z m-742 -29 c3 -12 -1 -17
-10 -14 -7 3 -15 13 -16 22 -3 12 1 17 10 14 7 -3 15 -13 16 -22z m972 0 c0
-14 -29 -31 -38 -22 -2 3 -2 12 1 21 8 19 37 20 37 1z m-184 -17 c10 -17 -23
-46 -38 -31 -8 8 -8 15 2 27 15 18 26 19 36 4z m-261 -49 c4 -6 1 -18 -6 -26
-11 -14 -13 -14 -21 0 -15 26 12 51 27 26z m-315 -45 c0 -8 -4 -15 -10 -15 -5
0 -10 7 -10 15 0 8 5 15 10 15 6 0 10 -7 10 -15z m-40 -5 c13 -8 13 -11 -2
-27 -17 -16 -19 -16 -34 -1 -28 27 1 50 36 28z m280 -9 c0 -11 -4 -22 -8 -25
-14 -9 -35 12 -29 28 9 23 37 20 37 -3z m564 -20 c3 -4 -3 -16 -14 -26 -26
-23 -52 -6 -30 20 14 17 36 20 44 6z m-74 -55 c0 -8 -4 -17 -8 -20 -13 -8 -35
11 -28 23 10 16 36 14 36 -3z m-500 -31 c0 -8 -9 -15 -20 -15 -13 0 -18 5 -14
15 4 8 12 15 20 15 8 0 14 -7 14 -15z m170 -10 c0 -8 -4 -15 -10 -15 -5 0 -10
7 -10 15 0 8 5 15 10 15 6 0 10 -7 10 -15z m-133 -29 c-4 -13 -47 -21 -47 -9
0 5 5 14 11 20 14 14 41 5 36 -11z m-57 -41 c0 -19 -20 -29 -32 -17 -8 8 -7
16 2 26 14 17 30 12 30 -9z m165 5 c0 -8 -10 -16 -22 -18 -18 -3 -23 2 -23 18
0 16 5 21 23 18 12 -2 22 -10 22 -18z m-345 -64 c-13 -13 -35 7 -25 24 5 8 11
8 21 -1 10 -8 12 -15 4 -23z m-125 -27 c10 -15 -1 -23 -20 -15 -9 3 -13 10
-10 16 8 13 22 13 30 -1z m215 -7 c0 -10 5 -23 11 -29 7 -7 8 -17 3 -25 -5 -7
-9 -20 -9 -28 0 -8 -7 -16 -15 -18 -13 -2 -16 9 -16 58 0 43 4 60 13 60 7 0
13 -8 13 -18z m151 -25 c-1 -4 -1 -19 -1 -33 0 -16 -5 -24 -12 -22 -13 5 -20
46 -11 61 6 9 25 5 24 -6z m-241 -32 c0 -8 -6 -15 -14 -15 -17 0 -28 14 -19
24 12 12 33 6 33 -9z m-100 -31 c0 -8 -7 -14 -15 -14 -15 0 -21 21 -9 33 10 9
24 -2 24 -19z m568 -27 c2 -11 -3 -17 -16 -17 -24 0 -32 8 -25 26 7 20 37 13
41 -9z m-508 -43 c0 -16 -16 -19 -25 -4 -8 13 4 32 16 25 5 -4 9 -13 9 -21z
m401 -19 c0 -5 -9 -11 -21 -13 -20 -3 -27 8 -13 22 10 9 34 3 34 -9z m-123
-47 c-7 -19 -38 -22 -38 -4 0 10 9 16 21 16 12 0 19 -5 17 -12z m202 -17 c0
-14 -18 -23 -30 -16 -6 4 -8 11 -5 16 8 12 35 12 35 0z m-265 -20 c3 -5 1 -13
-5 -16 -15 -9 -43 3 -35 15 8 13 32 13 40 1z m-197 -39 c4 -13 -45 -28 -56
-17 -8 8 28 37 42 32 5 -2 11 -8 14 -15z m242 -12 c0 -12 -32 -50 -42 -50 -5
0 -8 7 -8 15 0 8 4 15 9 15 5 0 11 9 14 21 5 20 27 19 27 -1z m435 11 c3 -5 1
-12 -5 -16 -13 -8 -50 3 -50 16 0 12 47 12 55 0z m-589 -28 c-10 -10 -19 5
-10 18 6 11 8 11 12 0 2 -7 1 -15 -2 -18z m220 -32 c-8 -13 -36 -15 -36 -3 0
4 5 13 12 20 14 14 34 0 24 -17z m-136 5 c0 -16 -18 -31 -27 -22 -8 8 5 36 17
36 5 0 10 -6 10 -14z m286 -9 c16 -15 -10 -27 -49 -21 -49 8 -51 9 -42 24 7
11 80 9 91 -3z m-136 -67 c0 -13 -5 -18 -15 -14 -8 4 -15 12 -15 20 0 8 7 14
15 14 8 0 15 -9 15 -20z m-130 -25 c0 -8 -9 -15 -20 -15 -11 0 -20 7 -20 15 0
8 9 15 20 15 11 0 20 -7 20 -15z m180 0 c0 -9 -9 -15 -25 -15 -16 0 -25 -6
-25 -15 0 -17 -18 -19 -39 -6 -17 11 -5 31 19 31 10 0 22 5 25 10 10 16 45 12
45 -5z m-155 -46 c9 -14 -24 -49 -46 -49 -13 0 -17 5 -12 18 14 39 44 55 58
31z m-189 -20 c10 -17 -23 -46 -37 -32 -7 7 -9 19 -6 27 7 18 33 21 43 5z
m341 -19 c8 -12 9 -21 3 -25 -14 -9 -50 13 -50 30 0 22 33 18 47 -5z m-364
-61 c-17 -17 -37 -1 -22 17 8 10 15 12 23 4 7 -7 7 -13 -1 -21z m257 -25 c0
-8 -7 -14 -15 -14 -15 0 -21 21 -9 33 10 9 24 -2 24 -19z m-186 -16 c7 -27
-11 -49 -23 -29 -6 9 -11 10 -15 2 -13 -20 -38 -12 -34 11 3 19 22 31 59 37 4
1 9 -9 13 -21z m89 7 c1 -5 -6 -11 -15 -13 -11 -2 -18 3 -18 13 0 17 30 18 33
0z m61 -40 c3 -8 15 -15 26 -15 16 0 20 -7 20 -31 0 -31 0 -31 -25 -15 -13 9
-31 16 -40 16 -8 0 -15 3 -15 8 0 4 -3 17 -6 30 -5 17 -2 22 14 22 11 0 22 -7
26 -15z m-141 -46 c-17 -17 -37 -1 -22 17 8 10 15 12 23 4 7 -7 7 -13 -1 -21z
m86 2 c11 -20 5 -31 -16 -31 -7 0 -13 11 -13 25 0 29 15 33 29 6z m41 -57 c0
-8 -7 -14 -15 -14 -15 0 -21 21 -9 33 10 9 24 -2 24 -19z"/>
</g>
</svg>
