<?xml version="1.0" standalone="no"?>
<!DOCTYPE svg PUBLIC "-//W3C//DTD SVG 20010904//EN"
 "http://www.w3.org/TR/2001/REC-SVG-20010904/DTD/svg10.dtd">
<svg version="1.0" xmlns="http://www.w3.org/2000/svg"
 width="480.000000pt" height="360.000000pt" viewBox="0 0 480.000000 360.000000"
 preserveAspectRatio="xMidYMid meet">
<metadata>
Created by potrace 1.16, written by Peter Selinger 2001-2019
</metadata>
<rect width="1" height="360" fill="#000000"/>
<rect x="479" width="1" height="360" fill="#000000"/>
<rect width="480" height="1" fill="#000000"/>
<rect y="359" width="480" height="1" fill="#000000"/>
<g transform="translate(0.000000,360.000000) scale(0.100000,-0.100000)"
fill="#000000" stroke="none">
<path d="M2713 3363 c-4 -10 -1 -19 7 -21 21 -7 90 -73 90 -86 0 -7 -33 -22
-72 -35 -163 -51 -225 -117 -249 -259 -4 -31 -14 -59 -21 -63 -10 -6 -10 -17
1 -51 26 -87 25 -94 -8 -123 -65 -58 -139 -95 -192 -95 -48 0 -49 -1 -49 -30
0 -63 48 -110 83 -82 7 6 23 9 35 5 12 -3 29 0 37 7 9 7 18 10 21 7 4 -3 24 3
45 13 45 23 51 17 49 -48 -3 -73 -2 -80 10 -62 5 8 10 10 10 4 0 -7 18 -39 40
-71 52 -78 63 -151 64 -418 1 -227 -6 -304 -40 -460 -14 -60 -34 -153 -46
-205 -12 -55 -33 -115 -49 -143 -16 -26 -29 -56 -29 -68 0 -11 -19 -55 -42
-97 -23 -42 -50 -95 -61 -117 -11 -22 -28 -52 -38 -67 -23 -32 -24 -68 -3
-160 15 -64 15 -74 0 -111 -12 -32 -13 -43 -4 -49 10 -6 10 -10 0 -20 -12 -12
-18 -88 -7 -88 22 0 69 37 96 75 30 41 34 44 50 30 13 -13 15 -23 8 -53 -5
-20 -9 -40 -9 -44 0 -4 -12 -13 -27 -20 -30 -15 -47 -45 -19 -35 13 5 15 3 7
-11 -12 -22 12 -57 33 -49 12 5 14 -3 11 -41 -2 -26 -7 -86 -10 -135 l-5 -87
692 2 693 3 8 75 c4 41 9 145 11 230 3 85 13 229 23 320 l20 165 -23 135 c-35
204 -40 230 -89 404 -97 352 -90 295 -87 711 3 332 5 370 20 381 48 35 57 45
44 51 -28 11 -82 66 -82 82 0 10 -9 53 -21 97 -13 50 -21 105 -20 149 3 136
-66 276 -171 349 -91 62 -247 107 -422 121 -83 7 -91 10 -115 38 -49 58 -182
92 -198 50z"/>
</g>
</svg>
