<?xml version="1.0" standalone="no"?>
<!DOCTYPE svg PUBLIC "-//W3C//DTD SVG 20010904//EN"
 "http://www.w3.org/TR/2001/REC-SVG-20010904/DTD/svg10.dtd">
<svg version="1.0" xmlns="http://www.w3.org/2000/svg"
 width="480.000000pt" height="360.000000pt" viewBox="0 0 480.000000 360.000000"
 preserveAspectRatio="xMidYMid meet">
<metadata>
Created by potrace 1.16, written by Peter Selinger 2001-2019
</metadata>
<rect width="1" height="360" fill="#000000"/>
<rect x="479" width="1" height="360" fill="#000000"/>
<rect width="480" height="1" fill="#000000"/>
<rect y="359" width="480" height="1" fill="#000000"/>
<g transform="translate(0.000000,360.000000) scale(0.100000,-0.100000)"
fill="#000000" stroke="none">
<path d="M270 3584 c-14 -7 -33 -14 -42 -14 -23 0 -31 -16 -19 -39 8 -14 7
-22 -4 -31 -8 -7 -15 -19 -15 -26 0 -19 44 -168 89 -304 45 -135 57 -195 41
-205 -6 -4 -11 -27 -9 -54 1 -25 -2 -54 -6 -63 -4 -11 1 -28 13 -45 50 -71 75
-138 88 -240 7 -57 18 -113 24 -124 6 -11 10 -32 8 -47 -3 -23 -9 -28 -53 -37
-87 -18 -140 -56 -151 -111 -10 -51 35 -79 173 -105 35 -6 64 -17 67 -25 5
-12 -4 -13 -44 -8 -54 7 -67 -5 -26 -24 14 -6 41 -36 60 -66 42 -66 65 -80
122 -73 58 6 97 37 123 96 23 54 39 63 133 76 65 8 108 45 108 91 0 42 -47 98
-104 124 -51 23 -111 42 -122 38 -18 -5 -54 14 -54 28 0 21 51 63 76 64 12 0
48 14 79 30 56 29 59 30 78 13 10 -10 32 -37 48 -59 26 -39 32 -42 90 -48 51
-6 64 -4 80 10 11 10 19 27 17 38 -4 25 -38 35 -38 12 0 -10 -6 -13 -15 -10
-8 4 -15 11 -15 16 0 6 -22 31 -48 57 -27 25 -59 59 -71 76 -27 35 -61 36
-160 6 -36 -11 -67 -18 -70 -16 -2 3 5 15 17 28 23 25 29 43 11 31 -7 -4 -9 0
-5 14 4 11 9 29 11 40 2 11 11 34 20 51 9 18 12 37 8 44 -4 6 -6 24 -4 39 2
23 -1 27 -14 21 -14 -5 -16 -2 -10 17 7 22 6 22 -29 -5 -20 -15 -39 -25 -43
-21 -3 3 -1 6 6 6 7 0 10 4 7 8 -7 12 88 180 122 216 15 15 78 73 140 128 101
90 112 102 112 133 0 19 -4 37 -10 40 -5 3 -7 19 -3 35 5 26 2 31 -23 40 -16
6 -37 24 -46 40 -9 17 -23 30 -31 30 -33 0 -119 33 -145 55 l-30 25 -243 -1
c-188 -1 -250 -4 -269 -15z"/>
<path d="M2400 1800 l0 -1800 874 0 873 0 16 103 c9 56 19 131 22 167 4 36 12
106 20 155 18 120 24 205 13 205 -5 0 -33 -11 -61 -24 -110 -50 -157 -56 -157
-19 0 10 -7 29 -16 41 -9 13 -14 32 -11 43 3 10 1 19 -4 19 -5 0 -9 -6 -9 -12
0 -9 -4 -8 -10 2 -6 8 -10 29 -9 45 2 59 0 61 -27 30 -17 -21 -22 -23 -15 -8
16 31 14 33 -18 22 -20 -7 -36 -7 -49 0 -10 5 -29 7 -42 4 -16 -4 -21 -3 -16
5 5 8 -1 12 -15 12 -20 0 -21 1 -5 25 21 31 21 32 -9 39 l-25 6 47 62 c56 72
89 107 123 131 14 9 -4 4 -40 -13 l-65 -31 35 31 c23 21 28 29 15 25 l-20 -7
20 17 c11 10 63 37 115 62 117 55 174 103 122 103 -30 0 -34 12 -11 36 l22 23
-27 35 c-36 47 -34 77 7 101 34 21 104 48 178 69 25 7 64 26 88 41 49 33 65
29 92 -26 32 -64 33 -78 5 -89 l-26 -10 26 -47 27 -48 -26 -42 c-20 -32 -27
-56 -27 -93 0 -47 3 -54 46 -95 25 -25 50 -45 55 -45 5 0 20 23 34 51 34 65
59 64 95 -3 l25 -47 -24 -24 c-18 -21 -21 -29 -12 -45 24 -46 10 -82 -81 -215
-12 -17 -21 -52 -24 -95 -3 -37 -10 -81 -15 -98 -6 -20 -6 -57 0 -100 6 -38
13 -99 15 -135 3 -37 12 -96 21 -131 8 -35 17 -96 21 -136 l7 -72 118 0 119 0
0 1800 0 1800 -1200 0 -1200 0 0 -1800z"/>
</g>
</svg>
