<?xml version="1.0" standalone="no"?>
<!DOCTYPE svg PUBLIC "-//W3C//DTD SVG 20010904//EN"
 "http://www.w3.org/TR/2001/REC-SVG-20010904/DTD/svg10.dtd">
<svg version="1.0" xmlns="http://www.w3.org/2000/svg"
 width="480.000000pt" height="360.000000pt" viewBox="0 0 480.000000 360.000000"
 preserveAspectRatio="xMidYMid meet">
<metadata>
Created by potrace 1.16, written by Peter Selinger 2001-2019
</metadata>
<rect width="1" height="360" fill="#000000"/>
<rect x="479" width="1" height="360" fill="#000000"/>
<rect width="480" height="1" fill="#000000"/>
<rect y="359" width="480" height="1" fill="#000000"/>
<g transform="translate(0.000000,360.000000) scale(0.100000,-0.100000)"
fill="#000000" stroke="none">
<path d="M3063 3154 c-24 -14 -43 -29 -43 -35 0 -5 -6 -9 -12 -9 -7 0 -40 -27
-72 -60 -33 -33 -68 -63 -79 -66 -13 -4 -31 7 -63 40 -54 54 -129 93 -210 107
-77 15 -445 -11 -516 -36 -57 -20 -139 -91 -173 -149 -13 -22 -31 -69 -39
-102 -18 -71 -21 -219 -5 -261 10 -26 7 -31 -35 -70 -27 -26 -54 -43 -68 -43
-29 0 -48 -17 -48 -43 0 -10 -10 -27 -22 -38 l-23 -19 58 -55 c32 -31 70 -63
83 -72 23 -14 26 -14 43 1 19 17 21 16 54 -34 40 -59 39 -69 -13 -147 -17 -24
-30 -47 -30 -50 0 -3 14 -3 31 -1 34 5 33 10 14 -78 l-7 -29 37 38 c20 21 38
37 39 35 1 -2 13 -20 25 -41 25 -42 45 -40 39 4 -3 16 -2 29 2 29 12 0 30 -50
30 -83 1 -28 2 -29 11 -14 10 17 13 16 40 -15 27 -32 28 -32 29 -9 l0 23 20
-23 19 -24 2 35 c1 23 3 28 7 15 4 -18 5 -18 11 -3 6 16 9 15 34 -7 54 -51 34
-64 -156 -101 -157 -30 -208 -52 -249 -108 -38 -52 -89 -153 -118 -234 l-23
-63 -111 6 c-213 12 -267 36 -457 211 -72 65 -157 132 -204 160 -138 81 -127
70 -123 122 5 78 -18 68 -140 -55 -59 -60 -149 -143 -200 -186 -90 -75 -294
-214 -399 -273 l-53 -29 0 -91 0 -92 53 -4 c41 -3 74 -16 144 -56 50 -29 98
-52 106 -52 9 0 43 36 76 79 76 99 130 151 158 151 26 0 56 -36 79 -96 20 -53
35 -52 49 3 20 80 52 91 126 45 81 -52 114 -93 123 -155 4 -29 12 -28 83 8 81
41 153 53 208 35 22 -7 68 -41 110 -81 40 -38 79 -69 87 -69 8 0 43 21 78 47
78 57 230 153 242 153 4 0 8 -7 8 -15 0 -9 12 -20 26 -25 14 -6 24 -16 21 -23
-2 -6 5 -22 16 -34 20 -22 20 -24 3 -179 -17 -153 -17 -158 1 -182 11 -14 31
-34 45 -45 31 -23 107 -33 135 -18 18 9 21 7 27 -21 3 -17 6 -62 6 -99 0 -65
-2 -70 -25 -79 -14 -5 -36 -17 -50 -26 -26 -17 -26 -17 -7 -38 26 -28 35 -91
16 -106 -12 -10 -11 -16 6 -37 27 -35 26 -48 -14 -134 l-34 -74 570 -3 c314
-1 573 -1 575 1 2 2 -24 52 -56 111 l-60 106 24 53 c35 74 33 89 -25 139 -45
38 -52 50 -68 114 l-18 71 46 -4 c34 -3 55 2 84 19 66 39 75 60 65 153 -21
215 -23 271 -5 278 9 4 16 16 16 27 0 15 7 20 25 20 28 0 33 21 9 41 -23 19
-47 69 -33 69 24 0 196 -97 296 -166 58 -41 112 -74 120 -74 9 0 34 15 57 34
124 102 187 102 327 4 49 -34 62 -39 70 -27 5 7 9 19 9 25 0 7 15 25 33 41 35
31 170 77 209 71 20 -3 23 -9 23 -50 0 -25 3 -49 6 -52 4 -4 18 13 33 38 29
50 70 86 97 86 28 0 71 -50 118 -141 25 -46 49 -87 55 -91 19 -13 61 -9 122
12 32 12 85 23 117 27 l57 6 0 116 -1 116 -42 32 c-58 43 -232 214 -299 293
-30 36 -86 110 -125 165 -77 110 -106 140 -122 130 -6 -3 -11 -18 -11 -33 0
-42 -11 -51 -106 -86 -115 -43 -156 -64 -287 -148 -190 -122 -263 -145 -426
-133 -58 4 -138 8 -178 9 l-71 1 -39 94 c-47 118 -101 193 -158 220 -23 11
-94 29 -157 41 -139 25 -208 47 -208 66 0 8 3 14 8 14 4 0 18 16 32 36 13 20
26 32 28 26 2 -6 9 -9 17 -6 9 4 15 -4 17 -23 l3 -28 18 33 c10 19 21 31 24
28 4 -3 12 -1 20 6 12 10 13 7 8 -15 -4 -15 -3 -27 2 -27 11 0 49 73 58 113 9
35 17 34 34 -4 15 -34 21 -31 36 12 l10 30 35 -26 c48 -36 55 -31 25 18 -34
59 -32 67 13 67 51 0 58 9 22 31 -35 22 -99 106 -100 132 0 19 15 23 25 7 11
-17 35 -11 35 9 0 16 26 89 35 99 2 2 12 -2 23 -9 29 -18 52 4 52 50 0 42 -10
58 -58 90 -18 13 -39 36 -48 53 -15 29 -15 31 2 23 84 -35 189 -63 199 -54 5
5 10 54 10 109 l0 99 70 16 c39 9 80 18 93 21 32 7 27 26 -17 66 -72 65 -151
214 -151 287 0 43 -11 71 -29 71 -9 0 -35 -12 -58 -26z"/>
</g>
</svg>
