<?xml version="1.0" standalone="no"?>
<!DOCTYPE svg PUBLIC "-//W3C//DTD SVG 20010904//EN"
 "http://www.w3.org/TR/2001/REC-SVG-20010904/DTD/svg10.dtd">
<svg version="1.0" xmlns="http://www.w3.org/2000/svg"
 width="480.000000pt" height="360.000000pt" viewBox="0 0 480.000000 360.000000"
 preserveAspectRatio="xMidYMid meet">
<metadata>
Created by potrace 1.16, written by Peter Selinger 2001-2019
</metadata>
<rect width="1" height="360" fill="#000000"/>
<rect x="479" width="1" height="360" fill="#000000"/>
<rect width="480" height="1" fill="#000000"/>
<rect y="359" width="480" height="1" fill="#000000"/>
<g transform="translate(0.000000,360.000000) scale(0.100000,-0.100000)"
fill="#000000" stroke="none">
<path d="M0 2175 l0 -1425 104 0 c58 0 107 4 110 8 3 5 8 68 12 141 6 107 4
135 -7 141 -11 7 -8 21 16 70 31 64 48 80 87 80 38 0 78 23 85 48 3 13 3 50 0
81 l-6 58 42 19 c43 19 61 54 39 76 -10 10 15 68 29 68 4 0 15 -12 24 -27 12
-18 14 -28 7 -31 -13 -4 -16 -60 -4 -78 4 -7 24 -19 45 -27 37 -16 46 -30 27
-42 -6 -3 -10 -33 -10 -66 0 -66 2 -68 94 -93 34 -10 41 -17 62 -71 19 -46 22
-65 15 -85 -5 -14 -13 -78 -16 -142 l-7 -118 31 0 31 0 0 86 0 87 52 84 c28
46 56 82 62 80 6 -2 31 -37 55 -78 40 -65 45 -82 49 -146 4 -68 5 -72 31 -77
14 -3 161 -10 326 -17 l299 -12 70 -66 c68 -64 69 -64 79 -40 5 14 6 91 2 186
l-6 163 48 70 c26 38 51 70 56 70 4 0 27 -32 52 -70 l45 -71 -7 -504 -6 -505
1391 0 1392 0 0 1800 0 1800 -2400 0 -2400 0 0 -1425z m3162 681 c28 -21 48
-67 38 -87 -11 -20 13 -111 33 -127 6 -5 54 -18 105 -27 96 -19 122 -36 89
-60 -10 -7 -17 -17 -17 -23 0 -5 -11 -13 -25 -16 -28 -7 -25 -32 6 -41 25 -8
25 -25 0 -25 -28 0 -78 -21 -63 -27 19 -7 14 -23 -7 -23 -19 0 -22 -14 -8 -37
5 -8 -3 -11 -28 -9 l-35 3 0 -61 c0 -35 -5 -67 -12 -74 -20 -20 -1 -13 49 17
41 25 143 71 158 71 14 0 2 -73 -19 -113 -13 -26 -20 -49 -17 -52 4 -2 75 -2
157 0 l149 5 -25 -20 c-14 -11 -29 -20 -33 -20 -23 0 10 -21 49 -31 44 -11 54
-22 33 -35 -17 -10 8 -22 63 -29 53 -8 55 -19 6 -29 -31 -7 -32 -8 -14 -21 11
-8 27 -15 35 -15 9 0 23 -11 32 -23 16 -22 16 -22 -21 -19 -50 5 -61 -14 -27
-44 33 -28 34 -34 5 -27 -21 4 -22 3 -5 -10 25 -21 21 -28 -9 -16 -40 14 -42
2 -3 -15 20 -8 27 -15 17 -15 -40 -2 -14 -32 45 -50 20 -7 37 -17 37 -22 0 -6
-9 -7 -20 -4 -11 4 -20 2 -20 -4 0 -6 -16 -4 -41 4 -51 18 -52 18 -45 0 3 -10
-1 -15 -12 -16 -27 -1 17 -17 50 -18 15 -1 30 -6 34 -13 5 -8 -8 -9 -49 -5
-48 6 -56 5 -51 -8 4 -9 0 -15 -7 -15 -9 -1 -7 -6 6 -16 20 -16 19 -16 -5 -11
-14 3 -36 9 -49 13 -23 7 -23 7 -6 -20 26 -40 9 -44 -28 -8 -18 18 -43 32 -56
32 -20 0 -23 -4 -18 -26 5 -28 -12 -84 -26 -84 -5 0 -5 10 -2 21 5 14 3 19 -3
15 -6 -3 -12 4 -14 16 -2 16 -18 28 -63 45 -33 13 -65 21 -72 19 -7 -3 -11
-23 -10 -50 2 -54 -25 -89 -69 -88 -37 0 -49 19 -63 106 -11 70 -15 76 -47 95
-54 32 -61 28 -84 -51 -11 -40 -25 -83 -30 -95 -21 -50 -75 -11 -85 61 -6 40
-10 46 -31 46 -14 0 -27 7 -30 15 -4 10 -14 13 -28 9 -14 -3 -35 4 -59 20 -46
31 -43 31 -50 5 -8 -29 -32 -18 -30 14 1 18 -4 28 -18 32 -24 8 -35 50 -19 70
7 8 29 15 50 15 34 0 40 4 68 50 18 29 50 62 75 78 55 34 80 92 63 146 -6 19
-21 41 -33 47 -13 7 -23 22 -23 35 0 12 -7 45 -17 73 -15 48 -15 54 0 87 23
47 21 116 -3 170 -23 49 -21 48 -70 35 -87 -22 -90 -23 -90 -2 0 11 -6 21 -12
24 -7 3 19 19 57 37 l70 31 -27 21 c-39 28 -35 41 7 21 35 -17 36 -17 61 10
14 15 28 27 32 27 4 0 20 25 36 56 43 82 118 118 168 80z"/>
<path d="M2919 1851 c-13 -11 -20 -23 -16 -27 4 -4 20 4 35 19 30 31 16 37
-19 8z"/>
<path d="M3670 1661 c0 -10 25 -21 48 -21 15 1 14 3 -2 15 -22 17 -46 20 -46
6z"/>
</g>
</svg>
