<?xml version="1.0" standalone="no"?>
<!DOCTYPE svg PUBLIC "-//W3C//DTD SVG 20010904//EN"
 "http://www.w3.org/TR/2001/REC-SVG-20010904/DTD/svg10.dtd">
<svg version="1.0" xmlns="http://www.w3.org/2000/svg"
 width="480.000000pt" height="360.000000pt" viewBox="0 0 480.000000 360.000000"
 preserveAspectRatio="xMidYMid meet">
<metadata>
Created by potrace 1.16, written by Peter Selinger 2001-2019
</metadata>
<rect width="1" height="360" fill="#000000"/>
<rect x="479" width="1" height="360" fill="#000000"/>
<rect width="480" height="1" fill="#000000"/>
<rect y="359" width="480" height="1" fill="#000000"/>
<g transform="translate(0.000000,360.000000) scale(0.100000,-0.100000)"
fill="#000000" stroke="none">
<path d="M2670 3523 c0 -93 -22 -238 -46 -311 -14 -44 -15 -58 -5 -74 13 -20
6 -58 -13 -70 -19 -13 84 -9 188 7 55 8 101 14 102 12 2 -2 -20 -9 -49 -17
-101 -25 -267 -81 -267 -89 0 -9 108 -51 130 -51 8 0 23 -9 35 -20 20 -19 114
-46 198 -57 54 -7 144 12 224 48 128 58 218 100 263 124 66 34 168 74 174 68
3 -3 1 -14 -5 -25 -9 -16 -7 -23 10 -34 15 -11 20 -24 18 -52 -1 -20 2 -43 7
-50 5 -8 2 -18 -7 -25 -20 -16 -52 -75 -45 -82 3 -3 39 2 79 11 41 9 103 22
139 29 36 8 85 19 110 25 25 5 70 14 100 19 81 13 320 60 360 70 19 5 60 12
90 16 30 3 93 12 140 20 47 7 111 16 143 20 l57 6 0 280 0 279 -1065 0 -1065
0 0 -77z m1520 -78 c0 -3 -22 -19 -50 -36 -32 -20 -50 -38 -50 -50 0 -10 -6
-19 -13 -19 -8 0 -22 -9 -31 -19 -19 -20 -26 -22 -261 -71 -148 -31 -726 -138
-785 -146 -19 -2 19 9 85 26 169 43 346 100 371 119 39 30 316 107 699 194 31
7 35 7 35 2z"/>
<path d="M22 2948 c-22 -41 -23 -52 -20 -202 2 -109 7 -161 15 -163 6 -2 14
13 18 39 13 83 85 268 104 268 4 0 15 6 25 13 17 13 14 17 -40 50 -32 21 -63
37 -69 37 -6 0 -21 -19 -33 -42z"/>
<path d="M2129 1645 c-5 -20 -4 -34 8 -57 7 -15 13 -40 13 -57 0 -32 25 -153
39 -186 16 -41 81 -250 81 -263 0 -8 -28 -45 -62 -83 -77 -85 -110 -99 -175
-74 -57 22 -156 104 -190 158 -14 23 -44 57 -66 76 -46 40 -76 100 -77 152 0
25 -8 43 -27 61 -39 38 -74 48 -156 47 -108 0 -163 -12 -185 -39 l-18 -23 -98
22 c-54 12 -108 27 -119 34 -17 9 -125 12 -427 13 -327 0 -427 3 -522 17 -64
9 -124 20 -132 23 -14 6 -16 -66 -16 -730 l0 -736 2400 0 2400 0 0 589 0 588
-62 6 c-35 3 -106 12 -158 21 -52 8 -158 22 -235 31 -556 65 -1026 181 -1337
328 -51 24 -109 51 -128 60 -29 12 -101 16 -392 21 -197 3 -359 3 -359 1z"/>
</g>
</svg>
