<?xml version="1.0" standalone="no"?>
<!DOCTYPE svg PUBLIC "-//W3C//DTD SVG 20010904//EN"
 "http://www.w3.org/TR/2001/REC-SVG-20010904/DTD/svg10.dtd">
<svg version="1.0" xmlns="http://www.w3.org/2000/svg"
 width="480.000000pt" height="360.000000pt" viewBox="0 0 480.000000 360.000000"
 preserveAspectRatio="xMidYMid meet">
<metadata>
Created by potrace 1.16, written by Peter Selinger 2001-2019
</metadata>
<rect width="1" height="360" fill="#000000"/>
<rect x="479" width="1" height="360" fill="#000000"/>
<rect width="480" height="1" fill="#000000"/>
<rect y="359" width="480" height="1" fill="#000000"/>
<g transform="translate(0.000000,360.000000) scale(0.100000,-0.100000)"
fill="#000000" stroke="none">
<path d="M0 1800 l0 -1800 884 0 884 0 13 38 c6 20 16 43 22 50 6 7 9 79 8
180 -2 169 2 199 45 338 16 51 16 53 -7 84 -22 29 -24 41 -23 153 0 113 4 138
53 330 29 115 50 211 47 214 -7 7 -219 -36 -230 -47 -6 -6 -2 -17 9 -30 17
-18 14 -25 -9 -21 -5 1 -12 -2 -15 -7 -3 -6 -17 -12 -31 -13 -20 -3 -28 3 -42
29 -15 30 -17 32 -23 13 -8 -27 -25 -27 -25 0 0 19 -4 21 -32 15 -18 -4 -62
-10 -98 -13 -91 -8 -103 -16 -96 -61 5 -27 4 -33 -3 -22 -6 8 -11 27 -11 43 0
27 0 27 -69 27 -60 0 -71 3 -95 26 -45 45 -43 46 117 64 105 11 147 30 144 64
-1 10 6 23 15 29 22 15 61 -19 54 -46 -4 -17 0 -18 52 -12 42 5 61 12 72 28 8
12 36 45 62 73 27 28 48 53 48 57 0 3 -33 19 -72 36 -40 16 -91 39 -113 49
-22 11 -66 31 -97 45 -58 26 -63 32 -52 61 9 23 35 20 88 -10 75 -42 268 -124
278 -118 5 3 25 38 44 77 20 40 46 86 59 102 35 48 49 103 46 188 -3 111 11
133 192 293 l28 25 -18 31 c-21 36 -43 48 -43 22 0 -29 -16 -3 -30 49 -8 32
-16 44 -21 35 -10 -15 -9 -16 -39 51 -31 68 -30 117 5 176 75 128 207 197 318
166 38 -11 51 -10 122 14 66 23 92 26 153 23 102 -7 133 -37 96 -94 -16 -23
-16 -26 5 -48 22 -23 28 -60 11 -71 -5 -3 -30 -38 -55 -77 -30 -46 -56 -74
-74 -81 l-29 -11 24 -37 24 -38 -22 -7 c-12 -4 -31 -18 -42 -31 -16 -21 -25
-24 -57 -20 -28 4 -39 1 -43 -10 -4 -8 -12 -13 -20 -10 -8 3 -22 0 -33 -8 -15
-11 -16 -14 -3 -19 8 -3 44 -16 80 -29 75 -26 213 -109 235 -140 8 -12 15 -27
15 -35 0 -32 53 -122 105 -177 31 -33 83 -94 114 -135 60 -78 98 -118 146
-158 30 -25 81 -85 88 -105 3 -9 8 -9 18 1 7 6 22 12 32 12 17 0 19 -5 14 -43
l-6 -42 155 -135 c86 -74 177 -152 202 -173 26 -22 63 -53 82 -71 19 -17 69
-60 110 -95 41 -36 104 -90 140 -122 36 -31 90 -78 120 -104 62 -54 71 -61
234 -205 66 -58 163 -143 215 -189 105 -91 211 -197 211 -210 0 -4 -3 -10 -6
-14 -7 -7 -131 90 -239 188 -44 39 -118 104 -164 144 -46 40 -105 92 -130 116
-25 23 -74 67 -108 96 -96 85 -304 268 -348 307 -22 20 -72 64 -110 97 -39 33
-125 109 -192 168 -67 59 -141 123 -165 142 -40 32 -44 33 -66 19 -26 -17 -52
-5 -52 23 0 9 -6 13 -14 10 -8 -3 -20 1 -26 9 -7 8 -19 14 -26 14 -14 0 -18
11 -14 43 1 10 -4 16 -12 15 -7 -2 -14 6 -16 18 -2 11 -27 45 -57 74 l-55 54
6 -50 6 -50 -193 -43 c-107 -24 -197 -45 -201 -47 -8 -5 26 -85 56 -131 24
-38 82 -61 371 -149 99 -31 191 -60 205 -66 l25 -10 -32 -27 c-18 -15 -33 -33
-33 -39 0 -42 -26 -118 -50 -145 -15 -18 -29 -41 -31 -52 -2 -11 -20 -28 -41
-38 -20 -10 -48 -33 -63 -53 -14 -19 -48 -45 -75 -59 -27 -14 -51 -29 -55 -35
-3 -5 -16 -10 -29 -10 -12 0 -40 -13 -62 -30 -21 -16 -54 -32 -71 -36 -38 -7
-39 -11 -18 -61 26 -63 45 -200 45 -331 0 -105 3 -134 23 -183 l22 -59 1068 0
1067 0 0 1800 0 1800 -2400 0 -2400 0 0 -1800z m3835 1610 c33 -11 86 -27 118
-35 46 -13 62 -22 77 -48 11 -18 20 -45 20 -60 0 -30 -25 -87 -38 -87 -24 0
-44 -33 -61 -100 -11 -41 -22 -83 -26 -92 -5 -12 -2 -18 8 -18 8 0 20 -7 27
-15 11 -13 8 -21 -20 -50 -39 -40 -48 -43 -58 -15 -7 19 -8 19 -56 -6 -143
-76 -307 -17 -385 139 -37 75 -38 109 -7 202 14 39 23 71 22 72 -1 2 -63 -5
-137 -14 -74 -10 -195 -18 -269 -18 -129 0 -137 1 -175 26 -34 23 -87 89 -71
89 3 0 22 -9 42 -21 83 -46 148 -42 444 26 204 48 443 59 545 25z m-1237 -65
c5 -39 -6 -75 -23 -75 -29 0 -48 73 -24 97 19 19 44 8 47 -22z m362 -645 c0
-5 -7 -10 -15 -10 -8 0 -15 5 -15 10 0 6 7 10 15 10 8 0 15 -4 15 -10z m-2130
-441 c8 -13 24 -32 34 -43 16 -16 17 -24 8 -48 -7 -19 -7 -40 -1 -63 7 -24 6
-41 -1 -56 -8 -15 -8 -29 -1 -51 6 -17 11 -50 11 -73 0 -36 8 -54 48 -105 26
-35 51 -69 57 -76 13 -18 -29 -62 -69 -72 l-31 -9 2 -168 c2 -115 7 -184 18
-220 8 -29 15 -63 15 -74 0 -29 -35 -27 -66 4 l-25 25 -9 -26 c-13 -34 -13
-38 11 -68 12 -15 30 -26 45 -26 28 0 32 -16 7 -24 -10 -2 -65 -12 -123 -21
-58 -9 -134 -23 -170 -30 -207 -45 -489 -57 -477 -21 8 24 122 59 227 68 58 5
148 14 200 21 l95 12 0 30 c0 27 -3 30 -35 33 -19 2 -39 7 -43 11 -4 4 1 32
13 61 17 43 49 215 50 267 0 6 -14 16 -31 22 -31 11 -32 12 -24 58 13 83 12
97 -10 101 -29 6 -62 39 -68 68 -3 19 2 29 19 41 13 8 24 19 24 24 0 5 16 29
35 55 19 25 35 50 35 56 0 6 12 26 26 45 18 24 23 37 15 46 -10 13 2 198 15
218 3 6 19 19 35 28 40 25 117 13 139 -20z m2043 -146 c3 -5 -13 -28 -34 -52
-59 -66 -91 -39 -43 37 14 22 67 32 77 15z m1272 -222 c10 -18 -17 -23 -33 -7
-15 15 -15 16 5 16 12 0 24 -4 28 -9z m-1030 -15 l30 -14 -28 -11 c-35 -14
-97 -14 -117 -1 -13 9 -12 12 4 25 24 18 71 19 111 1z"/>
<path d="M720 1159 c-13 -23 -6 -53 11 -47 13 4 21 68 8 68 -4 0 -13 -9 -19
-21z"/>
<path d="M2456 1953 c-4 -43 -9 -114 -12 -158 -4 -45 -11 -84 -19 -90 -19 -16
-27 -52 -16 -73 10 -18 19 -16 213 32 112 28 205 52 208 54 6 4 -184 188 -208
201 -18 10 -19 5 -14 -89 3 -64 1 -100 -5 -100 -14 0 -29 20 -38 50 -4 14 -18
48 -30 75 -12 28 -26 71 -29 96 -4 26 -15 54 -25 63 -18 16 -19 13 -25 -61z"/>
<path d="M2043 1902 c-12 -9 -33 -44 -48 -77 -14 -32 -43 -82 -64 -110 -21
-27 -41 -65 -44 -82 -6 -31 -4 -34 30 -48 75 -31 78 -31 103 19 12 25 26 48
31 52 20 12 9 39 -17 41 -45 2 -48 16 -16 79 31 62 57 133 50 139 -2 2 -13 -4
-25 -13z"/>
<path d="M1833 1497 c-18 -20 -17 -20 7 -14 14 4 31 7 38 7 19 0 14 17 -7 23
-12 3 -27 -3 -38 -16z"/>
<path d="M1770 1486 c0 -9 7 -16 16 -16 17 0 14 22 -4 28 -7 2 -12 -3 -12 -12z"/>
<path d="M1415 1420 c-4 -6 7 -10 25 -10 18 0 29 4 25 10 -3 6 -15 10 -25 10
-10 0 -22 -4 -25 -10z"/>
<path d="M2377 570 c-13 -15 -29 -20 -71 -20 -30 0 -58 -4 -61 -10 -7 -11 -48
-14 -58 -4 -3 3 -30 8 -59 10 -29 3 -68 9 -86 14 -41 11 -44 4 -61 -130 -7
-52 -21 -147 -32 -210 -13 -76 -18 -132 -13 -167 l6 -53 278 0 278 0 4 47 c2
26 -9 109 -24 187 -16 78 -37 186 -48 240 -11 55 -23 103 -28 108 -4 4 -15 -1
-25 -12z"/>
</g>
</svg>
