<?xml version="1.0" standalone="no"?>
<!DOCTYPE svg PUBLIC "-//W3C//DTD SVG 20010904//EN"
 "http://www.w3.org/TR/2001/REC-SVG-20010904/DTD/svg10.dtd">
<svg version="1.0" xmlns="http://www.w3.org/2000/svg"
 width="480.000000pt" height="360.000000pt" viewBox="0 0 480.000000 360.000000"
 preserveAspectRatio="xMidYMid meet">
<metadata>
Created by potrace 1.16, written by Peter Selinger 2001-2019
</metadata>
<rect width="1" height="360" fill="#000000"/>
<rect x="479" width="1" height="360" fill="#000000"/>
<rect width="480" height="1" fill="#000000"/>
<rect y="359" width="480" height="1" fill="#000000"/>
<g transform="translate(0.000000,360.000000) scale(0.100000,-0.100000)"
fill="#000000" stroke="none">
<path d="M0 1800 l0 -1800 930 0 930 0 0 43 c0 23 9 71 20 107 12 36 31 113
45 171 13 58 42 161 64 230 43 135 49 175 37 261 -5 35 -4 63 2 75 8 13 7 22
-5 36 -15 16 -14 25 15 120 50 166 99 375 112 477 7 57 18 102 28 113 8 9 12
20 8 24 -4 4 -11 1 -16 -7 -16 -26 -12 8 6 41 13 26 14 46 5 127 -9 94 -9 98
16 140 13 24 23 46 20 49 -9 8 -54 -27 -81 -62 -29 -38 -57 -38 -83 2 -34 52
33 100 166 118 43 6 60 14 83 38 26 29 33 32 92 32 53 0 67 -4 82 -21 21 -24
73 -44 114 -44 46 0 124 -28 138 -50 17 -28 -8 -90 -38 -90 -11 0 -23 7 -26
15 -4 8 -15 15 -26 15 -16 0 -19 -5 -14 -27 2 -16 10 -68 17 -118 8 -62 19
-104 37 -133 23 -40 23 -43 6 -40 -22 3 -22 -2 -5 -158 10 -93 57 -273 117
-446 39 -113 41 -125 15 -133 -17 -5 -19 -12 -14 -54 5 -48 -10 -120 -29 -132
-6 -4 10 -68 37 -150 25 -79 55 -184 66 -234 11 -49 31 -126 45 -171 13 -44
24 -99 24 -122 l0 -42 930 0 930 0 0 1800 0 1800 -2400 0 -2400 0 0 -1800z"/>
</g>
</svg>
