<?xml version="1.0" standalone="no"?>
<!DOCTYPE svg PUBLIC "-//W3C//DTD SVG 20010904//EN"
 "http://www.w3.org/TR/2001/REC-SVG-20010904/DTD/svg10.dtd">
<svg version="1.0" xmlns="http://www.w3.org/2000/svg"
 width="480.000000pt" height="360.000000pt" viewBox="0 0 480.000000 360.000000"
 preserveAspectRatio="xMidYMid meet">
<metadata>
Created by potrace 1.16, written by Peter Selinger 2001-2019
</metadata>
<rect width="1" height="360" fill="#000000"/>
<rect x="479" width="1" height="360" fill="#000000"/>
<rect width="480" height="1" fill="#000000"/>
<rect y="359" width="480" height="1" fill="#000000"/>
<g transform="translate(0.000000,360.000000) scale(0.100000,-0.100000)"
fill="#000000" stroke="none">
<path d="M4594 3587 c18 -13 18 -15 1 -40 -9 -15 -15 -33 -12 -40 3 -8 35 -31
71 -53 55 -31 68 -45 76 -74 5 -19 10 -42 10 -51 0 -8 14 -28 30 -44 l30 -29
0 172 0 172 -112 0 c-96 0 -109 -2 -94 -13z"/>
<path d="M748 3386 c-10 -7 -18 -18 -18 -23 0 -6 -13 -13 -29 -16 -36 -8 -49
-39 -28 -71 8 -12 55 -42 103 -66 l89 -45 -40 -2 c-61 -5 -85 -12 -85 -27 0
-7 -12 -19 -27 -26 -63 -32 -79 -61 -43 -80 10 -5 61 -19 112 -29 105 -22 224
-69 175 -70 -50 -1 -118 -23 -113 -36 2 -7 -15 -29 -39 -49 -76 -63 -44 -80
165 -92 69 -3 132 -10 140 -15 10 -5 11 -9 3 -9 -20 0 -92 -54 -93 -69 0 -7
-13 -29 -30 -48 -33 -37 -38 -61 -16 -69 8 -3 73 9 146 27 127 31 136 32 214
21 l81 -11 85 -90 c91 -96 104 -105 232 -151 109 -40 164 -78 160 -111 -1 -13
-4 -37 -6 -54 -1 -16 -6 -38 -10 -47 -4 -9 -6 -26 -4 -38 3 -19 27 -31 168
-80 325 -113 478 -177 895 -376 l270 -129 98 0 c53 0 97 -2 97 -5 0 -3 -7 -14
-15 -24 -9 -12 -15 -42 -15 -79 0 -43 -7 -73 -25 -109 -17 -33 -25 -67 -25
-97 1 -77 -7 -126 -25 -161 -13 -26 -16 -46 -10 -95 5 -52 3 -69 -14 -101 -27
-50 -36 -100 -23 -128 12 -28 139 -91 281 -140 214 -75 295 -87 591 -91 224
-3 327 -14 342 -38 4 -6 8 -51 8 -99 0 -48 4 -89 9 -92 9 -6 252 -36 294 -36
l27 0 0 568 0 569 -87 16 c-49 10 -95 17 -103 17 -8 0 -22 -18 -32 -40 l-16
-39 -51 19 c-74 27 -114 52 -127 81 -42 91 -74 146 -106 181 l-36 39 26 10
c37 15 394 105 470 120 l62 12 0 363 c0 314 -2 364 -15 364 -8 0 -61 -7 -117
-15 -57 -8 -188 -19 -293 -23 -210 -10 -267 -23 -300 -69 -38 -53 -61 -70
-105 -77 -25 -3 -72 -15 -105 -25 -33 -10 -78 -23 -100 -29 -22 -6 -102 -29
-179 -52 -154 -46 -134 -47 -266 13 -163 74 -193 87 -200 87 -4 0 -50 20 -101
44 -52 25 -123 57 -159 71 -36 15 -153 72 -260 128 -452 232 -423 220 -440
199 -8 -10 -23 -21 -32 -25 -10 -3 -18 -11 -18 -17 0 -13 -47 -13 -55 0 -3 5
-45 30 -92 56 -47 26 -163 99 -256 162 -94 63 -201 130 -237 148 -37 18 -91
49 -119 69 -29 19 -58 35 -63 35 -6 0 -40 20 -77 44 -36 24 -104 60 -151 81
-47 20 -89 40 -95 45 -13 10 -170 60 -187 60 -7 0 -21 -7 -30 -14z"/>
</g>
</svg>
