<?xml version="1.0" standalone="no"?>
<!DOCTYPE svg PUBLIC "-//W3C//DTD SVG 20010904//EN"
 "http://www.w3.org/TR/2001/REC-SVG-20010904/DTD/svg10.dtd">
<svg version="1.0" xmlns="http://www.w3.org/2000/svg"
 width="480.000000pt" height="360.000000pt" viewBox="0 0 480.000000 360.000000"
 preserveAspectRatio="xMidYMid meet">
<metadata>
Created by potrace 1.16, written by Peter Selinger 2001-2019
</metadata>
<rect width="1" height="360" fill="#000000"/>
<rect x="479" width="1" height="360" fill="#000000"/>
<rect width="480" height="1" fill="#000000"/>
<rect y="359" width="480" height="1" fill="#000000"/>
<g transform="translate(0.000000,360.000000) scale(0.100000,-0.100000)"
fill="#000000" stroke="none">
<path d="M0 1800 l0 -1800 324 0 325 0 45 55 c44 54 49 69 60 165 5 44 4 46
-21 45 -26 0 -34 9 -50 60 -7 21 -6 39 3 60 7 17 13 47 14 68 0 20 6 46 13 58
10 17 9 22 -3 32 -9 7 -22 30 -29 52 -7 22 -14 45 -17 51 -3 6 4 14 16 17 16
4 20 13 20 45 0 65 10 99 34 110 18 8 25 26 39 98 9 49 17 112 18 139 1 110
12 142 70 201 37 38 48 54 36 54 -10 0 -51 18 -91 40 -40 22 -78 40 -84 40 -7
0 -41 -29 -77 -64 -51 -50 -65 -59 -65 -43 0 11 9 34 19 51 37 60 125 461 146
668 6 53 4 69 -6 72 -8 2 -61 19 -119 37 -58 18 -123 35 -145 38 -37 6 -40 9
-43 39 -2 18 -19 59 -38 90 -19 31 -34 63 -34 70 0 17 46 33 75 26 18 -4 35 2
65 26 23 18 63 37 94 44 29 7 67 22 84 34 29 21 29 24 20 64 -5 24 -7 80 -4
125 12 186 76 341 181 442 78 75 147 108 268 128 51 8 101 17 113 19 11 2 35
25 54 51 54 77 121 153 135 153 15 0 79 -76 124 -147 18 -29 38 -53 45 -53 41
-1 157 -23 209 -41 197 -66 378 -261 431 -465 22 -85 21 -192 -3 -255 -23 -59
-17 -83 46 -199 l38 -69 -38 -35 c-21 -19 -36 -39 -33 -44 3 -5 15 -66 26
-135 24 -152 29 -167 86 -240 46 -58 49 -75 7 -35 -36 34 -36 16 2 -43 41 -65
43 -77 10 -55 -33 22 -32 13 11 -108 29 -83 41 -105 67 -121 38 -24 67 -89 47
-108 -9 -9 -15 -8 -24 7 -6 11 -28 39 -49 62 l-38 43 -32 -18 c-18 -10 -52
-30 -77 -45 -54 -31 -75 -32 -118 -6 -33 20 -62 26 -62 12 0 -4 35 -25 78 -46
42 -21 98 -52 125 -69 45 -29 47 -32 47 -77 0 -25 -5 -51 -10 -56 -7 -7 2 -37
29 -95 21 -46 49 -125 61 -176 l22 -92 29 14 c30 16 69 20 69 7 0 -4 -8 -18
-17 -31 -9 -14 -24 -53 -34 -89 -15 -58 -16 -68 -2 -101 19 -46 77 -107 126
-132 30 -16 36 -23 28 -33 -7 -8 -24 -16 -39 -19 -52 -11 -53 -39 -6 -177 24
-69 49 -140 56 -157 l12 -33 1053 0 1053 0 0 1800 0 1800 -2400 0 -2400 0 0
-1800z m940 1770 c0 -5 -2 -10 -4 -10 -3 0 -8 5 -11 10 -3 6 -1 10 4 10 6 0
11 -4 11 -10z m3510 -219 c12 -24 13 -68 1 -76 -11 -6 -36 17 -52 46 -7 15 -7
24 2 35 16 20 36 18 49 -5z m-660 -616 c10 -12 9 -16 -5 -21 -19 -8 -46 5 -53
24 -5 17 43 15 58 -3z m-1110 -554 c0 -11 -79 -26 -88 -16 -11 10 21 25 56 25
17 0 32 -4 32 -9z m20 -241 c0 -5 -4 -10 -10 -10 -5 0 -10 5 -10 10 0 6 5 10
10 10 6 0 10 -4 10 -10z m200 -715 c0 -16 -18 -23 -42 -17 -25 6 -22 21 5 31
25 10 37 6 37 -14z"/>
<path d="M1155 1364 c-27 -8 -66 -12 -85 -9 -25 4 -44 0 -65 -15 -30 -20 -30
-20 -5 -20 14 0 75 13 135 29 61 16 101 29 90 29 -11 0 -42 -6 -70 -14z"/>
</g>
</svg>
