<?xml version="1.0" standalone="no"?>
<!DOCTYPE svg PUBLIC "-//W3C//DTD SVG 20010904//EN"
 "http://www.w3.org/TR/2001/REC-SVG-20010904/DTD/svg10.dtd">
<svg version="1.0" xmlns="http://www.w3.org/2000/svg"
 width="480.000000pt" height="360.000000pt" viewBox="0 0 480.000000 360.000000"
 preserveAspectRatio="xMidYMid meet">
<metadata>
Created by potrace 1.16, written by Peter Selinger 2001-2019
</metadata>
<rect width="1" height="360" fill="#000000"/>
<rect x="479" width="1" height="360" fill="#000000"/>
<rect width="480" height="1" fill="#000000"/>
<rect y="359" width="480" height="1" fill="#000000"/>
<g transform="translate(0.000000,360.000000) scale(0.100000,-0.100000)"
fill="#000000" stroke="none">
<path d="M2575 3557 c-60 -24 -134 -56 -164 -72 -153 -84 -252 -241 -252 -402
0 -32 -5 -70 -11 -86 -13 -34 -110 -100 -241 -162 -98 -47 -104 -48 -171 -28
-18 5 -19 1 -14 -61 6 -76 25 -110 72 -132 31 -15 36 -15 98 10 35 14 69 26
74 26 5 0 24 -13 42 -29 28 -25 32 -34 26 -58 l-7 -28 22 19 c19 18 21 18 21
2 0 -10 16 -41 35 -69 47 -70 56 -79 87 -99 l26 -17 -9 31 c-8 28 0 22 67 -47
71 -74 74 -79 58 -96 -16 -18 -16 -20 -1 -37 25 -27 30 -73 16 -123 -7 -24
-14 -59 -15 -77 l-1 -34 59 59 60 58 -7 -33 c-4 -19 -4 -55 0 -80 l7 -47 29
35 c28 33 29 33 44 15 8 -11 15 -26 15 -34 0 -11 3 -11 15 -1 8 6 23 9 33 5
11 -3 38 1 61 8 l41 15 -7 -27 c-6 -24 -4 -23 31 14 30 32 39 36 46 25 15 -24
12 -40 -16 -73 -14 -17 -23 -38 -21 -48 6 -24 -7 -32 -73 -49 -77 -18 -140
-47 -171 -76 -15 -14 -42 -62 -60 -106 -33 -78 -36 -82 -120 -141 -48 -34 -97
-76 -109 -94 -24 -35 -22 -47 14 -98 13 -18 12 -25 -9 -63 l-23 -43 -36 50
c-43 59 -80 83 -173 116 -37 13 -95 35 -128 49 -91 38 -195 57 -355 67 -163 9
-498 -4 -529 -21 -45 -24 -6 -146 67 -211 l47 -42 -67 8 c-115 11 -141 -13
-63 -59 25 -15 45 -33 45 -41 0 -7 24 -26 52 -42 33 -17 63 -44 81 -71 16 -23
38 -47 50 -54 31 -17 241 -12 277 7 26 13 29 12 55 -15 27 -28 34 -30 104 -30
l76 0 75 -121 c41 -66 95 -146 120 -177 58 -72 140 -117 214 -117 l51 0 -3
-75 c-1 -41 -9 -124 -17 -185 -14 -98 -18 -112 -42 -130 -57 -44 -63 -51 -69
-82 l-6 -33 622 0 c552 0 621 2 610 15 -7 8 -25 15 -40 15 -16 0 -46 15 -73
35 -49 37 -60 64 -91 210 l-14 69 56 223 56 223 52 0 c43 0 57 5 83 29 18 17
29 35 25 44 -3 8 2 17 10 20 9 3 22 22 30 41 12 28 21 35 53 40 77 14 224 -21
323 -76 121 -68 225 -153 465 -384 94 -90 179 -170 190 -178 38 -29 70 -19
137 39 35 31 96 72 136 92 75 38 84 38 160 7 9 -5 12 72 12 365 0 204 -1 371
-3 371 -2 0 -38 -20 -81 -44 -42 -24 -116 -57 -164 -72 -117 -39 -243 -39
-421 -1 -68 15 -138 27 -157 27 -37 0 -64 -22 -64 -51 0 -10 -5 -19 -11 -19
-6 0 -79 36 -163 80 -83 44 -188 100 -234 123 -76 38 -83 44 -77 67 3 14 8 59
11 100 5 69 3 78 -23 122 -15 26 -76 99 -135 162 -102 109 -134 160 -111 175
6 3 14 16 18 29 6 20 11 22 38 17 18 -4 38 -14 45 -23 10 -13 12 -7 13 39 1
52 1 53 11 22 15 -45 28 -41 28 6 0 53 13 58 36 15 10 -19 29 -42 42 -50 l23
-15 -7 95 c-4 53 -3 96 1 96 5 0 22 -11 39 -23 17 -13 41 -29 54 -36 23 -12
23 -11 16 23 -6 34 -5 36 17 34 19 -2 24 1 22 19 -2 20 -1 21 25 7 44 -23 56
-18 34 14 -19 27 -77 180 -71 186 2 2 23 6 47 9 37 4 45 2 58 -18 30 -46 102
-31 134 30 14 26 13 29 -4 39 -61 36 -145 150 -190 260 -16 39 -16 42 10 113
15 40 32 73 38 74 6 1 34 2 61 3 65 2 87 11 149 55 57 40 186 166 186 181 0 6
7 10 15 10 8 0 15 5 15 11 0 6 14 24 31 40 36 34 36 65 -1 63 -14 -1 -30 6
-37 15 -7 9 -13 13 -13 9 0 -4 -24 0 -52 9 -29 9 -65 15 -80 14 -16 -1 -28 2
-28 6 1 17 49 42 79 41 18 -1 37 4 43 10 7 7 21 12 33 12 29 0 48 35 40 73
-16 76 -50 158 -84 200 -13 16 -46 17 -422 17 -250 0 -410 -4 -414 -10 -4 -6
-15 -6 -31 0 -14 6 -121 10 -237 9 l-212 0 -110 -42z"/>
</g>
</svg>
