<?xml version="1.0" standalone="no"?>
<!DOCTYPE svg PUBLIC "-//W3C//DTD SVG 20010904//EN"
 "http://www.w3.org/TR/2001/REC-SVG-20010904/DTD/svg10.dtd">
<svg version="1.0" xmlns="http://www.w3.org/2000/svg"
 width="480.000000pt" height="360.000000pt" viewBox="0 0 480.000000 360.000000"
 preserveAspectRatio="xMidYMid meet">
<metadata>
Created by potrace 1.16, written by Peter Selinger 2001-2019
</metadata>
<rect width="1" height="360" fill="#000000"/>
<rect x="479" width="1" height="360" fill="#000000"/>
<rect width="480" height="1" fill="#000000"/>
<rect y="359" width="480" height="1" fill="#000000"/>
<g transform="translate(0.000000,360.000000) scale(0.100000,-0.100000)"
fill="#000000" stroke="none">
<path d="M3114 3545 c-163 -21 -312 -81 -336 -136 -9 -20 -18 -27 -28 -22 -24
11 -108 16 -156 8 -25 -3 -57 -17 -74 -31 l-30 -26 -11 26 c-29 63 -228 88
-409 51 -95 -19 -130 -36 -130 -65 0 -10 -5 -22 -11 -26 -14 -8 -3 -81 17
-111 7 -12 14 -35 14 -51 0 -16 6 -35 14 -41 8 -7 12 -20 9 -30 -3 -11 1 -30
8 -42 7 -13 13 -31 14 -39 2 -23 61 -123 79 -135 11 -6 26 -6 48 4 18 7 40 13
48 14 23 3 23 -68 1 -138 -16 -50 -17 -65 -7 -90 10 -24 19 -30 42 -30 16 0
32 -5 36 -10 3 -6 -4 -75 -18 -155 -28 -170 -27 -163 -13 -154 9 5 10 -6 5
-40 -4 -27 -3 -46 2 -46 5 0 13 -20 16 -44 6 -40 4 -49 -28 -91 -20 -25 -42
-70 -50 -98 -8 -29 -21 -74 -28 -102 l-14 -50 -54 -7 c-92 -11 -124 -73 -80
-157 l19 -39 -95 -203 c-53 -112 -132 -271 -177 -353 l-80 -148 20 -70 20 -69
-29 -77 c-48 -123 -29 -182 68 -207 52 -13 53 -14 79 -95 32 -102 77 -202 113
-248 l35 -46 -21 -63 -20 -63 689 0 c550 0 689 3 689 13 0 7 -9 46 -20 86 -12
40 -19 75 -17 77 1 2 27 -37 57 -86 l55 -89 143 -1 c78 0 142 4 142 8 0 5 -16
66 -35 136 -32 116 -34 130 -20 149 20 29 19 92 -5 221 l-20 108 30 43 c47 68
61 32 -170 450 -77 138 -78 141 -99 272 -24 144 -23 148 30 225 38 54 21 79
-63 93 -21 3 -40 10 -44 16 -3 6 -9 78 -14 160 l-8 151 -33 35 c-19 19 -54 46
-77 60 -48 29 -65 58 -50 87 8 15 6 23 -13 37 -13 10 -19 19 -13 19 14 0 31
81 49 235 22 187 37 238 69 234 28 -3 56 16 65 44 9 26 7 36 -13 72 -14 23
-32 48 -41 55 -18 15 -45 63 -45 80 0 13 45 13 69 1 56 -30 106 78 117 252 12
197 12 212 4 232 -14 37 -67 85 -92 84 -12 -1 -69 -7 -124 -14z m-61 -2695 l6
-45 -19 25 c-20 25 -26 83 -13 117 8 20 15 -8 26 -97z"/>
</g>
</svg>
