<?xml version="1.0" standalone="no"?>
<!DOCTYPE svg PUBLIC "-//W3C//DTD SVG 20010904//EN"
 "http://www.w3.org/TR/2001/REC-SVG-20010904/DTD/svg10.dtd">
<svg version="1.0" xmlns="http://www.w3.org/2000/svg"
 width="480.000000pt" height="360.000000pt" viewBox="0 0 480.000000 360.000000"
 preserveAspectRatio="xMidYMid meet">
<metadata>
Created by potrace 1.16, written by Peter Selinger 2001-2019
</metadata>
<rect width="1" height="360" fill="#000000"/>
<rect x="479" width="1" height="360" fill="#000000"/>
<rect width="480" height="1" fill="#000000"/>
<rect y="359" width="480" height="1" fill="#000000"/>
<g transform="translate(0.000000,360.000000) scale(0.100000,-0.100000)"
fill="#000000" stroke="none">
<path d="M3303 3281 c-47 -22 -71 -53 -80 -105 -19 -115 189 -322 561 -556
167 -106 218 -154 266 -254 42 -88 63 -180 81 -351 17 -162 5 -315 -42 -549
-49 -245 -49 -287 1 -328 69 -55 321 -88 534 -69 72 6 141 14 154 17 l22 6 0
889 0 888 -97 -48 c-240 -118 -480 -178 -609 -153 -121 25 -321 146 -439 266
-65 65 -91 102 -137 191 -57 109 -98 165 -121 165 -7 0 -21 2 -32 5 -11 3 -39
-4 -62 -14z"/>
<path d="M380 3215 c-5 -14 -10 -29 -10 -33 0 -4 -12 -37 -26 -74 -33 -88 -81
-132 -133 -125 -20 2 -64 21 -97 41 -34 19 -74 40 -88 46 l-26 10 0 -921 0
-920 56 63 c71 80 85 85 127 49 62 -53 204 -159 235 -175 43 -22 59 -20 91 11
31 31 106 206 153 351 16 54 38 105 47 115 16 17 20 16 94 -8 42 -13 95 -28
116 -31 37 -6 41 -4 61 27 20 32 21 44 16 169 -2 74 -10 152 -17 172 -19 57 0
77 112 116 150 54 154 75 37 205 -46 50 -100 108 -120 129 -46 45 -47 69 -8
128 32 48 38 86 18 112 -18 23 -202 124 -273 149 -44 16 -94 24 -185 28 -123
6 -125 6 -138 33 -17 37 -2 102 49 200 21 43 39 87 39 98 0 24 -33 46 -82 55
-34 7 -39 5 -48 -20z"/>
<path d="M3867 814 c-25 -14 -56 -68 -115 -206 l-21 -48 -78 0 c-136 0 -281
-36 -330 -82 -35 -33 -37 -68 -8 -150 15 -40 29 -81 32 -90 10 -33 -6 -64 -41
-81 -19 -9 -66 -35 -103 -58 -37 -23 -90 -55 -118 -70 l-50 -29 883 0 882 0 0
90 c0 62 -5 98 -14 113 -8 12 -33 72 -54 134 -47 133 -68 171 -159 283 -101
124 -122 126 -188 25 -18 -27 -45 -61 -60 -75 -27 -24 -28 -24 -39 -6 -23 41
-97 113 -133 132 -21 10 -78 41 -127 67 -119 65 -127 67 -159 51z"/>
<path d="M1830 800 c-8 -15 -6 -32 9 -72 10 -29 37 -105 60 -168 50 -137 62
-239 37 -309 -9 -24 -16 -58 -16 -76 0 -43 34 -85 69 -85 35 0 65 -22 81 -60
8 -19 20 -30 32 -30 18 0 19 5 13 40 -8 45 5 70 37 70 20 0 48 -52 48 -90 0
-19 6 -20 165 -20 l165 0 0 69 c0 38 -5 82 -11 98 -7 15 -15 81 -19 146 -6 95
-12 127 -32 165 -87 168 -298 92 -298 -108 0 -77 -13 -83 -76 -35 -81 62 -119
140 -180 365 -15 52 -31 101 -36 108 -15 18 -36 15 -48 -8z"/>
<path d="M533 802 c-21 -13 -100 -192 -127 -287 -31 -107 -34 -223 -10 -360 8
-50 14 -105 12 -122 l-4 -33 539 0 538 0 63 133 c137 286 137 287 110 325 -13
19 -24 22 -92 22 -119 0 -329 -34 -415 -68 -138 -54 -202 -115 -292 -283 -24
-46 -45 -77 -46 -69 -1 8 -1 78 1 155 1 105 -2 156 -15 205 -32 124 -132 311
-195 364 -33 27 -47 31 -67 18z"/>
<path d="M0 111 c0 -81 3 -100 16 -105 9 -3 86 -6 172 -6 l157 0 -62 29 c-69
33 -155 89 -221 145 -24 20 -48 36 -53 36 -5 0 -9 -45 -9 -99z"/>
</g>
</svg>
