<?xml version="1.0" standalone="no"?>
<!DOCTYPE svg PUBLIC "-//W3C//DTD SVG 20010904//EN"
 "http://www.w3.org/TR/2001/REC-SVG-20010904/DTD/svg10.dtd">
<svg version="1.0" xmlns="http://www.w3.org/2000/svg"
 width="480.000000pt" height="360.000000pt" viewBox="0 0 480.000000 360.000000"
 preserveAspectRatio="xMidYMid meet">
<metadata>
Created by potrace 1.16, written by Peter Selinger 2001-2019
</metadata>
<rect width="1" height="360" fill="#000000"/>
<rect x="479" width="1" height="360" fill="#000000"/>
<rect width="480" height="1" fill="#000000"/>
<rect y="359" width="480" height="1" fill="#000000"/>
<g transform="translate(0.000000,360.000000) scale(0.100000,-0.100000)"
fill="#000000" stroke="none">
<path d="M2589 3390 c-164 -19 -383 -102 -523 -197 l-59 -40 -83 38 c-127 60
-305 101 -439 103 -121 1 -173 -14 -193 -58 -19 -43 -24 -114 -12 -168 25
-107 53 -203 86 -302 19 -55 34 -104 34 -107 0 -4 -21 -10 -46 -14 -91 -13
-162 -58 -179 -113 -10 -35 5 -160 22 -177 8 -8 27 -15 43 -15 18 0 33 -8 44
-25 16 -24 15 -26 -19 -74 -19 -26 -35 -50 -35 -53 0 -3 25 -3 55 0 66 5 139
-19 157 -51 6 -12 14 -49 17 -82 l6 -59 61 -31 c117 -57 166 -115 496 -580
211 -299 287 -402 344 -468 l32 -39 39 42 c37 41 269 361 503 692 137 194 248
312 338 357 l62 31 0 51 c0 27 7 63 15 78 29 56 158 81 221 42 58 -35 74 -101
46 -188 -8 -23 -7 -38 4 -58 7 -14 18 -52 24 -84 6 -32 19 -76 30 -99 66 -136
155 -534 166 -742 8 -150 -12 -631 -26 -640 -7 -4 -12 -33 -13 -66 0 -45 6
-72 28 -114 31 -62 72 -120 85 -120 4 0 13 33 20 73 6 39 16 80 21 89 5 10 9
31 9 48 0 35 6 37 33 12 20 -17 20 -16 14 43 -4 33 -9 89 -12 125 l-5 65 45
-90 c67 -131 76 -147 82 -141 5 4 -100 312 -119 349 -12 23 -3 22 70 -8 34
-14 67 -25 73 -25 6 0 -20 33 -58 73 -38 40 -88 106 -112 147 -65 114 -74 168
-69 462 2 136 7 250 11 254 10 10 143 -12 227 -37 36 -11 84 -18 108 -16 38 2
46 7 67 42 30 49 33 114 8 138 -10 8 -44 26 -76 39 -45 18 -86 49 -182 138
-67 63 -126 121 -129 128 -3 7 8 33 24 59 34 53 67 147 79 223 38 240 -216
656 -528 864 -215 144 -483 247 -716 275 -99 12 -118 12 -216 1z"/>
<path d="M1105 1975 c-28 -50 -52 -94 -53 -98 -7 -14 52 6 91 32 42 27 42 31
20 121 l-9 35 -49 -90z"/>
</g>
</svg>
