<?xml version="1.0" standalone="no"?>
<!DOCTYPE svg PUBLIC "-//W3C//DTD SVG 20010904//EN"
 "http://www.w3.org/TR/2001/REC-SVG-20010904/DTD/svg10.dtd">
<svg version="1.0" xmlns="http://www.w3.org/2000/svg"
 width="480.000000pt" height="360.000000pt" viewBox="0 0 480.000000 360.000000"
 preserveAspectRatio="xMidYMid meet">
<metadata>
Created by potrace 1.16, written by Peter Selinger 2001-2019
</metadata>
<rect width="1" height="360" fill="#000000"/>
<rect x="479" width="1" height="360" fill="#000000"/>
<rect width="480" height="1" fill="#000000"/>
<rect y="359" width="480" height="1" fill="#000000"/>
<g transform="translate(0.000000,360.000000) scale(0.100000,-0.100000)"
fill="#000000" stroke="none">
<path d="M0 1800 l0 -1800 160 0 c121 0 160 3 160 13 1 11 15 120 39 292 5 39
12 106 15 150 l6 80 -21 -70 c-20 -69 -38 -106 -25 -51 21 86 23 116 10 133
-11 15 -16 16 -34 5 -23 -14 -60 -7 -60 11 0 7 9 18 21 25 12 8 18 19 15 28
-3 8 5 19 22 28 16 8 43 29 60 47 18 18 32 30 32 26 0 -4 8 -3 19 2 15 9 18
18 13 56 -4 37 0 52 17 76 12 16 17 29 11 29 -22 0 -8 17 30 39 40 22 51 33
28 29 -6 -2 -16 10 -22 27 -6 16 -25 45 -43 64 -34 37 -34 51 -2 51 11 0 23
10 28 23 5 12 18 30 30 41 27 25 102 18 135 -13 12 -11 25 -21 28 -21 11 0
-28 119 -45 138 -21 23 -26 5 52 180 22 51 41 105 41 121 0 29 11 38 173 148
l78 52 -22 22 c-19 19 -21 26 -11 53 14 37 13 195 0 213 -6 7 -1 25 12 49 11
21 20 49 20 62 0 15 10 29 30 40 16 9 30 20 30 25 0 16 42 47 64 47 15 0 41
16 66 40 23 22 45 40 50 40 4 0 33 26 64 58 l55 57 87 2 c82 2 89 4 143 42 32
21 72 42 90 46 21 4 35 15 42 31 7 21 15 24 41 22 43 -4 51 13 15 30 -18 9
-26 19 -23 30 2 9 7 40 11 67 10 76 28 108 94 174 42 42 62 70 67 95 6 34 58
125 72 127 4 0 18 2 32 5 14 2 71 4 128 3 67 0 102 4 102 11 0 6 4 9 10 5 5
-3 39 2 75 12 50 13 68 15 73 5 5 -6 37 -21 72 -32 86 -28 106 -42 132 -97 27
-54 64 -74 103 -53 34 18 50 8 64 -42 9 -31 9 -51 2 -71 -6 -16 -11 -35 -11
-42 0 -22 47 -68 61 -59 8 5 9 3 5 -5 -5 -7 -2 -57 5 -112 l12 -100 39 43 c44
48 41 34 -5 -25 l-29 -37 24 -19 23 -19 6 41 c6 39 6 39 7 9 l2 -33 48 49 c44
45 48 52 45 93 -3 46 1 44 11 -4 8 -35 19 -28 47 28 12 24 36 57 52 72 l31 28
-21 -35 c-43 -75 -69 -114 -93 -140 -14 -15 -24 -32 -22 -38 1 -5 -8 -12 -21
-16 -34 -8 -90 -101 -91 -148 -1 -47 9 -48 31 -3 9 19 20 32 24 29 11 -6 -8
-54 -32 -80 -22 -24 -38 -114 -20 -114 6 0 17 12 23 28 16 37 16 36 33 22 12
-10 15 -10 15 0 0 8 2 11 6 8 3 -3 -4 -21 -15 -39 -25 -41 -18 -53 19 -34 21
11 28 20 24 33 -5 16 -5 16 9 -1 13 -16 17 -14 48 28 19 24 39 45 46 45 6 0
13 6 16 13 2 6 7 9 10 6 4 -3 -9 -23 -28 -43 -19 -21 -35 -44 -35 -50 0 -7
-16 -20 -36 -29 -19 -10 -32 -22 -29 -28 4 -6 -2 -13 -13 -16 -23 -6 -37 -32
-24 -45 9 -9 112 82 112 100 0 6 7 9 15 6 8 -4 15 -12 15 -20 0 -8 4 -14 10
-14 19 0 155 152 177 198 32 66 76 139 95 158 11 11 15 29 12 58 -3 30 -2 34
4 16 l8 -24 16 23 c10 14 18 19 23 11 4 -6 1 -17 -5 -25 -7 -8 -10 -20 -7 -27
2 -7 -13 -35 -34 -62 -43 -54 -47 -66 -21 -67 10 0 5 -6 -15 -15 -32 -14 -49
-31 -40 -40 9 -9 117 57 111 68 -3 5 0 9 7 7 47 -6 49 -3 44 79 -2 42 -2 66 1
52 15 -70 26 -100 38 -100 12 0 68 57 117 120 11 14 29 36 40 50 l19 25 -2
-35 c-2 -20 -8 -34 -15 -33 -6 2 -26 -15 -43 -37 -19 -23 -25 -37 -16 -34 32
12 15 -6 -41 -43 -31 -21 -61 -41 -67 -45 -6 -4 -27 -17 -46 -28 l-35 -20 42
2 c30 2 43 7 43 18 0 12 2 13 9 1 6 -10 19 -12 46 -7 38 7 55 21 113 91 l33
40 -25 -39 c-14 -22 -24 -41 -22 -43 2 -2 36 12 77 32 40 19 83 35 94 35 11 0
-7 -13 -40 -27 -33 -15 -62 -30 -65 -34 -3 -4 -23 -15 -45 -24 -22 -9 -35 -19
-28 -22 22 -8 3 -30 -22 -26 -28 6 -261 -33 -292 -49 -14 -7 -25 -26 -31 -52
-5 -23 -13 -49 -17 -58 -10 -24 6 -23 38 2 14 11 33 20 44 20 13 0 15 3 5 9
-18 11 4 27 47 33 l33 5 -23 -18 c-13 -10 -28 -19 -34 -19 -5 -1 -1 -5 10 -10
19 -8 19 -9 -2 -9 -32 -1 -71 -20 -135 -67 -42 -31 -54 -44 -45 -53 12 -12 8
-14 -58 -15 -33 -1 -40 -4 -40 -21 0 -15 6 -20 25 -18 20 1 17 -2 -12 -14 -36
-15 -38 -18 -38 -60 0 -41 2 -44 23 -38 l22 6 -21 -18 c-23 -20 -49 -63 -38
-63 3 0 19 11 36 25 26 22 48 32 48 21 0 -2 -25 -23 -55 -46 -30 -23 -55 -49
-55 -57 0 -13 3 -13 23 1 37 28 148 78 214 96 34 9 88 34 121 55 50 33 61 45
72 84 16 52 18 98 9 156 -4 22 -4 44 -1 50 4 5 11 -21 17 -60 l11 -70 19 60
c20 65 32 85 47 85 6 0 5 -6 -2 -15 -19 -23 -7 -35 18 -17 13 10 29 36 37 57
l14 40 1 -43 0 -43 30 16 c17 9 30 19 30 23 0 8 80 35 87 29 2 -3 -14 -12 -37
-21 -34 -14 -40 -20 -40 -46 0 -42 23 -47 68 -18 42 28 76 42 68 29 -3 -5 -19
-14 -36 -21 -37 -16 -39 -30 -2 -31 24 0 25 -1 7 -9 -13 -6 -1 -7 34 -3 35 4
52 2 48 -4 -4 -6 -38 -9 -79 -7 -77 2 -118 -3 -118 -16 0 -4 12 -11 26 -14 15
-4 24 -9 22 -11 -2 -3 -19 0 -38 5 -30 8 -38 6 -82 -26 -26 -20 -48 -37 -48
-40 0 -11 64 -34 97 -35 21 -1 49 -4 63 -8 51 -15 -37 -21 -93 -7 -77 20 -120
11 -141 -28 -15 -28 -92 -84 -151 -110 -13 -5 -15 -10 -8 -13 20 -7 116 24
156 51 20 14 37 22 37 18 0 -4 -19 -20 -42 -35 -23 -15 -35 -27 -28 -27 8 0
37 18 65 40 55 43 73 45 32 2 -15 -16 -27 -31 -27 -34 0 -3 25 -9 55 -13 l56
-7 45 47 c25 26 48 45 51 41 3 -3 0 -12 -6 -20 -8 -10 -9 -16 -1 -21 5 -3 11
-3 11 2 1 4 4 -5 8 -22 4 -20 14 -31 31 -36 24 -7 24 -7 3 -8 -28 -1 -29 -12
-3 -36 19 -17 21 -17 65 6 40 21 45 27 39 49 -19 71 -30 139 -23 134 5 -3 9
-9 9 -14 0 -21 42 -120 51 -120 16 0 10 46 -15 101 -28 64 -42 129 -26 129 5
0 10 -12 10 -27 0 -16 12 -52 25 -82 33 -71 48 -58 43 38 -1 39 0 71 4 71 16
0 20 -102 10 -206 -17 -163 -18 -158 18 -139 17 9 30 21 30 28 0 6 11 13 25
13 13 1 32 9 40 18 9 9 20 16 25 16 5 0 15 6 22 13 24 22 78 58 78 52 0 -11
-24 -31 -71 -58 -25 -15 -56 -38 -69 -52 -22 -23 -23 -27 -10 -67 7 -24 17
-47 21 -52 5 -6 33 15 66 47 42 42 64 73 84 124 14 37 31 69 38 71 6 2 2 -17
-9 -44 -11 -26 -19 -49 -17 -51 2 -2 16 15 30 36 15 22 40 50 57 62 21 16 30
31 30 50 0 15 5 31 10 34 6 4 10 -9 10 -32 0 -28 -6 -42 -21 -51 -13 -9 -18
-19 -14 -30 3 -9 3 -13 -1 -10 -10 11 -84 -73 -84 -97 0 -12 24 -3 56 21 19
15 34 23 34 19 0 -4 6 -3 13 3 6 5 27 13 44 17 23 4 42 20 65 51 32 45 52 55
24 12 -9 -13 -12 -29 -7 -36 11 -19 55 2 111 52 25 23 19 14 -15 -18 -63 -62
-126 -119 -163 -148 -12 -10 -22 -26 -23 -35 0 -10 -4 -39 -8 -66 -4 -26 -5
-47 -1 -47 4 0 19 12 35 26 22 20 26 31 21 55 -3 16 -1 29 4 29 9 0 14 -17 13
-47 -1 -19 6 -17 93 24 83 38 104 45 104 35 -1 -9 -82 -47 -141 -67 -24 -9
-57 -27 -74 -41 l-30 -25 30 5 c17 2 41 7 55 11 16 4 13 1 -9 -9 -18 -9 -42
-16 -53 -16 -10 0 -29 -10 -41 -23 -12 -13 -16 -15 -8 -5 17 21 9 22 -36 6
-18 -7 -33 -18 -33 -25 0 -7 -4 -13 -10 -13 -5 0 -10 -4 -10 -9 0 -5 9 -7 20
-4 11 3 17 9 14 14 -3 5 0 9 5 9 21 0 10 -21 -16 -32 -26 -12 -23 -13 42 -18
62 -4 68 -6 48 -17 -26 -15 -77 -17 -68 -3 3 6 -4 10 -16 10 -18 0 -19 -2 -9
-15 10 -12 9 -15 -4 -15 -15 0 -15 -3 -1 -30 26 -50 8 -34 -22 20 -19 35 -33
48 -43 44 -38 -14 -71 -16 -68 -4 4 17 -52 32 -68 19 -7 -6 -10 -18 -7 -26 4
-10 2 -14 -4 -10 -6 4 -25 0 -42 -9 -17 -8 -59 -23 -94 -33 -67 -19 -122 -45
-131 -60 -4 -5 -30 -17 -58 -27 -97 -32 -197 -103 -319 -226 -106 -108 -123
-120 -210 -161 -56 -26 -104 -56 -117 -72 -24 -30 -22 -46 3 -25 9 7 18 10 22
6 3 -3 1 -6 -5 -6 -28 0 -9 -18 26 -24 28 -4 43 -1 65 14 15 12 27 17 27 12 0
-5 -10 -16 -22 -24 -21 -14 -21 -14 8 -25 16 -6 38 -14 48 -17 10 -4 16 -9 13
-12 -3 -3 -27 1 -54 9 -60 20 -183 33 -183 20 0 -5 9 -19 20 -31 17 -18 28
-21 63 -16 32 4 38 3 25 -5 -9 -6 -30 -12 -47 -14 -17 -2 -34 -6 -37 -10 -7
-6 31 -29 43 -25 4 2 19 -5 33 -15 l25 -18 -28 7 c-24 5 -26 4 -20 -12 6 -18
5 -18 -13 -2 -22 19 -43 9 -45 -21 -1 -24 -17 17 -24 63 -6 34 -9 38 -31 33
-33 -6 -42 11 -9 19 14 3 25 10 25 15 0 16 -31 23 -40 10 -4 -7 -11 -13 -16
-13 -15 -1 -54 -148 -54 -202 0 -28 7 -82 16 -121 23 -104 29 -273 14 -358
-14 -71 -14 -81 -5 -125 l5 -22 694 0 693 0 7 30 c9 46 -11 226 -29 261 -9 17
-31 37 -49 44 -17 7 -38 25 -45 39 -18 33 -9 111 19 166 23 46 53 192 40 200
-4 3 -10 15 -14 28 -4 12 -11 20 -16 17 -14 -9 -22 46 -9 62 15 17 59 122 59
139 0 6 -25 29 -55 49 -67 47 -72 75 -22 122 42 40 69 53 109 53 26 0 40 -9
66 -40 17 -21 32 -43 32 -48 0 -5 9 -17 20 -27 26 -24 25 -49 -2 -76 -16 -15
-19 -23 -10 -26 6 -3 12 -10 12 -16 1 -7 14 -28 30 -47 17 -19 30 -39 30 -45
0 -5 14 -25 31 -43 24 -26 30 -39 25 -60 -6 -27 -6 -27 23 6 17 20 31 29 35
23 8 -12 -21 -61 -35 -61 -5 0 -14 -12 -20 -28 -7 -15 -16 -38 -23 -51 -9 -20
-7 -26 19 -48 39 -32 68 -43 112 -43 30 0 34 -2 23 -15 -12 -15 -6 -35 11 -35
5 0 9 583 9 1535 l0 1535 -2400 0 -2400 0 0 -1800z m2940 1731 c-10 -21 -30
-37 -30 -26 0 14 21 45 31 45 6 0 6 -7 -1 -19z m280 -180 c0 -6 -4 -13 -10
-16 -5 -3 -10 1 -10 9 0 9 5 16 10 16 6 0 10 -4 10 -9z m-1920 -22 c0 -5 -4
-9 -10 -9 -5 0 -10 7 -10 16 0 8 5 12 10 9 6 -3 10 -10 10 -16z m1990 -44 c0
-15 -43 -12 -48 3 -3 10 4 13 22 10 15 -2 26 -7 26 -13z m-2242 -142 c2 -8 -5
-13 -17 -13 -12 0 -21 6 -21 16 0 18 31 15 38 -3z m102 -193 c0 -5 -7 -10 -16
-10 -8 0 -12 5 -9 10 3 6 10 10 16 10 5 0 9 -4 9 -10z m-322 -106 c27 -19 29
-44 3 -44 -21 0 -54 38 -45 52 7 12 17 10 42 -8z m2624 -156 c-6 -6 -7 0 -4
19 5 21 7 23 10 9 2 -10 0 -22 -6 -28z m-69 12 c3 -11 1 -18 -4 -14 -5 3 -9
12 -9 20 0 20 7 17 13 -6z m-173 -35 c6 -8 9 -23 5 -35 -5 -17 -10 -19 -21 -9
-15 12 -19 59 -5 59 5 0 14 -7 21 -15z m-115 -70 c-45 -19 -81 -29 -72 -19 9
9 74 32 92 32 6 0 -3 -5 -20 -13z m605 6 c0 -5 -7 -12 -16 -15 -14 -5 -15 -4
-4 9 14 17 20 19 20 6z m-2636 -117 c28 -11 5 -34 -34 -34 -39 0 -56 12 -45
30 7 11 54 13 79 4z m2494 -189 l1 -20 -9 20 c-5 11 -8 31 -8 45 l0 25 8 -25
c4 -14 8 -34 8 -45z m29 43 c-3 -8 -6 -5 -6 6 -1 11 2 17 5 13 3 -3 4 -12 1
-19z m-110 -44 c-3 -3 -12 -4 -19 -1 -8 3 -5 6 6 6 11 1 17 -2 13 -5z m366
-101 c-7 -2 -19 -2 -25 0 -7 3 -2 5 12 5 14 0 19 -2 13 -5z m597 -83 c0 -5 -5
-10 -11 -10 -5 0 -7 5 -4 10 3 6 8 10 11 10 2 0 4 -4 4 -10z m40 -81 c-7 -11
-14 -18 -17 -15 -3 3 0 12 7 21 18 21 23 19 10 -6z m-45 -69 c-3 -5 -11 -10
-16 -10 -6 0 -7 5 -4 10 3 6 11 10 16 10 6 0 7 -4 4 -10z m-4045 -80 c0 -13
-28 -25 -38 -16 -3 4 0 11 8 16 20 13 30 12 30 0z m3800 -65 c0 -8 -9 -15 -20
-15 -13 0 -18 5 -14 15 4 8 12 15 20 15 8 0 14 -7 14 -15z m-166 -577 c14 -6
28 -19 31 -29 3 -10 19 -29 34 -42 61 -51 61 -109 2 -122 -17 -4 -31 -10 -31
-14 0 -15 -126 -72 -143 -65 -20 7 -21 40 -3 74 13 22 12 29 -10 65 -25 44
-24 75 5 109 30 34 73 44 115 24z m-3899 -188 c3 -5 2 -10 -4 -10 -5 0 -13 5
-16 10 -3 6 -2 10 4 10 5 0 13 -4 16 -10z m3715 -62 c0 -14 -30 -48 -42 -48
-13 0 -9 24 8 48 15 22 34 22 34 0z"/>
<path d="M2801 2564 c0 -11 3 -14 6 -6 3 7 2 16 -1 19 -3 4 -6 -2 -5 -13z"/>
<path d="M2776 2498 c-11 -22 -13 -35 -5 -49 15 -29 32 -24 25 7 -6 21 -4 25
8 21 18 -7 28 6 20 26 -11 29 -33 27 -48 -5z"/>
<path d="M2750 2404 c-16 -40 -9 -84 16 -113 8 -8 33 34 34 55 0 20 -27 84
-36 84 -2 0 -9 -12 -14 -26z"/>
<path d="M3264 2318 c-51 -53 -94 -111 -94 -126 0 -8 13 -6 38 6 48 22 68 41
82 77 13 32 24 85 18 85 -2 0 -22 -19 -44 -42z"/>
<path d="M3710 2310 l-25 -20 23 0 c12 0 25 7 29 15 9 24 0 25 -27 5z"/>
<path d="M2711 2248 c-13 -78 -14 -91 -2 -84 4 3 11 29 15 58 5 37 10 48 16
38 15 -23 11 2 -4 29 -13 23 -14 21 -25 -41z"/>
<path d="M2850 2263 c0 -13 5 -23 10 -23 13 0 13 11 0 30 -8 12 -10 11 -10 -7z"/>
<path d="M3668 2269 c-17 -9 -44 -66 -35 -75 6 -6 77 54 77 66 0 13 -25 19
-42 9z"/>
<path d="M3725 2260 c-3 -5 -1 -10 4 -10 6 0 11 5 11 10 0 6 -2 10 -4 10 -3 0
-8 -4 -11 -10z"/>
<path d="M2875 2210 c-3 -5 -2 -10 4 -10 5 0 13 5 16 10 3 6 2 10 -4 10 -5 0
-13 -4 -16 -10z"/>
<path d="M2810 2190 c0 -5 5 -10 10 -10 6 0 10 5 10 10 0 6 -4 10 -10 10 -5 0
-10 -4 -10 -10z"/>
<path d="M3562 2175 c-14 -29 -2 -33 21 -7 20 22 21 32 4 32 -8 0 -19 -11 -25
-25z"/>
<path d="M2886 2175 c-3 -9 0 -15 9 -15 8 0 15 7 15 15 0 8 -4 15 -9 15 -5 0
-11 -7 -15 -15z"/>
<path d="M3110 2143 c0 -14 -2 -15 -9 -4 -13 20 -55 6 -76 -25 -22 -33 -16
-38 32 -23 41 13 81 53 63 64 -5 3 -10 -2 -10 -12z"/>
<path d="M2913 2127 c-4 -7 -34 -35 -66 -61 -56 -47 -87 -97 -87 -138 0 -29
17 -13 25 23 5 21 10 27 15 19 12 -19 163 131 154 153 -7 20 -30 22 -41 4z"/>
<path d="M2810 2122 c0 -4 -10 -12 -22 -17 -13 -6 -24 -18 -26 -28 -3 -16 0
-16 34 6 41 26 55 47 30 47 -9 0 -16 -3 -16 -8z"/>
<path d="M3031 2069 c-25 -11 -50 -27 -57 -37 -6 -9 -24 -30 -38 -45 -32 -34
-33 -40 -3 -31 13 4 4 -8 -24 -29 -27 -21 -50 -48 -54 -64 -30 -110 -17 -157
31 -109 15 14 39 29 53 33 45 11 101 52 101 74 0 11 7 33 14 48 8 15 12 38 9
50 -4 17 -2 20 11 15 10 -4 16 -1 17 7 8 125 11 120 -60 88z m-90 -262 c-10
-9 -11 -8 -5 6 3 10 9 15 12 12 3 -3 0 -11 -7 -18z"/>
<path d="M3728 1947 c-5 -10 -8 -21 -5 -23 8 -8 54 14 60 29 8 22 -43 16 -55
-6z"/>
<path d="M3505 1930 c-55 -4 -123 -5 -150 -3 -43 5 -55 2 -80 -19 -17 -14 -42
-31 -56 -39 -15 -8 -50 -27 -78 -42 -43 -23 -180 -118 -228 -157 -19 -16 -16
-65 6 -84 17 -16 19 -15 35 9 9 14 21 25 26 25 10 0 8 -7 -19 -58 -10 -19 -9
-27 1 -40 7 -9 13 -18 14 -20 1 -2 24 13 52 32 27 20 56 36 64 36 22 0 126 47
163 73 16 12 32 22 35 23 34 5 80 17 80 21 0 2 -5 13 -10 24 -6 10 -7 19 -2
19 5 0 15 -11 22 -25 11 -21 20 -24 63 -23 56 1 130 34 178 79 16 15 29 23 29
18 0 -11 100 43 100 54 0 4 -4 7 -9 7 -5 0 -37 23 -71 50 -34 28 -63 49 -64
48 0 -1 -46 -4 -101 -8z"/>
<path d="M3686 1889 c77 -61 100 -62 102 -5 1 30 -2 36 -18 36 -11 0 -20 -6
-20 -14 0 -13 -4 -13 -27 0 -16 7 -39 14 -52 14 -22 0 -21 -3 15 -31z"/>
<path d="M4494 1868 l-29 -31 32 22 c35 23 50 41 35 41 -4 0 -21 -14 -38 -32z"/>
<path d="M3918 1877 c-7 -8 -18 -12 -25 -10 -20 7 -25 -35 -8 -67 11 -21 21
-30 31 -26 9 3 17 6 20 6 7 0 34 59 34 74 0 23 -36 39 -52 23z"/>
<path d="M4390 1860 c-8 -5 -22 -11 -30 -13 -8 -3 -24 -20 -34 -38 l-20 -34
50 39 c27 22 53 43 59 48 12 11 -5 10 -25 -2z"/>
<path d="M3830 1842 c-15 -5 -50 -37 -50 -46 0 -2 13 2 30 10 41 21 57 48 20
36z"/>
<path d="M4415 1840 c-3 -5 -1 -10 4 -10 6 0 11 5 11 10 0 6 -2 10 -4 10 -3 0
-8 -4 -11 -10z"/>
<path d="M4054 1806 c-3 -9 4 -32 17 -53 26 -42 36 -30 19 22 -13 40 -28 53
-36 31z"/>
<path d="M4396 1774 c-38 -33 -38 -34 -14 -34 28 0 61 31 56 53 -2 11 -13 6
-42 -19z"/>
<path d="M3815 1784 c-28 -14 -90 -83 -82 -91 2 -2 24 6 49 17 35 15 47 27 55
55 6 19 10 35 10 35 -1 0 -15 -7 -32 -16z"/>
<path d="M3858 1775 c-7 -34 -6 -37 8 -27 6 4 8 18 4 32 -6 25 -6 25 -12 -5z"/>
<path d="M4010 1770 c-16 -31 -25 -110 -11 -110 6 0 11 -7 11 -16 0 -8 -4 -12
-10 -9 -5 3 -10 2 -10 -4 0 -26 22 -17 56 24 l37 46 -21 45 c-24 48 -36 54
-52 24z"/>
<path d="M3698 1757 c-32 -11 -58 -27 -58 -34 0 -7 -6 -10 -13 -7 -16 6 -55
-22 -45 -32 5 -4 19 -2 33 4 17 8 33 8 51 2 36 -14 37 -14 64 30 14 22 28 40
32 40 5 0 8 5 8 10 0 13 -5 12 -72 -13z"/>
<path d="M4400 1730 c-8 -5 -26 -10 -38 -10 -13 0 -36 -12 -50 -28 -15 -15
-48 -38 -74 -52 -26 -13 -45 -26 -43 -28 2 -2 47 4 100 13 102 19 116 28 130
88 7 28 0 33 -25 17z"/>
<path d="M3854 1719 c-11 -19 10 -28 46 -20 34 7 34 8 13 19 -27 15 -50 15
-59 1z"/>
<path d="M4210 1710 c-9 -6 -10 -10 -3 -10 6 0 15 5 18 10 8 12 4 12 -15 0z"/>
<path d="M3763 1676 c-23 -6 -45 -14 -48 -18 -4 -4 -13 -4 -19 -2 -7 3 -19 -2
-26 -11 -10 -12 -10 -15 4 -15 21 0 20 -12 -4 -43 -11 -14 -17 -32 -14 -41 5
-12 0 -16 -20 -16 -27 0 -35 -15 -13 -23 8 -4 7 -6 -4 -6 -20 -1 -74 -57 -61
-64 5 -4 42 8 83 25 41 17 87 33 103 37 40 9 57 38 33 56 -23 17 -15 51 14 60
10 4 19 10 19 15 0 4 6 10 13 13 10 4 12 -11 12 -60 l-1 -65 35 7 c20 4 38 9
40 11 2 2 -4 24 -14 49 -9 26 -15 48 -13 51 3 2 17 -13 31 -33 15 -21 27 -31
28 -23 3 37 -3 86 -11 94 -13 14 -119 15 -167 2z"/>
<path d="M4219 1673 c-13 -15 -12 -15 9 -4 23 12 28 21 13 21 -5 0 -15 -7 -22
-17z"/>
<path d="M3540 1650 c-8 -5 -24 -10 -36 -10 -11 0 -29 -7 -40 -16 -18 -15 -17
-15 19 -10 34 4 36 3 27 -14 -5 -10 -10 -21 -10 -24 0 -10 26 -6 56 8 16 8 43
18 59 21 18 4 8 -4 -27 -21 -61 -28 -73 -48 -36 -60 17 -5 30 2 59 34 32 34
37 44 30 68 -6 25 -13 29 -47 32 -21 1 -46 -2 -54 -8z"/>
<path d="M3293 1620 c-30 -18 -53 -63 -39 -77 6 -7 69 10 123 32 37 16 36 40
-2 49 -13 3 -29 8 -37 11 -7 3 -28 -4 -45 -15z"/>
<path d="M3420 1619 c0 -5 5 -7 10 -4 6 3 10 8 10 11 0 2 -4 4 -10 4 -5 0 -10
-5 -10 -11z"/>
<path d="M3432 1588 c-20 -20 -14 -28 23 -28 28 0 35 4 35 20 0 23 -38 28 -58
8z"/>
<path d="M4211 1591 c-15 -10 -11 -11 63 -26 21 -4 66 14 66 27 0 11 -111 10
-129 -1z"/>
<path d="M3200 1565 c-7 -9 -10 -18 -7 -21 10 -11 37 5 37 21 0 19 -14 19 -30
0z"/>
<path d="M4060 1549 c-54 -15 -63 -19 -57 -25 8 -9 117 16 117 27 0 11 -13 10
-60 -2z"/>
<path d="M3375 1530 c4 -7 -2 -9 -17 -5 -21 6 -157 -11 -166 -20 -6 -6 20 -78
37 -102 20 -28 29 -29 40 0 27 68 43 99 48 94 3 -3 -7 -36 -22 -74 -28 -69
-34 -128 -15 -147 7 -7 10 -2 10 14 0 20 2 22 10 10 8 -13 17 -11 62 14 60 33
153 100 163 117 4 6 2 16 -4 22 -6 6 -11 23 -11 39 0 17 -7 31 -19 38 -26 13
-124 13 -116 0z"/>
<path d="M3150 1507 c0 -8 6 -20 14 -26 12 -10 13 -8 9 9 -7 25 -23 37 -23 17z"/>
<path d="M3530 1494 c0 -16 5 -24 13 -22 18 7 20 35 2 41 -11 5 -15 0 -15 -19z"/>
<path d="M3070 1490 c-11 -11 -20 -23 -20 -27 1 -8 96 -80 154 -116 l28 -18
-6 28 c-4 15 -19 44 -34 63 -15 19 -35 47 -45 63 -21 32 -49 35 -77 7z"/>
<path d="M3795 1469 c-10 -15 3 -25 16 -12 7 7 7 13 1 17 -6 3 -14 1 -17 -5z"/>
<path d="M3729 1452 c-24 -20 -21 -56 4 -46 12 4 37 45 37 59 0 11 -19 4 -41
-13z"/>
<path d="M3026 1428 c-16 -25 -13 -48 20 -170 11 -41 24 -68 32 -68 15 0 152
58 164 69 15 13 -4 48 -35 66 -18 10 -54 37 -82 60 -88 72 -82 69 -99 43z"/>
<path d="M3604 1433 c-9 -10 -38 -28 -63 -40 -30 -14 -39 -22 -26 -22 21 -1
124 58 125 72 0 13 -18 8 -36 -10z"/>
<path d="M3663 1408 c-13 -20 -84 -64 -128 -78 -80 -26 -235 -111 -235 -129 0
-9 -7 -26 -15 -37 -14 -19 -20 -75 -9 -87 13 -13 61 17 138 86 45 40 93 81
107 92 14 11 33 32 43 47 9 14 42 39 72 55 51 27 65 45 45 58 -6 3 -13 0 -18
-7z"/>
<path d="M3155 1152 c-42 -22 -71 -44 -73 -56 -4 -16 1 -18 50 -11 41 5 59 13
81 36 25 27 37 69 20 69 -5 0 -39 -17 -78 -38z"/>
<path d="M3207 1073 c-11 -12 -30 -16 -56 -14 -63 4 -81 -11 -81 -69 0 -28 3
-50 8 -49 4 0 38 21 77 47 48 33 71 55 76 75 8 31 1 34 -24 10z"/>
<path d="M681 1010 c-8 -4 -11 -15 -8 -24 9 -23 -10 -66 -29 -66 -13 0 -15 -7
-9 -42 4 -24 14 -54 22 -66 8 -13 12 -26 9 -29 -3 -3 1 -15 9 -27 19 -26 19
-50 -1 -88 -13 -25 -13 -32 -3 -39 10 -6 7 -13 -12 -28 -35 -27 -53 -76 -78
-211 -20 -107 -21 -119 -7 -165 10 -33 29 -64 56 -90 22 -21 40 -45 40 -52 0
-7 -25 -27 -55 -44 -30 -17 -55 -33 -55 -35 0 -2 476 -4 1058 -4 l1058 0 12
100 c7 54 16 139 19 187 5 77 10 95 40 145 30 49 36 71 49 174 16 125 14 144
-12 144 -8 0 -46 13 -84 30 -62 27 -72 29 -120 20 -29 -6 -54 -10 -56 -10 -2
0 -13 -17 -23 -37 -11 -21 -34 -54 -50 -73 l-30 -35 -124 3 c-106 3 -132 0
-183 -18 -94 -34 -105 -34 -209 0 -80 27 -106 32 -155 27 -33 -3 -76 -1 -96 3
-32 8 -42 5 -88 -26 -40 -28 -56 -34 -76 -28 -14 4 -61 7 -106 6 -70 -2 -83 1
-99 18 -10 11 -24 20 -31 20 -7 0 -18 8 -23 18 -11 20 -44 32 -166 57 -96 20
-138 38 -186 79 -20 17 -59 49 -87 70 -39 30 -53 49 -62 82 -14 50 -30 67 -49
54z"/>
<path d="M2725 865 c-27 -12 -28 -14 -10 -20 11 -4 35 -13 53 -21 46 -20 61
-18 72 12 15 39 12 44 -21 32 -22 -8 -34 -7 -42 1 -13 13 -14 13 -52 -4z"/>
<path d="M594 734 c-1 -13 2 -24 7 -24 11 0 12 37 2 43 -5 3 -9 -6 -9 -19z"/>
<path d="M3140 744 c0 -8 5 -12 10 -9 6 4 8 11 5 16 -9 14 -15 11 -15 -7z"/>
<path d="M4590 581 c0 -10 18 -61 40 -114 58 -139 54 -167 -24 -167 -18 0 -35
-2 -38 -5 -3 -3 5 -31 18 -63 14 -35 24 -82 25 -122 1 -36 9 -75 17 -87 13
-21 22 -23 93 -23 l79 0 0 245 0 246 -31 6 c-17 3 -64 28 -105 54 -61 40 -74
45 -74 30z"/>
</g>
</svg>
