<?xml version="1.0" standalone="no"?>
<!DOCTYPE svg PUBLIC "-//W3C//DTD SVG 20010904//EN"
 "http://www.w3.org/TR/2001/REC-SVG-20010904/DTD/svg10.dtd">
<svg version="1.0" xmlns="http://www.w3.org/2000/svg"
 width="480.000000pt" height="360.000000pt" viewBox="0 0 480.000000 360.000000"
 preserveAspectRatio="xMidYMid meet">
<metadata>
Created by potrace 1.16, written by Peter Selinger 2001-2019
</metadata>
<rect width="1" height="360" fill="#000000"/>
<rect x="479" width="1" height="360" fill="#000000"/>
<rect width="480" height="1" fill="#000000"/>
<rect y="359" width="480" height="1" fill="#000000"/>
<g transform="translate(0.000000,360.000000) scale(0.100000,-0.100000)"
fill="#000000" stroke="none">
<path d="M0 1800 l0 -1800 876 0 875 0 83 173 c79 163 126 265 126 273 0 2 -6
4 -13 4 -24 0 -46 34 -73 111 -24 68 -26 83 -21 194 2 66 8 127 11 136 17 41
175 68 283 49 74 -13 78 -10 89 50 8 38 -5 97 -39 174 -28 65 -183 273 -232
310 -78 60 -95 133 -50 223 24 47 85 103 112 103 7 0 15 5 18 10 9 15 -4 50
-19 50 -8 0 -19 21 -26 48 -12 45 -13 46 -22 22 -8 -18 -12 -21 -16 -10 -7 21
-39 50 -46 43 -9 -9 17 290 28 317 4 10 -9 31 -39 59 -49 46 -53 56 -30 65 9
3 15 18 15 35 0 37 21 50 72 44 43 -6 46 1 21 47 l-18 31 45 40 c56 49 75 55
105 35 36 -24 53 -20 69 18 19 45 52 66 103 66 43 0 73 -19 73 -46 0 -20 18
-17 30 5 23 44 75 34 107 -19 15 -26 21 -29 54 -24 45 8 96 -17 101 -48 2 -13
-2 -45 -9 -73 -12 -46 -11 -52 7 -77 20 -27 20 -28 1 -59 -18 -30 -19 -35 -5
-67 20 -49 54 -185 48 -191 -3 -3 -14 5 -24 19 l-20 25 0 -58 c0 -39 7 -71 21
-98 22 -44 19 -60 -7 -38 -16 13 -17 11 -10 -23 9 -47 2 -48 -20 -6 -19 36
-18 36 -44 -36 -8 -22 -13 -26 -24 -17 -10 8 -16 5 -24 -15 -7 -14 -12 -31
-12 -38 0 -14 82 -69 122 -81 40 -13 68 -36 68 -57 0 -21 52 -48 93 -48 27 0
80 -37 72 -49 -2 -5 4 -16 15 -26 26 -23 25 -40 -1 -66 -21 -21 -21 -23 -5
-48 9 -14 29 -49 43 -78 23 -46 25 -55 14 -76 -11 -21 -9 -30 28 -87 44 -68
46 -77 31 -130 -6 -19 -8 -59 -4 -87 7 -55 23 -80 81 -121 36 -25 52 -67 34
-85 -8 -8 -17 -5 -34 11 -47 45 -64 14 -26 -48 12 -19 30 -41 40 -48 11 -7 19
-24 19 -36 0 -21 -6 -24 -50 -30 -28 -4 -58 -3 -67 3 -11 6 -23 5 -35 -2 -14
-9 -23 -9 -40 2 -13 8 -40 14 -60 12 -32 -1 -40 3 -62 36 -32 47 -32 38 -1
-48 42 -119 105 -448 105 -555 l0 -94 945 0 945 0 0 1800 0 1800 -2400 0
-2400 0 0 -1800z"/>
</g>
</svg>
