<?xml version="1.0" standalone="no"?>
<!DOCTYPE svg PUBLIC "-//W3C//DTD SVG 20010904//EN"
 "http://www.w3.org/TR/2001/REC-SVG-20010904/DTD/svg10.dtd">
<svg version="1.0" xmlns="http://www.w3.org/2000/svg"
 width="480.000000pt" height="360.000000pt" viewBox="0 0 480.000000 360.000000"
 preserveAspectRatio="xMidYMid meet">
<metadata>
Created by potrace 1.16, written by Peter Selinger 2001-2019
</metadata>
<rect width="1" height="360" fill="#000000"/>
<rect x="479" width="1" height="360" fill="#000000"/>
<rect width="480" height="1" fill="#000000"/>
<rect y="359" width="480" height="1" fill="#000000"/>
<g transform="translate(0.000000,360.000000) scale(0.100000,-0.100000)"
fill="#000000" stroke="none">
<path d="M0 3054 c0 -361 3 -543 10 -539 5 3 10 -1 10 -9 0 -9 -5 -16 -10 -16
-7 0 -10 -420 -10 -1245 l0 -1245 1489 0 1488 0 21 158 c12 86 25 191 28 232
5 60 13 84 36 117 16 23 42 71 58 105 25 53 30 76 30 143 1 74 7 121 24 185 7
24 4 27 -46 39 -29 7 -84 24 -122 37 -65 22 -129 34 -81 15 15 -6 3 -11 -45
-17 l-65 -9 -36 -74 c-24 -50 -43 -78 -60 -84 -13 -6 -75 -10 -138 -9 -116 1
-128 -1 -341 -62 -79 -23 -137 -20 -240 14 -116 38 -158 39 -200 3 -39 -32
-123 -49 -158 -31 -18 9 -39 9 -93 0 -92 -16 -108 -15 -116 6 -8 20 -42 48
-97 81 -36 20 -49 22 -113 17 -74 -6 -176 9 -278 41 -51 16 -79 40 -169 148
-38 45 -96 148 -96 171 0 5 -10 27 -22 49 -12 22 -24 60 -27 85 -5 39 -10 47
-40 61 -42 19 -71 70 -71 121 0 20 -4 48 -10 62 -8 23 -5 29 26 53 49 39 67
85 60 153 -6 53 -5 56 23 73 16 9 65 51 108 93 51 49 100 86 143 107 36 17 66
32 68 33 2 1 -4 14 -13 28 -10 15 -15 37 -12 51 3 18 -1 29 -14 36 -25 13 -50
62 -65 126 l-12 51 40 39 c32 31 38 43 34 66 -4 17 0 37 9 51 9 13 18 34 20
47 2 13 23 41 45 61 36 32 40 39 30 58 -13 24 -8 55 22 150 11 36 20 85 19
110 -1 34 7 63 35 120 40 80 41 89 25 194 -16 107 -7 157 44 241 14 22 25 43
25 48 0 4 -263 7 -585 7 l-585 0 0 -546z m895 -194 c3 -5 -3 -10 -14 -10 -12
0 -21 5 -21 10 0 6 6 10 14 10 8 0 18 -4 21 -10z m-581 -192 c-10 -16 -24 13
-23 47 l0 30 14 -34 c8 -18 12 -38 9 -43z"/>
<path d="M3166 3585 c4 -8 9 -15 13 -15 3 0 7 -18 8 -41 2 -58 12 -109 22
-109 5 0 16 15 25 33 18 37 66 97 66 83 0 -6 -10 -20 -22 -33 -12 -12 -22 -31
-23 -41 0 -10 -11 -29 -23 -42 -27 -29 -28 -40 -2 -40 14 0 20 7 20 23 0 18 2
19 11 7 8 -13 14 -9 37 20 15 19 44 50 65 70 36 34 37 36 25 68 l-12 32 -108
0 c-91 0 -107 -2 -102 -15z"/>
<path d="M3400 3584 c0 -9 5 -14 12 -12 18 6 21 28 4 28 -9 0 -16 -7 -16 -16z"/>
<path d="M3435 3570 c-4 -16 -10 -32 -15 -35 -5 -3 -19 -19 -30 -35 -23 -33
-28 -33 55 4 22 10 57 27 78 37 20 11 37 17 37 14 0 -4 -47 -29 -105 -56 -107
-52 -125 -68 -125 -113 0 -14 -4 -26 -9 -26 -5 0 -23 -20 -39 -44 -26 -38 -29
-49 -22 -83 6 -34 40 -102 40 -80 0 4 11 0 24 -8 21 -14 24 -14 30 0 3 9 6 30
6 46 0 16 5 29 10 29 6 0 8 -10 5 -22 -6 -23 -7 -49 -5 -123 l1 -40 17 34 c11
23 25 35 39 36 15 1 20 -2 15 -9 -12 -16 -14 -76 -3 -76 18 0 75 57 116 115
22 31 59 82 83 112 33 45 42 65 42 97 0 24 10 58 23 81 24 41 25 65 4 65 -7 0
-17 11 -23 24 -9 20 -9 23 3 19 13 -5 31 11 54 50 9 16 0 17 -145 17 l-154 0
-7 -30z m255 -101 c0 -6 -4 -7 -10 -4 -5 3 -10 11 -10 16 0 6 5 7 10 4 6 -3
10 -11 10 -16z m-39 -132 c-13 -13 -15 1 -4 30 7 17 8 17 11 -1 2 -10 -1 -23
-7 -29z"/>
<path d="M3789 3573 c-20 -50 -37 -128 -32 -137 4 -5 1 -6 -5 -2 -11 7 -38
-71 -28 -81 3 -3 38 23 78 57 40 35 94 76 119 92 37 22 46 33 44 52 -5 42 -13
46 -91 46 -72 0 -75 -1 -85 -27z m117 -58 c-11 -8 -25 -15 -30 -15 -6 0 -2 7
8 15 11 8 25 15 30 15 6 0 2 -7 -8 -15z m-46 -20 c0 -2 -10 -10 -22 -16 -21
-11 -22 -11 -9 4 13 16 31 23 31 12z m-60 -34 c0 -5 -7 -12 -16 -15 -14 -5
-15 -4 -4 9 14 17 20 19 20 6z"/>
<path d="M3986 3585 c4 -8 10 -15 14 -15 4 0 13 7 20 15 11 13 8 15 -13 15
-19 0 -25 -4 -21 -15z"/>
<path d="M4042 3567 c-18 -18 -32 -40 -32 -48 0 -9 -9 -24 -20 -34 -22 -20
-28 -8 -7 15 6 8 -3 2 -20 -14 -34 -31 -43 -43 -21 -29 7 4 29 8 48 8 32 1 71
17 157 63 31 16 62 49 63 65 0 4 -31 7 -68 7 -64 0 -70 -2 -100 -33z"/>
<path d="M4242 3568 c-23 -18 -42 -37 -42 -44 0 -6 -17 -19 -37 -30 -21 -10
-44 -25 -51 -31 -16 -15 -36 -17 -27 -3 9 14 6 13 -85 -21 -45 -17 -92 -42
-105 -55 -27 -27 -40 -31 -32 -10 4 11 1 13 -11 9 -77 -28 -281 -286 -270
-341 3 -13 10 -7 31 23 41 62 120 146 104 113 -6 -16 -15 -28 -19 -28 -9 0
-88 -110 -88 -122 0 -5 6 -6 13 -1 6 4 18 8 25 9 20 3 80 52 92 75 6 11 8 24
5 29 -3 6 -2 10 4 10 6 0 17 21 25 48 8 26 15 37 15 26 1 -12 -6 -38 -15 -59
-8 -20 -13 -39 -11 -41 2 -2 32 19 68 46 75 59 135 100 146 100 4 0 -9 -12
-30 -27 -20 -14 -37 -32 -37 -38 0 -7 -17 -20 -38 -29 -22 -10 -56 -34 -78
-55 -21 -20 -58 -49 -81 -64 -23 -16 -49 -38 -60 -49 -18 -20 -17 -20 22 -13
22 4 38 6 35 4 -3 -2 -16 -13 -29 -24 -14 -11 -22 -15 -18 -9 4 7 -5 11 -23
11 -17 0 -28 -3 -25 -5 3 -3 0 -11 -6 -19 -9 -10 -8 -13 1 -13 8 0 4 -8 -8
-19 -38 -32 -24 -54 19 -30 11 6 25 8 32 6 7 -2 -8 -10 -32 -18 -53 -16 -75
-56 -65 -119 4 -22 9 -40 11 -40 3 0 16 9 30 20 39 30 41 15 3 -17 -30 -25
-60 -77 -60 -103 0 -6 20 4 45 22 61 45 115 79 115 74 0 -5 -137 -115 -163
-131 -9 -5 -19 -23 -23 -38 l-7 -29 44 27 c24 16 60 40 79 55 19 15 51 32 71
39 20 6 50 22 68 36 18 13 65 33 105 45 79 24 175 78 205 115 10 14 25 45 32
70 11 37 17 45 32 41 16 -4 18 0 14 24 -5 25 -4 27 15 22 18 -4 20 -2 14 14
-5 10 -14 44 -21 74 -8 30 -23 77 -35 104 -11 27 -18 51 -16 54 6 6 66 -124
66 -143 0 -7 5 -17 10 -20 7 -4 9 2 7 17 -2 12 -2 17 0 10 3 -7 10 -11 16 -8
7 3 20 9 30 12 31 11 18 21 -23 18 -22 -1 -40 0 -40 2 0 3 16 18 35 35 35 31
43 56 26 87 -5 10 -6 33 -1 52 l8 35 2 -40 c1 -31 3 -36 10 -20 6 17 8 14 11
-15 4 -32 5 -29 19 30 l15 64 6 -44 c4 -28 2 -48 -5 -52 -6 -4 -8 -9 -5 -13 3
-3 13 3 23 13 17 20 17 21 -9 177 -2 17 2 10 9 -15 8 -25 17 -66 21 -93 7 -56
10 -55 99 24 33 30 57 48 55 42 -2 -6 -34 -38 -72 -72 -37 -33 -66 -61 -65
-62 2 0 27 -3 55 -5 49 -3 53 -2 59 20 3 14 3 35 -1 48 -10 32 1 19 24 -27
l18 -37 6 51 c3 28 11 59 16 69 8 13 9 8 4 -18 -4 -19 -7 -44 -6 -55 1 -11 2
-39 3 -63 2 -33 6 -42 17 -38 8 3 17 6 20 6 3 0 0 7 -7 15 -11 13 -10 14 4 9
10 -4 26 1 39 13 23 20 85 61 125 82 40 21 23 4 -33 -33 -72 -49 -76 -57 -21
-50 31 5 46 3 46 -5 0 -6 -18 -11 -43 -11 -55 0 -132 -38 -132 -66 0 -14 9
-21 35 -25 l35 -6 -37 -2 c-36 -1 -37 -2 -28 -27 6 -15 8 -42 4 -60 -4 -21 -2
-40 6 -49 9 -10 9 -15 1 -15 -14 0 -15 -57 0 -65 7 -5 8 -29 4 -71 -7 -58 -6
-64 11 -64 14 0 15 -3 6 -8 -7 -5 -15 -33 -19 -63 l-6 -54 27 24 c14 14 26 30
26 36 0 6 7 20 16 31 13 16 15 16 10 2 -7 -24 4 -22 37 8 18 15 27 30 23 40
-5 12 -2 15 11 10 10 -4 26 3 45 21 20 19 28 22 28 12 0 -9 -11 -26 -25 -39
-14 -13 -25 -27 -25 -32 0 -5 11 -26 25 -48 14 -22 25 -48 25 -57 -1 -11 -11
-1 -27 25 -27 46 -40 51 -24 9 6 -14 7 -42 4 -63 l-6 -36 26 17 c24 15 27 16
27 1 0 -8 -12 -22 -27 -30 -16 -8 -39 -26 -53 -41 l-25 -27 35 4 c19 3 43 8
53 13 13 6 17 2 17 -15 0 -14 -18 -40 -47 -67 -37 -35 -44 -46 -32 -54 21 -13
28 -11 54 16 l25 24 0 -76 c0 -59 -4 -81 -17 -96 -17 -19 -17 -20 0 -14 16 6
18 1 15 -50 l-3 -58 -67 -25 c-37 -14 -91 -42 -120 -61 -29 -20 -82 -50 -118
-67 -100 -49 -292 -246 -365 -375 -16 -29 -45 -73 -62 -99 -23 -32 -29 -48
-20 -51 6 -3 0 -6 -14 -6 -15 -1 -37 -9 -50 -19 -13 -10 -37 -23 -53 -30 l-29
-13 40 -42 c22 -23 47 -55 57 -70 15 -25 20 -27 34 -15 15 11 15 11 5 -3 -10
-13 -10 -19 3 -35 8 -10 13 -14 10 -8 -5 10 62 49 71 41 2 -2 -10 -10 -27 -17
-16 -7 -30 -15 -30 -19 0 -4 27 -7 59 -8 48 -2 67 3 95 22 19 13 33 18 30 11
-3 -7 -16 -19 -29 -26 -31 -17 -25 -25 29 -39 25 -6 48 -16 52 -22 4 -7 0 -9
-12 -6 -11 3 -36 9 -56 13 -21 3 -38 10 -38 14 0 4 -19 4 -42 0 -24 -5 -47 -6
-52 -3 -5 4 -6 1 -2 -5 4 -7 14 -12 22 -12 8 0 12 -4 9 -10 -3 -5 1 -23 10
-39 8 -17 15 -35 15 -41 0 -18 -49 -62 -62 -54 -8 5 -9 2 -5 -10 6 -14 3 -15
-13 -6 -26 14 -27 10 -35 -110 -7 -114 -9 -130 -20 -153 -8 -19 20 -144 37
-162 4 -5 24 -8 43 -6 37 3 58 -11 69 -46 6 -18 1 -21 -39 -27 -50 -8 -53 -15
-30 -69 12 -29 13 -42 3 -62 -14 -32 -21 -31 -47 1 -18 23 -21 24 -22 8 -4
-54 2 -92 36 -231 l37 -153 354 0 354 0 0 1800 0 1800 -258 0 -258 0 -42 -32z
m65 -90 c-3 -8 -6 -5 -6 6 -1 11 2 17 5 13 3 -3 4 -12 1 -19z m233 -58 c0 -5
-5 -10 -11 -10 -5 0 -7 5 -4 10 3 6 8 10 11 10 2 0 4 -4 4 -10z m-743 -162
c-3 -8 -6 -5 -6 6 -1 11 2 17 5 13 3 -3 4 -12 1 -19z m-107 -173 c-24 -25 -46
-45 -49 -45 -3 0 15 20 39 45 24 25 46 45 49 45 3 0 -15 -20 -39 -45z m1093
18 c-7 -2 -19 -2 -25 0 -7 3 -2 5 12 5 14 0 19 -2 13 -5z m-458 -1943 c3 -5 2
-10 -4 -10 -5 0 -13 5 -16 10 -3 6 -2 10 4 10 5 0 13 -4 16 -10z"/>
<path d="M3722 3527 c-9 -11 -10 -17 -2 -22 15 -9 23 -1 18 21 -3 15 -4 16
-16 1z"/>
<path d="M4377 3233 c-4 -3 -7 -15 -7 -27 0 -15 3 -17 12 -8 16 16 35 15 35
-2 0 -8 -6 -12 -13 -9 -17 6 -24 -9 -17 -35 5 -19 8 -20 21 -10 15 13 42 69
42 88 0 11 -63 14 -73 3z"/>
<path d="M4471 3227 c1 -7 -3 -25 -9 -40 -16 -37 -15 -39 6 -28 39 22 53 37
47 53 -7 19 -46 32 -44 15z"/>
<path d="M4345 3220 c3 -5 8 -10 11 -10 2 0 4 5 4 10 0 6 -5 10 -11 10 -5 0
-7 -4 -4 -10z"/>
<path d="M4326 3183 c-6 -14 -5 -15 5 -6 7 7 10 15 7 18 -3 3 -9 -2 -12 -12z"/>
<path d="M3221 3117 c-29 -61 -32 -74 -23 -103 8 -26 7 -34 -4 -36 -10 -2 -8
-11 11 -33 l24 -30 13 33 c7 17 19 32 28 32 13 0 13 1 0 10 -8 5 -10 10 -4 10
6 0 16 19 21 43 l11 42 1 -50 c2 -46 3 -49 16 -31 8 11 15 31 15 45 0 25 -51
125 -67 134 -5 2 -23 -27 -42 -66z"/>
<path d="M3309 3133 c18 -34 39 -58 45 -52 11 10 -5 37 -31 54 -23 16 -24 15
-14 -2z"/>
<path d="M4350 3132 c0 -12 5 -22 11 -22 5 0 7 -5 3 -12 -4 -7 -3 -8 4 -4 9 5
9 13 1 29 -17 32 -19 33 -19 9z"/>
<path d="M4474 3125 c-4 -8 -17 -15 -31 -15 -14 0 -23 -4 -21 -9 5 -16 99
-111 109 -111 10 0 13 109 3 134 -8 20 -53 21 -60 1z"/>
<path d="M3407 3084 c-4 -4 -7 -14 -7 -23 0 -11 3 -12 11 -4 6 6 10 16 7 23
-2 6 -7 8 -11 4z"/>
<path d="M4236 3071 c-10 -10 -13 -22 -8 -25 5 -3 14 6 20 19 14 30 11 31 -12
6z"/>
<path d="M4330 3079 c0 -5 5 -7 10 -4 6 3 10 8 10 11 0 2 -4 4 -10 4 -5 0 -10
-5 -10 -11z"/>
<path d="M4291 3064 c0 -11 3 -14 6 -6 3 7 2 16 -1 19 -3 4 -6 -2 -5 -13z"/>
<path d="M4350 3044 c-17 -15 -28 -30 -23 -34 12 -10 93 -29 93 -21 0 20 -22
81 -30 81 -5 0 -23 -12 -40 -26z"/>
<path d="M4435 3030 c9 -31 20 -43 33 -39 6 2 -1 17 -15 34 -25 28 -25 28 -18
5z"/>
<path d="M3396 3015 c-3 -8 -1 -15 4 -15 6 0 10 7 10 15 0 8 -2 15 -4 15 -2 0
-6 -7 -10 -15z"/>
<path d="M4320 2970 c-13 -8 -12 -10 3 -10 9 0 17 -4 17 -9 0 -5 -19 -8 -43
-6 -39 2 -45 -1 -65 -31 -12 -19 -22 -38 -22 -44 0 -11 -88 -76 -180 -133 -34
-21 -60 -40 -58 -43 8 -7 112 32 169 65 34 19 69 49 88 77 18 25 36 43 38 40
3 -3 1 -11 -4 -18 -6 -7 -13 -24 -16 -38 -8 -35 32 -62 99 -68 51 -4 54 -3 66
24 6 16 23 41 36 56 13 14 22 32 19 40 -4 9 -6 7 -6 -4 -1 -26 -28 -22 -37 5
-4 12 -6 37 -6 55 1 34 -7 39 -38 22 -13 -7 -21 -7 -25 0 -3 5 3 10 14 10 12
0 21 5 21 10 0 13 -50 13 -70 0z m30 -50 c0 -5 -2 -10 -4 -10 -3 0 -8 5 -11
10 -3 6 -1 10 4 10 6 0 11 -4 11 -10z"/>
<path d="M4470 2960 c0 -6 8 -25 17 -43 l18 -32 3 28 c3 28 -12 57 -29 57 -5
0 -9 -5 -9 -10z"/>
<path d="M3137 2902 c-33 -70 -33 -76 -4 -61 29 16 58 49 51 60 -3 5 2 6 10 3
9 -3 16 -2 16 2 -1 10 -35 54 -42 54 -3 0 -17 -26 -31 -58z"/>
<path d="M3396 2899 c-18 -17 -18 -18 3 -12 24 6 35 19 24 26 -5 2 -16 -4 -27
-14z"/>
<path d="M4520 2875 c0 -14 5 -25 10 -25 6 0 10 11 10 25 0 14 -4 25 -10 25
-5 0 -10 -11 -10 -25z"/>
<path d="M3467 2883 c-10 -9 -9 -23 2 -23 5 0 11 7 15 15 5 15 -5 20 -17 8z"/>
<path d="M3514 2855 c-4 -8 -3 -23 1 -32 6 -16 8 -15 20 7 7 14 11 28 9 32 -8
13 -24 9 -30 -7z"/>
<path d="M3467 2814 c-17 -23 -17 -27 -3 -56 9 -17 16 -36 16 -43 0 -6 6 -20
14 -31 14 -18 15 -17 31 20 16 37 16 41 -7 87 -12 27 -25 49 -28 49 -3 0 -13
-12 -23 -26z"/>
<path d="M4479 2828 c-1 -7 -1 -17 0 -21 1 -5 -3 -6 -9 -2 -5 3 -13 -2 -16
-12 -3 -10 -10 -26 -15 -35 -12 -23 13 -25 31 -3 7 8 21 15 31 15 23 0 23 3 4
40 -17 32 -24 37 -26 18z"/>
<path d="M3180 2819 c-8 -4 -36 -16 -62 -26 -53 -20 -63 -34 -47 -65 6 -11 8
-34 5 -49 -5 -27 -4 -29 14 -19 11 6 25 20 31 33 7 12 22 29 34 39 39 30 60
106 25 87z"/>
<path d="M3403 2774 c-3 -8 -3 -18 1 -21 3 -4 6 2 6 13 0 16 2 16 10 4 5 -9 5
-19 -2 -27 -7 -8 -7 -13 0 -13 14 0 35 27 30 41 -6 18 -38 20 -45 3z"/>
<path d="M4220 2764 c-10 -12 -8 -14 14 -14 28 0 35 14 12 23 -8 3 -20 -1 -26
-9z"/>
<path d="M3353 2748 c-4 -7 -24 -22 -43 -32 -19 -10 -43 -26 -53 -34 -34 -30
-69 -108 -83 -190 l-15 -82 26 -45 26 -44 65 44 c64 44 147 105 172 125 6 6
12 18 12 26 0 12 -4 13 -21 4 -30 -16 -34 -6 -15 35 20 42 25 44 18 8 -5 -26
-4 -27 12 -11 20 20 41 76 32 85 -3 4 -6 1 -6 -5 0 -7 -4 -12 -10 -12 -16 0
-12 28 5 32 13 3 13 6 0 32 -8 15 -15 35 -15 43 0 8 -5 11 -10 8 -6 -4 -8 -10
-5 -15 6 -10 -35 -1 -51 12 -7 5 -16 2 -24 -7 -7 -8 -17 -15 -23 -15 -5 0 -2
9 8 20 10 11 16 23 13 26 -4 3 -10 0 -15 -8z"/>
<path d="M4501 2747 c-34 -17 -36 -33 -6 -41 33 -8 45 -1 45 30 0 27 -5 29
-39 11z"/>
<path d="M4252 2730 c-12 -5 -44 -12 -70 -16 -26 -3 -49 -9 -52 -13 -12 -14
-70 -41 -70 -32 0 6 -21 1 -46 -9 -54 -24 -60 -24 -45 -6 19 23 -28 28 -65 7
-17 -10 -48 -24 -69 -31 -35 -12 -135 -76 -180 -117 -12 -10 -56 -35 -98 -56
-48 -24 -91 -55 -115 -81 -20 -24 -50 -51 -67 -61 -39 -24 -84 -65 -96 -88
-10 -18 15 -54 118 -166 40 -44 42 -45 60 -28 11 9 24 17 29 17 5 0 18 7 29
15 18 15 18 16 -15 46 l-35 30 48 -31 c54 -36 61 -26 26 41 -11 22 -18 46 -16
52 2 6 15 -14 30 -45 l26 -56 63 23 c67 24 263 119 288 140 8 7 24 15 35 18
11 3 39 13 62 21 23 8 68 16 101 17 55 2 59 3 54 23 -5 17 -1 16 20 -9 26 -30
26 -30 48 -10 18 16 23 17 30 5 10 -17 13 -11 26 55 l8 40 4 -37 c2 -21 7 -38
11 -38 18 0 32 30 25 52 -6 20 -5 21 8 10 19 -15 55 -3 79 26 9 11 22 21 29
24 13 4 20 67 8 74 -4 3 -8 -4 -8 -15 0 -18 -2 -19 -30 -5 -42 22 -50 39 -14
31 29 -7 29 -7 7 9 -13 9 -23 21 -23 26 0 19 -53 73 -69 70 -13 -2 -13 -1 -2
6 11 8 8 17 -15 46 -31 38 -36 40 -72 26z m-286 -245 c3 -14 3 -32 0 -41 -10
-27 -31 -9 -34 29 -2 28 1 37 12 37 9 0 18 -11 22 -25z m484 5 c12 -8 11 -10
-7 -10 -13 0 -23 5 -23 10 0 13 11 13 30 0z"/>
<path d="M4675 2707 c-25 -26 -30 -39 -30 -79 0 -26 4 -48 8 -48 4 0 24 17 42
38 30 32 34 42 29 72 -9 50 -15 52 -49 17z"/>
<path d="M4359 2711 c21 -16 29 -17 50 -7 l25 11 -30 6 c-16 4 -38 7 -49 8
-18 0 -18 -1 4 -18z"/>
<path d="M4421 2695 l-24 -13 34 -21 c43 -27 83 -24 87 5 2 16 -4 23 -22 28
-13 3 -30 8 -38 10 -7 2 -24 -2 -37 -9z"/>
<path d="M4390 2662 c0 -12 90 -93 92 -82 0 5 1 14 2 20 1 5 -20 23 -46 39
-27 17 -48 27 -48 23z"/>
<path d="M4584 2615 c-16 -13 -17 -16 -4 -25 23 -15 30 -12 30 15 0 29 0 29
-26 10z"/>
<path d="M4706 2615 c-3 -8 -1 -15 4 -15 6 0 10 7 10 15 0 8 -2 15 -4 15 -2 0
-6 -7 -10 -15z"/>
<path d="M2828 2603 c-40 -17 -47 -27 -24 -36 10 -4 16 -32 21 -92 6 -66 11
-88 25 -95 25 -14 52 57 39 103 -8 29 -5 72 8 120 5 21 -17 21 -69 0z"/>
<path d="M4580 2556 c0 -9 5 -16 10 -16 6 0 10 4 10 9 0 6 -4 13 -10 16 -5 3
-10 -1 -10 -9z"/>
<path d="M4655 2560 c-3 -6 1 -7 9 -4 18 7 21 14 7 14 -6 0 -13 -4 -16 -10z"/>
<path d="M4701 2480 c-39 -20 -55 -43 -46 -71 6 -18 10 -15 37 23 17 24 36 46
42 50 23 15 -1 13 -33 -2z"/>
<path d="M4483 2399 c-26 -11 -43 -25 -43 -35 0 -11 5 -14 16 -10 9 3 27 6 40
6 16 0 24 6 24 17 0 14 2 14 20 -2 18 -16 20 -16 20 -2 0 10 5 17 11 17 6 0 9
-7 5 -15 -3 -9 0 -15 9 -15 8 0 15 7 15 15 0 8 -4 15 -10 15 -5 0 -10 8 -10
18 -1 15 -2 15 -15 -2 -14 -18 -16 -18 -27 -4 -12 14 -17 14 -55 -3z"/>
<path d="M4686 2381 c-4 -7 -5 -15 -2 -18 9 -9 19 4 14 18 -4 11 -6 11 -12 0z"/>
<path d="M2792 2345 c0 -16 2 -22 5 -12 2 9 2 23 0 30 -3 6 -5 -1 -5 -18z"/>
<path d="M2834 2336 c1 -17 6 -37 11 -45 7 -12 10 -11 16 5 14 34 10 61 -9 66
-15 4 -18 0 -18 -26z"/>
<path d="M2896 2313 c-8 -54 -7 -73 4 -73 14 0 42 58 29 62 -5 2 -11 11 -13
20 -4 33 -13 28 -20 -9z"/>
<path d="M4156 2263 c-5 -11 -2 -14 10 -9 8 3 20 6 25 6 18 0 9 16 -10 17 -11
1 -22 -5 -25 -14z"/>
<path d="M4350 2271 c0 -5 3 -16 6 -25 6 -16 24 -12 24 5 0 6 -6 7 -12 3 -9
-5 -9 -2 1 9 12 15 11 17 -3 17 -9 0 -16 -4 -16 -9z"/>
<path d="M4266 2241 c-18 -7 -18 -8 -2 -14 29 -11 46 -8 46 8 0 16 -14 18 -44
6z"/>
<path d="M3953 2219 c-35 -10 -57 -37 -69 -83 l-7 -29 43 7 c58 9 177 62 159
70 -11 5 -11 7 -1 12 21 10 13 21 -16 21 -15 0 -39 2 -52 5 -14 3 -40 2 -57
-3z"/>
<path d="M2960 2211 c0 -6 4 -13 10 -16 6 -3 7 1 4 9 -7 18 -14 21 -14 7z"/>
<path d="M4537 2194 c-16 -14 -26 -28 -24 -31 9 -8 57 29 57 43 0 18 -1 18
-33 -12z"/>
<path d="M4156 2186 l-17 -26 48 4 c26 2 50 5 53 7 3 1 11 3 19 3 26 2 24 26
-2 26 -13 0 -38 3 -54 6 -24 5 -33 1 -47 -20z"/>
<path d="M3825 2151 c-22 -10 -47 -26 -55 -36 -14 -17 -13 -18 10 -12 14 4 32
7 41 7 15 0 55 47 47 55 -2 2 -21 -4 -43 -14z"/>
<path d="M4180 2133 c0 -5 -19 -8 -42 -8 -50 0 -63 -16 -25 -29 22 -8 30 -6
42 10 8 10 15 15 16 9 1 -5 3 -14 4 -20 3 -20 47 -85 58 -85 5 0 2 9 -8 20
-13 14 -16 28 -11 51 5 24 3 30 -8 26 -10 -4 -12 0 -9 14 3 10 0 19 -6 19 -6
0 -11 -3 -11 -7z"/>
<path d="M4042 2107 c2 -9 -1 -15 -7 -14 -5 1 -9 5 -8 9 2 4 -4 5 -12 2 -8 -4
-12 -10 -9 -16 3 -5 -2 -8 -12 -7 -24 3 -83 -10 -105 -24 -21 -13 -13 -54 13
-68 15 -8 18 -17 13 -39 -5 -21 0 -34 18 -54 36 -38 101 -37 152 4 21 17 42
30 47 30 4 0 26 12 49 27 39 26 39 26 21 47 -10 12 -26 33 -35 49 -12 18 -26
27 -43 27 -14 0 -39 10 -56 21 -23 17 -29 18 -26 6z m132 -103 c4 -10 1 -14
-6 -12 -15 5 -23 28 -10 28 5 0 13 -7 16 -16z m-24 -24 c0 -5 -4 -10 -10 -10
-5 0 -10 5 -10 10 0 6 5 10 10 10 6 0 10 -4 10 -10z"/>
<path d="M4240 2074 c0 -22 2 -25 15 -14 8 7 15 19 15 26 0 8 -7 14 -15 14
-10 0 -15 -10 -15 -26z"/>
<path d="M3048 1269 c-51 -23 -53 -26 -63 -91 l-7 -45 61 -7 c33 -4 85 -15
115 -26 59 -20 68 -17 79 30 5 18 -1 34 -21 60 -16 19 -34 50 -41 68 -11 27
-19 32 -45 32 -17 -1 -52 -10 -78 -21z"/>
<path d="M2860 1050 c0 -5 5 -10 11 -10 5 0 7 5 4 10 -3 6 -8 10 -11 10 -2 0
-4 -4 -4 -10z"/>
<path d="M3508 963 c-15 -34 -14 -257 0 -293 12 -28 11 -41 18 198 2 67 1 122
-1 122 -3 0 -11 -12 -17 -27z"/>
<path d="M3982 449 c2 -6 8 -10 13 -10 5 0 11 4 13 10 2 6 -4 11 -13 11 -9 0
-15 -5 -13 -11z"/>
</g>
</svg>
