<?xml version="1.0" standalone="no"?>
<!DOCTYPE svg PUBLIC "-//W3C//DTD SVG 20010904//EN"
 "http://www.w3.org/TR/2001/REC-SVG-20010904/DTD/svg10.dtd">
<svg version="1.0" xmlns="http://www.w3.org/2000/svg"
 width="480.000000pt" height="360.000000pt" viewBox="0 0 480.000000 360.000000"
 preserveAspectRatio="xMidYMid meet">
<metadata>
Created by potrace 1.16, written by Peter Selinger 2001-2019
</metadata>
<rect width="1" height="360" fill="#000000"/>
<rect x="479" width="1" height="360" fill="#000000"/>
<rect width="480" height="1" fill="#000000"/>
<rect y="359" width="480" height="1" fill="#000000"/>
<g transform="translate(0.000000,360.000000) scale(0.100000,-0.100000)"
fill="#000000" stroke="none">
<path d="M1597 3563 c13 -62 6 -312 -11 -410 -18 -98 -96 -322 -127 -362 -11
-13 -19 -28 -19 -33 0 -17 -102 -160 -164 -231 -57 -65 -130 -129 -234 -206
-118 -87 -349 -183 -509 -211 -120 -21 -418 -12 -511 16 l-22 6 0 -1066 0
-1066 1315 0 1315 0 0 38 c0 40 34 252 51 317 6 22 33 106 60 187 55 164 87
293 118 478 12 69 33 188 48 264 18 99 23 144 16 155 -6 9 -14 41 -17 71 -13
106 -15 110 -57 127 -93 37 -114 120 -59 229 16 32 30 65 30 72 0 17 -30 11
-172 -34 -85 -28 -112 -33 -128 -24 -11 6 -20 18 -20 28 0 9 -4 23 -9 31 -8
12 -13 12 -33 -1 -24 -16 -25 -15 -41 12 -16 26 -22 28 -99 32 -67 4 -114 15
-248 62 -91 31 -189 63 -218 71 -30 7 -61 20 -70 28 -40 35 -84 49 -131 42
l-46 -7 20 22 20 22 -38 -7 c-42 -8 -49 4 -14 28 14 10 17 15 7 14 -55 -2 -65
13 -25 39 22 15 31 15 102 0 44 -9 112 -33 158 -55 78 -39 175 -67 320 -90 39
-7 91 -19 116 -28 64 -22 136 -11 149 23 10 25 24 31 35 14 11 -17 42 -11 48
10 8 32 33 34 125 12 102 -25 260 -37 282 -23 12 8 11 13 -5 31 -16 18 -17 23
-5 30 8 6 18 10 23 10 4 0 7 6 7 14 0 10 -10 13 -37 9 -38 -5 -38 -4 -67 54
-16 32 -36 66 -45 76 -13 16 -13 19 7 33 29 20 28 29 -8 44 -38 16 -60 46 -60
83 0 15 -4 26 -9 22 -8 -4 -9 17 -2 57 0 3 16 27 35 51 l35 45 -29 74 c-16 40
-29 83 -30 95 0 30 30 45 69 33 69 -20 223 -83 257 -106 19 -13 47 -27 62 -30
46 -11 85 -35 130 -78 71 -68 87 -115 102 -296 6 -73 15 -120 30 -154 13 -29
25 -81 29 -129 8 -87 1 -77 116 -171 45 -37 47 -41 42 -78 -3 -22 -1 -53 4
-70 5 -20 5 -36 -1 -44 -7 -8 2 -35 31 -89 l42 -77 14 -197 c8 -111 21 -218
30 -246 8 -27 19 -83 23 -123 6 -56 13 -79 30 -97 21 -22 21 -25 6 -31 -10 -4
-25 1 -36 11 -26 23 -25 9 0 -33 24 -38 24 -42 7 -42 -17 0 -48 33 -64 68 -6
15 -12 20 -12 12 0 -8 10 -39 24 -67 22 -48 22 -53 7 -53 -10 0 -23 5 -30 12
-9 9 -12 9 -12 0 0 -7 -7 -12 -16 -12 -15 0 -53 75 -69 135 -4 17 -10 24 -12
18 -11 -31 79 -260 216 -548 44 -93 97 -223 118 -287 l38 -117 453 -1 452 0 0
1800 0 1800 -1605 0 -1606 0 8 -37z"/>
<path d="M3445 1538 c-16 -164 -5 -348 27 -446 31 -93 43 -68 43 86 -1 91 -7
158 -23 236 -12 59 -23 126 -24 147 -2 60 -16 46 -23 -23z"/>
</g>
</svg>
