<?xml version="1.0" standalone="no"?>
<!DOCTYPE svg PUBLIC "-//W3C//DTD SVG 20010904//EN"
 "http://www.w3.org/TR/2001/REC-SVG-20010904/DTD/svg10.dtd">
<svg version="1.0" xmlns="http://www.w3.org/2000/svg"
 width="480.000000pt" height="360.000000pt" viewBox="0 0 480.000000 360.000000"
 preserveAspectRatio="xMidYMid meet">
<metadata>
Created by potrace 1.16, written by Peter Selinger 2001-2019
</metadata>
<rect width="1" height="360" fill="#000000"/>
<rect x="479" width="1" height="360" fill="#000000"/>
<rect width="480" height="1" fill="#000000"/>
<rect y="359" width="480" height="1" fill="#000000"/>
<g transform="translate(0.000000,360.000000) scale(0.100000,-0.100000)"
fill="#000000" stroke="none">
<path d="M0 1800 l0 -1800 824 0 824 0 6 28 c2 15 8 71 11 125 l7 97 -51 56
c-67 73 -83 105 -88 179 -4 53 -1 67 26 119 17 32 31 71 31 87 0 16 9 38 22
51 l21 21 -27 22 c-15 12 -28 32 -30 46 -16 97 -16 115 -2 134 12 17 11 23
-10 51 -28 36 -30 50 -9 70 8 8 17 31 21 52 9 50 31 74 55 62 26 -14 33 2 34
82 2 79 17 103 75 113 37 6 37 7 44 61 3 30 9 103 12 162 7 150 10 166 36 177
17 8 29 31 49 95 28 92 78 199 102 219 10 7 14 25 12 45 -1 18 -6 197 -10 397
-7 358 -7 365 15 444 24 85 55 155 69 155 5 0 15 -7 22 -17 12 -14 15 -11 20
28 3 24 6 133 7 242 l3 197 -1061 0 -1060 0 0 -1800z"/>
<path d="M2108 2378 c-2 -398 -1 -727 4 -733 4 -5 8 43 8 105 1 112 1 116 30
154 21 28 30 51 30 78 0 45 -23 105 -48 125 -15 12 -14 13 16 8 28 -6 32 -4
32 14 0 20 -7 29 -42 54 -16 11 -17 26 -8 192 6 99 11 293 13 430 2 218 0 253
-14 273 -16 22 -17 -26 -21 -700z"/>
<path d="M2101 1614 c0 -11 3 -14 6 -6 3 7 2 16 -1 19 -3 4 -6 -2 -5 -13z"/>
<path d="M2075 1580 c-3 -5 -15 -10 -26 -10 -19 0 -39 -34 -39 -66 0 -11 9 -8
33 10 19 15 39 26 45 26 9 0 12 -194 12 -770 l0 -770 322 0 c297 0 376 6 262
20 -42 5 -47 8 -59 43 -7 21 -38 65 -69 97 l-56 59 0 78 c0 47 7 99 16 127 22
63 14 143 -20 201 -32 53 -33 64 -4 39 21 -19 21 -19 14 6 -20 73 -19 79 3 73
28 -7 27 5 -5 33 l-25 24 32 60 c25 47 37 60 55 60 13 0 24 1 24 3 0 1 -11 24
-24 50 -27 52 -25 77 6 77 11 0 18 3 16 8 -20 44 -60 111 -72 121 -11 10 -16
31 -16 72 0 114 -32 143 -128 116 l-57 -17 -29 33 c-75 85 -142 148 -163 153
-16 4 -23 13 -23 30 0 24 -14 32 -25 14z m378 -980 c36 -42 50 -90 37 -125
-10 -25 -12 -26 -28 -12 -9 9 -40 21 -67 28 -28 6 -55 13 -62 15 -9 2 -8 14 4
43 16 42 33 54 33 25 0 -27 24 -9 34 24 11 40 18 40 49 2z"/>
<path d="M1584 548 c-26 -51 -14 -112 32 -159 21 -21 41 -39 45 -39 4 0 9 28
11 63 4 58 2 66 -30 115 -19 28 -36 52 -38 52 -2 0 -11 -14 -20 -32z"/>
</g>
</svg>
