<?xml version="1.0" standalone="no"?>
<!DOCTYPE svg PUBLIC "-//W3C//DTD SVG 20010904//EN"
 "http://www.w3.org/TR/2001/REC-SVG-20010904/DTD/svg10.dtd">
<svg version="1.0" xmlns="http://www.w3.org/2000/svg"
 width="480.000000pt" height="360.000000pt" viewBox="0 0 480.000000 360.000000"
 preserveAspectRatio="xMidYMid meet">
<metadata>
Created by potrace 1.16, written by Peter Selinger 2001-2019
</metadata>
<rect width="1" height="360" fill="#000000"/>
<rect x="479" width="1" height="360" fill="#000000"/>
<rect width="480" height="1" fill="#000000"/>
<rect y="359" width="480" height="1" fill="#000000"/>
<g transform="translate(0.000000,360.000000) scale(0.100000,-0.100000)"
fill="#000000" stroke="none">
<path d="M0 1800 l0 -1800 2400 0 2400 0 0 1800 0 1800 -2400 0 -2400 0 0
-1800z m2716 370 c32 -6 91 -20 131 -32 69 -20 72 -22 88 -63 21 -57 22 -199
1 -290 -27 -112 -57 -204 -75 -226 l-16 -21 -80 21 c-44 11 -130 25 -191 32
-132 14 -167 9 -388 -57 -85 -25 -182 -47 -224 -51 l-75 -6 8 24 c4 13 8 38 9
54 0 25 40 69 264 290 145 143 289 277 319 298 48 32 63 37 112 37 32 0 84 -5
117 -10z"/>
</g>
</svg>
