<?xml version="1.0" standalone="no"?>
<!DOCTYPE svg PUBLIC "-//W3C//DTD SVG 20010904//EN"
 "http://www.w3.org/TR/2001/REC-SVG-20010904/DTD/svg10.dtd">
<svg version="1.0" xmlns="http://www.w3.org/2000/svg"
 width="480.000000pt" height="360.000000pt" viewBox="0 0 480.000000 360.000000"
 preserveAspectRatio="xMidYMid meet">
<metadata>
Created by potrace 1.16, written by Peter Selinger 2001-2019
</metadata>
<rect width="1" height="360" fill="#000000"/>
<rect x="479" width="1" height="360" fill="#000000"/>
<rect width="480" height="1" fill="#000000"/>
<rect y="359" width="480" height="1" fill="#000000"/>
<g transform="translate(0.000000,360.000000) scale(0.100000,-0.100000)"
fill="#000000" stroke="none">
<path d="M2950 3494 c-125 -21 -218 -58 -226 -90 -7 -28 -12 -29 -42 -8 -34
23 -201 17 -230 -9 -20 -18 -20 -18 -26 1 -9 27 -63 51 -159 70 -73 14 -88 14
-176 -1 -150 -26 -172 -36 -199 -90 -14 -27 -20 -52 -15 -59 4 -7 6 -20 5 -30
-2 -9 2 -19 8 -23 5 -3 10 -21 10 -40 0 -19 4 -36 9 -39 5 -3 12 -23 15 -43
11 -68 14 -77 39 -134 37 -79 46 -85 103 -63 39 15 47 15 55 3 14 -22 10 -116
-6 -156 -30 -72 -10 -133 43 -133 12 0 22 -6 22 -12 0 -7 14 -42 32 -78 25
-52 32 -80 34 -140 2 -45 8 -74 14 -73 5 2 10 -4 10 -12 0 -8 -9 -15 -19 -15
-30 0 -34 -17 -11 -50 l21 -29 -41 -21 c-52 -26 -117 -85 -136 -122 -8 -16
-23 -73 -33 -127 -21 -113 -24 -121 -55 -121 -37 0 -86 -21 -96 -40 -16 -29
-12 -57 14 -106 l24 -46 -40 -111 c-43 -122 -137 -322 -230 -491 l-60 -108 26
-72 25 -72 -25 -79 c-22 -69 -24 -85 -14 -118 11 -39 37 -61 82 -72 22 -6 28
-15 38 -58 21 -89 61 -211 80 -242 18 -30 18 -31 -16 -130 l-33 -100 716 -3
c394 -1 717 -1 719 0 1 2 -29 94 -66 204 -37 111 -85 262 -105 335 -20 74 -45
157 -55 186 -14 37 -16 54 -8 59 18 11 35 -23 53 -104 32 -142 98 -313 173
-443 11 -20 51 -82 88 -138 l67 -101 124 0 c67 0 123 3 123 8 0 4 -17 72 -38
152 -36 134 -38 148 -24 169 13 19 14 37 3 126 -6 57 -16 117 -21 132 -18 58
-20 82 -7 95 7 7 23 27 35 45 l22 31 -134 272 c-133 269 -135 274 -161 407
-29 144 -28 165 11 222 13 19 24 42 24 50 0 24 -33 40 -81 41 -56 0 -54 -5
-69 160 -14 159 -16 163 -66 210 -44 40 -53 66 -37 106 6 16 7 16 14 -2 7 -18
15 76 10 116 -1 8 -4 33 -7 55 l-5 40 20 -40 21 -40 -6 45 c-3 25 -14 103 -24
174 l-19 128 21 29 c14 18 18 34 13 46 -4 10 -11 47 -15 83 -5 36 -11 79 -15
97 l-7 32 54 -6 c49 -5 54 -3 65 18 35 71 47 110 60 187 3 18 9 35 14 38 5 3
9 20 9 39 0 19 4 36 9 39 15 10 21 78 8 100 -6 12 -10 24 -9 28 4 15 -44 37
-103 47 -78 12 -183 20 -215 15z m-4 -1929 c14 -21 15 -51 11 -222 -3 -109 -7
-211 -9 -228 -5 -35 -28 -157 -37 -199 l-7 -30 -22 38 c-17 29 -20 41 -11 52
6 7 7 19 3 25 -10 17 -19 162 -18 304 0 102 5 132 28 203 15 45 31 82 36 82 5
0 17 -11 26 -25z"/>
</g>
</svg>
