<?xml version="1.0" standalone="no"?>
<!DOCTYPE svg PUBLIC "-//W3C//DTD SVG 20010904//EN"
 "http://www.w3.org/TR/2001/REC-SVG-20010904/DTD/svg10.dtd">
<svg version="1.0" xmlns="http://www.w3.org/2000/svg"
 width="480.000000pt" height="360.000000pt" viewBox="0 0 480.000000 360.000000"
 preserveAspectRatio="xMidYMid meet">
<metadata>
Created by potrace 1.16, written by Peter Selinger 2001-2019
</metadata>
<rect width="1" height="360" fill="#000000"/>
<rect x="479" width="1" height="360" fill="#000000"/>
<rect width="480" height="1" fill="#000000"/>
<rect y="359" width="480" height="1" fill="#000000"/>
<g transform="translate(0.000000,360.000000) scale(0.100000,-0.100000)"
fill="#000000" stroke="none">
<path d="M2387 1412 c-10 -10 -17 -23 -17 -29 0 -5 -11 -15 -24 -21 -13 -6
-34 -30 -47 -53 -17 -30 -41 -53 -80 -76 -104 -60 -147 -136 -136 -235 8 -68
52 -131 133 -188 66 -48 156 -90 192 -90 21 0 99 28 167 61 59 28 123 89 148
141 21 43 22 136 3 181 -16 38 -96 114 -152 142 -49 25 -51 28 -59 88 -9 62
-38 97 -80 97 -18 0 -39 -8 -48 -18z"/>
</g>
</svg>
