<?xml version="1.0" standalone="no"?>
<!DOCTYPE svg PUBLIC "-//W3C//DTD SVG 20010904//EN"
 "http://www.w3.org/TR/2001/REC-SVG-20010904/DTD/svg10.dtd">
<svg version="1.0" xmlns="http://www.w3.org/2000/svg"
 width="480.000000pt" height="360.000000pt" viewBox="0 0 480.000000 360.000000"
 preserveAspectRatio="xMidYMid meet">
<metadata>
Created by potrace 1.16, written by Peter Selinger 2001-2019
</metadata>
<rect width="1" height="360" fill="#000000"/>
<rect x="479" width="1" height="360" fill="#000000"/>
<rect width="480" height="1" fill="#000000"/>
<rect y="359" width="480" height="1" fill="#000000"/>
<g transform="translate(0.000000,360.000000) scale(0.100000,-0.100000)"
fill="#000000" stroke="none">
<path d="M4010 3588 c1 -7 7 -42 15 -78 21 -97 20 -104 -25 -134 -22 -14 -52
-37 -67 -51 -16 -14 -46 -38 -67 -55 -155 -120 -234 -233 -303 -430 -9 -25
-19 -50 -24 -55 -21 -27 -50 -204 -48 -290 1 -49 -1 -115 -5 -145 -3 -30 -3
-49 0 -42 15 31 24 5 24 -68 0 -80 11 -104 26 -52 l7 27 8 -35 c21 -96 36
-135 52 -132 11 2 22 -15 38 -58 12 -33 26 -60 31 -60 6 0 8 7 4 15 -3 8 -1
15 5 15 5 0 12 -7 15 -15 4 -9 15 -20 27 -26 18 -10 19 -9 14 10 -8 30 0 26
20 -11 16 -32 17 -32 22 -10 6 21 10 19 66 -38 61 -62 84 -76 64 -39 -8 15 -8
19 0 15 18 -12 13 0 -29 65 -22 34 -40 66 -40 72 0 21 95 -72 105 -103 15 -47
-44 -147 -110 -185 -16 -10 -13 -17 34 -67 33 -35 67 -61 96 -73 37 -14 47
-23 52 -46 3 -18 36 -61 85 -112 44 -45 94 -103 111 -128 18 -25 59 -69 91
-97 55 -49 61 -51 100 -46 23 4 70 18 105 31 52 21 65 23 72 12 16 -25 11 -33
-57 -79 -49 -34 -153 -121 -198 -166 -12 -11 -41 -28 -66 -38 -120 -48 -163
-75 -176 -114 -5 -18 -14 -36 -20 -41 -9 -9 -147 -25 -309 -36 -107 -7 -207
-39 -246 -78 -19 -19 -30 -42 -35 -75 -3 -26 -8 -56 -10 -66 -4 -21 -21 -36
-42 -36 -7 0 -20 -4 -30 -9 -37 -20 -189 -90 -219 -101 -30 -11 -33 -17 -33
-52 0 -28 -5 -40 -17 -44 -28 -9 -121 -53 -196 -91 -44 -22 -72 -32 -79 -25
-12 12 -48 133 -143 474 -41 147 -84 286 -95 307 -11 22 -20 45 -20 52 0 6 37
52 83 103 96 105 133 152 171 219 15 26 31 47 35 47 5 0 39 -73 76 -163 82
-199 201 -447 215 -447 24 0 8 74 -67 325 -73 244 -79 266 -110 361 -27 82
-29 93 -16 128 17 50 11 224 -11 291 -17 57 -62 106 -117 129 -34 14 -38 22
-89 158 -63 170 -76 198 -101 218 -11 9 -35 56 -53 105 -54 144 -69 173 -74
150 -2 -11 -9 -23 -15 -27 -16 -10 -12 -66 8 -124 26 -74 33 -112 24 -121 -8
-8 27 -136 65 -242 21 -56 20 -80 -1 -87 -10 -3 -28 -10 -40 -16 -12 -6 -34
-7 -50 -4 -83 21 -72 25 -176 -72 -24 -22 -57 -90 -57 -117 0 -22 26 -65 47
-78 20 -12 16 -36 -13 -70 -72 -85 -130 -265 -180 -562 -25 -146 -18 -238 46
-570 17 -88 42 -225 56 -305 14 -80 27 -153 30 -162 5 -17 74 -18 1265 -18
l1259 0 0 1800 0 1800 -395 0 c-310 0 -395 -3 -395 -12z"/>
</g>
</svg>
