<?xml version="1.0" standalone="no"?>
<!DOCTYPE svg PUBLIC "-//W3C//DTD SVG 20010904//EN"
 "http://www.w3.org/TR/2001/REC-SVG-20010904/DTD/svg10.dtd">
<svg version="1.0" xmlns="http://www.w3.org/2000/svg"
 width="480.000000pt" height="360.000000pt" viewBox="0 0 480.000000 360.000000"
 preserveAspectRatio="xMidYMid meet">
<metadata>
Created by potrace 1.16, written by Peter Selinger 2001-2019
</metadata>
<rect width="1" height="360" fill="#000000"/>
<rect x="479" width="1" height="360" fill="#000000"/>
<rect width="480" height="1" fill="#000000"/>
<rect y="359" width="480" height="1" fill="#000000"/>
<g transform="translate(0.000000,360.000000) scale(0.100000,-0.100000)"
fill="#000000" stroke="none">
<path d="M1420 3571 c0 -44 14 -45 44 -6 l27 35 -35 0 c-33 0 -36 -2 -36 -29z"/>
<path d="M1545 3588 c2 -7 16 -60 30 -118 14 -58 30 -109 35 -114 5 -5 13 5
18 25 l9 34 13 -60 c17 -85 26 -95 35 -44 l7 44 31 -90 31 -90 7 45 c4 25 8
64 8 87 1 23 5 44 11 48 10 6 16 -15 51 -170 24 -110 37 -110 38 3 1 63 20 89
22 30 1 -18 5 -44 9 -58 8 -25 8 -25 15 8 4 17 14 32 21 32 10 0 14 14 14 47
0 25 2 44 4 42 5 -5 15 -148 15 -231 1 -32 5 -58 10 -58 6 0 20 27 32 60 12
33 24 60 27 60 6 0 31 -33 32 -42 0 -5 -9 -8 -20 -8 -11 0 -20 -1 -20 -2 0 -2
9 -32 20 -68 11 -36 20 -70 20 -76 0 -14 -17 -21 -185 -74 -189 -59 -300 -116
-386 -197 -56 -54 -73 -64 -80 -53 -5 8 -40 67 -77 130 -45 75 -77 119 -95
128 -22 11 -48 10 -164 -8 -376 -55 -585 -43 -798 47 -70 29 -191 94 -262 141
l-23 14 0 -88 0 -89 68 -52 c63 -48 67 -54 67 -91 1 -37 -2 -42 -46 -67 -36
-21 -51 -39 -68 -76 -20 -46 -21 -66 -21 -297 l0 -248 40 -185 c22 -101 40
-185 40 -186 0 -8 142 -1 168 8 29 10 34 19 61 107 51 168 151 528 151 545 0
9 -19 73 -41 142 -33 102 -47 130 -70 147 -61 45 -47 48 214 47 284 -1 331 -5
335 -34 2 -15 -9 -26 -42 -44 -25 -13 -51 -31 -59 -40 -8 -9 -39 -74 -70 -146
l-55 -130 54 -273 c29 -150 56 -278 60 -284 5 -7 48 -9 138 -4 190 9 841 35
1179 46 161 5 657 10 1104 10 l812 0 10 33 c25 76 93 483 87 519 -5 28 -3 37
6 36 7 -2 13 6 14 17 0 11 6 38 12 60 6 22 13 63 17 90 8 63 24 94 26 50 0
-16 0 -51 -1 -76 -2 -58 12 -69 28 -24 7 18 23 40 36 48 17 12 25 28 29 65 3
27 13 66 21 86 l15 36 85 0 c47 0 87 -4 90 -8 3 -5 -10 -24 -29 -42 -27 -26
-42 -58 -76 -163 l-42 -130 79 -274 c43 -151 85 -285 93 -299 15 -25 21 -26
123 -30 96 -4 107 -3 112 13 3 10 14 60 26 110 18 83 20 127 20 415 -1 362 0
356 -72 399 -41 24 -43 28 -43 70 -1 44 2 47 57 88 l58 43 0 90 c0 49 -3 88
-8 86 -4 -1 -54 -30 -112 -62 -110 -63 -268 -132 -277 -122 -4 3 -1 23 5 43 6
21 16 74 23 118 16 104 31 122 52 63 l16 -43 -5 80 c-8 119 -33 379 -40 414
l-6 31 -313 0 -313 0 -6 -32 c-3 -18 -9 -101 -12 -184 -7 -165 2 -254 42 -418
13 -54 24 -101 24 -104 0 -7 -141 7 -230 22 -110 19 -114 16 -216 -164 -26
-47 -61 -104 -77 -128 l-29 -44 -82 79 c-44 44 -103 95 -131 113 -64 44 -198
102 -310 134 -48 14 -94 31 -101 37 -15 13 -9 54 11 79 7 8 16 35 20 60 4 24
13 60 20 80 11 30 12 18 7 -97 -3 -73 -2 -133 2 -133 4 0 14 17 23 38 13 30
17 34 22 19 9 -25 15 -17 82 110 30 57 57 103 62 103 4 0 7 -21 7 -47 0 -57
19 -173 29 -173 4 0 14 15 23 33 l16 32 7 -60 c12 -94 22 -97 30 -9 12 150 24
257 30 262 3 3 5 -73 5 -169 1 -172 10 -206 25 -84 10 91 15 107 30 95 9 -7
19 3 38 39 15 27 34 52 43 55 11 4 15 14 12 31 -3 13 -1 22 3 19 5 -3 9 -21 9
-40 0 -54 18 -38 69 59 25 48 49 87 52 87 3 0 23 -34 43 -75 26 -52 41 -72 51
-69 9 4 13 16 10 32 -9 59 -14 238 -7 249 5 8 28 9 81 3 62 -7 78 -5 103 10
l29 17 -58 29 c-31 16 -73 46 -93 66 l-35 38 -580 -1 c-560 -1 -579 -1 -543
-18 21 -10 41 -20 44 -23 9 -10 -71 10 -116 28 -58 24 -60 11 -2 -14 27 -12
95 -28 153 -38 132 -20 157 -33 66 -34 -91 0 -188 23 -272 65 l-69 35 -318 0
c-249 0 -316 -3 -313 -12z m585 -463 c0 -60 -3 -75 -15 -75 -10 0 -15 10 -15
28 0 21 2 24 10 12 7 -11 10 3 10 48 0 34 2 62 5 62 3 0 5 -34 5 -75z m545
-16 c4 -17 5 -31 3 -32 -1 -1 -14 -8 -26 -15 -33 -19 -38 -8 -17 38 22 48 31
50 40 9z m1015 -467 c0 -10 7 -28 16 -40 15 -22 15 -25 -3 -45 -11 -12 -32
-58 -48 -102 -15 -44 -31 -83 -34 -87 -6 -7 -96 46 -125 73 -9 8 134 192 163
209 24 14 31 12 31 -8z m-2483 -103 c43 -50 80 -96 82 -101 3 -9 -97 -107
-110 -108 -4 0 -21 40 -38 89 -18 50 -41 101 -51 114 -18 23 -18 26 -2 60 9
20 23 36 29 37 7 0 48 -41 90 -91z"/>
<path d="M2138 1409 c-349 -7 -835 -23 -1130 -35 l-148 -7 0 -34 c0 -19 9 -47
19 -62 l20 -27 -49 -156 c-41 -131 -79 -292 -118 -502 -6 -37 -11 -41 -63 -62
-72 -29 -310 -159 -511 -281 l-158 -94 0 -75 0 -74 468 0 469 0 65 68 c111
115 179 251 325 652 41 113 76 206 76 207 1 1 2 -71 2 -160 0 -89 2 -220 5
-292 3 -72 1 -208 -4 -303 l-8 -172 1002 0 1002 0 -6 37 c-28 177 -35 409 -17
572 5 51 12 95 14 97 2 2 25 -55 51 -127 102 -283 207 -479 295 -548 l39 -31
511 0 511 0 0 64 0 64 -252 140 c-247 137 -432 232 -513 263 l-41 16 -12 104
c-19 149 -96 476 -131 554 -5 11 -19 52 -32 90 -12 39 -28 82 -36 98 l-14 27
-637 -2 c-350 -1 -798 -5 -994 -9z"/>
<path d="M3850 1392 c0 -31 39 -114 56 -119 13 -4 40 57 49 110 l6 37 -56 0
c-54 0 -55 -1 -55 -28z"/>
</g>
</svg>
