<?xml version="1.0" standalone="no"?>
<!DOCTYPE svg PUBLIC "-//W3C//DTD SVG 20010904//EN"
 "http://www.w3.org/TR/2001/REC-SVG-20010904/DTD/svg10.dtd">
<svg version="1.0" xmlns="http://www.w3.org/2000/svg"
 width="480.000000pt" height="360.000000pt" viewBox="0 0 480.000000 360.000000"
 preserveAspectRatio="xMidYMid meet">
<metadata>
Created by potrace 1.16, written by Peter Selinger 2001-2019
</metadata>
<rect width="1" height="360" fill="#000000"/>
<rect x="479" width="1" height="360" fill="#000000"/>
<rect width="480" height="1" fill="#000000"/>
<rect y="359" width="480" height="1" fill="#000000"/>
<g transform="translate(0.000000,360.000000) scale(0.100000,-0.100000)"
fill="#000000" stroke="none">
<path d="M2156 1659 c-150 -22 -295 -80 -393 -157 -28 -22 -74 -76 -103 -119
-28 -43 -53 -79 -55 -81 -1 -2 -43 5 -91 14 -105 20 -414 23 -485 4 -24 -7
-57 -26 -76 -45 -29 -29 -33 -39 -33 -86 0 -30 8 -76 16 -104 9 -27 18 -66 19
-85 1 -19 13 -66 25 -105 12 -38 26 -97 32 -130 5 -33 12 -69 14 -80 2 -14 29
-33 84 -59 62 -30 88 -49 109 -80 15 -23 42 -62 60 -87 l33 -47 -41 -141 c-23
-78 -48 -153 -57 -166 -24 -37 -11 -53 14 -18 32 45 91 151 113 203 15 35 18
38 14 15 -11 -70 -45 -288 -45 -296 0 -5 464 -9 1080 -9 l1080 0 0 72 c0 76 9
80 30 13 22 -68 38 -85 80 -85 l38 0 -24 77 c-12 43 -35 121 -50 173 -15 52
-31 111 -37 131 -10 33 -7 39 47 117 l57 81 55 -36 c74 -49 150 -58 188 -20
58 58 43 150 -39 236 l-53 56 35 75 c45 99 84 233 84 294 1 56 -19 90 -72 121
-31 18 -52 20 -269 20 -189 0 -246 -3 -293 -17 l-58 -16 -39 52 c-153 209
-461 329 -830 325 -58 -1 -132 -5 -164 -10z m1640 -1011 c8 -15 14 -36 14 -46
0 -17 -5 -18 -39 -12 -34 6 -101 43 -101 56 0 3 14 3 30 -1 34 -8 36 -5 15 35
-8 16 -12 36 -9 45 6 14 12 11 41 -17 19 -18 41 -45 49 -60z"/>
</g>
</svg>
