<?xml version="1.0" standalone="no"?>
<!DOCTYPE svg PUBLIC "-//W3C//DTD SVG 20010904//EN"
 "http://www.w3.org/TR/2001/REC-SVG-20010904/DTD/svg10.dtd">
<svg version="1.0" xmlns="http://www.w3.org/2000/svg"
 width="480.000000pt" height="360.000000pt" viewBox="0 0 480.000000 360.000000"
 preserveAspectRatio="xMidYMid meet">
<metadata>
Created by potrace 1.16, written by Peter Selinger 2001-2019
</metadata>
<rect width="1" height="360" fill="#000000"/>
<rect x="479" width="1" height="360" fill="#000000"/>
<rect width="480" height="1" fill="#000000"/>
<rect y="359" width="480" height="1" fill="#000000"/>
<g transform="translate(0.000000,360.000000) scale(0.100000,-0.100000)"
fill="#000000" stroke="none">
<path d="M0 1800 l0 -1800 658 0 657 0 40 77 c22 42 48 78 57 80 9 3 26 28 38
56 11 29 26 61 32 72 62 107 62 106 62 199 1 80 4 97 28 136 33 56 86 110 160
162 l56 40 -29 47 c-18 28 -32 67 -36 98 l-6 51 39 20 c22 11 58 25 82 31 55
15 62 34 62 164 0 150 -17 274 -42 315 -43 69 -3 276 72 371 45 56 44 49 15
211 -8 41 -16 96 -20 122 -3 26 -10 50 -15 53 -5 3 -7 13 -4 23 5 14 4 15 -5
2 -8 -12 -13 -11 -34 8 -13 12 -28 22 -33 22 -22 0 -39 53 -36 112 l2 59 -90
-7 c-128 -10 -118 8 34 63 l50 18 19 87 18 87 -48 63 c-67 87 -105 148 -93
148 6 0 49 -25 96 -55 l84 -55 61 20 c73 25 264 66 349 76 57 6 65 10 103 52
168 184 173 187 162 90 -6 -54 -21 -134 -42 -225 -5 -21 -4 -22 33 -11 44 12
263 3 277 -11 10 -10 -47 -46 -128 -82 l-50 -23 45 -11 45 -12 -35 -16 c-19
-9 -54 -21 -78 -27 l-42 -11 34 -62 c65 -116 105 -245 171 -547 26 -121 46
-187 76 -250 22 -47 46 -92 54 -100 27 -31 94 -168 119 -242 28 -81 35 -141
15 -121 -6 6 -18 9 -25 6 -8 -3 -24 1 -37 9 l-22 15 1 -111 c1 -110 1 -111 40
-181 22 -38 52 -88 65 -110 14 -22 32 -51 39 -64 l12 -24 -38 24 c-22 13 -46
33 -56 44 -16 19 -16 19 -23 -17 -6 -32 0 -47 58 -145 35 -59 62 -110 60 -113
-3 -3 -10 2 -16 11 -7 9 -26 23 -43 32 -17 9 -43 32 -58 51 -15 20 -31 36 -36
36 -5 0 -12 -25 -16 -56 -3 -30 -18 -79 -33 -107 -24 -49 -29 -52 -67 -55 -34
-3 -48 3 -91 38 -28 22 -53 40 -56 40 -3 0 20 -55 52 -123 32 -67 75 -167 95
-222 46 -124 69 -163 140 -243 30 -34 60 -71 66 -82 11 -20 20 -20 880 -20
l870 0 0 1800 0 1800 -2400 0 -2400 0 0 -1800z"/>
<path d="M2140 2085 c-14 -7 -24 -16 -22 -19 6 -15 1 -19 -8 -6 -9 13 -10 13
-10 0 0 -45 54 -41 66 5 8 33 4 36 -26 20z"/>
</g>
</svg>
