<?xml version="1.0" standalone="no"?>
<!DOCTYPE svg PUBLIC "-//W3C//DTD SVG 20010904//EN"
 "http://www.w3.org/TR/2001/REC-SVG-20010904/DTD/svg10.dtd">
<svg version="1.0" xmlns="http://www.w3.org/2000/svg"
 width="480.000000pt" height="360.000000pt" viewBox="0 0 480.000000 360.000000"
 preserveAspectRatio="xMidYMid meet">
<metadata>
Created by potrace 1.16, written by Peter Selinger 2001-2019
</metadata>
<rect width="1" height="360" fill="#000000"/>
<rect x="479" width="1" height="360" fill="#000000"/>
<rect width="480" height="1" fill="#000000"/>
<rect y="359" width="480" height="1" fill="#000000"/>
<g transform="translate(0.000000,360.000000) scale(0.100000,-0.100000)"
fill="#000000" stroke="none">
<path d="M1052 3443 c-23 -87 -80 -315 -127 -508 -268 -1092 -354 -1547 -385
-2045 -20 -319 -20 -399 -5 -625 8 -126 15 -238 15 -247 0 -17 83 -18 1610
-18 l1610 0 26 53 c39 75 127 203 239 347 129 164 168 225 207 324 32 80 33
83 31 231 -1 156 -12 331 -39 645 -18 205 -14 395 11 545 23 143 30 219 17
211 -6 -3 -16 -22 -22 -41 -11 -33 -30 -48 -30 -24 0 6 -7 9 -15 5 -10 -3 -17
3 -21 19 -7 27 -24 34 -24 10 0 -23 -17 -18 -23 7 -5 18 -8 19 -21 8 -14 -10
-16 -9 -16 8 0 11 -5 22 -11 24 -6 2 -1 33 15 83 13 44 28 98 31 120 12 70 45
161 81 221 l35 59 -28 22 c-15 12 -33 37 -39 55 -11 32 -12 33 -62 30 -129 -9
-253 117 -283 286 -6 31 -20 89 -32 127 -13 44 -21 99 -21 148 l-1 77 -1341 0
-1341 0 -41 -157z"/>
</g>
</svg>
