solid OpenSCAD_Model
  facet normal 0 0 1
    outer loop
      vertex 78.0867 -1.51537 0.2
      vertex 77.858 -1.34055 0.2
      vertex 0 0 0.2
    endloop
  endfacet
  facet normal 0 0 1
    outer loop
      vertex 169.333 -127 0.2
      vertex 85.6147 -5.57388 0.2
      vertex 85.5359 -5.60718 0.2
    endloop
  endfacet
  facet normal 0 0 1
    outer loop
      vertex 83.435 -0.352768 0.2
      vertex 76.1294 0 0.2
      vertex 76.5843 -0.352768 0.2
    endloop
  endfacet
  facet normal 0 0 1
    outer loop
      vertex 78.0867 -1.51537 0.2
      vertex 0 0 0.2
      vertex 78.3215 -1.69133 0.2
    endloop
  endfacet
  facet normal 0 -0 1
    outer loop
      vertex 169.333 -127 0.2
      vertex 169.333 0 0.2
      vertex 85.6147 -5.57388 0.2
    endloop
  endfacet
  facet normal 0 0 1
    outer loop
      vertex 78.3215 -1.69133 0.2
      vertex 0 0 0.2
      vertex 78.5617 -1.86804 0.2
    endloop
  endfacet
  facet normal 0 0 1
    outer loop
      vertex 78.5617 -1.86804 0.2
      vertex 0 0 0.2
      vertex 78.8068 -2.04509 0.2
    endloop
  endfacet
  facet normal 0 0 1
    outer loop
      vertex 78.8068 -2.04509 0.2
      vertex 0 0 0.2
      vertex 79.0561 -2.22209 0.2
    endloop
  endfacet
  facet normal 0 0 1
    outer loop
      vertex 79.0561 -2.22209 0.2
      vertex 0 0 0.2
      vertex 79.3088 -2.39865 0.2
    endloop
  endfacet
  facet normal 0 0 1
    outer loop
      vertex 79.3088 -2.39865 0.2
      vertex 0 0 0.2
      vertex 79.5644 -2.57437 0.2
    endloop
  endfacet
  facet normal 0 0 1
    outer loop
      vertex 79.5644 -2.57437 0.2
      vertex 0 0 0.2
      vertex 0 -127 0.2
    endloop
  endfacet
  facet normal 0 0 1
    outer loop
      vertex 79.8221 -2.74884 0.2
      vertex 79.5644 -2.57437 0.2
      vertex 0 -127 0.2
    endloop
  endfacet
  facet normal 0 0 1
    outer loop
      vertex 80.0813 -2.92166 0.2
      vertex 79.8221 -2.74884 0.2
      vertex 0 -127 0.2
    endloop
  endfacet
  facet normal 0 0 1
    outer loop
      vertex 80.3414 -3.09245 0.2
      vertex 80.0813 -2.92166 0.2
      vertex 0 -127 0.2
    endloop
  endfacet
  facet normal 0 0 1
    outer loop
      vertex 80.6015 -3.2608 0.2
      vertex 80.3414 -3.09245 0.2
      vertex 0 -127 0.2
    endloop
  endfacet
  facet normal 0 0 1
    outer loop
      vertex 80.8612 -3.42632 0.2
      vertex 80.6015 -3.2608 0.2
      vertex 0 -127 0.2
    endloop
  endfacet
  facet normal 0 0 1
    outer loop
      vertex 81.1196 -3.58861 0.2
      vertex 80.8612 -3.42632 0.2
      vertex 0 -127 0.2
    endloop
  endfacet
  facet normal 0 0 1
    outer loop
      vertex 81.3763 -3.74725 0.2
      vertex 81.1196 -3.58861 0.2
      vertex 0 -127 0.2
    endloop
  endfacet
  facet normal 0 0 1
    outer loop
      vertex 81.6304 -3.90189 0.2
      vertex 81.3763 -3.74725 0.2
      vertex 0 -127 0.2
    endloop
  endfacet
  facet normal 0 0 1
    outer loop
      vertex 81.8813 -4.05208 0.2
      vertex 81.6304 -3.90189 0.2
      vertex 0 -127 0.2
    endloop
  endfacet
  facet normal 0 0 1
    outer loop
      vertex 82.1283 -4.19746 0.2
      vertex 81.8813 -4.05208 0.2
      vertex 0 -127 0.2
    endloop
  endfacet
  facet normal 0 0 1
    outer loop
      vertex 82.3708 -4.33762 0.2
      vertex 82.1283 -4.19746 0.2
      vertex 0 -127 0.2
    endloop
  endfacet
  facet normal 0 0 1
    outer loop
      vertex 82.6081 -4.47214 0.2
      vertex 82.3708 -4.33762 0.2
      vertex 0 -127 0.2
    endloop
  endfacet
  facet normal 0 0 1
    outer loop
      vertex 82.8396 -4.60065 0.2
      vertex 82.6081 -4.47214 0.2
      vertex 0 -127 0.2
    endloop
  endfacet
  facet normal 0 0 1
    outer loop
      vertex 83.0645 -4.72275 0.2
      vertex 82.8396 -4.60065 0.2
      vertex 0 -127 0.2
    endloop
  endfacet
  facet normal 0 0 1
    outer loop
      vertex 83.2823 -4.83804 0.2
      vertex 83.0645 -4.72275 0.2
      vertex 0 -127 0.2
    endloop
  endfacet
  facet normal 0 0 1
    outer loop
      vertex 83.4921 -4.94611 0.2
      vertex 83.2823 -4.83804 0.2
      vertex 0 -127 0.2
    endloop
  endfacet
  facet normal 0 0 1
    outer loop
      vertex 83.6935 -5.04657 0.2
      vertex 83.4921 -4.94611 0.2
      vertex 0 -127 0.2
    endloop
  endfacet
  facet normal 0 0 1
    outer loop
      vertex 83.8856 -5.13902 0.2
      vertex 83.6935 -5.04657 0.2
      vertex 0 -127 0.2
    endloop
  endfacet
  facet normal 0 0 1
    outer loop
      vertex 84.0679 -5.22308 0.2
      vertex 83.8856 -5.13902 0.2
      vertex 0 -127 0.2
    endloop
  endfacet
  facet normal 0 0 1
    outer loop
      vertex 84.2396 -5.29832 0.2
      vertex 84.0679 -5.22308 0.2
      vertex 0 -127 0.2
    endloop
  endfacet
  facet normal 0 0 1
    outer loop
      vertex 84.4001 -5.36438 0.2
      vertex 84.2396 -5.29832 0.2
      vertex 0 -127 0.2
    endloop
  endfacet
  facet normal 0 0 1
    outer loop
      vertex 84.5488 -5.42082 0.2
      vertex 84.4001 -5.36438 0.2
      vertex 0 -127 0.2
    endloop
  endfacet
  facet normal 0 0 1
    outer loop
      vertex 84.6849 -5.46727 0.2
      vertex 84.5488 -5.42082 0.2
      vertex 0 -127 0.2
    endloop
  endfacet
  facet normal 0 0 1
    outer loop
      vertex 84.8078 -5.50333 0.2
      vertex 84.6849 -5.46727 0.2
      vertex 0 -127 0.2
    endloop
  endfacet
  facet normal 0 0 1
    outer loop
      vertex 85.0581 -5.55893 0.2
      vertex 84.8078 -5.50333 0.2
      vertex 0 -127 0.2
    endloop
  endfacet
  facet normal 0 0 1
    outer loop
      vertex 85.2607 -5.59674 0.2
      vertex 85.0581 -5.55893 0.2
      vertex 0 -127 0.2
    endloop
  endfacet
  facet normal 0 0 1
    outer loop
      vertex 85.419 -5.61382 0.2
      vertex 85.2607 -5.59674 0.2
      vertex 0 -127 0.2
    endloop
  endfacet
  facet normal 0 0 1
    outer loop
      vertex 169.333 -127 0.2
      vertex 85.419 -5.61382 0.2
      vertex 0 -127 0.2
    endloop
  endfacet
  facet normal 0 0 1
    outer loop
      vertex 169.333 -127 0.2
      vertex 85.5359 -5.60718 0.2
      vertex 85.419 -5.61382 0.2
    endloop
  endfacet
  facet normal 0 0 1
    outer loop
      vertex 85.6147 -5.57388 0.2
      vertex 169.333 0 0.2
      vertex 85.6587 -5.51094 0.2
    endloop
  endfacet
  facet normal 0 0 1
    outer loop
      vertex 85.6587 -5.51094 0.2
      vertex 169.333 0 0.2
      vertex 85.6708 -5.41542 0.2
    endloop
  endfacet
  facet normal 0 -0 1
    outer loop
      vertex 85.6708 -5.41542 0.2
      vertex 169.333 0 0.2
      vertex 85.6544 -5.28432 0.2
    endloop
  endfacet
  facet normal 0 -0 1
    outer loop
      vertex 85.6544 -5.28432 0.2
      vertex 169.333 0 0.2
      vertex 85.6126 -5.1147 0.2
    endloop
  endfacet
  facet normal 0 -0 1
    outer loop
      vertex 85.6126 -5.1147 0.2
      vertex 169.333 0 0.2
      vertex 85.5486 -4.90361 0.2
    endloop
  endfacet
  facet normal 0 -0 1
    outer loop
      vertex 85.5486 -4.90361 0.2
      vertex 169.333 0 0.2
      vertex 85.5041 -4.7719 0.2
    endloop
  endfacet
  facet normal 0 -0 1
    outer loop
      vertex 85.5041 -4.7719 0.2
      vertex 169.333 0 0.2
      vertex 85.4423 -4.60847 0.2
    endloop
  endfacet
  facet normal 0 -0 1
    outer loop
      vertex 85.4423 -4.60847 0.2
      vertex 169.333 0 0.2
      vertex 85.3651 -4.41689 0.2
    endloop
  endfacet
  facet normal 0 -0 1
    outer loop
      vertex 85.3651 -4.41689 0.2
      vertex 169.333 0 0.2
      vertex 85.2742 -4.20067 0.2
    endloop
  endfacet
  facet normal 0 -0 1
    outer loop
      vertex 85.2742 -4.20067 0.2
      vertex 169.333 0 0.2
      vertex 85.1716 -3.96338 0.2
    endloop
  endfacet
  facet normal 0 -0 1
    outer loop
      vertex 85.1716 -3.96338 0.2
      vertex 169.333 0 0.2
      vertex 85.0591 -3.70857 0.2
    endloop
  endfacet
  facet normal 0 -0 1
    outer loop
      vertex 85.0591 -3.70857 0.2
      vertex 169.333 0 0.2
      vertex 84.9385 -3.4398 0.2
    endloop
  endfacet
  facet normal 0 -0 1
    outer loop
      vertex 84.9385 -3.4398 0.2
      vertex 169.333 0 0.2
      vertex 84.8117 -3.16061 0.2
    endloop
  endfacet
  facet normal 0 -0 1
    outer loop
      vertex 84.8117 -3.16061 0.2
      vertex 169.333 0 0.2
      vertex 84.6804 -2.87457 0.2
    endloop
  endfacet
  facet normal 0 -0 1
    outer loop
      vertex 84.6804 -2.87457 0.2
      vertex 169.333 0 0.2
      vertex 84.5466 -2.58524 0.2
    endloop
  endfacet
  facet normal 0 -0 1
    outer loop
      vertex 84.5466 -2.58524 0.2
      vertex 169.333 0 0.2
      vertex 84.4121 -2.29613 0.2
    endloop
  endfacet
  facet normal 0 -0 1
    outer loop
      vertex 84.4121 -2.29613 0.2
      vertex 169.333 0 0.2
      vertex 84.2786 -2.01082 0.2
    endloop
  endfacet
  facet normal 0 -0 1
    outer loop
      vertex 84.2786 -2.01082 0.2
      vertex 169.333 0 0.2
      vertex 83.435 -0.352768 0.2
    endloop
  endfacet
  facet normal 0 -0 1
    outer loop
      vertex 83.435 -0.352768 0.2
      vertex 169.333 0 0.2
      vertex 76.1294 0 0.2
    endloop
  endfacet
  facet normal 0 0 1
    outer loop
      vertex 77.858 -1.34055 0.2
      vertex 76.5843 -0.352768 0.2
      vertex 0 0 0.2
    endloop
  endfacet
  facet normal 0 0 1
    outer loop
      vertex 76.5843 -0.352768 0.2
      vertex 76.1294 0 0.2
      vertex 0 0 0.2
    endloop
  endfacet
  facet normal 0 0 -1
    outer loop
      vertex 0 0 0
      vertex 77.858 -1.34055 0
      vertex 78.0867 -1.51537 0
    endloop
  endfacet
  facet normal 0 0 -1
    outer loop
      vertex 85.5359 -5.60718 0
      vertex 85.6147 -5.57388 0
      vertex 169.333 -127 0
    endloop
  endfacet
  facet normal 0 0 -1
    outer loop
      vertex 76.5843 -0.352768 0
      vertex 76.1294 0 0
      vertex 83.435 -0.352768 0
    endloop
  endfacet
  facet normal 0 0 -1
    outer loop
      vertex 78.3215 -1.69133 0
      vertex 0 0 0
      vertex 78.0867 -1.51537 0
    endloop
  endfacet
  facet normal 0 0 -1
    outer loop
      vertex 85.6147 -5.57388 0
      vertex 169.333 0 0
      vertex 169.333 -127 0
    endloop
  endfacet
  facet normal 0 0 -1
    outer loop
      vertex 78.5617 -1.86804 0
      vertex 0 0 0
      vertex 78.3215 -1.69133 0
    endloop
  endfacet
  facet normal 0 0 -1
    outer loop
      vertex 78.8068 -2.04509 0
      vertex 0 0 0
      vertex 78.5617 -1.86804 0
    endloop
  endfacet
  facet normal 0 0 -1
    outer loop
      vertex 79.0561 -2.22209 0
      vertex 0 0 0
      vertex 78.8068 -2.04509 0
    endloop
  endfacet
  facet normal 0 0 -1
    outer loop
      vertex 79.3088 -2.39865 0
      vertex 0 0 0
      vertex 79.0561 -2.22209 0
    endloop
  endfacet
  facet normal 0 0 -1
    outer loop
      vertex 79.5644 -2.57437 0
      vertex 0 0 0
      vertex 79.3088 -2.39865 0
    endloop
  endfacet
  facet normal 0 0 -1
    outer loop
      vertex 0 -127 0
      vertex 0 0 0
      vertex 79.5644 -2.57437 0
    endloop
  endfacet
  facet normal 0 0 -1
    outer loop
      vertex 0 -127 0
      vertex 79.5644 -2.57437 0
      vertex 79.8221 -2.74884 0
    endloop
  endfacet
  facet normal 0 0 -1
    outer loop
      vertex 0 -127 0
      vertex 79.8221 -2.74884 0
      vertex 80.0813 -2.92166 0
    endloop
  endfacet
  facet normal 0 0 -1
    outer loop
      vertex 0 -127 0
      vertex 80.0813 -2.92166 0
      vertex 80.3414 -3.09245 0
    endloop
  endfacet
  facet normal 0 0 -1
    outer loop
      vertex 0 -127 0
      vertex 80.3414 -3.09245 0
      vertex 80.6015 -3.2608 0
    endloop
  endfacet
  facet normal 0 0 -1
    outer loop
      vertex 0 -127 0
      vertex 80.6015 -3.2608 0
      vertex 80.8612 -3.42632 0
    endloop
  endfacet
  facet normal 0 0 -1
    outer loop
      vertex 0 -127 0
      vertex 80.8612 -3.42632 0
      vertex 81.1196 -3.58861 0
    endloop
  endfacet
  facet normal 0 0 -1
    outer loop
      vertex 0 -127 0
      vertex 81.1196 -3.58861 0
      vertex 81.3763 -3.74725 0
    endloop
  endfacet
  facet normal 0 0 -1
    outer loop
      vertex 0 -127 0
      vertex 81.3763 -3.74725 0
      vertex 81.6304 -3.90189 0
    endloop
  endfacet
  facet normal 0 0 -1
    outer loop
      vertex 0 -127 0
      vertex 81.6304 -3.90189 0
      vertex 81.8813 -4.05208 0
    endloop
  endfacet
  facet normal 0 0 -1
    outer loop
      vertex 0 -127 0
      vertex 81.8813 -4.05208 0
      vertex 82.1283 -4.19746 0
    endloop
  endfacet
  facet normal 0 0 -1
    outer loop
      vertex 0 -127 0
      vertex 82.1283 -4.19746 0
      vertex 82.3708 -4.33762 0
    endloop
  endfacet
  facet normal 0 0 -1
    outer loop
      vertex 0 -127 0
      vertex 82.3708 -4.33762 0
      vertex 82.6081 -4.47214 0
    endloop
  endfacet
  facet normal 0 0 -1
    outer loop
      vertex 0 -127 0
      vertex 82.6081 -4.47214 0
      vertex 82.8396 -4.60065 0
    endloop
  endfacet
  facet normal 0 0 -1
    outer loop
      vertex 0 -127 0
      vertex 82.8396 -4.60065 0
      vertex 83.0645 -4.72275 0
    endloop
  endfacet
  facet normal 0 0 -1
    outer loop
      vertex 0 -127 0
      vertex 83.0645 -4.72275 0
      vertex 83.2823 -4.83804 0
    endloop
  endfacet
  facet normal 0 0 -1
    outer loop
      vertex 0 -127 0
      vertex 83.2823 -4.83804 0
      vertex 83.4921 -4.94611 0
    endloop
  endfacet
  facet normal 0 0 -1
    outer loop
      vertex 0 -127 0
      vertex 83.4921 -4.94611 0
      vertex 83.6935 -5.04657 0
    endloop
  endfacet
  facet normal 0 0 -1
    outer loop
      vertex 0 -127 0
      vertex 83.6935 -5.04657 0
      vertex 83.8856 -5.13902 0
    endloop
  endfacet
  facet normal 0 0 -1
    outer loop
      vertex 0 -127 0
      vertex 83.8856 -5.13902 0
      vertex 84.0679 -5.22308 0
    endloop
  endfacet
  facet normal 0 0 -1
    outer loop
      vertex 0 -127 0
      vertex 84.0679 -5.22308 0
      vertex 84.2396 -5.29832 0
    endloop
  endfacet
  facet normal 0 0 -1
    outer loop
      vertex 0 -127 0
      vertex 84.2396 -5.29832 0
      vertex 84.4001 -5.36438 0
    endloop
  endfacet
  facet normal 0 0 -1
    outer loop
      vertex 0 -127 0
      vertex 84.4001 -5.36438 0
      vertex 84.5488 -5.42082 0
    endloop
  endfacet
  facet normal 0 0 -1
    outer loop
      vertex 0 -127 0
      vertex 84.5488 -5.42082 0
      vertex 84.6849 -5.46727 0
    endloop
  endfacet
  facet normal 0 0 -1
    outer loop
      vertex 0 -127 0
      vertex 84.6849 -5.46727 0
      vertex 84.8078 -5.50333 0
    endloop
  endfacet
  facet normal 0 0 -1
    outer loop
      vertex 0 -127 0
      vertex 84.8078 -5.50333 0
      vertex 85.0581 -5.55893 0
    endloop
  endfacet
  facet normal 0 0 -1
    outer loop
      vertex 0 -127 0
      vertex 85.0581 -5.55893 0
      vertex 85.2607 -5.59674 0
    endloop
  endfacet
  facet normal 0 0 -1
    outer loop
      vertex 0 -127 0
      vertex 85.2607 -5.59674 0
      vertex 85.419 -5.61382 0
    endloop
  endfacet
  facet normal 0 0 -1
    outer loop
      vertex 0 -127 0
      vertex 85.419 -5.61382 0
      vertex 169.333 -127 0
    endloop
  endfacet
  facet normal 0 0 -1
    outer loop
      vertex 85.419 -5.61382 0
      vertex 85.5359 -5.60718 0
      vertex 169.333 -127 0
    endloop
  endfacet
  facet normal 0 -0 -1
    outer loop
      vertex 85.6587 -5.51094 0
      vertex 169.333 0 0
      vertex 85.6147 -5.57388 0
    endloop
  endfacet
  facet normal 0 -0 -1
    outer loop
      vertex 85.6708 -5.41542 0
      vertex 169.333 0 0
      vertex 85.6587 -5.51094 0
    endloop
  endfacet
  facet normal 0 0 -1
    outer loop
      vertex 85.6544 -5.28432 0
      vertex 169.333 0 0
      vertex 85.6708 -5.41542 0
    endloop
  endfacet
  facet normal 0 0 -1
    outer loop
      vertex 85.6126 -5.1147 0
      vertex 169.333 0 0
      vertex 85.6544 -5.28432 0
    endloop
  endfacet
  facet normal 0 0 -1
    outer loop
      vertex 85.5486 -4.90361 0
      vertex 169.333 0 0
      vertex 85.6126 -5.1147 0
    endloop
  endfacet
  facet normal 0 0 -1
    outer loop
      vertex 85.5041 -4.7719 0
      vertex 169.333 0 0
      vertex 85.5486 -4.90361 0
    endloop
  endfacet
  facet normal 0 0 -1
    outer loop
      vertex 85.4423 -4.60847 0
      vertex 169.333 0 0
      vertex 85.5041 -4.7719 0
    endloop
  endfacet
  facet normal 0 0 -1
    outer loop
      vertex 85.3651 -4.41689 0
      vertex 169.333 0 0
      vertex 85.4423 -4.60847 0
    endloop
  endfacet
  facet normal 0 0 -1
    outer loop
      vertex 85.2742 -4.20067 0
      vertex 169.333 0 0
      vertex 85.3651 -4.41689 0
    endloop
  endfacet
  facet normal 0 0 -1
    outer loop
      vertex 85.1716 -3.96338 0
      vertex 169.333 0 0
      vertex 85.2742 -4.20067 0
    endloop
  endfacet
  facet normal 0 0 -1
    outer loop
      vertex 85.0591 -3.70857 0
      vertex 169.333 0 0
      vertex 85.1716 -3.96338 0
    endloop
  endfacet
  facet normal 0 0 -1
    outer loop
      vertex 84.9385 -3.4398 0
      vertex 169.333 0 0
      vertex 85.0591 -3.70857 0
    endloop
  endfacet
  facet normal 0 0 -1
    outer loop
      vertex 84.8117 -3.16061 0
      vertex 169.333 0 0
      vertex 84.9385 -3.4398 0
    endloop
  endfacet
  facet normal 0 0 -1
    outer loop
      vertex 84.6804 -2.87457 0
      vertex 169.333 0 0
      vertex 84.8117 -3.16061 0
    endloop
  endfacet
  facet normal 0 0 -1
    outer loop
      vertex 84.5466 -2.58524 0
      vertex 169.333 0 0
      vertex 84.6804 -2.87457 0
    endloop
  endfacet
  facet normal 0 0 -1
    outer loop
      vertex 84.4121 -2.29613 0
      vertex 169.333 0 0
      vertex 84.5466 -2.58524 0
    endloop
  endfacet
  facet normal 0 0 -1
    outer loop
      vertex 84.2786 -2.01082 0
      vertex 169.333 0 0
      vertex 84.4121 -2.29613 0
    endloop
  endfacet
  facet normal 0 0 -1
    outer loop
      vertex 83.435 -0.352768 0
      vertex 169.333 0 0
      vertex 84.2786 -2.01082 0
    endloop
  endfacet
  facet normal 0 0 -1
    outer loop
      vertex 76.1294 0 0
      vertex 169.333 0 0
      vertex 83.435 -0.352768 0
    endloop
  endfacet
  facet normal 0 0 -1
    outer loop
      vertex 0 0 0
      vertex 76.5843 -0.352768 0
      vertex 77.858 -1.34055 0
    endloop
  endfacet
  facet normal 0 0 -1
    outer loop
      vertex 0 0 0
      vertex 76.1294 0 0
      vertex 76.5843 -0.352768 0
    endloop
  endfacet
  facet normal 0 -1 0
    outer loop
      vertex 0 -127 0.2
      vertex 169.333 -127 0
      vertex 169.333 -127 0.2
    endloop
  endfacet
  facet normal 0 -1 0
    outer loop
      vertex 0 -127 0.2
      vertex 0 -127 0
      vertex 169.333 -127 0
    endloop
  endfacet
  facet normal -1 -0 0
    outer loop
      vertex 0 0 0.2
      vertex 0 -127 0
      vertex 0 -127 0.2
    endloop
  endfacet
  facet normal -1 0 -0
    outer loop
      vertex 0 0 0.2
      vertex 0 0 0
      vertex 0 -127 0
    endloop
  endfacet
  facet normal 0 1 0
    outer loop
      vertex 76.1294 0 0.2
      vertex 0 0 0
      vertex 0 0 0.2
    endloop
  endfacet
  facet normal 0 1 0
    outer loop
      vertex 76.1294 0 0.2
      vertex 76.1294 0 0
      vertex 0 0 0
    endloop
  endfacet
  facet normal 0.612824 0.790219 4.25752e-16
    outer loop
      vertex 77.858 -1.34055 0.2
      vertex 76.1294 0 0
      vertex 76.1294 0 0.2
    endloop
  endfacet
  facet normal 0.612824 0.790219 0
    outer loop
      vertex 77.858 -1.34055 0.2
      vertex 77.858 -1.34055 0
      vertex 76.1294 0 0
    endloop
  endfacet
  facet normal 0.607301 0.794472 -5.97323e-17
    outer loop
      vertex 78.0867 -1.51537 0.2
      vertex 77.858 -1.34055 0
      vertex 77.858 -1.34055 0.2
    endloop
  endfacet
  facet normal 0.607301 0.794472 0
    outer loop
      vertex 78.0867 -1.51537 0.2
      vertex 78.0867 -1.51537 0
      vertex 77.858 -1.34055 0
    endloop
  endfacet
  facet normal 0.599695 0.800229 3.68355e-17
    outer loop
      vertex 78.3215 -1.69133 0.2
      vertex 78.0867 -1.51537 0
      vertex 78.0867 -1.51537 0.2
    endloop
  endfacet
  facet normal 0.599695 0.800229 0
    outer loop
      vertex 78.3215 -1.69133 0.2
      vertex 78.3215 -1.69133 0
      vertex 78.0867 -1.51537 0
    endloop
  endfacet
  facet normal 0.592591 0.805503 -1.2555e-17
    outer loop
      vertex 78.5617 -1.86804 0.2
      vertex 78.3215 -1.69133 0
      vertex 78.3215 -1.69133 0.2
    endloop
  endfacet
  facet normal 0.592591 0.805503 0
    outer loop
      vertex 78.5617 -1.86804 0.2
      vertex 78.5617 -1.86804 0
      vertex 78.3215 -1.69133 0
    endloop
  endfacet
  facet normal 0.585563 0.810627 -4.05645e-17
    outer loop
      vertex 78.8068 -2.04509 0.2
      vertex 78.5617 -1.86804 0
      vertex 78.5617 -1.86804 0.2
    endloop
  endfacet
  facet normal 0.585563 0.810627 0
    outer loop
      vertex 78.8068 -2.04509 0.2
      vertex 78.8068 -2.04509 0
      vertex 78.5617 -1.86804 0
    endloop
  endfacet
  facet normal 0.578915 0.815388 -3.50178e-17
    outer loop
      vertex 79.0561 -2.22209 0.2
      vertex 78.8068 -2.04509 0
      vertex 78.8068 -2.04509 0.2
    endloop
  endfacet
  facet normal 0.578915 0.815388 0
    outer loop
      vertex 79.0561 -2.22209 0.2
      vertex 79.0561 -2.22209 0
      vertex 78.8068 -2.04509 0
    endloop
  endfacet
  facet normal 0.572744 0.819735 4.72054e-17
    outer loop
      vertex 79.3088 -2.39865 0.2
      vertex 79.0561 -2.22209 0
      vertex 79.0561 -2.22209 0.2
    endloop
  endfacet
  facet normal 0.572744 0.819735 0
    outer loop
      vertex 79.3088 -2.39865 0.2
      vertex 79.3088 -2.39865 0
      vertex 79.0561 -2.22209 0
    endloop
  endfacet
  facet normal 0.566518 0.824049 5.6801e-18
    outer loop
      vertex 79.5644 -2.57437 0.2
      vertex 79.3088 -2.39865 0
      vertex 79.3088 -2.39865 0.2
    endloop
  endfacet
  facet normal 0.566518 0.824049 0
    outer loop
      vertex 79.5644 -2.57437 0.2
      vertex 79.5644 -2.57437 0
      vertex 79.3088 -2.39865 0
    endloop
  endfacet
  facet normal 0.560626 0.828069 -5.14416e-17
    outer loop
      vertex 79.8221 -2.74884 0.2
      vertex 79.5644 -2.57437 0
      vertex 79.5644 -2.57437 0.2
    endloop
  endfacet
  facet normal 0.560626 0.828069 0
    outer loop
      vertex 79.8221 -2.74884 0.2
      vertex 79.8221 -2.74884 0
      vertex 79.5644 -2.57437 0
    endloop
  endfacet
  facet normal 0.554745 0.832021 -2.61018e-17
    outer loop
      vertex 80.0813 -2.92166 0.2
      vertex 79.8221 -2.74884 0
      vertex 79.8221 -2.74884 0.2
    endloop
  endfacet
  facet normal 0.554745 0.832021 0
    outer loop
      vertex 80.0813 -2.92166 0.2
      vertex 80.0813 -2.92166 0
      vertex 79.8221 -2.74884 0
    endloop
  endfacet
  facet normal 0.54888 0.835901 3.45171e-17
    outer loop
      vertex 80.3414 -3.09245 0.2
      vertex 80.0813 -2.92166 0
      vertex 80.0813 -2.92166 0.2
    endloop
  endfacet
  facet normal 0.54888 0.835901 0
    outer loop
      vertex 80.3414 -3.09245 0.2
      vertex 80.3414 -3.09245 0
      vertex 80.0813 -2.92166 0
    endloop
  endfacet
  facet normal 0.543365 0.839497 4.24298e-17
    outer loop
      vertex 80.6015 -3.2608 0.2
      vertex 80.3414 -3.09245 0
      vertex 80.3414 -3.09245 0.2
    endloop
  endfacet
  facet normal 0.543365 0.839497 0
    outer loop
      vertex 80.6015 -3.2608 0.2
      vertex 80.6015 -3.2608 0
      vertex 80.3414 -3.09245 0
    endloop
  endfacet
  facet normal 0.537468 0.843284 2.92647e-17
    outer loop
      vertex 80.8612 -3.42632 0.2
      vertex 80.6015 -3.2608 0
      vertex 80.6015 -3.2608 0.2
    endloop
  endfacet
  facet normal 0.537468 0.843284 0
    outer loop
      vertex 80.8612 -3.42632 0.2
      vertex 80.8612 -3.42632 0
      vertex 80.6015 -3.2608 0
    endloop
  endfacet
  facet normal 0.531859 0.846833 4.29156e-17
    outer loop
      vertex 81.1196 -3.58861 0.2
      vertex 80.8612 -3.42632 0
      vertex 80.8612 -3.42632 0.2
    endloop
  endfacet
  facet normal 0.531859 0.846833 0
    outer loop
      vertex 81.1196 -3.58861 0.2
      vertex 81.1196 -3.58861 0
      vertex 80.8612 -3.42632 0
    endloop
  endfacet
  facet normal 0.525709 0.850665 9.54359e-18
    outer loop
      vertex 81.3763 -3.74725 0.2
      vertex 81.1196 -3.58861 0
      vertex 81.1196 -3.58861 0.2
    endloop
  endfacet
  facet normal 0.525709 0.850665 0
    outer loop
      vertex 81.3763 -3.74725 0.2
      vertex 81.3763 -3.74725 0
      vertex 81.1196 -3.58861 0
    endloop
  endfacet
  facet normal 0.519874 0.854243 5.49584e-17
    outer loop
      vertex 81.6304 -3.90189 0.2
      vertex 81.3763 -3.74725 0
      vertex 81.3763 -3.74725 0.2
    endloop
  endfacet
  facet normal 0.519874 0.854243 0
    outer loop
      vertex 81.6304 -3.90189 0.2
      vertex 81.6304 -3.90189 0
      vertex 81.3763 -3.74725 0
    endloop
  endfacet
  facet normal 0.513615 0.858021 5.44572e-18
    outer loop
      vertex 81.8813 -4.05208 0.2
      vertex 81.6304 -3.90189 0
      vertex 81.6304 -3.90189 0.2
    endloop
  endfacet
  facet normal 0.513615 0.858021 0
    outer loop
      vertex 81.8813 -4.05208 0.2
      vertex 81.8813 -4.05208 0
      vertex 81.6304 -3.90189 0
    endloop
  endfacet
  facet normal 0.507243 0.861803 -3.46369e-17
    outer loop
      vertex 82.1283 -4.19746 0.2
      vertex 81.8813 -4.05208 0
      vertex 81.8813 -4.05208 0.2
    endloop
  endfacet
  facet normal 0.507243 0.861803 0
    outer loop
      vertex 82.1283 -4.19746 0.2
      vertex 82.1283 -4.19746 0
      vertex 81.8813 -4.05208 0
    endloop
  endfacet
  facet normal 0.500408 0.865789 3.25397e-17
    outer loop
      vertex 82.3708 -4.33762 0.2
      vertex 82.1283 -4.19746 0
      vertex 82.1283 -4.19746 0.2
    endloop
  endfacet
  facet normal 0.500408 0.865789 0
    outer loop
      vertex 82.3708 -4.33762 0.2
      vertex 82.3708 -4.33762 0
      vertex 82.1283 -4.19746 0
    endloop
  endfacet
  facet normal 0.493151 0.869944 -2.29787e-18
    outer loop
      vertex 82.6081 -4.47214 0.2
      vertex 82.3708 -4.33762 0
      vertex 82.3708 -4.33762 0.2
    endloop
  endfacet
  facet normal 0.493151 0.869944 0
    outer loop
      vertex 82.6081 -4.47214 0.2
      vertex 82.6081 -4.47214 0
      vertex 82.3708 -4.33762 0
    endloop
  endfacet
  facet normal 0.485351 0.874319 1.53554e-18
    outer loop
      vertex 82.8396 -4.60065 0.2
      vertex 82.6081 -4.47214 0
      vertex 82.6081 -4.47214 0.2
    endloop
  endfacet
  facet normal 0.485351 0.874319 0
    outer loop
      vertex 82.8396 -4.60065 0.2
      vertex 82.8396 -4.60065 0
      vertex 82.6081 -4.47214 0
    endloop
  endfacet
  facet normal 0.477126 0.878835 8.96989e-18
    outer loop
      vertex 83.0645 -4.72275 0.2
      vertex 82.8396 -4.60065 0
      vertex 82.8396 -4.60065 0.2
    endloop
  endfacet
  facet normal 0.477126 0.878835 0
    outer loop
      vertex 83.0645 -4.72275 0.2
      vertex 83.0645 -4.72275 0
      vertex 82.8396 -4.60065 0
    endloop
  endfacet
  facet normal 0.467837 0.883815 1.38862e-17
    outer loop
      vertex 83.2823 -4.83804 0.2
      vertex 83.0645 -4.72275 0
      vertex 83.0645 -4.72275 0.2
    endloop
  endfacet
  facet normal 0.467837 0.883815 0
    outer loop
      vertex 83.2823 -4.83804 0.2
      vertex 83.2823 -4.83804 0
      vertex 83.0645 -4.72275 0
    endloop
  endfacet
  facet normal 0.457927 0.88899 -2.46216e-17
    outer loop
      vertex 83.4921 -4.94611 0.2
      vertex 83.2823 -4.83804 0
      vertex 83.2823 -4.83804 0.2
    endloop
  endfacet
  facet normal 0.457927 0.88899 0
    outer loop
      vertex 83.4921 -4.94611 0.2
      vertex 83.4921 -4.94611 0
      vertex 83.2823 -4.83804 0
    endloop
  endfacet
  facet normal 0.44636 0.894853 -7.22593e-18
    outer loop
      vertex 83.6935 -5.04657 0.2
      vertex 83.4921 -4.94611 0
      vertex 83.4921 -4.94611 0.2
    endloop
  endfacet
  facet normal 0.44636 0.894853 0
    outer loop
      vertex 83.6935 -5.04657 0.2
      vertex 83.6935 -5.04657 0
      vertex 83.4921 -4.94611 0
    endloop
  endfacet
  facet normal 0.433653 0.90108 -3.23415e-17
    outer loop
      vertex 83.8856 -5.13902 0.2
      vertex 83.6935 -5.04657 0
      vertex 83.6935 -5.04657 0.2
    endloop
  endfacet
  facet normal 0.433653 0.90108 0
    outer loop
      vertex 83.8856 -5.13902 0.2
      vertex 83.8856 -5.13902 0
      vertex 83.6935 -5.04657 0
    endloop
  endfacet
  facet normal 0.418736 0.908108 -2.08861e-17
    outer loop
      vertex 84.0679 -5.22308 0.2
      vertex 83.8856 -5.13902 0
      vertex 83.8856 -5.13902 0.2
    endloop
  endfacet
  facet normal 0.418736 0.908108 0
    outer loop
      vertex 84.0679 -5.22308 0.2
      vertex 84.0679 -5.22308 0
      vertex 83.8856 -5.13902 0
    endloop
  endfacet
  facet normal 0.401362 0.91592 1.76219e-18
    outer loop
      vertex 84.2396 -5.29832 0.2
      vertex 84.0679 -5.22308 0
      vertex 84.0679 -5.22308 0.2
    endloop
  endfacet
  facet normal 0.401362 0.91592 0
    outer loop
      vertex 84.2396 -5.29832 0.2
      vertex 84.2396 -5.29832 0
      vertex 84.0679 -5.22308 0
    endloop
  endfacet
  facet normal 0.380611 0.924735 4.19702e-18
    outer loop
      vertex 84.4001 -5.36438 0.2
      vertex 84.2396 -5.29832 0
      vertex 84.2396 -5.29832 0.2
    endloop
  endfacet
  facet normal 0.380611 0.924735 0
    outer loop
      vertex 84.4001 -5.36438 0.2
      vertex 84.4001 -5.36438 0
      vertex 84.2396 -5.29832 0
    endloop
  endfacet
  facet normal 0.354855 0.934921 1.84797e-17
    outer loop
      vertex 84.5488 -5.42082 0.2
      vertex 84.4001 -5.36438 0
      vertex 84.4001 -5.36438 0.2
    endloop
  endfacet
  facet normal 0.354855 0.934921 0
    outer loop
      vertex 84.5488 -5.42082 0.2
      vertex 84.5488 -5.42082 0
      vertex 84.4001 -5.36438 0
    endloop
  endfacet
  facet normal 0.323 0.946399 -2.94501e-20
    outer loop
      vertex 84.6849 -5.46727 0.2
      vertex 84.5488 -5.42082 0
      vertex 84.5488 -5.42082 0.2
    endloop
  endfacet
  facet normal 0.323 0.946399 0
    outer loop
      vertex 84.6849 -5.46727 0.2
      vertex 84.6849 -5.46727 0
      vertex 84.5488 -5.42082 0
    endloop
  endfacet
  facet normal 0.281541 0.959549 -9.34123e-18
    outer loop
      vertex 84.8078 -5.50333 0.2
      vertex 84.6849 -5.46727 0
      vertex 84.6849 -5.46727 0.2
    endloop
  endfacet
  facet normal 0.281541 0.959549 0
    outer loop
      vertex 84.8078 -5.50333 0.2
      vertex 84.8078 -5.50333 0
      vertex 84.6849 -5.46727 0
    endloop
  endfacet
  facet normal 0.216848 0.976205 -5.35175e-18
    outer loop
      vertex 85.0581 -5.55893 0.2
      vertex 84.8078 -5.50333 0
      vertex 84.8078 -5.50333 0.2
    endloop
  endfacet
  facet normal 0.216848 0.976205 0
    outer loop
      vertex 85.0581 -5.55893 0.2
      vertex 85.0581 -5.55893 0
      vertex 84.8078 -5.50333 0
    endloop
  endfacet
  facet normal 0.183456 0.983028 -5.15787e-18
    outer loop
      vertex 85.2607 -5.59674 0.2
      vertex 85.0581 -5.55893 0
      vertex 85.0581 -5.55893 0.2
    endloop
  endfacet
  facet normal 0.183456 0.983028 0
    outer loop
      vertex 85.2607 -5.59674 0.2
      vertex 85.2607 -5.59674 0
      vertex 85.0581 -5.55893 0
    endloop
  endfacet
  facet normal 0.107274 0.99423 1.32998e-20
    outer loop
      vertex 85.419 -5.61382 0.2
      vertex 85.2607 -5.59674 0
      vertex 85.2607 -5.59674 0.2
    endloop
  endfacet
  facet normal 0.107274 0.99423 0
    outer loop
      vertex 85.419 -5.61382 0.2
      vertex 85.419 -5.61382 0
      vertex 85.2607 -5.59674 0
    endloop
  endfacet
  facet normal -0.0567093 0.998391 2.21771e-18
    outer loop
      vertex 85.5359 -5.60718 0.2
      vertex 85.419 -5.61382 0
      vertex 85.419 -5.61382 0.2
    endloop
  endfacet
  facet normal -0.0567093 0.998391 0
    outer loop
      vertex 85.5359 -5.60718 0.2
      vertex 85.5359 -5.60718 0
      vertex 85.419 -5.61382 0
    endloop
  endfacet
  facet normal -0.389259 0.921129 -2.12879e-18
    outer loop
      vertex 85.6147 -5.57388 0.2
      vertex 85.5359 -5.60718 0
      vertex 85.5359 -5.60718 0.2
    endloop
  endfacet
  facet normal -0.389259 0.921129 0
    outer loop
      vertex 85.6147 -5.57388 0.2
      vertex 85.6147 -5.57388 0
      vertex 85.5359 -5.60718 0
    endloop
  endfacet
  facet normal -0.819587 0.572955 -3.32273e-18
    outer loop
      vertex 85.6587 -5.51094 0.2
      vertex 85.6147 -5.57388 0
      vertex 85.6147 -5.57388 0.2
    endloop
  endfacet
  facet normal -0.819587 0.572955 0
    outer loop
      vertex 85.6587 -5.51094 0.2
      vertex 85.6587 -5.51094 0
      vertex 85.6147 -5.57388 0
    endloop
  endfacet
  facet normal -0.992072 0.125671 -1.65499e-18
    outer loop
      vertex 85.6708 -5.41542 0.2
      vertex 85.6587 -5.51094 0
      vertex 85.6587 -5.51094 0.2
    endloop
  endfacet
  facet normal -0.992072 0.125671 0
    outer loop
      vertex 85.6708 -5.41542 0.2
      vertex 85.6708 -5.41542 0
      vertex 85.6587 -5.51094 0
    endloop
  endfacet
  facet normal -0.992266 -0.124128 -3.73441e-18
    outer loop
      vertex 85.6544 -5.28432 0.2
      vertex 85.6708 -5.41542 0
      vertex 85.6708 -5.41542 0.2
    endloop
  endfacet
  facet normal -0.992266 -0.124128 -0
    outer loop
      vertex 85.6544 -5.28432 0.2
      vertex 85.6544 -5.28432 0
      vertex 85.6708 -5.41542 0
    endloop
  endfacet
  facet normal -0.970952 -0.239275 8.61848e-18
    outer loop
      vertex 85.6126 -5.1147 0.2
      vertex 85.6544 -5.28432 0
      vertex 85.6544 -5.28432 0.2
    endloop
  endfacet
  facet normal -0.970952 -0.239275 -0
    outer loop
      vertex 85.6126 -5.1147 0.2
      vertex 85.6126 -5.1147 0
      vertex 85.6544 -5.28432 0
    endloop
  endfacet
  facet normal -0.956982 -0.290146 1.6589e-17
    outer loop
      vertex 85.5486 -4.90361 0.2
      vertex 85.6126 -5.1147 0
      vertex 85.6126 -5.1147 0.2
    endloop
  endfacet
  facet normal -0.956982 -0.290146 -0
    outer loop
      vertex 85.5486 -4.90361 0.2
      vertex 85.5486 -4.90361 0
      vertex 85.6126 -5.1147 0
    endloop
  endfacet
  facet normal -0.947388 -0.320088 -3.89932e-18
    outer loop
      vertex 85.5041 -4.7719 0.2
      vertex 85.5486 -4.90361 0
      vertex 85.5486 -4.90361 0.2
    endloop
  endfacet
  facet normal -0.947388 -0.320088 -0
    outer loop
      vertex 85.5041 -4.7719 0.2
      vertex 85.5041 -4.7719 0
      vertex 85.5486 -4.90361 0
    endloop
  endfacet
  facet normal -0.935359 -0.3537 -1.75491e-17
    outer loop
      vertex 85.4423 -4.60847 0.2
      vertex 85.5041 -4.7719 0
      vertex 85.5041 -4.7719 0.2
    endloop
  endfacet
  facet normal -0.935359 -0.3537 -0
    outer loop
      vertex 85.4423 -4.60847 0.2
      vertex 85.4423 -4.60847 0
      vertex 85.5041 -4.7719 0
    endloop
  endfacet
  facet normal -0.927525 -0.37376 -1.48657e-17
    outer loop
      vertex 85.3651 -4.41689 0.2
      vertex 85.4423 -4.60847 0
      vertex 85.4423 -4.60847 0.2
    endloop
  endfacet
  facet normal -0.927525 -0.37376 -0
    outer loop
      vertex 85.3651 -4.41689 0.2
      vertex 85.3651 -4.41689 0
      vertex 85.4423 -4.60847 0
    endloop
  endfacet
  facet normal -0.921849 -0.38755 -1.79482e-17
    outer loop
      vertex 85.2742 -4.20067 0.2
      vertex 85.3651 -4.41689 0
      vertex 85.3651 -4.41689 0.2
    endloop
  endfacet
  facet normal -0.921849 -0.38755 -0
    outer loop
      vertex 85.2742 -4.20067 0.2
      vertex 85.2742 -4.20067 0
      vertex 85.3651 -4.41689 0
    endloop
  endfacet
  facet normal -0.917874 -0.396872 2.41802e-17
    outer loop
      vertex 85.1716 -3.96338 0.2
      vertex 85.2742 -4.20067 0
      vertex 85.2742 -4.20067 0.2
    endloop
  endfacet
  facet normal -0.917874 -0.396872 -0
    outer loop
      vertex 85.1716 -3.96338 0.2
      vertex 85.1716 -3.96338 0
      vertex 85.2742 -4.20067 0
    endloop
  endfacet
  facet normal -0.914807 -0.403892 2.86156e-17
    outer loop
      vertex 85.0591 -3.70857 0.2
      vertex 85.1716 -3.96338 0
      vertex 85.1716 -3.96338 0.2
    endloop
  endfacet
  facet normal -0.914807 -0.403892 -0
    outer loop
      vertex 85.0591 -3.70857 0.2
      vertex 85.0591 -3.70857 0
      vertex 85.1716 -3.96338 0
    endloop
  endfacet
  facet normal -0.912361 -0.409386 -5.3826e-17
    outer loop
      vertex 84.9385 -3.4398 0.2
      vertex 85.0591 -3.70857 0
      vertex 85.0591 -3.70857 0.2
    endloop
  endfacet
  facet normal -0.912361 -0.409386 -0
    outer loop
      vertex 84.9385 -3.4398 0.2
      vertex 84.9385 -3.4398 0
      vertex 85.0591 -3.70857 0
    endloop
  endfacet
  facet normal -0.910495 -0.41352 -2.06623e-17
    outer loop
      vertex 84.8117 -3.16061 0.2
      vertex 84.9385 -3.4398 0
      vertex 84.9385 -3.4398 0.2
    endloop
  endfacet
  facet normal -0.910495 -0.41352 -0
    outer loop
      vertex 84.8117 -3.16061 0.2
      vertex 84.8117 -3.16061 0
      vertex 84.9385 -3.4398 0
    endloop
  endfacet
  facet normal -0.908826 -0.417175 -4.50515e-17
    outer loop
      vertex 84.6804 -2.87457 0.2
      vertex 84.8117 -3.16061 0
      vertex 84.8117 -3.16061 0.2
    endloop
  endfacet
  facet normal -0.908826 -0.417175 -0
    outer loop
      vertex 84.6804 -2.87457 0.2
      vertex 84.6804 -2.87457 0
      vertex 84.8117 -3.16061 0
    endloop
  endfacet
  facet normal -0.907645 -0.419738 4.53848e-17
    outer loop
      vertex 84.5466 -2.58524 0.2
      vertex 84.6804 -2.87457 0
      vertex 84.6804 -2.87457 0.2
    endloop
  endfacet
  facet normal -0.907645 -0.419738 -0
    outer loop
      vertex 84.5466 -2.58524 0.2
      vertex 84.5466 -2.58524 0
      vertex 84.6804 -2.87457 0
    endloop
  endfacet
  facet normal -0.906685 -0.421809 -1.88604e-17
    outer loop
      vertex 84.4121 -2.29613 0.2
      vertex 84.5466 -2.58524 0
      vertex 84.5466 -2.58524 0.2
    endloop
  endfacet
  facet normal -0.906685 -0.421809 -0
    outer loop
      vertex 84.4121 -2.29613 0.2
      vertex 84.4121 -2.29613 0
      vertex 84.5466 -2.58524 0
    endloop
  endfacet
  facet normal -0.90575 -0.423812 -5.16827e-17
    outer loop
      vertex 84.2786 -2.01082 0.2
      vertex 84.4121 -2.29613 0
      vertex 84.4121 -2.29613 0.2
    endloop
  endfacet
  facet normal -0.90575 -0.423812 -0
    outer loop
      vertex 84.2786 -2.01082 0.2
      vertex 84.2786 -2.01082 0
      vertex 84.4121 -2.29613 0
    endloop
  endfacet
  facet normal -0.891272 -0.45347 1.64351e-16
    outer loop
      vertex 83.435 -0.352768 0.2
      vertex 84.2786 -2.01082 0
      vertex 84.2786 -2.01082 0.2
    endloop
  endfacet
  facet normal -0.891272 -0.45347 -0
    outer loop
      vertex 83.435 -0.352768 0.2
      vertex 83.435 -0.352768 0
      vertex 84.2786 -2.01082 0
    endloop
  endfacet
  facet normal 0 -1 0
    outer loop
      vertex 76.5843 -0.352768 0.2
      vertex 83.435 -0.352768 0
      vertex 83.435 -0.352768 0.2
    endloop
  endfacet
  facet normal 0 -1 0
    outer loop
      vertex 76.5843 -0.352768 0.2
      vertex 76.5843 -0.352768 0
      vertex 83.435 -0.352768 0
    endloop
  endfacet
  facet normal -0.612811 -0.79023 -3.48433e-17
    outer loop
      vertex 76.1294 0 0.2
      vertex 76.5843 -0.352768 0
      vertex 76.5843 -0.352768 0.2
    endloop
  endfacet
  facet normal -0.612811 -0.79023 -0
    outer loop
      vertex 76.1294 0 0.2
      vertex 76.1294 0 0
      vertex 76.5843 -0.352768 0
    endloop
  endfacet
  facet normal 0 1 0
    outer loop
      vertex 169.333 0 0.2
      vertex 76.1294 0 0
      vertex 76.1294 0 0.2
    endloop
  endfacet
  facet normal 0 1 0
    outer loop
      vertex 169.333 0 0.2
      vertex 169.333 0 0
      vertex 76.1294 0 0
    endloop
  endfacet
  facet normal 1 -0 0
    outer loop
      vertex 169.333 -127 0.2
      vertex 169.333 0 0
      vertex 169.333 0 0.2
    endloop
  endfacet
  facet normal 1 0 0
    outer loop
      vertex 169.333 -127 0.2
      vertex 169.333 -127 0
      vertex 169.333 0 0
    endloop
  endfacet
endsolid OpenSCAD_Model
